<?xml version="1.0" encoding="utf-8" standalone="no"?>
<!DOCTYPE svg PUBLIC "-//W3C//DTD SVG 1.1//EN"
  "http://www.w3.org/Graphics/SVG/1.1/DTD/svg11.dtd">
<!-- Created with matplotlib (https://matplotlib.org/) -->
<svg height="581.789375pt" version="1.1" viewBox="0 0 579.180257 581.789375" width="579.180257pt" xmlns="http://www.w3.org/2000/svg" xmlns:xlink="http://www.w3.org/1999/xlink">
 <defs>
  <style type="text/css">
*{stroke-linecap:butt;stroke-linejoin:round;}
  </style>
 </defs>
 <g id="figure_1">
  <g id="patch_1">
   <path d="M 0 581.789375 
L 579.180257 581.789375 
L 579.180257 0 
L 0 0 
z
" style="fill:none;"/>
  </g>
  <g id="axes_1">
   <g id="patch_2">
    <path d="M 36 402.93 
L 538.2 402.93 
L 538.2 36 
L 36 36 
z
" style="fill:none;"/>
   </g>
   <g id="PolyCollection_1">
    <defs>
     <path d="M 58.827273 -195.538011 
L 58.827273 -195.650004 
L 63.227198 -195.692234 
L 67.627122 -195.749007 
L 72.027047 -195.8248 
L 76.426972 -195.925281 
L 80.826897 -196.057565 
L 85.226821 -196.230497 
L 89.626746 -196.454982 
L 94.026671 -196.744335 
L 98.426596 -197.114666 
L 102.82652 -197.585273 
L 107.226445 -198.179047 
L 111.62637 -198.922859 
L 116.026295 -199.847921 
L 120.42622 -200.990079 
L 124.826144 -202.390029 
L 129.226069 -204.093399 
L 133.625994 -206.150691 
L 138.025919 -208.617009 
L 142.425843 -211.551575 
L 146.825768 -215.016962 
L 151.225693 -219.078053 
L 155.625618 -223.800667 
L 160.025543 -229.249878 
L 164.425467 -235.488004 
L 168.825392 -242.572312 
L 173.225317 -250.552459 
L 177.625242 -259.467747 
L 182.025166 -269.344261 
L 186.425091 -280.192004 
L 190.825016 -292.002137 
L 195.224941 -304.744465 
L 199.624866 -318.365297 
L 204.02479 -332.785841 
L 208.424715 -347.901251 
L 212.82464 -363.580456 
L 217.224565 -379.666871 
L 221.624489 -395.980052 
L 226.024414 -412.31833 
L 230.424339 -428.4624 
L 234.824264 -444.179822 
L 239.224188 -459.230303 
L 243.624113 -473.371627 
L 248.024038 -486.366018 
L 252.423963 -497.986726 
L 256.823888 -508.02457 
L 261.223812 -516.294181 
L 265.623737 -522.639693 
L 270.023662 -526.939623 
L 274.423587 -529.110739 
L 278.823511 -529.110739 
L 283.223436 -526.939623 
L 287.623361 -522.639693 
L 292.023286 -516.294181 
L 296.423211 -508.02457 
L 300.823135 -497.986726 
L 305.22306 -486.366018 
L 309.622985 -473.371627 
L 314.02291 -459.230303 
L 318.422834 -444.179822 
L 322.822759 -428.4624 
L 327.222684 -412.31833 
L 331.622609 -395.980052 
L 336.022534 -379.666871 
L 340.422458 -363.580456 
L 344.822383 -347.901251 
L 349.222308 -332.785841 
L 353.622233 -318.365297 
L 358.022157 -304.744465 
L 362.422082 -292.002137 
L 366.822007 -280.192004 
L 371.221932 -269.344261 
L 375.621856 -259.467747 
L 380.021781 -250.552459 
L 384.421706 -242.572312 
L 388.821631 -235.488004 
L 393.221556 -229.249878 
L 397.62148 -223.800667 
L 402.021405 -219.078053 
L 406.42133 -215.016962 
L 410.821255 -211.551575 
L 415.221179 -208.617009 
L 419.621104 -206.150691 
L 424.021029 -204.093399 
L 428.420954 -202.390029 
L 432.820879 -200.990079 
L 437.220803 -199.847921 
L 441.620728 -198.922859 
L 446.020653 -198.179047 
L 450.420578 -197.585273 
L 454.820502 -197.114666 
L 459.220427 -196.744335 
L 463.620352 -196.454982 
L 468.020277 -196.230497 
L 472.420202 -196.057565 
L 476.820126 -195.925281 
L 481.220051 -195.8248 
L 485.619976 -195.749007 
L 490.019901 -195.692234 
L 494.419825 -195.650004 
L 494.419825 -195.538011 
L 494.419825 -195.538011 
L 490.019901 -195.538011 
L 485.619976 -195.538011 
L 481.220051 -195.538011 
L 476.820126 -195.538011 
L 472.420202 -195.538011 
L 468.020277 -195.538011 
L 463.620352 -195.538011 
L 459.220427 -195.538011 
L 454.820502 -195.538011 
L 450.420578 -195.538011 
L 446.020653 -195.538011 
L 441.620728 -195.538011 
L 437.220803 -195.538011 
L 432.820879 -195.538011 
L 428.420954 -195.538011 
L 424.021029 -195.538011 
L 419.621104 -195.538011 
L 415.221179 -195.538011 
L 410.821255 -195.538011 
L 406.42133 -195.538011 
L 402.021405 -195.538011 
L 397.62148 -195.538011 
L 393.221556 -195.538011 
L 388.821631 -195.538011 
L 384.421706 -195.538011 
L 380.021781 -195.538011 
L 375.621856 -195.538011 
L 371.221932 -195.538011 
L 366.822007 -195.538011 
L 362.422082 -195.538011 
L 358.022157 -195.538011 
L 353.622233 -195.538011 
L 349.222308 -195.538011 
L 344.822383 -195.538011 
L 340.422458 -195.538011 
L 336.022534 -195.538011 
L 331.622609 -195.538011 
L 327.222684 -195.538011 
L 322.822759 -195.538011 
L 318.422834 -195.538011 
L 314.02291 -195.538011 
L 309.622985 -195.538011 
L 305.22306 -195.538011 
L 300.823135 -195.538011 
L 296.423211 -195.538011 
L 292.023286 -195.538011 
L 287.623361 -195.538011 
L 283.223436 -195.538011 
L 278.823511 -195.538011 
L 274.423587 -195.538011 
L 270.023662 -195.538011 
L 265.623737 -195.538011 
L 261.223812 -195.538011 
L 256.823888 -195.538011 
L 252.423963 -195.538011 
L 248.024038 -195.538011 
L 243.624113 -195.538011 
L 239.224188 -195.538011 
L 234.824264 -195.538011 
L 230.424339 -195.538011 
L 226.024414 -195.538011 
L 221.624489 -195.538011 
L 217.224565 -195.538011 
L 212.82464 -195.538011 
L 208.424715 -195.538011 
L 204.02479 -195.538011 
L 199.624866 -195.538011 
L 195.224941 -195.538011 
L 190.825016 -195.538011 
L 186.425091 -195.538011 
L 182.025166 -195.538011 
L 177.625242 -195.538011 
L 173.225317 -195.538011 
L 168.825392 -195.538011 
L 164.425467 -195.538011 
L 160.025543 -195.538011 
L 155.625618 -195.538011 
L 151.225693 -195.538011 
L 146.825768 -195.538011 
L 142.425843 -195.538011 
L 138.025919 -195.538011 
L 133.625994 -195.538011 
L 129.226069 -195.538011 
L 124.826144 -195.538011 
L 120.42622 -195.538011 
L 116.026295 -195.538011 
L 111.62637 -195.538011 
L 107.226445 -195.538011 
L 102.82652 -195.538011 
L 98.426596 -195.538011 
L 94.026671 -195.538011 
L 89.626746 -195.538011 
L 85.226821 -195.538011 
L 80.826897 -195.538011 
L 76.426972 -195.538011 
L 72.027047 -195.538011 
L 67.627122 -195.538011 
L 63.227198 -195.538011 
L 58.827273 -195.538011 
z
" id="mb6c10aecaf" style="stroke:#ff6384;stroke-opacity:0.5;"/>
    </defs>
    <g clip-path="url(#pba86aa38f5)">
     <use style="fill:#ff6384;fill-opacity:0.5;stroke:#ff6384;stroke-opacity:0.5;" x="0" xlink:href="#mb6c10aecaf" y="581.789375"/>
    </g>
   </g>
   <g id="PolyCollection_2">
    <defs>
     <path d="M 78.435303 -195.538011 
L 78.435303 -195.649659 
L 82.848813 -195.69176 
L 87.262322 -195.748358 
L 91.675831 -195.823917 
L 96.089341 -195.924089 
L 100.50285 -196.055966 
L 104.916359 -196.228365 
L 109.329869 -196.452159 
L 113.743378 -196.740622 
L 118.156887 -197.109813 
L 122.570397 -197.578972 
L 126.983906 -198.170918 
L 131.397415 -198.912441 
L 135.810925 -199.834655 
L 140.224434 -200.973298 
L 144.637943 -202.368938 
L 149.051453 -204.067066 
L 153.464962 -206.118026 
L 157.878471 -208.576753 
L 162.291981 -211.502286 
L 166.70549 -214.957007 
L 171.118999 -219.005598 
L 175.532509 -223.713676 
L 179.946018 -229.146114 
L 184.359527 -235.36504 
L 188.773037 -242.427543 
L 193.186546 -250.383128 
L 197.600055 -259.270974 
L 202.013565 -269.117089 
L 206.427074 -279.931443 
L 210.840583 -291.705226 
L 215.254093 -304.408333 
L 219.667602 -317.987241 
L 224.081111 -332.363399 
L 228.494621 -347.432285 
L 232.90813 -363.06323 
L 237.321639 -379.100132 
L 241.735149 -395.363102 
L 246.148658 -411.651091 
L 250.562167 -427.745471 
L 254.975677 -443.414515 
L 259.389186 -458.418671 
L 263.802695 -472.516469 
L 268.216205 -485.470864 
L 272.629714 -497.055805 
L 277.043223 -507.062752 
L 281.456733 -515.30691 
L 285.870242 -521.632891 
L 290.283751 -525.919586 
L 294.697261 -528.084019 
L 299.11077 -528.084019 
L 303.524279 -525.919586 
L 307.937789 -521.632891 
L 312.351298 -515.30691 
L 316.764807 -507.062752 
L 321.178317 -497.055805 
L 325.591826 -485.470864 
L 330.005335 -472.516469 
L 334.418845 -458.418671 
L 338.832354 -443.414515 
L 343.245863 -427.745471 
L 347.659373 -411.651091 
L 352.072882 -395.363102 
L 356.486391 -379.100132 
L 360.899901 -363.06323 
L 365.31341 -347.432285 
L 369.726919 -332.363399 
L 374.140429 -317.987241 
L 378.553938 -304.408333 
L 382.967447 -291.705226 
L 387.380957 -279.931443 
L 391.794466 -269.117089 
L 396.207975 -259.270974 
L 400.621485 -250.383128 
L 405.034994 -242.427543 
L 409.448503 -235.36504 
L 413.862013 -229.146114 
L 418.275522 -223.713676 
L 422.689031 -219.005598 
L 427.102541 -214.957007 
L 431.51605 -211.502286 
L 435.929559 -208.576753 
L 440.343069 -206.118026 
L 444.756578 -204.067066 
L 449.170087 -202.368938 
L 453.583597 -200.973298 
L 457.997106 -199.834655 
L 462.410615 -198.912441 
L 466.824125 -198.170918 
L 471.237634 -197.578972 
L 475.651143 -197.109813 
L 480.064653 -196.740622 
L 484.478162 -196.452159 
L 488.891671 -196.228365 
L 493.305181 -196.055966 
L 497.71869 -195.924089 
L 502.132199 -195.823917 
L 506.545709 -195.748358 
L 510.959218 -195.69176 
L 515.372727 -195.649659 
L 515.372727 -195.538011 
L 515.372727 -195.538011 
L 510.959218 -195.538011 
L 506.545709 -195.538011 
L 502.132199 -195.538011 
L 497.71869 -195.538011 
L 493.305181 -195.538011 
L 488.891671 -195.538011 
L 484.478162 -195.538011 
L 480.064653 -195.538011 
L 475.651143 -195.538011 
L 471.237634 -195.538011 
L 466.824125 -195.538011 
L 462.410615 -195.538011 
L 457.997106 -195.538011 
L 453.583597 -195.538011 
L 449.170087 -195.538011 
L 444.756578 -195.538011 
L 440.343069 -195.538011 
L 435.929559 -195.538011 
L 431.51605 -195.538011 
L 427.102541 -195.538011 
L 422.689031 -195.538011 
L 418.275522 -195.538011 
L 413.862013 -195.538011 
L 409.448503 -195.538011 
L 405.034994 -195.538011 
L 400.621485 -195.538011 
L 396.207975 -195.538011 
L 391.794466 -195.538011 
L 387.380957 -195.538011 
L 382.967447 -195.538011 
L 378.553938 -195.538011 
L 374.140429 -195.538011 
L 369.726919 -195.538011 
L 365.31341 -195.538011 
L 360.899901 -195.538011 
L 356.486391 -195.538011 
L 352.072882 -195.538011 
L 347.659373 -195.538011 
L 343.245863 -195.538011 
L 338.832354 -195.538011 
L 334.418845 -195.538011 
L 330.005335 -195.538011 
L 325.591826 -195.538011 
L 321.178317 -195.538011 
L 316.764807 -195.538011 
L 312.351298 -195.538011 
L 307.937789 -195.538011 
L 303.524279 -195.538011 
L 299.11077 -195.538011 
L 294.697261 -195.538011 
L 290.283751 -195.538011 
L 285.870242 -195.538011 
L 281.456733 -195.538011 
L 277.043223 -195.538011 
L 272.629714 -195.538011 
L 268.216205 -195.538011 
L 263.802695 -195.538011 
L 259.389186 -195.538011 
L 254.975677 -195.538011 
L 250.562167 -195.538011 
L 246.148658 -195.538011 
L 241.735149 -195.538011 
L 237.321639 -195.538011 
L 232.90813 -195.538011 
L 228.494621 -195.538011 
L 224.081111 -195.538011 
L 219.667602 -195.538011 
L 215.254093 -195.538011 
L 210.840583 -195.538011 
L 206.427074 -195.538011 
L 202.013565 -195.538011 
L 197.600055 -195.538011 
L 193.186546 -195.538011 
L 188.773037 -195.538011 
L 184.359527 -195.538011 
L 179.946018 -195.538011 
L 175.532509 -195.538011 
L 171.118999 -195.538011 
L 166.70549 -195.538011 
L 162.291981 -195.538011 
L 157.878471 -195.538011 
L 153.464962 -195.538011 
L 149.051453 -195.538011 
L 144.637943 -195.538011 
L 140.224434 -195.538011 
L 135.810925 -195.538011 
L 131.397415 -195.538011 
L 126.983906 -195.538011 
L 122.570397 -195.538011 
L 118.156887 -195.538011 
L 113.743378 -195.538011 
L 109.329869 -195.538011 
L 104.916359 -195.538011 
L 100.50285 -195.538011 
L 96.089341 -195.538011 
L 91.675831 -195.538011 
L 87.262322 -195.538011 
L 82.848813 -195.538011 
L 78.435303 -195.538011 
z
" id="mdffa8203d6" style="stroke:#36a2eb;stroke-opacity:0.5;"/>
    </defs>
    <g clip-path="url(#pba86aa38f5)">
     <use style="fill:#36a2eb;fill-opacity:0.5;stroke:#36a2eb;stroke-opacity:0.5;" x="0" xlink:href="#mdffa8203d6" y="581.789375"/>
    </g>
   </g>
   <g id="line2d_1">
    <path clip-path="url(#pba86aa38f5)" d="M 58.827273 386.139371 
L 63.227198 386.097141 
L 67.627122 386.040368 
L 72.027047 385.964575 
L 76.426972 385.864094 
L 80.826897 385.73181 
L 85.226821 385.558878 
L 89.626746 385.334393 
L 94.026671 385.04504 
L 98.426596 384.674709 
L 102.82652 384.204102 
L 107.226445 383.610328 
L 111.62637 382.866516 
L 116.026295 381.941454 
L 120.42622 380.799296 
L 124.826144 379.399346 
L 129.226069 377.695976 
L 133.625994 375.638684 
L 138.025919 373.172366 
L 142.425843 370.2378 
L 146.825768 366.772413 
L 151.225693 362.711322 
L 155.625618 357.988708 
L 160.025543 352.539497 
L 164.425467 346.301371 
L 168.825392 339.217063 
L 173.225317 331.236916 
L 177.625242 322.321628 
L 182.025166 312.445114 
L 186.425091 301.597371 
L 190.825016 289.787238 
L 195.224941 277.04491 
L 199.624866 263.424078 
L 204.02479 249.003534 
L 208.424715 233.888124 
L 212.82464 218.208919 
L 217.224565 202.122504 
L 221.624489 185.809323 
L 226.024414 169.471045 
L 230.424339 153.326975 
L 234.824264 137.609553 
L 239.224188 122.559072 
L 243.624113 108.417748 
L 248.024038 95.423357 
L 252.423963 83.802649 
L 256.823888 73.764805 
L 261.223812 65.495194 
L 265.623737 59.149682 
L 270.023662 54.849752 
L 274.423587 52.678636 
L 278.823511 52.678636 
L 283.223436 54.849752 
L 287.623361 59.149682 
L 292.023286 65.495194 
L 296.423211 73.764805 
L 300.823135 83.802649 
L 305.22306 95.423357 
L 309.622985 108.417748 
L 314.02291 122.559072 
L 318.422834 137.609553 
L 322.822759 153.326975 
L 327.222684 169.471045 
L 331.622609 185.809323 
L 336.022534 202.122504 
L 340.422458 218.208919 
L 344.822383 233.888124 
L 349.222308 249.003534 
L 353.622233 263.424078 
L 358.022157 277.04491 
L 362.422082 289.787238 
L 366.822007 301.597371 
L 371.221932 312.445114 
L 375.621856 322.321628 
L 380.021781 331.236916 
L 384.421706 339.217063 
L 388.821631 346.301371 
L 393.221556 352.539497 
L 397.62148 357.988708 
L 402.021405 362.711322 
L 406.42133 366.772413 
L 410.821255 370.2378 
L 415.221179 373.172366 
L 419.621104 375.638684 
L 424.021029 377.695976 
L 428.420954 379.399346 
L 432.820879 380.799296 
L 437.220803 381.941454 
L 441.620728 382.866516 
L 446.020653 383.610328 
L 450.420578 384.204102 
L 454.820502 384.674709 
L 459.220427 385.04504 
L 463.620352 385.334393 
L 468.020277 385.558878 
L 472.420202 385.73181 
L 476.820126 385.864094 
L 481.220051 385.964575 
L 485.619976 386.040368 
L 490.019901 386.097141 
L 494.419825 386.139371 
" style="fill:none;stroke:#ff6384;stroke-linecap:square;"/>
   </g>
   <g id="line2d_2">
    <path clip-path="url(#pba86aa38f5)" d="M 78.435303 386.139716 
L 82.848813 386.097615 
L 87.262322 386.041017 
L 91.675831 385.965458 
L 96.089341 385.865286 
L 100.50285 385.733409 
L 104.916359 385.56101 
L 109.329869 385.337216 
L 113.743378 385.048753 
L 118.156887 384.679562 
L 122.570397 384.210403 
L 126.983906 383.618457 
L 131.397415 382.876934 
L 135.810925 381.95472 
L 140.224434 380.816077 
L 144.637943 379.420437 
L 149.051453 377.722309 
L 153.464962 375.671349 
L 157.878471 373.212622 
L 162.291981 370.287089 
L 166.70549 366.832368 
L 171.118999 362.783777 
L 175.532509 358.075699 
L 179.946018 352.643261 
L 184.359527 346.424335 
L 188.773037 339.361832 
L 193.186546 331.406247 
L 197.600055 322.518401 
L 202.013565 312.672286 
L 206.427074 301.857932 
L 210.840583 290.084149 
L 215.254093 277.381042 
L 219.667602 263.802134 
L 224.081111 249.425976 
L 228.494621 234.35709 
L 232.90813 218.726145 
L 237.321639 202.689243 
L 241.735149 186.426273 
L 246.148658 170.138284 
L 250.562167 154.043904 
L 254.975677 138.37486 
L 259.389186 123.370704 
L 263.802695 109.272906 
L 268.216205 96.318511 
L 272.629714 84.73357 
L 277.043223 74.726623 
L 281.456733 66.482465 
L 285.870242 60.156484 
L 290.283751 55.869789 
L 294.697261 53.705356 
L 299.11077 53.705356 
L 303.524279 55.869789 
L 307.937789 60.156484 
L 312.351298 66.482465 
L 316.764807 74.726623 
L 321.178317 84.73357 
L 325.591826 96.318511 
L 330.005335 109.272906 
L 334.418845 123.370704 
L 338.832354 138.37486 
L 343.245863 154.043904 
L 347.659373 170.138284 
L 352.072882 186.426273 
L 356.486391 202.689243 
L 360.899901 218.726145 
L 365.31341 234.35709 
L 369.726919 249.425976 
L 374.140429 263.802134 
L 378.553938 277.381042 
L 382.967447 290.084149 
L 387.380957 301.857932 
L 391.794466 312.672286 
L 396.207975 322.518401 
L 400.621485 331.406247 
L 405.034994 339.361832 
L 409.448503 346.424335 
L 413.862013 352.643261 
L 418.275522 358.075699 
L 422.689031 362.783777 
L 427.102541 366.832368 
L 431.51605 370.287089 
L 435.929559 373.212622 
L 440.343069 375.671349 
L 444.756578 377.722309 
L 449.170087 379.420437 
L 453.583597 380.816077 
L 457.997106 381.95472 
L 462.410615 382.876934 
L 466.824125 383.618457 
L 471.237634 384.210403 
L 475.651143 384.679562 
L 480.064653 385.048753 
L 484.478162 385.337216 
L 488.891671 385.56101 
L 493.305181 385.733409 
L 497.71869 385.865286 
L 502.132199 385.965458 
L 506.545709 386.041017 
L 510.959218 386.097615 
L 515.372727 386.139716 
" style="fill:none;stroke:#36a2eb;stroke-linecap:square;"/>
   </g>
   <g id="patch_3">
    <path d="M 36 402.93 
L 538.2 402.93 
" style="fill:none;stroke:#000000;stroke-linecap:square;stroke-linejoin:miter;stroke-width:0.8;"/>
   </g>
   <g id="legend_1">
    <g id="patch_4">
     <path d="M 450.225313 88.29875 
L 528.4 88.29875 
Q 531.2 88.29875 531.2 85.49875 
L 531.2 45.8 
Q 531.2 43 528.4 43 
L 450.225313 43 
Q 447.425313 43 447.425313 45.8 
L 447.425313 85.49875 
Q 447.425313 88.29875 450.225313 88.29875 
z
" style="fill:#ffffff;opacity:0.8;stroke:#cccccc;stroke-linejoin:miter;"/>
    </g>
    <g id="patch_5">
     <path d="M 453.025313 59.237813 
L 481.025313 59.237813 
L 481.025313 49.437813 
L 453.025313 49.437813 
z
" style="fill:#ff6384;opacity:0.5;stroke:#ff6384;stroke-linejoin:miter;"/>
    </g>
    <g id="text_1">
     <!-- base -->
     <defs>
      <path d="M 48.6875 27.296875 
Q 48.6875 37.203125 44.609375 42.84375 
Q 40.53125 48.484375 33.40625 48.484375 
Q 26.265625 48.484375 22.1875 42.84375 
Q 18.109375 37.203125 18.109375 27.296875 
Q 18.109375 17.390625 22.1875 11.75 
Q 26.265625 6.109375 33.40625 6.109375 
Q 40.53125 6.109375 44.609375 11.75 
Q 48.6875 17.390625 48.6875 27.296875 
z
M 18.109375 46.390625 
Q 20.953125 51.265625 25.265625 53.625 
Q 29.59375 56 35.59375 56 
Q 45.5625 56 51.78125 48.09375 
Q 58.015625 40.1875 58.015625 27.296875 
Q 58.015625 14.40625 51.78125 6.484375 
Q 45.5625 -1.421875 35.59375 -1.421875 
Q 29.59375 -1.421875 25.265625 0.953125 
Q 20.953125 3.328125 18.109375 8.203125 
L 18.109375 0 
L 9.078125 0 
L 9.078125 75.984375 
L 18.109375 75.984375 
z
" id="DejaVuSans-98"/>
      <path d="M 34.28125 27.484375 
Q 23.390625 27.484375 19.1875 25 
Q 14.984375 22.515625 14.984375 16.5 
Q 14.984375 11.71875 18.140625 8.90625 
Q 21.296875 6.109375 26.703125 6.109375 
Q 34.1875 6.109375 38.703125 11.40625 
Q 43.21875 16.703125 43.21875 25.484375 
L 43.21875 27.484375 
z
M 52.203125 31.203125 
L 52.203125 0 
L 43.21875 0 
L 43.21875 8.296875 
Q 40.140625 3.328125 35.546875 0.953125 
Q 30.953125 -1.421875 24.3125 -1.421875 
Q 15.921875 -1.421875 10.953125 3.296875 
Q 6 8.015625 6 15.921875 
Q 6 25.140625 12.171875 29.828125 
Q 18.359375 34.515625 30.609375 34.515625 
L 43.21875 34.515625 
L 43.21875 35.40625 
Q 43.21875 41.609375 39.140625 45 
Q 35.0625 48.390625 27.6875 48.390625 
Q 23 48.390625 18.546875 47.265625 
Q 14.109375 46.140625 10.015625 43.890625 
L 10.015625 52.203125 
Q 14.9375 54.109375 19.578125 55.046875 
Q 24.21875 56 28.609375 56 
Q 40.484375 56 46.34375 49.84375 
Q 52.203125 43.703125 52.203125 31.203125 
z
" id="DejaVuSans-97"/>
      <path d="M 44.28125 53.078125 
L 44.28125 44.578125 
Q 40.484375 46.53125 36.375 47.5 
Q 32.28125 48.484375 27.875 48.484375 
Q 21.1875 48.484375 17.84375 46.4375 
Q 14.5 44.390625 14.5 40.28125 
Q 14.5 37.15625 16.890625 35.375 
Q 19.28125 33.59375 26.515625 31.984375 
L 29.59375 31.296875 
Q 39.15625 29.25 43.1875 25.515625 
Q 47.21875 21.78125 47.21875 15.09375 
Q 47.21875 7.46875 41.1875 3.015625 
Q 35.15625 -1.421875 24.609375 -1.421875 
Q 20.21875 -1.421875 15.453125 -0.5625 
Q 10.6875 0.296875 5.421875 2 
L 5.421875 11.28125 
Q 10.40625 8.6875 15.234375 7.390625 
Q 20.0625 6.109375 24.8125 6.109375 
Q 31.15625 6.109375 34.5625 8.28125 
Q 37.984375 10.453125 37.984375 14.40625 
Q 37.984375 18.0625 35.515625 20.015625 
Q 33.0625 21.96875 24.703125 23.78125 
L 21.578125 24.515625 
Q 13.234375 26.265625 9.515625 29.90625 
Q 5.8125 33.546875 5.8125 39.890625 
Q 5.8125 47.609375 11.28125 51.796875 
Q 16.75 56 26.8125 56 
Q 31.78125 56 36.171875 55.265625 
Q 40.578125 54.546875 44.28125 53.078125 
z
" id="DejaVuSans-115"/>
      <path d="M 56.203125 29.59375 
L 56.203125 25.203125 
L 14.890625 25.203125 
Q 15.484375 15.921875 20.484375 11.0625 
Q 25.484375 6.203125 34.421875 6.203125 
Q 39.59375 6.203125 44.453125 7.46875 
Q 49.3125 8.734375 54.109375 11.28125 
L 54.109375 2.78125 
Q 49.265625 0.734375 44.1875 -0.34375 
Q 39.109375 -1.421875 33.890625 -1.421875 
Q 20.796875 -1.421875 13.15625 6.1875 
Q 5.515625 13.8125 5.515625 26.8125 
Q 5.515625 40.234375 12.765625 48.109375 
Q 20.015625 56 32.328125 56 
Q 43.359375 56 49.78125 48.890625 
Q 56.203125 41.796875 56.203125 29.59375 
z
M 47.21875 32.234375 
Q 47.125 39.59375 43.09375 43.984375 
Q 39.0625 48.390625 32.421875 48.390625 
Q 24.90625 48.390625 20.390625 44.140625 
Q 15.875 39.890625 15.1875 32.171875 
z
" id="DejaVuSans-101"/>
     </defs>
     <g transform="translate(492.225313 59.237813)scale(0.14 -0.14)">
      <use xlink:href="#DejaVuSans-98"/>
      <use x="63.476562" xlink:href="#DejaVuSans-97"/>
      <use x="124.755859" xlink:href="#DejaVuSans-115"/>
      <use x="176.855469" xlink:href="#DejaVuSans-101"/>
     </g>
    </g>
    <g id="patch_6">
     <path d="M 453.025313 79.787188 
L 481.025313 79.787188 
L 481.025313 69.987188 
L 453.025313 69.987188 
z
" style="fill:#36a2eb;opacity:0.5;stroke:#36a2eb;stroke-linejoin:miter;"/>
    </g>
    <g id="text_2">
     <!-- new -->
     <defs>
      <path d="M 54.890625 33.015625 
L 54.890625 0 
L 45.90625 0 
L 45.90625 32.71875 
Q 45.90625 40.484375 42.875 44.328125 
Q 39.84375 48.1875 33.796875 48.1875 
Q 26.515625 48.1875 22.3125 43.546875 
Q 18.109375 38.921875 18.109375 30.90625 
L 18.109375 0 
L 9.078125 0 
L 9.078125 54.6875 
L 18.109375 54.6875 
L 18.109375 46.1875 
Q 21.34375 51.125 25.703125 53.5625 
Q 30.078125 56 35.796875 56 
Q 45.21875 56 50.046875 50.171875 
Q 54.890625 44.34375 54.890625 33.015625 
z
" id="DejaVuSans-110"/>
      <path d="M 4.203125 54.6875 
L 13.1875 54.6875 
L 24.421875 12.015625 
L 35.59375 54.6875 
L 46.1875 54.6875 
L 57.421875 12.015625 
L 68.609375 54.6875 
L 77.59375 54.6875 
L 63.28125 0 
L 52.6875 0 
L 40.921875 44.828125 
L 29.109375 0 
L 18.5 0 
z
" id="DejaVuSans-119"/>
     </defs>
     <g transform="translate(492.225313 79.787188)scale(0.14 -0.14)">
      <use xlink:href="#DejaVuSans-110"/>
      <use x="63.378906" xlink:href="#DejaVuSans-101"/>
      <use x="124.902344" xlink:href="#DejaVuSans-119"/>
     </g>
    </g>
   </g>
  </g>
  <g id="axes_2">
   <g id="patch_7">
    <path d="M 36 525.24 
L 538.2 525.24 
L 538.2 402.93 
L 36 402.93 
z
" style="fill:none;"/>
   </g>
   <g id="patch_8">
    <path clip-path="url(#p45426793e3)" d="M 169.903374 519.680455 
L 383.343724 519.680455 
L 383.343724 482.616818 
L 169.903374 482.616818 
z
" style="fill:#ff6384;opacity:0.5;"/>
   </g>
   <g id="patch_9">
    <path clip-path="url(#p45426793e3)" d="M 189.854347 445.553182 
L 403.953684 445.553182 
L 403.953684 408.489545 
L 189.854347 408.489545 
z
" style="fill:#36a2eb;opacity:0.5;"/>
   </g>
   <g id="matplotlib.axis_1">
    <g id="xtick_1">
     <g id="line2d_3">
      <defs>
       <path d="M 0 0 
L 0 3.5 
" id="m82d546da6b" style="stroke:#000000;stroke-width:0.8;"/>
      </defs>
      <g>
       <use style="stroke:#000000;stroke-width:0.8;" x="83.959119" xlink:href="#m82d546da6b" y="525.24"/>
      </g>
     </g>
     <g id="text_3">
      <!-- 4.00 -->
      <defs>
       <path d="M 37.796875 64.3125 
L 12.890625 25.390625 
L 37.796875 25.390625 
z
M 35.203125 72.90625 
L 47.609375 72.90625 
L 47.609375 25.390625 
L 58.015625 25.390625 
L 58.015625 17.1875 
L 47.609375 17.1875 
L 47.609375 0 
L 37.796875 0 
L 37.796875 17.1875 
L 4.890625 17.1875 
L 4.890625 26.703125 
z
" id="DejaVuSans-52"/>
       <path d="M 10.6875 12.40625 
L 21 12.40625 
L 21 0 
L 10.6875 0 
z
" id="DejaVuSans-46"/>
       <path d="M 31.78125 66.40625 
Q 24.171875 66.40625 20.328125 58.90625 
Q 16.5 51.421875 16.5 36.375 
Q 16.5 21.390625 20.328125 13.890625 
Q 24.171875 6.390625 31.78125 6.390625 
Q 39.453125 6.390625 43.28125 13.890625 
Q 47.125 21.390625 47.125 36.375 
Q 47.125 51.421875 43.28125 58.90625 
Q 39.453125 66.40625 31.78125 66.40625 
z
M 31.78125 74.21875 
Q 44.046875 74.21875 50.515625 64.515625 
Q 56.984375 54.828125 56.984375 36.375 
Q 56.984375 17.96875 50.515625 8.265625 
Q 44.046875 -1.421875 31.78125 -1.421875 
Q 19.53125 -1.421875 13.0625 8.265625 
Q 6.59375 17.96875 6.59375 36.375 
Q 6.59375 54.828125 13.0625 64.515625 
Q 19.53125 74.21875 31.78125 74.21875 
z
" id="DejaVuSans-48"/>
      </defs>
      <g transform="translate(68.373181 542.877813)scale(0.14 -0.14)">
       <use xlink:href="#DejaVuSans-52"/>
       <use x="63.623047" xlink:href="#DejaVuSans-46"/>
       <use x="95.410156" xlink:href="#DejaVuSans-48"/>
       <use x="159.033203" xlink:href="#DejaVuSans-48"/>
      </g>
     </g>
    </g>
    <g id="xtick_2">
     <g id="line2d_4">
      <g>
       <use style="stroke:#000000;stroke-width:0.8;" x="147.335576" xlink:href="#m82d546da6b" y="525.24"/>
      </g>
     </g>
     <g id="text_4">
      <!-- 4.25 -->
      <defs>
       <path d="M 19.1875 8.296875 
L 53.609375 8.296875 
L 53.609375 0 
L 7.328125 0 
L 7.328125 8.296875 
Q 12.9375 14.109375 22.625 23.890625 
Q 32.328125 33.6875 34.8125 36.53125 
Q 39.546875 41.84375 41.421875 45.53125 
Q 43.3125 49.21875 43.3125 52.78125 
Q 43.3125 58.59375 39.234375 62.25 
Q 35.15625 65.921875 28.609375 65.921875 
Q 23.96875 65.921875 18.8125 64.3125 
Q 13.671875 62.703125 7.8125 59.421875 
L 7.8125 69.390625 
Q 13.765625 71.78125 18.9375 73 
Q 24.125 74.21875 28.421875 74.21875 
Q 39.75 74.21875 46.484375 68.546875 
Q 53.21875 62.890625 53.21875 53.421875 
Q 53.21875 48.921875 51.53125 44.890625 
Q 49.859375 40.875 45.40625 35.40625 
Q 44.1875 33.984375 37.640625 27.21875 
Q 31.109375 20.453125 19.1875 8.296875 
z
" id="DejaVuSans-50"/>
       <path d="M 10.796875 72.90625 
L 49.515625 72.90625 
L 49.515625 64.59375 
L 19.828125 64.59375 
L 19.828125 46.734375 
Q 21.96875 47.46875 24.109375 47.828125 
Q 26.265625 48.1875 28.421875 48.1875 
Q 40.625 48.1875 47.75 41.5 
Q 54.890625 34.8125 54.890625 23.390625 
Q 54.890625 11.625 47.5625 5.09375 
Q 40.234375 -1.421875 26.90625 -1.421875 
Q 22.3125 -1.421875 17.546875 -0.640625 
Q 12.796875 0.140625 7.71875 1.703125 
L 7.71875 11.625 
Q 12.109375 9.234375 16.796875 8.0625 
Q 21.484375 6.890625 26.703125 6.890625 
Q 35.15625 6.890625 40.078125 11.328125 
Q 45.015625 15.765625 45.015625 23.390625 
Q 45.015625 31 40.078125 35.4375 
Q 35.15625 39.890625 26.703125 39.890625 
Q 22.75 39.890625 18.8125 39.015625 
Q 14.890625 38.140625 10.796875 36.28125 
z
" id="DejaVuSans-53"/>
      </defs>
      <g transform="translate(131.749639 542.877813)scale(0.14 -0.14)">
       <use xlink:href="#DejaVuSans-52"/>
       <use x="63.623047" xlink:href="#DejaVuSans-46"/>
       <use x="95.410156" xlink:href="#DejaVuSans-50"/>
       <use x="159.033203" xlink:href="#DejaVuSans-53"/>
      </g>
     </g>
    </g>
    <g id="xtick_3">
     <g id="line2d_5">
      <g>
       <use style="stroke:#000000;stroke-width:0.8;" x="210.712034" xlink:href="#m82d546da6b" y="525.24"/>
      </g>
     </g>
     <g id="text_5">
      <!-- 4.50 -->
      <g transform="translate(195.126096 542.877813)scale(0.14 -0.14)">
       <use xlink:href="#DejaVuSans-52"/>
       <use x="63.623047" xlink:href="#DejaVuSans-46"/>
       <use x="95.410156" xlink:href="#DejaVuSans-53"/>
       <use x="159.033203" xlink:href="#DejaVuSans-48"/>
      </g>
     </g>
    </g>
    <g id="xtick_4">
     <g id="line2d_6">
      <g>
       <use style="stroke:#000000;stroke-width:0.8;" x="274.088491" xlink:href="#m82d546da6b" y="525.24"/>
      </g>
     </g>
     <g id="text_6">
      <!-- 4.75 -->
      <defs>
       <path d="M 8.203125 72.90625 
L 55.078125 72.90625 
L 55.078125 68.703125 
L 28.609375 0 
L 18.3125 0 
L 43.21875 64.59375 
L 8.203125 64.59375 
z
" id="DejaVuSans-55"/>
      </defs>
      <g transform="translate(258.502553 542.877813)scale(0.14 -0.14)">
       <use xlink:href="#DejaVuSans-52"/>
       <use x="63.623047" xlink:href="#DejaVuSans-46"/>
       <use x="95.410156" xlink:href="#DejaVuSans-55"/>
       <use x="159.033203" xlink:href="#DejaVuSans-53"/>
      </g>
     </g>
    </g>
    <g id="xtick_5">
     <g id="line2d_7">
      <g>
       <use style="stroke:#000000;stroke-width:0.8;" x="337.464948" xlink:href="#m82d546da6b" y="525.24"/>
      </g>
     </g>
     <g id="text_7">
      <!-- 5.00 -->
      <g transform="translate(321.879011 542.877813)scale(0.14 -0.14)">
       <use xlink:href="#DejaVuSans-53"/>
       <use x="63.623047" xlink:href="#DejaVuSans-46"/>
       <use x="95.410156" xlink:href="#DejaVuSans-48"/>
       <use x="159.033203" xlink:href="#DejaVuSans-48"/>
      </g>
     </g>
    </g>
    <g id="xtick_6">
     <g id="line2d_8">
      <g>
       <use style="stroke:#000000;stroke-width:0.8;" x="400.841405" xlink:href="#m82d546da6b" y="525.24"/>
      </g>
     </g>
     <g id="text_8">
      <!-- 5.25 -->
      <g transform="translate(385.255468 542.877813)scale(0.14 -0.14)">
       <use xlink:href="#DejaVuSans-53"/>
       <use x="63.623047" xlink:href="#DejaVuSans-46"/>
       <use x="95.410156" xlink:href="#DejaVuSans-50"/>
       <use x="159.033203" xlink:href="#DejaVuSans-53"/>
      </g>
     </g>
    </g>
    <g id="xtick_7">
     <g id="line2d_9">
      <g>
       <use style="stroke:#000000;stroke-width:0.8;" x="464.217863" xlink:href="#m82d546da6b" y="525.24"/>
      </g>
     </g>
     <g id="text_9">
      <!-- 5.50 -->
      <g transform="translate(448.631925 542.877813)scale(0.14 -0.14)">
       <use xlink:href="#DejaVuSans-53"/>
       <use x="63.623047" xlink:href="#DejaVuSans-46"/>
       <use x="95.410156" xlink:href="#DejaVuSans-53"/>
       <use x="159.033203" xlink:href="#DejaVuSans-48"/>
      </g>
     </g>
    </g>
    <g id="xtick_8">
     <g id="line2d_10">
      <g>
       <use style="stroke:#000000;stroke-width:0.8;" x="527.59432" xlink:href="#m82d546da6b" y="525.24"/>
      </g>
     </g>
     <g id="text_10">
      <!-- 5.75 -->
      <g transform="translate(512.008382 542.877813)scale(0.14 -0.14)">
       <use xlink:href="#DejaVuSans-53"/>
       <use x="63.623047" xlink:href="#DejaVuSans-46"/>
       <use x="95.410156" xlink:href="#DejaVuSans-55"/>
       <use x="159.033203" xlink:href="#DejaVuSans-53"/>
      </g>
     </g>
    </g>
   </g>
   <g id="line2d_11">
    <path clip-path="url(#p45426793e3)" d="M 276.623549 525.24 
L 276.623549 402.93 
" style="fill:none;stroke:#ff6384;stroke-dasharray:5.55,2.4;stroke-dashoffset:0;stroke-opacity:0.8;stroke-width:1.5;"/>
   </g>
   <g id="line2d_12">
    <path clip-path="url(#p45426793e3)" d="M 296.904015 525.24 
L 296.904015 402.93 
" style="fill:none;stroke:#36a2eb;stroke-dasharray:5.55,2.4;stroke-dashoffset:0;stroke-opacity:0.8;stroke-width:1.5;"/>
   </g>
   <g id="patch_10">
    <path d="M 36 525.24 
L 538.2 525.24 
" style="fill:none;stroke:#000000;stroke-linecap:square;stroke-linejoin:miter;stroke-width:0.8;"/>
   </g>
  </g>
 </g>
 <defs>
  <clipPath id="pba86aa38f5">
   <rect height="366.93" width="502.2" x="36" y="36"/>
  </clipPath>
  <clipPath id="p45426793e3">
   <rect height="122.31" width="502.2" x="36" y="402.93"/>
  </clipPath>
 </defs>
</svg>
