<?xml version="1.0" encoding="utf-8" standalone="no"?>
<!DOCTYPE svg PUBLIC "-//W3C//DTD SVG 1.1//EN"
  "http://www.w3.org/Graphics/SVG/1.1/DTD/svg11.dtd">
<!-- Created with matplotlib (https://matplotlib.org/) -->
<svg height="581.789375pt" version="1.1" viewBox="0 0 584.770611 581.789375" width="584.770611pt" xmlns="http://www.w3.org/2000/svg" xmlns:xlink="http://www.w3.org/1999/xlink">
 <defs>
  <style type="text/css">
*{stroke-linecap:butt;stroke-linejoin:round;}
  </style>
 </defs>
 <g id="figure_1">
  <g id="patch_1">
   <path d="M 0 581.789375 
L 584.770611 581.789375 
L 584.770611 0 
L 0 0 
z
" style="fill:none;"/>
  </g>
  <g id="axes_1">
   <g id="patch_2">
    <path d="M 46.570611 402.93 
L 548.770611 402.93 
L 548.770611 36 
L 46.570611 36 
z
" style="fill:none;"/>
   </g>
   <g id="PolyCollection_1">
    <defs>
     <path d="M 69.397884 -195.538011 
L 69.397884 -195.650004 
L 73.937687 -195.692234 
L 78.477491 -195.749007 
L 83.017294 -195.8248 
L 87.557098 -195.925281 
L 92.096901 -196.057565 
L 96.636705 -196.230497 
L 101.176508 -196.454982 
L 105.716312 -196.744335 
L 110.256115 -197.114666 
L 114.795918 -197.585273 
L 119.335722 -198.179047 
L 123.875525 -198.922859 
L 128.415329 -199.847921 
L 132.955132 -200.990079 
L 137.494936 -202.390029 
L 142.034739 -204.093399 
L 146.574543 -206.150691 
L 151.114346 -208.617009 
L 155.654149 -211.551575 
L 160.193953 -215.016962 
L 164.733756 -219.078053 
L 169.27356 -223.800667 
L 173.813363 -229.249878 
L 178.353167 -235.488004 
L 182.89297 -242.572312 
L 187.432774 -250.552459 
L 191.972577 -259.467747 
L 196.51238 -269.344261 
L 201.052184 -280.192004 
L 205.591987 -292.002137 
L 210.131791 -304.744465 
L 214.671594 -318.365297 
L 219.211398 -332.785841 
L 223.751201 -347.901251 
L 228.291004 -363.580456 
L 232.830808 -379.666871 
L 237.370611 -395.980052 
L 241.910415 -412.31833 
L 246.450218 -428.4624 
L 250.990022 -444.179822 
L 255.529825 -459.230303 
L 260.069629 -473.371627 
L 264.609432 -486.366018 
L 269.149235 -497.986726 
L 273.689039 -508.02457 
L 278.228842 -516.294181 
L 282.768646 -522.639693 
L 287.308449 -526.939623 
L 291.848253 -529.110739 
L 296.388056 -529.110739 
L 300.92786 -526.939623 
L 305.467663 -522.639693 
L 310.007466 -516.294181 
L 314.54727 -508.02457 
L 319.087073 -497.986726 
L 323.626877 -486.366018 
L 328.16668 -473.371627 
L 332.706484 -459.230303 
L 337.246287 -444.179822 
L 341.786091 -428.4624 
L 346.325894 -412.31833 
L 350.865697 -395.980052 
L 355.405501 -379.666871 
L 359.945304 -363.580456 
L 364.485108 -347.901251 
L 369.024911 -332.785841 
L 373.564715 -318.365297 
L 378.104518 -304.744465 
L 382.644321 -292.002137 
L 387.184125 -280.192004 
L 391.723928 -269.344261 
L 396.263732 -259.467747 
L 400.803535 -250.552459 
L 405.343339 -242.572312 
L 409.883142 -235.488004 
L 414.422946 -229.249878 
L 418.962749 -223.800667 
L 423.502552 -219.078053 
L 428.042356 -215.016962 
L 432.582159 -211.551575 
L 437.121963 -208.617009 
L 441.661766 -206.150691 
L 446.20157 -204.093399 
L 450.741373 -202.390029 
L 455.281177 -200.990079 
L 459.82098 -199.847921 
L 464.360783 -198.922859 
L 468.900587 -198.179047 
L 473.44039 -197.585273 
L 477.980194 -197.114666 
L 482.519997 -196.744335 
L 487.059801 -196.454982 
L 491.599604 -196.230497 
L 496.139408 -196.057565 
L 500.679211 -195.925281 
L 505.219014 -195.8248 
L 509.758818 -195.749007 
L 514.298621 -195.692234 
L 518.838425 -195.650004 
L 518.838425 -195.538011 
L 518.838425 -195.538011 
L 514.298621 -195.538011 
L 509.758818 -195.538011 
L 505.219014 -195.538011 
L 500.679211 -195.538011 
L 496.139408 -195.538011 
L 491.599604 -195.538011 
L 487.059801 -195.538011 
L 482.519997 -195.538011 
L 477.980194 -195.538011 
L 473.44039 -195.538011 
L 468.900587 -195.538011 
L 464.360783 -195.538011 
L 459.82098 -195.538011 
L 455.281177 -195.538011 
L 450.741373 -195.538011 
L 446.20157 -195.538011 
L 441.661766 -195.538011 
L 437.121963 -195.538011 
L 432.582159 -195.538011 
L 428.042356 -195.538011 
L 423.502552 -195.538011 
L 418.962749 -195.538011 
L 414.422946 -195.538011 
L 409.883142 -195.538011 
L 405.343339 -195.538011 
L 400.803535 -195.538011 
L 396.263732 -195.538011 
L 391.723928 -195.538011 
L 387.184125 -195.538011 
L 382.644321 -195.538011 
L 378.104518 -195.538011 
L 373.564715 -195.538011 
L 369.024911 -195.538011 
L 364.485108 -195.538011 
L 359.945304 -195.538011 
L 355.405501 -195.538011 
L 350.865697 -195.538011 
L 346.325894 -195.538011 
L 341.786091 -195.538011 
L 337.246287 -195.538011 
L 332.706484 -195.538011 
L 328.16668 -195.538011 
L 323.626877 -195.538011 
L 319.087073 -195.538011 
L 314.54727 -195.538011 
L 310.007466 -195.538011 
L 305.467663 -195.538011 
L 300.92786 -195.538011 
L 296.388056 -195.538011 
L 291.848253 -195.538011 
L 287.308449 -195.538011 
L 282.768646 -195.538011 
L 278.228842 -195.538011 
L 273.689039 -195.538011 
L 269.149235 -195.538011 
L 264.609432 -195.538011 
L 260.069629 -195.538011 
L 255.529825 -195.538011 
L 250.990022 -195.538011 
L 246.450218 -195.538011 
L 241.910415 -195.538011 
L 237.370611 -195.538011 
L 232.830808 -195.538011 
L 228.291004 -195.538011 
L 223.751201 -195.538011 
L 219.211398 -195.538011 
L 214.671594 -195.538011 
L 210.131791 -195.538011 
L 205.591987 -195.538011 
L 201.052184 -195.538011 
L 196.51238 -195.538011 
L 191.972577 -195.538011 
L 187.432774 -195.538011 
L 182.89297 -195.538011 
L 178.353167 -195.538011 
L 173.813363 -195.538011 
L 169.27356 -195.538011 
L 164.733756 -195.538011 
L 160.193953 -195.538011 
L 155.654149 -195.538011 
L 151.114346 -195.538011 
L 146.574543 -195.538011 
L 142.034739 -195.538011 
L 137.494936 -195.538011 
L 132.955132 -195.538011 
L 128.415329 -195.538011 
L 123.875525 -195.538011 
L 119.335722 -195.538011 
L 114.795918 -195.538011 
L 110.256115 -195.538011 
L 105.716312 -195.538011 
L 101.176508 -195.538011 
L 96.636705 -195.538011 
L 92.096901 -195.538011 
L 87.557098 -195.538011 
L 83.017294 -195.538011 
L 78.477491 -195.538011 
L 73.937687 -195.538011 
L 69.397884 -195.538011 
z
" id="md75788007c" style="stroke:#ff6384;stroke-opacity:0.5;"/>
    </defs>
    <g clip-path="url(#p04fb11ea81)">
     <use style="fill:#ff6384;fill-opacity:0.5;stroke:#ff6384;stroke-opacity:0.5;" x="0" xlink:href="#md75788007c" y="581.789375"/>
    </g>
   </g>
   <g id="PolyCollection_2">
    <defs>
     <path d="M 75.643563 -195.538011 
L 75.643563 -195.64979 
L 80.192046 -195.69194 
L 84.740528 -195.748604 
L 89.289011 -195.824253 
L 93.837493 -195.924542 
L 98.385976 -196.056573 
L 102.934458 -196.229176 
L 107.482941 -196.453232 
L 112.031424 -196.742033 
L 116.579906 -197.111657 
L 121.128389 -197.581366 
L 125.676871 -198.174007 
L 130.225354 -198.9164 
L 134.773837 -199.839697 
L 139.322319 -200.979676 
L 143.870802 -202.376954 
L 148.419284 -204.077074 
L 152.967767 -206.13044 
L 157.516249 -208.592053 
L 162.064732 -211.521018 
L 166.613215 -214.979794 
L 171.161697 -219.033135 
L 175.71018 -223.746738 
L 180.258662 -229.185551 
L 184.807145 -235.411774 
L 189.355628 -242.482564 
L 193.90411 -250.447484 
L 198.452593 -259.34576 
L 203.001075 -269.203428 
L 207.549558 -280.030472 
L 212.09804 -291.81807 
L 216.646523 -304.536084 
L 221.195006 -318.130926 
L 225.743488 -332.523953 
L 230.291971 -347.610521 
L 234.840453 -363.259807 
L 239.388936 -379.315527 
L 243.937419 -395.597581 
L 248.485901 -411.904683 
L 253.034384 -428.017948 
L 257.582866 -443.705378 
L 262.131349 -458.727141 
L 266.679831 -472.841481 
L 271.228314 -485.811078 
L 275.776797 -497.409612 
L 280.325279 -507.428302 
L 284.873762 -515.682134 
L 289.422244 -522.015538 
L 293.970727 -526.307263 
L 298.519209 -528.474235 
L 303.067692 -528.474235 
L 307.616175 -526.307263 
L 312.164657 -522.015538 
L 316.71314 -515.682134 
L 321.261622 -507.428302 
L 325.810105 -497.409612 
L 330.358588 -485.811078 
L 334.90707 -472.841481 
L 339.455553 -458.727141 
L 344.004035 -443.705378 
L 348.552518 -428.017948 
L 353.101 -411.904683 
L 357.649483 -395.597581 
L 362.197966 -379.315527 
L 366.746448 -363.259807 
L 371.294931 -347.610521 
L 375.843413 -332.523953 
L 380.391896 -318.130926 
L 384.940379 -304.536084 
L 389.488861 -291.81807 
L 394.037344 -280.030472 
L 398.585826 -269.203428 
L 403.134309 -259.34576 
L 407.682791 -250.447484 
L 412.231274 -242.482564 
L 416.779757 -235.411774 
L 421.328239 -229.185551 
L 425.876722 -223.746738 
L 430.425204 -219.033135 
L 434.973687 -214.979794 
L 439.52217 -211.521018 
L 444.070652 -208.592053 
L 448.619135 -206.13044 
L 453.167617 -204.077074 
L 457.7161 -202.376954 
L 462.264582 -200.979676 
L 466.813065 -199.839697 
L 471.361548 -198.9164 
L 475.91003 -198.174007 
L 480.458513 -197.581366 
L 485.006995 -197.111657 
L 489.555478 -196.742033 
L 494.103961 -196.453232 
L 498.652443 -196.229176 
L 503.200926 -196.056573 
L 507.749408 -195.924542 
L 512.297891 -195.824253 
L 516.846373 -195.748604 
L 521.394856 -195.69194 
L 525.943339 -195.64979 
L 525.943339 -195.538011 
L 525.943339 -195.538011 
L 521.394856 -195.538011 
L 516.846373 -195.538011 
L 512.297891 -195.538011 
L 507.749408 -195.538011 
L 503.200926 -195.538011 
L 498.652443 -195.538011 
L 494.103961 -195.538011 
L 489.555478 -195.538011 
L 485.006995 -195.538011 
L 480.458513 -195.538011 
L 475.91003 -195.538011 
L 471.361548 -195.538011 
L 466.813065 -195.538011 
L 462.264582 -195.538011 
L 457.7161 -195.538011 
L 453.167617 -195.538011 
L 448.619135 -195.538011 
L 444.070652 -195.538011 
L 439.52217 -195.538011 
L 434.973687 -195.538011 
L 430.425204 -195.538011 
L 425.876722 -195.538011 
L 421.328239 -195.538011 
L 416.779757 -195.538011 
L 412.231274 -195.538011 
L 407.682791 -195.538011 
L 403.134309 -195.538011 
L 398.585826 -195.538011 
L 394.037344 -195.538011 
L 389.488861 -195.538011 
L 384.940379 -195.538011 
L 380.391896 -195.538011 
L 375.843413 -195.538011 
L 371.294931 -195.538011 
L 366.746448 -195.538011 
L 362.197966 -195.538011 
L 357.649483 -195.538011 
L 353.101 -195.538011 
L 348.552518 -195.538011 
L 344.004035 -195.538011 
L 339.455553 -195.538011 
L 334.90707 -195.538011 
L 330.358588 -195.538011 
L 325.810105 -195.538011 
L 321.261622 -195.538011 
L 316.71314 -195.538011 
L 312.164657 -195.538011 
L 307.616175 -195.538011 
L 303.067692 -195.538011 
L 298.519209 -195.538011 
L 293.970727 -195.538011 
L 289.422244 -195.538011 
L 284.873762 -195.538011 
L 280.325279 -195.538011 
L 275.776797 -195.538011 
L 271.228314 -195.538011 
L 266.679831 -195.538011 
L 262.131349 -195.538011 
L 257.582866 -195.538011 
L 253.034384 -195.538011 
L 248.485901 -195.538011 
L 243.937419 -195.538011 
L 239.388936 -195.538011 
L 234.840453 -195.538011 
L 230.291971 -195.538011 
L 225.743488 -195.538011 
L 221.195006 -195.538011 
L 216.646523 -195.538011 
L 212.09804 -195.538011 
L 207.549558 -195.538011 
L 203.001075 -195.538011 
L 198.452593 -195.538011 
L 193.90411 -195.538011 
L 189.355628 -195.538011 
L 184.807145 -195.538011 
L 180.258662 -195.538011 
L 175.71018 -195.538011 
L 171.161697 -195.538011 
L 166.613215 -195.538011 
L 162.064732 -195.538011 
L 157.516249 -195.538011 
L 152.967767 -195.538011 
L 148.419284 -195.538011 
L 143.870802 -195.538011 
L 139.322319 -195.538011 
L 134.773837 -195.538011 
L 130.225354 -195.538011 
L 125.676871 -195.538011 
L 121.128389 -195.538011 
L 116.579906 -195.538011 
L 112.031424 -195.538011 
L 107.482941 -195.538011 
L 102.934458 -195.538011 
L 98.385976 -195.538011 
L 93.837493 -195.538011 
L 89.289011 -195.538011 
L 84.740528 -195.538011 
L 80.192046 -195.538011 
L 75.643563 -195.538011 
z
" id="me27fb70d16" style="stroke:#36a2eb;stroke-opacity:0.5;"/>
    </defs>
    <g clip-path="url(#p04fb11ea81)">
     <use style="fill:#36a2eb;fill-opacity:0.5;stroke:#36a2eb;stroke-opacity:0.5;" x="0" xlink:href="#me27fb70d16" y="581.789375"/>
    </g>
   </g>
   <g id="line2d_1">
    <path clip-path="url(#p04fb11ea81)" d="M 69.397884 386.139371 
L 73.937687 386.097141 
L 78.477491 386.040368 
L 83.017294 385.964575 
L 87.557098 385.864094 
L 92.096901 385.73181 
L 96.636705 385.558878 
L 101.176508 385.334393 
L 105.716312 385.04504 
L 110.256115 384.674709 
L 114.795918 384.204102 
L 119.335722 383.610328 
L 123.875525 382.866516 
L 128.415329 381.941454 
L 132.955132 380.799296 
L 137.494936 379.399346 
L 142.034739 377.695976 
L 146.574543 375.638684 
L 151.114346 373.172366 
L 155.654149 370.2378 
L 160.193953 366.772413 
L 164.733756 362.711322 
L 169.27356 357.988708 
L 173.813363 352.539497 
L 178.353167 346.301371 
L 182.89297 339.217063 
L 187.432774 331.236916 
L 191.972577 322.321628 
L 196.51238 312.445114 
L 201.052184 301.597371 
L 205.591987 289.787238 
L 210.131791 277.04491 
L 214.671594 263.424078 
L 219.211398 249.003534 
L 223.751201 233.888124 
L 228.291004 218.208919 
L 232.830808 202.122504 
L 237.370611 185.809323 
L 241.910415 169.471045 
L 246.450218 153.326975 
L 250.990022 137.609553 
L 255.529825 122.559072 
L 260.069629 108.417748 
L 264.609432 95.423357 
L 269.149235 83.802649 
L 273.689039 73.764805 
L 278.228842 65.495194 
L 282.768646 59.149682 
L 287.308449 54.849752 
L 291.848253 52.678636 
L 296.388056 52.678636 
L 300.92786 54.849752 
L 305.467663 59.149682 
L 310.007466 65.495194 
L 314.54727 73.764805 
L 319.087073 83.802649 
L 323.626877 95.423357 
L 328.16668 108.417748 
L 332.706484 122.559072 
L 337.246287 137.609553 
L 341.786091 153.326975 
L 346.325894 169.471045 
L 350.865697 185.809323 
L 355.405501 202.122504 
L 359.945304 218.208919 
L 364.485108 233.888124 
L 369.024911 249.003534 
L 373.564715 263.424078 
L 378.104518 277.04491 
L 382.644321 289.787238 
L 387.184125 301.597371 
L 391.723928 312.445114 
L 396.263732 322.321628 
L 400.803535 331.236916 
L 405.343339 339.217063 
L 409.883142 346.301371 
L 414.422946 352.539497 
L 418.962749 357.988708 
L 423.502552 362.711322 
L 428.042356 366.772413 
L 432.582159 370.2378 
L 437.121963 373.172366 
L 441.661766 375.638684 
L 446.20157 377.695976 
L 450.741373 379.399346 
L 455.281177 380.799296 
L 459.82098 381.941454 
L 464.360783 382.866516 
L 468.900587 383.610328 
L 473.44039 384.204102 
L 477.980194 384.674709 
L 482.519997 385.04504 
L 487.059801 385.334393 
L 491.599604 385.558878 
L 496.139408 385.73181 
L 500.679211 385.864094 
L 505.219014 385.964575 
L 509.758818 386.040368 
L 514.298621 386.097141 
L 518.838425 386.139371 
" style="fill:none;stroke:#ff6384;stroke-linecap:square;"/>
   </g>
   <g id="line2d_2">
    <path clip-path="url(#p04fb11ea81)" d="M 75.643563 386.139585 
L 80.192046 386.097435 
L 84.740528 386.040771 
L 89.289011 385.965122 
L 93.837493 385.864833 
L 98.385976 385.732802 
L 102.934458 385.560199 
L 107.482941 385.336143 
L 112.031424 385.047342 
L 116.579906 384.677718 
L 121.128389 384.208009 
L 125.676871 383.615368 
L 130.225354 382.872975 
L 134.773837 381.949678 
L 139.322319 380.809699 
L 143.870802 379.412421 
L 148.419284 377.712301 
L 152.967767 375.658935 
L 157.516249 373.197322 
L 162.064732 370.268357 
L 166.613215 366.809581 
L 171.161697 362.75624 
L 175.71018 358.042637 
L 180.258662 352.603824 
L 184.807145 346.377601 
L 189.355628 339.306811 
L 193.90411 331.341891 
L 198.452593 322.443615 
L 203.001075 312.585947 
L 207.549558 301.758903 
L 212.09804 289.971305 
L 216.646523 277.253291 
L 221.195006 263.658449 
L 225.743488 249.265422 
L 230.291971 234.178854 
L 234.840453 218.529568 
L 239.388936 202.473848 
L 243.937419 186.191794 
L 248.485901 169.884692 
L 253.034384 153.771427 
L 257.582866 138.083997 
L 262.131349 123.062234 
L 266.679831 108.947894 
L 271.228314 95.978297 
L 275.776797 84.379763 
L 280.325279 74.361073 
L 284.873762 66.107241 
L 289.422244 59.773837 
L 293.970727 55.482112 
L 298.519209 53.31514 
L 303.067692 53.31514 
L 307.616175 55.482112 
L 312.164657 59.773837 
L 316.71314 66.107241 
L 321.261622 74.361073 
L 325.810105 84.379763 
L 330.358588 95.978297 
L 334.90707 108.947894 
L 339.455553 123.062234 
L 344.004035 138.083997 
L 348.552518 153.771427 
L 353.101 169.884692 
L 357.649483 186.191794 
L 362.197966 202.473848 
L 366.746448 218.529568 
L 371.294931 234.178854 
L 375.843413 249.265422 
L 380.391896 263.658449 
L 384.940379 277.253291 
L 389.488861 289.971305 
L 394.037344 301.758903 
L 398.585826 312.585947 
L 403.134309 322.443615 
L 407.682791 331.341891 
L 412.231274 339.306811 
L 416.779757 346.377601 
L 421.328239 352.603824 
L 425.876722 358.042637 
L 430.425204 362.75624 
L 434.973687 366.809581 
L 439.52217 370.268357 
L 444.070652 373.197322 
L 448.619135 375.658935 
L 453.167617 377.712301 
L 457.7161 379.412421 
L 462.264582 380.809699 
L 466.813065 381.949678 
L 471.361548 382.872975 
L 475.91003 383.615368 
L 480.458513 384.208009 
L 485.006995 384.677718 
L 489.555478 385.047342 
L 494.103961 385.336143 
L 498.652443 385.560199 
L 503.200926 385.732802 
L 507.749408 385.864833 
L 512.297891 385.965122 
L 516.846373 386.040771 
L 521.394856 386.097435 
L 525.943339 386.139585 
" style="fill:none;stroke:#36a2eb;stroke-linecap:square;"/>
   </g>
   <g id="patch_3">
    <path d="M 46.570611 402.93 
L 548.770611 402.93 
" style="fill:none;stroke:#000000;stroke-linecap:square;stroke-linejoin:miter;stroke-width:0.8;"/>
   </g>
   <g id="legend_1">
    <g id="patch_4">
     <path d="M 460.795924 88.29875 
L 538.970611 88.29875 
Q 541.770611 88.29875 541.770611 85.49875 
L 541.770611 45.8 
Q 541.770611 43 538.970611 43 
L 460.795924 43 
Q 457.995924 43 457.995924 45.8 
L 457.995924 85.49875 
Q 457.995924 88.29875 460.795924 88.29875 
z
" style="fill:#ffffff;opacity:0.8;stroke:#cccccc;stroke-linejoin:miter;"/>
    </g>
    <g id="patch_5">
     <path d="M 463.595924 59.237813 
L 491.595924 59.237813 
L 491.595924 49.437813 
L 463.595924 49.437813 
z
" style="fill:#ff6384;opacity:0.5;stroke:#ff6384;stroke-linejoin:miter;"/>
    </g>
    <g id="text_1">
     <!-- base -->
     <defs>
      <path d="M 48.6875 27.296875 
Q 48.6875 37.203125 44.609375 42.84375 
Q 40.53125 48.484375 33.40625 48.484375 
Q 26.265625 48.484375 22.1875 42.84375 
Q 18.109375 37.203125 18.109375 27.296875 
Q 18.109375 17.390625 22.1875 11.75 
Q 26.265625 6.109375 33.40625 6.109375 
Q 40.53125 6.109375 44.609375 11.75 
Q 48.6875 17.390625 48.6875 27.296875 
z
M 18.109375 46.390625 
Q 20.953125 51.265625 25.265625 53.625 
Q 29.59375 56 35.59375 56 
Q 45.5625 56 51.78125 48.09375 
Q 58.015625 40.1875 58.015625 27.296875 
Q 58.015625 14.40625 51.78125 6.484375 
Q 45.5625 -1.421875 35.59375 -1.421875 
Q 29.59375 -1.421875 25.265625 0.953125 
Q 20.953125 3.328125 18.109375 8.203125 
L 18.109375 0 
L 9.078125 0 
L 9.078125 75.984375 
L 18.109375 75.984375 
z
" id="DejaVuSans-98"/>
      <path d="M 34.28125 27.484375 
Q 23.390625 27.484375 19.1875 25 
Q 14.984375 22.515625 14.984375 16.5 
Q 14.984375 11.71875 18.140625 8.90625 
Q 21.296875 6.109375 26.703125 6.109375 
Q 34.1875 6.109375 38.703125 11.40625 
Q 43.21875 16.703125 43.21875 25.484375 
L 43.21875 27.484375 
z
M 52.203125 31.203125 
L 52.203125 0 
L 43.21875 0 
L 43.21875 8.296875 
Q 40.140625 3.328125 35.546875 0.953125 
Q 30.953125 -1.421875 24.3125 -1.421875 
Q 15.921875 -1.421875 10.953125 3.296875 
Q 6 8.015625 6 15.921875 
Q 6 25.140625 12.171875 29.828125 
Q 18.359375 34.515625 30.609375 34.515625 
L 43.21875 34.515625 
L 43.21875 35.40625 
Q 43.21875 41.609375 39.140625 45 
Q 35.0625 48.390625 27.6875 48.390625 
Q 23 48.390625 18.546875 47.265625 
Q 14.109375 46.140625 10.015625 43.890625 
L 10.015625 52.203125 
Q 14.9375 54.109375 19.578125 55.046875 
Q 24.21875 56 28.609375 56 
Q 40.484375 56 46.34375 49.84375 
Q 52.203125 43.703125 52.203125 31.203125 
z
" id="DejaVuSans-97"/>
      <path d="M 44.28125 53.078125 
L 44.28125 44.578125 
Q 40.484375 46.53125 36.375 47.5 
Q 32.28125 48.484375 27.875 48.484375 
Q 21.1875 48.484375 17.84375 46.4375 
Q 14.5 44.390625 14.5 40.28125 
Q 14.5 37.15625 16.890625 35.375 
Q 19.28125 33.59375 26.515625 31.984375 
L 29.59375 31.296875 
Q 39.15625 29.25 43.1875 25.515625 
Q 47.21875 21.78125 47.21875 15.09375 
Q 47.21875 7.46875 41.1875 3.015625 
Q 35.15625 -1.421875 24.609375 -1.421875 
Q 20.21875 -1.421875 15.453125 -0.5625 
Q 10.6875 0.296875 5.421875 2 
L 5.421875 11.28125 
Q 10.40625 8.6875 15.234375 7.390625 
Q 20.0625 6.109375 24.8125 6.109375 
Q 31.15625 6.109375 34.5625 8.28125 
Q 37.984375 10.453125 37.984375 14.40625 
Q 37.984375 18.0625 35.515625 20.015625 
Q 33.0625 21.96875 24.703125 23.78125 
L 21.578125 24.515625 
Q 13.234375 26.265625 9.515625 29.90625 
Q 5.8125 33.546875 5.8125 39.890625 
Q 5.8125 47.609375 11.28125 51.796875 
Q 16.75 56 26.8125 56 
Q 31.78125 56 36.171875 55.265625 
Q 40.578125 54.546875 44.28125 53.078125 
z
" id="DejaVuSans-115"/>
      <path d="M 56.203125 29.59375 
L 56.203125 25.203125 
L 14.890625 25.203125 
Q 15.484375 15.921875 20.484375 11.0625 
Q 25.484375 6.203125 34.421875 6.203125 
Q 39.59375 6.203125 44.453125 7.46875 
Q 49.3125 8.734375 54.109375 11.28125 
L 54.109375 2.78125 
Q 49.265625 0.734375 44.1875 -0.34375 
Q 39.109375 -1.421875 33.890625 -1.421875 
Q 20.796875 -1.421875 13.15625 6.1875 
Q 5.515625 13.8125 5.515625 26.8125 
Q 5.515625 40.234375 12.765625 48.109375 
Q 20.015625 56 32.328125 56 
Q 43.359375 56 49.78125 48.890625 
Q 56.203125 41.796875 56.203125 29.59375 
z
M 47.21875 32.234375 
Q 47.125 39.59375 43.09375 43.984375 
Q 39.0625 48.390625 32.421875 48.390625 
Q 24.90625 48.390625 20.390625 44.140625 
Q 15.875 39.890625 15.1875 32.171875 
z
" id="DejaVuSans-101"/>
     </defs>
     <g transform="translate(502.795924 59.237813)scale(0.14 -0.14)">
      <use xlink:href="#DejaVuSans-98"/>
      <use x="63.476562" xlink:href="#DejaVuSans-97"/>
      <use x="124.755859" xlink:href="#DejaVuSans-115"/>
      <use x="176.855469" xlink:href="#DejaVuSans-101"/>
     </g>
    </g>
    <g id="patch_6">
     <path d="M 463.595924 79.787188 
L 491.595924 79.787188 
L 491.595924 69.987188 
L 463.595924 69.987188 
z
" style="fill:#36a2eb;opacity:0.5;stroke:#36a2eb;stroke-linejoin:miter;"/>
    </g>
    <g id="text_2">
     <!-- new -->
     <defs>
      <path d="M 54.890625 33.015625 
L 54.890625 0 
L 45.90625 0 
L 45.90625 32.71875 
Q 45.90625 40.484375 42.875 44.328125 
Q 39.84375 48.1875 33.796875 48.1875 
Q 26.515625 48.1875 22.3125 43.546875 
Q 18.109375 38.921875 18.109375 30.90625 
L 18.109375 0 
L 9.078125 0 
L 9.078125 54.6875 
L 18.109375 54.6875 
L 18.109375 46.1875 
Q 21.34375 51.125 25.703125 53.5625 
Q 30.078125 56 35.796875 56 
Q 45.21875 56 50.046875 50.171875 
Q 54.890625 44.34375 54.890625 33.015625 
z
" id="DejaVuSans-110"/>
      <path d="M 4.203125 54.6875 
L 13.1875 54.6875 
L 24.421875 12.015625 
L 35.59375 54.6875 
L 46.1875 54.6875 
L 57.421875 12.015625 
L 68.609375 54.6875 
L 77.59375 54.6875 
L 63.28125 0 
L 52.6875 0 
L 40.921875 44.828125 
L 29.109375 0 
L 18.5 0 
z
" id="DejaVuSans-119"/>
     </defs>
     <g transform="translate(502.795924 79.787188)scale(0.14 -0.14)">
      <use xlink:href="#DejaVuSans-110"/>
      <use x="63.378906" xlink:href="#DejaVuSans-101"/>
      <use x="124.902344" xlink:href="#DejaVuSans-119"/>
     </g>
    </g>
   </g>
  </g>
  <g id="axes_2">
   <g id="patch_7">
    <path d="M 46.570611 525.24 
L 548.770611 525.24 
L 548.770611 402.93 
L 46.570611 402.93 
z
" style="fill:none;"/>
   </g>
   <g id="patch_8">
    <path clip-path="url(#p84237d6ef4)" d="M 184.005222 519.680455 
L 404.231087 519.680455 
L 404.231087 482.616818 
L 184.005222 482.616818 
z
" style="fill:#ff6384;opacity:0.5;"/>
   </g>
   <g id="patch_9">
    <path clip-path="url(#p84237d6ef4)" d="M 190.470006 445.553182 
L 411.116896 445.553182 
L 411.116896 408.489545 
L 190.470006 408.489545 
z
" style="fill:#36a2eb;opacity:0.5;"/>
   </g>
   <g id="matplotlib.axis_1">
    <g id="xtick_1">
     <g id="line2d_3">
      <defs>
       <path d="M 0 0 
L 0 3.5 
" id="mee3b2c722b" style="stroke:#000000;stroke-width:0.8;"/>
      </defs>
      <g>
       <use style="stroke:#000000;stroke-width:0.8;" x="47.132187" xlink:href="#mee3b2c722b" y="525.24"/>
      </g>
     </g>
     <g id="text_3">
      <!-- 1.0 -->
      <defs>
       <path d="M 12.40625 8.296875 
L 28.515625 8.296875 
L 28.515625 63.921875 
L 10.984375 60.40625 
L 10.984375 69.390625 
L 28.421875 72.90625 
L 38.28125 72.90625 
L 38.28125 8.296875 
L 54.390625 8.296875 
L 54.390625 0 
L 12.40625 0 
z
" id="DejaVuSans-49"/>
       <path d="M 10.6875 12.40625 
L 21 12.40625 
L 21 0 
L 10.6875 0 
z
" id="DejaVuSans-46"/>
       <path d="M 31.78125 66.40625 
Q 24.171875 66.40625 20.328125 58.90625 
Q 16.5 51.421875 16.5 36.375 
Q 16.5 21.390625 20.328125 13.890625 
Q 24.171875 6.390625 31.78125 6.390625 
Q 39.453125 6.390625 43.28125 13.890625 
Q 47.125 21.390625 47.125 36.375 
Q 47.125 51.421875 43.28125 58.90625 
Q 39.453125 66.40625 31.78125 66.40625 
z
M 31.78125 74.21875 
Q 44.046875 74.21875 50.515625 64.515625 
Q 56.984375 54.828125 56.984375 36.375 
Q 56.984375 17.96875 50.515625 8.265625 
Q 44.046875 -1.421875 31.78125 -1.421875 
Q 19.53125 -1.421875 13.0625 8.265625 
Q 6.59375 17.96875 6.59375 36.375 
Q 6.59375 54.828125 13.0625 64.515625 
Q 19.53125 74.21875 31.78125 74.21875 
z
" id="DejaVuSans-48"/>
      </defs>
      <g transform="translate(36 542.877813)scale(0.14 -0.14)">
       <use xlink:href="#DejaVuSans-49"/>
       <use x="63.623047" xlink:href="#DejaVuSans-46"/>
       <use x="95.410156" xlink:href="#DejaVuSans-48"/>
      </g>
     </g>
    </g>
    <g id="xtick_2">
     <g id="line2d_4">
      <g>
       <use style="stroke:#000000;stroke-width:0.8;" x="113.885152" xlink:href="#mee3b2c722b" y="525.24"/>
      </g>
     </g>
     <g id="text_4">
      <!-- 1.2 -->
      <defs>
       <path d="M 19.1875 8.296875 
L 53.609375 8.296875 
L 53.609375 0 
L 7.328125 0 
L 7.328125 8.296875 
Q 12.9375 14.109375 22.625 23.890625 
Q 32.328125 33.6875 34.8125 36.53125 
Q 39.546875 41.84375 41.421875 45.53125 
Q 43.3125 49.21875 43.3125 52.78125 
Q 43.3125 58.59375 39.234375 62.25 
Q 35.15625 65.921875 28.609375 65.921875 
Q 23.96875 65.921875 18.8125 64.3125 
Q 13.671875 62.703125 7.8125 59.421875 
L 7.8125 69.390625 
Q 13.765625 71.78125 18.9375 73 
Q 24.125 74.21875 28.421875 74.21875 
Q 39.75 74.21875 46.484375 68.546875 
Q 53.21875 62.890625 53.21875 53.421875 
Q 53.21875 48.921875 51.53125 44.890625 
Q 49.859375 40.875 45.40625 35.40625 
Q 44.1875 33.984375 37.640625 27.21875 
Q 31.109375 20.453125 19.1875 8.296875 
z
" id="DejaVuSans-50"/>
      </defs>
      <g transform="translate(102.752964 542.877813)scale(0.14 -0.14)">
       <use xlink:href="#DejaVuSans-49"/>
       <use x="63.623047" xlink:href="#DejaVuSans-46"/>
       <use x="95.410156" xlink:href="#DejaVuSans-50"/>
      </g>
     </g>
    </g>
    <g id="xtick_3">
     <g id="line2d_5">
      <g>
       <use style="stroke:#000000;stroke-width:0.8;" x="180.638116" xlink:href="#mee3b2c722b" y="525.24"/>
      </g>
     </g>
     <g id="text_5">
      <!-- 1.4 -->
      <defs>
       <path d="M 37.796875 64.3125 
L 12.890625 25.390625 
L 37.796875 25.390625 
z
M 35.203125 72.90625 
L 47.609375 72.90625 
L 47.609375 25.390625 
L 58.015625 25.390625 
L 58.015625 17.1875 
L 47.609375 17.1875 
L 47.609375 0 
L 37.796875 0 
L 37.796875 17.1875 
L 4.890625 17.1875 
L 4.890625 26.703125 
z
" id="DejaVuSans-52"/>
      </defs>
      <g transform="translate(169.505928 542.877813)scale(0.14 -0.14)">
       <use xlink:href="#DejaVuSans-49"/>
       <use x="63.623047" xlink:href="#DejaVuSans-46"/>
       <use x="95.410156" xlink:href="#DejaVuSans-52"/>
      </g>
     </g>
    </g>
    <g id="xtick_4">
     <g id="line2d_6">
      <g>
       <use style="stroke:#000000;stroke-width:0.8;" x="247.39108" xlink:href="#mee3b2c722b" y="525.24"/>
      </g>
     </g>
     <g id="text_6">
      <!-- 1.6 -->
      <defs>
       <path d="M 33.015625 40.375 
Q 26.375 40.375 22.484375 35.828125 
Q 18.609375 31.296875 18.609375 23.390625 
Q 18.609375 15.53125 22.484375 10.953125 
Q 26.375 6.390625 33.015625 6.390625 
Q 39.65625 6.390625 43.53125 10.953125 
Q 47.40625 15.53125 47.40625 23.390625 
Q 47.40625 31.296875 43.53125 35.828125 
Q 39.65625 40.375 33.015625 40.375 
z
M 52.59375 71.296875 
L 52.59375 62.3125 
Q 48.875 64.0625 45.09375 64.984375 
Q 41.3125 65.921875 37.59375 65.921875 
Q 27.828125 65.921875 22.671875 59.328125 
Q 17.53125 52.734375 16.796875 39.40625 
Q 19.671875 43.65625 24.015625 45.921875 
Q 28.375 48.1875 33.59375 48.1875 
Q 44.578125 48.1875 50.953125 41.515625 
Q 57.328125 34.859375 57.328125 23.390625 
Q 57.328125 12.15625 50.6875 5.359375 
Q 44.046875 -1.421875 33.015625 -1.421875 
Q 20.359375 -1.421875 13.671875 8.265625 
Q 6.984375 17.96875 6.984375 36.375 
Q 6.984375 53.65625 15.1875 63.9375 
Q 23.390625 74.21875 37.203125 74.21875 
Q 40.921875 74.21875 44.703125 73.484375 
Q 48.484375 72.75 52.59375 71.296875 
z
" id="DejaVuSans-54"/>
      </defs>
      <g transform="translate(236.258892 542.877813)scale(0.14 -0.14)">
       <use xlink:href="#DejaVuSans-49"/>
       <use x="63.623047" xlink:href="#DejaVuSans-46"/>
       <use x="95.410156" xlink:href="#DejaVuSans-54"/>
      </g>
     </g>
    </g>
    <g id="xtick_5">
     <g id="line2d_7">
      <g>
       <use style="stroke:#000000;stroke-width:0.8;" x="314.144044" xlink:href="#mee3b2c722b" y="525.24"/>
      </g>
     </g>
     <g id="text_7">
      <!-- 1.8 -->
      <defs>
       <path d="M 31.78125 34.625 
Q 24.75 34.625 20.71875 30.859375 
Q 16.703125 27.09375 16.703125 20.515625 
Q 16.703125 13.921875 20.71875 10.15625 
Q 24.75 6.390625 31.78125 6.390625 
Q 38.8125 6.390625 42.859375 10.171875 
Q 46.921875 13.96875 46.921875 20.515625 
Q 46.921875 27.09375 42.890625 30.859375 
Q 38.875 34.625 31.78125 34.625 
z
M 21.921875 38.8125 
Q 15.578125 40.375 12.03125 44.71875 
Q 8.5 49.078125 8.5 55.328125 
Q 8.5 64.0625 14.71875 69.140625 
Q 20.953125 74.21875 31.78125 74.21875 
Q 42.671875 74.21875 48.875 69.140625 
Q 55.078125 64.0625 55.078125 55.328125 
Q 55.078125 49.078125 51.53125 44.71875 
Q 48 40.375 41.703125 38.8125 
Q 48.828125 37.15625 52.796875 32.3125 
Q 56.78125 27.484375 56.78125 20.515625 
Q 56.78125 9.90625 50.3125 4.234375 
Q 43.84375 -1.421875 31.78125 -1.421875 
Q 19.734375 -1.421875 13.25 4.234375 
Q 6.78125 9.90625 6.78125 20.515625 
Q 6.78125 27.484375 10.78125 32.3125 
Q 14.796875 37.15625 21.921875 38.8125 
z
M 18.3125 54.390625 
Q 18.3125 48.734375 21.84375 45.5625 
Q 25.390625 42.390625 31.78125 42.390625 
Q 38.140625 42.390625 41.71875 45.5625 
Q 45.3125 48.734375 45.3125 54.390625 
Q 45.3125 60.0625 41.71875 63.234375 
Q 38.140625 66.40625 31.78125 66.40625 
Q 25.390625 66.40625 21.84375 63.234375 
Q 18.3125 60.0625 18.3125 54.390625 
z
" id="DejaVuSans-56"/>
      </defs>
      <g transform="translate(303.011856 542.877813)scale(0.14 -0.14)">
       <use xlink:href="#DejaVuSans-49"/>
       <use x="63.623047" xlink:href="#DejaVuSans-46"/>
       <use x="95.410156" xlink:href="#DejaVuSans-56"/>
      </g>
     </g>
    </g>
    <g id="xtick_6">
     <g id="line2d_8">
      <g>
       <use style="stroke:#000000;stroke-width:0.8;" x="380.897008" xlink:href="#mee3b2c722b" y="525.24"/>
      </g>
     </g>
     <g id="text_8">
      <!-- 2.0 -->
      <g transform="translate(369.76482 542.877813)scale(0.14 -0.14)">
       <use xlink:href="#DejaVuSans-50"/>
       <use x="63.623047" xlink:href="#DejaVuSans-46"/>
       <use x="95.410156" xlink:href="#DejaVuSans-48"/>
      </g>
     </g>
    </g>
    <g id="xtick_7">
     <g id="line2d_9">
      <g>
       <use style="stroke:#000000;stroke-width:0.8;" x="447.649972" xlink:href="#mee3b2c722b" y="525.24"/>
      </g>
     </g>
     <g id="text_9">
      <!-- 2.2 -->
      <g transform="translate(436.517784 542.877813)scale(0.14 -0.14)">
       <use xlink:href="#DejaVuSans-50"/>
       <use x="63.623047" xlink:href="#DejaVuSans-46"/>
       <use x="95.410156" xlink:href="#DejaVuSans-50"/>
      </g>
     </g>
    </g>
    <g id="xtick_8">
     <g id="line2d_10">
      <g>
       <use style="stroke:#000000;stroke-width:0.8;" x="514.402936" xlink:href="#mee3b2c722b" y="525.24"/>
      </g>
     </g>
     <g id="text_10">
      <!-- 2.4 -->
      <g transform="translate(503.270748 542.877813)scale(0.14 -0.14)">
       <use xlink:href="#DejaVuSans-50"/>
       <use x="63.623047" xlink:href="#DejaVuSans-46"/>
       <use x="95.410156" xlink:href="#DejaVuSans-52"/>
      </g>
     </g>
    </g>
   </g>
   <g id="line2d_11">
    <path clip-path="url(#p84237d6ef4)" d="M 294.118154 525.24 
L 294.118154 402.93 
" style="fill:none;stroke:#ff6384;stroke-dasharray:5.55,2.4;stroke-dashoffset:0;stroke-opacity:0.8;stroke-width:1.5;"/>
   </g>
   <g id="line2d_12">
    <path clip-path="url(#p84237d6ef4)" d="M 300.793451 525.24 
L 300.793451 402.93 
" style="fill:none;stroke:#36a2eb;stroke-dasharray:5.55,2.4;stroke-dashoffset:0;stroke-opacity:0.8;stroke-width:1.5;"/>
   </g>
   <g id="patch_10">
    <path d="M 46.570611 525.24 
L 548.770611 525.24 
" style="fill:none;stroke:#000000;stroke-linecap:square;stroke-linejoin:miter;stroke-width:0.8;"/>
   </g>
  </g>
 </g>
 <defs>
  <clipPath id="p04fb11ea81">
   <rect height="366.93" width="502.2" x="46.570611" y="36"/>
  </clipPath>
  <clipPath id="p84237d6ef4">
   <rect height="122.31" width="502.2" x="46.570611" y="402.93"/>
  </clipPath>
 </defs>
</svg>
