<?xml version="1.0" encoding="utf-8" standalone="no"?>
<!DOCTYPE svg PUBLIC "-//W3C//DTD SVG 1.1//EN"
  "http://www.w3.org/Graphics/SVG/1.1/DTD/svg11.dtd">
<!-- Created with matplotlib (https://matplotlib.org/) -->
<svg height="591.509375pt" version="1.1" viewBox="0 0 583.128882 591.509375" width="583.128882pt" xmlns="http://www.w3.org/2000/svg" xmlns:xlink="http://www.w3.org/1999/xlink">
 <defs>
  <style type="text/css">
*{stroke-linecap:butt;stroke-linejoin:round;}
  </style>
 </defs>
 <g id="figure_1">
  <g id="patch_1">
   <path d="M 0 591.509375 
L 583.128882 591.509375 
L 583.128882 0 
L 0 0 
z
" style="fill:none;"/>
  </g>
  <g id="axes_1">
   <g id="patch_2">
    <path d="M 44.928882 410.22 
L 547.128882 410.22 
L 547.128882 36 
L 44.928882 36 
z
" style="fill:none;"/>
   </g>
   <g id="PolyCollection_1">
    <defs>
     <path d="M 67.756155 -198.299375 
L 67.756155 -198.413593 
L 72.269977 -198.456662 
L 76.7838 -198.514563 
L 81.297622 -198.591861 
L 85.811444 -198.694339 
L 90.325267 -198.829251 
L 94.839089 -199.005619 
L 99.352912 -199.234563 
L 103.866734 -199.529665 
L 108.380556 -199.907354 
L 112.894379 -200.387311 
L 117.408201 -200.992881 
L 121.922023 -201.751471 
L 126.435846 -202.694912 
L 130.949668 -203.859762 
L 135.463491 -205.287525 
L 139.977313 -207.024738 
L 144.491135 -209.122902 
L 149.004958 -211.638221 
L 153.51878 -214.631088 
L 158.032603 -218.165325 
L 162.546425 -222.3071 
L 167.060247 -227.123541 
L 171.57407 -232.681014 
L 176.087892 -239.043076 
L 180.601714 -246.268132 
L 185.115537 -254.406825 
L 189.629359 -263.499238 
L 194.143182 -273.571974 
L 198.657004 -284.635235 
L 203.170826 -296.680007 
L 207.684649 -309.675493 
L 212.198471 -323.566938 
L 216.712293 -338.273983 
L 221.226116 -353.689699 
L 225.739938 -369.680411 
L 230.253761 -386.086424 
L 234.767583 -402.723708 
L 239.281405 -419.386587 
L 243.795228 -435.8514 
L 248.30905 -451.881089 
L 252.822873 -467.230586 
L 257.336695 -481.652863 
L 261.850517 -494.905422 
L 266.36434 -506.757005 
L 270.878162 -516.994276 
L 275.391984 -525.428184 
L 279.905807 -531.899766 
L 284.419629 -536.285125 
L 288.933452 -538.499375 
L 293.447274 -538.499375 
L 297.961096 -536.285125 
L 302.474919 -531.899766 
L 306.988741 -525.428184 
L 311.502563 -516.994276 
L 316.016386 -506.757005 
L 320.530208 -494.905422 
L 325.044031 -481.652863 
L 329.557853 -467.230586 
L 334.071675 -451.881089 
L 338.585498 -435.8514 
L 343.09932 -419.386587 
L 347.613143 -402.723708 
L 352.126965 -386.086424 
L 356.640787 -369.680411 
L 361.15461 -353.689699 
L 365.668432 -338.273983 
L 370.182254 -323.566938 
L 374.696077 -309.675493 
L 379.209899 -296.680007 
L 383.723722 -284.635235 
L 388.237544 -273.571974 
L 392.751366 -263.499238 
L 397.265189 -254.406825 
L 401.779011 -246.268132 
L 406.292833 -239.043076 
L 410.806656 -232.681014 
L 415.320478 -227.123541 
L 419.834301 -222.3071 
L 424.348123 -218.165325 
L 428.861945 -214.631088 
L 433.375768 -211.638221 
L 437.88959 -209.122902 
L 442.403413 -207.024738 
L 446.917235 -205.287525 
L 451.431057 -203.859762 
L 455.94488 -202.694912 
L 460.458702 -201.751471 
L 464.972524 -200.992881 
L 469.486347 -200.387311 
L 474.000169 -199.907354 
L 478.513992 -199.529665 
L 483.027814 -199.234563 
L 487.541636 -199.005619 
L 492.055459 -198.829251 
L 496.569281 -198.694339 
L 501.083103 -198.591861 
L 505.596926 -198.514563 
L 510.110748 -198.456662 
L 514.624571 -198.413593 
L 514.624571 -198.299375 
L 514.624571 -198.299375 
L 510.110748 -198.299375 
L 505.596926 -198.299375 
L 501.083103 -198.299375 
L 496.569281 -198.299375 
L 492.055459 -198.299375 
L 487.541636 -198.299375 
L 483.027814 -198.299375 
L 478.513992 -198.299375 
L 474.000169 -198.299375 
L 469.486347 -198.299375 
L 464.972524 -198.299375 
L 460.458702 -198.299375 
L 455.94488 -198.299375 
L 451.431057 -198.299375 
L 446.917235 -198.299375 
L 442.403413 -198.299375 
L 437.88959 -198.299375 
L 433.375768 -198.299375 
L 428.861945 -198.299375 
L 424.348123 -198.299375 
L 419.834301 -198.299375 
L 415.320478 -198.299375 
L 410.806656 -198.299375 
L 406.292833 -198.299375 
L 401.779011 -198.299375 
L 397.265189 -198.299375 
L 392.751366 -198.299375 
L 388.237544 -198.299375 
L 383.723722 -198.299375 
L 379.209899 -198.299375 
L 374.696077 -198.299375 
L 370.182254 -198.299375 
L 365.668432 -198.299375 
L 361.15461 -198.299375 
L 356.640787 -198.299375 
L 352.126965 -198.299375 
L 347.613143 -198.299375 
L 343.09932 -198.299375 
L 338.585498 -198.299375 
L 334.071675 -198.299375 
L 329.557853 -198.299375 
L 325.044031 -198.299375 
L 320.530208 -198.299375 
L 316.016386 -198.299375 
L 311.502563 -198.299375 
L 306.988741 -198.299375 
L 302.474919 -198.299375 
L 297.961096 -198.299375 
L 293.447274 -198.299375 
L 288.933452 -198.299375 
L 284.419629 -198.299375 
L 279.905807 -198.299375 
L 275.391984 -198.299375 
L 270.878162 -198.299375 
L 266.36434 -198.299375 
L 261.850517 -198.299375 
L 257.336695 -198.299375 
L 252.822873 -198.299375 
L 248.30905 -198.299375 
L 243.795228 -198.299375 
L 239.281405 -198.299375 
L 234.767583 -198.299375 
L 230.253761 -198.299375 
L 225.739938 -198.299375 
L 221.226116 -198.299375 
L 216.712293 -198.299375 
L 212.198471 -198.299375 
L 207.684649 -198.299375 
L 203.170826 -198.299375 
L 198.657004 -198.299375 
L 194.143182 -198.299375 
L 189.629359 -198.299375 
L 185.115537 -198.299375 
L 180.601714 -198.299375 
L 176.087892 -198.299375 
L 171.57407 -198.299375 
L 167.060247 -198.299375 
L 162.546425 -198.299375 
L 158.032603 -198.299375 
L 153.51878 -198.299375 
L 149.004958 -198.299375 
L 144.491135 -198.299375 
L 139.977313 -198.299375 
L 135.463491 -198.299375 
L 130.949668 -198.299375 
L 126.435846 -198.299375 
L 121.922023 -198.299375 
L 117.408201 -198.299375 
L 112.894379 -198.299375 
L 108.380556 -198.299375 
L 103.866734 -198.299375 
L 99.352912 -198.299375 
L 94.839089 -198.299375 
L 90.325267 -198.299375 
L 85.811444 -198.299375 
L 81.297622 -198.299375 
L 76.7838 -198.299375 
L 72.269977 -198.299375 
L 67.756155 -198.299375 
z
" id="m6cccee28e8" style="stroke:#ff6384;stroke-opacity:0.5;"/>
    </defs>
    <g clip-path="url(#p83f0bce6de)">
     <use style="fill:#ff6384;fill-opacity:0.5;stroke:#ff6384;stroke-opacity:0.5;" x="0" xlink:href="#m6cccee28e8" y="591.509375"/>
    </g>
   </g>
   <g id="PolyCollection_2">
    <defs>
     <path d="M 77.24747 -198.299375 
L 77.24747 -198.413545 
L 81.763168 -198.456597 
L 86.278867 -198.514473 
L 90.794565 -198.59174 
L 95.310264 -198.694175 
L 99.825962 -198.829031 
L 104.34166 -199.005325 
L 108.857359 -199.234175 
L 113.373057 -199.529154 
L 117.888756 -199.906686 
L 122.404454 -200.386443 
L 126.920152 -200.991762 
L 131.435851 -201.750037 
L 135.951549 -202.693086 
L 140.467247 -203.857452 
L 144.982946 -205.284622 
L 149.498644 -207.021113 
L 154.014343 -209.118406 
L 158.530041 -211.632679 
L 163.045739 -214.624304 
L 167.561438 -218.157072 
L 172.077136 -222.297126 
L 176.592834 -227.111566 
L 181.108533 -232.66673 
L 185.624231 -239.02615 
L 190.13993 -246.248204 
L 194.655628 -254.383516 
L 199.171326 -263.472151 
L 203.687025 -273.540702 
L 208.202723 -284.599367 
L 212.718421 -296.639136 
L 217.23412 -309.629223 
L 221.749818 -323.514897 
L 226.265517 -338.215832 
L 230.781215 -353.625144 
L 235.296913 -369.609213 
L 239.812612 -386.00841 
L 244.32831 -402.638782 
L 248.844008 -419.294739 
L 253.359707 -435.752712 
L 257.875405 -451.775741 
L 262.391104 -467.118862 
L 266.906802 -481.535147 
L 271.4225 -494.7822 
L 275.938199 -506.62886 
L 280.453897 -516.861877 
L 284.969595 -525.292282 
L 289.485294 -531.761175 
L 294.000992 -536.144712 
L 298.516691 -538.358043 
L 303.032389 -538.358043 
L 307.548087 -536.144712 
L 312.063786 -531.761175 
L 316.579484 -525.292282 
L 321.095182 -516.861877 
L 325.610881 -506.62886 
L 330.126579 -494.7822 
L 334.642278 -481.535147 
L 339.157976 -467.118862 
L 343.673674 -451.775741 
L 348.189373 -435.752712 
L 352.705071 -419.294739 
L 357.220769 -402.638782 
L 361.736468 -386.00841 
L 366.252166 -369.609213 
L 370.767865 -353.625144 
L 375.283563 -338.215832 
L 379.799261 -323.514897 
L 384.31496 -309.629223 
L 388.830658 -296.639136 
L 393.346357 -284.599367 
L 397.862055 -273.540702 
L 402.377753 -263.472151 
L 406.893452 -254.383516 
L 411.40915 -246.248204 
L 415.924848 -239.02615 
L 420.440547 -232.66673 
L 424.956245 -227.111566 
L 429.471944 -222.297126 
L 433.987642 -218.157072 
L 438.50334 -214.624304 
L 443.019039 -211.632679 
L 447.534737 -209.118406 
L 452.050435 -207.021113 
L 456.566134 -205.284622 
L 461.081832 -203.857452 
L 465.597531 -202.693086 
L 470.113229 -201.750037 
L 474.628927 -200.991762 
L 479.144626 -200.386443 
L 483.660324 -199.906686 
L 488.176022 -199.529154 
L 492.691721 -199.234175 
L 497.207419 -199.005325 
L 501.723118 -198.829031 
L 506.238816 -198.694175 
L 510.754514 -198.59174 
L 515.270213 -198.514473 
L 519.785911 -198.456597 
L 524.301609 -198.413545 
L 524.301609 -198.299375 
L 524.301609 -198.299375 
L 519.785911 -198.299375 
L 515.270213 -198.299375 
L 510.754514 -198.299375 
L 506.238816 -198.299375 
L 501.723118 -198.299375 
L 497.207419 -198.299375 
L 492.691721 -198.299375 
L 488.176022 -198.299375 
L 483.660324 -198.299375 
L 479.144626 -198.299375 
L 474.628927 -198.299375 
L 470.113229 -198.299375 
L 465.597531 -198.299375 
L 461.081832 -198.299375 
L 456.566134 -198.299375 
L 452.050435 -198.299375 
L 447.534737 -198.299375 
L 443.019039 -198.299375 
L 438.50334 -198.299375 
L 433.987642 -198.299375 
L 429.471944 -198.299375 
L 424.956245 -198.299375 
L 420.440547 -198.299375 
L 415.924848 -198.299375 
L 411.40915 -198.299375 
L 406.893452 -198.299375 
L 402.377753 -198.299375 
L 397.862055 -198.299375 
L 393.346357 -198.299375 
L 388.830658 -198.299375 
L 384.31496 -198.299375 
L 379.799261 -198.299375 
L 375.283563 -198.299375 
L 370.767865 -198.299375 
L 366.252166 -198.299375 
L 361.736468 -198.299375 
L 357.220769 -198.299375 
L 352.705071 -198.299375 
L 348.189373 -198.299375 
L 343.673674 -198.299375 
L 339.157976 -198.299375 
L 334.642278 -198.299375 
L 330.126579 -198.299375 
L 325.610881 -198.299375 
L 321.095182 -198.299375 
L 316.579484 -198.299375 
L 312.063786 -198.299375 
L 307.548087 -198.299375 
L 303.032389 -198.299375 
L 298.516691 -198.299375 
L 294.000992 -198.299375 
L 289.485294 -198.299375 
L 284.969595 -198.299375 
L 280.453897 -198.299375 
L 275.938199 -198.299375 
L 271.4225 -198.299375 
L 266.906802 -198.299375 
L 262.391104 -198.299375 
L 257.875405 -198.299375 
L 253.359707 -198.299375 
L 248.844008 -198.299375 
L 244.32831 -198.299375 
L 239.812612 -198.299375 
L 235.296913 -198.299375 
L 230.781215 -198.299375 
L 226.265517 -198.299375 
L 221.749818 -198.299375 
L 217.23412 -198.299375 
L 212.718421 -198.299375 
L 208.202723 -198.299375 
L 203.687025 -198.299375 
L 199.171326 -198.299375 
L 194.655628 -198.299375 
L 190.13993 -198.299375 
L 185.624231 -198.299375 
L 181.108533 -198.299375 
L 176.592834 -198.299375 
L 172.077136 -198.299375 
L 167.561438 -198.299375 
L 163.045739 -198.299375 
L 158.530041 -198.299375 
L 154.014343 -198.299375 
L 149.498644 -198.299375 
L 144.982946 -198.299375 
L 140.467247 -198.299375 
L 135.951549 -198.299375 
L 131.435851 -198.299375 
L 126.920152 -198.299375 
L 122.404454 -198.299375 
L 117.888756 -198.299375 
L 113.373057 -198.299375 
L 108.857359 -198.299375 
L 104.34166 -198.299375 
L 99.825962 -198.299375 
L 95.310264 -198.299375 
L 90.794565 -198.299375 
L 86.278867 -198.299375 
L 81.763168 -198.299375 
L 77.24747 -198.299375 
z
" id="m304c2d933e" style="stroke:#36a2eb;stroke-opacity:0.5;"/>
    </defs>
    <g clip-path="url(#p83f0bce6de)">
     <use style="fill:#36a2eb;fill-opacity:0.5;stroke:#36a2eb;stroke-opacity:0.5;" x="0" xlink:href="#m304c2d933e" y="591.509375"/>
    </g>
   </g>
   <g id="line2d_1">
    <path clip-path="url(#p83f0bce6de)" d="M 67.756155 393.095782 
L 72.269977 393.052713 
L 76.7838 392.994812 
L 81.297622 392.917514 
L 85.811444 392.815036 
L 90.325267 392.680124 
L 94.839089 392.503756 
L 99.352912 392.274812 
L 103.866734 391.97971 
L 108.380556 391.602021 
L 112.894379 391.122064 
L 117.408201 390.516494 
L 121.922023 389.757904 
L 126.435846 388.814463 
L 130.949668 387.649613 
L 135.463491 386.22185 
L 139.977313 384.484637 
L 144.491135 382.386473 
L 149.004958 379.871154 
L 153.51878 376.878287 
L 158.032603 373.34405 
L 162.546425 369.202275 
L 167.060247 364.385834 
L 171.57407 358.828361 
L 176.087892 352.466299 
L 180.601714 345.241243 
L 185.115537 337.10255 
L 189.629359 328.010137 
L 194.143182 317.937401 
L 198.657004 306.87414 
L 203.170826 294.829368 
L 207.684649 281.833882 
L 212.198471 267.942437 
L 216.712293 253.235392 
L 221.226116 237.819676 
L 225.739938 221.828964 
L 230.253761 205.422951 
L 234.767583 188.785667 
L 239.281405 172.122788 
L 243.795228 155.657975 
L 248.30905 139.628286 
L 252.822873 124.278789 
L 257.336695 109.856512 
L 261.850517 96.603953 
L 266.36434 84.75237 
L 270.878162 74.515099 
L 275.391984 66.081191 
L 279.905807 59.609609 
L 284.419629 55.22425 
L 288.933452 53.01 
L 293.447274 53.01 
L 297.961096 55.22425 
L 302.474919 59.609609 
L 306.988741 66.081191 
L 311.502563 74.515099 
L 316.016386 84.75237 
L 320.530208 96.603953 
L 325.044031 109.856512 
L 329.557853 124.278789 
L 334.071675 139.628286 
L 338.585498 155.657975 
L 343.09932 172.122788 
L 347.613143 188.785667 
L 352.126965 205.422951 
L 356.640787 221.828964 
L 361.15461 237.819676 
L 365.668432 253.235392 
L 370.182254 267.942437 
L 374.696077 281.833882 
L 379.209899 294.829368 
L 383.723722 306.87414 
L 388.237544 317.937401 
L 392.751366 328.010137 
L 397.265189 337.10255 
L 401.779011 345.241243 
L 406.292833 352.466299 
L 410.806656 358.828361 
L 415.320478 364.385834 
L 419.834301 369.202275 
L 424.348123 373.34405 
L 428.861945 376.878287 
L 433.375768 379.871154 
L 437.88959 382.386473 
L 442.403413 384.484637 
L 446.917235 386.22185 
L 451.431057 387.649613 
L 455.94488 388.814463 
L 460.458702 389.757904 
L 464.972524 390.516494 
L 469.486347 391.122064 
L 474.000169 391.602021 
L 478.513992 391.97971 
L 483.027814 392.274812 
L 487.541636 392.503756 
L 492.055459 392.680124 
L 496.569281 392.815036 
L 501.083103 392.917514 
L 505.596926 392.994812 
L 510.110748 393.052713 
L 514.624571 393.095782 
" style="fill:none;stroke:#ff6384;stroke-linecap:square;"/>
   </g>
   <g id="line2d_2">
    <path clip-path="url(#p83f0bce6de)" d="M 77.24747 393.09583 
L 81.763168 393.052778 
L 86.278867 392.994902 
L 90.794565 392.917635 
L 95.310264 392.8152 
L 99.825962 392.680344 
L 104.34166 392.50405 
L 108.857359 392.2752 
L 113.373057 391.980221 
L 117.888756 391.602689 
L 122.404454 391.122932 
L 126.920152 390.517613 
L 131.435851 389.759338 
L 135.951549 388.816289 
L 140.467247 387.651923 
L 144.982946 386.224753 
L 149.498644 384.488262 
L 154.014343 382.390969 
L 158.530041 379.876696 
L 163.045739 376.885071 
L 167.561438 373.352303 
L 172.077136 369.212249 
L 176.592834 364.397809 
L 181.108533 358.842645 
L 185.624231 352.483225 
L 190.13993 345.261171 
L 194.655628 337.125859 
L 199.171326 328.037224 
L 203.687025 317.968673 
L 208.202723 306.910008 
L 212.718421 294.870239 
L 217.23412 281.880152 
L 221.749818 267.994478 
L 226.265517 253.293543 
L 230.781215 237.884231 
L 235.296913 221.900162 
L 239.812612 205.500965 
L 244.32831 188.870593 
L 248.844008 172.214636 
L 253.359707 155.756663 
L 257.875405 139.733634 
L 262.391104 124.390513 
L 266.906802 109.974228 
L 271.4225 96.727175 
L 275.938199 84.880515 
L 280.453897 74.647498 
L 284.969595 66.217093 
L 289.485294 59.7482 
L 294.000992 55.364663 
L 298.516691 53.151332 
L 303.032389 53.151332 
L 307.548087 55.364663 
L 312.063786 59.7482 
L 316.579484 66.217093 
L 321.095182 74.647498 
L 325.610881 84.880515 
L 330.126579 96.727175 
L 334.642278 109.974228 
L 339.157976 124.390513 
L 343.673674 139.733634 
L 348.189373 155.756663 
L 352.705071 172.214636 
L 357.220769 188.870593 
L 361.736468 205.500965 
L 366.252166 221.900162 
L 370.767865 237.884231 
L 375.283563 253.293543 
L 379.799261 267.994478 
L 384.31496 281.880152 
L 388.830658 294.870239 
L 393.346357 306.910008 
L 397.862055 317.968673 
L 402.377753 328.037224 
L 406.893452 337.125859 
L 411.40915 345.261171 
L 415.924848 352.483225 
L 420.440547 358.842645 
L 424.956245 364.397809 
L 429.471944 369.212249 
L 433.987642 373.352303 
L 438.50334 376.885071 
L 443.019039 379.876696 
L 447.534737 382.390969 
L 452.050435 384.488262 
L 456.566134 386.224753 
L 461.081832 387.651923 
L 465.597531 388.816289 
L 470.113229 389.759338 
L 474.628927 390.517613 
L 479.144626 391.122932 
L 483.660324 391.602689 
L 488.176022 391.980221 
L 492.691721 392.2752 
L 497.207419 392.50405 
L 501.723118 392.680344 
L 506.238816 392.8152 
L 510.754514 392.917635 
L 515.270213 392.994902 
L 519.785911 393.052778 
L 524.301609 393.09583 
" style="fill:none;stroke:#36a2eb;stroke-linecap:square;"/>
   </g>
   <g id="patch_3">
    <path d="M 44.928882 410.22 
L 547.128882 410.22 
" style="fill:none;stroke:#000000;stroke-linecap:square;stroke-linejoin:miter;stroke-width:0.8;"/>
   </g>
   <g id="legend_1">
    <g id="patch_4">
     <path d="M 459.154195 88.29875 
L 537.328882 88.29875 
Q 540.128882 88.29875 540.128882 85.49875 
L 540.128882 45.8 
Q 540.128882 43 537.328882 43 
L 459.154195 43 
Q 456.354195 43 456.354195 45.8 
L 456.354195 85.49875 
Q 456.354195 88.29875 459.154195 88.29875 
z
" style="fill:#ffffff;opacity:0.8;stroke:#cccccc;stroke-linejoin:miter;"/>
    </g>
    <g id="patch_5">
     <path d="M 461.954195 59.237813 
L 489.954195 59.237813 
L 489.954195 49.437813 
L 461.954195 49.437813 
z
" style="fill:#ff6384;opacity:0.5;stroke:#ff6384;stroke-linejoin:miter;"/>
    </g>
    <g id="text_1">
     <!-- base -->
     <defs>
      <path d="M 48.6875 27.296875 
Q 48.6875 37.203125 44.609375 42.84375 
Q 40.53125 48.484375 33.40625 48.484375 
Q 26.265625 48.484375 22.1875 42.84375 
Q 18.109375 37.203125 18.109375 27.296875 
Q 18.109375 17.390625 22.1875 11.75 
Q 26.265625 6.109375 33.40625 6.109375 
Q 40.53125 6.109375 44.609375 11.75 
Q 48.6875 17.390625 48.6875 27.296875 
z
M 18.109375 46.390625 
Q 20.953125 51.265625 25.265625 53.625 
Q 29.59375 56 35.59375 56 
Q 45.5625 56 51.78125 48.09375 
Q 58.015625 40.1875 58.015625 27.296875 
Q 58.015625 14.40625 51.78125 6.484375 
Q 45.5625 -1.421875 35.59375 -1.421875 
Q 29.59375 -1.421875 25.265625 0.953125 
Q 20.953125 3.328125 18.109375 8.203125 
L 18.109375 0 
L 9.078125 0 
L 9.078125 75.984375 
L 18.109375 75.984375 
z
" id="DejaVuSans-98"/>
      <path d="M 34.28125 27.484375 
Q 23.390625 27.484375 19.1875 25 
Q 14.984375 22.515625 14.984375 16.5 
Q 14.984375 11.71875 18.140625 8.90625 
Q 21.296875 6.109375 26.703125 6.109375 
Q 34.1875 6.109375 38.703125 11.40625 
Q 43.21875 16.703125 43.21875 25.484375 
L 43.21875 27.484375 
z
M 52.203125 31.203125 
L 52.203125 0 
L 43.21875 0 
L 43.21875 8.296875 
Q 40.140625 3.328125 35.546875 0.953125 
Q 30.953125 -1.421875 24.3125 -1.421875 
Q 15.921875 -1.421875 10.953125 3.296875 
Q 6 8.015625 6 15.921875 
Q 6 25.140625 12.171875 29.828125 
Q 18.359375 34.515625 30.609375 34.515625 
L 43.21875 34.515625 
L 43.21875 35.40625 
Q 43.21875 41.609375 39.140625 45 
Q 35.0625 48.390625 27.6875 48.390625 
Q 23 48.390625 18.546875 47.265625 
Q 14.109375 46.140625 10.015625 43.890625 
L 10.015625 52.203125 
Q 14.9375 54.109375 19.578125 55.046875 
Q 24.21875 56 28.609375 56 
Q 40.484375 56 46.34375 49.84375 
Q 52.203125 43.703125 52.203125 31.203125 
z
" id="DejaVuSans-97"/>
      <path d="M 44.28125 53.078125 
L 44.28125 44.578125 
Q 40.484375 46.53125 36.375 47.5 
Q 32.28125 48.484375 27.875 48.484375 
Q 21.1875 48.484375 17.84375 46.4375 
Q 14.5 44.390625 14.5 40.28125 
Q 14.5 37.15625 16.890625 35.375 
Q 19.28125 33.59375 26.515625 31.984375 
L 29.59375 31.296875 
Q 39.15625 29.25 43.1875 25.515625 
Q 47.21875 21.78125 47.21875 15.09375 
Q 47.21875 7.46875 41.1875 3.015625 
Q 35.15625 -1.421875 24.609375 -1.421875 
Q 20.21875 -1.421875 15.453125 -0.5625 
Q 10.6875 0.296875 5.421875 2 
L 5.421875 11.28125 
Q 10.40625 8.6875 15.234375 7.390625 
Q 20.0625 6.109375 24.8125 6.109375 
Q 31.15625 6.109375 34.5625 8.28125 
Q 37.984375 10.453125 37.984375 14.40625 
Q 37.984375 18.0625 35.515625 20.015625 
Q 33.0625 21.96875 24.703125 23.78125 
L 21.578125 24.515625 
Q 13.234375 26.265625 9.515625 29.90625 
Q 5.8125 33.546875 5.8125 39.890625 
Q 5.8125 47.609375 11.28125 51.796875 
Q 16.75 56 26.8125 56 
Q 31.78125 56 36.171875 55.265625 
Q 40.578125 54.546875 44.28125 53.078125 
z
" id="DejaVuSans-115"/>
      <path d="M 56.203125 29.59375 
L 56.203125 25.203125 
L 14.890625 25.203125 
Q 15.484375 15.921875 20.484375 11.0625 
Q 25.484375 6.203125 34.421875 6.203125 
Q 39.59375 6.203125 44.453125 7.46875 
Q 49.3125 8.734375 54.109375 11.28125 
L 54.109375 2.78125 
Q 49.265625 0.734375 44.1875 -0.34375 
Q 39.109375 -1.421875 33.890625 -1.421875 
Q 20.796875 -1.421875 13.15625 6.1875 
Q 5.515625 13.8125 5.515625 26.8125 
Q 5.515625 40.234375 12.765625 48.109375 
Q 20.015625 56 32.328125 56 
Q 43.359375 56 49.78125 48.890625 
Q 56.203125 41.796875 56.203125 29.59375 
z
M 47.21875 32.234375 
Q 47.125 39.59375 43.09375 43.984375 
Q 39.0625 48.390625 32.421875 48.390625 
Q 24.90625 48.390625 20.390625 44.140625 
Q 15.875 39.890625 15.1875 32.171875 
z
" id="DejaVuSans-101"/>
     </defs>
     <g transform="translate(501.154195 59.237813)scale(0.14 -0.14)">
      <use xlink:href="#DejaVuSans-98"/>
      <use x="63.476562" xlink:href="#DejaVuSans-97"/>
      <use x="124.755859" xlink:href="#DejaVuSans-115"/>
      <use x="176.855469" xlink:href="#DejaVuSans-101"/>
     </g>
    </g>
    <g id="patch_6">
     <path d="M 461.954195 79.787188 
L 489.954195 79.787188 
L 489.954195 69.987188 
L 461.954195 69.987188 
z
" style="fill:#36a2eb;opacity:0.5;stroke:#36a2eb;stroke-linejoin:miter;"/>
    </g>
    <g id="text_2">
     <!-- new -->
     <defs>
      <path d="M 54.890625 33.015625 
L 54.890625 0 
L 45.90625 0 
L 45.90625 32.71875 
Q 45.90625 40.484375 42.875 44.328125 
Q 39.84375 48.1875 33.796875 48.1875 
Q 26.515625 48.1875 22.3125 43.546875 
Q 18.109375 38.921875 18.109375 30.90625 
L 18.109375 0 
L 9.078125 0 
L 9.078125 54.6875 
L 18.109375 54.6875 
L 18.109375 46.1875 
Q 21.34375 51.125 25.703125 53.5625 
Q 30.078125 56 35.796875 56 
Q 45.21875 56 50.046875 50.171875 
Q 54.890625 44.34375 54.890625 33.015625 
z
" id="DejaVuSans-110"/>
      <path d="M 4.203125 54.6875 
L 13.1875 54.6875 
L 24.421875 12.015625 
L 35.59375 54.6875 
L 46.1875 54.6875 
L 57.421875 12.015625 
L 68.609375 54.6875 
L 77.59375 54.6875 
L 63.28125 0 
L 52.6875 0 
L 40.921875 44.828125 
L 29.109375 0 
L 18.5 0 
z
" id="DejaVuSans-119"/>
     </defs>
     <g transform="translate(501.154195 79.787188)scale(0.14 -0.14)">
      <use xlink:href="#DejaVuSans-110"/>
      <use x="63.378906" xlink:href="#DejaVuSans-101"/>
      <use x="124.902344" xlink:href="#DejaVuSans-119"/>
     </g>
    </g>
   </g>
  </g>
  <g id="axes_2">
   <g id="patch_7">
    <path d="M 44.928882 534.96 
L 547.128882 534.96 
L 547.128882 410.22 
L 44.928882 410.22 
z
" style="fill:none;"/>
   </g>
   <g id="patch_8">
    <path clip-path="url(#p3dce623320)" d="M 181.707601 529.29 
L 400.673125 529.29 
L 400.673125 491.49 
L 181.707601 491.49 
z
" style="fill:#ff6384;opacity:0.5;"/>
   </g>
   <g id="patch_9">
    <path clip-path="url(#p3dce623320)" d="M 191.246276 453.69 
L 410.302804 453.69 
L 410.302804 415.89 
L 191.246276 415.89 
z
" style="fill:#36a2eb;opacity:0.5;"/>
   </g>
   <g id="matplotlib.axis_1">
    <g id="xtick_1">
     <g id="line2d_3">
      <defs>
       <path d="M 0 0 
L 0 3.5 
" id="me379c89ae7" style="stroke:#000000;stroke-width:0.8;"/>
      </defs>
      <g>
       <use style="stroke:#000000;stroke-width:0.8;" x="51.585938" xlink:href="#me379c89ae7" y="534.96"/>
      </g>
     </g>
     <g id="text_3">
      <!-- 5.75 -->
      <defs>
       <path d="M 10.796875 72.90625 
L 49.515625 72.90625 
L 49.515625 64.59375 
L 19.828125 64.59375 
L 19.828125 46.734375 
Q 21.96875 47.46875 24.109375 47.828125 
Q 26.265625 48.1875 28.421875 48.1875 
Q 40.625 48.1875 47.75 41.5 
Q 54.890625 34.8125 54.890625 23.390625 
Q 54.890625 11.625 47.5625 5.09375 
Q 40.234375 -1.421875 26.90625 -1.421875 
Q 22.3125 -1.421875 17.546875 -0.640625 
Q 12.796875 0.140625 7.71875 1.703125 
L 7.71875 11.625 
Q 12.109375 9.234375 16.796875 8.0625 
Q 21.484375 6.890625 26.703125 6.890625 
Q 35.15625 6.890625 40.078125 11.328125 
Q 45.015625 15.765625 45.015625 23.390625 
Q 45.015625 31 40.078125 35.4375 
Q 35.15625 39.890625 26.703125 39.890625 
Q 22.75 39.890625 18.8125 39.015625 
Q 14.890625 38.140625 10.796875 36.28125 
z
" id="DejaVuSans-53"/>
       <path d="M 10.6875 12.40625 
L 21 12.40625 
L 21 0 
L 10.6875 0 
z
" id="DejaVuSans-46"/>
       <path d="M 8.203125 72.90625 
L 55.078125 72.90625 
L 55.078125 68.703125 
L 28.609375 0 
L 18.3125 0 
L 43.21875 64.59375 
L 8.203125 64.59375 
z
" id="DejaVuSans-55"/>
      </defs>
      <g transform="translate(36 552.597813)scale(0.14 -0.14)">
       <use xlink:href="#DejaVuSans-53"/>
       <use x="63.623047" xlink:href="#DejaVuSans-46"/>
       <use x="95.410156" xlink:href="#DejaVuSans-55"/>
       <use x="159.033203" xlink:href="#DejaVuSans-53"/>
      </g>
     </g>
    </g>
    <g id="xtick_2">
     <g id="line2d_4">
      <g>
       <use style="stroke:#000000;stroke-width:0.8;" x="111.487044" xlink:href="#me379c89ae7" y="534.96"/>
      </g>
     </g>
     <g id="text_4">
      <!-- 6.00 -->
      <defs>
       <path d="M 33.015625 40.375 
Q 26.375 40.375 22.484375 35.828125 
Q 18.609375 31.296875 18.609375 23.390625 
Q 18.609375 15.53125 22.484375 10.953125 
Q 26.375 6.390625 33.015625 6.390625 
Q 39.65625 6.390625 43.53125 10.953125 
Q 47.40625 15.53125 47.40625 23.390625 
Q 47.40625 31.296875 43.53125 35.828125 
Q 39.65625 40.375 33.015625 40.375 
z
M 52.59375 71.296875 
L 52.59375 62.3125 
Q 48.875 64.0625 45.09375 64.984375 
Q 41.3125 65.921875 37.59375 65.921875 
Q 27.828125 65.921875 22.671875 59.328125 
Q 17.53125 52.734375 16.796875 39.40625 
Q 19.671875 43.65625 24.015625 45.921875 
Q 28.375 48.1875 33.59375 48.1875 
Q 44.578125 48.1875 50.953125 41.515625 
Q 57.328125 34.859375 57.328125 23.390625 
Q 57.328125 12.15625 50.6875 5.359375 
Q 44.046875 -1.421875 33.015625 -1.421875 
Q 20.359375 -1.421875 13.671875 8.265625 
Q 6.984375 17.96875 6.984375 36.375 
Q 6.984375 53.65625 15.1875 63.9375 
Q 23.390625 74.21875 37.203125 74.21875 
Q 40.921875 74.21875 44.703125 73.484375 
Q 48.484375 72.75 52.59375 71.296875 
z
" id="DejaVuSans-54"/>
       <path d="M 31.78125 66.40625 
Q 24.171875 66.40625 20.328125 58.90625 
Q 16.5 51.421875 16.5 36.375 
Q 16.5 21.390625 20.328125 13.890625 
Q 24.171875 6.390625 31.78125 6.390625 
Q 39.453125 6.390625 43.28125 13.890625 
Q 47.125 21.390625 47.125 36.375 
Q 47.125 51.421875 43.28125 58.90625 
Q 39.453125 66.40625 31.78125 66.40625 
z
M 31.78125 74.21875 
Q 44.046875 74.21875 50.515625 64.515625 
Q 56.984375 54.828125 56.984375 36.375 
Q 56.984375 17.96875 50.515625 8.265625 
Q 44.046875 -1.421875 31.78125 -1.421875 
Q 19.53125 -1.421875 13.0625 8.265625 
Q 6.59375 17.96875 6.59375 36.375 
Q 6.59375 54.828125 13.0625 64.515625 
Q 19.53125 74.21875 31.78125 74.21875 
z
" id="DejaVuSans-48"/>
      </defs>
      <g transform="translate(95.901106 552.597813)scale(0.14 -0.14)">
       <use xlink:href="#DejaVuSans-54"/>
       <use x="63.623047" xlink:href="#DejaVuSans-46"/>
       <use x="95.410156" xlink:href="#DejaVuSans-48"/>
       <use x="159.033203" xlink:href="#DejaVuSans-48"/>
      </g>
     </g>
    </g>
    <g id="xtick_3">
     <g id="line2d_5">
      <g>
       <use style="stroke:#000000;stroke-width:0.8;" x="171.38815" xlink:href="#me379c89ae7" y="534.96"/>
      </g>
     </g>
     <g id="text_5">
      <!-- 6.25 -->
      <defs>
       <path d="M 19.1875 8.296875 
L 53.609375 8.296875 
L 53.609375 0 
L 7.328125 0 
L 7.328125 8.296875 
Q 12.9375 14.109375 22.625 23.890625 
Q 32.328125 33.6875 34.8125 36.53125 
Q 39.546875 41.84375 41.421875 45.53125 
Q 43.3125 49.21875 43.3125 52.78125 
Q 43.3125 58.59375 39.234375 62.25 
Q 35.15625 65.921875 28.609375 65.921875 
Q 23.96875 65.921875 18.8125 64.3125 
Q 13.671875 62.703125 7.8125 59.421875 
L 7.8125 69.390625 
Q 13.765625 71.78125 18.9375 73 
Q 24.125 74.21875 28.421875 74.21875 
Q 39.75 74.21875 46.484375 68.546875 
Q 53.21875 62.890625 53.21875 53.421875 
Q 53.21875 48.921875 51.53125 44.890625 
Q 49.859375 40.875 45.40625 35.40625 
Q 44.1875 33.984375 37.640625 27.21875 
Q 31.109375 20.453125 19.1875 8.296875 
z
" id="DejaVuSans-50"/>
      </defs>
      <g transform="translate(155.802213 552.597813)scale(0.14 -0.14)">
       <use xlink:href="#DejaVuSans-54"/>
       <use x="63.623047" xlink:href="#DejaVuSans-46"/>
       <use x="95.410156" xlink:href="#DejaVuSans-50"/>
       <use x="159.033203" xlink:href="#DejaVuSans-53"/>
      </g>
     </g>
    </g>
    <g id="xtick_4">
     <g id="line2d_6">
      <g>
       <use style="stroke:#000000;stroke-width:0.8;" x="231.289256" xlink:href="#me379c89ae7" y="534.96"/>
      </g>
     </g>
     <g id="text_6">
      <!-- 6.50 -->
      <g transform="translate(215.703319 552.597813)scale(0.14 -0.14)">
       <use xlink:href="#DejaVuSans-54"/>
       <use x="63.623047" xlink:href="#DejaVuSans-46"/>
       <use x="95.410156" xlink:href="#DejaVuSans-53"/>
       <use x="159.033203" xlink:href="#DejaVuSans-48"/>
      </g>
     </g>
    </g>
    <g id="xtick_5">
     <g id="line2d_7">
      <g>
       <use style="stroke:#000000;stroke-width:0.8;" x="291.190363" xlink:href="#me379c89ae7" y="534.96"/>
      </g>
     </g>
     <g id="text_7">
      <!-- 6.75 -->
      <g transform="translate(275.604425 552.597813)scale(0.14 -0.14)">
       <use xlink:href="#DejaVuSans-54"/>
       <use x="63.623047" xlink:href="#DejaVuSans-46"/>
       <use x="95.410156" xlink:href="#DejaVuSans-55"/>
       <use x="159.033203" xlink:href="#DejaVuSans-53"/>
      </g>
     </g>
    </g>
    <g id="xtick_6">
     <g id="line2d_8">
      <g>
       <use style="stroke:#000000;stroke-width:0.8;" x="351.091469" xlink:href="#me379c89ae7" y="534.96"/>
      </g>
     </g>
     <g id="text_8">
      <!-- 7.00 -->
      <g transform="translate(335.505532 552.597813)scale(0.14 -0.14)">
       <use xlink:href="#DejaVuSans-55"/>
       <use x="63.623047" xlink:href="#DejaVuSans-46"/>
       <use x="95.410156" xlink:href="#DejaVuSans-48"/>
       <use x="159.033203" xlink:href="#DejaVuSans-48"/>
      </g>
     </g>
    </g>
    <g id="xtick_7">
     <g id="line2d_9">
      <g>
       <use style="stroke:#000000;stroke-width:0.8;" x="410.992575" xlink:href="#me379c89ae7" y="534.96"/>
      </g>
     </g>
     <g id="text_9">
      <!-- 7.25 -->
      <g transform="translate(395.406638 552.597813)scale(0.14 -0.14)">
       <use xlink:href="#DejaVuSans-55"/>
       <use x="63.623047" xlink:href="#DejaVuSans-46"/>
       <use x="95.410156" xlink:href="#DejaVuSans-50"/>
       <use x="159.033203" xlink:href="#DejaVuSans-53"/>
      </g>
     </g>
    </g>
    <g id="xtick_8">
     <g id="line2d_10">
      <g>
       <use style="stroke:#000000;stroke-width:0.8;" x="470.893682" xlink:href="#me379c89ae7" y="534.96"/>
      </g>
     </g>
     <g id="text_10">
      <!-- 7.50 -->
      <g transform="translate(455.307744 552.597813)scale(0.14 -0.14)">
       <use xlink:href="#DejaVuSans-55"/>
       <use x="63.623047" xlink:href="#DejaVuSans-46"/>
       <use x="95.410156" xlink:href="#DejaVuSans-53"/>
       <use x="159.033203" xlink:href="#DejaVuSans-48"/>
      </g>
     </g>
    </g>
    <g id="xtick_9">
     <g id="line2d_11">
      <g>
       <use style="stroke:#000000;stroke-width:0.8;" x="530.794788" xlink:href="#me379c89ae7" y="534.96"/>
      </g>
     </g>
     <g id="text_11">
      <!-- 7.75 -->
      <g transform="translate(515.208851 552.597813)scale(0.14 -0.14)">
       <use xlink:href="#DejaVuSans-55"/>
       <use x="63.623047" xlink:href="#DejaVuSans-46"/>
       <use x="95.410156" xlink:href="#DejaVuSans-55"/>
       <use x="159.033203" xlink:href="#DejaVuSans-53"/>
      </g>
     </g>
    </g>
   </g>
   <g id="line2d_12">
    <path clip-path="url(#p3dce623320)" d="M 291.190363 534.96 
L 291.190363 410.22 
" style="fill:none;stroke:#ff6384;stroke-dasharray:5.55,2.4;stroke-dashoffset:0;stroke-opacity:0.8;stroke-width:1.5;"/>
   </g>
   <g id="line2d_13">
    <path clip-path="url(#p3dce623320)" d="M 300.77454 534.96 
L 300.77454 410.22 
" style="fill:none;stroke:#36a2eb;stroke-dasharray:5.55,2.4;stroke-dashoffset:0;stroke-opacity:0.8;stroke-width:1.5;"/>
   </g>
   <g id="patch_10">
    <path d="M 44.928882 534.96 
L 547.128882 534.96 
" style="fill:none;stroke:#000000;stroke-linecap:square;stroke-linejoin:miter;stroke-width:0.8;"/>
   </g>
  </g>
 </g>
 <defs>
  <clipPath id="p83f0bce6de">
   <rect height="374.22" width="502.2" x="44.928882" y="36"/>
  </clipPath>
  <clipPath id="p3dce623320">
   <rect height="124.74" width="502.2" x="44.928882" y="410.22"/>
  </clipPath>
 </defs>
</svg>
