<?xml version="1.0" encoding="utf-8" standalone="no"?>
<!DOCTYPE svg PUBLIC "-//W3C//DTD SVG 1.1//EN"
  "http://www.w3.org/Graphics/SVG/1.1/DTD/svg11.dtd">
<!-- Created with matplotlib (https://matplotlib.org/) -->
<svg height="591.509375pt" version="1.1" viewBox="0 0 574.2 591.509375" width="574.2pt" xmlns="http://www.w3.org/2000/svg" xmlns:xlink="http://www.w3.org/1999/xlink">
 <defs>
  <style type="text/css">
*{stroke-linecap:butt;stroke-linejoin:round;}
  </style>
 </defs>
 <g id="figure_1">
  <g id="patch_1">
   <path d="M 0 591.509375 
L 574.2 591.509375 
L 574.2 0 
L 0 0 
z
" style="fill:none;"/>
  </g>
  <g id="axes_1">
   <g id="patch_2">
    <path d="M 36 410.22 
L 538.2 410.22 
L 538.2 36 
L 36 36 
z
" style="fill:none;"/>
   </g>
   <g id="PolyCollection_1">
    <defs>
     <path d="M 58.827273 -198.299375 
L 58.827273 -198.413593 
L 63.293093 -198.456662 
L 67.758913 -198.514563 
L 72.224734 -198.591861 
L 76.690554 -198.694339 
L 81.156374 -198.829251 
L 85.622194 -199.005619 
L 90.088015 -199.234563 
L 94.553835 -199.529665 
L 99.019655 -199.907354 
L 103.485475 -200.387311 
L 107.951296 -200.992881 
L 112.417116 -201.751471 
L 116.882936 -202.694912 
L 121.348756 -203.859762 
L 125.814577 -205.287525 
L 130.280397 -207.024738 
L 134.746217 -209.122902 
L 139.212037 -211.638221 
L 143.677858 -214.631088 
L 148.143678 -218.165325 
L 152.609498 -222.3071 
L 157.075319 -227.123541 
L 161.541139 -232.681014 
L 166.006959 -239.043076 
L 170.472779 -246.268132 
L 174.9386 -254.406825 
L 179.40442 -263.499238 
L 183.87024 -273.571974 
L 188.33606 -284.635235 
L 192.801881 -296.680007 
L 197.267701 -309.675493 
L 201.733521 -323.566938 
L 206.199341 -338.273983 
L 210.665162 -353.689699 
L 215.130982 -369.680411 
L 219.596802 -386.086424 
L 224.062622 -402.723708 
L 228.528443 -419.386587 
L 232.994263 -435.8514 
L 237.460083 -451.881089 
L 241.925903 -467.230586 
L 246.391724 -481.652863 
L 250.857544 -494.905422 
L 255.323364 -506.757005 
L 259.789185 -516.994276 
L 264.255005 -525.428184 
L 268.720825 -531.899766 
L 273.186645 -536.285125 
L 277.652466 -538.499375 
L 282.118286 -538.499375 
L 286.584106 -536.285125 
L 291.049926 -531.899766 
L 295.515747 -525.428184 
L 299.981567 -516.994276 
L 304.447387 -506.757005 
L 308.913207 -494.905422 
L 313.379028 -481.652863 
L 317.844848 -467.230586 
L 322.310668 -451.881089 
L 326.776488 -435.8514 
L 331.242309 -419.386587 
L 335.708129 -402.723708 
L 340.173949 -386.086424 
L 344.63977 -369.680411 
L 349.10559 -353.689699 
L 353.57141 -338.273983 
L 358.03723 -323.566938 
L 362.503051 -309.675493 
L 366.968871 -296.680007 
L 371.434691 -284.635235 
L 375.900511 -273.571974 
L 380.366332 -263.499238 
L 384.832152 -254.406825 
L 389.297972 -246.268132 
L 393.763792 -239.043076 
L 398.229613 -232.681014 
L 402.695433 -227.123541 
L 407.161253 -222.3071 
L 411.627073 -218.165325 
L 416.092894 -214.631088 
L 420.558714 -211.638221 
L 425.024534 -209.122902 
L 429.490355 -207.024738 
L 433.956175 -205.287525 
L 438.421995 -203.859762 
L 442.887815 -202.694912 
L 447.353636 -201.751471 
L 451.819456 -200.992881 
L 456.285276 -200.387311 
L 460.751096 -199.907354 
L 465.216917 -199.529665 
L 469.682737 -199.234563 
L 474.148557 -199.005619 
L 478.614377 -198.829251 
L 483.080198 -198.694339 
L 487.546018 -198.591861 
L 492.011838 -198.514563 
L 496.477658 -198.456662 
L 500.943479 -198.413593 
L 500.943479 -198.299375 
L 500.943479 -198.299375 
L 496.477658 -198.299375 
L 492.011838 -198.299375 
L 487.546018 -198.299375 
L 483.080198 -198.299375 
L 478.614377 -198.299375 
L 474.148557 -198.299375 
L 469.682737 -198.299375 
L 465.216917 -198.299375 
L 460.751096 -198.299375 
L 456.285276 -198.299375 
L 451.819456 -198.299375 
L 447.353636 -198.299375 
L 442.887815 -198.299375 
L 438.421995 -198.299375 
L 433.956175 -198.299375 
L 429.490355 -198.299375 
L 425.024534 -198.299375 
L 420.558714 -198.299375 
L 416.092894 -198.299375 
L 411.627073 -198.299375 
L 407.161253 -198.299375 
L 402.695433 -198.299375 
L 398.229613 -198.299375 
L 393.763792 -198.299375 
L 389.297972 -198.299375 
L 384.832152 -198.299375 
L 380.366332 -198.299375 
L 375.900511 -198.299375 
L 371.434691 -198.299375 
L 366.968871 -198.299375 
L 362.503051 -198.299375 
L 358.03723 -198.299375 
L 353.57141 -198.299375 
L 349.10559 -198.299375 
L 344.63977 -198.299375 
L 340.173949 -198.299375 
L 335.708129 -198.299375 
L 331.242309 -198.299375 
L 326.776488 -198.299375 
L 322.310668 -198.299375 
L 317.844848 -198.299375 
L 313.379028 -198.299375 
L 308.913207 -198.299375 
L 304.447387 -198.299375 
L 299.981567 -198.299375 
L 295.515747 -198.299375 
L 291.049926 -198.299375 
L 286.584106 -198.299375 
L 282.118286 -198.299375 
L 277.652466 -198.299375 
L 273.186645 -198.299375 
L 268.720825 -198.299375 
L 264.255005 -198.299375 
L 259.789185 -198.299375 
L 255.323364 -198.299375 
L 250.857544 -198.299375 
L 246.391724 -198.299375 
L 241.925903 -198.299375 
L 237.460083 -198.299375 
L 232.994263 -198.299375 
L 228.528443 -198.299375 
L 224.062622 -198.299375 
L 219.596802 -198.299375 
L 215.130982 -198.299375 
L 210.665162 -198.299375 
L 206.199341 -198.299375 
L 201.733521 -198.299375 
L 197.267701 -198.299375 
L 192.801881 -198.299375 
L 188.33606 -198.299375 
L 183.87024 -198.299375 
L 179.40442 -198.299375 
L 174.9386 -198.299375 
L 170.472779 -198.299375 
L 166.006959 -198.299375 
L 161.541139 -198.299375 
L 157.075319 -198.299375 
L 152.609498 -198.299375 
L 148.143678 -198.299375 
L 143.677858 -198.299375 
L 139.212037 -198.299375 
L 134.746217 -198.299375 
L 130.280397 -198.299375 
L 125.814577 -198.299375 
L 121.348756 -198.299375 
L 116.882936 -198.299375 
L 112.417116 -198.299375 
L 107.951296 -198.299375 
L 103.485475 -198.299375 
L 99.019655 -198.299375 
L 94.553835 -198.299375 
L 90.088015 -198.299375 
L 85.622194 -198.299375 
L 81.156374 -198.299375 
L 76.690554 -198.299375 
L 72.224734 -198.299375 
L 67.758913 -198.299375 
L 63.293093 -198.299375 
L 58.827273 -198.299375 
z
" id="md8c8e57f05" style="stroke:#ff6384;stroke-opacity:0.5;"/>
    </defs>
    <g clip-path="url(#p9efa99a538)">
     <use style="fill:#ff6384;fill-opacity:0.5;stroke:#ff6384;stroke-opacity:0.5;" x="0" xlink:href="#md8c8e57f05" y="591.509375"/>
    </g>
   </g>
   <g id="PolyCollection_2">
    <defs>
     <path d="M 72.153062 -198.299375 
L 72.153062 -198.413308 
L 76.630028 -198.45627 
L 81.106994 -198.514027 
L 85.583961 -198.591133 
L 90.060927 -198.693356 
L 94.537893 -198.827932 
L 99.01486 -199.00386 
L 103.491826 -199.232235 
L 107.968792 -199.526602 
L 112.445758 -199.903351 
L 116.922725 -200.382112 
L 121.399691 -200.986175 
L 125.876657 -201.742877 
L 130.353624 -202.683969 
L 134.83059 -203.845919 
L 139.307556 -205.270127 
L 143.784523 -207.003014 
L 148.261489 -209.095956 
L 152.738455 -211.605012 
L 157.215422 -214.590428 
L 161.692388 -218.115866 
L 166.169354 -222.247329 
L 170.646321 -227.051779 
L 175.123287 -232.595416 
L 179.600253 -238.941639 
L 184.07722 -246.148707 
L 188.554186 -254.267138 
L 193.031152 -263.336913 
L 197.508119 -273.384571 
L 201.985085 -284.420289 
L 206.462051 -296.435074 
L 210.939018 -309.398206 
L 215.415984 -323.255066 
L 219.89295 -337.925496 
L 224.369916 -353.302832 
L 228.846883 -369.253733 
L 233.323849 -385.618901 
L 237.800815 -402.214764 
L 242.277782 -418.836159 
L 246.754748 -435.25998 
L 251.231714 -451.24976 
L 255.708681 -466.561043 
L 260.185647 -480.947414 
L 264.662613 -494.166978 
L 269.13958 -505.989055 
L 273.616546 -516.200838 
L 278.093512 -524.613749 
L 282.570479 -531.069219 
L 287.047445 -535.44366 
L 291.524411 -537.652398 
L 296.001378 -537.652398 
L 300.478344 -535.44366 
L 304.95531 -531.069219 
L 309.432277 -524.613749 
L 313.909243 -516.200838 
L 318.386209 -505.989055 
L 322.863176 -494.166978 
L 327.340142 -480.947414 
L 331.817108 -466.561043 
L 336.294074 -451.24976 
L 340.771041 -435.25998 
L 345.248007 -418.836159 
L 349.724973 -402.214764 
L 354.20194 -385.618901 
L 358.678906 -369.253733 
L 363.155872 -353.302832 
L 367.632839 -337.925496 
L 372.109805 -323.255066 
L 376.586771 -309.398206 
L 381.063738 -296.435074 
L 385.540704 -284.420289 
L 390.01767 -273.384571 
L 394.494637 -263.336913 
L 398.971603 -254.267138 
L 403.448569 -246.148707 
L 407.925536 -238.941639 
L 412.402502 -232.595416 
L 416.879468 -227.051779 
L 421.356435 -222.247329 
L 425.833401 -218.115866 
L 430.310367 -214.590428 
L 434.787334 -211.605012 
L 439.2643 -209.095956 
L 443.741266 -207.003014 
L 448.218232 -205.270127 
L 452.695199 -203.845919 
L 457.172165 -202.683969 
L 461.649131 -201.742877 
L 466.126098 -200.986175 
L 470.603064 -200.382112 
L 475.08003 -199.903351 
L 479.556997 -199.526602 
L 484.033963 -199.232235 
L 488.510929 -199.00386 
L 492.987896 -198.827932 
L 497.464862 -198.693356 
L 501.941828 -198.591133 
L 506.418795 -198.514027 
L 510.895761 -198.45627 
L 515.372727 -198.413308 
L 515.372727 -198.299375 
L 515.372727 -198.299375 
L 510.895761 -198.299375 
L 506.418795 -198.299375 
L 501.941828 -198.299375 
L 497.464862 -198.299375 
L 492.987896 -198.299375 
L 488.510929 -198.299375 
L 484.033963 -198.299375 
L 479.556997 -198.299375 
L 475.08003 -198.299375 
L 470.603064 -198.299375 
L 466.126098 -198.299375 
L 461.649131 -198.299375 
L 457.172165 -198.299375 
L 452.695199 -198.299375 
L 448.218232 -198.299375 
L 443.741266 -198.299375 
L 439.2643 -198.299375 
L 434.787334 -198.299375 
L 430.310367 -198.299375 
L 425.833401 -198.299375 
L 421.356435 -198.299375 
L 416.879468 -198.299375 
L 412.402502 -198.299375 
L 407.925536 -198.299375 
L 403.448569 -198.299375 
L 398.971603 -198.299375 
L 394.494637 -198.299375 
L 390.01767 -198.299375 
L 385.540704 -198.299375 
L 381.063738 -198.299375 
L 376.586771 -198.299375 
L 372.109805 -198.299375 
L 367.632839 -198.299375 
L 363.155872 -198.299375 
L 358.678906 -198.299375 
L 354.20194 -198.299375 
L 349.724973 -198.299375 
L 345.248007 -198.299375 
L 340.771041 -198.299375 
L 336.294074 -198.299375 
L 331.817108 -198.299375 
L 327.340142 -198.299375 
L 322.863176 -198.299375 
L 318.386209 -198.299375 
L 313.909243 -198.299375 
L 309.432277 -198.299375 
L 304.95531 -198.299375 
L 300.478344 -198.299375 
L 296.001378 -198.299375 
L 291.524411 -198.299375 
L 287.047445 -198.299375 
L 282.570479 -198.299375 
L 278.093512 -198.299375 
L 273.616546 -198.299375 
L 269.13958 -198.299375 
L 264.662613 -198.299375 
L 260.185647 -198.299375 
L 255.708681 -198.299375 
L 251.231714 -198.299375 
L 246.754748 -198.299375 
L 242.277782 -198.299375 
L 237.800815 -198.299375 
L 233.323849 -198.299375 
L 228.846883 -198.299375 
L 224.369916 -198.299375 
L 219.89295 -198.299375 
L 215.415984 -198.299375 
L 210.939018 -198.299375 
L 206.462051 -198.299375 
L 201.985085 -198.299375 
L 197.508119 -198.299375 
L 193.031152 -198.299375 
L 188.554186 -198.299375 
L 184.07722 -198.299375 
L 179.600253 -198.299375 
L 175.123287 -198.299375 
L 170.646321 -198.299375 
L 166.169354 -198.299375 
L 161.692388 -198.299375 
L 157.215422 -198.299375 
L 152.738455 -198.299375 
L 148.261489 -198.299375 
L 143.784523 -198.299375 
L 139.307556 -198.299375 
L 134.83059 -198.299375 
L 130.353624 -198.299375 
L 125.876657 -198.299375 
L 121.399691 -198.299375 
L 116.922725 -198.299375 
L 112.445758 -198.299375 
L 107.968792 -198.299375 
L 103.491826 -198.299375 
L 99.01486 -198.299375 
L 94.537893 -198.299375 
L 90.060927 -198.299375 
L 85.583961 -198.299375 
L 81.106994 -198.299375 
L 76.630028 -198.299375 
L 72.153062 -198.299375 
z
" id="m8c22f9e3c4" style="stroke:#36a2eb;stroke-opacity:0.5;"/>
    </defs>
    <g clip-path="url(#p9efa99a538)">
     <use style="fill:#36a2eb;fill-opacity:0.5;stroke:#36a2eb;stroke-opacity:0.5;" x="0" xlink:href="#m8c22f9e3c4" y="591.509375"/>
    </g>
   </g>
   <g id="line2d_1">
    <path clip-path="url(#p9efa99a538)" d="M 58.827273 393.095782 
L 63.293093 393.052713 
L 67.758913 392.994812 
L 72.224734 392.917514 
L 76.690554 392.815036 
L 81.156374 392.680124 
L 85.622194 392.503756 
L 90.088015 392.274812 
L 94.553835 391.97971 
L 99.019655 391.602021 
L 103.485475 391.122064 
L 107.951296 390.516494 
L 112.417116 389.757904 
L 116.882936 388.814463 
L 121.348756 387.649613 
L 125.814577 386.22185 
L 130.280397 384.484637 
L 134.746217 382.386473 
L 139.212037 379.871154 
L 143.677858 376.878287 
L 148.143678 373.34405 
L 152.609498 369.202275 
L 157.075319 364.385834 
L 161.541139 358.828361 
L 166.006959 352.466299 
L 170.472779 345.241243 
L 174.9386 337.10255 
L 179.40442 328.010137 
L 183.87024 317.937401 
L 188.33606 306.87414 
L 192.801881 294.829368 
L 197.267701 281.833882 
L 201.733521 267.942437 
L 206.199341 253.235392 
L 210.665162 237.819676 
L 215.130982 221.828964 
L 219.596802 205.422951 
L 224.062622 188.785667 
L 228.528443 172.122788 
L 232.994263 155.657975 
L 237.460083 139.628286 
L 241.925903 124.278789 
L 246.391724 109.856512 
L 250.857544 96.603953 
L 255.323364 84.75237 
L 259.789185 74.515099 
L 264.255005 66.081191 
L 268.720825 59.609609 
L 273.186645 55.22425 
L 277.652466 53.01 
L 282.118286 53.01 
L 286.584106 55.22425 
L 291.049926 59.609609 
L 295.515747 66.081191 
L 299.981567 74.515099 
L 304.447387 84.75237 
L 308.913207 96.603953 
L 313.379028 109.856512 
L 317.844848 124.278789 
L 322.310668 139.628286 
L 326.776488 155.657975 
L 331.242309 172.122788 
L 335.708129 188.785667 
L 340.173949 205.422951 
L 344.63977 221.828964 
L 349.10559 237.819676 
L 353.57141 253.235392 
L 358.03723 267.942437 
L 362.503051 281.833882 
L 366.968871 294.829368 
L 371.434691 306.87414 
L 375.900511 317.937401 
L 380.366332 328.010137 
L 384.832152 337.10255 
L 389.297972 345.241243 
L 393.763792 352.466299 
L 398.229613 358.828361 
L 402.695433 364.385834 
L 407.161253 369.202275 
L 411.627073 373.34405 
L 416.092894 376.878287 
L 420.558714 379.871154 
L 425.024534 382.386473 
L 429.490355 384.484637 
L 433.956175 386.22185 
L 438.421995 387.649613 
L 442.887815 388.814463 
L 447.353636 389.757904 
L 451.819456 390.516494 
L 456.285276 391.122064 
L 460.751096 391.602021 
L 465.216917 391.97971 
L 469.682737 392.274812 
L 474.148557 392.503756 
L 478.614377 392.680124 
L 483.080198 392.815036 
L 487.546018 392.917514 
L 492.011838 392.994812 
L 496.477658 393.052713 
L 500.943479 393.095782 
" style="fill:none;stroke:#ff6384;stroke-linecap:square;"/>
   </g>
   <g id="line2d_2">
    <path clip-path="url(#p9efa99a538)" d="M 72.153062 393.096067 
L 76.630028 393.053105 
L 81.106994 392.995348 
L 85.583961 392.918242 
L 90.060927 392.816019 
L 94.537893 392.681443 
L 99.01486 392.505515 
L 103.491826 392.27714 
L 107.968792 391.982773 
L 112.445758 391.606024 
L 116.922725 391.127263 
L 121.399691 390.5232 
L 125.876657 389.766498 
L 130.353624 388.825406 
L 134.83059 387.663456 
L 139.307556 386.239248 
L 143.784523 384.506361 
L 148.261489 382.413419 
L 152.738455 379.904363 
L 157.215422 376.918947 
L 161.692388 373.393509 
L 166.169354 369.262046 
L 170.646321 364.457596 
L 175.123287 358.913959 
L 179.600253 352.567736 
L 184.07722 345.360668 
L 188.554186 337.242237 
L 193.031152 328.172462 
L 197.508119 318.124804 
L 201.985085 307.089086 
L 206.462051 295.074301 
L 210.939018 282.111169 
L 215.415984 268.254309 
L 219.89295 253.583879 
L 224.369916 238.206543 
L 228.846883 222.255642 
L 233.323849 205.890474 
L 237.800815 189.294611 
L 242.277782 172.673216 
L 246.754748 156.249395 
L 251.231714 140.259615 
L 255.708681 124.948332 
L 260.185647 110.561961 
L 264.662613 97.342397 
L 269.13958 85.52032 
L 273.616546 75.308537 
L 278.093512 66.895626 
L 282.570479 60.440156 
L 287.047445 56.065715 
L 291.524411 53.856977 
L 296.001378 53.856977 
L 300.478344 56.065715 
L 304.95531 60.440156 
L 309.432277 66.895626 
L 313.909243 75.308537 
L 318.386209 85.52032 
L 322.863176 97.342397 
L 327.340142 110.561961 
L 331.817108 124.948332 
L 336.294074 140.259615 
L 340.771041 156.249395 
L 345.248007 172.673216 
L 349.724973 189.294611 
L 354.20194 205.890474 
L 358.678906 222.255642 
L 363.155872 238.206543 
L 367.632839 253.583879 
L 372.109805 268.254309 
L 376.586771 282.111169 
L 381.063738 295.074301 
L 385.540704 307.089086 
L 390.01767 318.124804 
L 394.494637 328.172462 
L 398.971603 337.242237 
L 403.448569 345.360668 
L 407.925536 352.567736 
L 412.402502 358.913959 
L 416.879468 364.457596 
L 421.356435 369.262046 
L 425.833401 373.393509 
L 430.310367 376.918947 
L 434.787334 379.904363 
L 439.2643 382.413419 
L 443.741266 384.506361 
L 448.218232 386.239248 
L 452.695199 387.663456 
L 457.172165 388.825406 
L 461.649131 389.766498 
L 466.126098 390.5232 
L 470.603064 391.127263 
L 475.08003 391.606024 
L 479.556997 391.982773 
L 484.033963 392.27714 
L 488.510929 392.505515 
L 492.987896 392.681443 
L 497.464862 392.816019 
L 501.941828 392.918242 
L 506.418795 392.995348 
L 510.895761 393.053105 
L 515.372727 393.096067 
" style="fill:none;stroke:#36a2eb;stroke-linecap:square;"/>
   </g>
   <g id="patch_3">
    <path d="M 36 410.22 
L 538.2 410.22 
" style="fill:none;stroke:#000000;stroke-linecap:square;stroke-linejoin:miter;stroke-width:0.8;"/>
   </g>
   <g id="legend_1">
    <g id="patch_4">
     <path d="M 450.225313 88.29875 
L 528.4 88.29875 
Q 531.2 88.29875 531.2 85.49875 
L 531.2 45.8 
Q 531.2 43 528.4 43 
L 450.225313 43 
Q 447.425313 43 447.425313 45.8 
L 447.425313 85.49875 
Q 447.425313 88.29875 450.225313 88.29875 
z
" style="fill:#ffffff;opacity:0.8;stroke:#cccccc;stroke-linejoin:miter;"/>
    </g>
    <g id="patch_5">
     <path d="M 453.025313 59.237813 
L 481.025313 59.237813 
L 481.025313 49.437813 
L 453.025313 49.437813 
z
" style="fill:#ff6384;opacity:0.5;stroke:#ff6384;stroke-linejoin:miter;"/>
    </g>
    <g id="text_1">
     <!-- base -->
     <defs>
      <path d="M 48.6875 27.296875 
Q 48.6875 37.203125 44.609375 42.84375 
Q 40.53125 48.484375 33.40625 48.484375 
Q 26.265625 48.484375 22.1875 42.84375 
Q 18.109375 37.203125 18.109375 27.296875 
Q 18.109375 17.390625 22.1875 11.75 
Q 26.265625 6.109375 33.40625 6.109375 
Q 40.53125 6.109375 44.609375 11.75 
Q 48.6875 17.390625 48.6875 27.296875 
z
M 18.109375 46.390625 
Q 20.953125 51.265625 25.265625 53.625 
Q 29.59375 56 35.59375 56 
Q 45.5625 56 51.78125 48.09375 
Q 58.015625 40.1875 58.015625 27.296875 
Q 58.015625 14.40625 51.78125 6.484375 
Q 45.5625 -1.421875 35.59375 -1.421875 
Q 29.59375 -1.421875 25.265625 0.953125 
Q 20.953125 3.328125 18.109375 8.203125 
L 18.109375 0 
L 9.078125 0 
L 9.078125 75.984375 
L 18.109375 75.984375 
z
" id="DejaVuSans-98"/>
      <path d="M 34.28125 27.484375 
Q 23.390625 27.484375 19.1875 25 
Q 14.984375 22.515625 14.984375 16.5 
Q 14.984375 11.71875 18.140625 8.90625 
Q 21.296875 6.109375 26.703125 6.109375 
Q 34.1875 6.109375 38.703125 11.40625 
Q 43.21875 16.703125 43.21875 25.484375 
L 43.21875 27.484375 
z
M 52.203125 31.203125 
L 52.203125 0 
L 43.21875 0 
L 43.21875 8.296875 
Q 40.140625 3.328125 35.546875 0.953125 
Q 30.953125 -1.421875 24.3125 -1.421875 
Q 15.921875 -1.421875 10.953125 3.296875 
Q 6 8.015625 6 15.921875 
Q 6 25.140625 12.171875 29.828125 
Q 18.359375 34.515625 30.609375 34.515625 
L 43.21875 34.515625 
L 43.21875 35.40625 
Q 43.21875 41.609375 39.140625 45 
Q 35.0625 48.390625 27.6875 48.390625 
Q 23 48.390625 18.546875 47.265625 
Q 14.109375 46.140625 10.015625 43.890625 
L 10.015625 52.203125 
Q 14.9375 54.109375 19.578125 55.046875 
Q 24.21875 56 28.609375 56 
Q 40.484375 56 46.34375 49.84375 
Q 52.203125 43.703125 52.203125 31.203125 
z
" id="DejaVuSans-97"/>
      <path d="M 44.28125 53.078125 
L 44.28125 44.578125 
Q 40.484375 46.53125 36.375 47.5 
Q 32.28125 48.484375 27.875 48.484375 
Q 21.1875 48.484375 17.84375 46.4375 
Q 14.5 44.390625 14.5 40.28125 
Q 14.5 37.15625 16.890625 35.375 
Q 19.28125 33.59375 26.515625 31.984375 
L 29.59375 31.296875 
Q 39.15625 29.25 43.1875 25.515625 
Q 47.21875 21.78125 47.21875 15.09375 
Q 47.21875 7.46875 41.1875 3.015625 
Q 35.15625 -1.421875 24.609375 -1.421875 
Q 20.21875 -1.421875 15.453125 -0.5625 
Q 10.6875 0.296875 5.421875 2 
L 5.421875 11.28125 
Q 10.40625 8.6875 15.234375 7.390625 
Q 20.0625 6.109375 24.8125 6.109375 
Q 31.15625 6.109375 34.5625 8.28125 
Q 37.984375 10.453125 37.984375 14.40625 
Q 37.984375 18.0625 35.515625 20.015625 
Q 33.0625 21.96875 24.703125 23.78125 
L 21.578125 24.515625 
Q 13.234375 26.265625 9.515625 29.90625 
Q 5.8125 33.546875 5.8125 39.890625 
Q 5.8125 47.609375 11.28125 51.796875 
Q 16.75 56 26.8125 56 
Q 31.78125 56 36.171875 55.265625 
Q 40.578125 54.546875 44.28125 53.078125 
z
" id="DejaVuSans-115"/>
      <path d="M 56.203125 29.59375 
L 56.203125 25.203125 
L 14.890625 25.203125 
Q 15.484375 15.921875 20.484375 11.0625 
Q 25.484375 6.203125 34.421875 6.203125 
Q 39.59375 6.203125 44.453125 7.46875 
Q 49.3125 8.734375 54.109375 11.28125 
L 54.109375 2.78125 
Q 49.265625 0.734375 44.1875 -0.34375 
Q 39.109375 -1.421875 33.890625 -1.421875 
Q 20.796875 -1.421875 13.15625 6.1875 
Q 5.515625 13.8125 5.515625 26.8125 
Q 5.515625 40.234375 12.765625 48.109375 
Q 20.015625 56 32.328125 56 
Q 43.359375 56 49.78125 48.890625 
Q 56.203125 41.796875 56.203125 29.59375 
z
M 47.21875 32.234375 
Q 47.125 39.59375 43.09375 43.984375 
Q 39.0625 48.390625 32.421875 48.390625 
Q 24.90625 48.390625 20.390625 44.140625 
Q 15.875 39.890625 15.1875 32.171875 
z
" id="DejaVuSans-101"/>
     </defs>
     <g transform="translate(492.225313 59.237813)scale(0.14 -0.14)">
      <use xlink:href="#DejaVuSans-98"/>
      <use x="63.476562" xlink:href="#DejaVuSans-97"/>
      <use x="124.755859" xlink:href="#DejaVuSans-115"/>
      <use x="176.855469" xlink:href="#DejaVuSans-101"/>
     </g>
    </g>
    <g id="patch_6">
     <path d="M 453.025313 79.787188 
L 481.025313 79.787188 
L 481.025313 69.987188 
L 453.025313 69.987188 
z
" style="fill:#36a2eb;opacity:0.5;stroke:#36a2eb;stroke-linejoin:miter;"/>
    </g>
    <g id="text_2">
     <!-- new -->
     <defs>
      <path d="M 54.890625 33.015625 
L 54.890625 0 
L 45.90625 0 
L 45.90625 32.71875 
Q 45.90625 40.484375 42.875 44.328125 
Q 39.84375 48.1875 33.796875 48.1875 
Q 26.515625 48.1875 22.3125 43.546875 
Q 18.109375 38.921875 18.109375 30.90625 
L 18.109375 0 
L 9.078125 0 
L 9.078125 54.6875 
L 18.109375 54.6875 
L 18.109375 46.1875 
Q 21.34375 51.125 25.703125 53.5625 
Q 30.078125 56 35.796875 56 
Q 45.21875 56 50.046875 50.171875 
Q 54.890625 44.34375 54.890625 33.015625 
z
" id="DejaVuSans-110"/>
      <path d="M 4.203125 54.6875 
L 13.1875 54.6875 
L 24.421875 12.015625 
L 35.59375 54.6875 
L 46.1875 54.6875 
L 57.421875 12.015625 
L 68.609375 54.6875 
L 77.59375 54.6875 
L 63.28125 0 
L 52.6875 0 
L 40.921875 44.828125 
L 29.109375 0 
L 18.5 0 
z
" id="DejaVuSans-119"/>
     </defs>
     <g transform="translate(492.225313 79.787188)scale(0.14 -0.14)">
      <use xlink:href="#DejaVuSans-110"/>
      <use x="63.378906" xlink:href="#DejaVuSans-101"/>
      <use x="124.902344" xlink:href="#DejaVuSans-119"/>
     </g>
    </g>
   </g>
  </g>
  <g id="axes_2">
   <g id="patch_7">
    <path d="M 36 534.96 
L 538.2 534.96 
L 538.2 410.22 
L 36 410.22 
z
" style="fill:none;"/>
   </g>
   <g id="patch_8">
    <path clip-path="url(#p7bc2cf6721)" d="M 171.566905 529.29 
L 388.203846 529.29 
L 388.203846 491.49 
L 171.566905 491.49 
z
" style="fill:#ff6384;opacity:0.5;"/>
   </g>
   <g id="patch_9">
    <path clip-path="url(#p7bc2cf6721)" d="M 185.174076 453.69 
L 402.351713 453.69 
L 402.351713 415.89 
L 185.174076 415.89 
z
" style="fill:#36a2eb;opacity:0.5;"/>
   </g>
   <g id="matplotlib.axis_1">
    <g id="xtick_1">
     <g id="line2d_3">
      <defs>
       <path d="M 0 0 
L 0 3.5 
" id="m0c91069224" style="stroke:#000000;stroke-width:0.8;"/>
      </defs>
      <g>
       <use style="stroke:#000000;stroke-width:0.8;" x="80.049106" xlink:href="#m0c91069224" y="534.96"/>
      </g>
     </g>
     <g id="text_3">
      <!-- 2.75 -->
      <defs>
       <path d="M 19.1875 8.296875 
L 53.609375 8.296875 
L 53.609375 0 
L 7.328125 0 
L 7.328125 8.296875 
Q 12.9375 14.109375 22.625 23.890625 
Q 32.328125 33.6875 34.8125 36.53125 
Q 39.546875 41.84375 41.421875 45.53125 
Q 43.3125 49.21875 43.3125 52.78125 
Q 43.3125 58.59375 39.234375 62.25 
Q 35.15625 65.921875 28.609375 65.921875 
Q 23.96875 65.921875 18.8125 64.3125 
Q 13.671875 62.703125 7.8125 59.421875 
L 7.8125 69.390625 
Q 13.765625 71.78125 18.9375 73 
Q 24.125 74.21875 28.421875 74.21875 
Q 39.75 74.21875 46.484375 68.546875 
Q 53.21875 62.890625 53.21875 53.421875 
Q 53.21875 48.921875 51.53125 44.890625 
Q 49.859375 40.875 45.40625 35.40625 
Q 44.1875 33.984375 37.640625 27.21875 
Q 31.109375 20.453125 19.1875 8.296875 
z
" id="DejaVuSans-50"/>
       <path d="M 10.6875 12.40625 
L 21 12.40625 
L 21 0 
L 10.6875 0 
z
" id="DejaVuSans-46"/>
       <path d="M 8.203125 72.90625 
L 55.078125 72.90625 
L 55.078125 68.703125 
L 28.609375 0 
L 18.3125 0 
L 43.21875 64.59375 
L 8.203125 64.59375 
z
" id="DejaVuSans-55"/>
       <path d="M 10.796875 72.90625 
L 49.515625 72.90625 
L 49.515625 64.59375 
L 19.828125 64.59375 
L 19.828125 46.734375 
Q 21.96875 47.46875 24.109375 47.828125 
Q 26.265625 48.1875 28.421875 48.1875 
Q 40.625 48.1875 47.75 41.5 
Q 54.890625 34.8125 54.890625 23.390625 
Q 54.890625 11.625 47.5625 5.09375 
Q 40.234375 -1.421875 26.90625 -1.421875 
Q 22.3125 -1.421875 17.546875 -0.640625 
Q 12.796875 0.140625 7.71875 1.703125 
L 7.71875 11.625 
Q 12.109375 9.234375 16.796875 8.0625 
Q 21.484375 6.890625 26.703125 6.890625 
Q 35.15625 6.890625 40.078125 11.328125 
Q 45.015625 15.765625 45.015625 23.390625 
Q 45.015625 31 40.078125 35.4375 
Q 35.15625 39.890625 26.703125 39.890625 
Q 22.75 39.890625 18.8125 39.015625 
Q 14.890625 38.140625 10.796875 36.28125 
z
" id="DejaVuSans-53"/>
      </defs>
      <g transform="translate(64.463169 552.597813)scale(0.14 -0.14)">
       <use xlink:href="#DejaVuSans-50"/>
       <use x="63.623047" xlink:href="#DejaVuSans-46"/>
       <use x="95.410156" xlink:href="#DejaVuSans-55"/>
       <use x="159.033203" xlink:href="#DejaVuSans-53"/>
      </g>
     </g>
    </g>
    <g id="xtick_2">
     <g id="line2d_4">
      <g>
       <use style="stroke:#000000;stroke-width:0.8;" x="149.4367" xlink:href="#m0c91069224" y="534.96"/>
      </g>
     </g>
     <g id="text_4">
      <!-- 3.00 -->
      <defs>
       <path d="M 40.578125 39.3125 
Q 47.65625 37.796875 51.625 33 
Q 55.609375 28.21875 55.609375 21.1875 
Q 55.609375 10.40625 48.1875 4.484375 
Q 40.765625 -1.421875 27.09375 -1.421875 
Q 22.515625 -1.421875 17.65625 -0.515625 
Q 12.796875 0.390625 7.625 2.203125 
L 7.625 11.71875 
Q 11.71875 9.328125 16.59375 8.109375 
Q 21.484375 6.890625 26.8125 6.890625 
Q 36.078125 6.890625 40.9375 10.546875 
Q 45.796875 14.203125 45.796875 21.1875 
Q 45.796875 27.640625 41.28125 31.265625 
Q 36.765625 34.90625 28.71875 34.90625 
L 20.21875 34.90625 
L 20.21875 43.015625 
L 29.109375 43.015625 
Q 36.375 43.015625 40.234375 45.921875 
Q 44.09375 48.828125 44.09375 54.296875 
Q 44.09375 59.90625 40.109375 62.90625 
Q 36.140625 65.921875 28.71875 65.921875 
Q 24.65625 65.921875 20.015625 65.03125 
Q 15.375 64.15625 9.8125 62.3125 
L 9.8125 71.09375 
Q 15.4375 72.65625 20.34375 73.4375 
Q 25.25 74.21875 29.59375 74.21875 
Q 40.828125 74.21875 47.359375 69.109375 
Q 53.90625 64.015625 53.90625 55.328125 
Q 53.90625 49.265625 50.4375 45.09375 
Q 46.96875 40.921875 40.578125 39.3125 
z
" id="DejaVuSans-51"/>
       <path d="M 31.78125 66.40625 
Q 24.171875 66.40625 20.328125 58.90625 
Q 16.5 51.421875 16.5 36.375 
Q 16.5 21.390625 20.328125 13.890625 
Q 24.171875 6.390625 31.78125 6.390625 
Q 39.453125 6.390625 43.28125 13.890625 
Q 47.125 21.390625 47.125 36.375 
Q 47.125 51.421875 43.28125 58.90625 
Q 39.453125 66.40625 31.78125 66.40625 
z
M 31.78125 74.21875 
Q 44.046875 74.21875 50.515625 64.515625 
Q 56.984375 54.828125 56.984375 36.375 
Q 56.984375 17.96875 50.515625 8.265625 
Q 44.046875 -1.421875 31.78125 -1.421875 
Q 19.53125 -1.421875 13.0625 8.265625 
Q 6.59375 17.96875 6.59375 36.375 
Q 6.59375 54.828125 13.0625 64.515625 
Q 19.53125 74.21875 31.78125 74.21875 
z
" id="DejaVuSans-48"/>
      </defs>
      <g transform="translate(133.850762 552.597813)scale(0.14 -0.14)">
       <use xlink:href="#DejaVuSans-51"/>
       <use x="63.623047" xlink:href="#DejaVuSans-46"/>
       <use x="95.410156" xlink:href="#DejaVuSans-48"/>
       <use x="159.033203" xlink:href="#DejaVuSans-48"/>
      </g>
     </g>
    </g>
    <g id="xtick_3">
     <g id="line2d_5">
      <g>
       <use style="stroke:#000000;stroke-width:0.8;" x="218.824293" xlink:href="#m0c91069224" y="534.96"/>
      </g>
     </g>
     <g id="text_5">
      <!-- 3.25 -->
      <g transform="translate(203.238356 552.597813)scale(0.14 -0.14)">
       <use xlink:href="#DejaVuSans-51"/>
       <use x="63.623047" xlink:href="#DejaVuSans-46"/>
       <use x="95.410156" xlink:href="#DejaVuSans-50"/>
       <use x="159.033203" xlink:href="#DejaVuSans-53"/>
      </g>
     </g>
    </g>
    <g id="xtick_4">
     <g id="line2d_6">
      <g>
       <use style="stroke:#000000;stroke-width:0.8;" x="288.211887" xlink:href="#m0c91069224" y="534.96"/>
      </g>
     </g>
     <g id="text_6">
      <!-- 3.50 -->
      <g transform="translate(272.625949 552.597813)scale(0.14 -0.14)">
       <use xlink:href="#DejaVuSans-51"/>
       <use x="63.623047" xlink:href="#DejaVuSans-46"/>
       <use x="95.410156" xlink:href="#DejaVuSans-53"/>
       <use x="159.033203" xlink:href="#DejaVuSans-48"/>
      </g>
     </g>
    </g>
    <g id="xtick_5">
     <g id="line2d_7">
      <g>
       <use style="stroke:#000000;stroke-width:0.8;" x="357.599481" xlink:href="#m0c91069224" y="534.96"/>
      </g>
     </g>
     <g id="text_7">
      <!-- 3.75 -->
      <g transform="translate(342.013543 552.597813)scale(0.14 -0.14)">
       <use xlink:href="#DejaVuSans-51"/>
       <use x="63.623047" xlink:href="#DejaVuSans-46"/>
       <use x="95.410156" xlink:href="#DejaVuSans-55"/>
       <use x="159.033203" xlink:href="#DejaVuSans-53"/>
      </g>
     </g>
    </g>
    <g id="xtick_6">
     <g id="line2d_8">
      <g>
       <use style="stroke:#000000;stroke-width:0.8;" x="426.987074" xlink:href="#m0c91069224" y="534.96"/>
      </g>
     </g>
     <g id="text_8">
      <!-- 4.00 -->
      <defs>
       <path d="M 37.796875 64.3125 
L 12.890625 25.390625 
L 37.796875 25.390625 
z
M 35.203125 72.90625 
L 47.609375 72.90625 
L 47.609375 25.390625 
L 58.015625 25.390625 
L 58.015625 17.1875 
L 47.609375 17.1875 
L 47.609375 0 
L 37.796875 0 
L 37.796875 17.1875 
L 4.890625 17.1875 
L 4.890625 26.703125 
z
" id="DejaVuSans-52"/>
      </defs>
      <g transform="translate(411.401137 552.597813)scale(0.14 -0.14)">
       <use xlink:href="#DejaVuSans-52"/>
       <use x="63.623047" xlink:href="#DejaVuSans-46"/>
       <use x="95.410156" xlink:href="#DejaVuSans-48"/>
       <use x="159.033203" xlink:href="#DejaVuSans-48"/>
      </g>
     </g>
    </g>
    <g id="xtick_7">
     <g id="line2d_9">
      <g>
       <use style="stroke:#000000;stroke-width:0.8;" x="496.374668" xlink:href="#m0c91069224" y="534.96"/>
      </g>
     </g>
     <g id="text_9">
      <!-- 4.25 -->
      <g transform="translate(480.78873 552.597813)scale(0.14 -0.14)">
       <use xlink:href="#DejaVuSans-52"/>
       <use x="63.623047" xlink:href="#DejaVuSans-46"/>
       <use x="95.410156" xlink:href="#DejaVuSans-50"/>
       <use x="159.033203" xlink:href="#DejaVuSans-53"/>
      </g>
     </g>
    </g>
   </g>
   <g id="line2d_10">
    <path clip-path="url(#p7bc2cf6721)" d="M 279.885376 534.96 
L 279.885376 410.22 
" style="fill:none;stroke:#ff6384;stroke-dasharray:5.55,2.4;stroke-dashoffset:0;stroke-opacity:0.8;stroke-width:1.5;"/>
   </g>
   <g id="line2d_11">
    <path clip-path="url(#p7bc2cf6721)" d="M 293.762894 534.96 
L 293.762894 410.22 
" style="fill:none;stroke:#36a2eb;stroke-dasharray:5.55,2.4;stroke-dashoffset:0;stroke-opacity:0.8;stroke-width:1.5;"/>
   </g>
   <g id="patch_10">
    <path d="M 36 534.96 
L 538.2 534.96 
" style="fill:none;stroke:#000000;stroke-linecap:square;stroke-linejoin:miter;stroke-width:0.8;"/>
   </g>
  </g>
 </g>
 <defs>
  <clipPath id="p9efa99a538">
   <rect height="374.22" width="502.2" x="36" y="36"/>
  </clipPath>
  <clipPath id="p7bc2cf6721">
   <rect height="124.74" width="502.2" x="36" y="410.22"/>
  </clipPath>
 </defs>
</svg>
