<?xml version="1.0" encoding="utf-8" standalone="no"?>
<!DOCTYPE svg PUBLIC "-//W3C//DTD SVG 1.1//EN"
  "http://www.w3.org/Graphics/SVG/1.1/DTD/svg11.dtd">
<!-- Created with matplotlib (https://matplotlib.org/) -->
<svg height="581.789375pt" version="1.1" viewBox="0 0 576.762865 581.789375" width="576.762865pt" xmlns="http://www.w3.org/2000/svg" xmlns:xlink="http://www.w3.org/1999/xlink">
 <defs>
  <style type="text/css">
*{stroke-linecap:butt;stroke-linejoin:round;}
  </style>
 </defs>
 <g id="figure_1">
  <g id="patch_1">
   <path d="M -0 581.789375 
L 576.762865 581.789375 
L 576.762865 0 
L -0 0 
z
" style="fill:none;"/>
  </g>
  <g id="axes_1">
   <g id="patch_2">
    <path d="M 38.562865 402.93 
L 540.762865 402.93 
L 540.762865 36 
L 38.562865 36 
z
" style="fill:none;"/>
   </g>
   <g id="PolyCollection_1">
    <defs>
     <path d="M 61.390138 -195.538011 
L 61.390138 -195.650004 
L 64.842572 -195.692234 
L 68.295006 -195.749007 
L 71.74744 -195.8248 
L 75.199874 -195.925281 
L 78.652308 -196.057565 
L 82.104742 -196.230497 
L 85.557176 -196.454982 
L 89.00961 -196.744335 
L 92.462044 -197.114666 
L 95.914478 -197.585273 
L 99.366912 -198.179047 
L 102.819346 -198.922859 
L 106.27178 -199.847921 
L 109.724214 -200.990079 
L 113.176649 -202.390029 
L 116.629083 -204.093399 
L 120.081517 -206.150691 
L 123.533951 -208.617009 
L 126.986385 -211.551575 
L 130.438819 -215.016962 
L 133.891253 -219.078053 
L 137.343687 -223.800667 
L 140.796121 -229.249878 
L 144.248555 -235.488004 
L 147.700989 -242.572312 
L 151.153423 -250.552459 
L 154.605857 -259.467747 
L 158.058291 -269.344261 
L 161.510725 -280.192004 
L 164.963159 -292.002137 
L 168.415593 -304.744465 
L 171.868027 -318.365297 
L 175.320461 -332.785841 
L 178.772895 -347.901251 
L 182.225329 -363.580456 
L 185.677763 -379.666871 
L 189.130197 -395.980052 
L 192.582631 -412.31833 
L 196.035065 -428.4624 
L 199.487499 -444.179822 
L 202.939933 -459.230303 
L 206.392367 -473.371627 
L 209.844801 -486.366018 
L 213.297235 -497.986726 
L 216.749669 -508.02457 
L 220.202103 -516.294181 
L 223.654537 -522.639693 
L 227.106971 -526.939623 
L 230.559405 -529.110739 
L 234.011839 -529.110739 
L 237.464273 -526.939623 
L 240.916707 -522.639693 
L 244.369141 -516.294181 
L 247.821575 -508.02457 
L 251.274009 -497.986726 
L 254.726443 -486.366018 
L 258.178877 -473.371627 
L 261.631311 -459.230303 
L 265.083745 -444.179822 
L 268.536179 -428.4624 
L 271.988614 -412.31833 
L 275.441048 -395.980052 
L 278.893482 -379.666871 
L 282.345916 -363.580456 
L 285.79835 -347.901251 
L 289.250784 -332.785841 
L 292.703218 -318.365297 
L 296.155652 -304.744465 
L 299.608086 -292.002137 
L 303.06052 -280.192004 
L 306.512954 -269.344261 
L 309.965388 -259.467747 
L 313.417822 -250.552459 
L 316.870256 -242.572312 
L 320.32269 -235.488004 
L 323.775124 -229.249878 
L 327.227558 -223.800667 
L 330.679992 -219.078053 
L 334.132426 -215.016962 
L 337.58486 -211.551575 
L 341.037294 -208.617009 
L 344.489728 -206.150691 
L 347.942162 -204.093399 
L 351.394596 -202.390029 
L 354.84703 -200.990079 
L 358.299464 -199.847921 
L 361.751898 -198.922859 
L 365.204332 -198.179047 
L 368.656766 -197.585273 
L 372.1092 -197.114666 
L 375.561634 -196.744335 
L 379.014068 -196.454982 
L 382.466502 -196.230497 
L 385.918936 -196.057565 
L 389.37137 -195.925281 
L 392.823804 -195.8248 
L 396.276238 -195.749007 
L 399.728672 -195.692234 
L 403.181106 -195.650004 
L 403.181106 -195.538011 
L 403.181106 -195.538011 
L 399.728672 -195.538011 
L 396.276238 -195.538011 
L 392.823804 -195.538011 
L 389.37137 -195.538011 
L 385.918936 -195.538011 
L 382.466502 -195.538011 
L 379.014068 -195.538011 
L 375.561634 -195.538011 
L 372.1092 -195.538011 
L 368.656766 -195.538011 
L 365.204332 -195.538011 
L 361.751898 -195.538011 
L 358.299464 -195.538011 
L 354.84703 -195.538011 
L 351.394596 -195.538011 
L 347.942162 -195.538011 
L 344.489728 -195.538011 
L 341.037294 -195.538011 
L 337.58486 -195.538011 
L 334.132426 -195.538011 
L 330.679992 -195.538011 
L 327.227558 -195.538011 
L 323.775124 -195.538011 
L 320.32269 -195.538011 
L 316.870256 -195.538011 
L 313.417822 -195.538011 
L 309.965388 -195.538011 
L 306.512954 -195.538011 
L 303.06052 -195.538011 
L 299.608086 -195.538011 
L 296.155652 -195.538011 
L 292.703218 -195.538011 
L 289.250784 -195.538011 
L 285.79835 -195.538011 
L 282.345916 -195.538011 
L 278.893482 -195.538011 
L 275.441048 -195.538011 
L 271.988614 -195.538011 
L 268.536179 -195.538011 
L 265.083745 -195.538011 
L 261.631311 -195.538011 
L 258.178877 -195.538011 
L 254.726443 -195.538011 
L 251.274009 -195.538011 
L 247.821575 -195.538011 
L 244.369141 -195.538011 
L 240.916707 -195.538011 
L 237.464273 -195.538011 
L 234.011839 -195.538011 
L 230.559405 -195.538011 
L 227.106971 -195.538011 
L 223.654537 -195.538011 
L 220.202103 -195.538011 
L 216.749669 -195.538011 
L 213.297235 -195.538011 
L 209.844801 -195.538011 
L 206.392367 -195.538011 
L 202.939933 -195.538011 
L 199.487499 -195.538011 
L 196.035065 -195.538011 
L 192.582631 -195.538011 
L 189.130197 -195.538011 
L 185.677763 -195.538011 
L 182.225329 -195.538011 
L 178.772895 -195.538011 
L 175.320461 -195.538011 
L 171.868027 -195.538011 
L 168.415593 -195.538011 
L 164.963159 -195.538011 
L 161.510725 -195.538011 
L 158.058291 -195.538011 
L 154.605857 -195.538011 
L 151.153423 -195.538011 
L 147.700989 -195.538011 
L 144.248555 -195.538011 
L 140.796121 -195.538011 
L 137.343687 -195.538011 
L 133.891253 -195.538011 
L 130.438819 -195.538011 
L 126.986385 -195.538011 
L 123.533951 -195.538011 
L 120.081517 -195.538011 
L 116.629083 -195.538011 
L 113.176649 -195.538011 
L 109.724214 -195.538011 
L 106.27178 -195.538011 
L 102.819346 -195.538011 
L 99.366912 -195.538011 
L 95.914478 -195.538011 
L 92.462044 -195.538011 
L 89.00961 -195.538011 
L 85.557176 -195.538011 
L 82.104742 -195.538011 
L 78.652308 -195.538011 
L 75.199874 -195.538011 
L 71.74744 -195.538011 
L 68.295006 -195.538011 
L 64.842572 -195.538011 
L 61.390138 -195.538011 
z
" id="m90923fca91" style="stroke:#ff6384;stroke-opacity:0.5;"/>
    </defs>
    <g clip-path="url(#pfd13ebece0)">
     <use style="fill:#ff6384;fill-opacity:0.5;stroke:#ff6384;stroke-opacity:0.5;" x="0" xlink:href="#m90923fca91" y="581.789375"/>
    </g>
   </g>
   <g id="PolyCollection_2">
    <defs>
     <path d="M 93.762034 -195.538011 
L 93.762034 -195.628253 
L 98.046615 -195.662281 
L 102.331197 -195.708028 
L 106.615778 -195.7691 
L 110.90036 -195.850066 
L 115.184941 -195.956658 
L 119.469522 -196.096003 
L 123.754104 -196.276889 
L 128.038685 -196.510044 
L 132.323267 -196.80845 
L 136.607848 -197.187656 
L 140.892429 -197.666107 
L 145.177011 -198.265457 
L 149.461592 -199.010854 
L 153.746174 -199.931184 
L 158.030755 -201.059236 
L 162.315336 -202.43178 
L 166.599918 -204.089506 
L 170.884499 -206.076819 
L 175.169081 -208.441435 
L 179.453662 -211.233779 
L 183.738243 -214.506128 
L 188.022825 -218.311521 
L 192.307406 -222.702391 
L 196.591988 -227.728954 
L 200.876569 -233.437354 
L 205.16115 -239.867605 
L 209.445732 -247.051374 
L 213.730313 -255.00968 
L 218.014895 -263.750585 
L 222.299476 -273.266965 
L 226.584057 -283.53449 
L 230.868639 -294.509897 
L 235.15322 -306.129696 
L 239.437802 -318.309405 
L 243.722383 -330.94341 
L 248.006964 -343.905536 
L 252.291546 -357.050387 
L 256.576127 -370.21546 
L 260.860709 -383.224044 
L 265.14529 -395.888843 
L 269.429871 -408.016233 
L 273.714453 -419.411043 
L 277.999034 -429.881675 
L 282.283616 -439.245421 
L 286.568197 -447.333724 
L 290.852778 -453.997219 
L 295.13736 -459.110312 
L 299.421941 -462.575113 
L 303.706523 -464.324557 
L 307.991104 -464.324557 
L 312.275685 -462.575113 
L 316.560267 -459.110312 
L 320.844848 -453.997219 
L 325.12943 -447.333724 
L 329.414011 -439.245421 
L 333.698592 -429.881675 
L 337.983174 -419.411043 
L 342.267755 -408.016233 
L 346.552337 -395.888843 
L 350.836918 -383.224044 
L 355.121499 -370.21546 
L 359.406081 -357.050387 
L 363.690662 -343.905536 
L 367.975244 -330.94341 
L 372.259825 -318.309405 
L 376.544406 -306.129696 
L 380.828988 -294.509897 
L 385.113569 -283.53449 
L 389.398151 -273.266965 
L 393.682732 -263.750585 
L 397.967313 -255.00968 
L 402.251895 -247.051374 
L 406.536476 -239.867605 
L 410.821058 -233.437354 
L 415.105639 -227.728954 
L 419.39022 -222.702391 
L 423.674802 -218.311521 
L 427.959383 -214.506128 
L 432.243965 -211.233779 
L 436.528546 -208.441435 
L 440.813127 -206.076819 
L 445.097709 -204.089506 
L 449.38229 -202.43178 
L 453.666872 -201.059236 
L 457.951453 -199.931184 
L 462.236035 -199.010854 
L 466.520616 -198.265457 
L 470.805197 -197.666107 
L 475.089779 -197.187656 
L 479.37436 -196.80845 
L 483.658942 -196.510044 
L 487.943523 -196.276889 
L 492.228104 -196.096003 
L 496.512686 -195.956658 
L 500.797267 -195.850066 
L 505.081849 -195.7691 
L 509.36643 -195.708028 
L 513.651011 -195.662281 
L 517.935593 -195.628253 
L 517.935593 -195.538011 
L 517.935593 -195.538011 
L 513.651011 -195.538011 
L 509.36643 -195.538011 
L 505.081849 -195.538011 
L 500.797267 -195.538011 
L 496.512686 -195.538011 
L 492.228104 -195.538011 
L 487.943523 -195.538011 
L 483.658942 -195.538011 
L 479.37436 -195.538011 
L 475.089779 -195.538011 
L 470.805197 -195.538011 
L 466.520616 -195.538011 
L 462.236035 -195.538011 
L 457.951453 -195.538011 
L 453.666872 -195.538011 
L 449.38229 -195.538011 
L 445.097709 -195.538011 
L 440.813127 -195.538011 
L 436.528546 -195.538011 
L 432.243965 -195.538011 
L 427.959383 -195.538011 
L 423.674802 -195.538011 
L 419.39022 -195.538011 
L 415.105639 -195.538011 
L 410.821058 -195.538011 
L 406.536476 -195.538011 
L 402.251895 -195.538011 
L 397.967313 -195.538011 
L 393.682732 -195.538011 
L 389.398151 -195.538011 
L 385.113569 -195.538011 
L 380.828988 -195.538011 
L 376.544406 -195.538011 
L 372.259825 -195.538011 
L 367.975244 -195.538011 
L 363.690662 -195.538011 
L 359.406081 -195.538011 
L 355.121499 -195.538011 
L 350.836918 -195.538011 
L 346.552337 -195.538011 
L 342.267755 -195.538011 
L 337.983174 -195.538011 
L 333.698592 -195.538011 
L 329.414011 -195.538011 
L 325.12943 -195.538011 
L 320.844848 -195.538011 
L 316.560267 -195.538011 
L 312.275685 -195.538011 
L 307.991104 -195.538011 
L 303.706523 -195.538011 
L 299.421941 -195.538011 
L 295.13736 -195.538011 
L 290.852778 -195.538011 
L 286.568197 -195.538011 
L 282.283616 -195.538011 
L 277.999034 -195.538011 
L 273.714453 -195.538011 
L 269.429871 -195.538011 
L 265.14529 -195.538011 
L 260.860709 -195.538011 
L 256.576127 -195.538011 
L 252.291546 -195.538011 
L 248.006964 -195.538011 
L 243.722383 -195.538011 
L 239.437802 -195.538011 
L 235.15322 -195.538011 
L 230.868639 -195.538011 
L 226.584057 -195.538011 
L 222.299476 -195.538011 
L 218.014895 -195.538011 
L 213.730313 -195.538011 
L 209.445732 -195.538011 
L 205.16115 -195.538011 
L 200.876569 -195.538011 
L 196.591988 -195.538011 
L 192.307406 -195.538011 
L 188.022825 -195.538011 
L 183.738243 -195.538011 
L 179.453662 -195.538011 
L 175.169081 -195.538011 
L 170.884499 -195.538011 
L 166.599918 -195.538011 
L 162.315336 -195.538011 
L 158.030755 -195.538011 
L 153.746174 -195.538011 
L 149.461592 -195.538011 
L 145.177011 -195.538011 
L 140.892429 -195.538011 
L 136.607848 -195.538011 
L 132.323267 -195.538011 
L 128.038685 -195.538011 
L 123.754104 -195.538011 
L 119.469522 -195.538011 
L 115.184941 -195.538011 
L 110.90036 -195.538011 
L 106.615778 -195.538011 
L 102.331197 -195.538011 
L 98.046615 -195.538011 
L 93.762034 -195.538011 
z
" id="m36c1f87528" style="stroke:#36a2eb;stroke-opacity:0.5;"/>
    </defs>
    <g clip-path="url(#pfd13ebece0)">
     <use style="fill:#36a2eb;fill-opacity:0.5;stroke:#36a2eb;stroke-opacity:0.5;" x="0" xlink:href="#m36c1f87528" y="581.789375"/>
    </g>
   </g>
   <g id="line2d_1">
    <path clip-path="url(#pfd13ebece0)" d="M 61.390138 386.139371 
L 64.842572 386.097141 
L 68.295006 386.040368 
L 71.74744 385.964575 
L 75.199874 385.864094 
L 78.652308 385.73181 
L 82.104742 385.558878 
L 85.557176 385.334393 
L 89.00961 385.04504 
L 92.462044 384.674709 
L 95.914478 384.204102 
L 99.366912 383.610328 
L 102.819346 382.866516 
L 106.27178 381.941454 
L 109.724214 380.799296 
L 113.176649 379.399346 
L 116.629083 377.695976 
L 120.081517 375.638684 
L 123.533951 373.172366 
L 126.986385 370.2378 
L 130.438819 366.772413 
L 133.891253 362.711322 
L 137.343687 357.988708 
L 140.796121 352.539497 
L 144.248555 346.301371 
L 147.700989 339.217063 
L 151.153423 331.236916 
L 154.605857 322.321628 
L 158.058291 312.445114 
L 161.510725 301.597371 
L 164.963159 289.787238 
L 168.415593 277.04491 
L 171.868027 263.424078 
L 175.320461 249.003534 
L 178.772895 233.888124 
L 182.225329 218.208919 
L 185.677763 202.122504 
L 189.130197 185.809323 
L 192.582631 169.471045 
L 196.035065 153.326975 
L 199.487499 137.609553 
L 202.939933 122.559072 
L 206.392367 108.417748 
L 209.844801 95.423357 
L 213.297235 83.802649 
L 216.749669 73.764805 
L 220.202103 65.495194 
L 223.654537 59.149682 
L 227.106971 54.849752 
L 230.559405 52.678636 
L 234.011839 52.678636 
L 237.464273 54.849752 
L 240.916707 59.149682 
L 244.369141 65.495194 
L 247.821575 73.764805 
L 251.274009 83.802649 
L 254.726443 95.423357 
L 258.178877 108.417748 
L 261.631311 122.559072 
L 265.083745 137.609553 
L 268.536179 153.326975 
L 271.988614 169.471045 
L 275.441048 185.809323 
L 278.893482 202.122504 
L 282.345916 218.208919 
L 285.79835 233.888124 
L 289.250784 249.003534 
L 292.703218 263.424078 
L 296.155652 277.04491 
L 299.608086 289.787238 
L 303.06052 301.597371 
L 306.512954 312.445114 
L 309.965388 322.321628 
L 313.417822 331.236916 
L 316.870256 339.217063 
L 320.32269 346.301371 
L 323.775124 352.539497 
L 327.227558 357.988708 
L 330.679992 362.711322 
L 334.132426 366.772413 
L 337.58486 370.2378 
L 341.037294 373.172366 
L 344.489728 375.638684 
L 347.942162 377.695976 
L 351.394596 379.399346 
L 354.84703 380.799296 
L 358.299464 381.941454 
L 361.751898 382.866516 
L 365.204332 383.610328 
L 368.656766 384.204102 
L 372.1092 384.674709 
L 375.561634 385.04504 
L 379.014068 385.334393 
L 382.466502 385.558878 
L 385.918936 385.73181 
L 389.37137 385.864094 
L 392.823804 385.964575 
L 396.276238 386.040368 
L 399.728672 386.097141 
L 403.181106 386.139371 
" style="fill:none;stroke:#ff6384;stroke-linecap:square;"/>
   </g>
   <g id="line2d_2">
    <path clip-path="url(#pfd13ebece0)" d="M 93.762034 386.161122 
L 98.046615 386.127094 
L 102.331197 386.081347 
L 106.615778 386.020275 
L 110.90036 385.939309 
L 115.184941 385.832717 
L 119.469522 385.693372 
L 123.754104 385.512486 
L 128.038685 385.279331 
L 132.323267 384.980925 
L 136.607848 384.601719 
L 140.892429 384.123268 
L 145.177011 383.523918 
L 149.461592 382.778521 
L 153.746174 381.858191 
L 158.030755 380.730139 
L 162.315336 379.357595 
L 166.599918 377.699869 
L 170.884499 375.712556 
L 175.169081 373.34794 
L 179.453662 370.555596 
L 183.738243 367.283247 
L 188.022825 363.477854 
L 192.307406 359.086984 
L 196.591988 354.060421 
L 200.876569 348.352021 
L 205.16115 341.92177 
L 209.445732 334.738001 
L 213.730313 326.779695 
L 218.014895 318.03879 
L 222.299476 308.52241 
L 226.584057 298.254885 
L 230.868639 287.279478 
L 235.15322 275.659679 
L 239.437802 263.47997 
L 243.722383 250.845965 
L 248.006964 237.883839 
L 252.291546 224.738988 
L 256.576127 211.573915 
L 260.860709 198.565331 
L 265.14529 185.900532 
L 269.429871 173.773142 
L 273.714453 162.378332 
L 277.999034 151.9077 
L 282.283616 142.543954 
L 286.568197 134.455651 
L 290.852778 127.792156 
L 295.13736 122.679063 
L 299.421941 119.214262 
L 303.706523 117.464818 
L 307.991104 117.464818 
L 312.275685 119.214262 
L 316.560267 122.679063 
L 320.844848 127.792156 
L 325.12943 134.455651 
L 329.414011 142.543954 
L 333.698592 151.9077 
L 337.983174 162.378332 
L 342.267755 173.773142 
L 346.552337 185.900532 
L 350.836918 198.565331 
L 355.121499 211.573915 
L 359.406081 224.738988 
L 363.690662 237.883839 
L 367.975244 250.845965 
L 372.259825 263.47997 
L 376.544406 275.659679 
L 380.828988 287.279478 
L 385.113569 298.254885 
L 389.398151 308.52241 
L 393.682732 318.03879 
L 397.967313 326.779695 
L 402.251895 334.738001 
L 406.536476 341.92177 
L 410.821058 348.352021 
L 415.105639 354.060421 
L 419.39022 359.086984 
L 423.674802 363.477854 
L 427.959383 367.283247 
L 432.243965 370.555596 
L 436.528546 373.34794 
L 440.813127 375.712556 
L 445.097709 377.699869 
L 449.38229 379.357595 
L 453.666872 380.730139 
L 457.951453 381.858191 
L 462.236035 382.778521 
L 466.520616 383.523918 
L 470.805197 384.123268 
L 475.089779 384.601719 
L 479.37436 384.980925 
L 483.658942 385.279331 
L 487.943523 385.512486 
L 492.228104 385.693372 
L 496.512686 385.832717 
L 500.797267 385.939309 
L 505.081849 386.020275 
L 509.36643 386.081347 
L 513.651011 386.127094 
L 517.935593 386.161122 
" style="fill:none;stroke:#36a2eb;stroke-linecap:square;"/>
   </g>
   <g id="patch_3">
    <path d="M 38.562865 402.93 
L 540.762865 402.93 
" style="fill:none;stroke:#000000;stroke-linecap:square;stroke-linejoin:miter;stroke-width:0.8;"/>
   </g>
   <g id="legend_1">
    <g id="patch_4">
     <path d="M 422.141303 88.29875 
L 530.962865 88.29875 
Q 533.762865 88.29875 533.762865 85.49875 
L 533.762865 45.8 
Q 533.762865 43 530.962865 43 
L 422.141303 43 
Q 419.341303 43 419.341303 45.8 
L 419.341303 85.49875 
Q 419.341303 88.29875 422.141303 88.29875 
z
" style="fill:#ffffff;opacity:0.8;stroke:#cccccc;stroke-linejoin:miter;"/>
    </g>
    <g id="patch_5">
     <path d="M 424.941303 59.237813 
L 452.941303 59.237813 
L 452.941303 49.437813 
L 424.941303 49.437813 
z
" style="fill:#ff6384;opacity:0.5;stroke:#ff6384;stroke-linejoin:miter;"/>
    </g>
    <g id="text_1">
     <!-- base -->
     <defs>
      <path d="M 48.6875 27.296875 
Q 48.6875 37.203125 44.609375 42.84375 
Q 40.53125 48.484375 33.40625 48.484375 
Q 26.265625 48.484375 22.1875 42.84375 
Q 18.109375 37.203125 18.109375 27.296875 
Q 18.109375 17.390625 22.1875 11.75 
Q 26.265625 6.109375 33.40625 6.109375 
Q 40.53125 6.109375 44.609375 11.75 
Q 48.6875 17.390625 48.6875 27.296875 
z
M 18.109375 46.390625 
Q 20.953125 51.265625 25.265625 53.625 
Q 29.59375 56 35.59375 56 
Q 45.5625 56 51.78125 48.09375 
Q 58.015625 40.1875 58.015625 27.296875 
Q 58.015625 14.40625 51.78125 6.484375 
Q 45.5625 -1.421875 35.59375 -1.421875 
Q 29.59375 -1.421875 25.265625 0.953125 
Q 20.953125 3.328125 18.109375 8.203125 
L 18.109375 0 
L 9.078125 0 
L 9.078125 75.984375 
L 18.109375 75.984375 
z
" id="DejaVuSans-98"/>
      <path d="M 34.28125 27.484375 
Q 23.390625 27.484375 19.1875 25 
Q 14.984375 22.515625 14.984375 16.5 
Q 14.984375 11.71875 18.140625 8.90625 
Q 21.296875 6.109375 26.703125 6.109375 
Q 34.1875 6.109375 38.703125 11.40625 
Q 43.21875 16.703125 43.21875 25.484375 
L 43.21875 27.484375 
z
M 52.203125 31.203125 
L 52.203125 0 
L 43.21875 0 
L 43.21875 8.296875 
Q 40.140625 3.328125 35.546875 0.953125 
Q 30.953125 -1.421875 24.3125 -1.421875 
Q 15.921875 -1.421875 10.953125 3.296875 
Q 6 8.015625 6 15.921875 
Q 6 25.140625 12.171875 29.828125 
Q 18.359375 34.515625 30.609375 34.515625 
L 43.21875 34.515625 
L 43.21875 35.40625 
Q 43.21875 41.609375 39.140625 45 
Q 35.0625 48.390625 27.6875 48.390625 
Q 23 48.390625 18.546875 47.265625 
Q 14.109375 46.140625 10.015625 43.890625 
L 10.015625 52.203125 
Q 14.9375 54.109375 19.578125 55.046875 
Q 24.21875 56 28.609375 56 
Q 40.484375 56 46.34375 49.84375 
Q 52.203125 43.703125 52.203125 31.203125 
z
" id="DejaVuSans-97"/>
      <path d="M 44.28125 53.078125 
L 44.28125 44.578125 
Q 40.484375 46.53125 36.375 47.5 
Q 32.28125 48.484375 27.875 48.484375 
Q 21.1875 48.484375 17.84375 46.4375 
Q 14.5 44.390625 14.5 40.28125 
Q 14.5 37.15625 16.890625 35.375 
Q 19.28125 33.59375 26.515625 31.984375 
L 29.59375 31.296875 
Q 39.15625 29.25 43.1875 25.515625 
Q 47.21875 21.78125 47.21875 15.09375 
Q 47.21875 7.46875 41.1875 3.015625 
Q 35.15625 -1.421875 24.609375 -1.421875 
Q 20.21875 -1.421875 15.453125 -0.5625 
Q 10.6875 0.296875 5.421875 2 
L 5.421875 11.28125 
Q 10.40625 8.6875 15.234375 7.390625 
Q 20.0625 6.109375 24.8125 6.109375 
Q 31.15625 6.109375 34.5625 8.28125 
Q 37.984375 10.453125 37.984375 14.40625 
Q 37.984375 18.0625 35.515625 20.015625 
Q 33.0625 21.96875 24.703125 23.78125 
L 21.578125 24.515625 
Q 13.234375 26.265625 9.515625 29.90625 
Q 5.8125 33.546875 5.8125 39.890625 
Q 5.8125 47.609375 11.28125 51.796875 
Q 16.75 56 26.8125 56 
Q 31.78125 56 36.171875 55.265625 
Q 40.578125 54.546875 44.28125 53.078125 
z
" id="DejaVuSans-115"/>
      <path d="M 56.203125 29.59375 
L 56.203125 25.203125 
L 14.890625 25.203125 
Q 15.484375 15.921875 20.484375 11.0625 
Q 25.484375 6.203125 34.421875 6.203125 
Q 39.59375 6.203125 44.453125 7.46875 
Q 49.3125 8.734375 54.109375 11.28125 
L 54.109375 2.78125 
Q 49.265625 0.734375 44.1875 -0.34375 
Q 39.109375 -1.421875 33.890625 -1.421875 
Q 20.796875 -1.421875 13.15625 6.1875 
Q 5.515625 13.8125 5.515625 26.8125 
Q 5.515625 40.234375 12.765625 48.109375 
Q 20.015625 56 32.328125 56 
Q 43.359375 56 49.78125 48.890625 
Q 56.203125 41.796875 56.203125 29.59375 
z
M 47.21875 32.234375 
Q 47.125 39.59375 43.09375 43.984375 
Q 39.0625 48.390625 32.421875 48.390625 
Q 24.90625 48.390625 20.390625 44.140625 
Q 15.875 39.890625 15.1875 32.171875 
z
" id="DejaVuSans-101"/>
     </defs>
     <g transform="translate(464.141303 59.237813)scale(0.14 -0.14)">
      <use xlink:href="#DejaVuSans-98"/>
      <use x="63.476562" xlink:href="#DejaVuSans-97"/>
      <use x="124.755859" xlink:href="#DejaVuSans-115"/>
      <use x="176.855469" xlink:href="#DejaVuSans-101"/>
     </g>
    </g>
    <g id="patch_6">
     <path d="M 424.941303 79.787188 
L 452.941303 79.787188 
L 452.941303 69.987188 
L 424.941303 69.987188 
z
" style="fill:#36a2eb;opacity:0.5;stroke:#36a2eb;stroke-linejoin:miter;"/>
    </g>
    <g id="text_2">
     <!-- reminder -->
     <defs>
      <path d="M 41.109375 46.296875 
Q 39.59375 47.171875 37.8125 47.578125 
Q 36.03125 48 33.890625 48 
Q 26.265625 48 22.1875 43.046875 
Q 18.109375 38.09375 18.109375 28.8125 
L 18.109375 0 
L 9.078125 0 
L 9.078125 54.6875 
L 18.109375 54.6875 
L 18.109375 46.1875 
Q 20.953125 51.171875 25.484375 53.578125 
Q 30.03125 56 36.53125 56 
Q 37.453125 56 38.578125 55.875 
Q 39.703125 55.765625 41.0625 55.515625 
z
" id="DejaVuSans-114"/>
      <path d="M 52 44.1875 
Q 55.375 50.25 60.0625 53.125 
Q 64.75 56 71.09375 56 
Q 79.640625 56 84.28125 50.015625 
Q 88.921875 44.046875 88.921875 33.015625 
L 88.921875 0 
L 79.890625 0 
L 79.890625 32.71875 
Q 79.890625 40.578125 77.09375 44.375 
Q 74.3125 48.1875 68.609375 48.1875 
Q 61.625 48.1875 57.5625 43.546875 
Q 53.515625 38.921875 53.515625 30.90625 
L 53.515625 0 
L 44.484375 0 
L 44.484375 32.71875 
Q 44.484375 40.625 41.703125 44.40625 
Q 38.921875 48.1875 33.109375 48.1875 
Q 26.21875 48.1875 22.15625 43.53125 
Q 18.109375 38.875 18.109375 30.90625 
L 18.109375 0 
L 9.078125 0 
L 9.078125 54.6875 
L 18.109375 54.6875 
L 18.109375 46.1875 
Q 21.1875 51.21875 25.484375 53.609375 
Q 29.78125 56 35.6875 56 
Q 41.65625 56 45.828125 52.96875 
Q 50 49.953125 52 44.1875 
z
" id="DejaVuSans-109"/>
      <path d="M 9.421875 54.6875 
L 18.40625 54.6875 
L 18.40625 0 
L 9.421875 0 
z
M 9.421875 75.984375 
L 18.40625 75.984375 
L 18.40625 64.59375 
L 9.421875 64.59375 
z
" id="DejaVuSans-105"/>
      <path d="M 54.890625 33.015625 
L 54.890625 0 
L 45.90625 0 
L 45.90625 32.71875 
Q 45.90625 40.484375 42.875 44.328125 
Q 39.84375 48.1875 33.796875 48.1875 
Q 26.515625 48.1875 22.3125 43.546875 
Q 18.109375 38.921875 18.109375 30.90625 
L 18.109375 0 
L 9.078125 0 
L 9.078125 54.6875 
L 18.109375 54.6875 
L 18.109375 46.1875 
Q 21.34375 51.125 25.703125 53.5625 
Q 30.078125 56 35.796875 56 
Q 45.21875 56 50.046875 50.171875 
Q 54.890625 44.34375 54.890625 33.015625 
z
" id="DejaVuSans-110"/>
      <path d="M 45.40625 46.390625 
L 45.40625 75.984375 
L 54.390625 75.984375 
L 54.390625 0 
L 45.40625 0 
L 45.40625 8.203125 
Q 42.578125 3.328125 38.25 0.953125 
Q 33.9375 -1.421875 27.875 -1.421875 
Q 17.96875 -1.421875 11.734375 6.484375 
Q 5.515625 14.40625 5.515625 27.296875 
Q 5.515625 40.1875 11.734375 48.09375 
Q 17.96875 56 27.875 56 
Q 33.9375 56 38.25 53.625 
Q 42.578125 51.265625 45.40625 46.390625 
z
M 14.796875 27.296875 
Q 14.796875 17.390625 18.875 11.75 
Q 22.953125 6.109375 30.078125 6.109375 
Q 37.203125 6.109375 41.296875 11.75 
Q 45.40625 17.390625 45.40625 27.296875 
Q 45.40625 37.203125 41.296875 42.84375 
Q 37.203125 48.484375 30.078125 48.484375 
Q 22.953125 48.484375 18.875 42.84375 
Q 14.796875 37.203125 14.796875 27.296875 
z
" id="DejaVuSans-100"/>
     </defs>
     <g transform="translate(464.141303 79.787188)scale(0.14 -0.14)">
      <use xlink:href="#DejaVuSans-114"/>
      <use x="41.082031" xlink:href="#DejaVuSans-101"/>
      <use x="102.605469" xlink:href="#DejaVuSans-109"/>
      <use x="200.017578" xlink:href="#DejaVuSans-105"/>
      <use x="227.800781" xlink:href="#DejaVuSans-110"/>
      <use x="291.179688" xlink:href="#DejaVuSans-100"/>
      <use x="354.65625" xlink:href="#DejaVuSans-101"/>
      <use x="416.179688" xlink:href="#DejaVuSans-114"/>
     </g>
    </g>
   </g>
  </g>
  <g id="axes_2">
   <g id="patch_7">
    <path d="M 38.562865 525.24 
L 540.762865 525.24 
L 540.762865 402.93 
L 38.562865 402.93 
z
" style="fill:none;"/>
   </g>
   <g id="patch_8">
    <path clip-path="url(#p230d91c4e8)" d="M 148.546835 519.680455 
L 316.024409 519.680455 
L 316.024409 482.616818 
L 148.546835 482.616818 
z
" style="fill:#ff6384;opacity:0.5;"/>
   </g>
   <g id="patch_9">
    <path clip-path="url(#p230d91c4e8)" d="M 201.926291 445.553182 
L 409.771335 445.553182 
L 409.771335 408.489545 
L 201.926291 408.489545 
z
" style="fill:#36a2eb;opacity:0.5;"/>
   </g>
   <g id="matplotlib.axis_1">
    <g id="xtick_1">
     <g id="line2d_3">
      <defs>
       <path d="M 0 0 
L 0 3.5 
" id="md45771c56a" style="stroke:#000000;stroke-width:0.8;"/>
      </defs>
      <g>
       <use style="stroke:#000000;stroke-width:0.8;" x="47.132187" xlink:href="#md45771c56a" y="525.24"/>
      </g>
     </g>
     <g id="text_3">
      <!-- 5.0 -->
      <defs>
       <path d="M 10.796875 72.90625 
L 49.515625 72.90625 
L 49.515625 64.59375 
L 19.828125 64.59375 
L 19.828125 46.734375 
Q 21.96875 47.46875 24.109375 47.828125 
Q 26.265625 48.1875 28.421875 48.1875 
Q 40.625 48.1875 47.75 41.5 
Q 54.890625 34.8125 54.890625 23.390625 
Q 54.890625 11.625 47.5625 5.09375 
Q 40.234375 -1.421875 26.90625 -1.421875 
Q 22.3125 -1.421875 17.546875 -0.640625 
Q 12.796875 0.140625 7.71875 1.703125 
L 7.71875 11.625 
Q 12.109375 9.234375 16.796875 8.0625 
Q 21.484375 6.890625 26.703125 6.890625 
Q 35.15625 6.890625 40.078125 11.328125 
Q 45.015625 15.765625 45.015625 23.390625 
Q 45.015625 31 40.078125 35.4375 
Q 35.15625 39.890625 26.703125 39.890625 
Q 22.75 39.890625 18.8125 39.015625 
Q 14.890625 38.140625 10.796875 36.28125 
z
" id="DejaVuSans-53"/>
       <path d="M 10.6875 12.40625 
L 21 12.40625 
L 21 0 
L 10.6875 0 
z
" id="DejaVuSans-46"/>
       <path d="M 31.78125 66.40625 
Q 24.171875 66.40625 20.328125 58.90625 
Q 16.5 51.421875 16.5 36.375 
Q 16.5 21.390625 20.328125 13.890625 
Q 24.171875 6.390625 31.78125 6.390625 
Q 39.453125 6.390625 43.28125 13.890625 
Q 47.125 21.390625 47.125 36.375 
Q 47.125 51.421875 43.28125 58.90625 
Q 39.453125 66.40625 31.78125 66.40625 
z
M 31.78125 74.21875 
Q 44.046875 74.21875 50.515625 64.515625 
Q 56.984375 54.828125 56.984375 36.375 
Q 56.984375 17.96875 50.515625 8.265625 
Q 44.046875 -1.421875 31.78125 -1.421875 
Q 19.53125 -1.421875 13.0625 8.265625 
Q 6.59375 17.96875 6.59375 36.375 
Q 6.59375 54.828125 13.0625 64.515625 
Q 19.53125 74.21875 31.78125 74.21875 
z
" id="DejaVuSans-48"/>
      </defs>
      <g transform="translate(36 542.877813)scale(0.14 -0.14)">
       <use xlink:href="#DejaVuSans-53"/>
       <use x="63.623047" xlink:href="#DejaVuSans-46"/>
       <use x="95.410156" xlink:href="#DejaVuSans-48"/>
      </g>
     </g>
    </g>
    <g id="xtick_2">
     <g id="line2d_4">
      <g>
       <use style="stroke:#000000;stroke-width:0.8;" x="114.82007" xlink:href="#md45771c56a" y="525.24"/>
      </g>
     </g>
     <g id="text_4">
      <!-- 5.5 -->
      <g transform="translate(103.687883 542.877813)scale(0.14 -0.14)">
       <use xlink:href="#DejaVuSans-53"/>
       <use x="63.623047" xlink:href="#DejaVuSans-46"/>
       <use x="95.410156" xlink:href="#DejaVuSans-53"/>
      </g>
     </g>
    </g>
    <g id="xtick_3">
     <g id="line2d_5">
      <g>
       <use style="stroke:#000000;stroke-width:0.8;" x="182.507953" xlink:href="#md45771c56a" y="525.24"/>
      </g>
     </g>
     <g id="text_5">
      <!-- 6.0 -->
      <defs>
       <path d="M 33.015625 40.375 
Q 26.375 40.375 22.484375 35.828125 
Q 18.609375 31.296875 18.609375 23.390625 
Q 18.609375 15.53125 22.484375 10.953125 
Q 26.375 6.390625 33.015625 6.390625 
Q 39.65625 6.390625 43.53125 10.953125 
Q 47.40625 15.53125 47.40625 23.390625 
Q 47.40625 31.296875 43.53125 35.828125 
Q 39.65625 40.375 33.015625 40.375 
z
M 52.59375 71.296875 
L 52.59375 62.3125 
Q 48.875 64.0625 45.09375 64.984375 
Q 41.3125 65.921875 37.59375 65.921875 
Q 27.828125 65.921875 22.671875 59.328125 
Q 17.53125 52.734375 16.796875 39.40625 
Q 19.671875 43.65625 24.015625 45.921875 
Q 28.375 48.1875 33.59375 48.1875 
Q 44.578125 48.1875 50.953125 41.515625 
Q 57.328125 34.859375 57.328125 23.390625 
Q 57.328125 12.15625 50.6875 5.359375 
Q 44.046875 -1.421875 33.015625 -1.421875 
Q 20.359375 -1.421875 13.671875 8.265625 
Q 6.984375 17.96875 6.984375 36.375 
Q 6.984375 53.65625 15.1875 63.9375 
Q 23.390625 74.21875 37.203125 74.21875 
Q 40.921875 74.21875 44.703125 73.484375 
Q 48.484375 72.75 52.59375 71.296875 
z
" id="DejaVuSans-54"/>
      </defs>
      <g transform="translate(171.375766 542.877813)scale(0.14 -0.14)">
       <use xlink:href="#DejaVuSans-54"/>
       <use x="63.623047" xlink:href="#DejaVuSans-46"/>
       <use x="95.410156" xlink:href="#DejaVuSans-48"/>
      </g>
     </g>
    </g>
    <g id="xtick_4">
     <g id="line2d_6">
      <g>
       <use style="stroke:#000000;stroke-width:0.8;" x="250.195836" xlink:href="#md45771c56a" y="525.24"/>
      </g>
     </g>
     <g id="text_6">
      <!-- 6.5 -->
      <g transform="translate(239.063649 542.877813)scale(0.14 -0.14)">
       <use xlink:href="#DejaVuSans-54"/>
       <use x="63.623047" xlink:href="#DejaVuSans-46"/>
       <use x="95.410156" xlink:href="#DejaVuSans-53"/>
      </g>
     </g>
    </g>
    <g id="xtick_5">
     <g id="line2d_7">
      <g>
       <use style="stroke:#000000;stroke-width:0.8;" x="317.883719" xlink:href="#md45771c56a" y="525.24"/>
      </g>
     </g>
     <g id="text_7">
      <!-- 7.0 -->
      <defs>
       <path d="M 8.203125 72.90625 
L 55.078125 72.90625 
L 55.078125 68.703125 
L 28.609375 0 
L 18.3125 0 
L 43.21875 64.59375 
L 8.203125 64.59375 
z
" id="DejaVuSans-55"/>
      </defs>
      <g transform="translate(306.751531 542.877813)scale(0.14 -0.14)">
       <use xlink:href="#DejaVuSans-55"/>
       <use x="63.623047" xlink:href="#DejaVuSans-46"/>
       <use x="95.410156" xlink:href="#DejaVuSans-48"/>
      </g>
     </g>
    </g>
    <g id="xtick_6">
     <g id="line2d_8">
      <g>
       <use style="stroke:#000000;stroke-width:0.8;" x="385.571602" xlink:href="#md45771c56a" y="525.24"/>
      </g>
     </g>
     <g id="text_8">
      <!-- 7.5 -->
      <g transform="translate(374.439414 542.877813)scale(0.14 -0.14)">
       <use xlink:href="#DejaVuSans-55"/>
       <use x="63.623047" xlink:href="#DejaVuSans-46"/>
       <use x="95.410156" xlink:href="#DejaVuSans-53"/>
      </g>
     </g>
    </g>
    <g id="xtick_7">
     <g id="line2d_9">
      <g>
       <use style="stroke:#000000;stroke-width:0.8;" x="453.259485" xlink:href="#md45771c56a" y="525.24"/>
      </g>
     </g>
     <g id="text_9">
      <!-- 8.0 -->
      <defs>
       <path d="M 31.78125 34.625 
Q 24.75 34.625 20.71875 30.859375 
Q 16.703125 27.09375 16.703125 20.515625 
Q 16.703125 13.921875 20.71875 10.15625 
Q 24.75 6.390625 31.78125 6.390625 
Q 38.8125 6.390625 42.859375 10.171875 
Q 46.921875 13.96875 46.921875 20.515625 
Q 46.921875 27.09375 42.890625 30.859375 
Q 38.875 34.625 31.78125 34.625 
z
M 21.921875 38.8125 
Q 15.578125 40.375 12.03125 44.71875 
Q 8.5 49.078125 8.5 55.328125 
Q 8.5 64.0625 14.71875 69.140625 
Q 20.953125 74.21875 31.78125 74.21875 
Q 42.671875 74.21875 48.875 69.140625 
Q 55.078125 64.0625 55.078125 55.328125 
Q 55.078125 49.078125 51.53125 44.71875 
Q 48 40.375 41.703125 38.8125 
Q 48.828125 37.15625 52.796875 32.3125 
Q 56.78125 27.484375 56.78125 20.515625 
Q 56.78125 9.90625 50.3125 4.234375 
Q 43.84375 -1.421875 31.78125 -1.421875 
Q 19.734375 -1.421875 13.25 4.234375 
Q 6.78125 9.90625 6.78125 20.515625 
Q 6.78125 27.484375 10.78125 32.3125 
Q 14.796875 37.15625 21.921875 38.8125 
z
M 18.3125 54.390625 
Q 18.3125 48.734375 21.84375 45.5625 
Q 25.390625 42.390625 31.78125 42.390625 
Q 38.140625 42.390625 41.71875 45.5625 
Q 45.3125 48.734375 45.3125 54.390625 
Q 45.3125 60.0625 41.71875 63.234375 
Q 38.140625 66.40625 31.78125 66.40625 
Q 25.390625 66.40625 21.84375 63.234375 
Q 18.3125 60.0625 18.3125 54.390625 
z
" id="DejaVuSans-56"/>
      </defs>
      <g transform="translate(442.127297 542.877813)scale(0.14 -0.14)">
       <use xlink:href="#DejaVuSans-56"/>
       <use x="63.623047" xlink:href="#DejaVuSans-46"/>
       <use x="95.410156" xlink:href="#DejaVuSans-48"/>
      </g>
     </g>
    </g>
    <g id="xtick_8">
     <g id="line2d_10">
      <g>
       <use style="stroke:#000000;stroke-width:0.8;" x="520.947367" xlink:href="#md45771c56a" y="525.24"/>
      </g>
     </g>
     <g id="text_10">
      <!-- 8.5 -->
      <g transform="translate(509.81518 542.877813)scale(0.14 -0.14)">
       <use xlink:href="#DejaVuSans-56"/>
       <use x="63.623047" xlink:href="#DejaVuSans-46"/>
       <use x="95.410156" xlink:href="#DejaVuSans-53"/>
      </g>
     </g>
    </g>
   </g>
   <g id="line2d_11">
    <path clip-path="url(#p230d91c4e8)" d="M 232.285622 525.24 
L 232.285622 402.93 
" style="fill:none;stroke:#ff6384;stroke-dasharray:5.55,2.4;stroke-dashoffset:0;stroke-opacity:0.8;stroke-width:1.5;"/>
   </g>
   <g id="line2d_12">
    <path clip-path="url(#p230d91c4e8)" d="M 305.848813 525.24 
L 305.848813 402.93 
" style="fill:none;stroke:#36a2eb;stroke-dasharray:5.55,2.4;stroke-dashoffset:0;stroke-opacity:0.8;stroke-width:1.5;"/>
   </g>
   <g id="patch_10">
    <path d="M 38.562865 525.24 
L 540.762865 525.24 
" style="fill:none;stroke:#000000;stroke-linecap:square;stroke-linejoin:miter;stroke-width:0.8;"/>
   </g>
  </g>
 </g>
 <defs>
  <clipPath id="pfd13ebece0">
   <rect height="366.93" width="502.2" x="38.562865" y="36"/>
  </clipPath>
  <clipPath id="p230d91c4e8">
   <rect height="122.31" width="502.2" x="38.562865" y="402.93"/>
  </clipPath>
 </defs>
</svg>
