<?xml version="1.0" encoding="utf-8" standalone="no"?>
<!DOCTYPE svg PUBLIC "-//W3C//DTD SVG 1.1//EN"
  "http://www.w3.org/Graphics/SVG/1.1/DTD/svg11.dtd">
<!-- Created with matplotlib (https://matplotlib.org/) -->
<svg height="581.789375pt" version="1.1" viewBox="0 0 574.2 581.789375" width="574.2pt" xmlns="http://www.w3.org/2000/svg" xmlns:xlink="http://www.w3.org/1999/xlink">
 <defs>
  <style type="text/css">
*{stroke-linecap:butt;stroke-linejoin:round;}
  </style>
 </defs>
 <g id="figure_1">
  <g id="patch_1">
   <path d="M 0 581.789375 
L 574.2 581.789375 
L 574.2 0 
L 0 0 
z
" style="fill:none;"/>
  </g>
  <g id="axes_1">
   <g id="patch_2">
    <path d="M 36 402.93 
L 538.2 402.93 
L 538.2 36 
L 36 36 
z
" style="fill:none;"/>
   </g>
   <g id="PolyCollection_1">
    <defs>
     <path d="M 58.827273 -195.538011 
L 58.827273 -195.650004 
L 62.043431 -195.692234 
L 65.25959 -195.749007 
L 68.475749 -195.8248 
L 71.691908 -195.925281 
L 74.908066 -196.057565 
L 78.124225 -196.230497 
L 81.340384 -196.454982 
L 84.556542 -196.744335 
L 87.772701 -197.114666 
L 90.98886 -197.585273 
L 94.205019 -198.179047 
L 97.421177 -198.922859 
L 100.637336 -199.847921 
L 103.853495 -200.990079 
L 107.069653 -202.390029 
L 110.285812 -204.093399 
L 113.501971 -206.150691 
L 116.71813 -208.617009 
L 119.934288 -211.551575 
L 123.150447 -215.016962 
L 126.366606 -219.078053 
L 129.582764 -223.800667 
L 132.798923 -229.249878 
L 136.015082 -235.488004 
L 139.231241 -242.572312 
L 142.447399 -250.552459 
L 145.663558 -259.467747 
L 148.879717 -269.344261 
L 152.095875 -280.192004 
L 155.312034 -292.002137 
L 158.528193 -304.744465 
L 161.744351 -318.365297 
L 164.96051 -332.785841 
L 168.176669 -347.901251 
L 171.392828 -363.580456 
L 174.608986 -379.666871 
L 177.825145 -395.980052 
L 181.041304 -412.31833 
L 184.257462 -428.4624 
L 187.473621 -444.179822 
L 190.68978 -459.230303 
L 193.905939 -473.371627 
L 197.122097 -486.366018 
L 200.338256 -497.986726 
L 203.554415 -508.02457 
L 206.770573 -516.294181 
L 209.986732 -522.639693 
L 213.202891 -526.939623 
L 216.41905 -529.110739 
L 219.635208 -529.110739 
L 222.851367 -526.939623 
L 226.067526 -522.639693 
L 229.283684 -516.294181 
L 232.499843 -508.02457 
L 235.716002 -497.986726 
L 238.932161 -486.366018 
L 242.148319 -473.371627 
L 245.364478 -459.230303 
L 248.580637 -444.179822 
L 251.796795 -428.4624 
L 255.012954 -412.31833 
L 258.229113 -395.980052 
L 261.445272 -379.666871 
L 264.66143 -363.580456 
L 267.877589 -347.901251 
L 271.093748 -332.785841 
L 274.309906 -318.365297 
L 277.526065 -304.744465 
L 280.742224 -292.002137 
L 283.958383 -280.192004 
L 287.174541 -269.344261 
L 290.3907 -259.467747 
L 293.606859 -250.552459 
L 296.823017 -242.572312 
L 300.039176 -235.488004 
L 303.255335 -229.249878 
L 306.471494 -223.800667 
L 309.687652 -219.078053 
L 312.903811 -215.016962 
L 316.11997 -211.551575 
L 319.336128 -208.617009 
L 322.552287 -206.150691 
L 325.768446 -204.093399 
L 328.984605 -202.390029 
L 332.200763 -200.990079 
L 335.416922 -199.847921 
L 338.633081 -198.922859 
L 341.849239 -198.179047 
L 345.065398 -197.585273 
L 348.281557 -197.114666 
L 351.497715 -196.744335 
L 354.713874 -196.454982 
L 357.930033 -196.230497 
L 361.146192 -196.057565 
L 364.36235 -195.925281 
L 367.578509 -195.8248 
L 370.794668 -195.749007 
L 374.010826 -195.692234 
L 377.226985 -195.650004 
L 377.226985 -195.538011 
L 377.226985 -195.538011 
L 374.010826 -195.538011 
L 370.794668 -195.538011 
L 367.578509 -195.538011 
L 364.36235 -195.538011 
L 361.146192 -195.538011 
L 357.930033 -195.538011 
L 354.713874 -195.538011 
L 351.497715 -195.538011 
L 348.281557 -195.538011 
L 345.065398 -195.538011 
L 341.849239 -195.538011 
L 338.633081 -195.538011 
L 335.416922 -195.538011 
L 332.200763 -195.538011 
L 328.984605 -195.538011 
L 325.768446 -195.538011 
L 322.552287 -195.538011 
L 319.336128 -195.538011 
L 316.11997 -195.538011 
L 312.903811 -195.538011 
L 309.687652 -195.538011 
L 306.471494 -195.538011 
L 303.255335 -195.538011 
L 300.039176 -195.538011 
L 296.823017 -195.538011 
L 293.606859 -195.538011 
L 290.3907 -195.538011 
L 287.174541 -195.538011 
L 283.958383 -195.538011 
L 280.742224 -195.538011 
L 277.526065 -195.538011 
L 274.309906 -195.538011 
L 271.093748 -195.538011 
L 267.877589 -195.538011 
L 264.66143 -195.538011 
L 261.445272 -195.538011 
L 258.229113 -195.538011 
L 255.012954 -195.538011 
L 251.796795 -195.538011 
L 248.580637 -195.538011 
L 245.364478 -195.538011 
L 242.148319 -195.538011 
L 238.932161 -195.538011 
L 235.716002 -195.538011 
L 232.499843 -195.538011 
L 229.283684 -195.538011 
L 226.067526 -195.538011 
L 222.851367 -195.538011 
L 219.635208 -195.538011 
L 216.41905 -195.538011 
L 213.202891 -195.538011 
L 209.986732 -195.538011 
L 206.770573 -195.538011 
L 203.554415 -195.538011 
L 200.338256 -195.538011 
L 197.122097 -195.538011 
L 193.905939 -195.538011 
L 190.68978 -195.538011 
L 187.473621 -195.538011 
L 184.257462 -195.538011 
L 181.041304 -195.538011 
L 177.825145 -195.538011 
L 174.608986 -195.538011 
L 171.392828 -195.538011 
L 168.176669 -195.538011 
L 164.96051 -195.538011 
L 161.744351 -195.538011 
L 158.528193 -195.538011 
L 155.312034 -195.538011 
L 152.095875 -195.538011 
L 148.879717 -195.538011 
L 145.663558 -195.538011 
L 142.447399 -195.538011 
L 139.231241 -195.538011 
L 136.015082 -195.538011 
L 132.798923 -195.538011 
L 129.582764 -195.538011 
L 126.366606 -195.538011 
L 123.150447 -195.538011 
L 119.934288 -195.538011 
L 116.71813 -195.538011 
L 113.501971 -195.538011 
L 110.285812 -195.538011 
L 107.069653 -195.538011 
L 103.853495 -195.538011 
L 100.637336 -195.538011 
L 97.421177 -195.538011 
L 94.205019 -195.538011 
L 90.98886 -195.538011 
L 87.772701 -195.538011 
L 84.556542 -195.538011 
L 81.340384 -195.538011 
L 78.124225 -195.538011 
L 74.908066 -195.538011 
L 71.691908 -195.538011 
L 68.475749 -195.538011 
L 65.25959 -195.538011 
L 62.043431 -195.538011 
L 58.827273 -195.538011 
z
" id="mba9810913a" style="stroke:#ff6384;stroke-opacity:0.5;"/>
    </defs>
    <g clip-path="url(#p3f2de3eb33)">
     <use style="fill:#ff6384;fill-opacity:0.5;stroke:#ff6384;stroke-opacity:0.5;" x="0" xlink:href="#mba9810913a" y="581.789375"/>
    </g>
   </g>
   <g id="PolyCollection_2">
    <defs>
     <path d="M 132.640572 -195.538011 
L 132.640572 -195.631179 
L 136.506554 -195.666311 
L 140.372535 -195.713541 
L 144.238516 -195.776594 
L 148.104498 -195.860186 
L 151.970479 -195.970234 
L 155.83646 -196.114099 
L 159.702442 -196.30085 
L 163.568423 -196.541567 
L 167.434404 -196.84965 
L 171.300386 -197.241154 
L 175.166367 -197.735122 
L 179.032349 -198.353909 
L 182.89833 -199.12348 
L 186.764311 -200.073656 
L 190.630293 -201.238291 
L 194.496274 -202.655347 
L 198.362255 -204.366833 
L 202.228237 -206.418595 
L 206.094218 -208.859897 
L 209.960199 -211.742797 
L 213.826181 -215.121269 
L 217.692162 -219.050072 
L 221.558144 -223.583339 
L 225.424125 -228.772915 
L 229.290106 -234.66644 
L 233.156088 -241.305225 
L 237.022069 -248.721965 
L 240.88805 -256.938362 
L 244.754032 -265.962736 
L 248.620013 -275.787736 
L 252.485994 -286.388239 
L 256.351976 -297.719581 
L 260.217957 -309.716214 
L 264.083939 -322.290914 
L 267.94992 -335.334643 
L 271.815901 -348.717134 
L 275.681883 -362.288276 
L 279.547864 -375.880295 
L 283.413845 -389.310751 
L 287.279827 -402.386273 
L 291.145808 -414.906958 
L 295.011789 -426.671304 
L 298.877771 -437.481502 
L 302.743752 -447.148916 
L 306.609734 -455.499525 
L 310.475715 -462.379119 
L 314.341696 -467.658031 
L 318.207678 -471.235197 
L 322.073659 -473.041375 
L 325.93964 -473.041375 
L 329.805622 -471.235197 
L 333.671603 -467.658031 
L 337.537584 -462.379119 
L 341.403566 -455.499525 
L 345.269547 -447.148916 
L 349.135529 -437.481502 
L 353.00151 -426.671304 
L 356.867491 -414.906958 
L 360.733473 -402.386273 
L 364.599454 -389.310751 
L 368.465435 -375.880295 
L 372.331417 -362.288276 
L 376.197398 -348.717134 
L 380.063379 -335.334643 
L 383.929361 -322.290914 
L 387.795342 -309.716214 
L 391.661324 -297.719581 
L 395.527305 -286.388239 
L 399.393286 -275.787736 
L 403.259268 -265.962736 
L 407.125249 -256.938362 
L 410.99123 -248.721965 
L 414.857212 -241.305225 
L 418.723193 -234.66644 
L 422.589175 -228.772915 
L 426.455156 -223.583339 
L 430.321137 -219.050072 
L 434.187119 -215.121269 
L 438.0531 -211.742797 
L 441.919081 -208.859897 
L 445.785063 -206.418595 
L 449.651044 -204.366833 
L 453.517025 -202.655347 
L 457.383007 -201.238291 
L 461.248988 -200.073656 
L 465.11497 -199.12348 
L 468.980951 -198.353909 
L 472.846932 -197.735122 
L 476.712914 -197.241154 
L 480.578895 -196.84965 
L 484.444876 -196.541567 
L 488.310858 -196.30085 
L 492.176839 -196.114099 
L 496.04282 -195.970234 
L 499.908802 -195.860186 
L 503.774783 -195.776594 
L 507.640765 -195.713541 
L 511.506746 -195.666311 
L 515.372727 -195.631179 
L 515.372727 -195.538011 
L 515.372727 -195.538011 
L 511.506746 -195.538011 
L 507.640765 -195.538011 
L 503.774783 -195.538011 
L 499.908802 -195.538011 
L 496.04282 -195.538011 
L 492.176839 -195.538011 
L 488.310858 -195.538011 
L 484.444876 -195.538011 
L 480.578895 -195.538011 
L 476.712914 -195.538011 
L 472.846932 -195.538011 
L 468.980951 -195.538011 
L 465.11497 -195.538011 
L 461.248988 -195.538011 
L 457.383007 -195.538011 
L 453.517025 -195.538011 
L 449.651044 -195.538011 
L 445.785063 -195.538011 
L 441.919081 -195.538011 
L 438.0531 -195.538011 
L 434.187119 -195.538011 
L 430.321137 -195.538011 
L 426.455156 -195.538011 
L 422.589175 -195.538011 
L 418.723193 -195.538011 
L 414.857212 -195.538011 
L 410.99123 -195.538011 
L 407.125249 -195.538011 
L 403.259268 -195.538011 
L 399.393286 -195.538011 
L 395.527305 -195.538011 
L 391.661324 -195.538011 
L 387.795342 -195.538011 
L 383.929361 -195.538011 
L 380.063379 -195.538011 
L 376.197398 -195.538011 
L 372.331417 -195.538011 
L 368.465435 -195.538011 
L 364.599454 -195.538011 
L 360.733473 -195.538011 
L 356.867491 -195.538011 
L 353.00151 -195.538011 
L 349.135529 -195.538011 
L 345.269547 -195.538011 
L 341.403566 -195.538011 
L 337.537584 -195.538011 
L 333.671603 -195.538011 
L 329.805622 -195.538011 
L 325.93964 -195.538011 
L 322.073659 -195.538011 
L 318.207678 -195.538011 
L 314.341696 -195.538011 
L 310.475715 -195.538011 
L 306.609734 -195.538011 
L 302.743752 -195.538011 
L 298.877771 -195.538011 
L 295.011789 -195.538011 
L 291.145808 -195.538011 
L 287.279827 -195.538011 
L 283.413845 -195.538011 
L 279.547864 -195.538011 
L 275.681883 -195.538011 
L 271.815901 -195.538011 
L 267.94992 -195.538011 
L 264.083939 -195.538011 
L 260.217957 -195.538011 
L 256.351976 -195.538011 
L 252.485994 -195.538011 
L 248.620013 -195.538011 
L 244.754032 -195.538011 
L 240.88805 -195.538011 
L 237.022069 -195.538011 
L 233.156088 -195.538011 
L 229.290106 -195.538011 
L 225.424125 -195.538011 
L 221.558144 -195.538011 
L 217.692162 -195.538011 
L 213.826181 -195.538011 
L 209.960199 -195.538011 
L 206.094218 -195.538011 
L 202.228237 -195.538011 
L 198.362255 -195.538011 
L 194.496274 -195.538011 
L 190.630293 -195.538011 
L 186.764311 -195.538011 
L 182.89833 -195.538011 
L 179.032349 -195.538011 
L 175.166367 -195.538011 
L 171.300386 -195.538011 
L 167.434404 -195.538011 
L 163.568423 -195.538011 
L 159.702442 -195.538011 
L 155.83646 -195.538011 
L 151.970479 -195.538011 
L 148.104498 -195.538011 
L 144.238516 -195.538011 
L 140.372535 -195.538011 
L 136.506554 -195.538011 
L 132.640572 -195.538011 
z
" id="m134ebfe574" style="stroke:#36a2eb;stroke-opacity:0.5;"/>
    </defs>
    <g clip-path="url(#p3f2de3eb33)">
     <use style="fill:#36a2eb;fill-opacity:0.5;stroke:#36a2eb;stroke-opacity:0.5;" x="0" xlink:href="#m134ebfe574" y="581.789375"/>
    </g>
   </g>
   <g id="line2d_1">
    <path clip-path="url(#p3f2de3eb33)" d="M 58.827273 386.139371 
L 62.043431 386.097141 
L 65.25959 386.040368 
L 68.475749 385.964575 
L 71.691908 385.864094 
L 74.908066 385.73181 
L 78.124225 385.558878 
L 81.340384 385.334393 
L 84.556542 385.04504 
L 87.772701 384.674709 
L 90.98886 384.204102 
L 94.205019 383.610328 
L 97.421177 382.866516 
L 100.637336 381.941454 
L 103.853495 380.799296 
L 107.069653 379.399346 
L 110.285812 377.695976 
L 113.501971 375.638684 
L 116.71813 373.172366 
L 119.934288 370.2378 
L 123.150447 366.772413 
L 126.366606 362.711322 
L 129.582764 357.988708 
L 132.798923 352.539497 
L 136.015082 346.301371 
L 139.231241 339.217063 
L 142.447399 331.236916 
L 145.663558 322.321628 
L 148.879717 312.445114 
L 152.095875 301.597371 
L 155.312034 289.787238 
L 158.528193 277.04491 
L 161.744351 263.424078 
L 164.96051 249.003534 
L 168.176669 233.888124 
L 171.392828 218.208919 
L 174.608986 202.122504 
L 177.825145 185.809323 
L 181.041304 169.471045 
L 184.257462 153.326975 
L 187.473621 137.609553 
L 190.68978 122.559072 
L 193.905939 108.417748 
L 197.122097 95.423357 
L 200.338256 83.802649 
L 203.554415 73.764805 
L 206.770573 65.495194 
L 209.986732 59.149682 
L 213.202891 54.849752 
L 216.41905 52.678636 
L 219.635208 52.678636 
L 222.851367 54.849752 
L 226.067526 59.149682 
L 229.283684 65.495194 
L 232.499843 73.764805 
L 235.716002 83.802649 
L 238.932161 95.423357 
L 242.148319 108.417748 
L 245.364478 122.559072 
L 248.580637 137.609553 
L 251.796795 153.326975 
L 255.012954 169.471045 
L 258.229113 185.809323 
L 261.445272 202.122504 
L 264.66143 218.208919 
L 267.877589 233.888124 
L 271.093748 249.003534 
L 274.309906 263.424078 
L 277.526065 277.04491 
L 280.742224 289.787238 
L 283.958383 301.597371 
L 287.174541 312.445114 
L 290.3907 322.321628 
L 293.606859 331.236916 
L 296.823017 339.217063 
L 300.039176 346.301371 
L 303.255335 352.539497 
L 306.471494 357.988708 
L 309.687652 362.711322 
L 312.903811 366.772413 
L 316.11997 370.2378 
L 319.336128 373.172366 
L 322.552287 375.638684 
L 325.768446 377.695976 
L 328.984605 379.399346 
L 332.200763 380.799296 
L 335.416922 381.941454 
L 338.633081 382.866516 
L 341.849239 383.610328 
L 345.065398 384.204102 
L 348.281557 384.674709 
L 351.497715 385.04504 
L 354.713874 385.334393 
L 357.930033 385.558878 
L 361.146192 385.73181 
L 364.36235 385.864094 
L 367.578509 385.964575 
L 370.794668 386.040368 
L 374.010826 386.097141 
L 377.226985 386.139371 
" style="fill:none;stroke:#ff6384;stroke-linecap:square;"/>
   </g>
   <g id="line2d_2">
    <path clip-path="url(#p3f2de3eb33)" d="M 132.640572 386.158196 
L 136.506554 386.123064 
L 140.372535 386.075834 
L 144.238516 386.012781 
L 148.104498 385.929189 
L 151.970479 385.819141 
L 155.83646 385.675276 
L 159.702442 385.488525 
L 163.568423 385.247808 
L 167.434404 384.939725 
L 171.300386 384.548221 
L 175.166367 384.054253 
L 179.032349 383.435466 
L 182.89833 382.665895 
L 186.764311 381.715719 
L 190.630293 380.551084 
L 194.496274 379.134028 
L 198.362255 377.422542 
L 202.228237 375.37078 
L 206.094218 372.929478 
L 209.960199 370.046578 
L 213.826181 366.668106 
L 217.692162 362.739303 
L 221.558144 358.206036 
L 225.424125 353.01646 
L 229.290106 347.122935 
L 233.156088 340.48415 
L 237.022069 333.06741 
L 240.88805 324.851013 
L 244.754032 315.826639 
L 248.620013 306.001639 
L 252.485994 295.401136 
L 256.351976 284.069794 
L 260.217957 272.073161 
L 264.083939 259.498461 
L 267.94992 246.454732 
L 271.815901 233.072241 
L 275.681883 219.501099 
L 279.547864 205.90908 
L 283.413845 192.478624 
L 287.279827 179.403102 
L 291.145808 166.882417 
L 295.011789 155.118071 
L 298.877771 144.307873 
L 302.743752 134.640459 
L 306.609734 126.28985 
L 310.475715 119.410256 
L 314.341696 114.131344 
L 318.207678 110.554178 
L 322.073659 108.748 
L 325.93964 108.748 
L 329.805622 110.554178 
L 333.671603 114.131344 
L 337.537584 119.410256 
L 341.403566 126.28985 
L 345.269547 134.640459 
L 349.135529 144.307873 
L 353.00151 155.118071 
L 356.867491 166.882417 
L 360.733473 179.403102 
L 364.599454 192.478624 
L 368.465435 205.90908 
L 372.331417 219.501099 
L 376.197398 233.072241 
L 380.063379 246.454732 
L 383.929361 259.498461 
L 387.795342 272.073161 
L 391.661324 284.069794 
L 395.527305 295.401136 
L 399.393286 306.001639 
L 403.259268 315.826639 
L 407.125249 324.851013 
L 410.99123 333.06741 
L 414.857212 340.48415 
L 418.723193 347.122935 
L 422.589175 353.01646 
L 426.455156 358.206036 
L 430.321137 362.739303 
L 434.187119 366.668106 
L 438.0531 370.046578 
L 441.919081 372.929478 
L 445.785063 375.37078 
L 449.651044 377.422542 
L 453.517025 379.134028 
L 457.383007 380.551084 
L 461.248988 381.715719 
L 465.11497 382.665895 
L 468.980951 383.435466 
L 472.846932 384.054253 
L 476.712914 384.548221 
L 480.578895 384.939725 
L 484.444876 385.247808 
L 488.310858 385.488525 
L 492.176839 385.675276 
L 496.04282 385.819141 
L 499.908802 385.929189 
L 503.774783 386.012781 
L 507.640765 386.075834 
L 511.506746 386.123064 
L 515.372727 386.158196 
" style="fill:none;stroke:#36a2eb;stroke-linecap:square;"/>
   </g>
   <g id="patch_3">
    <path d="M 36 402.93 
L 538.2 402.93 
" style="fill:none;stroke:#000000;stroke-linecap:square;stroke-linejoin:miter;stroke-width:0.8;"/>
   </g>
   <g id="legend_1">
    <g id="patch_4">
     <path d="M 419.578438 88.29875 
L 528.4 88.29875 
Q 531.2 88.29875 531.2 85.49875 
L 531.2 45.8 
Q 531.2 43 528.4 43 
L 419.578438 43 
Q 416.778438 43 416.778438 45.8 
L 416.778438 85.49875 
Q 416.778438 88.29875 419.578438 88.29875 
z
" style="fill:#ffffff;opacity:0.8;stroke:#cccccc;stroke-linejoin:miter;"/>
    </g>
    <g id="patch_5">
     <path d="M 422.378438 59.237813 
L 450.378438 59.237813 
L 450.378438 49.437813 
L 422.378438 49.437813 
z
" style="fill:#ff6384;opacity:0.5;stroke:#ff6384;stroke-linejoin:miter;"/>
    </g>
    <g id="text_1">
     <!-- base -->
     <defs>
      <path d="M 48.6875 27.296875 
Q 48.6875 37.203125 44.609375 42.84375 
Q 40.53125 48.484375 33.40625 48.484375 
Q 26.265625 48.484375 22.1875 42.84375 
Q 18.109375 37.203125 18.109375 27.296875 
Q 18.109375 17.390625 22.1875 11.75 
Q 26.265625 6.109375 33.40625 6.109375 
Q 40.53125 6.109375 44.609375 11.75 
Q 48.6875 17.390625 48.6875 27.296875 
z
M 18.109375 46.390625 
Q 20.953125 51.265625 25.265625 53.625 
Q 29.59375 56 35.59375 56 
Q 45.5625 56 51.78125 48.09375 
Q 58.015625 40.1875 58.015625 27.296875 
Q 58.015625 14.40625 51.78125 6.484375 
Q 45.5625 -1.421875 35.59375 -1.421875 
Q 29.59375 -1.421875 25.265625 0.953125 
Q 20.953125 3.328125 18.109375 8.203125 
L 18.109375 0 
L 9.078125 0 
L 9.078125 75.984375 
L 18.109375 75.984375 
z
" id="DejaVuSans-98"/>
      <path d="M 34.28125 27.484375 
Q 23.390625 27.484375 19.1875 25 
Q 14.984375 22.515625 14.984375 16.5 
Q 14.984375 11.71875 18.140625 8.90625 
Q 21.296875 6.109375 26.703125 6.109375 
Q 34.1875 6.109375 38.703125 11.40625 
Q 43.21875 16.703125 43.21875 25.484375 
L 43.21875 27.484375 
z
M 52.203125 31.203125 
L 52.203125 0 
L 43.21875 0 
L 43.21875 8.296875 
Q 40.140625 3.328125 35.546875 0.953125 
Q 30.953125 -1.421875 24.3125 -1.421875 
Q 15.921875 -1.421875 10.953125 3.296875 
Q 6 8.015625 6 15.921875 
Q 6 25.140625 12.171875 29.828125 
Q 18.359375 34.515625 30.609375 34.515625 
L 43.21875 34.515625 
L 43.21875 35.40625 
Q 43.21875 41.609375 39.140625 45 
Q 35.0625 48.390625 27.6875 48.390625 
Q 23 48.390625 18.546875 47.265625 
Q 14.109375 46.140625 10.015625 43.890625 
L 10.015625 52.203125 
Q 14.9375 54.109375 19.578125 55.046875 
Q 24.21875 56 28.609375 56 
Q 40.484375 56 46.34375 49.84375 
Q 52.203125 43.703125 52.203125 31.203125 
z
" id="DejaVuSans-97"/>
      <path d="M 44.28125 53.078125 
L 44.28125 44.578125 
Q 40.484375 46.53125 36.375 47.5 
Q 32.28125 48.484375 27.875 48.484375 
Q 21.1875 48.484375 17.84375 46.4375 
Q 14.5 44.390625 14.5 40.28125 
Q 14.5 37.15625 16.890625 35.375 
Q 19.28125 33.59375 26.515625 31.984375 
L 29.59375 31.296875 
Q 39.15625 29.25 43.1875 25.515625 
Q 47.21875 21.78125 47.21875 15.09375 
Q 47.21875 7.46875 41.1875 3.015625 
Q 35.15625 -1.421875 24.609375 -1.421875 
Q 20.21875 -1.421875 15.453125 -0.5625 
Q 10.6875 0.296875 5.421875 2 
L 5.421875 11.28125 
Q 10.40625 8.6875 15.234375 7.390625 
Q 20.0625 6.109375 24.8125 6.109375 
Q 31.15625 6.109375 34.5625 8.28125 
Q 37.984375 10.453125 37.984375 14.40625 
Q 37.984375 18.0625 35.515625 20.015625 
Q 33.0625 21.96875 24.703125 23.78125 
L 21.578125 24.515625 
Q 13.234375 26.265625 9.515625 29.90625 
Q 5.8125 33.546875 5.8125 39.890625 
Q 5.8125 47.609375 11.28125 51.796875 
Q 16.75 56 26.8125 56 
Q 31.78125 56 36.171875 55.265625 
Q 40.578125 54.546875 44.28125 53.078125 
z
" id="DejaVuSans-115"/>
      <path d="M 56.203125 29.59375 
L 56.203125 25.203125 
L 14.890625 25.203125 
Q 15.484375 15.921875 20.484375 11.0625 
Q 25.484375 6.203125 34.421875 6.203125 
Q 39.59375 6.203125 44.453125 7.46875 
Q 49.3125 8.734375 54.109375 11.28125 
L 54.109375 2.78125 
Q 49.265625 0.734375 44.1875 -0.34375 
Q 39.109375 -1.421875 33.890625 -1.421875 
Q 20.796875 -1.421875 13.15625 6.1875 
Q 5.515625 13.8125 5.515625 26.8125 
Q 5.515625 40.234375 12.765625 48.109375 
Q 20.015625 56 32.328125 56 
Q 43.359375 56 49.78125 48.890625 
Q 56.203125 41.796875 56.203125 29.59375 
z
M 47.21875 32.234375 
Q 47.125 39.59375 43.09375 43.984375 
Q 39.0625 48.390625 32.421875 48.390625 
Q 24.90625 48.390625 20.390625 44.140625 
Q 15.875 39.890625 15.1875 32.171875 
z
" id="DejaVuSans-101"/>
     </defs>
     <g transform="translate(461.578438 59.237813)scale(0.14 -0.14)">
      <use xlink:href="#DejaVuSans-98"/>
      <use x="63.476562" xlink:href="#DejaVuSans-97"/>
      <use x="124.755859" xlink:href="#DejaVuSans-115"/>
      <use x="176.855469" xlink:href="#DejaVuSans-101"/>
     </g>
    </g>
    <g id="patch_6">
     <path d="M 422.378438 79.787188 
L 450.378438 79.787188 
L 450.378438 69.987188 
L 422.378438 69.987188 
z
" style="fill:#36a2eb;opacity:0.5;stroke:#36a2eb;stroke-linejoin:miter;"/>
    </g>
    <g id="text_2">
     <!-- reminder -->
     <defs>
      <path d="M 41.109375 46.296875 
Q 39.59375 47.171875 37.8125 47.578125 
Q 36.03125 48 33.890625 48 
Q 26.265625 48 22.1875 43.046875 
Q 18.109375 38.09375 18.109375 28.8125 
L 18.109375 0 
L 9.078125 0 
L 9.078125 54.6875 
L 18.109375 54.6875 
L 18.109375 46.1875 
Q 20.953125 51.171875 25.484375 53.578125 
Q 30.03125 56 36.53125 56 
Q 37.453125 56 38.578125 55.875 
Q 39.703125 55.765625 41.0625 55.515625 
z
" id="DejaVuSans-114"/>
      <path d="M 52 44.1875 
Q 55.375 50.25 60.0625 53.125 
Q 64.75 56 71.09375 56 
Q 79.640625 56 84.28125 50.015625 
Q 88.921875 44.046875 88.921875 33.015625 
L 88.921875 0 
L 79.890625 0 
L 79.890625 32.71875 
Q 79.890625 40.578125 77.09375 44.375 
Q 74.3125 48.1875 68.609375 48.1875 
Q 61.625 48.1875 57.5625 43.546875 
Q 53.515625 38.921875 53.515625 30.90625 
L 53.515625 0 
L 44.484375 0 
L 44.484375 32.71875 
Q 44.484375 40.625 41.703125 44.40625 
Q 38.921875 48.1875 33.109375 48.1875 
Q 26.21875 48.1875 22.15625 43.53125 
Q 18.109375 38.875 18.109375 30.90625 
L 18.109375 0 
L 9.078125 0 
L 9.078125 54.6875 
L 18.109375 54.6875 
L 18.109375 46.1875 
Q 21.1875 51.21875 25.484375 53.609375 
Q 29.78125 56 35.6875 56 
Q 41.65625 56 45.828125 52.96875 
Q 50 49.953125 52 44.1875 
z
" id="DejaVuSans-109"/>
      <path d="M 9.421875 54.6875 
L 18.40625 54.6875 
L 18.40625 0 
L 9.421875 0 
z
M 9.421875 75.984375 
L 18.40625 75.984375 
L 18.40625 64.59375 
L 9.421875 64.59375 
z
" id="DejaVuSans-105"/>
      <path d="M 54.890625 33.015625 
L 54.890625 0 
L 45.90625 0 
L 45.90625 32.71875 
Q 45.90625 40.484375 42.875 44.328125 
Q 39.84375 48.1875 33.796875 48.1875 
Q 26.515625 48.1875 22.3125 43.546875 
Q 18.109375 38.921875 18.109375 30.90625 
L 18.109375 0 
L 9.078125 0 
L 9.078125 54.6875 
L 18.109375 54.6875 
L 18.109375 46.1875 
Q 21.34375 51.125 25.703125 53.5625 
Q 30.078125 56 35.796875 56 
Q 45.21875 56 50.046875 50.171875 
Q 54.890625 44.34375 54.890625 33.015625 
z
" id="DejaVuSans-110"/>
      <path d="M 45.40625 46.390625 
L 45.40625 75.984375 
L 54.390625 75.984375 
L 54.390625 0 
L 45.40625 0 
L 45.40625 8.203125 
Q 42.578125 3.328125 38.25 0.953125 
Q 33.9375 -1.421875 27.875 -1.421875 
Q 17.96875 -1.421875 11.734375 6.484375 
Q 5.515625 14.40625 5.515625 27.296875 
Q 5.515625 40.1875 11.734375 48.09375 
Q 17.96875 56 27.875 56 
Q 33.9375 56 38.25 53.625 
Q 42.578125 51.265625 45.40625 46.390625 
z
M 14.796875 27.296875 
Q 14.796875 17.390625 18.875 11.75 
Q 22.953125 6.109375 30.078125 6.109375 
Q 37.203125 6.109375 41.296875 11.75 
Q 45.40625 17.390625 45.40625 27.296875 
Q 45.40625 37.203125 41.296875 42.84375 
Q 37.203125 48.484375 30.078125 48.484375 
Q 22.953125 48.484375 18.875 42.84375 
Q 14.796875 37.203125 14.796875 27.296875 
z
" id="DejaVuSans-100"/>
     </defs>
     <g transform="translate(461.578438 79.787188)scale(0.14 -0.14)">
      <use xlink:href="#DejaVuSans-114"/>
      <use x="41.082031" xlink:href="#DejaVuSans-101"/>
      <use x="102.605469" xlink:href="#DejaVuSans-109"/>
      <use x="200.017578" xlink:href="#DejaVuSans-105"/>
      <use x="227.800781" xlink:href="#DejaVuSans-110"/>
      <use x="291.179688" xlink:href="#DejaVuSans-100"/>
      <use x="354.65625" xlink:href="#DejaVuSans-101"/>
      <use x="416.179688" xlink:href="#DejaVuSans-114"/>
     </g>
    </g>
   </g>
  </g>
  <g id="axes_2">
   <g id="patch_7">
    <path d="M 36 525.24 
L 538.2 525.24 
L 538.2 402.93 
L 36 402.93 
z
" style="fill:none;"/>
   </g>
   <g id="patch_8">
    <path clip-path="url(#p9d8c61613e)" d="M 140.019199 519.680455 
L 296.035059 519.680455 
L 296.035059 482.616818 
L 140.019199 482.616818 
z
" style="fill:#ff6384;opacity:0.5;"/>
   </g>
   <g id="patch_9">
    <path clip-path="url(#p9d8c61613e)" d="M 230.237272 445.553182 
L 417.776028 445.553182 
L 417.776028 408.489545 
L 230.237272 408.489545 
z
" style="fill:#36a2eb;opacity:0.5;"/>
   </g>
   <g id="matplotlib.axis_1">
    <g id="xtick_1">
     <g id="line2d_3">
      <defs>
       <path d="M 0 0 
L 0 3.5 
" id="m2d37ebe212" style="stroke:#000000;stroke-width:0.8;"/>
      </defs>
      <g>
       <use style="stroke:#000000;stroke-width:0.8;" x="50.283626" xlink:href="#m2d37ebe212" y="525.24"/>
      </g>
     </g>
     <g id="text_3">
      <!-- 7.0 -->
      <defs>
       <path d="M 8.203125 72.90625 
L 55.078125 72.90625 
L 55.078125 68.703125 
L 28.609375 0 
L 18.3125 0 
L 43.21875 64.59375 
L 8.203125 64.59375 
z
" id="DejaVuSans-55"/>
       <path d="M 10.6875 12.40625 
L 21 12.40625 
L 21 0 
L 10.6875 0 
z
" id="DejaVuSans-46"/>
       <path d="M 31.78125 66.40625 
Q 24.171875 66.40625 20.328125 58.90625 
Q 16.5 51.421875 16.5 36.375 
Q 16.5 21.390625 20.328125 13.890625 
Q 24.171875 6.390625 31.78125 6.390625 
Q 39.453125 6.390625 43.28125 13.890625 
Q 47.125 21.390625 47.125 36.375 
Q 47.125 51.421875 43.28125 58.90625 
Q 39.453125 66.40625 31.78125 66.40625 
z
M 31.78125 74.21875 
Q 44.046875 74.21875 50.515625 64.515625 
Q 56.984375 54.828125 56.984375 36.375 
Q 56.984375 17.96875 50.515625 8.265625 
Q 44.046875 -1.421875 31.78125 -1.421875 
Q 19.53125 -1.421875 13.0625 8.265625 
Q 6.59375 17.96875 6.59375 36.375 
Q 6.59375 54.828125 13.0625 64.515625 
Q 19.53125 74.21875 31.78125 74.21875 
z
" id="DejaVuSans-48"/>
      </defs>
      <g transform="translate(39.151439 542.877813)scale(0.14 -0.14)">
       <use xlink:href="#DejaVuSans-55"/>
       <use x="63.623047" xlink:href="#DejaVuSans-46"/>
       <use x="95.410156" xlink:href="#DejaVuSans-48"/>
      </g>
     </g>
    </g>
    <g id="xtick_2">
     <g id="line2d_4">
      <g>
       <use style="stroke:#000000;stroke-width:0.8;" x="108.661681" xlink:href="#m2d37ebe212" y="525.24"/>
      </g>
     </g>
     <g id="text_4">
      <!-- 7.5 -->
      <defs>
       <path d="M 10.796875 72.90625 
L 49.515625 72.90625 
L 49.515625 64.59375 
L 19.828125 64.59375 
L 19.828125 46.734375 
Q 21.96875 47.46875 24.109375 47.828125 
Q 26.265625 48.1875 28.421875 48.1875 
Q 40.625 48.1875 47.75 41.5 
Q 54.890625 34.8125 54.890625 23.390625 
Q 54.890625 11.625 47.5625 5.09375 
Q 40.234375 -1.421875 26.90625 -1.421875 
Q 22.3125 -1.421875 17.546875 -0.640625 
Q 12.796875 0.140625 7.71875 1.703125 
L 7.71875 11.625 
Q 12.109375 9.234375 16.796875 8.0625 
Q 21.484375 6.890625 26.703125 6.890625 
Q 35.15625 6.890625 40.078125 11.328125 
Q 45.015625 15.765625 45.015625 23.390625 
Q 45.015625 31 40.078125 35.4375 
Q 35.15625 39.890625 26.703125 39.890625 
Q 22.75 39.890625 18.8125 39.015625 
Q 14.890625 38.140625 10.796875 36.28125 
z
" id="DejaVuSans-53"/>
      </defs>
      <g transform="translate(97.529494 542.877813)scale(0.14 -0.14)">
       <use xlink:href="#DejaVuSans-55"/>
       <use x="63.623047" xlink:href="#DejaVuSans-46"/>
       <use x="95.410156" xlink:href="#DejaVuSans-53"/>
      </g>
     </g>
    </g>
    <g id="xtick_3">
     <g id="line2d_5">
      <g>
       <use style="stroke:#000000;stroke-width:0.8;" x="167.039736" xlink:href="#m2d37ebe212" y="525.24"/>
      </g>
     </g>
     <g id="text_5">
      <!-- 8.0 -->
      <defs>
       <path d="M 31.78125 34.625 
Q 24.75 34.625 20.71875 30.859375 
Q 16.703125 27.09375 16.703125 20.515625 
Q 16.703125 13.921875 20.71875 10.15625 
Q 24.75 6.390625 31.78125 6.390625 
Q 38.8125 6.390625 42.859375 10.171875 
Q 46.921875 13.96875 46.921875 20.515625 
Q 46.921875 27.09375 42.890625 30.859375 
Q 38.875 34.625 31.78125 34.625 
z
M 21.921875 38.8125 
Q 15.578125 40.375 12.03125 44.71875 
Q 8.5 49.078125 8.5 55.328125 
Q 8.5 64.0625 14.71875 69.140625 
Q 20.953125 74.21875 31.78125 74.21875 
Q 42.671875 74.21875 48.875 69.140625 
Q 55.078125 64.0625 55.078125 55.328125 
Q 55.078125 49.078125 51.53125 44.71875 
Q 48 40.375 41.703125 38.8125 
Q 48.828125 37.15625 52.796875 32.3125 
Q 56.78125 27.484375 56.78125 20.515625 
Q 56.78125 9.90625 50.3125 4.234375 
Q 43.84375 -1.421875 31.78125 -1.421875 
Q 19.734375 -1.421875 13.25 4.234375 
Q 6.78125 9.90625 6.78125 20.515625 
Q 6.78125 27.484375 10.78125 32.3125 
Q 14.796875 37.15625 21.921875 38.8125 
z
M 18.3125 54.390625 
Q 18.3125 48.734375 21.84375 45.5625 
Q 25.390625 42.390625 31.78125 42.390625 
Q 38.140625 42.390625 41.71875 45.5625 
Q 45.3125 48.734375 45.3125 54.390625 
Q 45.3125 60.0625 41.71875 63.234375 
Q 38.140625 66.40625 31.78125 66.40625 
Q 25.390625 66.40625 21.84375 63.234375 
Q 18.3125 60.0625 18.3125 54.390625 
z
" id="DejaVuSans-56"/>
      </defs>
      <g transform="translate(155.907548 542.877813)scale(0.14 -0.14)">
       <use xlink:href="#DejaVuSans-56"/>
       <use x="63.623047" xlink:href="#DejaVuSans-46"/>
       <use x="95.410156" xlink:href="#DejaVuSans-48"/>
      </g>
     </g>
    </g>
    <g id="xtick_4">
     <g id="line2d_6">
      <g>
       <use style="stroke:#000000;stroke-width:0.8;" x="225.417791" xlink:href="#m2d37ebe212" y="525.24"/>
      </g>
     </g>
     <g id="text_6">
      <!-- 8.5 -->
      <g transform="translate(214.285603 542.877813)scale(0.14 -0.14)">
       <use xlink:href="#DejaVuSans-56"/>
       <use x="63.623047" xlink:href="#DejaVuSans-46"/>
       <use x="95.410156" xlink:href="#DejaVuSans-53"/>
      </g>
     </g>
    </g>
    <g id="xtick_5">
     <g id="line2d_7">
      <g>
       <use style="stroke:#000000;stroke-width:0.8;" x="283.795846" xlink:href="#m2d37ebe212" y="525.24"/>
      </g>
     </g>
     <g id="text_7">
      <!-- 9.0 -->
      <defs>
       <path d="M 10.984375 1.515625 
L 10.984375 10.5 
Q 14.703125 8.734375 18.5 7.8125 
Q 22.3125 6.890625 25.984375 6.890625 
Q 35.75 6.890625 40.890625 13.453125 
Q 46.046875 20.015625 46.78125 33.40625 
Q 43.953125 29.203125 39.59375 26.953125 
Q 35.25 24.703125 29.984375 24.703125 
Q 19.046875 24.703125 12.671875 31.3125 
Q 6.296875 37.9375 6.296875 49.421875 
Q 6.296875 60.640625 12.9375 67.421875 
Q 19.578125 74.21875 30.609375 74.21875 
Q 43.265625 74.21875 49.921875 64.515625 
Q 56.59375 54.828125 56.59375 36.375 
Q 56.59375 19.140625 48.40625 8.859375 
Q 40.234375 -1.421875 26.421875 -1.421875 
Q 22.703125 -1.421875 18.890625 -0.6875 
Q 15.09375 0.046875 10.984375 1.515625 
z
M 30.609375 32.421875 
Q 37.25 32.421875 41.125 36.953125 
Q 45.015625 41.5 45.015625 49.421875 
Q 45.015625 57.28125 41.125 61.84375 
Q 37.25 66.40625 30.609375 66.40625 
Q 23.96875 66.40625 20.09375 61.84375 
Q 16.21875 57.28125 16.21875 49.421875 
Q 16.21875 41.5 20.09375 36.953125 
Q 23.96875 32.421875 30.609375 32.421875 
z
" id="DejaVuSans-57"/>
      </defs>
      <g transform="translate(272.663658 542.877813)scale(0.14 -0.14)">
       <use xlink:href="#DejaVuSans-57"/>
       <use x="63.623047" xlink:href="#DejaVuSans-46"/>
       <use x="95.410156" xlink:href="#DejaVuSans-48"/>
      </g>
     </g>
    </g>
    <g id="xtick_6">
     <g id="line2d_8">
      <g>
       <use style="stroke:#000000;stroke-width:0.8;" x="342.1739" xlink:href="#m2d37ebe212" y="525.24"/>
      </g>
     </g>
     <g id="text_8">
      <!-- 9.5 -->
      <g transform="translate(331.041713 542.877813)scale(0.14 -0.14)">
       <use xlink:href="#DejaVuSans-57"/>
       <use x="63.623047" xlink:href="#DejaVuSans-46"/>
       <use x="95.410156" xlink:href="#DejaVuSans-53"/>
      </g>
     </g>
    </g>
    <g id="xtick_7">
     <g id="line2d_9">
      <g>
       <use style="stroke:#000000;stroke-width:0.8;" x="400.551955" xlink:href="#m2d37ebe212" y="525.24"/>
      </g>
     </g>
     <g id="text_9">
      <!-- 10.0 -->
      <defs>
       <path d="M 12.40625 8.296875 
L 28.515625 8.296875 
L 28.515625 63.921875 
L 10.984375 60.40625 
L 10.984375 69.390625 
L 28.421875 72.90625 
L 38.28125 72.90625 
L 38.28125 8.296875 
L 54.390625 8.296875 
L 54.390625 0 
L 12.40625 0 
z
" id="DejaVuSans-49"/>
      </defs>
      <g transform="translate(384.966018 542.877813)scale(0.14 -0.14)">
       <use xlink:href="#DejaVuSans-49"/>
       <use x="63.623047" xlink:href="#DejaVuSans-48"/>
       <use x="127.246094" xlink:href="#DejaVuSans-46"/>
       <use x="159.033203" xlink:href="#DejaVuSans-48"/>
      </g>
     </g>
    </g>
    <g id="xtick_8">
     <g id="line2d_10">
      <g>
       <use style="stroke:#000000;stroke-width:0.8;" x="458.93001" xlink:href="#m2d37ebe212" y="525.24"/>
      </g>
     </g>
     <g id="text_10">
      <!-- 10.5 -->
      <g transform="translate(443.344073 542.877813)scale(0.14 -0.14)">
       <use xlink:href="#DejaVuSans-49"/>
       <use x="63.623047" xlink:href="#DejaVuSans-48"/>
       <use x="127.246094" xlink:href="#DejaVuSans-46"/>
       <use x="159.033203" xlink:href="#DejaVuSans-53"/>
      </g>
     </g>
    </g>
    <g id="xtick_9">
     <g id="line2d_11">
      <g>
       <use style="stroke:#000000;stroke-width:0.8;" x="517.308065" xlink:href="#m2d37ebe212" y="525.24"/>
      </g>
     </g>
     <g id="text_11">
      <!-- 11.0 -->
      <g transform="translate(501.722127 542.877813)scale(0.14 -0.14)">
       <use xlink:href="#DejaVuSans-49"/>
       <use x="63.623047" xlink:href="#DejaVuSans-49"/>
       <use x="127.246094" xlink:href="#DejaVuSans-46"/>
       <use x="159.033203" xlink:href="#DejaVuSans-48"/>
      </g>
     </g>
    </g>
   </g>
   <g id="line2d_12">
    <path clip-path="url(#p9d8c61613e)" d="M 218.027129 525.24 
L 218.027129 402.93 
" style="fill:none;stroke:#ff6384;stroke-dasharray:5.55,2.4;stroke-dashoffset:0;stroke-opacity:0.8;stroke-width:1.5;"/>
   </g>
   <g id="line2d_13">
    <path clip-path="url(#p9d8c61613e)" d="M 324.00665 525.24 
L 324.00665 402.93 
" style="fill:none;stroke:#36a2eb;stroke-dasharray:5.55,2.4;stroke-dashoffset:0;stroke-opacity:0.8;stroke-width:1.5;"/>
   </g>
   <g id="patch_10">
    <path d="M 36 525.24 
L 538.2 525.24 
" style="fill:none;stroke:#000000;stroke-linecap:square;stroke-linejoin:miter;stroke-width:0.8;"/>
   </g>
  </g>
 </g>
 <defs>
  <clipPath id="p3f2de3eb33">
   <rect height="366.93" width="502.2" x="36" y="36"/>
  </clipPath>
  <clipPath id="p9d8c61613e">
   <rect height="122.31" width="502.2" x="36" y="402.93"/>
  </clipPath>
 </defs>
</svg>
