<?xml version="1.0" encoding="utf-8" standalone="no"?>
<!DOCTYPE svg PUBLIC "-//W3C//DTD SVG 1.1//EN"
  "http://www.w3.org/Graphics/SVG/1.1/DTD/svg11.dtd">
<!-- Created with matplotlib (https://matplotlib.org/) -->
<svg height="581.789375pt" version="1.1" viewBox="0 0 575.994516 581.789375" width="575.994516pt" xmlns="http://www.w3.org/2000/svg" xmlns:xlink="http://www.w3.org/1999/xlink">
 <defs>
  <style type="text/css">
*{stroke-linecap:butt;stroke-linejoin:round;}
  </style>
 </defs>
 <g id="figure_1">
  <g id="patch_1">
   <path d="M 0 581.789375 
L 575.994516 581.789375 
L 575.994516 0 
L 0 0 
z
" style="fill:none;"/>
  </g>
  <g id="axes_1">
   <g id="patch_2">
    <path d="M 37.794516 402.93 
L 539.994516 402.93 
L 539.994516 36 
L 37.794516 36 
z
" style="fill:none;"/>
   </g>
   <g id="PolyCollection_1">
    <defs>
     <path d="M 60.621788 -195.538011 
L 60.621788 -195.650004 
L 64.042595 -195.692234 
L 67.463401 -195.749007 
L 70.884208 -195.8248 
L 74.305014 -195.925281 
L 77.725821 -196.057565 
L 81.146627 -196.230497 
L 84.567434 -196.454982 
L 87.98824 -196.744335 
L 91.409047 -197.114666 
L 94.829853 -197.585273 
L 98.25066 -198.179047 
L 101.671466 -198.922859 
L 105.092273 -199.847921 
L 108.513079 -200.990079 
L 111.933886 -202.390029 
L 115.354692 -204.093399 
L 118.775499 -206.150691 
L 122.196305 -208.617009 
L 125.617112 -211.551575 
L 129.037918 -215.016962 
L 132.458725 -219.078053 
L 135.879531 -223.800667 
L 139.300337 -229.249878 
L 142.721144 -235.488004 
L 146.14195 -242.572312 
L 149.562757 -250.552459 
L 152.983563 -259.467747 
L 156.40437 -269.344261 
L 159.825176 -280.192004 
L 163.245983 -292.002137 
L 166.666789 -304.744465 
L 170.087596 -318.365297 
L 173.508402 -332.785841 
L 176.929209 -347.901251 
L 180.350015 -363.580456 
L 183.770822 -379.666871 
L 187.191628 -395.980052 
L 190.612435 -412.31833 
L 194.033241 -428.4624 
L 197.454048 -444.179822 
L 200.874854 -459.230303 
L 204.295661 -473.371627 
L 207.716467 -486.366018 
L 211.137273 -497.986726 
L 214.55808 -508.02457 
L 217.978886 -516.294181 
L 221.399693 -522.639693 
L 224.820499 -526.939623 
L 228.241306 -529.110739 
L 231.662112 -529.110739 
L 235.082919 -526.939623 
L 238.503725 -522.639693 
L 241.924532 -516.294181 
L 245.345338 -508.02457 
L 248.766145 -497.986726 
L 252.186951 -486.366018 
L 255.607758 -473.371627 
L 259.028564 -459.230303 
L 262.449371 -444.179822 
L 265.870177 -428.4624 
L 269.290984 -412.31833 
L 272.71179 -395.980052 
L 276.132597 -379.666871 
L 279.553403 -363.580456 
L 282.97421 -347.901251 
L 286.395016 -332.785841 
L 289.815822 -318.365297 
L 293.236629 -304.744465 
L 296.657435 -292.002137 
L 300.078242 -280.192004 
L 303.499048 -269.344261 
L 306.919855 -259.467747 
L 310.340661 -250.552459 
L 313.761468 -242.572312 
L 317.182274 -235.488004 
L 320.603081 -229.249878 
L 324.023887 -223.800667 
L 327.444694 -219.078053 
L 330.8655 -215.016962 
L 334.286307 -211.551575 
L 337.707113 -208.617009 
L 341.12792 -206.150691 
L 344.548726 -204.093399 
L 347.969533 -202.390029 
L 351.390339 -200.990079 
L 354.811146 -199.847921 
L 358.231952 -198.922859 
L 361.652759 -198.179047 
L 365.073565 -197.585273 
L 368.494371 -197.114666 
L 371.915178 -196.744335 
L 375.335984 -196.454982 
L 378.756791 -196.230497 
L 382.177597 -196.057565 
L 385.598404 -195.925281 
L 389.01921 -195.8248 
L 392.440017 -195.749007 
L 395.860823 -195.692234 
L 399.28163 -195.650004 
L 399.28163 -195.538011 
L 399.28163 -195.538011 
L 395.860823 -195.538011 
L 392.440017 -195.538011 
L 389.01921 -195.538011 
L 385.598404 -195.538011 
L 382.177597 -195.538011 
L 378.756791 -195.538011 
L 375.335984 -195.538011 
L 371.915178 -195.538011 
L 368.494371 -195.538011 
L 365.073565 -195.538011 
L 361.652759 -195.538011 
L 358.231952 -195.538011 
L 354.811146 -195.538011 
L 351.390339 -195.538011 
L 347.969533 -195.538011 
L 344.548726 -195.538011 
L 341.12792 -195.538011 
L 337.707113 -195.538011 
L 334.286307 -195.538011 
L 330.8655 -195.538011 
L 327.444694 -195.538011 
L 324.023887 -195.538011 
L 320.603081 -195.538011 
L 317.182274 -195.538011 
L 313.761468 -195.538011 
L 310.340661 -195.538011 
L 306.919855 -195.538011 
L 303.499048 -195.538011 
L 300.078242 -195.538011 
L 296.657435 -195.538011 
L 293.236629 -195.538011 
L 289.815822 -195.538011 
L 286.395016 -195.538011 
L 282.97421 -195.538011 
L 279.553403 -195.538011 
L 276.132597 -195.538011 
L 272.71179 -195.538011 
L 269.290984 -195.538011 
L 265.870177 -195.538011 
L 262.449371 -195.538011 
L 259.028564 -195.538011 
L 255.607758 -195.538011 
L 252.186951 -195.538011 
L 248.766145 -195.538011 
L 245.345338 -195.538011 
L 241.924532 -195.538011 
L 238.503725 -195.538011 
L 235.082919 -195.538011 
L 231.662112 -195.538011 
L 228.241306 -195.538011 
L 224.820499 -195.538011 
L 221.399693 -195.538011 
L 217.978886 -195.538011 
L 214.55808 -195.538011 
L 211.137273 -195.538011 
L 207.716467 -195.538011 
L 204.295661 -195.538011 
L 200.874854 -195.538011 
L 197.454048 -195.538011 
L 194.033241 -195.538011 
L 190.612435 -195.538011 
L 187.191628 -195.538011 
L 183.770822 -195.538011 
L 180.350015 -195.538011 
L 176.929209 -195.538011 
L 173.508402 -195.538011 
L 170.087596 -195.538011 
L 166.666789 -195.538011 
L 163.245983 -195.538011 
L 159.825176 -195.538011 
L 156.40437 -195.538011 
L 152.983563 -195.538011 
L 149.562757 -195.538011 
L 146.14195 -195.538011 
L 142.721144 -195.538011 
L 139.300337 -195.538011 
L 135.879531 -195.538011 
L 132.458725 -195.538011 
L 129.037918 -195.538011 
L 125.617112 -195.538011 
L 122.196305 -195.538011 
L 118.775499 -195.538011 
L 115.354692 -195.538011 
L 111.933886 -195.538011 
L 108.513079 -195.538011 
L 105.092273 -195.538011 
L 101.671466 -195.538011 
L 98.25066 -195.538011 
L 94.829853 -195.538011 
L 91.409047 -195.538011 
L 87.98824 -195.538011 
L 84.567434 -195.538011 
L 81.146627 -195.538011 
L 77.725821 -195.538011 
L 74.305014 -195.538011 
L 70.884208 -195.538011 
L 67.463401 -195.538011 
L 64.042595 -195.538011 
L 60.621788 -195.538011 
z
" id="mff6be35ac1" style="stroke:#ff6384;stroke-opacity:0.5;"/>
    </defs>
    <g clip-path="url(#p9c426fe4ce)">
     <use style="fill:#ff6384;fill-opacity:0.5;stroke:#ff6384;stroke-opacity:0.5;" x="0" xlink:href="#mff6be35ac1" y="581.789375"/>
    </g>
   </g>
   <g id="PolyCollection_2">
    <defs>
     <path d="M 96.703891 -195.538011 
L 96.703891 -195.628215 
L 100.950996 -195.662229 
L 105.1981 -195.707957 
L 109.445205 -195.769003 
L 113.692309 -195.849936 
L 117.939414 -195.956483 
L 122.186519 -196.09577 
L 126.433623 -196.27658 
L 130.680728 -196.509638 
L 134.927832 -196.807919 
L 139.174937 -197.186967 
L 143.422041 -197.665218 
L 147.669146 -198.264318 
L 151.91625 -199.009404 
L 156.163355 -199.929349 
L 160.41046 -201.05693 
L 164.657564 -202.4289 
L 168.904669 -204.085934 
L 173.151773 -206.072417 
L 177.398878 -208.436046 
L 181.645982 -211.227223 
L 185.893087 -214.498205 
L 190.140192 -218.302009 
L 194.387296 -222.691045 
L 198.634401 -227.715508 
L 202.881505 -233.421524 
L 207.12861 -239.849089 
L 211.375714 -247.029857 
L 215.622819 -254.98484 
L 219.869924 -263.722093 
L 224.117028 -273.234499 
L 228.364133 -283.497735 
L 232.611237 -294.468558 
L 236.858342 -306.083504 
L 241.105446 -318.258125 
L 245.352551 -330.886853 
L 249.599655 -343.843565 
L 253.84676 -356.982926 
L 258.093865 -370.142499 
L 262.340969 -383.14565 
L 266.588074 -395.805159 
L 270.835178 -407.927484 
L 275.082283 -419.317534 
L 279.329387 -429.783793 
L 283.576492 -439.143627 
L 287.823597 -447.228552 
L 292.070701 -453.889264 
L 296.317806 -459.000221 
L 300.56491 -462.463575 
L 304.812015 -464.212288 
L 309.059119 -464.212288 
L 313.306224 -462.463575 
L 317.553328 -459.000221 
L 321.800433 -453.889264 
L 326.047538 -447.228552 
L 330.294642 -439.143627 
L 334.541747 -429.783793 
L 338.788851 -419.317534 
L 343.035956 -407.927484 
L 347.28306 -395.805159 
L 351.530165 -383.14565 
L 355.77727 -370.142499 
L 360.024374 -356.982926 
L 364.271479 -343.843565 
L 368.518583 -330.886853 
L 372.765688 -318.258125 
L 377.012792 -306.083504 
L 381.259897 -294.468558 
L 385.507002 -283.497735 
L 389.754106 -273.234499 
L 394.001211 -263.722093 
L 398.248315 -254.98484 
L 402.49542 -247.029857 
L 406.742524 -239.849089 
L 410.989629 -233.421524 
L 415.236733 -227.715508 
L 419.483838 -222.691045 
L 423.730943 -218.302009 
L 427.978047 -214.498205 
L 432.225152 -211.227223 
L 436.472256 -208.436046 
L 440.719361 -206.072417 
L 444.966465 -204.085934 
L 449.21357 -202.4289 
L 453.460675 -201.05693 
L 457.707779 -199.929349 
L 461.954884 -199.009404 
L 466.201988 -198.264318 
L 470.449093 -197.665218 
L 474.696197 -197.186967 
L 478.943302 -196.807919 
L 483.190407 -196.509638 
L 487.437511 -196.27658 
L 491.684616 -196.09577 
L 495.93172 -195.956483 
L 500.178825 -195.849936 
L 504.425929 -195.769003 
L 508.673034 -195.707957 
L 512.920138 -195.662229 
L 517.167243 -195.628215 
L 517.167243 -195.538011 
L 517.167243 -195.538011 
L 512.920138 -195.538011 
L 508.673034 -195.538011 
L 504.425929 -195.538011 
L 500.178825 -195.538011 
L 495.93172 -195.538011 
L 491.684616 -195.538011 
L 487.437511 -195.538011 
L 483.190407 -195.538011 
L 478.943302 -195.538011 
L 474.696197 -195.538011 
L 470.449093 -195.538011 
L 466.201988 -195.538011 
L 461.954884 -195.538011 
L 457.707779 -195.538011 
L 453.460675 -195.538011 
L 449.21357 -195.538011 
L 444.966465 -195.538011 
L 440.719361 -195.538011 
L 436.472256 -195.538011 
L 432.225152 -195.538011 
L 427.978047 -195.538011 
L 423.730943 -195.538011 
L 419.483838 -195.538011 
L 415.236733 -195.538011 
L 410.989629 -195.538011 
L 406.742524 -195.538011 
L 402.49542 -195.538011 
L 398.248315 -195.538011 
L 394.001211 -195.538011 
L 389.754106 -195.538011 
L 385.507002 -195.538011 
L 381.259897 -195.538011 
L 377.012792 -195.538011 
L 372.765688 -195.538011 
L 368.518583 -195.538011 
L 364.271479 -195.538011 
L 360.024374 -195.538011 
L 355.77727 -195.538011 
L 351.530165 -195.538011 
L 347.28306 -195.538011 
L 343.035956 -195.538011 
L 338.788851 -195.538011 
L 334.541747 -195.538011 
L 330.294642 -195.538011 
L 326.047538 -195.538011 
L 321.800433 -195.538011 
L 317.553328 -195.538011 
L 313.306224 -195.538011 
L 309.059119 -195.538011 
L 304.812015 -195.538011 
L 300.56491 -195.538011 
L 296.317806 -195.538011 
L 292.070701 -195.538011 
L 287.823597 -195.538011 
L 283.576492 -195.538011 
L 279.329387 -195.538011 
L 275.082283 -195.538011 
L 270.835178 -195.538011 
L 266.588074 -195.538011 
L 262.340969 -195.538011 
L 258.093865 -195.538011 
L 253.84676 -195.538011 
L 249.599655 -195.538011 
L 245.352551 -195.538011 
L 241.105446 -195.538011 
L 236.858342 -195.538011 
L 232.611237 -195.538011 
L 228.364133 -195.538011 
L 224.117028 -195.538011 
L 219.869924 -195.538011 
L 215.622819 -195.538011 
L 211.375714 -195.538011 
L 207.12861 -195.538011 
L 202.881505 -195.538011 
L 198.634401 -195.538011 
L 194.387296 -195.538011 
L 190.140192 -195.538011 
L 185.893087 -195.538011 
L 181.645982 -195.538011 
L 177.398878 -195.538011 
L 173.151773 -195.538011 
L 168.904669 -195.538011 
L 164.657564 -195.538011 
L 160.41046 -195.538011 
L 156.163355 -195.538011 
L 151.91625 -195.538011 
L 147.669146 -195.538011 
L 143.422041 -195.538011 
L 139.174937 -195.538011 
L 134.927832 -195.538011 
L 130.680728 -195.538011 
L 126.433623 -195.538011 
L 122.186519 -195.538011 
L 117.939414 -195.538011 
L 113.692309 -195.538011 
L 109.445205 -195.538011 
L 105.1981 -195.538011 
L 100.950996 -195.538011 
L 96.703891 -195.538011 
z
" id="mb1645fa120" style="stroke:#36a2eb;stroke-opacity:0.5;"/>
    </defs>
    <g clip-path="url(#p9c426fe4ce)">
     <use style="fill:#36a2eb;fill-opacity:0.5;stroke:#36a2eb;stroke-opacity:0.5;" x="0" xlink:href="#mb1645fa120" y="581.789375"/>
    </g>
   </g>
   <g id="line2d_1">
    <path clip-path="url(#p9c426fe4ce)" d="M 60.621788 386.139371 
L 64.042595 386.097141 
L 67.463401 386.040368 
L 70.884208 385.964575 
L 74.305014 385.864094 
L 77.725821 385.73181 
L 81.146627 385.558878 
L 84.567434 385.334393 
L 87.98824 385.04504 
L 91.409047 384.674709 
L 94.829853 384.204102 
L 98.25066 383.610328 
L 101.671466 382.866516 
L 105.092273 381.941454 
L 108.513079 380.799296 
L 111.933886 379.399346 
L 115.354692 377.695976 
L 118.775499 375.638684 
L 122.196305 373.172366 
L 125.617112 370.2378 
L 129.037918 366.772413 
L 132.458725 362.711322 
L 135.879531 357.988708 
L 139.300337 352.539497 
L 142.721144 346.301371 
L 146.14195 339.217063 
L 149.562757 331.236916 
L 152.983563 322.321628 
L 156.40437 312.445114 
L 159.825176 301.597371 
L 163.245983 289.787238 
L 166.666789 277.04491 
L 170.087596 263.424078 
L 173.508402 249.003534 
L 176.929209 233.888124 
L 180.350015 218.208919 
L 183.770822 202.122504 
L 187.191628 185.809323 
L 190.612435 169.471045 
L 194.033241 153.326975 
L 197.454048 137.609553 
L 200.874854 122.559072 
L 204.295661 108.417748 
L 207.716467 95.423357 
L 211.137273 83.802649 
L 214.55808 73.764805 
L 217.978886 65.495194 
L 221.399693 59.149682 
L 224.820499 54.849752 
L 228.241306 52.678636 
L 231.662112 52.678636 
L 235.082919 54.849752 
L 238.503725 59.149682 
L 241.924532 65.495194 
L 245.345338 73.764805 
L 248.766145 83.802649 
L 252.186951 95.423357 
L 255.607758 108.417748 
L 259.028564 122.559072 
L 262.449371 137.609553 
L 265.870177 153.326975 
L 269.290984 169.471045 
L 272.71179 185.809323 
L 276.132597 202.122504 
L 279.553403 218.208919 
L 282.97421 233.888124 
L 286.395016 249.003534 
L 289.815822 263.424078 
L 293.236629 277.04491 
L 296.657435 289.787238 
L 300.078242 301.597371 
L 303.499048 312.445114 
L 306.919855 322.321628 
L 310.340661 331.236916 
L 313.761468 339.217063 
L 317.182274 346.301371 
L 320.603081 352.539497 
L 324.023887 357.988708 
L 327.444694 362.711322 
L 330.8655 366.772413 
L 334.286307 370.2378 
L 337.707113 373.172366 
L 341.12792 375.638684 
L 344.548726 377.695976 
L 347.969533 379.399346 
L 351.390339 380.799296 
L 354.811146 381.941454 
L 358.231952 382.866516 
L 361.652759 383.610328 
L 365.073565 384.204102 
L 368.494371 384.674709 
L 371.915178 385.04504 
L 375.335984 385.334393 
L 378.756791 385.558878 
L 382.177597 385.73181 
L 385.598404 385.864094 
L 389.01921 385.964575 
L 392.440017 386.040368 
L 395.860823 386.097141 
L 399.28163 386.139371 
" style="fill:none;stroke:#ff6384;stroke-linecap:square;"/>
   </g>
   <g id="line2d_2">
    <path clip-path="url(#p9c426fe4ce)" d="M 96.703891 386.16116 
L 100.950996 386.127146 
L 105.1981 386.081418 
L 109.445205 386.020372 
L 113.692309 385.939439 
L 117.939414 385.832892 
L 122.186519 385.693605 
L 126.433623 385.512795 
L 130.680728 385.279737 
L 134.927832 384.981456 
L 139.174937 384.602408 
L 143.422041 384.124157 
L 147.669146 383.525057 
L 151.91625 382.779971 
L 156.163355 381.860026 
L 160.41046 380.732445 
L 164.657564 379.360475 
L 168.904669 377.703441 
L 173.151773 375.716958 
L 177.398878 373.353329 
L 181.645982 370.562152 
L 185.893087 367.29117 
L 190.140192 363.487366 
L 194.387296 359.09833 
L 198.634401 354.073867 
L 202.881505 348.367851 
L 207.12861 341.940286 
L 211.375714 334.759518 
L 215.622819 326.804535 
L 219.869924 318.067282 
L 224.117028 308.554876 
L 228.364133 298.29164 
L 232.611237 287.320817 
L 236.858342 275.705871 
L 241.105446 263.53125 
L 245.352551 250.902522 
L 249.599655 237.94581 
L 253.84676 224.806449 
L 258.093865 211.646876 
L 262.340969 198.643725 
L 266.588074 185.984216 
L 270.835178 173.861891 
L 275.082283 162.471841 
L 279.329387 152.005582 
L 283.576492 142.645748 
L 287.823597 134.560823 
L 292.070701 127.900111 
L 296.317806 122.789154 
L 300.56491 119.3258 
L 304.812015 117.577087 
L 309.059119 117.577087 
L 313.306224 119.3258 
L 317.553328 122.789154 
L 321.800433 127.900111 
L 326.047538 134.560823 
L 330.294642 142.645748 
L 334.541747 152.005582 
L 338.788851 162.471841 
L 343.035956 173.861891 
L 347.28306 185.984216 
L 351.530165 198.643725 
L 355.77727 211.646876 
L 360.024374 224.806449 
L 364.271479 237.94581 
L 368.518583 250.902522 
L 372.765688 263.53125 
L 377.012792 275.705871 
L 381.259897 287.320817 
L 385.507002 298.29164 
L 389.754106 308.554876 
L 394.001211 318.067282 
L 398.248315 326.804535 
L 402.49542 334.759518 
L 406.742524 341.940286 
L 410.989629 348.367851 
L 415.236733 354.073867 
L 419.483838 359.09833 
L 423.730943 363.487366 
L 427.978047 367.29117 
L 432.225152 370.562152 
L 436.472256 373.353329 
L 440.719361 375.716958 
L 444.966465 377.703441 
L 449.21357 379.360475 
L 453.460675 380.732445 
L 457.707779 381.860026 
L 461.954884 382.779971 
L 466.201988 383.525057 
L 470.449093 384.124157 
L 474.696197 384.602408 
L 478.943302 384.981456 
L 483.190407 385.279737 
L 487.437511 385.512795 
L 491.684616 385.693605 
L 495.93172 385.832892 
L 500.178825 385.939439 
L 504.425929 386.020372 
L 508.673034 386.081418 
L 512.920138 386.127146 
L 517.167243 386.16116 
" style="fill:none;stroke:#36a2eb;stroke-linecap:square;"/>
   </g>
   <g id="patch_3">
    <path d="M 37.794516 402.93 
L 539.994516 402.93 
" style="fill:none;stroke:#000000;stroke-linecap:square;stroke-linejoin:miter;stroke-width:0.8;"/>
   </g>
   <g id="legend_1">
    <g id="patch_4">
     <path d="M 421.372953 88.29875 
L 530.194516 88.29875 
Q 532.994516 88.29875 532.994516 85.49875 
L 532.994516 45.8 
Q 532.994516 43 530.194516 43 
L 421.372953 43 
Q 418.572953 43 418.572953 45.8 
L 418.572953 85.49875 
Q 418.572953 88.29875 421.372953 88.29875 
z
" style="fill:#ffffff;opacity:0.8;stroke:#cccccc;stroke-linejoin:miter;"/>
    </g>
    <g id="patch_5">
     <path d="M 424.172953 59.237813 
L 452.172953 59.237813 
L 452.172953 49.437813 
L 424.172953 49.437813 
z
" style="fill:#ff6384;opacity:0.5;stroke:#ff6384;stroke-linejoin:miter;"/>
    </g>
    <g id="text_1">
     <!-- base -->
     <defs>
      <path d="M 48.6875 27.296875 
Q 48.6875 37.203125 44.609375 42.84375 
Q 40.53125 48.484375 33.40625 48.484375 
Q 26.265625 48.484375 22.1875 42.84375 
Q 18.109375 37.203125 18.109375 27.296875 
Q 18.109375 17.390625 22.1875 11.75 
Q 26.265625 6.109375 33.40625 6.109375 
Q 40.53125 6.109375 44.609375 11.75 
Q 48.6875 17.390625 48.6875 27.296875 
z
M 18.109375 46.390625 
Q 20.953125 51.265625 25.265625 53.625 
Q 29.59375 56 35.59375 56 
Q 45.5625 56 51.78125 48.09375 
Q 58.015625 40.1875 58.015625 27.296875 
Q 58.015625 14.40625 51.78125 6.484375 
Q 45.5625 -1.421875 35.59375 -1.421875 
Q 29.59375 -1.421875 25.265625 0.953125 
Q 20.953125 3.328125 18.109375 8.203125 
L 18.109375 0 
L 9.078125 0 
L 9.078125 75.984375 
L 18.109375 75.984375 
z
" id="DejaVuSans-98"/>
      <path d="M 34.28125 27.484375 
Q 23.390625 27.484375 19.1875 25 
Q 14.984375 22.515625 14.984375 16.5 
Q 14.984375 11.71875 18.140625 8.90625 
Q 21.296875 6.109375 26.703125 6.109375 
Q 34.1875 6.109375 38.703125 11.40625 
Q 43.21875 16.703125 43.21875 25.484375 
L 43.21875 27.484375 
z
M 52.203125 31.203125 
L 52.203125 0 
L 43.21875 0 
L 43.21875 8.296875 
Q 40.140625 3.328125 35.546875 0.953125 
Q 30.953125 -1.421875 24.3125 -1.421875 
Q 15.921875 -1.421875 10.953125 3.296875 
Q 6 8.015625 6 15.921875 
Q 6 25.140625 12.171875 29.828125 
Q 18.359375 34.515625 30.609375 34.515625 
L 43.21875 34.515625 
L 43.21875 35.40625 
Q 43.21875 41.609375 39.140625 45 
Q 35.0625 48.390625 27.6875 48.390625 
Q 23 48.390625 18.546875 47.265625 
Q 14.109375 46.140625 10.015625 43.890625 
L 10.015625 52.203125 
Q 14.9375 54.109375 19.578125 55.046875 
Q 24.21875 56 28.609375 56 
Q 40.484375 56 46.34375 49.84375 
Q 52.203125 43.703125 52.203125 31.203125 
z
" id="DejaVuSans-97"/>
      <path d="M 44.28125 53.078125 
L 44.28125 44.578125 
Q 40.484375 46.53125 36.375 47.5 
Q 32.28125 48.484375 27.875 48.484375 
Q 21.1875 48.484375 17.84375 46.4375 
Q 14.5 44.390625 14.5 40.28125 
Q 14.5 37.15625 16.890625 35.375 
Q 19.28125 33.59375 26.515625 31.984375 
L 29.59375 31.296875 
Q 39.15625 29.25 43.1875 25.515625 
Q 47.21875 21.78125 47.21875 15.09375 
Q 47.21875 7.46875 41.1875 3.015625 
Q 35.15625 -1.421875 24.609375 -1.421875 
Q 20.21875 -1.421875 15.453125 -0.5625 
Q 10.6875 0.296875 5.421875 2 
L 5.421875 11.28125 
Q 10.40625 8.6875 15.234375 7.390625 
Q 20.0625 6.109375 24.8125 6.109375 
Q 31.15625 6.109375 34.5625 8.28125 
Q 37.984375 10.453125 37.984375 14.40625 
Q 37.984375 18.0625 35.515625 20.015625 
Q 33.0625 21.96875 24.703125 23.78125 
L 21.578125 24.515625 
Q 13.234375 26.265625 9.515625 29.90625 
Q 5.8125 33.546875 5.8125 39.890625 
Q 5.8125 47.609375 11.28125 51.796875 
Q 16.75 56 26.8125 56 
Q 31.78125 56 36.171875 55.265625 
Q 40.578125 54.546875 44.28125 53.078125 
z
" id="DejaVuSans-115"/>
      <path d="M 56.203125 29.59375 
L 56.203125 25.203125 
L 14.890625 25.203125 
Q 15.484375 15.921875 20.484375 11.0625 
Q 25.484375 6.203125 34.421875 6.203125 
Q 39.59375 6.203125 44.453125 7.46875 
Q 49.3125 8.734375 54.109375 11.28125 
L 54.109375 2.78125 
Q 49.265625 0.734375 44.1875 -0.34375 
Q 39.109375 -1.421875 33.890625 -1.421875 
Q 20.796875 -1.421875 13.15625 6.1875 
Q 5.515625 13.8125 5.515625 26.8125 
Q 5.515625 40.234375 12.765625 48.109375 
Q 20.015625 56 32.328125 56 
Q 43.359375 56 49.78125 48.890625 
Q 56.203125 41.796875 56.203125 29.59375 
z
M 47.21875 32.234375 
Q 47.125 39.59375 43.09375 43.984375 
Q 39.0625 48.390625 32.421875 48.390625 
Q 24.90625 48.390625 20.390625 44.140625 
Q 15.875 39.890625 15.1875 32.171875 
z
" id="DejaVuSans-101"/>
     </defs>
     <g transform="translate(463.372953 59.237813)scale(0.14 -0.14)">
      <use xlink:href="#DejaVuSans-98"/>
      <use x="63.476562" xlink:href="#DejaVuSans-97"/>
      <use x="124.755859" xlink:href="#DejaVuSans-115"/>
      <use x="176.855469" xlink:href="#DejaVuSans-101"/>
     </g>
    </g>
    <g id="patch_6">
     <path d="M 424.172953 79.787188 
L 452.172953 79.787188 
L 452.172953 69.987188 
L 424.172953 69.987188 
z
" style="fill:#36a2eb;opacity:0.5;stroke:#36a2eb;stroke-linejoin:miter;"/>
    </g>
    <g id="text_2">
     <!-- reminder -->
     <defs>
      <path d="M 41.109375 46.296875 
Q 39.59375 47.171875 37.8125 47.578125 
Q 36.03125 48 33.890625 48 
Q 26.265625 48 22.1875 43.046875 
Q 18.109375 38.09375 18.109375 28.8125 
L 18.109375 0 
L 9.078125 0 
L 9.078125 54.6875 
L 18.109375 54.6875 
L 18.109375 46.1875 
Q 20.953125 51.171875 25.484375 53.578125 
Q 30.03125 56 36.53125 56 
Q 37.453125 56 38.578125 55.875 
Q 39.703125 55.765625 41.0625 55.515625 
z
" id="DejaVuSans-114"/>
      <path d="M 52 44.1875 
Q 55.375 50.25 60.0625 53.125 
Q 64.75 56 71.09375 56 
Q 79.640625 56 84.28125 50.015625 
Q 88.921875 44.046875 88.921875 33.015625 
L 88.921875 0 
L 79.890625 0 
L 79.890625 32.71875 
Q 79.890625 40.578125 77.09375 44.375 
Q 74.3125 48.1875 68.609375 48.1875 
Q 61.625 48.1875 57.5625 43.546875 
Q 53.515625 38.921875 53.515625 30.90625 
L 53.515625 0 
L 44.484375 0 
L 44.484375 32.71875 
Q 44.484375 40.625 41.703125 44.40625 
Q 38.921875 48.1875 33.109375 48.1875 
Q 26.21875 48.1875 22.15625 43.53125 
Q 18.109375 38.875 18.109375 30.90625 
L 18.109375 0 
L 9.078125 0 
L 9.078125 54.6875 
L 18.109375 54.6875 
L 18.109375 46.1875 
Q 21.1875 51.21875 25.484375 53.609375 
Q 29.78125 56 35.6875 56 
Q 41.65625 56 45.828125 52.96875 
Q 50 49.953125 52 44.1875 
z
" id="DejaVuSans-109"/>
      <path d="M 9.421875 54.6875 
L 18.40625 54.6875 
L 18.40625 0 
L 9.421875 0 
z
M 9.421875 75.984375 
L 18.40625 75.984375 
L 18.40625 64.59375 
L 9.421875 64.59375 
z
" id="DejaVuSans-105"/>
      <path d="M 54.890625 33.015625 
L 54.890625 0 
L 45.90625 0 
L 45.90625 32.71875 
Q 45.90625 40.484375 42.875 44.328125 
Q 39.84375 48.1875 33.796875 48.1875 
Q 26.515625 48.1875 22.3125 43.546875 
Q 18.109375 38.921875 18.109375 30.90625 
L 18.109375 0 
L 9.078125 0 
L 9.078125 54.6875 
L 18.109375 54.6875 
L 18.109375 46.1875 
Q 21.34375 51.125 25.703125 53.5625 
Q 30.078125 56 35.796875 56 
Q 45.21875 56 50.046875 50.171875 
Q 54.890625 44.34375 54.890625 33.015625 
z
" id="DejaVuSans-110"/>
      <path d="M 45.40625 46.390625 
L 45.40625 75.984375 
L 54.390625 75.984375 
L 54.390625 0 
L 45.40625 0 
L 45.40625 8.203125 
Q 42.578125 3.328125 38.25 0.953125 
Q 33.9375 -1.421875 27.875 -1.421875 
Q 17.96875 -1.421875 11.734375 6.484375 
Q 5.515625 14.40625 5.515625 27.296875 
Q 5.515625 40.1875 11.734375 48.09375 
Q 17.96875 56 27.875 56 
Q 33.9375 56 38.25 53.625 
Q 42.578125 51.265625 45.40625 46.390625 
z
M 14.796875 27.296875 
Q 14.796875 17.390625 18.875 11.75 
Q 22.953125 6.109375 30.078125 6.109375 
Q 37.203125 6.109375 41.296875 11.75 
Q 45.40625 17.390625 45.40625 27.296875 
Q 45.40625 37.203125 41.296875 42.84375 
Q 37.203125 48.484375 30.078125 48.484375 
Q 22.953125 48.484375 18.875 42.84375 
Q 14.796875 37.203125 14.796875 27.296875 
z
" id="DejaVuSans-100"/>
     </defs>
     <g transform="translate(463.372953 79.787188)scale(0.14 -0.14)">
      <use xlink:href="#DejaVuSans-114"/>
      <use x="41.082031" xlink:href="#DejaVuSans-101"/>
      <use x="102.605469" xlink:href="#DejaVuSans-109"/>
      <use x="200.017578" xlink:href="#DejaVuSans-105"/>
      <use x="227.800781" xlink:href="#DejaVuSans-110"/>
      <use x="291.179688" xlink:href="#DejaVuSans-100"/>
      <use x="354.65625" xlink:href="#DejaVuSans-101"/>
      <use x="416.179688" xlink:href="#DejaVuSans-114"/>
     </g>
    </g>
   </g>
  </g>
  <g id="axes_2">
   <g id="patch_7">
    <path d="M 37.794516 525.24 
L 539.994516 525.24 
L 539.994516 402.93 
L 37.794516 402.93 
z
" style="fill:none;"/>
   </g>
   <g id="patch_8">
    <path clip-path="url(#p9ce75ef149)" d="M 146.980048 519.680455 
L 312.92337 519.680455 
L 312.92337 482.616818 
L 146.980048 482.616818 
z
" style="fill:#ff6384;opacity:0.5;"/>
   </g>
   <g id="patch_9">
    <path clip-path="url(#p9ce75ef149)" d="M 203.922046 445.553182 
L 409.949088 445.553182 
L 409.949088 408.489545 
L 203.922046 408.489545 
z
" style="fill:#36a2eb;opacity:0.5;"/>
   </g>
   <g id="matplotlib.axis_1">
    <g id="xtick_1">
     <g id="line2d_3">
      <defs>
       <path d="M 0 0 
L 0 3.5 
" id="maea29bd33b" style="stroke:#000000;stroke-width:0.8;"/>
      </defs>
      <g>
       <use style="stroke:#000000;stroke-width:0.8;" x="47.132187" xlink:href="#maea29bd33b" y="525.24"/>
      </g>
     </g>
     <g id="text_3">
      <!-- 4.0 -->
      <defs>
       <path d="M 37.796875 64.3125 
L 12.890625 25.390625 
L 37.796875 25.390625 
z
M 35.203125 72.90625 
L 47.609375 72.90625 
L 47.609375 25.390625 
L 58.015625 25.390625 
L 58.015625 17.1875 
L 47.609375 17.1875 
L 47.609375 0 
L 37.796875 0 
L 37.796875 17.1875 
L 4.890625 17.1875 
L 4.890625 26.703125 
z
" id="DejaVuSans-52"/>
       <path d="M 10.6875 12.40625 
L 21 12.40625 
L 21 0 
L 10.6875 0 
z
" id="DejaVuSans-46"/>
       <path d="M 31.78125 66.40625 
Q 24.171875 66.40625 20.328125 58.90625 
Q 16.5 51.421875 16.5 36.375 
Q 16.5 21.390625 20.328125 13.890625 
Q 24.171875 6.390625 31.78125 6.390625 
Q 39.453125 6.390625 43.28125 13.890625 
Q 47.125 21.390625 47.125 36.375 
Q 47.125 51.421875 43.28125 58.90625 
Q 39.453125 66.40625 31.78125 66.40625 
z
M 31.78125 74.21875 
Q 44.046875 74.21875 50.515625 64.515625 
Q 56.984375 54.828125 56.984375 36.375 
Q 56.984375 17.96875 50.515625 8.265625 
Q 44.046875 -1.421875 31.78125 -1.421875 
Q 19.53125 -1.421875 13.0625 8.265625 
Q 6.59375 17.96875 6.59375 36.375 
Q 6.59375 54.828125 13.0625 64.515625 
Q 19.53125 74.21875 31.78125 74.21875 
z
" id="DejaVuSans-48"/>
      </defs>
      <g transform="translate(36 542.877813)scale(0.14 -0.14)">
       <use xlink:href="#DejaVuSans-52"/>
       <use x="63.623047" xlink:href="#DejaVuSans-46"/>
       <use x="95.410156" xlink:href="#DejaVuSans-48"/>
      </g>
     </g>
    </g>
    <g id="xtick_2">
     <g id="line2d_4">
      <g>
       <use style="stroke:#000000;stroke-width:0.8;" x="115.696365" xlink:href="#maea29bd33b" y="525.24"/>
      </g>
     </g>
     <g id="text_4">
      <!-- 4.5 -->
      <defs>
       <path d="M 10.796875 72.90625 
L 49.515625 72.90625 
L 49.515625 64.59375 
L 19.828125 64.59375 
L 19.828125 46.734375 
Q 21.96875 47.46875 24.109375 47.828125 
Q 26.265625 48.1875 28.421875 48.1875 
Q 40.625 48.1875 47.75 41.5 
Q 54.890625 34.8125 54.890625 23.390625 
Q 54.890625 11.625 47.5625 5.09375 
Q 40.234375 -1.421875 26.90625 -1.421875 
Q 22.3125 -1.421875 17.546875 -0.640625 
Q 12.796875 0.140625 7.71875 1.703125 
L 7.71875 11.625 
Q 12.109375 9.234375 16.796875 8.0625 
Q 21.484375 6.890625 26.703125 6.890625 
Q 35.15625 6.890625 40.078125 11.328125 
Q 45.015625 15.765625 45.015625 23.390625 
Q 45.015625 31 40.078125 35.4375 
Q 35.15625 39.890625 26.703125 39.890625 
Q 22.75 39.890625 18.8125 39.015625 
Q 14.890625 38.140625 10.796875 36.28125 
z
" id="DejaVuSans-53"/>
      </defs>
      <g transform="translate(104.564177 542.877813)scale(0.14 -0.14)">
       <use xlink:href="#DejaVuSans-52"/>
       <use x="63.623047" xlink:href="#DejaVuSans-46"/>
       <use x="95.410156" xlink:href="#DejaVuSans-53"/>
      </g>
     </g>
    </g>
    <g id="xtick_3">
     <g id="line2d_5">
      <g>
       <use style="stroke:#000000;stroke-width:0.8;" x="184.260542" xlink:href="#maea29bd33b" y="525.24"/>
      </g>
     </g>
     <g id="text_5">
      <!-- 5.0 -->
      <g transform="translate(173.128354 542.877813)scale(0.14 -0.14)">
       <use xlink:href="#DejaVuSans-53"/>
       <use x="63.623047" xlink:href="#DejaVuSans-46"/>
       <use x="95.410156" xlink:href="#DejaVuSans-48"/>
      </g>
     </g>
    </g>
    <g id="xtick_4">
     <g id="line2d_6">
      <g>
       <use style="stroke:#000000;stroke-width:0.8;" x="252.824719" xlink:href="#maea29bd33b" y="525.24"/>
      </g>
     </g>
     <g id="text_6">
      <!-- 5.5 -->
      <g transform="translate(241.692531 542.877813)scale(0.14 -0.14)">
       <use xlink:href="#DejaVuSans-53"/>
       <use x="63.623047" xlink:href="#DejaVuSans-46"/>
       <use x="95.410156" xlink:href="#DejaVuSans-53"/>
      </g>
     </g>
    </g>
    <g id="xtick_5">
     <g id="line2d_7">
      <g>
       <use style="stroke:#000000;stroke-width:0.8;" x="321.388896" xlink:href="#maea29bd33b" y="525.24"/>
      </g>
     </g>
     <g id="text_7">
      <!-- 6.0 -->
      <defs>
       <path d="M 33.015625 40.375 
Q 26.375 40.375 22.484375 35.828125 
Q 18.609375 31.296875 18.609375 23.390625 
Q 18.609375 15.53125 22.484375 10.953125 
Q 26.375 6.390625 33.015625 6.390625 
Q 39.65625 6.390625 43.53125 10.953125 
Q 47.40625 15.53125 47.40625 23.390625 
Q 47.40625 31.296875 43.53125 35.828125 
Q 39.65625 40.375 33.015625 40.375 
z
M 52.59375 71.296875 
L 52.59375 62.3125 
Q 48.875 64.0625 45.09375 64.984375 
Q 41.3125 65.921875 37.59375 65.921875 
Q 27.828125 65.921875 22.671875 59.328125 
Q 17.53125 52.734375 16.796875 39.40625 
Q 19.671875 43.65625 24.015625 45.921875 
Q 28.375 48.1875 33.59375 48.1875 
Q 44.578125 48.1875 50.953125 41.515625 
Q 57.328125 34.859375 57.328125 23.390625 
Q 57.328125 12.15625 50.6875 5.359375 
Q 44.046875 -1.421875 33.015625 -1.421875 
Q 20.359375 -1.421875 13.671875 8.265625 
Q 6.984375 17.96875 6.984375 36.375 
Q 6.984375 53.65625 15.1875 63.9375 
Q 23.390625 74.21875 37.203125 74.21875 
Q 40.921875 74.21875 44.703125 73.484375 
Q 48.484375 72.75 52.59375 71.296875 
z
" id="DejaVuSans-54"/>
      </defs>
      <g transform="translate(310.256708 542.877813)scale(0.14 -0.14)">
       <use xlink:href="#DejaVuSans-54"/>
       <use x="63.623047" xlink:href="#DejaVuSans-46"/>
       <use x="95.410156" xlink:href="#DejaVuSans-48"/>
      </g>
     </g>
    </g>
    <g id="xtick_6">
     <g id="line2d_8">
      <g>
       <use style="stroke:#000000;stroke-width:0.8;" x="389.953073" xlink:href="#maea29bd33b" y="525.24"/>
      </g>
     </g>
     <g id="text_8">
      <!-- 6.5 -->
      <g transform="translate(378.820885 542.877813)scale(0.14 -0.14)">
       <use xlink:href="#DejaVuSans-54"/>
       <use x="63.623047" xlink:href="#DejaVuSans-46"/>
       <use x="95.410156" xlink:href="#DejaVuSans-53"/>
      </g>
     </g>
    </g>
    <g id="xtick_7">
     <g id="line2d_9">
      <g>
       <use style="stroke:#000000;stroke-width:0.8;" x="458.51725" xlink:href="#maea29bd33b" y="525.24"/>
      </g>
     </g>
     <g id="text_9">
      <!-- 7.0 -->
      <defs>
       <path d="M 8.203125 72.90625 
L 55.078125 72.90625 
L 55.078125 68.703125 
L 28.609375 0 
L 18.3125 0 
L 43.21875 64.59375 
L 8.203125 64.59375 
z
" id="DejaVuSans-55"/>
      </defs>
      <g transform="translate(447.385062 542.877813)scale(0.14 -0.14)">
       <use xlink:href="#DejaVuSans-55"/>
       <use x="63.623047" xlink:href="#DejaVuSans-46"/>
       <use x="95.410156" xlink:href="#DejaVuSans-48"/>
      </g>
     </g>
    </g>
    <g id="xtick_8">
     <g id="line2d_10">
      <g>
       <use style="stroke:#000000;stroke-width:0.8;" x="527.081427" xlink:href="#maea29bd33b" y="525.24"/>
      </g>
     </g>
     <g id="text_10">
      <!-- 7.5 -->
      <g transform="translate(515.949239 542.877813)scale(0.14 -0.14)">
       <use xlink:href="#DejaVuSans-55"/>
       <use x="63.623047" xlink:href="#DejaVuSans-46"/>
       <use x="95.410156" xlink:href="#DejaVuSans-53"/>
      </g>
     </g>
    </g>
   </g>
   <g id="line2d_11">
    <path clip-path="url(#p9ce75ef149)" d="M 229.951709 525.24 
L 229.951709 402.93 
" style="fill:none;stroke:#ff6384;stroke-dasharray:5.55,2.4;stroke-dashoffset:0;stroke-opacity:0.8;stroke-width:1.5;"/>
   </g>
   <g id="line2d_12">
    <path clip-path="url(#p9ce75ef149)" d="M 306.935567 525.24 
L 306.935567 402.93 
" style="fill:none;stroke:#36a2eb;stroke-dasharray:5.55,2.4;stroke-dashoffset:0;stroke-opacity:0.8;stroke-width:1.5;"/>
   </g>
   <g id="patch_10">
    <path d="M 37.794516 525.24 
L 539.994516 525.24 
" style="fill:none;stroke:#000000;stroke-linecap:square;stroke-linejoin:miter;stroke-width:0.8;"/>
   </g>
  </g>
 </g>
 <defs>
  <clipPath id="p9c426fe4ce">
   <rect height="366.93" width="502.2" x="37.794516" y="36"/>
  </clipPath>
  <clipPath id="p9ce75ef149">
   <rect height="122.31" width="502.2" x="37.794516" y="402.93"/>
  </clipPath>
 </defs>
</svg>
