<?xml version="1.0" encoding="utf-8" standalone="no"?>
<!DOCTYPE svg PUBLIC "-//W3C//DTD SVG 1.1//EN"
  "http://www.w3.org/Graphics/SVG/1.1/DTD/svg11.dtd">
<!-- Created with matplotlib (https://matplotlib.org/) -->
<svg height="581.789375pt" version="1.1" viewBox="0 0 578.332851 581.789375" width="578.332851pt" xmlns="http://www.w3.org/2000/svg" xmlns:xlink="http://www.w3.org/1999/xlink">
 <defs>
  <style type="text/css">
*{stroke-linecap:butt;stroke-linejoin:round;}
  </style>
 </defs>
 <g id="figure_1">
  <g id="patch_1">
   <path d="M 0 581.789375 
L 578.332851 581.789375 
L 578.332851 0 
L 0 0 
z
" style="fill:none;"/>
  </g>
  <g id="axes_1">
   <g id="patch_2">
    <path d="M 40.132851 402.93 
L 542.332851 402.93 
L 542.332851 36 
L 40.132851 36 
z
" style="fill:none;"/>
   </g>
   <g id="PolyCollection_1">
    <defs>
     <path d="M 62.960123 -195.538011 
L 62.960123 -195.649087 
L 67.454859 -195.690971 
L 71.949595 -195.747279 
L 76.444331 -195.822451 
L 80.939067 -195.92211 
L 85.433803 -196.05331 
L 89.928539 -196.224826 
L 94.423275 -196.447472 
L 98.918011 -196.734456 
L 103.412747 -197.101754 
L 107.907483 -197.568507 
L 112.402219 -198.157419 
L 116.896954 -198.89514 
L 121.39169 -199.812626 
L 125.886426 -200.945431 
L 130.381162 -202.333916 
L 134.875898 -204.023337 
L 139.370634 -206.063781 
L 143.86537 -208.509902 
L 148.360106 -211.420436 
L 152.854842 -214.857445 
L 157.349578 -218.885278 
L 161.844314 -223.569218 
L 166.33905 -228.973804 
L 170.833785 -235.160844 
L 175.328521 -242.187137 
L 179.823257 -250.101933 
L 184.317993 -258.944211 
L 188.812729 -268.739844 
L 193.307465 -279.498753 
L 197.802201 -291.212171 
L 202.296937 -303.850148 
L 206.791673 -317.359436 
L 211.286409 -331.661887 
L 215.781145 -346.653513 
L 220.275881 -362.204317 
L 224.770616 -378.158997 
L 229.265352 -394.338586 
L 233.760088 -410.543066 
L 238.254824 -426.554929 
L 242.74956 -442.143637 
L 247.244296 -457.070866 
L 251.739032 -471.096383 
L 256.233768 -483.984361 
L 260.728504 -495.509904 
L 265.22324 -505.465545 
L 269.717976 -513.667435 
L 274.212712 -519.960982 
L 278.707447 -524.225699 
L 283.202183 -526.379035 
L 287.696919 -526.379035 
L 292.191655 -524.225699 
L 296.686391 -519.960982 
L 301.181127 -513.667435 
L 305.675863 -505.465545 
L 310.170599 -495.509904 
L 314.665335 -483.984361 
L 319.160071 -471.096383 
L 323.654807 -457.070866 
L 328.149543 -442.143637 
L 332.644278 -426.554929 
L 337.139014 -410.543066 
L 341.63375 -394.338586 
L 346.128486 -378.158997 
L 350.623222 -362.204317 
L 355.117958 -346.653513 
L 359.612694 -331.661887 
L 364.10743 -317.359436 
L 368.602166 -303.850148 
L 373.096902 -291.212171 
L 377.591638 -279.498753 
L 382.086374 -268.739844 
L 386.581109 -258.944211 
L 391.075845 -250.101933 
L 395.570581 -242.187137 
L 400.065317 -235.160844 
L 404.560053 -228.973804 
L 409.054789 -223.569218 
L 413.549525 -218.885278 
L 418.044261 -214.857445 
L 422.538997 -211.420436 
L 427.033733 -208.509902 
L 431.528469 -206.063781 
L 436.023205 -204.023337 
L 440.51794 -202.333916 
L 445.012676 -200.945431 
L 449.507412 -199.812626 
L 454.002148 -198.89514 
L 458.496884 -198.157419 
L 462.99162 -197.568507 
L 467.486356 -197.101754 
L 471.981092 -196.734456 
L 476.475828 -196.447472 
L 480.970564 -196.224826 
L 485.4653 -196.05331 
L 489.960036 -195.92211 
L 494.454771 -195.822451 
L 498.949507 -195.747279 
L 503.444243 -195.690971 
L 507.938979 -195.649087 
L 507.938979 -195.538011 
L 507.938979 -195.538011 
L 503.444243 -195.538011 
L 498.949507 -195.538011 
L 494.454771 -195.538011 
L 489.960036 -195.538011 
L 485.4653 -195.538011 
L 480.970564 -195.538011 
L 476.475828 -195.538011 
L 471.981092 -195.538011 
L 467.486356 -195.538011 
L 462.99162 -195.538011 
L 458.496884 -195.538011 
L 454.002148 -195.538011 
L 449.507412 -195.538011 
L 445.012676 -195.538011 
L 440.51794 -195.538011 
L 436.023205 -195.538011 
L 431.528469 -195.538011 
L 427.033733 -195.538011 
L 422.538997 -195.538011 
L 418.044261 -195.538011 
L 413.549525 -195.538011 
L 409.054789 -195.538011 
L 404.560053 -195.538011 
L 400.065317 -195.538011 
L 395.570581 -195.538011 
L 391.075845 -195.538011 
L 386.581109 -195.538011 
L 382.086374 -195.538011 
L 377.591638 -195.538011 
L 373.096902 -195.538011 
L 368.602166 -195.538011 
L 364.10743 -195.538011 
L 359.612694 -195.538011 
L 355.117958 -195.538011 
L 350.623222 -195.538011 
L 346.128486 -195.538011 
L 341.63375 -195.538011 
L 337.139014 -195.538011 
L 332.644278 -195.538011 
L 328.149543 -195.538011 
L 323.654807 -195.538011 
L 319.160071 -195.538011 
L 314.665335 -195.538011 
L 310.170599 -195.538011 
L 305.675863 -195.538011 
L 301.181127 -195.538011 
L 296.686391 -195.538011 
L 292.191655 -195.538011 
L 287.696919 -195.538011 
L 283.202183 -195.538011 
L 278.707447 -195.538011 
L 274.212712 -195.538011 
L 269.717976 -195.538011 
L 265.22324 -195.538011 
L 260.728504 -195.538011 
L 256.233768 -195.538011 
L 251.739032 -195.538011 
L 247.244296 -195.538011 
L 242.74956 -195.538011 
L 238.254824 -195.538011 
L 233.760088 -195.538011 
L 229.265352 -195.538011 
L 224.770616 -195.538011 
L 220.275881 -195.538011 
L 215.781145 -195.538011 
L 211.286409 -195.538011 
L 206.791673 -195.538011 
L 202.296937 -195.538011 
L 197.802201 -195.538011 
L 193.307465 -195.538011 
L 188.812729 -195.538011 
L 184.317993 -195.538011 
L 179.823257 -195.538011 
L 175.328521 -195.538011 
L 170.833785 -195.538011 
L 166.33905 -195.538011 
L 161.844314 -195.538011 
L 157.349578 -195.538011 
L 152.854842 -195.538011 
L 148.360106 -195.538011 
L 143.86537 -195.538011 
L 139.370634 -195.538011 
L 134.875898 -195.538011 
L 130.381162 -195.538011 
L 125.886426 -195.538011 
L 121.39169 -195.538011 
L 116.896954 -195.538011 
L 112.402219 -195.538011 
L 107.907483 -195.538011 
L 103.412747 -195.538011 
L 98.918011 -195.538011 
L 94.423275 -195.538011 
L 89.928539 -195.538011 
L 85.433803 -195.538011 
L 80.939067 -195.538011 
L 76.444331 -195.538011 
L 71.949595 -195.538011 
L 67.454859 -195.538011 
L 62.960123 -195.538011 
z
" id="m57c3335325" style="stroke:#ff6384;stroke-opacity:0.5;"/>
    </defs>
    <g clip-path="url(#pae78d56b62)">
     <use style="fill:#ff6384;fill-opacity:0.5;stroke:#ff6384;stroke-opacity:0.5;" x="0" xlink:href="#m57c3335325" y="581.789375"/>
    </g>
   </g>
   <g id="PolyCollection_2">
    <defs>
     <path d="M 78.170757 -195.538011 
L 78.170757 -195.650004 
L 82.628684 -195.692234 
L 87.086612 -195.749007 
L 91.544539 -195.8248 
L 96.002466 -195.925281 
L 100.460394 -196.057565 
L 104.918321 -196.230497 
L 109.376249 -196.454982 
L 113.834176 -196.744335 
L 118.292104 -197.114666 
L 122.750031 -197.585273 
L 127.207959 -198.179047 
L 131.665886 -198.922859 
L 136.123814 -199.847921 
L 140.581741 -200.990079 
L 145.039669 -202.390029 
L 149.497596 -204.093399 
L 153.955524 -206.150691 
L 158.413451 -208.617009 
L 162.871379 -211.551575 
L 167.329306 -215.016962 
L 171.787234 -219.078053 
L 176.245161 -223.800667 
L 180.703089 -229.249878 
L 185.161016 -235.488004 
L 189.618944 -242.572312 
L 194.076871 -250.552459 
L 198.534799 -259.467747 
L 202.992726 -269.344261 
L 207.450654 -280.192004 
L 211.908581 -292.002137 
L 216.366509 -304.744465 
L 220.824436 -318.365297 
L 225.282364 -332.785841 
L 229.740291 -347.901251 
L 234.198219 -363.580456 
L 238.656146 -379.666871 
L 243.114074 -395.980052 
L 247.572001 -412.31833 
L 252.029929 -428.4624 
L 256.487856 -444.179822 
L 260.945784 -459.230303 
L 265.403711 -473.371627 
L 269.861639 -486.366018 
L 274.319566 -497.986726 
L 278.777494 -508.02457 
L 283.235421 -516.294181 
L 287.693349 -522.639693 
L 292.151276 -526.939623 
L 296.609204 -529.110739 
L 301.067131 -529.110739 
L 305.525058 -526.939623 
L 309.982986 -522.639693 
L 314.440913 -516.294181 
L 318.898841 -508.02457 
L 323.356768 -497.986726 
L 327.814696 -486.366018 
L 332.272623 -473.371627 
L 336.730551 -459.230303 
L 341.188478 -444.179822 
L 345.646406 -428.4624 
L 350.104333 -412.31833 
L 354.562261 -395.980052 
L 359.020188 -379.666871 
L 363.478116 -363.580456 
L 367.936043 -347.901251 
L 372.393971 -332.785841 
L 376.851898 -318.365297 
L 381.309826 -304.744465 
L 385.767753 -292.002137 
L 390.225681 -280.192004 
L 394.683608 -269.344261 
L 399.141536 -259.467747 
L 403.599463 -250.552459 
L 408.057391 -242.572312 
L 412.515318 -235.488004 
L 416.973246 -229.249878 
L 421.431173 -223.800667 
L 425.889101 -219.078053 
L 430.347028 -215.016962 
L 434.804956 -211.551575 
L 439.262883 -208.617009 
L 443.720811 -206.150691 
L 448.178738 -204.093399 
L 452.636666 -202.390029 
L 457.094593 -200.990079 
L 461.552521 -199.847921 
L 466.010448 -198.922859 
L 470.468376 -198.179047 
L 474.926303 -197.585273 
L 479.384231 -197.114666 
L 483.842158 -196.744335 
L 488.300086 -196.454982 
L 492.758013 -196.230497 
L 497.215941 -196.057565 
L 501.673868 -195.925281 
L 506.131796 -195.8248 
L 510.589723 -195.749007 
L 515.04765 -195.692234 
L 519.505578 -195.650004 
L 519.505578 -195.538011 
L 519.505578 -195.538011 
L 515.04765 -195.538011 
L 510.589723 -195.538011 
L 506.131796 -195.538011 
L 501.673868 -195.538011 
L 497.215941 -195.538011 
L 492.758013 -195.538011 
L 488.300086 -195.538011 
L 483.842158 -195.538011 
L 479.384231 -195.538011 
L 474.926303 -195.538011 
L 470.468376 -195.538011 
L 466.010448 -195.538011 
L 461.552521 -195.538011 
L 457.094593 -195.538011 
L 452.636666 -195.538011 
L 448.178738 -195.538011 
L 443.720811 -195.538011 
L 439.262883 -195.538011 
L 434.804956 -195.538011 
L 430.347028 -195.538011 
L 425.889101 -195.538011 
L 421.431173 -195.538011 
L 416.973246 -195.538011 
L 412.515318 -195.538011 
L 408.057391 -195.538011 
L 403.599463 -195.538011 
L 399.141536 -195.538011 
L 394.683608 -195.538011 
L 390.225681 -195.538011 
L 385.767753 -195.538011 
L 381.309826 -195.538011 
L 376.851898 -195.538011 
L 372.393971 -195.538011 
L 367.936043 -195.538011 
L 363.478116 -195.538011 
L 359.020188 -195.538011 
L 354.562261 -195.538011 
L 350.104333 -195.538011 
L 345.646406 -195.538011 
L 341.188478 -195.538011 
L 336.730551 -195.538011 
L 332.272623 -195.538011 
L 327.814696 -195.538011 
L 323.356768 -195.538011 
L 318.898841 -195.538011 
L 314.440913 -195.538011 
L 309.982986 -195.538011 
L 305.525058 -195.538011 
L 301.067131 -195.538011 
L 296.609204 -195.538011 
L 292.151276 -195.538011 
L 287.693349 -195.538011 
L 283.235421 -195.538011 
L 278.777494 -195.538011 
L 274.319566 -195.538011 
L 269.861639 -195.538011 
L 265.403711 -195.538011 
L 260.945784 -195.538011 
L 256.487856 -195.538011 
L 252.029929 -195.538011 
L 247.572001 -195.538011 
L 243.114074 -195.538011 
L 238.656146 -195.538011 
L 234.198219 -195.538011 
L 229.740291 -195.538011 
L 225.282364 -195.538011 
L 220.824436 -195.538011 
L 216.366509 -195.538011 
L 211.908581 -195.538011 
L 207.450654 -195.538011 
L 202.992726 -195.538011 
L 198.534799 -195.538011 
L 194.076871 -195.538011 
L 189.618944 -195.538011 
L 185.161016 -195.538011 
L 180.703089 -195.538011 
L 176.245161 -195.538011 
L 171.787234 -195.538011 
L 167.329306 -195.538011 
L 162.871379 -195.538011 
L 158.413451 -195.538011 
L 153.955524 -195.538011 
L 149.497596 -195.538011 
L 145.039669 -195.538011 
L 140.581741 -195.538011 
L 136.123814 -195.538011 
L 131.665886 -195.538011 
L 127.207959 -195.538011 
L 122.750031 -195.538011 
L 118.292104 -195.538011 
L 113.834176 -195.538011 
L 109.376249 -195.538011 
L 104.918321 -195.538011 
L 100.460394 -195.538011 
L 96.002466 -195.538011 
L 91.544539 -195.538011 
L 87.086612 -195.538011 
L 82.628684 -195.538011 
L 78.170757 -195.538011 
z
" id="md95e619668" style="stroke:#36a2eb;stroke-opacity:0.5;"/>
    </defs>
    <g clip-path="url(#pae78d56b62)">
     <use style="fill:#36a2eb;fill-opacity:0.5;stroke:#36a2eb;stroke-opacity:0.5;" x="0" xlink:href="#md95e619668" y="581.789375"/>
    </g>
   </g>
   <g id="line2d_1">
    <path clip-path="url(#pae78d56b62)" d="M 62.960123 386.140288 
L 67.454859 386.098404 
L 71.949595 386.042096 
L 76.444331 385.966924 
L 80.939067 385.867265 
L 85.433803 385.736065 
L 89.928539 385.564549 
L 94.423275 385.341903 
L 98.918011 385.054919 
L 103.412747 384.687621 
L 107.907483 384.220868 
L 112.402219 383.631956 
L 116.896954 382.894235 
L 121.39169 381.976749 
L 125.886426 380.843944 
L 130.381162 379.455459 
L 134.875898 377.766038 
L 139.370634 375.725594 
L 143.86537 373.279473 
L 148.360106 370.368939 
L 152.854842 366.93193 
L 157.349578 362.904097 
L 161.844314 358.220157 
L 166.33905 352.815571 
L 170.833785 346.628531 
L 175.328521 339.602238 
L 179.823257 331.687442 
L 184.317993 322.845164 
L 188.812729 313.049531 
L 193.307465 302.290622 
L 197.802201 290.577204 
L 202.296937 277.939227 
L 206.791673 264.429939 
L 211.286409 250.127488 
L 215.781145 235.135862 
L 220.275881 219.585058 
L 224.770616 203.630378 
L 229.265352 187.450789 
L 233.760088 171.246309 
L 238.254824 155.234446 
L 242.74956 139.645738 
L 247.244296 124.718509 
L 251.739032 110.692992 
L 256.233768 97.805014 
L 260.728504 86.279471 
L 265.22324 76.32383 
L 269.717976 68.12194 
L 274.212712 61.828393 
L 278.707447 57.563676 
L 283.202183 55.41034 
L 287.696919 55.41034 
L 292.191655 57.563676 
L 296.686391 61.828393 
L 301.181127 68.12194 
L 305.675863 76.32383 
L 310.170599 86.279471 
L 314.665335 97.805014 
L 319.160071 110.692992 
L 323.654807 124.718509 
L 328.149543 139.645738 
L 332.644278 155.234446 
L 337.139014 171.246309 
L 341.63375 187.450789 
L 346.128486 203.630378 
L 350.623222 219.585058 
L 355.117958 235.135862 
L 359.612694 250.127488 
L 364.10743 264.429939 
L 368.602166 277.939227 
L 373.096902 290.577204 
L 377.591638 302.290622 
L 382.086374 313.049531 
L 386.581109 322.845164 
L 391.075845 331.687442 
L 395.570581 339.602238 
L 400.065317 346.628531 
L 404.560053 352.815571 
L 409.054789 358.220157 
L 413.549525 362.904097 
L 418.044261 366.93193 
L 422.538997 370.368939 
L 427.033733 373.279473 
L 431.528469 375.725594 
L 436.023205 377.766038 
L 440.51794 379.455459 
L 445.012676 380.843944 
L 449.507412 381.976749 
L 454.002148 382.894235 
L 458.496884 383.631956 
L 462.99162 384.220868 
L 467.486356 384.687621 
L 471.981092 385.054919 
L 476.475828 385.341903 
L 480.970564 385.564549 
L 485.4653 385.736065 
L 489.960036 385.867265 
L 494.454771 385.966924 
L 498.949507 386.042096 
L 503.444243 386.098404 
L 507.938979 386.140288 
" style="fill:none;stroke:#ff6384;stroke-linecap:square;"/>
   </g>
   <g id="line2d_2">
    <path clip-path="url(#pae78d56b62)" d="M 78.170757 386.139371 
L 82.628684 386.097141 
L 87.086612 386.040368 
L 91.544539 385.964575 
L 96.002466 385.864094 
L 100.460394 385.73181 
L 104.918321 385.558878 
L 109.376249 385.334393 
L 113.834176 385.04504 
L 118.292104 384.674709 
L 122.750031 384.204102 
L 127.207959 383.610328 
L 131.665886 382.866516 
L 136.123814 381.941454 
L 140.581741 380.799296 
L 145.039669 379.399346 
L 149.497596 377.695976 
L 153.955524 375.638684 
L 158.413451 373.172366 
L 162.871379 370.2378 
L 167.329306 366.772413 
L 171.787234 362.711322 
L 176.245161 357.988708 
L 180.703089 352.539497 
L 185.161016 346.301371 
L 189.618944 339.217063 
L 194.076871 331.236916 
L 198.534799 322.321628 
L 202.992726 312.445114 
L 207.450654 301.597371 
L 211.908581 289.787238 
L 216.366509 277.04491 
L 220.824436 263.424078 
L 225.282364 249.003534 
L 229.740291 233.888124 
L 234.198219 218.208919 
L 238.656146 202.122504 
L 243.114074 185.809323 
L 247.572001 169.471045 
L 252.029929 153.326975 
L 256.487856 137.609553 
L 260.945784 122.559072 
L 265.403711 108.417748 
L 269.861639 95.423357 
L 274.319566 83.802649 
L 278.777494 73.764805 
L 283.235421 65.495194 
L 287.693349 59.149682 
L 292.151276 54.849752 
L 296.609204 52.678636 
L 301.067131 52.678636 
L 305.525058 54.849752 
L 309.982986 59.149682 
L 314.440913 65.495194 
L 318.898841 73.764805 
L 323.356768 83.802649 
L 327.814696 95.423357 
L 332.272623 108.417748 
L 336.730551 122.559072 
L 341.188478 137.609553 
L 345.646406 153.326975 
L 350.104333 169.471045 
L 354.562261 185.809323 
L 359.020188 202.122504 
L 363.478116 218.208919 
L 367.936043 233.888124 
L 372.393971 249.003534 
L 376.851898 263.424078 
L 381.309826 277.04491 
L 385.767753 289.787238 
L 390.225681 301.597371 
L 394.683608 312.445114 
L 399.141536 322.321628 
L 403.599463 331.236916 
L 408.057391 339.217063 
L 412.515318 346.301371 
L 416.973246 352.539497 
L 421.431173 357.988708 
L 425.889101 362.711322 
L 430.347028 366.772413 
L 434.804956 370.2378 
L 439.262883 373.172366 
L 443.720811 375.638684 
L 448.178738 377.695976 
L 452.636666 379.399346 
L 457.094593 380.799296 
L 461.552521 381.941454 
L 466.010448 382.866516 
L 470.468376 383.610328 
L 474.926303 384.204102 
L 479.384231 384.674709 
L 483.842158 385.04504 
L 488.300086 385.334393 
L 492.758013 385.558878 
L 497.215941 385.73181 
L 501.673868 385.864094 
L 506.131796 385.964575 
L 510.589723 386.040368 
L 515.04765 386.097141 
L 519.505578 386.139371 
" style="fill:none;stroke:#36a2eb;stroke-linecap:square;"/>
   </g>
   <g id="patch_3">
    <path d="M 40.132851 402.93 
L 542.332851 402.93 
" style="fill:none;stroke:#000000;stroke-linecap:square;stroke-linejoin:miter;stroke-width:0.8;"/>
   </g>
   <g id="legend_1">
    <g id="patch_4">
     <path d="M 423.711288 88.29875 
L 532.532851 88.29875 
Q 535.332851 88.29875 535.332851 85.49875 
L 535.332851 45.8 
Q 535.332851 43 532.532851 43 
L 423.711288 43 
Q 420.911288 43 420.911288 45.8 
L 420.911288 85.49875 
Q 420.911288 88.29875 423.711288 88.29875 
z
" style="fill:#ffffff;opacity:0.8;stroke:#cccccc;stroke-linejoin:miter;"/>
    </g>
    <g id="patch_5">
     <path d="M 426.511288 59.237813 
L 454.511288 59.237813 
L 454.511288 49.437813 
L 426.511288 49.437813 
z
" style="fill:#ff6384;opacity:0.5;stroke:#ff6384;stroke-linejoin:miter;"/>
    </g>
    <g id="text_1">
     <!-- base -->
     <defs>
      <path d="M 48.6875 27.296875 
Q 48.6875 37.203125 44.609375 42.84375 
Q 40.53125 48.484375 33.40625 48.484375 
Q 26.265625 48.484375 22.1875 42.84375 
Q 18.109375 37.203125 18.109375 27.296875 
Q 18.109375 17.390625 22.1875 11.75 
Q 26.265625 6.109375 33.40625 6.109375 
Q 40.53125 6.109375 44.609375 11.75 
Q 48.6875 17.390625 48.6875 27.296875 
z
M 18.109375 46.390625 
Q 20.953125 51.265625 25.265625 53.625 
Q 29.59375 56 35.59375 56 
Q 45.5625 56 51.78125 48.09375 
Q 58.015625 40.1875 58.015625 27.296875 
Q 58.015625 14.40625 51.78125 6.484375 
Q 45.5625 -1.421875 35.59375 -1.421875 
Q 29.59375 -1.421875 25.265625 0.953125 
Q 20.953125 3.328125 18.109375 8.203125 
L 18.109375 0 
L 9.078125 0 
L 9.078125 75.984375 
L 18.109375 75.984375 
z
" id="DejaVuSans-98"/>
      <path d="M 34.28125 27.484375 
Q 23.390625 27.484375 19.1875 25 
Q 14.984375 22.515625 14.984375 16.5 
Q 14.984375 11.71875 18.140625 8.90625 
Q 21.296875 6.109375 26.703125 6.109375 
Q 34.1875 6.109375 38.703125 11.40625 
Q 43.21875 16.703125 43.21875 25.484375 
L 43.21875 27.484375 
z
M 52.203125 31.203125 
L 52.203125 0 
L 43.21875 0 
L 43.21875 8.296875 
Q 40.140625 3.328125 35.546875 0.953125 
Q 30.953125 -1.421875 24.3125 -1.421875 
Q 15.921875 -1.421875 10.953125 3.296875 
Q 6 8.015625 6 15.921875 
Q 6 25.140625 12.171875 29.828125 
Q 18.359375 34.515625 30.609375 34.515625 
L 43.21875 34.515625 
L 43.21875 35.40625 
Q 43.21875 41.609375 39.140625 45 
Q 35.0625 48.390625 27.6875 48.390625 
Q 23 48.390625 18.546875 47.265625 
Q 14.109375 46.140625 10.015625 43.890625 
L 10.015625 52.203125 
Q 14.9375 54.109375 19.578125 55.046875 
Q 24.21875 56 28.609375 56 
Q 40.484375 56 46.34375 49.84375 
Q 52.203125 43.703125 52.203125 31.203125 
z
" id="DejaVuSans-97"/>
      <path d="M 44.28125 53.078125 
L 44.28125 44.578125 
Q 40.484375 46.53125 36.375 47.5 
Q 32.28125 48.484375 27.875 48.484375 
Q 21.1875 48.484375 17.84375 46.4375 
Q 14.5 44.390625 14.5 40.28125 
Q 14.5 37.15625 16.890625 35.375 
Q 19.28125 33.59375 26.515625 31.984375 
L 29.59375 31.296875 
Q 39.15625 29.25 43.1875 25.515625 
Q 47.21875 21.78125 47.21875 15.09375 
Q 47.21875 7.46875 41.1875 3.015625 
Q 35.15625 -1.421875 24.609375 -1.421875 
Q 20.21875 -1.421875 15.453125 -0.5625 
Q 10.6875 0.296875 5.421875 2 
L 5.421875 11.28125 
Q 10.40625 8.6875 15.234375 7.390625 
Q 20.0625 6.109375 24.8125 6.109375 
Q 31.15625 6.109375 34.5625 8.28125 
Q 37.984375 10.453125 37.984375 14.40625 
Q 37.984375 18.0625 35.515625 20.015625 
Q 33.0625 21.96875 24.703125 23.78125 
L 21.578125 24.515625 
Q 13.234375 26.265625 9.515625 29.90625 
Q 5.8125 33.546875 5.8125 39.890625 
Q 5.8125 47.609375 11.28125 51.796875 
Q 16.75 56 26.8125 56 
Q 31.78125 56 36.171875 55.265625 
Q 40.578125 54.546875 44.28125 53.078125 
z
" id="DejaVuSans-115"/>
      <path d="M 56.203125 29.59375 
L 56.203125 25.203125 
L 14.890625 25.203125 
Q 15.484375 15.921875 20.484375 11.0625 
Q 25.484375 6.203125 34.421875 6.203125 
Q 39.59375 6.203125 44.453125 7.46875 
Q 49.3125 8.734375 54.109375 11.28125 
L 54.109375 2.78125 
Q 49.265625 0.734375 44.1875 -0.34375 
Q 39.109375 -1.421875 33.890625 -1.421875 
Q 20.796875 -1.421875 13.15625 6.1875 
Q 5.515625 13.8125 5.515625 26.8125 
Q 5.515625 40.234375 12.765625 48.109375 
Q 20.015625 56 32.328125 56 
Q 43.359375 56 49.78125 48.890625 
Q 56.203125 41.796875 56.203125 29.59375 
z
M 47.21875 32.234375 
Q 47.125 39.59375 43.09375 43.984375 
Q 39.0625 48.390625 32.421875 48.390625 
Q 24.90625 48.390625 20.390625 44.140625 
Q 15.875 39.890625 15.1875 32.171875 
z
" id="DejaVuSans-101"/>
     </defs>
     <g transform="translate(465.711288 59.237813)scale(0.14 -0.14)">
      <use xlink:href="#DejaVuSans-98"/>
      <use x="63.476562" xlink:href="#DejaVuSans-97"/>
      <use x="124.755859" xlink:href="#DejaVuSans-115"/>
      <use x="176.855469" xlink:href="#DejaVuSans-101"/>
     </g>
    </g>
    <g id="patch_6">
     <path d="M 426.511288 79.787188 
L 454.511288 79.787188 
L 454.511288 69.987188 
L 426.511288 69.987188 
z
" style="fill:#36a2eb;opacity:0.5;stroke:#36a2eb;stroke-linejoin:miter;"/>
    </g>
    <g id="text_2">
     <!-- reminder -->
     <defs>
      <path d="M 41.109375 46.296875 
Q 39.59375 47.171875 37.8125 47.578125 
Q 36.03125 48 33.890625 48 
Q 26.265625 48 22.1875 43.046875 
Q 18.109375 38.09375 18.109375 28.8125 
L 18.109375 0 
L 9.078125 0 
L 9.078125 54.6875 
L 18.109375 54.6875 
L 18.109375 46.1875 
Q 20.953125 51.171875 25.484375 53.578125 
Q 30.03125 56 36.53125 56 
Q 37.453125 56 38.578125 55.875 
Q 39.703125 55.765625 41.0625 55.515625 
z
" id="DejaVuSans-114"/>
      <path d="M 52 44.1875 
Q 55.375 50.25 60.0625 53.125 
Q 64.75 56 71.09375 56 
Q 79.640625 56 84.28125 50.015625 
Q 88.921875 44.046875 88.921875 33.015625 
L 88.921875 0 
L 79.890625 0 
L 79.890625 32.71875 
Q 79.890625 40.578125 77.09375 44.375 
Q 74.3125 48.1875 68.609375 48.1875 
Q 61.625 48.1875 57.5625 43.546875 
Q 53.515625 38.921875 53.515625 30.90625 
L 53.515625 0 
L 44.484375 0 
L 44.484375 32.71875 
Q 44.484375 40.625 41.703125 44.40625 
Q 38.921875 48.1875 33.109375 48.1875 
Q 26.21875 48.1875 22.15625 43.53125 
Q 18.109375 38.875 18.109375 30.90625 
L 18.109375 0 
L 9.078125 0 
L 9.078125 54.6875 
L 18.109375 54.6875 
L 18.109375 46.1875 
Q 21.1875 51.21875 25.484375 53.609375 
Q 29.78125 56 35.6875 56 
Q 41.65625 56 45.828125 52.96875 
Q 50 49.953125 52 44.1875 
z
" id="DejaVuSans-109"/>
      <path d="M 9.421875 54.6875 
L 18.40625 54.6875 
L 18.40625 0 
L 9.421875 0 
z
M 9.421875 75.984375 
L 18.40625 75.984375 
L 18.40625 64.59375 
L 9.421875 64.59375 
z
" id="DejaVuSans-105"/>
      <path d="M 54.890625 33.015625 
L 54.890625 0 
L 45.90625 0 
L 45.90625 32.71875 
Q 45.90625 40.484375 42.875 44.328125 
Q 39.84375 48.1875 33.796875 48.1875 
Q 26.515625 48.1875 22.3125 43.546875 
Q 18.109375 38.921875 18.109375 30.90625 
L 18.109375 0 
L 9.078125 0 
L 9.078125 54.6875 
L 18.109375 54.6875 
L 18.109375 46.1875 
Q 21.34375 51.125 25.703125 53.5625 
Q 30.078125 56 35.796875 56 
Q 45.21875 56 50.046875 50.171875 
Q 54.890625 44.34375 54.890625 33.015625 
z
" id="DejaVuSans-110"/>
      <path d="M 45.40625 46.390625 
L 45.40625 75.984375 
L 54.390625 75.984375 
L 54.390625 0 
L 45.40625 0 
L 45.40625 8.203125 
Q 42.578125 3.328125 38.25 0.953125 
Q 33.9375 -1.421875 27.875 -1.421875 
Q 17.96875 -1.421875 11.734375 6.484375 
Q 5.515625 14.40625 5.515625 27.296875 
Q 5.515625 40.1875 11.734375 48.09375 
Q 17.96875 56 27.875 56 
Q 33.9375 56 38.25 53.625 
Q 42.578125 51.265625 45.40625 46.390625 
z
M 14.796875 27.296875 
Q 14.796875 17.390625 18.875 11.75 
Q 22.953125 6.109375 30.078125 6.109375 
Q 37.203125 6.109375 41.296875 11.75 
Q 45.40625 17.390625 45.40625 27.296875 
Q 45.40625 37.203125 41.296875 42.84375 
Q 37.203125 48.484375 30.078125 48.484375 
Q 22.953125 48.484375 18.875 42.84375 
Q 14.796875 37.203125 14.796875 27.296875 
z
" id="DejaVuSans-100"/>
     </defs>
     <g transform="translate(465.711288 79.787188)scale(0.14 -0.14)">
      <use xlink:href="#DejaVuSans-114"/>
      <use x="41.082031" xlink:href="#DejaVuSans-101"/>
      <use x="102.605469" xlink:href="#DejaVuSans-109"/>
      <use x="200.017578" xlink:href="#DejaVuSans-105"/>
      <use x="227.800781" xlink:href="#DejaVuSans-110"/>
      <use x="291.179688" xlink:href="#DejaVuSans-100"/>
      <use x="354.65625" xlink:href="#DejaVuSans-101"/>
      <use x="416.179688" xlink:href="#DejaVuSans-114"/>
     </g>
    </g>
   </g>
  </g>
  <g id="axes_2">
   <g id="patch_7">
    <path d="M 40.132851 525.24 
L 542.332851 525.24 
L 542.332851 402.93 
L 40.132851 402.93 
z
" style="fill:none;"/>
   </g>
   <g id="patch_8">
    <path clip-path="url(#pa5be9c38a4)" d="M 176.429732 519.680455 
L 394.469371 519.680455 
L 394.469371 482.616818 
L 176.429732 482.616818 
z
" style="fill:#ff6384;opacity:0.5;"/>
   </g>
   <g id="patch_9">
    <path clip-path="url(#pa5be9c38a4)" d="M 190.711136 445.553182 
L 406.965199 445.553182 
L 406.965199 408.489545 
L 190.711136 408.489545 
z
" style="fill:#36a2eb;opacity:0.5;"/>
   </g>
   <g id="matplotlib.axis_1">
    <g id="xtick_1">
     <g id="line2d_3">
      <defs>
       <path d="M 0 0 
L 0 3.5 
" id="m757b440e5d" style="stroke:#000000;stroke-width:0.8;"/>
      </defs>
      <g>
       <use style="stroke:#000000;stroke-width:0.8;" x="47.132187" xlink:href="#m757b440e5d" y="525.24"/>
      </g>
     </g>
     <g id="text_3">
      <!-- 5.0 -->
      <defs>
       <path d="M 10.796875 72.90625 
L 49.515625 72.90625 
L 49.515625 64.59375 
L 19.828125 64.59375 
L 19.828125 46.734375 
Q 21.96875 47.46875 24.109375 47.828125 
Q 26.265625 48.1875 28.421875 48.1875 
Q 40.625 48.1875 47.75 41.5 
Q 54.890625 34.8125 54.890625 23.390625 
Q 54.890625 11.625 47.5625 5.09375 
Q 40.234375 -1.421875 26.90625 -1.421875 
Q 22.3125 -1.421875 17.546875 -0.640625 
Q 12.796875 0.140625 7.71875 1.703125 
L 7.71875 11.625 
Q 12.109375 9.234375 16.796875 8.0625 
Q 21.484375 6.890625 26.703125 6.890625 
Q 35.15625 6.890625 40.078125 11.328125 
Q 45.015625 15.765625 45.015625 23.390625 
Q 45.015625 31 40.078125 35.4375 
Q 35.15625 39.890625 26.703125 39.890625 
Q 22.75 39.890625 18.8125 39.015625 
Q 14.890625 38.140625 10.796875 36.28125 
z
" id="DejaVuSans-53"/>
       <path d="M 10.6875 12.40625 
L 21 12.40625 
L 21 0 
L 10.6875 0 
z
" id="DejaVuSans-46"/>
       <path d="M 31.78125 66.40625 
Q 24.171875 66.40625 20.328125 58.90625 
Q 16.5 51.421875 16.5 36.375 
Q 16.5 21.390625 20.328125 13.890625 
Q 24.171875 6.390625 31.78125 6.390625 
Q 39.453125 6.390625 43.28125 13.890625 
Q 47.125 21.390625 47.125 36.375 
Q 47.125 51.421875 43.28125 58.90625 
Q 39.453125 66.40625 31.78125 66.40625 
z
M 31.78125 74.21875 
Q 44.046875 74.21875 50.515625 64.515625 
Q 56.984375 54.828125 56.984375 36.375 
Q 56.984375 17.96875 50.515625 8.265625 
Q 44.046875 -1.421875 31.78125 -1.421875 
Q 19.53125 -1.421875 13.0625 8.265625 
Q 6.59375 17.96875 6.59375 36.375 
Q 6.59375 54.828125 13.0625 64.515625 
Q 19.53125 74.21875 31.78125 74.21875 
z
" id="DejaVuSans-48"/>
      </defs>
      <g transform="translate(36 542.877813)scale(0.14 -0.14)">
       <use xlink:href="#DejaVuSans-53"/>
       <use x="63.623047" xlink:href="#DejaVuSans-46"/>
       <use x="95.410156" xlink:href="#DejaVuSans-48"/>
      </g>
     </g>
    </g>
    <g id="xtick_2">
     <g id="line2d_4">
      <g>
       <use style="stroke:#000000;stroke-width:0.8;" x="114.075267" xlink:href="#m757b440e5d" y="525.24"/>
      </g>
     </g>
     <g id="text_4">
      <!-- 5.5 -->
      <g transform="translate(102.94308 542.877813)scale(0.14 -0.14)">
       <use xlink:href="#DejaVuSans-53"/>
       <use x="63.623047" xlink:href="#DejaVuSans-46"/>
       <use x="95.410156" xlink:href="#DejaVuSans-53"/>
      </g>
     </g>
    </g>
    <g id="xtick_3">
     <g id="line2d_5">
      <g>
       <use style="stroke:#000000;stroke-width:0.8;" x="181.018347" xlink:href="#m757b440e5d" y="525.24"/>
      </g>
     </g>
     <g id="text_5">
      <!-- 6.0 -->
      <defs>
       <path d="M 33.015625 40.375 
Q 26.375 40.375 22.484375 35.828125 
Q 18.609375 31.296875 18.609375 23.390625 
Q 18.609375 15.53125 22.484375 10.953125 
Q 26.375 6.390625 33.015625 6.390625 
Q 39.65625 6.390625 43.53125 10.953125 
Q 47.40625 15.53125 47.40625 23.390625 
Q 47.40625 31.296875 43.53125 35.828125 
Q 39.65625 40.375 33.015625 40.375 
z
M 52.59375 71.296875 
L 52.59375 62.3125 
Q 48.875 64.0625 45.09375 64.984375 
Q 41.3125 65.921875 37.59375 65.921875 
Q 27.828125 65.921875 22.671875 59.328125 
Q 17.53125 52.734375 16.796875 39.40625 
Q 19.671875 43.65625 24.015625 45.921875 
Q 28.375 48.1875 33.59375 48.1875 
Q 44.578125 48.1875 50.953125 41.515625 
Q 57.328125 34.859375 57.328125 23.390625 
Q 57.328125 12.15625 50.6875 5.359375 
Q 44.046875 -1.421875 33.015625 -1.421875 
Q 20.359375 -1.421875 13.671875 8.265625 
Q 6.984375 17.96875 6.984375 36.375 
Q 6.984375 53.65625 15.1875 63.9375 
Q 23.390625 74.21875 37.203125 74.21875 
Q 40.921875 74.21875 44.703125 73.484375 
Q 48.484375 72.75 52.59375 71.296875 
z
" id="DejaVuSans-54"/>
      </defs>
      <g transform="translate(169.886159 542.877813)scale(0.14 -0.14)">
       <use xlink:href="#DejaVuSans-54"/>
       <use x="63.623047" xlink:href="#DejaVuSans-46"/>
       <use x="95.410156" xlink:href="#DejaVuSans-48"/>
      </g>
     </g>
    </g>
    <g id="xtick_4">
     <g id="line2d_6">
      <g>
       <use style="stroke:#000000;stroke-width:0.8;" x="247.961427" xlink:href="#m757b440e5d" y="525.24"/>
      </g>
     </g>
     <g id="text_6">
      <!-- 6.5 -->
      <g transform="translate(236.829239 542.877813)scale(0.14 -0.14)">
       <use xlink:href="#DejaVuSans-54"/>
       <use x="63.623047" xlink:href="#DejaVuSans-46"/>
       <use x="95.410156" xlink:href="#DejaVuSans-53"/>
      </g>
     </g>
    </g>
    <g id="xtick_5">
     <g id="line2d_7">
      <g>
       <use style="stroke:#000000;stroke-width:0.8;" x="314.904506" xlink:href="#m757b440e5d" y="525.24"/>
      </g>
     </g>
     <g id="text_7">
      <!-- 7.0 -->
      <defs>
       <path d="M 8.203125 72.90625 
L 55.078125 72.90625 
L 55.078125 68.703125 
L 28.609375 0 
L 18.3125 0 
L 43.21875 64.59375 
L 8.203125 64.59375 
z
" id="DejaVuSans-55"/>
      </defs>
      <g transform="translate(303.772319 542.877813)scale(0.14 -0.14)">
       <use xlink:href="#DejaVuSans-55"/>
       <use x="63.623047" xlink:href="#DejaVuSans-46"/>
       <use x="95.410156" xlink:href="#DejaVuSans-48"/>
      </g>
     </g>
    </g>
    <g id="xtick_6">
     <g id="line2d_8">
      <g>
       <use style="stroke:#000000;stroke-width:0.8;" x="381.847586" xlink:href="#m757b440e5d" y="525.24"/>
      </g>
     </g>
     <g id="text_8">
      <!-- 7.5 -->
      <g transform="translate(370.715399 542.877813)scale(0.14 -0.14)">
       <use xlink:href="#DejaVuSans-55"/>
       <use x="63.623047" xlink:href="#DejaVuSans-46"/>
       <use x="95.410156" xlink:href="#DejaVuSans-53"/>
      </g>
     </g>
    </g>
    <g id="xtick_7">
     <g id="line2d_9">
      <g>
       <use style="stroke:#000000;stroke-width:0.8;" x="448.790666" xlink:href="#m757b440e5d" y="525.24"/>
      </g>
     </g>
     <g id="text_9">
      <!-- 8.0 -->
      <defs>
       <path d="M 31.78125 34.625 
Q 24.75 34.625 20.71875 30.859375 
Q 16.703125 27.09375 16.703125 20.515625 
Q 16.703125 13.921875 20.71875 10.15625 
Q 24.75 6.390625 31.78125 6.390625 
Q 38.8125 6.390625 42.859375 10.171875 
Q 46.921875 13.96875 46.921875 20.515625 
Q 46.921875 27.09375 42.890625 30.859375 
Q 38.875 34.625 31.78125 34.625 
z
M 21.921875 38.8125 
Q 15.578125 40.375 12.03125 44.71875 
Q 8.5 49.078125 8.5 55.328125 
Q 8.5 64.0625 14.71875 69.140625 
Q 20.953125 74.21875 31.78125 74.21875 
Q 42.671875 74.21875 48.875 69.140625 
Q 55.078125 64.0625 55.078125 55.328125 
Q 55.078125 49.078125 51.53125 44.71875 
Q 48 40.375 41.703125 38.8125 
Q 48.828125 37.15625 52.796875 32.3125 
Q 56.78125 27.484375 56.78125 20.515625 
Q 56.78125 9.90625 50.3125 4.234375 
Q 43.84375 -1.421875 31.78125 -1.421875 
Q 19.734375 -1.421875 13.25 4.234375 
Q 6.78125 9.90625 6.78125 20.515625 
Q 6.78125 27.484375 10.78125 32.3125 
Q 14.796875 37.15625 21.921875 38.8125 
z
M 18.3125 54.390625 
Q 18.3125 48.734375 21.84375 45.5625 
Q 25.390625 42.390625 31.78125 42.390625 
Q 38.140625 42.390625 41.71875 45.5625 
Q 45.3125 48.734375 45.3125 54.390625 
Q 45.3125 60.0625 41.71875 63.234375 
Q 38.140625 66.40625 31.78125 66.40625 
Q 25.390625 66.40625 21.84375 63.234375 
Q 18.3125 60.0625 18.3125 54.390625 
z
" id="DejaVuSans-56"/>
      </defs>
      <g transform="translate(437.658478 542.877813)scale(0.14 -0.14)">
       <use xlink:href="#DejaVuSans-56"/>
       <use x="63.623047" xlink:href="#DejaVuSans-46"/>
       <use x="95.410156" xlink:href="#DejaVuSans-48"/>
      </g>
     </g>
    </g>
    <g id="xtick_8">
     <g id="line2d_10">
      <g>
       <use style="stroke:#000000;stroke-width:0.8;" x="515.733746" xlink:href="#m757b440e5d" y="525.24"/>
      </g>
     </g>
     <g id="text_10">
      <!-- 8.5 -->
      <g transform="translate(504.601558 542.877813)scale(0.14 -0.14)">
       <use xlink:href="#DejaVuSans-56"/>
       <use x="63.623047" xlink:href="#DejaVuSans-46"/>
       <use x="95.410156" xlink:href="#DejaVuSans-53"/>
      </g>
     </g>
    </g>
   </g>
   <g id="line2d_11">
    <path clip-path="url(#pa5be9c38a4)" d="M 285.449551 525.24 
L 285.449551 402.93 
" style="fill:none;stroke:#ff6384;stroke-dasharray:5.55,2.4;stroke-dashoffset:0;stroke-opacity:0.8;stroke-width:1.5;"/>
   </g>
   <g id="line2d_12">
    <path clip-path="url(#pa5be9c38a4)" d="M 298.838167 525.24 
L 298.838167 402.93 
" style="fill:none;stroke:#36a2eb;stroke-dasharray:5.55,2.4;stroke-dashoffset:0;stroke-opacity:0.8;stroke-width:1.5;"/>
   </g>
   <g id="patch_10">
    <path d="M 40.132851 525.24 
L 542.332851 525.24 
" style="fill:none;stroke:#000000;stroke-linecap:square;stroke-linejoin:miter;stroke-width:0.8;"/>
   </g>
  </g>
 </g>
 <defs>
  <clipPath id="pae78d56b62">
   <rect height="366.93" width="502.2" x="40.132851" y="36"/>
  </clipPath>
  <clipPath id="pa5be9c38a4">
   <rect height="122.31" width="502.2" x="40.132851" y="402.93"/>
  </clipPath>
 </defs>
</svg>
