<?xml version="1.0" encoding="utf-8" standalone="no"?>
<!DOCTYPE svg PUBLIC "-//W3C//DTD SVG 1.1//EN"
  "http://www.w3.org/Graphics/SVG/1.1/DTD/svg11.dtd">
<!-- Created with matplotlib (https://matplotlib.org/) -->
<svg height="581.789375pt" version="1.1" viewBox="0 0 593.155041 581.789375" width="593.155041pt" xmlns="http://www.w3.org/2000/svg" xmlns:xlink="http://www.w3.org/1999/xlink">
 <defs>
  <style type="text/css">
*{stroke-linecap:butt;stroke-linejoin:round;}
  </style>
 </defs>
 <g id="figure_1">
  <g id="patch_1">
   <path d="M 0 581.789375 
L 593.155041 581.789375 
L 593.155041 0 
L 0 0 
z
" style="fill:none;"/>
  </g>
  <g id="axes_1">
   <g id="patch_2">
    <path d="M 44.600889 402.93 
L 546.800889 402.93 
L 546.800889 36 
L 44.600889 36 
z
" style="fill:none;"/>
   </g>
   <g id="PolyCollection_1">
    <defs>
     <path d="M 67.428162 -195.538011 
L 67.428162 -195.649731 
L 71.629101 -195.691859 
L 75.830041 -195.748493 
L 80.03098 -195.824102 
L 84.23192 -195.924339 
L 88.432859 -196.056301 
L 92.633799 -196.228812 
L 96.834738 -196.45275 
L 101.035678 -196.741399 
L 105.236617 -197.110829 
L 109.437557 -197.580291 
L 113.638496 -198.17262 
L 117.839436 -198.914622 
L 122.040375 -199.837433 
L 126.241315 -200.976812 
L 130.442254 -202.373354 
L 134.643194 -204.07258 
L 138.844133 -206.124865 
L 143.045073 -208.585182 
L 147.246012 -211.512606 
L 151.446952 -214.96956 
L 155.647891 -219.020768 
L 159.848831 -223.73189 
L 164.04977 -229.16784 
L 168.25071 -235.390786 
L 172.45165 -242.457854 
L 176.652589 -250.418582 
L 180.853529 -259.312174 
L 185.054468 -269.164654 
L 189.255408 -279.985999 
L 193.456347 -291.767393 
L 197.657287 -304.478712 
L 201.858226 -318.066398 
L 206.059166 -332.45185 
L 210.260105 -347.530476 
L 214.461045 -363.171526 
L 218.661984 -379.218795 
L 222.862924 -395.492278 
L 227.063863 -411.790796 
L 231.264803 -427.89558 
L 235.465742 -443.574754 
L 239.666682 -458.58861 
L 243.867621 -472.695521 
L 248.068561 -485.65829 
L 252.2695 -497.250719 
L 256.47044 -507.264136 
L 260.671379 -515.513623 
L 264.872319 -521.843694 
L 269.073258 -526.13316 
L 273.274198 -528.298992 
L 277.475137 -528.298992 
L 281.676077 -526.13316 
L 285.877016 -521.843694 
L 290.077956 -515.513623 
L 294.278895 -507.264136 
L 298.479835 -497.250719 
L 302.680774 -485.65829 
L 306.881714 -472.695521 
L 311.082653 -458.58861 
L 315.283593 -443.574754 
L 319.484532 -427.89558 
L 323.685472 -411.790796 
L 327.886411 -395.492278 
L 332.087351 -379.218795 
L 336.28829 -363.171526 
L 340.48923 -347.530476 
L 344.690169 -332.45185 
L 348.891109 -318.066398 
L 353.092048 -304.478712 
L 357.292988 -291.767393 
L 361.493927 -279.985999 
L 365.694867 -269.164654 
L 369.895806 -259.312174 
L 374.096746 -250.418582 
L 378.297685 -242.457854 
L 382.498625 -235.390786 
L 386.699564 -229.16784 
L 390.900504 -223.73189 
L 395.101443 -219.020768 
L 399.302383 -214.96956 
L 403.503322 -211.512606 
L 407.704262 -208.585182 
L 411.905201 -206.124865 
L 416.106141 -204.07258 
L 420.30708 -202.373354 
L 424.50802 -200.976812 
L 428.708959 -199.837433 
L 432.909899 -198.914622 
L 437.110838 -198.17262 
L 441.311778 -197.580291 
L 445.512717 -197.110829 
L 449.713657 -196.741399 
L 453.914596 -196.45275 
L 458.115536 -196.228812 
L 462.316475 -196.056301 
L 466.517415 -195.924339 
L 470.718354 -195.824102 
L 474.919294 -195.748493 
L 479.120233 -195.691859 
L 483.321173 -195.649731 
L 483.321173 -195.538011 
L 483.321173 -195.538011 
L 479.120233 -195.538011 
L 474.919294 -195.538011 
L 470.718354 -195.538011 
L 466.517415 -195.538011 
L 462.316475 -195.538011 
L 458.115536 -195.538011 
L 453.914596 -195.538011 
L 449.713657 -195.538011 
L 445.512717 -195.538011 
L 441.311778 -195.538011 
L 437.110838 -195.538011 
L 432.909899 -195.538011 
L 428.708959 -195.538011 
L 424.50802 -195.538011 
L 420.30708 -195.538011 
L 416.106141 -195.538011 
L 411.905201 -195.538011 
L 407.704262 -195.538011 
L 403.503322 -195.538011 
L 399.302383 -195.538011 
L 395.101443 -195.538011 
L 390.900504 -195.538011 
L 386.699564 -195.538011 
L 382.498625 -195.538011 
L 378.297685 -195.538011 
L 374.096746 -195.538011 
L 369.895806 -195.538011 
L 365.694867 -195.538011 
L 361.493927 -195.538011 
L 357.292988 -195.538011 
L 353.092048 -195.538011 
L 348.891109 -195.538011 
L 344.690169 -195.538011 
L 340.48923 -195.538011 
L 336.28829 -195.538011 
L 332.087351 -195.538011 
L 327.886411 -195.538011 
L 323.685472 -195.538011 
L 319.484532 -195.538011 
L 315.283593 -195.538011 
L 311.082653 -195.538011 
L 306.881714 -195.538011 
L 302.680774 -195.538011 
L 298.479835 -195.538011 
L 294.278895 -195.538011 
L 290.077956 -195.538011 
L 285.877016 -195.538011 
L 281.676077 -195.538011 
L 277.475137 -195.538011 
L 273.274198 -195.538011 
L 269.073258 -195.538011 
L 264.872319 -195.538011 
L 260.671379 -195.538011 
L 256.47044 -195.538011 
L 252.2695 -195.538011 
L 248.068561 -195.538011 
L 243.867621 -195.538011 
L 239.666682 -195.538011 
L 235.465742 -195.538011 
L 231.264803 -195.538011 
L 227.063863 -195.538011 
L 222.862924 -195.538011 
L 218.661984 -195.538011 
L 214.461045 -195.538011 
L 210.260105 -195.538011 
L 206.059166 -195.538011 
L 201.858226 -195.538011 
L 197.657287 -195.538011 
L 193.456347 -195.538011 
L 189.255408 -195.538011 
L 185.054468 -195.538011 
L 180.853529 -195.538011 
L 176.652589 -195.538011 
L 172.45165 -195.538011 
L 168.25071 -195.538011 
L 164.04977 -195.538011 
L 159.848831 -195.538011 
L 155.647891 -195.538011 
L 151.446952 -195.538011 
L 147.246012 -195.538011 
L 143.045073 -195.538011 
L 138.844133 -195.538011 
L 134.643194 -195.538011 
L 130.442254 -195.538011 
L 126.241315 -195.538011 
L 122.040375 -195.538011 
L 117.839436 -195.538011 
L 113.638496 -195.538011 
L 109.437557 -195.538011 
L 105.236617 -195.538011 
L 101.035678 -195.538011 
L 96.834738 -195.538011 
L 92.633799 -195.538011 
L 88.432859 -195.538011 
L 84.23192 -195.538011 
L 80.03098 -195.538011 
L 75.830041 -195.538011 
L 71.629101 -195.538011 
L 67.428162 -195.538011 
z
" id="mb4b7145723" style="stroke:#ff6384;stroke-opacity:0.5;"/>
    </defs>
    <g clip-path="url(#p05f19378dc)">
     <use style="fill:#ff6384;fill-opacity:0.5;stroke:#ff6384;stroke-opacity:0.5;" x="0" xlink:href="#mb4b7145723" y="581.789375"/>
    </g>
   </g>
   <g id="PolyCollection_2">
    <defs>
     <path d="M 109.092678 -195.538011 
L 109.092678 -195.650004 
L 113.283395 -195.692234 
L 117.474111 -195.749007 
L 121.664828 -195.8248 
L 125.855544 -195.925281 
L 130.046261 -196.057565 
L 134.236977 -196.230497 
L 138.427694 -196.454982 
L 142.618411 -196.744335 
L 146.809127 -197.114666 
L 150.999844 -197.585273 
L 155.19056 -198.179047 
L 159.381277 -198.922859 
L 163.571993 -199.847921 
L 167.76271 -200.990079 
L 171.953426 -202.390029 
L 176.144143 -204.093399 
L 180.33486 -206.150691 
L 184.525576 -208.617009 
L 188.716293 -211.551575 
L 192.907009 -215.016962 
L 197.097726 -219.078053 
L 201.288442 -223.800667 
L 205.479159 -229.249878 
L 209.669875 -235.488004 
L 213.860592 -242.572312 
L 218.051308 -250.552459 
L 222.242025 -259.467747 
L 226.432742 -269.344261 
L 230.623458 -280.192004 
L 234.814175 -292.002137 
L 239.004891 -304.744465 
L 243.195608 -318.365297 
L 247.386324 -332.785841 
L 251.577041 -347.901251 
L 255.767757 -363.580456 
L 259.958474 -379.666871 
L 264.14919 -395.980052 
L 268.339907 -412.31833 
L 272.530624 -428.4624 
L 276.72134 -444.179822 
L 280.912057 -459.230303 
L 285.102773 -473.371627 
L 289.29349 -486.366018 
L 293.484206 -497.986726 
L 297.674923 -508.02457 
L 301.865639 -516.294181 
L 306.056356 -522.639693 
L 310.247072 -526.939623 
L 314.437789 -529.110739 
L 318.628506 -529.110739 
L 322.819222 -526.939623 
L 327.009939 -522.639693 
L 331.200655 -516.294181 
L 335.391372 -508.02457 
L 339.582088 -497.986726 
L 343.772805 -486.366018 
L 347.963521 -473.371627 
L 352.154238 -459.230303 
L 356.344955 -444.179822 
L 360.535671 -428.4624 
L 364.726388 -412.31833 
L 368.917104 -395.980052 
L 373.107821 -379.666871 
L 377.298537 -363.580456 
L 381.489254 -347.901251 
L 385.67997 -332.785841 
L 389.870687 -318.365297 
L 394.061403 -304.744465 
L 398.25212 -292.002137 
L 402.442837 -280.192004 
L 406.633553 -269.344261 
L 410.82427 -259.467747 
L 415.014986 -250.552459 
L 419.205703 -242.572312 
L 423.396419 -235.488004 
L 427.587136 -229.249878 
L 431.777852 -223.800667 
L 435.968569 -219.078053 
L 440.159285 -215.016962 
L 444.350002 -211.551575 
L 448.540719 -208.617009 
L 452.731435 -206.150691 
L 456.922152 -204.093399 
L 461.112868 -202.390029 
L 465.303585 -200.990079 
L 469.494301 -199.847921 
L 473.685018 -198.922859 
L 477.875734 -198.179047 
L 482.066451 -197.585273 
L 486.257168 -197.114666 
L 490.447884 -196.744335 
L 494.638601 -196.454982 
L 498.829317 -196.230497 
L 503.020034 -196.057565 
L 507.21075 -195.925281 
L 511.401467 -195.8248 
L 515.592183 -195.749007 
L 519.7829 -195.692234 
L 523.973616 -195.650004 
L 523.973616 -195.538011 
L 523.973616 -195.538011 
L 519.7829 -195.538011 
L 515.592183 -195.538011 
L 511.401467 -195.538011 
L 507.21075 -195.538011 
L 503.020034 -195.538011 
L 498.829317 -195.538011 
L 494.638601 -195.538011 
L 490.447884 -195.538011 
L 486.257168 -195.538011 
L 482.066451 -195.538011 
L 477.875734 -195.538011 
L 473.685018 -195.538011 
L 469.494301 -195.538011 
L 465.303585 -195.538011 
L 461.112868 -195.538011 
L 456.922152 -195.538011 
L 452.731435 -195.538011 
L 448.540719 -195.538011 
L 444.350002 -195.538011 
L 440.159285 -195.538011 
L 435.968569 -195.538011 
L 431.777852 -195.538011 
L 427.587136 -195.538011 
L 423.396419 -195.538011 
L 419.205703 -195.538011 
L 415.014986 -195.538011 
L 410.82427 -195.538011 
L 406.633553 -195.538011 
L 402.442837 -195.538011 
L 398.25212 -195.538011 
L 394.061403 -195.538011 
L 389.870687 -195.538011 
L 385.67997 -195.538011 
L 381.489254 -195.538011 
L 377.298537 -195.538011 
L 373.107821 -195.538011 
L 368.917104 -195.538011 
L 364.726388 -195.538011 
L 360.535671 -195.538011 
L 356.344955 -195.538011 
L 352.154238 -195.538011 
L 347.963521 -195.538011 
L 343.772805 -195.538011 
L 339.582088 -195.538011 
L 335.391372 -195.538011 
L 331.200655 -195.538011 
L 327.009939 -195.538011 
L 322.819222 -195.538011 
L 318.628506 -195.538011 
L 314.437789 -195.538011 
L 310.247072 -195.538011 
L 306.056356 -195.538011 
L 301.865639 -195.538011 
L 297.674923 -195.538011 
L 293.484206 -195.538011 
L 289.29349 -195.538011 
L 285.102773 -195.538011 
L 280.912057 -195.538011 
L 276.72134 -195.538011 
L 272.530624 -195.538011 
L 268.339907 -195.538011 
L 264.14919 -195.538011 
L 259.958474 -195.538011 
L 255.767757 -195.538011 
L 251.577041 -195.538011 
L 247.386324 -195.538011 
L 243.195608 -195.538011 
L 239.004891 -195.538011 
L 234.814175 -195.538011 
L 230.623458 -195.538011 
L 226.432742 -195.538011 
L 222.242025 -195.538011 
L 218.051308 -195.538011 
L 213.860592 -195.538011 
L 209.669875 -195.538011 
L 205.479159 -195.538011 
L 201.288442 -195.538011 
L 197.097726 -195.538011 
L 192.907009 -195.538011 
L 188.716293 -195.538011 
L 184.525576 -195.538011 
L 180.33486 -195.538011 
L 176.144143 -195.538011 
L 171.953426 -195.538011 
L 167.76271 -195.538011 
L 163.571993 -195.538011 
L 159.381277 -195.538011 
L 155.19056 -195.538011 
L 150.999844 -195.538011 
L 146.809127 -195.538011 
L 142.618411 -195.538011 
L 138.427694 -195.538011 
L 134.236977 -195.538011 
L 130.046261 -195.538011 
L 125.855544 -195.538011 
L 121.664828 -195.538011 
L 117.474111 -195.538011 
L 113.283395 -195.538011 
L 109.092678 -195.538011 
z
" id="m15cc9a4b37" style="stroke:#36a2eb;stroke-opacity:0.5;"/>
    </defs>
    <g clip-path="url(#p05f19378dc)">
     <use style="fill:#36a2eb;fill-opacity:0.5;stroke:#36a2eb;stroke-opacity:0.5;" x="0" xlink:href="#m15cc9a4b37" y="581.789375"/>
    </g>
   </g>
   <g id="line2d_1">
    <path clip-path="url(#p05f19378dc)" d="M 67.428162 386.139644 
L 71.629101 386.097516 
L 75.830041 386.040882 
L 80.03098 385.965273 
L 84.23192 385.865036 
L 88.432859 385.733074 
L 92.633799 385.560563 
L 96.834738 385.336625 
L 101.035678 385.047976 
L 105.236617 384.678546 
L 109.437557 384.209084 
L 113.638496 383.616755 
L 117.839436 382.874753 
L 122.040375 381.951942 
L 126.241315 380.812563 
L 130.442254 379.416021 
L 134.643194 377.716795 
L 138.844133 375.66451 
L 143.045073 373.204193 
L 147.246012 370.276769 
L 151.446952 366.819815 
L 155.647891 362.768607 
L 159.848831 358.057485 
L 164.04977 352.621535 
L 168.25071 346.398589 
L 172.45165 339.331521 
L 176.652589 331.370793 
L 180.853529 322.477201 
L 185.054468 312.624721 
L 189.255408 301.803376 
L 193.456347 290.021982 
L 197.657287 277.310663 
L 201.858226 263.722977 
L 206.059166 249.337525 
L 210.260105 234.258899 
L 214.461045 218.617849 
L 218.661984 202.57058 
L 222.862924 186.297097 
L 227.063863 169.998579 
L 231.264803 153.893795 
L 235.465742 138.214621 
L 239.666682 123.200765 
L 243.867621 109.093854 
L 248.068561 96.131085 
L 252.2695 84.538656 
L 256.47044 74.525239 
L 260.671379 66.275752 
L 264.872319 59.945681 
L 269.073258 55.656215 
L 273.274198 53.490383 
L 277.475137 53.490383 
L 281.676077 55.656215 
L 285.877016 59.945681 
L 290.077956 66.275752 
L 294.278895 74.525239 
L 298.479835 84.538656 
L 302.680774 96.131085 
L 306.881714 109.093854 
L 311.082653 123.200765 
L 315.283593 138.214621 
L 319.484532 153.893795 
L 323.685472 169.998579 
L 327.886411 186.297097 
L 332.087351 202.57058 
L 336.28829 218.617849 
L 340.48923 234.258899 
L 344.690169 249.337525 
L 348.891109 263.722977 
L 353.092048 277.310663 
L 357.292988 290.021982 
L 361.493927 301.803376 
L 365.694867 312.624721 
L 369.895806 322.477201 
L 374.096746 331.370793 
L 378.297685 339.331521 
L 382.498625 346.398589 
L 386.699564 352.621535 
L 390.900504 358.057485 
L 395.101443 362.768607 
L 399.302383 366.819815 
L 403.503322 370.276769 
L 407.704262 373.204193 
L 411.905201 375.66451 
L 416.106141 377.716795 
L 420.30708 379.416021 
L 424.50802 380.812563 
L 428.708959 381.951942 
L 432.909899 382.874753 
L 437.110838 383.616755 
L 441.311778 384.209084 
L 445.512717 384.678546 
L 449.713657 385.047976 
L 453.914596 385.336625 
L 458.115536 385.560563 
L 462.316475 385.733074 
L 466.517415 385.865036 
L 470.718354 385.965273 
L 474.919294 386.040882 
L 479.120233 386.097516 
L 483.321173 386.139644 
" style="fill:none;stroke:#ff6384;stroke-linecap:square;"/>
   </g>
   <g id="line2d_2">
    <path clip-path="url(#p05f19378dc)" d="M 109.092678 386.139371 
L 113.283395 386.097141 
L 117.474111 386.040368 
L 121.664828 385.964575 
L 125.855544 385.864094 
L 130.046261 385.73181 
L 134.236977 385.558878 
L 138.427694 385.334393 
L 142.618411 385.04504 
L 146.809127 384.674709 
L 150.999844 384.204102 
L 155.19056 383.610328 
L 159.381277 382.866516 
L 163.571993 381.941454 
L 167.76271 380.799296 
L 171.953426 379.399346 
L 176.144143 377.695976 
L 180.33486 375.638684 
L 184.525576 373.172366 
L 188.716293 370.2378 
L 192.907009 366.772413 
L 197.097726 362.711322 
L 201.288442 357.988708 
L 205.479159 352.539497 
L 209.669875 346.301371 
L 213.860592 339.217063 
L 218.051308 331.236916 
L 222.242025 322.321628 
L 226.432742 312.445114 
L 230.623458 301.597371 
L 234.814175 289.787238 
L 239.004891 277.04491 
L 243.195608 263.424078 
L 247.386324 249.003534 
L 251.577041 233.888124 
L 255.767757 218.208919 
L 259.958474 202.122504 
L 264.14919 185.809323 
L 268.339907 169.471045 
L 272.530624 153.326975 
L 276.72134 137.609553 
L 280.912057 122.559072 
L 285.102773 108.417748 
L 289.29349 95.423357 
L 293.484206 83.802649 
L 297.674923 73.764805 
L 301.865639 65.495194 
L 306.056356 59.149682 
L 310.247072 54.849752 
L 314.437789 52.678636 
L 318.628506 52.678636 
L 322.819222 54.849752 
L 327.009939 59.149682 
L 331.200655 65.495194 
L 335.391372 73.764805 
L 339.582088 83.802649 
L 343.772805 95.423357 
L 347.963521 108.417748 
L 352.154238 122.559072 
L 356.344955 137.609553 
L 360.535671 153.326975 
L 364.726388 169.471045 
L 368.917104 185.809323 
L 373.107821 202.122504 
L 377.298537 218.208919 
L 381.489254 233.888124 
L 385.67997 249.003534 
L 389.870687 263.424078 
L 394.061403 277.04491 
L 398.25212 289.787238 
L 402.442837 301.597371 
L 406.633553 312.445114 
L 410.82427 322.321628 
L 415.014986 331.236916 
L 419.205703 339.217063 
L 423.396419 346.301371 
L 427.587136 352.539497 
L 431.777852 357.988708 
L 435.968569 362.711322 
L 440.159285 366.772413 
L 444.350002 370.2378 
L 448.540719 373.172366 
L 452.731435 375.638684 
L 456.922152 377.695976 
L 461.112868 379.399346 
L 465.303585 380.799296 
L 469.494301 381.941454 
L 473.685018 382.866516 
L 477.875734 383.610328 
L 482.066451 384.204102 
L 486.257168 384.674709 
L 490.447884 385.04504 
L 494.638601 385.334393 
L 498.829317 385.558878 
L 503.020034 385.73181 
L 507.21075 385.864094 
L 511.401467 385.964575 
L 515.592183 386.040368 
L 519.7829 386.097141 
L 523.973616 386.139371 
" style="fill:none;stroke:#36a2eb;stroke-linecap:square;"/>
   </g>
   <g id="patch_3">
    <path d="M 44.600889 402.93 
L 546.800889 402.93 
" style="fill:none;stroke:#000000;stroke-linecap:square;stroke-linejoin:miter;stroke-width:0.8;"/>
   </g>
   <g id="legend_1">
    <g id="patch_4">
     <path d="M 428.179327 88.29875 
L 537.000889 88.29875 
Q 539.800889 88.29875 539.800889 85.49875 
L 539.800889 45.8 
Q 539.800889 43 537.000889 43 
L 428.179327 43 
Q 425.379327 43 425.379327 45.8 
L 425.379327 85.49875 
Q 425.379327 88.29875 428.179327 88.29875 
z
" style="fill:#ffffff;opacity:0.8;stroke:#cccccc;stroke-linejoin:miter;"/>
    </g>
    <g id="patch_5">
     <path d="M 430.979327 59.237813 
L 458.979327 59.237813 
L 458.979327 49.437813 
L 430.979327 49.437813 
z
" style="fill:#ff6384;opacity:0.5;stroke:#ff6384;stroke-linejoin:miter;"/>
    </g>
    <g id="text_1">
     <!-- base -->
     <defs>
      <path d="M 48.6875 27.296875 
Q 48.6875 37.203125 44.609375 42.84375 
Q 40.53125 48.484375 33.40625 48.484375 
Q 26.265625 48.484375 22.1875 42.84375 
Q 18.109375 37.203125 18.109375 27.296875 
Q 18.109375 17.390625 22.1875 11.75 
Q 26.265625 6.109375 33.40625 6.109375 
Q 40.53125 6.109375 44.609375 11.75 
Q 48.6875 17.390625 48.6875 27.296875 
z
M 18.109375 46.390625 
Q 20.953125 51.265625 25.265625 53.625 
Q 29.59375 56 35.59375 56 
Q 45.5625 56 51.78125 48.09375 
Q 58.015625 40.1875 58.015625 27.296875 
Q 58.015625 14.40625 51.78125 6.484375 
Q 45.5625 -1.421875 35.59375 -1.421875 
Q 29.59375 -1.421875 25.265625 0.953125 
Q 20.953125 3.328125 18.109375 8.203125 
L 18.109375 0 
L 9.078125 0 
L 9.078125 75.984375 
L 18.109375 75.984375 
z
" id="DejaVuSans-98"/>
      <path d="M 34.28125 27.484375 
Q 23.390625 27.484375 19.1875 25 
Q 14.984375 22.515625 14.984375 16.5 
Q 14.984375 11.71875 18.140625 8.90625 
Q 21.296875 6.109375 26.703125 6.109375 
Q 34.1875 6.109375 38.703125 11.40625 
Q 43.21875 16.703125 43.21875 25.484375 
L 43.21875 27.484375 
z
M 52.203125 31.203125 
L 52.203125 0 
L 43.21875 0 
L 43.21875 8.296875 
Q 40.140625 3.328125 35.546875 0.953125 
Q 30.953125 -1.421875 24.3125 -1.421875 
Q 15.921875 -1.421875 10.953125 3.296875 
Q 6 8.015625 6 15.921875 
Q 6 25.140625 12.171875 29.828125 
Q 18.359375 34.515625 30.609375 34.515625 
L 43.21875 34.515625 
L 43.21875 35.40625 
Q 43.21875 41.609375 39.140625 45 
Q 35.0625 48.390625 27.6875 48.390625 
Q 23 48.390625 18.546875 47.265625 
Q 14.109375 46.140625 10.015625 43.890625 
L 10.015625 52.203125 
Q 14.9375 54.109375 19.578125 55.046875 
Q 24.21875 56 28.609375 56 
Q 40.484375 56 46.34375 49.84375 
Q 52.203125 43.703125 52.203125 31.203125 
z
" id="DejaVuSans-97"/>
      <path d="M 44.28125 53.078125 
L 44.28125 44.578125 
Q 40.484375 46.53125 36.375 47.5 
Q 32.28125 48.484375 27.875 48.484375 
Q 21.1875 48.484375 17.84375 46.4375 
Q 14.5 44.390625 14.5 40.28125 
Q 14.5 37.15625 16.890625 35.375 
Q 19.28125 33.59375 26.515625 31.984375 
L 29.59375 31.296875 
Q 39.15625 29.25 43.1875 25.515625 
Q 47.21875 21.78125 47.21875 15.09375 
Q 47.21875 7.46875 41.1875 3.015625 
Q 35.15625 -1.421875 24.609375 -1.421875 
Q 20.21875 -1.421875 15.453125 -0.5625 
Q 10.6875 0.296875 5.421875 2 
L 5.421875 11.28125 
Q 10.40625 8.6875 15.234375 7.390625 
Q 20.0625 6.109375 24.8125 6.109375 
Q 31.15625 6.109375 34.5625 8.28125 
Q 37.984375 10.453125 37.984375 14.40625 
Q 37.984375 18.0625 35.515625 20.015625 
Q 33.0625 21.96875 24.703125 23.78125 
L 21.578125 24.515625 
Q 13.234375 26.265625 9.515625 29.90625 
Q 5.8125 33.546875 5.8125 39.890625 
Q 5.8125 47.609375 11.28125 51.796875 
Q 16.75 56 26.8125 56 
Q 31.78125 56 36.171875 55.265625 
Q 40.578125 54.546875 44.28125 53.078125 
z
" id="DejaVuSans-115"/>
      <path d="M 56.203125 29.59375 
L 56.203125 25.203125 
L 14.890625 25.203125 
Q 15.484375 15.921875 20.484375 11.0625 
Q 25.484375 6.203125 34.421875 6.203125 
Q 39.59375 6.203125 44.453125 7.46875 
Q 49.3125 8.734375 54.109375 11.28125 
L 54.109375 2.78125 
Q 49.265625 0.734375 44.1875 -0.34375 
Q 39.109375 -1.421875 33.890625 -1.421875 
Q 20.796875 -1.421875 13.15625 6.1875 
Q 5.515625 13.8125 5.515625 26.8125 
Q 5.515625 40.234375 12.765625 48.109375 
Q 20.015625 56 32.328125 56 
Q 43.359375 56 49.78125 48.890625 
Q 56.203125 41.796875 56.203125 29.59375 
z
M 47.21875 32.234375 
Q 47.125 39.59375 43.09375 43.984375 
Q 39.0625 48.390625 32.421875 48.390625 
Q 24.90625 48.390625 20.390625 44.140625 
Q 15.875 39.890625 15.1875 32.171875 
z
" id="DejaVuSans-101"/>
     </defs>
     <g transform="translate(470.179327 59.237813)scale(0.14 -0.14)">
      <use xlink:href="#DejaVuSans-98"/>
      <use x="63.476562" xlink:href="#DejaVuSans-97"/>
      <use x="124.755859" xlink:href="#DejaVuSans-115"/>
      <use x="176.855469" xlink:href="#DejaVuSans-101"/>
     </g>
    </g>
    <g id="patch_6">
     <path d="M 430.979327 79.787188 
L 458.979327 79.787188 
L 458.979327 69.987188 
L 430.979327 69.987188 
z
" style="fill:#36a2eb;opacity:0.5;stroke:#36a2eb;stroke-linejoin:miter;"/>
    </g>
    <g id="text_2">
     <!-- reminder -->
     <defs>
      <path d="M 41.109375 46.296875 
Q 39.59375 47.171875 37.8125 47.578125 
Q 36.03125 48 33.890625 48 
Q 26.265625 48 22.1875 43.046875 
Q 18.109375 38.09375 18.109375 28.8125 
L 18.109375 0 
L 9.078125 0 
L 9.078125 54.6875 
L 18.109375 54.6875 
L 18.109375 46.1875 
Q 20.953125 51.171875 25.484375 53.578125 
Q 30.03125 56 36.53125 56 
Q 37.453125 56 38.578125 55.875 
Q 39.703125 55.765625 41.0625 55.515625 
z
" id="DejaVuSans-114"/>
      <path d="M 52 44.1875 
Q 55.375 50.25 60.0625 53.125 
Q 64.75 56 71.09375 56 
Q 79.640625 56 84.28125 50.015625 
Q 88.921875 44.046875 88.921875 33.015625 
L 88.921875 0 
L 79.890625 0 
L 79.890625 32.71875 
Q 79.890625 40.578125 77.09375 44.375 
Q 74.3125 48.1875 68.609375 48.1875 
Q 61.625 48.1875 57.5625 43.546875 
Q 53.515625 38.921875 53.515625 30.90625 
L 53.515625 0 
L 44.484375 0 
L 44.484375 32.71875 
Q 44.484375 40.625 41.703125 44.40625 
Q 38.921875 48.1875 33.109375 48.1875 
Q 26.21875 48.1875 22.15625 43.53125 
Q 18.109375 38.875 18.109375 30.90625 
L 18.109375 0 
L 9.078125 0 
L 9.078125 54.6875 
L 18.109375 54.6875 
L 18.109375 46.1875 
Q 21.1875 51.21875 25.484375 53.609375 
Q 29.78125 56 35.6875 56 
Q 41.65625 56 45.828125 52.96875 
Q 50 49.953125 52 44.1875 
z
" id="DejaVuSans-109"/>
      <path d="M 9.421875 54.6875 
L 18.40625 54.6875 
L 18.40625 0 
L 9.421875 0 
z
M 9.421875 75.984375 
L 18.40625 75.984375 
L 18.40625 64.59375 
L 9.421875 64.59375 
z
" id="DejaVuSans-105"/>
      <path d="M 54.890625 33.015625 
L 54.890625 0 
L 45.90625 0 
L 45.90625 32.71875 
Q 45.90625 40.484375 42.875 44.328125 
Q 39.84375 48.1875 33.796875 48.1875 
Q 26.515625 48.1875 22.3125 43.546875 
Q 18.109375 38.921875 18.109375 30.90625 
L 18.109375 0 
L 9.078125 0 
L 9.078125 54.6875 
L 18.109375 54.6875 
L 18.109375 46.1875 
Q 21.34375 51.125 25.703125 53.5625 
Q 30.078125 56 35.796875 56 
Q 45.21875 56 50.046875 50.171875 
Q 54.890625 44.34375 54.890625 33.015625 
z
" id="DejaVuSans-110"/>
      <path d="M 45.40625 46.390625 
L 45.40625 75.984375 
L 54.390625 75.984375 
L 54.390625 0 
L 45.40625 0 
L 45.40625 8.203125 
Q 42.578125 3.328125 38.25 0.953125 
Q 33.9375 -1.421875 27.875 -1.421875 
Q 17.96875 -1.421875 11.734375 6.484375 
Q 5.515625 14.40625 5.515625 27.296875 
Q 5.515625 40.1875 11.734375 48.09375 
Q 17.96875 56 27.875 56 
Q 33.9375 56 38.25 53.625 
Q 42.578125 51.265625 45.40625 46.390625 
z
M 14.796875 27.296875 
Q 14.796875 17.390625 18.875 11.75 
Q 22.953125 6.109375 30.078125 6.109375 
Q 37.203125 6.109375 41.296875 11.75 
Q 45.40625 17.390625 45.40625 27.296875 
Q 45.40625 37.203125 41.296875 42.84375 
Q 37.203125 48.484375 30.078125 48.484375 
Q 22.953125 48.484375 18.875 42.84375 
Q 14.796875 37.203125 14.796875 27.296875 
z
" id="DejaVuSans-100"/>
     </defs>
     <g transform="translate(470.179327 79.787188)scale(0.14 -0.14)">
      <use xlink:href="#DejaVuSans-114"/>
      <use x="41.082031" xlink:href="#DejaVuSans-101"/>
      <use x="102.605469" xlink:href="#DejaVuSans-109"/>
      <use x="200.017578" xlink:href="#DejaVuSans-105"/>
      <use x="227.800781" xlink:href="#DejaVuSans-110"/>
      <use x="291.179688" xlink:href="#DejaVuSans-100"/>
      <use x="354.65625" xlink:href="#DejaVuSans-101"/>
      <use x="416.179688" xlink:href="#DejaVuSans-114"/>
     </g>
    </g>
   </g>
  </g>
  <g id="axes_2">
   <g id="patch_7">
    <path d="M 44.600889 525.24 
L 546.800889 525.24 
L 546.800889 402.93 
L 44.600889 402.93 
z
" style="fill:none;"/>
   </g>
   <g id="patch_8">
    <path clip-path="url(#pf10ceae764)" d="M 173.48088 519.680455 
L 377.268455 519.680455 
L 377.268455 482.616818 
L 173.48088 482.616818 
z
" style="fill:#ff6384;opacity:0.5;"/>
   </g>
   <g id="patch_9">
    <path clip-path="url(#pf10ceae764)" d="M 214.887317 445.553182 
L 418.178977 445.553182 
L 418.178977 408.489545 
L 214.887317 408.489545 
z
" style="fill:#36a2eb;opacity:0.5;"/>
   </g>
   <g id="matplotlib.axis_1">
    <g id="xtick_1">
     <g id="line2d_3">
      <defs>
       <path d="M 0 0 
L 0 3.5 
" id="made509f767" style="stroke:#000000;stroke-width:0.8;"/>
      </defs>
      <g>
       <use style="stroke:#000000;stroke-width:0.8;" x="47.132187" xlink:href="#made509f767" y="525.24"/>
      </g>
     </g>
     <g id="text_3">
      <!-- 5.0 -->
      <defs>
       <path d="M 10.796875 72.90625 
L 49.515625 72.90625 
L 49.515625 64.59375 
L 19.828125 64.59375 
L 19.828125 46.734375 
Q 21.96875 47.46875 24.109375 47.828125 
Q 26.265625 48.1875 28.421875 48.1875 
Q 40.625 48.1875 47.75 41.5 
Q 54.890625 34.8125 54.890625 23.390625 
Q 54.890625 11.625 47.5625 5.09375 
Q 40.234375 -1.421875 26.90625 -1.421875 
Q 22.3125 -1.421875 17.546875 -0.640625 
Q 12.796875 0.140625 7.71875 1.703125 
L 7.71875 11.625 
Q 12.109375 9.234375 16.796875 8.0625 
Q 21.484375 6.890625 26.703125 6.890625 
Q 35.15625 6.890625 40.078125 11.328125 
Q 45.015625 15.765625 45.015625 23.390625 
Q 45.015625 31 40.078125 35.4375 
Q 35.15625 39.890625 26.703125 39.890625 
Q 22.75 39.890625 18.8125 39.015625 
Q 14.890625 38.140625 10.796875 36.28125 
z
" id="DejaVuSans-53"/>
       <path d="M 10.6875 12.40625 
L 21 12.40625 
L 21 0 
L 10.6875 0 
z
" id="DejaVuSans-46"/>
       <path d="M 31.78125 66.40625 
Q 24.171875 66.40625 20.328125 58.90625 
Q 16.5 51.421875 16.5 36.375 
Q 16.5 21.390625 20.328125 13.890625 
Q 24.171875 6.390625 31.78125 6.390625 
Q 39.453125 6.390625 43.28125 13.890625 
Q 47.125 21.390625 47.125 36.375 
Q 47.125 51.421875 43.28125 58.90625 
Q 39.453125 66.40625 31.78125 66.40625 
z
M 31.78125 74.21875 
Q 44.046875 74.21875 50.515625 64.515625 
Q 56.984375 54.828125 56.984375 36.375 
Q 56.984375 17.96875 50.515625 8.265625 
Q 44.046875 -1.421875 31.78125 -1.421875 
Q 19.53125 -1.421875 13.0625 8.265625 
Q 6.59375 17.96875 6.59375 36.375 
Q 6.59375 54.828125 13.0625 64.515625 
Q 19.53125 74.21875 31.78125 74.21875 
z
" id="DejaVuSans-48"/>
      </defs>
      <g transform="translate(36 542.877813)scale(0.14 -0.14)">
       <use xlink:href="#DejaVuSans-53"/>
       <use x="63.623047" xlink:href="#DejaVuSans-46"/>
       <use x="95.410156" xlink:href="#DejaVuSans-48"/>
      </g>
     </g>
    </g>
    <g id="xtick_2">
     <g id="line2d_4">
      <g>
       <use style="stroke:#000000;stroke-width:0.8;" x="109.493521" xlink:href="#made509f767" y="525.24"/>
      </g>
     </g>
     <g id="text_4">
      <!-- 5.5 -->
      <g transform="translate(98.361333 542.877813)scale(0.14 -0.14)">
       <use xlink:href="#DejaVuSans-53"/>
       <use x="63.623047" xlink:href="#DejaVuSans-46"/>
       <use x="95.410156" xlink:href="#DejaVuSans-53"/>
      </g>
     </g>
    </g>
    <g id="xtick_3">
     <g id="line2d_5">
      <g>
       <use style="stroke:#000000;stroke-width:0.8;" x="171.854854" xlink:href="#made509f767" y="525.24"/>
      </g>
     </g>
     <g id="text_5">
      <!-- 6.0 -->
      <defs>
       <path d="M 33.015625 40.375 
Q 26.375 40.375 22.484375 35.828125 
Q 18.609375 31.296875 18.609375 23.390625 
Q 18.609375 15.53125 22.484375 10.953125 
Q 26.375 6.390625 33.015625 6.390625 
Q 39.65625 6.390625 43.53125 10.953125 
Q 47.40625 15.53125 47.40625 23.390625 
Q 47.40625 31.296875 43.53125 35.828125 
Q 39.65625 40.375 33.015625 40.375 
z
M 52.59375 71.296875 
L 52.59375 62.3125 
Q 48.875 64.0625 45.09375 64.984375 
Q 41.3125 65.921875 37.59375 65.921875 
Q 27.828125 65.921875 22.671875 59.328125 
Q 17.53125 52.734375 16.796875 39.40625 
Q 19.671875 43.65625 24.015625 45.921875 
Q 28.375 48.1875 33.59375 48.1875 
Q 44.578125 48.1875 50.953125 41.515625 
Q 57.328125 34.859375 57.328125 23.390625 
Q 57.328125 12.15625 50.6875 5.359375 
Q 44.046875 -1.421875 33.015625 -1.421875 
Q 20.359375 -1.421875 13.671875 8.265625 
Q 6.984375 17.96875 6.984375 36.375 
Q 6.984375 53.65625 15.1875 63.9375 
Q 23.390625 74.21875 37.203125 74.21875 
Q 40.921875 74.21875 44.703125 73.484375 
Q 48.484375 72.75 52.59375 71.296875 
z
" id="DejaVuSans-54"/>
      </defs>
      <g transform="translate(160.722667 542.877813)scale(0.14 -0.14)">
       <use xlink:href="#DejaVuSans-54"/>
       <use x="63.623047" xlink:href="#DejaVuSans-46"/>
       <use x="95.410156" xlink:href="#DejaVuSans-48"/>
      </g>
     </g>
    </g>
    <g id="xtick_4">
     <g id="line2d_6">
      <g>
       <use style="stroke:#000000;stroke-width:0.8;" x="234.216187" xlink:href="#made509f767" y="525.24"/>
      </g>
     </g>
     <g id="text_6">
      <!-- 6.5 -->
      <g transform="translate(223.084 542.877813)scale(0.14 -0.14)">
       <use xlink:href="#DejaVuSans-54"/>
       <use x="63.623047" xlink:href="#DejaVuSans-46"/>
       <use x="95.410156" xlink:href="#DejaVuSans-53"/>
      </g>
     </g>
    </g>
    <g id="xtick_5">
     <g id="line2d_7">
      <g>
       <use style="stroke:#000000;stroke-width:0.8;" x="296.577521" xlink:href="#made509f767" y="525.24"/>
      </g>
     </g>
     <g id="text_7">
      <!-- 7.0 -->
      <defs>
       <path d="M 8.203125 72.90625 
L 55.078125 72.90625 
L 55.078125 68.703125 
L 28.609375 0 
L 18.3125 0 
L 43.21875 64.59375 
L 8.203125 64.59375 
z
" id="DejaVuSans-55"/>
      </defs>
      <g transform="translate(285.445333 542.877813)scale(0.14 -0.14)">
       <use xlink:href="#DejaVuSans-55"/>
       <use x="63.623047" xlink:href="#DejaVuSans-46"/>
       <use x="95.410156" xlink:href="#DejaVuSans-48"/>
      </g>
     </g>
    </g>
    <g id="xtick_6">
     <g id="line2d_8">
      <g>
       <use style="stroke:#000000;stroke-width:0.8;" x="358.938854" xlink:href="#made509f767" y="525.24"/>
      </g>
     </g>
     <g id="text_8">
      <!-- 7.5 -->
      <g transform="translate(347.806666 542.877813)scale(0.14 -0.14)">
       <use xlink:href="#DejaVuSans-55"/>
       <use x="63.623047" xlink:href="#DejaVuSans-46"/>
       <use x="95.410156" xlink:href="#DejaVuSans-53"/>
      </g>
     </g>
    </g>
    <g id="xtick_7">
     <g id="line2d_9">
      <g>
       <use style="stroke:#000000;stroke-width:0.8;" x="421.300187" xlink:href="#made509f767" y="525.24"/>
      </g>
     </g>
     <g id="text_9">
      <!-- 8.0 -->
      <defs>
       <path d="M 31.78125 34.625 
Q 24.75 34.625 20.71875 30.859375 
Q 16.703125 27.09375 16.703125 20.515625 
Q 16.703125 13.921875 20.71875 10.15625 
Q 24.75 6.390625 31.78125 6.390625 
Q 38.8125 6.390625 42.859375 10.171875 
Q 46.921875 13.96875 46.921875 20.515625 
Q 46.921875 27.09375 42.890625 30.859375 
Q 38.875 34.625 31.78125 34.625 
z
M 21.921875 38.8125 
Q 15.578125 40.375 12.03125 44.71875 
Q 8.5 49.078125 8.5 55.328125 
Q 8.5 64.0625 14.71875 69.140625 
Q 20.953125 74.21875 31.78125 74.21875 
Q 42.671875 74.21875 48.875 69.140625 
Q 55.078125 64.0625 55.078125 55.328125 
Q 55.078125 49.078125 51.53125 44.71875 
Q 48 40.375 41.703125 38.8125 
Q 48.828125 37.15625 52.796875 32.3125 
Q 56.78125 27.484375 56.78125 20.515625 
Q 56.78125 9.90625 50.3125 4.234375 
Q 43.84375 -1.421875 31.78125 -1.421875 
Q 19.734375 -1.421875 13.25 4.234375 
Q 6.78125 9.90625 6.78125 20.515625 
Q 6.78125 27.484375 10.78125 32.3125 
Q 14.796875 37.15625 21.921875 38.8125 
z
M 18.3125 54.390625 
Q 18.3125 48.734375 21.84375 45.5625 
Q 25.390625 42.390625 31.78125 42.390625 
Q 38.140625 42.390625 41.71875 45.5625 
Q 45.3125 48.734375 45.3125 54.390625 
Q 45.3125 60.0625 41.71875 63.234375 
Q 38.140625 66.40625 31.78125 66.40625 
Q 25.390625 66.40625 21.84375 63.234375 
Q 18.3125 60.0625 18.3125 54.390625 
z
" id="DejaVuSans-56"/>
      </defs>
      <g transform="translate(410.168 542.877813)scale(0.14 -0.14)">
       <use xlink:href="#DejaVuSans-56"/>
       <use x="63.623047" xlink:href="#DejaVuSans-46"/>
       <use x="95.410156" xlink:href="#DejaVuSans-48"/>
      </g>
     </g>
    </g>
    <g id="xtick_8">
     <g id="line2d_10">
      <g>
       <use style="stroke:#000000;stroke-width:0.8;" x="483.661521" xlink:href="#made509f767" y="525.24"/>
      </g>
     </g>
     <g id="text_10">
      <!-- 8.5 -->
      <g transform="translate(472.529333 542.877813)scale(0.14 -0.14)">
       <use xlink:href="#DejaVuSans-56"/>
       <use x="63.623047" xlink:href="#DejaVuSans-46"/>
       <use x="95.410156" xlink:href="#DejaVuSans-53"/>
      </g>
     </g>
    </g>
    <g id="xtick_9">
     <g id="line2d_11">
      <g>
       <use style="stroke:#000000;stroke-width:0.8;" x="546.022854" xlink:href="#made509f767" y="525.24"/>
      </g>
     </g>
     <g id="text_11">
      <!-- 9.0 -->
      <defs>
       <path d="M 10.984375 1.515625 
L 10.984375 10.5 
Q 14.703125 8.734375 18.5 7.8125 
Q 22.3125 6.890625 25.984375 6.890625 
Q 35.75 6.890625 40.890625 13.453125 
Q 46.046875 20.015625 46.78125 33.40625 
Q 43.953125 29.203125 39.59375 26.953125 
Q 35.25 24.703125 29.984375 24.703125 
Q 19.046875 24.703125 12.671875 31.3125 
Q 6.296875 37.9375 6.296875 49.421875 
Q 6.296875 60.640625 12.9375 67.421875 
Q 19.578125 74.21875 30.609375 74.21875 
Q 43.265625 74.21875 49.921875 64.515625 
Q 56.59375 54.828125 56.59375 36.375 
Q 56.59375 19.140625 48.40625 8.859375 
Q 40.234375 -1.421875 26.421875 -1.421875 
Q 22.703125 -1.421875 18.890625 -0.6875 
Q 15.09375 0.046875 10.984375 1.515625 
z
M 30.609375 32.421875 
Q 37.25 32.421875 41.125 36.953125 
Q 45.015625 41.5 45.015625 49.421875 
Q 45.015625 57.28125 41.125 61.84375 
Q 37.25 66.40625 30.609375 66.40625 
Q 23.96875 66.40625 20.09375 61.84375 
Q 16.21875 57.28125 16.21875 49.421875 
Q 16.21875 41.5 20.09375 36.953125 
Q 23.96875 32.421875 30.609375 32.421875 
z
" id="DejaVuSans-57"/>
      </defs>
      <g transform="translate(534.890666 542.877813)scale(0.14 -0.14)">
       <use xlink:href="#DejaVuSans-57"/>
       <use x="63.623047" xlink:href="#DejaVuSans-46"/>
       <use x="95.410156" xlink:href="#DejaVuSans-48"/>
      </g>
     </g>
    </g>
   </g>
   <g id="line2d_12">
    <path clip-path="url(#pf10ceae764)" d="M 275.374667 525.24 
L 275.374667 402.93 
" style="fill:none;stroke:#ff6384;stroke-dasharray:5.55,2.4;stroke-dashoffset:0;stroke-opacity:0.8;stroke-width:1.5;"/>
   </g>
   <g id="line2d_13">
    <path clip-path="url(#pf10ceae764)" d="M 316.533147 525.24 
L 316.533147 402.93 
" style="fill:none;stroke:#36a2eb;stroke-dasharray:5.55,2.4;stroke-dashoffset:0;stroke-opacity:0.8;stroke-width:1.5;"/>
   </g>
   <g id="patch_10">
    <path d="M 44.600889 525.24 
L 546.800889 525.24 
" style="fill:none;stroke:#000000;stroke-linecap:square;stroke-linejoin:miter;stroke-width:0.8;"/>
   </g>
  </g>
 </g>
 <defs>
  <clipPath id="p05f19378dc">
   <rect height="366.93" width="502.2" x="44.600889" y="36"/>
  </clipPath>
  <clipPath id="pf10ceae764">
   <rect height="122.31" width="502.2" x="44.600889" y="402.93"/>
  </clipPath>
 </defs>
</svg>
