<?xml version="1.0" encoding="utf-8" standalone="no"?>
<!DOCTYPE svg PUBLIC "-//W3C//DTD SVG 1.1//EN"
  "http://www.w3.org/Graphics/SVG/1.1/DTD/svg11.dtd">
<!-- Created with matplotlib (https://matplotlib.org/) -->
<svg height="581.789375pt" version="1.1" viewBox="0 0 574.2 581.789375" width="574.2pt" xmlns="http://www.w3.org/2000/svg" xmlns:xlink="http://www.w3.org/1999/xlink">
 <defs>
  <style type="text/css">
*{stroke-linecap:butt;stroke-linejoin:round;}
  </style>
 </defs>
 <g id="figure_1">
  <g id="patch_1">
   <path d="M 0 581.789375 
L 574.2 581.789375 
L 574.2 0 
L 0 0 
z
" style="fill:none;"/>
  </g>
  <g id="axes_1">
   <g id="patch_2">
    <path d="M 36 402.93 
L 538.2 402.93 
L 538.2 36 
L 36 36 
z
" style="fill:none;"/>
   </g>
   <g id="PolyCollection_1">
    <defs>
     <path d="M 58.827273 -195.538011 
L 58.827273 -195.650004 
L 62.56115 -195.692234 
L 66.295027 -195.749007 
L 70.028905 -195.8248 
L 73.762782 -195.925281 
L 77.496659 -196.057565 
L 81.230536 -196.230497 
L 84.964414 -196.454982 
L 88.698291 -196.744335 
L 92.432168 -197.114666 
L 96.166045 -197.585273 
L 99.899923 -198.179047 
L 103.6338 -198.922859 
L 107.367677 -199.847921 
L 111.101555 -200.990079 
L 114.835432 -202.390029 
L 118.569309 -204.093399 
L 122.303186 -206.150691 
L 126.037064 -208.617009 
L 129.770941 -211.551575 
L 133.504818 -215.016962 
L 137.238695 -219.078053 
L 140.972573 -223.800667 
L 144.70645 -229.249878 
L 148.440327 -235.488004 
L 152.174205 -242.572312 
L 155.908082 -250.552459 
L 159.641959 -259.467747 
L 163.375836 -269.344261 
L 167.109714 -280.192004 
L 170.843591 -292.002137 
L 174.577468 -304.744465 
L 178.311345 -318.365297 
L 182.045223 -332.785841 
L 185.7791 -347.901251 
L 189.512977 -363.580456 
L 193.246855 -379.666871 
L 196.980732 -395.980052 
L 200.714609 -412.31833 
L 204.448486 -428.4624 
L 208.182364 -444.179822 
L 211.916241 -459.230303 
L 215.650118 -473.371627 
L 219.383995 -486.366018 
L 223.117873 -497.986726 
L 226.85175 -508.02457 
L 230.585627 -516.294181 
L 234.319505 -522.639693 
L 238.053382 -526.939623 
L 241.787259 -529.110739 
L 245.521136 -529.110739 
L 249.255014 -526.939623 
L 252.988891 -522.639693 
L 256.722768 -516.294181 
L 260.456645 -508.02457 
L 264.190523 -497.986726 
L 267.9244 -486.366018 
L 271.658277 -473.371627 
L 275.392155 -459.230303 
L 279.126032 -444.179822 
L 282.859909 -428.4624 
L 286.593786 -412.31833 
L 290.327664 -395.980052 
L 294.061541 -379.666871 
L 297.795418 -363.580456 
L 301.529295 -347.901251 
L 305.263173 -332.785841 
L 308.99705 -318.365297 
L 312.730927 -304.744465 
L 316.464805 -292.002137 
L 320.198682 -280.192004 
L 323.932559 -269.344261 
L 327.666436 -259.467747 
L 331.400314 -250.552459 
L 335.134191 -242.572312 
L 338.868068 -235.488004 
L 342.601945 -229.249878 
L 346.335823 -223.800667 
L 350.0697 -219.078053 
L 353.803577 -215.016962 
L 357.537455 -211.551575 
L 361.271332 -208.617009 
L 365.005209 -206.150691 
L 368.739086 -204.093399 
L 372.472964 -202.390029 
L 376.206841 -200.990079 
L 379.940718 -199.847921 
L 383.674595 -198.922859 
L 387.408473 -198.179047 
L 391.14235 -197.585273 
L 394.876227 -197.114666 
L 398.610105 -196.744335 
L 402.343982 -196.454982 
L 406.077859 -196.230497 
L 409.811736 -196.057565 
L 413.545614 -195.925281 
L 417.279491 -195.8248 
L 421.013368 -195.749007 
L 424.747245 -195.692234 
L 428.481123 -195.650004 
L 428.481123 -195.538011 
L 428.481123 -195.538011 
L 424.747245 -195.538011 
L 421.013368 -195.538011 
L 417.279491 -195.538011 
L 413.545614 -195.538011 
L 409.811736 -195.538011 
L 406.077859 -195.538011 
L 402.343982 -195.538011 
L 398.610105 -195.538011 
L 394.876227 -195.538011 
L 391.14235 -195.538011 
L 387.408473 -195.538011 
L 383.674595 -195.538011 
L 379.940718 -195.538011 
L 376.206841 -195.538011 
L 372.472964 -195.538011 
L 368.739086 -195.538011 
L 365.005209 -195.538011 
L 361.271332 -195.538011 
L 357.537455 -195.538011 
L 353.803577 -195.538011 
L 350.0697 -195.538011 
L 346.335823 -195.538011 
L 342.601945 -195.538011 
L 338.868068 -195.538011 
L 335.134191 -195.538011 
L 331.400314 -195.538011 
L 327.666436 -195.538011 
L 323.932559 -195.538011 
L 320.198682 -195.538011 
L 316.464805 -195.538011 
L 312.730927 -195.538011 
L 308.99705 -195.538011 
L 305.263173 -195.538011 
L 301.529295 -195.538011 
L 297.795418 -195.538011 
L 294.061541 -195.538011 
L 290.327664 -195.538011 
L 286.593786 -195.538011 
L 282.859909 -195.538011 
L 279.126032 -195.538011 
L 275.392155 -195.538011 
L 271.658277 -195.538011 
L 267.9244 -195.538011 
L 264.190523 -195.538011 
L 260.456645 -195.538011 
L 256.722768 -195.538011 
L 252.988891 -195.538011 
L 249.255014 -195.538011 
L 245.521136 -195.538011 
L 241.787259 -195.538011 
L 238.053382 -195.538011 
L 234.319505 -195.538011 
L 230.585627 -195.538011 
L 226.85175 -195.538011 
L 223.117873 -195.538011 
L 219.383995 -195.538011 
L 215.650118 -195.538011 
L 211.916241 -195.538011 
L 208.182364 -195.538011 
L 204.448486 -195.538011 
L 200.714609 -195.538011 
L 196.980732 -195.538011 
L 193.246855 -195.538011 
L 189.512977 -195.538011 
L 185.7791 -195.538011 
L 182.045223 -195.538011 
L 178.311345 -195.538011 
L 174.577468 -195.538011 
L 170.843591 -195.538011 
L 167.109714 -195.538011 
L 163.375836 -195.538011 
L 159.641959 -195.538011 
L 155.908082 -195.538011 
L 152.174205 -195.538011 
L 148.440327 -195.538011 
L 144.70645 -195.538011 
L 140.972573 -195.538011 
L 137.238695 -195.538011 
L 133.504818 -195.538011 
L 129.770941 -195.538011 
L 126.037064 -195.538011 
L 122.303186 -195.538011 
L 118.569309 -195.538011 
L 114.835432 -195.538011 
L 111.101555 -195.538011 
L 107.367677 -195.538011 
L 103.6338 -195.538011 
L 99.899923 -195.538011 
L 96.166045 -195.538011 
L 92.432168 -195.538011 
L 88.698291 -195.538011 
L 84.964414 -195.538011 
L 81.230536 -195.538011 
L 77.496659 -195.538011 
L 73.762782 -195.538011 
L 70.028905 -195.538011 
L 66.295027 -195.538011 
L 62.56115 -195.538011 
L 58.827273 -195.538011 
z
" id="m1ee4840f60" style="stroke:#ff6384;stroke-opacity:0.5;"/>
    </defs>
    <g clip-path="url(#p5b0528ad9f)">
     <use style="fill:#ff6384;fill-opacity:0.5;stroke:#ff6384;stroke-opacity:0.5;" x="0" xlink:href="#m1ee4840f60" y="581.789375"/>
    </g>
   </g>
   <g id="PolyCollection_2">
    <defs>
     <path d="M 135.271343 -195.538011 
L 135.271343 -195.646926 
L 139.110751 -195.687995 
L 142.950158 -195.743207 
L 146.789566 -195.816917 
L 150.628974 -195.914637 
L 154.468382 -196.043284 
L 158.30779 -196.211463 
L 162.147198 -196.429778 
L 165.986606 -196.711178 
L 169.826014 -197.07133 
L 173.665422 -197.529002 
L 177.50483 -198.106455 
L 181.344238 -198.829823 
L 185.183646 -199.729458 
L 189.023054 -200.840223 
L 192.862462 -202.201693 
L 196.701869 -203.858244 
L 200.541277 -205.858989 
L 204.380685 -208.257518 
L 208.220093 -211.111423 
L 212.059501 -214.48156 
L 215.898909 -218.431027 
L 219.738317 -223.023835 
L 223.577725 -228.323267 
L 227.417133 -234.389931 
L 231.256541 -241.279519 
L 235.095949 -249.040322 
L 238.935357 -257.710563 
L 242.774765 -267.315609 
L 246.614172 -277.865189 
L 250.45358 -289.350707 
L 254.292988 -301.742797 
L 258.132396 -314.989244 
L 261.971804 -329.013423 
L 265.811212 -343.713368 
L 269.65062 -358.961611 
L 273.490028 -374.605872 
L 277.329436 -390.470667 
L 281.168844 -406.359867 
L 285.008252 -422.060199 
L 288.84766 -437.345608 
L 292.687068 -451.982409 
L 296.526476 -465.735042 
L 300.365883 -478.372267 
L 304.205291 -489.673567 
L 308.044699 -499.435508 
L 311.884107 -507.47782 
L 315.723515 -513.648918 
L 319.562923 -517.830659 
L 323.402331 -519.942099 
L 327.241739 -519.942099 
L 331.081147 -517.830659 
L 334.920555 -513.648918 
L 338.759963 -507.47782 
L 342.599371 -499.435508 
L 346.438779 -489.673567 
L 350.278186 -478.372267 
L 354.117594 -465.735042 
L 357.957002 -451.982409 
L 361.79641 -437.345608 
L 365.635818 -422.060199 
L 369.475226 -406.359867 
L 373.314634 -390.470667 
L 377.154042 -374.605872 
L 380.99345 -358.961611 
L 384.832858 -343.713368 
L 388.672266 -329.013423 
L 392.511674 -314.989244 
L 396.351082 -301.742797 
L 400.19049 -289.350707 
L 404.029897 -277.865189 
L 407.869305 -267.315609 
L 411.708713 -257.710563 
L 415.548121 -249.040322 
L 419.387529 -241.279519 
L 423.226937 -234.389931 
L 427.066345 -228.323267 
L 430.905753 -223.023835 
L 434.745161 -218.431027 
L 438.584569 -214.48156 
L 442.423977 -211.111423 
L 446.263385 -208.257518 
L 450.102793 -205.858989 
L 453.9422 -203.858244 
L 457.781608 -202.201693 
L 461.621016 -200.840223 
L 465.460424 -199.729458 
L 469.299832 -198.829823 
L 473.13924 -198.106455 
L 476.978648 -197.529002 
L 480.818056 -197.07133 
L 484.657464 -196.711178 
L 488.496872 -196.429778 
L 492.33628 -196.211463 
L 496.175688 -196.043284 
L 500.015096 -195.914637 
L 503.854503 -195.816917 
L 507.693911 -195.743207 
L 511.533319 -195.687995 
L 515.372727 -195.646926 
L 515.372727 -195.538011 
L 515.372727 -195.538011 
L 511.533319 -195.538011 
L 507.693911 -195.538011 
L 503.854503 -195.538011 
L 500.015096 -195.538011 
L 496.175688 -195.538011 
L 492.33628 -195.538011 
L 488.496872 -195.538011 
L 484.657464 -195.538011 
L 480.818056 -195.538011 
L 476.978648 -195.538011 
L 473.13924 -195.538011 
L 469.299832 -195.538011 
L 465.460424 -195.538011 
L 461.621016 -195.538011 
L 457.781608 -195.538011 
L 453.9422 -195.538011 
L 450.102793 -195.538011 
L 446.263385 -195.538011 
L 442.423977 -195.538011 
L 438.584569 -195.538011 
L 434.745161 -195.538011 
L 430.905753 -195.538011 
L 427.066345 -195.538011 
L 423.226937 -195.538011 
L 419.387529 -195.538011 
L 415.548121 -195.538011 
L 411.708713 -195.538011 
L 407.869305 -195.538011 
L 404.029897 -195.538011 
L 400.19049 -195.538011 
L 396.351082 -195.538011 
L 392.511674 -195.538011 
L 388.672266 -195.538011 
L 384.832858 -195.538011 
L 380.99345 -195.538011 
L 377.154042 -195.538011 
L 373.314634 -195.538011 
L 369.475226 -195.538011 
L 365.635818 -195.538011 
L 361.79641 -195.538011 
L 357.957002 -195.538011 
L 354.117594 -195.538011 
L 350.278186 -195.538011 
L 346.438779 -195.538011 
L 342.599371 -195.538011 
L 338.759963 -195.538011 
L 334.920555 -195.538011 
L 331.081147 -195.538011 
L 327.241739 -195.538011 
L 323.402331 -195.538011 
L 319.562923 -195.538011 
L 315.723515 -195.538011 
L 311.884107 -195.538011 
L 308.044699 -195.538011 
L 304.205291 -195.538011 
L 300.365883 -195.538011 
L 296.526476 -195.538011 
L 292.687068 -195.538011 
L 288.84766 -195.538011 
L 285.008252 -195.538011 
L 281.168844 -195.538011 
L 277.329436 -195.538011 
L 273.490028 -195.538011 
L 269.65062 -195.538011 
L 265.811212 -195.538011 
L 261.971804 -195.538011 
L 258.132396 -195.538011 
L 254.292988 -195.538011 
L 250.45358 -195.538011 
L 246.614172 -195.538011 
L 242.774765 -195.538011 
L 238.935357 -195.538011 
L 235.095949 -195.538011 
L 231.256541 -195.538011 
L 227.417133 -195.538011 
L 223.577725 -195.538011 
L 219.738317 -195.538011 
L 215.898909 -195.538011 
L 212.059501 -195.538011 
L 208.220093 -195.538011 
L 204.380685 -195.538011 
L 200.541277 -195.538011 
L 196.701869 -195.538011 
L 192.862462 -195.538011 
L 189.023054 -195.538011 
L 185.183646 -195.538011 
L 181.344238 -195.538011 
L 177.50483 -195.538011 
L 173.665422 -195.538011 
L 169.826014 -195.538011 
L 165.986606 -195.538011 
L 162.147198 -195.538011 
L 158.30779 -195.538011 
L 154.468382 -195.538011 
L 150.628974 -195.538011 
L 146.789566 -195.538011 
L 142.950158 -195.538011 
L 139.110751 -195.538011 
L 135.271343 -195.538011 
z
" id="m3aaa22ee5f" style="stroke:#36a2eb;stroke-opacity:0.5;"/>
    </defs>
    <g clip-path="url(#p5b0528ad9f)">
     <use style="fill:#36a2eb;fill-opacity:0.5;stroke:#36a2eb;stroke-opacity:0.5;" x="0" xlink:href="#m3aaa22ee5f" y="581.789375"/>
    </g>
   </g>
   <g id="line2d_1">
    <path clip-path="url(#p5b0528ad9f)" d="M 58.827273 386.139371 
L 62.56115 386.097141 
L 66.295027 386.040368 
L 70.028905 385.964575 
L 73.762782 385.864094 
L 77.496659 385.73181 
L 81.230536 385.558878 
L 84.964414 385.334393 
L 88.698291 385.04504 
L 92.432168 384.674709 
L 96.166045 384.204102 
L 99.899923 383.610328 
L 103.6338 382.866516 
L 107.367677 381.941454 
L 111.101555 380.799296 
L 114.835432 379.399346 
L 118.569309 377.695976 
L 122.303186 375.638684 
L 126.037064 373.172366 
L 129.770941 370.2378 
L 133.504818 366.772413 
L 137.238695 362.711322 
L 140.972573 357.988708 
L 144.70645 352.539497 
L 148.440327 346.301371 
L 152.174205 339.217063 
L 155.908082 331.236916 
L 159.641959 322.321628 
L 163.375836 312.445114 
L 167.109714 301.597371 
L 170.843591 289.787238 
L 174.577468 277.04491 
L 178.311345 263.424078 
L 182.045223 249.003534 
L 185.7791 233.888124 
L 189.512977 218.208919 
L 193.246855 202.122504 
L 196.980732 185.809323 
L 200.714609 169.471045 
L 204.448486 153.326975 
L 208.182364 137.609553 
L 211.916241 122.559072 
L 215.650118 108.417748 
L 219.383995 95.423357 
L 223.117873 83.802649 
L 226.85175 73.764805 
L 230.585627 65.495194 
L 234.319505 59.149682 
L 238.053382 54.849752 
L 241.787259 52.678636 
L 245.521136 52.678636 
L 249.255014 54.849752 
L 252.988891 59.149682 
L 256.722768 65.495194 
L 260.456645 73.764805 
L 264.190523 83.802649 
L 267.9244 95.423357 
L 271.658277 108.417748 
L 275.392155 122.559072 
L 279.126032 137.609553 
L 282.859909 153.326975 
L 286.593786 169.471045 
L 290.327664 185.809323 
L 294.061541 202.122504 
L 297.795418 218.208919 
L 301.529295 233.888124 
L 305.263173 249.003534 
L 308.99705 263.424078 
L 312.730927 277.04491 
L 316.464805 289.787238 
L 320.198682 301.597371 
L 323.932559 312.445114 
L 327.666436 322.321628 
L 331.400314 331.236916 
L 335.134191 339.217063 
L 338.868068 346.301371 
L 342.601945 352.539497 
L 346.335823 357.988708 
L 350.0697 362.711322 
L 353.803577 366.772413 
L 357.537455 370.2378 
L 361.271332 373.172366 
L 365.005209 375.638684 
L 368.739086 377.695976 
L 372.472964 379.399346 
L 376.206841 380.799296 
L 379.940718 381.941454 
L 383.674595 382.866516 
L 387.408473 383.610328 
L 391.14235 384.204102 
L 394.876227 384.674709 
L 398.610105 385.04504 
L 402.343982 385.334393 
L 406.077859 385.558878 
L 409.811736 385.73181 
L 413.545614 385.864094 
L 417.279491 385.964575 
L 421.013368 386.040368 
L 424.747245 386.097141 
L 428.481123 386.139371 
" style="fill:none;stroke:#ff6384;stroke-linecap:square;"/>
   </g>
   <g id="line2d_2">
    <path clip-path="url(#p5b0528ad9f)" d="M 135.271343 386.142449 
L 139.110751 386.10138 
L 142.950158 386.046168 
L 146.789566 385.972458 
L 150.628974 385.874738 
L 154.468382 385.746091 
L 158.30779 385.577912 
L 162.147198 385.359597 
L 165.986606 385.078197 
L 169.826014 384.718045 
L 173.665422 384.260373 
L 177.50483 383.68292 
L 181.344238 382.959552 
L 185.183646 382.059917 
L 189.023054 380.949152 
L 192.862462 379.587682 
L 196.701869 377.931131 
L 200.541277 375.930386 
L 204.380685 373.531857 
L 208.220093 370.677952 
L 212.059501 367.307815 
L 215.898909 363.358348 
L 219.738317 358.76554 
L 223.577725 353.466108 
L 227.417133 347.399444 
L 231.256541 340.509856 
L 235.095949 332.749053 
L 238.935357 324.078812 
L 242.774765 314.473766 
L 246.614172 303.924186 
L 250.45358 292.438668 
L 254.292988 280.046578 
L 258.132396 266.800131 
L 261.971804 252.775952 
L 265.811212 238.076007 
L 269.65062 222.827764 
L 273.490028 207.183503 
L 277.329436 191.318708 
L 281.168844 175.429508 
L 285.008252 159.729176 
L 288.84766 144.443767 
L 292.687068 129.806966 
L 296.526476 116.054333 
L 300.365883 103.417108 
L 304.205291 92.115808 
L 308.044699 82.353867 
L 311.884107 74.311555 
L 315.723515 68.140457 
L 319.562923 63.958716 
L 323.402331 61.847276 
L 327.241739 61.847276 
L 331.081147 63.958716 
L 334.920555 68.140457 
L 338.759963 74.311555 
L 342.599371 82.353867 
L 346.438779 92.115808 
L 350.278186 103.417108 
L 354.117594 116.054333 
L 357.957002 129.806966 
L 361.79641 144.443767 
L 365.635818 159.729176 
L 369.475226 175.429508 
L 373.314634 191.318708 
L 377.154042 207.183503 
L 380.99345 222.827764 
L 384.832858 238.076007 
L 388.672266 252.775952 
L 392.511674 266.800131 
L 396.351082 280.046578 
L 400.19049 292.438668 
L 404.029897 303.924186 
L 407.869305 314.473766 
L 411.708713 324.078812 
L 415.548121 332.749053 
L 419.387529 340.509856 
L 423.226937 347.399444 
L 427.066345 353.466108 
L 430.905753 358.76554 
L 434.745161 363.358348 
L 438.584569 367.307815 
L 442.423977 370.677952 
L 446.263385 373.531857 
L 450.102793 375.930386 
L 453.9422 377.931131 
L 457.781608 379.587682 
L 461.621016 380.949152 
L 465.460424 382.059917 
L 469.299832 382.959552 
L 473.13924 383.68292 
L 476.978648 384.260373 
L 480.818056 384.718045 
L 484.657464 385.078197 
L 488.496872 385.359597 
L 492.33628 385.577912 
L 496.175688 385.746091 
L 500.015096 385.874738 
L 503.854503 385.972458 
L 507.693911 386.046168 
L 511.533319 386.10138 
L 515.372727 386.142449 
" style="fill:none;stroke:#36a2eb;stroke-linecap:square;"/>
   </g>
   <g id="patch_3">
    <path d="M 36 402.93 
L 538.2 402.93 
" style="fill:none;stroke:#000000;stroke-linecap:square;stroke-linejoin:miter;stroke-width:0.8;"/>
   </g>
   <g id="legend_1">
    <g id="patch_4">
     <path d="M 419.578438 88.29875 
L 528.4 88.29875 
Q 531.2 88.29875 531.2 85.49875 
L 531.2 45.8 
Q 531.2 43 528.4 43 
L 419.578438 43 
Q 416.778438 43 416.778438 45.8 
L 416.778438 85.49875 
Q 416.778438 88.29875 419.578438 88.29875 
z
" style="fill:#ffffff;opacity:0.8;stroke:#cccccc;stroke-linejoin:miter;"/>
    </g>
    <g id="patch_5">
     <path d="M 422.378438 59.237813 
L 450.378438 59.237813 
L 450.378438 49.437813 
L 422.378438 49.437813 
z
" style="fill:#ff6384;opacity:0.5;stroke:#ff6384;stroke-linejoin:miter;"/>
    </g>
    <g id="text_1">
     <!-- base -->
     <defs>
      <path d="M 48.6875 27.296875 
Q 48.6875 37.203125 44.609375 42.84375 
Q 40.53125 48.484375 33.40625 48.484375 
Q 26.265625 48.484375 22.1875 42.84375 
Q 18.109375 37.203125 18.109375 27.296875 
Q 18.109375 17.390625 22.1875 11.75 
Q 26.265625 6.109375 33.40625 6.109375 
Q 40.53125 6.109375 44.609375 11.75 
Q 48.6875 17.390625 48.6875 27.296875 
z
M 18.109375 46.390625 
Q 20.953125 51.265625 25.265625 53.625 
Q 29.59375 56 35.59375 56 
Q 45.5625 56 51.78125 48.09375 
Q 58.015625 40.1875 58.015625 27.296875 
Q 58.015625 14.40625 51.78125 6.484375 
Q 45.5625 -1.421875 35.59375 -1.421875 
Q 29.59375 -1.421875 25.265625 0.953125 
Q 20.953125 3.328125 18.109375 8.203125 
L 18.109375 0 
L 9.078125 0 
L 9.078125 75.984375 
L 18.109375 75.984375 
z
" id="DejaVuSans-98"/>
      <path d="M 34.28125 27.484375 
Q 23.390625 27.484375 19.1875 25 
Q 14.984375 22.515625 14.984375 16.5 
Q 14.984375 11.71875 18.140625 8.90625 
Q 21.296875 6.109375 26.703125 6.109375 
Q 34.1875 6.109375 38.703125 11.40625 
Q 43.21875 16.703125 43.21875 25.484375 
L 43.21875 27.484375 
z
M 52.203125 31.203125 
L 52.203125 0 
L 43.21875 0 
L 43.21875 8.296875 
Q 40.140625 3.328125 35.546875 0.953125 
Q 30.953125 -1.421875 24.3125 -1.421875 
Q 15.921875 -1.421875 10.953125 3.296875 
Q 6 8.015625 6 15.921875 
Q 6 25.140625 12.171875 29.828125 
Q 18.359375 34.515625 30.609375 34.515625 
L 43.21875 34.515625 
L 43.21875 35.40625 
Q 43.21875 41.609375 39.140625 45 
Q 35.0625 48.390625 27.6875 48.390625 
Q 23 48.390625 18.546875 47.265625 
Q 14.109375 46.140625 10.015625 43.890625 
L 10.015625 52.203125 
Q 14.9375 54.109375 19.578125 55.046875 
Q 24.21875 56 28.609375 56 
Q 40.484375 56 46.34375 49.84375 
Q 52.203125 43.703125 52.203125 31.203125 
z
" id="DejaVuSans-97"/>
      <path d="M 44.28125 53.078125 
L 44.28125 44.578125 
Q 40.484375 46.53125 36.375 47.5 
Q 32.28125 48.484375 27.875 48.484375 
Q 21.1875 48.484375 17.84375 46.4375 
Q 14.5 44.390625 14.5 40.28125 
Q 14.5 37.15625 16.890625 35.375 
Q 19.28125 33.59375 26.515625 31.984375 
L 29.59375 31.296875 
Q 39.15625 29.25 43.1875 25.515625 
Q 47.21875 21.78125 47.21875 15.09375 
Q 47.21875 7.46875 41.1875 3.015625 
Q 35.15625 -1.421875 24.609375 -1.421875 
Q 20.21875 -1.421875 15.453125 -0.5625 
Q 10.6875 0.296875 5.421875 2 
L 5.421875 11.28125 
Q 10.40625 8.6875 15.234375 7.390625 
Q 20.0625 6.109375 24.8125 6.109375 
Q 31.15625 6.109375 34.5625 8.28125 
Q 37.984375 10.453125 37.984375 14.40625 
Q 37.984375 18.0625 35.515625 20.015625 
Q 33.0625 21.96875 24.703125 23.78125 
L 21.578125 24.515625 
Q 13.234375 26.265625 9.515625 29.90625 
Q 5.8125 33.546875 5.8125 39.890625 
Q 5.8125 47.609375 11.28125 51.796875 
Q 16.75 56 26.8125 56 
Q 31.78125 56 36.171875 55.265625 
Q 40.578125 54.546875 44.28125 53.078125 
z
" id="DejaVuSans-115"/>
      <path d="M 56.203125 29.59375 
L 56.203125 25.203125 
L 14.890625 25.203125 
Q 15.484375 15.921875 20.484375 11.0625 
Q 25.484375 6.203125 34.421875 6.203125 
Q 39.59375 6.203125 44.453125 7.46875 
Q 49.3125 8.734375 54.109375 11.28125 
L 54.109375 2.78125 
Q 49.265625 0.734375 44.1875 -0.34375 
Q 39.109375 -1.421875 33.890625 -1.421875 
Q 20.796875 -1.421875 13.15625 6.1875 
Q 5.515625 13.8125 5.515625 26.8125 
Q 5.515625 40.234375 12.765625 48.109375 
Q 20.015625 56 32.328125 56 
Q 43.359375 56 49.78125 48.890625 
Q 56.203125 41.796875 56.203125 29.59375 
z
M 47.21875 32.234375 
Q 47.125 39.59375 43.09375 43.984375 
Q 39.0625 48.390625 32.421875 48.390625 
Q 24.90625 48.390625 20.390625 44.140625 
Q 15.875 39.890625 15.1875 32.171875 
z
" id="DejaVuSans-101"/>
     </defs>
     <g transform="translate(461.578438 59.237813)scale(0.14 -0.14)">
      <use xlink:href="#DejaVuSans-98"/>
      <use x="63.476562" xlink:href="#DejaVuSans-97"/>
      <use x="124.755859" xlink:href="#DejaVuSans-115"/>
      <use x="176.855469" xlink:href="#DejaVuSans-101"/>
     </g>
    </g>
    <g id="patch_6">
     <path d="M 422.378438 79.787188 
L 450.378438 79.787188 
L 450.378438 69.987188 
L 422.378438 69.987188 
z
" style="fill:#36a2eb;opacity:0.5;stroke:#36a2eb;stroke-linejoin:miter;"/>
    </g>
    <g id="text_2">
     <!-- reminder -->
     <defs>
      <path d="M 41.109375 46.296875 
Q 39.59375 47.171875 37.8125 47.578125 
Q 36.03125 48 33.890625 48 
Q 26.265625 48 22.1875 43.046875 
Q 18.109375 38.09375 18.109375 28.8125 
L 18.109375 0 
L 9.078125 0 
L 9.078125 54.6875 
L 18.109375 54.6875 
L 18.109375 46.1875 
Q 20.953125 51.171875 25.484375 53.578125 
Q 30.03125 56 36.53125 56 
Q 37.453125 56 38.578125 55.875 
Q 39.703125 55.765625 41.0625 55.515625 
z
" id="DejaVuSans-114"/>
      <path d="M 52 44.1875 
Q 55.375 50.25 60.0625 53.125 
Q 64.75 56 71.09375 56 
Q 79.640625 56 84.28125 50.015625 
Q 88.921875 44.046875 88.921875 33.015625 
L 88.921875 0 
L 79.890625 0 
L 79.890625 32.71875 
Q 79.890625 40.578125 77.09375 44.375 
Q 74.3125 48.1875 68.609375 48.1875 
Q 61.625 48.1875 57.5625 43.546875 
Q 53.515625 38.921875 53.515625 30.90625 
L 53.515625 0 
L 44.484375 0 
L 44.484375 32.71875 
Q 44.484375 40.625 41.703125 44.40625 
Q 38.921875 48.1875 33.109375 48.1875 
Q 26.21875 48.1875 22.15625 43.53125 
Q 18.109375 38.875 18.109375 30.90625 
L 18.109375 0 
L 9.078125 0 
L 9.078125 54.6875 
L 18.109375 54.6875 
L 18.109375 46.1875 
Q 21.1875 51.21875 25.484375 53.609375 
Q 29.78125 56 35.6875 56 
Q 41.65625 56 45.828125 52.96875 
Q 50 49.953125 52 44.1875 
z
" id="DejaVuSans-109"/>
      <path d="M 9.421875 54.6875 
L 18.40625 54.6875 
L 18.40625 0 
L 9.421875 0 
z
M 9.421875 75.984375 
L 18.40625 75.984375 
L 18.40625 64.59375 
L 9.421875 64.59375 
z
" id="DejaVuSans-105"/>
      <path d="M 54.890625 33.015625 
L 54.890625 0 
L 45.90625 0 
L 45.90625 32.71875 
Q 45.90625 40.484375 42.875 44.328125 
Q 39.84375 48.1875 33.796875 48.1875 
Q 26.515625 48.1875 22.3125 43.546875 
Q 18.109375 38.921875 18.109375 30.90625 
L 18.109375 0 
L 9.078125 0 
L 9.078125 54.6875 
L 18.109375 54.6875 
L 18.109375 46.1875 
Q 21.34375 51.125 25.703125 53.5625 
Q 30.078125 56 35.796875 56 
Q 45.21875 56 50.046875 50.171875 
Q 54.890625 44.34375 54.890625 33.015625 
z
" id="DejaVuSans-110"/>
      <path d="M 45.40625 46.390625 
L 45.40625 75.984375 
L 54.390625 75.984375 
L 54.390625 0 
L 45.40625 0 
L 45.40625 8.203125 
Q 42.578125 3.328125 38.25 0.953125 
Q 33.9375 -1.421875 27.875 -1.421875 
Q 17.96875 -1.421875 11.734375 6.484375 
Q 5.515625 14.40625 5.515625 27.296875 
Q 5.515625 40.1875 11.734375 48.09375 
Q 17.96875 56 27.875 56 
Q 33.9375 56 38.25 53.625 
Q 42.578125 51.265625 45.40625 46.390625 
z
M 14.796875 27.296875 
Q 14.796875 17.390625 18.875 11.75 
Q 22.953125 6.109375 30.078125 6.109375 
Q 37.203125 6.109375 41.296875 11.75 
Q 45.40625 17.390625 45.40625 27.296875 
Q 45.40625 37.203125 41.296875 42.84375 
Q 37.203125 48.484375 30.078125 48.484375 
Q 22.953125 48.484375 18.875 42.84375 
Q 14.796875 37.203125 14.796875 27.296875 
z
" id="DejaVuSans-100"/>
     </defs>
     <g transform="translate(461.578438 79.787188)scale(0.14 -0.14)">
      <use xlink:href="#DejaVuSans-114"/>
      <use x="41.082031" xlink:href="#DejaVuSans-101"/>
      <use x="102.605469" xlink:href="#DejaVuSans-109"/>
      <use x="200.017578" xlink:href="#DejaVuSans-105"/>
      <use x="227.800781" xlink:href="#DejaVuSans-110"/>
      <use x="291.179688" xlink:href="#DejaVuSans-100"/>
      <use x="354.65625" xlink:href="#DejaVuSans-101"/>
      <use x="416.179688" xlink:href="#DejaVuSans-114"/>
     </g>
    </g>
   </g>
  </g>
  <g id="axes_2">
   <g id="patch_7">
    <path d="M 36 525.24 
L 538.2 525.24 
L 538.2 402.93 
L 36 402.93 
z
" style="fill:none;"/>
   </g>
   <g id="patch_8">
    <path clip-path="url(#pf2dbbb0de4)" d="M 153.089004 519.680455 
L 334.219391 519.680455 
L 334.219391 482.616818 
L 153.089004 482.616818 
z
" style="fill:#ff6384;opacity:0.5;"/>
   </g>
   <g id="patch_9">
    <path clip-path="url(#pf2dbbb0de4)" d="M 232.197196 445.553182 
L 418.446874 445.553182 
L 418.446874 408.489545 
L 232.197196 408.489545 
z
" style="fill:#36a2eb;opacity:0.5;"/>
   </g>
   <g id="matplotlib.axis_1">
    <g id="xtick_1">
     <g id="line2d_3">
      <defs>
       <path d="M 0 0 
L 0 3.5 
" id="m9736184db2" style="stroke:#000000;stroke-width:0.8;"/>
      </defs>
      <g>
       <use style="stroke:#000000;stroke-width:0.8;" x="84.161134" xlink:href="#m9736184db2" y="525.24"/>
      </g>
     </g>
     <g id="text_3">
      <!-- 4.0 -->
      <defs>
       <path d="M 37.796875 64.3125 
L 12.890625 25.390625 
L 37.796875 25.390625 
z
M 35.203125 72.90625 
L 47.609375 72.90625 
L 47.609375 25.390625 
L 58.015625 25.390625 
L 58.015625 17.1875 
L 47.609375 17.1875 
L 47.609375 0 
L 37.796875 0 
L 37.796875 17.1875 
L 4.890625 17.1875 
L 4.890625 26.703125 
z
" id="DejaVuSans-52"/>
       <path d="M 10.6875 12.40625 
L 21 12.40625 
L 21 0 
L 10.6875 0 
z
" id="DejaVuSans-46"/>
       <path d="M 31.78125 66.40625 
Q 24.171875 66.40625 20.328125 58.90625 
Q 16.5 51.421875 16.5 36.375 
Q 16.5 21.390625 20.328125 13.890625 
Q 24.171875 6.390625 31.78125 6.390625 
Q 39.453125 6.390625 43.28125 13.890625 
Q 47.125 21.390625 47.125 36.375 
Q 47.125 51.421875 43.28125 58.90625 
Q 39.453125 66.40625 31.78125 66.40625 
z
M 31.78125 74.21875 
Q 44.046875 74.21875 50.515625 64.515625 
Q 56.984375 54.828125 56.984375 36.375 
Q 56.984375 17.96875 50.515625 8.265625 
Q 44.046875 -1.421875 31.78125 -1.421875 
Q 19.53125 -1.421875 13.0625 8.265625 
Q 6.59375 17.96875 6.59375 36.375 
Q 6.59375 54.828125 13.0625 64.515625 
Q 19.53125 74.21875 31.78125 74.21875 
z
" id="DejaVuSans-48"/>
      </defs>
      <g transform="translate(73.028946 542.877813)scale(0.14 -0.14)">
       <use xlink:href="#DejaVuSans-52"/>
       <use x="63.623047" xlink:href="#DejaVuSans-46"/>
       <use x="95.410156" xlink:href="#DejaVuSans-48"/>
      </g>
     </g>
    </g>
    <g id="xtick_2">
     <g id="line2d_4">
      <g>
       <use style="stroke:#000000;stroke-width:0.8;" x="166.620581" xlink:href="#m9736184db2" y="525.24"/>
      </g>
     </g>
     <g id="text_4">
      <!-- 4.5 -->
      <defs>
       <path d="M 10.796875 72.90625 
L 49.515625 72.90625 
L 49.515625 64.59375 
L 19.828125 64.59375 
L 19.828125 46.734375 
Q 21.96875 47.46875 24.109375 47.828125 
Q 26.265625 48.1875 28.421875 48.1875 
Q 40.625 48.1875 47.75 41.5 
Q 54.890625 34.8125 54.890625 23.390625 
Q 54.890625 11.625 47.5625 5.09375 
Q 40.234375 -1.421875 26.90625 -1.421875 
Q 22.3125 -1.421875 17.546875 -0.640625 
Q 12.796875 0.140625 7.71875 1.703125 
L 7.71875 11.625 
Q 12.109375 9.234375 16.796875 8.0625 
Q 21.484375 6.890625 26.703125 6.890625 
Q 35.15625 6.890625 40.078125 11.328125 
Q 45.015625 15.765625 45.015625 23.390625 
Q 45.015625 31 40.078125 35.4375 
Q 35.15625 39.890625 26.703125 39.890625 
Q 22.75 39.890625 18.8125 39.015625 
Q 14.890625 38.140625 10.796875 36.28125 
z
" id="DejaVuSans-53"/>
      </defs>
      <g transform="translate(155.488394 542.877813)scale(0.14 -0.14)">
       <use xlink:href="#DejaVuSans-52"/>
       <use x="63.623047" xlink:href="#DejaVuSans-46"/>
       <use x="95.410156" xlink:href="#DejaVuSans-53"/>
      </g>
     </g>
    </g>
    <g id="xtick_3">
     <g id="line2d_5">
      <g>
       <use style="stroke:#000000;stroke-width:0.8;" x="249.080029" xlink:href="#m9736184db2" y="525.24"/>
      </g>
     </g>
     <g id="text_5">
      <!-- 5.0 -->
      <g transform="translate(237.947842 542.877813)scale(0.14 -0.14)">
       <use xlink:href="#DejaVuSans-53"/>
       <use x="63.623047" xlink:href="#DejaVuSans-46"/>
       <use x="95.410156" xlink:href="#DejaVuSans-48"/>
      </g>
     </g>
    </g>
    <g id="xtick_4">
     <g id="line2d_6">
      <g>
       <use style="stroke:#000000;stroke-width:0.8;" x="331.539477" xlink:href="#m9736184db2" y="525.24"/>
      </g>
     </g>
     <g id="text_6">
      <!-- 5.5 -->
      <g transform="translate(320.40729 542.877813)scale(0.14 -0.14)">
       <use xlink:href="#DejaVuSans-53"/>
       <use x="63.623047" xlink:href="#DejaVuSans-46"/>
       <use x="95.410156" xlink:href="#DejaVuSans-53"/>
      </g>
     </g>
    </g>
    <g id="xtick_5">
     <g id="line2d_7">
      <g>
       <use style="stroke:#000000;stroke-width:0.8;" x="413.998925" xlink:href="#m9736184db2" y="525.24"/>
      </g>
     </g>
     <g id="text_7">
      <!-- 6.0 -->
      <defs>
       <path d="M 33.015625 40.375 
Q 26.375 40.375 22.484375 35.828125 
Q 18.609375 31.296875 18.609375 23.390625 
Q 18.609375 15.53125 22.484375 10.953125 
Q 26.375 6.390625 33.015625 6.390625 
Q 39.65625 6.390625 43.53125 10.953125 
Q 47.40625 15.53125 47.40625 23.390625 
Q 47.40625 31.296875 43.53125 35.828125 
Q 39.65625 40.375 33.015625 40.375 
z
M 52.59375 71.296875 
L 52.59375 62.3125 
Q 48.875 64.0625 45.09375 64.984375 
Q 41.3125 65.921875 37.59375 65.921875 
Q 27.828125 65.921875 22.671875 59.328125 
Q 17.53125 52.734375 16.796875 39.40625 
Q 19.671875 43.65625 24.015625 45.921875 
Q 28.375 48.1875 33.59375 48.1875 
Q 44.578125 48.1875 50.953125 41.515625 
Q 57.328125 34.859375 57.328125 23.390625 
Q 57.328125 12.15625 50.6875 5.359375 
Q 44.046875 -1.421875 33.015625 -1.421875 
Q 20.359375 -1.421875 13.671875 8.265625 
Q 6.984375 17.96875 6.984375 36.375 
Q 6.984375 53.65625 15.1875 63.9375 
Q 23.390625 74.21875 37.203125 74.21875 
Q 40.921875 74.21875 44.703125 73.484375 
Q 48.484375 72.75 52.59375 71.296875 
z
" id="DejaVuSans-54"/>
      </defs>
      <g transform="translate(402.866738 542.877813)scale(0.14 -0.14)">
       <use xlink:href="#DejaVuSans-54"/>
       <use x="63.623047" xlink:href="#DejaVuSans-46"/>
       <use x="95.410156" xlink:href="#DejaVuSans-48"/>
      </g>
     </g>
    </g>
    <g id="xtick_6">
     <g id="line2d_8">
      <g>
       <use style="stroke:#000000;stroke-width:0.8;" x="496.458373" xlink:href="#m9736184db2" y="525.24"/>
      </g>
     </g>
     <g id="text_8">
      <!-- 6.5 -->
      <g transform="translate(485.326186 542.877813)scale(0.14 -0.14)">
       <use xlink:href="#DejaVuSans-54"/>
       <use x="63.623047" xlink:href="#DejaVuSans-46"/>
       <use x="95.410156" xlink:href="#DejaVuSans-53"/>
      </g>
     </g>
    </g>
   </g>
   <g id="line2d_9">
    <path clip-path="url(#pf2dbbb0de4)" d="M 243.654198 525.24 
L 243.654198 402.93 
" style="fill:none;stroke:#ff6384;stroke-dasharray:5.55,2.4;stroke-dashoffset:0;stroke-opacity:0.8;stroke-width:1.5;"/>
   </g>
   <g id="line2d_10">
    <path clip-path="url(#pf2dbbb0de4)" d="M 325.322035 525.24 
L 325.322035 402.93 
" style="fill:none;stroke:#36a2eb;stroke-dasharray:5.55,2.4;stroke-dashoffset:0;stroke-opacity:0.8;stroke-width:1.5;"/>
   </g>
   <g id="patch_10">
    <path d="M 36 525.24 
L 538.2 525.24 
" style="fill:none;stroke:#000000;stroke-linecap:square;stroke-linejoin:miter;stroke-width:0.8;"/>
   </g>
  </g>
 </g>
 <defs>
  <clipPath id="p5b0528ad9f">
   <rect height="366.93" width="502.2" x="36" y="36"/>
  </clipPath>
  <clipPath id="pf2dbbb0de4">
   <rect height="122.31" width="502.2" x="36" y="402.93"/>
  </clipPath>
 </defs>
</svg>
