<?xml version="1.0" encoding="utf-8" standalone="no"?>
<!DOCTYPE svg PUBLIC "-//W3C//DTD SVG 1.1//EN"
  "http://www.w3.org/Graphics/SVG/1.1/DTD/svg11.dtd">
<!-- Created with matplotlib (https://matplotlib.org/) -->
<svg height="591.509375pt" version="1.1" viewBox="0 0 578.989389 591.509375" width="578.989389pt" xmlns="http://www.w3.org/2000/svg" xmlns:xlink="http://www.w3.org/1999/xlink">
 <defs>
  <style type="text/css">
*{stroke-linecap:butt;stroke-linejoin:round;}
  </style>
 </defs>
 <g id="figure_1">
  <g id="patch_1">
   <path d="M 0 591.509375 
L 578.989389 591.509375 
L 578.989389 0 
L 0 0 
z
" style="fill:none;"/>
  </g>
  <g id="axes_1">
   <g id="patch_2">
    <path d="M 40.789389 410.22 
L 542.989389 410.22 
L 542.989389 36 
L 40.789389 36 
z
" style="fill:none;"/>
   </g>
   <g id="PolyCollection_1">
    <defs>
     <path d="M 170.132902 -198.299375 
L 170.132902 -198.379419 
L 172.830198 -198.409602 
L 175.527495 -198.450179 
L 178.224791 -198.50435 
L 180.922088 -198.576167 
L 183.619385 -198.670713 
L 186.316681 -198.794312 
L 189.013978 -198.954757 
L 191.711274 -199.161566 
L 194.408571 -199.426251 
L 197.105868 -199.762606 
L 199.803164 -200.186991 
L 202.500461 -200.718613 
L 205.197757 -201.379779 
L 207.895054 -202.196109 
L 210.592351 -203.196689 
L 213.289647 -204.414132 
L 215.986944 -205.884531 
L 218.684241 -207.647272 
L 221.381537 -209.744682 
L 224.078834 -212.221484 
L 226.77613 -215.12405 
L 229.473427 -218.499425 
L 232.170724 -222.394116 
L 234.86802 -226.852666 
L 237.565317 -231.916004 
L 240.262613 -237.619621 
L 242.95991 -243.991607 
L 245.657207 -251.050606 
L 248.354503 -258.803769 
L 251.0518 -267.244776 
L 253.749096 -276.352046 
L 256.446393 -286.087207 
L 259.14369 -296.393942 
L 261.840986 -307.197315 
L 264.538283 -318.403648 
L 267.235579 -329.901024 
L 269.932876 -341.560476 
L 272.630173 -353.237864 
L 275.327469 -364.776448 
L 278.024766 -376.010095 
L 280.722063 -386.767063 
L 283.419359 -396.874232 
L 286.116656 -406.161659 
L 288.813952 -414.467279 
L 291.511249 -421.641585 
L 294.208546 -427.552089 
L 296.905842 -432.087391 
L 299.603139 -435.160661 
L 302.300435 -436.712414 
L 304.997732 -436.712414 
L 307.695029 -435.160661 
L 310.392325 -432.087391 
L 313.089622 -427.552089 
L 315.786918 -421.641585 
L 318.484215 -414.467279 
L 321.181512 -406.161659 
L 323.878808 -396.874232 
L 326.576105 -386.767063 
L 329.273402 -376.010095 
L 331.970698 -364.776448 
L 334.667995 -353.237864 
L 337.365291 -341.560476 
L 340.062588 -329.901024 
L 342.759885 -318.403648 
L 345.457181 -307.197315 
L 348.154478 -296.393942 
L 350.851774 -286.087207 
L 353.549071 -276.352046 
L 356.246368 -267.244776 
L 358.943664 -258.803769 
L 361.640961 -251.050606 
L 364.338257 -243.991607 
L 367.035554 -237.619621 
L 369.732851 -231.916004 
L 372.430147 -226.852666 
L 375.127444 -222.394116 
L 377.82474 -218.499425 
L 380.522037 -215.12405 
L 383.219334 -212.221484 
L 385.91663 -209.744682 
L 388.613927 -207.647272 
L 391.311224 -205.884531 
L 394.00852 -204.414132 
L 396.705817 -203.196689 
L 399.403113 -202.196109 
L 402.10041 -201.379779 
L 404.797707 -200.718613 
L 407.495003 -200.186991 
L 410.1923 -199.762606 
L 412.889596 -199.426251 
L 415.586893 -199.161566 
L 418.28419 -198.954757 
L 420.981486 -198.794312 
L 423.678783 -198.670713 
L 426.376079 -198.576167 
L 429.073376 -198.50435 
L 431.770673 -198.450179 
L 434.467969 -198.409602 
L 437.165266 -198.379419 
L 437.165266 -198.299375 
L 437.165266 -198.299375 
L 434.467969 -198.299375 
L 431.770673 -198.299375 
L 429.073376 -198.299375 
L 426.376079 -198.299375 
L 423.678783 -198.299375 
L 420.981486 -198.299375 
L 418.28419 -198.299375 
L 415.586893 -198.299375 
L 412.889596 -198.299375 
L 410.1923 -198.299375 
L 407.495003 -198.299375 
L 404.797707 -198.299375 
L 402.10041 -198.299375 
L 399.403113 -198.299375 
L 396.705817 -198.299375 
L 394.00852 -198.299375 
L 391.311224 -198.299375 
L 388.613927 -198.299375 
L 385.91663 -198.299375 
L 383.219334 -198.299375 
L 380.522037 -198.299375 
L 377.82474 -198.299375 
L 375.127444 -198.299375 
L 372.430147 -198.299375 
L 369.732851 -198.299375 
L 367.035554 -198.299375 
L 364.338257 -198.299375 
L 361.640961 -198.299375 
L 358.943664 -198.299375 
L 356.246368 -198.299375 
L 353.549071 -198.299375 
L 350.851774 -198.299375 
L 348.154478 -198.299375 
L 345.457181 -198.299375 
L 342.759885 -198.299375 
L 340.062588 -198.299375 
L 337.365291 -198.299375 
L 334.667995 -198.299375 
L 331.970698 -198.299375 
L 329.273402 -198.299375 
L 326.576105 -198.299375 
L 323.878808 -198.299375 
L 321.181512 -198.299375 
L 318.484215 -198.299375 
L 315.786918 -198.299375 
L 313.089622 -198.299375 
L 310.392325 -198.299375 
L 307.695029 -198.299375 
L 304.997732 -198.299375 
L 302.300435 -198.299375 
L 299.603139 -198.299375 
L 296.905842 -198.299375 
L 294.208546 -198.299375 
L 291.511249 -198.299375 
L 288.813952 -198.299375 
L 286.116656 -198.299375 
L 283.419359 -198.299375 
L 280.722063 -198.299375 
L 278.024766 -198.299375 
L 275.327469 -198.299375 
L 272.630173 -198.299375 
L 269.932876 -198.299375 
L 267.235579 -198.299375 
L 264.538283 -198.299375 
L 261.840986 -198.299375 
L 259.14369 -198.299375 
L 256.446393 -198.299375 
L 253.749096 -198.299375 
L 251.0518 -198.299375 
L 248.354503 -198.299375 
L 245.657207 -198.299375 
L 242.95991 -198.299375 
L 240.262613 -198.299375 
L 237.565317 -198.299375 
L 234.86802 -198.299375 
L 232.170724 -198.299375 
L 229.473427 -198.299375 
L 226.77613 -198.299375 
L 224.078834 -198.299375 
L 221.381537 -198.299375 
L 218.684241 -198.299375 
L 215.986944 -198.299375 
L 213.289647 -198.299375 
L 210.592351 -198.299375 
L 207.895054 -198.299375 
L 205.197757 -198.299375 
L 202.500461 -198.299375 
L 199.803164 -198.299375 
L 197.105868 -198.299375 
L 194.408571 -198.299375 
L 191.711274 -198.299375 
L 189.013978 -198.299375 
L 186.316681 -198.299375 
L 183.619385 -198.299375 
L 180.922088 -198.299375 
L 178.224791 -198.299375 
L 175.527495 -198.299375 
L 172.830198 -198.299375 
L 170.132902 -198.299375 
z
" id="m51b9458d16" style="stroke:#ff6384;stroke-opacity:0.5;"/>
    </defs>
    <g clip-path="url(#p964ae17c77)">
     <use style="fill:#ff6384;fill-opacity:0.5;stroke:#ff6384;stroke-opacity:0.5;" x="0" xlink:href="#m51b9458d16" y="591.509375"/>
    </g>
   </g>
   <g id="PolyCollection_2">
    <defs>
     <path d="M 150.383459 -198.299375 
L 150.383459 -198.413593 
L 152.273732 -198.456662 
L 154.164004 -198.514563 
L 156.054277 -198.591861 
L 157.944549 -198.694339 
L 159.834821 -198.829251 
L 161.725094 -199.005619 
L 163.615366 -199.234563 
L 165.505639 -199.529665 
L 167.395911 -199.907354 
L 169.286184 -200.387311 
L 171.176456 -200.992881 
L 173.066728 -201.751471 
L 174.957001 -202.694912 
L 176.847273 -203.859762 
L 178.737546 -205.287525 
L 180.627818 -207.024738 
L 182.518091 -209.122902 
L 184.408363 -211.638221 
L 186.298635 -214.631088 
L 188.188908 -218.165325 
L 190.07918 -222.3071 
L 191.969453 -227.123541 
L 193.859725 -232.681014 
L 195.749998 -239.043076 
L 197.64027 -246.268132 
L 199.530542 -254.406825 
L 201.420815 -263.499238 
L 203.311087 -273.571974 
L 205.20136 -284.635235 
L 207.091632 -296.680007 
L 208.981905 -309.675493 
L 210.872177 -323.566938 
L 212.762449 -338.273983 
L 214.652722 -353.689699 
L 216.542994 -369.680411 
L 218.433267 -386.086424 
L 220.323539 -402.723708 
L 222.213812 -419.386587 
L 224.104084 -435.8514 
L 225.994356 -451.881089 
L 227.884629 -467.230586 
L 229.774901 -481.652863 
L 231.665174 -494.905422 
L 233.555446 -506.757005 
L 235.445719 -516.994276 
L 237.335991 -525.428184 
L 239.226263 -531.899766 
L 241.116536 -536.285125 
L 243.006808 -538.499375 
L 244.897081 -538.499375 
L 246.787353 -536.285125 
L 248.677626 -531.899766 
L 250.567898 -525.428184 
L 252.458171 -516.994276 
L 254.348443 -506.757005 
L 256.238715 -494.905422 
L 258.128988 -481.652863 
L 260.01926 -467.230586 
L 261.909533 -451.881089 
L 263.799805 -435.8514 
L 265.690078 -419.386587 
L 267.58035 -402.723708 
L 269.470622 -386.086424 
L 271.360895 -369.680411 
L 273.251167 -353.689699 
L 275.14144 -338.273983 
L 277.031712 -323.566938 
L 278.921985 -309.675493 
L 280.812257 -296.680007 
L 282.702529 -284.635235 
L 284.592802 -273.571974 
L 286.483074 -263.499238 
L 288.373347 -254.406825 
L 290.263619 -246.268132 
L 292.153892 -239.043076 
L 294.044164 -232.681014 
L 295.934436 -227.123541 
L 297.824709 -222.3071 
L 299.714981 -218.165325 
L 301.605254 -214.631088 
L 303.495526 -211.638221 
L 305.385799 -209.122902 
L 307.276071 -207.024738 
L 309.166343 -205.287525 
L 311.056616 -203.859762 
L 312.946888 -202.694912 
L 314.837161 -201.751471 
L 316.727433 -200.992881 
L 318.617706 -200.387311 
L 320.507978 -199.907354 
L 322.39825 -199.529665 
L 324.288523 -199.234563 
L 326.178795 -199.005619 
L 328.069068 -198.829251 
L 329.95934 -198.694339 
L 331.849613 -198.591861 
L 333.739885 -198.514563 
L 335.630157 -198.456662 
L 337.52043 -198.413593 
L 337.52043 -198.299375 
L 337.52043 -198.299375 
L 335.630157 -198.299375 
L 333.739885 -198.299375 
L 331.849613 -198.299375 
L 329.95934 -198.299375 
L 328.069068 -198.299375 
L 326.178795 -198.299375 
L 324.288523 -198.299375 
L 322.39825 -198.299375 
L 320.507978 -198.299375 
L 318.617706 -198.299375 
L 316.727433 -198.299375 
L 314.837161 -198.299375 
L 312.946888 -198.299375 
L 311.056616 -198.299375 
L 309.166343 -198.299375 
L 307.276071 -198.299375 
L 305.385799 -198.299375 
L 303.495526 -198.299375 
L 301.605254 -198.299375 
L 299.714981 -198.299375 
L 297.824709 -198.299375 
L 295.934436 -198.299375 
L 294.044164 -198.299375 
L 292.153892 -198.299375 
L 290.263619 -198.299375 
L 288.373347 -198.299375 
L 286.483074 -198.299375 
L 284.592802 -198.299375 
L 282.702529 -198.299375 
L 280.812257 -198.299375 
L 278.921985 -198.299375 
L 277.031712 -198.299375 
L 275.14144 -198.299375 
L 273.251167 -198.299375 
L 271.360895 -198.299375 
L 269.470622 -198.299375 
L 267.58035 -198.299375 
L 265.690078 -198.299375 
L 263.799805 -198.299375 
L 261.909533 -198.299375 
L 260.01926 -198.299375 
L 258.128988 -198.299375 
L 256.238715 -198.299375 
L 254.348443 -198.299375 
L 252.458171 -198.299375 
L 250.567898 -198.299375 
L 248.677626 -198.299375 
L 246.787353 -198.299375 
L 244.897081 -198.299375 
L 243.006808 -198.299375 
L 241.116536 -198.299375 
L 239.226263 -198.299375 
L 237.335991 -198.299375 
L 235.445719 -198.299375 
L 233.555446 -198.299375 
L 231.665174 -198.299375 
L 229.774901 -198.299375 
L 227.884629 -198.299375 
L 225.994356 -198.299375 
L 224.104084 -198.299375 
L 222.213812 -198.299375 
L 220.323539 -198.299375 
L 218.433267 -198.299375 
L 216.542994 -198.299375 
L 214.652722 -198.299375 
L 212.762449 -198.299375 
L 210.872177 -198.299375 
L 208.981905 -198.299375 
L 207.091632 -198.299375 
L 205.20136 -198.299375 
L 203.311087 -198.299375 
L 201.420815 -198.299375 
L 199.530542 -198.299375 
L 197.64027 -198.299375 
L 195.749998 -198.299375 
L 193.859725 -198.299375 
L 191.969453 -198.299375 
L 190.07918 -198.299375 
L 188.188908 -198.299375 
L 186.298635 -198.299375 
L 184.408363 -198.299375 
L 182.518091 -198.299375 
L 180.627818 -198.299375 
L 178.737546 -198.299375 
L 176.847273 -198.299375 
L 174.957001 -198.299375 
L 173.066728 -198.299375 
L 171.176456 -198.299375 
L 169.286184 -198.299375 
L 167.395911 -198.299375 
L 165.505639 -198.299375 
L 163.615366 -198.299375 
L 161.725094 -198.299375 
L 159.834821 -198.299375 
L 157.944549 -198.299375 
L 156.054277 -198.299375 
L 154.164004 -198.299375 
L 152.273732 -198.299375 
L 150.383459 -198.299375 
z
" id="m5c8b0e69b9" style="stroke:#36a2eb;stroke-opacity:0.5;"/>
    </defs>
    <g clip-path="url(#p964ae17c77)">
     <use style="fill:#36a2eb;fill-opacity:0.5;stroke:#36a2eb;stroke-opacity:0.5;" x="0" xlink:href="#m5c8b0e69b9" y="591.509375"/>
    </g>
   </g>
   <g id="PolyCollection_3">
    <defs>
     <path d="M 63.616662 -198.299375 
L 63.616662 -198.346193 
L 68.228232 -198.363847 
L 72.839802 -198.38758 
L 77.451373 -198.419264 
L 82.062943 -198.46127 
L 86.674513 -198.51657 
L 91.286083 -198.588863 
L 95.897654 -198.682707 
L 100.509224 -198.803668 
L 105.120794 -198.958482 
L 109.732364 -199.155215 
L 114.343935 -199.403437 
L 118.955505 -199.714382 
L 123.567075 -200.101096 
L 128.178645 -200.578565 
L 132.790216 -201.163802 
L 137.401786 -201.875882 
L 142.013356 -202.735915 
L 146.624926 -203.766938 
L 151.236497 -204.993708 
L 155.848067 -206.442384 
L 160.459637 -208.140088 
L 165.071207 -210.114337 
L 169.682778 -212.392333 
L 174.294348 -215.000128 
L 178.905918 -217.961662 
L 183.517488 -221.297695 
L 188.129059 -225.024654 
L 192.740629 -229.153446 
L 197.352199 -233.688253 
L 201.963769 -238.625378 
L 206.57534 -243.952199 
L 211.18691 -249.646272 
L 215.79848 -255.674657 
L 220.41005 -261.993525 
L 225.021621 -268.548082 
L 229.633191 -275.27287 
L 234.244761 -282.092456 
L 238.856331 -288.922534 
L 243.467902 -295.671424 
L 248.079472 -302.241958 
L 252.691042 -308.533683 
L 257.302612 -314.445342 
L 261.914183 -319.877537 
L 266.525753 -324.735474 
L 271.137323 -328.931709 
L 275.748893 -332.388749 
L 280.360464 -335.041436 
L 284.972034 -336.838985 
L 289.583604 -337.746602 
L 294.195174 -337.746602 
L 298.806745 -336.838985 
L 303.418315 -335.041436 
L 308.029885 -332.388749 
L 312.641455 -328.931709 
L 317.253026 -324.735474 
L 321.864596 -319.877537 
L 326.476166 -314.445342 
L 331.087736 -308.533683 
L 335.699307 -302.241958 
L 340.310877 -295.671424 
L 344.922447 -288.922534 
L 349.534017 -282.092456 
L 354.145588 -275.27287 
L 358.757158 -268.548082 
L 363.368728 -261.993525 
L 367.980298 -255.674657 
L 372.591869 -249.646272 
L 377.203439 -243.952199 
L 381.815009 -238.625378 
L 386.426579 -233.688253 
L 391.03815 -229.153446 
L 395.64972 -225.024654 
L 400.26129 -221.297695 
L 404.87286 -217.961662 
L 409.484431 -215.000128 
L 414.096001 -212.392333 
L 418.707571 -210.114337 
L 423.319141 -208.140088 
L 427.930712 -206.442384 
L 432.542282 -204.993708 
L 437.153852 -203.766938 
L 441.765422 -202.735915 
L 446.376993 -201.875882 
L 450.988563 -201.163802 
L 455.600133 -200.578565 
L 460.211703 -200.101096 
L 464.823274 -199.714382 
L 469.434844 -199.403437 
L 474.046414 -199.155215 
L 478.657984 -198.958482 
L 483.269555 -198.803668 
L 487.881125 -198.682707 
L 492.492695 -198.588863 
L 497.104265 -198.51657 
L 501.715835 -198.46127 
L 506.327406 -198.419264 
L 510.938976 -198.38758 
L 515.550546 -198.363847 
L 520.162116 -198.346193 
L 520.162116 -198.299375 
L 520.162116 -198.299375 
L 515.550546 -198.299375 
L 510.938976 -198.299375 
L 506.327406 -198.299375 
L 501.715835 -198.299375 
L 497.104265 -198.299375 
L 492.492695 -198.299375 
L 487.881125 -198.299375 
L 483.269555 -198.299375 
L 478.657984 -198.299375 
L 474.046414 -198.299375 
L 469.434844 -198.299375 
L 464.823274 -198.299375 
L 460.211703 -198.299375 
L 455.600133 -198.299375 
L 450.988563 -198.299375 
L 446.376993 -198.299375 
L 441.765422 -198.299375 
L 437.153852 -198.299375 
L 432.542282 -198.299375 
L 427.930712 -198.299375 
L 423.319141 -198.299375 
L 418.707571 -198.299375 
L 414.096001 -198.299375 
L 409.484431 -198.299375 
L 404.87286 -198.299375 
L 400.26129 -198.299375 
L 395.64972 -198.299375 
L 391.03815 -198.299375 
L 386.426579 -198.299375 
L 381.815009 -198.299375 
L 377.203439 -198.299375 
L 372.591869 -198.299375 
L 367.980298 -198.299375 
L 363.368728 -198.299375 
L 358.757158 -198.299375 
L 354.145588 -198.299375 
L 349.534017 -198.299375 
L 344.922447 -198.299375 
L 340.310877 -198.299375 
L 335.699307 -198.299375 
L 331.087736 -198.299375 
L 326.476166 -198.299375 
L 321.864596 -198.299375 
L 317.253026 -198.299375 
L 312.641455 -198.299375 
L 308.029885 -198.299375 
L 303.418315 -198.299375 
L 298.806745 -198.299375 
L 294.195174 -198.299375 
L 289.583604 -198.299375 
L 284.972034 -198.299375 
L 280.360464 -198.299375 
L 275.748893 -198.299375 
L 271.137323 -198.299375 
L 266.525753 -198.299375 
L 261.914183 -198.299375 
L 257.302612 -198.299375 
L 252.691042 -198.299375 
L 248.079472 -198.299375 
L 243.467902 -198.299375 
L 238.856331 -198.299375 
L 234.244761 -198.299375 
L 229.633191 -198.299375 
L 225.021621 -198.299375 
L 220.41005 -198.299375 
L 215.79848 -198.299375 
L 211.18691 -198.299375 
L 206.57534 -198.299375 
L 201.963769 -198.299375 
L 197.352199 -198.299375 
L 192.740629 -198.299375 
L 188.129059 -198.299375 
L 183.517488 -198.299375 
L 178.905918 -198.299375 
L 174.294348 -198.299375 
L 169.682778 -198.299375 
L 165.071207 -198.299375 
L 160.459637 -198.299375 
L 155.848067 -198.299375 
L 151.236497 -198.299375 
L 146.624926 -198.299375 
L 142.013356 -198.299375 
L 137.401786 -198.299375 
L 132.790216 -198.299375 
L 128.178645 -198.299375 
L 123.567075 -198.299375 
L 118.955505 -198.299375 
L 114.343935 -198.299375 
L 109.732364 -198.299375 
L 105.120794 -198.299375 
L 100.509224 -198.299375 
L 95.897654 -198.299375 
L 91.286083 -198.299375 
L 86.674513 -198.299375 
L 82.062943 -198.299375 
L 77.451373 -198.299375 
L 72.839802 -198.299375 
L 68.228232 -198.299375 
L 63.616662 -198.299375 
z
" id="mf4cd984b6c" style="stroke:#4bc0c0;stroke-opacity:0.5;"/>
    </defs>
    <g clip-path="url(#p964ae17c77)">
     <use style="fill:#4bc0c0;fill-opacity:0.5;stroke:#4bc0c0;stroke-opacity:0.5;" x="0" xlink:href="#mf4cd984b6c" y="591.509375"/>
    </g>
   </g>
   <g id="line2d_1">
    <path clip-path="url(#p964ae17c77)" d="M 170.132902 393.129956 
L 172.830198 393.099773 
L 175.527495 393.059196 
L 178.224791 393.005025 
L 180.922088 392.933208 
L 183.619385 392.838662 
L 186.316681 392.715063 
L 189.013978 392.554618 
L 191.711274 392.347809 
L 194.408571 392.083124 
L 197.105868 391.746769 
L 199.803164 391.322384 
L 202.500461 390.790762 
L 205.197757 390.129596 
L 207.895054 389.313266 
L 210.592351 388.312686 
L 213.289647 387.095243 
L 215.986944 385.624844 
L 218.684241 383.862103 
L 221.381537 381.764693 
L 224.078834 379.287891 
L 226.77613 376.385325 
L 229.473427 373.00995 
L 232.170724 369.115259 
L 234.86802 364.656709 
L 237.565317 359.593371 
L 240.262613 353.889754 
L 242.95991 347.517768 
L 245.657207 340.458769 
L 248.354503 332.705606 
L 251.0518 324.264599 
L 253.749096 315.157329 
L 256.446393 305.422168 
L 259.14369 295.115433 
L 261.840986 284.31206 
L 264.538283 273.105727 
L 267.235579 261.608351 
L 269.932876 249.948899 
L 272.630173 238.271511 
L 275.327469 226.732927 
L 278.024766 215.49928 
L 280.722063 204.742312 
L 283.419359 194.635143 
L 286.116656 185.347716 
L 288.813952 177.042096 
L 291.511249 169.86779 
L 294.208546 163.957286 
L 296.905842 159.421984 
L 299.603139 156.348714 
L 302.300435 154.796961 
L 304.997732 154.796961 
L 307.695029 156.348714 
L 310.392325 159.421984 
L 313.089622 163.957286 
L 315.786918 169.86779 
L 318.484215 177.042096 
L 321.181512 185.347716 
L 323.878808 194.635143 
L 326.576105 204.742312 
L 329.273402 215.49928 
L 331.970698 226.732927 
L 334.667995 238.271511 
L 337.365291 249.948899 
L 340.062588 261.608351 
L 342.759885 273.105727 
L 345.457181 284.31206 
L 348.154478 295.115433 
L 350.851774 305.422168 
L 353.549071 315.157329 
L 356.246368 324.264599 
L 358.943664 332.705606 
L 361.640961 340.458769 
L 364.338257 347.517768 
L 367.035554 353.889754 
L 369.732851 359.593371 
L 372.430147 364.656709 
L 375.127444 369.115259 
L 377.82474 373.00995 
L 380.522037 376.385325 
L 383.219334 379.287891 
L 385.91663 381.764693 
L 388.613927 383.862103 
L 391.311224 385.624844 
L 394.00852 387.095243 
L 396.705817 388.312686 
L 399.403113 389.313266 
L 402.10041 390.129596 
L 404.797707 390.790762 
L 407.495003 391.322384 
L 410.1923 391.746769 
L 412.889596 392.083124 
L 415.586893 392.347809 
L 418.28419 392.554618 
L 420.981486 392.715063 
L 423.678783 392.838662 
L 426.376079 392.933208 
L 429.073376 393.005025 
L 431.770673 393.059196 
L 434.467969 393.099773 
L 437.165266 393.129956 
" style="fill:none;stroke:#ff6384;stroke-linecap:square;"/>
   </g>
   <g id="line2d_2">
    <path clip-path="url(#p964ae17c77)" d="M 150.383459 393.095782 
L 152.273732 393.052713 
L 154.164004 392.994812 
L 156.054277 392.917514 
L 157.944549 392.815036 
L 159.834821 392.680124 
L 161.725094 392.503756 
L 163.615366 392.274812 
L 165.505639 391.97971 
L 167.395911 391.602021 
L 169.286184 391.122064 
L 171.176456 390.516494 
L 173.066728 389.757904 
L 174.957001 388.814463 
L 176.847273 387.649613 
L 178.737546 386.22185 
L 180.627818 384.484637 
L 182.518091 382.386473 
L 184.408363 379.871154 
L 186.298635 376.878287 
L 188.188908 373.34405 
L 190.07918 369.202275 
L 191.969453 364.385834 
L 193.859725 358.828361 
L 195.749998 352.466299 
L 197.64027 345.241243 
L 199.530542 337.10255 
L 201.420815 328.010137 
L 203.311087 317.937401 
L 205.20136 306.87414 
L 207.091632 294.829368 
L 208.981905 281.833882 
L 210.872177 267.942437 
L 212.762449 253.235392 
L 214.652722 237.819676 
L 216.542994 221.828964 
L 218.433267 205.422951 
L 220.323539 188.785667 
L 222.213812 172.122788 
L 224.104084 155.657975 
L 225.994356 139.628286 
L 227.884629 124.278789 
L 229.774901 109.856512 
L 231.665174 96.603953 
L 233.555446 84.75237 
L 235.445719 74.515099 
L 237.335991 66.081191 
L 239.226263 59.609609 
L 241.116536 55.22425 
L 243.006808 53.01 
L 244.897081 53.01 
L 246.787353 55.22425 
L 248.677626 59.609609 
L 250.567898 66.081191 
L 252.458171 74.515099 
L 254.348443 84.75237 
L 256.238715 96.603953 
L 258.128988 109.856512 
L 260.01926 124.278789 
L 261.909533 139.628286 
L 263.799805 155.657975 
L 265.690078 172.122788 
L 267.58035 188.785667 
L 269.470622 205.422951 
L 271.360895 221.828964 
L 273.251167 237.819676 
L 275.14144 253.235392 
L 277.031712 267.942437 
L 278.921985 281.833882 
L 280.812257 294.829368 
L 282.702529 306.87414 
L 284.592802 317.937401 
L 286.483074 328.010137 
L 288.373347 337.10255 
L 290.263619 345.241243 
L 292.153892 352.466299 
L 294.044164 358.828361 
L 295.934436 364.385834 
L 297.824709 369.202275 
L 299.714981 373.34405 
L 301.605254 376.878287 
L 303.495526 379.871154 
L 305.385799 382.386473 
L 307.276071 384.484637 
L 309.166343 386.22185 
L 311.056616 387.649613 
L 312.946888 388.814463 
L 314.837161 389.757904 
L 316.727433 390.516494 
L 318.617706 391.122064 
L 320.507978 391.602021 
L 322.39825 391.97971 
L 324.288523 392.274812 
L 326.178795 392.503756 
L 328.069068 392.680124 
L 329.95934 392.815036 
L 331.849613 392.917514 
L 333.739885 392.994812 
L 335.630157 393.052713 
L 337.52043 393.095782 
" style="fill:none;stroke:#36a2eb;stroke-linecap:square;"/>
   </g>
   <g id="line2d_3">
    <path clip-path="url(#p964ae17c77)" d="M 63.616662 393.163182 
L 68.228232 393.145528 
L 72.839802 393.121795 
L 77.451373 393.090111 
L 82.062943 393.048105 
L 86.674513 392.992805 
L 91.286083 392.920512 
L 95.897654 392.826668 
L 100.509224 392.705707 
L 105.120794 392.550893 
L 109.732364 392.35416 
L 114.343935 392.105938 
L 118.955505 391.794993 
L 123.567075 391.408279 
L 128.178645 390.93081 
L 132.790216 390.345573 
L 137.401786 389.633493 
L 142.013356 388.77346 
L 146.624926 387.742437 
L 151.236497 386.515667 
L 155.848067 385.066991 
L 160.459637 383.369287 
L 165.071207 381.395038 
L 169.682778 379.117042 
L 174.294348 376.509247 
L 178.905918 373.547713 
L 183.517488 370.21168 
L 188.129059 366.484721 
L 192.740629 362.355929 
L 197.352199 357.821122 
L 201.963769 352.883997 
L 206.57534 347.557176 
L 211.18691 341.863103 
L 215.79848 335.834718 
L 220.41005 329.51585 
L 225.021621 322.961293 
L 229.633191 316.236505 
L 234.244761 309.416919 
L 238.856331 302.586841 
L 243.467902 295.837951 
L 248.079472 289.267417 
L 252.691042 282.975692 
L 257.302612 277.064033 
L 261.914183 271.631838 
L 266.525753 266.773901 
L 271.137323 262.577666 
L 275.748893 259.120626 
L 280.360464 256.467939 
L 284.972034 254.67039 
L 289.583604 253.762773 
L 294.195174 253.762773 
L 298.806745 254.67039 
L 303.418315 256.467939 
L 308.029885 259.120626 
L 312.641455 262.577666 
L 317.253026 266.773901 
L 321.864596 271.631838 
L 326.476166 277.064033 
L 331.087736 282.975692 
L 335.699307 289.267417 
L 340.310877 295.837951 
L 344.922447 302.586841 
L 349.534017 309.416919 
L 354.145588 316.236505 
L 358.757158 322.961293 
L 363.368728 329.51585 
L 367.980298 335.834718 
L 372.591869 341.863103 
L 377.203439 347.557176 
L 381.815009 352.883997 
L 386.426579 357.821122 
L 391.03815 362.355929 
L 395.64972 366.484721 
L 400.26129 370.21168 
L 404.87286 373.547713 
L 409.484431 376.509247 
L 414.096001 379.117042 
L 418.707571 381.395038 
L 423.319141 383.369287 
L 427.930712 385.066991 
L 432.542282 386.515667 
L 437.153852 387.742437 
L 441.765422 388.77346 
L 446.376993 389.633493 
L 450.988563 390.345573 
L 455.600133 390.93081 
L 460.211703 391.408279 
L 464.823274 391.794993 
L 469.434844 392.105938 
L 474.046414 392.35416 
L 478.657984 392.550893 
L 483.269555 392.705707 
L 487.881125 392.826668 
L 492.492695 392.920512 
L 497.104265 392.992805 
L 501.715835 393.048105 
L 506.327406 393.090111 
L 510.938976 393.121795 
L 515.550546 393.145528 
L 520.162116 393.163182 
" style="fill:none;stroke:#4bc0c0;stroke-linecap:square;"/>
   </g>
   <g id="patch_3">
    <path d="M 40.789389 410.22 
L 542.989389 410.22 
" style="fill:none;stroke:#000000;stroke-linecap:square;stroke-linejoin:miter;stroke-width:0.8;"/>
   </g>
   <g id="legend_1">
    <g id="patch_4">
     <path d="M 397.577514 109.626875 
L 533.189389 109.626875 
Q 535.989389 109.626875 535.989389 106.826875 
L 535.989389 45.8 
Q 535.989389 43 533.189389 43 
L 397.577514 43 
Q 394.777514 43 394.777514 45.8 
L 394.777514 106.826875 
Q 394.777514 109.626875 397.577514 109.626875 
z
" style="fill:#ffffff;opacity:0.8;stroke:#cccccc;stroke-linejoin:miter;"/>
    </g>
    <g id="patch_5">
     <path d="M 400.377514 59.237813 
L 428.377514 59.237813 
L 428.377514 49.437813 
L 400.377514 49.437813 
z
" style="fill:#ff6384;opacity:0.5;stroke:#ff6384;stroke-linejoin:miter;"/>
    </g>
    <g id="text_1">
     <!-- welcome_old -->
     <defs>
      <path d="M 4.203125 54.6875 
L 13.1875 54.6875 
L 24.421875 12.015625 
L 35.59375 54.6875 
L 46.1875 54.6875 
L 57.421875 12.015625 
L 68.609375 54.6875 
L 77.59375 54.6875 
L 63.28125 0 
L 52.6875 0 
L 40.921875 44.828125 
L 29.109375 0 
L 18.5 0 
z
" id="DejaVuSans-119"/>
      <path d="M 56.203125 29.59375 
L 56.203125 25.203125 
L 14.890625 25.203125 
Q 15.484375 15.921875 20.484375 11.0625 
Q 25.484375 6.203125 34.421875 6.203125 
Q 39.59375 6.203125 44.453125 7.46875 
Q 49.3125 8.734375 54.109375 11.28125 
L 54.109375 2.78125 
Q 49.265625 0.734375 44.1875 -0.34375 
Q 39.109375 -1.421875 33.890625 -1.421875 
Q 20.796875 -1.421875 13.15625 6.1875 
Q 5.515625 13.8125 5.515625 26.8125 
Q 5.515625 40.234375 12.765625 48.109375 
Q 20.015625 56 32.328125 56 
Q 43.359375 56 49.78125 48.890625 
Q 56.203125 41.796875 56.203125 29.59375 
z
M 47.21875 32.234375 
Q 47.125 39.59375 43.09375 43.984375 
Q 39.0625 48.390625 32.421875 48.390625 
Q 24.90625 48.390625 20.390625 44.140625 
Q 15.875 39.890625 15.1875 32.171875 
z
" id="DejaVuSans-101"/>
      <path d="M 9.421875 75.984375 
L 18.40625 75.984375 
L 18.40625 0 
L 9.421875 0 
z
" id="DejaVuSans-108"/>
      <path d="M 48.78125 52.59375 
L 48.78125 44.1875 
Q 44.96875 46.296875 41.140625 47.34375 
Q 37.3125 48.390625 33.40625 48.390625 
Q 24.65625 48.390625 19.8125 42.84375 
Q 14.984375 37.3125 14.984375 27.296875 
Q 14.984375 17.28125 19.8125 11.734375 
Q 24.65625 6.203125 33.40625 6.203125 
Q 37.3125 6.203125 41.140625 7.25 
Q 44.96875 8.296875 48.78125 10.40625 
L 48.78125 2.09375 
Q 45.015625 0.34375 40.984375 -0.53125 
Q 36.96875 -1.421875 32.421875 -1.421875 
Q 20.0625 -1.421875 12.78125 6.34375 
Q 5.515625 14.109375 5.515625 27.296875 
Q 5.515625 40.671875 12.859375 48.328125 
Q 20.21875 56 33.015625 56 
Q 37.15625 56 41.109375 55.140625 
Q 45.0625 54.296875 48.78125 52.59375 
z
" id="DejaVuSans-99"/>
      <path d="M 30.609375 48.390625 
Q 23.390625 48.390625 19.1875 42.75 
Q 14.984375 37.109375 14.984375 27.296875 
Q 14.984375 17.484375 19.15625 11.84375 
Q 23.34375 6.203125 30.609375 6.203125 
Q 37.796875 6.203125 41.984375 11.859375 
Q 46.1875 17.53125 46.1875 27.296875 
Q 46.1875 37.015625 41.984375 42.703125 
Q 37.796875 48.390625 30.609375 48.390625 
z
M 30.609375 56 
Q 42.328125 56 49.015625 48.375 
Q 55.71875 40.765625 55.71875 27.296875 
Q 55.71875 13.875 49.015625 6.21875 
Q 42.328125 -1.421875 30.609375 -1.421875 
Q 18.84375 -1.421875 12.171875 6.21875 
Q 5.515625 13.875 5.515625 27.296875 
Q 5.515625 40.765625 12.171875 48.375 
Q 18.84375 56 30.609375 56 
z
" id="DejaVuSans-111"/>
      <path d="M 52 44.1875 
Q 55.375 50.25 60.0625 53.125 
Q 64.75 56 71.09375 56 
Q 79.640625 56 84.28125 50.015625 
Q 88.921875 44.046875 88.921875 33.015625 
L 88.921875 0 
L 79.890625 0 
L 79.890625 32.71875 
Q 79.890625 40.578125 77.09375 44.375 
Q 74.3125 48.1875 68.609375 48.1875 
Q 61.625 48.1875 57.5625 43.546875 
Q 53.515625 38.921875 53.515625 30.90625 
L 53.515625 0 
L 44.484375 0 
L 44.484375 32.71875 
Q 44.484375 40.625 41.703125 44.40625 
Q 38.921875 48.1875 33.109375 48.1875 
Q 26.21875 48.1875 22.15625 43.53125 
Q 18.109375 38.875 18.109375 30.90625 
L 18.109375 0 
L 9.078125 0 
L 9.078125 54.6875 
L 18.109375 54.6875 
L 18.109375 46.1875 
Q 21.1875 51.21875 25.484375 53.609375 
Q 29.78125 56 35.6875 56 
Q 41.65625 56 45.828125 52.96875 
Q 50 49.953125 52 44.1875 
z
" id="DejaVuSans-109"/>
      <path d="M 50.984375 -16.609375 
L 50.984375 -23.578125 
L -0.984375 -23.578125 
L -0.984375 -16.609375 
z
" id="DejaVuSans-95"/>
      <path d="M 45.40625 46.390625 
L 45.40625 75.984375 
L 54.390625 75.984375 
L 54.390625 0 
L 45.40625 0 
L 45.40625 8.203125 
Q 42.578125 3.328125 38.25 0.953125 
Q 33.9375 -1.421875 27.875 -1.421875 
Q 17.96875 -1.421875 11.734375 6.484375 
Q 5.515625 14.40625 5.515625 27.296875 
Q 5.515625 40.1875 11.734375 48.09375 
Q 17.96875 56 27.875 56 
Q 33.9375 56 38.25 53.625 
Q 42.578125 51.265625 45.40625 46.390625 
z
M 14.796875 27.296875 
Q 14.796875 17.390625 18.875 11.75 
Q 22.953125 6.109375 30.078125 6.109375 
Q 37.203125 6.109375 41.296875 11.75 
Q 45.40625 17.390625 45.40625 27.296875 
Q 45.40625 37.203125 41.296875 42.84375 
Q 37.203125 48.484375 30.078125 48.484375 
Q 22.953125 48.484375 18.875 42.84375 
Q 14.796875 37.203125 14.796875 27.296875 
z
" id="DejaVuSans-100"/>
     </defs>
     <g transform="translate(439.577514 59.237813)scale(0.14 -0.14)">
      <use xlink:href="#DejaVuSans-119"/>
      <use x="81.787109" xlink:href="#DejaVuSans-101"/>
      <use x="143.310547" xlink:href="#DejaVuSans-108"/>
      <use x="171.09375" xlink:href="#DejaVuSans-99"/>
      <use x="226.074219" xlink:href="#DejaVuSans-111"/>
      <use x="287.255859" xlink:href="#DejaVuSans-109"/>
      <use x="384.667969" xlink:href="#DejaVuSans-101"/>
      <use x="446.191406" xlink:href="#DejaVuSans-95"/>
      <use x="496.191406" xlink:href="#DejaVuSans-111"/>
      <use x="557.373047" xlink:href="#DejaVuSans-108"/>
      <use x="585.15625" xlink:href="#DejaVuSans-100"/>
     </g>
    </g>
    <g id="patch_6">
     <path d="M 400.377514 80.176563 
L 428.377514 80.176563 
L 428.377514 70.376563 
L 400.377514 70.376563 
z
" style="fill:#36a2eb;opacity:0.5;stroke:#36a2eb;stroke-linejoin:miter;"/>
    </g>
    <g id="text_2">
     <!-- no_welcome -->
     <defs>
      <path d="M 54.890625 33.015625 
L 54.890625 0 
L 45.90625 0 
L 45.90625 32.71875 
Q 45.90625 40.484375 42.875 44.328125 
Q 39.84375 48.1875 33.796875 48.1875 
Q 26.515625 48.1875 22.3125 43.546875 
Q 18.109375 38.921875 18.109375 30.90625 
L 18.109375 0 
L 9.078125 0 
L 9.078125 54.6875 
L 18.109375 54.6875 
L 18.109375 46.1875 
Q 21.34375 51.125 25.703125 53.5625 
Q 30.078125 56 35.796875 56 
Q 45.21875 56 50.046875 50.171875 
Q 54.890625 44.34375 54.890625 33.015625 
z
" id="DejaVuSans-110"/>
     </defs>
     <g transform="translate(439.577514 80.176563)scale(0.14 -0.14)">
      <use xlink:href="#DejaVuSans-110"/>
      <use x="63.378906" xlink:href="#DejaVuSans-111"/>
      <use x="124.560547" xlink:href="#DejaVuSans-95"/>
      <use x="174.560547" xlink:href="#DejaVuSans-119"/>
      <use x="256.347656" xlink:href="#DejaVuSans-101"/>
      <use x="317.871094" xlink:href="#DejaVuSans-108"/>
      <use x="345.654297" xlink:href="#DejaVuSans-99"/>
      <use x="400.634766" xlink:href="#DejaVuSans-111"/>
      <use x="461.816406" xlink:href="#DejaVuSans-109"/>
      <use x="559.228516" xlink:href="#DejaVuSans-101"/>
     </g>
    </g>
    <g id="patch_7">
     <path d="M 400.377514 101.115313 
L 428.377514 101.115313 
L 428.377514 91.315313 
L 400.377514 91.315313 
z
" style="fill:#4bc0c0;opacity:0.5;stroke:#4bc0c0;stroke-linejoin:miter;"/>
    </g>
    <g id="text_3">
     <!-- welcome -->
     <g transform="translate(439.577514 101.115313)scale(0.14 -0.14)">
      <use xlink:href="#DejaVuSans-119"/>
      <use x="81.787109" xlink:href="#DejaVuSans-101"/>
      <use x="143.310547" xlink:href="#DejaVuSans-108"/>
      <use x="171.09375" xlink:href="#DejaVuSans-99"/>
      <use x="226.074219" xlink:href="#DejaVuSans-111"/>
      <use x="287.255859" xlink:href="#DejaVuSans-109"/>
      <use x="384.667969" xlink:href="#DejaVuSans-101"/>
     </g>
    </g>
   </g>
  </g>
  <g id="axes_2">
   <g id="patch_8">
    <path d="M 40.789389 534.96 
L 542.989389 534.96 
L 542.989389 410.22 
L 40.789389 410.22 
z
" style="fill:none;"/>
   </g>
   <g id="patch_9">
    <path clip-path="url(#pf938a96a25)" d="M 238.226154 529.29 
L 369.072013 529.29 
L 369.072013 506.61 
L 238.226154 506.61 
z
" style="fill:#ff6384;opacity:0.5;"/>
   </g>
   <g id="patch_10">
    <path clip-path="url(#pf938a96a25)" d="M 198.103387 483.93 
L 289.800502 483.93 
L 289.800502 461.25 
L 198.103387 461.25 
z
" style="fill:#36a2eb;opacity:0.5;"/>
   </g>
   <g id="patch_11">
    <path clip-path="url(#pf938a96a25)" d="M 180.035753 438.57 
L 403.743026 438.57 
L 403.743026 415.89 
L 180.035753 415.89 
z
" style="fill:#4bc0c0;opacity:0.5;"/>
   </g>
   <g id="matplotlib.axis_1">
    <g id="xtick_1">
     <g id="line2d_4">
      <defs>
       <path d="M 0 0 
L 0 3.5 
" id="m762de118b3" style="stroke:#000000;stroke-width:0.8;"/>
      </defs>
      <g>
       <use style="stroke:#000000;stroke-width:0.8;" x="51.585938" xlink:href="#m762de118b3" y="534.96"/>
      </g>
     </g>
     <g id="text_4">
      <!-- 2.50 -->
      <defs>
       <path d="M 19.1875 8.296875 
L 53.609375 8.296875 
L 53.609375 0 
L 7.328125 0 
L 7.328125 8.296875 
Q 12.9375 14.109375 22.625 23.890625 
Q 32.328125 33.6875 34.8125 36.53125 
Q 39.546875 41.84375 41.421875 45.53125 
Q 43.3125 49.21875 43.3125 52.78125 
Q 43.3125 58.59375 39.234375 62.25 
Q 35.15625 65.921875 28.609375 65.921875 
Q 23.96875 65.921875 18.8125 64.3125 
Q 13.671875 62.703125 7.8125 59.421875 
L 7.8125 69.390625 
Q 13.765625 71.78125 18.9375 73 
Q 24.125 74.21875 28.421875 74.21875 
Q 39.75 74.21875 46.484375 68.546875 
Q 53.21875 62.890625 53.21875 53.421875 
Q 53.21875 48.921875 51.53125 44.890625 
Q 49.859375 40.875 45.40625 35.40625 
Q 44.1875 33.984375 37.640625 27.21875 
Q 31.109375 20.453125 19.1875 8.296875 
z
" id="DejaVuSans-50"/>
       <path d="M 10.6875 12.40625 
L 21 12.40625 
L 21 0 
L 10.6875 0 
z
" id="DejaVuSans-46"/>
       <path d="M 10.796875 72.90625 
L 49.515625 72.90625 
L 49.515625 64.59375 
L 19.828125 64.59375 
L 19.828125 46.734375 
Q 21.96875 47.46875 24.109375 47.828125 
Q 26.265625 48.1875 28.421875 48.1875 
Q 40.625 48.1875 47.75 41.5 
Q 54.890625 34.8125 54.890625 23.390625 
Q 54.890625 11.625 47.5625 5.09375 
Q 40.234375 -1.421875 26.90625 -1.421875 
Q 22.3125 -1.421875 17.546875 -0.640625 
Q 12.796875 0.140625 7.71875 1.703125 
L 7.71875 11.625 
Q 12.109375 9.234375 16.796875 8.0625 
Q 21.484375 6.890625 26.703125 6.890625 
Q 35.15625 6.890625 40.078125 11.328125 
Q 45.015625 15.765625 45.015625 23.390625 
Q 45.015625 31 40.078125 35.4375 
Q 35.15625 39.890625 26.703125 39.890625 
Q 22.75 39.890625 18.8125 39.015625 
Q 14.890625 38.140625 10.796875 36.28125 
z
" id="DejaVuSans-53"/>
       <path d="M 31.78125 66.40625 
Q 24.171875 66.40625 20.328125 58.90625 
Q 16.5 51.421875 16.5 36.375 
Q 16.5 21.390625 20.328125 13.890625 
Q 24.171875 6.390625 31.78125 6.390625 
Q 39.453125 6.390625 43.28125 13.890625 
Q 47.125 21.390625 47.125 36.375 
Q 47.125 51.421875 43.28125 58.90625 
Q 39.453125 66.40625 31.78125 66.40625 
z
M 31.78125 74.21875 
Q 44.046875 74.21875 50.515625 64.515625 
Q 56.984375 54.828125 56.984375 36.375 
Q 56.984375 17.96875 50.515625 8.265625 
Q 44.046875 -1.421875 31.78125 -1.421875 
Q 19.53125 -1.421875 13.0625 8.265625 
Q 6.59375 17.96875 6.59375 36.375 
Q 6.59375 54.828125 13.0625 64.515625 
Q 19.53125 74.21875 31.78125 74.21875 
z
" id="DejaVuSans-48"/>
      </defs>
      <g transform="translate(36 552.597813)scale(0.14 -0.14)">
       <use xlink:href="#DejaVuSans-50"/>
       <use x="63.623047" xlink:href="#DejaVuSans-46"/>
       <use x="95.410156" xlink:href="#DejaVuSans-53"/>
       <use x="159.033203" xlink:href="#DejaVuSans-48"/>
      </g>
     </g>
    </g>
    <g id="xtick_2">
     <g id="line2d_5">
      <g>
       <use style="stroke:#000000;stroke-width:0.8;" x="115.77641" xlink:href="#m762de118b3" y="534.96"/>
      </g>
     </g>
     <g id="text_5">
      <!-- 2.75 -->
      <defs>
       <path d="M 8.203125 72.90625 
L 55.078125 72.90625 
L 55.078125 68.703125 
L 28.609375 0 
L 18.3125 0 
L 43.21875 64.59375 
L 8.203125 64.59375 
z
" id="DejaVuSans-55"/>
      </defs>
      <g transform="translate(100.190472 552.597813)scale(0.14 -0.14)">
       <use xlink:href="#DejaVuSans-50"/>
       <use x="63.623047" xlink:href="#DejaVuSans-46"/>
       <use x="95.410156" xlink:href="#DejaVuSans-55"/>
       <use x="159.033203" xlink:href="#DejaVuSans-53"/>
      </g>
     </g>
    </g>
    <g id="xtick_3">
     <g id="line2d_6">
      <g>
       <use style="stroke:#000000;stroke-width:0.8;" x="179.966882" xlink:href="#m762de118b3" y="534.96"/>
      </g>
     </g>
     <g id="text_6">
      <!-- 3.00 -->
      <defs>
       <path d="M 40.578125 39.3125 
Q 47.65625 37.796875 51.625 33 
Q 55.609375 28.21875 55.609375 21.1875 
Q 55.609375 10.40625 48.1875 4.484375 
Q 40.765625 -1.421875 27.09375 -1.421875 
Q 22.515625 -1.421875 17.65625 -0.515625 
Q 12.796875 0.390625 7.625 2.203125 
L 7.625 11.71875 
Q 11.71875 9.328125 16.59375 8.109375 
Q 21.484375 6.890625 26.8125 6.890625 
Q 36.078125 6.890625 40.9375 10.546875 
Q 45.796875 14.203125 45.796875 21.1875 
Q 45.796875 27.640625 41.28125 31.265625 
Q 36.765625 34.90625 28.71875 34.90625 
L 20.21875 34.90625 
L 20.21875 43.015625 
L 29.109375 43.015625 
Q 36.375 43.015625 40.234375 45.921875 
Q 44.09375 48.828125 44.09375 54.296875 
Q 44.09375 59.90625 40.109375 62.90625 
Q 36.140625 65.921875 28.71875 65.921875 
Q 24.65625 65.921875 20.015625 65.03125 
Q 15.375 64.15625 9.8125 62.3125 
L 9.8125 71.09375 
Q 15.4375 72.65625 20.34375 73.4375 
Q 25.25 74.21875 29.59375 74.21875 
Q 40.828125 74.21875 47.359375 69.109375 
Q 53.90625 64.015625 53.90625 55.328125 
Q 53.90625 49.265625 50.4375 45.09375 
Q 46.96875 40.921875 40.578125 39.3125 
z
" id="DejaVuSans-51"/>
      </defs>
      <g transform="translate(164.380944 552.597813)scale(0.14 -0.14)">
       <use xlink:href="#DejaVuSans-51"/>
       <use x="63.623047" xlink:href="#DejaVuSans-46"/>
       <use x="95.410156" xlink:href="#DejaVuSans-48"/>
       <use x="159.033203" xlink:href="#DejaVuSans-48"/>
      </g>
     </g>
    </g>
    <g id="xtick_4">
     <g id="line2d_7">
      <g>
       <use style="stroke:#000000;stroke-width:0.8;" x="244.157354" xlink:href="#m762de118b3" y="534.96"/>
      </g>
     </g>
     <g id="text_7">
      <!-- 3.25 -->
      <g transform="translate(228.571417 552.597813)scale(0.14 -0.14)">
       <use xlink:href="#DejaVuSans-51"/>
       <use x="63.623047" xlink:href="#DejaVuSans-46"/>
       <use x="95.410156" xlink:href="#DejaVuSans-50"/>
       <use x="159.033203" xlink:href="#DejaVuSans-53"/>
      </g>
     </g>
    </g>
    <g id="xtick_5">
     <g id="line2d_8">
      <g>
       <use style="stroke:#000000;stroke-width:0.8;" x="308.347826" xlink:href="#m762de118b3" y="534.96"/>
      </g>
     </g>
     <g id="text_8">
      <!-- 3.50 -->
      <g transform="translate(292.761889 552.597813)scale(0.14 -0.14)">
       <use xlink:href="#DejaVuSans-51"/>
       <use x="63.623047" xlink:href="#DejaVuSans-46"/>
       <use x="95.410156" xlink:href="#DejaVuSans-53"/>
       <use x="159.033203" xlink:href="#DejaVuSans-48"/>
      </g>
     </g>
    </g>
    <g id="xtick_6">
     <g id="line2d_9">
      <g>
       <use style="stroke:#000000;stroke-width:0.8;" x="372.538298" xlink:href="#m762de118b3" y="534.96"/>
      </g>
     </g>
     <g id="text_9">
      <!-- 3.75 -->
      <g transform="translate(356.952361 552.597813)scale(0.14 -0.14)">
       <use xlink:href="#DejaVuSans-51"/>
       <use x="63.623047" xlink:href="#DejaVuSans-46"/>
       <use x="95.410156" xlink:href="#DejaVuSans-55"/>
       <use x="159.033203" xlink:href="#DejaVuSans-53"/>
      </g>
     </g>
    </g>
    <g id="xtick_7">
     <g id="line2d_10">
      <g>
       <use style="stroke:#000000;stroke-width:0.8;" x="436.728771" xlink:href="#m762de118b3" y="534.96"/>
      </g>
     </g>
     <g id="text_10">
      <!-- 4.00 -->
      <defs>
       <path d="M 37.796875 64.3125 
L 12.890625 25.390625 
L 37.796875 25.390625 
z
M 35.203125 72.90625 
L 47.609375 72.90625 
L 47.609375 25.390625 
L 58.015625 25.390625 
L 58.015625 17.1875 
L 47.609375 17.1875 
L 47.609375 0 
L 37.796875 0 
L 37.796875 17.1875 
L 4.890625 17.1875 
L 4.890625 26.703125 
z
" id="DejaVuSans-52"/>
      </defs>
      <g transform="translate(421.142833 552.597813)scale(0.14 -0.14)">
       <use xlink:href="#DejaVuSans-52"/>
       <use x="63.623047" xlink:href="#DejaVuSans-46"/>
       <use x="95.410156" xlink:href="#DejaVuSans-48"/>
       <use x="159.033203" xlink:href="#DejaVuSans-48"/>
      </g>
     </g>
    </g>
    <g id="xtick_8">
     <g id="line2d_11">
      <g>
       <use style="stroke:#000000;stroke-width:0.8;" x="500.919243" xlink:href="#m762de118b3" y="534.96"/>
      </g>
     </g>
     <g id="text_11">
      <!-- 4.25 -->
      <g transform="translate(485.333305 552.597813)scale(0.14 -0.14)">
       <use xlink:href="#DejaVuSans-52"/>
       <use x="63.623047" xlink:href="#DejaVuSans-46"/>
       <use x="95.410156" xlink:href="#DejaVuSans-50"/>
       <use x="159.033203" xlink:href="#DejaVuSans-53"/>
      </g>
     </g>
    </g>
   </g>
   <g id="line2d_12">
    <path clip-path="url(#pf938a96a25)" d="M 303.649084 534.96 
L 303.649084 410.22 
" style="fill:none;stroke:#ff6384;stroke-dasharray:5.55,2.4;stroke-dashoffset:0;stroke-opacity:0.8;stroke-width:1.5;"/>
   </g>
   <g id="line2d_13">
    <path clip-path="url(#pf938a96a25)" d="M 243.951945 534.96 
L 243.951945 410.22 
" style="fill:none;stroke:#36a2eb;stroke-dasharray:5.55,2.4;stroke-dashoffset:0;stroke-opacity:0.8;stroke-width:1.5;"/>
   </g>
   <g id="line2d_14">
    <path clip-path="url(#pf938a96a25)" d="M 291.889389 534.96 
L 291.889389 410.22 
" style="fill:none;stroke:#4bc0c0;stroke-dasharray:5.55,2.4;stroke-dashoffset:0;stroke-opacity:0.8;stroke-width:1.5;"/>
   </g>
   <g id="patch_12">
    <path d="M 40.789389 534.96 
L 542.989389 534.96 
" style="fill:none;stroke:#000000;stroke-linecap:square;stroke-linejoin:miter;stroke-width:0.8;"/>
   </g>
  </g>
 </g>
 <defs>
  <clipPath id="p964ae17c77">
   <rect height="374.22" width="502.2" x="40.789389" y="36"/>
  </clipPath>
  <clipPath id="pf938a96a25">
   <rect height="124.74" width="502.2" x="40.789389" y="410.22"/>
  </clipPath>
 </defs>
</svg>
