<?xml version="1.0" encoding="utf-8" standalone="no"?>
<!DOCTYPE svg PUBLIC "-//W3C//DTD SVG 1.1//EN"
  "http://www.w3.org/Graphics/SVG/1.1/DTD/svg11.dtd">
<!-- Created with matplotlib (https://matplotlib.org/) -->
<svg height="581.789375pt" version="1.1" viewBox="0 0 574.2 581.789375" width="574.2pt" xmlns="http://www.w3.org/2000/svg" xmlns:xlink="http://www.w3.org/1999/xlink">
 <defs>
  <style type="text/css">
*{stroke-linecap:butt;stroke-linejoin:round;}
  </style>
 </defs>
 <g id="figure_1">
  <g id="patch_1">
   <path d="M 0 581.789375 
L 574.2 581.789375 
L 574.2 0 
L 0 0 
z
" style="fill:none;"/>
  </g>
  <g id="axes_1">
   <g id="patch_2">
    <path d="M 36 402.93 
L 538.2 402.93 
L 538.2 36 
L 36 36 
z
" style="fill:none;"/>
   </g>
   <g id="PolyCollection_1">
    <defs>
     <path d="M 68.545425 -195.538011 
L 68.545425 -195.649376 
L 72.976506 -195.691369 
L 77.407588 -195.747823 
L 81.83867 -195.823191 
L 86.269752 -195.923109 
L 90.700833 -196.05465 
L 95.131915 -196.226612 
L 99.562997 -196.449837 
L 103.994079 -196.737567 
L 108.42516 -197.10582 
L 112.856242 -197.573786 
L 117.287324 -198.164229 
L 121.718405 -198.903868 
L 126.149487 -199.823739 
L 130.580569 -200.959489 
L 135.011651 -202.351584 
L 139.442732 -204.045397 
L 143.873814 -206.091146 
L 148.304896 -208.543627 
L 152.735978 -211.461727 
L 157.167059 -214.907671 
L 161.598141 -218.945976 
L 166.029223 -223.642093 
L 170.460304 -229.06073 
L 174.891386 -235.263856 
L 179.322468 -242.308416 
L 183.75355 -250.243788 
L 188.184631 -259.109055 
L 192.615713 -268.930154 
L 197.046795 -279.717033 
L 201.477877 -291.460904 
L 205.908958 -304.131738 
L 210.34004 -317.676147 
L 214.771122 -332.015781 
L 219.202203 -347.046383 
L 223.633285 -362.637616 
L 228.064367 -378.633774 
L 232.495449 -394.855427 
L 236.92653 -411.102035 
L 241.357612 -427.155525 
L 245.788694 -442.784761 
L 250.219776 -457.750798 
L 254.650857 -471.812779 
L 259.081939 -484.734262 
L 263.513021 -496.28977 
L 267.944102 -506.271294 
L 272.375184 -514.494506 
L 276.806266 -520.804416 
L 281.237348 -525.08022 
L 285.668429 -527.239154 
L 290.099511 -527.239154 
L 294.530593 -525.08022 
L 298.961675 -520.804416 
L 303.392756 -514.494506 
L 307.823838 -506.271294 
L 312.25492 -496.28977 
L 316.686001 -484.734262 
L 321.117083 -471.812779 
L 325.548165 -457.750798 
L 329.979247 -442.784761 
L 334.410328 -427.155525 
L 338.84141 -411.102035 
L 343.272492 -394.855427 
L 347.703574 -378.633774 
L 352.134655 -362.637616 
L 356.565737 -347.046383 
L 360.996819 -332.015781 
L 365.4279 -317.676147 
L 369.858982 -304.131738 
L 374.290064 -291.460904 
L 378.721146 -279.717033 
L 383.152227 -268.930154 
L 387.583309 -259.109055 
L 392.014391 -250.243788 
L 396.445473 -242.308416 
L 400.876554 -235.263856 
L 405.307636 -229.06073 
L 409.738718 -223.642093 
L 414.169799 -218.945976 
L 418.600881 -214.907671 
L 423.031963 -211.461727 
L 427.463045 -208.543627 
L 431.894126 -206.091146 
L 436.325208 -204.045397 
L 440.75629 -202.351584 
L 445.187372 -200.959489 
L 449.618453 -199.823739 
L 454.049535 -198.903868 
L 458.480617 -198.164229 
L 462.911698 -197.573786 
L 467.34278 -197.10582 
L 471.773862 -196.737567 
L 476.204944 -196.449837 
L 480.636025 -196.226612 
L 485.067107 -196.05465 
L 489.498189 -195.923109 
L 493.929271 -195.823191 
L 498.360352 -195.747823 
L 502.791434 -195.691369 
L 507.222516 -195.649376 
L 507.222516 -195.538011 
L 507.222516 -195.538011 
L 502.791434 -195.538011 
L 498.360352 -195.538011 
L 493.929271 -195.538011 
L 489.498189 -195.538011 
L 485.067107 -195.538011 
L 480.636025 -195.538011 
L 476.204944 -195.538011 
L 471.773862 -195.538011 
L 467.34278 -195.538011 
L 462.911698 -195.538011 
L 458.480617 -195.538011 
L 454.049535 -195.538011 
L 449.618453 -195.538011 
L 445.187372 -195.538011 
L 440.75629 -195.538011 
L 436.325208 -195.538011 
L 431.894126 -195.538011 
L 427.463045 -195.538011 
L 423.031963 -195.538011 
L 418.600881 -195.538011 
L 414.169799 -195.538011 
L 409.738718 -195.538011 
L 405.307636 -195.538011 
L 400.876554 -195.538011 
L 396.445473 -195.538011 
L 392.014391 -195.538011 
L 387.583309 -195.538011 
L 383.152227 -195.538011 
L 378.721146 -195.538011 
L 374.290064 -195.538011 
L 369.858982 -195.538011 
L 365.4279 -195.538011 
L 360.996819 -195.538011 
L 356.565737 -195.538011 
L 352.134655 -195.538011 
L 347.703574 -195.538011 
L 343.272492 -195.538011 
L 338.84141 -195.538011 
L 334.410328 -195.538011 
L 329.979247 -195.538011 
L 325.548165 -195.538011 
L 321.117083 -195.538011 
L 316.686001 -195.538011 
L 312.25492 -195.538011 
L 307.823838 -195.538011 
L 303.392756 -195.538011 
L 298.961675 -195.538011 
L 294.530593 -195.538011 
L 290.099511 -195.538011 
L 285.668429 -195.538011 
L 281.237348 -195.538011 
L 276.806266 -195.538011 
L 272.375184 -195.538011 
L 267.944102 -195.538011 
L 263.513021 -195.538011 
L 259.081939 -195.538011 
L 254.650857 -195.538011 
L 250.219776 -195.538011 
L 245.788694 -195.538011 
L 241.357612 -195.538011 
L 236.92653 -195.538011 
L 232.495449 -195.538011 
L 228.064367 -195.538011 
L 223.633285 -195.538011 
L 219.202203 -195.538011 
L 214.771122 -195.538011 
L 210.34004 -195.538011 
L 205.908958 -195.538011 
L 201.477877 -195.538011 
L 197.046795 -195.538011 
L 192.615713 -195.538011 
L 188.184631 -195.538011 
L 183.75355 -195.538011 
L 179.322468 -195.538011 
L 174.891386 -195.538011 
L 170.460304 -195.538011 
L 166.029223 -195.538011 
L 161.598141 -195.538011 
L 157.167059 -195.538011 
L 152.735978 -195.538011 
L 148.304896 -195.538011 
L 143.873814 -195.538011 
L 139.442732 -195.538011 
L 135.011651 -195.538011 
L 130.580569 -195.538011 
L 126.149487 -195.538011 
L 121.718405 -195.538011 
L 117.287324 -195.538011 
L 112.856242 -195.538011 
L 108.42516 -195.538011 
L 103.994079 -195.538011 
L 99.562997 -195.538011 
L 95.131915 -195.538011 
L 90.700833 -195.538011 
L 86.269752 -195.538011 
L 81.83867 -195.538011 
L 77.407588 -195.538011 
L 72.976506 -195.538011 
L 68.545425 -195.538011 
z
" id="ma60eb1069a" style="stroke:#ff6384;stroke-opacity:0.5;"/>
    </defs>
    <g clip-path="url(#pab1d2a55a2)">
     <use style="fill:#ff6384;fill-opacity:0.5;stroke:#ff6384;stroke-opacity:0.5;" x="0" xlink:href="#ma60eb1069a" y="581.789375"/>
    </g>
   </g>
   <g id="PolyCollection_2">
    <defs>
     <path d="M 58.827273 -195.538011 
L 58.827273 -195.650004 
L 63.233493 -195.692234 
L 67.639713 -195.749007 
L 72.045933 -195.8248 
L 76.452153 -195.925281 
L 80.858373 -196.057565 
L 85.264594 -196.230497 
L 89.670814 -196.454982 
L 94.077034 -196.744335 
L 98.483254 -197.114666 
L 102.889474 -197.585273 
L 107.295694 -198.179047 
L 111.701914 -198.922859 
L 116.108135 -199.847921 
L 120.514355 -200.990079 
L 124.920575 -202.390029 
L 129.326795 -204.093399 
L 133.733015 -206.150691 
L 138.139235 -208.617009 
L 142.545456 -211.551575 
L 146.951676 -215.016962 
L 151.357896 -219.078053 
L 155.764116 -223.800667 
L 160.170336 -229.249878 
L 164.576556 -235.488004 
L 168.982776 -242.572312 
L 173.388997 -250.552459 
L 177.795217 -259.467747 
L 182.201437 -269.344261 
L 186.607657 -280.192004 
L 191.013877 -292.002137 
L 195.420097 -304.744465 
L 199.826317 -318.365297 
L 204.232538 -332.785841 
L 208.638758 -347.901251 
L 213.044978 -363.580456 
L 217.451198 -379.666871 
L 221.857418 -395.980052 
L 226.263638 -412.31833 
L 230.669858 -428.4624 
L 235.076079 -444.179822 
L 239.482299 -459.230303 
L 243.888519 -473.371627 
L 248.294739 -486.366018 
L 252.700959 -497.986726 
L 257.107179 -508.02457 
L 261.513399 -516.294181 
L 265.91962 -522.639693 
L 270.32584 -526.939623 
L 274.73206 -529.110739 
L 279.13828 -529.110739 
L 283.5445 -526.939623 
L 287.95072 -522.639693 
L 292.35694 -516.294181 
L 296.763161 -508.02457 
L 301.169381 -497.986726 
L 305.575601 -486.366018 
L 309.981821 -473.371627 
L 314.388041 -459.230303 
L 318.794261 -444.179822 
L 323.200482 -428.4624 
L 327.606702 -412.31833 
L 332.012922 -395.980052 
L 336.419142 -379.666871 
L 340.825362 -363.580456 
L 345.231582 -347.901251 
L 349.637802 -332.785841 
L 354.044023 -318.365297 
L 358.450243 -304.744465 
L 362.856463 -292.002137 
L 367.262683 -280.192004 
L 371.668903 -269.344261 
L 376.075123 -259.467747 
L 380.481343 -250.552459 
L 384.887564 -242.572312 
L 389.293784 -235.488004 
L 393.700004 -229.249878 
L 398.106224 -223.800667 
L 402.512444 -219.078053 
L 406.918664 -215.016962 
L 411.324884 -211.551575 
L 415.731105 -208.617009 
L 420.137325 -206.150691 
L 424.543545 -204.093399 
L 428.949765 -202.390029 
L 433.355985 -200.990079 
L 437.762205 -199.847921 
L 442.168425 -198.922859 
L 446.574646 -198.179047 
L 450.980866 -197.585273 
L 455.387086 -197.114666 
L 459.793306 -196.744335 
L 464.199526 -196.454982 
L 468.605746 -196.230497 
L 473.011966 -196.057565 
L 477.418187 -195.925281 
L 481.824407 -195.8248 
L 486.230627 -195.749007 
L 490.636847 -195.692234 
L 495.043067 -195.650004 
L 495.043067 -195.538011 
L 495.043067 -195.538011 
L 490.636847 -195.538011 
L 486.230627 -195.538011 
L 481.824407 -195.538011 
L 477.418187 -195.538011 
L 473.011966 -195.538011 
L 468.605746 -195.538011 
L 464.199526 -195.538011 
L 459.793306 -195.538011 
L 455.387086 -195.538011 
L 450.980866 -195.538011 
L 446.574646 -195.538011 
L 442.168425 -195.538011 
L 437.762205 -195.538011 
L 433.355985 -195.538011 
L 428.949765 -195.538011 
L 424.543545 -195.538011 
L 420.137325 -195.538011 
L 415.731105 -195.538011 
L 411.324884 -195.538011 
L 406.918664 -195.538011 
L 402.512444 -195.538011 
L 398.106224 -195.538011 
L 393.700004 -195.538011 
L 389.293784 -195.538011 
L 384.887564 -195.538011 
L 380.481343 -195.538011 
L 376.075123 -195.538011 
L 371.668903 -195.538011 
L 367.262683 -195.538011 
L 362.856463 -195.538011 
L 358.450243 -195.538011 
L 354.044023 -195.538011 
L 349.637802 -195.538011 
L 345.231582 -195.538011 
L 340.825362 -195.538011 
L 336.419142 -195.538011 
L 332.012922 -195.538011 
L 327.606702 -195.538011 
L 323.200482 -195.538011 
L 318.794261 -195.538011 
L 314.388041 -195.538011 
L 309.981821 -195.538011 
L 305.575601 -195.538011 
L 301.169381 -195.538011 
L 296.763161 -195.538011 
L 292.35694 -195.538011 
L 287.95072 -195.538011 
L 283.5445 -195.538011 
L 279.13828 -195.538011 
L 274.73206 -195.538011 
L 270.32584 -195.538011 
L 265.91962 -195.538011 
L 261.513399 -195.538011 
L 257.107179 -195.538011 
L 252.700959 -195.538011 
L 248.294739 -195.538011 
L 243.888519 -195.538011 
L 239.482299 -195.538011 
L 235.076079 -195.538011 
L 230.669858 -195.538011 
L 226.263638 -195.538011 
L 221.857418 -195.538011 
L 217.451198 -195.538011 
L 213.044978 -195.538011 
L 208.638758 -195.538011 
L 204.232538 -195.538011 
L 199.826317 -195.538011 
L 195.420097 -195.538011 
L 191.013877 -195.538011 
L 186.607657 -195.538011 
L 182.201437 -195.538011 
L 177.795217 -195.538011 
L 173.388997 -195.538011 
L 168.982776 -195.538011 
L 164.576556 -195.538011 
L 160.170336 -195.538011 
L 155.764116 -195.538011 
L 151.357896 -195.538011 
L 146.951676 -195.538011 
L 142.545456 -195.538011 
L 138.139235 -195.538011 
L 133.733015 -195.538011 
L 129.326795 -195.538011 
L 124.920575 -195.538011 
L 120.514355 -195.538011 
L 116.108135 -195.538011 
L 111.701914 -195.538011 
L 107.295694 -195.538011 
L 102.889474 -195.538011 
L 98.483254 -195.538011 
L 94.077034 -195.538011 
L 89.670814 -195.538011 
L 85.264594 -195.538011 
L 80.858373 -195.538011 
L 76.452153 -195.538011 
L 72.045933 -195.538011 
L 67.639713 -195.538011 
L 63.233493 -195.538011 
L 58.827273 -195.538011 
z
" id="m138f48b2ac" style="stroke:#36a2eb;stroke-opacity:0.5;"/>
    </defs>
    <g clip-path="url(#pab1d2a55a2)">
     <use style="fill:#36a2eb;fill-opacity:0.5;stroke:#36a2eb;stroke-opacity:0.5;" x="0" xlink:href="#m138f48b2ac" y="581.789375"/>
    </g>
   </g>
   <g id="PolyCollection_3">
    <defs>
     <path d="M 60.395213 -195.538011 
L 60.395213 -195.645386 
L 64.990946 -195.685875 
L 69.586678 -195.740306 
L 74.182411 -195.812974 
L 78.778143 -195.909312 
L 83.373876 -196.03614 
L 87.969608 -196.201941 
L 92.565341 -196.417169 
L 97.161073 -196.69459 
L 101.756805 -197.04965 
L 106.352538 -197.500851 
L 110.94827 -198.070139 
L 115.544003 -198.78328 
L 120.139735 -199.670195 
L 124.735468 -200.765255 
L 129.3312 -202.107475 
L 133.926933 -203.740604 
L 138.522665 -205.71306 
L 143.118398 -208.077676 
L 147.71413 -210.89123 
L 152.309863 -214.213717 
L 156.905595 -218.107342 
L 161.501327 -222.635212 
L 166.09706 -227.859716 
L 170.692792 -233.840603 
L 175.288525 -240.632778 
L 179.884257 -248.283851 
L 184.47999 -256.831503 
L 189.075722 -266.300743 
L 193.671455 -276.701162 
L 198.267187 -288.024286 
L 202.86292 -300.241164 
L 207.458652 -313.300319 
L 212.054385 -327.126209 
L 216.650117 -341.618311 
L 221.24585 -356.650959 
L 225.841582 -372.074025 
L 230.437314 -387.714507 
L 235.033047 -403.379049 
L 239.628779 -418.857393 
L 244.224512 -433.926682 
L 248.820244 -448.356533 
L 253.415977 -461.914717 
L 258.011709 -474.373264 
L 262.607442 -485.514774 
L 267.203174 -495.138691 
L 271.798907 -503.067292 
L 276.394639 -509.151137 
L 280.990372 -513.273752 
L 285.586104 -515.355338 
L 290.181836 -515.355338 
L 294.777569 -513.273752 
L 299.373301 -509.151137 
L 303.969034 -503.067292 
L 308.564766 -495.138691 
L 313.160499 -485.514774 
L 317.756231 -474.373264 
L 322.351964 -461.914717 
L 326.947696 -448.356533 
L 331.543429 -433.926682 
L 336.139161 -418.857393 
L 340.734894 -403.379049 
L 345.330626 -387.714507 
L 349.926359 -372.074025 
L 354.522091 -356.650959 
L 359.117823 -341.618311 
L 363.713556 -327.126209 
L 368.309288 -313.300319 
L 372.905021 -300.241164 
L 377.500753 -288.024286 
L 382.096486 -276.701162 
L 386.692218 -266.300743 
L 391.287951 -256.831503 
L 395.883683 -248.283851 
L 400.479416 -240.632778 
L 405.075148 -233.840603 
L 409.670881 -227.859716 
L 414.266613 -222.635212 
L 418.862346 -218.107342 
L 423.458078 -214.213717 
L 428.05381 -210.89123 
L 432.649543 -208.077676 
L 437.245275 -205.71306 
L 441.841008 -203.740604 
L 446.43674 -202.107475 
L 451.032473 -200.765255 
L 455.628205 -199.670195 
L 460.223938 -198.78328 
L 464.81967 -198.070139 
L 469.415403 -197.500851 
L 474.011135 -197.04965 
L 478.606868 -196.69459 
L 483.2026 -196.417169 
L 487.798332 -196.201941 
L 492.394065 -196.03614 
L 496.989797 -195.909312 
L 501.58553 -195.812974 
L 506.181262 -195.740306 
L 510.776995 -195.685875 
L 515.372727 -195.645386 
L 515.372727 -195.538011 
L 515.372727 -195.538011 
L 510.776995 -195.538011 
L 506.181262 -195.538011 
L 501.58553 -195.538011 
L 496.989797 -195.538011 
L 492.394065 -195.538011 
L 487.798332 -195.538011 
L 483.2026 -195.538011 
L 478.606868 -195.538011 
L 474.011135 -195.538011 
L 469.415403 -195.538011 
L 464.81967 -195.538011 
L 460.223938 -195.538011 
L 455.628205 -195.538011 
L 451.032473 -195.538011 
L 446.43674 -195.538011 
L 441.841008 -195.538011 
L 437.245275 -195.538011 
L 432.649543 -195.538011 
L 428.05381 -195.538011 
L 423.458078 -195.538011 
L 418.862346 -195.538011 
L 414.266613 -195.538011 
L 409.670881 -195.538011 
L 405.075148 -195.538011 
L 400.479416 -195.538011 
L 395.883683 -195.538011 
L 391.287951 -195.538011 
L 386.692218 -195.538011 
L 382.096486 -195.538011 
L 377.500753 -195.538011 
L 372.905021 -195.538011 
L 368.309288 -195.538011 
L 363.713556 -195.538011 
L 359.117823 -195.538011 
L 354.522091 -195.538011 
L 349.926359 -195.538011 
L 345.330626 -195.538011 
L 340.734894 -195.538011 
L 336.139161 -195.538011 
L 331.543429 -195.538011 
L 326.947696 -195.538011 
L 322.351964 -195.538011 
L 317.756231 -195.538011 
L 313.160499 -195.538011 
L 308.564766 -195.538011 
L 303.969034 -195.538011 
L 299.373301 -195.538011 
L 294.777569 -195.538011 
L 290.181836 -195.538011 
L 285.586104 -195.538011 
L 280.990372 -195.538011 
L 276.394639 -195.538011 
L 271.798907 -195.538011 
L 267.203174 -195.538011 
L 262.607442 -195.538011 
L 258.011709 -195.538011 
L 253.415977 -195.538011 
L 248.820244 -195.538011 
L 244.224512 -195.538011 
L 239.628779 -195.538011 
L 235.033047 -195.538011 
L 230.437314 -195.538011 
L 225.841582 -195.538011 
L 221.24585 -195.538011 
L 216.650117 -195.538011 
L 212.054385 -195.538011 
L 207.458652 -195.538011 
L 202.86292 -195.538011 
L 198.267187 -195.538011 
L 193.671455 -195.538011 
L 189.075722 -195.538011 
L 184.47999 -195.538011 
L 179.884257 -195.538011 
L 175.288525 -195.538011 
L 170.692792 -195.538011 
L 166.09706 -195.538011 
L 161.501327 -195.538011 
L 156.905595 -195.538011 
L 152.309863 -195.538011 
L 147.71413 -195.538011 
L 143.118398 -195.538011 
L 138.522665 -195.538011 
L 133.926933 -195.538011 
L 129.3312 -195.538011 
L 124.735468 -195.538011 
L 120.139735 -195.538011 
L 115.544003 -195.538011 
L 110.94827 -195.538011 
L 106.352538 -195.538011 
L 101.756805 -195.538011 
L 97.161073 -195.538011 
L 92.565341 -195.538011 
L 87.969608 -195.538011 
L 83.373876 -195.538011 
L 78.778143 -195.538011 
L 74.182411 -195.538011 
L 69.586678 -195.538011 
L 64.990946 -195.538011 
L 60.395213 -195.538011 
z
" id="m91480441db" style="stroke:#4bc0c0;stroke-opacity:0.5;"/>
    </defs>
    <g clip-path="url(#pab1d2a55a2)">
     <use style="fill:#4bc0c0;fill-opacity:0.5;stroke:#4bc0c0;stroke-opacity:0.5;" x="0" xlink:href="#m91480441db" y="581.789375"/>
    </g>
   </g>
   <g id="line2d_1">
    <path clip-path="url(#pab1d2a55a2)" d="M 68.545425 386.139999 
L 72.976506 386.098006 
L 77.407588 386.041552 
L 81.83867 385.966184 
L 86.269752 385.866266 
L 90.700833 385.734725 
L 95.131915 385.562763 
L 99.562997 385.339538 
L 103.994079 385.051808 
L 108.42516 384.683555 
L 112.856242 384.215589 
L 117.287324 383.625146 
L 121.718405 382.885507 
L 126.149487 381.965636 
L 130.580569 380.829886 
L 135.011651 379.437791 
L 139.442732 377.743978 
L 143.873814 375.698229 
L 148.304896 373.245748 
L 152.735978 370.327648 
L 157.167059 366.881704 
L 161.598141 362.843399 
L 166.029223 358.147282 
L 170.460304 352.728645 
L 174.891386 346.525519 
L 179.322468 339.480959 
L 183.75355 331.545587 
L 188.184631 322.68032 
L 192.615713 312.859221 
L 197.046795 302.072342 
L 201.477877 290.328471 
L 205.908958 277.657637 
L 210.34004 264.113228 
L 214.771122 249.773594 
L 219.202203 234.742992 
L 223.633285 219.151759 
L 228.064367 203.155601 
L 232.495449 186.933948 
L 236.92653 170.68734 
L 241.357612 154.63385 
L 245.788694 139.004614 
L 250.219776 124.038577 
L 254.650857 109.976596 
L 259.081939 97.055113 
L 263.513021 85.499605 
L 267.944102 75.518081 
L 272.375184 67.294869 
L 276.806266 60.984959 
L 281.237348 56.709155 
L 285.668429 54.550221 
L 290.099511 54.550221 
L 294.530593 56.709155 
L 298.961675 60.984959 
L 303.392756 67.294869 
L 307.823838 75.518081 
L 312.25492 85.499605 
L 316.686001 97.055113 
L 321.117083 109.976596 
L 325.548165 124.038577 
L 329.979247 139.004614 
L 334.410328 154.63385 
L 338.84141 170.68734 
L 343.272492 186.933948 
L 347.703574 203.155601 
L 352.134655 219.151759 
L 356.565737 234.742992 
L 360.996819 249.773594 
L 365.4279 264.113228 
L 369.858982 277.657637 
L 374.290064 290.328471 
L 378.721146 302.072342 
L 383.152227 312.859221 
L 387.583309 322.68032 
L 392.014391 331.545587 
L 396.445473 339.480959 
L 400.876554 346.525519 
L 405.307636 352.728645 
L 409.738718 358.147282 
L 414.169799 362.843399 
L 418.600881 366.881704 
L 423.031963 370.327648 
L 427.463045 373.245748 
L 431.894126 375.698229 
L 436.325208 377.743978 
L 440.75629 379.437791 
L 445.187372 380.829886 
L 449.618453 381.965636 
L 454.049535 382.885507 
L 458.480617 383.625146 
L 462.911698 384.215589 
L 467.34278 384.683555 
L 471.773862 385.051808 
L 476.204944 385.339538 
L 480.636025 385.562763 
L 485.067107 385.734725 
L 489.498189 385.866266 
L 493.929271 385.966184 
L 498.360352 386.041552 
L 502.791434 386.098006 
L 507.222516 386.139999 
" style="fill:none;stroke:#ff6384;stroke-linecap:square;"/>
   </g>
   <g id="line2d_2">
    <path clip-path="url(#pab1d2a55a2)" d="M 58.827273 386.139371 
L 63.233493 386.097141 
L 67.639713 386.040368 
L 72.045933 385.964575 
L 76.452153 385.864094 
L 80.858373 385.73181 
L 85.264594 385.558878 
L 89.670814 385.334393 
L 94.077034 385.04504 
L 98.483254 384.674709 
L 102.889474 384.204102 
L 107.295694 383.610328 
L 111.701914 382.866516 
L 116.108135 381.941454 
L 120.514355 380.799296 
L 124.920575 379.399346 
L 129.326795 377.695976 
L 133.733015 375.638684 
L 138.139235 373.172366 
L 142.545456 370.2378 
L 146.951676 366.772413 
L 151.357896 362.711322 
L 155.764116 357.988708 
L 160.170336 352.539497 
L 164.576556 346.301371 
L 168.982776 339.217063 
L 173.388997 331.236916 
L 177.795217 322.321628 
L 182.201437 312.445114 
L 186.607657 301.597371 
L 191.013877 289.787238 
L 195.420097 277.04491 
L 199.826317 263.424078 
L 204.232538 249.003534 
L 208.638758 233.888124 
L 213.044978 218.208919 
L 217.451198 202.122504 
L 221.857418 185.809323 
L 226.263638 169.471045 
L 230.669858 153.326975 
L 235.076079 137.609553 
L 239.482299 122.559072 
L 243.888519 108.417748 
L 248.294739 95.423357 
L 252.700959 83.802649 
L 257.107179 73.764805 
L 261.513399 65.495194 
L 265.91962 59.149682 
L 270.32584 54.849752 
L 274.73206 52.678636 
L 279.13828 52.678636 
L 283.5445 54.849752 
L 287.95072 59.149682 
L 292.35694 65.495194 
L 296.763161 73.764805 
L 301.169381 83.802649 
L 305.575601 95.423357 
L 309.981821 108.417748 
L 314.388041 122.559072 
L 318.794261 137.609553 
L 323.200482 153.326975 
L 327.606702 169.471045 
L 332.012922 185.809323 
L 336.419142 202.122504 
L 340.825362 218.208919 
L 345.231582 233.888124 
L 349.637802 249.003534 
L 354.044023 263.424078 
L 358.450243 277.04491 
L 362.856463 289.787238 
L 367.262683 301.597371 
L 371.668903 312.445114 
L 376.075123 322.321628 
L 380.481343 331.236916 
L 384.887564 339.217063 
L 389.293784 346.301371 
L 393.700004 352.539497 
L 398.106224 357.988708 
L 402.512444 362.711322 
L 406.918664 366.772413 
L 411.324884 370.2378 
L 415.731105 373.172366 
L 420.137325 375.638684 
L 424.543545 377.695976 
L 428.949765 379.399346 
L 433.355985 380.799296 
L 437.762205 381.941454 
L 442.168425 382.866516 
L 446.574646 383.610328 
L 450.980866 384.204102 
L 455.387086 384.674709 
L 459.793306 385.04504 
L 464.199526 385.334393 
L 468.605746 385.558878 
L 473.011966 385.73181 
L 477.418187 385.864094 
L 481.824407 385.964575 
L 486.230627 386.040368 
L 490.636847 386.097141 
L 495.043067 386.139371 
" style="fill:none;stroke:#36a2eb;stroke-linecap:square;"/>
   </g>
   <g id="line2d_3">
    <path clip-path="url(#pab1d2a55a2)" d="M 60.395213 386.143989 
L 64.990946 386.1035 
L 69.586678 386.049069 
L 74.182411 385.976401 
L 78.778143 385.880063 
L 83.373876 385.753235 
L 87.969608 385.587434 
L 92.565341 385.372206 
L 97.161073 385.094785 
L 101.756805 384.739725 
L 106.352538 384.288524 
L 110.94827 383.719236 
L 115.544003 383.006095 
L 120.139735 382.11918 
L 124.735468 381.02412 
L 129.3312 379.6819 
L 133.926933 378.048771 
L 138.522665 376.076315 
L 143.118398 373.711699 
L 147.71413 370.898145 
L 152.309863 367.575658 
L 156.905595 363.682033 
L 161.501327 359.154163 
L 166.09706 353.929659 
L 170.692792 347.948772 
L 175.288525 341.156597 
L 179.884257 333.505524 
L 184.47999 324.957872 
L 189.075722 315.488632 
L 193.671455 305.088213 
L 198.267187 293.765089 
L 202.86292 281.548211 
L 207.458652 268.489056 
L 212.054385 254.663166 
L 216.650117 240.171064 
L 221.24585 225.138416 
L 225.841582 209.71535 
L 230.437314 194.074868 
L 235.033047 178.410326 
L 239.628779 162.931982 
L 244.224512 147.862693 
L 248.820244 133.432842 
L 253.415977 119.874658 
L 258.011709 107.416111 
L 262.607442 96.274601 
L 267.203174 86.650684 
L 271.798907 78.722083 
L 276.394639 72.638238 
L 280.990372 68.515623 
L 285.586104 66.434037 
L 290.181836 66.434037 
L 294.777569 68.515623 
L 299.373301 72.638238 
L 303.969034 78.722083 
L 308.564766 86.650684 
L 313.160499 96.274601 
L 317.756231 107.416111 
L 322.351964 119.874658 
L 326.947696 133.432842 
L 331.543429 147.862693 
L 336.139161 162.931982 
L 340.734894 178.410326 
L 345.330626 194.074868 
L 349.926359 209.71535 
L 354.522091 225.138416 
L 359.117823 240.171064 
L 363.713556 254.663166 
L 368.309288 268.489056 
L 372.905021 281.548211 
L 377.500753 293.765089 
L 382.096486 305.088213 
L 386.692218 315.488632 
L 391.287951 324.957872 
L 395.883683 333.505524 
L 400.479416 341.156597 
L 405.075148 347.948772 
L 409.670881 353.929659 
L 414.266613 359.154163 
L 418.862346 363.682033 
L 423.458078 367.575658 
L 428.05381 370.898145 
L 432.649543 373.711699 
L 437.245275 376.076315 
L 441.841008 378.048771 
L 446.43674 379.6819 
L 451.032473 381.02412 
L 455.628205 382.11918 
L 460.223938 383.006095 
L 464.81967 383.719236 
L 469.415403 384.288524 
L 474.011135 384.739725 
L 478.606868 385.094785 
L 483.2026 385.372206 
L 487.798332 385.587434 
L 492.394065 385.753235 
L 496.989797 385.880063 
L 501.58553 385.976401 
L 506.181262 386.049069 
L 510.776995 386.1035 
L 515.372727 386.143989 
" style="fill:none;stroke:#4bc0c0;stroke-linecap:square;"/>
   </g>
   <g id="patch_3">
    <path d="M 36 402.93 
L 538.2 402.93 
" style="fill:none;stroke:#000000;stroke-linecap:square;stroke-linejoin:miter;stroke-width:0.8;"/>
   </g>
   <g id="legend_1">
    <g id="patch_4">
     <path d="M 392.788125 109.626875 
L 528.4 109.626875 
Q 531.2 109.626875 531.2 106.826875 
L 531.2 45.8 
Q 531.2 43 528.4 43 
L 392.788125 43 
Q 389.988125 43 389.988125 45.8 
L 389.988125 106.826875 
Q 389.988125 109.626875 392.788125 109.626875 
z
" style="fill:#ffffff;opacity:0.8;stroke:#cccccc;stroke-linejoin:miter;"/>
    </g>
    <g id="patch_5">
     <path d="M 395.588125 59.237813 
L 423.588125 59.237813 
L 423.588125 49.437813 
L 395.588125 49.437813 
z
" style="fill:#ff6384;opacity:0.5;stroke:#ff6384;stroke-linejoin:miter;"/>
    </g>
    <g id="text_1">
     <!-- welcome_old -->
     <defs>
      <path d="M 4.203125 54.6875 
L 13.1875 54.6875 
L 24.421875 12.015625 
L 35.59375 54.6875 
L 46.1875 54.6875 
L 57.421875 12.015625 
L 68.609375 54.6875 
L 77.59375 54.6875 
L 63.28125 0 
L 52.6875 0 
L 40.921875 44.828125 
L 29.109375 0 
L 18.5 0 
z
" id="DejaVuSans-119"/>
      <path d="M 56.203125 29.59375 
L 56.203125 25.203125 
L 14.890625 25.203125 
Q 15.484375 15.921875 20.484375 11.0625 
Q 25.484375 6.203125 34.421875 6.203125 
Q 39.59375 6.203125 44.453125 7.46875 
Q 49.3125 8.734375 54.109375 11.28125 
L 54.109375 2.78125 
Q 49.265625 0.734375 44.1875 -0.34375 
Q 39.109375 -1.421875 33.890625 -1.421875 
Q 20.796875 -1.421875 13.15625 6.1875 
Q 5.515625 13.8125 5.515625 26.8125 
Q 5.515625 40.234375 12.765625 48.109375 
Q 20.015625 56 32.328125 56 
Q 43.359375 56 49.78125 48.890625 
Q 56.203125 41.796875 56.203125 29.59375 
z
M 47.21875 32.234375 
Q 47.125 39.59375 43.09375 43.984375 
Q 39.0625 48.390625 32.421875 48.390625 
Q 24.90625 48.390625 20.390625 44.140625 
Q 15.875 39.890625 15.1875 32.171875 
z
" id="DejaVuSans-101"/>
      <path d="M 9.421875 75.984375 
L 18.40625 75.984375 
L 18.40625 0 
L 9.421875 0 
z
" id="DejaVuSans-108"/>
      <path d="M 48.78125 52.59375 
L 48.78125 44.1875 
Q 44.96875 46.296875 41.140625 47.34375 
Q 37.3125 48.390625 33.40625 48.390625 
Q 24.65625 48.390625 19.8125 42.84375 
Q 14.984375 37.3125 14.984375 27.296875 
Q 14.984375 17.28125 19.8125 11.734375 
Q 24.65625 6.203125 33.40625 6.203125 
Q 37.3125 6.203125 41.140625 7.25 
Q 44.96875 8.296875 48.78125 10.40625 
L 48.78125 2.09375 
Q 45.015625 0.34375 40.984375 -0.53125 
Q 36.96875 -1.421875 32.421875 -1.421875 
Q 20.0625 -1.421875 12.78125 6.34375 
Q 5.515625 14.109375 5.515625 27.296875 
Q 5.515625 40.671875 12.859375 48.328125 
Q 20.21875 56 33.015625 56 
Q 37.15625 56 41.109375 55.140625 
Q 45.0625 54.296875 48.78125 52.59375 
z
" id="DejaVuSans-99"/>
      <path d="M 30.609375 48.390625 
Q 23.390625 48.390625 19.1875 42.75 
Q 14.984375 37.109375 14.984375 27.296875 
Q 14.984375 17.484375 19.15625 11.84375 
Q 23.34375 6.203125 30.609375 6.203125 
Q 37.796875 6.203125 41.984375 11.859375 
Q 46.1875 17.53125 46.1875 27.296875 
Q 46.1875 37.015625 41.984375 42.703125 
Q 37.796875 48.390625 30.609375 48.390625 
z
M 30.609375 56 
Q 42.328125 56 49.015625 48.375 
Q 55.71875 40.765625 55.71875 27.296875 
Q 55.71875 13.875 49.015625 6.21875 
Q 42.328125 -1.421875 30.609375 -1.421875 
Q 18.84375 -1.421875 12.171875 6.21875 
Q 5.515625 13.875 5.515625 27.296875 
Q 5.515625 40.765625 12.171875 48.375 
Q 18.84375 56 30.609375 56 
z
" id="DejaVuSans-111"/>
      <path d="M 52 44.1875 
Q 55.375 50.25 60.0625 53.125 
Q 64.75 56 71.09375 56 
Q 79.640625 56 84.28125 50.015625 
Q 88.921875 44.046875 88.921875 33.015625 
L 88.921875 0 
L 79.890625 0 
L 79.890625 32.71875 
Q 79.890625 40.578125 77.09375 44.375 
Q 74.3125 48.1875 68.609375 48.1875 
Q 61.625 48.1875 57.5625 43.546875 
Q 53.515625 38.921875 53.515625 30.90625 
L 53.515625 0 
L 44.484375 0 
L 44.484375 32.71875 
Q 44.484375 40.625 41.703125 44.40625 
Q 38.921875 48.1875 33.109375 48.1875 
Q 26.21875 48.1875 22.15625 43.53125 
Q 18.109375 38.875 18.109375 30.90625 
L 18.109375 0 
L 9.078125 0 
L 9.078125 54.6875 
L 18.109375 54.6875 
L 18.109375 46.1875 
Q 21.1875 51.21875 25.484375 53.609375 
Q 29.78125 56 35.6875 56 
Q 41.65625 56 45.828125 52.96875 
Q 50 49.953125 52 44.1875 
z
" id="DejaVuSans-109"/>
      <path d="M 50.984375 -16.609375 
L 50.984375 -23.578125 
L -0.984375 -23.578125 
L -0.984375 -16.609375 
z
" id="DejaVuSans-95"/>
      <path d="M 45.40625 46.390625 
L 45.40625 75.984375 
L 54.390625 75.984375 
L 54.390625 0 
L 45.40625 0 
L 45.40625 8.203125 
Q 42.578125 3.328125 38.25 0.953125 
Q 33.9375 -1.421875 27.875 -1.421875 
Q 17.96875 -1.421875 11.734375 6.484375 
Q 5.515625 14.40625 5.515625 27.296875 
Q 5.515625 40.1875 11.734375 48.09375 
Q 17.96875 56 27.875 56 
Q 33.9375 56 38.25 53.625 
Q 42.578125 51.265625 45.40625 46.390625 
z
M 14.796875 27.296875 
Q 14.796875 17.390625 18.875 11.75 
Q 22.953125 6.109375 30.078125 6.109375 
Q 37.203125 6.109375 41.296875 11.75 
Q 45.40625 17.390625 45.40625 27.296875 
Q 45.40625 37.203125 41.296875 42.84375 
Q 37.203125 48.484375 30.078125 48.484375 
Q 22.953125 48.484375 18.875 42.84375 
Q 14.796875 37.203125 14.796875 27.296875 
z
" id="DejaVuSans-100"/>
     </defs>
     <g transform="translate(434.788125 59.237813)scale(0.14 -0.14)">
      <use xlink:href="#DejaVuSans-119"/>
      <use x="81.787109" xlink:href="#DejaVuSans-101"/>
      <use x="143.310547" xlink:href="#DejaVuSans-108"/>
      <use x="171.09375" xlink:href="#DejaVuSans-99"/>
      <use x="226.074219" xlink:href="#DejaVuSans-111"/>
      <use x="287.255859" xlink:href="#DejaVuSans-109"/>
      <use x="384.667969" xlink:href="#DejaVuSans-101"/>
      <use x="446.191406" xlink:href="#DejaVuSans-95"/>
      <use x="496.191406" xlink:href="#DejaVuSans-111"/>
      <use x="557.373047" xlink:href="#DejaVuSans-108"/>
      <use x="585.15625" xlink:href="#DejaVuSans-100"/>
     </g>
    </g>
    <g id="patch_6">
     <path d="M 395.588125 80.176563 
L 423.588125 80.176563 
L 423.588125 70.376563 
L 395.588125 70.376563 
z
" style="fill:#36a2eb;opacity:0.5;stroke:#36a2eb;stroke-linejoin:miter;"/>
    </g>
    <g id="text_2">
     <!-- no_welcome -->
     <defs>
      <path d="M 54.890625 33.015625 
L 54.890625 0 
L 45.90625 0 
L 45.90625 32.71875 
Q 45.90625 40.484375 42.875 44.328125 
Q 39.84375 48.1875 33.796875 48.1875 
Q 26.515625 48.1875 22.3125 43.546875 
Q 18.109375 38.921875 18.109375 30.90625 
L 18.109375 0 
L 9.078125 0 
L 9.078125 54.6875 
L 18.109375 54.6875 
L 18.109375 46.1875 
Q 21.34375 51.125 25.703125 53.5625 
Q 30.078125 56 35.796875 56 
Q 45.21875 56 50.046875 50.171875 
Q 54.890625 44.34375 54.890625 33.015625 
z
" id="DejaVuSans-110"/>
     </defs>
     <g transform="translate(434.788125 80.176563)scale(0.14 -0.14)">
      <use xlink:href="#DejaVuSans-110"/>
      <use x="63.378906" xlink:href="#DejaVuSans-111"/>
      <use x="124.560547" xlink:href="#DejaVuSans-95"/>
      <use x="174.560547" xlink:href="#DejaVuSans-119"/>
      <use x="256.347656" xlink:href="#DejaVuSans-101"/>
      <use x="317.871094" xlink:href="#DejaVuSans-108"/>
      <use x="345.654297" xlink:href="#DejaVuSans-99"/>
      <use x="400.634766" xlink:href="#DejaVuSans-111"/>
      <use x="461.816406" xlink:href="#DejaVuSans-109"/>
      <use x="559.228516" xlink:href="#DejaVuSans-101"/>
     </g>
    </g>
    <g id="patch_7">
     <path d="M 395.588125 101.115313 
L 423.588125 101.115313 
L 423.588125 91.315313 
L 395.588125 91.315313 
z
" style="fill:#4bc0c0;opacity:0.5;stroke:#4bc0c0;stroke-linejoin:miter;"/>
    </g>
    <g id="text_3">
     <!-- welcome -->
     <g transform="translate(434.788125 101.115313)scale(0.14 -0.14)">
      <use xlink:href="#DejaVuSans-119"/>
      <use x="81.787109" xlink:href="#DejaVuSans-101"/>
      <use x="143.310547" xlink:href="#DejaVuSans-108"/>
      <use x="171.09375" xlink:href="#DejaVuSans-99"/>
      <use x="226.074219" xlink:href="#DejaVuSans-111"/>
      <use x="287.255859" xlink:href="#DejaVuSans-109"/>
      <use x="384.667969" xlink:href="#DejaVuSans-101"/>
     </g>
    </g>
   </g>
  </g>
  <g id="axes_2">
   <g id="patch_8">
    <path d="M 36 525.24 
L 538.2 525.24 
L 538.2 402.93 
L 36 402.93 
z
" style="fill:none;"/>
   </g>
   <g id="patch_9">
    <path clip-path="url(#p8ff907cfce)" d="M 180.408083 519.680455 
L 395.359858 519.680455 
L 395.359858 497.442273 
L 180.408083 497.442273 
z
" style="fill:#ff6384;opacity:0.5;"/>
   </g>
   <g id="patch_10">
    <path clip-path="url(#p8ff907cfce)" d="M 170.0623 475.204091 
L 383.80804 475.204091 
L 383.80804 452.965909 
L 170.0623 452.965909 
z
" style="fill:#36a2eb;opacity:0.5;"/>
   </g>
   <g id="patch_11">
    <path clip-path="url(#p8ff907cfce)" d="M 176.414479 430.727727 
L 399.353461 430.727727 
L 399.353461 408.489545 
L 176.414479 408.489545 
z
" style="fill:#4bc0c0;opacity:0.5;"/>
   </g>
   <g id="matplotlib.axis_1">
    <g id="xtick_1">
     <g id="line2d_4">
      <defs>
       <path d="M 0 0 
L 0 3.5 
" id="m3702ef6623" style="stroke:#000000;stroke-width:0.8;"/>
      </defs>
      <g>
       <use style="stroke:#000000;stroke-width:0.8;" x="75.477245" xlink:href="#m3702ef6623" y="525.24"/>
      </g>
     </g>
     <g id="text_4">
      <!-- 2.5 -->
      <defs>
       <path d="M 19.1875 8.296875 
L 53.609375 8.296875 
L 53.609375 0 
L 7.328125 0 
L 7.328125 8.296875 
Q 12.9375 14.109375 22.625 23.890625 
Q 32.328125 33.6875 34.8125 36.53125 
Q 39.546875 41.84375 41.421875 45.53125 
Q 43.3125 49.21875 43.3125 52.78125 
Q 43.3125 58.59375 39.234375 62.25 
Q 35.15625 65.921875 28.609375 65.921875 
Q 23.96875 65.921875 18.8125 64.3125 
Q 13.671875 62.703125 7.8125 59.421875 
L 7.8125 69.390625 
Q 13.765625 71.78125 18.9375 73 
Q 24.125 74.21875 28.421875 74.21875 
Q 39.75 74.21875 46.484375 68.546875 
Q 53.21875 62.890625 53.21875 53.421875 
Q 53.21875 48.921875 51.53125 44.890625 
Q 49.859375 40.875 45.40625 35.40625 
Q 44.1875 33.984375 37.640625 27.21875 
Q 31.109375 20.453125 19.1875 8.296875 
z
" id="DejaVuSans-50"/>
       <path d="M 10.6875 12.40625 
L 21 12.40625 
L 21 0 
L 10.6875 0 
z
" id="DejaVuSans-46"/>
       <path d="M 10.796875 72.90625 
L 49.515625 72.90625 
L 49.515625 64.59375 
L 19.828125 64.59375 
L 19.828125 46.734375 
Q 21.96875 47.46875 24.109375 47.828125 
Q 26.265625 48.1875 28.421875 48.1875 
Q 40.625 48.1875 47.75 41.5 
Q 54.890625 34.8125 54.890625 23.390625 
Q 54.890625 11.625 47.5625 5.09375 
Q 40.234375 -1.421875 26.90625 -1.421875 
Q 22.3125 -1.421875 17.546875 -0.640625 
Q 12.796875 0.140625 7.71875 1.703125 
L 7.71875 11.625 
Q 12.109375 9.234375 16.796875 8.0625 
Q 21.484375 6.890625 26.703125 6.890625 
Q 35.15625 6.890625 40.078125 11.328125 
Q 45.015625 15.765625 45.015625 23.390625 
Q 45.015625 31 40.078125 35.4375 
Q 35.15625 39.890625 26.703125 39.890625 
Q 22.75 39.890625 18.8125 39.015625 
Q 14.890625 38.140625 10.796875 36.28125 
z
" id="DejaVuSans-53"/>
      </defs>
      <g transform="translate(64.345057 542.877813)scale(0.14 -0.14)">
       <use xlink:href="#DejaVuSans-50"/>
       <use x="63.623047" xlink:href="#DejaVuSans-46"/>
       <use x="95.410156" xlink:href="#DejaVuSans-53"/>
      </g>
     </g>
    </g>
    <g id="xtick_2">
     <g id="line2d_5">
      <g>
       <use style="stroke:#000000;stroke-width:0.8;" x="184.965247" xlink:href="#m3702ef6623" y="525.24"/>
      </g>
     </g>
     <g id="text_5">
      <!-- 3.0 -->
      <defs>
       <path d="M 40.578125 39.3125 
Q 47.65625 37.796875 51.625 33 
Q 55.609375 28.21875 55.609375 21.1875 
Q 55.609375 10.40625 48.1875 4.484375 
Q 40.765625 -1.421875 27.09375 -1.421875 
Q 22.515625 -1.421875 17.65625 -0.515625 
Q 12.796875 0.390625 7.625 2.203125 
L 7.625 11.71875 
Q 11.71875 9.328125 16.59375 8.109375 
Q 21.484375 6.890625 26.8125 6.890625 
Q 36.078125 6.890625 40.9375 10.546875 
Q 45.796875 14.203125 45.796875 21.1875 
Q 45.796875 27.640625 41.28125 31.265625 
Q 36.765625 34.90625 28.71875 34.90625 
L 20.21875 34.90625 
L 20.21875 43.015625 
L 29.109375 43.015625 
Q 36.375 43.015625 40.234375 45.921875 
Q 44.09375 48.828125 44.09375 54.296875 
Q 44.09375 59.90625 40.109375 62.90625 
Q 36.140625 65.921875 28.71875 65.921875 
Q 24.65625 65.921875 20.015625 65.03125 
Q 15.375 64.15625 9.8125 62.3125 
L 9.8125 71.09375 
Q 15.4375 72.65625 20.34375 73.4375 
Q 25.25 74.21875 29.59375 74.21875 
Q 40.828125 74.21875 47.359375 69.109375 
Q 53.90625 64.015625 53.90625 55.328125 
Q 53.90625 49.265625 50.4375 45.09375 
Q 46.96875 40.921875 40.578125 39.3125 
z
" id="DejaVuSans-51"/>
       <path d="M 31.78125 66.40625 
Q 24.171875 66.40625 20.328125 58.90625 
Q 16.5 51.421875 16.5 36.375 
Q 16.5 21.390625 20.328125 13.890625 
Q 24.171875 6.390625 31.78125 6.390625 
Q 39.453125 6.390625 43.28125 13.890625 
Q 47.125 21.390625 47.125 36.375 
Q 47.125 51.421875 43.28125 58.90625 
Q 39.453125 66.40625 31.78125 66.40625 
z
M 31.78125 74.21875 
Q 44.046875 74.21875 50.515625 64.515625 
Q 56.984375 54.828125 56.984375 36.375 
Q 56.984375 17.96875 50.515625 8.265625 
Q 44.046875 -1.421875 31.78125 -1.421875 
Q 19.53125 -1.421875 13.0625 8.265625 
Q 6.59375 17.96875 6.59375 36.375 
Q 6.59375 54.828125 13.0625 64.515625 
Q 19.53125 74.21875 31.78125 74.21875 
z
" id="DejaVuSans-48"/>
      </defs>
      <g transform="translate(173.83306 542.877813)scale(0.14 -0.14)">
       <use xlink:href="#DejaVuSans-51"/>
       <use x="63.623047" xlink:href="#DejaVuSans-46"/>
       <use x="95.410156" xlink:href="#DejaVuSans-48"/>
      </g>
     </g>
    </g>
    <g id="xtick_3">
     <g id="line2d_6">
      <g>
       <use style="stroke:#000000;stroke-width:0.8;" x="294.45325" xlink:href="#m3702ef6623" y="525.24"/>
      </g>
     </g>
     <g id="text_6">
      <!-- 3.5 -->
      <g transform="translate(283.321063 542.877813)scale(0.14 -0.14)">
       <use xlink:href="#DejaVuSans-51"/>
       <use x="63.623047" xlink:href="#DejaVuSans-46"/>
       <use x="95.410156" xlink:href="#DejaVuSans-53"/>
      </g>
     </g>
    </g>
    <g id="xtick_4">
     <g id="line2d_7">
      <g>
       <use style="stroke:#000000;stroke-width:0.8;" x="403.941253" xlink:href="#m3702ef6623" y="525.24"/>
      </g>
     </g>
     <g id="text_7">
      <!-- 4.0 -->
      <defs>
       <path d="M 37.796875 64.3125 
L 12.890625 25.390625 
L 37.796875 25.390625 
z
M 35.203125 72.90625 
L 47.609375 72.90625 
L 47.609375 25.390625 
L 58.015625 25.390625 
L 58.015625 17.1875 
L 47.609375 17.1875 
L 47.609375 0 
L 37.796875 0 
L 37.796875 17.1875 
L 4.890625 17.1875 
L 4.890625 26.703125 
z
" id="DejaVuSans-52"/>
      </defs>
      <g transform="translate(392.809066 542.877813)scale(0.14 -0.14)">
       <use xlink:href="#DejaVuSans-52"/>
       <use x="63.623047" xlink:href="#DejaVuSans-46"/>
       <use x="95.410156" xlink:href="#DejaVuSans-48"/>
      </g>
     </g>
    </g>
    <g id="xtick_5">
     <g id="line2d_8">
      <g>
       <use style="stroke:#000000;stroke-width:0.8;" x="513.429256" xlink:href="#m3702ef6623" y="525.24"/>
      </g>
     </g>
     <g id="text_8">
      <!-- 4.5 -->
      <g transform="translate(502.297069 542.877813)scale(0.14 -0.14)">
       <use xlink:href="#DejaVuSans-52"/>
       <use x="63.623047" xlink:href="#DejaVuSans-46"/>
       <use x="95.410156" xlink:href="#DejaVuSans-53"/>
      </g>
     </g>
    </g>
   </g>
   <g id="line2d_9">
    <path clip-path="url(#p8ff907cfce)" d="M 287.88397 525.24 
L 287.88397 402.93 
" style="fill:none;stroke:#ff6384;stroke-dasharray:5.55,2.4;stroke-dashoffset:0;stroke-opacity:0.8;stroke-width:1.5;"/>
   </g>
   <g id="line2d_10">
    <path clip-path="url(#p8ff907cfce)" d="M 276.93517 525.24 
L 276.93517 402.93 
" style="fill:none;stroke:#36a2eb;stroke-dasharray:5.55,2.4;stroke-dashoffset:0;stroke-opacity:0.8;stroke-width:1.5;"/>
   </g>
   <g id="line2d_11">
    <path clip-path="url(#p8ff907cfce)" d="M 287.88397 525.24 
L 287.88397 402.93 
" style="fill:none;stroke:#4bc0c0;stroke-dasharray:5.55,2.4;stroke-dashoffset:0;stroke-opacity:0.8;stroke-width:1.5;"/>
   </g>
   <g id="patch_12">
    <path d="M 36 525.24 
L 538.2 525.24 
" style="fill:none;stroke:#000000;stroke-linecap:square;stroke-linejoin:miter;stroke-width:0.8;"/>
   </g>
  </g>
 </g>
 <defs>
  <clipPath id="pab1d2a55a2">
   <rect height="366.93" width="502.2" x="36" y="36"/>
  </clipPath>
  <clipPath id="p8ff907cfce">
   <rect height="122.31" width="502.2" x="36" y="402.93"/>
  </clipPath>
 </defs>
</svg>
