<?xml version="1.0" encoding="utf-8" standalone="no"?>
<!DOCTYPE svg PUBLIC "-//W3C//DTD SVG 1.1//EN"
  "http://www.w3.org/Graphics/SVG/1.1/DTD/svg11.dtd">
<!-- Created with matplotlib (https://matplotlib.org/) -->
<svg height="581.789375pt" version="1.1" viewBox="0 0 574.2 581.789375" width="574.2pt" xmlns="http://www.w3.org/2000/svg" xmlns:xlink="http://www.w3.org/1999/xlink">
 <defs>
  <style type="text/css">
*{stroke-linecap:butt;stroke-linejoin:round;}
  </style>
 </defs>
 <g id="figure_1">
  <g id="patch_1">
   <path d="M 0 581.789375 
L 574.2 581.789375 
L 574.2 0 
L 0 0 
z
" style="fill:none;"/>
  </g>
  <g id="axes_1">
   <g id="patch_2">
    <path d="M 36 402.93 
L 538.2 402.93 
L 538.2 36 
L 36 36 
z
" style="fill:none;"/>
   </g>
   <g id="PolyCollection_1">
    <defs>
     <path d="M 66.540165 -195.538011 
L 66.540165 -195.649514 
L 70.921414 -195.691559 
L 75.302663 -195.748083 
L 79.683913 -195.823544 
L 84.065162 -195.923586 
L 88.446411 -196.05529 
L 92.82766 -196.227465 
L 97.208909 -196.450967 
L 101.590158 -196.739053 
L 105.971407 -197.107763 
L 110.352656 -197.576309 
L 114.733905 -198.167483 
L 119.115154 -198.908039 
L 123.496403 -199.829051 
L 127.877652 -200.966208 
L 132.258902 -202.360028 
L 136.640151 -204.055941 
L 141.0214 -206.104225 
L 145.402649 -208.559744 
L 149.783898 -211.481461 
L 154.165147 -214.931676 
L 158.546396 -218.974986 
L 162.927645 -223.676923 
L 167.308894 -229.102274 
L 171.690143 -235.313088 
L 176.071392 -242.366378 
L 180.452641 -250.311585 
L 184.833891 -259.187838 
L 189.21514 -269.021109 
L 193.596389 -279.821356 
L 197.977638 -291.579781 
L 202.358887 -304.266317 
L 206.740136 -317.827512 
L 211.121385 -332.184918 
L 215.502634 -347.234146 
L 219.883883 -362.844702 
L 224.265132 -378.860684 
L 228.646381 -395.10244 
L 233.02763 -411.369183 
L 237.40888 -427.442568 
L 241.790129 -443.091173 
L 246.171378 -458.075757 
L 250.552627 -472.155165 
L 254.933876 -485.092662 
L 259.315125 -496.66249 
L 263.696374 -506.656384 
L 268.077623 -514.889788 
L 272.458872 -521.207517 
L 276.840121 -525.48862 
L 281.22137 -527.65023 
L 285.60262 -527.65023 
L 289.983869 -525.48862 
L 294.365118 -521.207517 
L 298.746367 -514.889788 
L 303.127616 -506.656384 
L 307.508865 -496.66249 
L 311.890114 -485.092662 
L 316.271363 -472.155165 
L 320.652612 -458.075757 
L 325.033861 -443.091173 
L 329.41511 -427.442568 
L 333.796359 -411.369183 
L 338.177609 -395.10244 
L 342.558858 -378.860684 
L 346.940107 -362.844702 
L 351.321356 -347.234146 
L 355.702605 -332.184918 
L 360.083854 -317.827512 
L 364.465103 -304.266317 
L 368.846352 -291.579781 
L 373.227601 -279.821356 
L 377.60885 -269.021109 
L 381.990099 -259.187838 
L 386.371348 -250.311585 
L 390.752598 -242.366378 
L 395.133847 -235.313088 
L 399.515096 -229.102274 
L 403.896345 -223.676923 
L 408.277594 -218.974986 
L 412.658843 -214.931676 
L 417.040092 -211.481461 
L 421.421341 -208.559744 
L 425.80259 -206.104225 
L 430.183839 -204.055941 
L 434.565088 -202.360028 
L 438.946337 -200.966208 
L 443.327587 -199.829051 
L 447.708836 -198.908039 
L 452.090085 -198.167483 
L 456.471334 -197.576309 
L 460.852583 -197.107763 
L 465.233832 -196.739053 
L 469.615081 -196.450967 
L 473.99633 -196.227465 
L 478.377579 -196.05529 
L 482.758828 -195.923586 
L 487.140077 -195.823544 
L 491.521327 -195.748083 
L 495.902576 -195.691559 
L 500.283825 -195.649514 
L 500.283825 -195.538011 
L 500.283825 -195.538011 
L 495.902576 -195.538011 
L 491.521327 -195.538011 
L 487.140077 -195.538011 
L 482.758828 -195.538011 
L 478.377579 -195.538011 
L 473.99633 -195.538011 
L 469.615081 -195.538011 
L 465.233832 -195.538011 
L 460.852583 -195.538011 
L 456.471334 -195.538011 
L 452.090085 -195.538011 
L 447.708836 -195.538011 
L 443.327587 -195.538011 
L 438.946337 -195.538011 
L 434.565088 -195.538011 
L 430.183839 -195.538011 
L 425.80259 -195.538011 
L 421.421341 -195.538011 
L 417.040092 -195.538011 
L 412.658843 -195.538011 
L 408.277594 -195.538011 
L 403.896345 -195.538011 
L 399.515096 -195.538011 
L 395.133847 -195.538011 
L 390.752598 -195.538011 
L 386.371348 -195.538011 
L 381.990099 -195.538011 
L 377.60885 -195.538011 
L 373.227601 -195.538011 
L 368.846352 -195.538011 
L 364.465103 -195.538011 
L 360.083854 -195.538011 
L 355.702605 -195.538011 
L 351.321356 -195.538011 
L 346.940107 -195.538011 
L 342.558858 -195.538011 
L 338.177609 -195.538011 
L 333.796359 -195.538011 
L 329.41511 -195.538011 
L 325.033861 -195.538011 
L 320.652612 -195.538011 
L 316.271363 -195.538011 
L 311.890114 -195.538011 
L 307.508865 -195.538011 
L 303.127616 -195.538011 
L 298.746367 -195.538011 
L 294.365118 -195.538011 
L 289.983869 -195.538011 
L 285.60262 -195.538011 
L 281.22137 -195.538011 
L 276.840121 -195.538011 
L 272.458872 -195.538011 
L 268.077623 -195.538011 
L 263.696374 -195.538011 
L 259.315125 -195.538011 
L 254.933876 -195.538011 
L 250.552627 -195.538011 
L 246.171378 -195.538011 
L 241.790129 -195.538011 
L 237.40888 -195.538011 
L 233.02763 -195.538011 
L 228.646381 -195.538011 
L 224.265132 -195.538011 
L 219.883883 -195.538011 
L 215.502634 -195.538011 
L 211.121385 -195.538011 
L 206.740136 -195.538011 
L 202.358887 -195.538011 
L 197.977638 -195.538011 
L 193.596389 -195.538011 
L 189.21514 -195.538011 
L 184.833891 -195.538011 
L 180.452641 -195.538011 
L 176.071392 -195.538011 
L 171.690143 -195.538011 
L 167.308894 -195.538011 
L 162.927645 -195.538011 
L 158.546396 -195.538011 
L 154.165147 -195.538011 
L 149.783898 -195.538011 
L 145.402649 -195.538011 
L 141.0214 -195.538011 
L 136.640151 -195.538011 
L 132.258902 -195.538011 
L 127.877652 -195.538011 
L 123.496403 -195.538011 
L 119.115154 -195.538011 
L 114.733905 -195.538011 
L 110.352656 -195.538011 
L 105.971407 -195.538011 
L 101.590158 -195.538011 
L 97.208909 -195.538011 
L 92.82766 -195.538011 
L 88.446411 -195.538011 
L 84.065162 -195.538011 
L 79.683913 -195.538011 
L 75.302663 -195.538011 
L 70.921414 -195.538011 
L 66.540165 -195.538011 
z
" id="m6462afa81d" style="stroke:#ff6384;stroke-opacity:0.5;"/>
    </defs>
    <g clip-path="url(#pf719375071)">
     <use style="fill:#ff6384;fill-opacity:0.5;stroke:#ff6384;stroke-opacity:0.5;" x="0" xlink:href="#m6462afa81d" y="581.789375"/>
    </g>
   </g>
   <g id="PolyCollection_2">
    <defs>
     <path d="M 58.827273 -195.538011 
L 58.827273 -195.650004 
L 63.189339 -195.692234 
L 67.551405 -195.749007 
L 71.913472 -195.8248 
L 76.275538 -195.925281 
L 80.637604 -196.057565 
L 84.999671 -196.230497 
L 89.361737 -196.454982 
L 93.723803 -196.744335 
L 98.085869 -197.114666 
L 102.447936 -197.585273 
L 106.810002 -198.179047 
L 111.172068 -198.922859 
L 115.534135 -199.847921 
L 119.896201 -200.990079 
L 124.258267 -202.390029 
L 128.620334 -204.093399 
L 132.9824 -206.150691 
L 137.344466 -208.617009 
L 141.706532 -211.551575 
L 146.068599 -215.016962 
L 150.430665 -219.078053 
L 154.792731 -223.800667 
L 159.154798 -229.249878 
L 163.516864 -235.488004 
L 167.87893 -242.572312 
L 172.240997 -250.552459 
L 176.603063 -259.467747 
L 180.965129 -269.344261 
L 185.327195 -280.192004 
L 189.689262 -292.002137 
L 194.051328 -304.744465 
L 198.413394 -318.365297 
L 202.775461 -332.785841 
L 207.137527 -347.901251 
L 211.499593 -363.580456 
L 215.86166 -379.666871 
L 220.223726 -395.980052 
L 224.585792 -412.31833 
L 228.947858 -428.4624 
L 233.309925 -444.179822 
L 237.671991 -459.230303 
L 242.034057 -473.371627 
L 246.396124 -486.366018 
L 250.75819 -497.986726 
L 255.120256 -508.02457 
L 259.482323 -516.294181 
L 263.844389 -522.639693 
L 268.206455 -526.939623 
L 272.568521 -529.110739 
L 276.930588 -529.110739 
L 281.292654 -526.939623 
L 285.65472 -522.639693 
L 290.016787 -516.294181 
L 294.378853 -508.02457 
L 298.740919 -497.986726 
L 303.102986 -486.366018 
L 307.465052 -473.371627 
L 311.827118 -459.230303 
L 316.189184 -444.179822 
L 320.551251 -428.4624 
L 324.913317 -412.31833 
L 329.275383 -395.980052 
L 333.63745 -379.666871 
L 337.999516 -363.580456 
L 342.361582 -347.901251 
L 346.723649 -332.785841 
L 351.085715 -318.365297 
L 355.447781 -304.744465 
L 359.809847 -292.002137 
L 364.171914 -280.192004 
L 368.53398 -269.344261 
L 372.896046 -259.467747 
L 377.258113 -250.552459 
L 381.620179 -242.572312 
L 385.982245 -235.488004 
L 390.344312 -229.249878 
L 394.706378 -223.800667 
L 399.068444 -219.078053 
L 403.43051 -215.016962 
L 407.792577 -211.551575 
L 412.154643 -208.617009 
L 416.516709 -206.150691 
L 420.878776 -204.093399 
L 425.240842 -202.390029 
L 429.602908 -200.990079 
L 433.964975 -199.847921 
L 438.327041 -198.922859 
L 442.689107 -198.179047 
L 447.051174 -197.585273 
L 451.41324 -197.114666 
L 455.775306 -196.744335 
L 460.137372 -196.454982 
L 464.499439 -196.230497 
L 468.861505 -196.057565 
L 473.223571 -195.925281 
L 477.585638 -195.8248 
L 481.947704 -195.749007 
L 486.30977 -195.692234 
L 490.671837 -195.650004 
L 490.671837 -195.538011 
L 490.671837 -195.538011 
L 486.30977 -195.538011 
L 481.947704 -195.538011 
L 477.585638 -195.538011 
L 473.223571 -195.538011 
L 468.861505 -195.538011 
L 464.499439 -195.538011 
L 460.137372 -195.538011 
L 455.775306 -195.538011 
L 451.41324 -195.538011 
L 447.051174 -195.538011 
L 442.689107 -195.538011 
L 438.327041 -195.538011 
L 433.964975 -195.538011 
L 429.602908 -195.538011 
L 425.240842 -195.538011 
L 420.878776 -195.538011 
L 416.516709 -195.538011 
L 412.154643 -195.538011 
L 407.792577 -195.538011 
L 403.43051 -195.538011 
L 399.068444 -195.538011 
L 394.706378 -195.538011 
L 390.344312 -195.538011 
L 385.982245 -195.538011 
L 381.620179 -195.538011 
L 377.258113 -195.538011 
L 372.896046 -195.538011 
L 368.53398 -195.538011 
L 364.171914 -195.538011 
L 359.809847 -195.538011 
L 355.447781 -195.538011 
L 351.085715 -195.538011 
L 346.723649 -195.538011 
L 342.361582 -195.538011 
L 337.999516 -195.538011 
L 333.63745 -195.538011 
L 329.275383 -195.538011 
L 324.913317 -195.538011 
L 320.551251 -195.538011 
L 316.189184 -195.538011 
L 311.827118 -195.538011 
L 307.465052 -195.538011 
L 303.102986 -195.538011 
L 298.740919 -195.538011 
L 294.378853 -195.538011 
L 290.016787 -195.538011 
L 285.65472 -195.538011 
L 281.292654 -195.538011 
L 276.930588 -195.538011 
L 272.568521 -195.538011 
L 268.206455 -195.538011 
L 263.844389 -195.538011 
L 259.482323 -195.538011 
L 255.120256 -195.538011 
L 250.75819 -195.538011 
L 246.396124 -195.538011 
L 242.034057 -195.538011 
L 237.671991 -195.538011 
L 233.309925 -195.538011 
L 228.947858 -195.538011 
L 224.585792 -195.538011 
L 220.223726 -195.538011 
L 215.86166 -195.538011 
L 211.499593 -195.538011 
L 207.137527 -195.538011 
L 202.775461 -195.538011 
L 198.413394 -195.538011 
L 194.051328 -195.538011 
L 189.689262 -195.538011 
L 185.327195 -195.538011 
L 180.965129 -195.538011 
L 176.603063 -195.538011 
L 172.240997 -195.538011 
L 167.87893 -195.538011 
L 163.516864 -195.538011 
L 159.154798 -195.538011 
L 154.792731 -195.538011 
L 150.430665 -195.538011 
L 146.068599 -195.538011 
L 141.706532 -195.538011 
L 137.344466 -195.538011 
L 132.9824 -195.538011 
L 128.620334 -195.538011 
L 124.258267 -195.538011 
L 119.896201 -195.538011 
L 115.534135 -195.538011 
L 111.172068 -195.538011 
L 106.810002 -195.538011 
L 102.447936 -195.538011 
L 98.085869 -195.538011 
L 93.723803 -195.538011 
L 89.361737 -195.538011 
L 84.999671 -195.538011 
L 80.637604 -195.538011 
L 76.275538 -195.538011 
L 71.913472 -195.538011 
L 67.551405 -195.538011 
L 63.189339 -195.538011 
L 58.827273 -195.538011 
z
" id="mbbd768a49f" style="stroke:#36a2eb;stroke-opacity:0.5;"/>
    </defs>
    <g clip-path="url(#pf719375071)">
     <use style="fill:#36a2eb;fill-opacity:0.5;stroke:#36a2eb;stroke-opacity:0.5;" x="0" xlink:href="#mbbd768a49f" y="581.789375"/>
    </g>
   </g>
   <g id="PolyCollection_3">
    <defs>
     <path d="M 64.444923 -195.538011 
L 64.444923 -195.645264 
L 68.999749 -195.685708 
L 73.554576 -195.740078 
L 78.109402 -195.812663 
L 82.664228 -195.908892 
L 87.219055 -196.035577 
L 91.773881 -196.201191 
L 96.328707 -196.416175 
L 100.883534 -196.693284 
L 105.43836 -197.047942 
L 109.993186 -197.498633 
L 114.548013 -198.067278 
L 119.102839 -198.779613 
L 123.657665 -199.665526 
L 128.212491 -200.759348 
L 132.767318 -202.100052 
L 137.322144 -203.731336 
L 141.87697 -205.701563 
L 146.431797 -208.063507 
L 150.986623 -210.873881 
L 155.541449 -214.192614 
L 160.096276 -218.08184 
L 164.651102 -222.604593 
L 169.205928 -227.823193 
L 173.760754 -233.797323 
L 178.315581 -240.581823 
L 182.870407 -248.224251 
L 187.425233 -256.762244 
L 191.98006 -266.220784 
L 196.534886 -276.609451 
L 201.089712 -287.919781 
L 205.644539 -300.122854 
L 210.199365 -313.167253 
L 214.754191 -326.97752 
L 219.309018 -341.453247 
L 223.863844 -356.468909 
L 228.41867 -371.874547 
L 232.973496 -387.497356 
L 237.528323 -403.144198 
L 242.083149 -418.605052 
L 246.637975 -433.657314 
L 251.192802 -448.070859 
L 255.747628 -461.613723 
L 260.302454 -474.058192 
L 264.857281 -485.187113 
L 269.412107 -494.800155 
L 273.966933 -502.719797 
L 278.521759 -508.796768 
L 283.076586 -512.914725 
L 287.631412 -514.993959 
L 292.186238 -514.993959 
L 296.741065 -512.914725 
L 301.295891 -508.796768 
L 305.850717 -502.719797 
L 310.405544 -494.800155 
L 314.96037 -485.187113 
L 319.515196 -474.058192 
L 324.070023 -461.613723 
L 328.624849 -448.070859 
L 333.179675 -433.657314 
L 337.734501 -418.605052 
L 342.289328 -403.144198 
L 346.844154 -387.497356 
L 351.39898 -371.874547 
L 355.953807 -356.468909 
L 360.508633 -341.453247 
L 365.063459 -326.97752 
L 369.618286 -313.167253 
L 374.173112 -300.122854 
L 378.727938 -287.919781 
L 383.282764 -276.609451 
L 387.837591 -266.220784 
L 392.392417 -256.762244 
L 396.947243 -248.224251 
L 401.50207 -240.581823 
L 406.056896 -233.797323 
L 410.611722 -227.823193 
L 415.166549 -222.604593 
L 419.721375 -218.08184 
L 424.276201 -214.192614 
L 428.831027 -210.873881 
L 433.385854 -208.063507 
L 437.94068 -205.701563 
L 442.495506 -203.731336 
L 447.050333 -202.100052 
L 451.605159 -200.759348 
L 456.159985 -199.665526 
L 460.714812 -198.779613 
L 465.269638 -198.067278 
L 469.824464 -197.498633 
L 474.379291 -197.047942 
L 478.934117 -196.693284 
L 483.488943 -196.416175 
L 488.043769 -196.201191 
L 492.598596 -196.035577 
L 497.153422 -195.908892 
L 501.708248 -195.812663 
L 506.263075 -195.740078 
L 510.817901 -195.685708 
L 515.372727 -195.645264 
L 515.372727 -195.538011 
L 515.372727 -195.538011 
L 510.817901 -195.538011 
L 506.263075 -195.538011 
L 501.708248 -195.538011 
L 497.153422 -195.538011 
L 492.598596 -195.538011 
L 488.043769 -195.538011 
L 483.488943 -195.538011 
L 478.934117 -195.538011 
L 474.379291 -195.538011 
L 469.824464 -195.538011 
L 465.269638 -195.538011 
L 460.714812 -195.538011 
L 456.159985 -195.538011 
L 451.605159 -195.538011 
L 447.050333 -195.538011 
L 442.495506 -195.538011 
L 437.94068 -195.538011 
L 433.385854 -195.538011 
L 428.831027 -195.538011 
L 424.276201 -195.538011 
L 419.721375 -195.538011 
L 415.166549 -195.538011 
L 410.611722 -195.538011 
L 406.056896 -195.538011 
L 401.50207 -195.538011 
L 396.947243 -195.538011 
L 392.392417 -195.538011 
L 387.837591 -195.538011 
L 383.282764 -195.538011 
L 378.727938 -195.538011 
L 374.173112 -195.538011 
L 369.618286 -195.538011 
L 365.063459 -195.538011 
L 360.508633 -195.538011 
L 355.953807 -195.538011 
L 351.39898 -195.538011 
L 346.844154 -195.538011 
L 342.289328 -195.538011 
L 337.734501 -195.538011 
L 333.179675 -195.538011 
L 328.624849 -195.538011 
L 324.070023 -195.538011 
L 319.515196 -195.538011 
L 314.96037 -195.538011 
L 310.405544 -195.538011 
L 305.850717 -195.538011 
L 301.295891 -195.538011 
L 296.741065 -195.538011 
L 292.186238 -195.538011 
L 287.631412 -195.538011 
L 283.076586 -195.538011 
L 278.521759 -195.538011 
L 273.966933 -195.538011 
L 269.412107 -195.538011 
L 264.857281 -195.538011 
L 260.302454 -195.538011 
L 255.747628 -195.538011 
L 251.192802 -195.538011 
L 246.637975 -195.538011 
L 242.083149 -195.538011 
L 237.528323 -195.538011 
L 232.973496 -195.538011 
L 228.41867 -195.538011 
L 223.863844 -195.538011 
L 219.309018 -195.538011 
L 214.754191 -195.538011 
L 210.199365 -195.538011 
L 205.644539 -195.538011 
L 201.089712 -195.538011 
L 196.534886 -195.538011 
L 191.98006 -195.538011 
L 187.425233 -195.538011 
L 182.870407 -195.538011 
L 178.315581 -195.538011 
L 173.760754 -195.538011 
L 169.205928 -195.538011 
L 164.651102 -195.538011 
L 160.096276 -195.538011 
L 155.541449 -195.538011 
L 150.986623 -195.538011 
L 146.431797 -195.538011 
L 141.87697 -195.538011 
L 137.322144 -195.538011 
L 132.767318 -195.538011 
L 128.212491 -195.538011 
L 123.657665 -195.538011 
L 119.102839 -195.538011 
L 114.548013 -195.538011 
L 109.993186 -195.538011 
L 105.43836 -195.538011 
L 100.883534 -195.538011 
L 96.328707 -195.538011 
L 91.773881 -195.538011 
L 87.219055 -195.538011 
L 82.664228 -195.538011 
L 78.109402 -195.538011 
L 73.554576 -195.538011 
L 68.999749 -195.538011 
L 64.444923 -195.538011 
z
" id="m13308325c3" style="stroke:#4bc0c0;stroke-opacity:0.5;"/>
    </defs>
    <g clip-path="url(#pf719375071)">
     <use style="fill:#4bc0c0;fill-opacity:0.5;stroke:#4bc0c0;stroke-opacity:0.5;" x="0" xlink:href="#m13308325c3" y="581.789375"/>
    </g>
   </g>
   <g id="line2d_1">
    <path clip-path="url(#pf719375071)" d="M 66.540165 386.139861 
L 70.921414 386.097816 
L 75.302663 386.041292 
L 79.683913 385.965831 
L 84.065162 385.865789 
L 88.446411 385.734085 
L 92.82766 385.56191 
L 97.208909 385.338408 
L 101.590158 385.050322 
L 105.971407 384.681612 
L 110.352656 384.213066 
L 114.733905 383.621892 
L 119.115154 382.881336 
L 123.496403 381.960324 
L 127.877652 380.823167 
L 132.258902 379.429347 
L 136.640151 377.733434 
L 141.0214 375.68515 
L 145.402649 373.229631 
L 149.783898 370.307914 
L 154.165147 366.857699 
L 158.546396 362.814389 
L 162.927645 358.112452 
L 167.308894 352.687101 
L 171.690143 346.476287 
L 176.071392 339.422997 
L 180.452641 331.47779 
L 184.833891 322.601537 
L 189.21514 312.768266 
L 193.596389 301.968019 
L 197.977638 290.209594 
L 202.358887 277.523058 
L 206.740136 263.961863 
L 211.121385 249.604457 
L 215.502634 234.555229 
L 219.883883 218.944673 
L 224.265132 202.928691 
L 228.646381 186.686935 
L 233.02763 170.420192 
L 237.40888 154.346807 
L 241.790129 138.698202 
L 246.171378 123.713618 
L 250.552627 109.63421 
L 254.933876 96.696713 
L 259.315125 85.126885 
L 263.696374 75.132991 
L 268.077623 66.899587 
L 272.458872 60.581858 
L 276.840121 56.300755 
L 281.22137 54.139145 
L 285.60262 54.139145 
L 289.983869 56.300755 
L 294.365118 60.581858 
L 298.746367 66.899587 
L 303.127616 75.132991 
L 307.508865 85.126885 
L 311.890114 96.696713 
L 316.271363 109.63421 
L 320.652612 123.713618 
L 325.033861 138.698202 
L 329.41511 154.346807 
L 333.796359 170.420192 
L 338.177609 186.686935 
L 342.558858 202.928691 
L 346.940107 218.944673 
L 351.321356 234.555229 
L 355.702605 249.604457 
L 360.083854 263.961863 
L 364.465103 277.523058 
L 368.846352 290.209594 
L 373.227601 301.968019 
L 377.60885 312.768266 
L 381.990099 322.601537 
L 386.371348 331.47779 
L 390.752598 339.422997 
L 395.133847 346.476287 
L 399.515096 352.687101 
L 403.896345 358.112452 
L 408.277594 362.814389 
L 412.658843 366.857699 
L 417.040092 370.307914 
L 421.421341 373.229631 
L 425.80259 375.68515 
L 430.183839 377.733434 
L 434.565088 379.429347 
L 438.946337 380.823167 
L 443.327587 381.960324 
L 447.708836 382.881336 
L 452.090085 383.621892 
L 456.471334 384.213066 
L 460.852583 384.681612 
L 465.233832 385.050322 
L 469.615081 385.338408 
L 473.99633 385.56191 
L 478.377579 385.734085 
L 482.758828 385.865789 
L 487.140077 385.965831 
L 491.521327 386.041292 
L 495.902576 386.097816 
L 500.283825 386.139861 
" style="fill:none;stroke:#ff6384;stroke-linecap:square;"/>
   </g>
   <g id="line2d_2">
    <path clip-path="url(#pf719375071)" d="M 58.827273 386.139371 
L 63.189339 386.097141 
L 67.551405 386.040368 
L 71.913472 385.964575 
L 76.275538 385.864094 
L 80.637604 385.73181 
L 84.999671 385.558878 
L 89.361737 385.334393 
L 93.723803 385.04504 
L 98.085869 384.674709 
L 102.447936 384.204102 
L 106.810002 383.610328 
L 111.172068 382.866516 
L 115.534135 381.941454 
L 119.896201 380.799296 
L 124.258267 379.399346 
L 128.620334 377.695976 
L 132.9824 375.638684 
L 137.344466 373.172366 
L 141.706532 370.2378 
L 146.068599 366.772413 
L 150.430665 362.711322 
L 154.792731 357.988708 
L 159.154798 352.539497 
L 163.516864 346.301371 
L 167.87893 339.217063 
L 172.240997 331.236916 
L 176.603063 322.321628 
L 180.965129 312.445114 
L 185.327195 301.597371 
L 189.689262 289.787238 
L 194.051328 277.04491 
L 198.413394 263.424078 
L 202.775461 249.003534 
L 207.137527 233.888124 
L 211.499593 218.208919 
L 215.86166 202.122504 
L 220.223726 185.809323 
L 224.585792 169.471045 
L 228.947858 153.326975 
L 233.309925 137.609553 
L 237.671991 122.559072 
L 242.034057 108.417748 
L 246.396124 95.423357 
L 250.75819 83.802649 
L 255.120256 73.764805 
L 259.482323 65.495194 
L 263.844389 59.149682 
L 268.206455 54.849752 
L 272.568521 52.678636 
L 276.930588 52.678636 
L 281.292654 54.849752 
L 285.65472 59.149682 
L 290.016787 65.495194 
L 294.378853 73.764805 
L 298.740919 83.802649 
L 303.102986 95.423357 
L 307.465052 108.417748 
L 311.827118 122.559072 
L 316.189184 137.609553 
L 320.551251 153.326975 
L 324.913317 169.471045 
L 329.275383 185.809323 
L 333.63745 202.122504 
L 337.999516 218.208919 
L 342.361582 233.888124 
L 346.723649 249.003534 
L 351.085715 263.424078 
L 355.447781 277.04491 
L 359.809847 289.787238 
L 364.171914 301.597371 
L 368.53398 312.445114 
L 372.896046 322.321628 
L 377.258113 331.236916 
L 381.620179 339.217063 
L 385.982245 346.301371 
L 390.344312 352.539497 
L 394.706378 357.988708 
L 399.068444 362.711322 
L 403.43051 366.772413 
L 407.792577 370.2378 
L 412.154643 373.172366 
L 416.516709 375.638684 
L 420.878776 377.695976 
L 425.240842 379.399346 
L 429.602908 380.799296 
L 433.964975 381.941454 
L 438.327041 382.866516 
L 442.689107 383.610328 
L 447.051174 384.204102 
L 451.41324 384.674709 
L 455.775306 385.04504 
L 460.137372 385.334393 
L 464.499439 385.558878 
L 468.861505 385.73181 
L 473.223571 385.864094 
L 477.585638 385.964575 
L 481.947704 386.040368 
L 486.30977 386.097141 
L 490.671837 386.139371 
" style="fill:none;stroke:#36a2eb;stroke-linecap:square;"/>
   </g>
   <g id="line2d_3">
    <path clip-path="url(#pf719375071)" d="M 64.444923 386.144111 
L 68.999749 386.103667 
L 73.554576 386.049297 
L 78.109402 385.976712 
L 82.664228 385.880483 
L 87.219055 385.753798 
L 91.773881 385.588184 
L 96.328707 385.3732 
L 100.883534 385.096091 
L 105.43836 384.741433 
L 109.993186 384.290742 
L 114.548013 383.722097 
L 119.102839 383.009762 
L 123.657665 382.123849 
L 128.212491 381.030027 
L 132.767318 379.689323 
L 137.322144 378.058039 
L 141.87697 376.087812 
L 146.431797 373.725868 
L 150.986623 370.915494 
L 155.541449 367.596761 
L 160.096276 363.707535 
L 164.651102 359.184782 
L 169.205928 353.966182 
L 173.760754 347.992052 
L 178.315581 341.207552 
L 182.870407 333.565124 
L 187.425233 325.027131 
L 191.98006 315.568591 
L 196.534886 305.179924 
L 201.089712 293.869594 
L 205.644539 281.666521 
L 210.199365 268.622122 
L 214.754191 254.811855 
L 219.309018 240.336128 
L 223.863844 225.320466 
L 228.41867 209.914828 
L 232.973496 194.292019 
L 237.528323 178.645177 
L 242.083149 163.184323 
L 246.637975 148.132061 
L 251.192802 133.718516 
L 255.747628 120.175652 
L 260.302454 107.731183 
L 264.857281 96.602262 
L 269.412107 86.98922 
L 273.966933 79.069578 
L 278.521759 72.992607 
L 283.076586 68.87465 
L 287.631412 66.795416 
L 292.186238 66.795416 
L 296.741065 68.87465 
L 301.295891 72.992607 
L 305.850717 79.069578 
L 310.405544 86.98922 
L 314.96037 96.602262 
L 319.515196 107.731183 
L 324.070023 120.175652 
L 328.624849 133.718516 
L 333.179675 148.132061 
L 337.734501 163.184323 
L 342.289328 178.645177 
L 346.844154 194.292019 
L 351.39898 209.914828 
L 355.953807 225.320466 
L 360.508633 240.336128 
L 365.063459 254.811855 
L 369.618286 268.622122 
L 374.173112 281.666521 
L 378.727938 293.869594 
L 383.282764 305.179924 
L 387.837591 315.568591 
L 392.392417 325.027131 
L 396.947243 333.565124 
L 401.50207 341.207552 
L 406.056896 347.992052 
L 410.611722 353.966182 
L 415.166549 359.184782 
L 419.721375 363.707535 
L 424.276201 367.596761 
L 428.831027 370.915494 
L 433.385854 373.725868 
L 437.94068 376.087812 
L 442.495506 378.058039 
L 447.050333 379.689323 
L 451.605159 381.030027 
L 456.159985 382.123849 
L 460.714812 383.009762 
L 465.269638 383.722097 
L 469.824464 384.290742 
L 474.379291 384.741433 
L 478.934117 385.096091 
L 483.488943 385.3732 
L 488.043769 385.588184 
L 492.598596 385.753798 
L 497.153422 385.880483 
L 501.708248 385.976712 
L 506.263075 386.049297 
L 510.817901 386.103667 
L 515.372727 386.144111 
" style="fill:none;stroke:#4bc0c0;stroke-linecap:square;"/>
   </g>
   <g id="patch_3">
    <path d="M 36 402.93 
L 538.2 402.93 
" style="fill:none;stroke:#000000;stroke-linecap:square;stroke-linejoin:miter;stroke-width:0.8;"/>
   </g>
   <g id="legend_1">
    <g id="patch_4">
     <path d="M 392.788125 109.626875 
L 528.4 109.626875 
Q 531.2 109.626875 531.2 106.826875 
L 531.2 45.8 
Q 531.2 43 528.4 43 
L 392.788125 43 
Q 389.988125 43 389.988125 45.8 
L 389.988125 106.826875 
Q 389.988125 109.626875 392.788125 109.626875 
z
" style="fill:#ffffff;opacity:0.8;stroke:#cccccc;stroke-linejoin:miter;"/>
    </g>
    <g id="patch_5">
     <path d="M 395.588125 59.237813 
L 423.588125 59.237813 
L 423.588125 49.437813 
L 395.588125 49.437813 
z
" style="fill:#ff6384;opacity:0.5;stroke:#ff6384;stroke-linejoin:miter;"/>
    </g>
    <g id="text_1">
     <!-- welcome_old -->
     <defs>
      <path d="M 4.203125 54.6875 
L 13.1875 54.6875 
L 24.421875 12.015625 
L 35.59375 54.6875 
L 46.1875 54.6875 
L 57.421875 12.015625 
L 68.609375 54.6875 
L 77.59375 54.6875 
L 63.28125 0 
L 52.6875 0 
L 40.921875 44.828125 
L 29.109375 0 
L 18.5 0 
z
" id="DejaVuSans-119"/>
      <path d="M 56.203125 29.59375 
L 56.203125 25.203125 
L 14.890625 25.203125 
Q 15.484375 15.921875 20.484375 11.0625 
Q 25.484375 6.203125 34.421875 6.203125 
Q 39.59375 6.203125 44.453125 7.46875 
Q 49.3125 8.734375 54.109375 11.28125 
L 54.109375 2.78125 
Q 49.265625 0.734375 44.1875 -0.34375 
Q 39.109375 -1.421875 33.890625 -1.421875 
Q 20.796875 -1.421875 13.15625 6.1875 
Q 5.515625 13.8125 5.515625 26.8125 
Q 5.515625 40.234375 12.765625 48.109375 
Q 20.015625 56 32.328125 56 
Q 43.359375 56 49.78125 48.890625 
Q 56.203125 41.796875 56.203125 29.59375 
z
M 47.21875 32.234375 
Q 47.125 39.59375 43.09375 43.984375 
Q 39.0625 48.390625 32.421875 48.390625 
Q 24.90625 48.390625 20.390625 44.140625 
Q 15.875 39.890625 15.1875 32.171875 
z
" id="DejaVuSans-101"/>
      <path d="M 9.421875 75.984375 
L 18.40625 75.984375 
L 18.40625 0 
L 9.421875 0 
z
" id="DejaVuSans-108"/>
      <path d="M 48.78125 52.59375 
L 48.78125 44.1875 
Q 44.96875 46.296875 41.140625 47.34375 
Q 37.3125 48.390625 33.40625 48.390625 
Q 24.65625 48.390625 19.8125 42.84375 
Q 14.984375 37.3125 14.984375 27.296875 
Q 14.984375 17.28125 19.8125 11.734375 
Q 24.65625 6.203125 33.40625 6.203125 
Q 37.3125 6.203125 41.140625 7.25 
Q 44.96875 8.296875 48.78125 10.40625 
L 48.78125 2.09375 
Q 45.015625 0.34375 40.984375 -0.53125 
Q 36.96875 -1.421875 32.421875 -1.421875 
Q 20.0625 -1.421875 12.78125 6.34375 
Q 5.515625 14.109375 5.515625 27.296875 
Q 5.515625 40.671875 12.859375 48.328125 
Q 20.21875 56 33.015625 56 
Q 37.15625 56 41.109375 55.140625 
Q 45.0625 54.296875 48.78125 52.59375 
z
" id="DejaVuSans-99"/>
      <path d="M 30.609375 48.390625 
Q 23.390625 48.390625 19.1875 42.75 
Q 14.984375 37.109375 14.984375 27.296875 
Q 14.984375 17.484375 19.15625 11.84375 
Q 23.34375 6.203125 30.609375 6.203125 
Q 37.796875 6.203125 41.984375 11.859375 
Q 46.1875 17.53125 46.1875 27.296875 
Q 46.1875 37.015625 41.984375 42.703125 
Q 37.796875 48.390625 30.609375 48.390625 
z
M 30.609375 56 
Q 42.328125 56 49.015625 48.375 
Q 55.71875 40.765625 55.71875 27.296875 
Q 55.71875 13.875 49.015625 6.21875 
Q 42.328125 -1.421875 30.609375 -1.421875 
Q 18.84375 -1.421875 12.171875 6.21875 
Q 5.515625 13.875 5.515625 27.296875 
Q 5.515625 40.765625 12.171875 48.375 
Q 18.84375 56 30.609375 56 
z
" id="DejaVuSans-111"/>
      <path d="M 52 44.1875 
Q 55.375 50.25 60.0625 53.125 
Q 64.75 56 71.09375 56 
Q 79.640625 56 84.28125 50.015625 
Q 88.921875 44.046875 88.921875 33.015625 
L 88.921875 0 
L 79.890625 0 
L 79.890625 32.71875 
Q 79.890625 40.578125 77.09375 44.375 
Q 74.3125 48.1875 68.609375 48.1875 
Q 61.625 48.1875 57.5625 43.546875 
Q 53.515625 38.921875 53.515625 30.90625 
L 53.515625 0 
L 44.484375 0 
L 44.484375 32.71875 
Q 44.484375 40.625 41.703125 44.40625 
Q 38.921875 48.1875 33.109375 48.1875 
Q 26.21875 48.1875 22.15625 43.53125 
Q 18.109375 38.875 18.109375 30.90625 
L 18.109375 0 
L 9.078125 0 
L 9.078125 54.6875 
L 18.109375 54.6875 
L 18.109375 46.1875 
Q 21.1875 51.21875 25.484375 53.609375 
Q 29.78125 56 35.6875 56 
Q 41.65625 56 45.828125 52.96875 
Q 50 49.953125 52 44.1875 
z
" id="DejaVuSans-109"/>
      <path d="M 50.984375 -16.609375 
L 50.984375 -23.578125 
L -0.984375 -23.578125 
L -0.984375 -16.609375 
z
" id="DejaVuSans-95"/>
      <path d="M 45.40625 46.390625 
L 45.40625 75.984375 
L 54.390625 75.984375 
L 54.390625 0 
L 45.40625 0 
L 45.40625 8.203125 
Q 42.578125 3.328125 38.25 0.953125 
Q 33.9375 -1.421875 27.875 -1.421875 
Q 17.96875 -1.421875 11.734375 6.484375 
Q 5.515625 14.40625 5.515625 27.296875 
Q 5.515625 40.1875 11.734375 48.09375 
Q 17.96875 56 27.875 56 
Q 33.9375 56 38.25 53.625 
Q 42.578125 51.265625 45.40625 46.390625 
z
M 14.796875 27.296875 
Q 14.796875 17.390625 18.875 11.75 
Q 22.953125 6.109375 30.078125 6.109375 
Q 37.203125 6.109375 41.296875 11.75 
Q 45.40625 17.390625 45.40625 27.296875 
Q 45.40625 37.203125 41.296875 42.84375 
Q 37.203125 48.484375 30.078125 48.484375 
Q 22.953125 48.484375 18.875 42.84375 
Q 14.796875 37.203125 14.796875 27.296875 
z
" id="DejaVuSans-100"/>
     </defs>
     <g transform="translate(434.788125 59.237813)scale(0.14 -0.14)">
      <use xlink:href="#DejaVuSans-119"/>
      <use x="81.787109" xlink:href="#DejaVuSans-101"/>
      <use x="143.310547" xlink:href="#DejaVuSans-108"/>
      <use x="171.09375" xlink:href="#DejaVuSans-99"/>
      <use x="226.074219" xlink:href="#DejaVuSans-111"/>
      <use x="287.255859" xlink:href="#DejaVuSans-109"/>
      <use x="384.667969" xlink:href="#DejaVuSans-101"/>
      <use x="446.191406" xlink:href="#DejaVuSans-95"/>
      <use x="496.191406" xlink:href="#DejaVuSans-111"/>
      <use x="557.373047" xlink:href="#DejaVuSans-108"/>
      <use x="585.15625" xlink:href="#DejaVuSans-100"/>
     </g>
    </g>
    <g id="patch_6">
     <path d="M 395.588125 80.176563 
L 423.588125 80.176563 
L 423.588125 70.376563 
L 395.588125 70.376563 
z
" style="fill:#36a2eb;opacity:0.5;stroke:#36a2eb;stroke-linejoin:miter;"/>
    </g>
    <g id="text_2">
     <!-- no_welcome -->
     <defs>
      <path d="M 54.890625 33.015625 
L 54.890625 0 
L 45.90625 0 
L 45.90625 32.71875 
Q 45.90625 40.484375 42.875 44.328125 
Q 39.84375 48.1875 33.796875 48.1875 
Q 26.515625 48.1875 22.3125 43.546875 
Q 18.109375 38.921875 18.109375 30.90625 
L 18.109375 0 
L 9.078125 0 
L 9.078125 54.6875 
L 18.109375 54.6875 
L 18.109375 46.1875 
Q 21.34375 51.125 25.703125 53.5625 
Q 30.078125 56 35.796875 56 
Q 45.21875 56 50.046875 50.171875 
Q 54.890625 44.34375 54.890625 33.015625 
z
" id="DejaVuSans-110"/>
     </defs>
     <g transform="translate(434.788125 80.176563)scale(0.14 -0.14)">
      <use xlink:href="#DejaVuSans-110"/>
      <use x="63.378906" xlink:href="#DejaVuSans-111"/>
      <use x="124.560547" xlink:href="#DejaVuSans-95"/>
      <use x="174.560547" xlink:href="#DejaVuSans-119"/>
      <use x="256.347656" xlink:href="#DejaVuSans-101"/>
      <use x="317.871094" xlink:href="#DejaVuSans-108"/>
      <use x="345.654297" xlink:href="#DejaVuSans-99"/>
      <use x="400.634766" xlink:href="#DejaVuSans-111"/>
      <use x="461.816406" xlink:href="#DejaVuSans-109"/>
      <use x="559.228516" xlink:href="#DejaVuSans-101"/>
     </g>
    </g>
    <g id="patch_7">
     <path d="M 395.588125 101.115313 
L 423.588125 101.115313 
L 423.588125 91.315313 
L 395.588125 91.315313 
z
" style="fill:#4bc0c0;opacity:0.5;stroke:#4bc0c0;stroke-linejoin:miter;"/>
    </g>
    <g id="text_3">
     <!-- welcome -->
     <g transform="translate(434.788125 101.115313)scale(0.14 -0.14)">
      <use xlink:href="#DejaVuSans-119"/>
      <use x="81.787109" xlink:href="#DejaVuSans-101"/>
      <use x="143.310547" xlink:href="#DejaVuSans-108"/>
      <use x="171.09375" xlink:href="#DejaVuSans-99"/>
      <use x="226.074219" xlink:href="#DejaVuSans-111"/>
      <use x="287.255859" xlink:href="#DejaVuSans-109"/>
      <use x="384.667969" xlink:href="#DejaVuSans-101"/>
     </g>
    </g>
   </g>
  </g>
  <g id="axes_2">
   <g id="patch_8">
    <path d="M 36 525.24 
L 538.2 525.24 
L 538.2 402.93 
L 36 402.93 
z
" style="fill:none;"/>
   </g>
   <g id="patch_9">
    <path clip-path="url(#pd4866a9d45)" d="M 177.144798 519.680455 
L 389.679192 519.680455 
L 389.679192 497.442273 
L 177.144798 497.442273 
z
" style="fill:#ff6384;opacity:0.5;"/>
   </g>
   <g id="patch_10">
    <path clip-path="url(#pd4866a9d45)" d="M 168.947636 475.204091 
L 380.551473 475.204091 
L 380.551473 452.965909 
L 168.947636 452.965909 
z
" style="fill:#36a2eb;opacity:0.5;"/>
   </g>
   <g id="patch_11">
    <path clip-path="url(#pd4866a9d45)" d="M 179.431513 430.727727 
L 400.386137 430.727727 
L 400.386137 408.489545 
L 179.431513 408.489545 
z
" style="fill:#4bc0c0;opacity:0.5;"/>
   </g>
   <g id="matplotlib.axis_1">
    <g id="xtick_1">
     <g id="line2d_4">
      <defs>
       <path d="M 0 0 
L 0 3.5 
" id="mac01c87fcc" style="stroke:#000000;stroke-width:0.8;"/>
      </defs>
      <g>
       <use style="stroke:#000000;stroke-width:0.8;" x="73.347817" xlink:href="#mac01c87fcc" y="525.24"/>
      </g>
     </g>
     <g id="text_4">
      <!-- 2.5 -->
      <defs>
       <path d="M 19.1875 8.296875 
L 53.609375 8.296875 
L 53.609375 0 
L 7.328125 0 
L 7.328125 8.296875 
Q 12.9375 14.109375 22.625 23.890625 
Q 32.328125 33.6875 34.8125 36.53125 
Q 39.546875 41.84375 41.421875 45.53125 
Q 43.3125 49.21875 43.3125 52.78125 
Q 43.3125 58.59375 39.234375 62.25 
Q 35.15625 65.921875 28.609375 65.921875 
Q 23.96875 65.921875 18.8125 64.3125 
Q 13.671875 62.703125 7.8125 59.421875 
L 7.8125 69.390625 
Q 13.765625 71.78125 18.9375 73 
Q 24.125 74.21875 28.421875 74.21875 
Q 39.75 74.21875 46.484375 68.546875 
Q 53.21875 62.890625 53.21875 53.421875 
Q 53.21875 48.921875 51.53125 44.890625 
Q 49.859375 40.875 45.40625 35.40625 
Q 44.1875 33.984375 37.640625 27.21875 
Q 31.109375 20.453125 19.1875 8.296875 
z
" id="DejaVuSans-50"/>
       <path d="M 10.6875 12.40625 
L 21 12.40625 
L 21 0 
L 10.6875 0 
z
" id="DejaVuSans-46"/>
       <path d="M 10.796875 72.90625 
L 49.515625 72.90625 
L 49.515625 64.59375 
L 19.828125 64.59375 
L 19.828125 46.734375 
Q 21.96875 47.46875 24.109375 47.828125 
Q 26.265625 48.1875 28.421875 48.1875 
Q 40.625 48.1875 47.75 41.5 
Q 54.890625 34.8125 54.890625 23.390625 
Q 54.890625 11.625 47.5625 5.09375 
Q 40.234375 -1.421875 26.90625 -1.421875 
Q 22.3125 -1.421875 17.546875 -0.640625 
Q 12.796875 0.140625 7.71875 1.703125 
L 7.71875 11.625 
Q 12.109375 9.234375 16.796875 8.0625 
Q 21.484375 6.890625 26.703125 6.890625 
Q 35.15625 6.890625 40.078125 11.328125 
Q 45.015625 15.765625 45.015625 23.390625 
Q 45.015625 31 40.078125 35.4375 
Q 35.15625 39.890625 26.703125 39.890625 
Q 22.75 39.890625 18.8125 39.015625 
Q 14.890625 38.140625 10.796875 36.28125 
z
" id="DejaVuSans-53"/>
      </defs>
      <g transform="translate(62.215629 542.877813)scale(0.14 -0.14)">
       <use xlink:href="#DejaVuSans-50"/>
       <use x="63.623047" xlink:href="#DejaVuSans-46"/>
       <use x="95.410156" xlink:href="#DejaVuSans-53"/>
      </g>
     </g>
    </g>
    <g id="xtick_2">
     <g id="line2d_5">
      <g>
       <use style="stroke:#000000;stroke-width:0.8;" x="181.628321" xlink:href="#mac01c87fcc" y="525.24"/>
      </g>
     </g>
     <g id="text_5">
      <!-- 3.0 -->
      <defs>
       <path d="M 40.578125 39.3125 
Q 47.65625 37.796875 51.625 33 
Q 55.609375 28.21875 55.609375 21.1875 
Q 55.609375 10.40625 48.1875 4.484375 
Q 40.765625 -1.421875 27.09375 -1.421875 
Q 22.515625 -1.421875 17.65625 -0.515625 
Q 12.796875 0.390625 7.625 2.203125 
L 7.625 11.71875 
Q 11.71875 9.328125 16.59375 8.109375 
Q 21.484375 6.890625 26.8125 6.890625 
Q 36.078125 6.890625 40.9375 10.546875 
Q 45.796875 14.203125 45.796875 21.1875 
Q 45.796875 27.640625 41.28125 31.265625 
Q 36.765625 34.90625 28.71875 34.90625 
L 20.21875 34.90625 
L 20.21875 43.015625 
L 29.109375 43.015625 
Q 36.375 43.015625 40.234375 45.921875 
Q 44.09375 48.828125 44.09375 54.296875 
Q 44.09375 59.90625 40.109375 62.90625 
Q 36.140625 65.921875 28.71875 65.921875 
Q 24.65625 65.921875 20.015625 65.03125 
Q 15.375 64.15625 9.8125 62.3125 
L 9.8125 71.09375 
Q 15.4375 72.65625 20.34375 73.4375 
Q 25.25 74.21875 29.59375 74.21875 
Q 40.828125 74.21875 47.359375 69.109375 
Q 53.90625 64.015625 53.90625 55.328125 
Q 53.90625 49.265625 50.4375 45.09375 
Q 46.96875 40.921875 40.578125 39.3125 
z
" id="DejaVuSans-51"/>
       <path d="M 31.78125 66.40625 
Q 24.171875 66.40625 20.328125 58.90625 
Q 16.5 51.421875 16.5 36.375 
Q 16.5 21.390625 20.328125 13.890625 
Q 24.171875 6.390625 31.78125 6.390625 
Q 39.453125 6.390625 43.28125 13.890625 
Q 47.125 21.390625 47.125 36.375 
Q 47.125 51.421875 43.28125 58.90625 
Q 39.453125 66.40625 31.78125 66.40625 
z
M 31.78125 74.21875 
Q 44.046875 74.21875 50.515625 64.515625 
Q 56.984375 54.828125 56.984375 36.375 
Q 56.984375 17.96875 50.515625 8.265625 
Q 44.046875 -1.421875 31.78125 -1.421875 
Q 19.53125 -1.421875 13.0625 8.265625 
Q 6.59375 17.96875 6.59375 36.375 
Q 6.59375 54.828125 13.0625 64.515625 
Q 19.53125 74.21875 31.78125 74.21875 
z
" id="DejaVuSans-48"/>
      </defs>
      <g transform="translate(170.496133 542.877813)scale(0.14 -0.14)">
       <use xlink:href="#DejaVuSans-51"/>
       <use x="63.623047" xlink:href="#DejaVuSans-46"/>
       <use x="95.410156" xlink:href="#DejaVuSans-48"/>
      </g>
     </g>
    </g>
    <g id="xtick_3">
     <g id="line2d_6">
      <g>
       <use style="stroke:#000000;stroke-width:0.8;" x="289.908825" xlink:href="#mac01c87fcc" y="525.24"/>
      </g>
     </g>
     <g id="text_6">
      <!-- 3.5 -->
      <g transform="translate(278.776638 542.877813)scale(0.14 -0.14)">
       <use xlink:href="#DejaVuSans-51"/>
       <use x="63.623047" xlink:href="#DejaVuSans-46"/>
       <use x="95.410156" xlink:href="#DejaVuSans-53"/>
      </g>
     </g>
    </g>
    <g id="xtick_4">
     <g id="line2d_7">
      <g>
       <use style="stroke:#000000;stroke-width:0.8;" x="398.18933" xlink:href="#mac01c87fcc" y="525.24"/>
      </g>
     </g>
     <g id="text_7">
      <!-- 4.0 -->
      <defs>
       <path d="M 37.796875 64.3125 
L 12.890625 25.390625 
L 37.796875 25.390625 
z
M 35.203125 72.90625 
L 47.609375 72.90625 
L 47.609375 25.390625 
L 58.015625 25.390625 
L 58.015625 17.1875 
L 47.609375 17.1875 
L 47.609375 0 
L 37.796875 0 
L 37.796875 17.1875 
L 4.890625 17.1875 
L 4.890625 26.703125 
z
" id="DejaVuSans-52"/>
      </defs>
      <g transform="translate(387.057142 542.877813)scale(0.14 -0.14)">
       <use xlink:href="#DejaVuSans-52"/>
       <use x="63.623047" xlink:href="#DejaVuSans-46"/>
       <use x="95.410156" xlink:href="#DejaVuSans-48"/>
      </g>
     </g>
    </g>
    <g id="xtick_5">
     <g id="line2d_8">
      <g>
       <use style="stroke:#000000;stroke-width:0.8;" x="506.469834" xlink:href="#mac01c87fcc" y="525.24"/>
      </g>
     </g>
     <g id="text_8">
      <!-- 4.5 -->
      <g transform="translate(495.337646 542.877813)scale(0.14 -0.14)">
       <use xlink:href="#DejaVuSans-52"/>
       <use x="63.623047" xlink:href="#DejaVuSans-46"/>
       <use x="95.410156" xlink:href="#DejaVuSans-53"/>
      </g>
     </g>
    </g>
   </g>
   <g id="line2d_9">
    <path clip-path="url(#pd4866a9d45)" d="M 283.411995 525.24 
L 283.411995 402.93 
" style="fill:none;stroke:#ff6384;stroke-dasharray:5.55,2.4;stroke-dashoffset:0;stroke-opacity:0.8;stroke-width:1.5;"/>
   </g>
   <g id="line2d_10">
    <path clip-path="url(#pd4866a9d45)" d="M 274.749555 525.24 
L 274.749555 402.93 
" style="fill:none;stroke:#36a2eb;stroke-dasharray:5.55,2.4;stroke-dashoffset:0;stroke-opacity:0.8;stroke-width:1.5;"/>
   </g>
   <g id="line2d_11">
    <path clip-path="url(#pd4866a9d45)" d="M 289.908825 525.24 
L 289.908825 402.93 
" style="fill:none;stroke:#4bc0c0;stroke-dasharray:5.55,2.4;stroke-dashoffset:0;stroke-opacity:0.8;stroke-width:1.5;"/>
   </g>
   <g id="patch_12">
    <path d="M 36 525.24 
L 538.2 525.24 
" style="fill:none;stroke:#000000;stroke-linecap:square;stroke-linejoin:miter;stroke-width:0.8;"/>
   </g>
  </g>
 </g>
 <defs>
  <clipPath id="pf719375071">
   <rect height="366.93" width="502.2" x="36" y="36"/>
  </clipPath>
  <clipPath id="pd4866a9d45">
   <rect height="122.31" width="502.2" x="36" y="402.93"/>
  </clipPath>
 </defs>
</svg>
