<?xml version="1.0" encoding="utf-8" standalone="no"?>
<!DOCTYPE svg PUBLIC "-//W3C//DTD SVG 1.1//EN"
  "http://www.w3.org/Graphics/SVG/1.1/DTD/svg11.dtd">
<!-- Created with matplotlib (https://matplotlib.org/) -->
<svg height="581.789375pt" version="1.1" viewBox="0 0 574.2 581.789375" width="574.2pt" xmlns="http://www.w3.org/2000/svg" xmlns:xlink="http://www.w3.org/1999/xlink">
 <defs>
  <style type="text/css">
*{stroke-linecap:butt;stroke-linejoin:round;}
  </style>
 </defs>
 <g id="figure_1">
  <g id="patch_1">
   <path d="M 0 581.789375 
L 574.2 581.789375 
L 574.2 0 
L 0 0 
z
" style="fill:none;"/>
  </g>
  <g id="axes_1">
   <g id="patch_2">
    <path d="M 36 402.93 
L 538.2 402.93 
L 538.2 36 
L 36 36 
z
" style="fill:none;"/>
   </g>
   <g id="PolyCollection_1">
    <defs>
     <path d="M 58.827273 -195.538011 
L 58.827273 -195.647341 
L 62.328876 -195.688567 
L 65.83048 -195.743989 
L 69.332084 -195.81798 
L 72.833688 -195.916072 
L 76.335291 -196.04521 
L 79.836895 -196.214029 
L 83.338499 -196.433176 
L 86.840102 -196.715648 
L 90.341706 -197.077172 
L 93.84331 -197.536588 
L 97.344913 -198.116242 
L 100.846517 -198.842366 
L 104.348121 -199.745429 
L 107.849724 -200.860427 
L 111.351328 -202.227085 
L 114.852932 -203.889948 
L 118.354536 -205.898317 
L 121.856139 -208.305985 
L 125.357743 -211.170765 
L 128.859347 -214.553744 
L 132.36095 -218.51826 
L 135.862554 -223.128569 
L 139.364158 -228.448195 
L 142.865761 -234.537976 
L 146.367365 -241.453816 
L 149.868969 -249.244191 
L 153.370573 -257.947469 
L 156.872176 -267.589115 
L 160.37378 -278.178894 
L 163.875384 -289.708178 
L 167.376987 -302.147487 
L 170.878591 -315.44441 
L 174.380195 -329.522027 
L 177.881798 -344.277985 
L 181.383402 -359.584332 
L 184.885006 -375.288205 
L 188.38661 -391.213452 
L 191.888213 -407.163198 
L 195.389817 -422.923355 
L 198.891421 -438.267009 
L 202.393024 -452.959583 
L 205.894628 -466.76462 
L 209.396232 -479.449999 
L 212.897835 -490.794362 
L 216.399439 -500.593501 
L 219.901043 -508.666457 
L 223.402647 -514.86107 
L 226.90425 -519.058746 
L 230.405854 -521.178231 
L 233.907458 -521.178231 
L 237.409061 -519.058746 
L 240.910665 -514.86107 
L 244.412269 -508.666457 
L 247.913872 -500.593501 
L 251.415476 -490.794362 
L 254.91708 -479.449999 
L 258.418683 -466.76462 
L 261.920287 -452.959583 
L 265.421891 -438.267009 
L 268.923495 -422.923355 
L 272.425098 -407.163198 
L 275.926702 -391.213452 
L 279.428306 -375.288205 
L 282.929909 -359.584332 
L 286.431513 -344.277985 
L 289.933117 -329.522027 
L 293.43472 -315.44441 
L 296.936324 -302.147487 
L 300.437928 -289.708178 
L 303.939532 -278.178894 
L 307.441135 -267.589115 
L 310.942739 -257.947469 
L 314.444343 -249.244191 
L 317.945946 -241.453816 
L 321.44755 -234.537976 
L 324.949154 -228.448195 
L 328.450757 -223.128569 
L 331.952361 -218.51826 
L 335.453965 -214.553744 
L 338.955569 -211.170765 
L 342.457172 -208.305985 
L 345.958776 -205.898317 
L 349.46038 -203.889948 
L 352.961983 -202.227085 
L 356.463587 -200.860427 
L 359.965191 -199.745429 
L 363.466794 -198.842366 
L 366.968398 -198.116242 
L 370.470002 -197.536588 
L 373.971606 -197.077172 
L 377.473209 -196.715648 
L 380.974813 -196.433176 
L 384.476417 -196.214029 
L 387.97802 -196.04521 
L 391.479624 -195.916072 
L 394.981228 -195.81798 
L 398.482831 -195.743989 
L 401.984435 -195.688567 
L 405.486039 -195.647341 
L 405.486039 -195.538011 
L 405.486039 -195.538011 
L 401.984435 -195.538011 
L 398.482831 -195.538011 
L 394.981228 -195.538011 
L 391.479624 -195.538011 
L 387.97802 -195.538011 
L 384.476417 -195.538011 
L 380.974813 -195.538011 
L 377.473209 -195.538011 
L 373.971606 -195.538011 
L 370.470002 -195.538011 
L 366.968398 -195.538011 
L 363.466794 -195.538011 
L 359.965191 -195.538011 
L 356.463587 -195.538011 
L 352.961983 -195.538011 
L 349.46038 -195.538011 
L 345.958776 -195.538011 
L 342.457172 -195.538011 
L 338.955569 -195.538011 
L 335.453965 -195.538011 
L 331.952361 -195.538011 
L 328.450757 -195.538011 
L 324.949154 -195.538011 
L 321.44755 -195.538011 
L 317.945946 -195.538011 
L 314.444343 -195.538011 
L 310.942739 -195.538011 
L 307.441135 -195.538011 
L 303.939532 -195.538011 
L 300.437928 -195.538011 
L 296.936324 -195.538011 
L 293.43472 -195.538011 
L 289.933117 -195.538011 
L 286.431513 -195.538011 
L 282.929909 -195.538011 
L 279.428306 -195.538011 
L 275.926702 -195.538011 
L 272.425098 -195.538011 
L 268.923495 -195.538011 
L 265.421891 -195.538011 
L 261.920287 -195.538011 
L 258.418683 -195.538011 
L 254.91708 -195.538011 
L 251.415476 -195.538011 
L 247.913872 -195.538011 
L 244.412269 -195.538011 
L 240.910665 -195.538011 
L 237.409061 -195.538011 
L 233.907458 -195.538011 
L 230.405854 -195.538011 
L 226.90425 -195.538011 
L 223.402647 -195.538011 
L 219.901043 -195.538011 
L 216.399439 -195.538011 
L 212.897835 -195.538011 
L 209.396232 -195.538011 
L 205.894628 -195.538011 
L 202.393024 -195.538011 
L 198.891421 -195.538011 
L 195.389817 -195.538011 
L 191.888213 -195.538011 
L 188.38661 -195.538011 
L 184.885006 -195.538011 
L 181.383402 -195.538011 
L 177.881798 -195.538011 
L 174.380195 -195.538011 
L 170.878591 -195.538011 
L 167.376987 -195.538011 
L 163.875384 -195.538011 
L 160.37378 -195.538011 
L 156.872176 -195.538011 
L 153.370573 -195.538011 
L 149.868969 -195.538011 
L 146.367365 -195.538011 
L 142.865761 -195.538011 
L 139.364158 -195.538011 
L 135.862554 -195.538011 
L 132.36095 -195.538011 
L 128.859347 -195.538011 
L 125.357743 -195.538011 
L 121.856139 -195.538011 
L 118.354536 -195.538011 
L 114.852932 -195.538011 
L 111.351328 -195.538011 
L 107.849724 -195.538011 
L 104.348121 -195.538011 
L 100.846517 -195.538011 
L 97.344913 -195.538011 
L 93.84331 -195.538011 
L 90.341706 -195.538011 
L 86.840102 -195.538011 
L 83.338499 -195.538011 
L 79.836895 -195.538011 
L 76.335291 -195.538011 
L 72.833688 -195.538011 
L 69.332084 -195.538011 
L 65.83048 -195.538011 
L 62.328876 -195.538011 
L 58.827273 -195.538011 
z
" id="m17042f46ce" style="stroke:#ff6384;stroke-opacity:0.5;"/>
    </defs>
    <g clip-path="url(#pd44930eb13)">
     <use style="fill:#ff6384;fill-opacity:0.5;stroke:#ff6384;stroke-opacity:0.5;" x="0" xlink:href="#m17042f46ce" y="581.789375"/>
    </g>
   </g>
   <g id="PolyCollection_2">
    <defs>
     <path d="M 176.95766 -195.538011 
L 176.95766 -195.650004 
L 180.375994 -195.692234 
L 183.794328 -195.749007 
L 187.212662 -195.8248 
L 190.630996 -195.925281 
L 194.04933 -196.057565 
L 197.467664 -196.230497 
L 200.885998 -196.454982 
L 204.304332 -196.744335 
L 207.722666 -197.114666 
L 211.141001 -197.585273 
L 214.559335 -198.179047 
L 217.977669 -198.922859 
L 221.396003 -199.847921 
L 224.814337 -200.990079 
L 228.232671 -202.390029 
L 231.651005 -204.093399 
L 235.069339 -206.150691 
L 238.487673 -208.617009 
L 241.906007 -211.551575 
L 245.324341 -215.016962 
L 248.742675 -219.078053 
L 252.161009 -223.800667 
L 255.579343 -229.249878 
L 258.997677 -235.488004 
L 262.416011 -242.572312 
L 265.834345 -250.552459 
L 269.252679 -259.467747 
L 272.671013 -269.344261 
L 276.089347 -280.192004 
L 279.507681 -292.002137 
L 282.926015 -304.744465 
L 286.344349 -318.365297 
L 289.762683 -332.785841 
L 293.181017 -347.901251 
L 296.599351 -363.580456 
L 300.017685 -379.666871 
L 303.436019 -395.980052 
L 306.854353 -412.31833 
L 310.272687 -428.4624 
L 313.691021 -444.179822 
L 317.109355 -459.230303 
L 320.527689 -473.371627 
L 323.946023 -486.366018 
L 327.364357 -497.986726 
L 330.782691 -508.02457 
L 334.201025 -516.294181 
L 337.619359 -522.639693 
L 341.037693 -526.939623 
L 344.456027 -529.110739 
L 347.874361 -529.110739 
L 351.292695 -526.939623 
L 354.711029 -522.639693 
L 358.129363 -516.294181 
L 361.547697 -508.02457 
L 364.966031 -497.986726 
L 368.384365 -486.366018 
L 371.802699 -473.371627 
L 375.221033 -459.230303 
L 378.639367 -444.179822 
L 382.057701 -428.4624 
L 385.476035 -412.31833 
L 388.894369 -395.980052 
L 392.312703 -379.666871 
L 395.731037 -363.580456 
L 399.149371 -347.901251 
L 402.567705 -332.785841 
L 405.986039 -318.365297 
L 409.404373 -304.744465 
L 412.822707 -292.002137 
L 416.241041 -280.192004 
L 419.659375 -269.344261 
L 423.077709 -259.467747 
L 426.496043 -250.552459 
L 429.914377 -242.572312 
L 433.332711 -235.488004 
L 436.751045 -229.249878 
L 440.169379 -223.800667 
L 443.587713 -219.078053 
L 447.006047 -215.016962 
L 450.424381 -211.551575 
L 453.842715 -208.617009 
L 457.261049 -206.150691 
L 460.679383 -204.093399 
L 464.097717 -202.390029 
L 467.516051 -200.990079 
L 470.934385 -199.847921 
L 474.352719 -198.922859 
L 477.771053 -198.179047 
L 481.189387 -197.585273 
L 484.607721 -197.114666 
L 488.026055 -196.744335 
L 491.444389 -196.454982 
L 494.862723 -196.230497 
L 498.281057 -196.057565 
L 501.699391 -195.925281 
L 505.117725 -195.8248 
L 508.536059 -195.749007 
L 511.954393 -195.692234 
L 515.372727 -195.650004 
L 515.372727 -195.538011 
L 515.372727 -195.538011 
L 511.954393 -195.538011 
L 508.536059 -195.538011 
L 505.117725 -195.538011 
L 501.699391 -195.538011 
L 498.281057 -195.538011 
L 494.862723 -195.538011 
L 491.444389 -195.538011 
L 488.026055 -195.538011 
L 484.607721 -195.538011 
L 481.189387 -195.538011 
L 477.771053 -195.538011 
L 474.352719 -195.538011 
L 470.934385 -195.538011 
L 467.516051 -195.538011 
L 464.097717 -195.538011 
L 460.679383 -195.538011 
L 457.261049 -195.538011 
L 453.842715 -195.538011 
L 450.424381 -195.538011 
L 447.006047 -195.538011 
L 443.587713 -195.538011 
L 440.169379 -195.538011 
L 436.751045 -195.538011 
L 433.332711 -195.538011 
L 429.914377 -195.538011 
L 426.496043 -195.538011 
L 423.077709 -195.538011 
L 419.659375 -195.538011 
L 416.241041 -195.538011 
L 412.822707 -195.538011 
L 409.404373 -195.538011 
L 405.986039 -195.538011 
L 402.567705 -195.538011 
L 399.149371 -195.538011 
L 395.731037 -195.538011 
L 392.312703 -195.538011 
L 388.894369 -195.538011 
L 385.476035 -195.538011 
L 382.057701 -195.538011 
L 378.639367 -195.538011 
L 375.221033 -195.538011 
L 371.802699 -195.538011 
L 368.384365 -195.538011 
L 364.966031 -195.538011 
L 361.547697 -195.538011 
L 358.129363 -195.538011 
L 354.711029 -195.538011 
L 351.292695 -195.538011 
L 347.874361 -195.538011 
L 344.456027 -195.538011 
L 341.037693 -195.538011 
L 337.619359 -195.538011 
L 334.201025 -195.538011 
L 330.782691 -195.538011 
L 327.364357 -195.538011 
L 323.946023 -195.538011 
L 320.527689 -195.538011 
L 317.109355 -195.538011 
L 313.691021 -195.538011 
L 310.272687 -195.538011 
L 306.854353 -195.538011 
L 303.436019 -195.538011 
L 300.017685 -195.538011 
L 296.599351 -195.538011 
L 293.181017 -195.538011 
L 289.762683 -195.538011 
L 286.344349 -195.538011 
L 282.926015 -195.538011 
L 279.507681 -195.538011 
L 276.089347 -195.538011 
L 272.671013 -195.538011 
L 269.252679 -195.538011 
L 265.834345 -195.538011 
L 262.416011 -195.538011 
L 258.997677 -195.538011 
L 255.579343 -195.538011 
L 252.161009 -195.538011 
L 248.742675 -195.538011 
L 245.324341 -195.538011 
L 241.906007 -195.538011 
L 238.487673 -195.538011 
L 235.069339 -195.538011 
L 231.651005 -195.538011 
L 228.232671 -195.538011 
L 224.814337 -195.538011 
L 221.396003 -195.538011 
L 217.977669 -195.538011 
L 214.559335 -195.538011 
L 211.141001 -195.538011 
L 207.722666 -195.538011 
L 204.304332 -195.538011 
L 200.885998 -195.538011 
L 197.467664 -195.538011 
L 194.04933 -195.538011 
L 190.630996 -195.538011 
L 187.212662 -195.538011 
L 183.794328 -195.538011 
L 180.375994 -195.538011 
L 176.95766 -195.538011 
z
" id="mf051815aa0" style="stroke:#36a2eb;stroke-opacity:0.5;"/>
    </defs>
    <g clip-path="url(#pd44930eb13)">
     <use style="fill:#36a2eb;fill-opacity:0.5;stroke:#36a2eb;stroke-opacity:0.5;" x="0" xlink:href="#mf051815aa0" y="581.789375"/>
    </g>
   </g>
   <g id="line2d_1">
    <path clip-path="url(#pd44930eb13)" d="M 58.827273 386.142034 
L 62.328876 386.100808 
L 65.83048 386.045386 
L 69.332084 385.971395 
L 72.833688 385.873303 
L 76.335291 385.744165 
L 79.836895 385.575346 
L 83.338499 385.356199 
L 86.840102 385.073727 
L 90.341706 384.712203 
L 93.84331 384.252787 
L 97.344913 383.673133 
L 100.846517 382.947009 
L 104.348121 382.043946 
L 107.849724 380.928948 
L 111.351328 379.56229 
L 114.852932 377.899427 
L 118.354536 375.891058 
L 121.856139 373.48339 
L 125.357743 370.61861 
L 128.859347 367.235631 
L 132.36095 363.271115 
L 135.862554 358.660806 
L 139.364158 353.34118 
L 142.865761 347.251399 
L 146.367365 340.335559 
L 149.868969 332.545184 
L 153.370573 323.841906 
L 156.872176 314.20026 
L 160.37378 303.610481 
L 163.875384 292.081197 
L 167.376987 279.641888 
L 170.878591 266.344965 
L 174.380195 252.267348 
L 177.881798 237.51139 
L 181.383402 222.205043 
L 184.885006 206.50117 
L 188.38661 190.575923 
L 191.888213 174.626177 
L 195.389817 158.86602 
L 198.891421 143.522366 
L 202.393024 128.829792 
L 205.894628 115.024755 
L 209.396232 102.339376 
L 212.897835 90.995013 
L 216.399439 81.195874 
L 219.901043 73.122918 
L 223.402647 66.928305 
L 226.90425 62.730629 
L 230.405854 60.611144 
L 233.907458 60.611144 
L 237.409061 62.730629 
L 240.910665 66.928305 
L 244.412269 73.122918 
L 247.913872 81.195874 
L 251.415476 90.995013 
L 254.91708 102.339376 
L 258.418683 115.024755 
L 261.920287 128.829792 
L 265.421891 143.522366 
L 268.923495 158.86602 
L 272.425098 174.626177 
L 275.926702 190.575923 
L 279.428306 206.50117 
L 282.929909 222.205043 
L 286.431513 237.51139 
L 289.933117 252.267348 
L 293.43472 266.344965 
L 296.936324 279.641888 
L 300.437928 292.081197 
L 303.939532 303.610481 
L 307.441135 314.20026 
L 310.942739 323.841906 
L 314.444343 332.545184 
L 317.945946 340.335559 
L 321.44755 347.251399 
L 324.949154 353.34118 
L 328.450757 358.660806 
L 331.952361 363.271115 
L 335.453965 367.235631 
L 338.955569 370.61861 
L 342.457172 373.48339 
L 345.958776 375.891058 
L 349.46038 377.899427 
L 352.961983 379.56229 
L 356.463587 380.928948 
L 359.965191 382.043946 
L 363.466794 382.947009 
L 366.968398 383.673133 
L 370.470002 384.252787 
L 373.971606 384.712203 
L 377.473209 385.073727 
L 380.974813 385.356199 
L 384.476417 385.575346 
L 387.97802 385.744165 
L 391.479624 385.873303 
L 394.981228 385.971395 
L 398.482831 386.045386 
L 401.984435 386.100808 
L 405.486039 386.142034 
" style="fill:none;stroke:#ff6384;stroke-linecap:square;"/>
   </g>
   <g id="line2d_2">
    <path clip-path="url(#pd44930eb13)" d="M 176.95766 386.139371 
L 180.375994 386.097141 
L 183.794328 386.040368 
L 187.212662 385.964575 
L 190.630996 385.864094 
L 194.04933 385.73181 
L 197.467664 385.558878 
L 200.885998 385.334393 
L 204.304332 385.04504 
L 207.722666 384.674709 
L 211.141001 384.204102 
L 214.559335 383.610328 
L 217.977669 382.866516 
L 221.396003 381.941454 
L 224.814337 380.799296 
L 228.232671 379.399346 
L 231.651005 377.695976 
L 235.069339 375.638684 
L 238.487673 373.172366 
L 241.906007 370.2378 
L 245.324341 366.772413 
L 248.742675 362.711322 
L 252.161009 357.988708 
L 255.579343 352.539497 
L 258.997677 346.301371 
L 262.416011 339.217063 
L 265.834345 331.236916 
L 269.252679 322.321628 
L 272.671013 312.445114 
L 276.089347 301.597371 
L 279.507681 289.787238 
L 282.926015 277.04491 
L 286.344349 263.424078 
L 289.762683 249.003534 
L 293.181017 233.888124 
L 296.599351 218.208919 
L 300.017685 202.122504 
L 303.436019 185.809323 
L 306.854353 169.471045 
L 310.272687 153.326975 
L 313.691021 137.609553 
L 317.109355 122.559072 
L 320.527689 108.417748 
L 323.946023 95.423357 
L 327.364357 83.802649 
L 330.782691 73.764805 
L 334.201025 65.495194 
L 337.619359 59.149682 
L 341.037693 54.849752 
L 344.456027 52.678636 
L 347.874361 52.678636 
L 351.292695 54.849752 
L 354.711029 59.149682 
L 358.129363 65.495194 
L 361.547697 73.764805 
L 364.966031 83.802649 
L 368.384365 95.423357 
L 371.802699 108.417748 
L 375.221033 122.559072 
L 378.639367 137.609553 
L 382.057701 153.326975 
L 385.476035 169.471045 
L 388.894369 185.809323 
L 392.312703 202.122504 
L 395.731037 218.208919 
L 399.149371 233.888124 
L 402.567705 249.003534 
L 405.986039 263.424078 
L 409.404373 277.04491 
L 412.822707 289.787238 
L 416.241041 301.597371 
L 419.659375 312.445114 
L 423.077709 322.321628 
L 426.496043 331.236916 
L 429.914377 339.217063 
L 433.332711 346.301371 
L 436.751045 352.539497 
L 440.169379 357.988708 
L 443.587713 362.711322 
L 447.006047 366.772413 
L 450.424381 370.2378 
L 453.842715 373.172366 
L 457.261049 375.638684 
L 460.679383 377.695976 
L 464.097717 379.399346 
L 467.516051 380.799296 
L 470.934385 381.941454 
L 474.352719 382.866516 
L 477.771053 383.610328 
L 481.189387 384.204102 
L 484.607721 384.674709 
L 488.026055 385.04504 
L 491.444389 385.334393 
L 494.862723 385.558878 
L 498.281057 385.73181 
L 501.699391 385.864094 
L 505.117725 385.964575 
L 508.536059 386.040368 
L 511.954393 386.097141 
L 515.372727 386.139371 
" style="fill:none;stroke:#36a2eb;stroke-linecap:square;"/>
   </g>
   <g id="patch_3">
    <path d="M 36 402.93 
L 538.2 402.93 
" style="fill:none;stroke:#000000;stroke-linecap:square;stroke-linejoin:miter;stroke-width:0.8;"/>
   </g>
   <g id="legend_1">
    <g id="patch_4">
     <path d="M 378.11875 88.688125 
L 528.4 88.688125 
Q 531.2 88.688125 531.2 85.888125 
L 531.2 45.8 
Q 531.2 43 528.4 43 
L 378.11875 43 
Q 375.31875 43 375.31875 45.8 
L 375.31875 85.888125 
Q 375.31875 88.688125 378.11875 88.688125 
z
" style="fill:#ffffff;opacity:0.8;stroke:#cccccc;stroke-linejoin:miter;"/>
    </g>
    <g id="patch_5">
     <path d="M 380.91875 59.237813 
L 408.91875 59.237813 
L 408.91875 49.437813 
L 380.91875 49.437813 
z
" style="fill:#ff6384;opacity:0.5;stroke:#ff6384;stroke-linejoin:miter;"/>
    </g>
    <g id="text_1">
     <!-- base -->
     <defs>
      <path d="M 48.6875 27.296875 
Q 48.6875 37.203125 44.609375 42.84375 
Q 40.53125 48.484375 33.40625 48.484375 
Q 26.265625 48.484375 22.1875 42.84375 
Q 18.109375 37.203125 18.109375 27.296875 
Q 18.109375 17.390625 22.1875 11.75 
Q 26.265625 6.109375 33.40625 6.109375 
Q 40.53125 6.109375 44.609375 11.75 
Q 48.6875 17.390625 48.6875 27.296875 
z
M 18.109375 46.390625 
Q 20.953125 51.265625 25.265625 53.625 
Q 29.59375 56 35.59375 56 
Q 45.5625 56 51.78125 48.09375 
Q 58.015625 40.1875 58.015625 27.296875 
Q 58.015625 14.40625 51.78125 6.484375 
Q 45.5625 -1.421875 35.59375 -1.421875 
Q 29.59375 -1.421875 25.265625 0.953125 
Q 20.953125 3.328125 18.109375 8.203125 
L 18.109375 0 
L 9.078125 0 
L 9.078125 75.984375 
L 18.109375 75.984375 
z
" id="DejaVuSans-98"/>
      <path d="M 34.28125 27.484375 
Q 23.390625 27.484375 19.1875 25 
Q 14.984375 22.515625 14.984375 16.5 
Q 14.984375 11.71875 18.140625 8.90625 
Q 21.296875 6.109375 26.703125 6.109375 
Q 34.1875 6.109375 38.703125 11.40625 
Q 43.21875 16.703125 43.21875 25.484375 
L 43.21875 27.484375 
z
M 52.203125 31.203125 
L 52.203125 0 
L 43.21875 0 
L 43.21875 8.296875 
Q 40.140625 3.328125 35.546875 0.953125 
Q 30.953125 -1.421875 24.3125 -1.421875 
Q 15.921875 -1.421875 10.953125 3.296875 
Q 6 8.015625 6 15.921875 
Q 6 25.140625 12.171875 29.828125 
Q 18.359375 34.515625 30.609375 34.515625 
L 43.21875 34.515625 
L 43.21875 35.40625 
Q 43.21875 41.609375 39.140625 45 
Q 35.0625 48.390625 27.6875 48.390625 
Q 23 48.390625 18.546875 47.265625 
Q 14.109375 46.140625 10.015625 43.890625 
L 10.015625 52.203125 
Q 14.9375 54.109375 19.578125 55.046875 
Q 24.21875 56 28.609375 56 
Q 40.484375 56 46.34375 49.84375 
Q 52.203125 43.703125 52.203125 31.203125 
z
" id="DejaVuSans-97"/>
      <path d="M 44.28125 53.078125 
L 44.28125 44.578125 
Q 40.484375 46.53125 36.375 47.5 
Q 32.28125 48.484375 27.875 48.484375 
Q 21.1875 48.484375 17.84375 46.4375 
Q 14.5 44.390625 14.5 40.28125 
Q 14.5 37.15625 16.890625 35.375 
Q 19.28125 33.59375 26.515625 31.984375 
L 29.59375 31.296875 
Q 39.15625 29.25 43.1875 25.515625 
Q 47.21875 21.78125 47.21875 15.09375 
Q 47.21875 7.46875 41.1875 3.015625 
Q 35.15625 -1.421875 24.609375 -1.421875 
Q 20.21875 -1.421875 15.453125 -0.5625 
Q 10.6875 0.296875 5.421875 2 
L 5.421875 11.28125 
Q 10.40625 8.6875 15.234375 7.390625 
Q 20.0625 6.109375 24.8125 6.109375 
Q 31.15625 6.109375 34.5625 8.28125 
Q 37.984375 10.453125 37.984375 14.40625 
Q 37.984375 18.0625 35.515625 20.015625 
Q 33.0625 21.96875 24.703125 23.78125 
L 21.578125 24.515625 
Q 13.234375 26.265625 9.515625 29.90625 
Q 5.8125 33.546875 5.8125 39.890625 
Q 5.8125 47.609375 11.28125 51.796875 
Q 16.75 56 26.8125 56 
Q 31.78125 56 36.171875 55.265625 
Q 40.578125 54.546875 44.28125 53.078125 
z
" id="DejaVuSans-115"/>
      <path d="M 56.203125 29.59375 
L 56.203125 25.203125 
L 14.890625 25.203125 
Q 15.484375 15.921875 20.484375 11.0625 
Q 25.484375 6.203125 34.421875 6.203125 
Q 39.59375 6.203125 44.453125 7.46875 
Q 49.3125 8.734375 54.109375 11.28125 
L 54.109375 2.78125 
Q 49.265625 0.734375 44.1875 -0.34375 
Q 39.109375 -1.421875 33.890625 -1.421875 
Q 20.796875 -1.421875 13.15625 6.1875 
Q 5.515625 13.8125 5.515625 26.8125 
Q 5.515625 40.234375 12.765625 48.109375 
Q 20.015625 56 32.328125 56 
Q 43.359375 56 49.78125 48.890625 
Q 56.203125 41.796875 56.203125 29.59375 
z
M 47.21875 32.234375 
Q 47.125 39.59375 43.09375 43.984375 
Q 39.0625 48.390625 32.421875 48.390625 
Q 24.90625 48.390625 20.390625 44.140625 
Q 15.875 39.890625 15.1875 32.171875 
z
" id="DejaVuSans-101"/>
     </defs>
     <g transform="translate(420.11875 59.237813)scale(0.14 -0.14)">
      <use xlink:href="#DejaVuSans-98"/>
      <use x="63.476562" xlink:href="#DejaVuSans-97"/>
      <use x="124.755859" xlink:href="#DejaVuSans-115"/>
      <use x="176.855469" xlink:href="#DejaVuSans-101"/>
     </g>
    </g>
    <g id="patch_6">
     <path d="M 380.91875 79.787188 
L 408.91875 79.787188 
L 408.91875 69.987188 
L 380.91875 69.987188 
z
" style="fill:#36a2eb;opacity:0.5;stroke:#36a2eb;stroke-linejoin:miter;"/>
    </g>
    <g id="text_2">
     <!-- no_information -->
     <defs>
      <path d="M 54.890625 33.015625 
L 54.890625 0 
L 45.90625 0 
L 45.90625 32.71875 
Q 45.90625 40.484375 42.875 44.328125 
Q 39.84375 48.1875 33.796875 48.1875 
Q 26.515625 48.1875 22.3125 43.546875 
Q 18.109375 38.921875 18.109375 30.90625 
L 18.109375 0 
L 9.078125 0 
L 9.078125 54.6875 
L 18.109375 54.6875 
L 18.109375 46.1875 
Q 21.34375 51.125 25.703125 53.5625 
Q 30.078125 56 35.796875 56 
Q 45.21875 56 50.046875 50.171875 
Q 54.890625 44.34375 54.890625 33.015625 
z
" id="DejaVuSans-110"/>
      <path d="M 30.609375 48.390625 
Q 23.390625 48.390625 19.1875 42.75 
Q 14.984375 37.109375 14.984375 27.296875 
Q 14.984375 17.484375 19.15625 11.84375 
Q 23.34375 6.203125 30.609375 6.203125 
Q 37.796875 6.203125 41.984375 11.859375 
Q 46.1875 17.53125 46.1875 27.296875 
Q 46.1875 37.015625 41.984375 42.703125 
Q 37.796875 48.390625 30.609375 48.390625 
z
M 30.609375 56 
Q 42.328125 56 49.015625 48.375 
Q 55.71875 40.765625 55.71875 27.296875 
Q 55.71875 13.875 49.015625 6.21875 
Q 42.328125 -1.421875 30.609375 -1.421875 
Q 18.84375 -1.421875 12.171875 6.21875 
Q 5.515625 13.875 5.515625 27.296875 
Q 5.515625 40.765625 12.171875 48.375 
Q 18.84375 56 30.609375 56 
z
" id="DejaVuSans-111"/>
      <path d="M 50.984375 -16.609375 
L 50.984375 -23.578125 
L -0.984375 -23.578125 
L -0.984375 -16.609375 
z
" id="DejaVuSans-95"/>
      <path d="M 9.421875 54.6875 
L 18.40625 54.6875 
L 18.40625 0 
L 9.421875 0 
z
M 9.421875 75.984375 
L 18.40625 75.984375 
L 18.40625 64.59375 
L 9.421875 64.59375 
z
" id="DejaVuSans-105"/>
      <path d="M 37.109375 75.984375 
L 37.109375 68.5 
L 28.515625 68.5 
Q 23.6875 68.5 21.796875 66.546875 
Q 19.921875 64.59375 19.921875 59.515625 
L 19.921875 54.6875 
L 34.71875 54.6875 
L 34.71875 47.703125 
L 19.921875 47.703125 
L 19.921875 0 
L 10.890625 0 
L 10.890625 47.703125 
L 2.296875 47.703125 
L 2.296875 54.6875 
L 10.890625 54.6875 
L 10.890625 58.5 
Q 10.890625 67.625 15.140625 71.796875 
Q 19.390625 75.984375 28.609375 75.984375 
z
" id="DejaVuSans-102"/>
      <path d="M 41.109375 46.296875 
Q 39.59375 47.171875 37.8125 47.578125 
Q 36.03125 48 33.890625 48 
Q 26.265625 48 22.1875 43.046875 
Q 18.109375 38.09375 18.109375 28.8125 
L 18.109375 0 
L 9.078125 0 
L 9.078125 54.6875 
L 18.109375 54.6875 
L 18.109375 46.1875 
Q 20.953125 51.171875 25.484375 53.578125 
Q 30.03125 56 36.53125 56 
Q 37.453125 56 38.578125 55.875 
Q 39.703125 55.765625 41.0625 55.515625 
z
" id="DejaVuSans-114"/>
      <path d="M 52 44.1875 
Q 55.375 50.25 60.0625 53.125 
Q 64.75 56 71.09375 56 
Q 79.640625 56 84.28125 50.015625 
Q 88.921875 44.046875 88.921875 33.015625 
L 88.921875 0 
L 79.890625 0 
L 79.890625 32.71875 
Q 79.890625 40.578125 77.09375 44.375 
Q 74.3125 48.1875 68.609375 48.1875 
Q 61.625 48.1875 57.5625 43.546875 
Q 53.515625 38.921875 53.515625 30.90625 
L 53.515625 0 
L 44.484375 0 
L 44.484375 32.71875 
Q 44.484375 40.625 41.703125 44.40625 
Q 38.921875 48.1875 33.109375 48.1875 
Q 26.21875 48.1875 22.15625 43.53125 
Q 18.109375 38.875 18.109375 30.90625 
L 18.109375 0 
L 9.078125 0 
L 9.078125 54.6875 
L 18.109375 54.6875 
L 18.109375 46.1875 
Q 21.1875 51.21875 25.484375 53.609375 
Q 29.78125 56 35.6875 56 
Q 41.65625 56 45.828125 52.96875 
Q 50 49.953125 52 44.1875 
z
" id="DejaVuSans-109"/>
      <path d="M 18.3125 70.21875 
L 18.3125 54.6875 
L 36.8125 54.6875 
L 36.8125 47.703125 
L 18.3125 47.703125 
L 18.3125 18.015625 
Q 18.3125 11.328125 20.140625 9.421875 
Q 21.96875 7.515625 27.59375 7.515625 
L 36.8125 7.515625 
L 36.8125 0 
L 27.59375 0 
Q 17.1875 0 13.234375 3.875 
Q 9.28125 7.765625 9.28125 18.015625 
L 9.28125 47.703125 
L 2.6875 47.703125 
L 2.6875 54.6875 
L 9.28125 54.6875 
L 9.28125 70.21875 
z
" id="DejaVuSans-116"/>
     </defs>
     <g transform="translate(420.11875 79.787188)scale(0.14 -0.14)">
      <use xlink:href="#DejaVuSans-110"/>
      <use x="63.378906" xlink:href="#DejaVuSans-111"/>
      <use x="124.560547" xlink:href="#DejaVuSans-95"/>
      <use x="174.560547" xlink:href="#DejaVuSans-105"/>
      <use x="202.34375" xlink:href="#DejaVuSans-110"/>
      <use x="265.722656" xlink:href="#DejaVuSans-102"/>
      <use x="300.927734" xlink:href="#DejaVuSans-111"/>
      <use x="362.109375" xlink:href="#DejaVuSans-114"/>
      <use x="403.207031" xlink:href="#DejaVuSans-109"/>
      <use x="500.619141" xlink:href="#DejaVuSans-97"/>
      <use x="561.898438" xlink:href="#DejaVuSans-116"/>
      <use x="601.107422" xlink:href="#DejaVuSans-105"/>
      <use x="628.890625" xlink:href="#DejaVuSans-111"/>
      <use x="690.072266" xlink:href="#DejaVuSans-110"/>
     </g>
    </g>
   </g>
  </g>
  <g id="axes_2">
   <g id="patch_7">
    <path d="M 36 525.24 
L 538.2 525.24 
L 538.2 402.93 
L 36 402.93 
z
" style="fill:none;"/>
   </g>
   <g id="patch_8">
    <path clip-path="url(#p06a0d9a942)" d="M 147.225258 519.680455 
L 317.088053 519.680455 
L 317.088053 482.616818 
L 147.225258 482.616818 
z
" style="fill:#ff6384;opacity:0.5;"/>
   </g>
   <g id="patch_9">
    <path clip-path="url(#p06a0d9a942)" d="M 263.253502 445.553182 
L 429.076885 445.553182 
L 429.076885 408.489545 
L 263.253502 408.489545 
z
" style="fill:#36a2eb;opacity:0.5;"/>
   </g>
   <g id="matplotlib.axis_1">
    <g id="xtick_1">
     <g id="line2d_3">
      <defs>
       <path d="M 0 0 
L 0 3.5 
" id="m28d631f5ed" style="stroke:#000000;stroke-width:0.8;"/>
      </defs>
      <g>
       <use style="stroke:#000000;stroke-width:0.8;" x="70.266697" xlink:href="#m28d631f5ed" y="525.24"/>
      </g>
     </g>
     <g id="text_3">
      <!-- 10.0 -->
      <defs>
       <path d="M 12.40625 8.296875 
L 28.515625 8.296875 
L 28.515625 63.921875 
L 10.984375 60.40625 
L 10.984375 69.390625 
L 28.421875 72.90625 
L 38.28125 72.90625 
L 38.28125 8.296875 
L 54.390625 8.296875 
L 54.390625 0 
L 12.40625 0 
z
" id="DejaVuSans-49"/>
       <path d="M 31.78125 66.40625 
Q 24.171875 66.40625 20.328125 58.90625 
Q 16.5 51.421875 16.5 36.375 
Q 16.5 21.390625 20.328125 13.890625 
Q 24.171875 6.390625 31.78125 6.390625 
Q 39.453125 6.390625 43.28125 13.890625 
Q 47.125 21.390625 47.125 36.375 
Q 47.125 51.421875 43.28125 58.90625 
Q 39.453125 66.40625 31.78125 66.40625 
z
M 31.78125 74.21875 
Q 44.046875 74.21875 50.515625 64.515625 
Q 56.984375 54.828125 56.984375 36.375 
Q 56.984375 17.96875 50.515625 8.265625 
Q 44.046875 -1.421875 31.78125 -1.421875 
Q 19.53125 -1.421875 13.0625 8.265625 
Q 6.59375 17.96875 6.59375 36.375 
Q 6.59375 54.828125 13.0625 64.515625 
Q 19.53125 74.21875 31.78125 74.21875 
z
" id="DejaVuSans-48"/>
       <path d="M 10.6875 12.40625 
L 21 12.40625 
L 21 0 
L 10.6875 0 
z
" id="DejaVuSans-46"/>
      </defs>
      <g transform="translate(54.680759 542.877813)scale(0.14 -0.14)">
       <use xlink:href="#DejaVuSans-49"/>
       <use x="63.623047" xlink:href="#DejaVuSans-48"/>
       <use x="127.246094" xlink:href="#DejaVuSans-46"/>
       <use x="159.033203" xlink:href="#DejaVuSans-48"/>
      </g>
     </g>
    </g>
    <g id="xtick_2">
     <g id="line2d_4">
      <g>
       <use style="stroke:#000000;stroke-width:0.8;" x="130.404126" xlink:href="#m28d631f5ed" y="525.24"/>
      </g>
     </g>
     <g id="text_4">
      <!-- 10.5 -->
      <defs>
       <path d="M 10.796875 72.90625 
L 49.515625 72.90625 
L 49.515625 64.59375 
L 19.828125 64.59375 
L 19.828125 46.734375 
Q 21.96875 47.46875 24.109375 47.828125 
Q 26.265625 48.1875 28.421875 48.1875 
Q 40.625 48.1875 47.75 41.5 
Q 54.890625 34.8125 54.890625 23.390625 
Q 54.890625 11.625 47.5625 5.09375 
Q 40.234375 -1.421875 26.90625 -1.421875 
Q 22.3125 -1.421875 17.546875 -0.640625 
Q 12.796875 0.140625 7.71875 1.703125 
L 7.71875 11.625 
Q 12.109375 9.234375 16.796875 8.0625 
Q 21.484375 6.890625 26.703125 6.890625 
Q 35.15625 6.890625 40.078125 11.328125 
Q 45.015625 15.765625 45.015625 23.390625 
Q 45.015625 31 40.078125 35.4375 
Q 35.15625 39.890625 26.703125 39.890625 
Q 22.75 39.890625 18.8125 39.015625 
Q 14.890625 38.140625 10.796875 36.28125 
z
" id="DejaVuSans-53"/>
      </defs>
      <g transform="translate(114.818188 542.877813)scale(0.14 -0.14)">
       <use xlink:href="#DejaVuSans-49"/>
       <use x="63.623047" xlink:href="#DejaVuSans-48"/>
       <use x="127.246094" xlink:href="#DejaVuSans-46"/>
       <use x="159.033203" xlink:href="#DejaVuSans-53"/>
      </g>
     </g>
    </g>
    <g id="xtick_3">
     <g id="line2d_5">
      <g>
       <use style="stroke:#000000;stroke-width:0.8;" x="190.541555" xlink:href="#m28d631f5ed" y="525.24"/>
      </g>
     </g>
     <g id="text_5">
      <!-- 11.0 -->
      <g transform="translate(174.955617 542.877813)scale(0.14 -0.14)">
       <use xlink:href="#DejaVuSans-49"/>
       <use x="63.623047" xlink:href="#DejaVuSans-49"/>
       <use x="127.246094" xlink:href="#DejaVuSans-46"/>
       <use x="159.033203" xlink:href="#DejaVuSans-48"/>
      </g>
     </g>
    </g>
    <g id="xtick_4">
     <g id="line2d_6">
      <g>
       <use style="stroke:#000000;stroke-width:0.8;" x="250.678984" xlink:href="#m28d631f5ed" y="525.24"/>
      </g>
     </g>
     <g id="text_6">
      <!-- 11.5 -->
      <g transform="translate(235.093046 542.877813)scale(0.14 -0.14)">
       <use xlink:href="#DejaVuSans-49"/>
       <use x="63.623047" xlink:href="#DejaVuSans-49"/>
       <use x="127.246094" xlink:href="#DejaVuSans-46"/>
       <use x="159.033203" xlink:href="#DejaVuSans-53"/>
      </g>
     </g>
    </g>
    <g id="xtick_5">
     <g id="line2d_7">
      <g>
       <use style="stroke:#000000;stroke-width:0.8;" x="310.816413" xlink:href="#m28d631f5ed" y="525.24"/>
      </g>
     </g>
     <g id="text_7">
      <!-- 12.0 -->
      <defs>
       <path d="M 19.1875 8.296875 
L 53.609375 8.296875 
L 53.609375 0 
L 7.328125 0 
L 7.328125 8.296875 
Q 12.9375 14.109375 22.625 23.890625 
Q 32.328125 33.6875 34.8125 36.53125 
Q 39.546875 41.84375 41.421875 45.53125 
Q 43.3125 49.21875 43.3125 52.78125 
Q 43.3125 58.59375 39.234375 62.25 
Q 35.15625 65.921875 28.609375 65.921875 
Q 23.96875 65.921875 18.8125 64.3125 
Q 13.671875 62.703125 7.8125 59.421875 
L 7.8125 69.390625 
Q 13.765625 71.78125 18.9375 73 
Q 24.125 74.21875 28.421875 74.21875 
Q 39.75 74.21875 46.484375 68.546875 
Q 53.21875 62.890625 53.21875 53.421875 
Q 53.21875 48.921875 51.53125 44.890625 
Q 49.859375 40.875 45.40625 35.40625 
Q 44.1875 33.984375 37.640625 27.21875 
Q 31.109375 20.453125 19.1875 8.296875 
z
" id="DejaVuSans-50"/>
      </defs>
      <g transform="translate(295.230476 542.877813)scale(0.14 -0.14)">
       <use xlink:href="#DejaVuSans-49"/>
       <use x="63.623047" xlink:href="#DejaVuSans-50"/>
       <use x="127.246094" xlink:href="#DejaVuSans-46"/>
       <use x="159.033203" xlink:href="#DejaVuSans-48"/>
      </g>
     </g>
    </g>
    <g id="xtick_6">
     <g id="line2d_8">
      <g>
       <use style="stroke:#000000;stroke-width:0.8;" x="370.953842" xlink:href="#m28d631f5ed" y="525.24"/>
      </g>
     </g>
     <g id="text_8">
      <!-- 12.5 -->
      <g transform="translate(355.367905 542.877813)scale(0.14 -0.14)">
       <use xlink:href="#DejaVuSans-49"/>
       <use x="63.623047" xlink:href="#DejaVuSans-50"/>
       <use x="127.246094" xlink:href="#DejaVuSans-46"/>
       <use x="159.033203" xlink:href="#DejaVuSans-53"/>
      </g>
     </g>
    </g>
    <g id="xtick_7">
     <g id="line2d_9">
      <g>
       <use style="stroke:#000000;stroke-width:0.8;" x="431.091271" xlink:href="#m28d631f5ed" y="525.24"/>
      </g>
     </g>
     <g id="text_9">
      <!-- 13.0 -->
      <defs>
       <path d="M 40.578125 39.3125 
Q 47.65625 37.796875 51.625 33 
Q 55.609375 28.21875 55.609375 21.1875 
Q 55.609375 10.40625 48.1875 4.484375 
Q 40.765625 -1.421875 27.09375 -1.421875 
Q 22.515625 -1.421875 17.65625 -0.515625 
Q 12.796875 0.390625 7.625 2.203125 
L 7.625 11.71875 
Q 11.71875 9.328125 16.59375 8.109375 
Q 21.484375 6.890625 26.8125 6.890625 
Q 36.078125 6.890625 40.9375 10.546875 
Q 45.796875 14.203125 45.796875 21.1875 
Q 45.796875 27.640625 41.28125 31.265625 
Q 36.765625 34.90625 28.71875 34.90625 
L 20.21875 34.90625 
L 20.21875 43.015625 
L 29.109375 43.015625 
Q 36.375 43.015625 40.234375 45.921875 
Q 44.09375 48.828125 44.09375 54.296875 
Q 44.09375 59.90625 40.109375 62.90625 
Q 36.140625 65.921875 28.71875 65.921875 
Q 24.65625 65.921875 20.015625 65.03125 
Q 15.375 64.15625 9.8125 62.3125 
L 9.8125 71.09375 
Q 15.4375 72.65625 20.34375 73.4375 
Q 25.25 74.21875 29.59375 74.21875 
Q 40.828125 74.21875 47.359375 69.109375 
Q 53.90625 64.015625 53.90625 55.328125 
Q 53.90625 49.265625 50.4375 45.09375 
Q 46.96875 40.921875 40.578125 39.3125 
z
" id="DejaVuSans-51"/>
      </defs>
      <g transform="translate(415.505334 542.877813)scale(0.14 -0.14)">
       <use xlink:href="#DejaVuSans-49"/>
       <use x="63.623047" xlink:href="#DejaVuSans-51"/>
       <use x="127.246094" xlink:href="#DejaVuSans-46"/>
       <use x="159.033203" xlink:href="#DejaVuSans-48"/>
      </g>
     </g>
    </g>
    <g id="xtick_8">
     <g id="line2d_10">
      <g>
       <use style="stroke:#000000;stroke-width:0.8;" x="491.2287" xlink:href="#m28d631f5ed" y="525.24"/>
      </g>
     </g>
     <g id="text_10">
      <!-- 13.5 -->
      <g transform="translate(475.642763 542.877813)scale(0.14 -0.14)">
       <use xlink:href="#DejaVuSans-49"/>
       <use x="63.623047" xlink:href="#DejaVuSans-51"/>
       <use x="127.246094" xlink:href="#DejaVuSans-46"/>
       <use x="159.033203" xlink:href="#DejaVuSans-53"/>
      </g>
     </g>
    </g>
   </g>
   <g id="line2d_11">
    <path clip-path="url(#p06a0d9a942)" d="M 232.156656 525.24 
L 232.156656 402.93 
" style="fill:none;stroke:#ff6384;stroke-dasharray:5.55,2.4;stroke-dashoffset:0;stroke-opacity:0.8;stroke-width:1.5;"/>
   </g>
   <g id="line2d_12">
    <path clip-path="url(#p06a0d9a942)" d="M 346.165194 525.24 
L 346.165194 402.93 
" style="fill:none;stroke:#36a2eb;stroke-dasharray:5.55,2.4;stroke-dashoffset:0;stroke-opacity:0.8;stroke-width:1.5;"/>
   </g>
   <g id="patch_10">
    <path d="M 36 525.24 
L 538.2 525.24 
" style="fill:none;stroke:#000000;stroke-linecap:square;stroke-linejoin:miter;stroke-width:0.8;"/>
   </g>
  </g>
 </g>
 <defs>
  <clipPath id="pd44930eb13">
   <rect height="366.93" width="502.2" x="36" y="36"/>
  </clipPath>
  <clipPath id="p06a0d9a942">
   <rect height="122.31" width="502.2" x="36" y="402.93"/>
  </clipPath>
 </defs>
</svg>
