<?xml version="1.0" encoding="utf-8" standalone="no"?>
<!DOCTYPE svg PUBLIC "-//W3C//DTD SVG 1.1//EN"
  "http://www.w3.org/Graphics/SVG/1.1/DTD/svg11.dtd">
<!-- Created with matplotlib (https://matplotlib.org/) -->
<svg height="581.789375pt" version="1.1" viewBox="0 0 574.2 581.789375" width="574.2pt" xmlns="http://www.w3.org/2000/svg" xmlns:xlink="http://www.w3.org/1999/xlink">
 <defs>
  <style type="text/css">
*{stroke-linecap:butt;stroke-linejoin:round;}
  </style>
 </defs>
 <g id="figure_1">
  <g id="patch_1">
   <path d="M 0 581.789375 
L 574.2 581.789375 
L 574.2 0 
L 0 0 
z
" style="fill:none;"/>
  </g>
  <g id="axes_1">
   <g id="patch_2">
    <path d="M 36 402.93 
L 538.2 402.93 
L 538.2 36 
L 36 36 
z
" style="fill:none;"/>
   </g>
   <g id="PolyCollection_1">
    <defs>
     <path d="M 58.827273 -195.538011 
L 58.827273 -195.647723 
L 62.273473 -195.689094 
L 65.719673 -195.744711 
L 69.165874 -195.81896 
L 72.612074 -195.917396 
L 76.058274 -196.046986 
L 79.504475 -196.216396 
L 82.950675 -196.43631 
L 86.396875 -196.719771 
L 89.843075 -197.082562 
L 93.289276 -197.543586 
L 96.735476 -198.125269 
L 100.181676 -198.853936 
L 103.627877 -199.760161 
L 107.074077 -200.879062 
L 110.520277 -202.250505 
L 113.966477 -203.919191 
L 117.412678 -205.934592 
L 120.858878 -208.35069 
L 124.305078 -211.225501 
L 127.751279 -214.620325 
L 131.197479 -218.598722 
L 134.643679 -223.225173 
L 138.08988 -228.563425 
L 141.53608 -234.674528 
L 144.98228 -241.614583 
L 148.42848 -249.432236 
L 151.874681 -258.165987 
L 155.320881 -267.841392 
L 158.767081 -278.468249 
L 162.213282 -290.037901 
L 165.659482 -302.520765 
L 169.105682 -315.864245 
L 172.551883 -329.991153 
L 175.998083 -344.798777 
L 179.444283 -360.158716 
L 182.890483 -375.917574 
L 186.336684 -391.898581 
L 189.782884 -407.904173 
L 193.229084 -423.719512 
L 196.675285 -439.11689 
L 200.121485 -453.860908 
L 203.567685 -467.714281 
L 207.013886 -480.444076 
L 210.460086 -491.828159 
L 213.906286 -501.661609 
L 217.352486 -509.762831 
L 220.798687 -515.979134 
L 224.244887 -520.191507 
L 227.691087 -522.318414 
L 231.137288 -522.318414 
L 234.583488 -520.191507 
L 238.029688 -515.979134 
L 241.475889 -509.762831 
L 244.922089 -501.661609 
L 248.368289 -491.828159 
L 251.814489 -480.444076 
L 255.26069 -467.714281 
L 258.70689 -453.860908 
L 262.15309 -439.11689 
L 265.599291 -423.719512 
L 269.045491 -407.904173 
L 272.491691 -391.898581 
L 275.937891 -375.917574 
L 279.384092 -360.158716 
L 282.830292 -344.798777 
L 286.276492 -329.991153 
L 289.722693 -315.864245 
L 293.168893 -302.520765 
L 296.615093 -290.037901 
L 300.061294 -278.468249 
L 303.507494 -267.841392 
L 306.953694 -258.165987 
L 310.399894 -249.432236 
L 313.846095 -241.614583 
L 317.292295 -234.674528 
L 320.738495 -228.563425 
L 324.184696 -223.225173 
L 327.630896 -218.598722 
L 331.077096 -214.620325 
L 334.523297 -211.225501 
L 337.969497 -208.35069 
L 341.415697 -205.934592 
L 344.861897 -203.919191 
L 348.308098 -202.250505 
L 351.754298 -200.879062 
L 355.200498 -199.760161 
L 358.646699 -198.853936 
L 362.092899 -198.125269 
L 365.539099 -197.543586 
L 368.9853 -197.082562 
L 372.4315 -196.719771 
L 375.8777 -196.43631 
L 379.3239 -196.216396 
L 382.770101 -196.046986 
L 386.216301 -195.917396 
L 389.662501 -195.81896 
L 393.108702 -195.744711 
L 396.554902 -195.689094 
L 400.001102 -195.647723 
L 400.001102 -195.538011 
L 400.001102 -195.538011 
L 396.554902 -195.538011 
L 393.108702 -195.538011 
L 389.662501 -195.538011 
L 386.216301 -195.538011 
L 382.770101 -195.538011 
L 379.3239 -195.538011 
L 375.8777 -195.538011 
L 372.4315 -195.538011 
L 368.9853 -195.538011 
L 365.539099 -195.538011 
L 362.092899 -195.538011 
L 358.646699 -195.538011 
L 355.200498 -195.538011 
L 351.754298 -195.538011 
L 348.308098 -195.538011 
L 344.861897 -195.538011 
L 341.415697 -195.538011 
L 337.969497 -195.538011 
L 334.523297 -195.538011 
L 331.077096 -195.538011 
L 327.630896 -195.538011 
L 324.184696 -195.538011 
L 320.738495 -195.538011 
L 317.292295 -195.538011 
L 313.846095 -195.538011 
L 310.399894 -195.538011 
L 306.953694 -195.538011 
L 303.507494 -195.538011 
L 300.061294 -195.538011 
L 296.615093 -195.538011 
L 293.168893 -195.538011 
L 289.722693 -195.538011 
L 286.276492 -195.538011 
L 282.830292 -195.538011 
L 279.384092 -195.538011 
L 275.937891 -195.538011 
L 272.491691 -195.538011 
L 269.045491 -195.538011 
L 265.599291 -195.538011 
L 262.15309 -195.538011 
L 258.70689 -195.538011 
L 255.26069 -195.538011 
L 251.814489 -195.538011 
L 248.368289 -195.538011 
L 244.922089 -195.538011 
L 241.475889 -195.538011 
L 238.029688 -195.538011 
L 234.583488 -195.538011 
L 231.137288 -195.538011 
L 227.691087 -195.538011 
L 224.244887 -195.538011 
L 220.798687 -195.538011 
L 217.352486 -195.538011 
L 213.906286 -195.538011 
L 210.460086 -195.538011 
L 207.013886 -195.538011 
L 203.567685 -195.538011 
L 200.121485 -195.538011 
L 196.675285 -195.538011 
L 193.229084 -195.538011 
L 189.782884 -195.538011 
L 186.336684 -195.538011 
L 182.890483 -195.538011 
L 179.444283 -195.538011 
L 175.998083 -195.538011 
L 172.551883 -195.538011 
L 169.105682 -195.538011 
L 165.659482 -195.538011 
L 162.213282 -195.538011 
L 158.767081 -195.538011 
L 155.320881 -195.538011 
L 151.874681 -195.538011 
L 148.42848 -195.538011 
L 144.98228 -195.538011 
L 141.53608 -195.538011 
L 138.08988 -195.538011 
L 134.643679 -195.538011 
L 131.197479 -195.538011 
L 127.751279 -195.538011 
L 124.305078 -195.538011 
L 120.858878 -195.538011 
L 117.412678 -195.538011 
L 113.966477 -195.538011 
L 110.520277 -195.538011 
L 107.074077 -195.538011 
L 103.627877 -195.538011 
L 100.181676 -195.538011 
L 96.735476 -195.538011 
L 93.289276 -195.538011 
L 89.843075 -195.538011 
L 86.396875 -195.538011 
L 82.950675 -195.538011 
L 79.504475 -195.538011 
L 76.058274 -195.538011 
L 72.612074 -195.538011 
L 69.165874 -195.538011 
L 65.719673 -195.538011 
L 62.273473 -195.538011 
L 58.827273 -195.538011 
z
" id="m6688394827" style="stroke:#ff6384;stroke-opacity:0.5;"/>
    </defs>
    <g clip-path="url(#pb16b0a7dff)">
     <use style="fill:#ff6384;fill-opacity:0.5;stroke:#ff6384;stroke-opacity:0.5;" x="0" xlink:href="#m6688394827" y="581.789375"/>
    </g>
   </g>
   <g id="PolyCollection_2">
    <defs>
     <path d="M 181.145999 -195.538011 
L 181.145999 -195.650004 
L 184.522027 -195.692234 
L 187.898054 -195.749007 
L 191.274082 -195.8248 
L 194.650109 -195.925281 
L 198.026137 -196.057565 
L 201.402165 -196.230497 
L 204.778192 -196.454982 
L 208.15422 -196.744335 
L 211.530247 -197.114666 
L 214.906275 -197.585273 
L 218.282302 -198.179047 
L 221.65833 -198.922859 
L 225.034357 -199.847921 
L 228.410385 -200.990079 
L 231.786413 -202.390029 
L 235.16244 -204.093399 
L 238.538468 -206.150691 
L 241.914495 -208.617009 
L 245.290523 -211.551575 
L 248.66655 -215.016962 
L 252.042578 -219.078053 
L 255.418605 -223.800667 
L 258.794633 -229.249878 
L 262.170661 -235.488004 
L 265.546688 -242.572312 
L 268.922716 -250.552459 
L 272.298743 -259.467747 
L 275.674771 -269.344261 
L 279.050798 -280.192004 
L 282.426826 -292.002137 
L 285.802853 -304.744465 
L 289.178881 -318.365297 
L 292.554909 -332.785841 
L 295.930936 -347.901251 
L 299.306964 -363.580456 
L 302.682991 -379.666871 
L 306.059019 -395.980052 
L 309.435046 -412.31833 
L 312.811074 -428.4624 
L 316.187101 -444.179822 
L 319.563129 -459.230303 
L 322.939157 -473.371627 
L 326.315184 -486.366018 
L 329.691212 -497.986726 
L 333.067239 -508.02457 
L 336.443267 -516.294181 
L 339.819294 -522.639693 
L 343.195322 -526.939623 
L 346.571349 -529.110739 
L 349.947377 -529.110739 
L 353.323405 -526.939623 
L 356.699432 -522.639693 
L 360.07546 -516.294181 
L 363.451487 -508.02457 
L 366.827515 -497.986726 
L 370.203542 -486.366018 
L 373.57957 -473.371627 
L 376.955597 -459.230303 
L 380.331625 -444.179822 
L 383.707653 -428.4624 
L 387.08368 -412.31833 
L 390.459708 -395.980052 
L 393.835735 -379.666871 
L 397.211763 -363.580456 
L 400.58779 -347.901251 
L 403.963818 -332.785841 
L 407.339845 -318.365297 
L 410.715873 -304.744465 
L 414.091901 -292.002137 
L 417.467928 -280.192004 
L 420.843956 -269.344261 
L 424.219983 -259.467747 
L 427.596011 -250.552459 
L 430.972038 -242.572312 
L 434.348066 -235.488004 
L 437.724093 -229.249878 
L 441.100121 -223.800667 
L 444.476149 -219.078053 
L 447.852176 -215.016962 
L 451.228204 -211.551575 
L 454.604231 -208.617009 
L 457.980259 -206.150691 
L 461.356286 -204.093399 
L 464.732314 -202.390029 
L 468.108341 -200.990079 
L 471.484369 -199.847921 
L 474.860397 -198.922859 
L 478.236424 -198.179047 
L 481.612452 -197.585273 
L 484.988479 -197.114666 
L 488.364507 -196.744335 
L 491.740534 -196.454982 
L 495.116562 -196.230497 
L 498.492589 -196.057565 
L 501.868617 -195.925281 
L 505.244645 -195.8248 
L 508.620672 -195.749007 
L 511.9967 -195.692234 
L 515.372727 -195.650004 
L 515.372727 -195.538011 
L 515.372727 -195.538011 
L 511.9967 -195.538011 
L 508.620672 -195.538011 
L 505.244645 -195.538011 
L 501.868617 -195.538011 
L 498.492589 -195.538011 
L 495.116562 -195.538011 
L 491.740534 -195.538011 
L 488.364507 -195.538011 
L 484.988479 -195.538011 
L 481.612452 -195.538011 
L 478.236424 -195.538011 
L 474.860397 -195.538011 
L 471.484369 -195.538011 
L 468.108341 -195.538011 
L 464.732314 -195.538011 
L 461.356286 -195.538011 
L 457.980259 -195.538011 
L 454.604231 -195.538011 
L 451.228204 -195.538011 
L 447.852176 -195.538011 
L 444.476149 -195.538011 
L 441.100121 -195.538011 
L 437.724093 -195.538011 
L 434.348066 -195.538011 
L 430.972038 -195.538011 
L 427.596011 -195.538011 
L 424.219983 -195.538011 
L 420.843956 -195.538011 
L 417.467928 -195.538011 
L 414.091901 -195.538011 
L 410.715873 -195.538011 
L 407.339845 -195.538011 
L 403.963818 -195.538011 
L 400.58779 -195.538011 
L 397.211763 -195.538011 
L 393.835735 -195.538011 
L 390.459708 -195.538011 
L 387.08368 -195.538011 
L 383.707653 -195.538011 
L 380.331625 -195.538011 
L 376.955597 -195.538011 
L 373.57957 -195.538011 
L 370.203542 -195.538011 
L 366.827515 -195.538011 
L 363.451487 -195.538011 
L 360.07546 -195.538011 
L 356.699432 -195.538011 
L 353.323405 -195.538011 
L 349.947377 -195.538011 
L 346.571349 -195.538011 
L 343.195322 -195.538011 
L 339.819294 -195.538011 
L 336.443267 -195.538011 
L 333.067239 -195.538011 
L 329.691212 -195.538011 
L 326.315184 -195.538011 
L 322.939157 -195.538011 
L 319.563129 -195.538011 
L 316.187101 -195.538011 
L 312.811074 -195.538011 
L 309.435046 -195.538011 
L 306.059019 -195.538011 
L 302.682991 -195.538011 
L 299.306964 -195.538011 
L 295.930936 -195.538011 
L 292.554909 -195.538011 
L 289.178881 -195.538011 
L 285.802853 -195.538011 
L 282.426826 -195.538011 
L 279.050798 -195.538011 
L 275.674771 -195.538011 
L 272.298743 -195.538011 
L 268.922716 -195.538011 
L 265.546688 -195.538011 
L 262.170661 -195.538011 
L 258.794633 -195.538011 
L 255.418605 -195.538011 
L 252.042578 -195.538011 
L 248.66655 -195.538011 
L 245.290523 -195.538011 
L 241.914495 -195.538011 
L 238.538468 -195.538011 
L 235.16244 -195.538011 
L 231.786413 -195.538011 
L 228.410385 -195.538011 
L 225.034357 -195.538011 
L 221.65833 -195.538011 
L 218.282302 -195.538011 
L 214.906275 -195.538011 
L 211.530247 -195.538011 
L 208.15422 -195.538011 
L 204.778192 -195.538011 
L 201.402165 -195.538011 
L 198.026137 -195.538011 
L 194.650109 -195.538011 
L 191.274082 -195.538011 
L 187.898054 -195.538011 
L 184.522027 -195.538011 
L 181.145999 -195.538011 
z
" id="mdb56a471de" style="stroke:#36a2eb;stroke-opacity:0.5;"/>
    </defs>
    <g clip-path="url(#pb16b0a7dff)">
     <use style="fill:#36a2eb;fill-opacity:0.5;stroke:#36a2eb;stroke-opacity:0.5;" x="0" xlink:href="#mdb56a471de" y="581.789375"/>
    </g>
   </g>
   <g id="line2d_1">
    <path clip-path="url(#pb16b0a7dff)" d="M 58.827273 386.141652 
L 62.273473 386.100281 
L 65.719673 386.044664 
L 69.165874 385.970415 
L 72.612074 385.871979 
L 76.058274 385.742389 
L 79.504475 385.572979 
L 82.950675 385.353065 
L 86.396875 385.069604 
L 89.843075 384.706813 
L 93.289276 384.245789 
L 96.735476 383.664106 
L 100.181676 382.935439 
L 103.627877 382.029214 
L 107.074077 380.910313 
L 110.520277 379.53887 
L 113.966477 377.870184 
L 117.412678 375.854783 
L 120.858878 373.438685 
L 124.305078 370.563874 
L 127.751279 367.16905 
L 131.197479 363.190653 
L 134.643679 358.564202 
L 138.08988 353.22595 
L 141.53608 347.114847 
L 144.98228 340.174792 
L 148.42848 332.357139 
L 151.874681 323.623388 
L 155.320881 313.947983 
L 158.767081 303.321126 
L 162.213282 291.751474 
L 165.659482 279.26861 
L 169.105682 265.92513 
L 172.551883 251.798222 
L 175.998083 236.990598 
L 179.444283 221.630659 
L 182.890483 205.871801 
L 186.336684 189.890794 
L 189.782884 173.885202 
L 193.229084 158.069863 
L 196.675285 142.672485 
L 200.121485 127.928467 
L 203.567685 114.075094 
L 207.013886 101.345299 
L 210.460086 89.961216 
L 213.906286 80.127766 
L 217.352486 72.026544 
L 220.798687 65.810241 
L 224.244887 61.597868 
L 227.691087 59.470961 
L 231.137288 59.470961 
L 234.583488 61.597868 
L 238.029688 65.810241 
L 241.475889 72.026544 
L 244.922089 80.127766 
L 248.368289 89.961216 
L 251.814489 101.345299 
L 255.26069 114.075094 
L 258.70689 127.928467 
L 262.15309 142.672485 
L 265.599291 158.069863 
L 269.045491 173.885202 
L 272.491691 189.890794 
L 275.937891 205.871801 
L 279.384092 221.630659 
L 282.830292 236.990598 
L 286.276492 251.798222 
L 289.722693 265.92513 
L 293.168893 279.26861 
L 296.615093 291.751474 
L 300.061294 303.321126 
L 303.507494 313.947983 
L 306.953694 323.623388 
L 310.399894 332.357139 
L 313.846095 340.174792 
L 317.292295 347.114847 
L 320.738495 353.22595 
L 324.184696 358.564202 
L 327.630896 363.190653 
L 331.077096 367.16905 
L 334.523297 370.563874 
L 337.969497 373.438685 
L 341.415697 375.854783 
L 344.861897 377.870184 
L 348.308098 379.53887 
L 351.754298 380.910313 
L 355.200498 382.029214 
L 358.646699 382.935439 
L 362.092899 383.664106 
L 365.539099 384.245789 
L 368.9853 384.706813 
L 372.4315 385.069604 
L 375.8777 385.353065 
L 379.3239 385.572979 
L 382.770101 385.742389 
L 386.216301 385.871979 
L 389.662501 385.970415 
L 393.108702 386.044664 
L 396.554902 386.100281 
L 400.001102 386.141652 
" style="fill:none;stroke:#ff6384;stroke-linecap:square;"/>
   </g>
   <g id="line2d_2">
    <path clip-path="url(#pb16b0a7dff)" d="M 181.145999 386.139371 
L 184.522027 386.097141 
L 187.898054 386.040368 
L 191.274082 385.964575 
L 194.650109 385.864094 
L 198.026137 385.73181 
L 201.402165 385.558878 
L 204.778192 385.334393 
L 208.15422 385.04504 
L 211.530247 384.674709 
L 214.906275 384.204102 
L 218.282302 383.610328 
L 221.65833 382.866516 
L 225.034357 381.941454 
L 228.410385 380.799296 
L 231.786413 379.399346 
L 235.16244 377.695976 
L 238.538468 375.638684 
L 241.914495 373.172366 
L 245.290523 370.2378 
L 248.66655 366.772413 
L 252.042578 362.711322 
L 255.418605 357.988708 
L 258.794633 352.539497 
L 262.170661 346.301371 
L 265.546688 339.217063 
L 268.922716 331.236916 
L 272.298743 322.321628 
L 275.674771 312.445114 
L 279.050798 301.597371 
L 282.426826 289.787238 
L 285.802853 277.04491 
L 289.178881 263.424078 
L 292.554909 249.003534 
L 295.930936 233.888124 
L 299.306964 218.208919 
L 302.682991 202.122504 
L 306.059019 185.809323 
L 309.435046 169.471045 
L 312.811074 153.326975 
L 316.187101 137.609553 
L 319.563129 122.559072 
L 322.939157 108.417748 
L 326.315184 95.423357 
L 329.691212 83.802649 
L 333.067239 73.764805 
L 336.443267 65.495194 
L 339.819294 59.149682 
L 343.195322 54.849752 
L 346.571349 52.678636 
L 349.947377 52.678636 
L 353.323405 54.849752 
L 356.699432 59.149682 
L 360.07546 65.495194 
L 363.451487 73.764805 
L 366.827515 83.802649 
L 370.203542 95.423357 
L 373.57957 108.417748 
L 376.955597 122.559072 
L 380.331625 137.609553 
L 383.707653 153.326975 
L 387.08368 169.471045 
L 390.459708 185.809323 
L 393.835735 202.122504 
L 397.211763 218.208919 
L 400.58779 233.888124 
L 403.963818 249.003534 
L 407.339845 263.424078 
L 410.715873 277.04491 
L 414.091901 289.787238 
L 417.467928 301.597371 
L 420.843956 312.445114 
L 424.219983 322.321628 
L 427.596011 331.236916 
L 430.972038 339.217063 
L 434.348066 346.301371 
L 437.724093 352.539497 
L 441.100121 357.988708 
L 444.476149 362.711322 
L 447.852176 366.772413 
L 451.228204 370.2378 
L 454.604231 373.172366 
L 457.980259 375.638684 
L 461.356286 377.695976 
L 464.732314 379.399346 
L 468.108341 380.799296 
L 471.484369 381.941454 
L 474.860397 382.866516 
L 478.236424 383.610328 
L 481.612452 384.204102 
L 484.988479 384.674709 
L 488.364507 385.04504 
L 491.740534 385.334393 
L 495.116562 385.558878 
L 498.492589 385.73181 
L 501.868617 385.864094 
L 505.244645 385.964575 
L 508.620672 386.040368 
L 511.9967 386.097141 
L 515.372727 386.139371 
" style="fill:none;stroke:#36a2eb;stroke-linecap:square;"/>
   </g>
   <g id="patch_3">
    <path d="M 36 402.93 
L 538.2 402.93 
" style="fill:none;stroke:#000000;stroke-linecap:square;stroke-linejoin:miter;stroke-width:0.8;"/>
   </g>
   <g id="legend_1">
    <g id="patch_4">
     <path d="M 378.11875 88.688125 
L 528.4 88.688125 
Q 531.2 88.688125 531.2 85.888125 
L 531.2 45.8 
Q 531.2 43 528.4 43 
L 378.11875 43 
Q 375.31875 43 375.31875 45.8 
L 375.31875 85.888125 
Q 375.31875 88.688125 378.11875 88.688125 
z
" style="fill:#ffffff;opacity:0.8;stroke:#cccccc;stroke-linejoin:miter;"/>
    </g>
    <g id="patch_5">
     <path d="M 380.91875 59.237813 
L 408.91875 59.237813 
L 408.91875 49.437813 
L 380.91875 49.437813 
z
" style="fill:#ff6384;opacity:0.5;stroke:#ff6384;stroke-linejoin:miter;"/>
    </g>
    <g id="text_1">
     <!-- base -->
     <defs>
      <path d="M 48.6875 27.296875 
Q 48.6875 37.203125 44.609375 42.84375 
Q 40.53125 48.484375 33.40625 48.484375 
Q 26.265625 48.484375 22.1875 42.84375 
Q 18.109375 37.203125 18.109375 27.296875 
Q 18.109375 17.390625 22.1875 11.75 
Q 26.265625 6.109375 33.40625 6.109375 
Q 40.53125 6.109375 44.609375 11.75 
Q 48.6875 17.390625 48.6875 27.296875 
z
M 18.109375 46.390625 
Q 20.953125 51.265625 25.265625 53.625 
Q 29.59375 56 35.59375 56 
Q 45.5625 56 51.78125 48.09375 
Q 58.015625 40.1875 58.015625 27.296875 
Q 58.015625 14.40625 51.78125 6.484375 
Q 45.5625 -1.421875 35.59375 -1.421875 
Q 29.59375 -1.421875 25.265625 0.953125 
Q 20.953125 3.328125 18.109375 8.203125 
L 18.109375 0 
L 9.078125 0 
L 9.078125 75.984375 
L 18.109375 75.984375 
z
" id="DejaVuSans-98"/>
      <path d="M 34.28125 27.484375 
Q 23.390625 27.484375 19.1875 25 
Q 14.984375 22.515625 14.984375 16.5 
Q 14.984375 11.71875 18.140625 8.90625 
Q 21.296875 6.109375 26.703125 6.109375 
Q 34.1875 6.109375 38.703125 11.40625 
Q 43.21875 16.703125 43.21875 25.484375 
L 43.21875 27.484375 
z
M 52.203125 31.203125 
L 52.203125 0 
L 43.21875 0 
L 43.21875 8.296875 
Q 40.140625 3.328125 35.546875 0.953125 
Q 30.953125 -1.421875 24.3125 -1.421875 
Q 15.921875 -1.421875 10.953125 3.296875 
Q 6 8.015625 6 15.921875 
Q 6 25.140625 12.171875 29.828125 
Q 18.359375 34.515625 30.609375 34.515625 
L 43.21875 34.515625 
L 43.21875 35.40625 
Q 43.21875 41.609375 39.140625 45 
Q 35.0625 48.390625 27.6875 48.390625 
Q 23 48.390625 18.546875 47.265625 
Q 14.109375 46.140625 10.015625 43.890625 
L 10.015625 52.203125 
Q 14.9375 54.109375 19.578125 55.046875 
Q 24.21875 56 28.609375 56 
Q 40.484375 56 46.34375 49.84375 
Q 52.203125 43.703125 52.203125 31.203125 
z
" id="DejaVuSans-97"/>
      <path d="M 44.28125 53.078125 
L 44.28125 44.578125 
Q 40.484375 46.53125 36.375 47.5 
Q 32.28125 48.484375 27.875 48.484375 
Q 21.1875 48.484375 17.84375 46.4375 
Q 14.5 44.390625 14.5 40.28125 
Q 14.5 37.15625 16.890625 35.375 
Q 19.28125 33.59375 26.515625 31.984375 
L 29.59375 31.296875 
Q 39.15625 29.25 43.1875 25.515625 
Q 47.21875 21.78125 47.21875 15.09375 
Q 47.21875 7.46875 41.1875 3.015625 
Q 35.15625 -1.421875 24.609375 -1.421875 
Q 20.21875 -1.421875 15.453125 -0.5625 
Q 10.6875 0.296875 5.421875 2 
L 5.421875 11.28125 
Q 10.40625 8.6875 15.234375 7.390625 
Q 20.0625 6.109375 24.8125 6.109375 
Q 31.15625 6.109375 34.5625 8.28125 
Q 37.984375 10.453125 37.984375 14.40625 
Q 37.984375 18.0625 35.515625 20.015625 
Q 33.0625 21.96875 24.703125 23.78125 
L 21.578125 24.515625 
Q 13.234375 26.265625 9.515625 29.90625 
Q 5.8125 33.546875 5.8125 39.890625 
Q 5.8125 47.609375 11.28125 51.796875 
Q 16.75 56 26.8125 56 
Q 31.78125 56 36.171875 55.265625 
Q 40.578125 54.546875 44.28125 53.078125 
z
" id="DejaVuSans-115"/>
      <path d="M 56.203125 29.59375 
L 56.203125 25.203125 
L 14.890625 25.203125 
Q 15.484375 15.921875 20.484375 11.0625 
Q 25.484375 6.203125 34.421875 6.203125 
Q 39.59375 6.203125 44.453125 7.46875 
Q 49.3125 8.734375 54.109375 11.28125 
L 54.109375 2.78125 
Q 49.265625 0.734375 44.1875 -0.34375 
Q 39.109375 -1.421875 33.890625 -1.421875 
Q 20.796875 -1.421875 13.15625 6.1875 
Q 5.515625 13.8125 5.515625 26.8125 
Q 5.515625 40.234375 12.765625 48.109375 
Q 20.015625 56 32.328125 56 
Q 43.359375 56 49.78125 48.890625 
Q 56.203125 41.796875 56.203125 29.59375 
z
M 47.21875 32.234375 
Q 47.125 39.59375 43.09375 43.984375 
Q 39.0625 48.390625 32.421875 48.390625 
Q 24.90625 48.390625 20.390625 44.140625 
Q 15.875 39.890625 15.1875 32.171875 
z
" id="DejaVuSans-101"/>
     </defs>
     <g transform="translate(420.11875 59.237813)scale(0.14 -0.14)">
      <use xlink:href="#DejaVuSans-98"/>
      <use x="63.476562" xlink:href="#DejaVuSans-97"/>
      <use x="124.755859" xlink:href="#DejaVuSans-115"/>
      <use x="176.855469" xlink:href="#DejaVuSans-101"/>
     </g>
    </g>
    <g id="patch_6">
     <path d="M 380.91875 79.787188 
L 408.91875 79.787188 
L 408.91875 69.987188 
L 380.91875 69.987188 
z
" style="fill:#36a2eb;opacity:0.5;stroke:#36a2eb;stroke-linejoin:miter;"/>
    </g>
    <g id="text_2">
     <!-- no_information -->
     <defs>
      <path d="M 54.890625 33.015625 
L 54.890625 0 
L 45.90625 0 
L 45.90625 32.71875 
Q 45.90625 40.484375 42.875 44.328125 
Q 39.84375 48.1875 33.796875 48.1875 
Q 26.515625 48.1875 22.3125 43.546875 
Q 18.109375 38.921875 18.109375 30.90625 
L 18.109375 0 
L 9.078125 0 
L 9.078125 54.6875 
L 18.109375 54.6875 
L 18.109375 46.1875 
Q 21.34375 51.125 25.703125 53.5625 
Q 30.078125 56 35.796875 56 
Q 45.21875 56 50.046875 50.171875 
Q 54.890625 44.34375 54.890625 33.015625 
z
" id="DejaVuSans-110"/>
      <path d="M 30.609375 48.390625 
Q 23.390625 48.390625 19.1875 42.75 
Q 14.984375 37.109375 14.984375 27.296875 
Q 14.984375 17.484375 19.15625 11.84375 
Q 23.34375 6.203125 30.609375 6.203125 
Q 37.796875 6.203125 41.984375 11.859375 
Q 46.1875 17.53125 46.1875 27.296875 
Q 46.1875 37.015625 41.984375 42.703125 
Q 37.796875 48.390625 30.609375 48.390625 
z
M 30.609375 56 
Q 42.328125 56 49.015625 48.375 
Q 55.71875 40.765625 55.71875 27.296875 
Q 55.71875 13.875 49.015625 6.21875 
Q 42.328125 -1.421875 30.609375 -1.421875 
Q 18.84375 -1.421875 12.171875 6.21875 
Q 5.515625 13.875 5.515625 27.296875 
Q 5.515625 40.765625 12.171875 48.375 
Q 18.84375 56 30.609375 56 
z
" id="DejaVuSans-111"/>
      <path d="M 50.984375 -16.609375 
L 50.984375 -23.578125 
L -0.984375 -23.578125 
L -0.984375 -16.609375 
z
" id="DejaVuSans-95"/>
      <path d="M 9.421875 54.6875 
L 18.40625 54.6875 
L 18.40625 0 
L 9.421875 0 
z
M 9.421875 75.984375 
L 18.40625 75.984375 
L 18.40625 64.59375 
L 9.421875 64.59375 
z
" id="DejaVuSans-105"/>
      <path d="M 37.109375 75.984375 
L 37.109375 68.5 
L 28.515625 68.5 
Q 23.6875 68.5 21.796875 66.546875 
Q 19.921875 64.59375 19.921875 59.515625 
L 19.921875 54.6875 
L 34.71875 54.6875 
L 34.71875 47.703125 
L 19.921875 47.703125 
L 19.921875 0 
L 10.890625 0 
L 10.890625 47.703125 
L 2.296875 47.703125 
L 2.296875 54.6875 
L 10.890625 54.6875 
L 10.890625 58.5 
Q 10.890625 67.625 15.140625 71.796875 
Q 19.390625 75.984375 28.609375 75.984375 
z
" id="DejaVuSans-102"/>
      <path d="M 41.109375 46.296875 
Q 39.59375 47.171875 37.8125 47.578125 
Q 36.03125 48 33.890625 48 
Q 26.265625 48 22.1875 43.046875 
Q 18.109375 38.09375 18.109375 28.8125 
L 18.109375 0 
L 9.078125 0 
L 9.078125 54.6875 
L 18.109375 54.6875 
L 18.109375 46.1875 
Q 20.953125 51.171875 25.484375 53.578125 
Q 30.03125 56 36.53125 56 
Q 37.453125 56 38.578125 55.875 
Q 39.703125 55.765625 41.0625 55.515625 
z
" id="DejaVuSans-114"/>
      <path d="M 52 44.1875 
Q 55.375 50.25 60.0625 53.125 
Q 64.75 56 71.09375 56 
Q 79.640625 56 84.28125 50.015625 
Q 88.921875 44.046875 88.921875 33.015625 
L 88.921875 0 
L 79.890625 0 
L 79.890625 32.71875 
Q 79.890625 40.578125 77.09375 44.375 
Q 74.3125 48.1875 68.609375 48.1875 
Q 61.625 48.1875 57.5625 43.546875 
Q 53.515625 38.921875 53.515625 30.90625 
L 53.515625 0 
L 44.484375 0 
L 44.484375 32.71875 
Q 44.484375 40.625 41.703125 44.40625 
Q 38.921875 48.1875 33.109375 48.1875 
Q 26.21875 48.1875 22.15625 43.53125 
Q 18.109375 38.875 18.109375 30.90625 
L 18.109375 0 
L 9.078125 0 
L 9.078125 54.6875 
L 18.109375 54.6875 
L 18.109375 46.1875 
Q 21.1875 51.21875 25.484375 53.609375 
Q 29.78125 56 35.6875 56 
Q 41.65625 56 45.828125 52.96875 
Q 50 49.953125 52 44.1875 
z
" id="DejaVuSans-109"/>
      <path d="M 18.3125 70.21875 
L 18.3125 54.6875 
L 36.8125 54.6875 
L 36.8125 47.703125 
L 18.3125 47.703125 
L 18.3125 18.015625 
Q 18.3125 11.328125 20.140625 9.421875 
Q 21.96875 7.515625 27.59375 7.515625 
L 36.8125 7.515625 
L 36.8125 0 
L 27.59375 0 
Q 17.1875 0 13.234375 3.875 
Q 9.28125 7.765625 9.28125 18.015625 
L 9.28125 47.703125 
L 2.6875 47.703125 
L 2.6875 54.6875 
L 9.28125 54.6875 
L 9.28125 70.21875 
z
" id="DejaVuSans-116"/>
     </defs>
     <g transform="translate(420.11875 79.787188)scale(0.14 -0.14)">
      <use xlink:href="#DejaVuSans-110"/>
      <use x="63.378906" xlink:href="#DejaVuSans-111"/>
      <use x="124.560547" xlink:href="#DejaVuSans-95"/>
      <use x="174.560547" xlink:href="#DejaVuSans-105"/>
      <use x="202.34375" xlink:href="#DejaVuSans-110"/>
      <use x="265.722656" xlink:href="#DejaVuSans-102"/>
      <use x="300.927734" xlink:href="#DejaVuSans-111"/>
      <use x="362.109375" xlink:href="#DejaVuSans-114"/>
      <use x="403.207031" xlink:href="#DejaVuSans-109"/>
      <use x="500.619141" xlink:href="#DejaVuSans-97"/>
      <use x="561.898438" xlink:href="#DejaVuSans-116"/>
      <use x="601.107422" xlink:href="#DejaVuSans-105"/>
      <use x="628.890625" xlink:href="#DejaVuSans-111"/>
      <use x="690.072266" xlink:href="#DejaVuSans-110"/>
     </g>
    </g>
   </g>
  </g>
  <g id="axes_2">
   <g id="patch_7">
    <path d="M 36 525.24 
L 538.2 525.24 
L 538.2 402.93 
L 36 402.93 
z
" style="fill:none;"/>
   </g>
   <g id="patch_8">
    <path clip-path="url(#p4d2249cc7e)" d="M 145.826599 519.680455 
L 313.001776 519.680455 
L 313.001776 482.616818 
L 145.826599 482.616818 
z
" style="fill:#ff6384;opacity:0.5;"/>
   </g>
   <g id="patch_9">
    <path clip-path="url(#p4d2249cc7e)" d="M 266.373815 445.553182 
L 430.144912 445.553182 
L 430.144912 408.489545 
L 266.373815 408.489545 
z
" style="fill:#36a2eb;opacity:0.5;"/>
   </g>
   <g id="matplotlib.axis_1">
    <g id="xtick_1">
     <g id="line2d_3">
      <defs>
       <path d="M 0 0 
L 0 3.5 
" id="m9371d15556" style="stroke:#000000;stroke-width:0.8;"/>
      </defs>
      <g>
       <use style="stroke:#000000;stroke-width:0.8;" x="76.728593" xlink:href="#m9371d15556" y="525.24"/>
      </g>
     </g>
     <g id="text_3">
      <!-- 10.0 -->
      <defs>
       <path d="M 12.40625 8.296875 
L 28.515625 8.296875 
L 28.515625 63.921875 
L 10.984375 60.40625 
L 10.984375 69.390625 
L 28.421875 72.90625 
L 38.28125 72.90625 
L 38.28125 8.296875 
L 54.390625 8.296875 
L 54.390625 0 
L 12.40625 0 
z
" id="DejaVuSans-49"/>
       <path d="M 31.78125 66.40625 
Q 24.171875 66.40625 20.328125 58.90625 
Q 16.5 51.421875 16.5 36.375 
Q 16.5 21.390625 20.328125 13.890625 
Q 24.171875 6.390625 31.78125 6.390625 
Q 39.453125 6.390625 43.28125 13.890625 
Q 47.125 21.390625 47.125 36.375 
Q 47.125 51.421875 43.28125 58.90625 
Q 39.453125 66.40625 31.78125 66.40625 
z
M 31.78125 74.21875 
Q 44.046875 74.21875 50.515625 64.515625 
Q 56.984375 54.828125 56.984375 36.375 
Q 56.984375 17.96875 50.515625 8.265625 
Q 44.046875 -1.421875 31.78125 -1.421875 
Q 19.53125 -1.421875 13.0625 8.265625 
Q 6.59375 17.96875 6.59375 36.375 
Q 6.59375 54.828125 13.0625 64.515625 
Q 19.53125 74.21875 31.78125 74.21875 
z
" id="DejaVuSans-48"/>
       <path d="M 10.6875 12.40625 
L 21 12.40625 
L 21 0 
L 10.6875 0 
z
" id="DejaVuSans-46"/>
      </defs>
      <g transform="translate(61.142655 542.877813)scale(0.14 -0.14)">
       <use xlink:href="#DejaVuSans-49"/>
       <use x="63.623047" xlink:href="#DejaVuSans-48"/>
       <use x="127.246094" xlink:href="#DejaVuSans-46"/>
       <use x="159.033203" xlink:href="#DejaVuSans-48"/>
      </g>
     </g>
    </g>
    <g id="xtick_2">
     <g id="line2d_4">
      <g>
       <use style="stroke:#000000;stroke-width:0.8;" x="136.097749" xlink:href="#m9371d15556" y="525.24"/>
      </g>
     </g>
     <g id="text_4">
      <!-- 10.5 -->
      <defs>
       <path d="M 10.796875 72.90625 
L 49.515625 72.90625 
L 49.515625 64.59375 
L 19.828125 64.59375 
L 19.828125 46.734375 
Q 21.96875 47.46875 24.109375 47.828125 
Q 26.265625 48.1875 28.421875 48.1875 
Q 40.625 48.1875 47.75 41.5 
Q 54.890625 34.8125 54.890625 23.390625 
Q 54.890625 11.625 47.5625 5.09375 
Q 40.234375 -1.421875 26.90625 -1.421875 
Q 22.3125 -1.421875 17.546875 -0.640625 
Q 12.796875 0.140625 7.71875 1.703125 
L 7.71875 11.625 
Q 12.109375 9.234375 16.796875 8.0625 
Q 21.484375 6.890625 26.703125 6.890625 
Q 35.15625 6.890625 40.078125 11.328125 
Q 45.015625 15.765625 45.015625 23.390625 
Q 45.015625 31 40.078125 35.4375 
Q 35.15625 39.890625 26.703125 39.890625 
Q 22.75 39.890625 18.8125 39.015625 
Q 14.890625 38.140625 10.796875 36.28125 
z
" id="DejaVuSans-53"/>
      </defs>
      <g transform="translate(120.511811 542.877813)scale(0.14 -0.14)">
       <use xlink:href="#DejaVuSans-49"/>
       <use x="63.623047" xlink:href="#DejaVuSans-48"/>
       <use x="127.246094" xlink:href="#DejaVuSans-46"/>
       <use x="159.033203" xlink:href="#DejaVuSans-53"/>
      </g>
     </g>
    </g>
    <g id="xtick_3">
     <g id="line2d_5">
      <g>
       <use style="stroke:#000000;stroke-width:0.8;" x="195.466904" xlink:href="#m9371d15556" y="525.24"/>
      </g>
     </g>
     <g id="text_5">
      <!-- 11.0 -->
      <g transform="translate(179.880967 542.877813)scale(0.14 -0.14)">
       <use xlink:href="#DejaVuSans-49"/>
       <use x="63.623047" xlink:href="#DejaVuSans-49"/>
       <use x="127.246094" xlink:href="#DejaVuSans-46"/>
       <use x="159.033203" xlink:href="#DejaVuSans-48"/>
      </g>
     </g>
    </g>
    <g id="xtick_4">
     <g id="line2d_6">
      <g>
       <use style="stroke:#000000;stroke-width:0.8;" x="254.83606" xlink:href="#m9371d15556" y="525.24"/>
      </g>
     </g>
     <g id="text_6">
      <!-- 11.5 -->
      <g transform="translate(239.250122 542.877813)scale(0.14 -0.14)">
       <use xlink:href="#DejaVuSans-49"/>
       <use x="63.623047" xlink:href="#DejaVuSans-49"/>
       <use x="127.246094" xlink:href="#DejaVuSans-46"/>
       <use x="159.033203" xlink:href="#DejaVuSans-53"/>
      </g>
     </g>
    </g>
    <g id="xtick_5">
     <g id="line2d_7">
      <g>
       <use style="stroke:#000000;stroke-width:0.8;" x="314.205216" xlink:href="#m9371d15556" y="525.24"/>
      </g>
     </g>
     <g id="text_7">
      <!-- 12.0 -->
      <defs>
       <path d="M 19.1875 8.296875 
L 53.609375 8.296875 
L 53.609375 0 
L 7.328125 0 
L 7.328125 8.296875 
Q 12.9375 14.109375 22.625 23.890625 
Q 32.328125 33.6875 34.8125 36.53125 
Q 39.546875 41.84375 41.421875 45.53125 
Q 43.3125 49.21875 43.3125 52.78125 
Q 43.3125 58.59375 39.234375 62.25 
Q 35.15625 65.921875 28.609375 65.921875 
Q 23.96875 65.921875 18.8125 64.3125 
Q 13.671875 62.703125 7.8125 59.421875 
L 7.8125 69.390625 
Q 13.765625 71.78125 18.9375 73 
Q 24.125 74.21875 28.421875 74.21875 
Q 39.75 74.21875 46.484375 68.546875 
Q 53.21875 62.890625 53.21875 53.421875 
Q 53.21875 48.921875 51.53125 44.890625 
Q 49.859375 40.875 45.40625 35.40625 
Q 44.1875 33.984375 37.640625 27.21875 
Q 31.109375 20.453125 19.1875 8.296875 
z
" id="DejaVuSans-50"/>
      </defs>
      <g transform="translate(298.619278 542.877813)scale(0.14 -0.14)">
       <use xlink:href="#DejaVuSans-49"/>
       <use x="63.623047" xlink:href="#DejaVuSans-50"/>
       <use x="127.246094" xlink:href="#DejaVuSans-46"/>
       <use x="159.033203" xlink:href="#DejaVuSans-48"/>
      </g>
     </g>
    </g>
    <g id="xtick_6">
     <g id="line2d_8">
      <g>
       <use style="stroke:#000000;stroke-width:0.8;" x="373.574371" xlink:href="#m9371d15556" y="525.24"/>
      </g>
     </g>
     <g id="text_8">
      <!-- 12.5 -->
      <g transform="translate(357.988434 542.877813)scale(0.14 -0.14)">
       <use xlink:href="#DejaVuSans-49"/>
       <use x="63.623047" xlink:href="#DejaVuSans-50"/>
       <use x="127.246094" xlink:href="#DejaVuSans-46"/>
       <use x="159.033203" xlink:href="#DejaVuSans-53"/>
      </g>
     </g>
    </g>
    <g id="xtick_7">
     <g id="line2d_9">
      <g>
       <use style="stroke:#000000;stroke-width:0.8;" x="432.943527" xlink:href="#m9371d15556" y="525.24"/>
      </g>
     </g>
     <g id="text_9">
      <!-- 13.0 -->
      <defs>
       <path d="M 40.578125 39.3125 
Q 47.65625 37.796875 51.625 33 
Q 55.609375 28.21875 55.609375 21.1875 
Q 55.609375 10.40625 48.1875 4.484375 
Q 40.765625 -1.421875 27.09375 -1.421875 
Q 22.515625 -1.421875 17.65625 -0.515625 
Q 12.796875 0.390625 7.625 2.203125 
L 7.625 11.71875 
Q 11.71875 9.328125 16.59375 8.109375 
Q 21.484375 6.890625 26.8125 6.890625 
Q 36.078125 6.890625 40.9375 10.546875 
Q 45.796875 14.203125 45.796875 21.1875 
Q 45.796875 27.640625 41.28125 31.265625 
Q 36.765625 34.90625 28.71875 34.90625 
L 20.21875 34.90625 
L 20.21875 43.015625 
L 29.109375 43.015625 
Q 36.375 43.015625 40.234375 45.921875 
Q 44.09375 48.828125 44.09375 54.296875 
Q 44.09375 59.90625 40.109375 62.90625 
Q 36.140625 65.921875 28.71875 65.921875 
Q 24.65625 65.921875 20.015625 65.03125 
Q 15.375 64.15625 9.8125 62.3125 
L 9.8125 71.09375 
Q 15.4375 72.65625 20.34375 73.4375 
Q 25.25 74.21875 29.59375 74.21875 
Q 40.828125 74.21875 47.359375 69.109375 
Q 53.90625 64.015625 53.90625 55.328125 
Q 53.90625 49.265625 50.4375 45.09375 
Q 46.96875 40.921875 40.578125 39.3125 
z
" id="DejaVuSans-51"/>
      </defs>
      <g transform="translate(417.357589 542.877813)scale(0.14 -0.14)">
       <use xlink:href="#DejaVuSans-49"/>
       <use x="63.623047" xlink:href="#DejaVuSans-51"/>
       <use x="127.246094" xlink:href="#DejaVuSans-46"/>
       <use x="159.033203" xlink:href="#DejaVuSans-48"/>
      </g>
     </g>
    </g>
    <g id="xtick_8">
     <g id="line2d_10">
      <g>
       <use style="stroke:#000000;stroke-width:0.8;" x="492.312683" xlink:href="#m9371d15556" y="525.24"/>
      </g>
     </g>
     <g id="text_10">
      <!-- 13.5 -->
      <g transform="translate(476.726745 542.877813)scale(0.14 -0.14)">
       <use xlink:href="#DejaVuSans-49"/>
       <use x="63.623047" xlink:href="#DejaVuSans-51"/>
       <use x="127.246094" xlink:href="#DejaVuSans-46"/>
       <use x="159.033203" xlink:href="#DejaVuSans-53"/>
      </g>
     </g>
    </g>
   </g>
   <g id="line2d_11">
    <path clip-path="url(#p4d2249cc7e)" d="M 229.414187 525.24 
L 229.414187 402.93 
" style="fill:none;stroke:#ff6384;stroke-dasharray:5.55,2.4;stroke-dashoffset:0;stroke-opacity:0.8;stroke-width:1.5;"/>
   </g>
   <g id="line2d_12">
    <path clip-path="url(#p4d2249cc7e)" d="M 348.259363 525.24 
L 348.259363 402.93 
" style="fill:none;stroke:#36a2eb;stroke-dasharray:5.55,2.4;stroke-dashoffset:0;stroke-opacity:0.8;stroke-width:1.5;"/>
   </g>
   <g id="patch_10">
    <path d="M 36 525.24 
L 538.2 525.24 
" style="fill:none;stroke:#000000;stroke-linecap:square;stroke-linejoin:miter;stroke-width:0.8;"/>
   </g>
  </g>
 </g>
 <defs>
  <clipPath id="pb16b0a7dff">
   <rect height="366.93" width="502.2" x="36" y="36"/>
  </clipPath>
  <clipPath id="p4d2249cc7e">
   <rect height="122.31" width="502.2" x="36" y="402.93"/>
  </clipPath>
 </defs>
</svg>
