<?xml version="1.0" encoding="utf-8" standalone="no"?>
<!DOCTYPE svg PUBLIC "-//W3C//DTD SVG 1.1//EN"
  "http://www.w3.org/Graphics/SVG/1.1/DTD/svg11.dtd">
<!-- Created with matplotlib (https://matplotlib.org/) -->
<svg height="591.509375pt" version="1.1" viewBox="0 0 593.431779 591.509375" width="593.431779pt" xmlns="http://www.w3.org/2000/svg" xmlns:xlink="http://www.w3.org/1999/xlink">
 <defs>
  <style type="text/css">
*{stroke-linecap:butt;stroke-linejoin:round;}
  </style>
 </defs>
 <g id="figure_1">
  <g id="patch_1">
   <path d="M 0 591.509375 
L 593.431779 591.509375 
L 593.431779 0 
L 0 0 
z
" style="fill:none;"/>
  </g>
  <g id="axes_1">
   <g id="patch_2">
    <path d="M 47.591818 410.22 
L 549.791818 410.22 
L 549.791818 36 
L 47.591818 36 
z
" style="fill:none;"/>
   </g>
   <g id="PolyCollection_1">
    <defs>
     <path d="M 70.41909 -198.299375 
L 70.41909 -198.395216 
L 74.693616 -198.431356 
L 78.968141 -198.47994 
L 83.242666 -198.544802 
L 87.517192 -198.630792 
L 91.791717 -198.743997 
L 96.066242 -198.891989 
L 100.340767 -199.084098 
L 104.615293 -199.33172 
L 108.889818 -199.648641 
L 113.164343 -200.051375 
L 117.438869 -200.559514 
L 121.713394 -201.196052 
L 125.987919 -201.987699 
L 130.262445 -202.965132 
L 134.53697 -204.163177 
L 138.811495 -205.620884 
L 143.08602 -207.381468 
L 147.360546 -209.492088 
L 151.635071 -212.003423 
L 155.909596 -214.969023 
L 160.184122 -218.444414 
L 164.458647 -222.485921 
L 168.733172 -227.149233 
L 173.007697 -232.487681 
L 177.282223 -238.550273 
L 181.556748 -245.379503 
L 185.831273 -253.009006 
L 190.105799 -261.461105 
L 194.380324 -270.74436 
L 198.654849 -280.851207 
L 202.929375 -291.755804 
L 207.2039 -303.412206 
L 211.478425 -315.752984 
L 215.75295 -328.688412 
L 220.027476 -342.106323 
L 224.302001 -355.872716 
L 228.576526 -369.83317 
L 232.851052 -383.815101 
L 237.125577 -397.630833 
L 241.400102 -411.08145 
L 245.674627 -423.961313 
L 249.949153 -436.063141 
L 254.223678 -447.183449 
L 258.498203 -457.12819 
L 262.772729 -465.718351 
L 267.047254 -472.795298 
L 271.321779 -478.225645 
L 275.596305 -481.905428 
L 279.87083 -483.76342 
L 284.145355 -483.76342 
L 288.41988 -481.905428 
L 292.694406 -478.225645 
L 296.968931 -472.795298 
L 301.243456 -465.718351 
L 305.517982 -457.12819 
L 309.792507 -447.183449 
L 314.067032 -436.063141 
L 318.341558 -423.961313 
L 322.616083 -411.08145 
L 326.890608 -397.630833 
L 331.165133 -383.815101 
L 335.439659 -369.83317 
L 339.714184 -355.872716 
L 343.988709 -342.106323 
L 348.263235 -328.688412 
L 352.53776 -315.752984 
L 356.812285 -303.412206 
L 361.08681 -291.755804 
L 365.361336 -280.851207 
L 369.635861 -270.74436 
L 373.910386 -261.461105 
L 378.184912 -253.009006 
L 382.459437 -245.379503 
L 386.733962 -238.550273 
L 391.008488 -232.487681 
L 395.283013 -227.149233 
L 399.557538 -222.485921 
L 403.832063 -218.444414 
L 408.106589 -214.969023 
L 412.381114 -212.003423 
L 416.655639 -209.492088 
L 420.930165 -207.381468 
L 425.20469 -205.620884 
L 429.479215 -204.163177 
L 433.75374 -202.965132 
L 438.028266 -201.987699 
L 442.302791 -201.196052 
L 446.577316 -200.559514 
L 450.851842 -200.051375 
L 455.126367 -199.648641 
L 459.400892 -199.33172 
L 463.675418 -199.084098 
L 467.949943 -198.891989 
L 472.224468 -198.743997 
L 476.498993 -198.630792 
L 480.773519 -198.544802 
L 485.048044 -198.47994 
L 489.322569 -198.431356 
L 493.597095 -198.395216 
L 493.597095 -198.299375 
L 493.597095 -198.299375 
L 489.322569 -198.299375 
L 485.048044 -198.299375 
L 480.773519 -198.299375 
L 476.498993 -198.299375 
L 472.224468 -198.299375 
L 467.949943 -198.299375 
L 463.675418 -198.299375 
L 459.400892 -198.299375 
L 455.126367 -198.299375 
L 450.851842 -198.299375 
L 446.577316 -198.299375 
L 442.302791 -198.299375 
L 438.028266 -198.299375 
L 433.75374 -198.299375 
L 429.479215 -198.299375 
L 425.20469 -198.299375 
L 420.930165 -198.299375 
L 416.655639 -198.299375 
L 412.381114 -198.299375 
L 408.106589 -198.299375 
L 403.832063 -198.299375 
L 399.557538 -198.299375 
L 395.283013 -198.299375 
L 391.008488 -198.299375 
L 386.733962 -198.299375 
L 382.459437 -198.299375 
L 378.184912 -198.299375 
L 373.910386 -198.299375 
L 369.635861 -198.299375 
L 365.361336 -198.299375 
L 361.08681 -198.299375 
L 356.812285 -198.299375 
L 352.53776 -198.299375 
L 348.263235 -198.299375 
L 343.988709 -198.299375 
L 339.714184 -198.299375 
L 335.439659 -198.299375 
L 331.165133 -198.299375 
L 326.890608 -198.299375 
L 322.616083 -198.299375 
L 318.341558 -198.299375 
L 314.067032 -198.299375 
L 309.792507 -198.299375 
L 305.517982 -198.299375 
L 301.243456 -198.299375 
L 296.968931 -198.299375 
L 292.694406 -198.299375 
L 288.41988 -198.299375 
L 284.145355 -198.299375 
L 279.87083 -198.299375 
L 275.596305 -198.299375 
L 271.321779 -198.299375 
L 267.047254 -198.299375 
L 262.772729 -198.299375 
L 258.498203 -198.299375 
L 254.223678 -198.299375 
L 249.949153 -198.299375 
L 245.674627 -198.299375 
L 241.400102 -198.299375 
L 237.125577 -198.299375 
L 232.851052 -198.299375 
L 228.576526 -198.299375 
L 224.302001 -198.299375 
L 220.027476 -198.299375 
L 215.75295 -198.299375 
L 211.478425 -198.299375 
L 207.2039 -198.299375 
L 202.929375 -198.299375 
L 198.654849 -198.299375 
L 194.380324 -198.299375 
L 190.105799 -198.299375 
L 185.831273 -198.299375 
L 181.556748 -198.299375 
L 177.282223 -198.299375 
L 173.007697 -198.299375 
L 168.733172 -198.299375 
L 164.458647 -198.299375 
L 160.184122 -198.299375 
L 155.909596 -198.299375 
L 151.635071 -198.299375 
L 147.360546 -198.299375 
L 143.08602 -198.299375 
L 138.811495 -198.299375 
L 134.53697 -198.299375 
L 130.262445 -198.299375 
L 125.987919 -198.299375 
L 121.713394 -198.299375 
L 117.438869 -198.299375 
L 113.164343 -198.299375 
L 108.889818 -198.299375 
L 104.615293 -198.299375 
L 100.340767 -198.299375 
L 96.066242 -198.299375 
L 91.791717 -198.299375 
L 87.517192 -198.299375 
L 83.242666 -198.299375 
L 78.968141 -198.299375 
L 74.693616 -198.299375 
L 70.41909 -198.299375 
z
" id="m918170317e" style="stroke:#ff6384;stroke-opacity:0.5;"/>
    </defs>
    <g clip-path="url(#pc0e1fe9a05)">
     <use style="fill:#ff6384;fill-opacity:0.5;stroke:#ff6384;stroke-opacity:0.5;" x="0" xlink:href="#m918170317e" y="591.509375"/>
    </g>
   </g>
   <g id="PolyCollection_2">
    <defs>
     <path d="M 171.873114 -198.299375 
L 171.873114 -198.413593 
L 175.459896 -198.456662 
L 179.046678 -198.514563 
L 182.63346 -198.591861 
L 186.220242 -198.694339 
L 189.807024 -198.829251 
L 193.393807 -199.005619 
L 196.980589 -199.234563 
L 200.567371 -199.529665 
L 204.154153 -199.907354 
L 207.740935 -200.387311 
L 211.327717 -200.992881 
L 214.914499 -201.751471 
L 218.501281 -202.694912 
L 222.088064 -203.859762 
L 225.674846 -205.287525 
L 229.261628 -207.024738 
L 232.84841 -209.122902 
L 236.435192 -211.638221 
L 240.021974 -214.631088 
L 243.608756 -218.165325 
L 247.195539 -222.3071 
L 250.782321 -227.123541 
L 254.369103 -232.681014 
L 257.955885 -239.043076 
L 261.542667 -246.268132 
L 265.129449 -254.406825 
L 268.716231 -263.499238 
L 272.303013 -273.571974 
L 275.889796 -284.635235 
L 279.476578 -296.680007 
L 283.06336 -309.675493 
L 286.650142 -323.566938 
L 290.236924 -338.273983 
L 293.823706 -353.689699 
L 297.410488 -369.680411 
L 300.997271 -386.086424 
L 304.584053 -402.723708 
L 308.170835 -419.386587 
L 311.757617 -435.8514 
L 315.344399 -451.881089 
L 318.931181 -467.230586 
L 322.517963 -481.652863 
L 326.104745 -494.905422 
L 329.691528 -506.757005 
L 333.27831 -516.994276 
L 336.865092 -525.428184 
L 340.451874 -531.899766 
L 344.038656 -536.285125 
L 347.625438 -538.499375 
L 351.21222 -538.499375 
L 354.799003 -536.285125 
L 358.385785 -531.899766 
L 361.972567 -525.428184 
L 365.559349 -516.994276 
L 369.146131 -506.757005 
L 372.732913 -494.905422 
L 376.319695 -481.652863 
L 379.906477 -467.230586 
L 383.49326 -451.881089 
L 387.080042 -435.8514 
L 390.666824 -419.386587 
L 394.253606 -402.723708 
L 397.840388 -386.086424 
L 401.42717 -369.680411 
L 405.013952 -353.689699 
L 408.600735 -338.273983 
L 412.187517 -323.566938 
L 415.774299 -309.675493 
L 419.361081 -296.680007 
L 422.947863 -284.635235 
L 426.534645 -273.571974 
L 430.121427 -263.499238 
L 433.708209 -254.406825 
L 437.294992 -246.268132 
L 440.881774 -239.043076 
L 444.468556 -232.681014 
L 448.055338 -227.123541 
L 451.64212 -222.3071 
L 455.228902 -218.165325 
L 458.815684 -214.631088 
L 462.402467 -211.638221 
L 465.989249 -209.122902 
L 469.576031 -207.024738 
L 473.162813 -205.287525 
L 476.749595 -203.859762 
L 480.336377 -202.694912 
L 483.923159 -201.751471 
L 487.509941 -200.992881 
L 491.096724 -200.387311 
L 494.683506 -199.907354 
L 498.270288 -199.529665 
L 501.85707 -199.234563 
L 505.443852 -199.005619 
L 509.030634 -198.829251 
L 512.617416 -198.694339 
L 516.204199 -198.591861 
L 519.790981 -198.514563 
L 523.377763 -198.456662 
L 526.964545 -198.413593 
L 526.964545 -198.299375 
L 526.964545 -198.299375 
L 523.377763 -198.299375 
L 519.790981 -198.299375 
L 516.204199 -198.299375 
L 512.617416 -198.299375 
L 509.030634 -198.299375 
L 505.443852 -198.299375 
L 501.85707 -198.299375 
L 498.270288 -198.299375 
L 494.683506 -198.299375 
L 491.096724 -198.299375 
L 487.509941 -198.299375 
L 483.923159 -198.299375 
L 480.336377 -198.299375 
L 476.749595 -198.299375 
L 473.162813 -198.299375 
L 469.576031 -198.299375 
L 465.989249 -198.299375 
L 462.402467 -198.299375 
L 458.815684 -198.299375 
L 455.228902 -198.299375 
L 451.64212 -198.299375 
L 448.055338 -198.299375 
L 444.468556 -198.299375 
L 440.881774 -198.299375 
L 437.294992 -198.299375 
L 433.708209 -198.299375 
L 430.121427 -198.299375 
L 426.534645 -198.299375 
L 422.947863 -198.299375 
L 419.361081 -198.299375 
L 415.774299 -198.299375 
L 412.187517 -198.299375 
L 408.600735 -198.299375 
L 405.013952 -198.299375 
L 401.42717 -198.299375 
L 397.840388 -198.299375 
L 394.253606 -198.299375 
L 390.666824 -198.299375 
L 387.080042 -198.299375 
L 383.49326 -198.299375 
L 379.906477 -198.299375 
L 376.319695 -198.299375 
L 372.732913 -198.299375 
L 369.146131 -198.299375 
L 365.559349 -198.299375 
L 361.972567 -198.299375 
L 358.385785 -198.299375 
L 354.799003 -198.299375 
L 351.21222 -198.299375 
L 347.625438 -198.299375 
L 344.038656 -198.299375 
L 340.451874 -198.299375 
L 336.865092 -198.299375 
L 333.27831 -198.299375 
L 329.691528 -198.299375 
L 326.104745 -198.299375 
L 322.517963 -198.299375 
L 318.931181 -198.299375 
L 315.344399 -198.299375 
L 311.757617 -198.299375 
L 308.170835 -198.299375 
L 304.584053 -198.299375 
L 300.997271 -198.299375 
L 297.410488 -198.299375 
L 293.823706 -198.299375 
L 290.236924 -198.299375 
L 286.650142 -198.299375 
L 283.06336 -198.299375 
L 279.476578 -198.299375 
L 275.889796 -198.299375 
L 272.303013 -198.299375 
L 268.716231 -198.299375 
L 265.129449 -198.299375 
L 261.542667 -198.299375 
L 257.955885 -198.299375 
L 254.369103 -198.299375 
L 250.782321 -198.299375 
L 247.195539 -198.299375 
L 243.608756 -198.299375 
L 240.021974 -198.299375 
L 236.435192 -198.299375 
L 232.84841 -198.299375 
L 229.261628 -198.299375 
L 225.674846 -198.299375 
L 222.088064 -198.299375 
L 218.501281 -198.299375 
L 214.914499 -198.299375 
L 211.327717 -198.299375 
L 207.740935 -198.299375 
L 204.154153 -198.299375 
L 200.567371 -198.299375 
L 196.980589 -198.299375 
L 193.393807 -198.299375 
L 189.807024 -198.299375 
L 186.220242 -198.299375 
L 182.63346 -198.299375 
L 179.046678 -198.299375 
L 175.459896 -198.299375 
L 171.873114 -198.299375 
z
" id="me0da5dea1c" style="stroke:#36a2eb;stroke-opacity:0.5;"/>
    </defs>
    <g clip-path="url(#pc0e1fe9a05)">
     <use style="fill:#36a2eb;fill-opacity:0.5;stroke:#36a2eb;stroke-opacity:0.5;" x="0" xlink:href="#me0da5dea1c" y="591.509375"/>
    </g>
   </g>
   <g id="line2d_1">
    <path clip-path="url(#pc0e1fe9a05)" d="M 70.41909 393.114159 
L 74.693616 393.078019 
L 78.968141 393.029435 
L 83.242666 392.964573 
L 87.517192 392.878583 
L 91.791717 392.765378 
L 96.066242 392.617386 
L 100.340767 392.425277 
L 104.615293 392.177655 
L 108.889818 391.860734 
L 113.164343 391.458 
L 117.438869 390.949861 
L 121.713394 390.313323 
L 125.987919 389.521676 
L 130.262445 388.544243 
L 134.53697 387.346198 
L 138.811495 385.888491 
L 143.08602 384.127907 
L 147.360546 382.017287 
L 151.635071 379.505952 
L 155.909596 376.540352 
L 160.184122 373.064961 
L 164.458647 369.023454 
L 168.733172 364.360142 
L 173.007697 359.021694 
L 177.282223 352.959102 
L 181.556748 346.129872 
L 185.831273 338.500369 
L 190.105799 330.04827 
L 194.380324 320.765015 
L 198.654849 310.658168 
L 202.929375 299.753571 
L 207.2039 288.097169 
L 211.478425 275.756391 
L 215.75295 262.820963 
L 220.027476 249.403052 
L 224.302001 235.636659 
L 228.576526 221.676205 
L 232.851052 207.694274 
L 237.125577 193.878542 
L 241.400102 180.427925 
L 245.674627 167.548062 
L 249.949153 155.446234 
L 254.223678 144.325926 
L 258.498203 134.381185 
L 262.772729 125.791024 
L 267.047254 118.714077 
L 271.321779 113.28373 
L 275.596305 109.603947 
L 279.87083 107.745955 
L 284.145355 107.745955 
L 288.41988 109.603947 
L 292.694406 113.28373 
L 296.968931 118.714077 
L 301.243456 125.791024 
L 305.517982 134.381185 
L 309.792507 144.325926 
L 314.067032 155.446234 
L 318.341558 167.548062 
L 322.616083 180.427925 
L 326.890608 193.878542 
L 331.165133 207.694274 
L 335.439659 221.676205 
L 339.714184 235.636659 
L 343.988709 249.403052 
L 348.263235 262.820963 
L 352.53776 275.756391 
L 356.812285 288.097169 
L 361.08681 299.753571 
L 365.361336 310.658168 
L 369.635861 320.765015 
L 373.910386 330.04827 
L 378.184912 338.500369 
L 382.459437 346.129872 
L 386.733962 352.959102 
L 391.008488 359.021694 
L 395.283013 364.360142 
L 399.557538 369.023454 
L 403.832063 373.064961 
L 408.106589 376.540352 
L 412.381114 379.505952 
L 416.655639 382.017287 
L 420.930165 384.127907 
L 425.20469 385.888491 
L 429.479215 387.346198 
L 433.75374 388.544243 
L 438.028266 389.521676 
L 442.302791 390.313323 
L 446.577316 390.949861 
L 450.851842 391.458 
L 455.126367 391.860734 
L 459.400892 392.177655 
L 463.675418 392.425277 
L 467.949943 392.617386 
L 472.224468 392.765378 
L 476.498993 392.878583 
L 480.773519 392.964573 
L 485.048044 393.029435 
L 489.322569 393.078019 
L 493.597095 393.114159 
" style="fill:none;stroke:#ff6384;stroke-linecap:square;"/>
   </g>
   <g id="line2d_2">
    <path clip-path="url(#pc0e1fe9a05)" d="M 171.873114 393.095782 
L 175.459896 393.052713 
L 179.046678 392.994812 
L 182.63346 392.917514 
L 186.220242 392.815036 
L 189.807024 392.680124 
L 193.393807 392.503756 
L 196.980589 392.274812 
L 200.567371 391.97971 
L 204.154153 391.602021 
L 207.740935 391.122064 
L 211.327717 390.516494 
L 214.914499 389.757904 
L 218.501281 388.814463 
L 222.088064 387.649613 
L 225.674846 386.22185 
L 229.261628 384.484637 
L 232.84841 382.386473 
L 236.435192 379.871154 
L 240.021974 376.878287 
L 243.608756 373.34405 
L 247.195539 369.202275 
L 250.782321 364.385834 
L 254.369103 358.828361 
L 257.955885 352.466299 
L 261.542667 345.241243 
L 265.129449 337.10255 
L 268.716231 328.010137 
L 272.303013 317.937401 
L 275.889796 306.87414 
L 279.476578 294.829368 
L 283.06336 281.833882 
L 286.650142 267.942437 
L 290.236924 253.235392 
L 293.823706 237.819676 
L 297.410488 221.828964 
L 300.997271 205.422951 
L 304.584053 188.785667 
L 308.170835 172.122788 
L 311.757617 155.657975 
L 315.344399 139.628286 
L 318.931181 124.278789 
L 322.517963 109.856512 
L 326.104745 96.603953 
L 329.691528 84.75237 
L 333.27831 74.515099 
L 336.865092 66.081191 
L 340.451874 59.609609 
L 344.038656 55.22425 
L 347.625438 53.01 
L 351.21222 53.01 
L 354.799003 55.22425 
L 358.385785 59.609609 
L 361.972567 66.081191 
L 365.559349 74.515099 
L 369.146131 84.75237 
L 372.732913 96.603953 
L 376.319695 109.856512 
L 379.906477 124.278789 
L 383.49326 139.628286 
L 387.080042 155.657975 
L 390.666824 172.122788 
L 394.253606 188.785667 
L 397.840388 205.422951 
L 401.42717 221.828964 
L 405.013952 237.819676 
L 408.600735 253.235392 
L 412.187517 267.942437 
L 415.774299 281.833882 
L 419.361081 294.829368 
L 422.947863 306.87414 
L 426.534645 317.937401 
L 430.121427 328.010137 
L 433.708209 337.10255 
L 437.294992 345.241243 
L 440.881774 352.466299 
L 444.468556 358.828361 
L 448.055338 364.385834 
L 451.64212 369.202275 
L 455.228902 373.34405 
L 458.815684 376.878287 
L 462.402467 379.871154 
L 465.989249 382.386473 
L 469.576031 384.484637 
L 473.162813 386.22185 
L 476.749595 387.649613 
L 480.336377 388.814463 
L 483.923159 389.757904 
L 487.509941 390.516494 
L 491.096724 391.122064 
L 494.683506 391.602021 
L 498.270288 391.97971 
L 501.85707 392.274812 
L 505.443852 392.503756 
L 509.030634 392.680124 
L 512.617416 392.815036 
L 516.204199 392.917514 
L 519.790981 392.994812 
L 523.377763 393.052713 
L 526.964545 393.095782 
" style="fill:none;stroke:#36a2eb;stroke-linecap:square;"/>
   </g>
   <g id="patch_3">
    <path d="M 47.591818 410.22 
L 549.791818 410.22 
" style="fill:none;stroke:#000000;stroke-linecap:square;stroke-linejoin:miter;stroke-width:0.8;"/>
   </g>
   <g id="legend_1">
    <g id="patch_4">
     <path d="M 389.95338 88.688125 
L 539.991818 88.688125 
Q 542.791818 88.688125 542.791818 85.888125 
L 542.791818 45.8 
Q 542.791818 43 539.991818 43 
L 389.95338 43 
Q 387.15338 43 387.15338 45.8 
L 387.15338 85.888125 
Q 387.15338 88.688125 389.95338 88.688125 
z
" style="fill:#ffffff;opacity:0.8;stroke:#cccccc;stroke-linejoin:miter;"/>
    </g>
    <g id="patch_5">
     <path d="M 392.75338 59.237813 
L 420.75338 59.237813 
L 420.75338 49.437813 
L 392.75338 49.437813 
z
" style="fill:#ff6384;opacity:0.5;stroke:#ff6384;stroke-linejoin:miter;"/>
    </g>
    <g id="text_1">
     <!-- base -->
     <defs>
      <path d="M 48.6875 27.296875 
Q 48.6875 37.203125 44.609375 42.84375 
Q 40.53125 48.484375 33.40625 48.484375 
Q 26.265625 48.484375 22.1875 42.84375 
Q 18.109375 37.203125 18.109375 27.296875 
Q 18.109375 17.390625 22.1875 11.75 
Q 26.265625 6.109375 33.40625 6.109375 
Q 40.53125 6.109375 44.609375 11.75 
Q 48.6875 17.390625 48.6875 27.296875 
z
M 18.109375 46.390625 
Q 20.953125 51.265625 25.265625 53.625 
Q 29.59375 56 35.59375 56 
Q 45.5625 56 51.78125 48.09375 
Q 58.015625 40.1875 58.015625 27.296875 
Q 58.015625 14.40625 51.78125 6.484375 
Q 45.5625 -1.421875 35.59375 -1.421875 
Q 29.59375 -1.421875 25.265625 0.953125 
Q 20.953125 3.328125 18.109375 8.203125 
L 18.109375 0 
L 9.078125 0 
L 9.078125 75.984375 
L 18.109375 75.984375 
z
" id="DejaVuSans-98"/>
      <path d="M 34.28125 27.484375 
Q 23.390625 27.484375 19.1875 25 
Q 14.984375 22.515625 14.984375 16.5 
Q 14.984375 11.71875 18.140625 8.90625 
Q 21.296875 6.109375 26.703125 6.109375 
Q 34.1875 6.109375 38.703125 11.40625 
Q 43.21875 16.703125 43.21875 25.484375 
L 43.21875 27.484375 
z
M 52.203125 31.203125 
L 52.203125 0 
L 43.21875 0 
L 43.21875 8.296875 
Q 40.140625 3.328125 35.546875 0.953125 
Q 30.953125 -1.421875 24.3125 -1.421875 
Q 15.921875 -1.421875 10.953125 3.296875 
Q 6 8.015625 6 15.921875 
Q 6 25.140625 12.171875 29.828125 
Q 18.359375 34.515625 30.609375 34.515625 
L 43.21875 34.515625 
L 43.21875 35.40625 
Q 43.21875 41.609375 39.140625 45 
Q 35.0625 48.390625 27.6875 48.390625 
Q 23 48.390625 18.546875 47.265625 
Q 14.109375 46.140625 10.015625 43.890625 
L 10.015625 52.203125 
Q 14.9375 54.109375 19.578125 55.046875 
Q 24.21875 56 28.609375 56 
Q 40.484375 56 46.34375 49.84375 
Q 52.203125 43.703125 52.203125 31.203125 
z
" id="DejaVuSans-97"/>
      <path d="M 44.28125 53.078125 
L 44.28125 44.578125 
Q 40.484375 46.53125 36.375 47.5 
Q 32.28125 48.484375 27.875 48.484375 
Q 21.1875 48.484375 17.84375 46.4375 
Q 14.5 44.390625 14.5 40.28125 
Q 14.5 37.15625 16.890625 35.375 
Q 19.28125 33.59375 26.515625 31.984375 
L 29.59375 31.296875 
Q 39.15625 29.25 43.1875 25.515625 
Q 47.21875 21.78125 47.21875 15.09375 
Q 47.21875 7.46875 41.1875 3.015625 
Q 35.15625 -1.421875 24.609375 -1.421875 
Q 20.21875 -1.421875 15.453125 -0.5625 
Q 10.6875 0.296875 5.421875 2 
L 5.421875 11.28125 
Q 10.40625 8.6875 15.234375 7.390625 
Q 20.0625 6.109375 24.8125 6.109375 
Q 31.15625 6.109375 34.5625 8.28125 
Q 37.984375 10.453125 37.984375 14.40625 
Q 37.984375 18.0625 35.515625 20.015625 
Q 33.0625 21.96875 24.703125 23.78125 
L 21.578125 24.515625 
Q 13.234375 26.265625 9.515625 29.90625 
Q 5.8125 33.546875 5.8125 39.890625 
Q 5.8125 47.609375 11.28125 51.796875 
Q 16.75 56 26.8125 56 
Q 31.78125 56 36.171875 55.265625 
Q 40.578125 54.546875 44.28125 53.078125 
z
" id="DejaVuSans-115"/>
      <path d="M 56.203125 29.59375 
L 56.203125 25.203125 
L 14.890625 25.203125 
Q 15.484375 15.921875 20.484375 11.0625 
Q 25.484375 6.203125 34.421875 6.203125 
Q 39.59375 6.203125 44.453125 7.46875 
Q 49.3125 8.734375 54.109375 11.28125 
L 54.109375 2.78125 
Q 49.265625 0.734375 44.1875 -0.34375 
Q 39.109375 -1.421875 33.890625 -1.421875 
Q 20.796875 -1.421875 13.15625 6.1875 
Q 5.515625 13.8125 5.515625 26.8125 
Q 5.515625 40.234375 12.765625 48.109375 
Q 20.015625 56 32.328125 56 
Q 43.359375 56 49.78125 48.890625 
Q 56.203125 41.796875 56.203125 29.59375 
z
M 47.21875 32.234375 
Q 47.125 39.59375 43.09375 43.984375 
Q 39.0625 48.390625 32.421875 48.390625 
Q 24.90625 48.390625 20.390625 44.140625 
Q 15.875 39.890625 15.1875 32.171875 
z
" id="DejaVuSans-101"/>
     </defs>
     <g transform="translate(431.95338 59.237813)scale(0.14 -0.14)">
      <use xlink:href="#DejaVuSans-98"/>
      <use x="63.476562" xlink:href="#DejaVuSans-97"/>
      <use x="124.755859" xlink:href="#DejaVuSans-115"/>
      <use x="176.855469" xlink:href="#DejaVuSans-101"/>
     </g>
    </g>
    <g id="patch_6">
     <path d="M 392.75338 79.787188 
L 420.75338 79.787188 
L 420.75338 69.987188 
L 392.75338 69.987188 
z
" style="fill:#36a2eb;opacity:0.5;stroke:#36a2eb;stroke-linejoin:miter;"/>
    </g>
    <g id="text_2">
     <!-- no_information -->
     <defs>
      <path d="M 54.890625 33.015625 
L 54.890625 0 
L 45.90625 0 
L 45.90625 32.71875 
Q 45.90625 40.484375 42.875 44.328125 
Q 39.84375 48.1875 33.796875 48.1875 
Q 26.515625 48.1875 22.3125 43.546875 
Q 18.109375 38.921875 18.109375 30.90625 
L 18.109375 0 
L 9.078125 0 
L 9.078125 54.6875 
L 18.109375 54.6875 
L 18.109375 46.1875 
Q 21.34375 51.125 25.703125 53.5625 
Q 30.078125 56 35.796875 56 
Q 45.21875 56 50.046875 50.171875 
Q 54.890625 44.34375 54.890625 33.015625 
z
" id="DejaVuSans-110"/>
      <path d="M 30.609375 48.390625 
Q 23.390625 48.390625 19.1875 42.75 
Q 14.984375 37.109375 14.984375 27.296875 
Q 14.984375 17.484375 19.15625 11.84375 
Q 23.34375 6.203125 30.609375 6.203125 
Q 37.796875 6.203125 41.984375 11.859375 
Q 46.1875 17.53125 46.1875 27.296875 
Q 46.1875 37.015625 41.984375 42.703125 
Q 37.796875 48.390625 30.609375 48.390625 
z
M 30.609375 56 
Q 42.328125 56 49.015625 48.375 
Q 55.71875 40.765625 55.71875 27.296875 
Q 55.71875 13.875 49.015625 6.21875 
Q 42.328125 -1.421875 30.609375 -1.421875 
Q 18.84375 -1.421875 12.171875 6.21875 
Q 5.515625 13.875 5.515625 27.296875 
Q 5.515625 40.765625 12.171875 48.375 
Q 18.84375 56 30.609375 56 
z
" id="DejaVuSans-111"/>
      <path d="M 50.984375 -16.609375 
L 50.984375 -23.578125 
L -0.984375 -23.578125 
L -0.984375 -16.609375 
z
" id="DejaVuSans-95"/>
      <path d="M 9.421875 54.6875 
L 18.40625 54.6875 
L 18.40625 0 
L 9.421875 0 
z
M 9.421875 75.984375 
L 18.40625 75.984375 
L 18.40625 64.59375 
L 9.421875 64.59375 
z
" id="DejaVuSans-105"/>
      <path d="M 37.109375 75.984375 
L 37.109375 68.5 
L 28.515625 68.5 
Q 23.6875 68.5 21.796875 66.546875 
Q 19.921875 64.59375 19.921875 59.515625 
L 19.921875 54.6875 
L 34.71875 54.6875 
L 34.71875 47.703125 
L 19.921875 47.703125 
L 19.921875 0 
L 10.890625 0 
L 10.890625 47.703125 
L 2.296875 47.703125 
L 2.296875 54.6875 
L 10.890625 54.6875 
L 10.890625 58.5 
Q 10.890625 67.625 15.140625 71.796875 
Q 19.390625 75.984375 28.609375 75.984375 
z
" id="DejaVuSans-102"/>
      <path d="M 41.109375 46.296875 
Q 39.59375 47.171875 37.8125 47.578125 
Q 36.03125 48 33.890625 48 
Q 26.265625 48 22.1875 43.046875 
Q 18.109375 38.09375 18.109375 28.8125 
L 18.109375 0 
L 9.078125 0 
L 9.078125 54.6875 
L 18.109375 54.6875 
L 18.109375 46.1875 
Q 20.953125 51.171875 25.484375 53.578125 
Q 30.03125 56 36.53125 56 
Q 37.453125 56 38.578125 55.875 
Q 39.703125 55.765625 41.0625 55.515625 
z
" id="DejaVuSans-114"/>
      <path d="M 52 44.1875 
Q 55.375 50.25 60.0625 53.125 
Q 64.75 56 71.09375 56 
Q 79.640625 56 84.28125 50.015625 
Q 88.921875 44.046875 88.921875 33.015625 
L 88.921875 0 
L 79.890625 0 
L 79.890625 32.71875 
Q 79.890625 40.578125 77.09375 44.375 
Q 74.3125 48.1875 68.609375 48.1875 
Q 61.625 48.1875 57.5625 43.546875 
Q 53.515625 38.921875 53.515625 30.90625 
L 53.515625 0 
L 44.484375 0 
L 44.484375 32.71875 
Q 44.484375 40.625 41.703125 44.40625 
Q 38.921875 48.1875 33.109375 48.1875 
Q 26.21875 48.1875 22.15625 43.53125 
Q 18.109375 38.875 18.109375 30.90625 
L 18.109375 0 
L 9.078125 0 
L 9.078125 54.6875 
L 18.109375 54.6875 
L 18.109375 46.1875 
Q 21.1875 51.21875 25.484375 53.609375 
Q 29.78125 56 35.6875 56 
Q 41.65625 56 45.828125 52.96875 
Q 50 49.953125 52 44.1875 
z
" id="DejaVuSans-109"/>
      <path d="M 18.3125 70.21875 
L 18.3125 54.6875 
L 36.8125 54.6875 
L 36.8125 47.703125 
L 18.3125 47.703125 
L 18.3125 18.015625 
Q 18.3125 11.328125 20.140625 9.421875 
Q 21.96875 7.515625 27.59375 7.515625 
L 36.8125 7.515625 
L 36.8125 0 
L 27.59375 0 
Q 17.1875 0 13.234375 3.875 
Q 9.28125 7.765625 9.28125 18.015625 
L 9.28125 47.703125 
L 2.6875 47.703125 
L 2.6875 54.6875 
L 9.28125 54.6875 
L 9.28125 70.21875 
z
" id="DejaVuSans-116"/>
     </defs>
     <g transform="translate(431.95338 79.787188)scale(0.14 -0.14)">
      <use xlink:href="#DejaVuSans-110"/>
      <use x="63.378906" xlink:href="#DejaVuSans-111"/>
      <use x="124.560547" xlink:href="#DejaVuSans-95"/>
      <use x="174.560547" xlink:href="#DejaVuSans-105"/>
      <use x="202.34375" xlink:href="#DejaVuSans-110"/>
      <use x="265.722656" xlink:href="#DejaVuSans-102"/>
      <use x="300.927734" xlink:href="#DejaVuSans-111"/>
      <use x="362.109375" xlink:href="#DejaVuSans-114"/>
      <use x="401.472656" xlink:href="#DejaVuSans-109"/>
      <use x="498.884766" xlink:href="#DejaVuSans-97"/>
      <use x="560.164062" xlink:href="#DejaVuSans-116"/>
      <use x="599.373047" xlink:href="#DejaVuSans-105"/>
      <use x="627.15625" xlink:href="#DejaVuSans-111"/>
      <use x="688.337891" xlink:href="#DejaVuSans-110"/>
     </g>
    </g>
   </g>
  </g>
  <g id="axes_2">
   <g id="patch_7">
    <path d="M 47.591818 534.96 
L 549.791818 534.96 
L 549.791818 410.22 
L 47.591818 410.22 
z
" style="fill:none;"/>
   </g>
   <g id="patch_8">
    <path clip-path="url(#p7d3395b655)" d="M 178.329481 529.29 
L 385.686704 529.29 
L 385.686704 491.49 
L 178.329481 491.49 
z
" style="fill:#ff6384;opacity:0.5;"/>
   </g>
   <g id="patch_9">
    <path clip-path="url(#p7d3395b655)" d="M 262.421429 453.69 
L 436.41623 453.69 
L 436.41623 415.89 
L 262.421429 415.89 
z
" style="fill:#36a2eb;opacity:0.5;"/>
   </g>
   <g id="matplotlib.axis_1">
    <g id="xtick_1">
     <g id="line2d_3">
      <defs>
       <path d="M 0 0 
L 0 3.5 
" id="m06ae8102c0" style="stroke:#000000;stroke-width:0.8;"/>
      </defs>
      <g>
       <use style="stroke:#000000;stroke-width:0.8;" x="51.585938" xlink:href="#m06ae8102c0" y="534.96"/>
      </g>
     </g>
     <g id="text_3">
      <!-- 11.0 -->
      <defs>
       <path d="M 12.40625 8.296875 
L 28.515625 8.296875 
L 28.515625 63.921875 
L 10.984375 60.40625 
L 10.984375 69.390625 
L 28.421875 72.90625 
L 38.28125 72.90625 
L 38.28125 8.296875 
L 54.390625 8.296875 
L 54.390625 0 
L 12.40625 0 
z
" id="DejaVuSans-49"/>
       <path d="M 10.6875 12.40625 
L 21 12.40625 
L 21 0 
L 10.6875 0 
z
" id="DejaVuSans-46"/>
       <path d="M 31.78125 66.40625 
Q 24.171875 66.40625 20.328125 58.90625 
Q 16.5 51.421875 16.5 36.375 
Q 16.5 21.390625 20.328125 13.890625 
Q 24.171875 6.390625 31.78125 6.390625 
Q 39.453125 6.390625 43.28125 13.890625 
Q 47.125 21.390625 47.125 36.375 
Q 47.125 51.421875 43.28125 58.90625 
Q 39.453125 66.40625 31.78125 66.40625 
z
M 31.78125 74.21875 
Q 44.046875 74.21875 50.515625 64.515625 
Q 56.984375 54.828125 56.984375 36.375 
Q 56.984375 17.96875 50.515625 8.265625 
Q 44.046875 -1.421875 31.78125 -1.421875 
Q 19.53125 -1.421875 13.0625 8.265625 
Q 6.59375 17.96875 6.59375 36.375 
Q 6.59375 54.828125 13.0625 64.515625 
Q 19.53125 74.21875 31.78125 74.21875 
z
" id="DejaVuSans-48"/>
      </defs>
      <g transform="translate(36 552.597813)scale(0.14 -0.14)">
       <use xlink:href="#DejaVuSans-49"/>
       <use x="63.623047" xlink:href="#DejaVuSans-49"/>
       <use x="127.246094" xlink:href="#DejaVuSans-46"/>
       <use x="159.033203" xlink:href="#DejaVuSans-48"/>
      </g>
     </g>
    </g>
    <g id="xtick_2">
     <g id="line2d_4">
      <g>
       <use style="stroke:#000000;stroke-width:0.8;" x="112.868426" xlink:href="#m06ae8102c0" y="534.96"/>
      </g>
     </g>
     <g id="text_4">
      <!-- 11.5 -->
      <defs>
       <path d="M 10.796875 72.90625 
L 49.515625 72.90625 
L 49.515625 64.59375 
L 19.828125 64.59375 
L 19.828125 46.734375 
Q 21.96875 47.46875 24.109375 47.828125 
Q 26.265625 48.1875 28.421875 48.1875 
Q 40.625 48.1875 47.75 41.5 
Q 54.890625 34.8125 54.890625 23.390625 
Q 54.890625 11.625 47.5625 5.09375 
Q 40.234375 -1.421875 26.90625 -1.421875 
Q 22.3125 -1.421875 17.546875 -0.640625 
Q 12.796875 0.140625 7.71875 1.703125 
L 7.71875 11.625 
Q 12.109375 9.234375 16.796875 8.0625 
Q 21.484375 6.890625 26.703125 6.890625 
Q 35.15625 6.890625 40.078125 11.328125 
Q 45.015625 15.765625 45.015625 23.390625 
Q 45.015625 31 40.078125 35.4375 
Q 35.15625 39.890625 26.703125 39.890625 
Q 22.75 39.890625 18.8125 39.015625 
Q 14.890625 38.140625 10.796875 36.28125 
z
" id="DejaVuSans-53"/>
      </defs>
      <g transform="translate(97.282488 552.597813)scale(0.14 -0.14)">
       <use xlink:href="#DejaVuSans-49"/>
       <use x="63.623047" xlink:href="#DejaVuSans-49"/>
       <use x="127.246094" xlink:href="#DejaVuSans-46"/>
       <use x="159.033203" xlink:href="#DejaVuSans-53"/>
      </g>
     </g>
    </g>
    <g id="xtick_3">
     <g id="line2d_5">
      <g>
       <use style="stroke:#000000;stroke-width:0.8;" x="174.150914" xlink:href="#m06ae8102c0" y="534.96"/>
      </g>
     </g>
     <g id="text_5">
      <!-- 12.0 -->
      <defs>
       <path d="M 19.1875 8.296875 
L 53.609375 8.296875 
L 53.609375 0 
L 7.328125 0 
L 7.328125 8.296875 
Q 12.9375 14.109375 22.625 23.890625 
Q 32.328125 33.6875 34.8125 36.53125 
Q 39.546875 41.84375 41.421875 45.53125 
Q 43.3125 49.21875 43.3125 52.78125 
Q 43.3125 58.59375 39.234375 62.25 
Q 35.15625 65.921875 28.609375 65.921875 
Q 23.96875 65.921875 18.8125 64.3125 
Q 13.671875 62.703125 7.8125 59.421875 
L 7.8125 69.390625 
Q 13.765625 71.78125 18.9375 73 
Q 24.125 74.21875 28.421875 74.21875 
Q 39.75 74.21875 46.484375 68.546875 
Q 53.21875 62.890625 53.21875 53.421875 
Q 53.21875 48.921875 51.53125 44.890625 
Q 49.859375 40.875 45.40625 35.40625 
Q 44.1875 33.984375 37.640625 27.21875 
Q 31.109375 20.453125 19.1875 8.296875 
z
" id="DejaVuSans-50"/>
      </defs>
      <g transform="translate(158.564976 552.597813)scale(0.14 -0.14)">
       <use xlink:href="#DejaVuSans-49"/>
       <use x="63.623047" xlink:href="#DejaVuSans-50"/>
       <use x="127.246094" xlink:href="#DejaVuSans-46"/>
       <use x="159.033203" xlink:href="#DejaVuSans-48"/>
      </g>
     </g>
    </g>
    <g id="xtick_4">
     <g id="line2d_6">
      <g>
       <use style="stroke:#000000;stroke-width:0.8;" x="235.433402" xlink:href="#m06ae8102c0" y="534.96"/>
      </g>
     </g>
     <g id="text_6">
      <!-- 12.5 -->
      <g transform="translate(219.847464 552.597813)scale(0.14 -0.14)">
       <use xlink:href="#DejaVuSans-49"/>
       <use x="63.623047" xlink:href="#DejaVuSans-50"/>
       <use x="127.246094" xlink:href="#DejaVuSans-46"/>
       <use x="159.033203" xlink:href="#DejaVuSans-53"/>
      </g>
     </g>
    </g>
    <g id="xtick_5">
     <g id="line2d_7">
      <g>
       <use style="stroke:#000000;stroke-width:0.8;" x="296.71589" xlink:href="#m06ae8102c0" y="534.96"/>
      </g>
     </g>
     <g id="text_7">
      <!-- 13.0 -->
      <defs>
       <path d="M 40.578125 39.3125 
Q 47.65625 37.796875 51.625 33 
Q 55.609375 28.21875 55.609375 21.1875 
Q 55.609375 10.40625 48.1875 4.484375 
Q 40.765625 -1.421875 27.09375 -1.421875 
Q 22.515625 -1.421875 17.65625 -0.515625 
Q 12.796875 0.390625 7.625 2.203125 
L 7.625 11.71875 
Q 11.71875 9.328125 16.59375 8.109375 
Q 21.484375 6.890625 26.8125 6.890625 
Q 36.078125 6.890625 40.9375 10.546875 
Q 45.796875 14.203125 45.796875 21.1875 
Q 45.796875 27.640625 41.28125 31.265625 
Q 36.765625 34.90625 28.71875 34.90625 
L 20.21875 34.90625 
L 20.21875 43.015625 
L 29.109375 43.015625 
Q 36.375 43.015625 40.234375 45.921875 
Q 44.09375 48.828125 44.09375 54.296875 
Q 44.09375 59.90625 40.109375 62.90625 
Q 36.140625 65.921875 28.71875 65.921875 
Q 24.65625 65.921875 20.015625 65.03125 
Q 15.375 64.15625 9.8125 62.3125 
L 9.8125 71.09375 
Q 15.4375 72.65625 20.34375 73.4375 
Q 25.25 74.21875 29.59375 74.21875 
Q 40.828125 74.21875 47.359375 69.109375 
Q 53.90625 64.015625 53.90625 55.328125 
Q 53.90625 49.265625 50.4375 45.09375 
Q 46.96875 40.921875 40.578125 39.3125 
z
" id="DejaVuSans-51"/>
      </defs>
      <g transform="translate(281.129952 552.597813)scale(0.14 -0.14)">
       <use xlink:href="#DejaVuSans-49"/>
       <use x="63.623047" xlink:href="#DejaVuSans-51"/>
       <use x="127.246094" xlink:href="#DejaVuSans-46"/>
       <use x="159.033203" xlink:href="#DejaVuSans-48"/>
      </g>
     </g>
    </g>
    <g id="xtick_6">
     <g id="line2d_8">
      <g>
       <use style="stroke:#000000;stroke-width:0.8;" x="357.998378" xlink:href="#m06ae8102c0" y="534.96"/>
      </g>
     </g>
     <g id="text_8">
      <!-- 13.5 -->
      <g transform="translate(342.41244 552.597813)scale(0.14 -0.14)">
       <use xlink:href="#DejaVuSans-49"/>
       <use x="63.623047" xlink:href="#DejaVuSans-51"/>
       <use x="127.246094" xlink:href="#DejaVuSans-46"/>
       <use x="159.033203" xlink:href="#DejaVuSans-53"/>
      </g>
     </g>
    </g>
    <g id="xtick_7">
     <g id="line2d_9">
      <g>
       <use style="stroke:#000000;stroke-width:0.8;" x="419.280866" xlink:href="#m06ae8102c0" y="534.96"/>
      </g>
     </g>
     <g id="text_9">
      <!-- 14.0 -->
      <defs>
       <path d="M 37.796875 64.3125 
L 12.890625 25.390625 
L 37.796875 25.390625 
z
M 35.203125 72.90625 
L 47.609375 72.90625 
L 47.609375 25.390625 
L 58.015625 25.390625 
L 58.015625 17.1875 
L 47.609375 17.1875 
L 47.609375 0 
L 37.796875 0 
L 37.796875 17.1875 
L 4.890625 17.1875 
L 4.890625 26.703125 
z
" id="DejaVuSans-52"/>
      </defs>
      <g transform="translate(403.694928 552.597813)scale(0.14 -0.14)">
       <use xlink:href="#DejaVuSans-49"/>
       <use x="63.623047" xlink:href="#DejaVuSans-52"/>
       <use x="127.246094" xlink:href="#DejaVuSans-46"/>
       <use x="159.033203" xlink:href="#DejaVuSans-48"/>
      </g>
     </g>
    </g>
    <g id="xtick_8">
     <g id="line2d_10">
      <g>
       <use style="stroke:#000000;stroke-width:0.8;" x="480.563354" xlink:href="#m06ae8102c0" y="534.96"/>
      </g>
     </g>
     <g id="text_10">
      <!-- 14.5 -->
      <g transform="translate(464.977416 552.597813)scale(0.14 -0.14)">
       <use xlink:href="#DejaVuSans-49"/>
       <use x="63.623047" xlink:href="#DejaVuSans-52"/>
       <use x="127.246094" xlink:href="#DejaVuSans-46"/>
       <use x="159.033203" xlink:href="#DejaVuSans-53"/>
      </g>
     </g>
    </g>
    <g id="xtick_9">
     <g id="line2d_11">
      <g>
       <use style="stroke:#000000;stroke-width:0.8;" x="541.845842" xlink:href="#m06ae8102c0" y="534.96"/>
      </g>
     </g>
     <g id="text_11">
      <!-- 15.0 -->
      <g transform="translate(526.259904 552.597813)scale(0.14 -0.14)">
       <use xlink:href="#DejaVuSans-49"/>
       <use x="63.623047" xlink:href="#DejaVuSans-53"/>
       <use x="127.246094" xlink:href="#DejaVuSans-46"/>
       <use x="159.033203" xlink:href="#DejaVuSans-48"/>
      </g>
     </g>
    </g>
   </g>
   <g id="line2d_12">
    <path clip-path="url(#p7d3395b655)" d="M 282.008092 534.96 
L 282.008092 410.22 
" style="fill:none;stroke:#ff6384;stroke-dasharray:5.55,2.4;stroke-dashoffset:0;stroke-opacity:0.8;stroke-width:1.5;"/>
   </g>
   <g id="line2d_13">
    <path clip-path="url(#p7d3395b655)" d="M 349.418829 534.96 
L 349.418829 410.22 
" style="fill:none;stroke:#36a2eb;stroke-dasharray:5.55,2.4;stroke-dashoffset:0;stroke-opacity:0.8;stroke-width:1.5;"/>
   </g>
   <g id="patch_10">
    <path d="M 47.591818 534.96 
L 549.791818 534.96 
" style="fill:none;stroke:#000000;stroke-linecap:square;stroke-linejoin:miter;stroke-width:0.8;"/>
   </g>
  </g>
 </g>
 <defs>
  <clipPath id="pc0e1fe9a05">
   <rect height="374.22" width="502.2" x="47.591818" y="36"/>
  </clipPath>
  <clipPath id="p7d3395b655">
   <rect height="124.74" width="502.2" x="47.591818" y="410.22"/>
  </clipPath>
 </defs>
</svg>
