<?xml version="1.0" encoding="utf-8" standalone="no"?>
<!DOCTYPE svg PUBLIC "-//W3C//DTD SVG 1.1//EN"
  "http://www.w3.org/Graphics/SVG/1.1/DTD/svg11.dtd">
<!-- Created with matplotlib (https://matplotlib.org/) -->
<svg height="581.789375pt" version="1.1" viewBox="0 0 577.513585 581.789375" width="577.513585pt" xmlns="http://www.w3.org/2000/svg" xmlns:xlink="http://www.w3.org/1999/xlink">
 <defs>
  <style type="text/css">
*{stroke-linecap:butt;stroke-linejoin:round;}
  </style>
 </defs>
 <g id="figure_1">
  <g id="patch_1">
   <path d="M 0 581.789375 
L 577.513585 581.789375 
L 577.513585 0 
L 0 0 
z
" style="fill:none;"/>
  </g>
  <g id="axes_1">
   <g id="patch_2">
    <path d="M 39.313585 402.93 
L 541.513585 402.93 
L 541.513585 36 
L 39.313585 36 
z
" style="fill:none;"/>
   </g>
   <g id="PolyCollection_1">
    <defs>
     <path d="M 62.140857 -195.538011 
L 62.140857 -195.631311 
L 66.496453 -195.666493 
L 70.852048 -195.71379 
L 75.207644 -195.776933 
L 79.563239 -195.860643 
L 83.918834 -195.970847 
L 88.27443 -196.114916 
L 92.630025 -196.301932 
L 96.985621 -196.54299 
L 101.341216 -196.85151 
L 105.696811 -197.243569 
L 110.052407 -197.738237 
L 114.408002 -198.357902 
L 118.763598 -199.128563 
L 123.119193 -200.080087 
L 127.474788 -201.246373 
L 131.830384 -202.665438 
L 136.185979 -204.379352 
L 140.541575 -206.434022 
L 144.89717 -208.878786 
L 149.252765 -211.765773 
L 153.608361 -215.149036 
L 157.963956 -219.083409 
L 162.319552 -223.623104 
L 166.675147 -228.820038 
L 171.030743 -234.72192 
L 175.386338 -241.370118 
L 179.741933 -248.797374 
L 184.097529 -257.025421 
L 188.453124 -266.062591 
L 192.80872 -275.901521 
L 197.164315 -286.517055 
L 201.51991 -297.864463 
L 205.875506 -309.878106 
L 210.231101 -322.470636 
L 214.586697 -335.532859 
L 218.942292 -348.934325 
L 223.297887 -362.524709 
L 227.653483 -376.136001 
L 232.009078 -389.585499 
L 236.364674 -402.679561 
L 240.720269 -415.217999 
L 245.075865 -426.999025 
L 249.43146 -437.824551 
L 253.787055 -447.505672 
L 258.142651 -455.868121 
L 262.498246 -462.75747 
L 266.853842 -468.043867 
L 271.209437 -471.626104 
L 275.565032 -473.434844 
L 279.920628 -473.434844 
L 284.276223 -471.626104 
L 288.631819 -468.043867 
L 292.987414 -462.75747 
L 297.343009 -455.868121 
L 301.698605 -447.505672 
L 306.0542 -437.824551 
L 310.409796 -426.999025 
L 314.765391 -415.217999 
L 319.120987 -402.679561 
L 323.476582 -389.585499 
L 327.832177 -376.136001 
L 332.187773 -362.524709 
L 336.543368 -348.934325 
L 340.898964 -335.532859 
L 345.254559 -322.470636 
L 349.610154 -309.878106 
L 353.96575 -297.864463 
L 358.321345 -286.517055 
L 362.676941 -275.901521 
L 367.032536 -266.062591 
L 371.388131 -257.025421 
L 375.743727 -248.797374 
L 380.099322 -241.370118 
L 384.454918 -234.72192 
L 388.810513 -228.820038 
L 393.166109 -223.623104 
L 397.521704 -219.083409 
L 401.877299 -215.149036 
L 406.232895 -211.765773 
L 410.58849 -208.878786 
L 414.944086 -206.434022 
L 419.299681 -204.379352 
L 423.655276 -202.665438 
L 428.010872 -201.246373 
L 432.366467 -200.080087 
L 436.722063 -199.128563 
L 441.077658 -198.357902 
L 445.433253 -197.738237 
L 449.788849 -197.243569 
L 454.144444 -196.85151 
L 458.50004 -196.54299 
L 462.855635 -196.301932 
L 467.211231 -196.114916 
L 471.566826 -195.970847 
L 475.922421 -195.860643 
L 480.278017 -195.776933 
L 484.633612 -195.71379 
L 488.989208 -195.666493 
L 493.344803 -195.631311 
L 493.344803 -195.538011 
L 493.344803 -195.538011 
L 488.989208 -195.538011 
L 484.633612 -195.538011 
L 480.278017 -195.538011 
L 475.922421 -195.538011 
L 471.566826 -195.538011 
L 467.211231 -195.538011 
L 462.855635 -195.538011 
L 458.50004 -195.538011 
L 454.144444 -195.538011 
L 449.788849 -195.538011 
L 445.433253 -195.538011 
L 441.077658 -195.538011 
L 436.722063 -195.538011 
L 432.366467 -195.538011 
L 428.010872 -195.538011 
L 423.655276 -195.538011 
L 419.299681 -195.538011 
L 414.944086 -195.538011 
L 410.58849 -195.538011 
L 406.232895 -195.538011 
L 401.877299 -195.538011 
L 397.521704 -195.538011 
L 393.166109 -195.538011 
L 388.810513 -195.538011 
L 384.454918 -195.538011 
L 380.099322 -195.538011 
L 375.743727 -195.538011 
L 371.388131 -195.538011 
L 367.032536 -195.538011 
L 362.676941 -195.538011 
L 358.321345 -195.538011 
L 353.96575 -195.538011 
L 349.610154 -195.538011 
L 345.254559 -195.538011 
L 340.898964 -195.538011 
L 336.543368 -195.538011 
L 332.187773 -195.538011 
L 327.832177 -195.538011 
L 323.476582 -195.538011 
L 319.120987 -195.538011 
L 314.765391 -195.538011 
L 310.409796 -195.538011 
L 306.0542 -195.538011 
L 301.698605 -195.538011 
L 297.343009 -195.538011 
L 292.987414 -195.538011 
L 288.631819 -195.538011 
L 284.276223 -195.538011 
L 279.920628 -195.538011 
L 275.565032 -195.538011 
L 271.209437 -195.538011 
L 266.853842 -195.538011 
L 262.498246 -195.538011 
L 258.142651 -195.538011 
L 253.787055 -195.538011 
L 249.43146 -195.538011 
L 245.075865 -195.538011 
L 240.720269 -195.538011 
L 236.364674 -195.538011 
L 232.009078 -195.538011 
L 227.653483 -195.538011 
L 223.297887 -195.538011 
L 218.942292 -195.538011 
L 214.586697 -195.538011 
L 210.231101 -195.538011 
L 205.875506 -195.538011 
L 201.51991 -195.538011 
L 197.164315 -195.538011 
L 192.80872 -195.538011 
L 188.453124 -195.538011 
L 184.097529 -195.538011 
L 179.741933 -195.538011 
L 175.386338 -195.538011 
L 171.030743 -195.538011 
L 166.675147 -195.538011 
L 162.319552 -195.538011 
L 157.963956 -195.538011 
L 153.608361 -195.538011 
L 149.252765 -195.538011 
L 144.89717 -195.538011 
L 140.541575 -195.538011 
L 136.185979 -195.538011 
L 131.830384 -195.538011 
L 127.474788 -195.538011 
L 123.119193 -195.538011 
L 118.763598 -195.538011 
L 114.408002 -195.538011 
L 110.052407 -195.538011 
L 105.696811 -195.538011 
L 101.341216 -195.538011 
L 96.985621 -195.538011 
L 92.630025 -195.538011 
L 88.27443 -195.538011 
L 83.918834 -195.538011 
L 79.563239 -195.538011 
L 75.207644 -195.538011 
L 70.852048 -195.538011 
L 66.496453 -195.538011 
L 62.140857 -195.538011 
z
" id="m4d487141b6" style="stroke:#ff6384;stroke-opacity:0.5;"/>
    </defs>
    <g clip-path="url(#pf10c142abb)">
     <use style="fill:#ff6384;fill-opacity:0.5;stroke:#ff6384;stroke-opacity:0.5;" x="0" xlink:href="#m4d487141b6" y="581.789375"/>
    </g>
   </g>
   <g id="PolyCollection_2">
    <defs>
     <path d="M 159.453674 -195.538011 
L 159.453674 -195.650004 
L 163.082287 -195.692234 
L 166.710899 -195.749007 
L 170.339512 -195.8248 
L 173.968124 -195.925281 
L 177.596737 -196.057565 
L 181.225349 -196.230497 
L 184.853962 -196.454982 
L 188.482574 -196.744335 
L 192.111187 -197.114666 
L 195.739799 -197.585273 
L 199.368412 -198.179047 
L 202.997024 -198.922859 
L 206.625637 -199.847921 
L 210.254249 -200.990079 
L 213.882862 -202.390029 
L 217.511474 -204.093399 
L 221.140087 -206.150691 
L 224.768699 -208.617009 
L 228.397312 -211.551575 
L 232.025924 -215.016962 
L 235.654537 -219.078053 
L 239.283149 -223.800667 
L 242.911762 -229.249878 
L 246.540374 -235.488004 
L 250.168987 -242.572312 
L 253.797599 -250.552459 
L 257.426212 -259.467747 
L 261.054824 -269.344261 
L 264.683437 -280.192004 
L 268.312049 -292.002137 
L 271.940662 -304.744465 
L 275.569274 -318.365297 
L 279.197887 -332.785841 
L 282.826499 -347.901251 
L 286.455112 -363.580456 
L 290.083724 -379.666871 
L 293.712337 -395.980052 
L 297.340949 -412.31833 
L 300.969562 -428.4624 
L 304.598174 -444.179822 
L 308.226787 -459.230303 
L 311.855399 -473.371627 
L 315.484012 -486.366018 
L 319.112624 -497.986726 
L 322.741237 -508.02457 
L 326.369849 -516.294181 
L 329.998462 -522.639693 
L 333.627074 -526.939623 
L 337.255687 -529.110739 
L 340.884299 -529.110739 
L 344.512912 -526.939623 
L 348.141524 -522.639693 
L 351.770137 -516.294181 
L 355.398749 -508.02457 
L 359.027362 -497.986726 
L 362.655974 -486.366018 
L 366.284587 -473.371627 
L 369.913199 -459.230303 
L 373.541812 -444.179822 
L 377.170424 -428.4624 
L 380.799037 -412.31833 
L 384.427649 -395.980052 
L 388.056262 -379.666871 
L 391.684874 -363.580456 
L 395.313487 -347.901251 
L 398.942099 -332.785841 
L 402.570712 -318.365297 
L 406.199324 -304.744465 
L 409.827937 -292.002137 
L 413.456549 -280.192004 
L 417.085162 -269.344261 
L 420.713774 -259.467747 
L 424.342387 -250.552459 
L 427.970999 -242.572312 
L 431.599612 -235.488004 
L 435.228224 -229.249878 
L 438.856837 -223.800667 
L 442.485449 -219.078053 
L 446.114062 -215.016962 
L 449.742674 -211.551575 
L 453.371287 -208.617009 
L 456.999899 -206.150691 
L 460.628512 -204.093399 
L 464.257124 -202.390029 
L 467.885737 -200.990079 
L 471.514349 -199.847921 
L 475.142962 -198.922859 
L 478.771574 -198.179047 
L 482.400187 -197.585273 
L 486.028799 -197.114666 
L 489.657412 -196.744335 
L 493.286024 -196.454982 
L 496.914637 -196.230497 
L 500.543249 -196.057565 
L 504.171862 -195.925281 
L 507.800474 -195.8248 
L 511.429087 -195.749007 
L 515.057699 -195.692234 
L 518.686312 -195.650004 
L 518.686312 -195.538011 
L 518.686312 -195.538011 
L 515.057699 -195.538011 
L 511.429087 -195.538011 
L 507.800474 -195.538011 
L 504.171862 -195.538011 
L 500.543249 -195.538011 
L 496.914637 -195.538011 
L 493.286024 -195.538011 
L 489.657412 -195.538011 
L 486.028799 -195.538011 
L 482.400187 -195.538011 
L 478.771574 -195.538011 
L 475.142962 -195.538011 
L 471.514349 -195.538011 
L 467.885737 -195.538011 
L 464.257124 -195.538011 
L 460.628512 -195.538011 
L 456.999899 -195.538011 
L 453.371287 -195.538011 
L 449.742674 -195.538011 
L 446.114062 -195.538011 
L 442.485449 -195.538011 
L 438.856837 -195.538011 
L 435.228224 -195.538011 
L 431.599612 -195.538011 
L 427.970999 -195.538011 
L 424.342387 -195.538011 
L 420.713774 -195.538011 
L 417.085162 -195.538011 
L 413.456549 -195.538011 
L 409.827937 -195.538011 
L 406.199324 -195.538011 
L 402.570712 -195.538011 
L 398.942099 -195.538011 
L 395.313487 -195.538011 
L 391.684874 -195.538011 
L 388.056262 -195.538011 
L 384.427649 -195.538011 
L 380.799037 -195.538011 
L 377.170424 -195.538011 
L 373.541812 -195.538011 
L 369.913199 -195.538011 
L 366.284587 -195.538011 
L 362.655974 -195.538011 
L 359.027362 -195.538011 
L 355.398749 -195.538011 
L 351.770137 -195.538011 
L 348.141524 -195.538011 
L 344.512912 -195.538011 
L 340.884299 -195.538011 
L 337.255687 -195.538011 
L 333.627074 -195.538011 
L 329.998462 -195.538011 
L 326.369849 -195.538011 
L 322.741237 -195.538011 
L 319.112624 -195.538011 
L 315.484012 -195.538011 
L 311.855399 -195.538011 
L 308.226787 -195.538011 
L 304.598174 -195.538011 
L 300.969562 -195.538011 
L 297.340949 -195.538011 
L 293.712337 -195.538011 
L 290.083724 -195.538011 
L 286.455112 -195.538011 
L 282.826499 -195.538011 
L 279.197887 -195.538011 
L 275.569274 -195.538011 
L 271.940662 -195.538011 
L 268.312049 -195.538011 
L 264.683437 -195.538011 
L 261.054824 -195.538011 
L 257.426212 -195.538011 
L 253.797599 -195.538011 
L 250.168987 -195.538011 
L 246.540374 -195.538011 
L 242.911762 -195.538011 
L 239.283149 -195.538011 
L 235.654537 -195.538011 
L 232.025924 -195.538011 
L 228.397312 -195.538011 
L 224.768699 -195.538011 
L 221.140087 -195.538011 
L 217.511474 -195.538011 
L 213.882862 -195.538011 
L 210.254249 -195.538011 
L 206.625637 -195.538011 
L 202.997024 -195.538011 
L 199.368412 -195.538011 
L 195.739799 -195.538011 
L 192.111187 -195.538011 
L 188.482574 -195.538011 
L 184.853962 -195.538011 
L 181.225349 -195.538011 
L 177.596737 -195.538011 
L 173.968124 -195.538011 
L 170.339512 -195.538011 
L 166.710899 -195.538011 
L 163.082287 -195.538011 
L 159.453674 -195.538011 
z
" id="m8f83d72093" style="stroke:#36a2eb;stroke-opacity:0.5;"/>
    </defs>
    <g clip-path="url(#pf10c142abb)">
     <use style="fill:#36a2eb;fill-opacity:0.5;stroke:#36a2eb;stroke-opacity:0.5;" x="0" xlink:href="#m8f83d72093" y="581.789375"/>
    </g>
   </g>
   <g id="line2d_1">
    <path clip-path="url(#pf10c142abb)" d="M 62.140857 386.158064 
L 66.496453 386.122882 
L 70.852048 386.075585 
L 75.207644 386.012442 
L 79.563239 385.928732 
L 83.918834 385.818528 
L 88.27443 385.674459 
L 92.630025 385.487443 
L 96.985621 385.246385 
L 101.341216 384.937865 
L 105.696811 384.545806 
L 110.052407 384.051138 
L 114.408002 383.431473 
L 118.763598 382.660812 
L 123.119193 381.709288 
L 127.474788 380.543002 
L 131.830384 379.123937 
L 136.185979 377.410023 
L 140.541575 375.355353 
L 144.89717 372.910589 
L 149.252765 370.023602 
L 153.608361 366.640339 
L 157.963956 362.705966 
L 162.319552 358.166271 
L 166.675147 352.969337 
L 171.030743 347.067455 
L 175.386338 340.419257 
L 179.741933 332.992001 
L 184.097529 324.763954 
L 188.453124 315.726784 
L 192.80872 305.887854 
L 197.164315 295.27232 
L 201.51991 283.924912 
L 205.875506 271.911269 
L 210.231101 259.318739 
L 214.586697 246.256516 
L 218.942292 232.85505 
L 223.297887 219.264666 
L 227.653483 205.653374 
L 232.009078 192.203876 
L 236.364674 179.109814 
L 240.720269 166.571376 
L 245.075865 154.79035 
L 249.43146 143.964824 
L 253.787055 134.283703 
L 258.142651 125.921254 
L 262.498246 119.031905 
L 266.853842 113.745508 
L 271.209437 110.163271 
L 275.565032 108.354531 
L 279.920628 108.354531 
L 284.276223 110.163271 
L 288.631819 113.745508 
L 292.987414 119.031905 
L 297.343009 125.921254 
L 301.698605 134.283703 
L 306.0542 143.964824 
L 310.409796 154.79035 
L 314.765391 166.571376 
L 319.120987 179.109814 
L 323.476582 192.203876 
L 327.832177 205.653374 
L 332.187773 219.264666 
L 336.543368 232.85505 
L 340.898964 246.256516 
L 345.254559 259.318739 
L 349.610154 271.911269 
L 353.96575 283.924912 
L 358.321345 295.27232 
L 362.676941 305.887854 
L 367.032536 315.726784 
L 371.388131 324.763954 
L 375.743727 332.992001 
L 380.099322 340.419257 
L 384.454918 347.067455 
L 388.810513 352.969337 
L 393.166109 358.166271 
L 397.521704 362.705966 
L 401.877299 366.640339 
L 406.232895 370.023602 
L 410.58849 372.910589 
L 414.944086 375.355353 
L 419.299681 377.410023 
L 423.655276 379.123937 
L 428.010872 380.543002 
L 432.366467 381.709288 
L 436.722063 382.660812 
L 441.077658 383.431473 
L 445.433253 384.051138 
L 449.788849 384.545806 
L 454.144444 384.937865 
L 458.50004 385.246385 
L 462.855635 385.487443 
L 467.211231 385.674459 
L 471.566826 385.818528 
L 475.922421 385.928732 
L 480.278017 386.012442 
L 484.633612 386.075585 
L 488.989208 386.122882 
L 493.344803 386.158064 
" style="fill:none;stroke:#ff6384;stroke-linecap:square;"/>
   </g>
   <g id="line2d_2">
    <path clip-path="url(#pf10c142abb)" d="M 159.453674 386.139371 
L 163.082287 386.097141 
L 166.710899 386.040368 
L 170.339512 385.964575 
L 173.968124 385.864094 
L 177.596737 385.73181 
L 181.225349 385.558878 
L 184.853962 385.334393 
L 188.482574 385.04504 
L 192.111187 384.674709 
L 195.739799 384.204102 
L 199.368412 383.610328 
L 202.997024 382.866516 
L 206.625637 381.941454 
L 210.254249 380.799296 
L 213.882862 379.399346 
L 217.511474 377.695976 
L 221.140087 375.638684 
L 224.768699 373.172366 
L 228.397312 370.2378 
L 232.025924 366.772413 
L 235.654537 362.711322 
L 239.283149 357.988708 
L 242.911762 352.539497 
L 246.540374 346.301371 
L 250.168987 339.217063 
L 253.797599 331.236916 
L 257.426212 322.321628 
L 261.054824 312.445114 
L 264.683437 301.597371 
L 268.312049 289.787238 
L 271.940662 277.04491 
L 275.569274 263.424078 
L 279.197887 249.003534 
L 282.826499 233.888124 
L 286.455112 218.208919 
L 290.083724 202.122504 
L 293.712337 185.809323 
L 297.340949 169.471045 
L 300.969562 153.326975 
L 304.598174 137.609553 
L 308.226787 122.559072 
L 311.855399 108.417748 
L 315.484012 95.423357 
L 319.112624 83.802649 
L 322.741237 73.764805 
L 326.369849 65.495194 
L 329.998462 59.149682 
L 333.627074 54.849752 
L 337.255687 52.678636 
L 340.884299 52.678636 
L 344.512912 54.849752 
L 348.141524 59.149682 
L 351.770137 65.495194 
L 355.398749 73.764805 
L 359.027362 83.802649 
L 362.655974 95.423357 
L 366.284587 108.417748 
L 369.913199 122.559072 
L 373.541812 137.609553 
L 377.170424 153.326975 
L 380.799037 169.471045 
L 384.427649 185.809323 
L 388.056262 202.122504 
L 391.684874 218.208919 
L 395.313487 233.888124 
L 398.942099 249.003534 
L 402.570712 263.424078 
L 406.199324 277.04491 
L 409.827937 289.787238 
L 413.456549 301.597371 
L 417.085162 312.445114 
L 420.713774 322.321628 
L 424.342387 331.236916 
L 427.970999 339.217063 
L 431.599612 346.301371 
L 435.228224 352.539497 
L 438.856837 357.988708 
L 442.485449 362.711322 
L 446.114062 366.772413 
L 449.742674 370.2378 
L 453.371287 373.172366 
L 456.999899 375.638684 
L 460.628512 377.695976 
L 464.257124 379.399346 
L 467.885737 380.799296 
L 471.514349 381.941454 
L 475.142962 382.866516 
L 478.771574 383.610328 
L 482.400187 384.204102 
L 486.028799 384.674709 
L 489.657412 385.04504 
L 493.286024 385.334393 
L 496.914637 385.558878 
L 500.543249 385.73181 
L 504.171862 385.864094 
L 507.800474 385.964575 
L 511.429087 386.040368 
L 515.057699 386.097141 
L 518.686312 386.139371 
" style="fill:none;stroke:#36a2eb;stroke-linecap:square;"/>
   </g>
   <g id="patch_3">
    <path d="M 39.313585 402.93 
L 541.513585 402.93 
" style="fill:none;stroke:#000000;stroke-linecap:square;stroke-linejoin:miter;stroke-width:0.8;"/>
   </g>
   <g id="legend_1">
    <g id="patch_4">
     <path d="M 381.432335 88.688125 
L 531.713585 88.688125 
Q 534.513585 88.688125 534.513585 85.888125 
L 534.513585 45.8 
Q 534.513585 43 531.713585 43 
L 381.432335 43 
Q 378.632335 43 378.632335 45.8 
L 378.632335 85.888125 
Q 378.632335 88.688125 381.432335 88.688125 
z
" style="fill:#ffffff;opacity:0.8;stroke:#cccccc;stroke-linejoin:miter;"/>
    </g>
    <g id="patch_5">
     <path d="M 384.232335 59.237813 
L 412.232335 59.237813 
L 412.232335 49.437813 
L 384.232335 49.437813 
z
" style="fill:#ff6384;opacity:0.5;stroke:#ff6384;stroke-linejoin:miter;"/>
    </g>
    <g id="text_1">
     <!-- base -->
     <defs>
      <path d="M 48.6875 27.296875 
Q 48.6875 37.203125 44.609375 42.84375 
Q 40.53125 48.484375 33.40625 48.484375 
Q 26.265625 48.484375 22.1875 42.84375 
Q 18.109375 37.203125 18.109375 27.296875 
Q 18.109375 17.390625 22.1875 11.75 
Q 26.265625 6.109375 33.40625 6.109375 
Q 40.53125 6.109375 44.609375 11.75 
Q 48.6875 17.390625 48.6875 27.296875 
z
M 18.109375 46.390625 
Q 20.953125 51.265625 25.265625 53.625 
Q 29.59375 56 35.59375 56 
Q 45.5625 56 51.78125 48.09375 
Q 58.015625 40.1875 58.015625 27.296875 
Q 58.015625 14.40625 51.78125 6.484375 
Q 45.5625 -1.421875 35.59375 -1.421875 
Q 29.59375 -1.421875 25.265625 0.953125 
Q 20.953125 3.328125 18.109375 8.203125 
L 18.109375 0 
L 9.078125 0 
L 9.078125 75.984375 
L 18.109375 75.984375 
z
" id="DejaVuSans-98"/>
      <path d="M 34.28125 27.484375 
Q 23.390625 27.484375 19.1875 25 
Q 14.984375 22.515625 14.984375 16.5 
Q 14.984375 11.71875 18.140625 8.90625 
Q 21.296875 6.109375 26.703125 6.109375 
Q 34.1875 6.109375 38.703125 11.40625 
Q 43.21875 16.703125 43.21875 25.484375 
L 43.21875 27.484375 
z
M 52.203125 31.203125 
L 52.203125 0 
L 43.21875 0 
L 43.21875 8.296875 
Q 40.140625 3.328125 35.546875 0.953125 
Q 30.953125 -1.421875 24.3125 -1.421875 
Q 15.921875 -1.421875 10.953125 3.296875 
Q 6 8.015625 6 15.921875 
Q 6 25.140625 12.171875 29.828125 
Q 18.359375 34.515625 30.609375 34.515625 
L 43.21875 34.515625 
L 43.21875 35.40625 
Q 43.21875 41.609375 39.140625 45 
Q 35.0625 48.390625 27.6875 48.390625 
Q 23 48.390625 18.546875 47.265625 
Q 14.109375 46.140625 10.015625 43.890625 
L 10.015625 52.203125 
Q 14.9375 54.109375 19.578125 55.046875 
Q 24.21875 56 28.609375 56 
Q 40.484375 56 46.34375 49.84375 
Q 52.203125 43.703125 52.203125 31.203125 
z
" id="DejaVuSans-97"/>
      <path d="M 44.28125 53.078125 
L 44.28125 44.578125 
Q 40.484375 46.53125 36.375 47.5 
Q 32.28125 48.484375 27.875 48.484375 
Q 21.1875 48.484375 17.84375 46.4375 
Q 14.5 44.390625 14.5 40.28125 
Q 14.5 37.15625 16.890625 35.375 
Q 19.28125 33.59375 26.515625 31.984375 
L 29.59375 31.296875 
Q 39.15625 29.25 43.1875 25.515625 
Q 47.21875 21.78125 47.21875 15.09375 
Q 47.21875 7.46875 41.1875 3.015625 
Q 35.15625 -1.421875 24.609375 -1.421875 
Q 20.21875 -1.421875 15.453125 -0.5625 
Q 10.6875 0.296875 5.421875 2 
L 5.421875 11.28125 
Q 10.40625 8.6875 15.234375 7.390625 
Q 20.0625 6.109375 24.8125 6.109375 
Q 31.15625 6.109375 34.5625 8.28125 
Q 37.984375 10.453125 37.984375 14.40625 
Q 37.984375 18.0625 35.515625 20.015625 
Q 33.0625 21.96875 24.703125 23.78125 
L 21.578125 24.515625 
Q 13.234375 26.265625 9.515625 29.90625 
Q 5.8125 33.546875 5.8125 39.890625 
Q 5.8125 47.609375 11.28125 51.796875 
Q 16.75 56 26.8125 56 
Q 31.78125 56 36.171875 55.265625 
Q 40.578125 54.546875 44.28125 53.078125 
z
" id="DejaVuSans-115"/>
      <path d="M 56.203125 29.59375 
L 56.203125 25.203125 
L 14.890625 25.203125 
Q 15.484375 15.921875 20.484375 11.0625 
Q 25.484375 6.203125 34.421875 6.203125 
Q 39.59375 6.203125 44.453125 7.46875 
Q 49.3125 8.734375 54.109375 11.28125 
L 54.109375 2.78125 
Q 49.265625 0.734375 44.1875 -0.34375 
Q 39.109375 -1.421875 33.890625 -1.421875 
Q 20.796875 -1.421875 13.15625 6.1875 
Q 5.515625 13.8125 5.515625 26.8125 
Q 5.515625 40.234375 12.765625 48.109375 
Q 20.015625 56 32.328125 56 
Q 43.359375 56 49.78125 48.890625 
Q 56.203125 41.796875 56.203125 29.59375 
z
M 47.21875 32.234375 
Q 47.125 39.59375 43.09375 43.984375 
Q 39.0625 48.390625 32.421875 48.390625 
Q 24.90625 48.390625 20.390625 44.140625 
Q 15.875 39.890625 15.1875 32.171875 
z
" id="DejaVuSans-101"/>
     </defs>
     <g transform="translate(423.432335 59.237813)scale(0.14 -0.14)">
      <use xlink:href="#DejaVuSans-98"/>
      <use x="63.476562" xlink:href="#DejaVuSans-97"/>
      <use x="124.755859" xlink:href="#DejaVuSans-115"/>
      <use x="176.855469" xlink:href="#DejaVuSans-101"/>
     </g>
    </g>
    <g id="patch_6">
     <path d="M 384.232335 79.787188 
L 412.232335 79.787188 
L 412.232335 69.987188 
L 384.232335 69.987188 
z
" style="fill:#36a2eb;opacity:0.5;stroke:#36a2eb;stroke-linejoin:miter;"/>
    </g>
    <g id="text_2">
     <!-- no_information -->
     <defs>
      <path d="M 54.890625 33.015625 
L 54.890625 0 
L 45.90625 0 
L 45.90625 32.71875 
Q 45.90625 40.484375 42.875 44.328125 
Q 39.84375 48.1875 33.796875 48.1875 
Q 26.515625 48.1875 22.3125 43.546875 
Q 18.109375 38.921875 18.109375 30.90625 
L 18.109375 0 
L 9.078125 0 
L 9.078125 54.6875 
L 18.109375 54.6875 
L 18.109375 46.1875 
Q 21.34375 51.125 25.703125 53.5625 
Q 30.078125 56 35.796875 56 
Q 45.21875 56 50.046875 50.171875 
Q 54.890625 44.34375 54.890625 33.015625 
z
" id="DejaVuSans-110"/>
      <path d="M 30.609375 48.390625 
Q 23.390625 48.390625 19.1875 42.75 
Q 14.984375 37.109375 14.984375 27.296875 
Q 14.984375 17.484375 19.15625 11.84375 
Q 23.34375 6.203125 30.609375 6.203125 
Q 37.796875 6.203125 41.984375 11.859375 
Q 46.1875 17.53125 46.1875 27.296875 
Q 46.1875 37.015625 41.984375 42.703125 
Q 37.796875 48.390625 30.609375 48.390625 
z
M 30.609375 56 
Q 42.328125 56 49.015625 48.375 
Q 55.71875 40.765625 55.71875 27.296875 
Q 55.71875 13.875 49.015625 6.21875 
Q 42.328125 -1.421875 30.609375 -1.421875 
Q 18.84375 -1.421875 12.171875 6.21875 
Q 5.515625 13.875 5.515625 27.296875 
Q 5.515625 40.765625 12.171875 48.375 
Q 18.84375 56 30.609375 56 
z
" id="DejaVuSans-111"/>
      <path d="M 50.984375 -16.609375 
L 50.984375 -23.578125 
L -0.984375 -23.578125 
L -0.984375 -16.609375 
z
" id="DejaVuSans-95"/>
      <path d="M 9.421875 54.6875 
L 18.40625 54.6875 
L 18.40625 0 
L 9.421875 0 
z
M 9.421875 75.984375 
L 18.40625 75.984375 
L 18.40625 64.59375 
L 9.421875 64.59375 
z
" id="DejaVuSans-105"/>
      <path d="M 37.109375 75.984375 
L 37.109375 68.5 
L 28.515625 68.5 
Q 23.6875 68.5 21.796875 66.546875 
Q 19.921875 64.59375 19.921875 59.515625 
L 19.921875 54.6875 
L 34.71875 54.6875 
L 34.71875 47.703125 
L 19.921875 47.703125 
L 19.921875 0 
L 10.890625 0 
L 10.890625 47.703125 
L 2.296875 47.703125 
L 2.296875 54.6875 
L 10.890625 54.6875 
L 10.890625 58.5 
Q 10.890625 67.625 15.140625 71.796875 
Q 19.390625 75.984375 28.609375 75.984375 
z
" id="DejaVuSans-102"/>
      <path d="M 41.109375 46.296875 
Q 39.59375 47.171875 37.8125 47.578125 
Q 36.03125 48 33.890625 48 
Q 26.265625 48 22.1875 43.046875 
Q 18.109375 38.09375 18.109375 28.8125 
L 18.109375 0 
L 9.078125 0 
L 9.078125 54.6875 
L 18.109375 54.6875 
L 18.109375 46.1875 
Q 20.953125 51.171875 25.484375 53.578125 
Q 30.03125 56 36.53125 56 
Q 37.453125 56 38.578125 55.875 
Q 39.703125 55.765625 41.0625 55.515625 
z
" id="DejaVuSans-114"/>
      <path d="M 52 44.1875 
Q 55.375 50.25 60.0625 53.125 
Q 64.75 56 71.09375 56 
Q 79.640625 56 84.28125 50.015625 
Q 88.921875 44.046875 88.921875 33.015625 
L 88.921875 0 
L 79.890625 0 
L 79.890625 32.71875 
Q 79.890625 40.578125 77.09375 44.375 
Q 74.3125 48.1875 68.609375 48.1875 
Q 61.625 48.1875 57.5625 43.546875 
Q 53.515625 38.921875 53.515625 30.90625 
L 53.515625 0 
L 44.484375 0 
L 44.484375 32.71875 
Q 44.484375 40.625 41.703125 44.40625 
Q 38.921875 48.1875 33.109375 48.1875 
Q 26.21875 48.1875 22.15625 43.53125 
Q 18.109375 38.875 18.109375 30.90625 
L 18.109375 0 
L 9.078125 0 
L 9.078125 54.6875 
L 18.109375 54.6875 
L 18.109375 46.1875 
Q 21.1875 51.21875 25.484375 53.609375 
Q 29.78125 56 35.6875 56 
Q 41.65625 56 45.828125 52.96875 
Q 50 49.953125 52 44.1875 
z
" id="DejaVuSans-109"/>
      <path d="M 18.3125 70.21875 
L 18.3125 54.6875 
L 36.8125 54.6875 
L 36.8125 47.703125 
L 18.3125 47.703125 
L 18.3125 18.015625 
Q 18.3125 11.328125 20.140625 9.421875 
Q 21.96875 7.515625 27.59375 7.515625 
L 36.8125 7.515625 
L 36.8125 0 
L 27.59375 0 
Q 17.1875 0 13.234375 3.875 
Q 9.28125 7.765625 9.28125 18.015625 
L 9.28125 47.703125 
L 2.6875 47.703125 
L 2.6875 54.6875 
L 9.28125 54.6875 
L 9.28125 70.21875 
z
" id="DejaVuSans-116"/>
     </defs>
     <g transform="translate(423.432335 79.787188)scale(0.14 -0.14)">
      <use xlink:href="#DejaVuSans-110"/>
      <use x="63.378906" xlink:href="#DejaVuSans-111"/>
      <use x="124.560547" xlink:href="#DejaVuSans-95"/>
      <use x="174.560547" xlink:href="#DejaVuSans-105"/>
      <use x="202.34375" xlink:href="#DejaVuSans-110"/>
      <use x="265.722656" xlink:href="#DejaVuSans-102"/>
      <use x="300.927734" xlink:href="#DejaVuSans-111"/>
      <use x="362.109375" xlink:href="#DejaVuSans-114"/>
      <use x="403.207031" xlink:href="#DejaVuSans-109"/>
      <use x="500.619141" xlink:href="#DejaVuSans-97"/>
      <use x="561.898438" xlink:href="#DejaVuSans-116"/>
      <use x="601.107422" xlink:href="#DejaVuSans-105"/>
      <use x="628.890625" xlink:href="#DejaVuSans-111"/>
      <use x="690.072266" xlink:href="#DejaVuSans-110"/>
     </g>
    </g>
   </g>
  </g>
  <g id="axes_2">
   <g id="patch_7">
    <path d="M 39.313585 525.24 
L 541.513585 525.24 
L 541.513585 402.93 
L 39.313585 402.93 
z
" style="fill:none;"/>
   </g>
   <g id="patch_8">
    <path clip-path="url(#pb794bc0eb9)" d="M 172.097863 519.680455 
L 383.387797 519.680455 
L 383.387797 482.616818 
L 172.097863 482.616818 
z
" style="fill:#ff6384;opacity:0.5;"/>
   </g>
   <g id="patch_9">
    <path clip-path="url(#pb794bc0eb9)" d="M 251.057997 445.553182 
L 427.081989 445.553182 
L 427.081989 408.489545 
L 251.057997 408.489545 
z
" style="fill:#36a2eb;opacity:0.5;"/>
   </g>
   <g id="matplotlib.axis_1">
    <g id="xtick_1">
     <g id="line2d_3">
      <defs>
       <path d="M 0 0 
L 0 3.5 
" id="m033199ba40" style="stroke:#000000;stroke-width:0.8;"/>
      </defs>
      <g>
       <use style="stroke:#000000;stroke-width:0.8;" x="44.9075" xlink:href="#m033199ba40" y="525.24"/>
      </g>
     </g>
     <g id="text_3">
      <!-- 35 -->
      <defs>
       <path d="M 40.578125 39.3125 
Q 47.65625 37.796875 51.625 33 
Q 55.609375 28.21875 55.609375 21.1875 
Q 55.609375 10.40625 48.1875 4.484375 
Q 40.765625 -1.421875 27.09375 -1.421875 
Q 22.515625 -1.421875 17.65625 -0.515625 
Q 12.796875 0.390625 7.625 2.203125 
L 7.625 11.71875 
Q 11.71875 9.328125 16.59375 8.109375 
Q 21.484375 6.890625 26.8125 6.890625 
Q 36.078125 6.890625 40.9375 10.546875 
Q 45.796875 14.203125 45.796875 21.1875 
Q 45.796875 27.640625 41.28125 31.265625 
Q 36.765625 34.90625 28.71875 34.90625 
L 20.21875 34.90625 
L 20.21875 43.015625 
L 29.109375 43.015625 
Q 36.375 43.015625 40.234375 45.921875 
Q 44.09375 48.828125 44.09375 54.296875 
Q 44.09375 59.90625 40.109375 62.90625 
Q 36.140625 65.921875 28.71875 65.921875 
Q 24.65625 65.921875 20.015625 65.03125 
Q 15.375 64.15625 9.8125 62.3125 
L 9.8125 71.09375 
Q 15.4375 72.65625 20.34375 73.4375 
Q 25.25 74.21875 29.59375 74.21875 
Q 40.828125 74.21875 47.359375 69.109375 
Q 53.90625 64.015625 53.90625 55.328125 
Q 53.90625 49.265625 50.4375 45.09375 
Q 46.96875 40.921875 40.578125 39.3125 
z
" id="DejaVuSans-51"/>
       <path d="M 10.796875 72.90625 
L 49.515625 72.90625 
L 49.515625 64.59375 
L 19.828125 64.59375 
L 19.828125 46.734375 
Q 21.96875 47.46875 24.109375 47.828125 
Q 26.265625 48.1875 28.421875 48.1875 
Q 40.625 48.1875 47.75 41.5 
Q 54.890625 34.8125 54.890625 23.390625 
Q 54.890625 11.625 47.5625 5.09375 
Q 40.234375 -1.421875 26.90625 -1.421875 
Q 22.3125 -1.421875 17.546875 -0.640625 
Q 12.796875 0.140625 7.71875 1.703125 
L 7.71875 11.625 
Q 12.109375 9.234375 16.796875 8.0625 
Q 21.484375 6.890625 26.703125 6.890625 
Q 35.15625 6.890625 40.078125 11.328125 
Q 45.015625 15.765625 45.015625 23.390625 
Q 45.015625 31 40.078125 35.4375 
Q 35.15625 39.890625 26.703125 39.890625 
Q 22.75 39.890625 18.8125 39.015625 
Q 14.890625 38.140625 10.796875 36.28125 
z
" id="DejaVuSans-53"/>
      </defs>
      <g transform="translate(36 542.877813)scale(0.14 -0.14)">
       <use xlink:href="#DejaVuSans-51"/>
       <use x="63.623047" xlink:href="#DejaVuSans-53"/>
      </g>
     </g>
    </g>
    <g id="xtick_2">
     <g id="line2d_4">
      <g>
       <use style="stroke:#000000;stroke-width:0.8;" x="148.851844" xlink:href="#m033199ba40" y="525.24"/>
      </g>
     </g>
     <g id="text_4">
      <!-- 36 -->
      <defs>
       <path d="M 33.015625 40.375 
Q 26.375 40.375 22.484375 35.828125 
Q 18.609375 31.296875 18.609375 23.390625 
Q 18.609375 15.53125 22.484375 10.953125 
Q 26.375 6.390625 33.015625 6.390625 
Q 39.65625 6.390625 43.53125 10.953125 
Q 47.40625 15.53125 47.40625 23.390625 
Q 47.40625 31.296875 43.53125 35.828125 
Q 39.65625 40.375 33.015625 40.375 
z
M 52.59375 71.296875 
L 52.59375 62.3125 
Q 48.875 64.0625 45.09375 64.984375 
Q 41.3125 65.921875 37.59375 65.921875 
Q 27.828125 65.921875 22.671875 59.328125 
Q 17.53125 52.734375 16.796875 39.40625 
Q 19.671875 43.65625 24.015625 45.921875 
Q 28.375 48.1875 33.59375 48.1875 
Q 44.578125 48.1875 50.953125 41.515625 
Q 57.328125 34.859375 57.328125 23.390625 
Q 57.328125 12.15625 50.6875 5.359375 
Q 44.046875 -1.421875 33.015625 -1.421875 
Q 20.359375 -1.421875 13.671875 8.265625 
Q 6.984375 17.96875 6.984375 36.375 
Q 6.984375 53.65625 15.1875 63.9375 
Q 23.390625 74.21875 37.203125 74.21875 
Q 40.921875 74.21875 44.703125 73.484375 
Q 48.484375 72.75 52.59375 71.296875 
z
" id="DejaVuSans-54"/>
      </defs>
      <g transform="translate(139.944344 542.877813)scale(0.14 -0.14)">
       <use xlink:href="#DejaVuSans-51"/>
       <use x="63.623047" xlink:href="#DejaVuSans-54"/>
      </g>
     </g>
    </g>
    <g id="xtick_3">
     <g id="line2d_5">
      <g>
       <use style="stroke:#000000;stroke-width:0.8;" x="252.796188" xlink:href="#m033199ba40" y="525.24"/>
      </g>
     </g>
     <g id="text_5">
      <!-- 37 -->
      <defs>
       <path d="M 8.203125 72.90625 
L 55.078125 72.90625 
L 55.078125 68.703125 
L 28.609375 0 
L 18.3125 0 
L 43.21875 64.59375 
L 8.203125 64.59375 
z
" id="DejaVuSans-55"/>
      </defs>
      <g transform="translate(243.888688 542.877813)scale(0.14 -0.14)">
       <use xlink:href="#DejaVuSans-51"/>
       <use x="63.623047" xlink:href="#DejaVuSans-55"/>
      </g>
     </g>
    </g>
    <g id="xtick_4">
     <g id="line2d_6">
      <g>
       <use style="stroke:#000000;stroke-width:0.8;" x="356.740531" xlink:href="#m033199ba40" y="525.24"/>
      </g>
     </g>
     <g id="text_6">
      <!-- 38 -->
      <defs>
       <path d="M 31.78125 34.625 
Q 24.75 34.625 20.71875 30.859375 
Q 16.703125 27.09375 16.703125 20.515625 
Q 16.703125 13.921875 20.71875 10.15625 
Q 24.75 6.390625 31.78125 6.390625 
Q 38.8125 6.390625 42.859375 10.171875 
Q 46.921875 13.96875 46.921875 20.515625 
Q 46.921875 27.09375 42.890625 30.859375 
Q 38.875 34.625 31.78125 34.625 
z
M 21.921875 38.8125 
Q 15.578125 40.375 12.03125 44.71875 
Q 8.5 49.078125 8.5 55.328125 
Q 8.5 64.0625 14.71875 69.140625 
Q 20.953125 74.21875 31.78125 74.21875 
Q 42.671875 74.21875 48.875 69.140625 
Q 55.078125 64.0625 55.078125 55.328125 
Q 55.078125 49.078125 51.53125 44.71875 
Q 48 40.375 41.703125 38.8125 
Q 48.828125 37.15625 52.796875 32.3125 
Q 56.78125 27.484375 56.78125 20.515625 
Q 56.78125 9.90625 50.3125 4.234375 
Q 43.84375 -1.421875 31.78125 -1.421875 
Q 19.734375 -1.421875 13.25 4.234375 
Q 6.78125 9.90625 6.78125 20.515625 
Q 6.78125 27.484375 10.78125 32.3125 
Q 14.796875 37.15625 21.921875 38.8125 
z
M 18.3125 54.390625 
Q 18.3125 48.734375 21.84375 45.5625 
Q 25.390625 42.390625 31.78125 42.390625 
Q 38.140625 42.390625 41.71875 45.5625 
Q 45.3125 48.734375 45.3125 54.390625 
Q 45.3125 60.0625 41.71875 63.234375 
Q 38.140625 66.40625 31.78125 66.40625 
Q 25.390625 66.40625 21.84375 63.234375 
Q 18.3125 60.0625 18.3125 54.390625 
z
" id="DejaVuSans-56"/>
      </defs>
      <g transform="translate(347.833031 542.877813)scale(0.14 -0.14)">
       <use xlink:href="#DejaVuSans-51"/>
       <use x="63.623047" xlink:href="#DejaVuSans-56"/>
      </g>
     </g>
    </g>
    <g id="xtick_5">
     <g id="line2d_7">
      <g>
       <use style="stroke:#000000;stroke-width:0.8;" x="460.684875" xlink:href="#m033199ba40" y="525.24"/>
      </g>
     </g>
     <g id="text_7">
      <!-- 39 -->
      <defs>
       <path d="M 10.984375 1.515625 
L 10.984375 10.5 
Q 14.703125 8.734375 18.5 7.8125 
Q 22.3125 6.890625 25.984375 6.890625 
Q 35.75 6.890625 40.890625 13.453125 
Q 46.046875 20.015625 46.78125 33.40625 
Q 43.953125 29.203125 39.59375 26.953125 
Q 35.25 24.703125 29.984375 24.703125 
Q 19.046875 24.703125 12.671875 31.3125 
Q 6.296875 37.9375 6.296875 49.421875 
Q 6.296875 60.640625 12.9375 67.421875 
Q 19.578125 74.21875 30.609375 74.21875 
Q 43.265625 74.21875 49.921875 64.515625 
Q 56.59375 54.828125 56.59375 36.375 
Q 56.59375 19.140625 48.40625 8.859375 
Q 40.234375 -1.421875 26.421875 -1.421875 
Q 22.703125 -1.421875 18.890625 -0.6875 
Q 15.09375 0.046875 10.984375 1.515625 
z
M 30.609375 32.421875 
Q 37.25 32.421875 41.125 36.953125 
Q 45.015625 41.5 45.015625 49.421875 
Q 45.015625 57.28125 41.125 61.84375 
Q 37.25 66.40625 30.609375 66.40625 
Q 23.96875 66.40625 20.09375 61.84375 
Q 16.21875 57.28125 16.21875 49.421875 
Q 16.21875 41.5 20.09375 36.953125 
Q 23.96875 32.421875 30.609375 32.421875 
z
" id="DejaVuSans-57"/>
      </defs>
      <g transform="translate(451.777375 542.877813)scale(0.14 -0.14)">
       <use xlink:href="#DejaVuSans-51"/>
       <use x="63.623047" xlink:href="#DejaVuSans-57"/>
      </g>
     </g>
    </g>
   </g>
   <g id="line2d_8">
    <path clip-path="url(#pb794bc0eb9)" d="M 277.74283 525.24 
L 277.74283 402.93 
" style="fill:none;stroke:#ff6384;stroke-dasharray:5.55,2.4;stroke-dashoffset:0;stroke-opacity:0.8;stroke-width:1.5;"/>
   </g>
   <g id="line2d_9">
    <path clip-path="url(#pb794bc0eb9)" d="M 339.069993 525.24 
L 339.069993 402.93 
" style="fill:none;stroke:#36a2eb;stroke-dasharray:5.55,2.4;stroke-dashoffset:0;stroke-opacity:0.8;stroke-width:1.5;"/>
   </g>
   <g id="patch_10">
    <path d="M 39.313585 525.24 
L 541.513585 525.24 
" style="fill:none;stroke:#000000;stroke-linecap:square;stroke-linejoin:miter;stroke-width:0.8;"/>
   </g>
  </g>
 </g>
 <defs>
  <clipPath id="pf10c142abb">
   <rect height="366.93" width="502.2" x="39.313585" y="36"/>
  </clipPath>
  <clipPath id="pb794bc0eb9">
   <rect height="122.31" width="502.2" x="39.313585" y="402.93"/>
  </clipPath>
 </defs>
</svg>
