<?xml version="1.0" encoding="utf-8" standalone="no"?>
<!DOCTYPE svg PUBLIC "-//W3C//DTD SVG 1.1//EN"
  "http://www.w3.org/Graphics/SVG/1.1/DTD/svg11.dtd">
<!-- Created with matplotlib (https://matplotlib.org/) -->
<svg height="581.789375pt" version="1.1" viewBox="0 0 586.807024 581.789375" width="586.807024pt" xmlns="http://www.w3.org/2000/svg" xmlns:xlink="http://www.w3.org/1999/xlink">
 <defs>
  <style type="text/css">
*{stroke-linecap:butt;stroke-linejoin:round;}
  </style>
 </defs>
 <g id="figure_1">
  <g id="patch_1">
   <path d="M 0 581.789375 
L 586.807024 581.789375 
L 586.807024 0 
L 0 0 
z
" style="fill:none;"/>
  </g>
  <g id="axes_1">
   <g id="patch_2">
    <path d="M 36 402.93 
L 538.2 402.93 
L 538.2 36 
L 36 36 
z
" style="fill:none;"/>
   </g>
   <g id="PolyCollection_1">
    <defs>
     <path d="M 58.827273 -195.538011 
L 58.827273 -195.619554 
L 62.908937 -195.650302 
L 66.990602 -195.691638 
L 71.072267 -195.746824 
L 75.153932 -195.819985 
L 79.235597 -195.916301 
L 83.317261 -196.042214 
L 87.398926 -196.205662 
L 91.480591 -196.416342 
L 95.562256 -196.685982 
L 99.64392 -197.028634 
L 103.725585 -197.460964 
L 107.80725 -198.002538 
L 111.888915 -198.67608 
L 115.970579 -199.507692 
L 120.052244 -200.527003 
L 124.133909 -201.767236 
L 128.215574 -203.265162 
L 132.297238 -205.060902 
L 136.378903 -207.197575 
L 140.460568 -209.720742 
L 144.542233 -212.677645 
L 148.623897 -216.116206 
L 152.705562 -220.083806 
L 156.787227 -224.62582 
L 160.868892 -229.783944 
L 164.950557 -235.594333 
L 169.032221 -242.085602 
L 173.113886 -249.276746 
L 177.195551 -257.175047 
L 181.277216 -265.774071 
L 185.35888 -275.051829 
L 189.440545 -284.969232 
L 193.52221 -295.468909 
L 197.603875 -306.474522 
L 201.685539 -317.890637 
L 205.767204 -329.603244 
L 209.848869 -341.480961 
L 213.930534 -353.37695 
L 218.012198 -365.131536 
L 222.093863 -376.575477 
L 226.175528 -387.533815 
L 230.257193 -397.830191 
L 234.338857 -407.291478 
L 238.420522 -415.75258 
L 242.502187 -423.061188 
L 246.583852 -429.082338 
L 250.665517 -433.70254 
L 254.747181 -436.833343 
L 258.828846 -438.414144 
L 262.910511 -438.414144 
L 266.992176 -436.833343 
L 271.07384 -433.70254 
L 275.155505 -429.082338 
L 279.23717 -423.061188 
L 283.318835 -415.75258 
L 287.400499 -407.291478 
L 291.482164 -397.830191 
L 295.563829 -387.533815 
L 299.645494 -376.575477 
L 303.727158 -365.131536 
L 307.808823 -353.37695 
L 311.890488 -341.480961 
L 315.972153 -329.603244 
L 320.053817 -317.890637 
L 324.135482 -306.474522 
L 328.217147 -295.468909 
L 332.298812 -284.969232 
L 336.380477 -275.051829 
L 340.462141 -265.774071 
L 344.543806 -257.175047 
L 348.625471 -249.276746 
L 352.707136 -242.085602 
L 356.7888 -235.594333 
L 360.870465 -229.783944 
L 364.95213 -224.62582 
L 369.033795 -220.083806 
L 373.115459 -216.116206 
L 377.197124 -212.677645 
L 381.278789 -209.720742 
L 385.360454 -207.197575 
L 389.442118 -205.060902 
L 393.523783 -203.265162 
L 397.605448 -201.767236 
L 401.687113 -200.527003 
L 405.768777 -199.507692 
L 409.850442 -198.67608 
L 413.932107 -198.002538 
L 418.013772 -197.460964 
L 422.095437 -197.028634 
L 426.177101 -196.685982 
L 430.258766 -196.416342 
L 434.340431 -196.205662 
L 438.422096 -196.042214 
L 442.50376 -195.916301 
L 446.585425 -195.819985 
L 450.66709 -195.746824 
L 454.748755 -195.691638 
L 458.830419 -195.650302 
L 462.912084 -195.619554 
L 462.912084 -195.538011 
L 462.912084 -195.538011 
L 458.830419 -195.538011 
L 454.748755 -195.538011 
L 450.66709 -195.538011 
L 446.585425 -195.538011 
L 442.50376 -195.538011 
L 438.422096 -195.538011 
L 434.340431 -195.538011 
L 430.258766 -195.538011 
L 426.177101 -195.538011 
L 422.095437 -195.538011 
L 418.013772 -195.538011 
L 413.932107 -195.538011 
L 409.850442 -195.538011 
L 405.768777 -195.538011 
L 401.687113 -195.538011 
L 397.605448 -195.538011 
L 393.523783 -195.538011 
L 389.442118 -195.538011 
L 385.360454 -195.538011 
L 381.278789 -195.538011 
L 377.197124 -195.538011 
L 373.115459 -195.538011 
L 369.033795 -195.538011 
L 364.95213 -195.538011 
L 360.870465 -195.538011 
L 356.7888 -195.538011 
L 352.707136 -195.538011 
L 348.625471 -195.538011 
L 344.543806 -195.538011 
L 340.462141 -195.538011 
L 336.380477 -195.538011 
L 332.298812 -195.538011 
L 328.217147 -195.538011 
L 324.135482 -195.538011 
L 320.053817 -195.538011 
L 315.972153 -195.538011 
L 311.890488 -195.538011 
L 307.808823 -195.538011 
L 303.727158 -195.538011 
L 299.645494 -195.538011 
L 295.563829 -195.538011 
L 291.482164 -195.538011 
L 287.400499 -195.538011 
L 283.318835 -195.538011 
L 279.23717 -195.538011 
L 275.155505 -195.538011 
L 271.07384 -195.538011 
L 266.992176 -195.538011 
L 262.910511 -195.538011 
L 258.828846 -195.538011 
L 254.747181 -195.538011 
L 250.665517 -195.538011 
L 246.583852 -195.538011 
L 242.502187 -195.538011 
L 238.420522 -195.538011 
L 234.338857 -195.538011 
L 230.257193 -195.538011 
L 226.175528 -195.538011 
L 222.093863 -195.538011 
L 218.012198 -195.538011 
L 213.930534 -195.538011 
L 209.848869 -195.538011 
L 205.767204 -195.538011 
L 201.685539 -195.538011 
L 197.603875 -195.538011 
L 193.52221 -195.538011 
L 189.440545 -195.538011 
L 185.35888 -195.538011 
L 181.277216 -195.538011 
L 177.195551 -195.538011 
L 173.113886 -195.538011 
L 169.032221 -195.538011 
L 164.950557 -195.538011 
L 160.868892 -195.538011 
L 156.787227 -195.538011 
L 152.705562 -195.538011 
L 148.623897 -195.538011 
L 144.542233 -195.538011 
L 140.460568 -195.538011 
L 136.378903 -195.538011 
L 132.297238 -195.538011 
L 128.215574 -195.538011 
L 124.133909 -195.538011 
L 120.052244 -195.538011 
L 115.970579 -195.538011 
L 111.888915 -195.538011 
L 107.80725 -195.538011 
L 103.725585 -195.538011 
L 99.64392 -195.538011 
L 95.562256 -195.538011 
L 91.480591 -195.538011 
L 87.398926 -195.538011 
L 83.317261 -195.538011 
L 79.235597 -195.538011 
L 75.153932 -195.538011 
L 71.072267 -195.538011 
L 66.990602 -195.538011 
L 62.908937 -195.538011 
L 58.827273 -195.538011 
z
" id="m3f598a8196" style="stroke:#ff6384;stroke-opacity:0.5;"/>
    </defs>
    <g clip-path="url(#pb48bfc1995)">
     <use style="fill:#ff6384;fill-opacity:0.5;stroke:#ff6384;stroke-opacity:0.5;" x="0" xlink:href="#m3f598a8196" y="581.789375"/>
    </g>
   </g>
   <g id="PolyCollection_2">
    <defs>
     <path d="M 221.15636 -195.538011 
L 221.15636 -195.650004 
L 224.128242 -195.692234 
L 227.100125 -195.749007 
L 230.072007 -195.8248 
L 233.04389 -195.925281 
L 236.015772 -196.057565 
L 238.987655 -196.230497 
L 241.959537 -196.454982 
L 244.93142 -196.744335 
L 247.903302 -197.114666 
L 250.875185 -197.585273 
L 253.847067 -198.179047 
L 256.81895 -198.922859 
L 259.790832 -199.847921 
L 262.762715 -200.990079 
L 265.734597 -202.390029 
L 268.70648 -204.093399 
L 271.678362 -206.150691 
L 274.650245 -208.617009 
L 277.622127 -211.551575 
L 280.59401 -215.016962 
L 283.565892 -219.078053 
L 286.537775 -223.800667 
L 289.509657 -229.249878 
L 292.48154 -235.488004 
L 295.453422 -242.572312 
L 298.425305 -250.552459 
L 301.397187 -259.467747 
L 304.36907 -269.344261 
L 307.340952 -280.192004 
L 310.312835 -292.002137 
L 313.284717 -304.744465 
L 316.2566 -318.365297 
L 319.228482 -332.785841 
L 322.200365 -347.901251 
L 325.172247 -363.580456 
L 328.14413 -379.666871 
L 331.116012 -395.980052 
L 334.087895 -412.31833 
L 337.059777 -428.4624 
L 340.03166 -444.179822 
L 343.003542 -459.230303 
L 345.975425 -473.371627 
L 348.947307 -486.366018 
L 351.91919 -497.986726 
L 354.891072 -508.02457 
L 357.862955 -516.294181 
L 360.834837 -522.639693 
L 363.80672 -526.939623 
L 366.778602 -529.110739 
L 369.750485 -529.110739 
L 372.722367 -526.939623 
L 375.69425 -522.639693 
L 378.666132 -516.294181 
L 381.638015 -508.02457 
L 384.609897 -497.986726 
L 387.58178 -486.366018 
L 390.553662 -473.371627 
L 393.525545 -459.230303 
L 396.497427 -444.179822 
L 399.46931 -428.4624 
L 402.441192 -412.31833 
L 405.413075 -395.980052 
L 408.384957 -379.666871 
L 411.35684 -363.580456 
L 414.328722 -347.901251 
L 417.300605 -332.785841 
L 420.272487 -318.365297 
L 423.24437 -304.744465 
L 426.216252 -292.002137 
L 429.188135 -280.192004 
L 432.160017 -269.344261 
L 435.1319 -259.467747 
L 438.103782 -250.552459 
L 441.075665 -242.572312 
L 444.047547 -235.488004 
L 447.01943 -229.249878 
L 449.991312 -223.800667 
L 452.963195 -219.078053 
L 455.935077 -215.016962 
L 458.90696 -211.551575 
L 461.878842 -208.617009 
L 464.850725 -206.150691 
L 467.822607 -204.093399 
L 470.79449 -202.390029 
L 473.766372 -200.990079 
L 476.738255 -199.847921 
L 479.710137 -198.922859 
L 482.68202 -198.179047 
L 485.653902 -197.585273 
L 488.625785 -197.114666 
L 491.597667 -196.744335 
L 494.56955 -196.454982 
L 497.541432 -196.230497 
L 500.513315 -196.057565 
L 503.485197 -195.925281 
L 506.45708 -195.8248 
L 509.428962 -195.749007 
L 512.400845 -195.692234 
L 515.372727 -195.650004 
L 515.372727 -195.538011 
L 515.372727 -195.538011 
L 512.400845 -195.538011 
L 509.428962 -195.538011 
L 506.45708 -195.538011 
L 503.485197 -195.538011 
L 500.513315 -195.538011 
L 497.541432 -195.538011 
L 494.56955 -195.538011 
L 491.597667 -195.538011 
L 488.625785 -195.538011 
L 485.653902 -195.538011 
L 482.68202 -195.538011 
L 479.710137 -195.538011 
L 476.738255 -195.538011 
L 473.766372 -195.538011 
L 470.79449 -195.538011 
L 467.822607 -195.538011 
L 464.850725 -195.538011 
L 461.878842 -195.538011 
L 458.90696 -195.538011 
L 455.935077 -195.538011 
L 452.963195 -195.538011 
L 449.991312 -195.538011 
L 447.01943 -195.538011 
L 444.047547 -195.538011 
L 441.075665 -195.538011 
L 438.103782 -195.538011 
L 435.1319 -195.538011 
L 432.160017 -195.538011 
L 429.188135 -195.538011 
L 426.216252 -195.538011 
L 423.24437 -195.538011 
L 420.272487 -195.538011 
L 417.300605 -195.538011 
L 414.328722 -195.538011 
L 411.35684 -195.538011 
L 408.384957 -195.538011 
L 405.413075 -195.538011 
L 402.441192 -195.538011 
L 399.46931 -195.538011 
L 396.497427 -195.538011 
L 393.525545 -195.538011 
L 390.553662 -195.538011 
L 387.58178 -195.538011 
L 384.609897 -195.538011 
L 381.638015 -195.538011 
L 378.666132 -195.538011 
L 375.69425 -195.538011 
L 372.722367 -195.538011 
L 369.750485 -195.538011 
L 366.778602 -195.538011 
L 363.80672 -195.538011 
L 360.834837 -195.538011 
L 357.862955 -195.538011 
L 354.891072 -195.538011 
L 351.91919 -195.538011 
L 348.947307 -195.538011 
L 345.975425 -195.538011 
L 343.003542 -195.538011 
L 340.03166 -195.538011 
L 337.059777 -195.538011 
L 334.087895 -195.538011 
L 331.116012 -195.538011 
L 328.14413 -195.538011 
L 325.172247 -195.538011 
L 322.200365 -195.538011 
L 319.228482 -195.538011 
L 316.2566 -195.538011 
L 313.284717 -195.538011 
L 310.312835 -195.538011 
L 307.340952 -195.538011 
L 304.36907 -195.538011 
L 301.397187 -195.538011 
L 298.425305 -195.538011 
L 295.453422 -195.538011 
L 292.48154 -195.538011 
L 289.509657 -195.538011 
L 286.537775 -195.538011 
L 283.565892 -195.538011 
L 280.59401 -195.538011 
L 277.622127 -195.538011 
L 274.650245 -195.538011 
L 271.678362 -195.538011 
L 268.70648 -195.538011 
L 265.734597 -195.538011 
L 262.762715 -195.538011 
L 259.790832 -195.538011 
L 256.81895 -195.538011 
L 253.847067 -195.538011 
L 250.875185 -195.538011 
L 247.903302 -195.538011 
L 244.93142 -195.538011 
L 241.959537 -195.538011 
L 238.987655 -195.538011 
L 236.015772 -195.538011 
L 233.04389 -195.538011 
L 230.072007 -195.538011 
L 227.100125 -195.538011 
L 224.128242 -195.538011 
L 221.15636 -195.538011 
z
" id="me144bd6b92" style="stroke:#36a2eb;stroke-opacity:0.5;"/>
    </defs>
    <g clip-path="url(#pb48bfc1995)">
     <use style="fill:#36a2eb;fill-opacity:0.5;stroke:#36a2eb;stroke-opacity:0.5;" x="0" xlink:href="#me144bd6b92" y="581.789375"/>
    </g>
   </g>
   <g id="line2d_1">
    <path clip-path="url(#pb48bfc1995)" d="M 58.827273 386.169821 
L 62.908937 386.139073 
L 66.990602 386.097737 
L 71.072267 386.042551 
L 75.153932 385.96939 
L 79.235597 385.873074 
L 83.317261 385.747161 
L 87.398926 385.583713 
L 91.480591 385.373033 
L 95.562256 385.103393 
L 99.64392 384.760741 
L 103.725585 384.328411 
L 107.80725 383.786837 
L 111.888915 383.113295 
L 115.970579 382.281683 
L 120.052244 381.262372 
L 124.133909 380.022139 
L 128.215574 378.524213 
L 132.297238 376.728473 
L 136.378903 374.5918 
L 140.460568 372.068633 
L 144.542233 369.11173 
L 148.623897 365.673169 
L 152.705562 361.705569 
L 156.787227 357.163555 
L 160.868892 352.005431 
L 164.950557 346.195042 
L 169.032221 339.703773 
L 173.113886 332.512629 
L 177.195551 324.614328 
L 181.277216 316.015304 
L 185.35888 306.737546 
L 189.440545 296.820143 
L 193.52221 286.320466 
L 197.603875 275.314853 
L 201.685539 263.898738 
L 205.767204 252.186131 
L 209.848869 240.308414 
L 213.930534 228.412425 
L 218.012198 216.657839 
L 222.093863 205.213898 
L 226.175528 194.25556 
L 230.257193 183.959184 
L 234.338857 174.497897 
L 238.420522 166.036795 
L 242.502187 158.728187 
L 246.583852 152.707037 
L 250.665517 148.086835 
L 254.747181 144.956032 
L 258.828846 143.375231 
L 262.910511 143.375231 
L 266.992176 144.956032 
L 271.07384 148.086835 
L 275.155505 152.707037 
L 279.23717 158.728187 
L 283.318835 166.036795 
L 287.400499 174.497897 
L 291.482164 183.959184 
L 295.563829 194.25556 
L 299.645494 205.213898 
L 303.727158 216.657839 
L 307.808823 228.412425 
L 311.890488 240.308414 
L 315.972153 252.186131 
L 320.053817 263.898738 
L 324.135482 275.314853 
L 328.217147 286.320466 
L 332.298812 296.820143 
L 336.380477 306.737546 
L 340.462141 316.015304 
L 344.543806 324.614328 
L 348.625471 332.512629 
L 352.707136 339.703773 
L 356.7888 346.195042 
L 360.870465 352.005431 
L 364.95213 357.163555 
L 369.033795 361.705569 
L 373.115459 365.673169 
L 377.197124 369.11173 
L 381.278789 372.068633 
L 385.360454 374.5918 
L 389.442118 376.728473 
L 393.523783 378.524213 
L 397.605448 380.022139 
L 401.687113 381.262372 
L 405.768777 382.281683 
L 409.850442 383.113295 
L 413.932107 383.786837 
L 418.013772 384.328411 
L 422.095437 384.760741 
L 426.177101 385.103393 
L 430.258766 385.373033 
L 434.340431 385.583713 
L 438.422096 385.747161 
L 442.50376 385.873074 
L 446.585425 385.96939 
L 450.66709 386.042551 
L 454.748755 386.097737 
L 458.830419 386.139073 
L 462.912084 386.169821 
" style="fill:none;stroke:#ff6384;stroke-linecap:square;"/>
   </g>
   <g id="line2d_2">
    <path clip-path="url(#pb48bfc1995)" d="M 221.15636 386.139371 
L 224.128242 386.097141 
L 227.100125 386.040368 
L 230.072007 385.964575 
L 233.04389 385.864094 
L 236.015772 385.73181 
L 238.987655 385.558878 
L 241.959537 385.334393 
L 244.93142 385.04504 
L 247.903302 384.674709 
L 250.875185 384.204102 
L 253.847067 383.610328 
L 256.81895 382.866516 
L 259.790832 381.941454 
L 262.762715 380.799296 
L 265.734597 379.399346 
L 268.70648 377.695976 
L 271.678362 375.638684 
L 274.650245 373.172366 
L 277.622127 370.2378 
L 280.59401 366.772413 
L 283.565892 362.711322 
L 286.537775 357.988708 
L 289.509657 352.539497 
L 292.48154 346.301371 
L 295.453422 339.217063 
L 298.425305 331.236916 
L 301.397187 322.321628 
L 304.36907 312.445114 
L 307.340952 301.597371 
L 310.312835 289.787238 
L 313.284717 277.04491 
L 316.2566 263.424078 
L 319.228482 249.003534 
L 322.200365 233.888124 
L 325.172247 218.208919 
L 328.14413 202.122504 
L 331.116012 185.809323 
L 334.087895 169.471045 
L 337.059777 153.326975 
L 340.03166 137.609553 
L 343.003542 122.559072 
L 345.975425 108.417748 
L 348.947307 95.423357 
L 351.91919 83.802649 
L 354.891072 73.764805 
L 357.862955 65.495194 
L 360.834837 59.149682 
L 363.80672 54.849752 
L 366.778602 52.678636 
L 369.750485 52.678636 
L 372.722367 54.849752 
L 375.69425 59.149682 
L 378.666132 65.495194 
L 381.638015 73.764805 
L 384.609897 83.802649 
L 387.58178 95.423357 
L 390.553662 108.417748 
L 393.525545 122.559072 
L 396.497427 137.609553 
L 399.46931 153.326975 
L 402.441192 169.471045 
L 405.413075 185.809323 
L 408.384957 202.122504 
L 411.35684 218.208919 
L 414.328722 233.888124 
L 417.300605 249.003534 
L 420.272487 263.424078 
L 423.24437 277.04491 
L 426.216252 289.787238 
L 429.188135 301.597371 
L 432.160017 312.445114 
L 435.1319 322.321628 
L 438.103782 331.236916 
L 441.075665 339.217063 
L 444.047547 346.301371 
L 447.01943 352.539497 
L 449.991312 357.988708 
L 452.963195 362.711322 
L 455.935077 366.772413 
L 458.90696 370.2378 
L 461.878842 373.172366 
L 464.850725 375.638684 
L 467.822607 377.695976 
L 470.79449 379.399346 
L 473.766372 380.799296 
L 476.738255 381.941454 
L 479.710137 382.866516 
L 482.68202 383.610328 
L 485.653902 384.204102 
L 488.625785 384.674709 
L 491.597667 385.04504 
L 494.56955 385.334393 
L 497.541432 385.558878 
L 500.513315 385.73181 
L 503.485197 385.864094 
L 506.45708 385.964575 
L 509.428962 386.040368 
L 512.400845 386.097141 
L 515.372727 386.139371 
" style="fill:none;stroke:#36a2eb;stroke-linecap:square;"/>
   </g>
   <g id="patch_3">
    <path d="M 36 402.93 
L 538.2 402.93 
" style="fill:none;stroke:#000000;stroke-linecap:square;stroke-linejoin:miter;stroke-width:0.8;"/>
   </g>
   <g id="legend_1">
    <g id="patch_4">
     <path d="M 45.8 88.688125 
L 196.08125 88.688125 
Q 198.88125 88.688125 198.88125 85.888125 
L 198.88125 45.8 
Q 198.88125 43 196.08125 43 
L 45.8 43 
Q 43 43 43 45.8 
L 43 85.888125 
Q 43 88.688125 45.8 88.688125 
z
" style="fill:#ffffff;opacity:0.8;stroke:#cccccc;stroke-linejoin:miter;"/>
    </g>
    <g id="patch_5">
     <path d="M 48.6 59.237813 
L 76.6 59.237813 
L 76.6 49.437813 
L 48.6 49.437813 
z
" style="fill:#ff6384;opacity:0.5;stroke:#ff6384;stroke-linejoin:miter;"/>
    </g>
    <g id="text_1">
     <!-- base -->
     <defs>
      <path d="M 48.6875 27.296875 
Q 48.6875 37.203125 44.609375 42.84375 
Q 40.53125 48.484375 33.40625 48.484375 
Q 26.265625 48.484375 22.1875 42.84375 
Q 18.109375 37.203125 18.109375 27.296875 
Q 18.109375 17.390625 22.1875 11.75 
Q 26.265625 6.109375 33.40625 6.109375 
Q 40.53125 6.109375 44.609375 11.75 
Q 48.6875 17.390625 48.6875 27.296875 
z
M 18.109375 46.390625 
Q 20.953125 51.265625 25.265625 53.625 
Q 29.59375 56 35.59375 56 
Q 45.5625 56 51.78125 48.09375 
Q 58.015625 40.1875 58.015625 27.296875 
Q 58.015625 14.40625 51.78125 6.484375 
Q 45.5625 -1.421875 35.59375 -1.421875 
Q 29.59375 -1.421875 25.265625 0.953125 
Q 20.953125 3.328125 18.109375 8.203125 
L 18.109375 0 
L 9.078125 0 
L 9.078125 75.984375 
L 18.109375 75.984375 
z
" id="DejaVuSans-98"/>
      <path d="M 34.28125 27.484375 
Q 23.390625 27.484375 19.1875 25 
Q 14.984375 22.515625 14.984375 16.5 
Q 14.984375 11.71875 18.140625 8.90625 
Q 21.296875 6.109375 26.703125 6.109375 
Q 34.1875 6.109375 38.703125 11.40625 
Q 43.21875 16.703125 43.21875 25.484375 
L 43.21875 27.484375 
z
M 52.203125 31.203125 
L 52.203125 0 
L 43.21875 0 
L 43.21875 8.296875 
Q 40.140625 3.328125 35.546875 0.953125 
Q 30.953125 -1.421875 24.3125 -1.421875 
Q 15.921875 -1.421875 10.953125 3.296875 
Q 6 8.015625 6 15.921875 
Q 6 25.140625 12.171875 29.828125 
Q 18.359375 34.515625 30.609375 34.515625 
L 43.21875 34.515625 
L 43.21875 35.40625 
Q 43.21875 41.609375 39.140625 45 
Q 35.0625 48.390625 27.6875 48.390625 
Q 23 48.390625 18.546875 47.265625 
Q 14.109375 46.140625 10.015625 43.890625 
L 10.015625 52.203125 
Q 14.9375 54.109375 19.578125 55.046875 
Q 24.21875 56 28.609375 56 
Q 40.484375 56 46.34375 49.84375 
Q 52.203125 43.703125 52.203125 31.203125 
z
" id="DejaVuSans-97"/>
      <path d="M 44.28125 53.078125 
L 44.28125 44.578125 
Q 40.484375 46.53125 36.375 47.5 
Q 32.28125 48.484375 27.875 48.484375 
Q 21.1875 48.484375 17.84375 46.4375 
Q 14.5 44.390625 14.5 40.28125 
Q 14.5 37.15625 16.890625 35.375 
Q 19.28125 33.59375 26.515625 31.984375 
L 29.59375 31.296875 
Q 39.15625 29.25 43.1875 25.515625 
Q 47.21875 21.78125 47.21875 15.09375 
Q 47.21875 7.46875 41.1875 3.015625 
Q 35.15625 -1.421875 24.609375 -1.421875 
Q 20.21875 -1.421875 15.453125 -0.5625 
Q 10.6875 0.296875 5.421875 2 
L 5.421875 11.28125 
Q 10.40625 8.6875 15.234375 7.390625 
Q 20.0625 6.109375 24.8125 6.109375 
Q 31.15625 6.109375 34.5625 8.28125 
Q 37.984375 10.453125 37.984375 14.40625 
Q 37.984375 18.0625 35.515625 20.015625 
Q 33.0625 21.96875 24.703125 23.78125 
L 21.578125 24.515625 
Q 13.234375 26.265625 9.515625 29.90625 
Q 5.8125 33.546875 5.8125 39.890625 
Q 5.8125 47.609375 11.28125 51.796875 
Q 16.75 56 26.8125 56 
Q 31.78125 56 36.171875 55.265625 
Q 40.578125 54.546875 44.28125 53.078125 
z
" id="DejaVuSans-115"/>
      <path d="M 56.203125 29.59375 
L 56.203125 25.203125 
L 14.890625 25.203125 
Q 15.484375 15.921875 20.484375 11.0625 
Q 25.484375 6.203125 34.421875 6.203125 
Q 39.59375 6.203125 44.453125 7.46875 
Q 49.3125 8.734375 54.109375 11.28125 
L 54.109375 2.78125 
Q 49.265625 0.734375 44.1875 -0.34375 
Q 39.109375 -1.421875 33.890625 -1.421875 
Q 20.796875 -1.421875 13.15625 6.1875 
Q 5.515625 13.8125 5.515625 26.8125 
Q 5.515625 40.234375 12.765625 48.109375 
Q 20.015625 56 32.328125 56 
Q 43.359375 56 49.78125 48.890625 
Q 56.203125 41.796875 56.203125 29.59375 
z
M 47.21875 32.234375 
Q 47.125 39.59375 43.09375 43.984375 
Q 39.0625 48.390625 32.421875 48.390625 
Q 24.90625 48.390625 20.390625 44.140625 
Q 15.875 39.890625 15.1875 32.171875 
z
" id="DejaVuSans-101"/>
     </defs>
     <g transform="translate(87.8 59.237813)scale(0.14 -0.14)">
      <use xlink:href="#DejaVuSans-98"/>
      <use x="63.476562" xlink:href="#DejaVuSans-97"/>
      <use x="124.755859" xlink:href="#DejaVuSans-115"/>
      <use x="176.855469" xlink:href="#DejaVuSans-101"/>
     </g>
    </g>
    <g id="patch_6">
     <path d="M 48.6 79.787188 
L 76.6 79.787188 
L 76.6 69.987188 
L 48.6 69.987188 
z
" style="fill:#36a2eb;opacity:0.5;stroke:#36a2eb;stroke-linejoin:miter;"/>
    </g>
    <g id="text_2">
     <!-- no_information -->
     <defs>
      <path d="M 54.890625 33.015625 
L 54.890625 0 
L 45.90625 0 
L 45.90625 32.71875 
Q 45.90625 40.484375 42.875 44.328125 
Q 39.84375 48.1875 33.796875 48.1875 
Q 26.515625 48.1875 22.3125 43.546875 
Q 18.109375 38.921875 18.109375 30.90625 
L 18.109375 0 
L 9.078125 0 
L 9.078125 54.6875 
L 18.109375 54.6875 
L 18.109375 46.1875 
Q 21.34375 51.125 25.703125 53.5625 
Q 30.078125 56 35.796875 56 
Q 45.21875 56 50.046875 50.171875 
Q 54.890625 44.34375 54.890625 33.015625 
z
" id="DejaVuSans-110"/>
      <path d="M 30.609375 48.390625 
Q 23.390625 48.390625 19.1875 42.75 
Q 14.984375 37.109375 14.984375 27.296875 
Q 14.984375 17.484375 19.15625 11.84375 
Q 23.34375 6.203125 30.609375 6.203125 
Q 37.796875 6.203125 41.984375 11.859375 
Q 46.1875 17.53125 46.1875 27.296875 
Q 46.1875 37.015625 41.984375 42.703125 
Q 37.796875 48.390625 30.609375 48.390625 
z
M 30.609375 56 
Q 42.328125 56 49.015625 48.375 
Q 55.71875 40.765625 55.71875 27.296875 
Q 55.71875 13.875 49.015625 6.21875 
Q 42.328125 -1.421875 30.609375 -1.421875 
Q 18.84375 -1.421875 12.171875 6.21875 
Q 5.515625 13.875 5.515625 27.296875 
Q 5.515625 40.765625 12.171875 48.375 
Q 18.84375 56 30.609375 56 
z
" id="DejaVuSans-111"/>
      <path d="M 50.984375 -16.609375 
L 50.984375 -23.578125 
L -0.984375 -23.578125 
L -0.984375 -16.609375 
z
" id="DejaVuSans-95"/>
      <path d="M 9.421875 54.6875 
L 18.40625 54.6875 
L 18.40625 0 
L 9.421875 0 
z
M 9.421875 75.984375 
L 18.40625 75.984375 
L 18.40625 64.59375 
L 9.421875 64.59375 
z
" id="DejaVuSans-105"/>
      <path d="M 37.109375 75.984375 
L 37.109375 68.5 
L 28.515625 68.5 
Q 23.6875 68.5 21.796875 66.546875 
Q 19.921875 64.59375 19.921875 59.515625 
L 19.921875 54.6875 
L 34.71875 54.6875 
L 34.71875 47.703125 
L 19.921875 47.703125 
L 19.921875 0 
L 10.890625 0 
L 10.890625 47.703125 
L 2.296875 47.703125 
L 2.296875 54.6875 
L 10.890625 54.6875 
L 10.890625 58.5 
Q 10.890625 67.625 15.140625 71.796875 
Q 19.390625 75.984375 28.609375 75.984375 
z
" id="DejaVuSans-102"/>
      <path d="M 41.109375 46.296875 
Q 39.59375 47.171875 37.8125 47.578125 
Q 36.03125 48 33.890625 48 
Q 26.265625 48 22.1875 43.046875 
Q 18.109375 38.09375 18.109375 28.8125 
L 18.109375 0 
L 9.078125 0 
L 9.078125 54.6875 
L 18.109375 54.6875 
L 18.109375 46.1875 
Q 20.953125 51.171875 25.484375 53.578125 
Q 30.03125 56 36.53125 56 
Q 37.453125 56 38.578125 55.875 
Q 39.703125 55.765625 41.0625 55.515625 
z
" id="DejaVuSans-114"/>
      <path d="M 52 44.1875 
Q 55.375 50.25 60.0625 53.125 
Q 64.75 56 71.09375 56 
Q 79.640625 56 84.28125 50.015625 
Q 88.921875 44.046875 88.921875 33.015625 
L 88.921875 0 
L 79.890625 0 
L 79.890625 32.71875 
Q 79.890625 40.578125 77.09375 44.375 
Q 74.3125 48.1875 68.609375 48.1875 
Q 61.625 48.1875 57.5625 43.546875 
Q 53.515625 38.921875 53.515625 30.90625 
L 53.515625 0 
L 44.484375 0 
L 44.484375 32.71875 
Q 44.484375 40.625 41.703125 44.40625 
Q 38.921875 48.1875 33.109375 48.1875 
Q 26.21875 48.1875 22.15625 43.53125 
Q 18.109375 38.875 18.109375 30.90625 
L 18.109375 0 
L 9.078125 0 
L 9.078125 54.6875 
L 18.109375 54.6875 
L 18.109375 46.1875 
Q 21.1875 51.21875 25.484375 53.609375 
Q 29.78125 56 35.6875 56 
Q 41.65625 56 45.828125 52.96875 
Q 50 49.953125 52 44.1875 
z
" id="DejaVuSans-109"/>
      <path d="M 18.3125 70.21875 
L 18.3125 54.6875 
L 36.8125 54.6875 
L 36.8125 47.703125 
L 18.3125 47.703125 
L 18.3125 18.015625 
Q 18.3125 11.328125 20.140625 9.421875 
Q 21.96875 7.515625 27.59375 7.515625 
L 36.8125 7.515625 
L 36.8125 0 
L 27.59375 0 
Q 17.1875 0 13.234375 3.875 
Q 9.28125 7.765625 9.28125 18.015625 
L 9.28125 47.703125 
L 2.6875 47.703125 
L 2.6875 54.6875 
L 9.28125 54.6875 
L 9.28125 70.21875 
z
" id="DejaVuSans-116"/>
     </defs>
     <g transform="translate(87.8 79.787188)scale(0.14 -0.14)">
      <use xlink:href="#DejaVuSans-110"/>
      <use x="63.378906" xlink:href="#DejaVuSans-111"/>
      <use x="124.560547" xlink:href="#DejaVuSans-95"/>
      <use x="174.560547" xlink:href="#DejaVuSans-105"/>
      <use x="202.34375" xlink:href="#DejaVuSans-110"/>
      <use x="265.722656" xlink:href="#DejaVuSans-102"/>
      <use x="300.927734" xlink:href="#DejaVuSans-111"/>
      <use x="362.109375" xlink:href="#DejaVuSans-114"/>
      <use x="403.207031" xlink:href="#DejaVuSans-109"/>
      <use x="500.619141" xlink:href="#DejaVuSans-97"/>
      <use x="561.898438" xlink:href="#DejaVuSans-116"/>
      <use x="601.107422" xlink:href="#DejaVuSans-105"/>
      <use x="628.890625" xlink:href="#DejaVuSans-111"/>
      <use x="690.072266" xlink:href="#DejaVuSans-110"/>
     </g>
    </g>
   </g>
  </g>
  <g id="axes_2">
   <g id="patch_7">
    <path d="M 36 525.24 
L 538.2 525.24 
L 538.2 402.93 
L 36 402.93 
z
" style="fill:none;"/>
   </g>
   <g id="patch_8">
    <path clip-path="url(#p07658d7c4c)" d="M 161.8689 519.680455 
L 359.870457 519.680455 
L 359.870457 482.616818 
L 161.8689 482.616818 
z
" style="fill:#ff6384;opacity:0.5;"/>
   </g>
   <g id="patch_9">
    <path clip-path="url(#p07658d7c4c)" d="M 296.181533 445.553182 
L 440.347554 445.553182 
L 440.347554 408.489545 
L 296.181533 408.489545 
z
" style="fill:#36a2eb;opacity:0.5;"/>
   </g>
   <g id="matplotlib.axis_1">
    <g id="xtick_1">
     <g id="line2d_3">
      <defs>
       <path d="M 0 0 
L 0 3.5 
" id="m2eea4e0575" style="stroke:#000000;stroke-width:0.8;"/>
      </defs>
      <g>
       <use style="stroke:#000000;stroke-width:0.8;" x="76.800389" xlink:href="#m2eea4e0575" y="525.24"/>
      </g>
     </g>
     <g id="text_3">
      <!-- 190 -->
      <defs>
       <path d="M 12.40625 8.296875 
L 28.515625 8.296875 
L 28.515625 63.921875 
L 10.984375 60.40625 
L 10.984375 69.390625 
L 28.421875 72.90625 
L 38.28125 72.90625 
L 38.28125 8.296875 
L 54.390625 8.296875 
L 54.390625 0 
L 12.40625 0 
z
" id="DejaVuSans-49"/>
       <path d="M 10.984375 1.515625 
L 10.984375 10.5 
Q 14.703125 8.734375 18.5 7.8125 
Q 22.3125 6.890625 25.984375 6.890625 
Q 35.75 6.890625 40.890625 13.453125 
Q 46.046875 20.015625 46.78125 33.40625 
Q 43.953125 29.203125 39.59375 26.953125 
Q 35.25 24.703125 29.984375 24.703125 
Q 19.046875 24.703125 12.671875 31.3125 
Q 6.296875 37.9375 6.296875 49.421875 
Q 6.296875 60.640625 12.9375 67.421875 
Q 19.578125 74.21875 30.609375 74.21875 
Q 43.265625 74.21875 49.921875 64.515625 
Q 56.59375 54.828125 56.59375 36.375 
Q 56.59375 19.140625 48.40625 8.859375 
Q 40.234375 -1.421875 26.421875 -1.421875 
Q 22.703125 -1.421875 18.890625 -0.6875 
Q 15.09375 0.046875 10.984375 1.515625 
z
M 30.609375 32.421875 
Q 37.25 32.421875 41.125 36.953125 
Q 45.015625 41.5 45.015625 49.421875 
Q 45.015625 57.28125 41.125 61.84375 
Q 37.25 66.40625 30.609375 66.40625 
Q 23.96875 66.40625 20.09375 61.84375 
Q 16.21875 57.28125 16.21875 49.421875 
Q 16.21875 41.5 20.09375 36.953125 
Q 23.96875 32.421875 30.609375 32.421875 
z
" id="DejaVuSans-57"/>
       <path d="M 31.78125 66.40625 
Q 24.171875 66.40625 20.328125 58.90625 
Q 16.5 51.421875 16.5 36.375 
Q 16.5 21.390625 20.328125 13.890625 
Q 24.171875 6.390625 31.78125 6.390625 
Q 39.453125 6.390625 43.28125 13.890625 
Q 47.125 21.390625 47.125 36.375 
Q 47.125 51.421875 43.28125 58.90625 
Q 39.453125 66.40625 31.78125 66.40625 
z
M 31.78125 74.21875 
Q 44.046875 74.21875 50.515625 64.515625 
Q 56.984375 54.828125 56.984375 36.375 
Q 56.984375 17.96875 50.515625 8.265625 
Q 44.046875 -1.421875 31.78125 -1.421875 
Q 19.53125 -1.421875 13.0625 8.265625 
Q 6.59375 17.96875 6.59375 36.375 
Q 6.59375 54.828125 13.0625 64.515625 
Q 19.53125 74.21875 31.78125 74.21875 
z
" id="DejaVuSans-48"/>
      </defs>
      <g transform="translate(63.439139 542.877813)scale(0.14 -0.14)">
       <use xlink:href="#DejaVuSans-49"/>
       <use x="63.623047" xlink:href="#DejaVuSans-57"/>
       <use x="127.246094" xlink:href="#DejaVuSans-48"/>
      </g>
     </g>
    </g>
    <g id="xtick_2">
     <g id="line2d_4">
      <g>
       <use style="stroke:#000000;stroke-width:0.8;" x="168.929466" xlink:href="#m2eea4e0575" y="525.24"/>
      </g>
     </g>
     <g id="text_4">
      <!-- 200 -->
      <defs>
       <path d="M 19.1875 8.296875 
L 53.609375 8.296875 
L 53.609375 0 
L 7.328125 0 
L 7.328125 8.296875 
Q 12.9375 14.109375 22.625 23.890625 
Q 32.328125 33.6875 34.8125 36.53125 
Q 39.546875 41.84375 41.421875 45.53125 
Q 43.3125 49.21875 43.3125 52.78125 
Q 43.3125 58.59375 39.234375 62.25 
Q 35.15625 65.921875 28.609375 65.921875 
Q 23.96875 65.921875 18.8125 64.3125 
Q 13.671875 62.703125 7.8125 59.421875 
L 7.8125 69.390625 
Q 13.765625 71.78125 18.9375 73 
Q 24.125 74.21875 28.421875 74.21875 
Q 39.75 74.21875 46.484375 68.546875 
Q 53.21875 62.890625 53.21875 53.421875 
Q 53.21875 48.921875 51.53125 44.890625 
Q 49.859375 40.875 45.40625 35.40625 
Q 44.1875 33.984375 37.640625 27.21875 
Q 31.109375 20.453125 19.1875 8.296875 
z
" id="DejaVuSans-50"/>
      </defs>
      <g transform="translate(155.568216 542.877813)scale(0.14 -0.14)">
       <use xlink:href="#DejaVuSans-50"/>
       <use x="63.623047" xlink:href="#DejaVuSans-48"/>
       <use x="127.246094" xlink:href="#DejaVuSans-48"/>
      </g>
     </g>
    </g>
    <g id="xtick_3">
     <g id="line2d_5">
      <g>
       <use style="stroke:#000000;stroke-width:0.8;" x="261.058543" xlink:href="#m2eea4e0575" y="525.24"/>
      </g>
     </g>
     <g id="text_5">
      <!-- 210 -->
      <g transform="translate(247.697293 542.877813)scale(0.14 -0.14)">
       <use xlink:href="#DejaVuSans-50"/>
       <use x="63.623047" xlink:href="#DejaVuSans-49"/>
       <use x="127.246094" xlink:href="#DejaVuSans-48"/>
      </g>
     </g>
    </g>
    <g id="xtick_4">
     <g id="line2d_6">
      <g>
       <use style="stroke:#000000;stroke-width:0.8;" x="353.18762" xlink:href="#m2eea4e0575" y="525.24"/>
      </g>
     </g>
     <g id="text_6">
      <!-- 220 -->
      <g transform="translate(339.82637 542.877813)scale(0.14 -0.14)">
       <use xlink:href="#DejaVuSans-50"/>
       <use x="63.623047" xlink:href="#DejaVuSans-50"/>
       <use x="127.246094" xlink:href="#DejaVuSans-48"/>
      </g>
     </g>
    </g>
    <g id="xtick_5">
     <g id="line2d_7">
      <g>
       <use style="stroke:#000000;stroke-width:0.8;" x="445.316697" xlink:href="#m2eea4e0575" y="525.24"/>
      </g>
     </g>
     <g id="text_7">
      <!-- 230 -->
      <defs>
       <path d="M 40.578125 39.3125 
Q 47.65625 37.796875 51.625 33 
Q 55.609375 28.21875 55.609375 21.1875 
Q 55.609375 10.40625 48.1875 4.484375 
Q 40.765625 -1.421875 27.09375 -1.421875 
Q 22.515625 -1.421875 17.65625 -0.515625 
Q 12.796875 0.390625 7.625 2.203125 
L 7.625 11.71875 
Q 11.71875 9.328125 16.59375 8.109375 
Q 21.484375 6.890625 26.8125 6.890625 
Q 36.078125 6.890625 40.9375 10.546875 
Q 45.796875 14.203125 45.796875 21.1875 
Q 45.796875 27.640625 41.28125 31.265625 
Q 36.765625 34.90625 28.71875 34.90625 
L 20.21875 34.90625 
L 20.21875 43.015625 
L 29.109375 43.015625 
Q 36.375 43.015625 40.234375 45.921875 
Q 44.09375 48.828125 44.09375 54.296875 
Q 44.09375 59.90625 40.109375 62.90625 
Q 36.140625 65.921875 28.71875 65.921875 
Q 24.65625 65.921875 20.015625 65.03125 
Q 15.375 64.15625 9.8125 62.3125 
L 9.8125 71.09375 
Q 15.4375 72.65625 20.34375 73.4375 
Q 25.25 74.21875 29.59375 74.21875 
Q 40.828125 74.21875 47.359375 69.109375 
Q 53.90625 64.015625 53.90625 55.328125 
Q 53.90625 49.265625 50.4375 45.09375 
Q 46.96875 40.921875 40.578125 39.3125 
z
" id="DejaVuSans-51"/>
      </defs>
      <g transform="translate(431.955447 542.877813)scale(0.14 -0.14)">
       <use xlink:href="#DejaVuSans-50"/>
       <use x="63.623047" xlink:href="#DejaVuSans-51"/>
       <use x="127.246094" xlink:href="#DejaVuSans-48"/>
      </g>
     </g>
    </g>
    <g id="xtick_6">
     <g id="line2d_8">
      <g>
       <use style="stroke:#000000;stroke-width:0.8;" x="537.445774" xlink:href="#m2eea4e0575" y="525.24"/>
      </g>
     </g>
     <g id="text_8">
      <!-- 240 -->
      <defs>
       <path d="M 37.796875 64.3125 
L 12.890625 25.390625 
L 37.796875 25.390625 
z
M 35.203125 72.90625 
L 47.609375 72.90625 
L 47.609375 25.390625 
L 58.015625 25.390625 
L 58.015625 17.1875 
L 47.609375 17.1875 
L 47.609375 0 
L 37.796875 0 
L 37.796875 17.1875 
L 4.890625 17.1875 
L 4.890625 26.703125 
z
" id="DejaVuSans-52"/>
      </defs>
      <g transform="translate(524.084524 542.877813)scale(0.14 -0.14)">
       <use xlink:href="#DejaVuSans-50"/>
       <use x="63.623047" xlink:href="#DejaVuSans-52"/>
       <use x="127.246094" xlink:href="#DejaVuSans-48"/>
      </g>
     </g>
    </g>
   </g>
   <g id="line2d_9">
    <path clip-path="url(#p07658d7c4c)" d="M 260.869678 525.24 
L 260.869678 402.93 
" style="fill:none;stroke:#ff6384;stroke-dasharray:5.55,2.4;stroke-dashoffset:0;stroke-opacity:0.8;stroke-width:1.5;"/>
   </g>
   <g id="line2d_10">
    <path clip-path="url(#p07658d7c4c)" d="M 368.264544 525.24 
L 368.264544 402.93 
" style="fill:none;stroke:#36a2eb;stroke-dasharray:5.55,2.4;stroke-dashoffset:0;stroke-opacity:0.8;stroke-width:1.5;"/>
   </g>
   <g id="patch_10">
    <path d="M 36 525.24 
L 538.2 525.24 
" style="fill:none;stroke:#000000;stroke-linecap:square;stroke-linejoin:miter;stroke-width:0.8;"/>
   </g>
  </g>
 </g>
 <defs>
  <clipPath id="pb48bfc1995">
   <rect height="366.93" width="502.2" x="36" y="36"/>
  </clipPath>
  <clipPath id="p07658d7c4c">
   <rect height="122.31" width="502.2" x="36" y="402.93"/>
  </clipPath>
 </defs>
</svg>
