<?xml version="1.0" encoding="utf-8" standalone="no"?>
<!DOCTYPE svg PUBLIC "-//W3C//DTD SVG 1.1//EN"
  "http://www.w3.org/Graphics/SVG/1.1/DTD/svg11.dtd">
<!-- Created with matplotlib (https://matplotlib.org/) -->
<svg height="581.789375pt" version="1.1" viewBox="0 0 574.2 581.789375" width="574.2pt" xmlns="http://www.w3.org/2000/svg" xmlns:xlink="http://www.w3.org/1999/xlink">
 <defs>
  <style type="text/css">
*{stroke-linecap:butt;stroke-linejoin:round;}
  </style>
 </defs>
 <g id="figure_1">
  <g id="patch_1">
   <path d="M 0 581.789375 
L 574.2 581.789375 
L 574.2 0 
L 0 0 
z
" style="fill:none;"/>
  </g>
  <g id="axes_1">
   <g id="patch_2">
    <path d="M 36 402.93 
L 538.2 402.93 
L 538.2 36 
L 36 36 
z
" style="fill:none;"/>
   </g>
   <g id="PolyCollection_1">
    <defs>
     <path d="M 58.827273 -195.538011 
L 58.827273 -195.631205 
L 62.687451 -195.666346 
L 66.54763 -195.713589 
L 70.407809 -195.776659 
L 74.267987 -195.860274 
L 78.128166 -195.970352 
L 81.988344 -196.114255 
L 85.848523 -196.301058 
L 89.708702 -196.54184 
L 93.56888 -196.850007 
L 97.429059 -197.241617 
L 101.289238 -197.735719 
L 105.149416 -198.354675 
L 109.009595 -199.124454 
L 112.869773 -200.074889 
L 116.729952 -201.239841 
L 120.590131 -202.657282 
L 124.450309 -204.369234 
L 128.310488 -206.421553 
L 132.170667 -208.863519 
L 136.030845 -211.747202 
L 139.891024 -215.126594 
L 143.751202 -219.056464 
L 147.611381 -223.590964 
L 151.47156 -228.781951 
L 155.331738 -234.677078 
L 159.191917 -241.317669 
L 163.052096 -248.736425 
L 166.912274 -256.955056 
L 170.772453 -265.981884 
L 174.632631 -275.809554 
L 178.49281 -286.41294 
L 182.352989 -297.747363 
L 186.213167 -309.747257 
L 190.073346 -322.325376 
L 193.933524 -335.372651 
L 197.793703 -348.758781 
L 201.653882 -362.333613 
L 205.51406 -375.929327 
L 209.374239 -389.363435 
L 213.234418 -402.442511 
L 217.094596 -414.966601 
L 220.954775 -426.734145 
L 224.814953 -437.547283 
L 228.675132 -447.217325 
L 232.535311 -455.570204 
L 236.395489 -462.451669 
L 240.255668 -467.732016 
L 244.115847 -471.310154 
L 247.976025 -473.116823 
L 251.836204 -473.116823 
L 255.696382 -471.310154 
L 259.556561 -467.732016 
L 263.41674 -462.451669 
L 267.276918 -455.570204 
L 271.137097 -447.217325 
L 274.997276 -437.547283 
L 278.857454 -426.734145 
L 282.717633 -414.966601 
L 286.577811 -402.442511 
L 290.43799 -389.363435 
L 294.298169 -375.929327 
L 298.158347 -362.333613 
L 302.018526 -348.758781 
L 305.878704 -335.372651 
L 309.738883 -322.325376 
L 313.599062 -309.747257 
L 317.45924 -297.747363 
L 321.319419 -286.41294 
L 325.179598 -275.809554 
L 329.039776 -265.981884 
L 332.899955 -256.955056 
L 336.760133 -248.736425 
L 340.620312 -241.317669 
L 344.480491 -234.677078 
L 348.340669 -228.781951 
L 352.200848 -223.590964 
L 356.061027 -219.056464 
L 359.921205 -215.126594 
L 363.781384 -211.747202 
L 367.641562 -208.863519 
L 371.501741 -206.421553 
L 375.36192 -204.369234 
L 379.222098 -202.657282 
L 383.082277 -201.239841 
L 386.942456 -200.074889 
L 390.802634 -199.124454 
L 394.662813 -198.354675 
L 398.522991 -197.735719 
L 402.38317 -197.241617 
L 406.243349 -196.850007 
L 410.103527 -196.54184 
L 413.963706 -196.301058 
L 417.823885 -196.114255 
L 421.684063 -195.970352 
L 425.544242 -195.860274 
L 429.40442 -195.776659 
L 433.264599 -195.713589 
L 437.124778 -195.666346 
L 440.984956 -195.631205 
L 440.984956 -195.538011 
L 440.984956 -195.538011 
L 437.124778 -195.538011 
L 433.264599 -195.538011 
L 429.40442 -195.538011 
L 425.544242 -195.538011 
L 421.684063 -195.538011 
L 417.823885 -195.538011 
L 413.963706 -195.538011 
L 410.103527 -195.538011 
L 406.243349 -195.538011 
L 402.38317 -195.538011 
L 398.522991 -195.538011 
L 394.662813 -195.538011 
L 390.802634 -195.538011 
L 386.942456 -195.538011 
L 383.082277 -195.538011 
L 379.222098 -195.538011 
L 375.36192 -195.538011 
L 371.501741 -195.538011 
L 367.641562 -195.538011 
L 363.781384 -195.538011 
L 359.921205 -195.538011 
L 356.061027 -195.538011 
L 352.200848 -195.538011 
L 348.340669 -195.538011 
L 344.480491 -195.538011 
L 340.620312 -195.538011 
L 336.760133 -195.538011 
L 332.899955 -195.538011 
L 329.039776 -195.538011 
L 325.179598 -195.538011 
L 321.319419 -195.538011 
L 317.45924 -195.538011 
L 313.599062 -195.538011 
L 309.738883 -195.538011 
L 305.878704 -195.538011 
L 302.018526 -195.538011 
L 298.158347 -195.538011 
L 294.298169 -195.538011 
L 290.43799 -195.538011 
L 286.577811 -195.538011 
L 282.717633 -195.538011 
L 278.857454 -195.538011 
L 274.997276 -195.538011 
L 271.137097 -195.538011 
L 267.276918 -195.538011 
L 263.41674 -195.538011 
L 259.556561 -195.538011 
L 255.696382 -195.538011 
L 251.836204 -195.538011 
L 247.976025 -195.538011 
L 244.115847 -195.538011 
L 240.255668 -195.538011 
L 236.395489 -195.538011 
L 232.535311 -195.538011 
L 228.675132 -195.538011 
L 224.814953 -195.538011 
L 220.954775 -195.538011 
L 217.094596 -195.538011 
L 213.234418 -195.538011 
L 209.374239 -195.538011 
L 205.51406 -195.538011 
L 201.653882 -195.538011 
L 197.793703 -195.538011 
L 193.933524 -195.538011 
L 190.073346 -195.538011 
L 186.213167 -195.538011 
L 182.352989 -195.538011 
L 178.49281 -195.538011 
L 174.632631 -195.538011 
L 170.772453 -195.538011 
L 166.912274 -195.538011 
L 163.052096 -195.538011 
L 159.191917 -195.538011 
L 155.331738 -195.538011 
L 151.47156 -195.538011 
L 147.611381 -195.538011 
L 143.751202 -195.538011 
L 139.891024 -195.538011 
L 136.030845 -195.538011 
L 132.170667 -195.538011 
L 128.310488 -195.538011 
L 124.450309 -195.538011 
L 120.590131 -195.538011 
L 116.729952 -195.538011 
L 112.869773 -195.538011 
L 109.009595 -195.538011 
L 105.149416 -195.538011 
L 101.289238 -195.538011 
L 97.429059 -195.538011 
L 93.56888 -195.538011 
L 89.708702 -195.538011 
L 85.848523 -195.538011 
L 81.988344 -195.538011 
L 78.128166 -195.538011 
L 74.267987 -195.538011 
L 70.407809 -195.538011 
L 66.54763 -195.538011 
L 62.687451 -195.538011 
L 58.827273 -195.538011 
z
" id="m9edc974dbb" style="stroke:#ff6384;stroke-opacity:0.5;"/>
    </defs>
    <g clip-path="url(#p14f8247477)">
     <use style="fill:#ff6384;fill-opacity:0.5;stroke:#ff6384;stroke-opacity:0.5;" x="0" xlink:href="#m9edc974dbb" y="581.789375"/>
    </g>
   </g>
   <g id="PolyCollection_2">
    <defs>
     <path d="M 197.364488 -195.538011 
L 197.364488 -195.650004 
L 200.576692 -195.692234 
L 203.788896 -195.749007 
L 207.001101 -195.8248 
L 210.213305 -195.925281 
L 213.42551 -196.057565 
L 216.637714 -196.230497 
L 219.849919 -196.454982 
L 223.062123 -196.744335 
L 226.274327 -197.114666 
L 229.486532 -197.585273 
L 232.698736 -198.179047 
L 235.910941 -198.922859 
L 239.123145 -199.847921 
L 242.33535 -200.990079 
L 245.547554 -202.390029 
L 248.759759 -204.093399 
L 251.971963 -206.150691 
L 255.184167 -208.617009 
L 258.396372 -211.551575 
L 261.608576 -215.016962 
L 264.820781 -219.078053 
L 268.032985 -223.800667 
L 271.24519 -229.249878 
L 274.457394 -235.488004 
L 277.669599 -242.572312 
L 280.881803 -250.552459 
L 284.094007 -259.467747 
L 287.306212 -269.344261 
L 290.518416 -280.192004 
L 293.730621 -292.002137 
L 296.942825 -304.744465 
L 300.15503 -318.365297 
L 303.367234 -332.785841 
L 306.579439 -347.901251 
L 309.791643 -363.580456 
L 313.003847 -379.666871 
L 316.216052 -395.980052 
L 319.428256 -412.31833 
L 322.640461 -428.4624 
L 325.852665 -444.179822 
L 329.06487 -459.230303 
L 332.277074 -473.371627 
L 335.489279 -486.366018 
L 338.701483 -497.986726 
L 341.913687 -508.02457 
L 345.125892 -516.294181 
L 348.338096 -522.639693 
L 351.550301 -526.939623 
L 354.762505 -529.110739 
L 357.97471 -529.110739 
L 361.186914 -526.939623 
L 364.399118 -522.639693 
L 367.611323 -516.294181 
L 370.823527 -508.02457 
L 374.035732 -497.986726 
L 377.247936 -486.366018 
L 380.460141 -473.371627 
L 383.672345 -459.230303 
L 386.88455 -444.179822 
L 390.096754 -428.4624 
L 393.308958 -412.31833 
L 396.521163 -395.980052 
L 399.733367 -379.666871 
L 402.945572 -363.580456 
L 406.157776 -347.901251 
L 409.369981 -332.785841 
L 412.582185 -318.365297 
L 415.79439 -304.744465 
L 419.006594 -292.002137 
L 422.218798 -280.192004 
L 425.431003 -269.344261 
L 428.643207 -259.467747 
L 431.855412 -250.552459 
L 435.067616 -242.572312 
L 438.279821 -235.488004 
L 441.492025 -229.249878 
L 444.70423 -223.800667 
L 447.916434 -219.078053 
L 451.128638 -215.016962 
L 454.340843 -211.551575 
L 457.553047 -208.617009 
L 460.765252 -206.150691 
L 463.977456 -204.093399 
L 467.189661 -202.390029 
L 470.401865 -200.990079 
L 473.61407 -199.847921 
L 476.826274 -198.922859 
L 480.038478 -198.179047 
L 483.250683 -197.585273 
L 486.462887 -197.114666 
L 489.675092 -196.744335 
L 492.887296 -196.454982 
L 496.099501 -196.230497 
L 499.311705 -196.057565 
L 502.52391 -195.925281 
L 505.736114 -195.8248 
L 508.948318 -195.749007 
L 512.160523 -195.692234 
L 515.372727 -195.650004 
L 515.372727 -195.538011 
L 515.372727 -195.538011 
L 512.160523 -195.538011 
L 508.948318 -195.538011 
L 505.736114 -195.538011 
L 502.52391 -195.538011 
L 499.311705 -195.538011 
L 496.099501 -195.538011 
L 492.887296 -195.538011 
L 489.675092 -195.538011 
L 486.462887 -195.538011 
L 483.250683 -195.538011 
L 480.038478 -195.538011 
L 476.826274 -195.538011 
L 473.61407 -195.538011 
L 470.401865 -195.538011 
L 467.189661 -195.538011 
L 463.977456 -195.538011 
L 460.765252 -195.538011 
L 457.553047 -195.538011 
L 454.340843 -195.538011 
L 451.128638 -195.538011 
L 447.916434 -195.538011 
L 444.70423 -195.538011 
L 441.492025 -195.538011 
L 438.279821 -195.538011 
L 435.067616 -195.538011 
L 431.855412 -195.538011 
L 428.643207 -195.538011 
L 425.431003 -195.538011 
L 422.218798 -195.538011 
L 419.006594 -195.538011 
L 415.79439 -195.538011 
L 412.582185 -195.538011 
L 409.369981 -195.538011 
L 406.157776 -195.538011 
L 402.945572 -195.538011 
L 399.733367 -195.538011 
L 396.521163 -195.538011 
L 393.308958 -195.538011 
L 390.096754 -195.538011 
L 386.88455 -195.538011 
L 383.672345 -195.538011 
L 380.460141 -195.538011 
L 377.247936 -195.538011 
L 374.035732 -195.538011 
L 370.823527 -195.538011 
L 367.611323 -195.538011 
L 364.399118 -195.538011 
L 361.186914 -195.538011 
L 357.97471 -195.538011 
L 354.762505 -195.538011 
L 351.550301 -195.538011 
L 348.338096 -195.538011 
L 345.125892 -195.538011 
L 341.913687 -195.538011 
L 338.701483 -195.538011 
L 335.489279 -195.538011 
L 332.277074 -195.538011 
L 329.06487 -195.538011 
L 325.852665 -195.538011 
L 322.640461 -195.538011 
L 319.428256 -195.538011 
L 316.216052 -195.538011 
L 313.003847 -195.538011 
L 309.791643 -195.538011 
L 306.579439 -195.538011 
L 303.367234 -195.538011 
L 300.15503 -195.538011 
L 296.942825 -195.538011 
L 293.730621 -195.538011 
L 290.518416 -195.538011 
L 287.306212 -195.538011 
L 284.094007 -195.538011 
L 280.881803 -195.538011 
L 277.669599 -195.538011 
L 274.457394 -195.538011 
L 271.24519 -195.538011 
L 268.032985 -195.538011 
L 264.820781 -195.538011 
L 261.608576 -195.538011 
L 258.396372 -195.538011 
L 255.184167 -195.538011 
L 251.971963 -195.538011 
L 248.759759 -195.538011 
L 245.547554 -195.538011 
L 242.33535 -195.538011 
L 239.123145 -195.538011 
L 235.910941 -195.538011 
L 232.698736 -195.538011 
L 229.486532 -195.538011 
L 226.274327 -195.538011 
L 223.062123 -195.538011 
L 219.849919 -195.538011 
L 216.637714 -195.538011 
L 213.42551 -195.538011 
L 210.213305 -195.538011 
L 207.001101 -195.538011 
L 203.788896 -195.538011 
L 200.576692 -195.538011 
L 197.364488 -195.538011 
z
" id="maf04c42ce5" style="stroke:#36a2eb;stroke-opacity:0.5;"/>
    </defs>
    <g clip-path="url(#p14f8247477)">
     <use style="fill:#36a2eb;fill-opacity:0.5;stroke:#36a2eb;stroke-opacity:0.5;" x="0" xlink:href="#maf04c42ce5" y="581.789375"/>
    </g>
   </g>
   <g id="line2d_1">
    <path clip-path="url(#p14f8247477)" d="M 58.827273 386.15817 
L 62.687451 386.123029 
L 66.54763 386.075786 
L 70.407809 386.012716 
L 74.267987 385.929101 
L 78.128166 385.819023 
L 81.988344 385.67512 
L 85.848523 385.488317 
L 89.708702 385.247535 
L 93.56888 384.939368 
L 97.429059 384.547758 
L 101.289238 384.053656 
L 105.149416 383.4347 
L 109.009595 382.664921 
L 112.869773 381.714486 
L 116.729952 380.549534 
L 120.590131 379.132093 
L 124.450309 377.420141 
L 128.310488 375.367822 
L 132.170667 372.925856 
L 136.030845 370.042173 
L 139.891024 366.662781 
L 143.751202 362.732911 
L 147.611381 358.198411 
L 151.47156 353.007424 
L 155.331738 347.112297 
L 159.191917 340.471706 
L 163.052096 333.05295 
L 166.912274 324.834319 
L 170.772453 315.807491 
L 174.632631 305.979821 
L 178.49281 295.376435 
L 182.352989 284.042012 
L 186.213167 272.042118 
L 190.073346 259.463999 
L 193.933524 246.416724 
L 197.793703 233.030594 
L 201.653882 219.455762 
L 205.51406 205.860048 
L 209.374239 192.42594 
L 213.234418 179.346864 
L 217.094596 166.822774 
L 220.954775 155.05523 
L 224.814953 144.242092 
L 228.675132 134.57205 
L 232.535311 126.219171 
L 236.395489 119.337706 
L 240.255668 114.057359 
L 244.115847 110.479221 
L 247.976025 108.672552 
L 251.836204 108.672552 
L 255.696382 110.479221 
L 259.556561 114.057359 
L 263.41674 119.337706 
L 267.276918 126.219171 
L 271.137097 134.57205 
L 274.997276 144.242092 
L 278.857454 155.05523 
L 282.717633 166.822774 
L 286.577811 179.346864 
L 290.43799 192.42594 
L 294.298169 205.860048 
L 298.158347 219.455762 
L 302.018526 233.030594 
L 305.878704 246.416724 
L 309.738883 259.463999 
L 313.599062 272.042118 
L 317.45924 284.042012 
L 321.319419 295.376435 
L 325.179598 305.979821 
L 329.039776 315.807491 
L 332.899955 324.834319 
L 336.760133 333.05295 
L 340.620312 340.471706 
L 344.480491 347.112297 
L 348.340669 353.007424 
L 352.200848 358.198411 
L 356.061027 362.732911 
L 359.921205 366.662781 
L 363.781384 370.042173 
L 367.641562 372.925856 
L 371.501741 375.367822 
L 375.36192 377.420141 
L 379.222098 379.132093 
L 383.082277 380.549534 
L 386.942456 381.714486 
L 390.802634 382.664921 
L 394.662813 383.4347 
L 398.522991 384.053656 
L 402.38317 384.547758 
L 406.243349 384.939368 
L 410.103527 385.247535 
L 413.963706 385.488317 
L 417.823885 385.67512 
L 421.684063 385.819023 
L 425.544242 385.929101 
L 429.40442 386.012716 
L 433.264599 386.075786 
L 437.124778 386.123029 
L 440.984956 386.15817 
" style="fill:none;stroke:#ff6384;stroke-linecap:square;"/>
   </g>
   <g id="line2d_2">
    <path clip-path="url(#p14f8247477)" d="M 197.364488 386.139371 
L 200.576692 386.097141 
L 203.788896 386.040368 
L 207.001101 385.964575 
L 210.213305 385.864094 
L 213.42551 385.73181 
L 216.637714 385.558878 
L 219.849919 385.334393 
L 223.062123 385.04504 
L 226.274327 384.674709 
L 229.486532 384.204102 
L 232.698736 383.610328 
L 235.910941 382.866516 
L 239.123145 381.941454 
L 242.33535 380.799296 
L 245.547554 379.399346 
L 248.759759 377.695976 
L 251.971963 375.638684 
L 255.184167 373.172366 
L 258.396372 370.2378 
L 261.608576 366.772413 
L 264.820781 362.711322 
L 268.032985 357.988708 
L 271.24519 352.539497 
L 274.457394 346.301371 
L 277.669599 339.217063 
L 280.881803 331.236916 
L 284.094007 322.321628 
L 287.306212 312.445114 
L 290.518416 301.597371 
L 293.730621 289.787238 
L 296.942825 277.04491 
L 300.15503 263.424078 
L 303.367234 249.003534 
L 306.579439 233.888124 
L 309.791643 218.208919 
L 313.003847 202.122504 
L 316.216052 185.809323 
L 319.428256 169.471045 
L 322.640461 153.326975 
L 325.852665 137.609553 
L 329.06487 122.559072 
L 332.277074 108.417748 
L 335.489279 95.423357 
L 338.701483 83.802649 
L 341.913687 73.764805 
L 345.125892 65.495194 
L 348.338096 59.149682 
L 351.550301 54.849752 
L 354.762505 52.678636 
L 357.97471 52.678636 
L 361.186914 54.849752 
L 364.399118 59.149682 
L 367.611323 65.495194 
L 370.823527 73.764805 
L 374.035732 83.802649 
L 377.247936 95.423357 
L 380.460141 108.417748 
L 383.672345 122.559072 
L 386.88455 137.609553 
L 390.096754 153.326975 
L 393.308958 169.471045 
L 396.521163 185.809323 
L 399.733367 202.122504 
L 402.945572 218.208919 
L 406.157776 233.888124 
L 409.369981 249.003534 
L 412.582185 263.424078 
L 415.79439 277.04491 
L 419.006594 289.787238 
L 422.218798 301.597371 
L 425.431003 312.445114 
L 428.643207 322.321628 
L 431.855412 331.236916 
L 435.067616 339.217063 
L 438.279821 346.301371 
L 441.492025 352.539497 
L 444.70423 357.988708 
L 447.916434 362.711322 
L 451.128638 366.772413 
L 454.340843 370.2378 
L 457.553047 373.172366 
L 460.765252 375.638684 
L 463.977456 377.695976 
L 467.189661 379.399346 
L 470.401865 380.799296 
L 473.61407 381.941454 
L 476.826274 382.866516 
L 480.038478 383.610328 
L 483.250683 384.204102 
L 486.462887 384.674709 
L 489.675092 385.04504 
L 492.887296 385.334393 
L 496.099501 385.558878 
L 499.311705 385.73181 
L 502.52391 385.864094 
L 505.736114 385.964575 
L 508.948318 386.040368 
L 512.160523 386.097141 
L 515.372727 386.139371 
" style="fill:none;stroke:#36a2eb;stroke-linecap:square;"/>
   </g>
   <g id="patch_3">
    <path d="M 36 402.93 
L 538.2 402.93 
" style="fill:none;stroke:#000000;stroke-linecap:square;stroke-linejoin:miter;stroke-width:0.8;"/>
   </g>
   <g id="legend_1">
    <g id="patch_4">
     <path d="M 45.8 88.688125 
L 196.08125 88.688125 
Q 198.88125 88.688125 198.88125 85.888125 
L 198.88125 45.8 
Q 198.88125 43 196.08125 43 
L 45.8 43 
Q 43 43 43 45.8 
L 43 85.888125 
Q 43 88.688125 45.8 88.688125 
z
" style="fill:#ffffff;opacity:0.8;stroke:#cccccc;stroke-linejoin:miter;"/>
    </g>
    <g id="patch_5">
     <path d="M 48.6 59.237813 
L 76.6 59.237813 
L 76.6 49.437813 
L 48.6 49.437813 
z
" style="fill:#ff6384;opacity:0.5;stroke:#ff6384;stroke-linejoin:miter;"/>
    </g>
    <g id="text_1">
     <!-- base -->
     <defs>
      <path d="M 48.6875 27.296875 
Q 48.6875 37.203125 44.609375 42.84375 
Q 40.53125 48.484375 33.40625 48.484375 
Q 26.265625 48.484375 22.1875 42.84375 
Q 18.109375 37.203125 18.109375 27.296875 
Q 18.109375 17.390625 22.1875 11.75 
Q 26.265625 6.109375 33.40625 6.109375 
Q 40.53125 6.109375 44.609375 11.75 
Q 48.6875 17.390625 48.6875 27.296875 
z
M 18.109375 46.390625 
Q 20.953125 51.265625 25.265625 53.625 
Q 29.59375 56 35.59375 56 
Q 45.5625 56 51.78125 48.09375 
Q 58.015625 40.1875 58.015625 27.296875 
Q 58.015625 14.40625 51.78125 6.484375 
Q 45.5625 -1.421875 35.59375 -1.421875 
Q 29.59375 -1.421875 25.265625 0.953125 
Q 20.953125 3.328125 18.109375 8.203125 
L 18.109375 0 
L 9.078125 0 
L 9.078125 75.984375 
L 18.109375 75.984375 
z
" id="DejaVuSans-98"/>
      <path d="M 34.28125 27.484375 
Q 23.390625 27.484375 19.1875 25 
Q 14.984375 22.515625 14.984375 16.5 
Q 14.984375 11.71875 18.140625 8.90625 
Q 21.296875 6.109375 26.703125 6.109375 
Q 34.1875 6.109375 38.703125 11.40625 
Q 43.21875 16.703125 43.21875 25.484375 
L 43.21875 27.484375 
z
M 52.203125 31.203125 
L 52.203125 0 
L 43.21875 0 
L 43.21875 8.296875 
Q 40.140625 3.328125 35.546875 0.953125 
Q 30.953125 -1.421875 24.3125 -1.421875 
Q 15.921875 -1.421875 10.953125 3.296875 
Q 6 8.015625 6 15.921875 
Q 6 25.140625 12.171875 29.828125 
Q 18.359375 34.515625 30.609375 34.515625 
L 43.21875 34.515625 
L 43.21875 35.40625 
Q 43.21875 41.609375 39.140625 45 
Q 35.0625 48.390625 27.6875 48.390625 
Q 23 48.390625 18.546875 47.265625 
Q 14.109375 46.140625 10.015625 43.890625 
L 10.015625 52.203125 
Q 14.9375 54.109375 19.578125 55.046875 
Q 24.21875 56 28.609375 56 
Q 40.484375 56 46.34375 49.84375 
Q 52.203125 43.703125 52.203125 31.203125 
z
" id="DejaVuSans-97"/>
      <path d="M 44.28125 53.078125 
L 44.28125 44.578125 
Q 40.484375 46.53125 36.375 47.5 
Q 32.28125 48.484375 27.875 48.484375 
Q 21.1875 48.484375 17.84375 46.4375 
Q 14.5 44.390625 14.5 40.28125 
Q 14.5 37.15625 16.890625 35.375 
Q 19.28125 33.59375 26.515625 31.984375 
L 29.59375 31.296875 
Q 39.15625 29.25 43.1875 25.515625 
Q 47.21875 21.78125 47.21875 15.09375 
Q 47.21875 7.46875 41.1875 3.015625 
Q 35.15625 -1.421875 24.609375 -1.421875 
Q 20.21875 -1.421875 15.453125 -0.5625 
Q 10.6875 0.296875 5.421875 2 
L 5.421875 11.28125 
Q 10.40625 8.6875 15.234375 7.390625 
Q 20.0625 6.109375 24.8125 6.109375 
Q 31.15625 6.109375 34.5625 8.28125 
Q 37.984375 10.453125 37.984375 14.40625 
Q 37.984375 18.0625 35.515625 20.015625 
Q 33.0625 21.96875 24.703125 23.78125 
L 21.578125 24.515625 
Q 13.234375 26.265625 9.515625 29.90625 
Q 5.8125 33.546875 5.8125 39.890625 
Q 5.8125 47.609375 11.28125 51.796875 
Q 16.75 56 26.8125 56 
Q 31.78125 56 36.171875 55.265625 
Q 40.578125 54.546875 44.28125 53.078125 
z
" id="DejaVuSans-115"/>
      <path d="M 56.203125 29.59375 
L 56.203125 25.203125 
L 14.890625 25.203125 
Q 15.484375 15.921875 20.484375 11.0625 
Q 25.484375 6.203125 34.421875 6.203125 
Q 39.59375 6.203125 44.453125 7.46875 
Q 49.3125 8.734375 54.109375 11.28125 
L 54.109375 2.78125 
Q 49.265625 0.734375 44.1875 -0.34375 
Q 39.109375 -1.421875 33.890625 -1.421875 
Q 20.796875 -1.421875 13.15625 6.1875 
Q 5.515625 13.8125 5.515625 26.8125 
Q 5.515625 40.234375 12.765625 48.109375 
Q 20.015625 56 32.328125 56 
Q 43.359375 56 49.78125 48.890625 
Q 56.203125 41.796875 56.203125 29.59375 
z
M 47.21875 32.234375 
Q 47.125 39.59375 43.09375 43.984375 
Q 39.0625 48.390625 32.421875 48.390625 
Q 24.90625 48.390625 20.390625 44.140625 
Q 15.875 39.890625 15.1875 32.171875 
z
" id="DejaVuSans-101"/>
     </defs>
     <g transform="translate(87.8 59.237813)scale(0.14 -0.14)">
      <use xlink:href="#DejaVuSans-98"/>
      <use x="63.476562" xlink:href="#DejaVuSans-97"/>
      <use x="124.755859" xlink:href="#DejaVuSans-115"/>
      <use x="176.855469" xlink:href="#DejaVuSans-101"/>
     </g>
    </g>
    <g id="patch_6">
     <path d="M 48.6 79.787188 
L 76.6 79.787188 
L 76.6 69.987188 
L 48.6 69.987188 
z
" style="fill:#36a2eb;opacity:0.5;stroke:#36a2eb;stroke-linejoin:miter;"/>
    </g>
    <g id="text_2">
     <!-- no_information -->
     <defs>
      <path d="M 54.890625 33.015625 
L 54.890625 0 
L 45.90625 0 
L 45.90625 32.71875 
Q 45.90625 40.484375 42.875 44.328125 
Q 39.84375 48.1875 33.796875 48.1875 
Q 26.515625 48.1875 22.3125 43.546875 
Q 18.109375 38.921875 18.109375 30.90625 
L 18.109375 0 
L 9.078125 0 
L 9.078125 54.6875 
L 18.109375 54.6875 
L 18.109375 46.1875 
Q 21.34375 51.125 25.703125 53.5625 
Q 30.078125 56 35.796875 56 
Q 45.21875 56 50.046875 50.171875 
Q 54.890625 44.34375 54.890625 33.015625 
z
" id="DejaVuSans-110"/>
      <path d="M 30.609375 48.390625 
Q 23.390625 48.390625 19.1875 42.75 
Q 14.984375 37.109375 14.984375 27.296875 
Q 14.984375 17.484375 19.15625 11.84375 
Q 23.34375 6.203125 30.609375 6.203125 
Q 37.796875 6.203125 41.984375 11.859375 
Q 46.1875 17.53125 46.1875 27.296875 
Q 46.1875 37.015625 41.984375 42.703125 
Q 37.796875 48.390625 30.609375 48.390625 
z
M 30.609375 56 
Q 42.328125 56 49.015625 48.375 
Q 55.71875 40.765625 55.71875 27.296875 
Q 55.71875 13.875 49.015625 6.21875 
Q 42.328125 -1.421875 30.609375 -1.421875 
Q 18.84375 -1.421875 12.171875 6.21875 
Q 5.515625 13.875 5.515625 27.296875 
Q 5.515625 40.765625 12.171875 48.375 
Q 18.84375 56 30.609375 56 
z
" id="DejaVuSans-111"/>
      <path d="M 50.984375 -16.609375 
L 50.984375 -23.578125 
L -0.984375 -23.578125 
L -0.984375 -16.609375 
z
" id="DejaVuSans-95"/>
      <path d="M 9.421875 54.6875 
L 18.40625 54.6875 
L 18.40625 0 
L 9.421875 0 
z
M 9.421875 75.984375 
L 18.40625 75.984375 
L 18.40625 64.59375 
L 9.421875 64.59375 
z
" id="DejaVuSans-105"/>
      <path d="M 37.109375 75.984375 
L 37.109375 68.5 
L 28.515625 68.5 
Q 23.6875 68.5 21.796875 66.546875 
Q 19.921875 64.59375 19.921875 59.515625 
L 19.921875 54.6875 
L 34.71875 54.6875 
L 34.71875 47.703125 
L 19.921875 47.703125 
L 19.921875 0 
L 10.890625 0 
L 10.890625 47.703125 
L 2.296875 47.703125 
L 2.296875 54.6875 
L 10.890625 54.6875 
L 10.890625 58.5 
Q 10.890625 67.625 15.140625 71.796875 
Q 19.390625 75.984375 28.609375 75.984375 
z
" id="DejaVuSans-102"/>
      <path d="M 41.109375 46.296875 
Q 39.59375 47.171875 37.8125 47.578125 
Q 36.03125 48 33.890625 48 
Q 26.265625 48 22.1875 43.046875 
Q 18.109375 38.09375 18.109375 28.8125 
L 18.109375 0 
L 9.078125 0 
L 9.078125 54.6875 
L 18.109375 54.6875 
L 18.109375 46.1875 
Q 20.953125 51.171875 25.484375 53.578125 
Q 30.03125 56 36.53125 56 
Q 37.453125 56 38.578125 55.875 
Q 39.703125 55.765625 41.0625 55.515625 
z
" id="DejaVuSans-114"/>
      <path d="M 52 44.1875 
Q 55.375 50.25 60.0625 53.125 
Q 64.75 56 71.09375 56 
Q 79.640625 56 84.28125 50.015625 
Q 88.921875 44.046875 88.921875 33.015625 
L 88.921875 0 
L 79.890625 0 
L 79.890625 32.71875 
Q 79.890625 40.578125 77.09375 44.375 
Q 74.3125 48.1875 68.609375 48.1875 
Q 61.625 48.1875 57.5625 43.546875 
Q 53.515625 38.921875 53.515625 30.90625 
L 53.515625 0 
L 44.484375 0 
L 44.484375 32.71875 
Q 44.484375 40.625 41.703125 44.40625 
Q 38.921875 48.1875 33.109375 48.1875 
Q 26.21875 48.1875 22.15625 43.53125 
Q 18.109375 38.875 18.109375 30.90625 
L 18.109375 0 
L 9.078125 0 
L 9.078125 54.6875 
L 18.109375 54.6875 
L 18.109375 46.1875 
Q 21.1875 51.21875 25.484375 53.609375 
Q 29.78125 56 35.6875 56 
Q 41.65625 56 45.828125 52.96875 
Q 50 49.953125 52 44.1875 
z
" id="DejaVuSans-109"/>
      <path d="M 18.3125 70.21875 
L 18.3125 54.6875 
L 36.8125 54.6875 
L 36.8125 47.703125 
L 18.3125 47.703125 
L 18.3125 18.015625 
Q 18.3125 11.328125 20.140625 9.421875 
Q 21.96875 7.515625 27.59375 7.515625 
L 36.8125 7.515625 
L 36.8125 0 
L 27.59375 0 
Q 17.1875 0 13.234375 3.875 
Q 9.28125 7.765625 9.28125 18.015625 
L 9.28125 47.703125 
L 2.6875 47.703125 
L 2.6875 54.6875 
L 9.28125 54.6875 
L 9.28125 70.21875 
z
" id="DejaVuSans-116"/>
     </defs>
     <g transform="translate(87.8 79.787188)scale(0.14 -0.14)">
      <use xlink:href="#DejaVuSans-110"/>
      <use x="63.378906" xlink:href="#DejaVuSans-111"/>
      <use x="124.560547" xlink:href="#DejaVuSans-95"/>
      <use x="174.560547" xlink:href="#DejaVuSans-105"/>
      <use x="202.34375" xlink:href="#DejaVuSans-110"/>
      <use x="265.722656" xlink:href="#DejaVuSans-102"/>
      <use x="300.927734" xlink:href="#DejaVuSans-111"/>
      <use x="362.109375" xlink:href="#DejaVuSans-114"/>
      <use x="403.207031" xlink:href="#DejaVuSans-109"/>
      <use x="500.619141" xlink:href="#DejaVuSans-97"/>
      <use x="561.898438" xlink:href="#DejaVuSans-116"/>
      <use x="601.107422" xlink:href="#DejaVuSans-105"/>
      <use x="628.890625" xlink:href="#DejaVuSans-111"/>
      <use x="690.072266" xlink:href="#DejaVuSans-110"/>
     </g>
    </g>
   </g>
  </g>
  <g id="axes_2">
   <g id="patch_7">
    <path d="M 36 525.24 
L 538.2 525.24 
L 538.2 402.93 
L 36 402.93 
z
" style="fill:none;"/>
   </g>
   <g id="patch_8">
    <path clip-path="url(#pcc19480bfd)" d="M 156.277482 519.680455 
L 343.534747 519.680455 
L 343.534747 482.616818 
L 156.277482 482.616818 
z
" style="fill:#ff6384;opacity:0.5;"/>
   </g>
   <g id="patch_9">
    <path clip-path="url(#pcc19480bfd)" d="M 278.456589 445.553182 
L 434.280626 445.553182 
L 434.280626 408.489545 
L 278.456589 408.489545 
z
" style="fill:#36a2eb;opacity:0.5;"/>
   </g>
   <g id="matplotlib.axis_1">
    <g id="xtick_1">
     <g id="line2d_3">
      <defs>
       <path d="M 0 0 
L 0 3.5 
" id="m0aa40450d0" style="stroke:#000000;stroke-width:0.8;"/>
      </defs>
      <g>
       <use style="stroke:#000000;stroke-width:0.8;" x="83.191535" xlink:href="#m0aa40450d0" y="525.24"/>
      </g>
     </g>
     <g id="text_3">
      <!-- 16 -->
      <defs>
       <path d="M 12.40625 8.296875 
L 28.515625 8.296875 
L 28.515625 63.921875 
L 10.984375 60.40625 
L 10.984375 69.390625 
L 28.421875 72.90625 
L 38.28125 72.90625 
L 38.28125 8.296875 
L 54.390625 8.296875 
L 54.390625 0 
L 12.40625 0 
z
" id="DejaVuSans-49"/>
       <path d="M 33.015625 40.375 
Q 26.375 40.375 22.484375 35.828125 
Q 18.609375 31.296875 18.609375 23.390625 
Q 18.609375 15.53125 22.484375 10.953125 
Q 26.375 6.390625 33.015625 6.390625 
Q 39.65625 6.390625 43.53125 10.953125 
Q 47.40625 15.53125 47.40625 23.390625 
Q 47.40625 31.296875 43.53125 35.828125 
Q 39.65625 40.375 33.015625 40.375 
z
M 52.59375 71.296875 
L 52.59375 62.3125 
Q 48.875 64.0625 45.09375 64.984375 
Q 41.3125 65.921875 37.59375 65.921875 
Q 27.828125 65.921875 22.671875 59.328125 
Q 17.53125 52.734375 16.796875 39.40625 
Q 19.671875 43.65625 24.015625 45.921875 
Q 28.375 48.1875 33.59375 48.1875 
Q 44.578125 48.1875 50.953125 41.515625 
Q 57.328125 34.859375 57.328125 23.390625 
Q 57.328125 12.15625 50.6875 5.359375 
Q 44.046875 -1.421875 33.015625 -1.421875 
Q 20.359375 -1.421875 13.671875 8.265625 
Q 6.984375 17.96875 6.984375 36.375 
Q 6.984375 53.65625 15.1875 63.9375 
Q 23.390625 74.21875 37.203125 74.21875 
Q 40.921875 74.21875 44.703125 73.484375 
Q 48.484375 72.75 52.59375 71.296875 
z
" id="DejaVuSans-54"/>
      </defs>
      <g transform="translate(74.284035 542.877813)scale(0.14 -0.14)">
       <use xlink:href="#DejaVuSans-49"/>
       <use x="63.623047" xlink:href="#DejaVuSans-54"/>
      </g>
     </g>
    </g>
    <g id="xtick_2">
     <g id="line2d_4">
      <g>
       <use style="stroke:#000000;stroke-width:0.8;" x="176.678093" xlink:href="#m0aa40450d0" y="525.24"/>
      </g>
     </g>
     <g id="text_4">
      <!-- 17 -->
      <defs>
       <path d="M 8.203125 72.90625 
L 55.078125 72.90625 
L 55.078125 68.703125 
L 28.609375 0 
L 18.3125 0 
L 43.21875 64.59375 
L 8.203125 64.59375 
z
" id="DejaVuSans-55"/>
      </defs>
      <g transform="translate(167.770593 542.877813)scale(0.14 -0.14)">
       <use xlink:href="#DejaVuSans-49"/>
       <use x="63.623047" xlink:href="#DejaVuSans-55"/>
      </g>
     </g>
    </g>
    <g id="xtick_3">
     <g id="line2d_5">
      <g>
       <use style="stroke:#000000;stroke-width:0.8;" x="270.164652" xlink:href="#m0aa40450d0" y="525.24"/>
      </g>
     </g>
     <g id="text_5">
      <!-- 18 -->
      <defs>
       <path d="M 31.78125 34.625 
Q 24.75 34.625 20.71875 30.859375 
Q 16.703125 27.09375 16.703125 20.515625 
Q 16.703125 13.921875 20.71875 10.15625 
Q 24.75 6.390625 31.78125 6.390625 
Q 38.8125 6.390625 42.859375 10.171875 
Q 46.921875 13.96875 46.921875 20.515625 
Q 46.921875 27.09375 42.890625 30.859375 
Q 38.875 34.625 31.78125 34.625 
z
M 21.921875 38.8125 
Q 15.578125 40.375 12.03125 44.71875 
Q 8.5 49.078125 8.5 55.328125 
Q 8.5 64.0625 14.71875 69.140625 
Q 20.953125 74.21875 31.78125 74.21875 
Q 42.671875 74.21875 48.875 69.140625 
Q 55.078125 64.0625 55.078125 55.328125 
Q 55.078125 49.078125 51.53125 44.71875 
Q 48 40.375 41.703125 38.8125 
Q 48.828125 37.15625 52.796875 32.3125 
Q 56.78125 27.484375 56.78125 20.515625 
Q 56.78125 9.90625 50.3125 4.234375 
Q 43.84375 -1.421875 31.78125 -1.421875 
Q 19.734375 -1.421875 13.25 4.234375 
Q 6.78125 9.90625 6.78125 20.515625 
Q 6.78125 27.484375 10.78125 32.3125 
Q 14.796875 37.15625 21.921875 38.8125 
z
M 18.3125 54.390625 
Q 18.3125 48.734375 21.84375 45.5625 
Q 25.390625 42.390625 31.78125 42.390625 
Q 38.140625 42.390625 41.71875 45.5625 
Q 45.3125 48.734375 45.3125 54.390625 
Q 45.3125 60.0625 41.71875 63.234375 
Q 38.140625 66.40625 31.78125 66.40625 
Q 25.390625 66.40625 21.84375 63.234375 
Q 18.3125 60.0625 18.3125 54.390625 
z
" id="DejaVuSans-56"/>
      </defs>
      <g transform="translate(261.257152 542.877813)scale(0.14 -0.14)">
       <use xlink:href="#DejaVuSans-49"/>
       <use x="63.623047" xlink:href="#DejaVuSans-56"/>
      </g>
     </g>
    </g>
    <g id="xtick_4">
     <g id="line2d_6">
      <g>
       <use style="stroke:#000000;stroke-width:0.8;" x="363.65121" xlink:href="#m0aa40450d0" y="525.24"/>
      </g>
     </g>
     <g id="text_6">
      <!-- 19 -->
      <defs>
       <path d="M 10.984375 1.515625 
L 10.984375 10.5 
Q 14.703125 8.734375 18.5 7.8125 
Q 22.3125 6.890625 25.984375 6.890625 
Q 35.75 6.890625 40.890625 13.453125 
Q 46.046875 20.015625 46.78125 33.40625 
Q 43.953125 29.203125 39.59375 26.953125 
Q 35.25 24.703125 29.984375 24.703125 
Q 19.046875 24.703125 12.671875 31.3125 
Q 6.296875 37.9375 6.296875 49.421875 
Q 6.296875 60.640625 12.9375 67.421875 
Q 19.578125 74.21875 30.609375 74.21875 
Q 43.265625 74.21875 49.921875 64.515625 
Q 56.59375 54.828125 56.59375 36.375 
Q 56.59375 19.140625 48.40625 8.859375 
Q 40.234375 -1.421875 26.421875 -1.421875 
Q 22.703125 -1.421875 18.890625 -0.6875 
Q 15.09375 0.046875 10.984375 1.515625 
z
M 30.609375 32.421875 
Q 37.25 32.421875 41.125 36.953125 
Q 45.015625 41.5 45.015625 49.421875 
Q 45.015625 57.28125 41.125 61.84375 
Q 37.25 66.40625 30.609375 66.40625 
Q 23.96875 66.40625 20.09375 61.84375 
Q 16.21875 57.28125 16.21875 49.421875 
Q 16.21875 41.5 20.09375 36.953125 
Q 23.96875 32.421875 30.609375 32.421875 
z
" id="DejaVuSans-57"/>
      </defs>
      <g transform="translate(354.74371 542.877813)scale(0.14 -0.14)">
       <use xlink:href="#DejaVuSans-49"/>
       <use x="63.623047" xlink:href="#DejaVuSans-57"/>
      </g>
     </g>
    </g>
    <g id="xtick_5">
     <g id="line2d_7">
      <g>
       <use style="stroke:#000000;stroke-width:0.8;" x="457.137769" xlink:href="#m0aa40450d0" y="525.24"/>
      </g>
     </g>
     <g id="text_7">
      <!-- 20 -->
      <defs>
       <path d="M 19.1875 8.296875 
L 53.609375 8.296875 
L 53.609375 0 
L 7.328125 0 
L 7.328125 8.296875 
Q 12.9375 14.109375 22.625 23.890625 
Q 32.328125 33.6875 34.8125 36.53125 
Q 39.546875 41.84375 41.421875 45.53125 
Q 43.3125 49.21875 43.3125 52.78125 
Q 43.3125 58.59375 39.234375 62.25 
Q 35.15625 65.921875 28.609375 65.921875 
Q 23.96875 65.921875 18.8125 64.3125 
Q 13.671875 62.703125 7.8125 59.421875 
L 7.8125 69.390625 
Q 13.765625 71.78125 18.9375 73 
Q 24.125 74.21875 28.421875 74.21875 
Q 39.75 74.21875 46.484375 68.546875 
Q 53.21875 62.890625 53.21875 53.421875 
Q 53.21875 48.921875 51.53125 44.890625 
Q 49.859375 40.875 45.40625 35.40625 
Q 44.1875 33.984375 37.640625 27.21875 
Q 31.109375 20.453125 19.1875 8.296875 
z
" id="DejaVuSans-50"/>
       <path d="M 31.78125 66.40625 
Q 24.171875 66.40625 20.328125 58.90625 
Q 16.5 51.421875 16.5 36.375 
Q 16.5 21.390625 20.328125 13.890625 
Q 24.171875 6.390625 31.78125 6.390625 
Q 39.453125 6.390625 43.28125 13.890625 
Q 47.125 21.390625 47.125 36.375 
Q 47.125 51.421875 43.28125 58.90625 
Q 39.453125 66.40625 31.78125 66.40625 
z
M 31.78125 74.21875 
Q 44.046875 74.21875 50.515625 64.515625 
Q 56.984375 54.828125 56.984375 36.375 
Q 56.984375 17.96875 50.515625 8.265625 
Q 44.046875 -1.421875 31.78125 -1.421875 
Q 19.53125 -1.421875 13.0625 8.265625 
Q 6.59375 17.96875 6.59375 36.375 
Q 6.59375 54.828125 13.0625 64.515625 
Q 19.53125 74.21875 31.78125 74.21875 
z
" id="DejaVuSans-48"/>
      </defs>
      <g transform="translate(448.230269 542.877813)scale(0.14 -0.14)">
       <use xlink:href="#DejaVuSans-50"/>
       <use x="63.623047" xlink:href="#DejaVuSans-48"/>
      </g>
     </g>
    </g>
   </g>
   <g id="line2d_8">
    <path clip-path="url(#pcc19480bfd)" d="M 249.906114 525.24 
L 249.906114 402.93 
" style="fill:none;stroke:#ff6384;stroke-dasharray:5.55,2.4;stroke-dashoffset:0;stroke-opacity:0.8;stroke-width:1.5;"/>
   </g>
   <g id="line2d_9">
    <path clip-path="url(#pcc19480bfd)" d="M 356.368607 525.24 
L 356.368607 402.93 
" style="fill:none;stroke:#36a2eb;stroke-dasharray:5.55,2.4;stroke-dashoffset:0;stroke-opacity:0.8;stroke-width:1.5;"/>
   </g>
   <g id="patch_10">
    <path d="M 36 525.24 
L 538.2 525.24 
" style="fill:none;stroke:#000000;stroke-linecap:square;stroke-linejoin:miter;stroke-width:0.8;"/>
   </g>
  </g>
 </g>
 <defs>
  <clipPath id="p14f8247477">
   <rect height="366.93" width="502.2" x="36" y="36"/>
  </clipPath>
  <clipPath id="pcc19480bfd">
   <rect height="122.31" width="502.2" x="36" y="402.93"/>
  </clipPath>
 </defs>
</svg>
