<?xml version="1.0" encoding="utf-8" standalone="no"?>
<!DOCTYPE svg PUBLIC "-//W3C//DTD SVG 1.1//EN"
  "http://www.w3.org/Graphics/SVG/1.1/DTD/svg11.dtd">
<!-- Created with matplotlib (https://matplotlib.org/) -->
<svg height="581.789375pt" version="1.1" viewBox="0 0 574.2 581.789375" width="574.2pt" xmlns="http://www.w3.org/2000/svg" xmlns:xlink="http://www.w3.org/1999/xlink">
 <defs>
  <style type="text/css">
*{stroke-linecap:butt;stroke-linejoin:round;}
  </style>
 </defs>
 <g id="figure_1">
  <g id="patch_1">
   <path d="M 0 581.789375 
L 574.2 581.789375 
L 574.2 0 
L 0 0 
z
" style="fill:none;"/>
  </g>
  <g id="axes_1">
   <g id="patch_2">
    <path d="M 36 402.93 
L 538.2 402.93 
L 538.2 36 
L 36 36 
z
" style="fill:none;"/>
   </g>
   <g id="PolyCollection_1">
    <defs>
     <path d="M 58.827273 -195.538011 
L 58.827273 -195.650004 
L 62.907996 -195.692234 
L 66.988719 -195.749007 
L 71.069443 -195.8248 
L 75.150166 -195.925281 
L 79.230889 -196.057565 
L 83.311613 -196.230497 
L 87.392336 -196.454982 
L 91.473059 -196.744335 
L 95.553783 -197.114666 
L 99.634506 -197.585273 
L 103.715229 -198.179047 
L 107.795953 -198.922859 
L 111.876676 -199.847921 
L 115.957399 -200.990079 
L 120.038123 -202.390029 
L 124.118846 -204.093399 
L 128.199569 -206.150691 
L 132.280293 -208.617009 
L 136.361016 -211.551575 
L 140.441739 -215.016962 
L 144.522463 -219.078053 
L 148.603186 -223.800667 
L 152.683909 -229.249878 
L 156.764633 -235.488004 
L 160.845356 -242.572312 
L 164.926079 -250.552459 
L 169.006803 -259.467747 
L 173.087526 -269.344261 
L 177.168249 -280.192004 
L 181.248973 -292.002137 
L 185.329696 -304.744465 
L 189.410419 -318.365297 
L 193.491142 -332.785841 
L 197.571866 -347.901251 
L 201.652589 -363.580456 
L 205.733312 -379.666871 
L 209.814036 -395.980052 
L 213.894759 -412.31833 
L 217.975482 -428.4624 
L 222.056206 -444.179822 
L 226.136929 -459.230303 
L 230.217652 -473.371627 
L 234.298376 -486.366018 
L 238.379099 -497.986726 
L 242.459822 -508.02457 
L 246.540546 -516.294181 
L 250.621269 -522.639693 
L 254.701992 -526.939623 
L 258.782716 -529.110739 
L 262.863439 -529.110739 
L 266.944162 -526.939623 
L 271.024886 -522.639693 
L 275.105609 -516.294181 
L 279.186332 -508.02457 
L 283.267056 -497.986726 
L 287.347779 -486.366018 
L 291.428502 -473.371627 
L 295.509226 -459.230303 
L 299.589949 -444.179822 
L 303.670672 -428.4624 
L 307.751396 -412.31833 
L 311.832119 -395.980052 
L 315.912842 -379.666871 
L 319.993566 -363.580456 
L 324.074289 -347.901251 
L 328.155012 -332.785841 
L 332.235736 -318.365297 
L 336.316459 -304.744465 
L 340.397182 -292.002137 
L 344.477906 -280.192004 
L 348.558629 -269.344261 
L 352.639352 -259.467747 
L 356.720076 -250.552459 
L 360.800799 -242.572312 
L 364.881522 -235.488004 
L 368.962246 -229.249878 
L 373.042969 -223.800667 
L 377.123692 -219.078053 
L 381.204416 -215.016962 
L 385.285139 -211.551575 
L 389.365862 -208.617009 
L 393.446585 -206.150691 
L 397.527309 -204.093399 
L 401.608032 -202.390029 
L 405.688755 -200.990079 
L 409.769479 -199.847921 
L 413.850202 -198.922859 
L 417.930925 -198.179047 
L 422.011649 -197.585273 
L 426.092372 -197.114666 
L 430.173095 -196.744335 
L 434.253819 -196.454982 
L 438.334542 -196.230497 
L 442.415265 -196.057565 
L 446.495989 -195.925281 
L 450.576712 -195.8248 
L 454.657435 -195.749007 
L 458.738159 -195.692234 
L 462.818882 -195.650004 
L 462.818882 -195.538011 
L 462.818882 -195.538011 
L 458.738159 -195.538011 
L 454.657435 -195.538011 
L 450.576712 -195.538011 
L 446.495989 -195.538011 
L 442.415265 -195.538011 
L 438.334542 -195.538011 
L 434.253819 -195.538011 
L 430.173095 -195.538011 
L 426.092372 -195.538011 
L 422.011649 -195.538011 
L 417.930925 -195.538011 
L 413.850202 -195.538011 
L 409.769479 -195.538011 
L 405.688755 -195.538011 
L 401.608032 -195.538011 
L 397.527309 -195.538011 
L 393.446585 -195.538011 
L 389.365862 -195.538011 
L 385.285139 -195.538011 
L 381.204416 -195.538011 
L 377.123692 -195.538011 
L 373.042969 -195.538011 
L 368.962246 -195.538011 
L 364.881522 -195.538011 
L 360.800799 -195.538011 
L 356.720076 -195.538011 
L 352.639352 -195.538011 
L 348.558629 -195.538011 
L 344.477906 -195.538011 
L 340.397182 -195.538011 
L 336.316459 -195.538011 
L 332.235736 -195.538011 
L 328.155012 -195.538011 
L 324.074289 -195.538011 
L 319.993566 -195.538011 
L 315.912842 -195.538011 
L 311.832119 -195.538011 
L 307.751396 -195.538011 
L 303.670672 -195.538011 
L 299.589949 -195.538011 
L 295.509226 -195.538011 
L 291.428502 -195.538011 
L 287.347779 -195.538011 
L 283.267056 -195.538011 
L 279.186332 -195.538011 
L 275.105609 -195.538011 
L 271.024886 -195.538011 
L 266.944162 -195.538011 
L 262.863439 -195.538011 
L 258.782716 -195.538011 
L 254.701992 -195.538011 
L 250.621269 -195.538011 
L 246.540546 -195.538011 
L 242.459822 -195.538011 
L 238.379099 -195.538011 
L 234.298376 -195.538011 
L 230.217652 -195.538011 
L 226.136929 -195.538011 
L 222.056206 -195.538011 
L 217.975482 -195.538011 
L 213.894759 -195.538011 
L 209.814036 -195.538011 
L 205.733312 -195.538011 
L 201.652589 -195.538011 
L 197.571866 -195.538011 
L 193.491142 -195.538011 
L 189.410419 -195.538011 
L 185.329696 -195.538011 
L 181.248973 -195.538011 
L 177.168249 -195.538011 
L 173.087526 -195.538011 
L 169.006803 -195.538011 
L 164.926079 -195.538011 
L 160.845356 -195.538011 
L 156.764633 -195.538011 
L 152.683909 -195.538011 
L 148.603186 -195.538011 
L 144.522463 -195.538011 
L 140.441739 -195.538011 
L 136.361016 -195.538011 
L 132.280293 -195.538011 
L 128.199569 -195.538011 
L 124.118846 -195.538011 
L 120.038123 -195.538011 
L 115.957399 -195.538011 
L 111.876676 -195.538011 
L 107.795953 -195.538011 
L 103.715229 -195.538011 
L 99.634506 -195.538011 
L 95.553783 -195.538011 
L 91.473059 -195.538011 
L 87.392336 -195.538011 
L 83.311613 -195.538011 
L 79.230889 -195.538011 
L 75.150166 -195.538011 
L 71.069443 -195.538011 
L 66.988719 -195.538011 
L 62.907996 -195.538011 
L 58.827273 -195.538011 
z
" id="me32ab4d3c2" style="stroke:#ff6384;stroke-opacity:0.5;"/>
    </defs>
    <g clip-path="url(#p705cd1515b)">
     <use style="fill:#ff6384;fill-opacity:0.5;stroke:#ff6384;stroke-opacity:0.5;" x="0" xlink:href="#me32ab4d3c2" y="581.789375"/>
    </g>
   </g>
   <g id="PolyCollection_2">
    <defs>
     <path d="M 109.181017 -195.538011 
L 109.181017 -195.649397 
L 113.283964 -195.691399 
L 117.38691 -195.747864 
L 121.489857 -195.823246 
L 125.592804 -195.923184 
L 129.69575 -196.054751 
L 133.798697 -196.226746 
L 137.901643 -196.450015 
L 142.00459 -196.737801 
L 146.107536 -197.106126 
L 150.210483 -197.574184 
L 154.31343 -198.164742 
L 158.416376 -198.904525 
L 162.519323 -199.824577 
L 166.622269 -200.960549 
L 170.725216 -202.352915 
L 174.828162 -204.04706 
L 178.931109 -206.093208 
L 183.034056 -208.546168 
L 187.137002 -211.464838 
L 191.239949 -214.911456 
L 195.342895 -218.95055 
L 199.445842 -223.647585 
L 203.548788 -229.067281 
L 207.651735 -235.271619 
L 211.754681 -242.317555 
L 215.857628 -250.254478 
L 219.960575 -259.121477 
L 224.063521 -268.944496 
L 228.166468 -279.733483 
L 232.269414 -291.479648 
L 236.372361 -304.152958 
L 240.475307 -317.700014 
L 244.578254 -332.042451 
L 248.681201 -347.075989 
L 252.784147 -362.670269 
L 256.887094 -378.669553 
L 260.99004 -394.894376 
L 265.092987 -411.144159 
L 269.195933 -427.200786 
L 273.29888 -442.833076 
L 277.401827 -457.802038 
L 281.504773 -471.866766 
L 285.60772 -484.790774 
L 289.710666 -496.34854 
L 293.813613 -506.332015 
L 297.916559 -514.556834 
L 302.019506 -520.867977 
L 306.122452 -525.144616 
L 310.225399 -527.303972 
L 314.328346 -527.303972 
L 318.431292 -525.144616 
L 322.534239 -520.867977 
L 326.637185 -514.556834 
L 330.740132 -506.332015 
L 334.843078 -496.34854 
L 338.946025 -484.790774 
L 343.048972 -471.866766 
L 347.151918 -457.802038 
L 351.254865 -442.833076 
L 355.357811 -427.200786 
L 359.460758 -411.144159 
L 363.563704 -394.894376 
L 367.666651 -378.669553 
L 371.769598 -362.670269 
L 375.872544 -347.075989 
L 379.975491 -332.042451 
L 384.078437 -317.700014 
L 388.181384 -304.152958 
L 392.28433 -291.479648 
L 396.387277 -279.733483 
L 400.490223 -268.944496 
L 404.59317 -259.121477 
L 408.696117 -250.254478 
L 412.799063 -242.317555 
L 416.90201 -235.271619 
L 421.004956 -229.067281 
L 425.107903 -223.647585 
L 429.210849 -218.95055 
L 433.313796 -214.911456 
L 437.416743 -211.464838 
L 441.519689 -208.546168 
L 445.622636 -206.093208 
L 449.725582 -204.04706 
L 453.828529 -202.352915 
L 457.931475 -200.960549 
L 462.034422 -199.824577 
L 466.137368 -198.904525 
L 470.240315 -198.164742 
L 474.343262 -197.574184 
L 478.446208 -197.106126 
L 482.549155 -196.737801 
L 486.652101 -196.450015 
L 490.755048 -196.226746 
L 494.857994 -196.054751 
L 498.960941 -195.923184 
L 503.063888 -195.823246 
L 507.166834 -195.747864 
L 511.269781 -195.691399 
L 515.372727 -195.649397 
L 515.372727 -195.538011 
L 515.372727 -195.538011 
L 511.269781 -195.538011 
L 507.166834 -195.538011 
L 503.063888 -195.538011 
L 498.960941 -195.538011 
L 494.857994 -195.538011 
L 490.755048 -195.538011 
L 486.652101 -195.538011 
L 482.549155 -195.538011 
L 478.446208 -195.538011 
L 474.343262 -195.538011 
L 470.240315 -195.538011 
L 466.137368 -195.538011 
L 462.034422 -195.538011 
L 457.931475 -195.538011 
L 453.828529 -195.538011 
L 449.725582 -195.538011 
L 445.622636 -195.538011 
L 441.519689 -195.538011 
L 437.416743 -195.538011 
L 433.313796 -195.538011 
L 429.210849 -195.538011 
L 425.107903 -195.538011 
L 421.004956 -195.538011 
L 416.90201 -195.538011 
L 412.799063 -195.538011 
L 408.696117 -195.538011 
L 404.59317 -195.538011 
L 400.490223 -195.538011 
L 396.387277 -195.538011 
L 392.28433 -195.538011 
L 388.181384 -195.538011 
L 384.078437 -195.538011 
L 379.975491 -195.538011 
L 375.872544 -195.538011 
L 371.769598 -195.538011 
L 367.666651 -195.538011 
L 363.563704 -195.538011 
L 359.460758 -195.538011 
L 355.357811 -195.538011 
L 351.254865 -195.538011 
L 347.151918 -195.538011 
L 343.048972 -195.538011 
L 338.946025 -195.538011 
L 334.843078 -195.538011 
L 330.740132 -195.538011 
L 326.637185 -195.538011 
L 322.534239 -195.538011 
L 318.431292 -195.538011 
L 314.328346 -195.538011 
L 310.225399 -195.538011 
L 306.122452 -195.538011 
L 302.019506 -195.538011 
L 297.916559 -195.538011 
L 293.813613 -195.538011 
L 289.710666 -195.538011 
L 285.60772 -195.538011 
L 281.504773 -195.538011 
L 277.401827 -195.538011 
L 273.29888 -195.538011 
L 269.195933 -195.538011 
L 265.092987 -195.538011 
L 260.99004 -195.538011 
L 256.887094 -195.538011 
L 252.784147 -195.538011 
L 248.681201 -195.538011 
L 244.578254 -195.538011 
L 240.475307 -195.538011 
L 236.372361 -195.538011 
L 232.269414 -195.538011 
L 228.166468 -195.538011 
L 224.063521 -195.538011 
L 219.960575 -195.538011 
L 215.857628 -195.538011 
L 211.754681 -195.538011 
L 207.651735 -195.538011 
L 203.548788 -195.538011 
L 199.445842 -195.538011 
L 195.342895 -195.538011 
L 191.239949 -195.538011 
L 187.137002 -195.538011 
L 183.034056 -195.538011 
L 178.931109 -195.538011 
L 174.828162 -195.538011 
L 170.725216 -195.538011 
L 166.622269 -195.538011 
L 162.519323 -195.538011 
L 158.416376 -195.538011 
L 154.31343 -195.538011 
L 150.210483 -195.538011 
L 146.107536 -195.538011 
L 142.00459 -195.538011 
L 137.901643 -195.538011 
L 133.798697 -195.538011 
L 129.69575 -195.538011 
L 125.592804 -195.538011 
L 121.489857 -195.538011 
L 117.38691 -195.538011 
L 113.283964 -195.538011 
L 109.181017 -195.538011 
z
" id="ma5a344d312" style="stroke:#36a2eb;stroke-opacity:0.5;"/>
    </defs>
    <g clip-path="url(#p705cd1515b)">
     <use style="fill:#36a2eb;fill-opacity:0.5;stroke:#36a2eb;stroke-opacity:0.5;" x="0" xlink:href="#ma5a344d312" y="581.789375"/>
    </g>
   </g>
   <g id="line2d_1">
    <path clip-path="url(#p705cd1515b)" d="M 58.827273 386.139371 
L 62.907996 386.097141 
L 66.988719 386.040368 
L 71.069443 385.964575 
L 75.150166 385.864094 
L 79.230889 385.73181 
L 83.311613 385.558878 
L 87.392336 385.334393 
L 91.473059 385.04504 
L 95.553783 384.674709 
L 99.634506 384.204102 
L 103.715229 383.610328 
L 107.795953 382.866516 
L 111.876676 381.941454 
L 115.957399 380.799296 
L 120.038123 379.399346 
L 124.118846 377.695976 
L 128.199569 375.638684 
L 132.280293 373.172366 
L 136.361016 370.2378 
L 140.441739 366.772413 
L 144.522463 362.711322 
L 148.603186 357.988708 
L 152.683909 352.539497 
L 156.764633 346.301371 
L 160.845356 339.217063 
L 164.926079 331.236916 
L 169.006803 322.321628 
L 173.087526 312.445114 
L 177.168249 301.597371 
L 181.248973 289.787238 
L 185.329696 277.04491 
L 189.410419 263.424078 
L 193.491142 249.003534 
L 197.571866 233.888124 
L 201.652589 218.208919 
L 205.733312 202.122504 
L 209.814036 185.809323 
L 213.894759 169.471045 
L 217.975482 153.326975 
L 222.056206 137.609553 
L 226.136929 122.559072 
L 230.217652 108.417748 
L 234.298376 95.423357 
L 238.379099 83.802649 
L 242.459822 73.764805 
L 246.540546 65.495194 
L 250.621269 59.149682 
L 254.701992 54.849752 
L 258.782716 52.678636 
L 262.863439 52.678636 
L 266.944162 54.849752 
L 271.024886 59.149682 
L 275.105609 65.495194 
L 279.186332 73.764805 
L 283.267056 83.802649 
L 287.347779 95.423357 
L 291.428502 108.417748 
L 295.509226 122.559072 
L 299.589949 137.609553 
L 303.670672 153.326975 
L 307.751396 169.471045 
L 311.832119 185.809323 
L 315.912842 202.122504 
L 319.993566 218.208919 
L 324.074289 233.888124 
L 328.155012 249.003534 
L 332.235736 263.424078 
L 336.316459 277.04491 
L 340.397182 289.787238 
L 344.477906 301.597371 
L 348.558629 312.445114 
L 352.639352 322.321628 
L 356.720076 331.236916 
L 360.800799 339.217063 
L 364.881522 346.301371 
L 368.962246 352.539497 
L 373.042969 357.988708 
L 377.123692 362.711322 
L 381.204416 366.772413 
L 385.285139 370.2378 
L 389.365862 373.172366 
L 393.446585 375.638684 
L 397.527309 377.695976 
L 401.608032 379.399346 
L 405.688755 380.799296 
L 409.769479 381.941454 
L 413.850202 382.866516 
L 417.930925 383.610328 
L 422.011649 384.204102 
L 426.092372 384.674709 
L 430.173095 385.04504 
L 434.253819 385.334393 
L 438.334542 385.558878 
L 442.415265 385.73181 
L 446.495989 385.864094 
L 450.576712 385.964575 
L 454.657435 386.040368 
L 458.738159 386.097141 
L 462.818882 386.139371 
" style="fill:none;stroke:#ff6384;stroke-linecap:square;"/>
   </g>
   <g id="line2d_2">
    <path clip-path="url(#p705cd1515b)" d="M 109.181017 386.139978 
L 113.283964 386.097976 
L 117.38691 386.041511 
L 121.489857 385.966129 
L 125.592804 385.866191 
L 129.69575 385.734624 
L 133.798697 385.562629 
L 137.901643 385.33936 
L 142.00459 385.051574 
L 146.107536 384.683249 
L 150.210483 384.215191 
L 154.31343 383.624633 
L 158.416376 382.88485 
L 162.519323 381.964798 
L 166.622269 380.828826 
L 170.725216 379.43646 
L 174.828162 377.742315 
L 178.931109 375.696167 
L 183.034056 373.243207 
L 187.137002 370.324537 
L 191.239949 366.877919 
L 195.342895 362.838825 
L 199.445842 358.14179 
L 203.548788 352.722094 
L 207.651735 346.517756 
L 211.754681 339.47182 
L 215.857628 331.534897 
L 219.960575 322.667898 
L 224.063521 312.844879 
L 228.166468 302.055892 
L 232.269414 290.309727 
L 236.372361 277.636417 
L 240.475307 264.089361 
L 244.578254 249.746924 
L 248.681201 234.713386 
L 252.784147 219.119106 
L 256.887094 203.119822 
L 260.99004 186.894999 
L 265.092987 170.645216 
L 269.195933 154.588589 
L 273.29888 138.956299 
L 277.401827 123.987337 
L 281.504773 109.922609 
L 285.60772 96.998601 
L 289.710666 85.440835 
L 293.813613 75.45736 
L 297.916559 67.232541 
L 302.019506 60.921398 
L 306.122452 56.644759 
L 310.225399 54.485403 
L 314.328346 54.485403 
L 318.431292 56.644759 
L 322.534239 60.921398 
L 326.637185 67.232541 
L 330.740132 75.45736 
L 334.843078 85.440835 
L 338.946025 96.998601 
L 343.048972 109.922609 
L 347.151918 123.987337 
L 351.254865 138.956299 
L 355.357811 154.588589 
L 359.460758 170.645216 
L 363.563704 186.894999 
L 367.666651 203.119822 
L 371.769598 219.119106 
L 375.872544 234.713386 
L 379.975491 249.746924 
L 384.078437 264.089361 
L 388.181384 277.636417 
L 392.28433 290.309727 
L 396.387277 302.055892 
L 400.490223 312.844879 
L 404.59317 322.667898 
L 408.696117 331.534897 
L 412.799063 339.47182 
L 416.90201 346.517756 
L 421.004956 352.722094 
L 425.107903 358.14179 
L 429.210849 362.838825 
L 433.313796 366.877919 
L 437.416743 370.324537 
L 441.519689 373.243207 
L 445.622636 375.696167 
L 449.725582 377.742315 
L 453.828529 379.43646 
L 457.931475 380.828826 
L 462.034422 381.964798 
L 466.137368 382.88485 
L 470.240315 383.624633 
L 474.343262 384.215191 
L 478.446208 384.683249 
L 482.549155 385.051574 
L 486.652101 385.33936 
L 490.755048 385.562629 
L 494.857994 385.734624 
L 498.960941 385.866191 
L 503.063888 385.966129 
L 507.166834 386.041511 
L 511.269781 386.097976 
L 515.372727 386.139978 
" style="fill:none;stroke:#36a2eb;stroke-linecap:square;"/>
   </g>
   <g id="patch_3">
    <path d="M 36 402.93 
L 538.2 402.93 
" style="fill:none;stroke:#000000;stroke-linecap:square;stroke-linejoin:miter;stroke-width:0.8;"/>
   </g>
   <g id="legend_1">
    <g id="patch_4">
     <path d="M 413.971875 88.29875 
L 528.4 88.29875 
Q 531.2 88.29875 531.2 85.49875 
L 531.2 45.8 
Q 531.2 43 528.4 43 
L 413.971875 43 
Q 411.171875 43 411.171875 45.8 
L 411.171875 85.49875 
Q 411.171875 88.29875 413.971875 88.29875 
z
" style="fill:#ffffff;opacity:0.8;stroke:#cccccc;stroke-linejoin:miter;"/>
    </g>
    <g id="patch_5">
     <path d="M 416.771875 59.237813 
L 444.771875 59.237813 
L 444.771875 49.437813 
L 416.771875 49.437813 
z
" style="fill:#ff6384;opacity:0.5;stroke:#ff6384;stroke-linejoin:miter;"/>
    </g>
    <g id="text_1">
     <!-- base -->
     <defs>
      <path d="M 48.6875 27.296875 
Q 48.6875 37.203125 44.609375 42.84375 
Q 40.53125 48.484375 33.40625 48.484375 
Q 26.265625 48.484375 22.1875 42.84375 
Q 18.109375 37.203125 18.109375 27.296875 
Q 18.109375 17.390625 22.1875 11.75 
Q 26.265625 6.109375 33.40625 6.109375 
Q 40.53125 6.109375 44.609375 11.75 
Q 48.6875 17.390625 48.6875 27.296875 
z
M 18.109375 46.390625 
Q 20.953125 51.265625 25.265625 53.625 
Q 29.59375 56 35.59375 56 
Q 45.5625 56 51.78125 48.09375 
Q 58.015625 40.1875 58.015625 27.296875 
Q 58.015625 14.40625 51.78125 6.484375 
Q 45.5625 -1.421875 35.59375 -1.421875 
Q 29.59375 -1.421875 25.265625 0.953125 
Q 20.953125 3.328125 18.109375 8.203125 
L 18.109375 0 
L 9.078125 0 
L 9.078125 75.984375 
L 18.109375 75.984375 
z
" id="DejaVuSans-98"/>
      <path d="M 34.28125 27.484375 
Q 23.390625 27.484375 19.1875 25 
Q 14.984375 22.515625 14.984375 16.5 
Q 14.984375 11.71875 18.140625 8.90625 
Q 21.296875 6.109375 26.703125 6.109375 
Q 34.1875 6.109375 38.703125 11.40625 
Q 43.21875 16.703125 43.21875 25.484375 
L 43.21875 27.484375 
z
M 52.203125 31.203125 
L 52.203125 0 
L 43.21875 0 
L 43.21875 8.296875 
Q 40.140625 3.328125 35.546875 0.953125 
Q 30.953125 -1.421875 24.3125 -1.421875 
Q 15.921875 -1.421875 10.953125 3.296875 
Q 6 8.015625 6 15.921875 
Q 6 25.140625 12.171875 29.828125 
Q 18.359375 34.515625 30.609375 34.515625 
L 43.21875 34.515625 
L 43.21875 35.40625 
Q 43.21875 41.609375 39.140625 45 
Q 35.0625 48.390625 27.6875 48.390625 
Q 23 48.390625 18.546875 47.265625 
Q 14.109375 46.140625 10.015625 43.890625 
L 10.015625 52.203125 
Q 14.9375 54.109375 19.578125 55.046875 
Q 24.21875 56 28.609375 56 
Q 40.484375 56 46.34375 49.84375 
Q 52.203125 43.703125 52.203125 31.203125 
z
" id="DejaVuSans-97"/>
      <path d="M 44.28125 53.078125 
L 44.28125 44.578125 
Q 40.484375 46.53125 36.375 47.5 
Q 32.28125 48.484375 27.875 48.484375 
Q 21.1875 48.484375 17.84375 46.4375 
Q 14.5 44.390625 14.5 40.28125 
Q 14.5 37.15625 16.890625 35.375 
Q 19.28125 33.59375 26.515625 31.984375 
L 29.59375 31.296875 
Q 39.15625 29.25 43.1875 25.515625 
Q 47.21875 21.78125 47.21875 15.09375 
Q 47.21875 7.46875 41.1875 3.015625 
Q 35.15625 -1.421875 24.609375 -1.421875 
Q 20.21875 -1.421875 15.453125 -0.5625 
Q 10.6875 0.296875 5.421875 2 
L 5.421875 11.28125 
Q 10.40625 8.6875 15.234375 7.390625 
Q 20.0625 6.109375 24.8125 6.109375 
Q 31.15625 6.109375 34.5625 8.28125 
Q 37.984375 10.453125 37.984375 14.40625 
Q 37.984375 18.0625 35.515625 20.015625 
Q 33.0625 21.96875 24.703125 23.78125 
L 21.578125 24.515625 
Q 13.234375 26.265625 9.515625 29.90625 
Q 5.8125 33.546875 5.8125 39.890625 
Q 5.8125 47.609375 11.28125 51.796875 
Q 16.75 56 26.8125 56 
Q 31.78125 56 36.171875 55.265625 
Q 40.578125 54.546875 44.28125 53.078125 
z
" id="DejaVuSans-115"/>
      <path d="M 56.203125 29.59375 
L 56.203125 25.203125 
L 14.890625 25.203125 
Q 15.484375 15.921875 20.484375 11.0625 
Q 25.484375 6.203125 34.421875 6.203125 
Q 39.59375 6.203125 44.453125 7.46875 
Q 49.3125 8.734375 54.109375 11.28125 
L 54.109375 2.78125 
Q 49.265625 0.734375 44.1875 -0.34375 
Q 39.109375 -1.421875 33.890625 -1.421875 
Q 20.796875 -1.421875 13.15625 6.1875 
Q 5.515625 13.8125 5.515625 26.8125 
Q 5.515625 40.234375 12.765625 48.109375 
Q 20.015625 56 32.328125 56 
Q 43.359375 56 49.78125 48.890625 
Q 56.203125 41.796875 56.203125 29.59375 
z
M 47.21875 32.234375 
Q 47.125 39.59375 43.09375 43.984375 
Q 39.0625 48.390625 32.421875 48.390625 
Q 24.90625 48.390625 20.390625 44.140625 
Q 15.875 39.890625 15.1875 32.171875 
z
" id="DejaVuSans-101"/>
     </defs>
     <g transform="translate(455.971875 59.237813)scale(0.14 -0.14)">
      <use xlink:href="#DejaVuSans-98"/>
      <use x="63.476562" xlink:href="#DejaVuSans-97"/>
      <use x="124.755859" xlink:href="#DejaVuSans-115"/>
      <use x="176.855469" xlink:href="#DejaVuSans-101"/>
     </g>
    </g>
    <g id="patch_6">
     <path d="M 416.771875 79.787188 
L 444.771875 79.787188 
L 444.771875 69.987188 
L 416.771875 69.987188 
z
" style="fill:#36a2eb;opacity:0.5;stroke:#36a2eb;stroke-linejoin:miter;"/>
    </g>
    <g id="text_2">
     <!-- expanded -->
     <defs>
      <path d="M 54.890625 54.6875 
L 35.109375 28.078125 
L 55.90625 0 
L 45.3125 0 
L 29.390625 21.484375 
L 13.484375 0 
L 2.875 0 
L 24.125 28.609375 
L 4.6875 54.6875 
L 15.28125 54.6875 
L 29.78125 35.203125 
L 44.28125 54.6875 
z
" id="DejaVuSans-120"/>
      <path d="M 18.109375 8.203125 
L 18.109375 -20.796875 
L 9.078125 -20.796875 
L 9.078125 54.6875 
L 18.109375 54.6875 
L 18.109375 46.390625 
Q 20.953125 51.265625 25.265625 53.625 
Q 29.59375 56 35.59375 56 
Q 45.5625 56 51.78125 48.09375 
Q 58.015625 40.1875 58.015625 27.296875 
Q 58.015625 14.40625 51.78125 6.484375 
Q 45.5625 -1.421875 35.59375 -1.421875 
Q 29.59375 -1.421875 25.265625 0.953125 
Q 20.953125 3.328125 18.109375 8.203125 
z
M 48.6875 27.296875 
Q 48.6875 37.203125 44.609375 42.84375 
Q 40.53125 48.484375 33.40625 48.484375 
Q 26.265625 48.484375 22.1875 42.84375 
Q 18.109375 37.203125 18.109375 27.296875 
Q 18.109375 17.390625 22.1875 11.75 
Q 26.265625 6.109375 33.40625 6.109375 
Q 40.53125 6.109375 44.609375 11.75 
Q 48.6875 17.390625 48.6875 27.296875 
z
" id="DejaVuSans-112"/>
      <path d="M 54.890625 33.015625 
L 54.890625 0 
L 45.90625 0 
L 45.90625 32.71875 
Q 45.90625 40.484375 42.875 44.328125 
Q 39.84375 48.1875 33.796875 48.1875 
Q 26.515625 48.1875 22.3125 43.546875 
Q 18.109375 38.921875 18.109375 30.90625 
L 18.109375 0 
L 9.078125 0 
L 9.078125 54.6875 
L 18.109375 54.6875 
L 18.109375 46.1875 
Q 21.34375 51.125 25.703125 53.5625 
Q 30.078125 56 35.796875 56 
Q 45.21875 56 50.046875 50.171875 
Q 54.890625 44.34375 54.890625 33.015625 
z
" id="DejaVuSans-110"/>
      <path d="M 45.40625 46.390625 
L 45.40625 75.984375 
L 54.390625 75.984375 
L 54.390625 0 
L 45.40625 0 
L 45.40625 8.203125 
Q 42.578125 3.328125 38.25 0.953125 
Q 33.9375 -1.421875 27.875 -1.421875 
Q 17.96875 -1.421875 11.734375 6.484375 
Q 5.515625 14.40625 5.515625 27.296875 
Q 5.515625 40.1875 11.734375 48.09375 
Q 17.96875 56 27.875 56 
Q 33.9375 56 38.25 53.625 
Q 42.578125 51.265625 45.40625 46.390625 
z
M 14.796875 27.296875 
Q 14.796875 17.390625 18.875 11.75 
Q 22.953125 6.109375 30.078125 6.109375 
Q 37.203125 6.109375 41.296875 11.75 
Q 45.40625 17.390625 45.40625 27.296875 
Q 45.40625 37.203125 41.296875 42.84375 
Q 37.203125 48.484375 30.078125 48.484375 
Q 22.953125 48.484375 18.875 42.84375 
Q 14.796875 37.203125 14.796875 27.296875 
z
" id="DejaVuSans-100"/>
     </defs>
     <g transform="translate(455.971875 79.787188)scale(0.14 -0.14)">
      <use xlink:href="#DejaVuSans-101"/>
      <use x="61.507812" xlink:href="#DejaVuSans-120"/>
      <use x="120.6875" xlink:href="#DejaVuSans-112"/>
      <use x="184.164062" xlink:href="#DejaVuSans-97"/>
      <use x="245.443359" xlink:href="#DejaVuSans-110"/>
      <use x="308.822266" xlink:href="#DejaVuSans-100"/>
      <use x="372.298828" xlink:href="#DejaVuSans-101"/>
      <use x="433.822266" xlink:href="#DejaVuSans-100"/>
     </g>
    </g>
   </g>
  </g>
  <g id="axes_2">
   <g id="patch_7">
    <path d="M 36 525.24 
L 538.2 525.24 
L 538.2 402.93 
L 36 402.93 
z
" style="fill:none;"/>
   </g>
   <g id="patch_8">
    <path clip-path="url(#pdc05a11f00)" d="M 161.845133 519.680455 
L 359.801022 519.680455 
L 359.801022 482.616818 
L 161.845133 482.616818 
z
" style="fill:#ff6384;opacity:0.5;"/>
   </g>
   <g id="patch_9">
    <path clip-path="url(#pdc05a11f00)" d="M 212.759903 445.553182 
L 411.793841 445.553182 
L 411.793841 408.489545 
L 212.759903 408.489545 
z
" style="fill:#36a2eb;opacity:0.5;"/>
   </g>
   <g id="matplotlib.axis_1">
    <g id="xtick_1">
     <g id="line2d_3">
      <defs>
       <path d="M 0 0 
L 0 3.5 
" id="m3cb7fdb291" style="stroke:#000000;stroke-width:0.8;"/>
      </defs>
      <g>
       <use style="stroke:#000000;stroke-width:0.8;" x="109.891946" xlink:href="#m3cb7fdb291" y="525.24"/>
      </g>
     </g>
     <g id="text_3">
      <!-- 18 -->
      <defs>
       <path d="M 12.40625 8.296875 
L 28.515625 8.296875 
L 28.515625 63.921875 
L 10.984375 60.40625 
L 10.984375 69.390625 
L 28.421875 72.90625 
L 38.28125 72.90625 
L 38.28125 8.296875 
L 54.390625 8.296875 
L 54.390625 0 
L 12.40625 0 
z
" id="DejaVuSans-49"/>
       <path d="M 31.78125 34.625 
Q 24.75 34.625 20.71875 30.859375 
Q 16.703125 27.09375 16.703125 20.515625 
Q 16.703125 13.921875 20.71875 10.15625 
Q 24.75 6.390625 31.78125 6.390625 
Q 38.8125 6.390625 42.859375 10.171875 
Q 46.921875 13.96875 46.921875 20.515625 
Q 46.921875 27.09375 42.890625 30.859375 
Q 38.875 34.625 31.78125 34.625 
z
M 21.921875 38.8125 
Q 15.578125 40.375 12.03125 44.71875 
Q 8.5 49.078125 8.5 55.328125 
Q 8.5 64.0625 14.71875 69.140625 
Q 20.953125 74.21875 31.78125 74.21875 
Q 42.671875 74.21875 48.875 69.140625 
Q 55.078125 64.0625 55.078125 55.328125 
Q 55.078125 49.078125 51.53125 44.71875 
Q 48 40.375 41.703125 38.8125 
Q 48.828125 37.15625 52.796875 32.3125 
Q 56.78125 27.484375 56.78125 20.515625 
Q 56.78125 9.90625 50.3125 4.234375 
Q 43.84375 -1.421875 31.78125 -1.421875 
Q 19.734375 -1.421875 13.25 4.234375 
Q 6.78125 9.90625 6.78125 20.515625 
Q 6.78125 27.484375 10.78125 32.3125 
Q 14.796875 37.15625 21.921875 38.8125 
z
M 18.3125 54.390625 
Q 18.3125 48.734375 21.84375 45.5625 
Q 25.390625 42.390625 31.78125 42.390625 
Q 38.140625 42.390625 41.71875 45.5625 
Q 45.3125 48.734375 45.3125 54.390625 
Q 45.3125 60.0625 41.71875 63.234375 
Q 38.140625 66.40625 31.78125 66.40625 
Q 25.390625 66.40625 21.84375 63.234375 
Q 18.3125 60.0625 18.3125 54.390625 
z
" id="DejaVuSans-56"/>
      </defs>
      <g transform="translate(100.984446 542.877813)scale(0.14 -0.14)">
       <use xlink:href="#DejaVuSans-49"/>
       <use x="63.623047" xlink:href="#DejaVuSans-56"/>
      </g>
     </g>
    </g>
    <g id="xtick_2">
     <g id="line2d_4">
      <g>
       <use style="stroke:#000000;stroke-width:0.8;" x="195.64827" xlink:href="#m3cb7fdb291" y="525.24"/>
      </g>
     </g>
     <g id="text_4">
      <!-- 19 -->
      <defs>
       <path d="M 10.984375 1.515625 
L 10.984375 10.5 
Q 14.703125 8.734375 18.5 7.8125 
Q 22.3125 6.890625 25.984375 6.890625 
Q 35.75 6.890625 40.890625 13.453125 
Q 46.046875 20.015625 46.78125 33.40625 
Q 43.953125 29.203125 39.59375 26.953125 
Q 35.25 24.703125 29.984375 24.703125 
Q 19.046875 24.703125 12.671875 31.3125 
Q 6.296875 37.9375 6.296875 49.421875 
Q 6.296875 60.640625 12.9375 67.421875 
Q 19.578125 74.21875 30.609375 74.21875 
Q 43.265625 74.21875 49.921875 64.515625 
Q 56.59375 54.828125 56.59375 36.375 
Q 56.59375 19.140625 48.40625 8.859375 
Q 40.234375 -1.421875 26.421875 -1.421875 
Q 22.703125 -1.421875 18.890625 -0.6875 
Q 15.09375 0.046875 10.984375 1.515625 
z
M 30.609375 32.421875 
Q 37.25 32.421875 41.125 36.953125 
Q 45.015625 41.5 45.015625 49.421875 
Q 45.015625 57.28125 41.125 61.84375 
Q 37.25 66.40625 30.609375 66.40625 
Q 23.96875 66.40625 20.09375 61.84375 
Q 16.21875 57.28125 16.21875 49.421875 
Q 16.21875 41.5 20.09375 36.953125 
Q 23.96875 32.421875 30.609375 32.421875 
z
" id="DejaVuSans-57"/>
      </defs>
      <g transform="translate(186.74077 542.877813)scale(0.14 -0.14)">
       <use xlink:href="#DejaVuSans-49"/>
       <use x="63.623047" xlink:href="#DejaVuSans-57"/>
      </g>
     </g>
    </g>
    <g id="xtick_3">
     <g id="line2d_5">
      <g>
       <use style="stroke:#000000;stroke-width:0.8;" x="281.404595" xlink:href="#m3cb7fdb291" y="525.24"/>
      </g>
     </g>
     <g id="text_5">
      <!-- 20 -->
      <defs>
       <path d="M 19.1875 8.296875 
L 53.609375 8.296875 
L 53.609375 0 
L 7.328125 0 
L 7.328125 8.296875 
Q 12.9375 14.109375 22.625 23.890625 
Q 32.328125 33.6875 34.8125 36.53125 
Q 39.546875 41.84375 41.421875 45.53125 
Q 43.3125 49.21875 43.3125 52.78125 
Q 43.3125 58.59375 39.234375 62.25 
Q 35.15625 65.921875 28.609375 65.921875 
Q 23.96875 65.921875 18.8125 64.3125 
Q 13.671875 62.703125 7.8125 59.421875 
L 7.8125 69.390625 
Q 13.765625 71.78125 18.9375 73 
Q 24.125 74.21875 28.421875 74.21875 
Q 39.75 74.21875 46.484375 68.546875 
Q 53.21875 62.890625 53.21875 53.421875 
Q 53.21875 48.921875 51.53125 44.890625 
Q 49.859375 40.875 45.40625 35.40625 
Q 44.1875 33.984375 37.640625 27.21875 
Q 31.109375 20.453125 19.1875 8.296875 
z
" id="DejaVuSans-50"/>
       <path d="M 31.78125 66.40625 
Q 24.171875 66.40625 20.328125 58.90625 
Q 16.5 51.421875 16.5 36.375 
Q 16.5 21.390625 20.328125 13.890625 
Q 24.171875 6.390625 31.78125 6.390625 
Q 39.453125 6.390625 43.28125 13.890625 
Q 47.125 21.390625 47.125 36.375 
Q 47.125 51.421875 43.28125 58.90625 
Q 39.453125 66.40625 31.78125 66.40625 
z
M 31.78125 74.21875 
Q 44.046875 74.21875 50.515625 64.515625 
Q 56.984375 54.828125 56.984375 36.375 
Q 56.984375 17.96875 50.515625 8.265625 
Q 44.046875 -1.421875 31.78125 -1.421875 
Q 19.53125 -1.421875 13.0625 8.265625 
Q 6.59375 17.96875 6.59375 36.375 
Q 6.59375 54.828125 13.0625 64.515625 
Q 19.53125 74.21875 31.78125 74.21875 
z
" id="DejaVuSans-48"/>
      </defs>
      <g transform="translate(272.497095 542.877813)scale(0.14 -0.14)">
       <use xlink:href="#DejaVuSans-50"/>
       <use x="63.623047" xlink:href="#DejaVuSans-48"/>
      </g>
     </g>
    </g>
    <g id="xtick_4">
     <g id="line2d_6">
      <g>
       <use style="stroke:#000000;stroke-width:0.8;" x="367.16092" xlink:href="#m3cb7fdb291" y="525.24"/>
      </g>
     </g>
     <g id="text_6">
      <!-- 21 -->
      <g transform="translate(358.25342 542.877813)scale(0.14 -0.14)">
       <use xlink:href="#DejaVuSans-50"/>
       <use x="63.623047" xlink:href="#DejaVuSans-49"/>
      </g>
     </g>
    </g>
    <g id="xtick_5">
     <g id="line2d_7">
      <g>
       <use style="stroke:#000000;stroke-width:0.8;" x="452.917245" xlink:href="#m3cb7fdb291" y="525.24"/>
      </g>
     </g>
     <g id="text_7">
      <!-- 22 -->
      <g transform="translate(444.009745 542.877813)scale(0.14 -0.14)">
       <use xlink:href="#DejaVuSans-50"/>
       <use x="63.623047" xlink:href="#DejaVuSans-50"/>
      </g>
     </g>
    </g>
   </g>
   <g id="line2d_8">
    <path clip-path="url(#pdc05a11f00)" d="M 260.823077 525.24 
L 260.823077 402.93 
" style="fill:none;stroke:#ff6384;stroke-dasharray:5.55,2.4;stroke-dashoffset:0;stroke-opacity:0.8;stroke-width:1.5;"/>
   </g>
   <g id="line2d_9">
    <path clip-path="url(#pdc05a11f00)" d="M 312.276872 525.24 
L 312.276872 402.93 
" style="fill:none;stroke:#36a2eb;stroke-dasharray:5.55,2.4;stroke-dashoffset:0;stroke-opacity:0.8;stroke-width:1.5;"/>
   </g>
   <g id="patch_10">
    <path d="M 36 525.24 
L 538.2 525.24 
" style="fill:none;stroke:#000000;stroke-linecap:square;stroke-linejoin:miter;stroke-width:0.8;"/>
   </g>
  </g>
 </g>
 <defs>
  <clipPath id="p705cd1515b">
   <rect height="366.93" width="502.2" x="36" y="36"/>
  </clipPath>
  <clipPath id="pdc05a11f00">
   <rect height="122.31" width="502.2" x="36" y="402.93"/>
  </clipPath>
 </defs>
</svg>
