<?xml version="1.0" encoding="utf-8" standalone="no"?>
<!DOCTYPE svg PUBLIC "-//W3C//DTD SVG 1.1//EN"
  "http://www.w3.org/Graphics/SVG/1.1/DTD/svg11.dtd">
<!-- Created with matplotlib (https://matplotlib.org/) -->
<svg height="581.789375pt" version="1.1" viewBox="0 0 574.2 581.789375" width="574.2pt" xmlns="http://www.w3.org/2000/svg" xmlns:xlink="http://www.w3.org/1999/xlink">
 <defs>
  <style type="text/css">
*{stroke-linecap:butt;stroke-linejoin:round;}
  </style>
 </defs>
 <g id="figure_1">
  <g id="patch_1">
   <path d="M 0 581.789375 
L 574.2 581.789375 
L 574.2 0 
L 0 0 
z
" style="fill:none;"/>
  </g>
  <g id="axes_1">
   <g id="patch_2">
    <path d="M 36 402.93 
L 538.2 402.93 
L 538.2 36 
L 36 36 
z
" style="fill:none;"/>
   </g>
   <g id="PolyCollection_1">
    <defs>
     <path d="M 317.716703 -195.538011 
L 317.716703 -195.621331 
L 319.713229 -195.65275 
L 321.709754 -195.694988 
L 323.70628 -195.751376 
L 325.702805 -195.826132 
L 327.699331 -195.924548 
L 329.695856 -196.053206 
L 331.692382 -196.220218 
L 333.688907 -196.435491 
L 335.685433 -196.711009 
L 337.681958 -197.061131 
L 339.678484 -197.502886 
L 341.675009 -198.056266 
L 343.671535 -198.744493 
L 345.66806 -199.594234 
L 347.664586 -200.635767 
L 349.661111 -201.903038 
L 351.657637 -203.43362 
L 353.654162 -205.268508 
L 355.650688 -207.451762 
L 357.647213 -210.029937 
L 359.643739 -213.051302 
L 361.640264 -216.564827 
L 363.63679 -220.618924 
L 365.633315 -225.259958 
L 367.629841 -230.530532 
L 369.626366 -236.467592 
L 371.622892 -243.100377 
L 373.619417 -250.448294 
L 375.615943 -258.518784 
L 377.612468 -267.305273 
L 379.608994 -276.785294 
L 381.605519 -286.918904 
L 383.602045 -297.647482 
L 385.59857 -308.893026 
L 387.595096 -320.558022 
L 389.591621 -332.525973 
L 391.588147 -344.662634 
L 393.584672 -356.817965 
L 395.581198 -368.828811 
L 397.577723 -380.522239 
L 399.574249 -391.719477 
L 401.570774 -402.240322 
L 403.5673 -411.907873 
L 405.563825 -420.553433 
L 407.560351 -428.021376 
L 409.556876 -434.173791 
L 411.553401 -438.894717 
L 413.549927 -442.093774 
L 415.546452 -443.709037 
L 417.542978 -443.709037 
L 419.539503 -442.093774 
L 421.536029 -438.894717 
L 423.532554 -434.173791 
L 425.52908 -428.021376 
L 427.525605 -420.553433 
L 429.522131 -411.907873 
L 431.518656 -402.240322 
L 433.515182 -391.719477 
L 435.511707 -380.522239 
L 437.508233 -368.828811 
L 439.504758 -356.817965 
L 441.501284 -344.662634 
L 443.497809 -332.525973 
L 445.494335 -320.558022 
L 447.49086 -308.893026 
L 449.487386 -297.647482 
L 451.483911 -286.918904 
L 453.480437 -276.785294 
L 455.476962 -267.305273 
L 457.473488 -258.518784 
L 459.470013 -250.448294 
L 461.466539 -243.100377 
L 463.463064 -236.467592 
L 465.45959 -230.530532 
L 467.456115 -225.259958 
L 469.452641 -220.618924 
L 471.449166 -216.564827 
L 473.445692 -213.051302 
L 475.442217 -210.029937 
L 477.438743 -207.451762 
L 479.435268 -205.268508 
L 481.431794 -203.43362 
L 483.428319 -201.903038 
L 485.424845 -200.635767 
L 487.42137 -199.594234 
L 489.417896 -198.744493 
L 491.414421 -198.056266 
L 493.410947 -197.502886 
L 495.407472 -197.061131 
L 497.403998 -196.711009 
L 499.400523 -196.435491 
L 501.397049 -196.220218 
L 503.393574 -196.053206 
L 505.3901 -195.924548 
L 507.386625 -195.826132 
L 509.383151 -195.751376 
L 511.379676 -195.694988 
L 513.376202 -195.65275 
L 515.372727 -195.621331 
L 515.372727 -195.538011 
L 515.372727 -195.538011 
L 513.376202 -195.538011 
L 511.379676 -195.538011 
L 509.383151 -195.538011 
L 507.386625 -195.538011 
L 505.3901 -195.538011 
L 503.393574 -195.538011 
L 501.397049 -195.538011 
L 499.400523 -195.538011 
L 497.403998 -195.538011 
L 495.407472 -195.538011 
L 493.410947 -195.538011 
L 491.414421 -195.538011 
L 489.417896 -195.538011 
L 487.42137 -195.538011 
L 485.424845 -195.538011 
L 483.428319 -195.538011 
L 481.431794 -195.538011 
L 479.435268 -195.538011 
L 477.438743 -195.538011 
L 475.442217 -195.538011 
L 473.445692 -195.538011 
L 471.449166 -195.538011 
L 469.452641 -195.538011 
L 467.456115 -195.538011 
L 465.45959 -195.538011 
L 463.463064 -195.538011 
L 461.466539 -195.538011 
L 459.470013 -195.538011 
L 457.473488 -195.538011 
L 455.476962 -195.538011 
L 453.480437 -195.538011 
L 451.483911 -195.538011 
L 449.487386 -195.538011 
L 447.49086 -195.538011 
L 445.494335 -195.538011 
L 443.497809 -195.538011 
L 441.501284 -195.538011 
L 439.504758 -195.538011 
L 437.508233 -195.538011 
L 435.511707 -195.538011 
L 433.515182 -195.538011 
L 431.518656 -195.538011 
L 429.522131 -195.538011 
L 427.525605 -195.538011 
L 425.52908 -195.538011 
L 423.532554 -195.538011 
L 421.536029 -195.538011 
L 419.539503 -195.538011 
L 417.542978 -195.538011 
L 415.546452 -195.538011 
L 413.549927 -195.538011 
L 411.553401 -195.538011 
L 409.556876 -195.538011 
L 407.560351 -195.538011 
L 405.563825 -195.538011 
L 403.5673 -195.538011 
L 401.570774 -195.538011 
L 399.574249 -195.538011 
L 397.577723 -195.538011 
L 395.581198 -195.538011 
L 393.584672 -195.538011 
L 391.588147 -195.538011 
L 389.591621 -195.538011 
L 387.595096 -195.538011 
L 385.59857 -195.538011 
L 383.602045 -195.538011 
L 381.605519 -195.538011 
L 379.608994 -195.538011 
L 377.612468 -195.538011 
L 375.615943 -195.538011 
L 373.619417 -195.538011 
L 371.622892 -195.538011 
L 369.626366 -195.538011 
L 367.629841 -195.538011 
L 365.633315 -195.538011 
L 363.63679 -195.538011 
L 361.640264 -195.538011 
L 359.643739 -195.538011 
L 357.647213 -195.538011 
L 355.650688 -195.538011 
L 353.654162 -195.538011 
L 351.657637 -195.538011 
L 349.661111 -195.538011 
L 347.664586 -195.538011 
L 345.66806 -195.538011 
L 343.671535 -195.538011 
L 341.675009 -195.538011 
L 339.678484 -195.538011 
L 337.681958 -195.538011 
L 335.685433 -195.538011 
L 333.688907 -195.538011 
L 331.692382 -195.538011 
L 329.695856 -195.538011 
L 327.699331 -195.538011 
L 325.702805 -195.538011 
L 323.70628 -195.538011 
L 321.709754 -195.538011 
L 319.713229 -195.538011 
L 317.716703 -195.538011 
z
" id="m3412da2fd2" style="stroke:#ff6384;stroke-opacity:0.5;"/>
    </defs>
    <g clip-path="url(#p3b039e0ae2)">
     <use style="fill:#ff6384;fill-opacity:0.5;stroke:#ff6384;stroke-opacity:0.5;" x="0" xlink:href="#m3412da2fd2" y="581.789375"/>
    </g>
   </g>
   <g id="PolyCollection_2">
    <defs>
     <path d="M 58.827273 -195.538011 
L 58.827273 -195.648086 
L 60.338526 -195.689593 
L 61.849779 -195.745394 
L 63.361032 -195.819888 
L 64.872285 -195.918649 
L 66.383539 -196.048667 
L 67.894792 -196.218638 
L 69.406045 -196.439278 
L 70.917298 -196.723676 
L 72.428551 -197.087665 
L 73.939804 -197.550213 
L 75.451057 -198.133818 
L 76.962311 -198.864893 
L 78.473564 -199.774113 
L 79.984817 -200.896711 
L 81.49607 -202.272686 
L 83.007323 -203.946886 
L 84.518576 -205.968946 
L 86.02983 -208.393028 
L 87.541083 -211.277338 
L 89.052336 -214.68338 
L 90.563589 -218.674924 
L 92.074842 -223.316662 
L 93.586095 -228.672554 
L 95.097349 -234.803851 
L 96.608602 -241.766838 
L 98.119855 -249.610323 
L 99.631108 -258.372934 
L 101.142361 -268.08031 
L 102.653614 -278.742283 
L 104.164867 -290.350165 
L 105.676121 -302.874278 
L 107.187374 -316.26185 
L 108.698627 -330.435438 
L 110.20988 -345.291993 
L 111.721133 -360.702687 
L 113.232386 -376.513619 
L 114.74364 -392.547433 
L 116.254893 -408.605913 
L 117.766146 -424.473512 
L 119.277399 -439.921769 
L 120.788652 -454.714507 
L 122.299905 -468.613657 
L 123.811159 -481.385517 
L 125.322412 -492.807217 
L 126.833665 -502.67316 
L 128.344918 -510.801153 
L 129.856171 -517.037996 
L 131.367424 -521.264289 
L 132.878677 -523.398223 
L 134.389931 -523.398223 
L 135.901184 -521.264289 
L 137.412437 -517.037996 
L 138.92369 -510.801153 
L 140.434943 -502.67316 
L 141.946196 -492.807217 
L 143.45745 -481.385517 
L 144.968703 -468.613657 
L 146.479956 -454.714507 
L 147.991209 -439.921769 
L 149.502462 -424.473512 
L 151.013715 -408.605913 
L 152.524969 -392.547433 
L 154.036222 -376.513619 
L 155.547475 -360.702687 
L 157.058728 -345.291993 
L 158.569981 -330.435438 
L 160.081234 -316.26185 
L 161.592487 -302.874278 
L 163.103741 -290.350165 
L 164.614994 -278.742283 
L 166.126247 -268.08031 
L 167.6375 -258.372934 
L 169.148753 -249.610323 
L 170.660006 -241.766838 
L 172.17126 -234.803851 
L 173.682513 -228.672554 
L 175.193766 -223.316662 
L 176.705019 -218.674924 
L 178.216272 -214.68338 
L 179.727525 -211.277338 
L 181.238779 -208.393028 
L 182.750032 -205.968946 
L 184.261285 -203.946886 
L 185.772538 -202.272686 
L 187.283791 -200.896711 
L 188.795044 -199.774113 
L 190.306297 -198.864893 
L 191.817551 -198.133818 
L 193.328804 -197.550213 
L 194.840057 -197.087665 
L 196.35131 -196.723676 
L 197.862563 -196.439278 
L 199.373816 -196.218638 
L 200.88507 -196.048667 
L 202.396323 -195.918649 
L 203.907576 -195.819888 
L 205.418829 -195.745394 
L 206.930082 -195.689593 
L 208.441335 -195.648086 
L 208.441335 -195.538011 
L 208.441335 -195.538011 
L 206.930082 -195.538011 
L 205.418829 -195.538011 
L 203.907576 -195.538011 
L 202.396323 -195.538011 
L 200.88507 -195.538011 
L 199.373816 -195.538011 
L 197.862563 -195.538011 
L 196.35131 -195.538011 
L 194.840057 -195.538011 
L 193.328804 -195.538011 
L 191.817551 -195.538011 
L 190.306297 -195.538011 
L 188.795044 -195.538011 
L 187.283791 -195.538011 
L 185.772538 -195.538011 
L 184.261285 -195.538011 
L 182.750032 -195.538011 
L 181.238779 -195.538011 
L 179.727525 -195.538011 
L 178.216272 -195.538011 
L 176.705019 -195.538011 
L 175.193766 -195.538011 
L 173.682513 -195.538011 
L 172.17126 -195.538011 
L 170.660006 -195.538011 
L 169.148753 -195.538011 
L 167.6375 -195.538011 
L 166.126247 -195.538011 
L 164.614994 -195.538011 
L 163.103741 -195.538011 
L 161.592487 -195.538011 
L 160.081234 -195.538011 
L 158.569981 -195.538011 
L 157.058728 -195.538011 
L 155.547475 -195.538011 
L 154.036222 -195.538011 
L 152.524969 -195.538011 
L 151.013715 -195.538011 
L 149.502462 -195.538011 
L 147.991209 -195.538011 
L 146.479956 -195.538011 
L 144.968703 -195.538011 
L 143.45745 -195.538011 
L 141.946196 -195.538011 
L 140.434943 -195.538011 
L 138.92369 -195.538011 
L 137.412437 -195.538011 
L 135.901184 -195.538011 
L 134.389931 -195.538011 
L 132.878677 -195.538011 
L 131.367424 -195.538011 
L 129.856171 -195.538011 
L 128.344918 -195.538011 
L 126.833665 -195.538011 
L 125.322412 -195.538011 
L 123.811159 -195.538011 
L 122.299905 -195.538011 
L 120.788652 -195.538011 
L 119.277399 -195.538011 
L 117.766146 -195.538011 
L 116.254893 -195.538011 
L 114.74364 -195.538011 
L 113.232386 -195.538011 
L 111.721133 -195.538011 
L 110.20988 -195.538011 
L 108.698627 -195.538011 
L 107.187374 -195.538011 
L 105.676121 -195.538011 
L 104.164867 -195.538011 
L 102.653614 -195.538011 
L 101.142361 -195.538011 
L 99.631108 -195.538011 
L 98.119855 -195.538011 
L 96.608602 -195.538011 
L 95.097349 -195.538011 
L 93.586095 -195.538011 
L 92.074842 -195.538011 
L 90.563589 -195.538011 
L 89.052336 -195.538011 
L 87.541083 -195.538011 
L 86.02983 -195.538011 
L 84.518576 -195.538011 
L 83.007323 -195.538011 
L 81.49607 -195.538011 
L 79.984817 -195.538011 
L 78.473564 -195.538011 
L 76.962311 -195.538011 
L 75.451057 -195.538011 
L 73.939804 -195.538011 
L 72.428551 -195.538011 
L 70.917298 -195.538011 
L 69.406045 -195.538011 
L 67.894792 -195.538011 
L 66.383539 -195.538011 
L 64.872285 -195.538011 
L 63.361032 -195.538011 
L 61.849779 -195.538011 
L 60.338526 -195.538011 
L 58.827273 -195.538011 
z
" id="md36fceae01" style="stroke:#36a2eb;stroke-opacity:0.5;"/>
    </defs>
    <g clip-path="url(#p3b039e0ae2)">
     <use style="fill:#36a2eb;fill-opacity:0.5;stroke:#36a2eb;stroke-opacity:0.5;" x="0" xlink:href="#md36fceae01" y="581.789375"/>
    </g>
   </g>
   <g id="PolyCollection_3">
    <defs>
     <path d="M 174.984697 -195.538011 
L 174.984697 -195.650004 
L 176.47007 -195.692234 
L 177.955442 -195.749007 
L 179.440815 -195.8248 
L 180.926187 -195.925281 
L 182.41156 -196.057565 
L 183.896932 -196.230497 
L 185.382305 -196.454982 
L 186.867678 -196.744335 
L 188.35305 -197.114666 
L 189.838423 -197.585273 
L 191.323795 -198.179047 
L 192.809168 -198.922859 
L 194.294541 -199.847921 
L 195.779913 -200.990079 
L 197.265286 -202.390029 
L 198.750658 -204.093399 
L 200.236031 -206.150691 
L 201.721403 -208.617009 
L 203.206776 -211.551575 
L 204.692149 -215.016962 
L 206.177521 -219.078053 
L 207.662894 -223.800667 
L 209.148266 -229.249878 
L 210.633639 -235.488004 
L 212.119011 -242.572312 
L 213.604384 -250.552459 
L 215.089757 -259.467747 
L 216.575129 -269.344261 
L 218.060502 -280.192004 
L 219.545874 -292.002137 
L 221.031247 -304.744465 
L 222.516619 -318.365297 
L 224.001992 -332.785841 
L 225.487365 -347.901251 
L 226.972737 -363.580456 
L 228.45811 -379.666871 
L 229.943482 -395.980052 
L 231.428855 -412.31833 
L 232.914227 -428.4624 
L 234.3996 -444.179822 
L 235.884973 -459.230303 
L 237.370345 -473.371627 
L 238.855718 -486.366018 
L 240.34109 -497.986726 
L 241.826463 -508.02457 
L 243.311835 -516.294181 
L 244.797208 -522.639693 
L 246.282581 -526.939623 
L 247.767953 -529.110739 
L 249.253326 -529.110739 
L 250.738698 -526.939623 
L 252.224071 -522.639693 
L 253.709443 -516.294181 
L 255.194816 -508.02457 
L 256.680189 -497.986726 
L 258.165561 -486.366018 
L 259.650934 -473.371627 
L 261.136306 -459.230303 
L 262.621679 -444.179822 
L 264.107052 -428.4624 
L 265.592424 -412.31833 
L 267.077797 -395.980052 
L 268.563169 -379.666871 
L 270.048542 -363.580456 
L 271.533914 -347.901251 
L 273.019287 -332.785841 
L 274.50466 -318.365297 
L 275.990032 -304.744465 
L 277.475405 -292.002137 
L 278.960777 -280.192004 
L 280.44615 -269.344261 
L 281.931522 -259.467747 
L 283.416895 -250.552459 
L 284.902268 -242.572312 
L 286.38764 -235.488004 
L 287.873013 -229.249878 
L 289.358385 -223.800667 
L 290.843758 -219.078053 
L 292.32913 -215.016962 
L 293.814503 -211.551575 
L 295.299876 -208.617009 
L 296.785248 -206.150691 
L 298.270621 -204.093399 
L 299.755993 -202.390029 
L 301.241366 -200.990079 
L 302.726738 -199.847921 
L 304.212111 -198.922859 
L 305.697484 -198.179047 
L 307.182856 -197.585273 
L 308.668229 -197.114666 
L 310.153601 -196.744335 
L 311.638974 -196.454982 
L 313.124346 -196.230497 
L 314.609719 -196.057565 
L 316.095092 -195.925281 
L 317.580464 -195.8248 
L 319.065837 -195.749007 
L 320.551209 -195.692234 
L 322.036582 -195.650004 
L 322.036582 -195.538011 
L 322.036582 -195.538011 
L 320.551209 -195.538011 
L 319.065837 -195.538011 
L 317.580464 -195.538011 
L 316.095092 -195.538011 
L 314.609719 -195.538011 
L 313.124346 -195.538011 
L 311.638974 -195.538011 
L 310.153601 -195.538011 
L 308.668229 -195.538011 
L 307.182856 -195.538011 
L 305.697484 -195.538011 
L 304.212111 -195.538011 
L 302.726738 -195.538011 
L 301.241366 -195.538011 
L 299.755993 -195.538011 
L 298.270621 -195.538011 
L 296.785248 -195.538011 
L 295.299876 -195.538011 
L 293.814503 -195.538011 
L 292.32913 -195.538011 
L 290.843758 -195.538011 
L 289.358385 -195.538011 
L 287.873013 -195.538011 
L 286.38764 -195.538011 
L 284.902268 -195.538011 
L 283.416895 -195.538011 
L 281.931522 -195.538011 
L 280.44615 -195.538011 
L 278.960777 -195.538011 
L 277.475405 -195.538011 
L 275.990032 -195.538011 
L 274.50466 -195.538011 
L 273.019287 -195.538011 
L 271.533914 -195.538011 
L 270.048542 -195.538011 
L 268.563169 -195.538011 
L 267.077797 -195.538011 
L 265.592424 -195.538011 
L 264.107052 -195.538011 
L 262.621679 -195.538011 
L 261.136306 -195.538011 
L 259.650934 -195.538011 
L 258.165561 -195.538011 
L 256.680189 -195.538011 
L 255.194816 -195.538011 
L 253.709443 -195.538011 
L 252.224071 -195.538011 
L 250.738698 -195.538011 
L 249.253326 -195.538011 
L 247.767953 -195.538011 
L 246.282581 -195.538011 
L 244.797208 -195.538011 
L 243.311835 -195.538011 
L 241.826463 -195.538011 
L 240.34109 -195.538011 
L 238.855718 -195.538011 
L 237.370345 -195.538011 
L 235.884973 -195.538011 
L 234.3996 -195.538011 
L 232.914227 -195.538011 
L 231.428855 -195.538011 
L 229.943482 -195.538011 
L 228.45811 -195.538011 
L 226.972737 -195.538011 
L 225.487365 -195.538011 
L 224.001992 -195.538011 
L 222.516619 -195.538011 
L 221.031247 -195.538011 
L 219.545874 -195.538011 
L 218.060502 -195.538011 
L 216.575129 -195.538011 
L 215.089757 -195.538011 
L 213.604384 -195.538011 
L 212.119011 -195.538011 
L 210.633639 -195.538011 
L 209.148266 -195.538011 
L 207.662894 -195.538011 
L 206.177521 -195.538011 
L 204.692149 -195.538011 
L 203.206776 -195.538011 
L 201.721403 -195.538011 
L 200.236031 -195.538011 
L 198.750658 -195.538011 
L 197.265286 -195.538011 
L 195.779913 -195.538011 
L 194.294541 -195.538011 
L 192.809168 -195.538011 
L 191.323795 -195.538011 
L 189.838423 -195.538011 
L 188.35305 -195.538011 
L 186.867678 -195.538011 
L 185.382305 -195.538011 
L 183.896932 -195.538011 
L 182.41156 -195.538011 
L 180.926187 -195.538011 
L 179.440815 -195.538011 
L 177.955442 -195.538011 
L 176.47007 -195.538011 
L 174.984697 -195.538011 
z
" id="m1c9c240044" style="stroke:#4bc0c0;stroke-opacity:0.5;"/>
    </defs>
    <g clip-path="url(#p3b039e0ae2)">
     <use style="fill:#4bc0c0;fill-opacity:0.5;stroke:#4bc0c0;stroke-opacity:0.5;" x="0" xlink:href="#m1c9c240044" y="581.789375"/>
    </g>
   </g>
   <g id="line2d_1">
    <path clip-path="url(#p3b039e0ae2)" d="M 317.716703 386.168044 
L 319.713229 386.136625 
L 321.709754 386.094387 
L 323.70628 386.037999 
L 325.702805 385.963243 
L 327.699331 385.864827 
L 329.695856 385.736169 
L 331.692382 385.569157 
L 333.688907 385.353884 
L 335.685433 385.078366 
L 337.681958 384.728244 
L 339.678484 384.286489 
L 341.675009 383.733109 
L 343.671535 383.044882 
L 345.66806 382.195141 
L 347.664586 381.153608 
L 349.661111 379.886337 
L 351.657637 378.355755 
L 353.654162 376.520867 
L 355.650688 374.337613 
L 357.647213 371.759438 
L 359.643739 368.738073 
L 361.640264 365.224548 
L 363.63679 361.170451 
L 365.633315 356.529417 
L 367.629841 351.258843 
L 369.626366 345.321783 
L 371.622892 338.688998 
L 373.619417 331.341081 
L 375.615943 323.270591 
L 377.612468 314.484102 
L 379.608994 305.004081 
L 381.605519 294.870471 
L 383.602045 284.141893 
L 385.59857 272.896349 
L 387.595096 261.231353 
L 389.591621 249.263402 
L 391.588147 237.126741 
L 393.584672 224.97141 
L 395.581198 212.960564 
L 397.577723 201.267136 
L 399.574249 190.069898 
L 401.570774 179.549053 
L 403.5673 169.881502 
L 405.563825 161.235942 
L 407.560351 153.767999 
L 409.556876 147.615584 
L 411.553401 142.894658 
L 413.549927 139.695601 
L 415.546452 138.080338 
L 417.542978 138.080338 
L 419.539503 139.695601 
L 421.536029 142.894658 
L 423.532554 147.615584 
L 425.52908 153.767999 
L 427.525605 161.235942 
L 429.522131 169.881502 
L 431.518656 179.549053 
L 433.515182 190.069898 
L 435.511707 201.267136 
L 437.508233 212.960564 
L 439.504758 224.97141 
L 441.501284 237.126741 
L 443.497809 249.263402 
L 445.494335 261.231353 
L 447.49086 272.896349 
L 449.487386 284.141893 
L 451.483911 294.870471 
L 453.480437 305.004081 
L 455.476962 314.484102 
L 457.473488 323.270591 
L 459.470013 331.341081 
L 461.466539 338.688998 
L 463.463064 345.321783 
L 465.45959 351.258843 
L 467.456115 356.529417 
L 469.452641 361.170451 
L 471.449166 365.224548 
L 473.445692 368.738073 
L 475.442217 371.759438 
L 477.438743 374.337613 
L 479.435268 376.520867 
L 481.431794 378.355755 
L 483.428319 379.886337 
L 485.424845 381.153608 
L 487.42137 382.195141 
L 489.417896 383.044882 
L 491.414421 383.733109 
L 493.410947 384.286489 
L 495.407472 384.728244 
L 497.403998 385.078366 
L 499.400523 385.353884 
L 501.397049 385.569157 
L 503.393574 385.736169 
L 505.3901 385.864827 
L 507.386625 385.963243 
L 509.383151 386.037999 
L 511.379676 386.094387 
L 513.376202 386.136625 
L 515.372727 386.168044 
" style="fill:none;stroke:#ff6384;stroke-linecap:square;"/>
   </g>
   <g id="line2d_2">
    <path clip-path="url(#p3b039e0ae2)" d="M 58.827273 386.141289 
L 60.338526 386.099782 
L 61.849779 386.043981 
L 63.361032 385.969487 
L 64.872285 385.870726 
L 66.383539 385.740708 
L 67.894792 385.570737 
L 69.406045 385.350097 
L 70.917298 385.065699 
L 72.428551 384.70171 
L 73.939804 384.239162 
L 75.451057 383.655557 
L 76.962311 382.924482 
L 78.473564 382.015262 
L 79.984817 380.892664 
L 81.49607 379.516689 
L 83.007323 377.842489 
L 84.518576 375.820429 
L 86.02983 373.396347 
L 87.541083 370.512037 
L 89.052336 367.105995 
L 90.563589 363.114451 
L 92.074842 358.472713 
L 93.586095 353.116821 
L 95.097349 346.985524 
L 96.608602 340.022537 
L 98.119855 332.179052 
L 99.631108 323.416441 
L 101.142361 313.709065 
L 102.653614 303.047092 
L 104.164867 291.43921 
L 105.676121 278.915097 
L 107.187374 265.527525 
L 108.698627 251.353937 
L 110.20988 236.497382 
L 111.721133 221.086688 
L 113.232386 205.275756 
L 114.74364 189.241942 
L 116.254893 173.183462 
L 117.766146 157.315863 
L 119.277399 141.867606 
L 120.788652 127.074868 
L 122.299905 113.175718 
L 123.811159 100.403858 
L 125.322412 88.982158 
L 126.833665 79.116215 
L 128.344918 70.988222 
L 129.856171 64.751379 
L 131.367424 60.525086 
L 132.878677 58.391152 
L 134.389931 58.391152 
L 135.901184 60.525086 
L 137.412437 64.751379 
L 138.92369 70.988222 
L 140.434943 79.116215 
L 141.946196 88.982158 
L 143.45745 100.403858 
L 144.968703 113.175718 
L 146.479956 127.074868 
L 147.991209 141.867606 
L 149.502462 157.315863 
L 151.013715 173.183462 
L 152.524969 189.241942 
L 154.036222 205.275756 
L 155.547475 221.086688 
L 157.058728 236.497382 
L 158.569981 251.353937 
L 160.081234 265.527525 
L 161.592487 278.915097 
L 163.103741 291.43921 
L 164.614994 303.047092 
L 166.126247 313.709065 
L 167.6375 323.416441 
L 169.148753 332.179052 
L 170.660006 340.022537 
L 172.17126 346.985524 
L 173.682513 353.116821 
L 175.193766 358.472713 
L 176.705019 363.114451 
L 178.216272 367.105995 
L 179.727525 370.512037 
L 181.238779 373.396347 
L 182.750032 375.820429 
L 184.261285 377.842489 
L 185.772538 379.516689 
L 187.283791 380.892664 
L 188.795044 382.015262 
L 190.306297 382.924482 
L 191.817551 383.655557 
L 193.328804 384.239162 
L 194.840057 384.70171 
L 196.35131 385.065699 
L 197.862563 385.350097 
L 199.373816 385.570737 
L 200.88507 385.740708 
L 202.396323 385.870726 
L 203.907576 385.969487 
L 205.418829 386.043981 
L 206.930082 386.099782 
L 208.441335 386.141289 
" style="fill:none;stroke:#36a2eb;stroke-linecap:square;"/>
   </g>
   <g id="line2d_3">
    <path clip-path="url(#p3b039e0ae2)" d="M 174.984697 386.139371 
L 176.47007 386.097141 
L 177.955442 386.040368 
L 179.440815 385.964575 
L 180.926187 385.864094 
L 182.41156 385.73181 
L 183.896932 385.558878 
L 185.382305 385.334393 
L 186.867678 385.04504 
L 188.35305 384.674709 
L 189.838423 384.204102 
L 191.323795 383.610328 
L 192.809168 382.866516 
L 194.294541 381.941454 
L 195.779913 380.799296 
L 197.265286 379.399346 
L 198.750658 377.695976 
L 200.236031 375.638684 
L 201.721403 373.172366 
L 203.206776 370.2378 
L 204.692149 366.772413 
L 206.177521 362.711322 
L 207.662894 357.988708 
L 209.148266 352.539497 
L 210.633639 346.301371 
L 212.119011 339.217063 
L 213.604384 331.236916 
L 215.089757 322.321628 
L 216.575129 312.445114 
L 218.060502 301.597371 
L 219.545874 289.787238 
L 221.031247 277.04491 
L 222.516619 263.424078 
L 224.001992 249.003534 
L 225.487365 233.888124 
L 226.972737 218.208919 
L 228.45811 202.122504 
L 229.943482 185.809323 
L 231.428855 169.471045 
L 232.914227 153.326975 
L 234.3996 137.609553 
L 235.884973 122.559072 
L 237.370345 108.417748 
L 238.855718 95.423357 
L 240.34109 83.802649 
L 241.826463 73.764805 
L 243.311835 65.495194 
L 244.797208 59.149682 
L 246.282581 54.849752 
L 247.767953 52.678636 
L 249.253326 52.678636 
L 250.738698 54.849752 
L 252.224071 59.149682 
L 253.709443 65.495194 
L 255.194816 73.764805 
L 256.680189 83.802649 
L 258.165561 95.423357 
L 259.650934 108.417748 
L 261.136306 122.559072 
L 262.621679 137.609553 
L 264.107052 153.326975 
L 265.592424 169.471045 
L 267.077797 185.809323 
L 268.563169 202.122504 
L 270.048542 218.208919 
L 271.533914 233.888124 
L 273.019287 249.003534 
L 274.50466 263.424078 
L 275.990032 277.04491 
L 277.475405 289.787238 
L 278.960777 301.597371 
L 280.44615 312.445114 
L 281.931522 322.321628 
L 283.416895 331.236916 
L 284.902268 339.217063 
L 286.38764 346.301371 
L 287.873013 352.539497 
L 289.358385 357.988708 
L 290.843758 362.711322 
L 292.32913 366.772413 
L 293.814503 370.2378 
L 295.299876 373.172366 
L 296.785248 375.638684 
L 298.270621 377.695976 
L 299.755993 379.399346 
L 301.241366 380.799296 
L 302.726738 381.941454 
L 304.212111 382.866516 
L 305.697484 383.610328 
L 307.182856 384.204102 
L 308.668229 384.674709 
L 310.153601 385.04504 
L 311.638974 385.334393 
L 313.124346 385.558878 
L 314.609719 385.73181 
L 316.095092 385.864094 
L 317.580464 385.964575 
L 319.065837 386.040368 
L 320.551209 386.097141 
L 322.036582 386.139371 
" style="fill:none;stroke:#4bc0c0;stroke-linecap:square;"/>
   </g>
   <g id="patch_3">
    <path d="M 36 402.93 
L 538.2 402.93 
" style="fill:none;stroke:#000000;stroke-linecap:square;stroke-linejoin:miter;stroke-width:0.8;"/>
   </g>
   <g id="legend_1">
    <g id="patch_4">
     <path d="M 421.068125 110.01625 
L 528.4 110.01625 
Q 531.2 110.01625 531.2 107.21625 
L 531.2 45.8 
Q 531.2 43 528.4 43 
L 421.068125 43 
Q 418.268125 43 418.268125 45.8 
L 418.268125 107.21625 
Q 418.268125 110.01625 421.068125 110.01625 
z
" style="fill:#ffffff;opacity:0.8;stroke:#cccccc;stroke-linejoin:miter;"/>
    </g>
    <g id="patch_5">
     <path d="M 423.868125 59.237813 
L 451.868125 59.237813 
L 451.868125 49.437813 
L 423.868125 49.437813 
z
" style="fill:#ff6384;opacity:0.5;stroke:#ff6384;stroke-linejoin:miter;"/>
    </g>
    <g id="text_1">
     <!-- base_fee -->
     <defs>
      <path d="M 48.6875 27.296875 
Q 48.6875 37.203125 44.609375 42.84375 
Q 40.53125 48.484375 33.40625 48.484375 
Q 26.265625 48.484375 22.1875 42.84375 
Q 18.109375 37.203125 18.109375 27.296875 
Q 18.109375 17.390625 22.1875 11.75 
Q 26.265625 6.109375 33.40625 6.109375 
Q 40.53125 6.109375 44.609375 11.75 
Q 48.6875 17.390625 48.6875 27.296875 
z
M 18.109375 46.390625 
Q 20.953125 51.265625 25.265625 53.625 
Q 29.59375 56 35.59375 56 
Q 45.5625 56 51.78125 48.09375 
Q 58.015625 40.1875 58.015625 27.296875 
Q 58.015625 14.40625 51.78125 6.484375 
Q 45.5625 -1.421875 35.59375 -1.421875 
Q 29.59375 -1.421875 25.265625 0.953125 
Q 20.953125 3.328125 18.109375 8.203125 
L 18.109375 0 
L 9.078125 0 
L 9.078125 75.984375 
L 18.109375 75.984375 
z
" id="DejaVuSans-98"/>
      <path d="M 34.28125 27.484375 
Q 23.390625 27.484375 19.1875 25 
Q 14.984375 22.515625 14.984375 16.5 
Q 14.984375 11.71875 18.140625 8.90625 
Q 21.296875 6.109375 26.703125 6.109375 
Q 34.1875 6.109375 38.703125 11.40625 
Q 43.21875 16.703125 43.21875 25.484375 
L 43.21875 27.484375 
z
M 52.203125 31.203125 
L 52.203125 0 
L 43.21875 0 
L 43.21875 8.296875 
Q 40.140625 3.328125 35.546875 0.953125 
Q 30.953125 -1.421875 24.3125 -1.421875 
Q 15.921875 -1.421875 10.953125 3.296875 
Q 6 8.015625 6 15.921875 
Q 6 25.140625 12.171875 29.828125 
Q 18.359375 34.515625 30.609375 34.515625 
L 43.21875 34.515625 
L 43.21875 35.40625 
Q 43.21875 41.609375 39.140625 45 
Q 35.0625 48.390625 27.6875 48.390625 
Q 23 48.390625 18.546875 47.265625 
Q 14.109375 46.140625 10.015625 43.890625 
L 10.015625 52.203125 
Q 14.9375 54.109375 19.578125 55.046875 
Q 24.21875 56 28.609375 56 
Q 40.484375 56 46.34375 49.84375 
Q 52.203125 43.703125 52.203125 31.203125 
z
" id="DejaVuSans-97"/>
      <path d="M 44.28125 53.078125 
L 44.28125 44.578125 
Q 40.484375 46.53125 36.375 47.5 
Q 32.28125 48.484375 27.875 48.484375 
Q 21.1875 48.484375 17.84375 46.4375 
Q 14.5 44.390625 14.5 40.28125 
Q 14.5 37.15625 16.890625 35.375 
Q 19.28125 33.59375 26.515625 31.984375 
L 29.59375 31.296875 
Q 39.15625 29.25 43.1875 25.515625 
Q 47.21875 21.78125 47.21875 15.09375 
Q 47.21875 7.46875 41.1875 3.015625 
Q 35.15625 -1.421875 24.609375 -1.421875 
Q 20.21875 -1.421875 15.453125 -0.5625 
Q 10.6875 0.296875 5.421875 2 
L 5.421875 11.28125 
Q 10.40625 8.6875 15.234375 7.390625 
Q 20.0625 6.109375 24.8125 6.109375 
Q 31.15625 6.109375 34.5625 8.28125 
Q 37.984375 10.453125 37.984375 14.40625 
Q 37.984375 18.0625 35.515625 20.015625 
Q 33.0625 21.96875 24.703125 23.78125 
L 21.578125 24.515625 
Q 13.234375 26.265625 9.515625 29.90625 
Q 5.8125 33.546875 5.8125 39.890625 
Q 5.8125 47.609375 11.28125 51.796875 
Q 16.75 56 26.8125 56 
Q 31.78125 56 36.171875 55.265625 
Q 40.578125 54.546875 44.28125 53.078125 
z
" id="DejaVuSans-115"/>
      <path d="M 56.203125 29.59375 
L 56.203125 25.203125 
L 14.890625 25.203125 
Q 15.484375 15.921875 20.484375 11.0625 
Q 25.484375 6.203125 34.421875 6.203125 
Q 39.59375 6.203125 44.453125 7.46875 
Q 49.3125 8.734375 54.109375 11.28125 
L 54.109375 2.78125 
Q 49.265625 0.734375 44.1875 -0.34375 
Q 39.109375 -1.421875 33.890625 -1.421875 
Q 20.796875 -1.421875 13.15625 6.1875 
Q 5.515625 13.8125 5.515625 26.8125 
Q 5.515625 40.234375 12.765625 48.109375 
Q 20.015625 56 32.328125 56 
Q 43.359375 56 49.78125 48.890625 
Q 56.203125 41.796875 56.203125 29.59375 
z
M 47.21875 32.234375 
Q 47.125 39.59375 43.09375 43.984375 
Q 39.0625 48.390625 32.421875 48.390625 
Q 24.90625 48.390625 20.390625 44.140625 
Q 15.875 39.890625 15.1875 32.171875 
z
" id="DejaVuSans-101"/>
      <path d="M 50.984375 -16.609375 
L 50.984375 -23.578125 
L -0.984375 -23.578125 
L -0.984375 -16.609375 
z
" id="DejaVuSans-95"/>
      <path d="M 37.109375 75.984375 
L 37.109375 68.5 
L 28.515625 68.5 
Q 23.6875 68.5 21.796875 66.546875 
Q 19.921875 64.59375 19.921875 59.515625 
L 19.921875 54.6875 
L 34.71875 54.6875 
L 34.71875 47.703125 
L 19.921875 47.703125 
L 19.921875 0 
L 10.890625 0 
L 10.890625 47.703125 
L 2.296875 47.703125 
L 2.296875 54.6875 
L 10.890625 54.6875 
L 10.890625 58.5 
Q 10.890625 67.625 15.140625 71.796875 
Q 19.390625 75.984375 28.609375 75.984375 
z
" id="DejaVuSans-102"/>
     </defs>
     <g transform="translate(463.068125 59.237813)scale(0.14 -0.14)">
      <use xlink:href="#DejaVuSans-98"/>
      <use x="63.476562" xlink:href="#DejaVuSans-97"/>
      <use x="124.755859" xlink:href="#DejaVuSans-115"/>
      <use x="176.855469" xlink:href="#DejaVuSans-101"/>
      <use x="238.378906" xlink:href="#DejaVuSans-95"/>
      <use x="288.378906" xlink:href="#DejaVuSans-102"/>
      <use x="323.583984" xlink:href="#DejaVuSans-101"/>
      <use x="385.107422" xlink:href="#DejaVuSans-101"/>
     </g>
    </g>
    <g id="patch_6">
     <path d="M 423.868125 80.176563 
L 451.868125 80.176563 
L 451.868125 70.376563 
L 423.868125 70.376563 
z
" style="fill:#36a2eb;opacity:0.5;stroke:#36a2eb;stroke-linejoin:miter;"/>
    </g>
    <g id="text_2">
     <!-- 0_fee -->
     <defs>
      <path d="M 31.78125 66.40625 
Q 24.171875 66.40625 20.328125 58.90625 
Q 16.5 51.421875 16.5 36.375 
Q 16.5 21.390625 20.328125 13.890625 
Q 24.171875 6.390625 31.78125 6.390625 
Q 39.453125 6.390625 43.28125 13.890625 
Q 47.125 21.390625 47.125 36.375 
Q 47.125 51.421875 43.28125 58.90625 
Q 39.453125 66.40625 31.78125 66.40625 
z
M 31.78125 74.21875 
Q 44.046875 74.21875 50.515625 64.515625 
Q 56.984375 54.828125 56.984375 36.375 
Q 56.984375 17.96875 50.515625 8.265625 
Q 44.046875 -1.421875 31.78125 -1.421875 
Q 19.53125 -1.421875 13.0625 8.265625 
Q 6.59375 17.96875 6.59375 36.375 
Q 6.59375 54.828125 13.0625 64.515625 
Q 19.53125 74.21875 31.78125 74.21875 
z
" id="DejaVuSans-48"/>
     </defs>
     <g transform="translate(463.068125 80.176563)scale(0.14 -0.14)">
      <use xlink:href="#DejaVuSans-48"/>
      <use x="63.623047" xlink:href="#DejaVuSans-95"/>
      <use x="113.623047" xlink:href="#DejaVuSans-102"/>
      <use x="148.828125" xlink:href="#DejaVuSans-101"/>
      <use x="210.351562" xlink:href="#DejaVuSans-101"/>
     </g>
    </g>
    <g id="patch_7">
     <path d="M 423.868125 101.115313 
L 451.868125 101.115313 
L 451.868125 91.315313 
L 423.868125 91.315313 
z
" style="fill:#4bc0c0;opacity:0.5;stroke:#4bc0c0;stroke-linejoin:miter;"/>
    </g>
    <g id="text_3">
     <!-- 20_fee -->
     <defs>
      <path d="M 19.1875 8.296875 
L 53.609375 8.296875 
L 53.609375 0 
L 7.328125 0 
L 7.328125 8.296875 
Q 12.9375 14.109375 22.625 23.890625 
Q 32.328125 33.6875 34.8125 36.53125 
Q 39.546875 41.84375 41.421875 45.53125 
Q 43.3125 49.21875 43.3125 52.78125 
Q 43.3125 58.59375 39.234375 62.25 
Q 35.15625 65.921875 28.609375 65.921875 
Q 23.96875 65.921875 18.8125 64.3125 
Q 13.671875 62.703125 7.8125 59.421875 
L 7.8125 69.390625 
Q 13.765625 71.78125 18.9375 73 
Q 24.125 74.21875 28.421875 74.21875 
Q 39.75 74.21875 46.484375 68.546875 
Q 53.21875 62.890625 53.21875 53.421875 
Q 53.21875 48.921875 51.53125 44.890625 
Q 49.859375 40.875 45.40625 35.40625 
Q 44.1875 33.984375 37.640625 27.21875 
Q 31.109375 20.453125 19.1875 8.296875 
z
" id="DejaVuSans-50"/>
     </defs>
     <g transform="translate(463.068125 101.115313)scale(0.14 -0.14)">
      <use xlink:href="#DejaVuSans-50"/>
      <use x="63.623047" xlink:href="#DejaVuSans-48"/>
      <use x="127.246094" xlink:href="#DejaVuSans-95"/>
      <use x="177.246094" xlink:href="#DejaVuSans-102"/>
      <use x="212.451172" xlink:href="#DejaVuSans-101"/>
      <use x="273.974609" xlink:href="#DejaVuSans-101"/>
     </g>
    </g>
   </g>
  </g>
  <g id="axes_2">
   <g id="patch_8">
    <path d="M 36 525.24 
L 538.2 525.24 
L 538.2 402.93 
L 36 402.93 
z
" style="fill:none;"/>
   </g>
   <g id="patch_9">
    <path clip-path="url(#p76453425f7)" d="M 368.118989 519.680455 
L 464.970441 519.680455 
L 464.970441 497.442273 
L 368.118989 497.442273 
z
" style="fill:#ff6384;opacity:0.5;"/>
   </g>
   <g id="patch_10">
    <path clip-path="url(#p76453425f7)" d="M 96.978859 475.204091 
L 170.289749 475.204091 
L 170.289749 452.965909 
L 96.978859 452.965909 
z
" style="fill:#36a2eb;opacity:0.5;"/>
   </g>
   <g id="patch_11">
    <path clip-path="url(#p76453425f7)" d="M 212.482928 430.727727 
L 284.538351 430.727727 
L 284.538351 408.489545 
L 212.482928 408.489545 
z
" style="fill:#4bc0c0;opacity:0.5;"/>
   </g>
   <g id="matplotlib.axis_1">
    <g id="xtick_1">
     <g id="line2d_4">
      <defs>
       <path d="M 0 0 
L 0 3.5 
" id="m89230810ad" style="stroke:#000000;stroke-width:0.8;"/>
      </defs>
      <g>
       <use style="stroke:#000000;stroke-width:0.8;" x="94.15793" xlink:href="#m89230810ad" y="525.24"/>
      </g>
     </g>
     <g id="text_4">
      <!-- 15 -->
      <defs>
       <path d="M 12.40625 8.296875 
L 28.515625 8.296875 
L 28.515625 63.921875 
L 10.984375 60.40625 
L 10.984375 69.390625 
L 28.421875 72.90625 
L 38.28125 72.90625 
L 38.28125 8.296875 
L 54.390625 8.296875 
L 54.390625 0 
L 12.40625 0 
z
" id="DejaVuSans-49"/>
       <path d="M 10.796875 72.90625 
L 49.515625 72.90625 
L 49.515625 64.59375 
L 19.828125 64.59375 
L 19.828125 46.734375 
Q 21.96875 47.46875 24.109375 47.828125 
Q 26.265625 48.1875 28.421875 48.1875 
Q 40.625 48.1875 47.75 41.5 
Q 54.890625 34.8125 54.890625 23.390625 
Q 54.890625 11.625 47.5625 5.09375 
Q 40.234375 -1.421875 26.90625 -1.421875 
Q 22.3125 -1.421875 17.546875 -0.640625 
Q 12.796875 0.140625 7.71875 1.703125 
L 7.71875 11.625 
Q 12.109375 9.234375 16.796875 8.0625 
Q 21.484375 6.890625 26.703125 6.890625 
Q 35.15625 6.890625 40.078125 11.328125 
Q 45.015625 15.765625 45.015625 23.390625 
Q 45.015625 31 40.078125 35.4375 
Q 35.15625 39.890625 26.703125 39.890625 
Q 22.75 39.890625 18.8125 39.015625 
Q 14.890625 38.140625 10.796875 36.28125 
z
" id="DejaVuSans-53"/>
      </defs>
      <g transform="translate(85.25043 542.877813)scale(0.14 -0.14)">
       <use xlink:href="#DejaVuSans-49"/>
       <use x="63.623047" xlink:href="#DejaVuSans-53"/>
      </g>
     </g>
    </g>
    <g id="xtick_2">
     <g id="line2d_5">
      <g>
       <use style="stroke:#000000;stroke-width:0.8;" x="202.276834" xlink:href="#m89230810ad" y="525.24"/>
      </g>
     </g>
     <g id="text_5">
      <!-- 20 -->
      <g transform="translate(193.369334 542.877813)scale(0.14 -0.14)">
       <use xlink:href="#DejaVuSans-50"/>
       <use x="63.623047" xlink:href="#DejaVuSans-48"/>
      </g>
     </g>
    </g>
    <g id="xtick_3">
     <g id="line2d_6">
      <g>
       <use style="stroke:#000000;stroke-width:0.8;" x="310.395738" xlink:href="#m89230810ad" y="525.24"/>
      </g>
     </g>
     <g id="text_6">
      <!-- 25 -->
      <g transform="translate(301.488238 542.877813)scale(0.14 -0.14)">
       <use xlink:href="#DejaVuSans-50"/>
       <use x="63.623047" xlink:href="#DejaVuSans-53"/>
      </g>
     </g>
    </g>
    <g id="xtick_4">
     <g id="line2d_7">
      <g>
       <use style="stroke:#000000;stroke-width:0.8;" x="418.514642" xlink:href="#m89230810ad" y="525.24"/>
      </g>
     </g>
     <g id="text_7">
      <!-- 30 -->
      <defs>
       <path d="M 40.578125 39.3125 
Q 47.65625 37.796875 51.625 33 
Q 55.609375 28.21875 55.609375 21.1875 
Q 55.609375 10.40625 48.1875 4.484375 
Q 40.765625 -1.421875 27.09375 -1.421875 
Q 22.515625 -1.421875 17.65625 -0.515625 
Q 12.796875 0.390625 7.625 2.203125 
L 7.625 11.71875 
Q 11.71875 9.328125 16.59375 8.109375 
Q 21.484375 6.890625 26.8125 6.890625 
Q 36.078125 6.890625 40.9375 10.546875 
Q 45.796875 14.203125 45.796875 21.1875 
Q 45.796875 27.640625 41.28125 31.265625 
Q 36.765625 34.90625 28.71875 34.90625 
L 20.21875 34.90625 
L 20.21875 43.015625 
L 29.109375 43.015625 
Q 36.375 43.015625 40.234375 45.921875 
Q 44.09375 48.828125 44.09375 54.296875 
Q 44.09375 59.90625 40.109375 62.90625 
Q 36.140625 65.921875 28.71875 65.921875 
Q 24.65625 65.921875 20.015625 65.03125 
Q 15.375 64.15625 9.8125 62.3125 
L 9.8125 71.09375 
Q 15.4375 72.65625 20.34375 73.4375 
Q 25.25 74.21875 29.59375 74.21875 
Q 40.828125 74.21875 47.359375 69.109375 
Q 53.90625 64.015625 53.90625 55.328125 
Q 53.90625 49.265625 50.4375 45.09375 
Q 46.96875 40.921875 40.578125 39.3125 
z
" id="DejaVuSans-51"/>
      </defs>
      <g transform="translate(409.607142 542.877813)scale(0.14 -0.14)">
       <use xlink:href="#DejaVuSans-51"/>
       <use x="63.623047" xlink:href="#DejaVuSans-48"/>
      </g>
     </g>
    </g>
    <g id="xtick_5">
     <g id="line2d_8">
      <g>
       <use style="stroke:#000000;stroke-width:0.8;" x="526.633546" xlink:href="#m89230810ad" y="525.24"/>
      </g>
     </g>
     <g id="text_8">
      <!-- 35 -->
      <g transform="translate(517.726046 542.877813)scale(0.14 -0.14)">
       <use xlink:href="#DejaVuSans-51"/>
       <use x="63.623047" xlink:href="#DejaVuSans-53"/>
      </g>
     </g>
    </g>
   </g>
   <g id="line2d_9">
    <path clip-path="url(#p76453425f7)" d="M 416.544715 525.24 
L 416.544715 402.93 
" style="fill:none;stroke:#ff6384;stroke-dasharray:5.55,2.4;stroke-dashoffset:0;stroke-opacity:0.8;stroke-width:1.5;"/>
   </g>
   <g id="line2d_10">
    <path clip-path="url(#p76453425f7)" d="M 133.634304 525.24 
L 133.634304 402.93 
" style="fill:none;stroke:#36a2eb;stroke-dasharray:5.55,2.4;stroke-dashoffset:0;stroke-opacity:0.8;stroke-width:1.5;"/>
   </g>
   <g id="line2d_11">
    <path clip-path="url(#p76453425f7)" d="M 248.510639 525.24 
L 248.510639 402.93 
" style="fill:none;stroke:#4bc0c0;stroke-dasharray:5.55,2.4;stroke-dashoffset:0;stroke-opacity:0.8;stroke-width:1.5;"/>
   </g>
   <g id="patch_12">
    <path d="M 36 525.24 
L 538.2 525.24 
" style="fill:none;stroke:#000000;stroke-linecap:square;stroke-linejoin:miter;stroke-width:0.8;"/>
   </g>
  </g>
 </g>
 <defs>
  <clipPath id="p3b039e0ae2">
   <rect height="366.93" width="502.2" x="36" y="36"/>
  </clipPath>
  <clipPath id="p76453425f7">
   <rect height="122.31" width="502.2" x="36" y="402.93"/>
  </clipPath>
 </defs>
</svg>
