<?xml version="1.0" encoding="utf-8" standalone="no"?>
<!DOCTYPE svg PUBLIC "-//W3C//DTD SVG 1.1//EN"
  "http://www.w3.org/Graphics/SVG/1.1/DTD/svg11.dtd">
<!-- Created with matplotlib (https://matplotlib.org/) -->
<svg height="581.789375pt" version="1.1" viewBox="0 0 574.2 581.789375" width="574.2pt" xmlns="http://www.w3.org/2000/svg" xmlns:xlink="http://www.w3.org/1999/xlink">
 <defs>
  <style type="text/css">
*{stroke-linecap:butt;stroke-linejoin:round;}
  </style>
 </defs>
 <g id="figure_1">
  <g id="patch_1">
   <path d="M 0 581.789375 
L 574.2 581.789375 
L 574.2 0 
L 0 0 
z
" style="fill:none;"/>
  </g>
  <g id="axes_1">
   <g id="patch_2">
    <path d="M 36 402.93 
L 538.2 402.93 
L 538.2 36 
L 36 36 
z
" style="fill:none;"/>
   </g>
   <g id="PolyCollection_1">
    <defs>
     <path d="M 58.827273 -195.538011 
L 58.827273 -195.634947 
L 63.327468 -195.671499 
L 67.827663 -195.720639 
L 72.327858 -195.786241 
L 76.828053 -195.873213 
L 81.328248 -195.987712 
L 85.828444 -196.137393 
L 90.328639 -196.331696 
L 94.828834 -196.582146 
L 99.329029 -196.902687 
L 103.829224 -197.310021 
L 108.329419 -197.823963 
L 112.829614 -198.467771 
L 117.329809 -199.268459 
L 121.830005 -200.257056 
L 126.3302 -201.468784 
L 130.830395 -202.943138 
L 135.33059 -204.72383 
L 139.830785 -206.858555 
L 144.33098 -209.398572 
L 148.831175 -212.398043 
L 153.331371 -215.913125 
L 157.831566 -220.00079 
L 162.331761 -224.717361 
L 166.831956 -230.116779 
L 171.332151 -236.248611 
L 175.832346 -243.155838 
L 180.332541 -250.872477 
L 184.832736 -259.421106 
L 189.332932 -268.810384 
L 193.833127 -279.032661 
L 198.333322 -290.061799 
L 202.833517 -301.851328 
L 207.333712 -314.333049 
L 211.833907 -327.416211 
L 216.334102 -340.987367 
L 220.834298 -354.910985 
L 225.334493 -369.03088 
L 229.834688 -383.172498 
L 234.334883 -397.146019 
L 238.835078 -410.750253 
L 243.335273 -423.777217 
L 247.835468 -436.017258 
L 252.335663 -447.26457 
L 256.835859 -457.322889 
L 261.336054 -466.011158 
L 265.836249 -473.168931 
L 270.336444 -478.661297 
L 274.836639 -482.383107 
L 279.336834 -484.262319 
L 283.837029 -484.262319 
L 288.337225 -482.383107 
L 292.83742 -478.661297 
L 297.337615 -473.168931 
L 301.83781 -466.011158 
L 306.338005 -457.322889 
L 310.8382 -447.26457 
L 315.338395 -436.017258 
L 319.83859 -423.777217 
L 324.338786 -410.750253 
L 328.838981 -397.146019 
L 333.339176 -383.172498 
L 337.839371 -369.03088 
L 342.339566 -354.910985 
L 346.839761 -340.987367 
L 351.339956 -327.416211 
L 355.840152 -314.333049 
L 360.340347 -301.851328 
L 364.840542 -290.061799 
L 369.340737 -279.032661 
L 373.840932 -268.810384 
L 378.341127 -259.421106 
L 382.841322 -250.872477 
L 387.341517 -243.155838 
L 391.841713 -236.248611 
L 396.341908 -230.116779 
L 400.842103 -224.717361 
L 405.342298 -220.00079 
L 409.842493 -215.913125 
L 414.342688 -212.398043 
L 418.842883 -209.398572 
L 423.343079 -206.858555 
L 427.843274 -204.72383 
L 432.343469 -202.943138 
L 436.843664 -201.468784 
L 441.343859 -200.257056 
L 445.844054 -199.268459 
L 450.344249 -198.467771 
L 454.844444 -197.823963 
L 459.34464 -197.310021 
L 463.844835 -196.902687 
L 468.34503 -196.582146 
L 472.845225 -196.331696 
L 477.34542 -196.137393 
L 481.845615 -195.987712 
L 486.34581 -195.873213 
L 490.846006 -195.786241 
L 495.346201 -195.720639 
L 499.846396 -195.671499 
L 504.346591 -195.634947 
L 504.346591 -195.538011 
L 504.346591 -195.538011 
L 499.846396 -195.538011 
L 495.346201 -195.538011 
L 490.846006 -195.538011 
L 486.34581 -195.538011 
L 481.845615 -195.538011 
L 477.34542 -195.538011 
L 472.845225 -195.538011 
L 468.34503 -195.538011 
L 463.844835 -195.538011 
L 459.34464 -195.538011 
L 454.844444 -195.538011 
L 450.344249 -195.538011 
L 445.844054 -195.538011 
L 441.343859 -195.538011 
L 436.843664 -195.538011 
L 432.343469 -195.538011 
L 427.843274 -195.538011 
L 423.343079 -195.538011 
L 418.842883 -195.538011 
L 414.342688 -195.538011 
L 409.842493 -195.538011 
L 405.342298 -195.538011 
L 400.842103 -195.538011 
L 396.341908 -195.538011 
L 391.841713 -195.538011 
L 387.341517 -195.538011 
L 382.841322 -195.538011 
L 378.341127 -195.538011 
L 373.840932 -195.538011 
L 369.340737 -195.538011 
L 364.840542 -195.538011 
L 360.340347 -195.538011 
L 355.840152 -195.538011 
L 351.339956 -195.538011 
L 346.839761 -195.538011 
L 342.339566 -195.538011 
L 337.839371 -195.538011 
L 333.339176 -195.538011 
L 328.838981 -195.538011 
L 324.338786 -195.538011 
L 319.83859 -195.538011 
L 315.338395 -195.538011 
L 310.8382 -195.538011 
L 306.338005 -195.538011 
L 301.83781 -195.538011 
L 297.337615 -195.538011 
L 292.83742 -195.538011 
L 288.337225 -195.538011 
L 283.837029 -195.538011 
L 279.336834 -195.538011 
L 274.836639 -195.538011 
L 270.336444 -195.538011 
L 265.836249 -195.538011 
L 261.336054 -195.538011 
L 256.835859 -195.538011 
L 252.335663 -195.538011 
L 247.835468 -195.538011 
L 243.335273 -195.538011 
L 238.835078 -195.538011 
L 234.334883 -195.538011 
L 229.834688 -195.538011 
L 225.334493 -195.538011 
L 220.834298 -195.538011 
L 216.334102 -195.538011 
L 211.833907 -195.538011 
L 207.333712 -195.538011 
L 202.833517 -195.538011 
L 198.333322 -195.538011 
L 193.833127 -195.538011 
L 189.332932 -195.538011 
L 184.832736 -195.538011 
L 180.332541 -195.538011 
L 175.832346 -195.538011 
L 171.332151 -195.538011 
L 166.831956 -195.538011 
L 162.331761 -195.538011 
L 157.831566 -195.538011 
L 153.331371 -195.538011 
L 148.831175 -195.538011 
L 144.33098 -195.538011 
L 139.830785 -195.538011 
L 135.33059 -195.538011 
L 130.830395 -195.538011 
L 126.3302 -195.538011 
L 121.830005 -195.538011 
L 117.329809 -195.538011 
L 112.829614 -195.538011 
L 108.329419 -195.538011 
L 103.829224 -195.538011 
L 99.329029 -195.538011 
L 94.828834 -195.538011 
L 90.328639 -195.538011 
L 85.828444 -195.538011 
L 81.328248 -195.538011 
L 76.828053 -195.538011 
L 72.327858 -195.538011 
L 67.827663 -195.538011 
L 63.327468 -195.538011 
L 58.827273 -195.538011 
z
" id="me7b793d937" style="stroke:#ff6384;stroke-opacity:0.5;"/>
    </defs>
    <g clip-path="url(#p1a899b49ec)">
     <use style="fill:#ff6384;fill-opacity:0.5;stroke:#ff6384;stroke-opacity:0.5;" x="0" xlink:href="#me7b793d937" y="581.789375"/>
    </g>
   </g>
   <g id="PolyCollection_2">
    <defs>
     <path d="M 129.752903 -195.538011 
L 129.752903 -195.650004 
L 133.648052 -195.692234 
L 137.543202 -195.749007 
L 141.438352 -195.8248 
L 145.333502 -195.925281 
L 149.228651 -196.057565 
L 153.123801 -196.230497 
L 157.018951 -196.454982 
L 160.914101 -196.744335 
L 164.80925 -197.114666 
L 168.7044 -197.585273 
L 172.59955 -198.179047 
L 176.4947 -198.922859 
L 180.389849 -199.847921 
L 184.284999 -200.990079 
L 188.180149 -202.390029 
L 192.075299 -204.093399 
L 195.970448 -206.150691 
L 199.865598 -208.617009 
L 203.760748 -211.551575 
L 207.655897 -215.016962 
L 211.551047 -219.078053 
L 215.446197 -223.800667 
L 219.341347 -229.249878 
L 223.236496 -235.488004 
L 227.131646 -242.572312 
L 231.026796 -250.552459 
L 234.921946 -259.467747 
L 238.817095 -269.344261 
L 242.712245 -280.192004 
L 246.607395 -292.002137 
L 250.502545 -304.744465 
L 254.397694 -318.365297 
L 258.292844 -332.785841 
L 262.187994 -347.901251 
L 266.083144 -363.580456 
L 269.978293 -379.666871 
L 273.873443 -395.980052 
L 277.768593 -412.31833 
L 281.663743 -428.4624 
L 285.558892 -444.179822 
L 289.454042 -459.230303 
L 293.349192 -473.371627 
L 297.244342 -486.366018 
L 301.139491 -497.986726 
L 305.034641 -508.02457 
L 308.929791 -516.294181 
L 312.824941 -522.639693 
L 316.72009 -526.939623 
L 320.61524 -529.110739 
L 324.51039 -529.110739 
L 328.40554 -526.939623 
L 332.300689 -522.639693 
L 336.195839 -516.294181 
L 340.090989 -508.02457 
L 343.986139 -497.986726 
L 347.881288 -486.366018 
L 351.776438 -473.371627 
L 355.671588 -459.230303 
L 359.566738 -444.179822 
L 363.461887 -428.4624 
L 367.357037 -412.31833 
L 371.252187 -395.980052 
L 375.147336 -379.666871 
L 379.042486 -363.580456 
L 382.937636 -347.901251 
L 386.832786 -332.785841 
L 390.727935 -318.365297 
L 394.623085 -304.744465 
L 398.518235 -292.002137 
L 402.413385 -280.192004 
L 406.308534 -269.344261 
L 410.203684 -259.467747 
L 414.098834 -250.552459 
L 417.993984 -242.572312 
L 421.889133 -235.488004 
L 425.784283 -229.249878 
L 429.679433 -223.800667 
L 433.574583 -219.078053 
L 437.469732 -215.016962 
L 441.364882 -211.551575 
L 445.260032 -208.617009 
L 449.155182 -206.150691 
L 453.050331 -204.093399 
L 456.945481 -202.390029 
L 460.840631 -200.990079 
L 464.735781 -199.847921 
L 468.63093 -198.922859 
L 472.52608 -198.179047 
L 476.42123 -197.585273 
L 480.31638 -197.114666 
L 484.211529 -196.744335 
L 488.106679 -196.454982 
L 492.001829 -196.230497 
L 495.896979 -196.057565 
L 499.792128 -195.925281 
L 503.687278 -195.8248 
L 507.582428 -195.749007 
L 511.477578 -195.692234 
L 515.372727 -195.650004 
L 515.372727 -195.538011 
L 515.372727 -195.538011 
L 511.477578 -195.538011 
L 507.582428 -195.538011 
L 503.687278 -195.538011 
L 499.792128 -195.538011 
L 495.896979 -195.538011 
L 492.001829 -195.538011 
L 488.106679 -195.538011 
L 484.211529 -195.538011 
L 480.31638 -195.538011 
L 476.42123 -195.538011 
L 472.52608 -195.538011 
L 468.63093 -195.538011 
L 464.735781 -195.538011 
L 460.840631 -195.538011 
L 456.945481 -195.538011 
L 453.050331 -195.538011 
L 449.155182 -195.538011 
L 445.260032 -195.538011 
L 441.364882 -195.538011 
L 437.469732 -195.538011 
L 433.574583 -195.538011 
L 429.679433 -195.538011 
L 425.784283 -195.538011 
L 421.889133 -195.538011 
L 417.993984 -195.538011 
L 414.098834 -195.538011 
L 410.203684 -195.538011 
L 406.308534 -195.538011 
L 402.413385 -195.538011 
L 398.518235 -195.538011 
L 394.623085 -195.538011 
L 390.727935 -195.538011 
L 386.832786 -195.538011 
L 382.937636 -195.538011 
L 379.042486 -195.538011 
L 375.147336 -195.538011 
L 371.252187 -195.538011 
L 367.357037 -195.538011 
L 363.461887 -195.538011 
L 359.566738 -195.538011 
L 355.671588 -195.538011 
L 351.776438 -195.538011 
L 347.881288 -195.538011 
L 343.986139 -195.538011 
L 340.090989 -195.538011 
L 336.195839 -195.538011 
L 332.300689 -195.538011 
L 328.40554 -195.538011 
L 324.51039 -195.538011 
L 320.61524 -195.538011 
L 316.72009 -195.538011 
L 312.824941 -195.538011 
L 308.929791 -195.538011 
L 305.034641 -195.538011 
L 301.139491 -195.538011 
L 297.244342 -195.538011 
L 293.349192 -195.538011 
L 289.454042 -195.538011 
L 285.558892 -195.538011 
L 281.663743 -195.538011 
L 277.768593 -195.538011 
L 273.873443 -195.538011 
L 269.978293 -195.538011 
L 266.083144 -195.538011 
L 262.187994 -195.538011 
L 258.292844 -195.538011 
L 254.397694 -195.538011 
L 250.502545 -195.538011 
L 246.607395 -195.538011 
L 242.712245 -195.538011 
L 238.817095 -195.538011 
L 234.921946 -195.538011 
L 231.026796 -195.538011 
L 227.131646 -195.538011 
L 223.236496 -195.538011 
L 219.341347 -195.538011 
L 215.446197 -195.538011 
L 211.551047 -195.538011 
L 207.655897 -195.538011 
L 203.760748 -195.538011 
L 199.865598 -195.538011 
L 195.970448 -195.538011 
L 192.075299 -195.538011 
L 188.180149 -195.538011 
L 184.284999 -195.538011 
L 180.389849 -195.538011 
L 176.4947 -195.538011 
L 172.59955 -195.538011 
L 168.7044 -195.538011 
L 164.80925 -195.538011 
L 160.914101 -195.538011 
L 157.018951 -195.538011 
L 153.123801 -195.538011 
L 149.228651 -195.538011 
L 145.333502 -195.538011 
L 141.438352 -195.538011 
L 137.543202 -195.538011 
L 133.648052 -195.538011 
L 129.752903 -195.538011 
z
" id="md655696596" style="stroke:#36a2eb;stroke-opacity:0.5;"/>
    </defs>
    <g clip-path="url(#p1a899b49ec)">
     <use style="fill:#36a2eb;fill-opacity:0.5;stroke:#36a2eb;stroke-opacity:0.5;" x="0" xlink:href="#md655696596" y="581.789375"/>
    </g>
   </g>
   <g id="line2d_1">
    <path clip-path="url(#p1a899b49ec)" d="M 58.827273 386.154428 
L 63.327468 386.117876 
L 67.827663 386.068736 
L 72.327858 386.003134 
L 76.828053 385.916162 
L 81.328248 385.801663 
L 85.828444 385.651982 
L 90.328639 385.457679 
L 94.828834 385.207229 
L 99.329029 384.886688 
L 103.829224 384.479354 
L 108.329419 383.965412 
L 112.829614 383.321604 
L 117.329809 382.520916 
L 121.830005 381.532319 
L 126.3302 380.320591 
L 130.830395 378.846237 
L 135.33059 377.065545 
L 139.830785 374.93082 
L 144.33098 372.390803 
L 148.831175 369.391332 
L 153.331371 365.87625 
L 157.831566 361.788585 
L 162.331761 357.072014 
L 166.831956 351.672596 
L 171.332151 345.540764 
L 175.832346 338.633537 
L 180.332541 330.916898 
L 184.832736 322.368269 
L 189.332932 312.978991 
L 193.833127 302.756714 
L 198.333322 291.727576 
L 202.833517 279.938047 
L 207.333712 267.456326 
L 211.833907 254.373164 
L 216.334102 240.802008 
L 220.834298 226.87839 
L 225.334493 212.758495 
L 229.834688 198.616877 
L 234.334883 184.643356 
L 238.835078 171.039122 
L 243.335273 158.012158 
L 247.835468 145.772117 
L 252.335663 134.524805 
L 256.835859 124.466486 
L 261.336054 115.778217 
L 265.836249 108.620444 
L 270.336444 103.128078 
L 274.836639 99.406268 
L 279.336834 97.527056 
L 283.837029 97.527056 
L 288.337225 99.406268 
L 292.83742 103.128078 
L 297.337615 108.620444 
L 301.83781 115.778217 
L 306.338005 124.466486 
L 310.8382 134.524805 
L 315.338395 145.772117 
L 319.83859 158.012158 
L 324.338786 171.039122 
L 328.838981 184.643356 
L 333.339176 198.616877 
L 337.839371 212.758495 
L 342.339566 226.87839 
L 346.839761 240.802008 
L 351.339956 254.373164 
L 355.840152 267.456326 
L 360.340347 279.938047 
L 364.840542 291.727576 
L 369.340737 302.756714 
L 373.840932 312.978991 
L 378.341127 322.368269 
L 382.841322 330.916898 
L 387.341517 338.633537 
L 391.841713 345.540764 
L 396.341908 351.672596 
L 400.842103 357.072014 
L 405.342298 361.788585 
L 409.842493 365.87625 
L 414.342688 369.391332 
L 418.842883 372.390803 
L 423.343079 374.93082 
L 427.843274 377.065545 
L 432.343469 378.846237 
L 436.843664 380.320591 
L 441.343859 381.532319 
L 445.844054 382.520916 
L 450.344249 383.321604 
L 454.844444 383.965412 
L 459.34464 384.479354 
L 463.844835 384.886688 
L 468.34503 385.207229 
L 472.845225 385.457679 
L 477.34542 385.651982 
L 481.845615 385.801663 
L 486.34581 385.916162 
L 490.846006 386.003134 
L 495.346201 386.068736 
L 499.846396 386.117876 
L 504.346591 386.154428 
" style="fill:none;stroke:#ff6384;stroke-linecap:square;"/>
   </g>
   <g id="line2d_2">
    <path clip-path="url(#p1a899b49ec)" d="M 129.752903 386.139371 
L 133.648052 386.097141 
L 137.543202 386.040368 
L 141.438352 385.964575 
L 145.333502 385.864094 
L 149.228651 385.73181 
L 153.123801 385.558878 
L 157.018951 385.334393 
L 160.914101 385.04504 
L 164.80925 384.674709 
L 168.7044 384.204102 
L 172.59955 383.610328 
L 176.4947 382.866516 
L 180.389849 381.941454 
L 184.284999 380.799296 
L 188.180149 379.399346 
L 192.075299 377.695976 
L 195.970448 375.638684 
L 199.865598 373.172366 
L 203.760748 370.2378 
L 207.655897 366.772413 
L 211.551047 362.711322 
L 215.446197 357.988708 
L 219.341347 352.539497 
L 223.236496 346.301371 
L 227.131646 339.217063 
L 231.026796 331.236916 
L 234.921946 322.321628 
L 238.817095 312.445114 
L 242.712245 301.597371 
L 246.607395 289.787238 
L 250.502545 277.04491 
L 254.397694 263.424078 
L 258.292844 249.003534 
L 262.187994 233.888124 
L 266.083144 218.208919 
L 269.978293 202.122504 
L 273.873443 185.809323 
L 277.768593 169.471045 
L 281.663743 153.326975 
L 285.558892 137.609553 
L 289.454042 122.559072 
L 293.349192 108.417748 
L 297.244342 95.423357 
L 301.139491 83.802649 
L 305.034641 73.764805 
L 308.929791 65.495194 
L 312.824941 59.149682 
L 316.72009 54.849752 
L 320.61524 52.678636 
L 324.51039 52.678636 
L 328.40554 54.849752 
L 332.300689 59.149682 
L 336.195839 65.495194 
L 340.090989 73.764805 
L 343.986139 83.802649 
L 347.881288 95.423357 
L 351.776438 108.417748 
L 355.671588 122.559072 
L 359.566738 137.609553 
L 363.461887 153.326975 
L 367.357037 169.471045 
L 371.252187 185.809323 
L 375.147336 202.122504 
L 379.042486 218.208919 
L 382.937636 233.888124 
L 386.832786 249.003534 
L 390.727935 263.424078 
L 394.623085 277.04491 
L 398.518235 289.787238 
L 402.413385 301.597371 
L 406.308534 312.445114 
L 410.203684 322.321628 
L 414.098834 331.236916 
L 417.993984 339.217063 
L 421.889133 346.301371 
L 425.784283 352.539497 
L 429.679433 357.988708 
L 433.574583 362.711322 
L 437.469732 366.772413 
L 441.364882 370.2378 
L 445.260032 373.172366 
L 449.155182 375.638684 
L 453.050331 377.695976 
L 456.945481 379.399346 
L 460.840631 380.799296 
L 464.735781 381.941454 
L 468.63093 382.866516 
L 472.52608 383.610328 
L 476.42123 384.204102 
L 480.31638 384.674709 
L 484.211529 385.04504 
L 488.106679 385.334393 
L 492.001829 385.558878 
L 495.896979 385.73181 
L 499.792128 385.864094 
L 503.687278 385.964575 
L 507.582428 386.040368 
L 511.477578 386.097141 
L 515.372727 386.139371 
" style="fill:none;stroke:#36a2eb;stroke-linecap:square;"/>
   </g>
   <g id="patch_3">
    <path d="M 36 402.93 
L 538.2 402.93 
" style="fill:none;stroke:#000000;stroke-linecap:square;stroke-linejoin:miter;stroke-width:0.8;"/>
   </g>
   <g id="legend_1">
    <g id="patch_4">
     <path d="M 450.225313 88.29875 
L 528.4 88.29875 
Q 531.2 88.29875 531.2 85.49875 
L 531.2 45.8 
Q 531.2 43 528.4 43 
L 450.225313 43 
Q 447.425313 43 447.425313 45.8 
L 447.425313 85.49875 
Q 447.425313 88.29875 450.225313 88.29875 
z
" style="fill:#ffffff;opacity:0.8;stroke:#cccccc;stroke-linejoin:miter;"/>
    </g>
    <g id="patch_5">
     <path d="M 453.025313 59.237813 
L 481.025313 59.237813 
L 481.025313 49.437813 
L 453.025313 49.437813 
z
" style="fill:#ff6384;opacity:0.5;stroke:#ff6384;stroke-linejoin:miter;"/>
    </g>
    <g id="text_1">
     <!-- base -->
     <defs>
      <path d="M 48.6875 27.296875 
Q 48.6875 37.203125 44.609375 42.84375 
Q 40.53125 48.484375 33.40625 48.484375 
Q 26.265625 48.484375 22.1875 42.84375 
Q 18.109375 37.203125 18.109375 27.296875 
Q 18.109375 17.390625 22.1875 11.75 
Q 26.265625 6.109375 33.40625 6.109375 
Q 40.53125 6.109375 44.609375 11.75 
Q 48.6875 17.390625 48.6875 27.296875 
z
M 18.109375 46.390625 
Q 20.953125 51.265625 25.265625 53.625 
Q 29.59375 56 35.59375 56 
Q 45.5625 56 51.78125 48.09375 
Q 58.015625 40.1875 58.015625 27.296875 
Q 58.015625 14.40625 51.78125 6.484375 
Q 45.5625 -1.421875 35.59375 -1.421875 
Q 29.59375 -1.421875 25.265625 0.953125 
Q 20.953125 3.328125 18.109375 8.203125 
L 18.109375 0 
L 9.078125 0 
L 9.078125 75.984375 
L 18.109375 75.984375 
z
" id="DejaVuSans-98"/>
      <path d="M 34.28125 27.484375 
Q 23.390625 27.484375 19.1875 25 
Q 14.984375 22.515625 14.984375 16.5 
Q 14.984375 11.71875 18.140625 8.90625 
Q 21.296875 6.109375 26.703125 6.109375 
Q 34.1875 6.109375 38.703125 11.40625 
Q 43.21875 16.703125 43.21875 25.484375 
L 43.21875 27.484375 
z
M 52.203125 31.203125 
L 52.203125 0 
L 43.21875 0 
L 43.21875 8.296875 
Q 40.140625 3.328125 35.546875 0.953125 
Q 30.953125 -1.421875 24.3125 -1.421875 
Q 15.921875 -1.421875 10.953125 3.296875 
Q 6 8.015625 6 15.921875 
Q 6 25.140625 12.171875 29.828125 
Q 18.359375 34.515625 30.609375 34.515625 
L 43.21875 34.515625 
L 43.21875 35.40625 
Q 43.21875 41.609375 39.140625 45 
Q 35.0625 48.390625 27.6875 48.390625 
Q 23 48.390625 18.546875 47.265625 
Q 14.109375 46.140625 10.015625 43.890625 
L 10.015625 52.203125 
Q 14.9375 54.109375 19.578125 55.046875 
Q 24.21875 56 28.609375 56 
Q 40.484375 56 46.34375 49.84375 
Q 52.203125 43.703125 52.203125 31.203125 
z
" id="DejaVuSans-97"/>
      <path d="M 44.28125 53.078125 
L 44.28125 44.578125 
Q 40.484375 46.53125 36.375 47.5 
Q 32.28125 48.484375 27.875 48.484375 
Q 21.1875 48.484375 17.84375 46.4375 
Q 14.5 44.390625 14.5 40.28125 
Q 14.5 37.15625 16.890625 35.375 
Q 19.28125 33.59375 26.515625 31.984375 
L 29.59375 31.296875 
Q 39.15625 29.25 43.1875 25.515625 
Q 47.21875 21.78125 47.21875 15.09375 
Q 47.21875 7.46875 41.1875 3.015625 
Q 35.15625 -1.421875 24.609375 -1.421875 
Q 20.21875 -1.421875 15.453125 -0.5625 
Q 10.6875 0.296875 5.421875 2 
L 5.421875 11.28125 
Q 10.40625 8.6875 15.234375 7.390625 
Q 20.0625 6.109375 24.8125 6.109375 
Q 31.15625 6.109375 34.5625 8.28125 
Q 37.984375 10.453125 37.984375 14.40625 
Q 37.984375 18.0625 35.515625 20.015625 
Q 33.0625 21.96875 24.703125 23.78125 
L 21.578125 24.515625 
Q 13.234375 26.265625 9.515625 29.90625 
Q 5.8125 33.546875 5.8125 39.890625 
Q 5.8125 47.609375 11.28125 51.796875 
Q 16.75 56 26.8125 56 
Q 31.78125 56 36.171875 55.265625 
Q 40.578125 54.546875 44.28125 53.078125 
z
" id="DejaVuSans-115"/>
      <path d="M 56.203125 29.59375 
L 56.203125 25.203125 
L 14.890625 25.203125 
Q 15.484375 15.921875 20.484375 11.0625 
Q 25.484375 6.203125 34.421875 6.203125 
Q 39.59375 6.203125 44.453125 7.46875 
Q 49.3125 8.734375 54.109375 11.28125 
L 54.109375 2.78125 
Q 49.265625 0.734375 44.1875 -0.34375 
Q 39.109375 -1.421875 33.890625 -1.421875 
Q 20.796875 -1.421875 13.15625 6.1875 
Q 5.515625 13.8125 5.515625 26.8125 
Q 5.515625 40.234375 12.765625 48.109375 
Q 20.015625 56 32.328125 56 
Q 43.359375 56 49.78125 48.890625 
Q 56.203125 41.796875 56.203125 29.59375 
z
M 47.21875 32.234375 
Q 47.125 39.59375 43.09375 43.984375 
Q 39.0625 48.390625 32.421875 48.390625 
Q 24.90625 48.390625 20.390625 44.140625 
Q 15.875 39.890625 15.1875 32.171875 
z
" id="DejaVuSans-101"/>
     </defs>
     <g transform="translate(492.225313 59.237813)scale(0.14 -0.14)">
      <use xlink:href="#DejaVuSans-98"/>
      <use x="63.476562" xlink:href="#DejaVuSans-97"/>
      <use x="124.755859" xlink:href="#DejaVuSans-115"/>
      <use x="176.855469" xlink:href="#DejaVuSans-101"/>
     </g>
    </g>
    <g id="patch_6">
     <path d="M 453.025313 79.787188 
L 481.025313 79.787188 
L 481.025313 69.987188 
L 453.025313 69.987188 
z
" style="fill:#36a2eb;opacity:0.5;stroke:#36a2eb;stroke-linejoin:miter;"/>
    </g>
    <g id="text_2">
     <!-- subs -->
     <defs>
      <path d="M 8.5 21.578125 
L 8.5 54.6875 
L 17.484375 54.6875 
L 17.484375 21.921875 
Q 17.484375 14.15625 20.5 10.265625 
Q 23.53125 6.390625 29.59375 6.390625 
Q 36.859375 6.390625 41.078125 11.03125 
Q 45.3125 15.671875 45.3125 23.6875 
L 45.3125 54.6875 
L 54.296875 54.6875 
L 54.296875 0 
L 45.3125 0 
L 45.3125 8.40625 
Q 42.046875 3.421875 37.71875 1 
Q 33.40625 -1.421875 27.6875 -1.421875 
Q 18.265625 -1.421875 13.375 4.4375 
Q 8.5 10.296875 8.5 21.578125 
z
M 31.109375 56 
z
" id="DejaVuSans-117"/>
     </defs>
     <g transform="translate(492.225313 79.787188)scale(0.14 -0.14)">
      <use xlink:href="#DejaVuSans-115"/>
      <use x="52.099609" xlink:href="#DejaVuSans-117"/>
      <use x="115.478516" xlink:href="#DejaVuSans-98"/>
      <use x="178.955078" xlink:href="#DejaVuSans-115"/>
     </g>
    </g>
   </g>
  </g>
  <g id="axes_2">
   <g id="patch_7">
    <path d="M 36 525.24 
L 538.2 525.24 
L 538.2 402.93 
L 36 402.93 
z
" style="fill:none;"/>
   </g>
   <g id="patch_8">
    <path clip-path="url(#p1d161811a0)" d="M 172.434699 519.680455 
L 390.739165 519.680455 
L 390.739165 482.616818 
L 172.434699 482.616818 
z
" style="fill:#ff6384;opacity:0.5;"/>
   </g>
   <g id="patch_9">
    <path clip-path="url(#p1d161811a0)" d="M 228.085958 445.553182 
L 417.039672 445.553182 
L 417.039672 408.489545 
L 228.085958 408.489545 
z
" style="fill:#36a2eb;opacity:0.5;"/>
   </g>
   <g id="matplotlib.axis_1">
    <g id="xtick_1">
     <g id="line2d_3">
      <defs>
       <path d="M 0 0 
L 0 3.5 
" id="ma2bb0b7025" style="stroke:#000000;stroke-width:0.8;"/>
      </defs>
      <g>
       <use style="stroke:#000000;stroke-width:0.8;" x="47.6436" xlink:href="#ma2bb0b7025" y="525.24"/>
      </g>
     </g>
     <g id="text_3">
      <!-- 5.0 -->
      <defs>
       <path d="M 10.796875 72.90625 
L 49.515625 72.90625 
L 49.515625 64.59375 
L 19.828125 64.59375 
L 19.828125 46.734375 
Q 21.96875 47.46875 24.109375 47.828125 
Q 26.265625 48.1875 28.421875 48.1875 
Q 40.625 48.1875 47.75 41.5 
Q 54.890625 34.8125 54.890625 23.390625 
Q 54.890625 11.625 47.5625 5.09375 
Q 40.234375 -1.421875 26.90625 -1.421875 
Q 22.3125 -1.421875 17.546875 -0.640625 
Q 12.796875 0.140625 7.71875 1.703125 
L 7.71875 11.625 
Q 12.109375 9.234375 16.796875 8.0625 
Q 21.484375 6.890625 26.703125 6.890625 
Q 35.15625 6.890625 40.078125 11.328125 
Q 45.015625 15.765625 45.015625 23.390625 
Q 45.015625 31 40.078125 35.4375 
Q 35.15625 39.890625 26.703125 39.890625 
Q 22.75 39.890625 18.8125 39.015625 
Q 14.890625 38.140625 10.796875 36.28125 
z
" id="DejaVuSans-53"/>
       <path d="M 10.6875 12.40625 
L 21 12.40625 
L 21 0 
L 10.6875 0 
z
" id="DejaVuSans-46"/>
       <path d="M 31.78125 66.40625 
Q 24.171875 66.40625 20.328125 58.90625 
Q 16.5 51.421875 16.5 36.375 
Q 16.5 21.390625 20.328125 13.890625 
Q 24.171875 6.390625 31.78125 6.390625 
Q 39.453125 6.390625 43.28125 13.890625 
Q 47.125 21.390625 47.125 36.375 
Q 47.125 51.421875 43.28125 58.90625 
Q 39.453125 66.40625 31.78125 66.40625 
z
M 31.78125 74.21875 
Q 44.046875 74.21875 50.515625 64.515625 
Q 56.984375 54.828125 56.984375 36.375 
Q 56.984375 17.96875 50.515625 8.265625 
Q 44.046875 -1.421875 31.78125 -1.421875 
Q 19.53125 -1.421875 13.0625 8.265625 
Q 6.59375 17.96875 6.59375 36.375 
Q 6.59375 54.828125 13.0625 64.515625 
Q 19.53125 74.21875 31.78125 74.21875 
z
" id="DejaVuSans-48"/>
      </defs>
      <g transform="translate(36.511413 542.877813)scale(0.14 -0.14)">
       <use xlink:href="#DejaVuSans-53"/>
       <use x="63.623047" xlink:href="#DejaVuSans-46"/>
       <use x="95.410156" xlink:href="#DejaVuSans-48"/>
      </g>
     </g>
    </g>
    <g id="xtick_2">
     <g id="line2d_4">
      <g>
       <use style="stroke:#000000;stroke-width:0.8;" x="104.923687" xlink:href="#ma2bb0b7025" y="525.24"/>
      </g>
     </g>
     <g id="text_4">
      <!-- 7.5 -->
      <defs>
       <path d="M 8.203125 72.90625 
L 55.078125 72.90625 
L 55.078125 68.703125 
L 28.609375 0 
L 18.3125 0 
L 43.21875 64.59375 
L 8.203125 64.59375 
z
" id="DejaVuSans-55"/>
      </defs>
      <g transform="translate(93.7915 542.877813)scale(0.14 -0.14)">
       <use xlink:href="#DejaVuSans-55"/>
       <use x="63.623047" xlink:href="#DejaVuSans-46"/>
       <use x="95.410156" xlink:href="#DejaVuSans-53"/>
      </g>
     </g>
    </g>
    <g id="xtick_3">
     <g id="line2d_5">
      <g>
       <use style="stroke:#000000;stroke-width:0.8;" x="162.203774" xlink:href="#ma2bb0b7025" y="525.24"/>
      </g>
     </g>
     <g id="text_5">
      <!-- 10.0 -->
      <defs>
       <path d="M 12.40625 8.296875 
L 28.515625 8.296875 
L 28.515625 63.921875 
L 10.984375 60.40625 
L 10.984375 69.390625 
L 28.421875 72.90625 
L 38.28125 72.90625 
L 38.28125 8.296875 
L 54.390625 8.296875 
L 54.390625 0 
L 12.40625 0 
z
" id="DejaVuSans-49"/>
      </defs>
      <g transform="translate(146.617837 542.877813)scale(0.14 -0.14)">
       <use xlink:href="#DejaVuSans-49"/>
       <use x="63.623047" xlink:href="#DejaVuSans-48"/>
       <use x="127.246094" xlink:href="#DejaVuSans-46"/>
       <use x="159.033203" xlink:href="#DejaVuSans-48"/>
      </g>
     </g>
    </g>
    <g id="xtick_4">
     <g id="line2d_6">
      <g>
       <use style="stroke:#000000;stroke-width:0.8;" x="219.483861" xlink:href="#ma2bb0b7025" y="525.24"/>
      </g>
     </g>
     <g id="text_6">
      <!-- 12.5 -->
      <defs>
       <path d="M 19.1875 8.296875 
L 53.609375 8.296875 
L 53.609375 0 
L 7.328125 0 
L 7.328125 8.296875 
Q 12.9375 14.109375 22.625 23.890625 
Q 32.328125 33.6875 34.8125 36.53125 
Q 39.546875 41.84375 41.421875 45.53125 
Q 43.3125 49.21875 43.3125 52.78125 
Q 43.3125 58.59375 39.234375 62.25 
Q 35.15625 65.921875 28.609375 65.921875 
Q 23.96875 65.921875 18.8125 64.3125 
Q 13.671875 62.703125 7.8125 59.421875 
L 7.8125 69.390625 
Q 13.765625 71.78125 18.9375 73 
Q 24.125 74.21875 28.421875 74.21875 
Q 39.75 74.21875 46.484375 68.546875 
Q 53.21875 62.890625 53.21875 53.421875 
Q 53.21875 48.921875 51.53125 44.890625 
Q 49.859375 40.875 45.40625 35.40625 
Q 44.1875 33.984375 37.640625 27.21875 
Q 31.109375 20.453125 19.1875 8.296875 
z
" id="DejaVuSans-50"/>
      </defs>
      <g transform="translate(203.897924 542.877813)scale(0.14 -0.14)">
       <use xlink:href="#DejaVuSans-49"/>
       <use x="63.623047" xlink:href="#DejaVuSans-50"/>
       <use x="127.246094" xlink:href="#DejaVuSans-46"/>
       <use x="159.033203" xlink:href="#DejaVuSans-53"/>
      </g>
     </g>
    </g>
    <g id="xtick_5">
     <g id="line2d_7">
      <g>
       <use style="stroke:#000000;stroke-width:0.8;" x="276.763948" xlink:href="#ma2bb0b7025" y="525.24"/>
      </g>
     </g>
     <g id="text_7">
      <!-- 15.0 -->
      <g transform="translate(261.178011 542.877813)scale(0.14 -0.14)">
       <use xlink:href="#DejaVuSans-49"/>
       <use x="63.623047" xlink:href="#DejaVuSans-53"/>
       <use x="127.246094" xlink:href="#DejaVuSans-46"/>
       <use x="159.033203" xlink:href="#DejaVuSans-48"/>
      </g>
     </g>
    </g>
    <g id="xtick_6">
     <g id="line2d_8">
      <g>
       <use style="stroke:#000000;stroke-width:0.8;" x="334.044036" xlink:href="#ma2bb0b7025" y="525.24"/>
      </g>
     </g>
     <g id="text_8">
      <!-- 17.5 -->
      <g transform="translate(318.458098 542.877813)scale(0.14 -0.14)">
       <use xlink:href="#DejaVuSans-49"/>
       <use x="63.623047" xlink:href="#DejaVuSans-55"/>
       <use x="127.246094" xlink:href="#DejaVuSans-46"/>
       <use x="159.033203" xlink:href="#DejaVuSans-53"/>
      </g>
     </g>
    </g>
    <g id="xtick_7">
     <g id="line2d_9">
      <g>
       <use style="stroke:#000000;stroke-width:0.8;" x="391.324123" xlink:href="#ma2bb0b7025" y="525.24"/>
      </g>
     </g>
     <g id="text_9">
      <!-- 20.0 -->
      <g transform="translate(375.738185 542.877813)scale(0.14 -0.14)">
       <use xlink:href="#DejaVuSans-50"/>
       <use x="63.623047" xlink:href="#DejaVuSans-48"/>
       <use x="127.246094" xlink:href="#DejaVuSans-46"/>
       <use x="159.033203" xlink:href="#DejaVuSans-48"/>
      </g>
     </g>
    </g>
    <g id="xtick_8">
     <g id="line2d_10">
      <g>
       <use style="stroke:#000000;stroke-width:0.8;" x="448.60421" xlink:href="#ma2bb0b7025" y="525.24"/>
      </g>
     </g>
     <g id="text_10">
      <!-- 22.5 -->
      <g transform="translate(433.018272 542.877813)scale(0.14 -0.14)">
       <use xlink:href="#DejaVuSans-50"/>
       <use x="63.623047" xlink:href="#DejaVuSans-50"/>
       <use x="127.246094" xlink:href="#DejaVuSans-46"/>
       <use x="159.033203" xlink:href="#DejaVuSans-53"/>
      </g>
     </g>
    </g>
    <g id="xtick_9">
     <g id="line2d_11">
      <g>
       <use style="stroke:#000000;stroke-width:0.8;" x="505.884297" xlink:href="#ma2bb0b7025" y="525.24"/>
      </g>
     </g>
     <g id="text_11">
      <!-- 25.0 -->
      <g transform="translate(490.298359 542.877813)scale(0.14 -0.14)">
       <use xlink:href="#DejaVuSans-50"/>
       <use x="63.623047" xlink:href="#DejaVuSans-53"/>
       <use x="127.246094" xlink:href="#DejaVuSans-46"/>
       <use x="159.033203" xlink:href="#DejaVuSans-48"/>
      </g>
     </g>
    </g>
   </g>
   <g id="line2d_12">
    <path clip-path="url(#p1d161811a0)" d="M 281.586932 525.24 
L 281.586932 402.93 
" style="fill:none;stroke:#ff6384;stroke-dasharray:5.55,2.4;stroke-dashoffset:0;stroke-opacity:0.8;stroke-width:1.5;"/>
   </g>
   <g id="line2d_13">
    <path clip-path="url(#p1d161811a0)" d="M 322.562815 525.24 
L 322.562815 402.93 
" style="fill:none;stroke:#36a2eb;stroke-dasharray:5.55,2.4;stroke-dashoffset:0;stroke-opacity:0.8;stroke-width:1.5;"/>
   </g>
   <g id="patch_10">
    <path d="M 36 525.24 
L 538.2 525.24 
" style="fill:none;stroke:#000000;stroke-linecap:square;stroke-linejoin:miter;stroke-width:0.8;"/>
   </g>
  </g>
 </g>
 <defs>
  <clipPath id="p1a899b49ec">
   <rect height="366.93" width="502.2" x="36" y="36"/>
  </clipPath>
  <clipPath id="p1d161811a0">
   <rect height="122.31" width="502.2" x="36" y="402.93"/>
  </clipPath>
 </defs>
</svg>
