<?xml version="1.0" encoding="utf-8" standalone="no"?>
<!DOCTYPE svg PUBLIC "-//W3C//DTD SVG 1.1//EN"
  "http://www.w3.org/Graphics/SVG/1.1/DTD/svg11.dtd">
<!-- Created with matplotlib (https://matplotlib.org/) -->
<svg height="581.789375pt" version="1.1" viewBox="0 0 574.2 581.789375" width="574.2pt" xmlns="http://www.w3.org/2000/svg" xmlns:xlink="http://www.w3.org/1999/xlink">
 <defs>
  <style type="text/css">
*{stroke-linecap:butt;stroke-linejoin:round;}
  </style>
 </defs>
 <g id="figure_1">
  <g id="patch_1">
   <path d="M 0 581.789375 
L 574.2 581.789375 
L 574.2 0 
L 0 0 
z
" style="fill:none;"/>
  </g>
  <g id="axes_1">
   <g id="patch_2">
    <path d="M 36 402.93 
L 538.2 402.93 
L 538.2 36 
L 36 36 
z
" style="fill:none;"/>
   </g>
   <g id="PolyCollection_1">
    <defs>
     <path d="M 110.486739 -195.538011 
L 110.486739 -195.642422 
L 114.576496 -195.681793 
L 118.666254 -195.734722 
L 122.756011 -195.805383 
L 126.845769 -195.899062 
L 130.935526 -196.022389 
L 135.025284 -196.183613 
L 139.115041 -196.392899 
L 143.204799 -196.662663 
L 147.294556 -197.007921 
L 151.384314 -197.446666 
L 155.474071 -198.000239 
L 159.563828 -198.693693 
L 163.653586 -199.556125 
L 167.743343 -200.620955 
L 171.833101 -201.926123 
L 175.922858 -203.514169 
L 180.012616 -205.432175 
L 184.102373 -207.731515 
L 188.192131 -210.467399 
L 192.281888 -213.698168 
L 196.371646 -217.484308 
L 200.461403 -221.887185 
L 204.55116 -226.967464 
L 208.640918 -232.783247 
L 212.730675 -239.387923 
L 216.820433 -246.827785 
L 220.91019 -255.139476 
L 224.999948 -264.347315 
L 229.089705 -274.460627 
L 233.179463 -285.471173 
L 237.26922 -297.3508 
L 241.358978 -310.049453 
L 245.448735 -323.493675 
L 249.538493 -337.585717 
L 253.62825 -352.203384 
L 257.718007 -367.200692 
L 261.807765 -382.409413 
L 265.897522 -397.641531 
L 269.98728 -412.69259 
L 274.077037 -427.345886 
L 278.166795 -441.377396 
L 282.256552 -454.561302 
L 286.34631 -466.675927 
L 290.436067 -477.509872 
L 294.525825 -486.868118 
L 298.615582 -494.577847 
L 302.705339 -500.493746 
L 306.795097 -504.502555 
L 310.884854 -506.526678 
L 314.974612 -506.526678 
L 319.064369 -504.502555 
L 323.154127 -500.493746 
L 327.243884 -494.577847 
L 331.333642 -486.868118 
L 335.423399 -477.509872 
L 339.513157 -466.675927 
L 343.602914 -454.561302 
L 347.692672 -441.377396 
L 351.782429 -427.345886 
L 355.872186 -412.69259 
L 359.961944 -397.641531 
L 364.051701 -382.409413 
L 368.141459 -367.200692 
L 372.231216 -352.203384 
L 376.320974 -337.585717 
L 380.410731 -323.493675 
L 384.500489 -310.049453 
L 388.590246 -297.3508 
L 392.680004 -285.471173 
L 396.769761 -274.460627 
L 400.859518 -264.347315 
L 404.949276 -255.139476 
L 409.039033 -246.827785 
L 413.128791 -239.387923 
L 417.218548 -232.783247 
L 421.308306 -226.967464 
L 425.398063 -221.887185 
L 429.487821 -217.484308 
L 433.577578 -213.698168 
L 437.667336 -210.467399 
L 441.757093 -207.731515 
L 445.84685 -205.432175 
L 449.936608 -203.514169 
L 454.026365 -201.926123 
L 458.116123 -200.620955 
L 462.20588 -199.556125 
L 466.295638 -198.693693 
L 470.385395 -198.000239 
L 474.475153 -197.446666 
L 478.56491 -197.007921 
L 482.654668 -196.662663 
L 486.744425 -196.392899 
L 490.834183 -196.183613 
L 494.92394 -196.022389 
L 499.013697 -195.899062 
L 503.103455 -195.805383 
L 507.193212 -195.734722 
L 511.28297 -195.681793 
L 515.372727 -195.642422 
L 515.372727 -195.538011 
L 515.372727 -195.538011 
L 511.28297 -195.538011 
L 507.193212 -195.538011 
L 503.103455 -195.538011 
L 499.013697 -195.538011 
L 494.92394 -195.538011 
L 490.834183 -195.538011 
L 486.744425 -195.538011 
L 482.654668 -195.538011 
L 478.56491 -195.538011 
L 474.475153 -195.538011 
L 470.385395 -195.538011 
L 466.295638 -195.538011 
L 462.20588 -195.538011 
L 458.116123 -195.538011 
L 454.026365 -195.538011 
L 449.936608 -195.538011 
L 445.84685 -195.538011 
L 441.757093 -195.538011 
L 437.667336 -195.538011 
L 433.577578 -195.538011 
L 429.487821 -195.538011 
L 425.398063 -195.538011 
L 421.308306 -195.538011 
L 417.218548 -195.538011 
L 413.128791 -195.538011 
L 409.039033 -195.538011 
L 404.949276 -195.538011 
L 400.859518 -195.538011 
L 396.769761 -195.538011 
L 392.680004 -195.538011 
L 388.590246 -195.538011 
L 384.500489 -195.538011 
L 380.410731 -195.538011 
L 376.320974 -195.538011 
L 372.231216 -195.538011 
L 368.141459 -195.538011 
L 364.051701 -195.538011 
L 359.961944 -195.538011 
L 355.872186 -195.538011 
L 351.782429 -195.538011 
L 347.692672 -195.538011 
L 343.602914 -195.538011 
L 339.513157 -195.538011 
L 335.423399 -195.538011 
L 331.333642 -195.538011 
L 327.243884 -195.538011 
L 323.154127 -195.538011 
L 319.064369 -195.538011 
L 314.974612 -195.538011 
L 310.884854 -195.538011 
L 306.795097 -195.538011 
L 302.705339 -195.538011 
L 298.615582 -195.538011 
L 294.525825 -195.538011 
L 290.436067 -195.538011 
L 286.34631 -195.538011 
L 282.256552 -195.538011 
L 278.166795 -195.538011 
L 274.077037 -195.538011 
L 269.98728 -195.538011 
L 265.897522 -195.538011 
L 261.807765 -195.538011 
L 257.718007 -195.538011 
L 253.62825 -195.538011 
L 249.538493 -195.538011 
L 245.448735 -195.538011 
L 241.358978 -195.538011 
L 237.26922 -195.538011 
L 233.179463 -195.538011 
L 229.089705 -195.538011 
L 224.999948 -195.538011 
L 220.91019 -195.538011 
L 216.820433 -195.538011 
L 212.730675 -195.538011 
L 208.640918 -195.538011 
L 204.55116 -195.538011 
L 200.461403 -195.538011 
L 196.371646 -195.538011 
L 192.281888 -195.538011 
L 188.192131 -195.538011 
L 184.102373 -195.538011 
L 180.012616 -195.538011 
L 175.922858 -195.538011 
L 171.833101 -195.538011 
L 167.743343 -195.538011 
L 163.653586 -195.538011 
L 159.563828 -195.538011 
L 155.474071 -195.538011 
L 151.384314 -195.538011 
L 147.294556 -195.538011 
L 143.204799 -195.538011 
L 139.115041 -195.538011 
L 135.025284 -195.538011 
L 130.935526 -195.538011 
L 126.845769 -195.538011 
L 122.756011 -195.538011 
L 118.666254 -195.538011 
L 114.576496 -195.538011 
L 110.486739 -195.538011 
z
" id="m3b299f4af4" style="stroke:#ff6384;stroke-opacity:0.5;"/>
    </defs>
    <g clip-path="url(#pe8c936d1f7)">
     <use style="fill:#ff6384;fill-opacity:0.5;stroke:#ff6384;stroke-opacity:0.5;" x="0" xlink:href="#m3b299f4af4" y="581.789375"/>
    </g>
   </g>
   <g id="PolyCollection_2">
    <defs>
     <path d="M 58.827273 -195.538011 
L 58.827273 -195.650004 
L 62.640139 -195.692234 
L 66.453005 -195.749007 
L 70.265872 -195.8248 
L 74.078738 -195.925281 
L 77.891604 -196.057565 
L 81.704471 -196.230497 
L 85.517337 -196.454982 
L 89.330203 -196.744335 
L 93.14307 -197.114666 
L 96.955936 -197.585273 
L 100.768802 -198.179047 
L 104.581669 -198.922859 
L 108.394535 -199.847921 
L 112.207401 -200.990079 
L 116.020268 -202.390029 
L 119.833134 -204.093399 
L 123.646 -206.150691 
L 127.458867 -208.617009 
L 131.271733 -211.551575 
L 135.084599 -215.016962 
L 138.897466 -219.078053 
L 142.710332 -223.800667 
L 146.523198 -229.249878 
L 150.336065 -235.488004 
L 154.148931 -242.572312 
L 157.961797 -250.552459 
L 161.774664 -259.467747 
L 165.58753 -269.344261 
L 169.400396 -280.192004 
L 173.213262 -292.002137 
L 177.026129 -304.744465 
L 180.838995 -318.365297 
L 184.651861 -332.785841 
L 188.464728 -347.901251 
L 192.277594 -363.580456 
L 196.09046 -379.666871 
L 199.903327 -395.980052 
L 203.716193 -412.31833 
L 207.529059 -428.4624 
L 211.341926 -444.179822 
L 215.154792 -459.230303 
L 218.967658 -473.371627 
L 222.780525 -486.366018 
L 226.593391 -497.986726 
L 230.406257 -508.02457 
L 234.219124 -516.294181 
L 238.03199 -522.639693 
L 241.844856 -526.939623 
L 245.657723 -529.110739 
L 249.470589 -529.110739 
L 253.283455 -526.939623 
L 257.096322 -522.639693 
L 260.909188 -516.294181 
L 264.722054 -508.02457 
L 268.534921 -497.986726 
L 272.347787 -486.366018 
L 276.160653 -473.371627 
L 279.97352 -459.230303 
L 283.786386 -444.179822 
L 287.599252 -428.4624 
L 291.412119 -412.31833 
L 295.224985 -395.980052 
L 299.037851 -379.666871 
L 302.850718 -363.580456 
L 306.663584 -347.901251 
L 310.47645 -332.785841 
L 314.289317 -318.365297 
L 318.102183 -304.744465 
L 321.915049 -292.002137 
L 325.727915 -280.192004 
L 329.540782 -269.344261 
L 333.353648 -259.467747 
L 337.166514 -250.552459 
L 340.979381 -242.572312 
L 344.792247 -235.488004 
L 348.605113 -229.249878 
L 352.41798 -223.800667 
L 356.230846 -219.078053 
L 360.043712 -215.016962 
L 363.856579 -211.551575 
L 367.669445 -208.617009 
L 371.482311 -206.150691 
L 375.295178 -204.093399 
L 379.108044 -202.390029 
L 382.92091 -200.990079 
L 386.733777 -199.847921 
L 390.546643 -198.922859 
L 394.359509 -198.179047 
L 398.172376 -197.585273 
L 401.985242 -197.114666 
L 405.798108 -196.744335 
L 409.610975 -196.454982 
L 413.423841 -196.230497 
L 417.236707 -196.057565 
L 421.049574 -195.925281 
L 424.86244 -195.8248 
L 428.675306 -195.749007 
L 432.488173 -195.692234 
L 436.301039 -195.650004 
L 436.301039 -195.538011 
L 436.301039 -195.538011 
L 432.488173 -195.538011 
L 428.675306 -195.538011 
L 424.86244 -195.538011 
L 421.049574 -195.538011 
L 417.236707 -195.538011 
L 413.423841 -195.538011 
L 409.610975 -195.538011 
L 405.798108 -195.538011 
L 401.985242 -195.538011 
L 398.172376 -195.538011 
L 394.359509 -195.538011 
L 390.546643 -195.538011 
L 386.733777 -195.538011 
L 382.92091 -195.538011 
L 379.108044 -195.538011 
L 375.295178 -195.538011 
L 371.482311 -195.538011 
L 367.669445 -195.538011 
L 363.856579 -195.538011 
L 360.043712 -195.538011 
L 356.230846 -195.538011 
L 352.41798 -195.538011 
L 348.605113 -195.538011 
L 344.792247 -195.538011 
L 340.979381 -195.538011 
L 337.166514 -195.538011 
L 333.353648 -195.538011 
L 329.540782 -195.538011 
L 325.727915 -195.538011 
L 321.915049 -195.538011 
L 318.102183 -195.538011 
L 314.289317 -195.538011 
L 310.47645 -195.538011 
L 306.663584 -195.538011 
L 302.850718 -195.538011 
L 299.037851 -195.538011 
L 295.224985 -195.538011 
L 291.412119 -195.538011 
L 287.599252 -195.538011 
L 283.786386 -195.538011 
L 279.97352 -195.538011 
L 276.160653 -195.538011 
L 272.347787 -195.538011 
L 268.534921 -195.538011 
L 264.722054 -195.538011 
L 260.909188 -195.538011 
L 257.096322 -195.538011 
L 253.283455 -195.538011 
L 249.470589 -195.538011 
L 245.657723 -195.538011 
L 241.844856 -195.538011 
L 238.03199 -195.538011 
L 234.219124 -195.538011 
L 230.406257 -195.538011 
L 226.593391 -195.538011 
L 222.780525 -195.538011 
L 218.967658 -195.538011 
L 215.154792 -195.538011 
L 211.341926 -195.538011 
L 207.529059 -195.538011 
L 203.716193 -195.538011 
L 199.903327 -195.538011 
L 196.09046 -195.538011 
L 192.277594 -195.538011 
L 188.464728 -195.538011 
L 184.651861 -195.538011 
L 180.838995 -195.538011 
L 177.026129 -195.538011 
L 173.213262 -195.538011 
L 169.400396 -195.538011 
L 165.58753 -195.538011 
L 161.774664 -195.538011 
L 157.961797 -195.538011 
L 154.148931 -195.538011 
L 150.336065 -195.538011 
L 146.523198 -195.538011 
L 142.710332 -195.538011 
L 138.897466 -195.538011 
L 135.084599 -195.538011 
L 131.271733 -195.538011 
L 127.458867 -195.538011 
L 123.646 -195.538011 
L 119.833134 -195.538011 
L 116.020268 -195.538011 
L 112.207401 -195.538011 
L 108.394535 -195.538011 
L 104.581669 -195.538011 
L 100.768802 -195.538011 
L 96.955936 -195.538011 
L 93.14307 -195.538011 
L 89.330203 -195.538011 
L 85.517337 -195.538011 
L 81.704471 -195.538011 
L 77.891604 -195.538011 
L 74.078738 -195.538011 
L 70.265872 -195.538011 
L 66.453005 -195.538011 
L 62.640139 -195.538011 
L 58.827273 -195.538011 
z
" id="m48054f2ec7" style="stroke:#36a2eb;stroke-opacity:0.5;"/>
    </defs>
    <g clip-path="url(#pe8c936d1f7)">
     <use style="fill:#36a2eb;fill-opacity:0.5;stroke:#36a2eb;stroke-opacity:0.5;" x="0" xlink:href="#m48054f2ec7" y="581.789375"/>
    </g>
   </g>
   <g id="line2d_1">
    <path clip-path="url(#pe8c936d1f7)" d="M 110.486739 386.146953 
L 114.576496 386.107582 
L 118.666254 386.054653 
L 122.756011 385.983992 
L 126.845769 385.890313 
L 130.935526 385.766986 
L 135.025284 385.605762 
L 139.115041 385.396476 
L 143.204799 385.126712 
L 147.294556 384.781454 
L 151.384314 384.342709 
L 155.474071 383.789136 
L 159.563828 383.095682 
L 163.653586 382.23325 
L 167.743343 381.16842 
L 171.833101 379.863252 
L 175.922858 378.275206 
L 180.012616 376.3572 
L 184.102373 374.05786 
L 188.192131 371.321976 
L 192.281888 368.091207 
L 196.371646 364.305067 
L 200.461403 359.90219 
L 204.55116 354.821911 
L 208.640918 349.006128 
L 212.730675 342.401452 
L 216.820433 334.96159 
L 220.91019 326.649899 
L 224.999948 317.44206 
L 229.089705 307.328748 
L 233.179463 296.318202 
L 237.26922 284.438575 
L 241.358978 271.739922 
L 245.448735 258.2957 
L 249.538493 244.203658 
L 253.62825 229.585991 
L 257.718007 214.588683 
L 261.807765 199.379962 
L 265.897522 184.147844 
L 269.98728 169.096785 
L 274.077037 154.443489 
L 278.166795 140.411979 
L 282.256552 127.228073 
L 286.34631 115.113448 
L 290.436067 104.279503 
L 294.525825 94.921257 
L 298.615582 87.211528 
L 302.705339 81.295629 
L 306.795097 77.28682 
L 310.884854 75.262697 
L 314.974612 75.262697 
L 319.064369 77.28682 
L 323.154127 81.295629 
L 327.243884 87.211528 
L 331.333642 94.921257 
L 335.423399 104.279503 
L 339.513157 115.113448 
L 343.602914 127.228073 
L 347.692672 140.411979 
L 351.782429 154.443489 
L 355.872186 169.096785 
L 359.961944 184.147844 
L 364.051701 199.379962 
L 368.141459 214.588683 
L 372.231216 229.585991 
L 376.320974 244.203658 
L 380.410731 258.2957 
L 384.500489 271.739922 
L 388.590246 284.438575 
L 392.680004 296.318202 
L 396.769761 307.328748 
L 400.859518 317.44206 
L 404.949276 326.649899 
L 409.039033 334.96159 
L 413.128791 342.401452 
L 417.218548 349.006128 
L 421.308306 354.821911 
L 425.398063 359.90219 
L 429.487821 364.305067 
L 433.577578 368.091207 
L 437.667336 371.321976 
L 441.757093 374.05786 
L 445.84685 376.3572 
L 449.936608 378.275206 
L 454.026365 379.863252 
L 458.116123 381.16842 
L 462.20588 382.23325 
L 466.295638 383.095682 
L 470.385395 383.789136 
L 474.475153 384.342709 
L 478.56491 384.781454 
L 482.654668 385.126712 
L 486.744425 385.396476 
L 490.834183 385.605762 
L 494.92394 385.766986 
L 499.013697 385.890313 
L 503.103455 385.983992 
L 507.193212 386.054653 
L 511.28297 386.107582 
L 515.372727 386.146953 
" style="fill:none;stroke:#ff6384;stroke-linecap:square;"/>
   </g>
   <g id="line2d_2">
    <path clip-path="url(#pe8c936d1f7)" d="M 58.827273 386.139371 
L 62.640139 386.097141 
L 66.453005 386.040368 
L 70.265872 385.964575 
L 74.078738 385.864094 
L 77.891604 385.73181 
L 81.704471 385.558878 
L 85.517337 385.334393 
L 89.330203 385.04504 
L 93.14307 384.674709 
L 96.955936 384.204102 
L 100.768802 383.610328 
L 104.581669 382.866516 
L 108.394535 381.941454 
L 112.207401 380.799296 
L 116.020268 379.399346 
L 119.833134 377.695976 
L 123.646 375.638684 
L 127.458867 373.172366 
L 131.271733 370.2378 
L 135.084599 366.772413 
L 138.897466 362.711322 
L 142.710332 357.988708 
L 146.523198 352.539497 
L 150.336065 346.301371 
L 154.148931 339.217063 
L 157.961797 331.236916 
L 161.774664 322.321628 
L 165.58753 312.445114 
L 169.400396 301.597371 
L 173.213262 289.787238 
L 177.026129 277.04491 
L 180.838995 263.424078 
L 184.651861 249.003534 
L 188.464728 233.888124 
L 192.277594 218.208919 
L 196.09046 202.122504 
L 199.903327 185.809323 
L 203.716193 169.471045 
L 207.529059 153.326975 
L 211.341926 137.609553 
L 215.154792 122.559072 
L 218.967658 108.417748 
L 222.780525 95.423357 
L 226.593391 83.802649 
L 230.406257 73.764805 
L 234.219124 65.495194 
L 238.03199 59.149682 
L 241.844856 54.849752 
L 245.657723 52.678636 
L 249.470589 52.678636 
L 253.283455 54.849752 
L 257.096322 59.149682 
L 260.909188 65.495194 
L 264.722054 73.764805 
L 268.534921 83.802649 
L 272.347787 95.423357 
L 276.160653 108.417748 
L 279.97352 122.559072 
L 283.786386 137.609553 
L 287.599252 153.326975 
L 291.412119 169.471045 
L 295.224985 185.809323 
L 299.037851 202.122504 
L 302.850718 218.208919 
L 306.663584 233.888124 
L 310.47645 249.003534 
L 314.289317 263.424078 
L 318.102183 277.04491 
L 321.915049 289.787238 
L 325.727915 301.597371 
L 329.540782 312.445114 
L 333.353648 322.321628 
L 337.166514 331.236916 
L 340.979381 339.217063 
L 344.792247 346.301371 
L 348.605113 352.539497 
L 352.41798 357.988708 
L 356.230846 362.711322 
L 360.043712 366.772413 
L 363.856579 370.2378 
L 367.669445 373.172366 
L 371.482311 375.638684 
L 375.295178 377.695976 
L 379.108044 379.399346 
L 382.92091 380.799296 
L 386.733777 381.941454 
L 390.546643 382.866516 
L 394.359509 383.610328 
L 398.172376 384.204102 
L 401.985242 384.674709 
L 405.798108 385.04504 
L 409.610975 385.334393 
L 413.423841 385.558878 
L 417.236707 385.73181 
L 421.049574 385.864094 
L 424.86244 385.964575 
L 428.675306 386.040368 
L 432.488173 386.097141 
L 436.301039 386.139371 
" style="fill:none;stroke:#36a2eb;stroke-linecap:square;"/>
   </g>
   <g id="patch_3">
    <path d="M 36 402.93 
L 538.2 402.93 
" style="fill:none;stroke:#000000;stroke-linecap:square;stroke-linejoin:miter;stroke-width:0.8;"/>
   </g>
   <g id="legend_1">
    <g id="patch_4">
     <path d="M 450.225313 88.29875 
L 528.4 88.29875 
Q 531.2 88.29875 531.2 85.49875 
L 531.2 45.8 
Q 531.2 43 528.4 43 
L 450.225313 43 
Q 447.425313 43 447.425313 45.8 
L 447.425313 85.49875 
Q 447.425313 88.29875 450.225313 88.29875 
z
" style="fill:#ffffff;opacity:0.8;stroke:#cccccc;stroke-linejoin:miter;"/>
    </g>
    <g id="patch_5">
     <path d="M 453.025313 59.237813 
L 481.025313 59.237813 
L 481.025313 49.437813 
L 453.025313 49.437813 
z
" style="fill:#ff6384;opacity:0.5;stroke:#ff6384;stroke-linejoin:miter;"/>
    </g>
    <g id="text_1">
     <!-- base -->
     <defs>
      <path d="M 48.6875 27.296875 
Q 48.6875 37.203125 44.609375 42.84375 
Q 40.53125 48.484375 33.40625 48.484375 
Q 26.265625 48.484375 22.1875 42.84375 
Q 18.109375 37.203125 18.109375 27.296875 
Q 18.109375 17.390625 22.1875 11.75 
Q 26.265625 6.109375 33.40625 6.109375 
Q 40.53125 6.109375 44.609375 11.75 
Q 48.6875 17.390625 48.6875 27.296875 
z
M 18.109375 46.390625 
Q 20.953125 51.265625 25.265625 53.625 
Q 29.59375 56 35.59375 56 
Q 45.5625 56 51.78125 48.09375 
Q 58.015625 40.1875 58.015625 27.296875 
Q 58.015625 14.40625 51.78125 6.484375 
Q 45.5625 -1.421875 35.59375 -1.421875 
Q 29.59375 -1.421875 25.265625 0.953125 
Q 20.953125 3.328125 18.109375 8.203125 
L 18.109375 0 
L 9.078125 0 
L 9.078125 75.984375 
L 18.109375 75.984375 
z
" id="DejaVuSans-98"/>
      <path d="M 34.28125 27.484375 
Q 23.390625 27.484375 19.1875 25 
Q 14.984375 22.515625 14.984375 16.5 
Q 14.984375 11.71875 18.140625 8.90625 
Q 21.296875 6.109375 26.703125 6.109375 
Q 34.1875 6.109375 38.703125 11.40625 
Q 43.21875 16.703125 43.21875 25.484375 
L 43.21875 27.484375 
z
M 52.203125 31.203125 
L 52.203125 0 
L 43.21875 0 
L 43.21875 8.296875 
Q 40.140625 3.328125 35.546875 0.953125 
Q 30.953125 -1.421875 24.3125 -1.421875 
Q 15.921875 -1.421875 10.953125 3.296875 
Q 6 8.015625 6 15.921875 
Q 6 25.140625 12.171875 29.828125 
Q 18.359375 34.515625 30.609375 34.515625 
L 43.21875 34.515625 
L 43.21875 35.40625 
Q 43.21875 41.609375 39.140625 45 
Q 35.0625 48.390625 27.6875 48.390625 
Q 23 48.390625 18.546875 47.265625 
Q 14.109375 46.140625 10.015625 43.890625 
L 10.015625 52.203125 
Q 14.9375 54.109375 19.578125 55.046875 
Q 24.21875 56 28.609375 56 
Q 40.484375 56 46.34375 49.84375 
Q 52.203125 43.703125 52.203125 31.203125 
z
" id="DejaVuSans-97"/>
      <path d="M 44.28125 53.078125 
L 44.28125 44.578125 
Q 40.484375 46.53125 36.375 47.5 
Q 32.28125 48.484375 27.875 48.484375 
Q 21.1875 48.484375 17.84375 46.4375 
Q 14.5 44.390625 14.5 40.28125 
Q 14.5 37.15625 16.890625 35.375 
Q 19.28125 33.59375 26.515625 31.984375 
L 29.59375 31.296875 
Q 39.15625 29.25 43.1875 25.515625 
Q 47.21875 21.78125 47.21875 15.09375 
Q 47.21875 7.46875 41.1875 3.015625 
Q 35.15625 -1.421875 24.609375 -1.421875 
Q 20.21875 -1.421875 15.453125 -0.5625 
Q 10.6875 0.296875 5.421875 2 
L 5.421875 11.28125 
Q 10.40625 8.6875 15.234375 7.390625 
Q 20.0625 6.109375 24.8125 6.109375 
Q 31.15625 6.109375 34.5625 8.28125 
Q 37.984375 10.453125 37.984375 14.40625 
Q 37.984375 18.0625 35.515625 20.015625 
Q 33.0625 21.96875 24.703125 23.78125 
L 21.578125 24.515625 
Q 13.234375 26.265625 9.515625 29.90625 
Q 5.8125 33.546875 5.8125 39.890625 
Q 5.8125 47.609375 11.28125 51.796875 
Q 16.75 56 26.8125 56 
Q 31.78125 56 36.171875 55.265625 
Q 40.578125 54.546875 44.28125 53.078125 
z
" id="DejaVuSans-115"/>
      <path d="M 56.203125 29.59375 
L 56.203125 25.203125 
L 14.890625 25.203125 
Q 15.484375 15.921875 20.484375 11.0625 
Q 25.484375 6.203125 34.421875 6.203125 
Q 39.59375 6.203125 44.453125 7.46875 
Q 49.3125 8.734375 54.109375 11.28125 
L 54.109375 2.78125 
Q 49.265625 0.734375 44.1875 -0.34375 
Q 39.109375 -1.421875 33.890625 -1.421875 
Q 20.796875 -1.421875 13.15625 6.1875 
Q 5.515625 13.8125 5.515625 26.8125 
Q 5.515625 40.234375 12.765625 48.109375 
Q 20.015625 56 32.328125 56 
Q 43.359375 56 49.78125 48.890625 
Q 56.203125 41.796875 56.203125 29.59375 
z
M 47.21875 32.234375 
Q 47.125 39.59375 43.09375 43.984375 
Q 39.0625 48.390625 32.421875 48.390625 
Q 24.90625 48.390625 20.390625 44.140625 
Q 15.875 39.890625 15.1875 32.171875 
z
" id="DejaVuSans-101"/>
     </defs>
     <g transform="translate(492.225313 59.237813)scale(0.14 -0.14)">
      <use xlink:href="#DejaVuSans-98"/>
      <use x="63.476562" xlink:href="#DejaVuSans-97"/>
      <use x="124.755859" xlink:href="#DejaVuSans-115"/>
      <use x="176.855469" xlink:href="#DejaVuSans-101"/>
     </g>
    </g>
    <g id="patch_6">
     <path d="M 453.025313 79.787188 
L 481.025313 79.787188 
L 481.025313 69.987188 
L 453.025313 69.987188 
z
" style="fill:#36a2eb;opacity:0.5;stroke:#36a2eb;stroke-linejoin:miter;"/>
    </g>
    <g id="text_2">
     <!-- subs -->
     <defs>
      <path d="M 8.5 21.578125 
L 8.5 54.6875 
L 17.484375 54.6875 
L 17.484375 21.921875 
Q 17.484375 14.15625 20.5 10.265625 
Q 23.53125 6.390625 29.59375 6.390625 
Q 36.859375 6.390625 41.078125 11.03125 
Q 45.3125 15.671875 45.3125 23.6875 
L 45.3125 54.6875 
L 54.296875 54.6875 
L 54.296875 0 
L 45.3125 0 
L 45.3125 8.40625 
Q 42.046875 3.421875 37.71875 1 
Q 33.40625 -1.421875 27.6875 -1.421875 
Q 18.265625 -1.421875 13.375 4.4375 
Q 8.5 10.296875 8.5 21.578125 
z
M 31.109375 56 
z
" id="DejaVuSans-117"/>
     </defs>
     <g transform="translate(492.225313 79.787188)scale(0.14 -0.14)">
      <use xlink:href="#DejaVuSans-115"/>
      <use x="52.099609" xlink:href="#DejaVuSans-117"/>
      <use x="115.478516" xlink:href="#DejaVuSans-98"/>
      <use x="178.955078" xlink:href="#DejaVuSans-115"/>
     </g>
    </g>
   </g>
  </g>
  <g id="axes_2">
   <g id="patch_7">
    <path d="M 36 525.24 
L 538.2 525.24 
L 538.2 402.93 
L 36 402.93 
z
" style="fill:none;"/>
   </g>
   <g id="patch_8">
    <path clip-path="url(#p63325faf58)" d="M 213.732666 519.680455 
L 412.1268 519.680455 
L 412.1268 482.616818 
L 213.732666 482.616818 
z
" style="fill:#ff6384;opacity:0.5;"/>
   </g>
   <g id="patch_9">
    <path clip-path="url(#p63325faf58)" d="M 155.083083 445.553182 
L 340.045229 445.553182 
L 340.045229 408.489545 
L 155.083083 408.489545 
z
" style="fill:#36a2eb;opacity:0.5;"/>
   </g>
   <g id="matplotlib.axis_1">
    <g id="xtick_1">
     <g id="line2d_3">
      <defs>
       <path d="M 0 0 
L 0 3.5 
" id="m9b9a0c7ad7" style="stroke:#000000;stroke-width:0.8;"/>
      </defs>
      <g>
       <use style="stroke:#000000;stroke-width:0.8;" x="116.026019" xlink:href="#m9b9a0c7ad7" y="525.24"/>
      </g>
     </g>
     <g id="text_3">
      <!-- 3 -->
      <defs>
       <path d="M 40.578125 39.3125 
Q 47.65625 37.796875 51.625 33 
Q 55.609375 28.21875 55.609375 21.1875 
Q 55.609375 10.40625 48.1875 4.484375 
Q 40.765625 -1.421875 27.09375 -1.421875 
Q 22.515625 -1.421875 17.65625 -0.515625 
Q 12.796875 0.390625 7.625 2.203125 
L 7.625 11.71875 
Q 11.71875 9.328125 16.59375 8.109375 
Q 21.484375 6.890625 26.8125 6.890625 
Q 36.078125 6.890625 40.9375 10.546875 
Q 45.796875 14.203125 45.796875 21.1875 
Q 45.796875 27.640625 41.28125 31.265625 
Q 36.765625 34.90625 28.71875 34.90625 
L 20.21875 34.90625 
L 20.21875 43.015625 
L 29.109375 43.015625 
Q 36.375 43.015625 40.234375 45.921875 
Q 44.09375 48.828125 44.09375 54.296875 
Q 44.09375 59.90625 40.109375 62.90625 
Q 36.140625 65.921875 28.71875 65.921875 
Q 24.65625 65.921875 20.015625 65.03125 
Q 15.375 64.15625 9.8125 62.3125 
L 9.8125 71.09375 
Q 15.4375 72.65625 20.34375 73.4375 
Q 25.25 74.21875 29.59375 74.21875 
Q 40.828125 74.21875 47.359375 69.109375 
Q 53.90625 64.015625 53.90625 55.328125 
Q 53.90625 49.265625 50.4375 45.09375 
Q 46.96875 40.921875 40.578125 39.3125 
z
" id="DejaVuSans-51"/>
      </defs>
      <g transform="translate(111.572269 542.877813)scale(0.14 -0.14)">
       <use xlink:href="#DejaVuSans-51"/>
      </g>
     </g>
    </g>
    <g id="xtick_2">
     <g id="line2d_4">
      <g>
       <use style="stroke:#000000;stroke-width:0.8;" x="196.724262" xlink:href="#m9b9a0c7ad7" y="525.24"/>
      </g>
     </g>
     <g id="text_4">
      <!-- 4 -->
      <defs>
       <path d="M 37.796875 64.3125 
L 12.890625 25.390625 
L 37.796875 25.390625 
z
M 35.203125 72.90625 
L 47.609375 72.90625 
L 47.609375 25.390625 
L 58.015625 25.390625 
L 58.015625 17.1875 
L 47.609375 17.1875 
L 47.609375 0 
L 37.796875 0 
L 37.796875 17.1875 
L 4.890625 17.1875 
L 4.890625 26.703125 
z
" id="DejaVuSans-52"/>
      </defs>
      <g transform="translate(192.270512 542.877813)scale(0.14 -0.14)">
       <use xlink:href="#DejaVuSans-52"/>
      </g>
     </g>
    </g>
    <g id="xtick_3">
     <g id="line2d_5">
      <g>
       <use style="stroke:#000000;stroke-width:0.8;" x="277.422506" xlink:href="#m9b9a0c7ad7" y="525.24"/>
      </g>
     </g>
     <g id="text_5">
      <!-- 5 -->
      <defs>
       <path d="M 10.796875 72.90625 
L 49.515625 72.90625 
L 49.515625 64.59375 
L 19.828125 64.59375 
L 19.828125 46.734375 
Q 21.96875 47.46875 24.109375 47.828125 
Q 26.265625 48.1875 28.421875 48.1875 
Q 40.625 48.1875 47.75 41.5 
Q 54.890625 34.8125 54.890625 23.390625 
Q 54.890625 11.625 47.5625 5.09375 
Q 40.234375 -1.421875 26.90625 -1.421875 
Q 22.3125 -1.421875 17.546875 -0.640625 
Q 12.796875 0.140625 7.71875 1.703125 
L 7.71875 11.625 
Q 12.109375 9.234375 16.796875 8.0625 
Q 21.484375 6.890625 26.703125 6.890625 
Q 35.15625 6.890625 40.078125 11.328125 
Q 45.015625 15.765625 45.015625 23.390625 
Q 45.015625 31 40.078125 35.4375 
Q 35.15625 39.890625 26.703125 39.890625 
Q 22.75 39.890625 18.8125 39.015625 
Q 14.890625 38.140625 10.796875 36.28125 
z
" id="DejaVuSans-53"/>
      </defs>
      <g transform="translate(272.968756 542.877813)scale(0.14 -0.14)">
       <use xlink:href="#DejaVuSans-53"/>
      </g>
     </g>
    </g>
    <g id="xtick_4">
     <g id="line2d_6">
      <g>
       <use style="stroke:#000000;stroke-width:0.8;" x="358.12075" xlink:href="#m9b9a0c7ad7" y="525.24"/>
      </g>
     </g>
     <g id="text_6">
      <!-- 6 -->
      <defs>
       <path d="M 33.015625 40.375 
Q 26.375 40.375 22.484375 35.828125 
Q 18.609375 31.296875 18.609375 23.390625 
Q 18.609375 15.53125 22.484375 10.953125 
Q 26.375 6.390625 33.015625 6.390625 
Q 39.65625 6.390625 43.53125 10.953125 
Q 47.40625 15.53125 47.40625 23.390625 
Q 47.40625 31.296875 43.53125 35.828125 
Q 39.65625 40.375 33.015625 40.375 
z
M 52.59375 71.296875 
L 52.59375 62.3125 
Q 48.875 64.0625 45.09375 64.984375 
Q 41.3125 65.921875 37.59375 65.921875 
Q 27.828125 65.921875 22.671875 59.328125 
Q 17.53125 52.734375 16.796875 39.40625 
Q 19.671875 43.65625 24.015625 45.921875 
Q 28.375 48.1875 33.59375 48.1875 
Q 44.578125 48.1875 50.953125 41.515625 
Q 57.328125 34.859375 57.328125 23.390625 
Q 57.328125 12.15625 50.6875 5.359375 
Q 44.046875 -1.421875 33.015625 -1.421875 
Q 20.359375 -1.421875 13.671875 8.265625 
Q 6.984375 17.96875 6.984375 36.375 
Q 6.984375 53.65625 15.1875 63.9375 
Q 23.390625 74.21875 37.203125 74.21875 
Q 40.921875 74.21875 44.703125 73.484375 
Q 48.484375 72.75 52.59375 71.296875 
z
" id="DejaVuSans-54"/>
      </defs>
      <g transform="translate(353.667 542.877813)scale(0.14 -0.14)">
       <use xlink:href="#DejaVuSans-54"/>
      </g>
     </g>
    </g>
    <g id="xtick_5">
     <g id="line2d_7">
      <g>
       <use style="stroke:#000000;stroke-width:0.8;" x="438.818993" xlink:href="#m9b9a0c7ad7" y="525.24"/>
      </g>
     </g>
     <g id="text_7">
      <!-- 7 -->
      <defs>
       <path d="M 8.203125 72.90625 
L 55.078125 72.90625 
L 55.078125 68.703125 
L 28.609375 0 
L 18.3125 0 
L 43.21875 64.59375 
L 8.203125 64.59375 
z
" id="DejaVuSans-55"/>
      </defs>
      <g transform="translate(434.365243 542.877813)scale(0.14 -0.14)">
       <use xlink:href="#DejaVuSans-55"/>
      </g>
     </g>
    </g>
    <g id="xtick_6">
     <g id="line2d_8">
      <g>
       <use style="stroke:#000000;stroke-width:0.8;" x="519.517237" xlink:href="#m9b9a0c7ad7" y="525.24"/>
      </g>
     </g>
     <g id="text_8">
      <!-- 8 -->
      <defs>
       <path d="M 31.78125 34.625 
Q 24.75 34.625 20.71875 30.859375 
Q 16.703125 27.09375 16.703125 20.515625 
Q 16.703125 13.921875 20.71875 10.15625 
Q 24.75 6.390625 31.78125 6.390625 
Q 38.8125 6.390625 42.859375 10.171875 
Q 46.921875 13.96875 46.921875 20.515625 
Q 46.921875 27.09375 42.890625 30.859375 
Q 38.875 34.625 31.78125 34.625 
z
M 21.921875 38.8125 
Q 15.578125 40.375 12.03125 44.71875 
Q 8.5 49.078125 8.5 55.328125 
Q 8.5 64.0625 14.71875 69.140625 
Q 20.953125 74.21875 31.78125 74.21875 
Q 42.671875 74.21875 48.875 69.140625 
Q 55.078125 64.0625 55.078125 55.328125 
Q 55.078125 49.078125 51.53125 44.71875 
Q 48 40.375 41.703125 38.8125 
Q 48.828125 37.15625 52.796875 32.3125 
Q 56.78125 27.484375 56.78125 20.515625 
Q 56.78125 9.90625 50.3125 4.234375 
Q 43.84375 -1.421875 31.78125 -1.421875 
Q 19.734375 -1.421875 13.25 4.234375 
Q 6.78125 9.90625 6.78125 20.515625 
Q 6.78125 27.484375 10.78125 32.3125 
Q 14.796875 37.15625 21.921875 38.8125 
z
M 18.3125 54.390625 
Q 18.3125 48.734375 21.84375 45.5625 
Q 25.390625 42.390625 31.78125 42.390625 
Q 38.140625 42.390625 41.71875 45.5625 
Q 45.3125 48.734375 45.3125 54.390625 
Q 45.3125 60.0625 41.71875 63.234375 
Q 38.140625 66.40625 31.78125 66.40625 
Q 25.390625 66.40625 21.84375 63.234375 
Q 18.3125 60.0625 18.3125 54.390625 
z
" id="DejaVuSans-56"/>
      </defs>
      <g transform="translate(515.063487 542.877813)scale(0.14 -0.14)">
       <use xlink:href="#DejaVuSans-56"/>
      </g>
     </g>
    </g>
   </g>
   <g id="line2d_9">
    <path clip-path="url(#p63325faf58)" d="M 312.929733 525.24 
L 312.929733 402.93 
" style="fill:none;stroke:#ff6384;stroke-dasharray:5.55,2.4;stroke-dashoffset:0;stroke-opacity:0.8;stroke-width:1.5;"/>
   </g>
   <g id="line2d_10">
    <path clip-path="url(#p63325faf58)" d="M 247.564156 525.24 
L 247.564156 402.93 
" style="fill:none;stroke:#36a2eb;stroke-dasharray:5.55,2.4;stroke-dashoffset:0;stroke-opacity:0.8;stroke-width:1.5;"/>
   </g>
   <g id="patch_10">
    <path d="M 36 525.24 
L 538.2 525.24 
" style="fill:none;stroke:#000000;stroke-linecap:square;stroke-linejoin:miter;stroke-width:0.8;"/>
   </g>
  </g>
 </g>
 <defs>
  <clipPath id="pe8c936d1f7">
   <rect height="366.93" width="502.2" x="36" y="36"/>
  </clipPath>
  <clipPath id="p63325faf58">
   <rect height="122.31" width="502.2" x="36" y="402.93"/>
  </clipPath>
 </defs>
</svg>
