<?xml version="1.0" encoding="utf-8" standalone="no"?>
<!DOCTYPE svg PUBLIC "-//W3C//DTD SVG 1.1//EN"
  "http://www.w3.org/Graphics/SVG/1.1/DTD/svg11.dtd">
<!-- Created with matplotlib (https://matplotlib.org/) -->
<svg height="581.789375pt" version="1.1" viewBox="0 0 574.2 581.789375" width="574.2pt" xmlns="http://www.w3.org/2000/svg" xmlns:xlink="http://www.w3.org/1999/xlink">
 <defs>
  <style type="text/css">
*{stroke-linecap:butt;stroke-linejoin:round;}
  </style>
 </defs>
 <g id="figure_1">
  <g id="patch_1">
   <path d="M 0 581.789375 
L 574.2 581.789375 
L 574.2 0 
L 0 0 
z
" style="fill:none;"/>
  </g>
  <g id="axes_1">
   <g id="patch_2">
    <path d="M 36 402.93 
L 538.2 402.93 
L 538.2 36 
L 36 36 
z
" style="fill:none;"/>
   </g>
   <g id="PolyCollection_1">
    <defs>
     <path d="M 58.827273 -195.538011 
L 58.827273 -195.646503 
L 62.982329 -195.687413 
L 67.137384 -195.742411 
L 71.29244 -195.815835 
L 75.447496 -195.913175 
L 79.602552 -196.041324 
L 83.757608 -196.20885 
L 87.912664 -196.426318 
L 92.067719 -196.706626 
L 96.222775 -197.06538 
L 100.377831 -197.521276 
L 104.532887 -198.096489 
L 108.687943 -198.81705 
L 112.842999 -199.713195 
L 116.998054 -200.81965 
L 121.15311 -202.175838 
L 125.308166 -203.825962 
L 129.463222 -205.818943 
L 133.618278 -208.208166 
L 137.773334 -211.050998 
L 141.92839 -214.408059 
L 146.083445 -218.342202 
L 150.238501 -222.917189 
L 154.393557 -228.19606 
L 158.548613 -234.239185 
L 162.703669 -241.102041 
L 166.858725 -248.832732 
L 171.01378 -257.469331 
L 175.168836 -267.03711 
L 179.323892 -277.545757 
L 183.478948 -288.986711 
L 187.634004 -301.330719 
L 191.78906 -314.52577 
L 195.944115 -328.495535 
L 200.099171 -343.138443 
L 204.254227 -358.327523 
L 208.409283 -373.911084 
L 212.564339 -389.714322 
L 216.719395 -405.541873 
L 220.87445 -421.181286 
L 225.029506 -436.407388 
L 229.184562 -450.987398 
L 233.339618 -464.68667 
L 237.494674 -477.274863 
L 241.64973 -488.532313 
L 245.804785 -498.256378 
L 249.959841 -506.267485 
L 254.114897 -512.414639 
L 258.269953 -516.580155 
L 262.425009 -518.683402 
L 266.580065 -518.683402 
L 270.735121 -516.580155 
L 274.890176 -512.414639 
L 279.045232 -506.267485 
L 283.200288 -498.256378 
L 287.355344 -488.532313 
L 291.5104 -477.274863 
L 295.665456 -464.68667 
L 299.820511 -450.987398 
L 303.975567 -436.407388 
L 308.130623 -421.181286 
L 312.285679 -405.541873 
L 316.440735 -389.714322 
L 320.595791 -373.911084 
L 324.750846 -358.327523 
L 328.905902 -343.138443 
L 333.060958 -328.495535 
L 337.216014 -314.52577 
L 341.37107 -301.330719 
L 345.526126 -288.986711 
L 349.681181 -277.545757 
L 353.836237 -267.03711 
L 357.991293 -257.469331 
L 362.146349 -248.832732 
L 366.301405 -241.102041 
L 370.456461 -234.239185 
L 374.611516 -228.19606 
L 378.766572 -222.917189 
L 382.921628 -218.342202 
L 387.076684 -214.408059 
L 391.23174 -211.050998 
L 395.386796 -208.208166 
L 399.541852 -205.818943 
L 403.696907 -203.825962 
L 407.851963 -202.175838 
L 412.007019 -200.81965 
L 416.162075 -199.713195 
L 420.317131 -198.81705 
L 424.472187 -198.096489 
L 428.627242 -197.521276 
L 432.782298 -197.06538 
L 436.937354 -196.706626 
L 441.09241 -196.426318 
L 445.247466 -196.20885 
L 449.402522 -196.041324 
L 453.557577 -195.913175 
L 457.712633 -195.815835 
L 461.867689 -195.742411 
L 466.022745 -195.687413 
L 470.177801 -195.646503 
L 470.177801 -195.538011 
L 470.177801 -195.538011 
L 466.022745 -195.538011 
L 461.867689 -195.538011 
L 457.712633 -195.538011 
L 453.557577 -195.538011 
L 449.402522 -195.538011 
L 445.247466 -195.538011 
L 441.09241 -195.538011 
L 436.937354 -195.538011 
L 432.782298 -195.538011 
L 428.627242 -195.538011 
L 424.472187 -195.538011 
L 420.317131 -195.538011 
L 416.162075 -195.538011 
L 412.007019 -195.538011 
L 407.851963 -195.538011 
L 403.696907 -195.538011 
L 399.541852 -195.538011 
L 395.386796 -195.538011 
L 391.23174 -195.538011 
L 387.076684 -195.538011 
L 382.921628 -195.538011 
L 378.766572 -195.538011 
L 374.611516 -195.538011 
L 370.456461 -195.538011 
L 366.301405 -195.538011 
L 362.146349 -195.538011 
L 357.991293 -195.538011 
L 353.836237 -195.538011 
L 349.681181 -195.538011 
L 345.526126 -195.538011 
L 341.37107 -195.538011 
L 337.216014 -195.538011 
L 333.060958 -195.538011 
L 328.905902 -195.538011 
L 324.750846 -195.538011 
L 320.595791 -195.538011 
L 316.440735 -195.538011 
L 312.285679 -195.538011 
L 308.130623 -195.538011 
L 303.975567 -195.538011 
L 299.820511 -195.538011 
L 295.665456 -195.538011 
L 291.5104 -195.538011 
L 287.355344 -195.538011 
L 283.200288 -195.538011 
L 279.045232 -195.538011 
L 274.890176 -195.538011 
L 270.735121 -195.538011 
L 266.580065 -195.538011 
L 262.425009 -195.538011 
L 258.269953 -195.538011 
L 254.114897 -195.538011 
L 249.959841 -195.538011 
L 245.804785 -195.538011 
L 241.64973 -195.538011 
L 237.494674 -195.538011 
L 233.339618 -195.538011 
L 229.184562 -195.538011 
L 225.029506 -195.538011 
L 220.87445 -195.538011 
L 216.719395 -195.538011 
L 212.564339 -195.538011 
L 208.409283 -195.538011 
L 204.254227 -195.538011 
L 200.099171 -195.538011 
L 195.944115 -195.538011 
L 191.78906 -195.538011 
L 187.634004 -195.538011 
L 183.478948 -195.538011 
L 179.323892 -195.538011 
L 175.168836 -195.538011 
L 171.01378 -195.538011 
L 166.858725 -195.538011 
L 162.703669 -195.538011 
L 158.548613 -195.538011 
L 154.393557 -195.538011 
L 150.238501 -195.538011 
L 146.083445 -195.538011 
L 141.92839 -195.538011 
L 137.773334 -195.538011 
L 133.618278 -195.538011 
L 129.463222 -195.538011 
L 125.308166 -195.538011 
L 121.15311 -195.538011 
L 116.998054 -195.538011 
L 112.842999 -195.538011 
L 108.687943 -195.538011 
L 104.532887 -195.538011 
L 100.377831 -195.538011 
L 96.222775 -195.538011 
L 92.067719 -195.538011 
L 87.912664 -195.538011 
L 83.757608 -195.538011 
L 79.602552 -195.538011 
L 75.447496 -195.538011 
L 71.29244 -195.538011 
L 67.137384 -195.538011 
L 62.982329 -195.538011 
L 58.827273 -195.538011 
z
" id="mce85ed8ee5" style="stroke:#ff6384;stroke-opacity:0.5;"/>
    </defs>
    <g clip-path="url(#pc32e40d68a)">
     <use style="fill:#ff6384;fill-opacity:0.5;stroke:#ff6384;stroke-opacity:0.5;" x="0" xlink:href="#mce85ed8ee5" y="581.789375"/>
    </g>
   </g>
   <g id="PolyCollection_2">
    <defs>
     <path d="M 116.880835 -195.538011 
L 116.880835 -195.650004 
L 120.906006 -195.692234 
L 124.931177 -195.749007 
L 128.956347 -195.8248 
L 132.981518 -195.925281 
L 137.006688 -196.057565 
L 141.031859 -196.230497 
L 145.05703 -196.454982 
L 149.0822 -196.744335 
L 153.107371 -197.114666 
L 157.132542 -197.585273 
L 161.157712 -198.179047 
L 165.182883 -198.922859 
L 169.208054 -199.847921 
L 173.233224 -200.990079 
L 177.258395 -202.390029 
L 181.283565 -204.093399 
L 185.308736 -206.150691 
L 189.333907 -208.617009 
L 193.359077 -211.551575 
L 197.384248 -215.016962 
L 201.409419 -219.078053 
L 205.434589 -223.800667 
L 209.45976 -229.249878 
L 213.48493 -235.488004 
L 217.510101 -242.572312 
L 221.535272 -250.552459 
L 225.560442 -259.467747 
L 229.585613 -269.344261 
L 233.610784 -280.192004 
L 237.635954 -292.002137 
L 241.661125 -304.744465 
L 245.686295 -318.365297 
L 249.711466 -332.785841 
L 253.736637 -347.901251 
L 257.761807 -363.580456 
L 261.786978 -379.666871 
L 265.812149 -395.980052 
L 269.837319 -412.31833 
L 273.86249 -428.4624 
L 277.88766 -444.179822 
L 281.912831 -459.230303 
L 285.938002 -473.371627 
L 289.963172 -486.366018 
L 293.988343 -497.986726 
L 298.013514 -508.02457 
L 302.038684 -516.294181 
L 306.063855 -522.639693 
L 310.089025 -526.939623 
L 314.114196 -529.110739 
L 318.139367 -529.110739 
L 322.164537 -526.939623 
L 326.189708 -522.639693 
L 330.214879 -516.294181 
L 334.240049 -508.02457 
L 338.26522 -497.986726 
L 342.29039 -486.366018 
L 346.315561 -473.371627 
L 350.340732 -459.230303 
L 354.365902 -444.179822 
L 358.391073 -428.4624 
L 362.416244 -412.31833 
L 366.441414 -395.980052 
L 370.466585 -379.666871 
L 374.491755 -363.580456 
L 378.516926 -347.901251 
L 382.542097 -332.785841 
L 386.567267 -318.365297 
L 390.592438 -304.744465 
L 394.617609 -292.002137 
L 398.642779 -280.192004 
L 402.66795 -269.344261 
L 406.69312 -259.467747 
L 410.718291 -250.552459 
L 414.743462 -242.572312 
L 418.768632 -235.488004 
L 422.793803 -229.249878 
L 426.818974 -223.800667 
L 430.844144 -219.078053 
L 434.869315 -215.016962 
L 438.894485 -211.551575 
L 442.919656 -208.617009 
L 446.944827 -206.150691 
L 450.969997 -204.093399 
L 454.995168 -202.390029 
L 459.020339 -200.990079 
L 463.045509 -199.847921 
L 467.07068 -198.922859 
L 471.09585 -198.179047 
L 475.121021 -197.585273 
L 479.146192 -197.114666 
L 483.171362 -196.744335 
L 487.196533 -196.454982 
L 491.221704 -196.230497 
L 495.246874 -196.057565 
L 499.272045 -195.925281 
L 503.297215 -195.8248 
L 507.322386 -195.749007 
L 511.347557 -195.692234 
L 515.372727 -195.650004 
L 515.372727 -195.538011 
L 515.372727 -195.538011 
L 511.347557 -195.538011 
L 507.322386 -195.538011 
L 503.297215 -195.538011 
L 499.272045 -195.538011 
L 495.246874 -195.538011 
L 491.221704 -195.538011 
L 487.196533 -195.538011 
L 483.171362 -195.538011 
L 479.146192 -195.538011 
L 475.121021 -195.538011 
L 471.09585 -195.538011 
L 467.07068 -195.538011 
L 463.045509 -195.538011 
L 459.020339 -195.538011 
L 454.995168 -195.538011 
L 450.969997 -195.538011 
L 446.944827 -195.538011 
L 442.919656 -195.538011 
L 438.894485 -195.538011 
L 434.869315 -195.538011 
L 430.844144 -195.538011 
L 426.818974 -195.538011 
L 422.793803 -195.538011 
L 418.768632 -195.538011 
L 414.743462 -195.538011 
L 410.718291 -195.538011 
L 406.69312 -195.538011 
L 402.66795 -195.538011 
L 398.642779 -195.538011 
L 394.617609 -195.538011 
L 390.592438 -195.538011 
L 386.567267 -195.538011 
L 382.542097 -195.538011 
L 378.516926 -195.538011 
L 374.491755 -195.538011 
L 370.466585 -195.538011 
L 366.441414 -195.538011 
L 362.416244 -195.538011 
L 358.391073 -195.538011 
L 354.365902 -195.538011 
L 350.340732 -195.538011 
L 346.315561 -195.538011 
L 342.29039 -195.538011 
L 338.26522 -195.538011 
L 334.240049 -195.538011 
L 330.214879 -195.538011 
L 326.189708 -195.538011 
L 322.164537 -195.538011 
L 318.139367 -195.538011 
L 314.114196 -195.538011 
L 310.089025 -195.538011 
L 306.063855 -195.538011 
L 302.038684 -195.538011 
L 298.013514 -195.538011 
L 293.988343 -195.538011 
L 289.963172 -195.538011 
L 285.938002 -195.538011 
L 281.912831 -195.538011 
L 277.88766 -195.538011 
L 273.86249 -195.538011 
L 269.837319 -195.538011 
L 265.812149 -195.538011 
L 261.786978 -195.538011 
L 257.761807 -195.538011 
L 253.736637 -195.538011 
L 249.711466 -195.538011 
L 245.686295 -195.538011 
L 241.661125 -195.538011 
L 237.635954 -195.538011 
L 233.610784 -195.538011 
L 229.585613 -195.538011 
L 225.560442 -195.538011 
L 221.535272 -195.538011 
L 217.510101 -195.538011 
L 213.48493 -195.538011 
L 209.45976 -195.538011 
L 205.434589 -195.538011 
L 201.409419 -195.538011 
L 197.384248 -195.538011 
L 193.359077 -195.538011 
L 189.333907 -195.538011 
L 185.308736 -195.538011 
L 181.283565 -195.538011 
L 177.258395 -195.538011 
L 173.233224 -195.538011 
L 169.208054 -195.538011 
L 165.182883 -195.538011 
L 161.157712 -195.538011 
L 157.132542 -195.538011 
L 153.107371 -195.538011 
L 149.0822 -195.538011 
L 145.05703 -195.538011 
L 141.031859 -195.538011 
L 137.006688 -195.538011 
L 132.981518 -195.538011 
L 128.956347 -195.538011 
L 124.931177 -195.538011 
L 120.906006 -195.538011 
L 116.880835 -195.538011 
z
" id="m811ca4ff15" style="stroke:#36a2eb;stroke-opacity:0.5;"/>
    </defs>
    <g clip-path="url(#pc32e40d68a)">
     <use style="fill:#36a2eb;fill-opacity:0.5;stroke:#36a2eb;stroke-opacity:0.5;" x="0" xlink:href="#m811ca4ff15" y="581.789375"/>
    </g>
   </g>
   <g id="line2d_1">
    <path clip-path="url(#pc32e40d68a)" d="M 58.827273 386.142872 
L 62.982329 386.101962 
L 67.137384 386.046964 
L 71.29244 385.97354 
L 75.447496 385.8762 
L 79.602552 385.748051 
L 83.757608 385.580525 
L 87.912664 385.363057 
L 92.067719 385.082749 
L 96.222775 384.723995 
L 100.377831 384.268099 
L 104.532887 383.692886 
L 108.687943 382.972325 
L 112.842999 382.07618 
L 116.998054 380.969725 
L 121.15311 379.613537 
L 125.308166 377.963413 
L 129.463222 375.970432 
L 133.618278 373.581209 
L 137.773334 370.738377 
L 141.92839 367.381316 
L 146.083445 363.447173 
L 150.238501 358.872186 
L 154.393557 353.593315 
L 158.548613 347.55019 
L 162.703669 340.687334 
L 166.858725 332.956643 
L 171.01378 324.320044 
L 175.168836 314.752265 
L 179.323892 304.243618 
L 183.478948 292.802664 
L 187.634004 280.458656 
L 191.78906 267.263605 
L 195.944115 253.29384 
L 200.099171 238.650932 
L 204.254227 223.461852 
L 208.409283 207.878291 
L 212.564339 192.075053 
L 216.719395 176.247502 
L 220.87445 160.608089 
L 225.029506 145.381987 
L 229.184562 130.801977 
L 233.339618 117.102705 
L 237.494674 104.514512 
L 241.64973 93.257062 
L 245.804785 83.532997 
L 249.959841 75.52189 
L 254.114897 69.374736 
L 258.269953 65.20922 
L 262.425009 63.105973 
L 266.580065 63.105973 
L 270.735121 65.20922 
L 274.890176 69.374736 
L 279.045232 75.52189 
L 283.200288 83.532997 
L 287.355344 93.257062 
L 291.5104 104.514512 
L 295.665456 117.102705 
L 299.820511 130.801977 
L 303.975567 145.381987 
L 308.130623 160.608089 
L 312.285679 176.247502 
L 316.440735 192.075053 
L 320.595791 207.878291 
L 324.750846 223.461852 
L 328.905902 238.650932 
L 333.060958 253.29384 
L 337.216014 267.263605 
L 341.37107 280.458656 
L 345.526126 292.802664 
L 349.681181 304.243618 
L 353.836237 314.752265 
L 357.991293 324.320044 
L 362.146349 332.956643 
L 366.301405 340.687334 
L 370.456461 347.55019 
L 374.611516 353.593315 
L 378.766572 358.872186 
L 382.921628 363.447173 
L 387.076684 367.381316 
L 391.23174 370.738377 
L 395.386796 373.581209 
L 399.541852 375.970432 
L 403.696907 377.963413 
L 407.851963 379.613537 
L 412.007019 380.969725 
L 416.162075 382.07618 
L 420.317131 382.972325 
L 424.472187 383.692886 
L 428.627242 384.268099 
L 432.782298 384.723995 
L 436.937354 385.082749 
L 441.09241 385.363057 
L 445.247466 385.580525 
L 449.402522 385.748051 
L 453.557577 385.8762 
L 457.712633 385.97354 
L 461.867689 386.046964 
L 466.022745 386.101962 
L 470.177801 386.142872 
" style="fill:none;stroke:#ff6384;stroke-linecap:square;"/>
   </g>
   <g id="line2d_2">
    <path clip-path="url(#pc32e40d68a)" d="M 116.880835 386.139371 
L 120.906006 386.097141 
L 124.931177 386.040368 
L 128.956347 385.964575 
L 132.981518 385.864094 
L 137.006688 385.73181 
L 141.031859 385.558878 
L 145.05703 385.334393 
L 149.0822 385.04504 
L 153.107371 384.674709 
L 157.132542 384.204102 
L 161.157712 383.610328 
L 165.182883 382.866516 
L 169.208054 381.941454 
L 173.233224 380.799296 
L 177.258395 379.399346 
L 181.283565 377.695976 
L 185.308736 375.638684 
L 189.333907 373.172366 
L 193.359077 370.2378 
L 197.384248 366.772413 
L 201.409419 362.711322 
L 205.434589 357.988708 
L 209.45976 352.539497 
L 213.48493 346.301371 
L 217.510101 339.217063 
L 221.535272 331.236916 
L 225.560442 322.321628 
L 229.585613 312.445114 
L 233.610784 301.597371 
L 237.635954 289.787238 
L 241.661125 277.04491 
L 245.686295 263.424078 
L 249.711466 249.003534 
L 253.736637 233.888124 
L 257.761807 218.208919 
L 261.786978 202.122504 
L 265.812149 185.809323 
L 269.837319 169.471045 
L 273.86249 153.326975 
L 277.88766 137.609553 
L 281.912831 122.559072 
L 285.938002 108.417748 
L 289.963172 95.423357 
L 293.988343 83.802649 
L 298.013514 73.764805 
L 302.038684 65.495194 
L 306.063855 59.149682 
L 310.089025 54.849752 
L 314.114196 52.678636 
L 318.139367 52.678636 
L 322.164537 54.849752 
L 326.189708 59.149682 
L 330.214879 65.495194 
L 334.240049 73.764805 
L 338.26522 83.802649 
L 342.29039 95.423357 
L 346.315561 108.417748 
L 350.340732 122.559072 
L 354.365902 137.609553 
L 358.391073 153.326975 
L 362.416244 169.471045 
L 366.441414 185.809323 
L 370.466585 202.122504 
L 374.491755 218.208919 
L 378.516926 233.888124 
L 382.542097 249.003534 
L 386.567267 263.424078 
L 390.592438 277.04491 
L 394.617609 289.787238 
L 398.642779 301.597371 
L 402.66795 312.445114 
L 406.69312 322.321628 
L 410.718291 331.236916 
L 414.743462 339.217063 
L 418.768632 346.301371 
L 422.793803 352.539497 
L 426.818974 357.988708 
L 430.844144 362.711322 
L 434.869315 366.772413 
L 438.894485 370.2378 
L 442.919656 373.172366 
L 446.944827 375.638684 
L 450.969997 377.695976 
L 454.995168 379.399346 
L 459.020339 380.799296 
L 463.045509 381.941454 
L 467.07068 382.866516 
L 471.09585 383.610328 
L 475.121021 384.204102 
L 479.146192 384.674709 
L 483.171362 385.04504 
L 487.196533 385.334393 
L 491.221704 385.558878 
L 495.246874 385.73181 
L 499.272045 385.864094 
L 503.297215 385.964575 
L 507.322386 386.040368 
L 511.347557 386.097141 
L 515.372727 386.139371 
" style="fill:none;stroke:#36a2eb;stroke-linecap:square;"/>
   </g>
   <g id="patch_3">
    <path d="M 36 402.93 
L 538.2 402.93 
" style="fill:none;stroke:#000000;stroke-linecap:square;stroke-linejoin:miter;stroke-width:0.8;"/>
   </g>
   <g id="legend_1">
    <g id="patch_4">
     <path d="M 450.225313 88.29875 
L 528.4 88.29875 
Q 531.2 88.29875 531.2 85.49875 
L 531.2 45.8 
Q 531.2 43 528.4 43 
L 450.225313 43 
Q 447.425313 43 447.425313 45.8 
L 447.425313 85.49875 
Q 447.425313 88.29875 450.225313 88.29875 
z
" style="fill:#ffffff;opacity:0.8;stroke:#cccccc;stroke-linejoin:miter;"/>
    </g>
    <g id="patch_5">
     <path d="M 453.025313 59.237813 
L 481.025313 59.237813 
L 481.025313 49.437813 
L 453.025313 49.437813 
z
" style="fill:#ff6384;opacity:0.5;stroke:#ff6384;stroke-linejoin:miter;"/>
    </g>
    <g id="text_1">
     <!-- base -->
     <defs>
      <path d="M 48.6875 27.296875 
Q 48.6875 37.203125 44.609375 42.84375 
Q 40.53125 48.484375 33.40625 48.484375 
Q 26.265625 48.484375 22.1875 42.84375 
Q 18.109375 37.203125 18.109375 27.296875 
Q 18.109375 17.390625 22.1875 11.75 
Q 26.265625 6.109375 33.40625 6.109375 
Q 40.53125 6.109375 44.609375 11.75 
Q 48.6875 17.390625 48.6875 27.296875 
z
M 18.109375 46.390625 
Q 20.953125 51.265625 25.265625 53.625 
Q 29.59375 56 35.59375 56 
Q 45.5625 56 51.78125 48.09375 
Q 58.015625 40.1875 58.015625 27.296875 
Q 58.015625 14.40625 51.78125 6.484375 
Q 45.5625 -1.421875 35.59375 -1.421875 
Q 29.59375 -1.421875 25.265625 0.953125 
Q 20.953125 3.328125 18.109375 8.203125 
L 18.109375 0 
L 9.078125 0 
L 9.078125 75.984375 
L 18.109375 75.984375 
z
" id="DejaVuSans-98"/>
      <path d="M 34.28125 27.484375 
Q 23.390625 27.484375 19.1875 25 
Q 14.984375 22.515625 14.984375 16.5 
Q 14.984375 11.71875 18.140625 8.90625 
Q 21.296875 6.109375 26.703125 6.109375 
Q 34.1875 6.109375 38.703125 11.40625 
Q 43.21875 16.703125 43.21875 25.484375 
L 43.21875 27.484375 
z
M 52.203125 31.203125 
L 52.203125 0 
L 43.21875 0 
L 43.21875 8.296875 
Q 40.140625 3.328125 35.546875 0.953125 
Q 30.953125 -1.421875 24.3125 -1.421875 
Q 15.921875 -1.421875 10.953125 3.296875 
Q 6 8.015625 6 15.921875 
Q 6 25.140625 12.171875 29.828125 
Q 18.359375 34.515625 30.609375 34.515625 
L 43.21875 34.515625 
L 43.21875 35.40625 
Q 43.21875 41.609375 39.140625 45 
Q 35.0625 48.390625 27.6875 48.390625 
Q 23 48.390625 18.546875 47.265625 
Q 14.109375 46.140625 10.015625 43.890625 
L 10.015625 52.203125 
Q 14.9375 54.109375 19.578125 55.046875 
Q 24.21875 56 28.609375 56 
Q 40.484375 56 46.34375 49.84375 
Q 52.203125 43.703125 52.203125 31.203125 
z
" id="DejaVuSans-97"/>
      <path d="M 44.28125 53.078125 
L 44.28125 44.578125 
Q 40.484375 46.53125 36.375 47.5 
Q 32.28125 48.484375 27.875 48.484375 
Q 21.1875 48.484375 17.84375 46.4375 
Q 14.5 44.390625 14.5 40.28125 
Q 14.5 37.15625 16.890625 35.375 
Q 19.28125 33.59375 26.515625 31.984375 
L 29.59375 31.296875 
Q 39.15625 29.25 43.1875 25.515625 
Q 47.21875 21.78125 47.21875 15.09375 
Q 47.21875 7.46875 41.1875 3.015625 
Q 35.15625 -1.421875 24.609375 -1.421875 
Q 20.21875 -1.421875 15.453125 -0.5625 
Q 10.6875 0.296875 5.421875 2 
L 5.421875 11.28125 
Q 10.40625 8.6875 15.234375 7.390625 
Q 20.0625 6.109375 24.8125 6.109375 
Q 31.15625 6.109375 34.5625 8.28125 
Q 37.984375 10.453125 37.984375 14.40625 
Q 37.984375 18.0625 35.515625 20.015625 
Q 33.0625 21.96875 24.703125 23.78125 
L 21.578125 24.515625 
Q 13.234375 26.265625 9.515625 29.90625 
Q 5.8125 33.546875 5.8125 39.890625 
Q 5.8125 47.609375 11.28125 51.796875 
Q 16.75 56 26.8125 56 
Q 31.78125 56 36.171875 55.265625 
Q 40.578125 54.546875 44.28125 53.078125 
z
" id="DejaVuSans-115"/>
      <path d="M 56.203125 29.59375 
L 56.203125 25.203125 
L 14.890625 25.203125 
Q 15.484375 15.921875 20.484375 11.0625 
Q 25.484375 6.203125 34.421875 6.203125 
Q 39.59375 6.203125 44.453125 7.46875 
Q 49.3125 8.734375 54.109375 11.28125 
L 54.109375 2.78125 
Q 49.265625 0.734375 44.1875 -0.34375 
Q 39.109375 -1.421875 33.890625 -1.421875 
Q 20.796875 -1.421875 13.15625 6.1875 
Q 5.515625 13.8125 5.515625 26.8125 
Q 5.515625 40.234375 12.765625 48.109375 
Q 20.015625 56 32.328125 56 
Q 43.359375 56 49.78125 48.890625 
Q 56.203125 41.796875 56.203125 29.59375 
z
M 47.21875 32.234375 
Q 47.125 39.59375 43.09375 43.984375 
Q 39.0625 48.390625 32.421875 48.390625 
Q 24.90625 48.390625 20.390625 44.140625 
Q 15.875 39.890625 15.1875 32.171875 
z
" id="DejaVuSans-101"/>
     </defs>
     <g transform="translate(492.225313 59.237813)scale(0.14 -0.14)">
      <use xlink:href="#DejaVuSans-98"/>
      <use x="63.476562" xlink:href="#DejaVuSans-97"/>
      <use x="124.755859" xlink:href="#DejaVuSans-115"/>
      <use x="176.855469" xlink:href="#DejaVuSans-101"/>
     </g>
    </g>
    <g id="patch_6">
     <path d="M 453.025313 79.787188 
L 481.025313 79.787188 
L 481.025313 69.987188 
L 453.025313 69.987188 
z
" style="fill:#36a2eb;opacity:0.5;stroke:#36a2eb;stroke-linejoin:miter;"/>
    </g>
    <g id="text_2">
     <!-- subs -->
     <defs>
      <path d="M 8.5 21.578125 
L 8.5 54.6875 
L 17.484375 54.6875 
L 17.484375 21.921875 
Q 17.484375 14.15625 20.5 10.265625 
Q 23.53125 6.390625 29.59375 6.390625 
Q 36.859375 6.390625 41.078125 11.03125 
Q 45.3125 15.671875 45.3125 23.6875 
L 45.3125 54.6875 
L 54.296875 54.6875 
L 54.296875 0 
L 45.3125 0 
L 45.3125 8.40625 
Q 42.046875 3.421875 37.71875 1 
Q 33.40625 -1.421875 27.6875 -1.421875 
Q 18.265625 -1.421875 13.375 4.4375 
Q 8.5 10.296875 8.5 21.578125 
z
M 31.109375 56 
z
" id="DejaVuSans-117"/>
     </defs>
     <g transform="translate(492.225313 79.787188)scale(0.14 -0.14)">
      <use xlink:href="#DejaVuSans-115"/>
      <use x="52.099609" xlink:href="#DejaVuSans-117"/>
      <use x="115.478516" xlink:href="#DejaVuSans-98"/>
      <use x="178.955078" xlink:href="#DejaVuSans-115"/>
     </g>
    </g>
   </g>
  </g>
  <g id="axes_2">
   <g id="patch_7">
    <path d="M 36 525.24 
L 538.2 525.24 
L 538.2 402.93 
L 36 402.93 
z
" style="fill:none;"/>
   </g>
   <g id="patch_8">
    <path clip-path="url(#p77a109baaf)" d="M 163.721657 519.680455 
L 365.283416 519.680455 
L 365.283416 482.616818 
L 163.721657 482.616818 
z
" style="fill:#ff6384;opacity:0.5;"/>
   </g>
   <g id="patch_9">
    <path clip-path="url(#p77a109baaf)" d="M 218.496268 445.553182 
L 413.757295 445.553182 
L 413.757295 408.489545 
L 218.496268 408.489545 
z
" style="fill:#36a2eb;opacity:0.5;"/>
   </g>
   <g id="matplotlib.axis_1">
    <g id="xtick_1">
     <g id="line2d_3">
      <defs>
       <path d="M 0 0 
L 0 3.5 
" id="m93f3fdafac" style="stroke:#000000;stroke-width:0.8;"/>
      </defs>
      <g>
       <use style="stroke:#000000;stroke-width:0.8;" x="68.783111" xlink:href="#m93f3fdafac" y="525.24"/>
      </g>
     </g>
     <g id="text_3">
      <!-- 7.5 -->
      <defs>
       <path d="M 8.203125 72.90625 
L 55.078125 72.90625 
L 55.078125 68.703125 
L 28.609375 0 
L 18.3125 0 
L 43.21875 64.59375 
L 8.203125 64.59375 
z
" id="DejaVuSans-55"/>
       <path d="M 10.6875 12.40625 
L 21 12.40625 
L 21 0 
L 10.6875 0 
z
" id="DejaVuSans-46"/>
       <path d="M 10.796875 72.90625 
L 49.515625 72.90625 
L 49.515625 64.59375 
L 19.828125 64.59375 
L 19.828125 46.734375 
Q 21.96875 47.46875 24.109375 47.828125 
Q 26.265625 48.1875 28.421875 48.1875 
Q 40.625 48.1875 47.75 41.5 
Q 54.890625 34.8125 54.890625 23.390625 
Q 54.890625 11.625 47.5625 5.09375 
Q 40.234375 -1.421875 26.90625 -1.421875 
Q 22.3125 -1.421875 17.546875 -0.640625 
Q 12.796875 0.140625 7.71875 1.703125 
L 7.71875 11.625 
Q 12.109375 9.234375 16.796875 8.0625 
Q 21.484375 6.890625 26.703125 6.890625 
Q 35.15625 6.890625 40.078125 11.328125 
Q 45.015625 15.765625 45.015625 23.390625 
Q 45.015625 31 40.078125 35.4375 
Q 35.15625 39.890625 26.703125 39.890625 
Q 22.75 39.890625 18.8125 39.015625 
Q 14.890625 38.140625 10.796875 36.28125 
z
" id="DejaVuSans-53"/>
      </defs>
      <g transform="translate(57.650924 542.877813)scale(0.14 -0.14)">
       <use xlink:href="#DejaVuSans-55"/>
       <use x="63.623047" xlink:href="#DejaVuSans-46"/>
       <use x="95.410156" xlink:href="#DejaVuSans-53"/>
      </g>
     </g>
    </g>
    <g id="xtick_2">
     <g id="line2d_4">
      <g>
       <use style="stroke:#000000;stroke-width:0.8;" x="133.381245" xlink:href="#m93f3fdafac" y="525.24"/>
      </g>
     </g>
     <g id="text_4">
      <!-- 10.0 -->
      <defs>
       <path d="M 12.40625 8.296875 
L 28.515625 8.296875 
L 28.515625 63.921875 
L 10.984375 60.40625 
L 10.984375 69.390625 
L 28.421875 72.90625 
L 38.28125 72.90625 
L 38.28125 8.296875 
L 54.390625 8.296875 
L 54.390625 0 
L 12.40625 0 
z
" id="DejaVuSans-49"/>
       <path d="M 31.78125 66.40625 
Q 24.171875 66.40625 20.328125 58.90625 
Q 16.5 51.421875 16.5 36.375 
Q 16.5 21.390625 20.328125 13.890625 
Q 24.171875 6.390625 31.78125 6.390625 
Q 39.453125 6.390625 43.28125 13.890625 
Q 47.125 21.390625 47.125 36.375 
Q 47.125 51.421875 43.28125 58.90625 
Q 39.453125 66.40625 31.78125 66.40625 
z
M 31.78125 74.21875 
Q 44.046875 74.21875 50.515625 64.515625 
Q 56.984375 54.828125 56.984375 36.375 
Q 56.984375 17.96875 50.515625 8.265625 
Q 44.046875 -1.421875 31.78125 -1.421875 
Q 19.53125 -1.421875 13.0625 8.265625 
Q 6.59375 17.96875 6.59375 36.375 
Q 6.59375 54.828125 13.0625 64.515625 
Q 19.53125 74.21875 31.78125 74.21875 
z
" id="DejaVuSans-48"/>
      </defs>
      <g transform="translate(117.795307 542.877813)scale(0.14 -0.14)">
       <use xlink:href="#DejaVuSans-49"/>
       <use x="63.623047" xlink:href="#DejaVuSans-48"/>
       <use x="127.246094" xlink:href="#DejaVuSans-46"/>
       <use x="159.033203" xlink:href="#DejaVuSans-48"/>
      </g>
     </g>
    </g>
    <g id="xtick_3">
     <g id="line2d_5">
      <g>
       <use style="stroke:#000000;stroke-width:0.8;" x="197.979379" xlink:href="#m93f3fdafac" y="525.24"/>
      </g>
     </g>
     <g id="text_5">
      <!-- 12.5 -->
      <defs>
       <path d="M 19.1875 8.296875 
L 53.609375 8.296875 
L 53.609375 0 
L 7.328125 0 
L 7.328125 8.296875 
Q 12.9375 14.109375 22.625 23.890625 
Q 32.328125 33.6875 34.8125 36.53125 
Q 39.546875 41.84375 41.421875 45.53125 
Q 43.3125 49.21875 43.3125 52.78125 
Q 43.3125 58.59375 39.234375 62.25 
Q 35.15625 65.921875 28.609375 65.921875 
Q 23.96875 65.921875 18.8125 64.3125 
Q 13.671875 62.703125 7.8125 59.421875 
L 7.8125 69.390625 
Q 13.765625 71.78125 18.9375 73 
Q 24.125 74.21875 28.421875 74.21875 
Q 39.75 74.21875 46.484375 68.546875 
Q 53.21875 62.890625 53.21875 53.421875 
Q 53.21875 48.921875 51.53125 44.890625 
Q 49.859375 40.875 45.40625 35.40625 
Q 44.1875 33.984375 37.640625 27.21875 
Q 31.109375 20.453125 19.1875 8.296875 
z
" id="DejaVuSans-50"/>
      </defs>
      <g transform="translate(182.393441 542.877813)scale(0.14 -0.14)">
       <use xlink:href="#DejaVuSans-49"/>
       <use x="63.623047" xlink:href="#DejaVuSans-50"/>
       <use x="127.246094" xlink:href="#DejaVuSans-46"/>
       <use x="159.033203" xlink:href="#DejaVuSans-53"/>
      </g>
     </g>
    </g>
    <g id="xtick_4">
     <g id="line2d_6">
      <g>
       <use style="stroke:#000000;stroke-width:0.8;" x="262.577512" xlink:href="#m93f3fdafac" y="525.24"/>
      </g>
     </g>
     <g id="text_6">
      <!-- 15.0 -->
      <g transform="translate(246.991575 542.877813)scale(0.14 -0.14)">
       <use xlink:href="#DejaVuSans-49"/>
       <use x="63.623047" xlink:href="#DejaVuSans-53"/>
       <use x="127.246094" xlink:href="#DejaVuSans-46"/>
       <use x="159.033203" xlink:href="#DejaVuSans-48"/>
      </g>
     </g>
    </g>
    <g id="xtick_5">
     <g id="line2d_7">
      <g>
       <use style="stroke:#000000;stroke-width:0.8;" x="327.175646" xlink:href="#m93f3fdafac" y="525.24"/>
      </g>
     </g>
     <g id="text_7">
      <!-- 17.5 -->
      <g transform="translate(311.589709 542.877813)scale(0.14 -0.14)">
       <use xlink:href="#DejaVuSans-49"/>
       <use x="63.623047" xlink:href="#DejaVuSans-55"/>
       <use x="127.246094" xlink:href="#DejaVuSans-46"/>
       <use x="159.033203" xlink:href="#DejaVuSans-53"/>
      </g>
     </g>
    </g>
    <g id="xtick_6">
     <g id="line2d_8">
      <g>
       <use style="stroke:#000000;stroke-width:0.8;" x="391.77378" xlink:href="#m93f3fdafac" y="525.24"/>
      </g>
     </g>
     <g id="text_8">
      <!-- 20.0 -->
      <g transform="translate(376.187842 542.877813)scale(0.14 -0.14)">
       <use xlink:href="#DejaVuSans-50"/>
       <use x="63.623047" xlink:href="#DejaVuSans-48"/>
       <use x="127.246094" xlink:href="#DejaVuSans-46"/>
       <use x="159.033203" xlink:href="#DejaVuSans-48"/>
      </g>
     </g>
    </g>
    <g id="xtick_7">
     <g id="line2d_9">
      <g>
       <use style="stroke:#000000;stroke-width:0.8;" x="456.371914" xlink:href="#m93f3fdafac" y="525.24"/>
      </g>
     </g>
     <g id="text_9">
      <!-- 22.5 -->
      <g transform="translate(440.785976 542.877813)scale(0.14 -0.14)">
       <use xlink:href="#DejaVuSans-50"/>
       <use x="63.623047" xlink:href="#DejaVuSans-50"/>
       <use x="127.246094" xlink:href="#DejaVuSans-46"/>
       <use x="159.033203" xlink:href="#DejaVuSans-53"/>
      </g>
     </g>
    </g>
    <g id="xtick_8">
     <g id="line2d_10">
      <g>
       <use style="stroke:#000000;stroke-width:0.8;" x="520.970047" xlink:href="#m93f3fdafac" y="525.24"/>
      </g>
     </g>
     <g id="text_10">
      <!-- 25.0 -->
      <g transform="translate(505.38411 542.877813)scale(0.14 -0.14)">
       <use xlink:href="#DejaVuSans-50"/>
       <use x="63.623047" xlink:href="#DejaVuSans-53"/>
       <use x="127.246094" xlink:href="#DejaVuSans-46"/>
       <use x="159.033203" xlink:href="#DejaVuSans-48"/>
      </g>
     </g>
    </g>
   </g>
   <g id="line2d_11">
    <path clip-path="url(#p77a109baaf)" d="M 264.502537 525.24 
L 264.502537 402.93 
" style="fill:none;stroke:#ff6384;stroke-dasharray:5.55,2.4;stroke-dashoffset:0;stroke-opacity:0.8;stroke-width:1.5;"/>
   </g>
   <g id="line2d_12">
    <path clip-path="url(#p77a109baaf)" d="M 316.126781 525.24 
L 316.126781 402.93 
" style="fill:none;stroke:#36a2eb;stroke-dasharray:5.55,2.4;stroke-dashoffset:0;stroke-opacity:0.8;stroke-width:1.5;"/>
   </g>
   <g id="patch_10">
    <path d="M 36 525.24 
L 538.2 525.24 
" style="fill:none;stroke:#000000;stroke-linecap:square;stroke-linejoin:miter;stroke-width:0.8;"/>
   </g>
  </g>
 </g>
 <defs>
  <clipPath id="pc32e40d68a">
   <rect height="366.93" width="502.2" x="36" y="36"/>
  </clipPath>
  <clipPath id="p77a109baaf">
   <rect height="122.31" width="502.2" x="36" y="402.93"/>
  </clipPath>
 </defs>
</svg>
