<?xml version="1.0" encoding="utf-8" standalone="no"?>
<!DOCTYPE svg PUBLIC "-//W3C//DTD SVG 1.1//EN"
  "http://www.w3.org/Graphics/SVG/1.1/DTD/svg11.dtd">
<!-- Created with matplotlib (https://matplotlib.org/) -->
<svg height="581.789375pt" version="1.1" viewBox="0 0 574.2 581.789375" width="574.2pt" xmlns="http://www.w3.org/2000/svg" xmlns:xlink="http://www.w3.org/1999/xlink">
 <defs>
  <style type="text/css">
*{stroke-linecap:butt;stroke-linejoin:round;}
  </style>
 </defs>
 <g id="figure_1">
  <g id="patch_1">
   <path d="M 0 581.789375 
L 574.2 581.789375 
L 574.2 0 
L 0 0 
z
" style="fill:none;"/>
  </g>
  <g id="axes_1">
   <g id="patch_2">
    <path d="M 36 402.93 
L 538.2 402.93 
L 538.2 36 
L 36 36 
z
" style="fill:none;"/>
   </g>
   <g id="PolyCollection_1">
    <defs>
     <path d="M 58.827273 -195.538011 
L 58.827273 -195.647449 
L 63.127931 -195.688716 
L 67.428589 -195.744194 
L 71.729246 -195.818258 
L 76.029904 -195.916447 
L 80.330562 -196.045713 
L 84.63122 -196.2147 
L 88.931878 -196.434064 
L 93.232536 -196.716817 
L 97.533194 -197.0787 
L 101.833852 -197.538571 
L 106.13451 -198.1188 
L 110.435167 -198.845645 
L 114.735825 -199.749604 
L 119.036483 -200.865708 
L 123.337141 -202.233722 
L 127.637799 -203.898236 
L 131.938457 -205.908597 
L 136.239115 -208.318655 
L 140.539773 -211.186277 
L 144.840431 -214.572613 
L 149.141088 -218.541064 
L 153.441746 -223.155947 
L 157.742404 -228.480851 
L 162.043062 -234.576675 
L 166.34372 -241.499378 
L 170.644378 -249.297484 
L 174.945036 -258.009398 
L 179.245694 -267.660611 
L 183.546352 -278.260899 
L 187.847009 -289.801623 
L 192.147667 -302.253276 
L 196.448325 -315.563393 
L 200.748983 -329.654979 
L 205.049641 -344.42558 
L 209.350299 -359.747115 
L 213.650957 -375.466571 
L 217.951615 -391.40762 
L 222.252273 -407.373193 
L 226.55293 -423.148989 
L 230.853588 -438.507869 
L 235.154246 -453.215022 
L 239.454904 -467.033758 
L 243.755562 -479.731724 
L 248.05622 -491.087344 
L 252.356878 -500.896207 
L 256.657536 -508.977174 
L 260.958194 -515.177934 
L 265.258851 -519.379775 
L 269.559509 -521.501364 
L 273.860167 -521.501364 
L 278.160825 -519.379775 
L 282.461483 -515.177934 
L 286.762141 -508.977174 
L 291.062799 -500.896207 
L 295.363457 -491.087344 
L 299.664115 -479.731724 
L 303.964772 -467.033758 
L 308.26543 -453.215022 
L 312.566088 -438.507869 
L 316.866746 -423.148989 
L 321.167404 -407.373193 
L 325.468062 -391.40762 
L 329.76872 -375.466571 
L 334.069378 -359.747115 
L 338.370036 -344.42558 
L 342.670693 -329.654979 
L 346.971351 -315.563393 
L 351.272009 -302.253276 
L 355.572667 -289.801623 
L 359.873325 -278.260899 
L 364.173983 -267.660611 
L 368.474641 -258.009398 
L 372.775299 -249.297484 
L 377.075957 -241.499378 
L 381.376614 -234.576675 
L 385.677272 -228.480851 
L 389.97793 -223.155947 
L 394.278588 -218.541064 
L 398.579246 -214.572613 
L 402.879904 -211.186277 
L 407.180562 -208.318655 
L 411.48122 -205.908597 
L 415.781878 -203.898236 
L 420.082536 -202.233722 
L 424.383193 -200.865708 
L 428.683851 -199.749604 
L 432.984509 -198.845645 
L 437.285167 -198.1188 
L 441.585825 -197.538571 
L 445.886483 -197.0787 
L 450.187141 -196.716817 
L 454.487799 -196.434064 
L 458.788457 -196.2147 
L 463.089114 -196.045713 
L 467.389772 -195.916447 
L 471.69043 -195.818258 
L 475.991088 -195.744194 
L 480.291746 -195.688716 
L 484.592404 -195.647449 
L 484.592404 -195.538011 
L 484.592404 -195.538011 
L 480.291746 -195.538011 
L 475.991088 -195.538011 
L 471.69043 -195.538011 
L 467.389772 -195.538011 
L 463.089114 -195.538011 
L 458.788457 -195.538011 
L 454.487799 -195.538011 
L 450.187141 -195.538011 
L 445.886483 -195.538011 
L 441.585825 -195.538011 
L 437.285167 -195.538011 
L 432.984509 -195.538011 
L 428.683851 -195.538011 
L 424.383193 -195.538011 
L 420.082536 -195.538011 
L 415.781878 -195.538011 
L 411.48122 -195.538011 
L 407.180562 -195.538011 
L 402.879904 -195.538011 
L 398.579246 -195.538011 
L 394.278588 -195.538011 
L 389.97793 -195.538011 
L 385.677272 -195.538011 
L 381.376614 -195.538011 
L 377.075957 -195.538011 
L 372.775299 -195.538011 
L 368.474641 -195.538011 
L 364.173983 -195.538011 
L 359.873325 -195.538011 
L 355.572667 -195.538011 
L 351.272009 -195.538011 
L 346.971351 -195.538011 
L 342.670693 -195.538011 
L 338.370036 -195.538011 
L 334.069378 -195.538011 
L 329.76872 -195.538011 
L 325.468062 -195.538011 
L 321.167404 -195.538011 
L 316.866746 -195.538011 
L 312.566088 -195.538011 
L 308.26543 -195.538011 
L 303.964772 -195.538011 
L 299.664115 -195.538011 
L 295.363457 -195.538011 
L 291.062799 -195.538011 
L 286.762141 -195.538011 
L 282.461483 -195.538011 
L 278.160825 -195.538011 
L 273.860167 -195.538011 
L 269.559509 -195.538011 
L 265.258851 -195.538011 
L 260.958194 -195.538011 
L 256.657536 -195.538011 
L 252.356878 -195.538011 
L 248.05622 -195.538011 
L 243.755562 -195.538011 
L 239.454904 -195.538011 
L 235.154246 -195.538011 
L 230.853588 -195.538011 
L 226.55293 -195.538011 
L 222.252273 -195.538011 
L 217.951615 -195.538011 
L 213.650957 -195.538011 
L 209.350299 -195.538011 
L 205.049641 -195.538011 
L 200.748983 -195.538011 
L 196.448325 -195.538011 
L 192.147667 -195.538011 
L 187.847009 -195.538011 
L 183.546352 -195.538011 
L 179.245694 -195.538011 
L 174.945036 -195.538011 
L 170.644378 -195.538011 
L 166.34372 -195.538011 
L 162.043062 -195.538011 
L 157.742404 -195.538011 
L 153.441746 -195.538011 
L 149.141088 -195.538011 
L 144.840431 -195.538011 
L 140.539773 -195.538011 
L 136.239115 -195.538011 
L 131.938457 -195.538011 
L 127.637799 -195.538011 
L 123.337141 -195.538011 
L 119.036483 -195.538011 
L 114.735825 -195.538011 
L 110.435167 -195.538011 
L 106.13451 -195.538011 
L 101.833852 -195.538011 
L 97.533194 -195.538011 
L 93.232536 -195.538011 
L 88.931878 -195.538011 
L 84.63122 -195.538011 
L 80.330562 -195.538011 
L 76.029904 -195.538011 
L 71.729246 -195.538011 
L 67.428589 -195.538011 
L 63.127931 -195.538011 
L 58.827273 -195.538011 
z
" id="mf2e29e1c11" style="stroke:#ff6384;stroke-opacity:0.5;"/>
    </defs>
    <g clip-path="url(#p12f9378bba)">
     <use style="fill:#ff6384;fill-opacity:0.5;stroke:#ff6384;stroke-opacity:0.5;" x="0" xlink:href="#mf2e29e1c11" y="581.789375"/>
    </g>
   </g>
   <g id="PolyCollection_2">
    <defs>
     <path d="M 99.320041 -195.538011 
L 99.320041 -195.650004 
L 103.522593 -195.692234 
L 107.725145 -195.749007 
L 111.927698 -195.8248 
L 116.13025 -195.925281 
L 120.332802 -196.057565 
L 124.535355 -196.230497 
L 128.737907 -196.454982 
L 132.94046 -196.744335 
L 137.143012 -197.114666 
L 141.345564 -197.585273 
L 145.548117 -198.179047 
L 149.750669 -198.922859 
L 153.953222 -199.847921 
L 158.155774 -200.990079 
L 162.358326 -202.390029 
L 166.560879 -204.093399 
L 170.763431 -206.150691 
L 174.965984 -208.617009 
L 179.168536 -211.551575 
L 183.371088 -215.016962 
L 187.573641 -219.078053 
L 191.776193 -223.800667 
L 195.978746 -229.249878 
L 200.181298 -235.488004 
L 204.38385 -242.572312 
L 208.586403 -250.552459 
L 212.788955 -259.467747 
L 216.991507 -269.344261 
L 221.19406 -280.192004 
L 225.396612 -292.002137 
L 229.599165 -304.744465 
L 233.801717 -318.365297 
L 238.004269 -332.785841 
L 242.206822 -347.901251 
L 246.409374 -363.580456 
L 250.611927 -379.666871 
L 254.814479 -395.980052 
L 259.017031 -412.31833 
L 263.219584 -428.4624 
L 267.422136 -444.179822 
L 271.624689 -459.230303 
L 275.827241 -473.371627 
L 280.029793 -486.366018 
L 284.232346 -497.986726 
L 288.434898 -508.02457 
L 292.637451 -516.294181 
L 296.840003 -522.639693 
L 301.042555 -526.939623 
L 305.245108 -529.110739 
L 309.44766 -529.110739 
L 313.650212 -526.939623 
L 317.852765 -522.639693 
L 322.055317 -516.294181 
L 326.25787 -508.02457 
L 330.460422 -497.986726 
L 334.662974 -486.366018 
L 338.865527 -473.371627 
L 343.068079 -459.230303 
L 347.270632 -444.179822 
L 351.473184 -428.4624 
L 355.675736 -412.31833 
L 359.878289 -395.980052 
L 364.080841 -379.666871 
L 368.283394 -363.580456 
L 372.485946 -347.901251 
L 376.688498 -332.785841 
L 380.891051 -318.365297 
L 385.093603 -304.744465 
L 389.296156 -292.002137 
L 393.498708 -280.192004 
L 397.70126 -269.344261 
L 401.903813 -259.467747 
L 406.106365 -250.552459 
L 410.308917 -242.572312 
L 414.51147 -235.488004 
L 418.714022 -229.249878 
L 422.916575 -223.800667 
L 427.119127 -219.078053 
L 431.321679 -215.016962 
L 435.524232 -211.551575 
L 439.726784 -208.617009 
L 443.929337 -206.150691 
L 448.131889 -204.093399 
L 452.334441 -202.390029 
L 456.536994 -200.990079 
L 460.739546 -199.847921 
L 464.942099 -198.922859 
L 469.144651 -198.179047 
L 473.347203 -197.585273 
L 477.549756 -197.114666 
L 481.752308 -196.744335 
L 485.954861 -196.454982 
L 490.157413 -196.230497 
L 494.359965 -196.057565 
L 498.562518 -195.925281 
L 502.76507 -195.8248 
L 506.967622 -195.749007 
L 511.170175 -195.692234 
L 515.372727 -195.650004 
L 515.372727 -195.538011 
L 515.372727 -195.538011 
L 511.170175 -195.538011 
L 506.967622 -195.538011 
L 502.76507 -195.538011 
L 498.562518 -195.538011 
L 494.359965 -195.538011 
L 490.157413 -195.538011 
L 485.954861 -195.538011 
L 481.752308 -195.538011 
L 477.549756 -195.538011 
L 473.347203 -195.538011 
L 469.144651 -195.538011 
L 464.942099 -195.538011 
L 460.739546 -195.538011 
L 456.536994 -195.538011 
L 452.334441 -195.538011 
L 448.131889 -195.538011 
L 443.929337 -195.538011 
L 439.726784 -195.538011 
L 435.524232 -195.538011 
L 431.321679 -195.538011 
L 427.119127 -195.538011 
L 422.916575 -195.538011 
L 418.714022 -195.538011 
L 414.51147 -195.538011 
L 410.308917 -195.538011 
L 406.106365 -195.538011 
L 401.903813 -195.538011 
L 397.70126 -195.538011 
L 393.498708 -195.538011 
L 389.296156 -195.538011 
L 385.093603 -195.538011 
L 380.891051 -195.538011 
L 376.688498 -195.538011 
L 372.485946 -195.538011 
L 368.283394 -195.538011 
L 364.080841 -195.538011 
L 359.878289 -195.538011 
L 355.675736 -195.538011 
L 351.473184 -195.538011 
L 347.270632 -195.538011 
L 343.068079 -195.538011 
L 338.865527 -195.538011 
L 334.662974 -195.538011 
L 330.460422 -195.538011 
L 326.25787 -195.538011 
L 322.055317 -195.538011 
L 317.852765 -195.538011 
L 313.650212 -195.538011 
L 309.44766 -195.538011 
L 305.245108 -195.538011 
L 301.042555 -195.538011 
L 296.840003 -195.538011 
L 292.637451 -195.538011 
L 288.434898 -195.538011 
L 284.232346 -195.538011 
L 280.029793 -195.538011 
L 275.827241 -195.538011 
L 271.624689 -195.538011 
L 267.422136 -195.538011 
L 263.219584 -195.538011 
L 259.017031 -195.538011 
L 254.814479 -195.538011 
L 250.611927 -195.538011 
L 246.409374 -195.538011 
L 242.206822 -195.538011 
L 238.004269 -195.538011 
L 233.801717 -195.538011 
L 229.599165 -195.538011 
L 225.396612 -195.538011 
L 221.19406 -195.538011 
L 216.991507 -195.538011 
L 212.788955 -195.538011 
L 208.586403 -195.538011 
L 204.38385 -195.538011 
L 200.181298 -195.538011 
L 195.978746 -195.538011 
L 191.776193 -195.538011 
L 187.573641 -195.538011 
L 183.371088 -195.538011 
L 179.168536 -195.538011 
L 174.965984 -195.538011 
L 170.763431 -195.538011 
L 166.560879 -195.538011 
L 162.358326 -195.538011 
L 158.155774 -195.538011 
L 153.953222 -195.538011 
L 149.750669 -195.538011 
L 145.548117 -195.538011 
L 141.345564 -195.538011 
L 137.143012 -195.538011 
L 132.94046 -195.538011 
L 128.737907 -195.538011 
L 124.535355 -195.538011 
L 120.332802 -195.538011 
L 116.13025 -195.538011 
L 111.927698 -195.538011 
L 107.725145 -195.538011 
L 103.522593 -195.538011 
L 99.320041 -195.538011 
z
" id="m8337efaade" style="stroke:#36a2eb;stroke-opacity:0.5;"/>
    </defs>
    <g clip-path="url(#p12f9378bba)">
     <use style="fill:#36a2eb;fill-opacity:0.5;stroke:#36a2eb;stroke-opacity:0.5;" x="0" xlink:href="#m8337efaade" y="581.789375"/>
    </g>
   </g>
   <g id="line2d_1">
    <path clip-path="url(#p12f9378bba)" d="M 58.827273 386.141926 
L 63.127931 386.100659 
L 67.428589 386.045181 
L 71.729246 385.971117 
L 76.029904 385.872928 
L 80.330562 385.743662 
L 84.63122 385.574675 
L 88.931878 385.355311 
L 93.232536 385.072558 
L 97.533194 384.710675 
L 101.833852 384.250804 
L 106.13451 383.670575 
L 110.435167 382.94373 
L 114.735825 382.039771 
L 119.036483 380.923667 
L 123.337141 379.555653 
L 127.637799 377.891139 
L 131.938457 375.880778 
L 136.239115 373.47072 
L 140.539773 370.603098 
L 144.840431 367.216762 
L 149.141088 363.248311 
L 153.441746 358.633428 
L 157.742404 353.308524 
L 162.043062 347.2127 
L 166.34372 340.289997 
L 170.644378 332.491891 
L 174.945036 323.779977 
L 179.245694 314.128764 
L 183.546352 303.528476 
L 187.847009 291.987752 
L 192.147667 279.536099 
L 196.448325 266.225982 
L 200.748983 252.134396 
L 205.049641 237.363795 
L 209.350299 222.04226 
L 213.650957 206.322804 
L 217.951615 190.381755 
L 222.252273 174.416182 
L 226.55293 158.640386 
L 230.853588 143.281506 
L 235.154246 128.574353 
L 239.454904 114.755617 
L 243.755562 102.057651 
L 248.05622 90.702031 
L 252.356878 80.893168 
L 256.657536 72.812201 
L 260.958194 66.611441 
L 265.258851 62.4096 
L 269.559509 60.288011 
L 273.860167 60.288011 
L 278.160825 62.4096 
L 282.461483 66.611441 
L 286.762141 72.812201 
L 291.062799 80.893168 
L 295.363457 90.702031 
L 299.664115 102.057651 
L 303.964772 114.755617 
L 308.26543 128.574353 
L 312.566088 143.281506 
L 316.866746 158.640386 
L 321.167404 174.416182 
L 325.468062 190.381755 
L 329.76872 206.322804 
L 334.069378 222.04226 
L 338.370036 237.363795 
L 342.670693 252.134396 
L 346.971351 266.225982 
L 351.272009 279.536099 
L 355.572667 291.987752 
L 359.873325 303.528476 
L 364.173983 314.128764 
L 368.474641 323.779977 
L 372.775299 332.491891 
L 377.075957 340.289997 
L 381.376614 347.2127 
L 385.677272 353.308524 
L 389.97793 358.633428 
L 394.278588 363.248311 
L 398.579246 367.216762 
L 402.879904 370.603098 
L 407.180562 373.47072 
L 411.48122 375.880778 
L 415.781878 377.891139 
L 420.082536 379.555653 
L 424.383193 380.923667 
L 428.683851 382.039771 
L 432.984509 382.94373 
L 437.285167 383.670575 
L 441.585825 384.250804 
L 445.886483 384.710675 
L 450.187141 385.072558 
L 454.487799 385.355311 
L 458.788457 385.574675 
L 463.089114 385.743662 
L 467.389772 385.872928 
L 471.69043 385.971117 
L 475.991088 386.045181 
L 480.291746 386.100659 
L 484.592404 386.141926 
" style="fill:none;stroke:#ff6384;stroke-linecap:square;"/>
   </g>
   <g id="line2d_2">
    <path clip-path="url(#p12f9378bba)" d="M 99.320041 386.139371 
L 103.522593 386.097141 
L 107.725145 386.040368 
L 111.927698 385.964575 
L 116.13025 385.864094 
L 120.332802 385.73181 
L 124.535355 385.558878 
L 128.737907 385.334393 
L 132.94046 385.04504 
L 137.143012 384.674709 
L 141.345564 384.204102 
L 145.548117 383.610328 
L 149.750669 382.866516 
L 153.953222 381.941454 
L 158.155774 380.799296 
L 162.358326 379.399346 
L 166.560879 377.695976 
L 170.763431 375.638684 
L 174.965984 373.172366 
L 179.168536 370.2378 
L 183.371088 366.772413 
L 187.573641 362.711322 
L 191.776193 357.988708 
L 195.978746 352.539497 
L 200.181298 346.301371 
L 204.38385 339.217063 
L 208.586403 331.236916 
L 212.788955 322.321628 
L 216.991507 312.445114 
L 221.19406 301.597371 
L 225.396612 289.787238 
L 229.599165 277.04491 
L 233.801717 263.424078 
L 238.004269 249.003534 
L 242.206822 233.888124 
L 246.409374 218.208919 
L 250.611927 202.122504 
L 254.814479 185.809323 
L 259.017031 169.471045 
L 263.219584 153.326975 
L 267.422136 137.609553 
L 271.624689 122.559072 
L 275.827241 108.417748 
L 280.029793 95.423357 
L 284.232346 83.802649 
L 288.434898 73.764805 
L 292.637451 65.495194 
L 296.840003 59.149682 
L 301.042555 54.849752 
L 305.245108 52.678636 
L 309.44766 52.678636 
L 313.650212 54.849752 
L 317.852765 59.149682 
L 322.055317 65.495194 
L 326.25787 73.764805 
L 330.460422 83.802649 
L 334.662974 95.423357 
L 338.865527 108.417748 
L 343.068079 122.559072 
L 347.270632 137.609553 
L 351.473184 153.326975 
L 355.675736 169.471045 
L 359.878289 185.809323 
L 364.080841 202.122504 
L 368.283394 218.208919 
L 372.485946 233.888124 
L 376.688498 249.003534 
L 380.891051 263.424078 
L 385.093603 277.04491 
L 389.296156 289.787238 
L 393.498708 301.597371 
L 397.70126 312.445114 
L 401.903813 322.321628 
L 406.106365 331.236916 
L 410.308917 339.217063 
L 414.51147 346.301371 
L 418.714022 352.539497 
L 422.916575 357.988708 
L 427.119127 362.711322 
L 431.321679 366.772413 
L 435.524232 370.2378 
L 439.726784 373.172366 
L 443.929337 375.638684 
L 448.131889 377.695976 
L 452.334441 379.399346 
L 456.536994 380.799296 
L 460.739546 381.941454 
L 464.942099 382.866516 
L 469.144651 383.610328 
L 473.347203 384.204102 
L 477.549756 384.674709 
L 481.752308 385.04504 
L 485.954861 385.334393 
L 490.157413 385.558878 
L 494.359965 385.73181 
L 498.562518 385.864094 
L 502.76507 385.964575 
L 506.967622 386.040368 
L 511.170175 386.097141 
L 515.372727 386.139371 
" style="fill:none;stroke:#36a2eb;stroke-linecap:square;"/>
   </g>
   <g id="patch_3">
    <path d="M 36 402.93 
L 538.2 402.93 
" style="fill:none;stroke:#000000;stroke-linecap:square;stroke-linejoin:miter;stroke-width:0.8;"/>
   </g>
   <g id="legend_1">
    <g id="patch_4">
     <path d="M 450.225313 88.29875 
L 528.4 88.29875 
Q 531.2 88.29875 531.2 85.49875 
L 531.2 45.8 
Q 531.2 43 528.4 43 
L 450.225313 43 
Q 447.425313 43 447.425313 45.8 
L 447.425313 85.49875 
Q 447.425313 88.29875 450.225313 88.29875 
z
" style="fill:#ffffff;opacity:0.8;stroke:#cccccc;stroke-linejoin:miter;"/>
    </g>
    <g id="patch_5">
     <path d="M 453.025313 59.237813 
L 481.025313 59.237813 
L 481.025313 49.437813 
L 453.025313 49.437813 
z
" style="fill:#ff6384;opacity:0.5;stroke:#ff6384;stroke-linejoin:miter;"/>
    </g>
    <g id="text_1">
     <!-- base -->
     <defs>
      <path d="M 48.6875 27.296875 
Q 48.6875 37.203125 44.609375 42.84375 
Q 40.53125 48.484375 33.40625 48.484375 
Q 26.265625 48.484375 22.1875 42.84375 
Q 18.109375 37.203125 18.109375 27.296875 
Q 18.109375 17.390625 22.1875 11.75 
Q 26.265625 6.109375 33.40625 6.109375 
Q 40.53125 6.109375 44.609375 11.75 
Q 48.6875 17.390625 48.6875 27.296875 
z
M 18.109375 46.390625 
Q 20.953125 51.265625 25.265625 53.625 
Q 29.59375 56 35.59375 56 
Q 45.5625 56 51.78125 48.09375 
Q 58.015625 40.1875 58.015625 27.296875 
Q 58.015625 14.40625 51.78125 6.484375 
Q 45.5625 -1.421875 35.59375 -1.421875 
Q 29.59375 -1.421875 25.265625 0.953125 
Q 20.953125 3.328125 18.109375 8.203125 
L 18.109375 0 
L 9.078125 0 
L 9.078125 75.984375 
L 18.109375 75.984375 
z
" id="DejaVuSans-98"/>
      <path d="M 34.28125 27.484375 
Q 23.390625 27.484375 19.1875 25 
Q 14.984375 22.515625 14.984375 16.5 
Q 14.984375 11.71875 18.140625 8.90625 
Q 21.296875 6.109375 26.703125 6.109375 
Q 34.1875 6.109375 38.703125 11.40625 
Q 43.21875 16.703125 43.21875 25.484375 
L 43.21875 27.484375 
z
M 52.203125 31.203125 
L 52.203125 0 
L 43.21875 0 
L 43.21875 8.296875 
Q 40.140625 3.328125 35.546875 0.953125 
Q 30.953125 -1.421875 24.3125 -1.421875 
Q 15.921875 -1.421875 10.953125 3.296875 
Q 6 8.015625 6 15.921875 
Q 6 25.140625 12.171875 29.828125 
Q 18.359375 34.515625 30.609375 34.515625 
L 43.21875 34.515625 
L 43.21875 35.40625 
Q 43.21875 41.609375 39.140625 45 
Q 35.0625 48.390625 27.6875 48.390625 
Q 23 48.390625 18.546875 47.265625 
Q 14.109375 46.140625 10.015625 43.890625 
L 10.015625 52.203125 
Q 14.9375 54.109375 19.578125 55.046875 
Q 24.21875 56 28.609375 56 
Q 40.484375 56 46.34375 49.84375 
Q 52.203125 43.703125 52.203125 31.203125 
z
" id="DejaVuSans-97"/>
      <path d="M 44.28125 53.078125 
L 44.28125 44.578125 
Q 40.484375 46.53125 36.375 47.5 
Q 32.28125 48.484375 27.875 48.484375 
Q 21.1875 48.484375 17.84375 46.4375 
Q 14.5 44.390625 14.5 40.28125 
Q 14.5 37.15625 16.890625 35.375 
Q 19.28125 33.59375 26.515625 31.984375 
L 29.59375 31.296875 
Q 39.15625 29.25 43.1875 25.515625 
Q 47.21875 21.78125 47.21875 15.09375 
Q 47.21875 7.46875 41.1875 3.015625 
Q 35.15625 -1.421875 24.609375 -1.421875 
Q 20.21875 -1.421875 15.453125 -0.5625 
Q 10.6875 0.296875 5.421875 2 
L 5.421875 11.28125 
Q 10.40625 8.6875 15.234375 7.390625 
Q 20.0625 6.109375 24.8125 6.109375 
Q 31.15625 6.109375 34.5625 8.28125 
Q 37.984375 10.453125 37.984375 14.40625 
Q 37.984375 18.0625 35.515625 20.015625 
Q 33.0625 21.96875 24.703125 23.78125 
L 21.578125 24.515625 
Q 13.234375 26.265625 9.515625 29.90625 
Q 5.8125 33.546875 5.8125 39.890625 
Q 5.8125 47.609375 11.28125 51.796875 
Q 16.75 56 26.8125 56 
Q 31.78125 56 36.171875 55.265625 
Q 40.578125 54.546875 44.28125 53.078125 
z
" id="DejaVuSans-115"/>
      <path d="M 56.203125 29.59375 
L 56.203125 25.203125 
L 14.890625 25.203125 
Q 15.484375 15.921875 20.484375 11.0625 
Q 25.484375 6.203125 34.421875 6.203125 
Q 39.59375 6.203125 44.453125 7.46875 
Q 49.3125 8.734375 54.109375 11.28125 
L 54.109375 2.78125 
Q 49.265625 0.734375 44.1875 -0.34375 
Q 39.109375 -1.421875 33.890625 -1.421875 
Q 20.796875 -1.421875 13.15625 6.1875 
Q 5.515625 13.8125 5.515625 26.8125 
Q 5.515625 40.234375 12.765625 48.109375 
Q 20.015625 56 32.328125 56 
Q 43.359375 56 49.78125 48.890625 
Q 56.203125 41.796875 56.203125 29.59375 
z
M 47.21875 32.234375 
Q 47.125 39.59375 43.09375 43.984375 
Q 39.0625 48.390625 32.421875 48.390625 
Q 24.90625 48.390625 20.390625 44.140625 
Q 15.875 39.890625 15.1875 32.171875 
z
" id="DejaVuSans-101"/>
     </defs>
     <g transform="translate(492.225313 59.237813)scale(0.14 -0.14)">
      <use xlink:href="#DejaVuSans-98"/>
      <use x="63.476562" xlink:href="#DejaVuSans-97"/>
      <use x="124.755859" xlink:href="#DejaVuSans-115"/>
      <use x="176.855469" xlink:href="#DejaVuSans-101"/>
     </g>
    </g>
    <g id="patch_6">
     <path d="M 453.025313 79.787188 
L 481.025313 79.787188 
L 481.025313 69.987188 
L 453.025313 69.987188 
z
" style="fill:#36a2eb;opacity:0.5;stroke:#36a2eb;stroke-linejoin:miter;"/>
    </g>
    <g id="text_2">
     <!-- subs -->
     <defs>
      <path d="M 8.5 21.578125 
L 8.5 54.6875 
L 17.484375 54.6875 
L 17.484375 21.921875 
Q 17.484375 14.15625 20.5 10.265625 
Q 23.53125 6.390625 29.59375 6.390625 
Q 36.859375 6.390625 41.078125 11.03125 
Q 45.3125 15.671875 45.3125 23.6875 
L 45.3125 54.6875 
L 54.296875 54.6875 
L 54.296875 0 
L 45.3125 0 
L 45.3125 8.40625 
Q 42.046875 3.421875 37.71875 1 
Q 33.40625 -1.421875 27.6875 -1.421875 
Q 18.265625 -1.421875 13.375 4.4375 
Q 8.5 10.296875 8.5 21.578125 
z
M 31.109375 56 
z
" id="DejaVuSans-117"/>
     </defs>
     <g transform="translate(492.225313 79.787188)scale(0.14 -0.14)">
      <use xlink:href="#DejaVuSans-115"/>
      <use x="52.099609" xlink:href="#DejaVuSans-117"/>
      <use x="115.478516" xlink:href="#DejaVuSans-98"/>
      <use x="178.955078" xlink:href="#DejaVuSans-115"/>
     </g>
    </g>
   </g>
  </g>
  <g id="axes_2">
   <g id="patch_7">
    <path d="M 36 525.24 
L 538.2 525.24 
L 538.2 402.93 
L 36 402.93 
z
" style="fill:none;"/>
   </g>
   <g id="patch_8">
    <path clip-path="url(#p2c89a03a1a)" d="M 167.397381 519.680455 
L 376.022295 519.680455 
L 376.022295 482.616818 
L 167.397381 482.616818 
z
" style="fill:#ff6384;opacity:0.5;"/>
   </g>
   <g id="patch_9">
    <path clip-path="url(#p2c89a03a1a)" d="M 205.413476 445.553182 
L 409.279292 445.553182 
L 409.279292 408.489545 
L 205.413476 408.489545 
z
" style="fill:#36a2eb;opacity:0.5;"/>
   </g>
   <g id="matplotlib.axis_1">
    <g id="xtick_1">
     <g id="line2d_3">
      <defs>
       <path d="M 0 0 
L 0 3.5 
" id="m645540b972" style="stroke:#000000;stroke-width:0.8;"/>
      </defs>
      <g>
       <use style="stroke:#000000;stroke-width:0.8;" x="101.36715" xlink:href="#m645540b972" y="525.24"/>
      </g>
     </g>
     <g id="text_3">
      <!-- 4 -->
      <defs>
       <path d="M 37.796875 64.3125 
L 12.890625 25.390625 
L 37.796875 25.390625 
z
M 35.203125 72.90625 
L 47.609375 72.90625 
L 47.609375 25.390625 
L 58.015625 25.390625 
L 58.015625 17.1875 
L 47.609375 17.1875 
L 47.609375 0 
L 37.796875 0 
L 37.796875 17.1875 
L 4.890625 17.1875 
L 4.890625 26.703125 
z
" id="DejaVuSans-52"/>
      </defs>
      <g transform="translate(96.9134 542.877813)scale(0.14 -0.14)">
       <use xlink:href="#DejaVuSans-52"/>
      </g>
     </g>
    </g>
    <g id="xtick_2">
     <g id="line2d_4">
      <g>
       <use style="stroke:#000000;stroke-width:0.8;" x="172.640241" xlink:href="#m645540b972" y="525.24"/>
      </g>
     </g>
     <g id="text_4">
      <!-- 5 -->
      <defs>
       <path d="M 10.796875 72.90625 
L 49.515625 72.90625 
L 49.515625 64.59375 
L 19.828125 64.59375 
L 19.828125 46.734375 
Q 21.96875 47.46875 24.109375 47.828125 
Q 26.265625 48.1875 28.421875 48.1875 
Q 40.625 48.1875 47.75 41.5 
Q 54.890625 34.8125 54.890625 23.390625 
Q 54.890625 11.625 47.5625 5.09375 
Q 40.234375 -1.421875 26.90625 -1.421875 
Q 22.3125 -1.421875 17.546875 -0.640625 
Q 12.796875 0.140625 7.71875 1.703125 
L 7.71875 11.625 
Q 12.109375 9.234375 16.796875 8.0625 
Q 21.484375 6.890625 26.703125 6.890625 
Q 35.15625 6.890625 40.078125 11.328125 
Q 45.015625 15.765625 45.015625 23.390625 
Q 45.015625 31 40.078125 35.4375 
Q 35.15625 39.890625 26.703125 39.890625 
Q 22.75 39.890625 18.8125 39.015625 
Q 14.890625 38.140625 10.796875 36.28125 
z
" id="DejaVuSans-53"/>
      </defs>
      <g transform="translate(168.186491 542.877813)scale(0.14 -0.14)">
       <use xlink:href="#DejaVuSans-53"/>
      </g>
     </g>
    </g>
    <g id="xtick_3">
     <g id="line2d_5">
      <g>
       <use style="stroke:#000000;stroke-width:0.8;" x="243.913333" xlink:href="#m645540b972" y="525.24"/>
      </g>
     </g>
     <g id="text_5">
      <!-- 6 -->
      <defs>
       <path d="M 33.015625 40.375 
Q 26.375 40.375 22.484375 35.828125 
Q 18.609375 31.296875 18.609375 23.390625 
Q 18.609375 15.53125 22.484375 10.953125 
Q 26.375 6.390625 33.015625 6.390625 
Q 39.65625 6.390625 43.53125 10.953125 
Q 47.40625 15.53125 47.40625 23.390625 
Q 47.40625 31.296875 43.53125 35.828125 
Q 39.65625 40.375 33.015625 40.375 
z
M 52.59375 71.296875 
L 52.59375 62.3125 
Q 48.875 64.0625 45.09375 64.984375 
Q 41.3125 65.921875 37.59375 65.921875 
Q 27.828125 65.921875 22.671875 59.328125 
Q 17.53125 52.734375 16.796875 39.40625 
Q 19.671875 43.65625 24.015625 45.921875 
Q 28.375 48.1875 33.59375 48.1875 
Q 44.578125 48.1875 50.953125 41.515625 
Q 57.328125 34.859375 57.328125 23.390625 
Q 57.328125 12.15625 50.6875 5.359375 
Q 44.046875 -1.421875 33.015625 -1.421875 
Q 20.359375 -1.421875 13.671875 8.265625 
Q 6.984375 17.96875 6.984375 36.375 
Q 6.984375 53.65625 15.1875 63.9375 
Q 23.390625 74.21875 37.203125 74.21875 
Q 40.921875 74.21875 44.703125 73.484375 
Q 48.484375 72.75 52.59375 71.296875 
z
" id="DejaVuSans-54"/>
      </defs>
      <g transform="translate(239.459583 542.877813)scale(0.14 -0.14)">
       <use xlink:href="#DejaVuSans-54"/>
      </g>
     </g>
    </g>
    <g id="xtick_4">
     <g id="line2d_6">
      <g>
       <use style="stroke:#000000;stroke-width:0.8;" x="315.186424" xlink:href="#m645540b972" y="525.24"/>
      </g>
     </g>
     <g id="text_6">
      <!-- 7 -->
      <defs>
       <path d="M 8.203125 72.90625 
L 55.078125 72.90625 
L 55.078125 68.703125 
L 28.609375 0 
L 18.3125 0 
L 43.21875 64.59375 
L 8.203125 64.59375 
z
" id="DejaVuSans-55"/>
      </defs>
      <g transform="translate(310.732674 542.877813)scale(0.14 -0.14)">
       <use xlink:href="#DejaVuSans-55"/>
      </g>
     </g>
    </g>
    <g id="xtick_5">
     <g id="line2d_7">
      <g>
       <use style="stroke:#000000;stroke-width:0.8;" x="386.459515" xlink:href="#m645540b972" y="525.24"/>
      </g>
     </g>
     <g id="text_7">
      <!-- 8 -->
      <defs>
       <path d="M 31.78125 34.625 
Q 24.75 34.625 20.71875 30.859375 
Q 16.703125 27.09375 16.703125 20.515625 
Q 16.703125 13.921875 20.71875 10.15625 
Q 24.75 6.390625 31.78125 6.390625 
Q 38.8125 6.390625 42.859375 10.171875 
Q 46.921875 13.96875 46.921875 20.515625 
Q 46.921875 27.09375 42.890625 30.859375 
Q 38.875 34.625 31.78125 34.625 
z
M 21.921875 38.8125 
Q 15.578125 40.375 12.03125 44.71875 
Q 8.5 49.078125 8.5 55.328125 
Q 8.5 64.0625 14.71875 69.140625 
Q 20.953125 74.21875 31.78125 74.21875 
Q 42.671875 74.21875 48.875 69.140625 
Q 55.078125 64.0625 55.078125 55.328125 
Q 55.078125 49.078125 51.53125 44.71875 
Q 48 40.375 41.703125 38.8125 
Q 48.828125 37.15625 52.796875 32.3125 
Q 56.78125 27.484375 56.78125 20.515625 
Q 56.78125 9.90625 50.3125 4.234375 
Q 43.84375 -1.421875 31.78125 -1.421875 
Q 19.734375 -1.421875 13.25 4.234375 
Q 6.78125 9.90625 6.78125 20.515625 
Q 6.78125 27.484375 10.78125 32.3125 
Q 14.796875 37.15625 21.921875 38.8125 
z
M 18.3125 54.390625 
Q 18.3125 48.734375 21.84375 45.5625 
Q 25.390625 42.390625 31.78125 42.390625 
Q 38.140625 42.390625 41.71875 45.5625 
Q 45.3125 48.734375 45.3125 54.390625 
Q 45.3125 60.0625 41.71875 63.234375 
Q 38.140625 66.40625 31.78125 66.40625 
Q 25.390625 66.40625 21.84375 63.234375 
Q 18.3125 60.0625 18.3125 54.390625 
z
" id="DejaVuSans-56"/>
      </defs>
      <g transform="translate(382.005765 542.877813)scale(0.14 -0.14)">
       <use xlink:href="#DejaVuSans-56"/>
      </g>
     </g>
    </g>
    <g id="xtick_6">
     <g id="line2d_8">
      <g>
       <use style="stroke:#000000;stroke-width:0.8;" x="457.732606" xlink:href="#m645540b972" y="525.24"/>
      </g>
     </g>
     <g id="text_8">
      <!-- 9 -->
      <defs>
       <path d="M 10.984375 1.515625 
L 10.984375 10.5 
Q 14.703125 8.734375 18.5 7.8125 
Q 22.3125 6.890625 25.984375 6.890625 
Q 35.75 6.890625 40.890625 13.453125 
Q 46.046875 20.015625 46.78125 33.40625 
Q 43.953125 29.203125 39.59375 26.953125 
Q 35.25 24.703125 29.984375 24.703125 
Q 19.046875 24.703125 12.671875 31.3125 
Q 6.296875 37.9375 6.296875 49.421875 
Q 6.296875 60.640625 12.9375 67.421875 
Q 19.578125 74.21875 30.609375 74.21875 
Q 43.265625 74.21875 49.921875 64.515625 
Q 56.59375 54.828125 56.59375 36.375 
Q 56.59375 19.140625 48.40625 8.859375 
Q 40.234375 -1.421875 26.421875 -1.421875 
Q 22.703125 -1.421875 18.890625 -0.6875 
Q 15.09375 0.046875 10.984375 1.515625 
z
M 30.609375 32.421875 
Q 37.25 32.421875 41.125 36.953125 
Q 45.015625 41.5 45.015625 49.421875 
Q 45.015625 57.28125 41.125 61.84375 
Q 37.25 66.40625 30.609375 66.40625 
Q 23.96875 66.40625 20.09375 61.84375 
Q 16.21875 57.28125 16.21875 49.421875 
Q 16.21875 41.5 20.09375 36.953125 
Q 23.96875 32.421875 30.609375 32.421875 
z
" id="DejaVuSans-57"/>
      </defs>
      <g transform="translate(453.278856 542.877813)scale(0.14 -0.14)">
       <use xlink:href="#DejaVuSans-57"/>
      </g>
     </g>
    </g>
    <g id="xtick_7">
     <g id="line2d_9">
      <g>
       <use style="stroke:#000000;stroke-width:0.8;" x="529.005698" xlink:href="#m645540b972" y="525.24"/>
      </g>
     </g>
     <g id="text_9">
      <!-- 10 -->
      <defs>
       <path d="M 12.40625 8.296875 
L 28.515625 8.296875 
L 28.515625 63.921875 
L 10.984375 60.40625 
L 10.984375 69.390625 
L 28.421875 72.90625 
L 38.28125 72.90625 
L 38.28125 8.296875 
L 54.390625 8.296875 
L 54.390625 0 
L 12.40625 0 
z
" id="DejaVuSans-49"/>
       <path d="M 31.78125 66.40625 
Q 24.171875 66.40625 20.328125 58.90625 
Q 16.5 51.421875 16.5 36.375 
Q 16.5 21.390625 20.328125 13.890625 
Q 24.171875 6.390625 31.78125 6.390625 
Q 39.453125 6.390625 43.28125 13.890625 
Q 47.125 21.390625 47.125 36.375 
Q 47.125 51.421875 43.28125 58.90625 
Q 39.453125 66.40625 31.78125 66.40625 
z
M 31.78125 74.21875 
Q 44.046875 74.21875 50.515625 64.515625 
Q 56.984375 54.828125 56.984375 36.375 
Q 56.984375 17.96875 50.515625 8.265625 
Q 44.046875 -1.421875 31.78125 -1.421875 
Q 19.53125 -1.421875 13.0625 8.265625 
Q 6.59375 17.96875 6.59375 36.375 
Q 6.59375 54.828125 13.0625 64.515625 
Q 19.53125 74.21875 31.78125 74.21875 
z
" id="DejaVuSans-48"/>
      </defs>
      <g transform="translate(520.098198 542.877813)scale(0.14 -0.14)">
       <use xlink:href="#DejaVuSans-49"/>
       <use x="63.623047" xlink:href="#DejaVuSans-48"/>
      </g>
     </g>
    </g>
   </g>
   <g id="line2d_10">
    <path clip-path="url(#p2c89a03a1a)" d="M 271.709838 525.24 
L 271.709838 402.93 
" style="fill:none;stroke:#ff6384;stroke-dasharray:5.55,2.4;stroke-dashoffset:0;stroke-opacity:0.8;stroke-width:1.5;"/>
   </g>
   <g id="line2d_11">
    <path clip-path="url(#p2c89a03a1a)" d="M 307.346384 525.24 
L 307.346384 402.93 
" style="fill:none;stroke:#36a2eb;stroke-dasharray:5.55,2.4;stroke-dashoffset:0;stroke-opacity:0.8;stroke-width:1.5;"/>
   </g>
   <g id="patch_10">
    <path d="M 36 525.24 
L 538.2 525.24 
" style="fill:none;stroke:#000000;stroke-linecap:square;stroke-linejoin:miter;stroke-width:0.8;"/>
   </g>
  </g>
 </g>
 <defs>
  <clipPath id="p12f9378bba">
   <rect height="366.93" width="502.2" x="36" y="36"/>
  </clipPath>
  <clipPath id="p2c89a03a1a">
   <rect height="122.31" width="502.2" x="36" y="402.93"/>
  </clipPath>
 </defs>
</svg>
