<?xml version="1.0" encoding="utf-8" standalone="no"?>
<!DOCTYPE svg PUBLIC "-//W3C//DTD SVG 1.1//EN"
  "http://www.w3.org/Graphics/SVG/1.1/DTD/svg11.dtd">
<!-- Created with matplotlib (https://matplotlib.org/) -->
<svg height="581.789375pt" version="1.1" viewBox="0 0 588.130913 581.789375" width="588.130913pt" xmlns="http://www.w3.org/2000/svg" xmlns:xlink="http://www.w3.org/1999/xlink">
 <defs>
  <style type="text/css">
*{stroke-linecap:butt;stroke-linejoin:round;}
  </style>
 </defs>
 <g id="figure_1">
  <g id="patch_1">
   <path d="M 0 581.789375 
L 588.130913 581.789375 
L 588.130913 0 
L 0 0 
z
" style="fill:none;"/>
  </g>
  <g id="axes_1">
   <g id="patch_2">
    <path d="M 36 402.93 
L 538.2 402.93 
L 538.2 36 
L 36 36 
z
" style="fill:none;"/>
   </g>
   <g id="PolyCollection_1">
    <defs>
     <path d="M 58.827273 -195.538011 
L 58.827273 -195.650004 
L 62.531081 -195.692234 
L 66.23489 -195.749007 
L 69.938698 -195.8248 
L 73.642507 -195.925281 
L 77.346316 -196.057565 
L 81.050124 -196.230497 
L 84.753933 -196.454982 
L 88.457741 -196.744335 
L 92.16155 -197.114666 
L 95.865358 -197.585273 
L 99.569167 -198.179047 
L 103.272975 -198.922859 
L 106.976784 -199.847921 
L 110.680593 -200.990079 
L 114.384401 -202.390029 
L 118.08821 -204.093399 
L 121.792018 -206.150691 
L 125.495827 -208.617009 
L 129.199635 -211.551575 
L 132.903444 -215.016962 
L 136.607252 -219.078053 
L 140.311061 -223.800667 
L 144.01487 -229.249878 
L 147.718678 -235.488004 
L 151.422487 -242.572312 
L 155.126295 -250.552459 
L 158.830104 -259.467747 
L 162.533912 -269.344261 
L 166.237721 -280.192004 
L 169.941529 -292.002137 
L 173.645338 -304.744465 
L 177.349147 -318.365297 
L 181.052955 -332.785841 
L 184.756764 -347.901251 
L 188.460572 -363.580456 
L 192.164381 -379.666871 
L 195.868189 -395.980052 
L 199.571998 -412.31833 
L 203.275806 -428.4624 
L 206.979615 -444.179822 
L 210.683424 -459.230303 
L 214.387232 -473.371627 
L 218.091041 -486.366018 
L 221.794849 -497.986726 
L 225.498658 -508.02457 
L 229.202466 -516.294181 
L 232.906275 -522.639693 
L 236.610084 -526.939623 
L 240.313892 -529.110739 
L 244.017701 -529.110739 
L 247.721509 -526.939623 
L 251.425318 -522.639693 
L 255.129126 -516.294181 
L 258.832935 -508.02457 
L 262.536743 -497.986726 
L 266.240552 -486.366018 
L 269.944361 -473.371627 
L 273.648169 -459.230303 
L 277.351978 -444.179822 
L 281.055786 -428.4624 
L 284.759595 -412.31833 
L 288.463403 -395.980052 
L 292.167212 -379.666871 
L 295.87102 -363.580456 
L 299.574829 -347.901251 
L 303.278638 -332.785841 
L 306.982446 -318.365297 
L 310.686255 -304.744465 
L 314.390063 -292.002137 
L 318.093872 -280.192004 
L 321.79768 -269.344261 
L 325.501489 -259.467747 
L 329.205297 -250.552459 
L 332.909106 -242.572312 
L 336.612915 -235.488004 
L 340.316723 -229.249878 
L 344.020532 -223.800667 
L 347.72434 -219.078053 
L 351.428149 -215.016962 
L 355.131957 -211.551575 
L 358.835766 -208.617009 
L 362.539574 -206.150691 
L 366.243383 -204.093399 
L 369.947192 -202.390029 
L 373.651 -200.990079 
L 377.354809 -199.847921 
L 381.058617 -198.922859 
L 384.762426 -198.179047 
L 388.466234 -197.585273 
L 392.170043 -197.114666 
L 395.873852 -196.744335 
L 399.57766 -196.454982 
L 403.281469 -196.230497 
L 406.985277 -196.057565 
L 410.689086 -195.925281 
L 414.392894 -195.8248 
L 418.096703 -195.749007 
L 421.800511 -195.692234 
L 425.50432 -195.650004 
L 425.50432 -195.538011 
L 425.50432 -195.538011 
L 421.800511 -195.538011 
L 418.096703 -195.538011 
L 414.392894 -195.538011 
L 410.689086 -195.538011 
L 406.985277 -195.538011 
L 403.281469 -195.538011 
L 399.57766 -195.538011 
L 395.873852 -195.538011 
L 392.170043 -195.538011 
L 388.466234 -195.538011 
L 384.762426 -195.538011 
L 381.058617 -195.538011 
L 377.354809 -195.538011 
L 373.651 -195.538011 
L 369.947192 -195.538011 
L 366.243383 -195.538011 
L 362.539574 -195.538011 
L 358.835766 -195.538011 
L 355.131957 -195.538011 
L 351.428149 -195.538011 
L 347.72434 -195.538011 
L 344.020532 -195.538011 
L 340.316723 -195.538011 
L 336.612915 -195.538011 
L 332.909106 -195.538011 
L 329.205297 -195.538011 
L 325.501489 -195.538011 
L 321.79768 -195.538011 
L 318.093872 -195.538011 
L 314.390063 -195.538011 
L 310.686255 -195.538011 
L 306.982446 -195.538011 
L 303.278638 -195.538011 
L 299.574829 -195.538011 
L 295.87102 -195.538011 
L 292.167212 -195.538011 
L 288.463403 -195.538011 
L 284.759595 -195.538011 
L 281.055786 -195.538011 
L 277.351978 -195.538011 
L 273.648169 -195.538011 
L 269.944361 -195.538011 
L 266.240552 -195.538011 
L 262.536743 -195.538011 
L 258.832935 -195.538011 
L 255.129126 -195.538011 
L 251.425318 -195.538011 
L 247.721509 -195.538011 
L 244.017701 -195.538011 
L 240.313892 -195.538011 
L 236.610084 -195.538011 
L 232.906275 -195.538011 
L 229.202466 -195.538011 
L 225.498658 -195.538011 
L 221.794849 -195.538011 
L 218.091041 -195.538011 
L 214.387232 -195.538011 
L 210.683424 -195.538011 
L 206.979615 -195.538011 
L 203.275806 -195.538011 
L 199.571998 -195.538011 
L 195.868189 -195.538011 
L 192.164381 -195.538011 
L 188.460572 -195.538011 
L 184.756764 -195.538011 
L 181.052955 -195.538011 
L 177.349147 -195.538011 
L 173.645338 -195.538011 
L 169.941529 -195.538011 
L 166.237721 -195.538011 
L 162.533912 -195.538011 
L 158.830104 -195.538011 
L 155.126295 -195.538011 
L 151.422487 -195.538011 
L 147.718678 -195.538011 
L 144.01487 -195.538011 
L 140.311061 -195.538011 
L 136.607252 -195.538011 
L 132.903444 -195.538011 
L 129.199635 -195.538011 
L 125.495827 -195.538011 
L 121.792018 -195.538011 
L 118.08821 -195.538011 
L 114.384401 -195.538011 
L 110.680593 -195.538011 
L 106.976784 -195.538011 
L 103.272975 -195.538011 
L 99.569167 -195.538011 
L 95.865358 -195.538011 
L 92.16155 -195.538011 
L 88.457741 -195.538011 
L 84.753933 -195.538011 
L 81.050124 -195.538011 
L 77.346316 -195.538011 
L 73.642507 -195.538011 
L 69.938698 -195.538011 
L 66.23489 -195.538011 
L 62.531081 -195.538011 
L 58.827273 -195.538011 
z
" id="mb31c7fae96" style="stroke:#ff6384;stroke-opacity:0.5;"/>
    </defs>
    <g clip-path="url(#p880809d579)">
     <use style="fill:#ff6384;fill-opacity:0.5;stroke:#ff6384;stroke-opacity:0.5;" x="0" xlink:href="#mb31c7fae96" y="581.789375"/>
    </g>
   </g>
   <g id="PolyCollection_2">
    <defs>
     <path d="M 100.33821 -195.538011 
L 100.33821 -195.636955 
L 104.530478 -195.674265 
L 108.722746 -195.724423 
L 112.915014 -195.791385 
L 117.107281 -195.880159 
L 121.299549 -195.997029 
L 125.491817 -196.149812 
L 129.684085 -196.348141 
L 133.876353 -196.603781 
L 138.068621 -196.930963 
L 142.260889 -197.346738 
L 146.453156 -197.871328 
L 150.645424 -198.528476 
L 154.837692 -199.345755 
L 159.02996 -200.354835 
L 163.222228 -201.59167 
L 167.414496 -203.096574 
L 171.606763 -204.914162 
L 175.799031 -207.093119 
L 179.991299 -209.685765 
L 184.183567 -212.747385 
L 188.375835 -216.335301 
L 192.568103 -220.507663 
L 196.760371 -225.321962 
L 200.952638 -230.833257 
L 205.144906 -237.092142 
L 209.337174 -244.142488 
L 213.529442 -252.019016 
L 217.72171 -260.744775 
L 221.913978 -270.3286 
L 226.106246 -280.762684 
L 230.298513 -292.020348 
L 234.490781 -304.054158 
L 238.683049 -316.794502 
L 242.875317 -330.14875 
L 247.067585 -344.001102 
L 251.259853 -358.213219 
L 255.452121 -372.625682 
L 259.644388 -387.060316 
L 263.836656 -401.32337 
L 268.028924 -415.209487 
L 272.221192 -428.506371 
L 276.41346 -441.000028 
L 280.605728 -452.480387 
L 284.797995 -462.747116 
L 288.990263 -471.615407 
L 293.182531 -478.92149 
L 297.374799 -484.527659 
L 301.567067 -488.326585 
L 305.759335 -490.244735 
L 309.951603 -490.244735 
L 314.14387 -488.326585 
L 318.336138 -484.527659 
L 322.528406 -478.92149 
L 326.720674 -471.615407 
L 330.912942 -462.747116 
L 335.10521 -452.480387 
L 339.297478 -441.000028 
L 343.489745 -428.506371 
L 347.682013 -415.209487 
L 351.874281 -401.32337 
L 356.066549 -387.060316 
L 360.258817 -372.625682 
L 364.451085 -358.213219 
L 368.643352 -344.001102 
L 372.83562 -330.14875 
L 377.027888 -316.794502 
L 381.220156 -304.054158 
L 385.412424 -292.020348 
L 389.604692 -280.762684 
L 393.79696 -270.3286 
L 397.989227 -260.744775 
L 402.181495 -252.019016 
L 406.373763 -244.142488 
L 410.566031 -237.092142 
L 414.758299 -230.833257 
L 418.950567 -225.321962 
L 423.142835 -220.507663 
L 427.335102 -216.335301 
L 431.52737 -212.747385 
L 435.719638 -209.685765 
L 439.911906 -207.093119 
L 444.104174 -204.914162 
L 448.296442 -203.096574 
L 452.48871 -201.59167 
L 456.680977 -200.354835 
L 460.873245 -199.345755 
L 465.065513 -198.528476 
L 469.257781 -197.871328 
L 473.450049 -197.346738 
L 477.642317 -196.930963 
L 481.834584 -196.603781 
L 486.026852 -196.348141 
L 490.21912 -196.149812 
L 494.411388 -195.997029 
L 498.603656 -195.880159 
L 502.795924 -195.791385 
L 506.988192 -195.724423 
L 511.180459 -195.674265 
L 515.372727 -195.636955 
L 515.372727 -195.538011 
L 515.372727 -195.538011 
L 511.180459 -195.538011 
L 506.988192 -195.538011 
L 502.795924 -195.538011 
L 498.603656 -195.538011 
L 494.411388 -195.538011 
L 490.21912 -195.538011 
L 486.026852 -195.538011 
L 481.834584 -195.538011 
L 477.642317 -195.538011 
L 473.450049 -195.538011 
L 469.257781 -195.538011 
L 465.065513 -195.538011 
L 460.873245 -195.538011 
L 456.680977 -195.538011 
L 452.48871 -195.538011 
L 448.296442 -195.538011 
L 444.104174 -195.538011 
L 439.911906 -195.538011 
L 435.719638 -195.538011 
L 431.52737 -195.538011 
L 427.335102 -195.538011 
L 423.142835 -195.538011 
L 418.950567 -195.538011 
L 414.758299 -195.538011 
L 410.566031 -195.538011 
L 406.373763 -195.538011 
L 402.181495 -195.538011 
L 397.989227 -195.538011 
L 393.79696 -195.538011 
L 389.604692 -195.538011 
L 385.412424 -195.538011 
L 381.220156 -195.538011 
L 377.027888 -195.538011 
L 372.83562 -195.538011 
L 368.643352 -195.538011 
L 364.451085 -195.538011 
L 360.258817 -195.538011 
L 356.066549 -195.538011 
L 351.874281 -195.538011 
L 347.682013 -195.538011 
L 343.489745 -195.538011 
L 339.297478 -195.538011 
L 335.10521 -195.538011 
L 330.912942 -195.538011 
L 326.720674 -195.538011 
L 322.528406 -195.538011 
L 318.336138 -195.538011 
L 314.14387 -195.538011 
L 309.951603 -195.538011 
L 305.759335 -195.538011 
L 301.567067 -195.538011 
L 297.374799 -195.538011 
L 293.182531 -195.538011 
L 288.990263 -195.538011 
L 284.797995 -195.538011 
L 280.605728 -195.538011 
L 276.41346 -195.538011 
L 272.221192 -195.538011 
L 268.028924 -195.538011 
L 263.836656 -195.538011 
L 259.644388 -195.538011 
L 255.452121 -195.538011 
L 251.259853 -195.538011 
L 247.067585 -195.538011 
L 242.875317 -195.538011 
L 238.683049 -195.538011 
L 234.490781 -195.538011 
L 230.298513 -195.538011 
L 226.106246 -195.538011 
L 221.913978 -195.538011 
L 217.72171 -195.538011 
L 213.529442 -195.538011 
L 209.337174 -195.538011 
L 205.144906 -195.538011 
L 200.952638 -195.538011 
L 196.760371 -195.538011 
L 192.568103 -195.538011 
L 188.375835 -195.538011 
L 184.183567 -195.538011 
L 179.991299 -195.538011 
L 175.799031 -195.538011 
L 171.606763 -195.538011 
L 167.414496 -195.538011 
L 163.222228 -195.538011 
L 159.02996 -195.538011 
L 154.837692 -195.538011 
L 150.645424 -195.538011 
L 146.453156 -195.538011 
L 142.260889 -195.538011 
L 138.068621 -195.538011 
L 133.876353 -195.538011 
L 129.684085 -195.538011 
L 125.491817 -195.538011 
L 121.299549 -195.538011 
L 117.107281 -195.538011 
L 112.915014 -195.538011 
L 108.722746 -195.538011 
L 104.530478 -195.538011 
L 100.33821 -195.538011 
z
" id="m00c28ca05b" style="stroke:#36a2eb;stroke-opacity:0.5;"/>
    </defs>
    <g clip-path="url(#p880809d579)">
     <use style="fill:#36a2eb;fill-opacity:0.5;stroke:#36a2eb;stroke-opacity:0.5;" x="0" xlink:href="#m00c28ca05b" y="581.789375"/>
    </g>
   </g>
   <g id="line2d_1">
    <path clip-path="url(#p880809d579)" d="M 58.827273 386.139371 
L 62.531081 386.097141 
L 66.23489 386.040368 
L 69.938698 385.964575 
L 73.642507 385.864094 
L 77.346316 385.73181 
L 81.050124 385.558878 
L 84.753933 385.334393 
L 88.457741 385.04504 
L 92.16155 384.674709 
L 95.865358 384.204102 
L 99.569167 383.610328 
L 103.272975 382.866516 
L 106.976784 381.941454 
L 110.680593 380.799296 
L 114.384401 379.399346 
L 118.08821 377.695976 
L 121.792018 375.638684 
L 125.495827 373.172366 
L 129.199635 370.2378 
L 132.903444 366.772413 
L 136.607252 362.711322 
L 140.311061 357.988708 
L 144.01487 352.539497 
L 147.718678 346.301371 
L 151.422487 339.217063 
L 155.126295 331.236916 
L 158.830104 322.321628 
L 162.533912 312.445114 
L 166.237721 301.597371 
L 169.941529 289.787238 
L 173.645338 277.04491 
L 177.349147 263.424078 
L 181.052955 249.003534 
L 184.756764 233.888124 
L 188.460572 218.208919 
L 192.164381 202.122504 
L 195.868189 185.809323 
L 199.571998 169.471045 
L 203.275806 153.326975 
L 206.979615 137.609553 
L 210.683424 122.559072 
L 214.387232 108.417748 
L 218.091041 95.423357 
L 221.794849 83.802649 
L 225.498658 73.764805 
L 229.202466 65.495194 
L 232.906275 59.149682 
L 236.610084 54.849752 
L 240.313892 52.678636 
L 244.017701 52.678636 
L 247.721509 54.849752 
L 251.425318 59.149682 
L 255.129126 65.495194 
L 258.832935 73.764805 
L 262.536743 83.802649 
L 266.240552 95.423357 
L 269.944361 108.417748 
L 273.648169 122.559072 
L 277.351978 137.609553 
L 281.055786 153.326975 
L 284.759595 169.471045 
L 288.463403 185.809323 
L 292.167212 202.122504 
L 295.87102 218.208919 
L 299.574829 233.888124 
L 303.278638 249.003534 
L 306.982446 263.424078 
L 310.686255 277.04491 
L 314.390063 289.787238 
L 318.093872 301.597371 
L 321.79768 312.445114 
L 325.501489 322.321628 
L 329.205297 331.236916 
L 332.909106 339.217063 
L 336.612915 346.301371 
L 340.316723 352.539497 
L 344.020532 357.988708 
L 347.72434 362.711322 
L 351.428149 366.772413 
L 355.131957 370.2378 
L 358.835766 373.172366 
L 362.539574 375.638684 
L 366.243383 377.695976 
L 369.947192 379.399346 
L 373.651 380.799296 
L 377.354809 381.941454 
L 381.058617 382.866516 
L 384.762426 383.610328 
L 388.466234 384.204102 
L 392.170043 384.674709 
L 395.873852 385.04504 
L 399.57766 385.334393 
L 403.281469 385.558878 
L 406.985277 385.73181 
L 410.689086 385.864094 
L 414.392894 385.964575 
L 418.096703 386.040368 
L 421.800511 386.097141 
L 425.50432 386.139371 
" style="fill:none;stroke:#ff6384;stroke-linecap:square;"/>
   </g>
   <g id="line2d_2">
    <path clip-path="url(#p880809d579)" d="M 100.33821 386.15242 
L 104.530478 386.11511 
L 108.722746 386.064952 
L 112.915014 385.99799 
L 117.107281 385.909216 
L 121.299549 385.792346 
L 125.491817 385.639563 
L 129.684085 385.441234 
L 133.876353 385.185594 
L 138.068621 384.858412 
L 142.260889 384.442637 
L 146.453156 383.918047 
L 150.645424 383.260899 
L 154.837692 382.44362 
L 159.02996 381.43454 
L 163.222228 380.197705 
L 167.414496 378.692801 
L 171.606763 376.875213 
L 175.799031 374.696256 
L 179.991299 372.10361 
L 184.183567 369.04199 
L 188.375835 365.454074 
L 192.568103 361.281712 
L 196.760371 356.467413 
L 200.952638 350.956118 
L 205.144906 344.697233 
L 209.337174 337.646887 
L 213.529442 329.770359 
L 217.72171 321.0446 
L 221.913978 311.460775 
L 226.106246 301.026691 
L 230.298513 289.769027 
L 234.490781 277.735217 
L 238.683049 264.994873 
L 242.875317 251.640625 
L 247.067585 237.788273 
L 251.259853 223.576156 
L 255.452121 209.163693 
L 259.644388 194.729059 
L 263.836656 180.466005 
L 268.028924 166.579888 
L 272.221192 153.283004 
L 276.41346 140.789347 
L 280.605728 129.308988 
L 284.797995 119.042259 
L 288.990263 110.173968 
L 293.182531 102.867885 
L 297.374799 97.261716 
L 301.567067 93.46279 
L 305.759335 91.54464 
L 309.951603 91.54464 
L 314.14387 93.46279 
L 318.336138 97.261716 
L 322.528406 102.867885 
L 326.720674 110.173968 
L 330.912942 119.042259 
L 335.10521 129.308988 
L 339.297478 140.789347 
L 343.489745 153.283004 
L 347.682013 166.579888 
L 351.874281 180.466005 
L 356.066549 194.729059 
L 360.258817 209.163693 
L 364.451085 223.576156 
L 368.643352 237.788273 
L 372.83562 251.640625 
L 377.027888 264.994873 
L 381.220156 277.735217 
L 385.412424 289.769027 
L 389.604692 301.026691 
L 393.79696 311.460775 
L 397.989227 321.0446 
L 402.181495 329.770359 
L 406.373763 337.646887 
L 410.566031 344.697233 
L 414.758299 350.956118 
L 418.950567 356.467413 
L 423.142835 361.281712 
L 427.335102 365.454074 
L 431.52737 369.04199 
L 435.719638 372.10361 
L 439.911906 374.696256 
L 444.104174 376.875213 
L 448.296442 378.692801 
L 452.48871 380.197705 
L 456.680977 381.43454 
L 460.873245 382.44362 
L 465.065513 383.260899 
L 469.257781 383.918047 
L 473.450049 384.442637 
L 477.642317 384.858412 
L 481.834584 385.185594 
L 486.026852 385.441234 
L 490.21912 385.639563 
L 494.411388 385.792346 
L 498.603656 385.909216 
L 502.795924 385.99799 
L 506.988192 386.064952 
L 511.180459 386.11511 
L 515.372727 386.15242 
" style="fill:none;stroke:#36a2eb;stroke-linecap:square;"/>
   </g>
   <g id="patch_3">
    <path d="M 36 402.93 
L 538.2 402.93 
" style="fill:none;stroke:#000000;stroke-linecap:square;stroke-linejoin:miter;stroke-width:0.8;"/>
   </g>
   <g id="legend_1">
    <g id="patch_4">
     <path d="M 430.8725 88.29875 
L 528.4 88.29875 
Q 531.2 88.29875 531.2 85.49875 
L 531.2 45.8 
Q 531.2 43 528.4 43 
L 430.8725 43 
Q 428.0725 43 428.0725 45.8 
L 428.0725 85.49875 
Q 428.0725 88.29875 430.8725 88.29875 
z
" style="fill:#ffffff;opacity:0.8;stroke:#cccccc;stroke-linejoin:miter;"/>
    </g>
    <g id="patch_5">
     <path d="M 433.6725 59.237813 
L 461.6725 59.237813 
L 461.6725 49.437813 
L 433.6725 49.437813 
z
" style="fill:#ff6384;opacity:0.5;stroke:#ff6384;stroke-linejoin:miter;"/>
    </g>
    <g id="text_1">
     <!-- base -->
     <defs>
      <path d="M 48.6875 27.296875 
Q 48.6875 37.203125 44.609375 42.84375 
Q 40.53125 48.484375 33.40625 48.484375 
Q 26.265625 48.484375 22.1875 42.84375 
Q 18.109375 37.203125 18.109375 27.296875 
Q 18.109375 17.390625 22.1875 11.75 
Q 26.265625 6.109375 33.40625 6.109375 
Q 40.53125 6.109375 44.609375 11.75 
Q 48.6875 17.390625 48.6875 27.296875 
z
M 18.109375 46.390625 
Q 20.953125 51.265625 25.265625 53.625 
Q 29.59375 56 35.59375 56 
Q 45.5625 56 51.78125 48.09375 
Q 58.015625 40.1875 58.015625 27.296875 
Q 58.015625 14.40625 51.78125 6.484375 
Q 45.5625 -1.421875 35.59375 -1.421875 
Q 29.59375 -1.421875 25.265625 0.953125 
Q 20.953125 3.328125 18.109375 8.203125 
L 18.109375 0 
L 9.078125 0 
L 9.078125 75.984375 
L 18.109375 75.984375 
z
" id="DejaVuSans-98"/>
      <path d="M 34.28125 27.484375 
Q 23.390625 27.484375 19.1875 25 
Q 14.984375 22.515625 14.984375 16.5 
Q 14.984375 11.71875 18.140625 8.90625 
Q 21.296875 6.109375 26.703125 6.109375 
Q 34.1875 6.109375 38.703125 11.40625 
Q 43.21875 16.703125 43.21875 25.484375 
L 43.21875 27.484375 
z
M 52.203125 31.203125 
L 52.203125 0 
L 43.21875 0 
L 43.21875 8.296875 
Q 40.140625 3.328125 35.546875 0.953125 
Q 30.953125 -1.421875 24.3125 -1.421875 
Q 15.921875 -1.421875 10.953125 3.296875 
Q 6 8.015625 6 15.921875 
Q 6 25.140625 12.171875 29.828125 
Q 18.359375 34.515625 30.609375 34.515625 
L 43.21875 34.515625 
L 43.21875 35.40625 
Q 43.21875 41.609375 39.140625 45 
Q 35.0625 48.390625 27.6875 48.390625 
Q 23 48.390625 18.546875 47.265625 
Q 14.109375 46.140625 10.015625 43.890625 
L 10.015625 52.203125 
Q 14.9375 54.109375 19.578125 55.046875 
Q 24.21875 56 28.609375 56 
Q 40.484375 56 46.34375 49.84375 
Q 52.203125 43.703125 52.203125 31.203125 
z
" id="DejaVuSans-97"/>
      <path d="M 44.28125 53.078125 
L 44.28125 44.578125 
Q 40.484375 46.53125 36.375 47.5 
Q 32.28125 48.484375 27.875 48.484375 
Q 21.1875 48.484375 17.84375 46.4375 
Q 14.5 44.390625 14.5 40.28125 
Q 14.5 37.15625 16.890625 35.375 
Q 19.28125 33.59375 26.515625 31.984375 
L 29.59375 31.296875 
Q 39.15625 29.25 43.1875 25.515625 
Q 47.21875 21.78125 47.21875 15.09375 
Q 47.21875 7.46875 41.1875 3.015625 
Q 35.15625 -1.421875 24.609375 -1.421875 
Q 20.21875 -1.421875 15.453125 -0.5625 
Q 10.6875 0.296875 5.421875 2 
L 5.421875 11.28125 
Q 10.40625 8.6875 15.234375 7.390625 
Q 20.0625 6.109375 24.8125 6.109375 
Q 31.15625 6.109375 34.5625 8.28125 
Q 37.984375 10.453125 37.984375 14.40625 
Q 37.984375 18.0625 35.515625 20.015625 
Q 33.0625 21.96875 24.703125 23.78125 
L 21.578125 24.515625 
Q 13.234375 26.265625 9.515625 29.90625 
Q 5.8125 33.546875 5.8125 39.890625 
Q 5.8125 47.609375 11.28125 51.796875 
Q 16.75 56 26.8125 56 
Q 31.78125 56 36.171875 55.265625 
Q 40.578125 54.546875 44.28125 53.078125 
z
" id="DejaVuSans-115"/>
      <path d="M 56.203125 29.59375 
L 56.203125 25.203125 
L 14.890625 25.203125 
Q 15.484375 15.921875 20.484375 11.0625 
Q 25.484375 6.203125 34.421875 6.203125 
Q 39.59375 6.203125 44.453125 7.46875 
Q 49.3125 8.734375 54.109375 11.28125 
L 54.109375 2.78125 
Q 49.265625 0.734375 44.1875 -0.34375 
Q 39.109375 -1.421875 33.890625 -1.421875 
Q 20.796875 -1.421875 13.15625 6.1875 
Q 5.515625 13.8125 5.515625 26.8125 
Q 5.515625 40.234375 12.765625 48.109375 
Q 20.015625 56 32.328125 56 
Q 43.359375 56 49.78125 48.890625 
Q 56.203125 41.796875 56.203125 29.59375 
z
M 47.21875 32.234375 
Q 47.125 39.59375 43.09375 43.984375 
Q 39.0625 48.390625 32.421875 48.390625 
Q 24.90625 48.390625 20.390625 44.140625 
Q 15.875 39.890625 15.1875 32.171875 
z
" id="DejaVuSans-101"/>
     </defs>
     <g transform="translate(472.8725 59.237813)scale(0.14 -0.14)">
      <use xlink:href="#DejaVuSans-98"/>
      <use x="63.476562" xlink:href="#DejaVuSans-97"/>
      <use x="124.755859" xlink:href="#DejaVuSans-115"/>
      <use x="176.855469" xlink:href="#DejaVuSans-101"/>
     </g>
    </g>
    <g id="patch_6">
     <path d="M 433.6725 79.787188 
L 461.6725 79.787188 
L 461.6725 69.987188 
L 433.6725 69.987188 
z
" style="fill:#36a2eb;opacity:0.5;stroke:#36a2eb;stroke-linejoin:miter;"/>
    </g>
    <g id="text_2">
     <!-- policies -->
     <defs>
      <path d="M 18.109375 8.203125 
L 18.109375 -20.796875 
L 9.078125 -20.796875 
L 9.078125 54.6875 
L 18.109375 54.6875 
L 18.109375 46.390625 
Q 20.953125 51.265625 25.265625 53.625 
Q 29.59375 56 35.59375 56 
Q 45.5625 56 51.78125 48.09375 
Q 58.015625 40.1875 58.015625 27.296875 
Q 58.015625 14.40625 51.78125 6.484375 
Q 45.5625 -1.421875 35.59375 -1.421875 
Q 29.59375 -1.421875 25.265625 0.953125 
Q 20.953125 3.328125 18.109375 8.203125 
z
M 48.6875 27.296875 
Q 48.6875 37.203125 44.609375 42.84375 
Q 40.53125 48.484375 33.40625 48.484375 
Q 26.265625 48.484375 22.1875 42.84375 
Q 18.109375 37.203125 18.109375 27.296875 
Q 18.109375 17.390625 22.1875 11.75 
Q 26.265625 6.109375 33.40625 6.109375 
Q 40.53125 6.109375 44.609375 11.75 
Q 48.6875 17.390625 48.6875 27.296875 
z
" id="DejaVuSans-112"/>
      <path d="M 30.609375 48.390625 
Q 23.390625 48.390625 19.1875 42.75 
Q 14.984375 37.109375 14.984375 27.296875 
Q 14.984375 17.484375 19.15625 11.84375 
Q 23.34375 6.203125 30.609375 6.203125 
Q 37.796875 6.203125 41.984375 11.859375 
Q 46.1875 17.53125 46.1875 27.296875 
Q 46.1875 37.015625 41.984375 42.703125 
Q 37.796875 48.390625 30.609375 48.390625 
z
M 30.609375 56 
Q 42.328125 56 49.015625 48.375 
Q 55.71875 40.765625 55.71875 27.296875 
Q 55.71875 13.875 49.015625 6.21875 
Q 42.328125 -1.421875 30.609375 -1.421875 
Q 18.84375 -1.421875 12.171875 6.21875 
Q 5.515625 13.875 5.515625 27.296875 
Q 5.515625 40.765625 12.171875 48.375 
Q 18.84375 56 30.609375 56 
z
" id="DejaVuSans-111"/>
      <path d="M 9.421875 75.984375 
L 18.40625 75.984375 
L 18.40625 0 
L 9.421875 0 
z
" id="DejaVuSans-108"/>
      <path d="M 9.421875 54.6875 
L 18.40625 54.6875 
L 18.40625 0 
L 9.421875 0 
z
M 9.421875 75.984375 
L 18.40625 75.984375 
L 18.40625 64.59375 
L 9.421875 64.59375 
z
" id="DejaVuSans-105"/>
      <path d="M 48.78125 52.59375 
L 48.78125 44.1875 
Q 44.96875 46.296875 41.140625 47.34375 
Q 37.3125 48.390625 33.40625 48.390625 
Q 24.65625 48.390625 19.8125 42.84375 
Q 14.984375 37.3125 14.984375 27.296875 
Q 14.984375 17.28125 19.8125 11.734375 
Q 24.65625 6.203125 33.40625 6.203125 
Q 37.3125 6.203125 41.140625 7.25 
Q 44.96875 8.296875 48.78125 10.40625 
L 48.78125 2.09375 
Q 45.015625 0.34375 40.984375 -0.53125 
Q 36.96875 -1.421875 32.421875 -1.421875 
Q 20.0625 -1.421875 12.78125 6.34375 
Q 5.515625 14.109375 5.515625 27.296875 
Q 5.515625 40.671875 12.859375 48.328125 
Q 20.21875 56 33.015625 56 
Q 37.15625 56 41.109375 55.140625 
Q 45.0625 54.296875 48.78125 52.59375 
z
" id="DejaVuSans-99"/>
     </defs>
     <g transform="translate(472.8725 79.787188)scale(0.14 -0.14)">
      <use xlink:href="#DejaVuSans-112"/>
      <use x="63.476562" xlink:href="#DejaVuSans-111"/>
      <use x="124.658203" xlink:href="#DejaVuSans-108"/>
      <use x="152.441406" xlink:href="#DejaVuSans-105"/>
      <use x="180.224609" xlink:href="#DejaVuSans-99"/>
      <use x="235.205078" xlink:href="#DejaVuSans-105"/>
      <use x="262.988281" xlink:href="#DejaVuSans-101"/>
      <use x="324.511719" xlink:href="#DejaVuSans-115"/>
     </g>
    </g>
   </g>
  </g>
  <g id="axes_2">
   <g id="patch_7">
    <path d="M 36 525.24 
L 538.2 525.24 
L 538.2 402.93 
L 36 402.93 
z
" style="fill:none;"/>
   </g>
   <g id="patch_8">
    <path clip-path="url(#p2a381c0119)" d="M 152.32992 519.680455 
L 332.001673 519.680455 
L 332.001673 482.616818 
L 152.32992 482.616818 
z
" style="fill:#ff6384;opacity:0.5;"/>
   </g>
   <g id="patch_9">
    <path clip-path="url(#p2a381c0119)" d="M 206.172012 445.553182 
L 409.538925 445.553182 
L 409.538925 408.489545 
L 206.172012 408.489545 
z
" style="fill:#36a2eb;opacity:0.5;"/>
   </g>
   <g id="matplotlib.axis_1">
    <g id="xtick_1">
     <g id="line2d_3">
      <defs>
       <path d="M 0 0 
L 0 3.5 
" id="m7c8a0d8b8b" style="stroke:#000000;stroke-width:0.8;"/>
      </defs>
      <g>
       <use style="stroke:#000000;stroke-width:0.8;" x="64.280176" xlink:href="#m7c8a0d8b8b" y="525.24"/>
      </g>
     </g>
     <g id="text_3">
      <!-- 5.0 -->
      <defs>
       <path d="M 10.796875 72.90625 
L 49.515625 72.90625 
L 49.515625 64.59375 
L 19.828125 64.59375 
L 19.828125 46.734375 
Q 21.96875 47.46875 24.109375 47.828125 
Q 26.265625 48.1875 28.421875 48.1875 
Q 40.625 48.1875 47.75 41.5 
Q 54.890625 34.8125 54.890625 23.390625 
Q 54.890625 11.625 47.5625 5.09375 
Q 40.234375 -1.421875 26.90625 -1.421875 
Q 22.3125 -1.421875 17.546875 -0.640625 
Q 12.796875 0.140625 7.71875 1.703125 
L 7.71875 11.625 
Q 12.109375 9.234375 16.796875 8.0625 
Q 21.484375 6.890625 26.703125 6.890625 
Q 35.15625 6.890625 40.078125 11.328125 
Q 45.015625 15.765625 45.015625 23.390625 
Q 45.015625 31 40.078125 35.4375 
Q 35.15625 39.890625 26.703125 39.890625 
Q 22.75 39.890625 18.8125 39.015625 
Q 14.890625 38.140625 10.796875 36.28125 
z
" id="DejaVuSans-53"/>
       <path d="M 10.6875 12.40625 
L 21 12.40625 
L 21 0 
L 10.6875 0 
z
" id="DejaVuSans-46"/>
       <path d="M 31.78125 66.40625 
Q 24.171875 66.40625 20.328125 58.90625 
Q 16.5 51.421875 16.5 36.375 
Q 16.5 21.390625 20.328125 13.890625 
Q 24.171875 6.390625 31.78125 6.390625 
Q 39.453125 6.390625 43.28125 13.890625 
Q 47.125 21.390625 47.125 36.375 
Q 47.125 51.421875 43.28125 58.90625 
Q 39.453125 66.40625 31.78125 66.40625 
z
M 31.78125 74.21875 
Q 44.046875 74.21875 50.515625 64.515625 
Q 56.984375 54.828125 56.984375 36.375 
Q 56.984375 17.96875 50.515625 8.265625 
Q 44.046875 -1.421875 31.78125 -1.421875 
Q 19.53125 -1.421875 13.0625 8.265625 
Q 6.59375 17.96875 6.59375 36.375 
Q 6.59375 54.828125 13.0625 64.515625 
Q 19.53125 74.21875 31.78125 74.21875 
z
" id="DejaVuSans-48"/>
      </defs>
      <g transform="translate(53.147988 542.877813)scale(0.14 -0.14)">
       <use xlink:href="#DejaVuSans-53"/>
       <use x="63.623047" xlink:href="#DejaVuSans-46"/>
       <use x="95.410156" xlink:href="#DejaVuSans-48"/>
      </g>
     </g>
    </g>
    <g id="xtick_2">
     <g id="line2d_4">
      <g>
       <use style="stroke:#000000;stroke-width:0.8;" x="123.313276" xlink:href="#m7c8a0d8b8b" y="525.24"/>
      </g>
     </g>
     <g id="text_4">
      <!-- 7.5 -->
      <defs>
       <path d="M 8.203125 72.90625 
L 55.078125 72.90625 
L 55.078125 68.703125 
L 28.609375 0 
L 18.3125 0 
L 43.21875 64.59375 
L 8.203125 64.59375 
z
" id="DejaVuSans-55"/>
      </defs>
      <g transform="translate(112.181088 542.877813)scale(0.14 -0.14)">
       <use xlink:href="#DejaVuSans-55"/>
       <use x="63.623047" xlink:href="#DejaVuSans-46"/>
       <use x="95.410156" xlink:href="#DejaVuSans-53"/>
      </g>
     </g>
    </g>
    <g id="xtick_3">
     <g id="line2d_5">
      <g>
       <use style="stroke:#000000;stroke-width:0.8;" x="182.346376" xlink:href="#m7c8a0d8b8b" y="525.24"/>
      </g>
     </g>
     <g id="text_5">
      <!-- 10.0 -->
      <defs>
       <path d="M 12.40625 8.296875 
L 28.515625 8.296875 
L 28.515625 63.921875 
L 10.984375 60.40625 
L 10.984375 69.390625 
L 28.421875 72.90625 
L 38.28125 72.90625 
L 38.28125 8.296875 
L 54.390625 8.296875 
L 54.390625 0 
L 12.40625 0 
z
" id="DejaVuSans-49"/>
      </defs>
      <g transform="translate(166.760438 542.877813)scale(0.14 -0.14)">
       <use xlink:href="#DejaVuSans-49"/>
       <use x="63.623047" xlink:href="#DejaVuSans-48"/>
       <use x="127.246094" xlink:href="#DejaVuSans-46"/>
       <use x="159.033203" xlink:href="#DejaVuSans-48"/>
      </g>
     </g>
    </g>
    <g id="xtick_4">
     <g id="line2d_6">
      <g>
       <use style="stroke:#000000;stroke-width:0.8;" x="241.379475" xlink:href="#m7c8a0d8b8b" y="525.24"/>
      </g>
     </g>
     <g id="text_6">
      <!-- 12.5 -->
      <defs>
       <path d="M 19.1875 8.296875 
L 53.609375 8.296875 
L 53.609375 0 
L 7.328125 0 
L 7.328125 8.296875 
Q 12.9375 14.109375 22.625 23.890625 
Q 32.328125 33.6875 34.8125 36.53125 
Q 39.546875 41.84375 41.421875 45.53125 
Q 43.3125 49.21875 43.3125 52.78125 
Q 43.3125 58.59375 39.234375 62.25 
Q 35.15625 65.921875 28.609375 65.921875 
Q 23.96875 65.921875 18.8125 64.3125 
Q 13.671875 62.703125 7.8125 59.421875 
L 7.8125 69.390625 
Q 13.765625 71.78125 18.9375 73 
Q 24.125 74.21875 28.421875 74.21875 
Q 39.75 74.21875 46.484375 68.546875 
Q 53.21875 62.890625 53.21875 53.421875 
Q 53.21875 48.921875 51.53125 44.890625 
Q 49.859375 40.875 45.40625 35.40625 
Q 44.1875 33.984375 37.640625 27.21875 
Q 31.109375 20.453125 19.1875 8.296875 
z
" id="DejaVuSans-50"/>
      </defs>
      <g transform="translate(225.793538 542.877813)scale(0.14 -0.14)">
       <use xlink:href="#DejaVuSans-49"/>
       <use x="63.623047" xlink:href="#DejaVuSans-50"/>
       <use x="127.246094" xlink:href="#DejaVuSans-46"/>
       <use x="159.033203" xlink:href="#DejaVuSans-53"/>
      </g>
     </g>
    </g>
    <g id="xtick_5">
     <g id="line2d_7">
      <g>
       <use style="stroke:#000000;stroke-width:0.8;" x="300.412575" xlink:href="#m7c8a0d8b8b" y="525.24"/>
      </g>
     </g>
     <g id="text_7">
      <!-- 15.0 -->
      <g transform="translate(284.826638 542.877813)scale(0.14 -0.14)">
       <use xlink:href="#DejaVuSans-49"/>
       <use x="63.623047" xlink:href="#DejaVuSans-53"/>
       <use x="127.246094" xlink:href="#DejaVuSans-46"/>
       <use x="159.033203" xlink:href="#DejaVuSans-48"/>
      </g>
     </g>
    </g>
    <g id="xtick_6">
     <g id="line2d_8">
      <g>
       <use style="stroke:#000000;stroke-width:0.8;" x="359.445675" xlink:href="#m7c8a0d8b8b" y="525.24"/>
      </g>
     </g>
     <g id="text_8">
      <!-- 17.5 -->
      <g transform="translate(343.859738 542.877813)scale(0.14 -0.14)">
       <use xlink:href="#DejaVuSans-49"/>
       <use x="63.623047" xlink:href="#DejaVuSans-55"/>
       <use x="127.246094" xlink:href="#DejaVuSans-46"/>
       <use x="159.033203" xlink:href="#DejaVuSans-53"/>
      </g>
     </g>
    </g>
    <g id="xtick_7">
     <g id="line2d_9">
      <g>
       <use style="stroke:#000000;stroke-width:0.8;" x="418.478775" xlink:href="#m7c8a0d8b8b" y="525.24"/>
      </g>
     </g>
     <g id="text_9">
      <!-- 20.0 -->
      <g transform="translate(402.892838 542.877813)scale(0.14 -0.14)">
       <use xlink:href="#DejaVuSans-50"/>
       <use x="63.623047" xlink:href="#DejaVuSans-48"/>
       <use x="127.246094" xlink:href="#DejaVuSans-46"/>
       <use x="159.033203" xlink:href="#DejaVuSans-48"/>
      </g>
     </g>
    </g>
    <g id="xtick_8">
     <g id="line2d_10">
      <g>
       <use style="stroke:#000000;stroke-width:0.8;" x="477.511875" xlink:href="#m7c8a0d8b8b" y="525.24"/>
      </g>
     </g>
     <g id="text_10">
      <!-- 22.5 -->
      <g transform="translate(461.925938 542.877813)scale(0.14 -0.14)">
       <use xlink:href="#DejaVuSans-50"/>
       <use x="63.623047" xlink:href="#DejaVuSans-50"/>
       <use x="127.246094" xlink:href="#DejaVuSans-46"/>
       <use x="159.033203" xlink:href="#DejaVuSans-53"/>
      </g>
     </g>
    </g>
    <g id="xtick_9">
     <g id="line2d_11">
      <g>
       <use style="stroke:#000000;stroke-width:0.8;" x="536.544975" xlink:href="#m7c8a0d8b8b" y="525.24"/>
      </g>
     </g>
     <g id="text_11">
      <!-- 25.0 -->
      <g transform="translate(520.959038 542.877813)scale(0.14 -0.14)">
       <use xlink:href="#DejaVuSans-50"/>
       <use x="63.623047" xlink:href="#DejaVuSans-53"/>
       <use x="127.246094" xlink:href="#DejaVuSans-46"/>
       <use x="159.033203" xlink:href="#DejaVuSans-48"/>
      </g>
     </g>
    </g>
   </g>
   <g id="line2d_12">
    <path clip-path="url(#p2a381c0119)" d="M 242.165796 525.24 
L 242.165796 402.93 
" style="fill:none;stroke:#ff6384;stroke-dasharray:5.55,2.4;stroke-dashoffset:0;stroke-opacity:0.8;stroke-width:1.5;"/>
   </g>
   <g id="line2d_13">
    <path clip-path="url(#p2a381c0119)" d="M 307.855469 525.24 
L 307.855469 402.93 
" style="fill:none;stroke:#36a2eb;stroke-dasharray:5.55,2.4;stroke-dashoffset:0;stroke-opacity:0.8;stroke-width:1.5;"/>
   </g>
   <g id="patch_10">
    <path d="M 36 525.24 
L 538.2 525.24 
" style="fill:none;stroke:#000000;stroke-linecap:square;stroke-linejoin:miter;stroke-width:0.8;"/>
   </g>
  </g>
 </g>
 <defs>
  <clipPath id="p880809d579">
   <rect height="366.93" width="502.2" x="36" y="36"/>
  </clipPath>
  <clipPath id="p2a381c0119">
   <rect height="122.31" width="502.2" x="36" y="402.93"/>
  </clipPath>
 </defs>
</svg>
