<?xml version="1.0" encoding="utf-8" standalone="no"?>
<!DOCTYPE svg PUBLIC "-//W3C//DTD SVG 1.1//EN"
  "http://www.w3.org/Graphics/SVG/1.1/DTD/svg11.dtd">
<!-- Created with matplotlib (https://matplotlib.org/) -->
<svg height="581.789375pt" version="1.1" viewBox="0 0 574.2 581.789375" width="574.2pt" xmlns="http://www.w3.org/2000/svg" xmlns:xlink="http://www.w3.org/1999/xlink">
 <defs>
  <style type="text/css">
*{stroke-linecap:butt;stroke-linejoin:round;}
  </style>
 </defs>
 <g id="figure_1">
  <g id="patch_1">
   <path d="M 0 581.789375 
L 574.2 581.789375 
L 574.2 0 
L 0 0 
z
" style="fill:none;"/>
  </g>
  <g id="axes_1">
   <g id="patch_2">
    <path d="M 36 402.93 
L 538.2 402.93 
L 538.2 36 
L 36 36 
z
" style="fill:none;"/>
   </g>
   <g id="PolyCollection_1">
    <defs>
     <path d="M 58.827273 -195.538011 
L 58.827273 -195.649592 
L 63.398313 -195.691667 
L 67.969354 -195.74823 
L 72.540394 -195.823744 
L 77.111435 -195.923856 
L 81.682475 -196.055653 
L 86.253515 -196.227948 
L 90.824556 -196.451607 
L 95.395596 -196.739895 
L 99.966637 -197.108863 
L 104.537677 -197.577738 
L 109.108718 -198.169326 
L 113.679758 -198.9104 
L 118.250799 -199.832057 
L 122.821839 -200.970012 
L 127.392879 -202.364808 
L 131.96392 -204.061909 
L 136.53496 -206.111629 
L 141.106001 -208.568869 
L 145.677041 -211.492633 
L 150.248082 -214.945266 
L 154.819122 -218.991409 
L 159.390163 -223.696641 
L 163.961203 -229.125794 
L 168.532243 -235.34096 
L 173.103284 -242.399192 
L 177.674324 -250.349967 
L 182.245365 -259.23244 
L 186.816405 -269.072601 
L 191.387446 -279.880417 
L 195.958486 -291.647081 
L 200.529527 -304.342507 
L 205.100567 -317.913205 
L 209.671607 -332.280671 
L 214.242648 -347.340445 
L 218.813688 -362.96194 
L 223.384729 -378.989145 
L 227.955769 -395.242283 
L 232.52681 -411.520424 
L 237.09785 -427.605072 
L 241.668891 -443.264642 
L 246.239931 -458.259727 
L 250.810971 -472.349001 
L 255.382012 -485.295563 
L 259.953052 -496.873499 
L 264.524093 -506.874396 
L 269.095133 -515.11357 
L 273.666174 -521.435726 
L 278.237214 -525.719829 
L 282.808255 -527.882953 
L 287.379295 -527.882953 
L 291.950335 -525.719829 
L 296.521376 -521.435726 
L 301.092416 -515.11357 
L 305.663457 -506.874396 
L 310.234497 -496.873499 
L 314.805538 -485.295563 
L 319.376578 -472.349001 
L 323.947619 -458.259727 
L 328.518659 -443.264642 
L 333.089699 -427.605072 
L 337.66074 -411.520424 
L 342.23178 -395.242283 
L 346.802821 -378.989145 
L 351.373861 -362.96194 
L 355.944902 -347.340445 
L 360.515942 -332.280671 
L 365.086983 -317.913205 
L 369.658023 -304.342507 
L 374.229063 -291.647081 
L 378.800104 -279.880417 
L 383.371144 -269.072601 
L 387.942185 -259.23244 
L 392.513225 -250.349967 
L 397.084266 -242.399192 
L 401.655306 -235.34096 
L 406.226347 -229.125794 
L 410.797387 -223.696641 
L 415.368427 -218.991409 
L 419.939468 -214.945266 
L 424.510508 -211.492633 
L 429.081549 -208.568869 
L 433.652589 -206.111629 
L 438.22363 -204.061909 
L 442.79467 -202.364808 
L 447.365711 -200.970012 
L 451.936751 -199.832057 
L 456.507791 -198.9104 
L 461.078832 -198.169326 
L 465.649872 -197.577738 
L 470.220913 -197.108863 
L 474.791953 -196.739895 
L 479.362994 -196.451607 
L 483.934034 -196.227948 
L 488.505075 -196.055653 
L 493.076115 -195.923856 
L 497.647155 -195.823744 
L 502.218196 -195.74823 
L 506.789236 -195.691667 
L 511.360277 -195.649592 
L 511.360277 -195.538011 
L 511.360277 -195.538011 
L 506.789236 -195.538011 
L 502.218196 -195.538011 
L 497.647155 -195.538011 
L 493.076115 -195.538011 
L 488.505075 -195.538011 
L 483.934034 -195.538011 
L 479.362994 -195.538011 
L 474.791953 -195.538011 
L 470.220913 -195.538011 
L 465.649872 -195.538011 
L 461.078832 -195.538011 
L 456.507791 -195.538011 
L 451.936751 -195.538011 
L 447.365711 -195.538011 
L 442.79467 -195.538011 
L 438.22363 -195.538011 
L 433.652589 -195.538011 
L 429.081549 -195.538011 
L 424.510508 -195.538011 
L 419.939468 -195.538011 
L 415.368427 -195.538011 
L 410.797387 -195.538011 
L 406.226347 -195.538011 
L 401.655306 -195.538011 
L 397.084266 -195.538011 
L 392.513225 -195.538011 
L 387.942185 -195.538011 
L 383.371144 -195.538011 
L 378.800104 -195.538011 
L 374.229063 -195.538011 
L 369.658023 -195.538011 
L 365.086983 -195.538011 
L 360.515942 -195.538011 
L 355.944902 -195.538011 
L 351.373861 -195.538011 
L 346.802821 -195.538011 
L 342.23178 -195.538011 
L 337.66074 -195.538011 
L 333.089699 -195.538011 
L 328.518659 -195.538011 
L 323.947619 -195.538011 
L 319.376578 -195.538011 
L 314.805538 -195.538011 
L 310.234497 -195.538011 
L 305.663457 -195.538011 
L 301.092416 -195.538011 
L 296.521376 -195.538011 
L 291.950335 -195.538011 
L 287.379295 -195.538011 
L 282.808255 -195.538011 
L 278.237214 -195.538011 
L 273.666174 -195.538011 
L 269.095133 -195.538011 
L 264.524093 -195.538011 
L 259.953052 -195.538011 
L 255.382012 -195.538011 
L 250.810971 -195.538011 
L 246.239931 -195.538011 
L 241.668891 -195.538011 
L 237.09785 -195.538011 
L 232.52681 -195.538011 
L 227.955769 -195.538011 
L 223.384729 -195.538011 
L 218.813688 -195.538011 
L 214.242648 -195.538011 
L 209.671607 -195.538011 
L 205.100567 -195.538011 
L 200.529527 -195.538011 
L 195.958486 -195.538011 
L 191.387446 -195.538011 
L 186.816405 -195.538011 
L 182.245365 -195.538011 
L 177.674324 -195.538011 
L 173.103284 -195.538011 
L 168.532243 -195.538011 
L 163.961203 -195.538011 
L 159.390163 -195.538011 
L 154.819122 -195.538011 
L 150.248082 -195.538011 
L 145.677041 -195.538011 
L 141.106001 -195.538011 
L 136.53496 -195.538011 
L 131.96392 -195.538011 
L 127.392879 -195.538011 
L 122.821839 -195.538011 
L 118.250799 -195.538011 
L 113.679758 -195.538011 
L 109.108718 -195.538011 
L 104.537677 -195.538011 
L 99.966637 -195.538011 
L 95.395596 -195.538011 
L 90.824556 -195.538011 
L 86.253515 -195.538011 
L 81.682475 -195.538011 
L 77.111435 -195.538011 
L 72.540394 -195.538011 
L 67.969354 -195.538011 
L 63.398313 -195.538011 
L 58.827273 -195.538011 
z
" id="m38f1412e73" style="stroke:#ff6384;stroke-opacity:0.5;"/>
    </defs>
    <g clip-path="url(#pff6a354347)">
     <use style="fill:#ff6384;fill-opacity:0.5;stroke:#ff6384;stroke-opacity:0.5;" x="0" xlink:href="#m38f1412e73" y="581.789375"/>
    </g>
   </g>
   <g id="PolyCollection_2">
    <defs>
     <path d="M 64.505368 -195.538011 
L 64.505368 -195.650004 
L 69.059583 -195.692234 
L 73.613799 -195.749007 
L 78.168015 -195.8248 
L 82.722231 -195.925281 
L 87.276446 -196.057565 
L 91.830662 -196.230497 
L 96.384878 -196.454982 
L 100.939094 -196.744335 
L 105.493309 -197.114666 
L 110.047525 -197.585273 
L 114.601741 -198.179047 
L 119.155957 -198.922859 
L 123.710172 -199.847921 
L 128.264388 -200.990079 
L 132.818604 -202.390029 
L 137.37282 -204.093399 
L 141.927035 -206.150691 
L 146.481251 -208.617009 
L 151.035467 -211.551575 
L 155.589683 -215.016962 
L 160.143898 -219.078053 
L 164.698114 -223.800667 
L 169.25233 -229.249878 
L 173.806546 -235.488004 
L 178.360761 -242.572312 
L 182.914977 -250.552459 
L 187.469193 -259.467747 
L 192.023409 -269.344261 
L 196.577625 -280.192004 
L 201.13184 -292.002137 
L 205.686056 -304.744465 
L 210.240272 -318.365297 
L 214.794488 -332.785841 
L 219.348703 -347.901251 
L 223.902919 -363.580456 
L 228.457135 -379.666871 
L 233.011351 -395.980052 
L 237.565566 -412.31833 
L 242.119782 -428.4624 
L 246.673998 -444.179822 
L 251.228214 -459.230303 
L 255.782429 -473.371627 
L 260.336645 -486.366018 
L 264.890861 -497.986726 
L 269.445077 -508.02457 
L 273.999292 -516.294181 
L 278.553508 -522.639693 
L 283.107724 -526.939623 
L 287.66194 -529.110739 
L 292.216155 -529.110739 
L 296.770371 -526.939623 
L 301.324587 -522.639693 
L 305.878803 -516.294181 
L 310.433018 -508.02457 
L 314.987234 -497.986726 
L 319.54145 -486.366018 
L 324.095666 -473.371627 
L 328.649881 -459.230303 
L 333.204097 -444.179822 
L 337.758313 -428.4624 
L 342.312529 -412.31833 
L 346.866744 -395.980052 
L 351.42096 -379.666871 
L 355.975176 -363.580456 
L 360.529392 -347.901251 
L 365.083607 -332.785841 
L 369.637823 -318.365297 
L 374.192039 -304.744465 
L 378.746255 -292.002137 
L 383.30047 -280.192004 
L 387.854686 -269.344261 
L 392.408902 -259.467747 
L 396.963118 -250.552459 
L 401.517333 -242.572312 
L 406.071549 -235.488004 
L 410.625765 -229.249878 
L 415.179981 -223.800667 
L 419.734196 -219.078053 
L 424.288412 -215.016962 
L 428.842628 -211.551575 
L 433.396844 -208.617009 
L 437.951059 -206.150691 
L 442.505275 -204.093399 
L 447.059491 -202.390029 
L 451.613707 -200.990079 
L 456.167922 -199.847921 
L 460.722138 -198.922859 
L 465.276354 -198.179047 
L 469.83057 -197.585273 
L 474.384785 -197.114666 
L 478.939001 -196.744335 
L 483.493217 -196.454982 
L 488.047433 -196.230497 
L 492.601649 -196.057565 
L 497.155864 -195.925281 
L 501.71008 -195.8248 
L 506.264296 -195.749007 
L 510.818512 -195.692234 
L 515.372727 -195.650004 
L 515.372727 -195.538011 
L 515.372727 -195.538011 
L 510.818512 -195.538011 
L 506.264296 -195.538011 
L 501.71008 -195.538011 
L 497.155864 -195.538011 
L 492.601649 -195.538011 
L 488.047433 -195.538011 
L 483.493217 -195.538011 
L 478.939001 -195.538011 
L 474.384785 -195.538011 
L 469.83057 -195.538011 
L 465.276354 -195.538011 
L 460.722138 -195.538011 
L 456.167922 -195.538011 
L 451.613707 -195.538011 
L 447.059491 -195.538011 
L 442.505275 -195.538011 
L 437.951059 -195.538011 
L 433.396844 -195.538011 
L 428.842628 -195.538011 
L 424.288412 -195.538011 
L 419.734196 -195.538011 
L 415.179981 -195.538011 
L 410.625765 -195.538011 
L 406.071549 -195.538011 
L 401.517333 -195.538011 
L 396.963118 -195.538011 
L 392.408902 -195.538011 
L 387.854686 -195.538011 
L 383.30047 -195.538011 
L 378.746255 -195.538011 
L 374.192039 -195.538011 
L 369.637823 -195.538011 
L 365.083607 -195.538011 
L 360.529392 -195.538011 
L 355.975176 -195.538011 
L 351.42096 -195.538011 
L 346.866744 -195.538011 
L 342.312529 -195.538011 
L 337.758313 -195.538011 
L 333.204097 -195.538011 
L 328.649881 -195.538011 
L 324.095666 -195.538011 
L 319.54145 -195.538011 
L 314.987234 -195.538011 
L 310.433018 -195.538011 
L 305.878803 -195.538011 
L 301.324587 -195.538011 
L 296.770371 -195.538011 
L 292.216155 -195.538011 
L 287.66194 -195.538011 
L 283.107724 -195.538011 
L 278.553508 -195.538011 
L 273.999292 -195.538011 
L 269.445077 -195.538011 
L 264.890861 -195.538011 
L 260.336645 -195.538011 
L 255.782429 -195.538011 
L 251.228214 -195.538011 
L 246.673998 -195.538011 
L 242.119782 -195.538011 
L 237.565566 -195.538011 
L 233.011351 -195.538011 
L 228.457135 -195.538011 
L 223.902919 -195.538011 
L 219.348703 -195.538011 
L 214.794488 -195.538011 
L 210.240272 -195.538011 
L 205.686056 -195.538011 
L 201.13184 -195.538011 
L 196.577625 -195.538011 
L 192.023409 -195.538011 
L 187.469193 -195.538011 
L 182.914977 -195.538011 
L 178.360761 -195.538011 
L 173.806546 -195.538011 
L 169.25233 -195.538011 
L 164.698114 -195.538011 
L 160.143898 -195.538011 
L 155.589683 -195.538011 
L 151.035467 -195.538011 
L 146.481251 -195.538011 
L 141.927035 -195.538011 
L 137.37282 -195.538011 
L 132.818604 -195.538011 
L 128.264388 -195.538011 
L 123.710172 -195.538011 
L 119.155957 -195.538011 
L 114.601741 -195.538011 
L 110.047525 -195.538011 
L 105.493309 -195.538011 
L 100.939094 -195.538011 
L 96.384878 -195.538011 
L 91.830662 -195.538011 
L 87.276446 -195.538011 
L 82.722231 -195.538011 
L 78.168015 -195.538011 
L 73.613799 -195.538011 
L 69.059583 -195.538011 
L 64.505368 -195.538011 
z
" id="mf46aca2898" style="stroke:#36a2eb;stroke-opacity:0.5;"/>
    </defs>
    <g clip-path="url(#pff6a354347)">
     <use style="fill:#36a2eb;fill-opacity:0.5;stroke:#36a2eb;stroke-opacity:0.5;" x="0" xlink:href="#mf46aca2898" y="581.789375"/>
    </g>
   </g>
   <g id="line2d_1">
    <path clip-path="url(#pff6a354347)" d="M 58.827273 386.139783 
L 63.398313 386.097708 
L 67.969354 386.041145 
L 72.540394 385.965631 
L 77.111435 385.865519 
L 81.682475 385.733722 
L 86.253515 385.561427 
L 90.824556 385.337768 
L 95.395596 385.04948 
L 99.966637 384.680512 
L 104.537677 384.211637 
L 109.108718 383.620049 
L 113.679758 382.878975 
L 118.250799 381.957318 
L 122.821839 380.819363 
L 127.392879 379.424567 
L 131.96392 377.727466 
L 136.53496 375.677746 
L 141.106001 373.220506 
L 145.677041 370.296742 
L 150.248082 366.844109 
L 154.819122 362.797966 
L 159.390163 358.092734 
L 163.961203 352.663581 
L 168.532243 346.448415 
L 173.103284 339.390183 
L 177.674324 331.439408 
L 182.245365 322.556935 
L 186.816405 312.716774 
L 191.387446 301.908958 
L 195.958486 290.142294 
L 200.529527 277.446868 
L 205.100567 263.87617 
L 209.671607 249.508704 
L 214.242648 234.44893 
L 218.813688 218.827435 
L 223.384729 202.80023 
L 227.955769 186.547092 
L 232.52681 170.268951 
L 237.09785 154.184303 
L 241.668891 138.524733 
L 246.239931 123.529648 
L 250.810971 109.440374 
L 255.382012 96.493812 
L 259.953052 84.915876 
L 264.524093 74.914979 
L 269.095133 66.675805 
L 273.666174 60.353649 
L 278.237214 56.069546 
L 282.808255 53.906422 
L 287.379295 53.906422 
L 291.950335 56.069546 
L 296.521376 60.353649 
L 301.092416 66.675805 
L 305.663457 74.914979 
L 310.234497 84.915876 
L 314.805538 96.493812 
L 319.376578 109.440374 
L 323.947619 123.529648 
L 328.518659 138.524733 
L 333.089699 154.184303 
L 337.66074 170.268951 
L 342.23178 186.547092 
L 346.802821 202.80023 
L 351.373861 218.827435 
L 355.944902 234.44893 
L 360.515942 249.508704 
L 365.086983 263.87617 
L 369.658023 277.446868 
L 374.229063 290.142294 
L 378.800104 301.908958 
L 383.371144 312.716774 
L 387.942185 322.556935 
L 392.513225 331.439408 
L 397.084266 339.390183 
L 401.655306 346.448415 
L 406.226347 352.663581 
L 410.797387 358.092734 
L 415.368427 362.797966 
L 419.939468 366.844109 
L 424.510508 370.296742 
L 429.081549 373.220506 
L 433.652589 375.677746 
L 438.22363 377.727466 
L 442.79467 379.424567 
L 447.365711 380.819363 
L 451.936751 381.957318 
L 456.507791 382.878975 
L 461.078832 383.620049 
L 465.649872 384.211637 
L 470.220913 384.680512 
L 474.791953 385.04948 
L 479.362994 385.337768 
L 483.934034 385.561427 
L 488.505075 385.733722 
L 493.076115 385.865519 
L 497.647155 385.965631 
L 502.218196 386.041145 
L 506.789236 386.097708 
L 511.360277 386.139783 
" style="fill:none;stroke:#ff6384;stroke-linecap:square;"/>
   </g>
   <g id="line2d_2">
    <path clip-path="url(#pff6a354347)" d="M 64.505368 386.139371 
L 69.059583 386.097141 
L 73.613799 386.040368 
L 78.168015 385.964575 
L 82.722231 385.864094 
L 87.276446 385.73181 
L 91.830662 385.558878 
L 96.384878 385.334393 
L 100.939094 385.04504 
L 105.493309 384.674709 
L 110.047525 384.204102 
L 114.601741 383.610328 
L 119.155957 382.866516 
L 123.710172 381.941454 
L 128.264388 380.799296 
L 132.818604 379.399346 
L 137.37282 377.695976 
L 141.927035 375.638684 
L 146.481251 373.172366 
L 151.035467 370.2378 
L 155.589683 366.772413 
L 160.143898 362.711322 
L 164.698114 357.988708 
L 169.25233 352.539497 
L 173.806546 346.301371 
L 178.360761 339.217063 
L 182.914977 331.236916 
L 187.469193 322.321628 
L 192.023409 312.445114 
L 196.577625 301.597371 
L 201.13184 289.787238 
L 205.686056 277.04491 
L 210.240272 263.424078 
L 214.794488 249.003534 
L 219.348703 233.888124 
L 223.902919 218.208919 
L 228.457135 202.122504 
L 233.011351 185.809323 
L 237.565566 169.471045 
L 242.119782 153.326975 
L 246.673998 137.609553 
L 251.228214 122.559072 
L 255.782429 108.417748 
L 260.336645 95.423357 
L 264.890861 83.802649 
L 269.445077 73.764805 
L 273.999292 65.495194 
L 278.553508 59.149682 
L 283.107724 54.849752 
L 287.66194 52.678636 
L 292.216155 52.678636 
L 296.770371 54.849752 
L 301.324587 59.149682 
L 305.878803 65.495194 
L 310.433018 73.764805 
L 314.987234 83.802649 
L 319.54145 95.423357 
L 324.095666 108.417748 
L 328.649881 122.559072 
L 333.204097 137.609553 
L 337.758313 153.326975 
L 342.312529 169.471045 
L 346.866744 185.809323 
L 351.42096 202.122504 
L 355.975176 218.208919 
L 360.529392 233.888124 
L 365.083607 249.003534 
L 369.637823 263.424078 
L 374.192039 277.04491 
L 378.746255 289.787238 
L 383.30047 301.597371 
L 387.854686 312.445114 
L 392.408902 322.321628 
L 396.963118 331.236916 
L 401.517333 339.217063 
L 406.071549 346.301371 
L 410.625765 352.539497 
L 415.179981 357.988708 
L 419.734196 362.711322 
L 424.288412 366.772413 
L 428.842628 370.2378 
L 433.396844 373.172366 
L 437.951059 375.638684 
L 442.505275 377.695976 
L 447.059491 379.399346 
L 451.613707 380.799296 
L 456.167922 381.941454 
L 460.722138 382.866516 
L 465.276354 383.610328 
L 469.83057 384.204102 
L 474.384785 384.674709 
L 478.939001 385.04504 
L 483.493217 385.334393 
L 488.047433 385.558878 
L 492.601649 385.73181 
L 497.155864 385.864094 
L 501.71008 385.964575 
L 506.264296 386.040368 
L 510.818512 386.097141 
L 515.372727 386.139371 
" style="fill:none;stroke:#36a2eb;stroke-linecap:square;"/>
   </g>
   <g id="patch_3">
    <path d="M 36 402.93 
L 538.2 402.93 
" style="fill:none;stroke:#000000;stroke-linecap:square;stroke-linejoin:miter;stroke-width:0.8;"/>
   </g>
   <g id="legend_1">
    <g id="patch_4">
     <path d="M 430.8725 88.29875 
L 528.4 88.29875 
Q 531.2 88.29875 531.2 85.49875 
L 531.2 45.8 
Q 531.2 43 528.4 43 
L 430.8725 43 
Q 428.0725 43 428.0725 45.8 
L 428.0725 85.49875 
Q 428.0725 88.29875 430.8725 88.29875 
z
" style="fill:#ffffff;opacity:0.8;stroke:#cccccc;stroke-linejoin:miter;"/>
    </g>
    <g id="patch_5">
     <path d="M 433.6725 59.237813 
L 461.6725 59.237813 
L 461.6725 49.437813 
L 433.6725 49.437813 
z
" style="fill:#ff6384;opacity:0.5;stroke:#ff6384;stroke-linejoin:miter;"/>
    </g>
    <g id="text_1">
     <!-- base -->
     <defs>
      <path d="M 48.6875 27.296875 
Q 48.6875 37.203125 44.609375 42.84375 
Q 40.53125 48.484375 33.40625 48.484375 
Q 26.265625 48.484375 22.1875 42.84375 
Q 18.109375 37.203125 18.109375 27.296875 
Q 18.109375 17.390625 22.1875 11.75 
Q 26.265625 6.109375 33.40625 6.109375 
Q 40.53125 6.109375 44.609375 11.75 
Q 48.6875 17.390625 48.6875 27.296875 
z
M 18.109375 46.390625 
Q 20.953125 51.265625 25.265625 53.625 
Q 29.59375 56 35.59375 56 
Q 45.5625 56 51.78125 48.09375 
Q 58.015625 40.1875 58.015625 27.296875 
Q 58.015625 14.40625 51.78125 6.484375 
Q 45.5625 -1.421875 35.59375 -1.421875 
Q 29.59375 -1.421875 25.265625 0.953125 
Q 20.953125 3.328125 18.109375 8.203125 
L 18.109375 0 
L 9.078125 0 
L 9.078125 75.984375 
L 18.109375 75.984375 
z
" id="DejaVuSans-98"/>
      <path d="M 34.28125 27.484375 
Q 23.390625 27.484375 19.1875 25 
Q 14.984375 22.515625 14.984375 16.5 
Q 14.984375 11.71875 18.140625 8.90625 
Q 21.296875 6.109375 26.703125 6.109375 
Q 34.1875 6.109375 38.703125 11.40625 
Q 43.21875 16.703125 43.21875 25.484375 
L 43.21875 27.484375 
z
M 52.203125 31.203125 
L 52.203125 0 
L 43.21875 0 
L 43.21875 8.296875 
Q 40.140625 3.328125 35.546875 0.953125 
Q 30.953125 -1.421875 24.3125 -1.421875 
Q 15.921875 -1.421875 10.953125 3.296875 
Q 6 8.015625 6 15.921875 
Q 6 25.140625 12.171875 29.828125 
Q 18.359375 34.515625 30.609375 34.515625 
L 43.21875 34.515625 
L 43.21875 35.40625 
Q 43.21875 41.609375 39.140625 45 
Q 35.0625 48.390625 27.6875 48.390625 
Q 23 48.390625 18.546875 47.265625 
Q 14.109375 46.140625 10.015625 43.890625 
L 10.015625 52.203125 
Q 14.9375 54.109375 19.578125 55.046875 
Q 24.21875 56 28.609375 56 
Q 40.484375 56 46.34375 49.84375 
Q 52.203125 43.703125 52.203125 31.203125 
z
" id="DejaVuSans-97"/>
      <path d="M 44.28125 53.078125 
L 44.28125 44.578125 
Q 40.484375 46.53125 36.375 47.5 
Q 32.28125 48.484375 27.875 48.484375 
Q 21.1875 48.484375 17.84375 46.4375 
Q 14.5 44.390625 14.5 40.28125 
Q 14.5 37.15625 16.890625 35.375 
Q 19.28125 33.59375 26.515625 31.984375 
L 29.59375 31.296875 
Q 39.15625 29.25 43.1875 25.515625 
Q 47.21875 21.78125 47.21875 15.09375 
Q 47.21875 7.46875 41.1875 3.015625 
Q 35.15625 -1.421875 24.609375 -1.421875 
Q 20.21875 -1.421875 15.453125 -0.5625 
Q 10.6875 0.296875 5.421875 2 
L 5.421875 11.28125 
Q 10.40625 8.6875 15.234375 7.390625 
Q 20.0625 6.109375 24.8125 6.109375 
Q 31.15625 6.109375 34.5625 8.28125 
Q 37.984375 10.453125 37.984375 14.40625 
Q 37.984375 18.0625 35.515625 20.015625 
Q 33.0625 21.96875 24.703125 23.78125 
L 21.578125 24.515625 
Q 13.234375 26.265625 9.515625 29.90625 
Q 5.8125 33.546875 5.8125 39.890625 
Q 5.8125 47.609375 11.28125 51.796875 
Q 16.75 56 26.8125 56 
Q 31.78125 56 36.171875 55.265625 
Q 40.578125 54.546875 44.28125 53.078125 
z
" id="DejaVuSans-115"/>
      <path d="M 56.203125 29.59375 
L 56.203125 25.203125 
L 14.890625 25.203125 
Q 15.484375 15.921875 20.484375 11.0625 
Q 25.484375 6.203125 34.421875 6.203125 
Q 39.59375 6.203125 44.453125 7.46875 
Q 49.3125 8.734375 54.109375 11.28125 
L 54.109375 2.78125 
Q 49.265625 0.734375 44.1875 -0.34375 
Q 39.109375 -1.421875 33.890625 -1.421875 
Q 20.796875 -1.421875 13.15625 6.1875 
Q 5.515625 13.8125 5.515625 26.8125 
Q 5.515625 40.234375 12.765625 48.109375 
Q 20.015625 56 32.328125 56 
Q 43.359375 56 49.78125 48.890625 
Q 56.203125 41.796875 56.203125 29.59375 
z
M 47.21875 32.234375 
Q 47.125 39.59375 43.09375 43.984375 
Q 39.0625 48.390625 32.421875 48.390625 
Q 24.90625 48.390625 20.390625 44.140625 
Q 15.875 39.890625 15.1875 32.171875 
z
" id="DejaVuSans-101"/>
     </defs>
     <g transform="translate(472.8725 59.237813)scale(0.14 -0.14)">
      <use xlink:href="#DejaVuSans-98"/>
      <use x="63.476562" xlink:href="#DejaVuSans-97"/>
      <use x="124.755859" xlink:href="#DejaVuSans-115"/>
      <use x="176.855469" xlink:href="#DejaVuSans-101"/>
     </g>
    </g>
    <g id="patch_6">
     <path d="M 433.6725 79.787188 
L 461.6725 79.787188 
L 461.6725 69.987188 
L 433.6725 69.987188 
z
" style="fill:#36a2eb;opacity:0.5;stroke:#36a2eb;stroke-linejoin:miter;"/>
    </g>
    <g id="text_2">
     <!-- policies -->
     <defs>
      <path d="M 18.109375 8.203125 
L 18.109375 -20.796875 
L 9.078125 -20.796875 
L 9.078125 54.6875 
L 18.109375 54.6875 
L 18.109375 46.390625 
Q 20.953125 51.265625 25.265625 53.625 
Q 29.59375 56 35.59375 56 
Q 45.5625 56 51.78125 48.09375 
Q 58.015625 40.1875 58.015625 27.296875 
Q 58.015625 14.40625 51.78125 6.484375 
Q 45.5625 -1.421875 35.59375 -1.421875 
Q 29.59375 -1.421875 25.265625 0.953125 
Q 20.953125 3.328125 18.109375 8.203125 
z
M 48.6875 27.296875 
Q 48.6875 37.203125 44.609375 42.84375 
Q 40.53125 48.484375 33.40625 48.484375 
Q 26.265625 48.484375 22.1875 42.84375 
Q 18.109375 37.203125 18.109375 27.296875 
Q 18.109375 17.390625 22.1875 11.75 
Q 26.265625 6.109375 33.40625 6.109375 
Q 40.53125 6.109375 44.609375 11.75 
Q 48.6875 17.390625 48.6875 27.296875 
z
" id="DejaVuSans-112"/>
      <path d="M 30.609375 48.390625 
Q 23.390625 48.390625 19.1875 42.75 
Q 14.984375 37.109375 14.984375 27.296875 
Q 14.984375 17.484375 19.15625 11.84375 
Q 23.34375 6.203125 30.609375 6.203125 
Q 37.796875 6.203125 41.984375 11.859375 
Q 46.1875 17.53125 46.1875 27.296875 
Q 46.1875 37.015625 41.984375 42.703125 
Q 37.796875 48.390625 30.609375 48.390625 
z
M 30.609375 56 
Q 42.328125 56 49.015625 48.375 
Q 55.71875 40.765625 55.71875 27.296875 
Q 55.71875 13.875 49.015625 6.21875 
Q 42.328125 -1.421875 30.609375 -1.421875 
Q 18.84375 -1.421875 12.171875 6.21875 
Q 5.515625 13.875 5.515625 27.296875 
Q 5.515625 40.765625 12.171875 48.375 
Q 18.84375 56 30.609375 56 
z
" id="DejaVuSans-111"/>
      <path d="M 9.421875 75.984375 
L 18.40625 75.984375 
L 18.40625 0 
L 9.421875 0 
z
" id="DejaVuSans-108"/>
      <path d="M 9.421875 54.6875 
L 18.40625 54.6875 
L 18.40625 0 
L 9.421875 0 
z
M 9.421875 75.984375 
L 18.40625 75.984375 
L 18.40625 64.59375 
L 9.421875 64.59375 
z
" id="DejaVuSans-105"/>
      <path d="M 48.78125 52.59375 
L 48.78125 44.1875 
Q 44.96875 46.296875 41.140625 47.34375 
Q 37.3125 48.390625 33.40625 48.390625 
Q 24.65625 48.390625 19.8125 42.84375 
Q 14.984375 37.3125 14.984375 27.296875 
Q 14.984375 17.28125 19.8125 11.734375 
Q 24.65625 6.203125 33.40625 6.203125 
Q 37.3125 6.203125 41.140625 7.25 
Q 44.96875 8.296875 48.78125 10.40625 
L 48.78125 2.09375 
Q 45.015625 0.34375 40.984375 -0.53125 
Q 36.96875 -1.421875 32.421875 -1.421875 
Q 20.0625 -1.421875 12.78125 6.34375 
Q 5.515625 14.109375 5.515625 27.296875 
Q 5.515625 40.671875 12.859375 48.328125 
Q 20.21875 56 33.015625 56 
Q 37.15625 56 41.109375 55.140625 
Q 45.0625 54.296875 48.78125 52.59375 
z
" id="DejaVuSans-99"/>
     </defs>
     <g transform="translate(472.8725 79.787188)scale(0.14 -0.14)">
      <use xlink:href="#DejaVuSans-112"/>
      <use x="63.476562" xlink:href="#DejaVuSans-111"/>
      <use x="124.658203" xlink:href="#DejaVuSans-108"/>
      <use x="152.441406" xlink:href="#DejaVuSans-105"/>
      <use x="180.224609" xlink:href="#DejaVuSans-99"/>
      <use x="235.205078" xlink:href="#DejaVuSans-105"/>
      <use x="262.988281" xlink:href="#DejaVuSans-101"/>
      <use x="324.511719" xlink:href="#DejaVuSans-115"/>
     </g>
    </g>
   </g>
  </g>
  <g id="axes_2">
   <g id="patch_7">
    <path d="M 36 525.24 
L 538.2 525.24 
L 538.2 402.93 
L 36 402.93 
z
" style="fill:none;"/>
   </g>
   <g id="patch_8">
    <path clip-path="url(#p06a2e54a83)" d="M 174.223189 519.680455 
L 395.964361 519.680455 
L 395.964361 482.616818 
L 174.223189 482.616818 
z
" style="fill:#ff6384;opacity:0.5;"/>
   </g>
   <g id="patch_9">
    <path clip-path="url(#p06a2e54a83)" d="M 179.476544 445.553182 
L 400.401551 445.553182 
L 400.401551 408.489545 
L 179.476544 408.489545 
z
" style="fill:#36a2eb;opacity:0.5;"/>
   </g>
   <g id="matplotlib.axis_1">
    <g id="xtick_1">
     <g id="line2d_3">
      <defs>
       <path d="M 0 0 
L 0 3.5 
" id="m87fa036612" style="stroke:#000000;stroke-width:0.8;"/>
      </defs>
      <g>
       <use style="stroke:#000000;stroke-width:0.8;" x="61.605572" xlink:href="#m87fa036612" y="525.24"/>
      </g>
     </g>
     <g id="text_3">
      <!-- 11 -->
      <defs>
       <path d="M 12.40625 8.296875 
L 28.515625 8.296875 
L 28.515625 63.921875 
L 10.984375 60.40625 
L 10.984375 69.390625 
L 28.421875 72.90625 
L 38.28125 72.90625 
L 38.28125 8.296875 
L 54.390625 8.296875 
L 54.390625 0 
L 12.40625 0 
z
" id="DejaVuSans-49"/>
      </defs>
      <g transform="translate(52.698072 542.877813)scale(0.14 -0.14)">
       <use xlink:href="#DejaVuSans-49"/>
       <use x="63.623047" xlink:href="#DejaVuSans-49"/>
      </g>
     </g>
    </g>
    <g id="xtick_2">
     <g id="line2d_4">
      <g>
       <use style="stroke:#000000;stroke-width:0.8;" x="122.171481" xlink:href="#m87fa036612" y="525.24"/>
      </g>
     </g>
     <g id="text_4">
      <!-- 12 -->
      <defs>
       <path d="M 19.1875 8.296875 
L 53.609375 8.296875 
L 53.609375 0 
L 7.328125 0 
L 7.328125 8.296875 
Q 12.9375 14.109375 22.625 23.890625 
Q 32.328125 33.6875 34.8125 36.53125 
Q 39.546875 41.84375 41.421875 45.53125 
Q 43.3125 49.21875 43.3125 52.78125 
Q 43.3125 58.59375 39.234375 62.25 
Q 35.15625 65.921875 28.609375 65.921875 
Q 23.96875 65.921875 18.8125 64.3125 
Q 13.671875 62.703125 7.8125 59.421875 
L 7.8125 69.390625 
Q 13.765625 71.78125 18.9375 73 
Q 24.125 74.21875 28.421875 74.21875 
Q 39.75 74.21875 46.484375 68.546875 
Q 53.21875 62.890625 53.21875 53.421875 
Q 53.21875 48.921875 51.53125 44.890625 
Q 49.859375 40.875 45.40625 35.40625 
Q 44.1875 33.984375 37.640625 27.21875 
Q 31.109375 20.453125 19.1875 8.296875 
z
" id="DejaVuSans-50"/>
      </defs>
      <g transform="translate(113.263981 542.877813)scale(0.14 -0.14)">
       <use xlink:href="#DejaVuSans-49"/>
       <use x="63.623047" xlink:href="#DejaVuSans-50"/>
      </g>
     </g>
    </g>
    <g id="xtick_3">
     <g id="line2d_5">
      <g>
       <use style="stroke:#000000;stroke-width:0.8;" x="182.737389" xlink:href="#m87fa036612" y="525.24"/>
      </g>
     </g>
     <g id="text_5">
      <!-- 13 -->
      <defs>
       <path d="M 40.578125 39.3125 
Q 47.65625 37.796875 51.625 33 
Q 55.609375 28.21875 55.609375 21.1875 
Q 55.609375 10.40625 48.1875 4.484375 
Q 40.765625 -1.421875 27.09375 -1.421875 
Q 22.515625 -1.421875 17.65625 -0.515625 
Q 12.796875 0.390625 7.625 2.203125 
L 7.625 11.71875 
Q 11.71875 9.328125 16.59375 8.109375 
Q 21.484375 6.890625 26.8125 6.890625 
Q 36.078125 6.890625 40.9375 10.546875 
Q 45.796875 14.203125 45.796875 21.1875 
Q 45.796875 27.640625 41.28125 31.265625 
Q 36.765625 34.90625 28.71875 34.90625 
L 20.21875 34.90625 
L 20.21875 43.015625 
L 29.109375 43.015625 
Q 36.375 43.015625 40.234375 45.921875 
Q 44.09375 48.828125 44.09375 54.296875 
Q 44.09375 59.90625 40.109375 62.90625 
Q 36.140625 65.921875 28.71875 65.921875 
Q 24.65625 65.921875 20.015625 65.03125 
Q 15.375 64.15625 9.8125 62.3125 
L 9.8125 71.09375 
Q 15.4375 72.65625 20.34375 73.4375 
Q 25.25 74.21875 29.59375 74.21875 
Q 40.828125 74.21875 47.359375 69.109375 
Q 53.90625 64.015625 53.90625 55.328125 
Q 53.90625 49.265625 50.4375 45.09375 
Q 46.96875 40.921875 40.578125 39.3125 
z
" id="DejaVuSans-51"/>
      </defs>
      <g transform="translate(173.829889 542.877813)scale(0.14 -0.14)">
       <use xlink:href="#DejaVuSans-49"/>
       <use x="63.623047" xlink:href="#DejaVuSans-51"/>
      </g>
     </g>
    </g>
    <g id="xtick_4">
     <g id="line2d_6">
      <g>
       <use style="stroke:#000000;stroke-width:0.8;" x="243.303298" xlink:href="#m87fa036612" y="525.24"/>
      </g>
     </g>
     <g id="text_6">
      <!-- 14 -->
      <defs>
       <path d="M 37.796875 64.3125 
L 12.890625 25.390625 
L 37.796875 25.390625 
z
M 35.203125 72.90625 
L 47.609375 72.90625 
L 47.609375 25.390625 
L 58.015625 25.390625 
L 58.015625 17.1875 
L 47.609375 17.1875 
L 47.609375 0 
L 37.796875 0 
L 37.796875 17.1875 
L 4.890625 17.1875 
L 4.890625 26.703125 
z
" id="DejaVuSans-52"/>
      </defs>
      <g transform="translate(234.395798 542.877813)scale(0.14 -0.14)">
       <use xlink:href="#DejaVuSans-49"/>
       <use x="63.623047" xlink:href="#DejaVuSans-52"/>
      </g>
     </g>
    </g>
    <g id="xtick_5">
     <g id="line2d_7">
      <g>
       <use style="stroke:#000000;stroke-width:0.8;" x="303.869206" xlink:href="#m87fa036612" y="525.24"/>
      </g>
     </g>
     <g id="text_7">
      <!-- 15 -->
      <defs>
       <path d="M 10.796875 72.90625 
L 49.515625 72.90625 
L 49.515625 64.59375 
L 19.828125 64.59375 
L 19.828125 46.734375 
Q 21.96875 47.46875 24.109375 47.828125 
Q 26.265625 48.1875 28.421875 48.1875 
Q 40.625 48.1875 47.75 41.5 
Q 54.890625 34.8125 54.890625 23.390625 
Q 54.890625 11.625 47.5625 5.09375 
Q 40.234375 -1.421875 26.90625 -1.421875 
Q 22.3125 -1.421875 17.546875 -0.640625 
Q 12.796875 0.140625 7.71875 1.703125 
L 7.71875 11.625 
Q 12.109375 9.234375 16.796875 8.0625 
Q 21.484375 6.890625 26.703125 6.890625 
Q 35.15625 6.890625 40.078125 11.328125 
Q 45.015625 15.765625 45.015625 23.390625 
Q 45.015625 31 40.078125 35.4375 
Q 35.15625 39.890625 26.703125 39.890625 
Q 22.75 39.890625 18.8125 39.015625 
Q 14.890625 38.140625 10.796875 36.28125 
z
" id="DejaVuSans-53"/>
      </defs>
      <g transform="translate(294.961706 542.877813)scale(0.14 -0.14)">
       <use xlink:href="#DejaVuSans-49"/>
       <use x="63.623047" xlink:href="#DejaVuSans-53"/>
      </g>
     </g>
    </g>
    <g id="xtick_6">
     <g id="line2d_8">
      <g>
       <use style="stroke:#000000;stroke-width:0.8;" x="364.435115" xlink:href="#m87fa036612" y="525.24"/>
      </g>
     </g>
     <g id="text_8">
      <!-- 16 -->
      <defs>
       <path d="M 33.015625 40.375 
Q 26.375 40.375 22.484375 35.828125 
Q 18.609375 31.296875 18.609375 23.390625 
Q 18.609375 15.53125 22.484375 10.953125 
Q 26.375 6.390625 33.015625 6.390625 
Q 39.65625 6.390625 43.53125 10.953125 
Q 47.40625 15.53125 47.40625 23.390625 
Q 47.40625 31.296875 43.53125 35.828125 
Q 39.65625 40.375 33.015625 40.375 
z
M 52.59375 71.296875 
L 52.59375 62.3125 
Q 48.875 64.0625 45.09375 64.984375 
Q 41.3125 65.921875 37.59375 65.921875 
Q 27.828125 65.921875 22.671875 59.328125 
Q 17.53125 52.734375 16.796875 39.40625 
Q 19.671875 43.65625 24.015625 45.921875 
Q 28.375 48.1875 33.59375 48.1875 
Q 44.578125 48.1875 50.953125 41.515625 
Q 57.328125 34.859375 57.328125 23.390625 
Q 57.328125 12.15625 50.6875 5.359375 
Q 44.046875 -1.421875 33.015625 -1.421875 
Q 20.359375 -1.421875 13.671875 8.265625 
Q 6.984375 17.96875 6.984375 36.375 
Q 6.984375 53.65625 15.1875 63.9375 
Q 23.390625 74.21875 37.203125 74.21875 
Q 40.921875 74.21875 44.703125 73.484375 
Q 48.484375 72.75 52.59375 71.296875 
z
" id="DejaVuSans-54"/>
      </defs>
      <g transform="translate(355.527615 542.877813)scale(0.14 -0.14)">
       <use xlink:href="#DejaVuSans-49"/>
       <use x="63.623047" xlink:href="#DejaVuSans-54"/>
      </g>
     </g>
    </g>
    <g id="xtick_7">
     <g id="line2d_9">
      <g>
       <use style="stroke:#000000;stroke-width:0.8;" x="425.001024" xlink:href="#m87fa036612" y="525.24"/>
      </g>
     </g>
     <g id="text_9">
      <!-- 17 -->
      <defs>
       <path d="M 8.203125 72.90625 
L 55.078125 72.90625 
L 55.078125 68.703125 
L 28.609375 0 
L 18.3125 0 
L 43.21875 64.59375 
L 8.203125 64.59375 
z
" id="DejaVuSans-55"/>
      </defs>
      <g transform="translate(416.093524 542.877813)scale(0.14 -0.14)">
       <use xlink:href="#DejaVuSans-49"/>
       <use x="63.623047" xlink:href="#DejaVuSans-55"/>
      </g>
     </g>
    </g>
    <g id="xtick_8">
     <g id="line2d_10">
      <g>
       <use style="stroke:#000000;stroke-width:0.8;" x="485.566932" xlink:href="#m87fa036612" y="525.24"/>
      </g>
     </g>
     <g id="text_10">
      <!-- 18 -->
      <defs>
       <path d="M 31.78125 34.625 
Q 24.75 34.625 20.71875 30.859375 
Q 16.703125 27.09375 16.703125 20.515625 
Q 16.703125 13.921875 20.71875 10.15625 
Q 24.75 6.390625 31.78125 6.390625 
Q 38.8125 6.390625 42.859375 10.171875 
Q 46.921875 13.96875 46.921875 20.515625 
Q 46.921875 27.09375 42.890625 30.859375 
Q 38.875 34.625 31.78125 34.625 
z
M 21.921875 38.8125 
Q 15.578125 40.375 12.03125 44.71875 
Q 8.5 49.078125 8.5 55.328125 
Q 8.5 64.0625 14.71875 69.140625 
Q 20.953125 74.21875 31.78125 74.21875 
Q 42.671875 74.21875 48.875 69.140625 
Q 55.078125 64.0625 55.078125 55.328125 
Q 55.078125 49.078125 51.53125 44.71875 
Q 48 40.375 41.703125 38.8125 
Q 48.828125 37.15625 52.796875 32.3125 
Q 56.78125 27.484375 56.78125 20.515625 
Q 56.78125 9.90625 50.3125 4.234375 
Q 43.84375 -1.421875 31.78125 -1.421875 
Q 19.734375 -1.421875 13.25 4.234375 
Q 6.78125 9.90625 6.78125 20.515625 
Q 6.78125 27.484375 10.78125 32.3125 
Q 14.796875 37.15625 21.921875 38.8125 
z
M 18.3125 54.390625 
Q 18.3125 48.734375 21.84375 45.5625 
Q 25.390625 42.390625 31.78125 42.390625 
Q 38.140625 42.390625 41.71875 45.5625 
Q 45.3125 48.734375 45.3125 54.390625 
Q 45.3125 60.0625 41.71875 63.234375 
Q 38.140625 66.40625 31.78125 66.40625 
Q 25.390625 66.40625 21.84375 63.234375 
Q 18.3125 60.0625 18.3125 54.390625 
z
" id="DejaVuSans-56"/>
      </defs>
      <g transform="translate(476.659432 542.877813)scale(0.14 -0.14)">
       <use xlink:href="#DejaVuSans-49"/>
       <use x="63.623047" xlink:href="#DejaVuSans-56"/>
      </g>
     </g>
    </g>
   </g>
   <g id="line2d_11">
    <path clip-path="url(#p06a2e54a83)" d="M 285.093775 525.24 
L 285.093775 402.93 
" style="fill:none;stroke:#ff6384;stroke-dasharray:5.55,2.4;stroke-dashoffset:0;stroke-opacity:0.8;stroke-width:1.5;"/>
   </g>
   <g id="line2d_12">
    <path clip-path="url(#p06a2e54a83)" d="M 289.939047 525.24 
L 289.939047 402.93 
" style="fill:none;stroke:#36a2eb;stroke-dasharray:5.55,2.4;stroke-dashoffset:0;stroke-opacity:0.8;stroke-width:1.5;"/>
   </g>
   <g id="patch_10">
    <path d="M 36 525.24 
L 538.2 525.24 
" style="fill:none;stroke:#000000;stroke-linecap:square;stroke-linejoin:miter;stroke-width:0.8;"/>
   </g>
  </g>
 </g>
 <defs>
  <clipPath id="pff6a354347">
   <rect height="366.93" width="502.2" x="36" y="36"/>
  </clipPath>
  <clipPath id="p06a2e54a83">
   <rect height="122.31" width="502.2" x="36" y="402.93"/>
  </clipPath>
 </defs>
</svg>
