<?xml version="1.0" encoding="utf-8" standalone="no"?>
<!DOCTYPE svg PUBLIC "-//W3C//DTD SVG 1.1//EN"
  "http://www.w3.org/Graphics/SVG/1.1/DTD/svg11.dtd">
<!-- Created with matplotlib (https://matplotlib.org/) -->
<svg height="581.789375pt" version="1.1" viewBox="0 0 574.2 581.789375" width="574.2pt" xmlns="http://www.w3.org/2000/svg" xmlns:xlink="http://www.w3.org/1999/xlink">
 <defs>
  <style type="text/css">
*{stroke-linecap:butt;stroke-linejoin:round;}
  </style>
 </defs>
 <g id="figure_1">
  <g id="patch_1">
   <path d="M 0 581.789375 
L 574.2 581.789375 
L 574.2 0 
L 0 0 
z
" style="fill:none;"/>
  </g>
  <g id="axes_1">
   <g id="patch_2">
    <path d="M 36 402.93 
L 538.2 402.93 
L 538.2 36 
L 36 36 
z
" style="fill:none;"/>
   </g>
   <g id="PolyCollection_1">
    <defs>
     <path d="M 80.027585 -195.538011 
L 80.027585 -195.638381 
L 84.425011 -195.676228 
L 88.822437 -195.727109 
L 93.219862 -195.795036 
L 97.617288 -195.885089 
L 102.014714 -196.003643 
L 106.41214 -196.158628 
L 110.809565 -196.359814 
L 115.206991 -196.619138 
L 119.604417 -196.951034 
L 124.001842 -197.372799 
L 128.399268 -197.904948 
L 132.796694 -198.571565 
L 137.194119 -199.40062 
L 141.591545 -200.42424 
L 145.988971 -201.678896 
L 150.386396 -203.205484 
L 154.783822 -205.049261 
L 159.181248 -207.259614 
L 163.578673 -209.889617 
L 167.976099 -212.995352 
L 172.373525 -216.634965 
L 176.77095 -220.867446 
L 181.168376 -225.751113 
L 185.565802 -231.34182 
L 189.963227 -237.690887 
L 194.360653 -244.84282 
L 198.758079 -252.83284 
L 203.155504 -261.684327 
L 207.55293 -271.406244 
L 211.950356 -281.99067 
L 216.347781 -293.410544 
L 220.745207 -305.617746 
L 225.142633 -318.541664 
L 229.540058 -332.08833 
L 233.937484 -346.140279 
L 238.33491 -360.557176 
L 242.732335 -375.177304 
L 247.129761 -389.819924 
L 251.527187 -404.288492 
L 255.924612 -418.374691 
L 260.322038 -431.863168 
L 264.719464 -444.536844 
L 269.116889 -456.18262 
L 273.514315 -466.597281 
L 277.911741 -475.593353 
L 282.309167 -483.004708 
L 286.706592 -488.691656 
L 291.104018 -492.54532 
L 295.501444 -494.491108 
L 299.898869 -494.491108 
L 304.296295 -492.54532 
L 308.693721 -488.691656 
L 313.091146 -483.004708 
L 317.488572 -475.593353 
L 321.885998 -466.597281 
L 326.283423 -456.18262 
L 330.680849 -444.536844 
L 335.078275 -431.863168 
L 339.4757 -418.374691 
L 343.873126 -404.288492 
L 348.270552 -389.819924 
L 352.667977 -375.177304 
L 357.065403 -360.557176 
L 361.462829 -346.140279 
L 365.860254 -332.08833 
L 370.25768 -318.541664 
L 374.655106 -305.617746 
L 379.052531 -293.410544 
L 383.449957 -281.99067 
L 387.847383 -271.406244 
L 392.244808 -261.684327 
L 396.642234 -252.83284 
L 401.03966 -244.84282 
L 405.437085 -237.690887 
L 409.834511 -231.34182 
L 414.231937 -225.751113 
L 418.629362 -220.867446 
L 423.026788 -216.634965 
L 427.424214 -212.995352 
L 431.821639 -209.889617 
L 436.219065 -207.259614 
L 440.616491 -205.049261 
L 445.013916 -203.205484 
L 449.411342 -201.678896 
L 453.808768 -200.42424 
L 458.206194 -199.40062 
L 462.603619 -198.571565 
L 467.001045 -197.904948 
L 471.398471 -197.372799 
L 475.795896 -196.951034 
L 480.193322 -196.619138 
L 484.590748 -196.359814 
L 488.988173 -196.158628 
L 493.385599 -196.003643 
L 497.783025 -195.885089 
L 502.18045 -195.795036 
L 506.577876 -195.727109 
L 510.975302 -195.676228 
L 515.372727 -195.638381 
L 515.372727 -195.538011 
L 515.372727 -195.538011 
L 510.975302 -195.538011 
L 506.577876 -195.538011 
L 502.18045 -195.538011 
L 497.783025 -195.538011 
L 493.385599 -195.538011 
L 488.988173 -195.538011 
L 484.590748 -195.538011 
L 480.193322 -195.538011 
L 475.795896 -195.538011 
L 471.398471 -195.538011 
L 467.001045 -195.538011 
L 462.603619 -195.538011 
L 458.206194 -195.538011 
L 453.808768 -195.538011 
L 449.411342 -195.538011 
L 445.013916 -195.538011 
L 440.616491 -195.538011 
L 436.219065 -195.538011 
L 431.821639 -195.538011 
L 427.424214 -195.538011 
L 423.026788 -195.538011 
L 418.629362 -195.538011 
L 414.231937 -195.538011 
L 409.834511 -195.538011 
L 405.437085 -195.538011 
L 401.03966 -195.538011 
L 396.642234 -195.538011 
L 392.244808 -195.538011 
L 387.847383 -195.538011 
L 383.449957 -195.538011 
L 379.052531 -195.538011 
L 374.655106 -195.538011 
L 370.25768 -195.538011 
L 365.860254 -195.538011 
L 361.462829 -195.538011 
L 357.065403 -195.538011 
L 352.667977 -195.538011 
L 348.270552 -195.538011 
L 343.873126 -195.538011 
L 339.4757 -195.538011 
L 335.078275 -195.538011 
L 330.680849 -195.538011 
L 326.283423 -195.538011 
L 321.885998 -195.538011 
L 317.488572 -195.538011 
L 313.091146 -195.538011 
L 308.693721 -195.538011 
L 304.296295 -195.538011 
L 299.898869 -195.538011 
L 295.501444 -195.538011 
L 291.104018 -195.538011 
L 286.706592 -195.538011 
L 282.309167 -195.538011 
L 277.911741 -195.538011 
L 273.514315 -195.538011 
L 269.116889 -195.538011 
L 264.719464 -195.538011 
L 260.322038 -195.538011 
L 255.924612 -195.538011 
L 251.527187 -195.538011 
L 247.129761 -195.538011 
L 242.732335 -195.538011 
L 238.33491 -195.538011 
L 233.937484 -195.538011 
L 229.540058 -195.538011 
L 225.142633 -195.538011 
L 220.745207 -195.538011 
L 216.347781 -195.538011 
L 211.950356 -195.538011 
L 207.55293 -195.538011 
L 203.155504 -195.538011 
L 198.758079 -195.538011 
L 194.360653 -195.538011 
L 189.963227 -195.538011 
L 185.565802 -195.538011 
L 181.168376 -195.538011 
L 176.77095 -195.538011 
L 172.373525 -195.538011 
L 167.976099 -195.538011 
L 163.578673 -195.538011 
L 159.181248 -195.538011 
L 154.783822 -195.538011 
L 150.386396 -195.538011 
L 145.988971 -195.538011 
L 141.591545 -195.538011 
L 137.194119 -195.538011 
L 132.796694 -195.538011 
L 128.399268 -195.538011 
L 124.001842 -195.538011 
L 119.604417 -195.538011 
L 115.206991 -195.538011 
L 110.809565 -195.538011 
L 106.41214 -195.538011 
L 102.014714 -195.538011 
L 97.617288 -195.538011 
L 93.219862 -195.538011 
L 88.822437 -195.538011 
L 84.425011 -195.538011 
L 80.027585 -195.538011 
z
" id="m25d6df6978" style="stroke:#ff6384;stroke-opacity:0.5;"/>
    </defs>
    <g clip-path="url(#p56cda4ad22)">
     <use style="fill:#ff6384;fill-opacity:0.5;stroke:#ff6384;stroke-opacity:0.5;" x="0" xlink:href="#m25d6df6978" y="581.789375"/>
    </g>
   </g>
   <g id="PolyCollection_2">
    <defs>
     <path d="M 58.827273 -195.538011 
L 58.827273 -195.650004 
L 62.768314 -195.692234 
L 66.709356 -195.749007 
L 70.650398 -195.8248 
L 74.591439 -195.925281 
L 78.532481 -196.057565 
L 82.473523 -196.230497 
L 86.414564 -196.454982 
L 90.355606 -196.744335 
L 94.296648 -197.114666 
L 98.23769 -197.585273 
L 102.178731 -198.179047 
L 106.119773 -198.922859 
L 110.060815 -199.847921 
L 114.001856 -200.990079 
L 117.942898 -202.390029 
L 121.88394 -204.093399 
L 125.824981 -206.150691 
L 129.766023 -208.617009 
L 133.707065 -211.551575 
L 137.648106 -215.016962 
L 141.589148 -219.078053 
L 145.53019 -223.800667 
L 149.471231 -229.249878 
L 153.412273 -235.488004 
L 157.353315 -242.572312 
L 161.294356 -250.552459 
L 165.235398 -259.467747 
L 169.17644 -269.344261 
L 173.117481 -280.192004 
L 177.058523 -292.002137 
L 180.999565 -304.744465 
L 184.940607 -318.365297 
L 188.881648 -332.785841 
L 192.82269 -347.901251 
L 196.763732 -363.580456 
L 200.704773 -379.666871 
L 204.645815 -395.980052 
L 208.586857 -412.31833 
L 212.527898 -428.4624 
L 216.46894 -444.179822 
L 220.409982 -459.230303 
L 224.351023 -473.371627 
L 228.292065 -486.366018 
L 232.233107 -497.986726 
L 236.174148 -508.02457 
L 240.11519 -516.294181 
L 244.056232 -522.639693 
L 247.997273 -526.939623 
L 251.938315 -529.110739 
L 255.879357 -529.110739 
L 259.820398 -526.939623 
L 263.76144 -522.639693 
L 267.702482 -516.294181 
L 271.643523 -508.02457 
L 275.584565 -497.986726 
L 279.525607 -486.366018 
L 283.466649 -473.371627 
L 287.40769 -459.230303 
L 291.348732 -444.179822 
L 295.289774 -428.4624 
L 299.230815 -412.31833 
L 303.171857 -395.980052 
L 307.112899 -379.666871 
L 311.05394 -363.580456 
L 314.994982 -347.901251 
L 318.936024 -332.785841 
L 322.877065 -318.365297 
L 326.818107 -304.744465 
L 330.759149 -292.002137 
L 334.70019 -280.192004 
L 338.641232 -269.344261 
L 342.582274 -259.467747 
L 346.523315 -250.552459 
L 350.464357 -242.572312 
L 354.405399 -235.488004 
L 358.34644 -229.249878 
L 362.287482 -223.800667 
L 366.228524 -219.078053 
L 370.169565 -215.016962 
L 374.110607 -211.551575 
L 378.051649 -208.617009 
L 381.992691 -206.150691 
L 385.933732 -204.093399 
L 389.874774 -202.390029 
L 393.815816 -200.990079 
L 397.756857 -199.847921 
L 401.697899 -198.922859 
L 405.638941 -198.179047 
L 409.579982 -197.585273 
L 413.521024 -197.114666 
L 417.462066 -196.744335 
L 421.403107 -196.454982 
L 425.344149 -196.230497 
L 429.285191 -196.057565 
L 433.226232 -195.925281 
L 437.167274 -195.8248 
L 441.108316 -195.749007 
L 445.049357 -195.692234 
L 448.990399 -195.650004 
L 448.990399 -195.538011 
L 448.990399 -195.538011 
L 445.049357 -195.538011 
L 441.108316 -195.538011 
L 437.167274 -195.538011 
L 433.226232 -195.538011 
L 429.285191 -195.538011 
L 425.344149 -195.538011 
L 421.403107 -195.538011 
L 417.462066 -195.538011 
L 413.521024 -195.538011 
L 409.579982 -195.538011 
L 405.638941 -195.538011 
L 401.697899 -195.538011 
L 397.756857 -195.538011 
L 393.815816 -195.538011 
L 389.874774 -195.538011 
L 385.933732 -195.538011 
L 381.992691 -195.538011 
L 378.051649 -195.538011 
L 374.110607 -195.538011 
L 370.169565 -195.538011 
L 366.228524 -195.538011 
L 362.287482 -195.538011 
L 358.34644 -195.538011 
L 354.405399 -195.538011 
L 350.464357 -195.538011 
L 346.523315 -195.538011 
L 342.582274 -195.538011 
L 338.641232 -195.538011 
L 334.70019 -195.538011 
L 330.759149 -195.538011 
L 326.818107 -195.538011 
L 322.877065 -195.538011 
L 318.936024 -195.538011 
L 314.994982 -195.538011 
L 311.05394 -195.538011 
L 307.112899 -195.538011 
L 303.171857 -195.538011 
L 299.230815 -195.538011 
L 295.289774 -195.538011 
L 291.348732 -195.538011 
L 287.40769 -195.538011 
L 283.466649 -195.538011 
L 279.525607 -195.538011 
L 275.584565 -195.538011 
L 271.643523 -195.538011 
L 267.702482 -195.538011 
L 263.76144 -195.538011 
L 259.820398 -195.538011 
L 255.879357 -195.538011 
L 251.938315 -195.538011 
L 247.997273 -195.538011 
L 244.056232 -195.538011 
L 240.11519 -195.538011 
L 236.174148 -195.538011 
L 232.233107 -195.538011 
L 228.292065 -195.538011 
L 224.351023 -195.538011 
L 220.409982 -195.538011 
L 216.46894 -195.538011 
L 212.527898 -195.538011 
L 208.586857 -195.538011 
L 204.645815 -195.538011 
L 200.704773 -195.538011 
L 196.763732 -195.538011 
L 192.82269 -195.538011 
L 188.881648 -195.538011 
L 184.940607 -195.538011 
L 180.999565 -195.538011 
L 177.058523 -195.538011 
L 173.117481 -195.538011 
L 169.17644 -195.538011 
L 165.235398 -195.538011 
L 161.294356 -195.538011 
L 157.353315 -195.538011 
L 153.412273 -195.538011 
L 149.471231 -195.538011 
L 145.53019 -195.538011 
L 141.589148 -195.538011 
L 137.648106 -195.538011 
L 133.707065 -195.538011 
L 129.766023 -195.538011 
L 125.824981 -195.538011 
L 121.88394 -195.538011 
L 117.942898 -195.538011 
L 114.001856 -195.538011 
L 110.060815 -195.538011 
L 106.119773 -195.538011 
L 102.178731 -195.538011 
L 98.23769 -195.538011 
L 94.296648 -195.538011 
L 90.355606 -195.538011 
L 86.414564 -195.538011 
L 82.473523 -195.538011 
L 78.532481 -195.538011 
L 74.591439 -195.538011 
L 70.650398 -195.538011 
L 66.709356 -195.538011 
L 62.768314 -195.538011 
L 58.827273 -195.538011 
z
" id="m5f632bafbb" style="stroke:#36a2eb;stroke-opacity:0.5;"/>
    </defs>
    <g clip-path="url(#p56cda4ad22)">
     <use style="fill:#36a2eb;fill-opacity:0.5;stroke:#36a2eb;stroke-opacity:0.5;" x="0" xlink:href="#m5f632bafbb" y="581.789375"/>
    </g>
   </g>
   <g id="line2d_1">
    <path clip-path="url(#p56cda4ad22)" d="M 80.027585 386.150994 
L 84.425011 386.113147 
L 88.822437 386.062266 
L 93.219862 385.994339 
L 97.617288 385.904286 
L 102.014714 385.785732 
L 106.41214 385.630747 
L 110.809565 385.429561 
L 115.206991 385.170237 
L 119.604417 384.838341 
L 124.001842 384.416576 
L 128.399268 383.884427 
L 132.796694 383.21781 
L 137.194119 382.388755 
L 141.591545 381.365135 
L 145.988971 380.110479 
L 150.386396 378.583891 
L 154.783822 376.740114 
L 159.181248 374.529761 
L 163.578673 371.899758 
L 167.976099 368.794023 
L 172.373525 365.15441 
L 176.77095 360.921929 
L 181.168376 356.038262 
L 185.565802 350.447555 
L 189.963227 344.098488 
L 194.360653 336.946555 
L 198.758079 328.956535 
L 203.155504 320.105048 
L 207.55293 310.383131 
L 211.950356 299.798705 
L 216.347781 288.378831 
L 220.745207 276.171629 
L 225.142633 263.247711 
L 229.540058 249.701045 
L 233.937484 235.649096 
L 238.33491 221.232199 
L 242.732335 206.612071 
L 247.129761 191.969451 
L 251.527187 177.500883 
L 255.924612 163.414684 
L 260.322038 149.926207 
L 264.719464 137.252531 
L 269.116889 125.606755 
L 273.514315 115.192094 
L 277.911741 106.196022 
L 282.309167 98.784667 
L 286.706592 93.097719 
L 291.104018 89.244055 
L 295.501444 87.298267 
L 299.898869 87.298267 
L 304.296295 89.244055 
L 308.693721 93.097719 
L 313.091146 98.784667 
L 317.488572 106.196022 
L 321.885998 115.192094 
L 326.283423 125.606755 
L 330.680849 137.252531 
L 335.078275 149.926207 
L 339.4757 163.414684 
L 343.873126 177.500883 
L 348.270552 191.969451 
L 352.667977 206.612071 
L 357.065403 221.232199 
L 361.462829 235.649096 
L 365.860254 249.701045 
L 370.25768 263.247711 
L 374.655106 276.171629 
L 379.052531 288.378831 
L 383.449957 299.798705 
L 387.847383 310.383131 
L 392.244808 320.105048 
L 396.642234 328.956535 
L 401.03966 336.946555 
L 405.437085 344.098488 
L 409.834511 350.447555 
L 414.231937 356.038262 
L 418.629362 360.921929 
L 423.026788 365.15441 
L 427.424214 368.794023 
L 431.821639 371.899758 
L 436.219065 374.529761 
L 440.616491 376.740114 
L 445.013916 378.583891 
L 449.411342 380.110479 
L 453.808768 381.365135 
L 458.206194 382.388755 
L 462.603619 383.21781 
L 467.001045 383.884427 
L 471.398471 384.416576 
L 475.795896 384.838341 
L 480.193322 385.170237 
L 484.590748 385.429561 
L 488.988173 385.630747 
L 493.385599 385.785732 
L 497.783025 385.904286 
L 502.18045 385.994339 
L 506.577876 386.062266 
L 510.975302 386.113147 
L 515.372727 386.150994 
" style="fill:none;stroke:#ff6384;stroke-linecap:square;"/>
   </g>
   <g id="line2d_2">
    <path clip-path="url(#p56cda4ad22)" d="M 58.827273 386.139371 
L 62.768314 386.097141 
L 66.709356 386.040368 
L 70.650398 385.964575 
L 74.591439 385.864094 
L 78.532481 385.73181 
L 82.473523 385.558878 
L 86.414564 385.334393 
L 90.355606 385.04504 
L 94.296648 384.674709 
L 98.23769 384.204102 
L 102.178731 383.610328 
L 106.119773 382.866516 
L 110.060815 381.941454 
L 114.001856 380.799296 
L 117.942898 379.399346 
L 121.88394 377.695976 
L 125.824981 375.638684 
L 129.766023 373.172366 
L 133.707065 370.2378 
L 137.648106 366.772413 
L 141.589148 362.711322 
L 145.53019 357.988708 
L 149.471231 352.539497 
L 153.412273 346.301371 
L 157.353315 339.217063 
L 161.294356 331.236916 
L 165.235398 322.321628 
L 169.17644 312.445114 
L 173.117481 301.597371 
L 177.058523 289.787238 
L 180.999565 277.04491 
L 184.940607 263.424078 
L 188.881648 249.003534 
L 192.82269 233.888124 
L 196.763732 218.208919 
L 200.704773 202.122504 
L 204.645815 185.809323 
L 208.586857 169.471045 
L 212.527898 153.326975 
L 216.46894 137.609553 
L 220.409982 122.559072 
L 224.351023 108.417748 
L 228.292065 95.423357 
L 232.233107 83.802649 
L 236.174148 73.764805 
L 240.11519 65.495194 
L 244.056232 59.149682 
L 247.997273 54.849752 
L 251.938315 52.678636 
L 255.879357 52.678636 
L 259.820398 54.849752 
L 263.76144 59.149682 
L 267.702482 65.495194 
L 271.643523 73.764805 
L 275.584565 83.802649 
L 279.525607 95.423357 
L 283.466649 108.417748 
L 287.40769 122.559072 
L 291.348732 137.609553 
L 295.289774 153.326975 
L 299.230815 169.471045 
L 303.171857 185.809323 
L 307.112899 202.122504 
L 311.05394 218.208919 
L 314.994982 233.888124 
L 318.936024 249.003534 
L 322.877065 263.424078 
L 326.818107 277.04491 
L 330.759149 289.787238 
L 334.70019 301.597371 
L 338.641232 312.445114 
L 342.582274 322.321628 
L 346.523315 331.236916 
L 350.464357 339.217063 
L 354.405399 346.301371 
L 358.34644 352.539497 
L 362.287482 357.988708 
L 366.228524 362.711322 
L 370.169565 366.772413 
L 374.110607 370.2378 
L 378.051649 373.172366 
L 381.992691 375.638684 
L 385.933732 377.695976 
L 389.874774 379.399346 
L 393.815816 380.799296 
L 397.756857 381.941454 
L 401.697899 382.866516 
L 405.638941 383.610328 
L 409.579982 384.204102 
L 413.521024 384.674709 
L 417.462066 385.04504 
L 421.403107 385.334393 
L 425.344149 385.558878 
L 429.285191 385.73181 
L 433.226232 385.864094 
L 437.167274 385.964575 
L 441.108316 386.040368 
L 445.049357 386.097141 
L 448.990399 386.139371 
" style="fill:none;stroke:#36a2eb;stroke-linecap:square;"/>
   </g>
   <g id="patch_3">
    <path d="M 36 402.93 
L 538.2 402.93 
" style="fill:none;stroke:#000000;stroke-linecap:square;stroke-linejoin:miter;stroke-width:0.8;"/>
   </g>
   <g id="legend_1">
    <g id="patch_4">
     <path d="M 450.225313 88.29875 
L 528.4 88.29875 
Q 531.2 88.29875 531.2 85.49875 
L 531.2 45.8 
Q 531.2 43 528.4 43 
L 450.225313 43 
Q 447.425313 43 447.425313 45.8 
L 447.425313 85.49875 
Q 447.425313 88.29875 450.225313 88.29875 
z
" style="fill:#ffffff;opacity:0.8;stroke:#cccccc;stroke-linejoin:miter;"/>
    </g>
    <g id="patch_5">
     <path d="M 453.025313 59.237813 
L 481.025313 59.237813 
L 481.025313 49.437813 
L 453.025313 49.437813 
z
" style="fill:#ff6384;opacity:0.5;stroke:#ff6384;stroke-linejoin:miter;"/>
    </g>
    <g id="text_1">
     <!-- base -->
     <defs>
      <path d="M 48.6875 27.296875 
Q 48.6875 37.203125 44.609375 42.84375 
Q 40.53125 48.484375 33.40625 48.484375 
Q 26.265625 48.484375 22.1875 42.84375 
Q 18.109375 37.203125 18.109375 27.296875 
Q 18.109375 17.390625 22.1875 11.75 
Q 26.265625 6.109375 33.40625 6.109375 
Q 40.53125 6.109375 44.609375 11.75 
Q 48.6875 17.390625 48.6875 27.296875 
z
M 18.109375 46.390625 
Q 20.953125 51.265625 25.265625 53.625 
Q 29.59375 56 35.59375 56 
Q 45.5625 56 51.78125 48.09375 
Q 58.015625 40.1875 58.015625 27.296875 
Q 58.015625 14.40625 51.78125 6.484375 
Q 45.5625 -1.421875 35.59375 -1.421875 
Q 29.59375 -1.421875 25.265625 0.953125 
Q 20.953125 3.328125 18.109375 8.203125 
L 18.109375 0 
L 9.078125 0 
L 9.078125 75.984375 
L 18.109375 75.984375 
z
" id="DejaVuSans-98"/>
      <path d="M 34.28125 27.484375 
Q 23.390625 27.484375 19.1875 25 
Q 14.984375 22.515625 14.984375 16.5 
Q 14.984375 11.71875 18.140625 8.90625 
Q 21.296875 6.109375 26.703125 6.109375 
Q 34.1875 6.109375 38.703125 11.40625 
Q 43.21875 16.703125 43.21875 25.484375 
L 43.21875 27.484375 
z
M 52.203125 31.203125 
L 52.203125 0 
L 43.21875 0 
L 43.21875 8.296875 
Q 40.140625 3.328125 35.546875 0.953125 
Q 30.953125 -1.421875 24.3125 -1.421875 
Q 15.921875 -1.421875 10.953125 3.296875 
Q 6 8.015625 6 15.921875 
Q 6 25.140625 12.171875 29.828125 
Q 18.359375 34.515625 30.609375 34.515625 
L 43.21875 34.515625 
L 43.21875 35.40625 
Q 43.21875 41.609375 39.140625 45 
Q 35.0625 48.390625 27.6875 48.390625 
Q 23 48.390625 18.546875 47.265625 
Q 14.109375 46.140625 10.015625 43.890625 
L 10.015625 52.203125 
Q 14.9375 54.109375 19.578125 55.046875 
Q 24.21875 56 28.609375 56 
Q 40.484375 56 46.34375 49.84375 
Q 52.203125 43.703125 52.203125 31.203125 
z
" id="DejaVuSans-97"/>
      <path d="M 44.28125 53.078125 
L 44.28125 44.578125 
Q 40.484375 46.53125 36.375 47.5 
Q 32.28125 48.484375 27.875 48.484375 
Q 21.1875 48.484375 17.84375 46.4375 
Q 14.5 44.390625 14.5 40.28125 
Q 14.5 37.15625 16.890625 35.375 
Q 19.28125 33.59375 26.515625 31.984375 
L 29.59375 31.296875 
Q 39.15625 29.25 43.1875 25.515625 
Q 47.21875 21.78125 47.21875 15.09375 
Q 47.21875 7.46875 41.1875 3.015625 
Q 35.15625 -1.421875 24.609375 -1.421875 
Q 20.21875 -1.421875 15.453125 -0.5625 
Q 10.6875 0.296875 5.421875 2 
L 5.421875 11.28125 
Q 10.40625 8.6875 15.234375 7.390625 
Q 20.0625 6.109375 24.8125 6.109375 
Q 31.15625 6.109375 34.5625 8.28125 
Q 37.984375 10.453125 37.984375 14.40625 
Q 37.984375 18.0625 35.515625 20.015625 
Q 33.0625 21.96875 24.703125 23.78125 
L 21.578125 24.515625 
Q 13.234375 26.265625 9.515625 29.90625 
Q 5.8125 33.546875 5.8125 39.890625 
Q 5.8125 47.609375 11.28125 51.796875 
Q 16.75 56 26.8125 56 
Q 31.78125 56 36.171875 55.265625 
Q 40.578125 54.546875 44.28125 53.078125 
z
" id="DejaVuSans-115"/>
      <path d="M 56.203125 29.59375 
L 56.203125 25.203125 
L 14.890625 25.203125 
Q 15.484375 15.921875 20.484375 11.0625 
Q 25.484375 6.203125 34.421875 6.203125 
Q 39.59375 6.203125 44.453125 7.46875 
Q 49.3125 8.734375 54.109375 11.28125 
L 54.109375 2.78125 
Q 49.265625 0.734375 44.1875 -0.34375 
Q 39.109375 -1.421875 33.890625 -1.421875 
Q 20.796875 -1.421875 13.15625 6.1875 
Q 5.515625 13.8125 5.515625 26.8125 
Q 5.515625 40.234375 12.765625 48.109375 
Q 20.015625 56 32.328125 56 
Q 43.359375 56 49.78125 48.890625 
Q 56.203125 41.796875 56.203125 29.59375 
z
M 47.21875 32.234375 
Q 47.125 39.59375 43.09375 43.984375 
Q 39.0625 48.390625 32.421875 48.390625 
Q 24.90625 48.390625 20.390625 44.140625 
Q 15.875 39.890625 15.1875 32.171875 
z
" id="DejaVuSans-101"/>
     </defs>
     <g transform="translate(492.225313 59.237813)scale(0.14 -0.14)">
      <use xlink:href="#DejaVuSans-98"/>
      <use x="63.476562" xlink:href="#DejaVuSans-97"/>
      <use x="124.755859" xlink:href="#DejaVuSans-115"/>
      <use x="176.855469" xlink:href="#DejaVuSans-101"/>
     </g>
    </g>
    <g id="patch_6">
     <path d="M 453.025313 79.787188 
L 481.025313 79.787188 
L 481.025313 69.987188 
L 453.025313 69.987188 
z
" style="fill:#36a2eb;opacity:0.5;stroke:#36a2eb;stroke-linejoin:miter;"/>
    </g>
    <g id="text_2">
     <!-- new -->
     <defs>
      <path d="M 54.890625 33.015625 
L 54.890625 0 
L 45.90625 0 
L 45.90625 32.71875 
Q 45.90625 40.484375 42.875 44.328125 
Q 39.84375 48.1875 33.796875 48.1875 
Q 26.515625 48.1875 22.3125 43.546875 
Q 18.109375 38.921875 18.109375 30.90625 
L 18.109375 0 
L 9.078125 0 
L 9.078125 54.6875 
L 18.109375 54.6875 
L 18.109375 46.1875 
Q 21.34375 51.125 25.703125 53.5625 
Q 30.078125 56 35.796875 56 
Q 45.21875 56 50.046875 50.171875 
Q 54.890625 44.34375 54.890625 33.015625 
z
" id="DejaVuSans-110"/>
      <path d="M 4.203125 54.6875 
L 13.1875 54.6875 
L 24.421875 12.015625 
L 35.59375 54.6875 
L 46.1875 54.6875 
L 57.421875 12.015625 
L 68.609375 54.6875 
L 77.59375 54.6875 
L 63.28125 0 
L 52.6875 0 
L 40.921875 44.828125 
L 29.109375 0 
L 18.5 0 
z
" id="DejaVuSans-119"/>
     </defs>
     <g transform="translate(492.225313 79.787188)scale(0.14 -0.14)">
      <use xlink:href="#DejaVuSans-110"/>
      <use x="63.378906" xlink:href="#DejaVuSans-101"/>
      <use x="124.902344" xlink:href="#DejaVuSans-119"/>
     </g>
    </g>
   </g>
  </g>
  <g id="axes_2">
   <g id="patch_7">
    <path d="M 36 525.24 
L 538.2 525.24 
L 538.2 402.93 
L 36 402.93 
z
" style="fill:none;"/>
   </g>
   <g id="patch_8">
    <path clip-path="url(#p8a04effb81)" d="M 191.040597 519.680455 
L 404.359716 519.680455 
L 404.359716 482.616818 
L 191.040597 482.616818 
z
" style="fill:#ff6384;opacity:0.5;"/>
   </g>
   <g id="patch_9">
    <path clip-path="url(#p8a04effb81)" d="M 158.31887 445.553182 
L 349.498802 445.553182 
L 349.498802 408.489545 
L 158.31887 408.489545 
z
" style="fill:#36a2eb;opacity:0.5;"/>
   </g>
   <g id="matplotlib.axis_1">
    <g id="xtick_1">
     <g id="line2d_3">
      <defs>
       <path d="M 0 0 
L 0 3.5 
" id="m0d8325fe2d" style="stroke:#000000;stroke-width:0.8;"/>
      </defs>
      <g>
       <use style="stroke:#000000;stroke-width:0.8;" x="81.480512" xlink:href="#m0d8325fe2d" y="525.24"/>
      </g>
     </g>
     <g id="text_3">
      <!-- 4.5 -->
      <defs>
       <path d="M 37.796875 64.3125 
L 12.890625 25.390625 
L 37.796875 25.390625 
z
M 35.203125 72.90625 
L 47.609375 72.90625 
L 47.609375 25.390625 
L 58.015625 25.390625 
L 58.015625 17.1875 
L 47.609375 17.1875 
L 47.609375 0 
L 37.796875 0 
L 37.796875 17.1875 
L 4.890625 17.1875 
L 4.890625 26.703125 
z
" id="DejaVuSans-52"/>
       <path d="M 10.6875 12.40625 
L 21 12.40625 
L 21 0 
L 10.6875 0 
z
" id="DejaVuSans-46"/>
       <path d="M 10.796875 72.90625 
L 49.515625 72.90625 
L 49.515625 64.59375 
L 19.828125 64.59375 
L 19.828125 46.734375 
Q 21.96875 47.46875 24.109375 47.828125 
Q 26.265625 48.1875 28.421875 48.1875 
Q 40.625 48.1875 47.75 41.5 
Q 54.890625 34.8125 54.890625 23.390625 
Q 54.890625 11.625 47.5625 5.09375 
Q 40.234375 -1.421875 26.90625 -1.421875 
Q 22.3125 -1.421875 17.546875 -0.640625 
Q 12.796875 0.140625 7.71875 1.703125 
L 7.71875 11.625 
Q 12.109375 9.234375 16.796875 8.0625 
Q 21.484375 6.890625 26.703125 6.890625 
Q 35.15625 6.890625 40.078125 11.328125 
Q 45.015625 15.765625 45.015625 23.390625 
Q 45.015625 31 40.078125 35.4375 
Q 35.15625 39.890625 26.703125 39.890625 
Q 22.75 39.890625 18.8125 39.015625 
Q 14.890625 38.140625 10.796875 36.28125 
z
" id="DejaVuSans-53"/>
      </defs>
      <g transform="translate(70.348324 542.877813)scale(0.14 -0.14)">
       <use xlink:href="#DejaVuSans-52"/>
       <use x="63.623047" xlink:href="#DejaVuSans-46"/>
       <use x="95.410156" xlink:href="#DejaVuSans-53"/>
      </g>
     </g>
    </g>
    <g id="xtick_2">
     <g id="line2d_4">
      <g>
       <use style="stroke:#000000;stroke-width:0.8;" x="149.90445" xlink:href="#m0d8325fe2d" y="525.24"/>
      </g>
     </g>
     <g id="text_4">
      <!-- 5.0 -->
      <defs>
       <path d="M 31.78125 66.40625 
Q 24.171875 66.40625 20.328125 58.90625 
Q 16.5 51.421875 16.5 36.375 
Q 16.5 21.390625 20.328125 13.890625 
Q 24.171875 6.390625 31.78125 6.390625 
Q 39.453125 6.390625 43.28125 13.890625 
Q 47.125 21.390625 47.125 36.375 
Q 47.125 51.421875 43.28125 58.90625 
Q 39.453125 66.40625 31.78125 66.40625 
z
M 31.78125 74.21875 
Q 44.046875 74.21875 50.515625 64.515625 
Q 56.984375 54.828125 56.984375 36.375 
Q 56.984375 17.96875 50.515625 8.265625 
Q 44.046875 -1.421875 31.78125 -1.421875 
Q 19.53125 -1.421875 13.0625 8.265625 
Q 6.59375 17.96875 6.59375 36.375 
Q 6.59375 54.828125 13.0625 64.515625 
Q 19.53125 74.21875 31.78125 74.21875 
z
" id="DejaVuSans-48"/>
      </defs>
      <g transform="translate(138.772262 542.877813)scale(0.14 -0.14)">
       <use xlink:href="#DejaVuSans-53"/>
       <use x="63.623047" xlink:href="#DejaVuSans-46"/>
       <use x="95.410156" xlink:href="#DejaVuSans-48"/>
      </g>
     </g>
    </g>
    <g id="xtick_3">
     <g id="line2d_5">
      <g>
       <use style="stroke:#000000;stroke-width:0.8;" x="218.328388" xlink:href="#m0d8325fe2d" y="525.24"/>
      </g>
     </g>
     <g id="text_5">
      <!-- 5.5 -->
      <g transform="translate(207.196201 542.877813)scale(0.14 -0.14)">
       <use xlink:href="#DejaVuSans-53"/>
       <use x="63.623047" xlink:href="#DejaVuSans-46"/>
       <use x="95.410156" xlink:href="#DejaVuSans-53"/>
      </g>
     </g>
    </g>
    <g id="xtick_4">
     <g id="line2d_6">
      <g>
       <use style="stroke:#000000;stroke-width:0.8;" x="286.752326" xlink:href="#m0d8325fe2d" y="525.24"/>
      </g>
     </g>
     <g id="text_6">
      <!-- 6.0 -->
      <defs>
       <path d="M 33.015625 40.375 
Q 26.375 40.375 22.484375 35.828125 
Q 18.609375 31.296875 18.609375 23.390625 
Q 18.609375 15.53125 22.484375 10.953125 
Q 26.375 6.390625 33.015625 6.390625 
Q 39.65625 6.390625 43.53125 10.953125 
Q 47.40625 15.53125 47.40625 23.390625 
Q 47.40625 31.296875 43.53125 35.828125 
Q 39.65625 40.375 33.015625 40.375 
z
M 52.59375 71.296875 
L 52.59375 62.3125 
Q 48.875 64.0625 45.09375 64.984375 
Q 41.3125 65.921875 37.59375 65.921875 
Q 27.828125 65.921875 22.671875 59.328125 
Q 17.53125 52.734375 16.796875 39.40625 
Q 19.671875 43.65625 24.015625 45.921875 
Q 28.375 48.1875 33.59375 48.1875 
Q 44.578125 48.1875 50.953125 41.515625 
Q 57.328125 34.859375 57.328125 23.390625 
Q 57.328125 12.15625 50.6875 5.359375 
Q 44.046875 -1.421875 33.015625 -1.421875 
Q 20.359375 -1.421875 13.671875 8.265625 
Q 6.984375 17.96875 6.984375 36.375 
Q 6.984375 53.65625 15.1875 63.9375 
Q 23.390625 74.21875 37.203125 74.21875 
Q 40.921875 74.21875 44.703125 73.484375 
Q 48.484375 72.75 52.59375 71.296875 
z
" id="DejaVuSans-54"/>
      </defs>
      <g transform="translate(275.620139 542.877813)scale(0.14 -0.14)">
       <use xlink:href="#DejaVuSans-54"/>
       <use x="63.623047" xlink:href="#DejaVuSans-46"/>
       <use x="95.410156" xlink:href="#DejaVuSans-48"/>
      </g>
     </g>
    </g>
    <g id="xtick_5">
     <g id="line2d_7">
      <g>
       <use style="stroke:#000000;stroke-width:0.8;" x="355.176264" xlink:href="#m0d8325fe2d" y="525.24"/>
      </g>
     </g>
     <g id="text_7">
      <!-- 6.5 -->
      <g transform="translate(344.044077 542.877813)scale(0.14 -0.14)">
       <use xlink:href="#DejaVuSans-54"/>
       <use x="63.623047" xlink:href="#DejaVuSans-46"/>
       <use x="95.410156" xlink:href="#DejaVuSans-53"/>
      </g>
     </g>
    </g>
    <g id="xtick_6">
     <g id="line2d_8">
      <g>
       <use style="stroke:#000000;stroke-width:0.8;" x="423.600203" xlink:href="#m0d8325fe2d" y="525.24"/>
      </g>
     </g>
     <g id="text_8">
      <!-- 7.0 -->
      <defs>
       <path d="M 8.203125 72.90625 
L 55.078125 72.90625 
L 55.078125 68.703125 
L 28.609375 0 
L 18.3125 0 
L 43.21875 64.59375 
L 8.203125 64.59375 
z
" id="DejaVuSans-55"/>
      </defs>
      <g transform="translate(412.468015 542.877813)scale(0.14 -0.14)">
       <use xlink:href="#DejaVuSans-55"/>
       <use x="63.623047" xlink:href="#DejaVuSans-46"/>
       <use x="95.410156" xlink:href="#DejaVuSans-48"/>
      </g>
     </g>
    </g>
    <g id="xtick_7">
     <g id="line2d_9">
      <g>
       <use style="stroke:#000000;stroke-width:0.8;" x="492.024141" xlink:href="#m0d8325fe2d" y="525.24"/>
      </g>
     </g>
     <g id="text_9">
      <!-- 7.5 -->
      <g transform="translate(480.891953 542.877813)scale(0.14 -0.14)">
       <use xlink:href="#DejaVuSans-55"/>
       <use x="63.623047" xlink:href="#DejaVuSans-46"/>
       <use x="95.410156" xlink:href="#DejaVuSans-53"/>
      </g>
     </g>
    </g>
   </g>
   <g id="line2d_10">
    <path clip-path="url(#p8a04effb81)" d="M 297.700156 525.24 
L 297.700156 402.93 
" style="fill:none;stroke:#ff6384;stroke-dasharray:5.55,2.4;stroke-dashoffset:0;stroke-opacity:0.8;stroke-width:1.5;"/>
   </g>
   <g id="line2d_11">
    <path clip-path="url(#p8a04effb81)" d="M 253.908836 525.24 
L 253.908836 402.93 
" style="fill:none;stroke:#36a2eb;stroke-dasharray:5.55,2.4;stroke-dashoffset:0;stroke-opacity:0.8;stroke-width:1.5;"/>
   </g>
   <g id="patch_10">
    <path d="M 36 525.24 
L 538.2 525.24 
" style="fill:none;stroke:#000000;stroke-linecap:square;stroke-linejoin:miter;stroke-width:0.8;"/>
   </g>
  </g>
 </g>
 <defs>
  <clipPath id="p56cda4ad22">
   <rect height="366.93" width="502.2" x="36" y="36"/>
  </clipPath>
  <clipPath id="p8a04effb81">
   <rect height="122.31" width="502.2" x="36" y="402.93"/>
  </clipPath>
 </defs>
</svg>
