<?xml version="1.0" encoding="utf-8" standalone="no"?>
<!DOCTYPE svg PUBLIC "-//W3C//DTD SVG 1.1//EN"
  "http://www.w3.org/Graphics/SVG/1.1/DTD/svg11.dtd">
<!-- Created with matplotlib (https://matplotlib.org/) -->
<svg height="581.789375pt" version="1.1" viewBox="0 0 574.2 581.789375" width="574.2pt" xmlns="http://www.w3.org/2000/svg" xmlns:xlink="http://www.w3.org/1999/xlink">
 <defs>
  <style type="text/css">
*{stroke-linecap:butt;stroke-linejoin:round;}
  </style>
 </defs>
 <g id="figure_1">
  <g id="patch_1">
   <path d="M 0 581.789375 
L 574.2 581.789375 
L 574.2 0 
L 0 0 
z
" style="fill:none;"/>
  </g>
  <g id="axes_1">
   <g id="patch_2">
    <path d="M 36 402.93 
L 538.2 402.93 
L 538.2 36 
L 36 36 
z
" style="fill:none;"/>
   </g>
   <g id="PolyCollection_1">
    <defs>
     <path d="M 58.827273 -195.538011 
L 58.827273 -195.639141 
L 63.438843 -195.677275 
L 68.050413 -195.728541 
L 72.661983 -195.796982 
L 77.273554 -195.887717 
L 81.885124 -196.007169 
L 86.496694 -196.163327 
L 91.108264 -196.366037 
L 95.719835 -196.627324 
L 100.331405 -196.961733 
L 104.942975 -197.386692 
L 109.554545 -197.922871 
L 114.166116 -198.594534 
L 118.777686 -199.429867 
L 123.389256 -200.461238 
L 128.000826 -201.725394 
L 132.612397 -203.263541 
L 137.223967 -205.121278 
L 141.835537 -207.348368 
L 146.447107 -209.998285 
L 151.058678 -213.127536 
L 155.670248 -216.794708 
L 160.281818 -221.059236 
L 164.893388 -225.979882 
L 169.504959 -231.612921 
L 174.116529 -238.010063 
L 178.728099 -245.216149 
L 183.339669 -253.266668 
L 187.95124 -262.185176 
L 192.56281 -271.980706 
L 197.17438 -282.645277 
L 201.78595 -294.151619 
L 206.397521 -306.451253 
L 211.009091 -319.473028 
L 215.620661 -333.122268 
L 220.232231 -347.280616 
L 224.843802 -361.806676 
L 229.455372 -376.537505 
L 234.066942 -391.290997 
L 238.678512 -405.869119 
L 243.290083 -420.061977 
L 247.901653 -433.652586 
L 252.513223 -446.422225 
L 257.124793 -458.156182 
L 261.736364 -468.6497 
L 266.347934 -477.71389 
L 270.959504 -485.181363 
L 275.571074 -490.91137 
L 280.182645 -494.794214 
L 284.794215 -496.754735 
L 289.405785 -496.754735 
L 294.017355 -494.794214 
L 298.628926 -490.91137 
L 303.240496 -485.181363 
L 307.852066 -477.71389 
L 312.463636 -468.6497 
L 317.075207 -458.156182 
L 321.686777 -446.422225 
L 326.298347 -433.652586 
L 330.909917 -420.061977 
L 335.521488 -405.869119 
L 340.133058 -391.290997 
L 344.744628 -376.537505 
L 349.356198 -361.806676 
L 353.967769 -347.280616 
L 358.579339 -333.122268 
L 363.190909 -319.473028 
L 367.802479 -306.451253 
L 372.41405 -294.151619 
L 377.02562 -282.645277 
L 381.63719 -271.980706 
L 386.24876 -262.185176 
L 390.860331 -253.266668 
L 395.471901 -245.216149 
L 400.083471 -238.010063 
L 404.695041 -231.612921 
L 409.306612 -225.979882 
L 413.918182 -221.059236 
L 418.529752 -216.794708 
L 423.141322 -213.127536 
L 427.752893 -209.998285 
L 432.364463 -207.348368 
L 436.976033 -205.121278 
L 441.587603 -203.263541 
L 446.199174 -201.725394 
L 450.810744 -200.461238 
L 455.422314 -199.429867 
L 460.033884 -198.594534 
L 464.645455 -197.922871 
L 469.257025 -197.386692 
L 473.868595 -196.961733 
L 478.480165 -196.627324 
L 483.091736 -196.366037 
L 487.703306 -196.163327 
L 492.314876 -196.007169 
L 496.926446 -195.887717 
L 501.538017 -195.796982 
L 506.149587 -195.728541 
L 510.761157 -195.677275 
L 515.372727 -195.639141 
L 515.372727 -195.538011 
L 515.372727 -195.538011 
L 510.761157 -195.538011 
L 506.149587 -195.538011 
L 501.538017 -195.538011 
L 496.926446 -195.538011 
L 492.314876 -195.538011 
L 487.703306 -195.538011 
L 483.091736 -195.538011 
L 478.480165 -195.538011 
L 473.868595 -195.538011 
L 469.257025 -195.538011 
L 464.645455 -195.538011 
L 460.033884 -195.538011 
L 455.422314 -195.538011 
L 450.810744 -195.538011 
L 446.199174 -195.538011 
L 441.587603 -195.538011 
L 436.976033 -195.538011 
L 432.364463 -195.538011 
L 427.752893 -195.538011 
L 423.141322 -195.538011 
L 418.529752 -195.538011 
L 413.918182 -195.538011 
L 409.306612 -195.538011 
L 404.695041 -195.538011 
L 400.083471 -195.538011 
L 395.471901 -195.538011 
L 390.860331 -195.538011 
L 386.24876 -195.538011 
L 381.63719 -195.538011 
L 377.02562 -195.538011 
L 372.41405 -195.538011 
L 367.802479 -195.538011 
L 363.190909 -195.538011 
L 358.579339 -195.538011 
L 353.967769 -195.538011 
L 349.356198 -195.538011 
L 344.744628 -195.538011 
L 340.133058 -195.538011 
L 335.521488 -195.538011 
L 330.909917 -195.538011 
L 326.298347 -195.538011 
L 321.686777 -195.538011 
L 317.075207 -195.538011 
L 312.463636 -195.538011 
L 307.852066 -195.538011 
L 303.240496 -195.538011 
L 298.628926 -195.538011 
L 294.017355 -195.538011 
L 289.405785 -195.538011 
L 284.794215 -195.538011 
L 280.182645 -195.538011 
L 275.571074 -195.538011 
L 270.959504 -195.538011 
L 266.347934 -195.538011 
L 261.736364 -195.538011 
L 257.124793 -195.538011 
L 252.513223 -195.538011 
L 247.901653 -195.538011 
L 243.290083 -195.538011 
L 238.678512 -195.538011 
L 234.066942 -195.538011 
L 229.455372 -195.538011 
L 224.843802 -195.538011 
L 220.232231 -195.538011 
L 215.620661 -195.538011 
L 211.009091 -195.538011 
L 206.397521 -195.538011 
L 201.78595 -195.538011 
L 197.17438 -195.538011 
L 192.56281 -195.538011 
L 187.95124 -195.538011 
L 183.339669 -195.538011 
L 178.728099 -195.538011 
L 174.116529 -195.538011 
L 169.504959 -195.538011 
L 164.893388 -195.538011 
L 160.281818 -195.538011 
L 155.670248 -195.538011 
L 151.058678 -195.538011 
L 146.447107 -195.538011 
L 141.835537 -195.538011 
L 137.223967 -195.538011 
L 132.612397 -195.538011 
L 128.000826 -195.538011 
L 123.389256 -195.538011 
L 118.777686 -195.538011 
L 114.166116 -195.538011 
L 109.554545 -195.538011 
L 104.942975 -195.538011 
L 100.331405 -195.538011 
L 95.719835 -195.538011 
L 91.108264 -195.538011 
L 86.496694 -195.538011 
L 81.885124 -195.538011 
L 77.273554 -195.538011 
L 72.661983 -195.538011 
L 68.050413 -195.538011 
L 63.438843 -195.538011 
L 58.827273 -195.538011 
z
" id="m6f56d5d55b" style="stroke:#ff6384;stroke-opacity:0.5;"/>
    </defs>
    <g clip-path="url(#pc731f3ff0c)">
     <use style="fill:#ff6384;fill-opacity:0.5;stroke:#ff6384;stroke-opacity:0.5;" x="0" xlink:href="#m6f56d5d55b" y="581.789375"/>
    </g>
   </g>
   <g id="PolyCollection_2">
    <defs>
     <path d="M 66.399811 -195.538011 
L 66.399811 -195.650004 
L 70.564066 -195.692234 
L 74.728322 -195.749007 
L 78.892577 -195.8248 
L 83.056833 -195.925281 
L 87.221088 -196.057565 
L 91.385344 -196.230497 
L 95.549599 -196.454982 
L 99.713855 -196.744335 
L 103.87811 -197.114666 
L 108.042366 -197.585273 
L 112.206622 -198.179047 
L 116.370877 -198.922859 
L 120.535133 -199.847921 
L 124.699388 -200.990079 
L 128.863644 -202.390029 
L 133.027899 -204.093399 
L 137.192155 -206.150691 
L 141.35641 -208.617009 
L 145.520666 -211.551575 
L 149.684922 -215.016962 
L 153.849177 -219.078053 
L 158.013433 -223.800667 
L 162.177688 -229.249878 
L 166.341944 -235.488004 
L 170.506199 -242.572312 
L 174.670455 -250.552459 
L 178.83471 -259.467747 
L 182.998966 -269.344261 
L 187.163222 -280.192004 
L 191.327477 -292.002137 
L 195.491733 -304.744465 
L 199.655988 -318.365297 
L 203.820244 -332.785841 
L 207.984499 -347.901251 
L 212.148755 -363.580456 
L 216.31301 -379.666871 
L 220.477266 -395.980052 
L 224.641521 -412.31833 
L 228.805777 -428.4624 
L 232.970033 -444.179822 
L 237.134288 -459.230303 
L 241.298544 -473.371627 
L 245.462799 -486.366018 
L 249.627055 -497.986726 
L 253.79131 -508.02457 
L 257.955566 -516.294181 
L 262.119821 -522.639693 
L 266.284077 -526.939623 
L 270.448333 -529.110739 
L 274.612588 -529.110739 
L 278.776844 -526.939623 
L 282.941099 -522.639693 
L 287.105355 -516.294181 
L 291.26961 -508.02457 
L 295.433866 -497.986726 
L 299.598121 -486.366018 
L 303.762377 -473.371627 
L 307.926632 -459.230303 
L 312.090888 -444.179822 
L 316.255144 -428.4624 
L 320.419399 -412.31833 
L 324.583655 -395.980052 
L 328.74791 -379.666871 
L 332.912166 -363.580456 
L 337.076421 -347.901251 
L 341.240677 -332.785841 
L 345.404932 -318.365297 
L 349.569188 -304.744465 
L 353.733444 -292.002137 
L 357.897699 -280.192004 
L 362.061955 -269.344261 
L 366.22621 -259.467747 
L 370.390466 -250.552459 
L 374.554721 -242.572312 
L 378.718977 -235.488004 
L 382.883232 -229.249878 
L 387.047488 -223.800667 
L 391.211744 -219.078053 
L 395.375999 -215.016962 
L 399.540255 -211.551575 
L 403.70451 -208.617009 
L 407.868766 -206.150691 
L 412.033021 -204.093399 
L 416.197277 -202.390029 
L 420.361532 -200.990079 
L 424.525788 -199.847921 
L 428.690043 -198.922859 
L 432.854299 -198.179047 
L 437.018555 -197.585273 
L 441.18281 -197.114666 
L 445.347066 -196.744335 
L 449.511321 -196.454982 
L 453.675577 -196.230497 
L 457.839832 -196.057565 
L 462.004088 -195.925281 
L 466.168343 -195.8248 
L 470.332599 -195.749007 
L 474.496855 -195.692234 
L 478.66111 -195.650004 
L 478.66111 -195.538011 
L 478.66111 -195.538011 
L 474.496855 -195.538011 
L 470.332599 -195.538011 
L 466.168343 -195.538011 
L 462.004088 -195.538011 
L 457.839832 -195.538011 
L 453.675577 -195.538011 
L 449.511321 -195.538011 
L 445.347066 -195.538011 
L 441.18281 -195.538011 
L 437.018555 -195.538011 
L 432.854299 -195.538011 
L 428.690043 -195.538011 
L 424.525788 -195.538011 
L 420.361532 -195.538011 
L 416.197277 -195.538011 
L 412.033021 -195.538011 
L 407.868766 -195.538011 
L 403.70451 -195.538011 
L 399.540255 -195.538011 
L 395.375999 -195.538011 
L 391.211744 -195.538011 
L 387.047488 -195.538011 
L 382.883232 -195.538011 
L 378.718977 -195.538011 
L 374.554721 -195.538011 
L 370.390466 -195.538011 
L 366.22621 -195.538011 
L 362.061955 -195.538011 
L 357.897699 -195.538011 
L 353.733444 -195.538011 
L 349.569188 -195.538011 
L 345.404932 -195.538011 
L 341.240677 -195.538011 
L 337.076421 -195.538011 
L 332.912166 -195.538011 
L 328.74791 -195.538011 
L 324.583655 -195.538011 
L 320.419399 -195.538011 
L 316.255144 -195.538011 
L 312.090888 -195.538011 
L 307.926632 -195.538011 
L 303.762377 -195.538011 
L 299.598121 -195.538011 
L 295.433866 -195.538011 
L 291.26961 -195.538011 
L 287.105355 -195.538011 
L 282.941099 -195.538011 
L 278.776844 -195.538011 
L 274.612588 -195.538011 
L 270.448333 -195.538011 
L 266.284077 -195.538011 
L 262.119821 -195.538011 
L 257.955566 -195.538011 
L 253.79131 -195.538011 
L 249.627055 -195.538011 
L 245.462799 -195.538011 
L 241.298544 -195.538011 
L 237.134288 -195.538011 
L 232.970033 -195.538011 
L 228.805777 -195.538011 
L 224.641521 -195.538011 
L 220.477266 -195.538011 
L 216.31301 -195.538011 
L 212.148755 -195.538011 
L 207.984499 -195.538011 
L 203.820244 -195.538011 
L 199.655988 -195.538011 
L 195.491733 -195.538011 
L 191.327477 -195.538011 
L 187.163222 -195.538011 
L 182.998966 -195.538011 
L 178.83471 -195.538011 
L 174.670455 -195.538011 
L 170.506199 -195.538011 
L 166.341944 -195.538011 
L 162.177688 -195.538011 
L 158.013433 -195.538011 
L 153.849177 -195.538011 
L 149.684922 -195.538011 
L 145.520666 -195.538011 
L 141.35641 -195.538011 
L 137.192155 -195.538011 
L 133.027899 -195.538011 
L 128.863644 -195.538011 
L 124.699388 -195.538011 
L 120.535133 -195.538011 
L 116.370877 -195.538011 
L 112.206622 -195.538011 
L 108.042366 -195.538011 
L 103.87811 -195.538011 
L 99.713855 -195.538011 
L 95.549599 -195.538011 
L 91.385344 -195.538011 
L 87.221088 -195.538011 
L 83.056833 -195.538011 
L 78.892577 -195.538011 
L 74.728322 -195.538011 
L 70.564066 -195.538011 
L 66.399811 -195.538011 
z
" id="mb1c9fa659f" style="stroke:#36a2eb;stroke-opacity:0.5;"/>
    </defs>
    <g clip-path="url(#pc731f3ff0c)">
     <use style="fill:#36a2eb;fill-opacity:0.5;stroke:#36a2eb;stroke-opacity:0.5;" x="0" xlink:href="#mb1c9fa659f" y="581.789375"/>
    </g>
   </g>
   <g id="line2d_1">
    <path clip-path="url(#pc731f3ff0c)" d="M 58.827273 386.150234 
L 63.438843 386.1121 
L 68.050413 386.060834 
L 72.661983 385.992393 
L 77.273554 385.901658 
L 81.885124 385.782206 
L 86.496694 385.626048 
L 91.108264 385.423338 
L 95.719835 385.162051 
L 100.331405 384.827642 
L 104.942975 384.402683 
L 109.554545 383.866504 
L 114.166116 383.194841 
L 118.777686 382.359508 
L 123.389256 381.328137 
L 128.000826 380.063981 
L 132.612397 378.525834 
L 137.223967 376.668097 
L 141.835537 374.441007 
L 146.447107 371.79109 
L 151.058678 368.661839 
L 155.670248 364.994667 
L 160.281818 360.730139 
L 164.893388 355.809493 
L 169.504959 350.176454 
L 174.116529 343.779312 
L 178.728099 336.573226 
L 183.339669 328.522707 
L 187.95124 319.604199 
L 192.56281 309.808669 
L 197.17438 299.144098 
L 201.78595 287.637756 
L 206.397521 275.338122 
L 211.009091 262.316347 
L 215.620661 248.667107 
L 220.232231 234.508759 
L 224.843802 219.982699 
L 229.455372 205.25187 
L 234.066942 190.498378 
L 238.678512 175.920256 
L 243.290083 161.727398 
L 247.901653 148.136789 
L 252.513223 135.36715 
L 257.124793 123.633193 
L 261.736364 113.139675 
L 266.347934 104.075485 
L 270.959504 96.608012 
L 275.571074 90.878005 
L 280.182645 86.995161 
L 284.794215 85.03464 
L 289.405785 85.03464 
L 294.017355 86.995161 
L 298.628926 90.878005 
L 303.240496 96.608012 
L 307.852066 104.075485 
L 312.463636 113.139675 
L 317.075207 123.633193 
L 321.686777 135.36715 
L 326.298347 148.136789 
L 330.909917 161.727398 
L 335.521488 175.920256 
L 340.133058 190.498378 
L 344.744628 205.25187 
L 349.356198 219.982699 
L 353.967769 234.508759 
L 358.579339 248.667107 
L 363.190909 262.316347 
L 367.802479 275.338122 
L 372.41405 287.637756 
L 377.02562 299.144098 
L 381.63719 309.808669 
L 386.24876 319.604199 
L 390.860331 328.522707 
L 395.471901 336.573226 
L 400.083471 343.779312 
L 404.695041 350.176454 
L 409.306612 355.809493 
L 413.918182 360.730139 
L 418.529752 364.994667 
L 423.141322 368.661839 
L 427.752893 371.79109 
L 432.364463 374.441007 
L 436.976033 376.668097 
L 441.587603 378.525834 
L 446.199174 380.063981 
L 450.810744 381.328137 
L 455.422314 382.359508 
L 460.033884 383.194841 
L 464.645455 383.866504 
L 469.257025 384.402683 
L 473.868595 384.827642 
L 478.480165 385.162051 
L 483.091736 385.423338 
L 487.703306 385.626048 
L 492.314876 385.782206 
L 496.926446 385.901658 
L 501.538017 385.992393 
L 506.149587 386.060834 
L 510.761157 386.1121 
L 515.372727 386.150234 
" style="fill:none;stroke:#ff6384;stroke-linecap:square;"/>
   </g>
   <g id="line2d_2">
    <path clip-path="url(#pc731f3ff0c)" d="M 66.399811 386.139371 
L 70.564066 386.097141 
L 74.728322 386.040368 
L 78.892577 385.964575 
L 83.056833 385.864094 
L 87.221088 385.73181 
L 91.385344 385.558878 
L 95.549599 385.334393 
L 99.713855 385.04504 
L 103.87811 384.674709 
L 108.042366 384.204102 
L 112.206622 383.610328 
L 116.370877 382.866516 
L 120.535133 381.941454 
L 124.699388 380.799296 
L 128.863644 379.399346 
L 133.027899 377.695976 
L 137.192155 375.638684 
L 141.35641 373.172366 
L 145.520666 370.2378 
L 149.684922 366.772413 
L 153.849177 362.711322 
L 158.013433 357.988708 
L 162.177688 352.539497 
L 166.341944 346.301371 
L 170.506199 339.217063 
L 174.670455 331.236916 
L 178.83471 322.321628 
L 182.998966 312.445114 
L 187.163222 301.597371 
L 191.327477 289.787238 
L 195.491733 277.04491 
L 199.655988 263.424078 
L 203.820244 249.003534 
L 207.984499 233.888124 
L 212.148755 218.208919 
L 216.31301 202.122504 
L 220.477266 185.809323 
L 224.641521 169.471045 
L 228.805777 153.326975 
L 232.970033 137.609553 
L 237.134288 122.559072 
L 241.298544 108.417748 
L 245.462799 95.423357 
L 249.627055 83.802649 
L 253.79131 73.764805 
L 257.955566 65.495194 
L 262.119821 59.149682 
L 266.284077 54.849752 
L 270.448333 52.678636 
L 274.612588 52.678636 
L 278.776844 54.849752 
L 282.941099 59.149682 
L 287.105355 65.495194 
L 291.26961 73.764805 
L 295.433866 83.802649 
L 299.598121 95.423357 
L 303.762377 108.417748 
L 307.926632 122.559072 
L 312.090888 137.609553 
L 316.255144 153.326975 
L 320.419399 169.471045 
L 324.583655 185.809323 
L 328.74791 202.122504 
L 332.912166 218.208919 
L 337.076421 233.888124 
L 341.240677 249.003534 
L 345.404932 263.424078 
L 349.569188 277.04491 
L 353.733444 289.787238 
L 357.897699 301.597371 
L 362.061955 312.445114 
L 366.22621 322.321628 
L 370.390466 331.236916 
L 374.554721 339.217063 
L 378.718977 346.301371 
L 382.883232 352.539497 
L 387.047488 357.988708 
L 391.211744 362.711322 
L 395.375999 366.772413 
L 399.540255 370.2378 
L 403.70451 373.172366 
L 407.868766 375.638684 
L 412.033021 377.695976 
L 416.197277 379.399346 
L 420.361532 380.799296 
L 424.525788 381.941454 
L 428.690043 382.866516 
L 432.854299 383.610328 
L 437.018555 384.204102 
L 441.18281 384.674709 
L 445.347066 385.04504 
L 449.511321 385.334393 
L 453.675577 385.558878 
L 457.839832 385.73181 
L 462.004088 385.864094 
L 466.168343 385.964575 
L 470.332599 386.040368 
L 474.496855 386.097141 
L 478.66111 386.139371 
" style="fill:none;stroke:#36a2eb;stroke-linecap:square;"/>
   </g>
   <g id="patch_3">
    <path d="M 36 402.93 
L 538.2 402.93 
" style="fill:none;stroke:#000000;stroke-linecap:square;stroke-linejoin:miter;stroke-width:0.8;"/>
   </g>
   <g id="legend_1">
    <g id="patch_4">
     <path d="M 450.225313 88.29875 
L 528.4 88.29875 
Q 531.2 88.29875 531.2 85.49875 
L 531.2 45.8 
Q 531.2 43 528.4 43 
L 450.225313 43 
Q 447.425313 43 447.425313 45.8 
L 447.425313 85.49875 
Q 447.425313 88.29875 450.225313 88.29875 
z
" style="fill:#ffffff;opacity:0.8;stroke:#cccccc;stroke-linejoin:miter;"/>
    </g>
    <g id="patch_5">
     <path d="M 453.025313 59.237813 
L 481.025313 59.237813 
L 481.025313 49.437813 
L 453.025313 49.437813 
z
" style="fill:#ff6384;opacity:0.5;stroke:#ff6384;stroke-linejoin:miter;"/>
    </g>
    <g id="text_1">
     <!-- base -->
     <defs>
      <path d="M 48.6875 27.296875 
Q 48.6875 37.203125 44.609375 42.84375 
Q 40.53125 48.484375 33.40625 48.484375 
Q 26.265625 48.484375 22.1875 42.84375 
Q 18.109375 37.203125 18.109375 27.296875 
Q 18.109375 17.390625 22.1875 11.75 
Q 26.265625 6.109375 33.40625 6.109375 
Q 40.53125 6.109375 44.609375 11.75 
Q 48.6875 17.390625 48.6875 27.296875 
z
M 18.109375 46.390625 
Q 20.953125 51.265625 25.265625 53.625 
Q 29.59375 56 35.59375 56 
Q 45.5625 56 51.78125 48.09375 
Q 58.015625 40.1875 58.015625 27.296875 
Q 58.015625 14.40625 51.78125 6.484375 
Q 45.5625 -1.421875 35.59375 -1.421875 
Q 29.59375 -1.421875 25.265625 0.953125 
Q 20.953125 3.328125 18.109375 8.203125 
L 18.109375 0 
L 9.078125 0 
L 9.078125 75.984375 
L 18.109375 75.984375 
z
" id="DejaVuSans-98"/>
      <path d="M 34.28125 27.484375 
Q 23.390625 27.484375 19.1875 25 
Q 14.984375 22.515625 14.984375 16.5 
Q 14.984375 11.71875 18.140625 8.90625 
Q 21.296875 6.109375 26.703125 6.109375 
Q 34.1875 6.109375 38.703125 11.40625 
Q 43.21875 16.703125 43.21875 25.484375 
L 43.21875 27.484375 
z
M 52.203125 31.203125 
L 52.203125 0 
L 43.21875 0 
L 43.21875 8.296875 
Q 40.140625 3.328125 35.546875 0.953125 
Q 30.953125 -1.421875 24.3125 -1.421875 
Q 15.921875 -1.421875 10.953125 3.296875 
Q 6 8.015625 6 15.921875 
Q 6 25.140625 12.171875 29.828125 
Q 18.359375 34.515625 30.609375 34.515625 
L 43.21875 34.515625 
L 43.21875 35.40625 
Q 43.21875 41.609375 39.140625 45 
Q 35.0625 48.390625 27.6875 48.390625 
Q 23 48.390625 18.546875 47.265625 
Q 14.109375 46.140625 10.015625 43.890625 
L 10.015625 52.203125 
Q 14.9375 54.109375 19.578125 55.046875 
Q 24.21875 56 28.609375 56 
Q 40.484375 56 46.34375 49.84375 
Q 52.203125 43.703125 52.203125 31.203125 
z
" id="DejaVuSans-97"/>
      <path d="M 44.28125 53.078125 
L 44.28125 44.578125 
Q 40.484375 46.53125 36.375 47.5 
Q 32.28125 48.484375 27.875 48.484375 
Q 21.1875 48.484375 17.84375 46.4375 
Q 14.5 44.390625 14.5 40.28125 
Q 14.5 37.15625 16.890625 35.375 
Q 19.28125 33.59375 26.515625 31.984375 
L 29.59375 31.296875 
Q 39.15625 29.25 43.1875 25.515625 
Q 47.21875 21.78125 47.21875 15.09375 
Q 47.21875 7.46875 41.1875 3.015625 
Q 35.15625 -1.421875 24.609375 -1.421875 
Q 20.21875 -1.421875 15.453125 -0.5625 
Q 10.6875 0.296875 5.421875 2 
L 5.421875 11.28125 
Q 10.40625 8.6875 15.234375 7.390625 
Q 20.0625 6.109375 24.8125 6.109375 
Q 31.15625 6.109375 34.5625 8.28125 
Q 37.984375 10.453125 37.984375 14.40625 
Q 37.984375 18.0625 35.515625 20.015625 
Q 33.0625 21.96875 24.703125 23.78125 
L 21.578125 24.515625 
Q 13.234375 26.265625 9.515625 29.90625 
Q 5.8125 33.546875 5.8125 39.890625 
Q 5.8125 47.609375 11.28125 51.796875 
Q 16.75 56 26.8125 56 
Q 31.78125 56 36.171875 55.265625 
Q 40.578125 54.546875 44.28125 53.078125 
z
" id="DejaVuSans-115"/>
      <path d="M 56.203125 29.59375 
L 56.203125 25.203125 
L 14.890625 25.203125 
Q 15.484375 15.921875 20.484375 11.0625 
Q 25.484375 6.203125 34.421875 6.203125 
Q 39.59375 6.203125 44.453125 7.46875 
Q 49.3125 8.734375 54.109375 11.28125 
L 54.109375 2.78125 
Q 49.265625 0.734375 44.1875 -0.34375 
Q 39.109375 -1.421875 33.890625 -1.421875 
Q 20.796875 -1.421875 13.15625 6.1875 
Q 5.515625 13.8125 5.515625 26.8125 
Q 5.515625 40.234375 12.765625 48.109375 
Q 20.015625 56 32.328125 56 
Q 43.359375 56 49.78125 48.890625 
Q 56.203125 41.796875 56.203125 29.59375 
z
M 47.21875 32.234375 
Q 47.125 39.59375 43.09375 43.984375 
Q 39.0625 48.390625 32.421875 48.390625 
Q 24.90625 48.390625 20.390625 44.140625 
Q 15.875 39.890625 15.1875 32.171875 
z
" id="DejaVuSans-101"/>
     </defs>
     <g transform="translate(492.225313 59.237813)scale(0.14 -0.14)">
      <use xlink:href="#DejaVuSans-98"/>
      <use x="63.476562" xlink:href="#DejaVuSans-97"/>
      <use x="124.755859" xlink:href="#DejaVuSans-115"/>
      <use x="176.855469" xlink:href="#DejaVuSans-101"/>
     </g>
    </g>
    <g id="patch_6">
     <path d="M 453.025313 79.787188 
L 481.025313 79.787188 
L 481.025313 69.987188 
L 453.025313 69.987188 
z
" style="fill:#36a2eb;opacity:0.5;stroke:#36a2eb;stroke-linejoin:miter;"/>
    </g>
    <g id="text_2">
     <!-- new -->
     <defs>
      <path d="M 54.890625 33.015625 
L 54.890625 0 
L 45.90625 0 
L 45.90625 32.71875 
Q 45.90625 40.484375 42.875 44.328125 
Q 39.84375 48.1875 33.796875 48.1875 
Q 26.515625 48.1875 22.3125 43.546875 
Q 18.109375 38.921875 18.109375 30.90625 
L 18.109375 0 
L 9.078125 0 
L 9.078125 54.6875 
L 18.109375 54.6875 
L 18.109375 46.1875 
Q 21.34375 51.125 25.703125 53.5625 
Q 30.078125 56 35.796875 56 
Q 45.21875 56 50.046875 50.171875 
Q 54.890625 44.34375 54.890625 33.015625 
z
" id="DejaVuSans-110"/>
      <path d="M 4.203125 54.6875 
L 13.1875 54.6875 
L 24.421875 12.015625 
L 35.59375 54.6875 
L 46.1875 54.6875 
L 57.421875 12.015625 
L 68.609375 54.6875 
L 77.59375 54.6875 
L 63.28125 0 
L 52.6875 0 
L 40.921875 44.828125 
L 29.109375 0 
L 18.5 0 
z
" id="DejaVuSans-119"/>
     </defs>
     <g transform="translate(492.225313 79.787188)scale(0.14 -0.14)">
      <use xlink:href="#DejaVuSans-110"/>
      <use x="63.378906" xlink:href="#DejaVuSans-101"/>
      <use x="124.902344" xlink:href="#DejaVuSans-119"/>
     </g>
    </g>
   </g>
  </g>
  <g id="axes_2">
   <g id="patch_7">
    <path d="M 36 525.24 
L 538.2 525.24 
L 538.2 402.93 
L 36 402.93 
z
" style="fill:none;"/>
   </g>
   <g id="patch_8">
    <path clip-path="url(#p089ae51979)" d="M 175.246364 519.680455 
L 398.953636 519.680455 
L 398.953636 482.616818 
L 175.246364 482.616818 
z
" style="fill:#ff6384;opacity:0.5;"/>
   </g>
   <g id="patch_9">
    <path clip-path="url(#p089ae51979)" d="M 171.526442 445.553182 
L 373.534479 445.553182 
L 373.534479 408.489545 
L 171.526442 408.489545 
z
" style="fill:#36a2eb;opacity:0.5;"/>
   </g>
   <g id="matplotlib.axis_1">
    <g id="xtick_1">
     <g id="line2d_3">
      <defs>
       <path d="M 0 0 
L 0 3.5 
" id="mb7e550e1c2" style="stroke:#000000;stroke-width:0.8;"/>
      </defs>
      <g>
       <use style="stroke:#000000;stroke-width:0.8;" x="97.695984" xlink:href="#mb7e550e1c2" y="525.24"/>
      </g>
     </g>
     <g id="text_3">
      <!-- 2.5 -->
      <defs>
       <path d="M 19.1875 8.296875 
L 53.609375 8.296875 
L 53.609375 0 
L 7.328125 0 
L 7.328125 8.296875 
Q 12.9375 14.109375 22.625 23.890625 
Q 32.328125 33.6875 34.8125 36.53125 
Q 39.546875 41.84375 41.421875 45.53125 
Q 43.3125 49.21875 43.3125 52.78125 
Q 43.3125 58.59375 39.234375 62.25 
Q 35.15625 65.921875 28.609375 65.921875 
Q 23.96875 65.921875 18.8125 64.3125 
Q 13.671875 62.703125 7.8125 59.421875 
L 7.8125 69.390625 
Q 13.765625 71.78125 18.9375 73 
Q 24.125 74.21875 28.421875 74.21875 
Q 39.75 74.21875 46.484375 68.546875 
Q 53.21875 62.890625 53.21875 53.421875 
Q 53.21875 48.921875 51.53125 44.890625 
Q 49.859375 40.875 45.40625 35.40625 
Q 44.1875 33.984375 37.640625 27.21875 
Q 31.109375 20.453125 19.1875 8.296875 
z
" id="DejaVuSans-50"/>
       <path d="M 10.6875 12.40625 
L 21 12.40625 
L 21 0 
L 10.6875 0 
z
" id="DejaVuSans-46"/>
       <path d="M 10.796875 72.90625 
L 49.515625 72.90625 
L 49.515625 64.59375 
L 19.828125 64.59375 
L 19.828125 46.734375 
Q 21.96875 47.46875 24.109375 47.828125 
Q 26.265625 48.1875 28.421875 48.1875 
Q 40.625 48.1875 47.75 41.5 
Q 54.890625 34.8125 54.890625 23.390625 
Q 54.890625 11.625 47.5625 5.09375 
Q 40.234375 -1.421875 26.90625 -1.421875 
Q 22.3125 -1.421875 17.546875 -0.640625 
Q 12.796875 0.140625 7.71875 1.703125 
L 7.71875 11.625 
Q 12.109375 9.234375 16.796875 8.0625 
Q 21.484375 6.890625 26.703125 6.890625 
Q 35.15625 6.890625 40.078125 11.328125 
Q 45.015625 15.765625 45.015625 23.390625 
Q 45.015625 31 40.078125 35.4375 
Q 35.15625 39.890625 26.703125 39.890625 
Q 22.75 39.890625 18.8125 39.015625 
Q 14.890625 38.140625 10.796875 36.28125 
z
" id="DejaVuSans-53"/>
      </defs>
      <g transform="translate(86.563797 542.877813)scale(0.14 -0.14)">
       <use xlink:href="#DejaVuSans-50"/>
       <use x="63.623047" xlink:href="#DejaVuSans-46"/>
       <use x="95.410156" xlink:href="#DejaVuSans-53"/>
      </g>
     </g>
    </g>
    <g id="xtick_2">
     <g id="line2d_4">
      <g>
       <use style="stroke:#000000;stroke-width:0.8;" x="178.637871" xlink:href="#mb7e550e1c2" y="525.24"/>
      </g>
     </g>
     <g id="text_4">
      <!-- 3.0 -->
      <defs>
       <path d="M 40.578125 39.3125 
Q 47.65625 37.796875 51.625 33 
Q 55.609375 28.21875 55.609375 21.1875 
Q 55.609375 10.40625 48.1875 4.484375 
Q 40.765625 -1.421875 27.09375 -1.421875 
Q 22.515625 -1.421875 17.65625 -0.515625 
Q 12.796875 0.390625 7.625 2.203125 
L 7.625 11.71875 
Q 11.71875 9.328125 16.59375 8.109375 
Q 21.484375 6.890625 26.8125 6.890625 
Q 36.078125 6.890625 40.9375 10.546875 
Q 45.796875 14.203125 45.796875 21.1875 
Q 45.796875 27.640625 41.28125 31.265625 
Q 36.765625 34.90625 28.71875 34.90625 
L 20.21875 34.90625 
L 20.21875 43.015625 
L 29.109375 43.015625 
Q 36.375 43.015625 40.234375 45.921875 
Q 44.09375 48.828125 44.09375 54.296875 
Q 44.09375 59.90625 40.109375 62.90625 
Q 36.140625 65.921875 28.71875 65.921875 
Q 24.65625 65.921875 20.015625 65.03125 
Q 15.375 64.15625 9.8125 62.3125 
L 9.8125 71.09375 
Q 15.4375 72.65625 20.34375 73.4375 
Q 25.25 74.21875 29.59375 74.21875 
Q 40.828125 74.21875 47.359375 69.109375 
Q 53.90625 64.015625 53.90625 55.328125 
Q 53.90625 49.265625 50.4375 45.09375 
Q 46.96875 40.921875 40.578125 39.3125 
z
" id="DejaVuSans-51"/>
       <path d="M 31.78125 66.40625 
Q 24.171875 66.40625 20.328125 58.90625 
Q 16.5 51.421875 16.5 36.375 
Q 16.5 21.390625 20.328125 13.890625 
Q 24.171875 6.390625 31.78125 6.390625 
Q 39.453125 6.390625 43.28125 13.890625 
Q 47.125 21.390625 47.125 36.375 
Q 47.125 51.421875 43.28125 58.90625 
Q 39.453125 66.40625 31.78125 66.40625 
z
M 31.78125 74.21875 
Q 44.046875 74.21875 50.515625 64.515625 
Q 56.984375 54.828125 56.984375 36.375 
Q 56.984375 17.96875 50.515625 8.265625 
Q 44.046875 -1.421875 31.78125 -1.421875 
Q 19.53125 -1.421875 13.0625 8.265625 
Q 6.59375 17.96875 6.59375 36.375 
Q 6.59375 54.828125 13.0625 64.515625 
Q 19.53125 74.21875 31.78125 74.21875 
z
" id="DejaVuSans-48"/>
      </defs>
      <g transform="translate(167.505684 542.877813)scale(0.14 -0.14)">
       <use xlink:href="#DejaVuSans-51"/>
       <use x="63.623047" xlink:href="#DejaVuSans-46"/>
       <use x="95.410156" xlink:href="#DejaVuSans-48"/>
      </g>
     </g>
    </g>
    <g id="xtick_3">
     <g id="line2d_5">
      <g>
       <use style="stroke:#000000;stroke-width:0.8;" x="259.579758" xlink:href="#mb7e550e1c2" y="525.24"/>
      </g>
     </g>
     <g id="text_5">
      <!-- 3.5 -->
      <g transform="translate(248.447571 542.877813)scale(0.14 -0.14)">
       <use xlink:href="#DejaVuSans-51"/>
       <use x="63.623047" xlink:href="#DejaVuSans-46"/>
       <use x="95.410156" xlink:href="#DejaVuSans-53"/>
      </g>
     </g>
    </g>
    <g id="xtick_4">
     <g id="line2d_6">
      <g>
       <use style="stroke:#000000;stroke-width:0.8;" x="340.521646" xlink:href="#mb7e550e1c2" y="525.24"/>
      </g>
     </g>
     <g id="text_6">
      <!-- 4.0 -->
      <defs>
       <path d="M 37.796875 64.3125 
L 12.890625 25.390625 
L 37.796875 25.390625 
z
M 35.203125 72.90625 
L 47.609375 72.90625 
L 47.609375 25.390625 
L 58.015625 25.390625 
L 58.015625 17.1875 
L 47.609375 17.1875 
L 47.609375 0 
L 37.796875 0 
L 37.796875 17.1875 
L 4.890625 17.1875 
L 4.890625 26.703125 
z
" id="DejaVuSans-52"/>
      </defs>
      <g transform="translate(329.389458 542.877813)scale(0.14 -0.14)">
       <use xlink:href="#DejaVuSans-52"/>
       <use x="63.623047" xlink:href="#DejaVuSans-46"/>
       <use x="95.410156" xlink:href="#DejaVuSans-48"/>
      </g>
     </g>
    </g>
    <g id="xtick_5">
     <g id="line2d_7">
      <g>
       <use style="stroke:#000000;stroke-width:0.8;" x="421.463533" xlink:href="#mb7e550e1c2" y="525.24"/>
      </g>
     </g>
     <g id="text_7">
      <!-- 4.5 -->
      <g transform="translate(410.331345 542.877813)scale(0.14 -0.14)">
       <use xlink:href="#DejaVuSans-52"/>
       <use x="63.623047" xlink:href="#DejaVuSans-46"/>
       <use x="95.410156" xlink:href="#DejaVuSans-53"/>
      </g>
     </g>
    </g>
    <g id="xtick_6">
     <g id="line2d_8">
      <g>
       <use style="stroke:#000000;stroke-width:0.8;" x="502.40542" xlink:href="#mb7e550e1c2" y="525.24"/>
      </g>
     </g>
     <g id="text_8">
      <!-- 5.0 -->
      <g transform="translate(491.273232 542.877813)scale(0.14 -0.14)">
       <use xlink:href="#DejaVuSans-53"/>
       <use x="63.623047" xlink:href="#DejaVuSans-46"/>
       <use x="95.410156" xlink:href="#DejaVuSans-48"/>
      </g>
     </g>
    </g>
   </g>
   <g id="line2d_9">
    <path clip-path="url(#p089ae51979)" d="M 287.1 525.24 
L 287.1 402.93 
" style="fill:none;stroke:#ff6384;stroke-dasharray:5.55,2.4;stroke-dashoffset:0;stroke-opacity:0.8;stroke-width:1.5;"/>
   </g>
   <g id="line2d_10">
    <path clip-path="url(#p089ae51979)" d="M 272.53046 525.24 
L 272.53046 402.93 
" style="fill:none;stroke:#36a2eb;stroke-dasharray:5.55,2.4;stroke-dashoffset:0;stroke-opacity:0.8;stroke-width:1.5;"/>
   </g>
   <g id="patch_10">
    <path d="M 36 525.24 
L 538.2 525.24 
" style="fill:none;stroke:#000000;stroke-linecap:square;stroke-linejoin:miter;stroke-width:0.8;"/>
   </g>
  </g>
 </g>
 <defs>
  <clipPath id="pc731f3ff0c">
   <rect height="366.93" width="502.2" x="36" y="36"/>
  </clipPath>
  <clipPath id="p089ae51979">
   <rect height="122.31" width="502.2" x="36" y="402.93"/>
  </clipPath>
 </defs>
</svg>
