<?xml version="1.0" encoding="utf-8" standalone="no"?>
<!DOCTYPE svg PUBLIC "-//W3C//DTD SVG 1.1//EN"
  "http://www.w3.org/Graphics/SVG/1.1/DTD/svg11.dtd">
<!-- Created with matplotlib (https://matplotlib.org/) -->
<svg height="581.789375pt" version="1.1" viewBox="0 0 574.2 581.789375" width="574.2pt" xmlns="http://www.w3.org/2000/svg" xmlns:xlink="http://www.w3.org/1999/xlink">
 <defs>
  <style type="text/css">
*{stroke-linecap:butt;stroke-linejoin:round;}
  </style>
 </defs>
 <g id="figure_1">
  <g id="patch_1">
   <path d="M 0 581.789375 
L 574.2 581.789375 
L 574.2 0 
L 0 0 
z
" style="fill:none;"/>
  </g>
  <g id="axes_1">
   <g id="patch_2">
    <path d="M 36 402.93 
L 538.2 402.93 
L 538.2 36 
L 36 36 
z
" style="fill:none;"/>
   </g>
   <g id="PolyCollection_1">
    <defs>
     <path d="M 58.827273 -195.538011 
L 58.827273 -195.639684 
L 63.438843 -195.678024 
L 68.050413 -195.729565 
L 72.661983 -195.798374 
L 77.273554 -195.889597 
L 81.885124 -196.009691 
L 86.496694 -196.166689 
L 91.108264 -196.370488 
L 95.719835 -196.63318 
L 100.331405 -196.969387 
L 104.942975 -197.39663 
L 109.554545 -197.935691 
L 114.166116 -198.610966 
L 118.777686 -199.450789 
L 123.389256 -200.487704 
L 128.000826 -201.758656 
L 132.612397 -203.305072 
L 137.223967 -205.172796 
L 141.835537 -207.411858 
L 146.447107 -210.076021 
L 151.058678 -213.222094 
L 155.670248 -216.908979 
L 160.281818 -221.196433 
L 164.893388 -226.143531 
L 169.504959 -231.806852 
L 174.116529 -238.238383 
L 178.728099 -245.483208 
L 183.339669 -253.577005 
L 187.95124 -262.543457 
L 192.56281 -272.391646 
L 197.17438 -283.113546 
L 201.78595 -294.681745 
L 206.397521 -307.047499 
L 211.009091 -320.139276 
L 215.620661 -333.861892 
L 220.232231 -348.096352 
L 224.843802 -362.7005 
L 229.455372 -377.51052 
L 234.066942 -392.343323 
L 238.678512 -406.999814 
L 243.290083 -421.268969 
L 247.901653 -434.932639 
L 252.513223 -447.770924 
L 257.124793 -459.56796 
L 261.736364 -470.11789 
L 266.347934 -479.230806 
L 270.959504 -486.738423 
L 275.571074 -492.499234 
L 280.182645 -496.402951 
L 284.794215 -498.374011 
L 289.405785 -498.374011 
L 294.017355 -496.402951 
L 298.628926 -492.499234 
L 303.240496 -486.738423 
L 307.852066 -479.230806 
L 312.463636 -470.11789 
L 317.075207 -459.56796 
L 321.686777 -447.770924 
L 326.298347 -434.932639 
L 330.909917 -421.268969 
L 335.521488 -406.999814 
L 340.133058 -392.343323 
L 344.744628 -377.51052 
L 349.356198 -362.7005 
L 353.967769 -348.096352 
L 358.579339 -333.861892 
L 363.190909 -320.139276 
L 367.802479 -307.047499 
L 372.41405 -294.681745 
L 377.02562 -283.113546 
L 381.63719 -272.391646 
L 386.24876 -262.543457 
L 390.860331 -253.577005 
L 395.471901 -245.483208 
L 400.083471 -238.238383 
L 404.695041 -231.806852 
L 409.306612 -226.143531 
L 413.918182 -221.196433 
L 418.529752 -216.908979 
L 423.141322 -213.222094 
L 427.752893 -210.076021 
L 432.364463 -207.411858 
L 436.976033 -205.172796 
L 441.587603 -203.305072 
L 446.199174 -201.758656 
L 450.810744 -200.487704 
L 455.422314 -199.450789 
L 460.033884 -198.610966 
L 464.645455 -197.935691 
L 469.257025 -197.39663 
L 473.868595 -196.969387 
L 478.480165 -196.63318 
L 483.091736 -196.370488 
L 487.703306 -196.166689 
L 492.314876 -196.009691 
L 496.926446 -195.889597 
L 501.538017 -195.798374 
L 506.149587 -195.729565 
L 510.761157 -195.678024 
L 515.372727 -195.639684 
L 515.372727 -195.538011 
L 515.372727 -195.538011 
L 510.761157 -195.538011 
L 506.149587 -195.538011 
L 501.538017 -195.538011 
L 496.926446 -195.538011 
L 492.314876 -195.538011 
L 487.703306 -195.538011 
L 483.091736 -195.538011 
L 478.480165 -195.538011 
L 473.868595 -195.538011 
L 469.257025 -195.538011 
L 464.645455 -195.538011 
L 460.033884 -195.538011 
L 455.422314 -195.538011 
L 450.810744 -195.538011 
L 446.199174 -195.538011 
L 441.587603 -195.538011 
L 436.976033 -195.538011 
L 432.364463 -195.538011 
L 427.752893 -195.538011 
L 423.141322 -195.538011 
L 418.529752 -195.538011 
L 413.918182 -195.538011 
L 409.306612 -195.538011 
L 404.695041 -195.538011 
L 400.083471 -195.538011 
L 395.471901 -195.538011 
L 390.860331 -195.538011 
L 386.24876 -195.538011 
L 381.63719 -195.538011 
L 377.02562 -195.538011 
L 372.41405 -195.538011 
L 367.802479 -195.538011 
L 363.190909 -195.538011 
L 358.579339 -195.538011 
L 353.967769 -195.538011 
L 349.356198 -195.538011 
L 344.744628 -195.538011 
L 340.133058 -195.538011 
L 335.521488 -195.538011 
L 330.909917 -195.538011 
L 326.298347 -195.538011 
L 321.686777 -195.538011 
L 317.075207 -195.538011 
L 312.463636 -195.538011 
L 307.852066 -195.538011 
L 303.240496 -195.538011 
L 298.628926 -195.538011 
L 294.017355 -195.538011 
L 289.405785 -195.538011 
L 284.794215 -195.538011 
L 280.182645 -195.538011 
L 275.571074 -195.538011 
L 270.959504 -195.538011 
L 266.347934 -195.538011 
L 261.736364 -195.538011 
L 257.124793 -195.538011 
L 252.513223 -195.538011 
L 247.901653 -195.538011 
L 243.290083 -195.538011 
L 238.678512 -195.538011 
L 234.066942 -195.538011 
L 229.455372 -195.538011 
L 224.843802 -195.538011 
L 220.232231 -195.538011 
L 215.620661 -195.538011 
L 211.009091 -195.538011 
L 206.397521 -195.538011 
L 201.78595 -195.538011 
L 197.17438 -195.538011 
L 192.56281 -195.538011 
L 187.95124 -195.538011 
L 183.339669 -195.538011 
L 178.728099 -195.538011 
L 174.116529 -195.538011 
L 169.504959 -195.538011 
L 164.893388 -195.538011 
L 160.281818 -195.538011 
L 155.670248 -195.538011 
L 151.058678 -195.538011 
L 146.447107 -195.538011 
L 141.835537 -195.538011 
L 137.223967 -195.538011 
L 132.612397 -195.538011 
L 128.000826 -195.538011 
L 123.389256 -195.538011 
L 118.777686 -195.538011 
L 114.166116 -195.538011 
L 109.554545 -195.538011 
L 104.942975 -195.538011 
L 100.331405 -195.538011 
L 95.719835 -195.538011 
L 91.108264 -195.538011 
L 86.496694 -195.538011 
L 81.885124 -195.538011 
L 77.273554 -195.538011 
L 72.661983 -195.538011 
L 68.050413 -195.538011 
L 63.438843 -195.538011 
L 58.827273 -195.538011 
z
" id="mcd6acf1f02" style="stroke:#ff6384;stroke-opacity:0.5;"/>
    </defs>
    <g clip-path="url(#p953467c46a)">
     <use style="fill:#ff6384;fill-opacity:0.5;stroke:#ff6384;stroke-opacity:0.5;" x="0" xlink:href="#mcd6acf1f02" y="581.789375"/>
    </g>
   </g>
   <g id="PolyCollection_2">
    <defs>
     <path d="M 76.59434 -195.538011 
L 76.59434 -195.650004 
L 80.780982 -195.692234 
L 84.967624 -195.749007 
L 89.154265 -195.8248 
L 93.340907 -195.925281 
L 97.527549 -196.057565 
L 101.71419 -196.230497 
L 105.900832 -196.454982 
L 110.087474 -196.744335 
L 114.274116 -197.114666 
L 118.460757 -197.585273 
L 122.647399 -198.179047 
L 126.834041 -198.922859 
L 131.020682 -199.847921 
L 135.207324 -200.990079 
L 139.393966 -202.390029 
L 143.580607 -204.093399 
L 147.767249 -206.150691 
L 151.953891 -208.617009 
L 156.140532 -211.551575 
L 160.327174 -215.016962 
L 164.513816 -219.078053 
L 168.700457 -223.800667 
L 172.887099 -229.249878 
L 177.073741 -235.488004 
L 181.260383 -242.572312 
L 185.447024 -250.552459 
L 189.633666 -259.467747 
L 193.820308 -269.344261 
L 198.006949 -280.192004 
L 202.193591 -292.002137 
L 206.380233 -304.744465 
L 210.566874 -318.365297 
L 214.753516 -332.785841 
L 218.940158 -347.901251 
L 223.126799 -363.580456 
L 227.313441 -379.666871 
L 231.500083 -395.980052 
L 235.686725 -412.31833 
L 239.873366 -428.4624 
L 244.060008 -444.179822 
L 248.24665 -459.230303 
L 252.433291 -473.371627 
L 256.619933 -486.366018 
L 260.806575 -497.986726 
L 264.993216 -508.02457 
L 269.179858 -516.294181 
L 273.3665 -522.639693 
L 277.553141 -526.939623 
L 281.739783 -529.110739 
L 285.926425 -529.110739 
L 290.113066 -526.939623 
L 294.299708 -522.639693 
L 298.48635 -516.294181 
L 302.672992 -508.02457 
L 306.859633 -497.986726 
L 311.046275 -486.366018 
L 315.232917 -473.371627 
L 319.419558 -459.230303 
L 323.6062 -444.179822 
L 327.792842 -428.4624 
L 331.979483 -412.31833 
L 336.166125 -395.980052 
L 340.352767 -379.666871 
L 344.539408 -363.580456 
L 348.72605 -347.901251 
L 352.912692 -332.785841 
L 357.099333 -318.365297 
L 361.285975 -304.744465 
L 365.472617 -292.002137 
L 369.659259 -280.192004 
L 373.8459 -269.344261 
L 378.032542 -259.467747 
L 382.219184 -250.552459 
L 386.405825 -242.572312 
L 390.592467 -235.488004 
L 394.779109 -229.249878 
L 398.96575 -223.800667 
L 403.152392 -219.078053 
L 407.339034 -215.016962 
L 411.525675 -211.551575 
L 415.712317 -208.617009 
L 419.898959 -206.150691 
L 424.085601 -204.093399 
L 428.272242 -202.390029 
L 432.458884 -200.990079 
L 436.645526 -199.847921 
L 440.832167 -198.922859 
L 445.018809 -198.179047 
L 449.205451 -197.585273 
L 453.392092 -197.114666 
L 457.578734 -196.744335 
L 461.765376 -196.454982 
L 465.952017 -196.230497 
L 470.138659 -196.057565 
L 474.325301 -195.925281 
L 478.511942 -195.8248 
L 482.698584 -195.749007 
L 486.885226 -195.692234 
L 491.071868 -195.650004 
L 491.071868 -195.538011 
L 491.071868 -195.538011 
L 486.885226 -195.538011 
L 482.698584 -195.538011 
L 478.511942 -195.538011 
L 474.325301 -195.538011 
L 470.138659 -195.538011 
L 465.952017 -195.538011 
L 461.765376 -195.538011 
L 457.578734 -195.538011 
L 453.392092 -195.538011 
L 449.205451 -195.538011 
L 445.018809 -195.538011 
L 440.832167 -195.538011 
L 436.645526 -195.538011 
L 432.458884 -195.538011 
L 428.272242 -195.538011 
L 424.085601 -195.538011 
L 419.898959 -195.538011 
L 415.712317 -195.538011 
L 411.525675 -195.538011 
L 407.339034 -195.538011 
L 403.152392 -195.538011 
L 398.96575 -195.538011 
L 394.779109 -195.538011 
L 390.592467 -195.538011 
L 386.405825 -195.538011 
L 382.219184 -195.538011 
L 378.032542 -195.538011 
L 373.8459 -195.538011 
L 369.659259 -195.538011 
L 365.472617 -195.538011 
L 361.285975 -195.538011 
L 357.099333 -195.538011 
L 352.912692 -195.538011 
L 348.72605 -195.538011 
L 344.539408 -195.538011 
L 340.352767 -195.538011 
L 336.166125 -195.538011 
L 331.979483 -195.538011 
L 327.792842 -195.538011 
L 323.6062 -195.538011 
L 319.419558 -195.538011 
L 315.232917 -195.538011 
L 311.046275 -195.538011 
L 306.859633 -195.538011 
L 302.672992 -195.538011 
L 298.48635 -195.538011 
L 294.299708 -195.538011 
L 290.113066 -195.538011 
L 285.926425 -195.538011 
L 281.739783 -195.538011 
L 277.553141 -195.538011 
L 273.3665 -195.538011 
L 269.179858 -195.538011 
L 264.993216 -195.538011 
L 260.806575 -195.538011 
L 256.619933 -195.538011 
L 252.433291 -195.538011 
L 248.24665 -195.538011 
L 244.060008 -195.538011 
L 239.873366 -195.538011 
L 235.686725 -195.538011 
L 231.500083 -195.538011 
L 227.313441 -195.538011 
L 223.126799 -195.538011 
L 218.940158 -195.538011 
L 214.753516 -195.538011 
L 210.566874 -195.538011 
L 206.380233 -195.538011 
L 202.193591 -195.538011 
L 198.006949 -195.538011 
L 193.820308 -195.538011 
L 189.633666 -195.538011 
L 185.447024 -195.538011 
L 181.260383 -195.538011 
L 177.073741 -195.538011 
L 172.887099 -195.538011 
L 168.700457 -195.538011 
L 164.513816 -195.538011 
L 160.327174 -195.538011 
L 156.140532 -195.538011 
L 151.953891 -195.538011 
L 147.767249 -195.538011 
L 143.580607 -195.538011 
L 139.393966 -195.538011 
L 135.207324 -195.538011 
L 131.020682 -195.538011 
L 126.834041 -195.538011 
L 122.647399 -195.538011 
L 118.460757 -195.538011 
L 114.274116 -195.538011 
L 110.087474 -195.538011 
L 105.900832 -195.538011 
L 101.71419 -195.538011 
L 97.527549 -195.538011 
L 93.340907 -195.538011 
L 89.154265 -195.538011 
L 84.967624 -195.538011 
L 80.780982 -195.538011 
L 76.59434 -195.538011 
z
" id="m0ca4a025b3" style="stroke:#36a2eb;stroke-opacity:0.5;"/>
    </defs>
    <g clip-path="url(#p953467c46a)">
     <use style="fill:#36a2eb;fill-opacity:0.5;stroke:#36a2eb;stroke-opacity:0.5;" x="0" xlink:href="#m0ca4a025b3" y="581.789375"/>
    </g>
   </g>
   <g id="line2d_1">
    <path clip-path="url(#p953467c46a)" d="M 58.827273 386.149691 
L 63.438843 386.111351 
L 68.050413 386.05981 
L 72.661983 385.991001 
L 77.273554 385.899778 
L 81.885124 385.779684 
L 86.496694 385.622686 
L 91.108264 385.418887 
L 95.719835 385.156195 
L 100.331405 384.819988 
L 104.942975 384.392745 
L 109.554545 383.853684 
L 114.166116 383.178409 
L 118.777686 382.338586 
L 123.389256 381.301671 
L 128.000826 380.030719 
L 132.612397 378.484303 
L 137.223967 376.616579 
L 141.835537 374.377517 
L 146.447107 371.713354 
L 151.058678 368.567281 
L 155.670248 364.880396 
L 160.281818 360.592942 
L 164.893388 355.645844 
L 169.504959 349.982523 
L 174.116529 343.550992 
L 178.728099 336.306167 
L 183.339669 328.21237 
L 187.95124 319.245918 
L 192.56281 309.397729 
L 197.17438 298.675829 
L 201.78595 287.10763 
L 206.397521 274.741876 
L 211.009091 261.650099 
L 215.620661 247.927483 
L 220.232231 233.693023 
L 224.843802 219.088875 
L 229.455372 204.278855 
L 234.066942 189.446052 
L 238.678512 174.789561 
L 243.290083 160.520406 
L 247.901653 146.856736 
L 252.513223 134.018451 
L 257.124793 122.221415 
L 261.736364 111.671485 
L 266.347934 102.558569 
L 270.959504 95.050952 
L 275.571074 89.290141 
L 280.182645 85.386424 
L 284.794215 83.415364 
L 289.405785 83.415364 
L 294.017355 85.386424 
L 298.628926 89.290141 
L 303.240496 95.050952 
L 307.852066 102.558569 
L 312.463636 111.671485 
L 317.075207 122.221415 
L 321.686777 134.018451 
L 326.298347 146.856736 
L 330.909917 160.520406 
L 335.521488 174.789561 
L 340.133058 189.446052 
L 344.744628 204.278855 
L 349.356198 219.088875 
L 353.967769 233.693023 
L 358.579339 247.927483 
L 363.190909 261.650099 
L 367.802479 274.741876 
L 372.41405 287.10763 
L 377.02562 298.675829 
L 381.63719 309.397729 
L 386.24876 319.245918 
L 390.860331 328.21237 
L 395.471901 336.306167 
L 400.083471 343.550992 
L 404.695041 349.982523 
L 409.306612 355.645844 
L 413.918182 360.592942 
L 418.529752 364.880396 
L 423.141322 368.567281 
L 427.752893 371.713354 
L 432.364463 374.377517 
L 436.976033 376.616579 
L 441.587603 378.484303 
L 446.199174 380.030719 
L 450.810744 381.301671 
L 455.422314 382.338586 
L 460.033884 383.178409 
L 464.645455 383.853684 
L 469.257025 384.392745 
L 473.868595 384.819988 
L 478.480165 385.156195 
L 483.091736 385.418887 
L 487.703306 385.622686 
L 492.314876 385.779684 
L 496.926446 385.899778 
L 501.538017 385.991001 
L 506.149587 386.05981 
L 510.761157 386.111351 
L 515.372727 386.149691 
" style="fill:none;stroke:#ff6384;stroke-linecap:square;"/>
   </g>
   <g id="line2d_2">
    <path clip-path="url(#p953467c46a)" d="M 76.59434 386.139371 
L 80.780982 386.097141 
L 84.967624 386.040368 
L 89.154265 385.964575 
L 93.340907 385.864094 
L 97.527549 385.73181 
L 101.71419 385.558878 
L 105.900832 385.334393 
L 110.087474 385.04504 
L 114.274116 384.674709 
L 118.460757 384.204102 
L 122.647399 383.610328 
L 126.834041 382.866516 
L 131.020682 381.941454 
L 135.207324 380.799296 
L 139.393966 379.399346 
L 143.580607 377.695976 
L 147.767249 375.638684 
L 151.953891 373.172366 
L 156.140532 370.2378 
L 160.327174 366.772413 
L 164.513816 362.711322 
L 168.700457 357.988708 
L 172.887099 352.539497 
L 177.073741 346.301371 
L 181.260383 339.217063 
L 185.447024 331.236916 
L 189.633666 322.321628 
L 193.820308 312.445114 
L 198.006949 301.597371 
L 202.193591 289.787238 
L 206.380233 277.04491 
L 210.566874 263.424078 
L 214.753516 249.003534 
L 218.940158 233.888124 
L 223.126799 218.208919 
L 227.313441 202.122504 
L 231.500083 185.809323 
L 235.686725 169.471045 
L 239.873366 153.326975 
L 244.060008 137.609553 
L 248.24665 122.559072 
L 252.433291 108.417748 
L 256.619933 95.423357 
L 260.806575 83.802649 
L 264.993216 73.764805 
L 269.179858 65.495194 
L 273.3665 59.149682 
L 277.553141 54.849752 
L 281.739783 52.678636 
L 285.926425 52.678636 
L 290.113066 54.849752 
L 294.299708 59.149682 
L 298.48635 65.495194 
L 302.672992 73.764805 
L 306.859633 83.802649 
L 311.046275 95.423357 
L 315.232917 108.417748 
L 319.419558 122.559072 
L 323.6062 137.609553 
L 327.792842 153.326975 
L 331.979483 169.471045 
L 336.166125 185.809323 
L 340.352767 202.122504 
L 344.539408 218.208919 
L 348.72605 233.888124 
L 352.912692 249.003534 
L 357.099333 263.424078 
L 361.285975 277.04491 
L 365.472617 289.787238 
L 369.659259 301.597371 
L 373.8459 312.445114 
L 378.032542 322.321628 
L 382.219184 331.236916 
L 386.405825 339.217063 
L 390.592467 346.301371 
L 394.779109 352.539497 
L 398.96575 357.988708 
L 403.152392 362.711322 
L 407.339034 366.772413 
L 411.525675 370.2378 
L 415.712317 373.172366 
L 419.898959 375.638684 
L 424.085601 377.695976 
L 428.272242 379.399346 
L 432.458884 380.799296 
L 436.645526 381.941454 
L 440.832167 382.866516 
L 445.018809 383.610328 
L 449.205451 384.204102 
L 453.392092 384.674709 
L 457.578734 385.04504 
L 461.765376 385.334393 
L 465.952017 385.558878 
L 470.138659 385.73181 
L 474.325301 385.864094 
L 478.511942 385.964575 
L 482.698584 386.040368 
L 486.885226 386.097141 
L 491.071868 386.139371 
" style="fill:none;stroke:#36a2eb;stroke-linecap:square;"/>
   </g>
   <g id="patch_3">
    <path d="M 36 402.93 
L 538.2 402.93 
" style="fill:none;stroke:#000000;stroke-linecap:square;stroke-linejoin:miter;stroke-width:0.8;"/>
   </g>
   <g id="legend_1">
    <g id="patch_4">
     <path d="M 450.225313 88.29875 
L 528.4 88.29875 
Q 531.2 88.29875 531.2 85.49875 
L 531.2 45.8 
Q 531.2 43 528.4 43 
L 450.225313 43 
Q 447.425313 43 447.425313 45.8 
L 447.425313 85.49875 
Q 447.425313 88.29875 450.225313 88.29875 
z
" style="fill:#ffffff;opacity:0.8;stroke:#cccccc;stroke-linejoin:miter;"/>
    </g>
    <g id="patch_5">
     <path d="M 453.025313 59.237813 
L 481.025313 59.237813 
L 481.025313 49.437813 
L 453.025313 49.437813 
z
" style="fill:#ff6384;opacity:0.5;stroke:#ff6384;stroke-linejoin:miter;"/>
    </g>
    <g id="text_1">
     <!-- base -->
     <defs>
      <path d="M 48.6875 27.296875 
Q 48.6875 37.203125 44.609375 42.84375 
Q 40.53125 48.484375 33.40625 48.484375 
Q 26.265625 48.484375 22.1875 42.84375 
Q 18.109375 37.203125 18.109375 27.296875 
Q 18.109375 17.390625 22.1875 11.75 
Q 26.265625 6.109375 33.40625 6.109375 
Q 40.53125 6.109375 44.609375 11.75 
Q 48.6875 17.390625 48.6875 27.296875 
z
M 18.109375 46.390625 
Q 20.953125 51.265625 25.265625 53.625 
Q 29.59375 56 35.59375 56 
Q 45.5625 56 51.78125 48.09375 
Q 58.015625 40.1875 58.015625 27.296875 
Q 58.015625 14.40625 51.78125 6.484375 
Q 45.5625 -1.421875 35.59375 -1.421875 
Q 29.59375 -1.421875 25.265625 0.953125 
Q 20.953125 3.328125 18.109375 8.203125 
L 18.109375 0 
L 9.078125 0 
L 9.078125 75.984375 
L 18.109375 75.984375 
z
" id="DejaVuSans-98"/>
      <path d="M 34.28125 27.484375 
Q 23.390625 27.484375 19.1875 25 
Q 14.984375 22.515625 14.984375 16.5 
Q 14.984375 11.71875 18.140625 8.90625 
Q 21.296875 6.109375 26.703125 6.109375 
Q 34.1875 6.109375 38.703125 11.40625 
Q 43.21875 16.703125 43.21875 25.484375 
L 43.21875 27.484375 
z
M 52.203125 31.203125 
L 52.203125 0 
L 43.21875 0 
L 43.21875 8.296875 
Q 40.140625 3.328125 35.546875 0.953125 
Q 30.953125 -1.421875 24.3125 -1.421875 
Q 15.921875 -1.421875 10.953125 3.296875 
Q 6 8.015625 6 15.921875 
Q 6 25.140625 12.171875 29.828125 
Q 18.359375 34.515625 30.609375 34.515625 
L 43.21875 34.515625 
L 43.21875 35.40625 
Q 43.21875 41.609375 39.140625 45 
Q 35.0625 48.390625 27.6875 48.390625 
Q 23 48.390625 18.546875 47.265625 
Q 14.109375 46.140625 10.015625 43.890625 
L 10.015625 52.203125 
Q 14.9375 54.109375 19.578125 55.046875 
Q 24.21875 56 28.609375 56 
Q 40.484375 56 46.34375 49.84375 
Q 52.203125 43.703125 52.203125 31.203125 
z
" id="DejaVuSans-97"/>
      <path d="M 44.28125 53.078125 
L 44.28125 44.578125 
Q 40.484375 46.53125 36.375 47.5 
Q 32.28125 48.484375 27.875 48.484375 
Q 21.1875 48.484375 17.84375 46.4375 
Q 14.5 44.390625 14.5 40.28125 
Q 14.5 37.15625 16.890625 35.375 
Q 19.28125 33.59375 26.515625 31.984375 
L 29.59375 31.296875 
Q 39.15625 29.25 43.1875 25.515625 
Q 47.21875 21.78125 47.21875 15.09375 
Q 47.21875 7.46875 41.1875 3.015625 
Q 35.15625 -1.421875 24.609375 -1.421875 
Q 20.21875 -1.421875 15.453125 -0.5625 
Q 10.6875 0.296875 5.421875 2 
L 5.421875 11.28125 
Q 10.40625 8.6875 15.234375 7.390625 
Q 20.0625 6.109375 24.8125 6.109375 
Q 31.15625 6.109375 34.5625 8.28125 
Q 37.984375 10.453125 37.984375 14.40625 
Q 37.984375 18.0625 35.515625 20.015625 
Q 33.0625 21.96875 24.703125 23.78125 
L 21.578125 24.515625 
Q 13.234375 26.265625 9.515625 29.90625 
Q 5.8125 33.546875 5.8125 39.890625 
Q 5.8125 47.609375 11.28125 51.796875 
Q 16.75 56 26.8125 56 
Q 31.78125 56 36.171875 55.265625 
Q 40.578125 54.546875 44.28125 53.078125 
z
" id="DejaVuSans-115"/>
      <path d="M 56.203125 29.59375 
L 56.203125 25.203125 
L 14.890625 25.203125 
Q 15.484375 15.921875 20.484375 11.0625 
Q 25.484375 6.203125 34.421875 6.203125 
Q 39.59375 6.203125 44.453125 7.46875 
Q 49.3125 8.734375 54.109375 11.28125 
L 54.109375 2.78125 
Q 49.265625 0.734375 44.1875 -0.34375 
Q 39.109375 -1.421875 33.890625 -1.421875 
Q 20.796875 -1.421875 13.15625 6.1875 
Q 5.515625 13.8125 5.515625 26.8125 
Q 5.515625 40.234375 12.765625 48.109375 
Q 20.015625 56 32.328125 56 
Q 43.359375 56 49.78125 48.890625 
Q 56.203125 41.796875 56.203125 29.59375 
z
M 47.21875 32.234375 
Q 47.125 39.59375 43.09375 43.984375 
Q 39.0625 48.390625 32.421875 48.390625 
Q 24.90625 48.390625 20.390625 44.140625 
Q 15.875 39.890625 15.1875 32.171875 
z
" id="DejaVuSans-101"/>
     </defs>
     <g transform="translate(492.225313 59.237813)scale(0.14 -0.14)">
      <use xlink:href="#DejaVuSans-98"/>
      <use x="63.476562" xlink:href="#DejaVuSans-97"/>
      <use x="124.755859" xlink:href="#DejaVuSans-115"/>
      <use x="176.855469" xlink:href="#DejaVuSans-101"/>
     </g>
    </g>
    <g id="patch_6">
     <path d="M 453.025313 79.787188 
L 481.025313 79.787188 
L 481.025313 69.987188 
L 453.025313 69.987188 
z
" style="fill:#36a2eb;opacity:0.5;stroke:#36a2eb;stroke-linejoin:miter;"/>
    </g>
    <g id="text_2">
     <!-- new -->
     <defs>
      <path d="M 54.890625 33.015625 
L 54.890625 0 
L 45.90625 0 
L 45.90625 32.71875 
Q 45.90625 40.484375 42.875 44.328125 
Q 39.84375 48.1875 33.796875 48.1875 
Q 26.515625 48.1875 22.3125 43.546875 
Q 18.109375 38.921875 18.109375 30.90625 
L 18.109375 0 
L 9.078125 0 
L 9.078125 54.6875 
L 18.109375 54.6875 
L 18.109375 46.1875 
Q 21.34375 51.125 25.703125 53.5625 
Q 30.078125 56 35.796875 56 
Q 45.21875 56 50.046875 50.171875 
Q 54.890625 44.34375 54.890625 33.015625 
z
" id="DejaVuSans-110"/>
      <path d="M 4.203125 54.6875 
L 13.1875 54.6875 
L 24.421875 12.015625 
L 35.59375 54.6875 
L 46.1875 54.6875 
L 57.421875 12.015625 
L 68.609375 54.6875 
L 77.59375 54.6875 
L 63.28125 0 
L 52.6875 0 
L 40.921875 44.828125 
L 29.109375 0 
L 18.5 0 
z
" id="DejaVuSans-119"/>
     </defs>
     <g transform="translate(492.225313 79.787188)scale(0.14 -0.14)">
      <use xlink:href="#DejaVuSans-110"/>
      <use x="63.378906" xlink:href="#DejaVuSans-101"/>
      <use x="124.902344" xlink:href="#DejaVuSans-119"/>
     </g>
    </g>
   </g>
  </g>
  <g id="axes_2">
   <g id="patch_7">
    <path d="M 36 525.24 
L 538.2 525.24 
L 538.2 402.93 
L 36 402.93 
z
" style="fill:none;"/>
   </g>
   <g id="patch_8">
    <path clip-path="url(#p92537d90a6)" d="M 175.246364 519.680455 
L 398.953636 519.680455 
L 398.953636 482.616818 
L 175.246364 482.616818 
z
" style="fill:#ff6384;opacity:0.5;"/>
   </g>
   <g id="patch_9">
    <path clip-path="url(#p92537d90a6)" d="M 182.28611 445.553182 
L 385.380098 445.553182 
L 385.380098 408.489545 
L 182.28611 408.489545 
z
" style="fill:#36a2eb;opacity:0.5;"/>
   </g>
   <g id="matplotlib.axis_1">
    <g id="xtick_1">
     <g id="line2d_3">
      <defs>
       <path d="M 0 0 
L 0 3.5 
" id="m2deb1323f0" style="stroke:#000000;stroke-width:0.8;"/>
      </defs>
      <g>
       <use style="stroke:#000000;stroke-width:0.8;" x="117.221404" xlink:href="#m2deb1323f0" y="525.24"/>
      </g>
     </g>
     <g id="text_3">
      <!-- 2.5 -->
      <defs>
       <path d="M 19.1875 8.296875 
L 53.609375 8.296875 
L 53.609375 0 
L 7.328125 0 
L 7.328125 8.296875 
Q 12.9375 14.109375 22.625 23.890625 
Q 32.328125 33.6875 34.8125 36.53125 
Q 39.546875 41.84375 41.421875 45.53125 
Q 43.3125 49.21875 43.3125 52.78125 
Q 43.3125 58.59375 39.234375 62.25 
Q 35.15625 65.921875 28.609375 65.921875 
Q 23.96875 65.921875 18.8125 64.3125 
Q 13.671875 62.703125 7.8125 59.421875 
L 7.8125 69.390625 
Q 13.765625 71.78125 18.9375 73 
Q 24.125 74.21875 28.421875 74.21875 
Q 39.75 74.21875 46.484375 68.546875 
Q 53.21875 62.890625 53.21875 53.421875 
Q 53.21875 48.921875 51.53125 44.890625 
Q 49.859375 40.875 45.40625 35.40625 
Q 44.1875 33.984375 37.640625 27.21875 
Q 31.109375 20.453125 19.1875 8.296875 
z
" id="DejaVuSans-50"/>
       <path d="M 10.6875 12.40625 
L 21 12.40625 
L 21 0 
L 10.6875 0 
z
" id="DejaVuSans-46"/>
       <path d="M 10.796875 72.90625 
L 49.515625 72.90625 
L 49.515625 64.59375 
L 19.828125 64.59375 
L 19.828125 46.734375 
Q 21.96875 47.46875 24.109375 47.828125 
Q 26.265625 48.1875 28.421875 48.1875 
Q 40.625 48.1875 47.75 41.5 
Q 54.890625 34.8125 54.890625 23.390625 
Q 54.890625 11.625 47.5625 5.09375 
Q 40.234375 -1.421875 26.90625 -1.421875 
Q 22.3125 -1.421875 17.546875 -0.640625 
Q 12.796875 0.140625 7.71875 1.703125 
L 7.71875 11.625 
Q 12.109375 9.234375 16.796875 8.0625 
Q 21.484375 6.890625 26.703125 6.890625 
Q 35.15625 6.890625 40.078125 11.328125 
Q 45.015625 15.765625 45.015625 23.390625 
Q 45.015625 31 40.078125 35.4375 
Q 35.15625 39.890625 26.703125 39.890625 
Q 22.75 39.890625 18.8125 39.015625 
Q 14.890625 38.140625 10.796875 36.28125 
z
" id="DejaVuSans-53"/>
      </defs>
      <g transform="translate(106.089217 542.877813)scale(0.14 -0.14)">
       <use xlink:href="#DejaVuSans-50"/>
       <use x="63.623047" xlink:href="#DejaVuSans-46"/>
       <use x="95.410156" xlink:href="#DejaVuSans-53"/>
      </g>
     </g>
    </g>
    <g id="xtick_2">
     <g id="line2d_4">
      <g>
       <use style="stroke:#000000;stroke-width:0.8;" x="198.893806" xlink:href="#m2deb1323f0" y="525.24"/>
      </g>
     </g>
     <g id="text_4">
      <!-- 3.0 -->
      <defs>
       <path d="M 40.578125 39.3125 
Q 47.65625 37.796875 51.625 33 
Q 55.609375 28.21875 55.609375 21.1875 
Q 55.609375 10.40625 48.1875 4.484375 
Q 40.765625 -1.421875 27.09375 -1.421875 
Q 22.515625 -1.421875 17.65625 -0.515625 
Q 12.796875 0.390625 7.625 2.203125 
L 7.625 11.71875 
Q 11.71875 9.328125 16.59375 8.109375 
Q 21.484375 6.890625 26.8125 6.890625 
Q 36.078125 6.890625 40.9375 10.546875 
Q 45.796875 14.203125 45.796875 21.1875 
Q 45.796875 27.640625 41.28125 31.265625 
Q 36.765625 34.90625 28.71875 34.90625 
L 20.21875 34.90625 
L 20.21875 43.015625 
L 29.109375 43.015625 
Q 36.375 43.015625 40.234375 45.921875 
Q 44.09375 48.828125 44.09375 54.296875 
Q 44.09375 59.90625 40.109375 62.90625 
Q 36.140625 65.921875 28.71875 65.921875 
Q 24.65625 65.921875 20.015625 65.03125 
Q 15.375 64.15625 9.8125 62.3125 
L 9.8125 71.09375 
Q 15.4375 72.65625 20.34375 73.4375 
Q 25.25 74.21875 29.59375 74.21875 
Q 40.828125 74.21875 47.359375 69.109375 
Q 53.90625 64.015625 53.90625 55.328125 
Q 53.90625 49.265625 50.4375 45.09375 
Q 46.96875 40.921875 40.578125 39.3125 
z
" id="DejaVuSans-51"/>
       <path d="M 31.78125 66.40625 
Q 24.171875 66.40625 20.328125 58.90625 
Q 16.5 51.421875 16.5 36.375 
Q 16.5 21.390625 20.328125 13.890625 
Q 24.171875 6.390625 31.78125 6.390625 
Q 39.453125 6.390625 43.28125 13.890625 
Q 47.125 21.390625 47.125 36.375 
Q 47.125 51.421875 43.28125 58.90625 
Q 39.453125 66.40625 31.78125 66.40625 
z
M 31.78125 74.21875 
Q 44.046875 74.21875 50.515625 64.515625 
Q 56.984375 54.828125 56.984375 36.375 
Q 56.984375 17.96875 50.515625 8.265625 
Q 44.046875 -1.421875 31.78125 -1.421875 
Q 19.53125 -1.421875 13.0625 8.265625 
Q 6.59375 17.96875 6.59375 36.375 
Q 6.59375 54.828125 13.0625 64.515625 
Q 19.53125 74.21875 31.78125 74.21875 
z
" id="DejaVuSans-48"/>
      </defs>
      <g transform="translate(187.761619 542.877813)scale(0.14 -0.14)">
       <use xlink:href="#DejaVuSans-51"/>
       <use x="63.623047" xlink:href="#DejaVuSans-46"/>
       <use x="95.410156" xlink:href="#DejaVuSans-48"/>
      </g>
     </g>
    </g>
    <g id="xtick_3">
     <g id="line2d_5">
      <g>
       <use style="stroke:#000000;stroke-width:0.8;" x="280.566208" xlink:href="#m2deb1323f0" y="525.24"/>
      </g>
     </g>
     <g id="text_5">
      <!-- 3.5 -->
      <g transform="translate(269.43402 542.877813)scale(0.14 -0.14)">
       <use xlink:href="#DejaVuSans-51"/>
       <use x="63.623047" xlink:href="#DejaVuSans-46"/>
       <use x="95.410156" xlink:href="#DejaVuSans-53"/>
      </g>
     </g>
    </g>
    <g id="xtick_4">
     <g id="line2d_6">
      <g>
       <use style="stroke:#000000;stroke-width:0.8;" x="362.23861" xlink:href="#m2deb1323f0" y="525.24"/>
      </g>
     </g>
     <g id="text_6">
      <!-- 4.0 -->
      <defs>
       <path d="M 37.796875 64.3125 
L 12.890625 25.390625 
L 37.796875 25.390625 
z
M 35.203125 72.90625 
L 47.609375 72.90625 
L 47.609375 25.390625 
L 58.015625 25.390625 
L 58.015625 17.1875 
L 47.609375 17.1875 
L 47.609375 0 
L 37.796875 0 
L 37.796875 17.1875 
L 4.890625 17.1875 
L 4.890625 26.703125 
z
" id="DejaVuSans-52"/>
      </defs>
      <g transform="translate(351.106422 542.877813)scale(0.14 -0.14)">
       <use xlink:href="#DejaVuSans-52"/>
       <use x="63.623047" xlink:href="#DejaVuSans-46"/>
       <use x="95.410156" xlink:href="#DejaVuSans-48"/>
      </g>
     </g>
    </g>
    <g id="xtick_5">
     <g id="line2d_7">
      <g>
       <use style="stroke:#000000;stroke-width:0.8;" x="443.911011" xlink:href="#m2deb1323f0" y="525.24"/>
      </g>
     </g>
     <g id="text_7">
      <!-- 4.5 -->
      <g transform="translate(432.778824 542.877813)scale(0.14 -0.14)">
       <use xlink:href="#DejaVuSans-52"/>
       <use x="63.623047" xlink:href="#DejaVuSans-46"/>
       <use x="95.410156" xlink:href="#DejaVuSans-53"/>
      </g>
     </g>
    </g>
    <g id="xtick_6">
     <g id="line2d_8">
      <g>
       <use style="stroke:#000000;stroke-width:0.8;" x="525.583413" xlink:href="#m2deb1323f0" y="525.24"/>
      </g>
     </g>
     <g id="text_8">
      <!-- 5.0 -->
      <g transform="translate(514.451225 542.877813)scale(0.14 -0.14)">
       <use xlink:href="#DejaVuSans-53"/>
       <use x="63.623047" xlink:href="#DejaVuSans-46"/>
       <use x="95.410156" xlink:href="#DejaVuSans-48"/>
      </g>
     </g>
    </g>
   </g>
   <g id="line2d_9">
    <path clip-path="url(#p92537d90a6)" d="M 287.1 525.24 
L 287.1 402.93 
" style="fill:none;stroke:#ff6384;stroke-dasharray:5.55,2.4;stroke-dashoffset:0;stroke-opacity:0.8;stroke-width:1.5;"/>
   </g>
   <g id="line2d_10">
    <path clip-path="url(#p92537d90a6)" d="M 283.833104 525.24 
L 283.833104 402.93 
" style="fill:none;stroke:#36a2eb;stroke-dasharray:5.55,2.4;stroke-dashoffset:0;stroke-opacity:0.8;stroke-width:1.5;"/>
   </g>
   <g id="patch_10">
    <path d="M 36 525.24 
L 538.2 525.24 
" style="fill:none;stroke:#000000;stroke-linecap:square;stroke-linejoin:miter;stroke-width:0.8;"/>
   </g>
  </g>
 </g>
 <defs>
  <clipPath id="p953467c46a">
   <rect height="366.93" width="502.2" x="36" y="36"/>
  </clipPath>
  <clipPath id="p92537d90a6">
   <rect height="122.31" width="502.2" x="36" y="402.93"/>
  </clipPath>
 </defs>
</svg>
