<?xml version="1.0" encoding="utf-8" standalone="no"?>
<!DOCTYPE svg PUBLIC "-//W3C//DTD SVG 1.1//EN"
  "http://www.w3.org/Graphics/SVG/1.1/DTD/svg11.dtd">
<!-- Created with matplotlib (https://matplotlib.org/) -->
<svg height="581.789375pt" version="1.1" viewBox="0 0 574.2 581.789375" width="574.2pt" xmlns="http://www.w3.org/2000/svg" xmlns:xlink="http://www.w3.org/1999/xlink">
 <defs>
  <style type="text/css">
*{stroke-linecap:butt;stroke-linejoin:round;}
  </style>
 </defs>
 <g id="figure_1">
  <g id="patch_1">
   <path d="M 0 581.789375 
L 574.2 581.789375 
L 574.2 0 
L 0 0 
z
" style="fill:none;"/>
  </g>
  <g id="axes_1">
   <g id="patch_2">
    <path d="M 36 402.93 
L 538.2 402.93 
L 538.2 36 
L 36 36 
z
" style="fill:none;"/>
   </g>
   <g id="PolyCollection_1">
    <defs>
     <path d="M 76.341337 -195.538011 
L 76.341337 -195.638495 
L 80.775997 -195.676385 
L 85.210658 -195.727323 
L 89.645318 -195.795327 
L 94.079979 -195.885482 
L 98.514639 -196.004171 
L 102.9493 -196.159331 
L 107.38396 -196.360745 
L 111.818621 -196.620362 
L 116.253281 -196.952635 
L 120.687942 -197.374878 
L 125.122603 -197.90763 
L 129.557263 -198.575001 
L 133.991924 -199.404995 
L 138.426584 -200.429775 
L 142.861245 -201.685853 
L 147.295905 -203.214169 
L 151.730566 -205.060035 
L 156.165226 -207.272892 
L 160.599887 -209.905874 
L 165.034547 -213.015127 
L 169.469208 -216.658863 
L 173.903868 -220.896138 
L 178.338529 -225.785338 
L 182.773189 -231.382377 
L 187.20785 -237.738637 
L 191.64251 -244.898671 
L 196.077171 -252.897742 
L 200.511831 -261.759255 
L 204.946492 -271.492185 
L 209.381152 -282.088601 
L 213.815813 -293.52141 
L 218.250473 -305.742441 
L 222.685134 -318.680998 
L 227.119794 -332.24301 
L 231.554455 -346.310876 
L 235.989115 -360.744104 
L 240.423776 -375.380793 
L 244.858436 -390.04 
L 249.293097 -404.524958 
L 253.727757 -418.627113 
L 258.162418 -432.130869 
L 262.597078 -444.818901 
L 267.031739 -456.47787 
L 271.466399 -466.904328 
L 275.90106 -475.910591 
L 280.33572 -483.330341 
L 284.770381 -489.02373 
L 289.205041 -492.88176 
L 293.639702 -494.829752 
L 298.074362 -494.829752 
L 302.509023 -492.88176 
L 306.943683 -489.02373 
L 311.378344 -483.330341 
L 315.813004 -475.910591 
L 320.247665 -466.904328 
L 324.682325 -456.47787 
L 329.116986 -444.818901 
L 333.551646 -432.130869 
L 337.986307 -418.627113 
L 342.420967 -404.524958 
L 346.855628 -390.04 
L 351.290288 -375.380793 
L 355.724949 -360.744104 
L 360.159609 -346.310876 
L 364.59427 -332.24301 
L 369.02893 -318.680998 
L 373.463591 -305.742441 
L 377.898252 -293.52141 
L 382.332912 -282.088601 
L 386.767573 -271.492185 
L 391.202233 -261.759255 
L 395.636894 -252.897742 
L 400.071554 -244.898671 
L 404.506215 -237.738637 
L 408.940875 -231.382377 
L 413.375536 -225.785338 
L 417.810196 -220.896138 
L 422.244857 -216.658863 
L 426.679517 -213.015127 
L 431.114178 -209.905874 
L 435.548838 -207.272892 
L 439.983499 -205.060035 
L 444.418159 -203.214169 
L 448.85282 -201.685853 
L 453.28748 -200.429775 
L 457.722141 -199.404995 
L 462.156801 -198.575001 
L 466.591462 -197.90763 
L 471.026122 -197.374878 
L 475.460783 -196.952635 
L 479.895443 -196.620362 
L 484.330104 -196.360745 
L 488.764764 -196.159331 
L 493.199425 -196.004171 
L 497.634085 -195.885482 
L 502.068746 -195.795327 
L 506.503406 -195.727323 
L 510.938067 -195.676385 
L 515.372727 -195.638495 
L 515.372727 -195.538011 
L 515.372727 -195.538011 
L 510.938067 -195.538011 
L 506.503406 -195.538011 
L 502.068746 -195.538011 
L 497.634085 -195.538011 
L 493.199425 -195.538011 
L 488.764764 -195.538011 
L 484.330104 -195.538011 
L 479.895443 -195.538011 
L 475.460783 -195.538011 
L 471.026122 -195.538011 
L 466.591462 -195.538011 
L 462.156801 -195.538011 
L 457.722141 -195.538011 
L 453.28748 -195.538011 
L 448.85282 -195.538011 
L 444.418159 -195.538011 
L 439.983499 -195.538011 
L 435.548838 -195.538011 
L 431.114178 -195.538011 
L 426.679517 -195.538011 
L 422.244857 -195.538011 
L 417.810196 -195.538011 
L 413.375536 -195.538011 
L 408.940875 -195.538011 
L 404.506215 -195.538011 
L 400.071554 -195.538011 
L 395.636894 -195.538011 
L 391.202233 -195.538011 
L 386.767573 -195.538011 
L 382.332912 -195.538011 
L 377.898252 -195.538011 
L 373.463591 -195.538011 
L 369.02893 -195.538011 
L 364.59427 -195.538011 
L 360.159609 -195.538011 
L 355.724949 -195.538011 
L 351.290288 -195.538011 
L 346.855628 -195.538011 
L 342.420967 -195.538011 
L 337.986307 -195.538011 
L 333.551646 -195.538011 
L 329.116986 -195.538011 
L 324.682325 -195.538011 
L 320.247665 -195.538011 
L 315.813004 -195.538011 
L 311.378344 -195.538011 
L 306.943683 -195.538011 
L 302.509023 -195.538011 
L 298.074362 -195.538011 
L 293.639702 -195.538011 
L 289.205041 -195.538011 
L 284.770381 -195.538011 
L 280.33572 -195.538011 
L 275.90106 -195.538011 
L 271.466399 -195.538011 
L 267.031739 -195.538011 
L 262.597078 -195.538011 
L 258.162418 -195.538011 
L 253.727757 -195.538011 
L 249.293097 -195.538011 
L 244.858436 -195.538011 
L 240.423776 -195.538011 
L 235.989115 -195.538011 
L 231.554455 -195.538011 
L 227.119794 -195.538011 
L 222.685134 -195.538011 
L 218.250473 -195.538011 
L 213.815813 -195.538011 
L 209.381152 -195.538011 
L 204.946492 -195.538011 
L 200.511831 -195.538011 
L 196.077171 -195.538011 
L 191.64251 -195.538011 
L 187.20785 -195.538011 
L 182.773189 -195.538011 
L 178.338529 -195.538011 
L 173.903868 -195.538011 
L 169.469208 -195.538011 
L 165.034547 -195.538011 
L 160.599887 -195.538011 
L 156.165226 -195.538011 
L 151.730566 -195.538011 
L 147.295905 -195.538011 
L 142.861245 -195.538011 
L 138.426584 -195.538011 
L 133.991924 -195.538011 
L 129.557263 -195.538011 
L 125.122603 -195.538011 
L 120.687942 -195.538011 
L 116.253281 -195.538011 
L 111.818621 -195.538011 
L 107.38396 -195.538011 
L 102.9493 -195.538011 
L 98.514639 -195.538011 
L 94.079979 -195.538011 
L 89.645318 -195.538011 
L 85.210658 -195.538011 
L 80.775997 -195.538011 
L 76.341337 -195.538011 
z
" id="m3455f7ff51" style="stroke:#ff6384;stroke-opacity:0.5;"/>
    </defs>
    <g clip-path="url(#p67472a7d62)">
     <use style="fill:#ff6384;fill-opacity:0.5;stroke:#ff6384;stroke-opacity:0.5;" x="0" xlink:href="#m3455f7ff51" y="581.789375"/>
    </g>
   </g>
   <g id="PolyCollection_2">
    <defs>
     <path d="M 58.827273 -195.538011 
L 58.827273 -195.650004 
L 62.806187 -195.692234 
L 66.785101 -195.749007 
L 70.764015 -195.8248 
L 74.74293 -195.925281 
L 78.721844 -196.057565 
L 82.700758 -196.230497 
L 86.679672 -196.454982 
L 90.658586 -196.744335 
L 94.637501 -197.114666 
L 98.616415 -197.585273 
L 102.595329 -198.179047 
L 106.574243 -198.922859 
L 110.553157 -199.847921 
L 114.532072 -200.990079 
L 118.510986 -202.390029 
L 122.4899 -204.093399 
L 126.468814 -206.150691 
L 130.447728 -208.617009 
L 134.426643 -211.551575 
L 138.405557 -215.016962 
L 142.384471 -219.078053 
L 146.363385 -223.800667 
L 150.342299 -229.249878 
L 154.321214 -235.488004 
L 158.300128 -242.572312 
L 162.279042 -250.552459 
L 166.257956 -259.467747 
L 170.23687 -269.344261 
L 174.215785 -280.192004 
L 178.194699 -292.002137 
L 182.173613 -304.744465 
L 186.152527 -318.365297 
L 190.131441 -332.785841 
L 194.110356 -347.901251 
L 198.08927 -363.580456 
L 202.068184 -379.666871 
L 206.047098 -395.980052 
L 210.026012 -412.31833 
L 214.004927 -428.4624 
L 217.983841 -444.179822 
L 221.962755 -459.230303 
L 225.941669 -473.371627 
L 229.920583 -486.366018 
L 233.899498 -497.986726 
L 237.878412 -508.02457 
L 241.857326 -516.294181 
L 245.83624 -522.639693 
L 249.815154 -526.939623 
L 253.794069 -529.110739 
L 257.772983 -529.110739 
L 261.751897 -526.939623 
L 265.730811 -522.639693 
L 269.709725 -516.294181 
L 273.68864 -508.02457 
L 277.667554 -497.986726 
L 281.646468 -486.366018 
L 285.625382 -473.371627 
L 289.604297 -459.230303 
L 293.583211 -444.179822 
L 297.562125 -428.4624 
L 301.541039 -412.31833 
L 305.519953 -395.980052 
L 309.498868 -379.666871 
L 313.477782 -363.580456 
L 317.456696 -347.901251 
L 321.43561 -332.785841 
L 325.414524 -318.365297 
L 329.393439 -304.744465 
L 333.372353 -292.002137 
L 337.351267 -280.192004 
L 341.330181 -269.344261 
L 345.309095 -259.467747 
L 349.28801 -250.552459 
L 353.266924 -242.572312 
L 357.245838 -235.488004 
L 361.224752 -229.249878 
L 365.203666 -223.800667 
L 369.182581 -219.078053 
L 373.161495 -215.016962 
L 377.140409 -211.551575 
L 381.119323 -208.617009 
L 385.098237 -206.150691 
L 389.077152 -204.093399 
L 393.056066 -202.390029 
L 397.03498 -200.990079 
L 401.013894 -199.847921 
L 404.992808 -198.922859 
L 408.971723 -198.179047 
L 412.950637 -197.585273 
L 416.929551 -197.114666 
L 420.908465 -196.744335 
L 424.887379 -196.454982 
L 428.866294 -196.230497 
L 432.845208 -196.057565 
L 436.824122 -195.925281 
L 440.803036 -195.8248 
L 444.78195 -195.749007 
L 448.760865 -195.692234 
L 452.739779 -195.650004 
L 452.739779 -195.538011 
L 452.739779 -195.538011 
L 448.760865 -195.538011 
L 444.78195 -195.538011 
L 440.803036 -195.538011 
L 436.824122 -195.538011 
L 432.845208 -195.538011 
L 428.866294 -195.538011 
L 424.887379 -195.538011 
L 420.908465 -195.538011 
L 416.929551 -195.538011 
L 412.950637 -195.538011 
L 408.971723 -195.538011 
L 404.992808 -195.538011 
L 401.013894 -195.538011 
L 397.03498 -195.538011 
L 393.056066 -195.538011 
L 389.077152 -195.538011 
L 385.098237 -195.538011 
L 381.119323 -195.538011 
L 377.140409 -195.538011 
L 373.161495 -195.538011 
L 369.182581 -195.538011 
L 365.203666 -195.538011 
L 361.224752 -195.538011 
L 357.245838 -195.538011 
L 353.266924 -195.538011 
L 349.28801 -195.538011 
L 345.309095 -195.538011 
L 341.330181 -195.538011 
L 337.351267 -195.538011 
L 333.372353 -195.538011 
L 329.393439 -195.538011 
L 325.414524 -195.538011 
L 321.43561 -195.538011 
L 317.456696 -195.538011 
L 313.477782 -195.538011 
L 309.498868 -195.538011 
L 305.519953 -195.538011 
L 301.541039 -195.538011 
L 297.562125 -195.538011 
L 293.583211 -195.538011 
L 289.604297 -195.538011 
L 285.625382 -195.538011 
L 281.646468 -195.538011 
L 277.667554 -195.538011 
L 273.68864 -195.538011 
L 269.709725 -195.538011 
L 265.730811 -195.538011 
L 261.751897 -195.538011 
L 257.772983 -195.538011 
L 253.794069 -195.538011 
L 249.815154 -195.538011 
L 245.83624 -195.538011 
L 241.857326 -195.538011 
L 237.878412 -195.538011 
L 233.899498 -195.538011 
L 229.920583 -195.538011 
L 225.941669 -195.538011 
L 221.962755 -195.538011 
L 217.983841 -195.538011 
L 214.004927 -195.538011 
L 210.026012 -195.538011 
L 206.047098 -195.538011 
L 202.068184 -195.538011 
L 198.08927 -195.538011 
L 194.110356 -195.538011 
L 190.131441 -195.538011 
L 186.152527 -195.538011 
L 182.173613 -195.538011 
L 178.194699 -195.538011 
L 174.215785 -195.538011 
L 170.23687 -195.538011 
L 166.257956 -195.538011 
L 162.279042 -195.538011 
L 158.300128 -195.538011 
L 154.321214 -195.538011 
L 150.342299 -195.538011 
L 146.363385 -195.538011 
L 142.384471 -195.538011 
L 138.405557 -195.538011 
L 134.426643 -195.538011 
L 130.447728 -195.538011 
L 126.468814 -195.538011 
L 122.4899 -195.538011 
L 118.510986 -195.538011 
L 114.532072 -195.538011 
L 110.553157 -195.538011 
L 106.574243 -195.538011 
L 102.595329 -195.538011 
L 98.616415 -195.538011 
L 94.637501 -195.538011 
L 90.658586 -195.538011 
L 86.679672 -195.538011 
L 82.700758 -195.538011 
L 78.721844 -195.538011 
L 74.74293 -195.538011 
L 70.764015 -195.538011 
L 66.785101 -195.538011 
L 62.806187 -195.538011 
L 58.827273 -195.538011 
z
" id="mbc6aaa2067" style="stroke:#36a2eb;stroke-opacity:0.5;"/>
    </defs>
    <g clip-path="url(#p67472a7d62)">
     <use style="fill:#36a2eb;fill-opacity:0.5;stroke:#36a2eb;stroke-opacity:0.5;" x="0" xlink:href="#mbc6aaa2067" y="581.789375"/>
    </g>
   </g>
   <g id="line2d_1">
    <path clip-path="url(#p67472a7d62)" d="M 76.341337 386.15088 
L 80.775997 386.11299 
L 85.210658 386.062052 
L 89.645318 385.994048 
L 94.079979 385.903893 
L 98.514639 385.785204 
L 102.9493 385.630044 
L 107.38396 385.42863 
L 111.818621 385.169013 
L 116.253281 384.83674 
L 120.687942 384.414497 
L 125.122603 383.881745 
L 129.557263 383.214374 
L 133.991924 382.38438 
L 138.426584 381.3596 
L 142.861245 380.103522 
L 147.295905 378.575206 
L 151.730566 376.72934 
L 156.165226 374.516483 
L 160.599887 371.883501 
L 165.034547 368.774248 
L 169.469208 365.130512 
L 173.903868 360.893237 
L 178.338529 356.004037 
L 182.773189 350.406998 
L 187.20785 344.050738 
L 191.64251 336.890704 
L 196.077171 328.891633 
L 200.511831 320.03012 
L 204.946492 310.29719 
L 209.381152 299.700774 
L 213.815813 288.267965 
L 218.250473 276.046934 
L 222.685134 263.108377 
L 227.119794 249.546365 
L 231.554455 235.478499 
L 235.989115 221.045271 
L 240.423776 206.408582 
L 244.858436 191.749375 
L 249.293097 177.264417 
L 253.727757 163.162262 
L 258.162418 149.658506 
L 262.597078 136.970474 
L 267.031739 125.311505 
L 271.466399 114.885047 
L 275.90106 105.878784 
L 280.33572 98.459034 
L 284.770381 92.765645 
L 289.205041 88.907615 
L 293.639702 86.959623 
L 298.074362 86.959623 
L 302.509023 88.907615 
L 306.943683 92.765645 
L 311.378344 98.459034 
L 315.813004 105.878784 
L 320.247665 114.885047 
L 324.682325 125.311505 
L 329.116986 136.970474 
L 333.551646 149.658506 
L 337.986307 163.162262 
L 342.420967 177.264417 
L 346.855628 191.749375 
L 351.290288 206.408582 
L 355.724949 221.045271 
L 360.159609 235.478499 
L 364.59427 249.546365 
L 369.02893 263.108377 
L 373.463591 276.046934 
L 377.898252 288.267965 
L 382.332912 299.700774 
L 386.767573 310.29719 
L 391.202233 320.03012 
L 395.636894 328.891633 
L 400.071554 336.890704 
L 404.506215 344.050738 
L 408.940875 350.406998 
L 413.375536 356.004037 
L 417.810196 360.893237 
L 422.244857 365.130512 
L 426.679517 368.774248 
L 431.114178 371.883501 
L 435.548838 374.516483 
L 439.983499 376.72934 
L 444.418159 378.575206 
L 448.85282 380.103522 
L 453.28748 381.3596 
L 457.722141 382.38438 
L 462.156801 383.214374 
L 466.591462 383.881745 
L 471.026122 384.414497 
L 475.460783 384.83674 
L 479.895443 385.169013 
L 484.330104 385.42863 
L 488.764764 385.630044 
L 493.199425 385.785204 
L 497.634085 385.903893 
L 502.068746 385.994048 
L 506.503406 386.062052 
L 510.938067 386.11299 
L 515.372727 386.15088 
" style="fill:none;stroke:#ff6384;stroke-linecap:square;"/>
   </g>
   <g id="line2d_2">
    <path clip-path="url(#p67472a7d62)" d="M 58.827273 386.139371 
L 62.806187 386.097141 
L 66.785101 386.040368 
L 70.764015 385.964575 
L 74.74293 385.864094 
L 78.721844 385.73181 
L 82.700758 385.558878 
L 86.679672 385.334393 
L 90.658586 385.04504 
L 94.637501 384.674709 
L 98.616415 384.204102 
L 102.595329 383.610328 
L 106.574243 382.866516 
L 110.553157 381.941454 
L 114.532072 380.799296 
L 118.510986 379.399346 
L 122.4899 377.695976 
L 126.468814 375.638684 
L 130.447728 373.172366 
L 134.426643 370.2378 
L 138.405557 366.772413 
L 142.384471 362.711322 
L 146.363385 357.988708 
L 150.342299 352.539497 
L 154.321214 346.301371 
L 158.300128 339.217063 
L 162.279042 331.236916 
L 166.257956 322.321628 
L 170.23687 312.445114 
L 174.215785 301.597371 
L 178.194699 289.787238 
L 182.173613 277.04491 
L 186.152527 263.424078 
L 190.131441 249.003534 
L 194.110356 233.888124 
L 198.08927 218.208919 
L 202.068184 202.122504 
L 206.047098 185.809323 
L 210.026012 169.471045 
L 214.004927 153.326975 
L 217.983841 137.609553 
L 221.962755 122.559072 
L 225.941669 108.417748 
L 229.920583 95.423357 
L 233.899498 83.802649 
L 237.878412 73.764805 
L 241.857326 65.495194 
L 245.83624 59.149682 
L 249.815154 54.849752 
L 253.794069 52.678636 
L 257.772983 52.678636 
L 261.751897 54.849752 
L 265.730811 59.149682 
L 269.709725 65.495194 
L 273.68864 73.764805 
L 277.667554 83.802649 
L 281.646468 95.423357 
L 285.625382 108.417748 
L 289.604297 122.559072 
L 293.583211 137.609553 
L 297.562125 153.326975 
L 301.541039 169.471045 
L 305.519953 185.809323 
L 309.498868 202.122504 
L 313.477782 218.208919 
L 317.456696 233.888124 
L 321.43561 249.003534 
L 325.414524 263.424078 
L 329.393439 277.04491 
L 333.372353 289.787238 
L 337.351267 301.597371 
L 341.330181 312.445114 
L 345.309095 322.321628 
L 349.28801 331.236916 
L 353.266924 339.217063 
L 357.245838 346.301371 
L 361.224752 352.539497 
L 365.203666 357.988708 
L 369.182581 362.711322 
L 373.161495 366.772413 
L 377.140409 370.2378 
L 381.119323 373.172366 
L 385.098237 375.638684 
L 389.077152 377.695976 
L 393.056066 379.399346 
L 397.03498 380.799296 
L 401.013894 381.941454 
L 404.992808 382.866516 
L 408.971723 383.610328 
L 412.950637 384.204102 
L 416.929551 384.674709 
L 420.908465 385.04504 
L 424.887379 385.334393 
L 428.866294 385.558878 
L 432.845208 385.73181 
L 436.824122 385.864094 
L 440.803036 385.964575 
L 444.78195 386.040368 
L 448.760865 386.097141 
L 452.739779 386.139371 
" style="fill:none;stroke:#36a2eb;stroke-linecap:square;"/>
   </g>
   <g id="patch_3">
    <path d="M 36 402.93 
L 538.2 402.93 
" style="fill:none;stroke:#000000;stroke-linecap:square;stroke-linejoin:miter;stroke-width:0.8;"/>
   </g>
   <g id="legend_1">
    <g id="patch_4">
     <path d="M 450.225313 88.29875 
L 528.4 88.29875 
Q 531.2 88.29875 531.2 85.49875 
L 531.2 45.8 
Q 531.2 43 528.4 43 
L 450.225313 43 
Q 447.425313 43 447.425313 45.8 
L 447.425313 85.49875 
Q 447.425313 88.29875 450.225313 88.29875 
z
" style="fill:#ffffff;opacity:0.8;stroke:#cccccc;stroke-linejoin:miter;"/>
    </g>
    <g id="patch_5">
     <path d="M 453.025313 59.237813 
L 481.025313 59.237813 
L 481.025313 49.437813 
L 453.025313 49.437813 
z
" style="fill:#ff6384;opacity:0.5;stroke:#ff6384;stroke-linejoin:miter;"/>
    </g>
    <g id="text_1">
     <!-- base -->
     <defs>
      <path d="M 48.6875 27.296875 
Q 48.6875 37.203125 44.609375 42.84375 
Q 40.53125 48.484375 33.40625 48.484375 
Q 26.265625 48.484375 22.1875 42.84375 
Q 18.109375 37.203125 18.109375 27.296875 
Q 18.109375 17.390625 22.1875 11.75 
Q 26.265625 6.109375 33.40625 6.109375 
Q 40.53125 6.109375 44.609375 11.75 
Q 48.6875 17.390625 48.6875 27.296875 
z
M 18.109375 46.390625 
Q 20.953125 51.265625 25.265625 53.625 
Q 29.59375 56 35.59375 56 
Q 45.5625 56 51.78125 48.09375 
Q 58.015625 40.1875 58.015625 27.296875 
Q 58.015625 14.40625 51.78125 6.484375 
Q 45.5625 -1.421875 35.59375 -1.421875 
Q 29.59375 -1.421875 25.265625 0.953125 
Q 20.953125 3.328125 18.109375 8.203125 
L 18.109375 0 
L 9.078125 0 
L 9.078125 75.984375 
L 18.109375 75.984375 
z
" id="DejaVuSans-98"/>
      <path d="M 34.28125 27.484375 
Q 23.390625 27.484375 19.1875 25 
Q 14.984375 22.515625 14.984375 16.5 
Q 14.984375 11.71875 18.140625 8.90625 
Q 21.296875 6.109375 26.703125 6.109375 
Q 34.1875 6.109375 38.703125 11.40625 
Q 43.21875 16.703125 43.21875 25.484375 
L 43.21875 27.484375 
z
M 52.203125 31.203125 
L 52.203125 0 
L 43.21875 0 
L 43.21875 8.296875 
Q 40.140625 3.328125 35.546875 0.953125 
Q 30.953125 -1.421875 24.3125 -1.421875 
Q 15.921875 -1.421875 10.953125 3.296875 
Q 6 8.015625 6 15.921875 
Q 6 25.140625 12.171875 29.828125 
Q 18.359375 34.515625 30.609375 34.515625 
L 43.21875 34.515625 
L 43.21875 35.40625 
Q 43.21875 41.609375 39.140625 45 
Q 35.0625 48.390625 27.6875 48.390625 
Q 23 48.390625 18.546875 47.265625 
Q 14.109375 46.140625 10.015625 43.890625 
L 10.015625 52.203125 
Q 14.9375 54.109375 19.578125 55.046875 
Q 24.21875 56 28.609375 56 
Q 40.484375 56 46.34375 49.84375 
Q 52.203125 43.703125 52.203125 31.203125 
z
" id="DejaVuSans-97"/>
      <path d="M 44.28125 53.078125 
L 44.28125 44.578125 
Q 40.484375 46.53125 36.375 47.5 
Q 32.28125 48.484375 27.875 48.484375 
Q 21.1875 48.484375 17.84375 46.4375 
Q 14.5 44.390625 14.5 40.28125 
Q 14.5 37.15625 16.890625 35.375 
Q 19.28125 33.59375 26.515625 31.984375 
L 29.59375 31.296875 
Q 39.15625 29.25 43.1875 25.515625 
Q 47.21875 21.78125 47.21875 15.09375 
Q 47.21875 7.46875 41.1875 3.015625 
Q 35.15625 -1.421875 24.609375 -1.421875 
Q 20.21875 -1.421875 15.453125 -0.5625 
Q 10.6875 0.296875 5.421875 2 
L 5.421875 11.28125 
Q 10.40625 8.6875 15.234375 7.390625 
Q 20.0625 6.109375 24.8125 6.109375 
Q 31.15625 6.109375 34.5625 8.28125 
Q 37.984375 10.453125 37.984375 14.40625 
Q 37.984375 18.0625 35.515625 20.015625 
Q 33.0625 21.96875 24.703125 23.78125 
L 21.578125 24.515625 
Q 13.234375 26.265625 9.515625 29.90625 
Q 5.8125 33.546875 5.8125 39.890625 
Q 5.8125 47.609375 11.28125 51.796875 
Q 16.75 56 26.8125 56 
Q 31.78125 56 36.171875 55.265625 
Q 40.578125 54.546875 44.28125 53.078125 
z
" id="DejaVuSans-115"/>
      <path d="M 56.203125 29.59375 
L 56.203125 25.203125 
L 14.890625 25.203125 
Q 15.484375 15.921875 20.484375 11.0625 
Q 25.484375 6.203125 34.421875 6.203125 
Q 39.59375 6.203125 44.453125 7.46875 
Q 49.3125 8.734375 54.109375 11.28125 
L 54.109375 2.78125 
Q 49.265625 0.734375 44.1875 -0.34375 
Q 39.109375 -1.421875 33.890625 -1.421875 
Q 20.796875 -1.421875 13.15625 6.1875 
Q 5.515625 13.8125 5.515625 26.8125 
Q 5.515625 40.234375 12.765625 48.109375 
Q 20.015625 56 32.328125 56 
Q 43.359375 56 49.78125 48.890625 
Q 56.203125 41.796875 56.203125 29.59375 
z
M 47.21875 32.234375 
Q 47.125 39.59375 43.09375 43.984375 
Q 39.0625 48.390625 32.421875 48.390625 
Q 24.90625 48.390625 20.390625 44.140625 
Q 15.875 39.890625 15.1875 32.171875 
z
" id="DejaVuSans-101"/>
     </defs>
     <g transform="translate(492.225313 59.237813)scale(0.14 -0.14)">
      <use xlink:href="#DejaVuSans-98"/>
      <use x="63.476562" xlink:href="#DejaVuSans-97"/>
      <use x="124.755859" xlink:href="#DejaVuSans-115"/>
      <use x="176.855469" xlink:href="#DejaVuSans-101"/>
     </g>
    </g>
    <g id="patch_6">
     <path d="M 453.025313 79.787188 
L 481.025313 79.787188 
L 481.025313 69.987188 
L 453.025313 69.987188 
z
" style="fill:#36a2eb;opacity:0.5;stroke:#36a2eb;stroke-linejoin:miter;"/>
    </g>
    <g id="text_2">
     <!-- new -->
     <defs>
      <path d="M 54.890625 33.015625 
L 54.890625 0 
L 45.90625 0 
L 45.90625 32.71875 
Q 45.90625 40.484375 42.875 44.328125 
Q 39.84375 48.1875 33.796875 48.1875 
Q 26.515625 48.1875 22.3125 43.546875 
Q 18.109375 38.921875 18.109375 30.90625 
L 18.109375 0 
L 9.078125 0 
L 9.078125 54.6875 
L 18.109375 54.6875 
L 18.109375 46.1875 
Q 21.34375 51.125 25.703125 53.5625 
Q 30.078125 56 35.796875 56 
Q 45.21875 56 50.046875 50.171875 
Q 54.890625 44.34375 54.890625 33.015625 
z
" id="DejaVuSans-110"/>
      <path d="M 4.203125 54.6875 
L 13.1875 54.6875 
L 24.421875 12.015625 
L 35.59375 54.6875 
L 46.1875 54.6875 
L 57.421875 12.015625 
L 68.609375 54.6875 
L 77.59375 54.6875 
L 63.28125 0 
L 52.6875 0 
L 40.921875 44.828125 
L 29.109375 0 
L 18.5 0 
z
" id="DejaVuSans-119"/>
     </defs>
     <g transform="translate(492.225313 79.787188)scale(0.14 -0.14)">
      <use xlink:href="#DejaVuSans-110"/>
      <use x="63.378906" xlink:href="#DejaVuSans-101"/>
      <use x="124.902344" xlink:href="#DejaVuSans-119"/>
     </g>
    </g>
   </g>
  </g>
  <g id="axes_2">
   <g id="patch_7">
    <path d="M 36 525.24 
L 538.2 525.24 
L 538.2 402.93 
L 36 402.93 
z
" style="fill:none;"/>
   </g>
   <g id="patch_8">
    <path clip-path="url(#pf657b0beeb)" d="M 188.294341 519.680455 
L 403.419723 519.680455 
L 403.419723 482.616818 
L 188.294341 482.616818 
z
" style="fill:#ff6384;opacity:0.5;"/>
   </g>
   <g id="patch_9">
    <path clip-path="url(#pf657b0beeb)" d="M 159.274962 445.553182 
L 352.29209 445.553182 
L 352.29209 408.489545 
L 159.274962 408.489545 
z
" style="fill:#36a2eb;opacity:0.5;"/>
   </g>
   <g id="matplotlib.axis_1">
    <g id="xtick_1">
     <g id="line2d_3">
      <defs>
       <path d="M 0 0 
L 0 3.5 
" id="m99accec8ec" style="stroke:#000000;stroke-width:0.8;"/>
      </defs>
      <g>
       <use style="stroke:#000000;stroke-width:0.8;" x="81.67105" xlink:href="#m99accec8ec" y="525.24"/>
      </g>
     </g>
     <g id="text_3">
      <!-- 4.5 -->
      <defs>
       <path d="M 37.796875 64.3125 
L 12.890625 25.390625 
L 37.796875 25.390625 
z
M 35.203125 72.90625 
L 47.609375 72.90625 
L 47.609375 25.390625 
L 58.015625 25.390625 
L 58.015625 17.1875 
L 47.609375 17.1875 
L 47.609375 0 
L 37.796875 0 
L 37.796875 17.1875 
L 4.890625 17.1875 
L 4.890625 26.703125 
z
" id="DejaVuSans-52"/>
       <path d="M 10.6875 12.40625 
L 21 12.40625 
L 21 0 
L 10.6875 0 
z
" id="DejaVuSans-46"/>
       <path d="M 10.796875 72.90625 
L 49.515625 72.90625 
L 49.515625 64.59375 
L 19.828125 64.59375 
L 19.828125 46.734375 
Q 21.96875 47.46875 24.109375 47.828125 
Q 26.265625 48.1875 28.421875 48.1875 
Q 40.625 48.1875 47.75 41.5 
Q 54.890625 34.8125 54.890625 23.390625 
Q 54.890625 11.625 47.5625 5.09375 
Q 40.234375 -1.421875 26.90625 -1.421875 
Q 22.3125 -1.421875 17.546875 -0.640625 
Q 12.796875 0.140625 7.71875 1.703125 
L 7.71875 11.625 
Q 12.109375 9.234375 16.796875 8.0625 
Q 21.484375 6.890625 26.703125 6.890625 
Q 35.15625 6.890625 40.078125 11.328125 
Q 45.015625 15.765625 45.015625 23.390625 
Q 45.015625 31 40.078125 35.4375 
Q 35.15625 39.890625 26.703125 39.890625 
Q 22.75 39.890625 18.8125 39.015625 
Q 14.890625 38.140625 10.796875 36.28125 
z
" id="DejaVuSans-53"/>
      </defs>
      <g transform="translate(70.538863 542.877813)scale(0.14 -0.14)">
       <use xlink:href="#DejaVuSans-52"/>
       <use x="63.623047" xlink:href="#DejaVuSans-46"/>
       <use x="95.410156" xlink:href="#DejaVuSans-53"/>
      </g>
     </g>
    </g>
    <g id="xtick_2">
     <g id="line2d_4">
      <g>
       <use style="stroke:#000000;stroke-width:0.8;" x="150.763302" xlink:href="#m99accec8ec" y="525.24"/>
      </g>
     </g>
     <g id="text_4">
      <!-- 5.0 -->
      <defs>
       <path d="M 31.78125 66.40625 
Q 24.171875 66.40625 20.328125 58.90625 
Q 16.5 51.421875 16.5 36.375 
Q 16.5 21.390625 20.328125 13.890625 
Q 24.171875 6.390625 31.78125 6.390625 
Q 39.453125 6.390625 43.28125 13.890625 
Q 47.125 21.390625 47.125 36.375 
Q 47.125 51.421875 43.28125 58.90625 
Q 39.453125 66.40625 31.78125 66.40625 
z
M 31.78125 74.21875 
Q 44.046875 74.21875 50.515625 64.515625 
Q 56.984375 54.828125 56.984375 36.375 
Q 56.984375 17.96875 50.515625 8.265625 
Q 44.046875 -1.421875 31.78125 -1.421875 
Q 19.53125 -1.421875 13.0625 8.265625 
Q 6.59375 17.96875 6.59375 36.375 
Q 6.59375 54.828125 13.0625 64.515625 
Q 19.53125 74.21875 31.78125 74.21875 
z
" id="DejaVuSans-48"/>
      </defs>
      <g transform="translate(139.631115 542.877813)scale(0.14 -0.14)">
       <use xlink:href="#DejaVuSans-53"/>
       <use x="63.623047" xlink:href="#DejaVuSans-46"/>
       <use x="95.410156" xlink:href="#DejaVuSans-48"/>
      </g>
     </g>
    </g>
    <g id="xtick_3">
     <g id="line2d_5">
      <g>
       <use style="stroke:#000000;stroke-width:0.8;" x="219.855555" xlink:href="#m99accec8ec" y="525.24"/>
      </g>
     </g>
     <g id="text_5">
      <!-- 5.5 -->
      <g transform="translate(208.723367 542.877813)scale(0.14 -0.14)">
       <use xlink:href="#DejaVuSans-53"/>
       <use x="63.623047" xlink:href="#DejaVuSans-46"/>
       <use x="95.410156" xlink:href="#DejaVuSans-53"/>
      </g>
     </g>
    </g>
    <g id="xtick_4">
     <g id="line2d_6">
      <g>
       <use style="stroke:#000000;stroke-width:0.8;" x="288.947807" xlink:href="#m99accec8ec" y="525.24"/>
      </g>
     </g>
     <g id="text_6">
      <!-- 6.0 -->
      <defs>
       <path d="M 33.015625 40.375 
Q 26.375 40.375 22.484375 35.828125 
Q 18.609375 31.296875 18.609375 23.390625 
Q 18.609375 15.53125 22.484375 10.953125 
Q 26.375 6.390625 33.015625 6.390625 
Q 39.65625 6.390625 43.53125 10.953125 
Q 47.40625 15.53125 47.40625 23.390625 
Q 47.40625 31.296875 43.53125 35.828125 
Q 39.65625 40.375 33.015625 40.375 
z
M 52.59375 71.296875 
L 52.59375 62.3125 
Q 48.875 64.0625 45.09375 64.984375 
Q 41.3125 65.921875 37.59375 65.921875 
Q 27.828125 65.921875 22.671875 59.328125 
Q 17.53125 52.734375 16.796875 39.40625 
Q 19.671875 43.65625 24.015625 45.921875 
Q 28.375 48.1875 33.59375 48.1875 
Q 44.578125 48.1875 50.953125 41.515625 
Q 57.328125 34.859375 57.328125 23.390625 
Q 57.328125 12.15625 50.6875 5.359375 
Q 44.046875 -1.421875 33.015625 -1.421875 
Q 20.359375 -1.421875 13.671875 8.265625 
Q 6.984375 17.96875 6.984375 36.375 
Q 6.984375 53.65625 15.1875 63.9375 
Q 23.390625 74.21875 37.203125 74.21875 
Q 40.921875 74.21875 44.703125 73.484375 
Q 48.484375 72.75 52.59375 71.296875 
z
" id="DejaVuSans-54"/>
      </defs>
      <g transform="translate(277.815619 542.877813)scale(0.14 -0.14)">
       <use xlink:href="#DejaVuSans-54"/>
       <use x="63.623047" xlink:href="#DejaVuSans-46"/>
       <use x="95.410156" xlink:href="#DejaVuSans-48"/>
      </g>
     </g>
    </g>
    <g id="xtick_5">
     <g id="line2d_7">
      <g>
       <use style="stroke:#000000;stroke-width:0.8;" x="358.040059" xlink:href="#m99accec8ec" y="525.24"/>
      </g>
     </g>
     <g id="text_7">
      <!-- 6.5 -->
      <g transform="translate(346.907872 542.877813)scale(0.14 -0.14)">
       <use xlink:href="#DejaVuSans-54"/>
       <use x="63.623047" xlink:href="#DejaVuSans-46"/>
       <use x="95.410156" xlink:href="#DejaVuSans-53"/>
      </g>
     </g>
    </g>
    <g id="xtick_6">
     <g id="line2d_8">
      <g>
       <use style="stroke:#000000;stroke-width:0.8;" x="427.132311" xlink:href="#m99accec8ec" y="525.24"/>
      </g>
     </g>
     <g id="text_8">
      <!-- 7.0 -->
      <defs>
       <path d="M 8.203125 72.90625 
L 55.078125 72.90625 
L 55.078125 68.703125 
L 28.609375 0 
L 18.3125 0 
L 43.21875 64.59375 
L 8.203125 64.59375 
z
" id="DejaVuSans-55"/>
      </defs>
      <g transform="translate(416.000124 542.877813)scale(0.14 -0.14)">
       <use xlink:href="#DejaVuSans-55"/>
       <use x="63.623047" xlink:href="#DejaVuSans-46"/>
       <use x="95.410156" xlink:href="#DejaVuSans-48"/>
      </g>
     </g>
    </g>
    <g id="xtick_7">
     <g id="line2d_9">
      <g>
       <use style="stroke:#000000;stroke-width:0.8;" x="496.224564" xlink:href="#m99accec8ec" y="525.24"/>
      </g>
     </g>
     <g id="text_9">
      <!-- 7.5 -->
      <g transform="translate(485.092376 542.877813)scale(0.14 -0.14)">
       <use xlink:href="#DejaVuSans-55"/>
       <use x="63.623047" xlink:href="#DejaVuSans-46"/>
       <use x="95.410156" xlink:href="#DejaVuSans-53"/>
      </g>
     </g>
    </g>
   </g>
   <g id="line2d_10">
    <path clip-path="url(#pf657b0beeb)" d="M 295.857032 525.24 
L 295.857032 402.93 
" style="fill:none;stroke:#ff6384;stroke-dasharray:5.55,2.4;stroke-dashoffset:0;stroke-opacity:0.8;stroke-width:1.5;"/>
   </g>
   <g id="line2d_11">
    <path clip-path="url(#pf657b0beeb)" d="M 255.783526 525.24 
L 255.783526 402.93 
" style="fill:none;stroke:#36a2eb;stroke-dasharray:5.55,2.4;stroke-dashoffset:0;stroke-opacity:0.8;stroke-width:1.5;"/>
   </g>
   <g id="patch_10">
    <path d="M 36 525.24 
L 538.2 525.24 
" style="fill:none;stroke:#000000;stroke-linecap:square;stroke-linejoin:miter;stroke-width:0.8;"/>
   </g>
  </g>
 </g>
 <defs>
  <clipPath id="p67472a7d62">
   <rect height="366.93" width="502.2" x="36" y="36"/>
  </clipPath>
  <clipPath id="pf657b0beeb">
   <rect height="122.31" width="502.2" x="36" y="402.93"/>
  </clipPath>
 </defs>
</svg>
