<?xml version="1.0" encoding="utf-8" standalone="no"?>
<!DOCTYPE svg PUBLIC "-//W3C//DTD SVG 1.1//EN"
  "http://www.w3.org/Graphics/SVG/1.1/DTD/svg11.dtd">
<!-- Created with matplotlib (https://matplotlib.org/) -->
<svg height="581.789375pt" version="1.1" viewBox="0 0 574.2 581.789375" width="574.2pt" xmlns="http://www.w3.org/2000/svg" xmlns:xlink="http://www.w3.org/1999/xlink">
 <defs>
  <style type="text/css">
*{stroke-linecap:butt;stroke-linejoin:round;}
  </style>
 </defs>
 <g id="figure_1">
  <g id="patch_1">
   <path d="M 0 581.789375 
L 574.2 581.789375 
L 574.2 0 
L 0 0 
z
" style="fill:none;"/>
  </g>
  <g id="axes_1">
   <g id="patch_2">
    <path d="M 36 402.93 
L 538.2 402.93 
L 538.2 36 
L 36 36 
z
" style="fill:none;"/>
   </g>
   <g id="PolyCollection_1">
    <defs>
     <path d="M 60.283894 -195.538011 
L 60.283894 -195.6387 
L 64.880751 -195.676668 
L 69.477608 -195.72771 
L 74.074465 -195.795852 
L 78.671322 -195.886192 
L 83.268179 -196.005123 
L 87.865036 -196.1606 
L 92.461892 -196.362426 
L 97.058749 -196.622573 
L 101.655606 -196.955524 
L 106.252463 -197.378629 
L 110.84932 -197.912469 
L 115.446177 -198.581204 
L 120.043034 -199.412893 
L 124.639891 -200.439766 
L 129.236748 -201.698409 
L 133.833605 -203.229847 
L 138.430461 -205.079483 
L 143.027318 -207.296859 
L 147.624175 -209.935219 
L 152.221032 -213.050823 
L 156.817889 -216.702001 
L 161.414746 -220.94793 
L 166.011603 -225.847116 
L 170.60846 -231.455586 
L 175.205317 -237.824828 
L 179.802174 -244.999486 
L 184.39903 -253.014895 
L 188.995887 -261.894507 
L 193.592744 -271.647315 
L 198.189601 -282.265374 
L 202.786458 -293.721534 
L 207.383315 -305.967525 
L 211.980172 -318.932508 
L 216.577029 -332.522219 
L 221.173886 -346.618818 
L 225.770743 -361.081525 
L 230.367599 -375.748109 
L 234.964456 -390.437255 
L 239.561313 -404.951798 
L 244.15817 -419.082756 
L 248.755027 -432.614092 
L 253.351884 -445.328038 
L 257.948741 -457.01082 
L 262.545598 -467.458573 
L 267.142455 -476.48323 
L 271.739312 -483.918135 
L 276.336168 -489.623152 
L 280.933025 -493.489062 
L 285.529882 -495.441032 
L 290.126739 -495.441032 
L 294.723596 -493.489062 
L 299.320453 -489.623152 
L 303.91731 -483.918135 
L 308.514167 -476.48323 
L 313.111024 -467.458573 
L 317.707881 -457.01082 
L 322.304737 -445.328038 
L 326.901594 -432.614092 
L 331.498451 -419.082756 
L 336.095308 -404.951798 
L 340.692165 -390.437255 
L 345.289022 -375.748109 
L 349.885879 -361.081525 
L 354.482736 -346.618818 
L 359.079593 -332.522219 
L 363.67645 -318.932508 
L 368.273306 -305.967525 
L 372.870163 -293.721534 
L 377.46702 -282.265374 
L 382.063877 -271.647315 
L 386.660734 -261.894507 
L 391.257591 -253.014895 
L 395.854448 -244.999486 
L 400.451305 -237.824828 
L 405.048162 -231.455586 
L 409.645019 -225.847116 
L 414.241875 -220.94793 
L 418.838732 -216.702001 
L 423.435589 -213.050823 
L 428.032446 -209.935219 
L 432.629303 -207.296859 
L 437.22616 -205.079483 
L 441.823017 -203.229847 
L 446.419874 -201.698409 
L 451.016731 -200.439766 
L 455.613588 -199.412893 
L 460.210444 -198.581204 
L 464.807301 -197.912469 
L 469.404158 -197.378629 
L 474.001015 -196.955524 
L 478.597872 -196.622573 
L 483.194729 -196.362426 
L 487.791586 -196.1606 
L 492.388443 -196.005123 
L 496.9853 -195.886192 
L 501.582157 -195.795852 
L 506.179013 -195.72771 
L 510.77587 -195.676668 
L 515.372727 -195.6387 
L 515.372727 -195.538011 
L 515.372727 -195.538011 
L 510.77587 -195.538011 
L 506.179013 -195.538011 
L 501.582157 -195.538011 
L 496.9853 -195.538011 
L 492.388443 -195.538011 
L 487.791586 -195.538011 
L 483.194729 -195.538011 
L 478.597872 -195.538011 
L 474.001015 -195.538011 
L 469.404158 -195.538011 
L 464.807301 -195.538011 
L 460.210444 -195.538011 
L 455.613588 -195.538011 
L 451.016731 -195.538011 
L 446.419874 -195.538011 
L 441.823017 -195.538011 
L 437.22616 -195.538011 
L 432.629303 -195.538011 
L 428.032446 -195.538011 
L 423.435589 -195.538011 
L 418.838732 -195.538011 
L 414.241875 -195.538011 
L 409.645019 -195.538011 
L 405.048162 -195.538011 
L 400.451305 -195.538011 
L 395.854448 -195.538011 
L 391.257591 -195.538011 
L 386.660734 -195.538011 
L 382.063877 -195.538011 
L 377.46702 -195.538011 
L 372.870163 -195.538011 
L 368.273306 -195.538011 
L 363.67645 -195.538011 
L 359.079593 -195.538011 
L 354.482736 -195.538011 
L 349.885879 -195.538011 
L 345.289022 -195.538011 
L 340.692165 -195.538011 
L 336.095308 -195.538011 
L 331.498451 -195.538011 
L 326.901594 -195.538011 
L 322.304737 -195.538011 
L 317.707881 -195.538011 
L 313.111024 -195.538011 
L 308.514167 -195.538011 
L 303.91731 -195.538011 
L 299.320453 -195.538011 
L 294.723596 -195.538011 
L 290.126739 -195.538011 
L 285.529882 -195.538011 
L 280.933025 -195.538011 
L 276.336168 -195.538011 
L 271.739312 -195.538011 
L 267.142455 -195.538011 
L 262.545598 -195.538011 
L 257.948741 -195.538011 
L 253.351884 -195.538011 
L 248.755027 -195.538011 
L 244.15817 -195.538011 
L 239.561313 -195.538011 
L 234.964456 -195.538011 
L 230.367599 -195.538011 
L 225.770743 -195.538011 
L 221.173886 -195.538011 
L 216.577029 -195.538011 
L 211.980172 -195.538011 
L 207.383315 -195.538011 
L 202.786458 -195.538011 
L 198.189601 -195.538011 
L 193.592744 -195.538011 
L 188.995887 -195.538011 
L 184.39903 -195.538011 
L 179.802174 -195.538011 
L 175.205317 -195.538011 
L 170.60846 -195.538011 
L 166.011603 -195.538011 
L 161.414746 -195.538011 
L 156.817889 -195.538011 
L 152.221032 -195.538011 
L 147.624175 -195.538011 
L 143.027318 -195.538011 
L 138.430461 -195.538011 
L 133.833605 -195.538011 
L 129.236748 -195.538011 
L 124.639891 -195.538011 
L 120.043034 -195.538011 
L 115.446177 -195.538011 
L 110.84932 -195.538011 
L 106.252463 -195.538011 
L 101.655606 -195.538011 
L 97.058749 -195.538011 
L 92.461892 -195.538011 
L 87.865036 -195.538011 
L 83.268179 -195.538011 
L 78.671322 -195.538011 
L 74.074465 -195.538011 
L 69.477608 -195.538011 
L 64.880751 -195.538011 
L 60.283894 -195.538011 
z
" id="me1edc59ac6" style="stroke:#ff6384;stroke-opacity:0.5;"/>
    </defs>
    <g clip-path="url(#p9d1f8c4c93)">
     <use style="fill:#ff6384;fill-opacity:0.5;stroke:#ff6384;stroke-opacity:0.5;" x="0" xlink:href="#me1edc59ac6" y="581.789375"/>
    </g>
   </g>
   <g id="PolyCollection_2">
    <defs>
     <path d="M 58.827273 -195.538011 
L 58.827273 -195.650004 
L 62.960138 -195.692234 
L 67.093004 -195.749007 
L 71.22587 -195.8248 
L 75.358735 -195.925281 
L 79.491601 -196.057565 
L 83.624467 -196.230497 
L 87.757332 -196.454982 
L 91.890198 -196.744335 
L 96.023064 -197.114666 
L 100.155929 -197.585273 
L 104.288795 -198.179047 
L 108.421661 -198.922859 
L 112.554526 -199.847921 
L 116.687392 -200.990079 
L 120.820258 -202.390029 
L 124.953123 -204.093399 
L 129.085989 -206.150691 
L 133.218855 -208.617009 
L 137.35172 -211.551575 
L 141.484586 -215.016962 
L 145.617452 -219.078053 
L 149.750317 -223.800667 
L 153.883183 -229.249878 
L 158.016049 -235.488004 
L 162.148914 -242.572312 
L 166.28178 -250.552459 
L 170.414646 -259.467747 
L 174.547511 -269.344261 
L 178.680377 -280.192004 
L 182.813243 -292.002137 
L 186.946108 -304.744465 
L 191.078974 -318.365297 
L 195.21184 -332.785841 
L 199.344705 -347.901251 
L 203.477571 -363.580456 
L 207.610437 -379.666871 
L 211.743302 -395.980052 
L 215.876168 -412.31833 
L 220.009034 -428.4624 
L 224.141899 -444.179822 
L 228.274765 -459.230303 
L 232.407631 -473.371627 
L 236.540496 -486.366018 
L 240.673362 -497.986726 
L 244.806228 -508.02457 
L 248.939093 -516.294181 
L 253.071959 -522.639693 
L 257.204825 -526.939623 
L 261.33769 -529.110739 
L 265.470556 -529.110739 
L 269.603422 -526.939623 
L 273.736287 -522.639693 
L 277.869153 -516.294181 
L 282.002019 -508.02457 
L 286.134884 -497.986726 
L 290.26775 -486.366018 
L 294.400616 -473.371627 
L 298.533481 -459.230303 
L 302.666347 -444.179822 
L 306.799213 -428.4624 
L 310.932078 -412.31833 
L 315.064944 -395.980052 
L 319.19781 -379.666871 
L 323.330675 -363.580456 
L 327.463541 -347.901251 
L 331.596407 -332.785841 
L 335.729272 -318.365297 
L 339.862138 -304.744465 
L 343.995004 -292.002137 
L 348.127869 -280.192004 
L 352.260735 -269.344261 
L 356.393601 -259.467747 
L 360.526466 -250.552459 
L 364.659332 -242.572312 
L 368.792198 -235.488004 
L 372.925063 -229.249878 
L 377.057929 -223.800667 
L 381.190795 -219.078053 
L 385.32366 -215.016962 
L 389.456526 -211.551575 
L 393.589392 -208.617009 
L 397.722257 -206.150691 
L 401.855123 -204.093399 
L 405.987988 -202.390029 
L 410.120854 -200.990079 
L 414.25372 -199.847921 
L 418.386585 -198.922859 
L 422.519451 -198.179047 
L 426.652317 -197.585273 
L 430.785182 -197.114666 
L 434.918048 -196.744335 
L 439.050914 -196.454982 
L 443.183779 -196.230497 
L 447.316645 -196.057565 
L 451.449511 -195.925281 
L 455.582376 -195.8248 
L 459.715242 -195.749007 
L 463.848108 -195.692234 
L 467.980973 -195.650004 
L 467.980973 -195.538011 
L 467.980973 -195.538011 
L 463.848108 -195.538011 
L 459.715242 -195.538011 
L 455.582376 -195.538011 
L 451.449511 -195.538011 
L 447.316645 -195.538011 
L 443.183779 -195.538011 
L 439.050914 -195.538011 
L 434.918048 -195.538011 
L 430.785182 -195.538011 
L 426.652317 -195.538011 
L 422.519451 -195.538011 
L 418.386585 -195.538011 
L 414.25372 -195.538011 
L 410.120854 -195.538011 
L 405.987988 -195.538011 
L 401.855123 -195.538011 
L 397.722257 -195.538011 
L 393.589392 -195.538011 
L 389.456526 -195.538011 
L 385.32366 -195.538011 
L 381.190795 -195.538011 
L 377.057929 -195.538011 
L 372.925063 -195.538011 
L 368.792198 -195.538011 
L 364.659332 -195.538011 
L 360.526466 -195.538011 
L 356.393601 -195.538011 
L 352.260735 -195.538011 
L 348.127869 -195.538011 
L 343.995004 -195.538011 
L 339.862138 -195.538011 
L 335.729272 -195.538011 
L 331.596407 -195.538011 
L 327.463541 -195.538011 
L 323.330675 -195.538011 
L 319.19781 -195.538011 
L 315.064944 -195.538011 
L 310.932078 -195.538011 
L 306.799213 -195.538011 
L 302.666347 -195.538011 
L 298.533481 -195.538011 
L 294.400616 -195.538011 
L 290.26775 -195.538011 
L 286.134884 -195.538011 
L 282.002019 -195.538011 
L 277.869153 -195.538011 
L 273.736287 -195.538011 
L 269.603422 -195.538011 
L 265.470556 -195.538011 
L 261.33769 -195.538011 
L 257.204825 -195.538011 
L 253.071959 -195.538011 
L 248.939093 -195.538011 
L 244.806228 -195.538011 
L 240.673362 -195.538011 
L 236.540496 -195.538011 
L 232.407631 -195.538011 
L 228.274765 -195.538011 
L 224.141899 -195.538011 
L 220.009034 -195.538011 
L 215.876168 -195.538011 
L 211.743302 -195.538011 
L 207.610437 -195.538011 
L 203.477571 -195.538011 
L 199.344705 -195.538011 
L 195.21184 -195.538011 
L 191.078974 -195.538011 
L 186.946108 -195.538011 
L 182.813243 -195.538011 
L 178.680377 -195.538011 
L 174.547511 -195.538011 
L 170.414646 -195.538011 
L 166.28178 -195.538011 
L 162.148914 -195.538011 
L 158.016049 -195.538011 
L 153.883183 -195.538011 
L 149.750317 -195.538011 
L 145.617452 -195.538011 
L 141.484586 -195.538011 
L 137.35172 -195.538011 
L 133.218855 -195.538011 
L 129.085989 -195.538011 
L 124.953123 -195.538011 
L 120.820258 -195.538011 
L 116.687392 -195.538011 
L 112.554526 -195.538011 
L 108.421661 -195.538011 
L 104.288795 -195.538011 
L 100.155929 -195.538011 
L 96.023064 -195.538011 
L 91.890198 -195.538011 
L 87.757332 -195.538011 
L 83.624467 -195.538011 
L 79.491601 -195.538011 
L 75.358735 -195.538011 
L 71.22587 -195.538011 
L 67.093004 -195.538011 
L 62.960138 -195.538011 
L 58.827273 -195.538011 
z
" id="mb7fdbe6e1f" style="stroke:#36a2eb;stroke-opacity:0.5;"/>
    </defs>
    <g clip-path="url(#p9d1f8c4c93)">
     <use style="fill:#36a2eb;fill-opacity:0.5;stroke:#36a2eb;stroke-opacity:0.5;" x="0" xlink:href="#mb7fdbe6e1f" y="581.789375"/>
    </g>
   </g>
   <g id="line2d_1">
    <path clip-path="url(#p9d1f8c4c93)" d="M 60.283894 386.150675 
L 64.880751 386.112707 
L 69.477608 386.061665 
L 74.074465 385.993523 
L 78.671322 385.903183 
L 83.268179 385.784252 
L 87.865036 385.628775 
L 92.461892 385.426949 
L 97.058749 385.166802 
L 101.655606 384.833851 
L 106.252463 384.410746 
L 110.84932 383.876906 
L 115.446177 383.208171 
L 120.043034 382.376482 
L 124.639891 381.349609 
L 129.236748 380.090966 
L 133.833605 378.559528 
L 138.430461 376.709892 
L 143.027318 374.492516 
L 147.624175 371.854156 
L 152.221032 368.738552 
L 156.817889 365.087374 
L 161.414746 360.841445 
L 166.011603 355.942259 
L 170.60846 350.333789 
L 175.205317 343.964547 
L 179.802174 336.789889 
L 184.39903 328.77448 
L 188.995887 319.894868 
L 193.592744 310.14206 
L 198.189601 299.524001 
L 202.786458 288.067841 
L 207.383315 275.82185 
L 211.980172 262.856867 
L 216.577029 249.267156 
L 221.173886 235.170557 
L 225.770743 220.70785 
L 230.367599 206.041266 
L 234.964456 191.35212 
L 239.561313 176.837577 
L 244.15817 162.706619 
L 248.755027 149.175283 
L 253.351884 136.461337 
L 257.948741 124.778555 
L 262.545598 114.330802 
L 267.142455 105.306145 
L 271.739312 97.87124 
L 276.336168 92.166223 
L 280.933025 88.300313 
L 285.529882 86.348343 
L 290.126739 86.348343 
L 294.723596 88.300313 
L 299.320453 92.166223 
L 303.91731 97.87124 
L 308.514167 105.306145 
L 313.111024 114.330802 
L 317.707881 124.778555 
L 322.304737 136.461337 
L 326.901594 149.175283 
L 331.498451 162.706619 
L 336.095308 176.837577 
L 340.692165 191.35212 
L 345.289022 206.041266 
L 349.885879 220.70785 
L 354.482736 235.170557 
L 359.079593 249.267156 
L 363.67645 262.856867 
L 368.273306 275.82185 
L 372.870163 288.067841 
L 377.46702 299.524001 
L 382.063877 310.14206 
L 386.660734 319.894868 
L 391.257591 328.77448 
L 395.854448 336.789889 
L 400.451305 343.964547 
L 405.048162 350.333789 
L 409.645019 355.942259 
L 414.241875 360.841445 
L 418.838732 365.087374 
L 423.435589 368.738552 
L 428.032446 371.854156 
L 432.629303 374.492516 
L 437.22616 376.709892 
L 441.823017 378.559528 
L 446.419874 380.090966 
L 451.016731 381.349609 
L 455.613588 382.376482 
L 460.210444 383.208171 
L 464.807301 383.876906 
L 469.404158 384.410746 
L 474.001015 384.833851 
L 478.597872 385.166802 
L 483.194729 385.426949 
L 487.791586 385.628775 
L 492.388443 385.784252 
L 496.9853 385.903183 
L 501.582157 385.993523 
L 506.179013 386.061665 
L 510.77587 386.112707 
L 515.372727 386.150675 
" style="fill:none;stroke:#ff6384;stroke-linecap:square;"/>
   </g>
   <g id="line2d_2">
    <path clip-path="url(#p9d1f8c4c93)" d="M 58.827273 386.139371 
L 62.960138 386.097141 
L 67.093004 386.040368 
L 71.22587 385.964575 
L 75.358735 385.864094 
L 79.491601 385.73181 
L 83.624467 385.558878 
L 87.757332 385.334393 
L 91.890198 385.04504 
L 96.023064 384.674709 
L 100.155929 384.204102 
L 104.288795 383.610328 
L 108.421661 382.866516 
L 112.554526 381.941454 
L 116.687392 380.799296 
L 120.820258 379.399346 
L 124.953123 377.695976 
L 129.085989 375.638684 
L 133.218855 373.172366 
L 137.35172 370.2378 
L 141.484586 366.772413 
L 145.617452 362.711322 
L 149.750317 357.988708 
L 153.883183 352.539497 
L 158.016049 346.301371 
L 162.148914 339.217063 
L 166.28178 331.236916 
L 170.414646 322.321628 
L 174.547511 312.445114 
L 178.680377 301.597371 
L 182.813243 289.787238 
L 186.946108 277.04491 
L 191.078974 263.424078 
L 195.21184 249.003534 
L 199.344705 233.888124 
L 203.477571 218.208919 
L 207.610437 202.122504 
L 211.743302 185.809323 
L 215.876168 169.471045 
L 220.009034 153.326975 
L 224.141899 137.609553 
L 228.274765 122.559072 
L 232.407631 108.417748 
L 236.540496 95.423357 
L 240.673362 83.802649 
L 244.806228 73.764805 
L 248.939093 65.495194 
L 253.071959 59.149682 
L 257.204825 54.849752 
L 261.33769 52.678636 
L 265.470556 52.678636 
L 269.603422 54.849752 
L 273.736287 59.149682 
L 277.869153 65.495194 
L 282.002019 73.764805 
L 286.134884 83.802649 
L 290.26775 95.423357 
L 294.400616 108.417748 
L 298.533481 122.559072 
L 302.666347 137.609553 
L 306.799213 153.326975 
L 310.932078 169.471045 
L 315.064944 185.809323 
L 319.19781 202.122504 
L 323.330675 218.208919 
L 327.463541 233.888124 
L 331.596407 249.003534 
L 335.729272 263.424078 
L 339.862138 277.04491 
L 343.995004 289.787238 
L 348.127869 301.597371 
L 352.260735 312.445114 
L 356.393601 322.321628 
L 360.526466 331.236916 
L 364.659332 339.217063 
L 368.792198 346.301371 
L 372.925063 352.539497 
L 377.057929 357.988708 
L 381.190795 362.711322 
L 385.32366 366.772413 
L 389.456526 370.2378 
L 393.589392 373.172366 
L 397.722257 375.638684 
L 401.855123 377.695976 
L 405.987988 379.399346 
L 410.120854 380.799296 
L 414.25372 381.941454 
L 418.386585 382.866516 
L 422.519451 383.610328 
L 426.652317 384.204102 
L 430.785182 384.674709 
L 434.918048 385.04504 
L 439.050914 385.334393 
L 443.183779 385.558878 
L 447.316645 385.73181 
L 451.449511 385.864094 
L 455.582376 385.964575 
L 459.715242 386.040368 
L 463.848108 386.097141 
L 467.980973 386.139371 
" style="fill:none;stroke:#36a2eb;stroke-linecap:square;"/>
   </g>
   <g id="patch_3">
    <path d="M 36 402.93 
L 538.2 402.93 
" style="fill:none;stroke:#000000;stroke-linecap:square;stroke-linejoin:miter;stroke-width:0.8;"/>
   </g>
   <g id="legend_1">
    <g id="patch_4">
     <path d="M 450.225313 88.29875 
L 528.4 88.29875 
Q 531.2 88.29875 531.2 85.49875 
L 531.2 45.8 
Q 531.2 43 528.4 43 
L 450.225313 43 
Q 447.425313 43 447.425313 45.8 
L 447.425313 85.49875 
Q 447.425313 88.29875 450.225313 88.29875 
z
" style="fill:#ffffff;opacity:0.8;stroke:#cccccc;stroke-linejoin:miter;"/>
    </g>
    <g id="patch_5">
     <path d="M 453.025313 59.237813 
L 481.025313 59.237813 
L 481.025313 49.437813 
L 453.025313 49.437813 
z
" style="fill:#ff6384;opacity:0.5;stroke:#ff6384;stroke-linejoin:miter;"/>
    </g>
    <g id="text_1">
     <!-- base -->
     <defs>
      <path d="M 48.6875 27.296875 
Q 48.6875 37.203125 44.609375 42.84375 
Q 40.53125 48.484375 33.40625 48.484375 
Q 26.265625 48.484375 22.1875 42.84375 
Q 18.109375 37.203125 18.109375 27.296875 
Q 18.109375 17.390625 22.1875 11.75 
Q 26.265625 6.109375 33.40625 6.109375 
Q 40.53125 6.109375 44.609375 11.75 
Q 48.6875 17.390625 48.6875 27.296875 
z
M 18.109375 46.390625 
Q 20.953125 51.265625 25.265625 53.625 
Q 29.59375 56 35.59375 56 
Q 45.5625 56 51.78125 48.09375 
Q 58.015625 40.1875 58.015625 27.296875 
Q 58.015625 14.40625 51.78125 6.484375 
Q 45.5625 -1.421875 35.59375 -1.421875 
Q 29.59375 -1.421875 25.265625 0.953125 
Q 20.953125 3.328125 18.109375 8.203125 
L 18.109375 0 
L 9.078125 0 
L 9.078125 75.984375 
L 18.109375 75.984375 
z
" id="DejaVuSans-98"/>
      <path d="M 34.28125 27.484375 
Q 23.390625 27.484375 19.1875 25 
Q 14.984375 22.515625 14.984375 16.5 
Q 14.984375 11.71875 18.140625 8.90625 
Q 21.296875 6.109375 26.703125 6.109375 
Q 34.1875 6.109375 38.703125 11.40625 
Q 43.21875 16.703125 43.21875 25.484375 
L 43.21875 27.484375 
z
M 52.203125 31.203125 
L 52.203125 0 
L 43.21875 0 
L 43.21875 8.296875 
Q 40.140625 3.328125 35.546875 0.953125 
Q 30.953125 -1.421875 24.3125 -1.421875 
Q 15.921875 -1.421875 10.953125 3.296875 
Q 6 8.015625 6 15.921875 
Q 6 25.140625 12.171875 29.828125 
Q 18.359375 34.515625 30.609375 34.515625 
L 43.21875 34.515625 
L 43.21875 35.40625 
Q 43.21875 41.609375 39.140625 45 
Q 35.0625 48.390625 27.6875 48.390625 
Q 23 48.390625 18.546875 47.265625 
Q 14.109375 46.140625 10.015625 43.890625 
L 10.015625 52.203125 
Q 14.9375 54.109375 19.578125 55.046875 
Q 24.21875 56 28.609375 56 
Q 40.484375 56 46.34375 49.84375 
Q 52.203125 43.703125 52.203125 31.203125 
z
" id="DejaVuSans-97"/>
      <path d="M 44.28125 53.078125 
L 44.28125 44.578125 
Q 40.484375 46.53125 36.375 47.5 
Q 32.28125 48.484375 27.875 48.484375 
Q 21.1875 48.484375 17.84375 46.4375 
Q 14.5 44.390625 14.5 40.28125 
Q 14.5 37.15625 16.890625 35.375 
Q 19.28125 33.59375 26.515625 31.984375 
L 29.59375 31.296875 
Q 39.15625 29.25 43.1875 25.515625 
Q 47.21875 21.78125 47.21875 15.09375 
Q 47.21875 7.46875 41.1875 3.015625 
Q 35.15625 -1.421875 24.609375 -1.421875 
Q 20.21875 -1.421875 15.453125 -0.5625 
Q 10.6875 0.296875 5.421875 2 
L 5.421875 11.28125 
Q 10.40625 8.6875 15.234375 7.390625 
Q 20.0625 6.109375 24.8125 6.109375 
Q 31.15625 6.109375 34.5625 8.28125 
Q 37.984375 10.453125 37.984375 14.40625 
Q 37.984375 18.0625 35.515625 20.015625 
Q 33.0625 21.96875 24.703125 23.78125 
L 21.578125 24.515625 
Q 13.234375 26.265625 9.515625 29.90625 
Q 5.8125 33.546875 5.8125 39.890625 
Q 5.8125 47.609375 11.28125 51.796875 
Q 16.75 56 26.8125 56 
Q 31.78125 56 36.171875 55.265625 
Q 40.578125 54.546875 44.28125 53.078125 
z
" id="DejaVuSans-115"/>
      <path d="M 56.203125 29.59375 
L 56.203125 25.203125 
L 14.890625 25.203125 
Q 15.484375 15.921875 20.484375 11.0625 
Q 25.484375 6.203125 34.421875 6.203125 
Q 39.59375 6.203125 44.453125 7.46875 
Q 49.3125 8.734375 54.109375 11.28125 
L 54.109375 2.78125 
Q 49.265625 0.734375 44.1875 -0.34375 
Q 39.109375 -1.421875 33.890625 -1.421875 
Q 20.796875 -1.421875 13.15625 6.1875 
Q 5.515625 13.8125 5.515625 26.8125 
Q 5.515625 40.234375 12.765625 48.109375 
Q 20.015625 56 32.328125 56 
Q 43.359375 56 49.78125 48.890625 
Q 56.203125 41.796875 56.203125 29.59375 
z
M 47.21875 32.234375 
Q 47.125 39.59375 43.09375 43.984375 
Q 39.0625 48.390625 32.421875 48.390625 
Q 24.90625 48.390625 20.390625 44.140625 
Q 15.875 39.890625 15.1875 32.171875 
z
" id="DejaVuSans-101"/>
     </defs>
     <g transform="translate(492.225313 59.237813)scale(0.14 -0.14)">
      <use xlink:href="#DejaVuSans-98"/>
      <use x="63.476562" xlink:href="#DejaVuSans-97"/>
      <use x="124.755859" xlink:href="#DejaVuSans-115"/>
      <use x="176.855469" xlink:href="#DejaVuSans-101"/>
     </g>
    </g>
    <g id="patch_6">
     <path d="M 453.025313 79.787188 
L 481.025313 79.787188 
L 481.025313 69.987188 
L 453.025313 69.987188 
z
" style="fill:#36a2eb;opacity:0.5;stroke:#36a2eb;stroke-linejoin:miter;"/>
    </g>
    <g id="text_2">
     <!-- new -->
     <defs>
      <path d="M 54.890625 33.015625 
L 54.890625 0 
L 45.90625 0 
L 45.90625 32.71875 
Q 45.90625 40.484375 42.875 44.328125 
Q 39.84375 48.1875 33.796875 48.1875 
Q 26.515625 48.1875 22.3125 43.546875 
Q 18.109375 38.921875 18.109375 30.90625 
L 18.109375 0 
L 9.078125 0 
L 9.078125 54.6875 
L 18.109375 54.6875 
L 18.109375 46.1875 
Q 21.34375 51.125 25.703125 53.5625 
Q 30.078125 56 35.796875 56 
Q 45.21875 56 50.046875 50.171875 
Q 54.890625 44.34375 54.890625 33.015625 
z
" id="DejaVuSans-110"/>
      <path d="M 4.203125 54.6875 
L 13.1875 54.6875 
L 24.421875 12.015625 
L 35.59375 54.6875 
L 46.1875 54.6875 
L 57.421875 12.015625 
L 68.609375 54.6875 
L 77.59375 54.6875 
L 63.28125 0 
L 52.6875 0 
L 40.921875 44.828125 
L 29.109375 0 
L 18.5 0 
z
" id="DejaVuSans-119"/>
     </defs>
     <g transform="translate(492.225313 79.787188)scale(0.14 -0.14)">
      <use xlink:href="#DejaVuSans-110"/>
      <use x="63.378906" xlink:href="#DejaVuSans-101"/>
      <use x="124.902344" xlink:href="#DejaVuSans-119"/>
     </g>
    </g>
   </g>
  </g>
  <g id="axes_2">
   <g id="patch_7">
    <path d="M 36 525.24 
L 538.2 525.24 
L 538.2 402.93 
L 36 402.93 
z
" style="fill:none;"/>
   </g>
   <g id="patch_8">
    <path clip-path="url(#p70d04bad0a)" d="M 176.331547 519.680455 
L 399.325075 519.680455 
L 399.325075 482.616818 
L 176.331547 482.616818 
z
" style="fill:#ff6384;opacity:0.5;"/>
   </g>
   <g id="patch_9">
    <path clip-path="url(#p70d04bad0a)" d="M 163.161466 445.553182 
L 363.64678 445.553182 
L 363.64678 408.489545 
L 163.161466 408.489545 
z
" style="fill:#36a2eb;opacity:0.5;"/>
   </g>
   <g id="matplotlib.axis_1">
    <g id="xtick_1">
     <g id="line2d_3">
      <defs>
       <path d="M 0 0 
L 0 3.5 
" id="m7ec0ca91bc" style="stroke:#000000;stroke-width:0.8;"/>
      </defs>
      <g>
       <use style="stroke:#000000;stroke-width:0.8;" x="83.814508" xlink:href="#m7ec0ca91bc" y="525.24"/>
      </g>
     </g>
     <g id="text_3">
      <!-- 4.5 -->
      <defs>
       <path d="M 37.796875 64.3125 
L 12.890625 25.390625 
L 37.796875 25.390625 
z
M 35.203125 72.90625 
L 47.609375 72.90625 
L 47.609375 25.390625 
L 58.015625 25.390625 
L 58.015625 17.1875 
L 47.609375 17.1875 
L 47.609375 0 
L 37.796875 0 
L 37.796875 17.1875 
L 4.890625 17.1875 
L 4.890625 26.703125 
z
" id="DejaVuSans-52"/>
       <path d="M 10.6875 12.40625 
L 21 12.40625 
L 21 0 
L 10.6875 0 
z
" id="DejaVuSans-46"/>
       <path d="M 10.796875 72.90625 
L 49.515625 72.90625 
L 49.515625 64.59375 
L 19.828125 64.59375 
L 19.828125 46.734375 
Q 21.96875 47.46875 24.109375 47.828125 
Q 26.265625 48.1875 28.421875 48.1875 
Q 40.625 48.1875 47.75 41.5 
Q 54.890625 34.8125 54.890625 23.390625 
Q 54.890625 11.625 47.5625 5.09375 
Q 40.234375 -1.421875 26.90625 -1.421875 
Q 22.3125 -1.421875 17.546875 -0.640625 
Q 12.796875 0.140625 7.71875 1.703125 
L 7.71875 11.625 
Q 12.109375 9.234375 16.796875 8.0625 
Q 21.484375 6.890625 26.703125 6.890625 
Q 35.15625 6.890625 40.078125 11.328125 
Q 45.015625 15.765625 45.015625 23.390625 
Q 45.015625 31 40.078125 35.4375 
Q 35.15625 39.890625 26.703125 39.890625 
Q 22.75 39.890625 18.8125 39.015625 
Q 14.890625 38.140625 10.796875 36.28125 
z
" id="DejaVuSans-53"/>
      </defs>
      <g transform="translate(72.682321 542.877813)scale(0.14 -0.14)">
       <use xlink:href="#DejaVuSans-52"/>
       <use x="63.623047" xlink:href="#DejaVuSans-46"/>
       <use x="95.410156" xlink:href="#DejaVuSans-53"/>
      </g>
     </g>
    </g>
    <g id="xtick_2">
     <g id="line2d_4">
      <g>
       <use style="stroke:#000000;stroke-width:0.8;" x="155.650354" xlink:href="#m7ec0ca91bc" y="525.24"/>
      </g>
     </g>
     <g id="text_4">
      <!-- 5.0 -->
      <defs>
       <path d="M 31.78125 66.40625 
Q 24.171875 66.40625 20.328125 58.90625 
Q 16.5 51.421875 16.5 36.375 
Q 16.5 21.390625 20.328125 13.890625 
Q 24.171875 6.390625 31.78125 6.390625 
Q 39.453125 6.390625 43.28125 13.890625 
Q 47.125 21.390625 47.125 36.375 
Q 47.125 51.421875 43.28125 58.90625 
Q 39.453125 66.40625 31.78125 66.40625 
z
M 31.78125 74.21875 
Q 44.046875 74.21875 50.515625 64.515625 
Q 56.984375 54.828125 56.984375 36.375 
Q 56.984375 17.96875 50.515625 8.265625 
Q 44.046875 -1.421875 31.78125 -1.421875 
Q 19.53125 -1.421875 13.0625 8.265625 
Q 6.59375 17.96875 6.59375 36.375 
Q 6.59375 54.828125 13.0625 64.515625 
Q 19.53125 74.21875 31.78125 74.21875 
z
" id="DejaVuSans-48"/>
      </defs>
      <g transform="translate(144.518167 542.877813)scale(0.14 -0.14)">
       <use xlink:href="#DejaVuSans-53"/>
       <use x="63.623047" xlink:href="#DejaVuSans-46"/>
       <use x="95.410156" xlink:href="#DejaVuSans-48"/>
      </g>
     </g>
    </g>
    <g id="xtick_3">
     <g id="line2d_5">
      <g>
       <use style="stroke:#000000;stroke-width:0.8;" x="227.4862" xlink:href="#m7ec0ca91bc" y="525.24"/>
      </g>
     </g>
     <g id="text_5">
      <!-- 5.5 -->
      <g transform="translate(216.354013 542.877813)scale(0.14 -0.14)">
       <use xlink:href="#DejaVuSans-53"/>
       <use x="63.623047" xlink:href="#DejaVuSans-46"/>
       <use x="95.410156" xlink:href="#DejaVuSans-53"/>
      </g>
     </g>
    </g>
    <g id="xtick_4">
     <g id="line2d_6">
      <g>
       <use style="stroke:#000000;stroke-width:0.8;" x="299.322046" xlink:href="#m7ec0ca91bc" y="525.24"/>
      </g>
     </g>
     <g id="text_6">
      <!-- 6.0 -->
      <defs>
       <path d="M 33.015625 40.375 
Q 26.375 40.375 22.484375 35.828125 
Q 18.609375 31.296875 18.609375 23.390625 
Q 18.609375 15.53125 22.484375 10.953125 
Q 26.375 6.390625 33.015625 6.390625 
Q 39.65625 6.390625 43.53125 10.953125 
Q 47.40625 15.53125 47.40625 23.390625 
Q 47.40625 31.296875 43.53125 35.828125 
Q 39.65625 40.375 33.015625 40.375 
z
M 52.59375 71.296875 
L 52.59375 62.3125 
Q 48.875 64.0625 45.09375 64.984375 
Q 41.3125 65.921875 37.59375 65.921875 
Q 27.828125 65.921875 22.671875 59.328125 
Q 17.53125 52.734375 16.796875 39.40625 
Q 19.671875 43.65625 24.015625 45.921875 
Q 28.375 48.1875 33.59375 48.1875 
Q 44.578125 48.1875 50.953125 41.515625 
Q 57.328125 34.859375 57.328125 23.390625 
Q 57.328125 12.15625 50.6875 5.359375 
Q 44.046875 -1.421875 33.015625 -1.421875 
Q 20.359375 -1.421875 13.671875 8.265625 
Q 6.984375 17.96875 6.984375 36.375 
Q 6.984375 53.65625 15.1875 63.9375 
Q 23.390625 74.21875 37.203125 74.21875 
Q 40.921875 74.21875 44.703125 73.484375 
Q 48.484375 72.75 52.59375 71.296875 
z
" id="DejaVuSans-54"/>
      </defs>
      <g transform="translate(288.189859 542.877813)scale(0.14 -0.14)">
       <use xlink:href="#DejaVuSans-54"/>
       <use x="63.623047" xlink:href="#DejaVuSans-46"/>
       <use x="95.410156" xlink:href="#DejaVuSans-48"/>
      </g>
     </g>
    </g>
    <g id="xtick_5">
     <g id="line2d_7">
      <g>
       <use style="stroke:#000000;stroke-width:0.8;" x="371.157892" xlink:href="#m7ec0ca91bc" y="525.24"/>
      </g>
     </g>
     <g id="text_7">
      <!-- 6.5 -->
      <g transform="translate(360.025704 542.877813)scale(0.14 -0.14)">
       <use xlink:href="#DejaVuSans-54"/>
       <use x="63.623047" xlink:href="#DejaVuSans-46"/>
       <use x="95.410156" xlink:href="#DejaVuSans-53"/>
      </g>
     </g>
    </g>
    <g id="xtick_6">
     <g id="line2d_8">
      <g>
       <use style="stroke:#000000;stroke-width:0.8;" x="442.993738" xlink:href="#m7ec0ca91bc" y="525.24"/>
      </g>
     </g>
     <g id="text_8">
      <!-- 7.0 -->
      <defs>
       <path d="M 8.203125 72.90625 
L 55.078125 72.90625 
L 55.078125 68.703125 
L 28.609375 0 
L 18.3125 0 
L 43.21875 64.59375 
L 8.203125 64.59375 
z
" id="DejaVuSans-55"/>
      </defs>
      <g transform="translate(431.86155 542.877813)scale(0.14 -0.14)">
       <use xlink:href="#DejaVuSans-55"/>
       <use x="63.623047" xlink:href="#DejaVuSans-46"/>
       <use x="95.410156" xlink:href="#DejaVuSans-48"/>
      </g>
     </g>
    </g>
    <g id="xtick_7">
     <g id="line2d_9">
      <g>
       <use style="stroke:#000000;stroke-width:0.8;" x="514.829584" xlink:href="#m7ec0ca91bc" y="525.24"/>
      </g>
     </g>
     <g id="text_9">
      <!-- 7.5 -->
      <g transform="translate(503.697396 542.877813)scale(0.14 -0.14)">
       <use xlink:href="#DejaVuSans-55"/>
       <use x="63.623047" xlink:href="#DejaVuSans-46"/>
       <use x="95.410156" xlink:href="#DejaVuSans-53"/>
      </g>
     </g>
    </g>
   </g>
   <g id="line2d_10">
    <path clip-path="url(#p70d04bad0a)" d="M 287.828311 525.24 
L 287.828311 402.93 
" style="fill:none;stroke:#ff6384;stroke-dasharray:5.55,2.4;stroke-dashoffset:0;stroke-opacity:0.8;stroke-width:1.5;"/>
   </g>
   <g id="line2d_11">
    <path clip-path="url(#p70d04bad0a)" d="M 263.404123 525.24 
L 263.404123 402.93 
" style="fill:none;stroke:#36a2eb;stroke-dasharray:5.55,2.4;stroke-dashoffset:0;stroke-opacity:0.8;stroke-width:1.5;"/>
   </g>
   <g id="patch_10">
    <path d="M 36 525.24 
L 538.2 525.24 
" style="fill:none;stroke:#000000;stroke-linecap:square;stroke-linejoin:miter;stroke-width:0.8;"/>
   </g>
  </g>
 </g>
 <defs>
  <clipPath id="p9d1f8c4c93">
   <rect height="366.93" width="502.2" x="36" y="36"/>
  </clipPath>
  <clipPath id="p70d04bad0a">
   <rect height="122.31" width="502.2" x="36" y="402.93"/>
  </clipPath>
 </defs>
</svg>
