<?xml version="1.0" encoding="utf-8" standalone="no"?>
<!DOCTYPE svg PUBLIC "-//W3C//DTD SVG 1.1//EN"
  "http://www.w3.org/Graphics/SVG/1.1/DTD/svg11.dtd">
<!-- Created with matplotlib (https://matplotlib.org/) -->
<svg height="581.789375pt" version="1.1" viewBox="0 0 574.2 581.789375" width="574.2pt" xmlns="http://www.w3.org/2000/svg" xmlns:xlink="http://www.w3.org/1999/xlink">
 <defs>
  <style type="text/css">
*{stroke-linecap:butt;stroke-linejoin:round;}
  </style>
 </defs>
 <g id="figure_1">
  <g id="patch_1">
   <path d="M 0 581.789375 
L 574.2 581.789375 
L 574.2 0 
L 0 0 
z
" style="fill:none;"/>
  </g>
  <g id="axes_1">
   <g id="patch_2">
    <path d="M 36 402.93 
L 538.2 402.93 
L 538.2 36 
L 36 36 
z
" style="fill:none;"/>
   </g>
   <g id="PolyCollection_1">
    <defs>
     <path d="M 68.689955 -195.538011 
L 68.689955 -195.638326 
L 73.201902 -195.676152 
L 77.713849 -195.727005 
L 82.225796 -195.794894 
L 86.737744 -195.884898 
L 91.249691 -196.003387 
L 95.761638 -196.158287 
L 100.273585 -196.359363 
L 104.785532 -196.618543 
L 109.29748 -196.950257 
L 113.809427 -197.37179 
L 118.321374 -197.903647 
L 122.833321 -198.569897 
L 127.345268 -199.398496 
L 131.857216 -200.421553 
L 136.369163 -201.67552 
L 140.88111 -203.201268 
L 145.393057 -205.044031 
L 149.905004 -207.253169 
L 154.416952 -209.881727 
L 158.928899 -212.985754 
L 163.440846 -216.623366 
L 167.952793 -220.853519 
L 172.46474 -225.734502 
L 176.976688 -231.322135 
L 181.488635 -237.667711 
L 186.000582 -244.815712 
L 190.512529 -252.801339 
L 195.024476 -261.647959 
L 199.536424 -271.364531 
L 204.048371 -281.943138 
L 208.560318 -293.356732 
L 213.072265 -305.557224 
L 217.584212 -318.474035 
L 222.096159 -332.013253 
L 226.608107 -346.057476 
L 231.120054 -360.466447 
L 235.632001 -375.078537 
L 240.143948 -389.713106 
L 244.655895 -404.173719 
L 249.167843 -418.252174 
L 253.67979 -431.733234 
L 258.191737 -444.399942 
L 262.703684 -456.039316 
L 267.215631 -466.44825 
L 271.727579 -475.439376 
L 276.239526 -482.846657 
L 280.751473 -488.530477 
L 285.26342 -492.382023 
L 289.775367 -494.326741 
L 294.287315 -494.326741 
L 298.799262 -492.382023 
L 303.311209 -488.530477 
L 307.823156 -482.846657 
L 312.335103 -475.439376 
L 316.847051 -466.44825 
L 321.358998 -456.039316 
L 325.870945 -444.399942 
L 330.382892 -431.733234 
L 334.894839 -418.252174 
L 339.406787 -404.173719 
L 343.918734 -389.713106 
L 348.430681 -375.078537 
L 352.942628 -360.466447 
L 357.454575 -346.057476 
L 361.966523 -332.013253 
L 366.47847 -318.474035 
L 370.990417 -305.557224 
L 375.502364 -293.356732 
L 380.014311 -281.943138 
L 384.526259 -271.364531 
L 389.038206 -261.647959 
L 393.550153 -252.801339 
L 398.0621 -244.815712 
L 402.574047 -237.667711 
L 407.085995 -231.322135 
L 411.597942 -225.734502 
L 416.109889 -220.853519 
L 420.621836 -216.623366 
L 425.133783 -212.985754 
L 429.645731 -209.881727 
L 434.157678 -207.253169 
L 438.669625 -205.044031 
L 443.181572 -203.201268 
L 447.693519 -201.67552 
L 452.205467 -200.421553 
L 456.717414 -199.398496 
L 461.229361 -198.569897 
L 465.741308 -197.903647 
L 470.253255 -197.37179 
L 474.765203 -196.950257 
L 479.27715 -196.618543 
L 483.789097 -196.359363 
L 488.301044 -196.158287 
L 492.812991 -196.003387 
L 497.324938 -195.884898 
L 501.836886 -195.794894 
L 506.348833 -195.727005 
L 510.86078 -195.676152 
L 515.372727 -195.638326 
L 515.372727 -195.538011 
L 515.372727 -195.538011 
L 510.86078 -195.538011 
L 506.348833 -195.538011 
L 501.836886 -195.538011 
L 497.324938 -195.538011 
L 492.812991 -195.538011 
L 488.301044 -195.538011 
L 483.789097 -195.538011 
L 479.27715 -195.538011 
L 474.765203 -195.538011 
L 470.253255 -195.538011 
L 465.741308 -195.538011 
L 461.229361 -195.538011 
L 456.717414 -195.538011 
L 452.205467 -195.538011 
L 447.693519 -195.538011 
L 443.181572 -195.538011 
L 438.669625 -195.538011 
L 434.157678 -195.538011 
L 429.645731 -195.538011 
L 425.133783 -195.538011 
L 420.621836 -195.538011 
L 416.109889 -195.538011 
L 411.597942 -195.538011 
L 407.085995 -195.538011 
L 402.574047 -195.538011 
L 398.0621 -195.538011 
L 393.550153 -195.538011 
L 389.038206 -195.538011 
L 384.526259 -195.538011 
L 380.014311 -195.538011 
L 375.502364 -195.538011 
L 370.990417 -195.538011 
L 366.47847 -195.538011 
L 361.966523 -195.538011 
L 357.454575 -195.538011 
L 352.942628 -195.538011 
L 348.430681 -195.538011 
L 343.918734 -195.538011 
L 339.406787 -195.538011 
L 334.894839 -195.538011 
L 330.382892 -195.538011 
L 325.870945 -195.538011 
L 321.358998 -195.538011 
L 316.847051 -195.538011 
L 312.335103 -195.538011 
L 307.823156 -195.538011 
L 303.311209 -195.538011 
L 298.799262 -195.538011 
L 294.287315 -195.538011 
L 289.775367 -195.538011 
L 285.26342 -195.538011 
L 280.751473 -195.538011 
L 276.239526 -195.538011 
L 271.727579 -195.538011 
L 267.215631 -195.538011 
L 262.703684 -195.538011 
L 258.191737 -195.538011 
L 253.67979 -195.538011 
L 249.167843 -195.538011 
L 244.655895 -195.538011 
L 240.143948 -195.538011 
L 235.632001 -195.538011 
L 231.120054 -195.538011 
L 226.608107 -195.538011 
L 222.096159 -195.538011 
L 217.584212 -195.538011 
L 213.072265 -195.538011 
L 208.560318 -195.538011 
L 204.048371 -195.538011 
L 199.536424 -195.538011 
L 195.024476 -195.538011 
L 190.512529 -195.538011 
L 186.000582 -195.538011 
L 181.488635 -195.538011 
L 176.976688 -195.538011 
L 172.46474 -195.538011 
L 167.952793 -195.538011 
L 163.440846 -195.538011 
L 158.928899 -195.538011 
L 154.416952 -195.538011 
L 149.905004 -195.538011 
L 145.393057 -195.538011 
L 140.88111 -195.538011 
L 136.369163 -195.538011 
L 131.857216 -195.538011 
L 127.345268 -195.538011 
L 122.833321 -195.538011 
L 118.321374 -195.538011 
L 113.809427 -195.538011 
L 109.29748 -195.538011 
L 104.785532 -195.538011 
L 100.273585 -195.538011 
L 95.761638 -195.538011 
L 91.249691 -195.538011 
L 86.737744 -195.538011 
L 82.225796 -195.538011 
L 77.713849 -195.538011 
L 73.201902 -195.538011 
L 68.689955 -195.538011 
z
" id="md953d6d73c" style="stroke:#ff6384;stroke-opacity:0.5;"/>
    </defs>
    <g clip-path="url(#p13a7519cf9)">
     <use style="fill:#ff6384;fill-opacity:0.5;stroke:#ff6384;stroke-opacity:0.5;" x="0" xlink:href="#md953d6d73c" y="581.789375"/>
    </g>
   </g>
   <g id="PolyCollection_2">
    <defs>
     <path d="M 58.827273 -195.538011 
L 58.827273 -195.650004 
L 62.868727 -195.692234 
L 66.910182 -195.749007 
L 70.951636 -195.8248 
L 74.99309 -195.925281 
L 79.034545 -196.057565 
L 83.075999 -196.230497 
L 87.117454 -196.454982 
L 91.158908 -196.744335 
L 95.200362 -197.114666 
L 99.241817 -197.585273 
L 103.283271 -198.179047 
L 107.324726 -198.922859 
L 111.36618 -199.847921 
L 115.407634 -200.990079 
L 119.449089 -202.390029 
L 123.490543 -204.093399 
L 127.531998 -206.150691 
L 131.573452 -208.617009 
L 135.614907 -211.551575 
L 139.656361 -215.016962 
L 143.697815 -219.078053 
L 147.73927 -223.800667 
L 151.780724 -229.249878 
L 155.822179 -235.488004 
L 159.863633 -242.572312 
L 163.905087 -250.552459 
L 167.946542 -259.467747 
L 171.987996 -269.344261 
L 176.029451 -280.192004 
L 180.070905 -292.002137 
L 184.112359 -304.744465 
L 188.153814 -318.365297 
L 192.195268 -332.785841 
L 196.236723 -347.901251 
L 200.278177 -363.580456 
L 204.319631 -379.666871 
L 208.361086 -395.980052 
L 212.40254 -412.31833 
L 216.443995 -428.4624 
L 220.485449 -444.179822 
L 224.526904 -459.230303 
L 228.568358 -473.371627 
L 232.609812 -486.366018 
L 236.651267 -497.986726 
L 240.692721 -508.02457 
L 244.734176 -516.294181 
L 248.77563 -522.639693 
L 252.817084 -526.939623 
L 256.858539 -529.110739 
L 260.899993 -529.110739 
L 264.941448 -526.939623 
L 268.982902 -522.639693 
L 273.024356 -516.294181 
L 277.065811 -508.02457 
L 281.107265 -497.986726 
L 285.14872 -486.366018 
L 289.190174 -473.371627 
L 293.231628 -459.230303 
L 297.273083 -444.179822 
L 301.314537 -428.4624 
L 305.355992 -412.31833 
L 309.397446 -395.980052 
L 313.438901 -379.666871 
L 317.480355 -363.580456 
L 321.521809 -347.901251 
L 325.563264 -332.785841 
L 329.604718 -318.365297 
L 333.646173 -304.744465 
L 337.687627 -292.002137 
L 341.729081 -280.192004 
L 345.770536 -269.344261 
L 349.81199 -259.467747 
L 353.853445 -250.552459 
L 357.894899 -242.572312 
L 361.936353 -235.488004 
L 365.977808 -229.249878 
L 370.019262 -223.800667 
L 374.060717 -219.078053 
L 378.102171 -215.016962 
L 382.143626 -211.551575 
L 386.18508 -208.617009 
L 390.226534 -206.150691 
L 394.267989 -204.093399 
L 398.309443 -202.390029 
L 402.350898 -200.990079 
L 406.392352 -199.847921 
L 410.433806 -198.922859 
L 414.475261 -198.179047 
L 418.516715 -197.585273 
L 422.55817 -197.114666 
L 426.599624 -196.744335 
L 430.641078 -196.454982 
L 434.682533 -196.230497 
L 438.723987 -196.057565 
L 442.765442 -195.925281 
L 446.806896 -195.8248 
L 450.84835 -195.749007 
L 454.889805 -195.692234 
L 458.931259 -195.650004 
L 458.931259 -195.538011 
L 458.931259 -195.538011 
L 454.889805 -195.538011 
L 450.84835 -195.538011 
L 446.806896 -195.538011 
L 442.765442 -195.538011 
L 438.723987 -195.538011 
L 434.682533 -195.538011 
L 430.641078 -195.538011 
L 426.599624 -195.538011 
L 422.55817 -195.538011 
L 418.516715 -195.538011 
L 414.475261 -195.538011 
L 410.433806 -195.538011 
L 406.392352 -195.538011 
L 402.350898 -195.538011 
L 398.309443 -195.538011 
L 394.267989 -195.538011 
L 390.226534 -195.538011 
L 386.18508 -195.538011 
L 382.143626 -195.538011 
L 378.102171 -195.538011 
L 374.060717 -195.538011 
L 370.019262 -195.538011 
L 365.977808 -195.538011 
L 361.936353 -195.538011 
L 357.894899 -195.538011 
L 353.853445 -195.538011 
L 349.81199 -195.538011 
L 345.770536 -195.538011 
L 341.729081 -195.538011 
L 337.687627 -195.538011 
L 333.646173 -195.538011 
L 329.604718 -195.538011 
L 325.563264 -195.538011 
L 321.521809 -195.538011 
L 317.480355 -195.538011 
L 313.438901 -195.538011 
L 309.397446 -195.538011 
L 305.355992 -195.538011 
L 301.314537 -195.538011 
L 297.273083 -195.538011 
L 293.231628 -195.538011 
L 289.190174 -195.538011 
L 285.14872 -195.538011 
L 281.107265 -195.538011 
L 277.065811 -195.538011 
L 273.024356 -195.538011 
L 268.982902 -195.538011 
L 264.941448 -195.538011 
L 260.899993 -195.538011 
L 256.858539 -195.538011 
L 252.817084 -195.538011 
L 248.77563 -195.538011 
L 244.734176 -195.538011 
L 240.692721 -195.538011 
L 236.651267 -195.538011 
L 232.609812 -195.538011 
L 228.568358 -195.538011 
L 224.526904 -195.538011 
L 220.485449 -195.538011 
L 216.443995 -195.538011 
L 212.40254 -195.538011 
L 208.361086 -195.538011 
L 204.319631 -195.538011 
L 200.278177 -195.538011 
L 196.236723 -195.538011 
L 192.195268 -195.538011 
L 188.153814 -195.538011 
L 184.112359 -195.538011 
L 180.070905 -195.538011 
L 176.029451 -195.538011 
L 171.987996 -195.538011 
L 167.946542 -195.538011 
L 163.905087 -195.538011 
L 159.863633 -195.538011 
L 155.822179 -195.538011 
L 151.780724 -195.538011 
L 147.73927 -195.538011 
L 143.697815 -195.538011 
L 139.656361 -195.538011 
L 135.614907 -195.538011 
L 131.573452 -195.538011 
L 127.531998 -195.538011 
L 123.490543 -195.538011 
L 119.449089 -195.538011 
L 115.407634 -195.538011 
L 111.36618 -195.538011 
L 107.324726 -195.538011 
L 103.283271 -195.538011 
L 99.241817 -195.538011 
L 95.200362 -195.538011 
L 91.158908 -195.538011 
L 87.117454 -195.538011 
L 83.075999 -195.538011 
L 79.034545 -195.538011 
L 74.99309 -195.538011 
L 70.951636 -195.538011 
L 66.910182 -195.538011 
L 62.868727 -195.538011 
L 58.827273 -195.538011 
z
" id="mcd0f610bc3" style="stroke:#36a2eb;stroke-opacity:0.5;"/>
    </defs>
    <g clip-path="url(#p13a7519cf9)">
     <use style="fill:#36a2eb;fill-opacity:0.5;stroke:#36a2eb;stroke-opacity:0.5;" x="0" xlink:href="#mcd0f610bc3" y="581.789375"/>
    </g>
   </g>
   <g id="line2d_1">
    <path clip-path="url(#p13a7519cf9)" d="M 68.689955 386.151049 
L 73.201902 386.113223 
L 77.713849 386.06237 
L 82.225796 385.994481 
L 86.737744 385.904477 
L 91.249691 385.785988 
L 95.761638 385.631088 
L 100.273585 385.430012 
L 104.785532 385.170832 
L 109.29748 384.839118 
L 113.809427 384.417585 
L 118.321374 383.885728 
L 122.833321 383.219478 
L 127.345268 382.390879 
L 131.857216 381.367822 
L 136.369163 380.113855 
L 140.88111 378.588107 
L 145.393057 376.745344 
L 149.905004 374.536206 
L 154.416952 371.907648 
L 158.928899 368.803621 
L 163.440846 365.166009 
L 167.952793 360.935856 
L 172.46474 356.054873 
L 176.976688 350.46724 
L 181.488635 344.121664 
L 186.000582 336.973663 
L 190.512529 328.988036 
L 195.024476 320.141416 
L 199.536424 310.424844 
L 204.048371 299.846237 
L 208.560318 288.432643 
L 213.072265 276.232151 
L 217.584212 263.31534 
L 222.096159 249.776122 
L 226.608107 235.731899 
L 231.120054 221.322928 
L 235.632001 206.710838 
L 240.143948 192.076269 
L 244.655895 177.615656 
L 249.167843 163.537201 
L 253.67979 150.056141 
L 258.191737 137.389433 
L 262.703684 125.750059 
L 267.215631 115.341125 
L 271.727579 106.349999 
L 276.239526 98.942718 
L 280.751473 93.258898 
L 285.26342 89.407352 
L 289.775367 87.462634 
L 294.287315 87.462634 
L 298.799262 89.407352 
L 303.311209 93.258898 
L 307.823156 98.942718 
L 312.335103 106.349999 
L 316.847051 115.341125 
L 321.358998 125.750059 
L 325.870945 137.389433 
L 330.382892 150.056141 
L 334.894839 163.537201 
L 339.406787 177.615656 
L 343.918734 192.076269 
L 348.430681 206.710838 
L 352.942628 221.322928 
L 357.454575 235.731899 
L 361.966523 249.776122 
L 366.47847 263.31534 
L 370.990417 276.232151 
L 375.502364 288.432643 
L 380.014311 299.846237 
L 384.526259 310.424844 
L 389.038206 320.141416 
L 393.550153 328.988036 
L 398.0621 336.973663 
L 402.574047 344.121664 
L 407.085995 350.46724 
L 411.597942 356.054873 
L 416.109889 360.935856 
L 420.621836 365.166009 
L 425.133783 368.803621 
L 429.645731 371.907648 
L 434.157678 374.536206 
L 438.669625 376.745344 
L 443.181572 378.588107 
L 447.693519 380.113855 
L 452.205467 381.367822 
L 456.717414 382.390879 
L 461.229361 383.219478 
L 465.741308 383.885728 
L 470.253255 384.417585 
L 474.765203 384.839118 
L 479.27715 385.170832 
L 483.789097 385.430012 
L 488.301044 385.631088 
L 492.812991 385.785988 
L 497.324938 385.904477 
L 501.836886 385.994481 
L 506.348833 386.06237 
L 510.86078 386.113223 
L 515.372727 386.151049 
" style="fill:none;stroke:#ff6384;stroke-linecap:square;"/>
   </g>
   <g id="line2d_2">
    <path clip-path="url(#p13a7519cf9)" d="M 58.827273 386.139371 
L 62.868727 386.097141 
L 66.910182 386.040368 
L 70.951636 385.964575 
L 74.99309 385.864094 
L 79.034545 385.73181 
L 83.075999 385.558878 
L 87.117454 385.334393 
L 91.158908 385.04504 
L 95.200362 384.674709 
L 99.241817 384.204102 
L 103.283271 383.610328 
L 107.324726 382.866516 
L 111.36618 381.941454 
L 115.407634 380.799296 
L 119.449089 379.399346 
L 123.490543 377.695976 
L 127.531998 375.638684 
L 131.573452 373.172366 
L 135.614907 370.2378 
L 139.656361 366.772413 
L 143.697815 362.711322 
L 147.73927 357.988708 
L 151.780724 352.539497 
L 155.822179 346.301371 
L 159.863633 339.217063 
L 163.905087 331.236916 
L 167.946542 322.321628 
L 171.987996 312.445114 
L 176.029451 301.597371 
L 180.070905 289.787238 
L 184.112359 277.04491 
L 188.153814 263.424078 
L 192.195268 249.003534 
L 196.236723 233.888124 
L 200.278177 218.208919 
L 204.319631 202.122504 
L 208.361086 185.809323 
L 212.40254 169.471045 
L 216.443995 153.326975 
L 220.485449 137.609553 
L 224.526904 122.559072 
L 228.568358 108.417748 
L 232.609812 95.423357 
L 236.651267 83.802649 
L 240.692721 73.764805 
L 244.734176 65.495194 
L 248.77563 59.149682 
L 252.817084 54.849752 
L 256.858539 52.678636 
L 260.899993 52.678636 
L 264.941448 54.849752 
L 268.982902 59.149682 
L 273.024356 65.495194 
L 277.065811 73.764805 
L 281.107265 83.802649 
L 285.14872 95.423357 
L 289.190174 108.417748 
L 293.231628 122.559072 
L 297.273083 137.609553 
L 301.314537 153.326975 
L 305.355992 169.471045 
L 309.397446 185.809323 
L 313.438901 202.122504 
L 317.480355 218.208919 
L 321.521809 233.888124 
L 325.563264 249.003534 
L 329.604718 263.424078 
L 333.646173 277.04491 
L 337.687627 289.787238 
L 341.729081 301.597371 
L 345.770536 312.445114 
L 349.81199 322.321628 
L 353.853445 331.236916 
L 357.894899 339.217063 
L 361.936353 346.301371 
L 365.977808 352.539497 
L 370.019262 357.988708 
L 374.060717 362.711322 
L 378.102171 366.772413 
L 382.143626 370.2378 
L 386.18508 373.172366 
L 390.226534 375.638684 
L 394.267989 377.695976 
L 398.309443 379.399346 
L 402.350898 380.799296 
L 406.392352 381.941454 
L 410.433806 382.866516 
L 414.475261 383.610328 
L 418.516715 384.204102 
L 422.55817 384.674709 
L 426.599624 385.04504 
L 430.641078 385.334393 
L 434.682533 385.558878 
L 438.723987 385.73181 
L 442.765442 385.864094 
L 446.806896 385.964575 
L 450.84835 386.040368 
L 454.889805 386.097141 
L 458.931259 386.139371 
" style="fill:none;stroke:#36a2eb;stroke-linecap:square;"/>
   </g>
   <g id="patch_3">
    <path d="M 36 402.93 
L 538.2 402.93 
" style="fill:none;stroke:#000000;stroke-linecap:square;stroke-linejoin:miter;stroke-width:0.8;"/>
   </g>
   <g id="legend_1">
    <g id="patch_4">
     <path d="M 450.225313 88.29875 
L 528.4 88.29875 
Q 531.2 88.29875 531.2 85.49875 
L 531.2 45.8 
Q 531.2 43 528.4 43 
L 450.225313 43 
Q 447.425313 43 447.425313 45.8 
L 447.425313 85.49875 
Q 447.425313 88.29875 450.225313 88.29875 
z
" style="fill:#ffffff;opacity:0.8;stroke:#cccccc;stroke-linejoin:miter;"/>
    </g>
    <g id="patch_5">
     <path d="M 453.025313 59.237813 
L 481.025313 59.237813 
L 481.025313 49.437813 
L 453.025313 49.437813 
z
" style="fill:#ff6384;opacity:0.5;stroke:#ff6384;stroke-linejoin:miter;"/>
    </g>
    <g id="text_1">
     <!-- base -->
     <defs>
      <path d="M 48.6875 27.296875 
Q 48.6875 37.203125 44.609375 42.84375 
Q 40.53125 48.484375 33.40625 48.484375 
Q 26.265625 48.484375 22.1875 42.84375 
Q 18.109375 37.203125 18.109375 27.296875 
Q 18.109375 17.390625 22.1875 11.75 
Q 26.265625 6.109375 33.40625 6.109375 
Q 40.53125 6.109375 44.609375 11.75 
Q 48.6875 17.390625 48.6875 27.296875 
z
M 18.109375 46.390625 
Q 20.953125 51.265625 25.265625 53.625 
Q 29.59375 56 35.59375 56 
Q 45.5625 56 51.78125 48.09375 
Q 58.015625 40.1875 58.015625 27.296875 
Q 58.015625 14.40625 51.78125 6.484375 
Q 45.5625 -1.421875 35.59375 -1.421875 
Q 29.59375 -1.421875 25.265625 0.953125 
Q 20.953125 3.328125 18.109375 8.203125 
L 18.109375 0 
L 9.078125 0 
L 9.078125 75.984375 
L 18.109375 75.984375 
z
" id="DejaVuSans-98"/>
      <path d="M 34.28125 27.484375 
Q 23.390625 27.484375 19.1875 25 
Q 14.984375 22.515625 14.984375 16.5 
Q 14.984375 11.71875 18.140625 8.90625 
Q 21.296875 6.109375 26.703125 6.109375 
Q 34.1875 6.109375 38.703125 11.40625 
Q 43.21875 16.703125 43.21875 25.484375 
L 43.21875 27.484375 
z
M 52.203125 31.203125 
L 52.203125 0 
L 43.21875 0 
L 43.21875 8.296875 
Q 40.140625 3.328125 35.546875 0.953125 
Q 30.953125 -1.421875 24.3125 -1.421875 
Q 15.921875 -1.421875 10.953125 3.296875 
Q 6 8.015625 6 15.921875 
Q 6 25.140625 12.171875 29.828125 
Q 18.359375 34.515625 30.609375 34.515625 
L 43.21875 34.515625 
L 43.21875 35.40625 
Q 43.21875 41.609375 39.140625 45 
Q 35.0625 48.390625 27.6875 48.390625 
Q 23 48.390625 18.546875 47.265625 
Q 14.109375 46.140625 10.015625 43.890625 
L 10.015625 52.203125 
Q 14.9375 54.109375 19.578125 55.046875 
Q 24.21875 56 28.609375 56 
Q 40.484375 56 46.34375 49.84375 
Q 52.203125 43.703125 52.203125 31.203125 
z
" id="DejaVuSans-97"/>
      <path d="M 44.28125 53.078125 
L 44.28125 44.578125 
Q 40.484375 46.53125 36.375 47.5 
Q 32.28125 48.484375 27.875 48.484375 
Q 21.1875 48.484375 17.84375 46.4375 
Q 14.5 44.390625 14.5 40.28125 
Q 14.5 37.15625 16.890625 35.375 
Q 19.28125 33.59375 26.515625 31.984375 
L 29.59375 31.296875 
Q 39.15625 29.25 43.1875 25.515625 
Q 47.21875 21.78125 47.21875 15.09375 
Q 47.21875 7.46875 41.1875 3.015625 
Q 35.15625 -1.421875 24.609375 -1.421875 
Q 20.21875 -1.421875 15.453125 -0.5625 
Q 10.6875 0.296875 5.421875 2 
L 5.421875 11.28125 
Q 10.40625 8.6875 15.234375 7.390625 
Q 20.0625 6.109375 24.8125 6.109375 
Q 31.15625 6.109375 34.5625 8.28125 
Q 37.984375 10.453125 37.984375 14.40625 
Q 37.984375 18.0625 35.515625 20.015625 
Q 33.0625 21.96875 24.703125 23.78125 
L 21.578125 24.515625 
Q 13.234375 26.265625 9.515625 29.90625 
Q 5.8125 33.546875 5.8125 39.890625 
Q 5.8125 47.609375 11.28125 51.796875 
Q 16.75 56 26.8125 56 
Q 31.78125 56 36.171875 55.265625 
Q 40.578125 54.546875 44.28125 53.078125 
z
" id="DejaVuSans-115"/>
      <path d="M 56.203125 29.59375 
L 56.203125 25.203125 
L 14.890625 25.203125 
Q 15.484375 15.921875 20.484375 11.0625 
Q 25.484375 6.203125 34.421875 6.203125 
Q 39.59375 6.203125 44.453125 7.46875 
Q 49.3125 8.734375 54.109375 11.28125 
L 54.109375 2.78125 
Q 49.265625 0.734375 44.1875 -0.34375 
Q 39.109375 -1.421875 33.890625 -1.421875 
Q 20.796875 -1.421875 13.15625 6.1875 
Q 5.515625 13.8125 5.515625 26.8125 
Q 5.515625 40.234375 12.765625 48.109375 
Q 20.015625 56 32.328125 56 
Q 43.359375 56 49.78125 48.890625 
Q 56.203125 41.796875 56.203125 29.59375 
z
M 47.21875 32.234375 
Q 47.125 39.59375 43.09375 43.984375 
Q 39.0625 48.390625 32.421875 48.390625 
Q 24.90625 48.390625 20.390625 44.140625 
Q 15.875 39.890625 15.1875 32.171875 
z
" id="DejaVuSans-101"/>
     </defs>
     <g transform="translate(492.225313 59.237813)scale(0.14 -0.14)">
      <use xlink:href="#DejaVuSans-98"/>
      <use x="63.476562" xlink:href="#DejaVuSans-97"/>
      <use x="124.755859" xlink:href="#DejaVuSans-115"/>
      <use x="176.855469" xlink:href="#DejaVuSans-101"/>
     </g>
    </g>
    <g id="patch_6">
     <path d="M 453.025313 79.787188 
L 481.025313 79.787188 
L 481.025313 69.987188 
L 453.025313 69.987188 
z
" style="fill:#36a2eb;opacity:0.5;stroke:#36a2eb;stroke-linejoin:miter;"/>
    </g>
    <g id="text_2">
     <!-- new -->
     <defs>
      <path d="M 54.890625 33.015625 
L 54.890625 0 
L 45.90625 0 
L 45.90625 32.71875 
Q 45.90625 40.484375 42.875 44.328125 
Q 39.84375 48.1875 33.796875 48.1875 
Q 26.515625 48.1875 22.3125 43.546875 
Q 18.109375 38.921875 18.109375 30.90625 
L 18.109375 0 
L 9.078125 0 
L 9.078125 54.6875 
L 18.109375 54.6875 
L 18.109375 46.1875 
Q 21.34375 51.125 25.703125 53.5625 
Q 30.078125 56 35.796875 56 
Q 45.21875 56 50.046875 50.171875 
Q 54.890625 44.34375 54.890625 33.015625 
z
" id="DejaVuSans-110"/>
      <path d="M 4.203125 54.6875 
L 13.1875 54.6875 
L 24.421875 12.015625 
L 35.59375 54.6875 
L 46.1875 54.6875 
L 57.421875 12.015625 
L 68.609375 54.6875 
L 77.59375 54.6875 
L 63.28125 0 
L 52.6875 0 
L 40.921875 44.828125 
L 29.109375 0 
L 18.5 0 
z
" id="DejaVuSans-119"/>
     </defs>
     <g transform="translate(492.225313 79.787188)scale(0.14 -0.14)">
      <use xlink:href="#DejaVuSans-110"/>
      <use x="63.378906" xlink:href="#DejaVuSans-101"/>
      <use x="124.902344" xlink:href="#DejaVuSans-119"/>
     </g>
    </g>
   </g>
  </g>
  <g id="axes_2">
   <g id="patch_7">
    <path d="M 36 525.24 
L 538.2 525.24 
L 538.2 402.93 
L 36 402.93 
z
" style="fill:none;"/>
   </g>
   <g id="patch_8">
    <path clip-path="url(#p2ade85c0fa)" d="M 182.594062 519.680455 
L 401.46862 519.680455 
L 401.46862 482.616818 
L 182.594062 482.616818 
z
" style="fill:#ff6384;opacity:0.5;"/>
   </g>
   <g id="patch_9">
    <path clip-path="url(#p2ade85c0fa)" d="M 160.853789 445.553182 
L 356.904743 445.553182 
L 356.904743 408.489545 
L 160.853789 408.489545 
z
" style="fill:#36a2eb;opacity:0.5;"/>
   </g>
   <g id="matplotlib.axis_1">
    <g id="xtick_1">
     <g id="line2d_3">
      <defs>
       <path d="M 0 0 
L 0 3.5 
" id="md7a968ee48" style="stroke:#000000;stroke-width:0.8;"/>
      </defs>
      <g>
       <use style="stroke:#000000;stroke-width:0.8;" x="99.433572" xlink:href="#md7a968ee48" y="525.24"/>
      </g>
     </g>
     <g id="text_3">
      <!-- 2.5 -->
      <defs>
       <path d="M 19.1875 8.296875 
L 53.609375 8.296875 
L 53.609375 0 
L 7.328125 0 
L 7.328125 8.296875 
Q 12.9375 14.109375 22.625 23.890625 
Q 32.328125 33.6875 34.8125 36.53125 
Q 39.546875 41.84375 41.421875 45.53125 
Q 43.3125 49.21875 43.3125 52.78125 
Q 43.3125 58.59375 39.234375 62.25 
Q 35.15625 65.921875 28.609375 65.921875 
Q 23.96875 65.921875 18.8125 64.3125 
Q 13.671875 62.703125 7.8125 59.421875 
L 7.8125 69.390625 
Q 13.765625 71.78125 18.9375 73 
Q 24.125 74.21875 28.421875 74.21875 
Q 39.75 74.21875 46.484375 68.546875 
Q 53.21875 62.890625 53.21875 53.421875 
Q 53.21875 48.921875 51.53125 44.890625 
Q 49.859375 40.875 45.40625 35.40625 
Q 44.1875 33.984375 37.640625 27.21875 
Q 31.109375 20.453125 19.1875 8.296875 
z
" id="DejaVuSans-50"/>
       <path d="M 10.6875 12.40625 
L 21 12.40625 
L 21 0 
L 10.6875 0 
z
" id="DejaVuSans-46"/>
       <path d="M 10.796875 72.90625 
L 49.515625 72.90625 
L 49.515625 64.59375 
L 19.828125 64.59375 
L 19.828125 46.734375 
Q 21.96875 47.46875 24.109375 47.828125 
Q 26.265625 48.1875 28.421875 48.1875 
Q 40.625 48.1875 47.75 41.5 
Q 54.890625 34.8125 54.890625 23.390625 
Q 54.890625 11.625 47.5625 5.09375 
Q 40.234375 -1.421875 26.90625 -1.421875 
Q 22.3125 -1.421875 17.546875 -0.640625 
Q 12.796875 0.140625 7.71875 1.703125 
L 7.71875 11.625 
Q 12.109375 9.234375 16.796875 8.0625 
Q 21.484375 6.890625 26.703125 6.890625 
Q 35.15625 6.890625 40.078125 11.328125 
Q 45.015625 15.765625 45.015625 23.390625 
Q 45.015625 31 40.078125 35.4375 
Q 35.15625 39.890625 26.703125 39.890625 
Q 22.75 39.890625 18.8125 39.015625 
Q 14.890625 38.140625 10.796875 36.28125 
z
" id="DejaVuSans-53"/>
      </defs>
      <g transform="translate(88.301384 542.877813)scale(0.14 -0.14)">
       <use xlink:href="#DejaVuSans-50"/>
       <use x="63.623047" xlink:href="#DejaVuSans-46"/>
       <use x="95.410156" xlink:href="#DejaVuSans-53"/>
      </g>
     </g>
    </g>
    <g id="xtick_2">
     <g id="line2d_4">
      <g>
       <use style="stroke:#000000;stroke-width:0.8;" x="178.367084" xlink:href="#md7a968ee48" y="525.24"/>
      </g>
     </g>
     <g id="text_4">
      <!-- 3.0 -->
      <defs>
       <path d="M 40.578125 39.3125 
Q 47.65625 37.796875 51.625 33 
Q 55.609375 28.21875 55.609375 21.1875 
Q 55.609375 10.40625 48.1875 4.484375 
Q 40.765625 -1.421875 27.09375 -1.421875 
Q 22.515625 -1.421875 17.65625 -0.515625 
Q 12.796875 0.390625 7.625 2.203125 
L 7.625 11.71875 
Q 11.71875 9.328125 16.59375 8.109375 
Q 21.484375 6.890625 26.8125 6.890625 
Q 36.078125 6.890625 40.9375 10.546875 
Q 45.796875 14.203125 45.796875 21.1875 
Q 45.796875 27.640625 41.28125 31.265625 
Q 36.765625 34.90625 28.71875 34.90625 
L 20.21875 34.90625 
L 20.21875 43.015625 
L 29.109375 43.015625 
Q 36.375 43.015625 40.234375 45.921875 
Q 44.09375 48.828125 44.09375 54.296875 
Q 44.09375 59.90625 40.109375 62.90625 
Q 36.140625 65.921875 28.71875 65.921875 
Q 24.65625 65.921875 20.015625 65.03125 
Q 15.375 64.15625 9.8125 62.3125 
L 9.8125 71.09375 
Q 15.4375 72.65625 20.34375 73.4375 
Q 25.25 74.21875 29.59375 74.21875 
Q 40.828125 74.21875 47.359375 69.109375 
Q 53.90625 64.015625 53.90625 55.328125 
Q 53.90625 49.265625 50.4375 45.09375 
Q 46.96875 40.921875 40.578125 39.3125 
z
" id="DejaVuSans-51"/>
       <path d="M 31.78125 66.40625 
Q 24.171875 66.40625 20.328125 58.90625 
Q 16.5 51.421875 16.5 36.375 
Q 16.5 21.390625 20.328125 13.890625 
Q 24.171875 6.390625 31.78125 6.390625 
Q 39.453125 6.390625 43.28125 13.890625 
Q 47.125 21.390625 47.125 36.375 
Q 47.125 51.421875 43.28125 58.90625 
Q 39.453125 66.40625 31.78125 66.40625 
z
M 31.78125 74.21875 
Q 44.046875 74.21875 50.515625 64.515625 
Q 56.984375 54.828125 56.984375 36.375 
Q 56.984375 17.96875 50.515625 8.265625 
Q 44.046875 -1.421875 31.78125 -1.421875 
Q 19.53125 -1.421875 13.0625 8.265625 
Q 6.59375 17.96875 6.59375 36.375 
Q 6.59375 54.828125 13.0625 64.515625 
Q 19.53125 74.21875 31.78125 74.21875 
z
" id="DejaVuSans-48"/>
      </defs>
      <g transform="translate(167.234896 542.877813)scale(0.14 -0.14)">
       <use xlink:href="#DejaVuSans-51"/>
       <use x="63.623047" xlink:href="#DejaVuSans-46"/>
       <use x="95.410156" xlink:href="#DejaVuSans-48"/>
      </g>
     </g>
    </g>
    <g id="xtick_3">
     <g id="line2d_5">
      <g>
       <use style="stroke:#000000;stroke-width:0.8;" x="257.300596" xlink:href="#md7a968ee48" y="525.24"/>
      </g>
     </g>
     <g id="text_5">
      <!-- 3.5 -->
      <g transform="translate(246.168408 542.877813)scale(0.14 -0.14)">
       <use xlink:href="#DejaVuSans-51"/>
       <use x="63.623047" xlink:href="#DejaVuSans-46"/>
       <use x="95.410156" xlink:href="#DejaVuSans-53"/>
      </g>
     </g>
    </g>
    <g id="xtick_4">
     <g id="line2d_6">
      <g>
       <use style="stroke:#000000;stroke-width:0.8;" x="336.234108" xlink:href="#md7a968ee48" y="525.24"/>
      </g>
     </g>
     <g id="text_6">
      <!-- 4.0 -->
      <defs>
       <path d="M 37.796875 64.3125 
L 12.890625 25.390625 
L 37.796875 25.390625 
z
M 35.203125 72.90625 
L 47.609375 72.90625 
L 47.609375 25.390625 
L 58.015625 25.390625 
L 58.015625 17.1875 
L 47.609375 17.1875 
L 47.609375 0 
L 37.796875 0 
L 37.796875 17.1875 
L 4.890625 17.1875 
L 4.890625 26.703125 
z
" id="DejaVuSans-52"/>
      </defs>
      <g transform="translate(325.10192 542.877813)scale(0.14 -0.14)">
       <use xlink:href="#DejaVuSans-52"/>
       <use x="63.623047" xlink:href="#DejaVuSans-46"/>
       <use x="95.410156" xlink:href="#DejaVuSans-48"/>
      </g>
     </g>
    </g>
    <g id="xtick_5">
     <g id="line2d_7">
      <g>
       <use style="stroke:#000000;stroke-width:0.8;" x="415.16762" xlink:href="#md7a968ee48" y="525.24"/>
      </g>
     </g>
     <g id="text_7">
      <!-- 4.5 -->
      <g transform="translate(404.035432 542.877813)scale(0.14 -0.14)">
       <use xlink:href="#DejaVuSans-52"/>
       <use x="63.623047" xlink:href="#DejaVuSans-46"/>
       <use x="95.410156" xlink:href="#DejaVuSans-53"/>
      </g>
     </g>
    </g>
    <g id="xtick_6">
     <g id="line2d_8">
      <g>
       <use style="stroke:#000000;stroke-width:0.8;" x="494.101132" xlink:href="#md7a968ee48" y="525.24"/>
      </g>
     </g>
     <g id="text_8">
      <!-- 5.0 -->
      <g transform="translate(482.968944 542.877813)scale(0.14 -0.14)">
       <use xlink:href="#DejaVuSans-53"/>
       <use x="63.623047" xlink:href="#DejaVuSans-46"/>
       <use x="95.410156" xlink:href="#DejaVuSans-48"/>
      </g>
     </g>
    </g>
   </g>
   <g id="line2d_9">
    <path clip-path="url(#p2ade85c0fa)" d="M 292.031341 525.24 
L 292.031341 402.93 
" style="fill:none;stroke:#ff6384;stroke-dasharray:5.55,2.4;stroke-dashoffset:0;stroke-opacity:0.8;stroke-width:1.5;"/>
   </g>
   <g id="line2d_10">
    <path clip-path="url(#p2ade85c0fa)" d="M 258.879266 525.24 
L 258.879266 402.93 
" style="fill:none;stroke:#36a2eb;stroke-dasharray:5.55,2.4;stroke-dashoffset:0;stroke-opacity:0.8;stroke-width:1.5;"/>
   </g>
   <g id="patch_10">
    <path d="M 36 525.24 
L 538.2 525.24 
" style="fill:none;stroke:#000000;stroke-linecap:square;stroke-linejoin:miter;stroke-width:0.8;"/>
   </g>
  </g>
 </g>
 <defs>
  <clipPath id="p13a7519cf9">
   <rect height="366.93" width="502.2" x="36" y="36"/>
  </clipPath>
  <clipPath id="p2ade85c0fa">
   <rect height="122.31" width="502.2" x="36" y="402.93"/>
  </clipPath>
 </defs>
</svg>
