<?xml version="1.0" encoding="utf-8" standalone="no"?>
<!DOCTYPE svg PUBLIC "-//W3C//DTD SVG 1.1//EN"
  "http://www.w3.org/Graphics/SVG/1.1/DTD/svg11.dtd">
<!-- Created with matplotlib (https://matplotlib.org/) -->
<svg height="581.789375pt" version="1.1" viewBox="0 0 574.2 581.789375" width="574.2pt" xmlns="http://www.w3.org/2000/svg" xmlns:xlink="http://www.w3.org/1999/xlink">
 <defs>
  <style type="text/css">
*{stroke-linecap:butt;stroke-linejoin:round;}
  </style>
 </defs>
 <g id="figure_1">
  <g id="patch_1">
   <path d="M 0 581.789375 
L 574.2 581.789375 
L 574.2 0 
L 0 0 
z
" style="fill:none;"/>
  </g>
  <g id="axes_1">
   <g id="patch_2">
    <path d="M 36 402.93 
L 538.2 402.93 
L 538.2 36 
L 36 36 
z
" style="fill:none;"/>
   </g>
   <g id="PolyCollection_1">
    <defs>
     <path d="M 59.856638 -195.538011 
L 59.856638 -195.639196 
L 64.457811 -195.677351 
L 69.058984 -195.728644 
L 73.660156 -195.797123 
L 78.261329 -195.887907 
L 82.862502 -196.007424 
L 87.463674 -196.163667 
L 92.064847 -196.366488 
L 96.666019 -196.627917 
L 101.267192 -196.962508 
L 105.868365 -197.387698 
L 110.469537 -197.924169 
L 115.07071 -198.596198 
L 119.671882 -199.431985 
L 124.273055 -200.463917 
L 128.874228 -201.728762 
L 133.4754 -203.267746 
L 138.076573 -205.126494 
L 142.677746 -207.354796 
L 147.278918 -210.006156 
L 151.880091 -213.13711 
L 156.481263 -216.806277 
L 161.082436 -221.073127 
L 165.683609 -225.996451 
L 170.284781 -231.632555 
L 174.885954 -238.033179 
L 179.487126 -245.243187 
L 184.088299 -253.298088 
L 188.689472 -262.22145 
L 193.290644 -272.022312 
L 197.891817 -282.692687 
L 202.49299 -294.205292 
L 207.094162 -306.51162 
L 211.695335 -319.540483 
L 216.296507 -333.197151 
L 220.89768 -347.363205 
L 225.498853 -361.897171 
L 230.100025 -376.636018 
L 234.701198 -391.39754 
L 239.30237 -405.983596 
L 243.903543 -420.184179 
L 248.504716 -433.782185 
L 253.105888 -446.558774 
L 257.707061 -458.299117 
L 262.308234 -468.798347 
L 266.909406 -477.86747 
L 271.510579 -485.339007 
L 276.111751 -491.072134 
L 280.712924 -494.957091 
L 285.314097 -496.918679 
L 289.915269 -496.918679 
L 294.516442 -494.957091 
L 299.117614 -491.072134 
L 303.718787 -485.339007 
L 308.31996 -477.86747 
L 312.921132 -468.798347 
L 317.522305 -458.299117 
L 322.123477 -446.558774 
L 326.72465 -433.782185 
L 331.325823 -420.184179 
L 335.926995 -405.983596 
L 340.528168 -391.39754 
L 345.129341 -376.636018 
L 349.730513 -361.897171 
L 354.331686 -347.363205 
L 358.932858 -333.197151 
L 363.534031 -319.540483 
L 368.135204 -306.51162 
L 372.736376 -294.205292 
L 377.337549 -282.692687 
L 381.938721 -272.022312 
L 386.539894 -262.22145 
L 391.141067 -253.298088 
L 395.742239 -245.243187 
L 400.343412 -238.033179 
L 404.944585 -231.632555 
L 409.545757 -225.996451 
L 414.14693 -221.073127 
L 418.748102 -216.806277 
L 423.349275 -213.13711 
L 427.950448 -210.006156 
L 432.55162 -207.354796 
L 437.152793 -205.126494 
L 441.753965 -203.267746 
L 446.355138 -201.728762 
L 450.956311 -200.463917 
L 455.557483 -199.431985 
L 460.158656 -198.596198 
L 464.759829 -197.924169 
L 469.361001 -197.387698 
L 473.962174 -196.962508 
L 478.563346 -196.627917 
L 483.164519 -196.366488 
L 487.765692 -196.163667 
L 492.366864 -196.007424 
L 496.968037 -195.887907 
L 501.569209 -195.797123 
L 506.170382 -195.728644 
L 510.771555 -195.677351 
L 515.372727 -195.639196 
L 515.372727 -195.538011 
L 515.372727 -195.538011 
L 510.771555 -195.538011 
L 506.170382 -195.538011 
L 501.569209 -195.538011 
L 496.968037 -195.538011 
L 492.366864 -195.538011 
L 487.765692 -195.538011 
L 483.164519 -195.538011 
L 478.563346 -195.538011 
L 473.962174 -195.538011 
L 469.361001 -195.538011 
L 464.759829 -195.538011 
L 460.158656 -195.538011 
L 455.557483 -195.538011 
L 450.956311 -195.538011 
L 446.355138 -195.538011 
L 441.753965 -195.538011 
L 437.152793 -195.538011 
L 432.55162 -195.538011 
L 427.950448 -195.538011 
L 423.349275 -195.538011 
L 418.748102 -195.538011 
L 414.14693 -195.538011 
L 409.545757 -195.538011 
L 404.944585 -195.538011 
L 400.343412 -195.538011 
L 395.742239 -195.538011 
L 391.141067 -195.538011 
L 386.539894 -195.538011 
L 381.938721 -195.538011 
L 377.337549 -195.538011 
L 372.736376 -195.538011 
L 368.135204 -195.538011 
L 363.534031 -195.538011 
L 358.932858 -195.538011 
L 354.331686 -195.538011 
L 349.730513 -195.538011 
L 345.129341 -195.538011 
L 340.528168 -195.538011 
L 335.926995 -195.538011 
L 331.325823 -195.538011 
L 326.72465 -195.538011 
L 322.123477 -195.538011 
L 317.522305 -195.538011 
L 312.921132 -195.538011 
L 308.31996 -195.538011 
L 303.718787 -195.538011 
L 299.117614 -195.538011 
L 294.516442 -195.538011 
L 289.915269 -195.538011 
L 285.314097 -195.538011 
L 280.712924 -195.538011 
L 276.111751 -195.538011 
L 271.510579 -195.538011 
L 266.909406 -195.538011 
L 262.308234 -195.538011 
L 257.707061 -195.538011 
L 253.105888 -195.538011 
L 248.504716 -195.538011 
L 243.903543 -195.538011 
L 239.30237 -195.538011 
L 234.701198 -195.538011 
L 230.100025 -195.538011 
L 225.498853 -195.538011 
L 220.89768 -195.538011 
L 216.296507 -195.538011 
L 211.695335 -195.538011 
L 207.094162 -195.538011 
L 202.49299 -195.538011 
L 197.891817 -195.538011 
L 193.290644 -195.538011 
L 188.689472 -195.538011 
L 184.088299 -195.538011 
L 179.487126 -195.538011 
L 174.885954 -195.538011 
L 170.284781 -195.538011 
L 165.683609 -195.538011 
L 161.082436 -195.538011 
L 156.481263 -195.538011 
L 151.880091 -195.538011 
L 147.278918 -195.538011 
L 142.677746 -195.538011 
L 138.076573 -195.538011 
L 133.4754 -195.538011 
L 128.874228 -195.538011 
L 124.273055 -195.538011 
L 119.671882 -195.538011 
L 115.07071 -195.538011 
L 110.469537 -195.538011 
L 105.868365 -195.538011 
L 101.267192 -195.538011 
L 96.666019 -195.538011 
L 92.064847 -195.538011 
L 87.463674 -195.538011 
L 82.862502 -195.538011 
L 78.261329 -195.538011 
L 73.660156 -195.538011 
L 69.058984 -195.538011 
L 64.457811 -195.538011 
L 59.856638 -195.538011 
z
" id="m7dcccd4eda" style="stroke:#ff6384;stroke-opacity:0.5;"/>
    </defs>
    <g clip-path="url(#p33d2ae68b3)">
     <use style="fill:#ff6384;fill-opacity:0.5;stroke:#ff6384;stroke-opacity:0.5;" x="0" xlink:href="#m7dcccd4eda" y="581.789375"/>
    </g>
   </g>
   <g id="PolyCollection_2">
    <defs>
     <path d="M 58.827273 -195.538011 
L 58.827273 -195.650004 
L 62.984401 -195.692234 
L 67.141528 -195.749007 
L 71.298656 -195.8248 
L 75.455784 -195.925281 
L 79.612912 -196.057565 
L 83.77004 -196.230497 
L 87.927168 -196.454982 
L 92.084295 -196.744335 
L 96.241423 -197.114666 
L 100.398551 -197.585273 
L 104.555679 -198.179047 
L 108.712807 -198.922859 
L 112.869935 -199.847921 
L 117.027063 -200.990079 
L 121.18419 -202.390029 
L 125.341318 -204.093399 
L 129.498446 -206.150691 
L 133.655574 -208.617009 
L 137.812702 -211.551575 
L 141.96983 -215.016962 
L 146.126957 -219.078053 
L 150.284085 -223.800667 
L 154.441213 -229.249878 
L 158.598341 -235.488004 
L 162.755469 -242.572312 
L 166.912597 -250.552459 
L 171.069725 -259.467747 
L 175.226852 -269.344261 
L 179.38398 -280.192004 
L 183.541108 -292.002137 
L 187.698236 -304.744465 
L 191.855364 -318.365297 
L 196.012492 -332.785841 
L 200.169619 -347.901251 
L 204.326747 -363.580456 
L 208.483875 -379.666871 
L 212.641003 -395.980052 
L 216.798131 -412.31833 
L 220.955259 -428.4624 
L 225.112387 -444.179822 
L 229.269514 -459.230303 
L 233.426642 -473.371627 
L 237.58377 -486.366018 
L 241.740898 -497.986726 
L 245.898026 -508.02457 
L 250.055154 -516.294181 
L 254.212281 -522.639693 
L 258.369409 -526.939623 
L 262.526537 -529.110739 
L 266.683665 -529.110739 
L 270.840793 -526.939623 
L 274.997921 -522.639693 
L 279.155049 -516.294181 
L 283.312176 -508.02457 
L 287.469304 -497.986726 
L 291.626432 -486.366018 
L 295.78356 -473.371627 
L 299.940688 -459.230303 
L 304.097816 -444.179822 
L 308.254943 -428.4624 
L 312.412071 -412.31833 
L 316.569199 -395.980052 
L 320.726327 -379.666871 
L 324.883455 -363.580456 
L 329.040583 -347.901251 
L 333.197711 -332.785841 
L 337.354838 -318.365297 
L 341.511966 -304.744465 
L 345.669094 -292.002137 
L 349.826222 -280.192004 
L 353.98335 -269.344261 
L 358.140478 -259.467747 
L 362.297605 -250.552459 
L 366.454733 -242.572312 
L 370.611861 -235.488004 
L 374.768989 -229.249878 
L 378.926117 -223.800667 
L 383.083245 -219.078053 
L 387.240373 -215.016962 
L 391.3975 -211.551575 
L 395.554628 -208.617009 
L 399.711756 -206.150691 
L 403.868884 -204.093399 
L 408.026012 -202.390029 
L 412.18314 -200.990079 
L 416.340267 -199.847921 
L 420.497395 -198.922859 
L 424.654523 -198.179047 
L 428.811651 -197.585273 
L 432.968779 -197.114666 
L 437.125907 -196.744335 
L 441.283035 -196.454982 
L 445.440162 -196.230497 
L 449.59729 -196.057565 
L 453.754418 -195.925281 
L 457.911546 -195.8248 
L 462.068674 -195.749007 
L 466.225802 -195.692234 
L 470.382929 -195.650004 
L 470.382929 -195.538011 
L 470.382929 -195.538011 
L 466.225802 -195.538011 
L 462.068674 -195.538011 
L 457.911546 -195.538011 
L 453.754418 -195.538011 
L 449.59729 -195.538011 
L 445.440162 -195.538011 
L 441.283035 -195.538011 
L 437.125907 -195.538011 
L 432.968779 -195.538011 
L 428.811651 -195.538011 
L 424.654523 -195.538011 
L 420.497395 -195.538011 
L 416.340267 -195.538011 
L 412.18314 -195.538011 
L 408.026012 -195.538011 
L 403.868884 -195.538011 
L 399.711756 -195.538011 
L 395.554628 -195.538011 
L 391.3975 -195.538011 
L 387.240373 -195.538011 
L 383.083245 -195.538011 
L 378.926117 -195.538011 
L 374.768989 -195.538011 
L 370.611861 -195.538011 
L 366.454733 -195.538011 
L 362.297605 -195.538011 
L 358.140478 -195.538011 
L 353.98335 -195.538011 
L 349.826222 -195.538011 
L 345.669094 -195.538011 
L 341.511966 -195.538011 
L 337.354838 -195.538011 
L 333.197711 -195.538011 
L 329.040583 -195.538011 
L 324.883455 -195.538011 
L 320.726327 -195.538011 
L 316.569199 -195.538011 
L 312.412071 -195.538011 
L 308.254943 -195.538011 
L 304.097816 -195.538011 
L 299.940688 -195.538011 
L 295.78356 -195.538011 
L 291.626432 -195.538011 
L 287.469304 -195.538011 
L 283.312176 -195.538011 
L 279.155049 -195.538011 
L 274.997921 -195.538011 
L 270.840793 -195.538011 
L 266.683665 -195.538011 
L 262.526537 -195.538011 
L 258.369409 -195.538011 
L 254.212281 -195.538011 
L 250.055154 -195.538011 
L 245.898026 -195.538011 
L 241.740898 -195.538011 
L 237.58377 -195.538011 
L 233.426642 -195.538011 
L 229.269514 -195.538011 
L 225.112387 -195.538011 
L 220.955259 -195.538011 
L 216.798131 -195.538011 
L 212.641003 -195.538011 
L 208.483875 -195.538011 
L 204.326747 -195.538011 
L 200.169619 -195.538011 
L 196.012492 -195.538011 
L 191.855364 -195.538011 
L 187.698236 -195.538011 
L 183.541108 -195.538011 
L 179.38398 -195.538011 
L 175.226852 -195.538011 
L 171.069725 -195.538011 
L 166.912597 -195.538011 
L 162.755469 -195.538011 
L 158.598341 -195.538011 
L 154.441213 -195.538011 
L 150.284085 -195.538011 
L 146.126957 -195.538011 
L 141.96983 -195.538011 
L 137.812702 -195.538011 
L 133.655574 -195.538011 
L 129.498446 -195.538011 
L 125.341318 -195.538011 
L 121.18419 -195.538011 
L 117.027063 -195.538011 
L 112.869935 -195.538011 
L 108.712807 -195.538011 
L 104.555679 -195.538011 
L 100.398551 -195.538011 
L 96.241423 -195.538011 
L 92.084295 -195.538011 
L 87.927168 -195.538011 
L 83.77004 -195.538011 
L 79.612912 -195.538011 
L 75.455784 -195.538011 
L 71.298656 -195.538011 
L 67.141528 -195.538011 
L 62.984401 -195.538011 
L 58.827273 -195.538011 
z
" id="mb2f7d413d2" style="stroke:#36a2eb;stroke-opacity:0.5;"/>
    </defs>
    <g clip-path="url(#p33d2ae68b3)">
     <use style="fill:#36a2eb;fill-opacity:0.5;stroke:#36a2eb;stroke-opacity:0.5;" x="0" xlink:href="#mb2f7d413d2" y="581.789375"/>
    </g>
   </g>
   <g id="line2d_1">
    <path clip-path="url(#p33d2ae68b3)" d="M 59.856638 386.150179 
L 64.457811 386.112024 
L 69.058984 386.060731 
L 73.660156 385.992252 
L 78.261329 385.901468 
L 82.862502 385.781951 
L 87.463674 385.625708 
L 92.064847 385.422887 
L 96.666019 385.161458 
L 101.267192 384.826867 
L 105.868365 384.401677 
L 110.469537 383.865206 
L 115.07071 383.193177 
L 119.671882 382.35739 
L 124.273055 381.325458 
L 128.874228 380.060613 
L 133.4754 378.521629 
L 138.076573 376.662881 
L 142.677746 374.434579 
L 147.278918 371.783219 
L 151.880091 368.652265 
L 156.481263 364.983098 
L 161.082436 360.716248 
L 165.683609 355.792924 
L 170.284781 350.15682 
L 174.885954 343.756196 
L 179.487126 336.546188 
L 184.088299 328.491287 
L 188.689472 319.567925 
L 193.290644 309.767063 
L 197.891817 299.096688 
L 202.49299 287.584083 
L 207.094162 275.277755 
L 211.695335 262.248892 
L 216.296507 248.592224 
L 220.89768 234.42617 
L 225.498853 219.892204 
L 230.100025 205.153357 
L 234.701198 190.391835 
L 239.30237 175.805779 
L 243.903543 161.605196 
L 248.504716 148.00719 
L 253.105888 135.230601 
L 257.707061 123.490258 
L 262.308234 112.991028 
L 266.909406 103.921905 
L 271.510579 96.450368 
L 276.111751 90.717241 
L 280.712924 86.832284 
L 285.314097 84.870696 
L 289.915269 84.870696 
L 294.516442 86.832284 
L 299.117614 90.717241 
L 303.718787 96.450368 
L 308.31996 103.921905 
L 312.921132 112.991028 
L 317.522305 123.490258 
L 322.123477 135.230601 
L 326.72465 148.00719 
L 331.325823 161.605196 
L 335.926995 175.805779 
L 340.528168 190.391835 
L 345.129341 205.153357 
L 349.730513 219.892204 
L 354.331686 234.42617 
L 358.932858 248.592224 
L 363.534031 262.248892 
L 368.135204 275.277755 
L 372.736376 287.584083 
L 377.337549 299.096688 
L 381.938721 309.767063 
L 386.539894 319.567925 
L 391.141067 328.491287 
L 395.742239 336.546188 
L 400.343412 343.756196 
L 404.944585 350.15682 
L 409.545757 355.792924 
L 414.14693 360.716248 
L 418.748102 364.983098 
L 423.349275 368.652265 
L 427.950448 371.783219 
L 432.55162 374.434579 
L 437.152793 376.662881 
L 441.753965 378.521629 
L 446.355138 380.060613 
L 450.956311 381.325458 
L 455.557483 382.35739 
L 460.158656 383.193177 
L 464.759829 383.865206 
L 469.361001 384.401677 
L 473.962174 384.826867 
L 478.563346 385.161458 
L 483.164519 385.422887 
L 487.765692 385.625708 
L 492.366864 385.781951 
L 496.968037 385.901468 
L 501.569209 385.992252 
L 506.170382 386.060731 
L 510.771555 386.112024 
L 515.372727 386.150179 
" style="fill:none;stroke:#ff6384;stroke-linecap:square;"/>
   </g>
   <g id="line2d_2">
    <path clip-path="url(#p33d2ae68b3)" d="M 58.827273 386.139371 
L 62.984401 386.097141 
L 67.141528 386.040368 
L 71.298656 385.964575 
L 75.455784 385.864094 
L 79.612912 385.73181 
L 83.77004 385.558878 
L 87.927168 385.334393 
L 92.084295 385.04504 
L 96.241423 384.674709 
L 100.398551 384.204102 
L 104.555679 383.610328 
L 108.712807 382.866516 
L 112.869935 381.941454 
L 117.027063 380.799296 
L 121.18419 379.399346 
L 125.341318 377.695976 
L 129.498446 375.638684 
L 133.655574 373.172366 
L 137.812702 370.2378 
L 141.96983 366.772413 
L 146.126957 362.711322 
L 150.284085 357.988708 
L 154.441213 352.539497 
L 158.598341 346.301371 
L 162.755469 339.217063 
L 166.912597 331.236916 
L 171.069725 322.321628 
L 175.226852 312.445114 
L 179.38398 301.597371 
L 183.541108 289.787238 
L 187.698236 277.04491 
L 191.855364 263.424078 
L 196.012492 249.003534 
L 200.169619 233.888124 
L 204.326747 218.208919 
L 208.483875 202.122504 
L 212.641003 185.809323 
L 216.798131 169.471045 
L 220.955259 153.326975 
L 225.112387 137.609553 
L 229.269514 122.559072 
L 233.426642 108.417748 
L 237.58377 95.423357 
L 241.740898 83.802649 
L 245.898026 73.764805 
L 250.055154 65.495194 
L 254.212281 59.149682 
L 258.369409 54.849752 
L 262.526537 52.678636 
L 266.683665 52.678636 
L 270.840793 54.849752 
L 274.997921 59.149682 
L 279.155049 65.495194 
L 283.312176 73.764805 
L 287.469304 83.802649 
L 291.626432 95.423357 
L 295.78356 108.417748 
L 299.940688 122.559072 
L 304.097816 137.609553 
L 308.254943 153.326975 
L 312.412071 169.471045 
L 316.569199 185.809323 
L 320.726327 202.122504 
L 324.883455 218.208919 
L 329.040583 233.888124 
L 333.197711 249.003534 
L 337.354838 263.424078 
L 341.511966 277.04491 
L 345.669094 289.787238 
L 349.826222 301.597371 
L 353.98335 312.445114 
L 358.140478 322.321628 
L 362.297605 331.236916 
L 366.454733 339.217063 
L 370.611861 346.301371 
L 374.768989 352.539497 
L 378.926117 357.988708 
L 383.083245 362.711322 
L 387.240373 366.772413 
L 391.3975 370.2378 
L 395.554628 373.172366 
L 399.711756 375.638684 
L 403.868884 377.695976 
L 408.026012 379.399346 
L 412.18314 380.799296 
L 416.340267 381.941454 
L 420.497395 382.866516 
L 424.654523 383.610328 
L 428.811651 384.204102 
L 432.968779 384.674709 
L 437.125907 385.04504 
L 441.283035 385.334393 
L 445.440162 385.558878 
L 449.59729 385.73181 
L 453.754418 385.864094 
L 457.911546 385.964575 
L 462.068674 386.040368 
L 466.225802 386.097141 
L 470.382929 386.139371 
" style="fill:none;stroke:#36a2eb;stroke-linecap:square;"/>
   </g>
   <g id="patch_3">
    <path d="M 36 402.93 
L 538.2 402.93 
" style="fill:none;stroke:#000000;stroke-linecap:square;stroke-linejoin:miter;stroke-width:0.8;"/>
   </g>
   <g id="legend_1">
    <g id="patch_4">
     <path d="M 450.225313 88.29875 
L 528.4 88.29875 
Q 531.2 88.29875 531.2 85.49875 
L 531.2 45.8 
Q 531.2 43 528.4 43 
L 450.225313 43 
Q 447.425313 43 447.425313 45.8 
L 447.425313 85.49875 
Q 447.425313 88.29875 450.225313 88.29875 
z
" style="fill:#ffffff;opacity:0.8;stroke:#cccccc;stroke-linejoin:miter;"/>
    </g>
    <g id="patch_5">
     <path d="M 453.025313 59.237813 
L 481.025313 59.237813 
L 481.025313 49.437813 
L 453.025313 49.437813 
z
" style="fill:#ff6384;opacity:0.5;stroke:#ff6384;stroke-linejoin:miter;"/>
    </g>
    <g id="text_1">
     <!-- base -->
     <defs>
      <path d="M 48.6875 27.296875 
Q 48.6875 37.203125 44.609375 42.84375 
Q 40.53125 48.484375 33.40625 48.484375 
Q 26.265625 48.484375 22.1875 42.84375 
Q 18.109375 37.203125 18.109375 27.296875 
Q 18.109375 17.390625 22.1875 11.75 
Q 26.265625 6.109375 33.40625 6.109375 
Q 40.53125 6.109375 44.609375 11.75 
Q 48.6875 17.390625 48.6875 27.296875 
z
M 18.109375 46.390625 
Q 20.953125 51.265625 25.265625 53.625 
Q 29.59375 56 35.59375 56 
Q 45.5625 56 51.78125 48.09375 
Q 58.015625 40.1875 58.015625 27.296875 
Q 58.015625 14.40625 51.78125 6.484375 
Q 45.5625 -1.421875 35.59375 -1.421875 
Q 29.59375 -1.421875 25.265625 0.953125 
Q 20.953125 3.328125 18.109375 8.203125 
L 18.109375 0 
L 9.078125 0 
L 9.078125 75.984375 
L 18.109375 75.984375 
z
" id="DejaVuSans-98"/>
      <path d="M 34.28125 27.484375 
Q 23.390625 27.484375 19.1875 25 
Q 14.984375 22.515625 14.984375 16.5 
Q 14.984375 11.71875 18.140625 8.90625 
Q 21.296875 6.109375 26.703125 6.109375 
Q 34.1875 6.109375 38.703125 11.40625 
Q 43.21875 16.703125 43.21875 25.484375 
L 43.21875 27.484375 
z
M 52.203125 31.203125 
L 52.203125 0 
L 43.21875 0 
L 43.21875 8.296875 
Q 40.140625 3.328125 35.546875 0.953125 
Q 30.953125 -1.421875 24.3125 -1.421875 
Q 15.921875 -1.421875 10.953125 3.296875 
Q 6 8.015625 6 15.921875 
Q 6 25.140625 12.171875 29.828125 
Q 18.359375 34.515625 30.609375 34.515625 
L 43.21875 34.515625 
L 43.21875 35.40625 
Q 43.21875 41.609375 39.140625 45 
Q 35.0625 48.390625 27.6875 48.390625 
Q 23 48.390625 18.546875 47.265625 
Q 14.109375 46.140625 10.015625 43.890625 
L 10.015625 52.203125 
Q 14.9375 54.109375 19.578125 55.046875 
Q 24.21875 56 28.609375 56 
Q 40.484375 56 46.34375 49.84375 
Q 52.203125 43.703125 52.203125 31.203125 
z
" id="DejaVuSans-97"/>
      <path d="M 44.28125 53.078125 
L 44.28125 44.578125 
Q 40.484375 46.53125 36.375 47.5 
Q 32.28125 48.484375 27.875 48.484375 
Q 21.1875 48.484375 17.84375 46.4375 
Q 14.5 44.390625 14.5 40.28125 
Q 14.5 37.15625 16.890625 35.375 
Q 19.28125 33.59375 26.515625 31.984375 
L 29.59375 31.296875 
Q 39.15625 29.25 43.1875 25.515625 
Q 47.21875 21.78125 47.21875 15.09375 
Q 47.21875 7.46875 41.1875 3.015625 
Q 35.15625 -1.421875 24.609375 -1.421875 
Q 20.21875 -1.421875 15.453125 -0.5625 
Q 10.6875 0.296875 5.421875 2 
L 5.421875 11.28125 
Q 10.40625 8.6875 15.234375 7.390625 
Q 20.0625 6.109375 24.8125 6.109375 
Q 31.15625 6.109375 34.5625 8.28125 
Q 37.984375 10.453125 37.984375 14.40625 
Q 37.984375 18.0625 35.515625 20.015625 
Q 33.0625 21.96875 24.703125 23.78125 
L 21.578125 24.515625 
Q 13.234375 26.265625 9.515625 29.90625 
Q 5.8125 33.546875 5.8125 39.890625 
Q 5.8125 47.609375 11.28125 51.796875 
Q 16.75 56 26.8125 56 
Q 31.78125 56 36.171875 55.265625 
Q 40.578125 54.546875 44.28125 53.078125 
z
" id="DejaVuSans-115"/>
      <path d="M 56.203125 29.59375 
L 56.203125 25.203125 
L 14.890625 25.203125 
Q 15.484375 15.921875 20.484375 11.0625 
Q 25.484375 6.203125 34.421875 6.203125 
Q 39.59375 6.203125 44.453125 7.46875 
Q 49.3125 8.734375 54.109375 11.28125 
L 54.109375 2.78125 
Q 49.265625 0.734375 44.1875 -0.34375 
Q 39.109375 -1.421875 33.890625 -1.421875 
Q 20.796875 -1.421875 13.15625 6.1875 
Q 5.515625 13.8125 5.515625 26.8125 
Q 5.515625 40.234375 12.765625 48.109375 
Q 20.015625 56 32.328125 56 
Q 43.359375 56 49.78125 48.890625 
Q 56.203125 41.796875 56.203125 29.59375 
z
M 47.21875 32.234375 
Q 47.125 39.59375 43.09375 43.984375 
Q 39.0625 48.390625 32.421875 48.390625 
Q 24.90625 48.390625 20.390625 44.140625 
Q 15.875 39.890625 15.1875 32.171875 
z
" id="DejaVuSans-101"/>
     </defs>
     <g transform="translate(492.225313 59.237813)scale(0.14 -0.14)">
      <use xlink:href="#DejaVuSans-98"/>
      <use x="63.476562" xlink:href="#DejaVuSans-97"/>
      <use x="124.755859" xlink:href="#DejaVuSans-115"/>
      <use x="176.855469" xlink:href="#DejaVuSans-101"/>
     </g>
    </g>
    <g id="patch_6">
     <path d="M 453.025313 79.787188 
L 481.025313 79.787188 
L 481.025313 69.987188 
L 453.025313 69.987188 
z
" style="fill:#36a2eb;opacity:0.5;stroke:#36a2eb;stroke-linejoin:miter;"/>
    </g>
    <g id="text_2">
     <!-- new -->
     <defs>
      <path d="M 54.890625 33.015625 
L 54.890625 0 
L 45.90625 0 
L 45.90625 32.71875 
Q 45.90625 40.484375 42.875 44.328125 
Q 39.84375 48.1875 33.796875 48.1875 
Q 26.515625 48.1875 22.3125 43.546875 
Q 18.109375 38.921875 18.109375 30.90625 
L 18.109375 0 
L 9.078125 0 
L 9.078125 54.6875 
L 18.109375 54.6875 
L 18.109375 46.1875 
Q 21.34375 51.125 25.703125 53.5625 
Q 30.078125 56 35.796875 56 
Q 45.21875 56 50.046875 50.171875 
Q 54.890625 44.34375 54.890625 33.015625 
z
" id="DejaVuSans-110"/>
      <path d="M 4.203125 54.6875 
L 13.1875 54.6875 
L 24.421875 12.015625 
L 35.59375 54.6875 
L 46.1875 54.6875 
L 57.421875 12.015625 
L 68.609375 54.6875 
L 77.59375 54.6875 
L 63.28125 0 
L 52.6875 0 
L 40.921875 44.828125 
L 29.109375 0 
L 18.5 0 
z
" id="DejaVuSans-119"/>
     </defs>
     <g transform="translate(492.225313 79.787188)scale(0.14 -0.14)">
      <use xlink:href="#DejaVuSans-110"/>
      <use x="63.378906" xlink:href="#DejaVuSans-101"/>
      <use x="124.902344" xlink:href="#DejaVuSans-119"/>
     </g>
    </g>
   </g>
  </g>
  <g id="axes_2">
   <g id="patch_7">
    <path d="M 36 525.24 
L 538.2 525.24 
L 538.2 402.93 
L 36 402.93 
z
" style="fill:none;"/>
   </g>
   <g id="patch_8">
    <path clip-path="url(#p493b9e0655)" d="M 176.013241 519.680455 
L 399.216125 519.680455 
L 399.216125 482.616818 
L 176.013241 482.616818 
z
" style="fill:#ff6384;opacity:0.5;"/>
   </g>
   <g id="patch_9">
    <path clip-path="url(#p493b9e0655)" d="M 163.773965 445.553182 
L 365.436237 445.553182 
L 365.436237 408.489545 
L 163.773965 408.489545 
z
" style="fill:#36a2eb;opacity:0.5;"/>
   </g>
   <g id="matplotlib.axis_1">
    <g id="xtick_1">
     <g id="line2d_3">
      <defs>
       <path d="M 0 0 
L 0 3.5 
" id="m7950b751c1" style="stroke:#000000;stroke-width:0.8;"/>
      </defs>
      <g>
       <use style="stroke:#000000;stroke-width:0.8;" x="73.337953" xlink:href="#m7950b751c1" y="525.24"/>
      </g>
     </g>
     <g id="text_3">
      <!-- 4.5 -->
      <defs>
       <path d="M 37.796875 64.3125 
L 12.890625 25.390625 
L 37.796875 25.390625 
z
M 35.203125 72.90625 
L 47.609375 72.90625 
L 47.609375 25.390625 
L 58.015625 25.390625 
L 58.015625 17.1875 
L 47.609375 17.1875 
L 47.609375 0 
L 37.796875 0 
L 37.796875 17.1875 
L 4.890625 17.1875 
L 4.890625 26.703125 
z
" id="DejaVuSans-52"/>
       <path d="M 10.6875 12.40625 
L 21 12.40625 
L 21 0 
L 10.6875 0 
z
" id="DejaVuSans-46"/>
       <path d="M 10.796875 72.90625 
L 49.515625 72.90625 
L 49.515625 64.59375 
L 19.828125 64.59375 
L 19.828125 46.734375 
Q 21.96875 47.46875 24.109375 47.828125 
Q 26.265625 48.1875 28.421875 48.1875 
Q 40.625 48.1875 47.75 41.5 
Q 54.890625 34.8125 54.890625 23.390625 
Q 54.890625 11.625 47.5625 5.09375 
Q 40.234375 -1.421875 26.90625 -1.421875 
Q 22.3125 -1.421875 17.546875 -0.640625 
Q 12.796875 0.140625 7.71875 1.703125 
L 7.71875 11.625 
Q 12.109375 9.234375 16.796875 8.0625 
Q 21.484375 6.890625 26.703125 6.890625 
Q 35.15625 6.890625 40.078125 11.328125 
Q 45.015625 15.765625 45.015625 23.390625 
Q 45.015625 31 40.078125 35.4375 
Q 35.15625 39.890625 26.703125 39.890625 
Q 22.75 39.890625 18.8125 39.015625 
Q 14.890625 38.140625 10.796875 36.28125 
z
" id="DejaVuSans-53"/>
      </defs>
      <g transform="translate(62.205765 542.877813)scale(0.14 -0.14)">
       <use xlink:href="#DejaVuSans-52"/>
       <use x="63.623047" xlink:href="#DejaVuSans-46"/>
       <use x="95.410156" xlink:href="#DejaVuSans-53"/>
      </g>
     </g>
    </g>
    <g id="xtick_2">
     <g id="line2d_4">
      <g>
       <use style="stroke:#000000;stroke-width:0.8;" x="145.242896" xlink:href="#m7950b751c1" y="525.24"/>
      </g>
     </g>
     <g id="text_4">
      <!-- 5.0 -->
      <defs>
       <path d="M 31.78125 66.40625 
Q 24.171875 66.40625 20.328125 58.90625 
Q 16.5 51.421875 16.5 36.375 
Q 16.5 21.390625 20.328125 13.890625 
Q 24.171875 6.390625 31.78125 6.390625 
Q 39.453125 6.390625 43.28125 13.890625 
Q 47.125 21.390625 47.125 36.375 
Q 47.125 51.421875 43.28125 58.90625 
Q 39.453125 66.40625 31.78125 66.40625 
z
M 31.78125 74.21875 
Q 44.046875 74.21875 50.515625 64.515625 
Q 56.984375 54.828125 56.984375 36.375 
Q 56.984375 17.96875 50.515625 8.265625 
Q 44.046875 -1.421875 31.78125 -1.421875 
Q 19.53125 -1.421875 13.0625 8.265625 
Q 6.59375 17.96875 6.59375 36.375 
Q 6.59375 54.828125 13.0625 64.515625 
Q 19.53125 74.21875 31.78125 74.21875 
z
" id="DejaVuSans-48"/>
      </defs>
      <g transform="translate(134.110708 542.877813)scale(0.14 -0.14)">
       <use xlink:href="#DejaVuSans-53"/>
       <use x="63.623047" xlink:href="#DejaVuSans-46"/>
       <use x="95.410156" xlink:href="#DejaVuSans-48"/>
      </g>
     </g>
    </g>
    <g id="xtick_3">
     <g id="line2d_5">
      <g>
       <use style="stroke:#000000;stroke-width:0.8;" x="217.147839" xlink:href="#m7950b751c1" y="525.24"/>
      </g>
     </g>
     <g id="text_5">
      <!-- 5.5 -->
      <g transform="translate(206.015651 542.877813)scale(0.14 -0.14)">
       <use xlink:href="#DejaVuSans-53"/>
       <use x="63.623047" xlink:href="#DejaVuSans-46"/>
       <use x="95.410156" xlink:href="#DejaVuSans-53"/>
      </g>
     </g>
    </g>
    <g id="xtick_4">
     <g id="line2d_6">
      <g>
       <use style="stroke:#000000;stroke-width:0.8;" x="289.052782" xlink:href="#m7950b751c1" y="525.24"/>
      </g>
     </g>
     <g id="text_6">
      <!-- 6.0 -->
      <defs>
       <path d="M 33.015625 40.375 
Q 26.375 40.375 22.484375 35.828125 
Q 18.609375 31.296875 18.609375 23.390625 
Q 18.609375 15.53125 22.484375 10.953125 
Q 26.375 6.390625 33.015625 6.390625 
Q 39.65625 6.390625 43.53125 10.953125 
Q 47.40625 15.53125 47.40625 23.390625 
Q 47.40625 31.296875 43.53125 35.828125 
Q 39.65625 40.375 33.015625 40.375 
z
M 52.59375 71.296875 
L 52.59375 62.3125 
Q 48.875 64.0625 45.09375 64.984375 
Q 41.3125 65.921875 37.59375 65.921875 
Q 27.828125 65.921875 22.671875 59.328125 
Q 17.53125 52.734375 16.796875 39.40625 
Q 19.671875 43.65625 24.015625 45.921875 
Q 28.375 48.1875 33.59375 48.1875 
Q 44.578125 48.1875 50.953125 41.515625 
Q 57.328125 34.859375 57.328125 23.390625 
Q 57.328125 12.15625 50.6875 5.359375 
Q 44.046875 -1.421875 33.015625 -1.421875 
Q 20.359375 -1.421875 13.671875 8.265625 
Q 6.984375 17.96875 6.984375 36.375 
Q 6.984375 53.65625 15.1875 63.9375 
Q 23.390625 74.21875 37.203125 74.21875 
Q 40.921875 74.21875 44.703125 73.484375 
Q 48.484375 72.75 52.59375 71.296875 
z
" id="DejaVuSans-54"/>
      </defs>
      <g transform="translate(277.920594 542.877813)scale(0.14 -0.14)">
       <use xlink:href="#DejaVuSans-54"/>
       <use x="63.623047" xlink:href="#DejaVuSans-46"/>
       <use x="95.410156" xlink:href="#DejaVuSans-48"/>
      </g>
     </g>
    </g>
    <g id="xtick_5">
     <g id="line2d_7">
      <g>
       <use style="stroke:#000000;stroke-width:0.8;" x="360.957725" xlink:href="#m7950b751c1" y="525.24"/>
      </g>
     </g>
     <g id="text_7">
      <!-- 6.5 -->
      <g transform="translate(349.825537 542.877813)scale(0.14 -0.14)">
       <use xlink:href="#DejaVuSans-54"/>
       <use x="63.623047" xlink:href="#DejaVuSans-46"/>
       <use x="95.410156" xlink:href="#DejaVuSans-53"/>
      </g>
     </g>
    </g>
    <g id="xtick_6">
     <g id="line2d_8">
      <g>
       <use style="stroke:#000000;stroke-width:0.8;" x="432.862668" xlink:href="#m7950b751c1" y="525.24"/>
      </g>
     </g>
     <g id="text_8">
      <!-- 7.0 -->
      <defs>
       <path d="M 8.203125 72.90625 
L 55.078125 72.90625 
L 55.078125 68.703125 
L 28.609375 0 
L 18.3125 0 
L 43.21875 64.59375 
L 8.203125 64.59375 
z
" id="DejaVuSans-55"/>
      </defs>
      <g transform="translate(421.73048 542.877813)scale(0.14 -0.14)">
       <use xlink:href="#DejaVuSans-55"/>
       <use x="63.623047" xlink:href="#DejaVuSans-46"/>
       <use x="95.410156" xlink:href="#DejaVuSans-48"/>
      </g>
     </g>
    </g>
    <g id="xtick_7">
     <g id="line2d_9">
      <g>
       <use style="stroke:#000000;stroke-width:0.8;" x="504.767611" xlink:href="#m7950b751c1" y="525.24"/>
      </g>
     </g>
     <g id="text_9">
      <!-- 7.5 -->
      <g transform="translate(493.635423 542.877813)scale(0.14 -0.14)">
       <use xlink:href="#DejaVuSans-55"/>
       <use x="63.623047" xlink:href="#DejaVuSans-46"/>
       <use x="95.410156" xlink:href="#DejaVuSans-53"/>
      </g>
     </g>
    </g>
   </g>
   <g id="line2d_10">
    <path clip-path="url(#p493b9e0655)" d="M 287.614683 525.24 
L 287.614683 402.93 
" style="fill:none;stroke:#ff6384;stroke-dasharray:5.55,2.4;stroke-dashoffset:0;stroke-opacity:0.8;stroke-width:1.5;"/>
   </g>
   <g id="line2d_11">
    <path clip-path="url(#p493b9e0655)" d="M 264.605101 525.24 
L 264.605101 402.93 
" style="fill:none;stroke:#36a2eb;stroke-dasharray:5.55,2.4;stroke-dashoffset:0;stroke-opacity:0.8;stroke-width:1.5;"/>
   </g>
   <g id="patch_10">
    <path d="M 36 525.24 
L 538.2 525.24 
" style="fill:none;stroke:#000000;stroke-linecap:square;stroke-linejoin:miter;stroke-width:0.8;"/>
   </g>
  </g>
 </g>
 <defs>
  <clipPath id="p33d2ae68b3">
   <rect height="366.93" width="502.2" x="36" y="36"/>
  </clipPath>
  <clipPath id="p493b9e0655">
   <rect height="122.31" width="502.2" x="36" y="402.93"/>
  </clipPath>
 </defs>
</svg>
