<?xml version="1.0" encoding="utf-8" standalone="no"?>
<!DOCTYPE svg PUBLIC "-//W3C//DTD SVG 1.1//EN"
  "http://www.w3.org/Graphics/SVG/1.1/DTD/svg11.dtd">
<!-- Created with matplotlib (https://matplotlib.org/) -->
<svg height="581.789375pt" version="1.1" viewBox="0 0 574.2 581.789375" width="574.2pt" xmlns="http://www.w3.org/2000/svg" xmlns:xlink="http://www.w3.org/1999/xlink">
 <defs>
  <style type="text/css">
*{stroke-linecap:butt;stroke-linejoin:round;}
  </style>
 </defs>
 <g id="figure_1">
  <g id="patch_1">
   <path d="M 0 581.789375 
L 574.2 581.789375 
L 574.2 0 
L 0 0 
z
" style="fill:none;"/>
  </g>
  <g id="axes_1">
   <g id="patch_2">
    <path d="M 36 402.93 
L 538.2 402.93 
L 538.2 36 
L 36 36 
z
" style="fill:none;"/>
   </g>
   <g id="PolyCollection_1">
    <defs>
     <path d="M 62.75793 -195.538011 
L 62.75793 -195.638507 
L 67.329797 -195.676403 
L 71.901663 -195.727347 
L 76.47353 -195.79536 
L 81.045397 -195.885527 
L 85.617263 -196.004231 
L 90.18913 -196.159411 
L 94.760997 -196.360851 
L 99.332863 -196.620501 
L 103.90473 -196.952816 
L 108.476596 -197.375114 
L 113.048463 -197.907934 
L 117.62033 -198.575392 
L 122.192196 -199.405493 
L 126.764063 -200.430404 
L 131.33593 -201.686643 
L 135.907796 -203.215157 
L 140.479663 -205.061259 
L 145.05153 -207.274401 
L 149.623396 -209.907722 
L 154.195263 -213.017375 
L 158.767129 -216.661579 
L 163.338996 -220.8994 
L 167.910863 -225.789228 
L 172.482729 -231.386987 
L 177.054596 -237.744065 
L 181.626463 -244.90502 
L 186.198329 -252.905119 
L 190.770196 -261.767772 
L 195.342063 -271.501954 
L 199.913929 -282.099733 
L 204.485796 -293.534013 
L 209.057662 -305.756615 
L 213.629529 -318.696836 
L 218.201396 -332.260593 
L 222.773262 -346.330268 
L 227.345129 -360.765352 
L 231.916996 -375.403925 
L 236.488862 -390.065017 
L 241.060729 -404.551837 
L 245.632596 -418.655807 
L 250.204462 -432.1613 
L 254.776329 -444.850963 
L 259.348196 -456.511432 
L 263.920062 -466.939231 
L 268.491929 -475.946652 
L 273.063795 -483.367357 
L 277.635662 -489.061478 
L 282.207529 -492.920004 
L 286.779395 -494.868246 
L 291.351262 -494.868246 
L 295.923129 -492.920004 
L 300.494995 -489.061478 
L 305.066862 -483.367357 
L 309.638729 -475.946652 
L 314.210595 -466.939231 
L 318.782462 -456.511432 
L 323.354328 -444.850963 
L 327.926195 -432.1613 
L 332.498062 -418.655807 
L 337.069928 -404.551837 
L 341.641795 -390.065017 
L 346.213662 -375.403925 
L 350.785528 -360.765352 
L 355.357395 -346.330268 
L 359.929262 -332.260593 
L 364.501128 -318.696836 
L 369.072995 -305.756615 
L 373.644861 -293.534013 
L 378.216728 -282.099733 
L 382.788595 -271.501954 
L 387.360461 -261.767772 
L 391.932328 -252.905119 
L 396.504195 -244.90502 
L 401.076061 -237.744065 
L 405.647928 -231.386987 
L 410.219795 -225.789228 
L 414.791661 -220.8994 
L 419.363528 -216.661579 
L 423.935394 -213.017375 
L 428.507261 -209.907722 
L 433.079128 -207.274401 
L 437.650994 -205.061259 
L 442.222861 -203.215157 
L 446.794728 -201.686643 
L 451.366594 -200.430404 
L 455.938461 -199.405493 
L 460.510328 -198.575392 
L 465.082194 -197.907934 
L 469.654061 -197.375114 
L 474.225928 -196.952816 
L 478.797794 -196.620501 
L 483.369661 -196.360851 
L 487.941527 -196.159411 
L 492.513394 -196.004231 
L 497.085261 -195.885527 
L 501.657127 -195.79536 
L 506.228994 -195.727347 
L 510.800861 -195.676403 
L 515.372727 -195.638507 
L 515.372727 -195.538011 
L 515.372727 -195.538011 
L 510.800861 -195.538011 
L 506.228994 -195.538011 
L 501.657127 -195.538011 
L 497.085261 -195.538011 
L 492.513394 -195.538011 
L 487.941527 -195.538011 
L 483.369661 -195.538011 
L 478.797794 -195.538011 
L 474.225928 -195.538011 
L 469.654061 -195.538011 
L 465.082194 -195.538011 
L 460.510328 -195.538011 
L 455.938461 -195.538011 
L 451.366594 -195.538011 
L 446.794728 -195.538011 
L 442.222861 -195.538011 
L 437.650994 -195.538011 
L 433.079128 -195.538011 
L 428.507261 -195.538011 
L 423.935394 -195.538011 
L 419.363528 -195.538011 
L 414.791661 -195.538011 
L 410.219795 -195.538011 
L 405.647928 -195.538011 
L 401.076061 -195.538011 
L 396.504195 -195.538011 
L 391.932328 -195.538011 
L 387.360461 -195.538011 
L 382.788595 -195.538011 
L 378.216728 -195.538011 
L 373.644861 -195.538011 
L 369.072995 -195.538011 
L 364.501128 -195.538011 
L 359.929262 -195.538011 
L 355.357395 -195.538011 
L 350.785528 -195.538011 
L 346.213662 -195.538011 
L 341.641795 -195.538011 
L 337.069928 -195.538011 
L 332.498062 -195.538011 
L 327.926195 -195.538011 
L 323.354328 -195.538011 
L 318.782462 -195.538011 
L 314.210595 -195.538011 
L 309.638729 -195.538011 
L 305.066862 -195.538011 
L 300.494995 -195.538011 
L 295.923129 -195.538011 
L 291.351262 -195.538011 
L 286.779395 -195.538011 
L 282.207529 -195.538011 
L 277.635662 -195.538011 
L 273.063795 -195.538011 
L 268.491929 -195.538011 
L 263.920062 -195.538011 
L 259.348196 -195.538011 
L 254.776329 -195.538011 
L 250.204462 -195.538011 
L 245.632596 -195.538011 
L 241.060729 -195.538011 
L 236.488862 -195.538011 
L 231.916996 -195.538011 
L 227.345129 -195.538011 
L 222.773262 -195.538011 
L 218.201396 -195.538011 
L 213.629529 -195.538011 
L 209.057662 -195.538011 
L 204.485796 -195.538011 
L 199.913929 -195.538011 
L 195.342063 -195.538011 
L 190.770196 -195.538011 
L 186.198329 -195.538011 
L 181.626463 -195.538011 
L 177.054596 -195.538011 
L 172.482729 -195.538011 
L 167.910863 -195.538011 
L 163.338996 -195.538011 
L 158.767129 -195.538011 
L 154.195263 -195.538011 
L 149.623396 -195.538011 
L 145.05153 -195.538011 
L 140.479663 -195.538011 
L 135.907796 -195.538011 
L 131.33593 -195.538011 
L 126.764063 -195.538011 
L 122.192196 -195.538011 
L 117.62033 -195.538011 
L 113.048463 -195.538011 
L 108.476596 -195.538011 
L 103.90473 -195.538011 
L 99.332863 -195.538011 
L 94.760997 -195.538011 
L 90.18913 -195.538011 
L 85.617263 -195.538011 
L 81.045397 -195.538011 
L 76.47353 -195.538011 
L 71.901663 -195.538011 
L 67.329797 -195.538011 
L 62.75793 -195.538011 
z
" id="m21d29cf6de" style="stroke:#ff6384;stroke-opacity:0.5;"/>
    </defs>
    <g clip-path="url(#p30db8d5967)">
     <use style="fill:#ff6384;fill-opacity:0.5;stroke:#ff6384;stroke-opacity:0.5;" x="0" xlink:href="#m21d29cf6de" y="581.789375"/>
    </g>
   </g>
   <g id="PolyCollection_2">
    <defs>
     <path d="M 58.827273 -195.538011 
L 58.827273 -195.650004 
L 62.92982 -195.692234 
L 67.032367 -195.749007 
L 71.134915 -195.8248 
L 75.237462 -195.925281 
L 79.34001 -196.057565 
L 83.442557 -196.230497 
L 87.545104 -196.454982 
L 91.647652 -196.744335 
L 95.750199 -197.114666 
L 99.852746 -197.585273 
L 103.955294 -198.179047 
L 108.057841 -198.922859 
L 112.160389 -199.847921 
L 116.262936 -200.990079 
L 120.365483 -202.390029 
L 124.468031 -204.093399 
L 128.570578 -206.150691 
L 132.673125 -208.617009 
L 136.775673 -211.551575 
L 140.87822 -215.016962 
L 144.980767 -219.078053 
L 149.083315 -223.800667 
L 153.185862 -229.249878 
L 157.28841 -235.488004 
L 161.390957 -242.572312 
L 165.493504 -250.552459 
L 169.596052 -259.467747 
L 173.698599 -269.344261 
L 177.801146 -280.192004 
L 181.903694 -292.002137 
L 186.006241 -304.744465 
L 190.108789 -318.365297 
L 194.211336 -332.785841 
L 198.313883 -347.901251 
L 202.416431 -363.580456 
L 206.518978 -379.666871 
L 210.621525 -395.980052 
L 214.724073 -412.31833 
L 218.82662 -428.4624 
L 222.929168 -444.179822 
L 227.031715 -459.230303 
L 231.134262 -473.371627 
L 235.23681 -486.366018 
L 239.339357 -497.986726 
L 243.441904 -508.02457 
L 247.544452 -516.294181 
L 251.646999 -522.639693 
L 255.749546 -526.939623 
L 259.852094 -529.110739 
L 263.954641 -529.110739 
L 268.057189 -526.939623 
L 272.159736 -522.639693 
L 276.262283 -516.294181 
L 280.364831 -508.02457 
L 284.467378 -497.986726 
L 288.569925 -486.366018 
L 292.672473 -473.371627 
L 296.77502 -459.230303 
L 300.877568 -444.179822 
L 304.980115 -428.4624 
L 309.082662 -412.31833 
L 313.18521 -395.980052 
L 317.287757 -379.666871 
L 321.390304 -363.580456 
L 325.492852 -347.901251 
L 329.595399 -332.785841 
L 333.697947 -318.365297 
L 337.800494 -304.744465 
L 341.903041 -292.002137 
L 346.005589 -280.192004 
L 350.108136 -269.344261 
L 354.210683 -259.467747 
L 358.313231 -250.552459 
L 362.415778 -242.572312 
L 366.518325 -235.488004 
L 370.620873 -229.249878 
L 374.72342 -223.800667 
L 378.825968 -219.078053 
L 382.928515 -215.016962 
L 387.031062 -211.551575 
L 391.13361 -208.617009 
L 395.236157 -206.150691 
L 399.338704 -204.093399 
L 403.441252 -202.390029 
L 407.543799 -200.990079 
L 411.646347 -199.847921 
L 415.748894 -198.922859 
L 419.851441 -198.179047 
L 423.953989 -197.585273 
L 428.056536 -197.114666 
L 432.159083 -196.744335 
L 436.261631 -196.454982 
L 440.364178 -196.230497 
L 444.466725 -196.057565 
L 448.569273 -195.925281 
L 452.67182 -195.8248 
L 456.774368 -195.749007 
L 460.876915 -195.692234 
L 464.979462 -195.650004 
L 464.979462 -195.538011 
L 464.979462 -195.538011 
L 460.876915 -195.538011 
L 456.774368 -195.538011 
L 452.67182 -195.538011 
L 448.569273 -195.538011 
L 444.466725 -195.538011 
L 440.364178 -195.538011 
L 436.261631 -195.538011 
L 432.159083 -195.538011 
L 428.056536 -195.538011 
L 423.953989 -195.538011 
L 419.851441 -195.538011 
L 415.748894 -195.538011 
L 411.646347 -195.538011 
L 407.543799 -195.538011 
L 403.441252 -195.538011 
L 399.338704 -195.538011 
L 395.236157 -195.538011 
L 391.13361 -195.538011 
L 387.031062 -195.538011 
L 382.928515 -195.538011 
L 378.825968 -195.538011 
L 374.72342 -195.538011 
L 370.620873 -195.538011 
L 366.518325 -195.538011 
L 362.415778 -195.538011 
L 358.313231 -195.538011 
L 354.210683 -195.538011 
L 350.108136 -195.538011 
L 346.005589 -195.538011 
L 341.903041 -195.538011 
L 337.800494 -195.538011 
L 333.697947 -195.538011 
L 329.595399 -195.538011 
L 325.492852 -195.538011 
L 321.390304 -195.538011 
L 317.287757 -195.538011 
L 313.18521 -195.538011 
L 309.082662 -195.538011 
L 304.980115 -195.538011 
L 300.877568 -195.538011 
L 296.77502 -195.538011 
L 292.672473 -195.538011 
L 288.569925 -195.538011 
L 284.467378 -195.538011 
L 280.364831 -195.538011 
L 276.262283 -195.538011 
L 272.159736 -195.538011 
L 268.057189 -195.538011 
L 263.954641 -195.538011 
L 259.852094 -195.538011 
L 255.749546 -195.538011 
L 251.646999 -195.538011 
L 247.544452 -195.538011 
L 243.441904 -195.538011 
L 239.339357 -195.538011 
L 235.23681 -195.538011 
L 231.134262 -195.538011 
L 227.031715 -195.538011 
L 222.929168 -195.538011 
L 218.82662 -195.538011 
L 214.724073 -195.538011 
L 210.621525 -195.538011 
L 206.518978 -195.538011 
L 202.416431 -195.538011 
L 198.313883 -195.538011 
L 194.211336 -195.538011 
L 190.108789 -195.538011 
L 186.006241 -195.538011 
L 181.903694 -195.538011 
L 177.801146 -195.538011 
L 173.698599 -195.538011 
L 169.596052 -195.538011 
L 165.493504 -195.538011 
L 161.390957 -195.538011 
L 157.28841 -195.538011 
L 153.185862 -195.538011 
L 149.083315 -195.538011 
L 144.980767 -195.538011 
L 140.87822 -195.538011 
L 136.775673 -195.538011 
L 132.673125 -195.538011 
L 128.570578 -195.538011 
L 124.468031 -195.538011 
L 120.365483 -195.538011 
L 116.262936 -195.538011 
L 112.160389 -195.538011 
L 108.057841 -195.538011 
L 103.955294 -195.538011 
L 99.852746 -195.538011 
L 95.750199 -195.538011 
L 91.647652 -195.538011 
L 87.545104 -195.538011 
L 83.442557 -195.538011 
L 79.34001 -195.538011 
L 75.237462 -195.538011 
L 71.134915 -195.538011 
L 67.032367 -195.538011 
L 62.92982 -195.538011 
L 58.827273 -195.538011 
z
" id="m87ededbdd9" style="stroke:#36a2eb;stroke-opacity:0.5;"/>
    </defs>
    <g clip-path="url(#p30db8d5967)">
     <use style="fill:#36a2eb;fill-opacity:0.5;stroke:#36a2eb;stroke-opacity:0.5;" x="0" xlink:href="#m87ededbdd9" y="581.789375"/>
    </g>
   </g>
   <g id="line2d_1">
    <path clip-path="url(#p30db8d5967)" d="M 62.75793 386.150868 
L 67.329797 386.112972 
L 71.901663 386.062028 
L 76.47353 385.994015 
L 81.045397 385.903848 
L 85.617263 385.785144 
L 90.18913 385.629964 
L 94.760997 385.428524 
L 99.332863 385.168874 
L 103.90473 384.836559 
L 108.476596 384.414261 
L 113.048463 383.881441 
L 117.62033 383.213983 
L 122.192196 382.383882 
L 126.764063 381.358971 
L 131.33593 380.102732 
L 135.907796 378.574218 
L 140.479663 376.728116 
L 145.05153 374.514974 
L 149.623396 371.881653 
L 154.195263 368.772 
L 158.767129 365.127796 
L 163.338996 360.889975 
L 167.910863 356.000147 
L 172.482729 350.402388 
L 177.054596 344.04531 
L 181.626463 336.884355 
L 186.198329 328.884256 
L 190.770196 320.021603 
L 195.342063 310.287421 
L 199.913929 299.689642 
L 204.485796 288.255362 
L 209.057662 276.03276 
L 213.629529 263.092539 
L 218.201396 249.528782 
L 222.773262 235.459107 
L 227.345129 221.024023 
L 231.916996 206.38545 
L 236.488862 191.724358 
L 241.060729 177.237538 
L 245.632596 163.133568 
L 250.204462 149.628075 
L 254.776329 136.938412 
L 259.348196 125.277943 
L 263.920062 114.850144 
L 268.491929 105.842723 
L 273.063795 98.422018 
L 277.635662 92.727897 
L 282.207529 88.869371 
L 286.779395 86.921129 
L 291.351262 86.921129 
L 295.923129 88.869371 
L 300.494995 92.727897 
L 305.066862 98.422018 
L 309.638729 105.842723 
L 314.210595 114.850144 
L 318.782462 125.277943 
L 323.354328 136.938412 
L 327.926195 149.628075 
L 332.498062 163.133568 
L 337.069928 177.237538 
L 341.641795 191.724358 
L 346.213662 206.38545 
L 350.785528 221.024023 
L 355.357395 235.459107 
L 359.929262 249.528782 
L 364.501128 263.092539 
L 369.072995 276.03276 
L 373.644861 288.255362 
L 378.216728 299.689642 
L 382.788595 310.287421 
L 387.360461 320.021603 
L 391.932328 328.884256 
L 396.504195 336.884355 
L 401.076061 344.04531 
L 405.647928 350.402388 
L 410.219795 356.000147 
L 414.791661 360.889975 
L 419.363528 365.127796 
L 423.935394 368.772 
L 428.507261 371.881653 
L 433.079128 374.514974 
L 437.650994 376.728116 
L 442.222861 378.574218 
L 446.794728 380.102732 
L 451.366594 381.358971 
L 455.938461 382.383882 
L 460.510328 383.213983 
L 465.082194 383.881441 
L 469.654061 384.414261 
L 474.225928 384.836559 
L 478.797794 385.168874 
L 483.369661 385.428524 
L 487.941527 385.629964 
L 492.513394 385.785144 
L 497.085261 385.903848 
L 501.657127 385.994015 
L 506.228994 386.062028 
L 510.800861 386.112972 
L 515.372727 386.150868 
" style="fill:none;stroke:#ff6384;stroke-linecap:square;"/>
   </g>
   <g id="line2d_2">
    <path clip-path="url(#p30db8d5967)" d="M 58.827273 386.139371 
L 62.92982 386.097141 
L 67.032367 386.040368 
L 71.134915 385.964575 
L 75.237462 385.864094 
L 79.34001 385.73181 
L 83.442557 385.558878 
L 87.545104 385.334393 
L 91.647652 385.04504 
L 95.750199 384.674709 
L 99.852746 384.204102 
L 103.955294 383.610328 
L 108.057841 382.866516 
L 112.160389 381.941454 
L 116.262936 380.799296 
L 120.365483 379.399346 
L 124.468031 377.695976 
L 128.570578 375.638684 
L 132.673125 373.172366 
L 136.775673 370.2378 
L 140.87822 366.772413 
L 144.980767 362.711322 
L 149.083315 357.988708 
L 153.185862 352.539497 
L 157.28841 346.301371 
L 161.390957 339.217063 
L 165.493504 331.236916 
L 169.596052 322.321628 
L 173.698599 312.445114 
L 177.801146 301.597371 
L 181.903694 289.787238 
L 186.006241 277.04491 
L 190.108789 263.424078 
L 194.211336 249.003534 
L 198.313883 233.888124 
L 202.416431 218.208919 
L 206.518978 202.122504 
L 210.621525 185.809323 
L 214.724073 169.471045 
L 218.82662 153.326975 
L 222.929168 137.609553 
L 227.031715 122.559072 
L 231.134262 108.417748 
L 235.23681 95.423357 
L 239.339357 83.802649 
L 243.441904 73.764805 
L 247.544452 65.495194 
L 251.646999 59.149682 
L 255.749546 54.849752 
L 259.852094 52.678636 
L 263.954641 52.678636 
L 268.057189 54.849752 
L 272.159736 59.149682 
L 276.262283 65.495194 
L 280.364831 73.764805 
L 284.467378 83.802649 
L 288.569925 95.423357 
L 292.672473 108.417748 
L 296.77502 122.559072 
L 300.877568 137.609553 
L 304.980115 153.326975 
L 309.082662 169.471045 
L 313.18521 185.809323 
L 317.287757 202.122504 
L 321.390304 218.208919 
L 325.492852 233.888124 
L 329.595399 249.003534 
L 333.697947 263.424078 
L 337.800494 277.04491 
L 341.903041 289.787238 
L 346.005589 301.597371 
L 350.108136 312.445114 
L 354.210683 322.321628 
L 358.313231 331.236916 
L 362.415778 339.217063 
L 366.518325 346.301371 
L 370.620873 352.539497 
L 374.72342 357.988708 
L 378.825968 362.711322 
L 382.928515 366.772413 
L 387.031062 370.2378 
L 391.13361 373.172366 
L 395.236157 375.638684 
L 399.338704 377.695976 
L 403.441252 379.399346 
L 407.543799 380.799296 
L 411.646347 381.941454 
L 415.748894 382.866516 
L 419.851441 383.610328 
L 423.953989 384.204102 
L 428.056536 384.674709 
L 432.159083 385.04504 
L 436.261631 385.334393 
L 440.364178 385.558878 
L 444.466725 385.73181 
L 448.569273 385.864094 
L 452.67182 385.964575 
L 456.774368 386.040368 
L 460.876915 386.097141 
L 464.979462 386.139371 
" style="fill:none;stroke:#36a2eb;stroke-linecap:square;"/>
   </g>
   <g id="patch_3">
    <path d="M 36 402.93 
L 538.2 402.93 
" style="fill:none;stroke:#000000;stroke-linecap:square;stroke-linejoin:miter;stroke-width:0.8;"/>
   </g>
   <g id="legend_1">
    <g id="patch_4">
     <path d="M 450.225313 88.29875 
L 528.4 88.29875 
Q 531.2 88.29875 531.2 85.49875 
L 531.2 45.8 
Q 531.2 43 528.4 43 
L 450.225313 43 
Q 447.425313 43 447.425313 45.8 
L 447.425313 85.49875 
Q 447.425313 88.29875 450.225313 88.29875 
z
" style="fill:#ffffff;opacity:0.8;stroke:#cccccc;stroke-linejoin:miter;"/>
    </g>
    <g id="patch_5">
     <path d="M 453.025313 59.237813 
L 481.025313 59.237813 
L 481.025313 49.437813 
L 453.025313 49.437813 
z
" style="fill:#ff6384;opacity:0.5;stroke:#ff6384;stroke-linejoin:miter;"/>
    </g>
    <g id="text_1">
     <!-- base -->
     <defs>
      <path d="M 48.6875 27.296875 
Q 48.6875 37.203125 44.609375 42.84375 
Q 40.53125 48.484375 33.40625 48.484375 
Q 26.265625 48.484375 22.1875 42.84375 
Q 18.109375 37.203125 18.109375 27.296875 
Q 18.109375 17.390625 22.1875 11.75 
Q 26.265625 6.109375 33.40625 6.109375 
Q 40.53125 6.109375 44.609375 11.75 
Q 48.6875 17.390625 48.6875 27.296875 
z
M 18.109375 46.390625 
Q 20.953125 51.265625 25.265625 53.625 
Q 29.59375 56 35.59375 56 
Q 45.5625 56 51.78125 48.09375 
Q 58.015625 40.1875 58.015625 27.296875 
Q 58.015625 14.40625 51.78125 6.484375 
Q 45.5625 -1.421875 35.59375 -1.421875 
Q 29.59375 -1.421875 25.265625 0.953125 
Q 20.953125 3.328125 18.109375 8.203125 
L 18.109375 0 
L 9.078125 0 
L 9.078125 75.984375 
L 18.109375 75.984375 
z
" id="DejaVuSans-98"/>
      <path d="M 34.28125 27.484375 
Q 23.390625 27.484375 19.1875 25 
Q 14.984375 22.515625 14.984375 16.5 
Q 14.984375 11.71875 18.140625 8.90625 
Q 21.296875 6.109375 26.703125 6.109375 
Q 34.1875 6.109375 38.703125 11.40625 
Q 43.21875 16.703125 43.21875 25.484375 
L 43.21875 27.484375 
z
M 52.203125 31.203125 
L 52.203125 0 
L 43.21875 0 
L 43.21875 8.296875 
Q 40.140625 3.328125 35.546875 0.953125 
Q 30.953125 -1.421875 24.3125 -1.421875 
Q 15.921875 -1.421875 10.953125 3.296875 
Q 6 8.015625 6 15.921875 
Q 6 25.140625 12.171875 29.828125 
Q 18.359375 34.515625 30.609375 34.515625 
L 43.21875 34.515625 
L 43.21875 35.40625 
Q 43.21875 41.609375 39.140625 45 
Q 35.0625 48.390625 27.6875 48.390625 
Q 23 48.390625 18.546875 47.265625 
Q 14.109375 46.140625 10.015625 43.890625 
L 10.015625 52.203125 
Q 14.9375 54.109375 19.578125 55.046875 
Q 24.21875 56 28.609375 56 
Q 40.484375 56 46.34375 49.84375 
Q 52.203125 43.703125 52.203125 31.203125 
z
" id="DejaVuSans-97"/>
      <path d="M 44.28125 53.078125 
L 44.28125 44.578125 
Q 40.484375 46.53125 36.375 47.5 
Q 32.28125 48.484375 27.875 48.484375 
Q 21.1875 48.484375 17.84375 46.4375 
Q 14.5 44.390625 14.5 40.28125 
Q 14.5 37.15625 16.890625 35.375 
Q 19.28125 33.59375 26.515625 31.984375 
L 29.59375 31.296875 
Q 39.15625 29.25 43.1875 25.515625 
Q 47.21875 21.78125 47.21875 15.09375 
Q 47.21875 7.46875 41.1875 3.015625 
Q 35.15625 -1.421875 24.609375 -1.421875 
Q 20.21875 -1.421875 15.453125 -0.5625 
Q 10.6875 0.296875 5.421875 2 
L 5.421875 11.28125 
Q 10.40625 8.6875 15.234375 7.390625 
Q 20.0625 6.109375 24.8125 6.109375 
Q 31.15625 6.109375 34.5625 8.28125 
Q 37.984375 10.453125 37.984375 14.40625 
Q 37.984375 18.0625 35.515625 20.015625 
Q 33.0625 21.96875 24.703125 23.78125 
L 21.578125 24.515625 
Q 13.234375 26.265625 9.515625 29.90625 
Q 5.8125 33.546875 5.8125 39.890625 
Q 5.8125 47.609375 11.28125 51.796875 
Q 16.75 56 26.8125 56 
Q 31.78125 56 36.171875 55.265625 
Q 40.578125 54.546875 44.28125 53.078125 
z
" id="DejaVuSans-115"/>
      <path d="M 56.203125 29.59375 
L 56.203125 25.203125 
L 14.890625 25.203125 
Q 15.484375 15.921875 20.484375 11.0625 
Q 25.484375 6.203125 34.421875 6.203125 
Q 39.59375 6.203125 44.453125 7.46875 
Q 49.3125 8.734375 54.109375 11.28125 
L 54.109375 2.78125 
Q 49.265625 0.734375 44.1875 -0.34375 
Q 39.109375 -1.421875 33.890625 -1.421875 
Q 20.796875 -1.421875 13.15625 6.1875 
Q 5.515625 13.8125 5.515625 26.8125 
Q 5.515625 40.234375 12.765625 48.109375 
Q 20.015625 56 32.328125 56 
Q 43.359375 56 49.78125 48.890625 
Q 56.203125 41.796875 56.203125 29.59375 
z
M 47.21875 32.234375 
Q 47.125 39.59375 43.09375 43.984375 
Q 39.0625 48.390625 32.421875 48.390625 
Q 24.90625 48.390625 20.390625 44.140625 
Q 15.875 39.890625 15.1875 32.171875 
z
" id="DejaVuSans-101"/>
     </defs>
     <g transform="translate(492.225313 59.237813)scale(0.14 -0.14)">
      <use xlink:href="#DejaVuSans-98"/>
      <use x="63.476562" xlink:href="#DejaVuSans-97"/>
      <use x="124.755859" xlink:href="#DejaVuSans-115"/>
      <use x="176.855469" xlink:href="#DejaVuSans-101"/>
     </g>
    </g>
    <g id="patch_6">
     <path d="M 453.025313 79.787188 
L 481.025313 79.787188 
L 481.025313 69.987188 
L 453.025313 69.987188 
z
" style="fill:#36a2eb;opacity:0.5;stroke:#36a2eb;stroke-linejoin:miter;"/>
    </g>
    <g id="text_2">
     <!-- new -->
     <defs>
      <path d="M 54.890625 33.015625 
L 54.890625 0 
L 45.90625 0 
L 45.90625 32.71875 
Q 45.90625 40.484375 42.875 44.328125 
Q 39.84375 48.1875 33.796875 48.1875 
Q 26.515625 48.1875 22.3125 43.546875 
Q 18.109375 38.921875 18.109375 30.90625 
L 18.109375 0 
L 9.078125 0 
L 9.078125 54.6875 
L 18.109375 54.6875 
L 18.109375 46.1875 
Q 21.34375 51.125 25.703125 53.5625 
Q 30.078125 56 35.796875 56 
Q 45.21875 56 50.046875 50.171875 
Q 54.890625 44.34375 54.890625 33.015625 
z
" id="DejaVuSans-110"/>
      <path d="M 4.203125 54.6875 
L 13.1875 54.6875 
L 24.421875 12.015625 
L 35.59375 54.6875 
L 46.1875 54.6875 
L 57.421875 12.015625 
L 68.609375 54.6875 
L 77.59375 54.6875 
L 63.28125 0 
L 52.6875 0 
L 40.921875 44.828125 
L 29.109375 0 
L 18.5 0 
z
" id="DejaVuSans-119"/>
     </defs>
     <g transform="translate(492.225313 79.787188)scale(0.14 -0.14)">
      <use xlink:href="#DejaVuSans-110"/>
      <use x="63.378906" xlink:href="#DejaVuSans-101"/>
      <use x="124.902344" xlink:href="#DejaVuSans-119"/>
     </g>
    </g>
   </g>
  </g>
  <g id="axes_2">
   <g id="patch_7">
    <path d="M 36 525.24 
L 538.2 525.24 
L 538.2 402.93 
L 36 402.93 
z
" style="fill:none;"/>
   </g>
   <g id="patch_8">
    <path clip-path="url(#p5f7c30772b)" d="M 178.174703 519.680455 
L 399.955954 519.680455 
L 399.955954 482.616818 
L 178.174703 482.616818 
z
" style="fill:#ff6384;opacity:0.5;"/>
   </g>
   <g id="patch_9">
    <path clip-path="url(#p5f7c30772b)" d="M 162.396081 445.553182 
L 361.410654 445.553182 
L 361.410654 408.489545 
L 162.396081 408.489545 
z
" style="fill:#36a2eb;opacity:0.5;"/>
   </g>
   <g id="matplotlib.axis_1">
    <g id="xtick_1">
     <g id="line2d_3">
      <defs>
       <path d="M 0 0 
L 0 3.5 
" id="m5579cac204" style="stroke:#000000;stroke-width:0.8;"/>
      </defs>
      <g>
       <use style="stroke:#000000;stroke-width:0.8;" x="94.138314" xlink:href="#m5579cac204" y="525.24"/>
      </g>
     </g>
     <g id="text_3">
      <!-- 2.5 -->
      <defs>
       <path d="M 19.1875 8.296875 
L 53.609375 8.296875 
L 53.609375 0 
L 7.328125 0 
L 7.328125 8.296875 
Q 12.9375 14.109375 22.625 23.890625 
Q 32.328125 33.6875 34.8125 36.53125 
Q 39.546875 41.84375 41.421875 45.53125 
Q 43.3125 49.21875 43.3125 52.78125 
Q 43.3125 58.59375 39.234375 62.25 
Q 35.15625 65.921875 28.609375 65.921875 
Q 23.96875 65.921875 18.8125 64.3125 
Q 13.671875 62.703125 7.8125 59.421875 
L 7.8125 69.390625 
Q 13.765625 71.78125 18.9375 73 
Q 24.125 74.21875 28.421875 74.21875 
Q 39.75 74.21875 46.484375 68.546875 
Q 53.21875 62.890625 53.21875 53.421875 
Q 53.21875 48.921875 51.53125 44.890625 
Q 49.859375 40.875 45.40625 35.40625 
Q 44.1875 33.984375 37.640625 27.21875 
Q 31.109375 20.453125 19.1875 8.296875 
z
" id="DejaVuSans-50"/>
       <path d="M 10.6875 12.40625 
L 21 12.40625 
L 21 0 
L 10.6875 0 
z
" id="DejaVuSans-46"/>
       <path d="M 10.796875 72.90625 
L 49.515625 72.90625 
L 49.515625 64.59375 
L 19.828125 64.59375 
L 19.828125 46.734375 
Q 21.96875 47.46875 24.109375 47.828125 
Q 26.265625 48.1875 28.421875 48.1875 
Q 40.625 48.1875 47.75 41.5 
Q 54.890625 34.8125 54.890625 23.390625 
Q 54.890625 11.625 47.5625 5.09375 
Q 40.234375 -1.421875 26.90625 -1.421875 
Q 22.3125 -1.421875 17.546875 -0.640625 
Q 12.796875 0.140625 7.71875 1.703125 
L 7.71875 11.625 
Q 12.109375 9.234375 16.796875 8.0625 
Q 21.484375 6.890625 26.703125 6.890625 
Q 35.15625 6.890625 40.078125 11.328125 
Q 45.015625 15.765625 45.015625 23.390625 
Q 45.015625 31 40.078125 35.4375 
Q 35.15625 39.890625 26.703125 39.890625 
Q 22.75 39.890625 18.8125 39.015625 
Q 14.890625 38.140625 10.796875 36.28125 
z
" id="DejaVuSans-53"/>
      </defs>
      <g transform="translate(83.006126 542.877813)scale(0.14 -0.14)">
       <use xlink:href="#DejaVuSans-50"/>
       <use x="63.623047" xlink:href="#DejaVuSans-46"/>
       <use x="95.410156" xlink:href="#DejaVuSans-53"/>
      </g>
     </g>
    </g>
    <g id="xtick_2">
     <g id="line2d_4">
      <g>
       <use style="stroke:#000000;stroke-width:0.8;" x="174.026435" xlink:href="#m5579cac204" y="525.24"/>
      </g>
     </g>
     <g id="text_4">
      <!-- 3.0 -->
      <defs>
       <path d="M 40.578125 39.3125 
Q 47.65625 37.796875 51.625 33 
Q 55.609375 28.21875 55.609375 21.1875 
Q 55.609375 10.40625 48.1875 4.484375 
Q 40.765625 -1.421875 27.09375 -1.421875 
Q 22.515625 -1.421875 17.65625 -0.515625 
Q 12.796875 0.390625 7.625 2.203125 
L 7.625 11.71875 
Q 11.71875 9.328125 16.59375 8.109375 
Q 21.484375 6.890625 26.8125 6.890625 
Q 36.078125 6.890625 40.9375 10.546875 
Q 45.796875 14.203125 45.796875 21.1875 
Q 45.796875 27.640625 41.28125 31.265625 
Q 36.765625 34.90625 28.71875 34.90625 
L 20.21875 34.90625 
L 20.21875 43.015625 
L 29.109375 43.015625 
Q 36.375 43.015625 40.234375 45.921875 
Q 44.09375 48.828125 44.09375 54.296875 
Q 44.09375 59.90625 40.109375 62.90625 
Q 36.140625 65.921875 28.71875 65.921875 
Q 24.65625 65.921875 20.015625 65.03125 
Q 15.375 64.15625 9.8125 62.3125 
L 9.8125 71.09375 
Q 15.4375 72.65625 20.34375 73.4375 
Q 25.25 74.21875 29.59375 74.21875 
Q 40.828125 74.21875 47.359375 69.109375 
Q 53.90625 64.015625 53.90625 55.328125 
Q 53.90625 49.265625 50.4375 45.09375 
Q 46.96875 40.921875 40.578125 39.3125 
z
" id="DejaVuSans-51"/>
       <path d="M 31.78125 66.40625 
Q 24.171875 66.40625 20.328125 58.90625 
Q 16.5 51.421875 16.5 36.375 
Q 16.5 21.390625 20.328125 13.890625 
Q 24.171875 6.390625 31.78125 6.390625 
Q 39.453125 6.390625 43.28125 13.890625 
Q 47.125 21.390625 47.125 36.375 
Q 47.125 51.421875 43.28125 58.90625 
Q 39.453125 66.40625 31.78125 66.40625 
z
M 31.78125 74.21875 
Q 44.046875 74.21875 50.515625 64.515625 
Q 56.984375 54.828125 56.984375 36.375 
Q 56.984375 17.96875 50.515625 8.265625 
Q 44.046875 -1.421875 31.78125 -1.421875 
Q 19.53125 -1.421875 13.0625 8.265625 
Q 6.59375 17.96875 6.59375 36.375 
Q 6.59375 54.828125 13.0625 64.515625 
Q 19.53125 74.21875 31.78125 74.21875 
z
" id="DejaVuSans-48"/>
      </defs>
      <g transform="translate(162.894247 542.877813)scale(0.14 -0.14)">
       <use xlink:href="#DejaVuSans-51"/>
       <use x="63.623047" xlink:href="#DejaVuSans-46"/>
       <use x="95.410156" xlink:href="#DejaVuSans-48"/>
      </g>
     </g>
    </g>
    <g id="xtick_3">
     <g id="line2d_5">
      <g>
       <use style="stroke:#000000;stroke-width:0.8;" x="253.914555" xlink:href="#m5579cac204" y="525.24"/>
      </g>
     </g>
     <g id="text_5">
      <!-- 3.5 -->
      <g transform="translate(242.782368 542.877813)scale(0.14 -0.14)">
       <use xlink:href="#DejaVuSans-51"/>
       <use x="63.623047" xlink:href="#DejaVuSans-46"/>
       <use x="95.410156" xlink:href="#DejaVuSans-53"/>
      </g>
     </g>
    </g>
    <g id="xtick_4">
     <g id="line2d_6">
      <g>
       <use style="stroke:#000000;stroke-width:0.8;" x="333.802676" xlink:href="#m5579cac204" y="525.24"/>
      </g>
     </g>
     <g id="text_6">
      <!-- 4.0 -->
      <defs>
       <path d="M 37.796875 64.3125 
L 12.890625 25.390625 
L 37.796875 25.390625 
z
M 35.203125 72.90625 
L 47.609375 72.90625 
L 47.609375 25.390625 
L 58.015625 25.390625 
L 58.015625 17.1875 
L 47.609375 17.1875 
L 47.609375 0 
L 37.796875 0 
L 37.796875 17.1875 
L 4.890625 17.1875 
L 4.890625 26.703125 
z
" id="DejaVuSans-52"/>
      </defs>
      <g transform="translate(322.670489 542.877813)scale(0.14 -0.14)">
       <use xlink:href="#DejaVuSans-52"/>
       <use x="63.623047" xlink:href="#DejaVuSans-46"/>
       <use x="95.410156" xlink:href="#DejaVuSans-48"/>
      </g>
     </g>
    </g>
    <g id="xtick_5">
     <g id="line2d_7">
      <g>
       <use style="stroke:#000000;stroke-width:0.8;" x="413.690797" xlink:href="#m5579cac204" y="525.24"/>
      </g>
     </g>
     <g id="text_7">
      <!-- 4.5 -->
      <g transform="translate(402.55861 542.877813)scale(0.14 -0.14)">
       <use xlink:href="#DejaVuSans-52"/>
       <use x="63.623047" xlink:href="#DejaVuSans-46"/>
       <use x="95.410156" xlink:href="#DejaVuSans-53"/>
      </g>
     </g>
    </g>
    <g id="xtick_6">
     <g id="line2d_8">
      <g>
       <use style="stroke:#000000;stroke-width:0.8;" x="493.578918" xlink:href="#m5579cac204" y="525.24"/>
      </g>
     </g>
     <g id="text_8">
      <!-- 5.0 -->
      <g transform="translate(482.446731 542.877813)scale(0.14 -0.14)">
       <use xlink:href="#DejaVuSans-53"/>
       <use x="63.623047" xlink:href="#DejaVuSans-46"/>
       <use x="95.410156" xlink:href="#DejaVuSans-48"/>
      </g>
     </g>
    </g>
   </g>
   <g id="line2d_9">
    <path clip-path="url(#p5f7c30772b)" d="M 289.065329 525.24 
L 289.065329 402.93 
" style="fill:none;stroke:#ff6384;stroke-dasharray:5.55,2.4;stroke-dashoffset:0;stroke-opacity:0.8;stroke-width:1.5;"/>
   </g>
   <g id="line2d_10">
    <path clip-path="url(#p5f7c30772b)" d="M 261.903368 525.24 
L 261.903368 402.93 
" style="fill:none;stroke:#36a2eb;stroke-dasharray:5.55,2.4;stroke-dashoffset:0;stroke-opacity:0.8;stroke-width:1.5;"/>
   </g>
   <g id="patch_10">
    <path d="M 36 525.24 
L 538.2 525.24 
" style="fill:none;stroke:#000000;stroke-linecap:square;stroke-linejoin:miter;stroke-width:0.8;"/>
   </g>
  </g>
 </g>
 <defs>
  <clipPath id="p30db8d5967">
   <rect height="366.93" width="502.2" x="36" y="36"/>
  </clipPath>
  <clipPath id="p5f7c30772b">
   <rect height="122.31" width="502.2" x="36" y="402.93"/>
  </clipPath>
 </defs>
</svg>
