<?xml version="1.0" encoding="utf-8" standalone="no"?>
<!DOCTYPE svg PUBLIC "-//W3C//DTD SVG 1.1//EN"
  "http://www.w3.org/Graphics/SVG/1.1/DTD/svg11.dtd">
<!-- Created with matplotlib (https://matplotlib.org/) -->
<svg height="581.789375pt" version="1.1" viewBox="0 0 574.2 581.789375" width="574.2pt" xmlns="http://www.w3.org/2000/svg" xmlns:xlink="http://www.w3.org/1999/xlink">
 <defs>
  <style type="text/css">
*{stroke-linecap:butt;stroke-linejoin:round;}
  </style>
 </defs>
 <g id="figure_1">
  <g id="patch_1">
   <path d="M 0 581.789375 
L 574.2 581.789375 
L 574.2 0 
L 0 0 
z
" style="fill:none;"/>
  </g>
  <g id="axes_1">
   <g id="patch_2">
    <path d="M 36 402.93 
L 538.2 402.93 
L 538.2 36 
L 36 36 
z
" style="fill:none;"/>
   </g>
   <g id="PolyCollection_1">
    <defs>
     <path d="M 70.164823 -195.538011 
L 70.164823 -195.638771 
L 74.661873 -195.676766 
L 79.158922 -195.727844 
L 83.655972 -195.796035 
L 88.153021 -195.886439 
L 92.650071 -196.005454 
L 97.14712 -196.161041 
L 101.64417 -196.363011 
L 106.141219 -196.623342 
L 110.638269 -196.956529 
L 115.135319 -197.379935 
L 119.632368 -197.914154 
L 124.129418 -198.583363 
L 128.626467 -199.415642 
L 133.123517 -200.443243 
L 137.620566 -201.702779 
L 142.117616 -203.235304 
L 146.614665 -205.086252 
L 151.111715 -207.305202 
L 155.608764 -209.945433 
L 160.105814 -213.063247 
L 164.602863 -216.717015 
L 169.099913 -220.965957 
L 173.596963 -225.868618 
L 178.094012 -231.481068 
L 182.591062 -237.854828 
L 187.088111 -245.034576 
L 191.585161 -253.055671 
L 196.08221 -261.941583 
L 200.57926 -271.70131 
L 205.076309 -282.326902 
L 209.573359 -293.791189 
L 214.070408 -306.045868 
L 218.567458 -319.020049 
L 223.064507 -332.619401 
L 227.561557 -346.726001 
L 232.058606 -361.198968 
L 236.555656 -375.875957 
L 241.052706 -390.575525 
L 245.549755 -405.100364 
L 250.046805 -419.241347 
L 254.543854 -432.782284 
L 259.040904 -445.50525 
L 263.537953 -457.196319 
L 268.035003 -467.651484 
L 272.532052 -476.682544 
L 277.029102 -484.122724 
L 281.526151 -489.831789 
L 286.023201 -493.700441 
L 290.52025 -495.653796 
L 295.0173 -495.653796 
L 299.51435 -493.700441 
L 304.011399 -489.831789 
L 308.508449 -484.122724 
L 313.005498 -476.682544 
L 317.502548 -467.651484 
L 321.999597 -457.196319 
L 326.496647 -445.50525 
L 330.993696 -432.782284 
L 335.490746 -419.241347 
L 339.987795 -405.100364 
L 344.484845 -390.575525 
L 348.981894 -375.875957 
L 353.478944 -361.198968 
L 357.975994 -346.726001 
L 362.473043 -332.619401 
L 366.970093 -319.020049 
L 371.467142 -306.045868 
L 375.964192 -293.791189 
L 380.461241 -282.326902 
L 384.958291 -271.70131 
L 389.45534 -261.941583 
L 393.95239 -253.055671 
L 398.449439 -245.034576 
L 402.946489 -237.854828 
L 407.443538 -231.481068 
L 411.940588 -225.868618 
L 416.437637 -220.965957 
L 420.934687 -216.717015 
L 425.431737 -213.063247 
L 429.928786 -209.945433 
L 434.425836 -207.305202 
L 438.922885 -205.086252 
L 443.419935 -203.235304 
L 447.916984 -201.702779 
L 452.414034 -200.443243 
L 456.911083 -199.415642 
L 461.408133 -198.583363 
L 465.905182 -197.914154 
L 470.402232 -197.379935 
L 474.899281 -196.956529 
L 479.396331 -196.623342 
L 483.893381 -196.363011 
L 488.39043 -196.161041 
L 492.88748 -196.005454 
L 497.384529 -195.886439 
L 501.881579 -195.796035 
L 506.378628 -195.727844 
L 510.875678 -195.676766 
L 515.372727 -195.638771 
L 515.372727 -195.538011 
L 515.372727 -195.538011 
L 510.875678 -195.538011 
L 506.378628 -195.538011 
L 501.881579 -195.538011 
L 497.384529 -195.538011 
L 492.88748 -195.538011 
L 488.39043 -195.538011 
L 483.893381 -195.538011 
L 479.396331 -195.538011 
L 474.899281 -195.538011 
L 470.402232 -195.538011 
L 465.905182 -195.538011 
L 461.408133 -195.538011 
L 456.911083 -195.538011 
L 452.414034 -195.538011 
L 447.916984 -195.538011 
L 443.419935 -195.538011 
L 438.922885 -195.538011 
L 434.425836 -195.538011 
L 429.928786 -195.538011 
L 425.431737 -195.538011 
L 420.934687 -195.538011 
L 416.437637 -195.538011 
L 411.940588 -195.538011 
L 407.443538 -195.538011 
L 402.946489 -195.538011 
L 398.449439 -195.538011 
L 393.95239 -195.538011 
L 389.45534 -195.538011 
L 384.958291 -195.538011 
L 380.461241 -195.538011 
L 375.964192 -195.538011 
L 371.467142 -195.538011 
L 366.970093 -195.538011 
L 362.473043 -195.538011 
L 357.975994 -195.538011 
L 353.478944 -195.538011 
L 348.981894 -195.538011 
L 344.484845 -195.538011 
L 339.987795 -195.538011 
L 335.490746 -195.538011 
L 330.993696 -195.538011 
L 326.496647 -195.538011 
L 321.999597 -195.538011 
L 317.502548 -195.538011 
L 313.005498 -195.538011 
L 308.508449 -195.538011 
L 304.011399 -195.538011 
L 299.51435 -195.538011 
L 295.0173 -195.538011 
L 290.52025 -195.538011 
L 286.023201 -195.538011 
L 281.526151 -195.538011 
L 277.029102 -195.538011 
L 272.532052 -195.538011 
L 268.035003 -195.538011 
L 263.537953 -195.538011 
L 259.040904 -195.538011 
L 254.543854 -195.538011 
L 250.046805 -195.538011 
L 245.549755 -195.538011 
L 241.052706 -195.538011 
L 236.555656 -195.538011 
L 232.058606 -195.538011 
L 227.561557 -195.538011 
L 223.064507 -195.538011 
L 218.567458 -195.538011 
L 214.070408 -195.538011 
L 209.573359 -195.538011 
L 205.076309 -195.538011 
L 200.57926 -195.538011 
L 196.08221 -195.538011 
L 191.585161 -195.538011 
L 187.088111 -195.538011 
L 182.591062 -195.538011 
L 178.094012 -195.538011 
L 173.596963 -195.538011 
L 169.099913 -195.538011 
L 164.602863 -195.538011 
L 160.105814 -195.538011 
L 155.608764 -195.538011 
L 151.111715 -195.538011 
L 146.614665 -195.538011 
L 142.117616 -195.538011 
L 137.620566 -195.538011 
L 133.123517 -195.538011 
L 128.626467 -195.538011 
L 124.129418 -195.538011 
L 119.632368 -195.538011 
L 115.135319 -195.538011 
L 110.638269 -195.538011 
L 106.141219 -195.538011 
L 101.64417 -195.538011 
L 97.14712 -195.538011 
L 92.650071 -195.538011 
L 88.153021 -195.538011 
L 83.655972 -195.538011 
L 79.158922 -195.538011 
L 74.661873 -195.538011 
L 70.164823 -195.538011 
z
" id="m5c39b5fed4" style="stroke:#ff6384;stroke-opacity:0.5;"/>
    </defs>
    <g clip-path="url(#pcdf44c8c07)">
     <use style="fill:#ff6384;fill-opacity:0.5;stroke:#ff6384;stroke-opacity:0.5;" x="0" xlink:href="#m5c39b5fed4" y="581.789375"/>
    </g>
   </g>
   <g id="PolyCollection_2">
    <defs>
     <path d="M 58.827273 -195.538011 
L 58.827273 -195.650004 
L 62.873274 -195.692234 
L 66.919274 -195.749007 
L 70.965275 -195.8248 
L 75.011276 -195.925281 
L 79.057277 -196.057565 
L 83.103278 -196.230497 
L 87.149279 -196.454982 
L 91.19528 -196.744335 
L 95.241281 -197.114666 
L 99.287282 -197.585273 
L 103.333282 -198.179047 
L 107.379283 -198.922859 
L 111.425284 -199.847921 
L 115.471285 -200.990079 
L 119.517286 -202.390029 
L 123.563287 -204.093399 
L 127.609288 -206.150691 
L 131.655289 -208.617009 
L 135.70129 -211.551575 
L 139.74729 -215.016962 
L 143.793291 -219.078053 
L 147.839292 -223.800667 
L 151.885293 -229.249878 
L 155.931294 -235.488004 
L 159.977295 -242.572312 
L 164.023296 -250.552459 
L 168.069297 -259.467747 
L 172.115297 -269.344261 
L 176.161298 -280.192004 
L 180.207299 -292.002137 
L 184.2533 -304.744465 
L 188.299301 -318.365297 
L 192.345302 -332.785841 
L 196.391303 -347.901251 
L 200.437304 -363.580456 
L 204.483305 -379.666871 
L 208.529305 -395.980052 
L 212.575306 -412.31833 
L 216.621307 -428.4624 
L 220.667308 -444.179822 
L 224.713309 -459.230303 
L 228.75931 -473.371627 
L 232.805311 -486.366018 
L 236.851312 -497.986726 
L 240.897312 -508.02457 
L 244.943313 -516.294181 
L 248.989314 -522.639693 
L 253.035315 -526.939623 
L 257.081316 -529.110739 
L 261.127317 -529.110739 
L 265.173318 -526.939623 
L 269.219319 -522.639693 
L 273.26532 -516.294181 
L 277.31132 -508.02457 
L 281.357321 -497.986726 
L 285.403322 -486.366018 
L 289.449323 -473.371627 
L 293.495324 -459.230303 
L 297.541325 -444.179822 
L 301.587326 -428.4624 
L 305.633327 -412.31833 
L 309.679327 -395.980052 
L 313.725328 -379.666871 
L 317.771329 -363.580456 
L 321.81733 -347.901251 
L 325.863331 -332.785841 
L 329.909332 -318.365297 
L 333.955333 -304.744465 
L 338.001334 -292.002137 
L 342.047335 -280.192004 
L 346.093335 -269.344261 
L 350.139336 -259.467747 
L 354.185337 -250.552459 
L 358.231338 -242.572312 
L 362.277339 -235.488004 
L 366.32334 -229.249878 
L 370.369341 -223.800667 
L 374.415342 -219.078053 
L 378.461342 -215.016962 
L 382.507343 -211.551575 
L 386.553344 -208.617009 
L 390.599345 -206.150691 
L 394.645346 -204.093399 
L 398.691347 -202.390029 
L 402.737348 -200.990079 
L 406.783349 -199.847921 
L 410.82935 -198.922859 
L 414.87535 -198.179047 
L 418.921351 -197.585273 
L 422.967352 -197.114666 
L 427.013353 -196.744335 
L 431.059354 -196.454982 
L 435.105355 -196.230497 
L 439.151356 -196.057565 
L 443.197357 -195.925281 
L 447.243357 -195.8248 
L 451.289358 -195.749007 
L 455.335359 -195.692234 
L 459.38136 -195.650004 
L 459.38136 -195.538011 
L 459.38136 -195.538011 
L 455.335359 -195.538011 
L 451.289358 -195.538011 
L 447.243357 -195.538011 
L 443.197357 -195.538011 
L 439.151356 -195.538011 
L 435.105355 -195.538011 
L 431.059354 -195.538011 
L 427.013353 -195.538011 
L 422.967352 -195.538011 
L 418.921351 -195.538011 
L 414.87535 -195.538011 
L 410.82935 -195.538011 
L 406.783349 -195.538011 
L 402.737348 -195.538011 
L 398.691347 -195.538011 
L 394.645346 -195.538011 
L 390.599345 -195.538011 
L 386.553344 -195.538011 
L 382.507343 -195.538011 
L 378.461342 -195.538011 
L 374.415342 -195.538011 
L 370.369341 -195.538011 
L 366.32334 -195.538011 
L 362.277339 -195.538011 
L 358.231338 -195.538011 
L 354.185337 -195.538011 
L 350.139336 -195.538011 
L 346.093335 -195.538011 
L 342.047335 -195.538011 
L 338.001334 -195.538011 
L 333.955333 -195.538011 
L 329.909332 -195.538011 
L 325.863331 -195.538011 
L 321.81733 -195.538011 
L 317.771329 -195.538011 
L 313.725328 -195.538011 
L 309.679327 -195.538011 
L 305.633327 -195.538011 
L 301.587326 -195.538011 
L 297.541325 -195.538011 
L 293.495324 -195.538011 
L 289.449323 -195.538011 
L 285.403322 -195.538011 
L 281.357321 -195.538011 
L 277.31132 -195.538011 
L 273.26532 -195.538011 
L 269.219319 -195.538011 
L 265.173318 -195.538011 
L 261.127317 -195.538011 
L 257.081316 -195.538011 
L 253.035315 -195.538011 
L 248.989314 -195.538011 
L 244.943313 -195.538011 
L 240.897312 -195.538011 
L 236.851312 -195.538011 
L 232.805311 -195.538011 
L 228.75931 -195.538011 
L 224.713309 -195.538011 
L 220.667308 -195.538011 
L 216.621307 -195.538011 
L 212.575306 -195.538011 
L 208.529305 -195.538011 
L 204.483305 -195.538011 
L 200.437304 -195.538011 
L 196.391303 -195.538011 
L 192.345302 -195.538011 
L 188.299301 -195.538011 
L 184.2533 -195.538011 
L 180.207299 -195.538011 
L 176.161298 -195.538011 
L 172.115297 -195.538011 
L 168.069297 -195.538011 
L 164.023296 -195.538011 
L 159.977295 -195.538011 
L 155.931294 -195.538011 
L 151.885293 -195.538011 
L 147.839292 -195.538011 
L 143.793291 -195.538011 
L 139.74729 -195.538011 
L 135.70129 -195.538011 
L 131.655289 -195.538011 
L 127.609288 -195.538011 
L 123.563287 -195.538011 
L 119.517286 -195.538011 
L 115.471285 -195.538011 
L 111.425284 -195.538011 
L 107.379283 -195.538011 
L 103.333282 -195.538011 
L 99.287282 -195.538011 
L 95.241281 -195.538011 
L 91.19528 -195.538011 
L 87.149279 -195.538011 
L 83.103278 -195.538011 
L 79.057277 -195.538011 
L 75.011276 -195.538011 
L 70.965275 -195.538011 
L 66.919274 -195.538011 
L 62.873274 -195.538011 
L 58.827273 -195.538011 
z
" id="mcf0230c8a5" style="stroke:#36a2eb;stroke-opacity:0.5;"/>
    </defs>
    <g clip-path="url(#pcdf44c8c07)">
     <use style="fill:#36a2eb;fill-opacity:0.5;stroke:#36a2eb;stroke-opacity:0.5;" x="0" xlink:href="#mcf0230c8a5" y="581.789375"/>
    </g>
   </g>
   <g id="line2d_1">
    <path clip-path="url(#pcdf44c8c07)" d="M 70.164823 386.150604 
L 74.661873 386.112609 
L 79.158922 386.061531 
L 83.655972 385.99334 
L 88.153021 385.902936 
L 92.650071 385.783921 
L 97.14712 385.628334 
L 101.64417 385.426364 
L 106.141219 385.166033 
L 110.638269 384.832846 
L 115.135319 384.40944 
L 119.632368 383.875221 
L 124.129418 383.206012 
L 128.626467 382.373733 
L 133.123517 381.346132 
L 137.620566 380.086596 
L 142.117616 378.554071 
L 146.614665 376.703123 
L 151.111715 374.484173 
L 155.608764 371.843942 
L 160.105814 368.726128 
L 164.602863 365.07236 
L 169.099913 360.823418 
L 173.596963 355.920757 
L 178.094012 350.308307 
L 182.591062 343.934547 
L 187.088111 336.754799 
L 191.585161 328.733704 
L 196.08221 319.847792 
L 200.57926 310.088065 
L 205.076309 299.462473 
L 209.573359 287.998186 
L 214.070408 275.743507 
L 218.567458 262.769326 
L 223.064507 249.169974 
L 227.561557 235.063374 
L 232.058606 220.590407 
L 236.555656 205.913418 
L 241.052706 191.21385 
L 245.549755 176.689011 
L 250.046805 162.548028 
L 254.543854 149.007091 
L 259.040904 136.284125 
L 263.537953 124.593056 
L 268.035003 114.137891 
L 272.532052 105.106831 
L 277.029102 97.666651 
L 281.526151 91.957586 
L 286.023201 88.088934 
L 290.52025 86.135579 
L 295.0173 86.135579 
L 299.51435 88.088934 
L 304.011399 91.957586 
L 308.508449 97.666651 
L 313.005498 105.106831 
L 317.502548 114.137891 
L 321.999597 124.593056 
L 326.496647 136.284125 
L 330.993696 149.007091 
L 335.490746 162.548028 
L 339.987795 176.689011 
L 344.484845 191.21385 
L 348.981894 205.913418 
L 353.478944 220.590407 
L 357.975994 235.063374 
L 362.473043 249.169974 
L 366.970093 262.769326 
L 371.467142 275.743507 
L 375.964192 287.998186 
L 380.461241 299.462473 
L 384.958291 310.088065 
L 389.45534 319.847792 
L 393.95239 328.733704 
L 398.449439 336.754799 
L 402.946489 343.934547 
L 407.443538 350.308307 
L 411.940588 355.920757 
L 416.437637 360.823418 
L 420.934687 365.07236 
L 425.431737 368.726128 
L 429.928786 371.843942 
L 434.425836 374.484173 
L 438.922885 376.703123 
L 443.419935 378.554071 
L 447.916984 380.086596 
L 452.414034 381.346132 
L 456.911083 382.373733 
L 461.408133 383.206012 
L 465.905182 383.875221 
L 470.402232 384.40944 
L 474.899281 384.832846 
L 479.396331 385.166033 
L 483.893381 385.426364 
L 488.39043 385.628334 
L 492.88748 385.783921 
L 497.384529 385.902936 
L 501.881579 385.99334 
L 506.378628 386.061531 
L 510.875678 386.112609 
L 515.372727 386.150604 
" style="fill:none;stroke:#ff6384;stroke-linecap:square;"/>
   </g>
   <g id="line2d_2">
    <path clip-path="url(#pcdf44c8c07)" d="M 58.827273 386.139371 
L 62.873274 386.097141 
L 66.919274 386.040368 
L 70.965275 385.964575 
L 75.011276 385.864094 
L 79.057277 385.73181 
L 83.103278 385.558878 
L 87.149279 385.334393 
L 91.19528 385.04504 
L 95.241281 384.674709 
L 99.287282 384.204102 
L 103.333282 383.610328 
L 107.379283 382.866516 
L 111.425284 381.941454 
L 115.471285 380.799296 
L 119.517286 379.399346 
L 123.563287 377.695976 
L 127.609288 375.638684 
L 131.655289 373.172366 
L 135.70129 370.2378 
L 139.74729 366.772413 
L 143.793291 362.711322 
L 147.839292 357.988708 
L 151.885293 352.539497 
L 155.931294 346.301371 
L 159.977295 339.217063 
L 164.023296 331.236916 
L 168.069297 322.321628 
L 172.115297 312.445114 
L 176.161298 301.597371 
L 180.207299 289.787238 
L 184.2533 277.04491 
L 188.299301 263.424078 
L 192.345302 249.003534 
L 196.391303 233.888124 
L 200.437304 218.208919 
L 204.483305 202.122504 
L 208.529305 185.809323 
L 212.575306 169.471045 
L 216.621307 153.326975 
L 220.667308 137.609553 
L 224.713309 122.559072 
L 228.75931 108.417748 
L 232.805311 95.423357 
L 236.851312 83.802649 
L 240.897312 73.764805 
L 244.943313 65.495194 
L 248.989314 59.149682 
L 253.035315 54.849752 
L 257.081316 52.678636 
L 261.127317 52.678636 
L 265.173318 54.849752 
L 269.219319 59.149682 
L 273.26532 65.495194 
L 277.31132 73.764805 
L 281.357321 83.802649 
L 285.403322 95.423357 
L 289.449323 108.417748 
L 293.495324 122.559072 
L 297.541325 137.609553 
L 301.587326 153.326975 
L 305.633327 169.471045 
L 309.679327 185.809323 
L 313.725328 202.122504 
L 317.771329 218.208919 
L 321.81733 233.888124 
L 325.863331 249.003534 
L 329.909332 263.424078 
L 333.955333 277.04491 
L 338.001334 289.787238 
L 342.047335 301.597371 
L 346.093335 312.445114 
L 350.139336 322.321628 
L 354.185337 331.236916 
L 358.231338 339.217063 
L 362.277339 346.301371 
L 366.32334 352.539497 
L 370.369341 357.988708 
L 374.415342 362.711322 
L 378.461342 366.772413 
L 382.507343 370.2378 
L 386.553344 373.172366 
L 390.599345 375.638684 
L 394.645346 377.695976 
L 398.691347 379.399346 
L 402.737348 380.799296 
L 406.783349 381.941454 
L 410.82935 382.866516 
L 414.87535 383.610328 
L 418.921351 384.204102 
L 422.967352 384.674709 
L 427.013353 385.04504 
L 431.059354 385.334393 
L 435.105355 385.558878 
L 439.151356 385.73181 
L 443.197357 385.864094 
L 447.243357 385.964575 
L 451.289358 386.040368 
L 455.335359 386.097141 
L 459.38136 386.139371 
" style="fill:none;stroke:#36a2eb;stroke-linecap:square;"/>
   </g>
   <g id="patch_3">
    <path d="M 36 402.93 
L 538.2 402.93 
" style="fill:none;stroke:#000000;stroke-linecap:square;stroke-linejoin:miter;stroke-width:0.8;"/>
   </g>
   <g id="legend_1">
    <g id="patch_4">
     <path d="M 450.225313 88.29875 
L 528.4 88.29875 
Q 531.2 88.29875 531.2 85.49875 
L 531.2 45.8 
Q 531.2 43 528.4 43 
L 450.225313 43 
Q 447.425313 43 447.425313 45.8 
L 447.425313 85.49875 
Q 447.425313 88.29875 450.225313 88.29875 
z
" style="fill:#ffffff;opacity:0.8;stroke:#cccccc;stroke-linejoin:miter;"/>
    </g>
    <g id="patch_5">
     <path d="M 453.025313 59.237813 
L 481.025313 59.237813 
L 481.025313 49.437813 
L 453.025313 49.437813 
z
" style="fill:#ff6384;opacity:0.5;stroke:#ff6384;stroke-linejoin:miter;"/>
    </g>
    <g id="text_1">
     <!-- base -->
     <defs>
      <path d="M 48.6875 27.296875 
Q 48.6875 37.203125 44.609375 42.84375 
Q 40.53125 48.484375 33.40625 48.484375 
Q 26.265625 48.484375 22.1875 42.84375 
Q 18.109375 37.203125 18.109375 27.296875 
Q 18.109375 17.390625 22.1875 11.75 
Q 26.265625 6.109375 33.40625 6.109375 
Q 40.53125 6.109375 44.609375 11.75 
Q 48.6875 17.390625 48.6875 27.296875 
z
M 18.109375 46.390625 
Q 20.953125 51.265625 25.265625 53.625 
Q 29.59375 56 35.59375 56 
Q 45.5625 56 51.78125 48.09375 
Q 58.015625 40.1875 58.015625 27.296875 
Q 58.015625 14.40625 51.78125 6.484375 
Q 45.5625 -1.421875 35.59375 -1.421875 
Q 29.59375 -1.421875 25.265625 0.953125 
Q 20.953125 3.328125 18.109375 8.203125 
L 18.109375 0 
L 9.078125 0 
L 9.078125 75.984375 
L 18.109375 75.984375 
z
" id="DejaVuSans-98"/>
      <path d="M 34.28125 27.484375 
Q 23.390625 27.484375 19.1875 25 
Q 14.984375 22.515625 14.984375 16.5 
Q 14.984375 11.71875 18.140625 8.90625 
Q 21.296875 6.109375 26.703125 6.109375 
Q 34.1875 6.109375 38.703125 11.40625 
Q 43.21875 16.703125 43.21875 25.484375 
L 43.21875 27.484375 
z
M 52.203125 31.203125 
L 52.203125 0 
L 43.21875 0 
L 43.21875 8.296875 
Q 40.140625 3.328125 35.546875 0.953125 
Q 30.953125 -1.421875 24.3125 -1.421875 
Q 15.921875 -1.421875 10.953125 3.296875 
Q 6 8.015625 6 15.921875 
Q 6 25.140625 12.171875 29.828125 
Q 18.359375 34.515625 30.609375 34.515625 
L 43.21875 34.515625 
L 43.21875 35.40625 
Q 43.21875 41.609375 39.140625 45 
Q 35.0625 48.390625 27.6875 48.390625 
Q 23 48.390625 18.546875 47.265625 
Q 14.109375 46.140625 10.015625 43.890625 
L 10.015625 52.203125 
Q 14.9375 54.109375 19.578125 55.046875 
Q 24.21875 56 28.609375 56 
Q 40.484375 56 46.34375 49.84375 
Q 52.203125 43.703125 52.203125 31.203125 
z
" id="DejaVuSans-97"/>
      <path d="M 44.28125 53.078125 
L 44.28125 44.578125 
Q 40.484375 46.53125 36.375 47.5 
Q 32.28125 48.484375 27.875 48.484375 
Q 21.1875 48.484375 17.84375 46.4375 
Q 14.5 44.390625 14.5 40.28125 
Q 14.5 37.15625 16.890625 35.375 
Q 19.28125 33.59375 26.515625 31.984375 
L 29.59375 31.296875 
Q 39.15625 29.25 43.1875 25.515625 
Q 47.21875 21.78125 47.21875 15.09375 
Q 47.21875 7.46875 41.1875 3.015625 
Q 35.15625 -1.421875 24.609375 -1.421875 
Q 20.21875 -1.421875 15.453125 -0.5625 
Q 10.6875 0.296875 5.421875 2 
L 5.421875 11.28125 
Q 10.40625 8.6875 15.234375 7.390625 
Q 20.0625 6.109375 24.8125 6.109375 
Q 31.15625 6.109375 34.5625 8.28125 
Q 37.984375 10.453125 37.984375 14.40625 
Q 37.984375 18.0625 35.515625 20.015625 
Q 33.0625 21.96875 24.703125 23.78125 
L 21.578125 24.515625 
Q 13.234375 26.265625 9.515625 29.90625 
Q 5.8125 33.546875 5.8125 39.890625 
Q 5.8125 47.609375 11.28125 51.796875 
Q 16.75 56 26.8125 56 
Q 31.78125 56 36.171875 55.265625 
Q 40.578125 54.546875 44.28125 53.078125 
z
" id="DejaVuSans-115"/>
      <path d="M 56.203125 29.59375 
L 56.203125 25.203125 
L 14.890625 25.203125 
Q 15.484375 15.921875 20.484375 11.0625 
Q 25.484375 6.203125 34.421875 6.203125 
Q 39.59375 6.203125 44.453125 7.46875 
Q 49.3125 8.734375 54.109375 11.28125 
L 54.109375 2.78125 
Q 49.265625 0.734375 44.1875 -0.34375 
Q 39.109375 -1.421875 33.890625 -1.421875 
Q 20.796875 -1.421875 13.15625 6.1875 
Q 5.515625 13.8125 5.515625 26.8125 
Q 5.515625 40.234375 12.765625 48.109375 
Q 20.015625 56 32.328125 56 
Q 43.359375 56 49.78125 48.890625 
Q 56.203125 41.796875 56.203125 29.59375 
z
M 47.21875 32.234375 
Q 47.125 39.59375 43.09375 43.984375 
Q 39.0625 48.390625 32.421875 48.390625 
Q 24.90625 48.390625 20.390625 44.140625 
Q 15.875 39.890625 15.1875 32.171875 
z
" id="DejaVuSans-101"/>
     </defs>
     <g transform="translate(492.225313 59.237813)scale(0.14 -0.14)">
      <use xlink:href="#DejaVuSans-98"/>
      <use x="63.476562" xlink:href="#DejaVuSans-97"/>
      <use x="124.755859" xlink:href="#DejaVuSans-115"/>
      <use x="176.855469" xlink:href="#DejaVuSans-101"/>
     </g>
    </g>
    <g id="patch_6">
     <path d="M 453.025313 79.787188 
L 481.025313 79.787188 
L 481.025313 69.987188 
L 453.025313 69.987188 
z
" style="fill:#36a2eb;opacity:0.5;stroke:#36a2eb;stroke-linejoin:miter;"/>
    </g>
    <g id="text_2">
     <!-- new -->
     <defs>
      <path d="M 54.890625 33.015625 
L 54.890625 0 
L 45.90625 0 
L 45.90625 32.71875 
Q 45.90625 40.484375 42.875 44.328125 
Q 39.84375 48.1875 33.796875 48.1875 
Q 26.515625 48.1875 22.3125 43.546875 
Q 18.109375 38.921875 18.109375 30.90625 
L 18.109375 0 
L 9.078125 0 
L 9.078125 54.6875 
L 18.109375 54.6875 
L 18.109375 46.1875 
Q 21.34375 51.125 25.703125 53.5625 
Q 30.078125 56 35.796875 56 
Q 45.21875 56 50.046875 50.171875 
Q 54.890625 44.34375 54.890625 33.015625 
z
" id="DejaVuSans-110"/>
      <path d="M 4.203125 54.6875 
L 13.1875 54.6875 
L 24.421875 12.015625 
L 35.59375 54.6875 
L 46.1875 54.6875 
L 57.421875 12.015625 
L 68.609375 54.6875 
L 77.59375 54.6875 
L 63.28125 0 
L 52.6875 0 
L 40.921875 44.828125 
L 29.109375 0 
L 18.5 0 
z
" id="DejaVuSans-119"/>
     </defs>
     <g transform="translate(492.225313 79.787188)scale(0.14 -0.14)">
      <use xlink:href="#DejaVuSans-110"/>
      <use x="63.378906" xlink:href="#DejaVuSans-101"/>
      <use x="124.902344" xlink:href="#DejaVuSans-119"/>
     </g>
    </g>
   </g>
  </g>
  <g id="axes_2">
   <g id="patch_7">
    <path d="M 36 525.24 
L 538.2 525.24 
L 538.2 402.93 
L 36 402.93 
z
" style="fill:none;"/>
   </g>
   <g id="patch_8">
    <path clip-path="url(#p2a344ee2d1)" d="M 183.692839 519.680455 
L 401.844712 519.680455 
L 401.844712 482.616818 
L 183.692839 482.616818 
z
" style="fill:#ff6384;opacity:0.5;"/>
   </g>
   <g id="patch_9">
    <path clip-path="url(#p2a344ee2d1)" d="M 160.968565 445.553182 
L 357.240068 445.553182 
L 357.240068 408.489545 
L 160.968565 408.489545 
z
" style="fill:#36a2eb;opacity:0.5;"/>
   </g>
   <g id="matplotlib.axis_1">
    <g id="xtick_1">
     <g id="line2d_3">
      <defs>
       <path d="M 0 0 
L 0 3.5 
" id="m41897199a2" style="stroke:#000000;stroke-width:0.8;"/>
      </defs>
      <g>
       <use style="stroke:#000000;stroke-width:0.8;" x="79.560536" xlink:href="#m41897199a2" y="525.24"/>
      </g>
     </g>
     <g id="text_3">
      <!-- 4.5 -->
      <defs>
       <path d="M 37.796875 64.3125 
L 12.890625 25.390625 
L 37.796875 25.390625 
z
M 35.203125 72.90625 
L 47.609375 72.90625 
L 47.609375 25.390625 
L 58.015625 25.390625 
L 58.015625 17.1875 
L 47.609375 17.1875 
L 47.609375 0 
L 37.796875 0 
L 37.796875 17.1875 
L 4.890625 17.1875 
L 4.890625 26.703125 
z
" id="DejaVuSans-52"/>
       <path d="M 10.6875 12.40625 
L 21 12.40625 
L 21 0 
L 10.6875 0 
z
" id="DejaVuSans-46"/>
       <path d="M 10.796875 72.90625 
L 49.515625 72.90625 
L 49.515625 64.59375 
L 19.828125 64.59375 
L 19.828125 46.734375 
Q 21.96875 47.46875 24.109375 47.828125 
Q 26.265625 48.1875 28.421875 48.1875 
Q 40.625 48.1875 47.75 41.5 
Q 54.890625 34.8125 54.890625 23.390625 
Q 54.890625 11.625 47.5625 5.09375 
Q 40.234375 -1.421875 26.90625 -1.421875 
Q 22.3125 -1.421875 17.546875 -0.640625 
Q 12.796875 0.140625 7.71875 1.703125 
L 7.71875 11.625 
Q 12.109375 9.234375 16.796875 8.0625 
Q 21.484375 6.890625 26.703125 6.890625 
Q 35.15625 6.890625 40.078125 11.328125 
Q 45.015625 15.765625 45.015625 23.390625 
Q 45.015625 31 40.078125 35.4375 
Q 35.15625 39.890625 26.703125 39.890625 
Q 22.75 39.890625 18.8125 39.015625 
Q 14.890625 38.140625 10.796875 36.28125 
z
" id="DejaVuSans-53"/>
      </defs>
      <g transform="translate(68.428349 542.877813)scale(0.14 -0.14)">
       <use xlink:href="#DejaVuSans-52"/>
       <use x="63.623047" xlink:href="#DejaVuSans-46"/>
       <use x="95.410156" xlink:href="#DejaVuSans-53"/>
      </g>
     </g>
    </g>
    <g id="xtick_2">
     <g id="line2d_4">
      <g>
       <use style="stroke:#000000;stroke-width:0.8;" x="149.694825" xlink:href="#m41897199a2" y="525.24"/>
      </g>
     </g>
     <g id="text_4">
      <!-- 5.0 -->
      <defs>
       <path d="M 31.78125 66.40625 
Q 24.171875 66.40625 20.328125 58.90625 
Q 16.5 51.421875 16.5 36.375 
Q 16.5 21.390625 20.328125 13.890625 
Q 24.171875 6.390625 31.78125 6.390625 
Q 39.453125 6.390625 43.28125 13.890625 
Q 47.125 21.390625 47.125 36.375 
Q 47.125 51.421875 43.28125 58.90625 
Q 39.453125 66.40625 31.78125 66.40625 
z
M 31.78125 74.21875 
Q 44.046875 74.21875 50.515625 64.515625 
Q 56.984375 54.828125 56.984375 36.375 
Q 56.984375 17.96875 50.515625 8.265625 
Q 44.046875 -1.421875 31.78125 -1.421875 
Q 19.53125 -1.421875 13.0625 8.265625 
Q 6.59375 17.96875 6.59375 36.375 
Q 6.59375 54.828125 13.0625 64.515625 
Q 19.53125 74.21875 31.78125 74.21875 
z
" id="DejaVuSans-48"/>
      </defs>
      <g transform="translate(138.562638 542.877813)scale(0.14 -0.14)">
       <use xlink:href="#DejaVuSans-53"/>
       <use x="63.623047" xlink:href="#DejaVuSans-46"/>
       <use x="95.410156" xlink:href="#DejaVuSans-48"/>
      </g>
     </g>
    </g>
    <g id="xtick_3">
     <g id="line2d_5">
      <g>
       <use style="stroke:#000000;stroke-width:0.8;" x="219.829114" xlink:href="#m41897199a2" y="525.24"/>
      </g>
     </g>
     <g id="text_5">
      <!-- 5.5 -->
      <g transform="translate(208.696927 542.877813)scale(0.14 -0.14)">
       <use xlink:href="#DejaVuSans-53"/>
       <use x="63.623047" xlink:href="#DejaVuSans-46"/>
       <use x="95.410156" xlink:href="#DejaVuSans-53"/>
      </g>
     </g>
    </g>
    <g id="xtick_4">
     <g id="line2d_6">
      <g>
       <use style="stroke:#000000;stroke-width:0.8;" x="289.963404" xlink:href="#m41897199a2" y="525.24"/>
      </g>
     </g>
     <g id="text_6">
      <!-- 6.0 -->
      <defs>
       <path d="M 33.015625 40.375 
Q 26.375 40.375 22.484375 35.828125 
Q 18.609375 31.296875 18.609375 23.390625 
Q 18.609375 15.53125 22.484375 10.953125 
Q 26.375 6.390625 33.015625 6.390625 
Q 39.65625 6.390625 43.53125 10.953125 
Q 47.40625 15.53125 47.40625 23.390625 
Q 47.40625 31.296875 43.53125 35.828125 
Q 39.65625 40.375 33.015625 40.375 
z
M 52.59375 71.296875 
L 52.59375 62.3125 
Q 48.875 64.0625 45.09375 64.984375 
Q 41.3125 65.921875 37.59375 65.921875 
Q 27.828125 65.921875 22.671875 59.328125 
Q 17.53125 52.734375 16.796875 39.40625 
Q 19.671875 43.65625 24.015625 45.921875 
Q 28.375 48.1875 33.59375 48.1875 
Q 44.578125 48.1875 50.953125 41.515625 
Q 57.328125 34.859375 57.328125 23.390625 
Q 57.328125 12.15625 50.6875 5.359375 
Q 44.046875 -1.421875 33.015625 -1.421875 
Q 20.359375 -1.421875 13.671875 8.265625 
Q 6.984375 17.96875 6.984375 36.375 
Q 6.984375 53.65625 15.1875 63.9375 
Q 23.390625 74.21875 37.203125 74.21875 
Q 40.921875 74.21875 44.703125 73.484375 
Q 48.484375 72.75 52.59375 71.296875 
z
" id="DejaVuSans-54"/>
      </defs>
      <g transform="translate(278.831216 542.877813)scale(0.14 -0.14)">
       <use xlink:href="#DejaVuSans-54"/>
       <use x="63.623047" xlink:href="#DejaVuSans-46"/>
       <use x="95.410156" xlink:href="#DejaVuSans-48"/>
      </g>
     </g>
    </g>
    <g id="xtick_5">
     <g id="line2d_7">
      <g>
       <use style="stroke:#000000;stroke-width:0.8;" x="360.097693" xlink:href="#m41897199a2" y="525.24"/>
      </g>
     </g>
     <g id="text_7">
      <!-- 6.5 -->
      <g transform="translate(348.965505 542.877813)scale(0.14 -0.14)">
       <use xlink:href="#DejaVuSans-54"/>
       <use x="63.623047" xlink:href="#DejaVuSans-46"/>
       <use x="95.410156" xlink:href="#DejaVuSans-53"/>
      </g>
     </g>
    </g>
    <g id="xtick_6">
     <g id="line2d_8">
      <g>
       <use style="stroke:#000000;stroke-width:0.8;" x="430.231982" xlink:href="#m41897199a2" y="525.24"/>
      </g>
     </g>
     <g id="text_8">
      <!-- 7.0 -->
      <defs>
       <path d="M 8.203125 72.90625 
L 55.078125 72.90625 
L 55.078125 68.703125 
L 28.609375 0 
L 18.3125 0 
L 43.21875 64.59375 
L 8.203125 64.59375 
z
" id="DejaVuSans-55"/>
      </defs>
      <g transform="translate(419.099794 542.877813)scale(0.14 -0.14)">
       <use xlink:href="#DejaVuSans-55"/>
       <use x="63.623047" xlink:href="#DejaVuSans-46"/>
       <use x="95.410156" xlink:href="#DejaVuSans-48"/>
      </g>
     </g>
    </g>
    <g id="xtick_7">
     <g id="line2d_9">
      <g>
       <use style="stroke:#000000;stroke-width:0.8;" x="500.366271" xlink:href="#m41897199a2" y="525.24"/>
      </g>
     </g>
     <g id="text_9">
      <!-- 7.5 -->
      <g transform="translate(489.234084 542.877813)scale(0.14 -0.14)">
       <use xlink:href="#DejaVuSans-55"/>
       <use x="63.623047" xlink:href="#DejaVuSans-46"/>
       <use x="95.410156" xlink:href="#DejaVuSans-53"/>
      </g>
     </g>
    </g>
   </g>
   <g id="line2d_10">
    <path clip-path="url(#p2a344ee2d1)" d="M 292.768775 525.24 
L 292.768775 402.93 
" style="fill:none;stroke:#ff6384;stroke-dasharray:5.55,2.4;stroke-dashoffset:0;stroke-opacity:0.8;stroke-width:1.5;"/>
   </g>
   <g id="line2d_11">
    <path clip-path="url(#p2a344ee2d1)" d="M 259.104316 525.24 
L 259.104316 402.93 
" style="fill:none;stroke:#36a2eb;stroke-dasharray:5.55,2.4;stroke-dashoffset:0;stroke-opacity:0.8;stroke-width:1.5;"/>
   </g>
   <g id="patch_10">
    <path d="M 36 525.24 
L 538.2 525.24 
" style="fill:none;stroke:#000000;stroke-linecap:square;stroke-linejoin:miter;stroke-width:0.8;"/>
   </g>
  </g>
 </g>
 <defs>
  <clipPath id="pcdf44c8c07">
   <rect height="366.93" width="502.2" x="36" y="36"/>
  </clipPath>
  <clipPath id="p2a344ee2d1">
   <rect height="122.31" width="502.2" x="36" y="402.93"/>
  </clipPath>
 </defs>
</svg>
