<?xml version="1.0" encoding="utf-8" standalone="no"?>
<!DOCTYPE svg PUBLIC "-//W3C//DTD SVG 1.1//EN"
  "http://www.w3.org/Graphics/SVG/1.1/DTD/svg11.dtd">
<!-- Created with matplotlib (https://matplotlib.org/) -->
<svg height="581.789375pt" version="1.1" viewBox="0 0 574.2 581.789375" width="574.2pt" xmlns="http://www.w3.org/2000/svg" xmlns:xlink="http://www.w3.org/1999/xlink">
 <defs>
  <style type="text/css">
*{stroke-linecap:butt;stroke-linejoin:round;}
  </style>
 </defs>
 <g id="figure_1">
  <g id="patch_1">
   <path d="M 0 581.789375 
L 574.2 581.789375 
L 574.2 0 
L 0 0 
z
" style="fill:none;"/>
  </g>
  <g id="axes_1">
   <g id="patch_2">
    <path d="M 36 402.93 
L 538.2 402.93 
L 538.2 36 
L 36 36 
z
" style="fill:none;"/>
   </g>
   <g id="PolyCollection_1">
    <defs>
     <path d="M 123.972253 -195.538011 
L 123.972253 -195.612681 
L 127.925793 -195.640838 
L 131.879334 -195.67869 
L 135.832874 -195.729224 
L 139.786414 -195.796219 
L 143.739954 -195.884417 
L 147.693494 -195.999717 
L 151.647034 -196.14939 
L 155.600574 -196.342312 
L 159.554115 -196.589226 
L 163.507655 -196.902997 
L 167.461195 -197.298888 
L 171.414735 -197.794815 
L 175.368275 -198.411589 
L 179.321815 -199.173108 
L 183.275355 -200.106506 
L 187.228896 -201.242207 
L 191.182436 -202.61388 
L 195.135976 -204.258266 
L 199.089516 -206.21485 
L 203.043056 -208.525353 
L 206.996596 -211.233033 
L 210.950136 -214.381776 
L 214.903677 -218.014968 
L 218.857217 -222.174159 
L 222.810757 -226.89753 
L 226.764297 -232.218192 
L 230.717837 -238.162346 
L 234.671377 -244.747385 
L 238.624917 -251.979979 
L 242.578458 -259.854235 
L 246.531998 -268.350019 
L 250.485538 -277.431535 
L 254.439078 -287.046249 
L 258.392618 -297.124255 
L 262.346158 -307.578164 
L 266.299698 -318.303576 
L 270.253239 -329.180181 
L 274.206779 -340.073519 
L 278.160319 -350.837372 
L 282.113859 -361.316762 
L 286.067399 -371.351478 
L 290.020939 -380.780025 
L 293.974479 -389.443869 
L 297.92802 -397.191828 
L 301.88156 -403.884432 
L 305.8351 -409.39809 
L 309.78864 -413.628879 
L 313.74218 -416.495802 
L 317.69572 -417.943366 
L 321.64926 -417.943366 
L 325.602801 -416.495802 
L 329.556341 -413.628879 
L 333.509881 -409.39809 
L 337.463421 -403.884432 
L 341.416961 -397.191828 
L 345.370501 -389.443869 
L 349.324041 -380.780025 
L 353.277582 -371.351478 
L 357.231122 -361.316762 
L 361.184662 -350.837372 
L 365.138202 -340.073519 
L 369.091742 -329.180181 
L 373.045282 -318.303576 
L 376.998822 -307.578164 
L 380.952362 -297.124255 
L 384.905903 -287.046249 
L 388.859443 -277.431535 
L 392.812983 -268.350019 
L 396.766523 -259.854235 
L 400.720063 -251.979979 
L 404.673603 -244.747385 
L 408.627143 -238.162346 
L 412.580684 -232.218192 
L 416.534224 -226.89753 
L 420.487764 -222.174159 
L 424.441304 -218.014968 
L 428.394844 -214.381776 
L 432.348384 -211.233033 
L 436.301924 -208.525353 
L 440.255465 -206.21485 
L 444.209005 -204.258266 
L 448.162545 -202.61388 
L 452.116085 -201.242207 
L 456.069625 -200.106506 
L 460.023165 -199.173108 
L 463.976705 -198.411589 
L 467.930246 -197.794815 
L 471.883786 -197.298888 
L 475.837326 -196.902997 
L 479.790866 -196.589226 
L 483.744406 -196.342312 
L 487.697946 -196.14939 
L 491.651486 -195.999717 
L 495.605027 -195.884417 
L 499.558567 -195.796219 
L 503.512107 -195.729224 
L 507.465647 -195.67869 
L 511.419187 -195.640838 
L 515.372727 -195.612681 
L 515.372727 -195.538011 
L 515.372727 -195.538011 
L 511.419187 -195.538011 
L 507.465647 -195.538011 
L 503.512107 -195.538011 
L 499.558567 -195.538011 
L 495.605027 -195.538011 
L 491.651486 -195.538011 
L 487.697946 -195.538011 
L 483.744406 -195.538011 
L 479.790866 -195.538011 
L 475.837326 -195.538011 
L 471.883786 -195.538011 
L 467.930246 -195.538011 
L 463.976705 -195.538011 
L 460.023165 -195.538011 
L 456.069625 -195.538011 
L 452.116085 -195.538011 
L 448.162545 -195.538011 
L 444.209005 -195.538011 
L 440.255465 -195.538011 
L 436.301924 -195.538011 
L 432.348384 -195.538011 
L 428.394844 -195.538011 
L 424.441304 -195.538011 
L 420.487764 -195.538011 
L 416.534224 -195.538011 
L 412.580684 -195.538011 
L 408.627143 -195.538011 
L 404.673603 -195.538011 
L 400.720063 -195.538011 
L 396.766523 -195.538011 
L 392.812983 -195.538011 
L 388.859443 -195.538011 
L 384.905903 -195.538011 
L 380.952362 -195.538011 
L 376.998822 -195.538011 
L 373.045282 -195.538011 
L 369.091742 -195.538011 
L 365.138202 -195.538011 
L 361.184662 -195.538011 
L 357.231122 -195.538011 
L 353.277582 -195.538011 
L 349.324041 -195.538011 
L 345.370501 -195.538011 
L 341.416961 -195.538011 
L 337.463421 -195.538011 
L 333.509881 -195.538011 
L 329.556341 -195.538011 
L 325.602801 -195.538011 
L 321.64926 -195.538011 
L 317.69572 -195.538011 
L 313.74218 -195.538011 
L 309.78864 -195.538011 
L 305.8351 -195.538011 
L 301.88156 -195.538011 
L 297.92802 -195.538011 
L 293.974479 -195.538011 
L 290.020939 -195.538011 
L 286.067399 -195.538011 
L 282.113859 -195.538011 
L 278.160319 -195.538011 
L 274.206779 -195.538011 
L 270.253239 -195.538011 
L 266.299698 -195.538011 
L 262.346158 -195.538011 
L 258.392618 -195.538011 
L 254.439078 -195.538011 
L 250.485538 -195.538011 
L 246.531998 -195.538011 
L 242.578458 -195.538011 
L 238.624917 -195.538011 
L 234.671377 -195.538011 
L 230.717837 -195.538011 
L 226.764297 -195.538011 
L 222.810757 -195.538011 
L 218.857217 -195.538011 
L 214.903677 -195.538011 
L 210.950136 -195.538011 
L 206.996596 -195.538011 
L 203.043056 -195.538011 
L 199.089516 -195.538011 
L 195.135976 -195.538011 
L 191.182436 -195.538011 
L 187.228896 -195.538011 
L 183.275355 -195.538011 
L 179.321815 -195.538011 
L 175.368275 -195.538011 
L 171.414735 -195.538011 
L 167.461195 -195.538011 
L 163.507655 -195.538011 
L 159.554115 -195.538011 
L 155.600574 -195.538011 
L 151.647034 -195.538011 
L 147.693494 -195.538011 
L 143.739954 -195.538011 
L 139.786414 -195.538011 
L 135.832874 -195.538011 
L 131.879334 -195.538011 
L 127.925793 -195.538011 
L 123.972253 -195.538011 
z
" id="me63a22614f" style="stroke:#ff6384;stroke-opacity:0.5;"/>
    </defs>
    <g clip-path="url(#p1f1761c0ef)">
     <use style="fill:#ff6384;fill-opacity:0.5;stroke:#ff6384;stroke-opacity:0.5;" x="0" xlink:href="#me63a22614f" y="581.789375"/>
    </g>
   </g>
   <g id="PolyCollection_2">
    <defs>
     <path d="M 58.827273 -195.538011 
L 58.827273 -195.650004 
L 61.463245 -195.692234 
L 64.099217 -195.749007 
L 66.73519 -195.8248 
L 69.371162 -195.925281 
L 72.007135 -196.057565 
L 74.643107 -196.230497 
L 77.279079 -196.454982 
L 79.915052 -196.744335 
L 82.551024 -197.114666 
L 85.186997 -197.585273 
L 87.822969 -198.179047 
L 90.458941 -198.922859 
L 93.094914 -199.847921 
L 95.730886 -200.990079 
L 98.366858 -202.390029 
L 101.002831 -204.093399 
L 103.638803 -206.150691 
L 106.274776 -208.617009 
L 108.910748 -211.551575 
L 111.54672 -215.016962 
L 114.182693 -219.078053 
L 116.818665 -223.800667 
L 119.454637 -229.249878 
L 122.09061 -235.488004 
L 124.726582 -242.572312 
L 127.362555 -250.552459 
L 129.998527 -259.467747 
L 132.634499 -269.344261 
L 135.270472 -280.192004 
L 137.906444 -292.002137 
L 140.542417 -304.744465 
L 143.178389 -318.365297 
L 145.814361 -332.785841 
L 148.450334 -347.901251 
L 151.086306 -363.580456 
L 153.722278 -379.666871 
L 156.358251 -395.980052 
L 158.994223 -412.31833 
L 161.630196 -428.4624 
L 164.266168 -444.179822 
L 166.90214 -459.230303 
L 169.538113 -473.371627 
L 172.174085 -486.366018 
L 174.810057 -497.986726 
L 177.44603 -508.02457 
L 180.082002 -516.294181 
L 182.717975 -522.639693 
L 185.353947 -526.939623 
L 187.989919 -529.110739 
L 190.625892 -529.110739 
L 193.261864 -526.939623 
L 195.897837 -522.639693 
L 198.533809 -516.294181 
L 201.169781 -508.02457 
L 203.805754 -497.986726 
L 206.441726 -486.366018 
L 209.077698 -473.371627 
L 211.713671 -459.230303 
L 214.349643 -444.179822 
L 216.985616 -428.4624 
L 219.621588 -412.31833 
L 222.25756 -395.980052 
L 224.893533 -379.666871 
L 227.529505 -363.580456 
L 230.165477 -347.901251 
L 232.80145 -332.785841 
L 235.437422 -318.365297 
L 238.073395 -304.744465 
L 240.709367 -292.002137 
L 243.345339 -280.192004 
L 245.981312 -269.344261 
L 248.617284 -259.467747 
L 251.253257 -250.552459 
L 253.889229 -242.572312 
L 256.525201 -235.488004 
L 259.161174 -229.249878 
L 261.797146 -223.800667 
L 264.433118 -219.078053 
L 267.069091 -215.016962 
L 269.705063 -211.551575 
L 272.341036 -208.617009 
L 274.977008 -206.150691 
L 277.61298 -204.093399 
L 280.248953 -202.390029 
L 282.884925 -200.990079 
L 285.520897 -199.847921 
L 288.15687 -198.922859 
L 290.792842 -198.179047 
L 293.428815 -197.585273 
L 296.064787 -197.114666 
L 298.700759 -196.744335 
L 301.336732 -196.454982 
L 303.972704 -196.230497 
L 306.608677 -196.057565 
L 309.244649 -195.925281 
L 311.880621 -195.8248 
L 314.516594 -195.749007 
L 317.152566 -195.692234 
L 319.788538 -195.650004 
L 319.788538 -195.538011 
L 319.788538 -195.538011 
L 317.152566 -195.538011 
L 314.516594 -195.538011 
L 311.880621 -195.538011 
L 309.244649 -195.538011 
L 306.608677 -195.538011 
L 303.972704 -195.538011 
L 301.336732 -195.538011 
L 298.700759 -195.538011 
L 296.064787 -195.538011 
L 293.428815 -195.538011 
L 290.792842 -195.538011 
L 288.15687 -195.538011 
L 285.520897 -195.538011 
L 282.884925 -195.538011 
L 280.248953 -195.538011 
L 277.61298 -195.538011 
L 274.977008 -195.538011 
L 272.341036 -195.538011 
L 269.705063 -195.538011 
L 267.069091 -195.538011 
L 264.433118 -195.538011 
L 261.797146 -195.538011 
L 259.161174 -195.538011 
L 256.525201 -195.538011 
L 253.889229 -195.538011 
L 251.253257 -195.538011 
L 248.617284 -195.538011 
L 245.981312 -195.538011 
L 243.345339 -195.538011 
L 240.709367 -195.538011 
L 238.073395 -195.538011 
L 235.437422 -195.538011 
L 232.80145 -195.538011 
L 230.165477 -195.538011 
L 227.529505 -195.538011 
L 224.893533 -195.538011 
L 222.25756 -195.538011 
L 219.621588 -195.538011 
L 216.985616 -195.538011 
L 214.349643 -195.538011 
L 211.713671 -195.538011 
L 209.077698 -195.538011 
L 206.441726 -195.538011 
L 203.805754 -195.538011 
L 201.169781 -195.538011 
L 198.533809 -195.538011 
L 195.897837 -195.538011 
L 193.261864 -195.538011 
L 190.625892 -195.538011 
L 187.989919 -195.538011 
L 185.353947 -195.538011 
L 182.717975 -195.538011 
L 180.082002 -195.538011 
L 177.44603 -195.538011 
L 174.810057 -195.538011 
L 172.174085 -195.538011 
L 169.538113 -195.538011 
L 166.90214 -195.538011 
L 164.266168 -195.538011 
L 161.630196 -195.538011 
L 158.994223 -195.538011 
L 156.358251 -195.538011 
L 153.722278 -195.538011 
L 151.086306 -195.538011 
L 148.450334 -195.538011 
L 145.814361 -195.538011 
L 143.178389 -195.538011 
L 140.542417 -195.538011 
L 137.906444 -195.538011 
L 135.270472 -195.538011 
L 132.634499 -195.538011 
L 129.998527 -195.538011 
L 127.362555 -195.538011 
L 124.726582 -195.538011 
L 122.09061 -195.538011 
L 119.454637 -195.538011 
L 116.818665 -195.538011 
L 114.182693 -195.538011 
L 111.54672 -195.538011 
L 108.910748 -195.538011 
L 106.274776 -195.538011 
L 103.638803 -195.538011 
L 101.002831 -195.538011 
L 98.366858 -195.538011 
L 95.730886 -195.538011 
L 93.094914 -195.538011 
L 90.458941 -195.538011 
L 87.822969 -195.538011 
L 85.186997 -195.538011 
L 82.551024 -195.538011 
L 79.915052 -195.538011 
L 77.279079 -195.538011 
L 74.643107 -195.538011 
L 72.007135 -195.538011 
L 69.371162 -195.538011 
L 66.73519 -195.538011 
L 64.099217 -195.538011 
L 61.463245 -195.538011 
L 58.827273 -195.538011 
z
" id="me60aa33bc9" style="stroke:#36a2eb;stroke-opacity:0.5;"/>
    </defs>
    <g clip-path="url(#p1f1761c0ef)">
     <use style="fill:#36a2eb;fill-opacity:0.5;stroke:#36a2eb;stroke-opacity:0.5;" x="0" xlink:href="#me60aa33bc9" y="581.789375"/>
    </g>
   </g>
   <g id="line2d_1">
    <path clip-path="url(#p1f1761c0ef)" d="M 123.972253 386.176694 
L 127.925793 386.148537 
L 131.879334 386.110685 
L 135.832874 386.060151 
L 139.786414 385.993156 
L 143.739954 385.904958 
L 147.693494 385.789658 
L 151.647034 385.639985 
L 155.600574 385.447063 
L 159.554115 385.200149 
L 163.507655 384.886378 
L 167.461195 384.490487 
L 171.414735 383.99456 
L 175.368275 383.377786 
L 179.321815 382.616267 
L 183.275355 381.682869 
L 187.228896 380.547168 
L 191.182436 379.175495 
L 195.135976 377.531109 
L 199.089516 375.574525 
L 203.043056 373.264022 
L 206.996596 370.556342 
L 210.950136 367.407599 
L 214.903677 363.774407 
L 218.857217 359.615216 
L 222.810757 354.891845 
L 226.764297 349.571183 
L 230.717837 343.627029 
L 234.671377 337.04199 
L 238.624917 329.809396 
L 242.578458 321.93514 
L 246.531998 313.439356 
L 250.485538 304.35784 
L 254.439078 294.743126 
L 258.392618 284.66512 
L 262.346158 274.211211 
L 266.299698 263.485799 
L 270.253239 252.609194 
L 274.206779 241.715856 
L 278.160319 230.952003 
L 282.113859 220.472613 
L 286.067399 210.437897 
L 290.020939 201.00935 
L 293.974479 192.345506 
L 297.92802 184.597547 
L 301.88156 177.904943 
L 305.8351 172.391285 
L 309.78864 168.160496 
L 313.74218 165.293573 
L 317.69572 163.846009 
L 321.64926 163.846009 
L 325.602801 165.293573 
L 329.556341 168.160496 
L 333.509881 172.391285 
L 337.463421 177.904943 
L 341.416961 184.597547 
L 345.370501 192.345506 
L 349.324041 201.00935 
L 353.277582 210.437897 
L 357.231122 220.472613 
L 361.184662 230.952003 
L 365.138202 241.715856 
L 369.091742 252.609194 
L 373.045282 263.485799 
L 376.998822 274.211211 
L 380.952362 284.66512 
L 384.905903 294.743126 
L 388.859443 304.35784 
L 392.812983 313.439356 
L 396.766523 321.93514 
L 400.720063 329.809396 
L 404.673603 337.04199 
L 408.627143 343.627029 
L 412.580684 349.571183 
L 416.534224 354.891845 
L 420.487764 359.615216 
L 424.441304 363.774407 
L 428.394844 367.407599 
L 432.348384 370.556342 
L 436.301924 373.264022 
L 440.255465 375.574525 
L 444.209005 377.531109 
L 448.162545 379.175495 
L 452.116085 380.547168 
L 456.069625 381.682869 
L 460.023165 382.616267 
L 463.976705 383.377786 
L 467.930246 383.99456 
L 471.883786 384.490487 
L 475.837326 384.886378 
L 479.790866 385.200149 
L 483.744406 385.447063 
L 487.697946 385.639985 
L 491.651486 385.789658 
L 495.605027 385.904958 
L 499.558567 385.993156 
L 503.512107 386.060151 
L 507.465647 386.110685 
L 511.419187 386.148537 
L 515.372727 386.176694 
" style="fill:none;stroke:#ff6384;stroke-linecap:square;"/>
   </g>
   <g id="line2d_2">
    <path clip-path="url(#p1f1761c0ef)" d="M 58.827273 386.139371 
L 61.463245 386.097141 
L 64.099217 386.040368 
L 66.73519 385.964575 
L 69.371162 385.864094 
L 72.007135 385.73181 
L 74.643107 385.558878 
L 77.279079 385.334393 
L 79.915052 385.04504 
L 82.551024 384.674709 
L 85.186997 384.204102 
L 87.822969 383.610328 
L 90.458941 382.866516 
L 93.094914 381.941454 
L 95.730886 380.799296 
L 98.366858 379.399346 
L 101.002831 377.695976 
L 103.638803 375.638684 
L 106.274776 373.172366 
L 108.910748 370.2378 
L 111.54672 366.772413 
L 114.182693 362.711322 
L 116.818665 357.988708 
L 119.454637 352.539497 
L 122.09061 346.301371 
L 124.726582 339.217063 
L 127.362555 331.236916 
L 129.998527 322.321628 
L 132.634499 312.445114 
L 135.270472 301.597371 
L 137.906444 289.787238 
L 140.542417 277.04491 
L 143.178389 263.424078 
L 145.814361 249.003534 
L 148.450334 233.888124 
L 151.086306 218.208919 
L 153.722278 202.122504 
L 156.358251 185.809323 
L 158.994223 169.471045 
L 161.630196 153.326975 
L 164.266168 137.609553 
L 166.90214 122.559072 
L 169.538113 108.417748 
L 172.174085 95.423357 
L 174.810057 83.802649 
L 177.44603 73.764805 
L 180.082002 65.495194 
L 182.717975 59.149682 
L 185.353947 54.849752 
L 187.989919 52.678636 
L 190.625892 52.678636 
L 193.261864 54.849752 
L 195.897837 59.149682 
L 198.533809 65.495194 
L 201.169781 73.764805 
L 203.805754 83.802649 
L 206.441726 95.423357 
L 209.077698 108.417748 
L 211.713671 122.559072 
L 214.349643 137.609553 
L 216.985616 153.326975 
L 219.621588 169.471045 
L 222.25756 185.809323 
L 224.893533 202.122504 
L 227.529505 218.208919 
L 230.165477 233.888124 
L 232.80145 249.003534 
L 235.437422 263.424078 
L 238.073395 277.04491 
L 240.709367 289.787238 
L 243.345339 301.597371 
L 245.981312 312.445114 
L 248.617284 322.321628 
L 251.253257 331.236916 
L 253.889229 339.217063 
L 256.525201 346.301371 
L 259.161174 352.539497 
L 261.797146 357.988708 
L 264.433118 362.711322 
L 267.069091 366.772413 
L 269.705063 370.2378 
L 272.341036 373.172366 
L 274.977008 375.638684 
L 277.61298 377.695976 
L 280.248953 379.399346 
L 282.884925 380.799296 
L 285.520897 381.941454 
L 288.15687 382.866516 
L 290.792842 383.610328 
L 293.428815 384.204102 
L 296.064787 384.674709 
L 298.700759 385.04504 
L 301.336732 385.334393 
L 303.972704 385.558878 
L 306.608677 385.73181 
L 309.244649 385.864094 
L 311.880621 385.964575 
L 314.516594 386.040368 
L 317.152566 386.097141 
L 319.788538 386.139371 
" style="fill:none;stroke:#36a2eb;stroke-linecap:square;"/>
   </g>
   <g id="patch_3">
    <path d="M 36 402.93 
L 538.2 402.93 
" style="fill:none;stroke:#000000;stroke-linecap:square;stroke-linejoin:miter;stroke-width:0.8;"/>
   </g>
   <g id="legend_1">
    <g id="patch_4">
     <path d="M 450.225313 88.29875 
L 528.4 88.29875 
Q 531.2 88.29875 531.2 85.49875 
L 531.2 45.8 
Q 531.2 43 528.4 43 
L 450.225313 43 
Q 447.425313 43 447.425313 45.8 
L 447.425313 85.49875 
Q 447.425313 88.29875 450.225313 88.29875 
z
" style="fill:#ffffff;opacity:0.8;stroke:#cccccc;stroke-linejoin:miter;"/>
    </g>
    <g id="patch_5">
     <path d="M 453.025313 59.237813 
L 481.025313 59.237813 
L 481.025313 49.437813 
L 453.025313 49.437813 
z
" style="fill:#ff6384;opacity:0.5;stroke:#ff6384;stroke-linejoin:miter;"/>
    </g>
    <g id="text_1">
     <!-- base -->
     <defs>
      <path d="M 48.6875 27.296875 
Q 48.6875 37.203125 44.609375 42.84375 
Q 40.53125 48.484375 33.40625 48.484375 
Q 26.265625 48.484375 22.1875 42.84375 
Q 18.109375 37.203125 18.109375 27.296875 
Q 18.109375 17.390625 22.1875 11.75 
Q 26.265625 6.109375 33.40625 6.109375 
Q 40.53125 6.109375 44.609375 11.75 
Q 48.6875 17.390625 48.6875 27.296875 
z
M 18.109375 46.390625 
Q 20.953125 51.265625 25.265625 53.625 
Q 29.59375 56 35.59375 56 
Q 45.5625 56 51.78125 48.09375 
Q 58.015625 40.1875 58.015625 27.296875 
Q 58.015625 14.40625 51.78125 6.484375 
Q 45.5625 -1.421875 35.59375 -1.421875 
Q 29.59375 -1.421875 25.265625 0.953125 
Q 20.953125 3.328125 18.109375 8.203125 
L 18.109375 0 
L 9.078125 0 
L 9.078125 75.984375 
L 18.109375 75.984375 
z
" id="DejaVuSans-98"/>
      <path d="M 34.28125 27.484375 
Q 23.390625 27.484375 19.1875 25 
Q 14.984375 22.515625 14.984375 16.5 
Q 14.984375 11.71875 18.140625 8.90625 
Q 21.296875 6.109375 26.703125 6.109375 
Q 34.1875 6.109375 38.703125 11.40625 
Q 43.21875 16.703125 43.21875 25.484375 
L 43.21875 27.484375 
z
M 52.203125 31.203125 
L 52.203125 0 
L 43.21875 0 
L 43.21875 8.296875 
Q 40.140625 3.328125 35.546875 0.953125 
Q 30.953125 -1.421875 24.3125 -1.421875 
Q 15.921875 -1.421875 10.953125 3.296875 
Q 6 8.015625 6 15.921875 
Q 6 25.140625 12.171875 29.828125 
Q 18.359375 34.515625 30.609375 34.515625 
L 43.21875 34.515625 
L 43.21875 35.40625 
Q 43.21875 41.609375 39.140625 45 
Q 35.0625 48.390625 27.6875 48.390625 
Q 23 48.390625 18.546875 47.265625 
Q 14.109375 46.140625 10.015625 43.890625 
L 10.015625 52.203125 
Q 14.9375 54.109375 19.578125 55.046875 
Q 24.21875 56 28.609375 56 
Q 40.484375 56 46.34375 49.84375 
Q 52.203125 43.703125 52.203125 31.203125 
z
" id="DejaVuSans-97"/>
      <path d="M 44.28125 53.078125 
L 44.28125 44.578125 
Q 40.484375 46.53125 36.375 47.5 
Q 32.28125 48.484375 27.875 48.484375 
Q 21.1875 48.484375 17.84375 46.4375 
Q 14.5 44.390625 14.5 40.28125 
Q 14.5 37.15625 16.890625 35.375 
Q 19.28125 33.59375 26.515625 31.984375 
L 29.59375 31.296875 
Q 39.15625 29.25 43.1875 25.515625 
Q 47.21875 21.78125 47.21875 15.09375 
Q 47.21875 7.46875 41.1875 3.015625 
Q 35.15625 -1.421875 24.609375 -1.421875 
Q 20.21875 -1.421875 15.453125 -0.5625 
Q 10.6875 0.296875 5.421875 2 
L 5.421875 11.28125 
Q 10.40625 8.6875 15.234375 7.390625 
Q 20.0625 6.109375 24.8125 6.109375 
Q 31.15625 6.109375 34.5625 8.28125 
Q 37.984375 10.453125 37.984375 14.40625 
Q 37.984375 18.0625 35.515625 20.015625 
Q 33.0625 21.96875 24.703125 23.78125 
L 21.578125 24.515625 
Q 13.234375 26.265625 9.515625 29.90625 
Q 5.8125 33.546875 5.8125 39.890625 
Q 5.8125 47.609375 11.28125 51.796875 
Q 16.75 56 26.8125 56 
Q 31.78125 56 36.171875 55.265625 
Q 40.578125 54.546875 44.28125 53.078125 
z
" id="DejaVuSans-115"/>
      <path d="M 56.203125 29.59375 
L 56.203125 25.203125 
L 14.890625 25.203125 
Q 15.484375 15.921875 20.484375 11.0625 
Q 25.484375 6.203125 34.421875 6.203125 
Q 39.59375 6.203125 44.453125 7.46875 
Q 49.3125 8.734375 54.109375 11.28125 
L 54.109375 2.78125 
Q 49.265625 0.734375 44.1875 -0.34375 
Q 39.109375 -1.421875 33.890625 -1.421875 
Q 20.796875 -1.421875 13.15625 6.1875 
Q 5.515625 13.8125 5.515625 26.8125 
Q 5.515625 40.234375 12.765625 48.109375 
Q 20.015625 56 32.328125 56 
Q 43.359375 56 49.78125 48.890625 
Q 56.203125 41.796875 56.203125 29.59375 
z
M 47.21875 32.234375 
Q 47.125 39.59375 43.09375 43.984375 
Q 39.0625 48.390625 32.421875 48.390625 
Q 24.90625 48.390625 20.390625 44.140625 
Q 15.875 39.890625 15.1875 32.171875 
z
" id="DejaVuSans-101"/>
     </defs>
     <g transform="translate(492.225313 59.237813)scale(0.14 -0.14)">
      <use xlink:href="#DejaVuSans-98"/>
      <use x="63.476562" xlink:href="#DejaVuSans-97"/>
      <use x="124.755859" xlink:href="#DejaVuSans-115"/>
      <use x="176.855469" xlink:href="#DejaVuSans-101"/>
     </g>
    </g>
    <g id="patch_6">
     <path d="M 453.025313 79.787188 
L 481.025313 79.787188 
L 481.025313 69.987188 
L 453.025313 69.987188 
z
" style="fill:#36a2eb;opacity:0.5;stroke:#36a2eb;stroke-linejoin:miter;"/>
    </g>
    <g id="text_2">
     <!-- new -->
     <defs>
      <path d="M 54.890625 33.015625 
L 54.890625 0 
L 45.90625 0 
L 45.90625 32.71875 
Q 45.90625 40.484375 42.875 44.328125 
Q 39.84375 48.1875 33.796875 48.1875 
Q 26.515625 48.1875 22.3125 43.546875 
Q 18.109375 38.921875 18.109375 30.90625 
L 18.109375 0 
L 9.078125 0 
L 9.078125 54.6875 
L 18.109375 54.6875 
L 18.109375 46.1875 
Q 21.34375 51.125 25.703125 53.5625 
Q 30.078125 56 35.796875 56 
Q 45.21875 56 50.046875 50.171875 
Q 54.890625 44.34375 54.890625 33.015625 
z
" id="DejaVuSans-110"/>
      <path d="M 4.203125 54.6875 
L 13.1875 54.6875 
L 24.421875 12.015625 
L 35.59375 54.6875 
L 46.1875 54.6875 
L 57.421875 12.015625 
L 68.609375 54.6875 
L 77.59375 54.6875 
L 63.28125 0 
L 52.6875 0 
L 40.921875 44.828125 
L 29.109375 0 
L 18.5 0 
z
" id="DejaVuSans-119"/>
     </defs>
     <g transform="translate(492.225313 79.787188)scale(0.14 -0.14)">
      <use xlink:href="#DejaVuSans-110"/>
      <use x="63.378906" xlink:href="#DejaVuSans-101"/>
      <use x="124.902344" xlink:href="#DejaVuSans-119"/>
     </g>
    </g>
   </g>
  </g>
  <g id="axes_2">
   <g id="patch_7">
    <path d="M 36 525.24 
L 538.2 525.24 
L 538.2 402.93 
L 36 402.93 
z
" style="fill:none;"/>
   </g>
   <g id="patch_8">
    <path clip-path="url(#p6c32c4faae)" d="M 223.779374 519.680455 
L 415.565606 519.680455 
L 415.565606 482.616818 
L 223.779374 482.616818 
z
" style="fill:#ff6384;opacity:0.5;"/>
   </g>
   <g id="patch_9">
    <path clip-path="url(#p6c32c4faae)" d="M 125.372395 445.553182 
L 253.243416 445.553182 
L 253.243416 408.489545 
L 125.372395 408.489545 
z
" style="fill:#36a2eb;opacity:0.5;"/>
   </g>
   <g id="matplotlib.axis_1">
    <g id="xtick_1">
     <g id="line2d_3">
      <defs>
       <path d="M 0 0 
L 0 3.5 
" id="mccc227278b" style="stroke:#000000;stroke-width:0.8;"/>
      </defs>
      <g>
       <use style="stroke:#000000;stroke-width:0.8;" x="73.777862" xlink:href="#mccc227278b" y="525.24"/>
      </g>
     </g>
     <g id="text_3">
      <!-- 5.0 -->
      <defs>
       <path d="M 10.796875 72.90625 
L 49.515625 72.90625 
L 49.515625 64.59375 
L 19.828125 64.59375 
L 19.828125 46.734375 
Q 21.96875 47.46875 24.109375 47.828125 
Q 26.265625 48.1875 28.421875 48.1875 
Q 40.625 48.1875 47.75 41.5 
Q 54.890625 34.8125 54.890625 23.390625 
Q 54.890625 11.625 47.5625 5.09375 
Q 40.234375 -1.421875 26.90625 -1.421875 
Q 22.3125 -1.421875 17.546875 -0.640625 
Q 12.796875 0.140625 7.71875 1.703125 
L 7.71875 11.625 
Q 12.109375 9.234375 16.796875 8.0625 
Q 21.484375 6.890625 26.703125 6.890625 
Q 35.15625 6.890625 40.078125 11.328125 
Q 45.015625 15.765625 45.015625 23.390625 
Q 45.015625 31 40.078125 35.4375 
Q 35.15625 39.890625 26.703125 39.890625 
Q 22.75 39.890625 18.8125 39.015625 
Q 14.890625 38.140625 10.796875 36.28125 
z
" id="DejaVuSans-53"/>
       <path d="M 10.6875 12.40625 
L 21 12.40625 
L 21 0 
L 10.6875 0 
z
" id="DejaVuSans-46"/>
       <path d="M 31.78125 66.40625 
Q 24.171875 66.40625 20.328125 58.90625 
Q 16.5 51.421875 16.5 36.375 
Q 16.5 21.390625 20.328125 13.890625 
Q 24.171875 6.390625 31.78125 6.390625 
Q 39.453125 6.390625 43.28125 13.890625 
Q 47.125 21.390625 47.125 36.375 
Q 47.125 51.421875 43.28125 58.90625 
Q 39.453125 66.40625 31.78125 66.40625 
z
M 31.78125 74.21875 
Q 44.046875 74.21875 50.515625 64.515625 
Q 56.984375 54.828125 56.984375 36.375 
Q 56.984375 17.96875 50.515625 8.265625 
Q 44.046875 -1.421875 31.78125 -1.421875 
Q 19.53125 -1.421875 13.0625 8.265625 
Q 6.59375 17.96875 6.59375 36.375 
Q 6.59375 54.828125 13.0625 64.515625 
Q 19.53125 74.21875 31.78125 74.21875 
z
" id="DejaVuSans-48"/>
      </defs>
      <g transform="translate(62.645675 542.877813)scale(0.14 -0.14)">
       <use xlink:href="#DejaVuSans-53"/>
       <use x="63.623047" xlink:href="#DejaVuSans-46"/>
       <use x="95.410156" xlink:href="#DejaVuSans-48"/>
      </g>
     </g>
    </g>
    <g id="xtick_2">
     <g id="line2d_4">
      <g>
       <use style="stroke:#000000;stroke-width:0.8;" x="144.960883" xlink:href="#mccc227278b" y="525.24"/>
      </g>
     </g>
     <g id="text_4">
      <!-- 5.5 -->
      <g transform="translate(133.828696 542.877813)scale(0.14 -0.14)">
       <use xlink:href="#DejaVuSans-53"/>
       <use x="63.623047" xlink:href="#DejaVuSans-46"/>
       <use x="95.410156" xlink:href="#DejaVuSans-53"/>
      </g>
     </g>
    </g>
    <g id="xtick_3">
     <g id="line2d_5">
      <g>
       <use style="stroke:#000000;stroke-width:0.8;" x="216.143905" xlink:href="#mccc227278b" y="525.24"/>
      </g>
     </g>
     <g id="text_5">
      <!-- 6.0 -->
      <defs>
       <path d="M 33.015625 40.375 
Q 26.375 40.375 22.484375 35.828125 
Q 18.609375 31.296875 18.609375 23.390625 
Q 18.609375 15.53125 22.484375 10.953125 
Q 26.375 6.390625 33.015625 6.390625 
Q 39.65625 6.390625 43.53125 10.953125 
Q 47.40625 15.53125 47.40625 23.390625 
Q 47.40625 31.296875 43.53125 35.828125 
Q 39.65625 40.375 33.015625 40.375 
z
M 52.59375 71.296875 
L 52.59375 62.3125 
Q 48.875 64.0625 45.09375 64.984375 
Q 41.3125 65.921875 37.59375 65.921875 
Q 27.828125 65.921875 22.671875 59.328125 
Q 17.53125 52.734375 16.796875 39.40625 
Q 19.671875 43.65625 24.015625 45.921875 
Q 28.375 48.1875 33.59375 48.1875 
Q 44.578125 48.1875 50.953125 41.515625 
Q 57.328125 34.859375 57.328125 23.390625 
Q 57.328125 12.15625 50.6875 5.359375 
Q 44.046875 -1.421875 33.015625 -1.421875 
Q 20.359375 -1.421875 13.671875 8.265625 
Q 6.984375 17.96875 6.984375 36.375 
Q 6.984375 53.65625 15.1875 63.9375 
Q 23.390625 74.21875 37.203125 74.21875 
Q 40.921875 74.21875 44.703125 73.484375 
Q 48.484375 72.75 52.59375 71.296875 
z
" id="DejaVuSans-54"/>
      </defs>
      <g transform="translate(205.011717 542.877813)scale(0.14 -0.14)">
       <use xlink:href="#DejaVuSans-54"/>
       <use x="63.623047" xlink:href="#DejaVuSans-46"/>
       <use x="95.410156" xlink:href="#DejaVuSans-48"/>
      </g>
     </g>
    </g>
    <g id="xtick_4">
     <g id="line2d_6">
      <g>
       <use style="stroke:#000000;stroke-width:0.8;" x="287.326926" xlink:href="#mccc227278b" y="525.24"/>
      </g>
     </g>
     <g id="text_6">
      <!-- 6.5 -->
      <g transform="translate(276.194738 542.877813)scale(0.14 -0.14)">
       <use xlink:href="#DejaVuSans-54"/>
       <use x="63.623047" xlink:href="#DejaVuSans-46"/>
       <use x="95.410156" xlink:href="#DejaVuSans-53"/>
      </g>
     </g>
    </g>
    <g id="xtick_5">
     <g id="line2d_7">
      <g>
       <use style="stroke:#000000;stroke-width:0.8;" x="358.509947" xlink:href="#mccc227278b" y="525.24"/>
      </g>
     </g>
     <g id="text_7">
      <!-- 7.0 -->
      <defs>
       <path d="M 8.203125 72.90625 
L 55.078125 72.90625 
L 55.078125 68.703125 
L 28.609375 0 
L 18.3125 0 
L 43.21875 64.59375 
L 8.203125 64.59375 
z
" id="DejaVuSans-55"/>
      </defs>
      <g transform="translate(347.377759 542.877813)scale(0.14 -0.14)">
       <use xlink:href="#DejaVuSans-55"/>
       <use x="63.623047" xlink:href="#DejaVuSans-46"/>
       <use x="95.410156" xlink:href="#DejaVuSans-48"/>
      </g>
     </g>
    </g>
    <g id="xtick_6">
     <g id="line2d_8">
      <g>
       <use style="stroke:#000000;stroke-width:0.8;" x="429.692968" xlink:href="#mccc227278b" y="525.24"/>
      </g>
     </g>
     <g id="text_8">
      <!-- 7.5 -->
      <g transform="translate(418.56078 542.877813)scale(0.14 -0.14)">
       <use xlink:href="#DejaVuSans-55"/>
       <use x="63.623047" xlink:href="#DejaVuSans-46"/>
       <use x="95.410156" xlink:href="#DejaVuSans-53"/>
      </g>
     </g>
    </g>
    <g id="xtick_7">
     <g id="line2d_9">
      <g>
       <use style="stroke:#000000;stroke-width:0.8;" x="500.875989" xlink:href="#mccc227278b" y="525.24"/>
      </g>
     </g>
     <g id="text_9">
      <!-- 8.0 -->
      <defs>
       <path d="M 31.78125 34.625 
Q 24.75 34.625 20.71875 30.859375 
Q 16.703125 27.09375 16.703125 20.515625 
Q 16.703125 13.921875 20.71875 10.15625 
Q 24.75 6.390625 31.78125 6.390625 
Q 38.8125 6.390625 42.859375 10.171875 
Q 46.921875 13.96875 46.921875 20.515625 
Q 46.921875 27.09375 42.890625 30.859375 
Q 38.875 34.625 31.78125 34.625 
z
M 21.921875 38.8125 
Q 15.578125 40.375 12.03125 44.71875 
Q 8.5 49.078125 8.5 55.328125 
Q 8.5 64.0625 14.71875 69.140625 
Q 20.953125 74.21875 31.78125 74.21875 
Q 42.671875 74.21875 48.875 69.140625 
Q 55.078125 64.0625 55.078125 55.328125 
Q 55.078125 49.078125 51.53125 44.71875 
Q 48 40.375 41.703125 38.8125 
Q 48.828125 37.15625 52.796875 32.3125 
Q 56.78125 27.484375 56.78125 20.515625 
Q 56.78125 9.90625 50.3125 4.234375 
Q 43.84375 -1.421875 31.78125 -1.421875 
Q 19.734375 -1.421875 13.25 4.234375 
Q 6.78125 9.90625 6.78125 20.515625 
Q 6.78125 27.484375 10.78125 32.3125 
Q 14.796875 37.15625 21.921875 38.8125 
z
M 18.3125 54.390625 
Q 18.3125 48.734375 21.84375 45.5625 
Q 25.390625 42.390625 31.78125 42.390625 
Q 38.140625 42.390625 41.71875 45.5625 
Q 45.3125 48.734375 45.3125 54.390625 
Q 45.3125 60.0625 41.71875 63.234375 
Q 38.140625 66.40625 31.78125 66.40625 
Q 25.390625 66.40625 21.84375 63.234375 
Q 18.3125 60.0625 18.3125 54.390625 
z
" id="DejaVuSans-56"/>
      </defs>
      <g transform="translate(489.743801 542.877813)scale(0.14 -0.14)">
       <use xlink:href="#DejaVuSans-56"/>
       <use x="63.623047" xlink:href="#DejaVuSans-46"/>
       <use x="95.410156" xlink:href="#DejaVuSans-48"/>
      </g>
     </g>
    </g>
   </g>
   <g id="line2d_10">
    <path clip-path="url(#p6c32c4faae)" d="M 319.67249 525.24 
L 319.67249 402.93 
" style="fill:none;stroke:#ff6384;stroke-dasharray:5.55,2.4;stroke-dashoffset:0;stroke-opacity:0.8;stroke-width:1.5;"/>
   </g>
   <g id="line2d_11">
    <path clip-path="url(#p6c32c4faae)" d="M 189.307906 525.24 
L 189.307906 402.93 
" style="fill:none;stroke:#36a2eb;stroke-dasharray:5.55,2.4;stroke-dashoffset:0;stroke-opacity:0.8;stroke-width:1.5;"/>
   </g>
   <g id="patch_10">
    <path d="M 36 525.24 
L 538.2 525.24 
" style="fill:none;stroke:#000000;stroke-linecap:square;stroke-linejoin:miter;stroke-width:0.8;"/>
   </g>
  </g>
 </g>
 <defs>
  <clipPath id="p1f1761c0ef">
   <rect height="366.93" width="502.2" x="36" y="36"/>
  </clipPath>
  <clipPath id="p6c32c4faae">
   <rect height="122.31" width="502.2" x="36" y="402.93"/>
  </clipPath>
 </defs>
</svg>
