<?xml version="1.0" encoding="utf-8" standalone="no"?>
<!DOCTYPE svg PUBLIC "-//W3C//DTD SVG 1.1//EN"
  "http://www.w3.org/Graphics/SVG/1.1/DTD/svg11.dtd">
<!-- Created with matplotlib (https://matplotlib.org/) -->
<svg height="581.789375pt" version="1.1" viewBox="0 0 574.2 581.789375" width="574.2pt" xmlns="http://www.w3.org/2000/svg" xmlns:xlink="http://www.w3.org/1999/xlink">
 <defs>
  <style type="text/css">
*{stroke-linecap:butt;stroke-linejoin:round;}
  </style>
 </defs>
 <g id="figure_1">
  <g id="patch_1">
   <path d="M 0 581.789375 
L 574.2 581.789375 
L 574.2 0 
L 0 0 
z
" style="fill:none;"/>
  </g>
  <g id="axes_1">
   <g id="patch_2">
    <path d="M 36 402.93 
L 538.2 402.93 
L 538.2 36 
L 36 36 
z
" style="fill:none;"/>
   </g>
   <g id="PolyCollection_1">
    <defs>
     <path d="M 74.10673 -195.538011 
L 74.10673 -195.637965 
L 78.563962 -195.675656 
L 83.021195 -195.726326 
L 87.478427 -195.793971 
L 91.935659 -195.883651 
L 96.392891 -196.001715 
L 100.850124 -196.156057 
L 105.307356 -196.35641 
L 109.764588 -196.614659 
L 114.221821 -196.945181 
L 118.679053 -197.365199 
L 123.136285 -197.895144 
L 127.593517 -198.558999 
L 132.05075 -199.38462 
L 136.507982 -200.404 
L 140.965214 -201.65346 
L 145.422447 -203.173724 
L 149.879679 -205.009864 
L 154.336911 -207.211061 
L 158.794144 -209.830171 
L 163.251376 -212.923041 
L 167.708608 -216.547578 
L 172.16584 -220.762527 
L 176.623073 -225.625966 
L 181.080305 -231.193515 
L 185.537537 -237.516284 
L 189.99477 -244.638592 
L 194.452002 -252.595516 
L 198.909234 -261.410338 
L 203.366467 -271.091986 
L 207.823699 -281.63257 
L 212.280931 -293.005141 
L 216.738163 -305.161779 
L 221.195396 -318.032164 
L 225.652628 -331.522718 
L 230.10986 -345.516461 
L 234.567093 -359.873641 
L 239.024325 -374.433211 
L 243.481557 -389.015179 
L 247.938789 -403.423816 
L 252.396022 -417.451668 
L 256.853254 -430.884273 
L 261.310486 -443.505452 
L 265.767719 -455.102991 
L 270.224951 -465.474512 
L 274.682183 -474.433321 
L 279.139416 -481.813977 
L 283.596648 -487.477368 
L 288.05388 -491.31507 
L 292.511112 -493.252798 
L 296.968345 -493.252798 
L 301.425577 -491.31507 
L 305.882809 -487.477368 
L 310.340042 -481.813977 
L 314.797274 -474.433321 
L 319.254506 -465.474512 
L 323.711739 -455.102991 
L 328.168971 -443.505452 
L 332.626203 -430.884273 
L 337.083435 -417.451668 
L 341.540668 -403.423816 
L 345.9979 -389.015179 
L 350.455132 -374.433211 
L 354.912365 -359.873641 
L 359.369597 -345.516461 
L 363.826829 -331.522718 
L 368.284061 -318.032164 
L 372.741294 -305.161779 
L 377.198526 -293.005141 
L 381.655758 -281.63257 
L 386.112991 -271.091986 
L 390.570223 -261.410338 
L 395.027455 -252.595516 
L 399.484688 -244.638592 
L 403.94192 -237.516284 
L 408.399152 -231.193515 
L 412.856384 -225.625966 
L 417.313617 -220.762527 
L 421.770849 -216.547578 
L 426.228081 -212.923041 
L 430.685314 -209.830171 
L 435.142546 -207.211061 
L 439.599778 -205.009864 
L 444.057011 -203.173724 
L 448.514243 -201.65346 
L 452.971475 -200.404 
L 457.428707 -199.38462 
L 461.88594 -198.558999 
L 466.343172 -197.895144 
L 470.800404 -197.365199 
L 475.257637 -196.945181 
L 479.714869 -196.614659 
L 484.172101 -196.35641 
L 488.629333 -196.156057 
L 493.086566 -196.001715 
L 497.543798 -195.883651 
L 502.00103 -195.793971 
L 506.458263 -195.726326 
L 510.915495 -195.675656 
L 515.372727 -195.637965 
L 515.372727 -195.538011 
L 515.372727 -195.538011 
L 510.915495 -195.538011 
L 506.458263 -195.538011 
L 502.00103 -195.538011 
L 497.543798 -195.538011 
L 493.086566 -195.538011 
L 488.629333 -195.538011 
L 484.172101 -195.538011 
L 479.714869 -195.538011 
L 475.257637 -195.538011 
L 470.800404 -195.538011 
L 466.343172 -195.538011 
L 461.88594 -195.538011 
L 457.428707 -195.538011 
L 452.971475 -195.538011 
L 448.514243 -195.538011 
L 444.057011 -195.538011 
L 439.599778 -195.538011 
L 435.142546 -195.538011 
L 430.685314 -195.538011 
L 426.228081 -195.538011 
L 421.770849 -195.538011 
L 417.313617 -195.538011 
L 412.856384 -195.538011 
L 408.399152 -195.538011 
L 403.94192 -195.538011 
L 399.484688 -195.538011 
L 395.027455 -195.538011 
L 390.570223 -195.538011 
L 386.112991 -195.538011 
L 381.655758 -195.538011 
L 377.198526 -195.538011 
L 372.741294 -195.538011 
L 368.284061 -195.538011 
L 363.826829 -195.538011 
L 359.369597 -195.538011 
L 354.912365 -195.538011 
L 350.455132 -195.538011 
L 345.9979 -195.538011 
L 341.540668 -195.538011 
L 337.083435 -195.538011 
L 332.626203 -195.538011 
L 328.168971 -195.538011 
L 323.711739 -195.538011 
L 319.254506 -195.538011 
L 314.797274 -195.538011 
L 310.340042 -195.538011 
L 305.882809 -195.538011 
L 301.425577 -195.538011 
L 296.968345 -195.538011 
L 292.511112 -195.538011 
L 288.05388 -195.538011 
L 283.596648 -195.538011 
L 279.139416 -195.538011 
L 274.682183 -195.538011 
L 270.224951 -195.538011 
L 265.767719 -195.538011 
L 261.310486 -195.538011 
L 256.853254 -195.538011 
L 252.396022 -195.538011 
L 247.938789 -195.538011 
L 243.481557 -195.538011 
L 239.024325 -195.538011 
L 234.567093 -195.538011 
L 230.10986 -195.538011 
L 225.652628 -195.538011 
L 221.195396 -195.538011 
L 216.738163 -195.538011 
L 212.280931 -195.538011 
L 207.823699 -195.538011 
L 203.366467 -195.538011 
L 198.909234 -195.538011 
L 194.452002 -195.538011 
L 189.99477 -195.538011 
L 185.537537 -195.538011 
L 181.080305 -195.538011 
L 176.623073 -195.538011 
L 172.16584 -195.538011 
L 167.708608 -195.538011 
L 163.251376 -195.538011 
L 158.794144 -195.538011 
L 154.336911 -195.538011 
L 149.879679 -195.538011 
L 145.422447 -195.538011 
L 140.965214 -195.538011 
L 136.507982 -195.538011 
L 132.05075 -195.538011 
L 127.593517 -195.538011 
L 123.136285 -195.538011 
L 118.679053 -195.538011 
L 114.221821 -195.538011 
L 109.764588 -195.538011 
L 105.307356 -195.538011 
L 100.850124 -195.538011 
L 96.392891 -195.538011 
L 91.935659 -195.538011 
L 87.478427 -195.538011 
L 83.021195 -195.538011 
L 78.563962 -195.538011 
L 74.10673 -195.538011 
z
" id="m45924753a3" style="stroke:#ff6384;stroke-opacity:0.5;"/>
    </defs>
    <g clip-path="url(#p1d3287a5ca)">
     <use style="fill:#ff6384;fill-opacity:0.5;stroke:#ff6384;stroke-opacity:0.5;" x="0" xlink:href="#m45924753a3" y="581.789375"/>
    </g>
   </g>
   <g id="PolyCollection_2">
    <defs>
     <path d="M 58.827273 -195.538011 
L 58.827273 -195.650004 
L 62.805368 -195.692234 
L 66.783463 -195.749007 
L 70.761557 -195.8248 
L 74.739652 -195.925281 
L 78.717747 -196.057565 
L 82.695842 -196.230497 
L 86.673937 -196.454982 
L 90.652032 -196.744335 
L 94.630127 -197.114666 
L 98.608222 -197.585273 
L 102.586317 -198.179047 
L 106.564411 -198.922859 
L 110.542506 -199.847921 
L 114.520601 -200.990079 
L 118.498696 -202.390029 
L 122.476791 -204.093399 
L 126.454886 -206.150691 
L 130.432981 -208.617009 
L 134.411076 -211.551575 
L 138.389171 -215.016962 
L 142.367266 -219.078053 
L 146.34536 -223.800667 
L 150.323455 -229.249878 
L 154.30155 -235.488004 
L 158.279645 -242.572312 
L 162.25774 -250.552459 
L 166.235835 -259.467747 
L 170.21393 -269.344261 
L 174.192025 -280.192004 
L 178.17012 -292.002137 
L 182.148214 -304.744465 
L 186.126309 -318.365297 
L 190.104404 -332.785841 
L 194.082499 -347.901251 
L 198.060594 -363.580456 
L 202.038689 -379.666871 
L 206.016784 -395.980052 
L 209.994879 -412.31833 
L 213.972974 -428.4624 
L 217.951068 -444.179822 
L 221.929163 -459.230303 
L 225.907258 -473.371627 
L 229.885353 -486.366018 
L 233.863448 -497.986726 
L 237.841543 -508.02457 
L 241.819638 -516.294181 
L 245.797733 -522.639693 
L 249.775828 -526.939623 
L 253.753923 -529.110739 
L 257.732017 -529.110739 
L 261.710112 -526.939623 
L 265.688207 -522.639693 
L 269.666302 -516.294181 
L 273.644397 -508.02457 
L 277.622492 -497.986726 
L 281.600587 -486.366018 
L 285.578682 -473.371627 
L 289.556777 -459.230303 
L 293.534871 -444.179822 
L 297.512966 -428.4624 
L 301.491061 -412.31833 
L 305.469156 -395.980052 
L 309.447251 -379.666871 
L 313.425346 -363.580456 
L 317.403441 -347.901251 
L 321.381536 -332.785841 
L 325.359631 -318.365297 
L 329.337726 -304.744465 
L 333.31582 -292.002137 
L 337.293915 -280.192004 
L 341.27201 -269.344261 
L 345.250105 -259.467747 
L 349.2282 -250.552459 
L 353.206295 -242.572312 
L 357.18439 -235.488004 
L 361.162485 -229.249878 
L 365.14058 -223.800667 
L 369.118674 -219.078053 
L 373.096769 -215.016962 
L 377.074864 -211.551575 
L 381.052959 -208.617009 
L 385.031054 -206.150691 
L 389.009149 -204.093399 
L 392.987244 -202.390029 
L 396.965339 -200.990079 
L 400.943434 -199.847921 
L 404.921529 -198.922859 
L 408.899623 -198.179047 
L 412.877718 -197.585273 
L 416.855813 -197.114666 
L 420.833908 -196.744335 
L 424.812003 -196.454982 
L 428.790098 -196.230497 
L 432.768193 -196.057565 
L 436.746288 -195.925281 
L 440.724383 -195.8248 
L 444.702477 -195.749007 
L 448.680572 -195.692234 
L 452.658667 -195.650004 
L 452.658667 -195.538011 
L 452.658667 -195.538011 
L 448.680572 -195.538011 
L 444.702477 -195.538011 
L 440.724383 -195.538011 
L 436.746288 -195.538011 
L 432.768193 -195.538011 
L 428.790098 -195.538011 
L 424.812003 -195.538011 
L 420.833908 -195.538011 
L 416.855813 -195.538011 
L 412.877718 -195.538011 
L 408.899623 -195.538011 
L 404.921529 -195.538011 
L 400.943434 -195.538011 
L 396.965339 -195.538011 
L 392.987244 -195.538011 
L 389.009149 -195.538011 
L 385.031054 -195.538011 
L 381.052959 -195.538011 
L 377.074864 -195.538011 
L 373.096769 -195.538011 
L 369.118674 -195.538011 
L 365.14058 -195.538011 
L 361.162485 -195.538011 
L 357.18439 -195.538011 
L 353.206295 -195.538011 
L 349.2282 -195.538011 
L 345.250105 -195.538011 
L 341.27201 -195.538011 
L 337.293915 -195.538011 
L 333.31582 -195.538011 
L 329.337726 -195.538011 
L 325.359631 -195.538011 
L 321.381536 -195.538011 
L 317.403441 -195.538011 
L 313.425346 -195.538011 
L 309.447251 -195.538011 
L 305.469156 -195.538011 
L 301.491061 -195.538011 
L 297.512966 -195.538011 
L 293.534871 -195.538011 
L 289.556777 -195.538011 
L 285.578682 -195.538011 
L 281.600587 -195.538011 
L 277.622492 -195.538011 
L 273.644397 -195.538011 
L 269.666302 -195.538011 
L 265.688207 -195.538011 
L 261.710112 -195.538011 
L 257.732017 -195.538011 
L 253.753923 -195.538011 
L 249.775828 -195.538011 
L 245.797733 -195.538011 
L 241.819638 -195.538011 
L 237.841543 -195.538011 
L 233.863448 -195.538011 
L 229.885353 -195.538011 
L 225.907258 -195.538011 
L 221.929163 -195.538011 
L 217.951068 -195.538011 
L 213.972974 -195.538011 
L 209.994879 -195.538011 
L 206.016784 -195.538011 
L 202.038689 -195.538011 
L 198.060594 -195.538011 
L 194.082499 -195.538011 
L 190.104404 -195.538011 
L 186.126309 -195.538011 
L 182.148214 -195.538011 
L 178.17012 -195.538011 
L 174.192025 -195.538011 
L 170.21393 -195.538011 
L 166.235835 -195.538011 
L 162.25774 -195.538011 
L 158.279645 -195.538011 
L 154.30155 -195.538011 
L 150.323455 -195.538011 
L 146.34536 -195.538011 
L 142.367266 -195.538011 
L 138.389171 -195.538011 
L 134.411076 -195.538011 
L 130.432981 -195.538011 
L 126.454886 -195.538011 
L 122.476791 -195.538011 
L 118.498696 -195.538011 
L 114.520601 -195.538011 
L 110.542506 -195.538011 
L 106.564411 -195.538011 
L 102.586317 -195.538011 
L 98.608222 -195.538011 
L 94.630127 -195.538011 
L 90.652032 -195.538011 
L 86.673937 -195.538011 
L 82.695842 -195.538011 
L 78.717747 -195.538011 
L 74.739652 -195.538011 
L 70.761557 -195.538011 
L 66.783463 -195.538011 
L 62.805368 -195.538011 
L 58.827273 -195.538011 
z
" id="mb80ee19a71" style="stroke:#36a2eb;stroke-opacity:0.5;"/>
    </defs>
    <g clip-path="url(#p1d3287a5ca)">
     <use style="fill:#36a2eb;fill-opacity:0.5;stroke:#36a2eb;stroke-opacity:0.5;" x="0" xlink:href="#mb80ee19a71" y="581.789375"/>
    </g>
   </g>
   <g id="line2d_1">
    <path clip-path="url(#p1d3287a5ca)" d="M 74.10673 386.15141 
L 78.563962 386.113719 
L 83.021195 386.063049 
L 87.478427 385.995404 
L 91.935659 385.905724 
L 96.392891 385.78766 
L 100.850124 385.633318 
L 105.307356 385.432965 
L 109.764588 385.174716 
L 114.221821 384.844194 
L 118.679053 384.424176 
L 123.136285 383.894231 
L 127.593517 383.230376 
L 132.05075 382.404755 
L 136.507982 381.385375 
L 140.965214 380.135915 
L 145.422447 378.615651 
L 149.879679 376.779511 
L 154.336911 374.578314 
L 158.794144 371.959204 
L 163.251376 368.866334 
L 167.708608 365.241797 
L 172.16584 361.026848 
L 176.623073 356.163409 
L 181.080305 350.59586 
L 185.537537 344.273091 
L 189.99477 337.150783 
L 194.452002 329.193859 
L 198.909234 320.379037 
L 203.366467 310.697389 
L 207.823699 300.156805 
L 212.280931 288.784234 
L 216.738163 276.627596 
L 221.195396 263.757211 
L 225.652628 250.266657 
L 230.10986 236.272914 
L 234.567093 221.915734 
L 239.024325 207.356164 
L 243.481557 192.774196 
L 247.938789 178.365559 
L 252.396022 164.337707 
L 256.853254 150.905102 
L 261.310486 138.283923 
L 265.767719 126.686384 
L 270.224951 116.314863 
L 274.682183 107.356054 
L 279.139416 99.975398 
L 283.596648 94.312007 
L 288.05388 90.474305 
L 292.511112 88.536577 
L 296.968345 88.536577 
L 301.425577 90.474305 
L 305.882809 94.312007 
L 310.340042 99.975398 
L 314.797274 107.356054 
L 319.254506 116.314863 
L 323.711739 126.686384 
L 328.168971 138.283923 
L 332.626203 150.905102 
L 337.083435 164.337707 
L 341.540668 178.365559 
L 345.9979 192.774196 
L 350.455132 207.356164 
L 354.912365 221.915734 
L 359.369597 236.272914 
L 363.826829 250.266657 
L 368.284061 263.757211 
L 372.741294 276.627596 
L 377.198526 288.784234 
L 381.655758 300.156805 
L 386.112991 310.697389 
L 390.570223 320.379037 
L 395.027455 329.193859 
L 399.484688 337.150783 
L 403.94192 344.273091 
L 408.399152 350.59586 
L 412.856384 356.163409 
L 417.313617 361.026848 
L 421.770849 365.241797 
L 426.228081 368.866334 
L 430.685314 371.959204 
L 435.142546 374.578314 
L 439.599778 376.779511 
L 444.057011 378.615651 
L 448.514243 380.135915 
L 452.971475 381.385375 
L 457.428707 382.404755 
L 461.88594 383.230376 
L 466.343172 383.894231 
L 470.800404 384.424176 
L 475.257637 384.844194 
L 479.714869 385.174716 
L 484.172101 385.432965 
L 488.629333 385.633318 
L 493.086566 385.78766 
L 497.543798 385.905724 
L 502.00103 385.995404 
L 506.458263 386.063049 
L 510.915495 386.113719 
L 515.372727 386.15141 
" style="fill:none;stroke:#ff6384;stroke-linecap:square;"/>
   </g>
   <g id="line2d_2">
    <path clip-path="url(#p1d3287a5ca)" d="M 58.827273 386.139371 
L 62.805368 386.097141 
L 66.783463 386.040368 
L 70.761557 385.964575 
L 74.739652 385.864094 
L 78.717747 385.73181 
L 82.695842 385.558878 
L 86.673937 385.334393 
L 90.652032 385.04504 
L 94.630127 384.674709 
L 98.608222 384.204102 
L 102.586317 383.610328 
L 106.564411 382.866516 
L 110.542506 381.941454 
L 114.520601 380.799296 
L 118.498696 379.399346 
L 122.476791 377.695976 
L 126.454886 375.638684 
L 130.432981 373.172366 
L 134.411076 370.2378 
L 138.389171 366.772413 
L 142.367266 362.711322 
L 146.34536 357.988708 
L 150.323455 352.539497 
L 154.30155 346.301371 
L 158.279645 339.217063 
L 162.25774 331.236916 
L 166.235835 322.321628 
L 170.21393 312.445114 
L 174.192025 301.597371 
L 178.17012 289.787238 
L 182.148214 277.04491 
L 186.126309 263.424078 
L 190.104404 249.003534 
L 194.082499 233.888124 
L 198.060594 218.208919 
L 202.038689 202.122504 
L 206.016784 185.809323 
L 209.994879 169.471045 
L 213.972974 153.326975 
L 217.951068 137.609553 
L 221.929163 122.559072 
L 225.907258 108.417748 
L 229.885353 95.423357 
L 233.863448 83.802649 
L 237.841543 73.764805 
L 241.819638 65.495194 
L 245.797733 59.149682 
L 249.775828 54.849752 
L 253.753923 52.678636 
L 257.732017 52.678636 
L 261.710112 54.849752 
L 265.688207 59.149682 
L 269.666302 65.495194 
L 273.644397 73.764805 
L 277.622492 83.802649 
L 281.600587 95.423357 
L 285.578682 108.417748 
L 289.556777 122.559072 
L 293.534871 137.609553 
L 297.512966 153.326975 
L 301.491061 169.471045 
L 305.469156 185.809323 
L 309.447251 202.122504 
L 313.425346 218.208919 
L 317.403441 233.888124 
L 321.381536 249.003534 
L 325.359631 263.424078 
L 329.337726 277.04491 
L 333.31582 289.787238 
L 337.293915 301.597371 
L 341.27201 312.445114 
L 345.250105 322.321628 
L 349.2282 331.236916 
L 353.206295 339.217063 
L 357.18439 346.301371 
L 361.162485 352.539497 
L 365.14058 357.988708 
L 369.118674 362.711322 
L 373.096769 366.772413 
L 377.074864 370.2378 
L 381.052959 373.172366 
L 385.031054 375.638684 
L 389.009149 377.695976 
L 392.987244 379.399346 
L 396.965339 380.799296 
L 400.943434 381.941454 
L 404.921529 382.866516 
L 408.899623 383.610328 
L 412.877718 384.204102 
L 416.855813 384.674709 
L 420.833908 385.04504 
L 424.812003 385.334393 
L 428.790098 385.558878 
L 432.768193 385.73181 
L 436.746288 385.864094 
L 440.724383 385.964575 
L 444.702477 386.040368 
L 448.680572 386.097141 
L 452.658667 386.139371 
" style="fill:none;stroke:#36a2eb;stroke-linecap:square;"/>
   </g>
   <g id="patch_3">
    <path d="M 36 402.93 
L 538.2 402.93 
" style="fill:none;stroke:#000000;stroke-linecap:square;stroke-linejoin:miter;stroke-width:0.8;"/>
   </g>
   <g id="legend_1">
    <g id="patch_4">
     <path d="M 450.225313 88.29875 
L 528.4 88.29875 
Q 531.2 88.29875 531.2 85.49875 
L 531.2 45.8 
Q 531.2 43 528.4 43 
L 450.225313 43 
Q 447.425313 43 447.425313 45.8 
L 447.425313 85.49875 
Q 447.425313 88.29875 450.225313 88.29875 
z
" style="fill:#ffffff;opacity:0.8;stroke:#cccccc;stroke-linejoin:miter;"/>
    </g>
    <g id="patch_5">
     <path d="M 453.025313 59.237813 
L 481.025313 59.237813 
L 481.025313 49.437813 
L 453.025313 49.437813 
z
" style="fill:#ff6384;opacity:0.5;stroke:#ff6384;stroke-linejoin:miter;"/>
    </g>
    <g id="text_1">
     <!-- base -->
     <defs>
      <path d="M 48.6875 27.296875 
Q 48.6875 37.203125 44.609375 42.84375 
Q 40.53125 48.484375 33.40625 48.484375 
Q 26.265625 48.484375 22.1875 42.84375 
Q 18.109375 37.203125 18.109375 27.296875 
Q 18.109375 17.390625 22.1875 11.75 
Q 26.265625 6.109375 33.40625 6.109375 
Q 40.53125 6.109375 44.609375 11.75 
Q 48.6875 17.390625 48.6875 27.296875 
z
M 18.109375 46.390625 
Q 20.953125 51.265625 25.265625 53.625 
Q 29.59375 56 35.59375 56 
Q 45.5625 56 51.78125 48.09375 
Q 58.015625 40.1875 58.015625 27.296875 
Q 58.015625 14.40625 51.78125 6.484375 
Q 45.5625 -1.421875 35.59375 -1.421875 
Q 29.59375 -1.421875 25.265625 0.953125 
Q 20.953125 3.328125 18.109375 8.203125 
L 18.109375 0 
L 9.078125 0 
L 9.078125 75.984375 
L 18.109375 75.984375 
z
" id="DejaVuSans-98"/>
      <path d="M 34.28125 27.484375 
Q 23.390625 27.484375 19.1875 25 
Q 14.984375 22.515625 14.984375 16.5 
Q 14.984375 11.71875 18.140625 8.90625 
Q 21.296875 6.109375 26.703125 6.109375 
Q 34.1875 6.109375 38.703125 11.40625 
Q 43.21875 16.703125 43.21875 25.484375 
L 43.21875 27.484375 
z
M 52.203125 31.203125 
L 52.203125 0 
L 43.21875 0 
L 43.21875 8.296875 
Q 40.140625 3.328125 35.546875 0.953125 
Q 30.953125 -1.421875 24.3125 -1.421875 
Q 15.921875 -1.421875 10.953125 3.296875 
Q 6 8.015625 6 15.921875 
Q 6 25.140625 12.171875 29.828125 
Q 18.359375 34.515625 30.609375 34.515625 
L 43.21875 34.515625 
L 43.21875 35.40625 
Q 43.21875 41.609375 39.140625 45 
Q 35.0625 48.390625 27.6875 48.390625 
Q 23 48.390625 18.546875 47.265625 
Q 14.109375 46.140625 10.015625 43.890625 
L 10.015625 52.203125 
Q 14.9375 54.109375 19.578125 55.046875 
Q 24.21875 56 28.609375 56 
Q 40.484375 56 46.34375 49.84375 
Q 52.203125 43.703125 52.203125 31.203125 
z
" id="DejaVuSans-97"/>
      <path d="M 44.28125 53.078125 
L 44.28125 44.578125 
Q 40.484375 46.53125 36.375 47.5 
Q 32.28125 48.484375 27.875 48.484375 
Q 21.1875 48.484375 17.84375 46.4375 
Q 14.5 44.390625 14.5 40.28125 
Q 14.5 37.15625 16.890625 35.375 
Q 19.28125 33.59375 26.515625 31.984375 
L 29.59375 31.296875 
Q 39.15625 29.25 43.1875 25.515625 
Q 47.21875 21.78125 47.21875 15.09375 
Q 47.21875 7.46875 41.1875 3.015625 
Q 35.15625 -1.421875 24.609375 -1.421875 
Q 20.21875 -1.421875 15.453125 -0.5625 
Q 10.6875 0.296875 5.421875 2 
L 5.421875 11.28125 
Q 10.40625 8.6875 15.234375 7.390625 
Q 20.0625 6.109375 24.8125 6.109375 
Q 31.15625 6.109375 34.5625 8.28125 
Q 37.984375 10.453125 37.984375 14.40625 
Q 37.984375 18.0625 35.515625 20.015625 
Q 33.0625 21.96875 24.703125 23.78125 
L 21.578125 24.515625 
Q 13.234375 26.265625 9.515625 29.90625 
Q 5.8125 33.546875 5.8125 39.890625 
Q 5.8125 47.609375 11.28125 51.796875 
Q 16.75 56 26.8125 56 
Q 31.78125 56 36.171875 55.265625 
Q 40.578125 54.546875 44.28125 53.078125 
z
" id="DejaVuSans-115"/>
      <path d="M 56.203125 29.59375 
L 56.203125 25.203125 
L 14.890625 25.203125 
Q 15.484375 15.921875 20.484375 11.0625 
Q 25.484375 6.203125 34.421875 6.203125 
Q 39.59375 6.203125 44.453125 7.46875 
Q 49.3125 8.734375 54.109375 11.28125 
L 54.109375 2.78125 
Q 49.265625 0.734375 44.1875 -0.34375 
Q 39.109375 -1.421875 33.890625 -1.421875 
Q 20.796875 -1.421875 13.15625 6.1875 
Q 5.515625 13.8125 5.515625 26.8125 
Q 5.515625 40.234375 12.765625 48.109375 
Q 20.015625 56 32.328125 56 
Q 43.359375 56 49.78125 48.890625 
Q 56.203125 41.796875 56.203125 29.59375 
z
M 47.21875 32.234375 
Q 47.125 39.59375 43.09375 43.984375 
Q 39.0625 48.390625 32.421875 48.390625 
Q 24.90625 48.390625 20.390625 44.140625 
Q 15.875 39.890625 15.1875 32.171875 
z
" id="DejaVuSans-101"/>
     </defs>
     <g transform="translate(492.225313 59.237813)scale(0.14 -0.14)">
      <use xlink:href="#DejaVuSans-98"/>
      <use x="63.476562" xlink:href="#DejaVuSans-97"/>
      <use x="124.755859" xlink:href="#DejaVuSans-115"/>
      <use x="176.855469" xlink:href="#DejaVuSans-101"/>
     </g>
    </g>
    <g id="patch_6">
     <path d="M 453.025313 79.787188 
L 481.025313 79.787188 
L 481.025313 69.987188 
L 453.025313 69.987188 
z
" style="fill:#36a2eb;opacity:0.5;stroke:#36a2eb;stroke-linejoin:miter;"/>
    </g>
    <g id="text_2">
     <!-- new -->
     <defs>
      <path d="M 54.890625 33.015625 
L 54.890625 0 
L 45.90625 0 
L 45.90625 32.71875 
Q 45.90625 40.484375 42.875 44.328125 
Q 39.84375 48.1875 33.796875 48.1875 
Q 26.515625 48.1875 22.3125 43.546875 
Q 18.109375 38.921875 18.109375 30.90625 
L 18.109375 0 
L 9.078125 0 
L 9.078125 54.6875 
L 18.109375 54.6875 
L 18.109375 46.1875 
Q 21.34375 51.125 25.703125 53.5625 
Q 30.078125 56 35.796875 56 
Q 45.21875 56 50.046875 50.171875 
Q 54.890625 44.34375 54.890625 33.015625 
z
" id="DejaVuSans-110"/>
      <path d="M 4.203125 54.6875 
L 13.1875 54.6875 
L 24.421875 12.015625 
L 35.59375 54.6875 
L 46.1875 54.6875 
L 57.421875 12.015625 
L 68.609375 54.6875 
L 77.59375 54.6875 
L 63.28125 0 
L 52.6875 0 
L 40.921875 44.828125 
L 29.109375 0 
L 18.5 0 
z
" id="DejaVuSans-119"/>
     </defs>
     <g transform="translate(492.225313 79.787188)scale(0.14 -0.14)">
      <use xlink:href="#DejaVuSans-110"/>
      <use x="63.378906" xlink:href="#DejaVuSans-101"/>
      <use x="124.902344" xlink:href="#DejaVuSans-119"/>
     </g>
    </g>
   </g>
  </g>
  <g id="axes_2">
   <g id="patch_7">
    <path d="M 36 525.24 
L 538.2 525.24 
L 538.2 402.93 
L 36 402.93 
z
" style="fill:none;"/>
   </g>
   <g id="patch_8">
    <path clip-path="url(#pc4b2ecedf0)" d="M 186.629559 519.680455 
L 402.849898 519.680455 
L 402.849898 482.616818 
L 186.629559 482.616818 
z
" style="fill:#ff6384;opacity:0.5;"/>
   </g>
   <g id="patch_9">
    <path clip-path="url(#pc4b2ecedf0)" d="M 159.254278 445.553182 
L 352.231662 445.553182 
L 352.231662 408.489545 
L 159.254278 408.489545 
z
" style="fill:#36a2eb;opacity:0.5;"/>
   </g>
   <g id="matplotlib.axis_1">
    <g id="xtick_1">
     <g id="line2d_3">
      <defs>
       <path d="M 0 0 
L 0 3.5 
" id="m31bf4b6f83" style="stroke:#000000;stroke-width:0.8;"/>
      </defs>
      <g>
       <use style="stroke:#000000;stroke-width:0.8;" x="105.995417" xlink:href="#m31bf4b6f83" y="525.24"/>
      </g>
     </g>
     <g id="text_3">
      <!-- 2.5 -->
      <defs>
       <path d="M 19.1875 8.296875 
L 53.609375 8.296875 
L 53.609375 0 
L 7.328125 0 
L 7.328125 8.296875 
Q 12.9375 14.109375 22.625 23.890625 
Q 32.328125 33.6875 34.8125 36.53125 
Q 39.546875 41.84375 41.421875 45.53125 
Q 43.3125 49.21875 43.3125 52.78125 
Q 43.3125 58.59375 39.234375 62.25 
Q 35.15625 65.921875 28.609375 65.921875 
Q 23.96875 65.921875 18.8125 64.3125 
Q 13.671875 62.703125 7.8125 59.421875 
L 7.8125 69.390625 
Q 13.765625 71.78125 18.9375 73 
Q 24.125 74.21875 28.421875 74.21875 
Q 39.75 74.21875 46.484375 68.546875 
Q 53.21875 62.890625 53.21875 53.421875 
Q 53.21875 48.921875 51.53125 44.890625 
Q 49.859375 40.875 45.40625 35.40625 
Q 44.1875 33.984375 37.640625 27.21875 
Q 31.109375 20.453125 19.1875 8.296875 
z
" id="DejaVuSans-50"/>
       <path d="M 10.6875 12.40625 
L 21 12.40625 
L 21 0 
L 10.6875 0 
z
" id="DejaVuSans-46"/>
       <path d="M 10.796875 72.90625 
L 49.515625 72.90625 
L 49.515625 64.59375 
L 19.828125 64.59375 
L 19.828125 46.734375 
Q 21.96875 47.46875 24.109375 47.828125 
Q 26.265625 48.1875 28.421875 48.1875 
Q 40.625 48.1875 47.75 41.5 
Q 54.890625 34.8125 54.890625 23.390625 
Q 54.890625 11.625 47.5625 5.09375 
Q 40.234375 -1.421875 26.90625 -1.421875 
Q 22.3125 -1.421875 17.546875 -0.640625 
Q 12.796875 0.140625 7.71875 1.703125 
L 7.71875 11.625 
Q 12.109375 9.234375 16.796875 8.0625 
Q 21.484375 6.890625 26.703125 6.890625 
Q 35.15625 6.890625 40.078125 11.328125 
Q 45.015625 15.765625 45.015625 23.390625 
Q 45.015625 31 40.078125 35.4375 
Q 35.15625 39.890625 26.703125 39.890625 
Q 22.75 39.890625 18.8125 39.015625 
Q 14.890625 38.140625 10.796875 36.28125 
z
" id="DejaVuSans-53"/>
      </defs>
      <g transform="translate(94.863229 542.877813)scale(0.14 -0.14)">
       <use xlink:href="#DejaVuSans-50"/>
       <use x="63.623047" xlink:href="#DejaVuSans-46"/>
       <use x="95.410156" xlink:href="#DejaVuSans-53"/>
      </g>
     </g>
    </g>
    <g id="xtick_2">
     <g id="line2d_4">
      <g>
       <use style="stroke:#000000;stroke-width:0.8;" x="183.988934" xlink:href="#m31bf4b6f83" y="525.24"/>
      </g>
     </g>
     <g id="text_4">
      <!-- 3.0 -->
      <defs>
       <path d="M 40.578125 39.3125 
Q 47.65625 37.796875 51.625 33 
Q 55.609375 28.21875 55.609375 21.1875 
Q 55.609375 10.40625 48.1875 4.484375 
Q 40.765625 -1.421875 27.09375 -1.421875 
Q 22.515625 -1.421875 17.65625 -0.515625 
Q 12.796875 0.390625 7.625 2.203125 
L 7.625 11.71875 
Q 11.71875 9.328125 16.59375 8.109375 
Q 21.484375 6.890625 26.8125 6.890625 
Q 36.078125 6.890625 40.9375 10.546875 
Q 45.796875 14.203125 45.796875 21.1875 
Q 45.796875 27.640625 41.28125 31.265625 
Q 36.765625 34.90625 28.71875 34.90625 
L 20.21875 34.90625 
L 20.21875 43.015625 
L 29.109375 43.015625 
Q 36.375 43.015625 40.234375 45.921875 
Q 44.09375 48.828125 44.09375 54.296875 
Q 44.09375 59.90625 40.109375 62.90625 
Q 36.140625 65.921875 28.71875 65.921875 
Q 24.65625 65.921875 20.015625 65.03125 
Q 15.375 64.15625 9.8125 62.3125 
L 9.8125 71.09375 
Q 15.4375 72.65625 20.34375 73.4375 
Q 25.25 74.21875 29.59375 74.21875 
Q 40.828125 74.21875 47.359375 69.109375 
Q 53.90625 64.015625 53.90625 55.328125 
Q 53.90625 49.265625 50.4375 45.09375 
Q 46.96875 40.921875 40.578125 39.3125 
z
" id="DejaVuSans-51"/>
       <path d="M 31.78125 66.40625 
Q 24.171875 66.40625 20.328125 58.90625 
Q 16.5 51.421875 16.5 36.375 
Q 16.5 21.390625 20.328125 13.890625 
Q 24.171875 6.390625 31.78125 6.390625 
Q 39.453125 6.390625 43.28125 13.890625 
Q 47.125 21.390625 47.125 36.375 
Q 47.125 51.421875 43.28125 58.90625 
Q 39.453125 66.40625 31.78125 66.40625 
z
M 31.78125 74.21875 
Q 44.046875 74.21875 50.515625 64.515625 
Q 56.984375 54.828125 56.984375 36.375 
Q 56.984375 17.96875 50.515625 8.265625 
Q 44.046875 -1.421875 31.78125 -1.421875 
Q 19.53125 -1.421875 13.0625 8.265625 
Q 6.59375 17.96875 6.59375 36.375 
Q 6.59375 54.828125 13.0625 64.515625 
Q 19.53125 74.21875 31.78125 74.21875 
z
" id="DejaVuSans-48"/>
      </defs>
      <g transform="translate(172.856747 542.877813)scale(0.14 -0.14)">
       <use xlink:href="#DejaVuSans-51"/>
       <use x="63.623047" xlink:href="#DejaVuSans-46"/>
       <use x="95.410156" xlink:href="#DejaVuSans-48"/>
      </g>
     </g>
    </g>
    <g id="xtick_3">
     <g id="line2d_5">
      <g>
       <use style="stroke:#000000;stroke-width:0.8;" x="261.982451" xlink:href="#m31bf4b6f83" y="525.24"/>
      </g>
     </g>
     <g id="text_5">
      <!-- 3.5 -->
      <g transform="translate(250.850264 542.877813)scale(0.14 -0.14)">
       <use xlink:href="#DejaVuSans-51"/>
       <use x="63.623047" xlink:href="#DejaVuSans-46"/>
       <use x="95.410156" xlink:href="#DejaVuSans-53"/>
      </g>
     </g>
    </g>
    <g id="xtick_4">
     <g id="line2d_6">
      <g>
       <use style="stroke:#000000;stroke-width:0.8;" x="339.975969" xlink:href="#m31bf4b6f83" y="525.24"/>
      </g>
     </g>
     <g id="text_6">
      <!-- 4.0 -->
      <defs>
       <path d="M 37.796875 64.3125 
L 12.890625 25.390625 
L 37.796875 25.390625 
z
M 35.203125 72.90625 
L 47.609375 72.90625 
L 47.609375 25.390625 
L 58.015625 25.390625 
L 58.015625 17.1875 
L 47.609375 17.1875 
L 47.609375 0 
L 37.796875 0 
L 37.796875 17.1875 
L 4.890625 17.1875 
L 4.890625 26.703125 
z
" id="DejaVuSans-52"/>
      </defs>
      <g transform="translate(328.843781 542.877813)scale(0.14 -0.14)">
       <use xlink:href="#DejaVuSans-52"/>
       <use x="63.623047" xlink:href="#DejaVuSans-46"/>
       <use x="95.410156" xlink:href="#DejaVuSans-48"/>
      </g>
     </g>
    </g>
    <g id="xtick_5">
     <g id="line2d_7">
      <g>
       <use style="stroke:#000000;stroke-width:0.8;" x="417.969486" xlink:href="#m31bf4b6f83" y="525.24"/>
      </g>
     </g>
     <g id="text_7">
      <!-- 4.5 -->
      <g transform="translate(406.837298 542.877813)scale(0.14 -0.14)">
       <use xlink:href="#DejaVuSans-52"/>
       <use x="63.623047" xlink:href="#DejaVuSans-46"/>
       <use x="95.410156" xlink:href="#DejaVuSans-53"/>
      </g>
     </g>
    </g>
    <g id="xtick_6">
     <g id="line2d_8">
      <g>
       <use style="stroke:#000000;stroke-width:0.8;" x="495.963003" xlink:href="#m31bf4b6f83" y="525.24"/>
      </g>
     </g>
     <g id="text_8">
      <!-- 5.0 -->
      <g transform="translate(484.830816 542.877813)scale(0.14 -0.14)">
       <use xlink:href="#DejaVuSans-53"/>
       <use x="63.623047" xlink:href="#DejaVuSans-46"/>
       <use x="95.410156" xlink:href="#DejaVuSans-48"/>
      </g>
     </g>
    </g>
   </g>
   <g id="line2d_9">
    <path clip-path="url(#pc4b2ecedf0)" d="M 294.739729 525.24 
L 294.739729 402.93 
" style="fill:none;stroke:#ff6384;stroke-dasharray:5.55,2.4;stroke-dashoffset:0;stroke-opacity:0.8;stroke-width:1.5;"/>
   </g>
   <g id="line2d_10">
    <path clip-path="url(#pc4b2ecedf0)" d="M 255.74297 525.24 
L 255.74297 402.93 
" style="fill:none;stroke:#36a2eb;stroke-dasharray:5.55,2.4;stroke-dashoffset:0;stroke-opacity:0.8;stroke-width:1.5;"/>
   </g>
   <g id="patch_10">
    <path d="M 36 525.24 
L 538.2 525.24 
" style="fill:none;stroke:#000000;stroke-linecap:square;stroke-linejoin:miter;stroke-width:0.8;"/>
   </g>
  </g>
 </g>
 <defs>
  <clipPath id="p1d3287a5ca">
   <rect height="366.93" width="502.2" x="36" y="36"/>
  </clipPath>
  <clipPath id="pc4b2ecedf0">
   <rect height="122.31" width="502.2" x="36" y="402.93"/>
  </clipPath>
 </defs>
</svg>
