<?xml version="1.0" encoding="utf-8" standalone="no"?>
<!DOCTYPE svg PUBLIC "-//W3C//DTD SVG 1.1//EN"
  "http://www.w3.org/Graphics/SVG/1.1/DTD/svg11.dtd">
<!-- Created with matplotlib (https://matplotlib.org/) -->
<svg height="581.789375pt" version="1.1" viewBox="0 0 574.2 581.789375" width="574.2pt" xmlns="http://www.w3.org/2000/svg" xmlns:xlink="http://www.w3.org/1999/xlink">
 <defs>
  <style type="text/css">
*{stroke-linecap:butt;stroke-linejoin:round;}
  </style>
 </defs>
 <g id="figure_1">
  <g id="patch_1">
   <path d="M 0 581.789375 
L 574.2 581.789375 
L 574.2 0 
L 0 0 
z
" style="fill:none;"/>
  </g>
  <g id="axes_1">
   <g id="patch_2">
    <path d="M 36 402.93 
L 538.2 402.93 
L 538.2 36 
L 36 36 
z
" style="fill:none;"/>
   </g>
   <g id="PolyCollection_1">
    <defs>
     <path d="M 59.254284 -195.538011 
L 59.254284 -195.6389 
L 63.861541 -195.676944 
L 68.468798 -195.728088 
L 73.076055 -195.796366 
L 77.683312 -195.886885 
L 82.290569 -196.006054 
L 86.897826 -196.16184 
L 91.505083 -196.364068 
L 96.11234 -196.624734 
L 100.719597 -196.958348 
L 105.326854 -197.382297 
L 109.934111 -197.917201 
L 114.541368 -198.587268 
L 119.148625 -199.420614 
L 123.755882 -200.449533 
L 128.363139 -201.710684 
L 132.970396 -203.245174 
L 137.577653 -205.098495 
L 142.18491 -207.320289 
L 146.792167 -209.963907 
L 151.399424 -213.085718 
L 156.006681 -216.744171 
L 160.613938 -220.99856 
L 165.221195 -225.907508 
L 169.828452 -231.527154 
L 174.435709 -237.909087 
L 179.042966 -245.098041 
L 183.650223 -253.12942 
L 188.25748 -262.026725 
L 192.864737 -271.798966 
L 197.471994 -282.438182 
L 202.079251 -293.917169 
L 206.686508 -306.187561 
L 211.293765 -319.178377 
L 215.901022 -332.795166 
L 220.508279 -346.919853 
L 225.115536 -361.411377 
L 229.722793 -376.107185 
L 234.33005 -390.825601 
L 238.937307 -405.369064 
L 243.544564 -419.528178 
L 248.151821 -433.086477 
L 252.759078 -445.825756 
L 257.366335 -457.531816 
L 261.973592 -468.000386 
L 266.580849 -477.043026 
L 271.188106 -484.492745 
L 275.795363 -490.20913 
L 280.40262 -494.082742 
L 285.009877 -496.038602 
L 289.617134 -496.038602 
L 294.224391 -494.082742 
L 298.831648 -490.20913 
L 303.438905 -484.492745 
L 308.046162 -477.043026 
L 312.653419 -468.000386 
L 317.260676 -457.531816 
L 321.867933 -445.825756 
L 326.47519 -433.086477 
L 331.082447 -419.528178 
L 335.689704 -405.369064 
L 340.296961 -390.825601 
L 344.904218 -376.107185 
L 349.511475 -361.411377 
L 354.118732 -346.919853 
L 358.725989 -332.795166 
L 363.333246 -319.178377 
L 367.940503 -306.187561 
L 372.54776 -293.917169 
L 377.155017 -282.438182 
L 381.762274 -271.798966 
L 386.369531 -262.026725 
L 390.976788 -253.12942 
L 395.584045 -245.098041 
L 400.191302 -237.909087 
L 404.798559 -231.527154 
L 409.405816 -225.907508 
L 414.013073 -220.99856 
L 418.62033 -216.744171 
L 423.227587 -213.085718 
L 427.834844 -209.963907 
L 432.442101 -207.320289 
L 437.049358 -205.098495 
L 441.656615 -203.245174 
L 446.263872 -201.710684 
L 450.871129 -200.449533 
L 455.478386 -199.420614 
L 460.085643 -198.587268 
L 464.6929 -197.917201 
L 469.300157 -197.382297 
L 473.907414 -196.958348 
L 478.514671 -196.624734 
L 483.121928 -196.364068 
L 487.729185 -196.16184 
L 492.336442 -196.006054 
L 496.943699 -195.886885 
L 501.550956 -195.796366 
L 506.158213 -195.728088 
L 510.76547 -195.676944 
L 515.372727 -195.6389 
L 515.372727 -195.538011 
L 515.372727 -195.538011 
L 510.76547 -195.538011 
L 506.158213 -195.538011 
L 501.550956 -195.538011 
L 496.943699 -195.538011 
L 492.336442 -195.538011 
L 487.729185 -195.538011 
L 483.121928 -195.538011 
L 478.514671 -195.538011 
L 473.907414 -195.538011 
L 469.300157 -195.538011 
L 464.6929 -195.538011 
L 460.085643 -195.538011 
L 455.478386 -195.538011 
L 450.871129 -195.538011 
L 446.263872 -195.538011 
L 441.656615 -195.538011 
L 437.049358 -195.538011 
L 432.442101 -195.538011 
L 427.834844 -195.538011 
L 423.227587 -195.538011 
L 418.62033 -195.538011 
L 414.013073 -195.538011 
L 409.405816 -195.538011 
L 404.798559 -195.538011 
L 400.191302 -195.538011 
L 395.584045 -195.538011 
L 390.976788 -195.538011 
L 386.369531 -195.538011 
L 381.762274 -195.538011 
L 377.155017 -195.538011 
L 372.54776 -195.538011 
L 367.940503 -195.538011 
L 363.333246 -195.538011 
L 358.725989 -195.538011 
L 354.118732 -195.538011 
L 349.511475 -195.538011 
L 344.904218 -195.538011 
L 340.296961 -195.538011 
L 335.689704 -195.538011 
L 331.082447 -195.538011 
L 326.47519 -195.538011 
L 321.867933 -195.538011 
L 317.260676 -195.538011 
L 312.653419 -195.538011 
L 308.046162 -195.538011 
L 303.438905 -195.538011 
L 298.831648 -195.538011 
L 294.224391 -195.538011 
L 289.617134 -195.538011 
L 285.009877 -195.538011 
L 280.40262 -195.538011 
L 275.795363 -195.538011 
L 271.188106 -195.538011 
L 266.580849 -195.538011 
L 261.973592 -195.538011 
L 257.366335 -195.538011 
L 252.759078 -195.538011 
L 248.151821 -195.538011 
L 243.544564 -195.538011 
L 238.937307 -195.538011 
L 234.33005 -195.538011 
L 229.722793 -195.538011 
L 225.115536 -195.538011 
L 220.508279 -195.538011 
L 215.901022 -195.538011 
L 211.293765 -195.538011 
L 206.686508 -195.538011 
L 202.079251 -195.538011 
L 197.471994 -195.538011 
L 192.864737 -195.538011 
L 188.25748 -195.538011 
L 183.650223 -195.538011 
L 179.042966 -195.538011 
L 174.435709 -195.538011 
L 169.828452 -195.538011 
L 165.221195 -195.538011 
L 160.613938 -195.538011 
L 156.006681 -195.538011 
L 151.399424 -195.538011 
L 146.792167 -195.538011 
L 142.18491 -195.538011 
L 137.577653 -195.538011 
L 132.970396 -195.538011 
L 128.363139 -195.538011 
L 123.755882 -195.538011 
L 119.148625 -195.538011 
L 114.541368 -195.538011 
L 109.934111 -195.538011 
L 105.326854 -195.538011 
L 100.719597 -195.538011 
L 96.11234 -195.538011 
L 91.505083 -195.538011 
L 86.897826 -195.538011 
L 82.290569 -195.538011 
L 77.683312 -195.538011 
L 73.076055 -195.538011 
L 68.468798 -195.538011 
L 63.861541 -195.538011 
L 59.254284 -195.538011 
z
" id="m08b341271e" style="stroke:#ff6384;stroke-opacity:0.5;"/>
    </defs>
    <g clip-path="url(#p2b4045f1f6)">
     <use style="fill:#ff6384;fill-opacity:0.5;stroke:#ff6384;stroke-opacity:0.5;" x="0" xlink:href="#m08b341271e" y="581.789375"/>
    </g>
   </g>
   <g id="PolyCollection_2">
    <defs>
     <path d="M 58.827273 -195.538011 
L 58.827273 -195.650004 
L 62.977742 -195.692234 
L 67.128212 -195.749007 
L 71.278681 -195.8248 
L 75.429151 -195.925281 
L 79.579621 -196.057565 
L 83.73009 -196.230497 
L 87.88056 -196.454982 
L 92.031029 -196.744335 
L 96.181499 -197.114666 
L 100.331968 -197.585273 
L 104.482438 -198.179047 
L 108.632907 -198.922859 
L 112.783377 -199.847921 
L 116.933847 -200.990079 
L 121.084316 -202.390029 
L 125.234786 -204.093399 
L 129.385255 -206.150691 
L 133.535725 -208.617009 
L 137.686194 -211.551575 
L 141.836664 -215.016962 
L 145.987134 -219.078053 
L 150.137603 -223.800667 
L 154.288073 -229.249878 
L 158.438542 -235.488004 
L 162.589012 -242.572312 
L 166.739481 -250.552459 
L 170.889951 -259.467747 
L 175.04042 -269.344261 
L 179.19089 -280.192004 
L 183.34136 -292.002137 
L 187.491829 -304.744465 
L 191.642299 -318.365297 
L 195.792768 -332.785841 
L 199.943238 -347.901251 
L 204.093707 -363.580456 
L 208.244177 -379.666871 
L 212.394647 -395.980052 
L 216.545116 -412.31833 
L 220.695586 -428.4624 
L 224.846055 -444.179822 
L 228.996525 -459.230303 
L 233.146994 -473.371627 
L 237.297464 -486.366018 
L 241.447933 -497.986726 
L 245.598403 -508.02457 
L 249.748873 -516.294181 
L 253.899342 -522.639693 
L 258.049812 -526.939623 
L 262.200281 -529.110739 
L 266.350751 -529.110739 
L 270.50122 -526.939623 
L 274.65169 -522.639693 
L 278.80216 -516.294181 
L 282.952629 -508.02457 
L 287.103099 -497.986726 
L 291.253568 -486.366018 
L 295.404038 -473.371627 
L 299.554507 -459.230303 
L 303.704977 -444.179822 
L 307.855446 -428.4624 
L 312.005916 -412.31833 
L 316.156386 -395.980052 
L 320.306855 -379.666871 
L 324.457325 -363.580456 
L 328.607794 -347.901251 
L 332.758264 -332.785841 
L 336.908733 -318.365297 
L 341.059203 -304.744465 
L 345.209672 -292.002137 
L 349.360142 -280.192004 
L 353.510612 -269.344261 
L 357.661081 -259.467747 
L 361.811551 -250.552459 
L 365.96202 -242.572312 
L 370.11249 -235.488004 
L 374.262959 -229.249878 
L 378.413429 -223.800667 
L 382.563899 -219.078053 
L 386.714368 -215.016962 
L 390.864838 -211.551575 
L 395.015307 -208.617009 
L 399.165777 -206.150691 
L 403.316246 -204.093399 
L 407.466716 -202.390029 
L 411.617185 -200.990079 
L 415.767655 -199.847921 
L 419.918125 -198.922859 
L 424.068594 -198.179047 
L 428.219064 -197.585273 
L 432.369533 -197.114666 
L 436.520003 -196.744335 
L 440.670472 -196.454982 
L 444.820942 -196.230497 
L 448.971412 -196.057565 
L 453.121881 -195.925281 
L 457.272351 -195.8248 
L 461.42282 -195.749007 
L 465.57329 -195.692234 
L 469.723759 -195.650004 
L 469.723759 -195.538011 
L 469.723759 -195.538011 
L 465.57329 -195.538011 
L 461.42282 -195.538011 
L 457.272351 -195.538011 
L 453.121881 -195.538011 
L 448.971412 -195.538011 
L 444.820942 -195.538011 
L 440.670472 -195.538011 
L 436.520003 -195.538011 
L 432.369533 -195.538011 
L 428.219064 -195.538011 
L 424.068594 -195.538011 
L 419.918125 -195.538011 
L 415.767655 -195.538011 
L 411.617185 -195.538011 
L 407.466716 -195.538011 
L 403.316246 -195.538011 
L 399.165777 -195.538011 
L 395.015307 -195.538011 
L 390.864838 -195.538011 
L 386.714368 -195.538011 
L 382.563899 -195.538011 
L 378.413429 -195.538011 
L 374.262959 -195.538011 
L 370.11249 -195.538011 
L 365.96202 -195.538011 
L 361.811551 -195.538011 
L 357.661081 -195.538011 
L 353.510612 -195.538011 
L 349.360142 -195.538011 
L 345.209672 -195.538011 
L 341.059203 -195.538011 
L 336.908733 -195.538011 
L 332.758264 -195.538011 
L 328.607794 -195.538011 
L 324.457325 -195.538011 
L 320.306855 -195.538011 
L 316.156386 -195.538011 
L 312.005916 -195.538011 
L 307.855446 -195.538011 
L 303.704977 -195.538011 
L 299.554507 -195.538011 
L 295.404038 -195.538011 
L 291.253568 -195.538011 
L 287.103099 -195.538011 
L 282.952629 -195.538011 
L 278.80216 -195.538011 
L 274.65169 -195.538011 
L 270.50122 -195.538011 
L 266.350751 -195.538011 
L 262.200281 -195.538011 
L 258.049812 -195.538011 
L 253.899342 -195.538011 
L 249.748873 -195.538011 
L 245.598403 -195.538011 
L 241.447933 -195.538011 
L 237.297464 -195.538011 
L 233.146994 -195.538011 
L 228.996525 -195.538011 
L 224.846055 -195.538011 
L 220.695586 -195.538011 
L 216.545116 -195.538011 
L 212.394647 -195.538011 
L 208.244177 -195.538011 
L 204.093707 -195.538011 
L 199.943238 -195.538011 
L 195.792768 -195.538011 
L 191.642299 -195.538011 
L 187.491829 -195.538011 
L 183.34136 -195.538011 
L 179.19089 -195.538011 
L 175.04042 -195.538011 
L 170.889951 -195.538011 
L 166.739481 -195.538011 
L 162.589012 -195.538011 
L 158.438542 -195.538011 
L 154.288073 -195.538011 
L 150.137603 -195.538011 
L 145.987134 -195.538011 
L 141.836664 -195.538011 
L 137.686194 -195.538011 
L 133.535725 -195.538011 
L 129.385255 -195.538011 
L 125.234786 -195.538011 
L 121.084316 -195.538011 
L 116.933847 -195.538011 
L 112.783377 -195.538011 
L 108.632907 -195.538011 
L 104.482438 -195.538011 
L 100.331968 -195.538011 
L 96.181499 -195.538011 
L 92.031029 -195.538011 
L 87.88056 -195.538011 
L 83.73009 -195.538011 
L 79.579621 -195.538011 
L 75.429151 -195.538011 
L 71.278681 -195.538011 
L 67.128212 -195.538011 
L 62.977742 -195.538011 
L 58.827273 -195.538011 
z
" id="m1871ef8dbc" style="stroke:#36a2eb;stroke-opacity:0.5;"/>
    </defs>
    <g clip-path="url(#p2b4045f1f6)">
     <use style="fill:#36a2eb;fill-opacity:0.5;stroke:#36a2eb;stroke-opacity:0.5;" x="0" xlink:href="#m1871ef8dbc" y="581.789375"/>
    </g>
   </g>
   <g id="line2d_1">
    <path clip-path="url(#p2b4045f1f6)" d="M 59.254284 386.150475 
L 63.861541 386.112431 
L 68.468798 386.061287 
L 73.076055 385.993009 
L 77.683312 385.90249 
L 82.290569 385.783321 
L 86.897826 385.627535 
L 91.505083 385.425307 
L 96.11234 385.164641 
L 100.719597 384.831027 
L 105.326854 384.407078 
L 109.934111 383.872174 
L 114.541368 383.202107 
L 119.148625 382.368761 
L 123.755882 381.339842 
L 128.363139 380.078691 
L 132.970396 378.544201 
L 137.577653 376.69088 
L 142.18491 374.469086 
L 146.792167 371.825468 
L 151.399424 368.703657 
L 156.006681 365.045204 
L 160.613938 360.790815 
L 165.221195 355.881867 
L 169.828452 350.262221 
L 174.435709 343.880288 
L 179.042966 336.691334 
L 183.650223 328.659955 
L 188.25748 319.76265 
L 192.864737 309.990409 
L 197.471994 299.351193 
L 202.079251 287.872206 
L 206.686508 275.601814 
L 211.293765 262.610998 
L 215.901022 248.994209 
L 220.508279 234.869522 
L 225.115536 220.377998 
L 229.722793 205.68219 
L 234.33005 190.963774 
L 238.937307 176.420311 
L 243.544564 162.261197 
L 248.151821 148.702898 
L 252.759078 135.963619 
L 257.366335 124.257559 
L 261.973592 113.788989 
L 266.580849 104.746349 
L 271.188106 97.29663 
L 275.795363 91.580245 
L 280.40262 87.706633 
L 285.009877 85.750773 
L 289.617134 85.750773 
L 294.224391 87.706633 
L 298.831648 91.580245 
L 303.438905 97.29663 
L 308.046162 104.746349 
L 312.653419 113.788989 
L 317.260676 124.257559 
L 321.867933 135.963619 
L 326.47519 148.702898 
L 331.082447 162.261197 
L 335.689704 176.420311 
L 340.296961 190.963774 
L 344.904218 205.68219 
L 349.511475 220.377998 
L 354.118732 234.869522 
L 358.725989 248.994209 
L 363.333246 262.610998 
L 367.940503 275.601814 
L 372.54776 287.872206 
L 377.155017 299.351193 
L 381.762274 309.990409 
L 386.369531 319.76265 
L 390.976788 328.659955 
L 395.584045 336.691334 
L 400.191302 343.880288 
L 404.798559 350.262221 
L 409.405816 355.881867 
L 414.013073 360.790815 
L 418.62033 365.045204 
L 423.227587 368.703657 
L 427.834844 371.825468 
L 432.442101 374.469086 
L 437.049358 376.69088 
L 441.656615 378.544201 
L 446.263872 380.078691 
L 450.871129 381.339842 
L 455.478386 382.368761 
L 460.085643 383.202107 
L 464.6929 383.872174 
L 469.300157 384.407078 
L 473.907414 384.831027 
L 478.514671 385.164641 
L 483.121928 385.425307 
L 487.729185 385.627535 
L 492.336442 385.783321 
L 496.943699 385.90249 
L 501.550956 385.993009 
L 506.158213 386.061287 
L 510.76547 386.112431 
L 515.372727 386.150475 
" style="fill:none;stroke:#ff6384;stroke-linecap:square;"/>
   </g>
   <g id="line2d_2">
    <path clip-path="url(#p2b4045f1f6)" d="M 58.827273 386.139371 
L 62.977742 386.097141 
L 67.128212 386.040368 
L 71.278681 385.964575 
L 75.429151 385.864094 
L 79.579621 385.73181 
L 83.73009 385.558878 
L 87.88056 385.334393 
L 92.031029 385.04504 
L 96.181499 384.674709 
L 100.331968 384.204102 
L 104.482438 383.610328 
L 108.632907 382.866516 
L 112.783377 381.941454 
L 116.933847 380.799296 
L 121.084316 379.399346 
L 125.234786 377.695976 
L 129.385255 375.638684 
L 133.535725 373.172366 
L 137.686194 370.2378 
L 141.836664 366.772413 
L 145.987134 362.711322 
L 150.137603 357.988708 
L 154.288073 352.539497 
L 158.438542 346.301371 
L 162.589012 339.217063 
L 166.739481 331.236916 
L 170.889951 322.321628 
L 175.04042 312.445114 
L 179.19089 301.597371 
L 183.34136 289.787238 
L 187.491829 277.04491 
L 191.642299 263.424078 
L 195.792768 249.003534 
L 199.943238 233.888124 
L 204.093707 218.208919 
L 208.244177 202.122504 
L 212.394647 185.809323 
L 216.545116 169.471045 
L 220.695586 153.326975 
L 224.846055 137.609553 
L 228.996525 122.559072 
L 233.146994 108.417748 
L 237.297464 95.423357 
L 241.447933 83.802649 
L 245.598403 73.764805 
L 249.748873 65.495194 
L 253.899342 59.149682 
L 258.049812 54.849752 
L 262.200281 52.678636 
L 266.350751 52.678636 
L 270.50122 54.849752 
L 274.65169 59.149682 
L 278.80216 65.495194 
L 282.952629 73.764805 
L 287.103099 83.802649 
L 291.253568 95.423357 
L 295.404038 108.417748 
L 299.554507 122.559072 
L 303.704977 137.609553 
L 307.855446 153.326975 
L 312.005916 169.471045 
L 316.156386 185.809323 
L 320.306855 202.122504 
L 324.457325 218.208919 
L 328.607794 233.888124 
L 332.758264 249.003534 
L 336.908733 263.424078 
L 341.059203 277.04491 
L 345.209672 289.787238 
L 349.360142 301.597371 
L 353.510612 312.445114 
L 357.661081 322.321628 
L 361.811551 331.236916 
L 365.96202 339.217063 
L 370.11249 346.301371 
L 374.262959 352.539497 
L 378.413429 357.988708 
L 382.563899 362.711322 
L 386.714368 366.772413 
L 390.864838 370.2378 
L 395.015307 373.172366 
L 399.165777 375.638684 
L 403.316246 377.695976 
L 407.466716 379.399346 
L 411.617185 380.799296 
L 415.767655 381.941454 
L 419.918125 382.866516 
L 424.068594 383.610328 
L 428.219064 384.204102 
L 432.369533 384.674709 
L 436.520003 385.04504 
L 440.670472 385.334393 
L 444.820942 385.558878 
L 448.971412 385.73181 
L 453.121881 385.864094 
L 457.272351 385.964575 
L 461.42282 386.040368 
L 465.57329 386.097141 
L 469.723759 386.139371 
" style="fill:none;stroke:#36a2eb;stroke-linecap:square;"/>
   </g>
   <g id="patch_3">
    <path d="M 36 402.93 
L 538.2 402.93 
" style="fill:none;stroke:#000000;stroke-linecap:square;stroke-linejoin:miter;stroke-width:0.8;"/>
   </g>
   <g id="legend_1">
    <g id="patch_4">
     <path d="M 450.225313 88.29875 
L 528.4 88.29875 
Q 531.2 88.29875 531.2 85.49875 
L 531.2 45.8 
Q 531.2 43 528.4 43 
L 450.225313 43 
Q 447.425313 43 447.425313 45.8 
L 447.425313 85.49875 
Q 447.425313 88.29875 450.225313 88.29875 
z
" style="fill:#ffffff;opacity:0.8;stroke:#cccccc;stroke-linejoin:miter;"/>
    </g>
    <g id="patch_5">
     <path d="M 453.025313 59.237813 
L 481.025313 59.237813 
L 481.025313 49.437813 
L 453.025313 49.437813 
z
" style="fill:#ff6384;opacity:0.5;stroke:#ff6384;stroke-linejoin:miter;"/>
    </g>
    <g id="text_1">
     <!-- base -->
     <defs>
      <path d="M 48.6875 27.296875 
Q 48.6875 37.203125 44.609375 42.84375 
Q 40.53125 48.484375 33.40625 48.484375 
Q 26.265625 48.484375 22.1875 42.84375 
Q 18.109375 37.203125 18.109375 27.296875 
Q 18.109375 17.390625 22.1875 11.75 
Q 26.265625 6.109375 33.40625 6.109375 
Q 40.53125 6.109375 44.609375 11.75 
Q 48.6875 17.390625 48.6875 27.296875 
z
M 18.109375 46.390625 
Q 20.953125 51.265625 25.265625 53.625 
Q 29.59375 56 35.59375 56 
Q 45.5625 56 51.78125 48.09375 
Q 58.015625 40.1875 58.015625 27.296875 
Q 58.015625 14.40625 51.78125 6.484375 
Q 45.5625 -1.421875 35.59375 -1.421875 
Q 29.59375 -1.421875 25.265625 0.953125 
Q 20.953125 3.328125 18.109375 8.203125 
L 18.109375 0 
L 9.078125 0 
L 9.078125 75.984375 
L 18.109375 75.984375 
z
" id="DejaVuSans-98"/>
      <path d="M 34.28125 27.484375 
Q 23.390625 27.484375 19.1875 25 
Q 14.984375 22.515625 14.984375 16.5 
Q 14.984375 11.71875 18.140625 8.90625 
Q 21.296875 6.109375 26.703125 6.109375 
Q 34.1875 6.109375 38.703125 11.40625 
Q 43.21875 16.703125 43.21875 25.484375 
L 43.21875 27.484375 
z
M 52.203125 31.203125 
L 52.203125 0 
L 43.21875 0 
L 43.21875 8.296875 
Q 40.140625 3.328125 35.546875 0.953125 
Q 30.953125 -1.421875 24.3125 -1.421875 
Q 15.921875 -1.421875 10.953125 3.296875 
Q 6 8.015625 6 15.921875 
Q 6 25.140625 12.171875 29.828125 
Q 18.359375 34.515625 30.609375 34.515625 
L 43.21875 34.515625 
L 43.21875 35.40625 
Q 43.21875 41.609375 39.140625 45 
Q 35.0625 48.390625 27.6875 48.390625 
Q 23 48.390625 18.546875 47.265625 
Q 14.109375 46.140625 10.015625 43.890625 
L 10.015625 52.203125 
Q 14.9375 54.109375 19.578125 55.046875 
Q 24.21875 56 28.609375 56 
Q 40.484375 56 46.34375 49.84375 
Q 52.203125 43.703125 52.203125 31.203125 
z
" id="DejaVuSans-97"/>
      <path d="M 44.28125 53.078125 
L 44.28125 44.578125 
Q 40.484375 46.53125 36.375 47.5 
Q 32.28125 48.484375 27.875 48.484375 
Q 21.1875 48.484375 17.84375 46.4375 
Q 14.5 44.390625 14.5 40.28125 
Q 14.5 37.15625 16.890625 35.375 
Q 19.28125 33.59375 26.515625 31.984375 
L 29.59375 31.296875 
Q 39.15625 29.25 43.1875 25.515625 
Q 47.21875 21.78125 47.21875 15.09375 
Q 47.21875 7.46875 41.1875 3.015625 
Q 35.15625 -1.421875 24.609375 -1.421875 
Q 20.21875 -1.421875 15.453125 -0.5625 
Q 10.6875 0.296875 5.421875 2 
L 5.421875 11.28125 
Q 10.40625 8.6875 15.234375 7.390625 
Q 20.0625 6.109375 24.8125 6.109375 
Q 31.15625 6.109375 34.5625 8.28125 
Q 37.984375 10.453125 37.984375 14.40625 
Q 37.984375 18.0625 35.515625 20.015625 
Q 33.0625 21.96875 24.703125 23.78125 
L 21.578125 24.515625 
Q 13.234375 26.265625 9.515625 29.90625 
Q 5.8125 33.546875 5.8125 39.890625 
Q 5.8125 47.609375 11.28125 51.796875 
Q 16.75 56 26.8125 56 
Q 31.78125 56 36.171875 55.265625 
Q 40.578125 54.546875 44.28125 53.078125 
z
" id="DejaVuSans-115"/>
      <path d="M 56.203125 29.59375 
L 56.203125 25.203125 
L 14.890625 25.203125 
Q 15.484375 15.921875 20.484375 11.0625 
Q 25.484375 6.203125 34.421875 6.203125 
Q 39.59375 6.203125 44.453125 7.46875 
Q 49.3125 8.734375 54.109375 11.28125 
L 54.109375 2.78125 
Q 49.265625 0.734375 44.1875 -0.34375 
Q 39.109375 -1.421875 33.890625 -1.421875 
Q 20.796875 -1.421875 13.15625 6.1875 
Q 5.515625 13.8125 5.515625 26.8125 
Q 5.515625 40.234375 12.765625 48.109375 
Q 20.015625 56 32.328125 56 
Q 43.359375 56 49.78125 48.890625 
Q 56.203125 41.796875 56.203125 29.59375 
z
M 47.21875 32.234375 
Q 47.125 39.59375 43.09375 43.984375 
Q 39.0625 48.390625 32.421875 48.390625 
Q 24.90625 48.390625 20.390625 44.140625 
Q 15.875 39.890625 15.1875 32.171875 
z
" id="DejaVuSans-101"/>
     </defs>
     <g transform="translate(492.225313 59.237813)scale(0.14 -0.14)">
      <use xlink:href="#DejaVuSans-98"/>
      <use x="63.476562" xlink:href="#DejaVuSans-97"/>
      <use x="124.755859" xlink:href="#DejaVuSans-115"/>
      <use x="176.855469" xlink:href="#DejaVuSans-101"/>
     </g>
    </g>
    <g id="patch_6">
     <path d="M 453.025313 79.787188 
L 481.025313 79.787188 
L 481.025313 69.987188 
L 453.025313 69.987188 
z
" style="fill:#36a2eb;opacity:0.5;stroke:#36a2eb;stroke-linejoin:miter;"/>
    </g>
    <g id="text_2">
     <!-- new -->
     <defs>
      <path d="M 54.890625 33.015625 
L 54.890625 0 
L 45.90625 0 
L 45.90625 32.71875 
Q 45.90625 40.484375 42.875 44.328125 
Q 39.84375 48.1875 33.796875 48.1875 
Q 26.515625 48.1875 22.3125 43.546875 
Q 18.109375 38.921875 18.109375 30.90625 
L 18.109375 0 
L 9.078125 0 
L 9.078125 54.6875 
L 18.109375 54.6875 
L 18.109375 46.1875 
Q 21.34375 51.125 25.703125 53.5625 
Q 30.078125 56 35.796875 56 
Q 45.21875 56 50.046875 50.171875 
Q 54.890625 44.34375 54.890625 33.015625 
z
" id="DejaVuSans-110"/>
      <path d="M 4.203125 54.6875 
L 13.1875 54.6875 
L 24.421875 12.015625 
L 35.59375 54.6875 
L 46.1875 54.6875 
L 57.421875 12.015625 
L 68.609375 54.6875 
L 77.59375 54.6875 
L 63.28125 0 
L 52.6875 0 
L 40.921875 44.828125 
L 29.109375 0 
L 18.5 0 
z
" id="DejaVuSans-119"/>
     </defs>
     <g transform="translate(492.225313 79.787188)scale(0.14 -0.14)">
      <use xlink:href="#DejaVuSans-110"/>
      <use x="63.378906" xlink:href="#DejaVuSans-101"/>
      <use x="124.902344" xlink:href="#DejaVuSans-119"/>
     </g>
    </g>
   </g>
  </g>
  <g id="axes_2">
   <g id="patch_7">
    <path d="M 36 525.24 
L 538.2 525.24 
L 538.2 402.93 
L 36 402.93 
z
" style="fill:none;"/>
   </g>
   <g id="patch_8">
    <path clip-path="url(#p17f87f0c82)" d="M 175.564487 519.680455 
L 399.062524 519.680455 
L 399.062524 482.616818 
L 175.564487 482.616818 
z
" style="fill:#ff6384;opacity:0.5;"/>
   </g>
   <g id="patch_9">
    <path clip-path="url(#p17f87f0c82)" d="M 163.605877 445.553182 
L 364.945155 445.553182 
L 364.945155 408.489545 
L 163.605877 408.489545 
z
" style="fill:#36a2eb;opacity:0.5;"/>
   </g>
   <g id="matplotlib.axis_1">
    <g id="xtick_1">
     <g id="line2d_3">
      <defs>
       <path d="M 0 0 
L 0 3.5 
" id="m8eee000908" style="stroke:#000000;stroke-width:0.8;"/>
      </defs>
      <g>
       <use style="stroke:#000000;stroke-width:0.8;" x="81.411473" xlink:href="#m8eee000908" y="525.24"/>
      </g>
     </g>
     <g id="text_3">
      <!-- 4.5 -->
      <defs>
       <path d="M 37.796875 64.3125 
L 12.890625 25.390625 
L 37.796875 25.390625 
z
M 35.203125 72.90625 
L 47.609375 72.90625 
L 47.609375 25.390625 
L 58.015625 25.390625 
L 58.015625 17.1875 
L 47.609375 17.1875 
L 47.609375 0 
L 37.796875 0 
L 37.796875 17.1875 
L 4.890625 17.1875 
L 4.890625 26.703125 
z
" id="DejaVuSans-52"/>
       <path d="M 10.6875 12.40625 
L 21 12.40625 
L 21 0 
L 10.6875 0 
z
" id="DejaVuSans-46"/>
       <path d="M 10.796875 72.90625 
L 49.515625 72.90625 
L 49.515625 64.59375 
L 19.828125 64.59375 
L 19.828125 46.734375 
Q 21.96875 47.46875 24.109375 47.828125 
Q 26.265625 48.1875 28.421875 48.1875 
Q 40.625 48.1875 47.75 41.5 
Q 54.890625 34.8125 54.890625 23.390625 
Q 54.890625 11.625 47.5625 5.09375 
Q 40.234375 -1.421875 26.90625 -1.421875 
Q 22.3125 -1.421875 17.546875 -0.640625 
Q 12.796875 0.140625 7.71875 1.703125 
L 7.71875 11.625 
Q 12.109375 9.234375 16.796875 8.0625 
Q 21.484375 6.890625 26.703125 6.890625 
Q 35.15625 6.890625 40.078125 11.328125 
Q 45.015625 15.765625 45.015625 23.390625 
Q 45.015625 31 40.078125 35.4375 
Q 35.15625 39.890625 26.703125 39.890625 
Q 22.75 39.890625 18.8125 39.015625 
Q 14.890625 38.140625 10.796875 36.28125 
z
" id="DejaVuSans-53"/>
      </defs>
      <g transform="translate(70.279286 542.877813)scale(0.14 -0.14)">
       <use xlink:href="#DejaVuSans-52"/>
       <use x="63.623047" xlink:href="#DejaVuSans-46"/>
       <use x="95.410156" xlink:href="#DejaVuSans-53"/>
      </g>
     </g>
    </g>
    <g id="xtick_2">
     <g id="line2d_4">
      <g>
       <use style="stroke:#000000;stroke-width:0.8;" x="153.405191" xlink:href="#m8eee000908" y="525.24"/>
      </g>
     </g>
     <g id="text_4">
      <!-- 5.0 -->
      <defs>
       <path d="M 31.78125 66.40625 
Q 24.171875 66.40625 20.328125 58.90625 
Q 16.5 51.421875 16.5 36.375 
Q 16.5 21.390625 20.328125 13.890625 
Q 24.171875 6.390625 31.78125 6.390625 
Q 39.453125 6.390625 43.28125 13.890625 
Q 47.125 21.390625 47.125 36.375 
Q 47.125 51.421875 43.28125 58.90625 
Q 39.453125 66.40625 31.78125 66.40625 
z
M 31.78125 74.21875 
Q 44.046875 74.21875 50.515625 64.515625 
Q 56.984375 54.828125 56.984375 36.375 
Q 56.984375 17.96875 50.515625 8.265625 
Q 44.046875 -1.421875 31.78125 -1.421875 
Q 19.53125 -1.421875 13.0625 8.265625 
Q 6.59375 17.96875 6.59375 36.375 
Q 6.59375 54.828125 13.0625 64.515625 
Q 19.53125 74.21875 31.78125 74.21875 
z
" id="DejaVuSans-48"/>
      </defs>
      <g transform="translate(142.273003 542.877813)scale(0.14 -0.14)">
       <use xlink:href="#DejaVuSans-53"/>
       <use x="63.623047" xlink:href="#DejaVuSans-46"/>
       <use x="95.410156" xlink:href="#DejaVuSans-48"/>
      </g>
     </g>
    </g>
    <g id="xtick_3">
     <g id="line2d_5">
      <g>
       <use style="stroke:#000000;stroke-width:0.8;" x="225.398909" xlink:href="#m8eee000908" y="525.24"/>
      </g>
     </g>
     <g id="text_5">
      <!-- 5.5 -->
      <g transform="translate(214.266721 542.877813)scale(0.14 -0.14)">
       <use xlink:href="#DejaVuSans-53"/>
       <use x="63.623047" xlink:href="#DejaVuSans-46"/>
       <use x="95.410156" xlink:href="#DejaVuSans-53"/>
      </g>
     </g>
    </g>
    <g id="xtick_4">
     <g id="line2d_6">
      <g>
       <use style="stroke:#000000;stroke-width:0.8;" x="297.392626" xlink:href="#m8eee000908" y="525.24"/>
      </g>
     </g>
     <g id="text_6">
      <!-- 6.0 -->
      <defs>
       <path d="M 33.015625 40.375 
Q 26.375 40.375 22.484375 35.828125 
Q 18.609375 31.296875 18.609375 23.390625 
Q 18.609375 15.53125 22.484375 10.953125 
Q 26.375 6.390625 33.015625 6.390625 
Q 39.65625 6.390625 43.53125 10.953125 
Q 47.40625 15.53125 47.40625 23.390625 
Q 47.40625 31.296875 43.53125 35.828125 
Q 39.65625 40.375 33.015625 40.375 
z
M 52.59375 71.296875 
L 52.59375 62.3125 
Q 48.875 64.0625 45.09375 64.984375 
Q 41.3125 65.921875 37.59375 65.921875 
Q 27.828125 65.921875 22.671875 59.328125 
Q 17.53125 52.734375 16.796875 39.40625 
Q 19.671875 43.65625 24.015625 45.921875 
Q 28.375 48.1875 33.59375 48.1875 
Q 44.578125 48.1875 50.953125 41.515625 
Q 57.328125 34.859375 57.328125 23.390625 
Q 57.328125 12.15625 50.6875 5.359375 
Q 44.046875 -1.421875 33.015625 -1.421875 
Q 20.359375 -1.421875 13.671875 8.265625 
Q 6.984375 17.96875 6.984375 36.375 
Q 6.984375 53.65625 15.1875 63.9375 
Q 23.390625 74.21875 37.203125 74.21875 
Q 40.921875 74.21875 44.703125 73.484375 
Q 48.484375 72.75 52.59375 71.296875 
z
" id="DejaVuSans-54"/>
      </defs>
      <g transform="translate(286.260439 542.877813)scale(0.14 -0.14)">
       <use xlink:href="#DejaVuSans-54"/>
       <use x="63.623047" xlink:href="#DejaVuSans-46"/>
       <use x="95.410156" xlink:href="#DejaVuSans-48"/>
      </g>
     </g>
    </g>
    <g id="xtick_5">
     <g id="line2d_7">
      <g>
       <use style="stroke:#000000;stroke-width:0.8;" x="369.386344" xlink:href="#m8eee000908" y="525.24"/>
      </g>
     </g>
     <g id="text_7">
      <!-- 6.5 -->
      <g transform="translate(358.254156 542.877813)scale(0.14 -0.14)">
       <use xlink:href="#DejaVuSans-54"/>
       <use x="63.623047" xlink:href="#DejaVuSans-46"/>
       <use x="95.410156" xlink:href="#DejaVuSans-53"/>
      </g>
     </g>
    </g>
    <g id="xtick_6">
     <g id="line2d_8">
      <g>
       <use style="stroke:#000000;stroke-width:0.8;" x="441.380061" xlink:href="#m8eee000908" y="525.24"/>
      </g>
     </g>
     <g id="text_8">
      <!-- 7.0 -->
      <defs>
       <path d="M 8.203125 72.90625 
L 55.078125 72.90625 
L 55.078125 68.703125 
L 28.609375 0 
L 18.3125 0 
L 43.21875 64.59375 
L 8.203125 64.59375 
z
" id="DejaVuSans-55"/>
      </defs>
      <g transform="translate(430.247874 542.877813)scale(0.14 -0.14)">
       <use xlink:href="#DejaVuSans-55"/>
       <use x="63.623047" xlink:href="#DejaVuSans-46"/>
       <use x="95.410156" xlink:href="#DejaVuSans-48"/>
      </g>
     </g>
    </g>
    <g id="xtick_7">
     <g id="line2d_9">
      <g>
       <use style="stroke:#000000;stroke-width:0.8;" x="513.373779" xlink:href="#m8eee000908" y="525.24"/>
      </g>
     </g>
     <g id="text_9">
      <!-- 7.5 -->
      <g transform="translate(502.241591 542.877813)scale(0.14 -0.14)">
       <use xlink:href="#DejaVuSans-55"/>
       <use x="63.623047" xlink:href="#DejaVuSans-46"/>
       <use x="95.410156" xlink:href="#DejaVuSans-53"/>
      </g>
     </g>
    </g>
   </g>
   <g id="line2d_10">
    <path clip-path="url(#p17f87f0c82)" d="M 287.313506 525.24 
L 287.313506 402.93 
" style="fill:none;stroke:#ff6384;stroke-dasharray:5.55,2.4;stroke-dashoffset:0;stroke-opacity:0.8;stroke-width:1.5;"/>
   </g>
   <g id="line2d_11">
    <path clip-path="url(#p17f87f0c82)" d="M 264.275516 525.24 
L 264.275516 402.93 
" style="fill:none;stroke:#36a2eb;stroke-dasharray:5.55,2.4;stroke-dashoffset:0;stroke-opacity:0.8;stroke-width:1.5;"/>
   </g>
   <g id="patch_10">
    <path d="M 36 525.24 
L 538.2 525.24 
" style="fill:none;stroke:#000000;stroke-linecap:square;stroke-linejoin:miter;stroke-width:0.8;"/>
   </g>
  </g>
 </g>
 <defs>
  <clipPath id="p2b4045f1f6">
   <rect height="366.93" width="502.2" x="36" y="36"/>
  </clipPath>
  <clipPath id="p17f87f0c82">
   <rect height="122.31" width="502.2" x="36" y="402.93"/>
  </clipPath>
 </defs>
</svg>
