<?xml version="1.0" encoding="utf-8" standalone="no"?>
<!DOCTYPE svg PUBLIC "-//W3C//DTD SVG 1.1//EN"
  "http://www.w3.org/Graphics/SVG/1.1/DTD/svg11.dtd">
<!-- Created with matplotlib (https://matplotlib.org/) -->
<svg height="581.789375pt" version="1.1" viewBox="0 0 574.2 581.789375" width="574.2pt" xmlns="http://www.w3.org/2000/svg" xmlns:xlink="http://www.w3.org/1999/xlink">
 <defs>
  <style type="text/css">
*{stroke-linecap:butt;stroke-linejoin:round;}
  </style>
 </defs>
 <g id="figure_1">
  <g id="patch_1">
   <path d="M 0 581.789375 
L 574.2 581.789375 
L 574.2 0 
L 0 0 
z
" style="fill:none;"/>
  </g>
  <g id="axes_1">
   <g id="patch_2">
    <path d="M 36 402.93 
L 538.2 402.93 
L 538.2 36 
L 36 36 
z
" style="fill:none;"/>
   </g>
   <g id="PolyCollection_1">
    <defs>
     <path d="M 61.222354 -195.538011 
L 61.222354 -195.63913 
L 65.809732 -195.67726 
L 70.397109 -195.72852 
L 74.984487 -195.796954 
L 79.571864 -195.887679 
L 84.159242 -196.007119 
L 88.746619 -196.16326 
L 93.333997 -196.365949 
L 97.921374 -196.627207 
L 102.508752 -196.961581 
L 107.096129 -197.386494 
L 111.683507 -197.922616 
L 116.270884 -198.594208 
L 120.858262 -199.429451 
L 125.445639 -200.460712 
L 130.033017 -201.724733 
L 134.620394 -203.262716 
L 139.207772 -205.120255 
L 143.795149 -207.347107 
L 148.382527 -209.996741 
L 152.969904 -213.125657 
L 157.557282 -216.792437 
L 162.144659 -221.05651 
L 166.732037 -225.976631 
L 171.319414 -231.609067 
L 175.906792 -238.005526 
L 180.494169 -245.210842 
L 185.081547 -253.260502 
L 189.668924 -262.178057 
L 194.256302 -271.972541 
L 198.843679 -282.635972 
L 203.431057 -294.141086 
L 208.018434 -306.439406 
L 212.605812 -319.45979 
L 217.193189 -333.107572 
L 221.780567 -347.264408 
L 226.367945 -361.788915 
L 230.955322 -376.518172 
L 235.5427 -391.270087 
L 240.130077 -405.846652 
L 244.717455 -420.037994 
L 249.304832 -433.627152 
L 253.89221 -446.395426 
L 258.479587 -458.12813 
L 263.066965 -468.620528 
L 267.654342 -477.683749 
L 272.24172 -485.150424 
L 276.829097 -490.87982 
L 281.416475 -494.762249 
L 286.003852 -496.72256 
L 290.59123 -496.72256 
L 295.178607 -494.762249 
L 299.765985 -490.87982 
L 304.353362 -485.150424 
L 308.94074 -477.683749 
L 313.528117 -468.620528 
L 318.115495 -458.12813 
L 322.702872 -446.395426 
L 327.29025 -433.627152 
L 331.877627 -420.037994 
L 336.465005 -405.846652 
L 341.052382 -391.270087 
L 345.63976 -376.518172 
L 350.227137 -361.788915 
L 354.814515 -347.264408 
L 359.401892 -333.107572 
L 363.98927 -319.45979 
L 368.576647 -306.439406 
L 373.164025 -294.141086 
L 377.751402 -282.635972 
L 382.33878 -271.972541 
L 386.926157 -262.178057 
L 391.513535 -253.260502 
L 396.100912 -245.210842 
L 400.68829 -238.005526 
L 405.275667 -231.609067 
L 409.863045 -225.976631 
L 414.450422 -221.05651 
L 419.0378 -216.792437 
L 423.625177 -213.125657 
L 428.212555 -209.996741 
L 432.799932 -207.347107 
L 437.38731 -205.120255 
L 441.974687 -203.262716 
L 446.562065 -201.724733 
L 451.149442 -200.460712 
L 455.73682 -199.429451 
L 460.324197 -198.594208 
L 464.911575 -197.922616 
L 469.498952 -197.386494 
L 474.08633 -196.961581 
L 478.673707 -196.627207 
L 483.261085 -196.365949 
L 487.848462 -196.16326 
L 492.43584 -196.007119 
L 497.023217 -195.887679 
L 501.610595 -195.796954 
L 506.197972 -195.72852 
L 510.78535 -195.67726 
L 515.372727 -195.63913 
L 515.372727 -195.538011 
L 515.372727 -195.538011 
L 510.78535 -195.538011 
L 506.197972 -195.538011 
L 501.610595 -195.538011 
L 497.023217 -195.538011 
L 492.43584 -195.538011 
L 487.848462 -195.538011 
L 483.261085 -195.538011 
L 478.673707 -195.538011 
L 474.08633 -195.538011 
L 469.498952 -195.538011 
L 464.911575 -195.538011 
L 460.324197 -195.538011 
L 455.73682 -195.538011 
L 451.149442 -195.538011 
L 446.562065 -195.538011 
L 441.974687 -195.538011 
L 437.38731 -195.538011 
L 432.799932 -195.538011 
L 428.212555 -195.538011 
L 423.625177 -195.538011 
L 419.0378 -195.538011 
L 414.450422 -195.538011 
L 409.863045 -195.538011 
L 405.275667 -195.538011 
L 400.68829 -195.538011 
L 396.100912 -195.538011 
L 391.513535 -195.538011 
L 386.926157 -195.538011 
L 382.33878 -195.538011 
L 377.751402 -195.538011 
L 373.164025 -195.538011 
L 368.576647 -195.538011 
L 363.98927 -195.538011 
L 359.401892 -195.538011 
L 354.814515 -195.538011 
L 350.227137 -195.538011 
L 345.63976 -195.538011 
L 341.052382 -195.538011 
L 336.465005 -195.538011 
L 331.877627 -195.538011 
L 327.29025 -195.538011 
L 322.702872 -195.538011 
L 318.115495 -195.538011 
L 313.528117 -195.538011 
L 308.94074 -195.538011 
L 304.353362 -195.538011 
L 299.765985 -195.538011 
L 295.178607 -195.538011 
L 290.59123 -195.538011 
L 286.003852 -195.538011 
L 281.416475 -195.538011 
L 276.829097 -195.538011 
L 272.24172 -195.538011 
L 267.654342 -195.538011 
L 263.066965 -195.538011 
L 258.479587 -195.538011 
L 253.89221 -195.538011 
L 249.304832 -195.538011 
L 244.717455 -195.538011 
L 240.130077 -195.538011 
L 235.5427 -195.538011 
L 230.955322 -195.538011 
L 226.367945 -195.538011 
L 221.780567 -195.538011 
L 217.193189 -195.538011 
L 212.605812 -195.538011 
L 208.018434 -195.538011 
L 203.431057 -195.538011 
L 198.843679 -195.538011 
L 194.256302 -195.538011 
L 189.668924 -195.538011 
L 185.081547 -195.538011 
L 180.494169 -195.538011 
L 175.906792 -195.538011 
L 171.319414 -195.538011 
L 166.732037 -195.538011 
L 162.144659 -195.538011 
L 157.557282 -195.538011 
L 152.969904 -195.538011 
L 148.382527 -195.538011 
L 143.795149 -195.538011 
L 139.207772 -195.538011 
L 134.620394 -195.538011 
L 130.033017 -195.538011 
L 125.445639 -195.538011 
L 120.858262 -195.538011 
L 116.270884 -195.538011 
L 111.683507 -195.538011 
L 107.096129 -195.538011 
L 102.508752 -195.538011 
L 97.921374 -195.538011 
L 93.333997 -195.538011 
L 88.746619 -195.538011 
L 84.159242 -195.538011 
L 79.571864 -195.538011 
L 74.984487 -195.538011 
L 70.397109 -195.538011 
L 65.809732 -195.538011 
L 61.222354 -195.538011 
z
" id="m80dd06676d" style="stroke:#ff6384;stroke-opacity:0.5;"/>
    </defs>
    <g clip-path="url(#pce1b73a2e1)">
     <use style="fill:#ff6384;fill-opacity:0.5;stroke:#ff6384;stroke-opacity:0.5;" x="0" xlink:href="#m80dd06676d" y="581.789375"/>
    </g>
   </g>
   <g id="PolyCollection_2">
    <defs>
     <path d="M 58.827273 -195.538011 
L 58.827273 -195.650004 
L 62.96924 -195.692234 
L 67.111207 -195.749007 
L 71.253174 -195.8248 
L 75.395141 -195.925281 
L 79.537108 -196.057565 
L 83.679075 -196.230497 
L 87.821042 -196.454982 
L 91.963009 -196.744335 
L 96.104976 -197.114666 
L 100.246943 -197.585273 
L 104.38891 -198.179047 
L 108.530877 -198.922859 
L 112.672844 -199.847921 
L 116.814811 -200.990079 
L 120.956778 -202.390029 
L 125.098744 -204.093399 
L 129.240711 -206.150691 
L 133.382678 -208.617009 
L 137.524645 -211.551575 
L 141.666612 -215.016962 
L 145.808579 -219.078053 
L 149.950546 -223.800667 
L 154.092513 -229.249878 
L 158.23448 -235.488004 
L 162.376447 -242.572312 
L 166.518414 -250.552459 
L 170.660381 -259.467747 
L 174.802348 -269.344261 
L 178.944315 -280.192004 
L 183.086282 -292.002137 
L 187.228249 -304.744465 
L 191.370216 -318.365297 
L 195.512183 -332.785841 
L 199.65415 -347.901251 
L 203.796117 -363.580456 
L 207.938084 -379.666871 
L 212.080051 -395.980052 
L 216.222018 -412.31833 
L 220.363985 -428.4624 
L 224.505952 -444.179822 
L 228.647919 -459.230303 
L 232.789886 -473.371627 
L 236.931853 -486.366018 
L 241.07382 -497.986726 
L 245.215787 -508.02457 
L 249.357754 -516.294181 
L 253.499721 -522.639693 
L 257.641688 -526.939623 
L 261.783655 -529.110739 
L 265.925622 -529.110739 
L 270.067589 -526.939623 
L 274.209556 -522.639693 
L 278.351523 -516.294181 
L 282.49349 -508.02457 
L 286.635457 -497.986726 
L 290.777424 -486.366018 
L 294.919391 -473.371627 
L 299.061358 -459.230303 
L 303.203325 -444.179822 
L 307.345292 -428.4624 
L 311.487259 -412.31833 
L 315.629226 -395.980052 
L 319.771193 -379.666871 
L 323.91316 -363.580456 
L 328.055127 -347.901251 
L 332.197094 -332.785841 
L 336.339061 -318.365297 
L 340.481028 -304.744465 
L 344.622995 -292.002137 
L 348.764962 -280.192004 
L 352.906929 -269.344261 
L 357.048896 -259.467747 
L 361.190863 -250.552459 
L 365.33283 -242.572312 
L 369.474797 -235.488004 
L 373.616764 -229.249878 
L 377.758731 -223.800667 
L 381.900698 -219.078053 
L 386.042665 -215.016962 
L 390.184632 -211.551575 
L 394.326599 -208.617009 
L 398.468566 -206.150691 
L 402.610533 -204.093399 
L 406.7525 -202.390029 
L 410.894467 -200.990079 
L 415.036433 -199.847921 
L 419.1784 -198.922859 
L 423.320367 -198.179047 
L 427.462334 -197.585273 
L 431.604301 -197.114666 
L 435.746268 -196.744335 
L 439.888235 -196.454982 
L 444.030202 -196.230497 
L 448.172169 -196.057565 
L 452.314136 -195.925281 
L 456.456103 -195.8248 
L 460.59807 -195.749007 
L 464.740037 -195.692234 
L 468.882004 -195.650004 
L 468.882004 -195.538011 
L 468.882004 -195.538011 
L 464.740037 -195.538011 
L 460.59807 -195.538011 
L 456.456103 -195.538011 
L 452.314136 -195.538011 
L 448.172169 -195.538011 
L 444.030202 -195.538011 
L 439.888235 -195.538011 
L 435.746268 -195.538011 
L 431.604301 -195.538011 
L 427.462334 -195.538011 
L 423.320367 -195.538011 
L 419.1784 -195.538011 
L 415.036433 -195.538011 
L 410.894467 -195.538011 
L 406.7525 -195.538011 
L 402.610533 -195.538011 
L 398.468566 -195.538011 
L 394.326599 -195.538011 
L 390.184632 -195.538011 
L 386.042665 -195.538011 
L 381.900698 -195.538011 
L 377.758731 -195.538011 
L 373.616764 -195.538011 
L 369.474797 -195.538011 
L 365.33283 -195.538011 
L 361.190863 -195.538011 
L 357.048896 -195.538011 
L 352.906929 -195.538011 
L 348.764962 -195.538011 
L 344.622995 -195.538011 
L 340.481028 -195.538011 
L 336.339061 -195.538011 
L 332.197094 -195.538011 
L 328.055127 -195.538011 
L 323.91316 -195.538011 
L 319.771193 -195.538011 
L 315.629226 -195.538011 
L 311.487259 -195.538011 
L 307.345292 -195.538011 
L 303.203325 -195.538011 
L 299.061358 -195.538011 
L 294.919391 -195.538011 
L 290.777424 -195.538011 
L 286.635457 -195.538011 
L 282.49349 -195.538011 
L 278.351523 -195.538011 
L 274.209556 -195.538011 
L 270.067589 -195.538011 
L 265.925622 -195.538011 
L 261.783655 -195.538011 
L 257.641688 -195.538011 
L 253.499721 -195.538011 
L 249.357754 -195.538011 
L 245.215787 -195.538011 
L 241.07382 -195.538011 
L 236.931853 -195.538011 
L 232.789886 -195.538011 
L 228.647919 -195.538011 
L 224.505952 -195.538011 
L 220.363985 -195.538011 
L 216.222018 -195.538011 
L 212.080051 -195.538011 
L 207.938084 -195.538011 
L 203.796117 -195.538011 
L 199.65415 -195.538011 
L 195.512183 -195.538011 
L 191.370216 -195.538011 
L 187.228249 -195.538011 
L 183.086282 -195.538011 
L 178.944315 -195.538011 
L 174.802348 -195.538011 
L 170.660381 -195.538011 
L 166.518414 -195.538011 
L 162.376447 -195.538011 
L 158.23448 -195.538011 
L 154.092513 -195.538011 
L 149.950546 -195.538011 
L 145.808579 -195.538011 
L 141.666612 -195.538011 
L 137.524645 -195.538011 
L 133.382678 -195.538011 
L 129.240711 -195.538011 
L 125.098744 -195.538011 
L 120.956778 -195.538011 
L 116.814811 -195.538011 
L 112.672844 -195.538011 
L 108.530877 -195.538011 
L 104.38891 -195.538011 
L 100.246943 -195.538011 
L 96.104976 -195.538011 
L 91.963009 -195.538011 
L 87.821042 -195.538011 
L 83.679075 -195.538011 
L 79.537108 -195.538011 
L 75.395141 -195.538011 
L 71.253174 -195.538011 
L 67.111207 -195.538011 
L 62.96924 -195.538011 
L 58.827273 -195.538011 
z
" id="m6ed28dc5d1" style="stroke:#36a2eb;stroke-opacity:0.5;"/>
    </defs>
    <g clip-path="url(#pce1b73a2e1)">
     <use style="fill:#36a2eb;fill-opacity:0.5;stroke:#36a2eb;stroke-opacity:0.5;" x="0" xlink:href="#m6ed28dc5d1" y="581.789375"/>
    </g>
   </g>
   <g id="line2d_1">
    <path clip-path="url(#pce1b73a2e1)" d="M 61.222354 386.150245 
L 65.809732 386.112115 
L 70.397109 386.060855 
L 74.984487 385.992421 
L 79.571864 385.901696 
L 84.159242 385.782256 
L 88.746619 385.626115 
L 93.333997 385.423426 
L 97.921374 385.162168 
L 102.508752 384.827794 
L 107.096129 384.402881 
L 111.683507 383.866759 
L 116.270884 383.195167 
L 120.858262 382.359924 
L 125.445639 381.328663 
L 130.033017 380.064642 
L 134.620394 378.526659 
L 139.207772 376.66912 
L 143.795149 374.442268 
L 148.382527 371.792634 
L 152.969904 368.663718 
L 157.557282 364.996938 
L 162.144659 360.732865 
L 166.732037 355.812744 
L 171.319414 350.180308 
L 175.906792 343.783849 
L 180.494169 336.578533 
L 185.081547 328.528873 
L 189.668924 319.611318 
L 194.256302 309.816834 
L 198.843679 299.153403 
L 203.431057 287.648289 
L 208.018434 275.349969 
L 212.605812 262.329585 
L 217.193189 248.681803 
L 221.780567 234.524967 
L 226.367945 220.00046 
L 230.955322 205.271203 
L 235.5427 190.519288 
L 240.130077 175.942723 
L 244.717455 161.751381 
L 249.304832 148.162223 
L 253.89221 135.393949 
L 258.479587 123.661245 
L 263.066965 113.168847 
L 267.654342 104.105626 
L 272.24172 96.638951 
L 276.829097 90.909555 
L 281.416475 87.027126 
L 286.003852 85.066815 
L 290.59123 85.066815 
L 295.178607 87.027126 
L 299.765985 90.909555 
L 304.353362 96.638951 
L 308.94074 104.105626 
L 313.528117 113.168847 
L 318.115495 123.661245 
L 322.702872 135.393949 
L 327.29025 148.162223 
L 331.877627 161.751381 
L 336.465005 175.942723 
L 341.052382 190.519288 
L 345.63976 205.271203 
L 350.227137 220.00046 
L 354.814515 234.524967 
L 359.401892 248.681803 
L 363.98927 262.329585 
L 368.576647 275.349969 
L 373.164025 287.648289 
L 377.751402 299.153403 
L 382.33878 309.816834 
L 386.926157 319.611318 
L 391.513535 328.528873 
L 396.100912 336.578533 
L 400.68829 343.783849 
L 405.275667 350.180308 
L 409.863045 355.812744 
L 414.450422 360.732865 
L 419.0378 364.996938 
L 423.625177 368.663718 
L 428.212555 371.792634 
L 432.799932 374.442268 
L 437.38731 376.66912 
L 441.974687 378.526659 
L 446.562065 380.064642 
L 451.149442 381.328663 
L 455.73682 382.359924 
L 460.324197 383.195167 
L 464.911575 383.866759 
L 469.498952 384.402881 
L 474.08633 384.827794 
L 478.673707 385.162168 
L 483.261085 385.423426 
L 487.848462 385.626115 
L 492.43584 385.782256 
L 497.023217 385.901696 
L 501.610595 385.992421 
L 506.197972 386.060855 
L 510.78535 386.112115 
L 515.372727 386.150245 
" style="fill:none;stroke:#ff6384;stroke-linecap:square;"/>
   </g>
   <g id="line2d_2">
    <path clip-path="url(#pce1b73a2e1)" d="M 58.827273 386.139371 
L 62.96924 386.097141 
L 67.111207 386.040368 
L 71.253174 385.964575 
L 75.395141 385.864094 
L 79.537108 385.73181 
L 83.679075 385.558878 
L 87.821042 385.334393 
L 91.963009 385.04504 
L 96.104976 384.674709 
L 100.246943 384.204102 
L 104.38891 383.610328 
L 108.530877 382.866516 
L 112.672844 381.941454 
L 116.814811 380.799296 
L 120.956778 379.399346 
L 125.098744 377.695976 
L 129.240711 375.638684 
L 133.382678 373.172366 
L 137.524645 370.2378 
L 141.666612 366.772413 
L 145.808579 362.711322 
L 149.950546 357.988708 
L 154.092513 352.539497 
L 158.23448 346.301371 
L 162.376447 339.217063 
L 166.518414 331.236916 
L 170.660381 322.321628 
L 174.802348 312.445114 
L 178.944315 301.597371 
L 183.086282 289.787238 
L 187.228249 277.04491 
L 191.370216 263.424078 
L 195.512183 249.003534 
L 199.65415 233.888124 
L 203.796117 218.208919 
L 207.938084 202.122504 
L 212.080051 185.809323 
L 216.222018 169.471045 
L 220.363985 153.326975 
L 224.505952 137.609553 
L 228.647919 122.559072 
L 232.789886 108.417748 
L 236.931853 95.423357 
L 241.07382 83.802649 
L 245.215787 73.764805 
L 249.357754 65.495194 
L 253.499721 59.149682 
L 257.641688 54.849752 
L 261.783655 52.678636 
L 265.925622 52.678636 
L 270.067589 54.849752 
L 274.209556 59.149682 
L 278.351523 65.495194 
L 282.49349 73.764805 
L 286.635457 83.802649 
L 290.777424 95.423357 
L 294.919391 108.417748 
L 299.061358 122.559072 
L 303.203325 137.609553 
L 307.345292 153.326975 
L 311.487259 169.471045 
L 315.629226 185.809323 
L 319.771193 202.122504 
L 323.91316 218.208919 
L 328.055127 233.888124 
L 332.197094 249.003534 
L 336.339061 263.424078 
L 340.481028 277.04491 
L 344.622995 289.787238 
L 348.764962 301.597371 
L 352.906929 312.445114 
L 357.048896 322.321628 
L 361.190863 331.236916 
L 365.33283 339.217063 
L 369.474797 346.301371 
L 373.616764 352.539497 
L 377.758731 357.988708 
L 381.900698 362.711322 
L 386.042665 366.772413 
L 390.184632 370.2378 
L 394.326599 373.172366 
L 398.468566 375.638684 
L 402.610533 377.695976 
L 406.7525 379.399346 
L 410.894467 380.799296 
L 415.036433 381.941454 
L 419.1784 382.866516 
L 423.320367 383.610328 
L 427.462334 384.204102 
L 431.604301 384.674709 
L 435.746268 385.04504 
L 439.888235 385.334393 
L 444.030202 385.558878 
L 448.172169 385.73181 
L 452.314136 385.864094 
L 456.456103 385.964575 
L 460.59807 386.040368 
L 464.740037 386.097141 
L 468.882004 386.139371 
" style="fill:none;stroke:#36a2eb;stroke-linecap:square;"/>
   </g>
   <g id="patch_3">
    <path d="M 36 402.93 
L 538.2 402.93 
" style="fill:none;stroke:#000000;stroke-linecap:square;stroke-linejoin:miter;stroke-width:0.8;"/>
   </g>
   <g id="legend_1">
    <g id="patch_4">
     <path d="M 450.225313 88.29875 
L 528.4 88.29875 
Q 531.2 88.29875 531.2 85.49875 
L 531.2 45.8 
Q 531.2 43 528.4 43 
L 450.225313 43 
Q 447.425313 43 447.425313 45.8 
L 447.425313 85.49875 
Q 447.425313 88.29875 450.225313 88.29875 
z
" style="fill:#ffffff;opacity:0.8;stroke:#cccccc;stroke-linejoin:miter;"/>
    </g>
    <g id="patch_5">
     <path d="M 453.025313 59.237813 
L 481.025313 59.237813 
L 481.025313 49.437813 
L 453.025313 49.437813 
z
" style="fill:#ff6384;opacity:0.5;stroke:#ff6384;stroke-linejoin:miter;"/>
    </g>
    <g id="text_1">
     <!-- base -->
     <defs>
      <path d="M 48.6875 27.296875 
Q 48.6875 37.203125 44.609375 42.84375 
Q 40.53125 48.484375 33.40625 48.484375 
Q 26.265625 48.484375 22.1875 42.84375 
Q 18.109375 37.203125 18.109375 27.296875 
Q 18.109375 17.390625 22.1875 11.75 
Q 26.265625 6.109375 33.40625 6.109375 
Q 40.53125 6.109375 44.609375 11.75 
Q 48.6875 17.390625 48.6875 27.296875 
z
M 18.109375 46.390625 
Q 20.953125 51.265625 25.265625 53.625 
Q 29.59375 56 35.59375 56 
Q 45.5625 56 51.78125 48.09375 
Q 58.015625 40.1875 58.015625 27.296875 
Q 58.015625 14.40625 51.78125 6.484375 
Q 45.5625 -1.421875 35.59375 -1.421875 
Q 29.59375 -1.421875 25.265625 0.953125 
Q 20.953125 3.328125 18.109375 8.203125 
L 18.109375 0 
L 9.078125 0 
L 9.078125 75.984375 
L 18.109375 75.984375 
z
" id="DejaVuSans-98"/>
      <path d="M 34.28125 27.484375 
Q 23.390625 27.484375 19.1875 25 
Q 14.984375 22.515625 14.984375 16.5 
Q 14.984375 11.71875 18.140625 8.90625 
Q 21.296875 6.109375 26.703125 6.109375 
Q 34.1875 6.109375 38.703125 11.40625 
Q 43.21875 16.703125 43.21875 25.484375 
L 43.21875 27.484375 
z
M 52.203125 31.203125 
L 52.203125 0 
L 43.21875 0 
L 43.21875 8.296875 
Q 40.140625 3.328125 35.546875 0.953125 
Q 30.953125 -1.421875 24.3125 -1.421875 
Q 15.921875 -1.421875 10.953125 3.296875 
Q 6 8.015625 6 15.921875 
Q 6 25.140625 12.171875 29.828125 
Q 18.359375 34.515625 30.609375 34.515625 
L 43.21875 34.515625 
L 43.21875 35.40625 
Q 43.21875 41.609375 39.140625 45 
Q 35.0625 48.390625 27.6875 48.390625 
Q 23 48.390625 18.546875 47.265625 
Q 14.109375 46.140625 10.015625 43.890625 
L 10.015625 52.203125 
Q 14.9375 54.109375 19.578125 55.046875 
Q 24.21875 56 28.609375 56 
Q 40.484375 56 46.34375 49.84375 
Q 52.203125 43.703125 52.203125 31.203125 
z
" id="DejaVuSans-97"/>
      <path d="M 44.28125 53.078125 
L 44.28125 44.578125 
Q 40.484375 46.53125 36.375 47.5 
Q 32.28125 48.484375 27.875 48.484375 
Q 21.1875 48.484375 17.84375 46.4375 
Q 14.5 44.390625 14.5 40.28125 
Q 14.5 37.15625 16.890625 35.375 
Q 19.28125 33.59375 26.515625 31.984375 
L 29.59375 31.296875 
Q 39.15625 29.25 43.1875 25.515625 
Q 47.21875 21.78125 47.21875 15.09375 
Q 47.21875 7.46875 41.1875 3.015625 
Q 35.15625 -1.421875 24.609375 -1.421875 
Q 20.21875 -1.421875 15.453125 -0.5625 
Q 10.6875 0.296875 5.421875 2 
L 5.421875 11.28125 
Q 10.40625 8.6875 15.234375 7.390625 
Q 20.0625 6.109375 24.8125 6.109375 
Q 31.15625 6.109375 34.5625 8.28125 
Q 37.984375 10.453125 37.984375 14.40625 
Q 37.984375 18.0625 35.515625 20.015625 
Q 33.0625 21.96875 24.703125 23.78125 
L 21.578125 24.515625 
Q 13.234375 26.265625 9.515625 29.90625 
Q 5.8125 33.546875 5.8125 39.890625 
Q 5.8125 47.609375 11.28125 51.796875 
Q 16.75 56 26.8125 56 
Q 31.78125 56 36.171875 55.265625 
Q 40.578125 54.546875 44.28125 53.078125 
z
" id="DejaVuSans-115"/>
      <path d="M 56.203125 29.59375 
L 56.203125 25.203125 
L 14.890625 25.203125 
Q 15.484375 15.921875 20.484375 11.0625 
Q 25.484375 6.203125 34.421875 6.203125 
Q 39.59375 6.203125 44.453125 7.46875 
Q 49.3125 8.734375 54.109375 11.28125 
L 54.109375 2.78125 
Q 49.265625 0.734375 44.1875 -0.34375 
Q 39.109375 -1.421875 33.890625 -1.421875 
Q 20.796875 -1.421875 13.15625 6.1875 
Q 5.515625 13.8125 5.515625 26.8125 
Q 5.515625 40.234375 12.765625 48.109375 
Q 20.015625 56 32.328125 56 
Q 43.359375 56 49.78125 48.890625 
Q 56.203125 41.796875 56.203125 29.59375 
z
M 47.21875 32.234375 
Q 47.125 39.59375 43.09375 43.984375 
Q 39.0625 48.390625 32.421875 48.390625 
Q 24.90625 48.390625 20.390625 44.140625 
Q 15.875 39.890625 15.1875 32.171875 
z
" id="DejaVuSans-101"/>
     </defs>
     <g transform="translate(492.225313 59.237813)scale(0.14 -0.14)">
      <use xlink:href="#DejaVuSans-98"/>
      <use x="63.476562" xlink:href="#DejaVuSans-97"/>
      <use x="124.755859" xlink:href="#DejaVuSans-115"/>
      <use x="176.855469" xlink:href="#DejaVuSans-101"/>
     </g>
    </g>
    <g id="patch_6">
     <path d="M 453.025313 79.787188 
L 481.025313 79.787188 
L 481.025313 69.987188 
L 453.025313 69.987188 
z
" style="fill:#36a2eb;opacity:0.5;stroke:#36a2eb;stroke-linejoin:miter;"/>
    </g>
    <g id="text_2">
     <!-- new -->
     <defs>
      <path d="M 54.890625 33.015625 
L 54.890625 0 
L 45.90625 0 
L 45.90625 32.71875 
Q 45.90625 40.484375 42.875 44.328125 
Q 39.84375 48.1875 33.796875 48.1875 
Q 26.515625 48.1875 22.3125 43.546875 
Q 18.109375 38.921875 18.109375 30.90625 
L 18.109375 0 
L 9.078125 0 
L 9.078125 54.6875 
L 18.109375 54.6875 
L 18.109375 46.1875 
Q 21.34375 51.125 25.703125 53.5625 
Q 30.078125 56 35.796875 56 
Q 45.21875 56 50.046875 50.171875 
Q 54.890625 44.34375 54.890625 33.015625 
z
" id="DejaVuSans-110"/>
      <path d="M 4.203125 54.6875 
L 13.1875 54.6875 
L 24.421875 12.015625 
L 35.59375 54.6875 
L 46.1875 54.6875 
L 57.421875 12.015625 
L 68.609375 54.6875 
L 77.59375 54.6875 
L 63.28125 0 
L 52.6875 0 
L 40.921875 44.828125 
L 29.109375 0 
L 18.5 0 
z
" id="DejaVuSans-119"/>
     </defs>
     <g transform="translate(492.225313 79.787188)scale(0.14 -0.14)">
      <use xlink:href="#DejaVuSans-110"/>
      <use x="63.378906" xlink:href="#DejaVuSans-101"/>
      <use x="124.902344" xlink:href="#DejaVuSans-119"/>
     </g>
    </g>
   </g>
  </g>
  <g id="axes_2">
   <g id="patch_7">
    <path d="M 36 525.24 
L 538.2 525.24 
L 538.2 402.93 
L 36 402.93 
z
" style="fill:none;"/>
   </g>
   <g id="patch_8">
    <path clip-path="url(#pbe650efb04)" d="M 177.030699 519.680455 
L 399.564382 519.680455 
L 399.564382 482.616818 
L 177.030699 482.616818 
z
" style="fill:#ff6384;opacity:0.5;"/>
   </g>
   <g id="patch_9">
    <path clip-path="url(#pbe650efb04)" d="M 163.391229 445.553182 
L 364.318048 445.553182 
L 364.318048 408.489545 
L 163.391229 408.489545 
z
" style="fill:#36a2eb;opacity:0.5;"/>
   </g>
   <g id="matplotlib.axis_1">
    <g id="xtick_1">
     <g id="line2d_3">
      <defs>
       <path d="M 0 0 
L 0 3.5 
" id="m17dab3bffd" style="stroke:#000000;stroke-width:0.8;"/>
      </defs>
      <g>
       <use style="stroke:#000000;stroke-width:0.8;" x="84.127416" xlink:href="#m17dab3bffd" y="525.24"/>
      </g>
     </g>
     <g id="text_3">
      <!-- 4.5 -->
      <defs>
       <path d="M 37.796875 64.3125 
L 12.890625 25.390625 
L 37.796875 25.390625 
z
M 35.203125 72.90625 
L 47.609375 72.90625 
L 47.609375 25.390625 
L 58.015625 25.390625 
L 58.015625 17.1875 
L 47.609375 17.1875 
L 47.609375 0 
L 37.796875 0 
L 37.796875 17.1875 
L 4.890625 17.1875 
L 4.890625 26.703125 
z
" id="DejaVuSans-52"/>
       <path d="M 10.6875 12.40625 
L 21 12.40625 
L 21 0 
L 10.6875 0 
z
" id="DejaVuSans-46"/>
       <path d="M 10.796875 72.90625 
L 49.515625 72.90625 
L 49.515625 64.59375 
L 19.828125 64.59375 
L 19.828125 46.734375 
Q 21.96875 47.46875 24.109375 47.828125 
Q 26.265625 48.1875 28.421875 48.1875 
Q 40.625 48.1875 47.75 41.5 
Q 54.890625 34.8125 54.890625 23.390625 
Q 54.890625 11.625 47.5625 5.09375 
Q 40.234375 -1.421875 26.90625 -1.421875 
Q 22.3125 -1.421875 17.546875 -0.640625 
Q 12.796875 0.140625 7.71875 1.703125 
L 7.71875 11.625 
Q 12.109375 9.234375 16.796875 8.0625 
Q 21.484375 6.890625 26.703125 6.890625 
Q 35.15625 6.890625 40.078125 11.328125 
Q 45.015625 15.765625 45.015625 23.390625 
Q 45.015625 31 40.078125 35.4375 
Q 35.15625 39.890625 26.703125 39.890625 
Q 22.75 39.890625 18.8125 39.015625 
Q 14.890625 38.140625 10.796875 36.28125 
z
" id="DejaVuSans-53"/>
      </defs>
      <g transform="translate(72.995228 542.877813)scale(0.14 -0.14)">
       <use xlink:href="#DejaVuSans-52"/>
       <use x="63.623047" xlink:href="#DejaVuSans-46"/>
       <use x="95.410156" xlink:href="#DejaVuSans-53"/>
      </g>
     </g>
    </g>
    <g id="xtick_2">
     <g id="line2d_4">
      <g>
       <use style="stroke:#000000;stroke-width:0.8;" x="156.018305" xlink:href="#m17dab3bffd" y="525.24"/>
      </g>
     </g>
     <g id="text_4">
      <!-- 5.0 -->
      <defs>
       <path d="M 31.78125 66.40625 
Q 24.171875 66.40625 20.328125 58.90625 
Q 16.5 51.421875 16.5 36.375 
Q 16.5 21.390625 20.328125 13.890625 
Q 24.171875 6.390625 31.78125 6.390625 
Q 39.453125 6.390625 43.28125 13.890625 
Q 47.125 21.390625 47.125 36.375 
Q 47.125 51.421875 43.28125 58.90625 
Q 39.453125 66.40625 31.78125 66.40625 
z
M 31.78125 74.21875 
Q 44.046875 74.21875 50.515625 64.515625 
Q 56.984375 54.828125 56.984375 36.375 
Q 56.984375 17.96875 50.515625 8.265625 
Q 44.046875 -1.421875 31.78125 -1.421875 
Q 19.53125 -1.421875 13.0625 8.265625 
Q 6.59375 17.96875 6.59375 36.375 
Q 6.59375 54.828125 13.0625 64.515625 
Q 19.53125 74.21875 31.78125 74.21875 
z
" id="DejaVuSans-48"/>
      </defs>
      <g transform="translate(144.886117 542.877813)scale(0.14 -0.14)">
       <use xlink:href="#DejaVuSans-53"/>
       <use x="63.623047" xlink:href="#DejaVuSans-46"/>
       <use x="95.410156" xlink:href="#DejaVuSans-48"/>
      </g>
     </g>
    </g>
    <g id="xtick_3">
     <g id="line2d_5">
      <g>
       <use style="stroke:#000000;stroke-width:0.8;" x="227.909194" xlink:href="#m17dab3bffd" y="525.24"/>
      </g>
     </g>
     <g id="text_5">
      <!-- 5.5 -->
      <g transform="translate(216.777006 542.877813)scale(0.14 -0.14)">
       <use xlink:href="#DejaVuSans-53"/>
       <use x="63.623047" xlink:href="#DejaVuSans-46"/>
       <use x="95.410156" xlink:href="#DejaVuSans-53"/>
      </g>
     </g>
    </g>
    <g id="xtick_4">
     <g id="line2d_6">
      <g>
       <use style="stroke:#000000;stroke-width:0.8;" x="299.800083" xlink:href="#m17dab3bffd" y="525.24"/>
      </g>
     </g>
     <g id="text_6">
      <!-- 6.0 -->
      <defs>
       <path d="M 33.015625 40.375 
Q 26.375 40.375 22.484375 35.828125 
Q 18.609375 31.296875 18.609375 23.390625 
Q 18.609375 15.53125 22.484375 10.953125 
Q 26.375 6.390625 33.015625 6.390625 
Q 39.65625 6.390625 43.53125 10.953125 
Q 47.40625 15.53125 47.40625 23.390625 
Q 47.40625 31.296875 43.53125 35.828125 
Q 39.65625 40.375 33.015625 40.375 
z
M 52.59375 71.296875 
L 52.59375 62.3125 
Q 48.875 64.0625 45.09375 64.984375 
Q 41.3125 65.921875 37.59375 65.921875 
Q 27.828125 65.921875 22.671875 59.328125 
Q 17.53125 52.734375 16.796875 39.40625 
Q 19.671875 43.65625 24.015625 45.921875 
Q 28.375 48.1875 33.59375 48.1875 
Q 44.578125 48.1875 50.953125 41.515625 
Q 57.328125 34.859375 57.328125 23.390625 
Q 57.328125 12.15625 50.6875 5.359375 
Q 44.046875 -1.421875 33.015625 -1.421875 
Q 20.359375 -1.421875 13.671875 8.265625 
Q 6.984375 17.96875 6.984375 36.375 
Q 6.984375 53.65625 15.1875 63.9375 
Q 23.390625 74.21875 37.203125 74.21875 
Q 40.921875 74.21875 44.703125 73.484375 
Q 48.484375 72.75 52.59375 71.296875 
z
" id="DejaVuSans-54"/>
      </defs>
      <g transform="translate(288.667896 542.877813)scale(0.14 -0.14)">
       <use xlink:href="#DejaVuSans-54"/>
       <use x="63.623047" xlink:href="#DejaVuSans-46"/>
       <use x="95.410156" xlink:href="#DejaVuSans-48"/>
      </g>
     </g>
    </g>
    <g id="xtick_5">
     <g id="line2d_7">
      <g>
       <use style="stroke:#000000;stroke-width:0.8;" x="371.690972" xlink:href="#m17dab3bffd" y="525.24"/>
      </g>
     </g>
     <g id="text_7">
      <!-- 6.5 -->
      <g transform="translate(360.558785 542.877813)scale(0.14 -0.14)">
       <use xlink:href="#DejaVuSans-54"/>
       <use x="63.623047" xlink:href="#DejaVuSans-46"/>
       <use x="95.410156" xlink:href="#DejaVuSans-53"/>
      </g>
     </g>
    </g>
    <g id="xtick_6">
     <g id="line2d_8">
      <g>
       <use style="stroke:#000000;stroke-width:0.8;" x="443.581861" xlink:href="#m17dab3bffd" y="525.24"/>
      </g>
     </g>
     <g id="text_8">
      <!-- 7.0 -->
      <defs>
       <path d="M 8.203125 72.90625 
L 55.078125 72.90625 
L 55.078125 68.703125 
L 28.609375 0 
L 18.3125 0 
L 43.21875 64.59375 
L 8.203125 64.59375 
z
" id="DejaVuSans-55"/>
      </defs>
      <g transform="translate(432.449674 542.877813)scale(0.14 -0.14)">
       <use xlink:href="#DejaVuSans-55"/>
       <use x="63.623047" xlink:href="#DejaVuSans-46"/>
       <use x="95.410156" xlink:href="#DejaVuSans-48"/>
      </g>
     </g>
    </g>
    <g id="xtick_7">
     <g id="line2d_9">
      <g>
       <use style="stroke:#000000;stroke-width:0.8;" x="515.47275" xlink:href="#m17dab3bffd" y="525.24"/>
      </g>
     </g>
     <g id="text_9">
      <!-- 7.5 -->
      <g transform="translate(504.340563 542.877813)scale(0.14 -0.14)">
       <use xlink:href="#DejaVuSans-55"/>
       <use x="63.623047" xlink:href="#DejaVuSans-46"/>
       <use x="95.410156" xlink:href="#DejaVuSans-53"/>
      </g>
     </g>
    </g>
   </g>
   <g id="line2d_10">
    <path clip-path="url(#pbe650efb04)" d="M 288.297541 525.24 
L 288.297541 402.93 
" style="fill:none;stroke:#ff6384;stroke-dasharray:5.55,2.4;stroke-dashoffset:0;stroke-opacity:0.8;stroke-width:1.5;"/>
   </g>
   <g id="line2d_11">
    <path clip-path="url(#pbe650efb04)" d="M 263.854639 525.24 
L 263.854639 402.93 
" style="fill:none;stroke:#36a2eb;stroke-dasharray:5.55,2.4;stroke-dashoffset:0;stroke-opacity:0.8;stroke-width:1.5;"/>
   </g>
   <g id="patch_10">
    <path d="M 36 525.24 
L 538.2 525.24 
" style="fill:none;stroke:#000000;stroke-linecap:square;stroke-linejoin:miter;stroke-width:0.8;"/>
   </g>
  </g>
 </g>
 <defs>
  <clipPath id="pce1b73a2e1">
   <rect height="366.93" width="502.2" x="36" y="36"/>
  </clipPath>
  <clipPath id="pbe650efb04">
   <rect height="122.31" width="502.2" x="36" y="402.93"/>
  </clipPath>
 </defs>
</svg>
