<?xml version="1.0" encoding="utf-8" standalone="no"?>
<!DOCTYPE svg PUBLIC "-//W3C//DTD SVG 1.1//EN"
  "http://www.w3.org/Graphics/SVG/1.1/DTD/svg11.dtd">
<!-- Created with matplotlib (https://matplotlib.org/) -->
<svg height="581.789375pt" version="1.1" viewBox="0 0 574.2 581.789375" width="574.2pt" xmlns="http://www.w3.org/2000/svg" xmlns:xlink="http://www.w3.org/1999/xlink">
 <defs>
  <style type="text/css">
*{stroke-linecap:butt;stroke-linejoin:round;}
  </style>
 </defs>
 <g id="figure_1">
  <g id="patch_1">
   <path d="M 0 581.789375 
L 574.2 581.789375 
L 574.2 0 
L 0 0 
z
" style="fill:none;"/>
  </g>
  <g id="axes_1">
   <g id="patch_2">
    <path d="M 36 402.93 
L 538.2 402.93 
L 538.2 36 
L 36 36 
z
" style="fill:none;"/>
   </g>
   <g id="PolyCollection_1">
    <defs>
     <path d="M 64.267819 -195.538011 
L 64.267819 -195.638449 
L 68.824434 -195.676323 
L 73.38105 -195.727238 
L 77.937665 -195.795211 
L 82.49428 -195.885325 
L 87.050895 -196.003961 
L 91.607511 -196.159051 
L 96.164126 -196.360375 
L 100.720741 -196.619875 
L 105.277356 -196.951997 
L 109.833971 -197.37405 
L 114.390587 -197.906562 
L 118.947202 -198.573633 
L 123.503817 -199.403253 
L 128.060432 -200.427571 
L 132.617048 -201.683083 
L 137.173663 -203.210711 
L 141.730278 -205.055745 
L 146.286893 -207.267605 
L 150.843509 -209.899401 
L 155.400124 -213.007252 
L 159.956739 -216.649347 
L 164.513354 -220.884713 
L 169.069969 -225.77171 
L 173.626585 -231.366227 
L 178.1832 -237.719623 
L 182.739815 -244.876431 
L 187.29643 -252.871898 
L 191.853046 -261.729418 
L 196.409661 -271.457963 
L 200.966276 -282.049605 
L 205.522891 -293.477263 
L 210.079507 -305.692787 
L 214.636122 -318.625515 
L 219.192737 -332.181416 
L 223.749352 -346.242944 
L 228.305968 -360.669668 
L 232.862583 -375.299763 
L 237.419198 -389.952365 
L 241.975813 -404.430796 
L 246.532428 -418.526598 
L 251.089044 -432.02427 
L 255.645659 -444.706585 
L 260.202274 -456.360301 
L 264.758889 -466.782061 
L 269.315505 -475.784266 
L 273.87212 -483.200673 
L 278.428735 -488.891497 
L 282.98535 -492.747789 
L 287.541966 -494.694903 
L 292.098581 -494.694903 
L 296.655196 -492.747789 
L 301.211811 -488.891497 
L 305.768427 -483.200673 
L 310.325042 -475.784266 
L 314.881657 -466.782061 
L 319.438272 -456.360301 
L 323.994887 -444.706585 
L 328.551503 -432.02427 
L 333.108118 -418.526598 
L 337.664733 -404.430796 
L 342.221348 -389.952365 
L 346.777964 -375.299763 
L 351.334579 -360.669668 
L 355.891194 -346.242944 
L 360.447809 -332.181416 
L 365.004425 -318.625515 
L 369.56104 -305.692787 
L 374.117655 -293.477263 
L 378.67427 -282.049605 
L 383.230885 -271.457963 
L 387.787501 -261.729418 
L 392.344116 -252.871898 
L 396.900731 -244.876431 
L 401.457346 -237.719623 
L 406.013962 -231.366227 
L 410.570577 -225.77171 
L 415.127192 -220.884713 
L 419.683807 -216.649347 
L 424.240423 -213.007252 
L 428.797038 -209.899401 
L 433.353653 -207.267605 
L 437.910268 -205.055745 
L 442.466884 -203.210711 
L 447.023499 -201.683083 
L 451.580114 -200.427571 
L 456.136729 -199.403253 
L 460.693344 -198.573633 
L 465.24996 -197.906562 
L 469.806575 -197.37405 
L 474.36319 -196.951997 
L 478.919805 -196.619875 
L 483.476421 -196.360375 
L 488.033036 -196.159051 
L 492.589651 -196.003961 
L 497.146266 -195.885325 
L 501.702882 -195.795211 
L 506.259497 -195.727238 
L 510.816112 -195.676323 
L 515.372727 -195.638449 
L 515.372727 -195.538011 
L 515.372727 -195.538011 
L 510.816112 -195.538011 
L 506.259497 -195.538011 
L 501.702882 -195.538011 
L 497.146266 -195.538011 
L 492.589651 -195.538011 
L 488.033036 -195.538011 
L 483.476421 -195.538011 
L 478.919805 -195.538011 
L 474.36319 -195.538011 
L 469.806575 -195.538011 
L 465.24996 -195.538011 
L 460.693344 -195.538011 
L 456.136729 -195.538011 
L 451.580114 -195.538011 
L 447.023499 -195.538011 
L 442.466884 -195.538011 
L 437.910268 -195.538011 
L 433.353653 -195.538011 
L 428.797038 -195.538011 
L 424.240423 -195.538011 
L 419.683807 -195.538011 
L 415.127192 -195.538011 
L 410.570577 -195.538011 
L 406.013962 -195.538011 
L 401.457346 -195.538011 
L 396.900731 -195.538011 
L 392.344116 -195.538011 
L 387.787501 -195.538011 
L 383.230885 -195.538011 
L 378.67427 -195.538011 
L 374.117655 -195.538011 
L 369.56104 -195.538011 
L 365.004425 -195.538011 
L 360.447809 -195.538011 
L 355.891194 -195.538011 
L 351.334579 -195.538011 
L 346.777964 -195.538011 
L 342.221348 -195.538011 
L 337.664733 -195.538011 
L 333.108118 -195.538011 
L 328.551503 -195.538011 
L 323.994887 -195.538011 
L 319.438272 -195.538011 
L 314.881657 -195.538011 
L 310.325042 -195.538011 
L 305.768427 -195.538011 
L 301.211811 -195.538011 
L 296.655196 -195.538011 
L 292.098581 -195.538011 
L 287.541966 -195.538011 
L 282.98535 -195.538011 
L 278.428735 -195.538011 
L 273.87212 -195.538011 
L 269.315505 -195.538011 
L 264.758889 -195.538011 
L 260.202274 -195.538011 
L 255.645659 -195.538011 
L 251.089044 -195.538011 
L 246.532428 -195.538011 
L 241.975813 -195.538011 
L 237.419198 -195.538011 
L 232.862583 -195.538011 
L 228.305968 -195.538011 
L 223.749352 -195.538011 
L 219.192737 -195.538011 
L 214.636122 -195.538011 
L 210.079507 -195.538011 
L 205.522891 -195.538011 
L 200.966276 -195.538011 
L 196.409661 -195.538011 
L 191.853046 -195.538011 
L 187.29643 -195.538011 
L 182.739815 -195.538011 
L 178.1832 -195.538011 
L 173.626585 -195.538011 
L 169.069969 -195.538011 
L 164.513354 -195.538011 
L 159.956739 -195.538011 
L 155.400124 -195.538011 
L 150.843509 -195.538011 
L 146.286893 -195.538011 
L 141.730278 -195.538011 
L 137.173663 -195.538011 
L 132.617048 -195.538011 
L 128.060432 -195.538011 
L 123.503817 -195.538011 
L 118.947202 -195.538011 
L 114.390587 -195.538011 
L 109.833971 -195.538011 
L 105.277356 -195.538011 
L 100.720741 -195.538011 
L 96.164126 -195.538011 
L 91.607511 -195.538011 
L 87.050895 -195.538011 
L 82.49428 -195.538011 
L 77.937665 -195.538011 
L 73.38105 -195.538011 
L 68.824434 -195.538011 
L 64.267819 -195.538011 
z
" id="md9b25727a3" style="stroke:#ff6384;stroke-opacity:0.5;"/>
    </defs>
    <g clip-path="url(#p8df7efdc8c)">
     <use style="fill:#ff6384;fill-opacity:0.5;stroke:#ff6384;stroke-opacity:0.5;" x="0" xlink:href="#md9b25727a3" y="581.789375"/>
    </g>
   </g>
   <g id="PolyCollection_2">
    <defs>
     <path d="M 58.827273 -195.538011 
L 58.827273 -195.650004 
L 62.913766 -195.692234 
L 67.00026 -195.749007 
L 71.086754 -195.8248 
L 75.173248 -195.925281 
L 79.259741 -196.057565 
L 83.346235 -196.230497 
L 87.432729 -196.454982 
L 91.519222 -196.744335 
L 95.605716 -197.114666 
L 99.69221 -197.585273 
L 103.778703 -198.179047 
L 107.865197 -198.922859 
L 111.951691 -199.847921 
L 116.038185 -200.990079 
L 120.124678 -202.390029 
L 124.211172 -204.093399 
L 128.297666 -206.150691 
L 132.384159 -208.617009 
L 136.470653 -211.551575 
L 140.557147 -215.016962 
L 144.64364 -219.078053 
L 148.730134 -223.800667 
L 152.816628 -229.249878 
L 156.903122 -235.488004 
L 160.989615 -242.572312 
L 165.076109 -250.552459 
L 169.162603 -259.467747 
L 173.249096 -269.344261 
L 177.33559 -280.192004 
L 181.422084 -292.002137 
L 185.508577 -304.744465 
L 189.595071 -318.365297 
L 193.681565 -332.785841 
L 197.768058 -347.901251 
L 201.854552 -363.580456 
L 205.941046 -379.666871 
L 210.02754 -395.980052 
L 214.114033 -412.31833 
L 218.200527 -428.4624 
L 222.287021 -444.179822 
L 226.373514 -459.230303 
L 230.460008 -473.371627 
L 234.546502 -486.366018 
L 238.632995 -497.986726 
L 242.719489 -508.02457 
L 246.805983 -516.294181 
L 250.892477 -522.639693 
L 254.97897 -526.939623 
L 259.065464 -529.110739 
L 263.151958 -529.110739 
L 267.238451 -526.939623 
L 271.324945 -522.639693 
L 275.411439 -516.294181 
L 279.497932 -508.02457 
L 283.584426 -497.986726 
L 287.67092 -486.366018 
L 291.757414 -473.371627 
L 295.843907 -459.230303 
L 299.930401 -444.179822 
L 304.016895 -428.4624 
L 308.103388 -412.31833 
L 312.189882 -395.980052 
L 316.276376 -379.666871 
L 320.362869 -363.580456 
L 324.449363 -347.901251 
L 328.535857 -332.785841 
L 332.622351 -318.365297 
L 336.708844 -304.744465 
L 340.795338 -292.002137 
L 344.881832 -280.192004 
L 348.968325 -269.344261 
L 353.054819 -259.467747 
L 357.141313 -250.552459 
L 361.227806 -242.572312 
L 365.3143 -235.488004 
L 369.400794 -229.249878 
L 373.487288 -223.800667 
L 377.573781 -219.078053 
L 381.660275 -215.016962 
L 385.746769 -211.551575 
L 389.833262 -208.617009 
L 393.919756 -206.150691 
L 398.00625 -204.093399 
L 402.092743 -202.390029 
L 406.179237 -200.990079 
L 410.265731 -199.847921 
L 414.352225 -198.922859 
L 418.438718 -198.179047 
L 422.525212 -197.585273 
L 426.611706 -197.114666 
L 430.698199 -196.744335 
L 434.784693 -196.454982 
L 438.871187 -196.230497 
L 442.95768 -196.057565 
L 447.044174 -195.925281 
L 451.130668 -195.8248 
L 455.217162 -195.749007 
L 459.303655 -195.692234 
L 463.390149 -195.650004 
L 463.390149 -195.538011 
L 463.390149 -195.538011 
L 459.303655 -195.538011 
L 455.217162 -195.538011 
L 451.130668 -195.538011 
L 447.044174 -195.538011 
L 442.95768 -195.538011 
L 438.871187 -195.538011 
L 434.784693 -195.538011 
L 430.698199 -195.538011 
L 426.611706 -195.538011 
L 422.525212 -195.538011 
L 418.438718 -195.538011 
L 414.352225 -195.538011 
L 410.265731 -195.538011 
L 406.179237 -195.538011 
L 402.092743 -195.538011 
L 398.00625 -195.538011 
L 393.919756 -195.538011 
L 389.833262 -195.538011 
L 385.746769 -195.538011 
L 381.660275 -195.538011 
L 377.573781 -195.538011 
L 373.487288 -195.538011 
L 369.400794 -195.538011 
L 365.3143 -195.538011 
L 361.227806 -195.538011 
L 357.141313 -195.538011 
L 353.054819 -195.538011 
L 348.968325 -195.538011 
L 344.881832 -195.538011 
L 340.795338 -195.538011 
L 336.708844 -195.538011 
L 332.622351 -195.538011 
L 328.535857 -195.538011 
L 324.449363 -195.538011 
L 320.362869 -195.538011 
L 316.276376 -195.538011 
L 312.189882 -195.538011 
L 308.103388 -195.538011 
L 304.016895 -195.538011 
L 299.930401 -195.538011 
L 295.843907 -195.538011 
L 291.757414 -195.538011 
L 287.67092 -195.538011 
L 283.584426 -195.538011 
L 279.497932 -195.538011 
L 275.411439 -195.538011 
L 271.324945 -195.538011 
L 267.238451 -195.538011 
L 263.151958 -195.538011 
L 259.065464 -195.538011 
L 254.97897 -195.538011 
L 250.892477 -195.538011 
L 246.805983 -195.538011 
L 242.719489 -195.538011 
L 238.632995 -195.538011 
L 234.546502 -195.538011 
L 230.460008 -195.538011 
L 226.373514 -195.538011 
L 222.287021 -195.538011 
L 218.200527 -195.538011 
L 214.114033 -195.538011 
L 210.02754 -195.538011 
L 205.941046 -195.538011 
L 201.854552 -195.538011 
L 197.768058 -195.538011 
L 193.681565 -195.538011 
L 189.595071 -195.538011 
L 185.508577 -195.538011 
L 181.422084 -195.538011 
L 177.33559 -195.538011 
L 173.249096 -195.538011 
L 169.162603 -195.538011 
L 165.076109 -195.538011 
L 160.989615 -195.538011 
L 156.903122 -195.538011 
L 152.816628 -195.538011 
L 148.730134 -195.538011 
L 144.64364 -195.538011 
L 140.557147 -195.538011 
L 136.470653 -195.538011 
L 132.384159 -195.538011 
L 128.297666 -195.538011 
L 124.211172 -195.538011 
L 120.124678 -195.538011 
L 116.038185 -195.538011 
L 111.951691 -195.538011 
L 107.865197 -195.538011 
L 103.778703 -195.538011 
L 99.69221 -195.538011 
L 95.605716 -195.538011 
L 91.519222 -195.538011 
L 87.432729 -195.538011 
L 83.346235 -195.538011 
L 79.259741 -195.538011 
L 75.173248 -195.538011 
L 71.086754 -195.538011 
L 67.00026 -195.538011 
L 62.913766 -195.538011 
L 58.827273 -195.538011 
z
" id="m49b128bfcf" style="stroke:#36a2eb;stroke-opacity:0.5;"/>
    </defs>
    <g clip-path="url(#p8df7efdc8c)">
     <use style="fill:#36a2eb;fill-opacity:0.5;stroke:#36a2eb;stroke-opacity:0.5;" x="0" xlink:href="#m49b128bfcf" y="581.789375"/>
    </g>
   </g>
   <g id="line2d_1">
    <path clip-path="url(#p8df7efdc8c)" d="M 64.267819 386.150926 
L 68.824434 386.113052 
L 73.38105 386.062137 
L 77.937665 385.994164 
L 82.49428 385.90405 
L 87.050895 385.785414 
L 91.607511 385.630324 
L 96.164126 385.429 
L 100.720741 385.1695 
L 105.277356 384.837378 
L 109.833971 384.415325 
L 114.390587 383.882813 
L 118.947202 383.215742 
L 123.503817 382.386122 
L 128.060432 381.361804 
L 132.617048 380.106292 
L 137.173663 378.578664 
L 141.730278 376.73363 
L 146.286893 374.52177 
L 150.843509 371.889974 
L 155.400124 368.782123 
L 159.956739 365.140028 
L 164.513354 360.904662 
L 169.069969 356.017665 
L 173.626585 350.423148 
L 178.1832 344.069752 
L 182.739815 336.912944 
L 187.29643 328.917477 
L 191.853046 320.059957 
L 196.409661 310.331412 
L 200.966276 299.73977 
L 205.522891 288.312112 
L 210.079507 276.096588 
L 214.636122 263.16386 
L 219.192737 249.607959 
L 223.749352 235.546431 
L 228.305968 221.119707 
L 232.862583 206.489612 
L 237.419198 191.83701 
L 241.975813 177.358579 
L 246.532428 163.262777 
L 251.089044 149.765105 
L 255.645659 137.08279 
L 260.202274 125.429074 
L 264.758889 115.007314 
L 269.315505 106.005109 
L 273.87212 98.588702 
L 278.428735 92.897878 
L 282.98535 89.041586 
L 287.541966 87.094472 
L 292.098581 87.094472 
L 296.655196 89.041586 
L 301.211811 92.897878 
L 305.768427 98.588702 
L 310.325042 106.005109 
L 314.881657 115.007314 
L 319.438272 125.429074 
L 323.994887 137.08279 
L 328.551503 149.765105 
L 333.108118 163.262777 
L 337.664733 177.358579 
L 342.221348 191.83701 
L 346.777964 206.489612 
L 351.334579 221.119707 
L 355.891194 235.546431 
L 360.447809 249.607959 
L 365.004425 263.16386 
L 369.56104 276.096588 
L 374.117655 288.312112 
L 378.67427 299.73977 
L 383.230885 310.331412 
L 387.787501 320.059957 
L 392.344116 328.917477 
L 396.900731 336.912944 
L 401.457346 344.069752 
L 406.013962 350.423148 
L 410.570577 356.017665 
L 415.127192 360.904662 
L 419.683807 365.140028 
L 424.240423 368.782123 
L 428.797038 371.889974 
L 433.353653 374.52177 
L 437.910268 376.73363 
L 442.466884 378.578664 
L 447.023499 380.106292 
L 451.580114 381.361804 
L 456.136729 382.386122 
L 460.693344 383.215742 
L 465.24996 383.882813 
L 469.806575 384.415325 
L 474.36319 384.837378 
L 478.919805 385.1695 
L 483.476421 385.429 
L 488.033036 385.630324 
L 492.589651 385.785414 
L 497.146266 385.90405 
L 501.702882 385.994164 
L 506.259497 386.062137 
L 510.816112 386.113052 
L 515.372727 386.150926 
" style="fill:none;stroke:#ff6384;stroke-linecap:square;"/>
   </g>
   <g id="line2d_2">
    <path clip-path="url(#p8df7efdc8c)" d="M 58.827273 386.139371 
L 62.913766 386.097141 
L 67.00026 386.040368 
L 71.086754 385.964575 
L 75.173248 385.864094 
L 79.259741 385.73181 
L 83.346235 385.558878 
L 87.432729 385.334393 
L 91.519222 385.04504 
L 95.605716 384.674709 
L 99.69221 384.204102 
L 103.778703 383.610328 
L 107.865197 382.866516 
L 111.951691 381.941454 
L 116.038185 380.799296 
L 120.124678 379.399346 
L 124.211172 377.695976 
L 128.297666 375.638684 
L 132.384159 373.172366 
L 136.470653 370.2378 
L 140.557147 366.772413 
L 144.64364 362.711322 
L 148.730134 357.988708 
L 152.816628 352.539497 
L 156.903122 346.301371 
L 160.989615 339.217063 
L 165.076109 331.236916 
L 169.162603 322.321628 
L 173.249096 312.445114 
L 177.33559 301.597371 
L 181.422084 289.787238 
L 185.508577 277.04491 
L 189.595071 263.424078 
L 193.681565 249.003534 
L 197.768058 233.888124 
L 201.854552 218.208919 
L 205.941046 202.122504 
L 210.02754 185.809323 
L 214.114033 169.471045 
L 218.200527 153.326975 
L 222.287021 137.609553 
L 226.373514 122.559072 
L 230.460008 108.417748 
L 234.546502 95.423357 
L 238.632995 83.802649 
L 242.719489 73.764805 
L 246.805983 65.495194 
L 250.892477 59.149682 
L 254.97897 54.849752 
L 259.065464 52.678636 
L 263.151958 52.678636 
L 267.238451 54.849752 
L 271.324945 59.149682 
L 275.411439 65.495194 
L 279.497932 73.764805 
L 283.584426 83.802649 
L 287.67092 95.423357 
L 291.757414 108.417748 
L 295.843907 122.559072 
L 299.930401 137.609553 
L 304.016895 153.326975 
L 308.103388 169.471045 
L 312.189882 185.809323 
L 316.276376 202.122504 
L 320.362869 218.208919 
L 324.449363 233.888124 
L 328.535857 249.003534 
L 332.622351 263.424078 
L 336.708844 277.04491 
L 340.795338 289.787238 
L 344.881832 301.597371 
L 348.968325 312.445114 
L 353.054819 322.321628 
L 357.141313 331.236916 
L 361.227806 339.217063 
L 365.3143 346.301371 
L 369.400794 352.539497 
L 373.487288 357.988708 
L 377.573781 362.711322 
L 381.660275 366.772413 
L 385.746769 370.2378 
L 389.833262 373.172366 
L 393.919756 375.638684 
L 398.00625 377.695976 
L 402.092743 379.399346 
L 406.179237 380.799296 
L 410.265731 381.941454 
L 414.352225 382.866516 
L 418.438718 383.610328 
L 422.525212 384.204102 
L 426.611706 384.674709 
L 430.698199 385.04504 
L 434.784693 385.334393 
L 438.871187 385.558878 
L 442.95768 385.73181 
L 447.044174 385.864094 
L 451.130668 385.964575 
L 455.217162 386.040368 
L 459.303655 386.097141 
L 463.390149 386.139371 
" style="fill:none;stroke:#36a2eb;stroke-linecap:square;"/>
   </g>
   <g id="patch_3">
    <path d="M 36 402.93 
L 538.2 402.93 
" style="fill:none;stroke:#000000;stroke-linecap:square;stroke-linejoin:miter;stroke-width:0.8;"/>
   </g>
   <g id="legend_1">
    <g id="patch_4">
     <path d="M 450.225313 88.29875 
L 528.4 88.29875 
Q 531.2 88.29875 531.2 85.49875 
L 531.2 45.8 
Q 531.2 43 528.4 43 
L 450.225313 43 
Q 447.425313 43 447.425313 45.8 
L 447.425313 85.49875 
Q 447.425313 88.29875 450.225313 88.29875 
z
" style="fill:#ffffff;opacity:0.8;stroke:#cccccc;stroke-linejoin:miter;"/>
    </g>
    <g id="patch_5">
     <path d="M 453.025313 59.237813 
L 481.025313 59.237813 
L 481.025313 49.437813 
L 453.025313 49.437813 
z
" style="fill:#ff6384;opacity:0.5;stroke:#ff6384;stroke-linejoin:miter;"/>
    </g>
    <g id="text_1">
     <!-- base -->
     <defs>
      <path d="M 48.6875 27.296875 
Q 48.6875 37.203125 44.609375 42.84375 
Q 40.53125 48.484375 33.40625 48.484375 
Q 26.265625 48.484375 22.1875 42.84375 
Q 18.109375 37.203125 18.109375 27.296875 
Q 18.109375 17.390625 22.1875 11.75 
Q 26.265625 6.109375 33.40625 6.109375 
Q 40.53125 6.109375 44.609375 11.75 
Q 48.6875 17.390625 48.6875 27.296875 
z
M 18.109375 46.390625 
Q 20.953125 51.265625 25.265625 53.625 
Q 29.59375 56 35.59375 56 
Q 45.5625 56 51.78125 48.09375 
Q 58.015625 40.1875 58.015625 27.296875 
Q 58.015625 14.40625 51.78125 6.484375 
Q 45.5625 -1.421875 35.59375 -1.421875 
Q 29.59375 -1.421875 25.265625 0.953125 
Q 20.953125 3.328125 18.109375 8.203125 
L 18.109375 0 
L 9.078125 0 
L 9.078125 75.984375 
L 18.109375 75.984375 
z
" id="DejaVuSans-98"/>
      <path d="M 34.28125 27.484375 
Q 23.390625 27.484375 19.1875 25 
Q 14.984375 22.515625 14.984375 16.5 
Q 14.984375 11.71875 18.140625 8.90625 
Q 21.296875 6.109375 26.703125 6.109375 
Q 34.1875 6.109375 38.703125 11.40625 
Q 43.21875 16.703125 43.21875 25.484375 
L 43.21875 27.484375 
z
M 52.203125 31.203125 
L 52.203125 0 
L 43.21875 0 
L 43.21875 8.296875 
Q 40.140625 3.328125 35.546875 0.953125 
Q 30.953125 -1.421875 24.3125 -1.421875 
Q 15.921875 -1.421875 10.953125 3.296875 
Q 6 8.015625 6 15.921875 
Q 6 25.140625 12.171875 29.828125 
Q 18.359375 34.515625 30.609375 34.515625 
L 43.21875 34.515625 
L 43.21875 35.40625 
Q 43.21875 41.609375 39.140625 45 
Q 35.0625 48.390625 27.6875 48.390625 
Q 23 48.390625 18.546875 47.265625 
Q 14.109375 46.140625 10.015625 43.890625 
L 10.015625 52.203125 
Q 14.9375 54.109375 19.578125 55.046875 
Q 24.21875 56 28.609375 56 
Q 40.484375 56 46.34375 49.84375 
Q 52.203125 43.703125 52.203125 31.203125 
z
" id="DejaVuSans-97"/>
      <path d="M 44.28125 53.078125 
L 44.28125 44.578125 
Q 40.484375 46.53125 36.375 47.5 
Q 32.28125 48.484375 27.875 48.484375 
Q 21.1875 48.484375 17.84375 46.4375 
Q 14.5 44.390625 14.5 40.28125 
Q 14.5 37.15625 16.890625 35.375 
Q 19.28125 33.59375 26.515625 31.984375 
L 29.59375 31.296875 
Q 39.15625 29.25 43.1875 25.515625 
Q 47.21875 21.78125 47.21875 15.09375 
Q 47.21875 7.46875 41.1875 3.015625 
Q 35.15625 -1.421875 24.609375 -1.421875 
Q 20.21875 -1.421875 15.453125 -0.5625 
Q 10.6875 0.296875 5.421875 2 
L 5.421875 11.28125 
Q 10.40625 8.6875 15.234375 7.390625 
Q 20.0625 6.109375 24.8125 6.109375 
Q 31.15625 6.109375 34.5625 8.28125 
Q 37.984375 10.453125 37.984375 14.40625 
Q 37.984375 18.0625 35.515625 20.015625 
Q 33.0625 21.96875 24.703125 23.78125 
L 21.578125 24.515625 
Q 13.234375 26.265625 9.515625 29.90625 
Q 5.8125 33.546875 5.8125 39.890625 
Q 5.8125 47.609375 11.28125 51.796875 
Q 16.75 56 26.8125 56 
Q 31.78125 56 36.171875 55.265625 
Q 40.578125 54.546875 44.28125 53.078125 
z
" id="DejaVuSans-115"/>
      <path d="M 56.203125 29.59375 
L 56.203125 25.203125 
L 14.890625 25.203125 
Q 15.484375 15.921875 20.484375 11.0625 
Q 25.484375 6.203125 34.421875 6.203125 
Q 39.59375 6.203125 44.453125 7.46875 
Q 49.3125 8.734375 54.109375 11.28125 
L 54.109375 2.78125 
Q 49.265625 0.734375 44.1875 -0.34375 
Q 39.109375 -1.421875 33.890625 -1.421875 
Q 20.796875 -1.421875 13.15625 6.1875 
Q 5.515625 13.8125 5.515625 26.8125 
Q 5.515625 40.234375 12.765625 48.109375 
Q 20.015625 56 32.328125 56 
Q 43.359375 56 49.78125 48.890625 
Q 56.203125 41.796875 56.203125 29.59375 
z
M 47.21875 32.234375 
Q 47.125 39.59375 43.09375 43.984375 
Q 39.0625 48.390625 32.421875 48.390625 
Q 24.90625 48.390625 20.390625 44.140625 
Q 15.875 39.890625 15.1875 32.171875 
z
" id="DejaVuSans-101"/>
     </defs>
     <g transform="translate(492.225313 59.237813)scale(0.14 -0.14)">
      <use xlink:href="#DejaVuSans-98"/>
      <use x="63.476562" xlink:href="#DejaVuSans-97"/>
      <use x="124.755859" xlink:href="#DejaVuSans-115"/>
      <use x="176.855469" xlink:href="#DejaVuSans-101"/>
     </g>
    </g>
    <g id="patch_6">
     <path d="M 453.025313 79.787188 
L 481.025313 79.787188 
L 481.025313 69.987188 
L 453.025313 69.987188 
z
" style="fill:#36a2eb;opacity:0.5;stroke:#36a2eb;stroke-linejoin:miter;"/>
    </g>
    <g id="text_2">
     <!-- new -->
     <defs>
      <path d="M 54.890625 33.015625 
L 54.890625 0 
L 45.90625 0 
L 45.90625 32.71875 
Q 45.90625 40.484375 42.875 44.328125 
Q 39.84375 48.1875 33.796875 48.1875 
Q 26.515625 48.1875 22.3125 43.546875 
Q 18.109375 38.921875 18.109375 30.90625 
L 18.109375 0 
L 9.078125 0 
L 9.078125 54.6875 
L 18.109375 54.6875 
L 18.109375 46.1875 
Q 21.34375 51.125 25.703125 53.5625 
Q 30.078125 56 35.796875 56 
Q 45.21875 56 50.046875 50.171875 
Q 54.890625 44.34375 54.890625 33.015625 
z
" id="DejaVuSans-110"/>
      <path d="M 4.203125 54.6875 
L 13.1875 54.6875 
L 24.421875 12.015625 
L 35.59375 54.6875 
L 46.1875 54.6875 
L 57.421875 12.015625 
L 68.609375 54.6875 
L 77.59375 54.6875 
L 63.28125 0 
L 52.6875 0 
L 40.921875 44.828125 
L 29.109375 0 
L 18.5 0 
z
" id="DejaVuSans-119"/>
     </defs>
     <g transform="translate(492.225313 79.787188)scale(0.14 -0.14)">
      <use xlink:href="#DejaVuSans-110"/>
      <use x="63.378906" xlink:href="#DejaVuSans-101"/>
      <use x="124.902344" xlink:href="#DejaVuSans-119"/>
     </g>
    </g>
   </g>
  </g>
  <g id="axes_2">
   <g id="patch_7">
    <path d="M 36 525.24 
L 538.2 525.24 
L 538.2 402.93 
L 36 402.93 
z
" style="fill:none;"/>
   </g>
   <g id="patch_8">
    <path clip-path="url(#p445118b231)" d="M 179.299571 519.680455 
L 400.340976 519.680455 
L 400.340976 482.616818 
L 179.299571 482.616818 
z
" style="fill:#ff6384;opacity:0.5;"/>
   </g>
   <g id="patch_9">
    <path clip-path="url(#p445118b231)" d="M 161.990806 445.553182 
L 360.226615 445.553182 
L 360.226615 408.489545 
L 161.990806 408.489545 
z
" style="fill:#36a2eb;opacity:0.5;"/>
   </g>
   <g id="matplotlib.axis_1">
    <g id="xtick_1">
     <g id="line2d_3">
      <defs>
       <path d="M 0 0 
L 0 3.5 
" id="me35b582c29" style="stroke:#000000;stroke-width:0.8;"/>
      </defs>
      <g>
       <use style="stroke:#000000;stroke-width:0.8;" x="96.814771" xlink:href="#me35b582c29" y="525.24"/>
      </g>
     </g>
     <g id="text_3">
      <!-- 2.5 -->
      <defs>
       <path d="M 19.1875 8.296875 
L 53.609375 8.296875 
L 53.609375 0 
L 7.328125 0 
L 7.328125 8.296875 
Q 12.9375 14.109375 22.625 23.890625 
Q 32.328125 33.6875 34.8125 36.53125 
Q 39.546875 41.84375 41.421875 45.53125 
Q 43.3125 49.21875 43.3125 52.78125 
Q 43.3125 58.59375 39.234375 62.25 
Q 35.15625 65.921875 28.609375 65.921875 
Q 23.96875 65.921875 18.8125 64.3125 
Q 13.671875 62.703125 7.8125 59.421875 
L 7.8125 69.390625 
Q 13.765625 71.78125 18.9375 73 
Q 24.125 74.21875 28.421875 74.21875 
Q 39.75 74.21875 46.484375 68.546875 
Q 53.21875 62.890625 53.21875 53.421875 
Q 53.21875 48.921875 51.53125 44.890625 
Q 49.859375 40.875 45.40625 35.40625 
Q 44.1875 33.984375 37.640625 27.21875 
Q 31.109375 20.453125 19.1875 8.296875 
z
" id="DejaVuSans-50"/>
       <path d="M 10.6875 12.40625 
L 21 12.40625 
L 21 0 
L 10.6875 0 
z
" id="DejaVuSans-46"/>
       <path d="M 10.796875 72.90625 
L 49.515625 72.90625 
L 49.515625 64.59375 
L 19.828125 64.59375 
L 19.828125 46.734375 
Q 21.96875 47.46875 24.109375 47.828125 
Q 26.265625 48.1875 28.421875 48.1875 
Q 40.625 48.1875 47.75 41.5 
Q 54.890625 34.8125 54.890625 23.390625 
Q 54.890625 11.625 47.5625 5.09375 
Q 40.234375 -1.421875 26.90625 -1.421875 
Q 22.3125 -1.421875 17.546875 -0.640625 
Q 12.796875 0.140625 7.71875 1.703125 
L 7.71875 11.625 
Q 12.109375 9.234375 16.796875 8.0625 
Q 21.484375 6.890625 26.703125 6.890625 
Q 35.15625 6.890625 40.078125 11.328125 
Q 45.015625 15.765625 45.015625 23.390625 
Q 45.015625 31 40.078125 35.4375 
Q 35.15625 39.890625 26.703125 39.890625 
Q 22.75 39.890625 18.8125 39.015625 
Q 14.890625 38.140625 10.796875 36.28125 
z
" id="DejaVuSans-53"/>
      </defs>
      <g transform="translate(85.682583 542.877813)scale(0.14 -0.14)">
       <use xlink:href="#DejaVuSans-50"/>
       <use x="63.623047" xlink:href="#DejaVuSans-46"/>
       <use x="95.410156" xlink:href="#DejaVuSans-53"/>
      </g>
     </g>
    </g>
    <g id="xtick_2">
     <g id="line2d_4">
      <g>
       <use style="stroke:#000000;stroke-width:0.8;" x="176.569111" xlink:href="#me35b582c29" y="525.24"/>
      </g>
     </g>
     <g id="text_4">
      <!-- 3.0 -->
      <defs>
       <path d="M 40.578125 39.3125 
Q 47.65625 37.796875 51.625 33 
Q 55.609375 28.21875 55.609375 21.1875 
Q 55.609375 10.40625 48.1875 4.484375 
Q 40.765625 -1.421875 27.09375 -1.421875 
Q 22.515625 -1.421875 17.65625 -0.515625 
Q 12.796875 0.390625 7.625 2.203125 
L 7.625 11.71875 
Q 11.71875 9.328125 16.59375 8.109375 
Q 21.484375 6.890625 26.8125 6.890625 
Q 36.078125 6.890625 40.9375 10.546875 
Q 45.796875 14.203125 45.796875 21.1875 
Q 45.796875 27.640625 41.28125 31.265625 
Q 36.765625 34.90625 28.71875 34.90625 
L 20.21875 34.90625 
L 20.21875 43.015625 
L 29.109375 43.015625 
Q 36.375 43.015625 40.234375 45.921875 
Q 44.09375 48.828125 44.09375 54.296875 
Q 44.09375 59.90625 40.109375 62.90625 
Q 36.140625 65.921875 28.71875 65.921875 
Q 24.65625 65.921875 20.015625 65.03125 
Q 15.375 64.15625 9.8125 62.3125 
L 9.8125 71.09375 
Q 15.4375 72.65625 20.34375 73.4375 
Q 25.25 74.21875 29.59375 74.21875 
Q 40.828125 74.21875 47.359375 69.109375 
Q 53.90625 64.015625 53.90625 55.328125 
Q 53.90625 49.265625 50.4375 45.09375 
Q 46.96875 40.921875 40.578125 39.3125 
z
" id="DejaVuSans-51"/>
       <path d="M 31.78125 66.40625 
Q 24.171875 66.40625 20.328125 58.90625 
Q 16.5 51.421875 16.5 36.375 
Q 16.5 21.390625 20.328125 13.890625 
Q 24.171875 6.390625 31.78125 6.390625 
Q 39.453125 6.390625 43.28125 13.890625 
Q 47.125 21.390625 47.125 36.375 
Q 47.125 51.421875 43.28125 58.90625 
Q 39.453125 66.40625 31.78125 66.40625 
z
M 31.78125 74.21875 
Q 44.046875 74.21875 50.515625 64.515625 
Q 56.984375 54.828125 56.984375 36.375 
Q 56.984375 17.96875 50.515625 8.265625 
Q 44.046875 -1.421875 31.78125 -1.421875 
Q 19.53125 -1.421875 13.0625 8.265625 
Q 6.59375 17.96875 6.59375 36.375 
Q 6.59375 54.828125 13.0625 64.515625 
Q 19.53125 74.21875 31.78125 74.21875 
z
" id="DejaVuSans-48"/>
      </defs>
      <g transform="translate(165.436923 542.877813)scale(0.14 -0.14)">
       <use xlink:href="#DejaVuSans-51"/>
       <use x="63.623047" xlink:href="#DejaVuSans-46"/>
       <use x="95.410156" xlink:href="#DejaVuSans-48"/>
      </g>
     </g>
    </g>
    <g id="xtick_3">
     <g id="line2d_5">
      <g>
       <use style="stroke:#000000;stroke-width:0.8;" x="256.32345" xlink:href="#me35b582c29" y="525.24"/>
      </g>
     </g>
     <g id="text_5">
      <!-- 3.5 -->
      <g transform="translate(245.191263 542.877813)scale(0.14 -0.14)">
       <use xlink:href="#DejaVuSans-51"/>
       <use x="63.623047" xlink:href="#DejaVuSans-46"/>
       <use x="95.410156" xlink:href="#DejaVuSans-53"/>
      </g>
     </g>
    </g>
    <g id="xtick_4">
     <g id="line2d_6">
      <g>
       <use style="stroke:#000000;stroke-width:0.8;" x="336.07779" xlink:href="#me35b582c29" y="525.24"/>
      </g>
     </g>
     <g id="text_6">
      <!-- 4.0 -->
      <defs>
       <path d="M 37.796875 64.3125 
L 12.890625 25.390625 
L 37.796875 25.390625 
z
M 35.203125 72.90625 
L 47.609375 72.90625 
L 47.609375 25.390625 
L 58.015625 25.390625 
L 58.015625 17.1875 
L 47.609375 17.1875 
L 47.609375 0 
L 37.796875 0 
L 37.796875 17.1875 
L 4.890625 17.1875 
L 4.890625 26.703125 
z
" id="DejaVuSans-52"/>
      </defs>
      <g transform="translate(324.945603 542.877813)scale(0.14 -0.14)">
       <use xlink:href="#DejaVuSans-52"/>
       <use x="63.623047" xlink:href="#DejaVuSans-46"/>
       <use x="95.410156" xlink:href="#DejaVuSans-48"/>
      </g>
     </g>
    </g>
    <g id="xtick_5">
     <g id="line2d_7">
      <g>
       <use style="stroke:#000000;stroke-width:0.8;" x="415.83213" xlink:href="#me35b582c29" y="525.24"/>
      </g>
     </g>
     <g id="text_7">
      <!-- 4.5 -->
      <g transform="translate(404.699943 542.877813)scale(0.14 -0.14)">
       <use xlink:href="#DejaVuSans-52"/>
       <use x="63.623047" xlink:href="#DejaVuSans-46"/>
       <use x="95.410156" xlink:href="#DejaVuSans-53"/>
      </g>
     </g>
    </g>
    <g id="xtick_6">
     <g id="line2d_8">
      <g>
       <use style="stroke:#000000;stroke-width:0.8;" x="495.58647" xlink:href="#me35b582c29" y="525.24"/>
      </g>
     </g>
     <g id="text_8">
      <!-- 5.0 -->
      <g transform="translate(484.454283 542.877813)scale(0.14 -0.14)">
       <use xlink:href="#DejaVuSans-53"/>
       <use x="63.623047" xlink:href="#DejaVuSans-46"/>
       <use x="95.410156" xlink:href="#DejaVuSans-48"/>
      </g>
     </g>
    </g>
   </g>
   <g id="line2d_9">
    <path clip-path="url(#p445118b231)" d="M 289.820273 525.24 
L 289.820273 402.93 
" style="fill:none;stroke:#ff6384;stroke-dasharray:5.55,2.4;stroke-dashoffset:0;stroke-opacity:0.8;stroke-width:1.5;"/>
   </g>
   <g id="line2d_10">
    <path clip-path="url(#p445118b231)" d="M 261.108711 525.24 
L 261.108711 402.93 
" style="fill:none;stroke:#36a2eb;stroke-dasharray:5.55,2.4;stroke-dashoffset:0;stroke-opacity:0.8;stroke-width:1.5;"/>
   </g>
   <g id="patch_10">
    <path d="M 36 525.24 
L 538.2 525.24 
" style="fill:none;stroke:#000000;stroke-linecap:square;stroke-linejoin:miter;stroke-width:0.8;"/>
   </g>
  </g>
 </g>
 <defs>
  <clipPath id="p8df7efdc8c">
   <rect height="366.93" width="502.2" x="36" y="36"/>
  </clipPath>
  <clipPath id="p445118b231">
   <rect height="122.31" width="502.2" x="36" y="402.93"/>
  </clipPath>
 </defs>
</svg>
