<?xml version="1.0" encoding="utf-8" standalone="no"?>
<!DOCTYPE svg PUBLIC "-//W3C//DTD SVG 1.1//EN"
  "http://www.w3.org/Graphics/SVG/1.1/DTD/svg11.dtd">
<!-- Created with matplotlib (https://matplotlib.org/) -->
<svg height="581.789375pt" version="1.1" viewBox="0 0 574.2 581.789375" width="574.2pt" xmlns="http://www.w3.org/2000/svg" xmlns:xlink="http://www.w3.org/1999/xlink">
 <defs>
  <style type="text/css">
*{stroke-linecap:butt;stroke-linejoin:round;}
  </style>
 </defs>
 <g id="figure_1">
  <g id="patch_1">
   <path d="M 0 581.789375 
L 574.2 581.789375 
L 574.2 0 
L 0 0 
z
" style="fill:none;"/>
  </g>
  <g id="axes_1">
   <g id="patch_2">
    <path d="M 36 402.93 
L 538.2 402.93 
L 538.2 36 
L 36 36 
z
" style="fill:none;"/>
   </g>
   <g id="PolyCollection_1">
    <defs>
     <path d="M 85.65089 -195.538011 
L 85.65089 -195.622444 
L 89.991515 -195.654283 
L 94.33214 -195.697085 
L 98.672764 -195.754226 
L 103.013389 -195.829981 
L 107.354013 -195.929712 
L 111.694638 -196.060088 
L 116.035263 -196.229331 
L 120.375887 -196.447479 
L 124.716512 -196.726678 
L 129.057137 -197.081477 
L 133.397761 -197.529133 
L 137.738386 -198.089906 
L 142.07901 -198.787325 
L 146.419635 -199.648418 
L 150.76026 -200.703863 
L 155.100884 -201.988064 
L 159.441509 -203.539091 
L 163.782133 -205.39849 
L 168.122758 -207.610908 
L 172.463383 -210.223523 
L 176.804007 -213.285248 
L 181.144632 -216.845707 
L 185.485257 -220.95396 
L 189.825881 -225.656989 
L 194.166506 -230.997969 
L 198.50713 -237.014337 
L 202.847755 -243.735724 
L 207.18838 -251.181795 
L 211.529004 -259.360093 
L 215.869629 -268.263953 
L 220.210253 -277.870611 
L 224.550878 -288.139587 
L 228.891503 -299.01148 
L 233.232127 -310.407244 
L 237.572752 -322.228063 
L 241.913377 -334.355884 
L 246.254001 -346.654668 
L 250.594626 -358.972373 
L 254.93525 -371.143662 
L 259.275875 -382.993293 
L 263.6165 -394.340106 
L 267.957124 -405.00149 
L 272.297749 -414.798182 
L 276.638373 -423.559231 
L 280.978998 -431.126932 
L 285.319623 -437.361532 
L 289.660247 -442.145522 
L 294.000872 -445.387312 
L 298.341497 -447.024153 
L 302.682121 -447.024153 
L 307.022746 -445.387312 
L 311.36337 -442.145522 
L 315.703995 -437.361532 
L 320.04462 -431.126932 
L 324.385244 -423.559231 
L 328.725869 -414.798182 
L 333.066493 -405.00149 
L 337.407118 -394.340106 
L 341.747743 -382.993293 
L 346.088367 -371.143662 
L 350.428992 -358.972373 
L 354.769617 -346.654668 
L 359.110241 -334.355884 
L 363.450866 -322.228063 
L 367.79149 -310.407244 
L 372.132115 -299.01148 
L 376.47274 -288.139587 
L 380.813364 -277.870611 
L 385.153989 -268.263953 
L 389.494613 -259.360093 
L 393.835238 -251.181795 
L 398.175863 -243.735724 
L 402.516487 -237.014337 
L 406.857112 -230.997969 
L 411.197737 -225.656989 
L 415.538361 -220.95396 
L 419.878986 -216.845707 
L 424.21961 -213.285248 
L 428.560235 -210.223523 
L 432.90086 -207.610908 
L 437.241484 -205.39849 
L 441.582109 -203.539091 
L 445.922733 -201.988064 
L 450.263358 -200.703863 
L 454.603983 -199.648418 
L 458.944607 -198.787325 
L 463.285232 -198.089906 
L 467.625857 -197.529133 
L 471.966481 -197.081477 
L 476.307106 -196.726678 
L 480.64773 -196.447479 
L 484.988355 -196.229331 
L 489.32898 -196.060088 
L 493.669604 -195.929712 
L 498.010229 -195.829981 
L 502.350853 -195.754226 
L 506.691478 -195.697085 
L 511.032103 -195.654283 
L 515.372727 -195.622444 
L 515.372727 -195.538011 
L 515.372727 -195.538011 
L 511.032103 -195.538011 
L 506.691478 -195.538011 
L 502.350853 -195.538011 
L 498.010229 -195.538011 
L 493.669604 -195.538011 
L 489.32898 -195.538011 
L 484.988355 -195.538011 
L 480.64773 -195.538011 
L 476.307106 -195.538011 
L 471.966481 -195.538011 
L 467.625857 -195.538011 
L 463.285232 -195.538011 
L 458.944607 -195.538011 
L 454.603983 -195.538011 
L 450.263358 -195.538011 
L 445.922733 -195.538011 
L 441.582109 -195.538011 
L 437.241484 -195.538011 
L 432.90086 -195.538011 
L 428.560235 -195.538011 
L 424.21961 -195.538011 
L 419.878986 -195.538011 
L 415.538361 -195.538011 
L 411.197737 -195.538011 
L 406.857112 -195.538011 
L 402.516487 -195.538011 
L 398.175863 -195.538011 
L 393.835238 -195.538011 
L 389.494613 -195.538011 
L 385.153989 -195.538011 
L 380.813364 -195.538011 
L 376.47274 -195.538011 
L 372.132115 -195.538011 
L 367.79149 -195.538011 
L 363.450866 -195.538011 
L 359.110241 -195.538011 
L 354.769617 -195.538011 
L 350.428992 -195.538011 
L 346.088367 -195.538011 
L 341.747743 -195.538011 
L 337.407118 -195.538011 
L 333.066493 -195.538011 
L 328.725869 -195.538011 
L 324.385244 -195.538011 
L 320.04462 -195.538011 
L 315.703995 -195.538011 
L 311.36337 -195.538011 
L 307.022746 -195.538011 
L 302.682121 -195.538011 
L 298.341497 -195.538011 
L 294.000872 -195.538011 
L 289.660247 -195.538011 
L 285.319623 -195.538011 
L 280.978998 -195.538011 
L 276.638373 -195.538011 
L 272.297749 -195.538011 
L 267.957124 -195.538011 
L 263.6165 -195.538011 
L 259.275875 -195.538011 
L 254.93525 -195.538011 
L 250.594626 -195.538011 
L 246.254001 -195.538011 
L 241.913377 -195.538011 
L 237.572752 -195.538011 
L 233.232127 -195.538011 
L 228.891503 -195.538011 
L 224.550878 -195.538011 
L 220.210253 -195.538011 
L 215.869629 -195.538011 
L 211.529004 -195.538011 
L 207.18838 -195.538011 
L 202.847755 -195.538011 
L 198.50713 -195.538011 
L 194.166506 -195.538011 
L 189.825881 -195.538011 
L 185.485257 -195.538011 
L 181.144632 -195.538011 
L 176.804007 -195.538011 
L 172.463383 -195.538011 
L 168.122758 -195.538011 
L 163.782133 -195.538011 
L 159.441509 -195.538011 
L 155.100884 -195.538011 
L 150.76026 -195.538011 
L 146.419635 -195.538011 
L 142.07901 -195.538011 
L 137.738386 -195.538011 
L 133.397761 -195.538011 
L 129.057137 -195.538011 
L 124.716512 -195.538011 
L 120.375887 -195.538011 
L 116.035263 -195.538011 
L 111.694638 -195.538011 
L 107.354013 -195.538011 
L 103.013389 -195.538011 
L 98.672764 -195.538011 
L 94.33214 -195.538011 
L 89.991515 -195.538011 
L 85.65089 -195.538011 
z
" id="m2dfe5845fd" style="stroke:#ff6384;stroke-opacity:0.5;"/>
    </defs>
    <g clip-path="url(#p322d5b0699)">
     <use style="fill:#ff6384;fill-opacity:0.5;stroke:#ff6384;stroke-opacity:0.5;" x="0" xlink:href="#m2dfe5845fd" y="581.789375"/>
    </g>
   </g>
   <g id="PolyCollection_2">
    <defs>
     <path d="M 58.827273 -195.538011 
L 58.827273 -195.650004 
L 62.099743 -195.692234 
L 65.372214 -195.749007 
L 68.644684 -195.8248 
L 71.917155 -195.925281 
L 75.189626 -196.057565 
L 78.462096 -196.230497 
L 81.734567 -196.454982 
L 85.007037 -196.744335 
L 88.279508 -197.114666 
L 91.551979 -197.585273 
L 94.824449 -198.179047 
L 98.09692 -198.922859 
L 101.36939 -199.847921 
L 104.641861 -200.990079 
L 107.914331 -202.390029 
L 111.186802 -204.093399 
L 114.459273 -206.150691 
L 117.731743 -208.617009 
L 121.004214 -211.551575 
L 124.276684 -215.016962 
L 127.549155 -219.078053 
L 130.821625 -223.800667 
L 134.094096 -229.249878 
L 137.366567 -235.488004 
L 140.639037 -242.572312 
L 143.911508 -250.552459 
L 147.183978 -259.467747 
L 150.456449 -269.344261 
L 153.728919 -280.192004 
L 157.00139 -292.002137 
L 160.273861 -304.744465 
L 163.546331 -318.365297 
L 166.818802 -332.785841 
L 170.091272 -347.901251 
L 173.363743 -363.580456 
L 176.636214 -379.666871 
L 179.908684 -395.980052 
L 183.181155 -412.31833 
L 186.453625 -428.4624 
L 189.726096 -444.179822 
L 192.998566 -459.230303 
L 196.271037 -473.371627 
L 199.543508 -486.366018 
L 202.815978 -497.986726 
L 206.088449 -508.02457 
L 209.360919 -516.294181 
L 212.63339 -522.639693 
L 215.90586 -526.939623 
L 219.178331 -529.110739 
L 222.450802 -529.110739 
L 225.723272 -526.939623 
L 228.995743 -522.639693 
L 232.268213 -516.294181 
L 235.540684 -508.02457 
L 238.813155 -497.986726 
L 242.085625 -486.366018 
L 245.358096 -473.371627 
L 248.630566 -459.230303 
L 251.903037 -444.179822 
L 255.175507 -428.4624 
L 258.447978 -412.31833 
L 261.720449 -395.980052 
L 264.992919 -379.666871 
L 268.26539 -363.580456 
L 271.53786 -347.901251 
L 274.810331 -332.785841 
L 278.082801 -318.365297 
L 281.355272 -304.744465 
L 284.627743 -292.002137 
L 287.900213 -280.192004 
L 291.172684 -269.344261 
L 294.445154 -259.467747 
L 297.717625 -250.552459 
L 300.990095 -242.572312 
L 304.262566 -235.488004 
L 307.535037 -229.249878 
L 310.807507 -223.800667 
L 314.079978 -219.078053 
L 317.352448 -215.016962 
L 320.624919 -211.551575 
L 323.89739 -208.617009 
L 327.16986 -206.150691 
L 330.442331 -204.093399 
L 333.714801 -202.390029 
L 336.987272 -200.990079 
L 340.259742 -199.847921 
L 343.532213 -198.922859 
L 346.804684 -198.179047 
L 350.077154 -197.585273 
L 353.349625 -197.114666 
L 356.622095 -196.744335 
L 359.894566 -196.454982 
L 363.167036 -196.230497 
L 366.439507 -196.057565 
L 369.711978 -195.925281 
L 372.984448 -195.8248 
L 376.256919 -195.749007 
L 379.529389 -195.692234 
L 382.80186 -195.650004 
L 382.80186 -195.538011 
L 382.80186 -195.538011 
L 379.529389 -195.538011 
L 376.256919 -195.538011 
L 372.984448 -195.538011 
L 369.711978 -195.538011 
L 366.439507 -195.538011 
L 363.167036 -195.538011 
L 359.894566 -195.538011 
L 356.622095 -195.538011 
L 353.349625 -195.538011 
L 350.077154 -195.538011 
L 346.804684 -195.538011 
L 343.532213 -195.538011 
L 340.259742 -195.538011 
L 336.987272 -195.538011 
L 333.714801 -195.538011 
L 330.442331 -195.538011 
L 327.16986 -195.538011 
L 323.89739 -195.538011 
L 320.624919 -195.538011 
L 317.352448 -195.538011 
L 314.079978 -195.538011 
L 310.807507 -195.538011 
L 307.535037 -195.538011 
L 304.262566 -195.538011 
L 300.990095 -195.538011 
L 297.717625 -195.538011 
L 294.445154 -195.538011 
L 291.172684 -195.538011 
L 287.900213 -195.538011 
L 284.627743 -195.538011 
L 281.355272 -195.538011 
L 278.082801 -195.538011 
L 274.810331 -195.538011 
L 271.53786 -195.538011 
L 268.26539 -195.538011 
L 264.992919 -195.538011 
L 261.720449 -195.538011 
L 258.447978 -195.538011 
L 255.175507 -195.538011 
L 251.903037 -195.538011 
L 248.630566 -195.538011 
L 245.358096 -195.538011 
L 242.085625 -195.538011 
L 238.813155 -195.538011 
L 235.540684 -195.538011 
L 232.268213 -195.538011 
L 228.995743 -195.538011 
L 225.723272 -195.538011 
L 222.450802 -195.538011 
L 219.178331 -195.538011 
L 215.90586 -195.538011 
L 212.63339 -195.538011 
L 209.360919 -195.538011 
L 206.088449 -195.538011 
L 202.815978 -195.538011 
L 199.543508 -195.538011 
L 196.271037 -195.538011 
L 192.998566 -195.538011 
L 189.726096 -195.538011 
L 186.453625 -195.538011 
L 183.181155 -195.538011 
L 179.908684 -195.538011 
L 176.636214 -195.538011 
L 173.363743 -195.538011 
L 170.091272 -195.538011 
L 166.818802 -195.538011 
L 163.546331 -195.538011 
L 160.273861 -195.538011 
L 157.00139 -195.538011 
L 153.728919 -195.538011 
L 150.456449 -195.538011 
L 147.183978 -195.538011 
L 143.911508 -195.538011 
L 140.639037 -195.538011 
L 137.366567 -195.538011 
L 134.094096 -195.538011 
L 130.821625 -195.538011 
L 127.549155 -195.538011 
L 124.276684 -195.538011 
L 121.004214 -195.538011 
L 117.731743 -195.538011 
L 114.459273 -195.538011 
L 111.186802 -195.538011 
L 107.914331 -195.538011 
L 104.641861 -195.538011 
L 101.36939 -195.538011 
L 98.09692 -195.538011 
L 94.824449 -195.538011 
L 91.551979 -195.538011 
L 88.279508 -195.538011 
L 85.007037 -195.538011 
L 81.734567 -195.538011 
L 78.462096 -195.538011 
L 75.189626 -195.538011 
L 71.917155 -195.538011 
L 68.644684 -195.538011 
L 65.372214 -195.538011 
L 62.099743 -195.538011 
L 58.827273 -195.538011 
z
" id="m7da287fa7c" style="stroke:#36a2eb;stroke-opacity:0.5;"/>
    </defs>
    <g clip-path="url(#p322d5b0699)">
     <use style="fill:#36a2eb;fill-opacity:0.5;stroke:#36a2eb;stroke-opacity:0.5;" x="0" xlink:href="#m7da287fa7c" y="581.789375"/>
    </g>
   </g>
   <g id="line2d_1">
    <path clip-path="url(#p322d5b0699)" d="M 85.65089 386.166931 
L 89.991515 386.135092 
L 94.33214 386.09229 
L 98.672764 386.035149 
L 103.013389 385.959394 
L 107.354013 385.859663 
L 111.694638 385.729287 
L 116.035263 385.560044 
L 120.375887 385.341896 
L 124.716512 385.062697 
L 129.057137 384.707898 
L 133.397761 384.260242 
L 137.738386 383.699469 
L 142.07901 383.00205 
L 146.419635 382.140957 
L 150.76026 381.085512 
L 155.100884 379.801311 
L 159.441509 378.250284 
L 163.782133 376.390885 
L 168.122758 374.178467 
L 172.463383 371.565852 
L 176.804007 368.504127 
L 181.144632 364.943668 
L 185.485257 360.835415 
L 189.825881 356.132386 
L 194.166506 350.791406 
L 198.50713 344.775038 
L 202.847755 338.053651 
L 207.18838 330.60758 
L 211.529004 322.429282 
L 215.869629 313.525422 
L 220.210253 303.918764 
L 224.550878 293.649788 
L 228.891503 282.777895 
L 233.232127 271.382131 
L 237.572752 259.561312 
L 241.913377 247.433491 
L 246.254001 235.134707 
L 250.594626 222.817002 
L 254.93525 210.645713 
L 259.275875 198.796082 
L 263.6165 187.449269 
L 267.957124 176.787885 
L 272.297749 166.991193 
L 276.638373 158.230144 
L 280.978998 150.662443 
L 285.319623 144.427843 
L 289.660247 139.643853 
L 294.000872 136.402063 
L 298.341497 134.765222 
L 302.682121 134.765222 
L 307.022746 136.402063 
L 311.36337 139.643853 
L 315.703995 144.427843 
L 320.04462 150.662443 
L 324.385244 158.230144 
L 328.725869 166.991193 
L 333.066493 176.787885 
L 337.407118 187.449269 
L 341.747743 198.796082 
L 346.088367 210.645713 
L 350.428992 222.817002 
L 354.769617 235.134707 
L 359.110241 247.433491 
L 363.450866 259.561312 
L 367.79149 271.382131 
L 372.132115 282.777895 
L 376.47274 293.649788 
L 380.813364 303.918764 
L 385.153989 313.525422 
L 389.494613 322.429282 
L 393.835238 330.60758 
L 398.175863 338.053651 
L 402.516487 344.775038 
L 406.857112 350.791406 
L 411.197737 356.132386 
L 415.538361 360.835415 
L 419.878986 364.943668 
L 424.21961 368.504127 
L 428.560235 371.565852 
L 432.90086 374.178467 
L 437.241484 376.390885 
L 441.582109 378.250284 
L 445.922733 379.801311 
L 450.263358 381.085512 
L 454.603983 382.140957 
L 458.944607 383.00205 
L 463.285232 383.699469 
L 467.625857 384.260242 
L 471.966481 384.707898 
L 476.307106 385.062697 
L 480.64773 385.341896 
L 484.988355 385.560044 
L 489.32898 385.729287 
L 493.669604 385.859663 
L 498.010229 385.959394 
L 502.350853 386.035149 
L 506.691478 386.09229 
L 511.032103 386.135092 
L 515.372727 386.166931 
" style="fill:none;stroke:#ff6384;stroke-linecap:square;"/>
   </g>
   <g id="line2d_2">
    <path clip-path="url(#p322d5b0699)" d="M 58.827273 386.139371 
L 62.099743 386.097141 
L 65.372214 386.040368 
L 68.644684 385.964575 
L 71.917155 385.864094 
L 75.189626 385.73181 
L 78.462096 385.558878 
L 81.734567 385.334393 
L 85.007037 385.04504 
L 88.279508 384.674709 
L 91.551979 384.204102 
L 94.824449 383.610328 
L 98.09692 382.866516 
L 101.36939 381.941454 
L 104.641861 380.799296 
L 107.914331 379.399346 
L 111.186802 377.695976 
L 114.459273 375.638684 
L 117.731743 373.172366 
L 121.004214 370.2378 
L 124.276684 366.772413 
L 127.549155 362.711322 
L 130.821625 357.988708 
L 134.094096 352.539497 
L 137.366567 346.301371 
L 140.639037 339.217063 
L 143.911508 331.236916 
L 147.183978 322.321628 
L 150.456449 312.445114 
L 153.728919 301.597371 
L 157.00139 289.787238 
L 160.273861 277.04491 
L 163.546331 263.424078 
L 166.818802 249.003534 
L 170.091272 233.888124 
L 173.363743 218.208919 
L 176.636214 202.122504 
L 179.908684 185.809323 
L 183.181155 169.471045 
L 186.453625 153.326975 
L 189.726096 137.609553 
L 192.998566 122.559072 
L 196.271037 108.417748 
L 199.543508 95.423357 
L 202.815978 83.802649 
L 206.088449 73.764805 
L 209.360919 65.495194 
L 212.63339 59.149682 
L 215.90586 54.849752 
L 219.178331 52.678636 
L 222.450802 52.678636 
L 225.723272 54.849752 
L 228.995743 59.149682 
L 232.268213 65.495194 
L 235.540684 73.764805 
L 238.813155 83.802649 
L 242.085625 95.423357 
L 245.358096 108.417748 
L 248.630566 122.559072 
L 251.903037 137.609553 
L 255.175507 153.326975 
L 258.447978 169.471045 
L 261.720449 185.809323 
L 264.992919 202.122504 
L 268.26539 218.208919 
L 271.53786 233.888124 
L 274.810331 249.003534 
L 278.082801 263.424078 
L 281.355272 277.04491 
L 284.627743 289.787238 
L 287.900213 301.597371 
L 291.172684 312.445114 
L 294.445154 322.321628 
L 297.717625 331.236916 
L 300.990095 339.217063 
L 304.262566 346.301371 
L 307.535037 352.539497 
L 310.807507 357.988708 
L 314.079978 362.711322 
L 317.352448 366.772413 
L 320.624919 370.2378 
L 323.89739 373.172366 
L 327.16986 375.638684 
L 330.442331 377.695976 
L 333.714801 379.399346 
L 336.987272 380.799296 
L 340.259742 381.941454 
L 343.532213 382.866516 
L 346.804684 383.610328 
L 350.077154 384.204102 
L 353.349625 384.674709 
L 356.622095 385.04504 
L 359.894566 385.334393 
L 363.167036 385.558878 
L 366.439507 385.73181 
L 369.711978 385.864094 
L 372.984448 385.964575 
L 376.256919 386.040368 
L 379.529389 386.097141 
L 382.80186 386.139371 
" style="fill:none;stroke:#36a2eb;stroke-linecap:square;"/>
   </g>
   <g id="patch_3">
    <path d="M 36 402.93 
L 538.2 402.93 
" style="fill:none;stroke:#000000;stroke-linecap:square;stroke-linejoin:miter;stroke-width:0.8;"/>
   </g>
   <g id="legend_1">
    <g id="patch_4">
     <path d="M 450.225313 88.29875 
L 528.4 88.29875 
Q 531.2 88.29875 531.2 85.49875 
L 531.2 45.8 
Q 531.2 43 528.4 43 
L 450.225313 43 
Q 447.425313 43 447.425313 45.8 
L 447.425313 85.49875 
Q 447.425313 88.29875 450.225313 88.29875 
z
" style="fill:#ffffff;opacity:0.8;stroke:#cccccc;stroke-linejoin:miter;"/>
    </g>
    <g id="patch_5">
     <path d="M 453.025313 59.237813 
L 481.025313 59.237813 
L 481.025313 49.437813 
L 453.025313 49.437813 
z
" style="fill:#ff6384;opacity:0.5;stroke:#ff6384;stroke-linejoin:miter;"/>
    </g>
    <g id="text_1">
     <!-- base -->
     <defs>
      <path d="M 48.6875 27.296875 
Q 48.6875 37.203125 44.609375 42.84375 
Q 40.53125 48.484375 33.40625 48.484375 
Q 26.265625 48.484375 22.1875 42.84375 
Q 18.109375 37.203125 18.109375 27.296875 
Q 18.109375 17.390625 22.1875 11.75 
Q 26.265625 6.109375 33.40625 6.109375 
Q 40.53125 6.109375 44.609375 11.75 
Q 48.6875 17.390625 48.6875 27.296875 
z
M 18.109375 46.390625 
Q 20.953125 51.265625 25.265625 53.625 
Q 29.59375 56 35.59375 56 
Q 45.5625 56 51.78125 48.09375 
Q 58.015625 40.1875 58.015625 27.296875 
Q 58.015625 14.40625 51.78125 6.484375 
Q 45.5625 -1.421875 35.59375 -1.421875 
Q 29.59375 -1.421875 25.265625 0.953125 
Q 20.953125 3.328125 18.109375 8.203125 
L 18.109375 0 
L 9.078125 0 
L 9.078125 75.984375 
L 18.109375 75.984375 
z
" id="DejaVuSans-98"/>
      <path d="M 34.28125 27.484375 
Q 23.390625 27.484375 19.1875 25 
Q 14.984375 22.515625 14.984375 16.5 
Q 14.984375 11.71875 18.140625 8.90625 
Q 21.296875 6.109375 26.703125 6.109375 
Q 34.1875 6.109375 38.703125 11.40625 
Q 43.21875 16.703125 43.21875 25.484375 
L 43.21875 27.484375 
z
M 52.203125 31.203125 
L 52.203125 0 
L 43.21875 0 
L 43.21875 8.296875 
Q 40.140625 3.328125 35.546875 0.953125 
Q 30.953125 -1.421875 24.3125 -1.421875 
Q 15.921875 -1.421875 10.953125 3.296875 
Q 6 8.015625 6 15.921875 
Q 6 25.140625 12.171875 29.828125 
Q 18.359375 34.515625 30.609375 34.515625 
L 43.21875 34.515625 
L 43.21875 35.40625 
Q 43.21875 41.609375 39.140625 45 
Q 35.0625 48.390625 27.6875 48.390625 
Q 23 48.390625 18.546875 47.265625 
Q 14.109375 46.140625 10.015625 43.890625 
L 10.015625 52.203125 
Q 14.9375 54.109375 19.578125 55.046875 
Q 24.21875 56 28.609375 56 
Q 40.484375 56 46.34375 49.84375 
Q 52.203125 43.703125 52.203125 31.203125 
z
" id="DejaVuSans-97"/>
      <path d="M 44.28125 53.078125 
L 44.28125 44.578125 
Q 40.484375 46.53125 36.375 47.5 
Q 32.28125 48.484375 27.875 48.484375 
Q 21.1875 48.484375 17.84375 46.4375 
Q 14.5 44.390625 14.5 40.28125 
Q 14.5 37.15625 16.890625 35.375 
Q 19.28125 33.59375 26.515625 31.984375 
L 29.59375 31.296875 
Q 39.15625 29.25 43.1875 25.515625 
Q 47.21875 21.78125 47.21875 15.09375 
Q 47.21875 7.46875 41.1875 3.015625 
Q 35.15625 -1.421875 24.609375 -1.421875 
Q 20.21875 -1.421875 15.453125 -0.5625 
Q 10.6875 0.296875 5.421875 2 
L 5.421875 11.28125 
Q 10.40625 8.6875 15.234375 7.390625 
Q 20.0625 6.109375 24.8125 6.109375 
Q 31.15625 6.109375 34.5625 8.28125 
Q 37.984375 10.453125 37.984375 14.40625 
Q 37.984375 18.0625 35.515625 20.015625 
Q 33.0625 21.96875 24.703125 23.78125 
L 21.578125 24.515625 
Q 13.234375 26.265625 9.515625 29.90625 
Q 5.8125 33.546875 5.8125 39.890625 
Q 5.8125 47.609375 11.28125 51.796875 
Q 16.75 56 26.8125 56 
Q 31.78125 56 36.171875 55.265625 
Q 40.578125 54.546875 44.28125 53.078125 
z
" id="DejaVuSans-115"/>
      <path d="M 56.203125 29.59375 
L 56.203125 25.203125 
L 14.890625 25.203125 
Q 15.484375 15.921875 20.484375 11.0625 
Q 25.484375 6.203125 34.421875 6.203125 
Q 39.59375 6.203125 44.453125 7.46875 
Q 49.3125 8.734375 54.109375 11.28125 
L 54.109375 2.78125 
Q 49.265625 0.734375 44.1875 -0.34375 
Q 39.109375 -1.421875 33.890625 -1.421875 
Q 20.796875 -1.421875 13.15625 6.1875 
Q 5.515625 13.8125 5.515625 26.8125 
Q 5.515625 40.234375 12.765625 48.109375 
Q 20.015625 56 32.328125 56 
Q 43.359375 56 49.78125 48.890625 
Q 56.203125 41.796875 56.203125 29.59375 
z
M 47.21875 32.234375 
Q 47.125 39.59375 43.09375 43.984375 
Q 39.0625 48.390625 32.421875 48.390625 
Q 24.90625 48.390625 20.390625 44.140625 
Q 15.875 39.890625 15.1875 32.171875 
z
" id="DejaVuSans-101"/>
     </defs>
     <g transform="translate(492.225313 59.237813)scale(0.14 -0.14)">
      <use xlink:href="#DejaVuSans-98"/>
      <use x="63.476562" xlink:href="#DejaVuSans-97"/>
      <use x="124.755859" xlink:href="#DejaVuSans-115"/>
      <use x="176.855469" xlink:href="#DejaVuSans-101"/>
     </g>
    </g>
    <g id="patch_6">
     <path d="M 453.025313 79.787188 
L 481.025313 79.787188 
L 481.025313 69.987188 
L 453.025313 69.987188 
z
" style="fill:#36a2eb;opacity:0.5;stroke:#36a2eb;stroke-linejoin:miter;"/>
    </g>
    <g id="text_2">
     <!-- new -->
     <defs>
      <path d="M 54.890625 33.015625 
L 54.890625 0 
L 45.90625 0 
L 45.90625 32.71875 
Q 45.90625 40.484375 42.875 44.328125 
Q 39.84375 48.1875 33.796875 48.1875 
Q 26.515625 48.1875 22.3125 43.546875 
Q 18.109375 38.921875 18.109375 30.90625 
L 18.109375 0 
L 9.078125 0 
L 9.078125 54.6875 
L 18.109375 54.6875 
L 18.109375 46.1875 
Q 21.34375 51.125 25.703125 53.5625 
Q 30.078125 56 35.796875 56 
Q 45.21875 56 50.046875 50.171875 
Q 54.890625 44.34375 54.890625 33.015625 
z
" id="DejaVuSans-110"/>
      <path d="M 4.203125 54.6875 
L 13.1875 54.6875 
L 24.421875 12.015625 
L 35.59375 54.6875 
L 46.1875 54.6875 
L 57.421875 12.015625 
L 68.609375 54.6875 
L 77.59375 54.6875 
L 63.28125 0 
L 52.6875 0 
L 40.921875 44.828125 
L 29.109375 0 
L 18.5 0 
z
" id="DejaVuSans-119"/>
     </defs>
     <g transform="translate(492.225313 79.787188)scale(0.14 -0.14)">
      <use xlink:href="#DejaVuSans-110"/>
      <use x="63.378906" xlink:href="#DejaVuSans-101"/>
      <use x="124.902344" xlink:href="#DejaVuSans-119"/>
     </g>
    </g>
   </g>
  </g>
  <g id="axes_2">
   <g id="patch_7">
    <path d="M 36 525.24 
L 538.2 525.24 
L 538.2 402.93 
L 36 402.93 
z
" style="fill:none;"/>
   </g>
   <g id="patch_8">
    <path clip-path="url(#p5f929c872a)" d="M 195.229959 519.680455 
L 405.793659 519.680455 
L 405.793659 482.616818 
L 195.229959 482.616818 
z
" style="fill:#ff6384;opacity:0.5;"/>
   </g>
   <g id="patch_9">
    <path clip-path="url(#p5f929c872a)" d="M 141.440792 445.553182 
L 300.18834 445.553182 
L 300.18834 408.489545 
L 141.440792 408.489545 
z
" style="fill:#36a2eb;opacity:0.5;"/>
   </g>
   <g id="matplotlib.axis_1">
    <g id="xtick_1">
     <g id="line2d_3">
      <defs>
       <path d="M 0 0 
L 0 3.5 
" id="mbbd349db32" style="stroke:#000000;stroke-width:0.8;"/>
      </defs>
      <g>
       <use style="stroke:#000000;stroke-width:0.8;" x="96.227263" xlink:href="#mbbd349db32" y="525.24"/>
      </g>
     </g>
     <g id="text_3">
      <!-- 8.5 -->
      <defs>
       <path d="M 31.78125 34.625 
Q 24.75 34.625 20.71875 30.859375 
Q 16.703125 27.09375 16.703125 20.515625 
Q 16.703125 13.921875 20.71875 10.15625 
Q 24.75 6.390625 31.78125 6.390625 
Q 38.8125 6.390625 42.859375 10.171875 
Q 46.921875 13.96875 46.921875 20.515625 
Q 46.921875 27.09375 42.890625 30.859375 
Q 38.875 34.625 31.78125 34.625 
z
M 21.921875 38.8125 
Q 15.578125 40.375 12.03125 44.71875 
Q 8.5 49.078125 8.5 55.328125 
Q 8.5 64.0625 14.71875 69.140625 
Q 20.953125 74.21875 31.78125 74.21875 
Q 42.671875 74.21875 48.875 69.140625 
Q 55.078125 64.0625 55.078125 55.328125 
Q 55.078125 49.078125 51.53125 44.71875 
Q 48 40.375 41.703125 38.8125 
Q 48.828125 37.15625 52.796875 32.3125 
Q 56.78125 27.484375 56.78125 20.515625 
Q 56.78125 9.90625 50.3125 4.234375 
Q 43.84375 -1.421875 31.78125 -1.421875 
Q 19.734375 -1.421875 13.25 4.234375 
Q 6.78125 9.90625 6.78125 20.515625 
Q 6.78125 27.484375 10.78125 32.3125 
Q 14.796875 37.15625 21.921875 38.8125 
z
M 18.3125 54.390625 
Q 18.3125 48.734375 21.84375 45.5625 
Q 25.390625 42.390625 31.78125 42.390625 
Q 38.140625 42.390625 41.71875 45.5625 
Q 45.3125 48.734375 45.3125 54.390625 
Q 45.3125 60.0625 41.71875 63.234375 
Q 38.140625 66.40625 31.78125 66.40625 
Q 25.390625 66.40625 21.84375 63.234375 
Q 18.3125 60.0625 18.3125 54.390625 
z
" id="DejaVuSans-56"/>
       <path d="M 10.6875 12.40625 
L 21 12.40625 
L 21 0 
L 10.6875 0 
z
" id="DejaVuSans-46"/>
       <path d="M 10.796875 72.90625 
L 49.515625 72.90625 
L 49.515625 64.59375 
L 19.828125 64.59375 
L 19.828125 46.734375 
Q 21.96875 47.46875 24.109375 47.828125 
Q 26.265625 48.1875 28.421875 48.1875 
Q 40.625 48.1875 47.75 41.5 
Q 54.890625 34.8125 54.890625 23.390625 
Q 54.890625 11.625 47.5625 5.09375 
Q 40.234375 -1.421875 26.90625 -1.421875 
Q 22.3125 -1.421875 17.546875 -0.640625 
Q 12.796875 0.140625 7.71875 1.703125 
L 7.71875 11.625 
Q 12.109375 9.234375 16.796875 8.0625 
Q 21.484375 6.890625 26.703125 6.890625 
Q 35.15625 6.890625 40.078125 11.328125 
Q 45.015625 15.765625 45.015625 23.390625 
Q 45.015625 31 40.078125 35.4375 
Q 35.15625 39.890625 26.703125 39.890625 
Q 22.75 39.890625 18.8125 39.015625 
Q 14.890625 38.140625 10.796875 36.28125 
z
" id="DejaVuSans-53"/>
      </defs>
      <g transform="translate(85.095075 542.877813)scale(0.14 -0.14)">
       <use xlink:href="#DejaVuSans-56"/>
       <use x="63.623047" xlink:href="#DejaVuSans-46"/>
       <use x="95.410156" xlink:href="#DejaVuSans-53"/>
      </g>
     </g>
    </g>
    <g id="xtick_2">
     <g id="line2d_4">
      <g>
       <use style="stroke:#000000;stroke-width:0.8;" x="160.613466" xlink:href="#mbbd349db32" y="525.24"/>
      </g>
     </g>
     <g id="text_4">
      <!-- 9.0 -->
      <defs>
       <path d="M 10.984375 1.515625 
L 10.984375 10.5 
Q 14.703125 8.734375 18.5 7.8125 
Q 22.3125 6.890625 25.984375 6.890625 
Q 35.75 6.890625 40.890625 13.453125 
Q 46.046875 20.015625 46.78125 33.40625 
Q 43.953125 29.203125 39.59375 26.953125 
Q 35.25 24.703125 29.984375 24.703125 
Q 19.046875 24.703125 12.671875 31.3125 
Q 6.296875 37.9375 6.296875 49.421875 
Q 6.296875 60.640625 12.9375 67.421875 
Q 19.578125 74.21875 30.609375 74.21875 
Q 43.265625 74.21875 49.921875 64.515625 
Q 56.59375 54.828125 56.59375 36.375 
Q 56.59375 19.140625 48.40625 8.859375 
Q 40.234375 -1.421875 26.421875 -1.421875 
Q 22.703125 -1.421875 18.890625 -0.6875 
Q 15.09375 0.046875 10.984375 1.515625 
z
M 30.609375 32.421875 
Q 37.25 32.421875 41.125 36.953125 
Q 45.015625 41.5 45.015625 49.421875 
Q 45.015625 57.28125 41.125 61.84375 
Q 37.25 66.40625 30.609375 66.40625 
Q 23.96875 66.40625 20.09375 61.84375 
Q 16.21875 57.28125 16.21875 49.421875 
Q 16.21875 41.5 20.09375 36.953125 
Q 23.96875 32.421875 30.609375 32.421875 
z
" id="DejaVuSans-57"/>
       <path d="M 31.78125 66.40625 
Q 24.171875 66.40625 20.328125 58.90625 
Q 16.5 51.421875 16.5 36.375 
Q 16.5 21.390625 20.328125 13.890625 
Q 24.171875 6.390625 31.78125 6.390625 
Q 39.453125 6.390625 43.28125 13.890625 
Q 47.125 21.390625 47.125 36.375 
Q 47.125 51.421875 43.28125 58.90625 
Q 39.453125 66.40625 31.78125 66.40625 
z
M 31.78125 74.21875 
Q 44.046875 74.21875 50.515625 64.515625 
Q 56.984375 54.828125 56.984375 36.375 
Q 56.984375 17.96875 50.515625 8.265625 
Q 44.046875 -1.421875 31.78125 -1.421875 
Q 19.53125 -1.421875 13.0625 8.265625 
Q 6.59375 17.96875 6.59375 36.375 
Q 6.59375 54.828125 13.0625 64.515625 
Q 19.53125 74.21875 31.78125 74.21875 
z
" id="DejaVuSans-48"/>
      </defs>
      <g transform="translate(149.481279 542.877813)scale(0.14 -0.14)">
       <use xlink:href="#DejaVuSans-57"/>
       <use x="63.623047" xlink:href="#DejaVuSans-46"/>
       <use x="95.410156" xlink:href="#DejaVuSans-48"/>
      </g>
     </g>
    </g>
    <g id="xtick_3">
     <g id="line2d_5">
      <g>
       <use style="stroke:#000000;stroke-width:0.8;" x="224.99967" xlink:href="#mbbd349db32" y="525.24"/>
      </g>
     </g>
     <g id="text_5">
      <!-- 9.5 -->
      <g transform="translate(213.867482 542.877813)scale(0.14 -0.14)">
       <use xlink:href="#DejaVuSans-57"/>
       <use x="63.623047" xlink:href="#DejaVuSans-46"/>
       <use x="95.410156" xlink:href="#DejaVuSans-53"/>
      </g>
     </g>
    </g>
    <g id="xtick_4">
     <g id="line2d_6">
      <g>
       <use style="stroke:#000000;stroke-width:0.8;" x="289.385873" xlink:href="#mbbd349db32" y="525.24"/>
      </g>
     </g>
     <g id="text_6">
      <!-- 10.0 -->
      <defs>
       <path d="M 12.40625 8.296875 
L 28.515625 8.296875 
L 28.515625 63.921875 
L 10.984375 60.40625 
L 10.984375 69.390625 
L 28.421875 72.90625 
L 38.28125 72.90625 
L 38.28125 8.296875 
L 54.390625 8.296875 
L 54.390625 0 
L 12.40625 0 
z
" id="DejaVuSans-49"/>
      </defs>
      <g transform="translate(273.799935 542.877813)scale(0.14 -0.14)">
       <use xlink:href="#DejaVuSans-49"/>
       <use x="63.623047" xlink:href="#DejaVuSans-48"/>
       <use x="127.246094" xlink:href="#DejaVuSans-46"/>
       <use x="159.033203" xlink:href="#DejaVuSans-48"/>
      </g>
     </g>
    </g>
    <g id="xtick_5">
     <g id="line2d_7">
      <g>
       <use style="stroke:#000000;stroke-width:0.8;" x="353.772076" xlink:href="#mbbd349db32" y="525.24"/>
      </g>
     </g>
     <g id="text_7">
      <!-- 10.5 -->
      <g transform="translate(338.186139 542.877813)scale(0.14 -0.14)">
       <use xlink:href="#DejaVuSans-49"/>
       <use x="63.623047" xlink:href="#DejaVuSans-48"/>
       <use x="127.246094" xlink:href="#DejaVuSans-46"/>
       <use x="159.033203" xlink:href="#DejaVuSans-53"/>
      </g>
     </g>
    </g>
    <g id="xtick_6">
     <g id="line2d_8">
      <g>
       <use style="stroke:#000000;stroke-width:0.8;" x="418.15828" xlink:href="#mbbd349db32" y="525.24"/>
      </g>
     </g>
     <g id="text_8">
      <!-- 11.0 -->
      <g transform="translate(402.572342 542.877813)scale(0.14 -0.14)">
       <use xlink:href="#DejaVuSans-49"/>
       <use x="63.623047" xlink:href="#DejaVuSans-49"/>
       <use x="127.246094" xlink:href="#DejaVuSans-46"/>
       <use x="159.033203" xlink:href="#DejaVuSans-48"/>
      </g>
     </g>
    </g>
    <g id="xtick_7">
     <g id="line2d_9">
      <g>
       <use style="stroke:#000000;stroke-width:0.8;" x="482.544483" xlink:href="#mbbd349db32" y="525.24"/>
      </g>
     </g>
     <g id="text_9">
      <!-- 11.5 -->
      <g transform="translate(466.958545 542.877813)scale(0.14 -0.14)">
       <use xlink:href="#DejaVuSans-49"/>
       <use x="63.623047" xlink:href="#DejaVuSans-49"/>
       <use x="127.246094" xlink:href="#DejaVuSans-46"/>
       <use x="159.033203" xlink:href="#DejaVuSans-53"/>
      </g>
     </g>
    </g>
   </g>
   <g id="line2d_10">
    <path clip-path="url(#p5f929c872a)" d="M 300.511809 525.24 
L 300.511809 402.93 
" style="fill:none;stroke:#ff6384;stroke-dasharray:5.55,2.4;stroke-dashoffset:0;stroke-opacity:0.8;stroke-width:1.5;"/>
   </g>
   <g id="line2d_11">
    <path clip-path="url(#p5f929c872a)" d="M 220.814566 525.24 
L 220.814566 402.93 
" style="fill:none;stroke:#36a2eb;stroke-dasharray:5.55,2.4;stroke-dashoffset:0;stroke-opacity:0.8;stroke-width:1.5;"/>
   </g>
   <g id="patch_10">
    <path d="M 36 525.24 
L 538.2 525.24 
" style="fill:none;stroke:#000000;stroke-linecap:square;stroke-linejoin:miter;stroke-width:0.8;"/>
   </g>
  </g>
 </g>
 <defs>
  <clipPath id="p322d5b0699">
   <rect height="366.93" width="502.2" x="36" y="36"/>
  </clipPath>
  <clipPath id="p5f929c872a">
   <rect height="122.31" width="502.2" x="36" y="402.93"/>
  </clipPath>
 </defs>
</svg>
