<?xml version="1.0" encoding="utf-8" standalone="no"?>
<!DOCTYPE svg PUBLIC "-//W3C//DTD SVG 1.1//EN"
  "http://www.w3.org/Graphics/SVG/1.1/DTD/svg11.dtd">
<!-- Created with matplotlib (https://matplotlib.org/) -->
<svg height="581.789375pt" version="1.1" viewBox="0 0 574.2 581.789375" width="574.2pt" xmlns="http://www.w3.org/2000/svg" xmlns:xlink="http://www.w3.org/1999/xlink">
 <defs>
  <style type="text/css">
*{stroke-linecap:butt;stroke-linejoin:round;}
  </style>
 </defs>
 <g id="figure_1">
  <g id="patch_1">
   <path d="M 0 581.789375 
L 574.2 581.789375 
L 574.2 0 
L 0 0 
z
" style="fill:none;"/>
  </g>
  <g id="axes_1">
   <g id="patch_2">
    <path d="M 36 402.93 
L 538.2 402.93 
L 538.2 36 
L 36 36 
z
" style="fill:none;"/>
   </g>
   <g id="PolyCollection_1">
    <defs>
     <path d="M 108.150965 -195.538011 
L 108.150965 -195.616952 
L 112.264316 -195.646719 
L 116.377667 -195.686737 
L 120.491018 -195.740161 
L 124.604369 -195.810988 
L 128.71772 -195.904231 
L 132.831072 -196.026126 
L 136.944423 -196.18436 
L 141.057774 -196.388318 
L 145.171125 -196.649354 
L 149.284476 -196.981073 
L 153.397827 -197.399609 
L 157.511178 -197.923903 
L 161.62453 -198.575955 
L 165.737881 -199.381033 
L 169.851232 -200.36782 
L 173.964583 -201.568482 
L 178.077934 -203.018614 
L 182.191285 -204.757058 
L 186.304636 -206.825556 
L 190.417988 -209.268218 
L 194.531339 -212.130776 
L 198.64469 -215.459624 
L 202.758041 -219.300631 
L 206.871392 -223.697724 
L 210.984743 -228.691269 
L 215.098094 -234.316268 
L 219.211445 -240.600422 
L 223.324797 -247.562121 
L 227.438148 -255.208413 
L 231.551499 -263.53307 
L 235.66485 -272.514806 
L 239.778201 -282.115777 
L 243.891552 -292.280444 
L 248.004903 -302.934904 
L 252.118255 -313.986768 
L 256.231606 -325.325665 
L 260.344957 -336.824403 
L 264.458308 -348.340831 
L 268.571659 -359.720367 
L 272.68501 -370.799169 
L 276.798361 -381.407863 
L 280.911713 -391.375715 
L 285.025064 -400.535124 
L 289.138415 -408.726259 
L 293.251766 -415.801675 
L 297.365117 -421.630709 
L 301.478468 -426.103496 
L 305.591819 -429.134405 
L 309.70517 -430.664768 
L 313.818522 -430.664768 
L 317.931873 -429.134405 
L 322.045224 -426.103496 
L 326.158575 -421.630709 
L 330.271926 -415.801675 
L 334.385277 -408.726259 
L 338.498628 -400.535124 
L 342.61198 -391.375715 
L 346.725331 -381.407863 
L 350.838682 -370.799169 
L 354.952033 -359.720367 
L 359.065384 -348.340831 
L 363.178735 -336.824403 
L 367.292086 -325.325665 
L 371.405438 -313.986768 
L 375.518789 -302.934904 
L 379.63214 -292.280444 
L 383.745491 -282.115777 
L 387.858842 -272.514806 
L 391.972193 -263.53307 
L 396.085544 -255.208413 
L 400.198895 -247.562121 
L 404.312247 -240.600422 
L 408.425598 -234.316268 
L 412.538949 -228.691269 
L 416.6523 -223.697724 
L 420.765651 -219.300631 
L 424.879002 -215.459624 
L 428.992353 -212.130776 
L 433.105705 -209.268218 
L 437.219056 -206.825556 
L 441.332407 -204.757058 
L 445.445758 -203.018614 
L 449.559109 -201.568482 
L 453.67246 -200.36782 
L 457.785811 -199.381033 
L 461.899163 -198.575955 
L 466.012514 -197.923903 
L 470.125865 -197.399609 
L 474.239216 -196.981073 
L 478.352567 -196.649354 
L 482.465918 -196.388318 
L 486.579269 -196.18436 
L 490.69262 -196.026126 
L 494.805972 -195.904231 
L 498.919323 -195.810988 
L 503.032674 -195.740161 
L 507.146025 -195.686737 
L 511.259376 -195.646719 
L 515.372727 -195.616952 
L 515.372727 -195.538011 
L 515.372727 -195.538011 
L 511.259376 -195.538011 
L 507.146025 -195.538011 
L 503.032674 -195.538011 
L 498.919323 -195.538011 
L 494.805972 -195.538011 
L 490.69262 -195.538011 
L 486.579269 -195.538011 
L 482.465918 -195.538011 
L 478.352567 -195.538011 
L 474.239216 -195.538011 
L 470.125865 -195.538011 
L 466.012514 -195.538011 
L 461.899163 -195.538011 
L 457.785811 -195.538011 
L 453.67246 -195.538011 
L 449.559109 -195.538011 
L 445.445758 -195.538011 
L 441.332407 -195.538011 
L 437.219056 -195.538011 
L 433.105705 -195.538011 
L 428.992353 -195.538011 
L 424.879002 -195.538011 
L 420.765651 -195.538011 
L 416.6523 -195.538011 
L 412.538949 -195.538011 
L 408.425598 -195.538011 
L 404.312247 -195.538011 
L 400.198895 -195.538011 
L 396.085544 -195.538011 
L 391.972193 -195.538011 
L 387.858842 -195.538011 
L 383.745491 -195.538011 
L 379.63214 -195.538011 
L 375.518789 -195.538011 
L 371.405438 -195.538011 
L 367.292086 -195.538011 
L 363.178735 -195.538011 
L 359.065384 -195.538011 
L 354.952033 -195.538011 
L 350.838682 -195.538011 
L 346.725331 -195.538011 
L 342.61198 -195.538011 
L 338.498628 -195.538011 
L 334.385277 -195.538011 
L 330.271926 -195.538011 
L 326.158575 -195.538011 
L 322.045224 -195.538011 
L 317.931873 -195.538011 
L 313.818522 -195.538011 
L 309.70517 -195.538011 
L 305.591819 -195.538011 
L 301.478468 -195.538011 
L 297.365117 -195.538011 
L 293.251766 -195.538011 
L 289.138415 -195.538011 
L 285.025064 -195.538011 
L 280.911713 -195.538011 
L 276.798361 -195.538011 
L 272.68501 -195.538011 
L 268.571659 -195.538011 
L 264.458308 -195.538011 
L 260.344957 -195.538011 
L 256.231606 -195.538011 
L 252.118255 -195.538011 
L 248.004903 -195.538011 
L 243.891552 -195.538011 
L 239.778201 -195.538011 
L 235.66485 -195.538011 
L 231.551499 -195.538011 
L 227.438148 -195.538011 
L 223.324797 -195.538011 
L 219.211445 -195.538011 
L 215.098094 -195.538011 
L 210.984743 -195.538011 
L 206.871392 -195.538011 
L 202.758041 -195.538011 
L 198.64469 -195.538011 
L 194.531339 -195.538011 
L 190.417988 -195.538011 
L 186.304636 -195.538011 
L 182.191285 -195.538011 
L 178.077934 -195.538011 
L 173.964583 -195.538011 
L 169.851232 -195.538011 
L 165.737881 -195.538011 
L 161.62453 -195.538011 
L 157.511178 -195.538011 
L 153.397827 -195.538011 
L 149.284476 -195.538011 
L 145.171125 -195.538011 
L 141.057774 -195.538011 
L 136.944423 -195.538011 
L 132.831072 -195.538011 
L 128.71772 -195.538011 
L 124.604369 -195.538011 
L 120.491018 -195.538011 
L 116.377667 -195.538011 
L 112.264316 -195.538011 
L 108.150965 -195.538011 
z
" id="m74735be91f" style="stroke:#ff6384;stroke-opacity:0.5;"/>
    </defs>
    <g clip-path="url(#p321763fa25)">
     <use style="fill:#ff6384;fill-opacity:0.5;stroke:#ff6384;stroke-opacity:0.5;" x="0" xlink:href="#m74735be91f" y="581.789375"/>
    </g>
   </g>
   <g id="PolyCollection_2">
    <defs>
     <path d="M 58.827273 -195.538011 
L 58.827273 -195.650004 
L 61.726667 -195.692234 
L 64.626062 -195.749007 
L 67.525456 -195.8248 
L 70.42485 -195.925281 
L 73.324245 -196.057565 
L 76.223639 -196.230497 
L 79.123034 -196.454982 
L 82.022428 -196.744335 
L 84.921823 -197.114666 
L 87.821217 -197.585273 
L 90.720612 -198.179047 
L 93.620006 -198.922859 
L 96.5194 -199.847921 
L 99.418795 -200.990079 
L 102.318189 -202.390029 
L 105.217584 -204.093399 
L 108.116978 -206.150691 
L 111.016373 -208.617009 
L 113.915767 -211.551575 
L 116.815162 -215.016962 
L 119.714556 -219.078053 
L 122.61395 -223.800667 
L 125.513345 -229.249878 
L 128.412739 -235.488004 
L 131.312134 -242.572312 
L 134.211528 -250.552459 
L 137.110923 -259.467747 
L 140.010317 -269.344261 
L 142.909712 -280.192004 
L 145.809106 -292.002137 
L 148.7085 -304.744465 
L 151.607895 -318.365297 
L 154.507289 -332.785841 
L 157.406684 -347.901251 
L 160.306078 -363.580456 
L 163.205473 -379.666871 
L 166.104867 -395.980052 
L 169.004261 -412.31833 
L 171.903656 -428.4624 
L 174.80305 -444.179822 
L 177.702445 -459.230303 
L 180.601839 -473.371627 
L 183.501234 -486.366018 
L 186.400628 -497.986726 
L 189.300023 -508.02457 
L 192.199417 -516.294181 
L 195.098811 -522.639693 
L 197.998206 -526.939623 
L 200.8976 -529.110739 
L 203.796995 -529.110739 
L 206.696389 -526.939623 
L 209.595784 -522.639693 
L 212.495178 -516.294181 
L 215.394573 -508.02457 
L 218.293967 -497.986726 
L 221.193361 -486.366018 
L 224.092756 -473.371627 
L 226.99215 -459.230303 
L 229.891545 -444.179822 
L 232.790939 -428.4624 
L 235.690334 -412.31833 
L 238.589728 -395.980052 
L 241.489123 -379.666871 
L 244.388517 -363.580456 
L 247.287911 -347.901251 
L 250.187306 -332.785841 
L 253.0867 -318.365297 
L 255.986095 -304.744465 
L 258.885489 -292.002137 
L 261.784884 -280.192004 
L 264.684278 -269.344261 
L 267.583672 -259.467747 
L 270.483067 -250.552459 
L 273.382461 -242.572312 
L 276.281856 -235.488004 
L 279.18125 -229.249878 
L 282.080645 -223.800667 
L 284.980039 -219.078053 
L 287.879434 -215.016962 
L 290.778828 -211.551575 
L 293.678222 -208.617009 
L 296.577617 -206.150691 
L 299.477011 -204.093399 
L 302.376406 -202.390029 
L 305.2758 -200.990079 
L 308.175195 -199.847921 
L 311.074589 -198.922859 
L 313.973984 -198.179047 
L 316.873378 -197.585273 
L 319.772772 -197.114666 
L 322.672167 -196.744335 
L 325.571561 -196.454982 
L 328.470956 -196.230497 
L 331.37035 -196.057565 
L 334.269745 -195.925281 
L 337.169139 -195.8248 
L 340.068533 -195.749007 
L 342.967928 -195.692234 
L 345.867322 -195.650004 
L 345.867322 -195.538011 
L 345.867322 -195.538011 
L 342.967928 -195.538011 
L 340.068533 -195.538011 
L 337.169139 -195.538011 
L 334.269745 -195.538011 
L 331.37035 -195.538011 
L 328.470956 -195.538011 
L 325.571561 -195.538011 
L 322.672167 -195.538011 
L 319.772772 -195.538011 
L 316.873378 -195.538011 
L 313.973984 -195.538011 
L 311.074589 -195.538011 
L 308.175195 -195.538011 
L 305.2758 -195.538011 
L 302.376406 -195.538011 
L 299.477011 -195.538011 
L 296.577617 -195.538011 
L 293.678222 -195.538011 
L 290.778828 -195.538011 
L 287.879434 -195.538011 
L 284.980039 -195.538011 
L 282.080645 -195.538011 
L 279.18125 -195.538011 
L 276.281856 -195.538011 
L 273.382461 -195.538011 
L 270.483067 -195.538011 
L 267.583672 -195.538011 
L 264.684278 -195.538011 
L 261.784884 -195.538011 
L 258.885489 -195.538011 
L 255.986095 -195.538011 
L 253.0867 -195.538011 
L 250.187306 -195.538011 
L 247.287911 -195.538011 
L 244.388517 -195.538011 
L 241.489123 -195.538011 
L 238.589728 -195.538011 
L 235.690334 -195.538011 
L 232.790939 -195.538011 
L 229.891545 -195.538011 
L 226.99215 -195.538011 
L 224.092756 -195.538011 
L 221.193361 -195.538011 
L 218.293967 -195.538011 
L 215.394573 -195.538011 
L 212.495178 -195.538011 
L 209.595784 -195.538011 
L 206.696389 -195.538011 
L 203.796995 -195.538011 
L 200.8976 -195.538011 
L 197.998206 -195.538011 
L 195.098811 -195.538011 
L 192.199417 -195.538011 
L 189.300023 -195.538011 
L 186.400628 -195.538011 
L 183.501234 -195.538011 
L 180.601839 -195.538011 
L 177.702445 -195.538011 
L 174.80305 -195.538011 
L 171.903656 -195.538011 
L 169.004261 -195.538011 
L 166.104867 -195.538011 
L 163.205473 -195.538011 
L 160.306078 -195.538011 
L 157.406684 -195.538011 
L 154.507289 -195.538011 
L 151.607895 -195.538011 
L 148.7085 -195.538011 
L 145.809106 -195.538011 
L 142.909712 -195.538011 
L 140.010317 -195.538011 
L 137.110923 -195.538011 
L 134.211528 -195.538011 
L 131.312134 -195.538011 
L 128.412739 -195.538011 
L 125.513345 -195.538011 
L 122.61395 -195.538011 
L 119.714556 -195.538011 
L 116.815162 -195.538011 
L 113.915767 -195.538011 
L 111.016373 -195.538011 
L 108.116978 -195.538011 
L 105.217584 -195.538011 
L 102.318189 -195.538011 
L 99.418795 -195.538011 
L 96.5194 -195.538011 
L 93.620006 -195.538011 
L 90.720612 -195.538011 
L 87.821217 -195.538011 
L 84.921823 -195.538011 
L 82.022428 -195.538011 
L 79.123034 -195.538011 
L 76.223639 -195.538011 
L 73.324245 -195.538011 
L 70.42485 -195.538011 
L 67.525456 -195.538011 
L 64.626062 -195.538011 
L 61.726667 -195.538011 
L 58.827273 -195.538011 
z
" id="m1f3e2fd9f2" style="stroke:#36a2eb;stroke-opacity:0.5;"/>
    </defs>
    <g clip-path="url(#p321763fa25)">
     <use style="fill:#36a2eb;fill-opacity:0.5;stroke:#36a2eb;stroke-opacity:0.5;" x="0" xlink:href="#m1f3e2fd9f2" y="581.789375"/>
    </g>
   </g>
   <g id="line2d_1">
    <path clip-path="url(#p321763fa25)" d="M 108.150965 386.172423 
L 112.264316 386.142656 
L 116.377667 386.102638 
L 120.491018 386.049214 
L 124.604369 385.978387 
L 128.71772 385.885144 
L 132.831072 385.763249 
L 136.944423 385.605015 
L 141.057774 385.401057 
L 145.171125 385.140021 
L 149.284476 384.808302 
L 153.397827 384.389766 
L 157.511178 383.865472 
L 161.62453 383.21342 
L 165.737881 382.408342 
L 169.851232 381.421555 
L 173.964583 380.220893 
L 178.077934 378.770761 
L 182.191285 377.032317 
L 186.304636 374.963819 
L 190.417988 372.521157 
L 194.531339 369.658599 
L 198.64469 366.329751 
L 202.758041 362.488744 
L 206.871392 358.091651 
L 210.984743 353.098106 
L 215.098094 347.473107 
L 219.211445 341.188953 
L 223.324797 334.227254 
L 227.438148 326.580962 
L 231.551499 318.256305 
L 235.66485 309.274569 
L 239.778201 299.673598 
L 243.891552 289.508931 
L 248.004903 278.854471 
L 252.118255 267.802607 
L 256.231606 256.46371 
L 260.344957 244.964972 
L 264.458308 233.448544 
L 268.571659 222.069008 
L 272.68501 210.990206 
L 276.798361 200.381512 
L 280.911713 190.41366 
L 285.025064 181.254251 
L 289.138415 173.063116 
L 293.251766 165.9877 
L 297.365117 160.158666 
L 301.478468 155.685879 
L 305.591819 152.65497 
L 309.70517 151.124607 
L 313.818522 151.124607 
L 317.931873 152.65497 
L 322.045224 155.685879 
L 326.158575 160.158666 
L 330.271926 165.9877 
L 334.385277 173.063116 
L 338.498628 181.254251 
L 342.61198 190.41366 
L 346.725331 200.381512 
L 350.838682 210.990206 
L 354.952033 222.069008 
L 359.065384 233.448544 
L 363.178735 244.964972 
L 367.292086 256.46371 
L 371.405438 267.802607 
L 375.518789 278.854471 
L 379.63214 289.508931 
L 383.745491 299.673598 
L 387.858842 309.274569 
L 391.972193 318.256305 
L 396.085544 326.580962 
L 400.198895 334.227254 
L 404.312247 341.188953 
L 408.425598 347.473107 
L 412.538949 353.098106 
L 416.6523 358.091651 
L 420.765651 362.488744 
L 424.879002 366.329751 
L 428.992353 369.658599 
L 433.105705 372.521157 
L 437.219056 374.963819 
L 441.332407 377.032317 
L 445.445758 378.770761 
L 449.559109 380.220893 
L 453.67246 381.421555 
L 457.785811 382.408342 
L 461.899163 383.21342 
L 466.012514 383.865472 
L 470.125865 384.389766 
L 474.239216 384.808302 
L 478.352567 385.140021 
L 482.465918 385.401057 
L 486.579269 385.605015 
L 490.69262 385.763249 
L 494.805972 385.885144 
L 498.919323 385.978387 
L 503.032674 386.049214 
L 507.146025 386.102638 
L 511.259376 386.142656 
L 515.372727 386.172423 
" style="fill:none;stroke:#ff6384;stroke-linecap:square;"/>
   </g>
   <g id="line2d_2">
    <path clip-path="url(#p321763fa25)" d="M 58.827273 386.139371 
L 61.726667 386.097141 
L 64.626062 386.040368 
L 67.525456 385.964575 
L 70.42485 385.864094 
L 73.324245 385.73181 
L 76.223639 385.558878 
L 79.123034 385.334393 
L 82.022428 385.04504 
L 84.921823 384.674709 
L 87.821217 384.204102 
L 90.720612 383.610328 
L 93.620006 382.866516 
L 96.5194 381.941454 
L 99.418795 380.799296 
L 102.318189 379.399346 
L 105.217584 377.695976 
L 108.116978 375.638684 
L 111.016373 373.172366 
L 113.915767 370.2378 
L 116.815162 366.772413 
L 119.714556 362.711322 
L 122.61395 357.988708 
L 125.513345 352.539497 
L 128.412739 346.301371 
L 131.312134 339.217063 
L 134.211528 331.236916 
L 137.110923 322.321628 
L 140.010317 312.445114 
L 142.909712 301.597371 
L 145.809106 289.787238 
L 148.7085 277.04491 
L 151.607895 263.424078 
L 154.507289 249.003534 
L 157.406684 233.888124 
L 160.306078 218.208919 
L 163.205473 202.122504 
L 166.104867 185.809323 
L 169.004261 169.471045 
L 171.903656 153.326975 
L 174.80305 137.609553 
L 177.702445 122.559072 
L 180.601839 108.417748 
L 183.501234 95.423357 
L 186.400628 83.802649 
L 189.300023 73.764805 
L 192.199417 65.495194 
L 195.098811 59.149682 
L 197.998206 54.849752 
L 200.8976 52.678636 
L 203.796995 52.678636 
L 206.696389 54.849752 
L 209.595784 59.149682 
L 212.495178 65.495194 
L 215.394573 73.764805 
L 218.293967 83.802649 
L 221.193361 95.423357 
L 224.092756 108.417748 
L 226.99215 122.559072 
L 229.891545 137.609553 
L 232.790939 153.326975 
L 235.690334 169.471045 
L 238.589728 185.809323 
L 241.489123 202.122504 
L 244.388517 218.208919 
L 247.287911 233.888124 
L 250.187306 249.003534 
L 253.0867 263.424078 
L 255.986095 277.04491 
L 258.885489 289.787238 
L 261.784884 301.597371 
L 264.684278 312.445114 
L 267.583672 322.321628 
L 270.483067 331.236916 
L 273.382461 339.217063 
L 276.281856 346.301371 
L 279.18125 352.539497 
L 282.080645 357.988708 
L 284.980039 362.711322 
L 287.879434 366.772413 
L 290.778828 370.2378 
L 293.678222 373.172366 
L 296.577617 375.638684 
L 299.477011 377.695976 
L 302.376406 379.399346 
L 305.2758 380.799296 
L 308.175195 381.941454 
L 311.074589 382.866516 
L 313.973984 383.610328 
L 316.873378 384.204102 
L 319.772772 384.674709 
L 322.672167 385.04504 
L 325.571561 385.334393 
L 328.470956 385.558878 
L 331.37035 385.73181 
L 334.269745 385.864094 
L 337.169139 385.964575 
L 340.068533 386.040368 
L 342.967928 386.097141 
L 345.867322 386.139371 
" style="fill:none;stroke:#36a2eb;stroke-linecap:square;"/>
   </g>
   <g id="patch_3">
    <path d="M 36 402.93 
L 538.2 402.93 
" style="fill:none;stroke:#000000;stroke-linecap:square;stroke-linejoin:miter;stroke-width:0.8;"/>
   </g>
   <g id="legend_1">
    <g id="patch_4">
     <path d="M 450.225313 88.29875 
L 528.4 88.29875 
Q 531.2 88.29875 531.2 85.49875 
L 531.2 45.8 
Q 531.2 43 528.4 43 
L 450.225313 43 
Q 447.425313 43 447.425313 45.8 
L 447.425313 85.49875 
Q 447.425313 88.29875 450.225313 88.29875 
z
" style="fill:#ffffff;opacity:0.8;stroke:#cccccc;stroke-linejoin:miter;"/>
    </g>
    <g id="patch_5">
     <path d="M 453.025313 59.237813 
L 481.025313 59.237813 
L 481.025313 49.437813 
L 453.025313 49.437813 
z
" style="fill:#ff6384;opacity:0.5;stroke:#ff6384;stroke-linejoin:miter;"/>
    </g>
    <g id="text_1">
     <!-- base -->
     <defs>
      <path d="M 48.6875 27.296875 
Q 48.6875 37.203125 44.609375 42.84375 
Q 40.53125 48.484375 33.40625 48.484375 
Q 26.265625 48.484375 22.1875 42.84375 
Q 18.109375 37.203125 18.109375 27.296875 
Q 18.109375 17.390625 22.1875 11.75 
Q 26.265625 6.109375 33.40625 6.109375 
Q 40.53125 6.109375 44.609375 11.75 
Q 48.6875 17.390625 48.6875 27.296875 
z
M 18.109375 46.390625 
Q 20.953125 51.265625 25.265625 53.625 
Q 29.59375 56 35.59375 56 
Q 45.5625 56 51.78125 48.09375 
Q 58.015625 40.1875 58.015625 27.296875 
Q 58.015625 14.40625 51.78125 6.484375 
Q 45.5625 -1.421875 35.59375 -1.421875 
Q 29.59375 -1.421875 25.265625 0.953125 
Q 20.953125 3.328125 18.109375 8.203125 
L 18.109375 0 
L 9.078125 0 
L 9.078125 75.984375 
L 18.109375 75.984375 
z
" id="DejaVuSans-98"/>
      <path d="M 34.28125 27.484375 
Q 23.390625 27.484375 19.1875 25 
Q 14.984375 22.515625 14.984375 16.5 
Q 14.984375 11.71875 18.140625 8.90625 
Q 21.296875 6.109375 26.703125 6.109375 
Q 34.1875 6.109375 38.703125 11.40625 
Q 43.21875 16.703125 43.21875 25.484375 
L 43.21875 27.484375 
z
M 52.203125 31.203125 
L 52.203125 0 
L 43.21875 0 
L 43.21875 8.296875 
Q 40.140625 3.328125 35.546875 0.953125 
Q 30.953125 -1.421875 24.3125 -1.421875 
Q 15.921875 -1.421875 10.953125 3.296875 
Q 6 8.015625 6 15.921875 
Q 6 25.140625 12.171875 29.828125 
Q 18.359375 34.515625 30.609375 34.515625 
L 43.21875 34.515625 
L 43.21875 35.40625 
Q 43.21875 41.609375 39.140625 45 
Q 35.0625 48.390625 27.6875 48.390625 
Q 23 48.390625 18.546875 47.265625 
Q 14.109375 46.140625 10.015625 43.890625 
L 10.015625 52.203125 
Q 14.9375 54.109375 19.578125 55.046875 
Q 24.21875 56 28.609375 56 
Q 40.484375 56 46.34375 49.84375 
Q 52.203125 43.703125 52.203125 31.203125 
z
" id="DejaVuSans-97"/>
      <path d="M 44.28125 53.078125 
L 44.28125 44.578125 
Q 40.484375 46.53125 36.375 47.5 
Q 32.28125 48.484375 27.875 48.484375 
Q 21.1875 48.484375 17.84375 46.4375 
Q 14.5 44.390625 14.5 40.28125 
Q 14.5 37.15625 16.890625 35.375 
Q 19.28125 33.59375 26.515625 31.984375 
L 29.59375 31.296875 
Q 39.15625 29.25 43.1875 25.515625 
Q 47.21875 21.78125 47.21875 15.09375 
Q 47.21875 7.46875 41.1875 3.015625 
Q 35.15625 -1.421875 24.609375 -1.421875 
Q 20.21875 -1.421875 15.453125 -0.5625 
Q 10.6875 0.296875 5.421875 2 
L 5.421875 11.28125 
Q 10.40625 8.6875 15.234375 7.390625 
Q 20.0625 6.109375 24.8125 6.109375 
Q 31.15625 6.109375 34.5625 8.28125 
Q 37.984375 10.453125 37.984375 14.40625 
Q 37.984375 18.0625 35.515625 20.015625 
Q 33.0625 21.96875 24.703125 23.78125 
L 21.578125 24.515625 
Q 13.234375 26.265625 9.515625 29.90625 
Q 5.8125 33.546875 5.8125 39.890625 
Q 5.8125 47.609375 11.28125 51.796875 
Q 16.75 56 26.8125 56 
Q 31.78125 56 36.171875 55.265625 
Q 40.578125 54.546875 44.28125 53.078125 
z
" id="DejaVuSans-115"/>
      <path d="M 56.203125 29.59375 
L 56.203125 25.203125 
L 14.890625 25.203125 
Q 15.484375 15.921875 20.484375 11.0625 
Q 25.484375 6.203125 34.421875 6.203125 
Q 39.59375 6.203125 44.453125 7.46875 
Q 49.3125 8.734375 54.109375 11.28125 
L 54.109375 2.78125 
Q 49.265625 0.734375 44.1875 -0.34375 
Q 39.109375 -1.421875 33.890625 -1.421875 
Q 20.796875 -1.421875 13.15625 6.1875 
Q 5.515625 13.8125 5.515625 26.8125 
Q 5.515625 40.234375 12.765625 48.109375 
Q 20.015625 56 32.328125 56 
Q 43.359375 56 49.78125 48.890625 
Q 56.203125 41.796875 56.203125 29.59375 
z
M 47.21875 32.234375 
Q 47.125 39.59375 43.09375 43.984375 
Q 39.0625 48.390625 32.421875 48.390625 
Q 24.90625 48.390625 20.390625 44.140625 
Q 15.875 39.890625 15.1875 32.171875 
z
" id="DejaVuSans-101"/>
     </defs>
     <g transform="translate(492.225313 59.237813)scale(0.14 -0.14)">
      <use xlink:href="#DejaVuSans-98"/>
      <use x="63.476562" xlink:href="#DejaVuSans-97"/>
      <use x="124.755859" xlink:href="#DejaVuSans-115"/>
      <use x="176.855469" xlink:href="#DejaVuSans-101"/>
     </g>
    </g>
    <g id="patch_6">
     <path d="M 453.025313 79.787188 
L 481.025313 79.787188 
L 481.025313 69.987188 
L 453.025313 69.987188 
z
" style="fill:#36a2eb;opacity:0.5;stroke:#36a2eb;stroke-linejoin:miter;"/>
    </g>
    <g id="text_2">
     <!-- new -->
     <defs>
      <path d="M 54.890625 33.015625 
L 54.890625 0 
L 45.90625 0 
L 45.90625 32.71875 
Q 45.90625 40.484375 42.875 44.328125 
Q 39.84375 48.1875 33.796875 48.1875 
Q 26.515625 48.1875 22.3125 43.546875 
Q 18.109375 38.921875 18.109375 30.90625 
L 18.109375 0 
L 9.078125 0 
L 9.078125 54.6875 
L 18.109375 54.6875 
L 18.109375 46.1875 
Q 21.34375 51.125 25.703125 53.5625 
Q 30.078125 56 35.796875 56 
Q 45.21875 56 50.046875 50.171875 
Q 54.890625 44.34375 54.890625 33.015625 
z
" id="DejaVuSans-110"/>
      <path d="M 4.203125 54.6875 
L 13.1875 54.6875 
L 24.421875 12.015625 
L 35.59375 54.6875 
L 46.1875 54.6875 
L 57.421875 12.015625 
L 68.609375 54.6875 
L 77.59375 54.6875 
L 63.28125 0 
L 52.6875 0 
L 40.921875 44.828125 
L 29.109375 0 
L 18.5 0 
z
" id="DejaVuSans-119"/>
     </defs>
     <g transform="translate(492.225313 79.787188)scale(0.14 -0.14)">
      <use xlink:href="#DejaVuSans-110"/>
      <use x="63.378906" xlink:href="#DejaVuSans-101"/>
      <use x="124.902344" xlink:href="#DejaVuSans-119"/>
     </g>
    </g>
   </g>
  </g>
  <g id="axes_2">
   <g id="patch_7">
    <path d="M 36 525.24 
L 538.2 525.24 
L 538.2 402.93 
L 36 402.93 
z
" style="fill:none;"/>
   </g>
   <g id="patch_8">
    <path clip-path="url(#p4032eda7d7)" d="M 211.992514 519.680455 
L 411.531178 519.680455 
L 411.531178 482.616818 
L 211.992514 482.616818 
z
" style="fill:#ff6384;opacity:0.5;"/>
   </g>
   <g id="patch_9">
    <path clip-path="url(#p4032eda7d7)" d="M 132.022485 445.553182 
L 272.67211 445.553182 
L 272.67211 408.489545 
L 132.022485 408.489545 
z
" style="fill:#36a2eb;opacity:0.5;"/>
   </g>
   <g id="matplotlib.axis_1">
    <g id="xtick_1">
     <g id="line2d_3">
      <defs>
       <path d="M 0 0 
L 0 3.5 
" id="m801a02d7ac" style="stroke:#000000;stroke-width:0.8;"/>
      </defs>
      <g>
       <use style="stroke:#000000;stroke-width:0.8;" x="99.94627" xlink:href="#m801a02d7ac" y="525.24"/>
      </g>
     </g>
     <g id="text_3">
      <!-- 3.5 -->
      <defs>
       <path d="M 40.578125 39.3125 
Q 47.65625 37.796875 51.625 33 
Q 55.609375 28.21875 55.609375 21.1875 
Q 55.609375 10.40625 48.1875 4.484375 
Q 40.765625 -1.421875 27.09375 -1.421875 
Q 22.515625 -1.421875 17.65625 -0.515625 
Q 12.796875 0.390625 7.625 2.203125 
L 7.625 11.71875 
Q 11.71875 9.328125 16.59375 8.109375 
Q 21.484375 6.890625 26.8125 6.890625 
Q 36.078125 6.890625 40.9375 10.546875 
Q 45.796875 14.203125 45.796875 21.1875 
Q 45.796875 27.640625 41.28125 31.265625 
Q 36.765625 34.90625 28.71875 34.90625 
L 20.21875 34.90625 
L 20.21875 43.015625 
L 29.109375 43.015625 
Q 36.375 43.015625 40.234375 45.921875 
Q 44.09375 48.828125 44.09375 54.296875 
Q 44.09375 59.90625 40.109375 62.90625 
Q 36.140625 65.921875 28.71875 65.921875 
Q 24.65625 65.921875 20.015625 65.03125 
Q 15.375 64.15625 9.8125 62.3125 
L 9.8125 71.09375 
Q 15.4375 72.65625 20.34375 73.4375 
Q 25.25 74.21875 29.59375 74.21875 
Q 40.828125 74.21875 47.359375 69.109375 
Q 53.90625 64.015625 53.90625 55.328125 
Q 53.90625 49.265625 50.4375 45.09375 
Q 46.96875 40.921875 40.578125 39.3125 
z
" id="DejaVuSans-51"/>
       <path d="M 10.6875 12.40625 
L 21 12.40625 
L 21 0 
L 10.6875 0 
z
" id="DejaVuSans-46"/>
       <path d="M 10.796875 72.90625 
L 49.515625 72.90625 
L 49.515625 64.59375 
L 19.828125 64.59375 
L 19.828125 46.734375 
Q 21.96875 47.46875 24.109375 47.828125 
Q 26.265625 48.1875 28.421875 48.1875 
Q 40.625 48.1875 47.75 41.5 
Q 54.890625 34.8125 54.890625 23.390625 
Q 54.890625 11.625 47.5625 5.09375 
Q 40.234375 -1.421875 26.90625 -1.421875 
Q 22.3125 -1.421875 17.546875 -0.640625 
Q 12.796875 0.140625 7.71875 1.703125 
L 7.71875 11.625 
Q 12.109375 9.234375 16.796875 8.0625 
Q 21.484375 6.890625 26.703125 6.890625 
Q 35.15625 6.890625 40.078125 11.328125 
Q 45.015625 15.765625 45.015625 23.390625 
Q 45.015625 31 40.078125 35.4375 
Q 35.15625 39.890625 26.703125 39.890625 
Q 22.75 39.890625 18.8125 39.015625 
Q 14.890625 38.140625 10.796875 36.28125 
z
" id="DejaVuSans-53"/>
      </defs>
      <g transform="translate(88.814083 542.877813)scale(0.14 -0.14)">
       <use xlink:href="#DejaVuSans-51"/>
       <use x="63.623047" xlink:href="#DejaVuSans-46"/>
       <use x="95.410156" xlink:href="#DejaVuSans-53"/>
      </g>
     </g>
    </g>
    <g id="xtick_2">
     <g id="line2d_4">
      <g>
       <use style="stroke:#000000;stroke-width:0.8;" x="190.3267" xlink:href="#m801a02d7ac" y="525.24"/>
      </g>
     </g>
     <g id="text_4">
      <!-- 4.0 -->
      <defs>
       <path d="M 37.796875 64.3125 
L 12.890625 25.390625 
L 37.796875 25.390625 
z
M 35.203125 72.90625 
L 47.609375 72.90625 
L 47.609375 25.390625 
L 58.015625 25.390625 
L 58.015625 17.1875 
L 47.609375 17.1875 
L 47.609375 0 
L 37.796875 0 
L 37.796875 17.1875 
L 4.890625 17.1875 
L 4.890625 26.703125 
z
" id="DejaVuSans-52"/>
       <path d="M 31.78125 66.40625 
Q 24.171875 66.40625 20.328125 58.90625 
Q 16.5 51.421875 16.5 36.375 
Q 16.5 21.390625 20.328125 13.890625 
Q 24.171875 6.390625 31.78125 6.390625 
Q 39.453125 6.390625 43.28125 13.890625 
Q 47.125 21.390625 47.125 36.375 
Q 47.125 51.421875 43.28125 58.90625 
Q 39.453125 66.40625 31.78125 66.40625 
z
M 31.78125 74.21875 
Q 44.046875 74.21875 50.515625 64.515625 
Q 56.984375 54.828125 56.984375 36.375 
Q 56.984375 17.96875 50.515625 8.265625 
Q 44.046875 -1.421875 31.78125 -1.421875 
Q 19.53125 -1.421875 13.0625 8.265625 
Q 6.59375 17.96875 6.59375 36.375 
Q 6.59375 54.828125 13.0625 64.515625 
Q 19.53125 74.21875 31.78125 74.21875 
z
" id="DejaVuSans-48"/>
      </defs>
      <g transform="translate(179.194513 542.877813)scale(0.14 -0.14)">
       <use xlink:href="#DejaVuSans-52"/>
       <use x="63.623047" xlink:href="#DejaVuSans-46"/>
       <use x="95.410156" xlink:href="#DejaVuSans-48"/>
      </g>
     </g>
    </g>
    <g id="xtick_3">
     <g id="line2d_5">
      <g>
       <use style="stroke:#000000;stroke-width:0.8;" x="280.70713" xlink:href="#m801a02d7ac" y="525.24"/>
      </g>
     </g>
     <g id="text_5">
      <!-- 4.5 -->
      <g transform="translate(269.574943 542.877813)scale(0.14 -0.14)">
       <use xlink:href="#DejaVuSans-52"/>
       <use x="63.623047" xlink:href="#DejaVuSans-46"/>
       <use x="95.410156" xlink:href="#DejaVuSans-53"/>
      </g>
     </g>
    </g>
    <g id="xtick_4">
     <g id="line2d_6">
      <g>
       <use style="stroke:#000000;stroke-width:0.8;" x="371.08756" xlink:href="#m801a02d7ac" y="525.24"/>
      </g>
     </g>
     <g id="text_6">
      <!-- 5.0 -->
      <g transform="translate(359.955373 542.877813)scale(0.14 -0.14)">
       <use xlink:href="#DejaVuSans-53"/>
       <use x="63.623047" xlink:href="#DejaVuSans-46"/>
       <use x="95.410156" xlink:href="#DejaVuSans-48"/>
      </g>
     </g>
    </g>
    <g id="xtick_5">
     <g id="line2d_7">
      <g>
       <use style="stroke:#000000;stroke-width:0.8;" x="461.46799" xlink:href="#m801a02d7ac" y="525.24"/>
      </g>
     </g>
     <g id="text_7">
      <!-- 5.5 -->
      <g transform="translate(450.335803 542.877813)scale(0.14 -0.14)">
       <use xlink:href="#DejaVuSans-53"/>
       <use x="63.623047" xlink:href="#DejaVuSans-46"/>
       <use x="95.410156" xlink:href="#DejaVuSans-53"/>
      </g>
     </g>
    </g>
   </g>
   <g id="line2d_8">
    <path clip-path="url(#p4032eda7d7)" d="M 311.761846 525.24 
L 311.761846 402.93 
" style="fill:none;stroke:#ff6384;stroke-dasharray:5.55,2.4;stroke-dashoffset:0;stroke-opacity:0.8;stroke-width:1.5;"/>
   </g>
   <g id="line2d_9">
    <path clip-path="url(#p4032eda7d7)" d="M 202.347298 525.24 
L 202.347298 402.93 
" style="fill:none;stroke:#36a2eb;stroke-dasharray:5.55,2.4;stroke-dashoffset:0;stroke-opacity:0.8;stroke-width:1.5;"/>
   </g>
   <g id="patch_10">
    <path d="M 36 525.24 
L 538.2 525.24 
" style="fill:none;stroke:#000000;stroke-linecap:square;stroke-linejoin:miter;stroke-width:0.8;"/>
   </g>
  </g>
 </g>
 <defs>
  <clipPath id="p321763fa25">
   <rect height="366.93" width="502.2" x="36" y="36"/>
  </clipPath>
  <clipPath id="p4032eda7d7">
   <rect height="122.31" width="502.2" x="36" y="402.93"/>
  </clipPath>
 </defs>
</svg>
