<?xml version="1.0" encoding="utf-8" standalone="no"?>
<!DOCTYPE svg PUBLIC "-//W3C//DTD SVG 1.1//EN"
  "http://www.w3.org/Graphics/SVG/1.1/DTD/svg11.dtd">
<!-- Created with matplotlib (https://matplotlib.org/) -->
<svg height="591.509375pt" version="1.1" viewBox="0 0 574.2 591.509375" width="574.2pt" xmlns="http://www.w3.org/2000/svg" xmlns:xlink="http://www.w3.org/1999/xlink">
 <defs>
  <style type="text/css">
*{stroke-linecap:butt;stroke-linejoin:round;}
  </style>
 </defs>
 <g id="figure_1">
  <g id="patch_1">
   <path d="M 0 591.509375 
L 574.2 591.509375 
L 574.2 0 
L 0 0 
z
" style="fill:none;"/>
  </g>
  <g id="axes_1">
   <g id="patch_2">
    <path d="M 36 410.22 
L 538.2 410.22 
L 538.2 36 
L 36 36 
z
" style="fill:none;"/>
   </g>
   <g id="PolyCollection_1">
    <defs>
     <path d="M 76.904478 -198.299375 
L 76.904478 -198.402113 
L 81.333451 -198.440853 
L 85.762423 -198.492934 
L 90.191395 -198.562463 
L 94.620367 -198.654641 
L 99.049339 -198.775993 
L 103.478312 -198.934634 
L 107.907284 -199.140567 
L 112.336256 -199.406009 
L 116.765228 -199.745736 
L 121.1942 -200.177452 
L 125.623173 -200.722157 
L 130.052145 -201.404501 
L 134.481117 -202.253116 
L 138.910089 -203.300887 
L 143.339061 -204.585146 
L 147.768034 -206.147751 
L 152.197006 -208.035029 
L 156.625978 -210.297532 
L 161.05495 -212.989587 
L 165.483923 -216.168597 
L 169.912895 -219.894081 
L 174.341867 -224.226422 
L 178.770839 -229.225313 
L 183.199811 -234.947924 
L 187.628784 -241.446789 
L 192.057756 -248.767461 
L 196.486728 -256.945995 
L 200.9157 -266.006319 
L 205.344672 -275.957611 
L 209.773645 -286.791763 
L 214.202617 -298.481072 
L 218.631589 -310.976286 
L 223.060561 -324.205125 
L 227.489534 -338.071406 
L 231.918506 -352.454891 
L 236.347478 -367.211934 
L 240.77645 -382.177004 
L 245.205422 -397.165096 
L 249.634395 -411.97503 
L 254.063367 -426.393573 
L 258.492339 -440.200291 
L 262.921311 -453.172984 
L 267.350283 -465.093527 
L 271.779256 -475.753907 
L 276.208228 -484.962229 
L 280.6372 -492.548444 
L 285.066172 -498.369567 
L 289.495144 -502.314153 
L 293.924117 -504.305849 
L 298.353089 -504.305849 
L 302.782061 -502.314153 
L 307.211033 -498.369567 
L 311.640006 -492.548444 
L 316.068978 -484.962229 
L 320.49795 -475.753907 
L 324.926922 -465.093527 
L 329.355894 -453.172984 
L 333.784867 -440.200291 
L 338.213839 -426.393573 
L 342.642811 -411.97503 
L 347.071783 -397.165096 
L 351.500755 -382.177004 
L 355.929728 -367.211934 
L 360.3587 -352.454891 
L 364.787672 -338.071406 
L 369.216644 -324.205125 
L 373.645616 -310.976286 
L 378.074589 -298.481072 
L 382.503561 -286.791763 
L 386.932533 -275.957611 
L 391.361505 -266.006319 
L 395.790478 -256.945995 
L 400.21945 -248.767461 
L 404.648422 -241.446789 
L 409.077394 -234.947924 
L 413.506366 -229.225313 
L 417.935339 -224.226422 
L 422.364311 -219.894081 
L 426.793283 -216.168597 
L 431.222255 -212.989587 
L 435.651227 -210.297532 
L 440.0802 -208.035029 
L 444.509172 -206.147751 
L 448.938144 -204.585146 
L 453.367116 -203.300887 
L 457.796089 -202.253116 
L 462.225061 -201.404501 
L 466.654033 -200.722157 
L 471.083005 -200.177452 
L 475.511977 -199.745736 
L 479.94095 -199.406009 
L 484.369922 -199.140567 
L 488.798894 -198.934634 
L 493.227866 -198.775993 
L 497.656838 -198.654641 
L 502.085811 -198.562463 
L 506.514783 -198.492934 
L 510.943755 -198.440853 
L 515.372727 -198.402113 
L 515.372727 -198.299375 
L 515.372727 -198.299375 
L 510.943755 -198.299375 
L 506.514783 -198.299375 
L 502.085811 -198.299375 
L 497.656838 -198.299375 
L 493.227866 -198.299375 
L 488.798894 -198.299375 
L 484.369922 -198.299375 
L 479.94095 -198.299375 
L 475.511977 -198.299375 
L 471.083005 -198.299375 
L 466.654033 -198.299375 
L 462.225061 -198.299375 
L 457.796089 -198.299375 
L 453.367116 -198.299375 
L 448.938144 -198.299375 
L 444.509172 -198.299375 
L 440.0802 -198.299375 
L 435.651227 -198.299375 
L 431.222255 -198.299375 
L 426.793283 -198.299375 
L 422.364311 -198.299375 
L 417.935339 -198.299375 
L 413.506366 -198.299375 
L 409.077394 -198.299375 
L 404.648422 -198.299375 
L 400.21945 -198.299375 
L 395.790478 -198.299375 
L 391.361505 -198.299375 
L 386.932533 -198.299375 
L 382.503561 -198.299375 
L 378.074589 -198.299375 
L 373.645616 -198.299375 
L 369.216644 -198.299375 
L 364.787672 -198.299375 
L 360.3587 -198.299375 
L 355.929728 -198.299375 
L 351.500755 -198.299375 
L 347.071783 -198.299375 
L 342.642811 -198.299375 
L 338.213839 -198.299375 
L 333.784867 -198.299375 
L 329.355894 -198.299375 
L 324.926922 -198.299375 
L 320.49795 -198.299375 
L 316.068978 -198.299375 
L 311.640006 -198.299375 
L 307.211033 -198.299375 
L 302.782061 -198.299375 
L 298.353089 -198.299375 
L 293.924117 -198.299375 
L 289.495144 -198.299375 
L 285.066172 -198.299375 
L 280.6372 -198.299375 
L 276.208228 -198.299375 
L 271.779256 -198.299375 
L 267.350283 -198.299375 
L 262.921311 -198.299375 
L 258.492339 -198.299375 
L 254.063367 -198.299375 
L 249.634395 -198.299375 
L 245.205422 -198.299375 
L 240.77645 -198.299375 
L 236.347478 -198.299375 
L 231.918506 -198.299375 
L 227.489534 -198.299375 
L 223.060561 -198.299375 
L 218.631589 -198.299375 
L 214.202617 -198.299375 
L 209.773645 -198.299375 
L 205.344672 -198.299375 
L 200.9157 -198.299375 
L 196.486728 -198.299375 
L 192.057756 -198.299375 
L 187.628784 -198.299375 
L 183.199811 -198.299375 
L 178.770839 -198.299375 
L 174.341867 -198.299375 
L 169.912895 -198.299375 
L 165.483923 -198.299375 
L 161.05495 -198.299375 
L 156.625978 -198.299375 
L 152.197006 -198.299375 
L 147.768034 -198.299375 
L 143.339061 -198.299375 
L 138.910089 -198.299375 
L 134.481117 -198.299375 
L 130.052145 -198.299375 
L 125.623173 -198.299375 
L 121.1942 -198.299375 
L 116.765228 -198.299375 
L 112.336256 -198.299375 
L 107.907284 -198.299375 
L 103.478312 -198.299375 
L 99.049339 -198.299375 
L 94.620367 -198.299375 
L 90.191395 -198.299375 
L 85.762423 -198.299375 
L 81.333451 -198.299375 
L 76.904478 -198.299375 
z
" id="mb1b32ff333" style="stroke:#ff6384;stroke-opacity:0.5;"/>
    </defs>
    <g clip-path="url(#pbdc0c072e2)">
     <use style="fill:#ff6384;fill-opacity:0.5;stroke:#ff6384;stroke-opacity:0.5;" x="0" xlink:href="#mb1b32ff333" y="591.509375"/>
    </g>
   </g>
   <g id="PolyCollection_2">
    <defs>
     <path d="M 58.827273 -198.299375 
L 58.827273 -198.413593 
L 62.811089 -198.456662 
L 66.794905 -198.514563 
L 70.77872 -198.591861 
L 74.762536 -198.694339 
L 78.746352 -198.829251 
L 82.730168 -199.005619 
L 86.713984 -199.234563 
L 90.6978 -199.529665 
L 94.681616 -199.907354 
L 98.665432 -200.387311 
L 102.649248 -200.992881 
L 106.633064 -201.751471 
L 110.616879 -202.694912 
L 114.600695 -203.859762 
L 118.584511 -205.287525 
L 122.568327 -207.024738 
L 126.552143 -209.122902 
L 130.535959 -211.638221 
L 134.519775 -214.631088 
L 138.503591 -218.165325 
L 142.487407 -222.3071 
L 146.471223 -227.123541 
L 150.455038 -232.681014 
L 154.438854 -239.043076 
L 158.42267 -246.268132 
L 162.406486 -254.406825 
L 166.390302 -263.499238 
L 170.374118 -273.571974 
L 174.357934 -284.635235 
L 178.34175 -296.680007 
L 182.325566 -309.675493 
L 186.309382 -323.566938 
L 190.293197 -338.273983 
L 194.277013 -353.689699 
L 198.260829 -369.680411 
L 202.244645 -386.086424 
L 206.228461 -402.723708 
L 210.212277 -419.386587 
L 214.196093 -435.8514 
L 218.179909 -451.881089 
L 222.163725 -467.230586 
L 226.147541 -481.652863 
L 230.131357 -494.905422 
L 234.115172 -506.757005 
L 238.098988 -516.994276 
L 242.082804 -525.428184 
L 246.06662 -531.899766 
L 250.050436 -536.285125 
L 254.034252 -538.499375 
L 258.018068 -538.499375 
L 262.001884 -536.285125 
L 265.9857 -531.899766 
L 269.969516 -525.428184 
L 273.953331 -516.994276 
L 277.937147 -506.757005 
L 281.920963 -494.905422 
L 285.904779 -481.652863 
L 289.888595 -467.230586 
L 293.872411 -451.881089 
L 297.856227 -435.8514 
L 301.840043 -419.386587 
L 305.823859 -402.723708 
L 309.807675 -386.086424 
L 313.79149 -369.680411 
L 317.775306 -353.689699 
L 321.759122 -338.273983 
L 325.742938 -323.566938 
L 329.726754 -309.675493 
L 333.71057 -296.680007 
L 337.694386 -284.635235 
L 341.678202 -273.571974 
L 345.662018 -263.499238 
L 349.645834 -254.406825 
L 353.629649 -246.268132 
L 357.613465 -239.043076 
L 361.597281 -232.681014 
L 365.581097 -227.123541 
L 369.564913 -222.3071 
L 373.548729 -218.165325 
L 377.532545 -214.631088 
L 381.516361 -211.638221 
L 385.500177 -209.122902 
L 389.483993 -207.024738 
L 393.467808 -205.287525 
L 397.451624 -203.859762 
L 401.43544 -202.694912 
L 405.419256 -201.751471 
L 409.403072 -200.992881 
L 413.386888 -200.387311 
L 417.370704 -199.907354 
L 421.35452 -199.529665 
L 425.338336 -199.234563 
L 429.322152 -199.005619 
L 433.305968 -198.829251 
L 437.289783 -198.694339 
L 441.273599 -198.591861 
L 445.257415 -198.514563 
L 449.241231 -198.456662 
L 453.225047 -198.413593 
L 453.225047 -198.299375 
L 453.225047 -198.299375 
L 449.241231 -198.299375 
L 445.257415 -198.299375 
L 441.273599 -198.299375 
L 437.289783 -198.299375 
L 433.305968 -198.299375 
L 429.322152 -198.299375 
L 425.338336 -198.299375 
L 421.35452 -198.299375 
L 417.370704 -198.299375 
L 413.386888 -198.299375 
L 409.403072 -198.299375 
L 405.419256 -198.299375 
L 401.43544 -198.299375 
L 397.451624 -198.299375 
L 393.467808 -198.299375 
L 389.483993 -198.299375 
L 385.500177 -198.299375 
L 381.516361 -198.299375 
L 377.532545 -198.299375 
L 373.548729 -198.299375 
L 369.564913 -198.299375 
L 365.581097 -198.299375 
L 361.597281 -198.299375 
L 357.613465 -198.299375 
L 353.629649 -198.299375 
L 349.645834 -198.299375 
L 345.662018 -198.299375 
L 341.678202 -198.299375 
L 337.694386 -198.299375 
L 333.71057 -198.299375 
L 329.726754 -198.299375 
L 325.742938 -198.299375 
L 321.759122 -198.299375 
L 317.775306 -198.299375 
L 313.79149 -198.299375 
L 309.807675 -198.299375 
L 305.823859 -198.299375 
L 301.840043 -198.299375 
L 297.856227 -198.299375 
L 293.872411 -198.299375 
L 289.888595 -198.299375 
L 285.904779 -198.299375 
L 281.920963 -198.299375 
L 277.937147 -198.299375 
L 273.953331 -198.299375 
L 269.969516 -198.299375 
L 265.9857 -198.299375 
L 262.001884 -198.299375 
L 258.018068 -198.299375 
L 254.034252 -198.299375 
L 250.050436 -198.299375 
L 246.06662 -198.299375 
L 242.082804 -198.299375 
L 238.098988 -198.299375 
L 234.115172 -198.299375 
L 230.131357 -198.299375 
L 226.147541 -198.299375 
L 222.163725 -198.299375 
L 218.179909 -198.299375 
L 214.196093 -198.299375 
L 210.212277 -198.299375 
L 206.228461 -198.299375 
L 202.244645 -198.299375 
L 198.260829 -198.299375 
L 194.277013 -198.299375 
L 190.293197 -198.299375 
L 186.309382 -198.299375 
L 182.325566 -198.299375 
L 178.34175 -198.299375 
L 174.357934 -198.299375 
L 170.374118 -198.299375 
L 166.390302 -198.299375 
L 162.406486 -198.299375 
L 158.42267 -198.299375 
L 154.438854 -198.299375 
L 150.455038 -198.299375 
L 146.471223 -198.299375 
L 142.487407 -198.299375 
L 138.503591 -198.299375 
L 134.519775 -198.299375 
L 130.535959 -198.299375 
L 126.552143 -198.299375 
L 122.568327 -198.299375 
L 118.584511 -198.299375 
L 114.600695 -198.299375 
L 110.616879 -198.299375 
L 106.633064 -198.299375 
L 102.649248 -198.299375 
L 98.665432 -198.299375 
L 94.681616 -198.299375 
L 90.6978 -198.299375 
L 86.713984 -198.299375 
L 82.730168 -198.299375 
L 78.746352 -198.299375 
L 74.762536 -198.299375 
L 70.77872 -198.299375 
L 66.794905 -198.299375 
L 62.811089 -198.299375 
L 58.827273 -198.299375 
z
" id="m76061bd378" style="stroke:#36a2eb;stroke-opacity:0.5;"/>
    </defs>
    <g clip-path="url(#pbdc0c072e2)">
     <use style="fill:#36a2eb;fill-opacity:0.5;stroke:#36a2eb;stroke-opacity:0.5;" x="0" xlink:href="#m76061bd378" y="591.509375"/>
    </g>
   </g>
   <g id="line2d_1">
    <path clip-path="url(#pbdc0c072e2)" d="M 76.904478 393.107262 
L 81.333451 393.068522 
L 85.762423 393.016441 
L 90.191395 392.946912 
L 94.620367 392.854734 
L 99.049339 392.733382 
L 103.478312 392.574741 
L 107.907284 392.368808 
L 112.336256 392.103366 
L 116.765228 391.763639 
L 121.1942 391.331923 
L 125.623173 390.787218 
L 130.052145 390.104874 
L 134.481117 389.256259 
L 138.910089 388.208488 
L 143.339061 386.924229 
L 147.768034 385.361624 
L 152.197006 383.474346 
L 156.625978 381.211843 
L 161.05495 378.519788 
L 165.483923 375.340778 
L 169.912895 371.615294 
L 174.341867 367.282953 
L 178.770839 362.284062 
L 183.199811 356.561451 
L 187.628784 350.062586 
L 192.057756 342.741914 
L 196.486728 334.56338 
L 200.9157 325.503056 
L 205.344672 315.551764 
L 209.773645 304.717612 
L 214.202617 293.028303 
L 218.631589 280.533089 
L 223.060561 267.30425 
L 227.489534 253.437969 
L 231.918506 239.054484 
L 236.347478 224.297441 
L 240.77645 209.332371 
L 245.205422 194.344279 
L 249.634395 179.534345 
L 254.063367 165.115802 
L 258.492339 151.309084 
L 262.921311 138.336391 
L 267.350283 126.415848 
L 271.779256 115.755468 
L 276.208228 106.547146 
L 280.6372 98.960931 
L 285.066172 93.139808 
L 289.495144 89.195222 
L 293.924117 87.203526 
L 298.353089 87.203526 
L 302.782061 89.195222 
L 307.211033 93.139808 
L 311.640006 98.960931 
L 316.068978 106.547146 
L 320.49795 115.755468 
L 324.926922 126.415848 
L 329.355894 138.336391 
L 333.784867 151.309084 
L 338.213839 165.115802 
L 342.642811 179.534345 
L 347.071783 194.344279 
L 351.500755 209.332371 
L 355.929728 224.297441 
L 360.3587 239.054484 
L 364.787672 253.437969 
L 369.216644 267.30425 
L 373.645616 280.533089 
L 378.074589 293.028303 
L 382.503561 304.717612 
L 386.932533 315.551764 
L 391.361505 325.503056 
L 395.790478 334.56338 
L 400.21945 342.741914 
L 404.648422 350.062586 
L 409.077394 356.561451 
L 413.506366 362.284062 
L 417.935339 367.282953 
L 422.364311 371.615294 
L 426.793283 375.340778 
L 431.222255 378.519788 
L 435.651227 381.211843 
L 440.0802 383.474346 
L 444.509172 385.361624 
L 448.938144 386.924229 
L 453.367116 388.208488 
L 457.796089 389.256259 
L 462.225061 390.104874 
L 466.654033 390.787218 
L 471.083005 391.331923 
L 475.511977 391.763639 
L 479.94095 392.103366 
L 484.369922 392.368808 
L 488.798894 392.574741 
L 493.227866 392.733382 
L 497.656838 392.854734 
L 502.085811 392.946912 
L 506.514783 393.016441 
L 510.943755 393.068522 
L 515.372727 393.107262 
" style="fill:none;stroke:#ff6384;stroke-linecap:square;"/>
   </g>
   <g id="line2d_2">
    <path clip-path="url(#pbdc0c072e2)" d="M 58.827273 393.095782 
L 62.811089 393.052713 
L 66.794905 392.994812 
L 70.77872 392.917514 
L 74.762536 392.815036 
L 78.746352 392.680124 
L 82.730168 392.503756 
L 86.713984 392.274812 
L 90.6978 391.97971 
L 94.681616 391.602021 
L 98.665432 391.122064 
L 102.649248 390.516494 
L 106.633064 389.757904 
L 110.616879 388.814463 
L 114.600695 387.649613 
L 118.584511 386.22185 
L 122.568327 384.484637 
L 126.552143 382.386473 
L 130.535959 379.871154 
L 134.519775 376.878287 
L 138.503591 373.34405 
L 142.487407 369.202275 
L 146.471223 364.385834 
L 150.455038 358.828361 
L 154.438854 352.466299 
L 158.42267 345.241243 
L 162.406486 337.10255 
L 166.390302 328.010137 
L 170.374118 317.937401 
L 174.357934 306.87414 
L 178.34175 294.829368 
L 182.325566 281.833882 
L 186.309382 267.942437 
L 190.293197 253.235392 
L 194.277013 237.819676 
L 198.260829 221.828964 
L 202.244645 205.422951 
L 206.228461 188.785667 
L 210.212277 172.122788 
L 214.196093 155.657975 
L 218.179909 139.628286 
L 222.163725 124.278789 
L 226.147541 109.856512 
L 230.131357 96.603953 
L 234.115172 84.75237 
L 238.098988 74.515099 
L 242.082804 66.081191 
L 246.06662 59.609609 
L 250.050436 55.22425 
L 254.034252 53.01 
L 258.018068 53.01 
L 262.001884 55.22425 
L 265.9857 59.609609 
L 269.969516 66.081191 
L 273.953331 74.515099 
L 277.937147 84.75237 
L 281.920963 96.603953 
L 285.904779 109.856512 
L 289.888595 124.278789 
L 293.872411 139.628286 
L 297.856227 155.657975 
L 301.840043 172.122788 
L 305.823859 188.785667 
L 309.807675 205.422951 
L 313.79149 221.828964 
L 317.775306 237.819676 
L 321.759122 253.235392 
L 325.742938 267.942437 
L 329.726754 281.833882 
L 333.71057 294.829368 
L 337.694386 306.87414 
L 341.678202 317.937401 
L 345.662018 328.010137 
L 349.645834 337.10255 
L 353.629649 345.241243 
L 357.613465 352.466299 
L 361.597281 358.828361 
L 365.581097 364.385834 
L 369.564913 369.202275 
L 373.548729 373.34405 
L 377.532545 376.878287 
L 381.516361 379.871154 
L 385.500177 382.386473 
L 389.483993 384.484637 
L 393.467808 386.22185 
L 397.451624 387.649613 
L 401.43544 388.814463 
L 405.419256 389.757904 
L 409.403072 390.516494 
L 413.386888 391.122064 
L 417.370704 391.602021 
L 421.35452 391.97971 
L 425.338336 392.274812 
L 429.322152 392.503756 
L 433.305968 392.680124 
L 437.289783 392.815036 
L 441.273599 392.917514 
L 445.257415 392.994812 
L 449.241231 393.052713 
L 453.225047 393.095782 
" style="fill:none;stroke:#36a2eb;stroke-linecap:square;"/>
   </g>
   <g id="patch_3">
    <path d="M 36 410.22 
L 538.2 410.22 
" style="fill:none;stroke:#000000;stroke-linecap:square;stroke-linejoin:miter;stroke-width:0.8;"/>
   </g>
   <g id="legend_1">
    <g id="patch_4">
     <path d="M 450.225313 88.29875 
L 528.4 88.29875 
Q 531.2 88.29875 531.2 85.49875 
L 531.2 45.8 
Q 531.2 43 528.4 43 
L 450.225313 43 
Q 447.425313 43 447.425313 45.8 
L 447.425313 85.49875 
Q 447.425313 88.29875 450.225313 88.29875 
z
" style="fill:#ffffff;opacity:0.8;stroke:#cccccc;stroke-linejoin:miter;"/>
    </g>
    <g id="patch_5">
     <path d="M 453.025313 59.237813 
L 481.025313 59.237813 
L 481.025313 49.437813 
L 453.025313 49.437813 
z
" style="fill:#ff6384;opacity:0.5;stroke:#ff6384;stroke-linejoin:miter;"/>
    </g>
    <g id="text_1">
     <!-- base -->
     <defs>
      <path d="M 48.6875 27.296875 
Q 48.6875 37.203125 44.609375 42.84375 
Q 40.53125 48.484375 33.40625 48.484375 
Q 26.265625 48.484375 22.1875 42.84375 
Q 18.109375 37.203125 18.109375 27.296875 
Q 18.109375 17.390625 22.1875 11.75 
Q 26.265625 6.109375 33.40625 6.109375 
Q 40.53125 6.109375 44.609375 11.75 
Q 48.6875 17.390625 48.6875 27.296875 
z
M 18.109375 46.390625 
Q 20.953125 51.265625 25.265625 53.625 
Q 29.59375 56 35.59375 56 
Q 45.5625 56 51.78125 48.09375 
Q 58.015625 40.1875 58.015625 27.296875 
Q 58.015625 14.40625 51.78125 6.484375 
Q 45.5625 -1.421875 35.59375 -1.421875 
Q 29.59375 -1.421875 25.265625 0.953125 
Q 20.953125 3.328125 18.109375 8.203125 
L 18.109375 0 
L 9.078125 0 
L 9.078125 75.984375 
L 18.109375 75.984375 
z
" id="DejaVuSans-98"/>
      <path d="M 34.28125 27.484375 
Q 23.390625 27.484375 19.1875 25 
Q 14.984375 22.515625 14.984375 16.5 
Q 14.984375 11.71875 18.140625 8.90625 
Q 21.296875 6.109375 26.703125 6.109375 
Q 34.1875 6.109375 38.703125 11.40625 
Q 43.21875 16.703125 43.21875 25.484375 
L 43.21875 27.484375 
z
M 52.203125 31.203125 
L 52.203125 0 
L 43.21875 0 
L 43.21875 8.296875 
Q 40.140625 3.328125 35.546875 0.953125 
Q 30.953125 -1.421875 24.3125 -1.421875 
Q 15.921875 -1.421875 10.953125 3.296875 
Q 6 8.015625 6 15.921875 
Q 6 25.140625 12.171875 29.828125 
Q 18.359375 34.515625 30.609375 34.515625 
L 43.21875 34.515625 
L 43.21875 35.40625 
Q 43.21875 41.609375 39.140625 45 
Q 35.0625 48.390625 27.6875 48.390625 
Q 23 48.390625 18.546875 47.265625 
Q 14.109375 46.140625 10.015625 43.890625 
L 10.015625 52.203125 
Q 14.9375 54.109375 19.578125 55.046875 
Q 24.21875 56 28.609375 56 
Q 40.484375 56 46.34375 49.84375 
Q 52.203125 43.703125 52.203125 31.203125 
z
" id="DejaVuSans-97"/>
      <path d="M 44.28125 53.078125 
L 44.28125 44.578125 
Q 40.484375 46.53125 36.375 47.5 
Q 32.28125 48.484375 27.875 48.484375 
Q 21.1875 48.484375 17.84375 46.4375 
Q 14.5 44.390625 14.5 40.28125 
Q 14.5 37.15625 16.890625 35.375 
Q 19.28125 33.59375 26.515625 31.984375 
L 29.59375 31.296875 
Q 39.15625 29.25 43.1875 25.515625 
Q 47.21875 21.78125 47.21875 15.09375 
Q 47.21875 7.46875 41.1875 3.015625 
Q 35.15625 -1.421875 24.609375 -1.421875 
Q 20.21875 -1.421875 15.453125 -0.5625 
Q 10.6875 0.296875 5.421875 2 
L 5.421875 11.28125 
Q 10.40625 8.6875 15.234375 7.390625 
Q 20.0625 6.109375 24.8125 6.109375 
Q 31.15625 6.109375 34.5625 8.28125 
Q 37.984375 10.453125 37.984375 14.40625 
Q 37.984375 18.0625 35.515625 20.015625 
Q 33.0625 21.96875 24.703125 23.78125 
L 21.578125 24.515625 
Q 13.234375 26.265625 9.515625 29.90625 
Q 5.8125 33.546875 5.8125 39.890625 
Q 5.8125 47.609375 11.28125 51.796875 
Q 16.75 56 26.8125 56 
Q 31.78125 56 36.171875 55.265625 
Q 40.578125 54.546875 44.28125 53.078125 
z
" id="DejaVuSans-115"/>
      <path d="M 56.203125 29.59375 
L 56.203125 25.203125 
L 14.890625 25.203125 
Q 15.484375 15.921875 20.484375 11.0625 
Q 25.484375 6.203125 34.421875 6.203125 
Q 39.59375 6.203125 44.453125 7.46875 
Q 49.3125 8.734375 54.109375 11.28125 
L 54.109375 2.78125 
Q 49.265625 0.734375 44.1875 -0.34375 
Q 39.109375 -1.421875 33.890625 -1.421875 
Q 20.796875 -1.421875 13.15625 6.1875 
Q 5.515625 13.8125 5.515625 26.8125 
Q 5.515625 40.234375 12.765625 48.109375 
Q 20.015625 56 32.328125 56 
Q 43.359375 56 49.78125 48.890625 
Q 56.203125 41.796875 56.203125 29.59375 
z
M 47.21875 32.234375 
Q 47.125 39.59375 43.09375 43.984375 
Q 39.0625 48.390625 32.421875 48.390625 
Q 24.90625 48.390625 20.390625 44.140625 
Q 15.875 39.890625 15.1875 32.171875 
z
" id="DejaVuSans-101"/>
     </defs>
     <g transform="translate(492.225313 59.237813)scale(0.14 -0.14)">
      <use xlink:href="#DejaVuSans-98"/>
      <use x="63.476562" xlink:href="#DejaVuSans-97"/>
      <use x="124.755859" xlink:href="#DejaVuSans-115"/>
      <use x="176.855469" xlink:href="#DejaVuSans-101"/>
     </g>
    </g>
    <g id="patch_6">
     <path d="M 453.025313 79.787188 
L 481.025313 79.787188 
L 481.025313 69.987188 
L 453.025313 69.987188 
z
" style="fill:#36a2eb;opacity:0.5;stroke:#36a2eb;stroke-linejoin:miter;"/>
    </g>
    <g id="text_2">
     <!-- new -->
     <defs>
      <path d="M 54.890625 33.015625 
L 54.890625 0 
L 45.90625 0 
L 45.90625 32.71875 
Q 45.90625 40.484375 42.875 44.328125 
Q 39.84375 48.1875 33.796875 48.1875 
Q 26.515625 48.1875 22.3125 43.546875 
Q 18.109375 38.921875 18.109375 30.90625 
L 18.109375 0 
L 9.078125 0 
L 9.078125 54.6875 
L 18.109375 54.6875 
L 18.109375 46.1875 
Q 21.34375 51.125 25.703125 53.5625 
Q 30.078125 56 35.796875 56 
Q 45.21875 56 50.046875 50.171875 
Q 54.890625 44.34375 54.890625 33.015625 
z
" id="DejaVuSans-110"/>
      <path d="M 4.203125 54.6875 
L 13.1875 54.6875 
L 24.421875 12.015625 
L 35.59375 54.6875 
L 46.1875 54.6875 
L 57.421875 12.015625 
L 68.609375 54.6875 
L 77.59375 54.6875 
L 63.28125 0 
L 52.6875 0 
L 40.921875 44.828125 
L 29.109375 0 
L 18.5 0 
z
" id="DejaVuSans-119"/>
     </defs>
     <g transform="translate(492.225313 79.787188)scale(0.14 -0.14)">
      <use xlink:href="#DejaVuSans-110"/>
      <use x="63.378906" xlink:href="#DejaVuSans-101"/>
      <use x="124.902344" xlink:href="#DejaVuSans-119"/>
     </g>
    </g>
   </g>
  </g>
  <g id="axes_2">
   <g id="patch_7">
    <path d="M 36 534.96 
L 538.2 534.96 
L 538.2 410.22 
L 36 410.22 
z
" style="fill:none;"/>
   </g>
   <g id="patch_8">
    <path clip-path="url(#pc20958007d)" d="M 188.713882 529.29 
L 403.563324 529.29 
L 403.563324 491.49 
L 188.713882 491.49 
z
" style="fill:#ff6384;opacity:0.5;"/>
   </g>
   <g id="patch_9">
    <path clip-path="url(#pc20958007d)" d="M 159.398705 453.69 
L 352.653615 453.69 
L 352.653615 415.89 
L 159.398705 415.89 
z
" style="fill:#36a2eb;opacity:0.5;"/>
   </g>
   <g id="matplotlib.axis_1">
    <g id="xtick_1">
     <g id="line2d_3">
      <defs>
       <path d="M 0 0 
L 0 3.5 
" id="m021db716b8" style="stroke:#000000;stroke-width:0.8;"/>
      </defs>
      <g>
       <use style="stroke:#000000;stroke-width:0.8;" x="81.744511" xlink:href="#m021db716b8" y="534.96"/>
      </g>
     </g>
     <g id="text_3">
      <!-- 4.5 -->
      <defs>
       <path d="M 37.796875 64.3125 
L 12.890625 25.390625 
L 37.796875 25.390625 
z
M 35.203125 72.90625 
L 47.609375 72.90625 
L 47.609375 25.390625 
L 58.015625 25.390625 
L 58.015625 17.1875 
L 47.609375 17.1875 
L 47.609375 0 
L 37.796875 0 
L 37.796875 17.1875 
L 4.890625 17.1875 
L 4.890625 26.703125 
z
" id="DejaVuSans-52"/>
       <path d="M 10.6875 12.40625 
L 21 12.40625 
L 21 0 
L 10.6875 0 
z
" id="DejaVuSans-46"/>
       <path d="M 10.796875 72.90625 
L 49.515625 72.90625 
L 49.515625 64.59375 
L 19.828125 64.59375 
L 19.828125 46.734375 
Q 21.96875 47.46875 24.109375 47.828125 
Q 26.265625 48.1875 28.421875 48.1875 
Q 40.625 48.1875 47.75 41.5 
Q 54.890625 34.8125 54.890625 23.390625 
Q 54.890625 11.625 47.5625 5.09375 
Q 40.234375 -1.421875 26.90625 -1.421875 
Q 22.3125 -1.421875 17.546875 -0.640625 
Q 12.796875 0.140625 7.71875 1.703125 
L 7.71875 11.625 
Q 12.109375 9.234375 16.796875 8.0625 
Q 21.484375 6.890625 26.703125 6.890625 
Q 35.15625 6.890625 40.078125 11.328125 
Q 45.015625 15.765625 45.015625 23.390625 
Q 45.015625 31 40.078125 35.4375 
Q 35.15625 39.890625 26.703125 39.890625 
Q 22.75 39.890625 18.8125 39.015625 
Q 14.890625 38.140625 10.796875 36.28125 
z
" id="DejaVuSans-53"/>
      </defs>
      <g transform="translate(70.612324 552.597813)scale(0.14 -0.14)">
       <use xlink:href="#DejaVuSans-52"/>
       <use x="63.623047" xlink:href="#DejaVuSans-46"/>
       <use x="95.410156" xlink:href="#DejaVuSans-53"/>
      </g>
     </g>
    </g>
    <g id="xtick_2">
     <g id="line2d_4">
      <g>
       <use style="stroke:#000000;stroke-width:0.8;" x="150.903896" xlink:href="#m021db716b8" y="534.96"/>
      </g>
     </g>
     <g id="text_4">
      <!-- 5.0 -->
      <defs>
       <path d="M 31.78125 66.40625 
Q 24.171875 66.40625 20.328125 58.90625 
Q 16.5 51.421875 16.5 36.375 
Q 16.5 21.390625 20.328125 13.890625 
Q 24.171875 6.390625 31.78125 6.390625 
Q 39.453125 6.390625 43.28125 13.890625 
Q 47.125 21.390625 47.125 36.375 
Q 47.125 51.421875 43.28125 58.90625 
Q 39.453125 66.40625 31.78125 66.40625 
z
M 31.78125 74.21875 
Q 44.046875 74.21875 50.515625 64.515625 
Q 56.984375 54.828125 56.984375 36.375 
Q 56.984375 17.96875 50.515625 8.265625 
Q 44.046875 -1.421875 31.78125 -1.421875 
Q 19.53125 -1.421875 13.0625 8.265625 
Q 6.59375 17.96875 6.59375 36.375 
Q 6.59375 54.828125 13.0625 64.515625 
Q 19.53125 74.21875 31.78125 74.21875 
z
" id="DejaVuSans-48"/>
      </defs>
      <g transform="translate(139.771708 552.597813)scale(0.14 -0.14)">
       <use xlink:href="#DejaVuSans-53"/>
       <use x="63.623047" xlink:href="#DejaVuSans-46"/>
       <use x="95.410156" xlink:href="#DejaVuSans-48"/>
      </g>
     </g>
    </g>
    <g id="xtick_3">
     <g id="line2d_5">
      <g>
       <use style="stroke:#000000;stroke-width:0.8;" x="220.06328" xlink:href="#m021db716b8" y="534.96"/>
      </g>
     </g>
     <g id="text_5">
      <!-- 5.5 -->
      <g transform="translate(208.931093 552.597813)scale(0.14 -0.14)">
       <use xlink:href="#DejaVuSans-53"/>
       <use x="63.623047" xlink:href="#DejaVuSans-46"/>
       <use x="95.410156" xlink:href="#DejaVuSans-53"/>
      </g>
     </g>
    </g>
    <g id="xtick_4">
     <g id="line2d_6">
      <g>
       <use style="stroke:#000000;stroke-width:0.8;" x="289.222664" xlink:href="#m021db716b8" y="534.96"/>
      </g>
     </g>
     <g id="text_6">
      <!-- 6.0 -->
      <defs>
       <path d="M 33.015625 40.375 
Q 26.375 40.375 22.484375 35.828125 
Q 18.609375 31.296875 18.609375 23.390625 
Q 18.609375 15.53125 22.484375 10.953125 
Q 26.375 6.390625 33.015625 6.390625 
Q 39.65625 6.390625 43.53125 10.953125 
Q 47.40625 15.53125 47.40625 23.390625 
Q 47.40625 31.296875 43.53125 35.828125 
Q 39.65625 40.375 33.015625 40.375 
z
M 52.59375 71.296875 
L 52.59375 62.3125 
Q 48.875 64.0625 45.09375 64.984375 
Q 41.3125 65.921875 37.59375 65.921875 
Q 27.828125 65.921875 22.671875 59.328125 
Q 17.53125 52.734375 16.796875 39.40625 
Q 19.671875 43.65625 24.015625 45.921875 
Q 28.375 48.1875 33.59375 48.1875 
Q 44.578125 48.1875 50.953125 41.515625 
Q 57.328125 34.859375 57.328125 23.390625 
Q 57.328125 12.15625 50.6875 5.359375 
Q 44.046875 -1.421875 33.015625 -1.421875 
Q 20.359375 -1.421875 13.671875 8.265625 
Q 6.984375 17.96875 6.984375 36.375 
Q 6.984375 53.65625 15.1875 63.9375 
Q 23.390625 74.21875 37.203125 74.21875 
Q 40.921875 74.21875 44.703125 73.484375 
Q 48.484375 72.75 52.59375 71.296875 
z
" id="DejaVuSans-54"/>
      </defs>
      <g transform="translate(278.090477 552.597813)scale(0.14 -0.14)">
       <use xlink:href="#DejaVuSans-54"/>
       <use x="63.623047" xlink:href="#DejaVuSans-46"/>
       <use x="95.410156" xlink:href="#DejaVuSans-48"/>
      </g>
     </g>
    </g>
    <g id="xtick_5">
     <g id="line2d_7">
      <g>
       <use style="stroke:#000000;stroke-width:0.8;" x="358.382049" xlink:href="#m021db716b8" y="534.96"/>
      </g>
     </g>
     <g id="text_7">
      <!-- 6.5 -->
      <g transform="translate(347.249861 552.597813)scale(0.14 -0.14)">
       <use xlink:href="#DejaVuSans-54"/>
       <use x="63.623047" xlink:href="#DejaVuSans-46"/>
       <use x="95.410156" xlink:href="#DejaVuSans-53"/>
      </g>
     </g>
    </g>
    <g id="xtick_6">
     <g id="line2d_8">
      <g>
       <use style="stroke:#000000;stroke-width:0.8;" x="427.541433" xlink:href="#m021db716b8" y="534.96"/>
      </g>
     </g>
     <g id="text_8">
      <!-- 7.0 -->
      <defs>
       <path d="M 8.203125 72.90625 
L 55.078125 72.90625 
L 55.078125 68.703125 
L 28.609375 0 
L 18.3125 0 
L 43.21875 64.59375 
L 8.203125 64.59375 
z
" id="DejaVuSans-55"/>
      </defs>
      <g transform="translate(416.409246 552.597813)scale(0.14 -0.14)">
       <use xlink:href="#DejaVuSans-55"/>
       <use x="63.623047" xlink:href="#DejaVuSans-46"/>
       <use x="95.410156" xlink:href="#DejaVuSans-48"/>
      </g>
     </g>
    </g>
    <g id="xtick_7">
     <g id="line2d_9">
      <g>
       <use style="stroke:#000000;stroke-width:0.8;" x="496.700817" xlink:href="#m021db716b8" y="534.96"/>
      </g>
     </g>
     <g id="text_9">
      <!-- 7.5 -->
      <g transform="translate(485.56863 552.597813)scale(0.14 -0.14)">
       <use xlink:href="#DejaVuSans-55"/>
       <use x="63.623047" xlink:href="#DejaVuSans-46"/>
       <use x="95.410156" xlink:href="#DejaVuSans-53"/>
      </g>
     </g>
    </g>
   </g>
   <g id="line2d_10">
    <path clip-path="url(#pc20958007d)" d="M 296.138603 534.96 
L 296.138603 410.22 
" style="fill:none;stroke:#ff6384;stroke-dasharray:5.55,2.4;stroke-dashoffset:0;stroke-opacity:0.8;stroke-width:1.5;"/>
   </g>
   <g id="line2d_11">
    <path clip-path="url(#pc20958007d)" d="M 256.02616 534.96 
L 256.02616 410.22 
" style="fill:none;stroke:#36a2eb;stroke-dasharray:5.55,2.4;stroke-dashoffset:0;stroke-opacity:0.8;stroke-width:1.5;"/>
   </g>
   <g id="patch_10">
    <path d="M 36 534.96 
L 538.2 534.96 
" style="fill:none;stroke:#000000;stroke-linecap:square;stroke-linejoin:miter;stroke-width:0.8;"/>
   </g>
  </g>
 </g>
 <defs>
  <clipPath id="pbdc0c072e2">
   <rect height="374.22" width="502.2" x="36" y="36"/>
  </clipPath>
  <clipPath id="pc20958007d">
   <rect height="124.74" width="502.2" x="36" y="410.22"/>
  </clipPath>
 </defs>
</svg>
