<?xml version="1.0" encoding="utf-8" standalone="no"?>
<!DOCTYPE svg PUBLIC "-//W3C//DTD SVG 1.1//EN"
  "http://www.w3.org/Graphics/SVG/1.1/DTD/svg11.dtd">
<!-- Created with matplotlib (https://matplotlib.org/) -->
<svg height="581.789375pt" version="1.1" viewBox="0 0 574.2 581.789375" width="574.2pt" xmlns="http://www.w3.org/2000/svg" xmlns:xlink="http://www.w3.org/1999/xlink">
 <defs>
  <style type="text/css">
*{stroke-linecap:butt;stroke-linejoin:round;}
  </style>
 </defs>
 <g id="figure_1">
  <g id="patch_1">
   <path d="M 0 581.789375 
L 574.2 581.789375 
L 574.2 0 
L 0 0 
z
" style="fill:none;"/>
  </g>
  <g id="axes_1">
   <g id="patch_2">
    <path d="M 36 402.93 
L 538.2 402.93 
L 538.2 36 
L 36 36 
z
" style="fill:none;"/>
   </g>
   <g id="PolyCollection_1">
    <defs>
     <path d="M 77.485743 -195.538011 
L 77.485743 -195.638482 
L 81.908843 -195.676368 
L 86.331944 -195.7273 
L 90.755045 -195.795295 
L 95.178146 -195.885439 
L 99.601247 -196.004113 
L 104.024348 -196.159254 
L 108.447449 -196.360643 
L 112.870549 -196.620228 
L 117.29365 -196.952459 
L 121.716751 -197.37465 
L 126.139852 -197.907336 
L 130.562953 -198.574625 
L 134.986054 -199.404516 
L 139.409155 -200.429168 
L 143.832255 -201.68509 
L 148.255356 -203.213217 
L 152.678457 -205.058854 
L 157.101558 -207.271436 
L 161.524659 -209.904092 
L 165.94776 -213.012959 
L 170.370861 -216.656243 
L 174.793961 -220.892993 
L 179.217062 -225.781587 
L 183.640163 -231.377932 
L 188.063264 -237.733403 
L 192.486365 -244.892549 
L 196.909466 -252.890628 
L 201.332567 -261.751042 
L 205.755667 -271.482765 
L 210.178768 -282.077867 
L 214.601869 -293.509259 
L 219.02497 -305.728774 
L 223.448071 -318.665726 
L 227.871172 -332.226056 
L 232.294273 -346.292177 
L 236.717373 -360.723615 
L 241.140474 -375.35849 
L 245.563575 -390.015878 
L 249.986676 -404.49904 
L 254.409777 -418.599446 
L 258.832878 -432.101528 
L 263.255979 -444.787986 
L 267.679079 -456.445509 
L 272.10218 -466.870674 
L 276.525281 -475.875819 
L 280.948382 -483.29465 
L 285.371483 -488.987333 
L 289.794584 -492.844884 
L 294.217685 -494.792634 
L 298.640785 -494.792634 
L 303.063886 -492.844884 
L 307.486987 -488.987333 
L 311.910088 -483.29465 
L 316.333189 -475.875819 
L 320.75629 -466.870674 
L 325.179391 -456.445509 
L 329.602491 -444.787986 
L 334.025592 -432.101528 
L 338.448693 -418.599446 
L 342.871794 -404.49904 
L 347.294895 -390.015878 
L 351.717996 -375.35849 
L 356.141096 -360.723615 
L 360.564197 -346.292177 
L 364.987298 -332.226056 
L 369.410399 -318.665726 
L 373.8335 -305.728774 
L 378.256601 -293.509259 
L 382.679702 -282.077867 
L 387.102802 -271.482765 
L 391.525903 -261.751042 
L 395.949004 -252.890628 
L 400.372105 -244.892549 
L 404.795206 -237.733403 
L 409.218307 -231.377932 
L 413.641408 -225.781587 
L 418.064508 -220.892993 
L 422.487609 -216.656243 
L 426.91071 -213.012959 
L 431.333811 -209.904092 
L 435.756912 -207.271436 
L 440.180013 -205.058854 
L 444.603114 -203.213217 
L 449.026214 -201.68509 
L 453.449315 -200.429168 
L 457.872416 -199.404516 
L 462.295517 -198.574625 
L 466.718618 -197.907336 
L 471.141719 -197.37465 
L 475.56482 -196.952459 
L 479.98792 -196.620228 
L 484.411021 -196.360643 
L 488.834122 -196.159254 
L 493.257223 -196.004113 
L 497.680324 -195.885439 
L 502.103425 -195.795295 
L 506.526526 -195.7273 
L 510.949626 -195.676368 
L 515.372727 -195.638482 
L 515.372727 -195.538011 
L 515.372727 -195.538011 
L 510.949626 -195.538011 
L 506.526526 -195.538011 
L 502.103425 -195.538011 
L 497.680324 -195.538011 
L 493.257223 -195.538011 
L 488.834122 -195.538011 
L 484.411021 -195.538011 
L 479.98792 -195.538011 
L 475.56482 -195.538011 
L 471.141719 -195.538011 
L 466.718618 -195.538011 
L 462.295517 -195.538011 
L 457.872416 -195.538011 
L 453.449315 -195.538011 
L 449.026214 -195.538011 
L 444.603114 -195.538011 
L 440.180013 -195.538011 
L 435.756912 -195.538011 
L 431.333811 -195.538011 
L 426.91071 -195.538011 
L 422.487609 -195.538011 
L 418.064508 -195.538011 
L 413.641408 -195.538011 
L 409.218307 -195.538011 
L 404.795206 -195.538011 
L 400.372105 -195.538011 
L 395.949004 -195.538011 
L 391.525903 -195.538011 
L 387.102802 -195.538011 
L 382.679702 -195.538011 
L 378.256601 -195.538011 
L 373.8335 -195.538011 
L 369.410399 -195.538011 
L 364.987298 -195.538011 
L 360.564197 -195.538011 
L 356.141096 -195.538011 
L 351.717996 -195.538011 
L 347.294895 -195.538011 
L 342.871794 -195.538011 
L 338.448693 -195.538011 
L 334.025592 -195.538011 
L 329.602491 -195.538011 
L 325.179391 -195.538011 
L 320.75629 -195.538011 
L 316.333189 -195.538011 
L 311.910088 -195.538011 
L 307.486987 -195.538011 
L 303.063886 -195.538011 
L 298.640785 -195.538011 
L 294.217685 -195.538011 
L 289.794584 -195.538011 
L 285.371483 -195.538011 
L 280.948382 -195.538011 
L 276.525281 -195.538011 
L 272.10218 -195.538011 
L 267.679079 -195.538011 
L 263.255979 -195.538011 
L 258.832878 -195.538011 
L 254.409777 -195.538011 
L 249.986676 -195.538011 
L 245.563575 -195.538011 
L 241.140474 -195.538011 
L 236.717373 -195.538011 
L 232.294273 -195.538011 
L 227.871172 -195.538011 
L 223.448071 -195.538011 
L 219.02497 -195.538011 
L 214.601869 -195.538011 
L 210.178768 -195.538011 
L 205.755667 -195.538011 
L 201.332567 -195.538011 
L 196.909466 -195.538011 
L 192.486365 -195.538011 
L 188.063264 -195.538011 
L 183.640163 -195.538011 
L 179.217062 -195.538011 
L 174.793961 -195.538011 
L 170.370861 -195.538011 
L 165.94776 -195.538011 
L 161.524659 -195.538011 
L 157.101558 -195.538011 
L 152.678457 -195.538011 
L 148.255356 -195.538011 
L 143.832255 -195.538011 
L 139.409155 -195.538011 
L 134.986054 -195.538011 
L 130.562953 -195.538011 
L 126.139852 -195.538011 
L 121.716751 -195.538011 
L 117.29365 -195.538011 
L 112.870549 -195.538011 
L 108.447449 -195.538011 
L 104.024348 -195.538011 
L 99.601247 -195.538011 
L 95.178146 -195.538011 
L 90.755045 -195.538011 
L 86.331944 -195.538011 
L 81.908843 -195.538011 
L 77.485743 -195.538011 
z
" id="m7c39f38e2c" style="stroke:#ff6384;stroke-opacity:0.5;"/>
    </defs>
    <g clip-path="url(#p72ee9113d3)">
     <use style="fill:#ff6384;fill-opacity:0.5;stroke:#ff6384;stroke-opacity:0.5;" x="0" xlink:href="#m7c39f38e2c" y="581.789375"/>
    </g>
   </g>
   <g id="PolyCollection_2">
    <defs>
     <path d="M 58.827273 -195.538011 
L 58.827273 -195.650004 
L 62.795323 -195.692234 
L 66.763373 -195.749007 
L 70.731424 -195.8248 
L 74.699474 -195.925281 
L 78.667524 -196.057565 
L 82.635575 -196.230497 
L 86.603625 -196.454982 
L 90.571676 -196.744335 
L 94.539726 -197.114666 
L 98.507776 -197.585273 
L 102.475827 -198.179047 
L 106.443877 -198.922859 
L 110.411927 -199.847921 
L 114.379978 -200.990079 
L 118.348028 -202.390029 
L 122.316078 -204.093399 
L 126.284129 -206.150691 
L 130.252179 -208.617009 
L 134.220229 -211.551575 
L 138.18828 -215.016962 
L 142.15633 -219.078053 
L 146.124381 -223.800667 
L 150.092431 -229.249878 
L 154.060481 -235.488004 
L 158.028532 -242.572312 
L 161.996582 -250.552459 
L 165.964632 -259.467747 
L 169.932683 -269.344261 
L 173.900733 -280.192004 
L 177.868783 -292.002137 
L 181.836834 -304.744465 
L 185.804884 -318.365297 
L 189.772934 -332.785841 
L 193.740985 -347.901251 
L 197.709035 -363.580456 
L 201.677085 -379.666871 
L 205.645136 -395.980052 
L 209.613186 -412.31833 
L 213.581237 -428.4624 
L 217.549287 -444.179822 
L 221.517337 -459.230303 
L 225.485388 -473.371627 
L 229.453438 -486.366018 
L 233.421488 -497.986726 
L 237.389539 -508.02457 
L 241.357589 -516.294181 
L 245.325639 -522.639693 
L 249.29369 -526.939623 
L 253.26174 -529.110739 
L 257.22979 -529.110739 
L 261.197841 -526.939623 
L 265.165891 -522.639693 
L 269.133941 -516.294181 
L 273.101992 -508.02457 
L 277.070042 -497.986726 
L 281.038093 -486.366018 
L 285.006143 -473.371627 
L 288.974193 -459.230303 
L 292.942244 -444.179822 
L 296.910294 -428.4624 
L 300.878344 -412.31833 
L 304.846395 -395.980052 
L 308.814445 -379.666871 
L 312.782495 -363.580456 
L 316.750546 -347.901251 
L 320.718596 -332.785841 
L 324.686646 -318.365297 
L 328.654697 -304.744465 
L 332.622747 -292.002137 
L 336.590797 -280.192004 
L 340.558848 -269.344261 
L 344.526898 -259.467747 
L 348.494949 -250.552459 
L 352.462999 -242.572312 
L 356.431049 -235.488004 
L 360.3991 -229.249878 
L 364.36715 -223.800667 
L 368.3352 -219.078053 
L 372.303251 -215.016962 
L 376.271301 -211.551575 
L 380.239351 -208.617009 
L 384.207402 -206.150691 
L 388.175452 -204.093399 
L 392.143502 -202.390029 
L 396.111553 -200.990079 
L 400.079603 -199.847921 
L 404.047653 -198.922859 
L 408.015704 -198.179047 
L 411.983754 -197.585273 
L 415.951805 -197.114666 
L 419.919855 -196.744335 
L 423.887905 -196.454982 
L 427.855956 -196.230497 
L 431.824006 -196.057565 
L 435.792056 -195.925281 
L 439.760107 -195.8248 
L 443.728157 -195.749007 
L 447.696207 -195.692234 
L 451.664258 -195.650004 
L 451.664258 -195.538011 
L 451.664258 -195.538011 
L 447.696207 -195.538011 
L 443.728157 -195.538011 
L 439.760107 -195.538011 
L 435.792056 -195.538011 
L 431.824006 -195.538011 
L 427.855956 -195.538011 
L 423.887905 -195.538011 
L 419.919855 -195.538011 
L 415.951805 -195.538011 
L 411.983754 -195.538011 
L 408.015704 -195.538011 
L 404.047653 -195.538011 
L 400.079603 -195.538011 
L 396.111553 -195.538011 
L 392.143502 -195.538011 
L 388.175452 -195.538011 
L 384.207402 -195.538011 
L 380.239351 -195.538011 
L 376.271301 -195.538011 
L 372.303251 -195.538011 
L 368.3352 -195.538011 
L 364.36715 -195.538011 
L 360.3991 -195.538011 
L 356.431049 -195.538011 
L 352.462999 -195.538011 
L 348.494949 -195.538011 
L 344.526898 -195.538011 
L 340.558848 -195.538011 
L 336.590797 -195.538011 
L 332.622747 -195.538011 
L 328.654697 -195.538011 
L 324.686646 -195.538011 
L 320.718596 -195.538011 
L 316.750546 -195.538011 
L 312.782495 -195.538011 
L 308.814445 -195.538011 
L 304.846395 -195.538011 
L 300.878344 -195.538011 
L 296.910294 -195.538011 
L 292.942244 -195.538011 
L 288.974193 -195.538011 
L 285.006143 -195.538011 
L 281.038093 -195.538011 
L 277.070042 -195.538011 
L 273.101992 -195.538011 
L 269.133941 -195.538011 
L 265.165891 -195.538011 
L 261.197841 -195.538011 
L 257.22979 -195.538011 
L 253.26174 -195.538011 
L 249.29369 -195.538011 
L 245.325639 -195.538011 
L 241.357589 -195.538011 
L 237.389539 -195.538011 
L 233.421488 -195.538011 
L 229.453438 -195.538011 
L 225.485388 -195.538011 
L 221.517337 -195.538011 
L 217.549287 -195.538011 
L 213.581237 -195.538011 
L 209.613186 -195.538011 
L 205.645136 -195.538011 
L 201.677085 -195.538011 
L 197.709035 -195.538011 
L 193.740985 -195.538011 
L 189.772934 -195.538011 
L 185.804884 -195.538011 
L 181.836834 -195.538011 
L 177.868783 -195.538011 
L 173.900733 -195.538011 
L 169.932683 -195.538011 
L 165.964632 -195.538011 
L 161.996582 -195.538011 
L 158.028532 -195.538011 
L 154.060481 -195.538011 
L 150.092431 -195.538011 
L 146.124381 -195.538011 
L 142.15633 -195.538011 
L 138.18828 -195.538011 
L 134.220229 -195.538011 
L 130.252179 -195.538011 
L 126.284129 -195.538011 
L 122.316078 -195.538011 
L 118.348028 -195.538011 
L 114.379978 -195.538011 
L 110.411927 -195.538011 
L 106.443877 -195.538011 
L 102.475827 -195.538011 
L 98.507776 -195.538011 
L 94.539726 -195.538011 
L 90.571676 -195.538011 
L 86.603625 -195.538011 
L 82.635575 -195.538011 
L 78.667524 -195.538011 
L 74.699474 -195.538011 
L 70.731424 -195.538011 
L 66.763373 -195.538011 
L 62.795323 -195.538011 
L 58.827273 -195.538011 
z
" id="m384292b7ce" style="stroke:#36a2eb;stroke-opacity:0.5;"/>
    </defs>
    <g clip-path="url(#p72ee9113d3)">
     <use style="fill:#36a2eb;fill-opacity:0.5;stroke:#36a2eb;stroke-opacity:0.5;" x="0" xlink:href="#m384292b7ce" y="581.789375"/>
    </g>
   </g>
   <g id="line2d_1">
    <path clip-path="url(#p72ee9113d3)" d="M 77.485743 386.150893 
L 81.908843 386.113007 
L 86.331944 386.062075 
L 90.755045 385.99408 
L 95.178146 385.903936 
L 99.601247 385.785262 
L 104.024348 385.630121 
L 108.447449 385.428732 
L 112.870549 385.169147 
L 117.29365 384.836916 
L 121.716751 384.414725 
L 126.139852 383.882039 
L 130.562953 383.21475 
L 134.986054 382.384859 
L 139.409155 381.360207 
L 143.832255 380.104285 
L 148.255356 378.576158 
L 152.678457 376.730521 
L 157.101558 374.517939 
L 161.524659 371.885283 
L 165.94776 368.776416 
L 170.370861 365.133132 
L 174.793961 360.896382 
L 179.217062 356.007788 
L 183.640163 350.411443 
L 188.063264 344.055972 
L 192.486365 336.896826 
L 196.909466 328.898747 
L 201.332567 320.038333 
L 205.755667 310.30661 
L 210.178768 299.711508 
L 214.601869 288.280116 
L 219.02497 276.060601 
L 223.448071 263.123649 
L 227.871172 249.563319 
L 232.294273 235.497198 
L 236.717373 221.06576 
L 241.140474 206.430885 
L 245.563575 191.773497 
L 249.986676 177.290335 
L 254.409777 163.189929 
L 258.832878 149.687847 
L 263.255979 137.001389 
L 267.679079 125.343866 
L 272.10218 114.918701 
L 276.525281 105.913556 
L 280.948382 98.494725 
L 285.371483 92.802042 
L 289.794584 88.944491 
L 294.217685 86.996741 
L 298.640785 86.996741 
L 303.063886 88.944491 
L 307.486987 92.802042 
L 311.910088 98.494725 
L 316.333189 105.913556 
L 320.75629 114.918701 
L 325.179391 125.343866 
L 329.602491 137.001389 
L 334.025592 149.687847 
L 338.448693 163.189929 
L 342.871794 177.290335 
L 347.294895 191.773497 
L 351.717996 206.430885 
L 356.141096 221.06576 
L 360.564197 235.497198 
L 364.987298 249.563319 
L 369.410399 263.123649 
L 373.8335 276.060601 
L 378.256601 288.280116 
L 382.679702 299.711508 
L 387.102802 310.30661 
L 391.525903 320.038333 
L 395.949004 328.898747 
L 400.372105 336.896826 
L 404.795206 344.055972 
L 409.218307 350.411443 
L 413.641408 356.007788 
L 418.064508 360.896382 
L 422.487609 365.133132 
L 426.91071 368.776416 
L 431.333811 371.885283 
L 435.756912 374.517939 
L 440.180013 376.730521 
L 444.603114 378.576158 
L 449.026214 380.104285 
L 453.449315 381.360207 
L 457.872416 382.384859 
L 462.295517 383.21475 
L 466.718618 383.882039 
L 471.141719 384.414725 
L 475.56482 384.836916 
L 479.98792 385.169147 
L 484.411021 385.428732 
L 488.834122 385.630121 
L 493.257223 385.785262 
L 497.680324 385.903936 
L 502.103425 385.99408 
L 506.526526 386.062075 
L 510.949626 386.113007 
L 515.372727 386.150893 
" style="fill:none;stroke:#ff6384;stroke-linecap:square;"/>
   </g>
   <g id="line2d_2">
    <path clip-path="url(#p72ee9113d3)" d="M 58.827273 386.139371 
L 62.795323 386.097141 
L 66.763373 386.040368 
L 70.731424 385.964575 
L 74.699474 385.864094 
L 78.667524 385.73181 
L 82.635575 385.558878 
L 86.603625 385.334393 
L 90.571676 385.04504 
L 94.539726 384.674709 
L 98.507776 384.204102 
L 102.475827 383.610328 
L 106.443877 382.866516 
L 110.411927 381.941454 
L 114.379978 380.799296 
L 118.348028 379.399346 
L 122.316078 377.695976 
L 126.284129 375.638684 
L 130.252179 373.172366 
L 134.220229 370.2378 
L 138.18828 366.772413 
L 142.15633 362.711322 
L 146.124381 357.988708 
L 150.092431 352.539497 
L 154.060481 346.301371 
L 158.028532 339.217063 
L 161.996582 331.236916 
L 165.964632 322.321628 
L 169.932683 312.445114 
L 173.900733 301.597371 
L 177.868783 289.787238 
L 181.836834 277.04491 
L 185.804884 263.424078 
L 189.772934 249.003534 
L 193.740985 233.888124 
L 197.709035 218.208919 
L 201.677085 202.122504 
L 205.645136 185.809323 
L 209.613186 169.471045 
L 213.581237 153.326975 
L 217.549287 137.609553 
L 221.517337 122.559072 
L 225.485388 108.417748 
L 229.453438 95.423357 
L 233.421488 83.802649 
L 237.389539 73.764805 
L 241.357589 65.495194 
L 245.325639 59.149682 
L 249.29369 54.849752 
L 253.26174 52.678636 
L 257.22979 52.678636 
L 261.197841 54.849752 
L 265.165891 59.149682 
L 269.133941 65.495194 
L 273.101992 73.764805 
L 277.070042 83.802649 
L 281.038093 95.423357 
L 285.006143 108.417748 
L 288.974193 122.559072 
L 292.942244 137.609553 
L 296.910294 153.326975 
L 300.878344 169.471045 
L 304.846395 185.809323 
L 308.814445 202.122504 
L 312.782495 218.208919 
L 316.750546 233.888124 
L 320.718596 249.003534 
L 324.686646 263.424078 
L 328.654697 277.04491 
L 332.622747 289.787238 
L 336.590797 301.597371 
L 340.558848 312.445114 
L 344.526898 322.321628 
L 348.494949 331.236916 
L 352.462999 339.217063 
L 356.431049 346.301371 
L 360.3991 352.539497 
L 364.36715 357.988708 
L 368.3352 362.711322 
L 372.303251 366.772413 
L 376.271301 370.2378 
L 380.239351 373.172366 
L 384.207402 375.638684 
L 388.175452 377.695976 
L 392.143502 379.399346 
L 396.111553 380.799296 
L 400.079603 381.941454 
L 404.047653 382.866516 
L 408.015704 383.610328 
L 411.983754 384.204102 
L 415.951805 384.674709 
L 419.919855 385.04504 
L 423.887905 385.334393 
L 427.855956 385.558878 
L 431.824006 385.73181 
L 435.792056 385.864094 
L 439.760107 385.964575 
L 443.728157 386.040368 
L 447.696207 386.097141 
L 451.664258 386.139371 
" style="fill:none;stroke:#36a2eb;stroke-linecap:square;"/>
   </g>
   <g id="patch_3">
    <path d="M 36 402.93 
L 538.2 402.93 
" style="fill:none;stroke:#000000;stroke-linecap:square;stroke-linejoin:miter;stroke-width:0.8;"/>
   </g>
   <g id="legend_1">
    <g id="patch_4">
     <path d="M 450.225313 88.29875 
L 528.4 88.29875 
Q 531.2 88.29875 531.2 85.49875 
L 531.2 45.8 
Q 531.2 43 528.4 43 
L 450.225313 43 
Q 447.425313 43 447.425313 45.8 
L 447.425313 85.49875 
Q 447.425313 88.29875 450.225313 88.29875 
z
" style="fill:#ffffff;opacity:0.8;stroke:#cccccc;stroke-linejoin:miter;"/>
    </g>
    <g id="patch_5">
     <path d="M 453.025313 59.237813 
L 481.025313 59.237813 
L 481.025313 49.437813 
L 453.025313 49.437813 
z
" style="fill:#ff6384;opacity:0.5;stroke:#ff6384;stroke-linejoin:miter;"/>
    </g>
    <g id="text_1">
     <!-- base -->
     <defs>
      <path d="M 48.6875 27.296875 
Q 48.6875 37.203125 44.609375 42.84375 
Q 40.53125 48.484375 33.40625 48.484375 
Q 26.265625 48.484375 22.1875 42.84375 
Q 18.109375 37.203125 18.109375 27.296875 
Q 18.109375 17.390625 22.1875 11.75 
Q 26.265625 6.109375 33.40625 6.109375 
Q 40.53125 6.109375 44.609375 11.75 
Q 48.6875 17.390625 48.6875 27.296875 
z
M 18.109375 46.390625 
Q 20.953125 51.265625 25.265625 53.625 
Q 29.59375 56 35.59375 56 
Q 45.5625 56 51.78125 48.09375 
Q 58.015625 40.1875 58.015625 27.296875 
Q 58.015625 14.40625 51.78125 6.484375 
Q 45.5625 -1.421875 35.59375 -1.421875 
Q 29.59375 -1.421875 25.265625 0.953125 
Q 20.953125 3.328125 18.109375 8.203125 
L 18.109375 0 
L 9.078125 0 
L 9.078125 75.984375 
L 18.109375 75.984375 
z
" id="DejaVuSans-98"/>
      <path d="M 34.28125 27.484375 
Q 23.390625 27.484375 19.1875 25 
Q 14.984375 22.515625 14.984375 16.5 
Q 14.984375 11.71875 18.140625 8.90625 
Q 21.296875 6.109375 26.703125 6.109375 
Q 34.1875 6.109375 38.703125 11.40625 
Q 43.21875 16.703125 43.21875 25.484375 
L 43.21875 27.484375 
z
M 52.203125 31.203125 
L 52.203125 0 
L 43.21875 0 
L 43.21875 8.296875 
Q 40.140625 3.328125 35.546875 0.953125 
Q 30.953125 -1.421875 24.3125 -1.421875 
Q 15.921875 -1.421875 10.953125 3.296875 
Q 6 8.015625 6 15.921875 
Q 6 25.140625 12.171875 29.828125 
Q 18.359375 34.515625 30.609375 34.515625 
L 43.21875 34.515625 
L 43.21875 35.40625 
Q 43.21875 41.609375 39.140625 45 
Q 35.0625 48.390625 27.6875 48.390625 
Q 23 48.390625 18.546875 47.265625 
Q 14.109375 46.140625 10.015625 43.890625 
L 10.015625 52.203125 
Q 14.9375 54.109375 19.578125 55.046875 
Q 24.21875 56 28.609375 56 
Q 40.484375 56 46.34375 49.84375 
Q 52.203125 43.703125 52.203125 31.203125 
z
" id="DejaVuSans-97"/>
      <path d="M 44.28125 53.078125 
L 44.28125 44.578125 
Q 40.484375 46.53125 36.375 47.5 
Q 32.28125 48.484375 27.875 48.484375 
Q 21.1875 48.484375 17.84375 46.4375 
Q 14.5 44.390625 14.5 40.28125 
Q 14.5 37.15625 16.890625 35.375 
Q 19.28125 33.59375 26.515625 31.984375 
L 29.59375 31.296875 
Q 39.15625 29.25 43.1875 25.515625 
Q 47.21875 21.78125 47.21875 15.09375 
Q 47.21875 7.46875 41.1875 3.015625 
Q 35.15625 -1.421875 24.609375 -1.421875 
Q 20.21875 -1.421875 15.453125 -0.5625 
Q 10.6875 0.296875 5.421875 2 
L 5.421875 11.28125 
Q 10.40625 8.6875 15.234375 7.390625 
Q 20.0625 6.109375 24.8125 6.109375 
Q 31.15625 6.109375 34.5625 8.28125 
Q 37.984375 10.453125 37.984375 14.40625 
Q 37.984375 18.0625 35.515625 20.015625 
Q 33.0625 21.96875 24.703125 23.78125 
L 21.578125 24.515625 
Q 13.234375 26.265625 9.515625 29.90625 
Q 5.8125 33.546875 5.8125 39.890625 
Q 5.8125 47.609375 11.28125 51.796875 
Q 16.75 56 26.8125 56 
Q 31.78125 56 36.171875 55.265625 
Q 40.578125 54.546875 44.28125 53.078125 
z
" id="DejaVuSans-115"/>
      <path d="M 56.203125 29.59375 
L 56.203125 25.203125 
L 14.890625 25.203125 
Q 15.484375 15.921875 20.484375 11.0625 
Q 25.484375 6.203125 34.421875 6.203125 
Q 39.59375 6.203125 44.453125 7.46875 
Q 49.3125 8.734375 54.109375 11.28125 
L 54.109375 2.78125 
Q 49.265625 0.734375 44.1875 -0.34375 
Q 39.109375 -1.421875 33.890625 -1.421875 
Q 20.796875 -1.421875 13.15625 6.1875 
Q 5.515625 13.8125 5.515625 26.8125 
Q 5.515625 40.234375 12.765625 48.109375 
Q 20.015625 56 32.328125 56 
Q 43.359375 56 49.78125 48.890625 
Q 56.203125 41.796875 56.203125 29.59375 
z
M 47.21875 32.234375 
Q 47.125 39.59375 43.09375 43.984375 
Q 39.0625 48.390625 32.421875 48.390625 
Q 24.90625 48.390625 20.390625 44.140625 
Q 15.875 39.890625 15.1875 32.171875 
z
" id="DejaVuSans-101"/>
     </defs>
     <g transform="translate(492.225313 59.237813)scale(0.14 -0.14)">
      <use xlink:href="#DejaVuSans-98"/>
      <use x="63.476562" xlink:href="#DejaVuSans-97"/>
      <use x="124.755859" xlink:href="#DejaVuSans-115"/>
      <use x="176.855469" xlink:href="#DejaVuSans-101"/>
     </g>
    </g>
    <g id="patch_6">
     <path d="M 453.025313 79.787188 
L 481.025313 79.787188 
L 481.025313 69.987188 
L 453.025313 69.987188 
z
" style="fill:#36a2eb;opacity:0.5;stroke:#36a2eb;stroke-linejoin:miter;"/>
    </g>
    <g id="text_2">
     <!-- new -->
     <defs>
      <path d="M 54.890625 33.015625 
L 54.890625 0 
L 45.90625 0 
L 45.90625 32.71875 
Q 45.90625 40.484375 42.875 44.328125 
Q 39.84375 48.1875 33.796875 48.1875 
Q 26.515625 48.1875 22.3125 43.546875 
Q 18.109375 38.921875 18.109375 30.90625 
L 18.109375 0 
L 9.078125 0 
L 9.078125 54.6875 
L 18.109375 54.6875 
L 18.109375 46.1875 
Q 21.34375 51.125 25.703125 53.5625 
Q 30.078125 56 35.796875 56 
Q 45.21875 56 50.046875 50.171875 
Q 54.890625 44.34375 54.890625 33.015625 
z
" id="DejaVuSans-110"/>
      <path d="M 4.203125 54.6875 
L 13.1875 54.6875 
L 24.421875 12.015625 
L 35.59375 54.6875 
L 46.1875 54.6875 
L 57.421875 12.015625 
L 68.609375 54.6875 
L 77.59375 54.6875 
L 63.28125 0 
L 52.6875 0 
L 40.921875 44.828125 
L 29.109375 0 
L 18.5 0 
z
" id="DejaVuSans-119"/>
     </defs>
     <g transform="translate(492.225313 79.787188)scale(0.14 -0.14)">
      <use xlink:href="#DejaVuSans-110"/>
      <use x="63.378906" xlink:href="#DejaVuSans-101"/>
      <use x="124.902344" xlink:href="#DejaVuSans-119"/>
     </g>
    </g>
   </g>
  </g>
  <g id="axes_2">
   <g id="patch_7">
    <path d="M 36 525.24 
L 538.2 525.24 
L 538.2 402.93 
L 36 402.93 
z
" style="fill:none;"/>
   </g>
   <g id="patch_8">
    <path clip-path="url(#pd608f5c134)" d="M 189.146924 519.680455 
L 403.711546 519.680455 
L 403.711546 482.616818 
L 189.146924 482.616818 
z
" style="fill:#ff6384;opacity:0.5;"/>
   </g>
   <g id="patch_9">
    <path clip-path="url(#pd608f5c134)" d="M 159.000704 445.553182 
L 351.490827 445.553182 
L 351.490827 408.489545 
L 159.000704 408.489545 
z
" style="fill:#36a2eb;opacity:0.5;"/>
   </g>
   <g id="matplotlib.axis_1">
    <g id="xtick_1">
     <g id="line2d_3">
      <defs>
       <path d="M 0 0 
L 0 3.5 
" id="me75a8abb5e" style="stroke:#000000;stroke-width:0.8;"/>
      </defs>
      <g>
       <use style="stroke:#000000;stroke-width:0.8;" x="72.665716" xlink:href="#me75a8abb5e" y="525.24"/>
      </g>
     </g>
     <g id="text_3">
      <!-- 4.5 -->
      <defs>
       <path d="M 37.796875 64.3125 
L 12.890625 25.390625 
L 37.796875 25.390625 
z
M 35.203125 72.90625 
L 47.609375 72.90625 
L 47.609375 25.390625 
L 58.015625 25.390625 
L 58.015625 17.1875 
L 47.609375 17.1875 
L 47.609375 0 
L 37.796875 0 
L 37.796875 17.1875 
L 4.890625 17.1875 
L 4.890625 26.703125 
z
" id="DejaVuSans-52"/>
       <path d="M 10.6875 12.40625 
L 21 12.40625 
L 21 0 
L 10.6875 0 
z
" id="DejaVuSans-46"/>
       <path d="M 10.796875 72.90625 
L 49.515625 72.90625 
L 49.515625 64.59375 
L 19.828125 64.59375 
L 19.828125 46.734375 
Q 21.96875 47.46875 24.109375 47.828125 
Q 26.265625 48.1875 28.421875 48.1875 
Q 40.625 48.1875 47.75 41.5 
Q 54.890625 34.8125 54.890625 23.390625 
Q 54.890625 11.625 47.5625 5.09375 
Q 40.234375 -1.421875 26.90625 -1.421875 
Q 22.3125 -1.421875 17.546875 -0.640625 
Q 12.796875 0.140625 7.71875 1.703125 
L 7.71875 11.625 
Q 12.109375 9.234375 16.796875 8.0625 
Q 21.484375 6.890625 26.703125 6.890625 
Q 35.15625 6.890625 40.078125 11.328125 
Q 45.015625 15.765625 45.015625 23.390625 
Q 45.015625 31 40.078125 35.4375 
Q 35.15625 39.890625 26.703125 39.890625 
Q 22.75 39.890625 18.8125 39.015625 
Q 14.890625 38.140625 10.796875 36.28125 
z
" id="DejaVuSans-53"/>
      </defs>
      <g transform="translate(61.533529 542.877813)scale(0.14 -0.14)">
       <use xlink:href="#DejaVuSans-52"/>
       <use x="63.623047" xlink:href="#DejaVuSans-46"/>
       <use x="95.410156" xlink:href="#DejaVuSans-53"/>
      </g>
     </g>
    </g>
    <g id="xtick_2">
     <g id="line2d_4">
      <g>
       <use style="stroke:#000000;stroke-width:0.8;" x="141.304832" xlink:href="#me75a8abb5e" y="525.24"/>
      </g>
     </g>
     <g id="text_4">
      <!-- 5.0 -->
      <defs>
       <path d="M 31.78125 66.40625 
Q 24.171875 66.40625 20.328125 58.90625 
Q 16.5 51.421875 16.5 36.375 
Q 16.5 21.390625 20.328125 13.890625 
Q 24.171875 6.390625 31.78125 6.390625 
Q 39.453125 6.390625 43.28125 13.890625 
Q 47.125 21.390625 47.125 36.375 
Q 47.125 51.421875 43.28125 58.90625 
Q 39.453125 66.40625 31.78125 66.40625 
z
M 31.78125 74.21875 
Q 44.046875 74.21875 50.515625 64.515625 
Q 56.984375 54.828125 56.984375 36.375 
Q 56.984375 17.96875 50.515625 8.265625 
Q 44.046875 -1.421875 31.78125 -1.421875 
Q 19.53125 -1.421875 13.0625 8.265625 
Q 6.59375 17.96875 6.59375 36.375 
Q 6.59375 54.828125 13.0625 64.515625 
Q 19.53125 74.21875 31.78125 74.21875 
z
" id="DejaVuSans-48"/>
      </defs>
      <g transform="translate(130.172645 542.877813)scale(0.14 -0.14)">
       <use xlink:href="#DejaVuSans-53"/>
       <use x="63.623047" xlink:href="#DejaVuSans-46"/>
       <use x="95.410156" xlink:href="#DejaVuSans-48"/>
      </g>
     </g>
    </g>
    <g id="xtick_3">
     <g id="line2d_5">
      <g>
       <use style="stroke:#000000;stroke-width:0.8;" x="209.943949" xlink:href="#me75a8abb5e" y="525.24"/>
      </g>
     </g>
     <g id="text_5">
      <!-- 5.5 -->
      <g transform="translate(198.811761 542.877813)scale(0.14 -0.14)">
       <use xlink:href="#DejaVuSans-53"/>
       <use x="63.623047" xlink:href="#DejaVuSans-46"/>
       <use x="95.410156" xlink:href="#DejaVuSans-53"/>
      </g>
     </g>
    </g>
    <g id="xtick_4">
     <g id="line2d_6">
      <g>
       <use style="stroke:#000000;stroke-width:0.8;" x="278.583065" xlink:href="#me75a8abb5e" y="525.24"/>
      </g>
     </g>
     <g id="text_6">
      <!-- 6.0 -->
      <defs>
       <path d="M 33.015625 40.375 
Q 26.375 40.375 22.484375 35.828125 
Q 18.609375 31.296875 18.609375 23.390625 
Q 18.609375 15.53125 22.484375 10.953125 
Q 26.375 6.390625 33.015625 6.390625 
Q 39.65625 6.390625 43.53125 10.953125 
Q 47.40625 15.53125 47.40625 23.390625 
Q 47.40625 31.296875 43.53125 35.828125 
Q 39.65625 40.375 33.015625 40.375 
z
M 52.59375 71.296875 
L 52.59375 62.3125 
Q 48.875 64.0625 45.09375 64.984375 
Q 41.3125 65.921875 37.59375 65.921875 
Q 27.828125 65.921875 22.671875 59.328125 
Q 17.53125 52.734375 16.796875 39.40625 
Q 19.671875 43.65625 24.015625 45.921875 
Q 28.375 48.1875 33.59375 48.1875 
Q 44.578125 48.1875 50.953125 41.515625 
Q 57.328125 34.859375 57.328125 23.390625 
Q 57.328125 12.15625 50.6875 5.359375 
Q 44.046875 -1.421875 33.015625 -1.421875 
Q 20.359375 -1.421875 13.671875 8.265625 
Q 6.984375 17.96875 6.984375 36.375 
Q 6.984375 53.65625 15.1875 63.9375 
Q 23.390625 74.21875 37.203125 74.21875 
Q 40.921875 74.21875 44.703125 73.484375 
Q 48.484375 72.75 52.59375 71.296875 
z
" id="DejaVuSans-54"/>
      </defs>
      <g transform="translate(267.450877 542.877813)scale(0.14 -0.14)">
       <use xlink:href="#DejaVuSans-54"/>
       <use x="63.623047" xlink:href="#DejaVuSans-46"/>
       <use x="95.410156" xlink:href="#DejaVuSans-48"/>
      </g>
     </g>
    </g>
    <g id="xtick_5">
     <g id="line2d_7">
      <g>
       <use style="stroke:#000000;stroke-width:0.8;" x="347.222181" xlink:href="#me75a8abb5e" y="525.24"/>
      </g>
     </g>
     <g id="text_7">
      <!-- 6.5 -->
      <g transform="translate(336.089993 542.877813)scale(0.14 -0.14)">
       <use xlink:href="#DejaVuSans-54"/>
       <use x="63.623047" xlink:href="#DejaVuSans-46"/>
       <use x="95.410156" xlink:href="#DejaVuSans-53"/>
      </g>
     </g>
    </g>
    <g id="xtick_6">
     <g id="line2d_8">
      <g>
       <use style="stroke:#000000;stroke-width:0.8;" x="415.861297" xlink:href="#me75a8abb5e" y="525.24"/>
      </g>
     </g>
     <g id="text_8">
      <!-- 7.0 -->
      <defs>
       <path d="M 8.203125 72.90625 
L 55.078125 72.90625 
L 55.078125 68.703125 
L 28.609375 0 
L 18.3125 0 
L 43.21875 64.59375 
L 8.203125 64.59375 
z
" id="DejaVuSans-55"/>
      </defs>
      <g transform="translate(404.72911 542.877813)scale(0.14 -0.14)">
       <use xlink:href="#DejaVuSans-55"/>
       <use x="63.623047" xlink:href="#DejaVuSans-46"/>
       <use x="95.410156" xlink:href="#DejaVuSans-48"/>
      </g>
     </g>
    </g>
    <g id="xtick_7">
     <g id="line2d_9">
      <g>
       <use style="stroke:#000000;stroke-width:0.8;" x="484.500413" xlink:href="#me75a8abb5e" y="525.24"/>
      </g>
     </g>
     <g id="text_9">
      <!-- 7.5 -->
      <g transform="translate(473.368226 542.877813)scale(0.14 -0.14)">
       <use xlink:href="#DejaVuSans-55"/>
       <use x="63.623047" xlink:href="#DejaVuSans-46"/>
       <use x="95.410156" xlink:href="#DejaVuSans-53"/>
      </g>
     </g>
    </g>
   </g>
   <g id="line2d_10">
    <path clip-path="url(#pd608f5c134)" d="M 296.429235 525.24 
L 296.429235 402.93 
" style="fill:none;stroke:#ff6384;stroke-dasharray:5.55,2.4;stroke-dashoffset:0;stroke-opacity:0.8;stroke-width:1.5;"/>
   </g>
   <g id="line2d_11">
    <path clip-path="url(#pd608f5c134)" d="M 255.245765 525.24 
L 255.245765 402.93 
" style="fill:none;stroke:#36a2eb;stroke-dasharray:5.55,2.4;stroke-dashoffset:0;stroke-opacity:0.8;stroke-width:1.5;"/>
   </g>
   <g id="patch_10">
    <path d="M 36 525.24 
L 538.2 525.24 
" style="fill:none;stroke:#000000;stroke-linecap:square;stroke-linejoin:miter;stroke-width:0.8;"/>
   </g>
  </g>
 </g>
 <defs>
  <clipPath id="p72ee9113d3">
   <rect height="366.93" width="502.2" x="36" y="36"/>
  </clipPath>
  <clipPath id="pd608f5c134">
   <rect height="122.31" width="502.2" x="36" y="402.93"/>
  </clipPath>
 </defs>
</svg>
