<?xml version="1.0" encoding="utf-8" standalone="no"?>
<!DOCTYPE svg PUBLIC "-//W3C//DTD SVG 1.1//EN"
  "http://www.w3.org/Graphics/SVG/1.1/DTD/svg11.dtd">
<!-- Created with matplotlib (https://matplotlib.org/) -->
<svg height="581.789375pt" version="1.1" viewBox="0 0 574.2 581.789375" width="574.2pt" xmlns="http://www.w3.org/2000/svg" xmlns:xlink="http://www.w3.org/1999/xlink">
 <defs>
  <style type="text/css">
*{stroke-linecap:butt;stroke-linejoin:round;}
  </style>
 </defs>
 <g id="figure_1">
  <g id="patch_1">
   <path d="M 0 581.789375 
L 574.2 581.789375 
L 574.2 0 
L 0 0 
z
" style="fill:none;"/>
  </g>
  <g id="axes_1">
   <g id="patch_2">
    <path d="M 36 402.93 
L 538.2 402.93 
L 538.2 36 
L 36 36 
z
" style="fill:none;"/>
   </g>
   <g id="PolyCollection_1">
    <defs>
     <path d="M 58.827273 -195.538011 
L 58.827273 -195.639478 
L 63.438843 -195.677739 
L 68.050413 -195.729175 
L 72.661983 -195.797844 
L 77.273554 -195.888881 
L 81.885124 -196.008731 
L 86.496694 -196.165409 
L 91.108264 -196.368794 
L 95.719835 -196.630951 
L 100.331405 -196.966474 
L 104.942975 -197.392848 
L 109.554545 -197.930812 
L 114.166116 -198.604713 
L 118.777686 -199.442827 
L 123.389256 -200.477632 
L 128.000826 -201.745998 
L 132.612397 -203.289267 
L 137.223967 -205.153191 
L 141.835537 -207.387696 
L 146.447107 -210.046438 
L 151.058678 -213.186109 
L 155.670248 -216.865492 
L 160.281818 -221.144222 
L 164.893388 -226.081253 
L 169.504959 -231.733049 
L 174.116529 -238.151494 
L 178.728099 -245.381576 
L 183.339669 -253.458903 
L 187.95124 -262.40711 
L 192.56281 -272.235259 
L 197.17438 -282.935342 
L 201.78595 -294.480001 
L 206.397521 -306.820592 
L 211.009091 -319.88573 
L 215.620661 -333.580421 
L 220.232231 -347.785916 
L 224.843802 -362.360347 
L 229.455372 -377.14023 
L 234.066942 -391.942851 
L 238.678512 -406.569517 
L 243.290083 -420.809637 
L 247.901653 -434.445503 
L 252.513223 -447.257664 
L 257.124793 -459.030695 
L 261.736364 -469.559157 
L 266.347934 -478.65353 
L 270.959504 -486.145869 
L 275.571074 -491.894958 
L 280.182645 -495.790731 
L 284.794215 -497.757781 
L 289.405785 -497.757781 
L 294.017355 -495.790731 
L 298.628926 -491.894958 
L 303.240496 -486.145869 
L 307.852066 -478.65353 
L 312.463636 -469.559157 
L 317.075207 -459.030695 
L 321.686777 -447.257664 
L 326.298347 -434.445503 
L 330.909917 -420.809637 
L 335.521488 -406.569517 
L 340.133058 -391.942851 
L 344.744628 -377.14023 
L 349.356198 -362.360347 
L 353.967769 -347.785916 
L 358.579339 -333.580421 
L 363.190909 -319.88573 
L 367.802479 -306.820592 
L 372.41405 -294.480001 
L 377.02562 -282.935342 
L 381.63719 -272.235259 
L 386.24876 -262.40711 
L 390.860331 -253.458903 
L 395.471901 -245.381576 
L 400.083471 -238.151494 
L 404.695041 -231.733049 
L 409.306612 -226.081253 
L 413.918182 -221.144222 
L 418.529752 -216.865492 
L 423.141322 -213.186109 
L 427.752893 -210.046438 
L 432.364463 -207.387696 
L 436.976033 -205.153191 
L 441.587603 -203.289267 
L 446.199174 -201.745998 
L 450.810744 -200.477632 
L 455.422314 -199.442827 
L 460.033884 -198.604713 
L 464.645455 -197.930812 
L 469.257025 -197.392848 
L 473.868595 -196.966474 
L 478.480165 -196.630951 
L 483.091736 -196.368794 
L 487.703306 -196.165409 
L 492.314876 -196.008731 
L 496.926446 -195.888881 
L 501.538017 -195.797844 
L 506.149587 -195.729175 
L 510.761157 -195.677739 
L 515.372727 -195.639478 
L 515.372727 -195.538011 
L 515.372727 -195.538011 
L 510.761157 -195.538011 
L 506.149587 -195.538011 
L 501.538017 -195.538011 
L 496.926446 -195.538011 
L 492.314876 -195.538011 
L 487.703306 -195.538011 
L 483.091736 -195.538011 
L 478.480165 -195.538011 
L 473.868595 -195.538011 
L 469.257025 -195.538011 
L 464.645455 -195.538011 
L 460.033884 -195.538011 
L 455.422314 -195.538011 
L 450.810744 -195.538011 
L 446.199174 -195.538011 
L 441.587603 -195.538011 
L 436.976033 -195.538011 
L 432.364463 -195.538011 
L 427.752893 -195.538011 
L 423.141322 -195.538011 
L 418.529752 -195.538011 
L 413.918182 -195.538011 
L 409.306612 -195.538011 
L 404.695041 -195.538011 
L 400.083471 -195.538011 
L 395.471901 -195.538011 
L 390.860331 -195.538011 
L 386.24876 -195.538011 
L 381.63719 -195.538011 
L 377.02562 -195.538011 
L 372.41405 -195.538011 
L 367.802479 -195.538011 
L 363.190909 -195.538011 
L 358.579339 -195.538011 
L 353.967769 -195.538011 
L 349.356198 -195.538011 
L 344.744628 -195.538011 
L 340.133058 -195.538011 
L 335.521488 -195.538011 
L 330.909917 -195.538011 
L 326.298347 -195.538011 
L 321.686777 -195.538011 
L 317.075207 -195.538011 
L 312.463636 -195.538011 
L 307.852066 -195.538011 
L 303.240496 -195.538011 
L 298.628926 -195.538011 
L 294.017355 -195.538011 
L 289.405785 -195.538011 
L 284.794215 -195.538011 
L 280.182645 -195.538011 
L 275.571074 -195.538011 
L 270.959504 -195.538011 
L 266.347934 -195.538011 
L 261.736364 -195.538011 
L 257.124793 -195.538011 
L 252.513223 -195.538011 
L 247.901653 -195.538011 
L 243.290083 -195.538011 
L 238.678512 -195.538011 
L 234.066942 -195.538011 
L 229.455372 -195.538011 
L 224.843802 -195.538011 
L 220.232231 -195.538011 
L 215.620661 -195.538011 
L 211.009091 -195.538011 
L 206.397521 -195.538011 
L 201.78595 -195.538011 
L 197.17438 -195.538011 
L 192.56281 -195.538011 
L 187.95124 -195.538011 
L 183.339669 -195.538011 
L 178.728099 -195.538011 
L 174.116529 -195.538011 
L 169.504959 -195.538011 
L 164.893388 -195.538011 
L 160.281818 -195.538011 
L 155.670248 -195.538011 
L 151.058678 -195.538011 
L 146.447107 -195.538011 
L 141.835537 -195.538011 
L 137.223967 -195.538011 
L 132.612397 -195.538011 
L 128.000826 -195.538011 
L 123.389256 -195.538011 
L 118.777686 -195.538011 
L 114.166116 -195.538011 
L 109.554545 -195.538011 
L 104.942975 -195.538011 
L 100.331405 -195.538011 
L 95.719835 -195.538011 
L 91.108264 -195.538011 
L 86.496694 -195.538011 
L 81.885124 -195.538011 
L 77.273554 -195.538011 
L 72.661983 -195.538011 
L 68.050413 -195.538011 
L 63.438843 -195.538011 
L 58.827273 -195.538011 
z
" id="me4e2e4f37a" style="stroke:#ff6384;stroke-opacity:0.5;"/>
    </defs>
    <g clip-path="url(#p2e3e32b4a3)">
     <use style="fill:#ff6384;fill-opacity:0.5;stroke:#ff6384;stroke-opacity:0.5;" x="0" xlink:href="#me4e2e4f37a" y="581.789375"/>
    </g>
   </g>
   <g id="PolyCollection_2">
    <defs>
     <path d="M 77.399039 -195.538011 
L 77.399039 -195.650004 
L 81.577162 -195.692234 
L 85.755284 -195.749007 
L 89.933406 -195.8248 
L 94.111529 -195.925281 
L 98.289651 -196.057565 
L 102.467774 -196.230497 
L 106.645896 -196.454982 
L 110.824019 -196.744335 
L 115.002141 -197.114666 
L 119.180263 -197.585273 
L 123.358386 -198.179047 
L 127.536508 -198.922859 
L 131.714631 -199.847921 
L 135.892753 -200.990079 
L 140.070876 -202.390029 
L 144.248998 -204.093399 
L 148.427121 -206.150691 
L 152.605243 -208.617009 
L 156.783365 -211.551575 
L 160.961488 -215.016962 
L 165.13961 -219.078053 
L 169.317733 -223.800667 
L 173.495855 -229.249878 
L 177.673978 -235.488004 
L 181.8521 -242.572312 
L 186.030222 -250.552459 
L 190.208345 -259.467747 
L 194.386467 -269.344261 
L 198.56459 -280.192004 
L 202.742712 -292.002137 
L 206.920835 -304.744465 
L 211.098957 -318.365297 
L 215.27708 -332.785841 
L 219.455202 -347.901251 
L 223.633324 -363.580456 
L 227.811447 -379.666871 
L 231.989569 -395.980052 
L 236.167692 -412.31833 
L 240.345814 -428.4624 
L 244.523937 -444.179822 
L 248.702059 -459.230303 
L 252.880182 -473.371627 
L 257.058304 -486.366018 
L 261.236426 -497.986726 
L 265.414549 -508.02457 
L 269.592671 -516.294181 
L 273.770794 -522.639693 
L 277.948916 -526.939623 
L 282.127039 -529.110739 
L 286.305161 -529.110739 
L 290.483283 -526.939623 
L 294.661406 -522.639693 
L 298.839528 -516.294181 
L 303.017651 -508.02457 
L 307.195773 -497.986726 
L 311.373896 -486.366018 
L 315.552018 -473.371627 
L 319.730141 -459.230303 
L 323.908263 -444.179822 
L 328.086385 -428.4624 
L 332.264508 -412.31833 
L 336.44263 -395.980052 
L 340.620753 -379.666871 
L 344.798875 -363.580456 
L 348.976998 -347.901251 
L 353.15512 -332.785841 
L 357.333242 -318.365297 
L 361.511365 -304.744465 
L 365.689487 -292.002137 
L 369.86761 -280.192004 
L 374.045732 -269.344261 
L 378.223855 -259.467747 
L 382.401977 -250.552459 
L 386.5801 -242.572312 
L 390.758222 -235.488004 
L 394.936344 -229.249878 
L 399.114467 -223.800667 
L 403.292589 -219.078053 
L 407.470712 -215.016962 
L 411.648834 -211.551575 
L 415.826957 -208.617009 
L 420.005079 -206.150691 
L 424.183202 -204.093399 
L 428.361324 -202.390029 
L 432.539446 -200.990079 
L 436.717569 -199.847921 
L 440.895691 -198.922859 
L 445.073814 -198.179047 
L 449.251936 -197.585273 
L 453.430059 -197.114666 
L 457.608181 -196.744335 
L 461.786303 -196.454982 
L 465.964426 -196.230497 
L 470.142548 -196.057565 
L 474.320671 -195.925281 
L 478.498793 -195.8248 
L 482.676916 -195.749007 
L 486.855038 -195.692234 
L 491.033161 -195.650004 
L 491.033161 -195.538011 
L 491.033161 -195.538011 
L 486.855038 -195.538011 
L 482.676916 -195.538011 
L 478.498793 -195.538011 
L 474.320671 -195.538011 
L 470.142548 -195.538011 
L 465.964426 -195.538011 
L 461.786303 -195.538011 
L 457.608181 -195.538011 
L 453.430059 -195.538011 
L 449.251936 -195.538011 
L 445.073814 -195.538011 
L 440.895691 -195.538011 
L 436.717569 -195.538011 
L 432.539446 -195.538011 
L 428.361324 -195.538011 
L 424.183202 -195.538011 
L 420.005079 -195.538011 
L 415.826957 -195.538011 
L 411.648834 -195.538011 
L 407.470712 -195.538011 
L 403.292589 -195.538011 
L 399.114467 -195.538011 
L 394.936344 -195.538011 
L 390.758222 -195.538011 
L 386.5801 -195.538011 
L 382.401977 -195.538011 
L 378.223855 -195.538011 
L 374.045732 -195.538011 
L 369.86761 -195.538011 
L 365.689487 -195.538011 
L 361.511365 -195.538011 
L 357.333242 -195.538011 
L 353.15512 -195.538011 
L 348.976998 -195.538011 
L 344.798875 -195.538011 
L 340.620753 -195.538011 
L 336.44263 -195.538011 
L 332.264508 -195.538011 
L 328.086385 -195.538011 
L 323.908263 -195.538011 
L 319.730141 -195.538011 
L 315.552018 -195.538011 
L 311.373896 -195.538011 
L 307.195773 -195.538011 
L 303.017651 -195.538011 
L 298.839528 -195.538011 
L 294.661406 -195.538011 
L 290.483283 -195.538011 
L 286.305161 -195.538011 
L 282.127039 -195.538011 
L 277.948916 -195.538011 
L 273.770794 -195.538011 
L 269.592671 -195.538011 
L 265.414549 -195.538011 
L 261.236426 -195.538011 
L 257.058304 -195.538011 
L 252.880182 -195.538011 
L 248.702059 -195.538011 
L 244.523937 -195.538011 
L 240.345814 -195.538011 
L 236.167692 -195.538011 
L 231.989569 -195.538011 
L 227.811447 -195.538011 
L 223.633324 -195.538011 
L 219.455202 -195.538011 
L 215.27708 -195.538011 
L 211.098957 -195.538011 
L 206.920835 -195.538011 
L 202.742712 -195.538011 
L 198.56459 -195.538011 
L 194.386467 -195.538011 
L 190.208345 -195.538011 
L 186.030222 -195.538011 
L 181.8521 -195.538011 
L 177.673978 -195.538011 
L 173.495855 -195.538011 
L 169.317733 -195.538011 
L 165.13961 -195.538011 
L 160.961488 -195.538011 
L 156.783365 -195.538011 
L 152.605243 -195.538011 
L 148.427121 -195.538011 
L 144.248998 -195.538011 
L 140.070876 -195.538011 
L 135.892753 -195.538011 
L 131.714631 -195.538011 
L 127.536508 -195.538011 
L 123.358386 -195.538011 
L 119.180263 -195.538011 
L 115.002141 -195.538011 
L 110.824019 -195.538011 
L 106.645896 -195.538011 
L 102.467774 -195.538011 
L 98.289651 -195.538011 
L 94.111529 -195.538011 
L 89.933406 -195.538011 
L 85.755284 -195.538011 
L 81.577162 -195.538011 
L 77.399039 -195.538011 
z
" id="m560e82e2db" style="stroke:#36a2eb;stroke-opacity:0.5;"/>
    </defs>
    <g clip-path="url(#p2e3e32b4a3)">
     <use style="fill:#36a2eb;fill-opacity:0.5;stroke:#36a2eb;stroke-opacity:0.5;" x="0" xlink:href="#m560e82e2db" y="581.789375"/>
    </g>
   </g>
   <g id="line2d_1">
    <path clip-path="url(#p2e3e32b4a3)" d="M 58.827273 386.149897 
L 63.438843 386.111636 
L 68.050413 386.0602 
L 72.661983 385.991531 
L 77.273554 385.900494 
L 81.885124 385.780644 
L 86.496694 385.623966 
L 91.108264 385.420581 
L 95.719835 385.158424 
L 100.331405 384.822901 
L 104.942975 384.396527 
L 109.554545 383.858563 
L 114.166116 383.184662 
L 118.777686 382.346548 
L 123.389256 381.311743 
L 128.000826 380.043377 
L 132.612397 378.500108 
L 137.223967 376.636184 
L 141.835537 374.401679 
L 146.447107 371.742937 
L 151.058678 368.603266 
L 155.670248 364.923883 
L 160.281818 360.645153 
L 164.893388 355.708122 
L 169.504959 350.056326 
L 174.116529 343.637881 
L 178.728099 336.407799 
L 183.339669 328.330472 
L 187.95124 319.382265 
L 192.56281 309.554116 
L 197.17438 298.854033 
L 201.78595 287.309374 
L 206.397521 274.968783 
L 211.009091 261.903645 
L 215.620661 248.208954 
L 220.232231 234.003459 
L 224.843802 219.429028 
L 229.455372 204.649145 
L 234.066942 189.846524 
L 238.678512 175.219858 
L 243.290083 160.979738 
L 247.901653 147.343872 
L 252.513223 134.531711 
L 257.124793 122.75868 
L 261.736364 112.230218 
L 266.347934 103.135845 
L 270.959504 95.643506 
L 275.571074 89.894417 
L 280.182645 85.998644 
L 284.794215 84.031594 
L 289.405785 84.031594 
L 294.017355 85.998644 
L 298.628926 89.894417 
L 303.240496 95.643506 
L 307.852066 103.135845 
L 312.463636 112.230218 
L 317.075207 122.75868 
L 321.686777 134.531711 
L 326.298347 147.343872 
L 330.909917 160.979738 
L 335.521488 175.219858 
L 340.133058 189.846524 
L 344.744628 204.649145 
L 349.356198 219.429028 
L 353.967769 234.003459 
L 358.579339 248.208954 
L 363.190909 261.903645 
L 367.802479 274.968783 
L 372.41405 287.309374 
L 377.02562 298.854033 
L 381.63719 309.554116 
L 386.24876 319.382265 
L 390.860331 328.330472 
L 395.471901 336.407799 
L 400.083471 343.637881 
L 404.695041 350.056326 
L 409.306612 355.708122 
L 413.918182 360.645153 
L 418.529752 364.923883 
L 423.141322 368.603266 
L 427.752893 371.742937 
L 432.364463 374.401679 
L 436.976033 376.636184 
L 441.587603 378.500108 
L 446.199174 380.043377 
L 450.810744 381.311743 
L 455.422314 382.346548 
L 460.033884 383.184662 
L 464.645455 383.858563 
L 469.257025 384.396527 
L 473.868595 384.822901 
L 478.480165 385.158424 
L 483.091736 385.420581 
L 487.703306 385.623966 
L 492.314876 385.780644 
L 496.926446 385.900494 
L 501.538017 385.991531 
L 506.149587 386.0602 
L 510.761157 386.111636 
L 515.372727 386.149897 
" style="fill:none;stroke:#ff6384;stroke-linecap:square;"/>
   </g>
   <g id="line2d_2">
    <path clip-path="url(#p2e3e32b4a3)" d="M 77.399039 386.139371 
L 81.577162 386.097141 
L 85.755284 386.040368 
L 89.933406 385.964575 
L 94.111529 385.864094 
L 98.289651 385.73181 
L 102.467774 385.558878 
L 106.645896 385.334393 
L 110.824019 385.04504 
L 115.002141 384.674709 
L 119.180263 384.204102 
L 123.358386 383.610328 
L 127.536508 382.866516 
L 131.714631 381.941454 
L 135.892753 380.799296 
L 140.070876 379.399346 
L 144.248998 377.695976 
L 148.427121 375.638684 
L 152.605243 373.172366 
L 156.783365 370.2378 
L 160.961488 366.772413 
L 165.13961 362.711322 
L 169.317733 357.988708 
L 173.495855 352.539497 
L 177.673978 346.301371 
L 181.8521 339.217063 
L 186.030222 331.236916 
L 190.208345 322.321628 
L 194.386467 312.445114 
L 198.56459 301.597371 
L 202.742712 289.787238 
L 206.920835 277.04491 
L 211.098957 263.424078 
L 215.27708 249.003534 
L 219.455202 233.888124 
L 223.633324 218.208919 
L 227.811447 202.122504 
L 231.989569 185.809323 
L 236.167692 169.471045 
L 240.345814 153.326975 
L 244.523937 137.609553 
L 248.702059 122.559072 
L 252.880182 108.417748 
L 257.058304 95.423357 
L 261.236426 83.802649 
L 265.414549 73.764805 
L 269.592671 65.495194 
L 273.770794 59.149682 
L 277.948916 54.849752 
L 282.127039 52.678636 
L 286.305161 52.678636 
L 290.483283 54.849752 
L 294.661406 59.149682 
L 298.839528 65.495194 
L 303.017651 73.764805 
L 307.195773 83.802649 
L 311.373896 95.423357 
L 315.552018 108.417748 
L 319.730141 122.559072 
L 323.908263 137.609553 
L 328.086385 153.326975 
L 332.264508 169.471045 
L 336.44263 185.809323 
L 340.620753 202.122504 
L 344.798875 218.208919 
L 348.976998 233.888124 
L 353.15512 249.003534 
L 357.333242 263.424078 
L 361.511365 277.04491 
L 365.689487 289.787238 
L 369.86761 301.597371 
L 374.045732 312.445114 
L 378.223855 322.321628 
L 382.401977 331.236916 
L 386.5801 339.217063 
L 390.758222 346.301371 
L 394.936344 352.539497 
L 399.114467 357.988708 
L 403.292589 362.711322 
L 407.470712 366.772413 
L 411.648834 370.2378 
L 415.826957 373.172366 
L 420.005079 375.638684 
L 424.183202 377.695976 
L 428.361324 379.399346 
L 432.539446 380.799296 
L 436.717569 381.941454 
L 440.895691 382.866516 
L 445.073814 383.610328 
L 449.251936 384.204102 
L 453.430059 384.674709 
L 457.608181 385.04504 
L 461.786303 385.334393 
L 465.964426 385.558878 
L 470.142548 385.73181 
L 474.320671 385.864094 
L 478.498793 385.964575 
L 482.676916 386.040368 
L 486.855038 386.097141 
L 491.033161 386.139371 
" style="fill:none;stroke:#36a2eb;stroke-linecap:square;"/>
   </g>
   <g id="patch_3">
    <path d="M 36 402.93 
L 538.2 402.93 
" style="fill:none;stroke:#000000;stroke-linecap:square;stroke-linejoin:miter;stroke-width:0.8;"/>
   </g>
   <g id="legend_1">
    <g id="patch_4">
     <path d="M 450.225313 88.29875 
L 528.4 88.29875 
Q 531.2 88.29875 531.2 85.49875 
L 531.2 45.8 
Q 531.2 43 528.4 43 
L 450.225313 43 
Q 447.425313 43 447.425313 45.8 
L 447.425313 85.49875 
Q 447.425313 88.29875 450.225313 88.29875 
z
" style="fill:#ffffff;opacity:0.8;stroke:#cccccc;stroke-linejoin:miter;"/>
    </g>
    <g id="patch_5">
     <path d="M 453.025313 59.237813 
L 481.025313 59.237813 
L 481.025313 49.437813 
L 453.025313 49.437813 
z
" style="fill:#ff6384;opacity:0.5;stroke:#ff6384;stroke-linejoin:miter;"/>
    </g>
    <g id="text_1">
     <!-- base -->
     <defs>
      <path d="M 48.6875 27.296875 
Q 48.6875 37.203125 44.609375 42.84375 
Q 40.53125 48.484375 33.40625 48.484375 
Q 26.265625 48.484375 22.1875 42.84375 
Q 18.109375 37.203125 18.109375 27.296875 
Q 18.109375 17.390625 22.1875 11.75 
Q 26.265625 6.109375 33.40625 6.109375 
Q 40.53125 6.109375 44.609375 11.75 
Q 48.6875 17.390625 48.6875 27.296875 
z
M 18.109375 46.390625 
Q 20.953125 51.265625 25.265625 53.625 
Q 29.59375 56 35.59375 56 
Q 45.5625 56 51.78125 48.09375 
Q 58.015625 40.1875 58.015625 27.296875 
Q 58.015625 14.40625 51.78125 6.484375 
Q 45.5625 -1.421875 35.59375 -1.421875 
Q 29.59375 -1.421875 25.265625 0.953125 
Q 20.953125 3.328125 18.109375 8.203125 
L 18.109375 0 
L 9.078125 0 
L 9.078125 75.984375 
L 18.109375 75.984375 
z
" id="DejaVuSans-98"/>
      <path d="M 34.28125 27.484375 
Q 23.390625 27.484375 19.1875 25 
Q 14.984375 22.515625 14.984375 16.5 
Q 14.984375 11.71875 18.140625 8.90625 
Q 21.296875 6.109375 26.703125 6.109375 
Q 34.1875 6.109375 38.703125 11.40625 
Q 43.21875 16.703125 43.21875 25.484375 
L 43.21875 27.484375 
z
M 52.203125 31.203125 
L 52.203125 0 
L 43.21875 0 
L 43.21875 8.296875 
Q 40.140625 3.328125 35.546875 0.953125 
Q 30.953125 -1.421875 24.3125 -1.421875 
Q 15.921875 -1.421875 10.953125 3.296875 
Q 6 8.015625 6 15.921875 
Q 6 25.140625 12.171875 29.828125 
Q 18.359375 34.515625 30.609375 34.515625 
L 43.21875 34.515625 
L 43.21875 35.40625 
Q 43.21875 41.609375 39.140625 45 
Q 35.0625 48.390625 27.6875 48.390625 
Q 23 48.390625 18.546875 47.265625 
Q 14.109375 46.140625 10.015625 43.890625 
L 10.015625 52.203125 
Q 14.9375 54.109375 19.578125 55.046875 
Q 24.21875 56 28.609375 56 
Q 40.484375 56 46.34375 49.84375 
Q 52.203125 43.703125 52.203125 31.203125 
z
" id="DejaVuSans-97"/>
      <path d="M 44.28125 53.078125 
L 44.28125 44.578125 
Q 40.484375 46.53125 36.375 47.5 
Q 32.28125 48.484375 27.875 48.484375 
Q 21.1875 48.484375 17.84375 46.4375 
Q 14.5 44.390625 14.5 40.28125 
Q 14.5 37.15625 16.890625 35.375 
Q 19.28125 33.59375 26.515625 31.984375 
L 29.59375 31.296875 
Q 39.15625 29.25 43.1875 25.515625 
Q 47.21875 21.78125 47.21875 15.09375 
Q 47.21875 7.46875 41.1875 3.015625 
Q 35.15625 -1.421875 24.609375 -1.421875 
Q 20.21875 -1.421875 15.453125 -0.5625 
Q 10.6875 0.296875 5.421875 2 
L 5.421875 11.28125 
Q 10.40625 8.6875 15.234375 7.390625 
Q 20.0625 6.109375 24.8125 6.109375 
Q 31.15625 6.109375 34.5625 8.28125 
Q 37.984375 10.453125 37.984375 14.40625 
Q 37.984375 18.0625 35.515625 20.015625 
Q 33.0625 21.96875 24.703125 23.78125 
L 21.578125 24.515625 
Q 13.234375 26.265625 9.515625 29.90625 
Q 5.8125 33.546875 5.8125 39.890625 
Q 5.8125 47.609375 11.28125 51.796875 
Q 16.75 56 26.8125 56 
Q 31.78125 56 36.171875 55.265625 
Q 40.578125 54.546875 44.28125 53.078125 
z
" id="DejaVuSans-115"/>
      <path d="M 56.203125 29.59375 
L 56.203125 25.203125 
L 14.890625 25.203125 
Q 15.484375 15.921875 20.484375 11.0625 
Q 25.484375 6.203125 34.421875 6.203125 
Q 39.59375 6.203125 44.453125 7.46875 
Q 49.3125 8.734375 54.109375 11.28125 
L 54.109375 2.78125 
Q 49.265625 0.734375 44.1875 -0.34375 
Q 39.109375 -1.421875 33.890625 -1.421875 
Q 20.796875 -1.421875 13.15625 6.1875 
Q 5.515625 13.8125 5.515625 26.8125 
Q 5.515625 40.234375 12.765625 48.109375 
Q 20.015625 56 32.328125 56 
Q 43.359375 56 49.78125 48.890625 
Q 56.203125 41.796875 56.203125 29.59375 
z
M 47.21875 32.234375 
Q 47.125 39.59375 43.09375 43.984375 
Q 39.0625 48.390625 32.421875 48.390625 
Q 24.90625 48.390625 20.390625 44.140625 
Q 15.875 39.890625 15.1875 32.171875 
z
" id="DejaVuSans-101"/>
     </defs>
     <g transform="translate(492.225313 59.237813)scale(0.14 -0.14)">
      <use xlink:href="#DejaVuSans-98"/>
      <use x="63.476562" xlink:href="#DejaVuSans-97"/>
      <use x="124.755859" xlink:href="#DejaVuSans-115"/>
      <use x="176.855469" xlink:href="#DejaVuSans-101"/>
     </g>
    </g>
    <g id="patch_6">
     <path d="M 453.025313 79.787188 
L 481.025313 79.787188 
L 481.025313 69.987188 
L 453.025313 69.987188 
z
" style="fill:#36a2eb;opacity:0.5;stroke:#36a2eb;stroke-linejoin:miter;"/>
    </g>
    <g id="text_2">
     <!-- new -->
     <defs>
      <path d="M 54.890625 33.015625 
L 54.890625 0 
L 45.90625 0 
L 45.90625 32.71875 
Q 45.90625 40.484375 42.875 44.328125 
Q 39.84375 48.1875 33.796875 48.1875 
Q 26.515625 48.1875 22.3125 43.546875 
Q 18.109375 38.921875 18.109375 30.90625 
L 18.109375 0 
L 9.078125 0 
L 9.078125 54.6875 
L 18.109375 54.6875 
L 18.109375 46.1875 
Q 21.34375 51.125 25.703125 53.5625 
Q 30.078125 56 35.796875 56 
Q 45.21875 56 50.046875 50.171875 
Q 54.890625 44.34375 54.890625 33.015625 
z
" id="DejaVuSans-110"/>
      <path d="M 4.203125 54.6875 
L 13.1875 54.6875 
L 24.421875 12.015625 
L 35.59375 54.6875 
L 46.1875 54.6875 
L 57.421875 12.015625 
L 68.609375 54.6875 
L 77.59375 54.6875 
L 63.28125 0 
L 52.6875 0 
L 40.921875 44.828125 
L 29.109375 0 
L 18.5 0 
z
" id="DejaVuSans-119"/>
     </defs>
     <g transform="translate(492.225313 79.787188)scale(0.14 -0.14)">
      <use xlink:href="#DejaVuSans-110"/>
      <use x="63.378906" xlink:href="#DejaVuSans-101"/>
      <use x="124.902344" xlink:href="#DejaVuSans-119"/>
     </g>
    </g>
   </g>
  </g>
  <g id="axes_2">
   <g id="patch_7">
    <path d="M 36 525.24 
L 538.2 525.24 
L 538.2 402.93 
L 36 402.93 
z
" style="fill:none;"/>
   </g>
   <g id="patch_8">
    <path clip-path="url(#pf51791b312)" d="M 175.246364 519.680455 
L 398.953636 519.680455 
L 398.953636 482.616818 
L 175.246364 482.616818 
z
" style="fill:#ff6384;opacity:0.5;"/>
   </g>
   <g id="patch_9">
    <path clip-path="url(#pf51791b312)" d="M 182.87574 445.553182 
L 385.55646 445.553182 
L 385.55646 408.489545 
L 182.87574 408.489545 
z
" style="fill:#36a2eb;opacity:0.5;"/>
   </g>
   <g id="matplotlib.axis_1">
    <g id="xtick_1">
     <g id="line2d_3">
      <defs>
       <path d="M 0 0 
L 0 3.5 
" id="ma2bc07ef28" style="stroke:#000000;stroke-width:0.8;"/>
      </defs>
      <g>
       <use style="stroke:#000000;stroke-width:0.8;" x="83.785037" xlink:href="#ma2bc07ef28" y="525.24"/>
      </g>
     </g>
     <g id="text_3">
      <!-- 4.5 -->
      <defs>
       <path d="M 37.796875 64.3125 
L 12.890625 25.390625 
L 37.796875 25.390625 
z
M 35.203125 72.90625 
L 47.609375 72.90625 
L 47.609375 25.390625 
L 58.015625 25.390625 
L 58.015625 17.1875 
L 47.609375 17.1875 
L 47.609375 0 
L 37.796875 0 
L 37.796875 17.1875 
L 4.890625 17.1875 
L 4.890625 26.703125 
z
" id="DejaVuSans-52"/>
       <path d="M 10.6875 12.40625 
L 21 12.40625 
L 21 0 
L 10.6875 0 
z
" id="DejaVuSans-46"/>
       <path d="M 10.796875 72.90625 
L 49.515625 72.90625 
L 49.515625 64.59375 
L 19.828125 64.59375 
L 19.828125 46.734375 
Q 21.96875 47.46875 24.109375 47.828125 
Q 26.265625 48.1875 28.421875 48.1875 
Q 40.625 48.1875 47.75 41.5 
Q 54.890625 34.8125 54.890625 23.390625 
Q 54.890625 11.625 47.5625 5.09375 
Q 40.234375 -1.421875 26.90625 -1.421875 
Q 22.3125 -1.421875 17.546875 -0.640625 
Q 12.796875 0.140625 7.71875 1.703125 
L 7.71875 11.625 
Q 12.109375 9.234375 16.796875 8.0625 
Q 21.484375 6.890625 26.703125 6.890625 
Q 35.15625 6.890625 40.078125 11.328125 
Q 45.015625 15.765625 45.015625 23.390625 
Q 45.015625 31 40.078125 35.4375 
Q 35.15625 39.890625 26.703125 39.890625 
Q 22.75 39.890625 18.8125 39.015625 
Q 14.890625 38.140625 10.796875 36.28125 
z
" id="DejaVuSans-53"/>
      </defs>
      <g transform="translate(72.652849 542.877813)scale(0.14 -0.14)">
       <use xlink:href="#DejaVuSans-52"/>
       <use x="63.623047" xlink:href="#DejaVuSans-46"/>
       <use x="95.410156" xlink:href="#DejaVuSans-53"/>
      </g>
     </g>
    </g>
    <g id="xtick_2">
     <g id="line2d_4">
      <g>
       <use style="stroke:#000000;stroke-width:0.8;" x="155.882541" xlink:href="#ma2bc07ef28" y="525.24"/>
      </g>
     </g>
     <g id="text_4">
      <!-- 5.0 -->
      <defs>
       <path d="M 31.78125 66.40625 
Q 24.171875 66.40625 20.328125 58.90625 
Q 16.5 51.421875 16.5 36.375 
Q 16.5 21.390625 20.328125 13.890625 
Q 24.171875 6.390625 31.78125 6.390625 
Q 39.453125 6.390625 43.28125 13.890625 
Q 47.125 21.390625 47.125 36.375 
Q 47.125 51.421875 43.28125 58.90625 
Q 39.453125 66.40625 31.78125 66.40625 
z
M 31.78125 74.21875 
Q 44.046875 74.21875 50.515625 64.515625 
Q 56.984375 54.828125 56.984375 36.375 
Q 56.984375 17.96875 50.515625 8.265625 
Q 44.046875 -1.421875 31.78125 -1.421875 
Q 19.53125 -1.421875 13.0625 8.265625 
Q 6.59375 17.96875 6.59375 36.375 
Q 6.59375 54.828125 13.0625 64.515625 
Q 19.53125 74.21875 31.78125 74.21875 
z
" id="DejaVuSans-48"/>
      </defs>
      <g transform="translate(144.750354 542.877813)scale(0.14 -0.14)">
       <use xlink:href="#DejaVuSans-53"/>
       <use x="63.623047" xlink:href="#DejaVuSans-46"/>
       <use x="95.410156" xlink:href="#DejaVuSans-48"/>
      </g>
     </g>
    </g>
    <g id="xtick_3">
     <g id="line2d_5">
      <g>
       <use style="stroke:#000000;stroke-width:0.8;" x="227.980046" xlink:href="#ma2bc07ef28" y="525.24"/>
      </g>
     </g>
     <g id="text_5">
      <!-- 5.5 -->
      <g transform="translate(216.847859 542.877813)scale(0.14 -0.14)">
       <use xlink:href="#DejaVuSans-53"/>
       <use x="63.623047" xlink:href="#DejaVuSans-46"/>
       <use x="95.410156" xlink:href="#DejaVuSans-53"/>
      </g>
     </g>
    </g>
    <g id="xtick_4">
     <g id="line2d_6">
      <g>
       <use style="stroke:#000000;stroke-width:0.8;" x="300.077551" xlink:href="#ma2bc07ef28" y="525.24"/>
      </g>
     </g>
     <g id="text_6">
      <!-- 6.0 -->
      <defs>
       <path d="M 33.015625 40.375 
Q 26.375 40.375 22.484375 35.828125 
Q 18.609375 31.296875 18.609375 23.390625 
Q 18.609375 15.53125 22.484375 10.953125 
Q 26.375 6.390625 33.015625 6.390625 
Q 39.65625 6.390625 43.53125 10.953125 
Q 47.40625 15.53125 47.40625 23.390625 
Q 47.40625 31.296875 43.53125 35.828125 
Q 39.65625 40.375 33.015625 40.375 
z
M 52.59375 71.296875 
L 52.59375 62.3125 
Q 48.875 64.0625 45.09375 64.984375 
Q 41.3125 65.921875 37.59375 65.921875 
Q 27.828125 65.921875 22.671875 59.328125 
Q 17.53125 52.734375 16.796875 39.40625 
Q 19.671875 43.65625 24.015625 45.921875 
Q 28.375 48.1875 33.59375 48.1875 
Q 44.578125 48.1875 50.953125 41.515625 
Q 57.328125 34.859375 57.328125 23.390625 
Q 57.328125 12.15625 50.6875 5.359375 
Q 44.046875 -1.421875 33.015625 -1.421875 
Q 20.359375 -1.421875 13.671875 8.265625 
Q 6.984375 17.96875 6.984375 36.375 
Q 6.984375 53.65625 15.1875 63.9375 
Q 23.390625 74.21875 37.203125 74.21875 
Q 40.921875 74.21875 44.703125 73.484375 
Q 48.484375 72.75 52.59375 71.296875 
z
" id="DejaVuSans-54"/>
      </defs>
      <g transform="translate(288.945363 542.877813)scale(0.14 -0.14)">
       <use xlink:href="#DejaVuSans-54"/>
       <use x="63.623047" xlink:href="#DejaVuSans-46"/>
       <use x="95.410156" xlink:href="#DejaVuSans-48"/>
      </g>
     </g>
    </g>
    <g id="xtick_5">
     <g id="line2d_7">
      <g>
       <use style="stroke:#000000;stroke-width:0.8;" x="372.175056" xlink:href="#ma2bc07ef28" y="525.24"/>
      </g>
     </g>
     <g id="text_7">
      <!-- 6.5 -->
      <g transform="translate(361.042868 542.877813)scale(0.14 -0.14)">
       <use xlink:href="#DejaVuSans-54"/>
       <use x="63.623047" xlink:href="#DejaVuSans-46"/>
       <use x="95.410156" xlink:href="#DejaVuSans-53"/>
      </g>
     </g>
    </g>
    <g id="xtick_6">
     <g id="line2d_8">
      <g>
       <use style="stroke:#000000;stroke-width:0.8;" x="444.27256" xlink:href="#ma2bc07ef28" y="525.24"/>
      </g>
     </g>
     <g id="text_8">
      <!-- 7.0 -->
      <defs>
       <path d="M 8.203125 72.90625 
L 55.078125 72.90625 
L 55.078125 68.703125 
L 28.609375 0 
L 18.3125 0 
L 43.21875 64.59375 
L 8.203125 64.59375 
z
" id="DejaVuSans-55"/>
      </defs>
      <g transform="translate(433.140373 542.877813)scale(0.14 -0.14)">
       <use xlink:href="#DejaVuSans-55"/>
       <use x="63.623047" xlink:href="#DejaVuSans-46"/>
       <use x="95.410156" xlink:href="#DejaVuSans-48"/>
      </g>
     </g>
    </g>
    <g id="xtick_7">
     <g id="line2d_9">
      <g>
       <use style="stroke:#000000;stroke-width:0.8;" x="516.370065" xlink:href="#ma2bc07ef28" y="525.24"/>
      </g>
     </g>
     <g id="text_9">
      <!-- 7.5 -->
      <g transform="translate(505.237877 542.877813)scale(0.14 -0.14)">
       <use xlink:href="#DejaVuSans-55"/>
       <use x="63.623047" xlink:href="#DejaVuSans-46"/>
       <use x="95.410156" xlink:href="#DejaVuSans-53"/>
      </g>
     </g>
    </g>
   </g>
   <g id="line2d_10">
    <path clip-path="url(#pf51791b312)" d="M 287.1 525.24 
L 287.1 402.93 
" style="fill:none;stroke:#ff6384;stroke-dasharray:5.55,2.4;stroke-dashoffset:0;stroke-opacity:0.8;stroke-width:1.5;"/>
   </g>
   <g id="line2d_11">
    <path clip-path="url(#pf51791b312)" d="M 284.2161 525.24 
L 284.2161 402.93 
" style="fill:none;stroke:#36a2eb;stroke-dasharray:5.55,2.4;stroke-dashoffset:0;stroke-opacity:0.8;stroke-width:1.5;"/>
   </g>
   <g id="patch_10">
    <path d="M 36 525.24 
L 538.2 525.24 
" style="fill:none;stroke:#000000;stroke-linecap:square;stroke-linejoin:miter;stroke-width:0.8;"/>
   </g>
  </g>
 </g>
 <defs>
  <clipPath id="p2e3e32b4a3">
   <rect height="366.93" width="502.2" x="36" y="36"/>
  </clipPath>
  <clipPath id="pf51791b312">
   <rect height="122.31" width="502.2" x="36" y="402.93"/>
  </clipPath>
 </defs>
</svg>
