<?xml version="1.0" encoding="utf-8" standalone="no"?>
<!DOCTYPE svg PUBLIC "-//W3C//DTD SVG 1.1//EN"
  "http://www.w3.org/Graphics/SVG/1.1/DTD/svg11.dtd">
<!-- Created with matplotlib (https://matplotlib.org/) -->
<svg height="581.789375pt" version="1.1" viewBox="0 0 583.413679 581.789375" width="583.413679pt" xmlns="http://www.w3.org/2000/svg" xmlns:xlink="http://www.w3.org/1999/xlink">
 <defs>
  <style type="text/css">
*{stroke-linecap:butt;stroke-linejoin:round;}
  </style>
 </defs>
 <g id="figure_1">
  <g id="patch_1">
   <path d="M 0 581.789375 
L 583.413679 581.789375 
L 583.413679 0 
L 0 0 
z
" style="fill:none;"/>
  </g>
  <g id="axes_1">
   <g id="patch_2">
    <path d="M 43.867835 402.93 
L 546.067835 402.93 
L 546.067835 36 
L 43.867835 36 
z
" style="fill:none;"/>
   </g>
   <g id="PolyCollection_1">
    <defs>
     <path d="M 66.695108 -195.538011 
L 66.695108 -195.63977 
L 71.306678 -195.678142 
L 75.918248 -195.729727 
L 80.529818 -195.798594 
L 85.141389 -195.889894 
L 89.752959 -196.01009 
L 94.364529 -196.16722 
L 98.976099 -196.371192 
L 103.58767 -196.634105 
L 108.19924 -196.970596 
L 112.81081 -197.398201 
L 117.42238 -197.937717 
L 122.033951 -198.613563 
L 126.645521 -199.454095 
L 131.257091 -200.491887 
L 135.868661 -201.763914 
L 140.480232 -203.311636 
L 145.091802 -205.180939 
L 149.703372 -207.421893 
L 154.314942 -210.088307 
L 158.926513 -213.237039 
L 163.538083 -216.92704 
L 168.149653 -221.218118 
L 172.761223 -226.169397 
L 177.372794 -231.837504 
L 181.984364 -238.274471 
L 186.595934 -245.525418 
L 191.207504 -253.626055 
L 195.819075 -262.600085 
L 200.430645 -272.456597 
L 205.042215 -283.187559 
L 209.653785 -294.765534 
L 214.265355 -307.141739 
L 218.876926 -320.244581 
L 223.488496 -333.978793 
L 228.100066 -348.225283 
L 232.711636 -362.841774 
L 237.323207 -377.66431 
L 241.934777 -392.509649 
L 246.546347 -407.178527 
L 251.157917 -421.459741 
L 255.769488 -435.134959 
L 260.381058 -447.984094 
L 264.992628 -459.7911 
L 269.604198 -470.349946 
L 274.215769 -479.470564 
L 278.827339 -486.984525 
L 283.438909 -492.750205 
L 288.050479 -496.657221 
L 292.66205 -498.629947 
L 297.27362 -498.629947 
L 301.88519 -496.657221 
L 306.49676 -492.750205 
L 311.108331 -486.984525 
L 315.719901 -479.470564 
L 320.331471 -470.349946 
L 324.943041 -459.7911 
L 329.554612 -447.984094 
L 334.166182 -435.134959 
L 338.777752 -421.459741 
L 343.389322 -407.178527 
L 348.000893 -392.509649 
L 352.612463 -377.66431 
L 357.224033 -362.841774 
L 361.835603 -348.225283 
L 366.447174 -333.978793 
L 371.058744 -320.244581 
L 375.670314 -307.141739 
L 380.281884 -294.765534 
L 384.893455 -283.187559 
L 389.505025 -272.456597 
L 394.116595 -262.600085 
L 398.728165 -253.626055 
L 403.339736 -245.525418 
L 407.951306 -238.274471 
L 412.562876 -231.837504 
L 417.174446 -226.169397 
L 421.786017 -221.218118 
L 426.397587 -216.92704 
L 431.009157 -213.237039 
L 435.620727 -210.088307 
L 440.232298 -207.421893 
L 444.843868 -205.180939 
L 449.455438 -203.311636 
L 454.067008 -201.763914 
L 458.678579 -200.491887 
L 463.290149 -199.454095 
L 467.901719 -198.613563 
L 472.513289 -197.937717 
L 477.12486 -197.398201 
L 481.73643 -196.970596 
L 486.348 -196.634105 
L 490.95957 -196.371192 
L 495.571141 -196.16722 
L 500.182711 -196.01009 
L 504.794281 -195.889894 
L 509.405851 -195.798594 
L 514.017422 -195.729727 
L 518.628992 -195.678142 
L 523.240562 -195.63977 
L 523.240562 -195.538011 
L 523.240562 -195.538011 
L 518.628992 -195.538011 
L 514.017422 -195.538011 
L 509.405851 -195.538011 
L 504.794281 -195.538011 
L 500.182711 -195.538011 
L 495.571141 -195.538011 
L 490.95957 -195.538011 
L 486.348 -195.538011 
L 481.73643 -195.538011 
L 477.12486 -195.538011 
L 472.513289 -195.538011 
L 467.901719 -195.538011 
L 463.290149 -195.538011 
L 458.678579 -195.538011 
L 454.067008 -195.538011 
L 449.455438 -195.538011 
L 444.843868 -195.538011 
L 440.232298 -195.538011 
L 435.620727 -195.538011 
L 431.009157 -195.538011 
L 426.397587 -195.538011 
L 421.786017 -195.538011 
L 417.174446 -195.538011 
L 412.562876 -195.538011 
L 407.951306 -195.538011 
L 403.339736 -195.538011 
L 398.728165 -195.538011 
L 394.116595 -195.538011 
L 389.505025 -195.538011 
L 384.893455 -195.538011 
L 380.281884 -195.538011 
L 375.670314 -195.538011 
L 371.058744 -195.538011 
L 366.447174 -195.538011 
L 361.835603 -195.538011 
L 357.224033 -195.538011 
L 352.612463 -195.538011 
L 348.000893 -195.538011 
L 343.389322 -195.538011 
L 338.777752 -195.538011 
L 334.166182 -195.538011 
L 329.554612 -195.538011 
L 324.943041 -195.538011 
L 320.331471 -195.538011 
L 315.719901 -195.538011 
L 311.108331 -195.538011 
L 306.49676 -195.538011 
L 301.88519 -195.538011 
L 297.27362 -195.538011 
L 292.66205 -195.538011 
L 288.050479 -195.538011 
L 283.438909 -195.538011 
L 278.827339 -195.538011 
L 274.215769 -195.538011 
L 269.604198 -195.538011 
L 264.992628 -195.538011 
L 260.381058 -195.538011 
L 255.769488 -195.538011 
L 251.157917 -195.538011 
L 246.546347 -195.538011 
L 241.934777 -195.538011 
L 237.323207 -195.538011 
L 232.711636 -195.538011 
L 228.100066 -195.538011 
L 223.488496 -195.538011 
L 218.876926 -195.538011 
L 214.265355 -195.538011 
L 209.653785 -195.538011 
L 205.042215 -195.538011 
L 200.430645 -195.538011 
L 195.819075 -195.538011 
L 191.207504 -195.538011 
L 186.595934 -195.538011 
L 181.984364 -195.538011 
L 177.372794 -195.538011 
L 172.761223 -195.538011 
L 168.149653 -195.538011 
L 163.538083 -195.538011 
L 158.926513 -195.538011 
L 154.314942 -195.538011 
L 149.703372 -195.538011 
L 145.091802 -195.538011 
L 140.480232 -195.538011 
L 135.868661 -195.538011 
L 131.257091 -195.538011 
L 126.645521 -195.538011 
L 122.033951 -195.538011 
L 117.42238 -195.538011 
L 112.81081 -195.538011 
L 108.19924 -195.538011 
L 103.58767 -195.538011 
L 98.976099 -195.538011 
L 94.364529 -195.538011 
L 89.752959 -195.538011 
L 85.141389 -195.538011 
L 80.529818 -195.538011 
L 75.918248 -195.538011 
L 71.306678 -195.538011 
L 66.695108 -195.538011 
z
" id="m3cc51387b3" style="stroke:#ff6384;stroke-opacity:0.5;"/>
    </defs>
    <g clip-path="url(#pf458d015b4)">
     <use style="fill:#ff6384;fill-opacity:0.5;stroke:#ff6384;stroke-opacity:0.5;" x="0" xlink:href="#m3cc51387b3" y="581.789375"/>
    </g>
   </g>
   <g id="PolyCollection_2">
    <defs>
     <path d="M 95.706416 -195.538011 
L 95.706416 -195.650004 
L 99.896596 -195.692234 
L 104.086776 -195.749007 
L 108.276956 -195.8248 
L 112.467135 -195.925281 
L 116.657315 -196.057565 
L 120.847495 -196.230497 
L 125.037675 -196.454982 
L 129.227855 -196.744335 
L 133.418035 -197.114666 
L 137.608215 -197.585273 
L 141.798395 -198.179047 
L 145.988575 -198.922859 
L 150.178755 -199.847921 
L 154.368935 -200.990079 
L 158.559115 -202.390029 
L 162.749295 -204.093399 
L 166.939475 -206.150691 
L 171.129655 -208.617009 
L 175.319835 -211.551575 
L 179.510015 -215.016962 
L 183.700195 -219.078053 
L 187.890375 -223.800667 
L 192.080555 -229.249878 
L 196.270734 -235.488004 
L 200.460914 -242.572312 
L 204.651094 -250.552459 
L 208.841274 -259.467747 
L 213.031454 -269.344261 
L 217.221634 -280.192004 
L 221.411814 -292.002137 
L 225.601994 -304.744465 
L 229.792174 -318.365297 
L 233.982354 -332.785841 
L 238.172534 -347.901251 
L 242.362714 -363.580456 
L 246.552894 -379.666871 
L 250.743074 -395.980052 
L 254.933254 -412.31833 
L 259.123434 -428.4624 
L 263.313614 -444.179822 
L 267.503794 -459.230303 
L 271.693974 -473.371627 
L 275.884154 -486.366018 
L 280.074334 -497.986726 
L 284.264513 -508.02457 
L 288.454693 -516.294181 
L 292.644873 -522.639693 
L 296.835053 -526.939623 
L 301.025233 -529.110739 
L 305.215413 -529.110739 
L 309.405593 -526.939623 
L 313.595773 -522.639693 
L 317.785953 -516.294181 
L 321.976133 -508.02457 
L 326.166313 -497.986726 
L 330.356493 -486.366018 
L 334.546673 -473.371627 
L 338.736853 -459.230303 
L 342.927033 -444.179822 
L 347.117213 -428.4624 
L 351.307393 -412.31833 
L 355.497573 -395.980052 
L 359.687753 -379.666871 
L 363.877933 -363.580456 
L 368.068112 -347.901251 
L 372.258292 -332.785841 
L 376.448472 -318.365297 
L 380.638652 -304.744465 
L 384.828832 -292.002137 
L 389.019012 -280.192004 
L 393.209192 -269.344261 
L 397.399372 -259.467747 
L 401.589552 -250.552459 
L 405.779732 -242.572312 
L 409.969912 -235.488004 
L 414.160092 -229.249878 
L 418.350272 -223.800667 
L 422.540452 -219.078053 
L 426.730632 -215.016962 
L 430.920812 -211.551575 
L 435.110992 -208.617009 
L 439.301172 -206.150691 
L 443.491352 -204.093399 
L 447.681532 -202.390029 
L 451.871711 -200.990079 
L 456.061891 -199.847921 
L 460.252071 -198.922859 
L 464.442251 -198.179047 
L 468.632431 -197.585273 
L 472.822611 -197.114666 
L 477.012791 -196.744335 
L 481.202971 -196.454982 
L 485.393151 -196.230497 
L 489.583331 -196.057565 
L 493.773511 -195.925281 
L 497.963691 -195.8248 
L 502.153871 -195.749007 
L 506.344051 -195.692234 
L 510.534231 -195.650004 
L 510.534231 -195.538011 
L 510.534231 -195.538011 
L 506.344051 -195.538011 
L 502.153871 -195.538011 
L 497.963691 -195.538011 
L 493.773511 -195.538011 
L 489.583331 -195.538011 
L 485.393151 -195.538011 
L 481.202971 -195.538011 
L 477.012791 -195.538011 
L 472.822611 -195.538011 
L 468.632431 -195.538011 
L 464.442251 -195.538011 
L 460.252071 -195.538011 
L 456.061891 -195.538011 
L 451.871711 -195.538011 
L 447.681532 -195.538011 
L 443.491352 -195.538011 
L 439.301172 -195.538011 
L 435.110992 -195.538011 
L 430.920812 -195.538011 
L 426.730632 -195.538011 
L 422.540452 -195.538011 
L 418.350272 -195.538011 
L 414.160092 -195.538011 
L 409.969912 -195.538011 
L 405.779732 -195.538011 
L 401.589552 -195.538011 
L 397.399372 -195.538011 
L 393.209192 -195.538011 
L 389.019012 -195.538011 
L 384.828832 -195.538011 
L 380.638652 -195.538011 
L 376.448472 -195.538011 
L 372.258292 -195.538011 
L 368.068112 -195.538011 
L 363.877933 -195.538011 
L 359.687753 -195.538011 
L 355.497573 -195.538011 
L 351.307393 -195.538011 
L 347.117213 -195.538011 
L 342.927033 -195.538011 
L 338.736853 -195.538011 
L 334.546673 -195.538011 
L 330.356493 -195.538011 
L 326.166313 -195.538011 
L 321.976133 -195.538011 
L 317.785953 -195.538011 
L 313.595773 -195.538011 
L 309.405593 -195.538011 
L 305.215413 -195.538011 
L 301.025233 -195.538011 
L 296.835053 -195.538011 
L 292.644873 -195.538011 
L 288.454693 -195.538011 
L 284.264513 -195.538011 
L 280.074334 -195.538011 
L 275.884154 -195.538011 
L 271.693974 -195.538011 
L 267.503794 -195.538011 
L 263.313614 -195.538011 
L 259.123434 -195.538011 
L 254.933254 -195.538011 
L 250.743074 -195.538011 
L 246.552894 -195.538011 
L 242.362714 -195.538011 
L 238.172534 -195.538011 
L 233.982354 -195.538011 
L 229.792174 -195.538011 
L 225.601994 -195.538011 
L 221.411814 -195.538011 
L 217.221634 -195.538011 
L 213.031454 -195.538011 
L 208.841274 -195.538011 
L 204.651094 -195.538011 
L 200.460914 -195.538011 
L 196.270734 -195.538011 
L 192.080555 -195.538011 
L 187.890375 -195.538011 
L 183.700195 -195.538011 
L 179.510015 -195.538011 
L 175.319835 -195.538011 
L 171.129655 -195.538011 
L 166.939475 -195.538011 
L 162.749295 -195.538011 
L 158.559115 -195.538011 
L 154.368935 -195.538011 
L 150.178755 -195.538011 
L 145.988575 -195.538011 
L 141.798395 -195.538011 
L 137.608215 -195.538011 
L 133.418035 -195.538011 
L 129.227855 -195.538011 
L 125.037675 -195.538011 
L 120.847495 -195.538011 
L 116.657315 -195.538011 
L 112.467135 -195.538011 
L 108.276956 -195.538011 
L 104.086776 -195.538011 
L 99.896596 -195.538011 
L 95.706416 -195.538011 
z
" id="m3fe3ce3700" style="stroke:#36a2eb;stroke-opacity:0.5;"/>
    </defs>
    <g clip-path="url(#pf458d015b4)">
     <use style="fill:#36a2eb;fill-opacity:0.5;stroke:#36a2eb;stroke-opacity:0.5;" x="0" xlink:href="#m3fe3ce3700" y="581.789375"/>
    </g>
   </g>
   <g id="line2d_1">
    <path clip-path="url(#pf458d015b4)" d="M 66.695108 386.149605 
L 71.306678 386.111233 
L 75.918248 386.059648 
L 80.529818 385.990781 
L 85.141389 385.899481 
L 89.752959 385.779285 
L 94.364529 385.622155 
L 98.976099 385.418183 
L 103.58767 385.15527 
L 108.19924 384.818779 
L 112.81081 384.391174 
L 117.42238 383.851658 
L 122.033951 383.175812 
L 126.645521 382.33528 
L 131.257091 381.297488 
L 135.868661 380.025461 
L 140.480232 378.477739 
L 145.091802 376.608436 
L 149.703372 374.367482 
L 154.314942 371.701068 
L 158.926513 368.552336 
L 163.538083 364.862335 
L 168.149653 360.571257 
L 172.761223 355.619978 
L 177.372794 349.951871 
L 181.984364 343.514904 
L 186.595934 336.263957 
L 191.207504 328.16332 
L 195.819075 319.18929 
L 200.430645 309.332778 
L 205.042215 298.601816 
L 209.653785 287.023841 
L 214.265355 274.647636 
L 218.876926 261.544794 
L 223.488496 247.810582 
L 228.100066 233.564092 
L 232.711636 218.947601 
L 237.323207 204.125065 
L 241.934777 189.279726 
L 246.546347 174.610848 
L 251.157917 160.329634 
L 255.769488 146.654416 
L 260.381058 133.805281 
L 264.992628 121.998275 
L 269.604198 111.439429 
L 274.215769 102.318811 
L 278.827339 94.80485 
L 283.438909 89.03917 
L 288.050479 85.132154 
L 292.66205 83.159428 
L 297.27362 83.159428 
L 301.88519 85.132154 
L 306.49676 89.03917 
L 311.108331 94.80485 
L 315.719901 102.318811 
L 320.331471 111.439429 
L 324.943041 121.998275 
L 329.554612 133.805281 
L 334.166182 146.654416 
L 338.777752 160.329634 
L 343.389322 174.610848 
L 348.000893 189.279726 
L 352.612463 204.125065 
L 357.224033 218.947601 
L 361.835603 233.564092 
L 366.447174 247.810582 
L 371.058744 261.544794 
L 375.670314 274.647636 
L 380.281884 287.023841 
L 384.893455 298.601816 
L 389.505025 309.332778 
L 394.116595 319.18929 
L 398.728165 328.16332 
L 403.339736 336.263957 
L 407.951306 343.514904 
L 412.562876 349.951871 
L 417.174446 355.619978 
L 421.786017 360.571257 
L 426.397587 364.862335 
L 431.009157 368.552336 
L 435.620727 371.701068 
L 440.232298 374.367482 
L 444.843868 376.608436 
L 449.455438 378.477739 
L 454.067008 380.025461 
L 458.678579 381.297488 
L 463.290149 382.33528 
L 467.901719 383.175812 
L 472.513289 383.851658 
L 477.12486 384.391174 
L 481.73643 384.818779 
L 486.348 385.15527 
L 490.95957 385.418183 
L 495.571141 385.622155 
L 500.182711 385.779285 
L 504.794281 385.899481 
L 509.405851 385.990781 
L 514.017422 386.059648 
L 518.628992 386.111233 
L 523.240562 386.149605 
" style="fill:none;stroke:#ff6384;stroke-linecap:square;"/>
   </g>
   <g id="line2d_2">
    <path clip-path="url(#pf458d015b4)" d="M 95.706416 386.139371 
L 99.896596 386.097141 
L 104.086776 386.040368 
L 108.276956 385.964575 
L 112.467135 385.864094 
L 116.657315 385.73181 
L 120.847495 385.558878 
L 125.037675 385.334393 
L 129.227855 385.04504 
L 133.418035 384.674709 
L 137.608215 384.204102 
L 141.798395 383.610328 
L 145.988575 382.866516 
L 150.178755 381.941454 
L 154.368935 380.799296 
L 158.559115 379.399346 
L 162.749295 377.695976 
L 166.939475 375.638684 
L 171.129655 373.172366 
L 175.319835 370.2378 
L 179.510015 366.772413 
L 183.700195 362.711322 
L 187.890375 357.988708 
L 192.080555 352.539497 
L 196.270734 346.301371 
L 200.460914 339.217063 
L 204.651094 331.236916 
L 208.841274 322.321628 
L 213.031454 312.445114 
L 217.221634 301.597371 
L 221.411814 289.787238 
L 225.601994 277.04491 
L 229.792174 263.424078 
L 233.982354 249.003534 
L 238.172534 233.888124 
L 242.362714 218.208919 
L 246.552894 202.122504 
L 250.743074 185.809323 
L 254.933254 169.471045 
L 259.123434 153.326975 
L 263.313614 137.609553 
L 267.503794 122.559072 
L 271.693974 108.417748 
L 275.884154 95.423357 
L 280.074334 83.802649 
L 284.264513 73.764805 
L 288.454693 65.495194 
L 292.644873 59.149682 
L 296.835053 54.849752 
L 301.025233 52.678636 
L 305.215413 52.678636 
L 309.405593 54.849752 
L 313.595773 59.149682 
L 317.785953 65.495194 
L 321.976133 73.764805 
L 326.166313 83.802649 
L 330.356493 95.423357 
L 334.546673 108.417748 
L 338.736853 122.559072 
L 342.927033 137.609553 
L 347.117213 153.326975 
L 351.307393 169.471045 
L 355.497573 185.809323 
L 359.687753 202.122504 
L 363.877933 218.208919 
L 368.068112 233.888124 
L 372.258292 249.003534 
L 376.448472 263.424078 
L 380.638652 277.04491 
L 384.828832 289.787238 
L 389.019012 301.597371 
L 393.209192 312.445114 
L 397.399372 322.321628 
L 401.589552 331.236916 
L 405.779732 339.217063 
L 409.969912 346.301371 
L 414.160092 352.539497 
L 418.350272 357.988708 
L 422.540452 362.711322 
L 426.730632 366.772413 
L 430.920812 370.2378 
L 435.110992 373.172366 
L 439.301172 375.638684 
L 443.491352 377.695976 
L 447.681532 379.399346 
L 451.871711 380.799296 
L 456.061891 381.941454 
L 460.252071 382.866516 
L 464.442251 383.610328 
L 468.632431 384.204102 
L 472.822611 384.674709 
L 477.012791 385.04504 
L 481.202971 385.334393 
L 485.393151 385.558878 
L 489.583331 385.73181 
L 493.773511 385.864094 
L 497.963691 385.964575 
L 502.153871 386.040368 
L 506.344051 386.097141 
L 510.534231 386.139371 
" style="fill:none;stroke:#36a2eb;stroke-linecap:square;"/>
   </g>
   <g id="patch_3">
    <path d="M 43.867835 402.93 
L 546.067835 402.93 
" style="fill:none;stroke:#000000;stroke-linecap:square;stroke-linejoin:miter;stroke-width:0.8;"/>
   </g>
   <g id="legend_1">
    <g id="patch_4">
     <path d="M 458.093147 88.29875 
L 536.267835 88.29875 
Q 539.067835 88.29875 539.067835 85.49875 
L 539.067835 45.8 
Q 539.067835 43 536.267835 43 
L 458.093147 43 
Q 455.293147 43 455.293147 45.8 
L 455.293147 85.49875 
Q 455.293147 88.29875 458.093147 88.29875 
z
" style="fill:#ffffff;opacity:0.8;stroke:#cccccc;stroke-linejoin:miter;"/>
    </g>
    <g id="patch_5">
     <path d="M 460.893147 59.237813 
L 488.893147 59.237813 
L 488.893147 49.437813 
L 460.893147 49.437813 
z
" style="fill:#ff6384;opacity:0.5;stroke:#ff6384;stroke-linejoin:miter;"/>
    </g>
    <g id="text_1">
     <!-- base -->
     <defs>
      <path d="M 48.6875 27.296875 
Q 48.6875 37.203125 44.609375 42.84375 
Q 40.53125 48.484375 33.40625 48.484375 
Q 26.265625 48.484375 22.1875 42.84375 
Q 18.109375 37.203125 18.109375 27.296875 
Q 18.109375 17.390625 22.1875 11.75 
Q 26.265625 6.109375 33.40625 6.109375 
Q 40.53125 6.109375 44.609375 11.75 
Q 48.6875 17.390625 48.6875 27.296875 
z
M 18.109375 46.390625 
Q 20.953125 51.265625 25.265625 53.625 
Q 29.59375 56 35.59375 56 
Q 45.5625 56 51.78125 48.09375 
Q 58.015625 40.1875 58.015625 27.296875 
Q 58.015625 14.40625 51.78125 6.484375 
Q 45.5625 -1.421875 35.59375 -1.421875 
Q 29.59375 -1.421875 25.265625 0.953125 
Q 20.953125 3.328125 18.109375 8.203125 
L 18.109375 0 
L 9.078125 0 
L 9.078125 75.984375 
L 18.109375 75.984375 
z
" id="DejaVuSans-98"/>
      <path d="M 34.28125 27.484375 
Q 23.390625 27.484375 19.1875 25 
Q 14.984375 22.515625 14.984375 16.5 
Q 14.984375 11.71875 18.140625 8.90625 
Q 21.296875 6.109375 26.703125 6.109375 
Q 34.1875 6.109375 38.703125 11.40625 
Q 43.21875 16.703125 43.21875 25.484375 
L 43.21875 27.484375 
z
M 52.203125 31.203125 
L 52.203125 0 
L 43.21875 0 
L 43.21875 8.296875 
Q 40.140625 3.328125 35.546875 0.953125 
Q 30.953125 -1.421875 24.3125 -1.421875 
Q 15.921875 -1.421875 10.953125 3.296875 
Q 6 8.015625 6 15.921875 
Q 6 25.140625 12.171875 29.828125 
Q 18.359375 34.515625 30.609375 34.515625 
L 43.21875 34.515625 
L 43.21875 35.40625 
Q 43.21875 41.609375 39.140625 45 
Q 35.0625 48.390625 27.6875 48.390625 
Q 23 48.390625 18.546875 47.265625 
Q 14.109375 46.140625 10.015625 43.890625 
L 10.015625 52.203125 
Q 14.9375 54.109375 19.578125 55.046875 
Q 24.21875 56 28.609375 56 
Q 40.484375 56 46.34375 49.84375 
Q 52.203125 43.703125 52.203125 31.203125 
z
" id="DejaVuSans-97"/>
      <path d="M 44.28125 53.078125 
L 44.28125 44.578125 
Q 40.484375 46.53125 36.375 47.5 
Q 32.28125 48.484375 27.875 48.484375 
Q 21.1875 48.484375 17.84375 46.4375 
Q 14.5 44.390625 14.5 40.28125 
Q 14.5 37.15625 16.890625 35.375 
Q 19.28125 33.59375 26.515625 31.984375 
L 29.59375 31.296875 
Q 39.15625 29.25 43.1875 25.515625 
Q 47.21875 21.78125 47.21875 15.09375 
Q 47.21875 7.46875 41.1875 3.015625 
Q 35.15625 -1.421875 24.609375 -1.421875 
Q 20.21875 -1.421875 15.453125 -0.5625 
Q 10.6875 0.296875 5.421875 2 
L 5.421875 11.28125 
Q 10.40625 8.6875 15.234375 7.390625 
Q 20.0625 6.109375 24.8125 6.109375 
Q 31.15625 6.109375 34.5625 8.28125 
Q 37.984375 10.453125 37.984375 14.40625 
Q 37.984375 18.0625 35.515625 20.015625 
Q 33.0625 21.96875 24.703125 23.78125 
L 21.578125 24.515625 
Q 13.234375 26.265625 9.515625 29.90625 
Q 5.8125 33.546875 5.8125 39.890625 
Q 5.8125 47.609375 11.28125 51.796875 
Q 16.75 56 26.8125 56 
Q 31.78125 56 36.171875 55.265625 
Q 40.578125 54.546875 44.28125 53.078125 
z
" id="DejaVuSans-115"/>
      <path d="M 56.203125 29.59375 
L 56.203125 25.203125 
L 14.890625 25.203125 
Q 15.484375 15.921875 20.484375 11.0625 
Q 25.484375 6.203125 34.421875 6.203125 
Q 39.59375 6.203125 44.453125 7.46875 
Q 49.3125 8.734375 54.109375 11.28125 
L 54.109375 2.78125 
Q 49.265625 0.734375 44.1875 -0.34375 
Q 39.109375 -1.421875 33.890625 -1.421875 
Q 20.796875 -1.421875 13.15625 6.1875 
Q 5.515625 13.8125 5.515625 26.8125 
Q 5.515625 40.234375 12.765625 48.109375 
Q 20.015625 56 32.328125 56 
Q 43.359375 56 49.78125 48.890625 
Q 56.203125 41.796875 56.203125 29.59375 
z
M 47.21875 32.234375 
Q 47.125 39.59375 43.09375 43.984375 
Q 39.0625 48.390625 32.421875 48.390625 
Q 24.90625 48.390625 20.390625 44.140625 
Q 15.875 39.890625 15.1875 32.171875 
z
" id="DejaVuSans-101"/>
     </defs>
     <g transform="translate(500.093147 59.237813)scale(0.14 -0.14)">
      <use xlink:href="#DejaVuSans-98"/>
      <use x="63.476562" xlink:href="#DejaVuSans-97"/>
      <use x="124.755859" xlink:href="#DejaVuSans-115"/>
      <use x="176.855469" xlink:href="#DejaVuSans-101"/>
     </g>
    </g>
    <g id="patch_6">
     <path d="M 460.893147 79.787188 
L 488.893147 79.787188 
L 488.893147 69.987188 
L 460.893147 69.987188 
z
" style="fill:#36a2eb;opacity:0.5;stroke:#36a2eb;stroke-linejoin:miter;"/>
    </g>
    <g id="text_2">
     <!-- new -->
     <defs>
      <path d="M 54.890625 33.015625 
L 54.890625 0 
L 45.90625 0 
L 45.90625 32.71875 
Q 45.90625 40.484375 42.875 44.328125 
Q 39.84375 48.1875 33.796875 48.1875 
Q 26.515625 48.1875 22.3125 43.546875 
Q 18.109375 38.921875 18.109375 30.90625 
L 18.109375 0 
L 9.078125 0 
L 9.078125 54.6875 
L 18.109375 54.6875 
L 18.109375 46.1875 
Q 21.34375 51.125 25.703125 53.5625 
Q 30.078125 56 35.796875 56 
Q 45.21875 56 50.046875 50.171875 
Q 54.890625 44.34375 54.890625 33.015625 
z
" id="DejaVuSans-110"/>
      <path d="M 4.203125 54.6875 
L 13.1875 54.6875 
L 24.421875 12.015625 
L 35.59375 54.6875 
L 46.1875 54.6875 
L 57.421875 12.015625 
L 68.609375 54.6875 
L 77.59375 54.6875 
L 63.28125 0 
L 52.6875 0 
L 40.921875 44.828125 
L 29.109375 0 
L 18.5 0 
z
" id="DejaVuSans-119"/>
     </defs>
     <g transform="translate(500.093147 79.787188)scale(0.14 -0.14)">
      <use xlink:href="#DejaVuSans-110"/>
      <use x="63.378906" xlink:href="#DejaVuSans-101"/>
      <use x="124.902344" xlink:href="#DejaVuSans-119"/>
     </g>
    </g>
   </g>
  </g>
  <g id="axes_2">
   <g id="patch_7">
    <path d="M 43.867835 525.24 
L 546.067835 525.24 
L 546.067835 402.93 
L 43.867835 402.93 
z
" style="fill:none;"/>
   </g>
   <g id="patch_8">
    <path clip-path="url(#p15a816af0e)" d="M 183.114198 519.680455 
L 406.821471 519.680455 
L 406.821471 482.616818 
L 183.114198 482.616818 
z
" style="fill:#ff6384;opacity:0.5;"/>
   </g>
   <g id="patch_9">
    <path clip-path="url(#p15a816af0e)" d="M 201.487509 445.553182 
L 404.753138 445.553182 
L 404.753138 408.489545 
L 201.487509 408.489545 
z
" style="fill:#36a2eb;opacity:0.5;"/>
   </g>
   <g id="matplotlib.axis_1">
    <g id="xtick_1">
     <g id="line2d_3">
      <defs>
       <path d="M 0 0 
L 0 3.5 
" id="mc42e189c4a" style="stroke:#000000;stroke-width:0.8;"/>
      </defs>
      <g>
       <use style="stroke:#000000;stroke-width:0.8;" x="47.132187" xlink:href="#mc42e189c4a" y="525.24"/>
      </g>
     </g>
     <g id="text_3">
      <!-- 2.0 -->
      <defs>
       <path d="M 19.1875 8.296875 
L 53.609375 8.296875 
L 53.609375 0 
L 7.328125 0 
L 7.328125 8.296875 
Q 12.9375 14.109375 22.625 23.890625 
Q 32.328125 33.6875 34.8125 36.53125 
Q 39.546875 41.84375 41.421875 45.53125 
Q 43.3125 49.21875 43.3125 52.78125 
Q 43.3125 58.59375 39.234375 62.25 
Q 35.15625 65.921875 28.609375 65.921875 
Q 23.96875 65.921875 18.8125 64.3125 
Q 13.671875 62.703125 7.8125 59.421875 
L 7.8125 69.390625 
Q 13.765625 71.78125 18.9375 73 
Q 24.125 74.21875 28.421875 74.21875 
Q 39.75 74.21875 46.484375 68.546875 
Q 53.21875 62.890625 53.21875 53.421875 
Q 53.21875 48.921875 51.53125 44.890625 
Q 49.859375 40.875 45.40625 35.40625 
Q 44.1875 33.984375 37.640625 27.21875 
Q 31.109375 20.453125 19.1875 8.296875 
z
" id="DejaVuSans-50"/>
       <path d="M 10.6875 12.40625 
L 21 12.40625 
L 21 0 
L 10.6875 0 
z
" id="DejaVuSans-46"/>
       <path d="M 31.78125 66.40625 
Q 24.171875 66.40625 20.328125 58.90625 
Q 16.5 51.421875 16.5 36.375 
Q 16.5 21.390625 20.328125 13.890625 
Q 24.171875 6.390625 31.78125 6.390625 
Q 39.453125 6.390625 43.28125 13.890625 
Q 47.125 21.390625 47.125 36.375 
Q 47.125 51.421875 43.28125 58.90625 
Q 39.453125 66.40625 31.78125 66.40625 
z
M 31.78125 74.21875 
Q 44.046875 74.21875 50.515625 64.515625 
Q 56.984375 54.828125 56.984375 36.375 
Q 56.984375 17.96875 50.515625 8.265625 
Q 44.046875 -1.421875 31.78125 -1.421875 
Q 19.53125 -1.421875 13.0625 8.265625 
Q 6.59375 17.96875 6.59375 36.375 
Q 6.59375 54.828125 13.0625 64.515625 
Q 19.53125 74.21875 31.78125 74.21875 
z
" id="DejaVuSans-48"/>
      </defs>
      <g transform="translate(36 542.877813)scale(0.14 -0.14)">
       <use xlink:href="#DejaVuSans-50"/>
       <use x="63.623047" xlink:href="#DejaVuSans-46"/>
       <use x="95.410156" xlink:href="#DejaVuSans-48"/>
      </g>
     </g>
    </g>
    <g id="xtick_2">
     <g id="line2d_4">
      <g>
       <use style="stroke:#000000;stroke-width:0.8;" x="128.657071" xlink:href="#mc42e189c4a" y="525.24"/>
      </g>
     </g>
     <g id="text_4">
      <!-- 2.5 -->
      <defs>
       <path d="M 10.796875 72.90625 
L 49.515625 72.90625 
L 49.515625 64.59375 
L 19.828125 64.59375 
L 19.828125 46.734375 
Q 21.96875 47.46875 24.109375 47.828125 
Q 26.265625 48.1875 28.421875 48.1875 
Q 40.625 48.1875 47.75 41.5 
Q 54.890625 34.8125 54.890625 23.390625 
Q 54.890625 11.625 47.5625 5.09375 
Q 40.234375 -1.421875 26.90625 -1.421875 
Q 22.3125 -1.421875 17.546875 -0.640625 
Q 12.796875 0.140625 7.71875 1.703125 
L 7.71875 11.625 
Q 12.109375 9.234375 16.796875 8.0625 
Q 21.484375 6.890625 26.703125 6.890625 
Q 35.15625 6.890625 40.078125 11.328125 
Q 45.015625 15.765625 45.015625 23.390625 
Q 45.015625 31 40.078125 35.4375 
Q 35.15625 39.890625 26.703125 39.890625 
Q 22.75 39.890625 18.8125 39.015625 
Q 14.890625 38.140625 10.796875 36.28125 
z
" id="DejaVuSans-53"/>
      </defs>
      <g transform="translate(117.524884 542.877813)scale(0.14 -0.14)">
       <use xlink:href="#DejaVuSans-50"/>
       <use x="63.623047" xlink:href="#DejaVuSans-46"/>
       <use x="95.410156" xlink:href="#DejaVuSans-53"/>
      </g>
     </g>
    </g>
    <g id="xtick_3">
     <g id="line2d_5">
      <g>
       <use style="stroke:#000000;stroke-width:0.8;" x="210.181955" xlink:href="#mc42e189c4a" y="525.24"/>
      </g>
     </g>
     <g id="text_5">
      <!-- 3.0 -->
      <defs>
       <path d="M 40.578125 39.3125 
Q 47.65625 37.796875 51.625 33 
Q 55.609375 28.21875 55.609375 21.1875 
Q 55.609375 10.40625 48.1875 4.484375 
Q 40.765625 -1.421875 27.09375 -1.421875 
Q 22.515625 -1.421875 17.65625 -0.515625 
Q 12.796875 0.390625 7.625 2.203125 
L 7.625 11.71875 
Q 11.71875 9.328125 16.59375 8.109375 
Q 21.484375 6.890625 26.8125 6.890625 
Q 36.078125 6.890625 40.9375 10.546875 
Q 45.796875 14.203125 45.796875 21.1875 
Q 45.796875 27.640625 41.28125 31.265625 
Q 36.765625 34.90625 28.71875 34.90625 
L 20.21875 34.90625 
L 20.21875 43.015625 
L 29.109375 43.015625 
Q 36.375 43.015625 40.234375 45.921875 
Q 44.09375 48.828125 44.09375 54.296875 
Q 44.09375 59.90625 40.109375 62.90625 
Q 36.140625 65.921875 28.71875 65.921875 
Q 24.65625 65.921875 20.015625 65.03125 
Q 15.375 64.15625 9.8125 62.3125 
L 9.8125 71.09375 
Q 15.4375 72.65625 20.34375 73.4375 
Q 25.25 74.21875 29.59375 74.21875 
Q 40.828125 74.21875 47.359375 69.109375 
Q 53.90625 64.015625 53.90625 55.328125 
Q 53.90625 49.265625 50.4375 45.09375 
Q 46.96875 40.921875 40.578125 39.3125 
z
" id="DejaVuSans-51"/>
      </defs>
      <g transform="translate(199.049768 542.877813)scale(0.14 -0.14)">
       <use xlink:href="#DejaVuSans-51"/>
       <use x="63.623047" xlink:href="#DejaVuSans-46"/>
       <use x="95.410156" xlink:href="#DejaVuSans-48"/>
      </g>
     </g>
    </g>
    <g id="xtick_4">
     <g id="line2d_6">
      <g>
       <use style="stroke:#000000;stroke-width:0.8;" x="291.706839" xlink:href="#mc42e189c4a" y="525.24"/>
      </g>
     </g>
     <g id="text_6">
      <!-- 3.5 -->
      <g transform="translate(280.574652 542.877813)scale(0.14 -0.14)">
       <use xlink:href="#DejaVuSans-51"/>
       <use x="63.623047" xlink:href="#DejaVuSans-46"/>
       <use x="95.410156" xlink:href="#DejaVuSans-53"/>
      </g>
     </g>
    </g>
    <g id="xtick_5">
     <g id="line2d_7">
      <g>
       <use style="stroke:#000000;stroke-width:0.8;" x="373.231723" xlink:href="#mc42e189c4a" y="525.24"/>
      </g>
     </g>
     <g id="text_7">
      <!-- 4.0 -->
      <defs>
       <path d="M 37.796875 64.3125 
L 12.890625 25.390625 
L 37.796875 25.390625 
z
M 35.203125 72.90625 
L 47.609375 72.90625 
L 47.609375 25.390625 
L 58.015625 25.390625 
L 58.015625 17.1875 
L 47.609375 17.1875 
L 47.609375 0 
L 37.796875 0 
L 37.796875 17.1875 
L 4.890625 17.1875 
L 4.890625 26.703125 
z
" id="DejaVuSans-52"/>
      </defs>
      <g transform="translate(362.099536 542.877813)scale(0.14 -0.14)">
       <use xlink:href="#DejaVuSans-52"/>
       <use x="63.623047" xlink:href="#DejaVuSans-46"/>
       <use x="95.410156" xlink:href="#DejaVuSans-48"/>
      </g>
     </g>
    </g>
    <g id="xtick_6">
     <g id="line2d_8">
      <g>
       <use style="stroke:#000000;stroke-width:0.8;" x="454.756607" xlink:href="#mc42e189c4a" y="525.24"/>
      </g>
     </g>
     <g id="text_8">
      <!-- 4.5 -->
      <g transform="translate(443.62442 542.877813)scale(0.14 -0.14)">
       <use xlink:href="#DejaVuSans-52"/>
       <use x="63.623047" xlink:href="#DejaVuSans-46"/>
       <use x="95.410156" xlink:href="#DejaVuSans-53"/>
      </g>
     </g>
    </g>
    <g id="xtick_7">
     <g id="line2d_9">
      <g>
       <use style="stroke:#000000;stroke-width:0.8;" x="536.281491" xlink:href="#mc42e189c4a" y="525.24"/>
      </g>
     </g>
     <g id="text_9">
      <!-- 5.0 -->
      <g transform="translate(525.149304 542.877813)scale(0.14 -0.14)">
       <use xlink:href="#DejaVuSans-53"/>
       <use x="63.623047" xlink:href="#DejaVuSans-46"/>
       <use x="95.410156" xlink:href="#DejaVuSans-48"/>
      </g>
     </g>
    </g>
   </g>
   <g id="line2d_10">
    <path clip-path="url(#p15a816af0e)" d="M 294.967835 525.24 
L 294.967835 402.93 
" style="fill:none;stroke:#ff6384;stroke-dasharray:5.55,2.4;stroke-dashoffset:0;stroke-opacity:0.8;stroke-width:1.5;"/>
   </g>
   <g id="line2d_11">
    <path clip-path="url(#p15a816af0e)" d="M 303.120323 525.24 
L 303.120323 402.93 
" style="fill:none;stroke:#36a2eb;stroke-dasharray:5.55,2.4;stroke-dashoffset:0;stroke-opacity:0.8;stroke-width:1.5;"/>
   </g>
   <g id="patch_10">
    <path d="M 43.867835 525.24 
L 546.067835 525.24 
" style="fill:none;stroke:#000000;stroke-linecap:square;stroke-linejoin:miter;stroke-width:0.8;"/>
   </g>
  </g>
 </g>
 <defs>
  <clipPath id="pf458d015b4">
   <rect height="366.93" width="502.2" x="43.867835" y="36"/>
  </clipPath>
  <clipPath id="p15a816af0e">
   <rect height="122.31" width="502.2" x="43.867835" y="402.93"/>
  </clipPath>
 </defs>
</svg>
