<?xml version="1.0" encoding="utf-8" standalone="no"?>
<!DOCTYPE svg PUBLIC "-//W3C//DTD SVG 1.1//EN"
  "http://www.w3.org/Graphics/SVG/1.1/DTD/svg11.dtd">
<!-- Created with matplotlib (https://matplotlib.org/) -->
<svg height="581.789375pt" version="1.1" viewBox="0 0 582.856089 581.789375" width="582.856089pt" xmlns="http://www.w3.org/2000/svg" xmlns:xlink="http://www.w3.org/1999/xlink">
 <defs>
  <style type="text/css">
*{stroke-linecap:butt;stroke-linejoin:round;}
  </style>
 </defs>
 <g id="figure_1">
  <g id="patch_1">
   <path d="M 0 581.789375 
L 582.856089 581.789375 
L 582.856089 0 
L 0 0 
z
" style="fill:none;"/>
  </g>
  <g id="axes_1">
   <g id="patch_2">
    <path d="M 44.656089 402.93 
L 546.856089 402.93 
L 546.856089 36 
L 44.656089 36 
z
" style="fill:none;"/>
   </g>
   <g id="PolyCollection_1">
    <defs>
     <path d="M 67.483362 -195.538011 
L 67.483362 -195.639642 
L 72.094932 -195.677965 
L 76.706502 -195.729485 
L 81.318073 -195.798265 
L 85.929643 -195.889449 
L 90.541213 -196.009493 
L 95.152783 -196.166425 
L 99.764354 -196.370139 
L 104.375924 -196.63272 
L 108.987494 -196.968786 
L 113.599064 -197.39585 
L 118.210635 -197.934685 
L 122.822205 -198.609676 
L 127.433775 -199.449146 
L 132.045345 -200.485626 
L 136.656916 -201.756045 
L 141.268486 -203.301811 
L 145.880056 -205.168751 
L 150.491626 -207.406874 
L 155.103197 -210.069918 
L 159.714767 -213.21467 
L 164.326337 -216.900008 
L 168.937907 -221.185662 
L 173.549478 -226.130683 
L 178.161048 -231.791626 
L 182.772618 -238.220458 
L 187.384188 -245.462241 
L 191.995759 -253.552641 
L 196.607329 -262.515329 
L 201.218899 -272.359383 
L 205.830469 -283.076783 
L 210.44204 -294.640125 
L 215.05361 -307.000688 
L 219.66518 -320.08697 
L 224.27675 -333.803824 
L 228.888321 -348.032309 
L 233.499891 -362.630327 
L 238.111461 -377.434129 
L 242.723031 -392.260706 
L 247.334602 -406.911044 
L 251.946172 -421.174209 
L 256.557742 -434.832143 
L 261.169312 -447.665039 
L 265.780883 -459.457123 
L 270.392453 -470.002624 
L 275.004023 -479.111715 
L 279.615593 -486.616179 
L 284.227164 -492.374572 
L 288.838734 -496.276651 
L 293.450304 -498.246883 
L 298.061874 -498.246883 
L 302.673445 -496.276651 
L 307.285015 -492.374572 
L 311.896585 -486.616179 
L 316.508155 -479.111715 
L 321.119726 -470.002624 
L 325.731296 -459.457123 
L 330.342866 -447.665039 
L 334.954436 -434.832143 
L 339.566007 -421.174209 
L 344.177577 -406.911044 
L 348.789147 -392.260706 
L 353.400717 -377.434129 
L 358.012288 -362.630327 
L 362.623858 -348.032309 
L 367.235428 -333.803824 
L 371.846998 -320.08697 
L 376.458569 -307.000688 
L 381.070139 -294.640125 
L 385.681709 -283.076783 
L 390.293279 -272.359383 
L 394.90485 -262.515329 
L 399.51642 -253.552641 
L 404.12799 -245.462241 
L 408.73956 -238.220458 
L 413.351131 -231.791626 
L 417.962701 -226.130683 
L 422.574271 -221.185662 
L 427.185841 -216.900008 
L 431.797412 -213.21467 
L 436.408982 -210.069918 
L 441.020552 -207.406874 
L 445.632122 -205.168751 
L 450.243693 -203.301811 
L 454.855263 -201.756045 
L 459.466833 -200.485626 
L 464.078403 -199.449146 
L 468.689974 -198.609676 
L 473.301544 -197.934685 
L 477.913114 -197.39585 
L 482.524684 -196.968786 
L 487.136255 -196.63272 
L 491.747825 -196.370139 
L 496.359395 -196.166425 
L 500.970965 -196.009493 
L 505.582536 -195.889449 
L 510.194106 -195.798265 
L 514.805676 -195.729485 
L 519.417246 -195.677965 
L 524.028817 -195.639642 
L 524.028817 -195.538011 
L 524.028817 -195.538011 
L 519.417246 -195.538011 
L 514.805676 -195.538011 
L 510.194106 -195.538011 
L 505.582536 -195.538011 
L 500.970965 -195.538011 
L 496.359395 -195.538011 
L 491.747825 -195.538011 
L 487.136255 -195.538011 
L 482.524684 -195.538011 
L 477.913114 -195.538011 
L 473.301544 -195.538011 
L 468.689974 -195.538011 
L 464.078403 -195.538011 
L 459.466833 -195.538011 
L 454.855263 -195.538011 
L 450.243693 -195.538011 
L 445.632122 -195.538011 
L 441.020552 -195.538011 
L 436.408982 -195.538011 
L 431.797412 -195.538011 
L 427.185841 -195.538011 
L 422.574271 -195.538011 
L 417.962701 -195.538011 
L 413.351131 -195.538011 
L 408.73956 -195.538011 
L 404.12799 -195.538011 
L 399.51642 -195.538011 
L 394.90485 -195.538011 
L 390.293279 -195.538011 
L 385.681709 -195.538011 
L 381.070139 -195.538011 
L 376.458569 -195.538011 
L 371.846998 -195.538011 
L 367.235428 -195.538011 
L 362.623858 -195.538011 
L 358.012288 -195.538011 
L 353.400717 -195.538011 
L 348.789147 -195.538011 
L 344.177577 -195.538011 
L 339.566007 -195.538011 
L 334.954436 -195.538011 
L 330.342866 -195.538011 
L 325.731296 -195.538011 
L 321.119726 -195.538011 
L 316.508155 -195.538011 
L 311.896585 -195.538011 
L 307.285015 -195.538011 
L 302.673445 -195.538011 
L 298.061874 -195.538011 
L 293.450304 -195.538011 
L 288.838734 -195.538011 
L 284.227164 -195.538011 
L 279.615593 -195.538011 
L 275.004023 -195.538011 
L 270.392453 -195.538011 
L 265.780883 -195.538011 
L 261.169312 -195.538011 
L 256.557742 -195.538011 
L 251.946172 -195.538011 
L 247.334602 -195.538011 
L 242.723031 -195.538011 
L 238.111461 -195.538011 
L 233.499891 -195.538011 
L 228.888321 -195.538011 
L 224.27675 -195.538011 
L 219.66518 -195.538011 
L 215.05361 -195.538011 
L 210.44204 -195.538011 
L 205.830469 -195.538011 
L 201.218899 -195.538011 
L 196.607329 -195.538011 
L 191.995759 -195.538011 
L 187.384188 -195.538011 
L 182.772618 -195.538011 
L 178.161048 -195.538011 
L 173.549478 -195.538011 
L 168.937907 -195.538011 
L 164.326337 -195.538011 
L 159.714767 -195.538011 
L 155.103197 -195.538011 
L 150.491626 -195.538011 
L 145.880056 -195.538011 
L 141.268486 -195.538011 
L 136.656916 -195.538011 
L 132.045345 -195.538011 
L 127.433775 -195.538011 
L 122.822205 -195.538011 
L 118.210635 -195.538011 
L 113.599064 -195.538011 
L 108.987494 -195.538011 
L 104.375924 -195.538011 
L 99.764354 -195.538011 
L 95.152783 -195.538011 
L 90.541213 -195.538011 
L 85.929643 -195.538011 
L 81.318073 -195.538011 
L 76.706502 -195.538011 
L 72.094932 -195.538011 
L 67.483362 -195.538011 
z
" id="m20c30a56bd" style="stroke:#ff6384;stroke-opacity:0.5;"/>
    </defs>
    <g clip-path="url(#pe0633121ab)">
     <use style="fill:#ff6384;fill-opacity:0.5;stroke:#ff6384;stroke-opacity:0.5;" x="0" xlink:href="#m20c30a56bd" y="581.789375"/>
    </g>
   </g>
   <g id="PolyCollection_2">
    <defs>
     <path d="M 73.120362 -195.538011 
L 73.120362 -195.650004 
L 77.305246 -195.692234 
L 81.49013 -195.749007 
L 85.675014 -195.8248 
L 89.859898 -195.925281 
L 94.044783 -196.057565 
L 98.229667 -196.230497 
L 102.414551 -196.454982 
L 106.599435 -196.744335 
L 110.784319 -197.114666 
L 114.969203 -197.585273 
L 119.154088 -198.179047 
L 123.338972 -198.922859 
L 127.523856 -199.847921 
L 131.70874 -200.990079 
L 135.893624 -202.390029 
L 140.078509 -204.093399 
L 144.263393 -206.150691 
L 148.448277 -208.617009 
L 152.633161 -211.551575 
L 156.818045 -215.016962 
L 161.002929 -219.078053 
L 165.187814 -223.800667 
L 169.372698 -229.249878 
L 173.557582 -235.488004 
L 177.742466 -242.572312 
L 181.92735 -250.552459 
L 186.112234 -259.467747 
L 190.297119 -269.344261 
L 194.482003 -280.192004 
L 198.666887 -292.002137 
L 202.851771 -304.744465 
L 207.036655 -318.365297 
L 211.22154 -332.785841 
L 215.406424 -347.901251 
L 219.591308 -363.580456 
L 223.776192 -379.666871 
L 227.961076 -395.980052 
L 232.14596 -412.31833 
L 236.330845 -428.4624 
L 240.515729 -444.179822 
L 244.700613 -459.230303 
L 248.885497 -473.371627 
L 253.070381 -486.366018 
L 257.255265 -497.986726 
L 261.44015 -508.02457 
L 265.625034 -516.294181 
L 269.809918 -522.639693 
L 273.994802 -526.939623 
L 278.179686 -529.110739 
L 282.364571 -529.110739 
L 286.549455 -526.939623 
L 290.734339 -522.639693 
L 294.919223 -516.294181 
L 299.104107 -508.02457 
L 303.288991 -497.986726 
L 307.473876 -486.366018 
L 311.65876 -473.371627 
L 315.843644 -459.230303 
L 320.028528 -444.179822 
L 324.213412 -428.4624 
L 328.398296 -412.31833 
L 332.583181 -395.980052 
L 336.768065 -379.666871 
L 340.952949 -363.580456 
L 345.137833 -347.901251 
L 349.322717 -332.785841 
L 353.507602 -318.365297 
L 357.692486 -304.744465 
L 361.87737 -292.002137 
L 366.062254 -280.192004 
L 370.247138 -269.344261 
L 374.432022 -259.467747 
L 378.616907 -250.552459 
L 382.801791 -242.572312 
L 386.986675 -235.488004 
L 391.171559 -229.249878 
L 395.356443 -223.800667 
L 399.541327 -219.078053 
L 403.726212 -215.016962 
L 407.911096 -211.551575 
L 412.09598 -208.617009 
L 416.280864 -206.150691 
L 420.465748 -204.093399 
L 424.650633 -202.390029 
L 428.835517 -200.990079 
L 433.020401 -199.847921 
L 437.205285 -198.922859 
L 441.390169 -198.179047 
L 445.575053 -197.585273 
L 449.759938 -197.114666 
L 453.944822 -196.744335 
L 458.129706 -196.454982 
L 462.31459 -196.230497 
L 466.499474 -196.057565 
L 470.684358 -195.925281 
L 474.869243 -195.8248 
L 479.054127 -195.749007 
L 483.239011 -195.692234 
L 487.423895 -195.650004 
L 487.423895 -195.538011 
L 487.423895 -195.538011 
L 483.239011 -195.538011 
L 479.054127 -195.538011 
L 474.869243 -195.538011 
L 470.684358 -195.538011 
L 466.499474 -195.538011 
L 462.31459 -195.538011 
L 458.129706 -195.538011 
L 453.944822 -195.538011 
L 449.759938 -195.538011 
L 445.575053 -195.538011 
L 441.390169 -195.538011 
L 437.205285 -195.538011 
L 433.020401 -195.538011 
L 428.835517 -195.538011 
L 424.650633 -195.538011 
L 420.465748 -195.538011 
L 416.280864 -195.538011 
L 412.09598 -195.538011 
L 407.911096 -195.538011 
L 403.726212 -195.538011 
L 399.541327 -195.538011 
L 395.356443 -195.538011 
L 391.171559 -195.538011 
L 386.986675 -195.538011 
L 382.801791 -195.538011 
L 378.616907 -195.538011 
L 374.432022 -195.538011 
L 370.247138 -195.538011 
L 366.062254 -195.538011 
L 361.87737 -195.538011 
L 357.692486 -195.538011 
L 353.507602 -195.538011 
L 349.322717 -195.538011 
L 345.137833 -195.538011 
L 340.952949 -195.538011 
L 336.768065 -195.538011 
L 332.583181 -195.538011 
L 328.398296 -195.538011 
L 324.213412 -195.538011 
L 320.028528 -195.538011 
L 315.843644 -195.538011 
L 311.65876 -195.538011 
L 307.473876 -195.538011 
L 303.288991 -195.538011 
L 299.104107 -195.538011 
L 294.919223 -195.538011 
L 290.734339 -195.538011 
L 286.549455 -195.538011 
L 282.364571 -195.538011 
L 278.179686 -195.538011 
L 273.994802 -195.538011 
L 269.809918 -195.538011 
L 265.625034 -195.538011 
L 261.44015 -195.538011 
L 257.255265 -195.538011 
L 253.070381 -195.538011 
L 248.885497 -195.538011 
L 244.700613 -195.538011 
L 240.515729 -195.538011 
L 236.330845 -195.538011 
L 232.14596 -195.538011 
L 227.961076 -195.538011 
L 223.776192 -195.538011 
L 219.591308 -195.538011 
L 215.406424 -195.538011 
L 211.22154 -195.538011 
L 207.036655 -195.538011 
L 202.851771 -195.538011 
L 198.666887 -195.538011 
L 194.482003 -195.538011 
L 190.297119 -195.538011 
L 186.112234 -195.538011 
L 181.92735 -195.538011 
L 177.742466 -195.538011 
L 173.557582 -195.538011 
L 169.372698 -195.538011 
L 165.187814 -195.538011 
L 161.002929 -195.538011 
L 156.818045 -195.538011 
L 152.633161 -195.538011 
L 148.448277 -195.538011 
L 144.263393 -195.538011 
L 140.078509 -195.538011 
L 135.893624 -195.538011 
L 131.70874 -195.538011 
L 127.523856 -195.538011 
L 123.338972 -195.538011 
L 119.154088 -195.538011 
L 114.969203 -195.538011 
L 110.784319 -195.538011 
L 106.599435 -195.538011 
L 102.414551 -195.538011 
L 98.229667 -195.538011 
L 94.044783 -195.538011 
L 89.859898 -195.538011 
L 85.675014 -195.538011 
L 81.49013 -195.538011 
L 77.305246 -195.538011 
L 73.120362 -195.538011 
z
" id="m11101bfa7e" style="stroke:#36a2eb;stroke-opacity:0.5;"/>
    </defs>
    <g clip-path="url(#pe0633121ab)">
     <use style="fill:#36a2eb;fill-opacity:0.5;stroke:#36a2eb;stroke-opacity:0.5;" x="0" xlink:href="#m11101bfa7e" y="581.789375"/>
    </g>
   </g>
   <g id="line2d_1">
    <path clip-path="url(#pe0633121ab)" d="M 67.483362 386.149733 
L 72.094932 386.11141 
L 76.706502 386.05989 
L 81.318073 385.99111 
L 85.929643 385.899926 
L 90.541213 385.779882 
L 95.152783 385.62295 
L 99.764354 385.419236 
L 104.375924 385.156655 
L 108.987494 384.820589 
L 113.599064 384.393525 
L 118.210635 383.85469 
L 122.822205 383.179699 
L 127.433775 382.340229 
L 132.045345 381.303749 
L 136.656916 380.03333 
L 141.268486 378.487564 
L 145.880056 376.620624 
L 150.491626 374.382501 
L 155.103197 371.719457 
L 159.714767 368.574705 
L 164.326337 364.889367 
L 168.937907 360.603713 
L 173.549478 355.658692 
L 178.161048 349.997749 
L 182.772618 343.568917 
L 187.384188 336.327134 
L 191.995759 328.236734 
L 196.607329 319.274046 
L 201.218899 309.429992 
L 205.830469 298.712592 
L 210.44204 287.14925 
L 215.05361 274.788687 
L 219.66518 261.702405 
L 224.27675 247.985551 
L 228.888321 233.757066 
L 233.499891 219.159048 
L 238.111461 204.355246 
L 242.723031 189.528669 
L 247.334602 174.878331 
L 251.946172 160.615166 
L 256.557742 146.957232 
L 261.169312 134.124336 
L 265.780883 122.332252 
L 270.392453 111.786751 
L 275.004023 102.67766 
L 279.615593 95.173196 
L 284.227164 89.414803 
L 288.838734 85.512724 
L 293.450304 83.542492 
L 298.061874 83.542492 
L 302.673445 85.512724 
L 307.285015 89.414803 
L 311.896585 95.173196 
L 316.508155 102.67766 
L 321.119726 111.786751 
L 325.731296 122.332252 
L 330.342866 134.124336 
L 334.954436 146.957232 
L 339.566007 160.615166 
L 344.177577 174.878331 
L 348.789147 189.528669 
L 353.400717 204.355246 
L 358.012288 219.159048 
L 362.623858 233.757066 
L 367.235428 247.985551 
L 371.846998 261.702405 
L 376.458569 274.788687 
L 381.070139 287.14925 
L 385.681709 298.712592 
L 390.293279 309.429992 
L 394.90485 319.274046 
L 399.51642 328.236734 
L 404.12799 336.327134 
L 408.73956 343.568917 
L 413.351131 349.997749 
L 417.962701 355.658692 
L 422.574271 360.603713 
L 427.185841 364.889367 
L 431.797412 368.574705 
L 436.408982 371.719457 
L 441.020552 374.382501 
L 445.632122 376.620624 
L 450.243693 378.487564 
L 454.855263 380.03333 
L 459.466833 381.303749 
L 464.078403 382.340229 
L 468.689974 383.179699 
L 473.301544 383.85469 
L 477.913114 384.393525 
L 482.524684 384.820589 
L 487.136255 385.156655 
L 491.747825 385.419236 
L 496.359395 385.62295 
L 500.970965 385.779882 
L 505.582536 385.899926 
L 510.194106 385.99111 
L 514.805676 386.05989 
L 519.417246 386.11141 
L 524.028817 386.149733 
" style="fill:none;stroke:#ff6384;stroke-linecap:square;"/>
   </g>
   <g id="line2d_2">
    <path clip-path="url(#pe0633121ab)" d="M 73.120362 386.139371 
L 77.305246 386.097141 
L 81.49013 386.040368 
L 85.675014 385.964575 
L 89.859898 385.864094 
L 94.044783 385.73181 
L 98.229667 385.558878 
L 102.414551 385.334393 
L 106.599435 385.04504 
L 110.784319 384.674709 
L 114.969203 384.204102 
L 119.154088 383.610328 
L 123.338972 382.866516 
L 127.523856 381.941454 
L 131.70874 380.799296 
L 135.893624 379.399346 
L 140.078509 377.695976 
L 144.263393 375.638684 
L 148.448277 373.172366 
L 152.633161 370.2378 
L 156.818045 366.772413 
L 161.002929 362.711322 
L 165.187814 357.988708 
L 169.372698 352.539497 
L 173.557582 346.301371 
L 177.742466 339.217063 
L 181.92735 331.236916 
L 186.112234 322.321628 
L 190.297119 312.445114 
L 194.482003 301.597371 
L 198.666887 289.787238 
L 202.851771 277.04491 
L 207.036655 263.424078 
L 211.22154 249.003534 
L 215.406424 233.888124 
L 219.591308 218.208919 
L 223.776192 202.122504 
L 227.961076 185.809323 
L 232.14596 169.471045 
L 236.330845 153.326975 
L 240.515729 137.609553 
L 244.700613 122.559072 
L 248.885497 108.417748 
L 253.070381 95.423357 
L 257.255265 83.802649 
L 261.44015 73.764805 
L 265.625034 65.495194 
L 269.809918 59.149682 
L 273.994802 54.849752 
L 278.179686 52.678636 
L 282.364571 52.678636 
L 286.549455 54.849752 
L 290.734339 59.149682 
L 294.919223 65.495194 
L 299.104107 73.764805 
L 303.288991 83.802649 
L 307.473876 95.423357 
L 311.65876 108.417748 
L 315.843644 122.559072 
L 320.028528 137.609553 
L 324.213412 153.326975 
L 328.398296 169.471045 
L 332.583181 185.809323 
L 336.768065 202.122504 
L 340.952949 218.208919 
L 345.137833 233.888124 
L 349.322717 249.003534 
L 353.507602 263.424078 
L 357.692486 277.04491 
L 361.87737 289.787238 
L 366.062254 301.597371 
L 370.247138 312.445114 
L 374.432022 322.321628 
L 378.616907 331.236916 
L 382.801791 339.217063 
L 386.986675 346.301371 
L 391.171559 352.539497 
L 395.356443 357.988708 
L 399.541327 362.711322 
L 403.726212 366.772413 
L 407.911096 370.2378 
L 412.09598 373.172366 
L 416.280864 375.638684 
L 420.465748 377.695976 
L 424.650633 379.399346 
L 428.835517 380.799296 
L 433.020401 381.941454 
L 437.205285 382.866516 
L 441.390169 383.610328 
L 445.575053 384.204102 
L 449.759938 384.674709 
L 453.944822 385.04504 
L 458.129706 385.334393 
L 462.31459 385.558878 
L 466.499474 385.73181 
L 470.684358 385.864094 
L 474.869243 385.964575 
L 479.054127 386.040368 
L 483.239011 386.097141 
L 487.423895 386.139371 
" style="fill:none;stroke:#36a2eb;stroke-linecap:square;"/>
   </g>
   <g id="patch_3">
    <path d="M 44.656089 402.93 
L 546.856089 402.93 
" style="fill:none;stroke:#000000;stroke-linecap:square;stroke-linejoin:miter;stroke-width:0.8;"/>
   </g>
   <g id="legend_1">
    <g id="patch_4">
     <path d="M 458.881402 88.29875 
L 537.056089 88.29875 
Q 539.856089 88.29875 539.856089 85.49875 
L 539.856089 45.8 
Q 539.856089 43 537.056089 43 
L 458.881402 43 
Q 456.081402 43 456.081402 45.8 
L 456.081402 85.49875 
Q 456.081402 88.29875 458.881402 88.29875 
z
" style="fill:#ffffff;opacity:0.8;stroke:#cccccc;stroke-linejoin:miter;"/>
    </g>
    <g id="patch_5">
     <path d="M 461.681402 59.237813 
L 489.681402 59.237813 
L 489.681402 49.437813 
L 461.681402 49.437813 
z
" style="fill:#ff6384;opacity:0.5;stroke:#ff6384;stroke-linejoin:miter;"/>
    </g>
    <g id="text_1">
     <!-- base -->
     <defs>
      <path d="M 48.6875 27.296875 
Q 48.6875 37.203125 44.609375 42.84375 
Q 40.53125 48.484375 33.40625 48.484375 
Q 26.265625 48.484375 22.1875 42.84375 
Q 18.109375 37.203125 18.109375 27.296875 
Q 18.109375 17.390625 22.1875 11.75 
Q 26.265625 6.109375 33.40625 6.109375 
Q 40.53125 6.109375 44.609375 11.75 
Q 48.6875 17.390625 48.6875 27.296875 
z
M 18.109375 46.390625 
Q 20.953125 51.265625 25.265625 53.625 
Q 29.59375 56 35.59375 56 
Q 45.5625 56 51.78125 48.09375 
Q 58.015625 40.1875 58.015625 27.296875 
Q 58.015625 14.40625 51.78125 6.484375 
Q 45.5625 -1.421875 35.59375 -1.421875 
Q 29.59375 -1.421875 25.265625 0.953125 
Q 20.953125 3.328125 18.109375 8.203125 
L 18.109375 0 
L 9.078125 0 
L 9.078125 75.984375 
L 18.109375 75.984375 
z
" id="DejaVuSans-98"/>
      <path d="M 34.28125 27.484375 
Q 23.390625 27.484375 19.1875 25 
Q 14.984375 22.515625 14.984375 16.5 
Q 14.984375 11.71875 18.140625 8.90625 
Q 21.296875 6.109375 26.703125 6.109375 
Q 34.1875 6.109375 38.703125 11.40625 
Q 43.21875 16.703125 43.21875 25.484375 
L 43.21875 27.484375 
z
M 52.203125 31.203125 
L 52.203125 0 
L 43.21875 0 
L 43.21875 8.296875 
Q 40.140625 3.328125 35.546875 0.953125 
Q 30.953125 -1.421875 24.3125 -1.421875 
Q 15.921875 -1.421875 10.953125 3.296875 
Q 6 8.015625 6 15.921875 
Q 6 25.140625 12.171875 29.828125 
Q 18.359375 34.515625 30.609375 34.515625 
L 43.21875 34.515625 
L 43.21875 35.40625 
Q 43.21875 41.609375 39.140625 45 
Q 35.0625 48.390625 27.6875 48.390625 
Q 23 48.390625 18.546875 47.265625 
Q 14.109375 46.140625 10.015625 43.890625 
L 10.015625 52.203125 
Q 14.9375 54.109375 19.578125 55.046875 
Q 24.21875 56 28.609375 56 
Q 40.484375 56 46.34375 49.84375 
Q 52.203125 43.703125 52.203125 31.203125 
z
" id="DejaVuSans-97"/>
      <path d="M 44.28125 53.078125 
L 44.28125 44.578125 
Q 40.484375 46.53125 36.375 47.5 
Q 32.28125 48.484375 27.875 48.484375 
Q 21.1875 48.484375 17.84375 46.4375 
Q 14.5 44.390625 14.5 40.28125 
Q 14.5 37.15625 16.890625 35.375 
Q 19.28125 33.59375 26.515625 31.984375 
L 29.59375 31.296875 
Q 39.15625 29.25 43.1875 25.515625 
Q 47.21875 21.78125 47.21875 15.09375 
Q 47.21875 7.46875 41.1875 3.015625 
Q 35.15625 -1.421875 24.609375 -1.421875 
Q 20.21875 -1.421875 15.453125 -0.5625 
Q 10.6875 0.296875 5.421875 2 
L 5.421875 11.28125 
Q 10.40625 8.6875 15.234375 7.390625 
Q 20.0625 6.109375 24.8125 6.109375 
Q 31.15625 6.109375 34.5625 8.28125 
Q 37.984375 10.453125 37.984375 14.40625 
Q 37.984375 18.0625 35.515625 20.015625 
Q 33.0625 21.96875 24.703125 23.78125 
L 21.578125 24.515625 
Q 13.234375 26.265625 9.515625 29.90625 
Q 5.8125 33.546875 5.8125 39.890625 
Q 5.8125 47.609375 11.28125 51.796875 
Q 16.75 56 26.8125 56 
Q 31.78125 56 36.171875 55.265625 
Q 40.578125 54.546875 44.28125 53.078125 
z
" id="DejaVuSans-115"/>
      <path d="M 56.203125 29.59375 
L 56.203125 25.203125 
L 14.890625 25.203125 
Q 15.484375 15.921875 20.484375 11.0625 
Q 25.484375 6.203125 34.421875 6.203125 
Q 39.59375 6.203125 44.453125 7.46875 
Q 49.3125 8.734375 54.109375 11.28125 
L 54.109375 2.78125 
Q 49.265625 0.734375 44.1875 -0.34375 
Q 39.109375 -1.421875 33.890625 -1.421875 
Q 20.796875 -1.421875 13.15625 6.1875 
Q 5.515625 13.8125 5.515625 26.8125 
Q 5.515625 40.234375 12.765625 48.109375 
Q 20.015625 56 32.328125 56 
Q 43.359375 56 49.78125 48.890625 
Q 56.203125 41.796875 56.203125 29.59375 
z
M 47.21875 32.234375 
Q 47.125 39.59375 43.09375 43.984375 
Q 39.0625 48.390625 32.421875 48.390625 
Q 24.90625 48.390625 20.390625 44.140625 
Q 15.875 39.890625 15.1875 32.171875 
z
" id="DejaVuSans-101"/>
     </defs>
     <g transform="translate(500.881402 59.237813)scale(0.14 -0.14)">
      <use xlink:href="#DejaVuSans-98"/>
      <use x="63.476562" xlink:href="#DejaVuSans-97"/>
      <use x="124.755859" xlink:href="#DejaVuSans-115"/>
      <use x="176.855469" xlink:href="#DejaVuSans-101"/>
     </g>
    </g>
    <g id="patch_6">
     <path d="M 461.681402 79.787188 
L 489.681402 79.787188 
L 489.681402 69.987188 
L 461.681402 69.987188 
z
" style="fill:#36a2eb;opacity:0.5;stroke:#36a2eb;stroke-linejoin:miter;"/>
    </g>
    <g id="text_2">
     <!-- new -->
     <defs>
      <path d="M 54.890625 33.015625 
L 54.890625 0 
L 45.90625 0 
L 45.90625 32.71875 
Q 45.90625 40.484375 42.875 44.328125 
Q 39.84375 48.1875 33.796875 48.1875 
Q 26.515625 48.1875 22.3125 43.546875 
Q 18.109375 38.921875 18.109375 30.90625 
L 18.109375 0 
L 9.078125 0 
L 9.078125 54.6875 
L 18.109375 54.6875 
L 18.109375 46.1875 
Q 21.34375 51.125 25.703125 53.5625 
Q 30.078125 56 35.796875 56 
Q 45.21875 56 50.046875 50.171875 
Q 54.890625 44.34375 54.890625 33.015625 
z
" id="DejaVuSans-110"/>
      <path d="M 4.203125 54.6875 
L 13.1875 54.6875 
L 24.421875 12.015625 
L 35.59375 54.6875 
L 46.1875 54.6875 
L 57.421875 12.015625 
L 68.609375 54.6875 
L 77.59375 54.6875 
L 63.28125 0 
L 52.6875 0 
L 40.921875 44.828125 
L 29.109375 0 
L 18.5 0 
z
" id="DejaVuSans-119"/>
     </defs>
     <g transform="translate(500.881402 79.787188)scale(0.14 -0.14)">
      <use xlink:href="#DejaVuSans-110"/>
      <use x="63.378906" xlink:href="#DejaVuSans-101"/>
      <use x="124.902344" xlink:href="#DejaVuSans-119"/>
     </g>
    </g>
   </g>
  </g>
  <g id="axes_2">
   <g id="patch_7">
    <path d="M 44.656089 525.24 
L 546.856089 525.24 
L 546.856089 402.93 
L 44.656089 402.93 
z
" style="fill:none;"/>
   </g>
   <g id="patch_8">
    <path clip-path="url(#p29d2531b06)" d="M 183.902453 519.680455 
L 407.609726 519.680455 
L 407.609726 482.616818 
L 183.902453 482.616818 
z
" style="fill:#ff6384;opacity:0.5;"/>
   </g>
   <g id="patch_9">
    <path clip-path="url(#p29d2531b06)" d="M 178.767763 445.553182 
L 381.776494 445.553182 
L 381.776494 408.489545 
L 178.767763 408.489545 
z
" style="fill:#36a2eb;opacity:0.5;"/>
   </g>
   <g id="matplotlib.axis_1">
    <g id="xtick_1">
     <g id="line2d_3">
      <defs>
       <path d="M 0 0 
L 0 3.5 
" id="m00a8ab6f38" style="stroke:#000000;stroke-width:0.8;"/>
      </defs>
      <g>
       <use style="stroke:#000000;stroke-width:0.8;" x="51.585938" xlink:href="#m00a8ab6f38" y="525.24"/>
      </g>
     </g>
     <g id="text_3">
      <!-- 12.0 -->
      <defs>
       <path d="M 12.40625 8.296875 
L 28.515625 8.296875 
L 28.515625 63.921875 
L 10.984375 60.40625 
L 10.984375 69.390625 
L 28.421875 72.90625 
L 38.28125 72.90625 
L 38.28125 8.296875 
L 54.390625 8.296875 
L 54.390625 0 
L 12.40625 0 
z
" id="DejaVuSans-49"/>
       <path d="M 19.1875 8.296875 
L 53.609375 8.296875 
L 53.609375 0 
L 7.328125 0 
L 7.328125 8.296875 
Q 12.9375 14.109375 22.625 23.890625 
Q 32.328125 33.6875 34.8125 36.53125 
Q 39.546875 41.84375 41.421875 45.53125 
Q 43.3125 49.21875 43.3125 52.78125 
Q 43.3125 58.59375 39.234375 62.25 
Q 35.15625 65.921875 28.609375 65.921875 
Q 23.96875 65.921875 18.8125 64.3125 
Q 13.671875 62.703125 7.8125 59.421875 
L 7.8125 69.390625 
Q 13.765625 71.78125 18.9375 73 
Q 24.125 74.21875 28.421875 74.21875 
Q 39.75 74.21875 46.484375 68.546875 
Q 53.21875 62.890625 53.21875 53.421875 
Q 53.21875 48.921875 51.53125 44.890625 
Q 49.859375 40.875 45.40625 35.40625 
Q 44.1875 33.984375 37.640625 27.21875 
Q 31.109375 20.453125 19.1875 8.296875 
z
" id="DejaVuSans-50"/>
       <path d="M 10.6875 12.40625 
L 21 12.40625 
L 21 0 
L 10.6875 0 
z
" id="DejaVuSans-46"/>
       <path d="M 31.78125 66.40625 
Q 24.171875 66.40625 20.328125 58.90625 
Q 16.5 51.421875 16.5 36.375 
Q 16.5 21.390625 20.328125 13.890625 
Q 24.171875 6.390625 31.78125 6.390625 
Q 39.453125 6.390625 43.28125 13.890625 
Q 47.125 21.390625 47.125 36.375 
Q 47.125 51.421875 43.28125 58.90625 
Q 39.453125 66.40625 31.78125 66.40625 
z
M 31.78125 74.21875 
Q 44.046875 74.21875 50.515625 64.515625 
Q 56.984375 54.828125 56.984375 36.375 
Q 56.984375 17.96875 50.515625 8.265625 
Q 44.046875 -1.421875 31.78125 -1.421875 
Q 19.53125 -1.421875 13.0625 8.265625 
Q 6.59375 17.96875 6.59375 36.375 
Q 6.59375 54.828125 13.0625 64.515625 
Q 19.53125 74.21875 31.78125 74.21875 
z
" id="DejaVuSans-48"/>
      </defs>
      <g transform="translate(36 542.877813)scale(0.14 -0.14)">
       <use xlink:href="#DejaVuSans-49"/>
       <use x="63.623047" xlink:href="#DejaVuSans-50"/>
       <use x="127.246094" xlink:href="#DejaVuSans-46"/>
       <use x="159.033203" xlink:href="#DejaVuSans-48"/>
      </g>
     </g>
    </g>
    <g id="xtick_2">
     <g id="line2d_4">
      <g>
       <use style="stroke:#000000;stroke-width:0.8;" x="111.139633" xlink:href="#m00a8ab6f38" y="525.24"/>
      </g>
     </g>
     <g id="text_4">
      <!-- 12.5 -->
      <defs>
       <path d="M 10.796875 72.90625 
L 49.515625 72.90625 
L 49.515625 64.59375 
L 19.828125 64.59375 
L 19.828125 46.734375 
Q 21.96875 47.46875 24.109375 47.828125 
Q 26.265625 48.1875 28.421875 48.1875 
Q 40.625 48.1875 47.75 41.5 
Q 54.890625 34.8125 54.890625 23.390625 
Q 54.890625 11.625 47.5625 5.09375 
Q 40.234375 -1.421875 26.90625 -1.421875 
Q 22.3125 -1.421875 17.546875 -0.640625 
Q 12.796875 0.140625 7.71875 1.703125 
L 7.71875 11.625 
Q 12.109375 9.234375 16.796875 8.0625 
Q 21.484375 6.890625 26.703125 6.890625 
Q 35.15625 6.890625 40.078125 11.328125 
Q 45.015625 15.765625 45.015625 23.390625 
Q 45.015625 31 40.078125 35.4375 
Q 35.15625 39.890625 26.703125 39.890625 
Q 22.75 39.890625 18.8125 39.015625 
Q 14.890625 38.140625 10.796875 36.28125 
z
" id="DejaVuSans-53"/>
      </defs>
      <g transform="translate(95.553696 542.877813)scale(0.14 -0.14)">
       <use xlink:href="#DejaVuSans-49"/>
       <use x="63.623047" xlink:href="#DejaVuSans-50"/>
       <use x="127.246094" xlink:href="#DejaVuSans-46"/>
       <use x="159.033203" xlink:href="#DejaVuSans-53"/>
      </g>
     </g>
    </g>
    <g id="xtick_3">
     <g id="line2d_5">
      <g>
       <use style="stroke:#000000;stroke-width:0.8;" x="170.693329" xlink:href="#m00a8ab6f38" y="525.24"/>
      </g>
     </g>
     <g id="text_5">
      <!-- 13.0 -->
      <defs>
       <path d="M 40.578125 39.3125 
Q 47.65625 37.796875 51.625 33 
Q 55.609375 28.21875 55.609375 21.1875 
Q 55.609375 10.40625 48.1875 4.484375 
Q 40.765625 -1.421875 27.09375 -1.421875 
Q 22.515625 -1.421875 17.65625 -0.515625 
Q 12.796875 0.390625 7.625 2.203125 
L 7.625 11.71875 
Q 11.71875 9.328125 16.59375 8.109375 
Q 21.484375 6.890625 26.8125 6.890625 
Q 36.078125 6.890625 40.9375 10.546875 
Q 45.796875 14.203125 45.796875 21.1875 
Q 45.796875 27.640625 41.28125 31.265625 
Q 36.765625 34.90625 28.71875 34.90625 
L 20.21875 34.90625 
L 20.21875 43.015625 
L 29.109375 43.015625 
Q 36.375 43.015625 40.234375 45.921875 
Q 44.09375 48.828125 44.09375 54.296875 
Q 44.09375 59.90625 40.109375 62.90625 
Q 36.140625 65.921875 28.71875 65.921875 
Q 24.65625 65.921875 20.015625 65.03125 
Q 15.375 64.15625 9.8125 62.3125 
L 9.8125 71.09375 
Q 15.4375 72.65625 20.34375 73.4375 
Q 25.25 74.21875 29.59375 74.21875 
Q 40.828125 74.21875 47.359375 69.109375 
Q 53.90625 64.015625 53.90625 55.328125 
Q 53.90625 49.265625 50.4375 45.09375 
Q 46.96875 40.921875 40.578125 39.3125 
z
" id="DejaVuSans-51"/>
      </defs>
      <g transform="translate(155.107391 542.877813)scale(0.14 -0.14)">
       <use xlink:href="#DejaVuSans-49"/>
       <use x="63.623047" xlink:href="#DejaVuSans-51"/>
       <use x="127.246094" xlink:href="#DejaVuSans-46"/>
       <use x="159.033203" xlink:href="#DejaVuSans-48"/>
      </g>
     </g>
    </g>
    <g id="xtick_4">
     <g id="line2d_6">
      <g>
       <use style="stroke:#000000;stroke-width:0.8;" x="230.247024" xlink:href="#m00a8ab6f38" y="525.24"/>
      </g>
     </g>
     <g id="text_6">
      <!-- 13.5 -->
      <g transform="translate(214.661087 542.877813)scale(0.14 -0.14)">
       <use xlink:href="#DejaVuSans-49"/>
       <use x="63.623047" xlink:href="#DejaVuSans-51"/>
       <use x="127.246094" xlink:href="#DejaVuSans-46"/>
       <use x="159.033203" xlink:href="#DejaVuSans-53"/>
      </g>
     </g>
    </g>
    <g id="xtick_5">
     <g id="line2d_7">
      <g>
       <use style="stroke:#000000;stroke-width:0.8;" x="289.80072" xlink:href="#m00a8ab6f38" y="525.24"/>
      </g>
     </g>
     <g id="text_7">
      <!-- 14.0 -->
      <defs>
       <path d="M 37.796875 64.3125 
L 12.890625 25.390625 
L 37.796875 25.390625 
z
M 35.203125 72.90625 
L 47.609375 72.90625 
L 47.609375 25.390625 
L 58.015625 25.390625 
L 58.015625 17.1875 
L 47.609375 17.1875 
L 47.609375 0 
L 37.796875 0 
L 37.796875 17.1875 
L 4.890625 17.1875 
L 4.890625 26.703125 
z
" id="DejaVuSans-52"/>
      </defs>
      <g transform="translate(274.214782 542.877813)scale(0.14 -0.14)">
       <use xlink:href="#DejaVuSans-49"/>
       <use x="63.623047" xlink:href="#DejaVuSans-52"/>
       <use x="127.246094" xlink:href="#DejaVuSans-46"/>
       <use x="159.033203" xlink:href="#DejaVuSans-48"/>
      </g>
     </g>
    </g>
    <g id="xtick_6">
     <g id="line2d_8">
      <g>
       <use style="stroke:#000000;stroke-width:0.8;" x="349.354415" xlink:href="#m00a8ab6f38" y="525.24"/>
      </g>
     </g>
     <g id="text_8">
      <!-- 14.5 -->
      <g transform="translate(333.768478 542.877813)scale(0.14 -0.14)">
       <use xlink:href="#DejaVuSans-49"/>
       <use x="63.623047" xlink:href="#DejaVuSans-52"/>
       <use x="127.246094" xlink:href="#DejaVuSans-46"/>
       <use x="159.033203" xlink:href="#DejaVuSans-53"/>
      </g>
     </g>
    </g>
    <g id="xtick_7">
     <g id="line2d_9">
      <g>
       <use style="stroke:#000000;stroke-width:0.8;" x="408.908111" xlink:href="#m00a8ab6f38" y="525.24"/>
      </g>
     </g>
     <g id="text_9">
      <!-- 15.0 -->
      <g transform="translate(393.322173 542.877813)scale(0.14 -0.14)">
       <use xlink:href="#DejaVuSans-49"/>
       <use x="63.623047" xlink:href="#DejaVuSans-53"/>
       <use x="127.246094" xlink:href="#DejaVuSans-46"/>
       <use x="159.033203" xlink:href="#DejaVuSans-48"/>
      </g>
     </g>
    </g>
    <g id="xtick_8">
     <g id="line2d_10">
      <g>
       <use style="stroke:#000000;stroke-width:0.8;" x="468.461806" xlink:href="#m00a8ab6f38" y="525.24"/>
      </g>
     </g>
     <g id="text_10">
      <!-- 15.5 -->
      <g transform="translate(452.875869 542.877813)scale(0.14 -0.14)">
       <use xlink:href="#DejaVuSans-49"/>
       <use x="63.623047" xlink:href="#DejaVuSans-53"/>
       <use x="127.246094" xlink:href="#DejaVuSans-46"/>
       <use x="159.033203" xlink:href="#DejaVuSans-53"/>
      </g>
     </g>
    </g>
    <g id="xtick_9">
     <g id="line2d_11">
      <g>
       <use style="stroke:#000000;stroke-width:0.8;" x="528.015502" xlink:href="#m00a8ab6f38" y="525.24"/>
      </g>
     </g>
     <g id="text_11">
      <!-- 16.0 -->
      <defs>
       <path d="M 33.015625 40.375 
Q 26.375 40.375 22.484375 35.828125 
Q 18.609375 31.296875 18.609375 23.390625 
Q 18.609375 15.53125 22.484375 10.953125 
Q 26.375 6.390625 33.015625 6.390625 
Q 39.65625 6.390625 43.53125 10.953125 
Q 47.40625 15.53125 47.40625 23.390625 
Q 47.40625 31.296875 43.53125 35.828125 
Q 39.65625 40.375 33.015625 40.375 
z
M 52.59375 71.296875 
L 52.59375 62.3125 
Q 48.875 64.0625 45.09375 64.984375 
Q 41.3125 65.921875 37.59375 65.921875 
Q 27.828125 65.921875 22.671875 59.328125 
Q 17.53125 52.734375 16.796875 39.40625 
Q 19.671875 43.65625 24.015625 45.921875 
Q 28.375 48.1875 33.59375 48.1875 
Q 44.578125 48.1875 50.953125 41.515625 
Q 57.328125 34.859375 57.328125 23.390625 
Q 57.328125 12.15625 50.6875 5.359375 
Q 44.046875 -1.421875 33.015625 -1.421875 
Q 20.359375 -1.421875 13.671875 8.265625 
Q 6.984375 17.96875 6.984375 36.375 
Q 6.984375 53.65625 15.1875 63.9375 
Q 23.390625 74.21875 37.203125 74.21875 
Q 40.921875 74.21875 44.703125 73.484375 
Q 48.484375 72.75 52.59375 71.296875 
z
" id="DejaVuSans-54"/>
      </defs>
      <g transform="translate(512.429564 542.877813)scale(0.14 -0.14)">
       <use xlink:href="#DejaVuSans-49"/>
       <use x="63.623047" xlink:href="#DejaVuSans-54"/>
       <use x="127.246094" xlink:href="#DejaVuSans-46"/>
       <use x="159.033203" xlink:href="#DejaVuSans-48"/>
      </g>
     </g>
    </g>
   </g>
   <g id="line2d_12">
    <path clip-path="url(#p29d2531b06)" d="M 295.756089 525.24 
L 295.756089 402.93 
" style="fill:none;stroke:#ff6384;stroke-dasharray:5.55,2.4;stroke-dashoffset:0;stroke-opacity:0.8;stroke-width:1.5;"/>
   </g>
   <g id="line2d_13">
    <path clip-path="url(#p29d2531b06)" d="M 280.272128 525.24 
L 280.272128 402.93 
" style="fill:none;stroke:#36a2eb;stroke-dasharray:5.55,2.4;stroke-dashoffset:0;stroke-opacity:0.8;stroke-width:1.5;"/>
   </g>
   <g id="patch_10">
    <path d="M 44.656089 525.24 
L 546.856089 525.24 
" style="fill:none;stroke:#000000;stroke-linecap:square;stroke-linejoin:miter;stroke-width:0.8;"/>
   </g>
  </g>
 </g>
 <defs>
  <clipPath id="pe0633121ab">
   <rect height="366.93" width="502.2" x="44.656089" y="36"/>
  </clipPath>
  <clipPath id="p29d2531b06">
   <rect height="122.31" width="502.2" x="44.656089" y="402.93"/>
  </clipPath>
 </defs>
</svg>
