<?xml version="1.0" encoding="utf-8" standalone="no"?>
<!DOCTYPE svg PUBLIC "-//W3C//DTD SVG 1.1//EN"
  "http://www.w3.org/Graphics/SVG/1.1/DTD/svg11.dtd">
<!-- Created with matplotlib (https://matplotlib.org/) -->
<svg height="591.509375pt" version="1.1" viewBox="0 0 574.2 591.509375" width="574.2pt" xmlns="http://www.w3.org/2000/svg" xmlns:xlink="http://www.w3.org/1999/xlink">
 <defs>
  <style type="text/css">
*{stroke-linecap:butt;stroke-linejoin:round;}
  </style>
 </defs>
 <g id="figure_1">
  <g id="patch_1">
   <path d="M 0 591.509375 
L 574.2 591.509375 
L 574.2 0 
L 0 0 
z
" style="fill:none;"/>
  </g>
  <g id="axes_1">
   <g id="patch_2">
    <path d="M 36 410.22 
L 538.2 410.22 
L 538.2 36 
L 36 36 
z
" style="fill:none;"/>
   </g>
   <g id="PolyCollection_1">
    <defs>
     <path d="M 58.827273 -198.299375 
L 58.827273 -198.413593 
L 63.151902 -198.456662 
L 67.476532 -198.514563 
L 71.801161 -198.591861 
L 76.125791 -198.694339 
L 80.45042 -198.829251 
L 84.77505 -199.005619 
L 89.099679 -199.234563 
L 93.424309 -199.529665 
L 97.748938 -199.907354 
L 102.073567 -200.387311 
L 106.398197 -200.992881 
L 110.722826 -201.751471 
L 115.047456 -202.694912 
L 119.372085 -203.859762 
L 123.696715 -205.287525 
L 128.021344 -207.024738 
L 132.345974 -209.122902 
L 136.670603 -211.638221 
L 140.995233 -214.631088 
L 145.319862 -218.165325 
L 149.644492 -222.3071 
L 153.969121 -227.123541 
L 158.293751 -232.681014 
L 162.61838 -239.043076 
L 166.94301 -246.268132 
L 171.267639 -254.406825 
L 175.592268 -263.499238 
L 179.916898 -273.571974 
L 184.241527 -284.635235 
L 188.566157 -296.680007 
L 192.890786 -309.675493 
L 197.215416 -323.566938 
L 201.540045 -338.273983 
L 205.864675 -353.689699 
L 210.189304 -369.680411 
L 214.513934 -386.086424 
L 218.838563 -402.723708 
L 223.163193 -419.386587 
L 227.487822 -435.8514 
L 231.812452 -451.881089 
L 236.137081 -467.230586 
L 240.461711 -481.652863 
L 244.78634 -494.905422 
L 249.110969 -506.757005 
L 253.435599 -516.994276 
L 257.760228 -525.428184 
L 262.084858 -531.899766 
L 266.409487 -536.285125 
L 270.734117 -538.499375 
L 275.058746 -538.499375 
L 279.383376 -536.285125 
L 283.708005 -531.899766 
L 288.032635 -525.428184 
L 292.357264 -516.994276 
L 296.681894 -506.757005 
L 301.006523 -494.905422 
L 305.331153 -481.652863 
L 309.655782 -467.230586 
L 313.980412 -451.881089 
L 318.305041 -435.8514 
L 322.629671 -419.386587 
L 326.9543 -402.723708 
L 331.278929 -386.086424 
L 335.603559 -369.680411 
L 339.928188 -353.689699 
L 344.252818 -338.273983 
L 348.577447 -323.566938 
L 352.902077 -309.675493 
L 357.226706 -296.680007 
L 361.551336 -284.635235 
L 365.875965 -273.571974 
L 370.200595 -263.499238 
L 374.525224 -254.406825 
L 378.849854 -246.268132 
L 383.174483 -239.043076 
L 387.499113 -232.681014 
L 391.823742 -227.123541 
L 396.148372 -222.3071 
L 400.473001 -218.165325 
L 404.79763 -214.631088 
L 409.12226 -211.638221 
L 413.446889 -209.122902 
L 417.771519 -207.024738 
L 422.096148 -205.287525 
L 426.420778 -203.859762 
L 430.745407 -202.694912 
L 435.070037 -201.751471 
L 439.394666 -200.992881 
L 443.719296 -200.387311 
L 448.043925 -199.907354 
L 452.368555 -199.529665 
L 456.693184 -199.234563 
L 461.017814 -199.005619 
L 465.342443 -198.829251 
L 469.667073 -198.694339 
L 473.991702 -198.591861 
L 478.316332 -198.514563 
L 482.640961 -198.456662 
L 486.96559 -198.413593 
L 486.96559 -198.299375 
L 486.96559 -198.299375 
L 482.640961 -198.299375 
L 478.316332 -198.299375 
L 473.991702 -198.299375 
L 469.667073 -198.299375 
L 465.342443 -198.299375 
L 461.017814 -198.299375 
L 456.693184 -198.299375 
L 452.368555 -198.299375 
L 448.043925 -198.299375 
L 443.719296 -198.299375 
L 439.394666 -198.299375 
L 435.070037 -198.299375 
L 430.745407 -198.299375 
L 426.420778 -198.299375 
L 422.096148 -198.299375 
L 417.771519 -198.299375 
L 413.446889 -198.299375 
L 409.12226 -198.299375 
L 404.79763 -198.299375 
L 400.473001 -198.299375 
L 396.148372 -198.299375 
L 391.823742 -198.299375 
L 387.499113 -198.299375 
L 383.174483 -198.299375 
L 378.849854 -198.299375 
L 374.525224 -198.299375 
L 370.200595 -198.299375 
L 365.875965 -198.299375 
L 361.551336 -198.299375 
L 357.226706 -198.299375 
L 352.902077 -198.299375 
L 348.577447 -198.299375 
L 344.252818 -198.299375 
L 339.928188 -198.299375 
L 335.603559 -198.299375 
L 331.278929 -198.299375 
L 326.9543 -198.299375 
L 322.629671 -198.299375 
L 318.305041 -198.299375 
L 313.980412 -198.299375 
L 309.655782 -198.299375 
L 305.331153 -198.299375 
L 301.006523 -198.299375 
L 296.681894 -198.299375 
L 292.357264 -198.299375 
L 288.032635 -198.299375 
L 283.708005 -198.299375 
L 279.383376 -198.299375 
L 275.058746 -198.299375 
L 270.734117 -198.299375 
L 266.409487 -198.299375 
L 262.084858 -198.299375 
L 257.760228 -198.299375 
L 253.435599 -198.299375 
L 249.110969 -198.299375 
L 244.78634 -198.299375 
L 240.461711 -198.299375 
L 236.137081 -198.299375 
L 231.812452 -198.299375 
L 227.487822 -198.299375 
L 223.163193 -198.299375 
L 218.838563 -198.299375 
L 214.513934 -198.299375 
L 210.189304 -198.299375 
L 205.864675 -198.299375 
L 201.540045 -198.299375 
L 197.215416 -198.299375 
L 192.890786 -198.299375 
L 188.566157 -198.299375 
L 184.241527 -198.299375 
L 179.916898 -198.299375 
L 175.592268 -198.299375 
L 171.267639 -198.299375 
L 166.94301 -198.299375 
L 162.61838 -198.299375 
L 158.293751 -198.299375 
L 153.969121 -198.299375 
L 149.644492 -198.299375 
L 145.319862 -198.299375 
L 140.995233 -198.299375 
L 136.670603 -198.299375 
L 132.345974 -198.299375 
L 128.021344 -198.299375 
L 123.696715 -198.299375 
L 119.372085 -198.299375 
L 115.047456 -198.299375 
L 110.722826 -198.299375 
L 106.398197 -198.299375 
L 102.073567 -198.299375 
L 97.748938 -198.299375 
L 93.424309 -198.299375 
L 89.099679 -198.299375 
L 84.77505 -198.299375 
L 80.45042 -198.299375 
L 76.125791 -198.299375 
L 71.801161 -198.299375 
L 67.476532 -198.299375 
L 63.151902 -198.299375 
L 58.827273 -198.299375 
z
" id="mf024ad122e" style="stroke:#ff6384;stroke-opacity:0.5;"/>
    </defs>
    <g clip-path="url(#pd16f6cc3a1)">
     <use style="fill:#ff6384;fill-opacity:0.5;stroke:#ff6384;stroke-opacity:0.5;" x="0" xlink:href="#mf024ad122e" y="591.509375"/>
    </g>
   </g>
   <g id="PolyCollection_2">
    <defs>
     <path d="M 82.002012 -198.299375 
L 82.002012 -198.412214 
L 86.379494 -198.454763 
L 90.756976 -198.511964 
L 95.134458 -198.58833 
L 99.511939 -198.68957 
L 103.889421 -198.822853 
L 108.266903 -198.997092 
L 112.644385 -199.223272 
L 117.021867 -199.514811 
L 121.399349 -199.88794 
L 125.776831 -200.362102 
L 130.154313 -200.960361 
L 134.531795 -201.709792 
L 138.909277 -202.641841 
L 143.286759 -203.792628 
L 147.664241 -205.203152 
L 152.041723 -206.91939 
L 156.419205 -208.992222 
L 160.796687 -211.477171 
L 165.174169 -214.433904 
L 169.551651 -217.925469 
L 173.929133 -222.017237 
L 178.306615 -226.775526 
L 182.684097 -232.265899 
L 187.061579 -238.551148 
L 191.439061 -245.688971 
L 195.816543 -253.729399 
L 200.194025 -262.712032 
L 204.571507 -272.663153 
L 208.948989 -283.592839 
L 213.326471 -295.492186 
L 217.703953 -308.330769 
L 222.081435 -322.054492 
L 226.458917 -336.583968 
L 230.836399 -351.813559 
L 235.213881 -367.611204 
L 239.591363 -383.819135 
L 243.968845 -400.255545 
L 248.346327 -416.717241 
L 252.723809 -432.983263 
L 257.101291 -448.819413 
L 261.478773 -463.983585 
L 265.856255 -478.231732 
L 270.233737 -491.324282 
L 274.611219 -503.032773 
L 278.988701 -513.146442 
L 283.366183 -521.478521 
L 287.743664 -527.871967 
L 292.121146 -532.204378 
L 296.498628 -534.391894 
L 300.87611 -534.391894 
L 305.253592 -532.204378 
L 309.631074 -527.871967 
L 314.008556 -521.478521 
L 318.386038 -513.146442 
L 322.76352 -503.032773 
L 327.141002 -491.324282 
L 331.518484 -478.231732 
L 335.895966 -463.983585 
L 340.273448 -448.819413 
L 344.65093 -432.983263 
L 349.028412 -416.717241 
L 353.405894 -400.255545 
L 357.783376 -383.819135 
L 362.160858 -367.611204 
L 366.53834 -351.813559 
L 370.915822 -336.583968 
L 375.293304 -322.054492 
L 379.670786 -308.330769 
L 384.048268 -295.492186 
L 388.42575 -283.592839 
L 392.803232 -272.663153 
L 397.180714 -262.712032 
L 401.558196 -253.729399 
L 405.935678 -245.688971 
L 410.31316 -238.551148 
L 414.690642 -232.265899 
L 419.068124 -226.775526 
L 423.445606 -222.017237 
L 427.823088 -217.925469 
L 432.20057 -214.433904 
L 436.578052 -211.477171 
L 440.955534 -208.992222 
L 445.333016 -206.91939 
L 449.710498 -205.203152 
L 454.08798 -203.792628 
L 458.465462 -202.641841 
L 462.842944 -201.709792 
L 467.220426 -200.960361 
L 471.597908 -200.362102 
L 475.975389 -199.88794 
L 480.352871 -199.514811 
L 484.730353 -199.223272 
L 489.107835 -198.997092 
L 493.485317 -198.822853 
L 497.862799 -198.68957 
L 502.240281 -198.58833 
L 506.617763 -198.511964 
L 510.995245 -198.454763 
L 515.372727 -198.412214 
L 515.372727 -198.299375 
L 515.372727 -198.299375 
L 510.995245 -198.299375 
L 506.617763 -198.299375 
L 502.240281 -198.299375 
L 497.862799 -198.299375 
L 493.485317 -198.299375 
L 489.107835 -198.299375 
L 484.730353 -198.299375 
L 480.352871 -198.299375 
L 475.975389 -198.299375 
L 471.597908 -198.299375 
L 467.220426 -198.299375 
L 462.842944 -198.299375 
L 458.465462 -198.299375 
L 454.08798 -198.299375 
L 449.710498 -198.299375 
L 445.333016 -198.299375 
L 440.955534 -198.299375 
L 436.578052 -198.299375 
L 432.20057 -198.299375 
L 427.823088 -198.299375 
L 423.445606 -198.299375 
L 419.068124 -198.299375 
L 414.690642 -198.299375 
L 410.31316 -198.299375 
L 405.935678 -198.299375 
L 401.558196 -198.299375 
L 397.180714 -198.299375 
L 392.803232 -198.299375 
L 388.42575 -198.299375 
L 384.048268 -198.299375 
L 379.670786 -198.299375 
L 375.293304 -198.299375 
L 370.915822 -198.299375 
L 366.53834 -198.299375 
L 362.160858 -198.299375 
L 357.783376 -198.299375 
L 353.405894 -198.299375 
L 349.028412 -198.299375 
L 344.65093 -198.299375 
L 340.273448 -198.299375 
L 335.895966 -198.299375 
L 331.518484 -198.299375 
L 327.141002 -198.299375 
L 322.76352 -198.299375 
L 318.386038 -198.299375 
L 314.008556 -198.299375 
L 309.631074 -198.299375 
L 305.253592 -198.299375 
L 300.87611 -198.299375 
L 296.498628 -198.299375 
L 292.121146 -198.299375 
L 287.743664 -198.299375 
L 283.366183 -198.299375 
L 278.988701 -198.299375 
L 274.611219 -198.299375 
L 270.233737 -198.299375 
L 265.856255 -198.299375 
L 261.478773 -198.299375 
L 257.101291 -198.299375 
L 252.723809 -198.299375 
L 248.346327 -198.299375 
L 243.968845 -198.299375 
L 239.591363 -198.299375 
L 235.213881 -198.299375 
L 230.836399 -198.299375 
L 226.458917 -198.299375 
L 222.081435 -198.299375 
L 217.703953 -198.299375 
L 213.326471 -198.299375 
L 208.948989 -198.299375 
L 204.571507 -198.299375 
L 200.194025 -198.299375 
L 195.816543 -198.299375 
L 191.439061 -198.299375 
L 187.061579 -198.299375 
L 182.684097 -198.299375 
L 178.306615 -198.299375 
L 173.929133 -198.299375 
L 169.551651 -198.299375 
L 165.174169 -198.299375 
L 160.796687 -198.299375 
L 156.419205 -198.299375 
L 152.041723 -198.299375 
L 147.664241 -198.299375 
L 143.286759 -198.299375 
L 138.909277 -198.299375 
L 134.531795 -198.299375 
L 130.154313 -198.299375 
L 125.776831 -198.299375 
L 121.399349 -198.299375 
L 117.021867 -198.299375 
L 112.644385 -198.299375 
L 108.266903 -198.299375 
L 103.889421 -198.299375 
L 99.511939 -198.299375 
L 95.134458 -198.299375 
L 90.756976 -198.299375 
L 86.379494 -198.299375 
L 82.002012 -198.299375 
z
" id="m2ea32c53d7" style="stroke:#36a2eb;stroke-opacity:0.5;"/>
    </defs>
    <g clip-path="url(#pd16f6cc3a1)">
     <use style="fill:#36a2eb;fill-opacity:0.5;stroke:#36a2eb;stroke-opacity:0.5;" x="0" xlink:href="#m2ea32c53d7" y="591.509375"/>
    </g>
   </g>
   <g id="line2d_1">
    <path clip-path="url(#pd16f6cc3a1)" d="M 58.827273 393.095782 
L 63.151902 393.052713 
L 67.476532 392.994812 
L 71.801161 392.917514 
L 76.125791 392.815036 
L 80.45042 392.680124 
L 84.77505 392.503756 
L 89.099679 392.274812 
L 93.424309 391.97971 
L 97.748938 391.602021 
L 102.073567 391.122064 
L 106.398197 390.516494 
L 110.722826 389.757904 
L 115.047456 388.814463 
L 119.372085 387.649613 
L 123.696715 386.22185 
L 128.021344 384.484637 
L 132.345974 382.386473 
L 136.670603 379.871154 
L 140.995233 376.878287 
L 145.319862 373.34405 
L 149.644492 369.202275 
L 153.969121 364.385834 
L 158.293751 358.828361 
L 162.61838 352.466299 
L 166.94301 345.241243 
L 171.267639 337.10255 
L 175.592268 328.010137 
L 179.916898 317.937401 
L 184.241527 306.87414 
L 188.566157 294.829368 
L 192.890786 281.833882 
L 197.215416 267.942437 
L 201.540045 253.235392 
L 205.864675 237.819676 
L 210.189304 221.828964 
L 214.513934 205.422951 
L 218.838563 188.785667 
L 223.163193 172.122788 
L 227.487822 155.657975 
L 231.812452 139.628286 
L 236.137081 124.278789 
L 240.461711 109.856512 
L 244.78634 96.603953 
L 249.110969 84.75237 
L 253.435599 74.515099 
L 257.760228 66.081191 
L 262.084858 59.609609 
L 266.409487 55.22425 
L 270.734117 53.01 
L 275.058746 53.01 
L 279.383376 55.22425 
L 283.708005 59.609609 
L 288.032635 66.081191 
L 292.357264 74.515099 
L 296.681894 84.75237 
L 301.006523 96.603953 
L 305.331153 109.856512 
L 309.655782 124.278789 
L 313.980412 139.628286 
L 318.305041 155.657975 
L 322.629671 172.122788 
L 326.9543 188.785667 
L 331.278929 205.422951 
L 335.603559 221.828964 
L 339.928188 237.819676 
L 344.252818 253.235392 
L 348.577447 267.942437 
L 352.902077 281.833882 
L 357.226706 294.829368 
L 361.551336 306.87414 
L 365.875965 317.937401 
L 370.200595 328.010137 
L 374.525224 337.10255 
L 378.849854 345.241243 
L 383.174483 352.466299 
L 387.499113 358.828361 
L 391.823742 364.385834 
L 396.148372 369.202275 
L 400.473001 373.34405 
L 404.79763 376.878287 
L 409.12226 379.871154 
L 413.446889 382.386473 
L 417.771519 384.484637 
L 422.096148 386.22185 
L 426.420778 387.649613 
L 430.745407 388.814463 
L 435.070037 389.757904 
L 439.394666 390.516494 
L 443.719296 391.122064 
L 448.043925 391.602021 
L 452.368555 391.97971 
L 456.693184 392.274812 
L 461.017814 392.503756 
L 465.342443 392.680124 
L 469.667073 392.815036 
L 473.991702 392.917514 
L 478.316332 392.994812 
L 482.640961 393.052713 
L 486.96559 393.095782 
" style="fill:none;stroke:#ff6384;stroke-linecap:square;"/>
   </g>
   <g id="line2d_2">
    <path clip-path="url(#pd16f6cc3a1)" d="M 82.002012 393.097161 
L 86.379494 393.054612 
L 90.756976 392.997411 
L 95.134458 392.921045 
L 99.511939 392.819805 
L 103.889421 392.686522 
L 108.266903 392.512283 
L 112.644385 392.286103 
L 117.021867 391.994564 
L 121.399349 391.621435 
L 125.776831 391.147273 
L 130.154313 390.549014 
L 134.531795 389.799583 
L 138.909277 388.867534 
L 143.286759 387.716747 
L 147.664241 386.306223 
L 152.041723 384.589985 
L 156.419205 382.517153 
L 160.796687 380.032204 
L 165.174169 377.075471 
L 169.551651 373.583906 
L 173.929133 369.492138 
L 178.306615 364.733849 
L 182.684097 359.243476 
L 187.061579 352.958227 
L 191.439061 345.820404 
L 195.816543 337.779976 
L 200.194025 328.797343 
L 204.571507 318.846222 
L 208.948989 307.916536 
L 213.326471 296.017189 
L 217.703953 283.178606 
L 222.081435 269.454883 
L 226.458917 254.925407 
L 230.836399 239.695816 
L 235.213881 223.898171 
L 239.591363 207.69024 
L 243.968845 191.25383 
L 248.346327 174.792134 
L 252.723809 158.526112 
L 257.101291 142.689962 
L 261.478773 127.52579 
L 265.856255 113.277643 
L 270.233737 100.185093 
L 274.611219 88.476602 
L 278.988701 78.362933 
L 283.366183 70.030854 
L 287.743664 63.637408 
L 292.121146 59.304997 
L 296.498628 57.117481 
L 300.87611 57.117481 
L 305.253592 59.304997 
L 309.631074 63.637408 
L 314.008556 70.030854 
L 318.386038 78.362933 
L 322.76352 88.476602 
L 327.141002 100.185093 
L 331.518484 113.277643 
L 335.895966 127.52579 
L 340.273448 142.689962 
L 344.65093 158.526112 
L 349.028412 174.792134 
L 353.405894 191.25383 
L 357.783376 207.69024 
L 362.160858 223.898171 
L 366.53834 239.695816 
L 370.915822 254.925407 
L 375.293304 269.454883 
L 379.670786 283.178606 
L 384.048268 296.017189 
L 388.42575 307.916536 
L 392.803232 318.846222 
L 397.180714 328.797343 
L 401.558196 337.779976 
L 405.935678 345.820404 
L 410.31316 352.958227 
L 414.690642 359.243476 
L 419.068124 364.733849 
L 423.445606 369.492138 
L 427.823088 373.583906 
L 432.20057 377.075471 
L 436.578052 380.032204 
L 440.955534 382.517153 
L 445.333016 384.589985 
L 449.710498 386.306223 
L 454.08798 387.716747 
L 458.465462 388.867534 
L 462.842944 389.799583 
L 467.220426 390.549014 
L 471.597908 391.147273 
L 475.975389 391.621435 
L 480.352871 391.994564 
L 484.730353 392.286103 
L 489.107835 392.512283 
L 493.485317 392.686522 
L 497.862799 392.819805 
L 502.240281 392.921045 
L 506.617763 392.997411 
L 510.995245 393.054612 
L 515.372727 393.097161 
" style="fill:none;stroke:#36a2eb;stroke-linecap:square;"/>
   </g>
   <g id="patch_3">
    <path d="M 36 410.22 
L 538.2 410.22 
" style="fill:none;stroke:#000000;stroke-linecap:square;stroke-linejoin:miter;stroke-width:0.8;"/>
   </g>
   <g id="legend_1">
    <g id="patch_4">
     <path d="M 414.919063 88.29875 
L 528.4 88.29875 
Q 531.2 88.29875 531.2 85.49875 
L 531.2 45.8 
Q 531.2 43 528.4 43 
L 414.919063 43 
Q 412.119063 43 412.119063 45.8 
L 412.119063 85.49875 
Q 412.119063 88.29875 414.919063 88.29875 
z
" style="fill:#ffffff;opacity:0.8;stroke:#cccccc;stroke-linejoin:miter;"/>
    </g>
    <g id="patch_5">
     <path d="M 417.719063 59.237813 
L 445.719063 59.237813 
L 445.719063 49.437813 
L 417.719063 49.437813 
z
" style="fill:#ff6384;opacity:0.5;stroke:#ff6384;stroke-linejoin:miter;"/>
    </g>
    <g id="text_1">
     <!-- sidemenu -->
     <defs>
      <path d="M 44.28125 53.078125 
L 44.28125 44.578125 
Q 40.484375 46.53125 36.375 47.5 
Q 32.28125 48.484375 27.875 48.484375 
Q 21.1875 48.484375 17.84375 46.4375 
Q 14.5 44.390625 14.5 40.28125 
Q 14.5 37.15625 16.890625 35.375 
Q 19.28125 33.59375 26.515625 31.984375 
L 29.59375 31.296875 
Q 39.15625 29.25 43.1875 25.515625 
Q 47.21875 21.78125 47.21875 15.09375 
Q 47.21875 7.46875 41.1875 3.015625 
Q 35.15625 -1.421875 24.609375 -1.421875 
Q 20.21875 -1.421875 15.453125 -0.5625 
Q 10.6875 0.296875 5.421875 2 
L 5.421875 11.28125 
Q 10.40625 8.6875 15.234375 7.390625 
Q 20.0625 6.109375 24.8125 6.109375 
Q 31.15625 6.109375 34.5625 8.28125 
Q 37.984375 10.453125 37.984375 14.40625 
Q 37.984375 18.0625 35.515625 20.015625 
Q 33.0625 21.96875 24.703125 23.78125 
L 21.578125 24.515625 
Q 13.234375 26.265625 9.515625 29.90625 
Q 5.8125 33.546875 5.8125 39.890625 
Q 5.8125 47.609375 11.28125 51.796875 
Q 16.75 56 26.8125 56 
Q 31.78125 56 36.171875 55.265625 
Q 40.578125 54.546875 44.28125 53.078125 
z
" id="DejaVuSans-115"/>
      <path d="M 9.421875 54.6875 
L 18.40625 54.6875 
L 18.40625 0 
L 9.421875 0 
z
M 9.421875 75.984375 
L 18.40625 75.984375 
L 18.40625 64.59375 
L 9.421875 64.59375 
z
" id="DejaVuSans-105"/>
      <path d="M 45.40625 46.390625 
L 45.40625 75.984375 
L 54.390625 75.984375 
L 54.390625 0 
L 45.40625 0 
L 45.40625 8.203125 
Q 42.578125 3.328125 38.25 0.953125 
Q 33.9375 -1.421875 27.875 -1.421875 
Q 17.96875 -1.421875 11.734375 6.484375 
Q 5.515625 14.40625 5.515625 27.296875 
Q 5.515625 40.1875 11.734375 48.09375 
Q 17.96875 56 27.875 56 
Q 33.9375 56 38.25 53.625 
Q 42.578125 51.265625 45.40625 46.390625 
z
M 14.796875 27.296875 
Q 14.796875 17.390625 18.875 11.75 
Q 22.953125 6.109375 30.078125 6.109375 
Q 37.203125 6.109375 41.296875 11.75 
Q 45.40625 17.390625 45.40625 27.296875 
Q 45.40625 37.203125 41.296875 42.84375 
Q 37.203125 48.484375 30.078125 48.484375 
Q 22.953125 48.484375 18.875 42.84375 
Q 14.796875 37.203125 14.796875 27.296875 
z
" id="DejaVuSans-100"/>
      <path d="M 56.203125 29.59375 
L 56.203125 25.203125 
L 14.890625 25.203125 
Q 15.484375 15.921875 20.484375 11.0625 
Q 25.484375 6.203125 34.421875 6.203125 
Q 39.59375 6.203125 44.453125 7.46875 
Q 49.3125 8.734375 54.109375 11.28125 
L 54.109375 2.78125 
Q 49.265625 0.734375 44.1875 -0.34375 
Q 39.109375 -1.421875 33.890625 -1.421875 
Q 20.796875 -1.421875 13.15625 6.1875 
Q 5.515625 13.8125 5.515625 26.8125 
Q 5.515625 40.234375 12.765625 48.109375 
Q 20.015625 56 32.328125 56 
Q 43.359375 56 49.78125 48.890625 
Q 56.203125 41.796875 56.203125 29.59375 
z
M 47.21875 32.234375 
Q 47.125 39.59375 43.09375 43.984375 
Q 39.0625 48.390625 32.421875 48.390625 
Q 24.90625 48.390625 20.390625 44.140625 
Q 15.875 39.890625 15.1875 32.171875 
z
" id="DejaVuSans-101"/>
      <path d="M 52 44.1875 
Q 55.375 50.25 60.0625 53.125 
Q 64.75 56 71.09375 56 
Q 79.640625 56 84.28125 50.015625 
Q 88.921875 44.046875 88.921875 33.015625 
L 88.921875 0 
L 79.890625 0 
L 79.890625 32.71875 
Q 79.890625 40.578125 77.09375 44.375 
Q 74.3125 48.1875 68.609375 48.1875 
Q 61.625 48.1875 57.5625 43.546875 
Q 53.515625 38.921875 53.515625 30.90625 
L 53.515625 0 
L 44.484375 0 
L 44.484375 32.71875 
Q 44.484375 40.625 41.703125 44.40625 
Q 38.921875 48.1875 33.109375 48.1875 
Q 26.21875 48.1875 22.15625 43.53125 
Q 18.109375 38.875 18.109375 30.90625 
L 18.109375 0 
L 9.078125 0 
L 9.078125 54.6875 
L 18.109375 54.6875 
L 18.109375 46.1875 
Q 21.1875 51.21875 25.484375 53.609375 
Q 29.78125 56 35.6875 56 
Q 41.65625 56 45.828125 52.96875 
Q 50 49.953125 52 44.1875 
z
" id="DejaVuSans-109"/>
      <path d="M 54.890625 33.015625 
L 54.890625 0 
L 45.90625 0 
L 45.90625 32.71875 
Q 45.90625 40.484375 42.875 44.328125 
Q 39.84375 48.1875 33.796875 48.1875 
Q 26.515625 48.1875 22.3125 43.546875 
Q 18.109375 38.921875 18.109375 30.90625 
L 18.109375 0 
L 9.078125 0 
L 9.078125 54.6875 
L 18.109375 54.6875 
L 18.109375 46.1875 
Q 21.34375 51.125 25.703125 53.5625 
Q 30.078125 56 35.796875 56 
Q 45.21875 56 50.046875 50.171875 
Q 54.890625 44.34375 54.890625 33.015625 
z
" id="DejaVuSans-110"/>
      <path d="M 8.5 21.578125 
L 8.5 54.6875 
L 17.484375 54.6875 
L 17.484375 21.921875 
Q 17.484375 14.15625 20.5 10.265625 
Q 23.53125 6.390625 29.59375 6.390625 
Q 36.859375 6.390625 41.078125 11.03125 
Q 45.3125 15.671875 45.3125 23.6875 
L 45.3125 54.6875 
L 54.296875 54.6875 
L 54.296875 0 
L 45.3125 0 
L 45.3125 8.40625 
Q 42.046875 3.421875 37.71875 1 
Q 33.40625 -1.421875 27.6875 -1.421875 
Q 18.265625 -1.421875 13.375 4.4375 
Q 8.5 10.296875 8.5 21.578125 
z
M 31.109375 56 
z
" id="DejaVuSans-117"/>
     </defs>
     <g transform="translate(456.919063 59.237813)scale(0.14 -0.14)">
      <use xlink:href="#DejaVuSans-115"/>
      <use x="52.099609" xlink:href="#DejaVuSans-105"/>
      <use x="79.882812" xlink:href="#DejaVuSans-100"/>
      <use x="143.359375" xlink:href="#DejaVuSans-101"/>
      <use x="204.882812" xlink:href="#DejaVuSans-109"/>
      <use x="302.294922" xlink:href="#DejaVuSans-101"/>
      <use x="363.818359" xlink:href="#DejaVuSans-110"/>
      <use x="427.197266" xlink:href="#DejaVuSans-117"/>
     </g>
    </g>
    <g id="patch_6">
     <path d="M 417.719063 79.787188 
L 445.719063 79.787188 
L 445.719063 69.987188 
L 417.719063 69.987188 
z
" style="fill:#36a2eb;opacity:0.5;stroke:#36a2eb;stroke-linejoin:miter;"/>
    </g>
    <g id="text_2">
     <!-- tabbar -->
     <defs>
      <path d="M 18.3125 70.21875 
L 18.3125 54.6875 
L 36.8125 54.6875 
L 36.8125 47.703125 
L 18.3125 47.703125 
L 18.3125 18.015625 
Q 18.3125 11.328125 20.140625 9.421875 
Q 21.96875 7.515625 27.59375 7.515625 
L 36.8125 7.515625 
L 36.8125 0 
L 27.59375 0 
Q 17.1875 0 13.234375 3.875 
Q 9.28125 7.765625 9.28125 18.015625 
L 9.28125 47.703125 
L 2.6875 47.703125 
L 2.6875 54.6875 
L 9.28125 54.6875 
L 9.28125 70.21875 
z
" id="DejaVuSans-116"/>
      <path d="M 34.28125 27.484375 
Q 23.390625 27.484375 19.1875 25 
Q 14.984375 22.515625 14.984375 16.5 
Q 14.984375 11.71875 18.140625 8.90625 
Q 21.296875 6.109375 26.703125 6.109375 
Q 34.1875 6.109375 38.703125 11.40625 
Q 43.21875 16.703125 43.21875 25.484375 
L 43.21875 27.484375 
z
M 52.203125 31.203125 
L 52.203125 0 
L 43.21875 0 
L 43.21875 8.296875 
Q 40.140625 3.328125 35.546875 0.953125 
Q 30.953125 -1.421875 24.3125 -1.421875 
Q 15.921875 -1.421875 10.953125 3.296875 
Q 6 8.015625 6 15.921875 
Q 6 25.140625 12.171875 29.828125 
Q 18.359375 34.515625 30.609375 34.515625 
L 43.21875 34.515625 
L 43.21875 35.40625 
Q 43.21875 41.609375 39.140625 45 
Q 35.0625 48.390625 27.6875 48.390625 
Q 23 48.390625 18.546875 47.265625 
Q 14.109375 46.140625 10.015625 43.890625 
L 10.015625 52.203125 
Q 14.9375 54.109375 19.578125 55.046875 
Q 24.21875 56 28.609375 56 
Q 40.484375 56 46.34375 49.84375 
Q 52.203125 43.703125 52.203125 31.203125 
z
" id="DejaVuSans-97"/>
      <path d="M 48.6875 27.296875 
Q 48.6875 37.203125 44.609375 42.84375 
Q 40.53125 48.484375 33.40625 48.484375 
Q 26.265625 48.484375 22.1875 42.84375 
Q 18.109375 37.203125 18.109375 27.296875 
Q 18.109375 17.390625 22.1875 11.75 
Q 26.265625 6.109375 33.40625 6.109375 
Q 40.53125 6.109375 44.609375 11.75 
Q 48.6875 17.390625 48.6875 27.296875 
z
M 18.109375 46.390625 
Q 20.953125 51.265625 25.265625 53.625 
Q 29.59375 56 35.59375 56 
Q 45.5625 56 51.78125 48.09375 
Q 58.015625 40.1875 58.015625 27.296875 
Q 58.015625 14.40625 51.78125 6.484375 
Q 45.5625 -1.421875 35.59375 -1.421875 
Q 29.59375 -1.421875 25.265625 0.953125 
Q 20.953125 3.328125 18.109375 8.203125 
L 18.109375 0 
L 9.078125 0 
L 9.078125 75.984375 
L 18.109375 75.984375 
z
" id="DejaVuSans-98"/>
      <path d="M 41.109375 46.296875 
Q 39.59375 47.171875 37.8125 47.578125 
Q 36.03125 48 33.890625 48 
Q 26.265625 48 22.1875 43.046875 
Q 18.109375 38.09375 18.109375 28.8125 
L 18.109375 0 
L 9.078125 0 
L 9.078125 54.6875 
L 18.109375 54.6875 
L 18.109375 46.1875 
Q 20.953125 51.171875 25.484375 53.578125 
Q 30.03125 56 36.53125 56 
Q 37.453125 56 38.578125 55.875 
Q 39.703125 55.765625 41.0625 55.515625 
z
" id="DejaVuSans-114"/>
     </defs>
     <g transform="translate(456.919063 79.787188)scale(0.14 -0.14)">
      <use xlink:href="#DejaVuSans-116"/>
      <use x="39.208984" xlink:href="#DejaVuSans-97"/>
      <use x="100.488281" xlink:href="#DejaVuSans-98"/>
      <use x="163.964844" xlink:href="#DejaVuSans-98"/>
      <use x="227.441406" xlink:href="#DejaVuSans-97"/>
      <use x="288.720703" xlink:href="#DejaVuSans-114"/>
     </g>
    </g>
   </g>
  </g>
  <g id="axes_2">
   <g id="patch_7">
    <path d="M 36 534.96 
L 538.2 534.96 
L 538.2 410.22 
L 36 410.22 
z
" style="fill:none;"/>
   </g>
   <g id="patch_8">
    <path clip-path="url(#p4eb4b9a58a)" d="M 168.002544 529.29 
L 377.790319 529.29 
L 377.790319 491.49 
L 168.002544 491.49 
z
" style="fill:#ff6384;opacity:0.5;"/>
   </g>
   <g id="patch_9">
    <path clip-path="url(#p4eb4b9a58a)" d="M 192.511544 453.69 
L 404.863195 453.69 
L 404.863195 415.89 
L 192.511544 415.89 
z
" style="fill:#36a2eb;opacity:0.5;"/>
   </g>
   <g id="matplotlib.axis_1">
    <g id="xtick_1">
     <g id="line2d_3">
      <defs>
       <path d="M 0 0 
L 0 3.5 
" id="m4777e8a64f" style="stroke:#000000;stroke-width:0.8;"/>
      </defs>
      <g>
       <use style="stroke:#000000;stroke-width:0.8;" x="96.911209" xlink:href="#m4777e8a64f" y="534.96"/>
      </g>
     </g>
     <g id="text_3">
      <!-- 7.0 -->
      <defs>
       <path d="M 8.203125 72.90625 
L 55.078125 72.90625 
L 55.078125 68.703125 
L 28.609375 0 
L 18.3125 0 
L 43.21875 64.59375 
L 8.203125 64.59375 
z
" id="DejaVuSans-55"/>
       <path d="M 10.6875 12.40625 
L 21 12.40625 
L 21 0 
L 10.6875 0 
z
" id="DejaVuSans-46"/>
       <path d="M 31.78125 66.40625 
Q 24.171875 66.40625 20.328125 58.90625 
Q 16.5 51.421875 16.5 36.375 
Q 16.5 21.390625 20.328125 13.890625 
Q 24.171875 6.390625 31.78125 6.390625 
Q 39.453125 6.390625 43.28125 13.890625 
Q 47.125 21.390625 47.125 36.375 
Q 47.125 51.421875 43.28125 58.90625 
Q 39.453125 66.40625 31.78125 66.40625 
z
M 31.78125 74.21875 
Q 44.046875 74.21875 50.515625 64.515625 
Q 56.984375 54.828125 56.984375 36.375 
Q 56.984375 17.96875 50.515625 8.265625 
Q 44.046875 -1.421875 31.78125 -1.421875 
Q 19.53125 -1.421875 13.0625 8.265625 
Q 6.59375 17.96875 6.59375 36.375 
Q 6.59375 54.828125 13.0625 64.515625 
Q 19.53125 74.21875 31.78125 74.21875 
z
" id="DejaVuSans-48"/>
      </defs>
      <g transform="translate(85.779021 552.597813)scale(0.14 -0.14)">
       <use xlink:href="#DejaVuSans-55"/>
       <use x="63.623047" xlink:href="#DejaVuSans-46"/>
       <use x="95.410156" xlink:href="#DejaVuSans-48"/>
      </g>
     </g>
    </g>
    <g id="xtick_2">
     <g id="line2d_4">
      <g>
       <use style="stroke:#000000;stroke-width:0.8;" x="172.766908" xlink:href="#m4777e8a64f" y="534.96"/>
      </g>
     </g>
     <g id="text_4">
      <!-- 7.5 -->
      <defs>
       <path d="M 10.796875 72.90625 
L 49.515625 72.90625 
L 49.515625 64.59375 
L 19.828125 64.59375 
L 19.828125 46.734375 
Q 21.96875 47.46875 24.109375 47.828125 
Q 26.265625 48.1875 28.421875 48.1875 
Q 40.625 48.1875 47.75 41.5 
Q 54.890625 34.8125 54.890625 23.390625 
Q 54.890625 11.625 47.5625 5.09375 
Q 40.234375 -1.421875 26.90625 -1.421875 
Q 22.3125 -1.421875 17.546875 -0.640625 
Q 12.796875 0.140625 7.71875 1.703125 
L 7.71875 11.625 
Q 12.109375 9.234375 16.796875 8.0625 
Q 21.484375 6.890625 26.703125 6.890625 
Q 35.15625 6.890625 40.078125 11.328125 
Q 45.015625 15.765625 45.015625 23.390625 
Q 45.015625 31 40.078125 35.4375 
Q 35.15625 39.890625 26.703125 39.890625 
Q 22.75 39.890625 18.8125 39.015625 
Q 14.890625 38.140625 10.796875 36.28125 
z
" id="DejaVuSans-53"/>
      </defs>
      <g transform="translate(161.634721 552.597813)scale(0.14 -0.14)">
       <use xlink:href="#DejaVuSans-55"/>
       <use x="63.623047" xlink:href="#DejaVuSans-46"/>
       <use x="95.410156" xlink:href="#DejaVuSans-53"/>
      </g>
     </g>
    </g>
    <g id="xtick_3">
     <g id="line2d_5">
      <g>
       <use style="stroke:#000000;stroke-width:0.8;" x="248.622608" xlink:href="#m4777e8a64f" y="534.96"/>
      </g>
     </g>
     <g id="text_5">
      <!-- 8.0 -->
      <defs>
       <path d="M 31.78125 34.625 
Q 24.75 34.625 20.71875 30.859375 
Q 16.703125 27.09375 16.703125 20.515625 
Q 16.703125 13.921875 20.71875 10.15625 
Q 24.75 6.390625 31.78125 6.390625 
Q 38.8125 6.390625 42.859375 10.171875 
Q 46.921875 13.96875 46.921875 20.515625 
Q 46.921875 27.09375 42.890625 30.859375 
Q 38.875 34.625 31.78125 34.625 
z
M 21.921875 38.8125 
Q 15.578125 40.375 12.03125 44.71875 
Q 8.5 49.078125 8.5 55.328125 
Q 8.5 64.0625 14.71875 69.140625 
Q 20.953125 74.21875 31.78125 74.21875 
Q 42.671875 74.21875 48.875 69.140625 
Q 55.078125 64.0625 55.078125 55.328125 
Q 55.078125 49.078125 51.53125 44.71875 
Q 48 40.375 41.703125 38.8125 
Q 48.828125 37.15625 52.796875 32.3125 
Q 56.78125 27.484375 56.78125 20.515625 
Q 56.78125 9.90625 50.3125 4.234375 
Q 43.84375 -1.421875 31.78125 -1.421875 
Q 19.734375 -1.421875 13.25 4.234375 
Q 6.78125 9.90625 6.78125 20.515625 
Q 6.78125 27.484375 10.78125 32.3125 
Q 14.796875 37.15625 21.921875 38.8125 
z
M 18.3125 54.390625 
Q 18.3125 48.734375 21.84375 45.5625 
Q 25.390625 42.390625 31.78125 42.390625 
Q 38.140625 42.390625 41.71875 45.5625 
Q 45.3125 48.734375 45.3125 54.390625 
Q 45.3125 60.0625 41.71875 63.234375 
Q 38.140625 66.40625 31.78125 66.40625 
Q 25.390625 66.40625 21.84375 63.234375 
Q 18.3125 60.0625 18.3125 54.390625 
z
" id="DejaVuSans-56"/>
      </defs>
      <g transform="translate(237.49042 552.597813)scale(0.14 -0.14)">
       <use xlink:href="#DejaVuSans-56"/>
       <use x="63.623047" xlink:href="#DejaVuSans-46"/>
       <use x="95.410156" xlink:href="#DejaVuSans-48"/>
      </g>
     </g>
    </g>
    <g id="xtick_4">
     <g id="line2d_6">
      <g>
       <use style="stroke:#000000;stroke-width:0.8;" x="324.478307" xlink:href="#m4777e8a64f" y="534.96"/>
      </g>
     </g>
     <g id="text_6">
      <!-- 8.5 -->
      <g transform="translate(313.34612 552.597813)scale(0.14 -0.14)">
       <use xlink:href="#DejaVuSans-56"/>
       <use x="63.623047" xlink:href="#DejaVuSans-46"/>
       <use x="95.410156" xlink:href="#DejaVuSans-53"/>
      </g>
     </g>
    </g>
    <g id="xtick_5">
     <g id="line2d_7">
      <g>
       <use style="stroke:#000000;stroke-width:0.8;" x="400.334007" xlink:href="#m4777e8a64f" y="534.96"/>
      </g>
     </g>
     <g id="text_7">
      <!-- 9.0 -->
      <defs>
       <path d="M 10.984375 1.515625 
L 10.984375 10.5 
Q 14.703125 8.734375 18.5 7.8125 
Q 22.3125 6.890625 25.984375 6.890625 
Q 35.75 6.890625 40.890625 13.453125 
Q 46.046875 20.015625 46.78125 33.40625 
Q 43.953125 29.203125 39.59375 26.953125 
Q 35.25 24.703125 29.984375 24.703125 
Q 19.046875 24.703125 12.671875 31.3125 
Q 6.296875 37.9375 6.296875 49.421875 
Q 6.296875 60.640625 12.9375 67.421875 
Q 19.578125 74.21875 30.609375 74.21875 
Q 43.265625 74.21875 49.921875 64.515625 
Q 56.59375 54.828125 56.59375 36.375 
Q 56.59375 19.140625 48.40625 8.859375 
Q 40.234375 -1.421875 26.421875 -1.421875 
Q 22.703125 -1.421875 18.890625 -0.6875 
Q 15.09375 0.046875 10.984375 1.515625 
z
M 30.609375 32.421875 
Q 37.25 32.421875 41.125 36.953125 
Q 45.015625 41.5 45.015625 49.421875 
Q 45.015625 57.28125 41.125 61.84375 
Q 37.25 66.40625 30.609375 66.40625 
Q 23.96875 66.40625 20.09375 61.84375 
Q 16.21875 57.28125 16.21875 49.421875 
Q 16.21875 41.5 20.09375 36.953125 
Q 23.96875 32.421875 30.609375 32.421875 
z
" id="DejaVuSans-57"/>
      </defs>
      <g transform="translate(389.201819 552.597813)scale(0.14 -0.14)">
       <use xlink:href="#DejaVuSans-57"/>
       <use x="63.623047" xlink:href="#DejaVuSans-46"/>
       <use x="95.410156" xlink:href="#DejaVuSans-48"/>
      </g>
     </g>
    </g>
    <g id="xtick_6">
     <g id="line2d_8">
      <g>
       <use style="stroke:#000000;stroke-width:0.8;" x="476.189706" xlink:href="#m4777e8a64f" y="534.96"/>
      </g>
     </g>
     <g id="text_8">
      <!-- 9.5 -->
      <g transform="translate(465.057519 552.597813)scale(0.14 -0.14)">
       <use xlink:href="#DejaVuSans-57"/>
       <use x="63.623047" xlink:href="#DejaVuSans-46"/>
       <use x="95.410156" xlink:href="#DejaVuSans-53"/>
      </g>
     </g>
    </g>
   </g>
   <g id="line2d_9">
    <path clip-path="url(#p4eb4b9a58a)" d="M 272.896432 534.96 
L 272.896432 410.22 
" style="fill:none;stroke:#ff6384;stroke-dasharray:5.55,2.4;stroke-dashoffset:0;stroke-opacity:0.8;stroke-width:1.5;"/>
   </g>
   <g id="line2d_10">
    <path clip-path="url(#p4eb4b9a58a)" d="M 298.687369 534.96 
L 298.687369 410.22 
" style="fill:none;stroke:#36a2eb;stroke-dasharray:5.55,2.4;stroke-dashoffset:0;stroke-opacity:0.8;stroke-width:1.5;"/>
   </g>
   <g id="patch_10">
    <path d="M 36 534.96 
L 538.2 534.96 
" style="fill:none;stroke:#000000;stroke-linecap:square;stroke-linejoin:miter;stroke-width:0.8;"/>
   </g>
  </g>
 </g>
 <defs>
  <clipPath id="pd16f6cc3a1">
   <rect height="374.22" width="502.2" x="36" y="36"/>
  </clipPath>
  <clipPath id="p4eb4b9a58a">
   <rect height="124.74" width="502.2" x="36" y="410.22"/>
  </clipPath>
 </defs>
</svg>
