<?xml version="1.0" encoding="utf-8" standalone="no"?>
<!DOCTYPE svg PUBLIC "-//W3C//DTD SVG 1.1//EN"
  "http://www.w3.org/Graphics/SVG/1.1/DTD/svg11.dtd">
<!-- Created with matplotlib (https://matplotlib.org/) -->
<svg height="581.789375pt" version="1.1" viewBox="0 0 574.2 581.789375" width="574.2pt" xmlns="http://www.w3.org/2000/svg" xmlns:xlink="http://www.w3.org/1999/xlink">
 <defs>
  <style type="text/css">
*{stroke-linecap:butt;stroke-linejoin:round;}
  </style>
 </defs>
 <g id="figure_1">
  <g id="patch_1">
   <path d="M 0 581.789375 
L 574.2 581.789375 
L 574.2 0 
L 0 0 
z
" style="fill:none;"/>
  </g>
  <g id="axes_1">
   <g id="patch_2">
    <path d="M 36 402.93 
L 538.2 402.93 
L 538.2 36 
L 36 36 
z
" style="fill:none;"/>
   </g>
   <g id="PolyCollection_1">
    <defs>
     <path d="M 58.827273 -195.538011 
L 58.827273 -195.641528 
L 63.29667 -195.680563 
L 67.766067 -195.733039 
L 72.235463 -195.803096 
L 76.70486 -195.895973 
L 81.174257 -196.018246 
L 85.643654 -196.17809 
L 90.113051 -196.385586 
L 94.582448 -196.653042 
L 99.051845 -196.995346 
L 103.521242 -197.430338 
L 107.990639 -197.979176 
L 112.460036 -198.666697 
L 116.929433 -199.521751 
L 121.398829 -200.577472 
L 125.868226 -201.871475 
L 130.337623 -203.445936 
L 134.80702 -205.347534 
L 139.276417 -207.627204 
L 143.745814 -210.339684 
L 148.215211 -213.542814 
L 152.684608 -217.296566 
L 157.154005 -221.661777 
L 161.623402 -226.698597 
L 166.092798 -232.464628 
L 170.562195 -239.012802 
L 175.031592 -246.38902 
L 179.500989 -254.629607 
L 183.970386 -263.758676 
L 188.439783 -273.785473 
L 192.90918 -284.701827 
L 197.378577 -296.479828 
L 201.847974 -309.069849 
L 206.317371 -322.39906 
L 210.786768 -336.37055 
L 215.256164 -350.863168 
L 219.725561 -365.732179 
L 224.194958 -380.810795 
L 228.664355 -395.912608 
L 233.133752 -410.834911 
L 237.603149 -425.362853 
L 242.072546 -439.274329 
L 246.541943 -452.345451 
L 251.01134 -464.35644 
L 255.480737 -475.097704 
L 259.950134 -484.375894 
L 264.41953 -492.019669 
L 268.888927 -497.884959 
L 273.358324 -501.859474 
L 277.827721 -503.866282 
L 282.297118 -503.866282 
L 286.766515 -501.859474 
L 291.235912 -497.884959 
L 295.705309 -492.019669 
L 300.174706 -484.375894 
L 304.644103 -475.097704 
L 309.1135 -464.35644 
L 313.582896 -452.345451 
L 318.052293 -439.274329 
L 322.52169 -425.362853 
L 326.991087 -410.834911 
L 331.460484 -395.912608 
L 335.929881 -380.810795 
L 340.399278 -365.732179 
L 344.868675 -350.863168 
L 349.338072 -336.37055 
L 353.807469 -322.39906 
L 358.276865 -309.069849 
L 362.746262 -296.479828 
L 367.215659 -284.701827 
L 371.685056 -273.785473 
L 376.154453 -263.758676 
L 380.62385 -254.629607 
L 385.093247 -246.38902 
L 389.562644 -239.012802 
L 394.032041 -232.464628 
L 398.501438 -226.698597 
L 402.970835 -221.661777 
L 407.440231 -217.296566 
L 411.909628 -213.542814 
L 416.379025 -210.339684 
L 420.848422 -207.627204 
L 425.317819 -205.347534 
L 429.787216 -203.445936 
L 434.256613 -201.871475 
L 438.72601 -200.577472 
L 443.195407 -199.521751 
L 447.664804 -198.666697 
L 452.134201 -197.979176 
L 456.603597 -197.430338 
L 461.072994 -196.995346 
L 465.542391 -196.653042 
L 470.011788 -196.385586 
L 474.481185 -196.17809 
L 478.950582 -196.018246 
L 483.419979 -195.895973 
L 487.889376 -195.803096 
L 492.358773 -195.733039 
L 496.82817 -195.680563 
L 501.297567 -195.641528 
L 501.297567 -195.538011 
L 501.297567 -195.538011 
L 496.82817 -195.538011 
L 492.358773 -195.538011 
L 487.889376 -195.538011 
L 483.419979 -195.538011 
L 478.950582 -195.538011 
L 474.481185 -195.538011 
L 470.011788 -195.538011 
L 465.542391 -195.538011 
L 461.072994 -195.538011 
L 456.603597 -195.538011 
L 452.134201 -195.538011 
L 447.664804 -195.538011 
L 443.195407 -195.538011 
L 438.72601 -195.538011 
L 434.256613 -195.538011 
L 429.787216 -195.538011 
L 425.317819 -195.538011 
L 420.848422 -195.538011 
L 416.379025 -195.538011 
L 411.909628 -195.538011 
L 407.440231 -195.538011 
L 402.970835 -195.538011 
L 398.501438 -195.538011 
L 394.032041 -195.538011 
L 389.562644 -195.538011 
L 385.093247 -195.538011 
L 380.62385 -195.538011 
L 376.154453 -195.538011 
L 371.685056 -195.538011 
L 367.215659 -195.538011 
L 362.746262 -195.538011 
L 358.276865 -195.538011 
L 353.807469 -195.538011 
L 349.338072 -195.538011 
L 344.868675 -195.538011 
L 340.399278 -195.538011 
L 335.929881 -195.538011 
L 331.460484 -195.538011 
L 326.991087 -195.538011 
L 322.52169 -195.538011 
L 318.052293 -195.538011 
L 313.582896 -195.538011 
L 309.1135 -195.538011 
L 304.644103 -195.538011 
L 300.174706 -195.538011 
L 295.705309 -195.538011 
L 291.235912 -195.538011 
L 286.766515 -195.538011 
L 282.297118 -195.538011 
L 277.827721 -195.538011 
L 273.358324 -195.538011 
L 268.888927 -195.538011 
L 264.41953 -195.538011 
L 259.950134 -195.538011 
L 255.480737 -195.538011 
L 251.01134 -195.538011 
L 246.541943 -195.538011 
L 242.072546 -195.538011 
L 237.603149 -195.538011 
L 233.133752 -195.538011 
L 228.664355 -195.538011 
L 224.194958 -195.538011 
L 219.725561 -195.538011 
L 215.256164 -195.538011 
L 210.786768 -195.538011 
L 206.317371 -195.538011 
L 201.847974 -195.538011 
L 197.378577 -195.538011 
L 192.90918 -195.538011 
L 188.439783 -195.538011 
L 183.970386 -195.538011 
L 179.500989 -195.538011 
L 175.031592 -195.538011 
L 170.562195 -195.538011 
L 166.092798 -195.538011 
L 161.623402 -195.538011 
L 157.154005 -195.538011 
L 152.684608 -195.538011 
L 148.215211 -195.538011 
L 143.745814 -195.538011 
L 139.276417 -195.538011 
L 134.80702 -195.538011 
L 130.337623 -195.538011 
L 125.868226 -195.538011 
L 121.398829 -195.538011 
L 116.929433 -195.538011 
L 112.460036 -195.538011 
L 107.990639 -195.538011 
L 103.521242 -195.538011 
L 99.051845 -195.538011 
L 94.582448 -195.538011 
L 90.113051 -195.538011 
L 85.643654 -195.538011 
L 81.174257 -195.538011 
L 76.70486 -195.538011 
L 72.235463 -195.538011 
L 67.766067 -195.538011 
L 63.29667 -195.538011 
L 58.827273 -195.538011 
z
" id="m36857b821f" style="stroke:#ff6384;stroke-opacity:0.5;"/>
    </defs>
    <g clip-path="url(#p9ba9190f16)">
     <use style="fill:#ff6384;fill-opacity:0.5;stroke:#ff6384;stroke-opacity:0.5;" x="0" xlink:href="#m36857b821f" y="581.789375"/>
    </g>
   </g>
   <g id="PolyCollection_2">
    <defs>
     <path d="M 106.388151 -195.538011 
L 106.388151 -195.650004 
L 110.519309 -195.692234 
L 114.650466 -195.749007 
L 118.781623 -195.8248 
L 122.912781 -195.925281 
L 127.043938 -196.057565 
L 131.175095 -196.230497 
L 135.306253 -196.454982 
L 139.43741 -196.744335 
L 143.568567 -197.114666 
L 147.699725 -197.585273 
L 151.830882 -198.179047 
L 155.962039 -198.922859 
L 160.093197 -199.847921 
L 164.224354 -200.990079 
L 168.355511 -202.390029 
L 172.486669 -204.093399 
L 176.617826 -206.150691 
L 180.748983 -208.617009 
L 184.880141 -211.551575 
L 189.011298 -215.016962 
L 193.142455 -219.078053 
L 197.273613 -223.800667 
L 201.40477 -229.249878 
L 205.535927 -235.488004 
L 209.667085 -242.572312 
L 213.798242 -250.552459 
L 217.929399 -259.467747 
L 222.060557 -269.344261 
L 226.191714 -280.192004 
L 230.322871 -292.002137 
L 234.454029 -304.744465 
L 238.585186 -318.365297 
L 242.716343 -332.785841 
L 246.847501 -347.901251 
L 250.978658 -363.580456 
L 255.109815 -379.666871 
L 259.240973 -395.980052 
L 263.37213 -412.31833 
L 267.503287 -428.4624 
L 271.634445 -444.179822 
L 275.765602 -459.230303 
L 279.896759 -473.371627 
L 284.027917 -486.366018 
L 288.159074 -497.986726 
L 292.290231 -508.02457 
L 296.421389 -516.294181 
L 300.552546 -522.639693 
L 304.683703 -526.939623 
L 308.814861 -529.110739 
L 312.946018 -529.110739 
L 317.077175 -526.939623 
L 321.208333 -522.639693 
L 325.33949 -516.294181 
L 329.470647 -508.02457 
L 333.601805 -497.986726 
L 337.732962 -486.366018 
L 341.864119 -473.371627 
L 345.995277 -459.230303 
L 350.126434 -444.179822 
L 354.257591 -428.4624 
L 358.388749 -412.31833 
L 362.519906 -395.980052 
L 366.651063 -379.666871 
L 370.782221 -363.580456 
L 374.913378 -347.901251 
L 379.044535 -332.785841 
L 383.175693 -318.365297 
L 387.30685 -304.744465 
L 391.438007 -292.002137 
L 395.569165 -280.192004 
L 399.700322 -269.344261 
L 403.831479 -259.467747 
L 407.962637 -250.552459 
L 412.093794 -242.572312 
L 416.224951 -235.488004 
L 420.356109 -229.249878 
L 424.487266 -223.800667 
L 428.618423 -219.078053 
L 432.749581 -215.016962 
L 436.880738 -211.551575 
L 441.011895 -208.617009 
L 445.143053 -206.150691 
L 449.27421 -204.093399 
L 453.405367 -202.390029 
L 457.536525 -200.990079 
L 461.667682 -199.847921 
L 465.798839 -198.922859 
L 469.929997 -198.179047 
L 474.061154 -197.585273 
L 478.192311 -197.114666 
L 482.323469 -196.744335 
L 486.454626 -196.454982 
L 490.585783 -196.230497 
L 494.716941 -196.057565 
L 498.848098 -195.925281 
L 502.979255 -195.8248 
L 507.110413 -195.749007 
L 511.24157 -195.692234 
L 515.372727 -195.650004 
L 515.372727 -195.538011 
L 515.372727 -195.538011 
L 511.24157 -195.538011 
L 507.110413 -195.538011 
L 502.979255 -195.538011 
L 498.848098 -195.538011 
L 494.716941 -195.538011 
L 490.585783 -195.538011 
L 486.454626 -195.538011 
L 482.323469 -195.538011 
L 478.192311 -195.538011 
L 474.061154 -195.538011 
L 469.929997 -195.538011 
L 465.798839 -195.538011 
L 461.667682 -195.538011 
L 457.536525 -195.538011 
L 453.405367 -195.538011 
L 449.27421 -195.538011 
L 445.143053 -195.538011 
L 441.011895 -195.538011 
L 436.880738 -195.538011 
L 432.749581 -195.538011 
L 428.618423 -195.538011 
L 424.487266 -195.538011 
L 420.356109 -195.538011 
L 416.224951 -195.538011 
L 412.093794 -195.538011 
L 407.962637 -195.538011 
L 403.831479 -195.538011 
L 399.700322 -195.538011 
L 395.569165 -195.538011 
L 391.438007 -195.538011 
L 387.30685 -195.538011 
L 383.175693 -195.538011 
L 379.044535 -195.538011 
L 374.913378 -195.538011 
L 370.782221 -195.538011 
L 366.651063 -195.538011 
L 362.519906 -195.538011 
L 358.388749 -195.538011 
L 354.257591 -195.538011 
L 350.126434 -195.538011 
L 345.995277 -195.538011 
L 341.864119 -195.538011 
L 337.732962 -195.538011 
L 333.601805 -195.538011 
L 329.470647 -195.538011 
L 325.33949 -195.538011 
L 321.208333 -195.538011 
L 317.077175 -195.538011 
L 312.946018 -195.538011 
L 308.814861 -195.538011 
L 304.683703 -195.538011 
L 300.552546 -195.538011 
L 296.421389 -195.538011 
L 292.290231 -195.538011 
L 288.159074 -195.538011 
L 284.027917 -195.538011 
L 279.896759 -195.538011 
L 275.765602 -195.538011 
L 271.634445 -195.538011 
L 267.503287 -195.538011 
L 263.37213 -195.538011 
L 259.240973 -195.538011 
L 255.109815 -195.538011 
L 250.978658 -195.538011 
L 246.847501 -195.538011 
L 242.716343 -195.538011 
L 238.585186 -195.538011 
L 234.454029 -195.538011 
L 230.322871 -195.538011 
L 226.191714 -195.538011 
L 222.060557 -195.538011 
L 217.929399 -195.538011 
L 213.798242 -195.538011 
L 209.667085 -195.538011 
L 205.535927 -195.538011 
L 201.40477 -195.538011 
L 197.273613 -195.538011 
L 193.142455 -195.538011 
L 189.011298 -195.538011 
L 184.880141 -195.538011 
L 180.748983 -195.538011 
L 176.617826 -195.538011 
L 172.486669 -195.538011 
L 168.355511 -195.538011 
L 164.224354 -195.538011 
L 160.093197 -195.538011 
L 155.962039 -195.538011 
L 151.830882 -195.538011 
L 147.699725 -195.538011 
L 143.568567 -195.538011 
L 139.43741 -195.538011 
L 135.306253 -195.538011 
L 131.175095 -195.538011 
L 127.043938 -195.538011 
L 122.912781 -195.538011 
L 118.781623 -195.538011 
L 114.650466 -195.538011 
L 110.519309 -195.538011 
L 106.388151 -195.538011 
z
" id="mc59e33c693" style="stroke:#36a2eb;stroke-opacity:0.5;"/>
    </defs>
    <g clip-path="url(#p9ba9190f16)">
     <use style="fill:#36a2eb;fill-opacity:0.5;stroke:#36a2eb;stroke-opacity:0.5;" x="0" xlink:href="#mc59e33c693" y="581.789375"/>
    </g>
   </g>
   <g id="line2d_1">
    <path clip-path="url(#p9ba9190f16)" d="M 58.827273 386.147847 
L 63.29667 386.108812 
L 67.766067 386.056336 
L 72.235463 385.986279 
L 76.70486 385.893402 
L 81.174257 385.771129 
L 85.643654 385.611285 
L 90.113051 385.403789 
L 94.582448 385.136333 
L 99.051845 384.794029 
L 103.521242 384.359037 
L 107.990639 383.810199 
L 112.460036 383.122678 
L 116.929433 382.267624 
L 121.398829 381.211903 
L 125.868226 379.9179 
L 130.337623 378.343439 
L 134.80702 376.441841 
L 139.276417 374.162171 
L 143.745814 371.449691 
L 148.215211 368.246561 
L 152.684608 364.492809 
L 157.154005 360.127598 
L 161.623402 355.090778 
L 166.092798 349.324747 
L 170.562195 342.776573 
L 175.031592 335.400355 
L 179.500989 327.159768 
L 183.970386 318.030699 
L 188.439783 308.003902 
L 192.90918 297.087548 
L 197.378577 285.309547 
L 201.847974 272.719526 
L 206.317371 259.390315 
L 210.786768 245.418825 
L 215.256164 230.926207 
L 219.725561 216.057196 
L 224.194958 200.97858 
L 228.664355 185.876767 
L 233.133752 170.954464 
L 237.603149 156.426522 
L 242.072546 142.515046 
L 246.541943 129.443924 
L 251.01134 117.432935 
L 255.480737 106.691671 
L 259.950134 97.413481 
L 264.41953 89.769706 
L 268.888927 83.904416 
L 273.358324 79.929901 
L 277.827721 77.923093 
L 282.297118 77.923093 
L 286.766515 79.929901 
L 291.235912 83.904416 
L 295.705309 89.769706 
L 300.174706 97.413481 
L 304.644103 106.691671 
L 309.1135 117.432935 
L 313.582896 129.443924 
L 318.052293 142.515046 
L 322.52169 156.426522 
L 326.991087 170.954464 
L 331.460484 185.876767 
L 335.929881 200.97858 
L 340.399278 216.057196 
L 344.868675 230.926207 
L 349.338072 245.418825 
L 353.807469 259.390315 
L 358.276865 272.719526 
L 362.746262 285.309547 
L 367.215659 297.087548 
L 371.685056 308.003902 
L 376.154453 318.030699 
L 380.62385 327.159768 
L 385.093247 335.400355 
L 389.562644 342.776573 
L 394.032041 349.324747 
L 398.501438 355.090778 
L 402.970835 360.127598 
L 407.440231 364.492809 
L 411.909628 368.246561 
L 416.379025 371.449691 
L 420.848422 374.162171 
L 425.317819 376.441841 
L 429.787216 378.343439 
L 434.256613 379.9179 
L 438.72601 381.211903 
L 443.195407 382.267624 
L 447.664804 383.122678 
L 452.134201 383.810199 
L 456.603597 384.359037 
L 461.072994 384.794029 
L 465.542391 385.136333 
L 470.011788 385.403789 
L 474.481185 385.611285 
L 478.950582 385.771129 
L 483.419979 385.893402 
L 487.889376 385.986279 
L 492.358773 386.056336 
L 496.82817 386.108812 
L 501.297567 386.147847 
" style="fill:none;stroke:#ff6384;stroke-linecap:square;"/>
   </g>
   <g id="line2d_2">
    <path clip-path="url(#p9ba9190f16)" d="M 106.388151 386.139371 
L 110.519309 386.097141 
L 114.650466 386.040368 
L 118.781623 385.964575 
L 122.912781 385.864094 
L 127.043938 385.73181 
L 131.175095 385.558878 
L 135.306253 385.334393 
L 139.43741 385.04504 
L 143.568567 384.674709 
L 147.699725 384.204102 
L 151.830882 383.610328 
L 155.962039 382.866516 
L 160.093197 381.941454 
L 164.224354 380.799296 
L 168.355511 379.399346 
L 172.486669 377.695976 
L 176.617826 375.638684 
L 180.748983 373.172366 
L 184.880141 370.2378 
L 189.011298 366.772413 
L 193.142455 362.711322 
L 197.273613 357.988708 
L 201.40477 352.539497 
L 205.535927 346.301371 
L 209.667085 339.217063 
L 213.798242 331.236916 
L 217.929399 322.321628 
L 222.060557 312.445114 
L 226.191714 301.597371 
L 230.322871 289.787238 
L 234.454029 277.04491 
L 238.585186 263.424078 
L 242.716343 249.003534 
L 246.847501 233.888124 
L 250.978658 218.208919 
L 255.109815 202.122504 
L 259.240973 185.809323 
L 263.37213 169.471045 
L 267.503287 153.326975 
L 271.634445 137.609553 
L 275.765602 122.559072 
L 279.896759 108.417748 
L 284.027917 95.423357 
L 288.159074 83.802649 
L 292.290231 73.764805 
L 296.421389 65.495194 
L 300.552546 59.149682 
L 304.683703 54.849752 
L 308.814861 52.678636 
L 312.946018 52.678636 
L 317.077175 54.849752 
L 321.208333 59.149682 
L 325.33949 65.495194 
L 329.470647 73.764805 
L 333.601805 83.802649 
L 337.732962 95.423357 
L 341.864119 108.417748 
L 345.995277 122.559072 
L 350.126434 137.609553 
L 354.257591 153.326975 
L 358.388749 169.471045 
L 362.519906 185.809323 
L 366.651063 202.122504 
L 370.782221 218.208919 
L 374.913378 233.888124 
L 379.044535 249.003534 
L 383.175693 263.424078 
L 387.30685 277.04491 
L 391.438007 289.787238 
L 395.569165 301.597371 
L 399.700322 312.445114 
L 403.831479 322.321628 
L 407.962637 331.236916 
L 412.093794 339.217063 
L 416.224951 346.301371 
L 420.356109 352.539497 
L 424.487266 357.988708 
L 428.618423 362.711322 
L 432.749581 366.772413 
L 436.880738 370.2378 
L 441.011895 373.172366 
L 445.143053 375.638684 
L 449.27421 377.695976 
L 453.405367 379.399346 
L 457.536525 380.799296 
L 461.667682 381.941454 
L 465.798839 382.866516 
L 469.929997 383.610328 
L 474.061154 384.204102 
L 478.192311 384.674709 
L 482.323469 385.04504 
L 486.454626 385.334393 
L 490.585783 385.558878 
L 494.716941 385.73181 
L 498.848098 385.864094 
L 502.979255 385.964575 
L 507.110413 386.040368 
L 511.24157 386.097141 
L 515.372727 386.139371 
" style="fill:none;stroke:#36a2eb;stroke-linecap:square;"/>
   </g>
   <g id="patch_3">
    <path d="M 36 402.93 
L 538.2 402.93 
" style="fill:none;stroke:#000000;stroke-linecap:square;stroke-linejoin:miter;stroke-width:0.8;"/>
   </g>
   <g id="legend_1">
    <g id="patch_4">
     <path d="M 414.919063 88.29875 
L 528.4 88.29875 
Q 531.2 88.29875 531.2 85.49875 
L 531.2 45.8 
Q 531.2 43 528.4 43 
L 414.919063 43 
Q 412.119063 43 412.119063 45.8 
L 412.119063 85.49875 
Q 412.119063 88.29875 414.919063 88.29875 
z
" style="fill:#ffffff;opacity:0.8;stroke:#cccccc;stroke-linejoin:miter;"/>
    </g>
    <g id="patch_5">
     <path d="M 417.719063 59.237813 
L 445.719063 59.237813 
L 445.719063 49.437813 
L 417.719063 49.437813 
z
" style="fill:#ff6384;opacity:0.5;stroke:#ff6384;stroke-linejoin:miter;"/>
    </g>
    <g id="text_1">
     <!-- sidemenu -->
     <defs>
      <path d="M 44.28125 53.078125 
L 44.28125 44.578125 
Q 40.484375 46.53125 36.375 47.5 
Q 32.28125 48.484375 27.875 48.484375 
Q 21.1875 48.484375 17.84375 46.4375 
Q 14.5 44.390625 14.5 40.28125 
Q 14.5 37.15625 16.890625 35.375 
Q 19.28125 33.59375 26.515625 31.984375 
L 29.59375 31.296875 
Q 39.15625 29.25 43.1875 25.515625 
Q 47.21875 21.78125 47.21875 15.09375 
Q 47.21875 7.46875 41.1875 3.015625 
Q 35.15625 -1.421875 24.609375 -1.421875 
Q 20.21875 -1.421875 15.453125 -0.5625 
Q 10.6875 0.296875 5.421875 2 
L 5.421875 11.28125 
Q 10.40625 8.6875 15.234375 7.390625 
Q 20.0625 6.109375 24.8125 6.109375 
Q 31.15625 6.109375 34.5625 8.28125 
Q 37.984375 10.453125 37.984375 14.40625 
Q 37.984375 18.0625 35.515625 20.015625 
Q 33.0625 21.96875 24.703125 23.78125 
L 21.578125 24.515625 
Q 13.234375 26.265625 9.515625 29.90625 
Q 5.8125 33.546875 5.8125 39.890625 
Q 5.8125 47.609375 11.28125 51.796875 
Q 16.75 56 26.8125 56 
Q 31.78125 56 36.171875 55.265625 
Q 40.578125 54.546875 44.28125 53.078125 
z
" id="DejaVuSans-115"/>
      <path d="M 9.421875 54.6875 
L 18.40625 54.6875 
L 18.40625 0 
L 9.421875 0 
z
M 9.421875 75.984375 
L 18.40625 75.984375 
L 18.40625 64.59375 
L 9.421875 64.59375 
z
" id="DejaVuSans-105"/>
      <path d="M 45.40625 46.390625 
L 45.40625 75.984375 
L 54.390625 75.984375 
L 54.390625 0 
L 45.40625 0 
L 45.40625 8.203125 
Q 42.578125 3.328125 38.25 0.953125 
Q 33.9375 -1.421875 27.875 -1.421875 
Q 17.96875 -1.421875 11.734375 6.484375 
Q 5.515625 14.40625 5.515625 27.296875 
Q 5.515625 40.1875 11.734375 48.09375 
Q 17.96875 56 27.875 56 
Q 33.9375 56 38.25 53.625 
Q 42.578125 51.265625 45.40625 46.390625 
z
M 14.796875 27.296875 
Q 14.796875 17.390625 18.875 11.75 
Q 22.953125 6.109375 30.078125 6.109375 
Q 37.203125 6.109375 41.296875 11.75 
Q 45.40625 17.390625 45.40625 27.296875 
Q 45.40625 37.203125 41.296875 42.84375 
Q 37.203125 48.484375 30.078125 48.484375 
Q 22.953125 48.484375 18.875 42.84375 
Q 14.796875 37.203125 14.796875 27.296875 
z
" id="DejaVuSans-100"/>
      <path d="M 56.203125 29.59375 
L 56.203125 25.203125 
L 14.890625 25.203125 
Q 15.484375 15.921875 20.484375 11.0625 
Q 25.484375 6.203125 34.421875 6.203125 
Q 39.59375 6.203125 44.453125 7.46875 
Q 49.3125 8.734375 54.109375 11.28125 
L 54.109375 2.78125 
Q 49.265625 0.734375 44.1875 -0.34375 
Q 39.109375 -1.421875 33.890625 -1.421875 
Q 20.796875 -1.421875 13.15625 6.1875 
Q 5.515625 13.8125 5.515625 26.8125 
Q 5.515625 40.234375 12.765625 48.109375 
Q 20.015625 56 32.328125 56 
Q 43.359375 56 49.78125 48.890625 
Q 56.203125 41.796875 56.203125 29.59375 
z
M 47.21875 32.234375 
Q 47.125 39.59375 43.09375 43.984375 
Q 39.0625 48.390625 32.421875 48.390625 
Q 24.90625 48.390625 20.390625 44.140625 
Q 15.875 39.890625 15.1875 32.171875 
z
" id="DejaVuSans-101"/>
      <path d="M 52 44.1875 
Q 55.375 50.25 60.0625 53.125 
Q 64.75 56 71.09375 56 
Q 79.640625 56 84.28125 50.015625 
Q 88.921875 44.046875 88.921875 33.015625 
L 88.921875 0 
L 79.890625 0 
L 79.890625 32.71875 
Q 79.890625 40.578125 77.09375 44.375 
Q 74.3125 48.1875 68.609375 48.1875 
Q 61.625 48.1875 57.5625 43.546875 
Q 53.515625 38.921875 53.515625 30.90625 
L 53.515625 0 
L 44.484375 0 
L 44.484375 32.71875 
Q 44.484375 40.625 41.703125 44.40625 
Q 38.921875 48.1875 33.109375 48.1875 
Q 26.21875 48.1875 22.15625 43.53125 
Q 18.109375 38.875 18.109375 30.90625 
L 18.109375 0 
L 9.078125 0 
L 9.078125 54.6875 
L 18.109375 54.6875 
L 18.109375 46.1875 
Q 21.1875 51.21875 25.484375 53.609375 
Q 29.78125 56 35.6875 56 
Q 41.65625 56 45.828125 52.96875 
Q 50 49.953125 52 44.1875 
z
" id="DejaVuSans-109"/>
      <path d="M 54.890625 33.015625 
L 54.890625 0 
L 45.90625 0 
L 45.90625 32.71875 
Q 45.90625 40.484375 42.875 44.328125 
Q 39.84375 48.1875 33.796875 48.1875 
Q 26.515625 48.1875 22.3125 43.546875 
Q 18.109375 38.921875 18.109375 30.90625 
L 18.109375 0 
L 9.078125 0 
L 9.078125 54.6875 
L 18.109375 54.6875 
L 18.109375 46.1875 
Q 21.34375 51.125 25.703125 53.5625 
Q 30.078125 56 35.796875 56 
Q 45.21875 56 50.046875 50.171875 
Q 54.890625 44.34375 54.890625 33.015625 
z
" id="DejaVuSans-110"/>
      <path d="M 8.5 21.578125 
L 8.5 54.6875 
L 17.484375 54.6875 
L 17.484375 21.921875 
Q 17.484375 14.15625 20.5 10.265625 
Q 23.53125 6.390625 29.59375 6.390625 
Q 36.859375 6.390625 41.078125 11.03125 
Q 45.3125 15.671875 45.3125 23.6875 
L 45.3125 54.6875 
L 54.296875 54.6875 
L 54.296875 0 
L 45.3125 0 
L 45.3125 8.40625 
Q 42.046875 3.421875 37.71875 1 
Q 33.40625 -1.421875 27.6875 -1.421875 
Q 18.265625 -1.421875 13.375 4.4375 
Q 8.5 10.296875 8.5 21.578125 
z
M 31.109375 56 
z
" id="DejaVuSans-117"/>
     </defs>
     <g transform="translate(456.919063 59.237813)scale(0.14 -0.14)">
      <use xlink:href="#DejaVuSans-115"/>
      <use x="52.099609" xlink:href="#DejaVuSans-105"/>
      <use x="79.882812" xlink:href="#DejaVuSans-100"/>
      <use x="143.359375" xlink:href="#DejaVuSans-101"/>
      <use x="204.882812" xlink:href="#DejaVuSans-109"/>
      <use x="302.294922" xlink:href="#DejaVuSans-101"/>
      <use x="363.818359" xlink:href="#DejaVuSans-110"/>
      <use x="427.197266" xlink:href="#DejaVuSans-117"/>
     </g>
    </g>
    <g id="patch_6">
     <path d="M 417.719063 79.787188 
L 445.719063 79.787188 
L 445.719063 69.987188 
L 417.719063 69.987188 
z
" style="fill:#36a2eb;opacity:0.5;stroke:#36a2eb;stroke-linejoin:miter;"/>
    </g>
    <g id="text_2">
     <!-- tabbar -->
     <defs>
      <path d="M 18.3125 70.21875 
L 18.3125 54.6875 
L 36.8125 54.6875 
L 36.8125 47.703125 
L 18.3125 47.703125 
L 18.3125 18.015625 
Q 18.3125 11.328125 20.140625 9.421875 
Q 21.96875 7.515625 27.59375 7.515625 
L 36.8125 7.515625 
L 36.8125 0 
L 27.59375 0 
Q 17.1875 0 13.234375 3.875 
Q 9.28125 7.765625 9.28125 18.015625 
L 9.28125 47.703125 
L 2.6875 47.703125 
L 2.6875 54.6875 
L 9.28125 54.6875 
L 9.28125 70.21875 
z
" id="DejaVuSans-116"/>
      <path d="M 34.28125 27.484375 
Q 23.390625 27.484375 19.1875 25 
Q 14.984375 22.515625 14.984375 16.5 
Q 14.984375 11.71875 18.140625 8.90625 
Q 21.296875 6.109375 26.703125 6.109375 
Q 34.1875 6.109375 38.703125 11.40625 
Q 43.21875 16.703125 43.21875 25.484375 
L 43.21875 27.484375 
z
M 52.203125 31.203125 
L 52.203125 0 
L 43.21875 0 
L 43.21875 8.296875 
Q 40.140625 3.328125 35.546875 0.953125 
Q 30.953125 -1.421875 24.3125 -1.421875 
Q 15.921875 -1.421875 10.953125 3.296875 
Q 6 8.015625 6 15.921875 
Q 6 25.140625 12.171875 29.828125 
Q 18.359375 34.515625 30.609375 34.515625 
L 43.21875 34.515625 
L 43.21875 35.40625 
Q 43.21875 41.609375 39.140625 45 
Q 35.0625 48.390625 27.6875 48.390625 
Q 23 48.390625 18.546875 47.265625 
Q 14.109375 46.140625 10.015625 43.890625 
L 10.015625 52.203125 
Q 14.9375 54.109375 19.578125 55.046875 
Q 24.21875 56 28.609375 56 
Q 40.484375 56 46.34375 49.84375 
Q 52.203125 43.703125 52.203125 31.203125 
z
" id="DejaVuSans-97"/>
      <path d="M 48.6875 27.296875 
Q 48.6875 37.203125 44.609375 42.84375 
Q 40.53125 48.484375 33.40625 48.484375 
Q 26.265625 48.484375 22.1875 42.84375 
Q 18.109375 37.203125 18.109375 27.296875 
Q 18.109375 17.390625 22.1875 11.75 
Q 26.265625 6.109375 33.40625 6.109375 
Q 40.53125 6.109375 44.609375 11.75 
Q 48.6875 17.390625 48.6875 27.296875 
z
M 18.109375 46.390625 
Q 20.953125 51.265625 25.265625 53.625 
Q 29.59375 56 35.59375 56 
Q 45.5625 56 51.78125 48.09375 
Q 58.015625 40.1875 58.015625 27.296875 
Q 58.015625 14.40625 51.78125 6.484375 
Q 45.5625 -1.421875 35.59375 -1.421875 
Q 29.59375 -1.421875 25.265625 0.953125 
Q 20.953125 3.328125 18.109375 8.203125 
L 18.109375 0 
L 9.078125 0 
L 9.078125 75.984375 
L 18.109375 75.984375 
z
" id="DejaVuSans-98"/>
      <path d="M 41.109375 46.296875 
Q 39.59375 47.171875 37.8125 47.578125 
Q 36.03125 48 33.890625 48 
Q 26.265625 48 22.1875 43.046875 
Q 18.109375 38.09375 18.109375 28.8125 
L 18.109375 0 
L 9.078125 0 
L 9.078125 54.6875 
L 18.109375 54.6875 
L 18.109375 46.1875 
Q 20.953125 51.171875 25.484375 53.578125 
Q 30.03125 56 36.53125 56 
Q 37.453125 56 38.578125 55.875 
Q 39.703125 55.765625 41.0625 55.515625 
z
" id="DejaVuSans-114"/>
     </defs>
     <g transform="translate(456.919063 79.787188)scale(0.14 -0.14)">
      <use xlink:href="#DejaVuSans-116"/>
      <use x="39.208984" xlink:href="#DejaVuSans-97"/>
      <use x="100.488281" xlink:href="#DejaVuSans-98"/>
      <use x="163.964844" xlink:href="#DejaVuSans-98"/>
      <use x="227.441406" xlink:href="#DejaVuSans-97"/>
      <use x="288.720703" xlink:href="#DejaVuSans-114"/>
     </g>
    </g>
   </g>
  </g>
  <g id="axes_2">
   <g id="patch_7">
    <path d="M 36 525.24 
L 538.2 525.24 
L 538.2 402.93 
L 36 402.93 
z
" style="fill:none;"/>
   </g>
   <g id="patch_8">
    <path clip-path="url(#p08c207a11a)" d="M 171.657198 519.680455 
L 388.467642 519.680455 
L 388.467642 482.616818 
L 171.657198 482.616818 
z
" style="fill:#ff6384;opacity:0.5;"/>
   </g>
   <g id="patch_9">
    <path clip-path="url(#p08c207a11a)" d="M 210.679218 445.553182 
L 411.08166 445.553182 
L 411.08166 408.489545 
L 210.679218 408.489545 
z
" style="fill:#36a2eb;opacity:0.5;"/>
   </g>
   <g id="matplotlib.axis_1">
    <g id="xtick_1">
     <g id="line2d_3">
      <defs>
       <path d="M 0 0 
L 0 3.5 
" id="mf891f33bd4" style="stroke:#000000;stroke-width:0.8;"/>
      </defs>
      <g>
       <use style="stroke:#000000;stroke-width:0.8;" x="128.8434" xlink:href="#mf891f33bd4" y="525.24"/>
      </g>
     </g>
     <g id="text_3">
      <!-- 130 -->
      <defs>
       <path d="M 12.40625 8.296875 
L 28.515625 8.296875 
L 28.515625 63.921875 
L 10.984375 60.40625 
L 10.984375 69.390625 
L 28.421875 72.90625 
L 38.28125 72.90625 
L 38.28125 8.296875 
L 54.390625 8.296875 
L 54.390625 0 
L 12.40625 0 
z
" id="DejaVuSans-49"/>
       <path d="M 40.578125 39.3125 
Q 47.65625 37.796875 51.625 33 
Q 55.609375 28.21875 55.609375 21.1875 
Q 55.609375 10.40625 48.1875 4.484375 
Q 40.765625 -1.421875 27.09375 -1.421875 
Q 22.515625 -1.421875 17.65625 -0.515625 
Q 12.796875 0.390625 7.625 2.203125 
L 7.625 11.71875 
Q 11.71875 9.328125 16.59375 8.109375 
Q 21.484375 6.890625 26.8125 6.890625 
Q 36.078125 6.890625 40.9375 10.546875 
Q 45.796875 14.203125 45.796875 21.1875 
Q 45.796875 27.640625 41.28125 31.265625 
Q 36.765625 34.90625 28.71875 34.90625 
L 20.21875 34.90625 
L 20.21875 43.015625 
L 29.109375 43.015625 
Q 36.375 43.015625 40.234375 45.921875 
Q 44.09375 48.828125 44.09375 54.296875 
Q 44.09375 59.90625 40.109375 62.90625 
Q 36.140625 65.921875 28.71875 65.921875 
Q 24.65625 65.921875 20.015625 65.03125 
Q 15.375 64.15625 9.8125 62.3125 
L 9.8125 71.09375 
Q 15.4375 72.65625 20.34375 73.4375 
Q 25.25 74.21875 29.59375 74.21875 
Q 40.828125 74.21875 47.359375 69.109375 
Q 53.90625 64.015625 53.90625 55.328125 
Q 53.90625 49.265625 50.4375 45.09375 
Q 46.96875 40.921875 40.578125 39.3125 
z
" id="DejaVuSans-51"/>
       <path d="M 31.78125 66.40625 
Q 24.171875 66.40625 20.328125 58.90625 
Q 16.5 51.421875 16.5 36.375 
Q 16.5 21.390625 20.328125 13.890625 
Q 24.171875 6.390625 31.78125 6.390625 
Q 39.453125 6.390625 43.28125 13.890625 
Q 47.125 21.390625 47.125 36.375 
Q 47.125 51.421875 43.28125 58.90625 
Q 39.453125 66.40625 31.78125 66.40625 
z
M 31.78125 74.21875 
Q 44.046875 74.21875 50.515625 64.515625 
Q 56.984375 54.828125 56.984375 36.375 
Q 56.984375 17.96875 50.515625 8.265625 
Q 44.046875 -1.421875 31.78125 -1.421875 
Q 19.53125 -1.421875 13.0625 8.265625 
Q 6.59375 17.96875 6.59375 36.375 
Q 6.59375 54.828125 13.0625 64.515625 
Q 19.53125 74.21875 31.78125 74.21875 
z
" id="DejaVuSans-48"/>
      </defs>
      <g transform="translate(115.48215 542.877813)scale(0.14 -0.14)">
       <use xlink:href="#DejaVuSans-49"/>
       <use x="63.623047" xlink:href="#DejaVuSans-51"/>
       <use x="127.246094" xlink:href="#DejaVuSans-48"/>
      </g>
     </g>
    </g>
    <g id="xtick_2">
     <g id="line2d_4">
      <g>
       <use style="stroke:#000000;stroke-width:0.8;" x="223.849318" xlink:href="#mf891f33bd4" y="525.24"/>
      </g>
     </g>
     <g id="text_4">
      <!-- 135 -->
      <defs>
       <path d="M 10.796875 72.90625 
L 49.515625 72.90625 
L 49.515625 64.59375 
L 19.828125 64.59375 
L 19.828125 46.734375 
Q 21.96875 47.46875 24.109375 47.828125 
Q 26.265625 48.1875 28.421875 48.1875 
Q 40.625 48.1875 47.75 41.5 
Q 54.890625 34.8125 54.890625 23.390625 
Q 54.890625 11.625 47.5625 5.09375 
Q 40.234375 -1.421875 26.90625 -1.421875 
Q 22.3125 -1.421875 17.546875 -0.640625 
Q 12.796875 0.140625 7.71875 1.703125 
L 7.71875 11.625 
Q 12.109375 9.234375 16.796875 8.0625 
Q 21.484375 6.890625 26.703125 6.890625 
Q 35.15625 6.890625 40.078125 11.328125 
Q 45.015625 15.765625 45.015625 23.390625 
Q 45.015625 31 40.078125 35.4375 
Q 35.15625 39.890625 26.703125 39.890625 
Q 22.75 39.890625 18.8125 39.015625 
Q 14.890625 38.140625 10.796875 36.28125 
z
" id="DejaVuSans-53"/>
      </defs>
      <g transform="translate(210.488068 542.877813)scale(0.14 -0.14)">
       <use xlink:href="#DejaVuSans-49"/>
       <use x="63.623047" xlink:href="#DejaVuSans-51"/>
       <use x="127.246094" xlink:href="#DejaVuSans-53"/>
      </g>
     </g>
    </g>
    <g id="xtick_3">
     <g id="line2d_5">
      <g>
       <use style="stroke:#000000;stroke-width:0.8;" x="318.855236" xlink:href="#mf891f33bd4" y="525.24"/>
      </g>
     </g>
     <g id="text_5">
      <!-- 140 -->
      <defs>
       <path d="M 37.796875 64.3125 
L 12.890625 25.390625 
L 37.796875 25.390625 
z
M 35.203125 72.90625 
L 47.609375 72.90625 
L 47.609375 25.390625 
L 58.015625 25.390625 
L 58.015625 17.1875 
L 47.609375 17.1875 
L 47.609375 0 
L 37.796875 0 
L 37.796875 17.1875 
L 4.890625 17.1875 
L 4.890625 26.703125 
z
" id="DejaVuSans-52"/>
      </defs>
      <g transform="translate(305.493986 542.877813)scale(0.14 -0.14)">
       <use xlink:href="#DejaVuSans-49"/>
       <use x="63.623047" xlink:href="#DejaVuSans-52"/>
       <use x="127.246094" xlink:href="#DejaVuSans-48"/>
      </g>
     </g>
    </g>
    <g id="xtick_4">
     <g id="line2d_6">
      <g>
       <use style="stroke:#000000;stroke-width:0.8;" x="413.861154" xlink:href="#mf891f33bd4" y="525.24"/>
      </g>
     </g>
     <g id="text_6">
      <!-- 145 -->
      <g transform="translate(400.499904 542.877813)scale(0.14 -0.14)">
       <use xlink:href="#DejaVuSans-49"/>
       <use x="63.623047" xlink:href="#DejaVuSans-52"/>
       <use x="127.246094" xlink:href="#DejaVuSans-53"/>
      </g>
     </g>
    </g>
    <g id="xtick_5">
     <g id="line2d_7">
      <g>
       <use style="stroke:#000000;stroke-width:0.8;" x="508.867072" xlink:href="#mf891f33bd4" y="525.24"/>
      </g>
     </g>
     <g id="text_7">
      <!-- 150 -->
      <g transform="translate(495.505822 542.877813)scale(0.14 -0.14)">
       <use xlink:href="#DejaVuSans-49"/>
       <use x="63.623047" xlink:href="#DejaVuSans-53"/>
       <use x="127.246094" xlink:href="#DejaVuSans-48"/>
      </g>
     </g>
    </g>
   </g>
   <g id="line2d_8">
    <path clip-path="url(#p08c207a11a)" d="M 280.06242 525.24 
L 280.06242 402.93 
" style="fill:none;stroke:#ff6384;stroke-dasharray:5.55,2.4;stroke-dashoffset:0;stroke-opacity:0.8;stroke-width:1.5;"/>
   </g>
   <g id="line2d_9">
    <path clip-path="url(#p08c207a11a)" d="M 310.880439 525.24 
L 310.880439 402.93 
" style="fill:none;stroke:#36a2eb;stroke-dasharray:5.55,2.4;stroke-dashoffset:0;stroke-opacity:0.8;stroke-width:1.5;"/>
   </g>
   <g id="patch_10">
    <path d="M 36 525.24 
L 538.2 525.24 
" style="fill:none;stroke:#000000;stroke-linecap:square;stroke-linejoin:miter;stroke-width:0.8;"/>
   </g>
  </g>
 </g>
 <defs>
  <clipPath id="p9ba9190f16">
   <rect height="366.93" width="502.2" x="36" y="36"/>
  </clipPath>
  <clipPath id="p08c207a11a">
   <rect height="122.31" width="502.2" x="36" y="402.93"/>
  </clipPath>
 </defs>
</svg>
