<?xml version="1.0" encoding="utf-8" standalone="no"?>
<!DOCTYPE svg PUBLIC "-//W3C//DTD SVG 1.1//EN"
  "http://www.w3.org/Graphics/SVG/1.1/DTD/svg11.dtd">
<!-- Created with matplotlib (https://matplotlib.org/) -->
<svg height="581.789375pt" version="1.1" viewBox="0 0 574.2 581.789375" width="574.2pt" xmlns="http://www.w3.org/2000/svg" xmlns:xlink="http://www.w3.org/1999/xlink">
 <defs>
  <style type="text/css">
*{stroke-linecap:butt;stroke-linejoin:round;}
  </style>
 </defs>
 <g id="figure_1">
  <g id="patch_1">
   <path d="M 0 581.789375 
L 574.2 581.789375 
L 574.2 0 
L 0 0 
z
" style="fill:none;"/>
  </g>
  <g id="axes_1">
   <g id="patch_2">
    <path d="M 36 402.93 
L 538.2 402.93 
L 538.2 36 
L 36 36 
z
" style="fill:none;"/>
   </g>
   <g id="PolyCollection_1">
    <defs>
     <path d="M 58.827273 -195.538011 
L 58.827273 -195.641441 
L 63.303514 -195.680442 
L 67.779756 -195.732873 
L 72.255998 -195.802871 
L 76.732239 -195.895669 
L 81.208481 -196.017838 
L 85.684722 -196.177547 
L 90.160964 -196.384867 
L 94.637205 -196.652095 
L 99.113447 -196.994109 
L 103.589689 -197.428732 
L 108.06593 -197.977104 
L 112.542172 -198.664042 
L 117.018413 -199.51837 
L 121.494655 -200.573195 
L 125.970897 -201.8661 
L 130.447138 -203.439225 
L 134.92338 -205.339209 
L 139.399621 -207.616944 
L 143.875863 -210.327122 
L 148.352105 -213.527534 
L 152.828346 -217.2781 
L 157.304588 -221.639607 
L 161.780829 -226.672152 
L 166.257071 -232.433289 
L 170.733313 -238.975906 
L 175.209554 -246.345864 
L 179.685796 -254.579458 
L 184.162037 -263.700779 
L 188.638279 -273.719066 
L 193.11452 -284.626156 
L 197.590762 -296.394161 
L 202.067004 -308.973497 
L 206.543245 -322.291397 
L 211.019487 -336.25103 
L 215.495728 -350.731348 
L 219.97197 -365.58774 
L 224.448212 -380.653559 
L 228.924453 -395.742556 
L 233.400695 -410.652194 
L 237.876936 -425.167807 
L 242.353178 -439.067477 
L 246.82942 -452.127506 
L 251.305661 -464.128301 
L 255.781903 -474.860449 
L 260.258144 -484.130765 
L 264.734386 -491.768053 
L 269.210628 -497.628365 
L 273.686869 -501.599508 
L 278.163111 -503.604612 
L 282.639352 -503.604612 
L 287.115594 -501.599508 
L 291.591836 -497.628365 
L 296.068077 -491.768053 
L 300.544319 -484.130765 
L 305.02056 -474.860449 
L 309.496802 -464.128301 
L 313.973043 -452.127506 
L 318.449285 -439.067477 
L 322.925527 -425.167807 
L 327.401768 -410.652194 
L 331.87801 -395.742556 
L 336.354251 -380.653559 
L 340.830493 -365.58774 
L 345.306735 -350.731348 
L 349.782976 -336.25103 
L 354.259218 -322.291397 
L 358.735459 -308.973497 
L 363.211701 -296.394161 
L 367.687943 -284.626156 
L 372.164184 -273.719066 
L 376.640426 -263.700779 
L 381.116667 -254.579458 
L 385.592909 -246.345864 
L 390.069151 -238.975906 
L 394.545392 -232.433289 
L 399.021634 -226.672152 
L 403.497875 -221.639607 
L 407.974117 -217.2781 
L 412.450358 -213.527534 
L 416.9266 -210.327122 
L 421.402842 -207.616944 
L 425.879083 -205.339209 
L 430.355325 -203.439225 
L 434.831566 -201.8661 
L 439.307808 -200.573195 
L 443.78405 -199.51837 
L 448.260291 -198.664042 
L 452.736533 -197.977104 
L 457.212774 -197.428732 
L 461.689016 -196.994109 
L 466.165258 -196.652095 
L 470.641499 -196.384867 
L 475.117741 -196.177547 
L 479.593982 -196.017838 
L 484.070224 -195.895669 
L 488.546466 -195.802871 
L 493.022707 -195.732873 
L 497.498949 -195.680442 
L 501.97519 -195.641441 
L 501.97519 -195.538011 
L 501.97519 -195.538011 
L 497.498949 -195.538011 
L 493.022707 -195.538011 
L 488.546466 -195.538011 
L 484.070224 -195.538011 
L 479.593982 -195.538011 
L 475.117741 -195.538011 
L 470.641499 -195.538011 
L 466.165258 -195.538011 
L 461.689016 -195.538011 
L 457.212774 -195.538011 
L 452.736533 -195.538011 
L 448.260291 -195.538011 
L 443.78405 -195.538011 
L 439.307808 -195.538011 
L 434.831566 -195.538011 
L 430.355325 -195.538011 
L 425.879083 -195.538011 
L 421.402842 -195.538011 
L 416.9266 -195.538011 
L 412.450358 -195.538011 
L 407.974117 -195.538011 
L 403.497875 -195.538011 
L 399.021634 -195.538011 
L 394.545392 -195.538011 
L 390.069151 -195.538011 
L 385.592909 -195.538011 
L 381.116667 -195.538011 
L 376.640426 -195.538011 
L 372.164184 -195.538011 
L 367.687943 -195.538011 
L 363.211701 -195.538011 
L 358.735459 -195.538011 
L 354.259218 -195.538011 
L 349.782976 -195.538011 
L 345.306735 -195.538011 
L 340.830493 -195.538011 
L 336.354251 -195.538011 
L 331.87801 -195.538011 
L 327.401768 -195.538011 
L 322.925527 -195.538011 
L 318.449285 -195.538011 
L 313.973043 -195.538011 
L 309.496802 -195.538011 
L 305.02056 -195.538011 
L 300.544319 -195.538011 
L 296.068077 -195.538011 
L 291.591836 -195.538011 
L 287.115594 -195.538011 
L 282.639352 -195.538011 
L 278.163111 -195.538011 
L 273.686869 -195.538011 
L 269.210628 -195.538011 
L 264.734386 -195.538011 
L 260.258144 -195.538011 
L 255.781903 -195.538011 
L 251.305661 -195.538011 
L 246.82942 -195.538011 
L 242.353178 -195.538011 
L 237.876936 -195.538011 
L 233.400695 -195.538011 
L 228.924453 -195.538011 
L 224.448212 -195.538011 
L 219.97197 -195.538011 
L 215.495728 -195.538011 
L 211.019487 -195.538011 
L 206.543245 -195.538011 
L 202.067004 -195.538011 
L 197.590762 -195.538011 
L 193.11452 -195.538011 
L 188.638279 -195.538011 
L 184.162037 -195.538011 
L 179.685796 -195.538011 
L 175.209554 -195.538011 
L 170.733313 -195.538011 
L 166.257071 -195.538011 
L 161.780829 -195.538011 
L 157.304588 -195.538011 
L 152.828346 -195.538011 
L 148.352105 -195.538011 
L 143.875863 -195.538011 
L 139.399621 -195.538011 
L 134.92338 -195.538011 
L 130.447138 -195.538011 
L 125.970897 -195.538011 
L 121.494655 -195.538011 
L 117.018413 -195.538011 
L 112.542172 -195.538011 
L 108.06593 -195.538011 
L 103.589689 -195.538011 
L 99.113447 -195.538011 
L 94.637205 -195.538011 
L 90.160964 -195.538011 
L 85.684722 -195.538011 
L 81.208481 -195.538011 
L 76.732239 -195.538011 
L 72.255998 -195.538011 
L 67.779756 -195.538011 
L 63.303514 -195.538011 
L 58.827273 -195.538011 
z
" id="m3fe477e565" style="stroke:#ff6384;stroke-opacity:0.5;"/>
    </defs>
    <g clip-path="url(#p812f181362)">
     <use style="fill:#ff6384;fill-opacity:0.5;stroke:#ff6384;stroke-opacity:0.5;" x="0" xlink:href="#m3fe477e565" y="581.789375"/>
    </g>
   </g>
   <g id="PolyCollection_2">
    <defs>
     <path d="M 106.109435 -195.538011 
L 106.109435 -195.650004 
L 110.243408 -195.692234 
L 114.37738 -195.749007 
L 118.511353 -195.8248 
L 122.645326 -195.925281 
L 126.779298 -196.057565 
L 130.913271 -196.230497 
L 135.047244 -196.454982 
L 139.181216 -196.744335 
L 143.315189 -197.114666 
L 147.449161 -197.585273 
L 151.583134 -198.179047 
L 155.717107 -198.922859 
L 159.851079 -199.847921 
L 163.985052 -200.990079 
L 168.119025 -202.390029 
L 172.252997 -204.093399 
L 176.38697 -206.150691 
L 180.520943 -208.617009 
L 184.654915 -211.551575 
L 188.788888 -215.016962 
L 192.922861 -219.078053 
L 197.056833 -223.800667 
L 201.190806 -229.249878 
L 205.324779 -235.488004 
L 209.458751 -242.572312 
L 213.592724 -250.552459 
L 217.726697 -259.467747 
L 221.860669 -269.344261 
L 225.994642 -280.192004 
L 230.128614 -292.002137 
L 234.262587 -304.744465 
L 238.39656 -318.365297 
L 242.530532 -332.785841 
L 246.664505 -347.901251 
L 250.798478 -363.580456 
L 254.93245 -379.666871 
L 259.066423 -395.980052 
L 263.200396 -412.31833 
L 267.334368 -428.4624 
L 271.468341 -444.179822 
L 275.602314 -459.230303 
L 279.736286 -473.371627 
L 283.870259 -486.366018 
L 288.004232 -497.986726 
L 292.138204 -508.02457 
L 296.272177 -516.294181 
L 300.40615 -522.639693 
L 304.540122 -526.939623 
L 308.674095 -529.110739 
L 312.808067 -529.110739 
L 316.94204 -526.939623 
L 321.076013 -522.639693 
L 325.209985 -516.294181 
L 329.343958 -508.02457 
L 333.477931 -497.986726 
L 337.611903 -486.366018 
L 341.745876 -473.371627 
L 345.879849 -459.230303 
L 350.013821 -444.179822 
L 354.147794 -428.4624 
L 358.281767 -412.31833 
L 362.415739 -395.980052 
L 366.549712 -379.666871 
L 370.683685 -363.580456 
L 374.817657 -347.901251 
L 378.95163 -332.785841 
L 383.085602 -318.365297 
L 387.219575 -304.744465 
L 391.353548 -292.002137 
L 395.48752 -280.192004 
L 399.621493 -269.344261 
L 403.755466 -259.467747 
L 407.889438 -250.552459 
L 412.023411 -242.572312 
L 416.157384 -235.488004 
L 420.291356 -229.249878 
L 424.425329 -223.800667 
L 428.559302 -219.078053 
L 432.693274 -215.016962 
L 436.827247 -211.551575 
L 440.96122 -208.617009 
L 445.095192 -206.150691 
L 449.229165 -204.093399 
L 453.363138 -202.390029 
L 457.49711 -200.990079 
L 461.631083 -199.847921 
L 465.765055 -198.922859 
L 469.899028 -198.179047 
L 474.033001 -197.585273 
L 478.166973 -197.114666 
L 482.300946 -196.744335 
L 486.434919 -196.454982 
L 490.568891 -196.230497 
L 494.702864 -196.057565 
L 498.836837 -195.925281 
L 502.970809 -195.8248 
L 507.104782 -195.749007 
L 511.238755 -195.692234 
L 515.372727 -195.650004 
L 515.372727 -195.538011 
L 515.372727 -195.538011 
L 511.238755 -195.538011 
L 507.104782 -195.538011 
L 502.970809 -195.538011 
L 498.836837 -195.538011 
L 494.702864 -195.538011 
L 490.568891 -195.538011 
L 486.434919 -195.538011 
L 482.300946 -195.538011 
L 478.166973 -195.538011 
L 474.033001 -195.538011 
L 469.899028 -195.538011 
L 465.765055 -195.538011 
L 461.631083 -195.538011 
L 457.49711 -195.538011 
L 453.363138 -195.538011 
L 449.229165 -195.538011 
L 445.095192 -195.538011 
L 440.96122 -195.538011 
L 436.827247 -195.538011 
L 432.693274 -195.538011 
L 428.559302 -195.538011 
L 424.425329 -195.538011 
L 420.291356 -195.538011 
L 416.157384 -195.538011 
L 412.023411 -195.538011 
L 407.889438 -195.538011 
L 403.755466 -195.538011 
L 399.621493 -195.538011 
L 395.48752 -195.538011 
L 391.353548 -195.538011 
L 387.219575 -195.538011 
L 383.085602 -195.538011 
L 378.95163 -195.538011 
L 374.817657 -195.538011 
L 370.683685 -195.538011 
L 366.549712 -195.538011 
L 362.415739 -195.538011 
L 358.281767 -195.538011 
L 354.147794 -195.538011 
L 350.013821 -195.538011 
L 345.879849 -195.538011 
L 341.745876 -195.538011 
L 337.611903 -195.538011 
L 333.477931 -195.538011 
L 329.343958 -195.538011 
L 325.209985 -195.538011 
L 321.076013 -195.538011 
L 316.94204 -195.538011 
L 312.808067 -195.538011 
L 308.674095 -195.538011 
L 304.540122 -195.538011 
L 300.40615 -195.538011 
L 296.272177 -195.538011 
L 292.138204 -195.538011 
L 288.004232 -195.538011 
L 283.870259 -195.538011 
L 279.736286 -195.538011 
L 275.602314 -195.538011 
L 271.468341 -195.538011 
L 267.334368 -195.538011 
L 263.200396 -195.538011 
L 259.066423 -195.538011 
L 254.93245 -195.538011 
L 250.798478 -195.538011 
L 246.664505 -195.538011 
L 242.530532 -195.538011 
L 238.39656 -195.538011 
L 234.262587 -195.538011 
L 230.128614 -195.538011 
L 225.994642 -195.538011 
L 221.860669 -195.538011 
L 217.726697 -195.538011 
L 213.592724 -195.538011 
L 209.458751 -195.538011 
L 205.324779 -195.538011 
L 201.190806 -195.538011 
L 197.056833 -195.538011 
L 192.922861 -195.538011 
L 188.788888 -195.538011 
L 184.654915 -195.538011 
L 180.520943 -195.538011 
L 176.38697 -195.538011 
L 172.252997 -195.538011 
L 168.119025 -195.538011 
L 163.985052 -195.538011 
L 159.851079 -195.538011 
L 155.717107 -195.538011 
L 151.583134 -195.538011 
L 147.449161 -195.538011 
L 143.315189 -195.538011 
L 139.181216 -195.538011 
L 135.047244 -195.538011 
L 130.913271 -195.538011 
L 126.779298 -195.538011 
L 122.645326 -195.538011 
L 118.511353 -195.538011 
L 114.37738 -195.538011 
L 110.243408 -195.538011 
L 106.109435 -195.538011 
z
" id="md9f3897f5e" style="stroke:#36a2eb;stroke-opacity:0.5;"/>
    </defs>
    <g clip-path="url(#p812f181362)">
     <use style="fill:#36a2eb;fill-opacity:0.5;stroke:#36a2eb;stroke-opacity:0.5;" x="0" xlink:href="#md9f3897f5e" y="581.789375"/>
    </g>
   </g>
   <g id="line2d_1">
    <path clip-path="url(#p812f181362)" d="M 58.827273 386.147934 
L 63.303514 386.108933 
L 67.779756 386.056502 
L 72.255998 385.986504 
L 76.732239 385.893706 
L 81.208481 385.771537 
L 85.684722 385.611828 
L 90.160964 385.404508 
L 94.637205 385.13728 
L 99.113447 384.795266 
L 103.589689 384.360643 
L 108.06593 383.812271 
L 112.542172 383.125333 
L 117.018413 382.271005 
L 121.494655 381.21618 
L 125.970897 379.923275 
L 130.447138 378.35015 
L 134.92338 376.450166 
L 139.399621 374.172431 
L 143.875863 371.462253 
L 148.352105 368.261841 
L 152.828346 364.511275 
L 157.304588 360.149768 
L 161.780829 355.117223 
L 166.257071 349.356086 
L 170.733313 342.813469 
L 175.209554 335.443511 
L 179.685796 327.209917 
L 184.162037 318.088596 
L 188.638279 308.070309 
L 193.11452 297.163219 
L 197.590762 285.395214 
L 202.067004 272.815878 
L 206.543245 259.497978 
L 211.019487 245.538345 
L 215.495728 231.058027 
L 219.97197 216.201635 
L 224.448212 201.135816 
L 228.924453 186.046819 
L 233.400695 171.137181 
L 237.876936 156.621568 
L 242.353178 142.721898 
L 246.82942 129.661869 
L 251.305661 117.661074 
L 255.781903 106.928926 
L 260.258144 97.65861 
L 264.734386 90.021322 
L 269.210628 84.16101 
L 273.686869 80.189867 
L 278.163111 78.184763 
L 282.639352 78.184763 
L 287.115594 80.189867 
L 291.591836 84.16101 
L 296.068077 90.021322 
L 300.544319 97.65861 
L 305.02056 106.928926 
L 309.496802 117.661074 
L 313.973043 129.661869 
L 318.449285 142.721898 
L 322.925527 156.621568 
L 327.401768 171.137181 
L 331.87801 186.046819 
L 336.354251 201.135816 
L 340.830493 216.201635 
L 345.306735 231.058027 
L 349.782976 245.538345 
L 354.259218 259.497978 
L 358.735459 272.815878 
L 363.211701 285.395214 
L 367.687943 297.163219 
L 372.164184 308.070309 
L 376.640426 318.088596 
L 381.116667 327.209917 
L 385.592909 335.443511 
L 390.069151 342.813469 
L 394.545392 349.356086 
L 399.021634 355.117223 
L 403.497875 360.149768 
L 407.974117 364.511275 
L 412.450358 368.261841 
L 416.9266 371.462253 
L 421.402842 374.172431 
L 425.879083 376.450166 
L 430.355325 378.35015 
L 434.831566 379.923275 
L 439.307808 381.21618 
L 443.78405 382.271005 
L 448.260291 383.125333 
L 452.736533 383.812271 
L 457.212774 384.360643 
L 461.689016 384.795266 
L 466.165258 385.13728 
L 470.641499 385.404508 
L 475.117741 385.611828 
L 479.593982 385.771537 
L 484.070224 385.893706 
L 488.546466 385.986504 
L 493.022707 386.056502 
L 497.498949 386.108933 
L 501.97519 386.147934 
" style="fill:none;stroke:#ff6384;stroke-linecap:square;"/>
   </g>
   <g id="line2d_2">
    <path clip-path="url(#p812f181362)" d="M 106.109435 386.139371 
L 110.243408 386.097141 
L 114.37738 386.040368 
L 118.511353 385.964575 
L 122.645326 385.864094 
L 126.779298 385.73181 
L 130.913271 385.558878 
L 135.047244 385.334393 
L 139.181216 385.04504 
L 143.315189 384.674709 
L 147.449161 384.204102 
L 151.583134 383.610328 
L 155.717107 382.866516 
L 159.851079 381.941454 
L 163.985052 380.799296 
L 168.119025 379.399346 
L 172.252997 377.695976 
L 176.38697 375.638684 
L 180.520943 373.172366 
L 184.654915 370.2378 
L 188.788888 366.772413 
L 192.922861 362.711322 
L 197.056833 357.988708 
L 201.190806 352.539497 
L 205.324779 346.301371 
L 209.458751 339.217063 
L 213.592724 331.236916 
L 217.726697 322.321628 
L 221.860669 312.445114 
L 225.994642 301.597371 
L 230.128614 289.787238 
L 234.262587 277.04491 
L 238.39656 263.424078 
L 242.530532 249.003534 
L 246.664505 233.888124 
L 250.798478 218.208919 
L 254.93245 202.122504 
L 259.066423 185.809323 
L 263.200396 169.471045 
L 267.334368 153.326975 
L 271.468341 137.609553 
L 275.602314 122.559072 
L 279.736286 108.417748 
L 283.870259 95.423357 
L 288.004232 83.802649 
L 292.138204 73.764805 
L 296.272177 65.495194 
L 300.40615 59.149682 
L 304.540122 54.849752 
L 308.674095 52.678636 
L 312.808067 52.678636 
L 316.94204 54.849752 
L 321.076013 59.149682 
L 325.209985 65.495194 
L 329.343958 73.764805 
L 333.477931 83.802649 
L 337.611903 95.423357 
L 341.745876 108.417748 
L 345.879849 122.559072 
L 350.013821 137.609553 
L 354.147794 153.326975 
L 358.281767 169.471045 
L 362.415739 185.809323 
L 366.549712 202.122504 
L 370.683685 218.208919 
L 374.817657 233.888124 
L 378.95163 249.003534 
L 383.085602 263.424078 
L 387.219575 277.04491 
L 391.353548 289.787238 
L 395.48752 301.597371 
L 399.621493 312.445114 
L 403.755466 322.321628 
L 407.889438 331.236916 
L 412.023411 339.217063 
L 416.157384 346.301371 
L 420.291356 352.539497 
L 424.425329 357.988708 
L 428.559302 362.711322 
L 432.693274 366.772413 
L 436.827247 370.2378 
L 440.96122 373.172366 
L 445.095192 375.638684 
L 449.229165 377.695976 
L 453.363138 379.399346 
L 457.49711 380.799296 
L 461.631083 381.941454 
L 465.765055 382.866516 
L 469.899028 383.610328 
L 474.033001 384.204102 
L 478.166973 384.674709 
L 482.300946 385.04504 
L 486.434919 385.334393 
L 490.568891 385.558878 
L 494.702864 385.73181 
L 498.836837 385.864094 
L 502.970809 385.964575 
L 507.104782 386.040368 
L 511.238755 386.097141 
L 515.372727 386.139371 
" style="fill:none;stroke:#36a2eb;stroke-linecap:square;"/>
   </g>
   <g id="patch_3">
    <path d="M 36 402.93 
L 538.2 402.93 
" style="fill:none;stroke:#000000;stroke-linecap:square;stroke-linejoin:miter;stroke-width:0.8;"/>
   </g>
   <g id="legend_1">
    <g id="patch_4">
     <path d="M 414.919063 88.29875 
L 528.4 88.29875 
Q 531.2 88.29875 531.2 85.49875 
L 531.2 45.8 
Q 531.2 43 528.4 43 
L 414.919063 43 
Q 412.119063 43 412.119063 45.8 
L 412.119063 85.49875 
Q 412.119063 88.29875 414.919063 88.29875 
z
" style="fill:#ffffff;opacity:0.8;stroke:#cccccc;stroke-linejoin:miter;"/>
    </g>
    <g id="patch_5">
     <path d="M 417.719063 59.237813 
L 445.719063 59.237813 
L 445.719063 49.437813 
L 417.719063 49.437813 
z
" style="fill:#ff6384;opacity:0.5;stroke:#ff6384;stroke-linejoin:miter;"/>
    </g>
    <g id="text_1">
     <!-- sidemenu -->
     <defs>
      <path d="M 44.28125 53.078125 
L 44.28125 44.578125 
Q 40.484375 46.53125 36.375 47.5 
Q 32.28125 48.484375 27.875 48.484375 
Q 21.1875 48.484375 17.84375 46.4375 
Q 14.5 44.390625 14.5 40.28125 
Q 14.5 37.15625 16.890625 35.375 
Q 19.28125 33.59375 26.515625 31.984375 
L 29.59375 31.296875 
Q 39.15625 29.25 43.1875 25.515625 
Q 47.21875 21.78125 47.21875 15.09375 
Q 47.21875 7.46875 41.1875 3.015625 
Q 35.15625 -1.421875 24.609375 -1.421875 
Q 20.21875 -1.421875 15.453125 -0.5625 
Q 10.6875 0.296875 5.421875 2 
L 5.421875 11.28125 
Q 10.40625 8.6875 15.234375 7.390625 
Q 20.0625 6.109375 24.8125 6.109375 
Q 31.15625 6.109375 34.5625 8.28125 
Q 37.984375 10.453125 37.984375 14.40625 
Q 37.984375 18.0625 35.515625 20.015625 
Q 33.0625 21.96875 24.703125 23.78125 
L 21.578125 24.515625 
Q 13.234375 26.265625 9.515625 29.90625 
Q 5.8125 33.546875 5.8125 39.890625 
Q 5.8125 47.609375 11.28125 51.796875 
Q 16.75 56 26.8125 56 
Q 31.78125 56 36.171875 55.265625 
Q 40.578125 54.546875 44.28125 53.078125 
z
" id="DejaVuSans-115"/>
      <path d="M 9.421875 54.6875 
L 18.40625 54.6875 
L 18.40625 0 
L 9.421875 0 
z
M 9.421875 75.984375 
L 18.40625 75.984375 
L 18.40625 64.59375 
L 9.421875 64.59375 
z
" id="DejaVuSans-105"/>
      <path d="M 45.40625 46.390625 
L 45.40625 75.984375 
L 54.390625 75.984375 
L 54.390625 0 
L 45.40625 0 
L 45.40625 8.203125 
Q 42.578125 3.328125 38.25 0.953125 
Q 33.9375 -1.421875 27.875 -1.421875 
Q 17.96875 -1.421875 11.734375 6.484375 
Q 5.515625 14.40625 5.515625 27.296875 
Q 5.515625 40.1875 11.734375 48.09375 
Q 17.96875 56 27.875 56 
Q 33.9375 56 38.25 53.625 
Q 42.578125 51.265625 45.40625 46.390625 
z
M 14.796875 27.296875 
Q 14.796875 17.390625 18.875 11.75 
Q 22.953125 6.109375 30.078125 6.109375 
Q 37.203125 6.109375 41.296875 11.75 
Q 45.40625 17.390625 45.40625 27.296875 
Q 45.40625 37.203125 41.296875 42.84375 
Q 37.203125 48.484375 30.078125 48.484375 
Q 22.953125 48.484375 18.875 42.84375 
Q 14.796875 37.203125 14.796875 27.296875 
z
" id="DejaVuSans-100"/>
      <path d="M 56.203125 29.59375 
L 56.203125 25.203125 
L 14.890625 25.203125 
Q 15.484375 15.921875 20.484375 11.0625 
Q 25.484375 6.203125 34.421875 6.203125 
Q 39.59375 6.203125 44.453125 7.46875 
Q 49.3125 8.734375 54.109375 11.28125 
L 54.109375 2.78125 
Q 49.265625 0.734375 44.1875 -0.34375 
Q 39.109375 -1.421875 33.890625 -1.421875 
Q 20.796875 -1.421875 13.15625 6.1875 
Q 5.515625 13.8125 5.515625 26.8125 
Q 5.515625 40.234375 12.765625 48.109375 
Q 20.015625 56 32.328125 56 
Q 43.359375 56 49.78125 48.890625 
Q 56.203125 41.796875 56.203125 29.59375 
z
M 47.21875 32.234375 
Q 47.125 39.59375 43.09375 43.984375 
Q 39.0625 48.390625 32.421875 48.390625 
Q 24.90625 48.390625 20.390625 44.140625 
Q 15.875 39.890625 15.1875 32.171875 
z
" id="DejaVuSans-101"/>
      <path d="M 52 44.1875 
Q 55.375 50.25 60.0625 53.125 
Q 64.75 56 71.09375 56 
Q 79.640625 56 84.28125 50.015625 
Q 88.921875 44.046875 88.921875 33.015625 
L 88.921875 0 
L 79.890625 0 
L 79.890625 32.71875 
Q 79.890625 40.578125 77.09375 44.375 
Q 74.3125 48.1875 68.609375 48.1875 
Q 61.625 48.1875 57.5625 43.546875 
Q 53.515625 38.921875 53.515625 30.90625 
L 53.515625 0 
L 44.484375 0 
L 44.484375 32.71875 
Q 44.484375 40.625 41.703125 44.40625 
Q 38.921875 48.1875 33.109375 48.1875 
Q 26.21875 48.1875 22.15625 43.53125 
Q 18.109375 38.875 18.109375 30.90625 
L 18.109375 0 
L 9.078125 0 
L 9.078125 54.6875 
L 18.109375 54.6875 
L 18.109375 46.1875 
Q 21.1875 51.21875 25.484375 53.609375 
Q 29.78125 56 35.6875 56 
Q 41.65625 56 45.828125 52.96875 
Q 50 49.953125 52 44.1875 
z
" id="DejaVuSans-109"/>
      <path d="M 54.890625 33.015625 
L 54.890625 0 
L 45.90625 0 
L 45.90625 32.71875 
Q 45.90625 40.484375 42.875 44.328125 
Q 39.84375 48.1875 33.796875 48.1875 
Q 26.515625 48.1875 22.3125 43.546875 
Q 18.109375 38.921875 18.109375 30.90625 
L 18.109375 0 
L 9.078125 0 
L 9.078125 54.6875 
L 18.109375 54.6875 
L 18.109375 46.1875 
Q 21.34375 51.125 25.703125 53.5625 
Q 30.078125 56 35.796875 56 
Q 45.21875 56 50.046875 50.171875 
Q 54.890625 44.34375 54.890625 33.015625 
z
" id="DejaVuSans-110"/>
      <path d="M 8.5 21.578125 
L 8.5 54.6875 
L 17.484375 54.6875 
L 17.484375 21.921875 
Q 17.484375 14.15625 20.5 10.265625 
Q 23.53125 6.390625 29.59375 6.390625 
Q 36.859375 6.390625 41.078125 11.03125 
Q 45.3125 15.671875 45.3125 23.6875 
L 45.3125 54.6875 
L 54.296875 54.6875 
L 54.296875 0 
L 45.3125 0 
L 45.3125 8.40625 
Q 42.046875 3.421875 37.71875 1 
Q 33.40625 -1.421875 27.6875 -1.421875 
Q 18.265625 -1.421875 13.375 4.4375 
Q 8.5 10.296875 8.5 21.578125 
z
M 31.109375 56 
z
" id="DejaVuSans-117"/>
     </defs>
     <g transform="translate(456.919063 59.237813)scale(0.14 -0.14)">
      <use xlink:href="#DejaVuSans-115"/>
      <use x="52.099609" xlink:href="#DejaVuSans-105"/>
      <use x="79.882812" xlink:href="#DejaVuSans-100"/>
      <use x="143.359375" xlink:href="#DejaVuSans-101"/>
      <use x="204.882812" xlink:href="#DejaVuSans-109"/>
      <use x="302.294922" xlink:href="#DejaVuSans-101"/>
      <use x="363.818359" xlink:href="#DejaVuSans-110"/>
      <use x="427.197266" xlink:href="#DejaVuSans-117"/>
     </g>
    </g>
    <g id="patch_6">
     <path d="M 417.719063 79.787188 
L 445.719063 79.787188 
L 445.719063 69.987188 
L 417.719063 69.987188 
z
" style="fill:#36a2eb;opacity:0.5;stroke:#36a2eb;stroke-linejoin:miter;"/>
    </g>
    <g id="text_2">
     <!-- tabbar -->
     <defs>
      <path d="M 18.3125 70.21875 
L 18.3125 54.6875 
L 36.8125 54.6875 
L 36.8125 47.703125 
L 18.3125 47.703125 
L 18.3125 18.015625 
Q 18.3125 11.328125 20.140625 9.421875 
Q 21.96875 7.515625 27.59375 7.515625 
L 36.8125 7.515625 
L 36.8125 0 
L 27.59375 0 
Q 17.1875 0 13.234375 3.875 
Q 9.28125 7.765625 9.28125 18.015625 
L 9.28125 47.703125 
L 2.6875 47.703125 
L 2.6875 54.6875 
L 9.28125 54.6875 
L 9.28125 70.21875 
z
" id="DejaVuSans-116"/>
      <path d="M 34.28125 27.484375 
Q 23.390625 27.484375 19.1875 25 
Q 14.984375 22.515625 14.984375 16.5 
Q 14.984375 11.71875 18.140625 8.90625 
Q 21.296875 6.109375 26.703125 6.109375 
Q 34.1875 6.109375 38.703125 11.40625 
Q 43.21875 16.703125 43.21875 25.484375 
L 43.21875 27.484375 
z
M 52.203125 31.203125 
L 52.203125 0 
L 43.21875 0 
L 43.21875 8.296875 
Q 40.140625 3.328125 35.546875 0.953125 
Q 30.953125 -1.421875 24.3125 -1.421875 
Q 15.921875 -1.421875 10.953125 3.296875 
Q 6 8.015625 6 15.921875 
Q 6 25.140625 12.171875 29.828125 
Q 18.359375 34.515625 30.609375 34.515625 
L 43.21875 34.515625 
L 43.21875 35.40625 
Q 43.21875 41.609375 39.140625 45 
Q 35.0625 48.390625 27.6875 48.390625 
Q 23 48.390625 18.546875 47.265625 
Q 14.109375 46.140625 10.015625 43.890625 
L 10.015625 52.203125 
Q 14.9375 54.109375 19.578125 55.046875 
Q 24.21875 56 28.609375 56 
Q 40.484375 56 46.34375 49.84375 
Q 52.203125 43.703125 52.203125 31.203125 
z
" id="DejaVuSans-97"/>
      <path d="M 48.6875 27.296875 
Q 48.6875 37.203125 44.609375 42.84375 
Q 40.53125 48.484375 33.40625 48.484375 
Q 26.265625 48.484375 22.1875 42.84375 
Q 18.109375 37.203125 18.109375 27.296875 
Q 18.109375 17.390625 22.1875 11.75 
Q 26.265625 6.109375 33.40625 6.109375 
Q 40.53125 6.109375 44.609375 11.75 
Q 48.6875 17.390625 48.6875 27.296875 
z
M 18.109375 46.390625 
Q 20.953125 51.265625 25.265625 53.625 
Q 29.59375 56 35.59375 56 
Q 45.5625 56 51.78125 48.09375 
Q 58.015625 40.1875 58.015625 27.296875 
Q 58.015625 14.40625 51.78125 6.484375 
Q 45.5625 -1.421875 35.59375 -1.421875 
Q 29.59375 -1.421875 25.265625 0.953125 
Q 20.953125 3.328125 18.109375 8.203125 
L 18.109375 0 
L 9.078125 0 
L 9.078125 75.984375 
L 18.109375 75.984375 
z
" id="DejaVuSans-98"/>
      <path d="M 41.109375 46.296875 
Q 39.59375 47.171875 37.8125 47.578125 
Q 36.03125 48 33.890625 48 
Q 26.265625 48 22.1875 43.046875 
Q 18.109375 38.09375 18.109375 28.8125 
L 18.109375 0 
L 9.078125 0 
L 9.078125 54.6875 
L 18.109375 54.6875 
L 18.109375 46.1875 
Q 20.953125 51.171875 25.484375 53.578125 
Q 30.03125 56 36.53125 56 
Q 37.453125 56 38.578125 55.875 
Q 39.703125 55.765625 41.0625 55.515625 
z
" id="DejaVuSans-114"/>
     </defs>
     <g transform="translate(456.919063 79.787188)scale(0.14 -0.14)">
      <use xlink:href="#DejaVuSans-116"/>
      <use x="39.208984" xlink:href="#DejaVuSans-97"/>
      <use x="100.488281" xlink:href="#DejaVuSans-98"/>
      <use x="163.964844" xlink:href="#DejaVuSans-98"/>
      <use x="227.441406" xlink:href="#DejaVuSans-97"/>
      <use x="288.720703" xlink:href="#DejaVuSans-114"/>
     </g>
    </g>
   </g>
  </g>
  <g id="axes_2">
   <g id="patch_7">
    <path d="M 36 525.24 
L 538.2 525.24 
L 538.2 402.93 
L 36 402.93 
z
" style="fill:none;"/>
   </g>
   <g id="patch_8">
    <path clip-path="url(#p678b773042)" d="M 171.829992 519.680455 
L 388.972471 519.680455 
L 388.972471 482.616818 
L 171.829992 482.616818 
z
" style="fill:#ff6384;opacity:0.5;"/>
   </g>
   <g id="patch_9">
    <path clip-path="url(#p678b773042)" d="M 210.471575 445.553182 
L 411.010588 445.553182 
L 411.010588 408.489545 
L 210.471575 408.489545 
z
" style="fill:#36a2eb;opacity:0.5;"/>
   </g>
   <g id="matplotlib.axis_1">
    <g id="xtick_1">
     <g id="line2d_3">
      <defs>
       <path d="M 0 0 
L 0 3.5 
" id="mfb787d2b88" style="stroke:#000000;stroke-width:0.8;"/>
      </defs>
      <g>
       <use style="stroke:#000000;stroke-width:0.8;" x="119.370608" xlink:href="#mfb787d2b88" y="525.24"/>
      </g>
     </g>
     <g id="text_3">
      <!-- 125 -->
      <defs>
       <path d="M 12.40625 8.296875 
L 28.515625 8.296875 
L 28.515625 63.921875 
L 10.984375 60.40625 
L 10.984375 69.390625 
L 28.421875 72.90625 
L 38.28125 72.90625 
L 38.28125 8.296875 
L 54.390625 8.296875 
L 54.390625 0 
L 12.40625 0 
z
" id="DejaVuSans-49"/>
       <path d="M 19.1875 8.296875 
L 53.609375 8.296875 
L 53.609375 0 
L 7.328125 0 
L 7.328125 8.296875 
Q 12.9375 14.109375 22.625 23.890625 
Q 32.328125 33.6875 34.8125 36.53125 
Q 39.546875 41.84375 41.421875 45.53125 
Q 43.3125 49.21875 43.3125 52.78125 
Q 43.3125 58.59375 39.234375 62.25 
Q 35.15625 65.921875 28.609375 65.921875 
Q 23.96875 65.921875 18.8125 64.3125 
Q 13.671875 62.703125 7.8125 59.421875 
L 7.8125 69.390625 
Q 13.765625 71.78125 18.9375 73 
Q 24.125 74.21875 28.421875 74.21875 
Q 39.75 74.21875 46.484375 68.546875 
Q 53.21875 62.890625 53.21875 53.421875 
Q 53.21875 48.921875 51.53125 44.890625 
Q 49.859375 40.875 45.40625 35.40625 
Q 44.1875 33.984375 37.640625 27.21875 
Q 31.109375 20.453125 19.1875 8.296875 
z
" id="DejaVuSans-50"/>
       <path d="M 10.796875 72.90625 
L 49.515625 72.90625 
L 49.515625 64.59375 
L 19.828125 64.59375 
L 19.828125 46.734375 
Q 21.96875 47.46875 24.109375 47.828125 
Q 26.265625 48.1875 28.421875 48.1875 
Q 40.625 48.1875 47.75 41.5 
Q 54.890625 34.8125 54.890625 23.390625 
Q 54.890625 11.625 47.5625 5.09375 
Q 40.234375 -1.421875 26.90625 -1.421875 
Q 22.3125 -1.421875 17.546875 -0.640625 
Q 12.796875 0.140625 7.71875 1.703125 
L 7.71875 11.625 
Q 12.109375 9.234375 16.796875 8.0625 
Q 21.484375 6.890625 26.703125 6.890625 
Q 35.15625 6.890625 40.078125 11.328125 
Q 45.015625 15.765625 45.015625 23.390625 
Q 45.015625 31 40.078125 35.4375 
Q 35.15625 39.890625 26.703125 39.890625 
Q 22.75 39.890625 18.8125 39.015625 
Q 14.890625 38.140625 10.796875 36.28125 
z
" id="DejaVuSans-53"/>
      </defs>
      <g transform="translate(106.009358 542.877813)scale(0.14 -0.14)">
       <use xlink:href="#DejaVuSans-49"/>
       <use x="63.623047" xlink:href="#DejaVuSans-50"/>
       <use x="127.246094" xlink:href="#DejaVuSans-53"/>
      </g>
     </g>
    </g>
    <g id="xtick_2">
     <g id="line2d_4">
      <g>
       <use style="stroke:#000000;stroke-width:0.8;" x="218.4298" xlink:href="#mfb787d2b88" y="525.24"/>
      </g>
     </g>
     <g id="text_4">
      <!-- 130 -->
      <defs>
       <path d="M 40.578125 39.3125 
Q 47.65625 37.796875 51.625 33 
Q 55.609375 28.21875 55.609375 21.1875 
Q 55.609375 10.40625 48.1875 4.484375 
Q 40.765625 -1.421875 27.09375 -1.421875 
Q 22.515625 -1.421875 17.65625 -0.515625 
Q 12.796875 0.390625 7.625 2.203125 
L 7.625 11.71875 
Q 11.71875 9.328125 16.59375 8.109375 
Q 21.484375 6.890625 26.8125 6.890625 
Q 36.078125 6.890625 40.9375 10.546875 
Q 45.796875 14.203125 45.796875 21.1875 
Q 45.796875 27.640625 41.28125 31.265625 
Q 36.765625 34.90625 28.71875 34.90625 
L 20.21875 34.90625 
L 20.21875 43.015625 
L 29.109375 43.015625 
Q 36.375 43.015625 40.234375 45.921875 
Q 44.09375 48.828125 44.09375 54.296875 
Q 44.09375 59.90625 40.109375 62.90625 
Q 36.140625 65.921875 28.71875 65.921875 
Q 24.65625 65.921875 20.015625 65.03125 
Q 15.375 64.15625 9.8125 62.3125 
L 9.8125 71.09375 
Q 15.4375 72.65625 20.34375 73.4375 
Q 25.25 74.21875 29.59375 74.21875 
Q 40.828125 74.21875 47.359375 69.109375 
Q 53.90625 64.015625 53.90625 55.328125 
Q 53.90625 49.265625 50.4375 45.09375 
Q 46.96875 40.921875 40.578125 39.3125 
z
" id="DejaVuSans-51"/>
       <path d="M 31.78125 66.40625 
Q 24.171875 66.40625 20.328125 58.90625 
Q 16.5 51.421875 16.5 36.375 
Q 16.5 21.390625 20.328125 13.890625 
Q 24.171875 6.390625 31.78125 6.390625 
Q 39.453125 6.390625 43.28125 13.890625 
Q 47.125 21.390625 47.125 36.375 
Q 47.125 51.421875 43.28125 58.90625 
Q 39.453125 66.40625 31.78125 66.40625 
z
M 31.78125 74.21875 
Q 44.046875 74.21875 50.515625 64.515625 
Q 56.984375 54.828125 56.984375 36.375 
Q 56.984375 17.96875 50.515625 8.265625 
Q 44.046875 -1.421875 31.78125 -1.421875 
Q 19.53125 -1.421875 13.0625 8.265625 
Q 6.59375 17.96875 6.59375 36.375 
Q 6.59375 54.828125 13.0625 64.515625 
Q 19.53125 74.21875 31.78125 74.21875 
z
" id="DejaVuSans-48"/>
      </defs>
      <g transform="translate(205.06855 542.877813)scale(0.14 -0.14)">
       <use xlink:href="#DejaVuSans-49"/>
       <use x="63.623047" xlink:href="#DejaVuSans-51"/>
       <use x="127.246094" xlink:href="#DejaVuSans-48"/>
      </g>
     </g>
    </g>
    <g id="xtick_3">
     <g id="line2d_5">
      <g>
       <use style="stroke:#000000;stroke-width:0.8;" x="317.488993" xlink:href="#mfb787d2b88" y="525.24"/>
      </g>
     </g>
     <g id="text_5">
      <!-- 135 -->
      <g transform="translate(304.127743 542.877813)scale(0.14 -0.14)">
       <use xlink:href="#DejaVuSans-49"/>
       <use x="63.623047" xlink:href="#DejaVuSans-51"/>
       <use x="127.246094" xlink:href="#DejaVuSans-53"/>
      </g>
     </g>
    </g>
    <g id="xtick_4">
     <g id="line2d_6">
      <g>
       <use style="stroke:#000000;stroke-width:0.8;" x="416.548186" xlink:href="#mfb787d2b88" y="525.24"/>
      </g>
     </g>
     <g id="text_6">
      <!-- 140 -->
      <defs>
       <path d="M 37.796875 64.3125 
L 12.890625 25.390625 
L 37.796875 25.390625 
z
M 35.203125 72.90625 
L 47.609375 72.90625 
L 47.609375 25.390625 
L 58.015625 25.390625 
L 58.015625 17.1875 
L 47.609375 17.1875 
L 47.609375 0 
L 37.796875 0 
L 37.796875 17.1875 
L 4.890625 17.1875 
L 4.890625 26.703125 
z
" id="DejaVuSans-52"/>
      </defs>
      <g transform="translate(403.186936 542.877813)scale(0.14 -0.14)">
       <use xlink:href="#DejaVuSans-49"/>
       <use x="63.623047" xlink:href="#DejaVuSans-52"/>
       <use x="127.246094" xlink:href="#DejaVuSans-48"/>
      </g>
     </g>
    </g>
    <g id="xtick_5">
     <g id="line2d_7">
      <g>
       <use style="stroke:#000000;stroke-width:0.8;" x="515.607379" xlink:href="#mfb787d2b88" y="525.24"/>
      </g>
     </g>
     <g id="text_7">
      <!-- 145 -->
      <g transform="translate(502.246129 542.877813)scale(0.14 -0.14)">
       <use xlink:href="#DejaVuSans-49"/>
       <use x="63.623047" xlink:href="#DejaVuSans-52"/>
       <use x="127.246094" xlink:href="#DejaVuSans-53"/>
      </g>
     </g>
    </g>
   </g>
   <g id="line2d_8">
    <path clip-path="url(#p678b773042)" d="M 280.401232 525.24 
L 280.401232 402.93 
" style="fill:none;stroke:#ff6384;stroke-dasharray:5.55,2.4;stroke-dashoffset:0;stroke-opacity:0.8;stroke-width:1.5;"/>
   </g>
   <g id="line2d_9">
    <path clip-path="url(#p678b773042)" d="M 310.741081 525.24 
L 310.741081 402.93 
" style="fill:none;stroke:#36a2eb;stroke-dasharray:5.55,2.4;stroke-dashoffset:0;stroke-opacity:0.8;stroke-width:1.5;"/>
   </g>
   <g id="patch_10">
    <path d="M 36 525.24 
L 538.2 525.24 
" style="fill:none;stroke:#000000;stroke-linecap:square;stroke-linejoin:miter;stroke-width:0.8;"/>
   </g>
  </g>
 </g>
 <defs>
  <clipPath id="p812f181362">
   <rect height="366.93" width="502.2" x="36" y="36"/>
  </clipPath>
  <clipPath id="p678b773042">
   <rect height="122.31" width="502.2" x="36" y="402.93"/>
  </clipPath>
 </defs>
</svg>
