<?xml version="1.0" encoding="utf-8" standalone="no"?>
<!DOCTYPE svg PUBLIC "-//W3C//DTD SVG 1.1//EN"
  "http://www.w3.org/Graphics/SVG/1.1/DTD/svg11.dtd">
<!-- Created with matplotlib (https://matplotlib.org/) -->
<svg height="581.789375pt" version="1.1" viewBox="0 0 582.326004 581.789375" width="582.326004pt" xmlns="http://www.w3.org/2000/svg" xmlns:xlink="http://www.w3.org/1999/xlink">
 <defs>
  <style type="text/css">
*{stroke-linecap:butt;stroke-linejoin:round;}
  </style>
 </defs>
 <g id="figure_1">
  <g id="patch_1">
   <path d="M 0 581.789375 
L 582.326004 581.789375 
L 582.326004 0 
L 0 0 
z
" style="fill:none;"/>
  </g>
  <g id="axes_1">
   <g id="patch_2">
    <path d="M 36 402.93 
L 538.2 402.93 
L 538.2 36 
L 36 36 
z
" style="fill:none;"/>
   </g>
   <g id="PolyCollection_1">
    <defs>
     <path d="M 58.827273 -195.538011 
L 58.827273 -195.650004 
L 62.847603 -195.692234 
L 66.867933 -195.749007 
L 70.888264 -195.8248 
L 74.908594 -195.925281 
L 78.928924 -196.057565 
L 82.949254 -196.230497 
L 86.969585 -196.454982 
L 90.989915 -196.744335 
L 95.010245 -197.114666 
L 99.030576 -197.585273 
L 103.050906 -198.179047 
L 107.071236 -198.922859 
L 111.091566 -199.847921 
L 115.111897 -200.990079 
L 119.132227 -202.390029 
L 123.152557 -204.093399 
L 127.172887 -206.150691 
L 131.193218 -208.617009 
L 135.213548 -211.551575 
L 139.233878 -215.016962 
L 143.254209 -219.078053 
L 147.274539 -223.800667 
L 151.294869 -229.249878 
L 155.315199 -235.488004 
L 159.33553 -242.572312 
L 163.35586 -250.552459 
L 167.37619 -259.467747 
L 171.396521 -269.344261 
L 175.416851 -280.192004 
L 179.437181 -292.002137 
L 183.457511 -304.744465 
L 187.477842 -318.365297 
L 191.498172 -332.785841 
L 195.518502 -347.901251 
L 199.538832 -363.580456 
L 203.559163 -379.666871 
L 207.579493 -395.980052 
L 211.599823 -412.31833 
L 215.620154 -428.4624 
L 219.640484 -444.179822 
L 223.660814 -459.230303 
L 227.681144 -473.371627 
L 231.701475 -486.366018 
L 235.721805 -497.986726 
L 239.742135 -508.02457 
L 243.762466 -516.294181 
L 247.782796 -522.639693 
L 251.803126 -526.939623 
L 255.823456 -529.110739 
L 259.843787 -529.110739 
L 263.864117 -526.939623 
L 267.884447 -522.639693 
L 271.904777 -516.294181 
L 275.925108 -508.02457 
L 279.945438 -497.986726 
L 283.965768 -486.366018 
L 287.986099 -473.371627 
L 292.006429 -459.230303 
L 296.026759 -444.179822 
L 300.047089 -428.4624 
L 304.06742 -412.31833 
L 308.08775 -395.980052 
L 312.10808 -379.666871 
L 316.128411 -363.580456 
L 320.148741 -347.901251 
L 324.169071 -332.785841 
L 328.189401 -318.365297 
L 332.209732 -304.744465 
L 336.230062 -292.002137 
L 340.250392 -280.192004 
L 344.270722 -269.344261 
L 348.291053 -259.467747 
L 352.311383 -250.552459 
L 356.331713 -242.572312 
L 360.352044 -235.488004 
L 364.372374 -229.249878 
L 368.392704 -223.800667 
L 372.413034 -219.078053 
L 376.433365 -215.016962 
L 380.453695 -211.551575 
L 384.474025 -208.617009 
L 388.494356 -206.150691 
L 392.514686 -204.093399 
L 396.535016 -202.390029 
L 400.555346 -200.990079 
L 404.575677 -199.847921 
L 408.596007 -198.922859 
L 412.616337 -198.179047 
L 416.636667 -197.585273 
L 420.656998 -197.114666 
L 424.677328 -196.744335 
L 428.697658 -196.454982 
L 432.717989 -196.230497 
L 436.738319 -196.057565 
L 440.758649 -195.925281 
L 444.778979 -195.8248 
L 448.79931 -195.749007 
L 452.81964 -195.692234 
L 456.83997 -195.650004 
L 456.83997 -195.538011 
L 456.83997 -195.538011 
L 452.81964 -195.538011 
L 448.79931 -195.538011 
L 444.778979 -195.538011 
L 440.758649 -195.538011 
L 436.738319 -195.538011 
L 432.717989 -195.538011 
L 428.697658 -195.538011 
L 424.677328 -195.538011 
L 420.656998 -195.538011 
L 416.636667 -195.538011 
L 412.616337 -195.538011 
L 408.596007 -195.538011 
L 404.575677 -195.538011 
L 400.555346 -195.538011 
L 396.535016 -195.538011 
L 392.514686 -195.538011 
L 388.494356 -195.538011 
L 384.474025 -195.538011 
L 380.453695 -195.538011 
L 376.433365 -195.538011 
L 372.413034 -195.538011 
L 368.392704 -195.538011 
L 364.372374 -195.538011 
L 360.352044 -195.538011 
L 356.331713 -195.538011 
L 352.311383 -195.538011 
L 348.291053 -195.538011 
L 344.270722 -195.538011 
L 340.250392 -195.538011 
L 336.230062 -195.538011 
L 332.209732 -195.538011 
L 328.189401 -195.538011 
L 324.169071 -195.538011 
L 320.148741 -195.538011 
L 316.128411 -195.538011 
L 312.10808 -195.538011 
L 308.08775 -195.538011 
L 304.06742 -195.538011 
L 300.047089 -195.538011 
L 296.026759 -195.538011 
L 292.006429 -195.538011 
L 287.986099 -195.538011 
L 283.965768 -195.538011 
L 279.945438 -195.538011 
L 275.925108 -195.538011 
L 271.904777 -195.538011 
L 267.884447 -195.538011 
L 263.864117 -195.538011 
L 259.843787 -195.538011 
L 255.823456 -195.538011 
L 251.803126 -195.538011 
L 247.782796 -195.538011 
L 243.762466 -195.538011 
L 239.742135 -195.538011 
L 235.721805 -195.538011 
L 231.701475 -195.538011 
L 227.681144 -195.538011 
L 223.660814 -195.538011 
L 219.640484 -195.538011 
L 215.620154 -195.538011 
L 211.599823 -195.538011 
L 207.579493 -195.538011 
L 203.559163 -195.538011 
L 199.538832 -195.538011 
L 195.518502 -195.538011 
L 191.498172 -195.538011 
L 187.477842 -195.538011 
L 183.457511 -195.538011 
L 179.437181 -195.538011 
L 175.416851 -195.538011 
L 171.396521 -195.538011 
L 167.37619 -195.538011 
L 163.35586 -195.538011 
L 159.33553 -195.538011 
L 155.315199 -195.538011 
L 151.294869 -195.538011 
L 147.274539 -195.538011 
L 143.254209 -195.538011 
L 139.233878 -195.538011 
L 135.213548 -195.538011 
L 131.193218 -195.538011 
L 127.172887 -195.538011 
L 123.152557 -195.538011 
L 119.132227 -195.538011 
L 115.111897 -195.538011 
L 111.091566 -195.538011 
L 107.071236 -195.538011 
L 103.050906 -195.538011 
L 99.030576 -195.538011 
L 95.010245 -195.538011 
L 90.989915 -195.538011 
L 86.969585 -195.538011 
L 82.949254 -195.538011 
L 78.928924 -195.538011 
L 74.908594 -195.538011 
L 70.888264 -195.538011 
L 66.867933 -195.538011 
L 62.847603 -195.538011 
L 58.827273 -195.538011 
z
" id="m02226de5ea" style="stroke:#ff6384;stroke-opacity:0.5;"/>
    </defs>
    <g clip-path="url(#p140b2e3a0e)">
     <use style="fill:#ff6384;fill-opacity:0.5;stroke:#ff6384;stroke-opacity:0.5;" x="0" xlink:href="#m02226de5ea" y="581.789375"/>
    </g>
   </g>
   <g id="PolyCollection_2">
    <defs>
     <path d="M 113.433923 -195.538011 
L 113.433923 -195.64891 
L 117.493911 -195.690728 
L 121.553899 -195.746946 
L 125.613887 -195.821998 
L 129.673875 -195.921499 
L 133.733863 -196.05249 
L 137.793851 -196.223733 
L 141.853839 -196.446025 
L 145.913827 -196.732552 
L 149.973815 -197.099265 
L 154.033803 -197.565275 
L 158.093791 -198.153249 
L 162.153778 -198.889796 
L 166.213766 -199.805822 
L 170.273754 -200.936824 
L 174.333742 -202.323099 
L 178.39373 -204.009831 
L 182.453718 -206.047027 
L 186.513706 -208.489255 
L 190.573694 -211.395155 
L 194.633682 -214.826693 
L 198.69367 -218.848116 
L 202.753658 -223.5246 
L 206.813646 -228.920583 
L 210.873633 -235.097776 
L 214.933621 -242.112885 
L 218.993609 -250.015082 
L 223.053597 -258.843286 
L 227.113585 -268.623327 
L 231.173573 -279.36511 
L 235.233561 -291.059884 
L 239.293549 -303.677745 
L 243.353537 -317.16553 
L 247.413525 -331.445215 
L 251.473513 -346.412979 
L 255.533501 -361.93903 
L 259.593488 -377.868315 
L 263.653476 -394.02215 
L 267.713464 -410.200837 
L 271.773452 -426.187213 
L 275.83344 -441.751108 
L 279.893428 -456.654578 
L 283.953416 -470.65777 
L 288.013404 -483.525233 
L 292.073392 -495.032431 
L 296.13338 -504.972226 
L 300.193368 -513.16106 
L 304.253356 -519.44459 
L 308.313344 -523.702519 
L 312.373331 -525.852427 
L 316.433319 -525.852427 
L 320.493307 -523.702519 
L 324.553295 -519.44459 
L 328.613283 -513.16106 
L 332.673271 -504.972226 
L 336.733259 -495.032431 
L 340.793247 -483.525233 
L 344.853235 -470.65777 
L 348.913223 -456.654578 
L 352.973211 -441.751108 
L 357.033199 -426.187213 
L 361.093186 -410.200837 
L 365.153174 -394.02215 
L 369.213162 -377.868315 
L 373.27315 -361.93903 
L 377.333138 -346.412979 
L 381.393126 -331.445215 
L 385.453114 -317.16553 
L 389.513102 -303.677745 
L 393.57309 -291.059884 
L 397.633078 -279.36511 
L 401.693066 -268.623327 
L 405.753054 -258.843286 
L 409.813041 -250.015082 
L 413.873029 -242.112885 
L 417.933017 -235.097776 
L 421.993005 -228.920583 
L 426.052993 -223.5246 
L 430.112981 -218.848116 
L 434.172969 -214.826693 
L 438.232957 -211.395155 
L 442.292945 -208.489255 
L 446.352933 -206.047027 
L 450.412921 -204.009831 
L 454.472909 -202.323099 
L 458.532896 -200.936824 
L 462.592884 -199.805822 
L 466.652872 -198.889796 
L 470.71286 -198.153249 
L 474.772848 -197.565275 
L 478.832836 -197.099265 
L 482.892824 -196.732552 
L 486.952812 -196.446025 
L 491.0128 -196.223733 
L 495.072788 -196.05249 
L 499.132776 -195.921499 
L 503.192764 -195.821998 
L 507.252751 -195.746946 
L 511.312739 -195.690728 
L 515.372727 -195.64891 
L 515.372727 -195.538011 
L 515.372727 -195.538011 
L 511.312739 -195.538011 
L 507.252751 -195.538011 
L 503.192764 -195.538011 
L 499.132776 -195.538011 
L 495.072788 -195.538011 
L 491.0128 -195.538011 
L 486.952812 -195.538011 
L 482.892824 -195.538011 
L 478.832836 -195.538011 
L 474.772848 -195.538011 
L 470.71286 -195.538011 
L 466.652872 -195.538011 
L 462.592884 -195.538011 
L 458.532896 -195.538011 
L 454.472909 -195.538011 
L 450.412921 -195.538011 
L 446.352933 -195.538011 
L 442.292945 -195.538011 
L 438.232957 -195.538011 
L 434.172969 -195.538011 
L 430.112981 -195.538011 
L 426.052993 -195.538011 
L 421.993005 -195.538011 
L 417.933017 -195.538011 
L 413.873029 -195.538011 
L 409.813041 -195.538011 
L 405.753054 -195.538011 
L 401.693066 -195.538011 
L 397.633078 -195.538011 
L 393.57309 -195.538011 
L 389.513102 -195.538011 
L 385.453114 -195.538011 
L 381.393126 -195.538011 
L 377.333138 -195.538011 
L 373.27315 -195.538011 
L 369.213162 -195.538011 
L 365.153174 -195.538011 
L 361.093186 -195.538011 
L 357.033199 -195.538011 
L 352.973211 -195.538011 
L 348.913223 -195.538011 
L 344.853235 -195.538011 
L 340.793247 -195.538011 
L 336.733259 -195.538011 
L 332.673271 -195.538011 
L 328.613283 -195.538011 
L 324.553295 -195.538011 
L 320.493307 -195.538011 
L 316.433319 -195.538011 
L 312.373331 -195.538011 
L 308.313344 -195.538011 
L 304.253356 -195.538011 
L 300.193368 -195.538011 
L 296.13338 -195.538011 
L 292.073392 -195.538011 
L 288.013404 -195.538011 
L 283.953416 -195.538011 
L 279.893428 -195.538011 
L 275.83344 -195.538011 
L 271.773452 -195.538011 
L 267.713464 -195.538011 
L 263.653476 -195.538011 
L 259.593488 -195.538011 
L 255.533501 -195.538011 
L 251.473513 -195.538011 
L 247.413525 -195.538011 
L 243.353537 -195.538011 
L 239.293549 -195.538011 
L 235.233561 -195.538011 
L 231.173573 -195.538011 
L 227.113585 -195.538011 
L 223.053597 -195.538011 
L 218.993609 -195.538011 
L 214.933621 -195.538011 
L 210.873633 -195.538011 
L 206.813646 -195.538011 
L 202.753658 -195.538011 
L 198.69367 -195.538011 
L 194.633682 -195.538011 
L 190.573694 -195.538011 
L 186.513706 -195.538011 
L 182.453718 -195.538011 
L 178.39373 -195.538011 
L 174.333742 -195.538011 
L 170.273754 -195.538011 
L 166.213766 -195.538011 
L 162.153778 -195.538011 
L 158.093791 -195.538011 
L 154.033803 -195.538011 
L 149.973815 -195.538011 
L 145.913827 -195.538011 
L 141.853839 -195.538011 
L 137.793851 -195.538011 
L 133.733863 -195.538011 
L 129.673875 -195.538011 
L 125.613887 -195.538011 
L 121.553899 -195.538011 
L 117.493911 -195.538011 
L 113.433923 -195.538011 
z
" id="ma979893726" style="stroke:#36a2eb;stroke-opacity:0.5;"/>
    </defs>
    <g clip-path="url(#p140b2e3a0e)">
     <use style="fill:#36a2eb;fill-opacity:0.5;stroke:#36a2eb;stroke-opacity:0.5;" x="0" xlink:href="#ma979893726" y="581.789375"/>
    </g>
   </g>
   <g id="line2d_1">
    <path clip-path="url(#p140b2e3a0e)" d="M 58.827273 386.139371 
L 62.847603 386.097141 
L 66.867933 386.040368 
L 70.888264 385.964575 
L 74.908594 385.864094 
L 78.928924 385.73181 
L 82.949254 385.558878 
L 86.969585 385.334393 
L 90.989915 385.04504 
L 95.010245 384.674709 
L 99.030576 384.204102 
L 103.050906 383.610328 
L 107.071236 382.866516 
L 111.091566 381.941454 
L 115.111897 380.799296 
L 119.132227 379.399346 
L 123.152557 377.695976 
L 127.172887 375.638684 
L 131.193218 373.172366 
L 135.213548 370.2378 
L 139.233878 366.772413 
L 143.254209 362.711322 
L 147.274539 357.988708 
L 151.294869 352.539497 
L 155.315199 346.301371 
L 159.33553 339.217063 
L 163.35586 331.236916 
L 167.37619 322.321628 
L 171.396521 312.445114 
L 175.416851 301.597371 
L 179.437181 289.787238 
L 183.457511 277.04491 
L 187.477842 263.424078 
L 191.498172 249.003534 
L 195.518502 233.888124 
L 199.538832 218.208919 
L 203.559163 202.122504 
L 207.579493 185.809323 
L 211.599823 169.471045 
L 215.620154 153.326975 
L 219.640484 137.609553 
L 223.660814 122.559072 
L 227.681144 108.417748 
L 231.701475 95.423357 
L 235.721805 83.802649 
L 239.742135 73.764805 
L 243.762466 65.495194 
L 247.782796 59.149682 
L 251.803126 54.849752 
L 255.823456 52.678636 
L 259.843787 52.678636 
L 263.864117 54.849752 
L 267.884447 59.149682 
L 271.904777 65.495194 
L 275.925108 73.764805 
L 279.945438 83.802649 
L 283.965768 95.423357 
L 287.986099 108.417748 
L 292.006429 122.559072 
L 296.026759 137.609553 
L 300.047089 153.326975 
L 304.06742 169.471045 
L 308.08775 185.809323 
L 312.10808 202.122504 
L 316.128411 218.208919 
L 320.148741 233.888124 
L 324.169071 249.003534 
L 328.189401 263.424078 
L 332.209732 277.04491 
L 336.230062 289.787238 
L 340.250392 301.597371 
L 344.270722 312.445114 
L 348.291053 322.321628 
L 352.311383 331.236916 
L 356.331713 339.217063 
L 360.352044 346.301371 
L 364.372374 352.539497 
L 368.392704 357.988708 
L 372.413034 362.711322 
L 376.433365 366.772413 
L 380.453695 370.2378 
L 384.474025 373.172366 
L 388.494356 375.638684 
L 392.514686 377.695976 
L 396.535016 379.399346 
L 400.555346 380.799296 
L 404.575677 381.941454 
L 408.596007 382.866516 
L 412.616337 383.610328 
L 416.636667 384.204102 
L 420.656998 384.674709 
L 424.677328 385.04504 
L 428.697658 385.334393 
L 432.717989 385.558878 
L 436.738319 385.73181 
L 440.758649 385.864094 
L 444.778979 385.964575 
L 448.79931 386.040368 
L 452.81964 386.097141 
L 456.83997 386.139371 
" style="fill:none;stroke:#ff6384;stroke-linecap:square;"/>
   </g>
   <g id="line2d_2">
    <path clip-path="url(#p140b2e3a0e)" d="M 113.433923 386.140465 
L 117.493911 386.098647 
L 121.553899 386.042429 
L 125.613887 385.967377 
L 129.673875 385.867876 
L 133.733863 385.736885 
L 137.793851 385.565642 
L 141.853839 385.34335 
L 145.913827 385.056823 
L 149.973815 384.69011 
L 154.033803 384.2241 
L 158.093791 383.636126 
L 162.153778 382.899579 
L 166.213766 381.983553 
L 170.273754 380.852551 
L 174.333742 379.466276 
L 178.39373 377.779544 
L 182.453718 375.742348 
L 186.513706 373.30012 
L 190.573694 370.39422 
L 194.633682 366.962682 
L 198.69367 362.941259 
L 202.753658 358.264775 
L 206.813646 352.868792 
L 210.873633 346.691599 
L 214.933621 339.67649 
L 218.993609 331.774293 
L 223.053597 322.946089 
L 227.113585 313.166048 
L 231.173573 302.424265 
L 235.233561 290.729491 
L 239.293549 278.11163 
L 243.353537 264.623845 
L 247.413525 250.34416 
L 251.473513 235.376396 
L 255.533501 219.850345 
L 259.593488 203.92106 
L 263.653476 187.767225 
L 267.713464 171.588538 
L 271.773452 155.602162 
L 275.83344 140.038267 
L 279.893428 125.134797 
L 283.953416 111.131605 
L 288.013404 98.264142 
L 292.073392 86.756944 
L 296.13338 76.817149 
L 300.193368 68.628315 
L 304.253356 62.344785 
L 308.313344 58.086856 
L 312.373331 55.936948 
L 316.433319 55.936948 
L 320.493307 58.086856 
L 324.553295 62.344785 
L 328.613283 68.628315 
L 332.673271 76.817149 
L 336.733259 86.756944 
L 340.793247 98.264142 
L 344.853235 111.131605 
L 348.913223 125.134797 
L 352.973211 140.038267 
L 357.033199 155.602162 
L 361.093186 171.588538 
L 365.153174 187.767225 
L 369.213162 203.92106 
L 373.27315 219.850345 
L 377.333138 235.376396 
L 381.393126 250.34416 
L 385.453114 264.623845 
L 389.513102 278.11163 
L 393.57309 290.729491 
L 397.633078 302.424265 
L 401.693066 313.166048 
L 405.753054 322.946089 
L 409.813041 331.774293 
L 413.873029 339.67649 
L 417.933017 346.691599 
L 421.993005 352.868792 
L 426.052993 358.264775 
L 430.112981 362.941259 
L 434.172969 366.962682 
L 438.232957 370.39422 
L 442.292945 373.30012 
L 446.352933 375.742348 
L 450.412921 377.779544 
L 454.472909 379.466276 
L 458.532896 380.852551 
L 462.592884 381.983553 
L 466.652872 382.899579 
L 470.71286 383.636126 
L 474.772848 384.2241 
L 478.832836 384.69011 
L 482.892824 385.056823 
L 486.952812 385.34335 
L 491.0128 385.565642 
L 495.072788 385.736885 
L 499.132776 385.867876 
L 503.192764 385.967377 
L 507.252751 386.042429 
L 511.312739 386.098647 
L 515.372727 386.140465 
" style="fill:none;stroke:#36a2eb;stroke-linecap:square;"/>
   </g>
   <g id="patch_3">
    <path d="M 36 402.93 
L 538.2 402.93 
" style="fill:none;stroke:#000000;stroke-linecap:square;stroke-linejoin:miter;stroke-width:0.8;"/>
   </g>
   <g id="legend_1">
    <g id="patch_4">
     <path d="M 414.919063 88.29875 
L 528.4 88.29875 
Q 531.2 88.29875 531.2 85.49875 
L 531.2 45.8 
Q 531.2 43 528.4 43 
L 414.919063 43 
Q 412.119063 43 412.119063 45.8 
L 412.119063 85.49875 
Q 412.119063 88.29875 414.919063 88.29875 
z
" style="fill:#ffffff;opacity:0.8;stroke:#cccccc;stroke-linejoin:miter;"/>
    </g>
    <g id="patch_5">
     <path d="M 417.719063 59.237813 
L 445.719063 59.237813 
L 445.719063 49.437813 
L 417.719063 49.437813 
z
" style="fill:#ff6384;opacity:0.5;stroke:#ff6384;stroke-linejoin:miter;"/>
    </g>
    <g id="text_1">
     <!-- sidemenu -->
     <defs>
      <path d="M 44.28125 53.078125 
L 44.28125 44.578125 
Q 40.484375 46.53125 36.375 47.5 
Q 32.28125 48.484375 27.875 48.484375 
Q 21.1875 48.484375 17.84375 46.4375 
Q 14.5 44.390625 14.5 40.28125 
Q 14.5 37.15625 16.890625 35.375 
Q 19.28125 33.59375 26.515625 31.984375 
L 29.59375 31.296875 
Q 39.15625 29.25 43.1875 25.515625 
Q 47.21875 21.78125 47.21875 15.09375 
Q 47.21875 7.46875 41.1875 3.015625 
Q 35.15625 -1.421875 24.609375 -1.421875 
Q 20.21875 -1.421875 15.453125 -0.5625 
Q 10.6875 0.296875 5.421875 2 
L 5.421875 11.28125 
Q 10.40625 8.6875 15.234375 7.390625 
Q 20.0625 6.109375 24.8125 6.109375 
Q 31.15625 6.109375 34.5625 8.28125 
Q 37.984375 10.453125 37.984375 14.40625 
Q 37.984375 18.0625 35.515625 20.015625 
Q 33.0625 21.96875 24.703125 23.78125 
L 21.578125 24.515625 
Q 13.234375 26.265625 9.515625 29.90625 
Q 5.8125 33.546875 5.8125 39.890625 
Q 5.8125 47.609375 11.28125 51.796875 
Q 16.75 56 26.8125 56 
Q 31.78125 56 36.171875 55.265625 
Q 40.578125 54.546875 44.28125 53.078125 
z
" id="DejaVuSans-115"/>
      <path d="M 9.421875 54.6875 
L 18.40625 54.6875 
L 18.40625 0 
L 9.421875 0 
z
M 9.421875 75.984375 
L 18.40625 75.984375 
L 18.40625 64.59375 
L 9.421875 64.59375 
z
" id="DejaVuSans-105"/>
      <path d="M 45.40625 46.390625 
L 45.40625 75.984375 
L 54.390625 75.984375 
L 54.390625 0 
L 45.40625 0 
L 45.40625 8.203125 
Q 42.578125 3.328125 38.25 0.953125 
Q 33.9375 -1.421875 27.875 -1.421875 
Q 17.96875 -1.421875 11.734375 6.484375 
Q 5.515625 14.40625 5.515625 27.296875 
Q 5.515625 40.1875 11.734375 48.09375 
Q 17.96875 56 27.875 56 
Q 33.9375 56 38.25 53.625 
Q 42.578125 51.265625 45.40625 46.390625 
z
M 14.796875 27.296875 
Q 14.796875 17.390625 18.875 11.75 
Q 22.953125 6.109375 30.078125 6.109375 
Q 37.203125 6.109375 41.296875 11.75 
Q 45.40625 17.390625 45.40625 27.296875 
Q 45.40625 37.203125 41.296875 42.84375 
Q 37.203125 48.484375 30.078125 48.484375 
Q 22.953125 48.484375 18.875 42.84375 
Q 14.796875 37.203125 14.796875 27.296875 
z
" id="DejaVuSans-100"/>
      <path d="M 56.203125 29.59375 
L 56.203125 25.203125 
L 14.890625 25.203125 
Q 15.484375 15.921875 20.484375 11.0625 
Q 25.484375 6.203125 34.421875 6.203125 
Q 39.59375 6.203125 44.453125 7.46875 
Q 49.3125 8.734375 54.109375 11.28125 
L 54.109375 2.78125 
Q 49.265625 0.734375 44.1875 -0.34375 
Q 39.109375 -1.421875 33.890625 -1.421875 
Q 20.796875 -1.421875 13.15625 6.1875 
Q 5.515625 13.8125 5.515625 26.8125 
Q 5.515625 40.234375 12.765625 48.109375 
Q 20.015625 56 32.328125 56 
Q 43.359375 56 49.78125 48.890625 
Q 56.203125 41.796875 56.203125 29.59375 
z
M 47.21875 32.234375 
Q 47.125 39.59375 43.09375 43.984375 
Q 39.0625 48.390625 32.421875 48.390625 
Q 24.90625 48.390625 20.390625 44.140625 
Q 15.875 39.890625 15.1875 32.171875 
z
" id="DejaVuSans-101"/>
      <path d="M 52 44.1875 
Q 55.375 50.25 60.0625 53.125 
Q 64.75 56 71.09375 56 
Q 79.640625 56 84.28125 50.015625 
Q 88.921875 44.046875 88.921875 33.015625 
L 88.921875 0 
L 79.890625 0 
L 79.890625 32.71875 
Q 79.890625 40.578125 77.09375 44.375 
Q 74.3125 48.1875 68.609375 48.1875 
Q 61.625 48.1875 57.5625 43.546875 
Q 53.515625 38.921875 53.515625 30.90625 
L 53.515625 0 
L 44.484375 0 
L 44.484375 32.71875 
Q 44.484375 40.625 41.703125 44.40625 
Q 38.921875 48.1875 33.109375 48.1875 
Q 26.21875 48.1875 22.15625 43.53125 
Q 18.109375 38.875 18.109375 30.90625 
L 18.109375 0 
L 9.078125 0 
L 9.078125 54.6875 
L 18.109375 54.6875 
L 18.109375 46.1875 
Q 21.1875 51.21875 25.484375 53.609375 
Q 29.78125 56 35.6875 56 
Q 41.65625 56 45.828125 52.96875 
Q 50 49.953125 52 44.1875 
z
" id="DejaVuSans-109"/>
      <path d="M 54.890625 33.015625 
L 54.890625 0 
L 45.90625 0 
L 45.90625 32.71875 
Q 45.90625 40.484375 42.875 44.328125 
Q 39.84375 48.1875 33.796875 48.1875 
Q 26.515625 48.1875 22.3125 43.546875 
Q 18.109375 38.921875 18.109375 30.90625 
L 18.109375 0 
L 9.078125 0 
L 9.078125 54.6875 
L 18.109375 54.6875 
L 18.109375 46.1875 
Q 21.34375 51.125 25.703125 53.5625 
Q 30.078125 56 35.796875 56 
Q 45.21875 56 50.046875 50.171875 
Q 54.890625 44.34375 54.890625 33.015625 
z
" id="DejaVuSans-110"/>
      <path d="M 8.5 21.578125 
L 8.5 54.6875 
L 17.484375 54.6875 
L 17.484375 21.921875 
Q 17.484375 14.15625 20.5 10.265625 
Q 23.53125 6.390625 29.59375 6.390625 
Q 36.859375 6.390625 41.078125 11.03125 
Q 45.3125 15.671875 45.3125 23.6875 
L 45.3125 54.6875 
L 54.296875 54.6875 
L 54.296875 0 
L 45.3125 0 
L 45.3125 8.40625 
Q 42.046875 3.421875 37.71875 1 
Q 33.40625 -1.421875 27.6875 -1.421875 
Q 18.265625 -1.421875 13.375 4.4375 
Q 8.5 10.296875 8.5 21.578125 
z
M 31.109375 56 
z
" id="DejaVuSans-117"/>
     </defs>
     <g transform="translate(456.919063 59.237813)scale(0.14 -0.14)">
      <use xlink:href="#DejaVuSans-115"/>
      <use x="52.099609" xlink:href="#DejaVuSans-105"/>
      <use x="79.882812" xlink:href="#DejaVuSans-100"/>
      <use x="143.359375" xlink:href="#DejaVuSans-101"/>
      <use x="204.882812" xlink:href="#DejaVuSans-109"/>
      <use x="302.294922" xlink:href="#DejaVuSans-101"/>
      <use x="363.818359" xlink:href="#DejaVuSans-110"/>
      <use x="427.197266" xlink:href="#DejaVuSans-117"/>
     </g>
    </g>
    <g id="patch_6">
     <path d="M 417.719063 79.787188 
L 445.719063 79.787188 
L 445.719063 69.987188 
L 417.719063 69.987188 
z
" style="fill:#36a2eb;opacity:0.5;stroke:#36a2eb;stroke-linejoin:miter;"/>
    </g>
    <g id="text_2">
     <!-- tabbar -->
     <defs>
      <path d="M 18.3125 70.21875 
L 18.3125 54.6875 
L 36.8125 54.6875 
L 36.8125 47.703125 
L 18.3125 47.703125 
L 18.3125 18.015625 
Q 18.3125 11.328125 20.140625 9.421875 
Q 21.96875 7.515625 27.59375 7.515625 
L 36.8125 7.515625 
L 36.8125 0 
L 27.59375 0 
Q 17.1875 0 13.234375 3.875 
Q 9.28125 7.765625 9.28125 18.015625 
L 9.28125 47.703125 
L 2.6875 47.703125 
L 2.6875 54.6875 
L 9.28125 54.6875 
L 9.28125 70.21875 
z
" id="DejaVuSans-116"/>
      <path d="M 34.28125 27.484375 
Q 23.390625 27.484375 19.1875 25 
Q 14.984375 22.515625 14.984375 16.5 
Q 14.984375 11.71875 18.140625 8.90625 
Q 21.296875 6.109375 26.703125 6.109375 
Q 34.1875 6.109375 38.703125 11.40625 
Q 43.21875 16.703125 43.21875 25.484375 
L 43.21875 27.484375 
z
M 52.203125 31.203125 
L 52.203125 0 
L 43.21875 0 
L 43.21875 8.296875 
Q 40.140625 3.328125 35.546875 0.953125 
Q 30.953125 -1.421875 24.3125 -1.421875 
Q 15.921875 -1.421875 10.953125 3.296875 
Q 6 8.015625 6 15.921875 
Q 6 25.140625 12.171875 29.828125 
Q 18.359375 34.515625 30.609375 34.515625 
L 43.21875 34.515625 
L 43.21875 35.40625 
Q 43.21875 41.609375 39.140625 45 
Q 35.0625 48.390625 27.6875 48.390625 
Q 23 48.390625 18.546875 47.265625 
Q 14.109375 46.140625 10.015625 43.890625 
L 10.015625 52.203125 
Q 14.9375 54.109375 19.578125 55.046875 
Q 24.21875 56 28.609375 56 
Q 40.484375 56 46.34375 49.84375 
Q 52.203125 43.703125 52.203125 31.203125 
z
" id="DejaVuSans-97"/>
      <path d="M 48.6875 27.296875 
Q 48.6875 37.203125 44.609375 42.84375 
Q 40.53125 48.484375 33.40625 48.484375 
Q 26.265625 48.484375 22.1875 42.84375 
Q 18.109375 37.203125 18.109375 27.296875 
Q 18.109375 17.390625 22.1875 11.75 
Q 26.265625 6.109375 33.40625 6.109375 
Q 40.53125 6.109375 44.609375 11.75 
Q 48.6875 17.390625 48.6875 27.296875 
z
M 18.109375 46.390625 
Q 20.953125 51.265625 25.265625 53.625 
Q 29.59375 56 35.59375 56 
Q 45.5625 56 51.78125 48.09375 
Q 58.015625 40.1875 58.015625 27.296875 
Q 58.015625 14.40625 51.78125 6.484375 
Q 45.5625 -1.421875 35.59375 -1.421875 
Q 29.59375 -1.421875 25.265625 0.953125 
Q 20.953125 3.328125 18.109375 8.203125 
L 18.109375 0 
L 9.078125 0 
L 9.078125 75.984375 
L 18.109375 75.984375 
z
" id="DejaVuSans-98"/>
      <path d="M 41.109375 46.296875 
Q 39.59375 47.171875 37.8125 47.578125 
Q 36.03125 48 33.890625 48 
Q 26.265625 48 22.1875 43.046875 
Q 18.109375 38.09375 18.109375 28.8125 
L 18.109375 0 
L 9.078125 0 
L 9.078125 54.6875 
L 18.109375 54.6875 
L 18.109375 46.1875 
Q 20.953125 51.171875 25.484375 53.578125 
Q 30.03125 56 36.53125 56 
Q 37.453125 56 38.578125 55.875 
Q 39.703125 55.765625 41.0625 55.515625 
z
" id="DejaVuSans-114"/>
     </defs>
     <g transform="translate(456.919063 79.787188)scale(0.14 -0.14)">
      <use xlink:href="#DejaVuSans-116"/>
      <use x="39.208984" xlink:href="#DejaVuSans-97"/>
      <use x="100.488281" xlink:href="#DejaVuSans-98"/>
      <use x="163.964844" xlink:href="#DejaVuSans-98"/>
      <use x="227.441406" xlink:href="#DejaVuSans-97"/>
      <use x="288.720703" xlink:href="#DejaVuSans-114"/>
     </g>
    </g>
   </g>
  </g>
  <g id="axes_2">
   <g id="patch_7">
    <path d="M 36 525.24 
L 538.2 525.24 
L 538.2 402.93 
L 36 402.93 
z
" style="fill:none;"/>
   </g>
   <g id="patch_8">
    <path clip-path="url(#p22956a4098)" d="M 160.320511 519.680455 
L 355.346732 519.680455 
L 355.346732 482.616818 
L 160.320511 482.616818 
z
" style="fill:#ff6384;opacity:0.5;"/>
   </g>
   <g id="patch_9">
    <path clip-path="url(#p22956a4098)" d="M 215.928318 445.553182 
L 412.878332 445.553182 
L 412.878332 408.489545 
L 215.928318 408.489545 
z
" style="fill:#36a2eb;opacity:0.5;"/>
   </g>
   <g id="matplotlib.axis_1">
    <g id="xtick_1">
     <g id="line2d_3">
      <defs>
       <path d="M 0 0 
L 0 3.5 
" id="mb60b2c9ef5" style="stroke:#000000;stroke-width:0.8;"/>
      </defs>
      <g>
       <use style="stroke:#000000;stroke-width:0.8;" x="102.266936" xlink:href="#mb60b2c9ef5" y="525.24"/>
      </g>
     </g>
     <g id="text_3">
      <!-- 29 -->
      <defs>
       <path d="M 19.1875 8.296875 
L 53.609375 8.296875 
L 53.609375 0 
L 7.328125 0 
L 7.328125 8.296875 
Q 12.9375 14.109375 22.625 23.890625 
Q 32.328125 33.6875 34.8125 36.53125 
Q 39.546875 41.84375 41.421875 45.53125 
Q 43.3125 49.21875 43.3125 52.78125 
Q 43.3125 58.59375 39.234375 62.25 
Q 35.15625 65.921875 28.609375 65.921875 
Q 23.96875 65.921875 18.8125 64.3125 
Q 13.671875 62.703125 7.8125 59.421875 
L 7.8125 69.390625 
Q 13.765625 71.78125 18.9375 73 
Q 24.125 74.21875 28.421875 74.21875 
Q 39.75 74.21875 46.484375 68.546875 
Q 53.21875 62.890625 53.21875 53.421875 
Q 53.21875 48.921875 51.53125 44.890625 
Q 49.859375 40.875 45.40625 35.40625 
Q 44.1875 33.984375 37.640625 27.21875 
Q 31.109375 20.453125 19.1875 8.296875 
z
" id="DejaVuSans-50"/>
       <path d="M 10.984375 1.515625 
L 10.984375 10.5 
Q 14.703125 8.734375 18.5 7.8125 
Q 22.3125 6.890625 25.984375 6.890625 
Q 35.75 6.890625 40.890625 13.453125 
Q 46.046875 20.015625 46.78125 33.40625 
Q 43.953125 29.203125 39.59375 26.953125 
Q 35.25 24.703125 29.984375 24.703125 
Q 19.046875 24.703125 12.671875 31.3125 
Q 6.296875 37.9375 6.296875 49.421875 
Q 6.296875 60.640625 12.9375 67.421875 
Q 19.578125 74.21875 30.609375 74.21875 
Q 43.265625 74.21875 49.921875 64.515625 
Q 56.59375 54.828125 56.59375 36.375 
Q 56.59375 19.140625 48.40625 8.859375 
Q 40.234375 -1.421875 26.421875 -1.421875 
Q 22.703125 -1.421875 18.890625 -0.6875 
Q 15.09375 0.046875 10.984375 1.515625 
z
M 30.609375 32.421875 
Q 37.25 32.421875 41.125 36.953125 
Q 45.015625 41.5 45.015625 49.421875 
Q 45.015625 57.28125 41.125 61.84375 
Q 37.25 66.40625 30.609375 66.40625 
Q 23.96875 66.40625 20.09375 61.84375 
Q 16.21875 57.28125 16.21875 49.421875 
Q 16.21875 41.5 20.09375 36.953125 
Q 23.96875 32.421875 30.609375 32.421875 
z
" id="DejaVuSans-57"/>
      </defs>
      <g transform="translate(93.359436 542.877813)scale(0.14 -0.14)">
       <use xlink:href="#DejaVuSans-50"/>
       <use x="63.623047" xlink:href="#DejaVuSans-57"/>
      </g>
     </g>
    </g>
    <g id="xtick_2">
     <g id="line2d_4">
      <g>
       <use style="stroke:#000000;stroke-width:0.8;" x="211.054828" xlink:href="#mb60b2c9ef5" y="525.24"/>
      </g>
     </g>
     <g id="text_4">
      <!-- 30 -->
      <defs>
       <path d="M 40.578125 39.3125 
Q 47.65625 37.796875 51.625 33 
Q 55.609375 28.21875 55.609375 21.1875 
Q 55.609375 10.40625 48.1875 4.484375 
Q 40.765625 -1.421875 27.09375 -1.421875 
Q 22.515625 -1.421875 17.65625 -0.515625 
Q 12.796875 0.390625 7.625 2.203125 
L 7.625 11.71875 
Q 11.71875 9.328125 16.59375 8.109375 
Q 21.484375 6.890625 26.8125 6.890625 
Q 36.078125 6.890625 40.9375 10.546875 
Q 45.796875 14.203125 45.796875 21.1875 
Q 45.796875 27.640625 41.28125 31.265625 
Q 36.765625 34.90625 28.71875 34.90625 
L 20.21875 34.90625 
L 20.21875 43.015625 
L 29.109375 43.015625 
Q 36.375 43.015625 40.234375 45.921875 
Q 44.09375 48.828125 44.09375 54.296875 
Q 44.09375 59.90625 40.109375 62.90625 
Q 36.140625 65.921875 28.71875 65.921875 
Q 24.65625 65.921875 20.015625 65.03125 
Q 15.375 64.15625 9.8125 62.3125 
L 9.8125 71.09375 
Q 15.4375 72.65625 20.34375 73.4375 
Q 25.25 74.21875 29.59375 74.21875 
Q 40.828125 74.21875 47.359375 69.109375 
Q 53.90625 64.015625 53.90625 55.328125 
Q 53.90625 49.265625 50.4375 45.09375 
Q 46.96875 40.921875 40.578125 39.3125 
z
" id="DejaVuSans-51"/>
       <path d="M 31.78125 66.40625 
Q 24.171875 66.40625 20.328125 58.90625 
Q 16.5 51.421875 16.5 36.375 
Q 16.5 21.390625 20.328125 13.890625 
Q 24.171875 6.390625 31.78125 6.390625 
Q 39.453125 6.390625 43.28125 13.890625 
Q 47.125 21.390625 47.125 36.375 
Q 47.125 51.421875 43.28125 58.90625 
Q 39.453125 66.40625 31.78125 66.40625 
z
M 31.78125 74.21875 
Q 44.046875 74.21875 50.515625 64.515625 
Q 56.984375 54.828125 56.984375 36.375 
Q 56.984375 17.96875 50.515625 8.265625 
Q 44.046875 -1.421875 31.78125 -1.421875 
Q 19.53125 -1.421875 13.0625 8.265625 
Q 6.59375 17.96875 6.59375 36.375 
Q 6.59375 54.828125 13.0625 64.515625 
Q 19.53125 74.21875 31.78125 74.21875 
z
" id="DejaVuSans-48"/>
      </defs>
      <g transform="translate(202.147328 542.877813)scale(0.14 -0.14)">
       <use xlink:href="#DejaVuSans-51"/>
       <use x="63.623047" xlink:href="#DejaVuSans-48"/>
      </g>
     </g>
    </g>
    <g id="xtick_3">
     <g id="line2d_5">
      <g>
       <use style="stroke:#000000;stroke-width:0.8;" x="319.84272" xlink:href="#mb60b2c9ef5" y="525.24"/>
      </g>
     </g>
     <g id="text_5">
      <!-- 31 -->
      <defs>
       <path d="M 12.40625 8.296875 
L 28.515625 8.296875 
L 28.515625 63.921875 
L 10.984375 60.40625 
L 10.984375 69.390625 
L 28.421875 72.90625 
L 38.28125 72.90625 
L 38.28125 8.296875 
L 54.390625 8.296875 
L 54.390625 0 
L 12.40625 0 
z
" id="DejaVuSans-49"/>
      </defs>
      <g transform="translate(310.93522 542.877813)scale(0.14 -0.14)">
       <use xlink:href="#DejaVuSans-51"/>
       <use x="63.623047" xlink:href="#DejaVuSans-49"/>
      </g>
     </g>
    </g>
    <g id="xtick_4">
     <g id="line2d_6">
      <g>
       <use style="stroke:#000000;stroke-width:0.8;" x="428.630612" xlink:href="#mb60b2c9ef5" y="525.24"/>
      </g>
     </g>
     <g id="text_6">
      <!-- 32 -->
      <g transform="translate(419.723112 542.877813)scale(0.14 -0.14)">
       <use xlink:href="#DejaVuSans-51"/>
       <use x="63.623047" xlink:href="#DejaVuSans-50"/>
      </g>
     </g>
    </g>
    <g id="xtick_5">
     <g id="line2d_7">
      <g>
       <use style="stroke:#000000;stroke-width:0.8;" x="537.418504" xlink:href="#mb60b2c9ef5" y="525.24"/>
      </g>
     </g>
     <g id="text_7">
      <!-- 33 -->
      <g transform="translate(528.511004 542.877813)scale(0.14 -0.14)">
       <use xlink:href="#DejaVuSans-51"/>
       <use x="63.623047" xlink:href="#DejaVuSans-51"/>
      </g>
     </g>
    </g>
   </g>
   <g id="line2d_8">
    <path clip-path="url(#p22956a4098)" d="M 257.833621 525.24 
L 257.833621 402.93 
" style="fill:none;stroke:#ff6384;stroke-dasharray:5.55,2.4;stroke-dashoffset:0;stroke-opacity:0.8;stroke-width:1.5;"/>
   </g>
   <g id="line2d_9">
    <path clip-path="url(#p22956a4098)" d="M 314.403325 525.24 
L 314.403325 402.93 
" style="fill:none;stroke:#36a2eb;stroke-dasharray:5.55,2.4;stroke-dashoffset:0;stroke-opacity:0.8;stroke-width:1.5;"/>
   </g>
   <g id="patch_10">
    <path d="M 36 525.24 
L 538.2 525.24 
" style="fill:none;stroke:#000000;stroke-linecap:square;stroke-linejoin:miter;stroke-width:0.8;"/>
   </g>
  </g>
 </g>
 <defs>
  <clipPath id="p140b2e3a0e">
   <rect height="366.93" width="502.2" x="36" y="36"/>
  </clipPath>
  <clipPath id="p22956a4098">
   <rect height="122.31" width="502.2" x="36" y="402.93"/>
  </clipPath>
 </defs>
</svg>
