<?xml version="1.0" encoding="utf-8" standalone="no"?>
<!DOCTYPE svg PUBLIC "-//W3C//DTD SVG 1.1//EN"
  "http://www.w3.org/Graphics/SVG/1.1/DTD/svg11.dtd">
<!-- Created with matplotlib (https://matplotlib.org/) -->
<svg height="581.789375pt" version="1.1" viewBox="0 0 574.2 581.789375" width="574.2pt" xmlns="http://www.w3.org/2000/svg" xmlns:xlink="http://www.w3.org/1999/xlink">
 <defs>
  <style type="text/css">
*{stroke-linecap:butt;stroke-linejoin:round;}
  </style>
 </defs>
 <g id="figure_1">
  <g id="patch_1">
   <path d="M -0 581.789375 
L 574.2 581.789375 
L 574.2 0 
L -0 0 
z
" style="fill:none;"/>
  </g>
  <g id="axes_1">
   <g id="patch_2">
    <path d="M 36 402.93 
L 538.2 402.93 
L 538.2 36 
L 36 36 
z
" style="fill:none;"/>
   </g>
   <g id="PolyCollection_1">
    <defs>
     <path d="M 58.827273 -195.538011 
L 58.827273 -195.641512 
L 63.290831 -195.68054 
L 67.75439 -195.733007 
L 72.217948 -195.803053 
L 76.681507 -195.895915 
L 81.145065 -196.018167 
L 85.608624 -196.177986 
L 90.072183 -196.385448 
L 94.535741 -196.652859 
L 98.9993 -196.995108 
L 103.462858 -197.430029 
L 107.926417 -197.978776 
L 112.389975 -198.666186 
L 116.853534 -199.5211 
L 121.317092 -200.576648 
L 125.780651 -201.870439 
L 130.244209 -203.444643 
L 134.707768 -205.345929 
L 139.171327 -207.625227 
L 143.634885 -210.337263 
L 148.098444 -213.53987 
L 152.562002 -217.293007 
L 157.025561 -221.657505 
L 161.489119 -226.693501 
L 165.952678 -232.458589 
L 170.416236 -239.005693 
L 174.879795 -246.380704 
L 179.343353 -254.619943 
L 183.806912 -263.747519 
L 188.27047 -273.772676 
L 192.734029 -284.687245 
L 197.197588 -296.46332 
L 201.661146 -309.051282 
L 206.124705 -322.378314 
L 210.588263 -336.347519 
L 215.051822 -350.837767 
L 219.51538 -365.704346 
L 223.978939 -380.780496 
L 228.442497 -395.879839 
L 232.906056 -410.799702 
L 237.369614 -425.325269 
L 241.833173 -439.234469 
L 246.296732 -452.303454 
L 250.76029 -464.312478 
L 255.223849 -475.051986 
L 259.687407 -484.328658 
L 264.150966 -491.971183 
L 268.614524 -497.835514 
L 273.078083 -501.809379 
L 277.541641 -503.815859 
L 282.0052 -503.815859 
L 286.468758 -501.809379 
L 290.932317 -497.835514 
L 295.395876 -491.971183 
L 299.859434 -484.328658 
L 304.322993 -475.051986 
L 308.786551 -464.312478 
L 313.25011 -452.303454 
L 317.713668 -439.234469 
L 322.177227 -425.325269 
L 326.640785 -410.799702 
L 331.104344 -395.879839 
L 335.567902 -380.780496 
L 340.031461 -365.704346 
L 344.49502 -350.837767 
L 348.958578 -336.347519 
L 353.422137 -322.378314 
L 357.885695 -309.051282 
L 362.349254 -296.46332 
L 366.812812 -284.687245 
L 371.276371 -273.772676 
L 375.739929 -263.747519 
L 380.203488 -254.619943 
L 384.667046 -246.380704 
L 389.130605 -239.005693 
L 393.594163 -232.458589 
L 398.057722 -226.693501 
L 402.521281 -221.657505 
L 406.984839 -217.293007 
L 411.448398 -213.53987 
L 415.911956 -210.337263 
L 420.375515 -207.625227 
L 424.839073 -205.345929 
L 429.302632 -203.444643 
L 433.76619 -201.870439 
L 438.229749 -200.576648 
L 442.693307 -199.5211 
L 447.156866 -198.666186 
L 451.620425 -197.978776 
L 456.083983 -197.430029 
L 460.547542 -196.995108 
L 465.0111 -196.652859 
L 469.474659 -196.385448 
L 473.938217 -196.177986 
L 478.401776 -196.018167 
L 482.865334 -195.895915 
L 487.328893 -195.803053 
L 491.792451 -195.733007 
L 496.25601 -195.68054 
L 500.719569 -195.641512 
L 500.719569 -195.538011 
L 500.719569 -195.538011 
L 496.25601 -195.538011 
L 491.792451 -195.538011 
L 487.328893 -195.538011 
L 482.865334 -195.538011 
L 478.401776 -195.538011 
L 473.938217 -195.538011 
L 469.474659 -195.538011 
L 465.0111 -195.538011 
L 460.547542 -195.538011 
L 456.083983 -195.538011 
L 451.620425 -195.538011 
L 447.156866 -195.538011 
L 442.693307 -195.538011 
L 438.229749 -195.538011 
L 433.76619 -195.538011 
L 429.302632 -195.538011 
L 424.839073 -195.538011 
L 420.375515 -195.538011 
L 415.911956 -195.538011 
L 411.448398 -195.538011 
L 406.984839 -195.538011 
L 402.521281 -195.538011 
L 398.057722 -195.538011 
L 393.594163 -195.538011 
L 389.130605 -195.538011 
L 384.667046 -195.538011 
L 380.203488 -195.538011 
L 375.739929 -195.538011 
L 371.276371 -195.538011 
L 366.812812 -195.538011 
L 362.349254 -195.538011 
L 357.885695 -195.538011 
L 353.422137 -195.538011 
L 348.958578 -195.538011 
L 344.49502 -195.538011 
L 340.031461 -195.538011 
L 335.567902 -195.538011 
L 331.104344 -195.538011 
L 326.640785 -195.538011 
L 322.177227 -195.538011 
L 317.713668 -195.538011 
L 313.25011 -195.538011 
L 308.786551 -195.538011 
L 304.322993 -195.538011 
L 299.859434 -195.538011 
L 295.395876 -195.538011 
L 290.932317 -195.538011 
L 286.468758 -195.538011 
L 282.0052 -195.538011 
L 277.541641 -195.538011 
L 273.078083 -195.538011 
L 268.614524 -195.538011 
L 264.150966 -195.538011 
L 259.687407 -195.538011 
L 255.223849 -195.538011 
L 250.76029 -195.538011 
L 246.296732 -195.538011 
L 241.833173 -195.538011 
L 237.369614 -195.538011 
L 232.906056 -195.538011 
L 228.442497 -195.538011 
L 223.978939 -195.538011 
L 219.51538 -195.538011 
L 215.051822 -195.538011 
L 210.588263 -195.538011 
L 206.124705 -195.538011 
L 201.661146 -195.538011 
L 197.197588 -195.538011 
L 192.734029 -195.538011 
L 188.27047 -195.538011 
L 183.806912 -195.538011 
L 179.343353 -195.538011 
L 174.879795 -195.538011 
L 170.416236 -195.538011 
L 165.952678 -195.538011 
L 161.489119 -195.538011 
L 157.025561 -195.538011 
L 152.562002 -195.538011 
L 148.098444 -195.538011 
L 143.634885 -195.538011 
L 139.171327 -195.538011 
L 134.707768 -195.538011 
L 130.244209 -195.538011 
L 125.780651 -195.538011 
L 121.317092 -195.538011 
L 116.853534 -195.538011 
L 112.389975 -195.538011 
L 107.926417 -195.538011 
L 103.462858 -195.538011 
L 98.9993 -195.538011 
L 94.535741 -195.538011 
L 90.072183 -195.538011 
L 85.608624 -195.538011 
L 81.145065 -195.538011 
L 76.681507 -195.538011 
L 72.217948 -195.538011 
L 67.75439 -195.538011 
L 63.290831 -195.538011 
L 58.827273 -195.538011 
z
" id="m2f0aa6b71b" style="stroke:#ff6384;stroke-opacity:0.5;"/>
    </defs>
    <g clip-path="url(#p5b8663af58)">
     <use style="fill:#ff6384;fill-opacity:0.5;stroke:#ff6384;stroke-opacity:0.5;" x="0" xlink:href="#m2f0aa6b71b" y="581.789375"/>
    </g>
   </g>
   <g id="PolyCollection_2">
    <defs>
     <path d="M 106.989204 -195.538011 
L 106.989204 -195.650004 
L 111.11429 -195.692234 
L 115.239376 -195.749007 
L 119.364462 -195.8248 
L 123.489548 -195.925281 
L 127.614634 -196.057565 
L 131.73972 -196.230497 
L 135.864806 -196.454982 
L 139.989892 -196.744335 
L 144.114978 -197.114666 
L 148.240064 -197.585273 
L 152.365151 -198.179047 
L 156.490237 -198.922859 
L 160.615323 -199.847921 
L 164.740409 -200.990079 
L 168.865495 -202.390029 
L 172.990581 -204.093399 
L 177.115667 -206.150691 
L 181.240753 -208.617009 
L 185.365839 -211.551575 
L 189.490925 -215.016962 
L 193.616012 -219.078053 
L 197.741098 -223.800667 
L 201.866184 -229.249878 
L 205.99127 -235.488004 
L 210.116356 -242.572312 
L 214.241442 -250.552459 
L 218.366528 -259.467747 
L 222.491614 -269.344261 
L 226.6167 -280.192004 
L 230.741786 -292.002137 
L 234.866873 -304.744465 
L 238.991959 -318.365297 
L 243.117045 -332.785841 
L 247.242131 -347.901251 
L 251.367217 -363.580456 
L 255.492303 -379.666871 
L 259.617389 -395.980052 
L 263.742475 -412.31833 
L 267.867561 -428.4624 
L 271.992647 -444.179822 
L 276.117734 -459.230303 
L 280.24282 -473.371627 
L 284.367906 -486.366018 
L 288.492992 -497.986726 
L 292.618078 -508.02457 
L 296.743164 -516.294181 
L 300.86825 -522.639693 
L 304.993336 -526.939623 
L 309.118422 -529.110739 
L 313.243508 -529.110739 
L 317.368595 -526.939623 
L 321.493681 -522.639693 
L 325.618767 -516.294181 
L 329.743853 -508.02457 
L 333.868939 -497.986726 
L 337.994025 -486.366018 
L 342.119111 -473.371627 
L 346.244197 -459.230303 
L 350.369283 -444.179822 
L 354.494369 -428.4624 
L 358.619456 -412.31833 
L 362.744542 -395.980052 
L 366.869628 -379.666871 
L 370.994714 -363.580456 
L 375.1198 -347.901251 
L 379.244886 -332.785841 
L 383.369972 -318.365297 
L 387.495058 -304.744465 
L 391.620144 -292.002137 
L 395.74523 -280.192004 
L 399.870317 -269.344261 
L 403.995403 -259.467747 
L 408.120489 -250.552459 
L 412.245575 -242.572312 
L 416.370661 -235.488004 
L 420.495747 -229.249878 
L 424.620833 -223.800667 
L 428.745919 -219.078053 
L 432.871005 -215.016962 
L 436.996091 -211.551575 
L 441.121177 -208.617009 
L 445.246264 -206.150691 
L 449.37135 -204.093399 
L 453.496436 -202.390029 
L 457.621522 -200.990079 
L 461.746608 -199.847921 
L 465.871694 -198.922859 
L 469.99678 -198.179047 
L 474.121866 -197.585273 
L 478.246952 -197.114666 
L 482.372038 -196.744335 
L 486.497125 -196.454982 
L 490.622211 -196.230497 
L 494.747297 -196.057565 
L 498.872383 -195.925281 
L 502.997469 -195.8248 
L 507.122555 -195.749007 
L 511.247641 -195.692234 
L 515.372727 -195.650004 
L 515.372727 -195.538011 
L 515.372727 -195.538011 
L 511.247641 -195.538011 
L 507.122555 -195.538011 
L 502.997469 -195.538011 
L 498.872383 -195.538011 
L 494.747297 -195.538011 
L 490.622211 -195.538011 
L 486.497125 -195.538011 
L 482.372038 -195.538011 
L 478.246952 -195.538011 
L 474.121866 -195.538011 
L 469.99678 -195.538011 
L 465.871694 -195.538011 
L 461.746608 -195.538011 
L 457.621522 -195.538011 
L 453.496436 -195.538011 
L 449.37135 -195.538011 
L 445.246264 -195.538011 
L 441.121177 -195.538011 
L 436.996091 -195.538011 
L 432.871005 -195.538011 
L 428.745919 -195.538011 
L 424.620833 -195.538011 
L 420.495747 -195.538011 
L 416.370661 -195.538011 
L 412.245575 -195.538011 
L 408.120489 -195.538011 
L 403.995403 -195.538011 
L 399.870317 -195.538011 
L 395.74523 -195.538011 
L 391.620144 -195.538011 
L 387.495058 -195.538011 
L 383.369972 -195.538011 
L 379.244886 -195.538011 
L 375.1198 -195.538011 
L 370.994714 -195.538011 
L 366.869628 -195.538011 
L 362.744542 -195.538011 
L 358.619456 -195.538011 
L 354.494369 -195.538011 
L 350.369283 -195.538011 
L 346.244197 -195.538011 
L 342.119111 -195.538011 
L 337.994025 -195.538011 
L 333.868939 -195.538011 
L 329.743853 -195.538011 
L 325.618767 -195.538011 
L 321.493681 -195.538011 
L 317.368595 -195.538011 
L 313.243508 -195.538011 
L 309.118422 -195.538011 
L 304.993336 -195.538011 
L 300.86825 -195.538011 
L 296.743164 -195.538011 
L 292.618078 -195.538011 
L 288.492992 -195.538011 
L 284.367906 -195.538011 
L 280.24282 -195.538011 
L 276.117734 -195.538011 
L 271.992647 -195.538011 
L 267.867561 -195.538011 
L 263.742475 -195.538011 
L 259.617389 -195.538011 
L 255.492303 -195.538011 
L 251.367217 -195.538011 
L 247.242131 -195.538011 
L 243.117045 -195.538011 
L 238.991959 -195.538011 
L 234.866873 -195.538011 
L 230.741786 -195.538011 
L 226.6167 -195.538011 
L 222.491614 -195.538011 
L 218.366528 -195.538011 
L 214.241442 -195.538011 
L 210.116356 -195.538011 
L 205.99127 -195.538011 
L 201.866184 -195.538011 
L 197.741098 -195.538011 
L 193.616012 -195.538011 
L 189.490925 -195.538011 
L 185.365839 -195.538011 
L 181.240753 -195.538011 
L 177.115667 -195.538011 
L 172.990581 -195.538011 
L 168.865495 -195.538011 
L 164.740409 -195.538011 
L 160.615323 -195.538011 
L 156.490237 -195.538011 
L 152.365151 -195.538011 
L 148.240064 -195.538011 
L 144.114978 -195.538011 
L 139.989892 -195.538011 
L 135.864806 -195.538011 
L 131.73972 -195.538011 
L 127.614634 -195.538011 
L 123.489548 -195.538011 
L 119.364462 -195.538011 
L 115.239376 -195.538011 
L 111.11429 -195.538011 
L 106.989204 -195.538011 
z
" id="m1ed87c875c" style="stroke:#36a2eb;stroke-opacity:0.5;"/>
    </defs>
    <g clip-path="url(#p5b8663af58)">
     <use style="fill:#36a2eb;fill-opacity:0.5;stroke:#36a2eb;stroke-opacity:0.5;" x="0" xlink:href="#m1ed87c875c" y="581.789375"/>
    </g>
   </g>
   <g id="line2d_1">
    <path clip-path="url(#p5b8663af58)" d="M 58.827273 386.147863 
L 63.290831 386.108835 
L 67.75439 386.056368 
L 72.217948 385.986322 
L 76.681507 385.89346 
L 81.145065 385.771208 
L 85.608624 385.611389 
L 90.072183 385.403927 
L 94.535741 385.136516 
L 98.9993 384.794267 
L 103.462858 384.359346 
L 107.926417 383.810599 
L 112.389975 383.123189 
L 116.853534 382.268275 
L 121.317092 381.212727 
L 125.780651 379.918936 
L 130.244209 378.344732 
L 134.707768 376.443446 
L 139.171327 374.164148 
L 143.634885 371.452112 
L 148.098444 368.249505 
L 152.562002 364.496368 
L 157.025561 360.13187 
L 161.489119 355.095874 
L 165.952678 349.330786 
L 170.416236 342.783682 
L 174.879795 335.408671 
L 179.343353 327.169432 
L 183.806912 318.041856 
L 188.27047 308.016699 
L 192.734029 297.10213 
L 197.197588 285.326055 
L 201.661146 272.738093 
L 206.124705 259.411061 
L 210.588263 245.441856 
L 215.051822 230.951608 
L 219.51538 216.085029 
L 223.978939 201.008879 
L 228.442497 185.909536 
L 232.906056 170.989673 
L 237.369614 156.464106 
L 241.833173 142.554906 
L 246.296732 129.485921 
L 250.76029 117.476897 
L 255.223849 106.737389 
L 259.687407 97.460717 
L 264.150966 89.818192 
L 268.614524 83.953861 
L 273.078083 79.979996 
L 277.541641 77.973516 
L 282.0052 77.973516 
L 286.468758 79.979996 
L 290.932317 83.953861 
L 295.395876 89.818192 
L 299.859434 97.460717 
L 304.322993 106.737389 
L 308.786551 117.476897 
L 313.25011 129.485921 
L 317.713668 142.554906 
L 322.177227 156.464106 
L 326.640785 170.989673 
L 331.104344 185.909536 
L 335.567902 201.008879 
L 340.031461 216.085029 
L 344.49502 230.951608 
L 348.958578 245.441856 
L 353.422137 259.411061 
L 357.885695 272.738093 
L 362.349254 285.326055 
L 366.812812 297.10213 
L 371.276371 308.016699 
L 375.739929 318.041856 
L 380.203488 327.169432 
L 384.667046 335.408671 
L 389.130605 342.783682 
L 393.594163 349.330786 
L 398.057722 355.095874 
L 402.521281 360.13187 
L 406.984839 364.496368 
L 411.448398 368.249505 
L 415.911956 371.452112 
L 420.375515 374.164148 
L 424.839073 376.443446 
L 429.302632 378.344732 
L 433.76619 379.918936 
L 438.229749 381.212727 
L 442.693307 382.268275 
L 447.156866 383.123189 
L 451.620425 383.810599 
L 456.083983 384.359346 
L 460.547542 384.794267 
L 465.0111 385.136516 
L 469.474659 385.403927 
L 473.938217 385.611389 
L 478.401776 385.771208 
L 482.865334 385.89346 
L 487.328893 385.986322 
L 491.792451 386.056368 
L 496.25601 386.108835 
L 500.719569 386.147863 
" style="fill:none;stroke:#ff6384;stroke-linecap:square;"/>
   </g>
   <g id="line2d_2">
    <path clip-path="url(#p5b8663af58)" d="M 106.989204 386.139371 
L 111.11429 386.097141 
L 115.239376 386.040368 
L 119.364462 385.964575 
L 123.489548 385.864094 
L 127.614634 385.73181 
L 131.73972 385.558878 
L 135.864806 385.334393 
L 139.989892 385.04504 
L 144.114978 384.674709 
L 148.240064 384.204102 
L 152.365151 383.610328 
L 156.490237 382.866516 
L 160.615323 381.941454 
L 164.740409 380.799296 
L 168.865495 379.399346 
L 172.990581 377.695976 
L 177.115667 375.638684 
L 181.240753 373.172366 
L 185.365839 370.2378 
L 189.490925 366.772413 
L 193.616012 362.711322 
L 197.741098 357.988708 
L 201.866184 352.539497 
L 205.99127 346.301371 
L 210.116356 339.217063 
L 214.241442 331.236916 
L 218.366528 322.321628 
L 222.491614 312.445114 
L 226.6167 301.597371 
L 230.741786 289.787238 
L 234.866873 277.04491 
L 238.991959 263.424078 
L 243.117045 249.003534 
L 247.242131 233.888124 
L 251.367217 218.208919 
L 255.492303 202.122504 
L 259.617389 185.809323 
L 263.742475 169.471045 
L 267.867561 153.326975 
L 271.992647 137.609553 
L 276.117734 122.559072 
L 280.24282 108.417748 
L 284.367906 95.423357 
L 288.492992 83.802649 
L 292.618078 73.764805 
L 296.743164 65.495194 
L 300.86825 59.149682 
L 304.993336 54.849752 
L 309.118422 52.678636 
L 313.243508 52.678636 
L 317.368595 54.849752 
L 321.493681 59.149682 
L 325.618767 65.495194 
L 329.743853 73.764805 
L 333.868939 83.802649 
L 337.994025 95.423357 
L 342.119111 108.417748 
L 346.244197 122.559072 
L 350.369283 137.609553 
L 354.494369 153.326975 
L 358.619456 169.471045 
L 362.744542 185.809323 
L 366.869628 202.122504 
L 370.994714 218.208919 
L 375.1198 233.888124 
L 379.244886 249.003534 
L 383.369972 263.424078 
L 387.495058 277.04491 
L 391.620144 289.787238 
L 395.74523 301.597371 
L 399.870317 312.445114 
L 403.995403 322.321628 
L 408.120489 331.236916 
L 412.245575 339.217063 
L 416.370661 346.301371 
L 420.495747 352.539497 
L 424.620833 357.988708 
L 428.745919 362.711322 
L 432.871005 366.772413 
L 436.996091 370.2378 
L 441.121177 373.172366 
L 445.246264 375.638684 
L 449.37135 377.695976 
L 453.496436 379.399346 
L 457.621522 380.799296 
L 461.746608 381.941454 
L 465.871694 382.866516 
L 469.99678 383.610328 
L 474.121866 384.204102 
L 478.246952 384.674709 
L 482.372038 385.04504 
L 486.497125 385.334393 
L 490.622211 385.558878 
L 494.747297 385.73181 
L 498.872383 385.864094 
L 502.997469 385.964575 
L 507.122555 386.040368 
L 511.247641 386.097141 
L 515.372727 386.139371 
" style="fill:none;stroke:#36a2eb;stroke-linecap:square;"/>
   </g>
   <g id="patch_3">
    <path d="M 36 402.93 
L 538.2 402.93 
" style="fill:none;stroke:#000000;stroke-linecap:square;stroke-linejoin:miter;stroke-width:0.8;"/>
   </g>
   <g id="legend_1">
    <g id="patch_4">
     <path d="M 414.919063 88.29875 
L 528.4 88.29875 
Q 531.2 88.29875 531.2 85.49875 
L 531.2 45.8 
Q 531.2 43 528.4 43 
L 414.919063 43 
Q 412.119063 43 412.119063 45.8 
L 412.119063 85.49875 
Q 412.119063 88.29875 414.919063 88.29875 
z
" style="fill:#ffffff;opacity:0.8;stroke:#cccccc;stroke-linejoin:miter;"/>
    </g>
    <g id="patch_5">
     <path d="M 417.719063 59.237813 
L 445.719063 59.237813 
L 445.719063 49.437813 
L 417.719063 49.437813 
z
" style="fill:#ff6384;opacity:0.5;stroke:#ff6384;stroke-linejoin:miter;"/>
    </g>
    <g id="text_1">
     <!-- sidemenu -->
     <defs>
      <path d="M 44.28125 53.078125 
L 44.28125 44.578125 
Q 40.484375 46.53125 36.375 47.5 
Q 32.28125 48.484375 27.875 48.484375 
Q 21.1875 48.484375 17.84375 46.4375 
Q 14.5 44.390625 14.5 40.28125 
Q 14.5 37.15625 16.890625 35.375 
Q 19.28125 33.59375 26.515625 31.984375 
L 29.59375 31.296875 
Q 39.15625 29.25 43.1875 25.515625 
Q 47.21875 21.78125 47.21875 15.09375 
Q 47.21875 7.46875 41.1875 3.015625 
Q 35.15625 -1.421875 24.609375 -1.421875 
Q 20.21875 -1.421875 15.453125 -0.5625 
Q 10.6875 0.296875 5.421875 2 
L 5.421875 11.28125 
Q 10.40625 8.6875 15.234375 7.390625 
Q 20.0625 6.109375 24.8125 6.109375 
Q 31.15625 6.109375 34.5625 8.28125 
Q 37.984375 10.453125 37.984375 14.40625 
Q 37.984375 18.0625 35.515625 20.015625 
Q 33.0625 21.96875 24.703125 23.78125 
L 21.578125 24.515625 
Q 13.234375 26.265625 9.515625 29.90625 
Q 5.8125 33.546875 5.8125 39.890625 
Q 5.8125 47.609375 11.28125 51.796875 
Q 16.75 56 26.8125 56 
Q 31.78125 56 36.171875 55.265625 
Q 40.578125 54.546875 44.28125 53.078125 
z
" id="DejaVuSans-115"/>
      <path d="M 9.421875 54.6875 
L 18.40625 54.6875 
L 18.40625 0 
L 9.421875 0 
z
M 9.421875 75.984375 
L 18.40625 75.984375 
L 18.40625 64.59375 
L 9.421875 64.59375 
z
" id="DejaVuSans-105"/>
      <path d="M 45.40625 46.390625 
L 45.40625 75.984375 
L 54.390625 75.984375 
L 54.390625 0 
L 45.40625 0 
L 45.40625 8.203125 
Q 42.578125 3.328125 38.25 0.953125 
Q 33.9375 -1.421875 27.875 -1.421875 
Q 17.96875 -1.421875 11.734375 6.484375 
Q 5.515625 14.40625 5.515625 27.296875 
Q 5.515625 40.1875 11.734375 48.09375 
Q 17.96875 56 27.875 56 
Q 33.9375 56 38.25 53.625 
Q 42.578125 51.265625 45.40625 46.390625 
z
M 14.796875 27.296875 
Q 14.796875 17.390625 18.875 11.75 
Q 22.953125 6.109375 30.078125 6.109375 
Q 37.203125 6.109375 41.296875 11.75 
Q 45.40625 17.390625 45.40625 27.296875 
Q 45.40625 37.203125 41.296875 42.84375 
Q 37.203125 48.484375 30.078125 48.484375 
Q 22.953125 48.484375 18.875 42.84375 
Q 14.796875 37.203125 14.796875 27.296875 
z
" id="DejaVuSans-100"/>
      <path d="M 56.203125 29.59375 
L 56.203125 25.203125 
L 14.890625 25.203125 
Q 15.484375 15.921875 20.484375 11.0625 
Q 25.484375 6.203125 34.421875 6.203125 
Q 39.59375 6.203125 44.453125 7.46875 
Q 49.3125 8.734375 54.109375 11.28125 
L 54.109375 2.78125 
Q 49.265625 0.734375 44.1875 -0.34375 
Q 39.109375 -1.421875 33.890625 -1.421875 
Q 20.796875 -1.421875 13.15625 6.1875 
Q 5.515625 13.8125 5.515625 26.8125 
Q 5.515625 40.234375 12.765625 48.109375 
Q 20.015625 56 32.328125 56 
Q 43.359375 56 49.78125 48.890625 
Q 56.203125 41.796875 56.203125 29.59375 
z
M 47.21875 32.234375 
Q 47.125 39.59375 43.09375 43.984375 
Q 39.0625 48.390625 32.421875 48.390625 
Q 24.90625 48.390625 20.390625 44.140625 
Q 15.875 39.890625 15.1875 32.171875 
z
" id="DejaVuSans-101"/>
      <path d="M 52 44.1875 
Q 55.375 50.25 60.0625 53.125 
Q 64.75 56 71.09375 56 
Q 79.640625 56 84.28125 50.015625 
Q 88.921875 44.046875 88.921875 33.015625 
L 88.921875 0 
L 79.890625 0 
L 79.890625 32.71875 
Q 79.890625 40.578125 77.09375 44.375 
Q 74.3125 48.1875 68.609375 48.1875 
Q 61.625 48.1875 57.5625 43.546875 
Q 53.515625 38.921875 53.515625 30.90625 
L 53.515625 0 
L 44.484375 0 
L 44.484375 32.71875 
Q 44.484375 40.625 41.703125 44.40625 
Q 38.921875 48.1875 33.109375 48.1875 
Q 26.21875 48.1875 22.15625 43.53125 
Q 18.109375 38.875 18.109375 30.90625 
L 18.109375 0 
L 9.078125 0 
L 9.078125 54.6875 
L 18.109375 54.6875 
L 18.109375 46.1875 
Q 21.1875 51.21875 25.484375 53.609375 
Q 29.78125 56 35.6875 56 
Q 41.65625 56 45.828125 52.96875 
Q 50 49.953125 52 44.1875 
z
" id="DejaVuSans-109"/>
      <path d="M 54.890625 33.015625 
L 54.890625 0 
L 45.90625 0 
L 45.90625 32.71875 
Q 45.90625 40.484375 42.875 44.328125 
Q 39.84375 48.1875 33.796875 48.1875 
Q 26.515625 48.1875 22.3125 43.546875 
Q 18.109375 38.921875 18.109375 30.90625 
L 18.109375 0 
L 9.078125 0 
L 9.078125 54.6875 
L 18.109375 54.6875 
L 18.109375 46.1875 
Q 21.34375 51.125 25.703125 53.5625 
Q 30.078125 56 35.796875 56 
Q 45.21875 56 50.046875 50.171875 
Q 54.890625 44.34375 54.890625 33.015625 
z
" id="DejaVuSans-110"/>
      <path d="M 8.5 21.578125 
L 8.5 54.6875 
L 17.484375 54.6875 
L 17.484375 21.921875 
Q 17.484375 14.15625 20.5 10.265625 
Q 23.53125 6.390625 29.59375 6.390625 
Q 36.859375 6.390625 41.078125 11.03125 
Q 45.3125 15.671875 45.3125 23.6875 
L 45.3125 54.6875 
L 54.296875 54.6875 
L 54.296875 0 
L 45.3125 0 
L 45.3125 8.40625 
Q 42.046875 3.421875 37.71875 1 
Q 33.40625 -1.421875 27.6875 -1.421875 
Q 18.265625 -1.421875 13.375 4.4375 
Q 8.5 10.296875 8.5 21.578125 
z
M 31.109375 56 
z
" id="DejaVuSans-117"/>
     </defs>
     <g transform="translate(456.919063 59.237813)scale(0.14 -0.14)">
      <use xlink:href="#DejaVuSans-115"/>
      <use x="52.099609" xlink:href="#DejaVuSans-105"/>
      <use x="79.882812" xlink:href="#DejaVuSans-100"/>
      <use x="143.359375" xlink:href="#DejaVuSans-101"/>
      <use x="204.882812" xlink:href="#DejaVuSans-109"/>
      <use x="302.294922" xlink:href="#DejaVuSans-101"/>
      <use x="363.818359" xlink:href="#DejaVuSans-110"/>
      <use x="427.197266" xlink:href="#DejaVuSans-117"/>
     </g>
    </g>
    <g id="patch_6">
     <path d="M 417.719063 79.787188 
L 445.719063 79.787188 
L 445.719063 69.987188 
L 417.719063 69.987188 
z
" style="fill:#36a2eb;opacity:0.5;stroke:#36a2eb;stroke-linejoin:miter;"/>
    </g>
    <g id="text_2">
     <!-- tabbar -->
     <defs>
      <path d="M 18.3125 70.21875 
L 18.3125 54.6875 
L 36.8125 54.6875 
L 36.8125 47.703125 
L 18.3125 47.703125 
L 18.3125 18.015625 
Q 18.3125 11.328125 20.140625 9.421875 
Q 21.96875 7.515625 27.59375 7.515625 
L 36.8125 7.515625 
L 36.8125 0 
L 27.59375 0 
Q 17.1875 0 13.234375 3.875 
Q 9.28125 7.765625 9.28125 18.015625 
L 9.28125 47.703125 
L 2.6875 47.703125 
L 2.6875 54.6875 
L 9.28125 54.6875 
L 9.28125 70.21875 
z
" id="DejaVuSans-116"/>
      <path d="M 34.28125 27.484375 
Q 23.390625 27.484375 19.1875 25 
Q 14.984375 22.515625 14.984375 16.5 
Q 14.984375 11.71875 18.140625 8.90625 
Q 21.296875 6.109375 26.703125 6.109375 
Q 34.1875 6.109375 38.703125 11.40625 
Q 43.21875 16.703125 43.21875 25.484375 
L 43.21875 27.484375 
z
M 52.203125 31.203125 
L 52.203125 0 
L 43.21875 0 
L 43.21875 8.296875 
Q 40.140625 3.328125 35.546875 0.953125 
Q 30.953125 -1.421875 24.3125 -1.421875 
Q 15.921875 -1.421875 10.953125 3.296875 
Q 6 8.015625 6 15.921875 
Q 6 25.140625 12.171875 29.828125 
Q 18.359375 34.515625 30.609375 34.515625 
L 43.21875 34.515625 
L 43.21875 35.40625 
Q 43.21875 41.609375 39.140625 45 
Q 35.0625 48.390625 27.6875 48.390625 
Q 23 48.390625 18.546875 47.265625 
Q 14.109375 46.140625 10.015625 43.890625 
L 10.015625 52.203125 
Q 14.9375 54.109375 19.578125 55.046875 
Q 24.21875 56 28.609375 56 
Q 40.484375 56 46.34375 49.84375 
Q 52.203125 43.703125 52.203125 31.203125 
z
" id="DejaVuSans-97"/>
      <path d="M 48.6875 27.296875 
Q 48.6875 37.203125 44.609375 42.84375 
Q 40.53125 48.484375 33.40625 48.484375 
Q 26.265625 48.484375 22.1875 42.84375 
Q 18.109375 37.203125 18.109375 27.296875 
Q 18.109375 17.390625 22.1875 11.75 
Q 26.265625 6.109375 33.40625 6.109375 
Q 40.53125 6.109375 44.609375 11.75 
Q 48.6875 17.390625 48.6875 27.296875 
z
M 18.109375 46.390625 
Q 20.953125 51.265625 25.265625 53.625 
Q 29.59375 56 35.59375 56 
Q 45.5625 56 51.78125 48.09375 
Q 58.015625 40.1875 58.015625 27.296875 
Q 58.015625 14.40625 51.78125 6.484375 
Q 45.5625 -1.421875 35.59375 -1.421875 
Q 29.59375 -1.421875 25.265625 0.953125 
Q 20.953125 3.328125 18.109375 8.203125 
L 18.109375 0 
L 9.078125 0 
L 9.078125 75.984375 
L 18.109375 75.984375 
z
" id="DejaVuSans-98"/>
      <path d="M 41.109375 46.296875 
Q 39.59375 47.171875 37.8125 47.578125 
Q 36.03125 48 33.890625 48 
Q 26.265625 48 22.1875 43.046875 
Q 18.109375 38.09375 18.109375 28.8125 
L 18.109375 0 
L 9.078125 0 
L 9.078125 54.6875 
L 18.109375 54.6875 
L 18.109375 46.1875 
Q 20.953125 51.171875 25.484375 53.578125 
Q 30.03125 56 36.53125 56 
Q 37.453125 56 38.578125 55.875 
Q 39.703125 55.765625 41.0625 55.515625 
z
" id="DejaVuSans-114"/>
     </defs>
     <g transform="translate(456.919063 79.787188)scale(0.14 -0.14)">
      <use xlink:href="#DejaVuSans-116"/>
      <use x="39.208984" xlink:href="#DejaVuSans-97"/>
      <use x="100.488281" xlink:href="#DejaVuSans-98"/>
      <use x="163.964844" xlink:href="#DejaVuSans-98"/>
      <use x="227.441406" xlink:href="#DejaVuSans-97"/>
      <use x="288.720703" xlink:href="#DejaVuSans-114"/>
     </g>
    </g>
   </g>
  </g>
  <g id="axes_2">
   <g id="patch_7">
    <path d="M 36 525.24 
L 538.2 525.24 
L 538.2 402.93 
L 36 402.93 
z
" style="fill:none;"/>
   </g>
   <g id="patch_8">
    <path clip-path="url(#pea18054271)" d="M 171.509808 519.680455 
L 388.037033 519.680455 
L 388.037033 482.616818 
L 171.509808 482.616818 
z
" style="fill:#ff6384;opacity:0.5;"/>
   </g>
   <g id="patch_9">
    <path clip-path="url(#pea18054271)" d="M 211.127002 445.553182 
L 411.234929 445.553182 
L 411.234929 408.489545 
L 211.127002 408.489545 
z
" style="fill:#36a2eb;opacity:0.5;"/>
   </g>
   <g id="matplotlib.axis_1">
    <g id="xtick_1">
     <g id="line2d_3">
      <defs>
       <path d="M 0 0 
L 0 3.5 
" id="mf75e3da70e" style="stroke:#000000;stroke-width:0.8;"/>
      </defs>
      <g>
       <use style="stroke:#000000;stroke-width:0.8;" x="110.965992" xlink:href="#mf75e3da70e" y="525.24"/>
      </g>
     </g>
     <g id="text_3">
      <!-- 125 -->
      <defs>
       <path d="M 12.40625 8.296875 
L 28.515625 8.296875 
L 28.515625 63.921875 
L 10.984375 60.40625 
L 10.984375 69.390625 
L 28.421875 72.90625 
L 38.28125 72.90625 
L 38.28125 8.296875 
L 54.390625 8.296875 
L 54.390625 0 
L 12.40625 0 
z
" id="DejaVuSans-49"/>
       <path d="M 19.1875 8.296875 
L 53.609375 8.296875 
L 53.609375 0 
L 7.328125 0 
L 7.328125 8.296875 
Q 12.9375 14.109375 22.625 23.890625 
Q 32.328125 33.6875 34.8125 36.53125 
Q 39.546875 41.84375 41.421875 45.53125 
Q 43.3125 49.21875 43.3125 52.78125 
Q 43.3125 58.59375 39.234375 62.25 
Q 35.15625 65.921875 28.609375 65.921875 
Q 23.96875 65.921875 18.8125 64.3125 
Q 13.671875 62.703125 7.8125 59.421875 
L 7.8125 69.390625 
Q 13.765625 71.78125 18.9375 73 
Q 24.125 74.21875 28.421875 74.21875 
Q 39.75 74.21875 46.484375 68.546875 
Q 53.21875 62.890625 53.21875 53.421875 
Q 53.21875 48.921875 51.53125 44.890625 
Q 49.859375 40.875 45.40625 35.40625 
Q 44.1875 33.984375 37.640625 27.21875 
Q 31.109375 20.453125 19.1875 8.296875 
z
" id="DejaVuSans-50"/>
       <path d="M 10.796875 72.90625 
L 49.515625 72.90625 
L 49.515625 64.59375 
L 19.828125 64.59375 
L 19.828125 46.734375 
Q 21.96875 47.46875 24.109375 47.828125 
Q 26.265625 48.1875 28.421875 48.1875 
Q 40.625 48.1875 47.75 41.5 
Q 54.890625 34.8125 54.890625 23.390625 
Q 54.890625 11.625 47.5625 5.09375 
Q 40.234375 -1.421875 26.90625 -1.421875 
Q 22.3125 -1.421875 17.546875 -0.640625 
Q 12.796875 0.140625 7.71875 1.703125 
L 7.71875 11.625 
Q 12.109375 9.234375 16.796875 8.0625 
Q 21.484375 6.890625 26.703125 6.890625 
Q 35.15625 6.890625 40.078125 11.328125 
Q 45.015625 15.765625 45.015625 23.390625 
Q 45.015625 31 40.078125 35.4375 
Q 35.15625 39.890625 26.703125 39.890625 
Q 22.75 39.890625 18.8125 39.015625 
Q 14.890625 38.140625 10.796875 36.28125 
z
" id="DejaVuSans-53"/>
      </defs>
      <g transform="translate(97.604742 542.877813)scale(0.14 -0.14)">
       <use xlink:href="#DejaVuSans-49"/>
       <use x="63.623047" xlink:href="#DejaVuSans-50"/>
       <use x="127.246094" xlink:href="#DejaVuSans-53"/>
      </g>
     </g>
    </g>
    <g id="xtick_2">
     <g id="line2d_4">
      <g>
       <use style="stroke:#000000;stroke-width:0.8;" x="209.440767" xlink:href="#mf75e3da70e" y="525.24"/>
      </g>
     </g>
     <g id="text_4">
      <!-- 130 -->
      <defs>
       <path d="M 40.578125 39.3125 
Q 47.65625 37.796875 51.625 33 
Q 55.609375 28.21875 55.609375 21.1875 
Q 55.609375 10.40625 48.1875 4.484375 
Q 40.765625 -1.421875 27.09375 -1.421875 
Q 22.515625 -1.421875 17.65625 -0.515625 
Q 12.796875 0.390625 7.625 2.203125 
L 7.625 11.71875 
Q 11.71875 9.328125 16.59375 8.109375 
Q 21.484375 6.890625 26.8125 6.890625 
Q 36.078125 6.890625 40.9375 10.546875 
Q 45.796875 14.203125 45.796875 21.1875 
Q 45.796875 27.640625 41.28125 31.265625 
Q 36.765625 34.90625 28.71875 34.90625 
L 20.21875 34.90625 
L 20.21875 43.015625 
L 29.109375 43.015625 
Q 36.375 43.015625 40.234375 45.921875 
Q 44.09375 48.828125 44.09375 54.296875 
Q 44.09375 59.90625 40.109375 62.90625 
Q 36.140625 65.921875 28.71875 65.921875 
Q 24.65625 65.921875 20.015625 65.03125 
Q 15.375 64.15625 9.8125 62.3125 
L 9.8125 71.09375 
Q 15.4375 72.65625 20.34375 73.4375 
Q 25.25 74.21875 29.59375 74.21875 
Q 40.828125 74.21875 47.359375 69.109375 
Q 53.90625 64.015625 53.90625 55.328125 
Q 53.90625 49.265625 50.4375 45.09375 
Q 46.96875 40.921875 40.578125 39.3125 
z
" id="DejaVuSans-51"/>
       <path d="M 31.78125 66.40625 
Q 24.171875 66.40625 20.328125 58.90625 
Q 16.5 51.421875 16.5 36.375 
Q 16.5 21.390625 20.328125 13.890625 
Q 24.171875 6.390625 31.78125 6.390625 
Q 39.453125 6.390625 43.28125 13.890625 
Q 47.125 21.390625 47.125 36.375 
Q 47.125 51.421875 43.28125 58.90625 
Q 39.453125 66.40625 31.78125 66.40625 
z
M 31.78125 74.21875 
Q 44.046875 74.21875 50.515625 64.515625 
Q 56.984375 54.828125 56.984375 36.375 
Q 56.984375 17.96875 50.515625 8.265625 
Q 44.046875 -1.421875 31.78125 -1.421875 
Q 19.53125 -1.421875 13.0625 8.265625 
Q 6.59375 17.96875 6.59375 36.375 
Q 6.59375 54.828125 13.0625 64.515625 
Q 19.53125 74.21875 31.78125 74.21875 
z
" id="DejaVuSans-48"/>
      </defs>
      <g transform="translate(196.079517 542.877813)scale(0.14 -0.14)">
       <use xlink:href="#DejaVuSans-49"/>
       <use x="63.623047" xlink:href="#DejaVuSans-51"/>
       <use x="127.246094" xlink:href="#DejaVuSans-48"/>
      </g>
     </g>
    </g>
    <g id="xtick_3">
     <g id="line2d_5">
      <g>
       <use style="stroke:#000000;stroke-width:0.8;" x="307.915542" xlink:href="#mf75e3da70e" y="525.24"/>
      </g>
     </g>
     <g id="text_5">
      <!-- 135 -->
      <g transform="translate(294.554292 542.877813)scale(0.14 -0.14)">
       <use xlink:href="#DejaVuSans-49"/>
       <use x="63.623047" xlink:href="#DejaVuSans-51"/>
       <use x="127.246094" xlink:href="#DejaVuSans-53"/>
      </g>
     </g>
    </g>
    <g id="xtick_4">
     <g id="line2d_6">
      <g>
       <use style="stroke:#000000;stroke-width:0.8;" x="406.390317" xlink:href="#mf75e3da70e" y="525.24"/>
      </g>
     </g>
     <g id="text_6">
      <!-- 140 -->
      <defs>
       <path d="M 37.796875 64.3125 
L 12.890625 25.390625 
L 37.796875 25.390625 
z
M 35.203125 72.90625 
L 47.609375 72.90625 
L 47.609375 25.390625 
L 58.015625 25.390625 
L 58.015625 17.1875 
L 47.609375 17.1875 
L 47.609375 0 
L 37.796875 0 
L 37.796875 17.1875 
L 4.890625 17.1875 
L 4.890625 26.703125 
z
" id="DejaVuSans-52"/>
      </defs>
      <g transform="translate(393.029067 542.877813)scale(0.14 -0.14)">
       <use xlink:href="#DejaVuSans-49"/>
       <use x="63.623047" xlink:href="#DejaVuSans-52"/>
       <use x="127.246094" xlink:href="#DejaVuSans-48"/>
      </g>
     </g>
    </g>
    <g id="xtick_5">
     <g id="line2d_7">
      <g>
       <use style="stroke:#000000;stroke-width:0.8;" x="504.865092" xlink:href="#mf75e3da70e" y="525.24"/>
      </g>
     </g>
     <g id="text_7">
      <!-- 145 -->
      <g transform="translate(491.503842 542.877813)scale(0.14 -0.14)">
       <use xlink:href="#DejaVuSans-49"/>
       <use x="63.623047" xlink:href="#DejaVuSans-52"/>
       <use x="127.246094" xlink:href="#DejaVuSans-53"/>
      </g>
     </g>
    </g>
   </g>
   <g id="line2d_8">
    <path clip-path="url(#pea18054271)" d="M 279.773421 525.24 
L 279.773421 402.93 
" style="fill:none;stroke:#ff6384;stroke-dasharray:5.55,2.4;stroke-dashoffset:0;stroke-opacity:0.8;stroke-width:1.5;"/>
   </g>
   <g id="line2d_9">
    <path clip-path="url(#pea18054271)" d="M 311.180965 525.24 
L 311.180965 402.93 
" style="fill:none;stroke:#36a2eb;stroke-dasharray:5.55,2.4;stroke-dashoffset:0;stroke-opacity:0.8;stroke-width:1.5;"/>
   </g>
   <g id="patch_10">
    <path d="M 36 525.24 
L 538.2 525.24 
" style="fill:none;stroke:#000000;stroke-linecap:square;stroke-linejoin:miter;stroke-width:0.8;"/>
   </g>
  </g>
 </g>
 <defs>
  <clipPath id="p5b8663af58">
   <rect height="366.93" width="502.2" x="36" y="36"/>
  </clipPath>
  <clipPath id="pea18054271">
   <rect height="122.31" width="502.2" x="36" y="402.93"/>
  </clipPath>
 </defs>
</svg>
