<?xml version="1.0" encoding="utf-8" standalone="no"?>
<!DOCTYPE svg PUBLIC "-//W3C//DTD SVG 1.1//EN"
  "http://www.w3.org/Graphics/SVG/1.1/DTD/svg11.dtd">
<!-- Created with matplotlib (https://matplotlib.org/) -->
<svg height="581.789375pt" version="1.1" viewBox="0 0 574.2 581.789375" width="574.2pt" xmlns="http://www.w3.org/2000/svg" xmlns:xlink="http://www.w3.org/1999/xlink">
 <defs>
  <style type="text/css">
*{stroke-linecap:butt;stroke-linejoin:round;}
  </style>
 </defs>
 <g id="figure_1">
  <g id="patch_1">
   <path d="M 0 581.789375 
L 574.2 581.789375 
L 574.2 0 
L 0 0 
z
" style="fill:none;"/>
  </g>
  <g id="axes_1">
   <g id="patch_2">
    <path d="M 36 402.93 
L 538.2 402.93 
L 538.2 36 
L 36 36 
z
" style="fill:none;"/>
   </g>
   <g id="PolyCollection_1">
    <defs>
     <path d="M 58.827273 -195.538011 
L 58.827273 -195.650004 
L 63.029972 -195.692234 
L 67.232671 -195.749007 
L 71.435371 -195.8248 
L 75.63807 -195.925281 
L 79.840769 -196.057565 
L 84.043468 -196.230497 
L 88.246168 -196.454982 
L 92.448867 -196.744335 
L 96.651566 -197.114666 
L 100.854266 -197.585273 
L 105.056965 -198.179047 
L 109.259664 -198.922859 
L 113.462363 -199.847921 
L 117.665063 -200.990079 
L 121.867762 -202.390029 
L 126.070461 -204.093399 
L 130.273161 -206.150691 
L 134.47586 -208.617009 
L 138.678559 -211.551575 
L 142.881258 -215.016962 
L 147.083958 -219.078053 
L 151.286657 -223.800667 
L 155.489356 -229.249878 
L 159.692056 -235.488004 
L 163.894755 -242.572312 
L 168.097454 -250.552459 
L 172.300154 -259.467747 
L 176.502853 -269.344261 
L 180.705552 -280.192004 
L 184.908251 -292.002137 
L 189.110951 -304.744465 
L 193.31365 -318.365297 
L 197.516349 -332.785841 
L 201.719049 -347.901251 
L 205.921748 -363.580456 
L 210.124447 -379.666871 
L 214.327146 -395.980052 
L 218.529846 -412.31833 
L 222.732545 -428.4624 
L 226.935244 -444.179822 
L 231.137944 -459.230303 
L 235.340643 -473.371627 
L 239.543342 -486.366018 
L 243.746041 -497.986726 
L 247.948741 -508.02457 
L 252.15144 -516.294181 
L 256.354139 -522.639693 
L 260.556839 -526.939623 
L 264.759538 -529.110739 
L 268.962237 -529.110739 
L 273.164936 -526.939623 
L 277.367636 -522.639693 
L 281.570335 -516.294181 
L 285.773034 -508.02457 
L 289.975734 -497.986726 
L 294.178433 -486.366018 
L 298.381132 -473.371627 
L 302.583831 -459.230303 
L 306.786531 -444.179822 
L 310.98923 -428.4624 
L 315.191929 -412.31833 
L 319.394629 -395.980052 
L 323.597328 -379.666871 
L 327.800027 -363.580456 
L 332.002726 -347.901251 
L 336.205426 -332.785841 
L 340.408125 -318.365297 
L 344.610824 -304.744465 
L 348.813524 -292.002137 
L 353.016223 -280.192004 
L 357.218922 -269.344261 
L 361.421621 -259.467747 
L 365.624321 -250.552459 
L 369.82702 -242.572312 
L 374.029719 -235.488004 
L 378.232419 -229.249878 
L 382.435118 -223.800667 
L 386.637817 -219.078053 
L 390.840516 -215.016962 
L 395.043216 -211.551575 
L 399.245915 -208.617009 
L 403.448614 -206.150691 
L 407.651314 -204.093399 
L 411.854013 -202.390029 
L 416.056712 -200.990079 
L 420.259411 -199.847921 
L 424.462111 -198.922859 
L 428.66481 -198.179047 
L 432.867509 -197.585273 
L 437.070209 -197.114666 
L 441.272908 -196.744335 
L 445.475607 -196.454982 
L 449.678307 -196.230497 
L 453.881006 -196.057565 
L 458.083705 -195.925281 
L 462.286404 -195.8248 
L 466.489104 -195.749007 
L 470.691803 -195.692234 
L 474.894502 -195.650004 
L 474.894502 -195.538011 
L 474.894502 -195.538011 
L 470.691803 -195.538011 
L 466.489104 -195.538011 
L 462.286404 -195.538011 
L 458.083705 -195.538011 
L 453.881006 -195.538011 
L 449.678307 -195.538011 
L 445.475607 -195.538011 
L 441.272908 -195.538011 
L 437.070209 -195.538011 
L 432.867509 -195.538011 
L 428.66481 -195.538011 
L 424.462111 -195.538011 
L 420.259411 -195.538011 
L 416.056712 -195.538011 
L 411.854013 -195.538011 
L 407.651314 -195.538011 
L 403.448614 -195.538011 
L 399.245915 -195.538011 
L 395.043216 -195.538011 
L 390.840516 -195.538011 
L 386.637817 -195.538011 
L 382.435118 -195.538011 
L 378.232419 -195.538011 
L 374.029719 -195.538011 
L 369.82702 -195.538011 
L 365.624321 -195.538011 
L 361.421621 -195.538011 
L 357.218922 -195.538011 
L 353.016223 -195.538011 
L 348.813524 -195.538011 
L 344.610824 -195.538011 
L 340.408125 -195.538011 
L 336.205426 -195.538011 
L 332.002726 -195.538011 
L 327.800027 -195.538011 
L 323.597328 -195.538011 
L 319.394629 -195.538011 
L 315.191929 -195.538011 
L 310.98923 -195.538011 
L 306.786531 -195.538011 
L 302.583831 -195.538011 
L 298.381132 -195.538011 
L 294.178433 -195.538011 
L 289.975734 -195.538011 
L 285.773034 -195.538011 
L 281.570335 -195.538011 
L 277.367636 -195.538011 
L 273.164936 -195.538011 
L 268.962237 -195.538011 
L 264.759538 -195.538011 
L 260.556839 -195.538011 
L 256.354139 -195.538011 
L 252.15144 -195.538011 
L 247.948741 -195.538011 
L 243.746041 -195.538011 
L 239.543342 -195.538011 
L 235.340643 -195.538011 
L 231.137944 -195.538011 
L 226.935244 -195.538011 
L 222.732545 -195.538011 
L 218.529846 -195.538011 
L 214.327146 -195.538011 
L 210.124447 -195.538011 
L 205.921748 -195.538011 
L 201.719049 -195.538011 
L 197.516349 -195.538011 
L 193.31365 -195.538011 
L 189.110951 -195.538011 
L 184.908251 -195.538011 
L 180.705552 -195.538011 
L 176.502853 -195.538011 
L 172.300154 -195.538011 
L 168.097454 -195.538011 
L 163.894755 -195.538011 
L 159.692056 -195.538011 
L 155.489356 -195.538011 
L 151.286657 -195.538011 
L 147.083958 -195.538011 
L 142.881258 -195.538011 
L 138.678559 -195.538011 
L 134.47586 -195.538011 
L 130.273161 -195.538011 
L 126.070461 -195.538011 
L 121.867762 -195.538011 
L 117.665063 -195.538011 
L 113.462363 -195.538011 
L 109.259664 -195.538011 
L 105.056965 -195.538011 
L 100.854266 -195.538011 
L 96.651566 -195.538011 
L 92.448867 -195.538011 
L 88.246168 -195.538011 
L 84.043468 -195.538011 
L 79.840769 -195.538011 
L 75.63807 -195.538011 
L 71.435371 -195.538011 
L 67.232671 -195.538011 
L 63.029972 -195.538011 
L 58.827273 -195.538011 
z
" id="m5d20b6a161" style="stroke:#ff6384;stroke-opacity:0.5;"/>
    </defs>
    <g clip-path="url(#paa8fedac18)">
     <use style="fill:#ff6384;fill-opacity:0.5;stroke:#ff6384;stroke-opacity:0.5;" x="0" xlink:href="#m5d20b6a161" y="581.789375"/>
    </g>
   </g>
   <g id="PolyCollection_2">
    <defs>
     <path d="M 94.637047 -195.538011 
L 94.637047 -195.648761 
L 98.886903 -195.690523 
L 103.136758 -195.746666 
L 107.386614 -195.821618 
L 111.636469 -195.920984 
L 115.886324 -196.0518 
L 120.13618 -196.222813 
L 124.386035 -196.444807 
L 128.63589 -196.73095 
L 132.885746 -197.097172 
L 137.135601 -197.562557 
L 141.385456 -198.149742 
L 145.635312 -198.885301 
L 149.885167 -199.800099 
L 154.135022 -200.929584 
L 158.384878 -202.313999 
L 162.634733 -203.998469 
L 166.884588 -206.032933 
L 171.134444 -208.471886 
L 175.384299 -211.373889 
L 179.634155 -214.800825 
L 183.88401 -218.816855 
L 188.133865 -223.487067 
L 192.383721 -228.875814 
L 196.633576 -235.044722 
L 200.883431 -242.050423 
L 205.133287 -249.942023 
L 209.383142 -258.758387 
L 213.632997 -268.525312 
L 217.882853 -279.25269 
L 222.132708 -290.931779 
L 226.382563 -303.532719 
L 230.632419 -317.002415 
L 234.882274 -331.26295 
L 239.132129 -346.21064 
L 243.381985 -361.71587 
L 247.63184 -377.623791 
L 251.881695 -393.755963 
L 256.131551 -409.912952 
L 260.381406 -425.877889 
L 264.631262 -441.420911 
L 268.881117 -456.304394 
L 273.130972 -470.288807 
L 277.380828 -483.139013 
L 281.630683 -494.630779 
L 285.880538 -504.557243 
L 290.130394 -512.735096 
L 294.380249 -519.010199 
L 298.630104 -523.262417 
L 302.87996 -525.409442 
L 307.129815 -525.409442 
L 311.37967 -523.262417 
L 315.629526 -519.010199 
L 319.879381 -512.735096 
L 324.129236 -504.557243 
L 328.379092 -494.630779 
L 332.628947 -483.139013 
L 336.878803 -470.288807 
L 341.128658 -456.304394 
L 345.378513 -441.420911 
L 349.628369 -425.877889 
L 353.878224 -409.912952 
L 358.128079 -393.755963 
L 362.377935 -377.623791 
L 366.62779 -361.71587 
L 370.877645 -346.21064 
L 375.127501 -331.26295 
L 379.377356 -317.002415 
L 383.627211 -303.532719 
L 387.877067 -290.931779 
L 392.126922 -279.25269 
L 396.376777 -268.525312 
L 400.626633 -258.758387 
L 404.876488 -249.942023 
L 409.126343 -242.050423 
L 413.376199 -235.044722 
L 417.626054 -228.875814 
L 421.87591 -223.487067 
L 426.125765 -218.816855 
L 430.37562 -214.800825 
L 434.625476 -211.373889 
L 438.875331 -208.471886 
L 443.125186 -206.032933 
L 447.375042 -203.998469 
L 451.624897 -202.313999 
L 455.874752 -200.929584 
L 460.124608 -199.800099 
L 464.374463 -198.885301 
L 468.624318 -198.149742 
L 472.874174 -197.562557 
L 477.124029 -197.097172 
L 481.373884 -196.73095 
L 485.62374 -196.444807 
L 489.873595 -196.222813 
L 494.123451 -196.0518 
L 498.373306 -195.920984 
L 502.623161 -195.821618 
L 506.873017 -195.746666 
L 511.122872 -195.690523 
L 515.372727 -195.648761 
L 515.372727 -195.538011 
L 515.372727 -195.538011 
L 511.122872 -195.538011 
L 506.873017 -195.538011 
L 502.623161 -195.538011 
L 498.373306 -195.538011 
L 494.123451 -195.538011 
L 489.873595 -195.538011 
L 485.62374 -195.538011 
L 481.373884 -195.538011 
L 477.124029 -195.538011 
L 472.874174 -195.538011 
L 468.624318 -195.538011 
L 464.374463 -195.538011 
L 460.124608 -195.538011 
L 455.874752 -195.538011 
L 451.624897 -195.538011 
L 447.375042 -195.538011 
L 443.125186 -195.538011 
L 438.875331 -195.538011 
L 434.625476 -195.538011 
L 430.37562 -195.538011 
L 426.125765 -195.538011 
L 421.87591 -195.538011 
L 417.626054 -195.538011 
L 413.376199 -195.538011 
L 409.126343 -195.538011 
L 404.876488 -195.538011 
L 400.626633 -195.538011 
L 396.376777 -195.538011 
L 392.126922 -195.538011 
L 387.877067 -195.538011 
L 383.627211 -195.538011 
L 379.377356 -195.538011 
L 375.127501 -195.538011 
L 370.877645 -195.538011 
L 366.62779 -195.538011 
L 362.377935 -195.538011 
L 358.128079 -195.538011 
L 353.878224 -195.538011 
L 349.628369 -195.538011 
L 345.378513 -195.538011 
L 341.128658 -195.538011 
L 336.878803 -195.538011 
L 332.628947 -195.538011 
L 328.379092 -195.538011 
L 324.129236 -195.538011 
L 319.879381 -195.538011 
L 315.629526 -195.538011 
L 311.37967 -195.538011 
L 307.129815 -195.538011 
L 302.87996 -195.538011 
L 298.630104 -195.538011 
L 294.380249 -195.538011 
L 290.130394 -195.538011 
L 285.880538 -195.538011 
L 281.630683 -195.538011 
L 277.380828 -195.538011 
L 273.130972 -195.538011 
L 268.881117 -195.538011 
L 264.631262 -195.538011 
L 260.381406 -195.538011 
L 256.131551 -195.538011 
L 251.881695 -195.538011 
L 247.63184 -195.538011 
L 243.381985 -195.538011 
L 239.132129 -195.538011 
L 234.882274 -195.538011 
L 230.632419 -195.538011 
L 226.382563 -195.538011 
L 222.132708 -195.538011 
L 217.882853 -195.538011 
L 213.632997 -195.538011 
L 209.383142 -195.538011 
L 205.133287 -195.538011 
L 200.883431 -195.538011 
L 196.633576 -195.538011 
L 192.383721 -195.538011 
L 188.133865 -195.538011 
L 183.88401 -195.538011 
L 179.634155 -195.538011 
L 175.384299 -195.538011 
L 171.134444 -195.538011 
L 166.884588 -195.538011 
L 162.634733 -195.538011 
L 158.384878 -195.538011 
L 154.135022 -195.538011 
L 149.885167 -195.538011 
L 145.635312 -195.538011 
L 141.385456 -195.538011 
L 137.135601 -195.538011 
L 132.885746 -195.538011 
L 128.63589 -195.538011 
L 124.386035 -195.538011 
L 120.13618 -195.538011 
L 115.886324 -195.538011 
L 111.636469 -195.538011 
L 107.386614 -195.538011 
L 103.136758 -195.538011 
L 98.886903 -195.538011 
L 94.637047 -195.538011 
z
" id="ma7e827780d" style="stroke:#36a2eb;stroke-opacity:0.5;"/>
    </defs>
    <g clip-path="url(#paa8fedac18)">
     <use style="fill:#36a2eb;fill-opacity:0.5;stroke:#36a2eb;stroke-opacity:0.5;" x="0" xlink:href="#ma7e827780d" y="581.789375"/>
    </g>
   </g>
   <g id="line2d_1">
    <path clip-path="url(#paa8fedac18)" d="M 58.827273 386.139371 
L 63.029972 386.097141 
L 67.232671 386.040368 
L 71.435371 385.964575 
L 75.63807 385.864094 
L 79.840769 385.73181 
L 84.043468 385.558878 
L 88.246168 385.334393 
L 92.448867 385.04504 
L 96.651566 384.674709 
L 100.854266 384.204102 
L 105.056965 383.610328 
L 109.259664 382.866516 
L 113.462363 381.941454 
L 117.665063 380.799296 
L 121.867762 379.399346 
L 126.070461 377.695976 
L 130.273161 375.638684 
L 134.47586 373.172366 
L 138.678559 370.2378 
L 142.881258 366.772413 
L 147.083958 362.711322 
L 151.286657 357.988708 
L 155.489356 352.539497 
L 159.692056 346.301371 
L 163.894755 339.217063 
L 168.097454 331.236916 
L 172.300154 322.321628 
L 176.502853 312.445114 
L 180.705552 301.597371 
L 184.908251 289.787238 
L 189.110951 277.04491 
L 193.31365 263.424078 
L 197.516349 249.003534 
L 201.719049 233.888124 
L 205.921748 218.208919 
L 210.124447 202.122504 
L 214.327146 185.809323 
L 218.529846 169.471045 
L 222.732545 153.326975 
L 226.935244 137.609553 
L 231.137944 122.559072 
L 235.340643 108.417748 
L 239.543342 95.423357 
L 243.746041 83.802649 
L 247.948741 73.764805 
L 252.15144 65.495194 
L 256.354139 59.149682 
L 260.556839 54.849752 
L 264.759538 52.678636 
L 268.962237 52.678636 
L 273.164936 54.849752 
L 277.367636 59.149682 
L 281.570335 65.495194 
L 285.773034 73.764805 
L 289.975734 83.802649 
L 294.178433 95.423357 
L 298.381132 108.417748 
L 302.583831 122.559072 
L 306.786531 137.609553 
L 310.98923 153.326975 
L 315.191929 169.471045 
L 319.394629 185.809323 
L 323.597328 202.122504 
L 327.800027 218.208919 
L 332.002726 233.888124 
L 336.205426 249.003534 
L 340.408125 263.424078 
L 344.610824 277.04491 
L 348.813524 289.787238 
L 353.016223 301.597371 
L 357.218922 312.445114 
L 361.421621 322.321628 
L 365.624321 331.236916 
L 369.82702 339.217063 
L 374.029719 346.301371 
L 378.232419 352.539497 
L 382.435118 357.988708 
L 386.637817 362.711322 
L 390.840516 366.772413 
L 395.043216 370.2378 
L 399.245915 373.172366 
L 403.448614 375.638684 
L 407.651314 377.695976 
L 411.854013 379.399346 
L 416.056712 380.799296 
L 420.259411 381.941454 
L 424.462111 382.866516 
L 428.66481 383.610328 
L 432.867509 384.204102 
L 437.070209 384.674709 
L 441.272908 385.04504 
L 445.475607 385.334393 
L 449.678307 385.558878 
L 453.881006 385.73181 
L 458.083705 385.864094 
L 462.286404 385.964575 
L 466.489104 386.040368 
L 470.691803 386.097141 
L 474.894502 386.139371 
" style="fill:none;stroke:#ff6384;stroke-linecap:square;"/>
   </g>
   <g id="line2d_2">
    <path clip-path="url(#paa8fedac18)" d="M 94.637047 386.140614 
L 98.886903 386.098852 
L 103.136758 386.042709 
L 107.386614 385.967757 
L 111.636469 385.868391 
L 115.886324 385.737575 
L 120.13618 385.566562 
L 124.386035 385.344568 
L 128.63589 385.058425 
L 132.885746 384.692203 
L 137.135601 384.226818 
L 141.385456 383.639633 
L 145.635312 382.904074 
L 149.885167 381.989276 
L 154.135022 380.859791 
L 158.384878 379.475376 
L 162.634733 377.790906 
L 166.884588 375.756442 
L 171.134444 373.317489 
L 175.384299 370.415486 
L 179.634155 366.98855 
L 183.88401 362.97252 
L 188.133865 358.302308 
L 192.383721 352.913561 
L 196.633576 346.744653 
L 200.883431 339.738952 
L 205.133287 331.847352 
L 209.383142 323.030988 
L 213.632997 313.264063 
L 217.882853 302.536685 
L 222.132708 290.857596 
L 226.382563 278.256656 
L 230.632419 264.78696 
L 234.882274 250.526425 
L 239.132129 235.578735 
L 243.381985 220.073505 
L 247.63184 204.165584 
L 251.881695 188.033412 
L 256.131551 171.876423 
L 260.381406 155.911486 
L 264.631262 140.368464 
L 268.881117 125.484981 
L 273.130972 111.500568 
L 277.380828 98.650362 
L 281.630683 87.158596 
L 285.880538 77.232132 
L 290.130394 69.054279 
L 294.380249 62.779176 
L 298.630104 58.526958 
L 302.87996 56.379933 
L 307.129815 56.379933 
L 311.37967 58.526958 
L 315.629526 62.779176 
L 319.879381 69.054279 
L 324.129236 77.232132 
L 328.379092 87.158596 
L 332.628947 98.650362 
L 336.878803 111.500568 
L 341.128658 125.484981 
L 345.378513 140.368464 
L 349.628369 155.911486 
L 353.878224 171.876423 
L 358.128079 188.033412 
L 362.377935 204.165584 
L 366.62779 220.073505 
L 370.877645 235.578735 
L 375.127501 250.526425 
L 379.377356 264.78696 
L 383.627211 278.256656 
L 387.877067 290.857596 
L 392.126922 302.536685 
L 396.376777 313.264063 
L 400.626633 323.030988 
L 404.876488 331.847352 
L 409.126343 339.738952 
L 413.376199 346.744653 
L 417.626054 352.913561 
L 421.87591 358.302308 
L 426.125765 362.97252 
L 430.37562 366.98855 
L 434.625476 370.415486 
L 438.875331 373.317489 
L 443.125186 375.756442 
L 447.375042 377.790906 
L 451.624897 379.475376 
L 455.874752 380.859791 
L 460.124608 381.989276 
L 464.374463 382.904074 
L 468.624318 383.639633 
L 472.874174 384.226818 
L 477.124029 384.692203 
L 481.373884 385.058425 
L 485.62374 385.344568 
L 489.873595 385.566562 
L 494.123451 385.737575 
L 498.373306 385.868391 
L 502.623161 385.967757 
L 506.873017 386.042709 
L 511.122872 386.098852 
L 515.372727 386.140614 
" style="fill:none;stroke:#36a2eb;stroke-linecap:square;"/>
   </g>
   <g id="patch_3">
    <path d="M 36 402.93 
L 538.2 402.93 
" style="fill:none;stroke:#000000;stroke-linecap:square;stroke-linejoin:miter;stroke-width:0.8;"/>
   </g>
   <g id="legend_1">
    <g id="patch_4">
     <path d="M 414.919063 88.29875 
L 528.4 88.29875 
Q 531.2 88.29875 531.2 85.49875 
L 531.2 45.8 
Q 531.2 43 528.4 43 
L 414.919063 43 
Q 412.119063 43 412.119063 45.8 
L 412.119063 85.49875 
Q 412.119063 88.29875 414.919063 88.29875 
z
" style="fill:#ffffff;opacity:0.8;stroke:#cccccc;stroke-linejoin:miter;"/>
    </g>
    <g id="patch_5">
     <path d="M 417.719063 59.237813 
L 445.719063 59.237813 
L 445.719063 49.437813 
L 417.719063 49.437813 
z
" style="fill:#ff6384;opacity:0.5;stroke:#ff6384;stroke-linejoin:miter;"/>
    </g>
    <g id="text_1">
     <!-- sidemenu -->
     <defs>
      <path d="M 44.28125 53.078125 
L 44.28125 44.578125 
Q 40.484375 46.53125 36.375 47.5 
Q 32.28125 48.484375 27.875 48.484375 
Q 21.1875 48.484375 17.84375 46.4375 
Q 14.5 44.390625 14.5 40.28125 
Q 14.5 37.15625 16.890625 35.375 
Q 19.28125 33.59375 26.515625 31.984375 
L 29.59375 31.296875 
Q 39.15625 29.25 43.1875 25.515625 
Q 47.21875 21.78125 47.21875 15.09375 
Q 47.21875 7.46875 41.1875 3.015625 
Q 35.15625 -1.421875 24.609375 -1.421875 
Q 20.21875 -1.421875 15.453125 -0.5625 
Q 10.6875 0.296875 5.421875 2 
L 5.421875 11.28125 
Q 10.40625 8.6875 15.234375 7.390625 
Q 20.0625 6.109375 24.8125 6.109375 
Q 31.15625 6.109375 34.5625 8.28125 
Q 37.984375 10.453125 37.984375 14.40625 
Q 37.984375 18.0625 35.515625 20.015625 
Q 33.0625 21.96875 24.703125 23.78125 
L 21.578125 24.515625 
Q 13.234375 26.265625 9.515625 29.90625 
Q 5.8125 33.546875 5.8125 39.890625 
Q 5.8125 47.609375 11.28125 51.796875 
Q 16.75 56 26.8125 56 
Q 31.78125 56 36.171875 55.265625 
Q 40.578125 54.546875 44.28125 53.078125 
z
" id="DejaVuSans-115"/>
      <path d="M 9.421875 54.6875 
L 18.40625 54.6875 
L 18.40625 0 
L 9.421875 0 
z
M 9.421875 75.984375 
L 18.40625 75.984375 
L 18.40625 64.59375 
L 9.421875 64.59375 
z
" id="DejaVuSans-105"/>
      <path d="M 45.40625 46.390625 
L 45.40625 75.984375 
L 54.390625 75.984375 
L 54.390625 0 
L 45.40625 0 
L 45.40625 8.203125 
Q 42.578125 3.328125 38.25 0.953125 
Q 33.9375 -1.421875 27.875 -1.421875 
Q 17.96875 -1.421875 11.734375 6.484375 
Q 5.515625 14.40625 5.515625 27.296875 
Q 5.515625 40.1875 11.734375 48.09375 
Q 17.96875 56 27.875 56 
Q 33.9375 56 38.25 53.625 
Q 42.578125 51.265625 45.40625 46.390625 
z
M 14.796875 27.296875 
Q 14.796875 17.390625 18.875 11.75 
Q 22.953125 6.109375 30.078125 6.109375 
Q 37.203125 6.109375 41.296875 11.75 
Q 45.40625 17.390625 45.40625 27.296875 
Q 45.40625 37.203125 41.296875 42.84375 
Q 37.203125 48.484375 30.078125 48.484375 
Q 22.953125 48.484375 18.875 42.84375 
Q 14.796875 37.203125 14.796875 27.296875 
z
" id="DejaVuSans-100"/>
      <path d="M 56.203125 29.59375 
L 56.203125 25.203125 
L 14.890625 25.203125 
Q 15.484375 15.921875 20.484375 11.0625 
Q 25.484375 6.203125 34.421875 6.203125 
Q 39.59375 6.203125 44.453125 7.46875 
Q 49.3125 8.734375 54.109375 11.28125 
L 54.109375 2.78125 
Q 49.265625 0.734375 44.1875 -0.34375 
Q 39.109375 -1.421875 33.890625 -1.421875 
Q 20.796875 -1.421875 13.15625 6.1875 
Q 5.515625 13.8125 5.515625 26.8125 
Q 5.515625 40.234375 12.765625 48.109375 
Q 20.015625 56 32.328125 56 
Q 43.359375 56 49.78125 48.890625 
Q 56.203125 41.796875 56.203125 29.59375 
z
M 47.21875 32.234375 
Q 47.125 39.59375 43.09375 43.984375 
Q 39.0625 48.390625 32.421875 48.390625 
Q 24.90625 48.390625 20.390625 44.140625 
Q 15.875 39.890625 15.1875 32.171875 
z
" id="DejaVuSans-101"/>
      <path d="M 52 44.1875 
Q 55.375 50.25 60.0625 53.125 
Q 64.75 56 71.09375 56 
Q 79.640625 56 84.28125 50.015625 
Q 88.921875 44.046875 88.921875 33.015625 
L 88.921875 0 
L 79.890625 0 
L 79.890625 32.71875 
Q 79.890625 40.578125 77.09375 44.375 
Q 74.3125 48.1875 68.609375 48.1875 
Q 61.625 48.1875 57.5625 43.546875 
Q 53.515625 38.921875 53.515625 30.90625 
L 53.515625 0 
L 44.484375 0 
L 44.484375 32.71875 
Q 44.484375 40.625 41.703125 44.40625 
Q 38.921875 48.1875 33.109375 48.1875 
Q 26.21875 48.1875 22.15625 43.53125 
Q 18.109375 38.875 18.109375 30.90625 
L 18.109375 0 
L 9.078125 0 
L 9.078125 54.6875 
L 18.109375 54.6875 
L 18.109375 46.1875 
Q 21.1875 51.21875 25.484375 53.609375 
Q 29.78125 56 35.6875 56 
Q 41.65625 56 45.828125 52.96875 
Q 50 49.953125 52 44.1875 
z
" id="DejaVuSans-109"/>
      <path d="M 54.890625 33.015625 
L 54.890625 0 
L 45.90625 0 
L 45.90625 32.71875 
Q 45.90625 40.484375 42.875 44.328125 
Q 39.84375 48.1875 33.796875 48.1875 
Q 26.515625 48.1875 22.3125 43.546875 
Q 18.109375 38.921875 18.109375 30.90625 
L 18.109375 0 
L 9.078125 0 
L 9.078125 54.6875 
L 18.109375 54.6875 
L 18.109375 46.1875 
Q 21.34375 51.125 25.703125 53.5625 
Q 30.078125 56 35.796875 56 
Q 45.21875 56 50.046875 50.171875 
Q 54.890625 44.34375 54.890625 33.015625 
z
" id="DejaVuSans-110"/>
      <path d="M 8.5 21.578125 
L 8.5 54.6875 
L 17.484375 54.6875 
L 17.484375 21.921875 
Q 17.484375 14.15625 20.5 10.265625 
Q 23.53125 6.390625 29.59375 6.390625 
Q 36.859375 6.390625 41.078125 11.03125 
Q 45.3125 15.671875 45.3125 23.6875 
L 45.3125 54.6875 
L 54.296875 54.6875 
L 54.296875 0 
L 45.3125 0 
L 45.3125 8.40625 
Q 42.046875 3.421875 37.71875 1 
Q 33.40625 -1.421875 27.6875 -1.421875 
Q 18.265625 -1.421875 13.375 4.4375 
Q 8.5 10.296875 8.5 21.578125 
z
M 31.109375 56 
z
" id="DejaVuSans-117"/>
     </defs>
     <g transform="translate(456.919063 59.237813)scale(0.14 -0.14)">
      <use xlink:href="#DejaVuSans-115"/>
      <use x="52.099609" xlink:href="#DejaVuSans-105"/>
      <use x="79.882812" xlink:href="#DejaVuSans-100"/>
      <use x="143.359375" xlink:href="#DejaVuSans-101"/>
      <use x="204.882812" xlink:href="#DejaVuSans-109"/>
      <use x="302.294922" xlink:href="#DejaVuSans-101"/>
      <use x="363.818359" xlink:href="#DejaVuSans-110"/>
      <use x="427.197266" xlink:href="#DejaVuSans-117"/>
     </g>
    </g>
    <g id="patch_6">
     <path d="M 417.719063 79.787188 
L 445.719063 79.787188 
L 445.719063 69.987188 
L 417.719063 69.987188 
z
" style="fill:#36a2eb;opacity:0.5;stroke:#36a2eb;stroke-linejoin:miter;"/>
    </g>
    <g id="text_2">
     <!-- tabbar -->
     <defs>
      <path d="M 18.3125 70.21875 
L 18.3125 54.6875 
L 36.8125 54.6875 
L 36.8125 47.703125 
L 18.3125 47.703125 
L 18.3125 18.015625 
Q 18.3125 11.328125 20.140625 9.421875 
Q 21.96875 7.515625 27.59375 7.515625 
L 36.8125 7.515625 
L 36.8125 0 
L 27.59375 0 
Q 17.1875 0 13.234375 3.875 
Q 9.28125 7.765625 9.28125 18.015625 
L 9.28125 47.703125 
L 2.6875 47.703125 
L 2.6875 54.6875 
L 9.28125 54.6875 
L 9.28125 70.21875 
z
" id="DejaVuSans-116"/>
      <path d="M 34.28125 27.484375 
Q 23.390625 27.484375 19.1875 25 
Q 14.984375 22.515625 14.984375 16.5 
Q 14.984375 11.71875 18.140625 8.90625 
Q 21.296875 6.109375 26.703125 6.109375 
Q 34.1875 6.109375 38.703125 11.40625 
Q 43.21875 16.703125 43.21875 25.484375 
L 43.21875 27.484375 
z
M 52.203125 31.203125 
L 52.203125 0 
L 43.21875 0 
L 43.21875 8.296875 
Q 40.140625 3.328125 35.546875 0.953125 
Q 30.953125 -1.421875 24.3125 -1.421875 
Q 15.921875 -1.421875 10.953125 3.296875 
Q 6 8.015625 6 15.921875 
Q 6 25.140625 12.171875 29.828125 
Q 18.359375 34.515625 30.609375 34.515625 
L 43.21875 34.515625 
L 43.21875 35.40625 
Q 43.21875 41.609375 39.140625 45 
Q 35.0625 48.390625 27.6875 48.390625 
Q 23 48.390625 18.546875 47.265625 
Q 14.109375 46.140625 10.015625 43.890625 
L 10.015625 52.203125 
Q 14.9375 54.109375 19.578125 55.046875 
Q 24.21875 56 28.609375 56 
Q 40.484375 56 46.34375 49.84375 
Q 52.203125 43.703125 52.203125 31.203125 
z
" id="DejaVuSans-97"/>
      <path d="M 48.6875 27.296875 
Q 48.6875 37.203125 44.609375 42.84375 
Q 40.53125 48.484375 33.40625 48.484375 
Q 26.265625 48.484375 22.1875 42.84375 
Q 18.109375 37.203125 18.109375 27.296875 
Q 18.109375 17.390625 22.1875 11.75 
Q 26.265625 6.109375 33.40625 6.109375 
Q 40.53125 6.109375 44.609375 11.75 
Q 48.6875 17.390625 48.6875 27.296875 
z
M 18.109375 46.390625 
Q 20.953125 51.265625 25.265625 53.625 
Q 29.59375 56 35.59375 56 
Q 45.5625 56 51.78125 48.09375 
Q 58.015625 40.1875 58.015625 27.296875 
Q 58.015625 14.40625 51.78125 6.484375 
Q 45.5625 -1.421875 35.59375 -1.421875 
Q 29.59375 -1.421875 25.265625 0.953125 
Q 20.953125 3.328125 18.109375 8.203125 
L 18.109375 0 
L 9.078125 0 
L 9.078125 75.984375 
L 18.109375 75.984375 
z
" id="DejaVuSans-98"/>
      <path d="M 41.109375 46.296875 
Q 39.59375 47.171875 37.8125 47.578125 
Q 36.03125 48 33.890625 48 
Q 26.265625 48 22.1875 43.046875 
Q 18.109375 38.09375 18.109375 28.8125 
L 18.109375 0 
L 9.078125 0 
L 9.078125 54.6875 
L 18.109375 54.6875 
L 18.109375 46.1875 
Q 20.953125 51.171875 25.484375 53.578125 
Q 30.03125 56 36.53125 56 
Q 37.453125 56 38.578125 55.875 
Q 39.703125 55.765625 41.0625 55.515625 
z
" id="DejaVuSans-114"/>
     </defs>
     <g transform="translate(456.919063 79.787188)scale(0.14 -0.14)">
      <use xlink:href="#DejaVuSans-116"/>
      <use x="39.208984" xlink:href="#DejaVuSans-97"/>
      <use x="100.488281" xlink:href="#DejaVuSans-98"/>
      <use x="163.964844" xlink:href="#DejaVuSans-98"/>
      <use x="227.441406" xlink:href="#DejaVuSans-97"/>
      <use x="288.720703" xlink:href="#DejaVuSans-114"/>
     </g>
    </g>
   </g>
  </g>
  <g id="axes_2">
   <g id="patch_7">
    <path d="M 36 525.24 
L 538.2 525.24 
L 538.2 402.93 
L 36 402.93 
z
" style="fill:none;"/>
   </g>
   <g id="patch_8">
    <path clip-path="url(#p7351e354a8)" d="M 164.924416 519.680455 
L 368.797359 519.680455 
L 368.797359 482.616818 
L 164.924416 482.616818 
z
" style="fill:#ff6384;opacity:0.5;"/>
   </g>
   <g id="patch_9">
    <path clip-path="url(#p7351e354a8)" d="M 201.924646 445.553182 
L 408.085129 445.553182 
L 408.085129 408.489545 
L 201.924646 408.489545 
z
" style="fill:#36a2eb;opacity:0.5;"/>
   </g>
   <g id="matplotlib.axis_1">
    <g id="xtick_1">
     <g id="line2d_3">
      <defs>
       <path d="M 0 0 
L 0 3.5 
" id="ma482602e74" style="stroke:#000000;stroke-width:0.8;"/>
      </defs>
      <g>
       <use style="stroke:#000000;stroke-width:0.8;" x="55.797421" xlink:href="#ma482602e74" y="525.24"/>
      </g>
     </g>
     <g id="text_3">
      <!-- 14.5 -->
      <defs>
       <path d="M 12.40625 8.296875 
L 28.515625 8.296875 
L 28.515625 63.921875 
L 10.984375 60.40625 
L 10.984375 69.390625 
L 28.421875 72.90625 
L 38.28125 72.90625 
L 38.28125 8.296875 
L 54.390625 8.296875 
L 54.390625 0 
L 12.40625 0 
z
" id="DejaVuSans-49"/>
       <path d="M 37.796875 64.3125 
L 12.890625 25.390625 
L 37.796875 25.390625 
z
M 35.203125 72.90625 
L 47.609375 72.90625 
L 47.609375 25.390625 
L 58.015625 25.390625 
L 58.015625 17.1875 
L 47.609375 17.1875 
L 47.609375 0 
L 37.796875 0 
L 37.796875 17.1875 
L 4.890625 17.1875 
L 4.890625 26.703125 
z
" id="DejaVuSans-52"/>
       <path d="M 10.6875 12.40625 
L 21 12.40625 
L 21 0 
L 10.6875 0 
z
" id="DejaVuSans-46"/>
       <path d="M 10.796875 72.90625 
L 49.515625 72.90625 
L 49.515625 64.59375 
L 19.828125 64.59375 
L 19.828125 46.734375 
Q 21.96875 47.46875 24.109375 47.828125 
Q 26.265625 48.1875 28.421875 48.1875 
Q 40.625 48.1875 47.75 41.5 
Q 54.890625 34.8125 54.890625 23.390625 
Q 54.890625 11.625 47.5625 5.09375 
Q 40.234375 -1.421875 26.90625 -1.421875 
Q 22.3125 -1.421875 17.546875 -0.640625 
Q 12.796875 0.140625 7.71875 1.703125 
L 7.71875 11.625 
Q 12.109375 9.234375 16.796875 8.0625 
Q 21.484375 6.890625 26.703125 6.890625 
Q 35.15625 6.890625 40.078125 11.328125 
Q 45.015625 15.765625 45.015625 23.390625 
Q 45.015625 31 40.078125 35.4375 
Q 35.15625 39.890625 26.703125 39.890625 
Q 22.75 39.890625 18.8125 39.015625 
Q 14.890625 38.140625 10.796875 36.28125 
z
" id="DejaVuSans-53"/>
      </defs>
      <g transform="translate(40.211484 542.877813)scale(0.14 -0.14)">
       <use xlink:href="#DejaVuSans-49"/>
       <use x="63.623047" xlink:href="#DejaVuSans-52"/>
       <use x="127.246094" xlink:href="#DejaVuSans-46"/>
       <use x="159.033203" xlink:href="#DejaVuSans-53"/>
      </g>
     </g>
    </g>
    <g id="xtick_2">
     <g id="line2d_4">
      <g>
       <use style="stroke:#000000;stroke-width:0.8;" x="119.370755" xlink:href="#ma482602e74" y="525.24"/>
      </g>
     </g>
     <g id="text_4">
      <!-- 15.0 -->
      <defs>
       <path d="M 31.78125 66.40625 
Q 24.171875 66.40625 20.328125 58.90625 
Q 16.5 51.421875 16.5 36.375 
Q 16.5 21.390625 20.328125 13.890625 
Q 24.171875 6.390625 31.78125 6.390625 
Q 39.453125 6.390625 43.28125 13.890625 
Q 47.125 21.390625 47.125 36.375 
Q 47.125 51.421875 43.28125 58.90625 
Q 39.453125 66.40625 31.78125 66.40625 
z
M 31.78125 74.21875 
Q 44.046875 74.21875 50.515625 64.515625 
Q 56.984375 54.828125 56.984375 36.375 
Q 56.984375 17.96875 50.515625 8.265625 
Q 44.046875 -1.421875 31.78125 -1.421875 
Q 19.53125 -1.421875 13.0625 8.265625 
Q 6.59375 17.96875 6.59375 36.375 
Q 6.59375 54.828125 13.0625 64.515625 
Q 19.53125 74.21875 31.78125 74.21875 
z
" id="DejaVuSans-48"/>
      </defs>
      <g transform="translate(103.784817 542.877813)scale(0.14 -0.14)">
       <use xlink:href="#DejaVuSans-49"/>
       <use x="63.623047" xlink:href="#DejaVuSans-53"/>
       <use x="127.246094" xlink:href="#DejaVuSans-46"/>
       <use x="159.033203" xlink:href="#DejaVuSans-48"/>
      </g>
     </g>
    </g>
    <g id="xtick_3">
     <g id="line2d_5">
      <g>
       <use style="stroke:#000000;stroke-width:0.8;" x="182.944088" xlink:href="#ma482602e74" y="525.24"/>
      </g>
     </g>
     <g id="text_5">
      <!-- 15.5 -->
      <g transform="translate(167.35815 542.877813)scale(0.14 -0.14)">
       <use xlink:href="#DejaVuSans-49"/>
       <use x="63.623047" xlink:href="#DejaVuSans-53"/>
       <use x="127.246094" xlink:href="#DejaVuSans-46"/>
       <use x="159.033203" xlink:href="#DejaVuSans-53"/>
      </g>
     </g>
    </g>
    <g id="xtick_4">
     <g id="line2d_6">
      <g>
       <use style="stroke:#000000;stroke-width:0.8;" x="246.517421" xlink:href="#ma482602e74" y="525.24"/>
      </g>
     </g>
     <g id="text_6">
      <!-- 16.0 -->
      <defs>
       <path d="M 33.015625 40.375 
Q 26.375 40.375 22.484375 35.828125 
Q 18.609375 31.296875 18.609375 23.390625 
Q 18.609375 15.53125 22.484375 10.953125 
Q 26.375 6.390625 33.015625 6.390625 
Q 39.65625 6.390625 43.53125 10.953125 
Q 47.40625 15.53125 47.40625 23.390625 
Q 47.40625 31.296875 43.53125 35.828125 
Q 39.65625 40.375 33.015625 40.375 
z
M 52.59375 71.296875 
L 52.59375 62.3125 
Q 48.875 64.0625 45.09375 64.984375 
Q 41.3125 65.921875 37.59375 65.921875 
Q 27.828125 65.921875 22.671875 59.328125 
Q 17.53125 52.734375 16.796875 39.40625 
Q 19.671875 43.65625 24.015625 45.921875 
Q 28.375 48.1875 33.59375 48.1875 
Q 44.578125 48.1875 50.953125 41.515625 
Q 57.328125 34.859375 57.328125 23.390625 
Q 57.328125 12.15625 50.6875 5.359375 
Q 44.046875 -1.421875 33.015625 -1.421875 
Q 20.359375 -1.421875 13.671875 8.265625 
Q 6.984375 17.96875 6.984375 36.375 
Q 6.984375 53.65625 15.1875 63.9375 
Q 23.390625 74.21875 37.203125 74.21875 
Q 40.921875 74.21875 44.703125 73.484375 
Q 48.484375 72.75 52.59375 71.296875 
z
" id="DejaVuSans-54"/>
      </defs>
      <g transform="translate(230.931483 542.877813)scale(0.14 -0.14)">
       <use xlink:href="#DejaVuSans-49"/>
       <use x="63.623047" xlink:href="#DejaVuSans-54"/>
       <use x="127.246094" xlink:href="#DejaVuSans-46"/>
       <use x="159.033203" xlink:href="#DejaVuSans-48"/>
      </g>
     </g>
    </g>
    <g id="xtick_5">
     <g id="line2d_7">
      <g>
       <use style="stroke:#000000;stroke-width:0.8;" x="310.090754" xlink:href="#ma482602e74" y="525.24"/>
      </g>
     </g>
     <g id="text_7">
      <!-- 16.5 -->
      <g transform="translate(294.504817 542.877813)scale(0.14 -0.14)">
       <use xlink:href="#DejaVuSans-49"/>
       <use x="63.623047" xlink:href="#DejaVuSans-54"/>
       <use x="127.246094" xlink:href="#DejaVuSans-46"/>
       <use x="159.033203" xlink:href="#DejaVuSans-53"/>
      </g>
     </g>
    </g>
    <g id="xtick_6">
     <g id="line2d_8">
      <g>
       <use style="stroke:#000000;stroke-width:0.8;" x="373.664087" xlink:href="#ma482602e74" y="525.24"/>
      </g>
     </g>
     <g id="text_8">
      <!-- 17.0 -->
      <defs>
       <path d="M 8.203125 72.90625 
L 55.078125 72.90625 
L 55.078125 68.703125 
L 28.609375 0 
L 18.3125 0 
L 43.21875 64.59375 
L 8.203125 64.59375 
z
" id="DejaVuSans-55"/>
      </defs>
      <g transform="translate(358.07815 542.877813)scale(0.14 -0.14)">
       <use xlink:href="#DejaVuSans-49"/>
       <use x="63.623047" xlink:href="#DejaVuSans-55"/>
       <use x="127.246094" xlink:href="#DejaVuSans-46"/>
       <use x="159.033203" xlink:href="#DejaVuSans-48"/>
      </g>
     </g>
    </g>
    <g id="xtick_7">
     <g id="line2d_9">
      <g>
       <use style="stroke:#000000;stroke-width:0.8;" x="437.23742" xlink:href="#ma482602e74" y="525.24"/>
      </g>
     </g>
     <g id="text_9">
      <!-- 17.5 -->
      <g transform="translate(421.651483 542.877813)scale(0.14 -0.14)">
       <use xlink:href="#DejaVuSans-49"/>
       <use x="63.623047" xlink:href="#DejaVuSans-55"/>
       <use x="127.246094" xlink:href="#DejaVuSans-46"/>
       <use x="159.033203" xlink:href="#DejaVuSans-53"/>
      </g>
     </g>
    </g>
    <g id="xtick_8">
     <g id="line2d_10">
      <g>
       <use style="stroke:#000000;stroke-width:0.8;" x="500.810754" xlink:href="#ma482602e74" y="525.24"/>
      </g>
     </g>
     <g id="text_10">
      <!-- 18.0 -->
      <defs>
       <path d="M 31.78125 34.625 
Q 24.75 34.625 20.71875 30.859375 
Q 16.703125 27.09375 16.703125 20.515625 
Q 16.703125 13.921875 20.71875 10.15625 
Q 24.75 6.390625 31.78125 6.390625 
Q 38.8125 6.390625 42.859375 10.171875 
Q 46.921875 13.96875 46.921875 20.515625 
Q 46.921875 27.09375 42.890625 30.859375 
Q 38.875 34.625 31.78125 34.625 
z
M 21.921875 38.8125 
Q 15.578125 40.375 12.03125 44.71875 
Q 8.5 49.078125 8.5 55.328125 
Q 8.5 64.0625 14.71875 69.140625 
Q 20.953125 74.21875 31.78125 74.21875 
Q 42.671875 74.21875 48.875 69.140625 
Q 55.078125 64.0625 55.078125 55.328125 
Q 55.078125 49.078125 51.53125 44.71875 
Q 48 40.375 41.703125 38.8125 
Q 48.828125 37.15625 52.796875 32.3125 
Q 56.78125 27.484375 56.78125 20.515625 
Q 56.78125 9.90625 50.3125 4.234375 
Q 43.84375 -1.421875 31.78125 -1.421875 
Q 19.734375 -1.421875 13.25 4.234375 
Q 6.78125 9.90625 6.78125 20.515625 
Q 6.78125 27.484375 10.78125 32.3125 
Q 14.796875 37.15625 21.921875 38.8125 
z
M 18.3125 54.390625 
Q 18.3125 48.734375 21.84375 45.5625 
Q 25.390625 42.390625 31.78125 42.390625 
Q 38.140625 42.390625 41.71875 45.5625 
Q 45.3125 48.734375 45.3125 54.390625 
Q 45.3125 60.0625 41.71875 63.234375 
Q 38.140625 66.40625 31.78125 66.40625 
Q 25.390625 66.40625 21.84375 63.234375 
Q 18.3125 60.0625 18.3125 54.390625 
z
" id="DejaVuSans-56"/>
      </defs>
      <g transform="translate(485.224816 542.877813)scale(0.14 -0.14)">
       <use xlink:href="#DejaVuSans-49"/>
       <use x="63.623047" xlink:href="#DejaVuSans-56"/>
       <use x="127.246094" xlink:href="#DejaVuSans-46"/>
       <use x="159.033203" xlink:href="#DejaVuSans-48"/>
      </g>
     </g>
    </g>
   </g>
   <g id="line2d_11">
    <path clip-path="url(#p7351e354a8)" d="M 266.860887 525.24 
L 266.860887 402.93 
" style="fill:none;stroke:#ff6384;stroke-dasharray:5.55,2.4;stroke-dashoffset:0;stroke-opacity:0.8;stroke-width:1.5;"/>
   </g>
   <g id="line2d_12">
    <path clip-path="url(#p7351e354a8)" d="M 305.004887 525.24 
L 305.004887 402.93 
" style="fill:none;stroke:#36a2eb;stroke-dasharray:5.55,2.4;stroke-dashoffset:0;stroke-opacity:0.8;stroke-width:1.5;"/>
   </g>
   <g id="patch_10">
    <path d="M 36 525.24 
L 538.2 525.24 
" style="fill:none;stroke:#000000;stroke-linecap:square;stroke-linejoin:miter;stroke-width:0.8;"/>
   </g>
  </g>
 </g>
 <defs>
  <clipPath id="paa8fedac18">
   <rect height="366.93" width="502.2" x="36" y="36"/>
  </clipPath>
  <clipPath id="p7351e354a8">
   <rect height="122.31" width="502.2" x="36" y="402.93"/>
  </clipPath>
 </defs>
</svg>
