<?xml version="1.0" encoding="utf-8" standalone="no"?>
<!DOCTYPE svg PUBLIC "-//W3C//DTD SVG 1.1//EN"
  "http://www.w3.org/Graphics/SVG/1.1/DTD/svg11.dtd">
<!-- Created with matplotlib (https://matplotlib.org/) -->
<svg height="591.509375pt" version="1.1" viewBox="0 0 574.2 591.509375" width="574.2pt" xmlns="http://www.w3.org/2000/svg" xmlns:xlink="http://www.w3.org/1999/xlink">
 <defs>
  <style type="text/css">
*{stroke-linecap:butt;stroke-linejoin:round;}
  </style>
 </defs>
 <g id="figure_1">
  <g id="patch_1">
   <path d="M 0 591.509375 
L 574.2 591.509375 
L 574.2 0 
L 0 0 
z
" style="fill:none;"/>
  </g>
  <g id="axes_1">
   <g id="patch_2">
    <path d="M 36 410.22 
L 538.2 410.22 
L 538.2 36 
L 36 36 
z
" style="fill:none;"/>
   </g>
   <g id="PolyCollection_1">
    <defs>
     <path d="M 58.827273 -198.299375 
L 58.827273 -198.413593 
L 63.075146 -198.456662 
L 67.323019 -198.514563 
L 71.570892 -198.591861 
L 75.818765 -198.694339 
L 80.066638 -198.829251 
L 84.314511 -199.005619 
L 88.562384 -199.234563 
L 92.810257 -199.529665 
L 97.05813 -199.907354 
L 101.306003 -200.387311 
L 105.553876 -200.992881 
L 109.801749 -201.751471 
L 114.049622 -202.694912 
L 118.297495 -203.859762 
L 122.545368 -205.287525 
L 126.793241 -207.024738 
L 131.041113 -209.122902 
L 135.288986 -211.638221 
L 139.536859 -214.631088 
L 143.784732 -218.165325 
L 148.032605 -222.3071 
L 152.280478 -227.123541 
L 156.528351 -232.681014 
L 160.776224 -239.043076 
L 165.024097 -246.268132 
L 169.27197 -254.406825 
L 173.519843 -263.499238 
L 177.767716 -273.571974 
L 182.015589 -284.635235 
L 186.263462 -296.680007 
L 190.511335 -309.675493 
L 194.759208 -323.566938 
L 199.007081 -338.273983 
L 203.254954 -353.689699 
L 207.502827 -369.680411 
L 211.7507 -386.086424 
L 215.998573 -402.723708 
L 220.246446 -419.386587 
L 224.494319 -435.8514 
L 228.742192 -451.881089 
L 232.990065 -467.230586 
L 237.237938 -481.652863 
L 241.485811 -494.905422 
L 245.733684 -506.757005 
L 249.981557 -516.994276 
L 254.22943 -525.428184 
L 258.477303 -531.899766 
L 262.725176 -536.285125 
L 266.973049 -538.499375 
L 271.220922 -538.499375 
L 275.468795 -536.285125 
L 279.716668 -531.899766 
L 283.964541 -525.428184 
L 288.212414 -516.994276 
L 292.460287 -506.757005 
L 296.70816 -494.905422 
L 300.956033 -481.652863 
L 305.203906 -467.230586 
L 309.451779 -451.881089 
L 313.699652 -435.8514 
L 317.947525 -419.386587 
L 322.195398 -402.723708 
L 326.443271 -386.086424 
L 330.691144 -369.680411 
L 334.939017 -353.689699 
L 339.18689 -338.273983 
L 343.434763 -323.566938 
L 347.682636 -309.675493 
L 351.930509 -296.680007 
L 356.178382 -284.635235 
L 360.426255 -273.571974 
L 364.674128 -263.499238 
L 368.922001 -254.406825 
L 373.169874 -246.268132 
L 377.417747 -239.043076 
L 381.66562 -232.681014 
L 385.913493 -227.123541 
L 390.161366 -222.3071 
L 394.409239 -218.165325 
L 398.657112 -214.631088 
L 402.904985 -211.638221 
L 407.152858 -209.122902 
L 411.400731 -207.024738 
L 415.648604 -205.287525 
L 419.896477 -203.859762 
L 424.14435 -202.694912 
L 428.392223 -201.751471 
L 432.640096 -200.992881 
L 436.887969 -200.387311 
L 441.135842 -199.907354 
L 445.383714 -199.529665 
L 449.631587 -199.234563 
L 453.87946 -199.005619 
L 458.127333 -198.829251 
L 462.375206 -198.694339 
L 466.623079 -198.591861 
L 470.870952 -198.514563 
L 475.118825 -198.456662 
L 479.366698 -198.413593 
L 479.366698 -198.299375 
L 479.366698 -198.299375 
L 475.118825 -198.299375 
L 470.870952 -198.299375 
L 466.623079 -198.299375 
L 462.375206 -198.299375 
L 458.127333 -198.299375 
L 453.87946 -198.299375 
L 449.631587 -198.299375 
L 445.383714 -198.299375 
L 441.135842 -198.299375 
L 436.887969 -198.299375 
L 432.640096 -198.299375 
L 428.392223 -198.299375 
L 424.14435 -198.299375 
L 419.896477 -198.299375 
L 415.648604 -198.299375 
L 411.400731 -198.299375 
L 407.152858 -198.299375 
L 402.904985 -198.299375 
L 398.657112 -198.299375 
L 394.409239 -198.299375 
L 390.161366 -198.299375 
L 385.913493 -198.299375 
L 381.66562 -198.299375 
L 377.417747 -198.299375 
L 373.169874 -198.299375 
L 368.922001 -198.299375 
L 364.674128 -198.299375 
L 360.426255 -198.299375 
L 356.178382 -198.299375 
L 351.930509 -198.299375 
L 347.682636 -198.299375 
L 343.434763 -198.299375 
L 339.18689 -198.299375 
L 334.939017 -198.299375 
L 330.691144 -198.299375 
L 326.443271 -198.299375 
L 322.195398 -198.299375 
L 317.947525 -198.299375 
L 313.699652 -198.299375 
L 309.451779 -198.299375 
L 305.203906 -198.299375 
L 300.956033 -198.299375 
L 296.70816 -198.299375 
L 292.460287 -198.299375 
L 288.212414 -198.299375 
L 283.964541 -198.299375 
L 279.716668 -198.299375 
L 275.468795 -198.299375 
L 271.220922 -198.299375 
L 266.973049 -198.299375 
L 262.725176 -198.299375 
L 258.477303 -198.299375 
L 254.22943 -198.299375 
L 249.981557 -198.299375 
L 245.733684 -198.299375 
L 241.485811 -198.299375 
L 237.237938 -198.299375 
L 232.990065 -198.299375 
L 228.742192 -198.299375 
L 224.494319 -198.299375 
L 220.246446 -198.299375 
L 215.998573 -198.299375 
L 211.7507 -198.299375 
L 207.502827 -198.299375 
L 203.254954 -198.299375 
L 199.007081 -198.299375 
L 194.759208 -198.299375 
L 190.511335 -198.299375 
L 186.263462 -198.299375 
L 182.015589 -198.299375 
L 177.767716 -198.299375 
L 173.519843 -198.299375 
L 169.27197 -198.299375 
L 165.024097 -198.299375 
L 160.776224 -198.299375 
L 156.528351 -198.299375 
L 152.280478 -198.299375 
L 148.032605 -198.299375 
L 143.784732 -198.299375 
L 139.536859 -198.299375 
L 135.288986 -198.299375 
L 131.041113 -198.299375 
L 126.793241 -198.299375 
L 122.545368 -198.299375 
L 118.297495 -198.299375 
L 114.049622 -198.299375 
L 109.801749 -198.299375 
L 105.553876 -198.299375 
L 101.306003 -198.299375 
L 97.05813 -198.299375 
L 92.810257 -198.299375 
L 88.562384 -198.299375 
L 84.314511 -198.299375 
L 80.066638 -198.299375 
L 75.818765 -198.299375 
L 71.570892 -198.299375 
L 67.323019 -198.299375 
L 63.075146 -198.299375 
L 58.827273 -198.299375 
z
" id="m46b147a2a6" style="stroke:#ff6384;stroke-opacity:0.5;"/>
    </defs>
    <g clip-path="url(#p9023e6d852)">
     <use style="fill:#ff6384;fill-opacity:0.5;stroke:#ff6384;stroke-opacity:0.5;" x="0" xlink:href="#m46b147a2a6" y="591.509375"/>
    </g>
   </g>
   <g id="PolyCollection_2">
    <defs>
     <path d="M 89.687622 -198.299375 
L 89.687622 -198.412212 
L 93.987472 -198.454761 
L 98.287321 -198.511961 
L 102.587171 -198.588326 
L 106.887021 -198.689565 
L 111.18687 -198.822846 
L 115.48672 -198.997081 
L 119.786569 -199.223259 
L 124.086419 -199.514794 
L 128.386268 -199.887917 
L 132.686118 -200.362072 
L 136.985967 -200.960322 
L 141.285817 -201.709742 
L 145.585666 -202.641779 
L 149.885516 -203.792548 
L 154.185366 -205.203052 
L 158.485215 -206.919265 
L 162.785065 -208.992068 
L 167.084914 -211.476981 
L 171.384764 -214.433671 
L 175.684613 -217.925185 
L 179.984463 -222.016894 
L 184.284312 -226.775114 
L 188.584162 -232.265409 
L 192.884011 -238.550567 
L 197.183861 -245.688286 
L 201.483711 -253.728599 
L 205.78356 -262.711102 
L 210.08341 -272.662079 
L 214.383259 -283.591607 
L 218.683109 -295.490782 
L 222.982958 -308.329179 
L 227.282808 -322.052704 
L 231.582657 -336.581971 
L 235.882507 -351.811341 
L 240.182356 -367.608758 
L 244.482206 -383.816455 
L 248.782055 -400.252628 
L 253.081905 -416.714086 
L 257.381755 -432.979873 
L 261.681604 -448.815794 
L 265.981454 -463.979747 
L 270.281303 -478.227688 
L 274.581153 -491.320049 
L 278.881002 -503.028371 
L 283.180852 -513.141893 
L 287.480701 -521.473853 
L 291.780551 -527.867206 
L 296.0804 -532.199555 
L 300.38025 -534.387039 
L 304.6801 -534.387039 
L 308.979949 -532.199555 
L 313.279799 -527.867206 
L 317.579648 -521.473853 
L 321.879498 -513.141893 
L 326.179347 -503.028371 
L 330.479197 -491.320049 
L 334.779046 -478.227688 
L 339.078896 -463.979747 
L 343.378745 -448.815794 
L 347.678595 -432.979873 
L 351.978445 -416.714086 
L 356.278294 -400.252628 
L 360.578144 -383.816455 
L 364.877993 -367.608758 
L 369.177843 -351.811341 
L 373.477692 -336.581971 
L 377.777542 -322.052704 
L 382.077391 -308.329179 
L 386.377241 -295.490782 
L 390.67709 -283.591607 
L 394.97694 -272.662079 
L 399.27679 -262.711102 
L 403.576639 -253.728599 
L 407.876489 -245.688286 
L 412.176338 -238.550567 
L 416.476188 -232.265409 
L 420.776037 -226.775114 
L 425.075887 -222.016894 
L 429.375736 -217.925185 
L 433.675586 -214.433671 
L 437.975435 -211.476981 
L 442.275285 -208.992068 
L 446.575135 -206.919265 
L 450.874984 -205.203052 
L 455.174834 -203.792548 
L 459.474683 -202.641779 
L 463.774533 -201.709742 
L 468.074382 -200.960322 
L 472.374232 -200.362072 
L 476.674081 -199.887917 
L 480.973931 -199.514794 
L 485.27378 -199.223259 
L 489.57363 -198.997081 
L 493.87348 -198.822846 
L 498.173329 -198.689565 
L 502.473179 -198.588326 
L 506.773028 -198.511961 
L 511.072878 -198.454761 
L 515.372727 -198.412212 
L 515.372727 -198.299375 
L 515.372727 -198.299375 
L 511.072878 -198.299375 
L 506.773028 -198.299375 
L 502.473179 -198.299375 
L 498.173329 -198.299375 
L 493.87348 -198.299375 
L 489.57363 -198.299375 
L 485.27378 -198.299375 
L 480.973931 -198.299375 
L 476.674081 -198.299375 
L 472.374232 -198.299375 
L 468.074382 -198.299375 
L 463.774533 -198.299375 
L 459.474683 -198.299375 
L 455.174834 -198.299375 
L 450.874984 -198.299375 
L 446.575135 -198.299375 
L 442.275285 -198.299375 
L 437.975435 -198.299375 
L 433.675586 -198.299375 
L 429.375736 -198.299375 
L 425.075887 -198.299375 
L 420.776037 -198.299375 
L 416.476188 -198.299375 
L 412.176338 -198.299375 
L 407.876489 -198.299375 
L 403.576639 -198.299375 
L 399.27679 -198.299375 
L 394.97694 -198.299375 
L 390.67709 -198.299375 
L 386.377241 -198.299375 
L 382.077391 -198.299375 
L 377.777542 -198.299375 
L 373.477692 -198.299375 
L 369.177843 -198.299375 
L 364.877993 -198.299375 
L 360.578144 -198.299375 
L 356.278294 -198.299375 
L 351.978445 -198.299375 
L 347.678595 -198.299375 
L 343.378745 -198.299375 
L 339.078896 -198.299375 
L 334.779046 -198.299375 
L 330.479197 -198.299375 
L 326.179347 -198.299375 
L 321.879498 -198.299375 
L 317.579648 -198.299375 
L 313.279799 -198.299375 
L 308.979949 -198.299375 
L 304.6801 -198.299375 
L 300.38025 -198.299375 
L 296.0804 -198.299375 
L 291.780551 -198.299375 
L 287.480701 -198.299375 
L 283.180852 -198.299375 
L 278.881002 -198.299375 
L 274.581153 -198.299375 
L 270.281303 -198.299375 
L 265.981454 -198.299375 
L 261.681604 -198.299375 
L 257.381755 -198.299375 
L 253.081905 -198.299375 
L 248.782055 -198.299375 
L 244.482206 -198.299375 
L 240.182356 -198.299375 
L 235.882507 -198.299375 
L 231.582657 -198.299375 
L 227.282808 -198.299375 
L 222.982958 -198.299375 
L 218.683109 -198.299375 
L 214.383259 -198.299375 
L 210.08341 -198.299375 
L 205.78356 -198.299375 
L 201.483711 -198.299375 
L 197.183861 -198.299375 
L 192.884011 -198.299375 
L 188.584162 -198.299375 
L 184.284312 -198.299375 
L 179.984463 -198.299375 
L 175.684613 -198.299375 
L 171.384764 -198.299375 
L 167.084914 -198.299375 
L 162.785065 -198.299375 
L 158.485215 -198.299375 
L 154.185366 -198.299375 
L 149.885516 -198.299375 
L 145.585666 -198.299375 
L 141.285817 -198.299375 
L 136.985967 -198.299375 
L 132.686118 -198.299375 
L 128.386268 -198.299375 
L 124.086419 -198.299375 
L 119.786569 -198.299375 
L 115.48672 -198.299375 
L 111.18687 -198.299375 
L 106.887021 -198.299375 
L 102.587171 -198.299375 
L 98.287321 -198.299375 
L 93.987472 -198.299375 
L 89.687622 -198.299375 
z
" id="me493379ba9" style="stroke:#36a2eb;stroke-opacity:0.5;"/>
    </defs>
    <g clip-path="url(#p9023e6d852)">
     <use style="fill:#36a2eb;fill-opacity:0.5;stroke:#36a2eb;stroke-opacity:0.5;" x="0" xlink:href="#me493379ba9" y="591.509375"/>
    </g>
   </g>
   <g id="line2d_1">
    <path clip-path="url(#p9023e6d852)" d="M 58.827273 393.095782 
L 63.075146 393.052713 
L 67.323019 392.994812 
L 71.570892 392.917514 
L 75.818765 392.815036 
L 80.066638 392.680124 
L 84.314511 392.503756 
L 88.562384 392.274812 
L 92.810257 391.97971 
L 97.05813 391.602021 
L 101.306003 391.122064 
L 105.553876 390.516494 
L 109.801749 389.757904 
L 114.049622 388.814463 
L 118.297495 387.649613 
L 122.545368 386.22185 
L 126.793241 384.484637 
L 131.041113 382.386473 
L 135.288986 379.871154 
L 139.536859 376.878287 
L 143.784732 373.34405 
L 148.032605 369.202275 
L 152.280478 364.385834 
L 156.528351 358.828361 
L 160.776224 352.466299 
L 165.024097 345.241243 
L 169.27197 337.10255 
L 173.519843 328.010137 
L 177.767716 317.937401 
L 182.015589 306.87414 
L 186.263462 294.829368 
L 190.511335 281.833882 
L 194.759208 267.942437 
L 199.007081 253.235392 
L 203.254954 237.819676 
L 207.502827 221.828964 
L 211.7507 205.422951 
L 215.998573 188.785667 
L 220.246446 172.122788 
L 224.494319 155.657975 
L 228.742192 139.628286 
L 232.990065 124.278789 
L 237.237938 109.856512 
L 241.485811 96.603953 
L 245.733684 84.75237 
L 249.981557 74.515099 
L 254.22943 66.081191 
L 258.477303 59.609609 
L 262.725176 55.22425 
L 266.973049 53.01 
L 271.220922 53.01 
L 275.468795 55.22425 
L 279.716668 59.609609 
L 283.964541 66.081191 
L 288.212414 74.515099 
L 292.460287 84.75237 
L 296.70816 96.603953 
L 300.956033 109.856512 
L 305.203906 124.278789 
L 309.451779 139.628286 
L 313.699652 155.657975 
L 317.947525 172.122788 
L 322.195398 188.785667 
L 326.443271 205.422951 
L 330.691144 221.828964 
L 334.939017 237.819676 
L 339.18689 253.235392 
L 343.434763 267.942437 
L 347.682636 281.833882 
L 351.930509 294.829368 
L 356.178382 306.87414 
L 360.426255 317.937401 
L 364.674128 328.010137 
L 368.922001 337.10255 
L 373.169874 345.241243 
L 377.417747 352.466299 
L 381.66562 358.828361 
L 385.913493 364.385834 
L 390.161366 369.202275 
L 394.409239 373.34405 
L 398.657112 376.878287 
L 402.904985 379.871154 
L 407.152858 382.386473 
L 411.400731 384.484637 
L 415.648604 386.22185 
L 419.896477 387.649613 
L 424.14435 388.814463 
L 428.392223 389.757904 
L 432.640096 390.516494 
L 436.887969 391.122064 
L 441.135842 391.602021 
L 445.383714 391.97971 
L 449.631587 392.274812 
L 453.87946 392.503756 
L 458.127333 392.680124 
L 462.375206 392.815036 
L 466.623079 392.917514 
L 470.870952 392.994812 
L 475.118825 393.052713 
L 479.366698 393.095782 
" style="fill:none;stroke:#ff6384;stroke-linecap:square;"/>
   </g>
   <g id="line2d_2">
    <path clip-path="url(#p9023e6d852)" d="M 89.687622 393.097163 
L 93.987472 393.054614 
L 98.287321 392.997414 
L 102.587171 392.921049 
L 106.887021 392.81981 
L 111.18687 392.686529 
L 115.48672 392.512294 
L 119.786569 392.286116 
L 124.086419 391.994581 
L 128.386268 391.621458 
L 132.686118 391.147303 
L 136.985967 390.549053 
L 141.285817 389.799633 
L 145.585666 388.867596 
L 149.885516 387.716827 
L 154.185366 386.306323 
L 158.485215 384.59011 
L 162.785065 382.517307 
L 167.084914 380.032394 
L 171.384764 377.075704 
L 175.684613 373.58419 
L 179.984463 369.492481 
L 184.284312 364.734261 
L 188.584162 359.243966 
L 192.884011 352.958808 
L 197.183861 345.821089 
L 201.483711 337.780776 
L 205.78356 328.798273 
L 210.08341 318.847296 
L 214.383259 307.917768 
L 218.683109 296.018593 
L 222.982958 283.180196 
L 227.282808 269.456671 
L 231.582657 254.927404 
L 235.882507 239.698034 
L 240.182356 223.900617 
L 244.482206 207.69292 
L 248.782055 191.256747 
L 253.081905 174.795289 
L 257.381755 158.529502 
L 261.681604 142.693581 
L 265.981454 127.529628 
L 270.281303 113.281687 
L 274.581153 100.189326 
L 278.881002 88.481004 
L 283.180852 78.367482 
L 287.480701 70.035522 
L 291.780551 63.642169 
L 296.0804 59.30982 
L 300.38025 57.122336 
L 304.6801 57.122336 
L 308.979949 59.30982 
L 313.279799 63.642169 
L 317.579648 70.035522 
L 321.879498 78.367482 
L 326.179347 88.481004 
L 330.479197 100.189326 
L 334.779046 113.281687 
L 339.078896 127.529628 
L 343.378745 142.693581 
L 347.678595 158.529502 
L 351.978445 174.795289 
L 356.278294 191.256747 
L 360.578144 207.69292 
L 364.877993 223.900617 
L 369.177843 239.698034 
L 373.477692 254.927404 
L 377.777542 269.456671 
L 382.077391 283.180196 
L 386.377241 296.018593 
L 390.67709 307.917768 
L 394.97694 318.847296 
L 399.27679 328.798273 
L 403.576639 337.780776 
L 407.876489 345.821089 
L 412.176338 352.958808 
L 416.476188 359.243966 
L 420.776037 364.734261 
L 425.075887 369.492481 
L 429.375736 373.58419 
L 433.675586 377.075704 
L 437.975435 380.032394 
L 442.275285 382.517307 
L 446.575135 384.59011 
L 450.874984 386.306323 
L 455.174834 387.716827 
L 459.474683 388.867596 
L 463.774533 389.799633 
L 468.074382 390.549053 
L 472.374232 391.147303 
L 476.674081 391.621458 
L 480.973931 391.994581 
L 485.27378 392.286116 
L 489.57363 392.512294 
L 493.87348 392.686529 
L 498.173329 392.81981 
L 502.473179 392.921049 
L 506.773028 392.997414 
L 511.072878 393.054614 
L 515.372727 393.097163 
" style="fill:none;stroke:#36a2eb;stroke-linecap:square;"/>
   </g>
   <g id="patch_3">
    <path d="M 36 410.22 
L 538.2 410.22 
" style="fill:none;stroke:#000000;stroke-linecap:square;stroke-linejoin:miter;stroke-width:0.8;"/>
   </g>
   <g id="legend_1">
    <g id="patch_4">
     <path d="M 414.919063 88.29875 
L 528.4 88.29875 
Q 531.2 88.29875 531.2 85.49875 
L 531.2 45.8 
Q 531.2 43 528.4 43 
L 414.919063 43 
Q 412.119063 43 412.119063 45.8 
L 412.119063 85.49875 
Q 412.119063 88.29875 414.919063 88.29875 
z
" style="fill:#ffffff;opacity:0.8;stroke:#cccccc;stroke-linejoin:miter;"/>
    </g>
    <g id="patch_5">
     <path d="M 417.719063 59.237813 
L 445.719063 59.237813 
L 445.719063 49.437813 
L 417.719063 49.437813 
z
" style="fill:#ff6384;opacity:0.5;stroke:#ff6384;stroke-linejoin:miter;"/>
    </g>
    <g id="text_1">
     <!-- sidemenu -->
     <defs>
      <path d="M 44.28125 53.078125 
L 44.28125 44.578125 
Q 40.484375 46.53125 36.375 47.5 
Q 32.28125 48.484375 27.875 48.484375 
Q 21.1875 48.484375 17.84375 46.4375 
Q 14.5 44.390625 14.5 40.28125 
Q 14.5 37.15625 16.890625 35.375 
Q 19.28125 33.59375 26.515625 31.984375 
L 29.59375 31.296875 
Q 39.15625 29.25 43.1875 25.515625 
Q 47.21875 21.78125 47.21875 15.09375 
Q 47.21875 7.46875 41.1875 3.015625 
Q 35.15625 -1.421875 24.609375 -1.421875 
Q 20.21875 -1.421875 15.453125 -0.5625 
Q 10.6875 0.296875 5.421875 2 
L 5.421875 11.28125 
Q 10.40625 8.6875 15.234375 7.390625 
Q 20.0625 6.109375 24.8125 6.109375 
Q 31.15625 6.109375 34.5625 8.28125 
Q 37.984375 10.453125 37.984375 14.40625 
Q 37.984375 18.0625 35.515625 20.015625 
Q 33.0625 21.96875 24.703125 23.78125 
L 21.578125 24.515625 
Q 13.234375 26.265625 9.515625 29.90625 
Q 5.8125 33.546875 5.8125 39.890625 
Q 5.8125 47.609375 11.28125 51.796875 
Q 16.75 56 26.8125 56 
Q 31.78125 56 36.171875 55.265625 
Q 40.578125 54.546875 44.28125 53.078125 
z
" id="DejaVuSans-115"/>
      <path d="M 9.421875 54.6875 
L 18.40625 54.6875 
L 18.40625 0 
L 9.421875 0 
z
M 9.421875 75.984375 
L 18.40625 75.984375 
L 18.40625 64.59375 
L 9.421875 64.59375 
z
" id="DejaVuSans-105"/>
      <path d="M 45.40625 46.390625 
L 45.40625 75.984375 
L 54.390625 75.984375 
L 54.390625 0 
L 45.40625 0 
L 45.40625 8.203125 
Q 42.578125 3.328125 38.25 0.953125 
Q 33.9375 -1.421875 27.875 -1.421875 
Q 17.96875 -1.421875 11.734375 6.484375 
Q 5.515625 14.40625 5.515625 27.296875 
Q 5.515625 40.1875 11.734375 48.09375 
Q 17.96875 56 27.875 56 
Q 33.9375 56 38.25 53.625 
Q 42.578125 51.265625 45.40625 46.390625 
z
M 14.796875 27.296875 
Q 14.796875 17.390625 18.875 11.75 
Q 22.953125 6.109375 30.078125 6.109375 
Q 37.203125 6.109375 41.296875 11.75 
Q 45.40625 17.390625 45.40625 27.296875 
Q 45.40625 37.203125 41.296875 42.84375 
Q 37.203125 48.484375 30.078125 48.484375 
Q 22.953125 48.484375 18.875 42.84375 
Q 14.796875 37.203125 14.796875 27.296875 
z
" id="DejaVuSans-100"/>
      <path d="M 56.203125 29.59375 
L 56.203125 25.203125 
L 14.890625 25.203125 
Q 15.484375 15.921875 20.484375 11.0625 
Q 25.484375 6.203125 34.421875 6.203125 
Q 39.59375 6.203125 44.453125 7.46875 
Q 49.3125 8.734375 54.109375 11.28125 
L 54.109375 2.78125 
Q 49.265625 0.734375 44.1875 -0.34375 
Q 39.109375 -1.421875 33.890625 -1.421875 
Q 20.796875 -1.421875 13.15625 6.1875 
Q 5.515625 13.8125 5.515625 26.8125 
Q 5.515625 40.234375 12.765625 48.109375 
Q 20.015625 56 32.328125 56 
Q 43.359375 56 49.78125 48.890625 
Q 56.203125 41.796875 56.203125 29.59375 
z
M 47.21875 32.234375 
Q 47.125 39.59375 43.09375 43.984375 
Q 39.0625 48.390625 32.421875 48.390625 
Q 24.90625 48.390625 20.390625 44.140625 
Q 15.875 39.890625 15.1875 32.171875 
z
" id="DejaVuSans-101"/>
      <path d="M 52 44.1875 
Q 55.375 50.25 60.0625 53.125 
Q 64.75 56 71.09375 56 
Q 79.640625 56 84.28125 50.015625 
Q 88.921875 44.046875 88.921875 33.015625 
L 88.921875 0 
L 79.890625 0 
L 79.890625 32.71875 
Q 79.890625 40.578125 77.09375 44.375 
Q 74.3125 48.1875 68.609375 48.1875 
Q 61.625 48.1875 57.5625 43.546875 
Q 53.515625 38.921875 53.515625 30.90625 
L 53.515625 0 
L 44.484375 0 
L 44.484375 32.71875 
Q 44.484375 40.625 41.703125 44.40625 
Q 38.921875 48.1875 33.109375 48.1875 
Q 26.21875 48.1875 22.15625 43.53125 
Q 18.109375 38.875 18.109375 30.90625 
L 18.109375 0 
L 9.078125 0 
L 9.078125 54.6875 
L 18.109375 54.6875 
L 18.109375 46.1875 
Q 21.1875 51.21875 25.484375 53.609375 
Q 29.78125 56 35.6875 56 
Q 41.65625 56 45.828125 52.96875 
Q 50 49.953125 52 44.1875 
z
" id="DejaVuSans-109"/>
      <path d="M 54.890625 33.015625 
L 54.890625 0 
L 45.90625 0 
L 45.90625 32.71875 
Q 45.90625 40.484375 42.875 44.328125 
Q 39.84375 48.1875 33.796875 48.1875 
Q 26.515625 48.1875 22.3125 43.546875 
Q 18.109375 38.921875 18.109375 30.90625 
L 18.109375 0 
L 9.078125 0 
L 9.078125 54.6875 
L 18.109375 54.6875 
L 18.109375 46.1875 
Q 21.34375 51.125 25.703125 53.5625 
Q 30.078125 56 35.796875 56 
Q 45.21875 56 50.046875 50.171875 
Q 54.890625 44.34375 54.890625 33.015625 
z
" id="DejaVuSans-110"/>
      <path d="M 8.5 21.578125 
L 8.5 54.6875 
L 17.484375 54.6875 
L 17.484375 21.921875 
Q 17.484375 14.15625 20.5 10.265625 
Q 23.53125 6.390625 29.59375 6.390625 
Q 36.859375 6.390625 41.078125 11.03125 
Q 45.3125 15.671875 45.3125 23.6875 
L 45.3125 54.6875 
L 54.296875 54.6875 
L 54.296875 0 
L 45.3125 0 
L 45.3125 8.40625 
Q 42.046875 3.421875 37.71875 1 
Q 33.40625 -1.421875 27.6875 -1.421875 
Q 18.265625 -1.421875 13.375 4.4375 
Q 8.5 10.296875 8.5 21.578125 
z
M 31.109375 56 
z
" id="DejaVuSans-117"/>
     </defs>
     <g transform="translate(456.919063 59.237813)scale(0.14 -0.14)">
      <use xlink:href="#DejaVuSans-115"/>
      <use x="52.099609" xlink:href="#DejaVuSans-105"/>
      <use x="79.882812" xlink:href="#DejaVuSans-100"/>
      <use x="143.359375" xlink:href="#DejaVuSans-101"/>
      <use x="204.882812" xlink:href="#DejaVuSans-109"/>
      <use x="302.294922" xlink:href="#DejaVuSans-101"/>
      <use x="363.818359" xlink:href="#DejaVuSans-110"/>
      <use x="427.197266" xlink:href="#DejaVuSans-117"/>
     </g>
    </g>
    <g id="patch_6">
     <path d="M 417.719063 79.787188 
L 445.719063 79.787188 
L 445.719063 69.987188 
L 417.719063 69.987188 
z
" style="fill:#36a2eb;opacity:0.5;stroke:#36a2eb;stroke-linejoin:miter;"/>
    </g>
    <g id="text_2">
     <!-- tabbar -->
     <defs>
      <path d="M 18.3125 70.21875 
L 18.3125 54.6875 
L 36.8125 54.6875 
L 36.8125 47.703125 
L 18.3125 47.703125 
L 18.3125 18.015625 
Q 18.3125 11.328125 20.140625 9.421875 
Q 21.96875 7.515625 27.59375 7.515625 
L 36.8125 7.515625 
L 36.8125 0 
L 27.59375 0 
Q 17.1875 0 13.234375 3.875 
Q 9.28125 7.765625 9.28125 18.015625 
L 9.28125 47.703125 
L 2.6875 47.703125 
L 2.6875 54.6875 
L 9.28125 54.6875 
L 9.28125 70.21875 
z
" id="DejaVuSans-116"/>
      <path d="M 34.28125 27.484375 
Q 23.390625 27.484375 19.1875 25 
Q 14.984375 22.515625 14.984375 16.5 
Q 14.984375 11.71875 18.140625 8.90625 
Q 21.296875 6.109375 26.703125 6.109375 
Q 34.1875 6.109375 38.703125 11.40625 
Q 43.21875 16.703125 43.21875 25.484375 
L 43.21875 27.484375 
z
M 52.203125 31.203125 
L 52.203125 0 
L 43.21875 0 
L 43.21875 8.296875 
Q 40.140625 3.328125 35.546875 0.953125 
Q 30.953125 -1.421875 24.3125 -1.421875 
Q 15.921875 -1.421875 10.953125 3.296875 
Q 6 8.015625 6 15.921875 
Q 6 25.140625 12.171875 29.828125 
Q 18.359375 34.515625 30.609375 34.515625 
L 43.21875 34.515625 
L 43.21875 35.40625 
Q 43.21875 41.609375 39.140625 45 
Q 35.0625 48.390625 27.6875 48.390625 
Q 23 48.390625 18.546875 47.265625 
Q 14.109375 46.140625 10.015625 43.890625 
L 10.015625 52.203125 
Q 14.9375 54.109375 19.578125 55.046875 
Q 24.21875 56 28.609375 56 
Q 40.484375 56 46.34375 49.84375 
Q 52.203125 43.703125 52.203125 31.203125 
z
" id="DejaVuSans-97"/>
      <path d="M 48.6875 27.296875 
Q 48.6875 37.203125 44.609375 42.84375 
Q 40.53125 48.484375 33.40625 48.484375 
Q 26.265625 48.484375 22.1875 42.84375 
Q 18.109375 37.203125 18.109375 27.296875 
Q 18.109375 17.390625 22.1875 11.75 
Q 26.265625 6.109375 33.40625 6.109375 
Q 40.53125 6.109375 44.609375 11.75 
Q 48.6875 17.390625 48.6875 27.296875 
z
M 18.109375 46.390625 
Q 20.953125 51.265625 25.265625 53.625 
Q 29.59375 56 35.59375 56 
Q 45.5625 56 51.78125 48.09375 
Q 58.015625 40.1875 58.015625 27.296875 
Q 58.015625 14.40625 51.78125 6.484375 
Q 45.5625 -1.421875 35.59375 -1.421875 
Q 29.59375 -1.421875 25.265625 0.953125 
Q 20.953125 3.328125 18.109375 8.203125 
L 18.109375 0 
L 9.078125 0 
L 9.078125 75.984375 
L 18.109375 75.984375 
z
" id="DejaVuSans-98"/>
      <path d="M 41.109375 46.296875 
Q 39.59375 47.171875 37.8125 47.578125 
Q 36.03125 48 33.890625 48 
Q 26.265625 48 22.1875 43.046875 
Q 18.109375 38.09375 18.109375 28.8125 
L 18.109375 0 
L 9.078125 0 
L 9.078125 54.6875 
L 18.109375 54.6875 
L 18.109375 46.1875 
Q 20.953125 51.171875 25.484375 53.578125 
Q 30.03125 56 36.53125 56 
Q 37.453125 56 38.578125 55.875 
Q 39.703125 55.765625 41.0625 55.515625 
z
" id="DejaVuSans-114"/>
     </defs>
     <g transform="translate(456.919063 79.787188)scale(0.14 -0.14)">
      <use xlink:href="#DejaVuSans-116"/>
      <use x="39.208984" xlink:href="#DejaVuSans-97"/>
      <use x="100.488281" xlink:href="#DejaVuSans-98"/>
      <use x="163.964844" xlink:href="#DejaVuSans-98"/>
      <use x="227.441406" xlink:href="#DejaVuSans-97"/>
      <use x="288.720703" xlink:href="#DejaVuSans-114"/>
     </g>
    </g>
   </g>
  </g>
  <g id="axes_2">
   <g id="patch_7">
    <path d="M 36 534.96 
L 538.2 534.96 
L 538.2 410.22 
L 36 410.22 
z
" style="fill:none;"/>
   </g>
   <g id="patch_8">
    <path clip-path="url(#p33ce23bd02)" d="M 166.064826 529.29 
L 372.129145 529.29 
L 372.129145 491.49 
L 166.064826 491.49 
z
" style="fill:#ff6384;opacity:0.5;"/>
   </g>
   <g id="patch_9">
    <path clip-path="url(#p33ce23bd02)" d="M 198.237324 453.69 
L 406.823026 453.69 
L 406.823026 415.89 
L 198.237324 415.89 
z
" style="fill:#36a2eb;opacity:0.5;"/>
   </g>
   <g id="matplotlib.axis_1">
    <g id="xtick_1">
     <g id="line2d_3">
      <defs>
       <path d="M 0 0 
L 0 3.5 
" id="m71418e38d5" style="stroke:#000000;stroke-width:0.8;"/>
      </defs>
      <g>
       <use style="stroke:#000000;stroke-width:0.8;" x="55.960404" xlink:href="#m71418e38d5" y="534.96"/>
      </g>
     </g>
     <g id="text_3">
      <!-- 9.5 -->
      <defs>
       <path d="M 10.984375 1.515625 
L 10.984375 10.5 
Q 14.703125 8.734375 18.5 7.8125 
Q 22.3125 6.890625 25.984375 6.890625 
Q 35.75 6.890625 40.890625 13.453125 
Q 46.046875 20.015625 46.78125 33.40625 
Q 43.953125 29.203125 39.59375 26.953125 
Q 35.25 24.703125 29.984375 24.703125 
Q 19.046875 24.703125 12.671875 31.3125 
Q 6.296875 37.9375 6.296875 49.421875 
Q 6.296875 60.640625 12.9375 67.421875 
Q 19.578125 74.21875 30.609375 74.21875 
Q 43.265625 74.21875 49.921875 64.515625 
Q 56.59375 54.828125 56.59375 36.375 
Q 56.59375 19.140625 48.40625 8.859375 
Q 40.234375 -1.421875 26.421875 -1.421875 
Q 22.703125 -1.421875 18.890625 -0.6875 
Q 15.09375 0.046875 10.984375 1.515625 
z
M 30.609375 32.421875 
Q 37.25 32.421875 41.125 36.953125 
Q 45.015625 41.5 45.015625 49.421875 
Q 45.015625 57.28125 41.125 61.84375 
Q 37.25 66.40625 30.609375 66.40625 
Q 23.96875 66.40625 20.09375 61.84375 
Q 16.21875 57.28125 16.21875 49.421875 
Q 16.21875 41.5 20.09375 36.953125 
Q 23.96875 32.421875 30.609375 32.421875 
z
" id="DejaVuSans-57"/>
       <path d="M 10.6875 12.40625 
L 21 12.40625 
L 21 0 
L 10.6875 0 
z
" id="DejaVuSans-46"/>
       <path d="M 10.796875 72.90625 
L 49.515625 72.90625 
L 49.515625 64.59375 
L 19.828125 64.59375 
L 19.828125 46.734375 
Q 21.96875 47.46875 24.109375 47.828125 
Q 26.265625 48.1875 28.421875 48.1875 
Q 40.625 48.1875 47.75 41.5 
Q 54.890625 34.8125 54.890625 23.390625 
Q 54.890625 11.625 47.5625 5.09375 
Q 40.234375 -1.421875 26.90625 -1.421875 
Q 22.3125 -1.421875 17.546875 -0.640625 
Q 12.796875 0.140625 7.71875 1.703125 
L 7.71875 11.625 
Q 12.109375 9.234375 16.796875 8.0625 
Q 21.484375 6.890625 26.703125 6.890625 
Q 35.15625 6.890625 40.078125 11.328125 
Q 45.015625 15.765625 45.015625 23.390625 
Q 45.015625 31 40.078125 35.4375 
Q 35.15625 39.890625 26.703125 39.890625 
Q 22.75 39.890625 18.8125 39.015625 
Q 14.890625 38.140625 10.796875 36.28125 
z
" id="DejaVuSans-53"/>
      </defs>
      <g transform="translate(44.828217 552.597813)scale(0.14 -0.14)">
       <use xlink:href="#DejaVuSans-57"/>
       <use x="63.623047" xlink:href="#DejaVuSans-46"/>
       <use x="95.410156" xlink:href="#DejaVuSans-53"/>
      </g>
     </g>
    </g>
    <g id="xtick_2">
     <g id="line2d_4">
      <g>
       <use style="stroke:#000000;stroke-width:0.8;" x="125.612882" xlink:href="#m71418e38d5" y="534.96"/>
      </g>
     </g>
     <g id="text_4">
      <!-- 10.0 -->
      <defs>
       <path d="M 12.40625 8.296875 
L 28.515625 8.296875 
L 28.515625 63.921875 
L 10.984375 60.40625 
L 10.984375 69.390625 
L 28.421875 72.90625 
L 38.28125 72.90625 
L 38.28125 8.296875 
L 54.390625 8.296875 
L 54.390625 0 
L 12.40625 0 
z
" id="DejaVuSans-49"/>
       <path d="M 31.78125 66.40625 
Q 24.171875 66.40625 20.328125 58.90625 
Q 16.5 51.421875 16.5 36.375 
Q 16.5 21.390625 20.328125 13.890625 
Q 24.171875 6.390625 31.78125 6.390625 
Q 39.453125 6.390625 43.28125 13.890625 
Q 47.125 21.390625 47.125 36.375 
Q 47.125 51.421875 43.28125 58.90625 
Q 39.453125 66.40625 31.78125 66.40625 
z
M 31.78125 74.21875 
Q 44.046875 74.21875 50.515625 64.515625 
Q 56.984375 54.828125 56.984375 36.375 
Q 56.984375 17.96875 50.515625 8.265625 
Q 44.046875 -1.421875 31.78125 -1.421875 
Q 19.53125 -1.421875 13.0625 8.265625 
Q 6.59375 17.96875 6.59375 36.375 
Q 6.59375 54.828125 13.0625 64.515625 
Q 19.53125 74.21875 31.78125 74.21875 
z
" id="DejaVuSans-48"/>
      </defs>
      <g transform="translate(110.026944 552.597813)scale(0.14 -0.14)">
       <use xlink:href="#DejaVuSans-49"/>
       <use x="63.623047" xlink:href="#DejaVuSans-48"/>
       <use x="127.246094" xlink:href="#DejaVuSans-46"/>
       <use x="159.033203" xlink:href="#DejaVuSans-48"/>
      </g>
     </g>
    </g>
    <g id="xtick_3">
     <g id="line2d_5">
      <g>
       <use style="stroke:#000000;stroke-width:0.8;" x="195.265359" xlink:href="#m71418e38d5" y="534.96"/>
      </g>
     </g>
     <g id="text_5">
      <!-- 10.5 -->
      <g transform="translate(179.679422 552.597813)scale(0.14 -0.14)">
       <use xlink:href="#DejaVuSans-49"/>
       <use x="63.623047" xlink:href="#DejaVuSans-48"/>
       <use x="127.246094" xlink:href="#DejaVuSans-46"/>
       <use x="159.033203" xlink:href="#DejaVuSans-53"/>
      </g>
     </g>
    </g>
    <g id="xtick_4">
     <g id="line2d_6">
      <g>
       <use style="stroke:#000000;stroke-width:0.8;" x="264.917837" xlink:href="#m71418e38d5" y="534.96"/>
      </g>
     </g>
     <g id="text_6">
      <!-- 11.0 -->
      <g transform="translate(249.331899 552.597813)scale(0.14 -0.14)">
       <use xlink:href="#DejaVuSans-49"/>
       <use x="63.623047" xlink:href="#DejaVuSans-49"/>
       <use x="127.246094" xlink:href="#DejaVuSans-46"/>
       <use x="159.033203" xlink:href="#DejaVuSans-48"/>
      </g>
     </g>
    </g>
    <g id="xtick_5">
     <g id="line2d_7">
      <g>
       <use style="stroke:#000000;stroke-width:0.8;" x="334.570315" xlink:href="#m71418e38d5" y="534.96"/>
      </g>
     </g>
     <g id="text_7">
      <!-- 11.5 -->
      <g transform="translate(318.984377 552.597813)scale(0.14 -0.14)">
       <use xlink:href="#DejaVuSans-49"/>
       <use x="63.623047" xlink:href="#DejaVuSans-49"/>
       <use x="127.246094" xlink:href="#DejaVuSans-46"/>
       <use x="159.033203" xlink:href="#DejaVuSans-53"/>
      </g>
     </g>
    </g>
    <g id="xtick_6">
     <g id="line2d_8">
      <g>
       <use style="stroke:#000000;stroke-width:0.8;" x="404.222792" xlink:href="#m71418e38d5" y="534.96"/>
      </g>
     </g>
     <g id="text_8">
      <!-- 12.0 -->
      <defs>
       <path d="M 19.1875 8.296875 
L 53.609375 8.296875 
L 53.609375 0 
L 7.328125 0 
L 7.328125 8.296875 
Q 12.9375 14.109375 22.625 23.890625 
Q 32.328125 33.6875 34.8125 36.53125 
Q 39.546875 41.84375 41.421875 45.53125 
Q 43.3125 49.21875 43.3125 52.78125 
Q 43.3125 58.59375 39.234375 62.25 
Q 35.15625 65.921875 28.609375 65.921875 
Q 23.96875 65.921875 18.8125 64.3125 
Q 13.671875 62.703125 7.8125 59.421875 
L 7.8125 69.390625 
Q 13.765625 71.78125 18.9375 73 
Q 24.125 74.21875 28.421875 74.21875 
Q 39.75 74.21875 46.484375 68.546875 
Q 53.21875 62.890625 53.21875 53.421875 
Q 53.21875 48.921875 51.53125 44.890625 
Q 49.859375 40.875 45.40625 35.40625 
Q 44.1875 33.984375 37.640625 27.21875 
Q 31.109375 20.453125 19.1875 8.296875 
z
" id="DejaVuSans-50"/>
      </defs>
      <g transform="translate(388.636855 552.597813)scale(0.14 -0.14)">
       <use xlink:href="#DejaVuSans-49"/>
       <use x="63.623047" xlink:href="#DejaVuSans-50"/>
       <use x="127.246094" xlink:href="#DejaVuSans-46"/>
       <use x="159.033203" xlink:href="#DejaVuSans-48"/>
      </g>
     </g>
    </g>
    <g id="xtick_7">
     <g id="line2d_9">
      <g>
       <use style="stroke:#000000;stroke-width:0.8;" x="473.87527" xlink:href="#m71418e38d5" y="534.96"/>
      </g>
     </g>
     <g id="text_9">
      <!-- 12.5 -->
      <g transform="translate(458.289332 552.597813)scale(0.14 -0.14)">
       <use xlink:href="#DejaVuSans-49"/>
       <use x="63.623047" xlink:href="#DejaVuSans-50"/>
       <use x="127.246094" xlink:href="#DejaVuSans-46"/>
       <use x="159.033203" xlink:href="#DejaVuSans-53"/>
      </g>
     </g>
    </g>
   </g>
   <g id="line2d_10">
    <path clip-path="url(#p33ce23bd02)" d="M 269.096986 534.96 
L 269.096986 410.22 
" style="fill:none;stroke:#ff6384;stroke-dasharray:5.55,2.4;stroke-dashoffset:0;stroke-opacity:0.8;stroke-width:1.5;"/>
   </g>
   <g id="line2d_11">
    <path clip-path="url(#p33ce23bd02)" d="M 302.530175 534.96 
L 302.530175 410.22 
" style="fill:none;stroke:#36a2eb;stroke-dasharray:5.55,2.4;stroke-dashoffset:0;stroke-opacity:0.8;stroke-width:1.5;"/>
   </g>
   <g id="patch_10">
    <path d="M 36 534.96 
L 538.2 534.96 
" style="fill:none;stroke:#000000;stroke-linecap:square;stroke-linejoin:miter;stroke-width:0.8;"/>
   </g>
  </g>
 </g>
 <defs>
  <clipPath id="p9023e6d852">
   <rect height="374.22" width="502.2" x="36" y="36"/>
  </clipPath>
  <clipPath id="p33ce23bd02">
   <rect height="124.74" width="502.2" x="36" y="410.22"/>
  </clipPath>
 </defs>
</svg>
