<?xml version="1.0" encoding="utf-8" standalone="no"?>
<!DOCTYPE svg PUBLIC "-//W3C//DTD SVG 1.1//EN"
  "http://www.w3.org/Graphics/SVG/1.1/DTD/svg11.dtd">
<!-- Created with matplotlib (https://matplotlib.org/) -->
<svg height="591.509375pt" version="1.1" viewBox="0 0 574.2 591.509375" width="574.2pt" xmlns="http://www.w3.org/2000/svg" xmlns:xlink="http://www.w3.org/1999/xlink">
 <defs>
  <style type="text/css">
*{stroke-linecap:butt;stroke-linejoin:round;}
  </style>
 </defs>
 <g id="figure_1">
  <g id="patch_1">
   <path d="M 0 591.509375 
L 574.2 591.509375 
L 574.2 0 
L 0 0 
z
" style="fill:none;"/>
  </g>
  <g id="axes_1">
   <g id="patch_2">
    <path d="M 36 410.22 
L 538.2 410.22 
L 538.2 36 
L 36 36 
z
" style="fill:none;"/>
   </g>
   <g id="PolyCollection_1">
    <defs>
     <path d="M 58.827273 -198.299375 
L 58.827273 -198.413593 
L 62.617353 -198.456662 
L 66.407434 -198.514563 
L 70.197514 -198.591861 
L 73.987595 -198.694339 
L 77.777675 -198.829251 
L 81.567755 -199.005619 
L 85.357836 -199.234563 
L 89.147916 -199.529665 
L 92.937997 -199.907354 
L 96.728077 -200.387311 
L 100.518158 -200.992881 
L 104.308238 -201.751471 
L 108.098319 -202.694912 
L 111.888399 -203.859762 
L 115.678479 -205.287525 
L 119.46856 -207.024738 
L 123.25864 -209.122902 
L 127.048721 -211.638221 
L 130.838801 -214.631088 
L 134.628882 -218.165325 
L 138.418962 -222.3071 
L 142.209043 -227.123541 
L 145.999123 -232.681014 
L 149.789203 -239.043076 
L 153.579284 -246.268132 
L 157.369364 -254.406825 
L 161.159445 -263.499238 
L 164.949525 -273.571974 
L 168.739606 -284.635235 
L 172.529686 -296.680007 
L 176.319767 -309.675493 
L 180.109847 -323.566938 
L 183.899928 -338.273983 
L 187.690008 -353.689699 
L 191.480088 -369.680411 
L 195.270169 -386.086424 
L 199.060249 -402.723708 
L 202.85033 -419.386587 
L 206.64041 -435.8514 
L 210.430491 -451.881089 
L 214.220571 -467.230586 
L 218.010652 -481.652863 
L 221.800732 -494.905422 
L 225.590812 -506.757005 
L 229.380893 -516.994276 
L 233.170973 -525.428184 
L 236.961054 -531.899766 
L 240.751134 -536.285125 
L 244.541215 -538.499375 
L 248.331295 -538.499375 
L 252.121376 -536.285125 
L 255.911456 -531.899766 
L 259.701536 -525.428184 
L 263.491617 -516.994276 
L 267.281697 -506.757005 
L 271.071778 -494.905422 
L 274.861858 -481.652863 
L 278.651939 -467.230586 
L 282.442019 -451.881089 
L 286.2321 -435.8514 
L 290.02218 -419.386587 
L 293.812261 -402.723708 
L 297.602341 -386.086424 
L 301.392421 -369.680411 
L 305.182502 -353.689699 
L 308.972582 -338.273983 
L 312.762663 -323.566938 
L 316.552743 -309.675493 
L 320.342824 -296.680007 
L 324.132904 -284.635235 
L 327.922985 -273.571974 
L 331.713065 -263.499238 
L 335.503145 -254.406825 
L 339.293226 -246.268132 
L 343.083306 -239.043076 
L 346.873387 -232.681014 
L 350.663467 -227.123541 
L 354.453548 -222.3071 
L 358.243628 -218.165325 
L 362.033709 -214.631088 
L 365.823789 -211.638221 
L 369.61387 -209.122902 
L 373.40395 -207.024738 
L 377.19403 -205.287525 
L 380.984111 -203.859762 
L 384.774191 -202.694912 
L 388.564272 -201.751471 
L 392.354352 -200.992881 
L 396.144433 -200.387311 
L 399.934513 -199.907354 
L 403.724594 -199.529665 
L 407.514674 -199.234563 
L 411.304754 -199.005619 
L 415.094835 -198.829251 
L 418.884915 -198.694339 
L 422.674996 -198.591861 
L 426.465076 -198.514563 
L 430.255157 -198.456662 
L 434.045237 -198.413593 
L 434.045237 -198.299375 
L 434.045237 -198.299375 
L 430.255157 -198.299375 
L 426.465076 -198.299375 
L 422.674996 -198.299375 
L 418.884915 -198.299375 
L 415.094835 -198.299375 
L 411.304754 -198.299375 
L 407.514674 -198.299375 
L 403.724594 -198.299375 
L 399.934513 -198.299375 
L 396.144433 -198.299375 
L 392.354352 -198.299375 
L 388.564272 -198.299375 
L 384.774191 -198.299375 
L 380.984111 -198.299375 
L 377.19403 -198.299375 
L 373.40395 -198.299375 
L 369.61387 -198.299375 
L 365.823789 -198.299375 
L 362.033709 -198.299375 
L 358.243628 -198.299375 
L 354.453548 -198.299375 
L 350.663467 -198.299375 
L 346.873387 -198.299375 
L 343.083306 -198.299375 
L 339.293226 -198.299375 
L 335.503145 -198.299375 
L 331.713065 -198.299375 
L 327.922985 -198.299375 
L 324.132904 -198.299375 
L 320.342824 -198.299375 
L 316.552743 -198.299375 
L 312.762663 -198.299375 
L 308.972582 -198.299375 
L 305.182502 -198.299375 
L 301.392421 -198.299375 
L 297.602341 -198.299375 
L 293.812261 -198.299375 
L 290.02218 -198.299375 
L 286.2321 -198.299375 
L 282.442019 -198.299375 
L 278.651939 -198.299375 
L 274.861858 -198.299375 
L 271.071778 -198.299375 
L 267.281697 -198.299375 
L 263.491617 -198.299375 
L 259.701536 -198.299375 
L 255.911456 -198.299375 
L 252.121376 -198.299375 
L 248.331295 -198.299375 
L 244.541215 -198.299375 
L 240.751134 -198.299375 
L 236.961054 -198.299375 
L 233.170973 -198.299375 
L 229.380893 -198.299375 
L 225.590812 -198.299375 
L 221.800732 -198.299375 
L 218.010652 -198.299375 
L 214.220571 -198.299375 
L 210.430491 -198.299375 
L 206.64041 -198.299375 
L 202.85033 -198.299375 
L 199.060249 -198.299375 
L 195.270169 -198.299375 
L 191.480088 -198.299375 
L 187.690008 -198.299375 
L 183.899928 -198.299375 
L 180.109847 -198.299375 
L 176.319767 -198.299375 
L 172.529686 -198.299375 
L 168.739606 -198.299375 
L 164.949525 -198.299375 
L 161.159445 -198.299375 
L 157.369364 -198.299375 
L 153.579284 -198.299375 
L 149.789203 -198.299375 
L 145.999123 -198.299375 
L 142.209043 -198.299375 
L 138.418962 -198.299375 
L 134.628882 -198.299375 
L 130.838801 -198.299375 
L 127.048721 -198.299375 
L 123.25864 -198.299375 
L 119.46856 -198.299375 
L 115.678479 -198.299375 
L 111.888399 -198.299375 
L 108.098319 -198.299375 
L 104.308238 -198.299375 
L 100.518158 -198.299375 
L 96.728077 -198.299375 
L 92.937997 -198.299375 
L 89.147916 -198.299375 
L 85.357836 -198.299375 
L 81.567755 -198.299375 
L 77.777675 -198.299375 
L 73.987595 -198.299375 
L 70.197514 -198.299375 
L 66.407434 -198.299375 
L 62.617353 -198.299375 
L 58.827273 -198.299375 
z
" id="m41e903015f" style="stroke:#ff6384;stroke-opacity:0.5;"/>
    </defs>
    <g clip-path="url(#p0924a80136)">
     <use style="fill:#ff6384;fill-opacity:0.5;stroke:#ff6384;stroke-opacity:0.5;" x="0" xlink:href="#m41e903015f" y="591.509375"/>
    </g>
   </g>
   <g id="PolyCollection_2">
    <defs>
     <path d="M 102.806921 -198.299375 
L 102.806921 -198.403253 
L 106.974252 -198.442424 
L 111.141583 -198.495083 
L 115.308915 -198.565384 
L 119.476246 -198.658585 
L 123.643577 -198.781283 
L 127.810909 -198.941685 
L 131.97824 -199.149905 
L 136.145572 -199.418292 
L 140.312903 -199.76179 
L 144.480234 -200.198299 
L 148.647566 -200.749049 
L 152.814897 -201.438968 
L 156.982228 -202.297003 
L 161.14956 -203.356404 
L 165.316891 -204.654917 
L 169.484223 -206.234867 
L 173.651554 -208.143094 
L 177.818885 -210.430711 
L 181.986217 -213.152647 
L 186.153548 -216.366944 
L 190.32088 -220.133782 
L 194.488211 -224.514211 
L 198.655542 -229.568589 
L 202.822874 -235.354721 
L 206.990205 -241.925723 
L 211.157536 -249.327654 
L 215.324868 -257.596969 
L 219.492199 -266.757863 
L 223.659531 -276.819614 
L 227.826862 -287.774023 
L 231.994193 -299.593083 
L 236.161525 -312.226994 
L 240.328856 -325.602672 
L 244.496188 -339.622868 
L 248.663519 -354.166009 
L 252.83085 -369.086854 
L 256.998182 -384.218035 
L 261.165513 -399.372494 
L 265.332844 -414.346818 
L 269.500176 -428.925406 
L 273.667507 -442.885378 
L 277.834839 -456.002067 
L 282.00217 -468.054927 
L 286.169501 -478.833637 
L 290.336833 -488.14417 
L 294.504164 -495.814593 
L 298.671495 -501.70033 
L 302.838827 -505.6887 
L 307.006158 -507.702504 
L 311.17349 -507.702504 
L 315.340821 -505.6887 
L 319.508152 -501.70033 
L 323.675484 -495.814593 
L 327.842815 -488.14417 
L 332.010147 -478.833637 
L 336.177478 -468.054927 
L 340.344809 -456.002067 
L 344.512141 -442.885378 
L 348.679472 -428.925406 
L 352.846803 -414.346818 
L 357.014135 -399.372494 
L 361.181466 -384.218035 
L 365.348798 -369.086854 
L 369.516129 -354.166009 
L 373.68346 -339.622868 
L 377.850792 -325.602672 
L 382.018123 -312.226994 
L 386.185454 -299.593083 
L 390.352786 -287.774023 
L 394.520117 -276.819614 
L 398.687449 -266.757863 
L 402.85478 -257.596969 
L 407.022111 -249.327654 
L 411.189443 -241.925723 
L 415.356774 -235.354721 
L 419.524106 -229.568589 
L 423.691437 -224.514211 
L 427.858768 -220.133782 
L 432.0261 -216.366944 
L 436.193431 -213.152647 
L 440.360762 -210.430711 
L 444.528094 -208.143094 
L 448.695425 -206.234867 
L 452.862757 -204.654917 
L 457.030088 -203.356404 
L 461.197419 -202.297003 
L 465.364751 -201.438968 
L 469.532082 -200.749049 
L 473.699413 -200.198299 
L 477.866745 -199.76179 
L 482.034076 -199.418292 
L 486.201408 -199.149905 
L 490.368739 -198.941685 
L 494.53607 -198.781283 
L 498.703402 -198.658585 
L 502.870733 -198.565384 
L 507.038065 -198.495083 
L 511.205396 -198.442424 
L 515.372727 -198.403253 
L 515.372727 -198.299375 
L 515.372727 -198.299375 
L 511.205396 -198.299375 
L 507.038065 -198.299375 
L 502.870733 -198.299375 
L 498.703402 -198.299375 
L 494.53607 -198.299375 
L 490.368739 -198.299375 
L 486.201408 -198.299375 
L 482.034076 -198.299375 
L 477.866745 -198.299375 
L 473.699413 -198.299375 
L 469.532082 -198.299375 
L 465.364751 -198.299375 
L 461.197419 -198.299375 
L 457.030088 -198.299375 
L 452.862757 -198.299375 
L 448.695425 -198.299375 
L 444.528094 -198.299375 
L 440.360762 -198.299375 
L 436.193431 -198.299375 
L 432.0261 -198.299375 
L 427.858768 -198.299375 
L 423.691437 -198.299375 
L 419.524106 -198.299375 
L 415.356774 -198.299375 
L 411.189443 -198.299375 
L 407.022111 -198.299375 
L 402.85478 -198.299375 
L 398.687449 -198.299375 
L 394.520117 -198.299375 
L 390.352786 -198.299375 
L 386.185454 -198.299375 
L 382.018123 -198.299375 
L 377.850792 -198.299375 
L 373.68346 -198.299375 
L 369.516129 -198.299375 
L 365.348798 -198.299375 
L 361.181466 -198.299375 
L 357.014135 -198.299375 
L 352.846803 -198.299375 
L 348.679472 -198.299375 
L 344.512141 -198.299375 
L 340.344809 -198.299375 
L 336.177478 -198.299375 
L 332.010147 -198.299375 
L 327.842815 -198.299375 
L 323.675484 -198.299375 
L 319.508152 -198.299375 
L 315.340821 -198.299375 
L 311.17349 -198.299375 
L 307.006158 -198.299375 
L 302.838827 -198.299375 
L 298.671495 -198.299375 
L 294.504164 -198.299375 
L 290.336833 -198.299375 
L 286.169501 -198.299375 
L 282.00217 -198.299375 
L 277.834839 -198.299375 
L 273.667507 -198.299375 
L 269.500176 -198.299375 
L 265.332844 -198.299375 
L 261.165513 -198.299375 
L 256.998182 -198.299375 
L 252.83085 -198.299375 
L 248.663519 -198.299375 
L 244.496188 -198.299375 
L 240.328856 -198.299375 
L 236.161525 -198.299375 
L 231.994193 -198.299375 
L 227.826862 -198.299375 
L 223.659531 -198.299375 
L 219.492199 -198.299375 
L 215.324868 -198.299375 
L 211.157536 -198.299375 
L 206.990205 -198.299375 
L 202.822874 -198.299375 
L 198.655542 -198.299375 
L 194.488211 -198.299375 
L 190.32088 -198.299375 
L 186.153548 -198.299375 
L 181.986217 -198.299375 
L 177.818885 -198.299375 
L 173.651554 -198.299375 
L 169.484223 -198.299375 
L 165.316891 -198.299375 
L 161.14956 -198.299375 
L 156.982228 -198.299375 
L 152.814897 -198.299375 
L 148.647566 -198.299375 
L 144.480234 -198.299375 
L 140.312903 -198.299375 
L 136.145572 -198.299375 
L 131.97824 -198.299375 
L 127.810909 -198.299375 
L 123.643577 -198.299375 
L 119.476246 -198.299375 
L 115.308915 -198.299375 
L 111.141583 -198.299375 
L 106.974252 -198.299375 
L 102.806921 -198.299375 
z
" id="maea896b76c" style="stroke:#36a2eb;stroke-opacity:0.5;"/>
    </defs>
    <g clip-path="url(#p0924a80136)">
     <use style="fill:#36a2eb;fill-opacity:0.5;stroke:#36a2eb;stroke-opacity:0.5;" x="0" xlink:href="#maea896b76c" y="591.509375"/>
    </g>
   </g>
   <g id="line2d_1">
    <path clip-path="url(#p0924a80136)" d="M 58.827273 393.095782 
L 62.617353 393.052713 
L 66.407434 392.994812 
L 70.197514 392.917514 
L 73.987595 392.815036 
L 77.777675 392.680124 
L 81.567755 392.503756 
L 85.357836 392.274812 
L 89.147916 391.97971 
L 92.937997 391.602021 
L 96.728077 391.122064 
L 100.518158 390.516494 
L 104.308238 389.757904 
L 108.098319 388.814463 
L 111.888399 387.649613 
L 115.678479 386.22185 
L 119.46856 384.484637 
L 123.25864 382.386473 
L 127.048721 379.871154 
L 130.838801 376.878287 
L 134.628882 373.34405 
L 138.418962 369.202275 
L 142.209043 364.385834 
L 145.999123 358.828361 
L 149.789203 352.466299 
L 153.579284 345.241243 
L 157.369364 337.10255 
L 161.159445 328.010137 
L 164.949525 317.937401 
L 168.739606 306.87414 
L 172.529686 294.829368 
L 176.319767 281.833882 
L 180.109847 267.942437 
L 183.899928 253.235392 
L 187.690008 237.819676 
L 191.480088 221.828964 
L 195.270169 205.422951 
L 199.060249 188.785667 
L 202.85033 172.122788 
L 206.64041 155.657975 
L 210.430491 139.628286 
L 214.220571 124.278789 
L 218.010652 109.856512 
L 221.800732 96.603953 
L 225.590812 84.75237 
L 229.380893 74.515099 
L 233.170973 66.081191 
L 236.961054 59.609609 
L 240.751134 55.22425 
L 244.541215 53.01 
L 248.331295 53.01 
L 252.121376 55.22425 
L 255.911456 59.609609 
L 259.701536 66.081191 
L 263.491617 74.515099 
L 267.281697 84.75237 
L 271.071778 96.603953 
L 274.861858 109.856512 
L 278.651939 124.278789 
L 282.442019 139.628286 
L 286.2321 155.657975 
L 290.02218 172.122788 
L 293.812261 188.785667 
L 297.602341 205.422951 
L 301.392421 221.828964 
L 305.182502 237.819676 
L 308.972582 253.235392 
L 312.762663 267.942437 
L 316.552743 281.833882 
L 320.342824 294.829368 
L 324.132904 306.87414 
L 327.922985 317.937401 
L 331.713065 328.010137 
L 335.503145 337.10255 
L 339.293226 345.241243 
L 343.083306 352.466299 
L 346.873387 358.828361 
L 350.663467 364.385834 
L 354.453548 369.202275 
L 358.243628 373.34405 
L 362.033709 376.878287 
L 365.823789 379.871154 
L 369.61387 382.386473 
L 373.40395 384.484637 
L 377.19403 386.22185 
L 380.984111 387.649613 
L 384.774191 388.814463 
L 388.564272 389.757904 
L 392.354352 390.516494 
L 396.144433 391.122064 
L 399.934513 391.602021 
L 403.724594 391.97971 
L 407.514674 392.274812 
L 411.304754 392.503756 
L 415.094835 392.680124 
L 418.884915 392.815036 
L 422.674996 392.917514 
L 426.465076 392.994812 
L 430.255157 393.052713 
L 434.045237 393.095782 
" style="fill:none;stroke:#ff6384;stroke-linecap:square;"/>
   </g>
   <g id="line2d_2">
    <path clip-path="url(#p0924a80136)" d="M 102.806921 393.106122 
L 106.974252 393.066951 
L 111.141583 393.014292 
L 115.308915 392.943991 
L 119.476246 392.85079 
L 123.643577 392.728092 
L 127.810909 392.56769 
L 131.97824 392.35947 
L 136.145572 392.091083 
L 140.312903 391.747585 
L 144.480234 391.311076 
L 148.647566 390.760326 
L 152.814897 390.070407 
L 156.982228 389.212372 
L 161.14956 388.152971 
L 165.316891 386.854458 
L 169.484223 385.274508 
L 173.651554 383.366281 
L 177.818885 381.078664 
L 181.986217 378.356728 
L 186.153548 375.142431 
L 190.32088 371.375593 
L 194.488211 366.995164 
L 198.655542 361.940786 
L 202.822874 356.154654 
L 206.990205 349.583652 
L 211.157536 342.181721 
L 215.324868 333.912406 
L 219.492199 324.751512 
L 223.659531 314.689761 
L 227.826862 303.735352 
L 231.994193 291.916292 
L 236.161525 279.282381 
L 240.328856 265.906703 
L 244.496188 251.886507 
L 248.663519 237.343366 
L 252.83085 222.422521 
L 256.998182 207.29134 
L 261.165513 192.136881 
L 265.332844 177.162557 
L 269.500176 162.583969 
L 273.667507 148.623997 
L 277.834839 135.507308 
L 282.00217 123.454448 
L 286.169501 112.675738 
L 290.336833 103.365205 
L 294.504164 95.694782 
L 298.671495 89.809045 
L 302.838827 85.820675 
L 307.006158 83.806871 
L 311.17349 83.806871 
L 315.340821 85.820675 
L 319.508152 89.809045 
L 323.675484 95.694782 
L 327.842815 103.365205 
L 332.010147 112.675738 
L 336.177478 123.454448 
L 340.344809 135.507308 
L 344.512141 148.623997 
L 348.679472 162.583969 
L 352.846803 177.162557 
L 357.014135 192.136881 
L 361.181466 207.29134 
L 365.348798 222.422521 
L 369.516129 237.343366 
L 373.68346 251.886507 
L 377.850792 265.906703 
L 382.018123 279.282381 
L 386.185454 291.916292 
L 390.352786 303.735352 
L 394.520117 314.689761 
L 398.687449 324.751512 
L 402.85478 333.912406 
L 407.022111 342.181721 
L 411.189443 349.583652 
L 415.356774 356.154654 
L 419.524106 361.940786 
L 423.691437 366.995164 
L 427.858768 371.375593 
L 432.0261 375.142431 
L 436.193431 378.356728 
L 440.360762 381.078664 
L 444.528094 383.366281 
L 448.695425 385.274508 
L 452.862757 386.854458 
L 457.030088 388.152971 
L 461.197419 389.212372 
L 465.364751 390.070407 
L 469.532082 390.760326 
L 473.699413 391.311076 
L 477.866745 391.747585 
L 482.034076 392.091083 
L 486.201408 392.35947 
L 490.368739 392.56769 
L 494.53607 392.728092 
L 498.703402 392.85079 
L 502.870733 392.943991 
L 507.038065 393.014292 
L 511.205396 393.066951 
L 515.372727 393.106122 
" style="fill:none;stroke:#36a2eb;stroke-linecap:square;"/>
   </g>
   <g id="patch_3">
    <path d="M 36 410.22 
L 538.2 410.22 
" style="fill:none;stroke:#000000;stroke-linecap:square;stroke-linejoin:miter;stroke-width:0.8;"/>
   </g>
   <g id="legend_1">
    <g id="patch_4">
     <path d="M 414.919063 88.29875 
L 528.4 88.29875 
Q 531.2 88.29875 531.2 85.49875 
L 531.2 45.8 
Q 531.2 43 528.4 43 
L 414.919063 43 
Q 412.119063 43 412.119063 45.8 
L 412.119063 85.49875 
Q 412.119063 88.29875 414.919063 88.29875 
z
" style="fill:#ffffff;opacity:0.8;stroke:#cccccc;stroke-linejoin:miter;"/>
    </g>
    <g id="patch_5">
     <path d="M 417.719063 59.237813 
L 445.719063 59.237813 
L 445.719063 49.437813 
L 417.719063 49.437813 
z
" style="fill:#ff6384;opacity:0.5;stroke:#ff6384;stroke-linejoin:miter;"/>
    </g>
    <g id="text_1">
     <!-- sidemenu -->
     <defs>
      <path d="M 44.28125 53.078125 
L 44.28125 44.578125 
Q 40.484375 46.53125 36.375 47.5 
Q 32.28125 48.484375 27.875 48.484375 
Q 21.1875 48.484375 17.84375 46.4375 
Q 14.5 44.390625 14.5 40.28125 
Q 14.5 37.15625 16.890625 35.375 
Q 19.28125 33.59375 26.515625 31.984375 
L 29.59375 31.296875 
Q 39.15625 29.25 43.1875 25.515625 
Q 47.21875 21.78125 47.21875 15.09375 
Q 47.21875 7.46875 41.1875 3.015625 
Q 35.15625 -1.421875 24.609375 -1.421875 
Q 20.21875 -1.421875 15.453125 -0.5625 
Q 10.6875 0.296875 5.421875 2 
L 5.421875 11.28125 
Q 10.40625 8.6875 15.234375 7.390625 
Q 20.0625 6.109375 24.8125 6.109375 
Q 31.15625 6.109375 34.5625 8.28125 
Q 37.984375 10.453125 37.984375 14.40625 
Q 37.984375 18.0625 35.515625 20.015625 
Q 33.0625 21.96875 24.703125 23.78125 
L 21.578125 24.515625 
Q 13.234375 26.265625 9.515625 29.90625 
Q 5.8125 33.546875 5.8125 39.890625 
Q 5.8125 47.609375 11.28125 51.796875 
Q 16.75 56 26.8125 56 
Q 31.78125 56 36.171875 55.265625 
Q 40.578125 54.546875 44.28125 53.078125 
z
" id="DejaVuSans-115"/>
      <path d="M 9.421875 54.6875 
L 18.40625 54.6875 
L 18.40625 0 
L 9.421875 0 
z
M 9.421875 75.984375 
L 18.40625 75.984375 
L 18.40625 64.59375 
L 9.421875 64.59375 
z
" id="DejaVuSans-105"/>
      <path d="M 45.40625 46.390625 
L 45.40625 75.984375 
L 54.390625 75.984375 
L 54.390625 0 
L 45.40625 0 
L 45.40625 8.203125 
Q 42.578125 3.328125 38.25 0.953125 
Q 33.9375 -1.421875 27.875 -1.421875 
Q 17.96875 -1.421875 11.734375 6.484375 
Q 5.515625 14.40625 5.515625 27.296875 
Q 5.515625 40.1875 11.734375 48.09375 
Q 17.96875 56 27.875 56 
Q 33.9375 56 38.25 53.625 
Q 42.578125 51.265625 45.40625 46.390625 
z
M 14.796875 27.296875 
Q 14.796875 17.390625 18.875 11.75 
Q 22.953125 6.109375 30.078125 6.109375 
Q 37.203125 6.109375 41.296875 11.75 
Q 45.40625 17.390625 45.40625 27.296875 
Q 45.40625 37.203125 41.296875 42.84375 
Q 37.203125 48.484375 30.078125 48.484375 
Q 22.953125 48.484375 18.875 42.84375 
Q 14.796875 37.203125 14.796875 27.296875 
z
" id="DejaVuSans-100"/>
      <path d="M 56.203125 29.59375 
L 56.203125 25.203125 
L 14.890625 25.203125 
Q 15.484375 15.921875 20.484375 11.0625 
Q 25.484375 6.203125 34.421875 6.203125 
Q 39.59375 6.203125 44.453125 7.46875 
Q 49.3125 8.734375 54.109375 11.28125 
L 54.109375 2.78125 
Q 49.265625 0.734375 44.1875 -0.34375 
Q 39.109375 -1.421875 33.890625 -1.421875 
Q 20.796875 -1.421875 13.15625 6.1875 
Q 5.515625 13.8125 5.515625 26.8125 
Q 5.515625 40.234375 12.765625 48.109375 
Q 20.015625 56 32.328125 56 
Q 43.359375 56 49.78125 48.890625 
Q 56.203125 41.796875 56.203125 29.59375 
z
M 47.21875 32.234375 
Q 47.125 39.59375 43.09375 43.984375 
Q 39.0625 48.390625 32.421875 48.390625 
Q 24.90625 48.390625 20.390625 44.140625 
Q 15.875 39.890625 15.1875 32.171875 
z
" id="DejaVuSans-101"/>
      <path d="M 52 44.1875 
Q 55.375 50.25 60.0625 53.125 
Q 64.75 56 71.09375 56 
Q 79.640625 56 84.28125 50.015625 
Q 88.921875 44.046875 88.921875 33.015625 
L 88.921875 0 
L 79.890625 0 
L 79.890625 32.71875 
Q 79.890625 40.578125 77.09375 44.375 
Q 74.3125 48.1875 68.609375 48.1875 
Q 61.625 48.1875 57.5625 43.546875 
Q 53.515625 38.921875 53.515625 30.90625 
L 53.515625 0 
L 44.484375 0 
L 44.484375 32.71875 
Q 44.484375 40.625 41.703125 44.40625 
Q 38.921875 48.1875 33.109375 48.1875 
Q 26.21875 48.1875 22.15625 43.53125 
Q 18.109375 38.875 18.109375 30.90625 
L 18.109375 0 
L 9.078125 0 
L 9.078125 54.6875 
L 18.109375 54.6875 
L 18.109375 46.1875 
Q 21.1875 51.21875 25.484375 53.609375 
Q 29.78125 56 35.6875 56 
Q 41.65625 56 45.828125 52.96875 
Q 50 49.953125 52 44.1875 
z
" id="DejaVuSans-109"/>
      <path d="M 54.890625 33.015625 
L 54.890625 0 
L 45.90625 0 
L 45.90625 32.71875 
Q 45.90625 40.484375 42.875 44.328125 
Q 39.84375 48.1875 33.796875 48.1875 
Q 26.515625 48.1875 22.3125 43.546875 
Q 18.109375 38.921875 18.109375 30.90625 
L 18.109375 0 
L 9.078125 0 
L 9.078125 54.6875 
L 18.109375 54.6875 
L 18.109375 46.1875 
Q 21.34375 51.125 25.703125 53.5625 
Q 30.078125 56 35.796875 56 
Q 45.21875 56 50.046875 50.171875 
Q 54.890625 44.34375 54.890625 33.015625 
z
" id="DejaVuSans-110"/>
      <path d="M 8.5 21.578125 
L 8.5 54.6875 
L 17.484375 54.6875 
L 17.484375 21.921875 
Q 17.484375 14.15625 20.5 10.265625 
Q 23.53125 6.390625 29.59375 6.390625 
Q 36.859375 6.390625 41.078125 11.03125 
Q 45.3125 15.671875 45.3125 23.6875 
L 45.3125 54.6875 
L 54.296875 54.6875 
L 54.296875 0 
L 45.3125 0 
L 45.3125 8.40625 
Q 42.046875 3.421875 37.71875 1 
Q 33.40625 -1.421875 27.6875 -1.421875 
Q 18.265625 -1.421875 13.375 4.4375 
Q 8.5 10.296875 8.5 21.578125 
z
M 31.109375 56 
z
" id="DejaVuSans-117"/>
     </defs>
     <g transform="translate(456.919063 59.237813)scale(0.14 -0.14)">
      <use xlink:href="#DejaVuSans-115"/>
      <use x="52.099609" xlink:href="#DejaVuSans-105"/>
      <use x="79.882812" xlink:href="#DejaVuSans-100"/>
      <use x="143.359375" xlink:href="#DejaVuSans-101"/>
      <use x="204.882812" xlink:href="#DejaVuSans-109"/>
      <use x="302.294922" xlink:href="#DejaVuSans-101"/>
      <use x="363.818359" xlink:href="#DejaVuSans-110"/>
      <use x="427.197266" xlink:href="#DejaVuSans-117"/>
     </g>
    </g>
    <g id="patch_6">
     <path d="M 417.719063 79.787188 
L 445.719063 79.787188 
L 445.719063 69.987188 
L 417.719063 69.987188 
z
" style="fill:#36a2eb;opacity:0.5;stroke:#36a2eb;stroke-linejoin:miter;"/>
    </g>
    <g id="text_2">
     <!-- tabbar -->
     <defs>
      <path d="M 18.3125 70.21875 
L 18.3125 54.6875 
L 36.8125 54.6875 
L 36.8125 47.703125 
L 18.3125 47.703125 
L 18.3125 18.015625 
Q 18.3125 11.328125 20.140625 9.421875 
Q 21.96875 7.515625 27.59375 7.515625 
L 36.8125 7.515625 
L 36.8125 0 
L 27.59375 0 
Q 17.1875 0 13.234375 3.875 
Q 9.28125 7.765625 9.28125 18.015625 
L 9.28125 47.703125 
L 2.6875 47.703125 
L 2.6875 54.6875 
L 9.28125 54.6875 
L 9.28125 70.21875 
z
" id="DejaVuSans-116"/>
      <path d="M 34.28125 27.484375 
Q 23.390625 27.484375 19.1875 25 
Q 14.984375 22.515625 14.984375 16.5 
Q 14.984375 11.71875 18.140625 8.90625 
Q 21.296875 6.109375 26.703125 6.109375 
Q 34.1875 6.109375 38.703125 11.40625 
Q 43.21875 16.703125 43.21875 25.484375 
L 43.21875 27.484375 
z
M 52.203125 31.203125 
L 52.203125 0 
L 43.21875 0 
L 43.21875 8.296875 
Q 40.140625 3.328125 35.546875 0.953125 
Q 30.953125 -1.421875 24.3125 -1.421875 
Q 15.921875 -1.421875 10.953125 3.296875 
Q 6 8.015625 6 15.921875 
Q 6 25.140625 12.171875 29.828125 
Q 18.359375 34.515625 30.609375 34.515625 
L 43.21875 34.515625 
L 43.21875 35.40625 
Q 43.21875 41.609375 39.140625 45 
Q 35.0625 48.390625 27.6875 48.390625 
Q 23 48.390625 18.546875 47.265625 
Q 14.109375 46.140625 10.015625 43.890625 
L 10.015625 52.203125 
Q 14.9375 54.109375 19.578125 55.046875 
Q 24.21875 56 28.609375 56 
Q 40.484375 56 46.34375 49.84375 
Q 52.203125 43.703125 52.203125 31.203125 
z
" id="DejaVuSans-97"/>
      <path d="M 48.6875 27.296875 
Q 48.6875 37.203125 44.609375 42.84375 
Q 40.53125 48.484375 33.40625 48.484375 
Q 26.265625 48.484375 22.1875 42.84375 
Q 18.109375 37.203125 18.109375 27.296875 
Q 18.109375 17.390625 22.1875 11.75 
Q 26.265625 6.109375 33.40625 6.109375 
Q 40.53125 6.109375 44.609375 11.75 
Q 48.6875 17.390625 48.6875 27.296875 
z
M 18.109375 46.390625 
Q 20.953125 51.265625 25.265625 53.625 
Q 29.59375 56 35.59375 56 
Q 45.5625 56 51.78125 48.09375 
Q 58.015625 40.1875 58.015625 27.296875 
Q 58.015625 14.40625 51.78125 6.484375 
Q 45.5625 -1.421875 35.59375 -1.421875 
Q 29.59375 -1.421875 25.265625 0.953125 
Q 20.953125 3.328125 18.109375 8.203125 
L 18.109375 0 
L 9.078125 0 
L 9.078125 75.984375 
L 18.109375 75.984375 
z
" id="DejaVuSans-98"/>
      <path d="M 41.109375 46.296875 
Q 39.59375 47.171875 37.8125 47.578125 
Q 36.03125 48 33.890625 48 
Q 26.265625 48 22.1875 43.046875 
Q 18.109375 38.09375 18.109375 28.8125 
L 18.109375 0 
L 9.078125 0 
L 9.078125 54.6875 
L 18.109375 54.6875 
L 18.109375 46.1875 
Q 20.953125 51.171875 25.484375 53.578125 
Q 30.03125 56 36.53125 56 
Q 37.453125 56 38.578125 55.875 
Q 39.703125 55.765625 41.0625 55.515625 
z
" id="DejaVuSans-114"/>
     </defs>
     <g transform="translate(456.919063 79.787188)scale(0.14 -0.14)">
      <use xlink:href="#DejaVuSans-116"/>
      <use x="39.208984" xlink:href="#DejaVuSans-97"/>
      <use x="100.488281" xlink:href="#DejaVuSans-98"/>
      <use x="163.964844" xlink:href="#DejaVuSans-98"/>
      <use x="227.441406" xlink:href="#DejaVuSans-97"/>
      <use x="288.720703" xlink:href="#DejaVuSans-114"/>
     </g>
    </g>
   </g>
  </g>
  <g id="axes_2">
   <g id="patch_7">
    <path d="M 36 534.96 
L 538.2 534.96 
L 538.2 410.22 
L 36 410.22 
z
" style="fill:none;"/>
   </g>
   <g id="patch_8">
    <path clip-path="url(#p2ed6ffc422)" d="M 154.507854 529.29 
L 338.364656 529.29 
L 338.364656 491.49 
L 154.507854 491.49 
z
" style="fill:#ff6384;opacity:0.5;"/>
   </g>
   <g id="patch_9">
    <path clip-path="url(#p2ed6ffc422)" d="M 208.011201 453.69 
L 410.168447 453.69 
L 410.168447 415.89 
L 208.011201 415.89 
z
" style="fill:#36a2eb;opacity:0.5;"/>
   </g>
   <g id="matplotlib.axis_1">
    <g id="xtick_1">
     <g id="line2d_3">
      <defs>
       <path d="M 0 0 
L 0 3.5 
" id="m8b1ffafee6" style="stroke:#000000;stroke-width:0.8;"/>
      </defs>
      <g>
       <use style="stroke:#000000;stroke-width:0.8;" x="91.421275" xlink:href="#m8b1ffafee6" y="534.96"/>
      </g>
     </g>
     <g id="text_3">
      <!-- 18 -->
      <defs>
       <path d="M 12.40625 8.296875 
L 28.515625 8.296875 
L 28.515625 63.921875 
L 10.984375 60.40625 
L 10.984375 69.390625 
L 28.421875 72.90625 
L 38.28125 72.90625 
L 38.28125 8.296875 
L 54.390625 8.296875 
L 54.390625 0 
L 12.40625 0 
z
" id="DejaVuSans-49"/>
       <path d="M 31.78125 34.625 
Q 24.75 34.625 20.71875 30.859375 
Q 16.703125 27.09375 16.703125 20.515625 
Q 16.703125 13.921875 20.71875 10.15625 
Q 24.75 6.390625 31.78125 6.390625 
Q 38.8125 6.390625 42.859375 10.171875 
Q 46.921875 13.96875 46.921875 20.515625 
Q 46.921875 27.09375 42.890625 30.859375 
Q 38.875 34.625 31.78125 34.625 
z
M 21.921875 38.8125 
Q 15.578125 40.375 12.03125 44.71875 
Q 8.5 49.078125 8.5 55.328125 
Q 8.5 64.0625 14.71875 69.140625 
Q 20.953125 74.21875 31.78125 74.21875 
Q 42.671875 74.21875 48.875 69.140625 
Q 55.078125 64.0625 55.078125 55.328125 
Q 55.078125 49.078125 51.53125 44.71875 
Q 48 40.375 41.703125 38.8125 
Q 48.828125 37.15625 52.796875 32.3125 
Q 56.78125 27.484375 56.78125 20.515625 
Q 56.78125 9.90625 50.3125 4.234375 
Q 43.84375 -1.421875 31.78125 -1.421875 
Q 19.734375 -1.421875 13.25 4.234375 
Q 6.78125 9.90625 6.78125 20.515625 
Q 6.78125 27.484375 10.78125 32.3125 
Q 14.796875 37.15625 21.921875 38.8125 
z
M 18.3125 54.390625 
Q 18.3125 48.734375 21.84375 45.5625 
Q 25.390625 42.390625 31.78125 42.390625 
Q 38.140625 42.390625 41.71875 45.5625 
Q 45.3125 48.734375 45.3125 54.390625 
Q 45.3125 60.0625 41.71875 63.234375 
Q 38.140625 66.40625 31.78125 66.40625 
Q 25.390625 66.40625 21.84375 63.234375 
Q 18.3125 60.0625 18.3125 54.390625 
z
" id="DejaVuSans-56"/>
      </defs>
      <g transform="translate(82.513775 552.597813)scale(0.14 -0.14)">
       <use xlink:href="#DejaVuSans-49"/>
       <use x="63.623047" xlink:href="#DejaVuSans-56"/>
      </g>
     </g>
    </g>
    <g id="xtick_2">
     <g id="line2d_4">
      <g>
       <use style="stroke:#000000;stroke-width:0.8;" x="187.50097" xlink:href="#m8b1ffafee6" y="534.96"/>
      </g>
     </g>
     <g id="text_4">
      <!-- 19 -->
      <defs>
       <path d="M 10.984375 1.515625 
L 10.984375 10.5 
Q 14.703125 8.734375 18.5 7.8125 
Q 22.3125 6.890625 25.984375 6.890625 
Q 35.75 6.890625 40.890625 13.453125 
Q 46.046875 20.015625 46.78125 33.40625 
Q 43.953125 29.203125 39.59375 26.953125 
Q 35.25 24.703125 29.984375 24.703125 
Q 19.046875 24.703125 12.671875 31.3125 
Q 6.296875 37.9375 6.296875 49.421875 
Q 6.296875 60.640625 12.9375 67.421875 
Q 19.578125 74.21875 30.609375 74.21875 
Q 43.265625 74.21875 49.921875 64.515625 
Q 56.59375 54.828125 56.59375 36.375 
Q 56.59375 19.140625 48.40625 8.859375 
Q 40.234375 -1.421875 26.421875 -1.421875 
Q 22.703125 -1.421875 18.890625 -0.6875 
Q 15.09375 0.046875 10.984375 1.515625 
z
M 30.609375 32.421875 
Q 37.25 32.421875 41.125 36.953125 
Q 45.015625 41.5 45.015625 49.421875 
Q 45.015625 57.28125 41.125 61.84375 
Q 37.25 66.40625 30.609375 66.40625 
Q 23.96875 66.40625 20.09375 61.84375 
Q 16.21875 57.28125 16.21875 49.421875 
Q 16.21875 41.5 20.09375 36.953125 
Q 23.96875 32.421875 30.609375 32.421875 
z
" id="DejaVuSans-57"/>
      </defs>
      <g transform="translate(178.59347 552.597813)scale(0.14 -0.14)">
       <use xlink:href="#DejaVuSans-49"/>
       <use x="63.623047" xlink:href="#DejaVuSans-57"/>
      </g>
     </g>
    </g>
    <g id="xtick_3">
     <g id="line2d_5">
      <g>
       <use style="stroke:#000000;stroke-width:0.8;" x="283.580665" xlink:href="#m8b1ffafee6" y="534.96"/>
      </g>
     </g>
     <g id="text_5">
      <!-- 20 -->
      <defs>
       <path d="M 19.1875 8.296875 
L 53.609375 8.296875 
L 53.609375 0 
L 7.328125 0 
L 7.328125 8.296875 
Q 12.9375 14.109375 22.625 23.890625 
Q 32.328125 33.6875 34.8125 36.53125 
Q 39.546875 41.84375 41.421875 45.53125 
Q 43.3125 49.21875 43.3125 52.78125 
Q 43.3125 58.59375 39.234375 62.25 
Q 35.15625 65.921875 28.609375 65.921875 
Q 23.96875 65.921875 18.8125 64.3125 
Q 13.671875 62.703125 7.8125 59.421875 
L 7.8125 69.390625 
Q 13.765625 71.78125 18.9375 73 
Q 24.125 74.21875 28.421875 74.21875 
Q 39.75 74.21875 46.484375 68.546875 
Q 53.21875 62.890625 53.21875 53.421875 
Q 53.21875 48.921875 51.53125 44.890625 
Q 49.859375 40.875 45.40625 35.40625 
Q 44.1875 33.984375 37.640625 27.21875 
Q 31.109375 20.453125 19.1875 8.296875 
z
" id="DejaVuSans-50"/>
       <path d="M 31.78125 66.40625 
Q 24.171875 66.40625 20.328125 58.90625 
Q 16.5 51.421875 16.5 36.375 
Q 16.5 21.390625 20.328125 13.890625 
Q 24.171875 6.390625 31.78125 6.390625 
Q 39.453125 6.390625 43.28125 13.890625 
Q 47.125 21.390625 47.125 36.375 
Q 47.125 51.421875 43.28125 58.90625 
Q 39.453125 66.40625 31.78125 66.40625 
z
M 31.78125 74.21875 
Q 44.046875 74.21875 50.515625 64.515625 
Q 56.984375 54.828125 56.984375 36.375 
Q 56.984375 17.96875 50.515625 8.265625 
Q 44.046875 -1.421875 31.78125 -1.421875 
Q 19.53125 -1.421875 13.0625 8.265625 
Q 6.59375 17.96875 6.59375 36.375 
Q 6.59375 54.828125 13.0625 64.515625 
Q 19.53125 74.21875 31.78125 74.21875 
z
" id="DejaVuSans-48"/>
      </defs>
      <g transform="translate(274.673165 552.597813)scale(0.14 -0.14)">
       <use xlink:href="#DejaVuSans-50"/>
       <use x="63.623047" xlink:href="#DejaVuSans-48"/>
      </g>
     </g>
    </g>
    <g id="xtick_4">
     <g id="line2d_6">
      <g>
       <use style="stroke:#000000;stroke-width:0.8;" x="379.66036" xlink:href="#m8b1ffafee6" y="534.96"/>
      </g>
     </g>
     <g id="text_6">
      <!-- 21 -->
      <g transform="translate(370.75286 552.597813)scale(0.14 -0.14)">
       <use xlink:href="#DejaVuSans-50"/>
       <use x="63.623047" xlink:href="#DejaVuSans-49"/>
      </g>
     </g>
    </g>
    <g id="xtick_5">
     <g id="line2d_7">
      <g>
       <use style="stroke:#000000;stroke-width:0.8;" x="475.740055" xlink:href="#m8b1ffafee6" y="534.96"/>
      </g>
     </g>
     <g id="text_7">
      <!-- 22 -->
      <g transform="translate(466.832555 552.597813)scale(0.14 -0.14)">
       <use xlink:href="#DejaVuSans-50"/>
       <use x="63.623047" xlink:href="#DejaVuSans-50"/>
      </g>
     </g>
    </g>
   </g>
   <g id="line2d_8">
    <path clip-path="url(#p2ed6ffc422)" d="M 246.436255 534.96 
L 246.436255 410.22 
" style="fill:none;stroke:#ff6384;stroke-dasharray:5.55,2.4;stroke-dashoffset:0;stroke-opacity:0.8;stroke-width:1.5;"/>
   </g>
   <g id="line2d_9">
    <path clip-path="url(#p2ed6ffc422)" d="M 309.089824 534.96 
L 309.089824 410.22 
" style="fill:none;stroke:#36a2eb;stroke-dasharray:5.55,2.4;stroke-dashoffset:0;stroke-opacity:0.8;stroke-width:1.5;"/>
   </g>
   <g id="patch_10">
    <path d="M 36 534.96 
L 538.2 534.96 
" style="fill:none;stroke:#000000;stroke-linecap:square;stroke-linejoin:miter;stroke-width:0.8;"/>
   </g>
  </g>
 </g>
 <defs>
  <clipPath id="p0924a80136">
   <rect height="374.22" width="502.2" x="36" y="36"/>
  </clipPath>
  <clipPath id="p2ed6ffc422">
   <rect height="124.74" width="502.2" x="36" y="410.22"/>
  </clipPath>
 </defs>
</svg>
