<?xml version="1.0" encoding="utf-8" standalone="no"?>
<!DOCTYPE svg PUBLIC "-//W3C//DTD SVG 1.1//EN"
  "http://www.w3.org/Graphics/SVG/1.1/DTD/svg11.dtd">
<!-- Created with matplotlib (https://matplotlib.org/) -->
<svg height="591.509375pt" version="1.1" viewBox="0 0 578.924636 591.509375" width="578.924636pt" xmlns="http://www.w3.org/2000/svg" xmlns:xlink="http://www.w3.org/1999/xlink">
 <defs>
  <style type="text/css">
*{stroke-linecap:butt;stroke-linejoin:round;}
  </style>
 </defs>
 <g id="figure_1">
  <g id="patch_1">
   <path d="M 0 591.509375 
L 578.924636 591.509375 
L 578.924636 0 
L 0 0 
z
" style="fill:none;"/>
  </g>
  <g id="axes_1">
   <g id="patch_2">
    <path d="M 40.724636 410.22 
L 542.924636 410.22 
L 542.924636 36 
L 40.724636 36 
z
" style="fill:none;"/>
   </g>
   <g id="PolyCollection_1">
    <defs>
     <path d="M 85.608134 -198.299375 
L 85.608134 -198.385608 
L 89.555038 -198.418125 
L 93.501941 -198.46184 
L 97.448844 -198.520199 
L 101.395747 -198.597569 
L 105.34265 -198.699426 
L 109.289554 -198.832583 
L 113.236457 -199.005434 
L 117.18336 -199.228233 
L 121.130263 -199.513385 
L 125.077166 -199.875748 
L 129.02407 -200.332948 
L 132.970973 -200.905677 
L 136.917876 -201.617966 
L 140.864779 -202.497418 
L 144.811682 -203.575366 
L 148.758586 -204.886946 
L 152.705489 -206.471042 
L 156.652392 -208.370085 
L 160.599295 -210.629673 
L 164.546198 -213.29799 
L 168.493102 -216.424994 
L 172.440005 -220.061364 
L 176.386908 -224.257206 
L 180.333811 -229.060507 
L 184.280714 -234.51536 
L 188.227617 -240.660001 
L 192.174521 -247.524691 
L 196.121424 -255.129517 
L 200.068327 -263.482181 
L 204.01523 -272.575877 
L 207.962133 -282.387354 
L 211.909037 -292.875271 
L 215.85594 -303.978959 
L 219.802843 -315.617687 
L 223.749746 -327.690533 
L 227.696649 -340.076927 
L 231.643553 -352.637929 
L 235.590456 -365.218254 
L 239.537359 -377.649042 
L 243.484262 -389.751314 
L 247.431165 -401.340048 
L 251.378069 -412.228739 
L 255.324972 -422.234302 
L 259.271875 -431.182142 
L 263.218778 -438.911191 
L 267.165681 -445.278717 
L 271.112585 -450.164703 
L 275.059488 -453.47561 
L 279.006391 -455.14735 
L 282.953294 -455.14735 
L 286.900197 -453.47561 
L 290.847101 -450.164703 
L 294.794004 -445.278717 
L 298.740907 -438.911191 
L 302.68781 -431.182142 
L 306.634713 -422.234302 
L 310.581617 -412.228739 
L 314.52852 -401.340048 
L 318.475423 -389.751314 
L 322.422326 -377.649042 
L 326.369229 -365.218254 
L 330.316133 -352.637929 
L 334.263036 -340.076927 
L 338.209939 -327.690533 
L 342.156842 -315.617687 
L 346.103745 -303.978959 
L 350.050648 -292.875271 
L 353.997552 -282.387354 
L 357.944455 -272.575877 
L 361.891358 -263.482181 
L 365.838261 -255.129517 
L 369.785164 -247.524691 
L 373.732068 -240.660001 
L 377.678971 -234.51536 
L 381.625874 -229.060507 
L 385.572777 -224.257206 
L 389.51968 -220.061364 
L 393.466584 -216.424994 
L 397.413487 -213.29799 
L 401.36039 -210.629673 
L 405.307293 -208.370085 
L 409.254196 -206.471042 
L 413.2011 -204.886946 
L 417.148003 -203.575366 
L 421.094906 -202.497418 
L 425.041809 -201.617966 
L 428.988712 -200.905677 
L 432.935616 -200.332948 
L 436.882519 -199.875748 
L 440.829422 -199.513385 
L 444.776325 -199.228233 
L 448.723228 -199.005434 
L 452.670132 -198.832583 
L 456.617035 -198.699426 
L 460.563938 -198.597569 
L 464.510841 -198.520199 
L 468.457744 -198.46184 
L 472.404648 -198.418125 
L 476.351551 -198.385608 
L 476.351551 -198.299375 
L 476.351551 -198.299375 
L 472.404648 -198.299375 
L 468.457744 -198.299375 
L 464.510841 -198.299375 
L 460.563938 -198.299375 
L 456.617035 -198.299375 
L 452.670132 -198.299375 
L 448.723228 -198.299375 
L 444.776325 -198.299375 
L 440.829422 -198.299375 
L 436.882519 -198.299375 
L 432.935616 -198.299375 
L 428.988712 -198.299375 
L 425.041809 -198.299375 
L 421.094906 -198.299375 
L 417.148003 -198.299375 
L 413.2011 -198.299375 
L 409.254196 -198.299375 
L 405.307293 -198.299375 
L 401.36039 -198.299375 
L 397.413487 -198.299375 
L 393.466584 -198.299375 
L 389.51968 -198.299375 
L 385.572777 -198.299375 
L 381.625874 -198.299375 
L 377.678971 -198.299375 
L 373.732068 -198.299375 
L 369.785164 -198.299375 
L 365.838261 -198.299375 
L 361.891358 -198.299375 
L 357.944455 -198.299375 
L 353.997552 -198.299375 
L 350.050648 -198.299375 
L 346.103745 -198.299375 
L 342.156842 -198.299375 
L 338.209939 -198.299375 
L 334.263036 -198.299375 
L 330.316133 -198.299375 
L 326.369229 -198.299375 
L 322.422326 -198.299375 
L 318.475423 -198.299375 
L 314.52852 -198.299375 
L 310.581617 -198.299375 
L 306.634713 -198.299375 
L 302.68781 -198.299375 
L 298.740907 -198.299375 
L 294.794004 -198.299375 
L 290.847101 -198.299375 
L 286.900197 -198.299375 
L 282.953294 -198.299375 
L 279.006391 -198.299375 
L 275.059488 -198.299375 
L 271.112585 -198.299375 
L 267.165681 -198.299375 
L 263.218778 -198.299375 
L 259.271875 -198.299375 
L 255.324972 -198.299375 
L 251.378069 -198.299375 
L 247.431165 -198.299375 
L 243.484262 -198.299375 
L 239.537359 -198.299375 
L 235.590456 -198.299375 
L 231.643553 -198.299375 
L 227.696649 -198.299375 
L 223.749746 -198.299375 
L 219.802843 -198.299375 
L 215.85594 -198.299375 
L 211.909037 -198.299375 
L 207.962133 -198.299375 
L 204.01523 -198.299375 
L 200.068327 -198.299375 
L 196.121424 -198.299375 
L 192.174521 -198.299375 
L 188.227617 -198.299375 
L 184.280714 -198.299375 
L 180.333811 -198.299375 
L 176.386908 -198.299375 
L 172.440005 -198.299375 
L 168.493102 -198.299375 
L 164.546198 -198.299375 
L 160.599295 -198.299375 
L 156.652392 -198.299375 
L 152.705489 -198.299375 
L 148.758586 -198.299375 
L 144.811682 -198.299375 
L 140.864779 -198.299375 
L 136.917876 -198.299375 
L 132.970973 -198.299375 
L 129.02407 -198.299375 
L 125.077166 -198.299375 
L 121.130263 -198.299375 
L 117.18336 -198.299375 
L 113.236457 -198.299375 
L 109.289554 -198.299375 
L 105.34265 -198.299375 
L 101.395747 -198.299375 
L 97.448844 -198.299375 
L 93.501941 -198.299375 
L 89.555038 -198.299375 
L 85.608134 -198.299375 
z
" id="m9e7f32ddff" style="stroke:#ff6384;stroke-opacity:0.5;"/>
    </defs>
    <g clip-path="url(#pd188589ab7)">
     <use style="fill:#ff6384;fill-opacity:0.5;stroke:#ff6384;stroke-opacity:0.5;" x="0" xlink:href="#m9e7f32ddff" y="591.509375"/>
    </g>
   </g>
   <g id="PolyCollection_2">
    <defs>
     <path d="M 115.93439 -198.299375 
L 115.93439 -198.382745 
L 120.016845 -198.414182 
L 124.099299 -198.456445 
L 128.181753 -198.512867 
L 132.264207 -198.587668 
L 136.346662 -198.686143 
L 140.429116 -198.814878 
L 144.51157 -198.98199 
L 148.594024 -199.197392 
L 152.676479 -199.473076 
L 156.758933 -199.823407 
L 160.841387 -200.265427 
L 164.923842 -200.819139 
L 169.006296 -201.507778 
L 173.08875 -202.358029 
L 177.171204 -203.400186 
L 181.253659 -204.668217 
L 185.336113 -206.199715 
L 189.418567 -208.035704 
L 193.501021 -210.220266 
L 197.583476 -212.799986 
L 201.66593 -215.823163 
L 205.748384 -219.338793 
L 209.830838 -223.39532 
L 213.913293 -228.039135 
L 217.995747 -233.312869 
L 222.078201 -239.253487 
L 226.160656 -245.890247 
L 230.24311 -253.242568 
L 234.325564 -261.317895 
L 238.408018 -270.10965 
L 242.490473 -279.595353 
L 246.572927 -289.735036 
L 250.655381 -300.470045 
L 254.737835 -311.722329 
L 258.82029 -323.394316 
L 262.902744 -335.36944 
L 266.985198 -347.513375 
L 271.067652 -359.675992 
L 275.150107 -371.694036 
L 279.232561 -383.394472 
L 283.315015 -394.598422 
L 287.39747 -405.125572 
L 291.479924 -414.798917 
L 295.562378 -423.449659 
L 299.644832 -430.922077 
L 303.727287 -437.07818 
L 307.809741 -441.801936 
L 311.892195 -445.00291 
L 315.974649 -446.619142 
L 320.057104 -446.619142 
L 324.139558 -445.00291 
L 328.222012 -441.801936 
L 332.304466 -437.07818 
L 336.386921 -430.922077 
L 340.469375 -423.449659 
L 344.551829 -414.798917 
L 348.634284 -405.125572 
L 352.716738 -394.598422 
L 356.799192 -383.394472 
L 360.881646 -371.694036 
L 364.964101 -359.675992 
L 369.046555 -347.513375 
L 373.129009 -335.36944 
L 377.211463 -323.394316 
L 381.293918 -311.722329 
L 385.376372 -300.470045 
L 389.458826 -289.735036 
L 393.541281 -279.595353 
L 397.623735 -270.10965 
L 401.706189 -261.317895 
L 405.788643 -253.242568 
L 409.871098 -245.890247 
L 413.953552 -239.253487 
L 418.036006 -233.312869 
L 422.11846 -228.039135 
L 426.200915 -223.39532 
L 430.283369 -219.338793 
L 434.365823 -215.823163 
L 438.448277 -212.799986 
L 442.530732 -210.220266 
L 446.613186 -208.035704 
L 450.69564 -206.199715 
L 454.778095 -204.668217 
L 458.860549 -203.400186 
L 462.943003 -202.358029 
L 467.025457 -201.507778 
L 471.107912 -200.819139 
L 475.190366 -200.265427 
L 479.27282 -199.823407 
L 483.355274 -199.473076 
L 487.437729 -199.197392 
L 491.520183 -198.98199 
L 495.602637 -198.814878 
L 499.685091 -198.686143 
L 503.767546 -198.587668 
L 507.85 -198.512867 
L 511.932454 -198.456445 
L 516.014909 -198.414182 
L 520.097363 -198.382745 
L 520.097363 -198.299375 
L 520.097363 -198.299375 
L 516.014909 -198.299375 
L 511.932454 -198.299375 
L 507.85 -198.299375 
L 503.767546 -198.299375 
L 499.685091 -198.299375 
L 495.602637 -198.299375 
L 491.520183 -198.299375 
L 487.437729 -198.299375 
L 483.355274 -198.299375 
L 479.27282 -198.299375 
L 475.190366 -198.299375 
L 471.107912 -198.299375 
L 467.025457 -198.299375 
L 462.943003 -198.299375 
L 458.860549 -198.299375 
L 454.778095 -198.299375 
L 450.69564 -198.299375 
L 446.613186 -198.299375 
L 442.530732 -198.299375 
L 438.448277 -198.299375 
L 434.365823 -198.299375 
L 430.283369 -198.299375 
L 426.200915 -198.299375 
L 422.11846 -198.299375 
L 418.036006 -198.299375 
L 413.953552 -198.299375 
L 409.871098 -198.299375 
L 405.788643 -198.299375 
L 401.706189 -198.299375 
L 397.623735 -198.299375 
L 393.541281 -198.299375 
L 389.458826 -198.299375 
L 385.376372 -198.299375 
L 381.293918 -198.299375 
L 377.211463 -198.299375 
L 373.129009 -198.299375 
L 369.046555 -198.299375 
L 364.964101 -198.299375 
L 360.881646 -198.299375 
L 356.799192 -198.299375 
L 352.716738 -198.299375 
L 348.634284 -198.299375 
L 344.551829 -198.299375 
L 340.469375 -198.299375 
L 336.386921 -198.299375 
L 332.304466 -198.299375 
L 328.222012 -198.299375 
L 324.139558 -198.299375 
L 320.057104 -198.299375 
L 315.974649 -198.299375 
L 311.892195 -198.299375 
L 307.809741 -198.299375 
L 303.727287 -198.299375 
L 299.644832 -198.299375 
L 295.562378 -198.299375 
L 291.479924 -198.299375 
L 287.39747 -198.299375 
L 283.315015 -198.299375 
L 279.232561 -198.299375 
L 275.150107 -198.299375 
L 271.067652 -198.299375 
L 266.985198 -198.299375 
L 262.902744 -198.299375 
L 258.82029 -198.299375 
L 254.737835 -198.299375 
L 250.655381 -198.299375 
L 246.572927 -198.299375 
L 242.490473 -198.299375 
L 238.408018 -198.299375 
L 234.325564 -198.299375 
L 230.24311 -198.299375 
L 226.160656 -198.299375 
L 222.078201 -198.299375 
L 217.995747 -198.299375 
L 213.913293 -198.299375 
L 209.830838 -198.299375 
L 205.748384 -198.299375 
L 201.66593 -198.299375 
L 197.583476 -198.299375 
L 193.501021 -198.299375 
L 189.418567 -198.299375 
L 185.336113 -198.299375 
L 181.253659 -198.299375 
L 177.171204 -198.299375 
L 173.08875 -198.299375 
L 169.006296 -198.299375 
L 164.923842 -198.299375 
L 160.841387 -198.299375 
L 156.758933 -198.299375 
L 152.676479 -198.299375 
L 148.594024 -198.299375 
L 144.51157 -198.299375 
L 140.429116 -198.299375 
L 136.346662 -198.299375 
L 132.264207 -198.299375 
L 128.181753 -198.299375 
L 124.099299 -198.299375 
L 120.016845 -198.299375 
L 115.93439 -198.299375 
z
" id="md025984b47" style="stroke:#36a2eb;stroke-opacity:0.5;"/>
    </defs>
    <g clip-path="url(#pd188589ab7)">
     <use style="fill:#36a2eb;fill-opacity:0.5;stroke:#36a2eb;stroke-opacity:0.5;" x="0" xlink:href="#md025984b47" y="591.509375"/>
    </g>
   </g>
   <g id="PolyCollection_3">
    <defs>
     <path d="M 63.551908 -198.299375 
L 63.551908 -198.413593 
L 66.531785 -198.456662 
L 69.511662 -198.514563 
L 72.491539 -198.591861 
L 75.471415 -198.694339 
L 78.451292 -198.829251 
L 81.431169 -199.005619 
L 84.411046 -199.234563 
L 87.390923 -199.529665 
L 90.3708 -199.907354 
L 93.350676 -200.387311 
L 96.330553 -200.992881 
L 99.31043 -201.751471 
L 102.290307 -202.694912 
L 105.270184 -203.859762 
L 108.25006 -205.287525 
L 111.229937 -207.024738 
L 114.209814 -209.122902 
L 117.189691 -211.638221 
L 120.169568 -214.631088 
L 123.149444 -218.165325 
L 126.129321 -222.3071 
L 129.109198 -227.123541 
L 132.089075 -232.681014 
L 135.068952 -239.043076 
L 138.048829 -246.268132 
L 141.028705 -254.406825 
L 144.008582 -263.499238 
L 146.988459 -273.571974 
L 149.968336 -284.635235 
L 152.948213 -296.680007 
L 155.928089 -309.675493 
L 158.907966 -323.566938 
L 161.887843 -338.273983 
L 164.86772 -353.689699 
L 167.847597 -369.680411 
L 170.827473 -386.086424 
L 173.80735 -402.723708 
L 176.787227 -419.386587 
L 179.767104 -435.8514 
L 182.746981 -451.881089 
L 185.726858 -467.230586 
L 188.706734 -481.652863 
L 191.686611 -494.905422 
L 194.666488 -506.757005 
L 197.646365 -516.994276 
L 200.626242 -525.428184 
L 203.606118 -531.899766 
L 206.585995 -536.285125 
L 209.565872 -538.499375 
L 212.545749 -538.499375 
L 215.525626 -536.285125 
L 218.505502 -531.899766 
L 221.485379 -525.428184 
L 224.465256 -516.994276 
L 227.445133 -506.757005 
L 230.42501 -494.905422 
L 233.404886 -481.652863 
L 236.384763 -467.230586 
L 239.36464 -451.881089 
L 242.344517 -435.8514 
L 245.324394 -419.386587 
L 248.304271 -402.723708 
L 251.284147 -386.086424 
L 254.264024 -369.680411 
L 257.243901 -353.689699 
L 260.223778 -338.273983 
L 263.203655 -323.566938 
L 266.183531 -309.675493 
L 269.163408 -296.680007 
L 272.143285 -284.635235 
L 275.123162 -273.571974 
L 278.103039 -263.499238 
L 281.082915 -254.406825 
L 284.062792 -246.268132 
L 287.042669 -239.043076 
L 290.022546 -232.681014 
L 293.002423 -227.123541 
L 295.9823 -222.3071 
L 298.962176 -218.165325 
L 301.942053 -214.631088 
L 304.92193 -211.638221 
L 307.901807 -209.122902 
L 310.881684 -207.024738 
L 313.86156 -205.287525 
L 316.841437 -203.859762 
L 319.821314 -202.694912 
L 322.801191 -201.751471 
L 325.781068 -200.992881 
L 328.760944 -200.387311 
L 331.740821 -199.907354 
L 334.720698 -199.529665 
L 337.700575 -199.234563 
L 340.680452 -199.005619 
L 343.660329 -198.829251 
L 346.640205 -198.694339 
L 349.620082 -198.591861 
L 352.599959 -198.514563 
L 355.579836 -198.456662 
L 358.559713 -198.413593 
L 358.559713 -198.299375 
L 358.559713 -198.299375 
L 355.579836 -198.299375 
L 352.599959 -198.299375 
L 349.620082 -198.299375 
L 346.640205 -198.299375 
L 343.660329 -198.299375 
L 340.680452 -198.299375 
L 337.700575 -198.299375 
L 334.720698 -198.299375 
L 331.740821 -198.299375 
L 328.760944 -198.299375 
L 325.781068 -198.299375 
L 322.801191 -198.299375 
L 319.821314 -198.299375 
L 316.841437 -198.299375 
L 313.86156 -198.299375 
L 310.881684 -198.299375 
L 307.901807 -198.299375 
L 304.92193 -198.299375 
L 301.942053 -198.299375 
L 298.962176 -198.299375 
L 295.9823 -198.299375 
L 293.002423 -198.299375 
L 290.022546 -198.299375 
L 287.042669 -198.299375 
L 284.062792 -198.299375 
L 281.082915 -198.299375 
L 278.103039 -198.299375 
L 275.123162 -198.299375 
L 272.143285 -198.299375 
L 269.163408 -198.299375 
L 266.183531 -198.299375 
L 263.203655 -198.299375 
L 260.223778 -198.299375 
L 257.243901 -198.299375 
L 254.264024 -198.299375 
L 251.284147 -198.299375 
L 248.304271 -198.299375 
L 245.324394 -198.299375 
L 242.344517 -198.299375 
L 239.36464 -198.299375 
L 236.384763 -198.299375 
L 233.404886 -198.299375 
L 230.42501 -198.299375 
L 227.445133 -198.299375 
L 224.465256 -198.299375 
L 221.485379 -198.299375 
L 218.505502 -198.299375 
L 215.525626 -198.299375 
L 212.545749 -198.299375 
L 209.565872 -198.299375 
L 206.585995 -198.299375 
L 203.606118 -198.299375 
L 200.626242 -198.299375 
L 197.646365 -198.299375 
L 194.666488 -198.299375 
L 191.686611 -198.299375 
L 188.706734 -198.299375 
L 185.726858 -198.299375 
L 182.746981 -198.299375 
L 179.767104 -198.299375 
L 176.787227 -198.299375 
L 173.80735 -198.299375 
L 170.827473 -198.299375 
L 167.847597 -198.299375 
L 164.86772 -198.299375 
L 161.887843 -198.299375 
L 158.907966 -198.299375 
L 155.928089 -198.299375 
L 152.948213 -198.299375 
L 149.968336 -198.299375 
L 146.988459 -198.299375 
L 144.008582 -198.299375 
L 141.028705 -198.299375 
L 138.048829 -198.299375 
L 135.068952 -198.299375 
L 132.089075 -198.299375 
L 129.109198 -198.299375 
L 126.129321 -198.299375 
L 123.149444 -198.299375 
L 120.169568 -198.299375 
L 117.189691 -198.299375 
L 114.209814 -198.299375 
L 111.229937 -198.299375 
L 108.25006 -198.299375 
L 105.270184 -198.299375 
L 102.290307 -198.299375 
L 99.31043 -198.299375 
L 96.330553 -198.299375 
L 93.350676 -198.299375 
L 90.3708 -198.299375 
L 87.390923 -198.299375 
L 84.411046 -198.299375 
L 81.431169 -198.299375 
L 78.451292 -198.299375 
L 75.471415 -198.299375 
L 72.491539 -198.299375 
L 69.511662 -198.299375 
L 66.531785 -198.299375 
L 63.551908 -198.299375 
z
" id="mb62c6a11d6" style="stroke:#4bc0c0;stroke-opacity:0.5;"/>
    </defs>
    <g clip-path="url(#pd188589ab7)">
     <use style="fill:#4bc0c0;fill-opacity:0.5;stroke:#4bc0c0;stroke-opacity:0.5;" x="0" xlink:href="#mb62c6a11d6" y="591.509375"/>
    </g>
   </g>
   <g id="line2d_1">
    <path clip-path="url(#pd188589ab7)" d="M 85.608134 393.123767 
L 89.555038 393.09125 
L 93.501941 393.047535 
L 97.448844 392.989176 
L 101.395747 392.911806 
L 105.34265 392.809949 
L 109.289554 392.676792 
L 113.236457 392.503941 
L 117.18336 392.281142 
L 121.130263 391.99599 
L 125.077166 391.633627 
L 129.02407 391.176427 
L 132.970973 390.603698 
L 136.917876 389.891409 
L 140.864779 389.011957 
L 144.811682 387.934009 
L 148.758586 386.622429 
L 152.705489 385.038333 
L 156.652392 383.13929 
L 160.599295 380.879702 
L 164.546198 378.211385 
L 168.493102 375.084381 
L 172.440005 371.448011 
L 176.386908 367.252169 
L 180.333811 362.448868 
L 184.280714 356.994015 
L 188.227617 350.849374 
L 192.174521 343.984684 
L 196.121424 336.379858 
L 200.068327 328.027194 
L 204.01523 318.933498 
L 207.962133 309.122021 
L 211.909037 298.634104 
L 215.85594 287.530416 
L 219.802843 275.891688 
L 223.749746 263.818842 
L 227.696649 251.432448 
L 231.643553 238.871446 
L 235.590456 226.291121 
L 239.537359 213.860333 
L 243.484262 201.758061 
L 247.431165 190.169327 
L 251.378069 179.280636 
L 255.324972 169.275073 
L 259.271875 160.327233 
L 263.218778 152.598184 
L 267.165681 146.230658 
L 271.112585 141.344672 
L 275.059488 138.033765 
L 279.006391 136.362025 
L 282.953294 136.362025 
L 286.900197 138.033765 
L 290.847101 141.344672 
L 294.794004 146.230658 
L 298.740907 152.598184 
L 302.68781 160.327233 
L 306.634713 169.275073 
L 310.581617 179.280636 
L 314.52852 190.169327 
L 318.475423 201.758061 
L 322.422326 213.860333 
L 326.369229 226.291121 
L 330.316133 238.871446 
L 334.263036 251.432448 
L 338.209939 263.818842 
L 342.156842 275.891688 
L 346.103745 287.530416 
L 350.050648 298.634104 
L 353.997552 309.122021 
L 357.944455 318.933498 
L 361.891358 328.027194 
L 365.838261 336.379858 
L 369.785164 343.984684 
L 373.732068 350.849374 
L 377.678971 356.994015 
L 381.625874 362.448868 
L 385.572777 367.252169 
L 389.51968 371.448011 
L 393.466584 375.084381 
L 397.413487 378.211385 
L 401.36039 380.879702 
L 405.307293 383.13929 
L 409.254196 385.038333 
L 413.2011 386.622429 
L 417.148003 387.934009 
L 421.094906 389.011957 
L 425.041809 389.891409 
L 428.988712 390.603698 
L 432.935616 391.176427 
L 436.882519 391.633627 
L 440.829422 391.99599 
L 444.776325 392.281142 
L 448.723228 392.503941 
L 452.670132 392.676792 
L 456.617035 392.809949 
L 460.563938 392.911806 
L 464.510841 392.989176 
L 468.457744 393.047535 
L 472.404648 393.09125 
L 476.351551 393.123767 
" style="fill:none;stroke:#ff6384;stroke-linecap:square;"/>
   </g>
   <g id="line2d_2">
    <path clip-path="url(#pd188589ab7)" d="M 115.93439 393.12663 
L 120.016845 393.095193 
L 124.099299 393.05293 
L 128.181753 392.996508 
L 132.264207 392.921707 
L 136.346662 392.823232 
L 140.429116 392.694497 
L 144.51157 392.527385 
L 148.594024 392.311983 
L 152.676479 392.036299 
L 156.758933 391.685968 
L 160.841387 391.243948 
L 164.923842 390.690236 
L 169.006296 390.001597 
L 173.08875 389.151346 
L 177.171204 388.109189 
L 181.253659 386.841158 
L 185.336113 385.30966 
L 189.418567 383.473671 
L 193.501021 381.289109 
L 197.583476 378.709389 
L 201.66593 375.686212 
L 205.748384 372.170582 
L 209.830838 368.114055 
L 213.913293 363.47024 
L 217.995747 358.196506 
L 222.078201 352.255888 
L 226.160656 345.619128 
L 230.24311 338.266807 
L 234.325564 330.19148 
L 238.408018 321.399725 
L 242.490473 311.914022 
L 246.572927 301.774339 
L 250.655381 291.03933 
L 254.737835 279.787046 
L 258.82029 268.115059 
L 262.902744 256.139935 
L 266.985198 243.996 
L 271.067652 231.833383 
L 275.150107 219.815339 
L 279.232561 208.114903 
L 283.315015 196.910953 
L 287.39747 186.383803 
L 291.479924 176.710458 
L 295.562378 168.059716 
L 299.644832 160.587298 
L 303.727287 154.431195 
L 307.809741 149.707439 
L 311.892195 146.506465 
L 315.974649 144.890233 
L 320.057104 144.890233 
L 324.139558 146.506465 
L 328.222012 149.707439 
L 332.304466 154.431195 
L 336.386921 160.587298 
L 340.469375 168.059716 
L 344.551829 176.710458 
L 348.634284 186.383803 
L 352.716738 196.910953 
L 356.799192 208.114903 
L 360.881646 219.815339 
L 364.964101 231.833383 
L 369.046555 243.996 
L 373.129009 256.139935 
L 377.211463 268.115059 
L 381.293918 279.787046 
L 385.376372 291.03933 
L 389.458826 301.774339 
L 393.541281 311.914022 
L 397.623735 321.399725 
L 401.706189 330.19148 
L 405.788643 338.266807 
L 409.871098 345.619128 
L 413.953552 352.255888 
L 418.036006 358.196506 
L 422.11846 363.47024 
L 426.200915 368.114055 
L 430.283369 372.170582 
L 434.365823 375.686212 
L 438.448277 378.709389 
L 442.530732 381.289109 
L 446.613186 383.473671 
L 450.69564 385.30966 
L 454.778095 386.841158 
L 458.860549 388.109189 
L 462.943003 389.151346 
L 467.025457 390.001597 
L 471.107912 390.690236 
L 475.190366 391.243948 
L 479.27282 391.685968 
L 483.355274 392.036299 
L 487.437729 392.311983 
L 491.520183 392.527385 
L 495.602637 392.694497 
L 499.685091 392.823232 
L 503.767546 392.921707 
L 507.85 392.996508 
L 511.932454 393.05293 
L 516.014909 393.095193 
L 520.097363 393.12663 
" style="fill:none;stroke:#36a2eb;stroke-linecap:square;"/>
   </g>
   <g id="line2d_3">
    <path clip-path="url(#pd188589ab7)" d="M 63.551908 393.095782 
L 66.531785 393.052713 
L 69.511662 392.994812 
L 72.491539 392.917514 
L 75.471415 392.815036 
L 78.451292 392.680124 
L 81.431169 392.503756 
L 84.411046 392.274812 
L 87.390923 391.97971 
L 90.3708 391.602021 
L 93.350676 391.122064 
L 96.330553 390.516494 
L 99.31043 389.757904 
L 102.290307 388.814463 
L 105.270184 387.649613 
L 108.25006 386.22185 
L 111.229937 384.484637 
L 114.209814 382.386473 
L 117.189691 379.871154 
L 120.169568 376.878287 
L 123.149444 373.34405 
L 126.129321 369.202275 
L 129.109198 364.385834 
L 132.089075 358.828361 
L 135.068952 352.466299 
L 138.048829 345.241243 
L 141.028705 337.10255 
L 144.008582 328.010137 
L 146.988459 317.937401 
L 149.968336 306.87414 
L 152.948213 294.829368 
L 155.928089 281.833882 
L 158.907966 267.942437 
L 161.887843 253.235392 
L 164.86772 237.819676 
L 167.847597 221.828964 
L 170.827473 205.422951 
L 173.80735 188.785667 
L 176.787227 172.122788 
L 179.767104 155.657975 
L 182.746981 139.628286 
L 185.726858 124.278789 
L 188.706734 109.856512 
L 191.686611 96.603953 
L 194.666488 84.75237 
L 197.646365 74.515099 
L 200.626242 66.081191 
L 203.606118 59.609609 
L 206.585995 55.22425 
L 209.565872 53.01 
L 212.545749 53.01 
L 215.525626 55.22425 
L 218.505502 59.609609 
L 221.485379 66.081191 
L 224.465256 74.515099 
L 227.445133 84.75237 
L 230.42501 96.603953 
L 233.404886 109.856512 
L 236.384763 124.278789 
L 239.36464 139.628286 
L 242.344517 155.657975 
L 245.324394 172.122788 
L 248.304271 188.785667 
L 251.284147 205.422951 
L 254.264024 221.828964 
L 257.243901 237.819676 
L 260.223778 253.235392 
L 263.203655 267.942437 
L 266.183531 281.833882 
L 269.163408 294.829368 
L 272.143285 306.87414 
L 275.123162 317.937401 
L 278.103039 328.010137 
L 281.082915 337.10255 
L 284.062792 345.241243 
L 287.042669 352.466299 
L 290.022546 358.828361 
L 293.002423 364.385834 
L 295.9823 369.202275 
L 298.962176 373.34405 
L 301.942053 376.878287 
L 304.92193 379.871154 
L 307.901807 382.386473 
L 310.881684 384.484637 
L 313.86156 386.22185 
L 316.841437 387.649613 
L 319.821314 388.814463 
L 322.801191 389.757904 
L 325.781068 390.516494 
L 328.760944 391.122064 
L 331.740821 391.602021 
L 334.720698 391.97971 
L 337.700575 392.274812 
L 340.680452 392.503756 
L 343.660329 392.680124 
L 346.640205 392.815036 
L 349.620082 392.917514 
L 352.599959 392.994812 
L 355.579836 393.052713 
L 358.559713 393.095782 
" style="fill:none;stroke:#4bc0c0;stroke-linecap:square;"/>
   </g>
   <g id="patch_3">
    <path d="M 40.724636 410.22 
L 542.924636 410.22 
" style="fill:none;stroke:#000000;stroke-linecap:square;stroke-linejoin:miter;stroke-width:0.8;"/>
   </g>
   <g id="legend_1">
    <g id="patch_4">
     <path d="M 353.795573 109.626875 
L 533.124636 109.626875 
Q 535.924636 109.626875 535.924636 106.826875 
L 535.924636 45.8 
Q 535.924636 43 533.124636 43 
L 353.795573 43 
Q 350.995573 43 350.995573 45.8 
L 350.995573 106.826875 
Q 350.995573 109.626875 353.795573 109.626875 
z
" style="fill:#ffffff;opacity:0.8;stroke:#cccccc;stroke-linejoin:miter;"/>
    </g>
    <g id="patch_5">
     <path d="M 356.595573 59.237813 
L 384.595573 59.237813 
L 384.595573 49.437813 
L 356.595573 49.437813 
z
" style="fill:#ff6384;opacity:0.5;stroke:#ff6384;stroke-linejoin:miter;"/>
    </g>
    <g id="text_1">
     <!-- base -->
     <defs>
      <path d="M 48.6875 27.296875 
Q 48.6875 37.203125 44.609375 42.84375 
Q 40.53125 48.484375 33.40625 48.484375 
Q 26.265625 48.484375 22.1875 42.84375 
Q 18.109375 37.203125 18.109375 27.296875 
Q 18.109375 17.390625 22.1875 11.75 
Q 26.265625 6.109375 33.40625 6.109375 
Q 40.53125 6.109375 44.609375 11.75 
Q 48.6875 17.390625 48.6875 27.296875 
z
M 18.109375 46.390625 
Q 20.953125 51.265625 25.265625 53.625 
Q 29.59375 56 35.59375 56 
Q 45.5625 56 51.78125 48.09375 
Q 58.015625 40.1875 58.015625 27.296875 
Q 58.015625 14.40625 51.78125 6.484375 
Q 45.5625 -1.421875 35.59375 -1.421875 
Q 29.59375 -1.421875 25.265625 0.953125 
Q 20.953125 3.328125 18.109375 8.203125 
L 18.109375 0 
L 9.078125 0 
L 9.078125 75.984375 
L 18.109375 75.984375 
z
" id="DejaVuSans-98"/>
      <path d="M 34.28125 27.484375 
Q 23.390625 27.484375 19.1875 25 
Q 14.984375 22.515625 14.984375 16.5 
Q 14.984375 11.71875 18.140625 8.90625 
Q 21.296875 6.109375 26.703125 6.109375 
Q 34.1875 6.109375 38.703125 11.40625 
Q 43.21875 16.703125 43.21875 25.484375 
L 43.21875 27.484375 
z
M 52.203125 31.203125 
L 52.203125 0 
L 43.21875 0 
L 43.21875 8.296875 
Q 40.140625 3.328125 35.546875 0.953125 
Q 30.953125 -1.421875 24.3125 -1.421875 
Q 15.921875 -1.421875 10.953125 3.296875 
Q 6 8.015625 6 15.921875 
Q 6 25.140625 12.171875 29.828125 
Q 18.359375 34.515625 30.609375 34.515625 
L 43.21875 34.515625 
L 43.21875 35.40625 
Q 43.21875 41.609375 39.140625 45 
Q 35.0625 48.390625 27.6875 48.390625 
Q 23 48.390625 18.546875 47.265625 
Q 14.109375 46.140625 10.015625 43.890625 
L 10.015625 52.203125 
Q 14.9375 54.109375 19.578125 55.046875 
Q 24.21875 56 28.609375 56 
Q 40.484375 56 46.34375 49.84375 
Q 52.203125 43.703125 52.203125 31.203125 
z
" id="DejaVuSans-97"/>
      <path d="M 44.28125 53.078125 
L 44.28125 44.578125 
Q 40.484375 46.53125 36.375 47.5 
Q 32.28125 48.484375 27.875 48.484375 
Q 21.1875 48.484375 17.84375 46.4375 
Q 14.5 44.390625 14.5 40.28125 
Q 14.5 37.15625 16.890625 35.375 
Q 19.28125 33.59375 26.515625 31.984375 
L 29.59375 31.296875 
Q 39.15625 29.25 43.1875 25.515625 
Q 47.21875 21.78125 47.21875 15.09375 
Q 47.21875 7.46875 41.1875 3.015625 
Q 35.15625 -1.421875 24.609375 -1.421875 
Q 20.21875 -1.421875 15.453125 -0.5625 
Q 10.6875 0.296875 5.421875 2 
L 5.421875 11.28125 
Q 10.40625 8.6875 15.234375 7.390625 
Q 20.0625 6.109375 24.8125 6.109375 
Q 31.15625 6.109375 34.5625 8.28125 
Q 37.984375 10.453125 37.984375 14.40625 
Q 37.984375 18.0625 35.515625 20.015625 
Q 33.0625 21.96875 24.703125 23.78125 
L 21.578125 24.515625 
Q 13.234375 26.265625 9.515625 29.90625 
Q 5.8125 33.546875 5.8125 39.890625 
Q 5.8125 47.609375 11.28125 51.796875 
Q 16.75 56 26.8125 56 
Q 31.78125 56 36.171875 55.265625 
Q 40.578125 54.546875 44.28125 53.078125 
z
" id="DejaVuSans-115"/>
      <path d="M 56.203125 29.59375 
L 56.203125 25.203125 
L 14.890625 25.203125 
Q 15.484375 15.921875 20.484375 11.0625 
Q 25.484375 6.203125 34.421875 6.203125 
Q 39.59375 6.203125 44.453125 7.46875 
Q 49.3125 8.734375 54.109375 11.28125 
L 54.109375 2.78125 
Q 49.265625 0.734375 44.1875 -0.34375 
Q 39.109375 -1.421875 33.890625 -1.421875 
Q 20.796875 -1.421875 13.15625 6.1875 
Q 5.515625 13.8125 5.515625 26.8125 
Q 5.515625 40.234375 12.765625 48.109375 
Q 20.015625 56 32.328125 56 
Q 43.359375 56 49.78125 48.890625 
Q 56.203125 41.796875 56.203125 29.59375 
z
M 47.21875 32.234375 
Q 47.125 39.59375 43.09375 43.984375 
Q 39.0625 48.390625 32.421875 48.390625 
Q 24.90625 48.390625 20.390625 44.140625 
Q 15.875 39.890625 15.1875 32.171875 
z
" id="DejaVuSans-101"/>
     </defs>
     <g transform="translate(395.795573 59.237813)scale(0.14 -0.14)">
      <use xlink:href="#DejaVuSans-98"/>
      <use x="63.476562" xlink:href="#DejaVuSans-97"/>
      <use x="124.755859" xlink:href="#DejaVuSans-115"/>
      <use x="176.855469" xlink:href="#DejaVuSans-101"/>
     </g>
    </g>
    <g id="patch_6">
     <path d="M 356.595573 79.787188 
L 384.595573 79.787188 
L 384.595573 69.987188 
L 356.595573 69.987188 
z
" style="fill:#36a2eb;opacity:0.5;stroke:#36a2eb;stroke-linejoin:miter;"/>
    </g>
    <g id="text_2">
     <!-- estimation_request -->
     <defs>
      <path d="M 18.3125 70.21875 
L 18.3125 54.6875 
L 36.8125 54.6875 
L 36.8125 47.703125 
L 18.3125 47.703125 
L 18.3125 18.015625 
Q 18.3125 11.328125 20.140625 9.421875 
Q 21.96875 7.515625 27.59375 7.515625 
L 36.8125 7.515625 
L 36.8125 0 
L 27.59375 0 
Q 17.1875 0 13.234375 3.875 
Q 9.28125 7.765625 9.28125 18.015625 
L 9.28125 47.703125 
L 2.6875 47.703125 
L 2.6875 54.6875 
L 9.28125 54.6875 
L 9.28125 70.21875 
z
" id="DejaVuSans-116"/>
      <path d="M 9.421875 54.6875 
L 18.40625 54.6875 
L 18.40625 0 
L 9.421875 0 
z
M 9.421875 75.984375 
L 18.40625 75.984375 
L 18.40625 64.59375 
L 9.421875 64.59375 
z
" id="DejaVuSans-105"/>
      <path d="M 52 44.1875 
Q 55.375 50.25 60.0625 53.125 
Q 64.75 56 71.09375 56 
Q 79.640625 56 84.28125 50.015625 
Q 88.921875 44.046875 88.921875 33.015625 
L 88.921875 0 
L 79.890625 0 
L 79.890625 32.71875 
Q 79.890625 40.578125 77.09375 44.375 
Q 74.3125 48.1875 68.609375 48.1875 
Q 61.625 48.1875 57.5625 43.546875 
Q 53.515625 38.921875 53.515625 30.90625 
L 53.515625 0 
L 44.484375 0 
L 44.484375 32.71875 
Q 44.484375 40.625 41.703125 44.40625 
Q 38.921875 48.1875 33.109375 48.1875 
Q 26.21875 48.1875 22.15625 43.53125 
Q 18.109375 38.875 18.109375 30.90625 
L 18.109375 0 
L 9.078125 0 
L 9.078125 54.6875 
L 18.109375 54.6875 
L 18.109375 46.1875 
Q 21.1875 51.21875 25.484375 53.609375 
Q 29.78125 56 35.6875 56 
Q 41.65625 56 45.828125 52.96875 
Q 50 49.953125 52 44.1875 
z
" id="DejaVuSans-109"/>
      <path d="M 30.609375 48.390625 
Q 23.390625 48.390625 19.1875 42.75 
Q 14.984375 37.109375 14.984375 27.296875 
Q 14.984375 17.484375 19.15625 11.84375 
Q 23.34375 6.203125 30.609375 6.203125 
Q 37.796875 6.203125 41.984375 11.859375 
Q 46.1875 17.53125 46.1875 27.296875 
Q 46.1875 37.015625 41.984375 42.703125 
Q 37.796875 48.390625 30.609375 48.390625 
z
M 30.609375 56 
Q 42.328125 56 49.015625 48.375 
Q 55.71875 40.765625 55.71875 27.296875 
Q 55.71875 13.875 49.015625 6.21875 
Q 42.328125 -1.421875 30.609375 -1.421875 
Q 18.84375 -1.421875 12.171875 6.21875 
Q 5.515625 13.875 5.515625 27.296875 
Q 5.515625 40.765625 12.171875 48.375 
Q 18.84375 56 30.609375 56 
z
" id="DejaVuSans-111"/>
      <path d="M 54.890625 33.015625 
L 54.890625 0 
L 45.90625 0 
L 45.90625 32.71875 
Q 45.90625 40.484375 42.875 44.328125 
Q 39.84375 48.1875 33.796875 48.1875 
Q 26.515625 48.1875 22.3125 43.546875 
Q 18.109375 38.921875 18.109375 30.90625 
L 18.109375 0 
L 9.078125 0 
L 9.078125 54.6875 
L 18.109375 54.6875 
L 18.109375 46.1875 
Q 21.34375 51.125 25.703125 53.5625 
Q 30.078125 56 35.796875 56 
Q 45.21875 56 50.046875 50.171875 
Q 54.890625 44.34375 54.890625 33.015625 
z
" id="DejaVuSans-110"/>
      <path d="M 50.984375 -16.609375 
L 50.984375 -23.578125 
L -0.984375 -23.578125 
L -0.984375 -16.609375 
z
" id="DejaVuSans-95"/>
      <path d="M 41.109375 46.296875 
Q 39.59375 47.171875 37.8125 47.578125 
Q 36.03125 48 33.890625 48 
Q 26.265625 48 22.1875 43.046875 
Q 18.109375 38.09375 18.109375 28.8125 
L 18.109375 0 
L 9.078125 0 
L 9.078125 54.6875 
L 18.109375 54.6875 
L 18.109375 46.1875 
Q 20.953125 51.171875 25.484375 53.578125 
Q 30.03125 56 36.53125 56 
Q 37.453125 56 38.578125 55.875 
Q 39.703125 55.765625 41.0625 55.515625 
z
" id="DejaVuSans-114"/>
      <path d="M 14.796875 27.296875 
Q 14.796875 17.390625 18.875 11.75 
Q 22.953125 6.109375 30.078125 6.109375 
Q 37.203125 6.109375 41.296875 11.75 
Q 45.40625 17.390625 45.40625 27.296875 
Q 45.40625 37.203125 41.296875 42.84375 
Q 37.203125 48.484375 30.078125 48.484375 
Q 22.953125 48.484375 18.875 42.84375 
Q 14.796875 37.203125 14.796875 27.296875 
z
M 45.40625 8.203125 
Q 42.578125 3.328125 38.25 0.953125 
Q 33.9375 -1.421875 27.875 -1.421875 
Q 17.96875 -1.421875 11.734375 6.484375 
Q 5.515625 14.40625 5.515625 27.296875 
Q 5.515625 40.1875 11.734375 48.09375 
Q 17.96875 56 27.875 56 
Q 33.9375 56 38.25 53.625 
Q 42.578125 51.265625 45.40625 46.390625 
L 45.40625 54.6875 
L 54.390625 54.6875 
L 54.390625 -20.796875 
L 45.40625 -20.796875 
z
" id="DejaVuSans-113"/>
      <path d="M 8.5 21.578125 
L 8.5 54.6875 
L 17.484375 54.6875 
L 17.484375 21.921875 
Q 17.484375 14.15625 20.5 10.265625 
Q 23.53125 6.390625 29.59375 6.390625 
Q 36.859375 6.390625 41.078125 11.03125 
Q 45.3125 15.671875 45.3125 23.6875 
L 45.3125 54.6875 
L 54.296875 54.6875 
L 54.296875 0 
L 45.3125 0 
L 45.3125 8.40625 
Q 42.046875 3.421875 37.71875 1 
Q 33.40625 -1.421875 27.6875 -1.421875 
Q 18.265625 -1.421875 13.375 4.4375 
Q 8.5 10.296875 8.5 21.578125 
z
M 31.109375 56 
z
" id="DejaVuSans-117"/>
     </defs>
     <g transform="translate(395.795573 79.787188)scale(0.14 -0.14)">
      <use xlink:href="#DejaVuSans-101"/>
      <use x="61.523438" xlink:href="#DejaVuSans-115"/>
      <use x="113.623047" xlink:href="#DejaVuSans-116"/>
      <use x="152.832031" xlink:href="#DejaVuSans-105"/>
      <use x="180.615234" xlink:href="#DejaVuSans-109"/>
      <use x="278.027344" xlink:href="#DejaVuSans-97"/>
      <use x="339.306641" xlink:href="#DejaVuSans-116"/>
      <use x="378.515625" xlink:href="#DejaVuSans-105"/>
      <use x="406.298828" xlink:href="#DejaVuSans-111"/>
      <use x="467.480469" xlink:href="#DejaVuSans-110"/>
      <use x="530.859375" xlink:href="#DejaVuSans-95"/>
      <use x="580.859375" xlink:href="#DejaVuSans-114"/>
      <use x="619.722656" xlink:href="#DejaVuSans-101"/>
      <use x="681.246094" xlink:href="#DejaVuSans-113"/>
      <use x="744.722656" xlink:href="#DejaVuSans-117"/>
      <use x="808.101562" xlink:href="#DejaVuSans-101"/>
      <use x="869.625" xlink:href="#DejaVuSans-115"/>
      <use x="921.724609" xlink:href="#DejaVuSans-116"/>
     </g>
    </g>
    <g id="patch_7">
     <path d="M 356.595573 100.725938 
L 384.595573 100.725938 
L 384.595573 90.925938 
L 356.595573 90.925938 
z
" style="fill:#4bc0c0;opacity:0.5;stroke:#4bc0c0;stroke-linejoin:miter;"/>
    </g>
    <g id="text_3">
     <!-- no_request -->
     <g transform="translate(395.795573 100.725938)scale(0.14 -0.14)">
      <use xlink:href="#DejaVuSans-110"/>
      <use x="63.378906" xlink:href="#DejaVuSans-111"/>
      <use x="124.560547" xlink:href="#DejaVuSans-95"/>
      <use x="174.560547" xlink:href="#DejaVuSans-114"/>
      <use x="213.423828" xlink:href="#DejaVuSans-101"/>
      <use x="274.947266" xlink:href="#DejaVuSans-113"/>
      <use x="338.423828" xlink:href="#DejaVuSans-117"/>
      <use x="401.802734" xlink:href="#DejaVuSans-101"/>
      <use x="463.326172" xlink:href="#DejaVuSans-115"/>
      <use x="515.425781" xlink:href="#DejaVuSans-116"/>
     </g>
    </g>
   </g>
  </g>
  <g id="axes_2">
   <g id="patch_8">
    <path d="M 40.724636 534.96 
L 542.924636 534.96 
L 542.924636 410.22 
L 40.724636 410.22 
z
" style="fill:none;"/>
   </g>
   <g id="patch_9">
    <path clip-path="url(#pcbb05e9652)" d="M 185.247706 529.29 
L 376.71198 529.29 
L 376.71198 506.61 
L 185.247706 506.61 
z
" style="fill:#ff6384;opacity:0.5;"/>
   </g>
   <g id="patch_10">
    <path clip-path="url(#pcbb05e9652)" d="M 218.995948 483.93 
L 417.035805 483.93 
L 417.035805 461.25 
L 218.995948 461.25 
z
" style="fill:#36a2eb;opacity:0.5;"/>
   </g>
   <g id="patch_11">
    <path clip-path="url(#pcbb05e9652)" d="M 138.778898 438.57 
L 283.332722 438.57 
L 283.332722 415.89 
L 138.778898 415.89 
z
" style="fill:#4bc0c0;opacity:0.5;"/>
   </g>
   <g id="matplotlib.axis_1">
    <g id="xtick_1">
     <g id="line2d_4">
      <defs>
       <path d="M 0 0 
L 0 3.5 
" id="m81fa1bf066" style="stroke:#000000;stroke-width:0.8;"/>
      </defs>
      <g>
       <use style="stroke:#000000;stroke-width:0.8;" x="46.319531" xlink:href="#m81fa1bf066" y="534.96"/>
      </g>
     </g>
     <g id="text_4">
      <!-- −4 -->
      <defs>
       <path d="M 10.59375 35.5 
L 73.1875 35.5 
L 73.1875 27.203125 
L 10.59375 27.203125 
z
" id="DejaVuSans-8722"/>
       <path d="M 37.796875 64.3125 
L 12.890625 25.390625 
L 37.796875 25.390625 
z
M 35.203125 72.90625 
L 47.609375 72.90625 
L 47.609375 25.390625 
L 58.015625 25.390625 
L 58.015625 17.1875 
L 47.609375 17.1875 
L 47.609375 0 
L 37.796875 0 
L 37.796875 17.1875 
L 4.890625 17.1875 
L 4.890625 26.703125 
z
" id="DejaVuSans-52"/>
      </defs>
      <g transform="translate(36 552.597813)scale(0.14 -0.14)">
       <use xlink:href="#DejaVuSans-8722"/>
       <use x="83.789062" xlink:href="#DejaVuSans-52"/>
      </g>
     </g>
    </g>
    <g id="xtick_2">
     <g id="line2d_5">
      <g>
       <use style="stroke:#000000;stroke-width:0.8;" x="105.577186" xlink:href="#m81fa1bf066" y="534.96"/>
      </g>
     </g>
     <g id="text_5">
      <!-- −2 -->
      <defs>
       <path d="M 19.1875 8.296875 
L 53.609375 8.296875 
L 53.609375 0 
L 7.328125 0 
L 7.328125 8.296875 
Q 12.9375 14.109375 22.625 23.890625 
Q 32.328125 33.6875 34.8125 36.53125 
Q 39.546875 41.84375 41.421875 45.53125 
Q 43.3125 49.21875 43.3125 52.78125 
Q 43.3125 58.59375 39.234375 62.25 
Q 35.15625 65.921875 28.609375 65.921875 
Q 23.96875 65.921875 18.8125 64.3125 
Q 13.671875 62.703125 7.8125 59.421875 
L 7.8125 69.390625 
Q 13.765625 71.78125 18.9375 73 
Q 24.125 74.21875 28.421875 74.21875 
Q 39.75 74.21875 46.484375 68.546875 
Q 53.21875 62.890625 53.21875 53.421875 
Q 53.21875 48.921875 51.53125 44.890625 
Q 49.859375 40.875 45.40625 35.40625 
Q 44.1875 33.984375 37.640625 27.21875 
Q 31.109375 20.453125 19.1875 8.296875 
z
" id="DejaVuSans-50"/>
      </defs>
      <g transform="translate(95.257654 552.597813)scale(0.14 -0.14)">
       <use xlink:href="#DejaVuSans-8722"/>
       <use x="83.789062" xlink:href="#DejaVuSans-50"/>
      </g>
     </g>
    </g>
    <g id="xtick_3">
     <g id="line2d_6">
      <g>
       <use style="stroke:#000000;stroke-width:0.8;" x="164.83484" xlink:href="#m81fa1bf066" y="534.96"/>
      </g>
     </g>
     <g id="text_6">
      <!-- 0 -->
      <defs>
       <path d="M 31.78125 66.40625 
Q 24.171875 66.40625 20.328125 58.90625 
Q 16.5 51.421875 16.5 36.375 
Q 16.5 21.390625 20.328125 13.890625 
Q 24.171875 6.390625 31.78125 6.390625 
Q 39.453125 6.390625 43.28125 13.890625 
Q 47.125 21.390625 47.125 36.375 
Q 47.125 51.421875 43.28125 58.90625 
Q 39.453125 66.40625 31.78125 66.40625 
z
M 31.78125 74.21875 
Q 44.046875 74.21875 50.515625 64.515625 
Q 56.984375 54.828125 56.984375 36.375 
Q 56.984375 17.96875 50.515625 8.265625 
Q 44.046875 -1.421875 31.78125 -1.421875 
Q 19.53125 -1.421875 13.0625 8.265625 
Q 6.59375 17.96875 6.59375 36.375 
Q 6.59375 54.828125 13.0625 64.515625 
Q 19.53125 74.21875 31.78125 74.21875 
z
" id="DejaVuSans-48"/>
      </defs>
      <g transform="translate(160.38109 552.597813)scale(0.14 -0.14)">
       <use xlink:href="#DejaVuSans-48"/>
      </g>
     </g>
    </g>
    <g id="xtick_4">
     <g id="line2d_7">
      <g>
       <use style="stroke:#000000;stroke-width:0.8;" x="224.092494" xlink:href="#m81fa1bf066" y="534.96"/>
      </g>
     </g>
     <g id="text_7">
      <!-- 2 -->
      <g transform="translate(219.638744 552.597813)scale(0.14 -0.14)">
       <use xlink:href="#DejaVuSans-50"/>
      </g>
     </g>
    </g>
    <g id="xtick_5">
     <g id="line2d_8">
      <g>
       <use style="stroke:#000000;stroke-width:0.8;" x="283.350149" xlink:href="#m81fa1bf066" y="534.96"/>
      </g>
     </g>
     <g id="text_8">
      <!-- 4 -->
      <g transform="translate(278.896399 552.597813)scale(0.14 -0.14)">
       <use xlink:href="#DejaVuSans-52"/>
      </g>
     </g>
    </g>
    <g id="xtick_6">
     <g id="line2d_9">
      <g>
       <use style="stroke:#000000;stroke-width:0.8;" x="342.607803" xlink:href="#m81fa1bf066" y="534.96"/>
      </g>
     </g>
     <g id="text_9">
      <!-- 6 -->
      <defs>
       <path d="M 33.015625 40.375 
Q 26.375 40.375 22.484375 35.828125 
Q 18.609375 31.296875 18.609375 23.390625 
Q 18.609375 15.53125 22.484375 10.953125 
Q 26.375 6.390625 33.015625 6.390625 
Q 39.65625 6.390625 43.53125 10.953125 
Q 47.40625 15.53125 47.40625 23.390625 
Q 47.40625 31.296875 43.53125 35.828125 
Q 39.65625 40.375 33.015625 40.375 
z
M 52.59375 71.296875 
L 52.59375 62.3125 
Q 48.875 64.0625 45.09375 64.984375 
Q 41.3125 65.921875 37.59375 65.921875 
Q 27.828125 65.921875 22.671875 59.328125 
Q 17.53125 52.734375 16.796875 39.40625 
Q 19.671875 43.65625 24.015625 45.921875 
Q 28.375 48.1875 33.59375 48.1875 
Q 44.578125 48.1875 50.953125 41.515625 
Q 57.328125 34.859375 57.328125 23.390625 
Q 57.328125 12.15625 50.6875 5.359375 
Q 44.046875 -1.421875 33.015625 -1.421875 
Q 20.359375 -1.421875 13.671875 8.265625 
Q 6.984375 17.96875 6.984375 36.375 
Q 6.984375 53.65625 15.1875 63.9375 
Q 23.390625 74.21875 37.203125 74.21875 
Q 40.921875 74.21875 44.703125 73.484375 
Q 48.484375 72.75 52.59375 71.296875 
z
" id="DejaVuSans-54"/>
      </defs>
      <g transform="translate(338.154053 552.597813)scale(0.14 -0.14)">
       <use xlink:href="#DejaVuSans-54"/>
      </g>
     </g>
    </g>
    <g id="xtick_7">
     <g id="line2d_10">
      <g>
       <use style="stroke:#000000;stroke-width:0.8;" x="401.865457" xlink:href="#m81fa1bf066" y="534.96"/>
      </g>
     </g>
     <g id="text_10">
      <!-- 8 -->
      <defs>
       <path d="M 31.78125 34.625 
Q 24.75 34.625 20.71875 30.859375 
Q 16.703125 27.09375 16.703125 20.515625 
Q 16.703125 13.921875 20.71875 10.15625 
Q 24.75 6.390625 31.78125 6.390625 
Q 38.8125 6.390625 42.859375 10.171875 
Q 46.921875 13.96875 46.921875 20.515625 
Q 46.921875 27.09375 42.890625 30.859375 
Q 38.875 34.625 31.78125 34.625 
z
M 21.921875 38.8125 
Q 15.578125 40.375 12.03125 44.71875 
Q 8.5 49.078125 8.5 55.328125 
Q 8.5 64.0625 14.71875 69.140625 
Q 20.953125 74.21875 31.78125 74.21875 
Q 42.671875 74.21875 48.875 69.140625 
Q 55.078125 64.0625 55.078125 55.328125 
Q 55.078125 49.078125 51.53125 44.71875 
Q 48 40.375 41.703125 38.8125 
Q 48.828125 37.15625 52.796875 32.3125 
Q 56.78125 27.484375 56.78125 20.515625 
Q 56.78125 9.90625 50.3125 4.234375 
Q 43.84375 -1.421875 31.78125 -1.421875 
Q 19.734375 -1.421875 13.25 4.234375 
Q 6.78125 9.90625 6.78125 20.515625 
Q 6.78125 27.484375 10.78125 32.3125 
Q 14.796875 37.15625 21.921875 38.8125 
z
M 18.3125 54.390625 
Q 18.3125 48.734375 21.84375 45.5625 
Q 25.390625 42.390625 31.78125 42.390625 
Q 38.140625 42.390625 41.71875 45.5625 
Q 45.3125 48.734375 45.3125 54.390625 
Q 45.3125 60.0625 41.71875 63.234375 
Q 38.140625 66.40625 31.78125 66.40625 
Q 25.390625 66.40625 21.84375 63.234375 
Q 18.3125 60.0625 18.3125 54.390625 
z
" id="DejaVuSans-56"/>
      </defs>
      <g transform="translate(397.411707 552.597813)scale(0.14 -0.14)">
       <use xlink:href="#DejaVuSans-56"/>
      </g>
     </g>
    </g>
    <g id="xtick_8">
     <g id="line2d_11">
      <g>
       <use style="stroke:#000000;stroke-width:0.8;" x="461.123112" xlink:href="#m81fa1bf066" y="534.96"/>
      </g>
     </g>
     <g id="text_11">
      <!-- 10 -->
      <defs>
       <path d="M 12.40625 8.296875 
L 28.515625 8.296875 
L 28.515625 63.921875 
L 10.984375 60.40625 
L 10.984375 69.390625 
L 28.421875 72.90625 
L 38.28125 72.90625 
L 38.28125 8.296875 
L 54.390625 8.296875 
L 54.390625 0 
L 12.40625 0 
z
" id="DejaVuSans-49"/>
      </defs>
      <g transform="translate(452.215612 552.597813)scale(0.14 -0.14)">
       <use xlink:href="#DejaVuSans-49"/>
       <use x="63.623047" xlink:href="#DejaVuSans-48"/>
      </g>
     </g>
    </g>
    <g id="xtick_9">
     <g id="line2d_12">
      <g>
       <use style="stroke:#000000;stroke-width:0.8;" x="520.380766" xlink:href="#m81fa1bf066" y="534.96"/>
      </g>
     </g>
     <g id="text_12">
      <!-- 12 -->
      <g transform="translate(511.473266 552.597813)scale(0.14 -0.14)">
       <use xlink:href="#DejaVuSans-49"/>
       <use x="63.623047" xlink:href="#DejaVuSans-50"/>
      </g>
     </g>
    </g>
   </g>
   <g id="line2d_13">
    <path clip-path="url(#pcbb05e9652)" d="M 280.979843 534.96 
L 280.979843 410.22 
" style="fill:none;stroke:#ff6384;stroke-dasharray:5.55,2.4;stroke-dashoffset:0;stroke-opacity:0.8;stroke-width:1.5;"/>
   </g>
   <g id="line2d_14">
    <path clip-path="url(#pcbb05e9652)" d="M 318.015877 534.96 
L 318.015877 410.22 
" style="fill:none;stroke:#36a2eb;stroke-dasharray:5.55,2.4;stroke-dashoffset:0;stroke-opacity:0.8;stroke-width:1.5;"/>
   </g>
   <g id="line2d_15">
    <path clip-path="url(#pcbb05e9652)" d="M 211.05581 534.96 
L 211.05581 410.22 
" style="fill:none;stroke:#4bc0c0;stroke-dasharray:5.55,2.4;stroke-dashoffset:0;stroke-opacity:0.8;stroke-width:1.5;"/>
   </g>
   <g id="patch_12">
    <path d="M 40.724636 534.96 
L 542.924636 534.96 
" style="fill:none;stroke:#000000;stroke-linecap:square;stroke-linejoin:miter;stroke-width:0.8;"/>
   </g>
  </g>
 </g>
 <defs>
  <clipPath id="pd188589ab7">
   <rect height="374.22" width="502.2" x="40.724636" y="36"/>
  </clipPath>
  <clipPath id="pcbb05e9652">
   <rect height="124.74" width="502.2" x="40.724636" y="410.22"/>
  </clipPath>
 </defs>
</svg>
