<?xml version="1.0" encoding="utf-8" standalone="no"?>
<!DOCTYPE svg PUBLIC "-//W3C//DTD SVG 1.1//EN"
  "http://www.w3.org/Graphics/SVG/1.1/DTD/svg11.dtd">
<!-- Created with matplotlib (https://matplotlib.org/) -->
<svg height="581.789375pt" version="1.1" viewBox="0 0 574.2 581.789375" width="574.2pt" xmlns="http://www.w3.org/2000/svg" xmlns:xlink="http://www.w3.org/1999/xlink">
 <defs>
  <style type="text/css">
*{stroke-linecap:butt;stroke-linejoin:round;}
  </style>
 </defs>
 <g id="figure_1">
  <g id="patch_1">
   <path d="M 0 581.789375 
L 574.2 581.789375 
L 574.2 0 
L 0 0 
z
" style="fill:none;"/>
  </g>
  <g id="axes_1">
   <g id="patch_2">
    <path d="M 36 402.93 
L 538.2 402.93 
L 538.2 36 
L 36 36 
z
" style="fill:none;"/>
   </g>
   <g id="PolyCollection_1">
    <defs>
     <path d="M 124.844854 -195.538011 
L 124.844854 -195.650004 
L 128.78958 -195.692234 
L 132.734306 -195.749007 
L 136.679032 -195.8248 
L 140.623758 -195.925281 
L 144.568484 -196.057565 
L 148.51321 -196.230497 
L 152.457936 -196.454982 
L 156.402662 -196.744335 
L 160.347388 -197.114666 
L 164.292114 -197.585273 
L 168.23684 -198.179047 
L 172.181566 -198.922859 
L 176.126292 -199.847921 
L 180.071018 -200.990079 
L 184.015744 -202.390029 
L 187.96047 -204.093399 
L 191.905196 -206.150691 
L 195.849922 -208.617009 
L 199.794648 -211.551575 
L 203.739374 -215.016962 
L 207.6841 -219.078053 
L 211.628826 -223.800667 
L 215.573552 -229.249878 
L 219.518278 -235.488004 
L 223.463004 -242.572312 
L 227.40773 -250.552459 
L 231.352456 -259.467747 
L 235.297182 -269.344261 
L 239.241908 -280.192004 
L 243.186634 -292.002137 
L 247.13136 -304.744465 
L 251.076086 -318.365297 
L 255.020812 -332.785841 
L 258.965538 -347.901251 
L 262.910264 -363.580456 
L 266.85499 -379.666871 
L 270.799716 -395.980052 
L 274.744442 -412.31833 
L 278.689168 -428.4624 
L 282.633894 -444.179822 
L 286.57862 -459.230303 
L 290.523346 -473.371627 
L 294.468072 -486.366018 
L 298.412798 -497.986726 
L 302.357524 -508.02457 
L 306.30225 -516.294181 
L 310.246976 -522.639693 
L 314.191702 -526.939623 
L 318.136428 -529.110739 
L 322.081154 -529.110739 
L 326.02588 -526.939623 
L 329.970606 -522.639693 
L 333.915332 -516.294181 
L 337.860058 -508.02457 
L 341.804784 -497.986726 
L 345.74951 -486.366018 
L 349.694236 -473.371627 
L 353.638962 -459.230303 
L 357.583688 -444.179822 
L 361.528414 -428.4624 
L 365.47314 -412.31833 
L 369.417866 -395.980052 
L 373.362592 -379.666871 
L 377.307318 -363.580456 
L 381.252044 -347.901251 
L 385.19677 -332.785841 
L 389.141496 -318.365297 
L 393.086222 -304.744465 
L 397.030948 -292.002137 
L 400.975674 -280.192004 
L 404.9204 -269.344261 
L 408.865126 -259.467747 
L 412.809852 -250.552459 
L 416.754578 -242.572312 
L 420.699304 -235.488004 
L 424.644029 -229.249878 
L 428.588755 -223.800667 
L 432.533481 -219.078053 
L 436.478207 -215.016962 
L 440.422933 -211.551575 
L 444.367659 -208.617009 
L 448.312385 -206.150691 
L 452.257111 -204.093399 
L 456.201837 -202.390029 
L 460.146563 -200.990079 
L 464.091289 -199.847921 
L 468.036015 -198.922859 
L 471.980741 -198.179047 
L 475.925467 -197.585273 
L 479.870193 -197.114666 
L 483.814919 -196.744335 
L 487.759645 -196.454982 
L 491.704371 -196.230497 
L 495.649097 -196.057565 
L 499.593823 -195.925281 
L 503.538549 -195.8248 
L 507.483275 -195.749007 
L 511.428001 -195.692234 
L 515.372727 -195.650004 
L 515.372727 -195.538011 
L 515.372727 -195.538011 
L 511.428001 -195.538011 
L 507.483275 -195.538011 
L 503.538549 -195.538011 
L 499.593823 -195.538011 
L 495.649097 -195.538011 
L 491.704371 -195.538011 
L 487.759645 -195.538011 
L 483.814919 -195.538011 
L 479.870193 -195.538011 
L 475.925467 -195.538011 
L 471.980741 -195.538011 
L 468.036015 -195.538011 
L 464.091289 -195.538011 
L 460.146563 -195.538011 
L 456.201837 -195.538011 
L 452.257111 -195.538011 
L 448.312385 -195.538011 
L 444.367659 -195.538011 
L 440.422933 -195.538011 
L 436.478207 -195.538011 
L 432.533481 -195.538011 
L 428.588755 -195.538011 
L 424.644029 -195.538011 
L 420.699304 -195.538011 
L 416.754578 -195.538011 
L 412.809852 -195.538011 
L 408.865126 -195.538011 
L 404.9204 -195.538011 
L 400.975674 -195.538011 
L 397.030948 -195.538011 
L 393.086222 -195.538011 
L 389.141496 -195.538011 
L 385.19677 -195.538011 
L 381.252044 -195.538011 
L 377.307318 -195.538011 
L 373.362592 -195.538011 
L 369.417866 -195.538011 
L 365.47314 -195.538011 
L 361.528414 -195.538011 
L 357.583688 -195.538011 
L 353.638962 -195.538011 
L 349.694236 -195.538011 
L 345.74951 -195.538011 
L 341.804784 -195.538011 
L 337.860058 -195.538011 
L 333.915332 -195.538011 
L 329.970606 -195.538011 
L 326.02588 -195.538011 
L 322.081154 -195.538011 
L 318.136428 -195.538011 
L 314.191702 -195.538011 
L 310.246976 -195.538011 
L 306.30225 -195.538011 
L 302.357524 -195.538011 
L 298.412798 -195.538011 
L 294.468072 -195.538011 
L 290.523346 -195.538011 
L 286.57862 -195.538011 
L 282.633894 -195.538011 
L 278.689168 -195.538011 
L 274.744442 -195.538011 
L 270.799716 -195.538011 
L 266.85499 -195.538011 
L 262.910264 -195.538011 
L 258.965538 -195.538011 
L 255.020812 -195.538011 
L 251.076086 -195.538011 
L 247.13136 -195.538011 
L 243.186634 -195.538011 
L 239.241908 -195.538011 
L 235.297182 -195.538011 
L 231.352456 -195.538011 
L 227.40773 -195.538011 
L 223.463004 -195.538011 
L 219.518278 -195.538011 
L 215.573552 -195.538011 
L 211.628826 -195.538011 
L 207.6841 -195.538011 
L 203.739374 -195.538011 
L 199.794648 -195.538011 
L 195.849922 -195.538011 
L 191.905196 -195.538011 
L 187.96047 -195.538011 
L 184.015744 -195.538011 
L 180.071018 -195.538011 
L 176.126292 -195.538011 
L 172.181566 -195.538011 
L 168.23684 -195.538011 
L 164.292114 -195.538011 
L 160.347388 -195.538011 
L 156.402662 -195.538011 
L 152.457936 -195.538011 
L 148.51321 -195.538011 
L 144.568484 -195.538011 
L 140.623758 -195.538011 
L 136.679032 -195.538011 
L 132.734306 -195.538011 
L 128.78958 -195.538011 
L 124.844854 -195.538011 
z
" id="m0b5258e5ac" style="stroke:#ff6384;stroke-opacity:0.5;"/>
    </defs>
    <g clip-path="url(#p103c3b2dbc)">
     <use style="fill:#ff6384;fill-opacity:0.5;stroke:#ff6384;stroke-opacity:0.5;" x="0" xlink:href="#m0b5258e5ac" y="581.789375"/>
    </g>
   </g>
   <g id="PolyCollection_2">
    <defs>
     <path d="M 58.827273 -195.538011 
L 58.827273 -195.642928 
L 63.038053 -195.68249 
L 67.248834 -195.735675 
L 71.459614 -195.806679 
L 75.670394 -195.900812 
L 79.881175 -196.024737 
L 84.091955 -196.186743 
L 88.302736 -196.397044 
L 92.513516 -196.668115 
L 96.724296 -197.015046 
L 100.935077 -197.455919 
L 105.145857 -198.012175 
L 109.356638 -198.708991 
L 113.567418 -199.575603 
L 117.778198 -200.645595 
L 121.988979 -201.95709 
L 126.199759 -203.552835 
L 130.41054 -205.480138 
L 134.62132 -207.790624 
L 138.8321 -210.539772 
L 143.042881 -213.786202 
L 147.253661 -217.590696 
L 151.464442 -222.014917 
L 155.675222 -227.119823 
L 159.886002 -232.963799 
L 164.096783 -239.600492 
L 168.307563 -247.07642 
L 172.518344 -255.428403 
L 176.729124 -264.680878 
L 180.939904 -274.843216 
L 185.150685 -285.907137 
L 189.361465 -297.844352 
L 193.572246 -310.604564 
L 197.783026 -324.113959 
L 201.993807 -338.274315 
L 206.204587 -352.962843 
L 210.415367 -368.032853 
L 214.626148 -383.3153 
L 218.836928 -398.621258 
L 223.047709 -413.74528 
L 227.258489 -428.46961 
L 231.469269 -442.56914 
L 235.68005 -455.816957 
L 239.89083 -467.990309 
L 244.101611 -478.876773 
L 248.312391 -488.280384 
L 252.523171 -496.027488 
L 256.733952 -501.972064 
L 260.944732 -506.000307 
L 265.155513 -508.034242 
L 269.366293 -508.034242 
L 273.577073 -506.000307 
L 277.787854 -501.972064 
L 281.998634 -496.027488 
L 286.209415 -488.280384 
L 290.420195 -478.876773 
L 294.630975 -467.990309 
L 298.841756 -455.816957 
L 303.052536 -442.56914 
L 307.263317 -428.46961 
L 311.474097 -413.74528 
L 315.684877 -398.621258 
L 319.895658 -383.3153 
L 324.106438 -368.032853 
L 328.317219 -352.962843 
L 332.527999 -338.274315 
L 336.73878 -324.113959 
L 340.94956 -310.604564 
L 345.16034 -297.844352 
L 349.371121 -285.907137 
L 353.581901 -274.843216 
L 357.792682 -264.680878 
L 362.003462 -255.428403 
L 366.214242 -247.07642 
L 370.425023 -239.600492 
L 374.635803 -232.963799 
L 378.846584 -227.119823 
L 383.057364 -222.014917 
L 387.268144 -217.590696 
L 391.478925 -213.786202 
L 395.689705 -210.539772 
L 399.900486 -207.790624 
L 404.111266 -205.480138 
L 408.322046 -203.552835 
L 412.532827 -201.95709 
L 416.743607 -200.645595 
L 420.954388 -199.575603 
L 425.165168 -198.708991 
L 429.375948 -198.012175 
L 433.586729 -197.455919 
L 437.797509 -197.015046 
L 442.00829 -196.668115 
L 446.21907 -196.397044 
L 450.42985 -196.186743 
L 454.640631 -196.024737 
L 458.851411 -195.900812 
L 463.062192 -195.806679 
L 467.272972 -195.735675 
L 471.483753 -195.68249 
L 475.694533 -195.642928 
L 475.694533 -195.538011 
L 475.694533 -195.538011 
L 471.483753 -195.538011 
L 467.272972 -195.538011 
L 463.062192 -195.538011 
L 458.851411 -195.538011 
L 454.640631 -195.538011 
L 450.42985 -195.538011 
L 446.21907 -195.538011 
L 442.00829 -195.538011 
L 437.797509 -195.538011 
L 433.586729 -195.538011 
L 429.375948 -195.538011 
L 425.165168 -195.538011 
L 420.954388 -195.538011 
L 416.743607 -195.538011 
L 412.532827 -195.538011 
L 408.322046 -195.538011 
L 404.111266 -195.538011 
L 399.900486 -195.538011 
L 395.689705 -195.538011 
L 391.478925 -195.538011 
L 387.268144 -195.538011 
L 383.057364 -195.538011 
L 378.846584 -195.538011 
L 374.635803 -195.538011 
L 370.425023 -195.538011 
L 366.214242 -195.538011 
L 362.003462 -195.538011 
L 357.792682 -195.538011 
L 353.581901 -195.538011 
L 349.371121 -195.538011 
L 345.16034 -195.538011 
L 340.94956 -195.538011 
L 336.73878 -195.538011 
L 332.527999 -195.538011 
L 328.317219 -195.538011 
L 324.106438 -195.538011 
L 319.895658 -195.538011 
L 315.684877 -195.538011 
L 311.474097 -195.538011 
L 307.263317 -195.538011 
L 303.052536 -195.538011 
L 298.841756 -195.538011 
L 294.630975 -195.538011 
L 290.420195 -195.538011 
L 286.209415 -195.538011 
L 281.998634 -195.538011 
L 277.787854 -195.538011 
L 273.577073 -195.538011 
L 269.366293 -195.538011 
L 265.155513 -195.538011 
L 260.944732 -195.538011 
L 256.733952 -195.538011 
L 252.523171 -195.538011 
L 248.312391 -195.538011 
L 244.101611 -195.538011 
L 239.89083 -195.538011 
L 235.68005 -195.538011 
L 231.469269 -195.538011 
L 227.258489 -195.538011 
L 223.047709 -195.538011 
L 218.836928 -195.538011 
L 214.626148 -195.538011 
L 210.415367 -195.538011 
L 206.204587 -195.538011 
L 201.993807 -195.538011 
L 197.783026 -195.538011 
L 193.572246 -195.538011 
L 189.361465 -195.538011 
L 185.150685 -195.538011 
L 180.939904 -195.538011 
L 176.729124 -195.538011 
L 172.518344 -195.538011 
L 168.307563 -195.538011 
L 164.096783 -195.538011 
L 159.886002 -195.538011 
L 155.675222 -195.538011 
L 151.464442 -195.538011 
L 147.253661 -195.538011 
L 143.042881 -195.538011 
L 138.8321 -195.538011 
L 134.62132 -195.538011 
L 130.41054 -195.538011 
L 126.199759 -195.538011 
L 121.988979 -195.538011 
L 117.778198 -195.538011 
L 113.567418 -195.538011 
L 109.356638 -195.538011 
L 105.145857 -195.538011 
L 100.935077 -195.538011 
L 96.724296 -195.538011 
L 92.513516 -195.538011 
L 88.302736 -195.538011 
L 84.091955 -195.538011 
L 79.881175 -195.538011 
L 75.670394 -195.538011 
L 71.459614 -195.538011 
L 67.248834 -195.538011 
L 63.038053 -195.538011 
L 58.827273 -195.538011 
z
" id="m03fe12776c" style="stroke:#36a2eb;stroke-opacity:0.5;"/>
    </defs>
    <g clip-path="url(#p103c3b2dbc)">
     <use style="fill:#36a2eb;fill-opacity:0.5;stroke:#36a2eb;stroke-opacity:0.5;" x="0" xlink:href="#m03fe12776c" y="581.789375"/>
    </g>
   </g>
   <g id="line2d_1">
    <path clip-path="url(#p103c3b2dbc)" d="M 124.844854 386.139371 
L 128.78958 386.097141 
L 132.734306 386.040368 
L 136.679032 385.964575 
L 140.623758 385.864094 
L 144.568484 385.73181 
L 148.51321 385.558878 
L 152.457936 385.334393 
L 156.402662 385.04504 
L 160.347388 384.674709 
L 164.292114 384.204102 
L 168.23684 383.610328 
L 172.181566 382.866516 
L 176.126292 381.941454 
L 180.071018 380.799296 
L 184.015744 379.399346 
L 187.96047 377.695976 
L 191.905196 375.638684 
L 195.849922 373.172366 
L 199.794648 370.2378 
L 203.739374 366.772413 
L 207.6841 362.711322 
L 211.628826 357.988708 
L 215.573552 352.539497 
L 219.518278 346.301371 
L 223.463004 339.217063 
L 227.40773 331.236916 
L 231.352456 322.321628 
L 235.297182 312.445114 
L 239.241908 301.597371 
L 243.186634 289.787238 
L 247.13136 277.04491 
L 251.076086 263.424078 
L 255.020812 249.003534 
L 258.965538 233.888124 
L 262.910264 218.208919 
L 266.85499 202.122504 
L 270.799716 185.809323 
L 274.744442 169.471045 
L 278.689168 153.326975 
L 282.633894 137.609553 
L 286.57862 122.559072 
L 290.523346 108.417748 
L 294.468072 95.423357 
L 298.412798 83.802649 
L 302.357524 73.764805 
L 306.30225 65.495194 
L 310.246976 59.149682 
L 314.191702 54.849752 
L 318.136428 52.678636 
L 322.081154 52.678636 
L 326.02588 54.849752 
L 329.970606 59.149682 
L 333.915332 65.495194 
L 337.860058 73.764805 
L 341.804784 83.802649 
L 345.74951 95.423357 
L 349.694236 108.417748 
L 353.638962 122.559072 
L 357.583688 137.609553 
L 361.528414 153.326975 
L 365.47314 169.471045 
L 369.417866 185.809323 
L 373.362592 202.122504 
L 377.307318 218.208919 
L 381.252044 233.888124 
L 385.19677 249.003534 
L 389.141496 263.424078 
L 393.086222 277.04491 
L 397.030948 289.787238 
L 400.975674 301.597371 
L 404.9204 312.445114 
L 408.865126 322.321628 
L 412.809852 331.236916 
L 416.754578 339.217063 
L 420.699304 346.301371 
L 424.644029 352.539497 
L 428.588755 357.988708 
L 432.533481 362.711322 
L 436.478207 366.772413 
L 440.422933 370.2378 
L 444.367659 373.172366 
L 448.312385 375.638684 
L 452.257111 377.695976 
L 456.201837 379.399346 
L 460.146563 380.799296 
L 464.091289 381.941454 
L 468.036015 382.866516 
L 471.980741 383.610328 
L 475.925467 384.204102 
L 479.870193 384.674709 
L 483.814919 385.04504 
L 487.759645 385.334393 
L 491.704371 385.558878 
L 495.649097 385.73181 
L 499.593823 385.864094 
L 503.538549 385.964575 
L 507.483275 386.040368 
L 511.428001 386.097141 
L 515.372727 386.139371 
" style="fill:none;stroke:#ff6384;stroke-linecap:square;"/>
   </g>
   <g id="line2d_2">
    <path clip-path="url(#p103c3b2dbc)" d="M 58.827273 386.146447 
L 63.038053 386.106885 
L 67.248834 386.0537 
L 71.459614 385.982696 
L 75.670394 385.888563 
L 79.881175 385.764638 
L 84.091955 385.602632 
L 88.302736 385.392331 
L 92.513516 385.12126 
L 96.724296 384.774329 
L 100.935077 384.333456 
L 105.145857 383.7772 
L 109.356638 383.080384 
L 113.567418 382.213772 
L 117.778198 381.14378 
L 121.988979 379.832285 
L 126.199759 378.23654 
L 130.41054 376.309237 
L 134.62132 373.998751 
L 138.8321 371.249603 
L 143.042881 368.003173 
L 147.253661 364.198679 
L 151.464442 359.774458 
L 155.675222 354.669552 
L 159.886002 348.825576 
L 164.096783 342.188883 
L 168.307563 334.712955 
L 172.518344 326.360972 
L 176.729124 317.108497 
L 180.939904 306.946159 
L 185.150685 295.882238 
L 189.361465 283.945023 
L 193.572246 271.184811 
L 197.783026 257.675416 
L 201.993807 243.51506 
L 206.204587 228.826532 
L 210.415367 213.756522 
L 214.626148 198.474075 
L 218.836928 183.168117 
L 223.047709 168.044095 
L 227.258489 153.319765 
L 231.469269 139.220235 
L 235.68005 125.972418 
L 239.89083 113.799066 
L 244.101611 102.912602 
L 248.312391 93.508991 
L 252.523171 85.761887 
L 256.733952 79.817311 
L 260.944732 75.789068 
L 265.155513 73.755133 
L 269.366293 73.755133 
L 273.577073 75.789068 
L 277.787854 79.817311 
L 281.998634 85.761887 
L 286.209415 93.508991 
L 290.420195 102.912602 
L 294.630975 113.799066 
L 298.841756 125.972418 
L 303.052536 139.220235 
L 307.263317 153.319765 
L 311.474097 168.044095 
L 315.684877 183.168117 
L 319.895658 198.474075 
L 324.106438 213.756522 
L 328.317219 228.826532 
L 332.527999 243.51506 
L 336.73878 257.675416 
L 340.94956 271.184811 
L 345.16034 283.945023 
L 349.371121 295.882238 
L 353.581901 306.946159 
L 357.792682 317.108497 
L 362.003462 326.360972 
L 366.214242 334.712955 
L 370.425023 342.188883 
L 374.635803 348.825576 
L 378.846584 354.669552 
L 383.057364 359.774458 
L 387.268144 364.198679 
L 391.478925 368.003173 
L 395.689705 371.249603 
L 399.900486 373.998751 
L 404.111266 376.309237 
L 408.322046 378.23654 
L 412.532827 379.832285 
L 416.743607 381.14378 
L 420.954388 382.213772 
L 425.165168 383.080384 
L 429.375948 383.7772 
L 433.586729 384.333456 
L 437.797509 384.774329 
L 442.00829 385.12126 
L 446.21907 385.392331 
L 450.42985 385.602632 
L 454.640631 385.764638 
L 458.851411 385.888563 
L 463.062192 385.982696 
L 467.272972 386.0537 
L 471.483753 386.106885 
L 475.694533 386.146447 
" style="fill:none;stroke:#36a2eb;stroke-linecap:square;"/>
   </g>
   <g id="patch_3">
    <path d="M 36 402.93 
L 538.2 402.93 
" style="fill:none;stroke:#000000;stroke-linecap:square;stroke-linejoin:miter;stroke-width:0.8;"/>
   </g>
   <g id="legend_1">
    <g id="patch_4">
     <path d="M 414.919063 88.29875 
L 528.4 88.29875 
Q 531.2 88.29875 531.2 85.49875 
L 531.2 45.8 
Q 531.2 43 528.4 43 
L 414.919063 43 
Q 412.119063 43 412.119063 45.8 
L 412.119063 85.49875 
Q 412.119063 88.29875 414.919063 88.29875 
z
" style="fill:#ffffff;opacity:0.8;stroke:#cccccc;stroke-linejoin:miter;"/>
    </g>
    <g id="patch_5">
     <path d="M 417.719063 59.237813 
L 445.719063 59.237813 
L 445.719063 49.437813 
L 417.719063 49.437813 
z
" style="fill:#ff6384;opacity:0.5;stroke:#ff6384;stroke-linejoin:miter;"/>
    </g>
    <g id="text_1">
     <!-- sidemenu -->
     <defs>
      <path d="M 44.28125 53.078125 
L 44.28125 44.578125 
Q 40.484375 46.53125 36.375 47.5 
Q 32.28125 48.484375 27.875 48.484375 
Q 21.1875 48.484375 17.84375 46.4375 
Q 14.5 44.390625 14.5 40.28125 
Q 14.5 37.15625 16.890625 35.375 
Q 19.28125 33.59375 26.515625 31.984375 
L 29.59375 31.296875 
Q 39.15625 29.25 43.1875 25.515625 
Q 47.21875 21.78125 47.21875 15.09375 
Q 47.21875 7.46875 41.1875 3.015625 
Q 35.15625 -1.421875 24.609375 -1.421875 
Q 20.21875 -1.421875 15.453125 -0.5625 
Q 10.6875 0.296875 5.421875 2 
L 5.421875 11.28125 
Q 10.40625 8.6875 15.234375 7.390625 
Q 20.0625 6.109375 24.8125 6.109375 
Q 31.15625 6.109375 34.5625 8.28125 
Q 37.984375 10.453125 37.984375 14.40625 
Q 37.984375 18.0625 35.515625 20.015625 
Q 33.0625 21.96875 24.703125 23.78125 
L 21.578125 24.515625 
Q 13.234375 26.265625 9.515625 29.90625 
Q 5.8125 33.546875 5.8125 39.890625 
Q 5.8125 47.609375 11.28125 51.796875 
Q 16.75 56 26.8125 56 
Q 31.78125 56 36.171875 55.265625 
Q 40.578125 54.546875 44.28125 53.078125 
z
" id="DejaVuSans-115"/>
      <path d="M 9.421875 54.6875 
L 18.40625 54.6875 
L 18.40625 0 
L 9.421875 0 
z
M 9.421875 75.984375 
L 18.40625 75.984375 
L 18.40625 64.59375 
L 9.421875 64.59375 
z
" id="DejaVuSans-105"/>
      <path d="M 45.40625 46.390625 
L 45.40625 75.984375 
L 54.390625 75.984375 
L 54.390625 0 
L 45.40625 0 
L 45.40625 8.203125 
Q 42.578125 3.328125 38.25 0.953125 
Q 33.9375 -1.421875 27.875 -1.421875 
Q 17.96875 -1.421875 11.734375 6.484375 
Q 5.515625 14.40625 5.515625 27.296875 
Q 5.515625 40.1875 11.734375 48.09375 
Q 17.96875 56 27.875 56 
Q 33.9375 56 38.25 53.625 
Q 42.578125 51.265625 45.40625 46.390625 
z
M 14.796875 27.296875 
Q 14.796875 17.390625 18.875 11.75 
Q 22.953125 6.109375 30.078125 6.109375 
Q 37.203125 6.109375 41.296875 11.75 
Q 45.40625 17.390625 45.40625 27.296875 
Q 45.40625 37.203125 41.296875 42.84375 
Q 37.203125 48.484375 30.078125 48.484375 
Q 22.953125 48.484375 18.875 42.84375 
Q 14.796875 37.203125 14.796875 27.296875 
z
" id="DejaVuSans-100"/>
      <path d="M 56.203125 29.59375 
L 56.203125 25.203125 
L 14.890625 25.203125 
Q 15.484375 15.921875 20.484375 11.0625 
Q 25.484375 6.203125 34.421875 6.203125 
Q 39.59375 6.203125 44.453125 7.46875 
Q 49.3125 8.734375 54.109375 11.28125 
L 54.109375 2.78125 
Q 49.265625 0.734375 44.1875 -0.34375 
Q 39.109375 -1.421875 33.890625 -1.421875 
Q 20.796875 -1.421875 13.15625 6.1875 
Q 5.515625 13.8125 5.515625 26.8125 
Q 5.515625 40.234375 12.765625 48.109375 
Q 20.015625 56 32.328125 56 
Q 43.359375 56 49.78125 48.890625 
Q 56.203125 41.796875 56.203125 29.59375 
z
M 47.21875 32.234375 
Q 47.125 39.59375 43.09375 43.984375 
Q 39.0625 48.390625 32.421875 48.390625 
Q 24.90625 48.390625 20.390625 44.140625 
Q 15.875 39.890625 15.1875 32.171875 
z
" id="DejaVuSans-101"/>
      <path d="M 52 44.1875 
Q 55.375 50.25 60.0625 53.125 
Q 64.75 56 71.09375 56 
Q 79.640625 56 84.28125 50.015625 
Q 88.921875 44.046875 88.921875 33.015625 
L 88.921875 0 
L 79.890625 0 
L 79.890625 32.71875 
Q 79.890625 40.578125 77.09375 44.375 
Q 74.3125 48.1875 68.609375 48.1875 
Q 61.625 48.1875 57.5625 43.546875 
Q 53.515625 38.921875 53.515625 30.90625 
L 53.515625 0 
L 44.484375 0 
L 44.484375 32.71875 
Q 44.484375 40.625 41.703125 44.40625 
Q 38.921875 48.1875 33.109375 48.1875 
Q 26.21875 48.1875 22.15625 43.53125 
Q 18.109375 38.875 18.109375 30.90625 
L 18.109375 0 
L 9.078125 0 
L 9.078125 54.6875 
L 18.109375 54.6875 
L 18.109375 46.1875 
Q 21.1875 51.21875 25.484375 53.609375 
Q 29.78125 56 35.6875 56 
Q 41.65625 56 45.828125 52.96875 
Q 50 49.953125 52 44.1875 
z
" id="DejaVuSans-109"/>
      <path d="M 54.890625 33.015625 
L 54.890625 0 
L 45.90625 0 
L 45.90625 32.71875 
Q 45.90625 40.484375 42.875 44.328125 
Q 39.84375 48.1875 33.796875 48.1875 
Q 26.515625 48.1875 22.3125 43.546875 
Q 18.109375 38.921875 18.109375 30.90625 
L 18.109375 0 
L 9.078125 0 
L 9.078125 54.6875 
L 18.109375 54.6875 
L 18.109375 46.1875 
Q 21.34375 51.125 25.703125 53.5625 
Q 30.078125 56 35.796875 56 
Q 45.21875 56 50.046875 50.171875 
Q 54.890625 44.34375 54.890625 33.015625 
z
" id="DejaVuSans-110"/>
      <path d="M 8.5 21.578125 
L 8.5 54.6875 
L 17.484375 54.6875 
L 17.484375 21.921875 
Q 17.484375 14.15625 20.5 10.265625 
Q 23.53125 6.390625 29.59375 6.390625 
Q 36.859375 6.390625 41.078125 11.03125 
Q 45.3125 15.671875 45.3125 23.6875 
L 45.3125 54.6875 
L 54.296875 54.6875 
L 54.296875 0 
L 45.3125 0 
L 45.3125 8.40625 
Q 42.046875 3.421875 37.71875 1 
Q 33.40625 -1.421875 27.6875 -1.421875 
Q 18.265625 -1.421875 13.375 4.4375 
Q 8.5 10.296875 8.5 21.578125 
z
M 31.109375 56 
z
" id="DejaVuSans-117"/>
     </defs>
     <g transform="translate(456.919063 59.237813)scale(0.14 -0.14)">
      <use xlink:href="#DejaVuSans-115"/>
      <use x="52.099609" xlink:href="#DejaVuSans-105"/>
      <use x="79.882812" xlink:href="#DejaVuSans-100"/>
      <use x="143.359375" xlink:href="#DejaVuSans-101"/>
      <use x="204.882812" xlink:href="#DejaVuSans-109"/>
      <use x="302.294922" xlink:href="#DejaVuSans-101"/>
      <use x="363.818359" xlink:href="#DejaVuSans-110"/>
      <use x="427.197266" xlink:href="#DejaVuSans-117"/>
     </g>
    </g>
    <g id="patch_6">
     <path d="M 417.719063 79.787188 
L 445.719063 79.787188 
L 445.719063 69.987188 
L 417.719063 69.987188 
z
" style="fill:#36a2eb;opacity:0.5;stroke:#36a2eb;stroke-linejoin:miter;"/>
    </g>
    <g id="text_2">
     <!-- tabbar -->
     <defs>
      <path d="M 18.3125 70.21875 
L 18.3125 54.6875 
L 36.8125 54.6875 
L 36.8125 47.703125 
L 18.3125 47.703125 
L 18.3125 18.015625 
Q 18.3125 11.328125 20.140625 9.421875 
Q 21.96875 7.515625 27.59375 7.515625 
L 36.8125 7.515625 
L 36.8125 0 
L 27.59375 0 
Q 17.1875 0 13.234375 3.875 
Q 9.28125 7.765625 9.28125 18.015625 
L 9.28125 47.703125 
L 2.6875 47.703125 
L 2.6875 54.6875 
L 9.28125 54.6875 
L 9.28125 70.21875 
z
" id="DejaVuSans-116"/>
      <path d="M 34.28125 27.484375 
Q 23.390625 27.484375 19.1875 25 
Q 14.984375 22.515625 14.984375 16.5 
Q 14.984375 11.71875 18.140625 8.90625 
Q 21.296875 6.109375 26.703125 6.109375 
Q 34.1875 6.109375 38.703125 11.40625 
Q 43.21875 16.703125 43.21875 25.484375 
L 43.21875 27.484375 
z
M 52.203125 31.203125 
L 52.203125 0 
L 43.21875 0 
L 43.21875 8.296875 
Q 40.140625 3.328125 35.546875 0.953125 
Q 30.953125 -1.421875 24.3125 -1.421875 
Q 15.921875 -1.421875 10.953125 3.296875 
Q 6 8.015625 6 15.921875 
Q 6 25.140625 12.171875 29.828125 
Q 18.359375 34.515625 30.609375 34.515625 
L 43.21875 34.515625 
L 43.21875 35.40625 
Q 43.21875 41.609375 39.140625 45 
Q 35.0625 48.390625 27.6875 48.390625 
Q 23 48.390625 18.546875 47.265625 
Q 14.109375 46.140625 10.015625 43.890625 
L 10.015625 52.203125 
Q 14.9375 54.109375 19.578125 55.046875 
Q 24.21875 56 28.609375 56 
Q 40.484375 56 46.34375 49.84375 
Q 52.203125 43.703125 52.203125 31.203125 
z
" id="DejaVuSans-97"/>
      <path d="M 48.6875 27.296875 
Q 48.6875 37.203125 44.609375 42.84375 
Q 40.53125 48.484375 33.40625 48.484375 
Q 26.265625 48.484375 22.1875 42.84375 
Q 18.109375 37.203125 18.109375 27.296875 
Q 18.109375 17.390625 22.1875 11.75 
Q 26.265625 6.109375 33.40625 6.109375 
Q 40.53125 6.109375 44.609375 11.75 
Q 48.6875 17.390625 48.6875 27.296875 
z
M 18.109375 46.390625 
Q 20.953125 51.265625 25.265625 53.625 
Q 29.59375 56 35.59375 56 
Q 45.5625 56 51.78125 48.09375 
Q 58.015625 40.1875 58.015625 27.296875 
Q 58.015625 14.40625 51.78125 6.484375 
Q 45.5625 -1.421875 35.59375 -1.421875 
Q 29.59375 -1.421875 25.265625 0.953125 
Q 20.953125 3.328125 18.109375 8.203125 
L 18.109375 0 
L 9.078125 0 
L 9.078125 75.984375 
L 18.109375 75.984375 
z
" id="DejaVuSans-98"/>
      <path d="M 41.109375 46.296875 
Q 39.59375 47.171875 37.8125 47.578125 
Q 36.03125 48 33.890625 48 
Q 26.265625 48 22.1875 43.046875 
Q 18.109375 38.09375 18.109375 28.8125 
L 18.109375 0 
L 9.078125 0 
L 9.078125 54.6875 
L 18.109375 54.6875 
L 18.109375 46.1875 
Q 20.953125 51.171875 25.484375 53.578125 
Q 30.03125 56 36.53125 56 
Q 37.453125 56 38.578125 55.875 
Q 39.703125 55.765625 41.0625 55.515625 
z
" id="DejaVuSans-114"/>
     </defs>
     <g transform="translate(456.919063 79.787188)scale(0.14 -0.14)">
      <use xlink:href="#DejaVuSans-116"/>
      <use x="39.208984" xlink:href="#DejaVuSans-97"/>
      <use x="100.488281" xlink:href="#DejaVuSans-98"/>
      <use x="163.964844" xlink:href="#DejaVuSans-98"/>
      <use x="227.441406" xlink:href="#DejaVuSans-97"/>
      <use x="288.720703" xlink:href="#DejaVuSans-114"/>
     </g>
    </g>
   </g>
  </g>
  <g id="axes_2">
   <g id="patch_7">
    <path d="M 36 525.24 
L 538.2 525.24 
L 538.2 402.93 
L 36 402.93 
z
" style="fill:none;"/>
   </g>
   <g id="patch_8">
    <path clip-path="url(#p121b5a9674)" d="M 224.429462 519.680455 
L 415.78812 519.680455 
L 415.78812 482.616818 
L 224.429462 482.616818 
z
" style="fill:#ff6384;opacity:0.5;"/>
   </g>
   <g id="patch_9">
    <path clip-path="url(#p121b5a9674)" d="M 165.128424 445.553182 
L 369.393382 445.553182 
L 369.393382 408.489545 
L 165.128424 408.489545 
z
" style="fill:#36a2eb;opacity:0.5;"/>
   </g>
   <g id="matplotlib.axis_1">
    <g id="xtick_1">
     <g id="line2d_3">
      <defs>
       <path d="M 0 0 
L 0 3.5 
" id="m7c6cb8f17f" style="stroke:#000000;stroke-width:0.8;"/>
      </defs>
      <g>
       <use style="stroke:#000000;stroke-width:0.8;" x="62.08675" xlink:href="#m7c6cb8f17f" y="525.24"/>
      </g>
     </g>
     <g id="text_3">
      <!-- 2.0 -->
      <defs>
       <path d="M 19.1875 8.296875 
L 53.609375 8.296875 
L 53.609375 0 
L 7.328125 0 
L 7.328125 8.296875 
Q 12.9375 14.109375 22.625 23.890625 
Q 32.328125 33.6875 34.8125 36.53125 
Q 39.546875 41.84375 41.421875 45.53125 
Q 43.3125 49.21875 43.3125 52.78125 
Q 43.3125 58.59375 39.234375 62.25 
Q 35.15625 65.921875 28.609375 65.921875 
Q 23.96875 65.921875 18.8125 64.3125 
Q 13.671875 62.703125 7.8125 59.421875 
L 7.8125 69.390625 
Q 13.765625 71.78125 18.9375 73 
Q 24.125 74.21875 28.421875 74.21875 
Q 39.75 74.21875 46.484375 68.546875 
Q 53.21875 62.890625 53.21875 53.421875 
Q 53.21875 48.921875 51.53125 44.890625 
Q 49.859375 40.875 45.40625 35.40625 
Q 44.1875 33.984375 37.640625 27.21875 
Q 31.109375 20.453125 19.1875 8.296875 
z
" id="DejaVuSans-50"/>
       <path d="M 10.6875 12.40625 
L 21 12.40625 
L 21 0 
L 10.6875 0 
z
" id="DejaVuSans-46"/>
       <path d="M 31.78125 66.40625 
Q 24.171875 66.40625 20.328125 58.90625 
Q 16.5 51.421875 16.5 36.375 
Q 16.5 21.390625 20.328125 13.890625 
Q 24.171875 6.390625 31.78125 6.390625 
Q 39.453125 6.390625 43.28125 13.890625 
Q 47.125 21.390625 47.125 36.375 
Q 47.125 51.421875 43.28125 58.90625 
Q 39.453125 66.40625 31.78125 66.40625 
z
M 31.78125 74.21875 
Q 44.046875 74.21875 50.515625 64.515625 
Q 56.984375 54.828125 56.984375 36.375 
Q 56.984375 17.96875 50.515625 8.265625 
Q 44.046875 -1.421875 31.78125 -1.421875 
Q 19.53125 -1.421875 13.0625 8.265625 
Q 6.59375 17.96875 6.59375 36.375 
Q 6.59375 54.828125 13.0625 64.515625 
Q 19.53125 74.21875 31.78125 74.21875 
z
" id="DejaVuSans-48"/>
      </defs>
      <g transform="translate(50.954562 542.877813)scale(0.14 -0.14)">
       <use xlink:href="#DejaVuSans-50"/>
       <use x="63.623047" xlink:href="#DejaVuSans-46"/>
       <use x="95.410156" xlink:href="#DejaVuSans-48"/>
      </g>
     </g>
    </g>
    <g id="xtick_2">
     <g id="line2d_4">
      <g>
       <use style="stroke:#000000;stroke-width:0.8;" x="124.260735" xlink:href="#m7c6cb8f17f" y="525.24"/>
      </g>
     </g>
     <g id="text_4">
      <!-- 2.2 -->
      <g transform="translate(113.128548 542.877813)scale(0.14 -0.14)">
       <use xlink:href="#DejaVuSans-50"/>
       <use x="63.623047" xlink:href="#DejaVuSans-46"/>
       <use x="95.410156" xlink:href="#DejaVuSans-50"/>
      </g>
     </g>
    </g>
    <g id="xtick_3">
     <g id="line2d_5">
      <g>
       <use style="stroke:#000000;stroke-width:0.8;" x="186.434721" xlink:href="#m7c6cb8f17f" y="525.24"/>
      </g>
     </g>
     <g id="text_5">
      <!-- 2.4 -->
      <defs>
       <path d="M 37.796875 64.3125 
L 12.890625 25.390625 
L 37.796875 25.390625 
z
M 35.203125 72.90625 
L 47.609375 72.90625 
L 47.609375 25.390625 
L 58.015625 25.390625 
L 58.015625 17.1875 
L 47.609375 17.1875 
L 47.609375 0 
L 37.796875 0 
L 37.796875 17.1875 
L 4.890625 17.1875 
L 4.890625 26.703125 
z
" id="DejaVuSans-52"/>
      </defs>
      <g transform="translate(175.302534 542.877813)scale(0.14 -0.14)">
       <use xlink:href="#DejaVuSans-50"/>
       <use x="63.623047" xlink:href="#DejaVuSans-46"/>
       <use x="95.410156" xlink:href="#DejaVuSans-52"/>
      </g>
     </g>
    </g>
    <g id="xtick_4">
     <g id="line2d_6">
      <g>
       <use style="stroke:#000000;stroke-width:0.8;" x="248.608707" xlink:href="#m7c6cb8f17f" y="525.24"/>
      </g>
     </g>
     <g id="text_6">
      <!-- 2.6 -->
      <defs>
       <path d="M 33.015625 40.375 
Q 26.375 40.375 22.484375 35.828125 
Q 18.609375 31.296875 18.609375 23.390625 
Q 18.609375 15.53125 22.484375 10.953125 
Q 26.375 6.390625 33.015625 6.390625 
Q 39.65625 6.390625 43.53125 10.953125 
Q 47.40625 15.53125 47.40625 23.390625 
Q 47.40625 31.296875 43.53125 35.828125 
Q 39.65625 40.375 33.015625 40.375 
z
M 52.59375 71.296875 
L 52.59375 62.3125 
Q 48.875 64.0625 45.09375 64.984375 
Q 41.3125 65.921875 37.59375 65.921875 
Q 27.828125 65.921875 22.671875 59.328125 
Q 17.53125 52.734375 16.796875 39.40625 
Q 19.671875 43.65625 24.015625 45.921875 
Q 28.375 48.1875 33.59375 48.1875 
Q 44.578125 48.1875 50.953125 41.515625 
Q 57.328125 34.859375 57.328125 23.390625 
Q 57.328125 12.15625 50.6875 5.359375 
Q 44.046875 -1.421875 33.015625 -1.421875 
Q 20.359375 -1.421875 13.671875 8.265625 
Q 6.984375 17.96875 6.984375 36.375 
Q 6.984375 53.65625 15.1875 63.9375 
Q 23.390625 74.21875 37.203125 74.21875 
Q 40.921875 74.21875 44.703125 73.484375 
Q 48.484375 72.75 52.59375 71.296875 
z
" id="DejaVuSans-54"/>
      </defs>
      <g transform="translate(237.47652 542.877813)scale(0.14 -0.14)">
       <use xlink:href="#DejaVuSans-50"/>
       <use x="63.623047" xlink:href="#DejaVuSans-46"/>
       <use x="95.410156" xlink:href="#DejaVuSans-54"/>
      </g>
     </g>
    </g>
    <g id="xtick_5">
     <g id="line2d_7">
      <g>
       <use style="stroke:#000000;stroke-width:0.8;" x="310.782693" xlink:href="#m7c6cb8f17f" y="525.24"/>
      </g>
     </g>
     <g id="text_7">
      <!-- 2.8 -->
      <defs>
       <path d="M 31.78125 34.625 
Q 24.75 34.625 20.71875 30.859375 
Q 16.703125 27.09375 16.703125 20.515625 
Q 16.703125 13.921875 20.71875 10.15625 
Q 24.75 6.390625 31.78125 6.390625 
Q 38.8125 6.390625 42.859375 10.171875 
Q 46.921875 13.96875 46.921875 20.515625 
Q 46.921875 27.09375 42.890625 30.859375 
Q 38.875 34.625 31.78125 34.625 
z
M 21.921875 38.8125 
Q 15.578125 40.375 12.03125 44.71875 
Q 8.5 49.078125 8.5 55.328125 
Q 8.5 64.0625 14.71875 69.140625 
Q 20.953125 74.21875 31.78125 74.21875 
Q 42.671875 74.21875 48.875 69.140625 
Q 55.078125 64.0625 55.078125 55.328125 
Q 55.078125 49.078125 51.53125 44.71875 
Q 48 40.375 41.703125 38.8125 
Q 48.828125 37.15625 52.796875 32.3125 
Q 56.78125 27.484375 56.78125 20.515625 
Q 56.78125 9.90625 50.3125 4.234375 
Q 43.84375 -1.421875 31.78125 -1.421875 
Q 19.734375 -1.421875 13.25 4.234375 
Q 6.78125 9.90625 6.78125 20.515625 
Q 6.78125 27.484375 10.78125 32.3125 
Q 14.796875 37.15625 21.921875 38.8125 
z
M 18.3125 54.390625 
Q 18.3125 48.734375 21.84375 45.5625 
Q 25.390625 42.390625 31.78125 42.390625 
Q 38.140625 42.390625 41.71875 45.5625 
Q 45.3125 48.734375 45.3125 54.390625 
Q 45.3125 60.0625 41.71875 63.234375 
Q 38.140625 66.40625 31.78125 66.40625 
Q 25.390625 66.40625 21.84375 63.234375 
Q 18.3125 60.0625 18.3125 54.390625 
z
" id="DejaVuSans-56"/>
      </defs>
      <g transform="translate(299.650505 542.877813)scale(0.14 -0.14)">
       <use xlink:href="#DejaVuSans-50"/>
       <use x="63.623047" xlink:href="#DejaVuSans-46"/>
       <use x="95.410156" xlink:href="#DejaVuSans-56"/>
      </g>
     </g>
    </g>
    <g id="xtick_6">
     <g id="line2d_8">
      <g>
       <use style="stroke:#000000;stroke-width:0.8;" x="372.956679" xlink:href="#m7c6cb8f17f" y="525.24"/>
      </g>
     </g>
     <g id="text_8">
      <!-- 3.0 -->
      <defs>
       <path d="M 40.578125 39.3125 
Q 47.65625 37.796875 51.625 33 
Q 55.609375 28.21875 55.609375 21.1875 
Q 55.609375 10.40625 48.1875 4.484375 
Q 40.765625 -1.421875 27.09375 -1.421875 
Q 22.515625 -1.421875 17.65625 -0.515625 
Q 12.796875 0.390625 7.625 2.203125 
L 7.625 11.71875 
Q 11.71875 9.328125 16.59375 8.109375 
Q 21.484375 6.890625 26.8125 6.890625 
Q 36.078125 6.890625 40.9375 10.546875 
Q 45.796875 14.203125 45.796875 21.1875 
Q 45.796875 27.640625 41.28125 31.265625 
Q 36.765625 34.90625 28.71875 34.90625 
L 20.21875 34.90625 
L 20.21875 43.015625 
L 29.109375 43.015625 
Q 36.375 43.015625 40.234375 45.921875 
Q 44.09375 48.828125 44.09375 54.296875 
Q 44.09375 59.90625 40.109375 62.90625 
Q 36.140625 65.921875 28.71875 65.921875 
Q 24.65625 65.921875 20.015625 65.03125 
Q 15.375 64.15625 9.8125 62.3125 
L 9.8125 71.09375 
Q 15.4375 72.65625 20.34375 73.4375 
Q 25.25 74.21875 29.59375 74.21875 
Q 40.828125 74.21875 47.359375 69.109375 
Q 53.90625 64.015625 53.90625 55.328125 
Q 53.90625 49.265625 50.4375 45.09375 
Q 46.96875 40.921875 40.578125 39.3125 
z
" id="DejaVuSans-51"/>
      </defs>
      <g transform="translate(361.824491 542.877813)scale(0.14 -0.14)">
       <use xlink:href="#DejaVuSans-51"/>
       <use x="63.623047" xlink:href="#DejaVuSans-46"/>
       <use x="95.410156" xlink:href="#DejaVuSans-48"/>
      </g>
     </g>
    </g>
    <g id="xtick_7">
     <g id="line2d_9">
      <g>
       <use style="stroke:#000000;stroke-width:0.8;" x="435.130664" xlink:href="#m7c6cb8f17f" y="525.24"/>
      </g>
     </g>
     <g id="text_9">
      <!-- 3.2 -->
      <g transform="translate(423.998477 542.877813)scale(0.14 -0.14)">
       <use xlink:href="#DejaVuSans-51"/>
       <use x="63.623047" xlink:href="#DejaVuSans-46"/>
       <use x="95.410156" xlink:href="#DejaVuSans-50"/>
      </g>
     </g>
    </g>
    <g id="xtick_8">
     <g id="line2d_10">
      <g>
       <use style="stroke:#000000;stroke-width:0.8;" x="497.30465" xlink:href="#m7c6cb8f17f" y="525.24"/>
      </g>
     </g>
     <g id="text_10">
      <!-- 3.4 -->
      <g transform="translate(486.172463 542.877813)scale(0.14 -0.14)">
       <use xlink:href="#DejaVuSans-51"/>
       <use x="63.623047" xlink:href="#DejaVuSans-46"/>
       <use x="95.410156" xlink:href="#DejaVuSans-52"/>
      </g>
     </g>
    </g>
   </g>
   <g id="line2d_11">
    <path clip-path="url(#p121b5a9674)" d="M 320.108791 525.24 
L 320.108791 402.93 
" style="fill:none;stroke:#ff6384;stroke-dasharray:5.55,2.4;stroke-dashoffset:0;stroke-opacity:0.8;stroke-width:1.5;"/>
   </g>
   <g id="line2d_12">
    <path clip-path="url(#p121b5a9674)" d="M 267.260903 525.24 
L 267.260903 402.93 
" style="fill:none;stroke:#36a2eb;stroke-dasharray:5.55,2.4;stroke-dashoffset:0;stroke-opacity:0.8;stroke-width:1.5;"/>
   </g>
   <g id="patch_10">
    <path d="M 36 525.24 
L 538.2 525.24 
" style="fill:none;stroke:#000000;stroke-linecap:square;stroke-linejoin:miter;stroke-width:0.8;"/>
   </g>
  </g>
 </g>
 <defs>
  <clipPath id="p103c3b2dbc">
   <rect height="366.93" width="502.2" x="36" y="36"/>
  </clipPath>
  <clipPath id="p121b5a9674">
   <rect height="122.31" width="502.2" x="36" y="402.93"/>
  </clipPath>
 </defs>
</svg>
