<?xml version="1.0" encoding="utf-8" standalone="no"?>
<!DOCTYPE svg PUBLIC "-//W3C//DTD SVG 1.1//EN"
  "http://www.w3.org/Graphics/SVG/1.1/DTD/svg11.dtd">
<!-- Created with matplotlib (https://matplotlib.org/) -->
<svg height="581.789375pt" version="1.1" viewBox="0 0 574.2 581.789375" width="574.2pt" xmlns="http://www.w3.org/2000/svg" xmlns:xlink="http://www.w3.org/1999/xlink">
 <defs>
  <style type="text/css">
*{stroke-linecap:butt;stroke-linejoin:round;}
  </style>
 </defs>
 <g id="figure_1">
  <g id="patch_1">
   <path d="M 0 581.789375 
L 574.2 581.789375 
L 574.2 0 
L 0 0 
z
" style="fill:none;"/>
  </g>
  <g id="axes_1">
   <g id="patch_2">
    <path d="M 36 402.93 
L 538.2 402.93 
L 538.2 36 
L 36 36 
z
" style="fill:none;"/>
   </g>
   <g id="PolyCollection_1">
    <defs>
     <path d="M 127.28763 -195.538011 
L 127.28763 -195.650004 
L 131.207681 -195.692234 
L 135.127733 -195.749007 
L 139.047784 -195.8248 
L 142.967836 -195.925281 
L 146.887887 -196.057565 
L 150.807939 -196.230497 
L 154.72799 -196.454982 
L 158.648042 -196.744335 
L 162.568093 -197.114666 
L 166.488145 -197.585273 
L 170.408196 -198.179047 
L 174.328248 -198.922859 
L 178.248299 -199.847921 
L 182.168351 -200.990079 
L 186.088402 -202.390029 
L 190.008453 -204.093399 
L 193.928505 -206.150691 
L 197.848556 -208.617009 
L 201.768608 -211.551575 
L 205.688659 -215.016962 
L 209.608711 -219.078053 
L 213.528762 -223.800667 
L 217.448814 -229.249878 
L 221.368865 -235.488004 
L 225.288917 -242.572312 
L 229.208968 -250.552459 
L 233.12902 -259.467747 
L 237.049071 -269.344261 
L 240.969123 -280.192004 
L 244.889174 -292.002137 
L 248.809226 -304.744465 
L 252.729277 -318.365297 
L 256.649329 -332.785841 
L 260.56938 -347.901251 
L 264.489432 -363.580456 
L 268.409483 -379.666871 
L 272.329535 -395.980052 
L 276.249586 -412.31833 
L 280.169638 -428.4624 
L 284.089689 -444.179822 
L 288.009741 -459.230303 
L 291.929792 -473.371627 
L 295.849844 -486.366018 
L 299.769895 -497.986726 
L 303.689947 -508.02457 
L 307.609998 -516.294181 
L 311.53005 -522.639693 
L 315.450101 -526.939623 
L 319.370153 -529.110739 
L 323.290204 -529.110739 
L 327.210256 -526.939623 
L 331.130307 -522.639693 
L 335.050359 -516.294181 
L 338.97041 -508.02457 
L 342.890462 -497.986726 
L 346.810513 -486.366018 
L 350.730565 -473.371627 
L 354.650616 -459.230303 
L 358.570668 -444.179822 
L 362.490719 -428.4624 
L 366.410771 -412.31833 
L 370.330822 -395.980052 
L 374.250874 -379.666871 
L 378.170925 -363.580456 
L 382.090977 -347.901251 
L 386.011028 -332.785841 
L 389.93108 -318.365297 
L 393.851131 -304.744465 
L 397.771183 -292.002137 
L 401.691234 -280.192004 
L 405.611286 -269.344261 
L 409.531337 -259.467747 
L 413.451388 -250.552459 
L 417.37144 -242.572312 
L 421.291491 -235.488004 
L 425.211543 -229.249878 
L 429.131594 -223.800667 
L 433.051646 -219.078053 
L 436.971697 -215.016962 
L 440.891749 -211.551575 
L 444.8118 -208.617009 
L 448.731852 -206.150691 
L 452.651903 -204.093399 
L 456.571955 -202.390029 
L 460.492006 -200.990079 
L 464.412058 -199.847921 
L 468.332109 -198.922859 
L 472.252161 -198.179047 
L 476.172212 -197.585273 
L 480.092264 -197.114666 
L 484.012315 -196.744335 
L 487.932367 -196.454982 
L 491.852418 -196.230497 
L 495.77247 -196.057565 
L 499.692521 -195.925281 
L 503.612573 -195.8248 
L 507.532624 -195.749007 
L 511.452676 -195.692234 
L 515.372727 -195.650004 
L 515.372727 -195.538011 
L 515.372727 -195.538011 
L 511.452676 -195.538011 
L 507.532624 -195.538011 
L 503.612573 -195.538011 
L 499.692521 -195.538011 
L 495.77247 -195.538011 
L 491.852418 -195.538011 
L 487.932367 -195.538011 
L 484.012315 -195.538011 
L 480.092264 -195.538011 
L 476.172212 -195.538011 
L 472.252161 -195.538011 
L 468.332109 -195.538011 
L 464.412058 -195.538011 
L 460.492006 -195.538011 
L 456.571955 -195.538011 
L 452.651903 -195.538011 
L 448.731852 -195.538011 
L 444.8118 -195.538011 
L 440.891749 -195.538011 
L 436.971697 -195.538011 
L 433.051646 -195.538011 
L 429.131594 -195.538011 
L 425.211543 -195.538011 
L 421.291491 -195.538011 
L 417.37144 -195.538011 
L 413.451388 -195.538011 
L 409.531337 -195.538011 
L 405.611286 -195.538011 
L 401.691234 -195.538011 
L 397.771183 -195.538011 
L 393.851131 -195.538011 
L 389.93108 -195.538011 
L 386.011028 -195.538011 
L 382.090977 -195.538011 
L 378.170925 -195.538011 
L 374.250874 -195.538011 
L 370.330822 -195.538011 
L 366.410771 -195.538011 
L 362.490719 -195.538011 
L 358.570668 -195.538011 
L 354.650616 -195.538011 
L 350.730565 -195.538011 
L 346.810513 -195.538011 
L 342.890462 -195.538011 
L 338.97041 -195.538011 
L 335.050359 -195.538011 
L 331.130307 -195.538011 
L 327.210256 -195.538011 
L 323.290204 -195.538011 
L 319.370153 -195.538011 
L 315.450101 -195.538011 
L 311.53005 -195.538011 
L 307.609998 -195.538011 
L 303.689947 -195.538011 
L 299.769895 -195.538011 
L 295.849844 -195.538011 
L 291.929792 -195.538011 
L 288.009741 -195.538011 
L 284.089689 -195.538011 
L 280.169638 -195.538011 
L 276.249586 -195.538011 
L 272.329535 -195.538011 
L 268.409483 -195.538011 
L 264.489432 -195.538011 
L 260.56938 -195.538011 
L 256.649329 -195.538011 
L 252.729277 -195.538011 
L 248.809226 -195.538011 
L 244.889174 -195.538011 
L 240.969123 -195.538011 
L 237.049071 -195.538011 
L 233.12902 -195.538011 
L 229.208968 -195.538011 
L 225.288917 -195.538011 
L 221.368865 -195.538011 
L 217.448814 -195.538011 
L 213.528762 -195.538011 
L 209.608711 -195.538011 
L 205.688659 -195.538011 
L 201.768608 -195.538011 
L 197.848556 -195.538011 
L 193.928505 -195.538011 
L 190.008453 -195.538011 
L 186.088402 -195.538011 
L 182.168351 -195.538011 
L 178.248299 -195.538011 
L 174.328248 -195.538011 
L 170.408196 -195.538011 
L 166.488145 -195.538011 
L 162.568093 -195.538011 
L 158.648042 -195.538011 
L 154.72799 -195.538011 
L 150.807939 -195.538011 
L 146.887887 -195.538011 
L 142.967836 -195.538011 
L 139.047784 -195.538011 
L 135.127733 -195.538011 
L 131.207681 -195.538011 
L 127.28763 -195.538011 
z
" id="m1cbd0c8823" style="stroke:#ff6384;stroke-opacity:0.5;"/>
    </defs>
    <g clip-path="url(#p2d3d967949)">
     <use style="fill:#ff6384;fill-opacity:0.5;stroke:#ff6384;stroke-opacity:0.5;" x="0" xlink:href="#m1cbd0c8823" y="581.789375"/>
    </g>
   </g>
   <g id="PolyCollection_2">
    <defs>
     <path d="M 58.827273 -195.538011 
L 58.827273 -195.643021 
L 63.008003 -195.682618 
L 67.188734 -195.735851 
L 71.369464 -195.806918 
L 75.550195 -195.901134 
L 79.730925 -196.025169 
L 83.911655 -196.187319 
L 88.092386 -196.397806 
L 92.273116 -196.669118 
L 96.453847 -197.016358 
L 100.634577 -197.457621 
L 104.815308 -198.014371 
L 108.996038 -198.711805 
L 113.176769 -199.579187 
L 117.357499 -200.650129 
L 121.538229 -201.962788 
L 125.71896 -203.55995 
L 129.89969 -205.488964 
L 134.080421 -207.801501 
L 138.261151 -210.553089 
L 142.441882 -213.802401 
L 146.622612 -217.610273 
L 150.803343 -222.03842 
L 154.984073 -227.147859 
L 159.164803 -232.997022 
L 163.345534 -239.639606 
L 167.526264 -247.122171 
L 171.706995 -255.481569 
L 175.887725 -264.742257 
L 180.068456 -274.913616 
L 184.249186 -285.987359 
L 188.429917 -297.935171 
L 192.610647 -310.70671 
L 196.791378 -324.228097 
L 200.972108 -338.401023 
L 205.152838 -353.102591 
L 209.333569 -368.185978 
L 213.514299 -383.481992 
L 217.69503 -398.801537 
L 221.87576 -413.938984 
L 226.056491 -428.676385 
L 230.237221 -442.788432 
L 234.417952 -456.048009 
L 238.598682 -468.232167 
L 242.779412 -479.128296 
L 246.960143 -488.540254 
L 251.140873 -496.294235 
L 255.321604 -502.244089 
L 259.502334 -506.275907 
L 263.683065 -508.311648 
L 267.863795 -508.311648 
L 272.044526 -506.275907 
L 276.225256 -502.244089 
L 280.405986 -496.294235 
L 284.586717 -488.540254 
L 288.767447 -479.128296 
L 292.948178 -468.232167 
L 297.128908 -456.048009 
L 301.309639 -442.788432 
L 305.490369 -428.676385 
L 309.6711 -413.938984 
L 313.85183 -398.801537 
L 318.032561 -383.481992 
L 322.213291 -368.185978 
L 326.394021 -353.102591 
L 330.574752 -338.401023 
L 334.755482 -324.228097 
L 338.936213 -310.70671 
L 343.116943 -297.935171 
L 347.297674 -285.987359 
L 351.478404 -274.913616 
L 355.659135 -264.742257 
L 359.839865 -255.481569 
L 364.020595 -247.122171 
L 368.201326 -239.639606 
L 372.382056 -232.997022 
L 376.562787 -227.147859 
L 380.743517 -222.03842 
L 384.924248 -217.610273 
L 389.104978 -213.802401 
L 393.285709 -210.553089 
L 397.466439 -207.801501 
L 401.647169 -205.488964 
L 405.8279 -203.55995 
L 410.00863 -201.962788 
L 414.189361 -200.650129 
L 418.370091 -199.579187 
L 422.550822 -198.711805 
L 426.731552 -198.014371 
L 430.912283 -197.457621 
L 435.093013 -197.016358 
L 439.273744 -196.669118 
L 443.454474 -196.397806 
L 447.635204 -196.187319 
L 451.815935 -196.025169 
L 455.996665 -195.901134 
L 460.177396 -195.806918 
L 464.358126 -195.735851 
L 468.538857 -195.682618 
L 472.719587 -195.643021 
L 472.719587 -195.538011 
L 472.719587 -195.538011 
L 468.538857 -195.538011 
L 464.358126 -195.538011 
L 460.177396 -195.538011 
L 455.996665 -195.538011 
L 451.815935 -195.538011 
L 447.635204 -195.538011 
L 443.454474 -195.538011 
L 439.273744 -195.538011 
L 435.093013 -195.538011 
L 430.912283 -195.538011 
L 426.731552 -195.538011 
L 422.550822 -195.538011 
L 418.370091 -195.538011 
L 414.189361 -195.538011 
L 410.00863 -195.538011 
L 405.8279 -195.538011 
L 401.647169 -195.538011 
L 397.466439 -195.538011 
L 393.285709 -195.538011 
L 389.104978 -195.538011 
L 384.924248 -195.538011 
L 380.743517 -195.538011 
L 376.562787 -195.538011 
L 372.382056 -195.538011 
L 368.201326 -195.538011 
L 364.020595 -195.538011 
L 359.839865 -195.538011 
L 355.659135 -195.538011 
L 351.478404 -195.538011 
L 347.297674 -195.538011 
L 343.116943 -195.538011 
L 338.936213 -195.538011 
L 334.755482 -195.538011 
L 330.574752 -195.538011 
L 326.394021 -195.538011 
L 322.213291 -195.538011 
L 318.032561 -195.538011 
L 313.85183 -195.538011 
L 309.6711 -195.538011 
L 305.490369 -195.538011 
L 301.309639 -195.538011 
L 297.128908 -195.538011 
L 292.948178 -195.538011 
L 288.767447 -195.538011 
L 284.586717 -195.538011 
L 280.405986 -195.538011 
L 276.225256 -195.538011 
L 272.044526 -195.538011 
L 267.863795 -195.538011 
L 263.683065 -195.538011 
L 259.502334 -195.538011 
L 255.321604 -195.538011 
L 251.140873 -195.538011 
L 246.960143 -195.538011 
L 242.779412 -195.538011 
L 238.598682 -195.538011 
L 234.417952 -195.538011 
L 230.237221 -195.538011 
L 226.056491 -195.538011 
L 221.87576 -195.538011 
L 217.69503 -195.538011 
L 213.514299 -195.538011 
L 209.333569 -195.538011 
L 205.152838 -195.538011 
L 200.972108 -195.538011 
L 196.791378 -195.538011 
L 192.610647 -195.538011 
L 188.429917 -195.538011 
L 184.249186 -195.538011 
L 180.068456 -195.538011 
L 175.887725 -195.538011 
L 171.706995 -195.538011 
L 167.526264 -195.538011 
L 163.345534 -195.538011 
L 159.164803 -195.538011 
L 154.984073 -195.538011 
L 150.803343 -195.538011 
L 146.622612 -195.538011 
L 142.441882 -195.538011 
L 138.261151 -195.538011 
L 134.080421 -195.538011 
L 129.89969 -195.538011 
L 125.71896 -195.538011 
L 121.538229 -195.538011 
L 117.357499 -195.538011 
L 113.176769 -195.538011 
L 108.996038 -195.538011 
L 104.815308 -195.538011 
L 100.634577 -195.538011 
L 96.453847 -195.538011 
L 92.273116 -195.538011 
L 88.092386 -195.538011 
L 83.911655 -195.538011 
L 79.730925 -195.538011 
L 75.550195 -195.538011 
L 71.369464 -195.538011 
L 67.188734 -195.538011 
L 63.008003 -195.538011 
L 58.827273 -195.538011 
z
" id="m43ed2f5ca2" style="stroke:#36a2eb;stroke-opacity:0.5;"/>
    </defs>
    <g clip-path="url(#p2d3d967949)">
     <use style="fill:#36a2eb;fill-opacity:0.5;stroke:#36a2eb;stroke-opacity:0.5;" x="0" xlink:href="#m43ed2f5ca2" y="581.789375"/>
    </g>
   </g>
   <g id="line2d_1">
    <path clip-path="url(#p2d3d967949)" d="M 127.28763 386.139371 
L 131.207681 386.097141 
L 135.127733 386.040368 
L 139.047784 385.964575 
L 142.967836 385.864094 
L 146.887887 385.73181 
L 150.807939 385.558878 
L 154.72799 385.334393 
L 158.648042 385.04504 
L 162.568093 384.674709 
L 166.488145 384.204102 
L 170.408196 383.610328 
L 174.328248 382.866516 
L 178.248299 381.941454 
L 182.168351 380.799296 
L 186.088402 379.399346 
L 190.008453 377.695976 
L 193.928505 375.638684 
L 197.848556 373.172366 
L 201.768608 370.2378 
L 205.688659 366.772413 
L 209.608711 362.711322 
L 213.528762 357.988708 
L 217.448814 352.539497 
L 221.368865 346.301371 
L 225.288917 339.217063 
L 229.208968 331.236916 
L 233.12902 322.321628 
L 237.049071 312.445114 
L 240.969123 301.597371 
L 244.889174 289.787238 
L 248.809226 277.04491 
L 252.729277 263.424078 
L 256.649329 249.003534 
L 260.56938 233.888124 
L 264.489432 218.208919 
L 268.409483 202.122504 
L 272.329535 185.809323 
L 276.249586 169.471045 
L 280.169638 153.326975 
L 284.089689 137.609553 
L 288.009741 122.559072 
L 291.929792 108.417748 
L 295.849844 95.423357 
L 299.769895 83.802649 
L 303.689947 73.764805 
L 307.609998 65.495194 
L 311.53005 59.149682 
L 315.450101 54.849752 
L 319.370153 52.678636 
L 323.290204 52.678636 
L 327.210256 54.849752 
L 331.130307 59.149682 
L 335.050359 65.495194 
L 338.97041 73.764805 
L 342.890462 83.802649 
L 346.810513 95.423357 
L 350.730565 108.417748 
L 354.650616 122.559072 
L 358.570668 137.609553 
L 362.490719 153.326975 
L 366.410771 169.471045 
L 370.330822 185.809323 
L 374.250874 202.122504 
L 378.170925 218.208919 
L 382.090977 233.888124 
L 386.011028 249.003534 
L 389.93108 263.424078 
L 393.851131 277.04491 
L 397.771183 289.787238 
L 401.691234 301.597371 
L 405.611286 312.445114 
L 409.531337 322.321628 
L 413.451388 331.236916 
L 417.37144 339.217063 
L 421.291491 346.301371 
L 425.211543 352.539497 
L 429.131594 357.988708 
L 433.051646 362.711322 
L 436.971697 366.772413 
L 440.891749 370.2378 
L 444.8118 373.172366 
L 448.731852 375.638684 
L 452.651903 377.695976 
L 456.571955 379.399346 
L 460.492006 380.799296 
L 464.412058 381.941454 
L 468.332109 382.866516 
L 472.252161 383.610328 
L 476.172212 384.204102 
L 480.092264 384.674709 
L 484.012315 385.04504 
L 487.932367 385.334393 
L 491.852418 385.558878 
L 495.77247 385.73181 
L 499.692521 385.864094 
L 503.612573 385.964575 
L 507.532624 386.040368 
L 511.452676 386.097141 
L 515.372727 386.139371 
" style="fill:none;stroke:#ff6384;stroke-linecap:square;"/>
   </g>
   <g id="line2d_2">
    <path clip-path="url(#p2d3d967949)" d="M 58.827273 386.146354 
L 63.008003 386.106757 
L 67.188734 386.053524 
L 71.369464 385.982457 
L 75.550195 385.888241 
L 79.730925 385.764206 
L 83.911655 385.602056 
L 88.092386 385.391569 
L 92.273116 385.120257 
L 96.453847 384.773017 
L 100.634577 384.331754 
L 104.815308 383.775004 
L 108.996038 383.07757 
L 113.176769 382.210188 
L 117.357499 381.139246 
L 121.538229 379.826587 
L 125.71896 378.229425 
L 129.89969 376.300411 
L 134.080421 373.987874 
L 138.261151 371.236286 
L 142.441882 367.986974 
L 146.622612 364.179102 
L 150.803343 359.750955 
L 154.984073 354.641516 
L 159.164803 348.792353 
L 163.345534 342.149769 
L 167.526264 334.667204 
L 171.706995 326.307806 
L 175.887725 317.047118 
L 180.068456 306.875759 
L 184.249186 295.802016 
L 188.429917 283.854204 
L 192.610647 271.082665 
L 196.791378 257.561278 
L 200.972108 243.388352 
L 205.152838 228.686784 
L 209.333569 213.603397 
L 213.514299 198.307383 
L 217.69503 182.987838 
L 221.87576 167.850391 
L 226.056491 153.11299 
L 230.237221 139.000943 
L 234.417952 125.741366 
L 238.598682 113.557208 
L 242.779412 102.661079 
L 246.960143 93.249121 
L 251.140873 85.49514 
L 255.321604 79.545286 
L 259.502334 75.513468 
L 263.683065 73.477727 
L 267.863795 73.477727 
L 272.044526 75.513468 
L 276.225256 79.545286 
L 280.405986 85.49514 
L 284.586717 93.249121 
L 288.767447 102.661079 
L 292.948178 113.557208 
L 297.128908 125.741366 
L 301.309639 139.000943 
L 305.490369 153.11299 
L 309.6711 167.850391 
L 313.85183 182.987838 
L 318.032561 198.307383 
L 322.213291 213.603397 
L 326.394021 228.686784 
L 330.574752 243.388352 
L 334.755482 257.561278 
L 338.936213 271.082665 
L 343.116943 283.854204 
L 347.297674 295.802016 
L 351.478404 306.875759 
L 355.659135 317.047118 
L 359.839865 326.307806 
L 364.020595 334.667204 
L 368.201326 342.149769 
L 372.382056 348.792353 
L 376.562787 354.641516 
L 380.743517 359.750955 
L 384.924248 364.179102 
L 389.104978 367.986974 
L 393.285709 371.236286 
L 397.466439 373.987874 
L 401.647169 376.300411 
L 405.8279 378.229425 
L 410.00863 379.826587 
L 414.189361 381.139246 
L 418.370091 382.210188 
L 422.550822 383.07757 
L 426.731552 383.775004 
L 430.912283 384.331754 
L 435.093013 384.773017 
L 439.273744 385.120257 
L 443.454474 385.391569 
L 447.635204 385.602056 
L 451.815935 385.764206 
L 455.996665 385.888241 
L 460.177396 385.982457 
L 464.358126 386.053524 
L 468.538857 386.106757 
L 472.719587 386.146354 
" style="fill:none;stroke:#36a2eb;stroke-linecap:square;"/>
   </g>
   <g id="patch_3">
    <path d="M 36 402.93 
L 538.2 402.93 
" style="fill:none;stroke:#000000;stroke-linecap:square;stroke-linejoin:miter;stroke-width:0.8;"/>
   </g>
   <g id="legend_1">
    <g id="patch_4">
     <path d="M 414.919063 88.29875 
L 528.4 88.29875 
Q 531.2 88.29875 531.2 85.49875 
L 531.2 45.8 
Q 531.2 43 528.4 43 
L 414.919063 43 
Q 412.119063 43 412.119063 45.8 
L 412.119063 85.49875 
Q 412.119063 88.29875 414.919063 88.29875 
z
" style="fill:#ffffff;opacity:0.8;stroke:#cccccc;stroke-linejoin:miter;"/>
    </g>
    <g id="patch_5">
     <path d="M 417.719063 59.237813 
L 445.719063 59.237813 
L 445.719063 49.437813 
L 417.719063 49.437813 
z
" style="fill:#ff6384;opacity:0.5;stroke:#ff6384;stroke-linejoin:miter;"/>
    </g>
    <g id="text_1">
     <!-- sidemenu -->
     <defs>
      <path d="M 44.28125 53.078125 
L 44.28125 44.578125 
Q 40.484375 46.53125 36.375 47.5 
Q 32.28125 48.484375 27.875 48.484375 
Q 21.1875 48.484375 17.84375 46.4375 
Q 14.5 44.390625 14.5 40.28125 
Q 14.5 37.15625 16.890625 35.375 
Q 19.28125 33.59375 26.515625 31.984375 
L 29.59375 31.296875 
Q 39.15625 29.25 43.1875 25.515625 
Q 47.21875 21.78125 47.21875 15.09375 
Q 47.21875 7.46875 41.1875 3.015625 
Q 35.15625 -1.421875 24.609375 -1.421875 
Q 20.21875 -1.421875 15.453125 -0.5625 
Q 10.6875 0.296875 5.421875 2 
L 5.421875 11.28125 
Q 10.40625 8.6875 15.234375 7.390625 
Q 20.0625 6.109375 24.8125 6.109375 
Q 31.15625 6.109375 34.5625 8.28125 
Q 37.984375 10.453125 37.984375 14.40625 
Q 37.984375 18.0625 35.515625 20.015625 
Q 33.0625 21.96875 24.703125 23.78125 
L 21.578125 24.515625 
Q 13.234375 26.265625 9.515625 29.90625 
Q 5.8125 33.546875 5.8125 39.890625 
Q 5.8125 47.609375 11.28125 51.796875 
Q 16.75 56 26.8125 56 
Q 31.78125 56 36.171875 55.265625 
Q 40.578125 54.546875 44.28125 53.078125 
z
" id="DejaVuSans-115"/>
      <path d="M 9.421875 54.6875 
L 18.40625 54.6875 
L 18.40625 0 
L 9.421875 0 
z
M 9.421875 75.984375 
L 18.40625 75.984375 
L 18.40625 64.59375 
L 9.421875 64.59375 
z
" id="DejaVuSans-105"/>
      <path d="M 45.40625 46.390625 
L 45.40625 75.984375 
L 54.390625 75.984375 
L 54.390625 0 
L 45.40625 0 
L 45.40625 8.203125 
Q 42.578125 3.328125 38.25 0.953125 
Q 33.9375 -1.421875 27.875 -1.421875 
Q 17.96875 -1.421875 11.734375 6.484375 
Q 5.515625 14.40625 5.515625 27.296875 
Q 5.515625 40.1875 11.734375 48.09375 
Q 17.96875 56 27.875 56 
Q 33.9375 56 38.25 53.625 
Q 42.578125 51.265625 45.40625 46.390625 
z
M 14.796875 27.296875 
Q 14.796875 17.390625 18.875 11.75 
Q 22.953125 6.109375 30.078125 6.109375 
Q 37.203125 6.109375 41.296875 11.75 
Q 45.40625 17.390625 45.40625 27.296875 
Q 45.40625 37.203125 41.296875 42.84375 
Q 37.203125 48.484375 30.078125 48.484375 
Q 22.953125 48.484375 18.875 42.84375 
Q 14.796875 37.203125 14.796875 27.296875 
z
" id="DejaVuSans-100"/>
      <path d="M 56.203125 29.59375 
L 56.203125 25.203125 
L 14.890625 25.203125 
Q 15.484375 15.921875 20.484375 11.0625 
Q 25.484375 6.203125 34.421875 6.203125 
Q 39.59375 6.203125 44.453125 7.46875 
Q 49.3125 8.734375 54.109375 11.28125 
L 54.109375 2.78125 
Q 49.265625 0.734375 44.1875 -0.34375 
Q 39.109375 -1.421875 33.890625 -1.421875 
Q 20.796875 -1.421875 13.15625 6.1875 
Q 5.515625 13.8125 5.515625 26.8125 
Q 5.515625 40.234375 12.765625 48.109375 
Q 20.015625 56 32.328125 56 
Q 43.359375 56 49.78125 48.890625 
Q 56.203125 41.796875 56.203125 29.59375 
z
M 47.21875 32.234375 
Q 47.125 39.59375 43.09375 43.984375 
Q 39.0625 48.390625 32.421875 48.390625 
Q 24.90625 48.390625 20.390625 44.140625 
Q 15.875 39.890625 15.1875 32.171875 
z
" id="DejaVuSans-101"/>
      <path d="M 52 44.1875 
Q 55.375 50.25 60.0625 53.125 
Q 64.75 56 71.09375 56 
Q 79.640625 56 84.28125 50.015625 
Q 88.921875 44.046875 88.921875 33.015625 
L 88.921875 0 
L 79.890625 0 
L 79.890625 32.71875 
Q 79.890625 40.578125 77.09375 44.375 
Q 74.3125 48.1875 68.609375 48.1875 
Q 61.625 48.1875 57.5625 43.546875 
Q 53.515625 38.921875 53.515625 30.90625 
L 53.515625 0 
L 44.484375 0 
L 44.484375 32.71875 
Q 44.484375 40.625 41.703125 44.40625 
Q 38.921875 48.1875 33.109375 48.1875 
Q 26.21875 48.1875 22.15625 43.53125 
Q 18.109375 38.875 18.109375 30.90625 
L 18.109375 0 
L 9.078125 0 
L 9.078125 54.6875 
L 18.109375 54.6875 
L 18.109375 46.1875 
Q 21.1875 51.21875 25.484375 53.609375 
Q 29.78125 56 35.6875 56 
Q 41.65625 56 45.828125 52.96875 
Q 50 49.953125 52 44.1875 
z
" id="DejaVuSans-109"/>
      <path d="M 54.890625 33.015625 
L 54.890625 0 
L 45.90625 0 
L 45.90625 32.71875 
Q 45.90625 40.484375 42.875 44.328125 
Q 39.84375 48.1875 33.796875 48.1875 
Q 26.515625 48.1875 22.3125 43.546875 
Q 18.109375 38.921875 18.109375 30.90625 
L 18.109375 0 
L 9.078125 0 
L 9.078125 54.6875 
L 18.109375 54.6875 
L 18.109375 46.1875 
Q 21.34375 51.125 25.703125 53.5625 
Q 30.078125 56 35.796875 56 
Q 45.21875 56 50.046875 50.171875 
Q 54.890625 44.34375 54.890625 33.015625 
z
" id="DejaVuSans-110"/>
      <path d="M 8.5 21.578125 
L 8.5 54.6875 
L 17.484375 54.6875 
L 17.484375 21.921875 
Q 17.484375 14.15625 20.5 10.265625 
Q 23.53125 6.390625 29.59375 6.390625 
Q 36.859375 6.390625 41.078125 11.03125 
Q 45.3125 15.671875 45.3125 23.6875 
L 45.3125 54.6875 
L 54.296875 54.6875 
L 54.296875 0 
L 45.3125 0 
L 45.3125 8.40625 
Q 42.046875 3.421875 37.71875 1 
Q 33.40625 -1.421875 27.6875 -1.421875 
Q 18.265625 -1.421875 13.375 4.4375 
Q 8.5 10.296875 8.5 21.578125 
z
M 31.109375 56 
z
" id="DejaVuSans-117"/>
     </defs>
     <g transform="translate(456.919063 59.237813)scale(0.14 -0.14)">
      <use xlink:href="#DejaVuSans-115"/>
      <use x="52.099609" xlink:href="#DejaVuSans-105"/>
      <use x="79.882812" xlink:href="#DejaVuSans-100"/>
      <use x="143.359375" xlink:href="#DejaVuSans-101"/>
      <use x="204.882812" xlink:href="#DejaVuSans-109"/>
      <use x="302.294922" xlink:href="#DejaVuSans-101"/>
      <use x="363.818359" xlink:href="#DejaVuSans-110"/>
      <use x="427.197266" xlink:href="#DejaVuSans-117"/>
     </g>
    </g>
    <g id="patch_6">
     <path d="M 417.719063 79.787188 
L 445.719063 79.787188 
L 445.719063 69.987188 
L 417.719063 69.987188 
z
" style="fill:#36a2eb;opacity:0.5;stroke:#36a2eb;stroke-linejoin:miter;"/>
    </g>
    <g id="text_2">
     <!-- tabbar -->
     <defs>
      <path d="M 18.3125 70.21875 
L 18.3125 54.6875 
L 36.8125 54.6875 
L 36.8125 47.703125 
L 18.3125 47.703125 
L 18.3125 18.015625 
Q 18.3125 11.328125 20.140625 9.421875 
Q 21.96875 7.515625 27.59375 7.515625 
L 36.8125 7.515625 
L 36.8125 0 
L 27.59375 0 
Q 17.1875 0 13.234375 3.875 
Q 9.28125 7.765625 9.28125 18.015625 
L 9.28125 47.703125 
L 2.6875 47.703125 
L 2.6875 54.6875 
L 9.28125 54.6875 
L 9.28125 70.21875 
z
" id="DejaVuSans-116"/>
      <path d="M 34.28125 27.484375 
Q 23.390625 27.484375 19.1875 25 
Q 14.984375 22.515625 14.984375 16.5 
Q 14.984375 11.71875 18.140625 8.90625 
Q 21.296875 6.109375 26.703125 6.109375 
Q 34.1875 6.109375 38.703125 11.40625 
Q 43.21875 16.703125 43.21875 25.484375 
L 43.21875 27.484375 
z
M 52.203125 31.203125 
L 52.203125 0 
L 43.21875 0 
L 43.21875 8.296875 
Q 40.140625 3.328125 35.546875 0.953125 
Q 30.953125 -1.421875 24.3125 -1.421875 
Q 15.921875 -1.421875 10.953125 3.296875 
Q 6 8.015625 6 15.921875 
Q 6 25.140625 12.171875 29.828125 
Q 18.359375 34.515625 30.609375 34.515625 
L 43.21875 34.515625 
L 43.21875 35.40625 
Q 43.21875 41.609375 39.140625 45 
Q 35.0625 48.390625 27.6875 48.390625 
Q 23 48.390625 18.546875 47.265625 
Q 14.109375 46.140625 10.015625 43.890625 
L 10.015625 52.203125 
Q 14.9375 54.109375 19.578125 55.046875 
Q 24.21875 56 28.609375 56 
Q 40.484375 56 46.34375 49.84375 
Q 52.203125 43.703125 52.203125 31.203125 
z
" id="DejaVuSans-97"/>
      <path d="M 48.6875 27.296875 
Q 48.6875 37.203125 44.609375 42.84375 
Q 40.53125 48.484375 33.40625 48.484375 
Q 26.265625 48.484375 22.1875 42.84375 
Q 18.109375 37.203125 18.109375 27.296875 
Q 18.109375 17.390625 22.1875 11.75 
Q 26.265625 6.109375 33.40625 6.109375 
Q 40.53125 6.109375 44.609375 11.75 
Q 48.6875 17.390625 48.6875 27.296875 
z
M 18.109375 46.390625 
Q 20.953125 51.265625 25.265625 53.625 
Q 29.59375 56 35.59375 56 
Q 45.5625 56 51.78125 48.09375 
Q 58.015625 40.1875 58.015625 27.296875 
Q 58.015625 14.40625 51.78125 6.484375 
Q 45.5625 -1.421875 35.59375 -1.421875 
Q 29.59375 -1.421875 25.265625 0.953125 
Q 20.953125 3.328125 18.109375 8.203125 
L 18.109375 0 
L 9.078125 0 
L 9.078125 75.984375 
L 18.109375 75.984375 
z
" id="DejaVuSans-98"/>
      <path d="M 41.109375 46.296875 
Q 39.59375 47.171875 37.8125 47.578125 
Q 36.03125 48 33.890625 48 
Q 26.265625 48 22.1875 43.046875 
Q 18.109375 38.09375 18.109375 28.8125 
L 18.109375 0 
L 9.078125 0 
L 9.078125 54.6875 
L 18.109375 54.6875 
L 18.109375 46.1875 
Q 20.953125 51.171875 25.484375 53.578125 
Q 30.03125 56 36.53125 56 
Q 37.453125 56 38.578125 55.875 
Q 39.703125 55.765625 41.0625 55.515625 
z
" id="DejaVuSans-114"/>
     </defs>
     <g transform="translate(456.919063 79.787188)scale(0.14 -0.14)">
      <use xlink:href="#DejaVuSans-116"/>
      <use x="39.208984" xlink:href="#DejaVuSans-97"/>
      <use x="100.488281" xlink:href="#DejaVuSans-98"/>
      <use x="163.964844" xlink:href="#DejaVuSans-98"/>
      <use x="227.441406" xlink:href="#DejaVuSans-97"/>
      <use x="288.720703" xlink:href="#DejaVuSans-114"/>
     </g>
    </g>
   </g>
  </g>
  <g id="axes_2">
   <g id="patch_7">
    <path d="M 36 525.24 
L 538.2 525.24 
L 538.2 402.93 
L 36 402.93 
z
" style="fill:none;"/>
   </g>
   <g id="patch_8">
    <path clip-path="url(#pe419ddcc44)" d="M 226.24933 519.680455 
L 416.411027 519.680455 
L 416.411027 482.616818 
L 226.24933 482.616818 
z
" style="fill:#ff6384;opacity:0.5;"/>
   </g>
   <g id="patch_9">
    <path clip-path="url(#pe419ddcc44)" d="M 164.369813 445.553182 
L 367.177047 445.553182 
L 367.177047 408.489545 
L 164.369813 408.489545 
z
" style="fill:#36a2eb;opacity:0.5;"/>
   </g>
   <g id="matplotlib.axis_1">
    <g id="xtick_1">
     <g id="line2d_3">
      <defs>
       <path d="M 0 0 
L 0 3.5 
" id="m9b7efe6cb7" style="stroke:#000000;stroke-width:0.8;"/>
      </defs>
      <g>
       <use style="stroke:#000000;stroke-width:0.8;" x="62.065352" xlink:href="#m9b7efe6cb7" y="525.24"/>
      </g>
     </g>
     <g id="text_3">
      <!-- 2.0 -->
      <defs>
       <path d="M 19.1875 8.296875 
L 53.609375 8.296875 
L 53.609375 0 
L 7.328125 0 
L 7.328125 8.296875 
Q 12.9375 14.109375 22.625 23.890625 
Q 32.328125 33.6875 34.8125 36.53125 
Q 39.546875 41.84375 41.421875 45.53125 
Q 43.3125 49.21875 43.3125 52.78125 
Q 43.3125 58.59375 39.234375 62.25 
Q 35.15625 65.921875 28.609375 65.921875 
Q 23.96875 65.921875 18.8125 64.3125 
Q 13.671875 62.703125 7.8125 59.421875 
L 7.8125 69.390625 
Q 13.765625 71.78125 18.9375 73 
Q 24.125 74.21875 28.421875 74.21875 
Q 39.75 74.21875 46.484375 68.546875 
Q 53.21875 62.890625 53.21875 53.421875 
Q 53.21875 48.921875 51.53125 44.890625 
Q 49.859375 40.875 45.40625 35.40625 
Q 44.1875 33.984375 37.640625 27.21875 
Q 31.109375 20.453125 19.1875 8.296875 
z
" id="DejaVuSans-50"/>
       <path d="M 10.6875 12.40625 
L 21 12.40625 
L 21 0 
L 10.6875 0 
z
" id="DejaVuSans-46"/>
       <path d="M 31.78125 66.40625 
Q 24.171875 66.40625 20.328125 58.90625 
Q 16.5 51.421875 16.5 36.375 
Q 16.5 21.390625 20.328125 13.890625 
Q 24.171875 6.390625 31.78125 6.390625 
Q 39.453125 6.390625 43.28125 13.890625 
Q 47.125 21.390625 47.125 36.375 
Q 47.125 51.421875 43.28125 58.90625 
Q 39.453125 66.40625 31.78125 66.40625 
z
M 31.78125 74.21875 
Q 44.046875 74.21875 50.515625 64.515625 
Q 56.984375 54.828125 56.984375 36.375 
Q 56.984375 17.96875 50.515625 8.265625 
Q 44.046875 -1.421875 31.78125 -1.421875 
Q 19.53125 -1.421875 13.0625 8.265625 
Q 6.59375 17.96875 6.59375 36.375 
Q 6.59375 54.828125 13.0625 64.515625 
Q 19.53125 74.21875 31.78125 74.21875 
z
" id="DejaVuSans-48"/>
      </defs>
      <g transform="translate(50.933164 542.877813)scale(0.14 -0.14)">
       <use xlink:href="#DejaVuSans-50"/>
       <use x="63.623047" xlink:href="#DejaVuSans-46"/>
       <use x="95.410156" xlink:href="#DejaVuSans-48"/>
      </g>
     </g>
    </g>
    <g id="xtick_2">
     <g id="line2d_4">
      <g>
       <use style="stroke:#000000;stroke-width:0.8;" x="123.795073" xlink:href="#m9b7efe6cb7" y="525.24"/>
      </g>
     </g>
     <g id="text_4">
      <!-- 2.2 -->
      <g transform="translate(112.662885 542.877813)scale(0.14 -0.14)">
       <use xlink:href="#DejaVuSans-50"/>
       <use x="63.623047" xlink:href="#DejaVuSans-46"/>
       <use x="95.410156" xlink:href="#DejaVuSans-50"/>
      </g>
     </g>
    </g>
    <g id="xtick_3">
     <g id="line2d_5">
      <g>
       <use style="stroke:#000000;stroke-width:0.8;" x="185.524793" xlink:href="#m9b7efe6cb7" y="525.24"/>
      </g>
     </g>
     <g id="text_5">
      <!-- 2.4 -->
      <defs>
       <path d="M 37.796875 64.3125 
L 12.890625 25.390625 
L 37.796875 25.390625 
z
M 35.203125 72.90625 
L 47.609375 72.90625 
L 47.609375 25.390625 
L 58.015625 25.390625 
L 58.015625 17.1875 
L 47.609375 17.1875 
L 47.609375 0 
L 37.796875 0 
L 37.796875 17.1875 
L 4.890625 17.1875 
L 4.890625 26.703125 
z
" id="DejaVuSans-52"/>
      </defs>
      <g transform="translate(174.392606 542.877813)scale(0.14 -0.14)">
       <use xlink:href="#DejaVuSans-50"/>
       <use x="63.623047" xlink:href="#DejaVuSans-46"/>
       <use x="95.410156" xlink:href="#DejaVuSans-52"/>
      </g>
     </g>
    </g>
    <g id="xtick_4">
     <g id="line2d_6">
      <g>
       <use style="stroke:#000000;stroke-width:0.8;" x="247.254514" xlink:href="#m9b7efe6cb7" y="525.24"/>
      </g>
     </g>
     <g id="text_6">
      <!-- 2.6 -->
      <defs>
       <path d="M 33.015625 40.375 
Q 26.375 40.375 22.484375 35.828125 
Q 18.609375 31.296875 18.609375 23.390625 
Q 18.609375 15.53125 22.484375 10.953125 
Q 26.375 6.390625 33.015625 6.390625 
Q 39.65625 6.390625 43.53125 10.953125 
Q 47.40625 15.53125 47.40625 23.390625 
Q 47.40625 31.296875 43.53125 35.828125 
Q 39.65625 40.375 33.015625 40.375 
z
M 52.59375 71.296875 
L 52.59375 62.3125 
Q 48.875 64.0625 45.09375 64.984375 
Q 41.3125 65.921875 37.59375 65.921875 
Q 27.828125 65.921875 22.671875 59.328125 
Q 17.53125 52.734375 16.796875 39.40625 
Q 19.671875 43.65625 24.015625 45.921875 
Q 28.375 48.1875 33.59375 48.1875 
Q 44.578125 48.1875 50.953125 41.515625 
Q 57.328125 34.859375 57.328125 23.390625 
Q 57.328125 12.15625 50.6875 5.359375 
Q 44.046875 -1.421875 33.015625 -1.421875 
Q 20.359375 -1.421875 13.671875 8.265625 
Q 6.984375 17.96875 6.984375 36.375 
Q 6.984375 53.65625 15.1875 63.9375 
Q 23.390625 74.21875 37.203125 74.21875 
Q 40.921875 74.21875 44.703125 73.484375 
Q 48.484375 72.75 52.59375 71.296875 
z
" id="DejaVuSans-54"/>
      </defs>
      <g transform="translate(236.122326 542.877813)scale(0.14 -0.14)">
       <use xlink:href="#DejaVuSans-50"/>
       <use x="63.623047" xlink:href="#DejaVuSans-46"/>
       <use x="95.410156" xlink:href="#DejaVuSans-54"/>
      </g>
     </g>
    </g>
    <g id="xtick_5">
     <g id="line2d_7">
      <g>
       <use style="stroke:#000000;stroke-width:0.8;" x="308.984234" xlink:href="#m9b7efe6cb7" y="525.24"/>
      </g>
     </g>
     <g id="text_7">
      <!-- 2.8 -->
      <defs>
       <path d="M 31.78125 34.625 
Q 24.75 34.625 20.71875 30.859375 
Q 16.703125 27.09375 16.703125 20.515625 
Q 16.703125 13.921875 20.71875 10.15625 
Q 24.75 6.390625 31.78125 6.390625 
Q 38.8125 6.390625 42.859375 10.171875 
Q 46.921875 13.96875 46.921875 20.515625 
Q 46.921875 27.09375 42.890625 30.859375 
Q 38.875 34.625 31.78125 34.625 
z
M 21.921875 38.8125 
Q 15.578125 40.375 12.03125 44.71875 
Q 8.5 49.078125 8.5 55.328125 
Q 8.5 64.0625 14.71875 69.140625 
Q 20.953125 74.21875 31.78125 74.21875 
Q 42.671875 74.21875 48.875 69.140625 
Q 55.078125 64.0625 55.078125 55.328125 
Q 55.078125 49.078125 51.53125 44.71875 
Q 48 40.375 41.703125 38.8125 
Q 48.828125 37.15625 52.796875 32.3125 
Q 56.78125 27.484375 56.78125 20.515625 
Q 56.78125 9.90625 50.3125 4.234375 
Q 43.84375 -1.421875 31.78125 -1.421875 
Q 19.734375 -1.421875 13.25 4.234375 
Q 6.78125 9.90625 6.78125 20.515625 
Q 6.78125 27.484375 10.78125 32.3125 
Q 14.796875 37.15625 21.921875 38.8125 
z
M 18.3125 54.390625 
Q 18.3125 48.734375 21.84375 45.5625 
Q 25.390625 42.390625 31.78125 42.390625 
Q 38.140625 42.390625 41.71875 45.5625 
Q 45.3125 48.734375 45.3125 54.390625 
Q 45.3125 60.0625 41.71875 63.234375 
Q 38.140625 66.40625 31.78125 66.40625 
Q 25.390625 66.40625 21.84375 63.234375 
Q 18.3125 60.0625 18.3125 54.390625 
z
" id="DejaVuSans-56"/>
      </defs>
      <g transform="translate(297.852047 542.877813)scale(0.14 -0.14)">
       <use xlink:href="#DejaVuSans-50"/>
       <use x="63.623047" xlink:href="#DejaVuSans-46"/>
       <use x="95.410156" xlink:href="#DejaVuSans-56"/>
      </g>
     </g>
    </g>
    <g id="xtick_6">
     <g id="line2d_8">
      <g>
       <use style="stroke:#000000;stroke-width:0.8;" x="370.713955" xlink:href="#m9b7efe6cb7" y="525.24"/>
      </g>
     </g>
     <g id="text_8">
      <!-- 3.0 -->
      <defs>
       <path d="M 40.578125 39.3125 
Q 47.65625 37.796875 51.625 33 
Q 55.609375 28.21875 55.609375 21.1875 
Q 55.609375 10.40625 48.1875 4.484375 
Q 40.765625 -1.421875 27.09375 -1.421875 
Q 22.515625 -1.421875 17.65625 -0.515625 
Q 12.796875 0.390625 7.625 2.203125 
L 7.625 11.71875 
Q 11.71875 9.328125 16.59375 8.109375 
Q 21.484375 6.890625 26.8125 6.890625 
Q 36.078125 6.890625 40.9375 10.546875 
Q 45.796875 14.203125 45.796875 21.1875 
Q 45.796875 27.640625 41.28125 31.265625 
Q 36.765625 34.90625 28.71875 34.90625 
L 20.21875 34.90625 
L 20.21875 43.015625 
L 29.109375 43.015625 
Q 36.375 43.015625 40.234375 45.921875 
Q 44.09375 48.828125 44.09375 54.296875 
Q 44.09375 59.90625 40.109375 62.90625 
Q 36.140625 65.921875 28.71875 65.921875 
Q 24.65625 65.921875 20.015625 65.03125 
Q 15.375 64.15625 9.8125 62.3125 
L 9.8125 71.09375 
Q 15.4375 72.65625 20.34375 73.4375 
Q 25.25 74.21875 29.59375 74.21875 
Q 40.828125 74.21875 47.359375 69.109375 
Q 53.90625 64.015625 53.90625 55.328125 
Q 53.90625 49.265625 50.4375 45.09375 
Q 46.96875 40.921875 40.578125 39.3125 
z
" id="DejaVuSans-51"/>
      </defs>
      <g transform="translate(359.581767 542.877813)scale(0.14 -0.14)">
       <use xlink:href="#DejaVuSans-51"/>
       <use x="63.623047" xlink:href="#DejaVuSans-46"/>
       <use x="95.410156" xlink:href="#DejaVuSans-48"/>
      </g>
     </g>
    </g>
    <g id="xtick_7">
     <g id="line2d_9">
      <g>
       <use style="stroke:#000000;stroke-width:0.8;" x="432.443676" xlink:href="#m9b7efe6cb7" y="525.24"/>
      </g>
     </g>
     <g id="text_9">
      <!-- 3.2 -->
      <g transform="translate(421.311488 542.877813)scale(0.14 -0.14)">
       <use xlink:href="#DejaVuSans-51"/>
       <use x="63.623047" xlink:href="#DejaVuSans-46"/>
       <use x="95.410156" xlink:href="#DejaVuSans-50"/>
      </g>
     </g>
    </g>
    <g id="xtick_8">
     <g id="line2d_10">
      <g>
       <use style="stroke:#000000;stroke-width:0.8;" x="494.173396" xlink:href="#m9b7efe6cb7" y="525.24"/>
      </g>
     </g>
     <g id="text_10">
      <!-- 3.4 -->
      <g transform="translate(483.041209 542.877813)scale(0.14 -0.14)">
       <use xlink:href="#DejaVuSans-51"/>
       <use x="63.623047" xlink:href="#DejaVuSans-46"/>
       <use x="95.410156" xlink:href="#DejaVuSans-52"/>
      </g>
     </g>
    </g>
   </g>
   <g id="line2d_11">
    <path clip-path="url(#pe419ddcc44)" d="M 321.330178 525.24 
L 321.330178 402.93 
" style="fill:none;stroke:#ff6384;stroke-dasharray:5.55,2.4;stroke-dashoffset:0;stroke-opacity:0.8;stroke-width:1.5;"/>
   </g>
   <g id="line2d_12">
    <path clip-path="url(#pe419ddcc44)" d="M 265.77343 525.24 
L 265.77343 402.93 
" style="fill:none;stroke:#36a2eb;stroke-dasharray:5.55,2.4;stroke-dashoffset:0;stroke-opacity:0.8;stroke-width:1.5;"/>
   </g>
   <g id="patch_10">
    <path d="M 36 525.24 
L 538.2 525.24 
" style="fill:none;stroke:#000000;stroke-linecap:square;stroke-linejoin:miter;stroke-width:0.8;"/>
   </g>
  </g>
 </g>
 <defs>
  <clipPath id="p2d3d967949">
   <rect height="366.93" width="502.2" x="36" y="36"/>
  </clipPath>
  <clipPath id="pe419ddcc44">
   <rect height="122.31" width="502.2" x="36" y="402.93"/>
  </clipPath>
 </defs>
</svg>
