<?xml version="1.0" encoding="utf-8" standalone="no"?>
<!DOCTYPE svg PUBLIC "-//W3C//DTD SVG 1.1//EN"
  "http://www.w3.org/Graphics/SVG/1.1/DTD/svg11.dtd">
<!-- Created with matplotlib (https://matplotlib.org/) -->
<svg height="581.789375pt" version="1.1" viewBox="0 0 574.2 581.789375" width="574.2pt" xmlns="http://www.w3.org/2000/svg" xmlns:xlink="http://www.w3.org/1999/xlink">
 <defs>
  <style type="text/css">
*{stroke-linecap:butt;stroke-linejoin:round;}
  </style>
 </defs>
 <g id="figure_1">
  <g id="patch_1">
   <path d="M 0 581.789375 
L 574.2 581.789375 
L 574.2 0 
L 0 0 
z
" style="fill:none;"/>
  </g>
  <g id="axes_1">
   <g id="patch_2">
    <path d="M 36 402.93 
L 538.2 402.93 
L 538.2 36 
L 36 36 
z
" style="fill:none;"/>
   </g>
   <g id="PolyCollection_1">
    <defs>
     <path d="M 287.009371 -195.538011 
L 287.009371 -195.650004 
L 289.316072 -195.692234 
L 291.622772 -195.749007 
L 293.929473 -195.8248 
L 296.236173 -195.925281 
L 298.542874 -196.057565 
L 300.849574 -196.230497 
L 303.156275 -196.454982 
L 305.462976 -196.744335 
L 307.769676 -197.114666 
L 310.076377 -197.585273 
L 312.383077 -198.179047 
L 314.689778 -198.922859 
L 316.996478 -199.847921 
L 319.303179 -200.990079 
L 321.60988 -202.390029 
L 323.91658 -204.093399 
L 326.223281 -206.150691 
L 328.529981 -208.617009 
L 330.836682 -211.551575 
L 333.143382 -215.016962 
L 335.450083 -219.078053 
L 337.756783 -223.800667 
L 340.063484 -229.249878 
L 342.370185 -235.488004 
L 344.676885 -242.572312 
L 346.983586 -250.552459 
L 349.290286 -259.467747 
L 351.596987 -269.344261 
L 353.903687 -280.192004 
L 356.210388 -292.002137 
L 358.517089 -304.744465 
L 360.823789 -318.365297 
L 363.13049 -332.785841 
L 365.43719 -347.901251 
L 367.743891 -363.580456 
L 370.050591 -379.666871 
L 372.357292 -395.980052 
L 374.663993 -412.31833 
L 376.970693 -428.4624 
L 379.277394 -444.179822 
L 381.584094 -459.230303 
L 383.890795 -473.371627 
L 386.197495 -486.366018 
L 388.504196 -497.986726 
L 390.810897 -508.02457 
L 393.117597 -516.294181 
L 395.424298 -522.639693 
L 397.730998 -526.939623 
L 400.037699 -529.110739 
L 402.344399 -529.110739 
L 404.6511 -526.939623 
L 406.957801 -522.639693 
L 409.264501 -516.294181 
L 411.571202 -508.02457 
L 413.877902 -497.986726 
L 416.184603 -486.366018 
L 418.491303 -473.371627 
L 420.798004 -459.230303 
L 423.104705 -444.179822 
L 425.411405 -428.4624 
L 427.718106 -412.31833 
L 430.024806 -395.980052 
L 432.331507 -379.666871 
L 434.638207 -363.580456 
L 436.944908 -347.901251 
L 439.251609 -332.785841 
L 441.558309 -318.365297 
L 443.86501 -304.744465 
L 446.17171 -292.002137 
L 448.478411 -280.192004 
L 450.785111 -269.344261 
L 453.091812 -259.467747 
L 455.398512 -250.552459 
L 457.705213 -242.572312 
L 460.011914 -235.488004 
L 462.318614 -229.249878 
L 464.625315 -223.800667 
L 466.932015 -219.078053 
L 469.238716 -215.016962 
L 471.545416 -211.551575 
L 473.852117 -208.617009 
L 476.158818 -206.150691 
L 478.465518 -204.093399 
L 480.772219 -202.390029 
L 483.078919 -200.990079 
L 485.38562 -199.847921 
L 487.69232 -198.922859 
L 489.999021 -198.179047 
L 492.305722 -197.585273 
L 494.612422 -197.114666 
L 496.919123 -196.744335 
L 499.225823 -196.454982 
L 501.532524 -196.230497 
L 503.839224 -196.057565 
L 506.145925 -195.925281 
L 508.452626 -195.8248 
L 510.759326 -195.749007 
L 513.066027 -195.692234 
L 515.372727 -195.650004 
L 515.372727 -195.538011 
L 515.372727 -195.538011 
L 513.066027 -195.538011 
L 510.759326 -195.538011 
L 508.452626 -195.538011 
L 506.145925 -195.538011 
L 503.839224 -195.538011 
L 501.532524 -195.538011 
L 499.225823 -195.538011 
L 496.919123 -195.538011 
L 494.612422 -195.538011 
L 492.305722 -195.538011 
L 489.999021 -195.538011 
L 487.69232 -195.538011 
L 485.38562 -195.538011 
L 483.078919 -195.538011 
L 480.772219 -195.538011 
L 478.465518 -195.538011 
L 476.158818 -195.538011 
L 473.852117 -195.538011 
L 471.545416 -195.538011 
L 469.238716 -195.538011 
L 466.932015 -195.538011 
L 464.625315 -195.538011 
L 462.318614 -195.538011 
L 460.011914 -195.538011 
L 457.705213 -195.538011 
L 455.398512 -195.538011 
L 453.091812 -195.538011 
L 450.785111 -195.538011 
L 448.478411 -195.538011 
L 446.17171 -195.538011 
L 443.86501 -195.538011 
L 441.558309 -195.538011 
L 439.251609 -195.538011 
L 436.944908 -195.538011 
L 434.638207 -195.538011 
L 432.331507 -195.538011 
L 430.024806 -195.538011 
L 427.718106 -195.538011 
L 425.411405 -195.538011 
L 423.104705 -195.538011 
L 420.798004 -195.538011 
L 418.491303 -195.538011 
L 416.184603 -195.538011 
L 413.877902 -195.538011 
L 411.571202 -195.538011 
L 409.264501 -195.538011 
L 406.957801 -195.538011 
L 404.6511 -195.538011 
L 402.344399 -195.538011 
L 400.037699 -195.538011 
L 397.730998 -195.538011 
L 395.424298 -195.538011 
L 393.117597 -195.538011 
L 390.810897 -195.538011 
L 388.504196 -195.538011 
L 386.197495 -195.538011 
L 383.890795 -195.538011 
L 381.584094 -195.538011 
L 379.277394 -195.538011 
L 376.970693 -195.538011 
L 374.663993 -195.538011 
L 372.357292 -195.538011 
L 370.050591 -195.538011 
L 367.743891 -195.538011 
L 365.43719 -195.538011 
L 363.13049 -195.538011 
L 360.823789 -195.538011 
L 358.517089 -195.538011 
L 356.210388 -195.538011 
L 353.903687 -195.538011 
L 351.596987 -195.538011 
L 349.290286 -195.538011 
L 346.983586 -195.538011 
L 344.676885 -195.538011 
L 342.370185 -195.538011 
L 340.063484 -195.538011 
L 337.756783 -195.538011 
L 335.450083 -195.538011 
L 333.143382 -195.538011 
L 330.836682 -195.538011 
L 328.529981 -195.538011 
L 326.223281 -195.538011 
L 323.91658 -195.538011 
L 321.60988 -195.538011 
L 319.303179 -195.538011 
L 316.996478 -195.538011 
L 314.689778 -195.538011 
L 312.383077 -195.538011 
L 310.076377 -195.538011 
L 307.769676 -195.538011 
L 305.462976 -195.538011 
L 303.156275 -195.538011 
L 300.849574 -195.538011 
L 298.542874 -195.538011 
L 296.236173 -195.538011 
L 293.929473 -195.538011 
L 291.622772 -195.538011 
L 289.316072 -195.538011 
L 287.009371 -195.538011 
z
" id="m7927e6a337" style="stroke:#ff6384;stroke-opacity:0.5;"/>
    </defs>
    <g clip-path="url(#p0796436cc6)">
     <use style="fill:#ff6384;fill-opacity:0.5;stroke:#ff6384;stroke-opacity:0.5;" x="0" xlink:href="#m7927e6a337" y="581.789375"/>
    </g>
   </g>
   <g id="PolyCollection_2">
    <defs>
     <path d="M 58.827273 -195.538011 
L 58.827273 -195.635369 
L 61.480713 -195.672081 
L 64.134153 -195.721435 
L 66.787593 -195.787324 
L 69.441033 -195.874675 
L 72.094473 -195.989672 
L 74.747913 -196.140006 
L 77.401353 -196.335156 
L 80.054793 -196.586698 
L 82.708233 -196.908636 
L 85.361673 -197.317746 
L 88.015113 -197.833928 
L 90.668553 -198.480543 
L 93.321993 -199.284722 
L 95.975433 -200.277628 
L 98.628873 -201.494638 
L 101.282313 -202.97542 
L 103.935753 -204.763874 
L 106.589193 -206.907906 
L 109.242633 -209.458995 
L 111.896073 -212.471542 
L 114.549513 -216.001948 
L 117.202953 -220.107432 
L 119.856393 -224.844565 
L 122.509833 -230.267521 
L 125.163273 -236.426084 
L 127.816713 -243.363422 
L 130.470153 -251.1137 
L 133.123593 -259.699597 
L 135.777033 -269.129806 
L 138.430473 -279.396645 
L 141.083913 -290.473864 
L 143.737353 -302.314788 
L 146.390793 -314.850921 
L 149.044233 -327.991118 
L 151.697673 -341.621435 
L 154.351113 -355.605751 
L 157.004553 -369.7872 
L 159.657993 -383.990466 
L 162.311433 -398.024903 
L 164.964873 -411.688444 
L 167.618313 -424.772197 
L 170.271753 -437.065597 
L 172.925193 -448.36194 
L 175.578633 -458.464107 
L 178.232073 -467.190251 
L 180.885513 -474.379228 
L 183.538953 -479.895537 
L 186.192393 -483.633572 
L 188.845833 -485.520976 
L 191.499273 -485.520976 
L 194.152713 -483.633572 
L 196.806153 -479.895537 
L 199.459593 -474.379228 
L 202.113033 -467.190251 
L 204.766473 -458.464107 
L 207.419913 -448.36194 
L 210.073353 -437.065597 
L 212.726793 -424.772197 
L 215.380233 -411.688444 
L 218.033673 -398.024903 
L 220.687113 -383.990466 
L 223.340553 -369.7872 
L 225.993993 -355.605751 
L 228.647433 -341.621435 
L 231.300873 -327.991118 
L 233.954313 -314.850921 
L 236.607753 -302.314788 
L 239.261193 -290.473864 
L 241.914633 -279.396645 
L 244.568073 -269.129806 
L 247.221513 -259.699597 
L 249.874953 -251.1137 
L 252.528393 -243.363422 
L 255.181833 -236.426084 
L 257.835273 -230.267521 
L 260.488713 -224.844565 
L 263.142153 -220.107432 
L 265.795593 -216.001948 
L 268.449033 -212.471542 
L 271.102473 -209.458995 
L 273.755913 -206.907906 
L 276.409353 -204.763874 
L 279.062793 -202.97542 
L 281.716233 -201.494638 
L 284.369673 -200.277628 
L 287.023114 -199.284722 
L 289.676554 -198.480543 
L 292.329994 -197.833928 
L 294.983434 -197.317746 
L 297.636874 -196.908636 
L 300.290314 -196.586698 
L 302.943754 -196.335156 
L 305.597194 -196.140006 
L 308.250634 -195.989672 
L 310.904074 -195.874675 
L 313.557514 -195.787324 
L 316.210954 -195.721435 
L 318.864394 -195.672081 
L 321.517834 -195.635369 
L 321.517834 -195.538011 
L 321.517834 -195.538011 
L 318.864394 -195.538011 
L 316.210954 -195.538011 
L 313.557514 -195.538011 
L 310.904074 -195.538011 
L 308.250634 -195.538011 
L 305.597194 -195.538011 
L 302.943754 -195.538011 
L 300.290314 -195.538011 
L 297.636874 -195.538011 
L 294.983434 -195.538011 
L 292.329994 -195.538011 
L 289.676554 -195.538011 
L 287.023114 -195.538011 
L 284.369673 -195.538011 
L 281.716233 -195.538011 
L 279.062793 -195.538011 
L 276.409353 -195.538011 
L 273.755913 -195.538011 
L 271.102473 -195.538011 
L 268.449033 -195.538011 
L 265.795593 -195.538011 
L 263.142153 -195.538011 
L 260.488713 -195.538011 
L 257.835273 -195.538011 
L 255.181833 -195.538011 
L 252.528393 -195.538011 
L 249.874953 -195.538011 
L 247.221513 -195.538011 
L 244.568073 -195.538011 
L 241.914633 -195.538011 
L 239.261193 -195.538011 
L 236.607753 -195.538011 
L 233.954313 -195.538011 
L 231.300873 -195.538011 
L 228.647433 -195.538011 
L 225.993993 -195.538011 
L 223.340553 -195.538011 
L 220.687113 -195.538011 
L 218.033673 -195.538011 
L 215.380233 -195.538011 
L 212.726793 -195.538011 
L 210.073353 -195.538011 
L 207.419913 -195.538011 
L 204.766473 -195.538011 
L 202.113033 -195.538011 
L 199.459593 -195.538011 
L 196.806153 -195.538011 
L 194.152713 -195.538011 
L 191.499273 -195.538011 
L 188.845833 -195.538011 
L 186.192393 -195.538011 
L 183.538953 -195.538011 
L 180.885513 -195.538011 
L 178.232073 -195.538011 
L 175.578633 -195.538011 
L 172.925193 -195.538011 
L 170.271753 -195.538011 
L 167.618313 -195.538011 
L 164.964873 -195.538011 
L 162.311433 -195.538011 
L 159.657993 -195.538011 
L 157.004553 -195.538011 
L 154.351113 -195.538011 
L 151.697673 -195.538011 
L 149.044233 -195.538011 
L 146.390793 -195.538011 
L 143.737353 -195.538011 
L 141.083913 -195.538011 
L 138.430473 -195.538011 
L 135.777033 -195.538011 
L 133.123593 -195.538011 
L 130.470153 -195.538011 
L 127.816713 -195.538011 
L 125.163273 -195.538011 
L 122.509833 -195.538011 
L 119.856393 -195.538011 
L 117.202953 -195.538011 
L 114.549513 -195.538011 
L 111.896073 -195.538011 
L 109.242633 -195.538011 
L 106.589193 -195.538011 
L 103.935753 -195.538011 
L 101.282313 -195.538011 
L 98.628873 -195.538011 
L 95.975433 -195.538011 
L 93.321993 -195.538011 
L 90.668553 -195.538011 
L 88.015113 -195.538011 
L 85.361673 -195.538011 
L 82.708233 -195.538011 
L 80.054793 -195.538011 
L 77.401353 -195.538011 
L 74.747913 -195.538011 
L 72.094473 -195.538011 
L 69.441033 -195.538011 
L 66.787593 -195.538011 
L 64.134153 -195.538011 
L 61.480713 -195.538011 
L 58.827273 -195.538011 
z
" id="mbad1c7d822" style="stroke:#36a2eb;stroke-opacity:0.5;"/>
    </defs>
    <g clip-path="url(#p0796436cc6)">
     <use style="fill:#36a2eb;fill-opacity:0.5;stroke:#36a2eb;stroke-opacity:0.5;" x="0" xlink:href="#mbad1c7d822" y="581.789375"/>
    </g>
   </g>
   <g id="line2d_1">
    <path clip-path="url(#p0796436cc6)" d="M 287.009371 386.139371 
L 289.316072 386.097141 
L 291.622772 386.040368 
L 293.929473 385.964575 
L 296.236173 385.864094 
L 298.542874 385.73181 
L 300.849574 385.558878 
L 303.156275 385.334393 
L 305.462976 385.04504 
L 307.769676 384.674709 
L 310.076377 384.204102 
L 312.383077 383.610328 
L 314.689778 382.866516 
L 316.996478 381.941454 
L 319.303179 380.799296 
L 321.60988 379.399346 
L 323.91658 377.695976 
L 326.223281 375.638684 
L 328.529981 373.172366 
L 330.836682 370.2378 
L 333.143382 366.772413 
L 335.450083 362.711322 
L 337.756783 357.988708 
L 340.063484 352.539497 
L 342.370185 346.301371 
L 344.676885 339.217063 
L 346.983586 331.236916 
L 349.290286 322.321628 
L 351.596987 312.445114 
L 353.903687 301.597371 
L 356.210388 289.787238 
L 358.517089 277.04491 
L 360.823789 263.424078 
L 363.13049 249.003534 
L 365.43719 233.888124 
L 367.743891 218.208919 
L 370.050591 202.122504 
L 372.357292 185.809323 
L 374.663993 169.471045 
L 376.970693 153.326975 
L 379.277394 137.609553 
L 381.584094 122.559072 
L 383.890795 108.417748 
L 386.197495 95.423357 
L 388.504196 83.802649 
L 390.810897 73.764805 
L 393.117597 65.495194 
L 395.424298 59.149682 
L 397.730998 54.849752 
L 400.037699 52.678636 
L 402.344399 52.678636 
L 404.6511 54.849752 
L 406.957801 59.149682 
L 409.264501 65.495194 
L 411.571202 73.764805 
L 413.877902 83.802649 
L 416.184603 95.423357 
L 418.491303 108.417748 
L 420.798004 122.559072 
L 423.104705 137.609553 
L 425.411405 153.326975 
L 427.718106 169.471045 
L 430.024806 185.809323 
L 432.331507 202.122504 
L 434.638207 218.208919 
L 436.944908 233.888124 
L 439.251609 249.003534 
L 441.558309 263.424078 
L 443.86501 277.04491 
L 446.17171 289.787238 
L 448.478411 301.597371 
L 450.785111 312.445114 
L 453.091812 322.321628 
L 455.398512 331.236916 
L 457.705213 339.217063 
L 460.011914 346.301371 
L 462.318614 352.539497 
L 464.625315 357.988708 
L 466.932015 362.711322 
L 469.238716 366.772413 
L 471.545416 370.2378 
L 473.852117 373.172366 
L 476.158818 375.638684 
L 478.465518 377.695976 
L 480.772219 379.399346 
L 483.078919 380.799296 
L 485.38562 381.941454 
L 487.69232 382.866516 
L 489.999021 383.610328 
L 492.305722 384.204102 
L 494.612422 384.674709 
L 496.919123 385.04504 
L 499.225823 385.334393 
L 501.532524 385.558878 
L 503.839224 385.73181 
L 506.145925 385.864094 
L 508.452626 385.964575 
L 510.759326 386.040368 
L 513.066027 386.097141 
L 515.372727 386.139371 
" style="fill:none;stroke:#ff6384;stroke-linecap:square;"/>
   </g>
   <g id="line2d_2">
    <path clip-path="url(#p0796436cc6)" d="M 58.827273 386.154006 
L 61.480713 386.117294 
L 64.134153 386.06794 
L 66.787593 386.002051 
L 69.441033 385.9147 
L 72.094473 385.799703 
L 74.747913 385.649369 
L 77.401353 385.454219 
L 80.054793 385.202677 
L 82.708233 384.880739 
L 85.361673 384.471629 
L 88.015113 383.955447 
L 90.668553 383.308832 
L 93.321993 382.504653 
L 95.975433 381.511747 
L 98.628873 380.294737 
L 101.282313 378.813955 
L 103.935753 377.025501 
L 106.589193 374.881469 
L 109.242633 372.33038 
L 111.896073 369.317833 
L 114.549513 365.787427 
L 117.202953 361.681943 
L 119.856393 356.94481 
L 122.509833 351.521854 
L 125.163273 345.363291 
L 127.816713 338.425953 
L 130.470153 330.675675 
L 133.123593 322.089778 
L 135.777033 312.659569 
L 138.430473 302.39273 
L 141.083913 291.315511 
L 143.737353 279.474587 
L 146.390793 266.938454 
L 149.044233 253.798257 
L 151.697673 240.16794 
L 154.351113 226.183624 
L 157.004553 212.002175 
L 159.657993 197.798909 
L 162.311433 183.764472 
L 164.964873 170.100931 
L 167.618313 157.017178 
L 170.271753 144.723778 
L 172.925193 133.427435 
L 175.578633 123.325268 
L 178.232073 114.599124 
L 180.885513 107.410147 
L 183.538953 101.893838 
L 186.192393 98.155803 
L 188.845833 96.268399 
L 191.499273 96.268399 
L 194.152713 98.155803 
L 196.806153 101.893838 
L 199.459593 107.410147 
L 202.113033 114.599124 
L 204.766473 123.325268 
L 207.419913 133.427435 
L 210.073353 144.723778 
L 212.726793 157.017178 
L 215.380233 170.100931 
L 218.033673 183.764472 
L 220.687113 197.798909 
L 223.340553 212.002175 
L 225.993993 226.183624 
L 228.647433 240.16794 
L 231.300873 253.798257 
L 233.954313 266.938454 
L 236.607753 279.474587 
L 239.261193 291.315511 
L 241.914633 302.39273 
L 244.568073 312.659569 
L 247.221513 322.089778 
L 249.874953 330.675675 
L 252.528393 338.425953 
L 255.181833 345.363291 
L 257.835273 351.521854 
L 260.488713 356.94481 
L 263.142153 361.681943 
L 265.795593 365.787427 
L 268.449033 369.317833 
L 271.102473 372.33038 
L 273.755913 374.881469 
L 276.409353 377.025501 
L 279.062793 378.813955 
L 281.716233 380.294737 
L 284.369673 381.511747 
L 287.023114 382.504653 
L 289.676554 383.308832 
L 292.329994 383.955447 
L 294.983434 384.471629 
L 297.636874 384.880739 
L 300.290314 385.202677 
L 302.943754 385.454219 
L 305.597194 385.649369 
L 308.250634 385.799703 
L 310.904074 385.9147 
L 313.557514 386.002051 
L 316.210954 386.06794 
L 318.864394 386.117294 
L 321.517834 386.154006 
" style="fill:none;stroke:#36a2eb;stroke-linecap:square;"/>
   </g>
   <g id="patch_3">
    <path d="M 36 402.93 
L 538.2 402.93 
" style="fill:none;stroke:#000000;stroke-linecap:square;stroke-linejoin:miter;stroke-width:0.8;"/>
   </g>
   <g id="legend_1">
    <g id="patch_4">
     <path d="M 45.8 88.29875 
L 159.280937 88.29875 
Q 162.080938 88.29875 162.080938 85.49875 
L 162.080938 45.8 
Q 162.080938 43 159.280937 43 
L 45.8 43 
Q 43 43 43 45.8 
L 43 85.49875 
Q 43 88.29875 45.8 88.29875 
z
" style="fill:#ffffff;opacity:0.8;stroke:#cccccc;stroke-linejoin:miter;"/>
    </g>
    <g id="patch_5">
     <path d="M 48.6 59.237813 
L 76.6 59.237813 
L 76.6 49.437813 
L 48.6 49.437813 
z
" style="fill:#ff6384;opacity:0.5;stroke:#ff6384;stroke-linejoin:miter;"/>
    </g>
    <g id="text_1">
     <!-- sidemenu -->
     <defs>
      <path d="M 44.28125 53.078125 
L 44.28125 44.578125 
Q 40.484375 46.53125 36.375 47.5 
Q 32.28125 48.484375 27.875 48.484375 
Q 21.1875 48.484375 17.84375 46.4375 
Q 14.5 44.390625 14.5 40.28125 
Q 14.5 37.15625 16.890625 35.375 
Q 19.28125 33.59375 26.515625 31.984375 
L 29.59375 31.296875 
Q 39.15625 29.25 43.1875 25.515625 
Q 47.21875 21.78125 47.21875 15.09375 
Q 47.21875 7.46875 41.1875 3.015625 
Q 35.15625 -1.421875 24.609375 -1.421875 
Q 20.21875 -1.421875 15.453125 -0.5625 
Q 10.6875 0.296875 5.421875 2 
L 5.421875 11.28125 
Q 10.40625 8.6875 15.234375 7.390625 
Q 20.0625 6.109375 24.8125 6.109375 
Q 31.15625 6.109375 34.5625 8.28125 
Q 37.984375 10.453125 37.984375 14.40625 
Q 37.984375 18.0625 35.515625 20.015625 
Q 33.0625 21.96875 24.703125 23.78125 
L 21.578125 24.515625 
Q 13.234375 26.265625 9.515625 29.90625 
Q 5.8125 33.546875 5.8125 39.890625 
Q 5.8125 47.609375 11.28125 51.796875 
Q 16.75 56 26.8125 56 
Q 31.78125 56 36.171875 55.265625 
Q 40.578125 54.546875 44.28125 53.078125 
z
" id="DejaVuSans-115"/>
      <path d="M 9.421875 54.6875 
L 18.40625 54.6875 
L 18.40625 0 
L 9.421875 0 
z
M 9.421875 75.984375 
L 18.40625 75.984375 
L 18.40625 64.59375 
L 9.421875 64.59375 
z
" id="DejaVuSans-105"/>
      <path d="M 45.40625 46.390625 
L 45.40625 75.984375 
L 54.390625 75.984375 
L 54.390625 0 
L 45.40625 0 
L 45.40625 8.203125 
Q 42.578125 3.328125 38.25 0.953125 
Q 33.9375 -1.421875 27.875 -1.421875 
Q 17.96875 -1.421875 11.734375 6.484375 
Q 5.515625 14.40625 5.515625 27.296875 
Q 5.515625 40.1875 11.734375 48.09375 
Q 17.96875 56 27.875 56 
Q 33.9375 56 38.25 53.625 
Q 42.578125 51.265625 45.40625 46.390625 
z
M 14.796875 27.296875 
Q 14.796875 17.390625 18.875 11.75 
Q 22.953125 6.109375 30.078125 6.109375 
Q 37.203125 6.109375 41.296875 11.75 
Q 45.40625 17.390625 45.40625 27.296875 
Q 45.40625 37.203125 41.296875 42.84375 
Q 37.203125 48.484375 30.078125 48.484375 
Q 22.953125 48.484375 18.875 42.84375 
Q 14.796875 37.203125 14.796875 27.296875 
z
" id="DejaVuSans-100"/>
      <path d="M 56.203125 29.59375 
L 56.203125 25.203125 
L 14.890625 25.203125 
Q 15.484375 15.921875 20.484375 11.0625 
Q 25.484375 6.203125 34.421875 6.203125 
Q 39.59375 6.203125 44.453125 7.46875 
Q 49.3125 8.734375 54.109375 11.28125 
L 54.109375 2.78125 
Q 49.265625 0.734375 44.1875 -0.34375 
Q 39.109375 -1.421875 33.890625 -1.421875 
Q 20.796875 -1.421875 13.15625 6.1875 
Q 5.515625 13.8125 5.515625 26.8125 
Q 5.515625 40.234375 12.765625 48.109375 
Q 20.015625 56 32.328125 56 
Q 43.359375 56 49.78125 48.890625 
Q 56.203125 41.796875 56.203125 29.59375 
z
M 47.21875 32.234375 
Q 47.125 39.59375 43.09375 43.984375 
Q 39.0625 48.390625 32.421875 48.390625 
Q 24.90625 48.390625 20.390625 44.140625 
Q 15.875 39.890625 15.1875 32.171875 
z
" id="DejaVuSans-101"/>
      <path d="M 52 44.1875 
Q 55.375 50.25 60.0625 53.125 
Q 64.75 56 71.09375 56 
Q 79.640625 56 84.28125 50.015625 
Q 88.921875 44.046875 88.921875 33.015625 
L 88.921875 0 
L 79.890625 0 
L 79.890625 32.71875 
Q 79.890625 40.578125 77.09375 44.375 
Q 74.3125 48.1875 68.609375 48.1875 
Q 61.625 48.1875 57.5625 43.546875 
Q 53.515625 38.921875 53.515625 30.90625 
L 53.515625 0 
L 44.484375 0 
L 44.484375 32.71875 
Q 44.484375 40.625 41.703125 44.40625 
Q 38.921875 48.1875 33.109375 48.1875 
Q 26.21875 48.1875 22.15625 43.53125 
Q 18.109375 38.875 18.109375 30.90625 
L 18.109375 0 
L 9.078125 0 
L 9.078125 54.6875 
L 18.109375 54.6875 
L 18.109375 46.1875 
Q 21.1875 51.21875 25.484375 53.609375 
Q 29.78125 56 35.6875 56 
Q 41.65625 56 45.828125 52.96875 
Q 50 49.953125 52 44.1875 
z
" id="DejaVuSans-109"/>
      <path d="M 54.890625 33.015625 
L 54.890625 0 
L 45.90625 0 
L 45.90625 32.71875 
Q 45.90625 40.484375 42.875 44.328125 
Q 39.84375 48.1875 33.796875 48.1875 
Q 26.515625 48.1875 22.3125 43.546875 
Q 18.109375 38.921875 18.109375 30.90625 
L 18.109375 0 
L 9.078125 0 
L 9.078125 54.6875 
L 18.109375 54.6875 
L 18.109375 46.1875 
Q 21.34375 51.125 25.703125 53.5625 
Q 30.078125 56 35.796875 56 
Q 45.21875 56 50.046875 50.171875 
Q 54.890625 44.34375 54.890625 33.015625 
z
" id="DejaVuSans-110"/>
      <path d="M 8.5 21.578125 
L 8.5 54.6875 
L 17.484375 54.6875 
L 17.484375 21.921875 
Q 17.484375 14.15625 20.5 10.265625 
Q 23.53125 6.390625 29.59375 6.390625 
Q 36.859375 6.390625 41.078125 11.03125 
Q 45.3125 15.671875 45.3125 23.6875 
L 45.3125 54.6875 
L 54.296875 54.6875 
L 54.296875 0 
L 45.3125 0 
L 45.3125 8.40625 
Q 42.046875 3.421875 37.71875 1 
Q 33.40625 -1.421875 27.6875 -1.421875 
Q 18.265625 -1.421875 13.375 4.4375 
Q 8.5 10.296875 8.5 21.578125 
z
M 31.109375 56 
z
" id="DejaVuSans-117"/>
     </defs>
     <g transform="translate(87.8 59.237813)scale(0.14 -0.14)">
      <use xlink:href="#DejaVuSans-115"/>
      <use x="52.099609" xlink:href="#DejaVuSans-105"/>
      <use x="79.882812" xlink:href="#DejaVuSans-100"/>
      <use x="143.359375" xlink:href="#DejaVuSans-101"/>
      <use x="204.882812" xlink:href="#DejaVuSans-109"/>
      <use x="302.294922" xlink:href="#DejaVuSans-101"/>
      <use x="363.818359" xlink:href="#DejaVuSans-110"/>
      <use x="427.197266" xlink:href="#DejaVuSans-117"/>
     </g>
    </g>
    <g id="patch_6">
     <path d="M 48.6 79.787188 
L 76.6 79.787188 
L 76.6 69.987188 
L 48.6 69.987188 
z
" style="fill:#36a2eb;opacity:0.5;stroke:#36a2eb;stroke-linejoin:miter;"/>
    </g>
    <g id="text_2">
     <!-- tabbar -->
     <defs>
      <path d="M 18.3125 70.21875 
L 18.3125 54.6875 
L 36.8125 54.6875 
L 36.8125 47.703125 
L 18.3125 47.703125 
L 18.3125 18.015625 
Q 18.3125 11.328125 20.140625 9.421875 
Q 21.96875 7.515625 27.59375 7.515625 
L 36.8125 7.515625 
L 36.8125 0 
L 27.59375 0 
Q 17.1875 0 13.234375 3.875 
Q 9.28125 7.765625 9.28125 18.015625 
L 9.28125 47.703125 
L 2.6875 47.703125 
L 2.6875 54.6875 
L 9.28125 54.6875 
L 9.28125 70.21875 
z
" id="DejaVuSans-116"/>
      <path d="M 34.28125 27.484375 
Q 23.390625 27.484375 19.1875 25 
Q 14.984375 22.515625 14.984375 16.5 
Q 14.984375 11.71875 18.140625 8.90625 
Q 21.296875 6.109375 26.703125 6.109375 
Q 34.1875 6.109375 38.703125 11.40625 
Q 43.21875 16.703125 43.21875 25.484375 
L 43.21875 27.484375 
z
M 52.203125 31.203125 
L 52.203125 0 
L 43.21875 0 
L 43.21875 8.296875 
Q 40.140625 3.328125 35.546875 0.953125 
Q 30.953125 -1.421875 24.3125 -1.421875 
Q 15.921875 -1.421875 10.953125 3.296875 
Q 6 8.015625 6 15.921875 
Q 6 25.140625 12.171875 29.828125 
Q 18.359375 34.515625 30.609375 34.515625 
L 43.21875 34.515625 
L 43.21875 35.40625 
Q 43.21875 41.609375 39.140625 45 
Q 35.0625 48.390625 27.6875 48.390625 
Q 23 48.390625 18.546875 47.265625 
Q 14.109375 46.140625 10.015625 43.890625 
L 10.015625 52.203125 
Q 14.9375 54.109375 19.578125 55.046875 
Q 24.21875 56 28.609375 56 
Q 40.484375 56 46.34375 49.84375 
Q 52.203125 43.703125 52.203125 31.203125 
z
" id="DejaVuSans-97"/>
      <path d="M 48.6875 27.296875 
Q 48.6875 37.203125 44.609375 42.84375 
Q 40.53125 48.484375 33.40625 48.484375 
Q 26.265625 48.484375 22.1875 42.84375 
Q 18.109375 37.203125 18.109375 27.296875 
Q 18.109375 17.390625 22.1875 11.75 
Q 26.265625 6.109375 33.40625 6.109375 
Q 40.53125 6.109375 44.609375 11.75 
Q 48.6875 17.390625 48.6875 27.296875 
z
M 18.109375 46.390625 
Q 20.953125 51.265625 25.265625 53.625 
Q 29.59375 56 35.59375 56 
Q 45.5625 56 51.78125 48.09375 
Q 58.015625 40.1875 58.015625 27.296875 
Q 58.015625 14.40625 51.78125 6.484375 
Q 45.5625 -1.421875 35.59375 -1.421875 
Q 29.59375 -1.421875 25.265625 0.953125 
Q 20.953125 3.328125 18.109375 8.203125 
L 18.109375 0 
L 9.078125 0 
L 9.078125 75.984375 
L 18.109375 75.984375 
z
" id="DejaVuSans-98"/>
      <path d="M 41.109375 46.296875 
Q 39.59375 47.171875 37.8125 47.578125 
Q 36.03125 48 33.890625 48 
Q 26.265625 48 22.1875 43.046875 
Q 18.109375 38.09375 18.109375 28.8125 
L 18.109375 0 
L 9.078125 0 
L 9.078125 54.6875 
L 18.109375 54.6875 
L 18.109375 46.1875 
Q 20.953125 51.171875 25.484375 53.578125 
Q 30.03125 56 36.53125 56 
Q 37.453125 56 38.578125 55.875 
Q 39.703125 55.765625 41.0625 55.515625 
z
" id="DejaVuSans-114"/>
     </defs>
     <g transform="translate(87.8 79.787188)scale(0.14 -0.14)">
      <use xlink:href="#DejaVuSans-116"/>
      <use x="39.208984" xlink:href="#DejaVuSans-97"/>
      <use x="100.488281" xlink:href="#DejaVuSans-98"/>
      <use x="163.964844" xlink:href="#DejaVuSans-98"/>
      <use x="227.441406" xlink:href="#DejaVuSans-97"/>
      <use x="288.720703" xlink:href="#DejaVuSans-114"/>
     </g>
    </g>
   </g>
  </g>
  <g id="axes_2">
   <g id="patch_7">
    <path d="M 36 525.24 
L 538.2 525.24 
L 538.2 402.93 
L 36 402.93 
z
" style="fill:none;"/>
   </g>
   <g id="patch_8">
    <path clip-path="url(#pe7697a59ea)" d="M 345.242027 519.680455 
L 457.140071 519.680455 
L 457.140071 482.616818 
L 345.242027 482.616818 
z
" style="fill:#ff6384;opacity:0.5;"/>
   </g>
   <g id="patch_9">
    <path clip-path="url(#pe7697a59ea)" d="M 125.813366 445.553182 
L 254.531741 445.553182 
L 254.531741 408.489545 
L 125.813366 408.489545 
z
" style="fill:#36a2eb;opacity:0.5;"/>
   </g>
   <g id="matplotlib.axis_1">
    <g id="xtick_1">
     <g id="line2d_3">
      <defs>
       <path d="M 0 0 
L 0 3.5 
" id="m48ffe38b9d" style="stroke:#000000;stroke-width:0.8;"/>
      </defs>
      <g>
       <use style="stroke:#000000;stroke-width:0.8;" x="58.0342" xlink:href="#m48ffe38b9d" y="525.24"/>
      </g>
     </g>
     <g id="text_3">
      <!-- 29.5 -->
      <defs>
       <path d="M 19.1875 8.296875 
L 53.609375 8.296875 
L 53.609375 0 
L 7.328125 0 
L 7.328125 8.296875 
Q 12.9375 14.109375 22.625 23.890625 
Q 32.328125 33.6875 34.8125 36.53125 
Q 39.546875 41.84375 41.421875 45.53125 
Q 43.3125 49.21875 43.3125 52.78125 
Q 43.3125 58.59375 39.234375 62.25 
Q 35.15625 65.921875 28.609375 65.921875 
Q 23.96875 65.921875 18.8125 64.3125 
Q 13.671875 62.703125 7.8125 59.421875 
L 7.8125 69.390625 
Q 13.765625 71.78125 18.9375 73 
Q 24.125 74.21875 28.421875 74.21875 
Q 39.75 74.21875 46.484375 68.546875 
Q 53.21875 62.890625 53.21875 53.421875 
Q 53.21875 48.921875 51.53125 44.890625 
Q 49.859375 40.875 45.40625 35.40625 
Q 44.1875 33.984375 37.640625 27.21875 
Q 31.109375 20.453125 19.1875 8.296875 
z
" id="DejaVuSans-50"/>
       <path d="M 10.984375 1.515625 
L 10.984375 10.5 
Q 14.703125 8.734375 18.5 7.8125 
Q 22.3125 6.890625 25.984375 6.890625 
Q 35.75 6.890625 40.890625 13.453125 
Q 46.046875 20.015625 46.78125 33.40625 
Q 43.953125 29.203125 39.59375 26.953125 
Q 35.25 24.703125 29.984375 24.703125 
Q 19.046875 24.703125 12.671875 31.3125 
Q 6.296875 37.9375 6.296875 49.421875 
Q 6.296875 60.640625 12.9375 67.421875 
Q 19.578125 74.21875 30.609375 74.21875 
Q 43.265625 74.21875 49.921875 64.515625 
Q 56.59375 54.828125 56.59375 36.375 
Q 56.59375 19.140625 48.40625 8.859375 
Q 40.234375 -1.421875 26.421875 -1.421875 
Q 22.703125 -1.421875 18.890625 -0.6875 
Q 15.09375 0.046875 10.984375 1.515625 
z
M 30.609375 32.421875 
Q 37.25 32.421875 41.125 36.953125 
Q 45.015625 41.5 45.015625 49.421875 
Q 45.015625 57.28125 41.125 61.84375 
Q 37.25 66.40625 30.609375 66.40625 
Q 23.96875 66.40625 20.09375 61.84375 
Q 16.21875 57.28125 16.21875 49.421875 
Q 16.21875 41.5 20.09375 36.953125 
Q 23.96875 32.421875 30.609375 32.421875 
z
" id="DejaVuSans-57"/>
       <path d="M 10.6875 12.40625 
L 21 12.40625 
L 21 0 
L 10.6875 0 
z
" id="DejaVuSans-46"/>
       <path d="M 10.796875 72.90625 
L 49.515625 72.90625 
L 49.515625 64.59375 
L 19.828125 64.59375 
L 19.828125 46.734375 
Q 21.96875 47.46875 24.109375 47.828125 
Q 26.265625 48.1875 28.421875 48.1875 
Q 40.625 48.1875 47.75 41.5 
Q 54.890625 34.8125 54.890625 23.390625 
Q 54.890625 11.625 47.5625 5.09375 
Q 40.234375 -1.421875 26.90625 -1.421875 
Q 22.3125 -1.421875 17.546875 -0.640625 
Q 12.796875 0.140625 7.71875 1.703125 
L 7.71875 11.625 
Q 12.109375 9.234375 16.796875 8.0625 
Q 21.484375 6.890625 26.703125 6.890625 
Q 35.15625 6.890625 40.078125 11.328125 
Q 45.015625 15.765625 45.015625 23.390625 
Q 45.015625 31 40.078125 35.4375 
Q 35.15625 39.890625 26.703125 39.890625 
Q 22.75 39.890625 18.8125 39.015625 
Q 14.890625 38.140625 10.796875 36.28125 
z
" id="DejaVuSans-53"/>
      </defs>
      <g transform="translate(42.448263 542.877813)scale(0.14 -0.14)">
       <use xlink:href="#DejaVuSans-50"/>
       <use x="63.623047" xlink:href="#DejaVuSans-57"/>
       <use x="127.246094" xlink:href="#DejaVuSans-46"/>
       <use x="159.033203" xlink:href="#DejaVuSans-53"/>
      </g>
     </g>
    </g>
    <g id="xtick_2">
     <g id="line2d_4">
      <g>
       <use style="stroke:#000000;stroke-width:0.8;" x="122.18526" xlink:href="#m48ffe38b9d" y="525.24"/>
      </g>
     </g>
     <g id="text_4">
      <!-- 30.0 -->
      <defs>
       <path d="M 40.578125 39.3125 
Q 47.65625 37.796875 51.625 33 
Q 55.609375 28.21875 55.609375 21.1875 
Q 55.609375 10.40625 48.1875 4.484375 
Q 40.765625 -1.421875 27.09375 -1.421875 
Q 22.515625 -1.421875 17.65625 -0.515625 
Q 12.796875 0.390625 7.625 2.203125 
L 7.625 11.71875 
Q 11.71875 9.328125 16.59375 8.109375 
Q 21.484375 6.890625 26.8125 6.890625 
Q 36.078125 6.890625 40.9375 10.546875 
Q 45.796875 14.203125 45.796875 21.1875 
Q 45.796875 27.640625 41.28125 31.265625 
Q 36.765625 34.90625 28.71875 34.90625 
L 20.21875 34.90625 
L 20.21875 43.015625 
L 29.109375 43.015625 
Q 36.375 43.015625 40.234375 45.921875 
Q 44.09375 48.828125 44.09375 54.296875 
Q 44.09375 59.90625 40.109375 62.90625 
Q 36.140625 65.921875 28.71875 65.921875 
Q 24.65625 65.921875 20.015625 65.03125 
Q 15.375 64.15625 9.8125 62.3125 
L 9.8125 71.09375 
Q 15.4375 72.65625 20.34375 73.4375 
Q 25.25 74.21875 29.59375 74.21875 
Q 40.828125 74.21875 47.359375 69.109375 
Q 53.90625 64.015625 53.90625 55.328125 
Q 53.90625 49.265625 50.4375 45.09375 
Q 46.96875 40.921875 40.578125 39.3125 
z
" id="DejaVuSans-51"/>
       <path d="M 31.78125 66.40625 
Q 24.171875 66.40625 20.328125 58.90625 
Q 16.5 51.421875 16.5 36.375 
Q 16.5 21.390625 20.328125 13.890625 
Q 24.171875 6.390625 31.78125 6.390625 
Q 39.453125 6.390625 43.28125 13.890625 
Q 47.125 21.390625 47.125 36.375 
Q 47.125 51.421875 43.28125 58.90625 
Q 39.453125 66.40625 31.78125 66.40625 
z
M 31.78125 74.21875 
Q 44.046875 74.21875 50.515625 64.515625 
Q 56.984375 54.828125 56.984375 36.375 
Q 56.984375 17.96875 50.515625 8.265625 
Q 44.046875 -1.421875 31.78125 -1.421875 
Q 19.53125 -1.421875 13.0625 8.265625 
Q 6.59375 17.96875 6.59375 36.375 
Q 6.59375 54.828125 13.0625 64.515625 
Q 19.53125 74.21875 31.78125 74.21875 
z
" id="DejaVuSans-48"/>
      </defs>
      <g transform="translate(106.599323 542.877813)scale(0.14 -0.14)">
       <use xlink:href="#DejaVuSans-51"/>
       <use x="63.623047" xlink:href="#DejaVuSans-48"/>
       <use x="127.246094" xlink:href="#DejaVuSans-46"/>
       <use x="159.033203" xlink:href="#DejaVuSans-48"/>
      </g>
     </g>
    </g>
    <g id="xtick_3">
     <g id="line2d_5">
      <g>
       <use style="stroke:#000000;stroke-width:0.8;" x="186.33632" xlink:href="#m48ffe38b9d" y="525.24"/>
      </g>
     </g>
     <g id="text_5">
      <!-- 30.5 -->
      <g transform="translate(170.750382 542.877813)scale(0.14 -0.14)">
       <use xlink:href="#DejaVuSans-51"/>
       <use x="63.623047" xlink:href="#DejaVuSans-48"/>
       <use x="127.246094" xlink:href="#DejaVuSans-46"/>
       <use x="159.033203" xlink:href="#DejaVuSans-53"/>
      </g>
     </g>
    </g>
    <g id="xtick_4">
     <g id="line2d_6">
      <g>
       <use style="stroke:#000000;stroke-width:0.8;" x="250.48738" xlink:href="#m48ffe38b9d" y="525.24"/>
      </g>
     </g>
     <g id="text_6">
      <!-- 31.0 -->
      <defs>
       <path d="M 12.40625 8.296875 
L 28.515625 8.296875 
L 28.515625 63.921875 
L 10.984375 60.40625 
L 10.984375 69.390625 
L 28.421875 72.90625 
L 38.28125 72.90625 
L 38.28125 8.296875 
L 54.390625 8.296875 
L 54.390625 0 
L 12.40625 0 
z
" id="DejaVuSans-49"/>
      </defs>
      <g transform="translate(234.901442 542.877813)scale(0.14 -0.14)">
       <use xlink:href="#DejaVuSans-51"/>
       <use x="63.623047" xlink:href="#DejaVuSans-49"/>
       <use x="127.246094" xlink:href="#DejaVuSans-46"/>
       <use x="159.033203" xlink:href="#DejaVuSans-48"/>
      </g>
     </g>
    </g>
    <g id="xtick_5">
     <g id="line2d_7">
      <g>
       <use style="stroke:#000000;stroke-width:0.8;" x="314.638439" xlink:href="#m48ffe38b9d" y="525.24"/>
      </g>
     </g>
     <g id="text_7">
      <!-- 31.5 -->
      <g transform="translate(299.052502 542.877813)scale(0.14 -0.14)">
       <use xlink:href="#DejaVuSans-51"/>
       <use x="63.623047" xlink:href="#DejaVuSans-49"/>
       <use x="127.246094" xlink:href="#DejaVuSans-46"/>
       <use x="159.033203" xlink:href="#DejaVuSans-53"/>
      </g>
     </g>
    </g>
    <g id="xtick_6">
     <g id="line2d_8">
      <g>
       <use style="stroke:#000000;stroke-width:0.8;" x="378.789499" xlink:href="#m48ffe38b9d" y="525.24"/>
      </g>
     </g>
     <g id="text_8">
      <!-- 32.0 -->
      <g transform="translate(363.203562 542.877813)scale(0.14 -0.14)">
       <use xlink:href="#DejaVuSans-51"/>
       <use x="63.623047" xlink:href="#DejaVuSans-50"/>
       <use x="127.246094" xlink:href="#DejaVuSans-46"/>
       <use x="159.033203" xlink:href="#DejaVuSans-48"/>
      </g>
     </g>
    </g>
    <g id="xtick_7">
     <g id="line2d_9">
      <g>
       <use style="stroke:#000000;stroke-width:0.8;" x="442.940559" xlink:href="#m48ffe38b9d" y="525.24"/>
      </g>
     </g>
     <g id="text_9">
      <!-- 32.5 -->
      <g transform="translate(427.354621 542.877813)scale(0.14 -0.14)">
       <use xlink:href="#DejaVuSans-51"/>
       <use x="63.623047" xlink:href="#DejaVuSans-50"/>
       <use x="127.246094" xlink:href="#DejaVuSans-46"/>
       <use x="159.033203" xlink:href="#DejaVuSans-53"/>
      </g>
     </g>
    </g>
    <g id="xtick_8">
     <g id="line2d_10">
      <g>
       <use style="stroke:#000000;stroke-width:0.8;" x="507.091619" xlink:href="#m48ffe38b9d" y="525.24"/>
      </g>
     </g>
     <g id="text_10">
      <!-- 33.0 -->
      <g transform="translate(491.505681 542.877813)scale(0.14 -0.14)">
       <use xlink:href="#DejaVuSans-51"/>
       <use x="63.623047" xlink:href="#DejaVuSans-51"/>
       <use x="127.246094" xlink:href="#DejaVuSans-46"/>
       <use x="159.033203" xlink:href="#DejaVuSans-48"/>
      </g>
     </g>
    </g>
   </g>
   <g id="line2d_11">
    <path clip-path="url(#pe7697a59ea)" d="M 401.191049 525.24 
L 401.191049 402.93 
" style="fill:none;stroke:#ff6384;stroke-dasharray:5.55,2.4;stroke-dashoffset:0;stroke-opacity:0.8;stroke-width:1.5;"/>
   </g>
   <g id="line2d_12">
    <path clip-path="url(#pe7697a59ea)" d="M 190.172553 525.24 
L 190.172553 402.93 
" style="fill:none;stroke:#36a2eb;stroke-dasharray:5.55,2.4;stroke-dashoffset:0;stroke-opacity:0.8;stroke-width:1.5;"/>
   </g>
   <g id="patch_10">
    <path d="M 36 525.24 
L 538.2 525.24 
" style="fill:none;stroke:#000000;stroke-linecap:square;stroke-linejoin:miter;stroke-width:0.8;"/>
   </g>
  </g>
 </g>
 <defs>
  <clipPath id="p0796436cc6">
   <rect height="366.93" width="502.2" x="36" y="36"/>
  </clipPath>
  <clipPath id="pe7697a59ea">
   <rect height="122.31" width="502.2" x="36" y="402.93"/>
  </clipPath>
 </defs>
</svg>
