<?xml version="1.0" encoding="utf-8" standalone="no"?>
<!DOCTYPE svg PUBLIC "-//W3C//DTD SVG 1.1//EN"
  "http://www.w3.org/Graphics/SVG/1.1/DTD/svg11.dtd">
<!-- Created with matplotlib (https://matplotlib.org/) -->
<svg height="581.789375pt" version="1.1" viewBox="0 0 574.2 581.789375" width="574.2pt" xmlns="http://www.w3.org/2000/svg" xmlns:xlink="http://www.w3.org/1999/xlink">
 <defs>
  <style type="text/css">
*{stroke-linecap:butt;stroke-linejoin:round;}
  </style>
 </defs>
 <g id="figure_1">
  <g id="patch_1">
   <path d="M 0 581.789375 
L 574.2 581.789375 
L 574.2 0 
L 0 0 
z
" style="fill:none;"/>
  </g>
  <g id="axes_1">
   <g id="patch_2">
    <path d="M 36 402.93 
L 538.2 402.93 
L 538.2 36 
L 36 36 
z
" style="fill:none;"/>
   </g>
   <g id="PolyCollection_1">
    <defs>
     <path d="M 166.158156 -195.538011 
L 166.158156 -195.650004 
L 169.685576 -195.692234 
L 173.212996 -195.749007 
L 176.740416 -195.8248 
L 180.267836 -195.925281 
L 183.795256 -196.057565 
L 187.322676 -196.230497 
L 190.850096 -196.454982 
L 194.377516 -196.744335 
L 197.904935 -197.114666 
L 201.432355 -197.585273 
L 204.959775 -198.179047 
L 208.487195 -198.922859 
L 212.014615 -199.847921 
L 215.542035 -200.990079 
L 219.069455 -202.390029 
L 222.596875 -204.093399 
L 226.124295 -206.150691 
L 229.651715 -208.617009 
L 233.179135 -211.551575 
L 236.706554 -215.016962 
L 240.233974 -219.078053 
L 243.761394 -223.800667 
L 247.288814 -229.249878 
L 250.816234 -235.488004 
L 254.343654 -242.572312 
L 257.871074 -250.552459 
L 261.398494 -259.467747 
L 264.925914 -269.344261 
L 268.453334 -280.192004 
L 271.980754 -292.002137 
L 275.508173 -304.744465 
L 279.035593 -318.365297 
L 282.563013 -332.785841 
L 286.090433 -347.901251 
L 289.617853 -363.580456 
L 293.145273 -379.666871 
L 296.672693 -395.980052 
L 300.200113 -412.31833 
L 303.727533 -428.4624 
L 307.254953 -444.179822 
L 310.782373 -459.230303 
L 314.309792 -473.371627 
L 317.837212 -486.366018 
L 321.364632 -497.986726 
L 324.892052 -508.02457 
L 328.419472 -516.294181 
L 331.946892 -522.639693 
L 335.474312 -526.939623 
L 339.001732 -529.110739 
L 342.529152 -529.110739 
L 346.056572 -526.939623 
L 349.583992 -522.639693 
L 353.111411 -516.294181 
L 356.638831 -508.02457 
L 360.166251 -497.986726 
L 363.693671 -486.366018 
L 367.221091 -473.371627 
L 370.748511 -459.230303 
L 374.275931 -444.179822 
L 377.803351 -428.4624 
L 381.330771 -412.31833 
L 384.858191 -395.980052 
L 388.385611 -379.666871 
L 391.91303 -363.580456 
L 395.44045 -347.901251 
L 398.96787 -332.785841 
L 402.49529 -318.365297 
L 406.02271 -304.744465 
L 409.55013 -292.002137 
L 413.07755 -280.192004 
L 416.60497 -269.344261 
L 420.13239 -259.467747 
L 423.65981 -250.552459 
L 427.18723 -242.572312 
L 430.714649 -235.488004 
L 434.242069 -229.249878 
L 437.769489 -223.800667 
L 441.296909 -219.078053 
L 444.824329 -215.016962 
L 448.351749 -211.551575 
L 451.879169 -208.617009 
L 455.406589 -206.150691 
L 458.934009 -204.093399 
L 462.461429 -202.390029 
L 465.988849 -200.990079 
L 469.516268 -199.847921 
L 473.043688 -198.922859 
L 476.571108 -198.179047 
L 480.098528 -197.585273 
L 483.625948 -197.114666 
L 487.153368 -196.744335 
L 490.680788 -196.454982 
L 494.208208 -196.230497 
L 497.735628 -196.057565 
L 501.263048 -195.925281 
L 504.790468 -195.8248 
L 508.317887 -195.749007 
L 511.845307 -195.692234 
L 515.372727 -195.650004 
L 515.372727 -195.538011 
L 515.372727 -195.538011 
L 511.845307 -195.538011 
L 508.317887 -195.538011 
L 504.790468 -195.538011 
L 501.263048 -195.538011 
L 497.735628 -195.538011 
L 494.208208 -195.538011 
L 490.680788 -195.538011 
L 487.153368 -195.538011 
L 483.625948 -195.538011 
L 480.098528 -195.538011 
L 476.571108 -195.538011 
L 473.043688 -195.538011 
L 469.516268 -195.538011 
L 465.988849 -195.538011 
L 462.461429 -195.538011 
L 458.934009 -195.538011 
L 455.406589 -195.538011 
L 451.879169 -195.538011 
L 448.351749 -195.538011 
L 444.824329 -195.538011 
L 441.296909 -195.538011 
L 437.769489 -195.538011 
L 434.242069 -195.538011 
L 430.714649 -195.538011 
L 427.18723 -195.538011 
L 423.65981 -195.538011 
L 420.13239 -195.538011 
L 416.60497 -195.538011 
L 413.07755 -195.538011 
L 409.55013 -195.538011 
L 406.02271 -195.538011 
L 402.49529 -195.538011 
L 398.96787 -195.538011 
L 395.44045 -195.538011 
L 391.91303 -195.538011 
L 388.385611 -195.538011 
L 384.858191 -195.538011 
L 381.330771 -195.538011 
L 377.803351 -195.538011 
L 374.275931 -195.538011 
L 370.748511 -195.538011 
L 367.221091 -195.538011 
L 363.693671 -195.538011 
L 360.166251 -195.538011 
L 356.638831 -195.538011 
L 353.111411 -195.538011 
L 349.583992 -195.538011 
L 346.056572 -195.538011 
L 342.529152 -195.538011 
L 339.001732 -195.538011 
L 335.474312 -195.538011 
L 331.946892 -195.538011 
L 328.419472 -195.538011 
L 324.892052 -195.538011 
L 321.364632 -195.538011 
L 317.837212 -195.538011 
L 314.309792 -195.538011 
L 310.782373 -195.538011 
L 307.254953 -195.538011 
L 303.727533 -195.538011 
L 300.200113 -195.538011 
L 296.672693 -195.538011 
L 293.145273 -195.538011 
L 289.617853 -195.538011 
L 286.090433 -195.538011 
L 282.563013 -195.538011 
L 279.035593 -195.538011 
L 275.508173 -195.538011 
L 271.980754 -195.538011 
L 268.453334 -195.538011 
L 264.925914 -195.538011 
L 261.398494 -195.538011 
L 257.871074 -195.538011 
L 254.343654 -195.538011 
L 250.816234 -195.538011 
L 247.288814 -195.538011 
L 243.761394 -195.538011 
L 240.233974 -195.538011 
L 236.706554 -195.538011 
L 233.179135 -195.538011 
L 229.651715 -195.538011 
L 226.124295 -195.538011 
L 222.596875 -195.538011 
L 219.069455 -195.538011 
L 215.542035 -195.538011 
L 212.014615 -195.538011 
L 208.487195 -195.538011 
L 204.959775 -195.538011 
L 201.432355 -195.538011 
L 197.904935 -195.538011 
L 194.377516 -195.538011 
L 190.850096 -195.538011 
L 187.322676 -195.538011 
L 183.795256 -195.538011 
L 180.267836 -195.538011 
L 176.740416 -195.538011 
L 173.212996 -195.538011 
L 169.685576 -195.538011 
L 166.158156 -195.538011 
z
" id="m3ccd4c4f54" style="stroke:#ff6384;stroke-opacity:0.5;"/>
    </defs>
    <g clip-path="url(#pbb5c8615b1)">
     <use style="fill:#ff6384;fill-opacity:0.5;stroke:#ff6384;stroke-opacity:0.5;" x="0" xlink:href="#m3ccd4c4f54" y="581.789375"/>
    </g>
   </g>
   <g id="PolyCollection_2">
    <defs>
     <path d="M 58.827273 -195.538011 
L 58.827273 -195.634399 
L 62.925764 -195.670745 
L 67.024256 -195.719607 
L 71.122747 -195.78484 
L 75.221239 -195.87132 
L 79.319731 -195.985172 
L 83.418222 -196.134008 
L 87.516714 -196.327214 
L 91.615205 -196.57625 
L 95.713697 -196.89498 
L 99.812188 -197.300014 
L 103.91068 -197.811053 
L 108.009172 -198.451224 
L 112.107663 -199.247391 
L 116.206155 -200.230404 
L 120.304646 -201.435289 
L 124.403138 -202.901317 
L 128.501629 -204.671952 
L 132.600121 -206.794621 
L 136.698613 -209.320292 
L 140.797104 -212.302823 
L 144.895596 -215.798053 
L 148.994087 -219.862633 
L 153.092579 -224.552566 
L 157.19107 -229.921491 
L 161.289562 -236.018692 
L 165.388054 -242.886909 
L 169.486545 -250.559967 
L 173.585037 -259.060317 
L 177.683528 -268.396567 
L 181.78202 -278.561112 
L 185.880511 -289.527962 
L 189.979003 -301.250907 
L 194.077495 -313.662136 
L 198.175986 -326.671409 
L 202.274478 -340.16592 
L 206.372969 -354.010902 
L 210.471461 -368.051053 
L 214.569952 -382.112803 
L 218.668444 -396.007406 
L 222.766935 -409.534809 
L 226.865427 -422.488201 
L 230.963919 -434.659115 
L 235.06241 -445.842906 
L 239.160902 -455.844419 
L 243.259393 -464.483619 
L 247.357885 -471.600968 
L 251.456376 -477.062315 
L 255.554868 -480.763105 
L 259.65336 -482.631704 
L 263.751851 -482.631704 
L 267.850343 -480.763105 
L 271.948834 -477.062315 
L 276.047326 -471.600968 
L 280.145817 -464.483619 
L 284.244309 -455.844419 
L 288.342801 -445.842906 
L 292.441292 -434.659115 
L 296.539784 -422.488201 
L 300.638275 -409.534809 
L 304.736767 -396.007406 
L 308.835258 -382.112803 
L 312.93375 -368.051053 
L 317.032242 -354.010902 
L 321.130733 -340.16592 
L 325.229225 -326.671409 
L 329.327716 -313.662136 
L 333.426208 -301.250907 
L 337.524699 -289.527962 
L 341.623191 -278.561112 
L 345.721683 -268.396567 
L 349.820174 -259.060317 
L 353.918666 -250.559967 
L 358.017157 -242.886909 
L 362.115649 -236.018692 
L 366.21414 -229.921491 
L 370.312632 -224.552566 
L 374.411124 -219.862633 
L 378.509615 -215.798053 
L 382.608107 -212.302823 
L 386.706598 -209.320292 
L 390.80509 -206.794621 
L 394.903581 -204.671952 
L 399.002073 -202.901317 
L 403.100565 -201.435289 
L 407.199056 -200.230404 
L 411.297548 -199.247391 
L 415.396039 -198.451224 
L 419.494531 -197.811053 
L 423.593022 -197.300014 
L 427.691514 -196.89498 
L 431.790006 -196.57625 
L 435.888497 -196.327214 
L 439.986989 -196.134008 
L 444.08548 -195.985172 
L 448.183972 -195.87132 
L 452.282463 -195.78484 
L 456.380955 -195.719607 
L 460.479447 -195.670745 
L 464.577938 -195.634399 
L 464.577938 -195.538011 
L 464.577938 -195.538011 
L 460.479447 -195.538011 
L 456.380955 -195.538011 
L 452.282463 -195.538011 
L 448.183972 -195.538011 
L 444.08548 -195.538011 
L 439.986989 -195.538011 
L 435.888497 -195.538011 
L 431.790006 -195.538011 
L 427.691514 -195.538011 
L 423.593022 -195.538011 
L 419.494531 -195.538011 
L 415.396039 -195.538011 
L 411.297548 -195.538011 
L 407.199056 -195.538011 
L 403.100565 -195.538011 
L 399.002073 -195.538011 
L 394.903581 -195.538011 
L 390.80509 -195.538011 
L 386.706598 -195.538011 
L 382.608107 -195.538011 
L 378.509615 -195.538011 
L 374.411124 -195.538011 
L 370.312632 -195.538011 
L 366.21414 -195.538011 
L 362.115649 -195.538011 
L 358.017157 -195.538011 
L 353.918666 -195.538011 
L 349.820174 -195.538011 
L 345.721683 -195.538011 
L 341.623191 -195.538011 
L 337.524699 -195.538011 
L 333.426208 -195.538011 
L 329.327716 -195.538011 
L 325.229225 -195.538011 
L 321.130733 -195.538011 
L 317.032242 -195.538011 
L 312.93375 -195.538011 
L 308.835258 -195.538011 
L 304.736767 -195.538011 
L 300.638275 -195.538011 
L 296.539784 -195.538011 
L 292.441292 -195.538011 
L 288.342801 -195.538011 
L 284.244309 -195.538011 
L 280.145817 -195.538011 
L 276.047326 -195.538011 
L 271.948834 -195.538011 
L 267.850343 -195.538011 
L 263.751851 -195.538011 
L 259.65336 -195.538011 
L 255.554868 -195.538011 
L 251.456376 -195.538011 
L 247.357885 -195.538011 
L 243.259393 -195.538011 
L 239.160902 -195.538011 
L 235.06241 -195.538011 
L 230.963919 -195.538011 
L 226.865427 -195.538011 
L 222.766935 -195.538011 
L 218.668444 -195.538011 
L 214.569952 -195.538011 
L 210.471461 -195.538011 
L 206.372969 -195.538011 
L 202.274478 -195.538011 
L 198.175986 -195.538011 
L 194.077495 -195.538011 
L 189.979003 -195.538011 
L 185.880511 -195.538011 
L 181.78202 -195.538011 
L 177.683528 -195.538011 
L 173.585037 -195.538011 
L 169.486545 -195.538011 
L 165.388054 -195.538011 
L 161.289562 -195.538011 
L 157.19107 -195.538011 
L 153.092579 -195.538011 
L 148.994087 -195.538011 
L 144.895596 -195.538011 
L 140.797104 -195.538011 
L 136.698613 -195.538011 
L 132.600121 -195.538011 
L 128.501629 -195.538011 
L 124.403138 -195.538011 
L 120.304646 -195.538011 
L 116.206155 -195.538011 
L 112.107663 -195.538011 
L 108.009172 -195.538011 
L 103.91068 -195.538011 
L 99.812188 -195.538011 
L 95.713697 -195.538011 
L 91.615205 -195.538011 
L 87.516714 -195.538011 
L 83.418222 -195.538011 
L 79.319731 -195.538011 
L 75.221239 -195.538011 
L 71.122747 -195.538011 
L 67.024256 -195.538011 
L 62.925764 -195.538011 
L 58.827273 -195.538011 
z
" id="m99cc299d1d" style="stroke:#36a2eb;stroke-opacity:0.5;"/>
    </defs>
    <g clip-path="url(#pbb5c8615b1)">
     <use style="fill:#36a2eb;fill-opacity:0.5;stroke:#36a2eb;stroke-opacity:0.5;" x="0" xlink:href="#m99cc299d1d" y="581.789375"/>
    </g>
   </g>
   <g id="line2d_1">
    <path clip-path="url(#pbb5c8615b1)" d="M 166.158156 386.139371 
L 169.685576 386.097141 
L 173.212996 386.040368 
L 176.740416 385.964575 
L 180.267836 385.864094 
L 183.795256 385.73181 
L 187.322676 385.558878 
L 190.850096 385.334393 
L 194.377516 385.04504 
L 197.904935 384.674709 
L 201.432355 384.204102 
L 204.959775 383.610328 
L 208.487195 382.866516 
L 212.014615 381.941454 
L 215.542035 380.799296 
L 219.069455 379.399346 
L 222.596875 377.695976 
L 226.124295 375.638684 
L 229.651715 373.172366 
L 233.179135 370.2378 
L 236.706554 366.772413 
L 240.233974 362.711322 
L 243.761394 357.988708 
L 247.288814 352.539497 
L 250.816234 346.301371 
L 254.343654 339.217063 
L 257.871074 331.236916 
L 261.398494 322.321628 
L 264.925914 312.445114 
L 268.453334 301.597371 
L 271.980754 289.787238 
L 275.508173 277.04491 
L 279.035593 263.424078 
L 282.563013 249.003534 
L 286.090433 233.888124 
L 289.617853 218.208919 
L 293.145273 202.122504 
L 296.672693 185.809323 
L 300.200113 169.471045 
L 303.727533 153.326975 
L 307.254953 137.609553 
L 310.782373 122.559072 
L 314.309792 108.417748 
L 317.837212 95.423357 
L 321.364632 83.802649 
L 324.892052 73.764805 
L 328.419472 65.495194 
L 331.946892 59.149682 
L 335.474312 54.849752 
L 339.001732 52.678636 
L 342.529152 52.678636 
L 346.056572 54.849752 
L 349.583992 59.149682 
L 353.111411 65.495194 
L 356.638831 73.764805 
L 360.166251 83.802649 
L 363.693671 95.423357 
L 367.221091 108.417748 
L 370.748511 122.559072 
L 374.275931 137.609553 
L 377.803351 153.326975 
L 381.330771 169.471045 
L 384.858191 185.809323 
L 388.385611 202.122504 
L 391.91303 218.208919 
L 395.44045 233.888124 
L 398.96787 249.003534 
L 402.49529 263.424078 
L 406.02271 277.04491 
L 409.55013 289.787238 
L 413.07755 301.597371 
L 416.60497 312.445114 
L 420.13239 322.321628 
L 423.65981 331.236916 
L 427.18723 339.217063 
L 430.714649 346.301371 
L 434.242069 352.539497 
L 437.769489 357.988708 
L 441.296909 362.711322 
L 444.824329 366.772413 
L 448.351749 370.2378 
L 451.879169 373.172366 
L 455.406589 375.638684 
L 458.934009 377.695976 
L 462.461429 379.399346 
L 465.988849 380.799296 
L 469.516268 381.941454 
L 473.043688 382.866516 
L 476.571108 383.610328 
L 480.098528 384.204102 
L 483.625948 384.674709 
L 487.153368 385.04504 
L 490.680788 385.334393 
L 494.208208 385.558878 
L 497.735628 385.73181 
L 501.263048 385.864094 
L 504.790468 385.964575 
L 508.317887 386.040368 
L 511.845307 386.097141 
L 515.372727 386.139371 
" style="fill:none;stroke:#ff6384;stroke-linecap:square;"/>
   </g>
   <g id="line2d_2">
    <path clip-path="url(#pbb5c8615b1)" d="M 58.827273 386.154976 
L 62.925764 386.11863 
L 67.024256 386.069768 
L 71.122747 386.004535 
L 75.221239 385.918055 
L 79.319731 385.804203 
L 83.418222 385.655367 
L 87.516714 385.462161 
L 91.615205 385.213125 
L 95.713697 384.894395 
L 99.812188 384.489361 
L 103.91068 383.978322 
L 108.009172 383.338151 
L 112.107663 382.541984 
L 116.206155 381.558971 
L 120.304646 380.354086 
L 124.403138 378.888058 
L 128.501629 377.117423 
L 132.600121 374.994754 
L 136.698613 372.469083 
L 140.797104 369.486552 
L 144.895596 365.991322 
L 148.994087 361.926742 
L 153.092579 357.236809 
L 157.19107 351.867884 
L 161.289562 345.770683 
L 165.388054 338.902466 
L 169.486545 331.229408 
L 173.585037 322.729058 
L 177.683528 313.392808 
L 181.78202 303.228263 
L 185.880511 292.261413 
L 189.979003 280.538468 
L 194.077495 268.127239 
L 198.175986 255.117966 
L 202.274478 241.623455 
L 206.372969 227.778473 
L 210.471461 213.738322 
L 214.569952 199.676572 
L 218.668444 185.781969 
L 222.766935 172.254566 
L 226.865427 159.301174 
L 230.963919 147.13026 
L 235.06241 135.946469 
L 239.160902 125.944956 
L 243.259393 117.305756 
L 247.357885 110.188407 
L 251.456376 104.72706 
L 255.554868 101.02627 
L 259.65336 99.157671 
L 263.751851 99.157671 
L 267.850343 101.02627 
L 271.948834 104.72706 
L 276.047326 110.188407 
L 280.145817 117.305756 
L 284.244309 125.944956 
L 288.342801 135.946469 
L 292.441292 147.13026 
L 296.539784 159.301174 
L 300.638275 172.254566 
L 304.736767 185.781969 
L 308.835258 199.676572 
L 312.93375 213.738322 
L 317.032242 227.778473 
L 321.130733 241.623455 
L 325.229225 255.117966 
L 329.327716 268.127239 
L 333.426208 280.538468 
L 337.524699 292.261413 
L 341.623191 303.228263 
L 345.721683 313.392808 
L 349.820174 322.729058 
L 353.918666 331.229408 
L 358.017157 338.902466 
L 362.115649 345.770683 
L 366.21414 351.867884 
L 370.312632 357.236809 
L 374.411124 361.926742 
L 378.509615 365.991322 
L 382.608107 369.486552 
L 386.706598 372.469083 
L 390.80509 374.994754 
L 394.903581 377.117423 
L 399.002073 378.888058 
L 403.100565 380.354086 
L 407.199056 381.558971 
L 411.297548 382.541984 
L 415.396039 383.338151 
L 419.494531 383.978322 
L 423.593022 384.489361 
L 427.691514 384.894395 
L 431.790006 385.213125 
L 435.888497 385.462161 
L 439.986989 385.655367 
L 444.08548 385.804203 
L 448.183972 385.918055 
L 452.282463 386.004535 
L 456.380955 386.069768 
L 460.479447 386.11863 
L 464.577938 386.154976 
" style="fill:none;stroke:#36a2eb;stroke-linecap:square;"/>
   </g>
   <g id="patch_3">
    <path d="M 36 402.93 
L 538.2 402.93 
" style="fill:none;stroke:#000000;stroke-linecap:square;stroke-linejoin:miter;stroke-width:0.8;"/>
   </g>
   <g id="legend_1">
    <g id="patch_4">
     <path d="M 414.919063 88.29875 
L 528.4 88.29875 
Q 531.2 88.29875 531.2 85.49875 
L 531.2 45.8 
Q 531.2 43 528.4 43 
L 414.919063 43 
Q 412.119063 43 412.119063 45.8 
L 412.119063 85.49875 
Q 412.119063 88.29875 414.919063 88.29875 
z
" style="fill:#ffffff;opacity:0.8;stroke:#cccccc;stroke-linejoin:miter;"/>
    </g>
    <g id="patch_5">
     <path d="M 417.719063 59.237813 
L 445.719063 59.237813 
L 445.719063 49.437813 
L 417.719063 49.437813 
z
" style="fill:#ff6384;opacity:0.5;stroke:#ff6384;stroke-linejoin:miter;"/>
    </g>
    <g id="text_1">
     <!-- sidemenu -->
     <defs>
      <path d="M 44.28125 53.078125 
L 44.28125 44.578125 
Q 40.484375 46.53125 36.375 47.5 
Q 32.28125 48.484375 27.875 48.484375 
Q 21.1875 48.484375 17.84375 46.4375 
Q 14.5 44.390625 14.5 40.28125 
Q 14.5 37.15625 16.890625 35.375 
Q 19.28125 33.59375 26.515625 31.984375 
L 29.59375 31.296875 
Q 39.15625 29.25 43.1875 25.515625 
Q 47.21875 21.78125 47.21875 15.09375 
Q 47.21875 7.46875 41.1875 3.015625 
Q 35.15625 -1.421875 24.609375 -1.421875 
Q 20.21875 -1.421875 15.453125 -0.5625 
Q 10.6875 0.296875 5.421875 2 
L 5.421875 11.28125 
Q 10.40625 8.6875 15.234375 7.390625 
Q 20.0625 6.109375 24.8125 6.109375 
Q 31.15625 6.109375 34.5625 8.28125 
Q 37.984375 10.453125 37.984375 14.40625 
Q 37.984375 18.0625 35.515625 20.015625 
Q 33.0625 21.96875 24.703125 23.78125 
L 21.578125 24.515625 
Q 13.234375 26.265625 9.515625 29.90625 
Q 5.8125 33.546875 5.8125 39.890625 
Q 5.8125 47.609375 11.28125 51.796875 
Q 16.75 56 26.8125 56 
Q 31.78125 56 36.171875 55.265625 
Q 40.578125 54.546875 44.28125 53.078125 
z
" id="DejaVuSans-115"/>
      <path d="M 9.421875 54.6875 
L 18.40625 54.6875 
L 18.40625 0 
L 9.421875 0 
z
M 9.421875 75.984375 
L 18.40625 75.984375 
L 18.40625 64.59375 
L 9.421875 64.59375 
z
" id="DejaVuSans-105"/>
      <path d="M 45.40625 46.390625 
L 45.40625 75.984375 
L 54.390625 75.984375 
L 54.390625 0 
L 45.40625 0 
L 45.40625 8.203125 
Q 42.578125 3.328125 38.25 0.953125 
Q 33.9375 -1.421875 27.875 -1.421875 
Q 17.96875 -1.421875 11.734375 6.484375 
Q 5.515625 14.40625 5.515625 27.296875 
Q 5.515625 40.1875 11.734375 48.09375 
Q 17.96875 56 27.875 56 
Q 33.9375 56 38.25 53.625 
Q 42.578125 51.265625 45.40625 46.390625 
z
M 14.796875 27.296875 
Q 14.796875 17.390625 18.875 11.75 
Q 22.953125 6.109375 30.078125 6.109375 
Q 37.203125 6.109375 41.296875 11.75 
Q 45.40625 17.390625 45.40625 27.296875 
Q 45.40625 37.203125 41.296875 42.84375 
Q 37.203125 48.484375 30.078125 48.484375 
Q 22.953125 48.484375 18.875 42.84375 
Q 14.796875 37.203125 14.796875 27.296875 
z
" id="DejaVuSans-100"/>
      <path d="M 56.203125 29.59375 
L 56.203125 25.203125 
L 14.890625 25.203125 
Q 15.484375 15.921875 20.484375 11.0625 
Q 25.484375 6.203125 34.421875 6.203125 
Q 39.59375 6.203125 44.453125 7.46875 
Q 49.3125 8.734375 54.109375 11.28125 
L 54.109375 2.78125 
Q 49.265625 0.734375 44.1875 -0.34375 
Q 39.109375 -1.421875 33.890625 -1.421875 
Q 20.796875 -1.421875 13.15625 6.1875 
Q 5.515625 13.8125 5.515625 26.8125 
Q 5.515625 40.234375 12.765625 48.109375 
Q 20.015625 56 32.328125 56 
Q 43.359375 56 49.78125 48.890625 
Q 56.203125 41.796875 56.203125 29.59375 
z
M 47.21875 32.234375 
Q 47.125 39.59375 43.09375 43.984375 
Q 39.0625 48.390625 32.421875 48.390625 
Q 24.90625 48.390625 20.390625 44.140625 
Q 15.875 39.890625 15.1875 32.171875 
z
" id="DejaVuSans-101"/>
      <path d="M 52 44.1875 
Q 55.375 50.25 60.0625 53.125 
Q 64.75 56 71.09375 56 
Q 79.640625 56 84.28125 50.015625 
Q 88.921875 44.046875 88.921875 33.015625 
L 88.921875 0 
L 79.890625 0 
L 79.890625 32.71875 
Q 79.890625 40.578125 77.09375 44.375 
Q 74.3125 48.1875 68.609375 48.1875 
Q 61.625 48.1875 57.5625 43.546875 
Q 53.515625 38.921875 53.515625 30.90625 
L 53.515625 0 
L 44.484375 0 
L 44.484375 32.71875 
Q 44.484375 40.625 41.703125 44.40625 
Q 38.921875 48.1875 33.109375 48.1875 
Q 26.21875 48.1875 22.15625 43.53125 
Q 18.109375 38.875 18.109375 30.90625 
L 18.109375 0 
L 9.078125 0 
L 9.078125 54.6875 
L 18.109375 54.6875 
L 18.109375 46.1875 
Q 21.1875 51.21875 25.484375 53.609375 
Q 29.78125 56 35.6875 56 
Q 41.65625 56 45.828125 52.96875 
Q 50 49.953125 52 44.1875 
z
" id="DejaVuSans-109"/>
      <path d="M 54.890625 33.015625 
L 54.890625 0 
L 45.90625 0 
L 45.90625 32.71875 
Q 45.90625 40.484375 42.875 44.328125 
Q 39.84375 48.1875 33.796875 48.1875 
Q 26.515625 48.1875 22.3125 43.546875 
Q 18.109375 38.921875 18.109375 30.90625 
L 18.109375 0 
L 9.078125 0 
L 9.078125 54.6875 
L 18.109375 54.6875 
L 18.109375 46.1875 
Q 21.34375 51.125 25.703125 53.5625 
Q 30.078125 56 35.796875 56 
Q 45.21875 56 50.046875 50.171875 
Q 54.890625 44.34375 54.890625 33.015625 
z
" id="DejaVuSans-110"/>
      <path d="M 8.5 21.578125 
L 8.5 54.6875 
L 17.484375 54.6875 
L 17.484375 21.921875 
Q 17.484375 14.15625 20.5 10.265625 
Q 23.53125 6.390625 29.59375 6.390625 
Q 36.859375 6.390625 41.078125 11.03125 
Q 45.3125 15.671875 45.3125 23.6875 
L 45.3125 54.6875 
L 54.296875 54.6875 
L 54.296875 0 
L 45.3125 0 
L 45.3125 8.40625 
Q 42.046875 3.421875 37.71875 1 
Q 33.40625 -1.421875 27.6875 -1.421875 
Q 18.265625 -1.421875 13.375 4.4375 
Q 8.5 10.296875 8.5 21.578125 
z
M 31.109375 56 
z
" id="DejaVuSans-117"/>
     </defs>
     <g transform="translate(456.919063 59.237813)scale(0.14 -0.14)">
      <use xlink:href="#DejaVuSans-115"/>
      <use x="52.099609" xlink:href="#DejaVuSans-105"/>
      <use x="79.882812" xlink:href="#DejaVuSans-100"/>
      <use x="143.359375" xlink:href="#DejaVuSans-101"/>
      <use x="204.882812" xlink:href="#DejaVuSans-109"/>
      <use x="302.294922" xlink:href="#DejaVuSans-101"/>
      <use x="363.818359" xlink:href="#DejaVuSans-110"/>
      <use x="427.197266" xlink:href="#DejaVuSans-117"/>
     </g>
    </g>
    <g id="patch_6">
     <path d="M 417.719063 79.787188 
L 445.719063 79.787188 
L 445.719063 69.987188 
L 417.719063 69.987188 
z
" style="fill:#36a2eb;opacity:0.5;stroke:#36a2eb;stroke-linejoin:miter;"/>
    </g>
    <g id="text_2">
     <!-- tabbar -->
     <defs>
      <path d="M 18.3125 70.21875 
L 18.3125 54.6875 
L 36.8125 54.6875 
L 36.8125 47.703125 
L 18.3125 47.703125 
L 18.3125 18.015625 
Q 18.3125 11.328125 20.140625 9.421875 
Q 21.96875 7.515625 27.59375 7.515625 
L 36.8125 7.515625 
L 36.8125 0 
L 27.59375 0 
Q 17.1875 0 13.234375 3.875 
Q 9.28125 7.765625 9.28125 18.015625 
L 9.28125 47.703125 
L 2.6875 47.703125 
L 2.6875 54.6875 
L 9.28125 54.6875 
L 9.28125 70.21875 
z
" id="DejaVuSans-116"/>
      <path d="M 34.28125 27.484375 
Q 23.390625 27.484375 19.1875 25 
Q 14.984375 22.515625 14.984375 16.5 
Q 14.984375 11.71875 18.140625 8.90625 
Q 21.296875 6.109375 26.703125 6.109375 
Q 34.1875 6.109375 38.703125 11.40625 
Q 43.21875 16.703125 43.21875 25.484375 
L 43.21875 27.484375 
z
M 52.203125 31.203125 
L 52.203125 0 
L 43.21875 0 
L 43.21875 8.296875 
Q 40.140625 3.328125 35.546875 0.953125 
Q 30.953125 -1.421875 24.3125 -1.421875 
Q 15.921875 -1.421875 10.953125 3.296875 
Q 6 8.015625 6 15.921875 
Q 6 25.140625 12.171875 29.828125 
Q 18.359375 34.515625 30.609375 34.515625 
L 43.21875 34.515625 
L 43.21875 35.40625 
Q 43.21875 41.609375 39.140625 45 
Q 35.0625 48.390625 27.6875 48.390625 
Q 23 48.390625 18.546875 47.265625 
Q 14.109375 46.140625 10.015625 43.890625 
L 10.015625 52.203125 
Q 14.9375 54.109375 19.578125 55.046875 
Q 24.21875 56 28.609375 56 
Q 40.484375 56 46.34375 49.84375 
Q 52.203125 43.703125 52.203125 31.203125 
z
" id="DejaVuSans-97"/>
      <path d="M 48.6875 27.296875 
Q 48.6875 37.203125 44.609375 42.84375 
Q 40.53125 48.484375 33.40625 48.484375 
Q 26.265625 48.484375 22.1875 42.84375 
Q 18.109375 37.203125 18.109375 27.296875 
Q 18.109375 17.390625 22.1875 11.75 
Q 26.265625 6.109375 33.40625 6.109375 
Q 40.53125 6.109375 44.609375 11.75 
Q 48.6875 17.390625 48.6875 27.296875 
z
M 18.109375 46.390625 
Q 20.953125 51.265625 25.265625 53.625 
Q 29.59375 56 35.59375 56 
Q 45.5625 56 51.78125 48.09375 
Q 58.015625 40.1875 58.015625 27.296875 
Q 58.015625 14.40625 51.78125 6.484375 
Q 45.5625 -1.421875 35.59375 -1.421875 
Q 29.59375 -1.421875 25.265625 0.953125 
Q 20.953125 3.328125 18.109375 8.203125 
L 18.109375 0 
L 9.078125 0 
L 9.078125 75.984375 
L 18.109375 75.984375 
z
" id="DejaVuSans-98"/>
      <path d="M 41.109375 46.296875 
Q 39.59375 47.171875 37.8125 47.578125 
Q 36.03125 48 33.890625 48 
Q 26.265625 48 22.1875 43.046875 
Q 18.109375 38.09375 18.109375 28.8125 
L 18.109375 0 
L 9.078125 0 
L 9.078125 54.6875 
L 18.109375 54.6875 
L 18.109375 46.1875 
Q 20.953125 51.171875 25.484375 53.578125 
Q 30.03125 56 36.53125 56 
Q 37.453125 56 38.578125 55.875 
Q 39.703125 55.765625 41.0625 55.515625 
z
" id="DejaVuSans-114"/>
     </defs>
     <g transform="translate(456.919063 79.787188)scale(0.14 -0.14)">
      <use xlink:href="#DejaVuSans-116"/>
      <use x="39.208984" xlink:href="#DejaVuSans-97"/>
      <use x="100.488281" xlink:href="#DejaVuSans-98"/>
      <use x="163.964844" xlink:href="#DejaVuSans-98"/>
      <use x="227.441406" xlink:href="#DejaVuSans-97"/>
      <use x="288.720703" xlink:href="#DejaVuSans-114"/>
     </g>
    </g>
   </g>
  </g>
  <g id="axes_2">
   <g id="patch_7">
    <path d="M 36 525.24 
L 538.2 525.24 
L 538.2 402.93 
L 36 402.93 
z
" style="fill:none;"/>
   </g>
   <g id="patch_8">
    <path clip-path="url(#p3e013dd748)" d="M 255.207872 519.680455 
L 426.323012 519.680455 
L 426.323012 482.616818 
L 255.207872 482.616818 
z
" style="fill:#ff6384;opacity:0.5;"/>
   </g>
   <g id="patch_9">
    <path clip-path="url(#p3e013dd748)" d="M 162.293692 445.553182 
L 361.111518 445.553182 
L 361.111518 408.489545 
L 162.293692 408.489545 
z
" style="fill:#36a2eb;opacity:0.5;"/>
   </g>
   <g id="matplotlib.axis_1">
    <g id="xtick_1">
     <g id="line2d_3">
      <defs>
       <path d="M 0 0 
L 0 3.5 
" id="m60a743f00c" style="stroke:#000000;stroke-width:0.8;"/>
      </defs>
      <g>
       <use style="stroke:#000000;stroke-width:0.8;" x="110.507132" xlink:href="#m60a743f00c" y="525.24"/>
      </g>
     </g>
     <g id="text_3">
      <!-- 3.4 -->
      <defs>
       <path d="M 40.578125 39.3125 
Q 47.65625 37.796875 51.625 33 
Q 55.609375 28.21875 55.609375 21.1875 
Q 55.609375 10.40625 48.1875 4.484375 
Q 40.765625 -1.421875 27.09375 -1.421875 
Q 22.515625 -1.421875 17.65625 -0.515625 
Q 12.796875 0.390625 7.625 2.203125 
L 7.625 11.71875 
Q 11.71875 9.328125 16.59375 8.109375 
Q 21.484375 6.890625 26.8125 6.890625 
Q 36.078125 6.890625 40.9375 10.546875 
Q 45.796875 14.203125 45.796875 21.1875 
Q 45.796875 27.640625 41.28125 31.265625 
Q 36.765625 34.90625 28.71875 34.90625 
L 20.21875 34.90625 
L 20.21875 43.015625 
L 29.109375 43.015625 
Q 36.375 43.015625 40.234375 45.921875 
Q 44.09375 48.828125 44.09375 54.296875 
Q 44.09375 59.90625 40.109375 62.90625 
Q 36.140625 65.921875 28.71875 65.921875 
Q 24.65625 65.921875 20.015625 65.03125 
Q 15.375 64.15625 9.8125 62.3125 
L 9.8125 71.09375 
Q 15.4375 72.65625 20.34375 73.4375 
Q 25.25 74.21875 29.59375 74.21875 
Q 40.828125 74.21875 47.359375 69.109375 
Q 53.90625 64.015625 53.90625 55.328125 
Q 53.90625 49.265625 50.4375 45.09375 
Q 46.96875 40.921875 40.578125 39.3125 
z
" id="DejaVuSans-51"/>
       <path d="M 10.6875 12.40625 
L 21 12.40625 
L 21 0 
L 10.6875 0 
z
" id="DejaVuSans-46"/>
       <path d="M 37.796875 64.3125 
L 12.890625 25.390625 
L 37.796875 25.390625 
z
M 35.203125 72.90625 
L 47.609375 72.90625 
L 47.609375 25.390625 
L 58.015625 25.390625 
L 58.015625 17.1875 
L 47.609375 17.1875 
L 47.609375 0 
L 37.796875 0 
L 37.796875 17.1875 
L 4.890625 17.1875 
L 4.890625 26.703125 
z
" id="DejaVuSans-52"/>
      </defs>
      <g transform="translate(99.374944 542.877813)scale(0.14 -0.14)">
       <use xlink:href="#DejaVuSans-51"/>
       <use x="63.623047" xlink:href="#DejaVuSans-46"/>
       <use x="95.410156" xlink:href="#DejaVuSans-52"/>
      </g>
     </g>
    </g>
    <g id="xtick_2">
     <g id="line2d_4">
      <g>
       <use style="stroke:#000000;stroke-width:0.8;" x="208.115572" xlink:href="#m60a743f00c" y="525.24"/>
      </g>
     </g>
     <g id="text_4">
      <!-- 3.5 -->
      <defs>
       <path d="M 10.796875 72.90625 
L 49.515625 72.90625 
L 49.515625 64.59375 
L 19.828125 64.59375 
L 19.828125 46.734375 
Q 21.96875 47.46875 24.109375 47.828125 
Q 26.265625 48.1875 28.421875 48.1875 
Q 40.625 48.1875 47.75 41.5 
Q 54.890625 34.8125 54.890625 23.390625 
Q 54.890625 11.625 47.5625 5.09375 
Q 40.234375 -1.421875 26.90625 -1.421875 
Q 22.3125 -1.421875 17.546875 -0.640625 
Q 12.796875 0.140625 7.71875 1.703125 
L 7.71875 11.625 
Q 12.109375 9.234375 16.796875 8.0625 
Q 21.484375 6.890625 26.703125 6.890625 
Q 35.15625 6.890625 40.078125 11.328125 
Q 45.015625 15.765625 45.015625 23.390625 
Q 45.015625 31 40.078125 35.4375 
Q 35.15625 39.890625 26.703125 39.890625 
Q 22.75 39.890625 18.8125 39.015625 
Q 14.890625 38.140625 10.796875 36.28125 
z
" id="DejaVuSans-53"/>
      </defs>
      <g transform="translate(196.983384 542.877813)scale(0.14 -0.14)">
       <use xlink:href="#DejaVuSans-51"/>
       <use x="63.623047" xlink:href="#DejaVuSans-46"/>
       <use x="95.410156" xlink:href="#DejaVuSans-53"/>
      </g>
     </g>
    </g>
    <g id="xtick_3">
     <g id="line2d_5">
      <g>
       <use style="stroke:#000000;stroke-width:0.8;" x="305.724012" xlink:href="#m60a743f00c" y="525.24"/>
      </g>
     </g>
     <g id="text_5">
      <!-- 3.6 -->
      <defs>
       <path d="M 33.015625 40.375 
Q 26.375 40.375 22.484375 35.828125 
Q 18.609375 31.296875 18.609375 23.390625 
Q 18.609375 15.53125 22.484375 10.953125 
Q 26.375 6.390625 33.015625 6.390625 
Q 39.65625 6.390625 43.53125 10.953125 
Q 47.40625 15.53125 47.40625 23.390625 
Q 47.40625 31.296875 43.53125 35.828125 
Q 39.65625 40.375 33.015625 40.375 
z
M 52.59375 71.296875 
L 52.59375 62.3125 
Q 48.875 64.0625 45.09375 64.984375 
Q 41.3125 65.921875 37.59375 65.921875 
Q 27.828125 65.921875 22.671875 59.328125 
Q 17.53125 52.734375 16.796875 39.40625 
Q 19.671875 43.65625 24.015625 45.921875 
Q 28.375 48.1875 33.59375 48.1875 
Q 44.578125 48.1875 50.953125 41.515625 
Q 57.328125 34.859375 57.328125 23.390625 
Q 57.328125 12.15625 50.6875 5.359375 
Q 44.046875 -1.421875 33.015625 -1.421875 
Q 20.359375 -1.421875 13.671875 8.265625 
Q 6.984375 17.96875 6.984375 36.375 
Q 6.984375 53.65625 15.1875 63.9375 
Q 23.390625 74.21875 37.203125 74.21875 
Q 40.921875 74.21875 44.703125 73.484375 
Q 48.484375 72.75 52.59375 71.296875 
z
" id="DejaVuSans-54"/>
      </defs>
      <g transform="translate(294.591824 542.877813)scale(0.14 -0.14)">
       <use xlink:href="#DejaVuSans-51"/>
       <use x="63.623047" xlink:href="#DejaVuSans-46"/>
       <use x="95.410156" xlink:href="#DejaVuSans-54"/>
      </g>
     </g>
    </g>
    <g id="xtick_4">
     <g id="line2d_6">
      <g>
       <use style="stroke:#000000;stroke-width:0.8;" x="403.332452" xlink:href="#m60a743f00c" y="525.24"/>
      </g>
     </g>
     <g id="text_6">
      <!-- 3.7 -->
      <defs>
       <path d="M 8.203125 72.90625 
L 55.078125 72.90625 
L 55.078125 68.703125 
L 28.609375 0 
L 18.3125 0 
L 43.21875 64.59375 
L 8.203125 64.59375 
z
" id="DejaVuSans-55"/>
      </defs>
      <g transform="translate(392.200264 542.877813)scale(0.14 -0.14)">
       <use xlink:href="#DejaVuSans-51"/>
       <use x="63.623047" xlink:href="#DejaVuSans-46"/>
       <use x="95.410156" xlink:href="#DejaVuSans-55"/>
      </g>
     </g>
    </g>
    <g id="xtick_5">
     <g id="line2d_7">
      <g>
       <use style="stroke:#000000;stroke-width:0.8;" x="500.940892" xlink:href="#m60a743f00c" y="525.24"/>
      </g>
     </g>
     <g id="text_7">
      <!-- 3.8 -->
      <defs>
       <path d="M 31.78125 34.625 
Q 24.75 34.625 20.71875 30.859375 
Q 16.703125 27.09375 16.703125 20.515625 
Q 16.703125 13.921875 20.71875 10.15625 
Q 24.75 6.390625 31.78125 6.390625 
Q 38.8125 6.390625 42.859375 10.171875 
Q 46.921875 13.96875 46.921875 20.515625 
Q 46.921875 27.09375 42.890625 30.859375 
Q 38.875 34.625 31.78125 34.625 
z
M 21.921875 38.8125 
Q 15.578125 40.375 12.03125 44.71875 
Q 8.5 49.078125 8.5 55.328125 
Q 8.5 64.0625 14.71875 69.140625 
Q 20.953125 74.21875 31.78125 74.21875 
Q 42.671875 74.21875 48.875 69.140625 
Q 55.078125 64.0625 55.078125 55.328125 
Q 55.078125 49.078125 51.53125 44.71875 
Q 48 40.375 41.703125 38.8125 
Q 48.828125 37.15625 52.796875 32.3125 
Q 56.78125 27.484375 56.78125 20.515625 
Q 56.78125 9.90625 50.3125 4.234375 
Q 43.84375 -1.421875 31.78125 -1.421875 
Q 19.734375 -1.421875 13.25 4.234375 
Q 6.78125 9.90625 6.78125 20.515625 
Q 6.78125 27.484375 10.78125 32.3125 
Q 14.796875 37.15625 21.921875 38.8125 
z
M 18.3125 54.390625 
Q 18.3125 48.734375 21.84375 45.5625 
Q 25.390625 42.390625 31.78125 42.390625 
Q 38.140625 42.390625 41.71875 45.5625 
Q 45.3125 48.734375 45.3125 54.390625 
Q 45.3125 60.0625 41.71875 63.234375 
Q 38.140625 66.40625 31.78125 66.40625 
Q 25.390625 66.40625 21.84375 63.234375 
Q 18.3125 60.0625 18.3125 54.390625 
z
" id="DejaVuSans-56"/>
      </defs>
      <g transform="translate(489.808704 542.877813)scale(0.14 -0.14)">
       <use xlink:href="#DejaVuSans-51"/>
       <use x="63.623047" xlink:href="#DejaVuSans-46"/>
       <use x="95.410156" xlink:href="#DejaVuSans-56"/>
      </g>
     </g>
    </g>
   </g>
   <g id="line2d_8">
    <path clip-path="url(#p3e013dd748)" d="M 340.765442 525.24 
L 340.765442 402.93 
" style="fill:none;stroke:#ff6384;stroke-dasharray:5.55,2.4;stroke-dashoffset:0;stroke-opacity:0.8;stroke-width:1.5;"/>
   </g>
   <g id="line2d_9">
    <path clip-path="url(#p3e013dd748)" d="M 261.702605 525.24 
L 261.702605 402.93 
" style="fill:none;stroke:#36a2eb;stroke-dasharray:5.55,2.4;stroke-dashoffset:0;stroke-opacity:0.8;stroke-width:1.5;"/>
   </g>
   <g id="patch_10">
    <path d="M 36 525.24 
L 538.2 525.24 
" style="fill:none;stroke:#000000;stroke-linecap:square;stroke-linejoin:miter;stroke-width:0.8;"/>
   </g>
  </g>
 </g>
 <defs>
  <clipPath id="pbb5c8615b1">
   <rect height="366.93" width="502.2" x="36" y="36"/>
  </clipPath>
  <clipPath id="p3e013dd748">
   <rect height="122.31" width="502.2" x="36" y="402.93"/>
  </clipPath>
 </defs>
</svg>
