<?xml version="1.0" encoding="utf-8" standalone="no"?>
<!DOCTYPE svg PUBLIC "-//W3C//DTD SVG 1.1//EN"
  "http://www.w3.org/Graphics/SVG/1.1/DTD/svg11.dtd">
<!-- Created with matplotlib (https://matplotlib.org/) -->
<svg height="581.789375pt" version="1.1" viewBox="0 0 574.2 581.789375" width="574.2pt" xmlns="http://www.w3.org/2000/svg" xmlns:xlink="http://www.w3.org/1999/xlink">
 <defs>
  <style type="text/css">
*{stroke-linecap:butt;stroke-linejoin:round;}
  </style>
 </defs>
 <g id="figure_1">
  <g id="patch_1">
   <path d="M 0 581.789375 
L 574.2 581.789375 
L 574.2 0 
L 0 0 
z
" style="fill:none;"/>
  </g>
  <g id="axes_1">
   <g id="patch_2">
    <path d="M 36 402.93 
L 538.2 402.93 
L 538.2 36 
L 36 36 
z
" style="fill:none;"/>
   </g>
   <g id="PolyCollection_1">
    <defs>
     <path d="M 124.849982 -195.538011 
L 124.849982 -195.650004 
L 128.794656 -195.692234 
L 132.73933 -195.749007 
L 136.684004 -195.8248 
L 140.628679 -195.925281 
L 144.573353 -196.057565 
L 148.518027 -196.230497 
L 152.462701 -196.454982 
L 156.407375 -196.744335 
L 160.35205 -197.114666 
L 164.296724 -197.585273 
L 168.241398 -198.179047 
L 172.186072 -198.922859 
L 176.130746 -199.847921 
L 180.075421 -200.990079 
L 184.020095 -202.390029 
L 187.964769 -204.093399 
L 191.909443 -206.150691 
L 195.854117 -208.617009 
L 199.798792 -211.551575 
L 203.743466 -215.016962 
L 207.68814 -219.078053 
L 211.632814 -223.800667 
L 215.577488 -229.249878 
L 219.522162 -235.488004 
L 223.466837 -242.572312 
L 227.411511 -250.552459 
L 231.356185 -259.467747 
L 235.300859 -269.344261 
L 239.245533 -280.192004 
L 243.190208 -292.002137 
L 247.134882 -304.744465 
L 251.079556 -318.365297 
L 255.02423 -332.785841 
L 258.968904 -347.901251 
L 262.913579 -363.580456 
L 266.858253 -379.666871 
L 270.802927 -395.980052 
L 274.747601 -412.31833 
L 278.692275 -428.4624 
L 282.63695 -444.179822 
L 286.581624 -459.230303 
L 290.526298 -473.371627 
L 294.470972 -486.366018 
L 298.415646 -497.986726 
L 302.360321 -508.02457 
L 306.304995 -516.294181 
L 310.249669 -522.639693 
L 314.194343 -526.939623 
L 318.139017 -529.110739 
L 322.083692 -529.110739 
L 326.028366 -526.939623 
L 329.97304 -522.639693 
L 333.917714 -516.294181 
L 337.862388 -508.02457 
L 341.807063 -497.986726 
L 345.751737 -486.366018 
L 349.696411 -473.371627 
L 353.641085 -459.230303 
L 357.585759 -444.179822 
L 361.530434 -428.4624 
L 365.475108 -412.31833 
L 369.419782 -395.980052 
L 373.364456 -379.666871 
L 377.30913 -363.580456 
L 381.253805 -347.901251 
L 385.198479 -332.785841 
L 389.143153 -318.365297 
L 393.087827 -304.744465 
L 397.032501 -292.002137 
L 400.977176 -280.192004 
L 404.92185 -269.344261 
L 408.866524 -259.467747 
L 412.811198 -250.552459 
L 416.755872 -242.572312 
L 420.700547 -235.488004 
L 424.645221 -229.249878 
L 428.589895 -223.800667 
L 432.534569 -219.078053 
L 436.479243 -215.016962 
L 440.423918 -211.551575 
L 444.368592 -208.617009 
L 448.313266 -206.150691 
L 452.25794 -204.093399 
L 456.202614 -202.390029 
L 460.147289 -200.990079 
L 464.091963 -199.847921 
L 468.036637 -198.922859 
L 471.981311 -198.179047 
L 475.925985 -197.585273 
L 479.870659 -197.114666 
L 483.815334 -196.744335 
L 487.760008 -196.454982 
L 491.704682 -196.230497 
L 495.649356 -196.057565 
L 499.59403 -195.925281 
L 503.538705 -195.8248 
L 507.483379 -195.749007 
L 511.428053 -195.692234 
L 515.372727 -195.650004 
L 515.372727 -195.538011 
L 515.372727 -195.538011 
L 511.428053 -195.538011 
L 507.483379 -195.538011 
L 503.538705 -195.538011 
L 499.59403 -195.538011 
L 495.649356 -195.538011 
L 491.704682 -195.538011 
L 487.760008 -195.538011 
L 483.815334 -195.538011 
L 479.870659 -195.538011 
L 475.925985 -195.538011 
L 471.981311 -195.538011 
L 468.036637 -195.538011 
L 464.091963 -195.538011 
L 460.147289 -195.538011 
L 456.202614 -195.538011 
L 452.25794 -195.538011 
L 448.313266 -195.538011 
L 444.368592 -195.538011 
L 440.423918 -195.538011 
L 436.479243 -195.538011 
L 432.534569 -195.538011 
L 428.589895 -195.538011 
L 424.645221 -195.538011 
L 420.700547 -195.538011 
L 416.755872 -195.538011 
L 412.811198 -195.538011 
L 408.866524 -195.538011 
L 404.92185 -195.538011 
L 400.977176 -195.538011 
L 397.032501 -195.538011 
L 393.087827 -195.538011 
L 389.143153 -195.538011 
L 385.198479 -195.538011 
L 381.253805 -195.538011 
L 377.30913 -195.538011 
L 373.364456 -195.538011 
L 369.419782 -195.538011 
L 365.475108 -195.538011 
L 361.530434 -195.538011 
L 357.585759 -195.538011 
L 353.641085 -195.538011 
L 349.696411 -195.538011 
L 345.751737 -195.538011 
L 341.807063 -195.538011 
L 337.862388 -195.538011 
L 333.917714 -195.538011 
L 329.97304 -195.538011 
L 326.028366 -195.538011 
L 322.083692 -195.538011 
L 318.139017 -195.538011 
L 314.194343 -195.538011 
L 310.249669 -195.538011 
L 306.304995 -195.538011 
L 302.360321 -195.538011 
L 298.415646 -195.538011 
L 294.470972 -195.538011 
L 290.526298 -195.538011 
L 286.581624 -195.538011 
L 282.63695 -195.538011 
L 278.692275 -195.538011 
L 274.747601 -195.538011 
L 270.802927 -195.538011 
L 266.858253 -195.538011 
L 262.913579 -195.538011 
L 258.968904 -195.538011 
L 255.02423 -195.538011 
L 251.079556 -195.538011 
L 247.134882 -195.538011 
L 243.190208 -195.538011 
L 239.245533 -195.538011 
L 235.300859 -195.538011 
L 231.356185 -195.538011 
L 227.411511 -195.538011 
L 223.466837 -195.538011 
L 219.522162 -195.538011 
L 215.577488 -195.538011 
L 211.632814 -195.538011 
L 207.68814 -195.538011 
L 203.743466 -195.538011 
L 199.798792 -195.538011 
L 195.854117 -195.538011 
L 191.909443 -195.538011 
L 187.964769 -195.538011 
L 184.020095 -195.538011 
L 180.075421 -195.538011 
L 176.130746 -195.538011 
L 172.186072 -195.538011 
L 168.241398 -195.538011 
L 164.296724 -195.538011 
L 160.35205 -195.538011 
L 156.407375 -195.538011 
L 152.462701 -195.538011 
L 148.518027 -195.538011 
L 144.573353 -195.538011 
L 140.628679 -195.538011 
L 136.684004 -195.538011 
L 132.73933 -195.538011 
L 128.794656 -195.538011 
L 124.849982 -195.538011 
z
" id="mb8339e3cb9" style="stroke:#ff6384;stroke-opacity:0.5;"/>
    </defs>
    <g clip-path="url(#p8a42eeadfa)">
     <use style="fill:#ff6384;fill-opacity:0.5;stroke:#ff6384;stroke-opacity:0.5;" x="0" xlink:href="#mb8339e3cb9" y="581.789375"/>
    </g>
   </g>
   <g id="PolyCollection_2">
    <defs>
     <path d="M 58.827273 -195.538011 
L 58.827273 -195.642925 
L 63.038124 -195.682486 
L 67.248975 -195.735669 
L 71.459826 -195.806671 
L 75.670676 -195.900801 
L 79.881527 -196.024723 
L 84.092378 -196.186723 
L 88.303229 -196.397018 
L 92.51408 -196.668081 
L 96.724931 -197.015002 
L 100.935782 -197.455861 
L 105.146633 -198.012101 
L 109.357484 -198.708896 
L 113.568335 -199.575483 
L 117.779186 -200.645443 
L 121.990037 -201.956898 
L 126.200888 -203.552595 
L 130.411739 -205.479841 
L 134.62259 -207.790258 
L 138.833441 -210.539324 
L 143.044291 -213.785657 
L 147.255142 -217.590037 
L 151.465993 -222.014125 
L 155.676844 -227.11888 
L 159.887695 -232.962681 
L 164.098546 -239.599175 
L 168.309397 -247.07488 
L 172.520248 -255.426614 
L 176.731099 -264.678812 
L 180.94195 -274.840847 
L 185.152801 -285.904437 
L 189.363652 -297.841296 
L 193.574503 -310.601126 
L 197.785354 -324.110117 
L 201.996205 -338.27005 
L 206.207056 -352.958139 
L 210.417907 -368.027698 
L 214.628757 -383.309689 
L 218.839608 -398.61519 
L 223.050459 -413.73876 
L 227.26131 -428.46265 
L 231.472161 -442.561759 
L 235.683012 -455.80918 
L 239.893863 -467.982168 
L 244.104714 -478.868307 
L 248.315565 -488.271637 
L 252.526416 -496.018509 
L 256.737267 -501.962908 
L 260.948118 -505.99103 
L 265.158969 -508.024905 
L 269.36982 -508.024905 
L 273.580671 -505.99103 
L 277.791522 -501.962908 
L 282.002372 -496.018509 
L 286.213223 -488.271637 
L 290.424074 -478.868307 
L 294.634925 -467.982168 
L 298.845776 -455.80918 
L 303.056627 -442.561759 
L 307.267478 -428.46265 
L 311.478329 -413.73876 
L 315.68918 -398.61519 
L 319.900031 -383.309689 
L 324.110882 -368.027698 
L 328.321733 -352.958139 
L 332.532584 -338.27005 
L 336.743435 -324.110117 
L 340.954286 -310.601126 
L 345.165137 -297.841296 
L 349.375987 -285.904437 
L 353.586838 -274.840847 
L 357.797689 -264.678812 
L 362.00854 -255.426614 
L 366.219391 -247.07488 
L 370.430242 -239.599175 
L 374.641093 -232.962681 
L 378.851944 -227.11888 
L 383.062795 -222.014125 
L 387.273646 -217.590037 
L 391.484497 -213.785657 
L 395.695348 -210.539324 
L 399.906199 -207.790258 
L 404.11705 -205.479841 
L 408.327901 -203.552595 
L 412.538752 -201.956898 
L 416.749602 -200.645443 
L 420.960453 -199.575483 
L 425.171304 -198.708896 
L 429.382155 -198.012101 
L 433.593006 -197.455861 
L 437.803857 -197.015002 
L 442.014708 -196.668081 
L 446.225559 -196.397018 
L 450.43641 -196.186723 
L 454.647261 -196.024723 
L 458.858112 -195.900801 
L 463.068963 -195.806671 
L 467.279814 -195.735669 
L 471.490665 -195.682486 
L 475.701516 -195.642925 
L 475.701516 -195.538011 
L 475.701516 -195.538011 
L 471.490665 -195.538011 
L 467.279814 -195.538011 
L 463.068963 -195.538011 
L 458.858112 -195.538011 
L 454.647261 -195.538011 
L 450.43641 -195.538011 
L 446.225559 -195.538011 
L 442.014708 -195.538011 
L 437.803857 -195.538011 
L 433.593006 -195.538011 
L 429.382155 -195.538011 
L 425.171304 -195.538011 
L 420.960453 -195.538011 
L 416.749602 -195.538011 
L 412.538752 -195.538011 
L 408.327901 -195.538011 
L 404.11705 -195.538011 
L 399.906199 -195.538011 
L 395.695348 -195.538011 
L 391.484497 -195.538011 
L 387.273646 -195.538011 
L 383.062795 -195.538011 
L 378.851944 -195.538011 
L 374.641093 -195.538011 
L 370.430242 -195.538011 
L 366.219391 -195.538011 
L 362.00854 -195.538011 
L 357.797689 -195.538011 
L 353.586838 -195.538011 
L 349.375987 -195.538011 
L 345.165137 -195.538011 
L 340.954286 -195.538011 
L 336.743435 -195.538011 
L 332.532584 -195.538011 
L 328.321733 -195.538011 
L 324.110882 -195.538011 
L 319.900031 -195.538011 
L 315.68918 -195.538011 
L 311.478329 -195.538011 
L 307.267478 -195.538011 
L 303.056627 -195.538011 
L 298.845776 -195.538011 
L 294.634925 -195.538011 
L 290.424074 -195.538011 
L 286.213223 -195.538011 
L 282.002372 -195.538011 
L 277.791522 -195.538011 
L 273.580671 -195.538011 
L 269.36982 -195.538011 
L 265.158969 -195.538011 
L 260.948118 -195.538011 
L 256.737267 -195.538011 
L 252.526416 -195.538011 
L 248.315565 -195.538011 
L 244.104714 -195.538011 
L 239.893863 -195.538011 
L 235.683012 -195.538011 
L 231.472161 -195.538011 
L 227.26131 -195.538011 
L 223.050459 -195.538011 
L 218.839608 -195.538011 
L 214.628757 -195.538011 
L 210.417907 -195.538011 
L 206.207056 -195.538011 
L 201.996205 -195.538011 
L 197.785354 -195.538011 
L 193.574503 -195.538011 
L 189.363652 -195.538011 
L 185.152801 -195.538011 
L 180.94195 -195.538011 
L 176.731099 -195.538011 
L 172.520248 -195.538011 
L 168.309397 -195.538011 
L 164.098546 -195.538011 
L 159.887695 -195.538011 
L 155.676844 -195.538011 
L 151.465993 -195.538011 
L 147.255142 -195.538011 
L 143.044291 -195.538011 
L 138.833441 -195.538011 
L 134.62259 -195.538011 
L 130.411739 -195.538011 
L 126.200888 -195.538011 
L 121.990037 -195.538011 
L 117.779186 -195.538011 
L 113.568335 -195.538011 
L 109.357484 -195.538011 
L 105.146633 -195.538011 
L 100.935782 -195.538011 
L 96.724931 -195.538011 
L 92.51408 -195.538011 
L 88.303229 -195.538011 
L 84.092378 -195.538011 
L 79.881527 -195.538011 
L 75.670676 -195.538011 
L 71.459826 -195.538011 
L 67.248975 -195.538011 
L 63.038124 -195.538011 
L 58.827273 -195.538011 
z
" id="ma67b55ffff" style="stroke:#36a2eb;stroke-opacity:0.5;"/>
    </defs>
    <g clip-path="url(#p8a42eeadfa)">
     <use style="fill:#36a2eb;fill-opacity:0.5;stroke:#36a2eb;stroke-opacity:0.5;" x="0" xlink:href="#ma67b55ffff" y="581.789375"/>
    </g>
   </g>
   <g id="line2d_1">
    <path clip-path="url(#p8a42eeadfa)" d="M 124.849982 386.139371 
L 128.794656 386.097141 
L 132.73933 386.040368 
L 136.684004 385.964575 
L 140.628679 385.864094 
L 144.573353 385.73181 
L 148.518027 385.558878 
L 152.462701 385.334393 
L 156.407375 385.04504 
L 160.35205 384.674709 
L 164.296724 384.204102 
L 168.241398 383.610328 
L 172.186072 382.866516 
L 176.130746 381.941454 
L 180.075421 380.799296 
L 184.020095 379.399346 
L 187.964769 377.695976 
L 191.909443 375.638684 
L 195.854117 373.172366 
L 199.798792 370.2378 
L 203.743466 366.772413 
L 207.68814 362.711322 
L 211.632814 357.988708 
L 215.577488 352.539497 
L 219.522162 346.301371 
L 223.466837 339.217063 
L 227.411511 331.236916 
L 231.356185 322.321628 
L 235.300859 312.445114 
L 239.245533 301.597371 
L 243.190208 289.787238 
L 247.134882 277.04491 
L 251.079556 263.424078 
L 255.02423 249.003534 
L 258.968904 233.888124 
L 262.913579 218.208919 
L 266.858253 202.122504 
L 270.802927 185.809323 
L 274.747601 169.471045 
L 278.692275 153.326975 
L 282.63695 137.609553 
L 286.581624 122.559072 
L 290.526298 108.417748 
L 294.470972 95.423357 
L 298.415646 83.802649 
L 302.360321 73.764805 
L 306.304995 65.495194 
L 310.249669 59.149682 
L 314.194343 54.849752 
L 318.139017 52.678636 
L 322.083692 52.678636 
L 326.028366 54.849752 
L 329.97304 59.149682 
L 333.917714 65.495194 
L 337.862388 73.764805 
L 341.807063 83.802649 
L 345.751737 95.423357 
L 349.696411 108.417748 
L 353.641085 122.559072 
L 357.585759 137.609553 
L 361.530434 153.326975 
L 365.475108 169.471045 
L 369.419782 185.809323 
L 373.364456 202.122504 
L 377.30913 218.208919 
L 381.253805 233.888124 
L 385.198479 249.003534 
L 389.143153 263.424078 
L 393.087827 277.04491 
L 397.032501 289.787238 
L 400.977176 301.597371 
L 404.92185 312.445114 
L 408.866524 322.321628 
L 412.811198 331.236916 
L 416.755872 339.217063 
L 420.700547 346.301371 
L 424.645221 352.539497 
L 428.589895 357.988708 
L 432.534569 362.711322 
L 436.479243 366.772413 
L 440.423918 370.2378 
L 444.368592 373.172366 
L 448.313266 375.638684 
L 452.25794 377.695976 
L 456.202614 379.399346 
L 460.147289 380.799296 
L 464.091963 381.941454 
L 468.036637 382.866516 
L 471.981311 383.610328 
L 475.925985 384.204102 
L 479.870659 384.674709 
L 483.815334 385.04504 
L 487.760008 385.334393 
L 491.704682 385.558878 
L 495.649356 385.73181 
L 499.59403 385.864094 
L 503.538705 385.964575 
L 507.483379 386.040368 
L 511.428053 386.097141 
L 515.372727 386.139371 
" style="fill:none;stroke:#ff6384;stroke-linecap:square;"/>
   </g>
   <g id="line2d_2">
    <path clip-path="url(#p8a42eeadfa)" d="M 58.827273 386.14645 
L 63.038124 386.106889 
L 67.248975 386.053706 
L 71.459826 385.982704 
L 75.670676 385.888574 
L 79.881527 385.764652 
L 84.092378 385.602652 
L 88.303229 385.392357 
L 92.51408 385.121294 
L 96.724931 384.774373 
L 100.935782 384.333514 
L 105.146633 383.777274 
L 109.357484 383.080479 
L 113.568335 382.213892 
L 117.779186 381.143932 
L 121.990037 379.832477 
L 126.200888 378.23678 
L 130.411739 376.309534 
L 134.62259 373.999117 
L 138.833441 371.250051 
L 143.044291 368.003718 
L 147.255142 364.199338 
L 151.465993 359.77525 
L 155.676844 354.670495 
L 159.887695 348.826694 
L 164.098546 342.1902 
L 168.309397 334.714495 
L 172.520248 326.362761 
L 176.731099 317.110563 
L 180.94195 306.948528 
L 185.152801 295.884938 
L 189.363652 283.948079 
L 193.574503 271.188249 
L 197.785354 257.679258 
L 201.996205 243.519325 
L 206.207056 228.831236 
L 210.417907 213.761677 
L 214.628757 198.479686 
L 218.839608 183.174185 
L 223.050459 168.050615 
L 227.26131 153.326725 
L 231.472161 139.227616 
L 235.683012 125.980195 
L 239.893863 113.807207 
L 244.104714 102.921068 
L 248.315565 93.517738 
L 252.526416 85.770866 
L 256.737267 79.826467 
L 260.948118 75.798345 
L 265.158969 73.76447 
L 269.36982 73.76447 
L 273.580671 75.798345 
L 277.791522 79.826467 
L 282.002372 85.770866 
L 286.213223 93.517738 
L 290.424074 102.921068 
L 294.634925 113.807207 
L 298.845776 125.980195 
L 303.056627 139.227616 
L 307.267478 153.326725 
L 311.478329 168.050615 
L 315.68918 183.174185 
L 319.900031 198.479686 
L 324.110882 213.761677 
L 328.321733 228.831236 
L 332.532584 243.519325 
L 336.743435 257.679258 
L 340.954286 271.188249 
L 345.165137 283.948079 
L 349.375987 295.884938 
L 353.586838 306.948528 
L 357.797689 317.110563 
L 362.00854 326.362761 
L 366.219391 334.714495 
L 370.430242 342.1902 
L 374.641093 348.826694 
L 378.851944 354.670495 
L 383.062795 359.77525 
L 387.273646 364.199338 
L 391.484497 368.003718 
L 395.695348 371.250051 
L 399.906199 373.999117 
L 404.11705 376.309534 
L 408.327901 378.23678 
L 412.538752 379.832477 
L 416.749602 381.143932 
L 420.960453 382.213892 
L 425.171304 383.080479 
L 429.382155 383.777274 
L 433.593006 384.333514 
L 437.803857 384.774373 
L 442.014708 385.121294 
L 446.225559 385.392357 
L 450.43641 385.602652 
L 454.647261 385.764652 
L 458.858112 385.888574 
L 463.068963 385.982704 
L 467.279814 386.053706 
L 471.490665 386.106889 
L 475.701516 386.14645 
" style="fill:none;stroke:#36a2eb;stroke-linecap:square;"/>
   </g>
   <g id="patch_3">
    <path d="M 36 402.93 
L 538.2 402.93 
" style="fill:none;stroke:#000000;stroke-linecap:square;stroke-linejoin:miter;stroke-width:0.8;"/>
   </g>
   <g id="legend_1">
    <g id="patch_4">
     <path d="M 414.919063 88.29875 
L 528.4 88.29875 
Q 531.2 88.29875 531.2 85.49875 
L 531.2 45.8 
Q 531.2 43 528.4 43 
L 414.919063 43 
Q 412.119063 43 412.119063 45.8 
L 412.119063 85.49875 
Q 412.119063 88.29875 414.919063 88.29875 
z
" style="fill:#ffffff;opacity:0.8;stroke:#cccccc;stroke-linejoin:miter;"/>
    </g>
    <g id="patch_5">
     <path d="M 417.719063 59.237813 
L 445.719063 59.237813 
L 445.719063 49.437813 
L 417.719063 49.437813 
z
" style="fill:#ff6384;opacity:0.5;stroke:#ff6384;stroke-linejoin:miter;"/>
    </g>
    <g id="text_1">
     <!-- sidemenu -->
     <defs>
      <path d="M 44.28125 53.078125 
L 44.28125 44.578125 
Q 40.484375 46.53125 36.375 47.5 
Q 32.28125 48.484375 27.875 48.484375 
Q 21.1875 48.484375 17.84375 46.4375 
Q 14.5 44.390625 14.5 40.28125 
Q 14.5 37.15625 16.890625 35.375 
Q 19.28125 33.59375 26.515625 31.984375 
L 29.59375 31.296875 
Q 39.15625 29.25 43.1875 25.515625 
Q 47.21875 21.78125 47.21875 15.09375 
Q 47.21875 7.46875 41.1875 3.015625 
Q 35.15625 -1.421875 24.609375 -1.421875 
Q 20.21875 -1.421875 15.453125 -0.5625 
Q 10.6875 0.296875 5.421875 2 
L 5.421875 11.28125 
Q 10.40625 8.6875 15.234375 7.390625 
Q 20.0625 6.109375 24.8125 6.109375 
Q 31.15625 6.109375 34.5625 8.28125 
Q 37.984375 10.453125 37.984375 14.40625 
Q 37.984375 18.0625 35.515625 20.015625 
Q 33.0625 21.96875 24.703125 23.78125 
L 21.578125 24.515625 
Q 13.234375 26.265625 9.515625 29.90625 
Q 5.8125 33.546875 5.8125 39.890625 
Q 5.8125 47.609375 11.28125 51.796875 
Q 16.75 56 26.8125 56 
Q 31.78125 56 36.171875 55.265625 
Q 40.578125 54.546875 44.28125 53.078125 
z
" id="DejaVuSans-115"/>
      <path d="M 9.421875 54.6875 
L 18.40625 54.6875 
L 18.40625 0 
L 9.421875 0 
z
M 9.421875 75.984375 
L 18.40625 75.984375 
L 18.40625 64.59375 
L 9.421875 64.59375 
z
" id="DejaVuSans-105"/>
      <path d="M 45.40625 46.390625 
L 45.40625 75.984375 
L 54.390625 75.984375 
L 54.390625 0 
L 45.40625 0 
L 45.40625 8.203125 
Q 42.578125 3.328125 38.25 0.953125 
Q 33.9375 -1.421875 27.875 -1.421875 
Q 17.96875 -1.421875 11.734375 6.484375 
Q 5.515625 14.40625 5.515625 27.296875 
Q 5.515625 40.1875 11.734375 48.09375 
Q 17.96875 56 27.875 56 
Q 33.9375 56 38.25 53.625 
Q 42.578125 51.265625 45.40625 46.390625 
z
M 14.796875 27.296875 
Q 14.796875 17.390625 18.875 11.75 
Q 22.953125 6.109375 30.078125 6.109375 
Q 37.203125 6.109375 41.296875 11.75 
Q 45.40625 17.390625 45.40625 27.296875 
Q 45.40625 37.203125 41.296875 42.84375 
Q 37.203125 48.484375 30.078125 48.484375 
Q 22.953125 48.484375 18.875 42.84375 
Q 14.796875 37.203125 14.796875 27.296875 
z
" id="DejaVuSans-100"/>
      <path d="M 56.203125 29.59375 
L 56.203125 25.203125 
L 14.890625 25.203125 
Q 15.484375 15.921875 20.484375 11.0625 
Q 25.484375 6.203125 34.421875 6.203125 
Q 39.59375 6.203125 44.453125 7.46875 
Q 49.3125 8.734375 54.109375 11.28125 
L 54.109375 2.78125 
Q 49.265625 0.734375 44.1875 -0.34375 
Q 39.109375 -1.421875 33.890625 -1.421875 
Q 20.796875 -1.421875 13.15625 6.1875 
Q 5.515625 13.8125 5.515625 26.8125 
Q 5.515625 40.234375 12.765625 48.109375 
Q 20.015625 56 32.328125 56 
Q 43.359375 56 49.78125 48.890625 
Q 56.203125 41.796875 56.203125 29.59375 
z
M 47.21875 32.234375 
Q 47.125 39.59375 43.09375 43.984375 
Q 39.0625 48.390625 32.421875 48.390625 
Q 24.90625 48.390625 20.390625 44.140625 
Q 15.875 39.890625 15.1875 32.171875 
z
" id="DejaVuSans-101"/>
      <path d="M 52 44.1875 
Q 55.375 50.25 60.0625 53.125 
Q 64.75 56 71.09375 56 
Q 79.640625 56 84.28125 50.015625 
Q 88.921875 44.046875 88.921875 33.015625 
L 88.921875 0 
L 79.890625 0 
L 79.890625 32.71875 
Q 79.890625 40.578125 77.09375 44.375 
Q 74.3125 48.1875 68.609375 48.1875 
Q 61.625 48.1875 57.5625 43.546875 
Q 53.515625 38.921875 53.515625 30.90625 
L 53.515625 0 
L 44.484375 0 
L 44.484375 32.71875 
Q 44.484375 40.625 41.703125 44.40625 
Q 38.921875 48.1875 33.109375 48.1875 
Q 26.21875 48.1875 22.15625 43.53125 
Q 18.109375 38.875 18.109375 30.90625 
L 18.109375 0 
L 9.078125 0 
L 9.078125 54.6875 
L 18.109375 54.6875 
L 18.109375 46.1875 
Q 21.1875 51.21875 25.484375 53.609375 
Q 29.78125 56 35.6875 56 
Q 41.65625 56 45.828125 52.96875 
Q 50 49.953125 52 44.1875 
z
" id="DejaVuSans-109"/>
      <path d="M 54.890625 33.015625 
L 54.890625 0 
L 45.90625 0 
L 45.90625 32.71875 
Q 45.90625 40.484375 42.875 44.328125 
Q 39.84375 48.1875 33.796875 48.1875 
Q 26.515625 48.1875 22.3125 43.546875 
Q 18.109375 38.921875 18.109375 30.90625 
L 18.109375 0 
L 9.078125 0 
L 9.078125 54.6875 
L 18.109375 54.6875 
L 18.109375 46.1875 
Q 21.34375 51.125 25.703125 53.5625 
Q 30.078125 56 35.796875 56 
Q 45.21875 56 50.046875 50.171875 
Q 54.890625 44.34375 54.890625 33.015625 
z
" id="DejaVuSans-110"/>
      <path d="M 8.5 21.578125 
L 8.5 54.6875 
L 17.484375 54.6875 
L 17.484375 21.921875 
Q 17.484375 14.15625 20.5 10.265625 
Q 23.53125 6.390625 29.59375 6.390625 
Q 36.859375 6.390625 41.078125 11.03125 
Q 45.3125 15.671875 45.3125 23.6875 
L 45.3125 54.6875 
L 54.296875 54.6875 
L 54.296875 0 
L 45.3125 0 
L 45.3125 8.40625 
Q 42.046875 3.421875 37.71875 1 
Q 33.40625 -1.421875 27.6875 -1.421875 
Q 18.265625 -1.421875 13.375 4.4375 
Q 8.5 10.296875 8.5 21.578125 
z
M 31.109375 56 
z
" id="DejaVuSans-117"/>
     </defs>
     <g transform="translate(456.919063 59.237813)scale(0.14 -0.14)">
      <use xlink:href="#DejaVuSans-115"/>
      <use x="52.099609" xlink:href="#DejaVuSans-105"/>
      <use x="79.882812" xlink:href="#DejaVuSans-100"/>
      <use x="143.359375" xlink:href="#DejaVuSans-101"/>
      <use x="204.882812" xlink:href="#DejaVuSans-109"/>
      <use x="302.294922" xlink:href="#DejaVuSans-101"/>
      <use x="363.818359" xlink:href="#DejaVuSans-110"/>
      <use x="427.197266" xlink:href="#DejaVuSans-117"/>
     </g>
    </g>
    <g id="patch_6">
     <path d="M 417.719063 79.787188 
L 445.719063 79.787188 
L 445.719063 69.987188 
L 417.719063 69.987188 
z
" style="fill:#36a2eb;opacity:0.5;stroke:#36a2eb;stroke-linejoin:miter;"/>
    </g>
    <g id="text_2">
     <!-- tabbar -->
     <defs>
      <path d="M 18.3125 70.21875 
L 18.3125 54.6875 
L 36.8125 54.6875 
L 36.8125 47.703125 
L 18.3125 47.703125 
L 18.3125 18.015625 
Q 18.3125 11.328125 20.140625 9.421875 
Q 21.96875 7.515625 27.59375 7.515625 
L 36.8125 7.515625 
L 36.8125 0 
L 27.59375 0 
Q 17.1875 0 13.234375 3.875 
Q 9.28125 7.765625 9.28125 18.015625 
L 9.28125 47.703125 
L 2.6875 47.703125 
L 2.6875 54.6875 
L 9.28125 54.6875 
L 9.28125 70.21875 
z
" id="DejaVuSans-116"/>
      <path d="M 34.28125 27.484375 
Q 23.390625 27.484375 19.1875 25 
Q 14.984375 22.515625 14.984375 16.5 
Q 14.984375 11.71875 18.140625 8.90625 
Q 21.296875 6.109375 26.703125 6.109375 
Q 34.1875 6.109375 38.703125 11.40625 
Q 43.21875 16.703125 43.21875 25.484375 
L 43.21875 27.484375 
z
M 52.203125 31.203125 
L 52.203125 0 
L 43.21875 0 
L 43.21875 8.296875 
Q 40.140625 3.328125 35.546875 0.953125 
Q 30.953125 -1.421875 24.3125 -1.421875 
Q 15.921875 -1.421875 10.953125 3.296875 
Q 6 8.015625 6 15.921875 
Q 6 25.140625 12.171875 29.828125 
Q 18.359375 34.515625 30.609375 34.515625 
L 43.21875 34.515625 
L 43.21875 35.40625 
Q 43.21875 41.609375 39.140625 45 
Q 35.0625 48.390625 27.6875 48.390625 
Q 23 48.390625 18.546875 47.265625 
Q 14.109375 46.140625 10.015625 43.890625 
L 10.015625 52.203125 
Q 14.9375 54.109375 19.578125 55.046875 
Q 24.21875 56 28.609375 56 
Q 40.484375 56 46.34375 49.84375 
Q 52.203125 43.703125 52.203125 31.203125 
z
" id="DejaVuSans-97"/>
      <path d="M 48.6875 27.296875 
Q 48.6875 37.203125 44.609375 42.84375 
Q 40.53125 48.484375 33.40625 48.484375 
Q 26.265625 48.484375 22.1875 42.84375 
Q 18.109375 37.203125 18.109375 27.296875 
Q 18.109375 17.390625 22.1875 11.75 
Q 26.265625 6.109375 33.40625 6.109375 
Q 40.53125 6.109375 44.609375 11.75 
Q 48.6875 17.390625 48.6875 27.296875 
z
M 18.109375 46.390625 
Q 20.953125 51.265625 25.265625 53.625 
Q 29.59375 56 35.59375 56 
Q 45.5625 56 51.78125 48.09375 
Q 58.015625 40.1875 58.015625 27.296875 
Q 58.015625 14.40625 51.78125 6.484375 
Q 45.5625 -1.421875 35.59375 -1.421875 
Q 29.59375 -1.421875 25.265625 0.953125 
Q 20.953125 3.328125 18.109375 8.203125 
L 18.109375 0 
L 9.078125 0 
L 9.078125 75.984375 
L 18.109375 75.984375 
z
" id="DejaVuSans-98"/>
      <path d="M 41.109375 46.296875 
Q 39.59375 47.171875 37.8125 47.578125 
Q 36.03125 48 33.890625 48 
Q 26.265625 48 22.1875 43.046875 
Q 18.109375 38.09375 18.109375 28.8125 
L 18.109375 0 
L 9.078125 0 
L 9.078125 54.6875 
L 18.109375 54.6875 
L 18.109375 46.1875 
Q 20.953125 51.171875 25.484375 53.578125 
Q 30.03125 56 36.53125 56 
Q 37.453125 56 38.578125 55.875 
Q 39.703125 55.765625 41.0625 55.515625 
z
" id="DejaVuSans-114"/>
     </defs>
     <g transform="translate(456.919063 79.787188)scale(0.14 -0.14)">
      <use xlink:href="#DejaVuSans-116"/>
      <use x="39.208984" xlink:href="#DejaVuSans-97"/>
      <use x="100.488281" xlink:href="#DejaVuSans-98"/>
      <use x="163.964844" xlink:href="#DejaVuSans-98"/>
      <use x="227.441406" xlink:href="#DejaVuSans-97"/>
      <use x="288.720703" xlink:href="#DejaVuSans-114"/>
     </g>
    </g>
   </g>
  </g>
  <g id="axes_2">
   <g id="patch_7">
    <path d="M 36 525.24 
L 538.2 525.24 
L 538.2 402.93 
L 36 402.93 
z
" style="fill:none;"/>
   </g>
   <g id="patch_8">
    <path clip-path="url(#p567262684a)" d="M 224.433282 519.680455 
L 415.789427 519.680455 
L 415.789427 482.616818 
L 224.433282 482.616818 
z
" style="fill:#ff6384;opacity:0.5;"/>
   </g>
   <g id="patch_9">
    <path clip-path="url(#p567262684a)" d="M 165.130205 445.553182 
L 369.398584 445.553182 
L 369.398584 408.489545 
L 165.130205 408.489545 
z
" style="fill:#36a2eb;opacity:0.5;"/>
   </g>
   <g id="matplotlib.axis_1">
    <g id="xtick_1">
     <g id="line2d_3">
      <defs>
       <path d="M 0 0 
L 0 3.5 
" id="mea0008838a" style="stroke:#000000;stroke-width:0.8;"/>
      </defs>
      <g>
       <use style="stroke:#000000;stroke-width:0.8;" x="62.093842" xlink:href="#mea0008838a" y="525.24"/>
      </g>
     </g>
     <g id="text_3">
      <!-- 2.0 -->
      <defs>
       <path d="M 19.1875 8.296875 
L 53.609375 8.296875 
L 53.609375 0 
L 7.328125 0 
L 7.328125 8.296875 
Q 12.9375 14.109375 22.625 23.890625 
Q 32.328125 33.6875 34.8125 36.53125 
Q 39.546875 41.84375 41.421875 45.53125 
Q 43.3125 49.21875 43.3125 52.78125 
Q 43.3125 58.59375 39.234375 62.25 
Q 35.15625 65.921875 28.609375 65.921875 
Q 23.96875 65.921875 18.8125 64.3125 
Q 13.671875 62.703125 7.8125 59.421875 
L 7.8125 69.390625 
Q 13.765625 71.78125 18.9375 73 
Q 24.125 74.21875 28.421875 74.21875 
Q 39.75 74.21875 46.484375 68.546875 
Q 53.21875 62.890625 53.21875 53.421875 
Q 53.21875 48.921875 51.53125 44.890625 
Q 49.859375 40.875 45.40625 35.40625 
Q 44.1875 33.984375 37.640625 27.21875 
Q 31.109375 20.453125 19.1875 8.296875 
z
" id="DejaVuSans-50"/>
       <path d="M 10.6875 12.40625 
L 21 12.40625 
L 21 0 
L 10.6875 0 
z
" id="DejaVuSans-46"/>
       <path d="M 31.78125 66.40625 
Q 24.171875 66.40625 20.328125 58.90625 
Q 16.5 51.421875 16.5 36.375 
Q 16.5 21.390625 20.328125 13.890625 
Q 24.171875 6.390625 31.78125 6.390625 
Q 39.453125 6.390625 43.28125 13.890625 
Q 47.125 21.390625 47.125 36.375 
Q 47.125 51.421875 43.28125 58.90625 
Q 39.453125 66.40625 31.78125 66.40625 
z
M 31.78125 74.21875 
Q 44.046875 74.21875 50.515625 64.515625 
Q 56.984375 54.828125 56.984375 36.375 
Q 56.984375 17.96875 50.515625 8.265625 
Q 44.046875 -1.421875 31.78125 -1.421875 
Q 19.53125 -1.421875 13.0625 8.265625 
Q 6.59375 17.96875 6.59375 36.375 
Q 6.59375 54.828125 13.0625 64.515625 
Q 19.53125 74.21875 31.78125 74.21875 
z
" id="DejaVuSans-48"/>
      </defs>
      <g transform="translate(50.961655 542.877813)scale(0.14 -0.14)">
       <use xlink:href="#DejaVuSans-50"/>
       <use x="63.623047" xlink:href="#DejaVuSans-46"/>
       <use x="95.410156" xlink:href="#DejaVuSans-48"/>
      </g>
     </g>
    </g>
    <g id="xtick_2">
     <g id="line2d_4">
      <g>
       <use style="stroke:#000000;stroke-width:0.8;" x="124.266737" xlink:href="#mea0008838a" y="525.24"/>
      </g>
     </g>
     <g id="text_4">
      <!-- 2.2 -->
      <g transform="translate(113.134549 542.877813)scale(0.14 -0.14)">
       <use xlink:href="#DejaVuSans-50"/>
       <use x="63.623047" xlink:href="#DejaVuSans-46"/>
       <use x="95.410156" xlink:href="#DejaVuSans-50"/>
      </g>
     </g>
    </g>
    <g id="xtick_3">
     <g id="line2d_5">
      <g>
       <use style="stroke:#000000;stroke-width:0.8;" x="186.439631" xlink:href="#mea0008838a" y="525.24"/>
      </g>
     </g>
     <g id="text_5">
      <!-- 2.4 -->
      <defs>
       <path d="M 37.796875 64.3125 
L 12.890625 25.390625 
L 37.796875 25.390625 
z
M 35.203125 72.90625 
L 47.609375 72.90625 
L 47.609375 25.390625 
L 58.015625 25.390625 
L 58.015625 17.1875 
L 47.609375 17.1875 
L 47.609375 0 
L 37.796875 0 
L 37.796875 17.1875 
L 4.890625 17.1875 
L 4.890625 26.703125 
z
" id="DejaVuSans-52"/>
      </defs>
      <g transform="translate(175.307444 542.877813)scale(0.14 -0.14)">
       <use xlink:href="#DejaVuSans-50"/>
       <use x="63.623047" xlink:href="#DejaVuSans-46"/>
       <use x="95.410156" xlink:href="#DejaVuSans-52"/>
      </g>
     </g>
    </g>
    <g id="xtick_4">
     <g id="line2d_6">
      <g>
       <use style="stroke:#000000;stroke-width:0.8;" x="248.612526" xlink:href="#mea0008838a" y="525.24"/>
      </g>
     </g>
     <g id="text_6">
      <!-- 2.6 -->
      <defs>
       <path d="M 33.015625 40.375 
Q 26.375 40.375 22.484375 35.828125 
Q 18.609375 31.296875 18.609375 23.390625 
Q 18.609375 15.53125 22.484375 10.953125 
Q 26.375 6.390625 33.015625 6.390625 
Q 39.65625 6.390625 43.53125 10.953125 
Q 47.40625 15.53125 47.40625 23.390625 
Q 47.40625 31.296875 43.53125 35.828125 
Q 39.65625 40.375 33.015625 40.375 
z
M 52.59375 71.296875 
L 52.59375 62.3125 
Q 48.875 64.0625 45.09375 64.984375 
Q 41.3125 65.921875 37.59375 65.921875 
Q 27.828125 65.921875 22.671875 59.328125 
Q 17.53125 52.734375 16.796875 39.40625 
Q 19.671875 43.65625 24.015625 45.921875 
Q 28.375 48.1875 33.59375 48.1875 
Q 44.578125 48.1875 50.953125 41.515625 
Q 57.328125 34.859375 57.328125 23.390625 
Q 57.328125 12.15625 50.6875 5.359375 
Q 44.046875 -1.421875 33.015625 -1.421875 
Q 20.359375 -1.421875 13.671875 8.265625 
Q 6.984375 17.96875 6.984375 36.375 
Q 6.984375 53.65625 15.1875 63.9375 
Q 23.390625 74.21875 37.203125 74.21875 
Q 40.921875 74.21875 44.703125 73.484375 
Q 48.484375 72.75 52.59375 71.296875 
z
" id="DejaVuSans-54"/>
      </defs>
      <g transform="translate(237.480338 542.877813)scale(0.14 -0.14)">
       <use xlink:href="#DejaVuSans-50"/>
       <use x="63.623047" xlink:href="#DejaVuSans-46"/>
       <use x="95.410156" xlink:href="#DejaVuSans-54"/>
      </g>
     </g>
    </g>
    <g id="xtick_5">
     <g id="line2d_7">
      <g>
       <use style="stroke:#000000;stroke-width:0.8;" x="310.78542" xlink:href="#mea0008838a" y="525.24"/>
      </g>
     </g>
     <g id="text_7">
      <!-- 2.8 -->
      <defs>
       <path d="M 31.78125 34.625 
Q 24.75 34.625 20.71875 30.859375 
Q 16.703125 27.09375 16.703125 20.515625 
Q 16.703125 13.921875 20.71875 10.15625 
Q 24.75 6.390625 31.78125 6.390625 
Q 38.8125 6.390625 42.859375 10.171875 
Q 46.921875 13.96875 46.921875 20.515625 
Q 46.921875 27.09375 42.890625 30.859375 
Q 38.875 34.625 31.78125 34.625 
z
M 21.921875 38.8125 
Q 15.578125 40.375 12.03125 44.71875 
Q 8.5 49.078125 8.5 55.328125 
Q 8.5 64.0625 14.71875 69.140625 
Q 20.953125 74.21875 31.78125 74.21875 
Q 42.671875 74.21875 48.875 69.140625 
Q 55.078125 64.0625 55.078125 55.328125 
Q 55.078125 49.078125 51.53125 44.71875 
Q 48 40.375 41.703125 38.8125 
Q 48.828125 37.15625 52.796875 32.3125 
Q 56.78125 27.484375 56.78125 20.515625 
Q 56.78125 9.90625 50.3125 4.234375 
Q 43.84375 -1.421875 31.78125 -1.421875 
Q 19.734375 -1.421875 13.25 4.234375 
Q 6.78125 9.90625 6.78125 20.515625 
Q 6.78125 27.484375 10.78125 32.3125 
Q 14.796875 37.15625 21.921875 38.8125 
z
M 18.3125 54.390625 
Q 18.3125 48.734375 21.84375 45.5625 
Q 25.390625 42.390625 31.78125 42.390625 
Q 38.140625 42.390625 41.71875 45.5625 
Q 45.3125 48.734375 45.3125 54.390625 
Q 45.3125 60.0625 41.71875 63.234375 
Q 38.140625 66.40625 31.78125 66.40625 
Q 25.390625 66.40625 21.84375 63.234375 
Q 18.3125 60.0625 18.3125 54.390625 
z
" id="DejaVuSans-56"/>
      </defs>
      <g transform="translate(299.653233 542.877813)scale(0.14 -0.14)">
       <use xlink:href="#DejaVuSans-50"/>
       <use x="63.623047" xlink:href="#DejaVuSans-46"/>
       <use x="95.410156" xlink:href="#DejaVuSans-56"/>
      </g>
     </g>
    </g>
    <g id="xtick_6">
     <g id="line2d_8">
      <g>
       <use style="stroke:#000000;stroke-width:0.8;" x="372.958315" xlink:href="#mea0008838a" y="525.24"/>
      </g>
     </g>
     <g id="text_8">
      <!-- 3.0 -->
      <defs>
       <path d="M 40.578125 39.3125 
Q 47.65625 37.796875 51.625 33 
Q 55.609375 28.21875 55.609375 21.1875 
Q 55.609375 10.40625 48.1875 4.484375 
Q 40.765625 -1.421875 27.09375 -1.421875 
Q 22.515625 -1.421875 17.65625 -0.515625 
Q 12.796875 0.390625 7.625 2.203125 
L 7.625 11.71875 
Q 11.71875 9.328125 16.59375 8.109375 
Q 21.484375 6.890625 26.8125 6.890625 
Q 36.078125 6.890625 40.9375 10.546875 
Q 45.796875 14.203125 45.796875 21.1875 
Q 45.796875 27.640625 41.28125 31.265625 
Q 36.765625 34.90625 28.71875 34.90625 
L 20.21875 34.90625 
L 20.21875 43.015625 
L 29.109375 43.015625 
Q 36.375 43.015625 40.234375 45.921875 
Q 44.09375 48.828125 44.09375 54.296875 
Q 44.09375 59.90625 40.109375 62.90625 
Q 36.140625 65.921875 28.71875 65.921875 
Q 24.65625 65.921875 20.015625 65.03125 
Q 15.375 64.15625 9.8125 62.3125 
L 9.8125 71.09375 
Q 15.4375 72.65625 20.34375 73.4375 
Q 25.25 74.21875 29.59375 74.21875 
Q 40.828125 74.21875 47.359375 69.109375 
Q 53.90625 64.015625 53.90625 55.328125 
Q 53.90625 49.265625 50.4375 45.09375 
Q 46.96875 40.921875 40.578125 39.3125 
z
" id="DejaVuSans-51"/>
      </defs>
      <g transform="translate(361.826127 542.877813)scale(0.14 -0.14)">
       <use xlink:href="#DejaVuSans-51"/>
       <use x="63.623047" xlink:href="#DejaVuSans-46"/>
       <use x="95.410156" xlink:href="#DejaVuSans-48"/>
      </g>
     </g>
    </g>
    <g id="xtick_7">
     <g id="line2d_9">
      <g>
       <use style="stroke:#000000;stroke-width:0.8;" x="435.131209" xlink:href="#mea0008838a" y="525.24"/>
      </g>
     </g>
     <g id="text_9">
      <!-- 3.2 -->
      <g transform="translate(423.999022 542.877813)scale(0.14 -0.14)">
       <use xlink:href="#DejaVuSans-51"/>
       <use x="63.623047" xlink:href="#DejaVuSans-46"/>
       <use x="95.410156" xlink:href="#DejaVuSans-50"/>
      </g>
     </g>
    </g>
    <g id="xtick_8">
     <g id="line2d_10">
      <g>
       <use style="stroke:#000000;stroke-width:0.8;" x="497.304104" xlink:href="#mea0008838a" y="525.24"/>
      </g>
     </g>
     <g id="text_10">
      <!-- 3.4 -->
      <g transform="translate(486.171916 542.877813)scale(0.14 -0.14)">
       <use xlink:href="#DejaVuSans-51"/>
       <use x="63.623047" xlink:href="#DejaVuSans-46"/>
       <use x="95.410156" xlink:href="#DejaVuSans-52"/>
      </g>
     </g>
    </g>
   </g>
   <g id="line2d_11">
    <path clip-path="url(#p567262684a)" d="M 320.111355 525.24 
L 320.111355 402.93 
" style="fill:none;stroke:#ff6384;stroke-dasharray:5.55,2.4;stroke-dashoffset:0;stroke-opacity:0.8;stroke-width:1.5;"/>
   </g>
   <g id="line2d_12">
    <path clip-path="url(#p567262684a)" d="M 267.264394 525.24 
L 267.264394 402.93 
" style="fill:none;stroke:#36a2eb;stroke-dasharray:5.55,2.4;stroke-dashoffset:0;stroke-opacity:0.8;stroke-width:1.5;"/>
   </g>
   <g id="patch_10">
    <path d="M 36 525.24 
L 538.2 525.24 
" style="fill:none;stroke:#000000;stroke-linecap:square;stroke-linejoin:miter;stroke-width:0.8;"/>
   </g>
  </g>
 </g>
 <defs>
  <clipPath id="p8a42eeadfa">
   <rect height="366.93" width="502.2" x="36" y="36"/>
  </clipPath>
  <clipPath id="p567262684a">
   <rect height="122.31" width="502.2" x="36" y="402.93"/>
  </clipPath>
 </defs>
</svg>
