<?xml version="1.0" encoding="utf-8" standalone="no"?>
<!DOCTYPE svg PUBLIC "-//W3C//DTD SVG 1.1//EN"
  "http://www.w3.org/Graphics/SVG/1.1/DTD/svg11.dtd">
<!-- Created with matplotlib (https://matplotlib.org/) -->
<svg height="591.509375pt" version="1.1" viewBox="0 0 574.2 591.509375" width="574.2pt" xmlns="http://www.w3.org/2000/svg" xmlns:xlink="http://www.w3.org/1999/xlink">
 <defs>
  <style type="text/css">
*{stroke-linecap:butt;stroke-linejoin:round;}
  </style>
 </defs>
 <g id="figure_1">
  <g id="patch_1">
   <path d="M 0 591.509375 
L 574.2 591.509375 
L 574.2 0 
L 0 0 
z
" style="fill:none;"/>
  </g>
  <g id="axes_1">
   <g id="patch_2">
    <path d="M 36 410.22 
L 538.2 410.22 
L 538.2 36 
L 36 36 
z
" style="fill:none;"/>
   </g>
   <g id="PolyCollection_1">
    <defs>
     <path d="M 176.517994 -198.299375 
L 176.517994 -198.413593 
L 179.940769 -198.456662 
L 183.363544 -198.514563 
L 186.786319 -198.591861 
L 190.209094 -198.694339 
L 193.631869 -198.829251 
L 197.054644 -199.005619 
L 200.477419 -199.234563 
L 203.900194 -199.529665 
L 207.32297 -199.907354 
L 210.745745 -200.387311 
L 214.16852 -200.992881 
L 217.591295 -201.751471 
L 221.01407 -202.694912 
L 224.436845 -203.859762 
L 227.85962 -205.287525 
L 231.282395 -207.024738 
L 234.70517 -209.122902 
L 238.127945 -211.638221 
L 241.55072 -214.631088 
L 244.973495 -218.165325 
L 248.396271 -222.3071 
L 251.819046 -227.123541 
L 255.241821 -232.681014 
L 258.664596 -239.043076 
L 262.087371 -246.268132 
L 265.510146 -254.406825 
L 268.932921 -263.499238 
L 272.355696 -273.571974 
L 275.778471 -284.635235 
L 279.201246 -296.680007 
L 282.624021 -309.675493 
L 286.046796 -323.566938 
L 289.469572 -338.273983 
L 292.892347 -353.689699 
L 296.315122 -369.680411 
L 299.737897 -386.086424 
L 303.160672 -402.723708 
L 306.583447 -419.386587 
L 310.006222 -435.8514 
L 313.428997 -451.881089 
L 316.851772 -467.230586 
L 320.274547 -481.652863 
L 323.697322 -494.905422 
L 327.120098 -506.757005 
L 330.542873 -516.994276 
L 333.965648 -525.428184 
L 337.388423 -531.899766 
L 340.811198 -536.285125 
L 344.233973 -538.499375 
L 347.656748 -538.499375 
L 351.079523 -536.285125 
L 354.502298 -531.899766 
L 357.925073 -525.428184 
L 361.347848 -516.994276 
L 364.770623 -506.757005 
L 368.193399 -494.905422 
L 371.616174 -481.652863 
L 375.038949 -467.230586 
L 378.461724 -451.881089 
L 381.884499 -435.8514 
L 385.307274 -419.386587 
L 388.730049 -402.723708 
L 392.152824 -386.086424 
L 395.575599 -369.680411 
L 398.998374 -353.689699 
L 402.421149 -338.273983 
L 405.843925 -323.566938 
L 409.2667 -309.675493 
L 412.689475 -296.680007 
L 416.11225 -284.635235 
L 419.535025 -273.571974 
L 422.9578 -263.499238 
L 426.380575 -254.406825 
L 429.80335 -246.268132 
L 433.226125 -239.043076 
L 436.6489 -232.681014 
L 440.071675 -227.123541 
L 443.49445 -222.3071 
L 446.917226 -218.165325 
L 450.340001 -214.631088 
L 453.762776 -211.638221 
L 457.185551 -209.122902 
L 460.608326 -207.024738 
L 464.031101 -205.287525 
L 467.453876 -203.859762 
L 470.876651 -202.694912 
L 474.299426 -201.751471 
L 477.722201 -200.992881 
L 481.144976 -200.387311 
L 484.567751 -199.907354 
L 487.990527 -199.529665 
L 491.413302 -199.234563 
L 494.836077 -199.005619 
L 498.258852 -198.829251 
L 501.681627 -198.694339 
L 505.104402 -198.591861 
L 508.527177 -198.514563 
L 511.949952 -198.456662 
L 515.372727 -198.413593 
L 515.372727 -198.299375 
L 515.372727 -198.299375 
L 511.949952 -198.299375 
L 508.527177 -198.299375 
L 505.104402 -198.299375 
L 501.681627 -198.299375 
L 498.258852 -198.299375 
L 494.836077 -198.299375 
L 491.413302 -198.299375 
L 487.990527 -198.299375 
L 484.567751 -198.299375 
L 481.144976 -198.299375 
L 477.722201 -198.299375 
L 474.299426 -198.299375 
L 470.876651 -198.299375 
L 467.453876 -198.299375 
L 464.031101 -198.299375 
L 460.608326 -198.299375 
L 457.185551 -198.299375 
L 453.762776 -198.299375 
L 450.340001 -198.299375 
L 446.917226 -198.299375 
L 443.49445 -198.299375 
L 440.071675 -198.299375 
L 436.6489 -198.299375 
L 433.226125 -198.299375 
L 429.80335 -198.299375 
L 426.380575 -198.299375 
L 422.9578 -198.299375 
L 419.535025 -198.299375 
L 416.11225 -198.299375 
L 412.689475 -198.299375 
L 409.2667 -198.299375 
L 405.843925 -198.299375 
L 402.421149 -198.299375 
L 398.998374 -198.299375 
L 395.575599 -198.299375 
L 392.152824 -198.299375 
L 388.730049 -198.299375 
L 385.307274 -198.299375 
L 381.884499 -198.299375 
L 378.461724 -198.299375 
L 375.038949 -198.299375 
L 371.616174 -198.299375 
L 368.193399 -198.299375 
L 364.770623 -198.299375 
L 361.347848 -198.299375 
L 357.925073 -198.299375 
L 354.502298 -198.299375 
L 351.079523 -198.299375 
L 347.656748 -198.299375 
L 344.233973 -198.299375 
L 340.811198 -198.299375 
L 337.388423 -198.299375 
L 333.965648 -198.299375 
L 330.542873 -198.299375 
L 327.120098 -198.299375 
L 323.697322 -198.299375 
L 320.274547 -198.299375 
L 316.851772 -198.299375 
L 313.428997 -198.299375 
L 310.006222 -198.299375 
L 306.583447 -198.299375 
L 303.160672 -198.299375 
L 299.737897 -198.299375 
L 296.315122 -198.299375 
L 292.892347 -198.299375 
L 289.469572 -198.299375 
L 286.046796 -198.299375 
L 282.624021 -198.299375 
L 279.201246 -198.299375 
L 275.778471 -198.299375 
L 272.355696 -198.299375 
L 268.932921 -198.299375 
L 265.510146 -198.299375 
L 262.087371 -198.299375 
L 258.664596 -198.299375 
L 255.241821 -198.299375 
L 251.819046 -198.299375 
L 248.396271 -198.299375 
L 244.973495 -198.299375 
L 241.55072 -198.299375 
L 238.127945 -198.299375 
L 234.70517 -198.299375 
L 231.282395 -198.299375 
L 227.85962 -198.299375 
L 224.436845 -198.299375 
L 221.01407 -198.299375 
L 217.591295 -198.299375 
L 214.16852 -198.299375 
L 210.745745 -198.299375 
L 207.32297 -198.299375 
L 203.900194 -198.299375 
L 200.477419 -198.299375 
L 197.054644 -198.299375 
L 193.631869 -198.299375 
L 190.209094 -198.299375 
L 186.786319 -198.299375 
L 183.363544 -198.299375 
L 179.940769 -198.299375 
L 176.517994 -198.299375 
z
" id="m37263f1879" style="stroke:#ff6384;stroke-opacity:0.5;"/>
    </defs>
    <g clip-path="url(#p0d38afe59a)">
     <use style="fill:#ff6384;fill-opacity:0.5;stroke:#ff6384;stroke-opacity:0.5;" x="0" xlink:href="#m37263f1879" y="591.509375"/>
    </g>
   </g>
   <g id="PolyCollection_2">
    <defs>
     <path d="M 58.827273 -198.299375 
L 58.827273 -198.397678 
L 62.804178 -198.434746 
L 66.781083 -198.484579 
L 70.757989 -198.551107 
L 74.734894 -198.639306 
L 78.711799 -198.755419 
L 82.688704 -198.907213 
L 86.66561 -199.104257 
L 90.642515 -199.35824 
L 94.61942 -199.683303 
L 98.596325 -200.096384 
L 102.573231 -200.617576 
L 106.550136 -201.270467 
L 110.527041 -202.082451 
L 114.503947 -203.084994 
L 118.480852 -204.313817 
L 122.457757 -205.808971 
L 126.434662 -207.614784 
L 130.411568 -209.779625 
L 134.388473 -212.355476 
L 138.365378 -215.397262 
L 142.342283 -218.961934 
L 146.319189 -223.107267 
L 150.296094 -227.890378 
L 154.272999 -233.36597 
L 158.249905 -239.584308 
L 162.22681 -246.588979 
L 166.203715 -254.414482 
L 170.18062 -263.083713 
L 174.157526 -272.605452 
L 178.134431 -282.971941 
L 182.111336 -294.156675 
L 186.088241 -306.112527 
L 190.065147 -318.770336 
L 194.042052 -332.038072 
L 198.018957 -345.800686 
L 201.995863 -359.920733 
L 205.972768 -374.239828 
L 209.949673 -388.580951 
L 213.926578 -402.751606 
L 217.903484 -416.547765 
L 221.880389 -429.758509 
L 225.857294 -442.171229 
L 229.834199 -453.577215 
L 233.811105 -463.777433 
L 237.78801 -472.588273 
L 241.764915 -479.847026 
L 245.741821 -485.416877 
L 249.718726 -489.191193 
L 253.695631 -491.096916 
L 257.672536 -491.096916 
L 261.649442 -489.191193 
L 265.626347 -485.416877 
L 269.603252 -479.847026 
L 273.580157 -472.588273 
L 277.557063 -463.777433 
L 281.533968 -453.577215 
L 285.510873 -442.171229 
L 289.487779 -429.758509 
L 293.464684 -416.547765 
L 297.441589 -402.751606 
L 301.418494 -388.580951 
L 305.3954 -374.239828 
L 309.372305 -359.920733 
L 313.34921 -345.800686 
L 317.326115 -332.038072 
L 321.303021 -318.770336 
L 325.279926 -306.112527 
L 329.256831 -294.156675 
L 333.233737 -282.971941 
L 337.210642 -272.605452 
L 341.187547 -263.083713 
L 345.164452 -254.414482 
L 349.141358 -246.588979 
L 353.118263 -239.584308 
L 357.095168 -233.36597 
L 361.072073 -227.890378 
L 365.048979 -223.107267 
L 369.025884 -218.961934 
L 373.002789 -215.397262 
L 376.979694 -212.355476 
L 380.9566 -209.779625 
L 384.933505 -207.614784 
L 388.91041 -205.808971 
L 392.887316 -204.313817 
L 396.864221 -203.084994 
L 400.841126 -202.082451 
L 404.818031 -201.270467 
L 408.794937 -200.617576 
L 412.771842 -200.096384 
L 416.748747 -199.683303 
L 420.725652 -199.35824 
L 424.702558 -199.104257 
L 428.679463 -198.907213 
L 432.656368 -198.755419 
L 436.633274 -198.639306 
L 440.610179 -198.551107 
L 444.587084 -198.484579 
L 448.563989 -198.434746 
L 452.540895 -198.397678 
L 452.540895 -198.299375 
L 452.540895 -198.299375 
L 448.563989 -198.299375 
L 444.587084 -198.299375 
L 440.610179 -198.299375 
L 436.633274 -198.299375 
L 432.656368 -198.299375 
L 428.679463 -198.299375 
L 424.702558 -198.299375 
L 420.725652 -198.299375 
L 416.748747 -198.299375 
L 412.771842 -198.299375 
L 408.794937 -198.299375 
L 404.818031 -198.299375 
L 400.841126 -198.299375 
L 396.864221 -198.299375 
L 392.887316 -198.299375 
L 388.91041 -198.299375 
L 384.933505 -198.299375 
L 380.9566 -198.299375 
L 376.979694 -198.299375 
L 373.002789 -198.299375 
L 369.025884 -198.299375 
L 365.048979 -198.299375 
L 361.072073 -198.299375 
L 357.095168 -198.299375 
L 353.118263 -198.299375 
L 349.141358 -198.299375 
L 345.164452 -198.299375 
L 341.187547 -198.299375 
L 337.210642 -198.299375 
L 333.233737 -198.299375 
L 329.256831 -198.299375 
L 325.279926 -198.299375 
L 321.303021 -198.299375 
L 317.326115 -198.299375 
L 313.34921 -198.299375 
L 309.372305 -198.299375 
L 305.3954 -198.299375 
L 301.418494 -198.299375 
L 297.441589 -198.299375 
L 293.464684 -198.299375 
L 289.487779 -198.299375 
L 285.510873 -198.299375 
L 281.533968 -198.299375 
L 277.557063 -198.299375 
L 273.580157 -198.299375 
L 269.603252 -198.299375 
L 265.626347 -198.299375 
L 261.649442 -198.299375 
L 257.672536 -198.299375 
L 253.695631 -198.299375 
L 249.718726 -198.299375 
L 245.741821 -198.299375 
L 241.764915 -198.299375 
L 237.78801 -198.299375 
L 233.811105 -198.299375 
L 229.834199 -198.299375 
L 225.857294 -198.299375 
L 221.880389 -198.299375 
L 217.903484 -198.299375 
L 213.926578 -198.299375 
L 209.949673 -198.299375 
L 205.972768 -198.299375 
L 201.995863 -198.299375 
L 198.018957 -198.299375 
L 194.042052 -198.299375 
L 190.065147 -198.299375 
L 186.088241 -198.299375 
L 182.111336 -198.299375 
L 178.134431 -198.299375 
L 174.157526 -198.299375 
L 170.18062 -198.299375 
L 166.203715 -198.299375 
L 162.22681 -198.299375 
L 158.249905 -198.299375 
L 154.272999 -198.299375 
L 150.296094 -198.299375 
L 146.319189 -198.299375 
L 142.342283 -198.299375 
L 138.365378 -198.299375 
L 134.388473 -198.299375 
L 130.411568 -198.299375 
L 126.434662 -198.299375 
L 122.457757 -198.299375 
L 118.480852 -198.299375 
L 114.503947 -198.299375 
L 110.527041 -198.299375 
L 106.550136 -198.299375 
L 102.573231 -198.299375 
L 98.596325 -198.299375 
L 94.61942 -198.299375 
L 90.642515 -198.299375 
L 86.66561 -198.299375 
L 82.688704 -198.299375 
L 78.711799 -198.299375 
L 74.734894 -198.299375 
L 70.757989 -198.299375 
L 66.781083 -198.299375 
L 62.804178 -198.299375 
L 58.827273 -198.299375 
z
" id="ma6b8fd2a86" style="stroke:#36a2eb;stroke-opacity:0.5;"/>
    </defs>
    <g clip-path="url(#p0d38afe59a)">
     <use style="fill:#36a2eb;fill-opacity:0.5;stroke:#36a2eb;stroke-opacity:0.5;" x="0" xlink:href="#ma6b8fd2a86" y="591.509375"/>
    </g>
   </g>
   <g id="line2d_1">
    <path clip-path="url(#p0d38afe59a)" d="M 176.517994 393.095782 
L 179.940769 393.052713 
L 183.363544 392.994812 
L 186.786319 392.917514 
L 190.209094 392.815036 
L 193.631869 392.680124 
L 197.054644 392.503756 
L 200.477419 392.274812 
L 203.900194 391.97971 
L 207.32297 391.602021 
L 210.745745 391.122064 
L 214.16852 390.516494 
L 217.591295 389.757904 
L 221.01407 388.814463 
L 224.436845 387.649613 
L 227.85962 386.22185 
L 231.282395 384.484637 
L 234.70517 382.386473 
L 238.127945 379.871154 
L 241.55072 376.878287 
L 244.973495 373.34405 
L 248.396271 369.202275 
L 251.819046 364.385834 
L 255.241821 358.828361 
L 258.664596 352.466299 
L 262.087371 345.241243 
L 265.510146 337.10255 
L 268.932921 328.010137 
L 272.355696 317.937401 
L 275.778471 306.87414 
L 279.201246 294.829368 
L 282.624021 281.833882 
L 286.046796 267.942437 
L 289.469572 253.235392 
L 292.892347 237.819676 
L 296.315122 221.828964 
L 299.737897 205.422951 
L 303.160672 188.785667 
L 306.583447 172.122788 
L 310.006222 155.657975 
L 313.428997 139.628286 
L 316.851772 124.278789 
L 320.274547 109.856512 
L 323.697322 96.603953 
L 327.120098 84.75237 
L 330.542873 74.515099 
L 333.965648 66.081191 
L 337.388423 59.609609 
L 340.811198 55.22425 
L 344.233973 53.01 
L 347.656748 53.01 
L 351.079523 55.22425 
L 354.502298 59.609609 
L 357.925073 66.081191 
L 361.347848 74.515099 
L 364.770623 84.75237 
L 368.193399 96.603953 
L 371.616174 109.856512 
L 375.038949 124.278789 
L 378.461724 139.628286 
L 381.884499 155.657975 
L 385.307274 172.122788 
L 388.730049 188.785667 
L 392.152824 205.422951 
L 395.575599 221.828964 
L 398.998374 237.819676 
L 402.421149 253.235392 
L 405.843925 267.942437 
L 409.2667 281.833882 
L 412.689475 294.829368 
L 416.11225 306.87414 
L 419.535025 317.937401 
L 422.9578 328.010137 
L 426.380575 337.10255 
L 429.80335 345.241243 
L 433.226125 352.466299 
L 436.6489 358.828361 
L 440.071675 364.385834 
L 443.49445 369.202275 
L 446.917226 373.34405 
L 450.340001 376.878287 
L 453.762776 379.871154 
L 457.185551 382.386473 
L 460.608326 384.484637 
L 464.031101 386.22185 
L 467.453876 387.649613 
L 470.876651 388.814463 
L 474.299426 389.757904 
L 477.722201 390.516494 
L 481.144976 391.122064 
L 484.567751 391.602021 
L 487.990527 391.97971 
L 491.413302 392.274812 
L 494.836077 392.503756 
L 498.258852 392.680124 
L 501.681627 392.815036 
L 505.104402 392.917514 
L 508.527177 392.994812 
L 511.949952 393.052713 
L 515.372727 393.095782 
" style="fill:none;stroke:#ff6384;stroke-linecap:square;"/>
   </g>
   <g id="line2d_2">
    <path clip-path="url(#p0d38afe59a)" d="M 58.827273 393.111697 
L 62.804178 393.074629 
L 66.781083 393.024796 
L 70.757989 392.958268 
L 74.734894 392.870069 
L 78.711799 392.753956 
L 82.688704 392.602162 
L 86.66561 392.405118 
L 90.642515 392.151135 
L 94.61942 391.826072 
L 98.596325 391.412991 
L 102.573231 390.891799 
L 106.550136 390.238908 
L 110.527041 389.426924 
L 114.503947 388.424381 
L 118.480852 387.195558 
L 122.457757 385.700404 
L 126.434662 383.894591 
L 130.411568 381.72975 
L 134.388473 379.153899 
L 138.365378 376.112113 
L 142.342283 372.547441 
L 146.319189 368.402108 
L 150.296094 363.618997 
L 154.272999 358.143405 
L 158.249905 351.925067 
L 162.22681 344.920396 
L 166.203715 337.094893 
L 170.18062 328.425662 
L 174.157526 318.903923 
L 178.134431 308.537434 
L 182.111336 297.3527 
L 186.088241 285.396848 
L 190.065147 272.739039 
L 194.042052 259.471303 
L 198.018957 245.708689 
L 201.995863 231.588642 
L 205.972768 217.269547 
L 209.949673 202.928424 
L 213.926578 188.757769 
L 217.903484 174.96161 
L 221.880389 161.750866 
L 225.857294 149.338146 
L 229.834199 137.93216 
L 233.811105 127.731942 
L 237.78801 118.921102 
L 241.764915 111.662349 
L 245.741821 106.092498 
L 249.718726 102.318182 
L 253.695631 100.412459 
L 257.672536 100.412459 
L 261.649442 102.318182 
L 265.626347 106.092498 
L 269.603252 111.662349 
L 273.580157 118.921102 
L 277.557063 127.731942 
L 281.533968 137.93216 
L 285.510873 149.338146 
L 289.487779 161.750866 
L 293.464684 174.96161 
L 297.441589 188.757769 
L 301.418494 202.928424 
L 305.3954 217.269547 
L 309.372305 231.588642 
L 313.34921 245.708689 
L 317.326115 259.471303 
L 321.303021 272.739039 
L 325.279926 285.396848 
L 329.256831 297.3527 
L 333.233737 308.537434 
L 337.210642 318.903923 
L 341.187547 328.425662 
L 345.164452 337.094893 
L 349.141358 344.920396 
L 353.118263 351.925067 
L 357.095168 358.143405 
L 361.072073 363.618997 
L 365.048979 368.402108 
L 369.025884 372.547441 
L 373.002789 376.112113 
L 376.979694 379.153899 
L 380.9566 381.72975 
L 384.933505 383.894591 
L 388.91041 385.700404 
L 392.887316 387.195558 
L 396.864221 388.424381 
L 400.841126 389.426924 
L 404.818031 390.238908 
L 408.794937 390.891799 
L 412.771842 391.412991 
L 416.748747 391.826072 
L 420.725652 392.151135 
L 424.702558 392.405118 
L 428.679463 392.602162 
L 432.656368 392.753956 
L 436.633274 392.870069 
L 440.610179 392.958268 
L 444.587084 393.024796 
L 448.563989 393.074629 
L 452.540895 393.111697 
" style="fill:none;stroke:#36a2eb;stroke-linecap:square;"/>
   </g>
   <g id="patch_3">
    <path d="M 36 410.22 
L 538.2 410.22 
" style="fill:none;stroke:#000000;stroke-linecap:square;stroke-linejoin:miter;stroke-width:0.8;"/>
   </g>
   <g id="legend_1">
    <g id="patch_4">
     <path d="M 414.919063 88.29875 
L 528.4 88.29875 
Q 531.2 88.29875 531.2 85.49875 
L 531.2 45.8 
Q 531.2 43 528.4 43 
L 414.919063 43 
Q 412.119063 43 412.119063 45.8 
L 412.119063 85.49875 
Q 412.119063 88.29875 414.919063 88.29875 
z
" style="fill:#ffffff;opacity:0.8;stroke:#cccccc;stroke-linejoin:miter;"/>
    </g>
    <g id="patch_5">
     <path d="M 417.719063 59.237813 
L 445.719063 59.237813 
L 445.719063 49.437813 
L 417.719063 49.437813 
z
" style="fill:#ff6384;opacity:0.5;stroke:#ff6384;stroke-linejoin:miter;"/>
    </g>
    <g id="text_1">
     <!-- sidemenu -->
     <defs>
      <path d="M 44.28125 53.078125 
L 44.28125 44.578125 
Q 40.484375 46.53125 36.375 47.5 
Q 32.28125 48.484375 27.875 48.484375 
Q 21.1875 48.484375 17.84375 46.4375 
Q 14.5 44.390625 14.5 40.28125 
Q 14.5 37.15625 16.890625 35.375 
Q 19.28125 33.59375 26.515625 31.984375 
L 29.59375 31.296875 
Q 39.15625 29.25 43.1875 25.515625 
Q 47.21875 21.78125 47.21875 15.09375 
Q 47.21875 7.46875 41.1875 3.015625 
Q 35.15625 -1.421875 24.609375 -1.421875 
Q 20.21875 -1.421875 15.453125 -0.5625 
Q 10.6875 0.296875 5.421875 2 
L 5.421875 11.28125 
Q 10.40625 8.6875 15.234375 7.390625 
Q 20.0625 6.109375 24.8125 6.109375 
Q 31.15625 6.109375 34.5625 8.28125 
Q 37.984375 10.453125 37.984375 14.40625 
Q 37.984375 18.0625 35.515625 20.015625 
Q 33.0625 21.96875 24.703125 23.78125 
L 21.578125 24.515625 
Q 13.234375 26.265625 9.515625 29.90625 
Q 5.8125 33.546875 5.8125 39.890625 
Q 5.8125 47.609375 11.28125 51.796875 
Q 16.75 56 26.8125 56 
Q 31.78125 56 36.171875 55.265625 
Q 40.578125 54.546875 44.28125 53.078125 
z
" id="DejaVuSans-115"/>
      <path d="M 9.421875 54.6875 
L 18.40625 54.6875 
L 18.40625 0 
L 9.421875 0 
z
M 9.421875 75.984375 
L 18.40625 75.984375 
L 18.40625 64.59375 
L 9.421875 64.59375 
z
" id="DejaVuSans-105"/>
      <path d="M 45.40625 46.390625 
L 45.40625 75.984375 
L 54.390625 75.984375 
L 54.390625 0 
L 45.40625 0 
L 45.40625 8.203125 
Q 42.578125 3.328125 38.25 0.953125 
Q 33.9375 -1.421875 27.875 -1.421875 
Q 17.96875 -1.421875 11.734375 6.484375 
Q 5.515625 14.40625 5.515625 27.296875 
Q 5.515625 40.1875 11.734375 48.09375 
Q 17.96875 56 27.875 56 
Q 33.9375 56 38.25 53.625 
Q 42.578125 51.265625 45.40625 46.390625 
z
M 14.796875 27.296875 
Q 14.796875 17.390625 18.875 11.75 
Q 22.953125 6.109375 30.078125 6.109375 
Q 37.203125 6.109375 41.296875 11.75 
Q 45.40625 17.390625 45.40625 27.296875 
Q 45.40625 37.203125 41.296875 42.84375 
Q 37.203125 48.484375 30.078125 48.484375 
Q 22.953125 48.484375 18.875 42.84375 
Q 14.796875 37.203125 14.796875 27.296875 
z
" id="DejaVuSans-100"/>
      <path d="M 56.203125 29.59375 
L 56.203125 25.203125 
L 14.890625 25.203125 
Q 15.484375 15.921875 20.484375 11.0625 
Q 25.484375 6.203125 34.421875 6.203125 
Q 39.59375 6.203125 44.453125 7.46875 
Q 49.3125 8.734375 54.109375 11.28125 
L 54.109375 2.78125 
Q 49.265625 0.734375 44.1875 -0.34375 
Q 39.109375 -1.421875 33.890625 -1.421875 
Q 20.796875 -1.421875 13.15625 6.1875 
Q 5.515625 13.8125 5.515625 26.8125 
Q 5.515625 40.234375 12.765625 48.109375 
Q 20.015625 56 32.328125 56 
Q 43.359375 56 49.78125 48.890625 
Q 56.203125 41.796875 56.203125 29.59375 
z
M 47.21875 32.234375 
Q 47.125 39.59375 43.09375 43.984375 
Q 39.0625 48.390625 32.421875 48.390625 
Q 24.90625 48.390625 20.390625 44.140625 
Q 15.875 39.890625 15.1875 32.171875 
z
" id="DejaVuSans-101"/>
      <path d="M 52 44.1875 
Q 55.375 50.25 60.0625 53.125 
Q 64.75 56 71.09375 56 
Q 79.640625 56 84.28125 50.015625 
Q 88.921875 44.046875 88.921875 33.015625 
L 88.921875 0 
L 79.890625 0 
L 79.890625 32.71875 
Q 79.890625 40.578125 77.09375 44.375 
Q 74.3125 48.1875 68.609375 48.1875 
Q 61.625 48.1875 57.5625 43.546875 
Q 53.515625 38.921875 53.515625 30.90625 
L 53.515625 0 
L 44.484375 0 
L 44.484375 32.71875 
Q 44.484375 40.625 41.703125 44.40625 
Q 38.921875 48.1875 33.109375 48.1875 
Q 26.21875 48.1875 22.15625 43.53125 
Q 18.109375 38.875 18.109375 30.90625 
L 18.109375 0 
L 9.078125 0 
L 9.078125 54.6875 
L 18.109375 54.6875 
L 18.109375 46.1875 
Q 21.1875 51.21875 25.484375 53.609375 
Q 29.78125 56 35.6875 56 
Q 41.65625 56 45.828125 52.96875 
Q 50 49.953125 52 44.1875 
z
" id="DejaVuSans-109"/>
      <path d="M 54.890625 33.015625 
L 54.890625 0 
L 45.90625 0 
L 45.90625 32.71875 
Q 45.90625 40.484375 42.875 44.328125 
Q 39.84375 48.1875 33.796875 48.1875 
Q 26.515625 48.1875 22.3125 43.546875 
Q 18.109375 38.921875 18.109375 30.90625 
L 18.109375 0 
L 9.078125 0 
L 9.078125 54.6875 
L 18.109375 54.6875 
L 18.109375 46.1875 
Q 21.34375 51.125 25.703125 53.5625 
Q 30.078125 56 35.796875 56 
Q 45.21875 56 50.046875 50.171875 
Q 54.890625 44.34375 54.890625 33.015625 
z
" id="DejaVuSans-110"/>
      <path d="M 8.5 21.578125 
L 8.5 54.6875 
L 17.484375 54.6875 
L 17.484375 21.921875 
Q 17.484375 14.15625 20.5 10.265625 
Q 23.53125 6.390625 29.59375 6.390625 
Q 36.859375 6.390625 41.078125 11.03125 
Q 45.3125 15.671875 45.3125 23.6875 
L 45.3125 54.6875 
L 54.296875 54.6875 
L 54.296875 0 
L 45.3125 0 
L 45.3125 8.40625 
Q 42.046875 3.421875 37.71875 1 
Q 33.40625 -1.421875 27.6875 -1.421875 
Q 18.265625 -1.421875 13.375 4.4375 
Q 8.5 10.296875 8.5 21.578125 
z
M 31.109375 56 
z
" id="DejaVuSans-117"/>
     </defs>
     <g transform="translate(456.919063 59.237813)scale(0.14 -0.14)">
      <use xlink:href="#DejaVuSans-115"/>
      <use x="52.099609" xlink:href="#DejaVuSans-105"/>
      <use x="79.882812" xlink:href="#DejaVuSans-100"/>
      <use x="143.359375" xlink:href="#DejaVuSans-101"/>
      <use x="204.882812" xlink:href="#DejaVuSans-109"/>
      <use x="302.294922" xlink:href="#DejaVuSans-101"/>
      <use x="363.818359" xlink:href="#DejaVuSans-110"/>
      <use x="427.197266" xlink:href="#DejaVuSans-117"/>
     </g>
    </g>
    <g id="patch_6">
     <path d="M 417.719063 79.787188 
L 445.719063 79.787188 
L 445.719063 69.987188 
L 417.719063 69.987188 
z
" style="fill:#36a2eb;opacity:0.5;stroke:#36a2eb;stroke-linejoin:miter;"/>
    </g>
    <g id="text_2">
     <!-- tabbar -->
     <defs>
      <path d="M 18.3125 70.21875 
L 18.3125 54.6875 
L 36.8125 54.6875 
L 36.8125 47.703125 
L 18.3125 47.703125 
L 18.3125 18.015625 
Q 18.3125 11.328125 20.140625 9.421875 
Q 21.96875 7.515625 27.59375 7.515625 
L 36.8125 7.515625 
L 36.8125 0 
L 27.59375 0 
Q 17.1875 0 13.234375 3.875 
Q 9.28125 7.765625 9.28125 18.015625 
L 9.28125 47.703125 
L 2.6875 47.703125 
L 2.6875 54.6875 
L 9.28125 54.6875 
L 9.28125 70.21875 
z
" id="DejaVuSans-116"/>
      <path d="M 34.28125 27.484375 
Q 23.390625 27.484375 19.1875 25 
Q 14.984375 22.515625 14.984375 16.5 
Q 14.984375 11.71875 18.140625 8.90625 
Q 21.296875 6.109375 26.703125 6.109375 
Q 34.1875 6.109375 38.703125 11.40625 
Q 43.21875 16.703125 43.21875 25.484375 
L 43.21875 27.484375 
z
M 52.203125 31.203125 
L 52.203125 0 
L 43.21875 0 
L 43.21875 8.296875 
Q 40.140625 3.328125 35.546875 0.953125 
Q 30.953125 -1.421875 24.3125 -1.421875 
Q 15.921875 -1.421875 10.953125 3.296875 
Q 6 8.015625 6 15.921875 
Q 6 25.140625 12.171875 29.828125 
Q 18.359375 34.515625 30.609375 34.515625 
L 43.21875 34.515625 
L 43.21875 35.40625 
Q 43.21875 41.609375 39.140625 45 
Q 35.0625 48.390625 27.6875 48.390625 
Q 23 48.390625 18.546875 47.265625 
Q 14.109375 46.140625 10.015625 43.890625 
L 10.015625 52.203125 
Q 14.9375 54.109375 19.578125 55.046875 
Q 24.21875 56 28.609375 56 
Q 40.484375 56 46.34375 49.84375 
Q 52.203125 43.703125 52.203125 31.203125 
z
" id="DejaVuSans-97"/>
      <path d="M 48.6875 27.296875 
Q 48.6875 37.203125 44.609375 42.84375 
Q 40.53125 48.484375 33.40625 48.484375 
Q 26.265625 48.484375 22.1875 42.84375 
Q 18.109375 37.203125 18.109375 27.296875 
Q 18.109375 17.390625 22.1875 11.75 
Q 26.265625 6.109375 33.40625 6.109375 
Q 40.53125 6.109375 44.609375 11.75 
Q 48.6875 17.390625 48.6875 27.296875 
z
M 18.109375 46.390625 
Q 20.953125 51.265625 25.265625 53.625 
Q 29.59375 56 35.59375 56 
Q 45.5625 56 51.78125 48.09375 
Q 58.015625 40.1875 58.015625 27.296875 
Q 58.015625 14.40625 51.78125 6.484375 
Q 45.5625 -1.421875 35.59375 -1.421875 
Q 29.59375 -1.421875 25.265625 0.953125 
Q 20.953125 3.328125 18.109375 8.203125 
L 18.109375 0 
L 9.078125 0 
L 9.078125 75.984375 
L 18.109375 75.984375 
z
" id="DejaVuSans-98"/>
      <path d="M 41.109375 46.296875 
Q 39.59375 47.171875 37.8125 47.578125 
Q 36.03125 48 33.890625 48 
Q 26.265625 48 22.1875 43.046875 
Q 18.109375 38.09375 18.109375 28.8125 
L 18.109375 0 
L 9.078125 0 
L 9.078125 54.6875 
L 18.109375 54.6875 
L 18.109375 46.1875 
Q 20.953125 51.171875 25.484375 53.578125 
Q 30.03125 56 36.53125 56 
Q 37.453125 56 38.578125 55.875 
Q 39.703125 55.765625 41.0625 55.515625 
z
" id="DejaVuSans-114"/>
     </defs>
     <g transform="translate(456.919063 79.787188)scale(0.14 -0.14)">
      <use xlink:href="#DejaVuSans-116"/>
      <use x="39.208984" xlink:href="#DejaVuSans-97"/>
      <use x="100.488281" xlink:href="#DejaVuSans-98"/>
      <use x="163.964844" xlink:href="#DejaVuSans-98"/>
      <use x="227.441406" xlink:href="#DejaVuSans-97"/>
      <use x="288.720703" xlink:href="#DejaVuSans-114"/>
     </g>
    </g>
   </g>
  </g>
  <g id="axes_2">
   <g id="patch_7">
    <path d="M 36 534.96 
L 538.2 534.96 
L 538.2 410.22 
L 36 410.22 
z
" style="fill:none;"/>
   </g>
   <g id="patch_8">
    <path clip-path="url(#pf4571fa4d3)" d="M 262.925951 529.29 
L 428.96477 529.29 
L 428.96477 491.49 
L 262.925951 491.49 
z
" style="fill:#ff6384;opacity:0.5;"/>
   </g>
   <g id="patch_9">
    <path clip-path="url(#pf4571fa4d3)" d="M 159.224246 453.69 
L 352.143921 453.69 
L 352.143921 415.89 
L 159.224246 415.89 
z
" style="fill:#36a2eb;opacity:0.5;"/>
   </g>
   <g id="matplotlib.axis_1">
    <g id="xtick_1">
     <g id="line2d_3">
      <defs>
       <path d="M 0 0 
L 0 3.5 
" id="m45d867f997" style="stroke:#000000;stroke-width:0.8;"/>
      </defs>
      <g>
       <use style="stroke:#000000;stroke-width:0.8;" x="122.707344" xlink:href="#m45d867f997" y="534.96"/>
      </g>
     </g>
     <g id="text_3">
      <!-- 3.4 -->
      <defs>
       <path d="M 40.578125 39.3125 
Q 47.65625 37.796875 51.625 33 
Q 55.609375 28.21875 55.609375 21.1875 
Q 55.609375 10.40625 48.1875 4.484375 
Q 40.765625 -1.421875 27.09375 -1.421875 
Q 22.515625 -1.421875 17.65625 -0.515625 
Q 12.796875 0.390625 7.625 2.203125 
L 7.625 11.71875 
Q 11.71875 9.328125 16.59375 8.109375 
Q 21.484375 6.890625 26.8125 6.890625 
Q 36.078125 6.890625 40.9375 10.546875 
Q 45.796875 14.203125 45.796875 21.1875 
Q 45.796875 27.640625 41.28125 31.265625 
Q 36.765625 34.90625 28.71875 34.90625 
L 20.21875 34.90625 
L 20.21875 43.015625 
L 29.109375 43.015625 
Q 36.375 43.015625 40.234375 45.921875 
Q 44.09375 48.828125 44.09375 54.296875 
Q 44.09375 59.90625 40.109375 62.90625 
Q 36.140625 65.921875 28.71875 65.921875 
Q 24.65625 65.921875 20.015625 65.03125 
Q 15.375 64.15625 9.8125 62.3125 
L 9.8125 71.09375 
Q 15.4375 72.65625 20.34375 73.4375 
Q 25.25 74.21875 29.59375 74.21875 
Q 40.828125 74.21875 47.359375 69.109375 
Q 53.90625 64.015625 53.90625 55.328125 
Q 53.90625 49.265625 50.4375 45.09375 
Q 46.96875 40.921875 40.578125 39.3125 
z
" id="DejaVuSans-51"/>
       <path d="M 10.6875 12.40625 
L 21 12.40625 
L 21 0 
L 10.6875 0 
z
" id="DejaVuSans-46"/>
       <path d="M 37.796875 64.3125 
L 12.890625 25.390625 
L 37.796875 25.390625 
z
M 35.203125 72.90625 
L 47.609375 72.90625 
L 47.609375 25.390625 
L 58.015625 25.390625 
L 58.015625 17.1875 
L 47.609375 17.1875 
L 47.609375 0 
L 37.796875 0 
L 37.796875 17.1875 
L 4.890625 17.1875 
L 4.890625 26.703125 
z
" id="DejaVuSans-52"/>
      </defs>
      <g transform="translate(111.575157 552.597813)scale(0.14 -0.14)">
       <use xlink:href="#DejaVuSans-51"/>
       <use x="63.623047" xlink:href="#DejaVuSans-46"/>
       <use x="95.410156" xlink:href="#DejaVuSans-52"/>
      </g>
     </g>
    </g>
    <g id="xtick_2">
     <g id="line2d_4">
      <g>
       <use style="stroke:#000000;stroke-width:0.8;" x="217.420122" xlink:href="#m45d867f997" y="534.96"/>
      </g>
     </g>
     <g id="text_4">
      <!-- 3.5 -->
      <defs>
       <path d="M 10.796875 72.90625 
L 49.515625 72.90625 
L 49.515625 64.59375 
L 19.828125 64.59375 
L 19.828125 46.734375 
Q 21.96875 47.46875 24.109375 47.828125 
Q 26.265625 48.1875 28.421875 48.1875 
Q 40.625 48.1875 47.75 41.5 
Q 54.890625 34.8125 54.890625 23.390625 
Q 54.890625 11.625 47.5625 5.09375 
Q 40.234375 -1.421875 26.90625 -1.421875 
Q 22.3125 -1.421875 17.546875 -0.640625 
Q 12.796875 0.140625 7.71875 1.703125 
L 7.71875 11.625 
Q 12.109375 9.234375 16.796875 8.0625 
Q 21.484375 6.890625 26.703125 6.890625 
Q 35.15625 6.890625 40.078125 11.328125 
Q 45.015625 15.765625 45.015625 23.390625 
Q 45.015625 31 40.078125 35.4375 
Q 35.15625 39.890625 26.703125 39.890625 
Q 22.75 39.890625 18.8125 39.015625 
Q 14.890625 38.140625 10.796875 36.28125 
z
" id="DejaVuSans-53"/>
      </defs>
      <g transform="translate(206.287934 552.597813)scale(0.14 -0.14)">
       <use xlink:href="#DejaVuSans-51"/>
       <use x="63.623047" xlink:href="#DejaVuSans-46"/>
       <use x="95.410156" xlink:href="#DejaVuSans-53"/>
      </g>
     </g>
    </g>
    <g id="xtick_3">
     <g id="line2d_5">
      <g>
       <use style="stroke:#000000;stroke-width:0.8;" x="312.132899" xlink:href="#m45d867f997" y="534.96"/>
      </g>
     </g>
     <g id="text_5">
      <!-- 3.6 -->
      <defs>
       <path d="M 33.015625 40.375 
Q 26.375 40.375 22.484375 35.828125 
Q 18.609375 31.296875 18.609375 23.390625 
Q 18.609375 15.53125 22.484375 10.953125 
Q 26.375 6.390625 33.015625 6.390625 
Q 39.65625 6.390625 43.53125 10.953125 
Q 47.40625 15.53125 47.40625 23.390625 
Q 47.40625 31.296875 43.53125 35.828125 
Q 39.65625 40.375 33.015625 40.375 
z
M 52.59375 71.296875 
L 52.59375 62.3125 
Q 48.875 64.0625 45.09375 64.984375 
Q 41.3125 65.921875 37.59375 65.921875 
Q 27.828125 65.921875 22.671875 59.328125 
Q 17.53125 52.734375 16.796875 39.40625 
Q 19.671875 43.65625 24.015625 45.921875 
Q 28.375 48.1875 33.59375 48.1875 
Q 44.578125 48.1875 50.953125 41.515625 
Q 57.328125 34.859375 57.328125 23.390625 
Q 57.328125 12.15625 50.6875 5.359375 
Q 44.046875 -1.421875 33.015625 -1.421875 
Q 20.359375 -1.421875 13.671875 8.265625 
Q 6.984375 17.96875 6.984375 36.375 
Q 6.984375 53.65625 15.1875 63.9375 
Q 23.390625 74.21875 37.203125 74.21875 
Q 40.921875 74.21875 44.703125 73.484375 
Q 48.484375 72.75 52.59375 71.296875 
z
" id="DejaVuSans-54"/>
      </defs>
      <g transform="translate(301.000711 552.597813)scale(0.14 -0.14)">
       <use xlink:href="#DejaVuSans-51"/>
       <use x="63.623047" xlink:href="#DejaVuSans-46"/>
       <use x="95.410156" xlink:href="#DejaVuSans-54"/>
      </g>
     </g>
    </g>
    <g id="xtick_4">
     <g id="line2d_6">
      <g>
       <use style="stroke:#000000;stroke-width:0.8;" x="406.845676" xlink:href="#m45d867f997" y="534.96"/>
      </g>
     </g>
     <g id="text_6">
      <!-- 3.7 -->
      <defs>
       <path d="M 8.203125 72.90625 
L 55.078125 72.90625 
L 55.078125 68.703125 
L 28.609375 0 
L 18.3125 0 
L 43.21875 64.59375 
L 8.203125 64.59375 
z
" id="DejaVuSans-55"/>
      </defs>
      <g transform="translate(395.713489 552.597813)scale(0.14 -0.14)">
       <use xlink:href="#DejaVuSans-51"/>
       <use x="63.623047" xlink:href="#DejaVuSans-46"/>
       <use x="95.410156" xlink:href="#DejaVuSans-55"/>
      </g>
     </g>
    </g>
    <g id="xtick_5">
     <g id="line2d_7">
      <g>
       <use style="stroke:#000000;stroke-width:0.8;" x="501.558454" xlink:href="#m45d867f997" y="534.96"/>
      </g>
     </g>
     <g id="text_7">
      <!-- 3.8 -->
      <defs>
       <path d="M 31.78125 34.625 
Q 24.75 34.625 20.71875 30.859375 
Q 16.703125 27.09375 16.703125 20.515625 
Q 16.703125 13.921875 20.71875 10.15625 
Q 24.75 6.390625 31.78125 6.390625 
Q 38.8125 6.390625 42.859375 10.171875 
Q 46.921875 13.96875 46.921875 20.515625 
Q 46.921875 27.09375 42.890625 30.859375 
Q 38.875 34.625 31.78125 34.625 
z
M 21.921875 38.8125 
Q 15.578125 40.375 12.03125 44.71875 
Q 8.5 49.078125 8.5 55.328125 
Q 8.5 64.0625 14.71875 69.140625 
Q 20.953125 74.21875 31.78125 74.21875 
Q 42.671875 74.21875 48.875 69.140625 
Q 55.078125 64.0625 55.078125 55.328125 
Q 55.078125 49.078125 51.53125 44.71875 
Q 48 40.375 41.703125 38.8125 
Q 48.828125 37.15625 52.796875 32.3125 
Q 56.78125 27.484375 56.78125 20.515625 
Q 56.78125 9.90625 50.3125 4.234375 
Q 43.84375 -1.421875 31.78125 -1.421875 
Q 19.734375 -1.421875 13.25 4.234375 
Q 6.78125 9.90625 6.78125 20.515625 
Q 6.78125 27.484375 10.78125 32.3125 
Q 14.796875 37.15625 21.921875 38.8125 
z
M 18.3125 54.390625 
Q 18.3125 48.734375 21.84375 45.5625 
Q 25.390625 42.390625 31.78125 42.390625 
Q 38.140625 42.390625 41.71875 45.5625 
Q 45.3125 48.734375 45.3125 54.390625 
Q 45.3125 60.0625 41.71875 63.234375 
Q 38.140625 66.40625 31.78125 66.40625 
Q 25.390625 66.40625 21.84375 63.234375 
Q 18.3125 60.0625 18.3125 54.390625 
z
" id="DejaVuSans-56"/>
      </defs>
      <g transform="translate(490.426266 552.597813)scale(0.14 -0.14)">
       <use xlink:href="#DejaVuSans-51"/>
       <use x="63.623047" xlink:href="#DejaVuSans-46"/>
       <use x="95.410156" xlink:href="#DejaVuSans-56"/>
      </g>
     </g>
    </g>
   </g>
   <g id="line2d_8">
    <path clip-path="url(#pf4571fa4d3)" d="M 345.945361 534.96 
L 345.945361 410.22 
" style="fill:none;stroke:#ff6384;stroke-dasharray:5.55,2.4;stroke-dashoffset:0;stroke-opacity:0.8;stroke-width:1.5;"/>
   </g>
   <g id="line2d_9">
    <path clip-path="url(#pf4571fa4d3)" d="M 255.684084 534.96 
L 255.684084 410.22 
" style="fill:none;stroke:#36a2eb;stroke-dasharray:5.55,2.4;stroke-dashoffset:0;stroke-opacity:0.8;stroke-width:1.5;"/>
   </g>
   <g id="patch_10">
    <path d="M 36 534.96 
L 538.2 534.96 
" style="fill:none;stroke:#000000;stroke-linecap:square;stroke-linejoin:miter;stroke-width:0.8;"/>
   </g>
  </g>
 </g>
 <defs>
  <clipPath id="p0d38afe59a">
   <rect height="374.22" width="502.2" x="36" y="36"/>
  </clipPath>
  <clipPath id="pf4571fa4d3">
   <rect height="124.74" width="502.2" x="36" y="410.22"/>
  </clipPath>
 </defs>
</svg>
