<?xml version="1.0" encoding="utf-8" standalone="no"?>
<!DOCTYPE svg PUBLIC "-//W3C//DTD SVG 1.1//EN"
  "http://www.w3.org/Graphics/SVG/1.1/DTD/svg11.dtd">
<!-- Created with matplotlib (https://matplotlib.org/) -->
<svg height="581.789375pt" version="1.1" viewBox="0 0 574.2 581.789375" width="574.2pt" xmlns="http://www.w3.org/2000/svg" xmlns:xlink="http://www.w3.org/1999/xlink">
 <defs>
  <style type="text/css">
*{stroke-linecap:butt;stroke-linejoin:round;}
  </style>
 </defs>
 <g id="figure_1">
  <g id="patch_1">
   <path d="M 0 581.789375 
L 574.2 581.789375 
L 574.2 0 
L 0 0 
z
" style="fill:none;"/>
  </g>
  <g id="axes_1">
   <g id="patch_2">
    <path d="M 36 402.93 
L 538.2 402.93 
L 538.2 36 
L 36 36 
z
" style="fill:none;"/>
   </g>
   <g id="PolyCollection_1">
    <defs>
     <path d="M 168.383721 -195.538011 
L 168.383721 -195.650004 
L 171.888661 -195.692234 
L 175.3936 -195.749007 
L 178.89854 -195.8248 
L 182.403479 -195.925281 
L 185.908419 -196.057565 
L 189.413358 -196.230497 
L 192.918298 -196.454982 
L 196.423237 -196.744335 
L 199.928177 -197.114666 
L 203.433116 -197.585273 
L 206.938055 -198.179047 
L 210.442995 -198.922859 
L 213.947934 -199.847921 
L 217.452874 -200.990079 
L 220.957813 -202.390029 
L 224.462753 -204.093399 
L 227.967692 -206.150691 
L 231.472632 -208.617009 
L 234.977571 -211.551575 
L 238.48251 -215.016962 
L 241.98745 -219.078053 
L 245.492389 -223.800667 
L 248.997329 -229.249878 
L 252.502268 -235.488004 
L 256.007208 -242.572312 
L 259.512147 -250.552459 
L 263.017087 -259.467747 
L 266.522026 -269.344261 
L 270.026966 -280.192004 
L 273.531905 -292.002137 
L 277.036844 -304.744465 
L 280.541784 -318.365297 
L 284.046723 -332.785841 
L 287.551663 -347.901251 
L 291.056602 -363.580456 
L 294.561542 -379.666871 
L 298.066481 -395.980052 
L 301.571421 -412.31833 
L 305.07636 -428.4624 
L 308.5813 -444.179822 
L 312.086239 -459.230303 
L 315.591178 -473.371627 
L 319.096118 -486.366018 
L 322.601057 -497.986726 
L 326.105997 -508.02457 
L 329.610936 -516.294181 
L 333.115876 -522.639693 
L 336.620815 -526.939623 
L 340.125755 -529.110739 
L 343.630694 -529.110739 
L 347.135634 -526.939623 
L 350.640573 -522.639693 
L 354.145512 -516.294181 
L 357.650452 -508.02457 
L 361.155391 -497.986726 
L 364.660331 -486.366018 
L 368.16527 -473.371627 
L 371.67021 -459.230303 
L 375.175149 -444.179822 
L 378.680089 -428.4624 
L 382.185028 -412.31833 
L 385.689968 -395.980052 
L 389.194907 -379.666871 
L 392.699846 -363.580456 
L 396.204786 -347.901251 
L 399.709725 -332.785841 
L 403.214665 -318.365297 
L 406.719604 -304.744465 
L 410.224544 -292.002137 
L 413.729483 -280.192004 
L 417.234423 -269.344261 
L 420.739362 -259.467747 
L 424.244301 -250.552459 
L 427.749241 -242.572312 
L 431.25418 -235.488004 
L 434.75912 -229.249878 
L 438.264059 -223.800667 
L 441.768999 -219.078053 
L 445.273938 -215.016962 
L 448.778878 -211.551575 
L 452.283817 -208.617009 
L 455.788757 -206.150691 
L 459.293696 -204.093399 
L 462.798635 -202.390029 
L 466.303575 -200.990079 
L 469.808514 -199.847921 
L 473.313454 -198.922859 
L 476.818393 -198.179047 
L 480.323333 -197.585273 
L 483.828272 -197.114666 
L 487.333212 -196.744335 
L 490.838151 -196.454982 
L 494.343091 -196.230497 
L 497.84803 -196.057565 
L 501.352969 -195.925281 
L 504.857909 -195.8248 
L 508.362848 -195.749007 
L 511.867788 -195.692234 
L 515.372727 -195.650004 
L 515.372727 -195.538011 
L 515.372727 -195.538011 
L 511.867788 -195.538011 
L 508.362848 -195.538011 
L 504.857909 -195.538011 
L 501.352969 -195.538011 
L 497.84803 -195.538011 
L 494.343091 -195.538011 
L 490.838151 -195.538011 
L 487.333212 -195.538011 
L 483.828272 -195.538011 
L 480.323333 -195.538011 
L 476.818393 -195.538011 
L 473.313454 -195.538011 
L 469.808514 -195.538011 
L 466.303575 -195.538011 
L 462.798635 -195.538011 
L 459.293696 -195.538011 
L 455.788757 -195.538011 
L 452.283817 -195.538011 
L 448.778878 -195.538011 
L 445.273938 -195.538011 
L 441.768999 -195.538011 
L 438.264059 -195.538011 
L 434.75912 -195.538011 
L 431.25418 -195.538011 
L 427.749241 -195.538011 
L 424.244301 -195.538011 
L 420.739362 -195.538011 
L 417.234423 -195.538011 
L 413.729483 -195.538011 
L 410.224544 -195.538011 
L 406.719604 -195.538011 
L 403.214665 -195.538011 
L 399.709725 -195.538011 
L 396.204786 -195.538011 
L 392.699846 -195.538011 
L 389.194907 -195.538011 
L 385.689968 -195.538011 
L 382.185028 -195.538011 
L 378.680089 -195.538011 
L 375.175149 -195.538011 
L 371.67021 -195.538011 
L 368.16527 -195.538011 
L 364.660331 -195.538011 
L 361.155391 -195.538011 
L 357.650452 -195.538011 
L 354.145512 -195.538011 
L 350.640573 -195.538011 
L 347.135634 -195.538011 
L 343.630694 -195.538011 
L 340.125755 -195.538011 
L 336.620815 -195.538011 
L 333.115876 -195.538011 
L 329.610936 -195.538011 
L 326.105997 -195.538011 
L 322.601057 -195.538011 
L 319.096118 -195.538011 
L 315.591178 -195.538011 
L 312.086239 -195.538011 
L 308.5813 -195.538011 
L 305.07636 -195.538011 
L 301.571421 -195.538011 
L 298.066481 -195.538011 
L 294.561542 -195.538011 
L 291.056602 -195.538011 
L 287.551663 -195.538011 
L 284.046723 -195.538011 
L 280.541784 -195.538011 
L 277.036844 -195.538011 
L 273.531905 -195.538011 
L 270.026966 -195.538011 
L 266.522026 -195.538011 
L 263.017087 -195.538011 
L 259.512147 -195.538011 
L 256.007208 -195.538011 
L 252.502268 -195.538011 
L 248.997329 -195.538011 
L 245.492389 -195.538011 
L 241.98745 -195.538011 
L 238.48251 -195.538011 
L 234.977571 -195.538011 
L 231.472632 -195.538011 
L 227.967692 -195.538011 
L 224.462753 -195.538011 
L 220.957813 -195.538011 
L 217.452874 -195.538011 
L 213.947934 -195.538011 
L 210.442995 -195.538011 
L 206.938055 -195.538011 
L 203.433116 -195.538011 
L 199.928177 -195.538011 
L 196.423237 -195.538011 
L 192.918298 -195.538011 
L 189.413358 -195.538011 
L 185.908419 -195.538011 
L 182.403479 -195.538011 
L 178.89854 -195.538011 
L 175.3936 -195.538011 
L 171.888661 -195.538011 
L 168.383721 -195.538011 
z
" id="m2bcc51760f" style="stroke:#ff6384;stroke-opacity:0.5;"/>
    </defs>
    <g clip-path="url(#pf8e3dadb2d)">
     <use style="fill:#ff6384;fill-opacity:0.5;stroke:#ff6384;stroke-opacity:0.5;" x="0" xlink:href="#m2bcc51760f" y="581.789375"/>
    </g>
   </g>
   <g id="PolyCollection_2">
    <defs>
     <path d="M 58.827273 -195.538011 
L 58.827273 -195.634399 
L 62.899644 -195.670745 
L 66.972016 -195.719607 
L 71.044388 -195.78484 
L 75.116759 -195.87132 
L 79.189131 -195.985172 
L 83.261503 -196.134008 
L 87.333874 -196.327214 
L 91.406246 -196.57625 
L 95.478617 -196.89498 
L 99.550989 -197.300014 
L 103.623361 -197.811053 
L 107.695732 -198.451224 
L 111.768104 -199.247391 
L 115.840476 -200.230404 
L 119.912847 -201.435289 
L 123.985219 -202.901317 
L 128.057591 -204.671952 
L 132.129962 -206.794621 
L 136.202334 -209.320292 
L 140.274706 -212.302823 
L 144.347077 -215.798053 
L 148.419449 -219.862633 
L 152.49182 -224.552566 
L 156.564192 -229.921491 
L 160.636564 -236.018692 
L 164.708935 -242.886909 
L 168.781307 -250.559967 
L 172.853679 -259.060317 
L 176.92605 -268.396567 
L 180.998422 -278.561112 
L 185.070794 -289.527962 
L 189.143165 -301.250907 
L 193.215537 -313.662136 
L 197.287908 -326.671409 
L 201.36028 -340.16592 
L 205.432652 -354.010902 
L 209.505023 -368.051053 
L 213.577395 -382.112803 
L 217.649767 -396.007406 
L 221.722138 -409.534809 
L 225.79451 -422.488201 
L 229.866882 -434.659115 
L 233.939253 -445.842906 
L 238.011625 -455.844419 
L 242.083996 -464.483619 
L 246.156368 -471.600968 
L 250.22874 -477.062315 
L 254.301111 -480.763105 
L 258.373483 -482.631704 
L 262.445855 -482.631704 
L 266.518226 -480.763105 
L 270.590598 -477.062315 
L 274.66297 -471.600968 
L 278.735341 -464.483619 
L 282.807713 -455.844419 
L 286.880085 -445.842906 
L 290.952456 -434.659115 
L 295.024828 -422.488201 
L 299.097199 -409.534809 
L 303.169571 -396.007406 
L 307.241943 -382.112803 
L 311.314314 -368.051053 
L 315.386686 -354.010902 
L 319.459058 -340.16592 
L 323.531429 -326.671409 
L 327.603801 -313.662136 
L 331.676173 -301.250907 
L 335.748544 -289.527962 
L 339.820916 -278.561112 
L 343.893287 -268.396567 
L 347.965659 -259.060317 
L 352.038031 -250.559967 
L 356.110402 -242.886909 
L 360.182774 -236.018692 
L 364.255146 -229.921491 
L 368.327517 -224.552566 
L 372.399889 -219.862633 
L 376.472261 -215.798053 
L 380.544632 -212.302823 
L 384.617004 -209.320292 
L 388.689376 -206.794621 
L 392.761747 -204.671952 
L 396.834119 -202.901317 
L 400.90649 -201.435289 
L 404.978862 -200.230404 
L 409.051234 -199.247391 
L 413.123605 -198.451224 
L 417.195977 -197.811053 
L 421.268349 -197.300014 
L 425.34072 -196.89498 
L 429.413092 -196.57625 
L 433.485464 -196.327214 
L 437.557835 -196.134008 
L 441.630207 -195.985172 
L 445.702578 -195.87132 
L 449.77495 -195.78484 
L 453.847322 -195.719607 
L 457.919693 -195.670745 
L 461.992065 -195.634399 
L 461.992065 -195.538011 
L 461.992065 -195.538011 
L 457.919693 -195.538011 
L 453.847322 -195.538011 
L 449.77495 -195.538011 
L 445.702578 -195.538011 
L 441.630207 -195.538011 
L 437.557835 -195.538011 
L 433.485464 -195.538011 
L 429.413092 -195.538011 
L 425.34072 -195.538011 
L 421.268349 -195.538011 
L 417.195977 -195.538011 
L 413.123605 -195.538011 
L 409.051234 -195.538011 
L 404.978862 -195.538011 
L 400.90649 -195.538011 
L 396.834119 -195.538011 
L 392.761747 -195.538011 
L 388.689376 -195.538011 
L 384.617004 -195.538011 
L 380.544632 -195.538011 
L 376.472261 -195.538011 
L 372.399889 -195.538011 
L 368.327517 -195.538011 
L 364.255146 -195.538011 
L 360.182774 -195.538011 
L 356.110402 -195.538011 
L 352.038031 -195.538011 
L 347.965659 -195.538011 
L 343.893287 -195.538011 
L 339.820916 -195.538011 
L 335.748544 -195.538011 
L 331.676173 -195.538011 
L 327.603801 -195.538011 
L 323.531429 -195.538011 
L 319.459058 -195.538011 
L 315.386686 -195.538011 
L 311.314314 -195.538011 
L 307.241943 -195.538011 
L 303.169571 -195.538011 
L 299.097199 -195.538011 
L 295.024828 -195.538011 
L 290.952456 -195.538011 
L 286.880085 -195.538011 
L 282.807713 -195.538011 
L 278.735341 -195.538011 
L 274.66297 -195.538011 
L 270.590598 -195.538011 
L 266.518226 -195.538011 
L 262.445855 -195.538011 
L 258.373483 -195.538011 
L 254.301111 -195.538011 
L 250.22874 -195.538011 
L 246.156368 -195.538011 
L 242.083996 -195.538011 
L 238.011625 -195.538011 
L 233.939253 -195.538011 
L 229.866882 -195.538011 
L 225.79451 -195.538011 
L 221.722138 -195.538011 
L 217.649767 -195.538011 
L 213.577395 -195.538011 
L 209.505023 -195.538011 
L 205.432652 -195.538011 
L 201.36028 -195.538011 
L 197.287908 -195.538011 
L 193.215537 -195.538011 
L 189.143165 -195.538011 
L 185.070794 -195.538011 
L 180.998422 -195.538011 
L 176.92605 -195.538011 
L 172.853679 -195.538011 
L 168.781307 -195.538011 
L 164.708935 -195.538011 
L 160.636564 -195.538011 
L 156.564192 -195.538011 
L 152.49182 -195.538011 
L 148.419449 -195.538011 
L 144.347077 -195.538011 
L 140.274706 -195.538011 
L 136.202334 -195.538011 
L 132.129962 -195.538011 
L 128.057591 -195.538011 
L 123.985219 -195.538011 
L 119.912847 -195.538011 
L 115.840476 -195.538011 
L 111.768104 -195.538011 
L 107.695732 -195.538011 
L 103.623361 -195.538011 
L 99.550989 -195.538011 
L 95.478617 -195.538011 
L 91.406246 -195.538011 
L 87.333874 -195.538011 
L 83.261503 -195.538011 
L 79.189131 -195.538011 
L 75.116759 -195.538011 
L 71.044388 -195.538011 
L 66.972016 -195.538011 
L 62.899644 -195.538011 
L 58.827273 -195.538011 
z
" id="m50e1a63e74" style="stroke:#36a2eb;stroke-opacity:0.5;"/>
    </defs>
    <g clip-path="url(#pf8e3dadb2d)">
     <use style="fill:#36a2eb;fill-opacity:0.5;stroke:#36a2eb;stroke-opacity:0.5;" x="0" xlink:href="#m50e1a63e74" y="581.789375"/>
    </g>
   </g>
   <g id="line2d_1">
    <path clip-path="url(#pf8e3dadb2d)" d="M 168.383721 386.139371 
L 171.888661 386.097141 
L 175.3936 386.040368 
L 178.89854 385.964575 
L 182.403479 385.864094 
L 185.908419 385.73181 
L 189.413358 385.558878 
L 192.918298 385.334393 
L 196.423237 385.04504 
L 199.928177 384.674709 
L 203.433116 384.204102 
L 206.938055 383.610328 
L 210.442995 382.866516 
L 213.947934 381.941454 
L 217.452874 380.799296 
L 220.957813 379.399346 
L 224.462753 377.695976 
L 227.967692 375.638684 
L 231.472632 373.172366 
L 234.977571 370.2378 
L 238.48251 366.772413 
L 241.98745 362.711322 
L 245.492389 357.988708 
L 248.997329 352.539497 
L 252.502268 346.301371 
L 256.007208 339.217063 
L 259.512147 331.236916 
L 263.017087 322.321628 
L 266.522026 312.445114 
L 270.026966 301.597371 
L 273.531905 289.787238 
L 277.036844 277.04491 
L 280.541784 263.424078 
L 284.046723 249.003534 
L 287.551663 233.888124 
L 291.056602 218.208919 
L 294.561542 202.122504 
L 298.066481 185.809323 
L 301.571421 169.471045 
L 305.07636 153.326975 
L 308.5813 137.609553 
L 312.086239 122.559072 
L 315.591178 108.417748 
L 319.096118 95.423357 
L 322.601057 83.802649 
L 326.105997 73.764805 
L 329.610936 65.495194 
L 333.115876 59.149682 
L 336.620815 54.849752 
L 340.125755 52.678636 
L 343.630694 52.678636 
L 347.135634 54.849752 
L 350.640573 59.149682 
L 354.145512 65.495194 
L 357.650452 73.764805 
L 361.155391 83.802649 
L 364.660331 95.423357 
L 368.16527 108.417748 
L 371.67021 122.559072 
L 375.175149 137.609553 
L 378.680089 153.326975 
L 382.185028 169.471045 
L 385.689968 185.809323 
L 389.194907 202.122504 
L 392.699846 218.208919 
L 396.204786 233.888124 
L 399.709725 249.003534 
L 403.214665 263.424078 
L 406.719604 277.04491 
L 410.224544 289.787238 
L 413.729483 301.597371 
L 417.234423 312.445114 
L 420.739362 322.321628 
L 424.244301 331.236916 
L 427.749241 339.217063 
L 431.25418 346.301371 
L 434.75912 352.539497 
L 438.264059 357.988708 
L 441.768999 362.711322 
L 445.273938 366.772413 
L 448.778878 370.2378 
L 452.283817 373.172366 
L 455.788757 375.638684 
L 459.293696 377.695976 
L 462.798635 379.399346 
L 466.303575 380.799296 
L 469.808514 381.941454 
L 473.313454 382.866516 
L 476.818393 383.610328 
L 480.323333 384.204102 
L 483.828272 384.674709 
L 487.333212 385.04504 
L 490.838151 385.334393 
L 494.343091 385.558878 
L 497.84803 385.73181 
L 501.352969 385.864094 
L 504.857909 385.964575 
L 508.362848 386.040368 
L 511.867788 386.097141 
L 515.372727 386.139371 
" style="fill:none;stroke:#ff6384;stroke-linecap:square;"/>
   </g>
   <g id="line2d_2">
    <path clip-path="url(#pf8e3dadb2d)" d="M 58.827273 386.154976 
L 62.899644 386.11863 
L 66.972016 386.069768 
L 71.044388 386.004535 
L 75.116759 385.918055 
L 79.189131 385.804203 
L 83.261503 385.655367 
L 87.333874 385.462161 
L 91.406246 385.213125 
L 95.478617 384.894395 
L 99.550989 384.489361 
L 103.623361 383.978322 
L 107.695732 383.338151 
L 111.768104 382.541984 
L 115.840476 381.558971 
L 119.912847 380.354086 
L 123.985219 378.888058 
L 128.057591 377.117423 
L 132.129962 374.994754 
L 136.202334 372.469083 
L 140.274706 369.486552 
L 144.347077 365.991322 
L 148.419449 361.926742 
L 152.49182 357.236809 
L 156.564192 351.867884 
L 160.636564 345.770683 
L 164.708935 338.902466 
L 168.781307 331.229408 
L 172.853679 322.729058 
L 176.92605 313.392808 
L 180.998422 303.228263 
L 185.070794 292.261413 
L 189.143165 280.538468 
L 193.215537 268.127239 
L 197.287908 255.117966 
L 201.36028 241.623455 
L 205.432652 227.778473 
L 209.505023 213.738322 
L 213.577395 199.676572 
L 217.649767 185.781969 
L 221.722138 172.254566 
L 225.79451 159.301174 
L 229.866882 147.13026 
L 233.939253 135.946469 
L 238.011625 125.944956 
L 242.083996 117.305756 
L 246.156368 110.188407 
L 250.22874 104.72706 
L 254.301111 101.02627 
L 258.373483 99.157671 
L 262.445855 99.157671 
L 266.518226 101.02627 
L 270.590598 104.72706 
L 274.66297 110.188407 
L 278.735341 117.305756 
L 282.807713 125.944956 
L 286.880085 135.946469 
L 290.952456 147.13026 
L 295.024828 159.301174 
L 299.097199 172.254566 
L 303.169571 185.781969 
L 307.241943 199.676572 
L 311.314314 213.738322 
L 315.386686 227.778473 
L 319.459058 241.623455 
L 323.531429 255.117966 
L 327.603801 268.127239 
L 331.676173 280.538468 
L 335.748544 292.261413 
L 339.820916 303.228263 
L 343.893287 313.392808 
L 347.965659 322.729058 
L 352.038031 331.229408 
L 356.110402 338.902466 
L 360.182774 345.770683 
L 364.255146 351.867884 
L 368.327517 357.236809 
L 372.399889 361.926742 
L 376.472261 365.991322 
L 380.544632 369.486552 
L 384.617004 372.469083 
L 388.689376 374.994754 
L 392.761747 377.117423 
L 396.834119 378.888058 
L 400.90649 380.354086 
L 404.978862 381.558971 
L 409.051234 382.541984 
L 413.123605 383.338151 
L 417.195977 383.978322 
L 421.268349 384.489361 
L 425.34072 384.894395 
L 429.413092 385.213125 
L 433.485464 385.462161 
L 437.557835 385.655367 
L 441.630207 385.804203 
L 445.702578 385.918055 
L 449.77495 386.004535 
L 453.847322 386.069768 
L 457.919693 386.11863 
L 461.992065 386.154976 
" style="fill:none;stroke:#36a2eb;stroke-linecap:square;"/>
   </g>
   <g id="patch_3">
    <path d="M 36 402.93 
L 538.2 402.93 
" style="fill:none;stroke:#000000;stroke-linecap:square;stroke-linejoin:miter;stroke-width:0.8;"/>
   </g>
   <g id="legend_1">
    <g id="patch_4">
     <path d="M 414.919063 88.29875 
L 528.4 88.29875 
Q 531.2 88.29875 531.2 85.49875 
L 531.2 45.8 
Q 531.2 43 528.4 43 
L 414.919063 43 
Q 412.119063 43 412.119063 45.8 
L 412.119063 85.49875 
Q 412.119063 88.29875 414.919063 88.29875 
z
" style="fill:#ffffff;opacity:0.8;stroke:#cccccc;stroke-linejoin:miter;"/>
    </g>
    <g id="patch_5">
     <path d="M 417.719063 59.237813 
L 445.719063 59.237813 
L 445.719063 49.437813 
L 417.719063 49.437813 
z
" style="fill:#ff6384;opacity:0.5;stroke:#ff6384;stroke-linejoin:miter;"/>
    </g>
    <g id="text_1">
     <!-- sidemenu -->
     <defs>
      <path d="M 44.28125 53.078125 
L 44.28125 44.578125 
Q 40.484375 46.53125 36.375 47.5 
Q 32.28125 48.484375 27.875 48.484375 
Q 21.1875 48.484375 17.84375 46.4375 
Q 14.5 44.390625 14.5 40.28125 
Q 14.5 37.15625 16.890625 35.375 
Q 19.28125 33.59375 26.515625 31.984375 
L 29.59375 31.296875 
Q 39.15625 29.25 43.1875 25.515625 
Q 47.21875 21.78125 47.21875 15.09375 
Q 47.21875 7.46875 41.1875 3.015625 
Q 35.15625 -1.421875 24.609375 -1.421875 
Q 20.21875 -1.421875 15.453125 -0.5625 
Q 10.6875 0.296875 5.421875 2 
L 5.421875 11.28125 
Q 10.40625 8.6875 15.234375 7.390625 
Q 20.0625 6.109375 24.8125 6.109375 
Q 31.15625 6.109375 34.5625 8.28125 
Q 37.984375 10.453125 37.984375 14.40625 
Q 37.984375 18.0625 35.515625 20.015625 
Q 33.0625 21.96875 24.703125 23.78125 
L 21.578125 24.515625 
Q 13.234375 26.265625 9.515625 29.90625 
Q 5.8125 33.546875 5.8125 39.890625 
Q 5.8125 47.609375 11.28125 51.796875 
Q 16.75 56 26.8125 56 
Q 31.78125 56 36.171875 55.265625 
Q 40.578125 54.546875 44.28125 53.078125 
z
" id="DejaVuSans-115"/>
      <path d="M 9.421875 54.6875 
L 18.40625 54.6875 
L 18.40625 0 
L 9.421875 0 
z
M 9.421875 75.984375 
L 18.40625 75.984375 
L 18.40625 64.59375 
L 9.421875 64.59375 
z
" id="DejaVuSans-105"/>
      <path d="M 45.40625 46.390625 
L 45.40625 75.984375 
L 54.390625 75.984375 
L 54.390625 0 
L 45.40625 0 
L 45.40625 8.203125 
Q 42.578125 3.328125 38.25 0.953125 
Q 33.9375 -1.421875 27.875 -1.421875 
Q 17.96875 -1.421875 11.734375 6.484375 
Q 5.515625 14.40625 5.515625 27.296875 
Q 5.515625 40.1875 11.734375 48.09375 
Q 17.96875 56 27.875 56 
Q 33.9375 56 38.25 53.625 
Q 42.578125 51.265625 45.40625 46.390625 
z
M 14.796875 27.296875 
Q 14.796875 17.390625 18.875 11.75 
Q 22.953125 6.109375 30.078125 6.109375 
Q 37.203125 6.109375 41.296875 11.75 
Q 45.40625 17.390625 45.40625 27.296875 
Q 45.40625 37.203125 41.296875 42.84375 
Q 37.203125 48.484375 30.078125 48.484375 
Q 22.953125 48.484375 18.875 42.84375 
Q 14.796875 37.203125 14.796875 27.296875 
z
" id="DejaVuSans-100"/>
      <path d="M 56.203125 29.59375 
L 56.203125 25.203125 
L 14.890625 25.203125 
Q 15.484375 15.921875 20.484375 11.0625 
Q 25.484375 6.203125 34.421875 6.203125 
Q 39.59375 6.203125 44.453125 7.46875 
Q 49.3125 8.734375 54.109375 11.28125 
L 54.109375 2.78125 
Q 49.265625 0.734375 44.1875 -0.34375 
Q 39.109375 -1.421875 33.890625 -1.421875 
Q 20.796875 -1.421875 13.15625 6.1875 
Q 5.515625 13.8125 5.515625 26.8125 
Q 5.515625 40.234375 12.765625 48.109375 
Q 20.015625 56 32.328125 56 
Q 43.359375 56 49.78125 48.890625 
Q 56.203125 41.796875 56.203125 29.59375 
z
M 47.21875 32.234375 
Q 47.125 39.59375 43.09375 43.984375 
Q 39.0625 48.390625 32.421875 48.390625 
Q 24.90625 48.390625 20.390625 44.140625 
Q 15.875 39.890625 15.1875 32.171875 
z
" id="DejaVuSans-101"/>
      <path d="M 52 44.1875 
Q 55.375 50.25 60.0625 53.125 
Q 64.75 56 71.09375 56 
Q 79.640625 56 84.28125 50.015625 
Q 88.921875 44.046875 88.921875 33.015625 
L 88.921875 0 
L 79.890625 0 
L 79.890625 32.71875 
Q 79.890625 40.578125 77.09375 44.375 
Q 74.3125 48.1875 68.609375 48.1875 
Q 61.625 48.1875 57.5625 43.546875 
Q 53.515625 38.921875 53.515625 30.90625 
L 53.515625 0 
L 44.484375 0 
L 44.484375 32.71875 
Q 44.484375 40.625 41.703125 44.40625 
Q 38.921875 48.1875 33.109375 48.1875 
Q 26.21875 48.1875 22.15625 43.53125 
Q 18.109375 38.875 18.109375 30.90625 
L 18.109375 0 
L 9.078125 0 
L 9.078125 54.6875 
L 18.109375 54.6875 
L 18.109375 46.1875 
Q 21.1875 51.21875 25.484375 53.609375 
Q 29.78125 56 35.6875 56 
Q 41.65625 56 45.828125 52.96875 
Q 50 49.953125 52 44.1875 
z
" id="DejaVuSans-109"/>
      <path d="M 54.890625 33.015625 
L 54.890625 0 
L 45.90625 0 
L 45.90625 32.71875 
Q 45.90625 40.484375 42.875 44.328125 
Q 39.84375 48.1875 33.796875 48.1875 
Q 26.515625 48.1875 22.3125 43.546875 
Q 18.109375 38.921875 18.109375 30.90625 
L 18.109375 0 
L 9.078125 0 
L 9.078125 54.6875 
L 18.109375 54.6875 
L 18.109375 46.1875 
Q 21.34375 51.125 25.703125 53.5625 
Q 30.078125 56 35.796875 56 
Q 45.21875 56 50.046875 50.171875 
Q 54.890625 44.34375 54.890625 33.015625 
z
" id="DejaVuSans-110"/>
      <path d="M 8.5 21.578125 
L 8.5 54.6875 
L 17.484375 54.6875 
L 17.484375 21.921875 
Q 17.484375 14.15625 20.5 10.265625 
Q 23.53125 6.390625 29.59375 6.390625 
Q 36.859375 6.390625 41.078125 11.03125 
Q 45.3125 15.671875 45.3125 23.6875 
L 45.3125 54.6875 
L 54.296875 54.6875 
L 54.296875 0 
L 45.3125 0 
L 45.3125 8.40625 
Q 42.046875 3.421875 37.71875 1 
Q 33.40625 -1.421875 27.6875 -1.421875 
Q 18.265625 -1.421875 13.375 4.4375 
Q 8.5 10.296875 8.5 21.578125 
z
M 31.109375 56 
z
" id="DejaVuSans-117"/>
     </defs>
     <g transform="translate(456.919063 59.237813)scale(0.14 -0.14)">
      <use xlink:href="#DejaVuSans-115"/>
      <use x="52.099609" xlink:href="#DejaVuSans-105"/>
      <use x="79.882812" xlink:href="#DejaVuSans-100"/>
      <use x="143.359375" xlink:href="#DejaVuSans-101"/>
      <use x="204.882812" xlink:href="#DejaVuSans-109"/>
      <use x="302.294922" xlink:href="#DejaVuSans-101"/>
      <use x="363.818359" xlink:href="#DejaVuSans-110"/>
      <use x="427.197266" xlink:href="#DejaVuSans-117"/>
     </g>
    </g>
    <g id="patch_6">
     <path d="M 417.719063 79.787188 
L 445.719063 79.787188 
L 445.719063 69.987188 
L 417.719063 69.987188 
z
" style="fill:#36a2eb;opacity:0.5;stroke:#36a2eb;stroke-linejoin:miter;"/>
    </g>
    <g id="text_2">
     <!-- tabbar -->
     <defs>
      <path d="M 18.3125 70.21875 
L 18.3125 54.6875 
L 36.8125 54.6875 
L 36.8125 47.703125 
L 18.3125 47.703125 
L 18.3125 18.015625 
Q 18.3125 11.328125 20.140625 9.421875 
Q 21.96875 7.515625 27.59375 7.515625 
L 36.8125 7.515625 
L 36.8125 0 
L 27.59375 0 
Q 17.1875 0 13.234375 3.875 
Q 9.28125 7.765625 9.28125 18.015625 
L 9.28125 47.703125 
L 2.6875 47.703125 
L 2.6875 54.6875 
L 9.28125 54.6875 
L 9.28125 70.21875 
z
" id="DejaVuSans-116"/>
      <path d="M 34.28125 27.484375 
Q 23.390625 27.484375 19.1875 25 
Q 14.984375 22.515625 14.984375 16.5 
Q 14.984375 11.71875 18.140625 8.90625 
Q 21.296875 6.109375 26.703125 6.109375 
Q 34.1875 6.109375 38.703125 11.40625 
Q 43.21875 16.703125 43.21875 25.484375 
L 43.21875 27.484375 
z
M 52.203125 31.203125 
L 52.203125 0 
L 43.21875 0 
L 43.21875 8.296875 
Q 40.140625 3.328125 35.546875 0.953125 
Q 30.953125 -1.421875 24.3125 -1.421875 
Q 15.921875 -1.421875 10.953125 3.296875 
Q 6 8.015625 6 15.921875 
Q 6 25.140625 12.171875 29.828125 
Q 18.359375 34.515625 30.609375 34.515625 
L 43.21875 34.515625 
L 43.21875 35.40625 
Q 43.21875 41.609375 39.140625 45 
Q 35.0625 48.390625 27.6875 48.390625 
Q 23 48.390625 18.546875 47.265625 
Q 14.109375 46.140625 10.015625 43.890625 
L 10.015625 52.203125 
Q 14.9375 54.109375 19.578125 55.046875 
Q 24.21875 56 28.609375 56 
Q 40.484375 56 46.34375 49.84375 
Q 52.203125 43.703125 52.203125 31.203125 
z
" id="DejaVuSans-97"/>
      <path d="M 48.6875 27.296875 
Q 48.6875 37.203125 44.609375 42.84375 
Q 40.53125 48.484375 33.40625 48.484375 
Q 26.265625 48.484375 22.1875 42.84375 
Q 18.109375 37.203125 18.109375 27.296875 
Q 18.109375 17.390625 22.1875 11.75 
Q 26.265625 6.109375 33.40625 6.109375 
Q 40.53125 6.109375 44.609375 11.75 
Q 48.6875 17.390625 48.6875 27.296875 
z
M 18.109375 46.390625 
Q 20.953125 51.265625 25.265625 53.625 
Q 29.59375 56 35.59375 56 
Q 45.5625 56 51.78125 48.09375 
Q 58.015625 40.1875 58.015625 27.296875 
Q 58.015625 14.40625 51.78125 6.484375 
Q 45.5625 -1.421875 35.59375 -1.421875 
Q 29.59375 -1.421875 25.265625 0.953125 
Q 20.953125 3.328125 18.109375 8.203125 
L 18.109375 0 
L 9.078125 0 
L 9.078125 75.984375 
L 18.109375 75.984375 
z
" id="DejaVuSans-98"/>
      <path d="M 41.109375 46.296875 
Q 39.59375 47.171875 37.8125 47.578125 
Q 36.03125 48 33.890625 48 
Q 26.265625 48 22.1875 43.046875 
Q 18.109375 38.09375 18.109375 28.8125 
L 18.109375 0 
L 9.078125 0 
L 9.078125 54.6875 
L 18.109375 54.6875 
L 18.109375 46.1875 
Q 20.953125 51.171875 25.484375 53.578125 
Q 30.03125 56 36.53125 56 
Q 37.453125 56 38.578125 55.875 
Q 39.703125 55.765625 41.0625 55.515625 
z
" id="DejaVuSans-114"/>
     </defs>
     <g transform="translate(456.919063 79.787188)scale(0.14 -0.14)">
      <use xlink:href="#DejaVuSans-116"/>
      <use x="39.208984" xlink:href="#DejaVuSans-97"/>
      <use x="100.488281" xlink:href="#DejaVuSans-98"/>
      <use x="163.964844" xlink:href="#DejaVuSans-98"/>
      <use x="227.441406" xlink:href="#DejaVuSans-97"/>
      <use x="288.720703" xlink:href="#DejaVuSans-114"/>
     </g>
    </g>
   </g>
  </g>
  <g id="axes_2">
   <g id="patch_7">
    <path d="M 36 525.24 
L 538.2 525.24 
L 538.2 402.93 
L 36 402.93 
z
" style="fill:none;"/>
   </g>
   <g id="patch_8">
    <path clip-path="url(#pf9fa7865b3)" d="M 256.865918 519.680455 
L 426.890531 519.680455 
L 426.890531 482.616818 
L 256.865918 482.616818 
z
" style="fill:#ff6384;opacity:0.5;"/>
   </g>
   <g id="patch_9">
    <path clip-path="url(#pf9fa7865b3)" d="M 161.634295 445.553182 
L 359.185043 445.553182 
L 359.185043 408.489545 
L 161.634295 408.489545 
z
" style="fill:#36a2eb;opacity:0.5;"/>
   </g>
   <g id="matplotlib.axis_1">
    <g id="xtick_1">
     <g id="line2d_3">
      <defs>
       <path d="M 0 0 
L 0 3.5 
" id="m4f295a6c26" style="stroke:#000000;stroke-width:0.8;"/>
      </defs>
      <g>
       <use style="stroke:#000000;stroke-width:0.8;" x="105.134482" xlink:href="#m4f295a6c26" y="525.24"/>
      </g>
     </g>
     <g id="text_3">
      <!-- 3.4 -->
      <defs>
       <path d="M 40.578125 39.3125 
Q 47.65625 37.796875 51.625 33 
Q 55.609375 28.21875 55.609375 21.1875 
Q 55.609375 10.40625 48.1875 4.484375 
Q 40.765625 -1.421875 27.09375 -1.421875 
Q 22.515625 -1.421875 17.65625 -0.515625 
Q 12.796875 0.390625 7.625 2.203125 
L 7.625 11.71875 
Q 11.71875 9.328125 16.59375 8.109375 
Q 21.484375 6.890625 26.8125 6.890625 
Q 36.078125 6.890625 40.9375 10.546875 
Q 45.796875 14.203125 45.796875 21.1875 
Q 45.796875 27.640625 41.28125 31.265625 
Q 36.765625 34.90625 28.71875 34.90625 
L 20.21875 34.90625 
L 20.21875 43.015625 
L 29.109375 43.015625 
Q 36.375 43.015625 40.234375 45.921875 
Q 44.09375 48.828125 44.09375 54.296875 
Q 44.09375 59.90625 40.109375 62.90625 
Q 36.140625 65.921875 28.71875 65.921875 
Q 24.65625 65.921875 20.015625 65.03125 
Q 15.375 64.15625 9.8125 62.3125 
L 9.8125 71.09375 
Q 15.4375 72.65625 20.34375 73.4375 
Q 25.25 74.21875 29.59375 74.21875 
Q 40.828125 74.21875 47.359375 69.109375 
Q 53.90625 64.015625 53.90625 55.328125 
Q 53.90625 49.265625 50.4375 45.09375 
Q 46.96875 40.921875 40.578125 39.3125 
z
" id="DejaVuSans-51"/>
       <path d="M 10.6875 12.40625 
L 21 12.40625 
L 21 0 
L 10.6875 0 
z
" id="DejaVuSans-46"/>
       <path d="M 37.796875 64.3125 
L 12.890625 25.390625 
L 37.796875 25.390625 
z
M 35.203125 72.90625 
L 47.609375 72.90625 
L 47.609375 25.390625 
L 58.015625 25.390625 
L 58.015625 17.1875 
L 47.609375 17.1875 
L 47.609375 0 
L 37.796875 0 
L 37.796875 17.1875 
L 4.890625 17.1875 
L 4.890625 26.703125 
z
" id="DejaVuSans-52"/>
      </defs>
      <g transform="translate(94.002294 542.877813)scale(0.14 -0.14)">
       <use xlink:href="#DejaVuSans-51"/>
       <use x="63.623047" xlink:href="#DejaVuSans-46"/>
       <use x="95.410156" xlink:href="#DejaVuSans-52"/>
      </g>
     </g>
    </g>
    <g id="xtick_2">
     <g id="line2d_4">
      <g>
       <use style="stroke:#000000;stroke-width:0.8;" x="202.120857" xlink:href="#m4f295a6c26" y="525.24"/>
      </g>
     </g>
     <g id="text_4">
      <!-- 3.5 -->
      <defs>
       <path d="M 10.796875 72.90625 
L 49.515625 72.90625 
L 49.515625 64.59375 
L 19.828125 64.59375 
L 19.828125 46.734375 
Q 21.96875 47.46875 24.109375 47.828125 
Q 26.265625 48.1875 28.421875 48.1875 
Q 40.625 48.1875 47.75 41.5 
Q 54.890625 34.8125 54.890625 23.390625 
Q 54.890625 11.625 47.5625 5.09375 
Q 40.234375 -1.421875 26.90625 -1.421875 
Q 22.3125 -1.421875 17.546875 -0.640625 
Q 12.796875 0.140625 7.71875 1.703125 
L 7.71875 11.625 
Q 12.109375 9.234375 16.796875 8.0625 
Q 21.484375 6.890625 26.703125 6.890625 
Q 35.15625 6.890625 40.078125 11.328125 
Q 45.015625 15.765625 45.015625 23.390625 
Q 45.015625 31 40.078125 35.4375 
Q 35.15625 39.890625 26.703125 39.890625 
Q 22.75 39.890625 18.8125 39.015625 
Q 14.890625 38.140625 10.796875 36.28125 
z
" id="DejaVuSans-53"/>
      </defs>
      <g transform="translate(190.98867 542.877813)scale(0.14 -0.14)">
       <use xlink:href="#DejaVuSans-51"/>
       <use x="63.623047" xlink:href="#DejaVuSans-46"/>
       <use x="95.410156" xlink:href="#DejaVuSans-53"/>
      </g>
     </g>
    </g>
    <g id="xtick_3">
     <g id="line2d_5">
      <g>
       <use style="stroke:#000000;stroke-width:0.8;" x="299.107233" xlink:href="#m4f295a6c26" y="525.24"/>
      </g>
     </g>
     <g id="text_5">
      <!-- 3.6 -->
      <defs>
       <path d="M 33.015625 40.375 
Q 26.375 40.375 22.484375 35.828125 
Q 18.609375 31.296875 18.609375 23.390625 
Q 18.609375 15.53125 22.484375 10.953125 
Q 26.375 6.390625 33.015625 6.390625 
Q 39.65625 6.390625 43.53125 10.953125 
Q 47.40625 15.53125 47.40625 23.390625 
Q 47.40625 31.296875 43.53125 35.828125 
Q 39.65625 40.375 33.015625 40.375 
z
M 52.59375 71.296875 
L 52.59375 62.3125 
Q 48.875 64.0625 45.09375 64.984375 
Q 41.3125 65.921875 37.59375 65.921875 
Q 27.828125 65.921875 22.671875 59.328125 
Q 17.53125 52.734375 16.796875 39.40625 
Q 19.671875 43.65625 24.015625 45.921875 
Q 28.375 48.1875 33.59375 48.1875 
Q 44.578125 48.1875 50.953125 41.515625 
Q 57.328125 34.859375 57.328125 23.390625 
Q 57.328125 12.15625 50.6875 5.359375 
Q 44.046875 -1.421875 33.015625 -1.421875 
Q 20.359375 -1.421875 13.671875 8.265625 
Q 6.984375 17.96875 6.984375 36.375 
Q 6.984375 53.65625 15.1875 63.9375 
Q 23.390625 74.21875 37.203125 74.21875 
Q 40.921875 74.21875 44.703125 73.484375 
Q 48.484375 72.75 52.59375 71.296875 
z
" id="DejaVuSans-54"/>
      </defs>
      <g transform="translate(287.975045 542.877813)scale(0.14 -0.14)">
       <use xlink:href="#DejaVuSans-51"/>
       <use x="63.623047" xlink:href="#DejaVuSans-46"/>
       <use x="95.410156" xlink:href="#DejaVuSans-54"/>
      </g>
     </g>
    </g>
    <g id="xtick_4">
     <g id="line2d_6">
      <g>
       <use style="stroke:#000000;stroke-width:0.8;" x="396.093608" xlink:href="#m4f295a6c26" y="525.24"/>
      </g>
     </g>
     <g id="text_6">
      <!-- 3.7 -->
      <defs>
       <path d="M 8.203125 72.90625 
L 55.078125 72.90625 
L 55.078125 68.703125 
L 28.609375 0 
L 18.3125 0 
L 43.21875 64.59375 
L 8.203125 64.59375 
z
" id="DejaVuSans-55"/>
      </defs>
      <g transform="translate(384.961421 542.877813)scale(0.14 -0.14)">
       <use xlink:href="#DejaVuSans-51"/>
       <use x="63.623047" xlink:href="#DejaVuSans-46"/>
       <use x="95.410156" xlink:href="#DejaVuSans-55"/>
      </g>
     </g>
    </g>
    <g id="xtick_5">
     <g id="line2d_7">
      <g>
       <use style="stroke:#000000;stroke-width:0.8;" x="493.079984" xlink:href="#m4f295a6c26" y="525.24"/>
      </g>
     </g>
     <g id="text_7">
      <!-- 3.8 -->
      <defs>
       <path d="M 31.78125 34.625 
Q 24.75 34.625 20.71875 30.859375 
Q 16.703125 27.09375 16.703125 20.515625 
Q 16.703125 13.921875 20.71875 10.15625 
Q 24.75 6.390625 31.78125 6.390625 
Q 38.8125 6.390625 42.859375 10.171875 
Q 46.921875 13.96875 46.921875 20.515625 
Q 46.921875 27.09375 42.890625 30.859375 
Q 38.875 34.625 31.78125 34.625 
z
M 21.921875 38.8125 
Q 15.578125 40.375 12.03125 44.71875 
Q 8.5 49.078125 8.5 55.328125 
Q 8.5 64.0625 14.71875 69.140625 
Q 20.953125 74.21875 31.78125 74.21875 
Q 42.671875 74.21875 48.875 69.140625 
Q 55.078125 64.0625 55.078125 55.328125 
Q 55.078125 49.078125 51.53125 44.71875 
Q 48 40.375 41.703125 38.8125 
Q 48.828125 37.15625 52.796875 32.3125 
Q 56.78125 27.484375 56.78125 20.515625 
Q 56.78125 9.90625 50.3125 4.234375 
Q 43.84375 -1.421875 31.78125 -1.421875 
Q 19.734375 -1.421875 13.25 4.234375 
Q 6.78125 9.90625 6.78125 20.515625 
Q 6.78125 27.484375 10.78125 32.3125 
Q 14.796875 37.15625 21.921875 38.8125 
z
M 18.3125 54.390625 
Q 18.3125 48.734375 21.84375 45.5625 
Q 25.390625 42.390625 31.78125 42.390625 
Q 38.140625 42.390625 41.71875 45.5625 
Q 45.3125 48.734375 45.3125 54.390625 
Q 45.3125 60.0625 41.71875 63.234375 
Q 38.140625 66.40625 31.78125 66.40625 
Q 25.390625 66.40625 21.84375 63.234375 
Q 18.3125 60.0625 18.3125 54.390625 
z
" id="DejaVuSans-56"/>
      </defs>
      <g transform="translate(481.947796 542.877813)scale(0.14 -0.14)">
       <use xlink:href="#DejaVuSans-51"/>
       <use x="63.623047" xlink:href="#DejaVuSans-46"/>
       <use x="95.410156" xlink:href="#DejaVuSans-56"/>
      </g>
     </g>
    </g>
   </g>
   <g id="line2d_8">
    <path clip-path="url(#pf9fa7865b3)" d="M 341.878224 525.24 
L 341.878224 402.93 
" style="fill:none;stroke:#ff6384;stroke-dasharray:5.55,2.4;stroke-dashoffset:0;stroke-opacity:0.8;stroke-width:1.5;"/>
   </g>
   <g id="line2d_9">
    <path clip-path="url(#pf9fa7865b3)" d="M 260.409669 525.24 
L 260.409669 402.93 
" style="fill:none;stroke:#36a2eb;stroke-dasharray:5.55,2.4;stroke-dashoffset:0;stroke-opacity:0.8;stroke-width:1.5;"/>
   </g>
   <g id="patch_10">
    <path d="M 36 525.24 
L 538.2 525.24 
" style="fill:none;stroke:#000000;stroke-linecap:square;stroke-linejoin:miter;stroke-width:0.8;"/>
   </g>
  </g>
 </g>
 <defs>
  <clipPath id="pf8e3dadb2d">
   <rect height="366.93" width="502.2" x="36" y="36"/>
  </clipPath>
  <clipPath id="pf9fa7865b3">
   <rect height="122.31" width="502.2" x="36" y="402.93"/>
  </clipPath>
 </defs>
</svg>
