<?xml version="1.0" encoding="utf-8" standalone="no"?>
<!DOCTYPE svg PUBLIC "-//W3C//DTD SVG 1.1//EN"
  "http://www.w3.org/Graphics/SVG/1.1/DTD/svg11.dtd">
<!-- Created with matplotlib (https://matplotlib.org/) -->
<svg height="581.789375pt" version="1.1" viewBox="0 0 574.2 581.789375" width="574.2pt" xmlns="http://www.w3.org/2000/svg" xmlns:xlink="http://www.w3.org/1999/xlink">
 <defs>
  <style type="text/css">
*{stroke-linecap:butt;stroke-linejoin:round;}
  </style>
 </defs>
 <g id="figure_1">
  <g id="patch_1">
   <path d="M 0 581.789375 
L 574.2 581.789375 
L 574.2 0 
L 0 0 
z
" style="fill:none;"/>
  </g>
  <g id="axes_1">
   <g id="patch_2">
    <path d="M 36 402.93 
L 538.2 402.93 
L 538.2 36 
L 36 36 
z
" style="fill:none;"/>
   </g>
   <g id="PolyCollection_1">
    <defs>
     <path d="M 127.293734 -195.538011 
L 127.293734 -195.650004 
L 131.213724 -195.692234 
L 135.133713 -195.749007 
L 139.053703 -195.8248 
L 142.973693 -195.925281 
L 146.893683 -196.057565 
L 150.813673 -196.230497 
L 154.733663 -196.454982 
L 158.653652 -196.744335 
L 162.573642 -197.114666 
L 166.493632 -197.585273 
L 170.413622 -198.179047 
L 174.333612 -198.922859 
L 178.253602 -199.847921 
L 182.173591 -200.990079 
L 186.093581 -202.390029 
L 190.013571 -204.093399 
L 193.933561 -206.150691 
L 197.853551 -208.617009 
L 201.773541 -211.551575 
L 205.69353 -215.016962 
L 209.61352 -219.078053 
L 213.53351 -223.800667 
L 217.4535 -229.249878 
L 221.37349 -235.488004 
L 225.29348 -242.572312 
L 229.213469 -250.552459 
L 233.133459 -259.467747 
L 237.053449 -269.344261 
L 240.973439 -280.192004 
L 244.893429 -292.002137 
L 248.813419 -304.744465 
L 252.733408 -318.365297 
L 256.653398 -332.785841 
L 260.573388 -347.901251 
L 264.493378 -363.580456 
L 268.413368 -379.666871 
L 272.333358 -395.980052 
L 276.253347 -412.31833 
L 280.173337 -428.4624 
L 284.093327 -444.179822 
L 288.013317 -459.230303 
L 291.933307 -473.371627 
L 295.853297 -486.366018 
L 299.773286 -497.986726 
L 303.693276 -508.02457 
L 307.613266 -516.294181 
L 311.533256 -522.639693 
L 315.453246 -526.939623 
L 319.373236 -529.110739 
L 323.293225 -529.110739 
L 327.213215 -526.939623 
L 331.133205 -522.639693 
L 335.053195 -516.294181 
L 338.973185 -508.02457 
L 342.893175 -497.986726 
L 346.813164 -486.366018 
L 350.733154 -473.371627 
L 354.653144 -459.230303 
L 358.573134 -444.179822 
L 362.493124 -428.4624 
L 366.413114 -412.31833 
L 370.333103 -395.980052 
L 374.253093 -379.666871 
L 378.173083 -363.580456 
L 382.093073 -347.901251 
L 386.013063 -332.785841 
L 389.933053 -318.365297 
L 393.853042 -304.744465 
L 397.773032 -292.002137 
L 401.693022 -280.192004 
L 405.613012 -269.344261 
L 409.533002 -259.467747 
L 413.452992 -250.552459 
L 417.372981 -242.572312 
L 421.292971 -235.488004 
L 425.212961 -229.249878 
L 429.132951 -223.800667 
L 433.052941 -219.078053 
L 436.972931 -215.016962 
L 440.89292 -211.551575 
L 444.81291 -208.617009 
L 448.7329 -206.150691 
L 452.65289 -204.093399 
L 456.57288 -202.390029 
L 460.49287 -200.990079 
L 464.412859 -199.847921 
L 468.332849 -198.922859 
L 472.252839 -198.179047 
L 476.172829 -197.585273 
L 480.092819 -197.114666 
L 484.012809 -196.744335 
L 487.932798 -196.454982 
L 491.852788 -196.230497 
L 495.772778 -196.057565 
L 499.692768 -195.925281 
L 503.612758 -195.8248 
L 507.532748 -195.749007 
L 511.452737 -195.692234 
L 515.372727 -195.650004 
L 515.372727 -195.538011 
L 515.372727 -195.538011 
L 511.452737 -195.538011 
L 507.532748 -195.538011 
L 503.612758 -195.538011 
L 499.692768 -195.538011 
L 495.772778 -195.538011 
L 491.852788 -195.538011 
L 487.932798 -195.538011 
L 484.012809 -195.538011 
L 480.092819 -195.538011 
L 476.172829 -195.538011 
L 472.252839 -195.538011 
L 468.332849 -195.538011 
L 464.412859 -195.538011 
L 460.49287 -195.538011 
L 456.57288 -195.538011 
L 452.65289 -195.538011 
L 448.7329 -195.538011 
L 444.81291 -195.538011 
L 440.89292 -195.538011 
L 436.972931 -195.538011 
L 433.052941 -195.538011 
L 429.132951 -195.538011 
L 425.212961 -195.538011 
L 421.292971 -195.538011 
L 417.372981 -195.538011 
L 413.452992 -195.538011 
L 409.533002 -195.538011 
L 405.613012 -195.538011 
L 401.693022 -195.538011 
L 397.773032 -195.538011 
L 393.853042 -195.538011 
L 389.933053 -195.538011 
L 386.013063 -195.538011 
L 382.093073 -195.538011 
L 378.173083 -195.538011 
L 374.253093 -195.538011 
L 370.333103 -195.538011 
L 366.413114 -195.538011 
L 362.493124 -195.538011 
L 358.573134 -195.538011 
L 354.653144 -195.538011 
L 350.733154 -195.538011 
L 346.813164 -195.538011 
L 342.893175 -195.538011 
L 338.973185 -195.538011 
L 335.053195 -195.538011 
L 331.133205 -195.538011 
L 327.213215 -195.538011 
L 323.293225 -195.538011 
L 319.373236 -195.538011 
L 315.453246 -195.538011 
L 311.533256 -195.538011 
L 307.613266 -195.538011 
L 303.693276 -195.538011 
L 299.773286 -195.538011 
L 295.853297 -195.538011 
L 291.933307 -195.538011 
L 288.013317 -195.538011 
L 284.093327 -195.538011 
L 280.173337 -195.538011 
L 276.253347 -195.538011 
L 272.333358 -195.538011 
L 268.413368 -195.538011 
L 264.493378 -195.538011 
L 260.573388 -195.538011 
L 256.653398 -195.538011 
L 252.733408 -195.538011 
L 248.813419 -195.538011 
L 244.893429 -195.538011 
L 240.973439 -195.538011 
L 237.053449 -195.538011 
L 233.133459 -195.538011 
L 229.213469 -195.538011 
L 225.29348 -195.538011 
L 221.37349 -195.538011 
L 217.4535 -195.538011 
L 213.53351 -195.538011 
L 209.61352 -195.538011 
L 205.69353 -195.538011 
L 201.773541 -195.538011 
L 197.853551 -195.538011 
L 193.933561 -195.538011 
L 190.013571 -195.538011 
L 186.093581 -195.538011 
L 182.173591 -195.538011 
L 178.253602 -195.538011 
L 174.333612 -195.538011 
L 170.413622 -195.538011 
L 166.493632 -195.538011 
L 162.573642 -195.538011 
L 158.653652 -195.538011 
L 154.733663 -195.538011 
L 150.813673 -195.538011 
L 146.893683 -195.538011 
L 142.973693 -195.538011 
L 139.053703 -195.538011 
L 135.133713 -195.538011 
L 131.213724 -195.538011 
L 127.293734 -195.538011 
z
" id="mc714db1921" style="stroke:#ff6384;stroke-opacity:0.5;"/>
    </defs>
    <g clip-path="url(#p3e326a16a5)">
     <use style="fill:#ff6384;fill-opacity:0.5;stroke:#ff6384;stroke-opacity:0.5;" x="0" xlink:href="#mc714db1921" y="581.789375"/>
    </g>
   </g>
   <g id="PolyCollection_2">
    <defs>
     <path d="M 58.827273 -195.538011 
L 58.827273 -195.643017 
L 63.008079 -195.682613 
L 67.188885 -195.735844 
L 71.369691 -195.806909 
L 75.550497 -195.901122 
L 79.731303 -196.025153 
L 83.912109 -196.187297 
L 88.092915 -196.397777 
L 92.273721 -196.66908 
L 96.454527 -197.016308 
L 100.635333 -197.457556 
L 104.816139 -198.014288 
L 108.996945 -198.711698 
L 113.177751 -199.579051 
L 117.358557 -200.649956 
L 121.539363 -201.962571 
L 125.720169 -203.559678 
L 129.900975 -205.488627 
L 134.081781 -207.801087 
L 138.262587 -210.552581 
L 142.443393 -213.801784 
L 146.6242 -217.609527 
L 150.805006 -222.037524 
L 154.985812 -227.14679 
L 159.166618 -232.995756 
L 163.347424 -239.638115 
L 167.52823 -247.120427 
L 171.709036 -255.479542 
L 175.889842 -264.739917 
L 180.070648 -274.910933 
L 184.251454 -285.984301 
L 188.43226 -297.931709 
L 192.613066 -310.702816 
L 196.793872 -324.223746 
L 200.974678 -338.396193 
L 205.155484 -353.097264 
L 209.33629 -368.180141 
L 213.517096 -383.475638 
L 217.697902 -398.794665 
L 221.878708 -413.9316 
L 226.059514 -428.668503 
L 230.24032 -442.780073 
L 234.421126 -456.039201 
L 238.601932 -468.222948 
L 242.782738 -479.118708 
L 246.963544 -488.530348 
L 251.14435 -496.284067 
L 255.325156 -502.233719 
L 259.505963 -506.265402 
L 263.686769 -508.301074 
L 267.867575 -508.301074 
L 272.048381 -506.265402 
L 276.229187 -502.233719 
L 280.409993 -496.284067 
L 284.590799 -488.530348 
L 288.771605 -479.118708 
L 292.952411 -468.222948 
L 297.133217 -456.039201 
L 301.314023 -442.780073 
L 305.494829 -428.668503 
L 309.675635 -413.9316 
L 313.856441 -398.794665 
L 318.037247 -383.475638 
L 322.218053 -368.180141 
L 326.398859 -353.097264 
L 330.579665 -338.396193 
L 334.760471 -324.223746 
L 338.941277 -310.702816 
L 343.122083 -297.931709 
L 347.302889 -285.984301 
L 351.483695 -274.910933 
L 355.664501 -264.739917 
L 359.845307 -255.479542 
L 364.026113 -247.120427 
L 368.206919 -239.638115 
L 372.387726 -232.995756 
L 376.568532 -227.14679 
L 380.749338 -222.037524 
L 384.930144 -217.609527 
L 389.11095 -213.801784 
L 393.291756 -210.552581 
L 397.472562 -207.801087 
L 401.653368 -205.488627 
L 405.834174 -203.559678 
L 410.01498 -201.962571 
L 414.195786 -200.649956 
L 418.376592 -199.579051 
L 422.557398 -198.711698 
L 426.738204 -198.014288 
L 430.91901 -197.457556 
L 435.099816 -197.016308 
L 439.280622 -196.66908 
L 443.461428 -196.397777 
L 447.642234 -196.187297 
L 451.82304 -196.025153 
L 456.003846 -195.901122 
L 460.184652 -195.806909 
L 464.365458 -195.735844 
L 468.546264 -195.682613 
L 472.72707 -195.643017 
L 472.72707 -195.538011 
L 472.72707 -195.538011 
L 468.546264 -195.538011 
L 464.365458 -195.538011 
L 460.184652 -195.538011 
L 456.003846 -195.538011 
L 451.82304 -195.538011 
L 447.642234 -195.538011 
L 443.461428 -195.538011 
L 439.280622 -195.538011 
L 435.099816 -195.538011 
L 430.91901 -195.538011 
L 426.738204 -195.538011 
L 422.557398 -195.538011 
L 418.376592 -195.538011 
L 414.195786 -195.538011 
L 410.01498 -195.538011 
L 405.834174 -195.538011 
L 401.653368 -195.538011 
L 397.472562 -195.538011 
L 393.291756 -195.538011 
L 389.11095 -195.538011 
L 384.930144 -195.538011 
L 380.749338 -195.538011 
L 376.568532 -195.538011 
L 372.387726 -195.538011 
L 368.206919 -195.538011 
L 364.026113 -195.538011 
L 359.845307 -195.538011 
L 355.664501 -195.538011 
L 351.483695 -195.538011 
L 347.302889 -195.538011 
L 343.122083 -195.538011 
L 338.941277 -195.538011 
L 334.760471 -195.538011 
L 330.579665 -195.538011 
L 326.398859 -195.538011 
L 322.218053 -195.538011 
L 318.037247 -195.538011 
L 313.856441 -195.538011 
L 309.675635 -195.538011 
L 305.494829 -195.538011 
L 301.314023 -195.538011 
L 297.133217 -195.538011 
L 292.952411 -195.538011 
L 288.771605 -195.538011 
L 284.590799 -195.538011 
L 280.409993 -195.538011 
L 276.229187 -195.538011 
L 272.048381 -195.538011 
L 267.867575 -195.538011 
L 263.686769 -195.538011 
L 259.505963 -195.538011 
L 255.325156 -195.538011 
L 251.14435 -195.538011 
L 246.963544 -195.538011 
L 242.782738 -195.538011 
L 238.601932 -195.538011 
L 234.421126 -195.538011 
L 230.24032 -195.538011 
L 226.059514 -195.538011 
L 221.878708 -195.538011 
L 217.697902 -195.538011 
L 213.517096 -195.538011 
L 209.33629 -195.538011 
L 205.155484 -195.538011 
L 200.974678 -195.538011 
L 196.793872 -195.538011 
L 192.613066 -195.538011 
L 188.43226 -195.538011 
L 184.251454 -195.538011 
L 180.070648 -195.538011 
L 175.889842 -195.538011 
L 171.709036 -195.538011 
L 167.52823 -195.538011 
L 163.347424 -195.538011 
L 159.166618 -195.538011 
L 154.985812 -195.538011 
L 150.805006 -195.538011 
L 146.6242 -195.538011 
L 142.443393 -195.538011 
L 138.262587 -195.538011 
L 134.081781 -195.538011 
L 129.900975 -195.538011 
L 125.720169 -195.538011 
L 121.539363 -195.538011 
L 117.358557 -195.538011 
L 113.177751 -195.538011 
L 108.996945 -195.538011 
L 104.816139 -195.538011 
L 100.635333 -195.538011 
L 96.454527 -195.538011 
L 92.273721 -195.538011 
L 88.092915 -195.538011 
L 83.912109 -195.538011 
L 79.731303 -195.538011 
L 75.550497 -195.538011 
L 71.369691 -195.538011 
L 67.188885 -195.538011 
L 63.008079 -195.538011 
L 58.827273 -195.538011 
z
" id="m6ee2aa7890" style="stroke:#36a2eb;stroke-opacity:0.5;"/>
    </defs>
    <g clip-path="url(#p3e326a16a5)">
     <use style="fill:#36a2eb;fill-opacity:0.5;stroke:#36a2eb;stroke-opacity:0.5;" x="0" xlink:href="#m6ee2aa7890" y="581.789375"/>
    </g>
   </g>
   <g id="line2d_1">
    <path clip-path="url(#p3e326a16a5)" d="M 127.293734 386.139371 
L 131.213724 386.097141 
L 135.133713 386.040368 
L 139.053703 385.964575 
L 142.973693 385.864094 
L 146.893683 385.73181 
L 150.813673 385.558878 
L 154.733663 385.334393 
L 158.653652 385.04504 
L 162.573642 384.674709 
L 166.493632 384.204102 
L 170.413622 383.610328 
L 174.333612 382.866516 
L 178.253602 381.941454 
L 182.173591 380.799296 
L 186.093581 379.399346 
L 190.013571 377.695976 
L 193.933561 375.638684 
L 197.853551 373.172366 
L 201.773541 370.2378 
L 205.69353 366.772413 
L 209.61352 362.711322 
L 213.53351 357.988708 
L 217.4535 352.539497 
L 221.37349 346.301371 
L 225.29348 339.217063 
L 229.213469 331.236916 
L 233.133459 322.321628 
L 237.053449 312.445114 
L 240.973439 301.597371 
L 244.893429 289.787238 
L 248.813419 277.04491 
L 252.733408 263.424078 
L 256.653398 249.003534 
L 260.573388 233.888124 
L 264.493378 218.208919 
L 268.413368 202.122504 
L 272.333358 185.809323 
L 276.253347 169.471045 
L 280.173337 153.326975 
L 284.093327 137.609553 
L 288.013317 122.559072 
L 291.933307 108.417748 
L 295.853297 95.423357 
L 299.773286 83.802649 
L 303.693276 73.764805 
L 307.613266 65.495194 
L 311.533256 59.149682 
L 315.453246 54.849752 
L 319.373236 52.678636 
L 323.293225 52.678636 
L 327.213215 54.849752 
L 331.133205 59.149682 
L 335.053195 65.495194 
L 338.973185 73.764805 
L 342.893175 83.802649 
L 346.813164 95.423357 
L 350.733154 108.417748 
L 354.653144 122.559072 
L 358.573134 137.609553 
L 362.493124 153.326975 
L 366.413114 169.471045 
L 370.333103 185.809323 
L 374.253093 202.122504 
L 378.173083 218.208919 
L 382.093073 233.888124 
L 386.013063 249.003534 
L 389.933053 263.424078 
L 393.853042 277.04491 
L 397.773032 289.787238 
L 401.693022 301.597371 
L 405.613012 312.445114 
L 409.533002 322.321628 
L 413.452992 331.236916 
L 417.372981 339.217063 
L 421.292971 346.301371 
L 425.212961 352.539497 
L 429.132951 357.988708 
L 433.052941 362.711322 
L 436.972931 366.772413 
L 440.89292 370.2378 
L 444.81291 373.172366 
L 448.7329 375.638684 
L 452.65289 377.695976 
L 456.57288 379.399346 
L 460.49287 380.799296 
L 464.412859 381.941454 
L 468.332849 382.866516 
L 472.252839 383.610328 
L 476.172829 384.204102 
L 480.092819 384.674709 
L 484.012809 385.04504 
L 487.932798 385.334393 
L 491.852788 385.558878 
L 495.772778 385.73181 
L 499.692768 385.864094 
L 503.612758 385.964575 
L 507.532748 386.040368 
L 511.452737 386.097141 
L 515.372727 386.139371 
" style="fill:none;stroke:#ff6384;stroke-linecap:square;"/>
   </g>
   <g id="line2d_2">
    <path clip-path="url(#p3e326a16a5)" d="M 58.827273 386.146358 
L 63.008079 386.106762 
L 67.188885 386.053531 
L 71.369691 385.982466 
L 75.550497 385.888253 
L 79.731303 385.764222 
L 83.912109 385.602078 
L 88.092915 385.391598 
L 92.273721 385.120295 
L 96.454527 384.773067 
L 100.635333 384.331819 
L 104.816139 383.775087 
L 108.996945 383.077677 
L 113.177751 382.210324 
L 117.358557 381.139419 
L 121.539363 379.826804 
L 125.720169 378.229697 
L 129.900975 376.300748 
L 134.081781 373.988288 
L 138.262587 371.236794 
L 142.443393 367.987591 
L 146.6242 364.179848 
L 150.805006 359.751851 
L 154.985812 354.642585 
L 159.166618 348.793619 
L 163.347424 342.15126 
L 167.52823 334.668948 
L 171.709036 326.309833 
L 175.889842 317.049458 
L 180.070648 306.878442 
L 184.251454 295.805074 
L 188.43226 283.857666 
L 192.613066 271.086559 
L 196.793872 257.565629 
L 200.974678 243.393182 
L 205.155484 228.692111 
L 209.33629 213.609234 
L 213.517096 198.313737 
L 217.697902 182.99471 
L 221.878708 167.857775 
L 226.059514 153.120872 
L 230.24032 139.009302 
L 234.421126 125.750174 
L 238.601932 113.566427 
L 242.782738 102.670667 
L 246.963544 93.259027 
L 251.14435 85.505308 
L 255.325156 79.555656 
L 259.505963 75.523973 
L 263.686769 73.488301 
L 267.867575 73.488301 
L 272.048381 75.523973 
L 276.229187 79.555656 
L 280.409993 85.505308 
L 284.590799 93.259027 
L 288.771605 102.670667 
L 292.952411 113.566427 
L 297.133217 125.750174 
L 301.314023 139.009302 
L 305.494829 153.120872 
L 309.675635 167.857775 
L 313.856441 182.99471 
L 318.037247 198.313737 
L 322.218053 213.609234 
L 326.398859 228.692111 
L 330.579665 243.393182 
L 334.760471 257.565629 
L 338.941277 271.086559 
L 343.122083 283.857666 
L 347.302889 295.805074 
L 351.483695 306.878442 
L 355.664501 317.049458 
L 359.845307 326.309833 
L 364.026113 334.668948 
L 368.206919 342.15126 
L 372.387726 348.793619 
L 376.568532 354.642585 
L 380.749338 359.751851 
L 384.930144 364.179848 
L 389.11095 367.987591 
L 393.291756 371.236794 
L 397.472562 373.988288 
L 401.653368 376.300748 
L 405.834174 378.229697 
L 410.01498 379.826804 
L 414.195786 381.139419 
L 418.376592 382.210324 
L 422.557398 383.077677 
L 426.738204 383.775087 
L 430.91901 384.331819 
L 435.099816 384.773067 
L 439.280622 385.120295 
L 443.461428 385.391598 
L 447.642234 385.602078 
L 451.82304 385.764222 
L 456.003846 385.888253 
L 460.184652 385.982466 
L 464.365458 386.053531 
L 468.546264 386.106762 
L 472.72707 386.146358 
" style="fill:none;stroke:#36a2eb;stroke-linecap:square;"/>
   </g>
   <g id="patch_3">
    <path d="M 36 402.93 
L 538.2 402.93 
" style="fill:none;stroke:#000000;stroke-linecap:square;stroke-linejoin:miter;stroke-width:0.8;"/>
   </g>
   <g id="legend_1">
    <g id="patch_4">
     <path d="M 414.919063 88.29875 
L 528.4 88.29875 
Q 531.2 88.29875 531.2 85.49875 
L 531.2 45.8 
Q 531.2 43 528.4 43 
L 414.919063 43 
Q 412.119063 43 412.119063 45.8 
L 412.119063 85.49875 
Q 412.119063 88.29875 414.919063 88.29875 
z
" style="fill:#ffffff;opacity:0.8;stroke:#cccccc;stroke-linejoin:miter;"/>
    </g>
    <g id="patch_5">
     <path d="M 417.719063 59.237813 
L 445.719063 59.237813 
L 445.719063 49.437813 
L 417.719063 49.437813 
z
" style="fill:#ff6384;opacity:0.5;stroke:#ff6384;stroke-linejoin:miter;"/>
    </g>
    <g id="text_1">
     <!-- sidemenu -->
     <defs>
      <path d="M 44.28125 53.078125 
L 44.28125 44.578125 
Q 40.484375 46.53125 36.375 47.5 
Q 32.28125 48.484375 27.875 48.484375 
Q 21.1875 48.484375 17.84375 46.4375 
Q 14.5 44.390625 14.5 40.28125 
Q 14.5 37.15625 16.890625 35.375 
Q 19.28125 33.59375 26.515625 31.984375 
L 29.59375 31.296875 
Q 39.15625 29.25 43.1875 25.515625 
Q 47.21875 21.78125 47.21875 15.09375 
Q 47.21875 7.46875 41.1875 3.015625 
Q 35.15625 -1.421875 24.609375 -1.421875 
Q 20.21875 -1.421875 15.453125 -0.5625 
Q 10.6875 0.296875 5.421875 2 
L 5.421875 11.28125 
Q 10.40625 8.6875 15.234375 7.390625 
Q 20.0625 6.109375 24.8125 6.109375 
Q 31.15625 6.109375 34.5625 8.28125 
Q 37.984375 10.453125 37.984375 14.40625 
Q 37.984375 18.0625 35.515625 20.015625 
Q 33.0625 21.96875 24.703125 23.78125 
L 21.578125 24.515625 
Q 13.234375 26.265625 9.515625 29.90625 
Q 5.8125 33.546875 5.8125 39.890625 
Q 5.8125 47.609375 11.28125 51.796875 
Q 16.75 56 26.8125 56 
Q 31.78125 56 36.171875 55.265625 
Q 40.578125 54.546875 44.28125 53.078125 
z
" id="DejaVuSans-115"/>
      <path d="M 9.421875 54.6875 
L 18.40625 54.6875 
L 18.40625 0 
L 9.421875 0 
z
M 9.421875 75.984375 
L 18.40625 75.984375 
L 18.40625 64.59375 
L 9.421875 64.59375 
z
" id="DejaVuSans-105"/>
      <path d="M 45.40625 46.390625 
L 45.40625 75.984375 
L 54.390625 75.984375 
L 54.390625 0 
L 45.40625 0 
L 45.40625 8.203125 
Q 42.578125 3.328125 38.25 0.953125 
Q 33.9375 -1.421875 27.875 -1.421875 
Q 17.96875 -1.421875 11.734375 6.484375 
Q 5.515625 14.40625 5.515625 27.296875 
Q 5.515625 40.1875 11.734375 48.09375 
Q 17.96875 56 27.875 56 
Q 33.9375 56 38.25 53.625 
Q 42.578125 51.265625 45.40625 46.390625 
z
M 14.796875 27.296875 
Q 14.796875 17.390625 18.875 11.75 
Q 22.953125 6.109375 30.078125 6.109375 
Q 37.203125 6.109375 41.296875 11.75 
Q 45.40625 17.390625 45.40625 27.296875 
Q 45.40625 37.203125 41.296875 42.84375 
Q 37.203125 48.484375 30.078125 48.484375 
Q 22.953125 48.484375 18.875 42.84375 
Q 14.796875 37.203125 14.796875 27.296875 
z
" id="DejaVuSans-100"/>
      <path d="M 56.203125 29.59375 
L 56.203125 25.203125 
L 14.890625 25.203125 
Q 15.484375 15.921875 20.484375 11.0625 
Q 25.484375 6.203125 34.421875 6.203125 
Q 39.59375 6.203125 44.453125 7.46875 
Q 49.3125 8.734375 54.109375 11.28125 
L 54.109375 2.78125 
Q 49.265625 0.734375 44.1875 -0.34375 
Q 39.109375 -1.421875 33.890625 -1.421875 
Q 20.796875 -1.421875 13.15625 6.1875 
Q 5.515625 13.8125 5.515625 26.8125 
Q 5.515625 40.234375 12.765625 48.109375 
Q 20.015625 56 32.328125 56 
Q 43.359375 56 49.78125 48.890625 
Q 56.203125 41.796875 56.203125 29.59375 
z
M 47.21875 32.234375 
Q 47.125 39.59375 43.09375 43.984375 
Q 39.0625 48.390625 32.421875 48.390625 
Q 24.90625 48.390625 20.390625 44.140625 
Q 15.875 39.890625 15.1875 32.171875 
z
" id="DejaVuSans-101"/>
      <path d="M 52 44.1875 
Q 55.375 50.25 60.0625 53.125 
Q 64.75 56 71.09375 56 
Q 79.640625 56 84.28125 50.015625 
Q 88.921875 44.046875 88.921875 33.015625 
L 88.921875 0 
L 79.890625 0 
L 79.890625 32.71875 
Q 79.890625 40.578125 77.09375 44.375 
Q 74.3125 48.1875 68.609375 48.1875 
Q 61.625 48.1875 57.5625 43.546875 
Q 53.515625 38.921875 53.515625 30.90625 
L 53.515625 0 
L 44.484375 0 
L 44.484375 32.71875 
Q 44.484375 40.625 41.703125 44.40625 
Q 38.921875 48.1875 33.109375 48.1875 
Q 26.21875 48.1875 22.15625 43.53125 
Q 18.109375 38.875 18.109375 30.90625 
L 18.109375 0 
L 9.078125 0 
L 9.078125 54.6875 
L 18.109375 54.6875 
L 18.109375 46.1875 
Q 21.1875 51.21875 25.484375 53.609375 
Q 29.78125 56 35.6875 56 
Q 41.65625 56 45.828125 52.96875 
Q 50 49.953125 52 44.1875 
z
" id="DejaVuSans-109"/>
      <path d="M 54.890625 33.015625 
L 54.890625 0 
L 45.90625 0 
L 45.90625 32.71875 
Q 45.90625 40.484375 42.875 44.328125 
Q 39.84375 48.1875 33.796875 48.1875 
Q 26.515625 48.1875 22.3125 43.546875 
Q 18.109375 38.921875 18.109375 30.90625 
L 18.109375 0 
L 9.078125 0 
L 9.078125 54.6875 
L 18.109375 54.6875 
L 18.109375 46.1875 
Q 21.34375 51.125 25.703125 53.5625 
Q 30.078125 56 35.796875 56 
Q 45.21875 56 50.046875 50.171875 
Q 54.890625 44.34375 54.890625 33.015625 
z
" id="DejaVuSans-110"/>
      <path d="M 8.5 21.578125 
L 8.5 54.6875 
L 17.484375 54.6875 
L 17.484375 21.921875 
Q 17.484375 14.15625 20.5 10.265625 
Q 23.53125 6.390625 29.59375 6.390625 
Q 36.859375 6.390625 41.078125 11.03125 
Q 45.3125 15.671875 45.3125 23.6875 
L 45.3125 54.6875 
L 54.296875 54.6875 
L 54.296875 0 
L 45.3125 0 
L 45.3125 8.40625 
Q 42.046875 3.421875 37.71875 1 
Q 33.40625 -1.421875 27.6875 -1.421875 
Q 18.265625 -1.421875 13.375 4.4375 
Q 8.5 10.296875 8.5 21.578125 
z
M 31.109375 56 
z
" id="DejaVuSans-117"/>
     </defs>
     <g transform="translate(456.919063 59.237813)scale(0.14 -0.14)">
      <use xlink:href="#DejaVuSans-115"/>
      <use x="52.099609" xlink:href="#DejaVuSans-105"/>
      <use x="79.882812" xlink:href="#DejaVuSans-100"/>
      <use x="143.359375" xlink:href="#DejaVuSans-101"/>
      <use x="204.882812" xlink:href="#DejaVuSans-109"/>
      <use x="302.294922" xlink:href="#DejaVuSans-101"/>
      <use x="363.818359" xlink:href="#DejaVuSans-110"/>
      <use x="427.197266" xlink:href="#DejaVuSans-117"/>
     </g>
    </g>
    <g id="patch_6">
     <path d="M 417.719063 79.787188 
L 445.719063 79.787188 
L 445.719063 69.987188 
L 417.719063 69.987188 
z
" style="fill:#36a2eb;opacity:0.5;stroke:#36a2eb;stroke-linejoin:miter;"/>
    </g>
    <g id="text_2">
     <!-- tabbar -->
     <defs>
      <path d="M 18.3125 70.21875 
L 18.3125 54.6875 
L 36.8125 54.6875 
L 36.8125 47.703125 
L 18.3125 47.703125 
L 18.3125 18.015625 
Q 18.3125 11.328125 20.140625 9.421875 
Q 21.96875 7.515625 27.59375 7.515625 
L 36.8125 7.515625 
L 36.8125 0 
L 27.59375 0 
Q 17.1875 0 13.234375 3.875 
Q 9.28125 7.765625 9.28125 18.015625 
L 9.28125 47.703125 
L 2.6875 47.703125 
L 2.6875 54.6875 
L 9.28125 54.6875 
L 9.28125 70.21875 
z
" id="DejaVuSans-116"/>
      <path d="M 34.28125 27.484375 
Q 23.390625 27.484375 19.1875 25 
Q 14.984375 22.515625 14.984375 16.5 
Q 14.984375 11.71875 18.140625 8.90625 
Q 21.296875 6.109375 26.703125 6.109375 
Q 34.1875 6.109375 38.703125 11.40625 
Q 43.21875 16.703125 43.21875 25.484375 
L 43.21875 27.484375 
z
M 52.203125 31.203125 
L 52.203125 0 
L 43.21875 0 
L 43.21875 8.296875 
Q 40.140625 3.328125 35.546875 0.953125 
Q 30.953125 -1.421875 24.3125 -1.421875 
Q 15.921875 -1.421875 10.953125 3.296875 
Q 6 8.015625 6 15.921875 
Q 6 25.140625 12.171875 29.828125 
Q 18.359375 34.515625 30.609375 34.515625 
L 43.21875 34.515625 
L 43.21875 35.40625 
Q 43.21875 41.609375 39.140625 45 
Q 35.0625 48.390625 27.6875 48.390625 
Q 23 48.390625 18.546875 47.265625 
Q 14.109375 46.140625 10.015625 43.890625 
L 10.015625 52.203125 
Q 14.9375 54.109375 19.578125 55.046875 
Q 24.21875 56 28.609375 56 
Q 40.484375 56 46.34375 49.84375 
Q 52.203125 43.703125 52.203125 31.203125 
z
" id="DejaVuSans-97"/>
      <path d="M 48.6875 27.296875 
Q 48.6875 37.203125 44.609375 42.84375 
Q 40.53125 48.484375 33.40625 48.484375 
Q 26.265625 48.484375 22.1875 42.84375 
Q 18.109375 37.203125 18.109375 27.296875 
Q 18.109375 17.390625 22.1875 11.75 
Q 26.265625 6.109375 33.40625 6.109375 
Q 40.53125 6.109375 44.609375 11.75 
Q 48.6875 17.390625 48.6875 27.296875 
z
M 18.109375 46.390625 
Q 20.953125 51.265625 25.265625 53.625 
Q 29.59375 56 35.59375 56 
Q 45.5625 56 51.78125 48.09375 
Q 58.015625 40.1875 58.015625 27.296875 
Q 58.015625 14.40625 51.78125 6.484375 
Q 45.5625 -1.421875 35.59375 -1.421875 
Q 29.59375 -1.421875 25.265625 0.953125 
Q 20.953125 3.328125 18.109375 8.203125 
L 18.109375 0 
L 9.078125 0 
L 9.078125 75.984375 
L 18.109375 75.984375 
z
" id="DejaVuSans-98"/>
      <path d="M 41.109375 46.296875 
Q 39.59375 47.171875 37.8125 47.578125 
Q 36.03125 48 33.890625 48 
Q 26.265625 48 22.1875 43.046875 
Q 18.109375 38.09375 18.109375 28.8125 
L 18.109375 0 
L 9.078125 0 
L 9.078125 54.6875 
L 18.109375 54.6875 
L 18.109375 46.1875 
Q 20.953125 51.171875 25.484375 53.578125 
Q 30.03125 56 36.53125 56 
Q 37.453125 56 38.578125 55.875 
Q 39.703125 55.765625 41.0625 55.515625 
z
" id="DejaVuSans-114"/>
     </defs>
     <g transform="translate(456.919063 79.787188)scale(0.14 -0.14)">
      <use xlink:href="#DejaVuSans-116"/>
      <use x="39.208984" xlink:href="#DejaVuSans-97"/>
      <use x="100.488281" xlink:href="#DejaVuSans-98"/>
      <use x="163.964844" xlink:href="#DejaVuSans-98"/>
      <use x="227.441406" xlink:href="#DejaVuSans-97"/>
      <use x="288.720703" xlink:href="#DejaVuSans-114"/>
     </g>
    </g>
   </g>
  </g>
  <g id="axes_2">
   <g id="patch_7">
    <path d="M 36 525.24 
L 538.2 525.24 
L 538.2 402.93 
L 36 402.93 
z
" style="fill:none;"/>
   </g>
   <g id="patch_8">
    <path clip-path="url(#pe5ffe79d1c)" d="M 226.253877 519.680455 
L 416.412584 519.680455 
L 416.412584 482.616818 
L 226.253877 482.616818 
z
" style="fill:#ff6384;opacity:0.5;"/>
   </g>
   <g id="patch_9">
    <path clip-path="url(#pe5ffe79d1c)" d="M 164.371721 445.553182 
L 367.182622 445.553182 
L 367.182622 408.489545 
L 164.371721 408.489545 
z
" style="fill:#36a2eb;opacity:0.5;"/>
   </g>
   <g id="matplotlib.axis_1">
    <g id="xtick_1">
     <g id="line2d_3">
      <defs>
       <path d="M 0 0 
L 0 3.5 
" id="mcfbd428a32" style="stroke:#000000;stroke-width:0.8;"/>
      </defs>
      <g>
       <use style="stroke:#000000;stroke-width:0.8;" x="62.071622" xlink:href="#mcfbd428a32" y="525.24"/>
      </g>
     </g>
     <g id="text_3">
      <!-- 2.0 -->
      <defs>
       <path d="M 19.1875 8.296875 
L 53.609375 8.296875 
L 53.609375 0 
L 7.328125 0 
L 7.328125 8.296875 
Q 12.9375 14.109375 22.625 23.890625 
Q 32.328125 33.6875 34.8125 36.53125 
Q 39.546875 41.84375 41.421875 45.53125 
Q 43.3125 49.21875 43.3125 52.78125 
Q 43.3125 58.59375 39.234375 62.25 
Q 35.15625 65.921875 28.609375 65.921875 
Q 23.96875 65.921875 18.8125 64.3125 
Q 13.671875 62.703125 7.8125 59.421875 
L 7.8125 69.390625 
Q 13.765625 71.78125 18.9375 73 
Q 24.125 74.21875 28.421875 74.21875 
Q 39.75 74.21875 46.484375 68.546875 
Q 53.21875 62.890625 53.21875 53.421875 
Q 53.21875 48.921875 51.53125 44.890625 
Q 49.859375 40.875 45.40625 35.40625 
Q 44.1875 33.984375 37.640625 27.21875 
Q 31.109375 20.453125 19.1875 8.296875 
z
" id="DejaVuSans-50"/>
       <path d="M 10.6875 12.40625 
L 21 12.40625 
L 21 0 
L 10.6875 0 
z
" id="DejaVuSans-46"/>
       <path d="M 31.78125 66.40625 
Q 24.171875 66.40625 20.328125 58.90625 
Q 16.5 51.421875 16.5 36.375 
Q 16.5 21.390625 20.328125 13.890625 
Q 24.171875 6.390625 31.78125 6.390625 
Q 39.453125 6.390625 43.28125 13.890625 
Q 47.125 21.390625 47.125 36.375 
Q 47.125 51.421875 43.28125 58.90625 
Q 39.453125 66.40625 31.78125 66.40625 
z
M 31.78125 74.21875 
Q 44.046875 74.21875 50.515625 64.515625 
Q 56.984375 54.828125 56.984375 36.375 
Q 56.984375 17.96875 50.515625 8.265625 
Q 44.046875 -1.421875 31.78125 -1.421875 
Q 19.53125 -1.421875 13.0625 8.265625 
Q 6.59375 17.96875 6.59375 36.375 
Q 6.59375 54.828125 13.0625 64.515625 
Q 19.53125 74.21875 31.78125 74.21875 
z
" id="DejaVuSans-48"/>
      </defs>
      <g transform="translate(50.939434 542.877813)scale(0.14 -0.14)">
       <use xlink:href="#DejaVuSans-50"/>
       <use x="63.623047" xlink:href="#DejaVuSans-46"/>
       <use x="95.410156" xlink:href="#DejaVuSans-48"/>
      </g>
     </g>
    </g>
    <g id="xtick_2">
     <g id="line2d_4">
      <g>
       <use style="stroke:#000000;stroke-width:0.8;" x="123.800576" xlink:href="#mcfbd428a32" y="525.24"/>
      </g>
     </g>
     <g id="text_4">
      <!-- 2.2 -->
      <g transform="translate(112.668389 542.877813)scale(0.14 -0.14)">
       <use xlink:href="#DejaVuSans-50"/>
       <use x="63.623047" xlink:href="#DejaVuSans-46"/>
       <use x="95.410156" xlink:href="#DejaVuSans-50"/>
      </g>
     </g>
    </g>
    <g id="xtick_3">
     <g id="line2d_5">
      <g>
       <use style="stroke:#000000;stroke-width:0.8;" x="185.529531" xlink:href="#mcfbd428a32" y="525.24"/>
      </g>
     </g>
     <g id="text_5">
      <!-- 2.4 -->
      <defs>
       <path d="M 37.796875 64.3125 
L 12.890625 25.390625 
L 37.796875 25.390625 
z
M 35.203125 72.90625 
L 47.609375 72.90625 
L 47.609375 25.390625 
L 58.015625 25.390625 
L 58.015625 17.1875 
L 47.609375 17.1875 
L 47.609375 0 
L 37.796875 0 
L 37.796875 17.1875 
L 4.890625 17.1875 
L 4.890625 26.703125 
z
" id="DejaVuSans-52"/>
      </defs>
      <g transform="translate(174.397343 542.877813)scale(0.14 -0.14)">
       <use xlink:href="#DejaVuSans-50"/>
       <use x="63.623047" xlink:href="#DejaVuSans-46"/>
       <use x="95.410156" xlink:href="#DejaVuSans-52"/>
      </g>
     </g>
    </g>
    <g id="xtick_4">
     <g id="line2d_6">
      <g>
       <use style="stroke:#000000;stroke-width:0.8;" x="247.258485" xlink:href="#mcfbd428a32" y="525.24"/>
      </g>
     </g>
     <g id="text_6">
      <!-- 2.6 -->
      <defs>
       <path d="M 33.015625 40.375 
Q 26.375 40.375 22.484375 35.828125 
Q 18.609375 31.296875 18.609375 23.390625 
Q 18.609375 15.53125 22.484375 10.953125 
Q 26.375 6.390625 33.015625 6.390625 
Q 39.65625 6.390625 43.53125 10.953125 
Q 47.40625 15.53125 47.40625 23.390625 
Q 47.40625 31.296875 43.53125 35.828125 
Q 39.65625 40.375 33.015625 40.375 
z
M 52.59375 71.296875 
L 52.59375 62.3125 
Q 48.875 64.0625 45.09375 64.984375 
Q 41.3125 65.921875 37.59375 65.921875 
Q 27.828125 65.921875 22.671875 59.328125 
Q 17.53125 52.734375 16.796875 39.40625 
Q 19.671875 43.65625 24.015625 45.921875 
Q 28.375 48.1875 33.59375 48.1875 
Q 44.578125 48.1875 50.953125 41.515625 
Q 57.328125 34.859375 57.328125 23.390625 
Q 57.328125 12.15625 50.6875 5.359375 
Q 44.046875 -1.421875 33.015625 -1.421875 
Q 20.359375 -1.421875 13.671875 8.265625 
Q 6.984375 17.96875 6.984375 36.375 
Q 6.984375 53.65625 15.1875 63.9375 
Q 23.390625 74.21875 37.203125 74.21875 
Q 40.921875 74.21875 44.703125 73.484375 
Q 48.484375 72.75 52.59375 71.296875 
z
" id="DejaVuSans-54"/>
      </defs>
      <g transform="translate(236.126298 542.877813)scale(0.14 -0.14)">
       <use xlink:href="#DejaVuSans-50"/>
       <use x="63.623047" xlink:href="#DejaVuSans-46"/>
       <use x="95.410156" xlink:href="#DejaVuSans-54"/>
      </g>
     </g>
    </g>
    <g id="xtick_5">
     <g id="line2d_7">
      <g>
       <use style="stroke:#000000;stroke-width:0.8;" x="308.98744" xlink:href="#mcfbd428a32" y="525.24"/>
      </g>
     </g>
     <g id="text_7">
      <!-- 2.8 -->
      <defs>
       <path d="M 31.78125 34.625 
Q 24.75 34.625 20.71875 30.859375 
Q 16.703125 27.09375 16.703125 20.515625 
Q 16.703125 13.921875 20.71875 10.15625 
Q 24.75 6.390625 31.78125 6.390625 
Q 38.8125 6.390625 42.859375 10.171875 
Q 46.921875 13.96875 46.921875 20.515625 
Q 46.921875 27.09375 42.890625 30.859375 
Q 38.875 34.625 31.78125 34.625 
z
M 21.921875 38.8125 
Q 15.578125 40.375 12.03125 44.71875 
Q 8.5 49.078125 8.5 55.328125 
Q 8.5 64.0625 14.71875 69.140625 
Q 20.953125 74.21875 31.78125 74.21875 
Q 42.671875 74.21875 48.875 69.140625 
Q 55.078125 64.0625 55.078125 55.328125 
Q 55.078125 49.078125 51.53125 44.71875 
Q 48 40.375 41.703125 38.8125 
Q 48.828125 37.15625 52.796875 32.3125 
Q 56.78125 27.484375 56.78125 20.515625 
Q 56.78125 9.90625 50.3125 4.234375 
Q 43.84375 -1.421875 31.78125 -1.421875 
Q 19.734375 -1.421875 13.25 4.234375 
Q 6.78125 9.90625 6.78125 20.515625 
Q 6.78125 27.484375 10.78125 32.3125 
Q 14.796875 37.15625 21.921875 38.8125 
z
M 18.3125 54.390625 
Q 18.3125 48.734375 21.84375 45.5625 
Q 25.390625 42.390625 31.78125 42.390625 
Q 38.140625 42.390625 41.71875 45.5625 
Q 45.3125 48.734375 45.3125 54.390625 
Q 45.3125 60.0625 41.71875 63.234375 
Q 38.140625 66.40625 31.78125 66.40625 
Q 25.390625 66.40625 21.84375 63.234375 
Q 18.3125 60.0625 18.3125 54.390625 
z
" id="DejaVuSans-56"/>
      </defs>
      <g transform="translate(297.855252 542.877813)scale(0.14 -0.14)">
       <use xlink:href="#DejaVuSans-50"/>
       <use x="63.623047" xlink:href="#DejaVuSans-46"/>
       <use x="95.410156" xlink:href="#DejaVuSans-56"/>
      </g>
     </g>
    </g>
    <g id="xtick_6">
     <g id="line2d_8">
      <g>
       <use style="stroke:#000000;stroke-width:0.8;" x="370.716394" xlink:href="#mcfbd428a32" y="525.24"/>
      </g>
     </g>
     <g id="text_8">
      <!-- 3.0 -->
      <defs>
       <path d="M 40.578125 39.3125 
Q 47.65625 37.796875 51.625 33 
Q 55.609375 28.21875 55.609375 21.1875 
Q 55.609375 10.40625 48.1875 4.484375 
Q 40.765625 -1.421875 27.09375 -1.421875 
Q 22.515625 -1.421875 17.65625 -0.515625 
Q 12.796875 0.390625 7.625 2.203125 
L 7.625 11.71875 
Q 11.71875 9.328125 16.59375 8.109375 
Q 21.484375 6.890625 26.8125 6.890625 
Q 36.078125 6.890625 40.9375 10.546875 
Q 45.796875 14.203125 45.796875 21.1875 
Q 45.796875 27.640625 41.28125 31.265625 
Q 36.765625 34.90625 28.71875 34.90625 
L 20.21875 34.90625 
L 20.21875 43.015625 
L 29.109375 43.015625 
Q 36.375 43.015625 40.234375 45.921875 
Q 44.09375 48.828125 44.09375 54.296875 
Q 44.09375 59.90625 40.109375 62.90625 
Q 36.140625 65.921875 28.71875 65.921875 
Q 24.65625 65.921875 20.015625 65.03125 
Q 15.375 64.15625 9.8125 62.3125 
L 9.8125 71.09375 
Q 15.4375 72.65625 20.34375 73.4375 
Q 25.25 74.21875 29.59375 74.21875 
Q 40.828125 74.21875 47.359375 69.109375 
Q 53.90625 64.015625 53.90625 55.328125 
Q 53.90625 49.265625 50.4375 45.09375 
Q 46.96875 40.921875 40.578125 39.3125 
z
" id="DejaVuSans-51"/>
      </defs>
      <g transform="translate(359.584207 542.877813)scale(0.14 -0.14)">
       <use xlink:href="#DejaVuSans-51"/>
       <use x="63.623047" xlink:href="#DejaVuSans-46"/>
       <use x="95.410156" xlink:href="#DejaVuSans-48"/>
      </g>
     </g>
    </g>
    <g id="xtick_7">
     <g id="line2d_9">
      <g>
       <use style="stroke:#000000;stroke-width:0.8;" x="432.445348" xlink:href="#mcfbd428a32" y="525.24"/>
      </g>
     </g>
     <g id="text_9">
      <!-- 3.2 -->
      <g transform="translate(421.313161 542.877813)scale(0.14 -0.14)">
       <use xlink:href="#DejaVuSans-51"/>
       <use x="63.623047" xlink:href="#DejaVuSans-46"/>
       <use x="95.410156" xlink:href="#DejaVuSans-50"/>
      </g>
     </g>
    </g>
    <g id="xtick_8">
     <g id="line2d_10">
      <g>
       <use style="stroke:#000000;stroke-width:0.8;" x="494.174303" xlink:href="#mcfbd428a32" y="525.24"/>
      </g>
     </g>
     <g id="text_10">
      <!-- 3.4 -->
      <g transform="translate(483.042115 542.877813)scale(0.14 -0.14)">
       <use xlink:href="#DejaVuSans-51"/>
       <use x="63.623047" xlink:href="#DejaVuSans-46"/>
       <use x="95.410156" xlink:href="#DejaVuSans-52"/>
      </g>
     </g>
    </g>
   </g>
   <g id="line2d_11">
    <path clip-path="url(#pe5ffe79d1c)" d="M 321.333231 525.24 
L 321.333231 402.93 
" style="fill:none;stroke:#ff6384;stroke-dasharray:5.55,2.4;stroke-dashoffset:0;stroke-opacity:0.8;stroke-width:1.5;"/>
   </g>
   <g id="line2d_12">
    <path clip-path="url(#pe5ffe79d1c)" d="M 265.777172 525.24 
L 265.777172 402.93 
" style="fill:none;stroke:#36a2eb;stroke-dasharray:5.55,2.4;stroke-dashoffset:0;stroke-opacity:0.8;stroke-width:1.5;"/>
   </g>
   <g id="patch_10">
    <path d="M 36 525.24 
L 538.2 525.24 
" style="fill:none;stroke:#000000;stroke-linecap:square;stroke-linejoin:miter;stroke-width:0.8;"/>
   </g>
  </g>
 </g>
 <defs>
  <clipPath id="p3e326a16a5">
   <rect height="366.93" width="502.2" x="36" y="36"/>
  </clipPath>
  <clipPath id="pe5ffe79d1c">
   <rect height="122.31" width="502.2" x="36" y="402.93"/>
  </clipPath>
 </defs>
</svg>
