<?xml version="1.0" encoding="utf-8" standalone="no"?>
<!DOCTYPE svg PUBLIC "-//W3C//DTD SVG 1.1//EN"
  "http://www.w3.org/Graphics/SVG/1.1/DTD/svg11.dtd">
<!-- Created with matplotlib (https://matplotlib.org/) -->
<svg height="581.789375pt" version="1.1" viewBox="0 0 574.2 581.789375" width="574.2pt" xmlns="http://www.w3.org/2000/svg" xmlns:xlink="http://www.w3.org/1999/xlink">
 <defs>
  <style type="text/css">
*{stroke-linecap:butt;stroke-linejoin:round;}
  </style>
 </defs>
 <g id="figure_1">
  <g id="patch_1">
   <path d="M -0 581.789375 
L 574.2 581.789375 
L 574.2 0 
L -0 0 
z
" style="fill:none;"/>
  </g>
  <g id="axes_1">
   <g id="patch_2">
    <path d="M 36 402.93 
L 538.2 402.93 
L 538.2 36 
L 36 36 
z
" style="fill:none;"/>
   </g>
   <g id="PolyCollection_1">
    <defs>
     <path d="M 288.951144 -195.538011 
L 288.951144 -195.650004 
L 291.238231 -195.692234 
L 293.525318 -195.749007 
L 295.812405 -195.8248 
L 298.099491 -195.925281 
L 300.386578 -196.057565 
L 302.673665 -196.230497 
L 304.960751 -196.454982 
L 307.247838 -196.744335 
L 309.534925 -197.114666 
L 311.822011 -197.585273 
L 314.109098 -198.179047 
L 316.396185 -198.922859 
L 318.683272 -199.847921 
L 320.970358 -200.990079 
L 323.257445 -202.390029 
L 325.544532 -204.093399 
L 327.831618 -206.150691 
L 330.118705 -208.617009 
L 332.405792 -211.551575 
L 334.692878 -215.016962 
L 336.979965 -219.078053 
L 339.267052 -223.800667 
L 341.554138 -229.249878 
L 343.841225 -235.488004 
L 346.128312 -242.572312 
L 348.415399 -250.552459 
L 350.702485 -259.467747 
L 352.989572 -269.344261 
L 355.276659 -280.192004 
L 357.563745 -292.002137 
L 359.850832 -304.744465 
L 362.137919 -318.365297 
L 364.425005 -332.785841 
L 366.712092 -347.901251 
L 368.999179 -363.580456 
L 371.286265 -379.666871 
L 373.573352 -395.980052 
L 375.860439 -412.31833 
L 378.147526 -428.4624 
L 380.434612 -444.179822 
L 382.721699 -459.230303 
L 385.008786 -473.371627 
L 387.295872 -486.366018 
L 389.582959 -497.986726 
L 391.870046 -508.02457 
L 394.157132 -516.294181 
L 396.444219 -522.639693 
L 398.731306 -526.939623 
L 401.018393 -529.110739 
L 403.305479 -529.110739 
L 405.592566 -526.939623 
L 407.879653 -522.639693 
L 410.166739 -516.294181 
L 412.453826 -508.02457 
L 414.740913 -497.986726 
L 417.027999 -486.366018 
L 419.315086 -473.371627 
L 421.602173 -459.230303 
L 423.889259 -444.179822 
L 426.176346 -428.4624 
L 428.463433 -412.31833 
L 430.75052 -395.980052 
L 433.037606 -379.666871 
L 435.324693 -363.580456 
L 437.61178 -347.901251 
L 439.898866 -332.785841 
L 442.185953 -318.365297 
L 444.47304 -304.744465 
L 446.760126 -292.002137 
L 449.047213 -280.192004 
L 451.3343 -269.344261 
L 453.621387 -259.467747 
L 455.908473 -250.552459 
L 458.19556 -242.572312 
L 460.482647 -235.488004 
L 462.769733 -229.249878 
L 465.05682 -223.800667 
L 467.343907 -219.078053 
L 469.630993 -215.016962 
L 471.91808 -211.551575 
L 474.205167 -208.617009 
L 476.492253 -206.150691 
L 478.77934 -204.093399 
L 481.066427 -202.390029 
L 483.353514 -200.990079 
L 485.6406 -199.847921 
L 487.927687 -198.922859 
L 490.214774 -198.179047 
L 492.50186 -197.585273 
L 494.788947 -197.114666 
L 497.076034 -196.744335 
L 499.36312 -196.454982 
L 501.650207 -196.230497 
L 503.937294 -196.057565 
L 506.22438 -195.925281 
L 508.511467 -195.8248 
L 510.798554 -195.749007 
L 513.085641 -195.692234 
L 515.372727 -195.650004 
L 515.372727 -195.538011 
L 515.372727 -195.538011 
L 513.085641 -195.538011 
L 510.798554 -195.538011 
L 508.511467 -195.538011 
L 506.22438 -195.538011 
L 503.937294 -195.538011 
L 501.650207 -195.538011 
L 499.36312 -195.538011 
L 497.076034 -195.538011 
L 494.788947 -195.538011 
L 492.50186 -195.538011 
L 490.214774 -195.538011 
L 487.927687 -195.538011 
L 485.6406 -195.538011 
L 483.353514 -195.538011 
L 481.066427 -195.538011 
L 478.77934 -195.538011 
L 476.492253 -195.538011 
L 474.205167 -195.538011 
L 471.91808 -195.538011 
L 469.630993 -195.538011 
L 467.343907 -195.538011 
L 465.05682 -195.538011 
L 462.769733 -195.538011 
L 460.482647 -195.538011 
L 458.19556 -195.538011 
L 455.908473 -195.538011 
L 453.621387 -195.538011 
L 451.3343 -195.538011 
L 449.047213 -195.538011 
L 446.760126 -195.538011 
L 444.47304 -195.538011 
L 442.185953 -195.538011 
L 439.898866 -195.538011 
L 437.61178 -195.538011 
L 435.324693 -195.538011 
L 433.037606 -195.538011 
L 430.75052 -195.538011 
L 428.463433 -195.538011 
L 426.176346 -195.538011 
L 423.889259 -195.538011 
L 421.602173 -195.538011 
L 419.315086 -195.538011 
L 417.027999 -195.538011 
L 414.740913 -195.538011 
L 412.453826 -195.538011 
L 410.166739 -195.538011 
L 407.879653 -195.538011 
L 405.592566 -195.538011 
L 403.305479 -195.538011 
L 401.018393 -195.538011 
L 398.731306 -195.538011 
L 396.444219 -195.538011 
L 394.157132 -195.538011 
L 391.870046 -195.538011 
L 389.582959 -195.538011 
L 387.295872 -195.538011 
L 385.008786 -195.538011 
L 382.721699 -195.538011 
L 380.434612 -195.538011 
L 378.147526 -195.538011 
L 375.860439 -195.538011 
L 373.573352 -195.538011 
L 371.286265 -195.538011 
L 368.999179 -195.538011 
L 366.712092 -195.538011 
L 364.425005 -195.538011 
L 362.137919 -195.538011 
L 359.850832 -195.538011 
L 357.563745 -195.538011 
L 355.276659 -195.538011 
L 352.989572 -195.538011 
L 350.702485 -195.538011 
L 348.415399 -195.538011 
L 346.128312 -195.538011 
L 343.841225 -195.538011 
L 341.554138 -195.538011 
L 339.267052 -195.538011 
L 336.979965 -195.538011 
L 334.692878 -195.538011 
L 332.405792 -195.538011 
L 330.118705 -195.538011 
L 327.831618 -195.538011 
L 325.544532 -195.538011 
L 323.257445 -195.538011 
L 320.970358 -195.538011 
L 318.683272 -195.538011 
L 316.396185 -195.538011 
L 314.109098 -195.538011 
L 311.822011 -195.538011 
L 309.534925 -195.538011 
L 307.247838 -195.538011 
L 304.960751 -195.538011 
L 302.673665 -195.538011 
L 300.386578 -195.538011 
L 298.099491 -195.538011 
L 295.812405 -195.538011 
L 293.525318 -195.538011 
L 291.238231 -195.538011 
L 288.951144 -195.538011 
z
" id="m0a6df1fb57" style="stroke:#ff6384;stroke-opacity:0.5;"/>
    </defs>
    <g clip-path="url(#pc1b1a7a2ca)">
     <use style="fill:#ff6384;fill-opacity:0.5;stroke:#ff6384;stroke-opacity:0.5;" x="0" xlink:href="#m0a6df1fb57" y="581.789375"/>
    </g>
   </g>
   <g id="PolyCollection_2">
    <defs>
     <path d="M 58.827273 -195.538011 
L 58.827273 -195.635559 
L 61.453042 -195.672342 
L 64.078812 -195.721792 
L 66.704581 -195.787809 
L 69.330351 -195.87533 
L 71.95612 -195.990551 
L 74.58189 -196.141177 
L 77.207659 -196.336707 
L 79.833429 -196.588738 
L 82.459198 -196.911302 
L 85.084968 -197.321209 
L 87.710737 -197.838395 
L 90.336507 -198.486267 
L 92.962276 -199.292011 
L 95.588045 -200.286849 
L 98.213815 -201.506227 
L 100.839584 -202.989889 
L 103.465354 -204.781823 
L 106.091123 -206.930025 
L 108.716893 -209.486078 
L 111.342662 -212.504485 
L 113.968432 -216.041759 
L 116.594201 -220.155231 
L 119.219971 -224.90158 
L 121.84574 -230.335086 
L 124.47151 -236.50563 
L 127.097279 -243.456464 
L 129.723049 -251.221821 
L 132.348818 -259.82442 
L 134.974588 -269.272976 
L 137.600357 -279.559789 
L 140.226127 -290.658558 
L 142.851896 -302.522517 
L 145.477666 -315.083039 
L 148.103435 -328.2488 
L 150.729205 -341.905635 
L 153.354974 -355.917156 
L 155.980744 -370.126195 
L 158.606513 -384.357093 
L 161.232283 -398.418833 
L 163.858052 -412.108956 
L 166.483822 -425.218162 
L 169.109591 -437.535479 
L 171.73536 -448.853799 
L 174.36113 -458.975619 
L 176.986899 -467.71874 
L 179.612669 -474.921702 
L 182.238438 -480.448743 
L 184.864208 -484.19405 
L 187.489977 -486.085126 
L 190.115747 -486.085126 
L 192.741516 -484.19405 
L 195.367286 -480.448743 
L 197.993055 -474.921702 
L 200.618825 -467.71874 
L 203.244594 -458.975619 
L 205.870364 -448.853799 
L 208.496133 -437.535479 
L 211.121903 -425.218162 
L 213.747672 -412.108956 
L 216.373442 -398.418833 
L 218.999211 -384.357093 
L 221.624981 -370.126195 
L 224.25075 -355.917156 
L 226.87652 -341.905635 
L 229.502289 -328.2488 
L 232.128059 -315.083039 
L 234.753828 -302.522517 
L 237.379598 -290.658558 
L 240.005367 -279.559789 
L 242.631137 -269.272976 
L 245.256906 -259.82442 
L 247.882676 -251.221821 
L 250.508445 -243.456464 
L 253.134214 -236.50563 
L 255.759984 -230.335086 
L 258.385753 -224.90158 
L 261.011523 -220.155231 
L 263.637292 -216.041759 
L 266.263062 -212.504485 
L 268.888831 -209.486078 
L 271.514601 -206.930025 
L 274.14037 -204.781823 
L 276.76614 -202.989889 
L 279.391909 -201.506227 
L 282.017679 -200.286849 
L 284.643448 -199.292011 
L 287.269218 -198.486267 
L 289.894987 -197.838395 
L 292.520757 -197.321209 
L 295.146526 -196.911302 
L 297.772296 -196.588738 
L 300.398065 -196.336707 
L 303.023835 -196.141177 
L 305.649604 -195.990551 
L 308.275374 -195.87533 
L 310.901143 -195.787809 
L 313.526913 -195.721792 
L 316.152682 -195.672342 
L 318.778452 -195.635559 
L 318.778452 -195.538011 
L 318.778452 -195.538011 
L 316.152682 -195.538011 
L 313.526913 -195.538011 
L 310.901143 -195.538011 
L 308.275374 -195.538011 
L 305.649604 -195.538011 
L 303.023835 -195.538011 
L 300.398065 -195.538011 
L 297.772296 -195.538011 
L 295.146526 -195.538011 
L 292.520757 -195.538011 
L 289.894987 -195.538011 
L 287.269218 -195.538011 
L 284.643448 -195.538011 
L 282.017679 -195.538011 
L 279.391909 -195.538011 
L 276.76614 -195.538011 
L 274.14037 -195.538011 
L 271.514601 -195.538011 
L 268.888831 -195.538011 
L 266.263062 -195.538011 
L 263.637292 -195.538011 
L 261.011523 -195.538011 
L 258.385753 -195.538011 
L 255.759984 -195.538011 
L 253.134214 -195.538011 
L 250.508445 -195.538011 
L 247.882676 -195.538011 
L 245.256906 -195.538011 
L 242.631137 -195.538011 
L 240.005367 -195.538011 
L 237.379598 -195.538011 
L 234.753828 -195.538011 
L 232.128059 -195.538011 
L 229.502289 -195.538011 
L 226.87652 -195.538011 
L 224.25075 -195.538011 
L 221.624981 -195.538011 
L 218.999211 -195.538011 
L 216.373442 -195.538011 
L 213.747672 -195.538011 
L 211.121903 -195.538011 
L 208.496133 -195.538011 
L 205.870364 -195.538011 
L 203.244594 -195.538011 
L 200.618825 -195.538011 
L 197.993055 -195.538011 
L 195.367286 -195.538011 
L 192.741516 -195.538011 
L 190.115747 -195.538011 
L 187.489977 -195.538011 
L 184.864208 -195.538011 
L 182.238438 -195.538011 
L 179.612669 -195.538011 
L 176.986899 -195.538011 
L 174.36113 -195.538011 
L 171.73536 -195.538011 
L 169.109591 -195.538011 
L 166.483822 -195.538011 
L 163.858052 -195.538011 
L 161.232283 -195.538011 
L 158.606513 -195.538011 
L 155.980744 -195.538011 
L 153.354974 -195.538011 
L 150.729205 -195.538011 
L 148.103435 -195.538011 
L 145.477666 -195.538011 
L 142.851896 -195.538011 
L 140.226127 -195.538011 
L 137.600357 -195.538011 
L 134.974588 -195.538011 
L 132.348818 -195.538011 
L 129.723049 -195.538011 
L 127.097279 -195.538011 
L 124.47151 -195.538011 
L 121.84574 -195.538011 
L 119.219971 -195.538011 
L 116.594201 -195.538011 
L 113.968432 -195.538011 
L 111.342662 -195.538011 
L 108.716893 -195.538011 
L 106.091123 -195.538011 
L 103.465354 -195.538011 
L 100.839584 -195.538011 
L 98.213815 -195.538011 
L 95.588045 -195.538011 
L 92.962276 -195.538011 
L 90.336507 -195.538011 
L 87.710737 -195.538011 
L 85.084968 -195.538011 
L 82.459198 -195.538011 
L 79.833429 -195.538011 
L 77.207659 -195.538011 
L 74.58189 -195.538011 
L 71.95612 -195.538011 
L 69.330351 -195.538011 
L 66.704581 -195.538011 
L 64.078812 -195.538011 
L 61.453042 -195.538011 
L 58.827273 -195.538011 
z
" id="me9c402b2fb" style="stroke:#36a2eb;stroke-opacity:0.5;"/>
    </defs>
    <g clip-path="url(#pc1b1a7a2ca)">
     <use style="fill:#36a2eb;fill-opacity:0.5;stroke:#36a2eb;stroke-opacity:0.5;" x="0" xlink:href="#me9c402b2fb" y="581.789375"/>
    </g>
   </g>
   <g id="line2d_1">
    <path clip-path="url(#pc1b1a7a2ca)" d="M 288.951144 386.139371 
L 291.238231 386.097141 
L 293.525318 386.040368 
L 295.812405 385.964575 
L 298.099491 385.864094 
L 300.386578 385.73181 
L 302.673665 385.558878 
L 304.960751 385.334393 
L 307.247838 385.04504 
L 309.534925 384.674709 
L 311.822011 384.204102 
L 314.109098 383.610328 
L 316.396185 382.866516 
L 318.683272 381.941454 
L 320.970358 380.799296 
L 323.257445 379.399346 
L 325.544532 377.695976 
L 327.831618 375.638684 
L 330.118705 373.172366 
L 332.405792 370.2378 
L 334.692878 366.772413 
L 336.979965 362.711322 
L 339.267052 357.988708 
L 341.554138 352.539497 
L 343.841225 346.301371 
L 346.128312 339.217063 
L 348.415399 331.236916 
L 350.702485 322.321628 
L 352.989572 312.445114 
L 355.276659 301.597371 
L 357.563745 289.787238 
L 359.850832 277.04491 
L 362.137919 263.424078 
L 364.425005 249.003534 
L 366.712092 233.888124 
L 368.999179 218.208919 
L 371.286265 202.122504 
L 373.573352 185.809323 
L 375.860439 169.471045 
L 378.147526 153.326975 
L 380.434612 137.609553 
L 382.721699 122.559072 
L 385.008786 108.417748 
L 387.295872 95.423357 
L 389.582959 83.802649 
L 391.870046 73.764805 
L 394.157132 65.495194 
L 396.444219 59.149682 
L 398.731306 54.849752 
L 401.018393 52.678636 
L 403.305479 52.678636 
L 405.592566 54.849752 
L 407.879653 59.149682 
L 410.166739 65.495194 
L 412.453826 73.764805 
L 414.740913 83.802649 
L 417.027999 95.423357 
L 419.315086 108.417748 
L 421.602173 122.559072 
L 423.889259 137.609553 
L 426.176346 153.326975 
L 428.463433 169.471045 
L 430.75052 185.809323 
L 433.037606 202.122504 
L 435.324693 218.208919 
L 437.61178 233.888124 
L 439.898866 249.003534 
L 442.185953 263.424078 
L 444.47304 277.04491 
L 446.760126 289.787238 
L 449.047213 301.597371 
L 451.3343 312.445114 
L 453.621387 322.321628 
L 455.908473 331.236916 
L 458.19556 339.217063 
L 460.482647 346.301371 
L 462.769733 352.539497 
L 465.05682 357.988708 
L 467.343907 362.711322 
L 469.630993 366.772413 
L 471.91808 370.2378 
L 474.205167 373.172366 
L 476.492253 375.638684 
L 478.77934 377.695976 
L 481.066427 379.399346 
L 483.353514 380.799296 
L 485.6406 381.941454 
L 487.927687 382.866516 
L 490.214774 383.610328 
L 492.50186 384.204102 
L 494.788947 384.674709 
L 497.076034 385.04504 
L 499.36312 385.334393 
L 501.650207 385.558878 
L 503.937294 385.73181 
L 506.22438 385.864094 
L 508.511467 385.964575 
L 510.798554 386.040368 
L 513.085641 386.097141 
L 515.372727 386.139371 
" style="fill:none;stroke:#ff6384;stroke-linecap:square;"/>
   </g>
   <g id="line2d_2">
    <path clip-path="url(#pc1b1a7a2ca)" d="M 58.827273 386.153816 
L 61.453042 386.117033 
L 64.078812 386.067583 
L 66.704581 386.001566 
L 69.330351 385.914045 
L 71.95612 385.798824 
L 74.58189 385.648198 
L 77.207659 385.452668 
L 79.833429 385.200637 
L 82.459198 384.878073 
L 85.084968 384.468166 
L 87.710737 383.95098 
L 90.336507 383.303108 
L 92.962276 382.497364 
L 95.588045 381.502526 
L 98.213815 380.283148 
L 100.839584 378.799486 
L 103.465354 377.007552 
L 106.091123 374.85935 
L 108.716893 372.303297 
L 111.342662 369.28489 
L 113.968432 365.747616 
L 116.594201 361.634144 
L 119.219971 356.887795 
L 121.84574 351.454289 
L 124.47151 345.283745 
L 127.097279 338.332911 
L 129.723049 330.567554 
L 132.348818 321.964955 
L 134.974588 312.516399 
L 137.600357 302.229586 
L 140.226127 291.130817 
L 142.851896 279.266858 
L 145.477666 266.706336 
L 148.103435 253.540575 
L 150.729205 239.88374 
L 153.354974 225.872219 
L 155.980744 211.66318 
L 158.606513 197.432282 
L 161.232283 183.370542 
L 163.858052 169.680419 
L 166.483822 156.571213 
L 169.109591 144.253896 
L 171.73536 132.935576 
L 174.36113 122.813756 
L 176.986899 114.070635 
L 179.612669 106.867673 
L 182.238438 101.340632 
L 184.864208 97.595325 
L 187.489977 95.704249 
L 190.115747 95.704249 
L 192.741516 97.595325 
L 195.367286 101.340632 
L 197.993055 106.867673 
L 200.618825 114.070635 
L 203.244594 122.813756 
L 205.870364 132.935576 
L 208.496133 144.253896 
L 211.121903 156.571213 
L 213.747672 169.680419 
L 216.373442 183.370542 
L 218.999211 197.432282 
L 221.624981 211.66318 
L 224.25075 225.872219 
L 226.87652 239.88374 
L 229.502289 253.540575 
L 232.128059 266.706336 
L 234.753828 279.266858 
L 237.379598 291.130817 
L 240.005367 302.229586 
L 242.631137 312.516399 
L 245.256906 321.964955 
L 247.882676 330.567554 
L 250.508445 338.332911 
L 253.134214 345.283745 
L 255.759984 351.454289 
L 258.385753 356.887795 
L 261.011523 361.634144 
L 263.637292 365.747616 
L 266.263062 369.28489 
L 268.888831 372.303297 
L 271.514601 374.85935 
L 274.14037 377.007552 
L 276.76614 378.799486 
L 279.391909 380.283148 
L 282.017679 381.502526 
L 284.643448 382.497364 
L 287.269218 383.303108 
L 289.894987 383.95098 
L 292.520757 384.468166 
L 295.146526 384.878073 
L 297.772296 385.200637 
L 300.398065 385.452668 
L 303.023835 385.648198 
L 305.649604 385.798824 
L 308.275374 385.914045 
L 310.901143 386.001566 
L 313.526913 386.067583 
L 316.152682 386.117033 
L 318.778452 386.153816 
" style="fill:none;stroke:#36a2eb;stroke-linecap:square;"/>
   </g>
   <g id="patch_3">
    <path d="M 36 402.93 
L 538.2 402.93 
" style="fill:none;stroke:#000000;stroke-linecap:square;stroke-linejoin:miter;stroke-width:0.8;"/>
   </g>
   <g id="legend_1">
    <g id="patch_4">
     <path d="M 45.8 88.29875 
L 159.280938 88.29875 
Q 162.080938 88.29875 162.080938 85.49875 
L 162.080938 45.8 
Q 162.080938 43 159.280938 43 
L 45.8 43 
Q 43 43 43 45.8 
L 43 85.49875 
Q 43 88.29875 45.8 88.29875 
z
" style="fill:#ffffff;opacity:0.8;stroke:#cccccc;stroke-linejoin:miter;"/>
    </g>
    <g id="patch_5">
     <path d="M 48.6 59.237813 
L 76.6 59.237813 
L 76.6 49.437813 
L 48.6 49.437813 
z
" style="fill:#ff6384;opacity:0.5;stroke:#ff6384;stroke-linejoin:miter;"/>
    </g>
    <g id="text_1">
     <!-- sidemenu -->
     <defs>
      <path d="M 44.28125 53.078125 
L 44.28125 44.578125 
Q 40.484375 46.53125 36.375 47.5 
Q 32.28125 48.484375 27.875 48.484375 
Q 21.1875 48.484375 17.84375 46.4375 
Q 14.5 44.390625 14.5 40.28125 
Q 14.5 37.15625 16.890625 35.375 
Q 19.28125 33.59375 26.515625 31.984375 
L 29.59375 31.296875 
Q 39.15625 29.25 43.1875 25.515625 
Q 47.21875 21.78125 47.21875 15.09375 
Q 47.21875 7.46875 41.1875 3.015625 
Q 35.15625 -1.421875 24.609375 -1.421875 
Q 20.21875 -1.421875 15.453125 -0.5625 
Q 10.6875 0.296875 5.421875 2 
L 5.421875 11.28125 
Q 10.40625 8.6875 15.234375 7.390625 
Q 20.0625 6.109375 24.8125 6.109375 
Q 31.15625 6.109375 34.5625 8.28125 
Q 37.984375 10.453125 37.984375 14.40625 
Q 37.984375 18.0625 35.515625 20.015625 
Q 33.0625 21.96875 24.703125 23.78125 
L 21.578125 24.515625 
Q 13.234375 26.265625 9.515625 29.90625 
Q 5.8125 33.546875 5.8125 39.890625 
Q 5.8125 47.609375 11.28125 51.796875 
Q 16.75 56 26.8125 56 
Q 31.78125 56 36.171875 55.265625 
Q 40.578125 54.546875 44.28125 53.078125 
z
" id="DejaVuSans-115"/>
      <path d="M 9.421875 54.6875 
L 18.40625 54.6875 
L 18.40625 0 
L 9.421875 0 
z
M 9.421875 75.984375 
L 18.40625 75.984375 
L 18.40625 64.59375 
L 9.421875 64.59375 
z
" id="DejaVuSans-105"/>
      <path d="M 45.40625 46.390625 
L 45.40625 75.984375 
L 54.390625 75.984375 
L 54.390625 0 
L 45.40625 0 
L 45.40625 8.203125 
Q 42.578125 3.328125 38.25 0.953125 
Q 33.9375 -1.421875 27.875 -1.421875 
Q 17.96875 -1.421875 11.734375 6.484375 
Q 5.515625 14.40625 5.515625 27.296875 
Q 5.515625 40.1875 11.734375 48.09375 
Q 17.96875 56 27.875 56 
Q 33.9375 56 38.25 53.625 
Q 42.578125 51.265625 45.40625 46.390625 
z
M 14.796875 27.296875 
Q 14.796875 17.390625 18.875 11.75 
Q 22.953125 6.109375 30.078125 6.109375 
Q 37.203125 6.109375 41.296875 11.75 
Q 45.40625 17.390625 45.40625 27.296875 
Q 45.40625 37.203125 41.296875 42.84375 
Q 37.203125 48.484375 30.078125 48.484375 
Q 22.953125 48.484375 18.875 42.84375 
Q 14.796875 37.203125 14.796875 27.296875 
z
" id="DejaVuSans-100"/>
      <path d="M 56.203125 29.59375 
L 56.203125 25.203125 
L 14.890625 25.203125 
Q 15.484375 15.921875 20.484375 11.0625 
Q 25.484375 6.203125 34.421875 6.203125 
Q 39.59375 6.203125 44.453125 7.46875 
Q 49.3125 8.734375 54.109375 11.28125 
L 54.109375 2.78125 
Q 49.265625 0.734375 44.1875 -0.34375 
Q 39.109375 -1.421875 33.890625 -1.421875 
Q 20.796875 -1.421875 13.15625 6.1875 
Q 5.515625 13.8125 5.515625 26.8125 
Q 5.515625 40.234375 12.765625 48.109375 
Q 20.015625 56 32.328125 56 
Q 43.359375 56 49.78125 48.890625 
Q 56.203125 41.796875 56.203125 29.59375 
z
M 47.21875 32.234375 
Q 47.125 39.59375 43.09375 43.984375 
Q 39.0625 48.390625 32.421875 48.390625 
Q 24.90625 48.390625 20.390625 44.140625 
Q 15.875 39.890625 15.1875 32.171875 
z
" id="DejaVuSans-101"/>
      <path d="M 52 44.1875 
Q 55.375 50.25 60.0625 53.125 
Q 64.75 56 71.09375 56 
Q 79.640625 56 84.28125 50.015625 
Q 88.921875 44.046875 88.921875 33.015625 
L 88.921875 0 
L 79.890625 0 
L 79.890625 32.71875 
Q 79.890625 40.578125 77.09375 44.375 
Q 74.3125 48.1875 68.609375 48.1875 
Q 61.625 48.1875 57.5625 43.546875 
Q 53.515625 38.921875 53.515625 30.90625 
L 53.515625 0 
L 44.484375 0 
L 44.484375 32.71875 
Q 44.484375 40.625 41.703125 44.40625 
Q 38.921875 48.1875 33.109375 48.1875 
Q 26.21875 48.1875 22.15625 43.53125 
Q 18.109375 38.875 18.109375 30.90625 
L 18.109375 0 
L 9.078125 0 
L 9.078125 54.6875 
L 18.109375 54.6875 
L 18.109375 46.1875 
Q 21.1875 51.21875 25.484375 53.609375 
Q 29.78125 56 35.6875 56 
Q 41.65625 56 45.828125 52.96875 
Q 50 49.953125 52 44.1875 
z
" id="DejaVuSans-109"/>
      <path d="M 54.890625 33.015625 
L 54.890625 0 
L 45.90625 0 
L 45.90625 32.71875 
Q 45.90625 40.484375 42.875 44.328125 
Q 39.84375 48.1875 33.796875 48.1875 
Q 26.515625 48.1875 22.3125 43.546875 
Q 18.109375 38.921875 18.109375 30.90625 
L 18.109375 0 
L 9.078125 0 
L 9.078125 54.6875 
L 18.109375 54.6875 
L 18.109375 46.1875 
Q 21.34375 51.125 25.703125 53.5625 
Q 30.078125 56 35.796875 56 
Q 45.21875 56 50.046875 50.171875 
Q 54.890625 44.34375 54.890625 33.015625 
z
" id="DejaVuSans-110"/>
      <path d="M 8.5 21.578125 
L 8.5 54.6875 
L 17.484375 54.6875 
L 17.484375 21.921875 
Q 17.484375 14.15625 20.5 10.265625 
Q 23.53125 6.390625 29.59375 6.390625 
Q 36.859375 6.390625 41.078125 11.03125 
Q 45.3125 15.671875 45.3125 23.6875 
L 45.3125 54.6875 
L 54.296875 54.6875 
L 54.296875 0 
L 45.3125 0 
L 45.3125 8.40625 
Q 42.046875 3.421875 37.71875 1 
Q 33.40625 -1.421875 27.6875 -1.421875 
Q 18.265625 -1.421875 13.375 4.4375 
Q 8.5 10.296875 8.5 21.578125 
z
M 31.109375 56 
z
" id="DejaVuSans-117"/>
     </defs>
     <g transform="translate(87.8 59.237813)scale(0.14 -0.14)">
      <use xlink:href="#DejaVuSans-115"/>
      <use x="52.099609" xlink:href="#DejaVuSans-105"/>
      <use x="79.882812" xlink:href="#DejaVuSans-100"/>
      <use x="143.359375" xlink:href="#DejaVuSans-101"/>
      <use x="204.882812" xlink:href="#DejaVuSans-109"/>
      <use x="302.294922" xlink:href="#DejaVuSans-101"/>
      <use x="363.818359" xlink:href="#DejaVuSans-110"/>
      <use x="427.197266" xlink:href="#DejaVuSans-117"/>
     </g>
    </g>
    <g id="patch_6">
     <path d="M 48.6 79.787188 
L 76.6 79.787188 
L 76.6 69.987188 
L 48.6 69.987188 
z
" style="fill:#36a2eb;opacity:0.5;stroke:#36a2eb;stroke-linejoin:miter;"/>
    </g>
    <g id="text_2">
     <!-- tabbar -->
     <defs>
      <path d="M 18.3125 70.21875 
L 18.3125 54.6875 
L 36.8125 54.6875 
L 36.8125 47.703125 
L 18.3125 47.703125 
L 18.3125 18.015625 
Q 18.3125 11.328125 20.140625 9.421875 
Q 21.96875 7.515625 27.59375 7.515625 
L 36.8125 7.515625 
L 36.8125 0 
L 27.59375 0 
Q 17.1875 0 13.234375 3.875 
Q 9.28125 7.765625 9.28125 18.015625 
L 9.28125 47.703125 
L 2.6875 47.703125 
L 2.6875 54.6875 
L 9.28125 54.6875 
L 9.28125 70.21875 
z
" id="DejaVuSans-116"/>
      <path d="M 34.28125 27.484375 
Q 23.390625 27.484375 19.1875 25 
Q 14.984375 22.515625 14.984375 16.5 
Q 14.984375 11.71875 18.140625 8.90625 
Q 21.296875 6.109375 26.703125 6.109375 
Q 34.1875 6.109375 38.703125 11.40625 
Q 43.21875 16.703125 43.21875 25.484375 
L 43.21875 27.484375 
z
M 52.203125 31.203125 
L 52.203125 0 
L 43.21875 0 
L 43.21875 8.296875 
Q 40.140625 3.328125 35.546875 0.953125 
Q 30.953125 -1.421875 24.3125 -1.421875 
Q 15.921875 -1.421875 10.953125 3.296875 
Q 6 8.015625 6 15.921875 
Q 6 25.140625 12.171875 29.828125 
Q 18.359375 34.515625 30.609375 34.515625 
L 43.21875 34.515625 
L 43.21875 35.40625 
Q 43.21875 41.609375 39.140625 45 
Q 35.0625 48.390625 27.6875 48.390625 
Q 23 48.390625 18.546875 47.265625 
Q 14.109375 46.140625 10.015625 43.890625 
L 10.015625 52.203125 
Q 14.9375 54.109375 19.578125 55.046875 
Q 24.21875 56 28.609375 56 
Q 40.484375 56 46.34375 49.84375 
Q 52.203125 43.703125 52.203125 31.203125 
z
" id="DejaVuSans-97"/>
      <path d="M 48.6875 27.296875 
Q 48.6875 37.203125 44.609375 42.84375 
Q 40.53125 48.484375 33.40625 48.484375 
Q 26.265625 48.484375 22.1875 42.84375 
Q 18.109375 37.203125 18.109375 27.296875 
Q 18.109375 17.390625 22.1875 11.75 
Q 26.265625 6.109375 33.40625 6.109375 
Q 40.53125 6.109375 44.609375 11.75 
Q 48.6875 17.390625 48.6875 27.296875 
z
M 18.109375 46.390625 
Q 20.953125 51.265625 25.265625 53.625 
Q 29.59375 56 35.59375 56 
Q 45.5625 56 51.78125 48.09375 
Q 58.015625 40.1875 58.015625 27.296875 
Q 58.015625 14.40625 51.78125 6.484375 
Q 45.5625 -1.421875 35.59375 -1.421875 
Q 29.59375 -1.421875 25.265625 0.953125 
Q 20.953125 3.328125 18.109375 8.203125 
L 18.109375 0 
L 9.078125 0 
L 9.078125 75.984375 
L 18.109375 75.984375 
z
" id="DejaVuSans-98"/>
      <path d="M 41.109375 46.296875 
Q 39.59375 47.171875 37.8125 47.578125 
Q 36.03125 48 33.890625 48 
Q 26.265625 48 22.1875 43.046875 
Q 18.109375 38.09375 18.109375 28.8125 
L 18.109375 0 
L 9.078125 0 
L 9.078125 54.6875 
L 18.109375 54.6875 
L 18.109375 46.1875 
Q 20.953125 51.171875 25.484375 53.578125 
Q 30.03125 56 36.53125 56 
Q 37.453125 56 38.578125 55.875 
Q 39.703125 55.765625 41.0625 55.515625 
z
" id="DejaVuSans-114"/>
     </defs>
     <g transform="translate(87.8 79.787188)scale(0.14 -0.14)">
      <use xlink:href="#DejaVuSans-116"/>
      <use x="39.208984" xlink:href="#DejaVuSans-97"/>
      <use x="100.488281" xlink:href="#DejaVuSans-98"/>
      <use x="163.964844" xlink:href="#DejaVuSans-98"/>
      <use x="227.441406" xlink:href="#DejaVuSans-97"/>
      <use x="288.720703" xlink:href="#DejaVuSans-114"/>
     </g>
    </g>
   </g>
  </g>
  <g id="axes_2">
   <g id="patch_7">
    <path d="M 36 525.24 
L 538.2 525.24 
L 538.2 402.93 
L 36 402.93 
z
" style="fill:none;"/>
   </g>
   <g id="patch_8">
    <path clip-path="url(#p5380b6b018)" d="M 346.688648 519.680455 
L 457.635224 519.680455 
L 457.635224 482.616818 
L 346.688648 482.616818 
z
" style="fill:#ff6384;opacity:0.5;"/>
   </g>
   <g id="patch_9">
    <path clip-path="url(#p5380b6b018)" d="M 125.114823 445.553182 
L 252.490901 445.553182 
L 252.490901 408.489545 
L 125.114823 408.489545 
z
" style="fill:#36a2eb;opacity:0.5;"/>
   </g>
   <g id="matplotlib.axis_1">
    <g id="xtick_1">
     <g id="line2d_3">
      <defs>
       <path d="M 0 0 
L 0 3.5 
" id="m6c2b68e0e8" style="stroke:#000000;stroke-width:0.8;"/>
      </defs>
      <g>
       <use style="stroke:#000000;stroke-width:0.8;" x="87.756508" xlink:href="#m6c2b68e0e8" y="525.24"/>
      </g>
     </g>
     <g id="text_3">
      <!-- 31.5 -->
      <defs>
       <path d="M 40.578125 39.3125 
Q 47.65625 37.796875 51.625 33 
Q 55.609375 28.21875 55.609375 21.1875 
Q 55.609375 10.40625 48.1875 4.484375 
Q 40.765625 -1.421875 27.09375 -1.421875 
Q 22.515625 -1.421875 17.65625 -0.515625 
Q 12.796875 0.390625 7.625 2.203125 
L 7.625 11.71875 
Q 11.71875 9.328125 16.59375 8.109375 
Q 21.484375 6.890625 26.8125 6.890625 
Q 36.078125 6.890625 40.9375 10.546875 
Q 45.796875 14.203125 45.796875 21.1875 
Q 45.796875 27.640625 41.28125 31.265625 
Q 36.765625 34.90625 28.71875 34.90625 
L 20.21875 34.90625 
L 20.21875 43.015625 
L 29.109375 43.015625 
Q 36.375 43.015625 40.234375 45.921875 
Q 44.09375 48.828125 44.09375 54.296875 
Q 44.09375 59.90625 40.109375 62.90625 
Q 36.140625 65.921875 28.71875 65.921875 
Q 24.65625 65.921875 20.015625 65.03125 
Q 15.375 64.15625 9.8125 62.3125 
L 9.8125 71.09375 
Q 15.4375 72.65625 20.34375 73.4375 
Q 25.25 74.21875 29.59375 74.21875 
Q 40.828125 74.21875 47.359375 69.109375 
Q 53.90625 64.015625 53.90625 55.328125 
Q 53.90625 49.265625 50.4375 45.09375 
Q 46.96875 40.921875 40.578125 39.3125 
z
" id="DejaVuSans-51"/>
       <path d="M 12.40625 8.296875 
L 28.515625 8.296875 
L 28.515625 63.921875 
L 10.984375 60.40625 
L 10.984375 69.390625 
L 28.421875 72.90625 
L 38.28125 72.90625 
L 38.28125 8.296875 
L 54.390625 8.296875 
L 54.390625 0 
L 12.40625 0 
z
" id="DejaVuSans-49"/>
       <path d="M 10.6875 12.40625 
L 21 12.40625 
L 21 0 
L 10.6875 0 
z
" id="DejaVuSans-46"/>
       <path d="M 10.796875 72.90625 
L 49.515625 72.90625 
L 49.515625 64.59375 
L 19.828125 64.59375 
L 19.828125 46.734375 
Q 21.96875 47.46875 24.109375 47.828125 
Q 26.265625 48.1875 28.421875 48.1875 
Q 40.625 48.1875 47.75 41.5 
Q 54.890625 34.8125 54.890625 23.390625 
Q 54.890625 11.625 47.5625 5.09375 
Q 40.234375 -1.421875 26.90625 -1.421875 
Q 22.3125 -1.421875 17.546875 -0.640625 
Q 12.796875 0.140625 7.71875 1.703125 
L 7.71875 11.625 
Q 12.109375 9.234375 16.796875 8.0625 
Q 21.484375 6.890625 26.703125 6.890625 
Q 35.15625 6.890625 40.078125 11.328125 
Q 45.015625 15.765625 45.015625 23.390625 
Q 45.015625 31 40.078125 35.4375 
Q 35.15625 39.890625 26.703125 39.890625 
Q 22.75 39.890625 18.8125 39.015625 
Q 14.890625 38.140625 10.796875 36.28125 
z
" id="DejaVuSans-53"/>
      </defs>
      <g transform="translate(72.170571 542.877813)scale(0.14 -0.14)">
       <use xlink:href="#DejaVuSans-51"/>
       <use x="63.623047" xlink:href="#DejaVuSans-49"/>
       <use x="127.246094" xlink:href="#DejaVuSans-46"/>
       <use x="159.033203" xlink:href="#DejaVuSans-53"/>
      </g>
     </g>
    </g>
    <g id="xtick_2">
     <g id="line2d_4">
      <g>
       <use style="stroke:#000000;stroke-width:0.8;" x="148.263307" xlink:href="#m6c2b68e0e8" y="525.24"/>
      </g>
     </g>
     <g id="text_4">
      <!-- 32.0 -->
      <defs>
       <path d="M 19.1875 8.296875 
L 53.609375 8.296875 
L 53.609375 0 
L 7.328125 0 
L 7.328125 8.296875 
Q 12.9375 14.109375 22.625 23.890625 
Q 32.328125 33.6875 34.8125 36.53125 
Q 39.546875 41.84375 41.421875 45.53125 
Q 43.3125 49.21875 43.3125 52.78125 
Q 43.3125 58.59375 39.234375 62.25 
Q 35.15625 65.921875 28.609375 65.921875 
Q 23.96875 65.921875 18.8125 64.3125 
Q 13.671875 62.703125 7.8125 59.421875 
L 7.8125 69.390625 
Q 13.765625 71.78125 18.9375 73 
Q 24.125 74.21875 28.421875 74.21875 
Q 39.75 74.21875 46.484375 68.546875 
Q 53.21875 62.890625 53.21875 53.421875 
Q 53.21875 48.921875 51.53125 44.890625 
Q 49.859375 40.875 45.40625 35.40625 
Q 44.1875 33.984375 37.640625 27.21875 
Q 31.109375 20.453125 19.1875 8.296875 
z
" id="DejaVuSans-50"/>
       <path d="M 31.78125 66.40625 
Q 24.171875 66.40625 20.328125 58.90625 
Q 16.5 51.421875 16.5 36.375 
Q 16.5 21.390625 20.328125 13.890625 
Q 24.171875 6.390625 31.78125 6.390625 
Q 39.453125 6.390625 43.28125 13.890625 
Q 47.125 21.390625 47.125 36.375 
Q 47.125 51.421875 43.28125 58.90625 
Q 39.453125 66.40625 31.78125 66.40625 
z
M 31.78125 74.21875 
Q 44.046875 74.21875 50.515625 64.515625 
Q 56.984375 54.828125 56.984375 36.375 
Q 56.984375 17.96875 50.515625 8.265625 
Q 44.046875 -1.421875 31.78125 -1.421875 
Q 19.53125 -1.421875 13.0625 8.265625 
Q 6.59375 17.96875 6.59375 36.375 
Q 6.59375 54.828125 13.0625 64.515625 
Q 19.53125 74.21875 31.78125 74.21875 
z
" id="DejaVuSans-48"/>
      </defs>
      <g transform="translate(132.677369 542.877813)scale(0.14 -0.14)">
       <use xlink:href="#DejaVuSans-51"/>
       <use x="63.623047" xlink:href="#DejaVuSans-50"/>
       <use x="127.246094" xlink:href="#DejaVuSans-46"/>
       <use x="159.033203" xlink:href="#DejaVuSans-48"/>
      </g>
     </g>
    </g>
    <g id="xtick_3">
     <g id="line2d_5">
      <g>
       <use style="stroke:#000000;stroke-width:0.8;" x="208.770106" xlink:href="#m6c2b68e0e8" y="525.24"/>
      </g>
     </g>
     <g id="text_5">
      <!-- 32.5 -->
      <g transform="translate(193.184168 542.877813)scale(0.14 -0.14)">
       <use xlink:href="#DejaVuSans-51"/>
       <use x="63.623047" xlink:href="#DejaVuSans-50"/>
       <use x="127.246094" xlink:href="#DejaVuSans-46"/>
       <use x="159.033203" xlink:href="#DejaVuSans-53"/>
      </g>
     </g>
    </g>
    <g id="xtick_4">
     <g id="line2d_6">
      <g>
       <use style="stroke:#000000;stroke-width:0.8;" x="269.276904" xlink:href="#m6c2b68e0e8" y="525.24"/>
      </g>
     </g>
     <g id="text_6">
      <!-- 33.0 -->
      <g transform="translate(253.690967 542.877813)scale(0.14 -0.14)">
       <use xlink:href="#DejaVuSans-51"/>
       <use x="63.623047" xlink:href="#DejaVuSans-51"/>
       <use x="127.246094" xlink:href="#DejaVuSans-46"/>
       <use x="159.033203" xlink:href="#DejaVuSans-48"/>
      </g>
     </g>
    </g>
    <g id="xtick_5">
     <g id="line2d_7">
      <g>
       <use style="stroke:#000000;stroke-width:0.8;" x="329.783703" xlink:href="#m6c2b68e0e8" y="525.24"/>
      </g>
     </g>
     <g id="text_7">
      <!-- 33.5 -->
      <g transform="translate(314.197766 542.877813)scale(0.14 -0.14)">
       <use xlink:href="#DejaVuSans-51"/>
       <use x="63.623047" xlink:href="#DejaVuSans-51"/>
       <use x="127.246094" xlink:href="#DejaVuSans-46"/>
       <use x="159.033203" xlink:href="#DejaVuSans-53"/>
      </g>
     </g>
    </g>
    <g id="xtick_6">
     <g id="line2d_8">
      <g>
       <use style="stroke:#000000;stroke-width:0.8;" x="390.290502" xlink:href="#m6c2b68e0e8" y="525.24"/>
      </g>
     </g>
     <g id="text_8">
      <!-- 34.0 -->
      <defs>
       <path d="M 37.796875 64.3125 
L 12.890625 25.390625 
L 37.796875 25.390625 
z
M 35.203125 72.90625 
L 47.609375 72.90625 
L 47.609375 25.390625 
L 58.015625 25.390625 
L 58.015625 17.1875 
L 47.609375 17.1875 
L 47.609375 0 
L 37.796875 0 
L 37.796875 17.1875 
L 4.890625 17.1875 
L 4.890625 26.703125 
z
" id="DejaVuSans-52"/>
      </defs>
      <g transform="translate(374.704564 542.877813)scale(0.14 -0.14)">
       <use xlink:href="#DejaVuSans-51"/>
       <use x="63.623047" xlink:href="#DejaVuSans-52"/>
       <use x="127.246094" xlink:href="#DejaVuSans-46"/>
       <use x="159.033203" xlink:href="#DejaVuSans-48"/>
      </g>
     </g>
    </g>
    <g id="xtick_7">
     <g id="line2d_9">
      <g>
       <use style="stroke:#000000;stroke-width:0.8;" x="450.797301" xlink:href="#m6c2b68e0e8" y="525.24"/>
      </g>
     </g>
     <g id="text_9">
      <!-- 34.5 -->
      <g transform="translate(435.211363 542.877813)scale(0.14 -0.14)">
       <use xlink:href="#DejaVuSans-51"/>
       <use x="63.623047" xlink:href="#DejaVuSans-52"/>
       <use x="127.246094" xlink:href="#DejaVuSans-46"/>
       <use x="159.033203" xlink:href="#DejaVuSans-53"/>
      </g>
     </g>
    </g>
    <g id="xtick_8">
     <g id="line2d_10">
      <g>
       <use style="stroke:#000000;stroke-width:0.8;" x="511.304099" xlink:href="#m6c2b68e0e8" y="525.24"/>
      </g>
     </g>
     <g id="text_10">
      <!-- 35.0 -->
      <g transform="translate(495.718162 542.877813)scale(0.14 -0.14)">
       <use xlink:href="#DejaVuSans-51"/>
       <use x="63.623047" xlink:href="#DejaVuSans-53"/>
       <use x="127.246094" xlink:href="#DejaVuSans-46"/>
       <use x="159.033203" xlink:href="#DejaVuSans-48"/>
      </g>
     </g>
    </g>
   </g>
   <g id="line2d_11">
    <path clip-path="url(#p5380b6b018)" d="M 402.161936 525.24 
L 402.161936 402.93 
" style="fill:none;stroke:#ff6384;stroke-dasharray:5.55,2.4;stroke-dashoffset:0;stroke-opacity:0.8;stroke-width:1.5;"/>
   </g>
   <g id="line2d_12">
    <path clip-path="url(#p5380b6b018)" d="M 188.802862 525.24 
L 188.802862 402.93 
" style="fill:none;stroke:#36a2eb;stroke-dasharray:5.55,2.4;stroke-dashoffset:0;stroke-opacity:0.8;stroke-width:1.5;"/>
   </g>
   <g id="patch_10">
    <path d="M 36 525.24 
L 538.2 525.24 
" style="fill:none;stroke:#000000;stroke-linecap:square;stroke-linejoin:miter;stroke-width:0.8;"/>
   </g>
  </g>
 </g>
 <defs>
  <clipPath id="pc1b1a7a2ca">
   <rect height="366.93" width="502.2" x="36" y="36"/>
  </clipPath>
  <clipPath id="p5380b6b018">
   <rect height="122.31" width="502.2" x="36" y="402.93"/>
  </clipPath>
 </defs>
</svg>
