<?xml version="1.0" encoding="utf-8" standalone="no"?>
<!DOCTYPE svg PUBLIC "-//W3C//DTD SVG 1.1//EN"
  "http://www.w3.org/Graphics/SVG/1.1/DTD/svg11.dtd">
<!-- Created with matplotlib (https://matplotlib.org/) -->
<svg height="581.789375pt" version="1.1" viewBox="0 0 574.2 581.789375" width="574.2pt" xmlns="http://www.w3.org/2000/svg" xmlns:xlink="http://www.w3.org/1999/xlink">
 <defs>
  <style type="text/css">
*{stroke-linecap:butt;stroke-linejoin:round;}
  </style>
 </defs>
 <g id="figure_1">
  <g id="patch_1">
   <path d="M 0 581.789375 
L 574.2 581.789375 
L 574.2 0 
L 0 0 
z
" style="fill:none;"/>
  </g>
  <g id="axes_1">
   <g id="patch_2">
    <path d="M 36 402.93 
L 538.2 402.93 
L 538.2 36 
L 36 36 
z
" style="fill:none;"/>
   </g>
   <g id="PolyCollection_1">
    <defs>
     <path d="M 124.848771 -195.538011 
L 124.848771 -195.650004 
L 128.793458 -195.692234 
L 132.738144 -195.749007 
L 136.68283 -195.8248 
L 140.627517 -195.925281 
L 144.572203 -196.057565 
L 148.51689 -196.230497 
L 152.461576 -196.454982 
L 156.406263 -196.744335 
L 160.350949 -197.114666 
L 164.295635 -197.585273 
L 168.240322 -198.179047 
L 172.185008 -198.922859 
L 176.129695 -199.847921 
L 180.074381 -200.990079 
L 184.019068 -202.390029 
L 187.963754 -204.093399 
L 191.90844 -206.150691 
L 195.853127 -208.617009 
L 199.797813 -211.551575 
L 203.7425 -215.016962 
L 207.687186 -219.078053 
L 211.631872 -223.800667 
L 215.576559 -229.249878 
L 219.521245 -235.488004 
L 223.465932 -242.572312 
L 227.410618 -250.552459 
L 231.355305 -259.467747 
L 235.299991 -269.344261 
L 239.244677 -280.192004 
L 243.189364 -292.002137 
L 247.13405 -304.744465 
L 251.078737 -318.365297 
L 255.023423 -332.785841 
L 258.96811 -347.901251 
L 262.912796 -363.580456 
L 266.857482 -379.666871 
L 270.802169 -395.980052 
L 274.746855 -412.31833 
L 278.691542 -428.4624 
L 282.636228 -444.179822 
L 286.580915 -459.230303 
L 290.525601 -473.371627 
L 294.470287 -486.366018 
L 298.414974 -497.986726 
L 302.35966 -508.02457 
L 306.304347 -516.294181 
L 310.249033 -522.639693 
L 314.19372 -526.939623 
L 318.138406 -529.110739 
L 322.083092 -529.110739 
L 326.027779 -526.939623 
L 329.972465 -522.639693 
L 333.917152 -516.294181 
L 337.861838 -508.02457 
L 341.806525 -497.986726 
L 345.751211 -486.366018 
L 349.695897 -473.371627 
L 353.640584 -459.230303 
L 357.58527 -444.179822 
L 361.529957 -428.4624 
L 365.474643 -412.31833 
L 369.41933 -395.980052 
L 373.364016 -379.666871 
L 377.308702 -363.580456 
L 381.253389 -347.901251 
L 385.198075 -332.785841 
L 389.142762 -318.365297 
L 393.087448 -304.744465 
L 397.032135 -292.002137 
L 400.976821 -280.192004 
L 404.921507 -269.344261 
L 408.866194 -259.467747 
L 412.81088 -250.552459 
L 416.755567 -242.572312 
L 420.700253 -235.488004 
L 424.644939 -229.249878 
L 428.589626 -223.800667 
L 432.534312 -219.078053 
L 436.478999 -215.016962 
L 440.423685 -211.551575 
L 444.368372 -208.617009 
L 448.313058 -206.150691 
L 452.257744 -204.093399 
L 456.202431 -202.390029 
L 460.147117 -200.990079 
L 464.091804 -199.847921 
L 468.03649 -198.922859 
L 471.981177 -198.179047 
L 475.925863 -197.585273 
L 479.870549 -197.114666 
L 483.815236 -196.744335 
L 487.759922 -196.454982 
L 491.704609 -196.230497 
L 495.649295 -196.057565 
L 499.593982 -195.925281 
L 503.538668 -195.8248 
L 507.483354 -195.749007 
L 511.428041 -195.692234 
L 515.372727 -195.650004 
L 515.372727 -195.538011 
L 515.372727 -195.538011 
L 511.428041 -195.538011 
L 507.483354 -195.538011 
L 503.538668 -195.538011 
L 499.593982 -195.538011 
L 495.649295 -195.538011 
L 491.704609 -195.538011 
L 487.759922 -195.538011 
L 483.815236 -195.538011 
L 479.870549 -195.538011 
L 475.925863 -195.538011 
L 471.981177 -195.538011 
L 468.03649 -195.538011 
L 464.091804 -195.538011 
L 460.147117 -195.538011 
L 456.202431 -195.538011 
L 452.257744 -195.538011 
L 448.313058 -195.538011 
L 444.368372 -195.538011 
L 440.423685 -195.538011 
L 436.478999 -195.538011 
L 432.534312 -195.538011 
L 428.589626 -195.538011 
L 424.644939 -195.538011 
L 420.700253 -195.538011 
L 416.755567 -195.538011 
L 412.81088 -195.538011 
L 408.866194 -195.538011 
L 404.921507 -195.538011 
L 400.976821 -195.538011 
L 397.032135 -195.538011 
L 393.087448 -195.538011 
L 389.142762 -195.538011 
L 385.198075 -195.538011 
L 381.253389 -195.538011 
L 377.308702 -195.538011 
L 373.364016 -195.538011 
L 369.41933 -195.538011 
L 365.474643 -195.538011 
L 361.529957 -195.538011 
L 357.58527 -195.538011 
L 353.640584 -195.538011 
L 349.695897 -195.538011 
L 345.751211 -195.538011 
L 341.806525 -195.538011 
L 337.861838 -195.538011 
L 333.917152 -195.538011 
L 329.972465 -195.538011 
L 326.027779 -195.538011 
L 322.083092 -195.538011 
L 318.138406 -195.538011 
L 314.19372 -195.538011 
L 310.249033 -195.538011 
L 306.304347 -195.538011 
L 302.35966 -195.538011 
L 298.414974 -195.538011 
L 294.470287 -195.538011 
L 290.525601 -195.538011 
L 286.580915 -195.538011 
L 282.636228 -195.538011 
L 278.691542 -195.538011 
L 274.746855 -195.538011 
L 270.802169 -195.538011 
L 266.857482 -195.538011 
L 262.912796 -195.538011 
L 258.96811 -195.538011 
L 255.023423 -195.538011 
L 251.078737 -195.538011 
L 247.13405 -195.538011 
L 243.189364 -195.538011 
L 239.244677 -195.538011 
L 235.299991 -195.538011 
L 231.355305 -195.538011 
L 227.410618 -195.538011 
L 223.465932 -195.538011 
L 219.521245 -195.538011 
L 215.576559 -195.538011 
L 211.631872 -195.538011 
L 207.687186 -195.538011 
L 203.7425 -195.538011 
L 199.797813 -195.538011 
L 195.853127 -195.538011 
L 191.90844 -195.538011 
L 187.963754 -195.538011 
L 184.019068 -195.538011 
L 180.074381 -195.538011 
L 176.129695 -195.538011 
L 172.185008 -195.538011 
L 168.240322 -195.538011 
L 164.295635 -195.538011 
L 160.350949 -195.538011 
L 156.406263 -195.538011 
L 152.461576 -195.538011 
L 148.51689 -195.538011 
L 144.572203 -195.538011 
L 140.627517 -195.538011 
L 136.68283 -195.538011 
L 132.738144 -195.538011 
L 128.793458 -195.538011 
L 124.848771 -195.538011 
z
" id="m88cc8aa589" style="stroke:#ff6384;stroke-opacity:0.5;"/>
    </defs>
    <g clip-path="url(#pc048848405)">
     <use style="fill:#ff6384;fill-opacity:0.5;stroke:#ff6384;stroke-opacity:0.5;" x="0" xlink:href="#m88cc8aa589" y="581.789375"/>
    </g>
   </g>
   <g id="PolyCollection_2">
    <defs>
     <path d="M 58.827273 -195.538011 
L 58.827273 -195.642925 
L 63.038122 -195.682486 
L 67.248971 -195.73567 
L 71.45982 -195.806672 
L 75.670669 -195.900803 
L 79.881518 -196.024725 
L 84.092367 -196.186726 
L 88.303216 -196.397021 
L 92.514065 -196.668085 
L 96.724913 -197.015008 
L 100.935762 -197.455868 
L 105.146611 -198.01211 
L 109.35746 -198.708907 
L 113.568309 -199.575497 
L 117.779158 -200.645461 
L 121.990007 -201.956921 
L 126.200856 -203.552624 
L 130.411705 -205.479877 
L 134.622554 -207.790302 
L 138.833403 -210.539377 
L 143.044252 -213.785722 
L 147.255101 -217.590116 
L 151.46595 -222.01422 
L 155.676799 -227.118992 
L 159.887648 -232.962814 
L 164.098497 -239.599332 
L 168.309346 -247.075064 
L 172.520195 -255.426827 
L 176.731044 -264.679059 
L 180.941893 -274.84113 
L 185.152742 -285.90476 
L 189.363591 -297.84166 
L 193.57444 -310.601537 
L 197.785289 -324.110576 
L 201.996138 -338.270559 
L 206.206987 -352.958701 
L 210.417836 -368.028314 
L 214.628685 -383.310359 
L 218.839534 -398.615914 
L 223.050383 -413.739538 
L 227.261232 -428.463481 
L 231.472081 -442.56264 
L 235.68293 -455.810108 
L 239.893779 -467.98314 
L 244.104628 -478.869318 
L 248.315477 -488.272681 
L 252.526326 -496.019581 
L 256.737175 -501.964001 
L 260.948024 -505.992138 
L 265.158872 -508.02602 
L 269.369721 -508.02602 
L 273.58057 -505.992138 
L 277.791419 -501.964001 
L 282.002268 -496.019581 
L 286.213117 -488.272681 
L 290.423966 -478.869318 
L 294.634815 -467.98314 
L 298.845664 -455.810108 
L 303.056513 -442.56264 
L 307.267362 -428.463481 
L 311.478211 -413.739538 
L 315.68906 -398.615914 
L 319.899909 -383.310359 
L 324.110758 -368.028314 
L 328.321607 -352.958701 
L 332.532456 -338.270559 
L 336.743305 -324.110576 
L 340.954154 -310.601537 
L 345.165003 -297.84166 
L 349.375852 -285.90476 
L 353.586701 -274.84113 
L 357.79755 -264.679059 
L 362.008399 -255.426827 
L 366.219248 -247.075064 
L 370.430097 -239.599332 
L 374.640946 -232.962814 
L 378.851795 -227.118992 
L 383.062644 -222.01422 
L 387.273493 -217.590116 
L 391.484342 -213.785722 
L 395.695191 -210.539377 
L 399.90604 -207.790302 
L 404.116889 -205.479877 
L 408.327738 -203.552624 
L 412.538587 -201.956921 
L 416.749436 -200.645461 
L 420.960285 -199.575497 
L 425.171134 -198.708907 
L 429.381982 -198.01211 
L 433.592831 -197.455868 
L 437.80368 -197.015008 
L 442.014529 -196.668085 
L 446.225378 -196.397021 
L 450.436227 -196.186726 
L 454.647076 -196.024725 
L 458.857925 -195.900803 
L 463.068774 -195.806672 
L 467.279623 -195.73567 
L 471.490472 -195.682486 
L 475.701321 -195.642925 
L 475.701321 -195.538011 
L 475.701321 -195.538011 
L 471.490472 -195.538011 
L 467.279623 -195.538011 
L 463.068774 -195.538011 
L 458.857925 -195.538011 
L 454.647076 -195.538011 
L 450.436227 -195.538011 
L 446.225378 -195.538011 
L 442.014529 -195.538011 
L 437.80368 -195.538011 
L 433.592831 -195.538011 
L 429.381982 -195.538011 
L 425.171134 -195.538011 
L 420.960285 -195.538011 
L 416.749436 -195.538011 
L 412.538587 -195.538011 
L 408.327738 -195.538011 
L 404.116889 -195.538011 
L 399.90604 -195.538011 
L 395.695191 -195.538011 
L 391.484342 -195.538011 
L 387.273493 -195.538011 
L 383.062644 -195.538011 
L 378.851795 -195.538011 
L 374.640946 -195.538011 
L 370.430097 -195.538011 
L 366.219248 -195.538011 
L 362.008399 -195.538011 
L 357.79755 -195.538011 
L 353.586701 -195.538011 
L 349.375852 -195.538011 
L 345.165003 -195.538011 
L 340.954154 -195.538011 
L 336.743305 -195.538011 
L 332.532456 -195.538011 
L 328.321607 -195.538011 
L 324.110758 -195.538011 
L 319.899909 -195.538011 
L 315.68906 -195.538011 
L 311.478211 -195.538011 
L 307.267362 -195.538011 
L 303.056513 -195.538011 
L 298.845664 -195.538011 
L 294.634815 -195.538011 
L 290.423966 -195.538011 
L 286.213117 -195.538011 
L 282.002268 -195.538011 
L 277.791419 -195.538011 
L 273.58057 -195.538011 
L 269.369721 -195.538011 
L 265.158872 -195.538011 
L 260.948024 -195.538011 
L 256.737175 -195.538011 
L 252.526326 -195.538011 
L 248.315477 -195.538011 
L 244.104628 -195.538011 
L 239.893779 -195.538011 
L 235.68293 -195.538011 
L 231.472081 -195.538011 
L 227.261232 -195.538011 
L 223.050383 -195.538011 
L 218.839534 -195.538011 
L 214.628685 -195.538011 
L 210.417836 -195.538011 
L 206.206987 -195.538011 
L 201.996138 -195.538011 
L 197.785289 -195.538011 
L 193.57444 -195.538011 
L 189.363591 -195.538011 
L 185.152742 -195.538011 
L 180.941893 -195.538011 
L 176.731044 -195.538011 
L 172.520195 -195.538011 
L 168.309346 -195.538011 
L 164.098497 -195.538011 
L 159.887648 -195.538011 
L 155.676799 -195.538011 
L 151.46595 -195.538011 
L 147.255101 -195.538011 
L 143.044252 -195.538011 
L 138.833403 -195.538011 
L 134.622554 -195.538011 
L 130.411705 -195.538011 
L 126.200856 -195.538011 
L 121.990007 -195.538011 
L 117.779158 -195.538011 
L 113.568309 -195.538011 
L 109.35746 -195.538011 
L 105.146611 -195.538011 
L 100.935762 -195.538011 
L 96.724913 -195.538011 
L 92.514065 -195.538011 
L 88.303216 -195.538011 
L 84.092367 -195.538011 
L 79.881518 -195.538011 
L 75.670669 -195.538011 
L 71.45982 -195.538011 
L 67.248971 -195.538011 
L 63.038122 -195.538011 
L 58.827273 -195.538011 
z
" id="m2f3b8312bf" style="stroke:#36a2eb;stroke-opacity:0.5;"/>
    </defs>
    <g clip-path="url(#pc048848405)">
     <use style="fill:#36a2eb;fill-opacity:0.5;stroke:#36a2eb;stroke-opacity:0.5;" x="0" xlink:href="#m2f3b8312bf" y="581.789375"/>
    </g>
   </g>
   <g id="line2d_1">
    <path clip-path="url(#pc048848405)" d="M 124.848771 386.139371 
L 128.793458 386.097141 
L 132.738144 386.040368 
L 136.68283 385.964575 
L 140.627517 385.864094 
L 144.572203 385.73181 
L 148.51689 385.558878 
L 152.461576 385.334393 
L 156.406263 385.04504 
L 160.350949 384.674709 
L 164.295635 384.204102 
L 168.240322 383.610328 
L 172.185008 382.866516 
L 176.129695 381.941454 
L 180.074381 380.799296 
L 184.019068 379.399346 
L 187.963754 377.695976 
L 191.90844 375.638684 
L 195.853127 373.172366 
L 199.797813 370.2378 
L 203.7425 366.772413 
L 207.687186 362.711322 
L 211.631872 357.988708 
L 215.576559 352.539497 
L 219.521245 346.301371 
L 223.465932 339.217063 
L 227.410618 331.236916 
L 231.355305 322.321628 
L 235.299991 312.445114 
L 239.244677 301.597371 
L 243.189364 289.787238 
L 247.13405 277.04491 
L 251.078737 263.424078 
L 255.023423 249.003534 
L 258.96811 233.888124 
L 262.912796 218.208919 
L 266.857482 202.122504 
L 270.802169 185.809323 
L 274.746855 169.471045 
L 278.691542 153.326975 
L 282.636228 137.609553 
L 286.580915 122.559072 
L 290.525601 108.417748 
L 294.470287 95.423357 
L 298.414974 83.802649 
L 302.35966 73.764805 
L 306.304347 65.495194 
L 310.249033 59.149682 
L 314.19372 54.849752 
L 318.138406 52.678636 
L 322.083092 52.678636 
L 326.027779 54.849752 
L 329.972465 59.149682 
L 333.917152 65.495194 
L 337.861838 73.764805 
L 341.806525 83.802649 
L 345.751211 95.423357 
L 349.695897 108.417748 
L 353.640584 122.559072 
L 357.58527 137.609553 
L 361.529957 153.326975 
L 365.474643 169.471045 
L 369.41933 185.809323 
L 373.364016 202.122504 
L 377.308702 218.208919 
L 381.253389 233.888124 
L 385.198075 249.003534 
L 389.142762 263.424078 
L 393.087448 277.04491 
L 397.032135 289.787238 
L 400.976821 301.597371 
L 404.921507 312.445114 
L 408.866194 322.321628 
L 412.81088 331.236916 
L 416.755567 339.217063 
L 420.700253 346.301371 
L 424.644939 352.539497 
L 428.589626 357.988708 
L 432.534312 362.711322 
L 436.478999 366.772413 
L 440.423685 370.2378 
L 444.368372 373.172366 
L 448.313058 375.638684 
L 452.257744 377.695976 
L 456.202431 379.399346 
L 460.147117 380.799296 
L 464.091804 381.941454 
L 468.03649 382.866516 
L 471.981177 383.610328 
L 475.925863 384.204102 
L 479.870549 384.674709 
L 483.815236 385.04504 
L 487.759922 385.334393 
L 491.704609 385.558878 
L 495.649295 385.73181 
L 499.593982 385.864094 
L 503.538668 385.964575 
L 507.483354 386.040368 
L 511.428041 386.097141 
L 515.372727 386.139371 
" style="fill:none;stroke:#ff6384;stroke-linecap:square;"/>
   </g>
   <g id="line2d_2">
    <path clip-path="url(#pc048848405)" d="M 58.827273 386.14645 
L 63.038122 386.106889 
L 67.248971 386.053705 
L 71.45982 385.982703 
L 75.670669 385.888572 
L 79.881518 385.76465 
L 84.092367 385.602649 
L 88.303216 385.392354 
L 92.514065 385.12129 
L 96.724913 384.774367 
L 100.935762 384.333507 
L 105.146611 383.777265 
L 109.35746 383.080468 
L 113.568309 382.213878 
L 117.779158 381.143914 
L 121.990007 379.832454 
L 126.200856 378.236751 
L 130.411705 376.309498 
L 134.622554 373.999073 
L 138.833403 371.249998 
L 143.044252 368.003653 
L 147.255101 364.199259 
L 151.46595 359.775155 
L 155.676799 354.670383 
L 159.887648 348.826561 
L 164.098497 342.190043 
L 168.309346 334.714311 
L 172.520195 326.362548 
L 176.731044 317.110316 
L 180.941893 306.948245 
L 185.152742 295.884615 
L 189.363591 283.947715 
L 193.57444 271.187838 
L 197.785289 257.678799 
L 201.996138 243.518816 
L 206.206987 228.830674 
L 210.417836 213.761061 
L 214.628685 198.479016 
L 218.839534 183.173461 
L 223.050383 168.049837 
L 227.261232 153.325894 
L 231.472081 139.226735 
L 235.68293 125.979267 
L 239.893779 113.806235 
L 244.104628 102.920057 
L 248.315477 93.516694 
L 252.526326 85.769794 
L 256.737175 79.825374 
L 260.948024 75.797237 
L 265.158872 73.763355 
L 269.369721 73.763355 
L 273.58057 75.797237 
L 277.791419 79.825374 
L 282.002268 85.769794 
L 286.213117 93.516694 
L 290.423966 102.920057 
L 294.634815 113.806235 
L 298.845664 125.979267 
L 303.056513 139.226735 
L 307.267362 153.325894 
L 311.478211 168.049837 
L 315.68906 183.173461 
L 319.899909 198.479016 
L 324.110758 213.761061 
L 328.321607 228.830674 
L 332.532456 243.518816 
L 336.743305 257.678799 
L 340.954154 271.187838 
L 345.165003 283.947715 
L 349.375852 295.884615 
L 353.586701 306.948245 
L 357.79755 317.110316 
L 362.008399 326.362548 
L 366.219248 334.714311 
L 370.430097 342.190043 
L 374.640946 348.826561 
L 378.851795 354.670383 
L 383.062644 359.775155 
L 387.273493 364.199259 
L 391.484342 368.003653 
L 395.695191 371.249998 
L 399.90604 373.999073 
L 404.116889 376.309498 
L 408.327738 378.236751 
L 412.538587 379.832454 
L 416.749436 381.143914 
L 420.960285 382.213878 
L 425.171134 383.080468 
L 429.381982 383.777265 
L 433.592831 384.333507 
L 437.80368 384.774367 
L 442.014529 385.12129 
L 446.225378 385.392354 
L 450.436227 385.602649 
L 454.647076 385.76465 
L 458.857925 385.888572 
L 463.068774 385.982703 
L 467.279623 386.053705 
L 471.490472 386.106889 
L 475.701321 386.14645 
" style="fill:none;stroke:#36a2eb;stroke-linecap:square;"/>
   </g>
   <g id="patch_3">
    <path d="M 36 402.93 
L 538.2 402.93 
" style="fill:none;stroke:#000000;stroke-linecap:square;stroke-linejoin:miter;stroke-width:0.8;"/>
   </g>
   <g id="legend_1">
    <g id="patch_4">
     <path d="M 414.919063 88.29875 
L 528.4 88.29875 
Q 531.2 88.29875 531.2 85.49875 
L 531.2 45.8 
Q 531.2 43 528.4 43 
L 414.919063 43 
Q 412.119063 43 412.119063 45.8 
L 412.119063 85.49875 
Q 412.119063 88.29875 414.919063 88.29875 
z
" style="fill:#ffffff;opacity:0.8;stroke:#cccccc;stroke-linejoin:miter;"/>
    </g>
    <g id="patch_5">
     <path d="M 417.719063 59.237813 
L 445.719063 59.237813 
L 445.719063 49.437813 
L 417.719063 49.437813 
z
" style="fill:#ff6384;opacity:0.5;stroke:#ff6384;stroke-linejoin:miter;"/>
    </g>
    <g id="text_1">
     <!-- sidemenu -->
     <defs>
      <path d="M 44.28125 53.078125 
L 44.28125 44.578125 
Q 40.484375 46.53125 36.375 47.5 
Q 32.28125 48.484375 27.875 48.484375 
Q 21.1875 48.484375 17.84375 46.4375 
Q 14.5 44.390625 14.5 40.28125 
Q 14.5 37.15625 16.890625 35.375 
Q 19.28125 33.59375 26.515625 31.984375 
L 29.59375 31.296875 
Q 39.15625 29.25 43.1875 25.515625 
Q 47.21875 21.78125 47.21875 15.09375 
Q 47.21875 7.46875 41.1875 3.015625 
Q 35.15625 -1.421875 24.609375 -1.421875 
Q 20.21875 -1.421875 15.453125 -0.5625 
Q 10.6875 0.296875 5.421875 2 
L 5.421875 11.28125 
Q 10.40625 8.6875 15.234375 7.390625 
Q 20.0625 6.109375 24.8125 6.109375 
Q 31.15625 6.109375 34.5625 8.28125 
Q 37.984375 10.453125 37.984375 14.40625 
Q 37.984375 18.0625 35.515625 20.015625 
Q 33.0625 21.96875 24.703125 23.78125 
L 21.578125 24.515625 
Q 13.234375 26.265625 9.515625 29.90625 
Q 5.8125 33.546875 5.8125 39.890625 
Q 5.8125 47.609375 11.28125 51.796875 
Q 16.75 56 26.8125 56 
Q 31.78125 56 36.171875 55.265625 
Q 40.578125 54.546875 44.28125 53.078125 
z
" id="DejaVuSans-115"/>
      <path d="M 9.421875 54.6875 
L 18.40625 54.6875 
L 18.40625 0 
L 9.421875 0 
z
M 9.421875 75.984375 
L 18.40625 75.984375 
L 18.40625 64.59375 
L 9.421875 64.59375 
z
" id="DejaVuSans-105"/>
      <path d="M 45.40625 46.390625 
L 45.40625 75.984375 
L 54.390625 75.984375 
L 54.390625 0 
L 45.40625 0 
L 45.40625 8.203125 
Q 42.578125 3.328125 38.25 0.953125 
Q 33.9375 -1.421875 27.875 -1.421875 
Q 17.96875 -1.421875 11.734375 6.484375 
Q 5.515625 14.40625 5.515625 27.296875 
Q 5.515625 40.1875 11.734375 48.09375 
Q 17.96875 56 27.875 56 
Q 33.9375 56 38.25 53.625 
Q 42.578125 51.265625 45.40625 46.390625 
z
M 14.796875 27.296875 
Q 14.796875 17.390625 18.875 11.75 
Q 22.953125 6.109375 30.078125 6.109375 
Q 37.203125 6.109375 41.296875 11.75 
Q 45.40625 17.390625 45.40625 27.296875 
Q 45.40625 37.203125 41.296875 42.84375 
Q 37.203125 48.484375 30.078125 48.484375 
Q 22.953125 48.484375 18.875 42.84375 
Q 14.796875 37.203125 14.796875 27.296875 
z
" id="DejaVuSans-100"/>
      <path d="M 56.203125 29.59375 
L 56.203125 25.203125 
L 14.890625 25.203125 
Q 15.484375 15.921875 20.484375 11.0625 
Q 25.484375 6.203125 34.421875 6.203125 
Q 39.59375 6.203125 44.453125 7.46875 
Q 49.3125 8.734375 54.109375 11.28125 
L 54.109375 2.78125 
Q 49.265625 0.734375 44.1875 -0.34375 
Q 39.109375 -1.421875 33.890625 -1.421875 
Q 20.796875 -1.421875 13.15625 6.1875 
Q 5.515625 13.8125 5.515625 26.8125 
Q 5.515625 40.234375 12.765625 48.109375 
Q 20.015625 56 32.328125 56 
Q 43.359375 56 49.78125 48.890625 
Q 56.203125 41.796875 56.203125 29.59375 
z
M 47.21875 32.234375 
Q 47.125 39.59375 43.09375 43.984375 
Q 39.0625 48.390625 32.421875 48.390625 
Q 24.90625 48.390625 20.390625 44.140625 
Q 15.875 39.890625 15.1875 32.171875 
z
" id="DejaVuSans-101"/>
      <path d="M 52 44.1875 
Q 55.375 50.25 60.0625 53.125 
Q 64.75 56 71.09375 56 
Q 79.640625 56 84.28125 50.015625 
Q 88.921875 44.046875 88.921875 33.015625 
L 88.921875 0 
L 79.890625 0 
L 79.890625 32.71875 
Q 79.890625 40.578125 77.09375 44.375 
Q 74.3125 48.1875 68.609375 48.1875 
Q 61.625 48.1875 57.5625 43.546875 
Q 53.515625 38.921875 53.515625 30.90625 
L 53.515625 0 
L 44.484375 0 
L 44.484375 32.71875 
Q 44.484375 40.625 41.703125 44.40625 
Q 38.921875 48.1875 33.109375 48.1875 
Q 26.21875 48.1875 22.15625 43.53125 
Q 18.109375 38.875 18.109375 30.90625 
L 18.109375 0 
L 9.078125 0 
L 9.078125 54.6875 
L 18.109375 54.6875 
L 18.109375 46.1875 
Q 21.1875 51.21875 25.484375 53.609375 
Q 29.78125 56 35.6875 56 
Q 41.65625 56 45.828125 52.96875 
Q 50 49.953125 52 44.1875 
z
" id="DejaVuSans-109"/>
      <path d="M 54.890625 33.015625 
L 54.890625 0 
L 45.90625 0 
L 45.90625 32.71875 
Q 45.90625 40.484375 42.875 44.328125 
Q 39.84375 48.1875 33.796875 48.1875 
Q 26.515625 48.1875 22.3125 43.546875 
Q 18.109375 38.921875 18.109375 30.90625 
L 18.109375 0 
L 9.078125 0 
L 9.078125 54.6875 
L 18.109375 54.6875 
L 18.109375 46.1875 
Q 21.34375 51.125 25.703125 53.5625 
Q 30.078125 56 35.796875 56 
Q 45.21875 56 50.046875 50.171875 
Q 54.890625 44.34375 54.890625 33.015625 
z
" id="DejaVuSans-110"/>
      <path d="M 8.5 21.578125 
L 8.5 54.6875 
L 17.484375 54.6875 
L 17.484375 21.921875 
Q 17.484375 14.15625 20.5 10.265625 
Q 23.53125 6.390625 29.59375 6.390625 
Q 36.859375 6.390625 41.078125 11.03125 
Q 45.3125 15.671875 45.3125 23.6875 
L 45.3125 54.6875 
L 54.296875 54.6875 
L 54.296875 0 
L 45.3125 0 
L 45.3125 8.40625 
Q 42.046875 3.421875 37.71875 1 
Q 33.40625 -1.421875 27.6875 -1.421875 
Q 18.265625 -1.421875 13.375 4.4375 
Q 8.5 10.296875 8.5 21.578125 
z
M 31.109375 56 
z
" id="DejaVuSans-117"/>
     </defs>
     <g transform="translate(456.919063 59.237813)scale(0.14 -0.14)">
      <use xlink:href="#DejaVuSans-115"/>
      <use x="52.099609" xlink:href="#DejaVuSans-105"/>
      <use x="79.882812" xlink:href="#DejaVuSans-100"/>
      <use x="143.359375" xlink:href="#DejaVuSans-101"/>
      <use x="204.882812" xlink:href="#DejaVuSans-109"/>
      <use x="302.294922" xlink:href="#DejaVuSans-101"/>
      <use x="363.818359" xlink:href="#DejaVuSans-110"/>
      <use x="427.197266" xlink:href="#DejaVuSans-117"/>
     </g>
    </g>
    <g id="patch_6">
     <path d="M 417.719063 79.787188 
L 445.719063 79.787188 
L 445.719063 69.987188 
L 417.719063 69.987188 
z
" style="fill:#36a2eb;opacity:0.5;stroke:#36a2eb;stroke-linejoin:miter;"/>
    </g>
    <g id="text_2">
     <!-- tabbar -->
     <defs>
      <path d="M 18.3125 70.21875 
L 18.3125 54.6875 
L 36.8125 54.6875 
L 36.8125 47.703125 
L 18.3125 47.703125 
L 18.3125 18.015625 
Q 18.3125 11.328125 20.140625 9.421875 
Q 21.96875 7.515625 27.59375 7.515625 
L 36.8125 7.515625 
L 36.8125 0 
L 27.59375 0 
Q 17.1875 0 13.234375 3.875 
Q 9.28125 7.765625 9.28125 18.015625 
L 9.28125 47.703125 
L 2.6875 47.703125 
L 2.6875 54.6875 
L 9.28125 54.6875 
L 9.28125 70.21875 
z
" id="DejaVuSans-116"/>
      <path d="M 34.28125 27.484375 
Q 23.390625 27.484375 19.1875 25 
Q 14.984375 22.515625 14.984375 16.5 
Q 14.984375 11.71875 18.140625 8.90625 
Q 21.296875 6.109375 26.703125 6.109375 
Q 34.1875 6.109375 38.703125 11.40625 
Q 43.21875 16.703125 43.21875 25.484375 
L 43.21875 27.484375 
z
M 52.203125 31.203125 
L 52.203125 0 
L 43.21875 0 
L 43.21875 8.296875 
Q 40.140625 3.328125 35.546875 0.953125 
Q 30.953125 -1.421875 24.3125 -1.421875 
Q 15.921875 -1.421875 10.953125 3.296875 
Q 6 8.015625 6 15.921875 
Q 6 25.140625 12.171875 29.828125 
Q 18.359375 34.515625 30.609375 34.515625 
L 43.21875 34.515625 
L 43.21875 35.40625 
Q 43.21875 41.609375 39.140625 45 
Q 35.0625 48.390625 27.6875 48.390625 
Q 23 48.390625 18.546875 47.265625 
Q 14.109375 46.140625 10.015625 43.890625 
L 10.015625 52.203125 
Q 14.9375 54.109375 19.578125 55.046875 
Q 24.21875 56 28.609375 56 
Q 40.484375 56 46.34375 49.84375 
Q 52.203125 43.703125 52.203125 31.203125 
z
" id="DejaVuSans-97"/>
      <path d="M 48.6875 27.296875 
Q 48.6875 37.203125 44.609375 42.84375 
Q 40.53125 48.484375 33.40625 48.484375 
Q 26.265625 48.484375 22.1875 42.84375 
Q 18.109375 37.203125 18.109375 27.296875 
Q 18.109375 17.390625 22.1875 11.75 
Q 26.265625 6.109375 33.40625 6.109375 
Q 40.53125 6.109375 44.609375 11.75 
Q 48.6875 17.390625 48.6875 27.296875 
z
M 18.109375 46.390625 
Q 20.953125 51.265625 25.265625 53.625 
Q 29.59375 56 35.59375 56 
Q 45.5625 56 51.78125 48.09375 
Q 58.015625 40.1875 58.015625 27.296875 
Q 58.015625 14.40625 51.78125 6.484375 
Q 45.5625 -1.421875 35.59375 -1.421875 
Q 29.59375 -1.421875 25.265625 0.953125 
Q 20.953125 3.328125 18.109375 8.203125 
L 18.109375 0 
L 9.078125 0 
L 9.078125 75.984375 
L 18.109375 75.984375 
z
" id="DejaVuSans-98"/>
      <path d="M 41.109375 46.296875 
Q 39.59375 47.171875 37.8125 47.578125 
Q 36.03125 48 33.890625 48 
Q 26.265625 48 22.1875 43.046875 
Q 18.109375 38.09375 18.109375 28.8125 
L 18.109375 0 
L 9.078125 0 
L 9.078125 54.6875 
L 18.109375 54.6875 
L 18.109375 46.1875 
Q 20.953125 51.171875 25.484375 53.578125 
Q 30.03125 56 36.53125 56 
Q 37.453125 56 38.578125 55.875 
Q 39.703125 55.765625 41.0625 55.515625 
z
" id="DejaVuSans-114"/>
     </defs>
     <g transform="translate(456.919063 79.787188)scale(0.14 -0.14)">
      <use xlink:href="#DejaVuSans-116"/>
      <use x="39.208984" xlink:href="#DejaVuSans-97"/>
      <use x="100.488281" xlink:href="#DejaVuSans-98"/>
      <use x="163.964844" xlink:href="#DejaVuSans-98"/>
      <use x="227.441406" xlink:href="#DejaVuSans-97"/>
      <use x="288.720703" xlink:href="#DejaVuSans-114"/>
     </g>
    </g>
   </g>
  </g>
  <g id="axes_2">
   <g id="patch_7">
    <path d="M 36 525.24 
L 538.2 525.24 
L 538.2 402.93 
L 36 402.93 
z
" style="fill:none;"/>
   </g>
   <g id="patch_8">
    <path clip-path="url(#p141e201293)" d="M 224.43238 519.680455 
L 415.789118 519.680455 
L 415.789118 482.616818 
L 224.43238 482.616818 
z
" style="fill:#ff6384;opacity:0.5;"/>
   </g>
   <g id="patch_9">
    <path clip-path="url(#p141e201293)" d="M 165.130155 445.553182 
L 369.398439 445.553182 
L 369.398439 408.489545 
L 165.130155 408.489545 
z
" style="fill:#36a2eb;opacity:0.5;"/>
   </g>
   <g id="matplotlib.axis_1">
    <g id="xtick_1">
     <g id="line2d_3">
      <defs>
       <path d="M 0 0 
L 0 3.5 
" id="me2b0186c4f" style="stroke:#000000;stroke-width:0.8;"/>
      </defs>
      <g>
       <use style="stroke:#000000;stroke-width:0.8;" x="62.095718" xlink:href="#me2b0186c4f" y="525.24"/>
      </g>
     </g>
     <g id="text_3">
      <!-- 2.0 -->
      <defs>
       <path d="M 19.1875 8.296875 
L 53.609375 8.296875 
L 53.609375 0 
L 7.328125 0 
L 7.328125 8.296875 
Q 12.9375 14.109375 22.625 23.890625 
Q 32.328125 33.6875 34.8125 36.53125 
Q 39.546875 41.84375 41.421875 45.53125 
Q 43.3125 49.21875 43.3125 52.78125 
Q 43.3125 58.59375 39.234375 62.25 
Q 35.15625 65.921875 28.609375 65.921875 
Q 23.96875 65.921875 18.8125 64.3125 
Q 13.671875 62.703125 7.8125 59.421875 
L 7.8125 69.390625 
Q 13.765625 71.78125 18.9375 73 
Q 24.125 74.21875 28.421875 74.21875 
Q 39.75 74.21875 46.484375 68.546875 
Q 53.21875 62.890625 53.21875 53.421875 
Q 53.21875 48.921875 51.53125 44.890625 
Q 49.859375 40.875 45.40625 35.40625 
Q 44.1875 33.984375 37.640625 27.21875 
Q 31.109375 20.453125 19.1875 8.296875 
z
" id="DejaVuSans-50"/>
       <path d="M 10.6875 12.40625 
L 21 12.40625 
L 21 0 
L 10.6875 0 
z
" id="DejaVuSans-46"/>
       <path d="M 31.78125 66.40625 
Q 24.171875 66.40625 20.328125 58.90625 
Q 16.5 51.421875 16.5 36.375 
Q 16.5 21.390625 20.328125 13.890625 
Q 24.171875 6.390625 31.78125 6.390625 
Q 39.453125 6.390625 43.28125 13.890625 
Q 47.125 21.390625 47.125 36.375 
Q 47.125 51.421875 43.28125 58.90625 
Q 39.453125 66.40625 31.78125 66.40625 
z
M 31.78125 74.21875 
Q 44.046875 74.21875 50.515625 64.515625 
Q 56.984375 54.828125 56.984375 36.375 
Q 56.984375 17.96875 50.515625 8.265625 
Q 44.046875 -1.421875 31.78125 -1.421875 
Q 19.53125 -1.421875 13.0625 8.265625 
Q 6.59375 17.96875 6.59375 36.375 
Q 6.59375 54.828125 13.0625 64.515625 
Q 19.53125 74.21875 31.78125 74.21875 
z
" id="DejaVuSans-48"/>
      </defs>
      <g transform="translate(50.96353 542.877813)scale(0.14 -0.14)">
       <use xlink:href="#DejaVuSans-50"/>
       <use x="63.623047" xlink:href="#DejaVuSans-46"/>
       <use x="95.410156" xlink:href="#DejaVuSans-48"/>
      </g>
     </g>
    </g>
    <g id="xtick_2">
     <g id="line2d_4">
      <g>
       <use style="stroke:#000000;stroke-width:0.8;" x="124.268014" xlink:href="#me2b0186c4f" y="525.24"/>
      </g>
     </g>
     <g id="text_4">
      <!-- 2.2 -->
      <g transform="translate(113.135827 542.877813)scale(0.14 -0.14)">
       <use xlink:href="#DejaVuSans-50"/>
       <use x="63.623047" xlink:href="#DejaVuSans-46"/>
       <use x="95.410156" xlink:href="#DejaVuSans-50"/>
      </g>
     </g>
    </g>
    <g id="xtick_3">
     <g id="line2d_5">
      <g>
       <use style="stroke:#000000;stroke-width:0.8;" x="186.440311" xlink:href="#me2b0186c4f" y="525.24"/>
      </g>
     </g>
     <g id="text_5">
      <!-- 2.4 -->
      <defs>
       <path d="M 37.796875 64.3125 
L 12.890625 25.390625 
L 37.796875 25.390625 
z
M 35.203125 72.90625 
L 47.609375 72.90625 
L 47.609375 25.390625 
L 58.015625 25.390625 
L 58.015625 17.1875 
L 47.609375 17.1875 
L 47.609375 0 
L 37.796875 0 
L 37.796875 17.1875 
L 4.890625 17.1875 
L 4.890625 26.703125 
z
" id="DejaVuSans-52"/>
      </defs>
      <g transform="translate(175.308124 542.877813)scale(0.14 -0.14)">
       <use xlink:href="#DejaVuSans-50"/>
       <use x="63.623047" xlink:href="#DejaVuSans-46"/>
       <use x="95.410156" xlink:href="#DejaVuSans-52"/>
      </g>
     </g>
    </g>
    <g id="xtick_4">
     <g id="line2d_6">
      <g>
       <use style="stroke:#000000;stroke-width:0.8;" x="248.612608" xlink:href="#me2b0186c4f" y="525.24"/>
      </g>
     </g>
     <g id="text_6">
      <!-- 2.6 -->
      <defs>
       <path d="M 33.015625 40.375 
Q 26.375 40.375 22.484375 35.828125 
Q 18.609375 31.296875 18.609375 23.390625 
Q 18.609375 15.53125 22.484375 10.953125 
Q 26.375 6.390625 33.015625 6.390625 
Q 39.65625 6.390625 43.53125 10.953125 
Q 47.40625 15.53125 47.40625 23.390625 
Q 47.40625 31.296875 43.53125 35.828125 
Q 39.65625 40.375 33.015625 40.375 
z
M 52.59375 71.296875 
L 52.59375 62.3125 
Q 48.875 64.0625 45.09375 64.984375 
Q 41.3125 65.921875 37.59375 65.921875 
Q 27.828125 65.921875 22.671875 59.328125 
Q 17.53125 52.734375 16.796875 39.40625 
Q 19.671875 43.65625 24.015625 45.921875 
Q 28.375 48.1875 33.59375 48.1875 
Q 44.578125 48.1875 50.953125 41.515625 
Q 57.328125 34.859375 57.328125 23.390625 
Q 57.328125 12.15625 50.6875 5.359375 
Q 44.046875 -1.421875 33.015625 -1.421875 
Q 20.359375 -1.421875 13.671875 8.265625 
Q 6.984375 17.96875 6.984375 36.375 
Q 6.984375 53.65625 15.1875 63.9375 
Q 23.390625 74.21875 37.203125 74.21875 
Q 40.921875 74.21875 44.703125 73.484375 
Q 48.484375 72.75 52.59375 71.296875 
z
" id="DejaVuSans-54"/>
      </defs>
      <g transform="translate(237.48042 542.877813)scale(0.14 -0.14)">
       <use xlink:href="#DejaVuSans-50"/>
       <use x="63.623047" xlink:href="#DejaVuSans-46"/>
       <use x="95.410156" xlink:href="#DejaVuSans-54"/>
      </g>
     </g>
    </g>
    <g id="xtick_5">
     <g id="line2d_7">
      <g>
       <use style="stroke:#000000;stroke-width:0.8;" x="310.784905" xlink:href="#me2b0186c4f" y="525.24"/>
      </g>
     </g>
     <g id="text_7">
      <!-- 2.8 -->
      <defs>
       <path d="M 31.78125 34.625 
Q 24.75 34.625 20.71875 30.859375 
Q 16.703125 27.09375 16.703125 20.515625 
Q 16.703125 13.921875 20.71875 10.15625 
Q 24.75 6.390625 31.78125 6.390625 
Q 38.8125 6.390625 42.859375 10.171875 
Q 46.921875 13.96875 46.921875 20.515625 
Q 46.921875 27.09375 42.890625 30.859375 
Q 38.875 34.625 31.78125 34.625 
z
M 21.921875 38.8125 
Q 15.578125 40.375 12.03125 44.71875 
Q 8.5 49.078125 8.5 55.328125 
Q 8.5 64.0625 14.71875 69.140625 
Q 20.953125 74.21875 31.78125 74.21875 
Q 42.671875 74.21875 48.875 69.140625 
Q 55.078125 64.0625 55.078125 55.328125 
Q 55.078125 49.078125 51.53125 44.71875 
Q 48 40.375 41.703125 38.8125 
Q 48.828125 37.15625 52.796875 32.3125 
Q 56.78125 27.484375 56.78125 20.515625 
Q 56.78125 9.90625 50.3125 4.234375 
Q 43.84375 -1.421875 31.78125 -1.421875 
Q 19.734375 -1.421875 13.25 4.234375 
Q 6.78125 9.90625 6.78125 20.515625 
Q 6.78125 27.484375 10.78125 32.3125 
Q 14.796875 37.15625 21.921875 38.8125 
z
M 18.3125 54.390625 
Q 18.3125 48.734375 21.84375 45.5625 
Q 25.390625 42.390625 31.78125 42.390625 
Q 38.140625 42.390625 41.71875 45.5625 
Q 45.3125 48.734375 45.3125 54.390625 
Q 45.3125 60.0625 41.71875 63.234375 
Q 38.140625 66.40625 31.78125 66.40625 
Q 25.390625 66.40625 21.84375 63.234375 
Q 18.3125 60.0625 18.3125 54.390625 
z
" id="DejaVuSans-56"/>
      </defs>
      <g transform="translate(299.652717 542.877813)scale(0.14 -0.14)">
       <use xlink:href="#DejaVuSans-50"/>
       <use x="63.623047" xlink:href="#DejaVuSans-46"/>
       <use x="95.410156" xlink:href="#DejaVuSans-56"/>
      </g>
     </g>
    </g>
    <g id="xtick_6">
     <g id="line2d_8">
      <g>
       <use style="stroke:#000000;stroke-width:0.8;" x="372.957201" xlink:href="#me2b0186c4f" y="525.24"/>
      </g>
     </g>
     <g id="text_8">
      <!-- 3.0 -->
      <defs>
       <path d="M 40.578125 39.3125 
Q 47.65625 37.796875 51.625 33 
Q 55.609375 28.21875 55.609375 21.1875 
Q 55.609375 10.40625 48.1875 4.484375 
Q 40.765625 -1.421875 27.09375 -1.421875 
Q 22.515625 -1.421875 17.65625 -0.515625 
Q 12.796875 0.390625 7.625 2.203125 
L 7.625 11.71875 
Q 11.71875 9.328125 16.59375 8.109375 
Q 21.484375 6.890625 26.8125 6.890625 
Q 36.078125 6.890625 40.9375 10.546875 
Q 45.796875 14.203125 45.796875 21.1875 
Q 45.796875 27.640625 41.28125 31.265625 
Q 36.765625 34.90625 28.71875 34.90625 
L 20.21875 34.90625 
L 20.21875 43.015625 
L 29.109375 43.015625 
Q 36.375 43.015625 40.234375 45.921875 
Q 44.09375 48.828125 44.09375 54.296875 
Q 44.09375 59.90625 40.109375 62.90625 
Q 36.140625 65.921875 28.71875 65.921875 
Q 24.65625 65.921875 20.015625 65.03125 
Q 15.375 64.15625 9.8125 62.3125 
L 9.8125 71.09375 
Q 15.4375 72.65625 20.34375 73.4375 
Q 25.25 74.21875 29.59375 74.21875 
Q 40.828125 74.21875 47.359375 69.109375 
Q 53.90625 64.015625 53.90625 55.328125 
Q 53.90625 49.265625 50.4375 45.09375 
Q 46.96875 40.921875 40.578125 39.3125 
z
" id="DejaVuSans-51"/>
      </defs>
      <g transform="translate(361.825014 542.877813)scale(0.14 -0.14)">
       <use xlink:href="#DejaVuSans-51"/>
       <use x="63.623047" xlink:href="#DejaVuSans-46"/>
       <use x="95.410156" xlink:href="#DejaVuSans-48"/>
      </g>
     </g>
    </g>
    <g id="xtick_7">
     <g id="line2d_9">
      <g>
       <use style="stroke:#000000;stroke-width:0.8;" x="435.129498" xlink:href="#me2b0186c4f" y="525.24"/>
      </g>
     </g>
     <g id="text_9">
      <!-- 3.2 -->
      <g transform="translate(423.997311 542.877813)scale(0.14 -0.14)">
       <use xlink:href="#DejaVuSans-51"/>
       <use x="63.623047" xlink:href="#DejaVuSans-46"/>
       <use x="95.410156" xlink:href="#DejaVuSans-50"/>
      </g>
     </g>
    </g>
    <g id="xtick_8">
     <g id="line2d_10">
      <g>
       <use style="stroke:#000000;stroke-width:0.8;" x="497.301795" xlink:href="#me2b0186c4f" y="525.24"/>
      </g>
     </g>
     <g id="text_10">
      <!-- 3.4 -->
      <g transform="translate(486.169607 542.877813)scale(0.14 -0.14)">
       <use xlink:href="#DejaVuSans-51"/>
       <use x="63.623047" xlink:href="#DejaVuSans-46"/>
       <use x="95.410156" xlink:href="#DejaVuSans-52"/>
      </g>
     </g>
    </g>
   </g>
   <g id="line2d_11">
    <path clip-path="url(#p141e201293)" d="M 320.110749 525.24 
L 320.110749 402.93 
" style="fill:none;stroke:#ff6384;stroke-dasharray:5.55,2.4;stroke-dashoffset:0;stroke-opacity:0.8;stroke-width:1.5;"/>
   </g>
   <g id="line2d_12">
    <path clip-path="url(#p141e201293)" d="M 267.264297 525.24 
L 267.264297 402.93 
" style="fill:none;stroke:#36a2eb;stroke-dasharray:5.55,2.4;stroke-dashoffset:0;stroke-opacity:0.8;stroke-width:1.5;"/>
   </g>
   <g id="patch_10">
    <path d="M 36 525.24 
L 538.2 525.24 
" style="fill:none;stroke:#000000;stroke-linecap:square;stroke-linejoin:miter;stroke-width:0.8;"/>
   </g>
  </g>
 </g>
 <defs>
  <clipPath id="pc048848405">
   <rect height="366.93" width="502.2" x="36" y="36"/>
  </clipPath>
  <clipPath id="p141e201293">
   <rect height="122.31" width="502.2" x="36" y="402.93"/>
  </clipPath>
 </defs>
</svg>
