<?xml version="1.0" encoding="utf-8" standalone="no"?>
<!DOCTYPE svg PUBLIC "-//W3C//DTD SVG 1.1//EN"
  "http://www.w3.org/Graphics/SVG/1.1/DTD/svg11.dtd">
<!-- Created with matplotlib (https://matplotlib.org/) -->
<svg height="581.789375pt" version="1.1" viewBox="0 0 580.347798 581.789375" width="580.347798pt" xmlns="http://www.w3.org/2000/svg" xmlns:xlink="http://www.w3.org/1999/xlink">
 <defs>
  <style type="text/css">
*{stroke-linecap:butt;stroke-linejoin:round;}
  </style>
 </defs>
 <g id="figure_1">
  <g id="patch_1">
   <path d="M 0 581.789375 
L 580.347798 581.789375 
L 580.347798 0 
L 0 0 
z
" style="fill:none;"/>
  </g>
  <g id="axes_1">
   <g id="patch_2">
    <path d="M 42.147798 402.93 
L 544.347798 402.93 
L 544.347798 36 
L 42.147798 36 
z
" style="fill:none;"/>
   </g>
   <g id="PolyCollection_1">
    <defs>
     <path d="M 182.579825 -195.538011 
L 182.579825 -195.650004 
L 186.003468 -195.692234 
L 189.427112 -195.749007 
L 192.850755 -195.8248 
L 196.274398 -195.925281 
L 199.698042 -196.057565 
L 203.121685 -196.230497 
L 206.545329 -196.454982 
L 209.968972 -196.744335 
L 213.392616 -197.114666 
L 216.816259 -197.585273 
L 220.239903 -198.179047 
L 223.663546 -198.922859 
L 227.087189 -199.847921 
L 230.510833 -200.990079 
L 233.934476 -202.390029 
L 237.35812 -204.093399 
L 240.781763 -206.150691 
L 244.205407 -208.617009 
L 247.62905 -211.551575 
L 251.052694 -215.016962 
L 254.476337 -219.078053 
L 257.89998 -223.800667 
L 261.323624 -229.249878 
L 264.747267 -235.488004 
L 268.170911 -242.572312 
L 271.594554 -250.552459 
L 275.018198 -259.467747 
L 278.441841 -269.344261 
L 281.865485 -280.192004 
L 285.289128 -292.002137 
L 288.712771 -304.744465 
L 292.136415 -318.365297 
L 295.560058 -332.785841 
L 298.983702 -347.901251 
L 302.407345 -363.580456 
L 305.830989 -379.666871 
L 309.254632 -395.980052 
L 312.678276 -412.31833 
L 316.101919 -428.4624 
L 319.525562 -444.179822 
L 322.949206 -459.230303 
L 326.372849 -473.371627 
L 329.796493 -486.366018 
L 333.220136 -497.986726 
L 336.64378 -508.02457 
L 340.067423 -516.294181 
L 343.491067 -522.639693 
L 346.91471 -526.939623 
L 350.338353 -529.110739 
L 353.761997 -529.110739 
L 357.18564 -526.939623 
L 360.609284 -522.639693 
L 364.032927 -516.294181 
L 367.456571 -508.02457 
L 370.880214 -497.986726 
L 374.303858 -486.366018 
L 377.727501 -473.371627 
L 381.151144 -459.230303 
L 384.574788 -444.179822 
L 387.998431 -428.4624 
L 391.422075 -412.31833 
L 394.845718 -395.980052 
L 398.269362 -379.666871 
L 401.693005 -363.580456 
L 405.116649 -347.901251 
L 408.540292 -332.785841 
L 411.963935 -318.365297 
L 415.387579 -304.744465 
L 418.811222 -292.002137 
L 422.234866 -280.192004 
L 425.658509 -269.344261 
L 429.082153 -259.467747 
L 432.505796 -250.552459 
L 435.92944 -242.572312 
L 439.353083 -235.488004 
L 442.776726 -229.249878 
L 446.20037 -223.800667 
L 449.624013 -219.078053 
L 453.047657 -215.016962 
L 456.4713 -211.551575 
L 459.894944 -208.617009 
L 463.318587 -206.150691 
L 466.742231 -204.093399 
L 470.165874 -202.390029 
L 473.589517 -200.990079 
L 477.013161 -199.847921 
L 480.436804 -198.922859 
L 483.860448 -198.179047 
L 487.284091 -197.585273 
L 490.707735 -197.114666 
L 494.131378 -196.744335 
L 497.555022 -196.454982 
L 500.978665 -196.230497 
L 504.402308 -196.057565 
L 507.825952 -195.925281 
L 511.249595 -195.8248 
L 514.673239 -195.749007 
L 518.096882 -195.692234 
L 521.520526 -195.650004 
L 521.520526 -195.538011 
L 521.520526 -195.538011 
L 518.096882 -195.538011 
L 514.673239 -195.538011 
L 511.249595 -195.538011 
L 507.825952 -195.538011 
L 504.402308 -195.538011 
L 500.978665 -195.538011 
L 497.555022 -195.538011 
L 494.131378 -195.538011 
L 490.707735 -195.538011 
L 487.284091 -195.538011 
L 483.860448 -195.538011 
L 480.436804 -195.538011 
L 477.013161 -195.538011 
L 473.589517 -195.538011 
L 470.165874 -195.538011 
L 466.742231 -195.538011 
L 463.318587 -195.538011 
L 459.894944 -195.538011 
L 456.4713 -195.538011 
L 453.047657 -195.538011 
L 449.624013 -195.538011 
L 446.20037 -195.538011 
L 442.776726 -195.538011 
L 439.353083 -195.538011 
L 435.92944 -195.538011 
L 432.505796 -195.538011 
L 429.082153 -195.538011 
L 425.658509 -195.538011 
L 422.234866 -195.538011 
L 418.811222 -195.538011 
L 415.387579 -195.538011 
L 411.963935 -195.538011 
L 408.540292 -195.538011 
L 405.116649 -195.538011 
L 401.693005 -195.538011 
L 398.269362 -195.538011 
L 394.845718 -195.538011 
L 391.422075 -195.538011 
L 387.998431 -195.538011 
L 384.574788 -195.538011 
L 381.151144 -195.538011 
L 377.727501 -195.538011 
L 374.303858 -195.538011 
L 370.880214 -195.538011 
L 367.456571 -195.538011 
L 364.032927 -195.538011 
L 360.609284 -195.538011 
L 357.18564 -195.538011 
L 353.761997 -195.538011 
L 350.338353 -195.538011 
L 346.91471 -195.538011 
L 343.491067 -195.538011 
L 340.067423 -195.538011 
L 336.64378 -195.538011 
L 333.220136 -195.538011 
L 329.796493 -195.538011 
L 326.372849 -195.538011 
L 322.949206 -195.538011 
L 319.525562 -195.538011 
L 316.101919 -195.538011 
L 312.678276 -195.538011 
L 309.254632 -195.538011 
L 305.830989 -195.538011 
L 302.407345 -195.538011 
L 298.983702 -195.538011 
L 295.560058 -195.538011 
L 292.136415 -195.538011 
L 288.712771 -195.538011 
L 285.289128 -195.538011 
L 281.865485 -195.538011 
L 278.441841 -195.538011 
L 275.018198 -195.538011 
L 271.594554 -195.538011 
L 268.170911 -195.538011 
L 264.747267 -195.538011 
L 261.323624 -195.538011 
L 257.89998 -195.538011 
L 254.476337 -195.538011 
L 251.052694 -195.538011 
L 247.62905 -195.538011 
L 244.205407 -195.538011 
L 240.781763 -195.538011 
L 237.35812 -195.538011 
L 233.934476 -195.538011 
L 230.510833 -195.538011 
L 227.087189 -195.538011 
L 223.663546 -195.538011 
L 220.239903 -195.538011 
L 216.816259 -195.538011 
L 213.392616 -195.538011 
L 209.968972 -195.538011 
L 206.545329 -195.538011 
L 203.121685 -195.538011 
L 199.698042 -195.538011 
L 196.274398 -195.538011 
L 192.850755 -195.538011 
L 189.427112 -195.538011 
L 186.003468 -195.538011 
L 182.579825 -195.538011 
z
" id="md0545e27f9" style="stroke:#ff6384;stroke-opacity:0.5;"/>
    </defs>
    <g clip-path="url(#p59413018b8)">
     <use style="fill:#ff6384;fill-opacity:0.5;stroke:#ff6384;stroke-opacity:0.5;" x="0" xlink:href="#md0545e27f9" y="581.789375"/>
    </g>
   </g>
   <g id="PolyCollection_2">
    <defs>
     <path d="M 64.975071 -195.538011 
L 64.975071 -195.633187 
L 69.003661 -195.669076 
L 73.032252 -195.717323 
L 77.060842 -195.781735 
L 81.089432 -195.867128 
L 85.118023 -195.979547 
L 89.146613 -196.126511 
L 93.175203 -196.317286 
L 97.203794 -196.563189 
L 101.232384 -196.87791 
L 105.260974 -197.277849 
L 109.289565 -197.78246 
L 113.318155 -198.414579 
L 117.346745 -199.20073 
L 121.375336 -200.171378 
L 125.403926 -201.361106 
L 129.432516 -202.808693 
L 133.461107 -204.557055 
L 137.489697 -206.653022 
L 141.518287 -209.146923 
L 145.546877 -212.091936 
L 149.575468 -215.5432 
L 153.604058 -219.55665 
L 157.632648 -224.187589 
L 161.661239 -229.488977 
L 165.689829 -235.509481 
L 169.718419 -242.291302 
L 173.74701 -249.867839 
L 177.7756 -258.261262 
L 181.80419 -267.480071 
L 185.832781 -277.516755 
L 189.861371 -288.345651 
L 193.889961 -299.921133 
L 197.918552 -312.176238 
L 201.947142 -325.021867 
L 205.975732 -338.346628 
L 210.004323 -352.017453 
L 214.032913 -365.880991 
L 218.061503 -379.765857 
L 222.090094 -393.485678 
L 226.118684 -406.842918 
L 230.147274 -419.633368 
L 234.175865 -431.651182 
L 238.204455 -442.694292 
L 242.233045 -452.569995 
L 246.261636 -461.100521 
L 250.290226 -468.12834 
L 254.318816 -473.520988 
L 258.347406 -477.175226 
L 262.375997 -479.020319 
L 266.404587 -479.020319 
L 270.433177 -477.175226 
L 274.461768 -473.520988 
L 278.490358 -468.12834 
L 282.518948 -461.100521 
L 286.547539 -452.569995 
L 290.576129 -442.694292 
L 294.604719 -431.651182 
L 298.63331 -419.633368 
L 302.6619 -406.842918 
L 306.69049 -393.485678 
L 310.719081 -379.765857 
L 314.747671 -365.880991 
L 318.776261 -352.017453 
L 322.804852 -338.346628 
L 326.833442 -325.021867 
L 330.862032 -312.176238 
L 334.890623 -299.921133 
L 338.919213 -288.345651 
L 342.947803 -277.516755 
L 346.976394 -267.480071 
L 351.004984 -258.261262 
L 355.033574 -249.867839 
L 359.062165 -242.291302 
L 363.090755 -235.509481 
L 367.119345 -229.488977 
L 371.147935 -224.187589 
L 375.176526 -219.55665 
L 379.205116 -215.5432 
L 383.233706 -212.091936 
L 387.262297 -209.146923 
L 391.290887 -206.653022 
L 395.319477 -204.557055 
L 399.348068 -202.808693 
L 403.376658 -201.361106 
L 407.405248 -200.171378 
L 411.433839 -199.20073 
L 415.462429 -198.414579 
L 419.491019 -197.78246 
L 423.51961 -197.277849 
L 427.5482 -196.87791 
L 431.57679 -196.563189 
L 435.605381 -196.317286 
L 439.633971 -196.126511 
L 443.662561 -195.979547 
L 447.691152 -195.867128 
L 451.719742 -195.781735 
L 455.748332 -195.717323 
L 459.776923 -195.669076 
L 463.805513 -195.633187 
L 463.805513 -195.538011 
L 463.805513 -195.538011 
L 459.776923 -195.538011 
L 455.748332 -195.538011 
L 451.719742 -195.538011 
L 447.691152 -195.538011 
L 443.662561 -195.538011 
L 439.633971 -195.538011 
L 435.605381 -195.538011 
L 431.57679 -195.538011 
L 427.5482 -195.538011 
L 423.51961 -195.538011 
L 419.491019 -195.538011 
L 415.462429 -195.538011 
L 411.433839 -195.538011 
L 407.405248 -195.538011 
L 403.376658 -195.538011 
L 399.348068 -195.538011 
L 395.319477 -195.538011 
L 391.290887 -195.538011 
L 387.262297 -195.538011 
L 383.233706 -195.538011 
L 379.205116 -195.538011 
L 375.176526 -195.538011 
L 371.147935 -195.538011 
L 367.119345 -195.538011 
L 363.090755 -195.538011 
L 359.062165 -195.538011 
L 355.033574 -195.538011 
L 351.004984 -195.538011 
L 346.976394 -195.538011 
L 342.947803 -195.538011 
L 338.919213 -195.538011 
L 334.890623 -195.538011 
L 330.862032 -195.538011 
L 326.833442 -195.538011 
L 322.804852 -195.538011 
L 318.776261 -195.538011 
L 314.747671 -195.538011 
L 310.719081 -195.538011 
L 306.69049 -195.538011 
L 302.6619 -195.538011 
L 298.63331 -195.538011 
L 294.604719 -195.538011 
L 290.576129 -195.538011 
L 286.547539 -195.538011 
L 282.518948 -195.538011 
L 278.490358 -195.538011 
L 274.461768 -195.538011 
L 270.433177 -195.538011 
L 266.404587 -195.538011 
L 262.375997 -195.538011 
L 258.347406 -195.538011 
L 254.318816 -195.538011 
L 250.290226 -195.538011 
L 246.261636 -195.538011 
L 242.233045 -195.538011 
L 238.204455 -195.538011 
L 234.175865 -195.538011 
L 230.147274 -195.538011 
L 226.118684 -195.538011 
L 222.090094 -195.538011 
L 218.061503 -195.538011 
L 214.032913 -195.538011 
L 210.004323 -195.538011 
L 205.975732 -195.538011 
L 201.947142 -195.538011 
L 197.918552 -195.538011 
L 193.889961 -195.538011 
L 189.861371 -195.538011 
L 185.832781 -195.538011 
L 181.80419 -195.538011 
L 177.7756 -195.538011 
L 173.74701 -195.538011 
L 169.718419 -195.538011 
L 165.689829 -195.538011 
L 161.661239 -195.538011 
L 157.632648 -195.538011 
L 153.604058 -195.538011 
L 149.575468 -195.538011 
L 145.546877 -195.538011 
L 141.518287 -195.538011 
L 137.489697 -195.538011 
L 133.461107 -195.538011 
L 129.432516 -195.538011 
L 125.403926 -195.538011 
L 121.375336 -195.538011 
L 117.346745 -195.538011 
L 113.318155 -195.538011 
L 109.289565 -195.538011 
L 105.260974 -195.538011 
L 101.232384 -195.538011 
L 97.203794 -195.538011 
L 93.175203 -195.538011 
L 89.146613 -195.538011 
L 85.118023 -195.538011 
L 81.089432 -195.538011 
L 77.060842 -195.538011 
L 73.032252 -195.538011 
L 69.003661 -195.538011 
L 64.975071 -195.538011 
z
" id="md1b6066293" style="stroke:#36a2eb;stroke-opacity:0.5;"/>
    </defs>
    <g clip-path="url(#p59413018b8)">
     <use style="fill:#36a2eb;fill-opacity:0.5;stroke:#36a2eb;stroke-opacity:0.5;" x="0" xlink:href="#md1b6066293" y="581.789375"/>
    </g>
   </g>
   <g id="line2d_1">
    <path clip-path="url(#p59413018b8)" d="M 182.579825 386.139371 
L 186.003468 386.097141 
L 189.427112 386.040368 
L 192.850755 385.964575 
L 196.274398 385.864094 
L 199.698042 385.73181 
L 203.121685 385.558878 
L 206.545329 385.334393 
L 209.968972 385.04504 
L 213.392616 384.674709 
L 216.816259 384.204102 
L 220.239903 383.610328 
L 223.663546 382.866516 
L 227.087189 381.941454 
L 230.510833 380.799296 
L 233.934476 379.399346 
L 237.35812 377.695976 
L 240.781763 375.638684 
L 244.205407 373.172366 
L 247.62905 370.2378 
L 251.052694 366.772413 
L 254.476337 362.711322 
L 257.89998 357.988708 
L 261.323624 352.539497 
L 264.747267 346.301371 
L 268.170911 339.217063 
L 271.594554 331.236916 
L 275.018198 322.321628 
L 278.441841 312.445114 
L 281.865485 301.597371 
L 285.289128 289.787238 
L 288.712771 277.04491 
L 292.136415 263.424078 
L 295.560058 249.003534 
L 298.983702 233.888124 
L 302.407345 218.208919 
L 305.830989 202.122504 
L 309.254632 185.809323 
L 312.678276 169.471045 
L 316.101919 153.326975 
L 319.525562 137.609553 
L 322.949206 122.559072 
L 326.372849 108.417748 
L 329.796493 95.423357 
L 333.220136 83.802649 
L 336.64378 73.764805 
L 340.067423 65.495194 
L 343.491067 59.149682 
L 346.91471 54.849752 
L 350.338353 52.678636 
L 353.761997 52.678636 
L 357.18564 54.849752 
L 360.609284 59.149682 
L 364.032927 65.495194 
L 367.456571 73.764805 
L 370.880214 83.802649 
L 374.303858 95.423357 
L 377.727501 108.417748 
L 381.151144 122.559072 
L 384.574788 137.609553 
L 387.998431 153.326975 
L 391.422075 169.471045 
L 394.845718 185.809323 
L 398.269362 202.122504 
L 401.693005 218.208919 
L 405.116649 233.888124 
L 408.540292 249.003534 
L 411.963935 263.424078 
L 415.387579 277.04491 
L 418.811222 289.787238 
L 422.234866 301.597371 
L 425.658509 312.445114 
L 429.082153 322.321628 
L 432.505796 331.236916 
L 435.92944 339.217063 
L 439.353083 346.301371 
L 442.776726 352.539497 
L 446.20037 357.988708 
L 449.624013 362.711322 
L 453.047657 366.772413 
L 456.4713 370.2378 
L 459.894944 373.172366 
L 463.318587 375.638684 
L 466.742231 377.695976 
L 470.165874 379.399346 
L 473.589517 380.799296 
L 477.013161 381.941454 
L 480.436804 382.866516 
L 483.860448 383.610328 
L 487.284091 384.204102 
L 490.707735 384.674709 
L 494.131378 385.04504 
L 497.555022 385.334393 
L 500.978665 385.558878 
L 504.402308 385.73181 
L 507.825952 385.864094 
L 511.249595 385.964575 
L 514.673239 386.040368 
L 518.096882 386.097141 
L 521.520526 386.139371 
" style="fill:none;stroke:#ff6384;stroke-linecap:square;"/>
   </g>
   <g id="line2d_2">
    <path clip-path="url(#p59413018b8)" d="M 64.975071 386.156188 
L 69.003661 386.120299 
L 73.032252 386.072052 
L 77.060842 386.00764 
L 81.089432 385.922247 
L 85.118023 385.809828 
L 89.146613 385.662864 
L 93.175203 385.472089 
L 97.203794 385.226186 
L 101.232384 384.911465 
L 105.260974 384.511526 
L 109.289565 384.006915 
L 113.318155 383.374796 
L 117.346745 382.588645 
L 121.375336 381.617997 
L 125.403926 380.428269 
L 129.432516 378.980682 
L 133.461107 377.23232 
L 137.489697 375.136353 
L 141.518287 372.642452 
L 145.546877 369.697439 
L 149.575468 366.246175 
L 153.604058 362.232725 
L 157.632648 357.601786 
L 161.661239 352.300398 
L 165.689829 346.279894 
L 169.718419 339.498073 
L 173.74701 331.921536 
L 177.7756 323.528113 
L 181.80419 314.309304 
L 185.832781 304.27262 
L 189.861371 293.443724 
L 193.889961 281.868242 
L 197.918552 269.613137 
L 201.947142 256.767508 
L 205.975732 243.442747 
L 210.004323 229.771922 
L 214.032913 215.908384 
L 218.061503 202.023518 
L 222.090094 188.303697 
L 226.118684 174.946457 
L 230.147274 162.156007 
L 234.175865 150.138193 
L 238.204455 139.095083 
L 242.233045 129.21938 
L 246.261636 120.688854 
L 250.290226 113.661035 
L 254.318816 108.268387 
L 258.347406 104.614149 
L 262.375997 102.769056 
L 266.404587 102.769056 
L 270.433177 104.614149 
L 274.461768 108.268387 
L 278.490358 113.661035 
L 282.518948 120.688854 
L 286.547539 129.21938 
L 290.576129 139.095083 
L 294.604719 150.138193 
L 298.63331 162.156007 
L 302.6619 174.946457 
L 306.69049 188.303697 
L 310.719081 202.023518 
L 314.747671 215.908384 
L 318.776261 229.771922 
L 322.804852 243.442747 
L 326.833442 256.767508 
L 330.862032 269.613137 
L 334.890623 281.868242 
L 338.919213 293.443724 
L 342.947803 304.27262 
L 346.976394 314.309304 
L 351.004984 323.528113 
L 355.033574 331.921536 
L 359.062165 339.498073 
L 363.090755 346.279894 
L 367.119345 352.300398 
L 371.147935 357.601786 
L 375.176526 362.232725 
L 379.205116 366.246175 
L 383.233706 369.697439 
L 387.262297 372.642452 
L 391.290887 375.136353 
L 395.319477 377.23232 
L 399.348068 378.980682 
L 403.376658 380.428269 
L 407.405248 381.617997 
L 411.433839 382.588645 
L 415.462429 383.374796 
L 419.491019 384.006915 
L 423.51961 384.511526 
L 427.5482 384.911465 
L 431.57679 385.226186 
L 435.605381 385.472089 
L 439.633971 385.662864 
L 443.662561 385.809828 
L 447.691152 385.922247 
L 451.719742 386.00764 
L 455.748332 386.072052 
L 459.776923 386.120299 
L 463.805513 386.156188 
" style="fill:none;stroke:#36a2eb;stroke-linecap:square;"/>
   </g>
   <g id="patch_3">
    <path d="M 42.147798 402.93 
L 544.347798 402.93 
" style="fill:none;stroke:#000000;stroke-linecap:square;stroke-linejoin:miter;stroke-width:0.8;"/>
   </g>
   <g id="legend_1">
    <g id="patch_4">
     <path d="M 421.066861 88.29875 
L 534.547798 88.29875 
Q 537.347798 88.29875 537.347798 85.49875 
L 537.347798 45.8 
Q 537.347798 43 534.547798 43 
L 421.066861 43 
Q 418.266861 43 418.266861 45.8 
L 418.266861 85.49875 
Q 418.266861 88.29875 421.066861 88.29875 
z
" style="fill:#ffffff;opacity:0.8;stroke:#cccccc;stroke-linejoin:miter;"/>
    </g>
    <g id="patch_5">
     <path d="M 423.866861 59.237813 
L 451.866861 59.237813 
L 451.866861 49.437813 
L 423.866861 49.437813 
z
" style="fill:#ff6384;opacity:0.5;stroke:#ff6384;stroke-linejoin:miter;"/>
    </g>
    <g id="text_1">
     <!-- sidemenu -->
     <defs>
      <path d="M 44.28125 53.078125 
L 44.28125 44.578125 
Q 40.484375 46.53125 36.375 47.5 
Q 32.28125 48.484375 27.875 48.484375 
Q 21.1875 48.484375 17.84375 46.4375 
Q 14.5 44.390625 14.5 40.28125 
Q 14.5 37.15625 16.890625 35.375 
Q 19.28125 33.59375 26.515625 31.984375 
L 29.59375 31.296875 
Q 39.15625 29.25 43.1875 25.515625 
Q 47.21875 21.78125 47.21875 15.09375 
Q 47.21875 7.46875 41.1875 3.015625 
Q 35.15625 -1.421875 24.609375 -1.421875 
Q 20.21875 -1.421875 15.453125 -0.5625 
Q 10.6875 0.296875 5.421875 2 
L 5.421875 11.28125 
Q 10.40625 8.6875 15.234375 7.390625 
Q 20.0625 6.109375 24.8125 6.109375 
Q 31.15625 6.109375 34.5625 8.28125 
Q 37.984375 10.453125 37.984375 14.40625 
Q 37.984375 18.0625 35.515625 20.015625 
Q 33.0625 21.96875 24.703125 23.78125 
L 21.578125 24.515625 
Q 13.234375 26.265625 9.515625 29.90625 
Q 5.8125 33.546875 5.8125 39.890625 
Q 5.8125 47.609375 11.28125 51.796875 
Q 16.75 56 26.8125 56 
Q 31.78125 56 36.171875 55.265625 
Q 40.578125 54.546875 44.28125 53.078125 
z
" id="DejaVuSans-115"/>
      <path d="M 9.421875 54.6875 
L 18.40625 54.6875 
L 18.40625 0 
L 9.421875 0 
z
M 9.421875 75.984375 
L 18.40625 75.984375 
L 18.40625 64.59375 
L 9.421875 64.59375 
z
" id="DejaVuSans-105"/>
      <path d="M 45.40625 46.390625 
L 45.40625 75.984375 
L 54.390625 75.984375 
L 54.390625 0 
L 45.40625 0 
L 45.40625 8.203125 
Q 42.578125 3.328125 38.25 0.953125 
Q 33.9375 -1.421875 27.875 -1.421875 
Q 17.96875 -1.421875 11.734375 6.484375 
Q 5.515625 14.40625 5.515625 27.296875 
Q 5.515625 40.1875 11.734375 48.09375 
Q 17.96875 56 27.875 56 
Q 33.9375 56 38.25 53.625 
Q 42.578125 51.265625 45.40625 46.390625 
z
M 14.796875 27.296875 
Q 14.796875 17.390625 18.875 11.75 
Q 22.953125 6.109375 30.078125 6.109375 
Q 37.203125 6.109375 41.296875 11.75 
Q 45.40625 17.390625 45.40625 27.296875 
Q 45.40625 37.203125 41.296875 42.84375 
Q 37.203125 48.484375 30.078125 48.484375 
Q 22.953125 48.484375 18.875 42.84375 
Q 14.796875 37.203125 14.796875 27.296875 
z
" id="DejaVuSans-100"/>
      <path d="M 56.203125 29.59375 
L 56.203125 25.203125 
L 14.890625 25.203125 
Q 15.484375 15.921875 20.484375 11.0625 
Q 25.484375 6.203125 34.421875 6.203125 
Q 39.59375 6.203125 44.453125 7.46875 
Q 49.3125 8.734375 54.109375 11.28125 
L 54.109375 2.78125 
Q 49.265625 0.734375 44.1875 -0.34375 
Q 39.109375 -1.421875 33.890625 -1.421875 
Q 20.796875 -1.421875 13.15625 6.1875 
Q 5.515625 13.8125 5.515625 26.8125 
Q 5.515625 40.234375 12.765625 48.109375 
Q 20.015625 56 32.328125 56 
Q 43.359375 56 49.78125 48.890625 
Q 56.203125 41.796875 56.203125 29.59375 
z
M 47.21875 32.234375 
Q 47.125 39.59375 43.09375 43.984375 
Q 39.0625 48.390625 32.421875 48.390625 
Q 24.90625 48.390625 20.390625 44.140625 
Q 15.875 39.890625 15.1875 32.171875 
z
" id="DejaVuSans-101"/>
      <path d="M 52 44.1875 
Q 55.375 50.25 60.0625 53.125 
Q 64.75 56 71.09375 56 
Q 79.640625 56 84.28125 50.015625 
Q 88.921875 44.046875 88.921875 33.015625 
L 88.921875 0 
L 79.890625 0 
L 79.890625 32.71875 
Q 79.890625 40.578125 77.09375 44.375 
Q 74.3125 48.1875 68.609375 48.1875 
Q 61.625 48.1875 57.5625 43.546875 
Q 53.515625 38.921875 53.515625 30.90625 
L 53.515625 0 
L 44.484375 0 
L 44.484375 32.71875 
Q 44.484375 40.625 41.703125 44.40625 
Q 38.921875 48.1875 33.109375 48.1875 
Q 26.21875 48.1875 22.15625 43.53125 
Q 18.109375 38.875 18.109375 30.90625 
L 18.109375 0 
L 9.078125 0 
L 9.078125 54.6875 
L 18.109375 54.6875 
L 18.109375 46.1875 
Q 21.1875 51.21875 25.484375 53.609375 
Q 29.78125 56 35.6875 56 
Q 41.65625 56 45.828125 52.96875 
Q 50 49.953125 52 44.1875 
z
" id="DejaVuSans-109"/>
      <path d="M 54.890625 33.015625 
L 54.890625 0 
L 45.90625 0 
L 45.90625 32.71875 
Q 45.90625 40.484375 42.875 44.328125 
Q 39.84375 48.1875 33.796875 48.1875 
Q 26.515625 48.1875 22.3125 43.546875 
Q 18.109375 38.921875 18.109375 30.90625 
L 18.109375 0 
L 9.078125 0 
L 9.078125 54.6875 
L 18.109375 54.6875 
L 18.109375 46.1875 
Q 21.34375 51.125 25.703125 53.5625 
Q 30.078125 56 35.796875 56 
Q 45.21875 56 50.046875 50.171875 
Q 54.890625 44.34375 54.890625 33.015625 
z
" id="DejaVuSans-110"/>
      <path d="M 8.5 21.578125 
L 8.5 54.6875 
L 17.484375 54.6875 
L 17.484375 21.921875 
Q 17.484375 14.15625 20.5 10.265625 
Q 23.53125 6.390625 29.59375 6.390625 
Q 36.859375 6.390625 41.078125 11.03125 
Q 45.3125 15.671875 45.3125 23.6875 
L 45.3125 54.6875 
L 54.296875 54.6875 
L 54.296875 0 
L 45.3125 0 
L 45.3125 8.40625 
Q 42.046875 3.421875 37.71875 1 
Q 33.40625 -1.421875 27.6875 -1.421875 
Q 18.265625 -1.421875 13.375 4.4375 
Q 8.5 10.296875 8.5 21.578125 
z
M 31.109375 56 
z
" id="DejaVuSans-117"/>
     </defs>
     <g transform="translate(463.066861 59.237813)scale(0.14 -0.14)">
      <use xlink:href="#DejaVuSans-115"/>
      <use x="52.099609" xlink:href="#DejaVuSans-105"/>
      <use x="79.882812" xlink:href="#DejaVuSans-100"/>
      <use x="143.359375" xlink:href="#DejaVuSans-101"/>
      <use x="204.882812" xlink:href="#DejaVuSans-109"/>
      <use x="302.294922" xlink:href="#DejaVuSans-101"/>
      <use x="363.818359" xlink:href="#DejaVuSans-110"/>
      <use x="427.197266" xlink:href="#DejaVuSans-117"/>
     </g>
    </g>
    <g id="patch_6">
     <path d="M 423.866861 79.787188 
L 451.866861 79.787188 
L 451.866861 69.987188 
L 423.866861 69.987188 
z
" style="fill:#36a2eb;opacity:0.5;stroke:#36a2eb;stroke-linejoin:miter;"/>
    </g>
    <g id="text_2">
     <!-- tabbar -->
     <defs>
      <path d="M 18.3125 70.21875 
L 18.3125 54.6875 
L 36.8125 54.6875 
L 36.8125 47.703125 
L 18.3125 47.703125 
L 18.3125 18.015625 
Q 18.3125 11.328125 20.140625 9.421875 
Q 21.96875 7.515625 27.59375 7.515625 
L 36.8125 7.515625 
L 36.8125 0 
L 27.59375 0 
Q 17.1875 0 13.234375 3.875 
Q 9.28125 7.765625 9.28125 18.015625 
L 9.28125 47.703125 
L 2.6875 47.703125 
L 2.6875 54.6875 
L 9.28125 54.6875 
L 9.28125 70.21875 
z
" id="DejaVuSans-116"/>
      <path d="M 34.28125 27.484375 
Q 23.390625 27.484375 19.1875 25 
Q 14.984375 22.515625 14.984375 16.5 
Q 14.984375 11.71875 18.140625 8.90625 
Q 21.296875 6.109375 26.703125 6.109375 
Q 34.1875 6.109375 38.703125 11.40625 
Q 43.21875 16.703125 43.21875 25.484375 
L 43.21875 27.484375 
z
M 52.203125 31.203125 
L 52.203125 0 
L 43.21875 0 
L 43.21875 8.296875 
Q 40.140625 3.328125 35.546875 0.953125 
Q 30.953125 -1.421875 24.3125 -1.421875 
Q 15.921875 -1.421875 10.953125 3.296875 
Q 6 8.015625 6 15.921875 
Q 6 25.140625 12.171875 29.828125 
Q 18.359375 34.515625 30.609375 34.515625 
L 43.21875 34.515625 
L 43.21875 35.40625 
Q 43.21875 41.609375 39.140625 45 
Q 35.0625 48.390625 27.6875 48.390625 
Q 23 48.390625 18.546875 47.265625 
Q 14.109375 46.140625 10.015625 43.890625 
L 10.015625 52.203125 
Q 14.9375 54.109375 19.578125 55.046875 
Q 24.21875 56 28.609375 56 
Q 40.484375 56 46.34375 49.84375 
Q 52.203125 43.703125 52.203125 31.203125 
z
" id="DejaVuSans-97"/>
      <path d="M 48.6875 27.296875 
Q 48.6875 37.203125 44.609375 42.84375 
Q 40.53125 48.484375 33.40625 48.484375 
Q 26.265625 48.484375 22.1875 42.84375 
Q 18.109375 37.203125 18.109375 27.296875 
Q 18.109375 17.390625 22.1875 11.75 
Q 26.265625 6.109375 33.40625 6.109375 
Q 40.53125 6.109375 44.609375 11.75 
Q 48.6875 17.390625 48.6875 27.296875 
z
M 18.109375 46.390625 
Q 20.953125 51.265625 25.265625 53.625 
Q 29.59375 56 35.59375 56 
Q 45.5625 56 51.78125 48.09375 
Q 58.015625 40.1875 58.015625 27.296875 
Q 58.015625 14.40625 51.78125 6.484375 
Q 45.5625 -1.421875 35.59375 -1.421875 
Q 29.59375 -1.421875 25.265625 0.953125 
Q 20.953125 3.328125 18.109375 8.203125 
L 18.109375 0 
L 9.078125 0 
L 9.078125 75.984375 
L 18.109375 75.984375 
z
" id="DejaVuSans-98"/>
      <path d="M 41.109375 46.296875 
Q 39.59375 47.171875 37.8125 47.578125 
Q 36.03125 48 33.890625 48 
Q 26.265625 48 22.1875 43.046875 
Q 18.109375 38.09375 18.109375 28.8125 
L 18.109375 0 
L 9.078125 0 
L 9.078125 54.6875 
L 18.109375 54.6875 
L 18.109375 46.1875 
Q 20.953125 51.171875 25.484375 53.578125 
Q 30.03125 56 36.53125 56 
Q 37.453125 56 38.578125 55.875 
Q 39.703125 55.765625 41.0625 55.515625 
z
" id="DejaVuSans-114"/>
     </defs>
     <g transform="translate(463.066861 79.787188)scale(0.14 -0.14)">
      <use xlink:href="#DejaVuSans-116"/>
      <use x="39.208984" xlink:href="#DejaVuSans-97"/>
      <use x="100.488281" xlink:href="#DejaVuSans-98"/>
      <use x="163.964844" xlink:href="#DejaVuSans-98"/>
      <use x="227.441406" xlink:href="#DejaVuSans-97"/>
      <use x="288.720703" xlink:href="#DejaVuSans-114"/>
     </g>
    </g>
   </g>
  </g>
  <g id="axes_2">
   <g id="patch_7">
    <path d="M 42.147798 525.24 
L 544.347798 525.24 
L 544.347798 402.93 
L 42.147798 402.93 
z
" style="fill:none;"/>
   </g>
   <g id="patch_8">
    <path clip-path="url(#pe8d3089d4e)" d="M 269.009703 519.680455 
L 435.090647 519.680455 
L 435.090647 482.616818 
L 269.009703 482.616818 
z
" style="fill:#ff6384;opacity:0.5;"/>
   </g>
   <g id="patch_9">
    <path clip-path="url(#pe8d3089d4e)" d="M 166.676834 445.553182 
L 362.10375 445.553182 
L 362.10375 408.489545 
L 166.676834 408.489545 
z
" style="fill:#36a2eb;opacity:0.5;"/>
   </g>
   <g id="matplotlib.axis_1">
    <g id="xtick_1">
     <g id="line2d_3">
      <defs>
       <path d="M 0 0 
L 0 3.5 
" id="m1e2d496a5c" style="stroke:#000000;stroke-width:0.8;"/>
      </defs>
      <g>
       <use style="stroke:#000000;stroke-width:0.8;" x="51.585938" xlink:href="#m1e2d496a5c" y="525.24"/>
      </g>
     </g>
     <g id="text_3">
      <!-- 2.20 -->
      <defs>
       <path d="M 19.1875 8.296875 
L 53.609375 8.296875 
L 53.609375 0 
L 7.328125 0 
L 7.328125 8.296875 
Q 12.9375 14.109375 22.625 23.890625 
Q 32.328125 33.6875 34.8125 36.53125 
Q 39.546875 41.84375 41.421875 45.53125 
Q 43.3125 49.21875 43.3125 52.78125 
Q 43.3125 58.59375 39.234375 62.25 
Q 35.15625 65.921875 28.609375 65.921875 
Q 23.96875 65.921875 18.8125 64.3125 
Q 13.671875 62.703125 7.8125 59.421875 
L 7.8125 69.390625 
Q 13.765625 71.78125 18.9375 73 
Q 24.125 74.21875 28.421875 74.21875 
Q 39.75 74.21875 46.484375 68.546875 
Q 53.21875 62.890625 53.21875 53.421875 
Q 53.21875 48.921875 51.53125 44.890625 
Q 49.859375 40.875 45.40625 35.40625 
Q 44.1875 33.984375 37.640625 27.21875 
Q 31.109375 20.453125 19.1875 8.296875 
z
" id="DejaVuSans-50"/>
       <path d="M 10.6875 12.40625 
L 21 12.40625 
L 21 0 
L 10.6875 0 
z
" id="DejaVuSans-46"/>
       <path d="M 31.78125 66.40625 
Q 24.171875 66.40625 20.328125 58.90625 
Q 16.5 51.421875 16.5 36.375 
Q 16.5 21.390625 20.328125 13.890625 
Q 24.171875 6.390625 31.78125 6.390625 
Q 39.453125 6.390625 43.28125 13.890625 
Q 47.125 21.390625 47.125 36.375 
Q 47.125 51.421875 43.28125 58.90625 
Q 39.453125 66.40625 31.78125 66.40625 
z
M 31.78125 74.21875 
Q 44.046875 74.21875 50.515625 64.515625 
Q 56.984375 54.828125 56.984375 36.375 
Q 56.984375 17.96875 50.515625 8.265625 
Q 44.046875 -1.421875 31.78125 -1.421875 
Q 19.53125 -1.421875 13.0625 8.265625 
Q 6.59375 17.96875 6.59375 36.375 
Q 6.59375 54.828125 13.0625 64.515625 
Q 19.53125 74.21875 31.78125 74.21875 
z
" id="DejaVuSans-48"/>
      </defs>
      <g transform="translate(36 542.877813)scale(0.14 -0.14)">
       <use xlink:href="#DejaVuSans-50"/>
       <use x="63.623047" xlink:href="#DejaVuSans-46"/>
       <use x="95.410156" xlink:href="#DejaVuSans-50"/>
       <use x="159.033203" xlink:href="#DejaVuSans-48"/>
      </g>
     </g>
    </g>
    <g id="xtick_2">
     <g id="line2d_4">
      <g>
       <use style="stroke:#000000;stroke-width:0.8;" x="110.33921" xlink:href="#m1e2d496a5c" y="525.24"/>
      </g>
     </g>
     <g id="text_4">
      <!-- 2.25 -->
      <defs>
       <path d="M 10.796875 72.90625 
L 49.515625 72.90625 
L 49.515625 64.59375 
L 19.828125 64.59375 
L 19.828125 46.734375 
Q 21.96875 47.46875 24.109375 47.828125 
Q 26.265625 48.1875 28.421875 48.1875 
Q 40.625 48.1875 47.75 41.5 
Q 54.890625 34.8125 54.890625 23.390625 
Q 54.890625 11.625 47.5625 5.09375 
Q 40.234375 -1.421875 26.90625 -1.421875 
Q 22.3125 -1.421875 17.546875 -0.640625 
Q 12.796875 0.140625 7.71875 1.703125 
L 7.71875 11.625 
Q 12.109375 9.234375 16.796875 8.0625 
Q 21.484375 6.890625 26.703125 6.890625 
Q 35.15625 6.890625 40.078125 11.328125 
Q 45.015625 15.765625 45.015625 23.390625 
Q 45.015625 31 40.078125 35.4375 
Q 35.15625 39.890625 26.703125 39.890625 
Q 22.75 39.890625 18.8125 39.015625 
Q 14.890625 38.140625 10.796875 36.28125 
z
" id="DejaVuSans-53"/>
      </defs>
      <g transform="translate(94.753273 542.877813)scale(0.14 -0.14)">
       <use xlink:href="#DejaVuSans-50"/>
       <use x="63.623047" xlink:href="#DejaVuSans-46"/>
       <use x="95.410156" xlink:href="#DejaVuSans-50"/>
       <use x="159.033203" xlink:href="#DejaVuSans-53"/>
      </g>
     </g>
    </g>
    <g id="xtick_3">
     <g id="line2d_5">
      <g>
       <use style="stroke:#000000;stroke-width:0.8;" x="169.092483" xlink:href="#m1e2d496a5c" y="525.24"/>
      </g>
     </g>
     <g id="text_5">
      <!-- 2.30 -->
      <defs>
       <path d="M 40.578125 39.3125 
Q 47.65625 37.796875 51.625 33 
Q 55.609375 28.21875 55.609375 21.1875 
Q 55.609375 10.40625 48.1875 4.484375 
Q 40.765625 -1.421875 27.09375 -1.421875 
Q 22.515625 -1.421875 17.65625 -0.515625 
Q 12.796875 0.390625 7.625 2.203125 
L 7.625 11.71875 
Q 11.71875 9.328125 16.59375 8.109375 
Q 21.484375 6.890625 26.8125 6.890625 
Q 36.078125 6.890625 40.9375 10.546875 
Q 45.796875 14.203125 45.796875 21.1875 
Q 45.796875 27.640625 41.28125 31.265625 
Q 36.765625 34.90625 28.71875 34.90625 
L 20.21875 34.90625 
L 20.21875 43.015625 
L 29.109375 43.015625 
Q 36.375 43.015625 40.234375 45.921875 
Q 44.09375 48.828125 44.09375 54.296875 
Q 44.09375 59.90625 40.109375 62.90625 
Q 36.140625 65.921875 28.71875 65.921875 
Q 24.65625 65.921875 20.015625 65.03125 
Q 15.375 64.15625 9.8125 62.3125 
L 9.8125 71.09375 
Q 15.4375 72.65625 20.34375 73.4375 
Q 25.25 74.21875 29.59375 74.21875 
Q 40.828125 74.21875 47.359375 69.109375 
Q 53.90625 64.015625 53.90625 55.328125 
Q 53.90625 49.265625 50.4375 45.09375 
Q 46.96875 40.921875 40.578125 39.3125 
z
" id="DejaVuSans-51"/>
      </defs>
      <g transform="translate(153.506546 542.877813)scale(0.14 -0.14)">
       <use xlink:href="#DejaVuSans-50"/>
       <use x="63.623047" xlink:href="#DejaVuSans-46"/>
       <use x="95.410156" xlink:href="#DejaVuSans-51"/>
       <use x="159.033203" xlink:href="#DejaVuSans-48"/>
      </g>
     </g>
    </g>
    <g id="xtick_4">
     <g id="line2d_6">
      <g>
       <use style="stroke:#000000;stroke-width:0.8;" x="227.845756" xlink:href="#m1e2d496a5c" y="525.24"/>
      </g>
     </g>
     <g id="text_6">
      <!-- 2.35 -->
      <g transform="translate(212.259819 542.877813)scale(0.14 -0.14)">
       <use xlink:href="#DejaVuSans-50"/>
       <use x="63.623047" xlink:href="#DejaVuSans-46"/>
       <use x="95.410156" xlink:href="#DejaVuSans-51"/>
       <use x="159.033203" xlink:href="#DejaVuSans-53"/>
      </g>
     </g>
    </g>
    <g id="xtick_5">
     <g id="line2d_7">
      <g>
       <use style="stroke:#000000;stroke-width:0.8;" x="286.599029" xlink:href="#m1e2d496a5c" y="525.24"/>
      </g>
     </g>
     <g id="text_7">
      <!-- 2.40 -->
      <defs>
       <path d="M 37.796875 64.3125 
L 12.890625 25.390625 
L 37.796875 25.390625 
z
M 35.203125 72.90625 
L 47.609375 72.90625 
L 47.609375 25.390625 
L 58.015625 25.390625 
L 58.015625 17.1875 
L 47.609375 17.1875 
L 47.609375 0 
L 37.796875 0 
L 37.796875 17.1875 
L 4.890625 17.1875 
L 4.890625 26.703125 
z
" id="DejaVuSans-52"/>
      </defs>
      <g transform="translate(271.013092 542.877813)scale(0.14 -0.14)">
       <use xlink:href="#DejaVuSans-50"/>
       <use x="63.623047" xlink:href="#DejaVuSans-46"/>
       <use x="95.410156" xlink:href="#DejaVuSans-52"/>
       <use x="159.033203" xlink:href="#DejaVuSans-48"/>
      </g>
     </g>
    </g>
    <g id="xtick_6">
     <g id="line2d_8">
      <g>
       <use style="stroke:#000000;stroke-width:0.8;" x="345.352302" xlink:href="#m1e2d496a5c" y="525.24"/>
      </g>
     </g>
     <g id="text_8">
      <!-- 2.45 -->
      <g transform="translate(329.766365 542.877813)scale(0.14 -0.14)">
       <use xlink:href="#DejaVuSans-50"/>
       <use x="63.623047" xlink:href="#DejaVuSans-46"/>
       <use x="95.410156" xlink:href="#DejaVuSans-52"/>
       <use x="159.033203" xlink:href="#DejaVuSans-53"/>
      </g>
     </g>
    </g>
    <g id="xtick_7">
     <g id="line2d_9">
      <g>
       <use style="stroke:#000000;stroke-width:0.8;" x="404.105575" xlink:href="#m1e2d496a5c" y="525.24"/>
      </g>
     </g>
     <g id="text_9">
      <!-- 2.50 -->
      <g transform="translate(388.519637 542.877813)scale(0.14 -0.14)">
       <use xlink:href="#DejaVuSans-50"/>
       <use x="63.623047" xlink:href="#DejaVuSans-46"/>
       <use x="95.410156" xlink:href="#DejaVuSans-53"/>
       <use x="159.033203" xlink:href="#DejaVuSans-48"/>
      </g>
     </g>
    </g>
    <g id="xtick_8">
     <g id="line2d_10">
      <g>
       <use style="stroke:#000000;stroke-width:0.8;" x="462.858848" xlink:href="#m1e2d496a5c" y="525.24"/>
      </g>
     </g>
     <g id="text_10">
      <!-- 2.55 -->
      <g transform="translate(447.27291 542.877813)scale(0.14 -0.14)">
       <use xlink:href="#DejaVuSans-50"/>
       <use x="63.623047" xlink:href="#DejaVuSans-46"/>
       <use x="95.410156" xlink:href="#DejaVuSans-53"/>
       <use x="159.033203" xlink:href="#DejaVuSans-53"/>
      </g>
     </g>
    </g>
    <g id="xtick_9">
     <g id="line2d_11">
      <g>
       <use style="stroke:#000000;stroke-width:0.8;" x="521.612121" xlink:href="#m1e2d496a5c" y="525.24"/>
      </g>
     </g>
     <g id="text_11">
      <!-- 2.60 -->
      <defs>
       <path d="M 33.015625 40.375 
Q 26.375 40.375 22.484375 35.828125 
Q 18.609375 31.296875 18.609375 23.390625 
Q 18.609375 15.53125 22.484375 10.953125 
Q 26.375 6.390625 33.015625 6.390625 
Q 39.65625 6.390625 43.53125 10.953125 
Q 47.40625 15.53125 47.40625 23.390625 
Q 47.40625 31.296875 43.53125 35.828125 
Q 39.65625 40.375 33.015625 40.375 
z
M 52.59375 71.296875 
L 52.59375 62.3125 
Q 48.875 64.0625 45.09375 64.984375 
Q 41.3125 65.921875 37.59375 65.921875 
Q 27.828125 65.921875 22.671875 59.328125 
Q 17.53125 52.734375 16.796875 39.40625 
Q 19.671875 43.65625 24.015625 45.921875 
Q 28.375 48.1875 33.59375 48.1875 
Q 44.578125 48.1875 50.953125 41.515625 
Q 57.328125 34.859375 57.328125 23.390625 
Q 57.328125 12.15625 50.6875 5.359375 
Q 44.046875 -1.421875 33.015625 -1.421875 
Q 20.359375 -1.421875 13.671875 8.265625 
Q 6.984375 17.96875 6.984375 36.375 
Q 6.984375 53.65625 15.1875 63.9375 
Q 23.390625 74.21875 37.203125 74.21875 
Q 40.921875 74.21875 44.703125 73.484375 
Q 48.484375 72.75 52.59375 71.296875 
z
" id="DejaVuSans-54"/>
      </defs>
      <g transform="translate(506.026183 542.877813)scale(0.14 -0.14)">
       <use xlink:href="#DejaVuSans-50"/>
       <use x="63.623047" xlink:href="#DejaVuSans-46"/>
       <use x="95.410156" xlink:href="#DejaVuSans-54"/>
       <use x="159.033203" xlink:href="#DejaVuSans-48"/>
      </g>
     </g>
    </g>
   </g>
   <g id="line2d_12">
    <path clip-path="url(#pe8d3089d4e)" d="M 352.050175 525.24 
L 352.050175 402.93 
" style="fill:none;stroke:#ff6384;stroke-dasharray:5.55,2.4;stroke-dashoffset:0;stroke-opacity:0.8;stroke-width:1.5;"/>
   </g>
   <g id="line2d_13">
    <path clip-path="url(#pe8d3089d4e)" d="M 264.390292 525.24 
L 264.390292 402.93 
" style="fill:none;stroke:#36a2eb;stroke-dasharray:5.55,2.4;stroke-dashoffset:0;stroke-opacity:0.8;stroke-width:1.5;"/>
   </g>
   <g id="patch_10">
    <path d="M 42.147798 525.24 
L 544.347798 525.24 
" style="fill:none;stroke:#000000;stroke-linecap:square;stroke-linejoin:miter;stroke-width:0.8;"/>
   </g>
  </g>
 </g>
 <defs>
  <clipPath id="p59413018b8">
   <rect height="366.93" width="502.2" x="42.147798" y="36"/>
  </clipPath>
  <clipPath id="pe8d3089d4e">
   <rect height="122.31" width="502.2" x="42.147798" y="402.93"/>
  </clipPath>
 </defs>
</svg>
