<?xml version="1.0" encoding="utf-8" standalone="no"?>
<!DOCTYPE svg PUBLIC "-//W3C//DTD SVG 1.1//EN"
  "http://www.w3.org/Graphics/SVG/1.1/DTD/svg11.dtd">
<!-- Created with matplotlib (https://matplotlib.org/) -->
<svg height="581.789375pt" version="1.1" viewBox="0 0 574.2 581.789375" width="574.2pt" xmlns="http://www.w3.org/2000/svg" xmlns:xlink="http://www.w3.org/1999/xlink">
 <defs>
  <style type="text/css">
*{stroke-linecap:butt;stroke-linejoin:round;}
  </style>
 </defs>
 <g id="figure_1">
  <g id="patch_1">
   <path d="M 0 581.789375 
L 574.2 581.789375 
L 574.2 0 
L 0 0 
z
" style="fill:none;"/>
  </g>
  <g id="axes_1">
   <g id="patch_2">
    <path d="M 36 402.93 
L 538.2 402.93 
L 538.2 36 
L 36 36 
z
" style="fill:none;"/>
   </g>
   <g id="PolyCollection_1">
    <defs>
     <path d="M 122.230049 -195.538011 
L 122.230049 -195.650004 
L 126.201188 -195.692234 
L 130.172326 -195.749007 
L 134.143464 -195.8248 
L 138.114602 -195.925281 
L 142.08574 -196.057565 
L 146.056878 -196.230497 
L 150.028017 -196.454982 
L 153.999155 -196.744335 
L 157.970293 -197.114666 
L 161.941431 -197.585273 
L 165.912569 -198.179047 
L 169.883707 -198.922859 
L 173.854846 -199.847921 
L 177.825984 -200.990079 
L 181.797122 -202.390029 
L 185.76826 -204.093399 
L 189.739398 -206.150691 
L 193.710536 -208.617009 
L 197.681675 -211.551575 
L 201.652813 -215.016962 
L 205.623951 -219.078053 
L 209.595089 -223.800667 
L 213.566227 -229.249878 
L 217.537365 -235.488004 
L 221.508503 -242.572312 
L 225.479642 -250.552459 
L 229.45078 -259.467747 
L 233.421918 -269.344261 
L 237.393056 -280.192004 
L 241.364194 -292.002137 
L 245.335332 -304.744465 
L 249.306471 -318.365297 
L 253.277609 -332.785841 
L 257.248747 -347.901251 
L 261.219885 -363.580456 
L 265.191023 -379.666871 
L 269.162161 -395.980052 
L 273.1333 -412.31833 
L 277.104438 -428.4624 
L 281.075576 -444.179822 
L 285.046714 -459.230303 
L 289.017852 -473.371627 
L 292.98899 -486.366018 
L 296.960129 -497.986726 
L 300.931267 -508.02457 
L 304.902405 -516.294181 
L 308.873543 -522.639693 
L 312.844681 -526.939623 
L 316.815819 -529.110739 
L 320.786957 -529.110739 
L 324.758096 -526.939623 
L 328.729234 -522.639693 
L 332.700372 -516.294181 
L 336.67151 -508.02457 
L 340.642648 -497.986726 
L 344.613786 -486.366018 
L 348.584925 -473.371627 
L 352.556063 -459.230303 
L 356.527201 -444.179822 
L 360.498339 -428.4624 
L 364.469477 -412.31833 
L 368.440615 -395.980052 
L 372.411754 -379.666871 
L 376.382892 -363.580456 
L 380.35403 -347.901251 
L 384.325168 -332.785841 
L 388.296306 -318.365297 
L 392.267444 -304.744465 
L 396.238582 -292.002137 
L 400.209721 -280.192004 
L 404.180859 -269.344261 
L 408.151997 -259.467747 
L 412.123135 -250.552459 
L 416.094273 -242.572312 
L 420.065411 -235.488004 
L 424.03655 -229.249878 
L 428.007688 -223.800667 
L 431.978826 -219.078053 
L 435.949964 -215.016962 
L 439.921102 -211.551575 
L 443.89224 -208.617009 
L 447.863379 -206.150691 
L 451.834517 -204.093399 
L 455.805655 -202.390029 
L 459.776793 -200.990079 
L 463.747931 -199.847921 
L 467.719069 -198.922859 
L 471.690208 -198.179047 
L 475.661346 -197.585273 
L 479.632484 -197.114666 
L 483.603622 -196.744335 
L 487.57476 -196.454982 
L 491.545898 -196.230497 
L 495.517036 -196.057565 
L 499.488175 -195.925281 
L 503.459313 -195.8248 
L 507.430451 -195.749007 
L 511.401589 -195.692234 
L 515.372727 -195.650004 
L 515.372727 -195.538011 
L 515.372727 -195.538011 
L 511.401589 -195.538011 
L 507.430451 -195.538011 
L 503.459313 -195.538011 
L 499.488175 -195.538011 
L 495.517036 -195.538011 
L 491.545898 -195.538011 
L 487.57476 -195.538011 
L 483.603622 -195.538011 
L 479.632484 -195.538011 
L 475.661346 -195.538011 
L 471.690208 -195.538011 
L 467.719069 -195.538011 
L 463.747931 -195.538011 
L 459.776793 -195.538011 
L 455.805655 -195.538011 
L 451.834517 -195.538011 
L 447.863379 -195.538011 
L 443.89224 -195.538011 
L 439.921102 -195.538011 
L 435.949964 -195.538011 
L 431.978826 -195.538011 
L 428.007688 -195.538011 
L 424.03655 -195.538011 
L 420.065411 -195.538011 
L 416.094273 -195.538011 
L 412.123135 -195.538011 
L 408.151997 -195.538011 
L 404.180859 -195.538011 
L 400.209721 -195.538011 
L 396.238582 -195.538011 
L 392.267444 -195.538011 
L 388.296306 -195.538011 
L 384.325168 -195.538011 
L 380.35403 -195.538011 
L 376.382892 -195.538011 
L 372.411754 -195.538011 
L 368.440615 -195.538011 
L 364.469477 -195.538011 
L 360.498339 -195.538011 
L 356.527201 -195.538011 
L 352.556063 -195.538011 
L 348.584925 -195.538011 
L 344.613786 -195.538011 
L 340.642648 -195.538011 
L 336.67151 -195.538011 
L 332.700372 -195.538011 
L 328.729234 -195.538011 
L 324.758096 -195.538011 
L 320.786957 -195.538011 
L 316.815819 -195.538011 
L 312.844681 -195.538011 
L 308.873543 -195.538011 
L 304.902405 -195.538011 
L 300.931267 -195.538011 
L 296.960129 -195.538011 
L 292.98899 -195.538011 
L 289.017852 -195.538011 
L 285.046714 -195.538011 
L 281.075576 -195.538011 
L 277.104438 -195.538011 
L 273.1333 -195.538011 
L 269.162161 -195.538011 
L 265.191023 -195.538011 
L 261.219885 -195.538011 
L 257.248747 -195.538011 
L 253.277609 -195.538011 
L 249.306471 -195.538011 
L 245.335332 -195.538011 
L 241.364194 -195.538011 
L 237.393056 -195.538011 
L 233.421918 -195.538011 
L 229.45078 -195.538011 
L 225.479642 -195.538011 
L 221.508503 -195.538011 
L 217.537365 -195.538011 
L 213.566227 -195.538011 
L 209.595089 -195.538011 
L 205.623951 -195.538011 
L 201.652813 -195.538011 
L 197.681675 -195.538011 
L 193.710536 -195.538011 
L 189.739398 -195.538011 
L 185.76826 -195.538011 
L 181.797122 -195.538011 
L 177.825984 -195.538011 
L 173.854846 -195.538011 
L 169.883707 -195.538011 
L 165.912569 -195.538011 
L 161.941431 -195.538011 
L 157.970293 -195.538011 
L 153.999155 -195.538011 
L 150.028017 -195.538011 
L 146.056878 -195.538011 
L 142.08574 -195.538011 
L 138.114602 -195.538011 
L 134.143464 -195.538011 
L 130.172326 -195.538011 
L 126.201188 -195.538011 
L 122.230049 -195.538011 
z
" id="m6375254583" style="stroke:#ff6384;stroke-opacity:0.5;"/>
    </defs>
    <g clip-path="url(#p6cd608fa4b)">
     <use style="fill:#ff6384;fill-opacity:0.5;stroke:#ff6384;stroke-opacity:0.5;" x="0" xlink:href="#m6375254583" y="581.789375"/>
    </g>
   </g>
   <g id="PolyCollection_2">
    <defs>
     <path d="M 58.827273 -195.538011 
L 58.827273 -195.642476 
L 63.084596 -195.681867 
L 67.34192 -195.734823 
L 71.599243 -195.805521 
L 75.856567 -195.899248 
L 80.113891 -196.022639 
L 84.371214 -196.183947 
L 88.628538 -196.393341 
L 92.885861 -196.663244 
L 97.143185 -197.00868 
L 101.400508 -197.447652 
L 105.657832 -198.001511 
L 109.915156 -198.695323 
L 114.172479 -199.558201 
L 118.429803 -200.623581 
L 122.687126 -201.929423 
L 126.94445 -203.51829 
L 131.201774 -205.437286 
L 135.459097 -207.737814 
L 139.716421 -210.475112 
L 143.973744 -213.70755 
L 148.231068 -217.495646 
L 152.488391 -221.900798 
L 156.745715 -226.983702 
L 161.003039 -232.802489 
L 165.260362 -239.410577 
L 169.517686 -246.854283 
L 173.775009 -255.170268 
L 178.032333 -264.382864 
L 182.289656 -274.501401 
L 186.54698 -285.517635 
L 190.804304 -297.403399 
L 195.061627 -310.108613 
L 199.318951 -323.55978 
L 203.576274 -337.659103 
L 207.833598 -352.284322 
L 212.090921 -367.289377 
L 216.348245 -382.505956 
L 220.605569 -397.745943 
L 224.862892 -412.804778 
L 229.120216 -427.465645 
L 233.377539 -441.504404 
L 237.634863 -454.695121 
L 241.892186 -466.816004 
L 246.14951 -477.655546 
L 250.406834 -487.018627 
L 254.664157 -494.732339 
L 258.921481 -500.651294 
L 263.178804 -504.662174 
L 267.436128 -506.687343 
L 271.693452 -506.687343 
L 275.950775 -504.662174 
L 280.208099 -500.651294 
L 284.465422 -494.732339 
L 288.722746 -487.018627 
L 292.980069 -477.655546 
L 297.237393 -466.816004 
L 301.494717 -454.695121 
L 305.75204 -441.504404 
L 310.009364 -427.465645 
L 314.266687 -412.804778 
L 318.524011 -397.745943 
L 322.781334 -382.505956 
L 327.038658 -367.289377 
L 331.295982 -352.284322 
L 335.553305 -337.659103 
L 339.810629 -323.55978 
L 344.067952 -310.108613 
L 348.325276 -297.403399 
L 352.582599 -285.517635 
L 356.839923 -274.501401 
L 361.097247 -264.382864 
L 365.35457 -255.170268 
L 369.611894 -246.854283 
L 373.869217 -239.410577 
L 378.126541 -232.802489 
L 382.383864 -226.983702 
L 386.641188 -221.900798 
L 390.898512 -217.495646 
L 395.155835 -213.70755 
L 399.413159 -210.475112 
L 403.670482 -207.737814 
L 407.927806 -205.437286 
L 412.18513 -203.51829 
L 416.442453 -201.929423 
L 420.699777 -200.623581 
L 424.9571 -199.558201 
L 429.214424 -198.695323 
L 433.471747 -198.001511 
L 437.729071 -197.447652 
L 441.986395 -197.00868 
L 446.243718 -196.663244 
L 450.501042 -196.393341 
L 454.758365 -196.183947 
L 459.015689 -196.022639 
L 463.273012 -195.899248 
L 467.530336 -195.805521 
L 471.78766 -195.734823 
L 476.044983 -195.681867 
L 480.302307 -195.642476 
L 480.302307 -195.538011 
L 480.302307 -195.538011 
L 476.044983 -195.538011 
L 471.78766 -195.538011 
L 467.530336 -195.538011 
L 463.273012 -195.538011 
L 459.015689 -195.538011 
L 454.758365 -195.538011 
L 450.501042 -195.538011 
L 446.243718 -195.538011 
L 441.986395 -195.538011 
L 437.729071 -195.538011 
L 433.471747 -195.538011 
L 429.214424 -195.538011 
L 424.9571 -195.538011 
L 420.699777 -195.538011 
L 416.442453 -195.538011 
L 412.18513 -195.538011 
L 407.927806 -195.538011 
L 403.670482 -195.538011 
L 399.413159 -195.538011 
L 395.155835 -195.538011 
L 390.898512 -195.538011 
L 386.641188 -195.538011 
L 382.383864 -195.538011 
L 378.126541 -195.538011 
L 373.869217 -195.538011 
L 369.611894 -195.538011 
L 365.35457 -195.538011 
L 361.097247 -195.538011 
L 356.839923 -195.538011 
L 352.582599 -195.538011 
L 348.325276 -195.538011 
L 344.067952 -195.538011 
L 339.810629 -195.538011 
L 335.553305 -195.538011 
L 331.295982 -195.538011 
L 327.038658 -195.538011 
L 322.781334 -195.538011 
L 318.524011 -195.538011 
L 314.266687 -195.538011 
L 310.009364 -195.538011 
L 305.75204 -195.538011 
L 301.494717 -195.538011 
L 297.237393 -195.538011 
L 292.980069 -195.538011 
L 288.722746 -195.538011 
L 284.465422 -195.538011 
L 280.208099 -195.538011 
L 275.950775 -195.538011 
L 271.693452 -195.538011 
L 267.436128 -195.538011 
L 263.178804 -195.538011 
L 258.921481 -195.538011 
L 254.664157 -195.538011 
L 250.406834 -195.538011 
L 246.14951 -195.538011 
L 241.892186 -195.538011 
L 237.634863 -195.538011 
L 233.377539 -195.538011 
L 229.120216 -195.538011 
L 224.862892 -195.538011 
L 220.605569 -195.538011 
L 216.348245 -195.538011 
L 212.090921 -195.538011 
L 207.833598 -195.538011 
L 203.576274 -195.538011 
L 199.318951 -195.538011 
L 195.061627 -195.538011 
L 190.804304 -195.538011 
L 186.54698 -195.538011 
L 182.289656 -195.538011 
L 178.032333 -195.538011 
L 173.775009 -195.538011 
L 169.517686 -195.538011 
L 165.260362 -195.538011 
L 161.003039 -195.538011 
L 156.745715 -195.538011 
L 152.488391 -195.538011 
L 148.231068 -195.538011 
L 143.973744 -195.538011 
L 139.716421 -195.538011 
L 135.459097 -195.538011 
L 131.201774 -195.538011 
L 126.94445 -195.538011 
L 122.687126 -195.538011 
L 118.429803 -195.538011 
L 114.172479 -195.538011 
L 109.915156 -195.538011 
L 105.657832 -195.538011 
L 101.400508 -195.538011 
L 97.143185 -195.538011 
L 92.885861 -195.538011 
L 88.628538 -195.538011 
L 84.371214 -195.538011 
L 80.113891 -195.538011 
L 75.856567 -195.538011 
L 71.599243 -195.538011 
L 67.34192 -195.538011 
L 63.084596 -195.538011 
L 58.827273 -195.538011 
z
" id="m50f7b524f2" style="stroke:#36a2eb;stroke-opacity:0.5;"/>
    </defs>
    <g clip-path="url(#p6cd608fa4b)">
     <use style="fill:#36a2eb;fill-opacity:0.5;stroke:#36a2eb;stroke-opacity:0.5;" x="0" xlink:href="#m50f7b524f2" y="581.789375"/>
    </g>
   </g>
   <g id="line2d_1">
    <path clip-path="url(#p6cd608fa4b)" d="M 122.230049 386.139371 
L 126.201188 386.097141 
L 130.172326 386.040368 
L 134.143464 385.964575 
L 138.114602 385.864094 
L 142.08574 385.73181 
L 146.056878 385.558878 
L 150.028017 385.334393 
L 153.999155 385.04504 
L 157.970293 384.674709 
L 161.941431 384.204102 
L 165.912569 383.610328 
L 169.883707 382.866516 
L 173.854846 381.941454 
L 177.825984 380.799296 
L 181.797122 379.399346 
L 185.76826 377.695976 
L 189.739398 375.638684 
L 193.710536 373.172366 
L 197.681675 370.2378 
L 201.652813 366.772413 
L 205.623951 362.711322 
L 209.595089 357.988708 
L 213.566227 352.539497 
L 217.537365 346.301371 
L 221.508503 339.217063 
L 225.479642 331.236916 
L 229.45078 322.321628 
L 233.421918 312.445114 
L 237.393056 301.597371 
L 241.364194 289.787238 
L 245.335332 277.04491 
L 249.306471 263.424078 
L 253.277609 249.003534 
L 257.248747 233.888124 
L 261.219885 218.208919 
L 265.191023 202.122504 
L 269.162161 185.809323 
L 273.1333 169.471045 
L 277.104438 153.326975 
L 281.075576 137.609553 
L 285.046714 122.559072 
L 289.017852 108.417748 
L 292.98899 95.423357 
L 296.960129 83.802649 
L 300.931267 73.764805 
L 304.902405 65.495194 
L 308.873543 59.149682 
L 312.844681 54.849752 
L 316.815819 52.678636 
L 320.786957 52.678636 
L 324.758096 54.849752 
L 328.729234 59.149682 
L 332.700372 65.495194 
L 336.67151 73.764805 
L 340.642648 83.802649 
L 344.613786 95.423357 
L 348.584925 108.417748 
L 352.556063 122.559072 
L 356.527201 137.609553 
L 360.498339 153.326975 
L 364.469477 169.471045 
L 368.440615 185.809323 
L 372.411754 202.122504 
L 376.382892 218.208919 
L 380.35403 233.888124 
L 384.325168 249.003534 
L 388.296306 263.424078 
L 392.267444 277.04491 
L 396.238582 289.787238 
L 400.209721 301.597371 
L 404.180859 312.445114 
L 408.151997 322.321628 
L 412.123135 331.236916 
L 416.094273 339.217063 
L 420.065411 346.301371 
L 424.03655 352.539497 
L 428.007688 357.988708 
L 431.978826 362.711322 
L 435.949964 366.772413 
L 439.921102 370.2378 
L 443.89224 373.172366 
L 447.863379 375.638684 
L 451.834517 377.695976 
L 455.805655 379.399346 
L 459.776793 380.799296 
L 463.747931 381.941454 
L 467.719069 382.866516 
L 471.690208 383.610328 
L 475.661346 384.204102 
L 479.632484 384.674709 
L 483.603622 385.04504 
L 487.57476 385.334393 
L 491.545898 385.558878 
L 495.517036 385.73181 
L 499.488175 385.864094 
L 503.459313 385.964575 
L 507.430451 386.040368 
L 511.401589 386.097141 
L 515.372727 386.139371 
" style="fill:none;stroke:#ff6384;stroke-linecap:square;"/>
   </g>
   <g id="line2d_2">
    <path clip-path="url(#p6cd608fa4b)" d="M 58.827273 386.146899 
L 63.084596 386.107508 
L 67.34192 386.054552 
L 71.599243 385.983854 
L 75.856567 385.890127 
L 80.113891 385.766736 
L 84.371214 385.605428 
L 88.628538 385.396034 
L 92.885861 385.126131 
L 97.143185 384.780695 
L 101.400508 384.341723 
L 105.657832 383.787864 
L 109.915156 383.094052 
L 114.172479 382.231174 
L 118.429803 381.165794 
L 122.687126 379.859952 
L 126.94445 378.271085 
L 131.201774 376.352089 
L 135.459097 374.051561 
L 139.716421 371.314263 
L 143.973744 368.081825 
L 148.231068 364.293729 
L 152.488391 359.888577 
L 156.745715 354.805673 
L 161.003039 348.986886 
L 165.260362 342.378798 
L 169.517686 334.935092 
L 173.775009 326.619107 
L 178.032333 317.406511 
L 182.289656 307.287974 
L 186.54698 296.27174 
L 190.804304 284.385976 
L 195.061627 271.680762 
L 199.318951 258.229595 
L 203.576274 244.130272 
L 207.833598 229.505053 
L 212.090921 214.499998 
L 216.348245 199.283419 
L 220.605569 184.043432 
L 224.862892 168.984597 
L 229.120216 154.32373 
L 233.377539 140.284971 
L 237.634863 127.094254 
L 241.892186 114.973371 
L 246.14951 104.133829 
L 250.406834 94.770748 
L 254.664157 87.057036 
L 258.921481 81.138081 
L 263.178804 77.127201 
L 267.436128 75.102032 
L 271.693452 75.102032 
L 275.950775 77.127201 
L 280.208099 81.138081 
L 284.465422 87.057036 
L 288.722746 94.770748 
L 292.980069 104.133829 
L 297.237393 114.973371 
L 301.494717 127.094254 
L 305.75204 140.284971 
L 310.009364 154.32373 
L 314.266687 168.984597 
L 318.524011 184.043432 
L 322.781334 199.283419 
L 327.038658 214.499998 
L 331.295982 229.505053 
L 335.553305 244.130272 
L 339.810629 258.229595 
L 344.067952 271.680762 
L 348.325276 284.385976 
L 352.582599 296.27174 
L 356.839923 307.287974 
L 361.097247 317.406511 
L 365.35457 326.619107 
L 369.611894 334.935092 
L 373.869217 342.378798 
L 378.126541 348.986886 
L 382.383864 354.805673 
L 386.641188 359.888577 
L 390.898512 364.293729 
L 395.155835 368.081825 
L 399.413159 371.314263 
L 403.670482 374.051561 
L 407.927806 376.352089 
L 412.18513 378.271085 
L 416.442453 379.859952 
L 420.699777 381.165794 
L 424.9571 382.231174 
L 429.214424 383.094052 
L 433.471747 383.787864 
L 437.729071 384.341723 
L 441.986395 384.780695 
L 446.243718 385.126131 
L 450.501042 385.396034 
L 454.758365 385.605428 
L 459.015689 385.766736 
L 463.273012 385.890127 
L 467.530336 385.983854 
L 471.78766 386.054552 
L 476.044983 386.107508 
L 480.302307 386.146899 
" style="fill:none;stroke:#36a2eb;stroke-linecap:square;"/>
   </g>
   <g id="patch_3">
    <path d="M 36 402.93 
L 538.2 402.93 
" style="fill:none;stroke:#000000;stroke-linecap:square;stroke-linejoin:miter;stroke-width:0.8;"/>
   </g>
   <g id="legend_1">
    <g id="patch_4">
     <path d="M 414.919063 88.29875 
L 528.4 88.29875 
Q 531.2 88.29875 531.2 85.49875 
L 531.2 45.8 
Q 531.2 43 528.4 43 
L 414.919063 43 
Q 412.119063 43 412.119063 45.8 
L 412.119063 85.49875 
Q 412.119063 88.29875 414.919063 88.29875 
z
" style="fill:#ffffff;opacity:0.8;stroke:#cccccc;stroke-linejoin:miter;"/>
    </g>
    <g id="patch_5">
     <path d="M 417.719063 59.237813 
L 445.719063 59.237813 
L 445.719063 49.437813 
L 417.719063 49.437813 
z
" style="fill:#ff6384;opacity:0.5;stroke:#ff6384;stroke-linejoin:miter;"/>
    </g>
    <g id="text_1">
     <!-- sidemenu -->
     <defs>
      <path d="M 44.28125 53.078125 
L 44.28125 44.578125 
Q 40.484375 46.53125 36.375 47.5 
Q 32.28125 48.484375 27.875 48.484375 
Q 21.1875 48.484375 17.84375 46.4375 
Q 14.5 44.390625 14.5 40.28125 
Q 14.5 37.15625 16.890625 35.375 
Q 19.28125 33.59375 26.515625 31.984375 
L 29.59375 31.296875 
Q 39.15625 29.25 43.1875 25.515625 
Q 47.21875 21.78125 47.21875 15.09375 
Q 47.21875 7.46875 41.1875 3.015625 
Q 35.15625 -1.421875 24.609375 -1.421875 
Q 20.21875 -1.421875 15.453125 -0.5625 
Q 10.6875 0.296875 5.421875 2 
L 5.421875 11.28125 
Q 10.40625 8.6875 15.234375 7.390625 
Q 20.0625 6.109375 24.8125 6.109375 
Q 31.15625 6.109375 34.5625 8.28125 
Q 37.984375 10.453125 37.984375 14.40625 
Q 37.984375 18.0625 35.515625 20.015625 
Q 33.0625 21.96875 24.703125 23.78125 
L 21.578125 24.515625 
Q 13.234375 26.265625 9.515625 29.90625 
Q 5.8125 33.546875 5.8125 39.890625 
Q 5.8125 47.609375 11.28125 51.796875 
Q 16.75 56 26.8125 56 
Q 31.78125 56 36.171875 55.265625 
Q 40.578125 54.546875 44.28125 53.078125 
z
" id="DejaVuSans-115"/>
      <path d="M 9.421875 54.6875 
L 18.40625 54.6875 
L 18.40625 0 
L 9.421875 0 
z
M 9.421875 75.984375 
L 18.40625 75.984375 
L 18.40625 64.59375 
L 9.421875 64.59375 
z
" id="DejaVuSans-105"/>
      <path d="M 45.40625 46.390625 
L 45.40625 75.984375 
L 54.390625 75.984375 
L 54.390625 0 
L 45.40625 0 
L 45.40625 8.203125 
Q 42.578125 3.328125 38.25 0.953125 
Q 33.9375 -1.421875 27.875 -1.421875 
Q 17.96875 -1.421875 11.734375 6.484375 
Q 5.515625 14.40625 5.515625 27.296875 
Q 5.515625 40.1875 11.734375 48.09375 
Q 17.96875 56 27.875 56 
Q 33.9375 56 38.25 53.625 
Q 42.578125 51.265625 45.40625 46.390625 
z
M 14.796875 27.296875 
Q 14.796875 17.390625 18.875 11.75 
Q 22.953125 6.109375 30.078125 6.109375 
Q 37.203125 6.109375 41.296875 11.75 
Q 45.40625 17.390625 45.40625 27.296875 
Q 45.40625 37.203125 41.296875 42.84375 
Q 37.203125 48.484375 30.078125 48.484375 
Q 22.953125 48.484375 18.875 42.84375 
Q 14.796875 37.203125 14.796875 27.296875 
z
" id="DejaVuSans-100"/>
      <path d="M 56.203125 29.59375 
L 56.203125 25.203125 
L 14.890625 25.203125 
Q 15.484375 15.921875 20.484375 11.0625 
Q 25.484375 6.203125 34.421875 6.203125 
Q 39.59375 6.203125 44.453125 7.46875 
Q 49.3125 8.734375 54.109375 11.28125 
L 54.109375 2.78125 
Q 49.265625 0.734375 44.1875 -0.34375 
Q 39.109375 -1.421875 33.890625 -1.421875 
Q 20.796875 -1.421875 13.15625 6.1875 
Q 5.515625 13.8125 5.515625 26.8125 
Q 5.515625 40.234375 12.765625 48.109375 
Q 20.015625 56 32.328125 56 
Q 43.359375 56 49.78125 48.890625 
Q 56.203125 41.796875 56.203125 29.59375 
z
M 47.21875 32.234375 
Q 47.125 39.59375 43.09375 43.984375 
Q 39.0625 48.390625 32.421875 48.390625 
Q 24.90625 48.390625 20.390625 44.140625 
Q 15.875 39.890625 15.1875 32.171875 
z
" id="DejaVuSans-101"/>
      <path d="M 52 44.1875 
Q 55.375 50.25 60.0625 53.125 
Q 64.75 56 71.09375 56 
Q 79.640625 56 84.28125 50.015625 
Q 88.921875 44.046875 88.921875 33.015625 
L 88.921875 0 
L 79.890625 0 
L 79.890625 32.71875 
Q 79.890625 40.578125 77.09375 44.375 
Q 74.3125 48.1875 68.609375 48.1875 
Q 61.625 48.1875 57.5625 43.546875 
Q 53.515625 38.921875 53.515625 30.90625 
L 53.515625 0 
L 44.484375 0 
L 44.484375 32.71875 
Q 44.484375 40.625 41.703125 44.40625 
Q 38.921875 48.1875 33.109375 48.1875 
Q 26.21875 48.1875 22.15625 43.53125 
Q 18.109375 38.875 18.109375 30.90625 
L 18.109375 0 
L 9.078125 0 
L 9.078125 54.6875 
L 18.109375 54.6875 
L 18.109375 46.1875 
Q 21.1875 51.21875 25.484375 53.609375 
Q 29.78125 56 35.6875 56 
Q 41.65625 56 45.828125 52.96875 
Q 50 49.953125 52 44.1875 
z
" id="DejaVuSans-109"/>
      <path d="M 54.890625 33.015625 
L 54.890625 0 
L 45.90625 0 
L 45.90625 32.71875 
Q 45.90625 40.484375 42.875 44.328125 
Q 39.84375 48.1875 33.796875 48.1875 
Q 26.515625 48.1875 22.3125 43.546875 
Q 18.109375 38.921875 18.109375 30.90625 
L 18.109375 0 
L 9.078125 0 
L 9.078125 54.6875 
L 18.109375 54.6875 
L 18.109375 46.1875 
Q 21.34375 51.125 25.703125 53.5625 
Q 30.078125 56 35.796875 56 
Q 45.21875 56 50.046875 50.171875 
Q 54.890625 44.34375 54.890625 33.015625 
z
" id="DejaVuSans-110"/>
      <path d="M 8.5 21.578125 
L 8.5 54.6875 
L 17.484375 54.6875 
L 17.484375 21.921875 
Q 17.484375 14.15625 20.5 10.265625 
Q 23.53125 6.390625 29.59375 6.390625 
Q 36.859375 6.390625 41.078125 11.03125 
Q 45.3125 15.671875 45.3125 23.6875 
L 45.3125 54.6875 
L 54.296875 54.6875 
L 54.296875 0 
L 45.3125 0 
L 45.3125 8.40625 
Q 42.046875 3.421875 37.71875 1 
Q 33.40625 -1.421875 27.6875 -1.421875 
Q 18.265625 -1.421875 13.375 4.4375 
Q 8.5 10.296875 8.5 21.578125 
z
M 31.109375 56 
z
" id="DejaVuSans-117"/>
     </defs>
     <g transform="translate(456.919063 59.237813)scale(0.14 -0.14)">
      <use xlink:href="#DejaVuSans-115"/>
      <use x="52.099609" xlink:href="#DejaVuSans-105"/>
      <use x="79.882812" xlink:href="#DejaVuSans-100"/>
      <use x="143.359375" xlink:href="#DejaVuSans-101"/>
      <use x="204.882812" xlink:href="#DejaVuSans-109"/>
      <use x="302.294922" xlink:href="#DejaVuSans-101"/>
      <use x="363.818359" xlink:href="#DejaVuSans-110"/>
      <use x="427.197266" xlink:href="#DejaVuSans-117"/>
     </g>
    </g>
    <g id="patch_6">
     <path d="M 417.719063 79.787188 
L 445.719063 79.787188 
L 445.719063 69.987188 
L 417.719063 69.987188 
z
" style="fill:#36a2eb;opacity:0.5;stroke:#36a2eb;stroke-linejoin:miter;"/>
    </g>
    <g id="text_2">
     <!-- tabbar -->
     <defs>
      <path d="M 18.3125 70.21875 
L 18.3125 54.6875 
L 36.8125 54.6875 
L 36.8125 47.703125 
L 18.3125 47.703125 
L 18.3125 18.015625 
Q 18.3125 11.328125 20.140625 9.421875 
Q 21.96875 7.515625 27.59375 7.515625 
L 36.8125 7.515625 
L 36.8125 0 
L 27.59375 0 
Q 17.1875 0 13.234375 3.875 
Q 9.28125 7.765625 9.28125 18.015625 
L 9.28125 47.703125 
L 2.6875 47.703125 
L 2.6875 54.6875 
L 9.28125 54.6875 
L 9.28125 70.21875 
z
" id="DejaVuSans-116"/>
      <path d="M 34.28125 27.484375 
Q 23.390625 27.484375 19.1875 25 
Q 14.984375 22.515625 14.984375 16.5 
Q 14.984375 11.71875 18.140625 8.90625 
Q 21.296875 6.109375 26.703125 6.109375 
Q 34.1875 6.109375 38.703125 11.40625 
Q 43.21875 16.703125 43.21875 25.484375 
L 43.21875 27.484375 
z
M 52.203125 31.203125 
L 52.203125 0 
L 43.21875 0 
L 43.21875 8.296875 
Q 40.140625 3.328125 35.546875 0.953125 
Q 30.953125 -1.421875 24.3125 -1.421875 
Q 15.921875 -1.421875 10.953125 3.296875 
Q 6 8.015625 6 15.921875 
Q 6 25.140625 12.171875 29.828125 
Q 18.359375 34.515625 30.609375 34.515625 
L 43.21875 34.515625 
L 43.21875 35.40625 
Q 43.21875 41.609375 39.140625 45 
Q 35.0625 48.390625 27.6875 48.390625 
Q 23 48.390625 18.546875 47.265625 
Q 14.109375 46.140625 10.015625 43.890625 
L 10.015625 52.203125 
Q 14.9375 54.109375 19.578125 55.046875 
Q 24.21875 56 28.609375 56 
Q 40.484375 56 46.34375 49.84375 
Q 52.203125 43.703125 52.203125 31.203125 
z
" id="DejaVuSans-97"/>
      <path d="M 48.6875 27.296875 
Q 48.6875 37.203125 44.609375 42.84375 
Q 40.53125 48.484375 33.40625 48.484375 
Q 26.265625 48.484375 22.1875 42.84375 
Q 18.109375 37.203125 18.109375 27.296875 
Q 18.109375 17.390625 22.1875 11.75 
Q 26.265625 6.109375 33.40625 6.109375 
Q 40.53125 6.109375 44.609375 11.75 
Q 48.6875 17.390625 48.6875 27.296875 
z
M 18.109375 46.390625 
Q 20.953125 51.265625 25.265625 53.625 
Q 29.59375 56 35.59375 56 
Q 45.5625 56 51.78125 48.09375 
Q 58.015625 40.1875 58.015625 27.296875 
Q 58.015625 14.40625 51.78125 6.484375 
Q 45.5625 -1.421875 35.59375 -1.421875 
Q 29.59375 -1.421875 25.265625 0.953125 
Q 20.953125 3.328125 18.109375 8.203125 
L 18.109375 0 
L 9.078125 0 
L 9.078125 75.984375 
L 18.109375 75.984375 
z
" id="DejaVuSans-98"/>
      <path d="M 41.109375 46.296875 
Q 39.59375 47.171875 37.8125 47.578125 
Q 36.03125 48 33.890625 48 
Q 26.265625 48 22.1875 43.046875 
Q 18.109375 38.09375 18.109375 28.8125 
L 18.109375 0 
L 9.078125 0 
L 9.078125 54.6875 
L 18.109375 54.6875 
L 18.109375 46.1875 
Q 20.953125 51.171875 25.484375 53.578125 
Q 30.03125 56 36.53125 56 
Q 37.453125 56 38.578125 55.875 
Q 39.703125 55.765625 41.0625 55.515625 
z
" id="DejaVuSans-114"/>
     </defs>
     <g transform="translate(456.919063 79.787188)scale(0.14 -0.14)">
      <use xlink:href="#DejaVuSans-116"/>
      <use x="39.208984" xlink:href="#DejaVuSans-97"/>
      <use x="100.488281" xlink:href="#DejaVuSans-98"/>
      <use x="163.964844" xlink:href="#DejaVuSans-98"/>
      <use x="227.441406" xlink:href="#DejaVuSans-97"/>
      <use x="288.720703" xlink:href="#DejaVuSans-114"/>
     </g>
    </g>
   </g>
  </g>
  <g id="axes_2">
   <g id="patch_7">
    <path d="M 36 525.24 
L 538.2 525.24 
L 538.2 402.93 
L 36 402.93 
z
" style="fill:none;"/>
   </g>
   <g id="patch_8">
    <path clip-path="url(#p23a2659692)" d="M 222.481432 519.680455 
L 415.121344 519.680455 
L 415.121344 482.616818 
L 222.481432 482.616818 
z
" style="fill:#ff6384;opacity:0.5;"/>
   </g>
   <g id="patch_9">
    <path clip-path="url(#p23a2659692)" d="M 166.303406 445.553182 
L 372.826173 445.553182 
L 372.826173 408.489545 
L 166.303406 408.489545 
z
" style="fill:#36a2eb;opacity:0.5;"/>
   </g>
   <g id="matplotlib.axis_1">
    <g id="xtick_1">
     <g id="line2d_3">
      <defs>
       <path d="M 0 0 
L 0 3.5 
" id="mc015800079" style="stroke:#000000;stroke-width:0.8;"/>
      </defs>
      <g>
       <use style="stroke:#000000;stroke-width:0.8;" x="58.137043" xlink:href="#mc015800079" y="525.24"/>
      </g>
     </g>
     <g id="text_3">
      <!-- 3.0 -->
      <defs>
       <path d="M 40.578125 39.3125 
Q 47.65625 37.796875 51.625 33 
Q 55.609375 28.21875 55.609375 21.1875 
Q 55.609375 10.40625 48.1875 4.484375 
Q 40.765625 -1.421875 27.09375 -1.421875 
Q 22.515625 -1.421875 17.65625 -0.515625 
Q 12.796875 0.390625 7.625 2.203125 
L 7.625 11.71875 
Q 11.71875 9.328125 16.59375 8.109375 
Q 21.484375 6.890625 26.8125 6.890625 
Q 36.078125 6.890625 40.9375 10.546875 
Q 45.796875 14.203125 45.796875 21.1875 
Q 45.796875 27.640625 41.28125 31.265625 
Q 36.765625 34.90625 28.71875 34.90625 
L 20.21875 34.90625 
L 20.21875 43.015625 
L 29.109375 43.015625 
Q 36.375 43.015625 40.234375 45.921875 
Q 44.09375 48.828125 44.09375 54.296875 
Q 44.09375 59.90625 40.109375 62.90625 
Q 36.140625 65.921875 28.71875 65.921875 
Q 24.65625 65.921875 20.015625 65.03125 
Q 15.375 64.15625 9.8125 62.3125 
L 9.8125 71.09375 
Q 15.4375 72.65625 20.34375 73.4375 
Q 25.25 74.21875 29.59375 74.21875 
Q 40.828125 74.21875 47.359375 69.109375 
Q 53.90625 64.015625 53.90625 55.328125 
Q 53.90625 49.265625 50.4375 45.09375 
Q 46.96875 40.921875 40.578125 39.3125 
z
" id="DejaVuSans-51"/>
       <path d="M 10.6875 12.40625 
L 21 12.40625 
L 21 0 
L 10.6875 0 
z
" id="DejaVuSans-46"/>
       <path d="M 31.78125 66.40625 
Q 24.171875 66.40625 20.328125 58.90625 
Q 16.5 51.421875 16.5 36.375 
Q 16.5 21.390625 20.328125 13.890625 
Q 24.171875 6.390625 31.78125 6.390625 
Q 39.453125 6.390625 43.28125 13.890625 
Q 47.125 21.390625 47.125 36.375 
Q 47.125 51.421875 43.28125 58.90625 
Q 39.453125 66.40625 31.78125 66.40625 
z
M 31.78125 74.21875 
Q 44.046875 74.21875 50.515625 64.515625 
Q 56.984375 54.828125 56.984375 36.375 
Q 56.984375 17.96875 50.515625 8.265625 
Q 44.046875 -1.421875 31.78125 -1.421875 
Q 19.53125 -1.421875 13.0625 8.265625 
Q 6.59375 17.96875 6.59375 36.375 
Q 6.59375 54.828125 13.0625 64.515625 
Q 19.53125 74.21875 31.78125 74.21875 
z
" id="DejaVuSans-48"/>
      </defs>
      <g transform="translate(47.004855 542.877813)scale(0.14 -0.14)">
       <use xlink:href="#DejaVuSans-51"/>
       <use x="63.623047" xlink:href="#DejaVuSans-46"/>
       <use x="95.410156" xlink:href="#DejaVuSans-48"/>
      </g>
     </g>
    </g>
    <g id="xtick_2">
     <g id="line2d_4">
      <g>
       <use style="stroke:#000000;stroke-width:0.8;" x="116.062453" xlink:href="#mc015800079" y="525.24"/>
      </g>
     </g>
     <g id="text_4">
      <!-- 3.2 -->
      <defs>
       <path d="M 19.1875 8.296875 
L 53.609375 8.296875 
L 53.609375 0 
L 7.328125 0 
L 7.328125 8.296875 
Q 12.9375 14.109375 22.625 23.890625 
Q 32.328125 33.6875 34.8125 36.53125 
Q 39.546875 41.84375 41.421875 45.53125 
Q 43.3125 49.21875 43.3125 52.78125 
Q 43.3125 58.59375 39.234375 62.25 
Q 35.15625 65.921875 28.609375 65.921875 
Q 23.96875 65.921875 18.8125 64.3125 
Q 13.671875 62.703125 7.8125 59.421875 
L 7.8125 69.390625 
Q 13.765625 71.78125 18.9375 73 
Q 24.125 74.21875 28.421875 74.21875 
Q 39.75 74.21875 46.484375 68.546875 
Q 53.21875 62.890625 53.21875 53.421875 
Q 53.21875 48.921875 51.53125 44.890625 
Q 49.859375 40.875 45.40625 35.40625 
Q 44.1875 33.984375 37.640625 27.21875 
Q 31.109375 20.453125 19.1875 8.296875 
z
" id="DejaVuSans-50"/>
      </defs>
      <g transform="translate(104.930265 542.877813)scale(0.14 -0.14)">
       <use xlink:href="#DejaVuSans-51"/>
       <use x="63.623047" xlink:href="#DejaVuSans-46"/>
       <use x="95.410156" xlink:href="#DejaVuSans-50"/>
      </g>
     </g>
    </g>
    <g id="xtick_3">
     <g id="line2d_5">
      <g>
       <use style="stroke:#000000;stroke-width:0.8;" x="173.987863" xlink:href="#mc015800079" y="525.24"/>
      </g>
     </g>
     <g id="text_5">
      <!-- 3.4 -->
      <defs>
       <path d="M 37.796875 64.3125 
L 12.890625 25.390625 
L 37.796875 25.390625 
z
M 35.203125 72.90625 
L 47.609375 72.90625 
L 47.609375 25.390625 
L 58.015625 25.390625 
L 58.015625 17.1875 
L 47.609375 17.1875 
L 47.609375 0 
L 37.796875 0 
L 37.796875 17.1875 
L 4.890625 17.1875 
L 4.890625 26.703125 
z
" id="DejaVuSans-52"/>
      </defs>
      <g transform="translate(162.855675 542.877813)scale(0.14 -0.14)">
       <use xlink:href="#DejaVuSans-51"/>
       <use x="63.623047" xlink:href="#DejaVuSans-46"/>
       <use x="95.410156" xlink:href="#DejaVuSans-52"/>
      </g>
     </g>
    </g>
    <g id="xtick_4">
     <g id="line2d_6">
      <g>
       <use style="stroke:#000000;stroke-width:0.8;" x="231.913273" xlink:href="#mc015800079" y="525.24"/>
      </g>
     </g>
     <g id="text_6">
      <!-- 3.6 -->
      <defs>
       <path d="M 33.015625 40.375 
Q 26.375 40.375 22.484375 35.828125 
Q 18.609375 31.296875 18.609375 23.390625 
Q 18.609375 15.53125 22.484375 10.953125 
Q 26.375 6.390625 33.015625 6.390625 
Q 39.65625 6.390625 43.53125 10.953125 
Q 47.40625 15.53125 47.40625 23.390625 
Q 47.40625 31.296875 43.53125 35.828125 
Q 39.65625 40.375 33.015625 40.375 
z
M 52.59375 71.296875 
L 52.59375 62.3125 
Q 48.875 64.0625 45.09375 64.984375 
Q 41.3125 65.921875 37.59375 65.921875 
Q 27.828125 65.921875 22.671875 59.328125 
Q 17.53125 52.734375 16.796875 39.40625 
Q 19.671875 43.65625 24.015625 45.921875 
Q 28.375 48.1875 33.59375 48.1875 
Q 44.578125 48.1875 50.953125 41.515625 
Q 57.328125 34.859375 57.328125 23.390625 
Q 57.328125 12.15625 50.6875 5.359375 
Q 44.046875 -1.421875 33.015625 -1.421875 
Q 20.359375 -1.421875 13.671875 8.265625 
Q 6.984375 17.96875 6.984375 36.375 
Q 6.984375 53.65625 15.1875 63.9375 
Q 23.390625 74.21875 37.203125 74.21875 
Q 40.921875 74.21875 44.703125 73.484375 
Q 48.484375 72.75 52.59375 71.296875 
z
" id="DejaVuSans-54"/>
      </defs>
      <g transform="translate(220.781086 542.877813)scale(0.14 -0.14)">
       <use xlink:href="#DejaVuSans-51"/>
       <use x="63.623047" xlink:href="#DejaVuSans-46"/>
       <use x="95.410156" xlink:href="#DejaVuSans-54"/>
      </g>
     </g>
    </g>
    <g id="xtick_5">
     <g id="line2d_7">
      <g>
       <use style="stroke:#000000;stroke-width:0.8;" x="289.838683" xlink:href="#mc015800079" y="525.24"/>
      </g>
     </g>
     <g id="text_7">
      <!-- 3.8 -->
      <defs>
       <path d="M 31.78125 34.625 
Q 24.75 34.625 20.71875 30.859375 
Q 16.703125 27.09375 16.703125 20.515625 
Q 16.703125 13.921875 20.71875 10.15625 
Q 24.75 6.390625 31.78125 6.390625 
Q 38.8125 6.390625 42.859375 10.171875 
Q 46.921875 13.96875 46.921875 20.515625 
Q 46.921875 27.09375 42.890625 30.859375 
Q 38.875 34.625 31.78125 34.625 
z
M 21.921875 38.8125 
Q 15.578125 40.375 12.03125 44.71875 
Q 8.5 49.078125 8.5 55.328125 
Q 8.5 64.0625 14.71875 69.140625 
Q 20.953125 74.21875 31.78125 74.21875 
Q 42.671875 74.21875 48.875 69.140625 
Q 55.078125 64.0625 55.078125 55.328125 
Q 55.078125 49.078125 51.53125 44.71875 
Q 48 40.375 41.703125 38.8125 
Q 48.828125 37.15625 52.796875 32.3125 
Q 56.78125 27.484375 56.78125 20.515625 
Q 56.78125 9.90625 50.3125 4.234375 
Q 43.84375 -1.421875 31.78125 -1.421875 
Q 19.734375 -1.421875 13.25 4.234375 
Q 6.78125 9.90625 6.78125 20.515625 
Q 6.78125 27.484375 10.78125 32.3125 
Q 14.796875 37.15625 21.921875 38.8125 
z
M 18.3125 54.390625 
Q 18.3125 48.734375 21.84375 45.5625 
Q 25.390625 42.390625 31.78125 42.390625 
Q 38.140625 42.390625 41.71875 45.5625 
Q 45.3125 48.734375 45.3125 54.390625 
Q 45.3125 60.0625 41.71875 63.234375 
Q 38.140625 66.40625 31.78125 66.40625 
Q 25.390625 66.40625 21.84375 63.234375 
Q 18.3125 60.0625 18.3125 54.390625 
z
" id="DejaVuSans-56"/>
      </defs>
      <g transform="translate(278.706496 542.877813)scale(0.14 -0.14)">
       <use xlink:href="#DejaVuSans-51"/>
       <use x="63.623047" xlink:href="#DejaVuSans-46"/>
       <use x="95.410156" xlink:href="#DejaVuSans-56"/>
      </g>
     </g>
    </g>
    <g id="xtick_6">
     <g id="line2d_8">
      <g>
       <use style="stroke:#000000;stroke-width:0.8;" x="347.764093" xlink:href="#mc015800079" y="525.24"/>
      </g>
     </g>
     <g id="text_8">
      <!-- 4.0 -->
      <g transform="translate(336.631906 542.877813)scale(0.14 -0.14)">
       <use xlink:href="#DejaVuSans-52"/>
       <use x="63.623047" xlink:href="#DejaVuSans-46"/>
       <use x="95.410156" xlink:href="#DejaVuSans-48"/>
      </g>
     </g>
    </g>
    <g id="xtick_7">
     <g id="line2d_9">
      <g>
       <use style="stroke:#000000;stroke-width:0.8;" x="405.689504" xlink:href="#mc015800079" y="525.24"/>
      </g>
     </g>
     <g id="text_9">
      <!-- 4.2 -->
      <g transform="translate(394.557316 542.877813)scale(0.14 -0.14)">
       <use xlink:href="#DejaVuSans-52"/>
       <use x="63.623047" xlink:href="#DejaVuSans-46"/>
       <use x="95.410156" xlink:href="#DejaVuSans-50"/>
      </g>
     </g>
    </g>
    <g id="xtick_8">
     <g id="line2d_10">
      <g>
       <use style="stroke:#000000;stroke-width:0.8;" x="463.614914" xlink:href="#mc015800079" y="525.24"/>
      </g>
     </g>
     <g id="text_10">
      <!-- 4.4 -->
      <g transform="translate(452.482726 542.877813)scale(0.14 -0.14)">
       <use xlink:href="#DejaVuSans-52"/>
       <use x="63.623047" xlink:href="#DejaVuSans-46"/>
       <use x="95.410156" xlink:href="#DejaVuSans-52"/>
      </g>
     </g>
    </g>
    <g id="xtick_9">
     <g id="line2d_11">
      <g>
       <use style="stroke:#000000;stroke-width:0.8;" x="521.540324" xlink:href="#mc015800079" y="525.24"/>
      </g>
     </g>
     <g id="text_11">
      <!-- 4.6 -->
      <g transform="translate(510.408137 542.877813)scale(0.14 -0.14)">
       <use xlink:href="#DejaVuSans-52"/>
       <use x="63.623047" xlink:href="#DejaVuSans-46"/>
       <use x="95.410156" xlink:href="#DejaVuSans-54"/>
      </g>
     </g>
    </g>
   </g>
   <g id="line2d_12">
    <path clip-path="url(#p23a2659692)" d="M 318.801388 525.24 
L 318.801388 402.93 
" style="fill:none;stroke:#ff6384;stroke-dasharray:5.55,2.4;stroke-dashoffset:0;stroke-opacity:0.8;stroke-width:1.5;"/>
   </g>
   <g id="line2d_13">
    <path clip-path="url(#p23a2659692)" d="M 269.56479 525.24 
L 269.56479 402.93 
" style="fill:none;stroke:#36a2eb;stroke-dasharray:5.55,2.4;stroke-dashoffset:0;stroke-opacity:0.8;stroke-width:1.5;"/>
   </g>
   <g id="patch_10">
    <path d="M 36 525.24 
L 538.2 525.24 
" style="fill:none;stroke:#000000;stroke-linecap:square;stroke-linejoin:miter;stroke-width:0.8;"/>
   </g>
  </g>
 </g>
 <defs>
  <clipPath id="p6cd608fa4b">
   <rect height="366.93" width="502.2" x="36" y="36"/>
  </clipPath>
  <clipPath id="p23a2659692">
   <rect height="122.31" width="502.2" x="36" y="402.93"/>
  </clipPath>
 </defs>
</svg>
