<?xml version="1.0" encoding="utf-8" standalone="no"?>
<!DOCTYPE svg PUBLIC "-//W3C//DTD SVG 1.1//EN"
  "http://www.w3.org/Graphics/SVG/1.1/DTD/svg11.dtd">
<!-- Created with matplotlib (https://matplotlib.org/) -->
<svg height="581.789375pt" version="1.1" viewBox="0 0 574.2 581.789375" width="574.2pt" xmlns="http://www.w3.org/2000/svg" xmlns:xlink="http://www.w3.org/1999/xlink">
 <defs>
  <style type="text/css">
*{stroke-linecap:butt;stroke-linejoin:round;}
  </style>
 </defs>
 <g id="figure_1">
  <g id="patch_1">
   <path d="M -0 581.789375 
L 574.2 581.789375 
L 574.2 0 
L -0 0 
z
" style="fill:none;"/>
  </g>
  <g id="axes_1">
   <g id="patch_2">
    <path d="M 36 402.93 
L 538.2 402.93 
L 538.2 36 
L 36 36 
z
" style="fill:none;"/>
   </g>
   <g id="PolyCollection_1">
    <defs>
     <path d="M 166.754427 -195.538011 
L 166.754427 -195.650004 
L 170.275824 -195.692234 
L 173.797221 -195.749007 
L 177.318618 -195.8248 
L 180.840015 -195.925281 
L 184.361412 -196.057565 
L 187.882809 -196.230497 
L 191.404206 -196.454982 
L 194.925603 -196.744335 
L 198.447 -197.114666 
L 201.968397 -197.585273 
L 205.489794 -198.179047 
L 209.011191 -198.922859 
L 212.532588 -199.847921 
L 216.053985 -200.990079 
L 219.575382 -202.390029 
L 223.096779 -204.093399 
L 226.618176 -206.150691 
L 230.139573 -208.617009 
L 233.660969 -211.551575 
L 237.182366 -215.016962 
L 240.703763 -219.078053 
L 244.22516 -223.800667 
L 247.746557 -229.249878 
L 251.267954 -235.488004 
L 254.789351 -242.572312 
L 258.310748 -250.552459 
L 261.832145 -259.467747 
L 265.353542 -269.344261 
L 268.874939 -280.192004 
L 272.396336 -292.002137 
L 275.917733 -304.744465 
L 279.43913 -318.365297 
L 282.960527 -332.785841 
L 286.481924 -347.901251 
L 290.003321 -363.580456 
L 293.524718 -379.666871 
L 297.046115 -395.980052 
L 300.567512 -412.31833 
L 304.088909 -428.4624 
L 307.610306 -444.179822 
L 311.131703 -459.230303 
L 314.6531 -473.371627 
L 318.174497 -486.366018 
L 321.695894 -497.986726 
L 325.217291 -508.02457 
L 328.738688 -516.294181 
L 332.260085 -522.639693 
L 335.781482 -526.939623 
L 339.302879 -529.110739 
L 342.824276 -529.110739 
L 346.345673 -526.939623 
L 349.86707 -522.639693 
L 353.388467 -516.294181 
L 356.909864 -508.02457 
L 360.43126 -497.986726 
L 363.952657 -486.366018 
L 367.474054 -473.371627 
L 370.995451 -459.230303 
L 374.516848 -444.179822 
L 378.038245 -428.4624 
L 381.559642 -412.31833 
L 385.081039 -395.980052 
L 388.602436 -379.666871 
L 392.123833 -363.580456 
L 395.64523 -347.901251 
L 399.166627 -332.785841 
L 402.688024 -318.365297 
L 406.209421 -304.744465 
L 409.730818 -292.002137 
L 413.252215 -280.192004 
L 416.773612 -269.344261 
L 420.295009 -259.467747 
L 423.816406 -250.552459 
L 427.337803 -242.572312 
L 430.8592 -235.488004 
L 434.380597 -229.249878 
L 437.901994 -223.800667 
L 441.423391 -219.078053 
L 444.944788 -215.016962 
L 448.466185 -211.551575 
L 451.987582 -208.617009 
L 455.508979 -206.150691 
L 459.030376 -204.093399 
L 462.551773 -202.390029 
L 466.07317 -200.990079 
L 469.594567 -199.847921 
L 473.115964 -198.922859 
L 476.637361 -198.179047 
L 480.158758 -197.585273 
L 483.680155 -197.114666 
L 487.201551 -196.744335 
L 490.722948 -196.454982 
L 494.244345 -196.230497 
L 497.765742 -196.057565 
L 501.287139 -195.925281 
L 504.808536 -195.8248 
L 508.329933 -195.749007 
L 511.85133 -195.692234 
L 515.372727 -195.650004 
L 515.372727 -195.538011 
L 515.372727 -195.538011 
L 511.85133 -195.538011 
L 508.329933 -195.538011 
L 504.808536 -195.538011 
L 501.287139 -195.538011 
L 497.765742 -195.538011 
L 494.244345 -195.538011 
L 490.722948 -195.538011 
L 487.201551 -195.538011 
L 483.680155 -195.538011 
L 480.158758 -195.538011 
L 476.637361 -195.538011 
L 473.115964 -195.538011 
L 469.594567 -195.538011 
L 466.07317 -195.538011 
L 462.551773 -195.538011 
L 459.030376 -195.538011 
L 455.508979 -195.538011 
L 451.987582 -195.538011 
L 448.466185 -195.538011 
L 444.944788 -195.538011 
L 441.423391 -195.538011 
L 437.901994 -195.538011 
L 434.380597 -195.538011 
L 430.8592 -195.538011 
L 427.337803 -195.538011 
L 423.816406 -195.538011 
L 420.295009 -195.538011 
L 416.773612 -195.538011 
L 413.252215 -195.538011 
L 409.730818 -195.538011 
L 406.209421 -195.538011 
L 402.688024 -195.538011 
L 399.166627 -195.538011 
L 395.64523 -195.538011 
L 392.123833 -195.538011 
L 388.602436 -195.538011 
L 385.081039 -195.538011 
L 381.559642 -195.538011 
L 378.038245 -195.538011 
L 374.516848 -195.538011 
L 370.995451 -195.538011 
L 367.474054 -195.538011 
L 363.952657 -195.538011 
L 360.43126 -195.538011 
L 356.909864 -195.538011 
L 353.388467 -195.538011 
L 349.86707 -195.538011 
L 346.345673 -195.538011 
L 342.824276 -195.538011 
L 339.302879 -195.538011 
L 335.781482 -195.538011 
L 332.260085 -195.538011 
L 328.738688 -195.538011 
L 325.217291 -195.538011 
L 321.695894 -195.538011 
L 318.174497 -195.538011 
L 314.6531 -195.538011 
L 311.131703 -195.538011 
L 307.610306 -195.538011 
L 304.088909 -195.538011 
L 300.567512 -195.538011 
L 297.046115 -195.538011 
L 293.524718 -195.538011 
L 290.003321 -195.538011 
L 286.481924 -195.538011 
L 282.960527 -195.538011 
L 279.43913 -195.538011 
L 275.917733 -195.538011 
L 272.396336 -195.538011 
L 268.874939 -195.538011 
L 265.353542 -195.538011 
L 261.832145 -195.538011 
L 258.310748 -195.538011 
L 254.789351 -195.538011 
L 251.267954 -195.538011 
L 247.746557 -195.538011 
L 244.22516 -195.538011 
L 240.703763 -195.538011 
L 237.182366 -195.538011 
L 233.660969 -195.538011 
L 230.139573 -195.538011 
L 226.618176 -195.538011 
L 223.096779 -195.538011 
L 219.575382 -195.538011 
L 216.053985 -195.538011 
L 212.532588 -195.538011 
L 209.011191 -195.538011 
L 205.489794 -195.538011 
L 201.968397 -195.538011 
L 198.447 -195.538011 
L 194.925603 -195.538011 
L 191.404206 -195.538011 
L 187.882809 -195.538011 
L 184.361412 -195.538011 
L 180.840015 -195.538011 
L 177.318618 -195.538011 
L 173.797221 -195.538011 
L 170.275824 -195.538011 
L 166.754427 -195.538011 
z
" id="m3e4ad125f1" style="stroke:#ff6384;stroke-opacity:0.5;"/>
    </defs>
    <g clip-path="url(#p6aacd91a19)">
     <use style="fill:#ff6384;fill-opacity:0.5;stroke:#ff6384;stroke-opacity:0.5;" x="0" xlink:href="#m3e4ad125f1" y="581.789375"/>
    </g>
   </g>
   <g id="PolyCollection_2">
    <defs>
     <path d="M 58.827273 -195.538011 
L 58.827273 -195.634399 
L 62.918766 -195.670745 
L 67.01026 -195.719607 
L 71.101753 -195.78484 
L 75.193247 -195.87132 
L 79.28474 -195.985172 
L 83.376234 -196.134008 
L 87.467728 -196.327214 
L 91.559221 -196.57625 
L 95.650715 -196.89498 
L 99.742208 -197.300014 
L 103.833702 -197.811053 
L 107.925195 -198.451224 
L 112.016689 -199.247391 
L 116.108182 -200.230404 
L 120.199676 -201.435289 
L 124.29117 -202.901317 
L 128.382663 -204.671952 
L 132.474157 -206.794621 
L 136.56565 -209.320292 
L 140.657144 -212.302823 
L 144.748637 -215.798053 
L 148.840131 -219.862633 
L 152.931624 -224.552566 
L 157.023118 -229.921491 
L 161.114611 -236.018692 
L 165.206105 -242.886909 
L 169.297599 -250.559967 
L 173.389092 -259.060317 
L 177.480586 -268.396567 
L 181.572079 -278.561112 
L 185.663573 -289.527962 
L 189.755066 -301.250907 
L 193.84656 -313.662136 
L 197.938053 -326.671409 
L 202.029547 -340.16592 
L 206.12104 -354.010902 
L 210.212534 -368.051053 
L 214.304028 -382.112803 
L 218.395521 -396.007406 
L 222.487015 -409.534809 
L 226.578508 -422.488201 
L 230.670002 -434.659115 
L 234.761495 -445.842906 
L 238.852989 -455.844419 
L 242.944482 -464.483619 
L 247.035976 -471.600968 
L 251.12747 -477.062315 
L 255.218963 -480.763105 
L 259.310457 -482.631704 
L 263.40195 -482.631704 
L 267.493444 -480.763105 
L 271.584937 -477.062315 
L 275.676431 -471.600968 
L 279.767924 -464.483619 
L 283.859418 -455.844419 
L 287.950911 -445.842906 
L 292.042405 -434.659115 
L 296.133899 -422.488201 
L 300.225392 -409.534809 
L 304.316886 -396.007406 
L 308.408379 -382.112803 
L 312.499873 -368.051053 
L 316.591366 -354.010902 
L 320.68286 -340.16592 
L 324.774353 -326.671409 
L 328.865847 -313.662136 
L 332.95734 -301.250907 
L 337.048834 -289.527962 
L 341.140328 -278.561112 
L 345.231821 -268.396567 
L 349.323315 -259.060317 
L 353.414808 -250.559967 
L 357.506302 -242.886909 
L 361.597795 -236.018692 
L 365.689289 -229.921491 
L 369.780782 -224.552566 
L 373.872276 -219.862633 
L 377.96377 -215.798053 
L 382.055263 -212.302823 
L 386.146757 -209.320292 
L 390.23825 -206.794621 
L 394.329744 -204.671952 
L 398.421237 -202.901317 
L 402.512731 -201.435289 
L 406.604224 -200.230404 
L 410.695718 -199.247391 
L 414.787211 -198.451224 
L 418.878705 -197.811053 
L 422.970199 -197.300014 
L 427.061692 -196.89498 
L 431.153186 -196.57625 
L 435.244679 -196.327214 
L 439.336173 -196.134008 
L 443.427666 -195.985172 
L 447.51916 -195.87132 
L 451.610653 -195.78484 
L 455.702147 -195.719607 
L 459.793641 -195.670745 
L 463.885134 -195.634399 
L 463.885134 -195.538011 
L 463.885134 -195.538011 
L 459.793641 -195.538011 
L 455.702147 -195.538011 
L 451.610653 -195.538011 
L 447.51916 -195.538011 
L 443.427666 -195.538011 
L 439.336173 -195.538011 
L 435.244679 -195.538011 
L 431.153186 -195.538011 
L 427.061692 -195.538011 
L 422.970199 -195.538011 
L 418.878705 -195.538011 
L 414.787211 -195.538011 
L 410.695718 -195.538011 
L 406.604224 -195.538011 
L 402.512731 -195.538011 
L 398.421237 -195.538011 
L 394.329744 -195.538011 
L 390.23825 -195.538011 
L 386.146757 -195.538011 
L 382.055263 -195.538011 
L 377.96377 -195.538011 
L 373.872276 -195.538011 
L 369.780782 -195.538011 
L 365.689289 -195.538011 
L 361.597795 -195.538011 
L 357.506302 -195.538011 
L 353.414808 -195.538011 
L 349.323315 -195.538011 
L 345.231821 -195.538011 
L 341.140328 -195.538011 
L 337.048834 -195.538011 
L 332.95734 -195.538011 
L 328.865847 -195.538011 
L 324.774353 -195.538011 
L 320.68286 -195.538011 
L 316.591366 -195.538011 
L 312.499873 -195.538011 
L 308.408379 -195.538011 
L 304.316886 -195.538011 
L 300.225392 -195.538011 
L 296.133899 -195.538011 
L 292.042405 -195.538011 
L 287.950911 -195.538011 
L 283.859418 -195.538011 
L 279.767924 -195.538011 
L 275.676431 -195.538011 
L 271.584937 -195.538011 
L 267.493444 -195.538011 
L 263.40195 -195.538011 
L 259.310457 -195.538011 
L 255.218963 -195.538011 
L 251.12747 -195.538011 
L 247.035976 -195.538011 
L 242.944482 -195.538011 
L 238.852989 -195.538011 
L 234.761495 -195.538011 
L 230.670002 -195.538011 
L 226.578508 -195.538011 
L 222.487015 -195.538011 
L 218.395521 -195.538011 
L 214.304028 -195.538011 
L 210.212534 -195.538011 
L 206.12104 -195.538011 
L 202.029547 -195.538011 
L 197.938053 -195.538011 
L 193.84656 -195.538011 
L 189.755066 -195.538011 
L 185.663573 -195.538011 
L 181.572079 -195.538011 
L 177.480586 -195.538011 
L 173.389092 -195.538011 
L 169.297599 -195.538011 
L 165.206105 -195.538011 
L 161.114611 -195.538011 
L 157.023118 -195.538011 
L 152.931624 -195.538011 
L 148.840131 -195.538011 
L 144.748637 -195.538011 
L 140.657144 -195.538011 
L 136.56565 -195.538011 
L 132.474157 -195.538011 
L 128.382663 -195.538011 
L 124.29117 -195.538011 
L 120.199676 -195.538011 
L 116.108182 -195.538011 
L 112.016689 -195.538011 
L 107.925195 -195.538011 
L 103.833702 -195.538011 
L 99.742208 -195.538011 
L 95.650715 -195.538011 
L 91.559221 -195.538011 
L 87.467728 -195.538011 
L 83.376234 -195.538011 
L 79.28474 -195.538011 
L 75.193247 -195.538011 
L 71.101753 -195.538011 
L 67.01026 -195.538011 
L 62.918766 -195.538011 
L 58.827273 -195.538011 
z
" id="md7d6c30b27" style="stroke:#36a2eb;stroke-opacity:0.5;"/>
    </defs>
    <g clip-path="url(#p6aacd91a19)">
     <use style="fill:#36a2eb;fill-opacity:0.5;stroke:#36a2eb;stroke-opacity:0.5;" x="0" xlink:href="#md7d6c30b27" y="581.789375"/>
    </g>
   </g>
   <g id="line2d_1">
    <path clip-path="url(#p6aacd91a19)" d="M 166.754427 386.139371 
L 170.275824 386.097141 
L 173.797221 386.040368 
L 177.318618 385.964575 
L 180.840015 385.864094 
L 184.361412 385.73181 
L 187.882809 385.558878 
L 191.404206 385.334393 
L 194.925603 385.04504 
L 198.447 384.674709 
L 201.968397 384.204102 
L 205.489794 383.610328 
L 209.011191 382.866516 
L 212.532588 381.941454 
L 216.053985 380.799296 
L 219.575382 379.399346 
L 223.096779 377.695976 
L 226.618176 375.638684 
L 230.139573 373.172366 
L 233.660969 370.2378 
L 237.182366 366.772413 
L 240.703763 362.711322 
L 244.22516 357.988708 
L 247.746557 352.539497 
L 251.267954 346.301371 
L 254.789351 339.217063 
L 258.310748 331.236916 
L 261.832145 322.321628 
L 265.353542 312.445114 
L 268.874939 301.597371 
L 272.396336 289.787238 
L 275.917733 277.04491 
L 279.43913 263.424078 
L 282.960527 249.003534 
L 286.481924 233.888124 
L 290.003321 218.208919 
L 293.524718 202.122504 
L 297.046115 185.809323 
L 300.567512 169.471045 
L 304.088909 153.326975 
L 307.610306 137.609553 
L 311.131703 122.559072 
L 314.6531 108.417748 
L 318.174497 95.423357 
L 321.695894 83.802649 
L 325.217291 73.764805 
L 328.738688 65.495194 
L 332.260085 59.149682 
L 335.781482 54.849752 
L 339.302879 52.678636 
L 342.824276 52.678636 
L 346.345673 54.849752 
L 349.86707 59.149682 
L 353.388467 65.495194 
L 356.909864 73.764805 
L 360.43126 83.802649 
L 363.952657 95.423357 
L 367.474054 108.417748 
L 370.995451 122.559072 
L 374.516848 137.609553 
L 378.038245 153.326975 
L 381.559642 169.471045 
L 385.081039 185.809323 
L 388.602436 202.122504 
L 392.123833 218.208919 
L 395.64523 233.888124 
L 399.166627 249.003534 
L 402.688024 263.424078 
L 406.209421 277.04491 
L 409.730818 289.787238 
L 413.252215 301.597371 
L 416.773612 312.445114 
L 420.295009 322.321628 
L 423.816406 331.236916 
L 427.337803 339.217063 
L 430.8592 346.301371 
L 434.380597 352.539497 
L 437.901994 357.988708 
L 441.423391 362.711322 
L 444.944788 366.772413 
L 448.466185 370.2378 
L 451.987582 373.172366 
L 455.508979 375.638684 
L 459.030376 377.695976 
L 462.551773 379.399346 
L 466.07317 380.799296 
L 469.594567 381.941454 
L 473.115964 382.866516 
L 476.637361 383.610328 
L 480.158758 384.204102 
L 483.680155 384.674709 
L 487.201551 385.04504 
L 490.722948 385.334393 
L 494.244345 385.558878 
L 497.765742 385.73181 
L 501.287139 385.864094 
L 504.808536 385.964575 
L 508.329933 386.040368 
L 511.85133 386.097141 
L 515.372727 386.139371 
" style="fill:none;stroke:#ff6384;stroke-linecap:square;"/>
   </g>
   <g id="line2d_2">
    <path clip-path="url(#p6aacd91a19)" d="M 58.827273 386.154976 
L 62.918766 386.11863 
L 67.01026 386.069768 
L 71.101753 386.004535 
L 75.193247 385.918055 
L 79.28474 385.804203 
L 83.376234 385.655367 
L 87.467728 385.462161 
L 91.559221 385.213125 
L 95.650715 384.894395 
L 99.742208 384.489361 
L 103.833702 383.978322 
L 107.925195 383.338151 
L 112.016689 382.541984 
L 116.108182 381.558971 
L 120.199676 380.354086 
L 124.29117 378.888058 
L 128.382663 377.117423 
L 132.474157 374.994754 
L 136.56565 372.469083 
L 140.657144 369.486552 
L 144.748637 365.991322 
L 148.840131 361.926742 
L 152.931624 357.236809 
L 157.023118 351.867884 
L 161.114611 345.770683 
L 165.206105 338.902466 
L 169.297599 331.229408 
L 173.389092 322.729058 
L 177.480586 313.392808 
L 181.572079 303.228263 
L 185.663573 292.261413 
L 189.755066 280.538468 
L 193.84656 268.127239 
L 197.938053 255.117966 
L 202.029547 241.623455 
L 206.12104 227.778473 
L 210.212534 213.738322 
L 214.304028 199.676572 
L 218.395521 185.781969 
L 222.487015 172.254566 
L 226.578508 159.301174 
L 230.670002 147.13026 
L 234.761495 135.946469 
L 238.852989 125.944956 
L 242.944482 117.305756 
L 247.035976 110.188407 
L 251.12747 104.72706 
L 255.218963 101.02627 
L 259.310457 99.157671 
L 263.40195 99.157671 
L 267.493444 101.02627 
L 271.584937 104.72706 
L 275.676431 110.188407 
L 279.767924 117.305756 
L 283.859418 125.944956 
L 287.950911 135.946469 
L 292.042405 147.13026 
L 296.133899 159.301174 
L 300.225392 172.254566 
L 304.316886 185.781969 
L 308.408379 199.676572 
L 312.499873 213.738322 
L 316.591366 227.778473 
L 320.68286 241.623455 
L 324.774353 255.117966 
L 328.865847 268.127239 
L 332.95734 280.538468 
L 337.048834 292.261413 
L 341.140328 303.228263 
L 345.231821 313.392808 
L 349.323315 322.729058 
L 353.414808 331.229408 
L 357.506302 338.902466 
L 361.597795 345.770683 
L 365.689289 351.867884 
L 369.780782 357.236809 
L 373.872276 361.926742 
L 377.96377 365.991322 
L 382.055263 369.486552 
L 386.146757 372.469083 
L 390.23825 374.994754 
L 394.329744 377.117423 
L 398.421237 378.888058 
L 402.512731 380.354086 
L 406.604224 381.558971 
L 410.695718 382.541984 
L 414.787211 383.338151 
L 418.878705 383.978322 
L 422.970199 384.489361 
L 427.061692 384.894395 
L 431.153186 385.213125 
L 435.244679 385.462161 
L 439.336173 385.655367 
L 443.427666 385.804203 
L 447.51916 385.918055 
L 451.610653 386.004535 
L 455.702147 386.069768 
L 459.793641 386.11863 
L 463.885134 386.154976 
" style="fill:none;stroke:#36a2eb;stroke-linecap:square;"/>
   </g>
   <g id="patch_3">
    <path d="M 36 402.93 
L 538.2 402.93 
" style="fill:none;stroke:#000000;stroke-linecap:square;stroke-linejoin:miter;stroke-width:0.8;"/>
   </g>
   <g id="legend_1">
    <g id="patch_4">
     <path d="M 414.919063 88.29875 
L 528.4 88.29875 
Q 531.2 88.29875 531.2 85.49875 
L 531.2 45.8 
Q 531.2 43 528.4 43 
L 414.919063 43 
Q 412.119063 43 412.119063 45.8 
L 412.119063 85.49875 
Q 412.119063 88.29875 414.919063 88.29875 
z
" style="fill:#ffffff;opacity:0.8;stroke:#cccccc;stroke-linejoin:miter;"/>
    </g>
    <g id="patch_5">
     <path d="M 417.719063 59.237813 
L 445.719063 59.237813 
L 445.719063 49.437813 
L 417.719063 49.437813 
z
" style="fill:#ff6384;opacity:0.5;stroke:#ff6384;stroke-linejoin:miter;"/>
    </g>
    <g id="text_1">
     <!-- sidemenu -->
     <defs>
      <path d="M 44.28125 53.078125 
L 44.28125 44.578125 
Q 40.484375 46.53125 36.375 47.5 
Q 32.28125 48.484375 27.875 48.484375 
Q 21.1875 48.484375 17.84375 46.4375 
Q 14.5 44.390625 14.5 40.28125 
Q 14.5 37.15625 16.890625 35.375 
Q 19.28125 33.59375 26.515625 31.984375 
L 29.59375 31.296875 
Q 39.15625 29.25 43.1875 25.515625 
Q 47.21875 21.78125 47.21875 15.09375 
Q 47.21875 7.46875 41.1875 3.015625 
Q 35.15625 -1.421875 24.609375 -1.421875 
Q 20.21875 -1.421875 15.453125 -0.5625 
Q 10.6875 0.296875 5.421875 2 
L 5.421875 11.28125 
Q 10.40625 8.6875 15.234375 7.390625 
Q 20.0625 6.109375 24.8125 6.109375 
Q 31.15625 6.109375 34.5625 8.28125 
Q 37.984375 10.453125 37.984375 14.40625 
Q 37.984375 18.0625 35.515625 20.015625 
Q 33.0625 21.96875 24.703125 23.78125 
L 21.578125 24.515625 
Q 13.234375 26.265625 9.515625 29.90625 
Q 5.8125 33.546875 5.8125 39.890625 
Q 5.8125 47.609375 11.28125 51.796875 
Q 16.75 56 26.8125 56 
Q 31.78125 56 36.171875 55.265625 
Q 40.578125 54.546875 44.28125 53.078125 
z
" id="DejaVuSans-115"/>
      <path d="M 9.421875 54.6875 
L 18.40625 54.6875 
L 18.40625 0 
L 9.421875 0 
z
M 9.421875 75.984375 
L 18.40625 75.984375 
L 18.40625 64.59375 
L 9.421875 64.59375 
z
" id="DejaVuSans-105"/>
      <path d="M 45.40625 46.390625 
L 45.40625 75.984375 
L 54.390625 75.984375 
L 54.390625 0 
L 45.40625 0 
L 45.40625 8.203125 
Q 42.578125 3.328125 38.25 0.953125 
Q 33.9375 -1.421875 27.875 -1.421875 
Q 17.96875 -1.421875 11.734375 6.484375 
Q 5.515625 14.40625 5.515625 27.296875 
Q 5.515625 40.1875 11.734375 48.09375 
Q 17.96875 56 27.875 56 
Q 33.9375 56 38.25 53.625 
Q 42.578125 51.265625 45.40625 46.390625 
z
M 14.796875 27.296875 
Q 14.796875 17.390625 18.875 11.75 
Q 22.953125 6.109375 30.078125 6.109375 
Q 37.203125 6.109375 41.296875 11.75 
Q 45.40625 17.390625 45.40625 27.296875 
Q 45.40625 37.203125 41.296875 42.84375 
Q 37.203125 48.484375 30.078125 48.484375 
Q 22.953125 48.484375 18.875 42.84375 
Q 14.796875 37.203125 14.796875 27.296875 
z
" id="DejaVuSans-100"/>
      <path d="M 56.203125 29.59375 
L 56.203125 25.203125 
L 14.890625 25.203125 
Q 15.484375 15.921875 20.484375 11.0625 
Q 25.484375 6.203125 34.421875 6.203125 
Q 39.59375 6.203125 44.453125 7.46875 
Q 49.3125 8.734375 54.109375 11.28125 
L 54.109375 2.78125 
Q 49.265625 0.734375 44.1875 -0.34375 
Q 39.109375 -1.421875 33.890625 -1.421875 
Q 20.796875 -1.421875 13.15625 6.1875 
Q 5.515625 13.8125 5.515625 26.8125 
Q 5.515625 40.234375 12.765625 48.109375 
Q 20.015625 56 32.328125 56 
Q 43.359375 56 49.78125 48.890625 
Q 56.203125 41.796875 56.203125 29.59375 
z
M 47.21875 32.234375 
Q 47.125 39.59375 43.09375 43.984375 
Q 39.0625 48.390625 32.421875 48.390625 
Q 24.90625 48.390625 20.390625 44.140625 
Q 15.875 39.890625 15.1875 32.171875 
z
" id="DejaVuSans-101"/>
      <path d="M 52 44.1875 
Q 55.375 50.25 60.0625 53.125 
Q 64.75 56 71.09375 56 
Q 79.640625 56 84.28125 50.015625 
Q 88.921875 44.046875 88.921875 33.015625 
L 88.921875 0 
L 79.890625 0 
L 79.890625 32.71875 
Q 79.890625 40.578125 77.09375 44.375 
Q 74.3125 48.1875 68.609375 48.1875 
Q 61.625 48.1875 57.5625 43.546875 
Q 53.515625 38.921875 53.515625 30.90625 
L 53.515625 0 
L 44.484375 0 
L 44.484375 32.71875 
Q 44.484375 40.625 41.703125 44.40625 
Q 38.921875 48.1875 33.109375 48.1875 
Q 26.21875 48.1875 22.15625 43.53125 
Q 18.109375 38.875 18.109375 30.90625 
L 18.109375 0 
L 9.078125 0 
L 9.078125 54.6875 
L 18.109375 54.6875 
L 18.109375 46.1875 
Q 21.1875 51.21875 25.484375 53.609375 
Q 29.78125 56 35.6875 56 
Q 41.65625 56 45.828125 52.96875 
Q 50 49.953125 52 44.1875 
z
" id="DejaVuSans-109"/>
      <path d="M 54.890625 33.015625 
L 54.890625 0 
L 45.90625 0 
L 45.90625 32.71875 
Q 45.90625 40.484375 42.875 44.328125 
Q 39.84375 48.1875 33.796875 48.1875 
Q 26.515625 48.1875 22.3125 43.546875 
Q 18.109375 38.921875 18.109375 30.90625 
L 18.109375 0 
L 9.078125 0 
L 9.078125 54.6875 
L 18.109375 54.6875 
L 18.109375 46.1875 
Q 21.34375 51.125 25.703125 53.5625 
Q 30.078125 56 35.796875 56 
Q 45.21875 56 50.046875 50.171875 
Q 54.890625 44.34375 54.890625 33.015625 
z
" id="DejaVuSans-110"/>
      <path d="M 8.5 21.578125 
L 8.5 54.6875 
L 17.484375 54.6875 
L 17.484375 21.921875 
Q 17.484375 14.15625 20.5 10.265625 
Q 23.53125 6.390625 29.59375 6.390625 
Q 36.859375 6.390625 41.078125 11.03125 
Q 45.3125 15.671875 45.3125 23.6875 
L 45.3125 54.6875 
L 54.296875 54.6875 
L 54.296875 0 
L 45.3125 0 
L 45.3125 8.40625 
Q 42.046875 3.421875 37.71875 1 
Q 33.40625 -1.421875 27.6875 -1.421875 
Q 18.265625 -1.421875 13.375 4.4375 
Q 8.5 10.296875 8.5 21.578125 
z
M 31.109375 56 
z
" id="DejaVuSans-117"/>
     </defs>
     <g transform="translate(456.919063 59.237813)scale(0.14 -0.14)">
      <use xlink:href="#DejaVuSans-115"/>
      <use x="52.099609" xlink:href="#DejaVuSans-105"/>
      <use x="79.882812" xlink:href="#DejaVuSans-100"/>
      <use x="143.359375" xlink:href="#DejaVuSans-101"/>
      <use x="204.882812" xlink:href="#DejaVuSans-109"/>
      <use x="302.294922" xlink:href="#DejaVuSans-101"/>
      <use x="363.818359" xlink:href="#DejaVuSans-110"/>
      <use x="427.197266" xlink:href="#DejaVuSans-117"/>
     </g>
    </g>
    <g id="patch_6">
     <path d="M 417.719063 79.787188 
L 445.719063 79.787188 
L 445.719063 69.987188 
L 417.719063 69.987188 
z
" style="fill:#36a2eb;opacity:0.5;stroke:#36a2eb;stroke-linejoin:miter;"/>
    </g>
    <g id="text_2">
     <!-- tabbar -->
     <defs>
      <path d="M 18.3125 70.21875 
L 18.3125 54.6875 
L 36.8125 54.6875 
L 36.8125 47.703125 
L 18.3125 47.703125 
L 18.3125 18.015625 
Q 18.3125 11.328125 20.140625 9.421875 
Q 21.96875 7.515625 27.59375 7.515625 
L 36.8125 7.515625 
L 36.8125 0 
L 27.59375 0 
Q 17.1875 0 13.234375 3.875 
Q 9.28125 7.765625 9.28125 18.015625 
L 9.28125 47.703125 
L 2.6875 47.703125 
L 2.6875 54.6875 
L 9.28125 54.6875 
L 9.28125 70.21875 
z
" id="DejaVuSans-116"/>
      <path d="M 34.28125 27.484375 
Q 23.390625 27.484375 19.1875 25 
Q 14.984375 22.515625 14.984375 16.5 
Q 14.984375 11.71875 18.140625 8.90625 
Q 21.296875 6.109375 26.703125 6.109375 
Q 34.1875 6.109375 38.703125 11.40625 
Q 43.21875 16.703125 43.21875 25.484375 
L 43.21875 27.484375 
z
M 52.203125 31.203125 
L 52.203125 0 
L 43.21875 0 
L 43.21875 8.296875 
Q 40.140625 3.328125 35.546875 0.953125 
Q 30.953125 -1.421875 24.3125 -1.421875 
Q 15.921875 -1.421875 10.953125 3.296875 
Q 6 8.015625 6 15.921875 
Q 6 25.140625 12.171875 29.828125 
Q 18.359375 34.515625 30.609375 34.515625 
L 43.21875 34.515625 
L 43.21875 35.40625 
Q 43.21875 41.609375 39.140625 45 
Q 35.0625 48.390625 27.6875 48.390625 
Q 23 48.390625 18.546875 47.265625 
Q 14.109375 46.140625 10.015625 43.890625 
L 10.015625 52.203125 
Q 14.9375 54.109375 19.578125 55.046875 
Q 24.21875 56 28.609375 56 
Q 40.484375 56 46.34375 49.84375 
Q 52.203125 43.703125 52.203125 31.203125 
z
" id="DejaVuSans-97"/>
      <path d="M 48.6875 27.296875 
Q 48.6875 37.203125 44.609375 42.84375 
Q 40.53125 48.484375 33.40625 48.484375 
Q 26.265625 48.484375 22.1875 42.84375 
Q 18.109375 37.203125 18.109375 27.296875 
Q 18.109375 17.390625 22.1875 11.75 
Q 26.265625 6.109375 33.40625 6.109375 
Q 40.53125 6.109375 44.609375 11.75 
Q 48.6875 17.390625 48.6875 27.296875 
z
M 18.109375 46.390625 
Q 20.953125 51.265625 25.265625 53.625 
Q 29.59375 56 35.59375 56 
Q 45.5625 56 51.78125 48.09375 
Q 58.015625 40.1875 58.015625 27.296875 
Q 58.015625 14.40625 51.78125 6.484375 
Q 45.5625 -1.421875 35.59375 -1.421875 
Q 29.59375 -1.421875 25.265625 0.953125 
Q 20.953125 3.328125 18.109375 8.203125 
L 18.109375 0 
L 9.078125 0 
L 9.078125 75.984375 
L 18.109375 75.984375 
z
" id="DejaVuSans-98"/>
      <path d="M 41.109375 46.296875 
Q 39.59375 47.171875 37.8125 47.578125 
Q 36.03125 48 33.890625 48 
Q 26.265625 48 22.1875 43.046875 
Q 18.109375 38.09375 18.109375 28.8125 
L 18.109375 0 
L 9.078125 0 
L 9.078125 54.6875 
L 18.109375 54.6875 
L 18.109375 46.1875 
Q 20.953125 51.171875 25.484375 53.578125 
Q 30.03125 56 36.53125 56 
Q 37.453125 56 38.578125 55.875 
Q 39.703125 55.765625 41.0625 55.515625 
z
" id="DejaVuSans-114"/>
     </defs>
     <g transform="translate(456.919063 79.787188)scale(0.14 -0.14)">
      <use xlink:href="#DejaVuSans-116"/>
      <use x="39.208984" xlink:href="#DejaVuSans-97"/>
      <use x="100.488281" xlink:href="#DejaVuSans-98"/>
      <use x="163.964844" xlink:href="#DejaVuSans-98"/>
      <use x="227.441406" xlink:href="#DejaVuSans-97"/>
      <use x="288.720703" xlink:href="#DejaVuSans-114"/>
     </g>
    </g>
   </g>
  </g>
  <g id="axes_2">
   <g id="patch_7">
    <path d="M 36 525.24 
L 538.2 525.24 
L 538.2 402.93 
L 36 402.93 
z
" style="fill:none;"/>
   </g>
   <g id="patch_8">
    <path clip-path="url(#p4b102a2666)" d="M 255.652094 519.680455 
L 426.475061 519.680455 
L 426.475061 482.616818 
L 255.652094 482.616818 
z
" style="fill:#ff6384;opacity:0.5;"/>
   </g>
   <g id="patch_9">
    <path clip-path="url(#p4b102a2666)" d="M 162.117027 445.553182 
L 360.595379 445.553182 
L 360.595379 408.489545 
L 162.117027 408.489545 
z
" style="fill:#36a2eb;opacity:0.5;"/>
   </g>
   <g id="matplotlib.axis_1">
    <g id="xtick_1">
     <g id="line2d_3">
      <defs>
       <path d="M 0 0 
L 0 3.5 
" id="m237f555a17" style="stroke:#000000;stroke-width:0.8;"/>
      </defs>
      <g>
       <use style="stroke:#000000;stroke-width:0.8;" x="112.367726" xlink:href="#m237f555a17" y="525.24"/>
      </g>
     </g>
     <g id="text_3">
      <!-- 3.4 -->
      <defs>
       <path d="M 40.578125 39.3125 
Q 47.65625 37.796875 51.625 33 
Q 55.609375 28.21875 55.609375 21.1875 
Q 55.609375 10.40625 48.1875 4.484375 
Q 40.765625 -1.421875 27.09375 -1.421875 
Q 22.515625 -1.421875 17.65625 -0.515625 
Q 12.796875 0.390625 7.625 2.203125 
L 7.625 11.71875 
Q 11.71875 9.328125 16.59375 8.109375 
Q 21.484375 6.890625 26.8125 6.890625 
Q 36.078125 6.890625 40.9375 10.546875 
Q 45.796875 14.203125 45.796875 21.1875 
Q 45.796875 27.640625 41.28125 31.265625 
Q 36.765625 34.90625 28.71875 34.90625 
L 20.21875 34.90625 
L 20.21875 43.015625 
L 29.109375 43.015625 
Q 36.375 43.015625 40.234375 45.921875 
Q 44.09375 48.828125 44.09375 54.296875 
Q 44.09375 59.90625 40.109375 62.90625 
Q 36.140625 65.921875 28.71875 65.921875 
Q 24.65625 65.921875 20.015625 65.03125 
Q 15.375 64.15625 9.8125 62.3125 
L 9.8125 71.09375 
Q 15.4375 72.65625 20.34375 73.4375 
Q 25.25 74.21875 29.59375 74.21875 
Q 40.828125 74.21875 47.359375 69.109375 
Q 53.90625 64.015625 53.90625 55.328125 
Q 53.90625 49.265625 50.4375 45.09375 
Q 46.96875 40.921875 40.578125 39.3125 
z
" id="DejaVuSans-51"/>
       <path d="M 10.6875 12.40625 
L 21 12.40625 
L 21 0 
L 10.6875 0 
z
" id="DejaVuSans-46"/>
       <path d="M 37.796875 64.3125 
L 12.890625 25.390625 
L 37.796875 25.390625 
z
M 35.203125 72.90625 
L 47.609375 72.90625 
L 47.609375 25.390625 
L 58.015625 25.390625 
L 58.015625 17.1875 
L 47.609375 17.1875 
L 47.609375 0 
L 37.796875 0 
L 37.796875 17.1875 
L 4.890625 17.1875 
L 4.890625 26.703125 
z
" id="DejaVuSans-52"/>
      </defs>
      <g transform="translate(101.235539 542.877813)scale(0.14 -0.14)">
       <use xlink:href="#DejaVuSans-51"/>
       <use x="63.623047" xlink:href="#DejaVuSans-46"/>
       <use x="95.410156" xlink:href="#DejaVuSans-52"/>
      </g>
     </g>
    </g>
    <g id="xtick_2">
     <g id="line2d_4">
      <g>
       <use style="stroke:#000000;stroke-width:0.8;" x="209.809503" xlink:href="#m237f555a17" y="525.24"/>
      </g>
     </g>
     <g id="text_4">
      <!-- 3.5 -->
      <defs>
       <path d="M 10.796875 72.90625 
L 49.515625 72.90625 
L 49.515625 64.59375 
L 19.828125 64.59375 
L 19.828125 46.734375 
Q 21.96875 47.46875 24.109375 47.828125 
Q 26.265625 48.1875 28.421875 48.1875 
Q 40.625 48.1875 47.75 41.5 
Q 54.890625 34.8125 54.890625 23.390625 
Q 54.890625 11.625 47.5625 5.09375 
Q 40.234375 -1.421875 26.90625 -1.421875 
Q 22.3125 -1.421875 17.546875 -0.640625 
Q 12.796875 0.140625 7.71875 1.703125 
L 7.71875 11.625 
Q 12.109375 9.234375 16.796875 8.0625 
Q 21.484375 6.890625 26.703125 6.890625 
Q 35.15625 6.890625 40.078125 11.328125 
Q 45.015625 15.765625 45.015625 23.390625 
Q 45.015625 31 40.078125 35.4375 
Q 35.15625 39.890625 26.703125 39.890625 
Q 22.75 39.890625 18.8125 39.015625 
Q 14.890625 38.140625 10.796875 36.28125 
z
" id="DejaVuSans-53"/>
      </defs>
      <g transform="translate(198.677316 542.877813)scale(0.14 -0.14)">
       <use xlink:href="#DejaVuSans-51"/>
       <use x="63.623047" xlink:href="#DejaVuSans-46"/>
       <use x="95.410156" xlink:href="#DejaVuSans-53"/>
      </g>
     </g>
    </g>
    <g id="xtick_3">
     <g id="line2d_5">
      <g>
       <use style="stroke:#000000;stroke-width:0.8;" x="307.25128" xlink:href="#m237f555a17" y="525.24"/>
      </g>
     </g>
     <g id="text_5">
      <!-- 3.6 -->
      <defs>
       <path d="M 33.015625 40.375 
Q 26.375 40.375 22.484375 35.828125 
Q 18.609375 31.296875 18.609375 23.390625 
Q 18.609375 15.53125 22.484375 10.953125 
Q 26.375 6.390625 33.015625 6.390625 
Q 39.65625 6.390625 43.53125 10.953125 
Q 47.40625 15.53125 47.40625 23.390625 
Q 47.40625 31.296875 43.53125 35.828125 
Q 39.65625 40.375 33.015625 40.375 
z
M 52.59375 71.296875 
L 52.59375 62.3125 
Q 48.875 64.0625 45.09375 64.984375 
Q 41.3125 65.921875 37.59375 65.921875 
Q 27.828125 65.921875 22.671875 59.328125 
Q 17.53125 52.734375 16.796875 39.40625 
Q 19.671875 43.65625 24.015625 45.921875 
Q 28.375 48.1875 33.59375 48.1875 
Q 44.578125 48.1875 50.953125 41.515625 
Q 57.328125 34.859375 57.328125 23.390625 
Q 57.328125 12.15625 50.6875 5.359375 
Q 44.046875 -1.421875 33.015625 -1.421875 
Q 20.359375 -1.421875 13.671875 8.265625 
Q 6.984375 17.96875 6.984375 36.375 
Q 6.984375 53.65625 15.1875 63.9375 
Q 23.390625 74.21875 37.203125 74.21875 
Q 40.921875 74.21875 44.703125 73.484375 
Q 48.484375 72.75 52.59375 71.296875 
z
" id="DejaVuSans-54"/>
      </defs>
      <g transform="translate(296.119093 542.877813)scale(0.14 -0.14)">
       <use xlink:href="#DejaVuSans-51"/>
       <use x="63.623047" xlink:href="#DejaVuSans-46"/>
       <use x="95.410156" xlink:href="#DejaVuSans-54"/>
      </g>
     </g>
    </g>
    <g id="xtick_4">
     <g id="line2d_6">
      <g>
       <use style="stroke:#000000;stroke-width:0.8;" x="404.693058" xlink:href="#m237f555a17" y="525.24"/>
      </g>
     </g>
     <g id="text_6">
      <!-- 3.7 -->
      <defs>
       <path d="M 8.203125 72.90625 
L 55.078125 72.90625 
L 55.078125 68.703125 
L 28.609375 0 
L 18.3125 0 
L 43.21875 64.59375 
L 8.203125 64.59375 
z
" id="DejaVuSans-55"/>
      </defs>
      <g transform="translate(393.56087 542.877813)scale(0.14 -0.14)">
       <use xlink:href="#DejaVuSans-51"/>
       <use x="63.623047" xlink:href="#DejaVuSans-46"/>
       <use x="95.410156" xlink:href="#DejaVuSans-55"/>
      </g>
     </g>
    </g>
    <g id="xtick_5">
     <g id="line2d_7">
      <g>
       <use style="stroke:#000000;stroke-width:0.8;" x="502.134835" xlink:href="#m237f555a17" y="525.24"/>
      </g>
     </g>
     <g id="text_7">
      <!-- 3.8 -->
      <defs>
       <path d="M 31.78125 34.625 
Q 24.75 34.625 20.71875 30.859375 
Q 16.703125 27.09375 16.703125 20.515625 
Q 16.703125 13.921875 20.71875 10.15625 
Q 24.75 6.390625 31.78125 6.390625 
Q 38.8125 6.390625 42.859375 10.171875 
Q 46.921875 13.96875 46.921875 20.515625 
Q 46.921875 27.09375 42.890625 30.859375 
Q 38.875 34.625 31.78125 34.625 
z
M 21.921875 38.8125 
Q 15.578125 40.375 12.03125 44.71875 
Q 8.5 49.078125 8.5 55.328125 
Q 8.5 64.0625 14.71875 69.140625 
Q 20.953125 74.21875 31.78125 74.21875 
Q 42.671875 74.21875 48.875 69.140625 
Q 55.078125 64.0625 55.078125 55.328125 
Q 55.078125 49.078125 51.53125 44.71875 
Q 48 40.375 41.703125 38.8125 
Q 48.828125 37.15625 52.796875 32.3125 
Q 56.78125 27.484375 56.78125 20.515625 
Q 56.78125 9.90625 50.3125 4.234375 
Q 43.84375 -1.421875 31.78125 -1.421875 
Q 19.734375 -1.421875 13.25 4.234375 
Q 6.78125 9.90625 6.78125 20.515625 
Q 6.78125 27.484375 10.78125 32.3125 
Q 14.796875 37.15625 21.921875 38.8125 
z
M 18.3125 54.390625 
Q 18.3125 48.734375 21.84375 45.5625 
Q 25.390625 42.390625 31.78125 42.390625 
Q 38.140625 42.390625 41.71875 45.5625 
Q 45.3125 48.734375 45.3125 54.390625 
Q 45.3125 60.0625 41.71875 63.234375 
Q 38.140625 66.40625 31.78125 66.40625 
Q 25.390625 66.40625 21.84375 63.234375 
Q 18.3125 60.0625 18.3125 54.390625 
z
" id="DejaVuSans-56"/>
      </defs>
      <g transform="translate(491.002647 542.877813)scale(0.14 -0.14)">
       <use xlink:href="#DejaVuSans-51"/>
       <use x="63.623047" xlink:href="#DejaVuSans-46"/>
       <use x="95.410156" xlink:href="#DejaVuSans-56"/>
      </g>
     </g>
    </g>
   </g>
   <g id="line2d_8">
    <path clip-path="url(#p4b102a2666)" d="M 341.063577 525.24 
L 341.063577 402.93 
" style="fill:none;stroke:#ff6384;stroke-dasharray:5.55,2.4;stroke-dashoffset:0;stroke-opacity:0.8;stroke-width:1.5;"/>
   </g>
   <g id="line2d_9">
    <path clip-path="url(#p4b102a2666)" d="M 261.356203 525.24 
L 261.356203 402.93 
" style="fill:none;stroke:#36a2eb;stroke-dasharray:5.55,2.4;stroke-dashoffset:0;stroke-opacity:0.8;stroke-width:1.5;"/>
   </g>
   <g id="patch_10">
    <path d="M 36 525.24 
L 538.2 525.24 
" style="fill:none;stroke:#000000;stroke-linecap:square;stroke-linejoin:miter;stroke-width:0.8;"/>
   </g>
  </g>
 </g>
 <defs>
  <clipPath id="p6aacd91a19">
   <rect height="366.93" width="502.2" x="36" y="36"/>
  </clipPath>
  <clipPath id="p4b102a2666">
   <rect height="122.31" width="502.2" x="36" y="402.93"/>
  </clipPath>
 </defs>
</svg>
