<?xml version="1.0" encoding="utf-8" standalone="no"?>
<!DOCTYPE svg PUBLIC "-//W3C//DTD SVG 1.1//EN"
  "http://www.w3.org/Graphics/SVG/1.1/DTD/svg11.dtd">
<!-- Created with matplotlib (https://matplotlib.org/) -->
<svg height="581.789375pt" version="1.1" viewBox="0 0 574.2 581.789375" width="574.2pt" xmlns="http://www.w3.org/2000/svg" xmlns:xlink="http://www.w3.org/1999/xlink">
 <defs>
  <style type="text/css">
*{stroke-linecap:butt;stroke-linejoin:round;}
  </style>
 </defs>
 <g id="figure_1">
  <g id="patch_1">
   <path d="M 0 581.789375 
L 574.2 581.789375 
L 574.2 0 
L 0 0 
z
" style="fill:none;"/>
  </g>
  <g id="axes_1">
   <g id="patch_2">
    <path d="M 36 402.93 
L 538.2 402.93 
L 538.2 36 
L 36 36 
z
" style="fill:none;"/>
   </g>
   <g id="PolyCollection_1">
    <defs>
     <path d="M 172.750821 -195.538011 
L 172.750821 -195.650004 
L 176.211648 -195.692234 
L 179.672476 -195.749007 
L 183.133303 -195.8248 
L 186.59413 -195.925281 
L 190.054958 -196.057565 
L 193.515785 -196.230497 
L 196.976612 -196.454982 
L 200.43744 -196.744335 
L 203.898267 -197.114666 
L 207.359094 -197.585273 
L 210.819922 -198.179047 
L 214.280749 -198.922859 
L 217.741576 -199.847921 
L 221.202404 -200.990079 
L 224.663231 -202.390029 
L 228.124058 -204.093399 
L 231.584886 -206.150691 
L 235.045713 -208.617009 
L 238.50654 -211.551575 
L 241.967368 -215.016962 
L 245.428195 -219.078053 
L 248.889022 -223.800667 
L 252.34985 -229.249878 
L 255.810677 -235.488004 
L 259.271504 -242.572312 
L 262.732332 -250.552459 
L 266.193159 -259.467747 
L 269.653986 -269.344261 
L 273.114814 -280.192004 
L 276.575641 -292.002137 
L 280.036468 -304.744465 
L 283.497296 -318.365297 
L 286.958123 -332.785841 
L 290.41895 -347.901251 
L 293.879778 -363.580456 
L 297.340605 -379.666871 
L 300.801432 -395.980052 
L 304.26226 -412.31833 
L 307.723087 -428.4624 
L 311.183914 -444.179822 
L 314.644742 -459.230303 
L 318.105569 -473.371627 
L 321.566396 -486.366018 
L 325.027224 -497.986726 
L 328.488051 -508.02457 
L 331.948878 -516.294181 
L 335.409706 -522.639693 
L 338.870533 -526.939623 
L 342.33136 -529.110739 
L 345.792188 -529.110739 
L 349.253015 -526.939623 
L 352.713842 -522.639693 
L 356.17467 -516.294181 
L 359.635497 -508.02457 
L 363.096324 -497.986726 
L 366.557152 -486.366018 
L 370.017979 -473.371627 
L 373.478806 -459.230303 
L 376.939634 -444.179822 
L 380.400461 -428.4624 
L 383.861288 -412.31833 
L 387.322116 -395.980052 
L 390.782943 -379.666871 
L 394.24377 -363.580456 
L 397.704598 -347.901251 
L 401.165425 -332.785841 
L 404.626252 -318.365297 
L 408.08708 -304.744465 
L 411.547907 -292.002137 
L 415.008734 -280.192004 
L 418.469562 -269.344261 
L 421.930389 -259.467747 
L 425.391217 -250.552459 
L 428.852044 -242.572312 
L 432.312871 -235.488004 
L 435.773699 -229.249878 
L 439.234526 -223.800667 
L 442.695353 -219.078053 
L 446.156181 -215.016962 
L 449.617008 -211.551575 
L 453.077835 -208.617009 
L 456.538663 -206.150691 
L 459.99949 -204.093399 
L 463.460317 -202.390029 
L 466.921145 -200.990079 
L 470.381972 -199.847921 
L 473.842799 -198.922859 
L 477.303627 -198.179047 
L 480.764454 -197.585273 
L 484.225281 -197.114666 
L 487.686109 -196.744335 
L 491.146936 -196.454982 
L 494.607763 -196.230497 
L 498.068591 -196.057565 
L 501.529418 -195.925281 
L 504.990245 -195.8248 
L 508.451073 -195.749007 
L 511.9119 -195.692234 
L 515.372727 -195.650004 
L 515.372727 -195.538011 
L 515.372727 -195.538011 
L 511.9119 -195.538011 
L 508.451073 -195.538011 
L 504.990245 -195.538011 
L 501.529418 -195.538011 
L 498.068591 -195.538011 
L 494.607763 -195.538011 
L 491.146936 -195.538011 
L 487.686109 -195.538011 
L 484.225281 -195.538011 
L 480.764454 -195.538011 
L 477.303627 -195.538011 
L 473.842799 -195.538011 
L 470.381972 -195.538011 
L 466.921145 -195.538011 
L 463.460317 -195.538011 
L 459.99949 -195.538011 
L 456.538663 -195.538011 
L 453.077835 -195.538011 
L 449.617008 -195.538011 
L 446.156181 -195.538011 
L 442.695353 -195.538011 
L 439.234526 -195.538011 
L 435.773699 -195.538011 
L 432.312871 -195.538011 
L 428.852044 -195.538011 
L 425.391217 -195.538011 
L 421.930389 -195.538011 
L 418.469562 -195.538011 
L 415.008734 -195.538011 
L 411.547907 -195.538011 
L 408.08708 -195.538011 
L 404.626252 -195.538011 
L 401.165425 -195.538011 
L 397.704598 -195.538011 
L 394.24377 -195.538011 
L 390.782943 -195.538011 
L 387.322116 -195.538011 
L 383.861288 -195.538011 
L 380.400461 -195.538011 
L 376.939634 -195.538011 
L 373.478806 -195.538011 
L 370.017979 -195.538011 
L 366.557152 -195.538011 
L 363.096324 -195.538011 
L 359.635497 -195.538011 
L 356.17467 -195.538011 
L 352.713842 -195.538011 
L 349.253015 -195.538011 
L 345.792188 -195.538011 
L 342.33136 -195.538011 
L 338.870533 -195.538011 
L 335.409706 -195.538011 
L 331.948878 -195.538011 
L 328.488051 -195.538011 
L 325.027224 -195.538011 
L 321.566396 -195.538011 
L 318.105569 -195.538011 
L 314.644742 -195.538011 
L 311.183914 -195.538011 
L 307.723087 -195.538011 
L 304.26226 -195.538011 
L 300.801432 -195.538011 
L 297.340605 -195.538011 
L 293.879778 -195.538011 
L 290.41895 -195.538011 
L 286.958123 -195.538011 
L 283.497296 -195.538011 
L 280.036468 -195.538011 
L 276.575641 -195.538011 
L 273.114814 -195.538011 
L 269.653986 -195.538011 
L 266.193159 -195.538011 
L 262.732332 -195.538011 
L 259.271504 -195.538011 
L 255.810677 -195.538011 
L 252.34985 -195.538011 
L 248.889022 -195.538011 
L 245.428195 -195.538011 
L 241.967368 -195.538011 
L 238.50654 -195.538011 
L 235.045713 -195.538011 
L 231.584886 -195.538011 
L 228.124058 -195.538011 
L 224.663231 -195.538011 
L 221.202404 -195.538011 
L 217.741576 -195.538011 
L 214.280749 -195.538011 
L 210.819922 -195.538011 
L 207.359094 -195.538011 
L 203.898267 -195.538011 
L 200.43744 -195.538011 
L 196.976612 -195.538011 
L 193.515785 -195.538011 
L 190.054958 -195.538011 
L 186.59413 -195.538011 
L 183.133303 -195.538011 
L 179.672476 -195.538011 
L 176.211648 -195.538011 
L 172.750821 -195.538011 
z
" id="mf22810954e" style="stroke:#ff6384;stroke-opacity:0.5;"/>
    </defs>
    <g clip-path="url(#pce76514b4d)">
     <use style="fill:#ff6384;fill-opacity:0.5;stroke:#ff6384;stroke-opacity:0.5;" x="0" xlink:href="#mf22810954e" y="581.789375"/>
    </g>
   </g>
   <g id="PolyCollection_2">
    <defs>
     <path d="M 58.827273 -195.538011 
L 58.827273 -195.634399 
L 62.848391 -195.670745 
L 66.869509 -195.719607 
L 70.890627 -195.78484 
L 74.911745 -195.87132 
L 78.932863 -195.985172 
L 82.953981 -196.134008 
L 86.975099 -196.327214 
L 90.996217 -196.57625 
L 95.017335 -196.89498 
L 99.038453 -197.300014 
L 103.059571 -197.811053 
L 107.080689 -198.451224 
L 111.101807 -199.247391 
L 115.122925 -200.230404 
L 119.144043 -201.435289 
L 123.165161 -202.901317 
L 127.186279 -204.671952 
L 131.207397 -206.794621 
L 135.228515 -209.320292 
L 139.249633 -212.302823 
L 143.270751 -215.798053 
L 147.291869 -219.862633 
L 151.312987 -224.552566 
L 155.334105 -229.921491 
L 159.355223 -236.018692 
L 163.376341 -242.886909 
L 167.397459 -250.559967 
L 171.418577 -259.060317 
L 175.439695 -268.396567 
L 179.460812 -278.561112 
L 183.48193 -289.527962 
L 187.503048 -301.250907 
L 191.524166 -313.662136 
L 195.545284 -326.671409 
L 199.566402 -340.16592 
L 203.58752 -354.010902 
L 207.608638 -368.051053 
L 211.629756 -382.112803 
L 215.650874 -396.007406 
L 219.671992 -409.534809 
L 223.69311 -422.488201 
L 227.714228 -434.659115 
L 231.735346 -445.842906 
L 235.756464 -455.844419 
L 239.777582 -464.483619 
L 243.7987 -471.600968 
L 247.819818 -477.062315 
L 251.840936 -480.763105 
L 255.862054 -482.631704 
L 259.883172 -482.631704 
L 263.90429 -480.763105 
L 267.925408 -477.062315 
L 271.946526 -471.600968 
L 275.967644 -464.483619 
L 279.988762 -455.844419 
L 284.00988 -445.842906 
L 288.030998 -434.659115 
L 292.052116 -422.488201 
L 296.073234 -409.534809 
L 300.094352 -396.007406 
L 304.11547 -382.112803 
L 308.136588 -368.051053 
L 312.157706 -354.010902 
L 316.178824 -340.16592 
L 320.199942 -326.671409 
L 324.22106 -313.662136 
L 328.242178 -301.250907 
L 332.263296 -289.527962 
L 336.284414 -278.561112 
L 340.305532 -268.396567 
L 344.32665 -259.060317 
L 348.347768 -250.559967 
L 352.368886 -242.886909 
L 356.390004 -236.018692 
L 360.411122 -229.921491 
L 364.43224 -224.552566 
L 368.453358 -219.862633 
L 372.474476 -215.798053 
L 376.495594 -212.302823 
L 380.516712 -209.320292 
L 384.53783 -206.794621 
L 388.558948 -204.671952 
L 392.580066 -202.901317 
L 396.601184 -201.435289 
L 400.622302 -200.230404 
L 404.64342 -199.247391 
L 408.664538 -198.451224 
L 412.685656 -197.811053 
L 416.706774 -197.300014 
L 420.727892 -196.89498 
L 424.74901 -196.57625 
L 428.770128 -196.327214 
L 432.791246 -196.134008 
L 436.812364 -195.985172 
L 440.833482 -195.87132 
L 444.8546 -195.78484 
L 448.875718 -195.719607 
L 452.896836 -195.670745 
L 456.917954 -195.634399 
L 456.917954 -195.538011 
L 456.917954 -195.538011 
L 452.896836 -195.538011 
L 448.875718 -195.538011 
L 444.8546 -195.538011 
L 440.833482 -195.538011 
L 436.812364 -195.538011 
L 432.791246 -195.538011 
L 428.770128 -195.538011 
L 424.74901 -195.538011 
L 420.727892 -195.538011 
L 416.706774 -195.538011 
L 412.685656 -195.538011 
L 408.664538 -195.538011 
L 404.64342 -195.538011 
L 400.622302 -195.538011 
L 396.601184 -195.538011 
L 392.580066 -195.538011 
L 388.558948 -195.538011 
L 384.53783 -195.538011 
L 380.516712 -195.538011 
L 376.495594 -195.538011 
L 372.474476 -195.538011 
L 368.453358 -195.538011 
L 364.43224 -195.538011 
L 360.411122 -195.538011 
L 356.390004 -195.538011 
L 352.368886 -195.538011 
L 348.347768 -195.538011 
L 344.32665 -195.538011 
L 340.305532 -195.538011 
L 336.284414 -195.538011 
L 332.263296 -195.538011 
L 328.242178 -195.538011 
L 324.22106 -195.538011 
L 320.199942 -195.538011 
L 316.178824 -195.538011 
L 312.157706 -195.538011 
L 308.136588 -195.538011 
L 304.11547 -195.538011 
L 300.094352 -195.538011 
L 296.073234 -195.538011 
L 292.052116 -195.538011 
L 288.030998 -195.538011 
L 284.00988 -195.538011 
L 279.988762 -195.538011 
L 275.967644 -195.538011 
L 271.946526 -195.538011 
L 267.925408 -195.538011 
L 263.90429 -195.538011 
L 259.883172 -195.538011 
L 255.862054 -195.538011 
L 251.840936 -195.538011 
L 247.819818 -195.538011 
L 243.7987 -195.538011 
L 239.777582 -195.538011 
L 235.756464 -195.538011 
L 231.735346 -195.538011 
L 227.714228 -195.538011 
L 223.69311 -195.538011 
L 219.671992 -195.538011 
L 215.650874 -195.538011 
L 211.629756 -195.538011 
L 207.608638 -195.538011 
L 203.58752 -195.538011 
L 199.566402 -195.538011 
L 195.545284 -195.538011 
L 191.524166 -195.538011 
L 187.503048 -195.538011 
L 183.48193 -195.538011 
L 179.460812 -195.538011 
L 175.439695 -195.538011 
L 171.418577 -195.538011 
L 167.397459 -195.538011 
L 163.376341 -195.538011 
L 159.355223 -195.538011 
L 155.334105 -195.538011 
L 151.312987 -195.538011 
L 147.291869 -195.538011 
L 143.270751 -195.538011 
L 139.249633 -195.538011 
L 135.228515 -195.538011 
L 131.207397 -195.538011 
L 127.186279 -195.538011 
L 123.165161 -195.538011 
L 119.144043 -195.538011 
L 115.122925 -195.538011 
L 111.101807 -195.538011 
L 107.080689 -195.538011 
L 103.059571 -195.538011 
L 99.038453 -195.538011 
L 95.017335 -195.538011 
L 90.996217 -195.538011 
L 86.975099 -195.538011 
L 82.953981 -195.538011 
L 78.932863 -195.538011 
L 74.911745 -195.538011 
L 70.890627 -195.538011 
L 66.869509 -195.538011 
L 62.848391 -195.538011 
L 58.827273 -195.538011 
z
" id="m3926b14097" style="stroke:#36a2eb;stroke-opacity:0.5;"/>
    </defs>
    <g clip-path="url(#pce76514b4d)">
     <use style="fill:#36a2eb;fill-opacity:0.5;stroke:#36a2eb;stroke-opacity:0.5;" x="0" xlink:href="#m3926b14097" y="581.789375"/>
    </g>
   </g>
   <g id="line2d_1">
    <path clip-path="url(#pce76514b4d)" d="M 172.750821 386.139371 
L 176.211648 386.097141 
L 179.672476 386.040368 
L 183.133303 385.964575 
L 186.59413 385.864094 
L 190.054958 385.73181 
L 193.515785 385.558878 
L 196.976612 385.334393 
L 200.43744 385.04504 
L 203.898267 384.674709 
L 207.359094 384.204102 
L 210.819922 383.610328 
L 214.280749 382.866516 
L 217.741576 381.941454 
L 221.202404 380.799296 
L 224.663231 379.399346 
L 228.124058 377.695976 
L 231.584886 375.638684 
L 235.045713 373.172366 
L 238.50654 370.2378 
L 241.967368 366.772413 
L 245.428195 362.711322 
L 248.889022 357.988708 
L 252.34985 352.539497 
L 255.810677 346.301371 
L 259.271504 339.217063 
L 262.732332 331.236916 
L 266.193159 322.321628 
L 269.653986 312.445114 
L 273.114814 301.597371 
L 276.575641 289.787238 
L 280.036468 277.04491 
L 283.497296 263.424078 
L 286.958123 249.003534 
L 290.41895 233.888124 
L 293.879778 218.208919 
L 297.340605 202.122504 
L 300.801432 185.809323 
L 304.26226 169.471045 
L 307.723087 153.326975 
L 311.183914 137.609553 
L 314.644742 122.559072 
L 318.105569 108.417748 
L 321.566396 95.423357 
L 325.027224 83.802649 
L 328.488051 73.764805 
L 331.948878 65.495194 
L 335.409706 59.149682 
L 338.870533 54.849752 
L 342.33136 52.678636 
L 345.792188 52.678636 
L 349.253015 54.849752 
L 352.713842 59.149682 
L 356.17467 65.495194 
L 359.635497 73.764805 
L 363.096324 83.802649 
L 366.557152 95.423357 
L 370.017979 108.417748 
L 373.478806 122.559072 
L 376.939634 137.609553 
L 380.400461 153.326975 
L 383.861288 169.471045 
L 387.322116 185.809323 
L 390.782943 202.122504 
L 394.24377 218.208919 
L 397.704598 233.888124 
L 401.165425 249.003534 
L 404.626252 263.424078 
L 408.08708 277.04491 
L 411.547907 289.787238 
L 415.008734 301.597371 
L 418.469562 312.445114 
L 421.930389 322.321628 
L 425.391217 331.236916 
L 428.852044 339.217063 
L 432.312871 346.301371 
L 435.773699 352.539497 
L 439.234526 357.988708 
L 442.695353 362.711322 
L 446.156181 366.772413 
L 449.617008 370.2378 
L 453.077835 373.172366 
L 456.538663 375.638684 
L 459.99949 377.695976 
L 463.460317 379.399346 
L 466.921145 380.799296 
L 470.381972 381.941454 
L 473.842799 382.866516 
L 477.303627 383.610328 
L 480.764454 384.204102 
L 484.225281 384.674709 
L 487.686109 385.04504 
L 491.146936 385.334393 
L 494.607763 385.558878 
L 498.068591 385.73181 
L 501.529418 385.864094 
L 504.990245 385.964575 
L 508.451073 386.040368 
L 511.9119 386.097141 
L 515.372727 386.139371 
" style="fill:none;stroke:#ff6384;stroke-linecap:square;"/>
   </g>
   <g id="line2d_2">
    <path clip-path="url(#pce76514b4d)" d="M 58.827273 386.154976 
L 62.848391 386.11863 
L 66.869509 386.069768 
L 70.890627 386.004535 
L 74.911745 385.918055 
L 78.932863 385.804203 
L 82.953981 385.655367 
L 86.975099 385.462161 
L 90.996217 385.213125 
L 95.017335 384.894395 
L 99.038453 384.489361 
L 103.059571 383.978322 
L 107.080689 383.338151 
L 111.101807 382.541984 
L 115.122925 381.558971 
L 119.144043 380.354086 
L 123.165161 378.888058 
L 127.186279 377.117423 
L 131.207397 374.994754 
L 135.228515 372.469083 
L 139.249633 369.486552 
L 143.270751 365.991322 
L 147.291869 361.926742 
L 151.312987 357.236809 
L 155.334105 351.867884 
L 159.355223 345.770683 
L 163.376341 338.902466 
L 167.397459 331.229408 
L 171.418577 322.729058 
L 175.439695 313.392808 
L 179.460812 303.228263 
L 183.48193 292.261413 
L 187.503048 280.538468 
L 191.524166 268.127239 
L 195.545284 255.117966 
L 199.566402 241.623455 
L 203.58752 227.778473 
L 207.608638 213.738322 
L 211.629756 199.676572 
L 215.650874 185.781969 
L 219.671992 172.254566 
L 223.69311 159.301174 
L 227.714228 147.13026 
L 231.735346 135.946469 
L 235.756464 125.944956 
L 239.777582 117.305756 
L 243.7987 110.188407 
L 247.819818 104.72706 
L 251.840936 101.02627 
L 255.862054 99.157671 
L 259.883172 99.157671 
L 263.90429 101.02627 
L 267.925408 104.72706 
L 271.946526 110.188407 
L 275.967644 117.305756 
L 279.988762 125.944956 
L 284.00988 135.946469 
L 288.030998 147.13026 
L 292.052116 159.301174 
L 296.073234 172.254566 
L 300.094352 185.781969 
L 304.11547 199.676572 
L 308.136588 213.738322 
L 312.157706 227.778473 
L 316.178824 241.623455 
L 320.199942 255.117966 
L 324.22106 268.127239 
L 328.242178 280.538468 
L 332.263296 292.261413 
L 336.284414 303.228263 
L 340.305532 313.392808 
L 344.32665 322.729058 
L 348.347768 331.229408 
L 352.368886 338.902466 
L 356.390004 345.770683 
L 360.411122 351.867884 
L 364.43224 357.236809 
L 368.453358 361.926742 
L 372.474476 365.991322 
L 376.495594 369.486552 
L 380.516712 372.469083 
L 384.53783 374.994754 
L 388.558948 377.117423 
L 392.580066 378.888058 
L 396.601184 380.354086 
L 400.622302 381.558971 
L 404.64342 382.541984 
L 408.664538 383.338151 
L 412.685656 383.978322 
L 416.706774 384.489361 
L 420.727892 384.894395 
L 424.74901 385.213125 
L 428.770128 385.462161 
L 432.791246 385.655367 
L 436.812364 385.804203 
L 440.833482 385.918055 
L 444.8546 386.004535 
L 448.875718 386.069768 
L 452.896836 386.11863 
L 456.917954 386.154976 
" style="fill:none;stroke:#36a2eb;stroke-linecap:square;"/>
   </g>
   <g id="patch_3">
    <path d="M 36 402.93 
L 538.2 402.93 
" style="fill:none;stroke:#000000;stroke-linecap:square;stroke-linejoin:miter;stroke-width:0.8;"/>
   </g>
   <g id="legend_1">
    <g id="patch_4">
     <path d="M 414.919063 88.29875 
L 528.4 88.29875 
Q 531.2 88.29875 531.2 85.49875 
L 531.2 45.8 
Q 531.2 43 528.4 43 
L 414.919063 43 
Q 412.119063 43 412.119063 45.8 
L 412.119063 85.49875 
Q 412.119063 88.29875 414.919063 88.29875 
z
" style="fill:#ffffff;opacity:0.8;stroke:#cccccc;stroke-linejoin:miter;"/>
    </g>
    <g id="patch_5">
     <path d="M 417.719063 59.237813 
L 445.719063 59.237813 
L 445.719063 49.437813 
L 417.719063 49.437813 
z
" style="fill:#ff6384;opacity:0.5;stroke:#ff6384;stroke-linejoin:miter;"/>
    </g>
    <g id="text_1">
     <!-- sidemenu -->
     <defs>
      <path d="M 44.28125 53.078125 
L 44.28125 44.578125 
Q 40.484375 46.53125 36.375 47.5 
Q 32.28125 48.484375 27.875 48.484375 
Q 21.1875 48.484375 17.84375 46.4375 
Q 14.5 44.390625 14.5 40.28125 
Q 14.5 37.15625 16.890625 35.375 
Q 19.28125 33.59375 26.515625 31.984375 
L 29.59375 31.296875 
Q 39.15625 29.25 43.1875 25.515625 
Q 47.21875 21.78125 47.21875 15.09375 
Q 47.21875 7.46875 41.1875 3.015625 
Q 35.15625 -1.421875 24.609375 -1.421875 
Q 20.21875 -1.421875 15.453125 -0.5625 
Q 10.6875 0.296875 5.421875 2 
L 5.421875 11.28125 
Q 10.40625 8.6875 15.234375 7.390625 
Q 20.0625 6.109375 24.8125 6.109375 
Q 31.15625 6.109375 34.5625 8.28125 
Q 37.984375 10.453125 37.984375 14.40625 
Q 37.984375 18.0625 35.515625 20.015625 
Q 33.0625 21.96875 24.703125 23.78125 
L 21.578125 24.515625 
Q 13.234375 26.265625 9.515625 29.90625 
Q 5.8125 33.546875 5.8125 39.890625 
Q 5.8125 47.609375 11.28125 51.796875 
Q 16.75 56 26.8125 56 
Q 31.78125 56 36.171875 55.265625 
Q 40.578125 54.546875 44.28125 53.078125 
z
" id="DejaVuSans-115"/>
      <path d="M 9.421875 54.6875 
L 18.40625 54.6875 
L 18.40625 0 
L 9.421875 0 
z
M 9.421875 75.984375 
L 18.40625 75.984375 
L 18.40625 64.59375 
L 9.421875 64.59375 
z
" id="DejaVuSans-105"/>
      <path d="M 45.40625 46.390625 
L 45.40625 75.984375 
L 54.390625 75.984375 
L 54.390625 0 
L 45.40625 0 
L 45.40625 8.203125 
Q 42.578125 3.328125 38.25 0.953125 
Q 33.9375 -1.421875 27.875 -1.421875 
Q 17.96875 -1.421875 11.734375 6.484375 
Q 5.515625 14.40625 5.515625 27.296875 
Q 5.515625 40.1875 11.734375 48.09375 
Q 17.96875 56 27.875 56 
Q 33.9375 56 38.25 53.625 
Q 42.578125 51.265625 45.40625 46.390625 
z
M 14.796875 27.296875 
Q 14.796875 17.390625 18.875 11.75 
Q 22.953125 6.109375 30.078125 6.109375 
Q 37.203125 6.109375 41.296875 11.75 
Q 45.40625 17.390625 45.40625 27.296875 
Q 45.40625 37.203125 41.296875 42.84375 
Q 37.203125 48.484375 30.078125 48.484375 
Q 22.953125 48.484375 18.875 42.84375 
Q 14.796875 37.203125 14.796875 27.296875 
z
" id="DejaVuSans-100"/>
      <path d="M 56.203125 29.59375 
L 56.203125 25.203125 
L 14.890625 25.203125 
Q 15.484375 15.921875 20.484375 11.0625 
Q 25.484375 6.203125 34.421875 6.203125 
Q 39.59375 6.203125 44.453125 7.46875 
Q 49.3125 8.734375 54.109375 11.28125 
L 54.109375 2.78125 
Q 49.265625 0.734375 44.1875 -0.34375 
Q 39.109375 -1.421875 33.890625 -1.421875 
Q 20.796875 -1.421875 13.15625 6.1875 
Q 5.515625 13.8125 5.515625 26.8125 
Q 5.515625 40.234375 12.765625 48.109375 
Q 20.015625 56 32.328125 56 
Q 43.359375 56 49.78125 48.890625 
Q 56.203125 41.796875 56.203125 29.59375 
z
M 47.21875 32.234375 
Q 47.125 39.59375 43.09375 43.984375 
Q 39.0625 48.390625 32.421875 48.390625 
Q 24.90625 48.390625 20.390625 44.140625 
Q 15.875 39.890625 15.1875 32.171875 
z
" id="DejaVuSans-101"/>
      <path d="M 52 44.1875 
Q 55.375 50.25 60.0625 53.125 
Q 64.75 56 71.09375 56 
Q 79.640625 56 84.28125 50.015625 
Q 88.921875 44.046875 88.921875 33.015625 
L 88.921875 0 
L 79.890625 0 
L 79.890625 32.71875 
Q 79.890625 40.578125 77.09375 44.375 
Q 74.3125 48.1875 68.609375 48.1875 
Q 61.625 48.1875 57.5625 43.546875 
Q 53.515625 38.921875 53.515625 30.90625 
L 53.515625 0 
L 44.484375 0 
L 44.484375 32.71875 
Q 44.484375 40.625 41.703125 44.40625 
Q 38.921875 48.1875 33.109375 48.1875 
Q 26.21875 48.1875 22.15625 43.53125 
Q 18.109375 38.875 18.109375 30.90625 
L 18.109375 0 
L 9.078125 0 
L 9.078125 54.6875 
L 18.109375 54.6875 
L 18.109375 46.1875 
Q 21.1875 51.21875 25.484375 53.609375 
Q 29.78125 56 35.6875 56 
Q 41.65625 56 45.828125 52.96875 
Q 50 49.953125 52 44.1875 
z
" id="DejaVuSans-109"/>
      <path d="M 54.890625 33.015625 
L 54.890625 0 
L 45.90625 0 
L 45.90625 32.71875 
Q 45.90625 40.484375 42.875 44.328125 
Q 39.84375 48.1875 33.796875 48.1875 
Q 26.515625 48.1875 22.3125 43.546875 
Q 18.109375 38.921875 18.109375 30.90625 
L 18.109375 0 
L 9.078125 0 
L 9.078125 54.6875 
L 18.109375 54.6875 
L 18.109375 46.1875 
Q 21.34375 51.125 25.703125 53.5625 
Q 30.078125 56 35.796875 56 
Q 45.21875 56 50.046875 50.171875 
Q 54.890625 44.34375 54.890625 33.015625 
z
" id="DejaVuSans-110"/>
      <path d="M 8.5 21.578125 
L 8.5 54.6875 
L 17.484375 54.6875 
L 17.484375 21.921875 
Q 17.484375 14.15625 20.5 10.265625 
Q 23.53125 6.390625 29.59375 6.390625 
Q 36.859375 6.390625 41.078125 11.03125 
Q 45.3125 15.671875 45.3125 23.6875 
L 45.3125 54.6875 
L 54.296875 54.6875 
L 54.296875 0 
L 45.3125 0 
L 45.3125 8.40625 
Q 42.046875 3.421875 37.71875 1 
Q 33.40625 -1.421875 27.6875 -1.421875 
Q 18.265625 -1.421875 13.375 4.4375 
Q 8.5 10.296875 8.5 21.578125 
z
M 31.109375 56 
z
" id="DejaVuSans-117"/>
     </defs>
     <g transform="translate(456.919063 59.237813)scale(0.14 -0.14)">
      <use xlink:href="#DejaVuSans-115"/>
      <use x="52.099609" xlink:href="#DejaVuSans-105"/>
      <use x="79.882812" xlink:href="#DejaVuSans-100"/>
      <use x="143.359375" xlink:href="#DejaVuSans-101"/>
      <use x="204.882812" xlink:href="#DejaVuSans-109"/>
      <use x="302.294922" xlink:href="#DejaVuSans-101"/>
      <use x="363.818359" xlink:href="#DejaVuSans-110"/>
      <use x="427.197266" xlink:href="#DejaVuSans-117"/>
     </g>
    </g>
    <g id="patch_6">
     <path d="M 417.719063 79.787188 
L 445.719063 79.787188 
L 445.719063 69.987188 
L 417.719063 69.987188 
z
" style="fill:#36a2eb;opacity:0.5;stroke:#36a2eb;stroke-linejoin:miter;"/>
    </g>
    <g id="text_2">
     <!-- tabbar -->
     <defs>
      <path d="M 18.3125 70.21875 
L 18.3125 54.6875 
L 36.8125 54.6875 
L 36.8125 47.703125 
L 18.3125 47.703125 
L 18.3125 18.015625 
Q 18.3125 11.328125 20.140625 9.421875 
Q 21.96875 7.515625 27.59375 7.515625 
L 36.8125 7.515625 
L 36.8125 0 
L 27.59375 0 
Q 17.1875 0 13.234375 3.875 
Q 9.28125 7.765625 9.28125 18.015625 
L 9.28125 47.703125 
L 2.6875 47.703125 
L 2.6875 54.6875 
L 9.28125 54.6875 
L 9.28125 70.21875 
z
" id="DejaVuSans-116"/>
      <path d="M 34.28125 27.484375 
Q 23.390625 27.484375 19.1875 25 
Q 14.984375 22.515625 14.984375 16.5 
Q 14.984375 11.71875 18.140625 8.90625 
Q 21.296875 6.109375 26.703125 6.109375 
Q 34.1875 6.109375 38.703125 11.40625 
Q 43.21875 16.703125 43.21875 25.484375 
L 43.21875 27.484375 
z
M 52.203125 31.203125 
L 52.203125 0 
L 43.21875 0 
L 43.21875 8.296875 
Q 40.140625 3.328125 35.546875 0.953125 
Q 30.953125 -1.421875 24.3125 -1.421875 
Q 15.921875 -1.421875 10.953125 3.296875 
Q 6 8.015625 6 15.921875 
Q 6 25.140625 12.171875 29.828125 
Q 18.359375 34.515625 30.609375 34.515625 
L 43.21875 34.515625 
L 43.21875 35.40625 
Q 43.21875 41.609375 39.140625 45 
Q 35.0625 48.390625 27.6875 48.390625 
Q 23 48.390625 18.546875 47.265625 
Q 14.109375 46.140625 10.015625 43.890625 
L 10.015625 52.203125 
Q 14.9375 54.109375 19.578125 55.046875 
Q 24.21875 56 28.609375 56 
Q 40.484375 56 46.34375 49.84375 
Q 52.203125 43.703125 52.203125 31.203125 
z
" id="DejaVuSans-97"/>
      <path d="M 48.6875 27.296875 
Q 48.6875 37.203125 44.609375 42.84375 
Q 40.53125 48.484375 33.40625 48.484375 
Q 26.265625 48.484375 22.1875 42.84375 
Q 18.109375 37.203125 18.109375 27.296875 
Q 18.109375 17.390625 22.1875 11.75 
Q 26.265625 6.109375 33.40625 6.109375 
Q 40.53125 6.109375 44.609375 11.75 
Q 48.6875 17.390625 48.6875 27.296875 
z
M 18.109375 46.390625 
Q 20.953125 51.265625 25.265625 53.625 
Q 29.59375 56 35.59375 56 
Q 45.5625 56 51.78125 48.09375 
Q 58.015625 40.1875 58.015625 27.296875 
Q 58.015625 14.40625 51.78125 6.484375 
Q 45.5625 -1.421875 35.59375 -1.421875 
Q 29.59375 -1.421875 25.265625 0.953125 
Q 20.953125 3.328125 18.109375 8.203125 
L 18.109375 0 
L 9.078125 0 
L 9.078125 75.984375 
L 18.109375 75.984375 
z
" id="DejaVuSans-98"/>
      <path d="M 41.109375 46.296875 
Q 39.59375 47.171875 37.8125 47.578125 
Q 36.03125 48 33.890625 48 
Q 26.265625 48 22.1875 43.046875 
Q 18.109375 38.09375 18.109375 28.8125 
L 18.109375 0 
L 9.078125 0 
L 9.078125 54.6875 
L 18.109375 54.6875 
L 18.109375 46.1875 
Q 20.953125 51.171875 25.484375 53.578125 
Q 30.03125 56 36.53125 56 
Q 37.453125 56 38.578125 55.875 
Q 39.703125 55.765625 41.0625 55.515625 
z
" id="DejaVuSans-114"/>
     </defs>
     <g transform="translate(456.919063 79.787188)scale(0.14 -0.14)">
      <use xlink:href="#DejaVuSans-116"/>
      <use x="39.208984" xlink:href="#DejaVuSans-97"/>
      <use x="100.488281" xlink:href="#DejaVuSans-98"/>
      <use x="163.964844" xlink:href="#DejaVuSans-98"/>
      <use x="227.441406" xlink:href="#DejaVuSans-97"/>
      <use x="288.720703" xlink:href="#DejaVuSans-114"/>
     </g>
    </g>
   </g>
  </g>
  <g id="axes_2">
   <g id="patch_7">
    <path d="M 36 525.24 
L 538.2 525.24 
L 538.2 402.93 
L 36 402.93 
z
" style="fill:none;"/>
   </g>
   <g id="patch_8">
    <path clip-path="url(#p0b4723cf89)" d="M 260.119407 519.680455 
L 428.004141 519.680455 
L 428.004141 482.616818 
L 260.119407 482.616818 
z
" style="fill:#ff6384;opacity:0.5;"/>
   </g>
   <g id="patch_9">
    <path clip-path="url(#p0b4723cf89)" d="M 160.340396 445.553182 
L 355.40483 445.553182 
L 355.40483 408.489545 
L 160.340396 408.489545 
z
" style="fill:#36a2eb;opacity:0.5;"/>
   </g>
   <g id="matplotlib.axis_1">
    <g id="xtick_1">
     <g id="line2d_3">
      <defs>
       <path d="M 0 0 
L 0 3.5 
" id="mc33ba0e87e" style="stroke:#000000;stroke-width:0.8;"/>
      </defs>
      <g>
       <use style="stroke:#000000;stroke-width:0.8;" x="116.809687" xlink:href="#mc33ba0e87e" y="525.24"/>
      </g>
     </g>
     <g id="text_3">
      <!-- 3.4 -->
      <defs>
       <path d="M 40.578125 39.3125 
Q 47.65625 37.796875 51.625 33 
Q 55.609375 28.21875 55.609375 21.1875 
Q 55.609375 10.40625 48.1875 4.484375 
Q 40.765625 -1.421875 27.09375 -1.421875 
Q 22.515625 -1.421875 17.65625 -0.515625 
Q 12.796875 0.390625 7.625 2.203125 
L 7.625 11.71875 
Q 11.71875 9.328125 16.59375 8.109375 
Q 21.484375 6.890625 26.8125 6.890625 
Q 36.078125 6.890625 40.9375 10.546875 
Q 45.796875 14.203125 45.796875 21.1875 
Q 45.796875 27.640625 41.28125 31.265625 
Q 36.765625 34.90625 28.71875 34.90625 
L 20.21875 34.90625 
L 20.21875 43.015625 
L 29.109375 43.015625 
Q 36.375 43.015625 40.234375 45.921875 
Q 44.09375 48.828125 44.09375 54.296875 
Q 44.09375 59.90625 40.109375 62.90625 
Q 36.140625 65.921875 28.71875 65.921875 
Q 24.65625 65.921875 20.015625 65.03125 
Q 15.375 64.15625 9.8125 62.3125 
L 9.8125 71.09375 
Q 15.4375 72.65625 20.34375 73.4375 
Q 25.25 74.21875 29.59375 74.21875 
Q 40.828125 74.21875 47.359375 69.109375 
Q 53.90625 64.015625 53.90625 55.328125 
Q 53.90625 49.265625 50.4375 45.09375 
Q 46.96875 40.921875 40.578125 39.3125 
z
" id="DejaVuSans-51"/>
       <path d="M 10.6875 12.40625 
L 21 12.40625 
L 21 0 
L 10.6875 0 
z
" id="DejaVuSans-46"/>
       <path d="M 37.796875 64.3125 
L 12.890625 25.390625 
L 37.796875 25.390625 
z
M 35.203125 72.90625 
L 47.609375 72.90625 
L 47.609375 25.390625 
L 58.015625 25.390625 
L 58.015625 17.1875 
L 47.609375 17.1875 
L 47.609375 0 
L 37.796875 0 
L 37.796875 17.1875 
L 4.890625 17.1875 
L 4.890625 26.703125 
z
" id="DejaVuSans-52"/>
      </defs>
      <g transform="translate(105.677499 542.877813)scale(0.14 -0.14)">
       <use xlink:href="#DejaVuSans-51"/>
       <use x="63.623047" xlink:href="#DejaVuSans-46"/>
       <use x="95.410156" xlink:href="#DejaVuSans-52"/>
      </g>
     </g>
    </g>
    <g id="xtick_2">
     <g id="line2d_4">
      <g>
       <use style="stroke:#000000;stroke-width:0.8;" x="212.575421" xlink:href="#mc33ba0e87e" y="525.24"/>
      </g>
     </g>
     <g id="text_4">
      <!-- 3.5 -->
      <defs>
       <path d="M 10.796875 72.90625 
L 49.515625 72.90625 
L 49.515625 64.59375 
L 19.828125 64.59375 
L 19.828125 46.734375 
Q 21.96875 47.46875 24.109375 47.828125 
Q 26.265625 48.1875 28.421875 48.1875 
Q 40.625 48.1875 47.75 41.5 
Q 54.890625 34.8125 54.890625 23.390625 
Q 54.890625 11.625 47.5625 5.09375 
Q 40.234375 -1.421875 26.90625 -1.421875 
Q 22.3125 -1.421875 17.546875 -0.640625 
Q 12.796875 0.140625 7.71875 1.703125 
L 7.71875 11.625 
Q 12.109375 9.234375 16.796875 8.0625 
Q 21.484375 6.890625 26.703125 6.890625 
Q 35.15625 6.890625 40.078125 11.328125 
Q 45.015625 15.765625 45.015625 23.390625 
Q 45.015625 31 40.078125 35.4375 
Q 35.15625 39.890625 26.703125 39.890625 
Q 22.75 39.890625 18.8125 39.015625 
Q 14.890625 38.140625 10.796875 36.28125 
z
" id="DejaVuSans-53"/>
      </defs>
      <g transform="translate(201.443234 542.877813)scale(0.14 -0.14)">
       <use xlink:href="#DejaVuSans-51"/>
       <use x="63.623047" xlink:href="#DejaVuSans-46"/>
       <use x="95.410156" xlink:href="#DejaVuSans-53"/>
      </g>
     </g>
    </g>
    <g id="xtick_3">
     <g id="line2d_5">
      <g>
       <use style="stroke:#000000;stroke-width:0.8;" x="308.341155" xlink:href="#mc33ba0e87e" y="525.24"/>
      </g>
     </g>
     <g id="text_5">
      <!-- 3.6 -->
      <defs>
       <path d="M 33.015625 40.375 
Q 26.375 40.375 22.484375 35.828125 
Q 18.609375 31.296875 18.609375 23.390625 
Q 18.609375 15.53125 22.484375 10.953125 
Q 26.375 6.390625 33.015625 6.390625 
Q 39.65625 6.390625 43.53125 10.953125 
Q 47.40625 15.53125 47.40625 23.390625 
Q 47.40625 31.296875 43.53125 35.828125 
Q 39.65625 40.375 33.015625 40.375 
z
M 52.59375 71.296875 
L 52.59375 62.3125 
Q 48.875 64.0625 45.09375 64.984375 
Q 41.3125 65.921875 37.59375 65.921875 
Q 27.828125 65.921875 22.671875 59.328125 
Q 17.53125 52.734375 16.796875 39.40625 
Q 19.671875 43.65625 24.015625 45.921875 
Q 28.375 48.1875 33.59375 48.1875 
Q 44.578125 48.1875 50.953125 41.515625 
Q 57.328125 34.859375 57.328125 23.390625 
Q 57.328125 12.15625 50.6875 5.359375 
Q 44.046875 -1.421875 33.015625 -1.421875 
Q 20.359375 -1.421875 13.671875 8.265625 
Q 6.984375 17.96875 6.984375 36.375 
Q 6.984375 53.65625 15.1875 63.9375 
Q 23.390625 74.21875 37.203125 74.21875 
Q 40.921875 74.21875 44.703125 73.484375 
Q 48.484375 72.75 52.59375 71.296875 
z
" id="DejaVuSans-54"/>
      </defs>
      <g transform="translate(297.208968 542.877813)scale(0.14 -0.14)">
       <use xlink:href="#DejaVuSans-51"/>
       <use x="63.623047" xlink:href="#DejaVuSans-46"/>
       <use x="95.410156" xlink:href="#DejaVuSans-54"/>
      </g>
     </g>
    </g>
    <g id="xtick_4">
     <g id="line2d_6">
      <g>
       <use style="stroke:#000000;stroke-width:0.8;" x="404.106889" xlink:href="#mc33ba0e87e" y="525.24"/>
      </g>
     </g>
     <g id="text_6">
      <!-- 3.7 -->
      <defs>
       <path d="M 8.203125 72.90625 
L 55.078125 72.90625 
L 55.078125 68.703125 
L 28.609375 0 
L 18.3125 0 
L 43.21875 64.59375 
L 8.203125 64.59375 
z
" id="DejaVuSans-55"/>
      </defs>
      <g transform="translate(392.974702 542.877813)scale(0.14 -0.14)">
       <use xlink:href="#DejaVuSans-51"/>
       <use x="63.623047" xlink:href="#DejaVuSans-46"/>
       <use x="95.410156" xlink:href="#DejaVuSans-55"/>
      </g>
     </g>
    </g>
    <g id="xtick_5">
     <g id="line2d_7">
      <g>
       <use style="stroke:#000000;stroke-width:0.8;" x="499.872624" xlink:href="#mc33ba0e87e" y="525.24"/>
      </g>
     </g>
     <g id="text_7">
      <!-- 3.8 -->
      <defs>
       <path d="M 31.78125 34.625 
Q 24.75 34.625 20.71875 30.859375 
Q 16.703125 27.09375 16.703125 20.515625 
Q 16.703125 13.921875 20.71875 10.15625 
Q 24.75 6.390625 31.78125 6.390625 
Q 38.8125 6.390625 42.859375 10.171875 
Q 46.921875 13.96875 46.921875 20.515625 
Q 46.921875 27.09375 42.890625 30.859375 
Q 38.875 34.625 31.78125 34.625 
z
M 21.921875 38.8125 
Q 15.578125 40.375 12.03125 44.71875 
Q 8.5 49.078125 8.5 55.328125 
Q 8.5 64.0625 14.71875 69.140625 
Q 20.953125 74.21875 31.78125 74.21875 
Q 42.671875 74.21875 48.875 69.140625 
Q 55.078125 64.0625 55.078125 55.328125 
Q 55.078125 49.078125 51.53125 44.71875 
Q 48 40.375 41.703125 38.8125 
Q 48.828125 37.15625 52.796875 32.3125 
Q 56.78125 27.484375 56.78125 20.515625 
Q 56.78125 9.90625 50.3125 4.234375 
Q 43.84375 -1.421875 31.78125 -1.421875 
Q 19.734375 -1.421875 13.25 4.234375 
Q 6.78125 9.90625 6.78125 20.515625 
Q 6.78125 27.484375 10.78125 32.3125 
Q 14.796875 37.15625 21.921875 38.8125 
z
M 18.3125 54.390625 
Q 18.3125 48.734375 21.84375 45.5625 
Q 25.390625 42.390625 31.78125 42.390625 
Q 38.140625 42.390625 41.71875 45.5625 
Q 45.3125 48.734375 45.3125 54.390625 
Q 45.3125 60.0625 41.71875 63.234375 
Q 38.140625 66.40625 31.78125 66.40625 
Q 25.390625 66.40625 21.84375 63.234375 
Q 18.3125 60.0625 18.3125 54.390625 
z
" id="DejaVuSans-56"/>
      </defs>
      <g transform="translate(488.740436 542.877813)scale(0.14 -0.14)">
       <use xlink:href="#DejaVuSans-51"/>
       <use x="63.623047" xlink:href="#DejaVuSans-46"/>
       <use x="95.410156" xlink:href="#DejaVuSans-56"/>
      </g>
     </g>
    </g>
   </g>
   <g id="line2d_8">
    <path clip-path="url(#p0b4723cf89)" d="M 344.061774 525.24 
L 344.061774 402.93 
" style="fill:none;stroke:#ff6384;stroke-dasharray:5.55,2.4;stroke-dashoffset:0;stroke-opacity:0.8;stroke-width:1.5;"/>
   </g>
   <g id="line2d_9">
    <path clip-path="url(#p0b4723cf89)" d="M 257.872613 525.24 
L 257.872613 402.93 
" style="fill:none;stroke:#36a2eb;stroke-dasharray:5.55,2.4;stroke-dashoffset:0;stroke-opacity:0.8;stroke-width:1.5;"/>
   </g>
   <g id="patch_10">
    <path d="M 36 525.24 
L 538.2 525.24 
" style="fill:none;stroke:#000000;stroke-linecap:square;stroke-linejoin:miter;stroke-width:0.8;"/>
   </g>
  </g>
 </g>
 <defs>
  <clipPath id="pce76514b4d">
   <rect height="366.93" width="502.2" x="36" y="36"/>
  </clipPath>
  <clipPath id="p0b4723cf89">
   <rect height="122.31" width="502.2" x="36" y="402.93"/>
  </clipPath>
 </defs>
</svg>
