<?xml version="1.0" encoding="utf-8" standalone="no"?>
<!DOCTYPE svg PUBLIC "-//W3C//DTD SVG 1.1//EN"
  "http://www.w3.org/Graphics/SVG/1.1/DTD/svg11.dtd">
<!-- Created with matplotlib (https://matplotlib.org/) -->
<svg height="581.789375pt" version="1.1" viewBox="0 0 584.16439 581.789375" width="584.16439pt" xmlns="http://www.w3.org/2000/svg" xmlns:xlink="http://www.w3.org/1999/xlink">
 <defs>
  <style type="text/css">
*{stroke-linecap:butt;stroke-linejoin:round;}
  </style>
 </defs>
 <g id="figure_1">
  <g id="patch_1">
   <path d="M 0 581.789375 
L 584.16439 581.789375 
L 584.16439 0 
L 0 0 
z
" style="fill:none;"/>
  </g>
  <g id="axes_1">
   <g id="patch_2">
    <path d="M 45.96439 402.93 
L 548.16439 402.93 
L 548.16439 36 
L 45.96439 36 
z
" style="fill:none;"/>
   </g>
   <g id="PolyCollection_1">
    <defs>
     <path d="M 145.966165 -195.538011 
L 145.966165 -195.650004 
L 149.798195 -195.692234 
L 153.630225 -195.749007 
L 157.462255 -195.8248 
L 161.294284 -195.925281 
L 165.126314 -196.057565 
L 168.958344 -196.230497 
L 172.790374 -196.454982 
L 176.622404 -196.744335 
L 180.454433 -197.114666 
L 184.286463 -197.585273 
L 188.118493 -198.179047 
L 191.950523 -198.922859 
L 195.782553 -199.847921 
L 199.614583 -200.990079 
L 203.446612 -202.390029 
L 207.278642 -204.093399 
L 211.110672 -206.150691 
L 214.942702 -208.617009 
L 218.774732 -211.551575 
L 222.606762 -215.016962 
L 226.438791 -219.078053 
L 230.270821 -223.800667 
L 234.102851 -229.249878 
L 237.934881 -235.488004 
L 241.766911 -242.572312 
L 245.59894 -250.552459 
L 249.43097 -259.467747 
L 253.263 -269.344261 
L 257.09503 -280.192004 
L 260.92706 -292.002137 
L 264.75909 -304.744465 
L 268.591119 -318.365297 
L 272.423149 -332.785841 
L 276.255179 -347.901251 
L 280.087209 -363.580456 
L 283.919239 -379.666871 
L 287.751269 -395.980052 
L 291.583298 -412.31833 
L 295.415328 -428.4624 
L 299.247358 -444.179822 
L 303.079388 -459.230303 
L 306.911418 -473.371627 
L 310.743447 -486.366018 
L 314.575477 -497.986726 
L 318.407507 -508.02457 
L 322.239537 -516.294181 
L 326.071567 -522.639693 
L 329.903597 -526.939623 
L 333.735626 -529.110739 
L 337.567656 -529.110739 
L 341.399686 -526.939623 
L 345.231716 -522.639693 
L 349.063746 -516.294181 
L 352.895776 -508.02457 
L 356.727805 -497.986726 
L 360.559835 -486.366018 
L 364.391865 -473.371627 
L 368.223895 -459.230303 
L 372.055925 -444.179822 
L 375.887954 -428.4624 
L 379.719984 -412.31833 
L 383.552014 -395.980052 
L 387.384044 -379.666871 
L 391.216074 -363.580456 
L 395.048104 -347.901251 
L 398.880133 -332.785841 
L 402.712163 -318.365297 
L 406.544193 -304.744465 
L 410.376223 -292.002137 
L 414.208253 -280.192004 
L 418.040282 -269.344261 
L 421.872312 -259.467747 
L 425.704342 -250.552459 
L 429.536372 -242.572312 
L 433.368402 -235.488004 
L 437.200432 -229.249878 
L 441.032461 -223.800667 
L 444.864491 -219.078053 
L 448.696521 -215.016962 
L 452.528551 -211.551575 
L 456.360581 -208.617009 
L 460.192611 -206.150691 
L 464.02464 -204.093399 
L 467.85667 -202.390029 
L 471.6887 -200.990079 
L 475.52073 -199.847921 
L 479.35276 -198.922859 
L 483.184789 -198.179047 
L 487.016819 -197.585273 
L 490.848849 -197.114666 
L 494.680879 -196.744335 
L 498.512909 -196.454982 
L 502.344939 -196.230497 
L 506.176968 -196.057565 
L 510.008998 -195.925281 
L 513.841028 -195.8248 
L 517.673058 -195.749007 
L 521.505088 -195.692234 
L 525.337118 -195.650004 
L 525.337118 -195.538011 
L 525.337118 -195.538011 
L 521.505088 -195.538011 
L 517.673058 -195.538011 
L 513.841028 -195.538011 
L 510.008998 -195.538011 
L 506.176968 -195.538011 
L 502.344939 -195.538011 
L 498.512909 -195.538011 
L 494.680879 -195.538011 
L 490.848849 -195.538011 
L 487.016819 -195.538011 
L 483.184789 -195.538011 
L 479.35276 -195.538011 
L 475.52073 -195.538011 
L 471.6887 -195.538011 
L 467.85667 -195.538011 
L 464.02464 -195.538011 
L 460.192611 -195.538011 
L 456.360581 -195.538011 
L 452.528551 -195.538011 
L 448.696521 -195.538011 
L 444.864491 -195.538011 
L 441.032461 -195.538011 
L 437.200432 -195.538011 
L 433.368402 -195.538011 
L 429.536372 -195.538011 
L 425.704342 -195.538011 
L 421.872312 -195.538011 
L 418.040282 -195.538011 
L 414.208253 -195.538011 
L 410.376223 -195.538011 
L 406.544193 -195.538011 
L 402.712163 -195.538011 
L 398.880133 -195.538011 
L 395.048104 -195.538011 
L 391.216074 -195.538011 
L 387.384044 -195.538011 
L 383.552014 -195.538011 
L 379.719984 -195.538011 
L 375.887954 -195.538011 
L 372.055925 -195.538011 
L 368.223895 -195.538011 
L 364.391865 -195.538011 
L 360.559835 -195.538011 
L 356.727805 -195.538011 
L 352.895776 -195.538011 
L 349.063746 -195.538011 
L 345.231716 -195.538011 
L 341.399686 -195.538011 
L 337.567656 -195.538011 
L 333.735626 -195.538011 
L 329.903597 -195.538011 
L 326.071567 -195.538011 
L 322.239537 -195.538011 
L 318.407507 -195.538011 
L 314.575477 -195.538011 
L 310.743447 -195.538011 
L 306.911418 -195.538011 
L 303.079388 -195.538011 
L 299.247358 -195.538011 
L 295.415328 -195.538011 
L 291.583298 -195.538011 
L 287.751269 -195.538011 
L 283.919239 -195.538011 
L 280.087209 -195.538011 
L 276.255179 -195.538011 
L 272.423149 -195.538011 
L 268.591119 -195.538011 
L 264.75909 -195.538011 
L 260.92706 -195.538011 
L 257.09503 -195.538011 
L 253.263 -195.538011 
L 249.43097 -195.538011 
L 245.59894 -195.538011 
L 241.766911 -195.538011 
L 237.934881 -195.538011 
L 234.102851 -195.538011 
L 230.270821 -195.538011 
L 226.438791 -195.538011 
L 222.606762 -195.538011 
L 218.774732 -195.538011 
L 214.942702 -195.538011 
L 211.110672 -195.538011 
L 207.278642 -195.538011 
L 203.446612 -195.538011 
L 199.614583 -195.538011 
L 195.782553 -195.538011 
L 191.950523 -195.538011 
L 188.118493 -195.538011 
L 184.286463 -195.538011 
L 180.454433 -195.538011 
L 176.622404 -195.538011 
L 172.790374 -195.538011 
L 168.958344 -195.538011 
L 165.126314 -195.538011 
L 161.294284 -195.538011 
L 157.462255 -195.538011 
L 153.630225 -195.538011 
L 149.798195 -195.538011 
L 145.966165 -195.538011 
z
" id="m3a2848d234" style="stroke:#ff6384;stroke-opacity:0.5;"/>
    </defs>
    <g clip-path="url(#p77e532aca0)">
     <use style="fill:#ff6384;fill-opacity:0.5;stroke:#ff6384;stroke-opacity:0.5;" x="0" xlink:href="#m3a2848d234" y="581.789375"/>
    </g>
   </g>
   <g id="PolyCollection_2">
    <defs>
     <path d="M 68.791663 -195.538011 
L 68.791663 -195.642426 
L 72.901814 -195.681799 
L 77.011964 -195.73473 
L 81.122115 -195.805394 
L 85.232265 -195.899076 
L 89.342416 -196.022408 
L 93.452567 -196.183639 
L 97.562717 -196.392933 
L 101.672868 -196.662707 
L 105.783018 -197.007979 
L 109.893169 -197.446741 
L 114.00332 -198.000336 
L 118.11347 -198.693817 
L 122.223621 -199.556283 
L 126.333772 -200.621155 
L 130.443922 -201.926374 
L 134.554073 -203.514483 
L 138.664223 -205.432565 
L 142.774374 -207.731995 
L 146.884525 -210.467988 
L 150.994675 -213.698884 
L 155.104826 -217.485173 
L 159.214976 -221.888223 
L 163.325127 -226.968703 
L 167.435278 -232.784715 
L 171.545428 -239.389651 
L 175.655579 -246.829807 
L 179.765729 -255.141825 
L 183.87588 -264.350027 
L 187.986031 -274.463738 
L 192.096181 -285.474718 
L 196.206332 -297.354813 
L 200.316482 -310.053966 
L 204.426633 -323.498718 
L 208.536784 -337.591316 
L 212.646934 -352.209559 
L 216.757085 -367.207458 
L 220.867236 -382.416778 
L 224.977386 -397.649497 
L 229.087537 -412.701149 
L 233.197687 -427.355023 
L 237.307838 -441.387086 
L 241.417989 -454.571512 
L 245.528139 -466.686614 
L 249.63829 -477.520986 
L 253.74844 -486.879601 
L 257.858591 -494.589634 
L 261.968742 -500.505765 
L 266.078892 -504.514733 
L 270.189043 -506.538936 
L 274.299193 -506.538936 
L 278.409344 -504.514733 
L 282.519495 -500.505765 
L 286.629645 -494.589634 
L 290.739796 -486.879601 
L 294.849946 -477.520986 
L 298.960097 -466.686614 
L 303.070248 -454.571512 
L 307.180398 -441.387086 
L 311.290549 -427.355023 
L 315.4007 -412.701149 
L 319.51085 -397.649497 
L 323.621001 -382.416778 
L 327.731151 -367.207458 
L 331.841302 -352.209559 
L 335.951453 -337.591316 
L 340.061603 -323.498718 
L 344.171754 -310.053966 
L 348.281904 -297.354813 
L 352.392055 -285.474718 
L 356.502206 -274.463738 
L 360.612356 -264.350027 
L 364.722507 -255.141825 
L 368.832657 -246.829807 
L 372.942808 -239.389651 
L 377.052959 -232.784715 
L 381.163109 -226.968703 
L 385.27326 -221.888223 
L 389.38341 -217.485173 
L 393.493561 -213.698884 
L 397.603712 -210.467988 
L 401.713862 -207.731995 
L 405.824013 -205.432565 
L 409.934164 -203.514483 
L 414.044314 -201.926374 
L 418.154465 -200.621155 
L 422.264615 -199.556283 
L 426.374766 -198.693817 
L 430.484917 -198.000336 
L 434.595067 -197.446741 
L 438.705218 -197.007979 
L 442.815368 -196.662707 
L 446.925519 -196.392933 
L 451.03567 -196.183639 
L 455.14582 -196.022408 
L 459.255971 -195.899076 
L 463.366121 -195.805394 
L 467.476272 -195.73473 
L 471.586423 -195.681799 
L 475.696573 -195.642426 
L 475.696573 -195.538011 
L 475.696573 -195.538011 
L 471.586423 -195.538011 
L 467.476272 -195.538011 
L 463.366121 -195.538011 
L 459.255971 -195.538011 
L 455.14582 -195.538011 
L 451.03567 -195.538011 
L 446.925519 -195.538011 
L 442.815368 -195.538011 
L 438.705218 -195.538011 
L 434.595067 -195.538011 
L 430.484917 -195.538011 
L 426.374766 -195.538011 
L 422.264615 -195.538011 
L 418.154465 -195.538011 
L 414.044314 -195.538011 
L 409.934164 -195.538011 
L 405.824013 -195.538011 
L 401.713862 -195.538011 
L 397.603712 -195.538011 
L 393.493561 -195.538011 
L 389.38341 -195.538011 
L 385.27326 -195.538011 
L 381.163109 -195.538011 
L 377.052959 -195.538011 
L 372.942808 -195.538011 
L 368.832657 -195.538011 
L 364.722507 -195.538011 
L 360.612356 -195.538011 
L 356.502206 -195.538011 
L 352.392055 -195.538011 
L 348.281904 -195.538011 
L 344.171754 -195.538011 
L 340.061603 -195.538011 
L 335.951453 -195.538011 
L 331.841302 -195.538011 
L 327.731151 -195.538011 
L 323.621001 -195.538011 
L 319.51085 -195.538011 
L 315.4007 -195.538011 
L 311.290549 -195.538011 
L 307.180398 -195.538011 
L 303.070248 -195.538011 
L 298.960097 -195.538011 
L 294.849946 -195.538011 
L 290.739796 -195.538011 
L 286.629645 -195.538011 
L 282.519495 -195.538011 
L 278.409344 -195.538011 
L 274.299193 -195.538011 
L 270.189043 -195.538011 
L 266.078892 -195.538011 
L 261.968742 -195.538011 
L 257.858591 -195.538011 
L 253.74844 -195.538011 
L 249.63829 -195.538011 
L 245.528139 -195.538011 
L 241.417989 -195.538011 
L 237.307838 -195.538011 
L 233.197687 -195.538011 
L 229.087537 -195.538011 
L 224.977386 -195.538011 
L 220.867236 -195.538011 
L 216.757085 -195.538011 
L 212.646934 -195.538011 
L 208.536784 -195.538011 
L 204.426633 -195.538011 
L 200.316482 -195.538011 
L 196.206332 -195.538011 
L 192.096181 -195.538011 
L 187.986031 -195.538011 
L 183.87588 -195.538011 
L 179.765729 -195.538011 
L 175.655579 -195.538011 
L 171.545428 -195.538011 
L 167.435278 -195.538011 
L 163.325127 -195.538011 
L 159.214976 -195.538011 
L 155.104826 -195.538011 
L 150.994675 -195.538011 
L 146.884525 -195.538011 
L 142.774374 -195.538011 
L 138.664223 -195.538011 
L 134.554073 -195.538011 
L 130.443922 -195.538011 
L 126.333772 -195.538011 
L 122.223621 -195.538011 
L 118.11347 -195.538011 
L 114.00332 -195.538011 
L 109.893169 -195.538011 
L 105.783018 -195.538011 
L 101.672868 -195.538011 
L 97.562717 -195.538011 
L 93.452567 -195.538011 
L 89.342416 -195.538011 
L 85.232265 -195.538011 
L 81.122115 -195.538011 
L 77.011964 -195.538011 
L 72.901814 -195.538011 
L 68.791663 -195.538011 
z
" id="m028304935d" style="stroke:#36a2eb;stroke-opacity:0.5;"/>
    </defs>
    <g clip-path="url(#p77e532aca0)">
     <use style="fill:#36a2eb;fill-opacity:0.5;stroke:#36a2eb;stroke-opacity:0.5;" x="0" xlink:href="#m028304935d" y="581.789375"/>
    </g>
   </g>
   <g id="line2d_1">
    <path clip-path="url(#p77e532aca0)" d="M 145.966165 386.139371 
L 149.798195 386.097141 
L 153.630225 386.040368 
L 157.462255 385.964575 
L 161.294284 385.864094 
L 165.126314 385.73181 
L 168.958344 385.558878 
L 172.790374 385.334393 
L 176.622404 385.04504 
L 180.454433 384.674709 
L 184.286463 384.204102 
L 188.118493 383.610328 
L 191.950523 382.866516 
L 195.782553 381.941454 
L 199.614583 380.799296 
L 203.446612 379.399346 
L 207.278642 377.695976 
L 211.110672 375.638684 
L 214.942702 373.172366 
L 218.774732 370.2378 
L 222.606762 366.772413 
L 226.438791 362.711322 
L 230.270821 357.988708 
L 234.102851 352.539497 
L 237.934881 346.301371 
L 241.766911 339.217063 
L 245.59894 331.236916 
L 249.43097 322.321628 
L 253.263 312.445114 
L 257.09503 301.597371 
L 260.92706 289.787238 
L 264.75909 277.04491 
L 268.591119 263.424078 
L 272.423149 249.003534 
L 276.255179 233.888124 
L 280.087209 218.208919 
L 283.919239 202.122504 
L 287.751269 185.809323 
L 291.583298 169.471045 
L 295.415328 153.326975 
L 299.247358 137.609553 
L 303.079388 122.559072 
L 306.911418 108.417748 
L 310.743447 95.423357 
L 314.575477 83.802649 
L 318.407507 73.764805 
L 322.239537 65.495194 
L 326.071567 59.149682 
L 329.903597 54.849752 
L 333.735626 52.678636 
L 337.567656 52.678636 
L 341.399686 54.849752 
L 345.231716 59.149682 
L 349.063746 65.495194 
L 352.895776 73.764805 
L 356.727805 83.802649 
L 360.559835 95.423357 
L 364.391865 108.417748 
L 368.223895 122.559072 
L 372.055925 137.609553 
L 375.887954 153.326975 
L 379.719984 169.471045 
L 383.552014 185.809323 
L 387.384044 202.122504 
L 391.216074 218.208919 
L 395.048104 233.888124 
L 398.880133 249.003534 
L 402.712163 263.424078 
L 406.544193 277.04491 
L 410.376223 289.787238 
L 414.208253 301.597371 
L 418.040282 312.445114 
L 421.872312 322.321628 
L 425.704342 331.236916 
L 429.536372 339.217063 
L 433.368402 346.301371 
L 437.200432 352.539497 
L 441.032461 357.988708 
L 444.864491 362.711322 
L 448.696521 366.772413 
L 452.528551 370.2378 
L 456.360581 373.172366 
L 460.192611 375.638684 
L 464.02464 377.695976 
L 467.85667 379.399346 
L 471.6887 380.799296 
L 475.52073 381.941454 
L 479.35276 382.866516 
L 483.184789 383.610328 
L 487.016819 384.204102 
L 490.848849 384.674709 
L 494.680879 385.04504 
L 498.512909 385.334393 
L 502.344939 385.558878 
L 506.176968 385.73181 
L 510.008998 385.864094 
L 513.841028 385.964575 
L 517.673058 386.040368 
L 521.505088 386.097141 
L 525.337118 386.139371 
" style="fill:none;stroke:#ff6384;stroke-linecap:square;"/>
   </g>
   <g id="line2d_2">
    <path clip-path="url(#p77e532aca0)" d="M 68.791663 386.146949 
L 72.901814 386.107576 
L 77.011964 386.054645 
L 81.122115 385.983981 
L 85.232265 385.890299 
L 89.342416 385.766967 
L 93.452567 385.605736 
L 97.562717 385.396442 
L 101.672868 385.126668 
L 105.783018 384.781396 
L 109.893169 384.342634 
L 114.00332 383.789039 
L 118.11347 383.095558 
L 122.223621 382.233092 
L 126.333772 381.16822 
L 130.443922 379.863001 
L 134.554073 378.274892 
L 138.664223 376.35681 
L 142.774374 374.05738 
L 146.884525 371.321387 
L 150.994675 368.090491 
L 155.104826 364.304202 
L 159.214976 359.901152 
L 163.325127 354.820672 
L 167.435278 349.00466 
L 171.545428 342.399724 
L 175.655579 334.959568 
L 179.765729 326.64755 
L 183.87588 317.439348 
L 187.986031 307.325637 
L 192.096181 296.314657 
L 196.206332 284.434562 
L 200.316482 271.735409 
L 204.426633 258.290657 
L 208.536784 244.198059 
L 212.646934 229.579816 
L 216.757085 214.581917 
L 220.867236 199.372597 
L 224.977386 184.139878 
L 229.087537 169.088226 
L 233.197687 154.434352 
L 237.307838 140.402289 
L 241.417989 127.217863 
L 245.528139 115.102761 
L 249.63829 104.268389 
L 253.74844 94.909774 
L 257.858591 87.199741 
L 261.968742 81.28361 
L 266.078892 77.274642 
L 270.189043 75.250439 
L 274.299193 75.250439 
L 278.409344 77.274642 
L 282.519495 81.28361 
L 286.629645 87.199741 
L 290.739796 94.909774 
L 294.849946 104.268389 
L 298.960097 115.102761 
L 303.070248 127.217863 
L 307.180398 140.402289 
L 311.290549 154.434352 
L 315.4007 169.088226 
L 319.51085 184.139878 
L 323.621001 199.372597 
L 327.731151 214.581917 
L 331.841302 229.579816 
L 335.951453 244.198059 
L 340.061603 258.290657 
L 344.171754 271.735409 
L 348.281904 284.434562 
L 352.392055 296.314657 
L 356.502206 307.325637 
L 360.612356 317.439348 
L 364.722507 326.64755 
L 368.832657 334.959568 
L 372.942808 342.399724 
L 377.052959 349.00466 
L 381.163109 354.820672 
L 385.27326 359.901152 
L 389.38341 364.304202 
L 393.493561 368.090491 
L 397.603712 371.321387 
L 401.713862 374.05738 
L 405.824013 376.35681 
L 409.934164 378.274892 
L 414.044314 379.863001 
L 418.154465 381.16822 
L 422.264615 382.233092 
L 426.374766 383.095558 
L 430.484917 383.789039 
L 434.595067 384.342634 
L 438.705218 384.781396 
L 442.815368 385.126668 
L 446.925519 385.396442 
L 451.03567 385.605736 
L 455.14582 385.766967 
L 459.255971 385.890299 
L 463.366121 385.983981 
L 467.476272 386.054645 
L 471.586423 386.107576 
L 475.696573 386.146949 
" style="fill:none;stroke:#36a2eb;stroke-linecap:square;"/>
   </g>
   <g id="patch_3">
    <path d="M 45.96439 402.93 
L 548.16439 402.93 
" style="fill:none;stroke:#000000;stroke-linecap:square;stroke-linejoin:miter;stroke-width:0.8;"/>
   </g>
   <g id="legend_1">
    <g id="patch_4">
     <path d="M 424.883453 88.29875 
L 538.36439 88.29875 
Q 541.16439 88.29875 541.16439 85.49875 
L 541.16439 45.8 
Q 541.16439 43 538.36439 43 
L 424.883453 43 
Q 422.083453 43 422.083453 45.8 
L 422.083453 85.49875 
Q 422.083453 88.29875 424.883453 88.29875 
z
" style="fill:#ffffff;opacity:0.8;stroke:#cccccc;stroke-linejoin:miter;"/>
    </g>
    <g id="patch_5">
     <path d="M 427.683453 59.237813 
L 455.683453 59.237813 
L 455.683453 49.437813 
L 427.683453 49.437813 
z
" style="fill:#ff6384;opacity:0.5;stroke:#ff6384;stroke-linejoin:miter;"/>
    </g>
    <g id="text_1">
     <!-- sidemenu -->
     <defs>
      <path d="M 44.28125 53.078125 
L 44.28125 44.578125 
Q 40.484375 46.53125 36.375 47.5 
Q 32.28125 48.484375 27.875 48.484375 
Q 21.1875 48.484375 17.84375 46.4375 
Q 14.5 44.390625 14.5 40.28125 
Q 14.5 37.15625 16.890625 35.375 
Q 19.28125 33.59375 26.515625 31.984375 
L 29.59375 31.296875 
Q 39.15625 29.25 43.1875 25.515625 
Q 47.21875 21.78125 47.21875 15.09375 
Q 47.21875 7.46875 41.1875 3.015625 
Q 35.15625 -1.421875 24.609375 -1.421875 
Q 20.21875 -1.421875 15.453125 -0.5625 
Q 10.6875 0.296875 5.421875 2 
L 5.421875 11.28125 
Q 10.40625 8.6875 15.234375 7.390625 
Q 20.0625 6.109375 24.8125 6.109375 
Q 31.15625 6.109375 34.5625 8.28125 
Q 37.984375 10.453125 37.984375 14.40625 
Q 37.984375 18.0625 35.515625 20.015625 
Q 33.0625 21.96875 24.703125 23.78125 
L 21.578125 24.515625 
Q 13.234375 26.265625 9.515625 29.90625 
Q 5.8125 33.546875 5.8125 39.890625 
Q 5.8125 47.609375 11.28125 51.796875 
Q 16.75 56 26.8125 56 
Q 31.78125 56 36.171875 55.265625 
Q 40.578125 54.546875 44.28125 53.078125 
z
" id="DejaVuSans-115"/>
      <path d="M 9.421875 54.6875 
L 18.40625 54.6875 
L 18.40625 0 
L 9.421875 0 
z
M 9.421875 75.984375 
L 18.40625 75.984375 
L 18.40625 64.59375 
L 9.421875 64.59375 
z
" id="DejaVuSans-105"/>
      <path d="M 45.40625 46.390625 
L 45.40625 75.984375 
L 54.390625 75.984375 
L 54.390625 0 
L 45.40625 0 
L 45.40625 8.203125 
Q 42.578125 3.328125 38.25 0.953125 
Q 33.9375 -1.421875 27.875 -1.421875 
Q 17.96875 -1.421875 11.734375 6.484375 
Q 5.515625 14.40625 5.515625 27.296875 
Q 5.515625 40.1875 11.734375 48.09375 
Q 17.96875 56 27.875 56 
Q 33.9375 56 38.25 53.625 
Q 42.578125 51.265625 45.40625 46.390625 
z
M 14.796875 27.296875 
Q 14.796875 17.390625 18.875 11.75 
Q 22.953125 6.109375 30.078125 6.109375 
Q 37.203125 6.109375 41.296875 11.75 
Q 45.40625 17.390625 45.40625 27.296875 
Q 45.40625 37.203125 41.296875 42.84375 
Q 37.203125 48.484375 30.078125 48.484375 
Q 22.953125 48.484375 18.875 42.84375 
Q 14.796875 37.203125 14.796875 27.296875 
z
" id="DejaVuSans-100"/>
      <path d="M 56.203125 29.59375 
L 56.203125 25.203125 
L 14.890625 25.203125 
Q 15.484375 15.921875 20.484375 11.0625 
Q 25.484375 6.203125 34.421875 6.203125 
Q 39.59375 6.203125 44.453125 7.46875 
Q 49.3125 8.734375 54.109375 11.28125 
L 54.109375 2.78125 
Q 49.265625 0.734375 44.1875 -0.34375 
Q 39.109375 -1.421875 33.890625 -1.421875 
Q 20.796875 -1.421875 13.15625 6.1875 
Q 5.515625 13.8125 5.515625 26.8125 
Q 5.515625 40.234375 12.765625 48.109375 
Q 20.015625 56 32.328125 56 
Q 43.359375 56 49.78125 48.890625 
Q 56.203125 41.796875 56.203125 29.59375 
z
M 47.21875 32.234375 
Q 47.125 39.59375 43.09375 43.984375 
Q 39.0625 48.390625 32.421875 48.390625 
Q 24.90625 48.390625 20.390625 44.140625 
Q 15.875 39.890625 15.1875 32.171875 
z
" id="DejaVuSans-101"/>
      <path d="M 52 44.1875 
Q 55.375 50.25 60.0625 53.125 
Q 64.75 56 71.09375 56 
Q 79.640625 56 84.28125 50.015625 
Q 88.921875 44.046875 88.921875 33.015625 
L 88.921875 0 
L 79.890625 0 
L 79.890625 32.71875 
Q 79.890625 40.578125 77.09375 44.375 
Q 74.3125 48.1875 68.609375 48.1875 
Q 61.625 48.1875 57.5625 43.546875 
Q 53.515625 38.921875 53.515625 30.90625 
L 53.515625 0 
L 44.484375 0 
L 44.484375 32.71875 
Q 44.484375 40.625 41.703125 44.40625 
Q 38.921875 48.1875 33.109375 48.1875 
Q 26.21875 48.1875 22.15625 43.53125 
Q 18.109375 38.875 18.109375 30.90625 
L 18.109375 0 
L 9.078125 0 
L 9.078125 54.6875 
L 18.109375 54.6875 
L 18.109375 46.1875 
Q 21.1875 51.21875 25.484375 53.609375 
Q 29.78125 56 35.6875 56 
Q 41.65625 56 45.828125 52.96875 
Q 50 49.953125 52 44.1875 
z
" id="DejaVuSans-109"/>
      <path d="M 54.890625 33.015625 
L 54.890625 0 
L 45.90625 0 
L 45.90625 32.71875 
Q 45.90625 40.484375 42.875 44.328125 
Q 39.84375 48.1875 33.796875 48.1875 
Q 26.515625 48.1875 22.3125 43.546875 
Q 18.109375 38.921875 18.109375 30.90625 
L 18.109375 0 
L 9.078125 0 
L 9.078125 54.6875 
L 18.109375 54.6875 
L 18.109375 46.1875 
Q 21.34375 51.125 25.703125 53.5625 
Q 30.078125 56 35.796875 56 
Q 45.21875 56 50.046875 50.171875 
Q 54.890625 44.34375 54.890625 33.015625 
z
" id="DejaVuSans-110"/>
      <path d="M 8.5 21.578125 
L 8.5 54.6875 
L 17.484375 54.6875 
L 17.484375 21.921875 
Q 17.484375 14.15625 20.5 10.265625 
Q 23.53125 6.390625 29.59375 6.390625 
Q 36.859375 6.390625 41.078125 11.03125 
Q 45.3125 15.671875 45.3125 23.6875 
L 45.3125 54.6875 
L 54.296875 54.6875 
L 54.296875 0 
L 45.3125 0 
L 45.3125 8.40625 
Q 42.046875 3.421875 37.71875 1 
Q 33.40625 -1.421875 27.6875 -1.421875 
Q 18.265625 -1.421875 13.375 4.4375 
Q 8.5 10.296875 8.5 21.578125 
z
M 31.109375 56 
z
" id="DejaVuSans-117"/>
     </defs>
     <g transform="translate(466.883453 59.237813)scale(0.14 -0.14)">
      <use xlink:href="#DejaVuSans-115"/>
      <use x="52.099609" xlink:href="#DejaVuSans-105"/>
      <use x="79.882812" xlink:href="#DejaVuSans-100"/>
      <use x="143.359375" xlink:href="#DejaVuSans-101"/>
      <use x="204.882812" xlink:href="#DejaVuSans-109"/>
      <use x="302.294922" xlink:href="#DejaVuSans-101"/>
      <use x="363.818359" xlink:href="#DejaVuSans-110"/>
      <use x="427.197266" xlink:href="#DejaVuSans-117"/>
     </g>
    </g>
    <g id="patch_6">
     <path d="M 427.683453 79.787188 
L 455.683453 79.787188 
L 455.683453 69.987188 
L 427.683453 69.987188 
z
" style="fill:#36a2eb;opacity:0.5;stroke:#36a2eb;stroke-linejoin:miter;"/>
    </g>
    <g id="text_2">
     <!-- tabbar -->
     <defs>
      <path d="M 18.3125 70.21875 
L 18.3125 54.6875 
L 36.8125 54.6875 
L 36.8125 47.703125 
L 18.3125 47.703125 
L 18.3125 18.015625 
Q 18.3125 11.328125 20.140625 9.421875 
Q 21.96875 7.515625 27.59375 7.515625 
L 36.8125 7.515625 
L 36.8125 0 
L 27.59375 0 
Q 17.1875 0 13.234375 3.875 
Q 9.28125 7.765625 9.28125 18.015625 
L 9.28125 47.703125 
L 2.6875 47.703125 
L 2.6875 54.6875 
L 9.28125 54.6875 
L 9.28125 70.21875 
z
" id="DejaVuSans-116"/>
      <path d="M 34.28125 27.484375 
Q 23.390625 27.484375 19.1875 25 
Q 14.984375 22.515625 14.984375 16.5 
Q 14.984375 11.71875 18.140625 8.90625 
Q 21.296875 6.109375 26.703125 6.109375 
Q 34.1875 6.109375 38.703125 11.40625 
Q 43.21875 16.703125 43.21875 25.484375 
L 43.21875 27.484375 
z
M 52.203125 31.203125 
L 52.203125 0 
L 43.21875 0 
L 43.21875 8.296875 
Q 40.140625 3.328125 35.546875 0.953125 
Q 30.953125 -1.421875 24.3125 -1.421875 
Q 15.921875 -1.421875 10.953125 3.296875 
Q 6 8.015625 6 15.921875 
Q 6 25.140625 12.171875 29.828125 
Q 18.359375 34.515625 30.609375 34.515625 
L 43.21875 34.515625 
L 43.21875 35.40625 
Q 43.21875 41.609375 39.140625 45 
Q 35.0625 48.390625 27.6875 48.390625 
Q 23 48.390625 18.546875 47.265625 
Q 14.109375 46.140625 10.015625 43.890625 
L 10.015625 52.203125 
Q 14.9375 54.109375 19.578125 55.046875 
Q 24.21875 56 28.609375 56 
Q 40.484375 56 46.34375 49.84375 
Q 52.203125 43.703125 52.203125 31.203125 
z
" id="DejaVuSans-97"/>
      <path d="M 48.6875 27.296875 
Q 48.6875 37.203125 44.609375 42.84375 
Q 40.53125 48.484375 33.40625 48.484375 
Q 26.265625 48.484375 22.1875 42.84375 
Q 18.109375 37.203125 18.109375 27.296875 
Q 18.109375 17.390625 22.1875 11.75 
Q 26.265625 6.109375 33.40625 6.109375 
Q 40.53125 6.109375 44.609375 11.75 
Q 48.6875 17.390625 48.6875 27.296875 
z
M 18.109375 46.390625 
Q 20.953125 51.265625 25.265625 53.625 
Q 29.59375 56 35.59375 56 
Q 45.5625 56 51.78125 48.09375 
Q 58.015625 40.1875 58.015625 27.296875 
Q 58.015625 14.40625 51.78125 6.484375 
Q 45.5625 -1.421875 35.59375 -1.421875 
Q 29.59375 -1.421875 25.265625 0.953125 
Q 20.953125 3.328125 18.109375 8.203125 
L 18.109375 0 
L 9.078125 0 
L 9.078125 75.984375 
L 18.109375 75.984375 
z
" id="DejaVuSans-98"/>
      <path d="M 41.109375 46.296875 
Q 39.59375 47.171875 37.8125 47.578125 
Q 36.03125 48 33.890625 48 
Q 26.265625 48 22.1875 43.046875 
Q 18.109375 38.09375 18.109375 28.8125 
L 18.109375 0 
L 9.078125 0 
L 9.078125 54.6875 
L 18.109375 54.6875 
L 18.109375 46.1875 
Q 20.953125 51.171875 25.484375 53.578125 
Q 30.03125 56 36.53125 56 
Q 37.453125 56 38.578125 55.875 
Q 39.703125 55.765625 41.0625 55.515625 
z
" id="DejaVuSans-114"/>
     </defs>
     <g transform="translate(466.883453 79.787188)scale(0.14 -0.14)">
      <use xlink:href="#DejaVuSans-116"/>
      <use x="39.208984" xlink:href="#DejaVuSans-97"/>
      <use x="100.488281" xlink:href="#DejaVuSans-98"/>
      <use x="163.964844" xlink:href="#DejaVuSans-98"/>
      <use x="227.441406" xlink:href="#DejaVuSans-97"/>
      <use x="288.720703" xlink:href="#DejaVuSans-114"/>
     </g>
    </g>
   </g>
  </g>
  <g id="axes_2">
   <g id="patch_7">
    <path d="M 45.96439 525.24 
L 548.16439 525.24 
L 548.16439 402.93 
L 45.96439 402.93 
z
" style="fill:none;"/>
   </g>
   <g id="patch_8">
    <path clip-path="url(#p0e28ab0915)" d="M 242.705758 519.680455 
L 428.597525 519.680455 
L 428.597525 482.616818 
L 242.705758 482.616818 
z
" style="fill:#ff6384;opacity:0.5;"/>
   </g>
   <g id="patch_9">
    <path clip-path="url(#p0e28ab0915)" d="M 172.552415 445.553182 
L 371.935821 445.553182 
L 371.935821 408.489545 
L 172.552415 408.489545 
z
" style="fill:#36a2eb;opacity:0.5;"/>
   </g>
   <g id="matplotlib.axis_1">
    <g id="xtick_1">
     <g id="line2d_3">
      <defs>
       <path d="M 0 0 
L 0 3.5 
" id="mca6337b115" style="stroke:#000000;stroke-width:0.8;"/>
      </defs>
      <g>
       <use style="stroke:#000000;stroke-width:0.8;" x="51.585938" xlink:href="#mca6337b115" y="525.24"/>
      </g>
     </g>
     <g id="text_3">
      <!-- 4.75 -->
      <defs>
       <path d="M 37.796875 64.3125 
L 12.890625 25.390625 
L 37.796875 25.390625 
z
M 35.203125 72.90625 
L 47.609375 72.90625 
L 47.609375 25.390625 
L 58.015625 25.390625 
L 58.015625 17.1875 
L 47.609375 17.1875 
L 47.609375 0 
L 37.796875 0 
L 37.796875 17.1875 
L 4.890625 17.1875 
L 4.890625 26.703125 
z
" id="DejaVuSans-52"/>
       <path d="M 10.6875 12.40625 
L 21 12.40625 
L 21 0 
L 10.6875 0 
z
" id="DejaVuSans-46"/>
       <path d="M 8.203125 72.90625 
L 55.078125 72.90625 
L 55.078125 68.703125 
L 28.609375 0 
L 18.3125 0 
L 43.21875 64.59375 
L 8.203125 64.59375 
z
" id="DejaVuSans-55"/>
       <path d="M 10.796875 72.90625 
L 49.515625 72.90625 
L 49.515625 64.59375 
L 19.828125 64.59375 
L 19.828125 46.734375 
Q 21.96875 47.46875 24.109375 47.828125 
Q 26.265625 48.1875 28.421875 48.1875 
Q 40.625 48.1875 47.75 41.5 
Q 54.890625 34.8125 54.890625 23.390625 
Q 54.890625 11.625 47.5625 5.09375 
Q 40.234375 -1.421875 26.90625 -1.421875 
Q 22.3125 -1.421875 17.546875 -0.640625 
Q 12.796875 0.140625 7.71875 1.703125 
L 7.71875 11.625 
Q 12.109375 9.234375 16.796875 8.0625 
Q 21.484375 6.890625 26.703125 6.890625 
Q 35.15625 6.890625 40.078125 11.328125 
Q 45.015625 15.765625 45.015625 23.390625 
Q 45.015625 31 40.078125 35.4375 
Q 35.15625 39.890625 26.703125 39.890625 
Q 22.75 39.890625 18.8125 39.015625 
Q 14.890625 38.140625 10.796875 36.28125 
z
" id="DejaVuSans-53"/>
      </defs>
      <g transform="translate(36 542.877813)scale(0.14 -0.14)">
       <use xlink:href="#DejaVuSans-52"/>
       <use x="63.623047" xlink:href="#DejaVuSans-46"/>
       <use x="95.410156" xlink:href="#DejaVuSans-55"/>
       <use x="159.033203" xlink:href="#DejaVuSans-53"/>
      </g>
     </g>
    </g>
    <g id="xtick_2">
     <g id="line2d_4">
      <g>
       <use style="stroke:#000000;stroke-width:0.8;" x="114.993461" xlink:href="#mca6337b115" y="525.24"/>
      </g>
     </g>
     <g id="text_4">
      <!-- 5.00 -->
      <defs>
       <path d="M 31.78125 66.40625 
Q 24.171875 66.40625 20.328125 58.90625 
Q 16.5 51.421875 16.5 36.375 
Q 16.5 21.390625 20.328125 13.890625 
Q 24.171875 6.390625 31.78125 6.390625 
Q 39.453125 6.390625 43.28125 13.890625 
Q 47.125 21.390625 47.125 36.375 
Q 47.125 51.421875 43.28125 58.90625 
Q 39.453125 66.40625 31.78125 66.40625 
z
M 31.78125 74.21875 
Q 44.046875 74.21875 50.515625 64.515625 
Q 56.984375 54.828125 56.984375 36.375 
Q 56.984375 17.96875 50.515625 8.265625 
Q 44.046875 -1.421875 31.78125 -1.421875 
Q 19.53125 -1.421875 13.0625 8.265625 
Q 6.59375 17.96875 6.59375 36.375 
Q 6.59375 54.828125 13.0625 64.515625 
Q 19.53125 74.21875 31.78125 74.21875 
z
" id="DejaVuSans-48"/>
      </defs>
      <g transform="translate(99.407523 542.877813)scale(0.14 -0.14)">
       <use xlink:href="#DejaVuSans-53"/>
       <use x="63.623047" xlink:href="#DejaVuSans-46"/>
       <use x="95.410156" xlink:href="#DejaVuSans-48"/>
       <use x="159.033203" xlink:href="#DejaVuSans-48"/>
      </g>
     </g>
    </g>
    <g id="xtick_3">
     <g id="line2d_5">
      <g>
       <use style="stroke:#000000;stroke-width:0.8;" x="178.400984" xlink:href="#mca6337b115" y="525.24"/>
      </g>
     </g>
     <g id="text_5">
      <!-- 5.25 -->
      <defs>
       <path d="M 19.1875 8.296875 
L 53.609375 8.296875 
L 53.609375 0 
L 7.328125 0 
L 7.328125 8.296875 
Q 12.9375 14.109375 22.625 23.890625 
Q 32.328125 33.6875 34.8125 36.53125 
Q 39.546875 41.84375 41.421875 45.53125 
Q 43.3125 49.21875 43.3125 52.78125 
Q 43.3125 58.59375 39.234375 62.25 
Q 35.15625 65.921875 28.609375 65.921875 
Q 23.96875 65.921875 18.8125 64.3125 
Q 13.671875 62.703125 7.8125 59.421875 
L 7.8125 69.390625 
Q 13.765625 71.78125 18.9375 73 
Q 24.125 74.21875 28.421875 74.21875 
Q 39.75 74.21875 46.484375 68.546875 
Q 53.21875 62.890625 53.21875 53.421875 
Q 53.21875 48.921875 51.53125 44.890625 
Q 49.859375 40.875 45.40625 35.40625 
Q 44.1875 33.984375 37.640625 27.21875 
Q 31.109375 20.453125 19.1875 8.296875 
z
" id="DejaVuSans-50"/>
      </defs>
      <g transform="translate(162.815046 542.877813)scale(0.14 -0.14)">
       <use xlink:href="#DejaVuSans-53"/>
       <use x="63.623047" xlink:href="#DejaVuSans-46"/>
       <use x="95.410156" xlink:href="#DejaVuSans-50"/>
       <use x="159.033203" xlink:href="#DejaVuSans-53"/>
      </g>
     </g>
    </g>
    <g id="xtick_4">
     <g id="line2d_6">
      <g>
       <use style="stroke:#000000;stroke-width:0.8;" x="241.808507" xlink:href="#mca6337b115" y="525.24"/>
      </g>
     </g>
     <g id="text_6">
      <!-- 5.50 -->
      <g transform="translate(226.22257 542.877813)scale(0.14 -0.14)">
       <use xlink:href="#DejaVuSans-53"/>
       <use x="63.623047" xlink:href="#DejaVuSans-46"/>
       <use x="95.410156" xlink:href="#DejaVuSans-53"/>
       <use x="159.033203" xlink:href="#DejaVuSans-48"/>
      </g>
     </g>
    </g>
    <g id="xtick_5">
     <g id="line2d_7">
      <g>
       <use style="stroke:#000000;stroke-width:0.8;" x="305.21603" xlink:href="#mca6337b115" y="525.24"/>
      </g>
     </g>
     <g id="text_7">
      <!-- 5.75 -->
      <g transform="translate(289.630093 542.877813)scale(0.14 -0.14)">
       <use xlink:href="#DejaVuSans-53"/>
       <use x="63.623047" xlink:href="#DejaVuSans-46"/>
       <use x="95.410156" xlink:href="#DejaVuSans-55"/>
       <use x="159.033203" xlink:href="#DejaVuSans-53"/>
      </g>
     </g>
    </g>
    <g id="xtick_6">
     <g id="line2d_8">
      <g>
       <use style="stroke:#000000;stroke-width:0.8;" x="368.623553" xlink:href="#mca6337b115" y="525.24"/>
      </g>
     </g>
     <g id="text_8">
      <!-- 6.00 -->
      <defs>
       <path d="M 33.015625 40.375 
Q 26.375 40.375 22.484375 35.828125 
Q 18.609375 31.296875 18.609375 23.390625 
Q 18.609375 15.53125 22.484375 10.953125 
Q 26.375 6.390625 33.015625 6.390625 
Q 39.65625 6.390625 43.53125 10.953125 
Q 47.40625 15.53125 47.40625 23.390625 
Q 47.40625 31.296875 43.53125 35.828125 
Q 39.65625 40.375 33.015625 40.375 
z
M 52.59375 71.296875 
L 52.59375 62.3125 
Q 48.875 64.0625 45.09375 64.984375 
Q 41.3125 65.921875 37.59375 65.921875 
Q 27.828125 65.921875 22.671875 59.328125 
Q 17.53125 52.734375 16.796875 39.40625 
Q 19.671875 43.65625 24.015625 45.921875 
Q 28.375 48.1875 33.59375 48.1875 
Q 44.578125 48.1875 50.953125 41.515625 
Q 57.328125 34.859375 57.328125 23.390625 
Q 57.328125 12.15625 50.6875 5.359375 
Q 44.046875 -1.421875 33.015625 -1.421875 
Q 20.359375 -1.421875 13.671875 8.265625 
Q 6.984375 17.96875 6.984375 36.375 
Q 6.984375 53.65625 15.1875 63.9375 
Q 23.390625 74.21875 37.203125 74.21875 
Q 40.921875 74.21875 44.703125 73.484375 
Q 48.484375 72.75 52.59375 71.296875 
z
" id="DejaVuSans-54"/>
      </defs>
      <g transform="translate(353.037616 542.877813)scale(0.14 -0.14)">
       <use xlink:href="#DejaVuSans-54"/>
       <use x="63.623047" xlink:href="#DejaVuSans-46"/>
       <use x="95.410156" xlink:href="#DejaVuSans-48"/>
       <use x="159.033203" xlink:href="#DejaVuSans-48"/>
      </g>
     </g>
    </g>
    <g id="xtick_7">
     <g id="line2d_9">
      <g>
       <use style="stroke:#000000;stroke-width:0.8;" x="432.031077" xlink:href="#mca6337b115" y="525.24"/>
      </g>
     </g>
     <g id="text_9">
      <!-- 6.25 -->
      <g transform="translate(416.445139 542.877813)scale(0.14 -0.14)">
       <use xlink:href="#DejaVuSans-54"/>
       <use x="63.623047" xlink:href="#DejaVuSans-46"/>
       <use x="95.410156" xlink:href="#DejaVuSans-50"/>
       <use x="159.033203" xlink:href="#DejaVuSans-53"/>
      </g>
     </g>
    </g>
    <g id="xtick_8">
     <g id="line2d_10">
      <g>
       <use style="stroke:#000000;stroke-width:0.8;" x="495.4386" xlink:href="#mca6337b115" y="525.24"/>
      </g>
     </g>
     <g id="text_10">
      <!-- 6.50 -->
      <g transform="translate(479.852662 542.877813)scale(0.14 -0.14)">
       <use xlink:href="#DejaVuSans-54"/>
       <use x="63.623047" xlink:href="#DejaVuSans-46"/>
       <use x="95.410156" xlink:href="#DejaVuSans-53"/>
       <use x="159.033203" xlink:href="#DejaVuSans-48"/>
      </g>
     </g>
    </g>
   </g>
   <g id="line2d_11">
    <path clip-path="url(#p0e28ab0915)" d="M 335.651641 525.24 
L 335.651641 402.93 
" style="fill:none;stroke:#ff6384;stroke-dasharray:5.55,2.4;stroke-dashoffset:0;stroke-opacity:0.8;stroke-width:1.5;"/>
   </g>
   <g id="line2d_12">
    <path clip-path="url(#p0e28ab0915)" d="M 272.244118 525.24 
L 272.244118 402.93 
" style="fill:none;stroke:#36a2eb;stroke-dasharray:5.55,2.4;stroke-dashoffset:0;stroke-opacity:0.8;stroke-width:1.5;"/>
   </g>
   <g id="patch_10">
    <path d="M 45.96439 525.24 
L 548.16439 525.24 
" style="fill:none;stroke:#000000;stroke-linecap:square;stroke-linejoin:miter;stroke-width:0.8;"/>
   </g>
  </g>
 </g>
 <defs>
  <clipPath id="p77e532aca0">
   <rect height="366.93" width="502.2" x="45.96439" y="36"/>
  </clipPath>
  <clipPath id="p0e28ab0915">
   <rect height="122.31" width="502.2" x="45.96439" y="402.93"/>
  </clipPath>
 </defs>
</svg>
