<?xml version="1.0" encoding="utf-8" standalone="no"?>
<!DOCTYPE svg PUBLIC "-//W3C//DTD SVG 1.1//EN"
  "http://www.w3.org/Graphics/SVG/1.1/DTD/svg11.dtd">
<!-- Created with matplotlib (https://matplotlib.org/) -->
<svg height="581.789375pt" version="1.1" viewBox="0 0 574.2 581.789375" width="574.2pt" xmlns="http://www.w3.org/2000/svg" xmlns:xlink="http://www.w3.org/1999/xlink">
 <defs>
  <style type="text/css">
*{stroke-linecap:butt;stroke-linejoin:round;}
  </style>
 </defs>
 <g id="figure_1">
  <g id="patch_1">
   <path d="M 0 581.789375 
L 574.2 581.789375 
L 574.2 0 
L 0 0 
z
" style="fill:none;"/>
  </g>
  <g id="axes_1">
   <g id="patch_2">
    <path d="M 36 402.93 
L 538.2 402.93 
L 538.2 36 
L 36 36 
z
" style="fill:none;"/>
   </g>
   <g id="PolyCollection_1">
    <defs>
     <path d="M 127.346883 -195.538011 
L 127.346883 -195.650004 
L 131.266336 -195.692234 
L 135.185789 -195.749007 
L 139.105242 -195.8248 
L 143.024695 -195.925281 
L 146.944148 -196.057565 
L 150.863601 -196.230497 
L 154.783054 -196.454982 
L 158.702507 -196.744335 
L 162.62196 -197.114666 
L 166.541413 -197.585273 
L 170.460866 -198.179047 
L 174.380319 -198.922859 
L 178.299772 -199.847921 
L 182.219225 -200.990079 
L 186.138678 -202.390029 
L 190.058131 -204.093399 
L 193.977584 -206.150691 
L 197.897036 -208.617009 
L 201.816489 -211.551575 
L 205.735942 -215.016962 
L 209.655395 -219.078053 
L 213.574848 -223.800667 
L 217.494301 -229.249878 
L 221.413754 -235.488004 
L 225.333207 -242.572312 
L 229.25266 -250.552459 
L 233.172113 -259.467747 
L 237.091566 -269.344261 
L 241.011019 -280.192004 
L 244.930472 -292.002137 
L 248.849925 -304.744465 
L 252.769378 -318.365297 
L 256.688831 -332.785841 
L 260.608284 -347.901251 
L 264.527737 -363.580456 
L 268.44719 -379.666871 
L 272.366643 -395.980052 
L 276.286096 -412.31833 
L 280.205549 -428.4624 
L 284.125002 -444.179822 
L 288.044455 -459.230303 
L 291.963908 -473.371627 
L 295.883361 -486.366018 
L 299.802814 -497.986726 
L 303.722267 -508.02457 
L 307.64172 -516.294181 
L 311.561173 -522.639693 
L 315.480626 -526.939623 
L 319.400079 -529.110739 
L 323.319532 -529.110739 
L 327.238985 -526.939623 
L 331.158438 -522.639693 
L 335.077891 -516.294181 
L 338.997343 -508.02457 
L 342.916796 -497.986726 
L 346.836249 -486.366018 
L 350.755702 -473.371627 
L 354.675155 -459.230303 
L 358.594608 -444.179822 
L 362.514061 -428.4624 
L 366.433514 -412.31833 
L 370.352967 -395.980052 
L 374.27242 -379.666871 
L 378.191873 -363.580456 
L 382.111326 -347.901251 
L 386.030779 -332.785841 
L 389.950232 -318.365297 
L 393.869685 -304.744465 
L 397.789138 -292.002137 
L 401.708591 -280.192004 
L 405.628044 -269.344261 
L 409.547497 -259.467747 
L 413.46695 -250.552459 
L 417.386403 -242.572312 
L 421.305856 -235.488004 
L 425.225309 -229.249878 
L 429.144762 -223.800667 
L 433.064215 -219.078053 
L 436.983668 -215.016962 
L 440.903121 -211.551575 
L 444.822574 -208.617009 
L 448.742027 -206.150691 
L 452.66148 -204.093399 
L 456.580933 -202.390029 
L 460.500386 -200.990079 
L 464.419839 -199.847921 
L 468.339292 -198.922859 
L 472.258745 -198.179047 
L 476.178198 -197.585273 
L 480.097651 -197.114666 
L 484.017103 -196.744335 
L 487.936556 -196.454982 
L 491.856009 -196.230497 
L 495.775462 -196.057565 
L 499.694915 -195.925281 
L 503.614368 -195.8248 
L 507.533821 -195.749007 
L 511.453274 -195.692234 
L 515.372727 -195.650004 
L 515.372727 -195.538011 
L 515.372727 -195.538011 
L 511.453274 -195.538011 
L 507.533821 -195.538011 
L 503.614368 -195.538011 
L 499.694915 -195.538011 
L 495.775462 -195.538011 
L 491.856009 -195.538011 
L 487.936556 -195.538011 
L 484.017103 -195.538011 
L 480.097651 -195.538011 
L 476.178198 -195.538011 
L 472.258745 -195.538011 
L 468.339292 -195.538011 
L 464.419839 -195.538011 
L 460.500386 -195.538011 
L 456.580933 -195.538011 
L 452.66148 -195.538011 
L 448.742027 -195.538011 
L 444.822574 -195.538011 
L 440.903121 -195.538011 
L 436.983668 -195.538011 
L 433.064215 -195.538011 
L 429.144762 -195.538011 
L 425.225309 -195.538011 
L 421.305856 -195.538011 
L 417.386403 -195.538011 
L 413.46695 -195.538011 
L 409.547497 -195.538011 
L 405.628044 -195.538011 
L 401.708591 -195.538011 
L 397.789138 -195.538011 
L 393.869685 -195.538011 
L 389.950232 -195.538011 
L 386.030779 -195.538011 
L 382.111326 -195.538011 
L 378.191873 -195.538011 
L 374.27242 -195.538011 
L 370.352967 -195.538011 
L 366.433514 -195.538011 
L 362.514061 -195.538011 
L 358.594608 -195.538011 
L 354.675155 -195.538011 
L 350.755702 -195.538011 
L 346.836249 -195.538011 
L 342.916796 -195.538011 
L 338.997343 -195.538011 
L 335.077891 -195.538011 
L 331.158438 -195.538011 
L 327.238985 -195.538011 
L 323.319532 -195.538011 
L 319.400079 -195.538011 
L 315.480626 -195.538011 
L 311.561173 -195.538011 
L 307.64172 -195.538011 
L 303.722267 -195.538011 
L 299.802814 -195.538011 
L 295.883361 -195.538011 
L 291.963908 -195.538011 
L 288.044455 -195.538011 
L 284.125002 -195.538011 
L 280.205549 -195.538011 
L 276.286096 -195.538011 
L 272.366643 -195.538011 
L 268.44719 -195.538011 
L 264.527737 -195.538011 
L 260.608284 -195.538011 
L 256.688831 -195.538011 
L 252.769378 -195.538011 
L 248.849925 -195.538011 
L 244.930472 -195.538011 
L 241.011019 -195.538011 
L 237.091566 -195.538011 
L 233.172113 -195.538011 
L 229.25266 -195.538011 
L 225.333207 -195.538011 
L 221.413754 -195.538011 
L 217.494301 -195.538011 
L 213.574848 -195.538011 
L 209.655395 -195.538011 
L 205.735942 -195.538011 
L 201.816489 -195.538011 
L 197.897036 -195.538011 
L 193.977584 -195.538011 
L 190.058131 -195.538011 
L 186.138678 -195.538011 
L 182.219225 -195.538011 
L 178.299772 -195.538011 
L 174.380319 -195.538011 
L 170.460866 -195.538011 
L 166.541413 -195.538011 
L 162.62196 -195.538011 
L 158.702507 -195.538011 
L 154.783054 -195.538011 
L 150.863601 -195.538011 
L 146.944148 -195.538011 
L 143.024695 -195.538011 
L 139.105242 -195.538011 
L 135.185789 -195.538011 
L 131.266336 -195.538011 
L 127.346883 -195.538011 
z
" id="meaae68f6d1" style="stroke:#ff6384;stroke-opacity:0.5;"/>
    </defs>
    <g clip-path="url(#p92ee1b71d4)">
     <use style="fill:#ff6384;fill-opacity:0.5;stroke:#ff6384;stroke-opacity:0.5;" x="0" xlink:href="#meaae68f6d1" y="581.789375"/>
    </g>
   </g>
   <g id="PolyCollection_2">
    <defs>
     <path d="M 58.827273 -195.538011 
L 58.827273 -195.643011 
L 63.007764 -195.682604 
L 67.188254 -195.735832 
L 71.368745 -195.806892 
L 75.549236 -195.9011 
L 79.729727 -196.025123 
L 83.910217 -196.187257 
L 88.090708 -196.397724 
L 92.271199 -196.66901 
L 96.45169 -197.016217 
L 100.63218 -197.457438 
L 104.812671 -198.014135 
L 108.993162 -198.711503 
L 113.173653 -199.578802 
L 117.354144 -200.649642 
L 121.534634 -201.962176 
L 125.715125 -203.559185 
L 129.895616 -205.488015 
L 134.076107 -207.800332 
L 138.256597 -210.551657 
L 142.437088 -213.800659 
L 146.617579 -217.608168 
L 150.79807 -222.035893 
L 154.978561 -227.144845 
L 159.159051 -232.99345 
L 163.339542 -239.635401 
L 167.520033 -247.117252 
L 171.700524 -255.475852 
L 175.881014 -264.735658 
L 180.061505 -274.906047 
L 184.241996 -285.978734 
L 188.422487 -297.925406 
L 192.602978 -310.695728 
L 196.783468 -324.215825 
L 200.963959 -338.3874 
L 205.14445 -353.087566 
L 209.324941 -368.169514 
L 213.505431 -383.46407 
L 217.685922 -398.782154 
L 221.866413 -413.918158 
L 226.046904 -428.654154 
L 230.227395 -442.764854 
L 234.407885 -456.023167 
L 238.588376 -468.206164 
L 242.768867 -479.101253 
L 246.949358 -488.512314 
L 251.129848 -496.265555 
L 255.310339 -502.214842 
L 259.49083 -506.246276 
L 263.671321 -508.281822 
L 267.851812 -508.281822 
L 272.032302 -506.246276 
L 276.212793 -502.214842 
L 280.393284 -496.265555 
L 284.573775 -488.512314 
L 288.754265 -479.101253 
L 292.934756 -468.206164 
L 297.115247 -456.023167 
L 301.295738 -442.764854 
L 305.476229 -428.654154 
L 309.656719 -413.918158 
L 313.83721 -398.782154 
L 318.017701 -383.46407 
L 322.198192 -368.169514 
L 326.378682 -353.087566 
L 330.559173 -338.3874 
L 334.739664 -324.215825 
L 338.920155 -310.695728 
L 343.100646 -297.925406 
L 347.281136 -285.978734 
L 351.461627 -274.906047 
L 355.642118 -264.735658 
L 359.822609 -255.475852 
L 364.003099 -247.117252 
L 368.18359 -239.635401 
L 372.364081 -232.99345 
L 376.544572 -227.144845 
L 380.725062 -222.035893 
L 384.905553 -217.608168 
L 389.086044 -213.800659 
L 393.266535 -210.551657 
L 397.447026 -207.800332 
L 401.627516 -205.488015 
L 405.808007 -203.559185 
L 409.988498 -201.962176 
L 414.168989 -200.649642 
L 418.349479 -199.578802 
L 422.52997 -198.711503 
L 426.710461 -198.014135 
L 430.890952 -197.457438 
L 435.071443 -197.016217 
L 439.251933 -196.66901 
L 443.432424 -196.397724 
L 447.612915 -196.187257 
L 451.793406 -196.025123 
L 455.973896 -195.9011 
L 460.154387 -195.806892 
L 464.334878 -195.735832 
L 468.515369 -195.682604 
L 472.69586 -195.643011 
L 472.69586 -195.538011 
L 472.69586 -195.538011 
L 468.515369 -195.538011 
L 464.334878 -195.538011 
L 460.154387 -195.538011 
L 455.973896 -195.538011 
L 451.793406 -195.538011 
L 447.612915 -195.538011 
L 443.432424 -195.538011 
L 439.251933 -195.538011 
L 435.071443 -195.538011 
L 430.890952 -195.538011 
L 426.710461 -195.538011 
L 422.52997 -195.538011 
L 418.349479 -195.538011 
L 414.168989 -195.538011 
L 409.988498 -195.538011 
L 405.808007 -195.538011 
L 401.627516 -195.538011 
L 397.447026 -195.538011 
L 393.266535 -195.538011 
L 389.086044 -195.538011 
L 384.905553 -195.538011 
L 380.725062 -195.538011 
L 376.544572 -195.538011 
L 372.364081 -195.538011 
L 368.18359 -195.538011 
L 364.003099 -195.538011 
L 359.822609 -195.538011 
L 355.642118 -195.538011 
L 351.461627 -195.538011 
L 347.281136 -195.538011 
L 343.100646 -195.538011 
L 338.920155 -195.538011 
L 334.739664 -195.538011 
L 330.559173 -195.538011 
L 326.378682 -195.538011 
L 322.198192 -195.538011 
L 318.017701 -195.538011 
L 313.83721 -195.538011 
L 309.656719 -195.538011 
L 305.476229 -195.538011 
L 301.295738 -195.538011 
L 297.115247 -195.538011 
L 292.934756 -195.538011 
L 288.754265 -195.538011 
L 284.573775 -195.538011 
L 280.393284 -195.538011 
L 276.212793 -195.538011 
L 272.032302 -195.538011 
L 267.851812 -195.538011 
L 263.671321 -195.538011 
L 259.49083 -195.538011 
L 255.310339 -195.538011 
L 251.129848 -195.538011 
L 246.949358 -195.538011 
L 242.768867 -195.538011 
L 238.588376 -195.538011 
L 234.407885 -195.538011 
L 230.227395 -195.538011 
L 226.046904 -195.538011 
L 221.866413 -195.538011 
L 217.685922 -195.538011 
L 213.505431 -195.538011 
L 209.324941 -195.538011 
L 205.14445 -195.538011 
L 200.963959 -195.538011 
L 196.783468 -195.538011 
L 192.602978 -195.538011 
L 188.422487 -195.538011 
L 184.241996 -195.538011 
L 180.061505 -195.538011 
L 175.881014 -195.538011 
L 171.700524 -195.538011 
L 167.520033 -195.538011 
L 163.339542 -195.538011 
L 159.159051 -195.538011 
L 154.978561 -195.538011 
L 150.79807 -195.538011 
L 146.617579 -195.538011 
L 142.437088 -195.538011 
L 138.256597 -195.538011 
L 134.076107 -195.538011 
L 129.895616 -195.538011 
L 125.715125 -195.538011 
L 121.534634 -195.538011 
L 117.354144 -195.538011 
L 113.173653 -195.538011 
L 108.993162 -195.538011 
L 104.812671 -195.538011 
L 100.63218 -195.538011 
L 96.45169 -195.538011 
L 92.271199 -195.538011 
L 88.090708 -195.538011 
L 83.910217 -195.538011 
L 79.729727 -195.538011 
L 75.549236 -195.538011 
L 71.368745 -195.538011 
L 67.188254 -195.538011 
L 63.007764 -195.538011 
L 58.827273 -195.538011 
z
" id="m58ccef2183" style="stroke:#36a2eb;stroke-opacity:0.5;"/>
    </defs>
    <g clip-path="url(#p92ee1b71d4)">
     <use style="fill:#36a2eb;fill-opacity:0.5;stroke:#36a2eb;stroke-opacity:0.5;" x="0" xlink:href="#m58ccef2183" y="581.789375"/>
    </g>
   </g>
   <g id="line2d_1">
    <path clip-path="url(#p92ee1b71d4)" d="M 127.346883 386.139371 
L 131.266336 386.097141 
L 135.185789 386.040368 
L 139.105242 385.964575 
L 143.024695 385.864094 
L 146.944148 385.73181 
L 150.863601 385.558878 
L 154.783054 385.334393 
L 158.702507 385.04504 
L 162.62196 384.674709 
L 166.541413 384.204102 
L 170.460866 383.610328 
L 174.380319 382.866516 
L 178.299772 381.941454 
L 182.219225 380.799296 
L 186.138678 379.399346 
L 190.058131 377.695976 
L 193.977584 375.638684 
L 197.897036 373.172366 
L 201.816489 370.2378 
L 205.735942 366.772413 
L 209.655395 362.711322 
L 213.574848 357.988708 
L 217.494301 352.539497 
L 221.413754 346.301371 
L 225.333207 339.217063 
L 229.25266 331.236916 
L 233.172113 322.321628 
L 237.091566 312.445114 
L 241.011019 301.597371 
L 244.930472 289.787238 
L 248.849925 277.04491 
L 252.769378 263.424078 
L 256.688831 249.003534 
L 260.608284 233.888124 
L 264.527737 218.208919 
L 268.44719 202.122504 
L 272.366643 185.809323 
L 276.286096 169.471045 
L 280.205549 153.326975 
L 284.125002 137.609553 
L 288.044455 122.559072 
L 291.963908 108.417748 
L 295.883361 95.423357 
L 299.802814 83.802649 
L 303.722267 73.764805 
L 307.64172 65.495194 
L 311.561173 59.149682 
L 315.480626 54.849752 
L 319.400079 52.678636 
L 323.319532 52.678636 
L 327.238985 54.849752 
L 331.158438 59.149682 
L 335.077891 65.495194 
L 338.997343 73.764805 
L 342.916796 83.802649 
L 346.836249 95.423357 
L 350.755702 108.417748 
L 354.675155 122.559072 
L 358.594608 137.609553 
L 362.514061 153.326975 
L 366.433514 169.471045 
L 370.352967 185.809323 
L 374.27242 202.122504 
L 378.191873 218.208919 
L 382.111326 233.888124 
L 386.030779 249.003534 
L 389.950232 263.424078 
L 393.869685 277.04491 
L 397.789138 289.787238 
L 401.708591 301.597371 
L 405.628044 312.445114 
L 409.547497 322.321628 
L 413.46695 331.236916 
L 417.386403 339.217063 
L 421.305856 346.301371 
L 425.225309 352.539497 
L 429.144762 357.988708 
L 433.064215 362.711322 
L 436.983668 366.772413 
L 440.903121 370.2378 
L 444.822574 373.172366 
L 448.742027 375.638684 
L 452.66148 377.695976 
L 456.580933 379.399346 
L 460.500386 380.799296 
L 464.419839 381.941454 
L 468.339292 382.866516 
L 472.258745 383.610328 
L 476.178198 384.204102 
L 480.097651 384.674709 
L 484.017103 385.04504 
L 487.936556 385.334393 
L 491.856009 385.558878 
L 495.775462 385.73181 
L 499.694915 385.864094 
L 503.614368 385.964575 
L 507.533821 386.040368 
L 511.453274 386.097141 
L 515.372727 386.139371 
" style="fill:none;stroke:#ff6384;stroke-linecap:square;"/>
   </g>
   <g id="line2d_2">
    <path clip-path="url(#p92ee1b71d4)" d="M 58.827273 386.146364 
L 63.007764 386.106771 
L 67.188254 386.053543 
L 71.368745 385.982483 
L 75.549236 385.888275 
L 79.729727 385.764252 
L 83.910217 385.602118 
L 88.090708 385.391651 
L 92.271199 385.120365 
L 96.45169 384.773158 
L 100.63218 384.331937 
L 104.812671 383.77524 
L 108.993162 383.077872 
L 113.173653 382.210573 
L 117.354144 381.139733 
L 121.534634 379.827199 
L 125.715125 378.23019 
L 129.895616 376.30136 
L 134.076107 373.989043 
L 138.256597 371.237718 
L 142.437088 367.988716 
L 146.617579 364.181207 
L 150.79807 359.753482 
L 154.978561 354.64453 
L 159.159051 348.795925 
L 163.339542 342.153974 
L 167.520033 334.672123 
L 171.700524 326.313523 
L 175.881014 317.053717 
L 180.061505 306.883328 
L 184.241996 295.810641 
L 188.422487 283.863969 
L 192.602978 271.093647 
L 196.783468 257.57355 
L 200.963959 243.401975 
L 205.14445 228.701809 
L 209.324941 213.619861 
L 213.505431 198.325305 
L 217.685922 183.007221 
L 221.866413 167.871217 
L 226.046904 153.135221 
L 230.227395 139.024521 
L 234.407885 125.766208 
L 238.588376 113.583211 
L 242.768867 102.688122 
L 246.949358 93.277061 
L 251.129848 85.52382 
L 255.310339 79.574533 
L 259.49083 75.543099 
L 263.671321 73.507553 
L 267.851812 73.507553 
L 272.032302 75.543099 
L 276.212793 79.574533 
L 280.393284 85.52382 
L 284.573775 93.277061 
L 288.754265 102.688122 
L 292.934756 113.583211 
L 297.115247 125.766208 
L 301.295738 139.024521 
L 305.476229 153.135221 
L 309.656719 167.871217 
L 313.83721 183.007221 
L 318.017701 198.325305 
L 322.198192 213.619861 
L 326.378682 228.701809 
L 330.559173 243.401975 
L 334.739664 257.57355 
L 338.920155 271.093647 
L 343.100646 283.863969 
L 347.281136 295.810641 
L 351.461627 306.883328 
L 355.642118 317.053717 
L 359.822609 326.313523 
L 364.003099 334.672123 
L 368.18359 342.153974 
L 372.364081 348.795925 
L 376.544572 354.64453 
L 380.725062 359.753482 
L 384.905553 364.181207 
L 389.086044 367.988716 
L 393.266535 371.237718 
L 397.447026 373.989043 
L 401.627516 376.30136 
L 405.808007 378.23019 
L 409.988498 379.827199 
L 414.168989 381.139733 
L 418.349479 382.210573 
L 422.52997 383.077872 
L 426.710461 383.77524 
L 430.890952 384.331937 
L 435.071443 384.773158 
L 439.251933 385.120365 
L 443.432424 385.391651 
L 447.612915 385.602118 
L 451.793406 385.764252 
L 455.973896 385.888275 
L 460.154387 385.982483 
L 464.334878 386.053543 
L 468.515369 386.106771 
L 472.69586 386.146364 
" style="fill:none;stroke:#36a2eb;stroke-linecap:square;"/>
   </g>
   <g id="patch_3">
    <path d="M 36 402.93 
L 538.2 402.93 
" style="fill:none;stroke:#000000;stroke-linecap:square;stroke-linejoin:miter;stroke-width:0.8;"/>
   </g>
   <g id="legend_1">
    <g id="patch_4">
     <path d="M 414.919063 88.29875 
L 528.4 88.29875 
Q 531.2 88.29875 531.2 85.49875 
L 531.2 45.8 
Q 531.2 43 528.4 43 
L 414.919063 43 
Q 412.119063 43 412.119063 45.8 
L 412.119063 85.49875 
Q 412.119063 88.29875 414.919063 88.29875 
z
" style="fill:#ffffff;opacity:0.8;stroke:#cccccc;stroke-linejoin:miter;"/>
    </g>
    <g id="patch_5">
     <path d="M 417.719063 59.237813 
L 445.719063 59.237813 
L 445.719063 49.437813 
L 417.719063 49.437813 
z
" style="fill:#ff6384;opacity:0.5;stroke:#ff6384;stroke-linejoin:miter;"/>
    </g>
    <g id="text_1">
     <!-- sidemenu -->
     <defs>
      <path d="M 44.28125 53.078125 
L 44.28125 44.578125 
Q 40.484375 46.53125 36.375 47.5 
Q 32.28125 48.484375 27.875 48.484375 
Q 21.1875 48.484375 17.84375 46.4375 
Q 14.5 44.390625 14.5 40.28125 
Q 14.5 37.15625 16.890625 35.375 
Q 19.28125 33.59375 26.515625 31.984375 
L 29.59375 31.296875 
Q 39.15625 29.25 43.1875 25.515625 
Q 47.21875 21.78125 47.21875 15.09375 
Q 47.21875 7.46875 41.1875 3.015625 
Q 35.15625 -1.421875 24.609375 -1.421875 
Q 20.21875 -1.421875 15.453125 -0.5625 
Q 10.6875 0.296875 5.421875 2 
L 5.421875 11.28125 
Q 10.40625 8.6875 15.234375 7.390625 
Q 20.0625 6.109375 24.8125 6.109375 
Q 31.15625 6.109375 34.5625 8.28125 
Q 37.984375 10.453125 37.984375 14.40625 
Q 37.984375 18.0625 35.515625 20.015625 
Q 33.0625 21.96875 24.703125 23.78125 
L 21.578125 24.515625 
Q 13.234375 26.265625 9.515625 29.90625 
Q 5.8125 33.546875 5.8125 39.890625 
Q 5.8125 47.609375 11.28125 51.796875 
Q 16.75 56 26.8125 56 
Q 31.78125 56 36.171875 55.265625 
Q 40.578125 54.546875 44.28125 53.078125 
z
" id="DejaVuSans-115"/>
      <path d="M 9.421875 54.6875 
L 18.40625 54.6875 
L 18.40625 0 
L 9.421875 0 
z
M 9.421875 75.984375 
L 18.40625 75.984375 
L 18.40625 64.59375 
L 9.421875 64.59375 
z
" id="DejaVuSans-105"/>
      <path d="M 45.40625 46.390625 
L 45.40625 75.984375 
L 54.390625 75.984375 
L 54.390625 0 
L 45.40625 0 
L 45.40625 8.203125 
Q 42.578125 3.328125 38.25 0.953125 
Q 33.9375 -1.421875 27.875 -1.421875 
Q 17.96875 -1.421875 11.734375 6.484375 
Q 5.515625 14.40625 5.515625 27.296875 
Q 5.515625 40.1875 11.734375 48.09375 
Q 17.96875 56 27.875 56 
Q 33.9375 56 38.25 53.625 
Q 42.578125 51.265625 45.40625 46.390625 
z
M 14.796875 27.296875 
Q 14.796875 17.390625 18.875 11.75 
Q 22.953125 6.109375 30.078125 6.109375 
Q 37.203125 6.109375 41.296875 11.75 
Q 45.40625 17.390625 45.40625 27.296875 
Q 45.40625 37.203125 41.296875 42.84375 
Q 37.203125 48.484375 30.078125 48.484375 
Q 22.953125 48.484375 18.875 42.84375 
Q 14.796875 37.203125 14.796875 27.296875 
z
" id="DejaVuSans-100"/>
      <path d="M 56.203125 29.59375 
L 56.203125 25.203125 
L 14.890625 25.203125 
Q 15.484375 15.921875 20.484375 11.0625 
Q 25.484375 6.203125 34.421875 6.203125 
Q 39.59375 6.203125 44.453125 7.46875 
Q 49.3125 8.734375 54.109375 11.28125 
L 54.109375 2.78125 
Q 49.265625 0.734375 44.1875 -0.34375 
Q 39.109375 -1.421875 33.890625 -1.421875 
Q 20.796875 -1.421875 13.15625 6.1875 
Q 5.515625 13.8125 5.515625 26.8125 
Q 5.515625 40.234375 12.765625 48.109375 
Q 20.015625 56 32.328125 56 
Q 43.359375 56 49.78125 48.890625 
Q 56.203125 41.796875 56.203125 29.59375 
z
M 47.21875 32.234375 
Q 47.125 39.59375 43.09375 43.984375 
Q 39.0625 48.390625 32.421875 48.390625 
Q 24.90625 48.390625 20.390625 44.140625 
Q 15.875 39.890625 15.1875 32.171875 
z
" id="DejaVuSans-101"/>
      <path d="M 52 44.1875 
Q 55.375 50.25 60.0625 53.125 
Q 64.75 56 71.09375 56 
Q 79.640625 56 84.28125 50.015625 
Q 88.921875 44.046875 88.921875 33.015625 
L 88.921875 0 
L 79.890625 0 
L 79.890625 32.71875 
Q 79.890625 40.578125 77.09375 44.375 
Q 74.3125 48.1875 68.609375 48.1875 
Q 61.625 48.1875 57.5625 43.546875 
Q 53.515625 38.921875 53.515625 30.90625 
L 53.515625 0 
L 44.484375 0 
L 44.484375 32.71875 
Q 44.484375 40.625 41.703125 44.40625 
Q 38.921875 48.1875 33.109375 48.1875 
Q 26.21875 48.1875 22.15625 43.53125 
Q 18.109375 38.875 18.109375 30.90625 
L 18.109375 0 
L 9.078125 0 
L 9.078125 54.6875 
L 18.109375 54.6875 
L 18.109375 46.1875 
Q 21.1875 51.21875 25.484375 53.609375 
Q 29.78125 56 35.6875 56 
Q 41.65625 56 45.828125 52.96875 
Q 50 49.953125 52 44.1875 
z
" id="DejaVuSans-109"/>
      <path d="M 54.890625 33.015625 
L 54.890625 0 
L 45.90625 0 
L 45.90625 32.71875 
Q 45.90625 40.484375 42.875 44.328125 
Q 39.84375 48.1875 33.796875 48.1875 
Q 26.515625 48.1875 22.3125 43.546875 
Q 18.109375 38.921875 18.109375 30.90625 
L 18.109375 0 
L 9.078125 0 
L 9.078125 54.6875 
L 18.109375 54.6875 
L 18.109375 46.1875 
Q 21.34375 51.125 25.703125 53.5625 
Q 30.078125 56 35.796875 56 
Q 45.21875 56 50.046875 50.171875 
Q 54.890625 44.34375 54.890625 33.015625 
z
" id="DejaVuSans-110"/>
      <path d="M 8.5 21.578125 
L 8.5 54.6875 
L 17.484375 54.6875 
L 17.484375 21.921875 
Q 17.484375 14.15625 20.5 10.265625 
Q 23.53125 6.390625 29.59375 6.390625 
Q 36.859375 6.390625 41.078125 11.03125 
Q 45.3125 15.671875 45.3125 23.6875 
L 45.3125 54.6875 
L 54.296875 54.6875 
L 54.296875 0 
L 45.3125 0 
L 45.3125 8.40625 
Q 42.046875 3.421875 37.71875 1 
Q 33.40625 -1.421875 27.6875 -1.421875 
Q 18.265625 -1.421875 13.375 4.4375 
Q 8.5 10.296875 8.5 21.578125 
z
M 31.109375 56 
z
" id="DejaVuSans-117"/>
     </defs>
     <g transform="translate(456.919063 59.237813)scale(0.14 -0.14)">
      <use xlink:href="#DejaVuSans-115"/>
      <use x="52.099609" xlink:href="#DejaVuSans-105"/>
      <use x="79.882812" xlink:href="#DejaVuSans-100"/>
      <use x="143.359375" xlink:href="#DejaVuSans-101"/>
      <use x="204.882812" xlink:href="#DejaVuSans-109"/>
      <use x="302.294922" xlink:href="#DejaVuSans-101"/>
      <use x="363.818359" xlink:href="#DejaVuSans-110"/>
      <use x="427.197266" xlink:href="#DejaVuSans-117"/>
     </g>
    </g>
    <g id="patch_6">
     <path d="M 417.719063 79.787188 
L 445.719063 79.787188 
L 445.719063 69.987188 
L 417.719063 69.987188 
z
" style="fill:#36a2eb;opacity:0.5;stroke:#36a2eb;stroke-linejoin:miter;"/>
    </g>
    <g id="text_2">
     <!-- tabbar -->
     <defs>
      <path d="M 18.3125 70.21875 
L 18.3125 54.6875 
L 36.8125 54.6875 
L 36.8125 47.703125 
L 18.3125 47.703125 
L 18.3125 18.015625 
Q 18.3125 11.328125 20.140625 9.421875 
Q 21.96875 7.515625 27.59375 7.515625 
L 36.8125 7.515625 
L 36.8125 0 
L 27.59375 0 
Q 17.1875 0 13.234375 3.875 
Q 9.28125 7.765625 9.28125 18.015625 
L 9.28125 47.703125 
L 2.6875 47.703125 
L 2.6875 54.6875 
L 9.28125 54.6875 
L 9.28125 70.21875 
z
" id="DejaVuSans-116"/>
      <path d="M 34.28125 27.484375 
Q 23.390625 27.484375 19.1875 25 
Q 14.984375 22.515625 14.984375 16.5 
Q 14.984375 11.71875 18.140625 8.90625 
Q 21.296875 6.109375 26.703125 6.109375 
Q 34.1875 6.109375 38.703125 11.40625 
Q 43.21875 16.703125 43.21875 25.484375 
L 43.21875 27.484375 
z
M 52.203125 31.203125 
L 52.203125 0 
L 43.21875 0 
L 43.21875 8.296875 
Q 40.140625 3.328125 35.546875 0.953125 
Q 30.953125 -1.421875 24.3125 -1.421875 
Q 15.921875 -1.421875 10.953125 3.296875 
Q 6 8.015625 6 15.921875 
Q 6 25.140625 12.171875 29.828125 
Q 18.359375 34.515625 30.609375 34.515625 
L 43.21875 34.515625 
L 43.21875 35.40625 
Q 43.21875 41.609375 39.140625 45 
Q 35.0625 48.390625 27.6875 48.390625 
Q 23 48.390625 18.546875 47.265625 
Q 14.109375 46.140625 10.015625 43.890625 
L 10.015625 52.203125 
Q 14.9375 54.109375 19.578125 55.046875 
Q 24.21875 56 28.609375 56 
Q 40.484375 56 46.34375 49.84375 
Q 52.203125 43.703125 52.203125 31.203125 
z
" id="DejaVuSans-97"/>
      <path d="M 48.6875 27.296875 
Q 48.6875 37.203125 44.609375 42.84375 
Q 40.53125 48.484375 33.40625 48.484375 
Q 26.265625 48.484375 22.1875 42.84375 
Q 18.109375 37.203125 18.109375 27.296875 
Q 18.109375 17.390625 22.1875 11.75 
Q 26.265625 6.109375 33.40625 6.109375 
Q 40.53125 6.109375 44.609375 11.75 
Q 48.6875 17.390625 48.6875 27.296875 
z
M 18.109375 46.390625 
Q 20.953125 51.265625 25.265625 53.625 
Q 29.59375 56 35.59375 56 
Q 45.5625 56 51.78125 48.09375 
Q 58.015625 40.1875 58.015625 27.296875 
Q 58.015625 14.40625 51.78125 6.484375 
Q 45.5625 -1.421875 35.59375 -1.421875 
Q 29.59375 -1.421875 25.265625 0.953125 
Q 20.953125 3.328125 18.109375 8.203125 
L 18.109375 0 
L 9.078125 0 
L 9.078125 75.984375 
L 18.109375 75.984375 
z
" id="DejaVuSans-98"/>
      <path d="M 41.109375 46.296875 
Q 39.59375 47.171875 37.8125 47.578125 
Q 36.03125 48 33.890625 48 
Q 26.265625 48 22.1875 43.046875 
Q 18.109375 38.09375 18.109375 28.8125 
L 18.109375 0 
L 9.078125 0 
L 9.078125 54.6875 
L 18.109375 54.6875 
L 18.109375 46.1875 
Q 20.953125 51.171875 25.484375 53.578125 
Q 30.03125 56 36.53125 56 
Q 37.453125 56 38.578125 55.875 
Q 39.703125 55.765625 41.0625 55.515625 
z
" id="DejaVuSans-114"/>
     </defs>
     <g transform="translate(456.919063 79.787188)scale(0.14 -0.14)">
      <use xlink:href="#DejaVuSans-116"/>
      <use x="39.208984" xlink:href="#DejaVuSans-97"/>
      <use x="100.488281" xlink:href="#DejaVuSans-98"/>
      <use x="163.964844" xlink:href="#DejaVuSans-98"/>
      <use x="227.441406" xlink:href="#DejaVuSans-97"/>
      <use x="288.720703" xlink:href="#DejaVuSans-114"/>
     </g>
    </g>
   </g>
  </g>
  <g id="axes_2">
   <g id="patch_7">
    <path d="M 36 525.24 
L 538.2 525.24 
L 538.2 402.93 
L 36 402.93 
z
" style="fill:none;"/>
   </g>
   <g id="patch_8">
    <path clip-path="url(#pdefbf54269)" d="M 226.293473 519.680455 
L 416.426137 519.680455 
L 416.426137 482.616818 
L 226.293473 482.616818 
z
" style="fill:#ff6384;opacity:0.5;"/>
   </g>
   <g id="patch_9">
    <path clip-path="url(#pdefbf54269)" d="M 164.363762 445.553182 
L 367.15937 445.553182 
L 367.15937 408.489545 
L 164.363762 408.489545 
z
" style="fill:#36a2eb;opacity:0.5;"/>
   </g>
   <g id="matplotlib.axis_1">
    <g id="xtick_1">
     <g id="line2d_3">
      <defs>
       <path d="M 0 0 
L 0 3.5 
" id="m43d497baa2" style="stroke:#000000;stroke-width:0.8;"/>
      </defs>
      <g>
       <use style="stroke:#000000;stroke-width:0.8;" x="64.990148" xlink:href="#m43d497baa2" y="525.24"/>
      </g>
     </g>
     <g id="text_3">
      <!-- 2.0 -->
      <defs>
       <path d="M 19.1875 8.296875 
L 53.609375 8.296875 
L 53.609375 0 
L 7.328125 0 
L 7.328125 8.296875 
Q 12.9375 14.109375 22.625 23.890625 
Q 32.328125 33.6875 34.8125 36.53125 
Q 39.546875 41.84375 41.421875 45.53125 
Q 43.3125 49.21875 43.3125 52.78125 
Q 43.3125 58.59375 39.234375 62.25 
Q 35.15625 65.921875 28.609375 65.921875 
Q 23.96875 65.921875 18.8125 64.3125 
Q 13.671875 62.703125 7.8125 59.421875 
L 7.8125 69.390625 
Q 13.765625 71.78125 18.9375 73 
Q 24.125 74.21875 28.421875 74.21875 
Q 39.75 74.21875 46.484375 68.546875 
Q 53.21875 62.890625 53.21875 53.421875 
Q 53.21875 48.921875 51.53125 44.890625 
Q 49.859375 40.875 45.40625 35.40625 
Q 44.1875 33.984375 37.640625 27.21875 
Q 31.109375 20.453125 19.1875 8.296875 
z
" id="DejaVuSans-50"/>
       <path d="M 10.6875 12.40625 
L 21 12.40625 
L 21 0 
L 10.6875 0 
z
" id="DejaVuSans-46"/>
       <path d="M 31.78125 66.40625 
Q 24.171875 66.40625 20.328125 58.90625 
Q 16.5 51.421875 16.5 36.375 
Q 16.5 21.390625 20.328125 13.890625 
Q 24.171875 6.390625 31.78125 6.390625 
Q 39.453125 6.390625 43.28125 13.890625 
Q 47.125 21.390625 47.125 36.375 
Q 47.125 51.421875 43.28125 58.90625 
Q 39.453125 66.40625 31.78125 66.40625 
z
M 31.78125 74.21875 
Q 44.046875 74.21875 50.515625 64.515625 
Q 56.984375 54.828125 56.984375 36.375 
Q 56.984375 17.96875 50.515625 8.265625 
Q 44.046875 -1.421875 31.78125 -1.421875 
Q 19.53125 -1.421875 13.0625 8.265625 
Q 6.59375 17.96875 6.59375 36.375 
Q 6.59375 54.828125 13.0625 64.515625 
Q 19.53125 74.21875 31.78125 74.21875 
z
" id="DejaVuSans-48"/>
      </defs>
      <g transform="translate(53.85796 542.877813)scale(0.14 -0.14)">
       <use xlink:href="#DejaVuSans-50"/>
       <use x="63.623047" xlink:href="#DejaVuSans-46"/>
       <use x="95.410156" xlink:href="#DejaVuSans-48"/>
      </g>
     </g>
    </g>
    <g id="xtick_2">
     <g id="line2d_4">
      <g>
       <use style="stroke:#000000;stroke-width:0.8;" x="126.765969" xlink:href="#m43d497baa2" y="525.24"/>
      </g>
     </g>
     <g id="text_4">
      <!-- 2.2 -->
      <g transform="translate(115.633781 542.877813)scale(0.14 -0.14)">
       <use xlink:href="#DejaVuSans-50"/>
       <use x="63.623047" xlink:href="#DejaVuSans-46"/>
       <use x="95.410156" xlink:href="#DejaVuSans-50"/>
      </g>
     </g>
    </g>
    <g id="xtick_3">
     <g id="line2d_5">
      <g>
       <use style="stroke:#000000;stroke-width:0.8;" x="188.54179" xlink:href="#m43d497baa2" y="525.24"/>
      </g>
     </g>
     <g id="text_5">
      <!-- 2.4 -->
      <defs>
       <path d="M 37.796875 64.3125 
L 12.890625 25.390625 
L 37.796875 25.390625 
z
M 35.203125 72.90625 
L 47.609375 72.90625 
L 47.609375 25.390625 
L 58.015625 25.390625 
L 58.015625 17.1875 
L 47.609375 17.1875 
L 47.609375 0 
L 37.796875 0 
L 37.796875 17.1875 
L 4.890625 17.1875 
L 4.890625 26.703125 
z
" id="DejaVuSans-52"/>
      </defs>
      <g transform="translate(177.409602 542.877813)scale(0.14 -0.14)">
       <use xlink:href="#DejaVuSans-50"/>
       <use x="63.623047" xlink:href="#DejaVuSans-46"/>
       <use x="95.410156" xlink:href="#DejaVuSans-52"/>
      </g>
     </g>
    </g>
    <g id="xtick_4">
     <g id="line2d_6">
      <g>
       <use style="stroke:#000000;stroke-width:0.8;" x="250.317611" xlink:href="#m43d497baa2" y="525.24"/>
      </g>
     </g>
     <g id="text_6">
      <!-- 2.6 -->
      <defs>
       <path d="M 33.015625 40.375 
Q 26.375 40.375 22.484375 35.828125 
Q 18.609375 31.296875 18.609375 23.390625 
Q 18.609375 15.53125 22.484375 10.953125 
Q 26.375 6.390625 33.015625 6.390625 
Q 39.65625 6.390625 43.53125 10.953125 
Q 47.40625 15.53125 47.40625 23.390625 
Q 47.40625 31.296875 43.53125 35.828125 
Q 39.65625 40.375 33.015625 40.375 
z
M 52.59375 71.296875 
L 52.59375 62.3125 
Q 48.875 64.0625 45.09375 64.984375 
Q 41.3125 65.921875 37.59375 65.921875 
Q 27.828125 65.921875 22.671875 59.328125 
Q 17.53125 52.734375 16.796875 39.40625 
Q 19.671875 43.65625 24.015625 45.921875 
Q 28.375 48.1875 33.59375 48.1875 
Q 44.578125 48.1875 50.953125 41.515625 
Q 57.328125 34.859375 57.328125 23.390625 
Q 57.328125 12.15625 50.6875 5.359375 
Q 44.046875 -1.421875 33.015625 -1.421875 
Q 20.359375 -1.421875 13.671875 8.265625 
Q 6.984375 17.96875 6.984375 36.375 
Q 6.984375 53.65625 15.1875 63.9375 
Q 23.390625 74.21875 37.203125 74.21875 
Q 40.921875 74.21875 44.703125 73.484375 
Q 48.484375 72.75 52.59375 71.296875 
z
" id="DejaVuSans-54"/>
      </defs>
      <g transform="translate(239.185423 542.877813)scale(0.14 -0.14)">
       <use xlink:href="#DejaVuSans-50"/>
       <use x="63.623047" xlink:href="#DejaVuSans-46"/>
       <use x="95.410156" xlink:href="#DejaVuSans-54"/>
      </g>
     </g>
    </g>
    <g id="xtick_5">
     <g id="line2d_7">
      <g>
       <use style="stroke:#000000;stroke-width:0.8;" x="312.093432" xlink:href="#m43d497baa2" y="525.24"/>
      </g>
     </g>
     <g id="text_7">
      <!-- 2.8 -->
      <defs>
       <path d="M 31.78125 34.625 
Q 24.75 34.625 20.71875 30.859375 
Q 16.703125 27.09375 16.703125 20.515625 
Q 16.703125 13.921875 20.71875 10.15625 
Q 24.75 6.390625 31.78125 6.390625 
Q 38.8125 6.390625 42.859375 10.171875 
Q 46.921875 13.96875 46.921875 20.515625 
Q 46.921875 27.09375 42.890625 30.859375 
Q 38.875 34.625 31.78125 34.625 
z
M 21.921875 38.8125 
Q 15.578125 40.375 12.03125 44.71875 
Q 8.5 49.078125 8.5 55.328125 
Q 8.5 64.0625 14.71875 69.140625 
Q 20.953125 74.21875 31.78125 74.21875 
Q 42.671875 74.21875 48.875 69.140625 
Q 55.078125 64.0625 55.078125 55.328125 
Q 55.078125 49.078125 51.53125 44.71875 
Q 48 40.375 41.703125 38.8125 
Q 48.828125 37.15625 52.796875 32.3125 
Q 56.78125 27.484375 56.78125 20.515625 
Q 56.78125 9.90625 50.3125 4.234375 
Q 43.84375 -1.421875 31.78125 -1.421875 
Q 19.734375 -1.421875 13.25 4.234375 
Q 6.78125 9.90625 6.78125 20.515625 
Q 6.78125 27.484375 10.78125 32.3125 
Q 14.796875 37.15625 21.921875 38.8125 
z
M 18.3125 54.390625 
Q 18.3125 48.734375 21.84375 45.5625 
Q 25.390625 42.390625 31.78125 42.390625 
Q 38.140625 42.390625 41.71875 45.5625 
Q 45.3125 48.734375 45.3125 54.390625 
Q 45.3125 60.0625 41.71875 63.234375 
Q 38.140625 66.40625 31.78125 66.40625 
Q 25.390625 66.40625 21.84375 63.234375 
Q 18.3125 60.0625 18.3125 54.390625 
z
" id="DejaVuSans-56"/>
      </defs>
      <g transform="translate(300.961244 542.877813)scale(0.14 -0.14)">
       <use xlink:href="#DejaVuSans-50"/>
       <use x="63.623047" xlink:href="#DejaVuSans-46"/>
       <use x="95.410156" xlink:href="#DejaVuSans-56"/>
      </g>
     </g>
    </g>
    <g id="xtick_6">
     <g id="line2d_8">
      <g>
       <use style="stroke:#000000;stroke-width:0.8;" x="373.869253" xlink:href="#m43d497baa2" y="525.24"/>
      </g>
     </g>
     <g id="text_8">
      <!-- 3.0 -->
      <defs>
       <path d="M 40.578125 39.3125 
Q 47.65625 37.796875 51.625 33 
Q 55.609375 28.21875 55.609375 21.1875 
Q 55.609375 10.40625 48.1875 4.484375 
Q 40.765625 -1.421875 27.09375 -1.421875 
Q 22.515625 -1.421875 17.65625 -0.515625 
Q 12.796875 0.390625 7.625 2.203125 
L 7.625 11.71875 
Q 11.71875 9.328125 16.59375 8.109375 
Q 21.484375 6.890625 26.8125 6.890625 
Q 36.078125 6.890625 40.9375 10.546875 
Q 45.796875 14.203125 45.796875 21.1875 
Q 45.796875 27.640625 41.28125 31.265625 
Q 36.765625 34.90625 28.71875 34.90625 
L 20.21875 34.90625 
L 20.21875 43.015625 
L 29.109375 43.015625 
Q 36.375 43.015625 40.234375 45.921875 
Q 44.09375 48.828125 44.09375 54.296875 
Q 44.09375 59.90625 40.109375 62.90625 
Q 36.140625 65.921875 28.71875 65.921875 
Q 24.65625 65.921875 20.015625 65.03125 
Q 15.375 64.15625 9.8125 62.3125 
L 9.8125 71.09375 
Q 15.4375 72.65625 20.34375 73.4375 
Q 25.25 74.21875 29.59375 74.21875 
Q 40.828125 74.21875 47.359375 69.109375 
Q 53.90625 64.015625 53.90625 55.328125 
Q 53.90625 49.265625 50.4375 45.09375 
Q 46.96875 40.921875 40.578125 39.3125 
z
" id="DejaVuSans-51"/>
      </defs>
      <g transform="translate(362.737066 542.877813)scale(0.14 -0.14)">
       <use xlink:href="#DejaVuSans-51"/>
       <use x="63.623047" xlink:href="#DejaVuSans-46"/>
       <use x="95.410156" xlink:href="#DejaVuSans-48"/>
      </g>
     </g>
    </g>
    <g id="xtick_7">
     <g id="line2d_9">
      <g>
       <use style="stroke:#000000;stroke-width:0.8;" x="435.645074" xlink:href="#m43d497baa2" y="525.24"/>
      </g>
     </g>
     <g id="text_9">
      <!-- 3.2 -->
      <g transform="translate(424.512887 542.877813)scale(0.14 -0.14)">
       <use xlink:href="#DejaVuSans-51"/>
       <use x="63.623047" xlink:href="#DejaVuSans-46"/>
       <use x="95.410156" xlink:href="#DejaVuSans-50"/>
      </g>
     </g>
    </g>
    <g id="xtick_8">
     <g id="line2d_10">
      <g>
       <use style="stroke:#000000;stroke-width:0.8;" x="497.420895" xlink:href="#m43d497baa2" y="525.24"/>
      </g>
     </g>
     <g id="text_10">
      <!-- 3.4 -->
      <g transform="translate(486.288708 542.877813)scale(0.14 -0.14)">
       <use xlink:href="#DejaVuSans-51"/>
       <use x="63.623047" xlink:href="#DejaVuSans-46"/>
       <use x="95.410156" xlink:href="#DejaVuSans-52"/>
      </g>
     </g>
    </g>
   </g>
   <g id="line2d_11">
    <path clip-path="url(#pdefbf54269)" d="M 321.359805 525.24 
L 321.359805 402.93 
" style="fill:none;stroke:#ff6384;stroke-dasharray:5.55,2.4;stroke-dashoffset:0;stroke-opacity:0.8;stroke-width:1.5;"/>
   </g>
   <g id="line2d_12">
    <path clip-path="url(#pdefbf54269)" d="M 265.761566 525.24 
L 265.761566 402.93 
" style="fill:none;stroke:#36a2eb;stroke-dasharray:5.55,2.4;stroke-dashoffset:0;stroke-opacity:0.8;stroke-width:1.5;"/>
   </g>
   <g id="patch_10">
    <path d="M 36 525.24 
L 538.2 525.24 
" style="fill:none;stroke:#000000;stroke-linecap:square;stroke-linejoin:miter;stroke-width:0.8;"/>
   </g>
  </g>
 </g>
 <defs>
  <clipPath id="p92ee1b71d4">
   <rect height="366.93" width="502.2" x="36" y="36"/>
  </clipPath>
  <clipPath id="pdefbf54269">
   <rect height="122.31" width="502.2" x="36" y="402.93"/>
  </clipPath>
 </defs>
</svg>
