<?xml version="1.0" encoding="utf-8" standalone="no"?>
<!DOCTYPE svg PUBLIC "-//W3C//DTD SVG 1.1//EN"
  "http://www.w3.org/Graphics/SVG/1.1/DTD/svg11.dtd">
<!-- Created with matplotlib (https://matplotlib.org/) -->
<svg height="581.789375pt" version="1.1" viewBox="0 0 574.2 581.789375" width="574.2pt" xmlns="http://www.w3.org/2000/svg" xmlns:xlink="http://www.w3.org/1999/xlink">
 <defs>
  <style type="text/css">
*{stroke-linecap:butt;stroke-linejoin:round;}
  </style>
 </defs>
 <g id="figure_1">
  <g id="patch_1">
   <path d="M 0 581.789375 
L 574.2 581.789375 
L 574.2 0 
L 0 0 
z
" style="fill:none;"/>
  </g>
  <g id="axes_1">
   <g id="patch_2">
    <path d="M 36 402.93 
L 538.2 402.93 
L 538.2 36 
L 36 36 
z
" style="fill:none;"/>
   </g>
   <g id="PolyCollection_1">
    <defs>
     <path d="M 124.841765 -195.538011 
L 124.841765 -195.650004 
L 128.786522 -195.692234 
L 132.73128 -195.749007 
L 136.676037 -195.8248 
L 140.620794 -195.925281 
L 144.565551 -196.057565 
L 148.510308 -196.230497 
L 152.455066 -196.454982 
L 156.399823 -196.744335 
L 160.34458 -197.114666 
L 164.289337 -197.585273 
L 168.234094 -198.179047 
L 172.178852 -198.922859 
L 176.123609 -199.847921 
L 180.068366 -200.990079 
L 184.013123 -202.390029 
L 187.95788 -204.093399 
L 191.902638 -206.150691 
L 195.847395 -208.617009 
L 199.792152 -211.551575 
L 203.736909 -215.016962 
L 207.681666 -219.078053 
L 211.626424 -223.800667 
L 215.571181 -229.249878 
L 219.515938 -235.488004 
L 223.460695 -242.572312 
L 227.405452 -250.552459 
L 231.350209 -259.467747 
L 235.294967 -269.344261 
L 239.239724 -280.192004 
L 243.184481 -292.002137 
L 247.129238 -304.744465 
L 251.073995 -318.365297 
L 255.018753 -332.785841 
L 258.96351 -347.901251 
L 262.908267 -363.580456 
L 266.853024 -379.666871 
L 270.797781 -395.980052 
L 274.742539 -412.31833 
L 278.687296 -428.4624 
L 282.632053 -444.179822 
L 286.57681 -459.230303 
L 290.521567 -473.371627 
L 294.466325 -486.366018 
L 298.411082 -497.986726 
L 302.355839 -508.02457 
L 306.300596 -516.294181 
L 310.245353 -522.639693 
L 314.19011 -526.939623 
L 318.134868 -529.110739 
L 322.079625 -529.110739 
L 326.024382 -526.939623 
L 329.969139 -522.639693 
L 333.913896 -516.294181 
L 337.858654 -508.02457 
L 341.803411 -497.986726 
L 345.748168 -486.366018 
L 349.692925 -473.371627 
L 353.637682 -459.230303 
L 357.58244 -444.179822 
L 361.527197 -428.4624 
L 365.471954 -412.31833 
L 369.416711 -395.980052 
L 373.361468 -379.666871 
L 377.306226 -363.580456 
L 381.250983 -347.901251 
L 385.19574 -332.785841 
L 389.140497 -318.365297 
L 393.085254 -304.744465 
L 397.030012 -292.002137 
L 400.974769 -280.192004 
L 404.919526 -269.344261 
L 408.864283 -259.467747 
L 412.80904 -250.552459 
L 416.753797 -242.572312 
L 420.698555 -235.488004 
L 424.643312 -229.249878 
L 428.588069 -223.800667 
L 432.532826 -219.078053 
L 436.477583 -215.016962 
L 440.422341 -211.551575 
L 444.367098 -208.617009 
L 448.311855 -206.150691 
L 452.256612 -204.093399 
L 456.201369 -202.390029 
L 460.146127 -200.990079 
L 464.090884 -199.847921 
L 468.035641 -198.922859 
L 471.980398 -198.179047 
L 475.925155 -197.585273 
L 479.869913 -197.114666 
L 483.81467 -196.744335 
L 487.759427 -196.454982 
L 491.704184 -196.230497 
L 495.648941 -196.057565 
L 499.593699 -195.925281 
L 503.538456 -195.8248 
L 507.483213 -195.749007 
L 511.42797 -195.692234 
L 515.372727 -195.650004 
L 515.372727 -195.538011 
L 515.372727 -195.538011 
L 511.42797 -195.538011 
L 507.483213 -195.538011 
L 503.538456 -195.538011 
L 499.593699 -195.538011 
L 495.648941 -195.538011 
L 491.704184 -195.538011 
L 487.759427 -195.538011 
L 483.81467 -195.538011 
L 479.869913 -195.538011 
L 475.925155 -195.538011 
L 471.980398 -195.538011 
L 468.035641 -195.538011 
L 464.090884 -195.538011 
L 460.146127 -195.538011 
L 456.201369 -195.538011 
L 452.256612 -195.538011 
L 448.311855 -195.538011 
L 444.367098 -195.538011 
L 440.422341 -195.538011 
L 436.477583 -195.538011 
L 432.532826 -195.538011 
L 428.588069 -195.538011 
L 424.643312 -195.538011 
L 420.698555 -195.538011 
L 416.753797 -195.538011 
L 412.80904 -195.538011 
L 408.864283 -195.538011 
L 404.919526 -195.538011 
L 400.974769 -195.538011 
L 397.030012 -195.538011 
L 393.085254 -195.538011 
L 389.140497 -195.538011 
L 385.19574 -195.538011 
L 381.250983 -195.538011 
L 377.306226 -195.538011 
L 373.361468 -195.538011 
L 369.416711 -195.538011 
L 365.471954 -195.538011 
L 361.527197 -195.538011 
L 357.58244 -195.538011 
L 353.637682 -195.538011 
L 349.692925 -195.538011 
L 345.748168 -195.538011 
L 341.803411 -195.538011 
L 337.858654 -195.538011 
L 333.913896 -195.538011 
L 329.969139 -195.538011 
L 326.024382 -195.538011 
L 322.079625 -195.538011 
L 318.134868 -195.538011 
L 314.19011 -195.538011 
L 310.245353 -195.538011 
L 306.300596 -195.538011 
L 302.355839 -195.538011 
L 298.411082 -195.538011 
L 294.466325 -195.538011 
L 290.521567 -195.538011 
L 286.57681 -195.538011 
L 282.632053 -195.538011 
L 278.687296 -195.538011 
L 274.742539 -195.538011 
L 270.797781 -195.538011 
L 266.853024 -195.538011 
L 262.908267 -195.538011 
L 258.96351 -195.538011 
L 255.018753 -195.538011 
L 251.073995 -195.538011 
L 247.129238 -195.538011 
L 243.184481 -195.538011 
L 239.239724 -195.538011 
L 235.294967 -195.538011 
L 231.350209 -195.538011 
L 227.405452 -195.538011 
L 223.460695 -195.538011 
L 219.515938 -195.538011 
L 215.571181 -195.538011 
L 211.626424 -195.538011 
L 207.681666 -195.538011 
L 203.736909 -195.538011 
L 199.792152 -195.538011 
L 195.847395 -195.538011 
L 191.902638 -195.538011 
L 187.95788 -195.538011 
L 184.013123 -195.538011 
L 180.068366 -195.538011 
L 176.123609 -195.538011 
L 172.178852 -195.538011 
L 168.234094 -195.538011 
L 164.289337 -195.538011 
L 160.34458 -195.538011 
L 156.399823 -195.538011 
L 152.455066 -195.538011 
L 148.510308 -195.538011 
L 144.565551 -195.538011 
L 140.620794 -195.538011 
L 136.676037 -195.538011 
L 132.73128 -195.538011 
L 128.786522 -195.538011 
L 124.841765 -195.538011 
z
" id="m99e135bb2a" style="stroke:#ff6384;stroke-opacity:0.5;"/>
    </defs>
    <g clip-path="url(#pd2ff4c0a92)">
     <use style="fill:#ff6384;fill-opacity:0.5;stroke:#ff6384;stroke-opacity:0.5;" x="0" xlink:href="#m99e135bb2a" y="581.789375"/>
    </g>
   </g>
   <g id="PolyCollection_2">
    <defs>
     <path d="M 58.827273 -195.538011 
L 58.827273 -195.642929 
L 63.038041 -195.682491 
L 67.24881 -195.735677 
L 71.459578 -195.806682 
L 75.670347 -195.900816 
L 79.881115 -196.024743 
L 84.091884 -196.18675 
L 88.302652 -196.397053 
L 92.513421 -196.668127 
L 96.724189 -197.015062 
L 100.934958 -197.455939 
L 105.145726 -198.012202 
L 109.356495 -198.709025 
L 113.567263 -199.575647 
L 117.778032 -200.64565 
L 121.9888 -201.957159 
L 126.199569 -203.552921 
L 130.410337 -205.480245 
L 134.621106 -207.790756 
L 138.831874 -210.539933 
L 143.042643 -213.786398 
L 147.253411 -217.590933 
L 151.46418 -222.015201 
L 155.674948 -227.120163 
L 159.885717 -232.964201 
L 164.096485 -239.600965 
L 168.307254 -247.076974 
L 172.518022 -255.429046 
L 176.728791 -264.681621 
L 180.939559 -274.844068 
L 185.150328 -285.908108 
L 189.361096 -297.845451 
L 193.571865 -310.6058 
L 197.782633 -324.11534 
L 201.993402 -338.275848 
L 206.20417 -352.964534 
L 210.414939 -368.034705 
L 214.625707 -383.317316 
L 218.836476 -398.623439 
L 223.047244 -413.747623 
L 227.258013 -428.472111 
L 231.468781 -442.571792 
L 235.67955 -455.819751 
L 239.890318 -467.993234 
L 244.101087 -478.879815 
L 248.311855 -488.283528 
L 252.522624 -496.030714 
L 256.733392 -501.975355 
L 260.944161 -506.00364 
L 265.154929 -508.037598 
L 269.365698 -508.037598 
L 273.576466 -506.00364 
L 277.787235 -501.975355 
L 281.998003 -496.030714 
L 286.208772 -488.283528 
L 290.41954 -478.879815 
L 294.630309 -467.993234 
L 298.841077 -455.819751 
L 303.051846 -442.571792 
L 307.262614 -428.472111 
L 311.473383 -413.747623 
L 315.684151 -398.623439 
L 319.89492 -383.317316 
L 324.105688 -368.034705 
L 328.316457 -352.964534 
L 332.527225 -338.275848 
L 336.737994 -324.11534 
L 340.948762 -310.6058 
L 345.159531 -297.845451 
L 349.370299 -285.908108 
L 353.581068 -274.844068 
L 357.791836 -264.681621 
L 362.002605 -255.429046 
L 366.213373 -247.076974 
L 370.424142 -239.600965 
L 374.63491 -232.964201 
L 378.845679 -227.120163 
L 383.056447 -222.015201 
L 387.267216 -217.590933 
L 391.477984 -213.786398 
L 395.688753 -210.539933 
L 399.899521 -207.790756 
L 404.11029 -205.480245 
L 408.321058 -203.552921 
L 412.531827 -201.957159 
L 416.742595 -200.64565 
L 420.953364 -199.575647 
L 425.164132 -198.709025 
L 429.374901 -198.012202 
L 433.585669 -197.455939 
L 437.796438 -197.015062 
L 442.007206 -196.668127 
L 446.217975 -196.397053 
L 450.428743 -196.18675 
L 454.639512 -196.024743 
L 458.85028 -195.900816 
L 463.061049 -195.806682 
L 467.271817 -195.735677 
L 471.482586 -195.682491 
L 475.693354 -195.642929 
L 475.693354 -195.538011 
L 475.693354 -195.538011 
L 471.482586 -195.538011 
L 467.271817 -195.538011 
L 463.061049 -195.538011 
L 458.85028 -195.538011 
L 454.639512 -195.538011 
L 450.428743 -195.538011 
L 446.217975 -195.538011 
L 442.007206 -195.538011 
L 437.796438 -195.538011 
L 433.585669 -195.538011 
L 429.374901 -195.538011 
L 425.164132 -195.538011 
L 420.953364 -195.538011 
L 416.742595 -195.538011 
L 412.531827 -195.538011 
L 408.321058 -195.538011 
L 404.11029 -195.538011 
L 399.899521 -195.538011 
L 395.688753 -195.538011 
L 391.477984 -195.538011 
L 387.267216 -195.538011 
L 383.056447 -195.538011 
L 378.845679 -195.538011 
L 374.63491 -195.538011 
L 370.424142 -195.538011 
L 366.213373 -195.538011 
L 362.002605 -195.538011 
L 357.791836 -195.538011 
L 353.581068 -195.538011 
L 349.370299 -195.538011 
L 345.159531 -195.538011 
L 340.948762 -195.538011 
L 336.737994 -195.538011 
L 332.527225 -195.538011 
L 328.316457 -195.538011 
L 324.105688 -195.538011 
L 319.89492 -195.538011 
L 315.684151 -195.538011 
L 311.473383 -195.538011 
L 307.262614 -195.538011 
L 303.051846 -195.538011 
L 298.841077 -195.538011 
L 294.630309 -195.538011 
L 290.41954 -195.538011 
L 286.208772 -195.538011 
L 281.998003 -195.538011 
L 277.787235 -195.538011 
L 273.576466 -195.538011 
L 269.365698 -195.538011 
L 265.154929 -195.538011 
L 260.944161 -195.538011 
L 256.733392 -195.538011 
L 252.522624 -195.538011 
L 248.311855 -195.538011 
L 244.101087 -195.538011 
L 239.890318 -195.538011 
L 235.67955 -195.538011 
L 231.468781 -195.538011 
L 227.258013 -195.538011 
L 223.047244 -195.538011 
L 218.836476 -195.538011 
L 214.625707 -195.538011 
L 210.414939 -195.538011 
L 206.20417 -195.538011 
L 201.993402 -195.538011 
L 197.782633 -195.538011 
L 193.571865 -195.538011 
L 189.361096 -195.538011 
L 185.150328 -195.538011 
L 180.939559 -195.538011 
L 176.728791 -195.538011 
L 172.518022 -195.538011 
L 168.307254 -195.538011 
L 164.096485 -195.538011 
L 159.885717 -195.538011 
L 155.674948 -195.538011 
L 151.46418 -195.538011 
L 147.253411 -195.538011 
L 143.042643 -195.538011 
L 138.831874 -195.538011 
L 134.621106 -195.538011 
L 130.410337 -195.538011 
L 126.199569 -195.538011 
L 121.9888 -195.538011 
L 117.778032 -195.538011 
L 113.567263 -195.538011 
L 109.356495 -195.538011 
L 105.145726 -195.538011 
L 100.934958 -195.538011 
L 96.724189 -195.538011 
L 92.513421 -195.538011 
L 88.302652 -195.538011 
L 84.091884 -195.538011 
L 79.881115 -195.538011 
L 75.670347 -195.538011 
L 71.459578 -195.538011 
L 67.24881 -195.538011 
L 63.038041 -195.538011 
L 58.827273 -195.538011 
z
" id="mc4cf312d1c" style="stroke:#36a2eb;stroke-opacity:0.5;"/>
    </defs>
    <g clip-path="url(#pd2ff4c0a92)">
     <use style="fill:#36a2eb;fill-opacity:0.5;stroke:#36a2eb;stroke-opacity:0.5;" x="0" xlink:href="#mc4cf312d1c" y="581.789375"/>
    </g>
   </g>
   <g id="line2d_1">
    <path clip-path="url(#pd2ff4c0a92)" d="M 124.841765 386.139371 
L 128.786522 386.097141 
L 132.73128 386.040368 
L 136.676037 385.964575 
L 140.620794 385.864094 
L 144.565551 385.73181 
L 148.510308 385.558878 
L 152.455066 385.334393 
L 156.399823 385.04504 
L 160.34458 384.674709 
L 164.289337 384.204102 
L 168.234094 383.610328 
L 172.178852 382.866516 
L 176.123609 381.941454 
L 180.068366 380.799296 
L 184.013123 379.399346 
L 187.95788 377.695976 
L 191.902638 375.638684 
L 195.847395 373.172366 
L 199.792152 370.2378 
L 203.736909 366.772413 
L 207.681666 362.711322 
L 211.626424 357.988708 
L 215.571181 352.539497 
L 219.515938 346.301371 
L 223.460695 339.217063 
L 227.405452 331.236916 
L 231.350209 322.321628 
L 235.294967 312.445114 
L 239.239724 301.597371 
L 243.184481 289.787238 
L 247.129238 277.04491 
L 251.073995 263.424078 
L 255.018753 249.003534 
L 258.96351 233.888124 
L 262.908267 218.208919 
L 266.853024 202.122504 
L 270.797781 185.809323 
L 274.742539 169.471045 
L 278.687296 153.326975 
L 282.632053 137.609553 
L 286.57681 122.559072 
L 290.521567 108.417748 
L 294.466325 95.423357 
L 298.411082 83.802649 
L 302.355839 73.764805 
L 306.300596 65.495194 
L 310.245353 59.149682 
L 314.19011 54.849752 
L 318.134868 52.678636 
L 322.079625 52.678636 
L 326.024382 54.849752 
L 329.969139 59.149682 
L 333.913896 65.495194 
L 337.858654 73.764805 
L 341.803411 83.802649 
L 345.748168 95.423357 
L 349.692925 108.417748 
L 353.637682 122.559072 
L 357.58244 137.609553 
L 361.527197 153.326975 
L 365.471954 169.471045 
L 369.416711 185.809323 
L 373.361468 202.122504 
L 377.306226 218.208919 
L 381.250983 233.888124 
L 385.19574 249.003534 
L 389.140497 263.424078 
L 393.085254 277.04491 
L 397.030012 289.787238 
L 400.974769 301.597371 
L 404.919526 312.445114 
L 408.864283 322.321628 
L 412.80904 331.236916 
L 416.753797 339.217063 
L 420.698555 346.301371 
L 424.643312 352.539497 
L 428.588069 357.988708 
L 432.532826 362.711322 
L 436.477583 366.772413 
L 440.422341 370.2378 
L 444.367098 373.172366 
L 448.311855 375.638684 
L 452.256612 377.695976 
L 456.201369 379.399346 
L 460.146127 380.799296 
L 464.090884 381.941454 
L 468.035641 382.866516 
L 471.980398 383.610328 
L 475.925155 384.204102 
L 479.869913 384.674709 
L 483.81467 385.04504 
L 487.759427 385.334393 
L 491.704184 385.558878 
L 495.648941 385.73181 
L 499.593699 385.864094 
L 503.538456 385.964575 
L 507.483213 386.040368 
L 511.42797 386.097141 
L 515.372727 386.139371 
" style="fill:none;stroke:#ff6384;stroke-linecap:square;"/>
   </g>
   <g id="line2d_2">
    <path clip-path="url(#pd2ff4c0a92)" d="M 58.827273 386.146446 
L 63.038041 386.106884 
L 67.24881 386.053698 
L 71.459578 385.982693 
L 75.670347 385.888559 
L 79.881115 385.764632 
L 84.091884 385.602625 
L 88.302652 385.392322 
L 92.513421 385.121248 
L 96.724189 384.774313 
L 100.934958 384.333436 
L 105.145726 383.777173 
L 109.356495 383.08035 
L 113.567263 382.213728 
L 117.778032 381.143725 
L 121.9888 379.832216 
L 126.199569 378.236454 
L 130.410337 376.30913 
L 134.621106 373.998619 
L 138.831874 371.249442 
L 143.042643 368.002977 
L 147.253411 364.198442 
L 151.46418 359.774174 
L 155.674948 354.669212 
L 159.885717 348.825174 
L 164.096485 342.18841 
L 168.307254 334.712401 
L 172.518022 326.360329 
L 176.728791 317.107754 
L 180.939559 306.945307 
L 185.150328 295.881267 
L 189.361096 283.943924 
L 193.571865 271.183575 
L 197.782633 257.674035 
L 201.993402 243.513527 
L 206.20417 228.824841 
L 210.414939 213.75467 
L 214.625707 198.472059 
L 218.836476 183.165936 
L 223.047244 168.041752 
L 227.258013 153.317264 
L 231.468781 139.217583 
L 235.67955 125.969624 
L 239.890318 113.796141 
L 244.101087 102.90956 
L 248.311855 93.505847 
L 252.522624 85.758661 
L 256.733392 79.81402 
L 260.944161 75.785735 
L 265.154929 73.751777 
L 269.365698 73.751777 
L 273.576466 75.785735 
L 277.787235 79.81402 
L 281.998003 85.758661 
L 286.208772 93.505847 
L 290.41954 102.90956 
L 294.630309 113.796141 
L 298.841077 125.969624 
L 303.051846 139.217583 
L 307.262614 153.317264 
L 311.473383 168.041752 
L 315.684151 183.165936 
L 319.89492 198.472059 
L 324.105688 213.75467 
L 328.316457 228.824841 
L 332.527225 243.513527 
L 336.737994 257.674035 
L 340.948762 271.183575 
L 345.159531 283.943924 
L 349.370299 295.881267 
L 353.581068 306.945307 
L 357.791836 317.107754 
L 362.002605 326.360329 
L 366.213373 334.712401 
L 370.424142 342.18841 
L 374.63491 348.825174 
L 378.845679 354.669212 
L 383.056447 359.774174 
L 387.267216 364.198442 
L 391.477984 368.002977 
L 395.688753 371.249442 
L 399.899521 373.998619 
L 404.11029 376.30913 
L 408.321058 378.236454 
L 412.531827 379.832216 
L 416.742595 381.143725 
L 420.953364 382.213728 
L 425.164132 383.08035 
L 429.374901 383.777173 
L 433.585669 384.333436 
L 437.796438 384.774313 
L 442.007206 385.121248 
L 446.217975 385.392322 
L 450.428743 385.602625 
L 454.639512 385.764632 
L 458.85028 385.888559 
L 463.061049 385.982693 
L 467.271817 386.053698 
L 471.482586 386.106884 
L 475.693354 386.146446 
" style="fill:none;stroke:#36a2eb;stroke-linecap:square;"/>
   </g>
   <g id="patch_3">
    <path d="M 36 402.93 
L 538.2 402.93 
" style="fill:none;stroke:#000000;stroke-linecap:square;stroke-linejoin:miter;stroke-width:0.8;"/>
   </g>
   <g id="legend_1">
    <g id="patch_4">
     <path d="M 414.919063 88.29875 
L 528.4 88.29875 
Q 531.2 88.29875 531.2 85.49875 
L 531.2 45.8 
Q 531.2 43 528.4 43 
L 414.919063 43 
Q 412.119063 43 412.119063 45.8 
L 412.119063 85.49875 
Q 412.119063 88.29875 414.919063 88.29875 
z
" style="fill:#ffffff;opacity:0.8;stroke:#cccccc;stroke-linejoin:miter;"/>
    </g>
    <g id="patch_5">
     <path d="M 417.719063 59.237813 
L 445.719063 59.237813 
L 445.719063 49.437813 
L 417.719063 49.437813 
z
" style="fill:#ff6384;opacity:0.5;stroke:#ff6384;stroke-linejoin:miter;"/>
    </g>
    <g id="text_1">
     <!-- sidemenu -->
     <defs>
      <path d="M 44.28125 53.078125 
L 44.28125 44.578125 
Q 40.484375 46.53125 36.375 47.5 
Q 32.28125 48.484375 27.875 48.484375 
Q 21.1875 48.484375 17.84375 46.4375 
Q 14.5 44.390625 14.5 40.28125 
Q 14.5 37.15625 16.890625 35.375 
Q 19.28125 33.59375 26.515625 31.984375 
L 29.59375 31.296875 
Q 39.15625 29.25 43.1875 25.515625 
Q 47.21875 21.78125 47.21875 15.09375 
Q 47.21875 7.46875 41.1875 3.015625 
Q 35.15625 -1.421875 24.609375 -1.421875 
Q 20.21875 -1.421875 15.453125 -0.5625 
Q 10.6875 0.296875 5.421875 2 
L 5.421875 11.28125 
Q 10.40625 8.6875 15.234375 7.390625 
Q 20.0625 6.109375 24.8125 6.109375 
Q 31.15625 6.109375 34.5625 8.28125 
Q 37.984375 10.453125 37.984375 14.40625 
Q 37.984375 18.0625 35.515625 20.015625 
Q 33.0625 21.96875 24.703125 23.78125 
L 21.578125 24.515625 
Q 13.234375 26.265625 9.515625 29.90625 
Q 5.8125 33.546875 5.8125 39.890625 
Q 5.8125 47.609375 11.28125 51.796875 
Q 16.75 56 26.8125 56 
Q 31.78125 56 36.171875 55.265625 
Q 40.578125 54.546875 44.28125 53.078125 
z
" id="DejaVuSans-115"/>
      <path d="M 9.421875 54.6875 
L 18.40625 54.6875 
L 18.40625 0 
L 9.421875 0 
z
M 9.421875 75.984375 
L 18.40625 75.984375 
L 18.40625 64.59375 
L 9.421875 64.59375 
z
" id="DejaVuSans-105"/>
      <path d="M 45.40625 46.390625 
L 45.40625 75.984375 
L 54.390625 75.984375 
L 54.390625 0 
L 45.40625 0 
L 45.40625 8.203125 
Q 42.578125 3.328125 38.25 0.953125 
Q 33.9375 -1.421875 27.875 -1.421875 
Q 17.96875 -1.421875 11.734375 6.484375 
Q 5.515625 14.40625 5.515625 27.296875 
Q 5.515625 40.1875 11.734375 48.09375 
Q 17.96875 56 27.875 56 
Q 33.9375 56 38.25 53.625 
Q 42.578125 51.265625 45.40625 46.390625 
z
M 14.796875 27.296875 
Q 14.796875 17.390625 18.875 11.75 
Q 22.953125 6.109375 30.078125 6.109375 
Q 37.203125 6.109375 41.296875 11.75 
Q 45.40625 17.390625 45.40625 27.296875 
Q 45.40625 37.203125 41.296875 42.84375 
Q 37.203125 48.484375 30.078125 48.484375 
Q 22.953125 48.484375 18.875 42.84375 
Q 14.796875 37.203125 14.796875 27.296875 
z
" id="DejaVuSans-100"/>
      <path d="M 56.203125 29.59375 
L 56.203125 25.203125 
L 14.890625 25.203125 
Q 15.484375 15.921875 20.484375 11.0625 
Q 25.484375 6.203125 34.421875 6.203125 
Q 39.59375 6.203125 44.453125 7.46875 
Q 49.3125 8.734375 54.109375 11.28125 
L 54.109375 2.78125 
Q 49.265625 0.734375 44.1875 -0.34375 
Q 39.109375 -1.421875 33.890625 -1.421875 
Q 20.796875 -1.421875 13.15625 6.1875 
Q 5.515625 13.8125 5.515625 26.8125 
Q 5.515625 40.234375 12.765625 48.109375 
Q 20.015625 56 32.328125 56 
Q 43.359375 56 49.78125 48.890625 
Q 56.203125 41.796875 56.203125 29.59375 
z
M 47.21875 32.234375 
Q 47.125 39.59375 43.09375 43.984375 
Q 39.0625 48.390625 32.421875 48.390625 
Q 24.90625 48.390625 20.390625 44.140625 
Q 15.875 39.890625 15.1875 32.171875 
z
" id="DejaVuSans-101"/>
      <path d="M 52 44.1875 
Q 55.375 50.25 60.0625 53.125 
Q 64.75 56 71.09375 56 
Q 79.640625 56 84.28125 50.015625 
Q 88.921875 44.046875 88.921875 33.015625 
L 88.921875 0 
L 79.890625 0 
L 79.890625 32.71875 
Q 79.890625 40.578125 77.09375 44.375 
Q 74.3125 48.1875 68.609375 48.1875 
Q 61.625 48.1875 57.5625 43.546875 
Q 53.515625 38.921875 53.515625 30.90625 
L 53.515625 0 
L 44.484375 0 
L 44.484375 32.71875 
Q 44.484375 40.625 41.703125 44.40625 
Q 38.921875 48.1875 33.109375 48.1875 
Q 26.21875 48.1875 22.15625 43.53125 
Q 18.109375 38.875 18.109375 30.90625 
L 18.109375 0 
L 9.078125 0 
L 9.078125 54.6875 
L 18.109375 54.6875 
L 18.109375 46.1875 
Q 21.1875 51.21875 25.484375 53.609375 
Q 29.78125 56 35.6875 56 
Q 41.65625 56 45.828125 52.96875 
Q 50 49.953125 52 44.1875 
z
" id="DejaVuSans-109"/>
      <path d="M 54.890625 33.015625 
L 54.890625 0 
L 45.90625 0 
L 45.90625 32.71875 
Q 45.90625 40.484375 42.875 44.328125 
Q 39.84375 48.1875 33.796875 48.1875 
Q 26.515625 48.1875 22.3125 43.546875 
Q 18.109375 38.921875 18.109375 30.90625 
L 18.109375 0 
L 9.078125 0 
L 9.078125 54.6875 
L 18.109375 54.6875 
L 18.109375 46.1875 
Q 21.34375 51.125 25.703125 53.5625 
Q 30.078125 56 35.796875 56 
Q 45.21875 56 50.046875 50.171875 
Q 54.890625 44.34375 54.890625 33.015625 
z
" id="DejaVuSans-110"/>
      <path d="M 8.5 21.578125 
L 8.5 54.6875 
L 17.484375 54.6875 
L 17.484375 21.921875 
Q 17.484375 14.15625 20.5 10.265625 
Q 23.53125 6.390625 29.59375 6.390625 
Q 36.859375 6.390625 41.078125 11.03125 
Q 45.3125 15.671875 45.3125 23.6875 
L 45.3125 54.6875 
L 54.296875 54.6875 
L 54.296875 0 
L 45.3125 0 
L 45.3125 8.40625 
Q 42.046875 3.421875 37.71875 1 
Q 33.40625 -1.421875 27.6875 -1.421875 
Q 18.265625 -1.421875 13.375 4.4375 
Q 8.5 10.296875 8.5 21.578125 
z
M 31.109375 56 
z
" id="DejaVuSans-117"/>
     </defs>
     <g transform="translate(456.919063 59.237813)scale(0.14 -0.14)">
      <use xlink:href="#DejaVuSans-115"/>
      <use x="52.099609" xlink:href="#DejaVuSans-105"/>
      <use x="79.882812" xlink:href="#DejaVuSans-100"/>
      <use x="143.359375" xlink:href="#DejaVuSans-101"/>
      <use x="204.882812" xlink:href="#DejaVuSans-109"/>
      <use x="302.294922" xlink:href="#DejaVuSans-101"/>
      <use x="363.818359" xlink:href="#DejaVuSans-110"/>
      <use x="427.197266" xlink:href="#DejaVuSans-117"/>
     </g>
    </g>
    <g id="patch_6">
     <path d="M 417.719063 79.787188 
L 445.719063 79.787188 
L 445.719063 69.987188 
L 417.719063 69.987188 
z
" style="fill:#36a2eb;opacity:0.5;stroke:#36a2eb;stroke-linejoin:miter;"/>
    </g>
    <g id="text_2">
     <!-- tabbar -->
     <defs>
      <path d="M 18.3125 70.21875 
L 18.3125 54.6875 
L 36.8125 54.6875 
L 36.8125 47.703125 
L 18.3125 47.703125 
L 18.3125 18.015625 
Q 18.3125 11.328125 20.140625 9.421875 
Q 21.96875 7.515625 27.59375 7.515625 
L 36.8125 7.515625 
L 36.8125 0 
L 27.59375 0 
Q 17.1875 0 13.234375 3.875 
Q 9.28125 7.765625 9.28125 18.015625 
L 9.28125 47.703125 
L 2.6875 47.703125 
L 2.6875 54.6875 
L 9.28125 54.6875 
L 9.28125 70.21875 
z
" id="DejaVuSans-116"/>
      <path d="M 34.28125 27.484375 
Q 23.390625 27.484375 19.1875 25 
Q 14.984375 22.515625 14.984375 16.5 
Q 14.984375 11.71875 18.140625 8.90625 
Q 21.296875 6.109375 26.703125 6.109375 
Q 34.1875 6.109375 38.703125 11.40625 
Q 43.21875 16.703125 43.21875 25.484375 
L 43.21875 27.484375 
z
M 52.203125 31.203125 
L 52.203125 0 
L 43.21875 0 
L 43.21875 8.296875 
Q 40.140625 3.328125 35.546875 0.953125 
Q 30.953125 -1.421875 24.3125 -1.421875 
Q 15.921875 -1.421875 10.953125 3.296875 
Q 6 8.015625 6 15.921875 
Q 6 25.140625 12.171875 29.828125 
Q 18.359375 34.515625 30.609375 34.515625 
L 43.21875 34.515625 
L 43.21875 35.40625 
Q 43.21875 41.609375 39.140625 45 
Q 35.0625 48.390625 27.6875 48.390625 
Q 23 48.390625 18.546875 47.265625 
Q 14.109375 46.140625 10.015625 43.890625 
L 10.015625 52.203125 
Q 14.9375 54.109375 19.578125 55.046875 
Q 24.21875 56 28.609375 56 
Q 40.484375 56 46.34375 49.84375 
Q 52.203125 43.703125 52.203125 31.203125 
z
" id="DejaVuSans-97"/>
      <path d="M 48.6875 27.296875 
Q 48.6875 37.203125 44.609375 42.84375 
Q 40.53125 48.484375 33.40625 48.484375 
Q 26.265625 48.484375 22.1875 42.84375 
Q 18.109375 37.203125 18.109375 27.296875 
Q 18.109375 17.390625 22.1875 11.75 
Q 26.265625 6.109375 33.40625 6.109375 
Q 40.53125 6.109375 44.609375 11.75 
Q 48.6875 17.390625 48.6875 27.296875 
z
M 18.109375 46.390625 
Q 20.953125 51.265625 25.265625 53.625 
Q 29.59375 56 35.59375 56 
Q 45.5625 56 51.78125 48.09375 
Q 58.015625 40.1875 58.015625 27.296875 
Q 58.015625 14.40625 51.78125 6.484375 
Q 45.5625 -1.421875 35.59375 -1.421875 
Q 29.59375 -1.421875 25.265625 0.953125 
Q 20.953125 3.328125 18.109375 8.203125 
L 18.109375 0 
L 9.078125 0 
L 9.078125 75.984375 
L 18.109375 75.984375 
z
" id="DejaVuSans-98"/>
      <path d="M 41.109375 46.296875 
Q 39.59375 47.171875 37.8125 47.578125 
Q 36.03125 48 33.890625 48 
Q 26.265625 48 22.1875 43.046875 
Q 18.109375 38.09375 18.109375 28.8125 
L 18.109375 0 
L 9.078125 0 
L 9.078125 54.6875 
L 18.109375 54.6875 
L 18.109375 46.1875 
Q 20.953125 51.171875 25.484375 53.578125 
Q 30.03125 56 36.53125 56 
Q 37.453125 56 38.578125 55.875 
Q 39.703125 55.765625 41.0625 55.515625 
z
" id="DejaVuSans-114"/>
     </defs>
     <g transform="translate(456.919063 79.787188)scale(0.14 -0.14)">
      <use xlink:href="#DejaVuSans-116"/>
      <use x="39.208984" xlink:href="#DejaVuSans-97"/>
      <use x="100.488281" xlink:href="#DejaVuSans-98"/>
      <use x="163.964844" xlink:href="#DejaVuSans-98"/>
      <use x="227.441406" xlink:href="#DejaVuSans-97"/>
      <use x="288.720703" xlink:href="#DejaVuSans-114"/>
     </g>
    </g>
   </g>
  </g>
  <g id="axes_2">
   <g id="patch_7">
    <path d="M 36 525.24 
L 538.2 525.24 
L 538.2 402.93 
L 36 402.93 
z
" style="fill:none;"/>
   </g>
   <g id="patch_8">
    <path clip-path="url(#p34a900be85)" d="M 224.427161 519.680455 
L 415.787332 519.680455 
L 415.787332 482.616818 
L 224.427161 482.616818 
z
" style="fill:#ff6384;opacity:0.5;"/>
   </g>
   <g id="patch_9">
    <path clip-path="url(#p34a900be85)" d="M 165.128123 445.553182 
L 369.392503 445.553182 
L 369.392503 408.489545 
L 165.128123 408.489545 
z
" style="fill:#36a2eb;opacity:0.5;"/>
   </g>
   <g id="matplotlib.axis_1">
    <g id="xtick_1">
     <g id="line2d_3">
      <defs>
       <path d="M 0 0 
L 0 3.5 
" id="mc35fedb94d" style="stroke:#000000;stroke-width:0.8;"/>
      </defs>
      <g>
       <use style="stroke:#000000;stroke-width:0.8;" x="62.089868" xlink:href="#mc35fedb94d" y="525.24"/>
      </g>
     </g>
     <g id="text_3">
      <!-- 2.0 -->
      <defs>
       <path d="M 19.1875 8.296875 
L 53.609375 8.296875 
L 53.609375 0 
L 7.328125 0 
L 7.328125 8.296875 
Q 12.9375 14.109375 22.625 23.890625 
Q 32.328125 33.6875 34.8125 36.53125 
Q 39.546875 41.84375 41.421875 45.53125 
Q 43.3125 49.21875 43.3125 52.78125 
Q 43.3125 58.59375 39.234375 62.25 
Q 35.15625 65.921875 28.609375 65.921875 
Q 23.96875 65.921875 18.8125 64.3125 
Q 13.671875 62.703125 7.8125 59.421875 
L 7.8125 69.390625 
Q 13.765625 71.78125 18.9375 73 
Q 24.125 74.21875 28.421875 74.21875 
Q 39.75 74.21875 46.484375 68.546875 
Q 53.21875 62.890625 53.21875 53.421875 
Q 53.21875 48.921875 51.53125 44.890625 
Q 49.859375 40.875 45.40625 35.40625 
Q 44.1875 33.984375 37.640625 27.21875 
Q 31.109375 20.453125 19.1875 8.296875 
z
" id="DejaVuSans-50"/>
       <path d="M 10.6875 12.40625 
L 21 12.40625 
L 21 0 
L 10.6875 0 
z
" id="DejaVuSans-46"/>
       <path d="M 31.78125 66.40625 
Q 24.171875 66.40625 20.328125 58.90625 
Q 16.5 51.421875 16.5 36.375 
Q 16.5 21.390625 20.328125 13.890625 
Q 24.171875 6.390625 31.78125 6.390625 
Q 39.453125 6.390625 43.28125 13.890625 
Q 47.125 21.390625 47.125 36.375 
Q 47.125 51.421875 43.28125 58.90625 
Q 39.453125 66.40625 31.78125 66.40625 
z
M 31.78125 74.21875 
Q 44.046875 74.21875 50.515625 64.515625 
Q 56.984375 54.828125 56.984375 36.375 
Q 56.984375 17.96875 50.515625 8.265625 
Q 44.046875 -1.421875 31.78125 -1.421875 
Q 19.53125 -1.421875 13.0625 8.265625 
Q 6.59375 17.96875 6.59375 36.375 
Q 6.59375 54.828125 13.0625 64.515625 
Q 19.53125 74.21875 31.78125 74.21875 
z
" id="DejaVuSans-48"/>
      </defs>
      <g transform="translate(50.957681 542.877813)scale(0.14 -0.14)">
       <use xlink:href="#DejaVuSans-50"/>
       <use x="63.623047" xlink:href="#DejaVuSans-46"/>
       <use x="95.410156" xlink:href="#DejaVuSans-48"/>
      </g>
     </g>
    </g>
    <g id="xtick_2">
     <g id="line2d_4">
      <g>
       <use style="stroke:#000000;stroke-width:0.8;" x="124.26273" xlink:href="#mc35fedb94d" y="525.24"/>
      </g>
     </g>
     <g id="text_4">
      <!-- 2.2 -->
      <g transform="translate(113.130543 542.877813)scale(0.14 -0.14)">
       <use xlink:href="#DejaVuSans-50"/>
       <use x="63.623047" xlink:href="#DejaVuSans-46"/>
       <use x="95.410156" xlink:href="#DejaVuSans-50"/>
      </g>
     </g>
    </g>
    <g id="xtick_3">
     <g id="line2d_5">
      <g>
       <use style="stroke:#000000;stroke-width:0.8;" x="186.435593" xlink:href="#mc35fedb94d" y="525.24"/>
      </g>
     </g>
     <g id="text_5">
      <!-- 2.4 -->
      <defs>
       <path d="M 37.796875 64.3125 
L 12.890625 25.390625 
L 37.796875 25.390625 
z
M 35.203125 72.90625 
L 47.609375 72.90625 
L 47.609375 25.390625 
L 58.015625 25.390625 
L 58.015625 17.1875 
L 47.609375 17.1875 
L 47.609375 0 
L 37.796875 0 
L 37.796875 17.1875 
L 4.890625 17.1875 
L 4.890625 26.703125 
z
" id="DejaVuSans-52"/>
      </defs>
      <g transform="translate(175.303405 542.877813)scale(0.14 -0.14)">
       <use xlink:href="#DejaVuSans-50"/>
       <use x="63.623047" xlink:href="#DejaVuSans-46"/>
       <use x="95.410156" xlink:href="#DejaVuSans-52"/>
      </g>
     </g>
    </g>
    <g id="xtick_4">
     <g id="line2d_6">
      <g>
       <use style="stroke:#000000;stroke-width:0.8;" x="248.608455" xlink:href="#mc35fedb94d" y="525.24"/>
      </g>
     </g>
     <g id="text_6">
      <!-- 2.6 -->
      <defs>
       <path d="M 33.015625 40.375 
Q 26.375 40.375 22.484375 35.828125 
Q 18.609375 31.296875 18.609375 23.390625 
Q 18.609375 15.53125 22.484375 10.953125 
Q 26.375 6.390625 33.015625 6.390625 
Q 39.65625 6.390625 43.53125 10.953125 
Q 47.40625 15.53125 47.40625 23.390625 
Q 47.40625 31.296875 43.53125 35.828125 
Q 39.65625 40.375 33.015625 40.375 
z
M 52.59375 71.296875 
L 52.59375 62.3125 
Q 48.875 64.0625 45.09375 64.984375 
Q 41.3125 65.921875 37.59375 65.921875 
Q 27.828125 65.921875 22.671875 59.328125 
Q 17.53125 52.734375 16.796875 39.40625 
Q 19.671875 43.65625 24.015625 45.921875 
Q 28.375 48.1875 33.59375 48.1875 
Q 44.578125 48.1875 50.953125 41.515625 
Q 57.328125 34.859375 57.328125 23.390625 
Q 57.328125 12.15625 50.6875 5.359375 
Q 44.046875 -1.421875 33.015625 -1.421875 
Q 20.359375 -1.421875 13.671875 8.265625 
Q 6.984375 17.96875 6.984375 36.375 
Q 6.984375 53.65625 15.1875 63.9375 
Q 23.390625 74.21875 37.203125 74.21875 
Q 40.921875 74.21875 44.703125 73.484375 
Q 48.484375 72.75 52.59375 71.296875 
z
" id="DejaVuSans-54"/>
      </defs>
      <g transform="translate(237.476267 542.877813)scale(0.14 -0.14)">
       <use xlink:href="#DejaVuSans-50"/>
       <use x="63.623047" xlink:href="#DejaVuSans-46"/>
       <use x="95.410156" xlink:href="#DejaVuSans-54"/>
      </g>
     </g>
    </g>
    <g id="xtick_5">
     <g id="line2d_7">
      <g>
       <use style="stroke:#000000;stroke-width:0.8;" x="310.781317" xlink:href="#mc35fedb94d" y="525.24"/>
      </g>
     </g>
     <g id="text_7">
      <!-- 2.8 -->
      <defs>
       <path d="M 31.78125 34.625 
Q 24.75 34.625 20.71875 30.859375 
Q 16.703125 27.09375 16.703125 20.515625 
Q 16.703125 13.921875 20.71875 10.15625 
Q 24.75 6.390625 31.78125 6.390625 
Q 38.8125 6.390625 42.859375 10.171875 
Q 46.921875 13.96875 46.921875 20.515625 
Q 46.921875 27.09375 42.890625 30.859375 
Q 38.875 34.625 31.78125 34.625 
z
M 21.921875 38.8125 
Q 15.578125 40.375 12.03125 44.71875 
Q 8.5 49.078125 8.5 55.328125 
Q 8.5 64.0625 14.71875 69.140625 
Q 20.953125 74.21875 31.78125 74.21875 
Q 42.671875 74.21875 48.875 69.140625 
Q 55.078125 64.0625 55.078125 55.328125 
Q 55.078125 49.078125 51.53125 44.71875 
Q 48 40.375 41.703125 38.8125 
Q 48.828125 37.15625 52.796875 32.3125 
Q 56.78125 27.484375 56.78125 20.515625 
Q 56.78125 9.90625 50.3125 4.234375 
Q 43.84375 -1.421875 31.78125 -1.421875 
Q 19.734375 -1.421875 13.25 4.234375 
Q 6.78125 9.90625 6.78125 20.515625 
Q 6.78125 27.484375 10.78125 32.3125 
Q 14.796875 37.15625 21.921875 38.8125 
z
M 18.3125 54.390625 
Q 18.3125 48.734375 21.84375 45.5625 
Q 25.390625 42.390625 31.78125 42.390625 
Q 38.140625 42.390625 41.71875 45.5625 
Q 45.3125 48.734375 45.3125 54.390625 
Q 45.3125 60.0625 41.71875 63.234375 
Q 38.140625 66.40625 31.78125 66.40625 
Q 25.390625 66.40625 21.84375 63.234375 
Q 18.3125 60.0625 18.3125 54.390625 
z
" id="DejaVuSans-56"/>
      </defs>
      <g transform="translate(299.649129 542.877813)scale(0.14 -0.14)">
       <use xlink:href="#DejaVuSans-50"/>
       <use x="63.623047" xlink:href="#DejaVuSans-46"/>
       <use x="95.410156" xlink:href="#DejaVuSans-56"/>
      </g>
     </g>
    </g>
    <g id="xtick_6">
     <g id="line2d_8">
      <g>
       <use style="stroke:#000000;stroke-width:0.8;" x="372.954179" xlink:href="#mc35fedb94d" y="525.24"/>
      </g>
     </g>
     <g id="text_8">
      <!-- 3.0 -->
      <defs>
       <path d="M 40.578125 39.3125 
Q 47.65625 37.796875 51.625 33 
Q 55.609375 28.21875 55.609375 21.1875 
Q 55.609375 10.40625 48.1875 4.484375 
Q 40.765625 -1.421875 27.09375 -1.421875 
Q 22.515625 -1.421875 17.65625 -0.515625 
Q 12.796875 0.390625 7.625 2.203125 
L 7.625 11.71875 
Q 11.71875 9.328125 16.59375 8.109375 
Q 21.484375 6.890625 26.8125 6.890625 
Q 36.078125 6.890625 40.9375 10.546875 
Q 45.796875 14.203125 45.796875 21.1875 
Q 45.796875 27.640625 41.28125 31.265625 
Q 36.765625 34.90625 28.71875 34.90625 
L 20.21875 34.90625 
L 20.21875 43.015625 
L 29.109375 43.015625 
Q 36.375 43.015625 40.234375 45.921875 
Q 44.09375 48.828125 44.09375 54.296875 
Q 44.09375 59.90625 40.109375 62.90625 
Q 36.140625 65.921875 28.71875 65.921875 
Q 24.65625 65.921875 20.015625 65.03125 
Q 15.375 64.15625 9.8125 62.3125 
L 9.8125 71.09375 
Q 15.4375 72.65625 20.34375 73.4375 
Q 25.25 74.21875 29.59375 74.21875 
Q 40.828125 74.21875 47.359375 69.109375 
Q 53.90625 64.015625 53.90625 55.328125 
Q 53.90625 49.265625 50.4375 45.09375 
Q 46.96875 40.921875 40.578125 39.3125 
z
" id="DejaVuSans-51"/>
      </defs>
      <g transform="translate(361.821992 542.877813)scale(0.14 -0.14)">
       <use xlink:href="#DejaVuSans-51"/>
       <use x="63.623047" xlink:href="#DejaVuSans-46"/>
       <use x="95.410156" xlink:href="#DejaVuSans-48"/>
      </g>
     </g>
    </g>
    <g id="xtick_7">
     <g id="line2d_9">
      <g>
       <use style="stroke:#000000;stroke-width:0.8;" x="435.127041" xlink:href="#mc35fedb94d" y="525.24"/>
      </g>
     </g>
     <g id="text_9">
      <!-- 3.2 -->
      <g transform="translate(423.994854 542.877813)scale(0.14 -0.14)">
       <use xlink:href="#DejaVuSans-51"/>
       <use x="63.623047" xlink:href="#DejaVuSans-46"/>
       <use x="95.410156" xlink:href="#DejaVuSans-50"/>
      </g>
     </g>
    </g>
    <g id="xtick_8">
     <g id="line2d_10">
      <g>
       <use style="stroke:#000000;stroke-width:0.8;" x="497.299903" xlink:href="#mc35fedb94d" y="525.24"/>
      </g>
     </g>
     <g id="text_10">
      <!-- 3.4 -->
      <g transform="translate(486.167716 542.877813)scale(0.14 -0.14)">
       <use xlink:href="#DejaVuSans-51"/>
       <use x="63.623047" xlink:href="#DejaVuSans-46"/>
       <use x="95.410156" xlink:href="#DejaVuSans-52"/>
      </g>
     </g>
    </g>
   </g>
   <g id="line2d_11">
    <path clip-path="url(#p34a900be85)" d="M 320.107246 525.24 
L 320.107246 402.93 
" style="fill:none;stroke:#ff6384;stroke-dasharray:5.55,2.4;stroke-dashoffset:0;stroke-opacity:0.8;stroke-width:1.5;"/>
   </g>
   <g id="line2d_12">
    <path clip-path="url(#p34a900be85)" d="M 267.260313 525.24 
L 267.260313 402.93 
" style="fill:none;stroke:#36a2eb;stroke-dasharray:5.55,2.4;stroke-dashoffset:0;stroke-opacity:0.8;stroke-width:1.5;"/>
   </g>
   <g id="patch_10">
    <path d="M 36 525.24 
L 538.2 525.24 
" style="fill:none;stroke:#000000;stroke-linecap:square;stroke-linejoin:miter;stroke-width:0.8;"/>
   </g>
  </g>
 </g>
 <defs>
  <clipPath id="pd2ff4c0a92">
   <rect height="366.93" width="502.2" x="36" y="36"/>
  </clipPath>
  <clipPath id="p34a900be85">
   <rect height="122.31" width="502.2" x="36" y="402.93"/>
  </clipPath>
 </defs>
</svg>
