<?xml version="1.0" encoding="utf-8" standalone="no"?>
<!DOCTYPE svg PUBLIC "-//W3C//DTD SVG 1.1//EN"
  "http://www.w3.org/Graphics/SVG/1.1/DTD/svg11.dtd">
<!-- Created with matplotlib (https://matplotlib.org/) -->
<svg height="581.789375pt" version="1.1" viewBox="0 0 574.2 581.789375" width="574.2pt" xmlns="http://www.w3.org/2000/svg" xmlns:xlink="http://www.w3.org/1999/xlink">
 <defs>
  <style type="text/css">
*{stroke-linecap:butt;stroke-linejoin:round;}
  </style>
 </defs>
 <g id="figure_1">
  <g id="patch_1">
   <path d="M 0 581.789375 
L 574.2 581.789375 
L 574.2 0 
L 0 0 
z
" style="fill:none;"/>
  </g>
  <g id="axes_1">
   <g id="patch_2">
    <path d="M 36 402.93 
L 538.2 402.93 
L 538.2 36 
L 36 36 
z
" style="fill:none;"/>
   </g>
   <g id="PolyCollection_1">
    <defs>
     <path d="M 124.838257 -195.538011 
L 124.838257 -195.650004 
L 128.783049 -195.692234 
L 132.727842 -195.749007 
L 136.672635 -195.8248 
L 140.617427 -195.925281 
L 144.56222 -196.057565 
L 148.507012 -196.230497 
L 152.451805 -196.454982 
L 156.396598 -196.744335 
L 160.34139 -197.114666 
L 164.286183 -197.585273 
L 168.230976 -198.179047 
L 172.175768 -198.922859 
L 176.120561 -199.847921 
L 180.065354 -200.990079 
L 184.010146 -202.390029 
L 187.954939 -204.093399 
L 191.899731 -206.150691 
L 195.844524 -208.617009 
L 199.789317 -211.551575 
L 203.734109 -215.016962 
L 207.678902 -219.078053 
L 211.623695 -223.800667 
L 215.568487 -229.249878 
L 219.51328 -235.488004 
L 223.458072 -242.572312 
L 227.402865 -250.552459 
L 231.347658 -259.467747 
L 235.29245 -269.344261 
L 239.237243 -280.192004 
L 243.182036 -292.002137 
L 247.126828 -304.744465 
L 251.071621 -318.365297 
L 255.016414 -332.785841 
L 258.961206 -347.901251 
L 262.905999 -363.580456 
L 266.850791 -379.666871 
L 270.795584 -395.980052 
L 274.740377 -412.31833 
L 278.685169 -428.4624 
L 282.629962 -444.179822 
L 286.574755 -459.230303 
L 290.519547 -473.371627 
L 294.46434 -486.366018 
L 298.409132 -497.986726 
L 302.353925 -508.02457 
L 306.298718 -516.294181 
L 310.24351 -522.639693 
L 314.188303 -526.939623 
L 318.133096 -529.110739 
L 322.077888 -529.110739 
L 326.022681 -526.939623 
L 329.967474 -522.639693 
L 333.912266 -516.294181 
L 337.857059 -508.02457 
L 341.801851 -497.986726 
L 345.746644 -486.366018 
L 349.691437 -473.371627 
L 353.636229 -459.230303 
L 357.581022 -444.179822 
L 361.525815 -428.4624 
L 365.470607 -412.31833 
L 369.4154 -395.980052 
L 373.360193 -379.666871 
L 377.304985 -363.580456 
L 381.249778 -347.901251 
L 385.19457 -332.785841 
L 389.139363 -318.365297 
L 393.084156 -304.744465 
L 397.028948 -292.002137 
L 400.973741 -280.192004 
L 404.918534 -269.344261 
L 408.863326 -259.467747 
L 412.808119 -250.552459 
L 416.752911 -242.572312 
L 420.697704 -235.488004 
L 424.642497 -229.249878 
L 428.587289 -223.800667 
L 432.532082 -219.078053 
L 436.476875 -215.016962 
L 440.421667 -211.551575 
L 444.36646 -208.617009 
L 448.311253 -206.150691 
L 452.256045 -204.093399 
L 456.200838 -202.390029 
L 460.14563 -200.990079 
L 464.090423 -199.847921 
L 468.035216 -198.922859 
L 471.980008 -198.179047 
L 475.924801 -197.585273 
L 479.869594 -197.114666 
L 483.814386 -196.744335 
L 487.759179 -196.454982 
L 491.703971 -196.230497 
L 495.648764 -196.057565 
L 499.593557 -195.925281 
L 503.538349 -195.8248 
L 507.483142 -195.749007 
L 511.427935 -195.692234 
L 515.372727 -195.650004 
L 515.372727 -195.538011 
L 515.372727 -195.538011 
L 511.427935 -195.538011 
L 507.483142 -195.538011 
L 503.538349 -195.538011 
L 499.593557 -195.538011 
L 495.648764 -195.538011 
L 491.703971 -195.538011 
L 487.759179 -195.538011 
L 483.814386 -195.538011 
L 479.869594 -195.538011 
L 475.924801 -195.538011 
L 471.980008 -195.538011 
L 468.035216 -195.538011 
L 464.090423 -195.538011 
L 460.14563 -195.538011 
L 456.200838 -195.538011 
L 452.256045 -195.538011 
L 448.311253 -195.538011 
L 444.36646 -195.538011 
L 440.421667 -195.538011 
L 436.476875 -195.538011 
L 432.532082 -195.538011 
L 428.587289 -195.538011 
L 424.642497 -195.538011 
L 420.697704 -195.538011 
L 416.752911 -195.538011 
L 412.808119 -195.538011 
L 408.863326 -195.538011 
L 404.918534 -195.538011 
L 400.973741 -195.538011 
L 397.028948 -195.538011 
L 393.084156 -195.538011 
L 389.139363 -195.538011 
L 385.19457 -195.538011 
L 381.249778 -195.538011 
L 377.304985 -195.538011 
L 373.360193 -195.538011 
L 369.4154 -195.538011 
L 365.470607 -195.538011 
L 361.525815 -195.538011 
L 357.581022 -195.538011 
L 353.636229 -195.538011 
L 349.691437 -195.538011 
L 345.746644 -195.538011 
L 341.801851 -195.538011 
L 337.857059 -195.538011 
L 333.912266 -195.538011 
L 329.967474 -195.538011 
L 326.022681 -195.538011 
L 322.077888 -195.538011 
L 318.133096 -195.538011 
L 314.188303 -195.538011 
L 310.24351 -195.538011 
L 306.298718 -195.538011 
L 302.353925 -195.538011 
L 298.409132 -195.538011 
L 294.46434 -195.538011 
L 290.519547 -195.538011 
L 286.574755 -195.538011 
L 282.629962 -195.538011 
L 278.685169 -195.538011 
L 274.740377 -195.538011 
L 270.795584 -195.538011 
L 266.850791 -195.538011 
L 262.905999 -195.538011 
L 258.961206 -195.538011 
L 255.016414 -195.538011 
L 251.071621 -195.538011 
L 247.126828 -195.538011 
L 243.182036 -195.538011 
L 239.237243 -195.538011 
L 235.29245 -195.538011 
L 231.347658 -195.538011 
L 227.402865 -195.538011 
L 223.458072 -195.538011 
L 219.51328 -195.538011 
L 215.568487 -195.538011 
L 211.623695 -195.538011 
L 207.678902 -195.538011 
L 203.734109 -195.538011 
L 199.789317 -195.538011 
L 195.844524 -195.538011 
L 191.899731 -195.538011 
L 187.954939 -195.538011 
L 184.010146 -195.538011 
L 180.065354 -195.538011 
L 176.120561 -195.538011 
L 172.175768 -195.538011 
L 168.230976 -195.538011 
L 164.286183 -195.538011 
L 160.34139 -195.538011 
L 156.396598 -195.538011 
L 152.451805 -195.538011 
L 148.507012 -195.538011 
L 144.56222 -195.538011 
L 140.617427 -195.538011 
L 136.672635 -195.538011 
L 132.727842 -195.538011 
L 128.783049 -195.538011 
L 124.838257 -195.538011 
z
" id="m62ce5f51af" style="stroke:#ff6384;stroke-opacity:0.5;"/>
    </defs>
    <g clip-path="url(#p91c64152e2)">
     <use style="fill:#ff6384;fill-opacity:0.5;stroke:#ff6384;stroke-opacity:0.5;" x="0" xlink:href="#m62ce5f51af" y="581.789375"/>
    </g>
   </g>
   <g id="PolyCollection_2">
    <defs>
     <path d="M 58.827273 -195.538011 
L 58.827273 -195.642931 
L 63.037991 -195.682495 
L 67.248709 -195.735682 
L 71.459427 -195.806688 
L 75.670145 -195.900824 
L 79.880864 -196.024753 
L 84.091582 -196.186763 
L 88.3023 -196.397071 
L 92.513018 -196.66815 
L 96.723736 -197.015093 
L 100.934454 -197.455979 
L 105.145172 -198.012254 
L 109.355891 -198.709091 
L 113.566609 -199.575731 
L 117.777327 -200.645757 
L 121.988045 -201.957293 
L 126.198763 -203.553089 
L 130.409481 -205.480453 
L 134.6202 -207.791013 
L 138.830918 -210.540247 
L 143.041636 -213.78678 
L 147.252354 -217.591395 
L 151.463072 -222.015755 
L 155.67379 -227.120824 
L 159.884508 -232.964985 
L 164.095227 -239.601887 
L 168.305945 -247.078053 
L 172.516663 -255.4303 
L 176.727381 -264.683069 
L 180.938099 -274.845729 
L 185.148817 -285.91 
L 189.359536 -297.847593 
L 193.570254 -310.608209 
L 197.780972 -324.118032 
L 201.99169 -338.278837 
L 206.202408 -352.96783 
L 210.413126 -368.038317 
L 214.623844 -383.321249 
L 218.834563 -398.627691 
L 223.045281 -413.752192 
L 227.255999 -428.476989 
L 231.466717 -442.576965 
L 235.677435 -455.825202 
L 239.888153 -467.99894 
L 244.098872 -478.885749 
L 248.30959 -488.289658 
L 252.520308 -496.037007 
L 256.731026 -501.981772 
L 260.941744 -506.010142 
L 265.152462 -508.044142 
L 269.36318 -508.044142 
L 273.573899 -506.010142 
L 277.784617 -501.981772 
L 281.995335 -496.037007 
L 286.206053 -488.289658 
L 290.416771 -478.885749 
L 294.627489 -467.99894 
L 298.838208 -455.825202 
L 303.048926 -442.576965 
L 307.259644 -428.476989 
L 311.470362 -413.752192 
L 315.68108 -398.627691 
L 319.891798 -383.321249 
L 324.102516 -368.038317 
L 328.313235 -352.96783 
L 332.523953 -338.278837 
L 336.734671 -324.118032 
L 340.945389 -310.608209 
L 345.156107 -297.847593 
L 349.366825 -285.91 
L 353.577544 -274.845729 
L 357.788262 -264.683069 
L 361.99898 -255.4303 
L 366.209698 -247.078053 
L 370.420416 -239.601887 
L 374.631134 -232.964985 
L 378.841853 -227.120824 
L 383.052571 -222.015755 
L 387.263289 -217.591395 
L 391.474007 -213.78678 
L 395.684725 -210.540247 
L 399.895443 -207.791013 
L 404.106161 -205.480453 
L 408.31688 -203.553089 
L 412.527598 -201.957293 
L 416.738316 -200.645757 
L 420.949034 -199.575731 
L 425.159752 -198.709091 
L 429.37047 -198.012254 
L 433.581189 -197.455979 
L 437.791907 -197.015093 
L 442.002625 -196.66815 
L 446.213343 -196.397071 
L 450.424061 -196.186763 
L 454.634779 -196.024753 
L 458.845497 -195.900824 
L 463.056216 -195.806688 
L 467.266934 -195.735682 
L 471.477652 -195.682495 
L 475.68837 -195.642931 
L 475.68837 -195.538011 
L 475.68837 -195.538011 
L 471.477652 -195.538011 
L 467.266934 -195.538011 
L 463.056216 -195.538011 
L 458.845497 -195.538011 
L 454.634779 -195.538011 
L 450.424061 -195.538011 
L 446.213343 -195.538011 
L 442.002625 -195.538011 
L 437.791907 -195.538011 
L 433.581189 -195.538011 
L 429.37047 -195.538011 
L 425.159752 -195.538011 
L 420.949034 -195.538011 
L 416.738316 -195.538011 
L 412.527598 -195.538011 
L 408.31688 -195.538011 
L 404.106161 -195.538011 
L 399.895443 -195.538011 
L 395.684725 -195.538011 
L 391.474007 -195.538011 
L 387.263289 -195.538011 
L 383.052571 -195.538011 
L 378.841853 -195.538011 
L 374.631134 -195.538011 
L 370.420416 -195.538011 
L 366.209698 -195.538011 
L 361.99898 -195.538011 
L 357.788262 -195.538011 
L 353.577544 -195.538011 
L 349.366825 -195.538011 
L 345.156107 -195.538011 
L 340.945389 -195.538011 
L 336.734671 -195.538011 
L 332.523953 -195.538011 
L 328.313235 -195.538011 
L 324.102516 -195.538011 
L 319.891798 -195.538011 
L 315.68108 -195.538011 
L 311.470362 -195.538011 
L 307.259644 -195.538011 
L 303.048926 -195.538011 
L 298.838208 -195.538011 
L 294.627489 -195.538011 
L 290.416771 -195.538011 
L 286.206053 -195.538011 
L 281.995335 -195.538011 
L 277.784617 -195.538011 
L 273.573899 -195.538011 
L 269.36318 -195.538011 
L 265.152462 -195.538011 
L 260.941744 -195.538011 
L 256.731026 -195.538011 
L 252.520308 -195.538011 
L 248.30959 -195.538011 
L 244.098872 -195.538011 
L 239.888153 -195.538011 
L 235.677435 -195.538011 
L 231.466717 -195.538011 
L 227.255999 -195.538011 
L 223.045281 -195.538011 
L 218.834563 -195.538011 
L 214.623844 -195.538011 
L 210.413126 -195.538011 
L 206.202408 -195.538011 
L 201.99169 -195.538011 
L 197.780972 -195.538011 
L 193.570254 -195.538011 
L 189.359536 -195.538011 
L 185.148817 -195.538011 
L 180.938099 -195.538011 
L 176.727381 -195.538011 
L 172.516663 -195.538011 
L 168.305945 -195.538011 
L 164.095227 -195.538011 
L 159.884508 -195.538011 
L 155.67379 -195.538011 
L 151.463072 -195.538011 
L 147.252354 -195.538011 
L 143.041636 -195.538011 
L 138.830918 -195.538011 
L 134.6202 -195.538011 
L 130.409481 -195.538011 
L 126.198763 -195.538011 
L 121.988045 -195.538011 
L 117.777327 -195.538011 
L 113.566609 -195.538011 
L 109.355891 -195.538011 
L 105.145172 -195.538011 
L 100.934454 -195.538011 
L 96.723736 -195.538011 
L 92.513018 -195.538011 
L 88.3023 -195.538011 
L 84.091582 -195.538011 
L 79.880864 -195.538011 
L 75.670145 -195.538011 
L 71.459427 -195.538011 
L 67.248709 -195.538011 
L 63.037991 -195.538011 
L 58.827273 -195.538011 
z
" id="m520d6f58f3" style="stroke:#36a2eb;stroke-opacity:0.5;"/>
    </defs>
    <g clip-path="url(#p91c64152e2)">
     <use style="fill:#36a2eb;fill-opacity:0.5;stroke:#36a2eb;stroke-opacity:0.5;" x="0" xlink:href="#m520d6f58f3" y="581.789375"/>
    </g>
   </g>
   <g id="line2d_1">
    <path clip-path="url(#p91c64152e2)" d="M 124.838257 386.139371 
L 128.783049 386.097141 
L 132.727842 386.040368 
L 136.672635 385.964575 
L 140.617427 385.864094 
L 144.56222 385.73181 
L 148.507012 385.558878 
L 152.451805 385.334393 
L 156.396598 385.04504 
L 160.34139 384.674709 
L 164.286183 384.204102 
L 168.230976 383.610328 
L 172.175768 382.866516 
L 176.120561 381.941454 
L 180.065354 380.799296 
L 184.010146 379.399346 
L 187.954939 377.695976 
L 191.899731 375.638684 
L 195.844524 373.172366 
L 199.789317 370.2378 
L 203.734109 366.772413 
L 207.678902 362.711322 
L 211.623695 357.988708 
L 215.568487 352.539497 
L 219.51328 346.301371 
L 223.458072 339.217063 
L 227.402865 331.236916 
L 231.347658 322.321628 
L 235.29245 312.445114 
L 239.237243 301.597371 
L 243.182036 289.787238 
L 247.126828 277.04491 
L 251.071621 263.424078 
L 255.016414 249.003534 
L 258.961206 233.888124 
L 262.905999 218.208919 
L 266.850791 202.122504 
L 270.795584 185.809323 
L 274.740377 169.471045 
L 278.685169 153.326975 
L 282.629962 137.609553 
L 286.574755 122.559072 
L 290.519547 108.417748 
L 294.46434 95.423357 
L 298.409132 83.802649 
L 302.353925 73.764805 
L 306.298718 65.495194 
L 310.24351 59.149682 
L 314.188303 54.849752 
L 318.133096 52.678636 
L 322.077888 52.678636 
L 326.022681 54.849752 
L 329.967474 59.149682 
L 333.912266 65.495194 
L 337.857059 73.764805 
L 341.801851 83.802649 
L 345.746644 95.423357 
L 349.691437 108.417748 
L 353.636229 122.559072 
L 357.581022 137.609553 
L 361.525815 153.326975 
L 365.470607 169.471045 
L 369.4154 185.809323 
L 373.360193 202.122504 
L 377.304985 218.208919 
L 381.249778 233.888124 
L 385.19457 249.003534 
L 389.139363 263.424078 
L 393.084156 277.04491 
L 397.028948 289.787238 
L 400.973741 301.597371 
L 404.918534 312.445114 
L 408.863326 322.321628 
L 412.808119 331.236916 
L 416.752911 339.217063 
L 420.697704 346.301371 
L 424.642497 352.539497 
L 428.587289 357.988708 
L 432.532082 362.711322 
L 436.476875 366.772413 
L 440.421667 370.2378 
L 444.36646 373.172366 
L 448.311253 375.638684 
L 452.256045 377.695976 
L 456.200838 379.399346 
L 460.14563 380.799296 
L 464.090423 381.941454 
L 468.035216 382.866516 
L 471.980008 383.610328 
L 475.924801 384.204102 
L 479.869594 384.674709 
L 483.814386 385.04504 
L 487.759179 385.334393 
L 491.703971 385.558878 
L 495.648764 385.73181 
L 499.593557 385.864094 
L 503.538349 385.964575 
L 507.483142 386.040368 
L 511.427935 386.097141 
L 515.372727 386.139371 
" style="fill:none;stroke:#ff6384;stroke-linecap:square;"/>
   </g>
   <g id="line2d_2">
    <path clip-path="url(#p91c64152e2)" d="M 58.827273 386.146444 
L 63.037991 386.10688 
L 67.248709 386.053693 
L 71.459427 385.982687 
L 75.670145 385.888551 
L 79.880864 385.764622 
L 84.091582 385.602612 
L 88.3023 385.392304 
L 92.513018 385.121225 
L 96.723736 384.774282 
L 100.934454 384.333396 
L 105.145172 383.777121 
L 109.355891 383.080284 
L 113.566609 382.213644 
L 117.777327 381.143618 
L 121.988045 379.832082 
L 126.198763 378.236286 
L 130.409481 376.308922 
L 134.6202 373.998362 
L 138.830918 371.249128 
L 143.041636 368.002595 
L 147.252354 364.19798 
L 151.463072 359.77362 
L 155.67379 354.668551 
L 159.884508 348.82439 
L 164.095227 342.187488 
L 168.305945 334.711322 
L 172.516663 326.359075 
L 176.727381 317.106306 
L 180.938099 306.943646 
L 185.148817 295.879375 
L 189.359536 283.941782 
L 193.570254 271.181166 
L 197.780972 257.671343 
L 201.99169 243.510538 
L 206.202408 228.821545 
L 210.413126 213.751058 
L 214.623844 198.468126 
L 218.834563 183.161684 
L 223.045281 168.037183 
L 227.255999 153.312386 
L 231.466717 139.21241 
L 235.677435 125.964173 
L 239.888153 113.790435 
L 244.098872 102.903626 
L 248.30959 93.499717 
L 252.520308 85.752368 
L 256.731026 79.807603 
L 260.941744 75.779233 
L 265.152462 73.745233 
L 269.36318 73.745233 
L 273.573899 75.779233 
L 277.784617 79.807603 
L 281.995335 85.752368 
L 286.206053 93.499717 
L 290.416771 102.903626 
L 294.627489 113.790435 
L 298.838208 125.964173 
L 303.048926 139.21241 
L 307.259644 153.312386 
L 311.470362 168.037183 
L 315.68108 183.161684 
L 319.891798 198.468126 
L 324.102516 213.751058 
L 328.313235 228.821545 
L 332.523953 243.510538 
L 336.734671 257.671343 
L 340.945389 271.181166 
L 345.156107 283.941782 
L 349.366825 295.879375 
L 353.577544 306.943646 
L 357.788262 317.106306 
L 361.99898 326.359075 
L 366.209698 334.711322 
L 370.420416 342.187488 
L 374.631134 348.82439 
L 378.841853 354.668551 
L 383.052571 359.77362 
L 387.263289 364.19798 
L 391.474007 368.002595 
L 395.684725 371.249128 
L 399.895443 373.998362 
L 404.106161 376.308922 
L 408.31688 378.236286 
L 412.527598 379.832082 
L 416.738316 381.143618 
L 420.949034 382.213644 
L 425.159752 383.080284 
L 429.37047 383.777121 
L 433.581189 384.333396 
L 437.791907 384.774282 
L 442.002625 385.121225 
L 446.213343 385.392304 
L 450.424061 385.602612 
L 454.634779 385.764622 
L 458.845497 385.888551 
L 463.056216 385.982687 
L 467.266934 386.053693 
L 471.477652 386.10688 
L 475.68837 386.146444 
" style="fill:none;stroke:#36a2eb;stroke-linecap:square;"/>
   </g>
   <g id="patch_3">
    <path d="M 36 402.93 
L 538.2 402.93 
" style="fill:none;stroke:#000000;stroke-linecap:square;stroke-linejoin:miter;stroke-width:0.8;"/>
   </g>
   <g id="legend_1">
    <g id="patch_4">
     <path d="M 414.919063 88.29875 
L 528.4 88.29875 
Q 531.2 88.29875 531.2 85.49875 
L 531.2 45.8 
Q 531.2 43 528.4 43 
L 414.919063 43 
Q 412.119063 43 412.119063 45.8 
L 412.119063 85.49875 
Q 412.119063 88.29875 414.919063 88.29875 
z
" style="fill:#ffffff;opacity:0.8;stroke:#cccccc;stroke-linejoin:miter;"/>
    </g>
    <g id="patch_5">
     <path d="M 417.719063 59.237813 
L 445.719063 59.237813 
L 445.719063 49.437813 
L 417.719063 49.437813 
z
" style="fill:#ff6384;opacity:0.5;stroke:#ff6384;stroke-linejoin:miter;"/>
    </g>
    <g id="text_1">
     <!-- sidemenu -->
     <defs>
      <path d="M 44.28125 53.078125 
L 44.28125 44.578125 
Q 40.484375 46.53125 36.375 47.5 
Q 32.28125 48.484375 27.875 48.484375 
Q 21.1875 48.484375 17.84375 46.4375 
Q 14.5 44.390625 14.5 40.28125 
Q 14.5 37.15625 16.890625 35.375 
Q 19.28125 33.59375 26.515625 31.984375 
L 29.59375 31.296875 
Q 39.15625 29.25 43.1875 25.515625 
Q 47.21875 21.78125 47.21875 15.09375 
Q 47.21875 7.46875 41.1875 3.015625 
Q 35.15625 -1.421875 24.609375 -1.421875 
Q 20.21875 -1.421875 15.453125 -0.5625 
Q 10.6875 0.296875 5.421875 2 
L 5.421875 11.28125 
Q 10.40625 8.6875 15.234375 7.390625 
Q 20.0625 6.109375 24.8125 6.109375 
Q 31.15625 6.109375 34.5625 8.28125 
Q 37.984375 10.453125 37.984375 14.40625 
Q 37.984375 18.0625 35.515625 20.015625 
Q 33.0625 21.96875 24.703125 23.78125 
L 21.578125 24.515625 
Q 13.234375 26.265625 9.515625 29.90625 
Q 5.8125 33.546875 5.8125 39.890625 
Q 5.8125 47.609375 11.28125 51.796875 
Q 16.75 56 26.8125 56 
Q 31.78125 56 36.171875 55.265625 
Q 40.578125 54.546875 44.28125 53.078125 
z
" id="DejaVuSans-115"/>
      <path d="M 9.421875 54.6875 
L 18.40625 54.6875 
L 18.40625 0 
L 9.421875 0 
z
M 9.421875 75.984375 
L 18.40625 75.984375 
L 18.40625 64.59375 
L 9.421875 64.59375 
z
" id="DejaVuSans-105"/>
      <path d="M 45.40625 46.390625 
L 45.40625 75.984375 
L 54.390625 75.984375 
L 54.390625 0 
L 45.40625 0 
L 45.40625 8.203125 
Q 42.578125 3.328125 38.25 0.953125 
Q 33.9375 -1.421875 27.875 -1.421875 
Q 17.96875 -1.421875 11.734375 6.484375 
Q 5.515625 14.40625 5.515625 27.296875 
Q 5.515625 40.1875 11.734375 48.09375 
Q 17.96875 56 27.875 56 
Q 33.9375 56 38.25 53.625 
Q 42.578125 51.265625 45.40625 46.390625 
z
M 14.796875 27.296875 
Q 14.796875 17.390625 18.875 11.75 
Q 22.953125 6.109375 30.078125 6.109375 
Q 37.203125 6.109375 41.296875 11.75 
Q 45.40625 17.390625 45.40625 27.296875 
Q 45.40625 37.203125 41.296875 42.84375 
Q 37.203125 48.484375 30.078125 48.484375 
Q 22.953125 48.484375 18.875 42.84375 
Q 14.796875 37.203125 14.796875 27.296875 
z
" id="DejaVuSans-100"/>
      <path d="M 56.203125 29.59375 
L 56.203125 25.203125 
L 14.890625 25.203125 
Q 15.484375 15.921875 20.484375 11.0625 
Q 25.484375 6.203125 34.421875 6.203125 
Q 39.59375 6.203125 44.453125 7.46875 
Q 49.3125 8.734375 54.109375 11.28125 
L 54.109375 2.78125 
Q 49.265625 0.734375 44.1875 -0.34375 
Q 39.109375 -1.421875 33.890625 -1.421875 
Q 20.796875 -1.421875 13.15625 6.1875 
Q 5.515625 13.8125 5.515625 26.8125 
Q 5.515625 40.234375 12.765625 48.109375 
Q 20.015625 56 32.328125 56 
Q 43.359375 56 49.78125 48.890625 
Q 56.203125 41.796875 56.203125 29.59375 
z
M 47.21875 32.234375 
Q 47.125 39.59375 43.09375 43.984375 
Q 39.0625 48.390625 32.421875 48.390625 
Q 24.90625 48.390625 20.390625 44.140625 
Q 15.875 39.890625 15.1875 32.171875 
z
" id="DejaVuSans-101"/>
      <path d="M 52 44.1875 
Q 55.375 50.25 60.0625 53.125 
Q 64.75 56 71.09375 56 
Q 79.640625 56 84.28125 50.015625 
Q 88.921875 44.046875 88.921875 33.015625 
L 88.921875 0 
L 79.890625 0 
L 79.890625 32.71875 
Q 79.890625 40.578125 77.09375 44.375 
Q 74.3125 48.1875 68.609375 48.1875 
Q 61.625 48.1875 57.5625 43.546875 
Q 53.515625 38.921875 53.515625 30.90625 
L 53.515625 0 
L 44.484375 0 
L 44.484375 32.71875 
Q 44.484375 40.625 41.703125 44.40625 
Q 38.921875 48.1875 33.109375 48.1875 
Q 26.21875 48.1875 22.15625 43.53125 
Q 18.109375 38.875 18.109375 30.90625 
L 18.109375 0 
L 9.078125 0 
L 9.078125 54.6875 
L 18.109375 54.6875 
L 18.109375 46.1875 
Q 21.1875 51.21875 25.484375 53.609375 
Q 29.78125 56 35.6875 56 
Q 41.65625 56 45.828125 52.96875 
Q 50 49.953125 52 44.1875 
z
" id="DejaVuSans-109"/>
      <path d="M 54.890625 33.015625 
L 54.890625 0 
L 45.90625 0 
L 45.90625 32.71875 
Q 45.90625 40.484375 42.875 44.328125 
Q 39.84375 48.1875 33.796875 48.1875 
Q 26.515625 48.1875 22.3125 43.546875 
Q 18.109375 38.921875 18.109375 30.90625 
L 18.109375 0 
L 9.078125 0 
L 9.078125 54.6875 
L 18.109375 54.6875 
L 18.109375 46.1875 
Q 21.34375 51.125 25.703125 53.5625 
Q 30.078125 56 35.796875 56 
Q 45.21875 56 50.046875 50.171875 
Q 54.890625 44.34375 54.890625 33.015625 
z
" id="DejaVuSans-110"/>
      <path d="M 8.5 21.578125 
L 8.5 54.6875 
L 17.484375 54.6875 
L 17.484375 21.921875 
Q 17.484375 14.15625 20.5 10.265625 
Q 23.53125 6.390625 29.59375 6.390625 
Q 36.859375 6.390625 41.078125 11.03125 
Q 45.3125 15.671875 45.3125 23.6875 
L 45.3125 54.6875 
L 54.296875 54.6875 
L 54.296875 0 
L 45.3125 0 
L 45.3125 8.40625 
Q 42.046875 3.421875 37.71875 1 
Q 33.40625 -1.421875 27.6875 -1.421875 
Q 18.265625 -1.421875 13.375 4.4375 
Q 8.5 10.296875 8.5 21.578125 
z
M 31.109375 56 
z
" id="DejaVuSans-117"/>
     </defs>
     <g transform="translate(456.919063 59.237813)scale(0.14 -0.14)">
      <use xlink:href="#DejaVuSans-115"/>
      <use x="52.099609" xlink:href="#DejaVuSans-105"/>
      <use x="79.882812" xlink:href="#DejaVuSans-100"/>
      <use x="143.359375" xlink:href="#DejaVuSans-101"/>
      <use x="204.882812" xlink:href="#DejaVuSans-109"/>
      <use x="302.294922" xlink:href="#DejaVuSans-101"/>
      <use x="363.818359" xlink:href="#DejaVuSans-110"/>
      <use x="427.197266" xlink:href="#DejaVuSans-117"/>
     </g>
    </g>
    <g id="patch_6">
     <path d="M 417.719063 79.787188 
L 445.719063 79.787188 
L 445.719063 69.987188 
L 417.719063 69.987188 
z
" style="fill:#36a2eb;opacity:0.5;stroke:#36a2eb;stroke-linejoin:miter;"/>
    </g>
    <g id="text_2">
     <!-- tabbar -->
     <defs>
      <path d="M 18.3125 70.21875 
L 18.3125 54.6875 
L 36.8125 54.6875 
L 36.8125 47.703125 
L 18.3125 47.703125 
L 18.3125 18.015625 
Q 18.3125 11.328125 20.140625 9.421875 
Q 21.96875 7.515625 27.59375 7.515625 
L 36.8125 7.515625 
L 36.8125 0 
L 27.59375 0 
Q 17.1875 0 13.234375 3.875 
Q 9.28125 7.765625 9.28125 18.015625 
L 9.28125 47.703125 
L 2.6875 47.703125 
L 2.6875 54.6875 
L 9.28125 54.6875 
L 9.28125 70.21875 
z
" id="DejaVuSans-116"/>
      <path d="M 34.28125 27.484375 
Q 23.390625 27.484375 19.1875 25 
Q 14.984375 22.515625 14.984375 16.5 
Q 14.984375 11.71875 18.140625 8.90625 
Q 21.296875 6.109375 26.703125 6.109375 
Q 34.1875 6.109375 38.703125 11.40625 
Q 43.21875 16.703125 43.21875 25.484375 
L 43.21875 27.484375 
z
M 52.203125 31.203125 
L 52.203125 0 
L 43.21875 0 
L 43.21875 8.296875 
Q 40.140625 3.328125 35.546875 0.953125 
Q 30.953125 -1.421875 24.3125 -1.421875 
Q 15.921875 -1.421875 10.953125 3.296875 
Q 6 8.015625 6 15.921875 
Q 6 25.140625 12.171875 29.828125 
Q 18.359375 34.515625 30.609375 34.515625 
L 43.21875 34.515625 
L 43.21875 35.40625 
Q 43.21875 41.609375 39.140625 45 
Q 35.0625 48.390625 27.6875 48.390625 
Q 23 48.390625 18.546875 47.265625 
Q 14.109375 46.140625 10.015625 43.890625 
L 10.015625 52.203125 
Q 14.9375 54.109375 19.578125 55.046875 
Q 24.21875 56 28.609375 56 
Q 40.484375 56 46.34375 49.84375 
Q 52.203125 43.703125 52.203125 31.203125 
z
" id="DejaVuSans-97"/>
      <path d="M 48.6875 27.296875 
Q 48.6875 37.203125 44.609375 42.84375 
Q 40.53125 48.484375 33.40625 48.484375 
Q 26.265625 48.484375 22.1875 42.84375 
Q 18.109375 37.203125 18.109375 27.296875 
Q 18.109375 17.390625 22.1875 11.75 
Q 26.265625 6.109375 33.40625 6.109375 
Q 40.53125 6.109375 44.609375 11.75 
Q 48.6875 17.390625 48.6875 27.296875 
z
M 18.109375 46.390625 
Q 20.953125 51.265625 25.265625 53.625 
Q 29.59375 56 35.59375 56 
Q 45.5625 56 51.78125 48.09375 
Q 58.015625 40.1875 58.015625 27.296875 
Q 58.015625 14.40625 51.78125 6.484375 
Q 45.5625 -1.421875 35.59375 -1.421875 
Q 29.59375 -1.421875 25.265625 0.953125 
Q 20.953125 3.328125 18.109375 8.203125 
L 18.109375 0 
L 9.078125 0 
L 9.078125 75.984375 
L 18.109375 75.984375 
z
" id="DejaVuSans-98"/>
      <path d="M 41.109375 46.296875 
Q 39.59375 47.171875 37.8125 47.578125 
Q 36.03125 48 33.890625 48 
Q 26.265625 48 22.1875 43.046875 
Q 18.109375 38.09375 18.109375 28.8125 
L 18.109375 0 
L 9.078125 0 
L 9.078125 54.6875 
L 18.109375 54.6875 
L 18.109375 46.1875 
Q 20.953125 51.171875 25.484375 53.578125 
Q 30.03125 56 36.53125 56 
Q 37.453125 56 38.578125 55.875 
Q 39.703125 55.765625 41.0625 55.515625 
z
" id="DejaVuSans-114"/>
     </defs>
     <g transform="translate(456.919063 79.787188)scale(0.14 -0.14)">
      <use xlink:href="#DejaVuSans-116"/>
      <use x="39.208984" xlink:href="#DejaVuSans-97"/>
      <use x="100.488281" xlink:href="#DejaVuSans-98"/>
      <use x="163.964844" xlink:href="#DejaVuSans-98"/>
      <use x="227.441406" xlink:href="#DejaVuSans-97"/>
      <use x="288.720703" xlink:href="#DejaVuSans-114"/>
     </g>
    </g>
   </g>
  </g>
  <g id="axes_2">
   <g id="patch_7">
    <path d="M 36 525.24 
L 538.2 525.24 
L 538.2 402.93 
L 36 402.93 
z
" style="fill:none;"/>
   </g>
   <g id="patch_8">
    <path clip-path="url(#p88d3fa703e)" d="M 224.424547 519.680455 
L 415.786437 519.680455 
L 415.786437 482.616818 
L 224.424547 482.616818 
z
" style="fill:#ff6384;opacity:0.5;"/>
   </g>
   <g id="patch_9">
    <path clip-path="url(#p88d3fa703e)" d="M 165.126853 445.553182 
L 369.38879 445.553182 
L 369.38879 408.489545 
L 165.126853 408.489545 
z
" style="fill:#36a2eb;opacity:0.5;"/>
   </g>
   <g id="matplotlib.axis_1">
    <g id="xtick_1">
     <g id="line2d_3">
      <defs>
       <path d="M 0 0 
L 0 3.5 
" id="m5c730b1b03" style="stroke:#000000;stroke-width:0.8;"/>
      </defs>
      <g>
       <use style="stroke:#000000;stroke-width:0.8;" x="62.084512" xlink:href="#m5c730b1b03" y="525.24"/>
      </g>
     </g>
     <g id="text_3">
      <!-- 2.0 -->
      <defs>
       <path d="M 19.1875 8.296875 
L 53.609375 8.296875 
L 53.609375 0 
L 7.328125 0 
L 7.328125 8.296875 
Q 12.9375 14.109375 22.625 23.890625 
Q 32.328125 33.6875 34.8125 36.53125 
Q 39.546875 41.84375 41.421875 45.53125 
Q 43.3125 49.21875 43.3125 52.78125 
Q 43.3125 58.59375 39.234375 62.25 
Q 35.15625 65.921875 28.609375 65.921875 
Q 23.96875 65.921875 18.8125 64.3125 
Q 13.671875 62.703125 7.8125 59.421875 
L 7.8125 69.390625 
Q 13.765625 71.78125 18.9375 73 
Q 24.125 74.21875 28.421875 74.21875 
Q 39.75 74.21875 46.484375 68.546875 
Q 53.21875 62.890625 53.21875 53.421875 
Q 53.21875 48.921875 51.53125 44.890625 
Q 49.859375 40.875 45.40625 35.40625 
Q 44.1875 33.984375 37.640625 27.21875 
Q 31.109375 20.453125 19.1875 8.296875 
z
" id="DejaVuSans-50"/>
       <path d="M 10.6875 12.40625 
L 21 12.40625 
L 21 0 
L 10.6875 0 
z
" id="DejaVuSans-46"/>
       <path d="M 31.78125 66.40625 
Q 24.171875 66.40625 20.328125 58.90625 
Q 16.5 51.421875 16.5 36.375 
Q 16.5 21.390625 20.328125 13.890625 
Q 24.171875 6.390625 31.78125 6.390625 
Q 39.453125 6.390625 43.28125 13.890625 
Q 47.125 21.390625 47.125 36.375 
Q 47.125 51.421875 43.28125 58.90625 
Q 39.453125 66.40625 31.78125 66.40625 
z
M 31.78125 74.21875 
Q 44.046875 74.21875 50.515625 64.515625 
Q 56.984375 54.828125 56.984375 36.375 
Q 56.984375 17.96875 50.515625 8.265625 
Q 44.046875 -1.421875 31.78125 -1.421875 
Q 19.53125 -1.421875 13.0625 8.265625 
Q 6.59375 17.96875 6.59375 36.375 
Q 6.59375 54.828125 13.0625 64.515625 
Q 19.53125 74.21875 31.78125 74.21875 
z
" id="DejaVuSans-48"/>
      </defs>
      <g transform="translate(50.952325 542.877813)scale(0.14 -0.14)">
       <use xlink:href="#DejaVuSans-50"/>
       <use x="63.623047" xlink:href="#DejaVuSans-46"/>
       <use x="95.410156" xlink:href="#DejaVuSans-48"/>
      </g>
     </g>
    </g>
    <g id="xtick_2">
     <g id="line2d_4">
      <g>
       <use style="stroke:#000000;stroke-width:0.8;" x="124.258242" xlink:href="#m5c730b1b03" y="525.24"/>
      </g>
     </g>
     <g id="text_4">
      <!-- 2.2 -->
      <g transform="translate(113.126055 542.877813)scale(0.14 -0.14)">
       <use xlink:href="#DejaVuSans-50"/>
       <use x="63.623047" xlink:href="#DejaVuSans-46"/>
       <use x="95.410156" xlink:href="#DejaVuSans-50"/>
      </g>
     </g>
    </g>
    <g id="xtick_3">
     <g id="line2d_5">
      <g>
       <use style="stroke:#000000;stroke-width:0.8;" x="186.431972" xlink:href="#m5c730b1b03" y="525.24"/>
      </g>
     </g>
     <g id="text_5">
      <!-- 2.4 -->
      <defs>
       <path d="M 37.796875 64.3125 
L 12.890625 25.390625 
L 37.796875 25.390625 
z
M 35.203125 72.90625 
L 47.609375 72.90625 
L 47.609375 25.390625 
L 58.015625 25.390625 
L 58.015625 17.1875 
L 47.609375 17.1875 
L 47.609375 0 
L 37.796875 0 
L 37.796875 17.1875 
L 4.890625 17.1875 
L 4.890625 26.703125 
z
" id="DejaVuSans-52"/>
      </defs>
      <g transform="translate(175.299785 542.877813)scale(0.14 -0.14)">
       <use xlink:href="#DejaVuSans-50"/>
       <use x="63.623047" xlink:href="#DejaVuSans-46"/>
       <use x="95.410156" xlink:href="#DejaVuSans-52"/>
      </g>
     </g>
    </g>
    <g id="xtick_4">
     <g id="line2d_6">
      <g>
       <use style="stroke:#000000;stroke-width:0.8;" x="248.605702" xlink:href="#m5c730b1b03" y="525.24"/>
      </g>
     </g>
     <g id="text_6">
      <!-- 2.6 -->
      <defs>
       <path d="M 33.015625 40.375 
Q 26.375 40.375 22.484375 35.828125 
Q 18.609375 31.296875 18.609375 23.390625 
Q 18.609375 15.53125 22.484375 10.953125 
Q 26.375 6.390625 33.015625 6.390625 
Q 39.65625 6.390625 43.53125 10.953125 
Q 47.40625 15.53125 47.40625 23.390625 
Q 47.40625 31.296875 43.53125 35.828125 
Q 39.65625 40.375 33.015625 40.375 
z
M 52.59375 71.296875 
L 52.59375 62.3125 
Q 48.875 64.0625 45.09375 64.984375 
Q 41.3125 65.921875 37.59375 65.921875 
Q 27.828125 65.921875 22.671875 59.328125 
Q 17.53125 52.734375 16.796875 39.40625 
Q 19.671875 43.65625 24.015625 45.921875 
Q 28.375 48.1875 33.59375 48.1875 
Q 44.578125 48.1875 50.953125 41.515625 
Q 57.328125 34.859375 57.328125 23.390625 
Q 57.328125 12.15625 50.6875 5.359375 
Q 44.046875 -1.421875 33.015625 -1.421875 
Q 20.359375 -1.421875 13.671875 8.265625 
Q 6.984375 17.96875 6.984375 36.375 
Q 6.984375 53.65625 15.1875 63.9375 
Q 23.390625 74.21875 37.203125 74.21875 
Q 40.921875 74.21875 44.703125 73.484375 
Q 48.484375 72.75 52.59375 71.296875 
z
" id="DejaVuSans-54"/>
      </defs>
      <g transform="translate(237.473515 542.877813)scale(0.14 -0.14)">
       <use xlink:href="#DejaVuSans-50"/>
       <use x="63.623047" xlink:href="#DejaVuSans-46"/>
       <use x="95.410156" xlink:href="#DejaVuSans-54"/>
      </g>
     </g>
    </g>
    <g id="xtick_5">
     <g id="line2d_7">
      <g>
       <use style="stroke:#000000;stroke-width:0.8;" x="310.779432" xlink:href="#m5c730b1b03" y="525.24"/>
      </g>
     </g>
     <g id="text_7">
      <!-- 2.8 -->
      <defs>
       <path d="M 31.78125 34.625 
Q 24.75 34.625 20.71875 30.859375 
Q 16.703125 27.09375 16.703125 20.515625 
Q 16.703125 13.921875 20.71875 10.15625 
Q 24.75 6.390625 31.78125 6.390625 
Q 38.8125 6.390625 42.859375 10.171875 
Q 46.921875 13.96875 46.921875 20.515625 
Q 46.921875 27.09375 42.890625 30.859375 
Q 38.875 34.625 31.78125 34.625 
z
M 21.921875 38.8125 
Q 15.578125 40.375 12.03125 44.71875 
Q 8.5 49.078125 8.5 55.328125 
Q 8.5 64.0625 14.71875 69.140625 
Q 20.953125 74.21875 31.78125 74.21875 
Q 42.671875 74.21875 48.875 69.140625 
Q 55.078125 64.0625 55.078125 55.328125 
Q 55.078125 49.078125 51.53125 44.71875 
Q 48 40.375 41.703125 38.8125 
Q 48.828125 37.15625 52.796875 32.3125 
Q 56.78125 27.484375 56.78125 20.515625 
Q 56.78125 9.90625 50.3125 4.234375 
Q 43.84375 -1.421875 31.78125 -1.421875 
Q 19.734375 -1.421875 13.25 4.234375 
Q 6.78125 9.90625 6.78125 20.515625 
Q 6.78125 27.484375 10.78125 32.3125 
Q 14.796875 37.15625 21.921875 38.8125 
z
M 18.3125 54.390625 
Q 18.3125 48.734375 21.84375 45.5625 
Q 25.390625 42.390625 31.78125 42.390625 
Q 38.140625 42.390625 41.71875 45.5625 
Q 45.3125 48.734375 45.3125 54.390625 
Q 45.3125 60.0625 41.71875 63.234375 
Q 38.140625 66.40625 31.78125 66.40625 
Q 25.390625 66.40625 21.84375 63.234375 
Q 18.3125 60.0625 18.3125 54.390625 
z
" id="DejaVuSans-56"/>
      </defs>
      <g transform="translate(299.647245 542.877813)scale(0.14 -0.14)">
       <use xlink:href="#DejaVuSans-50"/>
       <use x="63.623047" xlink:href="#DejaVuSans-46"/>
       <use x="95.410156" xlink:href="#DejaVuSans-56"/>
      </g>
     </g>
    </g>
    <g id="xtick_6">
     <g id="line2d_8">
      <g>
       <use style="stroke:#000000;stroke-width:0.8;" x="372.953163" xlink:href="#m5c730b1b03" y="525.24"/>
      </g>
     </g>
     <g id="text_8">
      <!-- 3.0 -->
      <defs>
       <path d="M 40.578125 39.3125 
Q 47.65625 37.796875 51.625 33 
Q 55.609375 28.21875 55.609375 21.1875 
Q 55.609375 10.40625 48.1875 4.484375 
Q 40.765625 -1.421875 27.09375 -1.421875 
Q 22.515625 -1.421875 17.65625 -0.515625 
Q 12.796875 0.390625 7.625 2.203125 
L 7.625 11.71875 
Q 11.71875 9.328125 16.59375 8.109375 
Q 21.484375 6.890625 26.8125 6.890625 
Q 36.078125 6.890625 40.9375 10.546875 
Q 45.796875 14.203125 45.796875 21.1875 
Q 45.796875 27.640625 41.28125 31.265625 
Q 36.765625 34.90625 28.71875 34.90625 
L 20.21875 34.90625 
L 20.21875 43.015625 
L 29.109375 43.015625 
Q 36.375 43.015625 40.234375 45.921875 
Q 44.09375 48.828125 44.09375 54.296875 
Q 44.09375 59.90625 40.109375 62.90625 
Q 36.140625 65.921875 28.71875 65.921875 
Q 24.65625 65.921875 20.015625 65.03125 
Q 15.375 64.15625 9.8125 62.3125 
L 9.8125 71.09375 
Q 15.4375 72.65625 20.34375 73.4375 
Q 25.25 74.21875 29.59375 74.21875 
Q 40.828125 74.21875 47.359375 69.109375 
Q 53.90625 64.015625 53.90625 55.328125 
Q 53.90625 49.265625 50.4375 45.09375 
Q 46.96875 40.921875 40.578125 39.3125 
z
" id="DejaVuSans-51"/>
      </defs>
      <g transform="translate(361.820975 542.877813)scale(0.14 -0.14)">
       <use xlink:href="#DejaVuSans-51"/>
       <use x="63.623047" xlink:href="#DejaVuSans-46"/>
       <use x="95.410156" xlink:href="#DejaVuSans-48"/>
      </g>
     </g>
    </g>
    <g id="xtick_7">
     <g id="line2d_9">
      <g>
       <use style="stroke:#000000;stroke-width:0.8;" x="435.126893" xlink:href="#m5c730b1b03" y="525.24"/>
      </g>
     </g>
     <g id="text_9">
      <!-- 3.2 -->
      <g transform="translate(423.994705 542.877813)scale(0.14 -0.14)">
       <use xlink:href="#DejaVuSans-51"/>
       <use x="63.623047" xlink:href="#DejaVuSans-46"/>
       <use x="95.410156" xlink:href="#DejaVuSans-50"/>
      </g>
     </g>
    </g>
    <g id="xtick_8">
     <g id="line2d_10">
      <g>
       <use style="stroke:#000000;stroke-width:0.8;" x="497.300623" xlink:href="#m5c730b1b03" y="525.24"/>
      </g>
     </g>
     <g id="text_10">
      <!-- 3.4 -->
      <g transform="translate(486.168435 542.877813)scale(0.14 -0.14)">
       <use xlink:href="#DejaVuSans-51"/>
       <use x="63.623047" xlink:href="#DejaVuSans-46"/>
       <use x="95.410156" xlink:href="#DejaVuSans-52"/>
      </g>
     </g>
    </g>
   </g>
   <g id="line2d_11">
    <path clip-path="url(#p88d3fa703e)" d="M 320.105492 525.24 
L 320.105492 402.93 
" style="fill:none;stroke:#ff6384;stroke-dasharray:5.55,2.4;stroke-dashoffset:0;stroke-opacity:0.8;stroke-width:1.5;"/>
   </g>
   <g id="line2d_12">
    <path clip-path="url(#p88d3fa703e)" d="M 267.257821 525.24 
L 267.257821 402.93 
" style="fill:none;stroke:#36a2eb;stroke-dasharray:5.55,2.4;stroke-dashoffset:0;stroke-opacity:0.8;stroke-width:1.5;"/>
   </g>
   <g id="patch_10">
    <path d="M 36 525.24 
L 538.2 525.24 
" style="fill:none;stroke:#000000;stroke-linecap:square;stroke-linejoin:miter;stroke-width:0.8;"/>
   </g>
  </g>
 </g>
 <defs>
  <clipPath id="p91c64152e2">
   <rect height="366.93" width="502.2" x="36" y="36"/>
  </clipPath>
  <clipPath id="p88d3fa703e">
   <rect height="122.31" width="502.2" x="36" y="402.93"/>
  </clipPath>
 </defs>
</svg>
