<?xml version="1.0" encoding="utf-8" standalone="no"?>
<!DOCTYPE svg PUBLIC "-//W3C//DTD SVG 1.1//EN"
  "http://www.w3.org/Graphics/SVG/1.1/DTD/svg11.dtd">
<!-- Created with matplotlib (https://matplotlib.org/) -->
<svg height="581.789375pt" version="1.1" viewBox="0 0 574.2 581.789375" width="574.2pt" xmlns="http://www.w3.org/2000/svg" xmlns:xlink="http://www.w3.org/1999/xlink">
 <defs>
  <style type="text/css">
*{stroke-linecap:butt;stroke-linejoin:round;}
  </style>
 </defs>
 <g id="figure_1">
  <g id="patch_1">
   <path d="M 0 581.789375 
L 574.2 581.789375 
L 574.2 0 
L 0 0 
z
" style="fill:none;"/>
  </g>
  <g id="axes_1">
   <g id="patch_2">
    <path d="M 36 402.93 
L 538.2 402.93 
L 538.2 36 
L 36 36 
z
" style="fill:none;"/>
   </g>
   <g id="PolyCollection_1">
    <defs>
     <path d="M 127.299288 -195.538011 
L 127.299288 -195.650004 
L 131.219222 -195.692234 
L 135.139156 -195.749007 
L 139.059089 -195.8248 
L 142.979023 -195.925281 
L 146.898957 -196.057565 
L 150.818891 -196.230497 
L 154.738824 -196.454982 
L 158.658758 -196.744335 
L 162.578692 -197.114666 
L 166.498626 -197.585273 
L 170.418559 -198.179047 
L 174.338493 -198.922859 
L 178.258427 -199.847921 
L 182.17836 -200.990079 
L 186.098294 -202.390029 
L 190.018228 -204.093399 
L 193.938162 -206.150691 
L 197.858095 -208.617009 
L 201.778029 -211.551575 
L 205.697963 -215.016962 
L 209.617897 -219.078053 
L 213.53783 -223.800667 
L 217.457764 -229.249878 
L 221.377698 -235.488004 
L 225.297631 -242.572312 
L 229.217565 -250.552459 
L 233.137499 -259.467747 
L 237.057433 -269.344261 
L 240.977366 -280.192004 
L 244.8973 -292.002137 
L 248.817234 -304.744465 
L 252.737168 -318.365297 
L 256.657101 -332.785841 
L 260.577035 -347.901251 
L 264.496969 -363.580456 
L 268.416902 -379.666871 
L 272.336836 -395.980052 
L 276.25677 -412.31833 
L 280.176704 -428.4624 
L 284.096637 -444.179822 
L 288.016571 -459.230303 
L 291.936505 -473.371627 
L 295.856439 -486.366018 
L 299.776372 -497.986726 
L 303.696306 -508.02457 
L 307.61624 -516.294181 
L 311.536173 -522.639693 
L 315.456107 -526.939623 
L 319.376041 -529.110739 
L 323.295975 -529.110739 
L 327.215908 -526.939623 
L 331.135842 -522.639693 
L 335.055776 -516.294181 
L 338.97571 -508.02457 
L 342.895643 -497.986726 
L 346.815577 -486.366018 
L 350.735511 -473.371627 
L 354.655444 -459.230303 
L 358.575378 -444.179822 
L 362.495312 -428.4624 
L 366.415246 -412.31833 
L 370.335179 -395.980052 
L 374.255113 -379.666871 
L 378.175047 -363.580456 
L 382.094981 -347.901251 
L 386.014914 -332.785841 
L 389.934848 -318.365297 
L 393.854782 -304.744465 
L 397.774715 -292.002137 
L 401.694649 -280.192004 
L 405.614583 -269.344261 
L 409.534517 -259.467747 
L 413.45445 -250.552459 
L 417.374384 -242.572312 
L 421.294318 -235.488004 
L 425.214252 -229.249878 
L 429.134185 -223.800667 
L 433.054119 -219.078053 
L 436.974053 -215.016962 
L 440.893986 -211.551575 
L 444.81392 -208.617009 
L 448.733854 -206.150691 
L 452.653788 -204.093399 
L 456.573721 -202.390029 
L 460.493655 -200.990079 
L 464.413589 -199.847921 
L 468.333523 -198.922859 
L 472.253456 -198.179047 
L 476.17339 -197.585273 
L 480.093324 -197.114666 
L 484.013257 -196.744335 
L 487.933191 -196.454982 
L 491.853125 -196.230497 
L 495.773059 -196.057565 
L 499.692992 -195.925281 
L 503.612926 -195.8248 
L 507.53286 -195.749007 
L 511.452794 -195.692234 
L 515.372727 -195.650004 
L 515.372727 -195.538011 
L 515.372727 -195.538011 
L 511.452794 -195.538011 
L 507.53286 -195.538011 
L 503.612926 -195.538011 
L 499.692992 -195.538011 
L 495.773059 -195.538011 
L 491.853125 -195.538011 
L 487.933191 -195.538011 
L 484.013257 -195.538011 
L 480.093324 -195.538011 
L 476.17339 -195.538011 
L 472.253456 -195.538011 
L 468.333523 -195.538011 
L 464.413589 -195.538011 
L 460.493655 -195.538011 
L 456.573721 -195.538011 
L 452.653788 -195.538011 
L 448.733854 -195.538011 
L 444.81392 -195.538011 
L 440.893986 -195.538011 
L 436.974053 -195.538011 
L 433.054119 -195.538011 
L 429.134185 -195.538011 
L 425.214252 -195.538011 
L 421.294318 -195.538011 
L 417.374384 -195.538011 
L 413.45445 -195.538011 
L 409.534517 -195.538011 
L 405.614583 -195.538011 
L 401.694649 -195.538011 
L 397.774715 -195.538011 
L 393.854782 -195.538011 
L 389.934848 -195.538011 
L 386.014914 -195.538011 
L 382.094981 -195.538011 
L 378.175047 -195.538011 
L 374.255113 -195.538011 
L 370.335179 -195.538011 
L 366.415246 -195.538011 
L 362.495312 -195.538011 
L 358.575378 -195.538011 
L 354.655444 -195.538011 
L 350.735511 -195.538011 
L 346.815577 -195.538011 
L 342.895643 -195.538011 
L 338.97571 -195.538011 
L 335.055776 -195.538011 
L 331.135842 -195.538011 
L 327.215908 -195.538011 
L 323.295975 -195.538011 
L 319.376041 -195.538011 
L 315.456107 -195.538011 
L 311.536173 -195.538011 
L 307.61624 -195.538011 
L 303.696306 -195.538011 
L 299.776372 -195.538011 
L 295.856439 -195.538011 
L 291.936505 -195.538011 
L 288.016571 -195.538011 
L 284.096637 -195.538011 
L 280.176704 -195.538011 
L 276.25677 -195.538011 
L 272.336836 -195.538011 
L 268.416902 -195.538011 
L 264.496969 -195.538011 
L 260.577035 -195.538011 
L 256.657101 -195.538011 
L 252.737168 -195.538011 
L 248.817234 -195.538011 
L 244.8973 -195.538011 
L 240.977366 -195.538011 
L 237.057433 -195.538011 
L 233.137499 -195.538011 
L 229.217565 -195.538011 
L 225.297631 -195.538011 
L 221.377698 -195.538011 
L 217.457764 -195.538011 
L 213.53783 -195.538011 
L 209.617897 -195.538011 
L 205.697963 -195.538011 
L 201.778029 -195.538011 
L 197.858095 -195.538011 
L 193.938162 -195.538011 
L 190.018228 -195.538011 
L 186.098294 -195.538011 
L 182.17836 -195.538011 
L 178.258427 -195.538011 
L 174.338493 -195.538011 
L 170.418559 -195.538011 
L 166.498626 -195.538011 
L 162.578692 -195.538011 
L 158.658758 -195.538011 
L 154.738824 -195.538011 
L 150.818891 -195.538011 
L 146.898957 -195.538011 
L 142.979023 -195.538011 
L 139.059089 -195.538011 
L 135.139156 -195.538011 
L 131.219222 -195.538011 
L 127.299288 -195.538011 
z
" id="mb58b78ff62" style="stroke:#ff6384;stroke-opacity:0.5;"/>
    </defs>
    <g clip-path="url(#p45bf71c9b3)">
     <use style="fill:#ff6384;fill-opacity:0.5;stroke:#ff6384;stroke-opacity:0.5;" x="0" xlink:href="#mb58b78ff62" y="581.789375"/>
    </g>
   </g>
   <g id="PolyCollection_2">
    <defs>
     <path d="M 58.827273 -195.538011 
L 58.827273 -195.643011 
L 63.00827 -195.682605 
L 67.189267 -195.735832 
L 71.370265 -195.806893 
L 75.551262 -195.9011 
L 79.73226 -196.025124 
L 83.913257 -196.187258 
L 88.094254 -196.397726 
L 92.275252 -196.669012 
L 96.456249 -197.016219 
L 100.637246 -197.457441 
L 104.818244 -198.014139 
L 108.999241 -198.711507 
L 113.180238 -199.578808 
L 117.361236 -200.649649 
L 121.542233 -201.962185 
L 125.72323 -203.559196 
L 129.904228 -205.48803 
L 134.085225 -207.80035 
L 138.266223 -210.551679 
L 142.44722 -213.800686 
L 146.628217 -217.608201 
L 150.809215 -222.035932 
L 154.990212 -227.144891 
L 159.171209 -232.993506 
L 163.352207 -239.635466 
L 167.533204 -247.117329 
L 171.714201 -255.475941 
L 175.895199 -264.73576 
L 180.076196 -274.906165 
L 184.257194 -285.978868 
L 188.438191 -297.925558 
L 192.619188 -310.695898 
L 196.800186 -324.216016 
L 200.981183 -338.387612 
L 205.16218 -353.087799 
L 209.343178 -368.16977 
L 213.524175 -383.464348 
L 217.705172 -398.782455 
L 221.88617 -413.918481 
L 226.067167 -428.654499 
L 230.248165 -442.76522 
L 234.429162 -456.023552 
L 238.610159 -468.206567 
L 242.791157 -479.101672 
L 246.972154 -488.512748 
L 251.153151 -496.266 
L 255.334149 -502.215295 
L 259.515146 -506.246735 
L 263.696143 -508.282285 
L 267.877141 -508.282285 
L 272.058138 -506.246735 
L 276.239135 -502.215295 
L 280.420133 -496.266 
L 284.60113 -488.512748 
L 288.782128 -479.101672 
L 292.963125 -468.206567 
L 297.144122 -456.023552 
L 301.32512 -442.76522 
L 305.506117 -428.654499 
L 309.687114 -413.918481 
L 313.868112 -398.782455 
L 318.049109 -383.464348 
L 322.230106 -368.16977 
L 326.411104 -353.087799 
L 330.592101 -338.387612 
L 334.773099 -324.216016 
L 338.954096 -310.695898 
L 343.135093 -297.925558 
L 347.316091 -285.978868 
L 351.497088 -274.906165 
L 355.678085 -264.73576 
L 359.859083 -255.475941 
L 364.04008 -247.117329 
L 368.221077 -239.635466 
L 372.402075 -232.993506 
L 376.583072 -227.144891 
L 380.764069 -222.035932 
L 384.945067 -217.608201 
L 389.126064 -213.800686 
L 393.307062 -210.551679 
L 397.488059 -207.80035 
L 401.669056 -205.48803 
L 405.850054 -203.559196 
L 410.031051 -201.962185 
L 414.212048 -200.649649 
L 418.393046 -199.578808 
L 422.574043 -198.711507 
L 426.75504 -198.014139 
L 430.936038 -197.457441 
L 435.117035 -197.016219 
L 439.298033 -196.669012 
L 443.47903 -196.397726 
L 447.660027 -196.187258 
L 451.841025 -196.025124 
L 456.022022 -195.9011 
L 460.203019 -195.806893 
L 464.384017 -195.735832 
L 468.565014 -195.682605 
L 472.746011 -195.643011 
L 472.746011 -195.538011 
L 472.746011 -195.538011 
L 468.565014 -195.538011 
L 464.384017 -195.538011 
L 460.203019 -195.538011 
L 456.022022 -195.538011 
L 451.841025 -195.538011 
L 447.660027 -195.538011 
L 443.47903 -195.538011 
L 439.298033 -195.538011 
L 435.117035 -195.538011 
L 430.936038 -195.538011 
L 426.75504 -195.538011 
L 422.574043 -195.538011 
L 418.393046 -195.538011 
L 414.212048 -195.538011 
L 410.031051 -195.538011 
L 405.850054 -195.538011 
L 401.669056 -195.538011 
L 397.488059 -195.538011 
L 393.307062 -195.538011 
L 389.126064 -195.538011 
L 384.945067 -195.538011 
L 380.764069 -195.538011 
L 376.583072 -195.538011 
L 372.402075 -195.538011 
L 368.221077 -195.538011 
L 364.04008 -195.538011 
L 359.859083 -195.538011 
L 355.678085 -195.538011 
L 351.497088 -195.538011 
L 347.316091 -195.538011 
L 343.135093 -195.538011 
L 338.954096 -195.538011 
L 334.773099 -195.538011 
L 330.592101 -195.538011 
L 326.411104 -195.538011 
L 322.230106 -195.538011 
L 318.049109 -195.538011 
L 313.868112 -195.538011 
L 309.687114 -195.538011 
L 305.506117 -195.538011 
L 301.32512 -195.538011 
L 297.144122 -195.538011 
L 292.963125 -195.538011 
L 288.782128 -195.538011 
L 284.60113 -195.538011 
L 280.420133 -195.538011 
L 276.239135 -195.538011 
L 272.058138 -195.538011 
L 267.877141 -195.538011 
L 263.696143 -195.538011 
L 259.515146 -195.538011 
L 255.334149 -195.538011 
L 251.153151 -195.538011 
L 246.972154 -195.538011 
L 242.791157 -195.538011 
L 238.610159 -195.538011 
L 234.429162 -195.538011 
L 230.248165 -195.538011 
L 226.067167 -195.538011 
L 221.88617 -195.538011 
L 217.705172 -195.538011 
L 213.524175 -195.538011 
L 209.343178 -195.538011 
L 205.16218 -195.538011 
L 200.981183 -195.538011 
L 196.800186 -195.538011 
L 192.619188 -195.538011 
L 188.438191 -195.538011 
L 184.257194 -195.538011 
L 180.076196 -195.538011 
L 175.895199 -195.538011 
L 171.714201 -195.538011 
L 167.533204 -195.538011 
L 163.352207 -195.538011 
L 159.171209 -195.538011 
L 154.990212 -195.538011 
L 150.809215 -195.538011 
L 146.628217 -195.538011 
L 142.44722 -195.538011 
L 138.266223 -195.538011 
L 134.085225 -195.538011 
L 129.904228 -195.538011 
L 125.72323 -195.538011 
L 121.542233 -195.538011 
L 117.361236 -195.538011 
L 113.180238 -195.538011 
L 108.999241 -195.538011 
L 104.818244 -195.538011 
L 100.637246 -195.538011 
L 96.456249 -195.538011 
L 92.275252 -195.538011 
L 88.094254 -195.538011 
L 83.913257 -195.538011 
L 79.73226 -195.538011 
L 75.551262 -195.538011 
L 71.370265 -195.538011 
L 67.189267 -195.538011 
L 63.00827 -195.538011 
L 58.827273 -195.538011 
z
" id="m1546b1008c" style="stroke:#36a2eb;stroke-opacity:0.5;"/>
    </defs>
    <g clip-path="url(#p45bf71c9b3)">
     <use style="fill:#36a2eb;fill-opacity:0.5;stroke:#36a2eb;stroke-opacity:0.5;" x="0" xlink:href="#m1546b1008c" y="581.789375"/>
    </g>
   </g>
   <g id="line2d_1">
    <path clip-path="url(#p45bf71c9b3)" d="M 127.299288 386.139371 
L 131.219222 386.097141 
L 135.139156 386.040368 
L 139.059089 385.964575 
L 142.979023 385.864094 
L 146.898957 385.73181 
L 150.818891 385.558878 
L 154.738824 385.334393 
L 158.658758 385.04504 
L 162.578692 384.674709 
L 166.498626 384.204102 
L 170.418559 383.610328 
L 174.338493 382.866516 
L 178.258427 381.941454 
L 182.17836 380.799296 
L 186.098294 379.399346 
L 190.018228 377.695976 
L 193.938162 375.638684 
L 197.858095 373.172366 
L 201.778029 370.2378 
L 205.697963 366.772413 
L 209.617897 362.711322 
L 213.53783 357.988708 
L 217.457764 352.539497 
L 221.377698 346.301371 
L 225.297631 339.217063 
L 229.217565 331.236916 
L 233.137499 322.321628 
L 237.057433 312.445114 
L 240.977366 301.597371 
L 244.8973 289.787238 
L 248.817234 277.04491 
L 252.737168 263.424078 
L 256.657101 249.003534 
L 260.577035 233.888124 
L 264.496969 218.208919 
L 268.416902 202.122504 
L 272.336836 185.809323 
L 276.25677 169.471045 
L 280.176704 153.326975 
L 284.096637 137.609553 
L 288.016571 122.559072 
L 291.936505 108.417748 
L 295.856439 95.423357 
L 299.776372 83.802649 
L 303.696306 73.764805 
L 307.61624 65.495194 
L 311.536173 59.149682 
L 315.456107 54.849752 
L 319.376041 52.678636 
L 323.295975 52.678636 
L 327.215908 54.849752 
L 331.135842 59.149682 
L 335.055776 65.495194 
L 338.97571 73.764805 
L 342.895643 83.802649 
L 346.815577 95.423357 
L 350.735511 108.417748 
L 354.655444 122.559072 
L 358.575378 137.609553 
L 362.495312 153.326975 
L 366.415246 169.471045 
L 370.335179 185.809323 
L 374.255113 202.122504 
L 378.175047 218.208919 
L 382.094981 233.888124 
L 386.014914 249.003534 
L 389.934848 263.424078 
L 393.854782 277.04491 
L 397.774715 289.787238 
L 401.694649 301.597371 
L 405.614583 312.445114 
L 409.534517 322.321628 
L 413.45445 331.236916 
L 417.374384 339.217063 
L 421.294318 346.301371 
L 425.214252 352.539497 
L 429.134185 357.988708 
L 433.054119 362.711322 
L 436.974053 366.772413 
L 440.893986 370.2378 
L 444.81392 373.172366 
L 448.733854 375.638684 
L 452.653788 377.695976 
L 456.573721 379.399346 
L 460.493655 380.799296 
L 464.413589 381.941454 
L 468.333523 382.866516 
L 472.253456 383.610328 
L 476.17339 384.204102 
L 480.093324 384.674709 
L 484.013257 385.04504 
L 487.933191 385.334393 
L 491.853125 385.558878 
L 495.773059 385.73181 
L 499.692992 385.864094 
L 503.612926 385.964575 
L 507.53286 386.040368 
L 511.452794 386.097141 
L 515.372727 386.139371 
" style="fill:none;stroke:#ff6384;stroke-linecap:square;"/>
   </g>
   <g id="line2d_2">
    <path clip-path="url(#p45bf71c9b3)" d="M 58.827273 386.146364 
L 63.00827 386.10677 
L 67.189267 386.053543 
L 71.370265 385.982482 
L 75.551262 385.888275 
L 79.73226 385.764251 
L 83.913257 385.602117 
L 88.094254 385.391649 
L 92.275252 385.120363 
L 96.456249 384.773156 
L 100.637246 384.331934 
L 104.818244 383.775236 
L 108.999241 383.077868 
L 113.180238 382.210567 
L 117.361236 381.139726 
L 121.542233 379.82719 
L 125.72323 378.230179 
L 129.904228 376.301345 
L 134.085225 373.989025 
L 138.266223 371.237696 
L 142.44722 367.988689 
L 146.628217 364.181174 
L 150.809215 359.753443 
L 154.990212 354.644484 
L 159.171209 348.795869 
L 163.352207 342.153909 
L 167.533204 334.672046 
L 171.714201 326.313434 
L 175.895199 317.053615 
L 180.076196 306.88321 
L 184.257194 295.810507 
L 188.438191 283.863817 
L 192.619188 271.093477 
L 196.800186 257.573359 
L 200.981183 243.401763 
L 205.16218 228.701576 
L 209.343178 213.619605 
L 213.524175 198.325027 
L 217.705172 183.00692 
L 221.88617 167.870894 
L 226.067167 153.134876 
L 230.248165 139.024155 
L 234.429162 125.765823 
L 238.610159 113.582808 
L 242.791157 102.687703 
L 246.972154 93.276627 
L 251.153151 85.523375 
L 255.334149 79.57408 
L 259.515146 75.54264 
L 263.696143 73.50709 
L 267.877141 73.50709 
L 272.058138 75.54264 
L 276.239135 79.57408 
L 280.420133 85.523375 
L 284.60113 93.276627 
L 288.782128 102.687703 
L 292.963125 113.582808 
L 297.144122 125.765823 
L 301.32512 139.024155 
L 305.506117 153.134876 
L 309.687114 167.870894 
L 313.868112 183.00692 
L 318.049109 198.325027 
L 322.230106 213.619605 
L 326.411104 228.701576 
L 330.592101 243.401763 
L 334.773099 257.573359 
L 338.954096 271.093477 
L 343.135093 283.863817 
L 347.316091 295.810507 
L 351.497088 306.88321 
L 355.678085 317.053615 
L 359.859083 326.313434 
L 364.04008 334.672046 
L 368.221077 342.153909 
L 372.402075 348.795869 
L 376.583072 354.644484 
L 380.764069 359.753443 
L 384.945067 364.181174 
L 389.126064 367.988689 
L 393.307062 371.237696 
L 397.488059 373.989025 
L 401.669056 376.301345 
L 405.850054 378.230179 
L 410.031051 379.82719 
L 414.212048 381.139726 
L 418.393046 382.210567 
L 422.574043 383.077868 
L 426.75504 383.775236 
L 430.936038 384.331934 
L 435.117035 384.773156 
L 439.298033 385.120363 
L 443.47903 385.391649 
L 447.660027 385.602117 
L 451.841025 385.764251 
L 456.022022 385.888275 
L 460.203019 385.982482 
L 464.384017 386.053543 
L 468.565014 386.10677 
L 472.746011 386.146364 
" style="fill:none;stroke:#36a2eb;stroke-linecap:square;"/>
   </g>
   <g id="patch_3">
    <path d="M 36 402.93 
L 538.2 402.93 
" style="fill:none;stroke:#000000;stroke-linecap:square;stroke-linejoin:miter;stroke-width:0.8;"/>
   </g>
   <g id="legend_1">
    <g id="patch_4">
     <path d="M 414.919063 88.29875 
L 528.4 88.29875 
Q 531.2 88.29875 531.2 85.49875 
L 531.2 45.8 
Q 531.2 43 528.4 43 
L 414.919063 43 
Q 412.119063 43 412.119063 45.8 
L 412.119063 85.49875 
Q 412.119063 88.29875 414.919063 88.29875 
z
" style="fill:#ffffff;opacity:0.8;stroke:#cccccc;stroke-linejoin:miter;"/>
    </g>
    <g id="patch_5">
     <path d="M 417.719063 59.237813 
L 445.719063 59.237813 
L 445.719063 49.437813 
L 417.719063 49.437813 
z
" style="fill:#ff6384;opacity:0.5;stroke:#ff6384;stroke-linejoin:miter;"/>
    </g>
    <g id="text_1">
     <!-- sidemenu -->
     <defs>
      <path d="M 44.28125 53.078125 
L 44.28125 44.578125 
Q 40.484375 46.53125 36.375 47.5 
Q 32.28125 48.484375 27.875 48.484375 
Q 21.1875 48.484375 17.84375 46.4375 
Q 14.5 44.390625 14.5 40.28125 
Q 14.5 37.15625 16.890625 35.375 
Q 19.28125 33.59375 26.515625 31.984375 
L 29.59375 31.296875 
Q 39.15625 29.25 43.1875 25.515625 
Q 47.21875 21.78125 47.21875 15.09375 
Q 47.21875 7.46875 41.1875 3.015625 
Q 35.15625 -1.421875 24.609375 -1.421875 
Q 20.21875 -1.421875 15.453125 -0.5625 
Q 10.6875 0.296875 5.421875 2 
L 5.421875 11.28125 
Q 10.40625 8.6875 15.234375 7.390625 
Q 20.0625 6.109375 24.8125 6.109375 
Q 31.15625 6.109375 34.5625 8.28125 
Q 37.984375 10.453125 37.984375 14.40625 
Q 37.984375 18.0625 35.515625 20.015625 
Q 33.0625 21.96875 24.703125 23.78125 
L 21.578125 24.515625 
Q 13.234375 26.265625 9.515625 29.90625 
Q 5.8125 33.546875 5.8125 39.890625 
Q 5.8125 47.609375 11.28125 51.796875 
Q 16.75 56 26.8125 56 
Q 31.78125 56 36.171875 55.265625 
Q 40.578125 54.546875 44.28125 53.078125 
z
" id="DejaVuSans-115"/>
      <path d="M 9.421875 54.6875 
L 18.40625 54.6875 
L 18.40625 0 
L 9.421875 0 
z
M 9.421875 75.984375 
L 18.40625 75.984375 
L 18.40625 64.59375 
L 9.421875 64.59375 
z
" id="DejaVuSans-105"/>
      <path d="M 45.40625 46.390625 
L 45.40625 75.984375 
L 54.390625 75.984375 
L 54.390625 0 
L 45.40625 0 
L 45.40625 8.203125 
Q 42.578125 3.328125 38.25 0.953125 
Q 33.9375 -1.421875 27.875 -1.421875 
Q 17.96875 -1.421875 11.734375 6.484375 
Q 5.515625 14.40625 5.515625 27.296875 
Q 5.515625 40.1875 11.734375 48.09375 
Q 17.96875 56 27.875 56 
Q 33.9375 56 38.25 53.625 
Q 42.578125 51.265625 45.40625 46.390625 
z
M 14.796875 27.296875 
Q 14.796875 17.390625 18.875 11.75 
Q 22.953125 6.109375 30.078125 6.109375 
Q 37.203125 6.109375 41.296875 11.75 
Q 45.40625 17.390625 45.40625 27.296875 
Q 45.40625 37.203125 41.296875 42.84375 
Q 37.203125 48.484375 30.078125 48.484375 
Q 22.953125 48.484375 18.875 42.84375 
Q 14.796875 37.203125 14.796875 27.296875 
z
" id="DejaVuSans-100"/>
      <path d="M 56.203125 29.59375 
L 56.203125 25.203125 
L 14.890625 25.203125 
Q 15.484375 15.921875 20.484375 11.0625 
Q 25.484375 6.203125 34.421875 6.203125 
Q 39.59375 6.203125 44.453125 7.46875 
Q 49.3125 8.734375 54.109375 11.28125 
L 54.109375 2.78125 
Q 49.265625 0.734375 44.1875 -0.34375 
Q 39.109375 -1.421875 33.890625 -1.421875 
Q 20.796875 -1.421875 13.15625 6.1875 
Q 5.515625 13.8125 5.515625 26.8125 
Q 5.515625 40.234375 12.765625 48.109375 
Q 20.015625 56 32.328125 56 
Q 43.359375 56 49.78125 48.890625 
Q 56.203125 41.796875 56.203125 29.59375 
z
M 47.21875 32.234375 
Q 47.125 39.59375 43.09375 43.984375 
Q 39.0625 48.390625 32.421875 48.390625 
Q 24.90625 48.390625 20.390625 44.140625 
Q 15.875 39.890625 15.1875 32.171875 
z
" id="DejaVuSans-101"/>
      <path d="M 52 44.1875 
Q 55.375 50.25 60.0625 53.125 
Q 64.75 56 71.09375 56 
Q 79.640625 56 84.28125 50.015625 
Q 88.921875 44.046875 88.921875 33.015625 
L 88.921875 0 
L 79.890625 0 
L 79.890625 32.71875 
Q 79.890625 40.578125 77.09375 44.375 
Q 74.3125 48.1875 68.609375 48.1875 
Q 61.625 48.1875 57.5625 43.546875 
Q 53.515625 38.921875 53.515625 30.90625 
L 53.515625 0 
L 44.484375 0 
L 44.484375 32.71875 
Q 44.484375 40.625 41.703125 44.40625 
Q 38.921875 48.1875 33.109375 48.1875 
Q 26.21875 48.1875 22.15625 43.53125 
Q 18.109375 38.875 18.109375 30.90625 
L 18.109375 0 
L 9.078125 0 
L 9.078125 54.6875 
L 18.109375 54.6875 
L 18.109375 46.1875 
Q 21.1875 51.21875 25.484375 53.609375 
Q 29.78125 56 35.6875 56 
Q 41.65625 56 45.828125 52.96875 
Q 50 49.953125 52 44.1875 
z
" id="DejaVuSans-109"/>
      <path d="M 54.890625 33.015625 
L 54.890625 0 
L 45.90625 0 
L 45.90625 32.71875 
Q 45.90625 40.484375 42.875 44.328125 
Q 39.84375 48.1875 33.796875 48.1875 
Q 26.515625 48.1875 22.3125 43.546875 
Q 18.109375 38.921875 18.109375 30.90625 
L 18.109375 0 
L 9.078125 0 
L 9.078125 54.6875 
L 18.109375 54.6875 
L 18.109375 46.1875 
Q 21.34375 51.125 25.703125 53.5625 
Q 30.078125 56 35.796875 56 
Q 45.21875 56 50.046875 50.171875 
Q 54.890625 44.34375 54.890625 33.015625 
z
" id="DejaVuSans-110"/>
      <path d="M 8.5 21.578125 
L 8.5 54.6875 
L 17.484375 54.6875 
L 17.484375 21.921875 
Q 17.484375 14.15625 20.5 10.265625 
Q 23.53125 6.390625 29.59375 6.390625 
Q 36.859375 6.390625 41.078125 11.03125 
Q 45.3125 15.671875 45.3125 23.6875 
L 45.3125 54.6875 
L 54.296875 54.6875 
L 54.296875 0 
L 45.3125 0 
L 45.3125 8.40625 
Q 42.046875 3.421875 37.71875 1 
Q 33.40625 -1.421875 27.6875 -1.421875 
Q 18.265625 -1.421875 13.375 4.4375 
Q 8.5 10.296875 8.5 21.578125 
z
M 31.109375 56 
z
" id="DejaVuSans-117"/>
     </defs>
     <g transform="translate(456.919063 59.237813)scale(0.14 -0.14)">
      <use xlink:href="#DejaVuSans-115"/>
      <use x="52.099609" xlink:href="#DejaVuSans-105"/>
      <use x="79.882812" xlink:href="#DejaVuSans-100"/>
      <use x="143.359375" xlink:href="#DejaVuSans-101"/>
      <use x="204.882812" xlink:href="#DejaVuSans-109"/>
      <use x="302.294922" xlink:href="#DejaVuSans-101"/>
      <use x="363.818359" xlink:href="#DejaVuSans-110"/>
      <use x="427.197266" xlink:href="#DejaVuSans-117"/>
     </g>
    </g>
    <g id="patch_6">
     <path d="M 417.719063 79.787188 
L 445.719063 79.787188 
L 445.719063 69.987188 
L 417.719063 69.987188 
z
" style="fill:#36a2eb;opacity:0.5;stroke:#36a2eb;stroke-linejoin:miter;"/>
    </g>
    <g id="text_2">
     <!-- tabbar -->
     <defs>
      <path d="M 18.3125 70.21875 
L 18.3125 54.6875 
L 36.8125 54.6875 
L 36.8125 47.703125 
L 18.3125 47.703125 
L 18.3125 18.015625 
Q 18.3125 11.328125 20.140625 9.421875 
Q 21.96875 7.515625 27.59375 7.515625 
L 36.8125 7.515625 
L 36.8125 0 
L 27.59375 0 
Q 17.1875 0 13.234375 3.875 
Q 9.28125 7.765625 9.28125 18.015625 
L 9.28125 47.703125 
L 2.6875 47.703125 
L 2.6875 54.6875 
L 9.28125 54.6875 
L 9.28125 70.21875 
z
" id="DejaVuSans-116"/>
      <path d="M 34.28125 27.484375 
Q 23.390625 27.484375 19.1875 25 
Q 14.984375 22.515625 14.984375 16.5 
Q 14.984375 11.71875 18.140625 8.90625 
Q 21.296875 6.109375 26.703125 6.109375 
Q 34.1875 6.109375 38.703125 11.40625 
Q 43.21875 16.703125 43.21875 25.484375 
L 43.21875 27.484375 
z
M 52.203125 31.203125 
L 52.203125 0 
L 43.21875 0 
L 43.21875 8.296875 
Q 40.140625 3.328125 35.546875 0.953125 
Q 30.953125 -1.421875 24.3125 -1.421875 
Q 15.921875 -1.421875 10.953125 3.296875 
Q 6 8.015625 6 15.921875 
Q 6 25.140625 12.171875 29.828125 
Q 18.359375 34.515625 30.609375 34.515625 
L 43.21875 34.515625 
L 43.21875 35.40625 
Q 43.21875 41.609375 39.140625 45 
Q 35.0625 48.390625 27.6875 48.390625 
Q 23 48.390625 18.546875 47.265625 
Q 14.109375 46.140625 10.015625 43.890625 
L 10.015625 52.203125 
Q 14.9375 54.109375 19.578125 55.046875 
Q 24.21875 56 28.609375 56 
Q 40.484375 56 46.34375 49.84375 
Q 52.203125 43.703125 52.203125 31.203125 
z
" id="DejaVuSans-97"/>
      <path d="M 48.6875 27.296875 
Q 48.6875 37.203125 44.609375 42.84375 
Q 40.53125 48.484375 33.40625 48.484375 
Q 26.265625 48.484375 22.1875 42.84375 
Q 18.109375 37.203125 18.109375 27.296875 
Q 18.109375 17.390625 22.1875 11.75 
Q 26.265625 6.109375 33.40625 6.109375 
Q 40.53125 6.109375 44.609375 11.75 
Q 48.6875 17.390625 48.6875 27.296875 
z
M 18.109375 46.390625 
Q 20.953125 51.265625 25.265625 53.625 
Q 29.59375 56 35.59375 56 
Q 45.5625 56 51.78125 48.09375 
Q 58.015625 40.1875 58.015625 27.296875 
Q 58.015625 14.40625 51.78125 6.484375 
Q 45.5625 -1.421875 35.59375 -1.421875 
Q 29.59375 -1.421875 25.265625 0.953125 
Q 20.953125 3.328125 18.109375 8.203125 
L 18.109375 0 
L 9.078125 0 
L 9.078125 75.984375 
L 18.109375 75.984375 
z
" id="DejaVuSans-98"/>
      <path d="M 41.109375 46.296875 
Q 39.59375 47.171875 37.8125 47.578125 
Q 36.03125 48 33.890625 48 
Q 26.265625 48 22.1875 43.046875 
Q 18.109375 38.09375 18.109375 28.8125 
L 18.109375 0 
L 9.078125 0 
L 9.078125 54.6875 
L 18.109375 54.6875 
L 18.109375 46.1875 
Q 20.953125 51.171875 25.484375 53.578125 
Q 30.03125 56 36.53125 56 
Q 37.453125 56 38.578125 55.875 
Q 39.703125 55.765625 41.0625 55.515625 
z
" id="DejaVuSans-114"/>
     </defs>
     <g transform="translate(456.919063 79.787188)scale(0.14 -0.14)">
      <use xlink:href="#DejaVuSans-116"/>
      <use x="39.208984" xlink:href="#DejaVuSans-97"/>
      <use x="100.488281" xlink:href="#DejaVuSans-98"/>
      <use x="163.964844" xlink:href="#DejaVuSans-98"/>
      <use x="227.441406" xlink:href="#DejaVuSans-97"/>
      <use x="288.720703" xlink:href="#DejaVuSans-114"/>
     </g>
    </g>
   </g>
  </g>
  <g id="axes_2">
   <g id="patch_7">
    <path d="M 36 525.24 
L 538.2 525.24 
L 538.2 402.93 
L 36 402.93 
z
" style="fill:none;"/>
   </g>
   <g id="patch_8">
    <path clip-path="url(#p2c92c05b23)" d="M 226.258015 519.680455 
L 416.414 519.680455 
L 416.414 482.616818 
L 226.258015 482.616818 
z
" style="fill:#ff6384;opacity:0.5;"/>
   </g>
   <g id="patch_9">
    <path clip-path="url(#p2c92c05b23)" d="M 164.376551 445.553182 
L 367.196733 445.553182 
L 367.196733 408.489545 
L 164.376551 408.489545 
z
" style="fill:#36a2eb;opacity:0.5;"/>
   </g>
   <g id="matplotlib.axis_1">
    <g id="xtick_1">
     <g id="line2d_3">
      <defs>
       <path d="M 0 0 
L 0 3.5 
" id="mc755e8db8c" style="stroke:#000000;stroke-width:0.8;"/>
      </defs>
      <g>
       <use style="stroke:#000000;stroke-width:0.8;" x="62.105635" xlink:href="#mc755e8db8c" y="525.24"/>
      </g>
     </g>
     <g id="text_3">
      <!-- 2.0 -->
      <defs>
       <path d="M 19.1875 8.296875 
L 53.609375 8.296875 
L 53.609375 0 
L 7.328125 0 
L 7.328125 8.296875 
Q 12.9375 14.109375 22.625 23.890625 
Q 32.328125 33.6875 34.8125 36.53125 
Q 39.546875 41.84375 41.421875 45.53125 
Q 43.3125 49.21875 43.3125 52.78125 
Q 43.3125 58.59375 39.234375 62.25 
Q 35.15625 65.921875 28.609375 65.921875 
Q 23.96875 65.921875 18.8125 64.3125 
Q 13.671875 62.703125 7.8125 59.421875 
L 7.8125 69.390625 
Q 13.765625 71.78125 18.9375 73 
Q 24.125 74.21875 28.421875 74.21875 
Q 39.75 74.21875 46.484375 68.546875 
Q 53.21875 62.890625 53.21875 53.421875 
Q 53.21875 48.921875 51.53125 44.890625 
Q 49.859375 40.875 45.40625 35.40625 
Q 44.1875 33.984375 37.640625 27.21875 
Q 31.109375 20.453125 19.1875 8.296875 
z
" id="DejaVuSans-50"/>
       <path d="M 10.6875 12.40625 
L 21 12.40625 
L 21 0 
L 10.6875 0 
z
" id="DejaVuSans-46"/>
       <path d="M 31.78125 66.40625 
Q 24.171875 66.40625 20.328125 58.90625 
Q 16.5 51.421875 16.5 36.375 
Q 16.5 21.390625 20.328125 13.890625 
Q 24.171875 6.390625 31.78125 6.390625 
Q 39.453125 6.390625 43.28125 13.890625 
Q 47.125 21.390625 47.125 36.375 
Q 47.125 51.421875 43.28125 58.90625 
Q 39.453125 66.40625 31.78125 66.40625 
z
M 31.78125 74.21875 
Q 44.046875 74.21875 50.515625 64.515625 
Q 56.984375 54.828125 56.984375 36.375 
Q 56.984375 17.96875 50.515625 8.265625 
Q 44.046875 -1.421875 31.78125 -1.421875 
Q 19.53125 -1.421875 13.0625 8.265625 
Q 6.59375 17.96875 6.59375 36.375 
Q 6.59375 54.828125 13.0625 64.515625 
Q 19.53125 74.21875 31.78125 74.21875 
z
" id="DejaVuSans-48"/>
      </defs>
      <g transform="translate(50.973447 542.877813)scale(0.14 -0.14)">
       <use xlink:href="#DejaVuSans-50"/>
       <use x="63.623047" xlink:href="#DejaVuSans-46"/>
       <use x="95.410156" xlink:href="#DejaVuSans-48"/>
      </g>
     </g>
    </g>
    <g id="xtick_2">
     <g id="line2d_4">
      <g>
       <use style="stroke:#000000;stroke-width:0.8;" x="123.827152" xlink:href="#mc755e8db8c" y="525.24"/>
      </g>
     </g>
     <g id="text_4">
      <!-- 2.2 -->
      <g transform="translate(112.694965 542.877813)scale(0.14 -0.14)">
       <use xlink:href="#DejaVuSans-50"/>
       <use x="63.623047" xlink:href="#DejaVuSans-46"/>
       <use x="95.410156" xlink:href="#DejaVuSans-50"/>
      </g>
     </g>
    </g>
    <g id="xtick_3">
     <g id="line2d_5">
      <g>
       <use style="stroke:#000000;stroke-width:0.8;" x="185.548669" xlink:href="#mc755e8db8c" y="525.24"/>
      </g>
     </g>
     <g id="text_5">
      <!-- 2.4 -->
      <defs>
       <path d="M 37.796875 64.3125 
L 12.890625 25.390625 
L 37.796875 25.390625 
z
M 35.203125 72.90625 
L 47.609375 72.90625 
L 47.609375 25.390625 
L 58.015625 25.390625 
L 58.015625 17.1875 
L 47.609375 17.1875 
L 47.609375 0 
L 37.796875 0 
L 37.796875 17.1875 
L 4.890625 17.1875 
L 4.890625 26.703125 
z
" id="DejaVuSans-52"/>
      </defs>
      <g transform="translate(174.416482 542.877813)scale(0.14 -0.14)">
       <use xlink:href="#DejaVuSans-50"/>
       <use x="63.623047" xlink:href="#DejaVuSans-46"/>
       <use x="95.410156" xlink:href="#DejaVuSans-52"/>
      </g>
     </g>
    </g>
    <g id="xtick_4">
     <g id="line2d_6">
      <g>
       <use style="stroke:#000000;stroke-width:0.8;" x="247.270187" xlink:href="#mc755e8db8c" y="525.24"/>
      </g>
     </g>
     <g id="text_6">
      <!-- 2.6 -->
      <defs>
       <path d="M 33.015625 40.375 
Q 26.375 40.375 22.484375 35.828125 
Q 18.609375 31.296875 18.609375 23.390625 
Q 18.609375 15.53125 22.484375 10.953125 
Q 26.375 6.390625 33.015625 6.390625 
Q 39.65625 6.390625 43.53125 10.953125 
Q 47.40625 15.53125 47.40625 23.390625 
Q 47.40625 31.296875 43.53125 35.828125 
Q 39.65625 40.375 33.015625 40.375 
z
M 52.59375 71.296875 
L 52.59375 62.3125 
Q 48.875 64.0625 45.09375 64.984375 
Q 41.3125 65.921875 37.59375 65.921875 
Q 27.828125 65.921875 22.671875 59.328125 
Q 17.53125 52.734375 16.796875 39.40625 
Q 19.671875 43.65625 24.015625 45.921875 
Q 28.375 48.1875 33.59375 48.1875 
Q 44.578125 48.1875 50.953125 41.515625 
Q 57.328125 34.859375 57.328125 23.390625 
Q 57.328125 12.15625 50.6875 5.359375 
Q 44.046875 -1.421875 33.015625 -1.421875 
Q 20.359375 -1.421875 13.671875 8.265625 
Q 6.984375 17.96875 6.984375 36.375 
Q 6.984375 53.65625 15.1875 63.9375 
Q 23.390625 74.21875 37.203125 74.21875 
Q 40.921875 74.21875 44.703125 73.484375 
Q 48.484375 72.75 52.59375 71.296875 
z
" id="DejaVuSans-54"/>
      </defs>
      <g transform="translate(236.137999 542.877813)scale(0.14 -0.14)">
       <use xlink:href="#DejaVuSans-50"/>
       <use x="63.623047" xlink:href="#DejaVuSans-46"/>
       <use x="95.410156" xlink:href="#DejaVuSans-54"/>
      </g>
     </g>
    </g>
    <g id="xtick_5">
     <g id="line2d_7">
      <g>
       <use style="stroke:#000000;stroke-width:0.8;" x="308.991704" xlink:href="#mc755e8db8c" y="525.24"/>
      </g>
     </g>
     <g id="text_7">
      <!-- 2.8 -->
      <defs>
       <path d="M 31.78125 34.625 
Q 24.75 34.625 20.71875 30.859375 
Q 16.703125 27.09375 16.703125 20.515625 
Q 16.703125 13.921875 20.71875 10.15625 
Q 24.75 6.390625 31.78125 6.390625 
Q 38.8125 6.390625 42.859375 10.171875 
Q 46.921875 13.96875 46.921875 20.515625 
Q 46.921875 27.09375 42.890625 30.859375 
Q 38.875 34.625 31.78125 34.625 
z
M 21.921875 38.8125 
Q 15.578125 40.375 12.03125 44.71875 
Q 8.5 49.078125 8.5 55.328125 
Q 8.5 64.0625 14.71875 69.140625 
Q 20.953125 74.21875 31.78125 74.21875 
Q 42.671875 74.21875 48.875 69.140625 
Q 55.078125 64.0625 55.078125 55.328125 
Q 55.078125 49.078125 51.53125 44.71875 
Q 48 40.375 41.703125 38.8125 
Q 48.828125 37.15625 52.796875 32.3125 
Q 56.78125 27.484375 56.78125 20.515625 
Q 56.78125 9.90625 50.3125 4.234375 
Q 43.84375 -1.421875 31.78125 -1.421875 
Q 19.734375 -1.421875 13.25 4.234375 
Q 6.78125 9.90625 6.78125 20.515625 
Q 6.78125 27.484375 10.78125 32.3125 
Q 14.796875 37.15625 21.921875 38.8125 
z
M 18.3125 54.390625 
Q 18.3125 48.734375 21.84375 45.5625 
Q 25.390625 42.390625 31.78125 42.390625 
Q 38.140625 42.390625 41.71875 45.5625 
Q 45.3125 48.734375 45.3125 54.390625 
Q 45.3125 60.0625 41.71875 63.234375 
Q 38.140625 66.40625 31.78125 66.40625 
Q 25.390625 66.40625 21.84375 63.234375 
Q 18.3125 60.0625 18.3125 54.390625 
z
" id="DejaVuSans-56"/>
      </defs>
      <g transform="translate(297.859517 542.877813)scale(0.14 -0.14)">
       <use xlink:href="#DejaVuSans-50"/>
       <use x="63.623047" xlink:href="#DejaVuSans-46"/>
       <use x="95.410156" xlink:href="#DejaVuSans-56"/>
      </g>
     </g>
    </g>
    <g id="xtick_6">
     <g id="line2d_8">
      <g>
       <use style="stroke:#000000;stroke-width:0.8;" x="370.713222" xlink:href="#mc755e8db8c" y="525.24"/>
      </g>
     </g>
     <g id="text_8">
      <!-- 3.0 -->
      <defs>
       <path d="M 40.578125 39.3125 
Q 47.65625 37.796875 51.625 33 
Q 55.609375 28.21875 55.609375 21.1875 
Q 55.609375 10.40625 48.1875 4.484375 
Q 40.765625 -1.421875 27.09375 -1.421875 
Q 22.515625 -1.421875 17.65625 -0.515625 
Q 12.796875 0.390625 7.625 2.203125 
L 7.625 11.71875 
Q 11.71875 9.328125 16.59375 8.109375 
Q 21.484375 6.890625 26.8125 6.890625 
Q 36.078125 6.890625 40.9375 10.546875 
Q 45.796875 14.203125 45.796875 21.1875 
Q 45.796875 27.640625 41.28125 31.265625 
Q 36.765625 34.90625 28.71875 34.90625 
L 20.21875 34.90625 
L 20.21875 43.015625 
L 29.109375 43.015625 
Q 36.375 43.015625 40.234375 45.921875 
Q 44.09375 48.828125 44.09375 54.296875 
Q 44.09375 59.90625 40.109375 62.90625 
Q 36.140625 65.921875 28.71875 65.921875 
Q 24.65625 65.921875 20.015625 65.03125 
Q 15.375 64.15625 9.8125 62.3125 
L 9.8125 71.09375 
Q 15.4375 72.65625 20.34375 73.4375 
Q 25.25 74.21875 29.59375 74.21875 
Q 40.828125 74.21875 47.359375 69.109375 
Q 53.90625 64.015625 53.90625 55.328125 
Q 53.90625 49.265625 50.4375 45.09375 
Q 46.96875 40.921875 40.578125 39.3125 
z
" id="DejaVuSans-51"/>
      </defs>
      <g transform="translate(359.581034 542.877813)scale(0.14 -0.14)">
       <use xlink:href="#DejaVuSans-51"/>
       <use x="63.623047" xlink:href="#DejaVuSans-46"/>
       <use x="95.410156" xlink:href="#DejaVuSans-48"/>
      </g>
     </g>
    </g>
    <g id="xtick_7">
     <g id="line2d_9">
      <g>
       <use style="stroke:#000000;stroke-width:0.8;" x="432.434739" xlink:href="#mc755e8db8c" y="525.24"/>
      </g>
     </g>
     <g id="text_9">
      <!-- 3.2 -->
      <g transform="translate(421.302552 542.877813)scale(0.14 -0.14)">
       <use xlink:href="#DejaVuSans-51"/>
       <use x="63.623047" xlink:href="#DejaVuSans-46"/>
       <use x="95.410156" xlink:href="#DejaVuSans-50"/>
      </g>
     </g>
    </g>
    <g id="xtick_8">
     <g id="line2d_10">
      <g>
       <use style="stroke:#000000;stroke-width:0.8;" x="494.156257" xlink:href="#mc755e8db8c" y="525.24"/>
      </g>
     </g>
     <g id="text_10">
      <!-- 3.4 -->
      <g transform="translate(483.024069 542.877813)scale(0.14 -0.14)">
       <use xlink:href="#DejaVuSans-51"/>
       <use x="63.623047" xlink:href="#DejaVuSans-46"/>
       <use x="95.410156" xlink:href="#DejaVuSans-52"/>
      </g>
     </g>
    </g>
   </g>
   <g id="line2d_11">
    <path clip-path="url(#p2c92c05b23)" d="M 321.336008 525.24 
L 321.336008 402.93 
" style="fill:none;stroke:#ff6384;stroke-dasharray:5.55,2.4;stroke-dashoffset:0;stroke-opacity:0.8;stroke-width:1.5;"/>
   </g>
   <g id="line2d_12">
    <path clip-path="url(#p2c92c05b23)" d="M 265.786642 525.24 
L 265.786642 402.93 
" style="fill:none;stroke:#36a2eb;stroke-dasharray:5.55,2.4;stroke-dashoffset:0;stroke-opacity:0.8;stroke-width:1.5;"/>
   </g>
   <g id="patch_10">
    <path d="M 36 525.24 
L 538.2 525.24 
" style="fill:none;stroke:#000000;stroke-linecap:square;stroke-linejoin:miter;stroke-width:0.8;"/>
   </g>
  </g>
 </g>
 <defs>
  <clipPath id="p45bf71c9b3">
   <rect height="366.93" width="502.2" x="36" y="36"/>
  </clipPath>
  <clipPath id="p2c92c05b23">
   <rect height="122.31" width="502.2" x="36" y="402.93"/>
  </clipPath>
 </defs>
</svg>
