<?xml version="1.0" encoding="utf-8" standalone="no"?>
<!DOCTYPE svg PUBLIC "-//W3C//DTD SVG 1.1//EN"
  "http://www.w3.org/Graphics/SVG/1.1/DTD/svg11.dtd">
<!-- Created with matplotlib (https://matplotlib.org/) -->
<svg height="581.789375pt" version="1.1" viewBox="0 0 574.2 581.789375" width="574.2pt" xmlns="http://www.w3.org/2000/svg" xmlns:xlink="http://www.w3.org/1999/xlink">
 <defs>
  <style type="text/css">
*{stroke-linecap:butt;stroke-linejoin:round;}
  </style>
 </defs>
 <g id="figure_1">
  <g id="patch_1">
   <path d="M 0 581.789375 
L 574.2 581.789375 
L 574.2 0 
L 0 0 
z
" style="fill:none;"/>
  </g>
  <g id="axes_1">
   <g id="patch_2">
    <path d="M 36 402.93 
L 538.2 402.93 
L 538.2 36 
L 36 36 
z
" style="fill:none;"/>
   </g>
   <g id="PolyCollection_1">
    <defs>
     <path d="M 124.855973 -195.538011 
L 124.855973 -195.650004 
L 128.800587 -195.692234 
L 132.745201 -195.749007 
L 136.689814 -195.8248 
L 140.634428 -195.925281 
L 144.579042 -196.057565 
L 148.523655 -196.230497 
L 152.468269 -196.454982 
L 156.412883 -196.744335 
L 160.357496 -197.114666 
L 164.30211 -197.585273 
L 168.246724 -198.179047 
L 172.191337 -198.922859 
L 176.135951 -199.847921 
L 180.080565 -200.990079 
L 184.025179 -202.390029 
L 187.969792 -204.093399 
L 191.914406 -206.150691 
L 195.85902 -208.617009 
L 199.803633 -211.551575 
L 203.748247 -215.016962 
L 207.692861 -219.078053 
L 211.637474 -223.800667 
L 215.582088 -229.249878 
L 219.526702 -235.488004 
L 223.471315 -242.572312 
L 227.415929 -250.552459 
L 231.360543 -259.467747 
L 235.305156 -269.344261 
L 239.24977 -280.192004 
L 243.194384 -292.002137 
L 247.138997 -304.744465 
L 251.083611 -318.365297 
L 255.028225 -332.785841 
L 258.972838 -347.901251 
L 262.917452 -363.580456 
L 266.862066 -379.666871 
L 270.806679 -395.980052 
L 274.751293 -412.31833 
L 278.695907 -428.4624 
L 282.64052 -444.179822 
L 286.585134 -459.230303 
L 290.529748 -473.371627 
L 294.474361 -486.366018 
L 298.418975 -497.986726 
L 302.363589 -508.02457 
L 306.308202 -516.294181 
L 310.252816 -522.639693 
L 314.19743 -526.939623 
L 318.142043 -529.110739 
L 322.086657 -529.110739 
L 326.031271 -526.939623 
L 329.975885 -522.639693 
L 333.920498 -516.294181 
L 337.865112 -508.02457 
L 341.809726 -497.986726 
L 345.754339 -486.366018 
L 349.698953 -473.371627 
L 353.643567 -459.230303 
L 357.58818 -444.179822 
L 361.532794 -428.4624 
L 365.477408 -412.31833 
L 369.422021 -395.980052 
L 373.366635 -379.666871 
L 377.311249 -363.580456 
L 381.255862 -347.901251 
L 385.200476 -332.785841 
L 389.14509 -318.365297 
L 393.089703 -304.744465 
L 397.034317 -292.002137 
L 400.978931 -280.192004 
L 404.923544 -269.344261 
L 408.868158 -259.467747 
L 412.812772 -250.552459 
L 416.757385 -242.572312 
L 420.701999 -235.488004 
L 424.646613 -229.249878 
L 428.591226 -223.800667 
L 432.53584 -219.078053 
L 436.480454 -215.016962 
L 440.425067 -211.551575 
L 444.369681 -208.617009 
L 448.314295 -206.150691 
L 452.258908 -204.093399 
L 456.203522 -202.390029 
L 460.148136 -200.990079 
L 464.092749 -199.847921 
L 468.037363 -198.922859 
L 471.981977 -198.179047 
L 475.926591 -197.585273 
L 479.871204 -197.114666 
L 483.815818 -196.744335 
L 487.760432 -196.454982 
L 491.705045 -196.230497 
L 495.649659 -196.057565 
L 499.594273 -195.925281 
L 503.538886 -195.8248 
L 507.4835 -195.749007 
L 511.428114 -195.692234 
L 515.372727 -195.650004 
L 515.372727 -195.538011 
L 515.372727 -195.538011 
L 511.428114 -195.538011 
L 507.4835 -195.538011 
L 503.538886 -195.538011 
L 499.594273 -195.538011 
L 495.649659 -195.538011 
L 491.705045 -195.538011 
L 487.760432 -195.538011 
L 483.815818 -195.538011 
L 479.871204 -195.538011 
L 475.926591 -195.538011 
L 471.981977 -195.538011 
L 468.037363 -195.538011 
L 464.092749 -195.538011 
L 460.148136 -195.538011 
L 456.203522 -195.538011 
L 452.258908 -195.538011 
L 448.314295 -195.538011 
L 444.369681 -195.538011 
L 440.425067 -195.538011 
L 436.480454 -195.538011 
L 432.53584 -195.538011 
L 428.591226 -195.538011 
L 424.646613 -195.538011 
L 420.701999 -195.538011 
L 416.757385 -195.538011 
L 412.812772 -195.538011 
L 408.868158 -195.538011 
L 404.923544 -195.538011 
L 400.978931 -195.538011 
L 397.034317 -195.538011 
L 393.089703 -195.538011 
L 389.14509 -195.538011 
L 385.200476 -195.538011 
L 381.255862 -195.538011 
L 377.311249 -195.538011 
L 373.366635 -195.538011 
L 369.422021 -195.538011 
L 365.477408 -195.538011 
L 361.532794 -195.538011 
L 357.58818 -195.538011 
L 353.643567 -195.538011 
L 349.698953 -195.538011 
L 345.754339 -195.538011 
L 341.809726 -195.538011 
L 337.865112 -195.538011 
L 333.920498 -195.538011 
L 329.975885 -195.538011 
L 326.031271 -195.538011 
L 322.086657 -195.538011 
L 318.142043 -195.538011 
L 314.19743 -195.538011 
L 310.252816 -195.538011 
L 306.308202 -195.538011 
L 302.363589 -195.538011 
L 298.418975 -195.538011 
L 294.474361 -195.538011 
L 290.529748 -195.538011 
L 286.585134 -195.538011 
L 282.64052 -195.538011 
L 278.695907 -195.538011 
L 274.751293 -195.538011 
L 270.806679 -195.538011 
L 266.862066 -195.538011 
L 262.917452 -195.538011 
L 258.972838 -195.538011 
L 255.028225 -195.538011 
L 251.083611 -195.538011 
L 247.138997 -195.538011 
L 243.194384 -195.538011 
L 239.24977 -195.538011 
L 235.305156 -195.538011 
L 231.360543 -195.538011 
L 227.415929 -195.538011 
L 223.471315 -195.538011 
L 219.526702 -195.538011 
L 215.582088 -195.538011 
L 211.637474 -195.538011 
L 207.692861 -195.538011 
L 203.748247 -195.538011 
L 199.803633 -195.538011 
L 195.85902 -195.538011 
L 191.914406 -195.538011 
L 187.969792 -195.538011 
L 184.025179 -195.538011 
L 180.080565 -195.538011 
L 176.135951 -195.538011 
L 172.191337 -195.538011 
L 168.246724 -195.538011 
L 164.30211 -195.538011 
L 160.357496 -195.538011 
L 156.412883 -195.538011 
L 152.468269 -195.538011 
L 148.523655 -195.538011 
L 144.579042 -195.538011 
L 140.634428 -195.538011 
L 136.689814 -195.538011 
L 132.745201 -195.538011 
L 128.800587 -195.538011 
L 124.855973 -195.538011 
z
" id="mfacfeeeb02" style="stroke:#ff6384;stroke-opacity:0.5;"/>
    </defs>
    <g clip-path="url(#pebf6a7c5c9)">
     <use style="fill:#ff6384;fill-opacity:0.5;stroke:#ff6384;stroke-opacity:0.5;" x="0" xlink:href="#mfacfeeeb02" y="581.789375"/>
    </g>
   </g>
   <g id="PolyCollection_2">
    <defs>
     <path d="M 58.827273 -195.538011 
L 58.827273 -195.642922 
L 63.038169 -195.682482 
L 67.249065 -195.735664 
L 71.459961 -195.806664 
L 75.670857 -195.900792 
L 79.881753 -196.02471 
L 84.092649 -196.186707 
L 88.303545 -196.396996 
L 92.514441 -196.668051 
L 96.725336 -197.014964 
L 100.936232 -197.455811 
L 105.147128 -198.012037 
L 109.358024 -198.708813 
L 113.56892 -199.575377 
L 117.779816 -200.64531 
L 121.990712 -201.956731 
L 126.201608 -203.552387 
L 130.412504 -205.479582 
L 134.6234 -207.789939 
L 138.834296 -210.538933 
L 143.045192 -213.785182 
L 147.256088 -217.589463 
L 151.466984 -222.013436 
L 155.67788 -227.118058 
L 159.888776 -232.961707 
L 164.099672 -239.598028 
L 168.310568 -247.073538 
L 172.521464 -255.425054 
L 176.73236 -264.677012 
L 180.943256 -274.838782 
L 185.154152 -285.902084 
L 189.365048 -297.838632 
L 193.575944 -310.59813 
L 197.78684 -324.10677 
L 201.997736 -338.266334 
L 206.208632 -352.954041 
L 210.419528 -368.023207 
L 214.630424 -383.3048 
L 218.84132 -398.609903 
L 223.052216 -413.733078 
L 227.263112 -428.456585 
L 231.474008 -442.555327 
L 235.684904 -455.802403 
L 239.8958 -467.975075 
L 244.106696 -478.86093 
L 248.317591 -488.264015 
L 252.528487 -496.010686 
L 256.739383 -501.95493 
L 260.950279 -505.982947 
L 265.161175 -508.016769 
L 269.372071 -508.016769 
L 273.582967 -505.982947 
L 277.793863 -501.95493 
L 282.004759 -496.010686 
L 286.215655 -488.264015 
L 290.426551 -478.86093 
L 294.637447 -467.975075 
L 298.848343 -455.802403 
L 303.059239 -442.555327 
L 307.270135 -428.456585 
L 311.481031 -413.733078 
L 315.691927 -398.609903 
L 319.902823 -383.3048 
L 324.113719 -368.023207 
L 328.324615 -352.954041 
L 332.535511 -338.266334 
L 336.746407 -324.10677 
L 340.957303 -310.59813 
L 345.168199 -297.838632 
L 349.379095 -285.902084 
L 353.589991 -274.838782 
L 357.800887 -264.677012 
L 362.011783 -255.425054 
L 366.222679 -247.073538 
L 370.433575 -239.598028 
L 374.644471 -232.961707 
L 378.855367 -227.118058 
L 383.066263 -222.013436 
L 387.277159 -217.589463 
L 391.488055 -213.785182 
L 395.698951 -210.538933 
L 399.909847 -207.789939 
L 404.120742 -205.479582 
L 408.331638 -203.552387 
L 412.542534 -201.956731 
L 416.75343 -200.64531 
L 420.964326 -199.575377 
L 425.175222 -198.708813 
L 429.386118 -198.012037 
L 433.597014 -197.455811 
L 437.80791 -197.014964 
L 442.018806 -196.668051 
L 446.229702 -196.396996 
L 450.440598 -196.186707 
L 454.651494 -196.02471 
L 458.86239 -195.900792 
L 463.073286 -195.806664 
L 467.284182 -195.735664 
L 471.495078 -195.682482 
L 475.705974 -195.642922 
L 475.705974 -195.538011 
L 475.705974 -195.538011 
L 471.495078 -195.538011 
L 467.284182 -195.538011 
L 463.073286 -195.538011 
L 458.86239 -195.538011 
L 454.651494 -195.538011 
L 450.440598 -195.538011 
L 446.229702 -195.538011 
L 442.018806 -195.538011 
L 437.80791 -195.538011 
L 433.597014 -195.538011 
L 429.386118 -195.538011 
L 425.175222 -195.538011 
L 420.964326 -195.538011 
L 416.75343 -195.538011 
L 412.542534 -195.538011 
L 408.331638 -195.538011 
L 404.120742 -195.538011 
L 399.909847 -195.538011 
L 395.698951 -195.538011 
L 391.488055 -195.538011 
L 387.277159 -195.538011 
L 383.066263 -195.538011 
L 378.855367 -195.538011 
L 374.644471 -195.538011 
L 370.433575 -195.538011 
L 366.222679 -195.538011 
L 362.011783 -195.538011 
L 357.800887 -195.538011 
L 353.589991 -195.538011 
L 349.379095 -195.538011 
L 345.168199 -195.538011 
L 340.957303 -195.538011 
L 336.746407 -195.538011 
L 332.535511 -195.538011 
L 328.324615 -195.538011 
L 324.113719 -195.538011 
L 319.902823 -195.538011 
L 315.691927 -195.538011 
L 311.481031 -195.538011 
L 307.270135 -195.538011 
L 303.059239 -195.538011 
L 298.848343 -195.538011 
L 294.637447 -195.538011 
L 290.426551 -195.538011 
L 286.215655 -195.538011 
L 282.004759 -195.538011 
L 277.793863 -195.538011 
L 273.582967 -195.538011 
L 269.372071 -195.538011 
L 265.161175 -195.538011 
L 260.950279 -195.538011 
L 256.739383 -195.538011 
L 252.528487 -195.538011 
L 248.317591 -195.538011 
L 244.106696 -195.538011 
L 239.8958 -195.538011 
L 235.684904 -195.538011 
L 231.474008 -195.538011 
L 227.263112 -195.538011 
L 223.052216 -195.538011 
L 218.84132 -195.538011 
L 214.630424 -195.538011 
L 210.419528 -195.538011 
L 206.208632 -195.538011 
L 201.997736 -195.538011 
L 197.78684 -195.538011 
L 193.575944 -195.538011 
L 189.365048 -195.538011 
L 185.154152 -195.538011 
L 180.943256 -195.538011 
L 176.73236 -195.538011 
L 172.521464 -195.538011 
L 168.310568 -195.538011 
L 164.099672 -195.538011 
L 159.888776 -195.538011 
L 155.67788 -195.538011 
L 151.466984 -195.538011 
L 147.256088 -195.538011 
L 143.045192 -195.538011 
L 138.834296 -195.538011 
L 134.6234 -195.538011 
L 130.412504 -195.538011 
L 126.201608 -195.538011 
L 121.990712 -195.538011 
L 117.779816 -195.538011 
L 113.56892 -195.538011 
L 109.358024 -195.538011 
L 105.147128 -195.538011 
L 100.936232 -195.538011 
L 96.725336 -195.538011 
L 92.514441 -195.538011 
L 88.303545 -195.538011 
L 84.092649 -195.538011 
L 79.881753 -195.538011 
L 75.670857 -195.538011 
L 71.459961 -195.538011 
L 67.249065 -195.538011 
L 63.038169 -195.538011 
L 58.827273 -195.538011 
z
" id="mad32df96b5" style="stroke:#36a2eb;stroke-opacity:0.5;"/>
    </defs>
    <g clip-path="url(#pebf6a7c5c9)">
     <use style="fill:#36a2eb;fill-opacity:0.5;stroke:#36a2eb;stroke-opacity:0.5;" x="0" xlink:href="#mad32df96b5" y="581.789375"/>
    </g>
   </g>
   <g id="line2d_1">
    <path clip-path="url(#pebf6a7c5c9)" d="M 124.855973 386.139371 
L 128.800587 386.097141 
L 132.745201 386.040368 
L 136.689814 385.964575 
L 140.634428 385.864094 
L 144.579042 385.73181 
L 148.523655 385.558878 
L 152.468269 385.334393 
L 156.412883 385.04504 
L 160.357496 384.674709 
L 164.30211 384.204102 
L 168.246724 383.610328 
L 172.191337 382.866516 
L 176.135951 381.941454 
L 180.080565 380.799296 
L 184.025179 379.399346 
L 187.969792 377.695976 
L 191.914406 375.638684 
L 195.85902 373.172366 
L 199.803633 370.2378 
L 203.748247 366.772413 
L 207.692861 362.711322 
L 211.637474 357.988708 
L 215.582088 352.539497 
L 219.526702 346.301371 
L 223.471315 339.217063 
L 227.415929 331.236916 
L 231.360543 322.321628 
L 235.305156 312.445114 
L 239.24977 301.597371 
L 243.194384 289.787238 
L 247.138997 277.04491 
L 251.083611 263.424078 
L 255.028225 249.003534 
L 258.972838 233.888124 
L 262.917452 218.208919 
L 266.862066 202.122504 
L 270.806679 185.809323 
L 274.751293 169.471045 
L 278.695907 153.326975 
L 282.64052 137.609553 
L 286.585134 122.559072 
L 290.529748 108.417748 
L 294.474361 95.423357 
L 298.418975 83.802649 
L 302.363589 73.764805 
L 306.308202 65.495194 
L 310.252816 59.149682 
L 314.19743 54.849752 
L 318.142043 52.678636 
L 322.086657 52.678636 
L 326.031271 54.849752 
L 329.975885 59.149682 
L 333.920498 65.495194 
L 337.865112 73.764805 
L 341.809726 83.802649 
L 345.754339 95.423357 
L 349.698953 108.417748 
L 353.643567 122.559072 
L 357.58818 137.609553 
L 361.532794 153.326975 
L 365.477408 169.471045 
L 369.422021 185.809323 
L 373.366635 202.122504 
L 377.311249 218.208919 
L 381.255862 233.888124 
L 385.200476 249.003534 
L 389.14509 263.424078 
L 393.089703 277.04491 
L 397.034317 289.787238 
L 400.978931 301.597371 
L 404.923544 312.445114 
L 408.868158 322.321628 
L 412.812772 331.236916 
L 416.757385 339.217063 
L 420.701999 346.301371 
L 424.646613 352.539497 
L 428.591226 357.988708 
L 432.53584 362.711322 
L 436.480454 366.772413 
L 440.425067 370.2378 
L 444.369681 373.172366 
L 448.314295 375.638684 
L 452.258908 377.695976 
L 456.203522 379.399346 
L 460.148136 380.799296 
L 464.092749 381.941454 
L 468.037363 382.866516 
L 471.981977 383.610328 
L 475.926591 384.204102 
L 479.871204 384.674709 
L 483.815818 385.04504 
L 487.760432 385.334393 
L 491.705045 385.558878 
L 495.649659 385.73181 
L 499.594273 385.864094 
L 503.538886 385.964575 
L 507.4835 386.040368 
L 511.428114 386.097141 
L 515.372727 386.139371 
" style="fill:none;stroke:#ff6384;stroke-linecap:square;"/>
   </g>
   <g id="line2d_2">
    <path clip-path="url(#pebf6a7c5c9)" d="M 58.827273 386.146453 
L 63.038169 386.106893 
L 67.249065 386.053711 
L 71.459961 385.982711 
L 75.670857 385.888583 
L 79.881753 385.764665 
L 84.092649 385.602668 
L 88.303545 385.392379 
L 92.514441 385.121324 
L 96.725336 384.774411 
L 100.936232 384.333564 
L 105.147128 383.777338 
L 109.358024 383.080562 
L 113.56892 382.213998 
L 117.779816 381.144065 
L 121.990712 379.832644 
L 126.201608 378.236988 
L 130.412504 376.309793 
L 134.6234 373.999436 
L 138.834296 371.250442 
L 143.045192 368.004193 
L 147.256088 364.199912 
L 151.466984 359.775939 
L 155.67788 354.671317 
L 159.888776 348.827668 
L 164.099672 342.191347 
L 168.310568 334.715837 
L 172.521464 326.364321 
L 176.73236 317.112363 
L 180.943256 306.950593 
L 185.154152 295.887291 
L 189.365048 283.950743 
L 193.575944 271.191245 
L 197.78684 257.682605 
L 201.997736 243.523041 
L 206.208632 228.835334 
L 210.419528 213.766168 
L 214.630424 198.484575 
L 218.84132 183.179472 
L 223.052216 168.056297 
L 227.263112 153.33279 
L 231.474008 139.234048 
L 235.684904 125.986972 
L 239.8958 113.8143 
L 244.106696 102.928445 
L 248.317591 93.52536 
L 252.528487 85.778689 
L 256.739383 79.834445 
L 260.950279 75.806428 
L 265.161175 73.772606 
L 269.372071 73.772606 
L 273.582967 75.806428 
L 277.793863 79.834445 
L 282.004759 85.778689 
L 286.215655 93.52536 
L 290.426551 102.928445 
L 294.637447 113.8143 
L 298.848343 125.986972 
L 303.059239 139.234048 
L 307.270135 153.33279 
L 311.481031 168.056297 
L 315.691927 183.179472 
L 319.902823 198.484575 
L 324.113719 213.766168 
L 328.324615 228.835334 
L 332.535511 243.523041 
L 336.746407 257.682605 
L 340.957303 271.191245 
L 345.168199 283.950743 
L 349.379095 295.887291 
L 353.589991 306.950593 
L 357.800887 317.112363 
L 362.011783 326.364321 
L 366.222679 334.715837 
L 370.433575 342.191347 
L 374.644471 348.827668 
L 378.855367 354.671317 
L 383.066263 359.775939 
L 387.277159 364.199912 
L 391.488055 368.004193 
L 395.698951 371.250442 
L 399.909847 373.999436 
L 404.120742 376.309793 
L 408.331638 378.236988 
L 412.542534 379.832644 
L 416.75343 381.144065 
L 420.964326 382.213998 
L 425.175222 383.080562 
L 429.386118 383.777338 
L 433.597014 384.333564 
L 437.80791 384.774411 
L 442.018806 385.121324 
L 446.229702 385.392379 
L 450.440598 385.602668 
L 454.651494 385.764665 
L 458.86239 385.888583 
L 463.073286 385.982711 
L 467.284182 386.053711 
L 471.495078 386.106893 
L 475.705974 386.146453 
" style="fill:none;stroke:#36a2eb;stroke-linecap:square;"/>
   </g>
   <g id="patch_3">
    <path d="M 36 402.93 
L 538.2 402.93 
" style="fill:none;stroke:#000000;stroke-linecap:square;stroke-linejoin:miter;stroke-width:0.8;"/>
   </g>
   <g id="legend_1">
    <g id="patch_4">
     <path d="M 414.919063 88.29875 
L 528.4 88.29875 
Q 531.2 88.29875 531.2 85.49875 
L 531.2 45.8 
Q 531.2 43 528.4 43 
L 414.919063 43 
Q 412.119063 43 412.119063 45.8 
L 412.119063 85.49875 
Q 412.119063 88.29875 414.919063 88.29875 
z
" style="fill:#ffffff;opacity:0.8;stroke:#cccccc;stroke-linejoin:miter;"/>
    </g>
    <g id="patch_5">
     <path d="M 417.719063 59.237813 
L 445.719063 59.237813 
L 445.719063 49.437813 
L 417.719063 49.437813 
z
" style="fill:#ff6384;opacity:0.5;stroke:#ff6384;stroke-linejoin:miter;"/>
    </g>
    <g id="text_1">
     <!-- sidemenu -->
     <defs>
      <path d="M 44.28125 53.078125 
L 44.28125 44.578125 
Q 40.484375 46.53125 36.375 47.5 
Q 32.28125 48.484375 27.875 48.484375 
Q 21.1875 48.484375 17.84375 46.4375 
Q 14.5 44.390625 14.5 40.28125 
Q 14.5 37.15625 16.890625 35.375 
Q 19.28125 33.59375 26.515625 31.984375 
L 29.59375 31.296875 
Q 39.15625 29.25 43.1875 25.515625 
Q 47.21875 21.78125 47.21875 15.09375 
Q 47.21875 7.46875 41.1875 3.015625 
Q 35.15625 -1.421875 24.609375 -1.421875 
Q 20.21875 -1.421875 15.453125 -0.5625 
Q 10.6875 0.296875 5.421875 2 
L 5.421875 11.28125 
Q 10.40625 8.6875 15.234375 7.390625 
Q 20.0625 6.109375 24.8125 6.109375 
Q 31.15625 6.109375 34.5625 8.28125 
Q 37.984375 10.453125 37.984375 14.40625 
Q 37.984375 18.0625 35.515625 20.015625 
Q 33.0625 21.96875 24.703125 23.78125 
L 21.578125 24.515625 
Q 13.234375 26.265625 9.515625 29.90625 
Q 5.8125 33.546875 5.8125 39.890625 
Q 5.8125 47.609375 11.28125 51.796875 
Q 16.75 56 26.8125 56 
Q 31.78125 56 36.171875 55.265625 
Q 40.578125 54.546875 44.28125 53.078125 
z
" id="DejaVuSans-115"/>
      <path d="M 9.421875 54.6875 
L 18.40625 54.6875 
L 18.40625 0 
L 9.421875 0 
z
M 9.421875 75.984375 
L 18.40625 75.984375 
L 18.40625 64.59375 
L 9.421875 64.59375 
z
" id="DejaVuSans-105"/>
      <path d="M 45.40625 46.390625 
L 45.40625 75.984375 
L 54.390625 75.984375 
L 54.390625 0 
L 45.40625 0 
L 45.40625 8.203125 
Q 42.578125 3.328125 38.25 0.953125 
Q 33.9375 -1.421875 27.875 -1.421875 
Q 17.96875 -1.421875 11.734375 6.484375 
Q 5.515625 14.40625 5.515625 27.296875 
Q 5.515625 40.1875 11.734375 48.09375 
Q 17.96875 56 27.875 56 
Q 33.9375 56 38.25 53.625 
Q 42.578125 51.265625 45.40625 46.390625 
z
M 14.796875 27.296875 
Q 14.796875 17.390625 18.875 11.75 
Q 22.953125 6.109375 30.078125 6.109375 
Q 37.203125 6.109375 41.296875 11.75 
Q 45.40625 17.390625 45.40625 27.296875 
Q 45.40625 37.203125 41.296875 42.84375 
Q 37.203125 48.484375 30.078125 48.484375 
Q 22.953125 48.484375 18.875 42.84375 
Q 14.796875 37.203125 14.796875 27.296875 
z
" id="DejaVuSans-100"/>
      <path d="M 56.203125 29.59375 
L 56.203125 25.203125 
L 14.890625 25.203125 
Q 15.484375 15.921875 20.484375 11.0625 
Q 25.484375 6.203125 34.421875 6.203125 
Q 39.59375 6.203125 44.453125 7.46875 
Q 49.3125 8.734375 54.109375 11.28125 
L 54.109375 2.78125 
Q 49.265625 0.734375 44.1875 -0.34375 
Q 39.109375 -1.421875 33.890625 -1.421875 
Q 20.796875 -1.421875 13.15625 6.1875 
Q 5.515625 13.8125 5.515625 26.8125 
Q 5.515625 40.234375 12.765625 48.109375 
Q 20.015625 56 32.328125 56 
Q 43.359375 56 49.78125 48.890625 
Q 56.203125 41.796875 56.203125 29.59375 
z
M 47.21875 32.234375 
Q 47.125 39.59375 43.09375 43.984375 
Q 39.0625 48.390625 32.421875 48.390625 
Q 24.90625 48.390625 20.390625 44.140625 
Q 15.875 39.890625 15.1875 32.171875 
z
" id="DejaVuSans-101"/>
      <path d="M 52 44.1875 
Q 55.375 50.25 60.0625 53.125 
Q 64.75 56 71.09375 56 
Q 79.640625 56 84.28125 50.015625 
Q 88.921875 44.046875 88.921875 33.015625 
L 88.921875 0 
L 79.890625 0 
L 79.890625 32.71875 
Q 79.890625 40.578125 77.09375 44.375 
Q 74.3125 48.1875 68.609375 48.1875 
Q 61.625 48.1875 57.5625 43.546875 
Q 53.515625 38.921875 53.515625 30.90625 
L 53.515625 0 
L 44.484375 0 
L 44.484375 32.71875 
Q 44.484375 40.625 41.703125 44.40625 
Q 38.921875 48.1875 33.109375 48.1875 
Q 26.21875 48.1875 22.15625 43.53125 
Q 18.109375 38.875 18.109375 30.90625 
L 18.109375 0 
L 9.078125 0 
L 9.078125 54.6875 
L 18.109375 54.6875 
L 18.109375 46.1875 
Q 21.1875 51.21875 25.484375 53.609375 
Q 29.78125 56 35.6875 56 
Q 41.65625 56 45.828125 52.96875 
Q 50 49.953125 52 44.1875 
z
" id="DejaVuSans-109"/>
      <path d="M 54.890625 33.015625 
L 54.890625 0 
L 45.90625 0 
L 45.90625 32.71875 
Q 45.90625 40.484375 42.875 44.328125 
Q 39.84375 48.1875 33.796875 48.1875 
Q 26.515625 48.1875 22.3125 43.546875 
Q 18.109375 38.921875 18.109375 30.90625 
L 18.109375 0 
L 9.078125 0 
L 9.078125 54.6875 
L 18.109375 54.6875 
L 18.109375 46.1875 
Q 21.34375 51.125 25.703125 53.5625 
Q 30.078125 56 35.796875 56 
Q 45.21875 56 50.046875 50.171875 
Q 54.890625 44.34375 54.890625 33.015625 
z
" id="DejaVuSans-110"/>
      <path d="M 8.5 21.578125 
L 8.5 54.6875 
L 17.484375 54.6875 
L 17.484375 21.921875 
Q 17.484375 14.15625 20.5 10.265625 
Q 23.53125 6.390625 29.59375 6.390625 
Q 36.859375 6.390625 41.078125 11.03125 
Q 45.3125 15.671875 45.3125 23.6875 
L 45.3125 54.6875 
L 54.296875 54.6875 
L 54.296875 0 
L 45.3125 0 
L 45.3125 8.40625 
Q 42.046875 3.421875 37.71875 1 
Q 33.40625 -1.421875 27.6875 -1.421875 
Q 18.265625 -1.421875 13.375 4.4375 
Q 8.5 10.296875 8.5 21.578125 
z
M 31.109375 56 
z
" id="DejaVuSans-117"/>
     </defs>
     <g transform="translate(456.919063 59.237813)scale(0.14 -0.14)">
      <use xlink:href="#DejaVuSans-115"/>
      <use x="52.099609" xlink:href="#DejaVuSans-105"/>
      <use x="79.882812" xlink:href="#DejaVuSans-100"/>
      <use x="143.359375" xlink:href="#DejaVuSans-101"/>
      <use x="204.882812" xlink:href="#DejaVuSans-109"/>
      <use x="302.294922" xlink:href="#DejaVuSans-101"/>
      <use x="363.818359" xlink:href="#DejaVuSans-110"/>
      <use x="427.197266" xlink:href="#DejaVuSans-117"/>
     </g>
    </g>
    <g id="patch_6">
     <path d="M 417.719063 79.787188 
L 445.719063 79.787188 
L 445.719063 69.987188 
L 417.719063 69.987188 
z
" style="fill:#36a2eb;opacity:0.5;stroke:#36a2eb;stroke-linejoin:miter;"/>
    </g>
    <g id="text_2">
     <!-- tabbar -->
     <defs>
      <path d="M 18.3125 70.21875 
L 18.3125 54.6875 
L 36.8125 54.6875 
L 36.8125 47.703125 
L 18.3125 47.703125 
L 18.3125 18.015625 
Q 18.3125 11.328125 20.140625 9.421875 
Q 21.96875 7.515625 27.59375 7.515625 
L 36.8125 7.515625 
L 36.8125 0 
L 27.59375 0 
Q 17.1875 0 13.234375 3.875 
Q 9.28125 7.765625 9.28125 18.015625 
L 9.28125 47.703125 
L 2.6875 47.703125 
L 2.6875 54.6875 
L 9.28125 54.6875 
L 9.28125 70.21875 
z
" id="DejaVuSans-116"/>
      <path d="M 34.28125 27.484375 
Q 23.390625 27.484375 19.1875 25 
Q 14.984375 22.515625 14.984375 16.5 
Q 14.984375 11.71875 18.140625 8.90625 
Q 21.296875 6.109375 26.703125 6.109375 
Q 34.1875 6.109375 38.703125 11.40625 
Q 43.21875 16.703125 43.21875 25.484375 
L 43.21875 27.484375 
z
M 52.203125 31.203125 
L 52.203125 0 
L 43.21875 0 
L 43.21875 8.296875 
Q 40.140625 3.328125 35.546875 0.953125 
Q 30.953125 -1.421875 24.3125 -1.421875 
Q 15.921875 -1.421875 10.953125 3.296875 
Q 6 8.015625 6 15.921875 
Q 6 25.140625 12.171875 29.828125 
Q 18.359375 34.515625 30.609375 34.515625 
L 43.21875 34.515625 
L 43.21875 35.40625 
Q 43.21875 41.609375 39.140625 45 
Q 35.0625 48.390625 27.6875 48.390625 
Q 23 48.390625 18.546875 47.265625 
Q 14.109375 46.140625 10.015625 43.890625 
L 10.015625 52.203125 
Q 14.9375 54.109375 19.578125 55.046875 
Q 24.21875 56 28.609375 56 
Q 40.484375 56 46.34375 49.84375 
Q 52.203125 43.703125 52.203125 31.203125 
z
" id="DejaVuSans-97"/>
      <path d="M 48.6875 27.296875 
Q 48.6875 37.203125 44.609375 42.84375 
Q 40.53125 48.484375 33.40625 48.484375 
Q 26.265625 48.484375 22.1875 42.84375 
Q 18.109375 37.203125 18.109375 27.296875 
Q 18.109375 17.390625 22.1875 11.75 
Q 26.265625 6.109375 33.40625 6.109375 
Q 40.53125 6.109375 44.609375 11.75 
Q 48.6875 17.390625 48.6875 27.296875 
z
M 18.109375 46.390625 
Q 20.953125 51.265625 25.265625 53.625 
Q 29.59375 56 35.59375 56 
Q 45.5625 56 51.78125 48.09375 
Q 58.015625 40.1875 58.015625 27.296875 
Q 58.015625 14.40625 51.78125 6.484375 
Q 45.5625 -1.421875 35.59375 -1.421875 
Q 29.59375 -1.421875 25.265625 0.953125 
Q 20.953125 3.328125 18.109375 8.203125 
L 18.109375 0 
L 9.078125 0 
L 9.078125 75.984375 
L 18.109375 75.984375 
z
" id="DejaVuSans-98"/>
      <path d="M 41.109375 46.296875 
Q 39.59375 47.171875 37.8125 47.578125 
Q 36.03125 48 33.890625 48 
Q 26.265625 48 22.1875 43.046875 
Q 18.109375 38.09375 18.109375 28.8125 
L 18.109375 0 
L 9.078125 0 
L 9.078125 54.6875 
L 18.109375 54.6875 
L 18.109375 46.1875 
Q 20.953125 51.171875 25.484375 53.578125 
Q 30.03125 56 36.53125 56 
Q 37.453125 56 38.578125 55.875 
Q 39.703125 55.765625 41.0625 55.515625 
z
" id="DejaVuSans-114"/>
     </defs>
     <g transform="translate(456.919063 79.787188)scale(0.14 -0.14)">
      <use xlink:href="#DejaVuSans-116"/>
      <use x="39.208984" xlink:href="#DejaVuSans-97"/>
      <use x="100.488281" xlink:href="#DejaVuSans-98"/>
      <use x="163.964844" xlink:href="#DejaVuSans-98"/>
      <use x="227.441406" xlink:href="#DejaVuSans-97"/>
      <use x="288.720703" xlink:href="#DejaVuSans-114"/>
     </g>
    </g>
   </g>
  </g>
  <g id="axes_2">
   <g id="patch_7">
    <path d="M 36 525.24 
L 538.2 525.24 
L 538.2 402.93 
L 36 402.93 
z
" style="fill:none;"/>
   </g>
   <g id="patch_8">
    <path clip-path="url(#pfe4ee7f505)" d="M 224.437746 519.680455 
L 415.790955 519.680455 
L 415.790955 482.616818 
L 224.437746 482.616818 
z
" style="fill:#ff6384;opacity:0.5;"/>
   </g>
   <g id="patch_9">
    <path clip-path="url(#pfe4ee7f505)" d="M 165.131342 445.553182 
L 369.401905 445.553182 
L 369.401905 408.489545 
L 165.131342 408.489545 
z
" style="fill:#36a2eb;opacity:0.5;"/>
   </g>
   <g id="matplotlib.axis_1">
    <g id="xtick_1">
     <g id="line2d_3">
      <defs>
       <path d="M 0 0 
L 0 3.5 
" id="m89a65df1d6" style="stroke:#000000;stroke-width:0.8;"/>
      </defs>
      <g>
       <use style="stroke:#000000;stroke-width:0.8;" x="62.093095" xlink:href="#m89a65df1d6" y="525.24"/>
      </g>
     </g>
     <g id="text_3">
      <!-- 2.0 -->
      <defs>
       <path d="M 19.1875 8.296875 
L 53.609375 8.296875 
L 53.609375 0 
L 7.328125 0 
L 7.328125 8.296875 
Q 12.9375 14.109375 22.625 23.890625 
Q 32.328125 33.6875 34.8125 36.53125 
Q 39.546875 41.84375 41.421875 45.53125 
Q 43.3125 49.21875 43.3125 52.78125 
Q 43.3125 58.59375 39.234375 62.25 
Q 35.15625 65.921875 28.609375 65.921875 
Q 23.96875 65.921875 18.8125 64.3125 
Q 13.671875 62.703125 7.8125 59.421875 
L 7.8125 69.390625 
Q 13.765625 71.78125 18.9375 73 
Q 24.125 74.21875 28.421875 74.21875 
Q 39.75 74.21875 46.484375 68.546875 
Q 53.21875 62.890625 53.21875 53.421875 
Q 53.21875 48.921875 51.53125 44.890625 
Q 49.859375 40.875 45.40625 35.40625 
Q 44.1875 33.984375 37.640625 27.21875 
Q 31.109375 20.453125 19.1875 8.296875 
z
" id="DejaVuSans-50"/>
       <path d="M 10.6875 12.40625 
L 21 12.40625 
L 21 0 
L 10.6875 0 
z
" id="DejaVuSans-46"/>
       <path d="M 31.78125 66.40625 
Q 24.171875 66.40625 20.328125 58.90625 
Q 16.5 51.421875 16.5 36.375 
Q 16.5 21.390625 20.328125 13.890625 
Q 24.171875 6.390625 31.78125 6.390625 
Q 39.453125 6.390625 43.28125 13.890625 
Q 47.125 21.390625 47.125 36.375 
Q 47.125 51.421875 43.28125 58.90625 
Q 39.453125 66.40625 31.78125 66.40625 
z
M 31.78125 74.21875 
Q 44.046875 74.21875 50.515625 64.515625 
Q 56.984375 54.828125 56.984375 36.375 
Q 56.984375 17.96875 50.515625 8.265625 
Q 44.046875 -1.421875 31.78125 -1.421875 
Q 19.53125 -1.421875 13.0625 8.265625 
Q 6.59375 17.96875 6.59375 36.375 
Q 6.59375 54.828125 13.0625 64.515625 
Q 19.53125 74.21875 31.78125 74.21875 
z
" id="DejaVuSans-48"/>
      </defs>
      <g transform="translate(50.960908 542.877813)scale(0.14 -0.14)">
       <use xlink:href="#DejaVuSans-50"/>
       <use x="63.623047" xlink:href="#DejaVuSans-46"/>
       <use x="95.410156" xlink:href="#DejaVuSans-48"/>
      </g>
     </g>
    </g>
    <g id="xtick_2">
     <g id="line2d_4">
      <g>
       <use style="stroke:#000000;stroke-width:0.8;" x="124.266892" xlink:href="#m89a65df1d6" y="525.24"/>
      </g>
     </g>
     <g id="text_4">
      <!-- 2.2 -->
      <g transform="translate(113.134704 542.877813)scale(0.14 -0.14)">
       <use xlink:href="#DejaVuSans-50"/>
       <use x="63.623047" xlink:href="#DejaVuSans-46"/>
       <use x="95.410156" xlink:href="#DejaVuSans-50"/>
      </g>
     </g>
    </g>
    <g id="xtick_3">
     <g id="line2d_5">
      <g>
       <use style="stroke:#000000;stroke-width:0.8;" x="186.440688" xlink:href="#m89a65df1d6" y="525.24"/>
      </g>
     </g>
     <g id="text_5">
      <!-- 2.4 -->
      <defs>
       <path d="M 37.796875 64.3125 
L 12.890625 25.390625 
L 37.796875 25.390625 
z
M 35.203125 72.90625 
L 47.609375 72.90625 
L 47.609375 25.390625 
L 58.015625 25.390625 
L 58.015625 17.1875 
L 47.609375 17.1875 
L 47.609375 0 
L 37.796875 0 
L 37.796875 17.1875 
L 4.890625 17.1875 
L 4.890625 26.703125 
z
" id="DejaVuSans-52"/>
      </defs>
      <g transform="translate(175.308501 542.877813)scale(0.14 -0.14)">
       <use xlink:href="#DejaVuSans-50"/>
       <use x="63.623047" xlink:href="#DejaVuSans-46"/>
       <use x="95.410156" xlink:href="#DejaVuSans-52"/>
      </g>
     </g>
    </g>
    <g id="xtick_4">
     <g id="line2d_6">
      <g>
       <use style="stroke:#000000;stroke-width:0.8;" x="248.614484" xlink:href="#m89a65df1d6" y="525.24"/>
      </g>
     </g>
     <g id="text_6">
      <!-- 2.6 -->
      <defs>
       <path d="M 33.015625 40.375 
Q 26.375 40.375 22.484375 35.828125 
Q 18.609375 31.296875 18.609375 23.390625 
Q 18.609375 15.53125 22.484375 10.953125 
Q 26.375 6.390625 33.015625 6.390625 
Q 39.65625 6.390625 43.53125 10.953125 
Q 47.40625 15.53125 47.40625 23.390625 
Q 47.40625 31.296875 43.53125 35.828125 
Q 39.65625 40.375 33.015625 40.375 
z
M 52.59375 71.296875 
L 52.59375 62.3125 
Q 48.875 64.0625 45.09375 64.984375 
Q 41.3125 65.921875 37.59375 65.921875 
Q 27.828125 65.921875 22.671875 59.328125 
Q 17.53125 52.734375 16.796875 39.40625 
Q 19.671875 43.65625 24.015625 45.921875 
Q 28.375 48.1875 33.59375 48.1875 
Q 44.578125 48.1875 50.953125 41.515625 
Q 57.328125 34.859375 57.328125 23.390625 
Q 57.328125 12.15625 50.6875 5.359375 
Q 44.046875 -1.421875 33.015625 -1.421875 
Q 20.359375 -1.421875 13.671875 8.265625 
Q 6.984375 17.96875 6.984375 36.375 
Q 6.984375 53.65625 15.1875 63.9375 
Q 23.390625 74.21875 37.203125 74.21875 
Q 40.921875 74.21875 44.703125 73.484375 
Q 48.484375 72.75 52.59375 71.296875 
z
" id="DejaVuSans-54"/>
      </defs>
      <g transform="translate(237.482297 542.877813)scale(0.14 -0.14)">
       <use xlink:href="#DejaVuSans-50"/>
       <use x="63.623047" xlink:href="#DejaVuSans-46"/>
       <use x="95.410156" xlink:href="#DejaVuSans-54"/>
      </g>
     </g>
    </g>
    <g id="xtick_5">
     <g id="line2d_7">
      <g>
       <use style="stroke:#000000;stroke-width:0.8;" x="310.788281" xlink:href="#m89a65df1d6" y="525.24"/>
      </g>
     </g>
     <g id="text_7">
      <!-- 2.8 -->
      <defs>
       <path d="M 31.78125 34.625 
Q 24.75 34.625 20.71875 30.859375 
Q 16.703125 27.09375 16.703125 20.515625 
Q 16.703125 13.921875 20.71875 10.15625 
Q 24.75 6.390625 31.78125 6.390625 
Q 38.8125 6.390625 42.859375 10.171875 
Q 46.921875 13.96875 46.921875 20.515625 
Q 46.921875 27.09375 42.890625 30.859375 
Q 38.875 34.625 31.78125 34.625 
z
M 21.921875 38.8125 
Q 15.578125 40.375 12.03125 44.71875 
Q 8.5 49.078125 8.5 55.328125 
Q 8.5 64.0625 14.71875 69.140625 
Q 20.953125 74.21875 31.78125 74.21875 
Q 42.671875 74.21875 48.875 69.140625 
Q 55.078125 64.0625 55.078125 55.328125 
Q 55.078125 49.078125 51.53125 44.71875 
Q 48 40.375 41.703125 38.8125 
Q 48.828125 37.15625 52.796875 32.3125 
Q 56.78125 27.484375 56.78125 20.515625 
Q 56.78125 9.90625 50.3125 4.234375 
Q 43.84375 -1.421875 31.78125 -1.421875 
Q 19.734375 -1.421875 13.25 4.234375 
Q 6.78125 9.90625 6.78125 20.515625 
Q 6.78125 27.484375 10.78125 32.3125 
Q 14.796875 37.15625 21.921875 38.8125 
z
M 18.3125 54.390625 
Q 18.3125 48.734375 21.84375 45.5625 
Q 25.390625 42.390625 31.78125 42.390625 
Q 38.140625 42.390625 41.71875 45.5625 
Q 45.3125 48.734375 45.3125 54.390625 
Q 45.3125 60.0625 41.71875 63.234375 
Q 38.140625 66.40625 31.78125 66.40625 
Q 25.390625 66.40625 21.84375 63.234375 
Q 18.3125 60.0625 18.3125 54.390625 
z
" id="DejaVuSans-56"/>
      </defs>
      <g transform="translate(299.656093 542.877813)scale(0.14 -0.14)">
       <use xlink:href="#DejaVuSans-50"/>
       <use x="63.623047" xlink:href="#DejaVuSans-46"/>
       <use x="95.410156" xlink:href="#DejaVuSans-56"/>
      </g>
     </g>
    </g>
    <g id="xtick_6">
     <g id="line2d_8">
      <g>
       <use style="stroke:#000000;stroke-width:0.8;" x="372.962077" xlink:href="#m89a65df1d6" y="525.24"/>
      </g>
     </g>
     <g id="text_8">
      <!-- 3.0 -->
      <defs>
       <path d="M 40.578125 39.3125 
Q 47.65625 37.796875 51.625 33 
Q 55.609375 28.21875 55.609375 21.1875 
Q 55.609375 10.40625 48.1875 4.484375 
Q 40.765625 -1.421875 27.09375 -1.421875 
Q 22.515625 -1.421875 17.65625 -0.515625 
Q 12.796875 0.390625 7.625 2.203125 
L 7.625 11.71875 
Q 11.71875 9.328125 16.59375 8.109375 
Q 21.484375 6.890625 26.8125 6.890625 
Q 36.078125 6.890625 40.9375 10.546875 
Q 45.796875 14.203125 45.796875 21.1875 
Q 45.796875 27.640625 41.28125 31.265625 
Q 36.765625 34.90625 28.71875 34.90625 
L 20.21875 34.90625 
L 20.21875 43.015625 
L 29.109375 43.015625 
Q 36.375 43.015625 40.234375 45.921875 
Q 44.09375 48.828125 44.09375 54.296875 
Q 44.09375 59.90625 40.109375 62.90625 
Q 36.140625 65.921875 28.71875 65.921875 
Q 24.65625 65.921875 20.015625 65.03125 
Q 15.375 64.15625 9.8125 62.3125 
L 9.8125 71.09375 
Q 15.4375 72.65625 20.34375 73.4375 
Q 25.25 74.21875 29.59375 74.21875 
Q 40.828125 74.21875 47.359375 69.109375 
Q 53.90625 64.015625 53.90625 55.328125 
Q 53.90625 49.265625 50.4375 45.09375 
Q 46.96875 40.921875 40.578125 39.3125 
z
" id="DejaVuSans-51"/>
      </defs>
      <g transform="translate(361.82989 542.877813)scale(0.14 -0.14)">
       <use xlink:href="#DejaVuSans-51"/>
       <use x="63.623047" xlink:href="#DejaVuSans-46"/>
       <use x="95.410156" xlink:href="#DejaVuSans-48"/>
      </g>
     </g>
    </g>
    <g id="xtick_7">
     <g id="line2d_9">
      <g>
       <use style="stroke:#000000;stroke-width:0.8;" x="435.135874" xlink:href="#m89a65df1d6" y="525.24"/>
      </g>
     </g>
     <g id="text_9">
      <!-- 3.2 -->
      <g transform="translate(424.003686 542.877813)scale(0.14 -0.14)">
       <use xlink:href="#DejaVuSans-51"/>
       <use x="63.623047" xlink:href="#DejaVuSans-46"/>
       <use x="95.410156" xlink:href="#DejaVuSans-50"/>
      </g>
     </g>
    </g>
    <g id="xtick_8">
     <g id="line2d_10">
      <g>
       <use style="stroke:#000000;stroke-width:0.8;" x="497.30967" xlink:href="#m89a65df1d6" y="525.24"/>
      </g>
     </g>
     <g id="text_10">
      <!-- 3.4 -->
      <g transform="translate(486.177483 542.877813)scale(0.14 -0.14)">
       <use xlink:href="#DejaVuSans-51"/>
       <use x="63.623047" xlink:href="#DejaVuSans-46"/>
       <use x="95.410156" xlink:href="#DejaVuSans-52"/>
      </g>
     </g>
    </g>
   </g>
   <g id="line2d_11">
    <path clip-path="url(#pfe4ee7f505)" d="M 320.11435 525.24 
L 320.11435 402.93 
" style="fill:none;stroke:#ff6384;stroke-dasharray:5.55,2.4;stroke-dashoffset:0;stroke-opacity:0.8;stroke-width:1.5;"/>
   </g>
   <g id="line2d_12">
    <path clip-path="url(#pfe4ee7f505)" d="M 267.266623 525.24 
L 267.266623 402.93 
" style="fill:none;stroke:#36a2eb;stroke-dasharray:5.55,2.4;stroke-dashoffset:0;stroke-opacity:0.8;stroke-width:1.5;"/>
   </g>
   <g id="patch_10">
    <path d="M 36 525.24 
L 538.2 525.24 
" style="fill:none;stroke:#000000;stroke-linecap:square;stroke-linejoin:miter;stroke-width:0.8;"/>
   </g>
  </g>
 </g>
 <defs>
  <clipPath id="pebf6a7c5c9">
   <rect height="366.93" width="502.2" x="36" y="36"/>
  </clipPath>
  <clipPath id="pfe4ee7f505">
   <rect height="122.31" width="502.2" x="36" y="402.93"/>
  </clipPath>
 </defs>
</svg>
