<?xml version="1.0" encoding="utf-8" standalone="no"?>
<!DOCTYPE svg PUBLIC "-//W3C//DTD SVG 1.1//EN"
  "http://www.w3.org/Graphics/SVG/1.1/DTD/svg11.dtd">
<!-- Created with matplotlib (https://matplotlib.org/) -->
<svg height="581.789375pt" version="1.1" viewBox="0 0 574.2 581.789375" width="574.2pt" xmlns="http://www.w3.org/2000/svg" xmlns:xlink="http://www.w3.org/1999/xlink">
 <defs>
  <style type="text/css">
*{stroke-linecap:butt;stroke-linejoin:round;}
  </style>
 </defs>
 <g id="figure_1">
  <g id="patch_1">
   <path d="M 0 581.789375 
L 574.2 581.789375 
L 574.2 0 
L 0 0 
z
" style="fill:none;"/>
  </g>
  <g id="axes_1">
   <g id="patch_2">
    <path d="M 36 402.93 
L 538.2 402.93 
L 538.2 36 
L 36 36 
z
" style="fill:none;"/>
   </g>
   <g id="PolyCollection_1">
    <defs>
     <path d="M 176.236571 -195.538011 
L 176.236571 -195.650004 
L 179.662189 -195.692234 
L 183.087807 -195.749007 
L 186.513425 -195.8248 
L 189.939042 -195.925281 
L 193.36466 -196.057565 
L 196.790278 -196.230497 
L 200.215896 -196.454982 
L 203.641513 -196.744335 
L 207.067131 -197.114666 
L 210.492749 -197.585273 
L 213.918366 -198.179047 
L 217.343984 -198.922859 
L 220.769602 -199.847921 
L 224.19522 -200.990079 
L 227.620837 -202.390029 
L 231.046455 -204.093399 
L 234.472073 -206.150691 
L 237.897691 -208.617009 
L 241.323308 -211.551575 
L 244.748926 -215.016962 
L 248.174544 -219.078053 
L 251.600162 -223.800667 
L 255.025779 -229.249878 
L 258.451397 -235.488004 
L 261.877015 -242.572312 
L 265.302632 -250.552459 
L 268.72825 -259.467747 
L 272.153868 -269.344261 
L 275.579486 -280.192004 
L 279.005103 -292.002137 
L 282.430721 -304.744465 
L 285.856339 -318.365297 
L 289.281957 -332.785841 
L 292.707574 -347.901251 
L 296.133192 -363.580456 
L 299.55881 -379.666871 
L 302.984428 -395.980052 
L 306.410045 -412.31833 
L 309.835663 -428.4624 
L 313.261281 -444.179822 
L 316.686899 -459.230303 
L 320.112516 -473.371627 
L 323.538134 -486.366018 
L 326.963752 -497.986726 
L 330.389369 -508.02457 
L 333.814987 -516.294181 
L 337.240605 -522.639693 
L 340.666223 -526.939623 
L 344.09184 -529.110739 
L 347.517458 -529.110739 
L 350.943076 -526.939623 
L 354.368694 -522.639693 
L 357.794311 -516.294181 
L 361.219929 -508.02457 
L 364.645547 -497.986726 
L 368.071165 -486.366018 
L 371.496782 -473.371627 
L 374.9224 -459.230303 
L 378.348018 -444.179822 
L 381.773636 -428.4624 
L 385.199253 -412.31833 
L 388.624871 -395.980052 
L 392.050489 -379.666871 
L 395.476106 -363.580456 
L 398.901724 -347.901251 
L 402.327342 -332.785841 
L 405.75296 -318.365297 
L 409.178577 -304.744465 
L 412.604195 -292.002137 
L 416.029813 -280.192004 
L 419.455431 -269.344261 
L 422.881048 -259.467747 
L 426.306666 -250.552459 
L 429.732284 -242.572312 
L 433.157902 -235.488004 
L 436.583519 -229.249878 
L 440.009137 -223.800667 
L 443.434755 -219.078053 
L 446.860373 -215.016962 
L 450.28599 -211.551575 
L 453.711608 -208.617009 
L 457.137226 -206.150691 
L 460.562843 -204.093399 
L 463.988461 -202.390029 
L 467.414079 -200.990079 
L 470.839697 -199.847921 
L 474.265314 -198.922859 
L 477.690932 -198.179047 
L 481.11655 -197.585273 
L 484.542168 -197.114666 
L 487.967785 -196.744335 
L 491.393403 -196.454982 
L 494.819021 -196.230497 
L 498.244639 -196.057565 
L 501.670256 -195.925281 
L 505.095874 -195.8248 
L 508.521492 -195.749007 
L 511.94711 -195.692234 
L 515.372727 -195.650004 
L 515.372727 -195.538011 
L 515.372727 -195.538011 
L 511.94711 -195.538011 
L 508.521492 -195.538011 
L 505.095874 -195.538011 
L 501.670256 -195.538011 
L 498.244639 -195.538011 
L 494.819021 -195.538011 
L 491.393403 -195.538011 
L 487.967785 -195.538011 
L 484.542168 -195.538011 
L 481.11655 -195.538011 
L 477.690932 -195.538011 
L 474.265314 -195.538011 
L 470.839697 -195.538011 
L 467.414079 -195.538011 
L 463.988461 -195.538011 
L 460.562843 -195.538011 
L 457.137226 -195.538011 
L 453.711608 -195.538011 
L 450.28599 -195.538011 
L 446.860373 -195.538011 
L 443.434755 -195.538011 
L 440.009137 -195.538011 
L 436.583519 -195.538011 
L 433.157902 -195.538011 
L 429.732284 -195.538011 
L 426.306666 -195.538011 
L 422.881048 -195.538011 
L 419.455431 -195.538011 
L 416.029813 -195.538011 
L 412.604195 -195.538011 
L 409.178577 -195.538011 
L 405.75296 -195.538011 
L 402.327342 -195.538011 
L 398.901724 -195.538011 
L 395.476106 -195.538011 
L 392.050489 -195.538011 
L 388.624871 -195.538011 
L 385.199253 -195.538011 
L 381.773636 -195.538011 
L 378.348018 -195.538011 
L 374.9224 -195.538011 
L 371.496782 -195.538011 
L 368.071165 -195.538011 
L 364.645547 -195.538011 
L 361.219929 -195.538011 
L 357.794311 -195.538011 
L 354.368694 -195.538011 
L 350.943076 -195.538011 
L 347.517458 -195.538011 
L 344.09184 -195.538011 
L 340.666223 -195.538011 
L 337.240605 -195.538011 
L 333.814987 -195.538011 
L 330.389369 -195.538011 
L 326.963752 -195.538011 
L 323.538134 -195.538011 
L 320.112516 -195.538011 
L 316.686899 -195.538011 
L 313.261281 -195.538011 
L 309.835663 -195.538011 
L 306.410045 -195.538011 
L 302.984428 -195.538011 
L 299.55881 -195.538011 
L 296.133192 -195.538011 
L 292.707574 -195.538011 
L 289.281957 -195.538011 
L 285.856339 -195.538011 
L 282.430721 -195.538011 
L 279.005103 -195.538011 
L 275.579486 -195.538011 
L 272.153868 -195.538011 
L 268.72825 -195.538011 
L 265.302632 -195.538011 
L 261.877015 -195.538011 
L 258.451397 -195.538011 
L 255.025779 -195.538011 
L 251.600162 -195.538011 
L 248.174544 -195.538011 
L 244.748926 -195.538011 
L 241.323308 -195.538011 
L 237.897691 -195.538011 
L 234.472073 -195.538011 
L 231.046455 -195.538011 
L 227.620837 -195.538011 
L 224.19522 -195.538011 
L 220.769602 -195.538011 
L 217.343984 -195.538011 
L 213.918366 -195.538011 
L 210.492749 -195.538011 
L 207.067131 -195.538011 
L 203.641513 -195.538011 
L 200.215896 -195.538011 
L 196.790278 -195.538011 
L 193.36466 -195.538011 
L 189.939042 -195.538011 
L 186.513425 -195.538011 
L 183.087807 -195.538011 
L 179.662189 -195.538011 
L 176.236571 -195.538011 
z
" id="m85c97d67fc" style="stroke:#ff6384;stroke-opacity:0.5;"/>
    </defs>
    <g clip-path="url(#pbe62325c07)">
     <use style="fill:#ff6384;fill-opacity:0.5;stroke:#ff6384;stroke-opacity:0.5;" x="0" xlink:href="#m85c97d67fc" y="581.789375"/>
    </g>
   </g>
   <g id="PolyCollection_2">
    <defs>
     <path d="M 58.827273 -195.538011 
L 58.827273 -195.634399 
L 62.807481 -195.670745 
L 66.787689 -195.719607 
L 70.767897 -195.78484 
L 74.748105 -195.87132 
L 78.728313 -195.985172 
L 82.708522 -196.134008 
L 86.68873 -196.327214 
L 90.668938 -196.57625 
L 94.649146 -196.89498 
L 98.629354 -197.300014 
L 102.609562 -197.811053 
L 106.58977 -198.451224 
L 110.569978 -199.247391 
L 114.550187 -200.230404 
L 118.530395 -201.435289 
L 122.510603 -202.901317 
L 126.490811 -204.671952 
L 130.471019 -206.794621 
L 134.451227 -209.320292 
L 138.431435 -212.302823 
L 142.411644 -215.798053 
L 146.391852 -219.862633 
L 150.37206 -224.552566 
L 154.352268 -229.921491 
L 158.332476 -236.018692 
L 162.312684 -242.886909 
L 166.292892 -250.559967 
L 170.2731 -259.060317 
L 174.253309 -268.396567 
L 178.233517 -278.561112 
L 182.213725 -289.527962 
L 186.193933 -301.250907 
L 190.174141 -313.662136 
L 194.154349 -326.671409 
L 198.134557 -340.16592 
L 202.114766 -354.010902 
L 206.094974 -368.051053 
L 210.075182 -382.112803 
L 214.05539 -396.007406 
L 218.035598 -409.534809 
L 222.015806 -422.488201 
L 225.996014 -434.659115 
L 229.976222 -445.842906 
L 233.956431 -455.844419 
L 237.936639 -464.483619 
L 241.916847 -471.600968 
L 245.897055 -477.062315 
L 249.877263 -480.763105 
L 253.857471 -482.631704 
L 257.837679 -482.631704 
L 261.817888 -480.763105 
L 265.798096 -477.062315 
L 269.778304 -471.600968 
L 273.758512 -464.483619 
L 277.73872 -455.844419 
L 281.718928 -445.842906 
L 285.699136 -434.659115 
L 289.679344 -422.488201 
L 293.659553 -409.534809 
L 297.639761 -396.007406 
L 301.619969 -382.112803 
L 305.600177 -368.051053 
L 309.580385 -354.010902 
L 313.560593 -340.16592 
L 317.540801 -326.671409 
L 321.52101 -313.662136 
L 325.501218 -301.250907 
L 329.481426 -289.527962 
L 333.461634 -278.561112 
L 337.441842 -268.396567 
L 341.42205 -259.060317 
L 345.402258 -250.559967 
L 349.382466 -242.886909 
L 353.362675 -236.018692 
L 357.342883 -229.921491 
L 361.323091 -224.552566 
L 365.303299 -219.862633 
L 369.283507 -215.798053 
L 373.263715 -212.302823 
L 377.243923 -209.320292 
L 381.224132 -206.794621 
L 385.20434 -204.671952 
L 389.184548 -202.901317 
L 393.164756 -201.435289 
L 397.144964 -200.230404 
L 401.125172 -199.247391 
L 405.10538 -198.451224 
L 409.085588 -197.811053 
L 413.065797 -197.300014 
L 417.046005 -196.89498 
L 421.026213 -196.57625 
L 425.006421 -196.327214 
L 428.986629 -196.134008 
L 432.966837 -195.985172 
L 436.947045 -195.87132 
L 440.927254 -195.78484 
L 444.907462 -195.719607 
L 448.88767 -195.670745 
L 452.867878 -195.634399 
L 452.867878 -195.538011 
L 452.867878 -195.538011 
L 448.88767 -195.538011 
L 444.907462 -195.538011 
L 440.927254 -195.538011 
L 436.947045 -195.538011 
L 432.966837 -195.538011 
L 428.986629 -195.538011 
L 425.006421 -195.538011 
L 421.026213 -195.538011 
L 417.046005 -195.538011 
L 413.065797 -195.538011 
L 409.085588 -195.538011 
L 405.10538 -195.538011 
L 401.125172 -195.538011 
L 397.144964 -195.538011 
L 393.164756 -195.538011 
L 389.184548 -195.538011 
L 385.20434 -195.538011 
L 381.224132 -195.538011 
L 377.243923 -195.538011 
L 373.263715 -195.538011 
L 369.283507 -195.538011 
L 365.303299 -195.538011 
L 361.323091 -195.538011 
L 357.342883 -195.538011 
L 353.362675 -195.538011 
L 349.382466 -195.538011 
L 345.402258 -195.538011 
L 341.42205 -195.538011 
L 337.441842 -195.538011 
L 333.461634 -195.538011 
L 329.481426 -195.538011 
L 325.501218 -195.538011 
L 321.52101 -195.538011 
L 317.540801 -195.538011 
L 313.560593 -195.538011 
L 309.580385 -195.538011 
L 305.600177 -195.538011 
L 301.619969 -195.538011 
L 297.639761 -195.538011 
L 293.659553 -195.538011 
L 289.679344 -195.538011 
L 285.699136 -195.538011 
L 281.718928 -195.538011 
L 277.73872 -195.538011 
L 273.758512 -195.538011 
L 269.778304 -195.538011 
L 265.798096 -195.538011 
L 261.817888 -195.538011 
L 257.837679 -195.538011 
L 253.857471 -195.538011 
L 249.877263 -195.538011 
L 245.897055 -195.538011 
L 241.916847 -195.538011 
L 237.936639 -195.538011 
L 233.956431 -195.538011 
L 229.976222 -195.538011 
L 225.996014 -195.538011 
L 222.015806 -195.538011 
L 218.035598 -195.538011 
L 214.05539 -195.538011 
L 210.075182 -195.538011 
L 206.094974 -195.538011 
L 202.114766 -195.538011 
L 198.134557 -195.538011 
L 194.154349 -195.538011 
L 190.174141 -195.538011 
L 186.193933 -195.538011 
L 182.213725 -195.538011 
L 178.233517 -195.538011 
L 174.253309 -195.538011 
L 170.2731 -195.538011 
L 166.292892 -195.538011 
L 162.312684 -195.538011 
L 158.332476 -195.538011 
L 154.352268 -195.538011 
L 150.37206 -195.538011 
L 146.391852 -195.538011 
L 142.411644 -195.538011 
L 138.431435 -195.538011 
L 134.451227 -195.538011 
L 130.471019 -195.538011 
L 126.490811 -195.538011 
L 122.510603 -195.538011 
L 118.530395 -195.538011 
L 114.550187 -195.538011 
L 110.569978 -195.538011 
L 106.58977 -195.538011 
L 102.609562 -195.538011 
L 98.629354 -195.538011 
L 94.649146 -195.538011 
L 90.668938 -195.538011 
L 86.68873 -195.538011 
L 82.708522 -195.538011 
L 78.728313 -195.538011 
L 74.748105 -195.538011 
L 70.767897 -195.538011 
L 66.787689 -195.538011 
L 62.807481 -195.538011 
L 58.827273 -195.538011 
z
" id="m3255df8dc8" style="stroke:#36a2eb;stroke-opacity:0.5;"/>
    </defs>
    <g clip-path="url(#pbe62325c07)">
     <use style="fill:#36a2eb;fill-opacity:0.5;stroke:#36a2eb;stroke-opacity:0.5;" x="0" xlink:href="#m3255df8dc8" y="581.789375"/>
    </g>
   </g>
   <g id="line2d_1">
    <path clip-path="url(#pbe62325c07)" d="M 176.236571 386.139371 
L 179.662189 386.097141 
L 183.087807 386.040368 
L 186.513425 385.964575 
L 189.939042 385.864094 
L 193.36466 385.73181 
L 196.790278 385.558878 
L 200.215896 385.334393 
L 203.641513 385.04504 
L 207.067131 384.674709 
L 210.492749 384.204102 
L 213.918366 383.610328 
L 217.343984 382.866516 
L 220.769602 381.941454 
L 224.19522 380.799296 
L 227.620837 379.399346 
L 231.046455 377.695976 
L 234.472073 375.638684 
L 237.897691 373.172366 
L 241.323308 370.2378 
L 244.748926 366.772413 
L 248.174544 362.711322 
L 251.600162 357.988708 
L 255.025779 352.539497 
L 258.451397 346.301371 
L 261.877015 339.217063 
L 265.302632 331.236916 
L 268.72825 322.321628 
L 272.153868 312.445114 
L 275.579486 301.597371 
L 279.005103 289.787238 
L 282.430721 277.04491 
L 285.856339 263.424078 
L 289.281957 249.003534 
L 292.707574 233.888124 
L 296.133192 218.208919 
L 299.55881 202.122504 
L 302.984428 185.809323 
L 306.410045 169.471045 
L 309.835663 153.326975 
L 313.261281 137.609553 
L 316.686899 122.559072 
L 320.112516 108.417748 
L 323.538134 95.423357 
L 326.963752 83.802649 
L 330.389369 73.764805 
L 333.814987 65.495194 
L 337.240605 59.149682 
L 340.666223 54.849752 
L 344.09184 52.678636 
L 347.517458 52.678636 
L 350.943076 54.849752 
L 354.368694 59.149682 
L 357.794311 65.495194 
L 361.219929 73.764805 
L 364.645547 83.802649 
L 368.071165 95.423357 
L 371.496782 108.417748 
L 374.9224 122.559072 
L 378.348018 137.609553 
L 381.773636 153.326975 
L 385.199253 169.471045 
L 388.624871 185.809323 
L 392.050489 202.122504 
L 395.476106 218.208919 
L 398.901724 233.888124 
L 402.327342 249.003534 
L 405.75296 263.424078 
L 409.178577 277.04491 
L 412.604195 289.787238 
L 416.029813 301.597371 
L 419.455431 312.445114 
L 422.881048 322.321628 
L 426.306666 331.236916 
L 429.732284 339.217063 
L 433.157902 346.301371 
L 436.583519 352.539497 
L 440.009137 357.988708 
L 443.434755 362.711322 
L 446.860373 366.772413 
L 450.28599 370.2378 
L 453.711608 373.172366 
L 457.137226 375.638684 
L 460.562843 377.695976 
L 463.988461 379.399346 
L 467.414079 380.799296 
L 470.839697 381.941454 
L 474.265314 382.866516 
L 477.690932 383.610328 
L 481.11655 384.204102 
L 484.542168 384.674709 
L 487.967785 385.04504 
L 491.393403 385.334393 
L 494.819021 385.558878 
L 498.244639 385.73181 
L 501.670256 385.864094 
L 505.095874 385.964575 
L 508.521492 386.040368 
L 511.94711 386.097141 
L 515.372727 386.139371 
" style="fill:none;stroke:#ff6384;stroke-linecap:square;"/>
   </g>
   <g id="line2d_2">
    <path clip-path="url(#pbe62325c07)" d="M 58.827273 386.154976 
L 62.807481 386.11863 
L 66.787689 386.069768 
L 70.767897 386.004535 
L 74.748105 385.918055 
L 78.728313 385.804203 
L 82.708522 385.655367 
L 86.68873 385.462161 
L 90.668938 385.213125 
L 94.649146 384.894395 
L 98.629354 384.489361 
L 102.609562 383.978322 
L 106.58977 383.338151 
L 110.569978 382.541984 
L 114.550187 381.558971 
L 118.530395 380.354086 
L 122.510603 378.888058 
L 126.490811 377.117423 
L 130.471019 374.994754 
L 134.451227 372.469083 
L 138.431435 369.486552 
L 142.411644 365.991322 
L 146.391852 361.926742 
L 150.37206 357.236809 
L 154.352268 351.867884 
L 158.332476 345.770683 
L 162.312684 338.902466 
L 166.292892 331.229408 
L 170.2731 322.729058 
L 174.253309 313.392808 
L 178.233517 303.228263 
L 182.213725 292.261413 
L 186.193933 280.538468 
L 190.174141 268.127239 
L 194.154349 255.117966 
L 198.134557 241.623455 
L 202.114766 227.778473 
L 206.094974 213.738322 
L 210.075182 199.676572 
L 214.05539 185.781969 
L 218.035598 172.254566 
L 222.015806 159.301174 
L 225.996014 147.13026 
L 229.976222 135.946469 
L 233.956431 125.944956 
L 237.936639 117.305756 
L 241.916847 110.188407 
L 245.897055 104.72706 
L 249.877263 101.02627 
L 253.857471 99.157671 
L 257.837679 99.157671 
L 261.817888 101.02627 
L 265.798096 104.72706 
L 269.778304 110.188407 
L 273.758512 117.305756 
L 277.73872 125.944956 
L 281.718928 135.946469 
L 285.699136 147.13026 
L 289.679344 159.301174 
L 293.659553 172.254566 
L 297.639761 185.781969 
L 301.619969 199.676572 
L 305.600177 213.738322 
L 309.580385 227.778473 
L 313.560593 241.623455 
L 317.540801 255.117966 
L 321.52101 268.127239 
L 325.501218 280.538468 
L 329.481426 292.261413 
L 333.461634 303.228263 
L 337.441842 313.392808 
L 341.42205 322.729058 
L 345.402258 331.229408 
L 349.382466 338.902466 
L 353.362675 345.770683 
L 357.342883 351.867884 
L 361.323091 357.236809 
L 365.303299 361.926742 
L 369.283507 365.991322 
L 373.263715 369.486552 
L 377.243923 372.469083 
L 381.224132 374.994754 
L 385.20434 377.117423 
L 389.184548 378.888058 
L 393.164756 380.354086 
L 397.144964 381.558971 
L 401.125172 382.541984 
L 405.10538 383.338151 
L 409.085588 383.978322 
L 413.065797 384.489361 
L 417.046005 384.894395 
L 421.026213 385.213125 
L 425.006421 385.462161 
L 428.986629 385.655367 
L 432.966837 385.804203 
L 436.947045 385.918055 
L 440.927254 386.004535 
L 444.907462 386.069768 
L 448.88767 386.11863 
L 452.867878 386.154976 
" style="fill:none;stroke:#36a2eb;stroke-linecap:square;"/>
   </g>
   <g id="patch_3">
    <path d="M 36 402.93 
L 538.2 402.93 
" style="fill:none;stroke:#000000;stroke-linecap:square;stroke-linejoin:miter;stroke-width:0.8;"/>
   </g>
   <g id="legend_1">
    <g id="patch_4">
     <path d="M 414.919063 88.29875 
L 528.4 88.29875 
Q 531.2 88.29875 531.2 85.49875 
L 531.2 45.8 
Q 531.2 43 528.4 43 
L 414.919063 43 
Q 412.119063 43 412.119063 45.8 
L 412.119063 85.49875 
Q 412.119063 88.29875 414.919063 88.29875 
z
" style="fill:#ffffff;opacity:0.8;stroke:#cccccc;stroke-linejoin:miter;"/>
    </g>
    <g id="patch_5">
     <path d="M 417.719063 59.237813 
L 445.719063 59.237813 
L 445.719063 49.437813 
L 417.719063 49.437813 
z
" style="fill:#ff6384;opacity:0.5;stroke:#ff6384;stroke-linejoin:miter;"/>
    </g>
    <g id="text_1">
     <!-- sidemenu -->
     <defs>
      <path d="M 44.28125 53.078125 
L 44.28125 44.578125 
Q 40.484375 46.53125 36.375 47.5 
Q 32.28125 48.484375 27.875 48.484375 
Q 21.1875 48.484375 17.84375 46.4375 
Q 14.5 44.390625 14.5 40.28125 
Q 14.5 37.15625 16.890625 35.375 
Q 19.28125 33.59375 26.515625 31.984375 
L 29.59375 31.296875 
Q 39.15625 29.25 43.1875 25.515625 
Q 47.21875 21.78125 47.21875 15.09375 
Q 47.21875 7.46875 41.1875 3.015625 
Q 35.15625 -1.421875 24.609375 -1.421875 
Q 20.21875 -1.421875 15.453125 -0.5625 
Q 10.6875 0.296875 5.421875 2 
L 5.421875 11.28125 
Q 10.40625 8.6875 15.234375 7.390625 
Q 20.0625 6.109375 24.8125 6.109375 
Q 31.15625 6.109375 34.5625 8.28125 
Q 37.984375 10.453125 37.984375 14.40625 
Q 37.984375 18.0625 35.515625 20.015625 
Q 33.0625 21.96875 24.703125 23.78125 
L 21.578125 24.515625 
Q 13.234375 26.265625 9.515625 29.90625 
Q 5.8125 33.546875 5.8125 39.890625 
Q 5.8125 47.609375 11.28125 51.796875 
Q 16.75 56 26.8125 56 
Q 31.78125 56 36.171875 55.265625 
Q 40.578125 54.546875 44.28125 53.078125 
z
" id="DejaVuSans-115"/>
      <path d="M 9.421875 54.6875 
L 18.40625 54.6875 
L 18.40625 0 
L 9.421875 0 
z
M 9.421875 75.984375 
L 18.40625 75.984375 
L 18.40625 64.59375 
L 9.421875 64.59375 
z
" id="DejaVuSans-105"/>
      <path d="M 45.40625 46.390625 
L 45.40625 75.984375 
L 54.390625 75.984375 
L 54.390625 0 
L 45.40625 0 
L 45.40625 8.203125 
Q 42.578125 3.328125 38.25 0.953125 
Q 33.9375 -1.421875 27.875 -1.421875 
Q 17.96875 -1.421875 11.734375 6.484375 
Q 5.515625 14.40625 5.515625 27.296875 
Q 5.515625 40.1875 11.734375 48.09375 
Q 17.96875 56 27.875 56 
Q 33.9375 56 38.25 53.625 
Q 42.578125 51.265625 45.40625 46.390625 
z
M 14.796875 27.296875 
Q 14.796875 17.390625 18.875 11.75 
Q 22.953125 6.109375 30.078125 6.109375 
Q 37.203125 6.109375 41.296875 11.75 
Q 45.40625 17.390625 45.40625 27.296875 
Q 45.40625 37.203125 41.296875 42.84375 
Q 37.203125 48.484375 30.078125 48.484375 
Q 22.953125 48.484375 18.875 42.84375 
Q 14.796875 37.203125 14.796875 27.296875 
z
" id="DejaVuSans-100"/>
      <path d="M 56.203125 29.59375 
L 56.203125 25.203125 
L 14.890625 25.203125 
Q 15.484375 15.921875 20.484375 11.0625 
Q 25.484375 6.203125 34.421875 6.203125 
Q 39.59375 6.203125 44.453125 7.46875 
Q 49.3125 8.734375 54.109375 11.28125 
L 54.109375 2.78125 
Q 49.265625 0.734375 44.1875 -0.34375 
Q 39.109375 -1.421875 33.890625 -1.421875 
Q 20.796875 -1.421875 13.15625 6.1875 
Q 5.515625 13.8125 5.515625 26.8125 
Q 5.515625 40.234375 12.765625 48.109375 
Q 20.015625 56 32.328125 56 
Q 43.359375 56 49.78125 48.890625 
Q 56.203125 41.796875 56.203125 29.59375 
z
M 47.21875 32.234375 
Q 47.125 39.59375 43.09375 43.984375 
Q 39.0625 48.390625 32.421875 48.390625 
Q 24.90625 48.390625 20.390625 44.140625 
Q 15.875 39.890625 15.1875 32.171875 
z
" id="DejaVuSans-101"/>
      <path d="M 52 44.1875 
Q 55.375 50.25 60.0625 53.125 
Q 64.75 56 71.09375 56 
Q 79.640625 56 84.28125 50.015625 
Q 88.921875 44.046875 88.921875 33.015625 
L 88.921875 0 
L 79.890625 0 
L 79.890625 32.71875 
Q 79.890625 40.578125 77.09375 44.375 
Q 74.3125 48.1875 68.609375 48.1875 
Q 61.625 48.1875 57.5625 43.546875 
Q 53.515625 38.921875 53.515625 30.90625 
L 53.515625 0 
L 44.484375 0 
L 44.484375 32.71875 
Q 44.484375 40.625 41.703125 44.40625 
Q 38.921875 48.1875 33.109375 48.1875 
Q 26.21875 48.1875 22.15625 43.53125 
Q 18.109375 38.875 18.109375 30.90625 
L 18.109375 0 
L 9.078125 0 
L 9.078125 54.6875 
L 18.109375 54.6875 
L 18.109375 46.1875 
Q 21.1875 51.21875 25.484375 53.609375 
Q 29.78125 56 35.6875 56 
Q 41.65625 56 45.828125 52.96875 
Q 50 49.953125 52 44.1875 
z
" id="DejaVuSans-109"/>
      <path d="M 54.890625 33.015625 
L 54.890625 0 
L 45.90625 0 
L 45.90625 32.71875 
Q 45.90625 40.484375 42.875 44.328125 
Q 39.84375 48.1875 33.796875 48.1875 
Q 26.515625 48.1875 22.3125 43.546875 
Q 18.109375 38.921875 18.109375 30.90625 
L 18.109375 0 
L 9.078125 0 
L 9.078125 54.6875 
L 18.109375 54.6875 
L 18.109375 46.1875 
Q 21.34375 51.125 25.703125 53.5625 
Q 30.078125 56 35.796875 56 
Q 45.21875 56 50.046875 50.171875 
Q 54.890625 44.34375 54.890625 33.015625 
z
" id="DejaVuSans-110"/>
      <path d="M 8.5 21.578125 
L 8.5 54.6875 
L 17.484375 54.6875 
L 17.484375 21.921875 
Q 17.484375 14.15625 20.5 10.265625 
Q 23.53125 6.390625 29.59375 6.390625 
Q 36.859375 6.390625 41.078125 11.03125 
Q 45.3125 15.671875 45.3125 23.6875 
L 45.3125 54.6875 
L 54.296875 54.6875 
L 54.296875 0 
L 45.3125 0 
L 45.3125 8.40625 
Q 42.046875 3.421875 37.71875 1 
Q 33.40625 -1.421875 27.6875 -1.421875 
Q 18.265625 -1.421875 13.375 4.4375 
Q 8.5 10.296875 8.5 21.578125 
z
M 31.109375 56 
z
" id="DejaVuSans-117"/>
     </defs>
     <g transform="translate(456.919063 59.237813)scale(0.14 -0.14)">
      <use xlink:href="#DejaVuSans-115"/>
      <use x="52.099609" xlink:href="#DejaVuSans-105"/>
      <use x="79.882812" xlink:href="#DejaVuSans-100"/>
      <use x="143.359375" xlink:href="#DejaVuSans-101"/>
      <use x="204.882812" xlink:href="#DejaVuSans-109"/>
      <use x="302.294922" xlink:href="#DejaVuSans-101"/>
      <use x="363.818359" xlink:href="#DejaVuSans-110"/>
      <use x="427.197266" xlink:href="#DejaVuSans-117"/>
     </g>
    </g>
    <g id="patch_6">
     <path d="M 417.719063 79.787188 
L 445.719063 79.787188 
L 445.719063 69.987188 
L 417.719063 69.987188 
z
" style="fill:#36a2eb;opacity:0.5;stroke:#36a2eb;stroke-linejoin:miter;"/>
    </g>
    <g id="text_2">
     <!-- tabbar -->
     <defs>
      <path d="M 18.3125 70.21875 
L 18.3125 54.6875 
L 36.8125 54.6875 
L 36.8125 47.703125 
L 18.3125 47.703125 
L 18.3125 18.015625 
Q 18.3125 11.328125 20.140625 9.421875 
Q 21.96875 7.515625 27.59375 7.515625 
L 36.8125 7.515625 
L 36.8125 0 
L 27.59375 0 
Q 17.1875 0 13.234375 3.875 
Q 9.28125 7.765625 9.28125 18.015625 
L 9.28125 47.703125 
L 2.6875 47.703125 
L 2.6875 54.6875 
L 9.28125 54.6875 
L 9.28125 70.21875 
z
" id="DejaVuSans-116"/>
      <path d="M 34.28125 27.484375 
Q 23.390625 27.484375 19.1875 25 
Q 14.984375 22.515625 14.984375 16.5 
Q 14.984375 11.71875 18.140625 8.90625 
Q 21.296875 6.109375 26.703125 6.109375 
Q 34.1875 6.109375 38.703125 11.40625 
Q 43.21875 16.703125 43.21875 25.484375 
L 43.21875 27.484375 
z
M 52.203125 31.203125 
L 52.203125 0 
L 43.21875 0 
L 43.21875 8.296875 
Q 40.140625 3.328125 35.546875 0.953125 
Q 30.953125 -1.421875 24.3125 -1.421875 
Q 15.921875 -1.421875 10.953125 3.296875 
Q 6 8.015625 6 15.921875 
Q 6 25.140625 12.171875 29.828125 
Q 18.359375 34.515625 30.609375 34.515625 
L 43.21875 34.515625 
L 43.21875 35.40625 
Q 43.21875 41.609375 39.140625 45 
Q 35.0625 48.390625 27.6875 48.390625 
Q 23 48.390625 18.546875 47.265625 
Q 14.109375 46.140625 10.015625 43.890625 
L 10.015625 52.203125 
Q 14.9375 54.109375 19.578125 55.046875 
Q 24.21875 56 28.609375 56 
Q 40.484375 56 46.34375 49.84375 
Q 52.203125 43.703125 52.203125 31.203125 
z
" id="DejaVuSans-97"/>
      <path d="M 48.6875 27.296875 
Q 48.6875 37.203125 44.609375 42.84375 
Q 40.53125 48.484375 33.40625 48.484375 
Q 26.265625 48.484375 22.1875 42.84375 
Q 18.109375 37.203125 18.109375 27.296875 
Q 18.109375 17.390625 22.1875 11.75 
Q 26.265625 6.109375 33.40625 6.109375 
Q 40.53125 6.109375 44.609375 11.75 
Q 48.6875 17.390625 48.6875 27.296875 
z
M 18.109375 46.390625 
Q 20.953125 51.265625 25.265625 53.625 
Q 29.59375 56 35.59375 56 
Q 45.5625 56 51.78125 48.09375 
Q 58.015625 40.1875 58.015625 27.296875 
Q 58.015625 14.40625 51.78125 6.484375 
Q 45.5625 -1.421875 35.59375 -1.421875 
Q 29.59375 -1.421875 25.265625 0.953125 
Q 20.953125 3.328125 18.109375 8.203125 
L 18.109375 0 
L 9.078125 0 
L 9.078125 75.984375 
L 18.109375 75.984375 
z
" id="DejaVuSans-98"/>
      <path d="M 41.109375 46.296875 
Q 39.59375 47.171875 37.8125 47.578125 
Q 36.03125 48 33.890625 48 
Q 26.265625 48 22.1875 43.046875 
Q 18.109375 38.09375 18.109375 28.8125 
L 18.109375 0 
L 9.078125 0 
L 9.078125 54.6875 
L 18.109375 54.6875 
L 18.109375 46.1875 
Q 20.953125 51.171875 25.484375 53.578125 
Q 30.03125 56 36.53125 56 
Q 37.453125 56 38.578125 55.875 
Q 39.703125 55.765625 41.0625 55.515625 
z
" id="DejaVuSans-114"/>
     </defs>
     <g transform="translate(456.919063 79.787188)scale(0.14 -0.14)">
      <use xlink:href="#DejaVuSans-116"/>
      <use x="39.208984" xlink:href="#DejaVuSans-97"/>
      <use x="100.488281" xlink:href="#DejaVuSans-98"/>
      <use x="163.964844" xlink:href="#DejaVuSans-98"/>
      <use x="227.441406" xlink:href="#DejaVuSans-97"/>
      <use x="288.720703" xlink:href="#DejaVuSans-114"/>
     </g>
    </g>
   </g>
  </g>
  <g id="axes_2">
   <g id="patch_7">
    <path d="M 36 525.24 
L 538.2 525.24 
L 538.2 402.93 
L 36 402.93 
z
" style="fill:none;"/>
   </g>
   <g id="patch_8">
    <path clip-path="url(#pf8e029e68b)" d="M 262.716291 519.680455 
L 428.893008 519.680455 
L 428.893008 482.616818 
L 262.716291 482.616818 
z
" style="fill:#ff6384;opacity:0.5;"/>
   </g>
   <g id="patch_9">
    <path clip-path="url(#pf8e029e68b)" d="M 159.307627 445.553182 
L 352.387524 445.553182 
L 352.387524 408.489545 
L 159.307627 408.489545 
z
" style="fill:#36a2eb;opacity:0.5;"/>
   </g>
   <g id="matplotlib.axis_1">
    <g id="xtick_1">
     <g id="line2d_3">
      <defs>
       <path d="M 0 0 
L 0 3.5 
" id="m0a5cf34fdb" style="stroke:#000000;stroke-width:0.8;"/>
      </defs>
      <g>
       <use style="stroke:#000000;stroke-width:0.8;" x="114.703125" xlink:href="#m0a5cf34fdb" y="525.24"/>
      </g>
     </g>
     <g id="text_3">
      <!-- 3.4 -->
      <defs>
       <path d="M 40.578125 39.3125 
Q 47.65625 37.796875 51.625 33 
Q 55.609375 28.21875 55.609375 21.1875 
Q 55.609375 10.40625 48.1875 4.484375 
Q 40.765625 -1.421875 27.09375 -1.421875 
Q 22.515625 -1.421875 17.65625 -0.515625 
Q 12.796875 0.390625 7.625 2.203125 
L 7.625 11.71875 
Q 11.71875 9.328125 16.59375 8.109375 
Q 21.484375 6.890625 26.8125 6.890625 
Q 36.078125 6.890625 40.9375 10.546875 
Q 45.796875 14.203125 45.796875 21.1875 
Q 45.796875 27.640625 41.28125 31.265625 
Q 36.765625 34.90625 28.71875 34.90625 
L 20.21875 34.90625 
L 20.21875 43.015625 
L 29.109375 43.015625 
Q 36.375 43.015625 40.234375 45.921875 
Q 44.09375 48.828125 44.09375 54.296875 
Q 44.09375 59.90625 40.109375 62.90625 
Q 36.140625 65.921875 28.71875 65.921875 
Q 24.65625 65.921875 20.015625 65.03125 
Q 15.375 64.15625 9.8125 62.3125 
L 9.8125 71.09375 
Q 15.4375 72.65625 20.34375 73.4375 
Q 25.25 74.21875 29.59375 74.21875 
Q 40.828125 74.21875 47.359375 69.109375 
Q 53.90625 64.015625 53.90625 55.328125 
Q 53.90625 49.265625 50.4375 45.09375 
Q 46.96875 40.921875 40.578125 39.3125 
z
" id="DejaVuSans-51"/>
       <path d="M 10.6875 12.40625 
L 21 12.40625 
L 21 0 
L 10.6875 0 
z
" id="DejaVuSans-46"/>
       <path d="M 37.796875 64.3125 
L 12.890625 25.390625 
L 37.796875 25.390625 
z
M 35.203125 72.90625 
L 47.609375 72.90625 
L 47.609375 25.390625 
L 58.015625 25.390625 
L 58.015625 17.1875 
L 47.609375 17.1875 
L 47.609375 0 
L 37.796875 0 
L 37.796875 17.1875 
L 4.890625 17.1875 
L 4.890625 26.703125 
z
" id="DejaVuSans-52"/>
      </defs>
      <g transform="translate(103.570938 542.877813)scale(0.14 -0.14)">
       <use xlink:href="#DejaVuSans-51"/>
       <use x="63.623047" xlink:href="#DejaVuSans-46"/>
       <use x="95.410156" xlink:href="#DejaVuSans-52"/>
      </g>
     </g>
    </g>
    <g id="xtick_2">
     <g id="line2d_4">
      <g>
       <use style="stroke:#000000;stroke-width:0.8;" x="209.494562" xlink:href="#m0a5cf34fdb" y="525.24"/>
      </g>
     </g>
     <g id="text_4">
      <!-- 3.5 -->
      <defs>
       <path d="M 10.796875 72.90625 
L 49.515625 72.90625 
L 49.515625 64.59375 
L 19.828125 64.59375 
L 19.828125 46.734375 
Q 21.96875 47.46875 24.109375 47.828125 
Q 26.265625 48.1875 28.421875 48.1875 
Q 40.625 48.1875 47.75 41.5 
Q 54.890625 34.8125 54.890625 23.390625 
Q 54.890625 11.625 47.5625 5.09375 
Q 40.234375 -1.421875 26.90625 -1.421875 
Q 22.3125 -1.421875 17.546875 -0.640625 
Q 12.796875 0.140625 7.71875 1.703125 
L 7.71875 11.625 
Q 12.109375 9.234375 16.796875 8.0625 
Q 21.484375 6.890625 26.703125 6.890625 
Q 35.15625 6.890625 40.078125 11.328125 
Q 45.015625 15.765625 45.015625 23.390625 
Q 45.015625 31 40.078125 35.4375 
Q 35.15625 39.890625 26.703125 39.890625 
Q 22.75 39.890625 18.8125 39.015625 
Q 14.890625 38.140625 10.796875 36.28125 
z
" id="DejaVuSans-53"/>
      </defs>
      <g transform="translate(198.362375 542.877813)scale(0.14 -0.14)">
       <use xlink:href="#DejaVuSans-51"/>
       <use x="63.623047" xlink:href="#DejaVuSans-46"/>
       <use x="95.410156" xlink:href="#DejaVuSans-53"/>
      </g>
     </g>
    </g>
    <g id="xtick_3">
     <g id="line2d_5">
      <g>
       <use style="stroke:#000000;stroke-width:0.8;" x="304.286" xlink:href="#m0a5cf34fdb" y="525.24"/>
      </g>
     </g>
     <g id="text_5">
      <!-- 3.6 -->
      <defs>
       <path d="M 33.015625 40.375 
Q 26.375 40.375 22.484375 35.828125 
Q 18.609375 31.296875 18.609375 23.390625 
Q 18.609375 15.53125 22.484375 10.953125 
Q 26.375 6.390625 33.015625 6.390625 
Q 39.65625 6.390625 43.53125 10.953125 
Q 47.40625 15.53125 47.40625 23.390625 
Q 47.40625 31.296875 43.53125 35.828125 
Q 39.65625 40.375 33.015625 40.375 
z
M 52.59375 71.296875 
L 52.59375 62.3125 
Q 48.875 64.0625 45.09375 64.984375 
Q 41.3125 65.921875 37.59375 65.921875 
Q 27.828125 65.921875 22.671875 59.328125 
Q 17.53125 52.734375 16.796875 39.40625 
Q 19.671875 43.65625 24.015625 45.921875 
Q 28.375 48.1875 33.59375 48.1875 
Q 44.578125 48.1875 50.953125 41.515625 
Q 57.328125 34.859375 57.328125 23.390625 
Q 57.328125 12.15625 50.6875 5.359375 
Q 44.046875 -1.421875 33.015625 -1.421875 
Q 20.359375 -1.421875 13.671875 8.265625 
Q 6.984375 17.96875 6.984375 36.375 
Q 6.984375 53.65625 15.1875 63.9375 
Q 23.390625 74.21875 37.203125 74.21875 
Q 40.921875 74.21875 44.703125 73.484375 
Q 48.484375 72.75 52.59375 71.296875 
z
" id="DejaVuSans-54"/>
      </defs>
      <g transform="translate(293.153812 542.877813)scale(0.14 -0.14)">
       <use xlink:href="#DejaVuSans-51"/>
       <use x="63.623047" xlink:href="#DejaVuSans-46"/>
       <use x="95.410156" xlink:href="#DejaVuSans-54"/>
      </g>
     </g>
    </g>
    <g id="xtick_4">
     <g id="line2d_6">
      <g>
       <use style="stroke:#000000;stroke-width:0.8;" x="399.077437" xlink:href="#m0a5cf34fdb" y="525.24"/>
      </g>
     </g>
     <g id="text_6">
      <!-- 3.7 -->
      <defs>
       <path d="M 8.203125 72.90625 
L 55.078125 72.90625 
L 55.078125 68.703125 
L 28.609375 0 
L 18.3125 0 
L 43.21875 64.59375 
L 8.203125 64.59375 
z
" id="DejaVuSans-55"/>
      </defs>
      <g transform="translate(387.94525 542.877813)scale(0.14 -0.14)">
       <use xlink:href="#DejaVuSans-51"/>
       <use x="63.623047" xlink:href="#DejaVuSans-46"/>
       <use x="95.410156" xlink:href="#DejaVuSans-55"/>
      </g>
     </g>
    </g>
    <g id="xtick_5">
     <g id="line2d_7">
      <g>
       <use style="stroke:#000000;stroke-width:0.8;" x="493.868874" xlink:href="#m0a5cf34fdb" y="525.24"/>
      </g>
     </g>
     <g id="text_7">
      <!-- 3.8 -->
      <defs>
       <path d="M 31.78125 34.625 
Q 24.75 34.625 20.71875 30.859375 
Q 16.703125 27.09375 16.703125 20.515625 
Q 16.703125 13.921875 20.71875 10.15625 
Q 24.75 6.390625 31.78125 6.390625 
Q 38.8125 6.390625 42.859375 10.171875 
Q 46.921875 13.96875 46.921875 20.515625 
Q 46.921875 27.09375 42.890625 30.859375 
Q 38.875 34.625 31.78125 34.625 
z
M 21.921875 38.8125 
Q 15.578125 40.375 12.03125 44.71875 
Q 8.5 49.078125 8.5 55.328125 
Q 8.5 64.0625 14.71875 69.140625 
Q 20.953125 74.21875 31.78125 74.21875 
Q 42.671875 74.21875 48.875 69.140625 
Q 55.078125 64.0625 55.078125 55.328125 
Q 55.078125 49.078125 51.53125 44.71875 
Q 48 40.375 41.703125 38.8125 
Q 48.828125 37.15625 52.796875 32.3125 
Q 56.78125 27.484375 56.78125 20.515625 
Q 56.78125 9.90625 50.3125 4.234375 
Q 43.84375 -1.421875 31.78125 -1.421875 
Q 19.734375 -1.421875 13.25 4.234375 
Q 6.78125 9.90625 6.78125 20.515625 
Q 6.78125 27.484375 10.78125 32.3125 
Q 14.796875 37.15625 21.921875 38.8125 
z
M 18.3125 54.390625 
Q 18.3125 48.734375 21.84375 45.5625 
Q 25.390625 42.390625 31.78125 42.390625 
Q 38.140625 42.390625 41.71875 45.5625 
Q 45.3125 48.734375 45.3125 54.390625 
Q 45.3125 60.0625 41.71875 63.234375 
Q 38.140625 66.40625 31.78125 66.40625 
Q 25.390625 66.40625 21.84375 63.234375 
Q 18.3125 60.0625 18.3125 54.390625 
z
" id="DejaVuSans-56"/>
      </defs>
      <g transform="translate(482.736687 542.877813)scale(0.14 -0.14)">
       <use xlink:href="#DejaVuSans-51"/>
       <use x="63.623047" xlink:href="#DejaVuSans-46"/>
       <use x="95.410156" xlink:href="#DejaVuSans-56"/>
      </g>
     </g>
    </g>
   </g>
   <g id="line2d_8">
    <path clip-path="url(#pf8e029e68b)" d="M 345.804649 525.24 
L 345.804649 402.93 
" style="fill:none;stroke:#ff6384;stroke-dasharray:5.55,2.4;stroke-dashoffset:0;stroke-opacity:0.8;stroke-width:1.5;"/>
   </g>
   <g id="line2d_9">
    <path clip-path="url(#pf8e029e68b)" d="M 255.847575 525.24 
L 255.847575 402.93 
" style="fill:none;stroke:#36a2eb;stroke-dasharray:5.55,2.4;stroke-dashoffset:0;stroke-opacity:0.8;stroke-width:1.5;"/>
   </g>
   <g id="patch_10">
    <path d="M 36 525.24 
L 538.2 525.24 
" style="fill:none;stroke:#000000;stroke-linecap:square;stroke-linejoin:miter;stroke-width:0.8;"/>
   </g>
  </g>
 </g>
 <defs>
  <clipPath id="pbe62325c07">
   <rect height="366.93" width="502.2" x="36" y="36"/>
  </clipPath>
  <clipPath id="pf8e029e68b">
   <rect height="122.31" width="502.2" x="36" y="402.93"/>
  </clipPath>
 </defs>
</svg>
