<?xml version="1.0" encoding="utf-8" standalone="no"?>
<!DOCTYPE svg PUBLIC "-//W3C//DTD SVG 1.1//EN"
  "http://www.w3.org/Graphics/SVG/1.1/DTD/svg11.dtd">
<!-- Created with matplotlib (https://matplotlib.org/) -->
<svg height="581.789375pt" version="1.1" viewBox="0 0 574.2 581.789375" width="574.2pt" xmlns="http://www.w3.org/2000/svg" xmlns:xlink="http://www.w3.org/1999/xlink">
 <defs>
  <style type="text/css">
*{stroke-linecap:butt;stroke-linejoin:round;}
  </style>
 </defs>
 <g id="figure_1">
  <g id="patch_1">
   <path d="M 0 581.789375 
L 574.2 581.789375 
L 574.2 0 
L 0 0 
z
" style="fill:none;"/>
  </g>
  <g id="axes_1">
   <g id="patch_2">
    <path d="M 36 402.93 
L 538.2 402.93 
L 538.2 36 
L 36 36 
z
" style="fill:none;"/>
   </g>
   <g id="PolyCollection_1">
    <defs>
     <path d="M 171.524677 -195.538011 
L 171.524677 -195.650004 
L 174.997889 -195.692234 
L 178.471102 -195.749007 
L 181.944314 -195.8248 
L 185.417527 -195.925281 
L 188.89074 -196.057565 
L 192.363952 -196.230497 
L 195.837165 -196.454982 
L 199.310378 -196.744335 
L 202.78359 -197.114666 
L 206.256803 -197.585273 
L 209.730015 -198.179047 
L 213.203228 -198.922859 
L 216.676441 -199.847921 
L 220.149653 -200.990079 
L 223.622866 -202.390029 
L 227.096079 -204.093399 
L 230.569291 -206.150691 
L 234.042504 -208.617009 
L 237.515717 -211.551575 
L 240.988929 -215.016962 
L 244.462142 -219.078053 
L 247.935354 -223.800667 
L 251.408567 -229.249878 
L 254.88178 -235.488004 
L 258.354992 -242.572312 
L 261.828205 -250.552459 
L 265.301418 -259.467747 
L 268.77463 -269.344261 
L 272.247843 -280.192004 
L 275.721056 -292.002137 
L 279.194268 -304.744465 
L 282.667481 -318.365297 
L 286.140693 -332.785841 
L 289.613906 -347.901251 
L 293.087119 -363.580456 
L 296.560331 -379.666871 
L 300.033544 -395.980052 
L 303.506757 -412.31833 
L 306.979969 -428.4624 
L 310.453182 -444.179822 
L 313.926395 -459.230303 
L 317.399607 -473.371627 
L 320.87282 -486.366018 
L 324.346032 -497.986726 
L 327.819245 -508.02457 
L 331.292458 -516.294181 
L 334.76567 -522.639693 
L 338.238883 -526.939623 
L 341.712096 -529.110739 
L 345.185308 -529.110739 
L 348.658521 -526.939623 
L 352.131733 -522.639693 
L 355.604946 -516.294181 
L 359.078159 -508.02457 
L 362.551371 -497.986726 
L 366.024584 -486.366018 
L 369.497797 -473.371627 
L 372.971009 -459.230303 
L 376.444222 -444.179822 
L 379.917435 -428.4624 
L 383.390647 -412.31833 
L 386.86386 -395.980052 
L 390.337072 -379.666871 
L 393.810285 -363.580456 
L 397.283498 -347.901251 
L 400.75671 -332.785841 
L 404.229923 -318.365297 
L 407.703136 -304.744465 
L 411.176348 -292.002137 
L 414.649561 -280.192004 
L 418.122774 -269.344261 
L 421.595986 -259.467747 
L 425.069199 -250.552459 
L 428.542411 -242.572312 
L 432.015624 -235.488004 
L 435.488837 -229.249878 
L 438.962049 -223.800667 
L 442.435262 -219.078053 
L 445.908475 -215.016962 
L 449.381687 -211.551575 
L 452.8549 -208.617009 
L 456.328112 -206.150691 
L 459.801325 -204.093399 
L 463.274538 -202.390029 
L 466.74775 -200.990079 
L 470.220963 -199.847921 
L 473.694176 -198.922859 
L 477.167388 -198.179047 
L 480.640601 -197.585273 
L 484.113814 -197.114666 
L 487.587026 -196.744335 
L 491.060239 -196.454982 
L 494.533451 -196.230497 
L 498.006664 -196.057565 
L 501.479877 -195.925281 
L 504.953089 -195.8248 
L 508.426302 -195.749007 
L 511.899515 -195.692234 
L 515.372727 -195.650004 
L 515.372727 -195.538011 
L 515.372727 -195.538011 
L 511.899515 -195.538011 
L 508.426302 -195.538011 
L 504.953089 -195.538011 
L 501.479877 -195.538011 
L 498.006664 -195.538011 
L 494.533451 -195.538011 
L 491.060239 -195.538011 
L 487.587026 -195.538011 
L 484.113814 -195.538011 
L 480.640601 -195.538011 
L 477.167388 -195.538011 
L 473.694176 -195.538011 
L 470.220963 -195.538011 
L 466.74775 -195.538011 
L 463.274538 -195.538011 
L 459.801325 -195.538011 
L 456.328112 -195.538011 
L 452.8549 -195.538011 
L 449.381687 -195.538011 
L 445.908475 -195.538011 
L 442.435262 -195.538011 
L 438.962049 -195.538011 
L 435.488837 -195.538011 
L 432.015624 -195.538011 
L 428.542411 -195.538011 
L 425.069199 -195.538011 
L 421.595986 -195.538011 
L 418.122774 -195.538011 
L 414.649561 -195.538011 
L 411.176348 -195.538011 
L 407.703136 -195.538011 
L 404.229923 -195.538011 
L 400.75671 -195.538011 
L 397.283498 -195.538011 
L 393.810285 -195.538011 
L 390.337072 -195.538011 
L 386.86386 -195.538011 
L 383.390647 -195.538011 
L 379.917435 -195.538011 
L 376.444222 -195.538011 
L 372.971009 -195.538011 
L 369.497797 -195.538011 
L 366.024584 -195.538011 
L 362.551371 -195.538011 
L 359.078159 -195.538011 
L 355.604946 -195.538011 
L 352.131733 -195.538011 
L 348.658521 -195.538011 
L 345.185308 -195.538011 
L 341.712096 -195.538011 
L 338.238883 -195.538011 
L 334.76567 -195.538011 
L 331.292458 -195.538011 
L 327.819245 -195.538011 
L 324.346032 -195.538011 
L 320.87282 -195.538011 
L 317.399607 -195.538011 
L 313.926395 -195.538011 
L 310.453182 -195.538011 
L 306.979969 -195.538011 
L 303.506757 -195.538011 
L 300.033544 -195.538011 
L 296.560331 -195.538011 
L 293.087119 -195.538011 
L 289.613906 -195.538011 
L 286.140693 -195.538011 
L 282.667481 -195.538011 
L 279.194268 -195.538011 
L 275.721056 -195.538011 
L 272.247843 -195.538011 
L 268.77463 -195.538011 
L 265.301418 -195.538011 
L 261.828205 -195.538011 
L 258.354992 -195.538011 
L 254.88178 -195.538011 
L 251.408567 -195.538011 
L 247.935354 -195.538011 
L 244.462142 -195.538011 
L 240.988929 -195.538011 
L 237.515717 -195.538011 
L 234.042504 -195.538011 
L 230.569291 -195.538011 
L 227.096079 -195.538011 
L 223.622866 -195.538011 
L 220.149653 -195.538011 
L 216.676441 -195.538011 
L 213.203228 -195.538011 
L 209.730015 -195.538011 
L 206.256803 -195.538011 
L 202.78359 -195.538011 
L 199.310378 -195.538011 
L 195.837165 -195.538011 
L 192.363952 -195.538011 
L 188.89074 -195.538011 
L 185.417527 -195.538011 
L 181.944314 -195.538011 
L 178.471102 -195.538011 
L 174.997889 -195.538011 
L 171.524677 -195.538011 
z
" id="m99e945deed" style="stroke:#ff6384;stroke-opacity:0.5;"/>
    </defs>
    <g clip-path="url(#pae6fb781bc)">
     <use style="fill:#ff6384;fill-opacity:0.5;stroke:#ff6384;stroke-opacity:0.5;" x="0" xlink:href="#m99e945deed" y="581.789375"/>
    </g>
   </g>
   <g id="PolyCollection_2">
    <defs>
     <path d="M 58.827273 -195.538011 
L 58.827273 -195.634399 
L 62.862781 -195.670745 
L 66.89829 -195.719607 
L 70.933798 -195.78484 
L 74.969306 -195.87132 
L 79.004815 -195.985172 
L 83.040323 -196.134008 
L 87.075832 -196.327214 
L 91.11134 -196.57625 
L 95.146848 -196.89498 
L 99.182357 -197.300014 
L 103.217865 -197.811053 
L 107.253374 -198.451224 
L 111.288882 -199.247391 
L 115.32439 -200.230404 
L 119.359899 -201.435289 
L 123.395407 -202.901317 
L 127.430916 -204.671952 
L 131.466424 -206.794621 
L 135.501932 -209.320292 
L 139.537441 -212.302823 
L 143.572949 -215.798053 
L 147.608458 -219.862633 
L 151.643966 -224.552566 
L 155.679474 -229.921491 
L 159.714983 -236.018692 
L 163.750491 -242.886909 
L 167.786 -250.559967 
L 171.821508 -259.060317 
L 175.857017 -268.396567 
L 179.892525 -278.561112 
L 183.928033 -289.527962 
L 187.963542 -301.250907 
L 191.99905 -313.662136 
L 196.034559 -326.671409 
L 200.070067 -340.16592 
L 204.105575 -354.010902 
L 208.141084 -368.051053 
L 212.176592 -382.112803 
L 216.212101 -396.007406 
L 220.247609 -409.534809 
L 224.283117 -422.488201 
L 228.318626 -434.659115 
L 232.354134 -445.842906 
L 236.389643 -455.844419 
L 240.425151 -464.483619 
L 244.460659 -471.600968 
L 248.496168 -477.062315 
L 252.531676 -480.763105 
L 256.567185 -482.631704 
L 260.602693 -482.631704 
L 264.638201 -480.763105 
L 268.67371 -477.062315 
L 272.709218 -471.600968 
L 276.744727 -464.483619 
L 280.780235 -455.844419 
L 284.815743 -445.842906 
L 288.851252 -434.659115 
L 292.88676 -422.488201 
L 296.922269 -409.534809 
L 300.957777 -396.007406 
L 304.993286 -382.112803 
L 309.028794 -368.051053 
L 313.064302 -354.010902 
L 317.099811 -340.16592 
L 321.135319 -326.671409 
L 325.170828 -313.662136 
L 329.206336 -301.250907 
L 333.241844 -289.527962 
L 337.277353 -278.561112 
L 341.312861 -268.396567 
L 345.34837 -259.060317 
L 349.383878 -250.559967 
L 353.419386 -242.886909 
L 357.454895 -236.018692 
L 361.490403 -229.921491 
L 365.525912 -224.552566 
L 369.56142 -219.862633 
L 373.596928 -215.798053 
L 377.632437 -212.302823 
L 381.667945 -209.320292 
L 385.703454 -206.794621 
L 389.738962 -204.671952 
L 393.77447 -202.901317 
L 397.809979 -201.435289 
L 401.845487 -200.230404 
L 405.880996 -199.247391 
L 409.916504 -198.451224 
L 413.952013 -197.811053 
L 417.987521 -197.300014 
L 422.023029 -196.89498 
L 426.058538 -196.57625 
L 430.094046 -196.327214 
L 434.129555 -196.134008 
L 438.165063 -195.985172 
L 442.200571 -195.87132 
L 446.23608 -195.78484 
L 450.271588 -195.719607 
L 454.307097 -195.670745 
L 458.342605 -195.634399 
L 458.342605 -195.538011 
L 458.342605 -195.538011 
L 454.307097 -195.538011 
L 450.271588 -195.538011 
L 446.23608 -195.538011 
L 442.200571 -195.538011 
L 438.165063 -195.538011 
L 434.129555 -195.538011 
L 430.094046 -195.538011 
L 426.058538 -195.538011 
L 422.023029 -195.538011 
L 417.987521 -195.538011 
L 413.952013 -195.538011 
L 409.916504 -195.538011 
L 405.880996 -195.538011 
L 401.845487 -195.538011 
L 397.809979 -195.538011 
L 393.77447 -195.538011 
L 389.738962 -195.538011 
L 385.703454 -195.538011 
L 381.667945 -195.538011 
L 377.632437 -195.538011 
L 373.596928 -195.538011 
L 369.56142 -195.538011 
L 365.525912 -195.538011 
L 361.490403 -195.538011 
L 357.454895 -195.538011 
L 353.419386 -195.538011 
L 349.383878 -195.538011 
L 345.34837 -195.538011 
L 341.312861 -195.538011 
L 337.277353 -195.538011 
L 333.241844 -195.538011 
L 329.206336 -195.538011 
L 325.170828 -195.538011 
L 321.135319 -195.538011 
L 317.099811 -195.538011 
L 313.064302 -195.538011 
L 309.028794 -195.538011 
L 304.993286 -195.538011 
L 300.957777 -195.538011 
L 296.922269 -195.538011 
L 292.88676 -195.538011 
L 288.851252 -195.538011 
L 284.815743 -195.538011 
L 280.780235 -195.538011 
L 276.744727 -195.538011 
L 272.709218 -195.538011 
L 268.67371 -195.538011 
L 264.638201 -195.538011 
L 260.602693 -195.538011 
L 256.567185 -195.538011 
L 252.531676 -195.538011 
L 248.496168 -195.538011 
L 244.460659 -195.538011 
L 240.425151 -195.538011 
L 236.389643 -195.538011 
L 232.354134 -195.538011 
L 228.318626 -195.538011 
L 224.283117 -195.538011 
L 220.247609 -195.538011 
L 216.212101 -195.538011 
L 212.176592 -195.538011 
L 208.141084 -195.538011 
L 204.105575 -195.538011 
L 200.070067 -195.538011 
L 196.034559 -195.538011 
L 191.99905 -195.538011 
L 187.963542 -195.538011 
L 183.928033 -195.538011 
L 179.892525 -195.538011 
L 175.857017 -195.538011 
L 171.821508 -195.538011 
L 167.786 -195.538011 
L 163.750491 -195.538011 
L 159.714983 -195.538011 
L 155.679474 -195.538011 
L 151.643966 -195.538011 
L 147.608458 -195.538011 
L 143.572949 -195.538011 
L 139.537441 -195.538011 
L 135.501932 -195.538011 
L 131.466424 -195.538011 
L 127.430916 -195.538011 
L 123.395407 -195.538011 
L 119.359899 -195.538011 
L 115.32439 -195.538011 
L 111.288882 -195.538011 
L 107.253374 -195.538011 
L 103.217865 -195.538011 
L 99.182357 -195.538011 
L 95.146848 -195.538011 
L 91.11134 -195.538011 
L 87.075832 -195.538011 
L 83.040323 -195.538011 
L 79.004815 -195.538011 
L 74.969306 -195.538011 
L 70.933798 -195.538011 
L 66.89829 -195.538011 
L 62.862781 -195.538011 
L 58.827273 -195.538011 
z
" id="mb18d4ed4a4" style="stroke:#36a2eb;stroke-opacity:0.5;"/>
    </defs>
    <g clip-path="url(#pae6fb781bc)">
     <use style="fill:#36a2eb;fill-opacity:0.5;stroke:#36a2eb;stroke-opacity:0.5;" x="0" xlink:href="#mb18d4ed4a4" y="581.789375"/>
    </g>
   </g>
   <g id="line2d_1">
    <path clip-path="url(#pae6fb781bc)" d="M 171.524677 386.139371 
L 174.997889 386.097141 
L 178.471102 386.040368 
L 181.944314 385.964575 
L 185.417527 385.864094 
L 188.89074 385.73181 
L 192.363952 385.558878 
L 195.837165 385.334393 
L 199.310378 385.04504 
L 202.78359 384.674709 
L 206.256803 384.204102 
L 209.730015 383.610328 
L 213.203228 382.866516 
L 216.676441 381.941454 
L 220.149653 380.799296 
L 223.622866 379.399346 
L 227.096079 377.695976 
L 230.569291 375.638684 
L 234.042504 373.172366 
L 237.515717 370.2378 
L 240.988929 366.772413 
L 244.462142 362.711322 
L 247.935354 357.988708 
L 251.408567 352.539497 
L 254.88178 346.301371 
L 258.354992 339.217063 
L 261.828205 331.236916 
L 265.301418 322.321628 
L 268.77463 312.445114 
L 272.247843 301.597371 
L 275.721056 289.787238 
L 279.194268 277.04491 
L 282.667481 263.424078 
L 286.140693 249.003534 
L 289.613906 233.888124 
L 293.087119 218.208919 
L 296.560331 202.122504 
L 300.033544 185.809323 
L 303.506757 169.471045 
L 306.979969 153.326975 
L 310.453182 137.609553 
L 313.926395 122.559072 
L 317.399607 108.417748 
L 320.87282 95.423357 
L 324.346032 83.802649 
L 327.819245 73.764805 
L 331.292458 65.495194 
L 334.76567 59.149682 
L 338.238883 54.849752 
L 341.712096 52.678636 
L 345.185308 52.678636 
L 348.658521 54.849752 
L 352.131733 59.149682 
L 355.604946 65.495194 
L 359.078159 73.764805 
L 362.551371 83.802649 
L 366.024584 95.423357 
L 369.497797 108.417748 
L 372.971009 122.559072 
L 376.444222 137.609553 
L 379.917435 153.326975 
L 383.390647 169.471045 
L 386.86386 185.809323 
L 390.337072 202.122504 
L 393.810285 218.208919 
L 397.283498 233.888124 
L 400.75671 249.003534 
L 404.229923 263.424078 
L 407.703136 277.04491 
L 411.176348 289.787238 
L 414.649561 301.597371 
L 418.122774 312.445114 
L 421.595986 322.321628 
L 425.069199 331.236916 
L 428.542411 339.217063 
L 432.015624 346.301371 
L 435.488837 352.539497 
L 438.962049 357.988708 
L 442.435262 362.711322 
L 445.908475 366.772413 
L 449.381687 370.2378 
L 452.8549 373.172366 
L 456.328112 375.638684 
L 459.801325 377.695976 
L 463.274538 379.399346 
L 466.74775 380.799296 
L 470.220963 381.941454 
L 473.694176 382.866516 
L 477.167388 383.610328 
L 480.640601 384.204102 
L 484.113814 384.674709 
L 487.587026 385.04504 
L 491.060239 385.334393 
L 494.533451 385.558878 
L 498.006664 385.73181 
L 501.479877 385.864094 
L 504.953089 385.964575 
L 508.426302 386.040368 
L 511.899515 386.097141 
L 515.372727 386.139371 
" style="fill:none;stroke:#ff6384;stroke-linecap:square;"/>
   </g>
   <g id="line2d_2">
    <path clip-path="url(#pae6fb781bc)" d="M 58.827273 386.154976 
L 62.862781 386.11863 
L 66.89829 386.069768 
L 70.933798 386.004535 
L 74.969306 385.918055 
L 79.004815 385.804203 
L 83.040323 385.655367 
L 87.075832 385.462161 
L 91.11134 385.213125 
L 95.146848 384.894395 
L 99.182357 384.489361 
L 103.217865 383.978322 
L 107.253374 383.338151 
L 111.288882 382.541984 
L 115.32439 381.558971 
L 119.359899 380.354086 
L 123.395407 378.888058 
L 127.430916 377.117423 
L 131.466424 374.994754 
L 135.501932 372.469083 
L 139.537441 369.486552 
L 143.572949 365.991322 
L 147.608458 361.926742 
L 151.643966 357.236809 
L 155.679474 351.867884 
L 159.714983 345.770683 
L 163.750491 338.902466 
L 167.786 331.229408 
L 171.821508 322.729058 
L 175.857017 313.392808 
L 179.892525 303.228263 
L 183.928033 292.261413 
L 187.963542 280.538468 
L 191.99905 268.127239 
L 196.034559 255.117966 
L 200.070067 241.623455 
L 204.105575 227.778473 
L 208.141084 213.738322 
L 212.176592 199.676572 
L 216.212101 185.781969 
L 220.247609 172.254566 
L 224.283117 159.301174 
L 228.318626 147.13026 
L 232.354134 135.946469 
L 236.389643 125.944956 
L 240.425151 117.305756 
L 244.460659 110.188407 
L 248.496168 104.72706 
L 252.531676 101.02627 
L 256.567185 99.157671 
L 260.602693 99.157671 
L 264.638201 101.02627 
L 268.67371 104.72706 
L 272.709218 110.188407 
L 276.744727 117.305756 
L 280.780235 125.944956 
L 284.815743 135.946469 
L 288.851252 147.13026 
L 292.88676 159.301174 
L 296.922269 172.254566 
L 300.957777 185.781969 
L 304.993286 199.676572 
L 309.028794 213.738322 
L 313.064302 227.778473 
L 317.099811 241.623455 
L 321.135319 255.117966 
L 325.170828 268.127239 
L 329.206336 280.538468 
L 333.241844 292.261413 
L 337.277353 303.228263 
L 341.312861 313.392808 
L 345.34837 322.729058 
L 349.383878 331.229408 
L 353.419386 338.902466 
L 357.454895 345.770683 
L 361.490403 351.867884 
L 365.525912 357.236809 
L 369.56142 361.926742 
L 373.596928 365.991322 
L 377.632437 369.486552 
L 381.667945 372.469083 
L 385.703454 374.994754 
L 389.738962 377.117423 
L 393.77447 378.888058 
L 397.809979 380.354086 
L 401.845487 381.558971 
L 405.880996 382.541984 
L 409.916504 383.338151 
L 413.952013 383.978322 
L 417.987521 384.489361 
L 422.023029 384.894395 
L 426.058538 385.213125 
L 430.094046 385.462161 
L 434.129555 385.655367 
L 438.165063 385.804203 
L 442.200571 385.918055 
L 446.23608 386.004535 
L 450.271588 386.069768 
L 454.307097 386.11863 
L 458.342605 386.154976 
" style="fill:none;stroke:#36a2eb;stroke-linecap:square;"/>
   </g>
   <g id="patch_3">
    <path d="M 36 402.93 
L 538.2 402.93 
" style="fill:none;stroke:#000000;stroke-linecap:square;stroke-linejoin:miter;stroke-width:0.8;"/>
   </g>
   <g id="legend_1">
    <g id="patch_4">
     <path d="M 414.919063 88.29875 
L 528.4 88.29875 
Q 531.2 88.29875 531.2 85.49875 
L 531.2 45.8 
Q 531.2 43 528.4 43 
L 414.919063 43 
Q 412.119063 43 412.119063 45.8 
L 412.119063 85.49875 
Q 412.119063 88.29875 414.919063 88.29875 
z
" style="fill:#ffffff;opacity:0.8;stroke:#cccccc;stroke-linejoin:miter;"/>
    </g>
    <g id="patch_5">
     <path d="M 417.719063 59.237813 
L 445.719063 59.237813 
L 445.719063 49.437813 
L 417.719063 49.437813 
z
" style="fill:#ff6384;opacity:0.5;stroke:#ff6384;stroke-linejoin:miter;"/>
    </g>
    <g id="text_1">
     <!-- sidemenu -->
     <defs>
      <path d="M 44.28125 53.078125 
L 44.28125 44.578125 
Q 40.484375 46.53125 36.375 47.5 
Q 32.28125 48.484375 27.875 48.484375 
Q 21.1875 48.484375 17.84375 46.4375 
Q 14.5 44.390625 14.5 40.28125 
Q 14.5 37.15625 16.890625 35.375 
Q 19.28125 33.59375 26.515625 31.984375 
L 29.59375 31.296875 
Q 39.15625 29.25 43.1875 25.515625 
Q 47.21875 21.78125 47.21875 15.09375 
Q 47.21875 7.46875 41.1875 3.015625 
Q 35.15625 -1.421875 24.609375 -1.421875 
Q 20.21875 -1.421875 15.453125 -0.5625 
Q 10.6875 0.296875 5.421875 2 
L 5.421875 11.28125 
Q 10.40625 8.6875 15.234375 7.390625 
Q 20.0625 6.109375 24.8125 6.109375 
Q 31.15625 6.109375 34.5625 8.28125 
Q 37.984375 10.453125 37.984375 14.40625 
Q 37.984375 18.0625 35.515625 20.015625 
Q 33.0625 21.96875 24.703125 23.78125 
L 21.578125 24.515625 
Q 13.234375 26.265625 9.515625 29.90625 
Q 5.8125 33.546875 5.8125 39.890625 
Q 5.8125 47.609375 11.28125 51.796875 
Q 16.75 56 26.8125 56 
Q 31.78125 56 36.171875 55.265625 
Q 40.578125 54.546875 44.28125 53.078125 
z
" id="DejaVuSans-115"/>
      <path d="M 9.421875 54.6875 
L 18.40625 54.6875 
L 18.40625 0 
L 9.421875 0 
z
M 9.421875 75.984375 
L 18.40625 75.984375 
L 18.40625 64.59375 
L 9.421875 64.59375 
z
" id="DejaVuSans-105"/>
      <path d="M 45.40625 46.390625 
L 45.40625 75.984375 
L 54.390625 75.984375 
L 54.390625 0 
L 45.40625 0 
L 45.40625 8.203125 
Q 42.578125 3.328125 38.25 0.953125 
Q 33.9375 -1.421875 27.875 -1.421875 
Q 17.96875 -1.421875 11.734375 6.484375 
Q 5.515625 14.40625 5.515625 27.296875 
Q 5.515625 40.1875 11.734375 48.09375 
Q 17.96875 56 27.875 56 
Q 33.9375 56 38.25 53.625 
Q 42.578125 51.265625 45.40625 46.390625 
z
M 14.796875 27.296875 
Q 14.796875 17.390625 18.875 11.75 
Q 22.953125 6.109375 30.078125 6.109375 
Q 37.203125 6.109375 41.296875 11.75 
Q 45.40625 17.390625 45.40625 27.296875 
Q 45.40625 37.203125 41.296875 42.84375 
Q 37.203125 48.484375 30.078125 48.484375 
Q 22.953125 48.484375 18.875 42.84375 
Q 14.796875 37.203125 14.796875 27.296875 
z
" id="DejaVuSans-100"/>
      <path d="M 56.203125 29.59375 
L 56.203125 25.203125 
L 14.890625 25.203125 
Q 15.484375 15.921875 20.484375 11.0625 
Q 25.484375 6.203125 34.421875 6.203125 
Q 39.59375 6.203125 44.453125 7.46875 
Q 49.3125 8.734375 54.109375 11.28125 
L 54.109375 2.78125 
Q 49.265625 0.734375 44.1875 -0.34375 
Q 39.109375 -1.421875 33.890625 -1.421875 
Q 20.796875 -1.421875 13.15625 6.1875 
Q 5.515625 13.8125 5.515625 26.8125 
Q 5.515625 40.234375 12.765625 48.109375 
Q 20.015625 56 32.328125 56 
Q 43.359375 56 49.78125 48.890625 
Q 56.203125 41.796875 56.203125 29.59375 
z
M 47.21875 32.234375 
Q 47.125 39.59375 43.09375 43.984375 
Q 39.0625 48.390625 32.421875 48.390625 
Q 24.90625 48.390625 20.390625 44.140625 
Q 15.875 39.890625 15.1875 32.171875 
z
" id="DejaVuSans-101"/>
      <path d="M 52 44.1875 
Q 55.375 50.25 60.0625 53.125 
Q 64.75 56 71.09375 56 
Q 79.640625 56 84.28125 50.015625 
Q 88.921875 44.046875 88.921875 33.015625 
L 88.921875 0 
L 79.890625 0 
L 79.890625 32.71875 
Q 79.890625 40.578125 77.09375 44.375 
Q 74.3125 48.1875 68.609375 48.1875 
Q 61.625 48.1875 57.5625 43.546875 
Q 53.515625 38.921875 53.515625 30.90625 
L 53.515625 0 
L 44.484375 0 
L 44.484375 32.71875 
Q 44.484375 40.625 41.703125 44.40625 
Q 38.921875 48.1875 33.109375 48.1875 
Q 26.21875 48.1875 22.15625 43.53125 
Q 18.109375 38.875 18.109375 30.90625 
L 18.109375 0 
L 9.078125 0 
L 9.078125 54.6875 
L 18.109375 54.6875 
L 18.109375 46.1875 
Q 21.1875 51.21875 25.484375 53.609375 
Q 29.78125 56 35.6875 56 
Q 41.65625 56 45.828125 52.96875 
Q 50 49.953125 52 44.1875 
z
" id="DejaVuSans-109"/>
      <path d="M 54.890625 33.015625 
L 54.890625 0 
L 45.90625 0 
L 45.90625 32.71875 
Q 45.90625 40.484375 42.875 44.328125 
Q 39.84375 48.1875 33.796875 48.1875 
Q 26.515625 48.1875 22.3125 43.546875 
Q 18.109375 38.921875 18.109375 30.90625 
L 18.109375 0 
L 9.078125 0 
L 9.078125 54.6875 
L 18.109375 54.6875 
L 18.109375 46.1875 
Q 21.34375 51.125 25.703125 53.5625 
Q 30.078125 56 35.796875 56 
Q 45.21875 56 50.046875 50.171875 
Q 54.890625 44.34375 54.890625 33.015625 
z
" id="DejaVuSans-110"/>
      <path d="M 8.5 21.578125 
L 8.5 54.6875 
L 17.484375 54.6875 
L 17.484375 21.921875 
Q 17.484375 14.15625 20.5 10.265625 
Q 23.53125 6.390625 29.59375 6.390625 
Q 36.859375 6.390625 41.078125 11.03125 
Q 45.3125 15.671875 45.3125 23.6875 
L 45.3125 54.6875 
L 54.296875 54.6875 
L 54.296875 0 
L 45.3125 0 
L 45.3125 8.40625 
Q 42.046875 3.421875 37.71875 1 
Q 33.40625 -1.421875 27.6875 -1.421875 
Q 18.265625 -1.421875 13.375 4.4375 
Q 8.5 10.296875 8.5 21.578125 
z
M 31.109375 56 
z
" id="DejaVuSans-117"/>
     </defs>
     <g transform="translate(456.919063 59.237813)scale(0.14 -0.14)">
      <use xlink:href="#DejaVuSans-115"/>
      <use x="52.099609" xlink:href="#DejaVuSans-105"/>
      <use x="79.882812" xlink:href="#DejaVuSans-100"/>
      <use x="143.359375" xlink:href="#DejaVuSans-101"/>
      <use x="204.882812" xlink:href="#DejaVuSans-109"/>
      <use x="302.294922" xlink:href="#DejaVuSans-101"/>
      <use x="363.818359" xlink:href="#DejaVuSans-110"/>
      <use x="427.197266" xlink:href="#DejaVuSans-117"/>
     </g>
    </g>
    <g id="patch_6">
     <path d="M 417.719063 79.787188 
L 445.719063 79.787188 
L 445.719063 69.987188 
L 417.719063 69.987188 
z
" style="fill:#36a2eb;opacity:0.5;stroke:#36a2eb;stroke-linejoin:miter;"/>
    </g>
    <g id="text_2">
     <!-- tabbar -->
     <defs>
      <path d="M 18.3125 70.21875 
L 18.3125 54.6875 
L 36.8125 54.6875 
L 36.8125 47.703125 
L 18.3125 47.703125 
L 18.3125 18.015625 
Q 18.3125 11.328125 20.140625 9.421875 
Q 21.96875 7.515625 27.59375 7.515625 
L 36.8125 7.515625 
L 36.8125 0 
L 27.59375 0 
Q 17.1875 0 13.234375 3.875 
Q 9.28125 7.765625 9.28125 18.015625 
L 9.28125 47.703125 
L 2.6875 47.703125 
L 2.6875 54.6875 
L 9.28125 54.6875 
L 9.28125 70.21875 
z
" id="DejaVuSans-116"/>
      <path d="M 34.28125 27.484375 
Q 23.390625 27.484375 19.1875 25 
Q 14.984375 22.515625 14.984375 16.5 
Q 14.984375 11.71875 18.140625 8.90625 
Q 21.296875 6.109375 26.703125 6.109375 
Q 34.1875 6.109375 38.703125 11.40625 
Q 43.21875 16.703125 43.21875 25.484375 
L 43.21875 27.484375 
z
M 52.203125 31.203125 
L 52.203125 0 
L 43.21875 0 
L 43.21875 8.296875 
Q 40.140625 3.328125 35.546875 0.953125 
Q 30.953125 -1.421875 24.3125 -1.421875 
Q 15.921875 -1.421875 10.953125 3.296875 
Q 6 8.015625 6 15.921875 
Q 6 25.140625 12.171875 29.828125 
Q 18.359375 34.515625 30.609375 34.515625 
L 43.21875 34.515625 
L 43.21875 35.40625 
Q 43.21875 41.609375 39.140625 45 
Q 35.0625 48.390625 27.6875 48.390625 
Q 23 48.390625 18.546875 47.265625 
Q 14.109375 46.140625 10.015625 43.890625 
L 10.015625 52.203125 
Q 14.9375 54.109375 19.578125 55.046875 
Q 24.21875 56 28.609375 56 
Q 40.484375 56 46.34375 49.84375 
Q 52.203125 43.703125 52.203125 31.203125 
z
" id="DejaVuSans-97"/>
      <path d="M 48.6875 27.296875 
Q 48.6875 37.203125 44.609375 42.84375 
Q 40.53125 48.484375 33.40625 48.484375 
Q 26.265625 48.484375 22.1875 42.84375 
Q 18.109375 37.203125 18.109375 27.296875 
Q 18.109375 17.390625 22.1875 11.75 
Q 26.265625 6.109375 33.40625 6.109375 
Q 40.53125 6.109375 44.609375 11.75 
Q 48.6875 17.390625 48.6875 27.296875 
z
M 18.109375 46.390625 
Q 20.953125 51.265625 25.265625 53.625 
Q 29.59375 56 35.59375 56 
Q 45.5625 56 51.78125 48.09375 
Q 58.015625 40.1875 58.015625 27.296875 
Q 58.015625 14.40625 51.78125 6.484375 
Q 45.5625 -1.421875 35.59375 -1.421875 
Q 29.59375 -1.421875 25.265625 0.953125 
Q 20.953125 3.328125 18.109375 8.203125 
L 18.109375 0 
L 9.078125 0 
L 9.078125 75.984375 
L 18.109375 75.984375 
z
" id="DejaVuSans-98"/>
      <path d="M 41.109375 46.296875 
Q 39.59375 47.171875 37.8125 47.578125 
Q 36.03125 48 33.890625 48 
Q 26.265625 48 22.1875 43.046875 
Q 18.109375 38.09375 18.109375 28.8125 
L 18.109375 0 
L 9.078125 0 
L 9.078125 54.6875 
L 18.109375 54.6875 
L 18.109375 46.1875 
Q 20.953125 51.171875 25.484375 53.578125 
Q 30.03125 56 36.53125 56 
Q 37.453125 56 38.578125 55.875 
Q 39.703125 55.765625 41.0625 55.515625 
z
" id="DejaVuSans-114"/>
     </defs>
     <g transform="translate(456.919063 79.787188)scale(0.14 -0.14)">
      <use xlink:href="#DejaVuSans-116"/>
      <use x="39.208984" xlink:href="#DejaVuSans-97"/>
      <use x="100.488281" xlink:href="#DejaVuSans-98"/>
      <use x="163.964844" xlink:href="#DejaVuSans-98"/>
      <use x="227.441406" xlink:href="#DejaVuSans-97"/>
      <use x="288.720703" xlink:href="#DejaVuSans-114"/>
     </g>
    </g>
   </g>
  </g>
  <g id="axes_2">
   <g id="patch_7">
    <path d="M 36 525.24 
L 538.2 525.24 
L 538.2 402.93 
L 36 402.93 
z
" style="fill:none;"/>
   </g>
   <g id="patch_8">
    <path clip-path="url(#p85d1a6d235)" d="M 259.205929 519.680455 
L 427.691474 519.680455 
L 427.691474 482.616818 
L 259.205929 482.616818 
z
" style="fill:#ff6384;opacity:0.5;"/>
   </g>
   <g id="patch_9">
    <path clip-path="url(#p85d1a6d235)" d="M 160.703682 445.553182 
L 356.466195 445.553182 
L 356.466195 408.489545 
L 160.703682 408.489545 
z
" style="fill:#36a2eb;opacity:0.5;"/>
   </g>
   <g id="matplotlib.axis_1">
    <g id="xtick_1">
     <g id="line2d_3">
      <defs>
       <path d="M 0 0 
L 0 3.5 
" id="m7b009a9b99" style="stroke:#000000;stroke-width:0.8;"/>
      </defs>
      <g>
       <use style="stroke:#000000;stroke-width:0.8;" x="115.863888" xlink:href="#m7b009a9b99" y="525.24"/>
      </g>
     </g>
     <g id="text_3">
      <!-- 3.4 -->
      <defs>
       <path d="M 40.578125 39.3125 
Q 47.65625 37.796875 51.625 33 
Q 55.609375 28.21875 55.609375 21.1875 
Q 55.609375 10.40625 48.1875 4.484375 
Q 40.765625 -1.421875 27.09375 -1.421875 
Q 22.515625 -1.421875 17.65625 -0.515625 
Q 12.796875 0.390625 7.625 2.203125 
L 7.625 11.71875 
Q 11.71875 9.328125 16.59375 8.109375 
Q 21.484375 6.890625 26.8125 6.890625 
Q 36.078125 6.890625 40.9375 10.546875 
Q 45.796875 14.203125 45.796875 21.1875 
Q 45.796875 27.640625 41.28125 31.265625 
Q 36.765625 34.90625 28.71875 34.90625 
L 20.21875 34.90625 
L 20.21875 43.015625 
L 29.109375 43.015625 
Q 36.375 43.015625 40.234375 45.921875 
Q 44.09375 48.828125 44.09375 54.296875 
Q 44.09375 59.90625 40.109375 62.90625 
Q 36.140625 65.921875 28.71875 65.921875 
Q 24.65625 65.921875 20.015625 65.03125 
Q 15.375 64.15625 9.8125 62.3125 
L 9.8125 71.09375 
Q 15.4375 72.65625 20.34375 73.4375 
Q 25.25 74.21875 29.59375 74.21875 
Q 40.828125 74.21875 47.359375 69.109375 
Q 53.90625 64.015625 53.90625 55.328125 
Q 53.90625 49.265625 50.4375 45.09375 
Q 46.96875 40.921875 40.578125 39.3125 
z
" id="DejaVuSans-51"/>
       <path d="M 10.6875 12.40625 
L 21 12.40625 
L 21 0 
L 10.6875 0 
z
" id="DejaVuSans-46"/>
       <path d="M 37.796875 64.3125 
L 12.890625 25.390625 
L 37.796875 25.390625 
z
M 35.203125 72.90625 
L 47.609375 72.90625 
L 47.609375 25.390625 
L 58.015625 25.390625 
L 58.015625 17.1875 
L 47.609375 17.1875 
L 47.609375 0 
L 37.796875 0 
L 37.796875 17.1875 
L 4.890625 17.1875 
L 4.890625 26.703125 
z
" id="DejaVuSans-52"/>
      </defs>
      <g transform="translate(104.7317 542.877813)scale(0.14 -0.14)">
       <use xlink:href="#DejaVuSans-51"/>
       <use x="63.623047" xlink:href="#DejaVuSans-46"/>
       <use x="95.410156" xlink:href="#DejaVuSans-52"/>
      </g>
     </g>
    </g>
    <g id="xtick_2">
     <g id="line2d_4">
      <g>
       <use style="stroke:#000000;stroke-width:0.8;" x="211.97234" xlink:href="#m7b009a9b99" y="525.24"/>
      </g>
     </g>
     <g id="text_4">
      <!-- 3.5 -->
      <defs>
       <path d="M 10.796875 72.90625 
L 49.515625 72.90625 
L 49.515625 64.59375 
L 19.828125 64.59375 
L 19.828125 46.734375 
Q 21.96875 47.46875 24.109375 47.828125 
Q 26.265625 48.1875 28.421875 48.1875 
Q 40.625 48.1875 47.75 41.5 
Q 54.890625 34.8125 54.890625 23.390625 
Q 54.890625 11.625 47.5625 5.09375 
Q 40.234375 -1.421875 26.90625 -1.421875 
Q 22.3125 -1.421875 17.546875 -0.640625 
Q 12.796875 0.140625 7.71875 1.703125 
L 7.71875 11.625 
Q 12.109375 9.234375 16.796875 8.0625 
Q 21.484375 6.890625 26.703125 6.890625 
Q 35.15625 6.890625 40.078125 11.328125 
Q 45.015625 15.765625 45.015625 23.390625 
Q 45.015625 31 40.078125 35.4375 
Q 35.15625 39.890625 26.703125 39.890625 
Q 22.75 39.890625 18.8125 39.015625 
Q 14.890625 38.140625 10.796875 36.28125 
z
" id="DejaVuSans-53"/>
      </defs>
      <g transform="translate(200.840152 542.877813)scale(0.14 -0.14)">
       <use xlink:href="#DejaVuSans-51"/>
       <use x="63.623047" xlink:href="#DejaVuSans-46"/>
       <use x="95.410156" xlink:href="#DejaVuSans-53"/>
      </g>
     </g>
    </g>
    <g id="xtick_3">
     <g id="line2d_5">
      <g>
       <use style="stroke:#000000;stroke-width:0.8;" x="308.080792" xlink:href="#m7b009a9b99" y="525.24"/>
      </g>
     </g>
     <g id="text_5">
      <!-- 3.6 -->
      <defs>
       <path d="M 33.015625 40.375 
Q 26.375 40.375 22.484375 35.828125 
Q 18.609375 31.296875 18.609375 23.390625 
Q 18.609375 15.53125 22.484375 10.953125 
Q 26.375 6.390625 33.015625 6.390625 
Q 39.65625 6.390625 43.53125 10.953125 
Q 47.40625 15.53125 47.40625 23.390625 
Q 47.40625 31.296875 43.53125 35.828125 
Q 39.65625 40.375 33.015625 40.375 
z
M 52.59375 71.296875 
L 52.59375 62.3125 
Q 48.875 64.0625 45.09375 64.984375 
Q 41.3125 65.921875 37.59375 65.921875 
Q 27.828125 65.921875 22.671875 59.328125 
Q 17.53125 52.734375 16.796875 39.40625 
Q 19.671875 43.65625 24.015625 45.921875 
Q 28.375 48.1875 33.59375 48.1875 
Q 44.578125 48.1875 50.953125 41.515625 
Q 57.328125 34.859375 57.328125 23.390625 
Q 57.328125 12.15625 50.6875 5.359375 
Q 44.046875 -1.421875 33.015625 -1.421875 
Q 20.359375 -1.421875 13.671875 8.265625 
Q 6.984375 17.96875 6.984375 36.375 
Q 6.984375 53.65625 15.1875 63.9375 
Q 23.390625 74.21875 37.203125 74.21875 
Q 40.921875 74.21875 44.703125 73.484375 
Q 48.484375 72.75 52.59375 71.296875 
z
" id="DejaVuSans-54"/>
      </defs>
      <g transform="translate(296.948604 542.877813)scale(0.14 -0.14)">
       <use xlink:href="#DejaVuSans-51"/>
       <use x="63.623047" xlink:href="#DejaVuSans-46"/>
       <use x="95.410156" xlink:href="#DejaVuSans-54"/>
      </g>
     </g>
    </g>
    <g id="xtick_4">
     <g id="line2d_6">
      <g>
       <use style="stroke:#000000;stroke-width:0.8;" x="404.189244" xlink:href="#m7b009a9b99" y="525.24"/>
      </g>
     </g>
     <g id="text_6">
      <!-- 3.7 -->
      <defs>
       <path d="M 8.203125 72.90625 
L 55.078125 72.90625 
L 55.078125 68.703125 
L 28.609375 0 
L 18.3125 0 
L 43.21875 64.59375 
L 8.203125 64.59375 
z
" id="DejaVuSans-55"/>
      </defs>
      <g transform="translate(393.057056 542.877813)scale(0.14 -0.14)">
       <use xlink:href="#DejaVuSans-51"/>
       <use x="63.623047" xlink:href="#DejaVuSans-46"/>
       <use x="95.410156" xlink:href="#DejaVuSans-55"/>
      </g>
     </g>
    </g>
    <g id="xtick_5">
     <g id="line2d_7">
      <g>
       <use style="stroke:#000000;stroke-width:0.8;" x="500.297695" xlink:href="#m7b009a9b99" y="525.24"/>
      </g>
     </g>
     <g id="text_7">
      <!-- 3.8 -->
      <defs>
       <path d="M 31.78125 34.625 
Q 24.75 34.625 20.71875 30.859375 
Q 16.703125 27.09375 16.703125 20.515625 
Q 16.703125 13.921875 20.71875 10.15625 
Q 24.75 6.390625 31.78125 6.390625 
Q 38.8125 6.390625 42.859375 10.171875 
Q 46.921875 13.96875 46.921875 20.515625 
Q 46.921875 27.09375 42.890625 30.859375 
Q 38.875 34.625 31.78125 34.625 
z
M 21.921875 38.8125 
Q 15.578125 40.375 12.03125 44.71875 
Q 8.5 49.078125 8.5 55.328125 
Q 8.5 64.0625 14.71875 69.140625 
Q 20.953125 74.21875 31.78125 74.21875 
Q 42.671875 74.21875 48.875 69.140625 
Q 55.078125 64.0625 55.078125 55.328125 
Q 55.078125 49.078125 51.53125 44.71875 
Q 48 40.375 41.703125 38.8125 
Q 48.828125 37.15625 52.796875 32.3125 
Q 56.78125 27.484375 56.78125 20.515625 
Q 56.78125 9.90625 50.3125 4.234375 
Q 43.84375 -1.421875 31.78125 -1.421875 
Q 19.734375 -1.421875 13.25 4.234375 
Q 6.78125 9.90625 6.78125 20.515625 
Q 6.78125 27.484375 10.78125 32.3125 
Q 14.796875 37.15625 21.921875 38.8125 
z
M 18.3125 54.390625 
Q 18.3125 48.734375 21.84375 45.5625 
Q 25.390625 42.390625 31.78125 42.390625 
Q 38.140625 42.390625 41.71875 45.5625 
Q 45.3125 48.734375 45.3125 54.390625 
Q 45.3125 60.0625 41.71875 63.234375 
Q 38.140625 66.40625 31.78125 66.40625 
Q 25.390625 66.40625 21.84375 63.234375 
Q 18.3125 60.0625 18.3125 54.390625 
z
" id="DejaVuSans-56"/>
      </defs>
      <g transform="translate(489.165508 542.877813)scale(0.14 -0.14)">
       <use xlink:href="#DejaVuSans-51"/>
       <use x="63.623047" xlink:href="#DejaVuSans-46"/>
       <use x="95.410156" xlink:href="#DejaVuSans-56"/>
      </g>
     </g>
    </g>
   </g>
   <g id="line2d_8">
    <path clip-path="url(#p85d1a6d235)" d="M 343.448702 525.24 
L 343.448702 402.93 
" style="fill:none;stroke:#ff6384;stroke-dasharray:5.55,2.4;stroke-dashoffset:0;stroke-opacity:0.8;stroke-width:1.5;"/>
   </g>
   <g id="line2d_9">
    <path clip-path="url(#p85d1a6d235)" d="M 258.584939 525.24 
L 258.584939 402.93 
" style="fill:none;stroke:#36a2eb;stroke-dasharray:5.55,2.4;stroke-dashoffset:0;stroke-opacity:0.8;stroke-width:1.5;"/>
   </g>
   <g id="patch_10">
    <path d="M 36 525.24 
L 538.2 525.24 
" style="fill:none;stroke:#000000;stroke-linecap:square;stroke-linejoin:miter;stroke-width:0.8;"/>
   </g>
  </g>
 </g>
 <defs>
  <clipPath id="pae6fb781bc">
   <rect height="366.93" width="502.2" x="36" y="36"/>
  </clipPath>
  <clipPath id="p85d1a6d235">
   <rect height="122.31" width="502.2" x="36" y="402.93"/>
  </clipPath>
 </defs>
</svg>
