<?xml version="1.0" encoding="utf-8" standalone="no"?>
<!DOCTYPE svg PUBLIC "-//W3C//DTD SVG 1.1//EN"
  "http://www.w3.org/Graphics/SVG/1.1/DTD/svg11.dtd">
<!-- Created with matplotlib (https://matplotlib.org/) -->
<svg height="581.789375pt" version="1.1" viewBox="0 0 574.2 581.789375" width="574.2pt" xmlns="http://www.w3.org/2000/svg" xmlns:xlink="http://www.w3.org/1999/xlink">
 <defs>
  <style type="text/css">
*{stroke-linecap:butt;stroke-linejoin:round;}
  </style>
 </defs>
 <g id="figure_1">
  <g id="patch_1">
   <path d="M 0 581.789375 
L 574.2 581.789375 
L 574.2 0 
L 0 0 
z
" style="fill:none;"/>
  </g>
  <g id="axes_1">
   <g id="patch_2">
    <path d="M 36 402.93 
L 538.2 402.93 
L 538.2 36 
L 36 36 
z
" style="fill:none;"/>
   </g>
   <g id="PolyCollection_1">
    <defs>
     <path d="M 177.499305 -195.538011 
L 177.499305 -195.650004 
L 180.912167 -195.692234 
L 184.32503 -195.749007 
L 187.737893 -195.8248 
L 191.150756 -195.925281 
L 194.563619 -196.057565 
L 197.976482 -196.230497 
L 201.389345 -196.454982 
L 204.802207 -196.744335 
L 208.21507 -197.114666 
L 211.627933 -197.585273 
L 215.040796 -198.179047 
L 218.453659 -198.922859 
L 221.866522 -199.847921 
L 225.279385 -200.990079 
L 228.692247 -202.390029 
L 232.10511 -204.093399 
L 235.517973 -206.150691 
L 238.930836 -208.617009 
L 242.343699 -211.551575 
L 245.756562 -215.016962 
L 249.169425 -219.078053 
L 252.582287 -223.800667 
L 255.99515 -229.249878 
L 259.408013 -235.488004 
L 262.820876 -242.572312 
L 266.233739 -250.552459 
L 269.646602 -259.467747 
L 273.059465 -269.344261 
L 276.472327 -280.192004 
L 279.88519 -292.002137 
L 283.298053 -304.744465 
L 286.710916 -318.365297 
L 290.123779 -332.785841 
L 293.536642 -347.901251 
L 296.949505 -363.580456 
L 300.362367 -379.666871 
L 303.77523 -395.980052 
L 307.188093 -412.31833 
L 310.600956 -428.4624 
L 314.013819 -444.179822 
L 317.426682 -459.230303 
L 320.839545 -473.371627 
L 324.252407 -486.366018 
L 327.66527 -497.986726 
L 331.078133 -508.02457 
L 334.490996 -516.294181 
L 337.903859 -522.639693 
L 341.316722 -526.939623 
L 344.729585 -529.110739 
L 348.142447 -529.110739 
L 351.55531 -526.939623 
L 354.968173 -522.639693 
L 358.381036 -516.294181 
L 361.793899 -508.02457 
L 365.206762 -497.986726 
L 368.619625 -486.366018 
L 372.032487 -473.371627 
L 375.44535 -459.230303 
L 378.858213 -444.179822 
L 382.271076 -428.4624 
L 385.683939 -412.31833 
L 389.096802 -395.980052 
L 392.509664 -379.666871 
L 395.922527 -363.580456 
L 399.33539 -347.901251 
L 402.748253 -332.785841 
L 406.161116 -318.365297 
L 409.573979 -304.744465 
L 412.986842 -292.002137 
L 416.399704 -280.192004 
L 419.812567 -269.344261 
L 423.22543 -259.467747 
L 426.638293 -250.552459 
L 430.051156 -242.572312 
L 433.464019 -235.488004 
L 436.876882 -229.249878 
L 440.289744 -223.800667 
L 443.702607 -219.078053 
L 447.11547 -215.016962 
L 450.528333 -211.551575 
L 453.941196 -208.617009 
L 457.354059 -206.150691 
L 460.766922 -204.093399 
L 464.179784 -202.390029 
L 467.592647 -200.990079 
L 471.00551 -199.847921 
L 474.418373 -198.922859 
L 477.831236 -198.179047 
L 481.244099 -197.585273 
L 484.656962 -197.114666 
L 488.069824 -196.744335 
L 491.482687 -196.454982 
L 494.89555 -196.230497 
L 498.308413 -196.057565 
L 501.721276 -195.925281 
L 505.134139 -195.8248 
L 508.547002 -195.749007 
L 511.959864 -195.692234 
L 515.372727 -195.650004 
L 515.372727 -195.538011 
L 515.372727 -195.538011 
L 511.959864 -195.538011 
L 508.547002 -195.538011 
L 505.134139 -195.538011 
L 501.721276 -195.538011 
L 498.308413 -195.538011 
L 494.89555 -195.538011 
L 491.482687 -195.538011 
L 488.069824 -195.538011 
L 484.656962 -195.538011 
L 481.244099 -195.538011 
L 477.831236 -195.538011 
L 474.418373 -195.538011 
L 471.00551 -195.538011 
L 467.592647 -195.538011 
L 464.179784 -195.538011 
L 460.766922 -195.538011 
L 457.354059 -195.538011 
L 453.941196 -195.538011 
L 450.528333 -195.538011 
L 447.11547 -195.538011 
L 443.702607 -195.538011 
L 440.289744 -195.538011 
L 436.876882 -195.538011 
L 433.464019 -195.538011 
L 430.051156 -195.538011 
L 426.638293 -195.538011 
L 423.22543 -195.538011 
L 419.812567 -195.538011 
L 416.399704 -195.538011 
L 412.986842 -195.538011 
L 409.573979 -195.538011 
L 406.161116 -195.538011 
L 402.748253 -195.538011 
L 399.33539 -195.538011 
L 395.922527 -195.538011 
L 392.509664 -195.538011 
L 389.096802 -195.538011 
L 385.683939 -195.538011 
L 382.271076 -195.538011 
L 378.858213 -195.538011 
L 375.44535 -195.538011 
L 372.032487 -195.538011 
L 368.619625 -195.538011 
L 365.206762 -195.538011 
L 361.793899 -195.538011 
L 358.381036 -195.538011 
L 354.968173 -195.538011 
L 351.55531 -195.538011 
L 348.142447 -195.538011 
L 344.729585 -195.538011 
L 341.316722 -195.538011 
L 337.903859 -195.538011 
L 334.490996 -195.538011 
L 331.078133 -195.538011 
L 327.66527 -195.538011 
L 324.252407 -195.538011 
L 320.839545 -195.538011 
L 317.426682 -195.538011 
L 314.013819 -195.538011 
L 310.600956 -195.538011 
L 307.188093 -195.538011 
L 303.77523 -195.538011 
L 300.362367 -195.538011 
L 296.949505 -195.538011 
L 293.536642 -195.538011 
L 290.123779 -195.538011 
L 286.710916 -195.538011 
L 283.298053 -195.538011 
L 279.88519 -195.538011 
L 276.472327 -195.538011 
L 273.059465 -195.538011 
L 269.646602 -195.538011 
L 266.233739 -195.538011 
L 262.820876 -195.538011 
L 259.408013 -195.538011 
L 255.99515 -195.538011 
L 252.582287 -195.538011 
L 249.169425 -195.538011 
L 245.756562 -195.538011 
L 242.343699 -195.538011 
L 238.930836 -195.538011 
L 235.517973 -195.538011 
L 232.10511 -195.538011 
L 228.692247 -195.538011 
L 225.279385 -195.538011 
L 221.866522 -195.538011 
L 218.453659 -195.538011 
L 215.040796 -195.538011 
L 211.627933 -195.538011 
L 208.21507 -195.538011 
L 204.802207 -195.538011 
L 201.389345 -195.538011 
L 197.976482 -195.538011 
L 194.563619 -195.538011 
L 191.150756 -195.538011 
L 187.737893 -195.538011 
L 184.32503 -195.538011 
L 180.912167 -195.538011 
L 177.499305 -195.538011 
z
" id="m1a98133871" style="stroke:#ff6384;stroke-opacity:0.5;"/>
    </defs>
    <g clip-path="url(#pf758092384)">
     <use style="fill:#ff6384;fill-opacity:0.5;stroke:#ff6384;stroke-opacity:0.5;" x="0" xlink:href="#m1a98133871" y="581.789375"/>
    </g>
   </g>
   <g id="PolyCollection_2">
    <defs>
     <path d="M 58.827273 -195.538011 
L 58.827273 -195.634399 
L 62.792661 -195.670745 
L 66.758049 -195.719607 
L 70.723438 -195.78484 
L 74.688826 -195.87132 
L 78.654214 -195.985172 
L 82.619603 -196.134008 
L 86.584991 -196.327214 
L 90.550379 -196.57625 
L 94.515767 -196.89498 
L 98.481156 -197.300014 
L 102.446544 -197.811053 
L 106.411932 -198.451224 
L 110.377321 -199.247391 
L 114.342709 -200.230404 
L 118.308097 -201.435289 
L 122.273486 -202.901317 
L 126.238874 -204.671952 
L 130.204262 -206.794621 
L 134.16965 -209.320292 
L 138.135039 -212.302823 
L 142.100427 -215.798053 
L 146.065815 -219.862633 
L 150.031204 -224.552566 
L 153.996592 -229.921491 
L 157.96198 -236.018692 
L 161.927369 -242.886909 
L 165.892757 -250.559967 
L 169.858145 -259.060317 
L 173.823533 -268.396567 
L 177.788922 -278.561112 
L 181.75431 -289.527962 
L 185.719698 -301.250907 
L 189.685087 -313.662136 
L 193.650475 -326.671409 
L 197.615863 -340.16592 
L 201.581252 -354.010902 
L 205.54664 -368.051053 
L 209.512028 -382.112803 
L 213.477416 -396.007406 
L 217.442805 -409.534809 
L 221.408193 -422.488201 
L 225.373581 -434.659115 
L 229.33897 -445.842906 
L 233.304358 -455.844419 
L 237.269746 -464.483619 
L 241.235135 -471.600968 
L 245.200523 -477.062315 
L 249.165911 -480.763105 
L 253.131299 -482.631704 
L 257.096688 -482.631704 
L 261.062076 -480.763105 
L 265.027464 -477.062315 
L 268.992853 -471.600968 
L 272.958241 -464.483619 
L 276.923629 -455.844419 
L 280.889018 -445.842906 
L 284.854406 -434.659115 
L 288.819794 -422.488201 
L 292.785182 -409.534809 
L 296.750571 -396.007406 
L 300.715959 -382.112803 
L 304.681347 -368.051053 
L 308.646736 -354.010902 
L 312.612124 -340.16592 
L 316.577512 -326.671409 
L 320.542901 -313.662136 
L 324.508289 -301.250907 
L 328.473677 -289.527962 
L 332.439065 -278.561112 
L 336.404454 -268.396567 
L 340.369842 -259.060317 
L 344.33523 -250.559967 
L 348.300619 -242.886909 
L 352.266007 -236.018692 
L 356.231395 -229.921491 
L 360.196784 -224.552566 
L 364.162172 -219.862633 
L 368.12756 -215.798053 
L 372.092948 -212.302823 
L 376.058337 -209.320292 
L 380.023725 -206.794621 
L 383.989113 -204.671952 
L 387.954502 -202.901317 
L 391.91989 -201.435289 
L 395.885278 -200.230404 
L 399.850667 -199.247391 
L 403.816055 -198.451224 
L 407.781443 -197.811053 
L 411.746831 -197.300014 
L 415.71222 -196.89498 
L 419.677608 -196.57625 
L 423.642996 -196.327214 
L 427.608385 -196.134008 
L 431.573773 -195.985172 
L 435.539161 -195.87132 
L 439.50455 -195.78484 
L 443.469938 -195.719607 
L 447.435326 -195.670745 
L 451.400714 -195.634399 
L 451.400714 -195.538011 
L 451.400714 -195.538011 
L 447.435326 -195.538011 
L 443.469938 -195.538011 
L 439.50455 -195.538011 
L 435.539161 -195.538011 
L 431.573773 -195.538011 
L 427.608385 -195.538011 
L 423.642996 -195.538011 
L 419.677608 -195.538011 
L 415.71222 -195.538011 
L 411.746831 -195.538011 
L 407.781443 -195.538011 
L 403.816055 -195.538011 
L 399.850667 -195.538011 
L 395.885278 -195.538011 
L 391.91989 -195.538011 
L 387.954502 -195.538011 
L 383.989113 -195.538011 
L 380.023725 -195.538011 
L 376.058337 -195.538011 
L 372.092948 -195.538011 
L 368.12756 -195.538011 
L 364.162172 -195.538011 
L 360.196784 -195.538011 
L 356.231395 -195.538011 
L 352.266007 -195.538011 
L 348.300619 -195.538011 
L 344.33523 -195.538011 
L 340.369842 -195.538011 
L 336.404454 -195.538011 
L 332.439065 -195.538011 
L 328.473677 -195.538011 
L 324.508289 -195.538011 
L 320.542901 -195.538011 
L 316.577512 -195.538011 
L 312.612124 -195.538011 
L 308.646736 -195.538011 
L 304.681347 -195.538011 
L 300.715959 -195.538011 
L 296.750571 -195.538011 
L 292.785182 -195.538011 
L 288.819794 -195.538011 
L 284.854406 -195.538011 
L 280.889018 -195.538011 
L 276.923629 -195.538011 
L 272.958241 -195.538011 
L 268.992853 -195.538011 
L 265.027464 -195.538011 
L 261.062076 -195.538011 
L 257.096688 -195.538011 
L 253.131299 -195.538011 
L 249.165911 -195.538011 
L 245.200523 -195.538011 
L 241.235135 -195.538011 
L 237.269746 -195.538011 
L 233.304358 -195.538011 
L 229.33897 -195.538011 
L 225.373581 -195.538011 
L 221.408193 -195.538011 
L 217.442805 -195.538011 
L 213.477416 -195.538011 
L 209.512028 -195.538011 
L 205.54664 -195.538011 
L 201.581252 -195.538011 
L 197.615863 -195.538011 
L 193.650475 -195.538011 
L 189.685087 -195.538011 
L 185.719698 -195.538011 
L 181.75431 -195.538011 
L 177.788922 -195.538011 
L 173.823533 -195.538011 
L 169.858145 -195.538011 
L 165.892757 -195.538011 
L 161.927369 -195.538011 
L 157.96198 -195.538011 
L 153.996592 -195.538011 
L 150.031204 -195.538011 
L 146.065815 -195.538011 
L 142.100427 -195.538011 
L 138.135039 -195.538011 
L 134.16965 -195.538011 
L 130.204262 -195.538011 
L 126.238874 -195.538011 
L 122.273486 -195.538011 
L 118.308097 -195.538011 
L 114.342709 -195.538011 
L 110.377321 -195.538011 
L 106.411932 -195.538011 
L 102.446544 -195.538011 
L 98.481156 -195.538011 
L 94.515767 -195.538011 
L 90.550379 -195.538011 
L 86.584991 -195.538011 
L 82.619603 -195.538011 
L 78.654214 -195.538011 
L 74.688826 -195.538011 
L 70.723438 -195.538011 
L 66.758049 -195.538011 
L 62.792661 -195.538011 
L 58.827273 -195.538011 
z
" id="m93b8412580" style="stroke:#36a2eb;stroke-opacity:0.5;"/>
    </defs>
    <g clip-path="url(#pf758092384)">
     <use style="fill:#36a2eb;fill-opacity:0.5;stroke:#36a2eb;stroke-opacity:0.5;" x="0" xlink:href="#m93b8412580" y="581.789375"/>
    </g>
   </g>
   <g id="line2d_1">
    <path clip-path="url(#pf758092384)" d="M 177.499305 386.139371 
L 180.912167 386.097141 
L 184.32503 386.040368 
L 187.737893 385.964575 
L 191.150756 385.864094 
L 194.563619 385.73181 
L 197.976482 385.558878 
L 201.389345 385.334393 
L 204.802207 385.04504 
L 208.21507 384.674709 
L 211.627933 384.204102 
L 215.040796 383.610328 
L 218.453659 382.866516 
L 221.866522 381.941454 
L 225.279385 380.799296 
L 228.692247 379.399346 
L 232.10511 377.695976 
L 235.517973 375.638684 
L 238.930836 373.172366 
L 242.343699 370.2378 
L 245.756562 366.772413 
L 249.169425 362.711322 
L 252.582287 357.988708 
L 255.99515 352.539497 
L 259.408013 346.301371 
L 262.820876 339.217063 
L 266.233739 331.236916 
L 269.646602 322.321628 
L 273.059465 312.445114 
L 276.472327 301.597371 
L 279.88519 289.787238 
L 283.298053 277.04491 
L 286.710916 263.424078 
L 290.123779 249.003534 
L 293.536642 233.888124 
L 296.949505 218.208919 
L 300.362367 202.122504 
L 303.77523 185.809323 
L 307.188093 169.471045 
L 310.600956 153.326975 
L 314.013819 137.609553 
L 317.426682 122.559072 
L 320.839545 108.417748 
L 324.252407 95.423357 
L 327.66527 83.802649 
L 331.078133 73.764805 
L 334.490996 65.495194 
L 337.903859 59.149682 
L 341.316722 54.849752 
L 344.729585 52.678636 
L 348.142447 52.678636 
L 351.55531 54.849752 
L 354.968173 59.149682 
L 358.381036 65.495194 
L 361.793899 73.764805 
L 365.206762 83.802649 
L 368.619625 95.423357 
L 372.032487 108.417748 
L 375.44535 122.559072 
L 378.858213 137.609553 
L 382.271076 153.326975 
L 385.683939 169.471045 
L 389.096802 185.809323 
L 392.509664 202.122504 
L 395.922527 218.208919 
L 399.33539 233.888124 
L 402.748253 249.003534 
L 406.161116 263.424078 
L 409.573979 277.04491 
L 412.986842 289.787238 
L 416.399704 301.597371 
L 419.812567 312.445114 
L 423.22543 322.321628 
L 426.638293 331.236916 
L 430.051156 339.217063 
L 433.464019 346.301371 
L 436.876882 352.539497 
L 440.289744 357.988708 
L 443.702607 362.711322 
L 447.11547 366.772413 
L 450.528333 370.2378 
L 453.941196 373.172366 
L 457.354059 375.638684 
L 460.766922 377.695976 
L 464.179784 379.399346 
L 467.592647 380.799296 
L 471.00551 381.941454 
L 474.418373 382.866516 
L 477.831236 383.610328 
L 481.244099 384.204102 
L 484.656962 384.674709 
L 488.069824 385.04504 
L 491.482687 385.334393 
L 494.89555 385.558878 
L 498.308413 385.73181 
L 501.721276 385.864094 
L 505.134139 385.964575 
L 508.547002 386.040368 
L 511.959864 386.097141 
L 515.372727 386.139371 
" style="fill:none;stroke:#ff6384;stroke-linecap:square;"/>
   </g>
   <g id="line2d_2">
    <path clip-path="url(#pf758092384)" d="M 58.827273 386.154976 
L 62.792661 386.11863 
L 66.758049 386.069768 
L 70.723438 386.004535 
L 74.688826 385.918055 
L 78.654214 385.804203 
L 82.619603 385.655367 
L 86.584991 385.462161 
L 90.550379 385.213125 
L 94.515767 384.894395 
L 98.481156 384.489361 
L 102.446544 383.978322 
L 106.411932 383.338151 
L 110.377321 382.541984 
L 114.342709 381.558971 
L 118.308097 380.354086 
L 122.273486 378.888058 
L 126.238874 377.117423 
L 130.204262 374.994754 
L 134.16965 372.469083 
L 138.135039 369.486552 
L 142.100427 365.991322 
L 146.065815 361.926742 
L 150.031204 357.236809 
L 153.996592 351.867884 
L 157.96198 345.770683 
L 161.927369 338.902466 
L 165.892757 331.229408 
L 169.858145 322.729058 
L 173.823533 313.392808 
L 177.788922 303.228263 
L 181.75431 292.261413 
L 185.719698 280.538468 
L 189.685087 268.127239 
L 193.650475 255.117966 
L 197.615863 241.623455 
L 201.581252 227.778473 
L 205.54664 213.738322 
L 209.512028 199.676572 
L 213.477416 185.781969 
L 217.442805 172.254566 
L 221.408193 159.301174 
L 225.373581 147.13026 
L 229.33897 135.946469 
L 233.304358 125.944956 
L 237.269746 117.305756 
L 241.235135 110.188407 
L 245.200523 104.72706 
L 249.165911 101.02627 
L 253.131299 99.157671 
L 257.096688 99.157671 
L 261.062076 101.02627 
L 265.027464 104.72706 
L 268.992853 110.188407 
L 272.958241 117.305756 
L 276.923629 125.944956 
L 280.889018 135.946469 
L 284.854406 147.13026 
L 288.819794 159.301174 
L 292.785182 172.254566 
L 296.750571 185.781969 
L 300.715959 199.676572 
L 304.681347 213.738322 
L 308.646736 227.778473 
L 312.612124 241.623455 
L 316.577512 255.117966 
L 320.542901 268.127239 
L 324.508289 280.538468 
L 328.473677 292.261413 
L 332.439065 303.228263 
L 336.404454 313.392808 
L 340.369842 322.729058 
L 344.33523 331.229408 
L 348.300619 338.902466 
L 352.266007 345.770683 
L 356.231395 351.867884 
L 360.196784 357.236809 
L 364.162172 361.926742 
L 368.12756 365.991322 
L 372.092948 369.486552 
L 376.058337 372.469083 
L 380.023725 374.994754 
L 383.989113 377.117423 
L 387.954502 378.888058 
L 391.91989 380.354086 
L 395.885278 381.558971 
L 399.850667 382.541984 
L 403.816055 383.338151 
L 407.781443 383.978322 
L 411.746831 384.489361 
L 415.71222 384.894395 
L 419.677608 385.213125 
L 423.642996 385.462161 
L 427.608385 385.655367 
L 431.573773 385.804203 
L 435.539161 385.918055 
L 439.50455 386.004535 
L 443.469938 386.069768 
L 447.435326 386.11863 
L 451.400714 386.154976 
" style="fill:none;stroke:#36a2eb;stroke-linecap:square;"/>
   </g>
   <g id="patch_3">
    <path d="M 36 402.93 
L 538.2 402.93 
" style="fill:none;stroke:#000000;stroke-linecap:square;stroke-linejoin:miter;stroke-width:0.8;"/>
   </g>
   <g id="legend_1">
    <g id="patch_4">
     <path d="M 414.919063 88.29875 
L 528.4 88.29875 
Q 531.2 88.29875 531.2 85.49875 
L 531.2 45.8 
Q 531.2 43 528.4 43 
L 414.919063 43 
Q 412.119063 43 412.119063 45.8 
L 412.119063 85.49875 
Q 412.119063 88.29875 414.919063 88.29875 
z
" style="fill:#ffffff;opacity:0.8;stroke:#cccccc;stroke-linejoin:miter;"/>
    </g>
    <g id="patch_5">
     <path d="M 417.719063 59.237813 
L 445.719063 59.237813 
L 445.719063 49.437813 
L 417.719063 49.437813 
z
" style="fill:#ff6384;opacity:0.5;stroke:#ff6384;stroke-linejoin:miter;"/>
    </g>
    <g id="text_1">
     <!-- sidemenu -->
     <defs>
      <path d="M 44.28125 53.078125 
L 44.28125 44.578125 
Q 40.484375 46.53125 36.375 47.5 
Q 32.28125 48.484375 27.875 48.484375 
Q 21.1875 48.484375 17.84375 46.4375 
Q 14.5 44.390625 14.5 40.28125 
Q 14.5 37.15625 16.890625 35.375 
Q 19.28125 33.59375 26.515625 31.984375 
L 29.59375 31.296875 
Q 39.15625 29.25 43.1875 25.515625 
Q 47.21875 21.78125 47.21875 15.09375 
Q 47.21875 7.46875 41.1875 3.015625 
Q 35.15625 -1.421875 24.609375 -1.421875 
Q 20.21875 -1.421875 15.453125 -0.5625 
Q 10.6875 0.296875 5.421875 2 
L 5.421875 11.28125 
Q 10.40625 8.6875 15.234375 7.390625 
Q 20.0625 6.109375 24.8125 6.109375 
Q 31.15625 6.109375 34.5625 8.28125 
Q 37.984375 10.453125 37.984375 14.40625 
Q 37.984375 18.0625 35.515625 20.015625 
Q 33.0625 21.96875 24.703125 23.78125 
L 21.578125 24.515625 
Q 13.234375 26.265625 9.515625 29.90625 
Q 5.8125 33.546875 5.8125 39.890625 
Q 5.8125 47.609375 11.28125 51.796875 
Q 16.75 56 26.8125 56 
Q 31.78125 56 36.171875 55.265625 
Q 40.578125 54.546875 44.28125 53.078125 
z
" id="DejaVuSans-115"/>
      <path d="M 9.421875 54.6875 
L 18.40625 54.6875 
L 18.40625 0 
L 9.421875 0 
z
M 9.421875 75.984375 
L 18.40625 75.984375 
L 18.40625 64.59375 
L 9.421875 64.59375 
z
" id="DejaVuSans-105"/>
      <path d="M 45.40625 46.390625 
L 45.40625 75.984375 
L 54.390625 75.984375 
L 54.390625 0 
L 45.40625 0 
L 45.40625 8.203125 
Q 42.578125 3.328125 38.25 0.953125 
Q 33.9375 -1.421875 27.875 -1.421875 
Q 17.96875 -1.421875 11.734375 6.484375 
Q 5.515625 14.40625 5.515625 27.296875 
Q 5.515625 40.1875 11.734375 48.09375 
Q 17.96875 56 27.875 56 
Q 33.9375 56 38.25 53.625 
Q 42.578125 51.265625 45.40625 46.390625 
z
M 14.796875 27.296875 
Q 14.796875 17.390625 18.875 11.75 
Q 22.953125 6.109375 30.078125 6.109375 
Q 37.203125 6.109375 41.296875 11.75 
Q 45.40625 17.390625 45.40625 27.296875 
Q 45.40625 37.203125 41.296875 42.84375 
Q 37.203125 48.484375 30.078125 48.484375 
Q 22.953125 48.484375 18.875 42.84375 
Q 14.796875 37.203125 14.796875 27.296875 
z
" id="DejaVuSans-100"/>
      <path d="M 56.203125 29.59375 
L 56.203125 25.203125 
L 14.890625 25.203125 
Q 15.484375 15.921875 20.484375 11.0625 
Q 25.484375 6.203125 34.421875 6.203125 
Q 39.59375 6.203125 44.453125 7.46875 
Q 49.3125 8.734375 54.109375 11.28125 
L 54.109375 2.78125 
Q 49.265625 0.734375 44.1875 -0.34375 
Q 39.109375 -1.421875 33.890625 -1.421875 
Q 20.796875 -1.421875 13.15625 6.1875 
Q 5.515625 13.8125 5.515625 26.8125 
Q 5.515625 40.234375 12.765625 48.109375 
Q 20.015625 56 32.328125 56 
Q 43.359375 56 49.78125 48.890625 
Q 56.203125 41.796875 56.203125 29.59375 
z
M 47.21875 32.234375 
Q 47.125 39.59375 43.09375 43.984375 
Q 39.0625 48.390625 32.421875 48.390625 
Q 24.90625 48.390625 20.390625 44.140625 
Q 15.875 39.890625 15.1875 32.171875 
z
" id="DejaVuSans-101"/>
      <path d="M 52 44.1875 
Q 55.375 50.25 60.0625 53.125 
Q 64.75 56 71.09375 56 
Q 79.640625 56 84.28125 50.015625 
Q 88.921875 44.046875 88.921875 33.015625 
L 88.921875 0 
L 79.890625 0 
L 79.890625 32.71875 
Q 79.890625 40.578125 77.09375 44.375 
Q 74.3125 48.1875 68.609375 48.1875 
Q 61.625 48.1875 57.5625 43.546875 
Q 53.515625 38.921875 53.515625 30.90625 
L 53.515625 0 
L 44.484375 0 
L 44.484375 32.71875 
Q 44.484375 40.625 41.703125 44.40625 
Q 38.921875 48.1875 33.109375 48.1875 
Q 26.21875 48.1875 22.15625 43.53125 
Q 18.109375 38.875 18.109375 30.90625 
L 18.109375 0 
L 9.078125 0 
L 9.078125 54.6875 
L 18.109375 54.6875 
L 18.109375 46.1875 
Q 21.1875 51.21875 25.484375 53.609375 
Q 29.78125 56 35.6875 56 
Q 41.65625 56 45.828125 52.96875 
Q 50 49.953125 52 44.1875 
z
" id="DejaVuSans-109"/>
      <path d="M 54.890625 33.015625 
L 54.890625 0 
L 45.90625 0 
L 45.90625 32.71875 
Q 45.90625 40.484375 42.875 44.328125 
Q 39.84375 48.1875 33.796875 48.1875 
Q 26.515625 48.1875 22.3125 43.546875 
Q 18.109375 38.921875 18.109375 30.90625 
L 18.109375 0 
L 9.078125 0 
L 9.078125 54.6875 
L 18.109375 54.6875 
L 18.109375 46.1875 
Q 21.34375 51.125 25.703125 53.5625 
Q 30.078125 56 35.796875 56 
Q 45.21875 56 50.046875 50.171875 
Q 54.890625 44.34375 54.890625 33.015625 
z
" id="DejaVuSans-110"/>
      <path d="M 8.5 21.578125 
L 8.5 54.6875 
L 17.484375 54.6875 
L 17.484375 21.921875 
Q 17.484375 14.15625 20.5 10.265625 
Q 23.53125 6.390625 29.59375 6.390625 
Q 36.859375 6.390625 41.078125 11.03125 
Q 45.3125 15.671875 45.3125 23.6875 
L 45.3125 54.6875 
L 54.296875 54.6875 
L 54.296875 0 
L 45.3125 0 
L 45.3125 8.40625 
Q 42.046875 3.421875 37.71875 1 
Q 33.40625 -1.421875 27.6875 -1.421875 
Q 18.265625 -1.421875 13.375 4.4375 
Q 8.5 10.296875 8.5 21.578125 
z
M 31.109375 56 
z
" id="DejaVuSans-117"/>
     </defs>
     <g transform="translate(456.919063 59.237813)scale(0.14 -0.14)">
      <use xlink:href="#DejaVuSans-115"/>
      <use x="52.099609" xlink:href="#DejaVuSans-105"/>
      <use x="79.882812" xlink:href="#DejaVuSans-100"/>
      <use x="143.359375" xlink:href="#DejaVuSans-101"/>
      <use x="204.882812" xlink:href="#DejaVuSans-109"/>
      <use x="302.294922" xlink:href="#DejaVuSans-101"/>
      <use x="363.818359" xlink:href="#DejaVuSans-110"/>
      <use x="427.197266" xlink:href="#DejaVuSans-117"/>
     </g>
    </g>
    <g id="patch_6">
     <path d="M 417.719063 79.787188 
L 445.719063 79.787188 
L 445.719063 69.987188 
L 417.719063 69.987188 
z
" style="fill:#36a2eb;opacity:0.5;stroke:#36a2eb;stroke-linejoin:miter;"/>
    </g>
    <g id="text_2">
     <!-- tabbar -->
     <defs>
      <path d="M 18.3125 70.21875 
L 18.3125 54.6875 
L 36.8125 54.6875 
L 36.8125 47.703125 
L 18.3125 47.703125 
L 18.3125 18.015625 
Q 18.3125 11.328125 20.140625 9.421875 
Q 21.96875 7.515625 27.59375 7.515625 
L 36.8125 7.515625 
L 36.8125 0 
L 27.59375 0 
Q 17.1875 0 13.234375 3.875 
Q 9.28125 7.765625 9.28125 18.015625 
L 9.28125 47.703125 
L 2.6875 47.703125 
L 2.6875 54.6875 
L 9.28125 54.6875 
L 9.28125 70.21875 
z
" id="DejaVuSans-116"/>
      <path d="M 34.28125 27.484375 
Q 23.390625 27.484375 19.1875 25 
Q 14.984375 22.515625 14.984375 16.5 
Q 14.984375 11.71875 18.140625 8.90625 
Q 21.296875 6.109375 26.703125 6.109375 
Q 34.1875 6.109375 38.703125 11.40625 
Q 43.21875 16.703125 43.21875 25.484375 
L 43.21875 27.484375 
z
M 52.203125 31.203125 
L 52.203125 0 
L 43.21875 0 
L 43.21875 8.296875 
Q 40.140625 3.328125 35.546875 0.953125 
Q 30.953125 -1.421875 24.3125 -1.421875 
Q 15.921875 -1.421875 10.953125 3.296875 
Q 6 8.015625 6 15.921875 
Q 6 25.140625 12.171875 29.828125 
Q 18.359375 34.515625 30.609375 34.515625 
L 43.21875 34.515625 
L 43.21875 35.40625 
Q 43.21875 41.609375 39.140625 45 
Q 35.0625 48.390625 27.6875 48.390625 
Q 23 48.390625 18.546875 47.265625 
Q 14.109375 46.140625 10.015625 43.890625 
L 10.015625 52.203125 
Q 14.9375 54.109375 19.578125 55.046875 
Q 24.21875 56 28.609375 56 
Q 40.484375 56 46.34375 49.84375 
Q 52.203125 43.703125 52.203125 31.203125 
z
" id="DejaVuSans-97"/>
      <path d="M 48.6875 27.296875 
Q 48.6875 37.203125 44.609375 42.84375 
Q 40.53125 48.484375 33.40625 48.484375 
Q 26.265625 48.484375 22.1875 42.84375 
Q 18.109375 37.203125 18.109375 27.296875 
Q 18.109375 17.390625 22.1875 11.75 
Q 26.265625 6.109375 33.40625 6.109375 
Q 40.53125 6.109375 44.609375 11.75 
Q 48.6875 17.390625 48.6875 27.296875 
z
M 18.109375 46.390625 
Q 20.953125 51.265625 25.265625 53.625 
Q 29.59375 56 35.59375 56 
Q 45.5625 56 51.78125 48.09375 
Q 58.015625 40.1875 58.015625 27.296875 
Q 58.015625 14.40625 51.78125 6.484375 
Q 45.5625 -1.421875 35.59375 -1.421875 
Q 29.59375 -1.421875 25.265625 0.953125 
Q 20.953125 3.328125 18.109375 8.203125 
L 18.109375 0 
L 9.078125 0 
L 9.078125 75.984375 
L 18.109375 75.984375 
z
" id="DejaVuSans-98"/>
      <path d="M 41.109375 46.296875 
Q 39.59375 47.171875 37.8125 47.578125 
Q 36.03125 48 33.890625 48 
Q 26.265625 48 22.1875 43.046875 
Q 18.109375 38.09375 18.109375 28.8125 
L 18.109375 0 
L 9.078125 0 
L 9.078125 54.6875 
L 18.109375 54.6875 
L 18.109375 46.1875 
Q 20.953125 51.171875 25.484375 53.578125 
Q 30.03125 56 36.53125 56 
Q 37.453125 56 38.578125 55.875 
Q 39.703125 55.765625 41.0625 55.515625 
z
" id="DejaVuSans-114"/>
     </defs>
     <g transform="translate(456.919063 79.787188)scale(0.14 -0.14)">
      <use xlink:href="#DejaVuSans-116"/>
      <use x="39.208984" xlink:href="#DejaVuSans-97"/>
      <use x="100.488281" xlink:href="#DejaVuSans-98"/>
      <use x="163.964844" xlink:href="#DejaVuSans-98"/>
      <use x="227.441406" xlink:href="#DejaVuSans-97"/>
      <use x="288.720703" xlink:href="#DejaVuSans-114"/>
     </g>
    </g>
   </g>
  </g>
  <g id="axes_2">
   <g id="patch_7">
    <path d="M 36 525.24 
L 538.2 525.24 
L 538.2 402.93 
L 36 402.93 
z
" style="fill:none;"/>
   </g>
   <g id="patch_8">
    <path clip-path="url(#p9dceaba7f0)" d="M 263.657027 519.680455 
L 429.215004 519.680455 
L 429.215004 482.616818 
L 263.657027 482.616818 
z
" style="fill:#ff6384;opacity:0.5;"/>
   </g>
   <g id="patch_9">
    <path clip-path="url(#p9dceaba7f0)" d="M 158.9335 445.553182 
L 351.294487 445.553182 
L 351.294487 408.489545 
L 158.9335 408.489545 
z
" style="fill:#36a2eb;opacity:0.5;"/>
   </g>
   <g id="matplotlib.axis_1">
    <g id="xtick_1">
     <g id="line2d_3">
      <defs>
       <path d="M 0 0 
L 0 3.5 
" id="m732b89c6d6" style="stroke:#000000;stroke-width:0.8;"/>
      </defs>
      <g>
       <use style="stroke:#000000;stroke-width:0.8;" x="122.333473" xlink:href="#m732b89c6d6" y="525.24"/>
      </g>
     </g>
     <g id="text_3">
      <!-- 3.4 -->
      <defs>
       <path d="M 40.578125 39.3125 
Q 47.65625 37.796875 51.625 33 
Q 55.609375 28.21875 55.609375 21.1875 
Q 55.609375 10.40625 48.1875 4.484375 
Q 40.765625 -1.421875 27.09375 -1.421875 
Q 22.515625 -1.421875 17.65625 -0.515625 
Q 12.796875 0.390625 7.625 2.203125 
L 7.625 11.71875 
Q 11.71875 9.328125 16.59375 8.109375 
Q 21.484375 6.890625 26.8125 6.890625 
Q 36.078125 6.890625 40.9375 10.546875 
Q 45.796875 14.203125 45.796875 21.1875 
Q 45.796875 27.640625 41.28125 31.265625 
Q 36.765625 34.90625 28.71875 34.90625 
L 20.21875 34.90625 
L 20.21875 43.015625 
L 29.109375 43.015625 
Q 36.375 43.015625 40.234375 45.921875 
Q 44.09375 48.828125 44.09375 54.296875 
Q 44.09375 59.90625 40.109375 62.90625 
Q 36.140625 65.921875 28.71875 65.921875 
Q 24.65625 65.921875 20.015625 65.03125 
Q 15.375 64.15625 9.8125 62.3125 
L 9.8125 71.09375 
Q 15.4375 72.65625 20.34375 73.4375 
Q 25.25 74.21875 29.59375 74.21875 
Q 40.828125 74.21875 47.359375 69.109375 
Q 53.90625 64.015625 53.90625 55.328125 
Q 53.90625 49.265625 50.4375 45.09375 
Q 46.96875 40.921875 40.578125 39.3125 
z
" id="DejaVuSans-51"/>
       <path d="M 10.6875 12.40625 
L 21 12.40625 
L 21 0 
L 10.6875 0 
z
" id="DejaVuSans-46"/>
       <path d="M 37.796875 64.3125 
L 12.890625 25.390625 
L 37.796875 25.390625 
z
M 35.203125 72.90625 
L 47.609375 72.90625 
L 47.609375 25.390625 
L 58.015625 25.390625 
L 58.015625 17.1875 
L 47.609375 17.1875 
L 47.609375 0 
L 37.796875 0 
L 37.796875 17.1875 
L 4.890625 17.1875 
L 4.890625 26.703125 
z
" id="DejaVuSans-52"/>
      </defs>
      <g transform="translate(111.201285 542.877813)scale(0.14 -0.14)">
       <use xlink:href="#DejaVuSans-51"/>
       <use x="63.623047" xlink:href="#DejaVuSans-46"/>
       <use x="95.410156" xlink:href="#DejaVuSans-52"/>
      </g>
     </g>
    </g>
    <g id="xtick_2">
     <g id="line2d_4">
      <g>
       <use style="stroke:#000000;stroke-width:0.8;" x="216.771966" xlink:href="#m732b89c6d6" y="525.24"/>
      </g>
     </g>
     <g id="text_4">
      <!-- 3.5 -->
      <defs>
       <path d="M 10.796875 72.90625 
L 49.515625 72.90625 
L 49.515625 64.59375 
L 19.828125 64.59375 
L 19.828125 46.734375 
Q 21.96875 47.46875 24.109375 47.828125 
Q 26.265625 48.1875 28.421875 48.1875 
Q 40.625 48.1875 47.75 41.5 
Q 54.890625 34.8125 54.890625 23.390625 
Q 54.890625 11.625 47.5625 5.09375 
Q 40.234375 -1.421875 26.90625 -1.421875 
Q 22.3125 -1.421875 17.546875 -0.640625 
Q 12.796875 0.140625 7.71875 1.703125 
L 7.71875 11.625 
Q 12.109375 9.234375 16.796875 8.0625 
Q 21.484375 6.890625 26.703125 6.890625 
Q 35.15625 6.890625 40.078125 11.328125 
Q 45.015625 15.765625 45.015625 23.390625 
Q 45.015625 31 40.078125 35.4375 
Q 35.15625 39.890625 26.703125 39.890625 
Q 22.75 39.890625 18.8125 39.015625 
Q 14.890625 38.140625 10.796875 36.28125 
z
" id="DejaVuSans-53"/>
      </defs>
      <g transform="translate(205.639778 542.877813)scale(0.14 -0.14)">
       <use xlink:href="#DejaVuSans-51"/>
       <use x="63.623047" xlink:href="#DejaVuSans-46"/>
       <use x="95.410156" xlink:href="#DejaVuSans-53"/>
      </g>
     </g>
    </g>
    <g id="xtick_3">
     <g id="line2d_5">
      <g>
       <use style="stroke:#000000;stroke-width:0.8;" x="311.210458" xlink:href="#m732b89c6d6" y="525.24"/>
      </g>
     </g>
     <g id="text_5">
      <!-- 3.6 -->
      <defs>
       <path d="M 33.015625 40.375 
Q 26.375 40.375 22.484375 35.828125 
Q 18.609375 31.296875 18.609375 23.390625 
Q 18.609375 15.53125 22.484375 10.953125 
Q 26.375 6.390625 33.015625 6.390625 
Q 39.65625 6.390625 43.53125 10.953125 
Q 47.40625 15.53125 47.40625 23.390625 
Q 47.40625 31.296875 43.53125 35.828125 
Q 39.65625 40.375 33.015625 40.375 
z
M 52.59375 71.296875 
L 52.59375 62.3125 
Q 48.875 64.0625 45.09375 64.984375 
Q 41.3125 65.921875 37.59375 65.921875 
Q 27.828125 65.921875 22.671875 59.328125 
Q 17.53125 52.734375 16.796875 39.40625 
Q 19.671875 43.65625 24.015625 45.921875 
Q 28.375 48.1875 33.59375 48.1875 
Q 44.578125 48.1875 50.953125 41.515625 
Q 57.328125 34.859375 57.328125 23.390625 
Q 57.328125 12.15625 50.6875 5.359375 
Q 44.046875 -1.421875 33.015625 -1.421875 
Q 20.359375 -1.421875 13.671875 8.265625 
Q 6.984375 17.96875 6.984375 36.375 
Q 6.984375 53.65625 15.1875 63.9375 
Q 23.390625 74.21875 37.203125 74.21875 
Q 40.921875 74.21875 44.703125 73.484375 
Q 48.484375 72.75 52.59375 71.296875 
z
" id="DejaVuSans-54"/>
      </defs>
      <g transform="translate(300.078271 542.877813)scale(0.14 -0.14)">
       <use xlink:href="#DejaVuSans-51"/>
       <use x="63.623047" xlink:href="#DejaVuSans-46"/>
       <use x="95.410156" xlink:href="#DejaVuSans-54"/>
      </g>
     </g>
    </g>
    <g id="xtick_4">
     <g id="line2d_6">
      <g>
       <use style="stroke:#000000;stroke-width:0.8;" x="405.648951" xlink:href="#m732b89c6d6" y="525.24"/>
      </g>
     </g>
     <g id="text_6">
      <!-- 3.7 -->
      <defs>
       <path d="M 8.203125 72.90625 
L 55.078125 72.90625 
L 55.078125 68.703125 
L 28.609375 0 
L 18.3125 0 
L 43.21875 64.59375 
L 8.203125 64.59375 
z
" id="DejaVuSans-55"/>
      </defs>
      <g transform="translate(394.516763 542.877813)scale(0.14 -0.14)">
       <use xlink:href="#DejaVuSans-51"/>
       <use x="63.623047" xlink:href="#DejaVuSans-46"/>
       <use x="95.410156" xlink:href="#DejaVuSans-55"/>
      </g>
     </g>
    </g>
    <g id="xtick_5">
     <g id="line2d_7">
      <g>
       <use style="stroke:#000000;stroke-width:0.8;" x="500.087443" xlink:href="#m732b89c6d6" y="525.24"/>
      </g>
     </g>
     <g id="text_7">
      <!-- 3.8 -->
      <defs>
       <path d="M 31.78125 34.625 
Q 24.75 34.625 20.71875 30.859375 
Q 16.703125 27.09375 16.703125 20.515625 
Q 16.703125 13.921875 20.71875 10.15625 
Q 24.75 6.390625 31.78125 6.390625 
Q 38.8125 6.390625 42.859375 10.171875 
Q 46.921875 13.96875 46.921875 20.515625 
Q 46.921875 27.09375 42.890625 30.859375 
Q 38.875 34.625 31.78125 34.625 
z
M 21.921875 38.8125 
Q 15.578125 40.375 12.03125 44.71875 
Q 8.5 49.078125 8.5 55.328125 
Q 8.5 64.0625 14.71875 69.140625 
Q 20.953125 74.21875 31.78125 74.21875 
Q 42.671875 74.21875 48.875 69.140625 
Q 55.078125 64.0625 55.078125 55.328125 
Q 55.078125 49.078125 51.53125 44.71875 
Q 48 40.375 41.703125 38.8125 
Q 48.828125 37.15625 52.796875 32.3125 
Q 56.78125 27.484375 56.78125 20.515625 
Q 56.78125 9.90625 50.3125 4.234375 
Q 43.84375 -1.421875 31.78125 -1.421875 
Q 19.734375 -1.421875 13.25 4.234375 
Q 6.78125 9.90625 6.78125 20.515625 
Q 6.78125 27.484375 10.78125 32.3125 
Q 14.796875 37.15625 21.921875 38.8125 
z
M 18.3125 54.390625 
Q 18.3125 48.734375 21.84375 45.5625 
Q 25.390625 42.390625 31.78125 42.390625 
Q 38.140625 42.390625 41.71875 45.5625 
Q 45.3125 48.734375 45.3125 54.390625 
Q 45.3125 60.0625 41.71875 63.234375 
Q 38.140625 66.40625 31.78125 66.40625 
Q 25.390625 66.40625 21.84375 63.234375 
Q 18.3125 60.0625 18.3125 54.390625 
z
" id="DejaVuSans-56"/>
      </defs>
      <g transform="translate(488.955256 542.877813)scale(0.14 -0.14)">
       <use xlink:href="#DejaVuSans-51"/>
       <use x="63.623047" xlink:href="#DejaVuSans-46"/>
       <use x="95.410156" xlink:href="#DejaVuSans-56"/>
      </g>
     </g>
    </g>
   </g>
   <g id="line2d_8">
    <path clip-path="url(#p9dceaba7f0)" d="M 346.436016 525.24 
L 346.436016 402.93 
" style="fill:none;stroke:#ff6384;stroke-dasharray:5.55,2.4;stroke-dashoffset:0;stroke-opacity:0.8;stroke-width:1.5;"/>
   </g>
   <g id="line2d_9">
    <path clip-path="url(#p9dceaba7f0)" d="M 255.113994 525.24 
L 255.113994 402.93 
" style="fill:none;stroke:#36a2eb;stroke-dasharray:5.55,2.4;stroke-dashoffset:0;stroke-opacity:0.8;stroke-width:1.5;"/>
   </g>
   <g id="patch_10">
    <path d="M 36 525.24 
L 538.2 525.24 
" style="fill:none;stroke:#000000;stroke-linecap:square;stroke-linejoin:miter;stroke-width:0.8;"/>
   </g>
  </g>
 </g>
 <defs>
  <clipPath id="pf758092384">
   <rect height="366.93" width="502.2" x="36" y="36"/>
  </clipPath>
  <clipPath id="p9dceaba7f0">
   <rect height="122.31" width="502.2" x="36" y="402.93"/>
  </clipPath>
 </defs>
</svg>
