<?xml version="1.0" encoding="utf-8" standalone="no"?>
<!DOCTYPE svg PUBLIC "-//W3C//DTD SVG 1.1//EN"
  "http://www.w3.org/Graphics/SVG/1.1/DTD/svg11.dtd">
<!-- Created with matplotlib (https://matplotlib.org/) -->
<svg height="581.789375pt" version="1.1" viewBox="0 0 574.2 581.789375" width="574.2pt" xmlns="http://www.w3.org/2000/svg" xmlns:xlink="http://www.w3.org/1999/xlink">
 <defs>
  <style type="text/css">
*{stroke-linecap:butt;stroke-linejoin:round;}
  </style>
 </defs>
 <g id="figure_1">
  <g id="patch_1">
   <path d="M 0 581.789375 
L 574.2 581.789375 
L 574.2 0 
L 0 0 
z
" style="fill:none;"/>
  </g>
  <g id="axes_1">
   <g id="patch_2">
    <path d="M 36 402.93 
L 538.2 402.93 
L 538.2 36 
L 36 36 
z
" style="fill:none;"/>
   </g>
   <g id="PolyCollection_1">
    <defs>
     <path d="M 174.324675 -195.538011 
L 174.324675 -195.650004 
L 177.769604 -195.692234 
L 181.214534 -195.749007 
L 184.659464 -195.8248 
L 188.104394 -195.925281 
L 191.549324 -196.057565 
L 194.994254 -196.230497 
L 198.439183 -196.454982 
L 201.884113 -196.744335 
L 205.329043 -197.114666 
L 208.773973 -197.585273 
L 212.218903 -198.179047 
L 215.663833 -198.922859 
L 219.108762 -199.847921 
L 222.553692 -200.990079 
L 225.998622 -202.390029 
L 229.443552 -204.093399 
L 232.888482 -206.150691 
L 236.333411 -208.617009 
L 239.778341 -211.551575 
L 243.223271 -215.016962 
L 246.668201 -219.078053 
L 250.113131 -223.800667 
L 253.558061 -229.249878 
L 257.00299 -235.488004 
L 260.44792 -242.572312 
L 263.89285 -250.552459 
L 267.33778 -259.467747 
L 270.78271 -269.344261 
L 274.22764 -280.192004 
L 277.672569 -292.002137 
L 281.117499 -304.744465 
L 284.562429 -318.365297 
L 288.007359 -332.785841 
L 291.452289 -347.901251 
L 294.897219 -363.580456 
L 298.342148 -379.666871 
L 301.787078 -395.980052 
L 305.232008 -412.31833 
L 308.676938 -428.4624 
L 312.121868 -444.179822 
L 315.566797 -459.230303 
L 319.011727 -473.371627 
L 322.456657 -486.366018 
L 325.901587 -497.986726 
L 329.346517 -508.02457 
L 332.791447 -516.294181 
L 336.236376 -522.639693 
L 339.681306 -526.939623 
L 343.126236 -529.110739 
L 346.571166 -529.110739 
L 350.016096 -526.939623 
L 353.461026 -522.639693 
L 356.905955 -516.294181 
L 360.350885 -508.02457 
L 363.795815 -497.986726 
L 367.240745 -486.366018 
L 370.685675 -473.371627 
L 374.130604 -459.230303 
L 377.575534 -444.179822 
L 381.020464 -428.4624 
L 384.465394 -412.31833 
L 387.910324 -395.980052 
L 391.355254 -379.666871 
L 394.800183 -363.580456 
L 398.245113 -347.901251 
L 401.690043 -332.785841 
L 405.134973 -318.365297 
L 408.579903 -304.744465 
L 412.024833 -292.002137 
L 415.469762 -280.192004 
L 418.914692 -269.344261 
L 422.359622 -259.467747 
L 425.804552 -250.552459 
L 429.249482 -242.572312 
L 432.694411 -235.488004 
L 436.139341 -229.249878 
L 439.584271 -223.800667 
L 443.029201 -219.078053 
L 446.474131 -215.016962 
L 449.919061 -211.551575 
L 453.36399 -208.617009 
L 456.80892 -206.150691 
L 460.25385 -204.093399 
L 463.69878 -202.390029 
L 467.14371 -200.990079 
L 470.58864 -199.847921 
L 474.033569 -198.922859 
L 477.478499 -198.179047 
L 480.923429 -197.585273 
L 484.368359 -197.114666 
L 487.813289 -196.744335 
L 491.258219 -196.454982 
L 494.703148 -196.230497 
L 498.148078 -196.057565 
L 501.593008 -195.925281 
L 505.037938 -195.8248 
L 508.482868 -195.749007 
L 511.927797 -195.692234 
L 515.372727 -195.650004 
L 515.372727 -195.538011 
L 515.372727 -195.538011 
L 511.927797 -195.538011 
L 508.482868 -195.538011 
L 505.037938 -195.538011 
L 501.593008 -195.538011 
L 498.148078 -195.538011 
L 494.703148 -195.538011 
L 491.258219 -195.538011 
L 487.813289 -195.538011 
L 484.368359 -195.538011 
L 480.923429 -195.538011 
L 477.478499 -195.538011 
L 474.033569 -195.538011 
L 470.58864 -195.538011 
L 467.14371 -195.538011 
L 463.69878 -195.538011 
L 460.25385 -195.538011 
L 456.80892 -195.538011 
L 453.36399 -195.538011 
L 449.919061 -195.538011 
L 446.474131 -195.538011 
L 443.029201 -195.538011 
L 439.584271 -195.538011 
L 436.139341 -195.538011 
L 432.694411 -195.538011 
L 429.249482 -195.538011 
L 425.804552 -195.538011 
L 422.359622 -195.538011 
L 418.914692 -195.538011 
L 415.469762 -195.538011 
L 412.024833 -195.538011 
L 408.579903 -195.538011 
L 405.134973 -195.538011 
L 401.690043 -195.538011 
L 398.245113 -195.538011 
L 394.800183 -195.538011 
L 391.355254 -195.538011 
L 387.910324 -195.538011 
L 384.465394 -195.538011 
L 381.020464 -195.538011 
L 377.575534 -195.538011 
L 374.130604 -195.538011 
L 370.685675 -195.538011 
L 367.240745 -195.538011 
L 363.795815 -195.538011 
L 360.350885 -195.538011 
L 356.905955 -195.538011 
L 353.461026 -195.538011 
L 350.016096 -195.538011 
L 346.571166 -195.538011 
L 343.126236 -195.538011 
L 339.681306 -195.538011 
L 336.236376 -195.538011 
L 332.791447 -195.538011 
L 329.346517 -195.538011 
L 325.901587 -195.538011 
L 322.456657 -195.538011 
L 319.011727 -195.538011 
L 315.566797 -195.538011 
L 312.121868 -195.538011 
L 308.676938 -195.538011 
L 305.232008 -195.538011 
L 301.787078 -195.538011 
L 298.342148 -195.538011 
L 294.897219 -195.538011 
L 291.452289 -195.538011 
L 288.007359 -195.538011 
L 284.562429 -195.538011 
L 281.117499 -195.538011 
L 277.672569 -195.538011 
L 274.22764 -195.538011 
L 270.78271 -195.538011 
L 267.33778 -195.538011 
L 263.89285 -195.538011 
L 260.44792 -195.538011 
L 257.00299 -195.538011 
L 253.558061 -195.538011 
L 250.113131 -195.538011 
L 246.668201 -195.538011 
L 243.223271 -195.538011 
L 239.778341 -195.538011 
L 236.333411 -195.538011 
L 232.888482 -195.538011 
L 229.443552 -195.538011 
L 225.998622 -195.538011 
L 222.553692 -195.538011 
L 219.108762 -195.538011 
L 215.663833 -195.538011 
L 212.218903 -195.538011 
L 208.773973 -195.538011 
L 205.329043 -195.538011 
L 201.884113 -195.538011 
L 198.439183 -195.538011 
L 194.994254 -195.538011 
L 191.549324 -195.538011 
L 188.104394 -195.538011 
L 184.659464 -195.538011 
L 181.214534 -195.538011 
L 177.769604 -195.538011 
L 174.324675 -195.538011 
z
" id="m70fefb1277" style="stroke:#ff6384;stroke-opacity:0.5;"/>
    </defs>
    <g clip-path="url(#p7fb78a7900)">
     <use style="fill:#ff6384;fill-opacity:0.5;stroke:#ff6384;stroke-opacity:0.5;" x="0" xlink:href="#m70fefb1277" y="581.789375"/>
    </g>
   </g>
   <g id="PolyCollection_2">
    <defs>
     <path d="M 58.827273 -195.538011 
L 58.827273 -195.634399 
L 62.829919 -195.670745 
L 66.832566 -195.719607 
L 70.835213 -195.78484 
L 74.83786 -195.87132 
L 78.840506 -195.985172 
L 82.843153 -196.134008 
L 86.8458 -196.327214 
L 90.848447 -196.57625 
L 94.851093 -196.89498 
L 98.85374 -197.300014 
L 102.856387 -197.811053 
L 106.859034 -198.451224 
L 110.86168 -199.247391 
L 114.864327 -200.230404 
L 118.866974 -201.435289 
L 122.869621 -202.901317 
L 126.872268 -204.671952 
L 130.874914 -206.794621 
L 134.877561 -209.320292 
L 138.880208 -212.302823 
L 142.882855 -215.798053 
L 146.885501 -219.862633 
L 150.888148 -224.552566 
L 154.890795 -229.921491 
L 158.893442 -236.018692 
L 162.896088 -242.886909 
L 166.898735 -250.559967 
L 170.901382 -259.060317 
L 174.904029 -268.396567 
L 178.906675 -278.561112 
L 182.909322 -289.527962 
L 186.911969 -301.250907 
L 190.914616 -313.662136 
L 194.917262 -326.671409 
L 198.919909 -340.16592 
L 202.922556 -354.010902 
L 206.925203 -368.051053 
L 210.927849 -382.112803 
L 214.930496 -396.007406 
L 218.933143 -409.534809 
L 222.93579 -422.488201 
L 226.938436 -434.659115 
L 230.941083 -445.842906 
L 234.94373 -455.844419 
L 238.946377 -464.483619 
L 242.949023 -471.600968 
L 246.95167 -477.062315 
L 250.954317 -480.763105 
L 254.956964 -482.631704 
L 258.95961 -482.631704 
L 262.962257 -480.763105 
L 266.964904 -477.062315 
L 270.967551 -471.600968 
L 274.970197 -464.483619 
L 278.972844 -455.844419 
L 282.975491 -445.842906 
L 286.978138 -434.659115 
L 290.980784 -422.488201 
L 294.983431 -409.534809 
L 298.986078 -396.007406 
L 302.988725 -382.112803 
L 306.991371 -368.051053 
L 310.994018 -354.010902 
L 314.996665 -340.16592 
L 318.999312 -326.671409 
L 323.001958 -313.662136 
L 327.004605 -301.250907 
L 331.007252 -289.527962 
L 335.009899 -278.561112 
L 339.012545 -268.396567 
L 343.015192 -259.060317 
L 347.017839 -250.559967 
L 351.020486 -242.886909 
L 355.023132 -236.018692 
L 359.025779 -229.921491 
L 363.028426 -224.552566 
L 367.031073 -219.862633 
L 371.033719 -215.798053 
L 375.036366 -212.302823 
L 379.039013 -209.320292 
L 383.04166 -206.794621 
L 387.044306 -204.671952 
L 391.046953 -202.901317 
L 395.0496 -201.435289 
L 399.052247 -200.230404 
L 403.054893 -199.247391 
L 407.05754 -198.451224 
L 411.060187 -197.811053 
L 415.062834 -197.300014 
L 419.06548 -196.89498 
L 423.068127 -196.57625 
L 427.070774 -196.327214 
L 431.073421 -196.134008 
L 435.076067 -195.985172 
L 439.078714 -195.87132 
L 443.081361 -195.78484 
L 447.084008 -195.719607 
L 451.086654 -195.670745 
L 455.089301 -195.634399 
L 455.089301 -195.538011 
L 455.089301 -195.538011 
L 451.086654 -195.538011 
L 447.084008 -195.538011 
L 443.081361 -195.538011 
L 439.078714 -195.538011 
L 435.076067 -195.538011 
L 431.073421 -195.538011 
L 427.070774 -195.538011 
L 423.068127 -195.538011 
L 419.06548 -195.538011 
L 415.062834 -195.538011 
L 411.060187 -195.538011 
L 407.05754 -195.538011 
L 403.054893 -195.538011 
L 399.052247 -195.538011 
L 395.0496 -195.538011 
L 391.046953 -195.538011 
L 387.044306 -195.538011 
L 383.04166 -195.538011 
L 379.039013 -195.538011 
L 375.036366 -195.538011 
L 371.033719 -195.538011 
L 367.031073 -195.538011 
L 363.028426 -195.538011 
L 359.025779 -195.538011 
L 355.023132 -195.538011 
L 351.020486 -195.538011 
L 347.017839 -195.538011 
L 343.015192 -195.538011 
L 339.012545 -195.538011 
L 335.009899 -195.538011 
L 331.007252 -195.538011 
L 327.004605 -195.538011 
L 323.001958 -195.538011 
L 318.999312 -195.538011 
L 314.996665 -195.538011 
L 310.994018 -195.538011 
L 306.991371 -195.538011 
L 302.988725 -195.538011 
L 298.986078 -195.538011 
L 294.983431 -195.538011 
L 290.980784 -195.538011 
L 286.978138 -195.538011 
L 282.975491 -195.538011 
L 278.972844 -195.538011 
L 274.970197 -195.538011 
L 270.967551 -195.538011 
L 266.964904 -195.538011 
L 262.962257 -195.538011 
L 258.95961 -195.538011 
L 254.956964 -195.538011 
L 250.954317 -195.538011 
L 246.95167 -195.538011 
L 242.949023 -195.538011 
L 238.946377 -195.538011 
L 234.94373 -195.538011 
L 230.941083 -195.538011 
L 226.938436 -195.538011 
L 222.93579 -195.538011 
L 218.933143 -195.538011 
L 214.930496 -195.538011 
L 210.927849 -195.538011 
L 206.925203 -195.538011 
L 202.922556 -195.538011 
L 198.919909 -195.538011 
L 194.917262 -195.538011 
L 190.914616 -195.538011 
L 186.911969 -195.538011 
L 182.909322 -195.538011 
L 178.906675 -195.538011 
L 174.904029 -195.538011 
L 170.901382 -195.538011 
L 166.898735 -195.538011 
L 162.896088 -195.538011 
L 158.893442 -195.538011 
L 154.890795 -195.538011 
L 150.888148 -195.538011 
L 146.885501 -195.538011 
L 142.882855 -195.538011 
L 138.880208 -195.538011 
L 134.877561 -195.538011 
L 130.874914 -195.538011 
L 126.872268 -195.538011 
L 122.869621 -195.538011 
L 118.866974 -195.538011 
L 114.864327 -195.538011 
L 110.86168 -195.538011 
L 106.859034 -195.538011 
L 102.856387 -195.538011 
L 98.85374 -195.538011 
L 94.851093 -195.538011 
L 90.848447 -195.538011 
L 86.8458 -195.538011 
L 82.843153 -195.538011 
L 78.840506 -195.538011 
L 74.83786 -195.538011 
L 70.835213 -195.538011 
L 66.832566 -195.538011 
L 62.829919 -195.538011 
L 58.827273 -195.538011 
z
" id="m9b66001168" style="stroke:#36a2eb;stroke-opacity:0.5;"/>
    </defs>
    <g clip-path="url(#p7fb78a7900)">
     <use style="fill:#36a2eb;fill-opacity:0.5;stroke:#36a2eb;stroke-opacity:0.5;" x="0" xlink:href="#m9b66001168" y="581.789375"/>
    </g>
   </g>
   <g id="line2d_1">
    <path clip-path="url(#p7fb78a7900)" d="M 174.324675 386.139371 
L 177.769604 386.097141 
L 181.214534 386.040368 
L 184.659464 385.964575 
L 188.104394 385.864094 
L 191.549324 385.73181 
L 194.994254 385.558878 
L 198.439183 385.334393 
L 201.884113 385.04504 
L 205.329043 384.674709 
L 208.773973 384.204102 
L 212.218903 383.610328 
L 215.663833 382.866516 
L 219.108762 381.941454 
L 222.553692 380.799296 
L 225.998622 379.399346 
L 229.443552 377.695976 
L 232.888482 375.638684 
L 236.333411 373.172366 
L 239.778341 370.2378 
L 243.223271 366.772413 
L 246.668201 362.711322 
L 250.113131 357.988708 
L 253.558061 352.539497 
L 257.00299 346.301371 
L 260.44792 339.217063 
L 263.89285 331.236916 
L 267.33778 322.321628 
L 270.78271 312.445114 
L 274.22764 301.597371 
L 277.672569 289.787238 
L 281.117499 277.04491 
L 284.562429 263.424078 
L 288.007359 249.003534 
L 291.452289 233.888124 
L 294.897219 218.208919 
L 298.342148 202.122504 
L 301.787078 185.809323 
L 305.232008 169.471045 
L 308.676938 153.326975 
L 312.121868 137.609553 
L 315.566797 122.559072 
L 319.011727 108.417748 
L 322.456657 95.423357 
L 325.901587 83.802649 
L 329.346517 73.764805 
L 332.791447 65.495194 
L 336.236376 59.149682 
L 339.681306 54.849752 
L 343.126236 52.678636 
L 346.571166 52.678636 
L 350.016096 54.849752 
L 353.461026 59.149682 
L 356.905955 65.495194 
L 360.350885 73.764805 
L 363.795815 83.802649 
L 367.240745 95.423357 
L 370.685675 108.417748 
L 374.130604 122.559072 
L 377.575534 137.609553 
L 381.020464 153.326975 
L 384.465394 169.471045 
L 387.910324 185.809323 
L 391.355254 202.122504 
L 394.800183 218.208919 
L 398.245113 233.888124 
L 401.690043 249.003534 
L 405.134973 263.424078 
L 408.579903 277.04491 
L 412.024833 289.787238 
L 415.469762 301.597371 
L 418.914692 312.445114 
L 422.359622 322.321628 
L 425.804552 331.236916 
L 429.249482 339.217063 
L 432.694411 346.301371 
L 436.139341 352.539497 
L 439.584271 357.988708 
L 443.029201 362.711322 
L 446.474131 366.772413 
L 449.919061 370.2378 
L 453.36399 373.172366 
L 456.80892 375.638684 
L 460.25385 377.695976 
L 463.69878 379.399346 
L 467.14371 380.799296 
L 470.58864 381.941454 
L 474.033569 382.866516 
L 477.478499 383.610328 
L 480.923429 384.204102 
L 484.368359 384.674709 
L 487.813289 385.04504 
L 491.258219 385.334393 
L 494.703148 385.558878 
L 498.148078 385.73181 
L 501.593008 385.864094 
L 505.037938 385.964575 
L 508.482868 386.040368 
L 511.927797 386.097141 
L 515.372727 386.139371 
" style="fill:none;stroke:#ff6384;stroke-linecap:square;"/>
   </g>
   <g id="line2d_2">
    <path clip-path="url(#p7fb78a7900)" d="M 58.827273 386.154976 
L 62.829919 386.11863 
L 66.832566 386.069768 
L 70.835213 386.004535 
L 74.83786 385.918055 
L 78.840506 385.804203 
L 82.843153 385.655367 
L 86.8458 385.462161 
L 90.848447 385.213125 
L 94.851093 384.894395 
L 98.85374 384.489361 
L 102.856387 383.978322 
L 106.859034 383.338151 
L 110.86168 382.541984 
L 114.864327 381.558971 
L 118.866974 380.354086 
L 122.869621 378.888058 
L 126.872268 377.117423 
L 130.874914 374.994754 
L 134.877561 372.469083 
L 138.880208 369.486552 
L 142.882855 365.991322 
L 146.885501 361.926742 
L 150.888148 357.236809 
L 154.890795 351.867884 
L 158.893442 345.770683 
L 162.896088 338.902466 
L 166.898735 331.229408 
L 170.901382 322.729058 
L 174.904029 313.392808 
L 178.906675 303.228263 
L 182.909322 292.261413 
L 186.911969 280.538468 
L 190.914616 268.127239 
L 194.917262 255.117966 
L 198.919909 241.623455 
L 202.922556 227.778473 
L 206.925203 213.738322 
L 210.927849 199.676572 
L 214.930496 185.781969 
L 218.933143 172.254566 
L 222.93579 159.301174 
L 226.938436 147.13026 
L 230.941083 135.946469 
L 234.94373 125.944956 
L 238.946377 117.305756 
L 242.949023 110.188407 
L 246.95167 104.72706 
L 250.954317 101.02627 
L 254.956964 99.157671 
L 258.95961 99.157671 
L 262.962257 101.02627 
L 266.964904 104.72706 
L 270.967551 110.188407 
L 274.970197 117.305756 
L 278.972844 125.944956 
L 282.975491 135.946469 
L 286.978138 147.13026 
L 290.980784 159.301174 
L 294.983431 172.254566 
L 298.986078 185.781969 
L 302.988725 199.676572 
L 306.991371 213.738322 
L 310.994018 227.778473 
L 314.996665 241.623455 
L 318.999312 255.117966 
L 323.001958 268.127239 
L 327.004605 280.538468 
L 331.007252 292.261413 
L 335.009899 303.228263 
L 339.012545 313.392808 
L 343.015192 322.729058 
L 347.017839 331.229408 
L 351.020486 338.902466 
L 355.023132 345.770683 
L 359.025779 351.867884 
L 363.028426 357.236809 
L 367.031073 361.926742 
L 371.033719 365.991322 
L 375.036366 369.486552 
L 379.039013 372.469083 
L 383.04166 374.994754 
L 387.044306 377.117423 
L 391.046953 378.888058 
L 395.0496 380.354086 
L 399.052247 381.558971 
L 403.054893 382.541984 
L 407.05754 383.338151 
L 411.060187 383.978322 
L 415.062834 384.489361 
L 419.06548 384.894395 
L 423.068127 385.213125 
L 427.070774 385.462161 
L 431.073421 385.655367 
L 435.076067 385.804203 
L 439.078714 385.918055 
L 443.081361 386.004535 
L 447.084008 386.069768 
L 451.086654 386.11863 
L 455.089301 386.154976 
" style="fill:none;stroke:#36a2eb;stroke-linecap:square;"/>
   </g>
   <g id="patch_3">
    <path d="M 36 402.93 
L 538.2 402.93 
" style="fill:none;stroke:#000000;stroke-linecap:square;stroke-linejoin:miter;stroke-width:0.8;"/>
   </g>
   <g id="legend_1">
    <g id="patch_4">
     <path d="M 414.919063 88.29875 
L 528.4 88.29875 
Q 531.2 88.29875 531.2 85.49875 
L 531.2 45.8 
Q 531.2 43 528.4 43 
L 414.919063 43 
Q 412.119063 43 412.119063 45.8 
L 412.119063 85.49875 
Q 412.119063 88.29875 414.919063 88.29875 
z
" style="fill:#ffffff;opacity:0.8;stroke:#cccccc;stroke-linejoin:miter;"/>
    </g>
    <g id="patch_5">
     <path d="M 417.719063 59.237813 
L 445.719063 59.237813 
L 445.719063 49.437813 
L 417.719063 49.437813 
z
" style="fill:#ff6384;opacity:0.5;stroke:#ff6384;stroke-linejoin:miter;"/>
    </g>
    <g id="text_1">
     <!-- sidemenu -->
     <defs>
      <path d="M 44.28125 53.078125 
L 44.28125 44.578125 
Q 40.484375 46.53125 36.375 47.5 
Q 32.28125 48.484375 27.875 48.484375 
Q 21.1875 48.484375 17.84375 46.4375 
Q 14.5 44.390625 14.5 40.28125 
Q 14.5 37.15625 16.890625 35.375 
Q 19.28125 33.59375 26.515625 31.984375 
L 29.59375 31.296875 
Q 39.15625 29.25 43.1875 25.515625 
Q 47.21875 21.78125 47.21875 15.09375 
Q 47.21875 7.46875 41.1875 3.015625 
Q 35.15625 -1.421875 24.609375 -1.421875 
Q 20.21875 -1.421875 15.453125 -0.5625 
Q 10.6875 0.296875 5.421875 2 
L 5.421875 11.28125 
Q 10.40625 8.6875 15.234375 7.390625 
Q 20.0625 6.109375 24.8125 6.109375 
Q 31.15625 6.109375 34.5625 8.28125 
Q 37.984375 10.453125 37.984375 14.40625 
Q 37.984375 18.0625 35.515625 20.015625 
Q 33.0625 21.96875 24.703125 23.78125 
L 21.578125 24.515625 
Q 13.234375 26.265625 9.515625 29.90625 
Q 5.8125 33.546875 5.8125 39.890625 
Q 5.8125 47.609375 11.28125 51.796875 
Q 16.75 56 26.8125 56 
Q 31.78125 56 36.171875 55.265625 
Q 40.578125 54.546875 44.28125 53.078125 
z
" id="DejaVuSans-115"/>
      <path d="M 9.421875 54.6875 
L 18.40625 54.6875 
L 18.40625 0 
L 9.421875 0 
z
M 9.421875 75.984375 
L 18.40625 75.984375 
L 18.40625 64.59375 
L 9.421875 64.59375 
z
" id="DejaVuSans-105"/>
      <path d="M 45.40625 46.390625 
L 45.40625 75.984375 
L 54.390625 75.984375 
L 54.390625 0 
L 45.40625 0 
L 45.40625 8.203125 
Q 42.578125 3.328125 38.25 0.953125 
Q 33.9375 -1.421875 27.875 -1.421875 
Q 17.96875 -1.421875 11.734375 6.484375 
Q 5.515625 14.40625 5.515625 27.296875 
Q 5.515625 40.1875 11.734375 48.09375 
Q 17.96875 56 27.875 56 
Q 33.9375 56 38.25 53.625 
Q 42.578125 51.265625 45.40625 46.390625 
z
M 14.796875 27.296875 
Q 14.796875 17.390625 18.875 11.75 
Q 22.953125 6.109375 30.078125 6.109375 
Q 37.203125 6.109375 41.296875 11.75 
Q 45.40625 17.390625 45.40625 27.296875 
Q 45.40625 37.203125 41.296875 42.84375 
Q 37.203125 48.484375 30.078125 48.484375 
Q 22.953125 48.484375 18.875 42.84375 
Q 14.796875 37.203125 14.796875 27.296875 
z
" id="DejaVuSans-100"/>
      <path d="M 56.203125 29.59375 
L 56.203125 25.203125 
L 14.890625 25.203125 
Q 15.484375 15.921875 20.484375 11.0625 
Q 25.484375 6.203125 34.421875 6.203125 
Q 39.59375 6.203125 44.453125 7.46875 
Q 49.3125 8.734375 54.109375 11.28125 
L 54.109375 2.78125 
Q 49.265625 0.734375 44.1875 -0.34375 
Q 39.109375 -1.421875 33.890625 -1.421875 
Q 20.796875 -1.421875 13.15625 6.1875 
Q 5.515625 13.8125 5.515625 26.8125 
Q 5.515625 40.234375 12.765625 48.109375 
Q 20.015625 56 32.328125 56 
Q 43.359375 56 49.78125 48.890625 
Q 56.203125 41.796875 56.203125 29.59375 
z
M 47.21875 32.234375 
Q 47.125 39.59375 43.09375 43.984375 
Q 39.0625 48.390625 32.421875 48.390625 
Q 24.90625 48.390625 20.390625 44.140625 
Q 15.875 39.890625 15.1875 32.171875 
z
" id="DejaVuSans-101"/>
      <path d="M 52 44.1875 
Q 55.375 50.25 60.0625 53.125 
Q 64.75 56 71.09375 56 
Q 79.640625 56 84.28125 50.015625 
Q 88.921875 44.046875 88.921875 33.015625 
L 88.921875 0 
L 79.890625 0 
L 79.890625 32.71875 
Q 79.890625 40.578125 77.09375 44.375 
Q 74.3125 48.1875 68.609375 48.1875 
Q 61.625 48.1875 57.5625 43.546875 
Q 53.515625 38.921875 53.515625 30.90625 
L 53.515625 0 
L 44.484375 0 
L 44.484375 32.71875 
Q 44.484375 40.625 41.703125 44.40625 
Q 38.921875 48.1875 33.109375 48.1875 
Q 26.21875 48.1875 22.15625 43.53125 
Q 18.109375 38.875 18.109375 30.90625 
L 18.109375 0 
L 9.078125 0 
L 9.078125 54.6875 
L 18.109375 54.6875 
L 18.109375 46.1875 
Q 21.1875 51.21875 25.484375 53.609375 
Q 29.78125 56 35.6875 56 
Q 41.65625 56 45.828125 52.96875 
Q 50 49.953125 52 44.1875 
z
" id="DejaVuSans-109"/>
      <path d="M 54.890625 33.015625 
L 54.890625 0 
L 45.90625 0 
L 45.90625 32.71875 
Q 45.90625 40.484375 42.875 44.328125 
Q 39.84375 48.1875 33.796875 48.1875 
Q 26.515625 48.1875 22.3125 43.546875 
Q 18.109375 38.921875 18.109375 30.90625 
L 18.109375 0 
L 9.078125 0 
L 9.078125 54.6875 
L 18.109375 54.6875 
L 18.109375 46.1875 
Q 21.34375 51.125 25.703125 53.5625 
Q 30.078125 56 35.796875 56 
Q 45.21875 56 50.046875 50.171875 
Q 54.890625 44.34375 54.890625 33.015625 
z
" id="DejaVuSans-110"/>
      <path d="M 8.5 21.578125 
L 8.5 54.6875 
L 17.484375 54.6875 
L 17.484375 21.921875 
Q 17.484375 14.15625 20.5 10.265625 
Q 23.53125 6.390625 29.59375 6.390625 
Q 36.859375 6.390625 41.078125 11.03125 
Q 45.3125 15.671875 45.3125 23.6875 
L 45.3125 54.6875 
L 54.296875 54.6875 
L 54.296875 0 
L 45.3125 0 
L 45.3125 8.40625 
Q 42.046875 3.421875 37.71875 1 
Q 33.40625 -1.421875 27.6875 -1.421875 
Q 18.265625 -1.421875 13.375 4.4375 
Q 8.5 10.296875 8.5 21.578125 
z
M 31.109375 56 
z
" id="DejaVuSans-117"/>
     </defs>
     <g transform="translate(456.919063 59.237813)scale(0.14 -0.14)">
      <use xlink:href="#DejaVuSans-115"/>
      <use x="52.099609" xlink:href="#DejaVuSans-105"/>
      <use x="79.882812" xlink:href="#DejaVuSans-100"/>
      <use x="143.359375" xlink:href="#DejaVuSans-101"/>
      <use x="204.882812" xlink:href="#DejaVuSans-109"/>
      <use x="302.294922" xlink:href="#DejaVuSans-101"/>
      <use x="363.818359" xlink:href="#DejaVuSans-110"/>
      <use x="427.197266" xlink:href="#DejaVuSans-117"/>
     </g>
    </g>
    <g id="patch_6">
     <path d="M 417.719063 79.787188 
L 445.719063 79.787188 
L 445.719063 69.987188 
L 417.719063 69.987188 
z
" style="fill:#36a2eb;opacity:0.5;stroke:#36a2eb;stroke-linejoin:miter;"/>
    </g>
    <g id="text_2">
     <!-- tabbar -->
     <defs>
      <path d="M 18.3125 70.21875 
L 18.3125 54.6875 
L 36.8125 54.6875 
L 36.8125 47.703125 
L 18.3125 47.703125 
L 18.3125 18.015625 
Q 18.3125 11.328125 20.140625 9.421875 
Q 21.96875 7.515625 27.59375 7.515625 
L 36.8125 7.515625 
L 36.8125 0 
L 27.59375 0 
Q 17.1875 0 13.234375 3.875 
Q 9.28125 7.765625 9.28125 18.015625 
L 9.28125 47.703125 
L 2.6875 47.703125 
L 2.6875 54.6875 
L 9.28125 54.6875 
L 9.28125 70.21875 
z
" id="DejaVuSans-116"/>
      <path d="M 34.28125 27.484375 
Q 23.390625 27.484375 19.1875 25 
Q 14.984375 22.515625 14.984375 16.5 
Q 14.984375 11.71875 18.140625 8.90625 
Q 21.296875 6.109375 26.703125 6.109375 
Q 34.1875 6.109375 38.703125 11.40625 
Q 43.21875 16.703125 43.21875 25.484375 
L 43.21875 27.484375 
z
M 52.203125 31.203125 
L 52.203125 0 
L 43.21875 0 
L 43.21875 8.296875 
Q 40.140625 3.328125 35.546875 0.953125 
Q 30.953125 -1.421875 24.3125 -1.421875 
Q 15.921875 -1.421875 10.953125 3.296875 
Q 6 8.015625 6 15.921875 
Q 6 25.140625 12.171875 29.828125 
Q 18.359375 34.515625 30.609375 34.515625 
L 43.21875 34.515625 
L 43.21875 35.40625 
Q 43.21875 41.609375 39.140625 45 
Q 35.0625 48.390625 27.6875 48.390625 
Q 23 48.390625 18.546875 47.265625 
Q 14.109375 46.140625 10.015625 43.890625 
L 10.015625 52.203125 
Q 14.9375 54.109375 19.578125 55.046875 
Q 24.21875 56 28.609375 56 
Q 40.484375 56 46.34375 49.84375 
Q 52.203125 43.703125 52.203125 31.203125 
z
" id="DejaVuSans-97"/>
      <path d="M 48.6875 27.296875 
Q 48.6875 37.203125 44.609375 42.84375 
Q 40.53125 48.484375 33.40625 48.484375 
Q 26.265625 48.484375 22.1875 42.84375 
Q 18.109375 37.203125 18.109375 27.296875 
Q 18.109375 17.390625 22.1875 11.75 
Q 26.265625 6.109375 33.40625 6.109375 
Q 40.53125 6.109375 44.609375 11.75 
Q 48.6875 17.390625 48.6875 27.296875 
z
M 18.109375 46.390625 
Q 20.953125 51.265625 25.265625 53.625 
Q 29.59375 56 35.59375 56 
Q 45.5625 56 51.78125 48.09375 
Q 58.015625 40.1875 58.015625 27.296875 
Q 58.015625 14.40625 51.78125 6.484375 
Q 45.5625 -1.421875 35.59375 -1.421875 
Q 29.59375 -1.421875 25.265625 0.953125 
Q 20.953125 3.328125 18.109375 8.203125 
L 18.109375 0 
L 9.078125 0 
L 9.078125 75.984375 
L 18.109375 75.984375 
z
" id="DejaVuSans-98"/>
      <path d="M 41.109375 46.296875 
Q 39.59375 47.171875 37.8125 47.578125 
Q 36.03125 48 33.890625 48 
Q 26.265625 48 22.1875 43.046875 
Q 18.109375 38.09375 18.109375 28.8125 
L 18.109375 0 
L 9.078125 0 
L 9.078125 54.6875 
L 18.109375 54.6875 
L 18.109375 46.1875 
Q 20.953125 51.171875 25.484375 53.578125 
Q 30.03125 56 36.53125 56 
Q 37.453125 56 38.578125 55.875 
Q 39.703125 55.765625 41.0625 55.515625 
z
" id="DejaVuSans-114"/>
     </defs>
     <g transform="translate(456.919063 79.787188)scale(0.14 -0.14)">
      <use xlink:href="#DejaVuSans-116"/>
      <use x="39.208984" xlink:href="#DejaVuSans-97"/>
      <use x="100.488281" xlink:href="#DejaVuSans-98"/>
      <use x="163.964844" xlink:href="#DejaVuSans-98"/>
      <use x="227.441406" xlink:href="#DejaVuSans-97"/>
      <use x="288.720703" xlink:href="#DejaVuSans-114"/>
     </g>
    </g>
   </g>
  </g>
  <g id="axes_2">
   <g id="patch_7">
    <path d="M 36 525.24 
L 538.2 525.24 
L 538.2 402.93 
L 36 402.93 
z
" style="fill:none;"/>
   </g>
   <g id="patch_8">
    <path clip-path="url(#p3bec498297)" d="M 261.291928 519.680455 
L 428.405474 519.680455 
L 428.405474 482.616818 
L 261.291928 482.616818 
z
" style="fill:#ff6384;opacity:0.5;"/>
   </g>
   <g id="patch_9">
    <path clip-path="url(#p3bec498297)" d="M 159.87409 445.553182 
L 354.042484 445.553182 
L 354.042484 408.489545 
L 159.87409 408.489545 
z
" style="fill:#36a2eb;opacity:0.5;"/>
   </g>
   <g id="matplotlib.axis_1">
    <g id="xtick_1">
     <g id="line2d_3">
      <defs>
       <path d="M 0 0 
L 0 3.5 
" id="m923224bced" style="stroke:#000000;stroke-width:0.8;"/>
      </defs>
      <g>
       <use style="stroke:#000000;stroke-width:0.8;" x="120.737678" xlink:href="#m923224bced" y="525.24"/>
      </g>
     </g>
     <g id="text_3">
      <!-- 3.4 -->
      <defs>
       <path d="M 40.578125 39.3125 
Q 47.65625 37.796875 51.625 33 
Q 55.609375 28.21875 55.609375 21.1875 
Q 55.609375 10.40625 48.1875 4.484375 
Q 40.765625 -1.421875 27.09375 -1.421875 
Q 22.515625 -1.421875 17.65625 -0.515625 
Q 12.796875 0.390625 7.625 2.203125 
L 7.625 11.71875 
Q 11.71875 9.328125 16.59375 8.109375 
Q 21.484375 6.890625 26.8125 6.890625 
Q 36.078125 6.890625 40.9375 10.546875 
Q 45.796875 14.203125 45.796875 21.1875 
Q 45.796875 27.640625 41.28125 31.265625 
Q 36.765625 34.90625 28.71875 34.90625 
L 20.21875 34.90625 
L 20.21875 43.015625 
L 29.109375 43.015625 
Q 36.375 43.015625 40.234375 45.921875 
Q 44.09375 48.828125 44.09375 54.296875 
Q 44.09375 59.90625 40.109375 62.90625 
Q 36.140625 65.921875 28.71875 65.921875 
Q 24.65625 65.921875 20.015625 65.03125 
Q 15.375 64.15625 9.8125 62.3125 
L 9.8125 71.09375 
Q 15.4375 72.65625 20.34375 73.4375 
Q 25.25 74.21875 29.59375 74.21875 
Q 40.828125 74.21875 47.359375 69.109375 
Q 53.90625 64.015625 53.90625 55.328125 
Q 53.90625 49.265625 50.4375 45.09375 
Q 46.96875 40.921875 40.578125 39.3125 
z
" id="DejaVuSans-51"/>
       <path d="M 10.6875 12.40625 
L 21 12.40625 
L 21 0 
L 10.6875 0 
z
" id="DejaVuSans-46"/>
       <path d="M 37.796875 64.3125 
L 12.890625 25.390625 
L 37.796875 25.390625 
z
M 35.203125 72.90625 
L 47.609375 72.90625 
L 47.609375 25.390625 
L 58.015625 25.390625 
L 58.015625 17.1875 
L 47.609375 17.1875 
L 47.609375 0 
L 37.796875 0 
L 37.796875 17.1875 
L 4.890625 17.1875 
L 4.890625 26.703125 
z
" id="DejaVuSans-52"/>
      </defs>
      <g transform="translate(109.60549 542.877813)scale(0.14 -0.14)">
       <use xlink:href="#DejaVuSans-51"/>
       <use x="63.623047" xlink:href="#DejaVuSans-46"/>
       <use x="95.410156" xlink:href="#DejaVuSans-52"/>
      </g>
     </g>
    </g>
    <g id="xtick_2">
     <g id="line2d_4">
      <g>
       <use style="stroke:#000000;stroke-width:0.8;" x="216.063506" xlink:href="#m923224bced" y="525.24"/>
      </g>
     </g>
     <g id="text_4">
      <!-- 3.5 -->
      <defs>
       <path d="M 10.796875 72.90625 
L 49.515625 72.90625 
L 49.515625 64.59375 
L 19.828125 64.59375 
L 19.828125 46.734375 
Q 21.96875 47.46875 24.109375 47.828125 
Q 26.265625 48.1875 28.421875 48.1875 
Q 40.625 48.1875 47.75 41.5 
Q 54.890625 34.8125 54.890625 23.390625 
Q 54.890625 11.625 47.5625 5.09375 
Q 40.234375 -1.421875 26.90625 -1.421875 
Q 22.3125 -1.421875 17.546875 -0.640625 
Q 12.796875 0.140625 7.71875 1.703125 
L 7.71875 11.625 
Q 12.109375 9.234375 16.796875 8.0625 
Q 21.484375 6.890625 26.703125 6.890625 
Q 35.15625 6.890625 40.078125 11.328125 
Q 45.015625 15.765625 45.015625 23.390625 
Q 45.015625 31 40.078125 35.4375 
Q 35.15625 39.890625 26.703125 39.890625 
Q 22.75 39.890625 18.8125 39.015625 
Q 14.890625 38.140625 10.796875 36.28125 
z
" id="DejaVuSans-53"/>
      </defs>
      <g transform="translate(204.931319 542.877813)scale(0.14 -0.14)">
       <use xlink:href="#DejaVuSans-51"/>
       <use x="63.623047" xlink:href="#DejaVuSans-46"/>
       <use x="95.410156" xlink:href="#DejaVuSans-53"/>
      </g>
     </g>
    </g>
    <g id="xtick_3">
     <g id="line2d_5">
      <g>
       <use style="stroke:#000000;stroke-width:0.8;" x="311.389335" xlink:href="#m923224bced" y="525.24"/>
      </g>
     </g>
     <g id="text_5">
      <!-- 3.6 -->
      <defs>
       <path d="M 33.015625 40.375 
Q 26.375 40.375 22.484375 35.828125 
Q 18.609375 31.296875 18.609375 23.390625 
Q 18.609375 15.53125 22.484375 10.953125 
Q 26.375 6.390625 33.015625 6.390625 
Q 39.65625 6.390625 43.53125 10.953125 
Q 47.40625 15.53125 47.40625 23.390625 
Q 47.40625 31.296875 43.53125 35.828125 
Q 39.65625 40.375 33.015625 40.375 
z
M 52.59375 71.296875 
L 52.59375 62.3125 
Q 48.875 64.0625 45.09375 64.984375 
Q 41.3125 65.921875 37.59375 65.921875 
Q 27.828125 65.921875 22.671875 59.328125 
Q 17.53125 52.734375 16.796875 39.40625 
Q 19.671875 43.65625 24.015625 45.921875 
Q 28.375 48.1875 33.59375 48.1875 
Q 44.578125 48.1875 50.953125 41.515625 
Q 57.328125 34.859375 57.328125 23.390625 
Q 57.328125 12.15625 50.6875 5.359375 
Q 44.046875 -1.421875 33.015625 -1.421875 
Q 20.359375 -1.421875 13.671875 8.265625 
Q 6.984375 17.96875 6.984375 36.375 
Q 6.984375 53.65625 15.1875 63.9375 
Q 23.390625 74.21875 37.203125 74.21875 
Q 40.921875 74.21875 44.703125 73.484375 
Q 48.484375 72.75 52.59375 71.296875 
z
" id="DejaVuSans-54"/>
      </defs>
      <g transform="translate(300.257148 542.877813)scale(0.14 -0.14)">
       <use xlink:href="#DejaVuSans-51"/>
       <use x="63.623047" xlink:href="#DejaVuSans-46"/>
       <use x="95.410156" xlink:href="#DejaVuSans-54"/>
      </g>
     </g>
    </g>
    <g id="xtick_4">
     <g id="line2d_6">
      <g>
       <use style="stroke:#000000;stroke-width:0.8;" x="406.715164" xlink:href="#m923224bced" y="525.24"/>
      </g>
     </g>
     <g id="text_6">
      <!-- 3.7 -->
      <defs>
       <path d="M 8.203125 72.90625 
L 55.078125 72.90625 
L 55.078125 68.703125 
L 28.609375 0 
L 18.3125 0 
L 43.21875 64.59375 
L 8.203125 64.59375 
z
" id="DejaVuSans-55"/>
      </defs>
      <g transform="translate(395.582976 542.877813)scale(0.14 -0.14)">
       <use xlink:href="#DejaVuSans-51"/>
       <use x="63.623047" xlink:href="#DejaVuSans-46"/>
       <use x="95.410156" xlink:href="#DejaVuSans-55"/>
      </g>
     </g>
    </g>
    <g id="xtick_5">
     <g id="line2d_7">
      <g>
       <use style="stroke:#000000;stroke-width:0.8;" x="502.040992" xlink:href="#m923224bced" y="525.24"/>
      </g>
     </g>
     <g id="text_7">
      <!-- 3.8 -->
      <defs>
       <path d="M 31.78125 34.625 
Q 24.75 34.625 20.71875 30.859375 
Q 16.703125 27.09375 16.703125 20.515625 
Q 16.703125 13.921875 20.71875 10.15625 
Q 24.75 6.390625 31.78125 6.390625 
Q 38.8125 6.390625 42.859375 10.171875 
Q 46.921875 13.96875 46.921875 20.515625 
Q 46.921875 27.09375 42.890625 30.859375 
Q 38.875 34.625 31.78125 34.625 
z
M 21.921875 38.8125 
Q 15.578125 40.375 12.03125 44.71875 
Q 8.5 49.078125 8.5 55.328125 
Q 8.5 64.0625 14.71875 69.140625 
Q 20.953125 74.21875 31.78125 74.21875 
Q 42.671875 74.21875 48.875 69.140625 
Q 55.078125 64.0625 55.078125 55.328125 
Q 55.078125 49.078125 51.53125 44.71875 
Q 48 40.375 41.703125 38.8125 
Q 48.828125 37.15625 52.796875 32.3125 
Q 56.78125 27.484375 56.78125 20.515625 
Q 56.78125 9.90625 50.3125 4.234375 
Q 43.84375 -1.421875 31.78125 -1.421875 
Q 19.734375 -1.421875 13.25 4.234375 
Q 6.78125 9.90625 6.78125 20.515625 
Q 6.78125 27.484375 10.78125 32.3125 
Q 14.796875 37.15625 21.921875 38.8125 
z
M 18.3125 54.390625 
Q 18.3125 48.734375 21.84375 45.5625 
Q 25.390625 42.390625 31.78125 42.390625 
Q 38.140625 42.390625 41.71875 45.5625 
Q 45.3125 48.734375 45.3125 54.390625 
Q 45.3125 60.0625 41.71875 63.234375 
Q 38.140625 66.40625 31.78125 66.40625 
Q 25.390625 66.40625 21.84375 63.234375 
Q 18.3125 60.0625 18.3125 54.390625 
z
" id="DejaVuSans-56"/>
      </defs>
      <g transform="translate(490.908805 542.877813)scale(0.14 -0.14)">
       <use xlink:href="#DejaVuSans-51"/>
       <use x="63.623047" xlink:href="#DejaVuSans-46"/>
       <use x="95.410156" xlink:href="#DejaVuSans-56"/>
      </g>
     </g>
    </g>
   </g>
   <g id="line2d_8">
    <path clip-path="url(#p3bec498297)" d="M 344.848701 525.24 
L 344.848701 402.93 
" style="fill:none;stroke:#ff6384;stroke-dasharray:5.55,2.4;stroke-dashoffset:0;stroke-opacity:0.8;stroke-width:1.5;"/>
   </g>
   <g id="line2d_9">
    <path clip-path="url(#p3bec498297)" d="M 256.958287 525.24 
L 256.958287 402.93 
" style="fill:none;stroke:#36a2eb;stroke-dasharray:5.55,2.4;stroke-dashoffset:0;stroke-opacity:0.8;stroke-width:1.5;"/>
   </g>
   <g id="patch_10">
    <path d="M 36 525.24 
L 538.2 525.24 
" style="fill:none;stroke:#000000;stroke-linecap:square;stroke-linejoin:miter;stroke-width:0.8;"/>
   </g>
  </g>
 </g>
 <defs>
  <clipPath id="p7fb78a7900">
   <rect height="366.93" width="502.2" x="36" y="36"/>
  </clipPath>
  <clipPath id="p3bec498297">
   <rect height="122.31" width="502.2" x="36" y="402.93"/>
  </clipPath>
 </defs>
</svg>
