<?xml version="1.0" encoding="utf-8" standalone="no"?>
<!DOCTYPE svg PUBLIC "-//W3C//DTD SVG 1.1//EN"
  "http://www.w3.org/Graphics/SVG/1.1/DTD/svg11.dtd">
<!-- Created with matplotlib (https://matplotlib.org/) -->
<svg height="581.789375pt" version="1.1" viewBox="0 0 574.2 581.789375" width="574.2pt" xmlns="http://www.w3.org/2000/svg" xmlns:xlink="http://www.w3.org/1999/xlink">
 <defs>
  <style type="text/css">
*{stroke-linecap:butt;stroke-linejoin:round;}
  </style>
 </defs>
 <g id="figure_1">
  <g id="patch_1">
   <path d="M 0 581.789375 
L 574.2 581.789375 
L 574.2 0 
L 0 0 
z
" style="fill:none;"/>
  </g>
  <g id="axes_1">
   <g id="patch_2">
    <path d="M 36 402.93 
L 538.2 402.93 
L 538.2 36 
L 36 36 
z
" style="fill:none;"/>
   </g>
   <g id="PolyCollection_1">
    <defs>
     <path d="M 124.848587 -195.538011 
L 124.848587 -195.650004 
L 128.793275 -195.692234 
L 132.737963 -195.749007 
L 136.682652 -195.8248 
L 140.62734 -195.925281 
L 144.572028 -196.057565 
L 148.516716 -196.230497 
L 152.461405 -196.454982 
L 156.406093 -196.744335 
L 160.350781 -197.114666 
L 164.29547 -197.585273 
L 168.240158 -198.179047 
L 172.184846 -198.922859 
L 176.129534 -199.847921 
L 180.074223 -200.990079 
L 184.018911 -202.390029 
L 187.963599 -204.093399 
L 191.908288 -206.150691 
L 195.852976 -208.617009 
L 199.797664 -211.551575 
L 203.742352 -215.016962 
L 207.687041 -219.078053 
L 211.631729 -223.800667 
L 215.576417 -229.249878 
L 219.521106 -235.488004 
L 223.465794 -242.572312 
L 227.410482 -250.552459 
L 231.35517 -259.467747 
L 235.299859 -269.344261 
L 239.244547 -280.192004 
L 243.189235 -292.002137 
L 247.133924 -304.744465 
L 251.078612 -318.365297 
L 255.0233 -332.785841 
L 258.967989 -347.901251 
L 262.912677 -363.580456 
L 266.857365 -379.666871 
L 270.802053 -395.980052 
L 274.746742 -412.31833 
L 278.69143 -428.4624 
L 282.636118 -444.179822 
L 286.580807 -459.230303 
L 290.525495 -473.371627 
L 294.470183 -486.366018 
L 298.414871 -497.986726 
L 302.35956 -508.02457 
L 306.304248 -516.294181 
L 310.248936 -522.639693 
L 314.193625 -526.939623 
L 318.138313 -529.110739 
L 322.083001 -529.110739 
L 326.027689 -526.939623 
L 329.972378 -522.639693 
L 333.917066 -516.294181 
L 337.861754 -508.02457 
L 341.806443 -497.986726 
L 345.751131 -486.366018 
L 349.695819 -473.371627 
L 353.640507 -459.230303 
L 357.585196 -444.179822 
L 361.529884 -428.4624 
L 365.474572 -412.31833 
L 369.419261 -395.980052 
L 373.363949 -379.666871 
L 377.308637 -363.580456 
L 381.253325 -347.901251 
L 385.198014 -332.785841 
L 389.142702 -318.365297 
L 393.08739 -304.744465 
L 397.032079 -292.002137 
L 400.976767 -280.192004 
L 404.921455 -269.344261 
L 408.866143 -259.467747 
L 412.810832 -250.552459 
L 416.75552 -242.572312 
L 420.700208 -235.488004 
L 424.644897 -229.249878 
L 428.589585 -223.800667 
L 432.534273 -219.078053 
L 436.478962 -215.016962 
L 440.42365 -211.551575 
L 444.368338 -208.617009 
L 448.313026 -206.150691 
L 452.257715 -204.093399 
L 456.202403 -202.390029 
L 460.147091 -200.990079 
L 464.09178 -199.847921 
L 468.036468 -198.922859 
L 471.981156 -198.179047 
L 475.925844 -197.585273 
L 479.870533 -197.114666 
L 483.815221 -196.744335 
L 487.759909 -196.454982 
L 491.704598 -196.230497 
L 495.649286 -196.057565 
L 499.593974 -195.925281 
L 503.538662 -195.8248 
L 507.483351 -195.749007 
L 511.428039 -195.692234 
L 515.372727 -195.650004 
L 515.372727 -195.538011 
L 515.372727 -195.538011 
L 511.428039 -195.538011 
L 507.483351 -195.538011 
L 503.538662 -195.538011 
L 499.593974 -195.538011 
L 495.649286 -195.538011 
L 491.704598 -195.538011 
L 487.759909 -195.538011 
L 483.815221 -195.538011 
L 479.870533 -195.538011 
L 475.925844 -195.538011 
L 471.981156 -195.538011 
L 468.036468 -195.538011 
L 464.09178 -195.538011 
L 460.147091 -195.538011 
L 456.202403 -195.538011 
L 452.257715 -195.538011 
L 448.313026 -195.538011 
L 444.368338 -195.538011 
L 440.42365 -195.538011 
L 436.478962 -195.538011 
L 432.534273 -195.538011 
L 428.589585 -195.538011 
L 424.644897 -195.538011 
L 420.700208 -195.538011 
L 416.75552 -195.538011 
L 412.810832 -195.538011 
L 408.866143 -195.538011 
L 404.921455 -195.538011 
L 400.976767 -195.538011 
L 397.032079 -195.538011 
L 393.08739 -195.538011 
L 389.142702 -195.538011 
L 385.198014 -195.538011 
L 381.253325 -195.538011 
L 377.308637 -195.538011 
L 373.363949 -195.538011 
L 369.419261 -195.538011 
L 365.474572 -195.538011 
L 361.529884 -195.538011 
L 357.585196 -195.538011 
L 353.640507 -195.538011 
L 349.695819 -195.538011 
L 345.751131 -195.538011 
L 341.806443 -195.538011 
L 337.861754 -195.538011 
L 333.917066 -195.538011 
L 329.972378 -195.538011 
L 326.027689 -195.538011 
L 322.083001 -195.538011 
L 318.138313 -195.538011 
L 314.193625 -195.538011 
L 310.248936 -195.538011 
L 306.304248 -195.538011 
L 302.35956 -195.538011 
L 298.414871 -195.538011 
L 294.470183 -195.538011 
L 290.525495 -195.538011 
L 286.580807 -195.538011 
L 282.636118 -195.538011 
L 278.69143 -195.538011 
L 274.746742 -195.538011 
L 270.802053 -195.538011 
L 266.857365 -195.538011 
L 262.912677 -195.538011 
L 258.967989 -195.538011 
L 255.0233 -195.538011 
L 251.078612 -195.538011 
L 247.133924 -195.538011 
L 243.189235 -195.538011 
L 239.244547 -195.538011 
L 235.299859 -195.538011 
L 231.35517 -195.538011 
L 227.410482 -195.538011 
L 223.465794 -195.538011 
L 219.521106 -195.538011 
L 215.576417 -195.538011 
L 211.631729 -195.538011 
L 207.687041 -195.538011 
L 203.742352 -195.538011 
L 199.797664 -195.538011 
L 195.852976 -195.538011 
L 191.908288 -195.538011 
L 187.963599 -195.538011 
L 184.018911 -195.538011 
L 180.074223 -195.538011 
L 176.129534 -195.538011 
L 172.184846 -195.538011 
L 168.240158 -195.538011 
L 164.29547 -195.538011 
L 160.350781 -195.538011 
L 156.406093 -195.538011 
L 152.461405 -195.538011 
L 148.516716 -195.538011 
L 144.572028 -195.538011 
L 140.62734 -195.538011 
L 136.682652 -195.538011 
L 132.737963 -195.538011 
L 128.793275 -195.538011 
L 124.848587 -195.538011 
z
" id="m2e212e79a4" style="stroke:#ff6384;stroke-opacity:0.5;"/>
    </defs>
    <g clip-path="url(#p2c85f8dfb5)">
     <use style="fill:#ff6384;fill-opacity:0.5;stroke:#ff6384;stroke-opacity:0.5;" x="0" xlink:href="#m2e212e79a4" y="581.789375"/>
    </g>
   </g>
   <g id="PolyCollection_2">
    <defs>
     <path d="M 58.827273 -195.538011 
L 58.827273 -195.642924 
L 63.038156 -195.682485 
L 67.249039 -195.735669 
L 71.459922 -195.80667 
L 75.670806 -195.9008 
L 79.881689 -196.024721 
L 84.092572 -196.186721 
L 88.303455 -196.397014 
L 92.514338 -196.668076 
L 96.725222 -197.014996 
L 100.936105 -197.455853 
L 105.146988 -198.012091 
L 109.357871 -198.708883 
L 113.568754 -199.575466 
L 117.779638 -200.645422 
L 121.990521 -201.956872 
L 126.201404 -203.552562 
L 130.412287 -205.4798 
L 134.62317 -207.790208 
L 138.834054 -210.539262 
L 143.044937 -213.785582 
L 147.25582 -217.589947 
L 151.466703 -222.014017 
L 155.677586 -227.118751 
L 159.88847 -232.962528 
L 164.099353 -239.598995 
L 168.310236 -247.07467 
L 172.521119 -255.426369 
L 176.732002 -264.67853 
L 180.942886 -274.840523 
L 185.153769 -285.904068 
L 189.364652 -297.840877 
L 193.575535 -310.600656 
L 197.786418 -324.109592 
L 201.997302 -338.269466 
L 206.208185 -352.957496 
L 210.419068 -368.026993 
L 214.629951 -383.308922 
L 218.840834 -398.61436 
L 223.051718 -413.737867 
L 227.262601 -428.461697 
L 231.473484 -442.560749 
L 235.684367 -455.808115 
L 239.89525 -467.981054 
L 244.106134 -478.867148 
L 248.317017 -488.27044 
L 252.5279 -496.01728 
L 256.738783 -501.961655 
L 260.949666 -505.989761 
L 265.16055 -508.023627 
L 269.371433 -508.023627 
L 273.582316 -505.989761 
L 277.793199 -501.961655 
L 282.004082 -496.01728 
L 286.214966 -488.27044 
L 290.425849 -478.867148 
L 294.636732 -467.981054 
L 298.847615 -455.808115 
L 303.058498 -442.560749 
L 307.269382 -428.461697 
L 311.480265 -413.737867 
L 315.691148 -398.61436 
L 319.902031 -383.308922 
L 324.112914 -368.026993 
L 328.323798 -352.957496 
L 332.534681 -338.269466 
L 336.745564 -324.109592 
L 340.956447 -310.600656 
L 345.16733 -297.840877 
L 349.378214 -285.904068 
L 353.589097 -274.840523 
L 357.79998 -264.67853 
L 362.010863 -255.426369 
L 366.221746 -247.07467 
L 370.43263 -239.598995 
L 374.643513 -232.962528 
L 378.854396 -227.118751 
L 383.065279 -222.014017 
L 387.276162 -217.589947 
L 391.487046 -213.785582 
L 395.697929 -210.539262 
L 399.908812 -207.790208 
L 404.119695 -205.4798 
L 408.330578 -203.552562 
L 412.541462 -201.956872 
L 416.752345 -200.645422 
L 420.963228 -199.575466 
L 425.174111 -198.708883 
L 429.384994 -198.012091 
L 433.595878 -197.455853 
L 437.806761 -197.014996 
L 442.017644 -196.668076 
L 446.228527 -196.397014 
L 450.43941 -196.186721 
L 454.650294 -196.024721 
L 458.861177 -195.9008 
L 463.07206 -195.80667 
L 467.282943 -195.735669 
L 471.493826 -195.682485 
L 475.70471 -195.642924 
L 475.70471 -195.538011 
L 475.70471 -195.538011 
L 471.493826 -195.538011 
L 467.282943 -195.538011 
L 463.07206 -195.538011 
L 458.861177 -195.538011 
L 454.650294 -195.538011 
L 450.43941 -195.538011 
L 446.228527 -195.538011 
L 442.017644 -195.538011 
L 437.806761 -195.538011 
L 433.595878 -195.538011 
L 429.384994 -195.538011 
L 425.174111 -195.538011 
L 420.963228 -195.538011 
L 416.752345 -195.538011 
L 412.541462 -195.538011 
L 408.330578 -195.538011 
L 404.119695 -195.538011 
L 399.908812 -195.538011 
L 395.697929 -195.538011 
L 391.487046 -195.538011 
L 387.276162 -195.538011 
L 383.065279 -195.538011 
L 378.854396 -195.538011 
L 374.643513 -195.538011 
L 370.43263 -195.538011 
L 366.221746 -195.538011 
L 362.010863 -195.538011 
L 357.79998 -195.538011 
L 353.589097 -195.538011 
L 349.378214 -195.538011 
L 345.16733 -195.538011 
L 340.956447 -195.538011 
L 336.745564 -195.538011 
L 332.534681 -195.538011 
L 328.323798 -195.538011 
L 324.112914 -195.538011 
L 319.902031 -195.538011 
L 315.691148 -195.538011 
L 311.480265 -195.538011 
L 307.269382 -195.538011 
L 303.058498 -195.538011 
L 298.847615 -195.538011 
L 294.636732 -195.538011 
L 290.425849 -195.538011 
L 286.214966 -195.538011 
L 282.004082 -195.538011 
L 277.793199 -195.538011 
L 273.582316 -195.538011 
L 269.371433 -195.538011 
L 265.16055 -195.538011 
L 260.949666 -195.538011 
L 256.738783 -195.538011 
L 252.5279 -195.538011 
L 248.317017 -195.538011 
L 244.106134 -195.538011 
L 239.89525 -195.538011 
L 235.684367 -195.538011 
L 231.473484 -195.538011 
L 227.262601 -195.538011 
L 223.051718 -195.538011 
L 218.840834 -195.538011 
L 214.629951 -195.538011 
L 210.419068 -195.538011 
L 206.208185 -195.538011 
L 201.997302 -195.538011 
L 197.786418 -195.538011 
L 193.575535 -195.538011 
L 189.364652 -195.538011 
L 185.153769 -195.538011 
L 180.942886 -195.538011 
L 176.732002 -195.538011 
L 172.521119 -195.538011 
L 168.310236 -195.538011 
L 164.099353 -195.538011 
L 159.88847 -195.538011 
L 155.677586 -195.538011 
L 151.466703 -195.538011 
L 147.25582 -195.538011 
L 143.044937 -195.538011 
L 138.834054 -195.538011 
L 134.62317 -195.538011 
L 130.412287 -195.538011 
L 126.201404 -195.538011 
L 121.990521 -195.538011 
L 117.779638 -195.538011 
L 113.568754 -195.538011 
L 109.357871 -195.538011 
L 105.146988 -195.538011 
L 100.936105 -195.538011 
L 96.725222 -195.538011 
L 92.514338 -195.538011 
L 88.303455 -195.538011 
L 84.092572 -195.538011 
L 79.881689 -195.538011 
L 75.670806 -195.538011 
L 71.459922 -195.538011 
L 67.249039 -195.538011 
L 63.038156 -195.538011 
L 58.827273 -195.538011 
z
" id="mbe4e711b96" style="stroke:#36a2eb;stroke-opacity:0.5;"/>
    </defs>
    <g clip-path="url(#p2c85f8dfb5)">
     <use style="fill:#36a2eb;fill-opacity:0.5;stroke:#36a2eb;stroke-opacity:0.5;" x="0" xlink:href="#mbe4e711b96" y="581.789375"/>
    </g>
   </g>
   <g id="line2d_1">
    <path clip-path="url(#p2c85f8dfb5)" d="M 124.848587 386.139371 
L 128.793275 386.097141 
L 132.737963 386.040368 
L 136.682652 385.964575 
L 140.62734 385.864094 
L 144.572028 385.73181 
L 148.516716 385.558878 
L 152.461405 385.334393 
L 156.406093 385.04504 
L 160.350781 384.674709 
L 164.29547 384.204102 
L 168.240158 383.610328 
L 172.184846 382.866516 
L 176.129534 381.941454 
L 180.074223 380.799296 
L 184.018911 379.399346 
L 187.963599 377.695976 
L 191.908288 375.638684 
L 195.852976 373.172366 
L 199.797664 370.2378 
L 203.742352 366.772413 
L 207.687041 362.711322 
L 211.631729 357.988708 
L 215.576417 352.539497 
L 219.521106 346.301371 
L 223.465794 339.217063 
L 227.410482 331.236916 
L 231.35517 322.321628 
L 235.299859 312.445114 
L 239.244547 301.597371 
L 243.189235 289.787238 
L 247.133924 277.04491 
L 251.078612 263.424078 
L 255.0233 249.003534 
L 258.967989 233.888124 
L 262.912677 218.208919 
L 266.857365 202.122504 
L 270.802053 185.809323 
L 274.746742 169.471045 
L 278.69143 153.326975 
L 282.636118 137.609553 
L 286.580807 122.559072 
L 290.525495 108.417748 
L 294.470183 95.423357 
L 298.414871 83.802649 
L 302.35956 73.764805 
L 306.304248 65.495194 
L 310.248936 59.149682 
L 314.193625 54.849752 
L 318.138313 52.678636 
L 322.083001 52.678636 
L 326.027689 54.849752 
L 329.972378 59.149682 
L 333.917066 65.495194 
L 337.861754 73.764805 
L 341.806443 83.802649 
L 345.751131 95.423357 
L 349.695819 108.417748 
L 353.640507 122.559072 
L 357.585196 137.609553 
L 361.529884 153.326975 
L 365.474572 169.471045 
L 369.419261 185.809323 
L 373.363949 202.122504 
L 377.308637 218.208919 
L 381.253325 233.888124 
L 385.198014 249.003534 
L 389.142702 263.424078 
L 393.08739 277.04491 
L 397.032079 289.787238 
L 400.976767 301.597371 
L 404.921455 312.445114 
L 408.866143 322.321628 
L 412.810832 331.236916 
L 416.75552 339.217063 
L 420.700208 346.301371 
L 424.644897 352.539497 
L 428.589585 357.988708 
L 432.534273 362.711322 
L 436.478962 366.772413 
L 440.42365 370.2378 
L 444.368338 373.172366 
L 448.313026 375.638684 
L 452.257715 377.695976 
L 456.202403 379.399346 
L 460.147091 380.799296 
L 464.09178 381.941454 
L 468.036468 382.866516 
L 471.981156 383.610328 
L 475.925844 384.204102 
L 479.870533 384.674709 
L 483.815221 385.04504 
L 487.759909 385.334393 
L 491.704598 385.558878 
L 495.649286 385.73181 
L 499.593974 385.864094 
L 503.538662 385.964575 
L 507.483351 386.040368 
L 511.428039 386.097141 
L 515.372727 386.139371 
" style="fill:none;stroke:#ff6384;stroke-linecap:square;"/>
   </g>
   <g id="line2d_2">
    <path clip-path="url(#p2c85f8dfb5)" d="M 58.827273 386.146451 
L 63.038156 386.10689 
L 67.249039 386.053706 
L 71.459922 385.982705 
L 75.670806 385.888575 
L 79.881689 385.764654 
L 84.092572 385.602654 
L 88.303455 385.392361 
L 92.514338 385.121299 
L 96.725222 384.774379 
L 100.936105 384.333522 
L 105.146988 383.777284 
L 109.357871 383.080492 
L 113.568754 382.213909 
L 117.779638 381.143953 
L 121.990521 379.832503 
L 126.201404 378.236813 
L 130.412287 376.309575 
L 134.62317 373.999167 
L 138.834054 371.250113 
L 143.044937 368.003793 
L 147.25582 364.199428 
L 151.466703 359.775358 
L 155.677586 354.670624 
L 159.88847 348.826847 
L 164.099353 342.19038 
L 168.310236 334.714705 
L 172.521119 326.363006 
L 176.732002 317.110845 
L 180.942886 306.948852 
L 185.153769 295.885307 
L 189.364652 283.948498 
L 193.575535 271.188719 
L 197.786418 257.679783 
L 201.997302 243.519909 
L 206.208185 228.831879 
L 210.419068 213.762382 
L 214.629951 198.480453 
L 218.840834 183.175015 
L 223.051718 168.051508 
L 227.262601 153.327678 
L 231.473484 139.228626 
L 235.684367 125.98126 
L 239.89525 113.808321 
L 244.106134 102.922227 
L 248.317017 93.518935 
L 252.5279 85.772095 
L 256.738783 79.82772 
L 260.949666 75.799614 
L 265.16055 73.765748 
L 269.371433 73.765748 
L 273.582316 75.799614 
L 277.793199 79.82772 
L 282.004082 85.772095 
L 286.214966 93.518935 
L 290.425849 102.922227 
L 294.636732 113.808321 
L 298.847615 125.98126 
L 303.058498 139.228626 
L 307.269382 153.327678 
L 311.480265 168.051508 
L 315.691148 183.175015 
L 319.902031 198.480453 
L 324.112914 213.762382 
L 328.323798 228.831879 
L 332.534681 243.519909 
L 336.745564 257.679783 
L 340.956447 271.188719 
L 345.16733 283.948498 
L 349.378214 295.885307 
L 353.589097 306.948852 
L 357.79998 317.110845 
L 362.010863 326.363006 
L 366.221746 334.714705 
L 370.43263 342.19038 
L 374.643513 348.826847 
L 378.854396 354.670624 
L 383.065279 359.775358 
L 387.276162 364.199428 
L 391.487046 368.003793 
L 395.697929 371.250113 
L 399.908812 373.999167 
L 404.119695 376.309575 
L 408.330578 378.236813 
L 412.541462 379.832503 
L 416.752345 381.143953 
L 420.963228 382.213909 
L 425.174111 383.080492 
L 429.384994 383.777284 
L 433.595878 384.333522 
L 437.806761 384.774379 
L 442.017644 385.121299 
L 446.228527 385.392361 
L 450.43941 385.602654 
L 454.650294 385.764654 
L 458.861177 385.888575 
L 463.07206 385.982705 
L 467.282943 386.053706 
L 471.493826 386.10689 
L 475.70471 386.146451 
" style="fill:none;stroke:#36a2eb;stroke-linecap:square;"/>
   </g>
   <g id="patch_3">
    <path d="M 36 402.93 
L 538.2 402.93 
" style="fill:none;stroke:#000000;stroke-linecap:square;stroke-linejoin:miter;stroke-width:0.8;"/>
   </g>
   <g id="legend_1">
    <g id="patch_4">
     <path d="M 414.919063 88.29875 
L 528.4 88.29875 
Q 531.2 88.29875 531.2 85.49875 
L 531.2 45.8 
Q 531.2 43 528.4 43 
L 414.919063 43 
Q 412.119063 43 412.119063 45.8 
L 412.119063 85.49875 
Q 412.119063 88.29875 414.919063 88.29875 
z
" style="fill:#ffffff;opacity:0.8;stroke:#cccccc;stroke-linejoin:miter;"/>
    </g>
    <g id="patch_5">
     <path d="M 417.719063 59.237813 
L 445.719063 59.237813 
L 445.719063 49.437813 
L 417.719063 49.437813 
z
" style="fill:#ff6384;opacity:0.5;stroke:#ff6384;stroke-linejoin:miter;"/>
    </g>
    <g id="text_1">
     <!-- sidemenu -->
     <defs>
      <path d="M 44.28125 53.078125 
L 44.28125 44.578125 
Q 40.484375 46.53125 36.375 47.5 
Q 32.28125 48.484375 27.875 48.484375 
Q 21.1875 48.484375 17.84375 46.4375 
Q 14.5 44.390625 14.5 40.28125 
Q 14.5 37.15625 16.890625 35.375 
Q 19.28125 33.59375 26.515625 31.984375 
L 29.59375 31.296875 
Q 39.15625 29.25 43.1875 25.515625 
Q 47.21875 21.78125 47.21875 15.09375 
Q 47.21875 7.46875 41.1875 3.015625 
Q 35.15625 -1.421875 24.609375 -1.421875 
Q 20.21875 -1.421875 15.453125 -0.5625 
Q 10.6875 0.296875 5.421875 2 
L 5.421875 11.28125 
Q 10.40625 8.6875 15.234375 7.390625 
Q 20.0625 6.109375 24.8125 6.109375 
Q 31.15625 6.109375 34.5625 8.28125 
Q 37.984375 10.453125 37.984375 14.40625 
Q 37.984375 18.0625 35.515625 20.015625 
Q 33.0625 21.96875 24.703125 23.78125 
L 21.578125 24.515625 
Q 13.234375 26.265625 9.515625 29.90625 
Q 5.8125 33.546875 5.8125 39.890625 
Q 5.8125 47.609375 11.28125 51.796875 
Q 16.75 56 26.8125 56 
Q 31.78125 56 36.171875 55.265625 
Q 40.578125 54.546875 44.28125 53.078125 
z
" id="DejaVuSans-115"/>
      <path d="M 9.421875 54.6875 
L 18.40625 54.6875 
L 18.40625 0 
L 9.421875 0 
z
M 9.421875 75.984375 
L 18.40625 75.984375 
L 18.40625 64.59375 
L 9.421875 64.59375 
z
" id="DejaVuSans-105"/>
      <path d="M 45.40625 46.390625 
L 45.40625 75.984375 
L 54.390625 75.984375 
L 54.390625 0 
L 45.40625 0 
L 45.40625 8.203125 
Q 42.578125 3.328125 38.25 0.953125 
Q 33.9375 -1.421875 27.875 -1.421875 
Q 17.96875 -1.421875 11.734375 6.484375 
Q 5.515625 14.40625 5.515625 27.296875 
Q 5.515625 40.1875 11.734375 48.09375 
Q 17.96875 56 27.875 56 
Q 33.9375 56 38.25 53.625 
Q 42.578125 51.265625 45.40625 46.390625 
z
M 14.796875 27.296875 
Q 14.796875 17.390625 18.875 11.75 
Q 22.953125 6.109375 30.078125 6.109375 
Q 37.203125 6.109375 41.296875 11.75 
Q 45.40625 17.390625 45.40625 27.296875 
Q 45.40625 37.203125 41.296875 42.84375 
Q 37.203125 48.484375 30.078125 48.484375 
Q 22.953125 48.484375 18.875 42.84375 
Q 14.796875 37.203125 14.796875 27.296875 
z
" id="DejaVuSans-100"/>
      <path d="M 56.203125 29.59375 
L 56.203125 25.203125 
L 14.890625 25.203125 
Q 15.484375 15.921875 20.484375 11.0625 
Q 25.484375 6.203125 34.421875 6.203125 
Q 39.59375 6.203125 44.453125 7.46875 
Q 49.3125 8.734375 54.109375 11.28125 
L 54.109375 2.78125 
Q 49.265625 0.734375 44.1875 -0.34375 
Q 39.109375 -1.421875 33.890625 -1.421875 
Q 20.796875 -1.421875 13.15625 6.1875 
Q 5.515625 13.8125 5.515625 26.8125 
Q 5.515625 40.234375 12.765625 48.109375 
Q 20.015625 56 32.328125 56 
Q 43.359375 56 49.78125 48.890625 
Q 56.203125 41.796875 56.203125 29.59375 
z
M 47.21875 32.234375 
Q 47.125 39.59375 43.09375 43.984375 
Q 39.0625 48.390625 32.421875 48.390625 
Q 24.90625 48.390625 20.390625 44.140625 
Q 15.875 39.890625 15.1875 32.171875 
z
" id="DejaVuSans-101"/>
      <path d="M 52 44.1875 
Q 55.375 50.25 60.0625 53.125 
Q 64.75 56 71.09375 56 
Q 79.640625 56 84.28125 50.015625 
Q 88.921875 44.046875 88.921875 33.015625 
L 88.921875 0 
L 79.890625 0 
L 79.890625 32.71875 
Q 79.890625 40.578125 77.09375 44.375 
Q 74.3125 48.1875 68.609375 48.1875 
Q 61.625 48.1875 57.5625 43.546875 
Q 53.515625 38.921875 53.515625 30.90625 
L 53.515625 0 
L 44.484375 0 
L 44.484375 32.71875 
Q 44.484375 40.625 41.703125 44.40625 
Q 38.921875 48.1875 33.109375 48.1875 
Q 26.21875 48.1875 22.15625 43.53125 
Q 18.109375 38.875 18.109375 30.90625 
L 18.109375 0 
L 9.078125 0 
L 9.078125 54.6875 
L 18.109375 54.6875 
L 18.109375 46.1875 
Q 21.1875 51.21875 25.484375 53.609375 
Q 29.78125 56 35.6875 56 
Q 41.65625 56 45.828125 52.96875 
Q 50 49.953125 52 44.1875 
z
" id="DejaVuSans-109"/>
      <path d="M 54.890625 33.015625 
L 54.890625 0 
L 45.90625 0 
L 45.90625 32.71875 
Q 45.90625 40.484375 42.875 44.328125 
Q 39.84375 48.1875 33.796875 48.1875 
Q 26.515625 48.1875 22.3125 43.546875 
Q 18.109375 38.921875 18.109375 30.90625 
L 18.109375 0 
L 9.078125 0 
L 9.078125 54.6875 
L 18.109375 54.6875 
L 18.109375 46.1875 
Q 21.34375 51.125 25.703125 53.5625 
Q 30.078125 56 35.796875 56 
Q 45.21875 56 50.046875 50.171875 
Q 54.890625 44.34375 54.890625 33.015625 
z
" id="DejaVuSans-110"/>
      <path d="M 8.5 21.578125 
L 8.5 54.6875 
L 17.484375 54.6875 
L 17.484375 21.921875 
Q 17.484375 14.15625 20.5 10.265625 
Q 23.53125 6.390625 29.59375 6.390625 
Q 36.859375 6.390625 41.078125 11.03125 
Q 45.3125 15.671875 45.3125 23.6875 
L 45.3125 54.6875 
L 54.296875 54.6875 
L 54.296875 0 
L 45.3125 0 
L 45.3125 8.40625 
Q 42.046875 3.421875 37.71875 1 
Q 33.40625 -1.421875 27.6875 -1.421875 
Q 18.265625 -1.421875 13.375 4.4375 
Q 8.5 10.296875 8.5 21.578125 
z
M 31.109375 56 
z
" id="DejaVuSans-117"/>
     </defs>
     <g transform="translate(456.919063 59.237813)scale(0.14 -0.14)">
      <use xlink:href="#DejaVuSans-115"/>
      <use x="52.099609" xlink:href="#DejaVuSans-105"/>
      <use x="79.882812" xlink:href="#DejaVuSans-100"/>
      <use x="143.359375" xlink:href="#DejaVuSans-101"/>
      <use x="204.882812" xlink:href="#DejaVuSans-109"/>
      <use x="302.294922" xlink:href="#DejaVuSans-101"/>
      <use x="363.818359" xlink:href="#DejaVuSans-110"/>
      <use x="427.197266" xlink:href="#DejaVuSans-117"/>
     </g>
    </g>
    <g id="patch_6">
     <path d="M 417.719063 79.787188 
L 445.719063 79.787188 
L 445.719063 69.987188 
L 417.719063 69.987188 
z
" style="fill:#36a2eb;opacity:0.5;stroke:#36a2eb;stroke-linejoin:miter;"/>
    </g>
    <g id="text_2">
     <!-- tabbar -->
     <defs>
      <path d="M 18.3125 70.21875 
L 18.3125 54.6875 
L 36.8125 54.6875 
L 36.8125 47.703125 
L 18.3125 47.703125 
L 18.3125 18.015625 
Q 18.3125 11.328125 20.140625 9.421875 
Q 21.96875 7.515625 27.59375 7.515625 
L 36.8125 7.515625 
L 36.8125 0 
L 27.59375 0 
Q 17.1875 0 13.234375 3.875 
Q 9.28125 7.765625 9.28125 18.015625 
L 9.28125 47.703125 
L 2.6875 47.703125 
L 2.6875 54.6875 
L 9.28125 54.6875 
L 9.28125 70.21875 
z
" id="DejaVuSans-116"/>
      <path d="M 34.28125 27.484375 
Q 23.390625 27.484375 19.1875 25 
Q 14.984375 22.515625 14.984375 16.5 
Q 14.984375 11.71875 18.140625 8.90625 
Q 21.296875 6.109375 26.703125 6.109375 
Q 34.1875 6.109375 38.703125 11.40625 
Q 43.21875 16.703125 43.21875 25.484375 
L 43.21875 27.484375 
z
M 52.203125 31.203125 
L 52.203125 0 
L 43.21875 0 
L 43.21875 8.296875 
Q 40.140625 3.328125 35.546875 0.953125 
Q 30.953125 -1.421875 24.3125 -1.421875 
Q 15.921875 -1.421875 10.953125 3.296875 
Q 6 8.015625 6 15.921875 
Q 6 25.140625 12.171875 29.828125 
Q 18.359375 34.515625 30.609375 34.515625 
L 43.21875 34.515625 
L 43.21875 35.40625 
Q 43.21875 41.609375 39.140625 45 
Q 35.0625 48.390625 27.6875 48.390625 
Q 23 48.390625 18.546875 47.265625 
Q 14.109375 46.140625 10.015625 43.890625 
L 10.015625 52.203125 
Q 14.9375 54.109375 19.578125 55.046875 
Q 24.21875 56 28.609375 56 
Q 40.484375 56 46.34375 49.84375 
Q 52.203125 43.703125 52.203125 31.203125 
z
" id="DejaVuSans-97"/>
      <path d="M 48.6875 27.296875 
Q 48.6875 37.203125 44.609375 42.84375 
Q 40.53125 48.484375 33.40625 48.484375 
Q 26.265625 48.484375 22.1875 42.84375 
Q 18.109375 37.203125 18.109375 27.296875 
Q 18.109375 17.390625 22.1875 11.75 
Q 26.265625 6.109375 33.40625 6.109375 
Q 40.53125 6.109375 44.609375 11.75 
Q 48.6875 17.390625 48.6875 27.296875 
z
M 18.109375 46.390625 
Q 20.953125 51.265625 25.265625 53.625 
Q 29.59375 56 35.59375 56 
Q 45.5625 56 51.78125 48.09375 
Q 58.015625 40.1875 58.015625 27.296875 
Q 58.015625 14.40625 51.78125 6.484375 
Q 45.5625 -1.421875 35.59375 -1.421875 
Q 29.59375 -1.421875 25.265625 0.953125 
Q 20.953125 3.328125 18.109375 8.203125 
L 18.109375 0 
L 9.078125 0 
L 9.078125 75.984375 
L 18.109375 75.984375 
z
" id="DejaVuSans-98"/>
      <path d="M 41.109375 46.296875 
Q 39.59375 47.171875 37.8125 47.578125 
Q 36.03125 48 33.890625 48 
Q 26.265625 48 22.1875 43.046875 
Q 18.109375 38.09375 18.109375 28.8125 
L 18.109375 0 
L 9.078125 0 
L 9.078125 54.6875 
L 18.109375 54.6875 
L 18.109375 46.1875 
Q 20.953125 51.171875 25.484375 53.578125 
Q 30.03125 56 36.53125 56 
Q 37.453125 56 38.578125 55.875 
Q 39.703125 55.765625 41.0625 55.515625 
z
" id="DejaVuSans-114"/>
     </defs>
     <g transform="translate(456.919063 79.787188)scale(0.14 -0.14)">
      <use xlink:href="#DejaVuSans-116"/>
      <use x="39.208984" xlink:href="#DejaVuSans-97"/>
      <use x="100.488281" xlink:href="#DejaVuSans-98"/>
      <use x="163.964844" xlink:href="#DejaVuSans-98"/>
      <use x="227.441406" xlink:href="#DejaVuSans-97"/>
      <use x="288.720703" xlink:href="#DejaVuSans-114"/>
     </g>
    </g>
   </g>
  </g>
  <g id="axes_2">
   <g id="patch_7">
    <path d="M 36 525.24 
L 538.2 525.24 
L 538.2 402.93 
L 36 402.93 
z
" style="fill:none;"/>
   </g>
   <g id="patch_8">
    <path clip-path="url(#p7a8f3d37d2)" d="M 224.432243 519.680455 
L 415.789071 519.680455 
L 415.789071 482.616818 
L 224.432243 482.616818 
z
" style="fill:#ff6384;opacity:0.5;"/>
   </g>
   <g id="patch_9">
    <path clip-path="url(#p7a8f3d37d2)" d="M 165.131019 445.553182 
L 369.400963 445.553182 
L 369.400963 408.489545 
L 165.131019 408.489545 
z
" style="fill:#36a2eb;opacity:0.5;"/>
   </g>
   <g id="matplotlib.axis_1">
    <g id="xtick_1">
     <g id="line2d_3">
      <defs>
       <path d="M 0 0 
L 0 3.5 
" id="m01964713dd" style="stroke:#000000;stroke-width:0.8;"/>
      </defs>
      <g>
       <use style="stroke:#000000;stroke-width:0.8;" x="62.104348" xlink:href="#m01964713dd" y="525.24"/>
      </g>
     </g>
     <g id="text_3">
      <!-- 2.0 -->
      <defs>
       <path d="M 19.1875 8.296875 
L 53.609375 8.296875 
L 53.609375 0 
L 7.328125 0 
L 7.328125 8.296875 
Q 12.9375 14.109375 22.625 23.890625 
Q 32.328125 33.6875 34.8125 36.53125 
Q 39.546875 41.84375 41.421875 45.53125 
Q 43.3125 49.21875 43.3125 52.78125 
Q 43.3125 58.59375 39.234375 62.25 
Q 35.15625 65.921875 28.609375 65.921875 
Q 23.96875 65.921875 18.8125 64.3125 
Q 13.671875 62.703125 7.8125 59.421875 
L 7.8125 69.390625 
Q 13.765625 71.78125 18.9375 73 
Q 24.125 74.21875 28.421875 74.21875 
Q 39.75 74.21875 46.484375 68.546875 
Q 53.21875 62.890625 53.21875 53.421875 
Q 53.21875 48.921875 51.53125 44.890625 
Q 49.859375 40.875 45.40625 35.40625 
Q 44.1875 33.984375 37.640625 27.21875 
Q 31.109375 20.453125 19.1875 8.296875 
z
" id="DejaVuSans-50"/>
       <path d="M 10.6875 12.40625 
L 21 12.40625 
L 21 0 
L 10.6875 0 
z
" id="DejaVuSans-46"/>
       <path d="M 31.78125 66.40625 
Q 24.171875 66.40625 20.328125 58.90625 
Q 16.5 51.421875 16.5 36.375 
Q 16.5 21.390625 20.328125 13.890625 
Q 24.171875 6.390625 31.78125 6.390625 
Q 39.453125 6.390625 43.28125 13.890625 
Q 47.125 21.390625 47.125 36.375 
Q 47.125 51.421875 43.28125 58.90625 
Q 39.453125 66.40625 31.78125 66.40625 
z
M 31.78125 74.21875 
Q 44.046875 74.21875 50.515625 64.515625 
Q 56.984375 54.828125 56.984375 36.375 
Q 56.984375 17.96875 50.515625 8.265625 
Q 44.046875 -1.421875 31.78125 -1.421875 
Q 19.53125 -1.421875 13.0625 8.265625 
Q 6.59375 17.96875 6.59375 36.375 
Q 6.59375 54.828125 13.0625 64.515625 
Q 19.53125 74.21875 31.78125 74.21875 
z
" id="DejaVuSans-48"/>
      </defs>
      <g transform="translate(50.97216 542.877813)scale(0.14 -0.14)">
       <use xlink:href="#DejaVuSans-50"/>
       <use x="63.623047" xlink:href="#DejaVuSans-46"/>
       <use x="95.410156" xlink:href="#DejaVuSans-48"/>
      </g>
     </g>
    </g>
    <g id="xtick_2">
     <g id="line2d_4">
      <g>
       <use style="stroke:#000000;stroke-width:0.8;" x="124.274543" xlink:href="#m01964713dd" y="525.24"/>
      </g>
     </g>
     <g id="text_4">
      <!-- 2.2 -->
      <g transform="translate(113.142355 542.877813)scale(0.14 -0.14)">
       <use xlink:href="#DejaVuSans-50"/>
       <use x="63.623047" xlink:href="#DejaVuSans-46"/>
       <use x="95.410156" xlink:href="#DejaVuSans-50"/>
      </g>
     </g>
    </g>
    <g id="xtick_3">
     <g id="line2d_5">
      <g>
       <use style="stroke:#000000;stroke-width:0.8;" x="186.444738" xlink:href="#m01964713dd" y="525.24"/>
      </g>
     </g>
     <g id="text_5">
      <!-- 2.4 -->
      <defs>
       <path d="M 37.796875 64.3125 
L 12.890625 25.390625 
L 37.796875 25.390625 
z
M 35.203125 72.90625 
L 47.609375 72.90625 
L 47.609375 25.390625 
L 58.015625 25.390625 
L 58.015625 17.1875 
L 47.609375 17.1875 
L 47.609375 0 
L 37.796875 0 
L 37.796875 17.1875 
L 4.890625 17.1875 
L 4.890625 26.703125 
z
" id="DejaVuSans-52"/>
      </defs>
      <g transform="translate(175.31255 542.877813)scale(0.14 -0.14)">
       <use xlink:href="#DejaVuSans-50"/>
       <use x="63.623047" xlink:href="#DejaVuSans-46"/>
       <use x="95.410156" xlink:href="#DejaVuSans-52"/>
      </g>
     </g>
    </g>
    <g id="xtick_4">
     <g id="line2d_6">
      <g>
       <use style="stroke:#000000;stroke-width:0.8;" x="248.614933" xlink:href="#m01964713dd" y="525.24"/>
      </g>
     </g>
     <g id="text_6">
      <!-- 2.6 -->
      <defs>
       <path d="M 33.015625 40.375 
Q 26.375 40.375 22.484375 35.828125 
Q 18.609375 31.296875 18.609375 23.390625 
Q 18.609375 15.53125 22.484375 10.953125 
Q 26.375 6.390625 33.015625 6.390625 
Q 39.65625 6.390625 43.53125 10.953125 
Q 47.40625 15.53125 47.40625 23.390625 
Q 47.40625 31.296875 43.53125 35.828125 
Q 39.65625 40.375 33.015625 40.375 
z
M 52.59375 71.296875 
L 52.59375 62.3125 
Q 48.875 64.0625 45.09375 64.984375 
Q 41.3125 65.921875 37.59375 65.921875 
Q 27.828125 65.921875 22.671875 59.328125 
Q 17.53125 52.734375 16.796875 39.40625 
Q 19.671875 43.65625 24.015625 45.921875 
Q 28.375 48.1875 33.59375 48.1875 
Q 44.578125 48.1875 50.953125 41.515625 
Q 57.328125 34.859375 57.328125 23.390625 
Q 57.328125 12.15625 50.6875 5.359375 
Q 44.046875 -1.421875 33.015625 -1.421875 
Q 20.359375 -1.421875 13.671875 8.265625 
Q 6.984375 17.96875 6.984375 36.375 
Q 6.984375 53.65625 15.1875 63.9375 
Q 23.390625 74.21875 37.203125 74.21875 
Q 40.921875 74.21875 44.703125 73.484375 
Q 48.484375 72.75 52.59375 71.296875 
z
" id="DejaVuSans-54"/>
      </defs>
      <g transform="translate(237.482745 542.877813)scale(0.14 -0.14)">
       <use xlink:href="#DejaVuSans-50"/>
       <use x="63.623047" xlink:href="#DejaVuSans-46"/>
       <use x="95.410156" xlink:href="#DejaVuSans-54"/>
      </g>
     </g>
    </g>
    <g id="xtick_5">
     <g id="line2d_7">
      <g>
       <use style="stroke:#000000;stroke-width:0.8;" x="310.785128" xlink:href="#m01964713dd" y="525.24"/>
      </g>
     </g>
     <g id="text_7">
      <!-- 2.8 -->
      <defs>
       <path d="M 31.78125 34.625 
Q 24.75 34.625 20.71875 30.859375 
Q 16.703125 27.09375 16.703125 20.515625 
Q 16.703125 13.921875 20.71875 10.15625 
Q 24.75 6.390625 31.78125 6.390625 
Q 38.8125 6.390625 42.859375 10.171875 
Q 46.921875 13.96875 46.921875 20.515625 
Q 46.921875 27.09375 42.890625 30.859375 
Q 38.875 34.625 31.78125 34.625 
z
M 21.921875 38.8125 
Q 15.578125 40.375 12.03125 44.71875 
Q 8.5 49.078125 8.5 55.328125 
Q 8.5 64.0625 14.71875 69.140625 
Q 20.953125 74.21875 31.78125 74.21875 
Q 42.671875 74.21875 48.875 69.140625 
Q 55.078125 64.0625 55.078125 55.328125 
Q 55.078125 49.078125 51.53125 44.71875 
Q 48 40.375 41.703125 38.8125 
Q 48.828125 37.15625 52.796875 32.3125 
Q 56.78125 27.484375 56.78125 20.515625 
Q 56.78125 9.90625 50.3125 4.234375 
Q 43.84375 -1.421875 31.78125 -1.421875 
Q 19.734375 -1.421875 13.25 4.234375 
Q 6.78125 9.90625 6.78125 20.515625 
Q 6.78125 27.484375 10.78125 32.3125 
Q 14.796875 37.15625 21.921875 38.8125 
z
M 18.3125 54.390625 
Q 18.3125 48.734375 21.84375 45.5625 
Q 25.390625 42.390625 31.78125 42.390625 
Q 38.140625 42.390625 41.71875 45.5625 
Q 45.3125 48.734375 45.3125 54.390625 
Q 45.3125 60.0625 41.71875 63.234375 
Q 38.140625 66.40625 31.78125 66.40625 
Q 25.390625 66.40625 21.84375 63.234375 
Q 18.3125 60.0625 18.3125 54.390625 
z
" id="DejaVuSans-56"/>
      </defs>
      <g transform="translate(299.65294 542.877813)scale(0.14 -0.14)">
       <use xlink:href="#DejaVuSans-50"/>
       <use x="63.623047" xlink:href="#DejaVuSans-46"/>
       <use x="95.410156" xlink:href="#DejaVuSans-56"/>
      </g>
     </g>
    </g>
    <g id="xtick_6">
     <g id="line2d_8">
      <g>
       <use style="stroke:#000000;stroke-width:0.8;" x="372.955323" xlink:href="#m01964713dd" y="525.24"/>
      </g>
     </g>
     <g id="text_8">
      <!-- 3.0 -->
      <defs>
       <path d="M 40.578125 39.3125 
Q 47.65625 37.796875 51.625 33 
Q 55.609375 28.21875 55.609375 21.1875 
Q 55.609375 10.40625 48.1875 4.484375 
Q 40.765625 -1.421875 27.09375 -1.421875 
Q 22.515625 -1.421875 17.65625 -0.515625 
Q 12.796875 0.390625 7.625 2.203125 
L 7.625 11.71875 
Q 11.71875 9.328125 16.59375 8.109375 
Q 21.484375 6.890625 26.8125 6.890625 
Q 36.078125 6.890625 40.9375 10.546875 
Q 45.796875 14.203125 45.796875 21.1875 
Q 45.796875 27.640625 41.28125 31.265625 
Q 36.765625 34.90625 28.71875 34.90625 
L 20.21875 34.90625 
L 20.21875 43.015625 
L 29.109375 43.015625 
Q 36.375 43.015625 40.234375 45.921875 
Q 44.09375 48.828125 44.09375 54.296875 
Q 44.09375 59.90625 40.109375 62.90625 
Q 36.140625 65.921875 28.71875 65.921875 
Q 24.65625 65.921875 20.015625 65.03125 
Q 15.375 64.15625 9.8125 62.3125 
L 9.8125 71.09375 
Q 15.4375 72.65625 20.34375 73.4375 
Q 25.25 74.21875 29.59375 74.21875 
Q 40.828125 74.21875 47.359375 69.109375 
Q 53.90625 64.015625 53.90625 55.328125 
Q 53.90625 49.265625 50.4375 45.09375 
Q 46.96875 40.921875 40.578125 39.3125 
z
" id="DejaVuSans-51"/>
      </defs>
      <g transform="translate(361.823135 542.877813)scale(0.14 -0.14)">
       <use xlink:href="#DejaVuSans-51"/>
       <use x="63.623047" xlink:href="#DejaVuSans-46"/>
       <use x="95.410156" xlink:href="#DejaVuSans-48"/>
      </g>
     </g>
    </g>
    <g id="xtick_7">
     <g id="line2d_9">
      <g>
       <use style="stroke:#000000;stroke-width:0.8;" x="435.125518" xlink:href="#m01964713dd" y="525.24"/>
      </g>
     </g>
     <g id="text_9">
      <!-- 3.2 -->
      <g transform="translate(423.99333 542.877813)scale(0.14 -0.14)">
       <use xlink:href="#DejaVuSans-51"/>
       <use x="63.623047" xlink:href="#DejaVuSans-46"/>
       <use x="95.410156" xlink:href="#DejaVuSans-50"/>
      </g>
     </g>
    </g>
    <g id="xtick_8">
     <g id="line2d_10">
      <g>
       <use style="stroke:#000000;stroke-width:0.8;" x="497.295713" xlink:href="#m01964713dd" y="525.24"/>
      </g>
     </g>
     <g id="text_10">
      <!-- 3.4 -->
      <g transform="translate(486.163525 542.877813)scale(0.14 -0.14)">
       <use xlink:href="#DejaVuSans-51"/>
       <use x="63.623047" xlink:href="#DejaVuSans-46"/>
       <use x="95.410156" xlink:href="#DejaVuSans-52"/>
      </g>
     </g>
    </g>
   </g>
   <g id="line2d_11">
    <path clip-path="url(#p7a8f3d37d2)" d="M 320.110657 525.24 
L 320.110657 402.93 
" style="fill:none;stroke:#ff6384;stroke-dasharray:5.55,2.4;stroke-dashoffset:0;stroke-opacity:0.8;stroke-width:1.5;"/>
   </g>
   <g id="line2d_12">
    <path clip-path="url(#p7a8f3d37d2)" d="M 267.265991 525.24 
L 267.265991 402.93 
" style="fill:none;stroke:#36a2eb;stroke-dasharray:5.55,2.4;stroke-dashoffset:0;stroke-opacity:0.8;stroke-width:1.5;"/>
   </g>
   <g id="patch_10">
    <path d="M 36 525.24 
L 538.2 525.24 
" style="fill:none;stroke:#000000;stroke-linecap:square;stroke-linejoin:miter;stroke-width:0.8;"/>
   </g>
  </g>
 </g>
 <defs>
  <clipPath id="p2c85f8dfb5">
   <rect height="366.93" width="502.2" x="36" y="36"/>
  </clipPath>
  <clipPath id="p7a8f3d37d2">
   <rect height="122.31" width="502.2" x="36" y="402.93"/>
  </clipPath>
 </defs>
</svg>
