<?xml version="1.0" encoding="utf-8" standalone="no"?>
<!DOCTYPE svg PUBLIC "-//W3C//DTD SVG 1.1//EN"
  "http://www.w3.org/Graphics/SVG/1.1/DTD/svg11.dtd">
<!-- Created with matplotlib (https://matplotlib.org/) -->
<svg height="581.789375pt" version="1.1" viewBox="0 0 574.2 581.789375" width="574.2pt" xmlns="http://www.w3.org/2000/svg" xmlns:xlink="http://www.w3.org/1999/xlink">
 <defs>
  <style type="text/css">
*{stroke-linecap:butt;stroke-linejoin:round;}
  </style>
 </defs>
 <g id="figure_1">
  <g id="patch_1">
   <path d="M 0 581.789375 
L 574.2 581.789375 
L 574.2 0 
L 0 0 
z
" style="fill:none;"/>
  </g>
  <g id="axes_1">
   <g id="patch_2">
    <path d="M 36 402.93 
L 538.2 402.93 
L 538.2 36 
L 36 36 
z
" style="fill:none;"/>
   </g>
   <g id="PolyCollection_1">
    <defs>
     <path d="M 388.369688 -195.538011 
L 388.369688 -195.649899 
L 389.652547 -195.69209 
L 390.935406 -195.748809 
L 392.218265 -195.824531 
L 393.501123 -195.924918 
L 394.783982 -196.057078 
L 396.066841 -196.229848 
L 397.3497 -196.454122 
L 398.632559 -196.743204 
L 399.915418 -197.113188 
L 401.198277 -197.583354 
L 402.481136 -198.176571 
L 403.763995 -198.919686 
L 405.046854 -199.843881 
L 406.329713 -200.984969 
L 407.612572 -202.383606 
L 408.895431 -204.08538 
L 410.17829 -206.140743 
L 411.461149 -208.60475 
L 412.744008 -211.536565 
L 414.026867 -214.998704 
L 415.309726 -219.055988 
L 416.592585 -223.774176 
L 417.875444 -229.218279 
L 419.158303 -235.450558 
L 420.441162 -242.528225 
L 421.724021 -250.500893 
L 423.00688 -259.407824 
L 424.289739 -269.27508 
L 425.572598 -280.112655 
L 426.855457 -291.911719 
L 428.138316 -304.642103 
L 429.421175 -318.250168 
L 430.704034 -332.657195 
L 431.986893 -347.758437 
L 433.269752 -363.422945 
L 434.552611 -379.494282 
L 435.83547 -395.792172 
L 437.118329 -412.115136 
L 438.401188 -428.244073 
L 439.684047 -443.946763 
L 440.966906 -458.983137 
L 442.249765 -473.111206 
L 443.532624 -486.093417 
L 444.815483 -497.703233 
L 446.098342 -507.731667 
L 447.381201 -515.993527 
L 448.66406 -522.333092 
L 449.946919 -526.628991 
L 451.229778 -528.798072 
L 452.512637 -528.798072 
L 453.795496 -526.628991 
L 455.078355 -522.333092 
L 456.361214 -515.993527 
L 457.644073 -507.731667 
L 458.926932 -497.703233 
L 460.209791 -486.093417 
L 461.49265 -473.111206 
L 462.775509 -458.983137 
L 464.058368 -443.946763 
L 465.341227 -428.244073 
L 466.624086 -412.115136 
L 467.906945 -395.792172 
L 469.189804 -379.494282 
L 470.472663 -363.422945 
L 471.755522 -347.758437 
L 473.038381 -332.657195 
L 474.32124 -318.250168 
L 475.604099 -304.642103 
L 476.886958 -291.911719 
L 478.169817 -280.112655 
L 479.452676 -269.27508 
L 480.735535 -259.407824 
L 482.018394 -250.500893 
L 483.301253 -242.528225 
L 484.584112 -235.450558 
L 485.866971 -229.218279 
L 487.14983 -223.774176 
L 488.432689 -219.055988 
L 489.715548 -214.998704 
L 490.998407 -211.536565 
L 492.281266 -208.60475 
L 493.564124 -206.140743 
L 494.846983 -204.08538 
L 496.129842 -202.383606 
L 497.412701 -200.984969 
L 498.69556 -199.843881 
L 499.978419 -198.919686 
L 501.261278 -198.176571 
L 502.544137 -197.583354 
L 503.826996 -197.113188 
L 505.109855 -196.743204 
L 506.392714 -196.454122 
L 507.675573 -196.229848 
L 508.958432 -196.057078 
L 510.241291 -195.924918 
L 511.52415 -195.824531 
L 512.807009 -195.748809 
L 514.089868 -195.69209 
L 515.372727 -195.649899 
L 515.372727 -195.538011 
L 515.372727 -195.538011 
L 514.089868 -195.538011 
L 512.807009 -195.538011 
L 511.52415 -195.538011 
L 510.241291 -195.538011 
L 508.958432 -195.538011 
L 507.675573 -195.538011 
L 506.392714 -195.538011 
L 505.109855 -195.538011 
L 503.826996 -195.538011 
L 502.544137 -195.538011 
L 501.261278 -195.538011 
L 499.978419 -195.538011 
L 498.69556 -195.538011 
L 497.412701 -195.538011 
L 496.129842 -195.538011 
L 494.846983 -195.538011 
L 493.564124 -195.538011 
L 492.281266 -195.538011 
L 490.998407 -195.538011 
L 489.715548 -195.538011 
L 488.432689 -195.538011 
L 487.14983 -195.538011 
L 485.866971 -195.538011 
L 484.584112 -195.538011 
L 483.301253 -195.538011 
L 482.018394 -195.538011 
L 480.735535 -195.538011 
L 479.452676 -195.538011 
L 478.169817 -195.538011 
L 476.886958 -195.538011 
L 475.604099 -195.538011 
L 474.32124 -195.538011 
L 473.038381 -195.538011 
L 471.755522 -195.538011 
L 470.472663 -195.538011 
L 469.189804 -195.538011 
L 467.906945 -195.538011 
L 466.624086 -195.538011 
L 465.341227 -195.538011 
L 464.058368 -195.538011 
L 462.775509 -195.538011 
L 461.49265 -195.538011 
L 460.209791 -195.538011 
L 458.926932 -195.538011 
L 457.644073 -195.538011 
L 456.361214 -195.538011 
L 455.078355 -195.538011 
L 453.795496 -195.538011 
L 452.512637 -195.538011 
L 451.229778 -195.538011 
L 449.946919 -195.538011 
L 448.66406 -195.538011 
L 447.381201 -195.538011 
L 446.098342 -195.538011 
L 444.815483 -195.538011 
L 443.532624 -195.538011 
L 442.249765 -195.538011 
L 440.966906 -195.538011 
L 439.684047 -195.538011 
L 438.401188 -195.538011 
L 437.118329 -195.538011 
L 435.83547 -195.538011 
L 434.552611 -195.538011 
L 433.269752 -195.538011 
L 431.986893 -195.538011 
L 430.704034 -195.538011 
L 429.421175 -195.538011 
L 428.138316 -195.538011 
L 426.855457 -195.538011 
L 425.572598 -195.538011 
L 424.289739 -195.538011 
L 423.00688 -195.538011 
L 421.724021 -195.538011 
L 420.441162 -195.538011 
L 419.158303 -195.538011 
L 417.875444 -195.538011 
L 416.592585 -195.538011 
L 415.309726 -195.538011 
L 414.026867 -195.538011 
L 412.744008 -195.538011 
L 411.461149 -195.538011 
L 410.17829 -195.538011 
L 408.895431 -195.538011 
L 407.612572 -195.538011 
L 406.329713 -195.538011 
L 405.046854 -195.538011 
L 403.763995 -195.538011 
L 402.481136 -195.538011 
L 401.198277 -195.538011 
L 399.915418 -195.538011 
L 398.632559 -195.538011 
L 397.3497 -195.538011 
L 396.066841 -195.538011 
L 394.783982 -195.538011 
L 393.501123 -195.538011 
L 392.218265 -195.538011 
L 390.935406 -195.538011 
L 389.652547 -195.538011 
L 388.369688 -195.538011 
z
" id="m2a97d4e142" style="stroke:#ff6384;stroke-opacity:0.5;"/>
    </defs>
    <g clip-path="url(#p70e633f1f4)">
     <use style="fill:#ff6384;fill-opacity:0.5;stroke:#ff6384;stroke-opacity:0.5;" x="0" xlink:href="#m2a97d4e142" y="581.789375"/>
    </g>
   </g>
   <g id="PolyCollection_2">
    <defs>
     <path d="M 281.487095 -195.538011 
L 281.487095 -195.650004 
L 282.768751 -195.692234 
L 284.050408 -195.749007 
L 285.332064 -195.8248 
L 286.613721 -195.925281 
L 287.895377 -196.057565 
L 289.177034 -196.230497 
L 290.45869 -196.454982 
L 291.740347 -196.744335 
L 293.022004 -197.114666 
L 294.30366 -197.585273 
L 295.585317 -198.179047 
L 296.866973 -198.922859 
L 298.14863 -199.847921 
L 299.430286 -200.990079 
L 300.711943 -202.390029 
L 301.993599 -204.093399 
L 303.275256 -206.150691 
L 304.556912 -208.617009 
L 305.838569 -211.551575 
L 307.120225 -215.016962 
L 308.401882 -219.078053 
L 309.683538 -223.800667 
L 310.965195 -229.249878 
L 312.246851 -235.488004 
L 313.528508 -242.572312 
L 314.810165 -250.552459 
L 316.091821 -259.467747 
L 317.373478 -269.344261 
L 318.655134 -280.192004 
L 319.936791 -292.002137 
L 321.218447 -304.744465 
L 322.500104 -318.365297 
L 323.78176 -332.785841 
L 325.063417 -347.901251 
L 326.345073 -363.580456 
L 327.62673 -379.666871 
L 328.908386 -395.980052 
L 330.190043 -412.31833 
L 331.471699 -428.4624 
L 332.753356 -444.179822 
L 334.035012 -459.230303 
L 335.316669 -473.371627 
L 336.598325 -486.366018 
L 337.879982 -497.986726 
L 339.161639 -508.02457 
L 340.443295 -516.294181 
L 341.724952 -522.639693 
L 343.006608 -526.939623 
L 344.288265 -529.110739 
L 345.569921 -529.110739 
L 346.851578 -526.939623 
L 348.133234 -522.639693 
L 349.414891 -516.294181 
L 350.696547 -508.02457 
L 351.978204 -497.986726 
L 353.25986 -486.366018 
L 354.541517 -473.371627 
L 355.823173 -459.230303 
L 357.10483 -444.179822 
L 358.386486 -428.4624 
L 359.668143 -412.31833 
L 360.9498 -395.980052 
L 362.231456 -379.666871 
L 363.513113 -363.580456 
L 364.794769 -347.901251 
L 366.076426 -332.785841 
L 367.358082 -318.365297 
L 368.639739 -304.744465 
L 369.921395 -292.002137 
L 371.203052 -280.192004 
L 372.484708 -269.344261 
L 373.766365 -259.467747 
L 375.048021 -250.552459 
L 376.329678 -242.572312 
L 377.611334 -235.488004 
L 378.892991 -229.249878 
L 380.174647 -223.800667 
L 381.456304 -219.078053 
L 382.73796 -215.016962 
L 384.019617 -211.551575 
L 385.301274 -208.617009 
L 386.58293 -206.150691 
L 387.864587 -204.093399 
L 389.146243 -202.390029 
L 390.4279 -200.990079 
L 391.709556 -199.847921 
L 392.991213 -198.922859 
L 394.272869 -198.179047 
L 395.554526 -197.585273 
L 396.836182 -197.114666 
L 398.117839 -196.744335 
L 399.399495 -196.454982 
L 400.681152 -196.230497 
L 401.962808 -196.057565 
L 403.244465 -195.925281 
L 404.526121 -195.8248 
L 405.807778 -195.749007 
L 407.089435 -195.692234 
L 408.371091 -195.650004 
L 408.371091 -195.538011 
L 408.371091 -195.538011 
L 407.089435 -195.538011 
L 405.807778 -195.538011 
L 404.526121 -195.538011 
L 403.244465 -195.538011 
L 401.962808 -195.538011 
L 400.681152 -195.538011 
L 399.399495 -195.538011 
L 398.117839 -195.538011 
L 396.836182 -195.538011 
L 395.554526 -195.538011 
L 394.272869 -195.538011 
L 392.991213 -195.538011 
L 391.709556 -195.538011 
L 390.4279 -195.538011 
L 389.146243 -195.538011 
L 387.864587 -195.538011 
L 386.58293 -195.538011 
L 385.301274 -195.538011 
L 384.019617 -195.538011 
L 382.73796 -195.538011 
L 381.456304 -195.538011 
L 380.174647 -195.538011 
L 378.892991 -195.538011 
L 377.611334 -195.538011 
L 376.329678 -195.538011 
L 375.048021 -195.538011 
L 373.766365 -195.538011 
L 372.484708 -195.538011 
L 371.203052 -195.538011 
L 369.921395 -195.538011 
L 368.639739 -195.538011 
L 367.358082 -195.538011 
L 366.076426 -195.538011 
L 364.794769 -195.538011 
L 363.513113 -195.538011 
L 362.231456 -195.538011 
L 360.9498 -195.538011 
L 359.668143 -195.538011 
L 358.386486 -195.538011 
L 357.10483 -195.538011 
L 355.823173 -195.538011 
L 354.541517 -195.538011 
L 353.25986 -195.538011 
L 351.978204 -195.538011 
L 350.696547 -195.538011 
L 349.414891 -195.538011 
L 348.133234 -195.538011 
L 346.851578 -195.538011 
L 345.569921 -195.538011 
L 344.288265 -195.538011 
L 343.006608 -195.538011 
L 341.724952 -195.538011 
L 340.443295 -195.538011 
L 339.161639 -195.538011 
L 337.879982 -195.538011 
L 336.598325 -195.538011 
L 335.316669 -195.538011 
L 334.035012 -195.538011 
L 332.753356 -195.538011 
L 331.471699 -195.538011 
L 330.190043 -195.538011 
L 328.908386 -195.538011 
L 327.62673 -195.538011 
L 326.345073 -195.538011 
L 325.063417 -195.538011 
L 323.78176 -195.538011 
L 322.500104 -195.538011 
L 321.218447 -195.538011 
L 319.936791 -195.538011 
L 318.655134 -195.538011 
L 317.373478 -195.538011 
L 316.091821 -195.538011 
L 314.810165 -195.538011 
L 313.528508 -195.538011 
L 312.246851 -195.538011 
L 310.965195 -195.538011 
L 309.683538 -195.538011 
L 308.401882 -195.538011 
L 307.120225 -195.538011 
L 305.838569 -195.538011 
L 304.556912 -195.538011 
L 303.275256 -195.538011 
L 301.993599 -195.538011 
L 300.711943 -195.538011 
L 299.430286 -195.538011 
L 298.14863 -195.538011 
L 296.866973 -195.538011 
L 295.585317 -195.538011 
L 294.30366 -195.538011 
L 293.022004 -195.538011 
L 291.740347 -195.538011 
L 290.45869 -195.538011 
L 289.177034 -195.538011 
L 287.895377 -195.538011 
L 286.613721 -195.538011 
L 285.332064 -195.538011 
L 284.050408 -195.538011 
L 282.768751 -195.538011 
L 281.487095 -195.538011 
z
" id="ma809d12b56" style="stroke:#36a2eb;stroke-opacity:0.5;"/>
    </defs>
    <g clip-path="url(#p70e633f1f4)">
     <use style="fill:#36a2eb;fill-opacity:0.5;stroke:#36a2eb;stroke-opacity:0.5;" x="0" xlink:href="#ma809d12b56" y="581.789375"/>
    </g>
   </g>
   <g id="PolyCollection_3">
    <defs>
     <path d="M 58.827273 -195.538011 
L 58.827273 -195.649511 
L 60.11459 -195.691556 
L 61.401907 -195.748079 
L 62.689224 -195.823539 
L 63.976541 -195.923579 
L 65.263858 -196.05528 
L 66.551174 -196.227452 
L 67.838491 -196.45095 
L 69.125808 -196.739031 
L 70.413125 -197.107733 
L 71.700442 -197.576271 
L 72.987759 -198.167434 
L 74.275076 -198.907976 
L 75.562393 -199.82897 
L 76.84971 -200.966106 
L 78.137027 -202.3599 
L 79.424344 -204.055781 
L 80.711661 -206.104026 
L 81.998978 -208.5595 
L 83.286295 -211.481162 
L 84.573612 -214.931312 
L 85.860929 -218.974546 
L 87.148246 -223.676394 
L 88.435563 -229.101644 
L 89.72288 -235.312341 
L 91.010197 -242.365499 
L 92.297514 -250.310556 
L 93.584831 -259.186643 
L 94.872148 -269.019729 
L 96.159465 -279.819773 
L 97.446782 -291.577977 
L 98.734099 -304.264276 
L 100.021415 -317.825216 
L 101.308732 -332.182352 
L 102.596049 -347.231298 
L 103.883366 -362.84156 
L 105.170683 -378.857242 
L 106.458 -395.098693 
L 107.745317 -411.36513 
L 109.032634 -427.438213 
L 110.319951 -443.086524 
L 111.607268 -458.070827 
L 112.894585 -472.149971 
L 114.181902 -485.087225 
L 115.469219 -496.656836 
L 116.756536 -506.650542 
L 118.043853 -514.883791 
L 119.33117 -521.201402 
L 120.618487 -525.482424 
L 121.905804 -527.643993 
L 123.193121 -527.643993 
L 124.480438 -525.482424 
L 125.767755 -521.201402 
L 127.055072 -514.883791 
L 128.342389 -506.650542 
L 129.629706 -496.656836 
L 130.917023 -485.087225 
L 132.20434 -472.149971 
L 133.491656 -458.070827 
L 134.778973 -443.086524 
L 136.06629 -427.438213 
L 137.353607 -411.36513 
L 138.640924 -395.098693 
L 139.928241 -378.857242 
L 141.215558 -362.84156 
L 142.502875 -347.231298 
L 143.790192 -332.182352 
L 145.077509 -317.825216 
L 146.364826 -304.264276 
L 147.652143 -291.577977 
L 148.93946 -279.819773 
L 150.226777 -269.019729 
L 151.514094 -259.186643 
L 152.801411 -250.310556 
L 154.088728 -242.365499 
L 155.376045 -235.312341 
L 156.663362 -229.101644 
L 157.950679 -223.676394 
L 159.237996 -218.974546 
L 160.525313 -214.931312 
L 161.81263 -211.481162 
L 163.099947 -208.5595 
L 164.387264 -206.104026 
L 165.67458 -204.055781 
L 166.961897 -202.3599 
L 168.249214 -200.966106 
L 169.536531 -199.82897 
L 170.823848 -198.907976 
L 172.111165 -198.167434 
L 173.398482 -197.576271 
L 174.685799 -197.107733 
L 175.973116 -196.739031 
L 177.260433 -196.45095 
L 178.54775 -196.227452 
L 179.835067 -196.05528 
L 181.122384 -195.923579 
L 182.409701 -195.823539 
L 183.697018 -195.748079 
L 184.984335 -195.691556 
L 186.271652 -195.649511 
L 186.271652 -195.538011 
L 186.271652 -195.538011 
L 184.984335 -195.538011 
L 183.697018 -195.538011 
L 182.409701 -195.538011 
L 181.122384 -195.538011 
L 179.835067 -195.538011 
L 178.54775 -195.538011 
L 177.260433 -195.538011 
L 175.973116 -195.538011 
L 174.685799 -195.538011 
L 173.398482 -195.538011 
L 172.111165 -195.538011 
L 170.823848 -195.538011 
L 169.536531 -195.538011 
L 168.249214 -195.538011 
L 166.961897 -195.538011 
L 165.67458 -195.538011 
L 164.387264 -195.538011 
L 163.099947 -195.538011 
L 161.81263 -195.538011 
L 160.525313 -195.538011 
L 159.237996 -195.538011 
L 157.950679 -195.538011 
L 156.663362 -195.538011 
L 155.376045 -195.538011 
L 154.088728 -195.538011 
L 152.801411 -195.538011 
L 151.514094 -195.538011 
L 150.226777 -195.538011 
L 148.93946 -195.538011 
L 147.652143 -195.538011 
L 146.364826 -195.538011 
L 145.077509 -195.538011 
L 143.790192 -195.538011 
L 142.502875 -195.538011 
L 141.215558 -195.538011 
L 139.928241 -195.538011 
L 138.640924 -195.538011 
L 137.353607 -195.538011 
L 136.06629 -195.538011 
L 134.778973 -195.538011 
L 133.491656 -195.538011 
L 132.20434 -195.538011 
L 130.917023 -195.538011 
L 129.629706 -195.538011 
L 128.342389 -195.538011 
L 127.055072 -195.538011 
L 125.767755 -195.538011 
L 124.480438 -195.538011 
L 123.193121 -195.538011 
L 121.905804 -195.538011 
L 120.618487 -195.538011 
L 119.33117 -195.538011 
L 118.043853 -195.538011 
L 116.756536 -195.538011 
L 115.469219 -195.538011 
L 114.181902 -195.538011 
L 112.894585 -195.538011 
L 111.607268 -195.538011 
L 110.319951 -195.538011 
L 109.032634 -195.538011 
L 107.745317 -195.538011 
L 106.458 -195.538011 
L 105.170683 -195.538011 
L 103.883366 -195.538011 
L 102.596049 -195.538011 
L 101.308732 -195.538011 
L 100.021415 -195.538011 
L 98.734099 -195.538011 
L 97.446782 -195.538011 
L 96.159465 -195.538011 
L 94.872148 -195.538011 
L 93.584831 -195.538011 
L 92.297514 -195.538011 
L 91.010197 -195.538011 
L 89.72288 -195.538011 
L 88.435563 -195.538011 
L 87.148246 -195.538011 
L 85.860929 -195.538011 
L 84.573612 -195.538011 
L 83.286295 -195.538011 
L 81.998978 -195.538011 
L 80.711661 -195.538011 
L 79.424344 -195.538011 
L 78.137027 -195.538011 
L 76.84971 -195.538011 
L 75.562393 -195.538011 
L 74.275076 -195.538011 
L 72.987759 -195.538011 
L 71.700442 -195.538011 
L 70.413125 -195.538011 
L 69.125808 -195.538011 
L 67.838491 -195.538011 
L 66.551174 -195.538011 
L 65.263858 -195.538011 
L 63.976541 -195.538011 
L 62.689224 -195.538011 
L 61.401907 -195.538011 
L 60.11459 -195.538011 
L 58.827273 -195.538011 
z
" id="m9a02e4d5b6" style="stroke:#4bc0c0;stroke-opacity:0.5;"/>
    </defs>
    <g clip-path="url(#p70e633f1f4)">
     <use style="fill:#4bc0c0;fill-opacity:0.5;stroke:#4bc0c0;stroke-opacity:0.5;" x="0" xlink:href="#m9a02e4d5b6" y="581.789375"/>
    </g>
   </g>
   <g id="line2d_1">
    <path clip-path="url(#p70e633f1f4)" d="M 388.369688 386.139476 
L 389.652547 386.097285 
L 390.935406 386.040566 
L 392.218265 385.964844 
L 393.501123 385.864457 
L 394.783982 385.732297 
L 396.066841 385.559527 
L 397.3497 385.335253 
L 398.632559 385.046171 
L 399.915418 384.676187 
L 401.198277 384.206021 
L 402.481136 383.612804 
L 403.763995 382.869689 
L 405.046854 381.945494 
L 406.329713 380.804406 
L 407.612572 379.405769 
L 408.895431 377.703995 
L 410.17829 375.648632 
L 411.461149 373.184625 
L 412.744008 370.25281 
L 414.026867 366.790671 
L 415.309726 362.733387 
L 416.592585 358.015199 
L 417.875444 352.571096 
L 419.158303 346.338817 
L 420.441162 339.26115 
L 421.724021 331.288482 
L 423.00688 322.381551 
L 424.289739 312.514295 
L 425.572598 301.67672 
L 426.855457 289.877656 
L 428.138316 277.147272 
L 429.421175 263.539207 
L 430.704034 249.13218 
L 431.986893 234.030938 
L 433.269752 218.36643 
L 434.552611 202.295093 
L 435.83547 185.997203 
L 437.118329 169.674239 
L 438.401188 153.545302 
L 439.684047 137.842612 
L 440.966906 122.806238 
L 442.249765 108.678169 
L 443.532624 95.695958 
L 444.815483 84.086142 
L 446.098342 74.057708 
L 447.381201 65.795848 
L 448.66406 59.456283 
L 449.946919 55.160384 
L 451.229778 52.991303 
L 452.512637 52.991303 
L 453.795496 55.160384 
L 455.078355 59.456283 
L 456.361214 65.795848 
L 457.644073 74.057708 
L 458.926932 84.086142 
L 460.209791 95.695958 
L 461.49265 108.678169 
L 462.775509 122.806238 
L 464.058368 137.842612 
L 465.341227 153.545302 
L 466.624086 169.674239 
L 467.906945 185.997203 
L 469.189804 202.295093 
L 470.472663 218.36643 
L 471.755522 234.030938 
L 473.038381 249.13218 
L 474.32124 263.539207 
L 475.604099 277.147272 
L 476.886958 289.877656 
L 478.169817 301.67672 
L 479.452676 312.514295 
L 480.735535 322.381551 
L 482.018394 331.288482 
L 483.301253 339.26115 
L 484.584112 346.338817 
L 485.866971 352.571096 
L 487.14983 358.015199 
L 488.432689 362.733387 
L 489.715548 366.790671 
L 490.998407 370.25281 
L 492.281266 373.184625 
L 493.564124 375.648632 
L 494.846983 377.703995 
L 496.129842 379.405769 
L 497.412701 380.804406 
L 498.69556 381.945494 
L 499.978419 382.869689 
L 501.261278 383.612804 
L 502.544137 384.206021 
L 503.826996 384.676187 
L 505.109855 385.046171 
L 506.392714 385.335253 
L 507.675573 385.559527 
L 508.958432 385.732297 
L 510.241291 385.864457 
L 511.52415 385.964844 
L 512.807009 386.040566 
L 514.089868 386.097285 
L 515.372727 386.139476 
" style="fill:none;stroke:#ff6384;stroke-linecap:square;"/>
   </g>
   <g id="line2d_2">
    <path clip-path="url(#p70e633f1f4)" d="M 281.487095 386.139371 
L 282.768751 386.097141 
L 284.050408 386.040368 
L 285.332064 385.964575 
L 286.613721 385.864094 
L 287.895377 385.73181 
L 289.177034 385.558878 
L 290.45869 385.334393 
L 291.740347 385.04504 
L 293.022004 384.674709 
L 294.30366 384.204102 
L 295.585317 383.610328 
L 296.866973 382.866516 
L 298.14863 381.941454 
L 299.430286 380.799296 
L 300.711943 379.399346 
L 301.993599 377.695976 
L 303.275256 375.638684 
L 304.556912 373.172366 
L 305.838569 370.2378 
L 307.120225 366.772413 
L 308.401882 362.711322 
L 309.683538 357.988708 
L 310.965195 352.539497 
L 312.246851 346.301371 
L 313.528508 339.217063 
L 314.810165 331.236916 
L 316.091821 322.321628 
L 317.373478 312.445114 
L 318.655134 301.597371 
L 319.936791 289.787238 
L 321.218447 277.04491 
L 322.500104 263.424078 
L 323.78176 249.003534 
L 325.063417 233.888124 
L 326.345073 218.208919 
L 327.62673 202.122504 
L 328.908386 185.809323 
L 330.190043 169.471045 
L 331.471699 153.326975 
L 332.753356 137.609553 
L 334.035012 122.559072 
L 335.316669 108.417748 
L 336.598325 95.423357 
L 337.879982 83.802649 
L 339.161639 73.764805 
L 340.443295 65.495194 
L 341.724952 59.149682 
L 343.006608 54.849752 
L 344.288265 52.678636 
L 345.569921 52.678636 
L 346.851578 54.849752 
L 348.133234 59.149682 
L 349.414891 65.495194 
L 350.696547 73.764805 
L 351.978204 83.802649 
L 353.25986 95.423357 
L 354.541517 108.417748 
L 355.823173 122.559072 
L 357.10483 137.609553 
L 358.386486 153.326975 
L 359.668143 169.471045 
L 360.9498 185.809323 
L 362.231456 202.122504 
L 363.513113 218.208919 
L 364.794769 233.888124 
L 366.076426 249.003534 
L 367.358082 263.424078 
L 368.639739 277.04491 
L 369.921395 289.787238 
L 371.203052 301.597371 
L 372.484708 312.445114 
L 373.766365 322.321628 
L 375.048021 331.236916 
L 376.329678 339.217063 
L 377.611334 346.301371 
L 378.892991 352.539497 
L 380.174647 357.988708 
L 381.456304 362.711322 
L 382.73796 366.772413 
L 384.019617 370.2378 
L 385.301274 373.172366 
L 386.58293 375.638684 
L 387.864587 377.695976 
L 389.146243 379.399346 
L 390.4279 380.799296 
L 391.709556 381.941454 
L 392.991213 382.866516 
L 394.272869 383.610328 
L 395.554526 384.204102 
L 396.836182 384.674709 
L 398.117839 385.04504 
L 399.399495 385.334393 
L 400.681152 385.558878 
L 401.962808 385.73181 
L 403.244465 385.864094 
L 404.526121 385.964575 
L 405.807778 386.040368 
L 407.089435 386.097141 
L 408.371091 386.139371 
" style="fill:none;stroke:#36a2eb;stroke-linecap:square;"/>
   </g>
   <g id="line2d_3">
    <path clip-path="url(#p70e633f1f4)" d="M 58.827273 386.139864 
L 60.11459 386.097819 
L 61.401907 386.041296 
L 62.689224 385.965836 
L 63.976541 385.865796 
L 65.263858 385.734095 
L 66.551174 385.561923 
L 67.838491 385.338425 
L 69.125808 385.050344 
L 70.413125 384.681642 
L 71.700442 384.213104 
L 72.987759 383.621941 
L 74.275076 382.881399 
L 75.562393 381.960405 
L 76.84971 380.823269 
L 78.137027 379.429475 
L 79.424344 377.733594 
L 80.711661 375.685349 
L 81.998978 373.229875 
L 83.286295 370.308213 
L 84.573612 366.858063 
L 85.860929 362.814829 
L 87.148246 358.112981 
L 88.435563 352.687731 
L 89.72288 346.477034 
L 91.010197 339.423876 
L 92.297514 331.478819 
L 93.584831 322.602732 
L 94.872148 312.769646 
L 96.159465 301.969602 
L 97.446782 290.211398 
L 98.734099 277.525099 
L 100.021415 263.964159 
L 101.308732 249.607023 
L 102.596049 234.558077 
L 103.883366 218.947815 
L 105.170683 202.932133 
L 106.458 186.690682 
L 107.745317 170.424245 
L 109.032634 154.351162 
L 110.319951 138.702851 
L 111.607268 123.718548 
L 112.894585 109.639404 
L 114.181902 96.70215 
L 115.469219 85.132539 
L 116.756536 75.138833 
L 118.043853 66.905584 
L 119.33117 60.587973 
L 120.618487 56.306951 
L 121.905804 54.145382 
L 123.193121 54.145382 
L 124.480438 56.306951 
L 125.767755 60.587973 
L 127.055072 66.905584 
L 128.342389 75.138833 
L 129.629706 85.132539 
L 130.917023 96.70215 
L 132.20434 109.639404 
L 133.491656 123.718548 
L 134.778973 138.702851 
L 136.06629 154.351162 
L 137.353607 170.424245 
L 138.640924 186.690682 
L 139.928241 202.932133 
L 141.215558 218.947815 
L 142.502875 234.558077 
L 143.790192 249.607023 
L 145.077509 263.964159 
L 146.364826 277.525099 
L 147.652143 290.211398 
L 148.93946 301.969602 
L 150.226777 312.769646 
L 151.514094 322.602732 
L 152.801411 331.478819 
L 154.088728 339.423876 
L 155.376045 346.477034 
L 156.663362 352.687731 
L 157.950679 358.112981 
L 159.237996 362.814829 
L 160.525313 366.858063 
L 161.81263 370.308213 
L 163.099947 373.229875 
L 164.387264 375.685349 
L 165.67458 377.733594 
L 166.961897 379.429475 
L 168.249214 380.823269 
L 169.536531 381.960405 
L 170.823848 382.881399 
L 172.111165 383.621941 
L 173.398482 384.213104 
L 174.685799 384.681642 
L 175.973116 385.050344 
L 177.260433 385.338425 
L 178.54775 385.561923 
L 179.835067 385.734095 
L 181.122384 385.865796 
L 182.409701 385.965836 
L 183.697018 386.041296 
L 184.984335 386.097819 
L 186.271652 386.139864 
" style="fill:none;stroke:#4bc0c0;stroke-linecap:square;"/>
   </g>
   <g id="patch_3">
    <path d="M 36 402.93 
L 538.2 402.93 
" style="fill:none;stroke:#000000;stroke-linecap:square;stroke-linejoin:miter;stroke-width:0.8;"/>
   </g>
   <g id="legend_1">
    <g id="patch_4">
     <path d="M 233.434063 252.973125 
L 340.765938 252.973125 
Q 343.565938 252.973125 343.565938 250.173125 
L 343.565938 188.756875 
Q 343.565938 185.956875 340.765938 185.956875 
L 233.434063 185.956875 
Q 230.634063 185.956875 230.634063 188.756875 
L 230.634063 250.173125 
Q 230.634063 252.973125 233.434063 252.973125 
z
" style="fill:#ffffff;opacity:0.8;stroke:#cccccc;stroke-linejoin:miter;"/>
    </g>
    <g id="patch_5">
     <path d="M 236.234063 202.194688 
L 264.234063 202.194688 
L 264.234063 192.394688 
L 236.234063 192.394688 
z
" style="fill:#ff6384;opacity:0.5;stroke:#ff6384;stroke-linejoin:miter;"/>
    </g>
    <g id="text_1">
     <!-- 0_fee -->
     <defs>
      <path d="M 31.78125 66.40625 
Q 24.171875 66.40625 20.328125 58.90625 
Q 16.5 51.421875 16.5 36.375 
Q 16.5 21.390625 20.328125 13.890625 
Q 24.171875 6.390625 31.78125 6.390625 
Q 39.453125 6.390625 43.28125 13.890625 
Q 47.125 21.390625 47.125 36.375 
Q 47.125 51.421875 43.28125 58.90625 
Q 39.453125 66.40625 31.78125 66.40625 
z
M 31.78125 74.21875 
Q 44.046875 74.21875 50.515625 64.515625 
Q 56.984375 54.828125 56.984375 36.375 
Q 56.984375 17.96875 50.515625 8.265625 
Q 44.046875 -1.421875 31.78125 -1.421875 
Q 19.53125 -1.421875 13.0625 8.265625 
Q 6.59375 17.96875 6.59375 36.375 
Q 6.59375 54.828125 13.0625 64.515625 
Q 19.53125 74.21875 31.78125 74.21875 
z
" id="DejaVuSans-48"/>
      <path d="M 50.984375 -16.609375 
L 50.984375 -23.578125 
L -0.984375 -23.578125 
L -0.984375 -16.609375 
z
" id="DejaVuSans-95"/>
      <path d="M 37.109375 75.984375 
L 37.109375 68.5 
L 28.515625 68.5 
Q 23.6875 68.5 21.796875 66.546875 
Q 19.921875 64.59375 19.921875 59.515625 
L 19.921875 54.6875 
L 34.71875 54.6875 
L 34.71875 47.703125 
L 19.921875 47.703125 
L 19.921875 0 
L 10.890625 0 
L 10.890625 47.703125 
L 2.296875 47.703125 
L 2.296875 54.6875 
L 10.890625 54.6875 
L 10.890625 58.5 
Q 10.890625 67.625 15.140625 71.796875 
Q 19.390625 75.984375 28.609375 75.984375 
z
" id="DejaVuSans-102"/>
      <path d="M 56.203125 29.59375 
L 56.203125 25.203125 
L 14.890625 25.203125 
Q 15.484375 15.921875 20.484375 11.0625 
Q 25.484375 6.203125 34.421875 6.203125 
Q 39.59375 6.203125 44.453125 7.46875 
Q 49.3125 8.734375 54.109375 11.28125 
L 54.109375 2.78125 
Q 49.265625 0.734375 44.1875 -0.34375 
Q 39.109375 -1.421875 33.890625 -1.421875 
Q 20.796875 -1.421875 13.15625 6.1875 
Q 5.515625 13.8125 5.515625 26.8125 
Q 5.515625 40.234375 12.765625 48.109375 
Q 20.015625 56 32.328125 56 
Q 43.359375 56 49.78125 48.890625 
Q 56.203125 41.796875 56.203125 29.59375 
z
M 47.21875 32.234375 
Q 47.125 39.59375 43.09375 43.984375 
Q 39.0625 48.390625 32.421875 48.390625 
Q 24.90625 48.390625 20.390625 44.140625 
Q 15.875 39.890625 15.1875 32.171875 
z
" id="DejaVuSans-101"/>
     </defs>
     <g transform="translate(275.434063 202.194688)scale(0.14 -0.14)">
      <use xlink:href="#DejaVuSans-48"/>
      <use x="63.623047" xlink:href="#DejaVuSans-95"/>
      <use x="113.623047" xlink:href="#DejaVuSans-102"/>
      <use x="148.828125" xlink:href="#DejaVuSans-101"/>
      <use x="210.351562" xlink:href="#DejaVuSans-101"/>
     </g>
    </g>
    <g id="patch_6">
     <path d="M 236.234063 223.133438 
L 264.234063 223.133438 
L 264.234063 213.333438 
L 236.234063 213.333438 
z
" style="fill:#36a2eb;opacity:0.5;stroke:#36a2eb;stroke-linejoin:miter;"/>
    </g>
    <g id="text_2">
     <!-- 20_fee -->
     <defs>
      <path d="M 19.1875 8.296875 
L 53.609375 8.296875 
L 53.609375 0 
L 7.328125 0 
L 7.328125 8.296875 
Q 12.9375 14.109375 22.625 23.890625 
Q 32.328125 33.6875 34.8125 36.53125 
Q 39.546875 41.84375 41.421875 45.53125 
Q 43.3125 49.21875 43.3125 52.78125 
Q 43.3125 58.59375 39.234375 62.25 
Q 35.15625 65.921875 28.609375 65.921875 
Q 23.96875 65.921875 18.8125 64.3125 
Q 13.671875 62.703125 7.8125 59.421875 
L 7.8125 69.390625 
Q 13.765625 71.78125 18.9375 73 
Q 24.125 74.21875 28.421875 74.21875 
Q 39.75 74.21875 46.484375 68.546875 
Q 53.21875 62.890625 53.21875 53.421875 
Q 53.21875 48.921875 51.53125 44.890625 
Q 49.859375 40.875 45.40625 35.40625 
Q 44.1875 33.984375 37.640625 27.21875 
Q 31.109375 20.453125 19.1875 8.296875 
z
" id="DejaVuSans-50"/>
     </defs>
     <g transform="translate(275.434063 223.133438)scale(0.14 -0.14)">
      <use xlink:href="#DejaVuSans-50"/>
      <use x="63.623047" xlink:href="#DejaVuSans-48"/>
      <use x="127.246094" xlink:href="#DejaVuSans-95"/>
      <use x="177.246094" xlink:href="#DejaVuSans-102"/>
      <use x="212.451172" xlink:href="#DejaVuSans-101"/>
      <use x="273.974609" xlink:href="#DejaVuSans-101"/>
     </g>
    </g>
    <g id="patch_7">
     <path d="M 236.234063 244.072188 
L 264.234063 244.072188 
L 264.234063 234.272188 
L 236.234063 234.272188 
z
" style="fill:#4bc0c0;opacity:0.5;stroke:#4bc0c0;stroke-linejoin:miter;"/>
    </g>
    <g id="text_3">
     <!-- base_fee -->
     <defs>
      <path d="M 48.6875 27.296875 
Q 48.6875 37.203125 44.609375 42.84375 
Q 40.53125 48.484375 33.40625 48.484375 
Q 26.265625 48.484375 22.1875 42.84375 
Q 18.109375 37.203125 18.109375 27.296875 
Q 18.109375 17.390625 22.1875 11.75 
Q 26.265625 6.109375 33.40625 6.109375 
Q 40.53125 6.109375 44.609375 11.75 
Q 48.6875 17.390625 48.6875 27.296875 
z
M 18.109375 46.390625 
Q 20.953125 51.265625 25.265625 53.625 
Q 29.59375 56 35.59375 56 
Q 45.5625 56 51.78125 48.09375 
Q 58.015625 40.1875 58.015625 27.296875 
Q 58.015625 14.40625 51.78125 6.484375 
Q 45.5625 -1.421875 35.59375 -1.421875 
Q 29.59375 -1.421875 25.265625 0.953125 
Q 20.953125 3.328125 18.109375 8.203125 
L 18.109375 0 
L 9.078125 0 
L 9.078125 75.984375 
L 18.109375 75.984375 
z
" id="DejaVuSans-98"/>
      <path d="M 34.28125 27.484375 
Q 23.390625 27.484375 19.1875 25 
Q 14.984375 22.515625 14.984375 16.5 
Q 14.984375 11.71875 18.140625 8.90625 
Q 21.296875 6.109375 26.703125 6.109375 
Q 34.1875 6.109375 38.703125 11.40625 
Q 43.21875 16.703125 43.21875 25.484375 
L 43.21875 27.484375 
z
M 52.203125 31.203125 
L 52.203125 0 
L 43.21875 0 
L 43.21875 8.296875 
Q 40.140625 3.328125 35.546875 0.953125 
Q 30.953125 -1.421875 24.3125 -1.421875 
Q 15.921875 -1.421875 10.953125 3.296875 
Q 6 8.015625 6 15.921875 
Q 6 25.140625 12.171875 29.828125 
Q 18.359375 34.515625 30.609375 34.515625 
L 43.21875 34.515625 
L 43.21875 35.40625 
Q 43.21875 41.609375 39.140625 45 
Q 35.0625 48.390625 27.6875 48.390625 
Q 23 48.390625 18.546875 47.265625 
Q 14.109375 46.140625 10.015625 43.890625 
L 10.015625 52.203125 
Q 14.9375 54.109375 19.578125 55.046875 
Q 24.21875 56 28.609375 56 
Q 40.484375 56 46.34375 49.84375 
Q 52.203125 43.703125 52.203125 31.203125 
z
" id="DejaVuSans-97"/>
      <path d="M 44.28125 53.078125 
L 44.28125 44.578125 
Q 40.484375 46.53125 36.375 47.5 
Q 32.28125 48.484375 27.875 48.484375 
Q 21.1875 48.484375 17.84375 46.4375 
Q 14.5 44.390625 14.5 40.28125 
Q 14.5 37.15625 16.890625 35.375 
Q 19.28125 33.59375 26.515625 31.984375 
L 29.59375 31.296875 
Q 39.15625 29.25 43.1875 25.515625 
Q 47.21875 21.78125 47.21875 15.09375 
Q 47.21875 7.46875 41.1875 3.015625 
Q 35.15625 -1.421875 24.609375 -1.421875 
Q 20.21875 -1.421875 15.453125 -0.5625 
Q 10.6875 0.296875 5.421875 2 
L 5.421875 11.28125 
Q 10.40625 8.6875 15.234375 7.390625 
Q 20.0625 6.109375 24.8125 6.109375 
Q 31.15625 6.109375 34.5625 8.28125 
Q 37.984375 10.453125 37.984375 14.40625 
Q 37.984375 18.0625 35.515625 20.015625 
Q 33.0625 21.96875 24.703125 23.78125 
L 21.578125 24.515625 
Q 13.234375 26.265625 9.515625 29.90625 
Q 5.8125 33.546875 5.8125 39.890625 
Q 5.8125 47.609375 11.28125 51.796875 
Q 16.75 56 26.8125 56 
Q 31.78125 56 36.171875 55.265625 
Q 40.578125 54.546875 44.28125 53.078125 
z
" id="DejaVuSans-115"/>
     </defs>
     <g transform="translate(275.434063 244.072188)scale(0.14 -0.14)">
      <use xlink:href="#DejaVuSans-98"/>
      <use x="63.476562" xlink:href="#DejaVuSans-97"/>
      <use x="124.755859" xlink:href="#DejaVuSans-115"/>
      <use x="176.855469" xlink:href="#DejaVuSans-101"/>
      <use x="238.378906" xlink:href="#DejaVuSans-95"/>
      <use x="288.378906" xlink:href="#DejaVuSans-102"/>
      <use x="323.583984" xlink:href="#DejaVuSans-101"/>
      <use x="385.107422" xlink:href="#DejaVuSans-101"/>
     </g>
    </g>
   </g>
  </g>
  <g id="axes_2">
   <g id="patch_8">
    <path d="M 36 525.24 
L 538.2 525.24 
L 538.2 402.93 
L 36 402.93 
z
" style="fill:none;"/>
   </g>
   <g id="patch_9">
    <path clip-path="url(#pd13b44b68d)" d="M 420.755463 519.680455 
L 482.986952 519.680455 
L 482.986952 497.442273 
L 420.755463 497.442273 
z
" style="fill:#ff6384;opacity:0.5;"/>
   </g>
   <g id="patch_10">
    <path clip-path="url(#pd13b44b68d)" d="M 313.842514 475.204091 
L 376.015672 475.204091 
L 376.015672 452.965909 
L 313.842514 452.965909 
z
" style="fill:#36a2eb;opacity:0.5;"/>
   </g>
   <g id="patch_11">
    <path clip-path="url(#pd13b44b68d)" d="M 91.325589 430.727727 
L 153.773335 430.727727 
L 153.773335 408.489545 
L 91.325589 408.489545 
z
" style="fill:#4bc0c0;opacity:0.5;"/>
   </g>
   <g id="matplotlib.axis_1">
    <g id="xtick_1">
     <g id="line2d_4">
      <defs>
       <path d="M 0 0 
L 0 3.5 
" id="mfc97236505" style="stroke:#000000;stroke-width:0.8;"/>
      </defs>
      <g>
       <use style="stroke:#000000;stroke-width:0.8;" x="80.822048" xlink:href="#mfc97236505" y="525.24"/>
      </g>
     </g>
     <g id="text_4">
      <!-- 40.0 -->
      <defs>
       <path d="M 37.796875 64.3125 
L 12.890625 25.390625 
L 37.796875 25.390625 
z
M 35.203125 72.90625 
L 47.609375 72.90625 
L 47.609375 25.390625 
L 58.015625 25.390625 
L 58.015625 17.1875 
L 47.609375 17.1875 
L 47.609375 0 
L 37.796875 0 
L 37.796875 17.1875 
L 4.890625 17.1875 
L 4.890625 26.703125 
z
" id="DejaVuSans-52"/>
       <path d="M 10.6875 12.40625 
L 21 12.40625 
L 21 0 
L 10.6875 0 
z
" id="DejaVuSans-46"/>
      </defs>
      <g transform="translate(65.236111 542.877813)scale(0.14 -0.14)">
       <use xlink:href="#DejaVuSans-52"/>
       <use x="63.623047" xlink:href="#DejaVuSans-48"/>
       <use x="127.246094" xlink:href="#DejaVuSans-46"/>
       <use x="159.033203" xlink:href="#DejaVuSans-48"/>
      </g>
     </g>
    </g>
    <g id="xtick_2">
     <g id="line2d_5">
      <g>
       <use style="stroke:#000000;stroke-width:0.8;" x="143.288237" xlink:href="#mfc97236505" y="525.24"/>
      </g>
     </g>
     <g id="text_5">
      <!-- 42.5 -->
      <defs>
       <path d="M 10.796875 72.90625 
L 49.515625 72.90625 
L 49.515625 64.59375 
L 19.828125 64.59375 
L 19.828125 46.734375 
Q 21.96875 47.46875 24.109375 47.828125 
Q 26.265625 48.1875 28.421875 48.1875 
Q 40.625 48.1875 47.75 41.5 
Q 54.890625 34.8125 54.890625 23.390625 
Q 54.890625 11.625 47.5625 5.09375 
Q 40.234375 -1.421875 26.90625 -1.421875 
Q 22.3125 -1.421875 17.546875 -0.640625 
Q 12.796875 0.140625 7.71875 1.703125 
L 7.71875 11.625 
Q 12.109375 9.234375 16.796875 8.0625 
Q 21.484375 6.890625 26.703125 6.890625 
Q 35.15625 6.890625 40.078125 11.328125 
Q 45.015625 15.765625 45.015625 23.390625 
Q 45.015625 31 40.078125 35.4375 
Q 35.15625 39.890625 26.703125 39.890625 
Q 22.75 39.890625 18.8125 39.015625 
Q 14.890625 38.140625 10.796875 36.28125 
z
" id="DejaVuSans-53"/>
      </defs>
      <g transform="translate(127.702299 542.877813)scale(0.14 -0.14)">
       <use xlink:href="#DejaVuSans-52"/>
       <use x="63.623047" xlink:href="#DejaVuSans-50"/>
       <use x="127.246094" xlink:href="#DejaVuSans-46"/>
       <use x="159.033203" xlink:href="#DejaVuSans-53"/>
      </g>
     </g>
    </g>
    <g id="xtick_3">
     <g id="line2d_6">
      <g>
       <use style="stroke:#000000;stroke-width:0.8;" x="205.754425" xlink:href="#mfc97236505" y="525.24"/>
      </g>
     </g>
     <g id="text_6">
      <!-- 45.0 -->
      <g transform="translate(190.168488 542.877813)scale(0.14 -0.14)">
       <use xlink:href="#DejaVuSans-52"/>
       <use x="63.623047" xlink:href="#DejaVuSans-53"/>
       <use x="127.246094" xlink:href="#DejaVuSans-46"/>
       <use x="159.033203" xlink:href="#DejaVuSans-48"/>
      </g>
     </g>
    </g>
    <g id="xtick_4">
     <g id="line2d_7">
      <g>
       <use style="stroke:#000000;stroke-width:0.8;" x="268.220614" xlink:href="#mfc97236505" y="525.24"/>
      </g>
     </g>
     <g id="text_7">
      <!-- 47.5 -->
      <defs>
       <path d="M 8.203125 72.90625 
L 55.078125 72.90625 
L 55.078125 68.703125 
L 28.609375 0 
L 18.3125 0 
L 43.21875 64.59375 
L 8.203125 64.59375 
z
" id="DejaVuSans-55"/>
      </defs>
      <g transform="translate(252.634676 542.877813)scale(0.14 -0.14)">
       <use xlink:href="#DejaVuSans-52"/>
       <use x="63.623047" xlink:href="#DejaVuSans-55"/>
       <use x="127.246094" xlink:href="#DejaVuSans-46"/>
       <use x="159.033203" xlink:href="#DejaVuSans-53"/>
      </g>
     </g>
    </g>
    <g id="xtick_5">
     <g id="line2d_8">
      <g>
       <use style="stroke:#000000;stroke-width:0.8;" x="330.686802" xlink:href="#mfc97236505" y="525.24"/>
      </g>
     </g>
     <g id="text_8">
      <!-- 50.0 -->
      <g transform="translate(315.100864 542.877813)scale(0.14 -0.14)">
       <use xlink:href="#DejaVuSans-53"/>
       <use x="63.623047" xlink:href="#DejaVuSans-48"/>
       <use x="127.246094" xlink:href="#DejaVuSans-46"/>
       <use x="159.033203" xlink:href="#DejaVuSans-48"/>
      </g>
     </g>
    </g>
    <g id="xtick_6">
     <g id="line2d_9">
      <g>
       <use style="stroke:#000000;stroke-width:0.8;" x="393.15299" xlink:href="#mfc97236505" y="525.24"/>
      </g>
     </g>
     <g id="text_9">
      <!-- 52.5 -->
      <g transform="translate(377.567053 542.877813)scale(0.14 -0.14)">
       <use xlink:href="#DejaVuSans-53"/>
       <use x="63.623047" xlink:href="#DejaVuSans-50"/>
       <use x="127.246094" xlink:href="#DejaVuSans-46"/>
       <use x="159.033203" xlink:href="#DejaVuSans-53"/>
      </g>
     </g>
    </g>
    <g id="xtick_7">
     <g id="line2d_10">
      <g>
       <use style="stroke:#000000;stroke-width:0.8;" x="455.619179" xlink:href="#mfc97236505" y="525.24"/>
      </g>
     </g>
     <g id="text_10">
      <!-- 55.0 -->
      <g transform="translate(440.033241 542.877813)scale(0.14 -0.14)">
       <use xlink:href="#DejaVuSans-53"/>
       <use x="63.623047" xlink:href="#DejaVuSans-53"/>
       <use x="127.246094" xlink:href="#DejaVuSans-46"/>
       <use x="159.033203" xlink:href="#DejaVuSans-48"/>
      </g>
     </g>
    </g>
    <g id="xtick_8">
     <g id="line2d_11">
      <g>
       <use style="stroke:#000000;stroke-width:0.8;" x="518.085367" xlink:href="#mfc97236505" y="525.24"/>
      </g>
     </g>
     <g id="text_11">
      <!-- 57.5 -->
      <g transform="translate(502.49943 542.877813)scale(0.14 -0.14)">
       <use xlink:href="#DejaVuSans-53"/>
       <use x="63.623047" xlink:href="#DejaVuSans-55"/>
       <use x="127.246094" xlink:href="#DejaVuSans-46"/>
       <use x="159.033203" xlink:href="#DejaVuSans-53"/>
      </g>
     </g>
    </g>
   </g>
   <g id="line2d_12">
    <path clip-path="url(#pd13b44b68d)" d="M 451.871207 525.24 
L 451.871207 402.93 
" style="fill:none;stroke:#ff6384;stroke-dasharray:5.55,2.4;stroke-dashoffset:0;stroke-opacity:0.8;stroke-width:1.5;"/>
   </g>
   <g id="line2d_13">
    <path clip-path="url(#pd13b44b68d)" d="M 344.929093 525.24 
L 344.929093 402.93 
" style="fill:none;stroke:#36a2eb;stroke-dasharray:5.55,2.4;stroke-dashoffset:0;stroke-opacity:0.8;stroke-width:1.5;"/>
   </g>
   <g id="line2d_14">
    <path clip-path="url(#pd13b44b68d)" d="M 122.549462 525.24 
L 122.549462 402.93 
" style="fill:none;stroke:#4bc0c0;stroke-dasharray:5.55,2.4;stroke-dashoffset:0;stroke-opacity:0.8;stroke-width:1.5;"/>
   </g>
   <g id="patch_12">
    <path d="M 36 525.24 
L 538.2 525.24 
" style="fill:none;stroke:#000000;stroke-linecap:square;stroke-linejoin:miter;stroke-width:0.8;"/>
   </g>
  </g>
 </g>
 <defs>
  <clipPath id="p70e633f1f4">
   <rect height="366.93" width="502.2" x="36" y="36"/>
  </clipPath>
  <clipPath id="pd13b44b68d">
   <rect height="122.31" width="502.2" x="36" y="402.93"/>
  </clipPath>
 </defs>
</svg>
