<?xml version="1.0" encoding="utf-8" standalone="no"?>
<!DOCTYPE svg PUBLIC "-//W3C//DTD SVG 1.1//EN"
  "http://www.w3.org/Graphics/SVG/1.1/DTD/svg11.dtd">
<!-- Created with matplotlib (https://matplotlib.org/) -->
<svg height="581.789375pt" version="1.1" viewBox="0 0 581.717694 581.789375" width="581.717694pt" xmlns="http://www.w3.org/2000/svg" xmlns:xlink="http://www.w3.org/1999/xlink">
 <defs>
  <style type="text/css">
*{stroke-linecap:butt;stroke-linejoin:round;}
  </style>
 </defs>
 <g id="figure_1">
  <g id="patch_1">
   <path d="M 0 581.789375 
L 581.717694 581.789375 
L 581.717694 0 
L 0 0 
z
" style="fill:none;"/>
  </g>
  <g id="axes_1">
   <g id="patch_2">
    <path d="M 36 402.93 
L 538.2 402.93 
L 538.2 36 
L 36 36 
z
" style="fill:none;"/>
   </g>
   <g id="PolyCollection_1">
    <defs>
     <path d="M 387.609791 -195.538011 
L 387.609791 -195.649852 
L 388.900326 -195.692025 
L 390.190861 -195.748721 
L 391.481396 -195.824411 
L 392.77193 -195.924756 
L 394.062465 -196.056861 
L 395.353 -196.229558 
L 396.643534 -196.453739 
L 397.934069 -196.7427 
L 399.224604 -197.112529 
L 400.515138 -197.582498 
L 401.805673 -198.175467 
L 403.096208 -198.918271 
L 404.386743 -199.842079 
L 405.677277 -200.982689 
L 406.967812 -202.38074 
L 408.258347 -204.081802 
L 409.548881 -206.136305 
L 410.839416 -208.59928 
L 412.129951 -211.529867 
L 413.420486 -214.990557 
L 414.71102 -219.046143 
L 416.001555 -223.762356 
L 417.29209 -229.204179 
L 418.582624 -235.433849 
L 419.873159 -242.508554 
L 421.163694 -250.477884 
L 422.454228 -259.381086 
L 423.744763 -269.244212 
L 425.035298 -280.07725 
L 426.325833 -291.871374 
L 427.616367 -304.596429 
L 428.906902 -318.198797 
L 430.197437 -332.599793 
L 431.487971 -347.694713 
L 432.778506 -363.352664 
L 434.069041 -379.417273 
L 435.359576 -395.708341 
L 436.65011 -412.024471 
L 437.940645 -428.146657 
L 439.23118 -443.842773 
L 440.521714 -458.872852 
L 441.812249 -472.995006 
L 443.102784 -485.971783 
L 444.393318 -497.576739 
L 445.683853 -507.600975 
L 446.974388 -515.859377 
L 448.264923 -522.196287 
L 449.555457 -526.490388 
L 450.845992 -528.658561 
L 452.136527 -528.658561 
L 453.427061 -526.490388 
L 454.717596 -522.196287 
L 456.008131 -515.859377 
L 457.298666 -507.600975 
L 458.5892 -497.576739 
L 459.879735 -485.971783 
L 461.17027 -472.995006 
L 462.460804 -458.872852 
L 463.751339 -443.842773 
L 465.041874 -428.146657 
L 466.332408 -412.024471 
L 467.622943 -395.708341 
L 468.913478 -379.417273 
L 470.204013 -363.352664 
L 471.494547 -347.694713 
L 472.785082 -332.599793 
L 474.075617 -318.198797 
L 475.366151 -304.596429 
L 476.656686 -291.871374 
L 477.947221 -280.07725 
L 479.237756 -269.244212 
L 480.52829 -259.381086 
L 481.818825 -250.477884 
L 483.10936 -242.508554 
L 484.399894 -235.433849 
L 485.690429 -229.204179 
L 486.980964 -223.762356 
L 488.271498 -219.046143 
L 489.562033 -214.990557 
L 490.852568 -211.529867 
L 492.143103 -208.59928 
L 493.433637 -206.136305 
L 494.724172 -204.081802 
L 496.014707 -202.38074 
L 497.305241 -200.982689 
L 498.595776 -199.842079 
L 499.886311 -198.918271 
L 501.176846 -198.175467 
L 502.46738 -197.582498 
L 503.757915 -197.112529 
L 505.04845 -196.7427 
L 506.338984 -196.453739 
L 507.629519 -196.229558 
L 508.920054 -196.056861 
L 510.210588 -195.924756 
L 511.501123 -195.824411 
L 512.791658 -195.748721 
L 514.082193 -195.692025 
L 515.372727 -195.649852 
L 515.372727 -195.538011 
L 515.372727 -195.538011 
L 514.082193 -195.538011 
L 512.791658 -195.538011 
L 511.501123 -195.538011 
L 510.210588 -195.538011 
L 508.920054 -195.538011 
L 507.629519 -195.538011 
L 506.338984 -195.538011 
L 505.04845 -195.538011 
L 503.757915 -195.538011 
L 502.46738 -195.538011 
L 501.176846 -195.538011 
L 499.886311 -195.538011 
L 498.595776 -195.538011 
L 497.305241 -195.538011 
L 496.014707 -195.538011 
L 494.724172 -195.538011 
L 493.433637 -195.538011 
L 492.143103 -195.538011 
L 490.852568 -195.538011 
L 489.562033 -195.538011 
L 488.271498 -195.538011 
L 486.980964 -195.538011 
L 485.690429 -195.538011 
L 484.399894 -195.538011 
L 483.10936 -195.538011 
L 481.818825 -195.538011 
L 480.52829 -195.538011 
L 479.237756 -195.538011 
L 477.947221 -195.538011 
L 476.656686 -195.538011 
L 475.366151 -195.538011 
L 474.075617 -195.538011 
L 472.785082 -195.538011 
L 471.494547 -195.538011 
L 470.204013 -195.538011 
L 468.913478 -195.538011 
L 467.622943 -195.538011 
L 466.332408 -195.538011 
L 465.041874 -195.538011 
L 463.751339 -195.538011 
L 462.460804 -195.538011 
L 461.17027 -195.538011 
L 459.879735 -195.538011 
L 458.5892 -195.538011 
L 457.298666 -195.538011 
L 456.008131 -195.538011 
L 454.717596 -195.538011 
L 453.427061 -195.538011 
L 452.136527 -195.538011 
L 450.845992 -195.538011 
L 449.555457 -195.538011 
L 448.264923 -195.538011 
L 446.974388 -195.538011 
L 445.683853 -195.538011 
L 444.393318 -195.538011 
L 443.102784 -195.538011 
L 441.812249 -195.538011 
L 440.521714 -195.538011 
L 439.23118 -195.538011 
L 437.940645 -195.538011 
L 436.65011 -195.538011 
L 435.359576 -195.538011 
L 434.069041 -195.538011 
L 432.778506 -195.538011 
L 431.487971 -195.538011 
L 430.197437 -195.538011 
L 428.906902 -195.538011 
L 427.616367 -195.538011 
L 426.325833 -195.538011 
L 425.035298 -195.538011 
L 423.744763 -195.538011 
L 422.454228 -195.538011 
L 421.163694 -195.538011 
L 419.873159 -195.538011 
L 418.582624 -195.538011 
L 417.29209 -195.538011 
L 416.001555 -195.538011 
L 414.71102 -195.538011 
L 413.420486 -195.538011 
L 412.129951 -195.538011 
L 410.839416 -195.538011 
L 409.548881 -195.538011 
L 408.258347 -195.538011 
L 406.967812 -195.538011 
L 405.677277 -195.538011 
L 404.386743 -195.538011 
L 403.096208 -195.538011 
L 401.805673 -195.538011 
L 400.515138 -195.538011 
L 399.224604 -195.538011 
L 397.934069 -195.538011 
L 396.643534 -195.538011 
L 395.353 -195.538011 
L 394.062465 -195.538011 
L 392.77193 -195.538011 
L 391.481396 -195.538011 
L 390.190861 -195.538011 
L 388.900326 -195.538011 
L 387.609791 -195.538011 
z
" id="m8a472fee02" style="stroke:#ff6384;stroke-opacity:0.5;"/>
    </defs>
    <g clip-path="url(#p0a283dee47)">
     <use style="fill:#ff6384;fill-opacity:0.5;stroke:#ff6384;stroke-opacity:0.5;" x="0" xlink:href="#m8a472fee02" y="581.789375"/>
    </g>
   </g>
   <g id="PolyCollection_2">
    <defs>
     <path d="M 283.428635 -195.538011 
L 283.428635 -195.650004 
L 284.717421 -195.692234 
L 286.006206 -195.749007 
L 287.294991 -195.8248 
L 288.583776 -195.925281 
L 289.872562 -196.057565 
L 291.161347 -196.230497 
L 292.450132 -196.454982 
L 293.738918 -196.744335 
L 295.027703 -197.114666 
L 296.316488 -197.585273 
L 297.605274 -198.179047 
L 298.894059 -198.922859 
L 300.182844 -199.847921 
L 301.47163 -200.990079 
L 302.760415 -202.390029 
L 304.0492 -204.093399 
L 305.337985 -206.150691 
L 306.626771 -208.617009 
L 307.915556 -211.551575 
L 309.204341 -215.016962 
L 310.493127 -219.078053 
L 311.781912 -223.800667 
L 313.070697 -229.249878 
L 314.359483 -235.488004 
L 315.648268 -242.572312 
L 316.937053 -250.552459 
L 318.225839 -259.467747 
L 319.514624 -269.344261 
L 320.803409 -280.192004 
L 322.092194 -292.002137 
L 323.38098 -304.744465 
L 324.669765 -318.365297 
L 325.95855 -332.785841 
L 327.247336 -347.901251 
L 328.536121 -363.580456 
L 329.824906 -379.666871 
L 331.113692 -395.980052 
L 332.402477 -412.31833 
L 333.691262 -428.4624 
L 334.980047 -444.179822 
L 336.268833 -459.230303 
L 337.557618 -473.371627 
L 338.846403 -486.366018 
L 340.135189 -497.986726 
L 341.423974 -508.02457 
L 342.712759 -516.294181 
L 344.001545 -522.639693 
L 345.29033 -526.939623 
L 346.579115 -529.110739 
L 347.867901 -529.110739 
L 349.156686 -526.939623 
L 350.445471 -522.639693 
L 351.734256 -516.294181 
L 353.023042 -508.02457 
L 354.311827 -497.986726 
L 355.600612 -486.366018 
L 356.889398 -473.371627 
L 358.178183 -459.230303 
L 359.466968 -444.179822 
L 360.755754 -428.4624 
L 362.044539 -412.31833 
L 363.333324 -395.980052 
L 364.62211 -379.666871 
L 365.910895 -363.580456 
L 367.19968 -347.901251 
L 368.488465 -332.785841 
L 369.777251 -318.365297 
L 371.066036 -304.744465 
L 372.354821 -292.002137 
L 373.643607 -280.192004 
L 374.932392 -269.344261 
L 376.221177 -259.467747 
L 377.509963 -250.552459 
L 378.798748 -242.572312 
L 380.087533 -235.488004 
L 381.376319 -229.249878 
L 382.665104 -223.800667 
L 383.953889 -219.078053 
L 385.242674 -215.016962 
L 386.53146 -211.551575 
L 387.820245 -208.617009 
L 389.10903 -206.150691 
L 390.397816 -204.093399 
L 391.686601 -202.390029 
L 392.975386 -200.990079 
L 394.264172 -199.847921 
L 395.552957 -198.922859 
L 396.841742 -198.179047 
L 398.130528 -197.585273 
L 399.419313 -197.114666 
L 400.708098 -196.744335 
L 401.996883 -196.454982 
L 403.285669 -196.230497 
L 404.574454 -196.057565 
L 405.863239 -195.925281 
L 407.152025 -195.8248 
L 408.44081 -195.749007 
L 409.729595 -195.692234 
L 411.018381 -195.650004 
L 411.018381 -195.538011 
L 411.018381 -195.538011 
L 409.729595 -195.538011 
L 408.44081 -195.538011 
L 407.152025 -195.538011 
L 405.863239 -195.538011 
L 404.574454 -195.538011 
L 403.285669 -195.538011 
L 401.996883 -195.538011 
L 400.708098 -195.538011 
L 399.419313 -195.538011 
L 398.130528 -195.538011 
L 396.841742 -195.538011 
L 395.552957 -195.538011 
L 394.264172 -195.538011 
L 392.975386 -195.538011 
L 391.686601 -195.538011 
L 390.397816 -195.538011 
L 389.10903 -195.538011 
L 387.820245 -195.538011 
L 386.53146 -195.538011 
L 385.242674 -195.538011 
L 383.953889 -195.538011 
L 382.665104 -195.538011 
L 381.376319 -195.538011 
L 380.087533 -195.538011 
L 378.798748 -195.538011 
L 377.509963 -195.538011 
L 376.221177 -195.538011 
L 374.932392 -195.538011 
L 373.643607 -195.538011 
L 372.354821 -195.538011 
L 371.066036 -195.538011 
L 369.777251 -195.538011 
L 368.488465 -195.538011 
L 367.19968 -195.538011 
L 365.910895 -195.538011 
L 364.62211 -195.538011 
L 363.333324 -195.538011 
L 362.044539 -195.538011 
L 360.755754 -195.538011 
L 359.466968 -195.538011 
L 358.178183 -195.538011 
L 356.889398 -195.538011 
L 355.600612 -195.538011 
L 354.311827 -195.538011 
L 353.023042 -195.538011 
L 351.734256 -195.538011 
L 350.445471 -195.538011 
L 349.156686 -195.538011 
L 347.867901 -195.538011 
L 346.579115 -195.538011 
L 345.29033 -195.538011 
L 344.001545 -195.538011 
L 342.712759 -195.538011 
L 341.423974 -195.538011 
L 340.135189 -195.538011 
L 338.846403 -195.538011 
L 337.557618 -195.538011 
L 336.268833 -195.538011 
L 334.980047 -195.538011 
L 333.691262 -195.538011 
L 332.402477 -195.538011 
L 331.113692 -195.538011 
L 329.824906 -195.538011 
L 328.536121 -195.538011 
L 327.247336 -195.538011 
L 325.95855 -195.538011 
L 324.669765 -195.538011 
L 323.38098 -195.538011 
L 322.092194 -195.538011 
L 320.803409 -195.538011 
L 319.514624 -195.538011 
L 318.225839 -195.538011 
L 316.937053 -195.538011 
L 315.648268 -195.538011 
L 314.359483 -195.538011 
L 313.070697 -195.538011 
L 311.781912 -195.538011 
L 310.493127 -195.538011 
L 309.204341 -195.538011 
L 307.915556 -195.538011 
L 306.626771 -195.538011 
L 305.337985 -195.538011 
L 304.0492 -195.538011 
L 302.760415 -195.538011 
L 301.47163 -195.538011 
L 300.182844 -195.538011 
L 298.894059 -195.538011 
L 297.605274 -195.538011 
L 296.316488 -195.538011 
L 295.027703 -195.538011 
L 293.738918 -195.538011 
L 292.450132 -195.538011 
L 291.161347 -195.538011 
L 289.872562 -195.538011 
L 288.583776 -195.538011 
L 287.294991 -195.538011 
L 286.006206 -195.538011 
L 284.717421 -195.538011 
L 283.428635 -195.538011 
z
" id="m03fb50f1c4" style="stroke:#36a2eb;stroke-opacity:0.5;"/>
    </defs>
    <g clip-path="url(#p0a283dee47)">
     <use style="fill:#36a2eb;fill-opacity:0.5;stroke:#36a2eb;stroke-opacity:0.5;" x="0" xlink:href="#m03fb50f1c4" y="581.789375"/>
    </g>
   </g>
   <g id="PolyCollection_3">
    <defs>
     <path d="M 58.827273 -195.538011 
L 58.827273 -195.649589 
L 60.120851 -195.691663 
L 61.41443 -195.748225 
L 62.708008 -195.823737 
L 64.001587 -195.923846 
L 65.295165 -196.05564 
L 66.588744 -196.227931 
L 67.882322 -196.451584 
L 69.1759 -196.739865 
L 70.469479 -197.108824 
L 71.763057 -197.577687 
L 73.056636 -198.169261 
L 74.350214 -198.910317 
L 75.643793 -199.831951 
L 76.937371 -200.969878 
L 78.23095 -202.364639 
L 79.524528 -204.061699 
L 80.818107 -206.111367 
L 82.111685 -208.568547 
L 83.405264 -211.492239 
L 84.698842 -214.944786 
L 85.99242 -218.990829 
L 87.285999 -223.695944 
L 88.579577 -229.124964 
L 89.873156 -235.339976 
L 91.166734 -242.398034 
L 92.460313 -250.348612 
L 93.753891 -259.230865 
L 95.04747 -269.070783 
L 96.341048 -279.878331 
L 97.634627 -291.644705 
L 98.928205 -304.339817 
L 100.221784 -317.91018 
L 101.515362 -332.277291 
L 102.80894 -347.336692 
L 104.102519 -362.9578 
L 105.396097 -378.98461 
L 106.689676 -395.237345 
L 107.983254 -411.515084 
L 109.276833 -427.599335 
L 110.570411 -443.258518 
L 111.86399 -458.253232 
L 113.157568 -472.342157 
L 114.451147 -485.2884 
L 115.744725 -496.866049 
L 117.038304 -506.866699 
L 118.331882 -515.105669 
L 119.62546 -521.427669 
L 120.919039 -525.711666 
L 122.212617 -527.874736 
L 123.506196 -527.874736 
L 124.799774 -525.711666 
L 126.093353 -521.427669 
L 127.386931 -515.105669 
L 128.68051 -506.866699 
L 129.974088 -496.866049 
L 131.267667 -485.2884 
L 132.561245 -472.342157 
L 133.854824 -458.253232 
L 135.148402 -443.258518 
L 136.44198 -427.599335 
L 137.735559 -411.515084 
L 139.029137 -395.237345 
L 140.322716 -378.98461 
L 141.616294 -362.9578 
L 142.909873 -347.336692 
L 144.203451 -332.277291 
L 145.49703 -317.91018 
L 146.790608 -304.339817 
L 148.084187 -291.644705 
L 149.377765 -279.878331 
L 150.671344 -269.070783 
L 151.964922 -259.230865 
L 153.258501 -250.348612 
L 154.552079 -242.398034 
L 155.845657 -235.339976 
L 157.139236 -229.124964 
L 158.432814 -223.695944 
L 159.726393 -218.990829 
L 161.019971 -214.944786 
L 162.31355 -211.492239 
L 163.607128 -208.568547 
L 164.900707 -206.111367 
L 166.194285 -204.061699 
L 167.487864 -202.364639 
L 168.781442 -200.969878 
L 170.075021 -199.831951 
L 171.368599 -198.910317 
L 172.662177 -198.169261 
L 173.955756 -197.577687 
L 175.249334 -197.108824 
L 176.542913 -196.739865 
L 177.836491 -196.451584 
L 179.13007 -196.227931 
L 180.423648 -196.05564 
L 181.717227 -195.923846 
L 183.010805 -195.823737 
L 184.304384 -195.748225 
L 185.597962 -195.691663 
L 186.891541 -195.649589 
L 186.891541 -195.538011 
L 186.891541 -195.538011 
L 185.597962 -195.538011 
L 184.304384 -195.538011 
L 183.010805 -195.538011 
L 181.717227 -195.538011 
L 180.423648 -195.538011 
L 179.13007 -195.538011 
L 177.836491 -195.538011 
L 176.542913 -195.538011 
L 175.249334 -195.538011 
L 173.955756 -195.538011 
L 172.662177 -195.538011 
L 171.368599 -195.538011 
L 170.075021 -195.538011 
L 168.781442 -195.538011 
L 167.487864 -195.538011 
L 166.194285 -195.538011 
L 164.900707 -195.538011 
L 163.607128 -195.538011 
L 162.31355 -195.538011 
L 161.019971 -195.538011 
L 159.726393 -195.538011 
L 158.432814 -195.538011 
L 157.139236 -195.538011 
L 155.845657 -195.538011 
L 154.552079 -195.538011 
L 153.258501 -195.538011 
L 151.964922 -195.538011 
L 150.671344 -195.538011 
L 149.377765 -195.538011 
L 148.084187 -195.538011 
L 146.790608 -195.538011 
L 145.49703 -195.538011 
L 144.203451 -195.538011 
L 142.909873 -195.538011 
L 141.616294 -195.538011 
L 140.322716 -195.538011 
L 139.029137 -195.538011 
L 137.735559 -195.538011 
L 136.44198 -195.538011 
L 135.148402 -195.538011 
L 133.854824 -195.538011 
L 132.561245 -195.538011 
L 131.267667 -195.538011 
L 129.974088 -195.538011 
L 128.68051 -195.538011 
L 127.386931 -195.538011 
L 126.093353 -195.538011 
L 124.799774 -195.538011 
L 123.506196 -195.538011 
L 122.212617 -195.538011 
L 120.919039 -195.538011 
L 119.62546 -195.538011 
L 118.331882 -195.538011 
L 117.038304 -195.538011 
L 115.744725 -195.538011 
L 114.451147 -195.538011 
L 113.157568 -195.538011 
L 111.86399 -195.538011 
L 110.570411 -195.538011 
L 109.276833 -195.538011 
L 107.983254 -195.538011 
L 106.689676 -195.538011 
L 105.396097 -195.538011 
L 104.102519 -195.538011 
L 102.80894 -195.538011 
L 101.515362 -195.538011 
L 100.221784 -195.538011 
L 98.928205 -195.538011 
L 97.634627 -195.538011 
L 96.341048 -195.538011 
L 95.04747 -195.538011 
L 93.753891 -195.538011 
L 92.460313 -195.538011 
L 91.166734 -195.538011 
L 89.873156 -195.538011 
L 88.579577 -195.538011 
L 87.285999 -195.538011 
L 85.99242 -195.538011 
L 84.698842 -195.538011 
L 83.405264 -195.538011 
L 82.111685 -195.538011 
L 80.818107 -195.538011 
L 79.524528 -195.538011 
L 78.23095 -195.538011 
L 76.937371 -195.538011 
L 75.643793 -195.538011 
L 74.350214 -195.538011 
L 73.056636 -195.538011 
L 71.763057 -195.538011 
L 70.469479 -195.538011 
L 69.1759 -195.538011 
L 67.882322 -195.538011 
L 66.588744 -195.538011 
L 65.295165 -195.538011 
L 64.001587 -195.538011 
L 62.708008 -195.538011 
L 61.41443 -195.538011 
L 60.120851 -195.538011 
L 58.827273 -195.538011 
z
" id="m41f181f202" style="stroke:#4bc0c0;stroke-opacity:0.5;"/>
    </defs>
    <g clip-path="url(#p0a283dee47)">
     <use style="fill:#4bc0c0;fill-opacity:0.5;stroke:#4bc0c0;stroke-opacity:0.5;" x="0" xlink:href="#m41f181f202" y="581.789375"/>
    </g>
   </g>
   <g id="line2d_1">
    <path clip-path="url(#p0a283dee47)" d="M 387.609791 386.139523 
L 388.900326 386.09735 
L 390.190861 386.040654 
L 391.481396 385.964964 
L 392.77193 385.864619 
L 394.062465 385.732514 
L 395.353 385.559817 
L 396.643534 385.335636 
L 397.934069 385.046675 
L 399.224604 384.676846 
L 400.515138 384.206877 
L 401.805673 383.613908 
L 403.096208 382.871104 
L 404.386743 381.947296 
L 405.677277 380.806686 
L 406.967812 379.408635 
L 408.258347 377.707573 
L 409.548881 375.65307 
L 410.839416 373.190095 
L 412.129951 370.259508 
L 413.420486 366.798818 
L 414.71102 362.743232 
L 416.001555 358.027019 
L 417.29209 352.585196 
L 418.582624 346.355526 
L 419.873159 339.280821 
L 421.163694 331.311491 
L 422.454228 322.408289 
L 423.744763 312.545163 
L 425.035298 301.712125 
L 426.325833 289.918001 
L 427.616367 277.192946 
L 428.906902 263.590578 
L 430.197437 249.189582 
L 431.487971 234.094662 
L 432.778506 218.436711 
L 434.069041 202.372102 
L 435.359576 186.081034 
L 436.65011 169.764904 
L 437.940645 153.642718 
L 439.23118 137.946602 
L 440.521714 122.916523 
L 441.812249 108.794369 
L 443.102784 95.817592 
L 444.393318 84.212636 
L 445.683853 74.1884 
L 446.974388 65.929998 
L 448.264923 59.593088 
L 449.555457 55.298987 
L 450.845992 53.130814 
L 452.136527 53.130814 
L 453.427061 55.298987 
L 454.717596 59.593088 
L 456.008131 65.929998 
L 457.298666 74.1884 
L 458.5892 84.212636 
L 459.879735 95.817592 
L 461.17027 108.794369 
L 462.460804 122.916523 
L 463.751339 137.946602 
L 465.041874 153.642718 
L 466.332408 169.764904 
L 467.622943 186.081034 
L 468.913478 202.372102 
L 470.204013 218.436711 
L 471.494547 234.094662 
L 472.785082 249.189582 
L 474.075617 263.590578 
L 475.366151 277.192946 
L 476.656686 289.918001 
L 477.947221 301.712125 
L 479.237756 312.545163 
L 480.52829 322.408289 
L 481.818825 331.311491 
L 483.10936 339.280821 
L 484.399894 346.355526 
L 485.690429 352.585196 
L 486.980964 358.027019 
L 488.271498 362.743232 
L 489.562033 366.798818 
L 490.852568 370.259508 
L 492.143103 373.190095 
L 493.433637 375.65307 
L 494.724172 377.707573 
L 496.014707 379.408635 
L 497.305241 380.806686 
L 498.595776 381.947296 
L 499.886311 382.871104 
L 501.176846 383.613908 
L 502.46738 384.206877 
L 503.757915 384.676846 
L 505.04845 385.046675 
L 506.338984 385.335636 
L 507.629519 385.559817 
L 508.920054 385.732514 
L 510.210588 385.864619 
L 511.501123 385.964964 
L 512.791658 386.040654 
L 514.082193 386.09735 
L 515.372727 386.139523 
" style="fill:none;stroke:#ff6384;stroke-linecap:square;"/>
   </g>
   <g id="line2d_2">
    <path clip-path="url(#p0a283dee47)" d="M 283.428635 386.139371 
L 284.717421 386.097141 
L 286.006206 386.040368 
L 287.294991 385.964575 
L 288.583776 385.864094 
L 289.872562 385.73181 
L 291.161347 385.558878 
L 292.450132 385.334393 
L 293.738918 385.04504 
L 295.027703 384.674709 
L 296.316488 384.204102 
L 297.605274 383.610328 
L 298.894059 382.866516 
L 300.182844 381.941454 
L 301.47163 380.799296 
L 302.760415 379.399346 
L 304.0492 377.695976 
L 305.337985 375.638684 
L 306.626771 373.172366 
L 307.915556 370.2378 
L 309.204341 366.772413 
L 310.493127 362.711322 
L 311.781912 357.988708 
L 313.070697 352.539497 
L 314.359483 346.301371 
L 315.648268 339.217063 
L 316.937053 331.236916 
L 318.225839 322.321628 
L 319.514624 312.445114 
L 320.803409 301.597371 
L 322.092194 289.787238 
L 323.38098 277.04491 
L 324.669765 263.424078 
L 325.95855 249.003534 
L 327.247336 233.888124 
L 328.536121 218.208919 
L 329.824906 202.122504 
L 331.113692 185.809323 
L 332.402477 169.471045 
L 333.691262 153.326975 
L 334.980047 137.609553 
L 336.268833 122.559072 
L 337.557618 108.417748 
L 338.846403 95.423357 
L 340.135189 83.802649 
L 341.423974 73.764805 
L 342.712759 65.495194 
L 344.001545 59.149682 
L 345.29033 54.849752 
L 346.579115 52.678636 
L 347.867901 52.678636 
L 349.156686 54.849752 
L 350.445471 59.149682 
L 351.734256 65.495194 
L 353.023042 73.764805 
L 354.311827 83.802649 
L 355.600612 95.423357 
L 356.889398 108.417748 
L 358.178183 122.559072 
L 359.466968 137.609553 
L 360.755754 153.326975 
L 362.044539 169.471045 
L 363.333324 185.809323 
L 364.62211 202.122504 
L 365.910895 218.208919 
L 367.19968 233.888124 
L 368.488465 249.003534 
L 369.777251 263.424078 
L 371.066036 277.04491 
L 372.354821 289.787238 
L 373.643607 301.597371 
L 374.932392 312.445114 
L 376.221177 322.321628 
L 377.509963 331.236916 
L 378.798748 339.217063 
L 380.087533 346.301371 
L 381.376319 352.539497 
L 382.665104 357.988708 
L 383.953889 362.711322 
L 385.242674 366.772413 
L 386.53146 370.2378 
L 387.820245 373.172366 
L 389.10903 375.638684 
L 390.397816 377.695976 
L 391.686601 379.399346 
L 392.975386 380.799296 
L 394.264172 381.941454 
L 395.552957 382.866516 
L 396.841742 383.610328 
L 398.130528 384.204102 
L 399.419313 384.674709 
L 400.708098 385.04504 
L 401.996883 385.334393 
L 403.285669 385.558878 
L 404.574454 385.73181 
L 405.863239 385.864094 
L 407.152025 385.964575 
L 408.44081 386.040368 
L 409.729595 386.097141 
L 411.018381 386.139371 
" style="fill:none;stroke:#36a2eb;stroke-linecap:square;"/>
   </g>
   <g id="line2d_3">
    <path clip-path="url(#p0a283dee47)" d="M 58.827273 386.139786 
L 60.120851 386.097712 
L 61.41443 386.04115 
L 62.708008 385.965638 
L 64.001587 385.865529 
L 65.295165 385.733735 
L 66.588744 385.561444 
L 67.882322 385.337791 
L 69.1759 385.04951 
L 70.469479 384.680551 
L 71.763057 384.211688 
L 73.056636 383.620114 
L 74.350214 382.879058 
L 75.643793 381.957424 
L 76.937371 380.819497 
L 78.23095 379.424736 
L 79.524528 377.727676 
L 80.818107 375.678008 
L 82.111685 373.220828 
L 83.405264 370.297136 
L 84.698842 366.844589 
L 85.99242 362.798546 
L 87.285999 358.093431 
L 88.579577 352.664411 
L 89.873156 346.449399 
L 91.166734 339.391341 
L 92.460313 331.440763 
L 93.753891 322.55851 
L 95.04747 312.718592 
L 96.341048 301.911044 
L 97.634627 290.14467 
L 98.928205 277.449558 
L 100.221784 263.879195 
L 101.515362 249.512084 
L 102.80894 234.452683 
L 104.102519 218.831575 
L 105.396097 202.804765 
L 106.689676 186.55203 
L 107.983254 170.274291 
L 109.276833 154.19004 
L 110.570411 138.530857 
L 111.86399 123.536143 
L 113.157568 109.447218 
L 114.451147 96.500975 
L 115.744725 84.923326 
L 117.038304 74.922676 
L 118.331882 66.683706 
L 119.62546 60.361706 
L 120.919039 56.077709 
L 122.212617 53.914639 
L 123.506196 53.914639 
L 124.799774 56.077709 
L 126.093353 60.361706 
L 127.386931 66.683706 
L 128.68051 74.922676 
L 129.974088 84.923326 
L 131.267667 96.500975 
L 132.561245 109.447218 
L 133.854824 123.536143 
L 135.148402 138.530857 
L 136.44198 154.19004 
L 137.735559 170.274291 
L 139.029137 186.55203 
L 140.322716 202.804765 
L 141.616294 218.831575 
L 142.909873 234.452683 
L 144.203451 249.512084 
L 145.49703 263.879195 
L 146.790608 277.449558 
L 148.084187 290.14467 
L 149.377765 301.911044 
L 150.671344 312.718592 
L 151.964922 322.55851 
L 153.258501 331.440763 
L 154.552079 339.391341 
L 155.845657 346.449399 
L 157.139236 352.664411 
L 158.432814 358.093431 
L 159.726393 362.798546 
L 161.019971 366.844589 
L 162.31355 370.297136 
L 163.607128 373.220828 
L 164.900707 375.678008 
L 166.194285 377.727676 
L 167.487864 379.424736 
L 168.781442 380.819497 
L 170.075021 381.957424 
L 171.368599 382.879058 
L 172.662177 383.620114 
L 173.955756 384.211688 
L 175.249334 384.680551 
L 176.542913 385.04951 
L 177.836491 385.337791 
L 179.13007 385.561444 
L 180.423648 385.733735 
L 181.717227 385.865529 
L 183.010805 385.965638 
L 184.304384 386.04115 
L 185.597962 386.097712 
L 186.891541 386.139786 
" style="fill:none;stroke:#4bc0c0;stroke-linecap:square;"/>
   </g>
   <g id="patch_3">
    <path d="M 36 402.93 
L 538.2 402.93 
" style="fill:none;stroke:#000000;stroke-linecap:square;stroke-linejoin:miter;stroke-width:0.8;"/>
   </g>
   <g id="legend_1">
    <g id="patch_4">
     <path d="M 233.434063 252.973125 
L 340.765938 252.973125 
Q 343.565938 252.973125 343.565938 250.173125 
L 343.565938 188.756875 
Q 343.565938 185.956875 340.765938 185.956875 
L 233.434063 185.956875 
Q 230.634063 185.956875 230.634063 188.756875 
L 230.634063 250.173125 
Q 230.634063 252.973125 233.434063 252.973125 
z
" style="fill:#ffffff;opacity:0.8;stroke:#cccccc;stroke-linejoin:miter;"/>
    </g>
    <g id="patch_5">
     <path d="M 236.234063 202.194688 
L 264.234063 202.194688 
L 264.234063 192.394688 
L 236.234063 192.394688 
z
" style="fill:#ff6384;opacity:0.5;stroke:#ff6384;stroke-linejoin:miter;"/>
    </g>
    <g id="text_1">
     <!-- 0_fee -->
     <defs>
      <path d="M 31.78125 66.40625 
Q 24.171875 66.40625 20.328125 58.90625 
Q 16.5 51.421875 16.5 36.375 
Q 16.5 21.390625 20.328125 13.890625 
Q 24.171875 6.390625 31.78125 6.390625 
Q 39.453125 6.390625 43.28125 13.890625 
Q 47.125 21.390625 47.125 36.375 
Q 47.125 51.421875 43.28125 58.90625 
Q 39.453125 66.40625 31.78125 66.40625 
z
M 31.78125 74.21875 
Q 44.046875 74.21875 50.515625 64.515625 
Q 56.984375 54.828125 56.984375 36.375 
Q 56.984375 17.96875 50.515625 8.265625 
Q 44.046875 -1.421875 31.78125 -1.421875 
Q 19.53125 -1.421875 13.0625 8.265625 
Q 6.59375 17.96875 6.59375 36.375 
Q 6.59375 54.828125 13.0625 64.515625 
Q 19.53125 74.21875 31.78125 74.21875 
z
" id="DejaVuSans-48"/>
      <path d="M 50.984375 -16.609375 
L 50.984375 -23.578125 
L -0.984375 -23.578125 
L -0.984375 -16.609375 
z
" id="DejaVuSans-95"/>
      <path d="M 37.109375 75.984375 
L 37.109375 68.5 
L 28.515625 68.5 
Q 23.6875 68.5 21.796875 66.546875 
Q 19.921875 64.59375 19.921875 59.515625 
L 19.921875 54.6875 
L 34.71875 54.6875 
L 34.71875 47.703125 
L 19.921875 47.703125 
L 19.921875 0 
L 10.890625 0 
L 10.890625 47.703125 
L 2.296875 47.703125 
L 2.296875 54.6875 
L 10.890625 54.6875 
L 10.890625 58.5 
Q 10.890625 67.625 15.140625 71.796875 
Q 19.390625 75.984375 28.609375 75.984375 
z
" id="DejaVuSans-102"/>
      <path d="M 56.203125 29.59375 
L 56.203125 25.203125 
L 14.890625 25.203125 
Q 15.484375 15.921875 20.484375 11.0625 
Q 25.484375 6.203125 34.421875 6.203125 
Q 39.59375 6.203125 44.453125 7.46875 
Q 49.3125 8.734375 54.109375 11.28125 
L 54.109375 2.78125 
Q 49.265625 0.734375 44.1875 -0.34375 
Q 39.109375 -1.421875 33.890625 -1.421875 
Q 20.796875 -1.421875 13.15625 6.1875 
Q 5.515625 13.8125 5.515625 26.8125 
Q 5.515625 40.234375 12.765625 48.109375 
Q 20.015625 56 32.328125 56 
Q 43.359375 56 49.78125 48.890625 
Q 56.203125 41.796875 56.203125 29.59375 
z
M 47.21875 32.234375 
Q 47.125 39.59375 43.09375 43.984375 
Q 39.0625 48.390625 32.421875 48.390625 
Q 24.90625 48.390625 20.390625 44.140625 
Q 15.875 39.890625 15.1875 32.171875 
z
" id="DejaVuSans-101"/>
     </defs>
     <g transform="translate(275.434063 202.194688)scale(0.14 -0.14)">
      <use xlink:href="#DejaVuSans-48"/>
      <use x="63.623047" xlink:href="#DejaVuSans-95"/>
      <use x="113.623047" xlink:href="#DejaVuSans-102"/>
      <use x="148.828125" xlink:href="#DejaVuSans-101"/>
      <use x="210.351562" xlink:href="#DejaVuSans-101"/>
     </g>
    </g>
    <g id="patch_6">
     <path d="M 236.234063 223.133438 
L 264.234063 223.133438 
L 264.234063 213.333438 
L 236.234063 213.333438 
z
" style="fill:#36a2eb;opacity:0.5;stroke:#36a2eb;stroke-linejoin:miter;"/>
    </g>
    <g id="text_2">
     <!-- 20_fee -->
     <defs>
      <path d="M 19.1875 8.296875 
L 53.609375 8.296875 
L 53.609375 0 
L 7.328125 0 
L 7.328125 8.296875 
Q 12.9375 14.109375 22.625 23.890625 
Q 32.328125 33.6875 34.8125 36.53125 
Q 39.546875 41.84375 41.421875 45.53125 
Q 43.3125 49.21875 43.3125 52.78125 
Q 43.3125 58.59375 39.234375 62.25 
Q 35.15625 65.921875 28.609375 65.921875 
Q 23.96875 65.921875 18.8125 64.3125 
Q 13.671875 62.703125 7.8125 59.421875 
L 7.8125 69.390625 
Q 13.765625 71.78125 18.9375 73 
Q 24.125 74.21875 28.421875 74.21875 
Q 39.75 74.21875 46.484375 68.546875 
Q 53.21875 62.890625 53.21875 53.421875 
Q 53.21875 48.921875 51.53125 44.890625 
Q 49.859375 40.875 45.40625 35.40625 
Q 44.1875 33.984375 37.640625 27.21875 
Q 31.109375 20.453125 19.1875 8.296875 
z
" id="DejaVuSans-50"/>
     </defs>
     <g transform="translate(275.434063 223.133438)scale(0.14 -0.14)">
      <use xlink:href="#DejaVuSans-50"/>
      <use x="63.623047" xlink:href="#DejaVuSans-48"/>
      <use x="127.246094" xlink:href="#DejaVuSans-95"/>
      <use x="177.246094" xlink:href="#DejaVuSans-102"/>
      <use x="212.451172" xlink:href="#DejaVuSans-101"/>
      <use x="273.974609" xlink:href="#DejaVuSans-101"/>
     </g>
    </g>
    <g id="patch_7">
     <path d="M 236.234063 244.072188 
L 264.234063 244.072188 
L 264.234063 234.272188 
L 236.234063 234.272188 
z
" style="fill:#4bc0c0;opacity:0.5;stroke:#4bc0c0;stroke-linejoin:miter;"/>
    </g>
    <g id="text_3">
     <!-- base_fee -->
     <defs>
      <path d="M 48.6875 27.296875 
Q 48.6875 37.203125 44.609375 42.84375 
Q 40.53125 48.484375 33.40625 48.484375 
Q 26.265625 48.484375 22.1875 42.84375 
Q 18.109375 37.203125 18.109375 27.296875 
Q 18.109375 17.390625 22.1875 11.75 
Q 26.265625 6.109375 33.40625 6.109375 
Q 40.53125 6.109375 44.609375 11.75 
Q 48.6875 17.390625 48.6875 27.296875 
z
M 18.109375 46.390625 
Q 20.953125 51.265625 25.265625 53.625 
Q 29.59375 56 35.59375 56 
Q 45.5625 56 51.78125 48.09375 
Q 58.015625 40.1875 58.015625 27.296875 
Q 58.015625 14.40625 51.78125 6.484375 
Q 45.5625 -1.421875 35.59375 -1.421875 
Q 29.59375 -1.421875 25.265625 0.953125 
Q 20.953125 3.328125 18.109375 8.203125 
L 18.109375 0 
L 9.078125 0 
L 9.078125 75.984375 
L 18.109375 75.984375 
z
" id="DejaVuSans-98"/>
      <path d="M 34.28125 27.484375 
Q 23.390625 27.484375 19.1875 25 
Q 14.984375 22.515625 14.984375 16.5 
Q 14.984375 11.71875 18.140625 8.90625 
Q 21.296875 6.109375 26.703125 6.109375 
Q 34.1875 6.109375 38.703125 11.40625 
Q 43.21875 16.703125 43.21875 25.484375 
L 43.21875 27.484375 
z
M 52.203125 31.203125 
L 52.203125 0 
L 43.21875 0 
L 43.21875 8.296875 
Q 40.140625 3.328125 35.546875 0.953125 
Q 30.953125 -1.421875 24.3125 -1.421875 
Q 15.921875 -1.421875 10.953125 3.296875 
Q 6 8.015625 6 15.921875 
Q 6 25.140625 12.171875 29.828125 
Q 18.359375 34.515625 30.609375 34.515625 
L 43.21875 34.515625 
L 43.21875 35.40625 
Q 43.21875 41.609375 39.140625 45 
Q 35.0625 48.390625 27.6875 48.390625 
Q 23 48.390625 18.546875 47.265625 
Q 14.109375 46.140625 10.015625 43.890625 
L 10.015625 52.203125 
Q 14.9375 54.109375 19.578125 55.046875 
Q 24.21875 56 28.609375 56 
Q 40.484375 56 46.34375 49.84375 
Q 52.203125 43.703125 52.203125 31.203125 
z
" id="DejaVuSans-97"/>
      <path d="M 44.28125 53.078125 
L 44.28125 44.578125 
Q 40.484375 46.53125 36.375 47.5 
Q 32.28125 48.484375 27.875 48.484375 
Q 21.1875 48.484375 17.84375 46.4375 
Q 14.5 44.390625 14.5 40.28125 
Q 14.5 37.15625 16.890625 35.375 
Q 19.28125 33.59375 26.515625 31.984375 
L 29.59375 31.296875 
Q 39.15625 29.25 43.1875 25.515625 
Q 47.21875 21.78125 47.21875 15.09375 
Q 47.21875 7.46875 41.1875 3.015625 
Q 35.15625 -1.421875 24.609375 -1.421875 
Q 20.21875 -1.421875 15.453125 -0.5625 
Q 10.6875 0.296875 5.421875 2 
L 5.421875 11.28125 
Q 10.40625 8.6875 15.234375 7.390625 
Q 20.0625 6.109375 24.8125 6.109375 
Q 31.15625 6.109375 34.5625 8.28125 
Q 37.984375 10.453125 37.984375 14.40625 
Q 37.984375 18.0625 35.515625 20.015625 
Q 33.0625 21.96875 24.703125 23.78125 
L 21.578125 24.515625 
Q 13.234375 26.265625 9.515625 29.90625 
Q 5.8125 33.546875 5.8125 39.890625 
Q 5.8125 47.609375 11.28125 51.796875 
Q 16.75 56 26.8125 56 
Q 31.78125 56 36.171875 55.265625 
Q 40.578125 54.546875 44.28125 53.078125 
z
" id="DejaVuSans-115"/>
     </defs>
     <g transform="translate(275.434063 244.072188)scale(0.14 -0.14)">
      <use xlink:href="#DejaVuSans-98"/>
      <use x="63.476562" xlink:href="#DejaVuSans-97"/>
      <use x="124.755859" xlink:href="#DejaVuSans-115"/>
      <use x="176.855469" xlink:href="#DejaVuSans-101"/>
      <use x="238.378906" xlink:href="#DejaVuSans-95"/>
      <use x="288.378906" xlink:href="#DejaVuSans-102"/>
      <use x="323.583984" xlink:href="#DejaVuSans-101"/>
      <use x="385.107422" xlink:href="#DejaVuSans-101"/>
     </g>
    </g>
   </g>
  </g>
  <g id="axes_2">
   <g id="patch_8">
    <path d="M 36 525.24 
L 538.2 525.24 
L 538.2 402.93 
L 36 402.93 
z
" style="fill:none;"/>
   </g>
   <g id="patch_9">
    <path clip-path="url(#pe8b979a1b3)" d="M 420.18934 519.680455 
L 482.793179 519.680455 
L 482.793179 497.442273 
L 420.18934 497.442273 
z
" style="fill:#ff6384;opacity:0.5;"/>
   </g>
   <g id="patch_10">
    <path clip-path="url(#pe8b979a1b3)" d="M 315.96402 475.204091 
L 378.482996 475.204091 
L 378.482996 452.965909 
L 315.96402 452.965909 
z
" style="fill:#36a2eb;opacity:0.5;"/>
   </g>
   <g id="patch_11">
    <path clip-path="url(#pe8b979a1b3)" d="M 91.483661 430.727727 
L 154.235152 430.727727 
L 154.235152 408.489545 
L 91.483661 408.489545 
z
" style="fill:#4bc0c0;opacity:0.5;"/>
   </g>
   <g id="matplotlib.axis_1">
    <g id="xtick_1">
     <g id="line2d_4">
      <defs>
       <path d="M 0 0 
L 0 3.5 
" id="ma60fc69521" style="stroke:#000000;stroke-width:0.8;"/>
      </defs>
      <g>
       <use style="stroke:#000000;stroke-width:0.8;" x="90.448467" xlink:href="#ma60fc69521" y="525.24"/>
      </g>
     </g>
     <g id="text_4">
      <!-- 40.0 -->
      <defs>
       <path d="M 37.796875 64.3125 
L 12.890625 25.390625 
L 37.796875 25.390625 
z
M 35.203125 72.90625 
L 47.609375 72.90625 
L 47.609375 25.390625 
L 58.015625 25.390625 
L 58.015625 17.1875 
L 47.609375 17.1875 
L 47.609375 0 
L 37.796875 0 
L 37.796875 17.1875 
L 4.890625 17.1875 
L 4.890625 26.703125 
z
" id="DejaVuSans-52"/>
       <path d="M 10.6875 12.40625 
L 21 12.40625 
L 21 0 
L 10.6875 0 
z
" id="DejaVuSans-46"/>
      </defs>
      <g transform="translate(74.86253 542.877813)scale(0.14 -0.14)">
       <use xlink:href="#DejaVuSans-52"/>
       <use x="63.623047" xlink:href="#DejaVuSans-48"/>
       <use x="127.246094" xlink:href="#DejaVuSans-46"/>
       <use x="159.033203" xlink:href="#DejaVuSans-48"/>
      </g>
     </g>
    </g>
    <g id="xtick_2">
     <g id="line2d_5">
      <g>
       <use style="stroke:#000000;stroke-width:0.8;" x="153.260365" xlink:href="#ma60fc69521" y="525.24"/>
      </g>
     </g>
     <g id="text_5">
      <!-- 42.5 -->
      <defs>
       <path d="M 10.796875 72.90625 
L 49.515625 72.90625 
L 49.515625 64.59375 
L 19.828125 64.59375 
L 19.828125 46.734375 
Q 21.96875 47.46875 24.109375 47.828125 
Q 26.265625 48.1875 28.421875 48.1875 
Q 40.625 48.1875 47.75 41.5 
Q 54.890625 34.8125 54.890625 23.390625 
Q 54.890625 11.625 47.5625 5.09375 
Q 40.234375 -1.421875 26.90625 -1.421875 
Q 22.3125 -1.421875 17.546875 -0.640625 
Q 12.796875 0.140625 7.71875 1.703125 
L 7.71875 11.625 
Q 12.109375 9.234375 16.796875 8.0625 
Q 21.484375 6.890625 26.703125 6.890625 
Q 35.15625 6.890625 40.078125 11.328125 
Q 45.015625 15.765625 45.015625 23.390625 
Q 45.015625 31 40.078125 35.4375 
Q 35.15625 39.890625 26.703125 39.890625 
Q 22.75 39.890625 18.8125 39.015625 
Q 14.890625 38.140625 10.796875 36.28125 
z
" id="DejaVuSans-53"/>
      </defs>
      <g transform="translate(137.674428 542.877813)scale(0.14 -0.14)">
       <use xlink:href="#DejaVuSans-52"/>
       <use x="63.623047" xlink:href="#DejaVuSans-50"/>
       <use x="127.246094" xlink:href="#DejaVuSans-46"/>
       <use x="159.033203" xlink:href="#DejaVuSans-53"/>
      </g>
     </g>
    </g>
    <g id="xtick_3">
     <g id="line2d_6">
      <g>
       <use style="stroke:#000000;stroke-width:0.8;" x="216.072264" xlink:href="#ma60fc69521" y="525.24"/>
      </g>
     </g>
     <g id="text_6">
      <!-- 45.0 -->
      <g transform="translate(200.486326 542.877813)scale(0.14 -0.14)">
       <use xlink:href="#DejaVuSans-52"/>
       <use x="63.623047" xlink:href="#DejaVuSans-53"/>
       <use x="127.246094" xlink:href="#DejaVuSans-46"/>
       <use x="159.033203" xlink:href="#DejaVuSans-48"/>
      </g>
     </g>
    </g>
    <g id="xtick_4">
     <g id="line2d_7">
      <g>
       <use style="stroke:#000000;stroke-width:0.8;" x="278.884162" xlink:href="#ma60fc69521" y="525.24"/>
      </g>
     </g>
     <g id="text_7">
      <!-- 47.5 -->
      <defs>
       <path d="M 8.203125 72.90625 
L 55.078125 72.90625 
L 55.078125 68.703125 
L 28.609375 0 
L 18.3125 0 
L 43.21875 64.59375 
L 8.203125 64.59375 
z
" id="DejaVuSans-55"/>
      </defs>
      <g transform="translate(263.298225 542.877813)scale(0.14 -0.14)">
       <use xlink:href="#DejaVuSans-52"/>
       <use x="63.623047" xlink:href="#DejaVuSans-55"/>
       <use x="127.246094" xlink:href="#DejaVuSans-46"/>
       <use x="159.033203" xlink:href="#DejaVuSans-53"/>
      </g>
     </g>
    </g>
    <g id="xtick_5">
     <g id="line2d_8">
      <g>
       <use style="stroke:#000000;stroke-width:0.8;" x="341.696061" xlink:href="#ma60fc69521" y="525.24"/>
      </g>
     </g>
     <g id="text_8">
      <!-- 50.0 -->
      <g transform="translate(326.110123 542.877813)scale(0.14 -0.14)">
       <use xlink:href="#DejaVuSans-53"/>
       <use x="63.623047" xlink:href="#DejaVuSans-48"/>
       <use x="127.246094" xlink:href="#DejaVuSans-46"/>
       <use x="159.033203" xlink:href="#DejaVuSans-48"/>
      </g>
     </g>
    </g>
    <g id="xtick_6">
     <g id="line2d_9">
      <g>
       <use style="stroke:#000000;stroke-width:0.8;" x="404.507959" xlink:href="#ma60fc69521" y="525.24"/>
      </g>
     </g>
     <g id="text_9">
      <!-- 52.5 -->
      <g transform="translate(388.922022 542.877813)scale(0.14 -0.14)">
       <use xlink:href="#DejaVuSans-53"/>
       <use x="63.623047" xlink:href="#DejaVuSans-50"/>
       <use x="127.246094" xlink:href="#DejaVuSans-46"/>
       <use x="159.033203" xlink:href="#DejaVuSans-53"/>
      </g>
     </g>
    </g>
    <g id="xtick_7">
     <g id="line2d_10">
      <g>
       <use style="stroke:#000000;stroke-width:0.8;" x="467.319858" xlink:href="#ma60fc69521" y="525.24"/>
      </g>
     </g>
     <g id="text_10">
      <!-- 55.0 -->
      <g transform="translate(451.73392 542.877813)scale(0.14 -0.14)">
       <use xlink:href="#DejaVuSans-53"/>
       <use x="63.623047" xlink:href="#DejaVuSans-53"/>
       <use x="127.246094" xlink:href="#DejaVuSans-46"/>
       <use x="159.033203" xlink:href="#DejaVuSans-48"/>
      </g>
     </g>
    </g>
    <g id="xtick_8">
     <g id="line2d_11">
      <g>
       <use style="stroke:#000000;stroke-width:0.8;" x="530.131756" xlink:href="#ma60fc69521" y="525.24"/>
      </g>
     </g>
     <g id="text_11">
      <!-- 57.5 -->
      <g transform="translate(514.545819 542.877813)scale(0.14 -0.14)">
       <use xlink:href="#DejaVuSans-53"/>
       <use x="63.623047" xlink:href="#DejaVuSans-55"/>
       <use x="127.246094" xlink:href="#DejaVuSans-46"/>
       <use x="159.033203" xlink:href="#DejaVuSans-53"/>
      </g>
     </g>
    </g>
   </g>
   <g id="line2d_12">
    <path clip-path="url(#pe8b979a1b3)" d="M 451.491259 525.24 
L 451.491259 402.93 
" style="fill:none;stroke:#ff6384;stroke-dasharray:5.55,2.4;stroke-dashoffset:0;stroke-opacity:0.8;stroke-width:1.5;"/>
   </g>
   <g id="line2d_13">
    <path clip-path="url(#pe8b979a1b3)" d="M 347.223508 525.24 
L 347.223508 402.93 
" style="fill:none;stroke:#36a2eb;stroke-dasharray:5.55,2.4;stroke-dashoffset:0;stroke-opacity:0.8;stroke-width:1.5;"/>
   </g>
   <g id="line2d_14">
    <path clip-path="url(#pe8b979a1b3)" d="M 122.859407 525.24 
L 122.859407 402.93 
" style="fill:none;stroke:#4bc0c0;stroke-dasharray:5.55,2.4;stroke-dashoffset:0;stroke-opacity:0.8;stroke-width:1.5;"/>
   </g>
   <g id="patch_12">
    <path d="M 36 525.24 
L 538.2 525.24 
" style="fill:none;stroke:#000000;stroke-linecap:square;stroke-linejoin:miter;stroke-width:0.8;"/>
   </g>
  </g>
 </g>
 <defs>
  <clipPath id="p0a283dee47">
   <rect height="366.93" width="502.2" x="36" y="36"/>
  </clipPath>
  <clipPath id="pe8b979a1b3">
   <rect height="122.31" width="502.2" x="36" y="402.93"/>
  </clipPath>
 </defs>
</svg>
