<?xml version="1.0" encoding="utf-8" standalone="no"?>
<!DOCTYPE svg PUBLIC "-//W3C//DTD SVG 1.1//EN"
  "http://www.w3.org/Graphics/SVG/1.1/DTD/svg11.dtd">
<!-- Created with matplotlib (https://matplotlib.org/) -->
<svg height="581.789375pt" version="1.1" viewBox="0 0 589.070318 581.789375" width="589.070318pt" xmlns="http://www.w3.org/2000/svg" xmlns:xlink="http://www.w3.org/1999/xlink">
 <defs>
  <style type="text/css">
*{stroke-linecap:butt;stroke-linejoin:round;}
  </style>
 </defs>
 <g id="figure_1">
  <g id="patch_1">
   <path d="M 0 581.789375 
L 589.070318 581.789375 
L 589.070318 0 
L 0 0 
z
" style="fill:none;"/>
  </g>
  <g id="axes_1">
   <g id="patch_2">
    <path d="M 50.870318 402.93 
L 553.070318 402.93 
L 553.070318 36 
L 50.870318 36 
z
" style="fill:none;"/>
   </g>
   <g id="PolyCollection_1">
    <defs>
     <path d="M 90.227508 -195.538011 
L 90.227508 -195.648818 
L 94.67211 -195.690601 
L 99.116711 -195.746772 
L 103.561313 -195.821763 
L 108.005914 -195.92118 
L 112.450515 -196.052063 
L 116.895117 -196.223163 
L 121.339718 -196.445271 
L 125.78432 -196.73156 
L 130.228921 -197.097969 
L 134.673522 -197.563592 
L 139.118124 -198.151077 
L 143.562725 -198.887013 
L 148.007326 -199.802278 
L 152.451928 -200.932341 
L 156.896529 -202.317464 
L 161.341131 -204.002796 
L 165.785732 -206.0383 
L 170.230333 -208.4785 
L 174.674935 -211.381987 
L 179.119536 -214.810676 
L 183.564138 -218.828759 
L 188.008739 -223.50136 
L 192.45334 -228.892862 
L 196.897942 -235.064925 
L 201.342543 -242.074208 
L 205.787144 -249.969844 
L 210.231746 -258.790717 
L 214.676347 -268.562636 
L 219.120949 -279.295499 
L 223.56555 -290.980561 
L 228.010151 -303.587945 
L 232.454753 -317.064529 
L 236.899354 -331.332357 
L 241.343956 -346.287691 
L 245.788557 -361.800849 
L 250.233158 -377.716906 
L 254.67776 -393.857327 
L 259.122361 -410.022579 
L 263.566963 -425.99568 
L 268.011564 -441.54665 
L 272.456165 -456.437744 
L 276.900767 -470.429308 
L 281.345368 -483.286086 
L 285.789969 -494.783728 
L 290.234571 -504.715269 
L 294.679172 -512.897303 
L 299.123774 -519.175615 
L 303.568375 -523.430007 
L 308.012976 -525.57813 
L 312.457578 -525.57813 
L 316.902179 -523.430007 
L 321.346781 -519.175615 
L 325.791382 -512.897303 
L 330.235983 -504.715269 
L 334.680585 -494.783728 
L 339.125186 -483.286086 
L 343.569787 -470.429308 
L 348.014389 -456.437744 
L 352.45899 -441.54665 
L 356.903592 -425.99568 
L 361.348193 -410.022579 
L 365.792794 -393.857327 
L 370.237396 -377.716906 
L 374.681997 -361.800849 
L 379.126599 -346.287691 
L 383.5712 -331.332357 
L 388.015801 -317.064529 
L 392.460403 -303.587945 
L 396.905004 -290.980561 
L 401.349606 -279.295499 
L 405.794207 -268.562636 
L 410.238808 -258.790717 
L 414.68341 -249.969844 
L 419.128011 -242.074208 
L 423.572612 -235.064925 
L 428.017214 -228.892862 
L 432.461815 -223.50136 
L 436.906417 -218.828759 
L 441.351018 -214.810676 
L 445.795619 -211.381987 
L 450.240221 -208.4785 
L 454.684822 -206.0383 
L 459.129424 -204.002796 
L 463.574025 -202.317464 
L 468.018626 -200.932341 
L 472.463228 -199.802278 
L 476.907829 -198.887013 
L 481.35243 -198.151077 
L 485.797032 -197.563592 
L 490.241633 -197.097969 
L 494.686235 -196.73156 
L 499.130836 -196.445271 
L 503.575437 -196.223163 
L 508.020039 -196.052063 
L 512.46464 -195.92118 
L 516.909242 -195.821763 
L 521.353843 -195.746772 
L 525.798444 -195.690601 
L 530.243046 -195.648818 
L 530.243046 -195.538011 
L 530.243046 -195.538011 
L 525.798444 -195.538011 
L 521.353843 -195.538011 
L 516.909242 -195.538011 
L 512.46464 -195.538011 
L 508.020039 -195.538011 
L 503.575437 -195.538011 
L 499.130836 -195.538011 
L 494.686235 -195.538011 
L 490.241633 -195.538011 
L 485.797032 -195.538011 
L 481.35243 -195.538011 
L 476.907829 -195.538011 
L 472.463228 -195.538011 
L 468.018626 -195.538011 
L 463.574025 -195.538011 
L 459.129424 -195.538011 
L 454.684822 -195.538011 
L 450.240221 -195.538011 
L 445.795619 -195.538011 
L 441.351018 -195.538011 
L 436.906417 -195.538011 
L 432.461815 -195.538011 
L 428.017214 -195.538011 
L 423.572612 -195.538011 
L 419.128011 -195.538011 
L 414.68341 -195.538011 
L 410.238808 -195.538011 
L 405.794207 -195.538011 
L 401.349606 -195.538011 
L 396.905004 -195.538011 
L 392.460403 -195.538011 
L 388.015801 -195.538011 
L 383.5712 -195.538011 
L 379.126599 -195.538011 
L 374.681997 -195.538011 
L 370.237396 -195.538011 
L 365.792794 -195.538011 
L 361.348193 -195.538011 
L 356.903592 -195.538011 
L 352.45899 -195.538011 
L 348.014389 -195.538011 
L 343.569787 -195.538011 
L 339.125186 -195.538011 
L 334.680585 -195.538011 
L 330.235983 -195.538011 
L 325.791382 -195.538011 
L 321.346781 -195.538011 
L 316.902179 -195.538011 
L 312.457578 -195.538011 
L 308.012976 -195.538011 
L 303.568375 -195.538011 
L 299.123774 -195.538011 
L 294.679172 -195.538011 
L 290.234571 -195.538011 
L 285.789969 -195.538011 
L 281.345368 -195.538011 
L 276.900767 -195.538011 
L 272.456165 -195.538011 
L 268.011564 -195.538011 
L 263.566963 -195.538011 
L 259.122361 -195.538011 
L 254.67776 -195.538011 
L 250.233158 -195.538011 
L 245.788557 -195.538011 
L 241.343956 -195.538011 
L 236.899354 -195.538011 
L 232.454753 -195.538011 
L 228.010151 -195.538011 
L 223.56555 -195.538011 
L 219.120949 -195.538011 
L 214.676347 -195.538011 
L 210.231746 -195.538011 
L 205.787144 -195.538011 
L 201.342543 -195.538011 
L 196.897942 -195.538011 
L 192.45334 -195.538011 
L 188.008739 -195.538011 
L 183.564138 -195.538011 
L 179.119536 -195.538011 
L 174.674935 -195.538011 
L 170.230333 -195.538011 
L 165.785732 -195.538011 
L 161.341131 -195.538011 
L 156.896529 -195.538011 
L 152.451928 -195.538011 
L 148.007326 -195.538011 
L 143.562725 -195.538011 
L 139.118124 -195.538011 
L 134.673522 -195.538011 
L 130.228921 -195.538011 
L 125.78432 -195.538011 
L 121.339718 -195.538011 
L 116.895117 -195.538011 
L 112.450515 -195.538011 
L 108.005914 -195.538011 
L 103.561313 -195.538011 
L 99.116711 -195.538011 
L 94.67211 -195.538011 
L 90.227508 -195.538011 
z
" id="m372517986e" style="stroke:#ff6384;stroke-opacity:0.5;"/>
    </defs>
    <g clip-path="url(#p020e0a1820)">
     <use style="fill:#ff6384;fill-opacity:0.5;stroke:#ff6384;stroke-opacity:0.5;" x="0" xlink:href="#m372517986e" y="581.789375"/>
    </g>
   </g>
   <g id="PolyCollection_2">
    <defs>
     <path d="M 73.697591 -195.538011 
L 73.697591 -195.650004 
L 78.095123 -195.692234 
L 82.492655 -195.749007 
L 86.890187 -195.8248 
L 91.28772 -195.925281 
L 95.685252 -196.057565 
L 100.082784 -196.230497 
L 104.480316 -196.454982 
L 108.877848 -196.744335 
L 113.27538 -197.114666 
L 117.672912 -197.585273 
L 122.070444 -198.179047 
L 126.467976 -198.922859 
L 130.865508 -199.847921 
L 135.26304 -200.990079 
L 139.660572 -202.390029 
L 144.058105 -204.093399 
L 148.455637 -206.150691 
L 152.853169 -208.617009 
L 157.250701 -211.551575 
L 161.648233 -215.016962 
L 166.045765 -219.078053 
L 170.443297 -223.800667 
L 174.840829 -229.249878 
L 179.238361 -235.488004 
L 183.635893 -242.572312 
L 188.033425 -250.552459 
L 192.430957 -259.467747 
L 196.82849 -269.344261 
L 201.226022 -280.192004 
L 205.623554 -292.002137 
L 210.021086 -304.744465 
L 214.418618 -318.365297 
L 218.81615 -332.785841 
L 223.213682 -347.901251 
L 227.611214 -363.580456 
L 232.008746 -379.666871 
L 236.406278 -395.980052 
L 240.80381 -412.31833 
L 245.201342 -428.4624 
L 249.598875 -444.179822 
L 253.996407 -459.230303 
L 258.393939 -473.371627 
L 262.791471 -486.366018 
L 267.189003 -497.986726 
L 271.586535 -508.02457 
L 275.984067 -516.294181 
L 280.381599 -522.639693 
L 284.779131 -526.939623 
L 289.176663 -529.110739 
L 293.574195 -529.110739 
L 297.971728 -526.939623 
L 302.36926 -522.639693 
L 306.766792 -516.294181 
L 311.164324 -508.02457 
L 315.561856 -497.986726 
L 319.959388 -486.366018 
L 324.35692 -473.371627 
L 328.754452 -459.230303 
L 333.151984 -444.179822 
L 337.549516 -428.4624 
L 341.947048 -412.31833 
L 346.34458 -395.980052 
L 350.742113 -379.666871 
L 355.139645 -363.580456 
L 359.537177 -347.901251 
L 363.934709 -332.785841 
L 368.332241 -318.365297 
L 372.729773 -304.744465 
L 377.127305 -292.002137 
L 381.524837 -280.192004 
L 385.922369 -269.344261 
L 390.319901 -259.467747 
L 394.717433 -250.552459 
L 399.114965 -242.572312 
L 403.512498 -235.488004 
L 407.91003 -229.249878 
L 412.307562 -223.800667 
L 416.705094 -219.078053 
L 421.102626 -215.016962 
L 425.500158 -211.551575 
L 429.89769 -208.617009 
L 434.295222 -206.150691 
L 438.692754 -204.093399 
L 443.090286 -202.390029 
L 447.487818 -200.990079 
L 451.88535 -199.847921 
L 456.282883 -198.922859 
L 460.680415 -198.179047 
L 465.077947 -197.585273 
L 469.475479 -197.114666 
L 473.873011 -196.744335 
L 478.270543 -196.454982 
L 482.668075 -196.230497 
L 487.065607 -196.057565 
L 491.463139 -195.925281 
L 495.860671 -195.8248 
L 500.258203 -195.749007 
L 504.655736 -195.692234 
L 509.053268 -195.650004 
L 509.053268 -195.538011 
L 509.053268 -195.538011 
L 504.655736 -195.538011 
L 500.258203 -195.538011 
L 495.860671 -195.538011 
L 491.463139 -195.538011 
L 487.065607 -195.538011 
L 482.668075 -195.538011 
L 478.270543 -195.538011 
L 473.873011 -195.538011 
L 469.475479 -195.538011 
L 465.077947 -195.538011 
L 460.680415 -195.538011 
L 456.282883 -195.538011 
L 451.88535 -195.538011 
L 447.487818 -195.538011 
L 443.090286 -195.538011 
L 438.692754 -195.538011 
L 434.295222 -195.538011 
L 429.89769 -195.538011 
L 425.500158 -195.538011 
L 421.102626 -195.538011 
L 416.705094 -195.538011 
L 412.307562 -195.538011 
L 407.91003 -195.538011 
L 403.512498 -195.538011 
L 399.114965 -195.538011 
L 394.717433 -195.538011 
L 390.319901 -195.538011 
L 385.922369 -195.538011 
L 381.524837 -195.538011 
L 377.127305 -195.538011 
L 372.729773 -195.538011 
L 368.332241 -195.538011 
L 363.934709 -195.538011 
L 359.537177 -195.538011 
L 355.139645 -195.538011 
L 350.742113 -195.538011 
L 346.34458 -195.538011 
L 341.947048 -195.538011 
L 337.549516 -195.538011 
L 333.151984 -195.538011 
L 328.754452 -195.538011 
L 324.35692 -195.538011 
L 319.959388 -195.538011 
L 315.561856 -195.538011 
L 311.164324 -195.538011 
L 306.766792 -195.538011 
L 302.36926 -195.538011 
L 297.971728 -195.538011 
L 293.574195 -195.538011 
L 289.176663 -195.538011 
L 284.779131 -195.538011 
L 280.381599 -195.538011 
L 275.984067 -195.538011 
L 271.586535 -195.538011 
L 267.189003 -195.538011 
L 262.791471 -195.538011 
L 258.393939 -195.538011 
L 253.996407 -195.538011 
L 249.598875 -195.538011 
L 245.201342 -195.538011 
L 240.80381 -195.538011 
L 236.406278 -195.538011 
L 232.008746 -195.538011 
L 227.611214 -195.538011 
L 223.213682 -195.538011 
L 218.81615 -195.538011 
L 214.418618 -195.538011 
L 210.021086 -195.538011 
L 205.623554 -195.538011 
L 201.226022 -195.538011 
L 196.82849 -195.538011 
L 192.430957 -195.538011 
L 188.033425 -195.538011 
L 183.635893 -195.538011 
L 179.238361 -195.538011 
L 174.840829 -195.538011 
L 170.443297 -195.538011 
L 166.045765 -195.538011 
L 161.648233 -195.538011 
L 157.250701 -195.538011 
L 152.853169 -195.538011 
L 148.455637 -195.538011 
L 144.058105 -195.538011 
L 139.660572 -195.538011 
L 135.26304 -195.538011 
L 130.865508 -195.538011 
L 126.467976 -195.538011 
L 122.070444 -195.538011 
L 117.672912 -195.538011 
L 113.27538 -195.538011 
L 108.877848 -195.538011 
L 104.480316 -195.538011 
L 100.082784 -195.538011 
L 95.685252 -195.538011 
L 91.28772 -195.538011 
L 86.890187 -195.538011 
L 82.492655 -195.538011 
L 78.095123 -195.538011 
L 73.697591 -195.538011 
z
" id="maa683b54a9" style="stroke:#36a2eb;stroke-opacity:0.5;"/>
    </defs>
    <g clip-path="url(#p020e0a1820)">
     <use style="fill:#36a2eb;fill-opacity:0.5;stroke:#36a2eb;stroke-opacity:0.5;" x="0" xlink:href="#maa683b54a9" y="581.789375"/>
    </g>
   </g>
   <g id="line2d_1">
    <path clip-path="url(#p020e0a1820)" d="M 90.227508 386.140557 
L 94.67211 386.098774 
L 99.116711 386.042603 
L 103.561313 385.967612 
L 108.005914 385.868195 
L 112.450515 385.737312 
L 116.895117 385.566212 
L 121.339718 385.344104 
L 125.78432 385.057815 
L 130.228921 384.691406 
L 134.673522 384.225783 
L 139.118124 383.638298 
L 143.562725 382.902362 
L 148.007326 381.987097 
L 152.451928 380.857034 
L 156.896529 379.471911 
L 161.341131 377.786579 
L 165.785732 375.751075 
L 170.230333 373.310875 
L 174.674935 370.407388 
L 179.119536 366.978699 
L 183.564138 362.960616 
L 188.008739 358.288015 
L 192.45334 352.896513 
L 196.897942 346.72445 
L 201.342543 339.715167 
L 205.787144 331.819531 
L 210.231746 322.998658 
L 214.676347 313.226739 
L 219.120949 302.493876 
L 223.56555 290.808814 
L 228.010151 278.20143 
L 232.454753 264.724846 
L 236.899354 250.457018 
L 241.343956 235.501684 
L 245.788557 219.988526 
L 250.233158 204.072469 
L 254.67776 187.932048 
L 259.122361 171.766796 
L 263.566963 155.793695 
L 268.011564 140.242725 
L 272.456165 125.351631 
L 276.900767 111.360067 
L 281.345368 98.503289 
L 285.789969 87.005647 
L 290.234571 77.074106 
L 294.679172 68.892072 
L 299.123774 62.61376 
L 303.568375 58.359368 
L 308.012976 56.211245 
L 312.457578 56.211245 
L 316.902179 58.359368 
L 321.346781 62.61376 
L 325.791382 68.892072 
L 330.235983 77.074106 
L 334.680585 87.005647 
L 339.125186 98.503289 
L 343.569787 111.360067 
L 348.014389 125.351631 
L 352.45899 140.242725 
L 356.903592 155.793695 
L 361.348193 171.766796 
L 365.792794 187.932048 
L 370.237396 204.072469 
L 374.681997 219.988526 
L 379.126599 235.501684 
L 383.5712 250.457018 
L 388.015801 264.724846 
L 392.460403 278.20143 
L 396.905004 290.808814 
L 401.349606 302.493876 
L 405.794207 313.226739 
L 410.238808 322.998658 
L 414.68341 331.819531 
L 419.128011 339.715167 
L 423.572612 346.72445 
L 428.017214 352.896513 
L 432.461815 358.288015 
L 436.906417 362.960616 
L 441.351018 366.978699 
L 445.795619 370.407388 
L 450.240221 373.310875 
L 454.684822 375.751075 
L 459.129424 377.786579 
L 463.574025 379.471911 
L 468.018626 380.857034 
L 472.463228 381.987097 
L 476.907829 382.902362 
L 481.35243 383.638298 
L 485.797032 384.225783 
L 490.241633 384.691406 
L 494.686235 385.057815 
L 499.130836 385.344104 
L 503.575437 385.566212 
L 508.020039 385.737312 
L 512.46464 385.868195 
L 516.909242 385.967612 
L 521.353843 386.042603 
L 525.798444 386.098774 
L 530.243046 386.140557 
" style="fill:none;stroke:#ff6384;stroke-linecap:square;"/>
   </g>
   <g id="line2d_2">
    <path clip-path="url(#p020e0a1820)" d="M 73.697591 386.139371 
L 78.095123 386.097141 
L 82.492655 386.040368 
L 86.890187 385.964575 
L 91.28772 385.864094 
L 95.685252 385.73181 
L 100.082784 385.558878 
L 104.480316 385.334393 
L 108.877848 385.04504 
L 113.27538 384.674709 
L 117.672912 384.204102 
L 122.070444 383.610328 
L 126.467976 382.866516 
L 130.865508 381.941454 
L 135.26304 380.799296 
L 139.660572 379.399346 
L 144.058105 377.695976 
L 148.455637 375.638684 
L 152.853169 373.172366 
L 157.250701 370.2378 
L 161.648233 366.772413 
L 166.045765 362.711322 
L 170.443297 357.988708 
L 174.840829 352.539497 
L 179.238361 346.301371 
L 183.635893 339.217063 
L 188.033425 331.236916 
L 192.430957 322.321628 
L 196.82849 312.445114 
L 201.226022 301.597371 
L 205.623554 289.787238 
L 210.021086 277.04491 
L 214.418618 263.424078 
L 218.81615 249.003534 
L 223.213682 233.888124 
L 227.611214 218.208919 
L 232.008746 202.122504 
L 236.406278 185.809323 
L 240.80381 169.471045 
L 245.201342 153.326975 
L 249.598875 137.609553 
L 253.996407 122.559072 
L 258.393939 108.417748 
L 262.791471 95.423357 
L 267.189003 83.802649 
L 271.586535 73.764805 
L 275.984067 65.495194 
L 280.381599 59.149682 
L 284.779131 54.849752 
L 289.176663 52.678636 
L 293.574195 52.678636 
L 297.971728 54.849752 
L 302.36926 59.149682 
L 306.766792 65.495194 
L 311.164324 73.764805 
L 315.561856 83.802649 
L 319.959388 95.423357 
L 324.35692 108.417748 
L 328.754452 122.559072 
L 333.151984 137.609553 
L 337.549516 153.326975 
L 341.947048 169.471045 
L 346.34458 185.809323 
L 350.742113 202.122504 
L 355.139645 218.208919 
L 359.537177 233.888124 
L 363.934709 249.003534 
L 368.332241 263.424078 
L 372.729773 277.04491 
L 377.127305 289.787238 
L 381.524837 301.597371 
L 385.922369 312.445114 
L 390.319901 322.321628 
L 394.717433 331.236916 
L 399.114965 339.217063 
L 403.512498 346.301371 
L 407.91003 352.539497 
L 412.307562 357.988708 
L 416.705094 362.711322 
L 421.102626 366.772413 
L 425.500158 370.2378 
L 429.89769 373.172366 
L 434.295222 375.638684 
L 438.692754 377.695976 
L 443.090286 379.399346 
L 447.487818 380.799296 
L 451.88535 381.941454 
L 456.282883 382.866516 
L 460.680415 383.610328 
L 465.077947 384.204102 
L 469.475479 384.674709 
L 473.873011 385.04504 
L 478.270543 385.334393 
L 482.668075 385.558878 
L 487.065607 385.73181 
L 491.463139 385.864094 
L 495.860671 385.964575 
L 500.258203 386.040368 
L 504.655736 386.097141 
L 509.053268 386.139371 
" style="fill:none;stroke:#36a2eb;stroke-linecap:square;"/>
   </g>
   <g id="patch_3">
    <path d="M 50.870318 402.93 
L 553.070318 402.93 
" style="fill:none;stroke:#000000;stroke-linecap:square;stroke-linejoin:miter;stroke-width:0.8;"/>
   </g>
   <g id="legend_1">
    <g id="patch_4">
     <path d="M 456.577506 88.29875 
L 543.270318 88.29875 
Q 546.070318 88.29875 546.070318 85.49875 
L 546.070318 45.8 
Q 546.070318 43 543.270318 43 
L 456.577506 43 
Q 453.777506 43 453.777506 45.8 
L 453.777506 85.49875 
Q 453.777506 88.29875 456.577506 88.29875 
z
" style="fill:#ffffff;opacity:0.8;stroke:#cccccc;stroke-linejoin:miter;"/>
    </g>
    <g id="patch_5">
     <path d="M 459.377506 59.237813 
L 487.377506 59.237813 
L 487.377506 49.437813 
L 459.377506 49.437813 
z
" style="fill:#ff6384;opacity:0.5;stroke:#ff6384;stroke-linejoin:miter;"/>
    </g>
    <g id="text_1">
     <!-- base -->
     <defs>
      <path d="M 48.6875 27.296875 
Q 48.6875 37.203125 44.609375 42.84375 
Q 40.53125 48.484375 33.40625 48.484375 
Q 26.265625 48.484375 22.1875 42.84375 
Q 18.109375 37.203125 18.109375 27.296875 
Q 18.109375 17.390625 22.1875 11.75 
Q 26.265625 6.109375 33.40625 6.109375 
Q 40.53125 6.109375 44.609375 11.75 
Q 48.6875 17.390625 48.6875 27.296875 
z
M 18.109375 46.390625 
Q 20.953125 51.265625 25.265625 53.625 
Q 29.59375 56 35.59375 56 
Q 45.5625 56 51.78125 48.09375 
Q 58.015625 40.1875 58.015625 27.296875 
Q 58.015625 14.40625 51.78125 6.484375 
Q 45.5625 -1.421875 35.59375 -1.421875 
Q 29.59375 -1.421875 25.265625 0.953125 
Q 20.953125 3.328125 18.109375 8.203125 
L 18.109375 0 
L 9.078125 0 
L 9.078125 75.984375 
L 18.109375 75.984375 
z
" id="DejaVuSans-98"/>
      <path d="M 34.28125 27.484375 
Q 23.390625 27.484375 19.1875 25 
Q 14.984375 22.515625 14.984375 16.5 
Q 14.984375 11.71875 18.140625 8.90625 
Q 21.296875 6.109375 26.703125 6.109375 
Q 34.1875 6.109375 38.703125 11.40625 
Q 43.21875 16.703125 43.21875 25.484375 
L 43.21875 27.484375 
z
M 52.203125 31.203125 
L 52.203125 0 
L 43.21875 0 
L 43.21875 8.296875 
Q 40.140625 3.328125 35.546875 0.953125 
Q 30.953125 -1.421875 24.3125 -1.421875 
Q 15.921875 -1.421875 10.953125 3.296875 
Q 6 8.015625 6 15.921875 
Q 6 25.140625 12.171875 29.828125 
Q 18.359375 34.515625 30.609375 34.515625 
L 43.21875 34.515625 
L 43.21875 35.40625 
Q 43.21875 41.609375 39.140625 45 
Q 35.0625 48.390625 27.6875 48.390625 
Q 23 48.390625 18.546875 47.265625 
Q 14.109375 46.140625 10.015625 43.890625 
L 10.015625 52.203125 
Q 14.9375 54.109375 19.578125 55.046875 
Q 24.21875 56 28.609375 56 
Q 40.484375 56 46.34375 49.84375 
Q 52.203125 43.703125 52.203125 31.203125 
z
" id="DejaVuSans-97"/>
      <path d="M 44.28125 53.078125 
L 44.28125 44.578125 
Q 40.484375 46.53125 36.375 47.5 
Q 32.28125 48.484375 27.875 48.484375 
Q 21.1875 48.484375 17.84375 46.4375 
Q 14.5 44.390625 14.5 40.28125 
Q 14.5 37.15625 16.890625 35.375 
Q 19.28125 33.59375 26.515625 31.984375 
L 29.59375 31.296875 
Q 39.15625 29.25 43.1875 25.515625 
Q 47.21875 21.78125 47.21875 15.09375 
Q 47.21875 7.46875 41.1875 3.015625 
Q 35.15625 -1.421875 24.609375 -1.421875 
Q 20.21875 -1.421875 15.453125 -0.5625 
Q 10.6875 0.296875 5.421875 2 
L 5.421875 11.28125 
Q 10.40625 8.6875 15.234375 7.390625 
Q 20.0625 6.109375 24.8125 6.109375 
Q 31.15625 6.109375 34.5625 8.28125 
Q 37.984375 10.453125 37.984375 14.40625 
Q 37.984375 18.0625 35.515625 20.015625 
Q 33.0625 21.96875 24.703125 23.78125 
L 21.578125 24.515625 
Q 13.234375 26.265625 9.515625 29.90625 
Q 5.8125 33.546875 5.8125 39.890625 
Q 5.8125 47.609375 11.28125 51.796875 
Q 16.75 56 26.8125 56 
Q 31.78125 56 36.171875 55.265625 
Q 40.578125 54.546875 44.28125 53.078125 
z
" id="DejaVuSans-115"/>
      <path d="M 56.203125 29.59375 
L 56.203125 25.203125 
L 14.890625 25.203125 
Q 15.484375 15.921875 20.484375 11.0625 
Q 25.484375 6.203125 34.421875 6.203125 
Q 39.59375 6.203125 44.453125 7.46875 
Q 49.3125 8.734375 54.109375 11.28125 
L 54.109375 2.78125 
Q 49.265625 0.734375 44.1875 -0.34375 
Q 39.109375 -1.421875 33.890625 -1.421875 
Q 20.796875 -1.421875 13.15625 6.1875 
Q 5.515625 13.8125 5.515625 26.8125 
Q 5.515625 40.234375 12.765625 48.109375 
Q 20.015625 56 32.328125 56 
Q 43.359375 56 49.78125 48.890625 
Q 56.203125 41.796875 56.203125 29.59375 
z
M 47.21875 32.234375 
Q 47.125 39.59375 43.09375 43.984375 
Q 39.0625 48.390625 32.421875 48.390625 
Q 24.90625 48.390625 20.390625 44.140625 
Q 15.875 39.890625 15.1875 32.171875 
z
" id="DejaVuSans-101"/>
     </defs>
     <g transform="translate(498.577506 59.237813)scale(0.14 -0.14)">
      <use xlink:href="#DejaVuSans-98"/>
      <use x="63.476562" xlink:href="#DejaVuSans-97"/>
      <use x="124.755859" xlink:href="#DejaVuSans-115"/>
      <use x="176.855469" xlink:href="#DejaVuSans-101"/>
     </g>
    </g>
    <g id="patch_6">
     <path d="M 459.377506 79.787188 
L 487.377506 79.787188 
L 487.377506 69.987188 
L 459.377506 69.987188 
z
" style="fill:#36a2eb;opacity:0.5;stroke:#36a2eb;stroke-linejoin:miter;"/>
    </g>
    <g id="text_2">
     <!-- osago -->
     <defs>
      <path d="M 30.609375 48.390625 
Q 23.390625 48.390625 19.1875 42.75 
Q 14.984375 37.109375 14.984375 27.296875 
Q 14.984375 17.484375 19.15625 11.84375 
Q 23.34375 6.203125 30.609375 6.203125 
Q 37.796875 6.203125 41.984375 11.859375 
Q 46.1875 17.53125 46.1875 27.296875 
Q 46.1875 37.015625 41.984375 42.703125 
Q 37.796875 48.390625 30.609375 48.390625 
z
M 30.609375 56 
Q 42.328125 56 49.015625 48.375 
Q 55.71875 40.765625 55.71875 27.296875 
Q 55.71875 13.875 49.015625 6.21875 
Q 42.328125 -1.421875 30.609375 -1.421875 
Q 18.84375 -1.421875 12.171875 6.21875 
Q 5.515625 13.875 5.515625 27.296875 
Q 5.515625 40.765625 12.171875 48.375 
Q 18.84375 56 30.609375 56 
z
" id="DejaVuSans-111"/>
      <path d="M 45.40625 27.984375 
Q 45.40625 37.75 41.375 43.109375 
Q 37.359375 48.484375 30.078125 48.484375 
Q 22.859375 48.484375 18.828125 43.109375 
Q 14.796875 37.75 14.796875 27.984375 
Q 14.796875 18.265625 18.828125 12.890625 
Q 22.859375 7.515625 30.078125 7.515625 
Q 37.359375 7.515625 41.375 12.890625 
Q 45.40625 18.265625 45.40625 27.984375 
z
M 54.390625 6.78125 
Q 54.390625 -7.171875 48.1875 -13.984375 
Q 42 -20.796875 29.203125 -20.796875 
Q 24.46875 -20.796875 20.265625 -20.09375 
Q 16.0625 -19.390625 12.109375 -17.921875 
L 12.109375 -9.1875 
Q 16.0625 -11.328125 19.921875 -12.34375 
Q 23.78125 -13.375 27.78125 -13.375 
Q 36.625 -13.375 41.015625 -8.765625 
Q 45.40625 -4.15625 45.40625 5.171875 
L 45.40625 9.625 
Q 42.625 4.78125 38.28125 2.390625 
Q 33.9375 0 27.875 0 
Q 17.828125 0 11.671875 7.65625 
Q 5.515625 15.328125 5.515625 27.984375 
Q 5.515625 40.671875 11.671875 48.328125 
Q 17.828125 56 27.875 56 
Q 33.9375 56 38.28125 53.609375 
Q 42.625 51.21875 45.40625 46.390625 
L 45.40625 54.6875 
L 54.390625 54.6875 
z
" id="DejaVuSans-103"/>
     </defs>
     <g transform="translate(498.577506 79.787188)scale(0.14 -0.14)">
      <use xlink:href="#DejaVuSans-111"/>
      <use x="61.181641" xlink:href="#DejaVuSans-115"/>
      <use x="113.28125" xlink:href="#DejaVuSans-97"/>
      <use x="174.560547" xlink:href="#DejaVuSans-103"/>
      <use x="238.037109" xlink:href="#DejaVuSans-111"/>
     </g>
    </g>
   </g>
  </g>
  <g id="axes_2">
   <g id="patch_7">
    <path d="M 50.870318 525.24 
L 553.070318 525.24 
L 553.070318 402.93 
L 50.870318 402.93 
z
" style="fill:none;"/>
   </g>
   <g id="patch_8">
    <path clip-path="url(#p79ab15eb9c)" d="M 202.43147 519.680455 
L 418.039084 519.680455 
L 418.039084 482.616818 
L 202.43147 482.616818 
z
" style="fill:#ff6384;opacity:0.5;"/>
   </g>
   <g id="patch_9">
    <path clip-path="url(#p79ab15eb9c)" d="M 184.713289 445.553182 
L 398.03757 445.553182 
L 398.03757 408.489545 
L 184.713289 408.489545 
z
" style="fill:#36a2eb;opacity:0.5;"/>
   </g>
   <g id="matplotlib.axis_1">
    <g id="xtick_1">
     <g id="line2d_3">
      <defs>
       <path d="M 0 0 
L 0 3.5 
" id="m7cfb806e20" style="stroke:#000000;stroke-width:0.8;"/>
      </defs>
      <g>
       <use style="stroke:#000000;stroke-width:0.8;" x="51.585938" xlink:href="#m7cfb806e20" y="525.24"/>
      </g>
     </g>
     <g id="text_3">
      <!-- 0.50 -->
      <defs>
       <path d="M 31.78125 66.40625 
Q 24.171875 66.40625 20.328125 58.90625 
Q 16.5 51.421875 16.5 36.375 
Q 16.5 21.390625 20.328125 13.890625 
Q 24.171875 6.390625 31.78125 6.390625 
Q 39.453125 6.390625 43.28125 13.890625 
Q 47.125 21.390625 47.125 36.375 
Q 47.125 51.421875 43.28125 58.90625 
Q 39.453125 66.40625 31.78125 66.40625 
z
M 31.78125 74.21875 
Q 44.046875 74.21875 50.515625 64.515625 
Q 56.984375 54.828125 56.984375 36.375 
Q 56.984375 17.96875 50.515625 8.265625 
Q 44.046875 -1.421875 31.78125 -1.421875 
Q 19.53125 -1.421875 13.0625 8.265625 
Q 6.59375 17.96875 6.59375 36.375 
Q 6.59375 54.828125 13.0625 64.515625 
Q 19.53125 74.21875 31.78125 74.21875 
z
" id="DejaVuSans-48"/>
       <path d="M 10.6875 12.40625 
L 21 12.40625 
L 21 0 
L 10.6875 0 
z
" id="DejaVuSans-46"/>
       <path d="M 10.796875 72.90625 
L 49.515625 72.90625 
L 49.515625 64.59375 
L 19.828125 64.59375 
L 19.828125 46.734375 
Q 21.96875 47.46875 24.109375 47.828125 
Q 26.265625 48.1875 28.421875 48.1875 
Q 40.625 48.1875 47.75 41.5 
Q 54.890625 34.8125 54.890625 23.390625 
Q 54.890625 11.625 47.5625 5.09375 
Q 40.234375 -1.421875 26.90625 -1.421875 
Q 22.3125 -1.421875 17.546875 -0.640625 
Q 12.796875 0.140625 7.71875 1.703125 
L 7.71875 11.625 
Q 12.109375 9.234375 16.796875 8.0625 
Q 21.484375 6.890625 26.703125 6.890625 
Q 35.15625 6.890625 40.078125 11.328125 
Q 45.015625 15.765625 45.015625 23.390625 
Q 45.015625 31 40.078125 35.4375 
Q 35.15625 39.890625 26.703125 39.890625 
Q 22.75 39.890625 18.8125 39.015625 
Q 14.890625 38.140625 10.796875 36.28125 
z
" id="DejaVuSans-53"/>
      </defs>
      <g transform="translate(36 542.877813)scale(0.14 -0.14)">
       <use xlink:href="#DejaVuSans-48"/>
       <use x="63.623047" xlink:href="#DejaVuSans-46"/>
       <use x="95.410156" xlink:href="#DejaVuSans-53"/>
       <use x="159.033203" xlink:href="#DejaVuSans-48"/>
      </g>
     </g>
    </g>
    <g id="xtick_2">
     <g id="line2d_4">
      <g>
       <use style="stroke:#000000;stroke-width:0.8;" x="118.942536" xlink:href="#m7cfb806e20" y="525.24"/>
      </g>
     </g>
     <g id="text_4">
      <!-- 0.75 -->
      <defs>
       <path d="M 8.203125 72.90625 
L 55.078125 72.90625 
L 55.078125 68.703125 
L 28.609375 0 
L 18.3125 0 
L 43.21875 64.59375 
L 8.203125 64.59375 
z
" id="DejaVuSans-55"/>
      </defs>
      <g transform="translate(103.356599 542.877813)scale(0.14 -0.14)">
       <use xlink:href="#DejaVuSans-48"/>
       <use x="63.623047" xlink:href="#DejaVuSans-46"/>
       <use x="95.410156" xlink:href="#DejaVuSans-55"/>
       <use x="159.033203" xlink:href="#DejaVuSans-53"/>
      </g>
     </g>
    </g>
    <g id="xtick_3">
     <g id="line2d_5">
      <g>
       <use style="stroke:#000000;stroke-width:0.8;" x="186.299135" xlink:href="#m7cfb806e20" y="525.24"/>
      </g>
     </g>
     <g id="text_5">
      <!-- 1.00 -->
      <defs>
       <path d="M 12.40625 8.296875 
L 28.515625 8.296875 
L 28.515625 63.921875 
L 10.984375 60.40625 
L 10.984375 69.390625 
L 28.421875 72.90625 
L 38.28125 72.90625 
L 38.28125 8.296875 
L 54.390625 8.296875 
L 54.390625 0 
L 12.40625 0 
z
" id="DejaVuSans-49"/>
      </defs>
      <g transform="translate(170.713198 542.877813)scale(0.14 -0.14)">
       <use xlink:href="#DejaVuSans-49"/>
       <use x="63.623047" xlink:href="#DejaVuSans-46"/>
       <use x="95.410156" xlink:href="#DejaVuSans-48"/>
       <use x="159.033203" xlink:href="#DejaVuSans-48"/>
      </g>
     </g>
    </g>
    <g id="xtick_4">
     <g id="line2d_6">
      <g>
       <use style="stroke:#000000;stroke-width:0.8;" x="253.655734" xlink:href="#m7cfb806e20" y="525.24"/>
      </g>
     </g>
     <g id="text_6">
      <!-- 1.25 -->
      <defs>
       <path d="M 19.1875 8.296875 
L 53.609375 8.296875 
L 53.609375 0 
L 7.328125 0 
L 7.328125 8.296875 
Q 12.9375 14.109375 22.625 23.890625 
Q 32.328125 33.6875 34.8125 36.53125 
Q 39.546875 41.84375 41.421875 45.53125 
Q 43.3125 49.21875 43.3125 52.78125 
Q 43.3125 58.59375 39.234375 62.25 
Q 35.15625 65.921875 28.609375 65.921875 
Q 23.96875 65.921875 18.8125 64.3125 
Q 13.671875 62.703125 7.8125 59.421875 
L 7.8125 69.390625 
Q 13.765625 71.78125 18.9375 73 
Q 24.125 74.21875 28.421875 74.21875 
Q 39.75 74.21875 46.484375 68.546875 
Q 53.21875 62.890625 53.21875 53.421875 
Q 53.21875 48.921875 51.53125 44.890625 
Q 49.859375 40.875 45.40625 35.40625 
Q 44.1875 33.984375 37.640625 27.21875 
Q 31.109375 20.453125 19.1875 8.296875 
z
" id="DejaVuSans-50"/>
      </defs>
      <g transform="translate(238.069797 542.877813)scale(0.14 -0.14)">
       <use xlink:href="#DejaVuSans-49"/>
       <use x="63.623047" xlink:href="#DejaVuSans-46"/>
       <use x="95.410156" xlink:href="#DejaVuSans-50"/>
       <use x="159.033203" xlink:href="#DejaVuSans-53"/>
      </g>
     </g>
    </g>
    <g id="xtick_5">
     <g id="line2d_7">
      <g>
       <use style="stroke:#000000;stroke-width:0.8;" x="321.012333" xlink:href="#m7cfb806e20" y="525.24"/>
      </g>
     </g>
     <g id="text_7">
      <!-- 1.50 -->
      <g transform="translate(305.426395 542.877813)scale(0.14 -0.14)">
       <use xlink:href="#DejaVuSans-49"/>
       <use x="63.623047" xlink:href="#DejaVuSans-46"/>
       <use x="95.410156" xlink:href="#DejaVuSans-53"/>
       <use x="159.033203" xlink:href="#DejaVuSans-48"/>
      </g>
     </g>
    </g>
    <g id="xtick_6">
     <g id="line2d_8">
      <g>
       <use style="stroke:#000000;stroke-width:0.8;" x="388.368932" xlink:href="#m7cfb806e20" y="525.24"/>
      </g>
     </g>
     <g id="text_8">
      <!-- 1.75 -->
      <g transform="translate(372.782994 542.877813)scale(0.14 -0.14)">
       <use xlink:href="#DejaVuSans-49"/>
       <use x="63.623047" xlink:href="#DejaVuSans-46"/>
       <use x="95.410156" xlink:href="#DejaVuSans-55"/>
       <use x="159.033203" xlink:href="#DejaVuSans-53"/>
      </g>
     </g>
    </g>
    <g id="xtick_7">
     <g id="line2d_9">
      <g>
       <use style="stroke:#000000;stroke-width:0.8;" x="455.725531" xlink:href="#m7cfb806e20" y="525.24"/>
      </g>
     </g>
     <g id="text_9">
      <!-- 2.00 -->
      <g transform="translate(440.139593 542.877813)scale(0.14 -0.14)">
       <use xlink:href="#DejaVuSans-50"/>
       <use x="63.623047" xlink:href="#DejaVuSans-46"/>
       <use x="95.410156" xlink:href="#DejaVuSans-48"/>
       <use x="159.033203" xlink:href="#DejaVuSans-48"/>
      </g>
     </g>
    </g>
    <g id="xtick_8">
     <g id="line2d_10">
      <g>
       <use style="stroke:#000000;stroke-width:0.8;" x="523.082129" xlink:href="#m7cfb806e20" y="525.24"/>
      </g>
     </g>
     <g id="text_10">
      <!-- 2.25 -->
      <g transform="translate(507.496192 542.877813)scale(0.14 -0.14)">
       <use xlink:href="#DejaVuSans-50"/>
       <use x="63.623047" xlink:href="#DejaVuSans-46"/>
       <use x="95.410156" xlink:href="#DejaVuSans-50"/>
       <use x="159.033203" xlink:href="#DejaVuSans-53"/>
      </g>
     </g>
    </g>
   </g>
   <g id="line2d_11">
    <path clip-path="url(#p79ab15eb9c)" d="M 310.235277 525.24 
L 310.235277 402.93 
" style="fill:none;stroke:#ff6384;stroke-dasharray:5.55,2.4;stroke-dashoffset:0;stroke-opacity:0.8;stroke-width:1.5;"/>
   </g>
   <g id="line2d_12">
    <path clip-path="url(#p79ab15eb9c)" d="M 291.375429 525.24 
L 291.375429 402.93 
" style="fill:none;stroke:#36a2eb;stroke-dasharray:5.55,2.4;stroke-dashoffset:0;stroke-opacity:0.8;stroke-width:1.5;"/>
   </g>
   <g id="patch_10">
    <path d="M 50.870318 525.24 
L 553.070318 525.24 
" style="fill:none;stroke:#000000;stroke-linecap:square;stroke-linejoin:miter;stroke-width:0.8;"/>
   </g>
  </g>
 </g>
 <defs>
  <clipPath id="p020e0a1820">
   <rect height="366.93" width="502.2" x="50.870318" y="36"/>
  </clipPath>
  <clipPath id="p79ab15eb9c">
   <rect height="122.31" width="502.2" x="50.870318" y="402.93"/>
  </clipPath>
 </defs>
</svg>
