<?xml version="1.0" encoding="utf-8" standalone="no"?>
<!DOCTYPE svg PUBLIC "-//W3C//DTD SVG 1.1//EN"
  "http://www.w3.org/Graphics/SVG/1.1/DTD/svg11.dtd">
<!-- Created with matplotlib (https://matplotlib.org/) -->
<svg height="591.509375pt" version="1.1" viewBox="0 0 574.2 591.509375" width="574.2pt" xmlns="http://www.w3.org/2000/svg" xmlns:xlink="http://www.w3.org/1999/xlink">
 <defs>
  <style type="text/css">
*{stroke-linecap:butt;stroke-linejoin:round;}
  </style>
 </defs>
 <g id="figure_1">
  <g id="patch_1">
   <path d="M 0 591.509375 
L 574.2 591.509375 
L 574.2 0 
L 0 0 
z
" style="fill:none;"/>
  </g>
  <g id="axes_1">
   <g id="patch_2">
    <path d="M 36 410.22 
L 538.2 410.22 
L 538.2 36 
L 36 36 
z
" style="fill:none;"/>
   </g>
   <g id="PolyCollection_1">
    <defs>
     <path d="M 68.475638 -198.299375 
L 68.475638 -198.413593 
L 72.819083 -198.456662 
L 77.162528 -198.514563 
L 81.505973 -198.591861 
L 85.849418 -198.694339 
L 90.192863 -198.829251 
L 94.536308 -199.005619 
L 98.879753 -199.234563 
L 103.223198 -199.529665 
L 107.566643 -199.907354 
L 111.910089 -200.387311 
L 116.253534 -200.992881 
L 120.596979 -201.751471 
L 124.940424 -202.694912 
L 129.283869 -203.859762 
L 133.627314 -205.287525 
L 137.970759 -207.024738 
L 142.314204 -209.122902 
L 146.657649 -211.638221 
L 151.001094 -214.631088 
L 155.344539 -218.165325 
L 159.687984 -222.3071 
L 164.031429 -227.123541 
L 168.374874 -232.681014 
L 172.718319 -239.043076 
L 177.061764 -246.268132 
L 181.405209 -254.406825 
L 185.748654 -263.499238 
L 190.092099 -273.571974 
L 194.435544 -284.635235 
L 198.778989 -296.680007 
L 203.122434 -309.675493 
L 207.465879 -323.566938 
L 211.809324 -338.273983 
L 216.152769 -353.689699 
L 220.496214 -369.680411 
L 224.839659 -386.086424 
L 229.183104 -402.723708 
L 233.526549 -419.386587 
L 237.869994 -435.8514 
L 242.213439 -451.881089 
L 246.556884 -467.230586 
L 250.900329 -481.652863 
L 255.243774 -494.905422 
L 259.587219 -506.757005 
L 263.930664 -516.994276 
L 268.274109 -525.428184 
L 272.617554 -531.899766 
L 276.960999 -536.285125 
L 281.304444 -538.499375 
L 285.647889 -538.499375 
L 289.991334 -536.285125 
L 294.334779 -531.899766 
L 298.678224 -525.428184 
L 303.021669 -516.994276 
L 307.365114 -506.757005 
L 311.708559 -494.905422 
L 316.052004 -481.652863 
L 320.39545 -467.230586 
L 324.738895 -451.881089 
L 329.08234 -435.8514 
L 333.425785 -419.386587 
L 337.76923 -402.723708 
L 342.112675 -386.086424 
L 346.45612 -369.680411 
L 350.799565 -353.689699 
L 355.14301 -338.273983 
L 359.486455 -323.566938 
L 363.8299 -309.675493 
L 368.173345 -296.680007 
L 372.51679 -284.635235 
L 376.860235 -273.571974 
L 381.20368 -263.499238 
L 385.547125 -254.406825 
L 389.89057 -246.268132 
L 394.234015 -239.043076 
L 398.57746 -232.681014 
L 402.920905 -227.123541 
L 407.26435 -222.3071 
L 411.607795 -218.165325 
L 415.95124 -214.631088 
L 420.294685 -211.638221 
L 424.63813 -209.122902 
L 428.981575 -207.024738 
L 433.32502 -205.287525 
L 437.668465 -203.859762 
L 442.01191 -202.694912 
L 446.355355 -201.751471 
L 450.6988 -200.992881 
L 455.042245 -200.387311 
L 459.38569 -199.907354 
L 463.729135 -199.529665 
L 468.07258 -199.234563 
L 472.416025 -199.005619 
L 476.75947 -198.829251 
L 481.102915 -198.694339 
L 485.44636 -198.591861 
L 489.789805 -198.514563 
L 494.13325 -198.456662 
L 498.476695 -198.413593 
L 498.476695 -198.299375 
L 498.476695 -198.299375 
L 494.13325 -198.299375 
L 489.789805 -198.299375 
L 485.44636 -198.299375 
L 481.102915 -198.299375 
L 476.75947 -198.299375 
L 472.416025 -198.299375 
L 468.07258 -198.299375 
L 463.729135 -198.299375 
L 459.38569 -198.299375 
L 455.042245 -198.299375 
L 450.6988 -198.299375 
L 446.355355 -198.299375 
L 442.01191 -198.299375 
L 437.668465 -198.299375 
L 433.32502 -198.299375 
L 428.981575 -198.299375 
L 424.63813 -198.299375 
L 420.294685 -198.299375 
L 415.95124 -198.299375 
L 411.607795 -198.299375 
L 407.26435 -198.299375 
L 402.920905 -198.299375 
L 398.57746 -198.299375 
L 394.234015 -198.299375 
L 389.89057 -198.299375 
L 385.547125 -198.299375 
L 381.20368 -198.299375 
L 376.860235 -198.299375 
L 372.51679 -198.299375 
L 368.173345 -198.299375 
L 363.8299 -198.299375 
L 359.486455 -198.299375 
L 355.14301 -198.299375 
L 350.799565 -198.299375 
L 346.45612 -198.299375 
L 342.112675 -198.299375 
L 337.76923 -198.299375 
L 333.425785 -198.299375 
L 329.08234 -198.299375 
L 324.738895 -198.299375 
L 320.39545 -198.299375 
L 316.052004 -198.299375 
L 311.708559 -198.299375 
L 307.365114 -198.299375 
L 303.021669 -198.299375 
L 298.678224 -198.299375 
L 294.334779 -198.299375 
L 289.991334 -198.299375 
L 285.647889 -198.299375 
L 281.304444 -198.299375 
L 276.960999 -198.299375 
L 272.617554 -198.299375 
L 268.274109 -198.299375 
L 263.930664 -198.299375 
L 259.587219 -198.299375 
L 255.243774 -198.299375 
L 250.900329 -198.299375 
L 246.556884 -198.299375 
L 242.213439 -198.299375 
L 237.869994 -198.299375 
L 233.526549 -198.299375 
L 229.183104 -198.299375 
L 224.839659 -198.299375 
L 220.496214 -198.299375 
L 216.152769 -198.299375 
L 211.809324 -198.299375 
L 207.465879 -198.299375 
L 203.122434 -198.299375 
L 198.778989 -198.299375 
L 194.435544 -198.299375 
L 190.092099 -198.299375 
L 185.748654 -198.299375 
L 181.405209 -198.299375 
L 177.061764 -198.299375 
L 172.718319 -198.299375 
L 168.374874 -198.299375 
L 164.031429 -198.299375 
L 159.687984 -198.299375 
L 155.344539 -198.299375 
L 151.001094 -198.299375 
L 146.657649 -198.299375 
L 142.314204 -198.299375 
L 137.970759 -198.299375 
L 133.627314 -198.299375 
L 129.283869 -198.299375 
L 124.940424 -198.299375 
L 120.596979 -198.299375 
L 116.253534 -198.299375 
L 111.910089 -198.299375 
L 107.566643 -198.299375 
L 103.223198 -198.299375 
L 98.879753 -198.299375 
L 94.536308 -198.299375 
L 90.192863 -198.299375 
L 85.849418 -198.299375 
L 81.505973 -198.299375 
L 77.162528 -198.299375 
L 72.819083 -198.299375 
L 68.475638 -198.299375 
z
" id="m4d55caa0fb" style="stroke:#ff6384;stroke-opacity:0.5;"/>
    </defs>
    <g clip-path="url(#p658ac2ae8b)">
     <use style="fill:#ff6384;fill-opacity:0.5;stroke:#ff6384;stroke-opacity:0.5;" x="0" xlink:href="#m4d55caa0fb" y="591.509375"/>
    </g>
   </g>
   <g id="PolyCollection_2">
    <defs>
     <path d="M 58.827273 -198.299375 
L 58.827273 -198.406952 
L 63.438843 -198.447517 
L 68.050413 -198.502051 
L 72.661983 -198.574855 
L 77.273554 -198.671375 
L 81.885124 -198.798443 
L 86.496694 -198.964556 
L 91.108264 -199.18019 
L 95.719835 -199.458134 
L 100.331405 -199.813863 
L 104.942975 -200.265914 
L 109.554545 -200.836276 
L 114.166116 -201.55076 
L 118.777686 -202.439347 
L 123.389256 -203.536471 
L 128.000826 -204.881221 
L 132.612397 -206.517429 
L 137.223967 -208.493603 
L 141.835537 -210.862675 
L 146.447107 -213.681532 
L 151.058678 -217.010282 
L 155.670248 -220.911246 
L 160.281818 -225.44765 
L 164.893388 -230.682002 
L 169.504959 -236.674162 
L 174.116529 -243.47914 
L 178.728099 -251.144634 
L 183.339669 -259.708397 
L 187.95124 -269.195485 
L 192.56281 -279.615508 
L 197.17438 -290.959975 
L 201.78595 -303.19988 
L 206.397521 -316.28365 
L 211.009091 -330.1356 
L 215.620661 -344.655018 
L 220.232231 -359.716 
L 224.843802 -375.168137 
L 229.455372 -390.838099 
L 234.066942 -406.532168 
L 238.678512 -422.039686 
L 243.290083 -437.137379 
L 247.901653 -451.594428 
L 252.513223 -465.178167 
L 257.124793 -477.660197 
L 261.736364 -488.822707 
L 266.347934 -498.464764 
L 270.959504 -506.40831 
L 275.571074 -512.503622 
L 280.182645 -516.634008 
L 284.794215 -518.719518 
L 289.405785 -518.719518 
L 294.017355 -516.634008 
L 298.628926 -512.503622 
L 303.240496 -506.40831 
L 307.852066 -498.464764 
L 312.463636 -488.822707 
L 317.075207 -477.660197 
L 321.686777 -465.178167 
L 326.298347 -451.594428 
L 330.909917 -437.137379 
L 335.521488 -422.039686 
L 340.133058 -406.532168 
L 344.744628 -390.838099 
L 349.356198 -375.168137 
L 353.967769 -359.716 
L 358.579339 -344.655018 
L 363.190909 -330.1356 
L 367.802479 -316.28365 
L 372.41405 -303.19988 
L 377.02562 -290.959975 
L 381.63719 -279.615508 
L 386.24876 -269.195485 
L 390.860331 -259.708397 
L 395.471901 -251.144634 
L 400.083471 -243.47914 
L 404.695041 -236.674162 
L 409.306612 -230.682002 
L 413.918182 -225.44765 
L 418.529752 -220.911246 
L 423.141322 -217.010282 
L 427.752893 -213.681532 
L 432.364463 -210.862675 
L 436.976033 -208.493603 
L 441.587603 -206.517429 
L 446.199174 -204.881221 
L 450.810744 -203.536471 
L 455.422314 -202.439347 
L 460.033884 -201.55076 
L 464.645455 -200.836276 
L 469.257025 -200.265914 
L 473.868595 -199.813863 
L 478.480165 -199.458134 
L 483.091736 -199.18019 
L 487.703306 -198.964556 
L 492.314876 -198.798443 
L 496.926446 -198.671375 
L 501.538017 -198.574855 
L 506.149587 -198.502051 
L 510.761157 -198.447517 
L 515.372727 -198.406952 
L 515.372727 -198.299375 
L 515.372727 -198.299375 
L 510.761157 -198.299375 
L 506.149587 -198.299375 
L 501.538017 -198.299375 
L 496.926446 -198.299375 
L 492.314876 -198.299375 
L 487.703306 -198.299375 
L 483.091736 -198.299375 
L 478.480165 -198.299375 
L 473.868595 -198.299375 
L 469.257025 -198.299375 
L 464.645455 -198.299375 
L 460.033884 -198.299375 
L 455.422314 -198.299375 
L 450.810744 -198.299375 
L 446.199174 -198.299375 
L 441.587603 -198.299375 
L 436.976033 -198.299375 
L 432.364463 -198.299375 
L 427.752893 -198.299375 
L 423.141322 -198.299375 
L 418.529752 -198.299375 
L 413.918182 -198.299375 
L 409.306612 -198.299375 
L 404.695041 -198.299375 
L 400.083471 -198.299375 
L 395.471901 -198.299375 
L 390.860331 -198.299375 
L 386.24876 -198.299375 
L 381.63719 -198.299375 
L 377.02562 -198.299375 
L 372.41405 -198.299375 
L 367.802479 -198.299375 
L 363.190909 -198.299375 
L 358.579339 -198.299375 
L 353.967769 -198.299375 
L 349.356198 -198.299375 
L 344.744628 -198.299375 
L 340.133058 -198.299375 
L 335.521488 -198.299375 
L 330.909917 -198.299375 
L 326.298347 -198.299375 
L 321.686777 -198.299375 
L 317.075207 -198.299375 
L 312.463636 -198.299375 
L 307.852066 -198.299375 
L 303.240496 -198.299375 
L 298.628926 -198.299375 
L 294.017355 -198.299375 
L 289.405785 -198.299375 
L 284.794215 -198.299375 
L 280.182645 -198.299375 
L 275.571074 -198.299375 
L 270.959504 -198.299375 
L 266.347934 -198.299375 
L 261.736364 -198.299375 
L 257.124793 -198.299375 
L 252.513223 -198.299375 
L 247.901653 -198.299375 
L 243.290083 -198.299375 
L 238.678512 -198.299375 
L 234.066942 -198.299375 
L 229.455372 -198.299375 
L 224.843802 -198.299375 
L 220.232231 -198.299375 
L 215.620661 -198.299375 
L 211.009091 -198.299375 
L 206.397521 -198.299375 
L 201.78595 -198.299375 
L 197.17438 -198.299375 
L 192.56281 -198.299375 
L 187.95124 -198.299375 
L 183.339669 -198.299375 
L 178.728099 -198.299375 
L 174.116529 -198.299375 
L 169.504959 -198.299375 
L 164.893388 -198.299375 
L 160.281818 -198.299375 
L 155.670248 -198.299375 
L 151.058678 -198.299375 
L 146.447107 -198.299375 
L 141.835537 -198.299375 
L 137.223967 -198.299375 
L 132.612397 -198.299375 
L 128.000826 -198.299375 
L 123.389256 -198.299375 
L 118.777686 -198.299375 
L 114.166116 -198.299375 
L 109.554545 -198.299375 
L 104.942975 -198.299375 
L 100.331405 -198.299375 
L 95.719835 -198.299375 
L 91.108264 -198.299375 
L 86.496694 -198.299375 
L 81.885124 -198.299375 
L 77.273554 -198.299375 
L 72.661983 -198.299375 
L 68.050413 -198.299375 
L 63.438843 -198.299375 
L 58.827273 -198.299375 
z
" id="mc154bf1529" style="stroke:#36a2eb;stroke-opacity:0.5;"/>
    </defs>
    <g clip-path="url(#p658ac2ae8b)">
     <use style="fill:#36a2eb;fill-opacity:0.5;stroke:#36a2eb;stroke-opacity:0.5;" x="0" xlink:href="#mc154bf1529" y="591.509375"/>
    </g>
   </g>
   <g id="line2d_1">
    <path clip-path="url(#p658ac2ae8b)" d="M 68.475638 393.095782 
L 72.819083 393.052713 
L 77.162528 392.994812 
L 81.505973 392.917514 
L 85.849418 392.815036 
L 90.192863 392.680124 
L 94.536308 392.503756 
L 98.879753 392.274812 
L 103.223198 391.97971 
L 107.566643 391.602021 
L 111.910089 391.122064 
L 116.253534 390.516494 
L 120.596979 389.757904 
L 124.940424 388.814463 
L 129.283869 387.649613 
L 133.627314 386.22185 
L 137.970759 384.484637 
L 142.314204 382.386473 
L 146.657649 379.871154 
L 151.001094 376.878287 
L 155.344539 373.34405 
L 159.687984 369.202275 
L 164.031429 364.385834 
L 168.374874 358.828361 
L 172.718319 352.466299 
L 177.061764 345.241243 
L 181.405209 337.10255 
L 185.748654 328.010137 
L 190.092099 317.937401 
L 194.435544 306.87414 
L 198.778989 294.829368 
L 203.122434 281.833882 
L 207.465879 267.942437 
L 211.809324 253.235392 
L 216.152769 237.819676 
L 220.496214 221.828964 
L 224.839659 205.422951 
L 229.183104 188.785667 
L 233.526549 172.122788 
L 237.869994 155.657975 
L 242.213439 139.628286 
L 246.556884 124.278789 
L 250.900329 109.856512 
L 255.243774 96.603953 
L 259.587219 84.75237 
L 263.930664 74.515099 
L 268.274109 66.081191 
L 272.617554 59.609609 
L 276.960999 55.22425 
L 281.304444 53.01 
L 285.647889 53.01 
L 289.991334 55.22425 
L 294.334779 59.609609 
L 298.678224 66.081191 
L 303.021669 74.515099 
L 307.365114 84.75237 
L 311.708559 96.603953 
L 316.052004 109.856512 
L 320.39545 124.278789 
L 324.738895 139.628286 
L 329.08234 155.657975 
L 333.425785 172.122788 
L 337.76923 188.785667 
L 342.112675 205.422951 
L 346.45612 221.828964 
L 350.799565 237.819676 
L 355.14301 253.235392 
L 359.486455 267.942437 
L 363.8299 281.833882 
L 368.173345 294.829368 
L 372.51679 306.87414 
L 376.860235 317.937401 
L 381.20368 328.010137 
L 385.547125 337.10255 
L 389.89057 345.241243 
L 394.234015 352.466299 
L 398.57746 358.828361 
L 402.920905 364.385834 
L 407.26435 369.202275 
L 411.607795 373.34405 
L 415.95124 376.878287 
L 420.294685 379.871154 
L 424.63813 382.386473 
L 428.981575 384.484637 
L 433.32502 386.22185 
L 437.668465 387.649613 
L 442.01191 388.814463 
L 446.355355 389.757904 
L 450.6988 390.516494 
L 455.042245 391.122064 
L 459.38569 391.602021 
L 463.729135 391.97971 
L 468.07258 392.274812 
L 472.416025 392.503756 
L 476.75947 392.680124 
L 481.102915 392.815036 
L 485.44636 392.917514 
L 489.789805 392.994812 
L 494.13325 393.052713 
L 498.476695 393.095782 
" style="fill:none;stroke:#ff6384;stroke-linecap:square;"/>
   </g>
   <g id="line2d_2">
    <path clip-path="url(#p658ac2ae8b)" d="M 58.827273 393.102423 
L 63.438843 393.061858 
L 68.050413 393.007324 
L 72.661983 392.93452 
L 77.273554 392.838 
L 81.885124 392.710932 
L 86.496694 392.544819 
L 91.108264 392.329185 
L 95.719835 392.051241 
L 100.331405 391.695512 
L 104.942975 391.243461 
L 109.554545 390.673099 
L 114.166116 389.958615 
L 118.777686 389.070028 
L 123.389256 387.972904 
L 128.000826 386.628154 
L 132.612397 384.991946 
L 137.223967 383.015772 
L 141.835537 380.6467 
L 146.447107 377.827843 
L 151.058678 374.499093 
L 155.670248 370.598129 
L 160.281818 366.061725 
L 164.893388 360.827373 
L 169.504959 354.835213 
L 174.116529 348.030235 
L 178.728099 340.364741 
L 183.339669 331.800978 
L 187.95124 322.31389 
L 192.56281 311.893867 
L 197.17438 300.5494 
L 201.78595 288.309495 
L 206.397521 275.225725 
L 211.009091 261.373775 
L 215.620661 246.854357 
L 220.232231 231.793375 
L 224.843802 216.341238 
L 229.455372 200.671276 
L 234.066942 184.977207 
L 238.678512 169.469689 
L 243.290083 154.371996 
L 247.901653 139.914947 
L 252.513223 126.331208 
L 257.124793 113.849178 
L 261.736364 102.686668 
L 266.347934 93.044611 
L 270.959504 85.101065 
L 275.571074 79.005753 
L 280.182645 74.875367 
L 284.794215 72.789857 
L 289.405785 72.789857 
L 294.017355 74.875367 
L 298.628926 79.005753 
L 303.240496 85.101065 
L 307.852066 93.044611 
L 312.463636 102.686668 
L 317.075207 113.849178 
L 321.686777 126.331208 
L 326.298347 139.914947 
L 330.909917 154.371996 
L 335.521488 169.469689 
L 340.133058 184.977207 
L 344.744628 200.671276 
L 349.356198 216.341238 
L 353.967769 231.793375 
L 358.579339 246.854357 
L 363.190909 261.373775 
L 367.802479 275.225725 
L 372.41405 288.309495 
L 377.02562 300.5494 
L 381.63719 311.893867 
L 386.24876 322.31389 
L 390.860331 331.800978 
L 395.471901 340.364741 
L 400.083471 348.030235 
L 404.695041 354.835213 
L 409.306612 360.827373 
L 413.918182 366.061725 
L 418.529752 370.598129 
L 423.141322 374.499093 
L 427.752893 377.827843 
L 432.364463 380.6467 
L 436.976033 383.015772 
L 441.587603 384.991946 
L 446.199174 386.628154 
L 450.810744 387.972904 
L 455.422314 389.070028 
L 460.033884 389.958615 
L 464.645455 390.673099 
L 469.257025 391.243461 
L 473.868595 391.695512 
L 478.480165 392.051241 
L 483.091736 392.329185 
L 487.703306 392.544819 
L 492.314876 392.710932 
L 496.926446 392.838 
L 501.538017 392.93452 
L 506.149587 393.007324 
L 510.761157 393.061858 
L 515.372727 393.102423 
" style="fill:none;stroke:#36a2eb;stroke-linecap:square;"/>
   </g>
   <g id="patch_3">
    <path d="M 36 410.22 
L 538.2 410.22 
" style="fill:none;stroke:#000000;stroke-linecap:square;stroke-linejoin:miter;stroke-width:0.8;"/>
   </g>
   <g id="legend_1">
    <g id="patch_4">
     <path d="M 441.707188 88.29875 
L 528.4 88.29875 
Q 531.2 88.29875 531.2 85.49875 
L 531.2 45.8 
Q 531.2 43 528.4 43 
L 441.707188 43 
Q 438.907188 43 438.907188 45.8 
L 438.907188 85.49875 
Q 438.907188 88.29875 441.707188 88.29875 
z
" style="fill:#ffffff;opacity:0.8;stroke:#cccccc;stroke-linejoin:miter;"/>
    </g>
    <g id="patch_5">
     <path d="M 444.507188 59.237813 
L 472.507188 59.237813 
L 472.507188 49.437813 
L 444.507188 49.437813 
z
" style="fill:#ff6384;opacity:0.5;stroke:#ff6384;stroke-linejoin:miter;"/>
    </g>
    <g id="text_1">
     <!-- base -->
     <defs>
      <path d="M 48.6875 27.296875 
Q 48.6875 37.203125 44.609375 42.84375 
Q 40.53125 48.484375 33.40625 48.484375 
Q 26.265625 48.484375 22.1875 42.84375 
Q 18.109375 37.203125 18.109375 27.296875 
Q 18.109375 17.390625 22.1875 11.75 
Q 26.265625 6.109375 33.40625 6.109375 
Q 40.53125 6.109375 44.609375 11.75 
Q 48.6875 17.390625 48.6875 27.296875 
z
M 18.109375 46.390625 
Q 20.953125 51.265625 25.265625 53.625 
Q 29.59375 56 35.59375 56 
Q 45.5625 56 51.78125 48.09375 
Q 58.015625 40.1875 58.015625 27.296875 
Q 58.015625 14.40625 51.78125 6.484375 
Q 45.5625 -1.421875 35.59375 -1.421875 
Q 29.59375 -1.421875 25.265625 0.953125 
Q 20.953125 3.328125 18.109375 8.203125 
L 18.109375 0 
L 9.078125 0 
L 9.078125 75.984375 
L 18.109375 75.984375 
z
" id="DejaVuSans-98"/>
      <path d="M 34.28125 27.484375 
Q 23.390625 27.484375 19.1875 25 
Q 14.984375 22.515625 14.984375 16.5 
Q 14.984375 11.71875 18.140625 8.90625 
Q 21.296875 6.109375 26.703125 6.109375 
Q 34.1875 6.109375 38.703125 11.40625 
Q 43.21875 16.703125 43.21875 25.484375 
L 43.21875 27.484375 
z
M 52.203125 31.203125 
L 52.203125 0 
L 43.21875 0 
L 43.21875 8.296875 
Q 40.140625 3.328125 35.546875 0.953125 
Q 30.953125 -1.421875 24.3125 -1.421875 
Q 15.921875 -1.421875 10.953125 3.296875 
Q 6 8.015625 6 15.921875 
Q 6 25.140625 12.171875 29.828125 
Q 18.359375 34.515625 30.609375 34.515625 
L 43.21875 34.515625 
L 43.21875 35.40625 
Q 43.21875 41.609375 39.140625 45 
Q 35.0625 48.390625 27.6875 48.390625 
Q 23 48.390625 18.546875 47.265625 
Q 14.109375 46.140625 10.015625 43.890625 
L 10.015625 52.203125 
Q 14.9375 54.109375 19.578125 55.046875 
Q 24.21875 56 28.609375 56 
Q 40.484375 56 46.34375 49.84375 
Q 52.203125 43.703125 52.203125 31.203125 
z
" id="DejaVuSans-97"/>
      <path d="M 44.28125 53.078125 
L 44.28125 44.578125 
Q 40.484375 46.53125 36.375 47.5 
Q 32.28125 48.484375 27.875 48.484375 
Q 21.1875 48.484375 17.84375 46.4375 
Q 14.5 44.390625 14.5 40.28125 
Q 14.5 37.15625 16.890625 35.375 
Q 19.28125 33.59375 26.515625 31.984375 
L 29.59375 31.296875 
Q 39.15625 29.25 43.1875 25.515625 
Q 47.21875 21.78125 47.21875 15.09375 
Q 47.21875 7.46875 41.1875 3.015625 
Q 35.15625 -1.421875 24.609375 -1.421875 
Q 20.21875 -1.421875 15.453125 -0.5625 
Q 10.6875 0.296875 5.421875 2 
L 5.421875 11.28125 
Q 10.40625 8.6875 15.234375 7.390625 
Q 20.0625 6.109375 24.8125 6.109375 
Q 31.15625 6.109375 34.5625 8.28125 
Q 37.984375 10.453125 37.984375 14.40625 
Q 37.984375 18.0625 35.515625 20.015625 
Q 33.0625 21.96875 24.703125 23.78125 
L 21.578125 24.515625 
Q 13.234375 26.265625 9.515625 29.90625 
Q 5.8125 33.546875 5.8125 39.890625 
Q 5.8125 47.609375 11.28125 51.796875 
Q 16.75 56 26.8125 56 
Q 31.78125 56 36.171875 55.265625 
Q 40.578125 54.546875 44.28125 53.078125 
z
" id="DejaVuSans-115"/>
      <path d="M 56.203125 29.59375 
L 56.203125 25.203125 
L 14.890625 25.203125 
Q 15.484375 15.921875 20.484375 11.0625 
Q 25.484375 6.203125 34.421875 6.203125 
Q 39.59375 6.203125 44.453125 7.46875 
Q 49.3125 8.734375 54.109375 11.28125 
L 54.109375 2.78125 
Q 49.265625 0.734375 44.1875 -0.34375 
Q 39.109375 -1.421875 33.890625 -1.421875 
Q 20.796875 -1.421875 13.15625 6.1875 
Q 5.515625 13.8125 5.515625 26.8125 
Q 5.515625 40.234375 12.765625 48.109375 
Q 20.015625 56 32.328125 56 
Q 43.359375 56 49.78125 48.890625 
Q 56.203125 41.796875 56.203125 29.59375 
z
M 47.21875 32.234375 
Q 47.125 39.59375 43.09375 43.984375 
Q 39.0625 48.390625 32.421875 48.390625 
Q 24.90625 48.390625 20.390625 44.140625 
Q 15.875 39.890625 15.1875 32.171875 
z
" id="DejaVuSans-101"/>
     </defs>
     <g transform="translate(483.707188 59.237813)scale(0.14 -0.14)">
      <use xlink:href="#DejaVuSans-98"/>
      <use x="63.476562" xlink:href="#DejaVuSans-97"/>
      <use x="124.755859" xlink:href="#DejaVuSans-115"/>
      <use x="176.855469" xlink:href="#DejaVuSans-101"/>
     </g>
    </g>
    <g id="patch_6">
     <path d="M 444.507188 79.787188 
L 472.507188 79.787188 
L 472.507188 69.987188 
L 444.507188 69.987188 
z
" style="fill:#36a2eb;opacity:0.5;stroke:#36a2eb;stroke-linejoin:miter;"/>
    </g>
    <g id="text_2">
     <!-- osago -->
     <defs>
      <path d="M 30.609375 48.390625 
Q 23.390625 48.390625 19.1875 42.75 
Q 14.984375 37.109375 14.984375 27.296875 
Q 14.984375 17.484375 19.15625 11.84375 
Q 23.34375 6.203125 30.609375 6.203125 
Q 37.796875 6.203125 41.984375 11.859375 
Q 46.1875 17.53125 46.1875 27.296875 
Q 46.1875 37.015625 41.984375 42.703125 
Q 37.796875 48.390625 30.609375 48.390625 
z
M 30.609375 56 
Q 42.328125 56 49.015625 48.375 
Q 55.71875 40.765625 55.71875 27.296875 
Q 55.71875 13.875 49.015625 6.21875 
Q 42.328125 -1.421875 30.609375 -1.421875 
Q 18.84375 -1.421875 12.171875 6.21875 
Q 5.515625 13.875 5.515625 27.296875 
Q 5.515625 40.765625 12.171875 48.375 
Q 18.84375 56 30.609375 56 
z
" id="DejaVuSans-111"/>
      <path d="M 45.40625 27.984375 
Q 45.40625 37.75 41.375 43.109375 
Q 37.359375 48.484375 30.078125 48.484375 
Q 22.859375 48.484375 18.828125 43.109375 
Q 14.796875 37.75 14.796875 27.984375 
Q 14.796875 18.265625 18.828125 12.890625 
Q 22.859375 7.515625 30.078125 7.515625 
Q 37.359375 7.515625 41.375 12.890625 
Q 45.40625 18.265625 45.40625 27.984375 
z
M 54.390625 6.78125 
Q 54.390625 -7.171875 48.1875 -13.984375 
Q 42 -20.796875 29.203125 -20.796875 
Q 24.46875 -20.796875 20.265625 -20.09375 
Q 16.0625 -19.390625 12.109375 -17.921875 
L 12.109375 -9.1875 
Q 16.0625 -11.328125 19.921875 -12.34375 
Q 23.78125 -13.375 27.78125 -13.375 
Q 36.625 -13.375 41.015625 -8.765625 
Q 45.40625 -4.15625 45.40625 5.171875 
L 45.40625 9.625 
Q 42.625 4.78125 38.28125 2.390625 
Q 33.9375 0 27.875 0 
Q 17.828125 0 11.671875 7.65625 
Q 5.515625 15.328125 5.515625 27.984375 
Q 5.515625 40.671875 11.671875 48.328125 
Q 17.828125 56 27.875 56 
Q 33.9375 56 38.28125 53.609375 
Q 42.625 51.21875 45.40625 46.390625 
L 45.40625 54.6875 
L 54.390625 54.6875 
z
" id="DejaVuSans-103"/>
     </defs>
     <g transform="translate(483.707188 79.787188)scale(0.14 -0.14)">
      <use xlink:href="#DejaVuSans-111"/>
      <use x="61.181641" xlink:href="#DejaVuSans-115"/>
      <use x="113.28125" xlink:href="#DejaVuSans-97"/>
      <use x="174.560547" xlink:href="#DejaVuSans-103"/>
      <use x="238.037109" xlink:href="#DejaVuSans-111"/>
     </g>
    </g>
   </g>
  </g>
  <g id="axes_2">
   <g id="patch_7">
    <path d="M 36 534.96 
L 538.2 534.96 
L 538.2 410.22 
L 36 410.22 
z
" style="fill:none;"/>
   </g>
   <g id="patch_8">
    <path clip-path="url(#ped42ee7c51)" d="M 178.125908 529.29 
L 388.826426 529.29 
L 388.826426 491.49 
L 178.125908 491.49 
z
" style="fill:#ff6384;opacity:0.5;"/>
   </g>
   <g id="patch_9">
    <path clip-path="url(#ped42ee7c51)" d="M 175.246364 453.69 
L 398.953636 453.69 
L 398.953636 415.89 
L 175.246364 415.89 
z
" style="fill:#36a2eb;opacity:0.5;"/>
   </g>
   <g id="matplotlib.axis_1">
    <g id="xtick_1">
     <g id="line2d_3">
      <defs>
       <path d="M 0 0 
L 0 3.5 
" id="m5a63f81675" style="stroke:#000000;stroke-width:0.8;"/>
      </defs>
      <g>
       <use style="stroke:#000000;stroke-width:0.8;" x="75.97548" xlink:href="#m5a63f81675" y="534.96"/>
      </g>
     </g>
     <g id="text_3">
      <!-- 2.3 -->
      <defs>
       <path d="M 19.1875 8.296875 
L 53.609375 8.296875 
L 53.609375 0 
L 7.328125 0 
L 7.328125 8.296875 
Q 12.9375 14.109375 22.625 23.890625 
Q 32.328125 33.6875 34.8125 36.53125 
Q 39.546875 41.84375 41.421875 45.53125 
Q 43.3125 49.21875 43.3125 52.78125 
Q 43.3125 58.59375 39.234375 62.25 
Q 35.15625 65.921875 28.609375 65.921875 
Q 23.96875 65.921875 18.8125 64.3125 
Q 13.671875 62.703125 7.8125 59.421875 
L 7.8125 69.390625 
Q 13.765625 71.78125 18.9375 73 
Q 24.125 74.21875 28.421875 74.21875 
Q 39.75 74.21875 46.484375 68.546875 
Q 53.21875 62.890625 53.21875 53.421875 
Q 53.21875 48.921875 51.53125 44.890625 
Q 49.859375 40.875 45.40625 35.40625 
Q 44.1875 33.984375 37.640625 27.21875 
Q 31.109375 20.453125 19.1875 8.296875 
z
" id="DejaVuSans-50"/>
       <path d="M 10.6875 12.40625 
L 21 12.40625 
L 21 0 
L 10.6875 0 
z
" id="DejaVuSans-46"/>
       <path d="M 40.578125 39.3125 
Q 47.65625 37.796875 51.625 33 
Q 55.609375 28.21875 55.609375 21.1875 
Q 55.609375 10.40625 48.1875 4.484375 
Q 40.765625 -1.421875 27.09375 -1.421875 
Q 22.515625 -1.421875 17.65625 -0.515625 
Q 12.796875 0.390625 7.625 2.203125 
L 7.625 11.71875 
Q 11.71875 9.328125 16.59375 8.109375 
Q 21.484375 6.890625 26.8125 6.890625 
Q 36.078125 6.890625 40.9375 10.546875 
Q 45.796875 14.203125 45.796875 21.1875 
Q 45.796875 27.640625 41.28125 31.265625 
Q 36.765625 34.90625 28.71875 34.90625 
L 20.21875 34.90625 
L 20.21875 43.015625 
L 29.109375 43.015625 
Q 36.375 43.015625 40.234375 45.921875 
Q 44.09375 48.828125 44.09375 54.296875 
Q 44.09375 59.90625 40.109375 62.90625 
Q 36.140625 65.921875 28.71875 65.921875 
Q 24.65625 65.921875 20.015625 65.03125 
Q 15.375 64.15625 9.8125 62.3125 
L 9.8125 71.09375 
Q 15.4375 72.65625 20.34375 73.4375 
Q 25.25 74.21875 29.59375 74.21875 
Q 40.828125 74.21875 47.359375 69.109375 
Q 53.90625 64.015625 53.90625 55.328125 
Q 53.90625 49.265625 50.4375 45.09375 
Q 46.96875 40.921875 40.578125 39.3125 
z
" id="DejaVuSans-51"/>
      </defs>
      <g transform="translate(64.843292 552.597813)scale(0.14 -0.14)">
       <use xlink:href="#DejaVuSans-50"/>
       <use x="63.623047" xlink:href="#DejaVuSans-46"/>
       <use x="95.410156" xlink:href="#DejaVuSans-51"/>
      </g>
     </g>
    </g>
    <g id="xtick_2">
     <g id="line2d_4">
      <g>
       <use style="stroke:#000000;stroke-width:0.8;" x="148.452143" xlink:href="#m5a63f81675" y="534.96"/>
      </g>
     </g>
     <g id="text_4">
      <!-- 2.4 -->
      <defs>
       <path d="M 37.796875 64.3125 
L 12.890625 25.390625 
L 37.796875 25.390625 
z
M 35.203125 72.90625 
L 47.609375 72.90625 
L 47.609375 25.390625 
L 58.015625 25.390625 
L 58.015625 17.1875 
L 47.609375 17.1875 
L 47.609375 0 
L 37.796875 0 
L 37.796875 17.1875 
L 4.890625 17.1875 
L 4.890625 26.703125 
z
" id="DejaVuSans-52"/>
      </defs>
      <g transform="translate(137.319955 552.597813)scale(0.14 -0.14)">
       <use xlink:href="#DejaVuSans-50"/>
       <use x="63.623047" xlink:href="#DejaVuSans-46"/>
       <use x="95.410156" xlink:href="#DejaVuSans-52"/>
      </g>
     </g>
    </g>
    <g id="xtick_3">
     <g id="line2d_5">
      <g>
       <use style="stroke:#000000;stroke-width:0.8;" x="220.928806" xlink:href="#m5a63f81675" y="534.96"/>
      </g>
     </g>
     <g id="text_5">
      <!-- 2.5 -->
      <defs>
       <path d="M 10.796875 72.90625 
L 49.515625 72.90625 
L 49.515625 64.59375 
L 19.828125 64.59375 
L 19.828125 46.734375 
Q 21.96875 47.46875 24.109375 47.828125 
Q 26.265625 48.1875 28.421875 48.1875 
Q 40.625 48.1875 47.75 41.5 
Q 54.890625 34.8125 54.890625 23.390625 
Q 54.890625 11.625 47.5625 5.09375 
Q 40.234375 -1.421875 26.90625 -1.421875 
Q 22.3125 -1.421875 17.546875 -0.640625 
Q 12.796875 0.140625 7.71875 1.703125 
L 7.71875 11.625 
Q 12.109375 9.234375 16.796875 8.0625 
Q 21.484375 6.890625 26.703125 6.890625 
Q 35.15625 6.890625 40.078125 11.328125 
Q 45.015625 15.765625 45.015625 23.390625 
Q 45.015625 31 40.078125 35.4375 
Q 35.15625 39.890625 26.703125 39.890625 
Q 22.75 39.890625 18.8125 39.015625 
Q 14.890625 38.140625 10.796875 36.28125 
z
" id="DejaVuSans-53"/>
      </defs>
      <g transform="translate(209.796619 552.597813)scale(0.14 -0.14)">
       <use xlink:href="#DejaVuSans-50"/>
       <use x="63.623047" xlink:href="#DejaVuSans-46"/>
       <use x="95.410156" xlink:href="#DejaVuSans-53"/>
      </g>
     </g>
    </g>
    <g id="xtick_4">
     <g id="line2d_6">
      <g>
       <use style="stroke:#000000;stroke-width:0.8;" x="293.40547" xlink:href="#m5a63f81675" y="534.96"/>
      </g>
     </g>
     <g id="text_6">
      <!-- 2.6 -->
      <defs>
       <path d="M 33.015625 40.375 
Q 26.375 40.375 22.484375 35.828125 
Q 18.609375 31.296875 18.609375 23.390625 
Q 18.609375 15.53125 22.484375 10.953125 
Q 26.375 6.390625 33.015625 6.390625 
Q 39.65625 6.390625 43.53125 10.953125 
Q 47.40625 15.53125 47.40625 23.390625 
Q 47.40625 31.296875 43.53125 35.828125 
Q 39.65625 40.375 33.015625 40.375 
z
M 52.59375 71.296875 
L 52.59375 62.3125 
Q 48.875 64.0625 45.09375 64.984375 
Q 41.3125 65.921875 37.59375 65.921875 
Q 27.828125 65.921875 22.671875 59.328125 
Q 17.53125 52.734375 16.796875 39.40625 
Q 19.671875 43.65625 24.015625 45.921875 
Q 28.375 48.1875 33.59375 48.1875 
Q 44.578125 48.1875 50.953125 41.515625 
Q 57.328125 34.859375 57.328125 23.390625 
Q 57.328125 12.15625 50.6875 5.359375 
Q 44.046875 -1.421875 33.015625 -1.421875 
Q 20.359375 -1.421875 13.671875 8.265625 
Q 6.984375 17.96875 6.984375 36.375 
Q 6.984375 53.65625 15.1875 63.9375 
Q 23.390625 74.21875 37.203125 74.21875 
Q 40.921875 74.21875 44.703125 73.484375 
Q 48.484375 72.75 52.59375 71.296875 
z
" id="DejaVuSans-54"/>
      </defs>
      <g transform="translate(282.273282 552.597813)scale(0.14 -0.14)">
       <use xlink:href="#DejaVuSans-50"/>
       <use x="63.623047" xlink:href="#DejaVuSans-46"/>
       <use x="95.410156" xlink:href="#DejaVuSans-54"/>
      </g>
     </g>
    </g>
    <g id="xtick_5">
     <g id="line2d_7">
      <g>
       <use style="stroke:#000000;stroke-width:0.8;" x="365.882133" xlink:href="#m5a63f81675" y="534.96"/>
      </g>
     </g>
     <g id="text_7">
      <!-- 2.7 -->
      <defs>
       <path d="M 8.203125 72.90625 
L 55.078125 72.90625 
L 55.078125 68.703125 
L 28.609375 0 
L 18.3125 0 
L 43.21875 64.59375 
L 8.203125 64.59375 
z
" id="DejaVuSans-55"/>
      </defs>
      <g transform="translate(354.749946 552.597813)scale(0.14 -0.14)">
       <use xlink:href="#DejaVuSans-50"/>
       <use x="63.623047" xlink:href="#DejaVuSans-46"/>
       <use x="95.410156" xlink:href="#DejaVuSans-55"/>
      </g>
     </g>
    </g>
    <g id="xtick_6">
     <g id="line2d_8">
      <g>
       <use style="stroke:#000000;stroke-width:0.8;" x="438.358796" xlink:href="#m5a63f81675" y="534.96"/>
      </g>
     </g>
     <g id="text_8">
      <!-- 2.8 -->
      <defs>
       <path d="M 31.78125 34.625 
Q 24.75 34.625 20.71875 30.859375 
Q 16.703125 27.09375 16.703125 20.515625 
Q 16.703125 13.921875 20.71875 10.15625 
Q 24.75 6.390625 31.78125 6.390625 
Q 38.8125 6.390625 42.859375 10.171875 
Q 46.921875 13.96875 46.921875 20.515625 
Q 46.921875 27.09375 42.890625 30.859375 
Q 38.875 34.625 31.78125 34.625 
z
M 21.921875 38.8125 
Q 15.578125 40.375 12.03125 44.71875 
Q 8.5 49.078125 8.5 55.328125 
Q 8.5 64.0625 14.71875 69.140625 
Q 20.953125 74.21875 31.78125 74.21875 
Q 42.671875 74.21875 48.875 69.140625 
Q 55.078125 64.0625 55.078125 55.328125 
Q 55.078125 49.078125 51.53125 44.71875 
Q 48 40.375 41.703125 38.8125 
Q 48.828125 37.15625 52.796875 32.3125 
Q 56.78125 27.484375 56.78125 20.515625 
Q 56.78125 9.90625 50.3125 4.234375 
Q 43.84375 -1.421875 31.78125 -1.421875 
Q 19.734375 -1.421875 13.25 4.234375 
Q 6.78125 9.90625 6.78125 20.515625 
Q 6.78125 27.484375 10.78125 32.3125 
Q 14.796875 37.15625 21.921875 38.8125 
z
M 18.3125 54.390625 
Q 18.3125 48.734375 21.84375 45.5625 
Q 25.390625 42.390625 31.78125 42.390625 
Q 38.140625 42.390625 41.71875 45.5625 
Q 45.3125 48.734375 45.3125 54.390625 
Q 45.3125 60.0625 41.71875 63.234375 
Q 38.140625 66.40625 31.78125 66.40625 
Q 25.390625 66.40625 21.84375 63.234375 
Q 18.3125 60.0625 18.3125 54.390625 
z
" id="DejaVuSans-56"/>
      </defs>
      <g transform="translate(427.226609 552.597813)scale(0.14 -0.14)">
       <use xlink:href="#DejaVuSans-50"/>
       <use x="63.623047" xlink:href="#DejaVuSans-46"/>
       <use x="95.410156" xlink:href="#DejaVuSans-56"/>
      </g>
     </g>
    </g>
    <g id="xtick_7">
     <g id="line2d_9">
      <g>
       <use style="stroke:#000000;stroke-width:0.8;" x="510.83546" xlink:href="#m5a63f81675" y="534.96"/>
      </g>
     </g>
     <g id="text_9">
      <!-- 2.9 -->
      <defs>
       <path d="M 10.984375 1.515625 
L 10.984375 10.5 
Q 14.703125 8.734375 18.5 7.8125 
Q 22.3125 6.890625 25.984375 6.890625 
Q 35.75 6.890625 40.890625 13.453125 
Q 46.046875 20.015625 46.78125 33.40625 
Q 43.953125 29.203125 39.59375 26.953125 
Q 35.25 24.703125 29.984375 24.703125 
Q 19.046875 24.703125 12.671875 31.3125 
Q 6.296875 37.9375 6.296875 49.421875 
Q 6.296875 60.640625 12.9375 67.421875 
Q 19.578125 74.21875 30.609375 74.21875 
Q 43.265625 74.21875 49.921875 64.515625 
Q 56.59375 54.828125 56.59375 36.375 
Q 56.59375 19.140625 48.40625 8.859375 
Q 40.234375 -1.421875 26.421875 -1.421875 
Q 22.703125 -1.421875 18.890625 -0.6875 
Q 15.09375 0.046875 10.984375 1.515625 
z
M 30.609375 32.421875 
Q 37.25 32.421875 41.125 36.953125 
Q 45.015625 41.5 45.015625 49.421875 
Q 45.015625 57.28125 41.125 61.84375 
Q 37.25 66.40625 30.609375 66.40625 
Q 23.96875 66.40625 20.09375 61.84375 
Q 16.21875 57.28125 16.21875 49.421875 
Q 16.21875 41.5 20.09375 36.953125 
Q 23.96875 32.421875 30.609375 32.421875 
z
" id="DejaVuSans-57"/>
      </defs>
      <g transform="translate(499.703272 552.597813)scale(0.14 -0.14)">
       <use xlink:href="#DejaVuSans-50"/>
       <use x="63.623047" xlink:href="#DejaVuSans-46"/>
       <use x="95.410156" xlink:href="#DejaVuSans-57"/>
      </g>
     </g>
    </g>
   </g>
   <g id="line2d_10">
    <path clip-path="url(#ped42ee7c51)" d="M 283.476167 534.96 
L 283.476167 410.22 
" style="fill:none;stroke:#ff6384;stroke-dasharray:5.55,2.4;stroke-dashoffset:0;stroke-opacity:0.8;stroke-width:1.5;"/>
   </g>
   <g id="line2d_11">
    <path clip-path="url(#ped42ee7c51)" d="M 287.1 534.96 
L 287.1 410.22 
" style="fill:none;stroke:#36a2eb;stroke-dasharray:5.55,2.4;stroke-dashoffset:0;stroke-opacity:0.8;stroke-width:1.5;"/>
   </g>
   <g id="patch_10">
    <path d="M 36 534.96 
L 538.2 534.96 
" style="fill:none;stroke:#000000;stroke-linecap:square;stroke-linejoin:miter;stroke-width:0.8;"/>
   </g>
  </g>
 </g>
 <defs>
  <clipPath id="p658ac2ae8b">
   <rect height="374.22" width="502.2" x="36" y="36"/>
  </clipPath>
  <clipPath id="ped42ee7c51">
   <rect height="124.74" width="502.2" x="36" y="410.22"/>
  </clipPath>
 </defs>
</svg>
