<?xml version="1.0" encoding="utf-8" standalone="no"?>
<!DOCTYPE svg PUBLIC "-//W3C//DTD SVG 1.1//EN"
  "http://www.w3.org/Graphics/SVG/1.1/DTD/svg11.dtd">
<!-- Created with matplotlib (https://matplotlib.org/) -->
<svg height="581.789375pt" version="1.1" viewBox="0 0 589.070125 581.789375" width="589.070125pt" xmlns="http://www.w3.org/2000/svg" xmlns:xlink="http://www.w3.org/1999/xlink">
 <defs>
  <style type="text/css">
*{stroke-linecap:butt;stroke-linejoin:round;}
  </style>
 </defs>
 <g id="figure_1">
  <g id="patch_1">
   <path d="M 0 581.789375 
L 589.070125 581.789375 
L 589.070125 0 
L 0 0 
z
" style="fill:none;"/>
  </g>
  <g id="axes_1">
   <g id="patch_2">
    <path d="M 50.870125 402.93 
L 553.070125 402.93 
L 553.070125 36 
L 50.870125 36 
z
" style="fill:none;"/>
   </g>
   <g id="PolyCollection_1">
    <defs>
     <path d="M 90.223187 -195.538011 
L 90.223187 -195.648816 
L 94.66783 -195.690598 
L 99.112473 -195.746769 
L 103.557116 -195.821757 
L 108.001759 -195.921173 
L 112.446403 -196.052053 
L 116.891046 -196.223151 
L 121.335689 -196.445254 
L 125.780332 -196.731538 
L 130.224975 -197.097941 
L 134.669618 -197.563555 
L 139.114261 -198.15103 
L 143.558904 -198.886952 
L 148.003547 -199.802201 
L 152.44819 -200.932243 
L 156.892833 -202.317341 
L 161.337476 -204.002643 
L 165.78212 -206.03811 
L 170.226763 -208.478266 
L 174.671406 -211.3817 
L 179.116049 -214.810327 
L 183.560692 -218.828337 
L 188.005335 -223.500853 
L 192.449978 -228.892258 
L 196.894621 -235.064209 
L 201.339264 -242.073366 
L 205.783907 -249.968858 
L 210.22855 -258.789571 
L 214.673194 -268.561314 
L 219.117837 -279.293983 
L 223.56248 -290.978833 
L 228.007123 -303.585988 
L 232.451766 -317.062329 
L 236.896409 -331.329898 
L 241.341052 -346.284961 
L 245.785695 -361.797839 
L 250.230338 -377.713607 
L 254.674981 -393.853736 
L 259.119624 -410.018695 
L 263.564268 -425.991506 
L 268.008911 -441.542195 
L 272.453554 -456.433019 
L 276.898197 -470.42433 
L 281.34284 -483.280875 
L 285.787483 -494.778309 
L 290.232126 -504.70967 
L 294.676769 -512.891556 
L 299.121412 -519.169754 
L 303.566055 -523.42407 
L 308.010698 -525.572154 
L 312.455341 -525.572154 
L 316.899985 -523.42407 
L 321.344628 -519.169754 
L 325.789271 -512.891556 
L 330.233914 -504.70967 
L 334.678557 -494.778309 
L 339.1232 -483.280875 
L 343.567843 -470.42433 
L 348.012486 -456.433019 
L 352.457129 -441.542195 
L 356.901772 -425.991506 
L 361.346415 -410.018695 
L 365.791059 -393.853736 
L 370.235702 -377.713607 
L 374.680345 -361.797839 
L 379.124988 -346.284961 
L 383.569631 -331.329898 
L 388.014274 -317.062329 
L 392.458917 -303.585988 
L 396.90356 -290.978833 
L 401.348203 -279.293983 
L 405.792846 -268.561314 
L 410.237489 -258.789571 
L 414.682132 -249.968858 
L 419.126776 -242.073366 
L 423.571419 -235.064209 
L 428.016062 -228.892258 
L 432.460705 -223.500853 
L 436.905348 -218.828337 
L 441.349991 -214.810327 
L 445.794634 -211.3817 
L 450.239277 -208.478266 
L 454.68392 -206.03811 
L 459.128563 -204.002643 
L 463.573206 -202.317341 
L 468.01785 -200.932243 
L 472.462493 -199.802201 
L 476.907136 -198.886952 
L 481.351779 -198.15103 
L 485.796422 -197.563555 
L 490.241065 -197.097941 
L 494.685708 -196.731538 
L 499.130351 -196.445254 
L 503.574994 -196.223151 
L 508.019637 -196.052053 
L 512.46428 -195.921173 
L 516.908924 -195.821757 
L 521.353567 -195.746769 
L 525.79821 -195.690598 
L 530.242853 -195.648816 
L 530.242853 -195.538011 
L 530.242853 -195.538011 
L 525.79821 -195.538011 
L 521.353567 -195.538011 
L 516.908924 -195.538011 
L 512.46428 -195.538011 
L 508.019637 -195.538011 
L 503.574994 -195.538011 
L 499.130351 -195.538011 
L 494.685708 -195.538011 
L 490.241065 -195.538011 
L 485.796422 -195.538011 
L 481.351779 -195.538011 
L 476.907136 -195.538011 
L 472.462493 -195.538011 
L 468.01785 -195.538011 
L 463.573206 -195.538011 
L 459.128563 -195.538011 
L 454.68392 -195.538011 
L 450.239277 -195.538011 
L 445.794634 -195.538011 
L 441.349991 -195.538011 
L 436.905348 -195.538011 
L 432.460705 -195.538011 
L 428.016062 -195.538011 
L 423.571419 -195.538011 
L 419.126776 -195.538011 
L 414.682132 -195.538011 
L 410.237489 -195.538011 
L 405.792846 -195.538011 
L 401.348203 -195.538011 
L 396.90356 -195.538011 
L 392.458917 -195.538011 
L 388.014274 -195.538011 
L 383.569631 -195.538011 
L 379.124988 -195.538011 
L 374.680345 -195.538011 
L 370.235702 -195.538011 
L 365.791059 -195.538011 
L 361.346415 -195.538011 
L 356.901772 -195.538011 
L 352.457129 -195.538011 
L 348.012486 -195.538011 
L 343.567843 -195.538011 
L 339.1232 -195.538011 
L 334.678557 -195.538011 
L 330.233914 -195.538011 
L 325.789271 -195.538011 
L 321.344628 -195.538011 
L 316.899985 -195.538011 
L 312.455341 -195.538011 
L 308.010698 -195.538011 
L 303.566055 -195.538011 
L 299.121412 -195.538011 
L 294.676769 -195.538011 
L 290.232126 -195.538011 
L 285.787483 -195.538011 
L 281.34284 -195.538011 
L 276.898197 -195.538011 
L 272.453554 -195.538011 
L 268.008911 -195.538011 
L 263.564268 -195.538011 
L 259.119624 -195.538011 
L 254.674981 -195.538011 
L 250.230338 -195.538011 
L 245.785695 -195.538011 
L 241.341052 -195.538011 
L 236.896409 -195.538011 
L 232.451766 -195.538011 
L 228.007123 -195.538011 
L 223.56248 -195.538011 
L 219.117837 -195.538011 
L 214.673194 -195.538011 
L 210.22855 -195.538011 
L 205.783907 -195.538011 
L 201.339264 -195.538011 
L 196.894621 -195.538011 
L 192.449978 -195.538011 
L 188.005335 -195.538011 
L 183.560692 -195.538011 
L 179.116049 -195.538011 
L 174.671406 -195.538011 
L 170.226763 -195.538011 
L 165.78212 -195.538011 
L 161.337476 -195.538011 
L 156.892833 -195.538011 
L 152.44819 -195.538011 
L 148.003547 -195.538011 
L 143.558904 -195.538011 
L 139.114261 -195.538011 
L 134.669618 -195.538011 
L 130.224975 -195.538011 
L 125.780332 -195.538011 
L 121.335689 -195.538011 
L 116.891046 -195.538011 
L 112.446403 -195.538011 
L 108.001759 -195.538011 
L 103.557116 -195.538011 
L 99.112473 -195.538011 
L 94.66783 -195.538011 
L 90.223187 -195.538011 
z
" id="m7a36846b2b" style="stroke:#ff6384;stroke-opacity:0.5;"/>
    </defs>
    <g clip-path="url(#p3de9ed3ac5)">
     <use style="fill:#ff6384;fill-opacity:0.5;stroke:#ff6384;stroke-opacity:0.5;" x="0" xlink:href="#m7a36846b2b" y="581.789375"/>
    </g>
   </g>
   <g id="PolyCollection_2">
    <defs>
     <path d="M 73.697398 -195.538011 
L 73.697398 -195.650004 
L 78.094892 -195.692234 
L 82.492386 -195.749007 
L 86.889879 -195.8248 
L 91.287373 -195.925281 
L 95.684867 -196.057565 
L 100.08236 -196.230497 
L 104.479854 -196.454982 
L 108.877348 -196.744335 
L 113.274842 -197.114666 
L 117.672335 -197.585273 
L 122.069829 -198.179047 
L 126.467323 -198.922859 
L 130.864816 -199.847921 
L 135.26231 -200.990079 
L 139.659804 -202.390029 
L 144.057298 -204.093399 
L 148.454791 -206.150691 
L 152.852285 -208.617009 
L 157.249779 -211.551575 
L 161.647272 -215.016962 
L 166.044766 -219.078053 
L 170.44226 -223.800667 
L 174.839754 -229.249878 
L 179.237247 -235.488004 
L 183.634741 -242.572312 
L 188.032235 -250.552459 
L 192.429728 -259.467747 
L 196.827222 -269.344261 
L 201.224716 -280.192004 
L 205.62221 -292.002137 
L 210.019703 -304.744465 
L 214.417197 -318.365297 
L 218.814691 -332.785841 
L 223.212184 -347.901251 
L 227.609678 -363.580456 
L 232.007172 -379.666871 
L 236.404665 -395.980052 
L 240.802159 -412.31833 
L 245.199653 -428.4624 
L 249.597147 -444.179822 
L 253.99464 -459.230303 
L 258.392134 -473.371627 
L 262.789628 -486.366018 
L 267.187121 -497.986726 
L 271.584615 -508.02457 
L 275.982109 -516.294181 
L 280.379603 -522.639693 
L 284.777096 -526.939623 
L 289.17459 -529.110739 
L 293.572084 -529.110739 
L 297.969577 -526.939623 
L 302.367071 -522.639693 
L 306.764565 -516.294181 
L 311.162059 -508.02457 
L 315.559552 -497.986726 
L 319.957046 -486.366018 
L 324.35454 -473.371627 
L 328.752033 -459.230303 
L 333.149527 -444.179822 
L 337.547021 -428.4624 
L 341.944514 -412.31833 
L 346.342008 -395.980052 
L 350.739502 -379.666871 
L 355.136996 -363.580456 
L 359.534489 -347.901251 
L 363.931983 -332.785841 
L 368.329477 -318.365297 
L 372.72697 -304.744465 
L 377.124464 -292.002137 
L 381.521958 -280.192004 
L 385.919452 -269.344261 
L 390.316945 -259.467747 
L 394.714439 -250.552459 
L 399.111933 -242.572312 
L 403.509426 -235.488004 
L 407.90692 -229.249878 
L 412.304414 -223.800667 
L 416.701908 -219.078053 
L 421.099401 -215.016962 
L 425.496895 -211.551575 
L 429.894389 -208.617009 
L 434.291882 -206.150691 
L 438.689376 -204.093399 
L 443.08687 -202.390029 
L 447.484364 -200.990079 
L 451.881857 -199.847921 
L 456.279351 -198.922859 
L 460.676845 -198.179047 
L 465.074338 -197.585273 
L 469.471832 -197.114666 
L 473.869326 -196.744335 
L 478.266819 -196.454982 
L 482.664313 -196.230497 
L 487.061807 -196.057565 
L 491.459301 -195.925281 
L 495.856794 -195.8248 
L 500.254288 -195.749007 
L 504.651782 -195.692234 
L 509.049275 -195.650004 
L 509.049275 -195.538011 
L 509.049275 -195.538011 
L 504.651782 -195.538011 
L 500.254288 -195.538011 
L 495.856794 -195.538011 
L 491.459301 -195.538011 
L 487.061807 -195.538011 
L 482.664313 -195.538011 
L 478.266819 -195.538011 
L 473.869326 -195.538011 
L 469.471832 -195.538011 
L 465.074338 -195.538011 
L 460.676845 -195.538011 
L 456.279351 -195.538011 
L 451.881857 -195.538011 
L 447.484364 -195.538011 
L 443.08687 -195.538011 
L 438.689376 -195.538011 
L 434.291882 -195.538011 
L 429.894389 -195.538011 
L 425.496895 -195.538011 
L 421.099401 -195.538011 
L 416.701908 -195.538011 
L 412.304414 -195.538011 
L 407.90692 -195.538011 
L 403.509426 -195.538011 
L 399.111933 -195.538011 
L 394.714439 -195.538011 
L 390.316945 -195.538011 
L 385.919452 -195.538011 
L 381.521958 -195.538011 
L 377.124464 -195.538011 
L 372.72697 -195.538011 
L 368.329477 -195.538011 
L 363.931983 -195.538011 
L 359.534489 -195.538011 
L 355.136996 -195.538011 
L 350.739502 -195.538011 
L 346.342008 -195.538011 
L 341.944514 -195.538011 
L 337.547021 -195.538011 
L 333.149527 -195.538011 
L 328.752033 -195.538011 
L 324.35454 -195.538011 
L 319.957046 -195.538011 
L 315.559552 -195.538011 
L 311.162059 -195.538011 
L 306.764565 -195.538011 
L 302.367071 -195.538011 
L 297.969577 -195.538011 
L 293.572084 -195.538011 
L 289.17459 -195.538011 
L 284.777096 -195.538011 
L 280.379603 -195.538011 
L 275.982109 -195.538011 
L 271.584615 -195.538011 
L 267.187121 -195.538011 
L 262.789628 -195.538011 
L 258.392134 -195.538011 
L 253.99464 -195.538011 
L 249.597147 -195.538011 
L 245.199653 -195.538011 
L 240.802159 -195.538011 
L 236.404665 -195.538011 
L 232.007172 -195.538011 
L 227.609678 -195.538011 
L 223.212184 -195.538011 
L 218.814691 -195.538011 
L 214.417197 -195.538011 
L 210.019703 -195.538011 
L 205.62221 -195.538011 
L 201.224716 -195.538011 
L 196.827222 -195.538011 
L 192.429728 -195.538011 
L 188.032235 -195.538011 
L 183.634741 -195.538011 
L 179.237247 -195.538011 
L 174.839754 -195.538011 
L 170.44226 -195.538011 
L 166.044766 -195.538011 
L 161.647272 -195.538011 
L 157.249779 -195.538011 
L 152.852285 -195.538011 
L 148.454791 -195.538011 
L 144.057298 -195.538011 
L 139.659804 -195.538011 
L 135.26231 -195.538011 
L 130.864816 -195.538011 
L 126.467323 -195.538011 
L 122.069829 -195.538011 
L 117.672335 -195.538011 
L 113.274842 -195.538011 
L 108.877348 -195.538011 
L 104.479854 -195.538011 
L 100.08236 -195.538011 
L 95.684867 -195.538011 
L 91.287373 -195.538011 
L 86.889879 -195.538011 
L 82.492386 -195.538011 
L 78.094892 -195.538011 
L 73.697398 -195.538011 
z
" id="me0d56cb910" style="stroke:#36a2eb;stroke-opacity:0.5;"/>
    </defs>
    <g clip-path="url(#p3de9ed3ac5)">
     <use style="fill:#36a2eb;fill-opacity:0.5;stroke:#36a2eb;stroke-opacity:0.5;" x="0" xlink:href="#me0d56cb910" y="581.789375"/>
    </g>
   </g>
   <g id="line2d_1">
    <path clip-path="url(#p3de9ed3ac5)" d="M 90.223187 386.140559 
L 94.66783 386.098777 
L 99.112473 386.042606 
L 103.557116 385.967618 
L 108.001759 385.868202 
L 112.446403 385.737322 
L 116.891046 385.566224 
L 121.335689 385.344121 
L 125.780332 385.057837 
L 130.224975 384.691434 
L 134.669618 384.22582 
L 139.114261 383.638345 
L 143.558904 382.902423 
L 148.003547 381.987174 
L 152.44819 380.857132 
L 156.892833 379.472034 
L 161.337476 377.786732 
L 165.78212 375.751265 
L 170.226763 373.311109 
L 174.671406 370.407675 
L 179.116049 366.979048 
L 183.560692 362.961038 
L 188.005335 358.288522 
L 192.449978 352.897117 
L 196.894621 346.725166 
L 201.339264 339.716009 
L 205.783907 331.820517 
L 210.22855 322.999804 
L 214.673194 313.228061 
L 219.117837 302.495392 
L 223.56248 290.810542 
L 228.007123 278.203387 
L 232.451766 264.727046 
L 236.896409 250.459477 
L 241.341052 235.504414 
L 245.785695 219.991536 
L 250.230338 204.075768 
L 254.674981 187.935639 
L 259.119624 171.77068 
L 263.564268 155.797869 
L 268.008911 140.24718 
L 272.453554 125.356356 
L 276.898197 111.365045 
L 281.34284 98.5085 
L 285.787483 87.011066 
L 290.232126 77.079705 
L 294.676769 68.897819 
L 299.121412 62.619621 
L 303.566055 58.365305 
L 308.010698 56.217221 
L 312.455341 56.217221 
L 316.899985 58.365305 
L 321.344628 62.619621 
L 325.789271 68.897819 
L 330.233914 77.079705 
L 334.678557 87.011066 
L 339.1232 98.5085 
L 343.567843 111.365045 
L 348.012486 125.356356 
L 352.457129 140.24718 
L 356.901772 155.797869 
L 361.346415 171.77068 
L 365.791059 187.935639 
L 370.235702 204.075768 
L 374.680345 219.991536 
L 379.124988 235.504414 
L 383.569631 250.459477 
L 388.014274 264.727046 
L 392.458917 278.203387 
L 396.90356 290.810542 
L 401.348203 302.495392 
L 405.792846 313.228061 
L 410.237489 322.999804 
L 414.682132 331.820517 
L 419.126776 339.716009 
L 423.571419 346.725166 
L 428.016062 352.897117 
L 432.460705 358.288522 
L 436.905348 362.961038 
L 441.349991 366.979048 
L 445.794634 370.407675 
L 450.239277 373.311109 
L 454.68392 375.751265 
L 459.128563 377.786732 
L 463.573206 379.472034 
L 468.01785 380.857132 
L 472.462493 381.987174 
L 476.907136 382.902423 
L 481.351779 383.638345 
L 485.796422 384.22582 
L 490.241065 384.691434 
L 494.685708 385.057837 
L 499.130351 385.344121 
L 503.574994 385.566224 
L 508.019637 385.737322 
L 512.46428 385.868202 
L 516.908924 385.967618 
L 521.353567 386.042606 
L 525.79821 386.098777 
L 530.242853 386.140559 
" style="fill:none;stroke:#ff6384;stroke-linecap:square;"/>
   </g>
   <g id="line2d_2">
    <path clip-path="url(#p3de9ed3ac5)" d="M 73.697398 386.139371 
L 78.094892 386.097141 
L 82.492386 386.040368 
L 86.889879 385.964575 
L 91.287373 385.864094 
L 95.684867 385.73181 
L 100.08236 385.558878 
L 104.479854 385.334393 
L 108.877348 385.04504 
L 113.274842 384.674709 
L 117.672335 384.204102 
L 122.069829 383.610328 
L 126.467323 382.866516 
L 130.864816 381.941454 
L 135.26231 380.799296 
L 139.659804 379.399346 
L 144.057298 377.695976 
L 148.454791 375.638684 
L 152.852285 373.172366 
L 157.249779 370.2378 
L 161.647272 366.772413 
L 166.044766 362.711322 
L 170.44226 357.988708 
L 174.839754 352.539497 
L 179.237247 346.301371 
L 183.634741 339.217063 
L 188.032235 331.236916 
L 192.429728 322.321628 
L 196.827222 312.445114 
L 201.224716 301.597371 
L 205.62221 289.787238 
L 210.019703 277.04491 
L 214.417197 263.424078 
L 218.814691 249.003534 
L 223.212184 233.888124 
L 227.609678 218.208919 
L 232.007172 202.122504 
L 236.404665 185.809323 
L 240.802159 169.471045 
L 245.199653 153.326975 
L 249.597147 137.609553 
L 253.99464 122.559072 
L 258.392134 108.417748 
L 262.789628 95.423357 
L 267.187121 83.802649 
L 271.584615 73.764805 
L 275.982109 65.495194 
L 280.379603 59.149682 
L 284.777096 54.849752 
L 289.17459 52.678636 
L 293.572084 52.678636 
L 297.969577 54.849752 
L 302.367071 59.149682 
L 306.764565 65.495194 
L 311.162059 73.764805 
L 315.559552 83.802649 
L 319.957046 95.423357 
L 324.35454 108.417748 
L 328.752033 122.559072 
L 333.149527 137.609553 
L 337.547021 153.326975 
L 341.944514 169.471045 
L 346.342008 185.809323 
L 350.739502 202.122504 
L 355.136996 218.208919 
L 359.534489 233.888124 
L 363.931983 249.003534 
L 368.329477 263.424078 
L 372.72697 277.04491 
L 377.124464 289.787238 
L 381.521958 301.597371 
L 385.919452 312.445114 
L 390.316945 322.321628 
L 394.714439 331.236916 
L 399.111933 339.217063 
L 403.509426 346.301371 
L 407.90692 352.539497 
L 412.304414 357.988708 
L 416.701908 362.711322 
L 421.099401 366.772413 
L 425.496895 370.2378 
L 429.894389 373.172366 
L 434.291882 375.638684 
L 438.689376 377.695976 
L 443.08687 379.399346 
L 447.484364 380.799296 
L 451.881857 381.941454 
L 456.279351 382.866516 
L 460.676845 383.610328 
L 465.074338 384.204102 
L 469.471832 384.674709 
L 473.869326 385.04504 
L 478.266819 385.334393 
L 482.664313 385.558878 
L 487.061807 385.73181 
L 491.459301 385.864094 
L 495.856794 385.964575 
L 500.254288 386.040368 
L 504.651782 386.097141 
L 509.049275 386.139371 
" style="fill:none;stroke:#36a2eb;stroke-linecap:square;"/>
   </g>
   <g id="patch_3">
    <path d="M 50.870125 402.93 
L 553.070125 402.93 
" style="fill:none;stroke:#000000;stroke-linecap:square;stroke-linejoin:miter;stroke-width:0.8;"/>
   </g>
   <g id="legend_1">
    <g id="patch_4">
     <path d="M 456.577313 88.29875 
L 543.270125 88.29875 
Q 546.070125 88.29875 546.070125 85.49875 
L 546.070125 45.8 
Q 546.070125 43 543.270125 43 
L 456.577313 43 
Q 453.777313 43 453.777313 45.8 
L 453.777313 85.49875 
Q 453.777313 88.29875 456.577313 88.29875 
z
" style="fill:#ffffff;opacity:0.8;stroke:#cccccc;stroke-linejoin:miter;"/>
    </g>
    <g id="patch_5">
     <path d="M 459.377313 59.237813 
L 487.377313 59.237813 
L 487.377313 49.437813 
L 459.377313 49.437813 
z
" style="fill:#ff6384;opacity:0.5;stroke:#ff6384;stroke-linejoin:miter;"/>
    </g>
    <g id="text_1">
     <!-- base -->
     <defs>
      <path d="M 48.6875 27.296875 
Q 48.6875 37.203125 44.609375 42.84375 
Q 40.53125 48.484375 33.40625 48.484375 
Q 26.265625 48.484375 22.1875 42.84375 
Q 18.109375 37.203125 18.109375 27.296875 
Q 18.109375 17.390625 22.1875 11.75 
Q 26.265625 6.109375 33.40625 6.109375 
Q 40.53125 6.109375 44.609375 11.75 
Q 48.6875 17.390625 48.6875 27.296875 
z
M 18.109375 46.390625 
Q 20.953125 51.265625 25.265625 53.625 
Q 29.59375 56 35.59375 56 
Q 45.5625 56 51.78125 48.09375 
Q 58.015625 40.1875 58.015625 27.296875 
Q 58.015625 14.40625 51.78125 6.484375 
Q 45.5625 -1.421875 35.59375 -1.421875 
Q 29.59375 -1.421875 25.265625 0.953125 
Q 20.953125 3.328125 18.109375 8.203125 
L 18.109375 0 
L 9.078125 0 
L 9.078125 75.984375 
L 18.109375 75.984375 
z
" id="DejaVuSans-98"/>
      <path d="M 34.28125 27.484375 
Q 23.390625 27.484375 19.1875 25 
Q 14.984375 22.515625 14.984375 16.5 
Q 14.984375 11.71875 18.140625 8.90625 
Q 21.296875 6.109375 26.703125 6.109375 
Q 34.1875 6.109375 38.703125 11.40625 
Q 43.21875 16.703125 43.21875 25.484375 
L 43.21875 27.484375 
z
M 52.203125 31.203125 
L 52.203125 0 
L 43.21875 0 
L 43.21875 8.296875 
Q 40.140625 3.328125 35.546875 0.953125 
Q 30.953125 -1.421875 24.3125 -1.421875 
Q 15.921875 -1.421875 10.953125 3.296875 
Q 6 8.015625 6 15.921875 
Q 6 25.140625 12.171875 29.828125 
Q 18.359375 34.515625 30.609375 34.515625 
L 43.21875 34.515625 
L 43.21875 35.40625 
Q 43.21875 41.609375 39.140625 45 
Q 35.0625 48.390625 27.6875 48.390625 
Q 23 48.390625 18.546875 47.265625 
Q 14.109375 46.140625 10.015625 43.890625 
L 10.015625 52.203125 
Q 14.9375 54.109375 19.578125 55.046875 
Q 24.21875 56 28.609375 56 
Q 40.484375 56 46.34375 49.84375 
Q 52.203125 43.703125 52.203125 31.203125 
z
" id="DejaVuSans-97"/>
      <path d="M 44.28125 53.078125 
L 44.28125 44.578125 
Q 40.484375 46.53125 36.375 47.5 
Q 32.28125 48.484375 27.875 48.484375 
Q 21.1875 48.484375 17.84375 46.4375 
Q 14.5 44.390625 14.5 40.28125 
Q 14.5 37.15625 16.890625 35.375 
Q 19.28125 33.59375 26.515625 31.984375 
L 29.59375 31.296875 
Q 39.15625 29.25 43.1875 25.515625 
Q 47.21875 21.78125 47.21875 15.09375 
Q 47.21875 7.46875 41.1875 3.015625 
Q 35.15625 -1.421875 24.609375 -1.421875 
Q 20.21875 -1.421875 15.453125 -0.5625 
Q 10.6875 0.296875 5.421875 2 
L 5.421875 11.28125 
Q 10.40625 8.6875 15.234375 7.390625 
Q 20.0625 6.109375 24.8125 6.109375 
Q 31.15625 6.109375 34.5625 8.28125 
Q 37.984375 10.453125 37.984375 14.40625 
Q 37.984375 18.0625 35.515625 20.015625 
Q 33.0625 21.96875 24.703125 23.78125 
L 21.578125 24.515625 
Q 13.234375 26.265625 9.515625 29.90625 
Q 5.8125 33.546875 5.8125 39.890625 
Q 5.8125 47.609375 11.28125 51.796875 
Q 16.75 56 26.8125 56 
Q 31.78125 56 36.171875 55.265625 
Q 40.578125 54.546875 44.28125 53.078125 
z
" id="DejaVuSans-115"/>
      <path d="M 56.203125 29.59375 
L 56.203125 25.203125 
L 14.890625 25.203125 
Q 15.484375 15.921875 20.484375 11.0625 
Q 25.484375 6.203125 34.421875 6.203125 
Q 39.59375 6.203125 44.453125 7.46875 
Q 49.3125 8.734375 54.109375 11.28125 
L 54.109375 2.78125 
Q 49.265625 0.734375 44.1875 -0.34375 
Q 39.109375 -1.421875 33.890625 -1.421875 
Q 20.796875 -1.421875 13.15625 6.1875 
Q 5.515625 13.8125 5.515625 26.8125 
Q 5.515625 40.234375 12.765625 48.109375 
Q 20.015625 56 32.328125 56 
Q 43.359375 56 49.78125 48.890625 
Q 56.203125 41.796875 56.203125 29.59375 
z
M 47.21875 32.234375 
Q 47.125 39.59375 43.09375 43.984375 
Q 39.0625 48.390625 32.421875 48.390625 
Q 24.90625 48.390625 20.390625 44.140625 
Q 15.875 39.890625 15.1875 32.171875 
z
" id="DejaVuSans-101"/>
     </defs>
     <g transform="translate(498.577313 59.237813)scale(0.14 -0.14)">
      <use xlink:href="#DejaVuSans-98"/>
      <use x="63.476562" xlink:href="#DejaVuSans-97"/>
      <use x="124.755859" xlink:href="#DejaVuSans-115"/>
      <use x="176.855469" xlink:href="#DejaVuSans-101"/>
     </g>
    </g>
    <g id="patch_6">
     <path d="M 459.377313 79.787188 
L 487.377313 79.787188 
L 487.377313 69.987188 
L 459.377313 69.987188 
z
" style="fill:#36a2eb;opacity:0.5;stroke:#36a2eb;stroke-linejoin:miter;"/>
    </g>
    <g id="text_2">
     <!-- osago -->
     <defs>
      <path d="M 30.609375 48.390625 
Q 23.390625 48.390625 19.1875 42.75 
Q 14.984375 37.109375 14.984375 27.296875 
Q 14.984375 17.484375 19.15625 11.84375 
Q 23.34375 6.203125 30.609375 6.203125 
Q 37.796875 6.203125 41.984375 11.859375 
Q 46.1875 17.53125 46.1875 27.296875 
Q 46.1875 37.015625 41.984375 42.703125 
Q 37.796875 48.390625 30.609375 48.390625 
z
M 30.609375 56 
Q 42.328125 56 49.015625 48.375 
Q 55.71875 40.765625 55.71875 27.296875 
Q 55.71875 13.875 49.015625 6.21875 
Q 42.328125 -1.421875 30.609375 -1.421875 
Q 18.84375 -1.421875 12.171875 6.21875 
Q 5.515625 13.875 5.515625 27.296875 
Q 5.515625 40.765625 12.171875 48.375 
Q 18.84375 56 30.609375 56 
z
" id="DejaVuSans-111"/>
      <path d="M 45.40625 27.984375 
Q 45.40625 37.75 41.375 43.109375 
Q 37.359375 48.484375 30.078125 48.484375 
Q 22.859375 48.484375 18.828125 43.109375 
Q 14.796875 37.75 14.796875 27.984375 
Q 14.796875 18.265625 18.828125 12.890625 
Q 22.859375 7.515625 30.078125 7.515625 
Q 37.359375 7.515625 41.375 12.890625 
Q 45.40625 18.265625 45.40625 27.984375 
z
M 54.390625 6.78125 
Q 54.390625 -7.171875 48.1875 -13.984375 
Q 42 -20.796875 29.203125 -20.796875 
Q 24.46875 -20.796875 20.265625 -20.09375 
Q 16.0625 -19.390625 12.109375 -17.921875 
L 12.109375 -9.1875 
Q 16.0625 -11.328125 19.921875 -12.34375 
Q 23.78125 -13.375 27.78125 -13.375 
Q 36.625 -13.375 41.015625 -8.765625 
Q 45.40625 -4.15625 45.40625 5.171875 
L 45.40625 9.625 
Q 42.625 4.78125 38.28125 2.390625 
Q 33.9375 0 27.875 0 
Q 17.828125 0 11.671875 7.65625 
Q 5.515625 15.328125 5.515625 27.984375 
Q 5.515625 40.671875 11.671875 48.328125 
Q 17.828125 56 27.875 56 
Q 33.9375 56 38.28125 53.609375 
Q 42.625 51.21875 45.40625 46.390625 
L 45.40625 54.6875 
L 54.390625 54.6875 
z
" id="DejaVuSans-103"/>
     </defs>
     <g transform="translate(498.577313 79.787188)scale(0.14 -0.14)">
      <use xlink:href="#DejaVuSans-111"/>
      <use x="61.181641" xlink:href="#DejaVuSans-115"/>
      <use x="113.28125" xlink:href="#DejaVuSans-97"/>
      <use x="174.560547" xlink:href="#DejaVuSans-103"/>
      <use x="238.037109" xlink:href="#DejaVuSans-111"/>
     </g>
    </g>
   </g>
  </g>
  <g id="axes_2">
   <g id="patch_7">
    <path d="M 50.870125 525.24 
L 553.070125 525.24 
L 553.070125 402.93 
L 50.870125 402.93 
z
" style="fill:none;"/>
   </g>
   <g id="patch_8">
    <path clip-path="url(#p3f9d389ac6)" d="M 202.428202 519.680455 
L 418.037838 519.680455 
L 418.037838 482.616818 
L 202.428202 482.616818 
z
" style="fill:#ff6384;opacity:0.5;"/>
   </g>
   <g id="patch_9">
    <path clip-path="url(#p3f9d389ac6)" d="M 184.712127 445.553182 
L 398.034547 445.553182 
L 398.034547 408.489545 
L 184.712127 408.489545 
z
" style="fill:#36a2eb;opacity:0.5;"/>
   </g>
   <g id="matplotlib.axis_1">
    <g id="xtick_1">
     <g id="line2d_3">
      <defs>
       <path d="M 0 0 
L 0 3.5 
" id="m996ea1b4ae" style="stroke:#000000;stroke-width:0.8;"/>
      </defs>
      <g>
       <use style="stroke:#000000;stroke-width:0.8;" x="51.585938" xlink:href="#m996ea1b4ae" y="525.24"/>
      </g>
     </g>
     <g id="text_3">
      <!-- 0.50 -->
      <defs>
       <path d="M 31.78125 66.40625 
Q 24.171875 66.40625 20.328125 58.90625 
Q 16.5 51.421875 16.5 36.375 
Q 16.5 21.390625 20.328125 13.890625 
Q 24.171875 6.390625 31.78125 6.390625 
Q 39.453125 6.390625 43.28125 13.890625 
Q 47.125 21.390625 47.125 36.375 
Q 47.125 51.421875 43.28125 58.90625 
Q 39.453125 66.40625 31.78125 66.40625 
z
M 31.78125 74.21875 
Q 44.046875 74.21875 50.515625 64.515625 
Q 56.984375 54.828125 56.984375 36.375 
Q 56.984375 17.96875 50.515625 8.265625 
Q 44.046875 -1.421875 31.78125 -1.421875 
Q 19.53125 -1.421875 13.0625 8.265625 
Q 6.59375 17.96875 6.59375 36.375 
Q 6.59375 54.828125 13.0625 64.515625 
Q 19.53125 74.21875 31.78125 74.21875 
z
" id="DejaVuSans-48"/>
       <path d="M 10.6875 12.40625 
L 21 12.40625 
L 21 0 
L 10.6875 0 
z
" id="DejaVuSans-46"/>
       <path d="M 10.796875 72.90625 
L 49.515625 72.90625 
L 49.515625 64.59375 
L 19.828125 64.59375 
L 19.828125 46.734375 
Q 21.96875 47.46875 24.109375 47.828125 
Q 26.265625 48.1875 28.421875 48.1875 
Q 40.625 48.1875 47.75 41.5 
Q 54.890625 34.8125 54.890625 23.390625 
Q 54.890625 11.625 47.5625 5.09375 
Q 40.234375 -1.421875 26.90625 -1.421875 
Q 22.3125 -1.421875 17.546875 -0.640625 
Q 12.796875 0.140625 7.71875 1.703125 
L 7.71875 11.625 
Q 12.109375 9.234375 16.796875 8.0625 
Q 21.484375 6.890625 26.703125 6.890625 
Q 35.15625 6.890625 40.078125 11.328125 
Q 45.015625 15.765625 45.015625 23.390625 
Q 45.015625 31 40.078125 35.4375 
Q 35.15625 39.890625 26.703125 39.890625 
Q 22.75 39.890625 18.8125 39.015625 
Q 14.890625 38.140625 10.796875 36.28125 
z
" id="DejaVuSans-53"/>
      </defs>
      <g transform="translate(36 542.877813)scale(0.14 -0.14)">
       <use xlink:href="#DejaVuSans-48"/>
       <use x="63.623047" xlink:href="#DejaVuSans-46"/>
       <use x="95.410156" xlink:href="#DejaVuSans-53"/>
       <use x="159.033203" xlink:href="#DejaVuSans-48"/>
      </g>
     </g>
    </g>
    <g id="xtick_2">
     <g id="line2d_4">
      <g>
       <use style="stroke:#000000;stroke-width:0.8;" x="118.941949" xlink:href="#m996ea1b4ae" y="525.24"/>
      </g>
     </g>
     <g id="text_4">
      <!-- 0.75 -->
      <defs>
       <path d="M 8.203125 72.90625 
L 55.078125 72.90625 
L 55.078125 68.703125 
L 28.609375 0 
L 18.3125 0 
L 43.21875 64.59375 
L 8.203125 64.59375 
z
" id="DejaVuSans-55"/>
      </defs>
      <g transform="translate(103.356011 542.877813)scale(0.14 -0.14)">
       <use xlink:href="#DejaVuSans-48"/>
       <use x="63.623047" xlink:href="#DejaVuSans-46"/>
       <use x="95.410156" xlink:href="#DejaVuSans-55"/>
       <use x="159.033203" xlink:href="#DejaVuSans-53"/>
      </g>
     </g>
    </g>
    <g id="xtick_3">
     <g id="line2d_5">
      <g>
       <use style="stroke:#000000;stroke-width:0.8;" x="186.29796" xlink:href="#m996ea1b4ae" y="525.24"/>
      </g>
     </g>
     <g id="text_5">
      <!-- 1.00 -->
      <defs>
       <path d="M 12.40625 8.296875 
L 28.515625 8.296875 
L 28.515625 63.921875 
L 10.984375 60.40625 
L 10.984375 69.390625 
L 28.421875 72.90625 
L 38.28125 72.90625 
L 38.28125 8.296875 
L 54.390625 8.296875 
L 54.390625 0 
L 12.40625 0 
z
" id="DejaVuSans-49"/>
      </defs>
      <g transform="translate(170.712022 542.877813)scale(0.14 -0.14)">
       <use xlink:href="#DejaVuSans-49"/>
       <use x="63.623047" xlink:href="#DejaVuSans-46"/>
       <use x="95.410156" xlink:href="#DejaVuSans-48"/>
       <use x="159.033203" xlink:href="#DejaVuSans-48"/>
      </g>
     </g>
    </g>
    <g id="xtick_4">
     <g id="line2d_6">
      <g>
       <use style="stroke:#000000;stroke-width:0.8;" x="253.653971" xlink:href="#m996ea1b4ae" y="525.24"/>
      </g>
     </g>
     <g id="text_6">
      <!-- 1.25 -->
      <defs>
       <path d="M 19.1875 8.296875 
L 53.609375 8.296875 
L 53.609375 0 
L 7.328125 0 
L 7.328125 8.296875 
Q 12.9375 14.109375 22.625 23.890625 
Q 32.328125 33.6875 34.8125 36.53125 
Q 39.546875 41.84375 41.421875 45.53125 
Q 43.3125 49.21875 43.3125 52.78125 
Q 43.3125 58.59375 39.234375 62.25 
Q 35.15625 65.921875 28.609375 65.921875 
Q 23.96875 65.921875 18.8125 64.3125 
Q 13.671875 62.703125 7.8125 59.421875 
L 7.8125 69.390625 
Q 13.765625 71.78125 18.9375 73 
Q 24.125 74.21875 28.421875 74.21875 
Q 39.75 74.21875 46.484375 68.546875 
Q 53.21875 62.890625 53.21875 53.421875 
Q 53.21875 48.921875 51.53125 44.890625 
Q 49.859375 40.875 45.40625 35.40625 
Q 44.1875 33.984375 37.640625 27.21875 
Q 31.109375 20.453125 19.1875 8.296875 
z
" id="DejaVuSans-50"/>
      </defs>
      <g transform="translate(238.068033 542.877813)scale(0.14 -0.14)">
       <use xlink:href="#DejaVuSans-49"/>
       <use x="63.623047" xlink:href="#DejaVuSans-46"/>
       <use x="95.410156" xlink:href="#DejaVuSans-50"/>
       <use x="159.033203" xlink:href="#DejaVuSans-53"/>
      </g>
     </g>
    </g>
    <g id="xtick_5">
     <g id="line2d_7">
      <g>
       <use style="stroke:#000000;stroke-width:0.8;" x="321.009982" xlink:href="#m996ea1b4ae" y="525.24"/>
      </g>
     </g>
     <g id="text_7">
      <!-- 1.50 -->
      <g transform="translate(305.424044 542.877813)scale(0.14 -0.14)">
       <use xlink:href="#DejaVuSans-49"/>
       <use x="63.623047" xlink:href="#DejaVuSans-46"/>
       <use x="95.410156" xlink:href="#DejaVuSans-53"/>
       <use x="159.033203" xlink:href="#DejaVuSans-48"/>
      </g>
     </g>
    </g>
    <g id="xtick_6">
     <g id="line2d_8">
      <g>
       <use style="stroke:#000000;stroke-width:0.8;" x="388.365993" xlink:href="#m996ea1b4ae" y="525.24"/>
      </g>
     </g>
     <g id="text_8">
      <!-- 1.75 -->
      <g transform="translate(372.780055 542.877813)scale(0.14 -0.14)">
       <use xlink:href="#DejaVuSans-49"/>
       <use x="63.623047" xlink:href="#DejaVuSans-46"/>
       <use x="95.410156" xlink:href="#DejaVuSans-55"/>
       <use x="159.033203" xlink:href="#DejaVuSans-53"/>
      </g>
     </g>
    </g>
    <g id="xtick_7">
     <g id="line2d_9">
      <g>
       <use style="stroke:#000000;stroke-width:0.8;" x="455.722004" xlink:href="#m996ea1b4ae" y="525.24"/>
      </g>
     </g>
     <g id="text_9">
      <!-- 2.00 -->
      <g transform="translate(440.136066 542.877813)scale(0.14 -0.14)">
       <use xlink:href="#DejaVuSans-50"/>
       <use x="63.623047" xlink:href="#DejaVuSans-46"/>
       <use x="95.410156" xlink:href="#DejaVuSans-48"/>
       <use x="159.033203" xlink:href="#DejaVuSans-48"/>
      </g>
     </g>
    </g>
    <g id="xtick_8">
     <g id="line2d_10">
      <g>
       <use style="stroke:#000000;stroke-width:0.8;" x="523.078015" xlink:href="#m996ea1b4ae" y="525.24"/>
      </g>
     </g>
     <g id="text_10">
      <!-- 2.25 -->
      <g transform="translate(507.492077 542.877813)scale(0.14 -0.14)">
       <use xlink:href="#DejaVuSans-50"/>
       <use x="63.623047" xlink:href="#DejaVuSans-46"/>
       <use x="95.410156" xlink:href="#DejaVuSans-50"/>
       <use x="159.033203" xlink:href="#DejaVuSans-53"/>
      </g>
     </g>
    </g>
   </g>
   <g id="line2d_11">
    <path clip-path="url(#p3f9d389ac6)" d="M 310.23302 525.24 
L 310.23302 402.93 
" style="fill:none;stroke:#ff6384;stroke-dasharray:5.55,2.4;stroke-dashoffset:0;stroke-opacity:0.8;stroke-width:1.5;"/>
   </g>
   <g id="line2d_12">
    <path clip-path="url(#p3f9d389ac6)" d="M 291.373337 525.24 
L 291.373337 402.93 
" style="fill:none;stroke:#36a2eb;stroke-dasharray:5.55,2.4;stroke-dashoffset:0;stroke-opacity:0.8;stroke-width:1.5;"/>
   </g>
   <g id="patch_10">
    <path d="M 50.870125 525.24 
L 553.070125 525.24 
" style="fill:none;stroke:#000000;stroke-linecap:square;stroke-linejoin:miter;stroke-width:0.8;"/>
   </g>
  </g>
 </g>
 <defs>
  <clipPath id="p3de9ed3ac5">
   <rect height="366.93" width="502.2" x="50.870125" y="36"/>
  </clipPath>
  <clipPath id="p3f9d389ac6">
   <rect height="122.31" width="502.2" x="50.870125" y="402.93"/>
  </clipPath>
 </defs>
</svg>
