<?xml version="1.0" encoding="utf-8" standalone="no"?>
<!DOCTYPE svg PUBLIC "-//W3C//DTD SVG 1.1//EN"
  "http://www.w3.org/Graphics/SVG/1.1/DTD/svg11.dtd">
<!-- Created with matplotlib (https://matplotlib.org/) -->
<svg height="581.789375pt" version="1.1" viewBox="0 0 589.069561 581.789375" width="589.069561pt" xmlns="http://www.w3.org/2000/svg" xmlns:xlink="http://www.w3.org/1999/xlink">
 <defs>
  <style type="text/css">
*{stroke-linecap:butt;stroke-linejoin:round;}
  </style>
 </defs>
 <g id="figure_1">
  <g id="patch_1">
   <path d="M 0 581.789375 
L 589.069561 581.789375 
L 589.069561 0 
L 0 0 
z
" style="fill:none;"/>
  </g>
  <g id="axes_1">
   <g id="patch_2">
    <path d="M 50.869561 402.93 
L 553.069561 402.93 
L 553.069561 36 
L 50.869561 36 
z
" style="fill:none;"/>
   </g>
   <g id="PolyCollection_1">
    <defs>
     <path d="M 90.226012 -195.538011 
L 90.226012 -195.648818 
L 94.670621 -195.690601 
L 99.11523 -195.746772 
L 103.559839 -195.821762 
L 108.004447 -195.921179 
L 112.449056 -196.052061 
L 116.893665 -196.223161 
L 121.338274 -196.445268 
L 125.782883 -196.731556 
L 130.227492 -197.097964 
L 134.672101 -197.563586 
L 139.116709 -198.15107 
L 143.561318 -198.887003 
L 148.005927 -199.802265 
L 152.450536 -200.932325 
L 156.895145 -202.317444 
L 161.339754 -204.00277 
L 165.784363 -206.038269 
L 170.228971 -208.478461 
L 174.67358 -211.38194 
L 179.118189 -214.810618 
L 183.562798 -218.828689 
L 188.007407 -223.501276 
L 192.452016 -228.892762 
L 196.896625 -235.064806 
L 201.341233 -242.074069 
L 205.785842 -249.969681 
L 210.230451 -258.790527 
L 214.67506 -268.562417 
L 219.119669 -279.295248 
L 223.564278 -290.980275 
L 228.008887 -303.587621 
L 232.453495 -317.064165 
L 236.898104 -331.331949 
L 241.342713 -346.287238 
L 245.787322 -361.800351 
L 250.231931 -377.716359 
L 254.67654 -393.856732 
L 259.121149 -410.021935 
L 263.565757 -425.994988 
L 268.010366 -441.545912 
L 272.454975 -456.436961 
L 276.899584 -470.428483 
L 281.344193 -483.285222 
L 285.788802 -494.78283 
L 290.23341 -504.714341 
L 294.678019 -512.896351 
L 299.122628 -519.174644 
L 303.567237 -523.429024 
L 308.011846 -525.57714 
L 312.456455 -525.57714 
L 316.901064 -523.429024 
L 321.345672 -519.174644 
L 325.790281 -512.896351 
L 330.23489 -504.714341 
L 334.679499 -494.78283 
L 339.124108 -483.285222 
L 343.568717 -470.428483 
L 348.013326 -456.436961 
L 352.457934 -441.545912 
L 356.902543 -425.994988 
L 361.347152 -410.021935 
L 365.791761 -393.856732 
L 370.23637 -377.716359 
L 374.680979 -361.800351 
L 379.125588 -346.287238 
L 383.570196 -331.331949 
L 388.014805 -317.064165 
L 392.459414 -303.587621 
L 396.904023 -290.980275 
L 401.348632 -279.295248 
L 405.793241 -268.562417 
L 410.23785 -258.790527 
L 414.682458 -249.969681 
L 419.127067 -242.074069 
L 423.571676 -235.064806 
L 428.016285 -228.892762 
L 432.460894 -223.501276 
L 436.905503 -218.828689 
L 441.350112 -214.810618 
L 445.79472 -211.38194 
L 450.239329 -208.478461 
L 454.683938 -206.038269 
L 459.128547 -204.00277 
L 463.573156 -202.317444 
L 468.017765 -200.932325 
L 472.462373 -199.802265 
L 476.906982 -198.887003 
L 481.351591 -198.15107 
L 485.7962 -197.563586 
L 490.240809 -197.097964 
L 494.685418 -196.731556 
L 499.130027 -196.445268 
L 503.574635 -196.223161 
L 508.019244 -196.052061 
L 512.463853 -195.921179 
L 516.908462 -195.821762 
L 521.353071 -195.746772 
L 525.79768 -195.690601 
L 530.242289 -195.648818 
L 530.242289 -195.538011 
L 530.242289 -195.538011 
L 525.79768 -195.538011 
L 521.353071 -195.538011 
L 516.908462 -195.538011 
L 512.463853 -195.538011 
L 508.019244 -195.538011 
L 503.574635 -195.538011 
L 499.130027 -195.538011 
L 494.685418 -195.538011 
L 490.240809 -195.538011 
L 485.7962 -195.538011 
L 481.351591 -195.538011 
L 476.906982 -195.538011 
L 472.462373 -195.538011 
L 468.017765 -195.538011 
L 463.573156 -195.538011 
L 459.128547 -195.538011 
L 454.683938 -195.538011 
L 450.239329 -195.538011 
L 445.79472 -195.538011 
L 441.350112 -195.538011 
L 436.905503 -195.538011 
L 432.460894 -195.538011 
L 428.016285 -195.538011 
L 423.571676 -195.538011 
L 419.127067 -195.538011 
L 414.682458 -195.538011 
L 410.23785 -195.538011 
L 405.793241 -195.538011 
L 401.348632 -195.538011 
L 396.904023 -195.538011 
L 392.459414 -195.538011 
L 388.014805 -195.538011 
L 383.570196 -195.538011 
L 379.125588 -195.538011 
L 374.680979 -195.538011 
L 370.23637 -195.538011 
L 365.791761 -195.538011 
L 361.347152 -195.538011 
L 356.902543 -195.538011 
L 352.457934 -195.538011 
L 348.013326 -195.538011 
L 343.568717 -195.538011 
L 339.124108 -195.538011 
L 334.679499 -195.538011 
L 330.23489 -195.538011 
L 325.790281 -195.538011 
L 321.345672 -195.538011 
L 316.901064 -195.538011 
L 312.456455 -195.538011 
L 308.011846 -195.538011 
L 303.567237 -195.538011 
L 299.122628 -195.538011 
L 294.678019 -195.538011 
L 290.23341 -195.538011 
L 285.788802 -195.538011 
L 281.344193 -195.538011 
L 276.899584 -195.538011 
L 272.454975 -195.538011 
L 268.010366 -195.538011 
L 263.565757 -195.538011 
L 259.121149 -195.538011 
L 254.67654 -195.538011 
L 250.231931 -195.538011 
L 245.787322 -195.538011 
L 241.342713 -195.538011 
L 236.898104 -195.538011 
L 232.453495 -195.538011 
L 228.008887 -195.538011 
L 223.564278 -195.538011 
L 219.119669 -195.538011 
L 214.67506 -195.538011 
L 210.230451 -195.538011 
L 205.785842 -195.538011 
L 201.341233 -195.538011 
L 196.896625 -195.538011 
L 192.452016 -195.538011 
L 188.007407 -195.538011 
L 183.562798 -195.538011 
L 179.118189 -195.538011 
L 174.67358 -195.538011 
L 170.228971 -195.538011 
L 165.784363 -195.538011 
L 161.339754 -195.538011 
L 156.895145 -195.538011 
L 152.450536 -195.538011 
L 148.005927 -195.538011 
L 143.561318 -195.538011 
L 139.116709 -195.538011 
L 134.672101 -195.538011 
L 130.227492 -195.538011 
L 125.782883 -195.538011 
L 121.338274 -195.538011 
L 116.893665 -195.538011 
L 112.449056 -195.538011 
L 108.004447 -195.538011 
L 103.559839 -195.538011 
L 99.11523 -195.538011 
L 94.670621 -195.538011 
L 90.226012 -195.538011 
z
" id="m957ab3715e" style="stroke:#ff6384;stroke-opacity:0.5;"/>
    </defs>
    <g clip-path="url(#p3c39331502)">
     <use style="fill:#ff6384;fill-opacity:0.5;stroke:#ff6384;stroke-opacity:0.5;" x="0" xlink:href="#m957ab3715e" y="581.789375"/>
    </g>
   </g>
   <g id="PolyCollection_2">
    <defs>
     <path d="M 73.696834 -195.538011 
L 73.696834 -195.650004 
L 78.09436 -195.692234 
L 82.491887 -195.749007 
L 86.889413 -195.8248 
L 91.286939 -195.925281 
L 95.684465 -196.057565 
L 100.081992 -196.230497 
L 104.479518 -196.454982 
L 108.877044 -196.744335 
L 113.274571 -197.114666 
L 117.672097 -197.585273 
L 122.069623 -198.179047 
L 126.467149 -198.922859 
L 130.864676 -199.847921 
L 135.262202 -200.990079 
L 139.659728 -202.390029 
L 144.057254 -204.093399 
L 148.454781 -206.150691 
L 152.852307 -208.617009 
L 157.249833 -211.551575 
L 161.64736 -215.016962 
L 166.044886 -219.078053 
L 170.442412 -223.800667 
L 174.839938 -229.249878 
L 179.237465 -235.488004 
L 183.634991 -242.572312 
L 188.032517 -250.552459 
L 192.430044 -259.467747 
L 196.82757 -269.344261 
L 201.225096 -280.192004 
L 205.622622 -292.002137 
L 210.020149 -304.744465 
L 214.417675 -318.365297 
L 218.815201 -332.785841 
L 223.212728 -347.901251 
L 227.610254 -363.580456 
L 232.00778 -379.666871 
L 236.405306 -395.980052 
L 240.802833 -412.31833 
L 245.200359 -428.4624 
L 249.597885 -444.179822 
L 253.995411 -459.230303 
L 258.392938 -473.371627 
L 262.790464 -486.366018 
L 267.18799 -497.986726 
L 271.585517 -508.02457 
L 275.983043 -516.294181 
L 280.380569 -522.639693 
L 284.778095 -526.939623 
L 289.175622 -529.110739 
L 293.573148 -529.110739 
L 297.970674 -526.939623 
L 302.368201 -522.639693 
L 306.765727 -516.294181 
L 311.163253 -508.02457 
L 315.560779 -497.986726 
L 319.958306 -486.366018 
L 324.355832 -473.371627 
L 328.753358 -459.230303 
L 333.150884 -444.179822 
L 337.548411 -428.4624 
L 341.945937 -412.31833 
L 346.343463 -395.980052 
L 350.74099 -379.666871 
L 355.138516 -363.580456 
L 359.536042 -347.901251 
L 363.933568 -332.785841 
L 368.331095 -318.365297 
L 372.728621 -304.744465 
L 377.126147 -292.002137 
L 381.523674 -280.192004 
L 385.9212 -269.344261 
L 390.318726 -259.467747 
L 394.716252 -250.552459 
L 399.113779 -242.572312 
L 403.511305 -235.488004 
L 407.908831 -229.249878 
L 412.306357 -223.800667 
L 416.703884 -219.078053 
L 421.10141 -215.016962 
L 425.498936 -211.551575 
L 429.896463 -208.617009 
L 434.293989 -206.150691 
L 438.691515 -204.093399 
L 443.089041 -202.390029 
L 447.486568 -200.990079 
L 451.884094 -199.847921 
L 456.28162 -198.922859 
L 460.679147 -198.179047 
L 465.076673 -197.585273 
L 469.474199 -197.114666 
L 473.871725 -196.744335 
L 478.269252 -196.454982 
L 482.666778 -196.230497 
L 487.064304 -196.057565 
L 491.46183 -195.925281 
L 495.859357 -195.8248 
L 500.256883 -195.749007 
L 504.654409 -195.692234 
L 509.051936 -195.650004 
L 509.051936 -195.538011 
L 509.051936 -195.538011 
L 504.654409 -195.538011 
L 500.256883 -195.538011 
L 495.859357 -195.538011 
L 491.46183 -195.538011 
L 487.064304 -195.538011 
L 482.666778 -195.538011 
L 478.269252 -195.538011 
L 473.871725 -195.538011 
L 469.474199 -195.538011 
L 465.076673 -195.538011 
L 460.679147 -195.538011 
L 456.28162 -195.538011 
L 451.884094 -195.538011 
L 447.486568 -195.538011 
L 443.089041 -195.538011 
L 438.691515 -195.538011 
L 434.293989 -195.538011 
L 429.896463 -195.538011 
L 425.498936 -195.538011 
L 421.10141 -195.538011 
L 416.703884 -195.538011 
L 412.306357 -195.538011 
L 407.908831 -195.538011 
L 403.511305 -195.538011 
L 399.113779 -195.538011 
L 394.716252 -195.538011 
L 390.318726 -195.538011 
L 385.9212 -195.538011 
L 381.523674 -195.538011 
L 377.126147 -195.538011 
L 372.728621 -195.538011 
L 368.331095 -195.538011 
L 363.933568 -195.538011 
L 359.536042 -195.538011 
L 355.138516 -195.538011 
L 350.74099 -195.538011 
L 346.343463 -195.538011 
L 341.945937 -195.538011 
L 337.548411 -195.538011 
L 333.150884 -195.538011 
L 328.753358 -195.538011 
L 324.355832 -195.538011 
L 319.958306 -195.538011 
L 315.560779 -195.538011 
L 311.163253 -195.538011 
L 306.765727 -195.538011 
L 302.368201 -195.538011 
L 297.970674 -195.538011 
L 293.573148 -195.538011 
L 289.175622 -195.538011 
L 284.778095 -195.538011 
L 280.380569 -195.538011 
L 275.983043 -195.538011 
L 271.585517 -195.538011 
L 267.18799 -195.538011 
L 262.790464 -195.538011 
L 258.392938 -195.538011 
L 253.995411 -195.538011 
L 249.597885 -195.538011 
L 245.200359 -195.538011 
L 240.802833 -195.538011 
L 236.405306 -195.538011 
L 232.00778 -195.538011 
L 227.610254 -195.538011 
L 223.212728 -195.538011 
L 218.815201 -195.538011 
L 214.417675 -195.538011 
L 210.020149 -195.538011 
L 205.622622 -195.538011 
L 201.225096 -195.538011 
L 196.82757 -195.538011 
L 192.430044 -195.538011 
L 188.032517 -195.538011 
L 183.634991 -195.538011 
L 179.237465 -195.538011 
L 174.839938 -195.538011 
L 170.442412 -195.538011 
L 166.044886 -195.538011 
L 161.64736 -195.538011 
L 157.249833 -195.538011 
L 152.852307 -195.538011 
L 148.454781 -195.538011 
L 144.057254 -195.538011 
L 139.659728 -195.538011 
L 135.262202 -195.538011 
L 130.864676 -195.538011 
L 126.467149 -195.538011 
L 122.069623 -195.538011 
L 117.672097 -195.538011 
L 113.274571 -195.538011 
L 108.877044 -195.538011 
L 104.479518 -195.538011 
L 100.081992 -195.538011 
L 95.684465 -195.538011 
L 91.286939 -195.538011 
L 86.889413 -195.538011 
L 82.491887 -195.538011 
L 78.09436 -195.538011 
L 73.696834 -195.538011 
z
" id="m0e30a4d94d" style="stroke:#36a2eb;stroke-opacity:0.5;"/>
    </defs>
    <g clip-path="url(#p3c39331502)">
     <use style="fill:#36a2eb;fill-opacity:0.5;stroke:#36a2eb;stroke-opacity:0.5;" x="0" xlink:href="#m0e30a4d94d" y="581.789375"/>
    </g>
   </g>
   <g id="line2d_1">
    <path clip-path="url(#p3c39331502)" d="M 90.226012 386.140557 
L 94.670621 386.098774 
L 99.11523 386.042603 
L 103.559839 385.967613 
L 108.004447 385.868196 
L 112.449056 385.737314 
L 116.893665 385.566214 
L 121.338274 385.344107 
L 125.782883 385.057819 
L 130.227492 384.691411 
L 134.672101 384.225789 
L 139.116709 383.638305 
L 143.561318 382.902372 
L 148.005927 381.98711 
L 152.450536 380.85705 
L 156.895145 379.471931 
L 161.339754 377.786605 
L 165.784363 375.751106 
L 170.228971 373.310914 
L 174.67358 370.407435 
L 179.118189 366.978757 
L 183.562798 362.960686 
L 188.007407 358.288099 
L 192.452016 352.896613 
L 196.896625 346.724569 
L 201.341233 339.715306 
L 205.785842 331.819694 
L 210.230451 322.998848 
L 214.67506 313.226958 
L 219.119669 302.494127 
L 223.564278 290.8091 
L 228.008887 278.201754 
L 232.453495 264.72521 
L 236.898104 250.457426 
L 241.342713 235.502137 
L 245.787322 219.989024 
L 250.231931 204.073016 
L 254.67654 187.932643 
L 259.121149 171.76744 
L 263.565757 155.794387 
L 268.010366 140.243463 
L 272.454975 125.352414 
L 276.899584 111.360892 
L 281.344193 98.504153 
L 285.788802 87.006545 
L 290.23341 77.075034 
L 294.678019 68.893024 
L 299.122628 62.614731 
L 303.567237 58.360351 
L 308.011846 56.212235 
L 312.456455 56.212235 
L 316.901064 58.360351 
L 321.345672 62.614731 
L 325.790281 68.893024 
L 330.23489 77.075034 
L 334.679499 87.006545 
L 339.124108 98.504153 
L 343.568717 111.360892 
L 348.013326 125.352414 
L 352.457934 140.243463 
L 356.902543 155.794387 
L 361.347152 171.76744 
L 365.791761 187.932643 
L 370.23637 204.073016 
L 374.680979 219.989024 
L 379.125588 235.502137 
L 383.570196 250.457426 
L 388.014805 264.72521 
L 392.459414 278.201754 
L 396.904023 290.8091 
L 401.348632 302.494127 
L 405.793241 313.226958 
L 410.23785 322.998848 
L 414.682458 331.819694 
L 419.127067 339.715306 
L 423.571676 346.724569 
L 428.016285 352.896613 
L 432.460894 358.288099 
L 436.905503 362.960686 
L 441.350112 366.978757 
L 445.79472 370.407435 
L 450.239329 373.310914 
L 454.683938 375.751106 
L 459.128547 377.786605 
L 463.573156 379.471931 
L 468.017765 380.85705 
L 472.462373 381.98711 
L 476.906982 382.902372 
L 481.351591 383.638305 
L 485.7962 384.225789 
L 490.240809 384.691411 
L 494.685418 385.057819 
L 499.130027 385.344107 
L 503.574635 385.566214 
L 508.019244 385.737314 
L 512.463853 385.868196 
L 516.908462 385.967613 
L 521.353071 386.042603 
L 525.79768 386.098774 
L 530.242289 386.140557 
" style="fill:none;stroke:#ff6384;stroke-linecap:square;"/>
   </g>
   <g id="line2d_2">
    <path clip-path="url(#p3c39331502)" d="M 73.696834 386.139371 
L 78.09436 386.097141 
L 82.491887 386.040368 
L 86.889413 385.964575 
L 91.286939 385.864094 
L 95.684465 385.73181 
L 100.081992 385.558878 
L 104.479518 385.334393 
L 108.877044 385.04504 
L 113.274571 384.674709 
L 117.672097 384.204102 
L 122.069623 383.610328 
L 126.467149 382.866516 
L 130.864676 381.941454 
L 135.262202 380.799296 
L 139.659728 379.399346 
L 144.057254 377.695976 
L 148.454781 375.638684 
L 152.852307 373.172366 
L 157.249833 370.2378 
L 161.64736 366.772413 
L 166.044886 362.711322 
L 170.442412 357.988708 
L 174.839938 352.539497 
L 179.237465 346.301371 
L 183.634991 339.217063 
L 188.032517 331.236916 
L 192.430044 322.321628 
L 196.82757 312.445114 
L 201.225096 301.597371 
L 205.622622 289.787238 
L 210.020149 277.04491 
L 214.417675 263.424078 
L 218.815201 249.003534 
L 223.212728 233.888124 
L 227.610254 218.208919 
L 232.00778 202.122504 
L 236.405306 185.809323 
L 240.802833 169.471045 
L 245.200359 153.326975 
L 249.597885 137.609553 
L 253.995411 122.559072 
L 258.392938 108.417748 
L 262.790464 95.423357 
L 267.18799 83.802649 
L 271.585517 73.764805 
L 275.983043 65.495194 
L 280.380569 59.149682 
L 284.778095 54.849752 
L 289.175622 52.678636 
L 293.573148 52.678636 
L 297.970674 54.849752 
L 302.368201 59.149682 
L 306.765727 65.495194 
L 311.163253 73.764805 
L 315.560779 83.802649 
L 319.958306 95.423357 
L 324.355832 108.417748 
L 328.753358 122.559072 
L 333.150884 137.609553 
L 337.548411 153.326975 
L 341.945937 169.471045 
L 346.343463 185.809323 
L 350.74099 202.122504 
L 355.138516 218.208919 
L 359.536042 233.888124 
L 363.933568 249.003534 
L 368.331095 263.424078 
L 372.728621 277.04491 
L 377.126147 289.787238 
L 381.523674 301.597371 
L 385.9212 312.445114 
L 390.318726 322.321628 
L 394.716252 331.236916 
L 399.113779 339.217063 
L 403.511305 346.301371 
L 407.908831 352.539497 
L 412.306357 357.988708 
L 416.703884 362.711322 
L 421.10141 366.772413 
L 425.498936 370.2378 
L 429.896463 373.172366 
L 434.293989 375.638684 
L 438.691515 377.695976 
L 443.089041 379.399346 
L 447.486568 380.799296 
L 451.884094 381.941454 
L 456.28162 382.866516 
L 460.679147 383.610328 
L 465.076673 384.204102 
L 469.474199 384.674709 
L 473.871725 385.04504 
L 478.269252 385.334393 
L 482.666778 385.558878 
L 487.064304 385.73181 
L 491.46183 385.864094 
L 495.859357 385.964575 
L 500.256883 386.040368 
L 504.654409 386.097141 
L 509.051936 386.139371 
" style="fill:none;stroke:#36a2eb;stroke-linecap:square;"/>
   </g>
   <g id="patch_3">
    <path d="M 50.869561 402.93 
L 553.069561 402.93 
" style="fill:none;stroke:#000000;stroke-linecap:square;stroke-linejoin:miter;stroke-width:0.8;"/>
   </g>
   <g id="legend_1">
    <g id="patch_4">
     <path d="M 456.576749 88.29875 
L 543.269561 88.29875 
Q 546.069561 88.29875 546.069561 85.49875 
L 546.069561 45.8 
Q 546.069561 43 543.269561 43 
L 456.576749 43 
Q 453.776749 43 453.776749 45.8 
L 453.776749 85.49875 
Q 453.776749 88.29875 456.576749 88.29875 
z
" style="fill:#ffffff;opacity:0.8;stroke:#cccccc;stroke-linejoin:miter;"/>
    </g>
    <g id="patch_5">
     <path d="M 459.376749 59.237813 
L 487.376749 59.237813 
L 487.376749 49.437813 
L 459.376749 49.437813 
z
" style="fill:#ff6384;opacity:0.5;stroke:#ff6384;stroke-linejoin:miter;"/>
    </g>
    <g id="text_1">
     <!-- base -->
     <defs>
      <path d="M 48.6875 27.296875 
Q 48.6875 37.203125 44.609375 42.84375 
Q 40.53125 48.484375 33.40625 48.484375 
Q 26.265625 48.484375 22.1875 42.84375 
Q 18.109375 37.203125 18.109375 27.296875 
Q 18.109375 17.390625 22.1875 11.75 
Q 26.265625 6.109375 33.40625 6.109375 
Q 40.53125 6.109375 44.609375 11.75 
Q 48.6875 17.390625 48.6875 27.296875 
z
M 18.109375 46.390625 
Q 20.953125 51.265625 25.265625 53.625 
Q 29.59375 56 35.59375 56 
Q 45.5625 56 51.78125 48.09375 
Q 58.015625 40.1875 58.015625 27.296875 
Q 58.015625 14.40625 51.78125 6.484375 
Q 45.5625 -1.421875 35.59375 -1.421875 
Q 29.59375 -1.421875 25.265625 0.953125 
Q 20.953125 3.328125 18.109375 8.203125 
L 18.109375 0 
L 9.078125 0 
L 9.078125 75.984375 
L 18.109375 75.984375 
z
" id="DejaVuSans-98"/>
      <path d="M 34.28125 27.484375 
Q 23.390625 27.484375 19.1875 25 
Q 14.984375 22.515625 14.984375 16.5 
Q 14.984375 11.71875 18.140625 8.90625 
Q 21.296875 6.109375 26.703125 6.109375 
Q 34.1875 6.109375 38.703125 11.40625 
Q 43.21875 16.703125 43.21875 25.484375 
L 43.21875 27.484375 
z
M 52.203125 31.203125 
L 52.203125 0 
L 43.21875 0 
L 43.21875 8.296875 
Q 40.140625 3.328125 35.546875 0.953125 
Q 30.953125 -1.421875 24.3125 -1.421875 
Q 15.921875 -1.421875 10.953125 3.296875 
Q 6 8.015625 6 15.921875 
Q 6 25.140625 12.171875 29.828125 
Q 18.359375 34.515625 30.609375 34.515625 
L 43.21875 34.515625 
L 43.21875 35.40625 
Q 43.21875 41.609375 39.140625 45 
Q 35.0625 48.390625 27.6875 48.390625 
Q 23 48.390625 18.546875 47.265625 
Q 14.109375 46.140625 10.015625 43.890625 
L 10.015625 52.203125 
Q 14.9375 54.109375 19.578125 55.046875 
Q 24.21875 56 28.609375 56 
Q 40.484375 56 46.34375 49.84375 
Q 52.203125 43.703125 52.203125 31.203125 
z
" id="DejaVuSans-97"/>
      <path d="M 44.28125 53.078125 
L 44.28125 44.578125 
Q 40.484375 46.53125 36.375 47.5 
Q 32.28125 48.484375 27.875 48.484375 
Q 21.1875 48.484375 17.84375 46.4375 
Q 14.5 44.390625 14.5 40.28125 
Q 14.5 37.15625 16.890625 35.375 
Q 19.28125 33.59375 26.515625 31.984375 
L 29.59375 31.296875 
Q 39.15625 29.25 43.1875 25.515625 
Q 47.21875 21.78125 47.21875 15.09375 
Q 47.21875 7.46875 41.1875 3.015625 
Q 35.15625 -1.421875 24.609375 -1.421875 
Q 20.21875 -1.421875 15.453125 -0.5625 
Q 10.6875 0.296875 5.421875 2 
L 5.421875 11.28125 
Q 10.40625 8.6875 15.234375 7.390625 
Q 20.0625 6.109375 24.8125 6.109375 
Q 31.15625 6.109375 34.5625 8.28125 
Q 37.984375 10.453125 37.984375 14.40625 
Q 37.984375 18.0625 35.515625 20.015625 
Q 33.0625 21.96875 24.703125 23.78125 
L 21.578125 24.515625 
Q 13.234375 26.265625 9.515625 29.90625 
Q 5.8125 33.546875 5.8125 39.890625 
Q 5.8125 47.609375 11.28125 51.796875 
Q 16.75 56 26.8125 56 
Q 31.78125 56 36.171875 55.265625 
Q 40.578125 54.546875 44.28125 53.078125 
z
" id="DejaVuSans-115"/>
      <path d="M 56.203125 29.59375 
L 56.203125 25.203125 
L 14.890625 25.203125 
Q 15.484375 15.921875 20.484375 11.0625 
Q 25.484375 6.203125 34.421875 6.203125 
Q 39.59375 6.203125 44.453125 7.46875 
Q 49.3125 8.734375 54.109375 11.28125 
L 54.109375 2.78125 
Q 49.265625 0.734375 44.1875 -0.34375 
Q 39.109375 -1.421875 33.890625 -1.421875 
Q 20.796875 -1.421875 13.15625 6.1875 
Q 5.515625 13.8125 5.515625 26.8125 
Q 5.515625 40.234375 12.765625 48.109375 
Q 20.015625 56 32.328125 56 
Q 43.359375 56 49.78125 48.890625 
Q 56.203125 41.796875 56.203125 29.59375 
z
M 47.21875 32.234375 
Q 47.125 39.59375 43.09375 43.984375 
Q 39.0625 48.390625 32.421875 48.390625 
Q 24.90625 48.390625 20.390625 44.140625 
Q 15.875 39.890625 15.1875 32.171875 
z
" id="DejaVuSans-101"/>
     </defs>
     <g transform="translate(498.576749 59.237813)scale(0.14 -0.14)">
      <use xlink:href="#DejaVuSans-98"/>
      <use x="63.476562" xlink:href="#DejaVuSans-97"/>
      <use x="124.755859" xlink:href="#DejaVuSans-115"/>
      <use x="176.855469" xlink:href="#DejaVuSans-101"/>
     </g>
    </g>
    <g id="patch_6">
     <path d="M 459.376749 79.787188 
L 487.376749 79.787188 
L 487.376749 69.987188 
L 459.376749 69.987188 
z
" style="fill:#36a2eb;opacity:0.5;stroke:#36a2eb;stroke-linejoin:miter;"/>
    </g>
    <g id="text_2">
     <!-- osago -->
     <defs>
      <path d="M 30.609375 48.390625 
Q 23.390625 48.390625 19.1875 42.75 
Q 14.984375 37.109375 14.984375 27.296875 
Q 14.984375 17.484375 19.15625 11.84375 
Q 23.34375 6.203125 30.609375 6.203125 
Q 37.796875 6.203125 41.984375 11.859375 
Q 46.1875 17.53125 46.1875 27.296875 
Q 46.1875 37.015625 41.984375 42.703125 
Q 37.796875 48.390625 30.609375 48.390625 
z
M 30.609375 56 
Q 42.328125 56 49.015625 48.375 
Q 55.71875 40.765625 55.71875 27.296875 
Q 55.71875 13.875 49.015625 6.21875 
Q 42.328125 -1.421875 30.609375 -1.421875 
Q 18.84375 -1.421875 12.171875 6.21875 
Q 5.515625 13.875 5.515625 27.296875 
Q 5.515625 40.765625 12.171875 48.375 
Q 18.84375 56 30.609375 56 
z
" id="DejaVuSans-111"/>
      <path d="M 45.40625 27.984375 
Q 45.40625 37.75 41.375 43.109375 
Q 37.359375 48.484375 30.078125 48.484375 
Q 22.859375 48.484375 18.828125 43.109375 
Q 14.796875 37.75 14.796875 27.984375 
Q 14.796875 18.265625 18.828125 12.890625 
Q 22.859375 7.515625 30.078125 7.515625 
Q 37.359375 7.515625 41.375 12.890625 
Q 45.40625 18.265625 45.40625 27.984375 
z
M 54.390625 6.78125 
Q 54.390625 -7.171875 48.1875 -13.984375 
Q 42 -20.796875 29.203125 -20.796875 
Q 24.46875 -20.796875 20.265625 -20.09375 
Q 16.0625 -19.390625 12.109375 -17.921875 
L 12.109375 -9.1875 
Q 16.0625 -11.328125 19.921875 -12.34375 
Q 23.78125 -13.375 27.78125 -13.375 
Q 36.625 -13.375 41.015625 -8.765625 
Q 45.40625 -4.15625 45.40625 5.171875 
L 45.40625 9.625 
Q 42.625 4.78125 38.28125 2.390625 
Q 33.9375 0 27.875 0 
Q 17.828125 0 11.671875 7.65625 
Q 5.515625 15.328125 5.515625 27.984375 
Q 5.515625 40.671875 11.671875 48.328125 
Q 17.828125 56 27.875 56 
Q 33.9375 56 38.28125 53.609375 
Q 42.625 51.21875 45.40625 46.390625 
L 45.40625 54.6875 
L 54.390625 54.6875 
z
" id="DejaVuSans-103"/>
     </defs>
     <g transform="translate(498.576749 79.787188)scale(0.14 -0.14)">
      <use xlink:href="#DejaVuSans-111"/>
      <use x="61.181641" xlink:href="#DejaVuSans-115"/>
      <use x="113.28125" xlink:href="#DejaVuSans-97"/>
      <use x="174.560547" xlink:href="#DejaVuSans-103"/>
      <use x="238.037109" xlink:href="#DejaVuSans-111"/>
     </g>
    </g>
   </g>
  </g>
  <g id="axes_2">
   <g id="patch_7">
    <path d="M 50.869561 525.24 
L 553.069561 525.24 
L 553.069561 402.93 
L 50.869561 402.93 
z
" style="fill:none;"/>
   </g>
   <g id="patch_8">
    <path clip-path="url(#pe0ed680ece)" d="M 202.430163 519.680455 
L 418.038138 519.680455 
L 418.038138 482.616818 
L 202.430163 482.616818 
z
" style="fill:#ff6384;opacity:0.5;"/>
   </g>
   <g id="patch_9">
    <path clip-path="url(#pe0ed680ece)" d="M 184.712385 445.553182 
L 398.036385 445.553182 
L 398.036385 408.489545 
L 184.712385 408.489545 
z
" style="fill:#36a2eb;opacity:0.5;"/>
   </g>
   <g id="matplotlib.axis_1">
    <g id="xtick_1">
     <g id="line2d_3">
      <defs>
       <path d="M 0 0 
L 0 3.5 
" id="m89f801edbd" style="stroke:#000000;stroke-width:0.8;"/>
      </defs>
      <g>
       <use style="stroke:#000000;stroke-width:0.8;" x="51.585938" xlink:href="#m89f801edbd" y="525.24"/>
      </g>
     </g>
     <g id="text_3">
      <!-- 0.50 -->
      <defs>
       <path d="M 31.78125 66.40625 
Q 24.171875 66.40625 20.328125 58.90625 
Q 16.5 51.421875 16.5 36.375 
Q 16.5 21.390625 20.328125 13.890625 
Q 24.171875 6.390625 31.78125 6.390625 
Q 39.453125 6.390625 43.28125 13.890625 
Q 47.125 21.390625 47.125 36.375 
Q 47.125 51.421875 43.28125 58.90625 
Q 39.453125 66.40625 31.78125 66.40625 
z
M 31.78125 74.21875 
Q 44.046875 74.21875 50.515625 64.515625 
Q 56.984375 54.828125 56.984375 36.375 
Q 56.984375 17.96875 50.515625 8.265625 
Q 44.046875 -1.421875 31.78125 -1.421875 
Q 19.53125 -1.421875 13.0625 8.265625 
Q 6.59375 17.96875 6.59375 36.375 
Q 6.59375 54.828125 13.0625 64.515625 
Q 19.53125 74.21875 31.78125 74.21875 
z
" id="DejaVuSans-48"/>
       <path d="M 10.6875 12.40625 
L 21 12.40625 
L 21 0 
L 10.6875 0 
z
" id="DejaVuSans-46"/>
       <path d="M 10.796875 72.90625 
L 49.515625 72.90625 
L 49.515625 64.59375 
L 19.828125 64.59375 
L 19.828125 46.734375 
Q 21.96875 47.46875 24.109375 47.828125 
Q 26.265625 48.1875 28.421875 48.1875 
Q 40.625 48.1875 47.75 41.5 
Q 54.890625 34.8125 54.890625 23.390625 
Q 54.890625 11.625 47.5625 5.09375 
Q 40.234375 -1.421875 26.90625 -1.421875 
Q 22.3125 -1.421875 17.546875 -0.640625 
Q 12.796875 0.140625 7.71875 1.703125 
L 7.71875 11.625 
Q 12.109375 9.234375 16.796875 8.0625 
Q 21.484375 6.890625 26.703125 6.890625 
Q 35.15625 6.890625 40.078125 11.328125 
Q 45.015625 15.765625 45.015625 23.390625 
Q 45.015625 31 40.078125 35.4375 
Q 35.15625 39.890625 26.703125 39.890625 
Q 22.75 39.890625 18.8125 39.015625 
Q 14.890625 38.140625 10.796875 36.28125 
z
" id="DejaVuSans-53"/>
      </defs>
      <g transform="translate(36 542.877813)scale(0.14 -0.14)">
       <use xlink:href="#DejaVuSans-48"/>
       <use x="63.623047" xlink:href="#DejaVuSans-46"/>
       <use x="95.410156" xlink:href="#DejaVuSans-53"/>
       <use x="159.033203" xlink:href="#DejaVuSans-48"/>
      </g>
     </g>
    </g>
    <g id="xtick_2">
     <g id="line2d_4">
      <g>
       <use style="stroke:#000000;stroke-width:0.8;" x="118.942243" xlink:href="#m89f801edbd" y="525.24"/>
      </g>
     </g>
     <g id="text_4">
      <!-- 0.75 -->
      <defs>
       <path d="M 8.203125 72.90625 
L 55.078125 72.90625 
L 55.078125 68.703125 
L 28.609375 0 
L 18.3125 0 
L 43.21875 64.59375 
L 8.203125 64.59375 
z
" id="DejaVuSans-55"/>
      </defs>
      <g transform="translate(103.356305 542.877813)scale(0.14 -0.14)">
       <use xlink:href="#DejaVuSans-48"/>
       <use x="63.623047" xlink:href="#DejaVuSans-46"/>
       <use x="95.410156" xlink:href="#DejaVuSans-55"/>
       <use x="159.033203" xlink:href="#DejaVuSans-53"/>
      </g>
     </g>
    </g>
    <g id="xtick_3">
     <g id="line2d_5">
      <g>
       <use style="stroke:#000000;stroke-width:0.8;" x="186.298548" xlink:href="#m89f801edbd" y="525.24"/>
      </g>
     </g>
     <g id="text_5">
      <!-- 1.00 -->
      <defs>
       <path d="M 12.40625 8.296875 
L 28.515625 8.296875 
L 28.515625 63.921875 
L 10.984375 60.40625 
L 10.984375 69.390625 
L 28.421875 72.90625 
L 38.28125 72.90625 
L 38.28125 8.296875 
L 54.390625 8.296875 
L 54.390625 0 
L 12.40625 0 
z
" id="DejaVuSans-49"/>
      </defs>
      <g transform="translate(170.712611 542.877813)scale(0.14 -0.14)">
       <use xlink:href="#DejaVuSans-49"/>
       <use x="63.623047" xlink:href="#DejaVuSans-46"/>
       <use x="95.410156" xlink:href="#DejaVuSans-48"/>
       <use x="159.033203" xlink:href="#DejaVuSans-48"/>
      </g>
     </g>
    </g>
    <g id="xtick_4">
     <g id="line2d_6">
      <g>
       <use style="stroke:#000000;stroke-width:0.8;" x="253.654854" xlink:href="#m89f801edbd" y="525.24"/>
      </g>
     </g>
     <g id="text_6">
      <!-- 1.25 -->
      <defs>
       <path d="M 19.1875 8.296875 
L 53.609375 8.296875 
L 53.609375 0 
L 7.328125 0 
L 7.328125 8.296875 
Q 12.9375 14.109375 22.625 23.890625 
Q 32.328125 33.6875 34.8125 36.53125 
Q 39.546875 41.84375 41.421875 45.53125 
Q 43.3125 49.21875 43.3125 52.78125 
Q 43.3125 58.59375 39.234375 62.25 
Q 35.15625 65.921875 28.609375 65.921875 
Q 23.96875 65.921875 18.8125 64.3125 
Q 13.671875 62.703125 7.8125 59.421875 
L 7.8125 69.390625 
Q 13.765625 71.78125 18.9375 73 
Q 24.125 74.21875 28.421875 74.21875 
Q 39.75 74.21875 46.484375 68.546875 
Q 53.21875 62.890625 53.21875 53.421875 
Q 53.21875 48.921875 51.53125 44.890625 
Q 49.859375 40.875 45.40625 35.40625 
Q 44.1875 33.984375 37.640625 27.21875 
Q 31.109375 20.453125 19.1875 8.296875 
z
" id="DejaVuSans-50"/>
      </defs>
      <g transform="translate(238.068916 542.877813)scale(0.14 -0.14)">
       <use xlink:href="#DejaVuSans-49"/>
       <use x="63.623047" xlink:href="#DejaVuSans-46"/>
       <use x="95.410156" xlink:href="#DejaVuSans-50"/>
       <use x="159.033203" xlink:href="#DejaVuSans-53"/>
      </g>
     </g>
    </g>
    <g id="xtick_5">
     <g id="line2d_7">
      <g>
       <use style="stroke:#000000;stroke-width:0.8;" x="321.011159" xlink:href="#m89f801edbd" y="525.24"/>
      </g>
     </g>
     <g id="text_7">
      <!-- 1.50 -->
      <g transform="translate(305.425222 542.877813)scale(0.14 -0.14)">
       <use xlink:href="#DejaVuSans-49"/>
       <use x="63.623047" xlink:href="#DejaVuSans-46"/>
       <use x="95.410156" xlink:href="#DejaVuSans-53"/>
       <use x="159.033203" xlink:href="#DejaVuSans-48"/>
      </g>
     </g>
    </g>
    <g id="xtick_6">
     <g id="line2d_8">
      <g>
       <use style="stroke:#000000;stroke-width:0.8;" x="388.367465" xlink:href="#m89f801edbd" y="525.24"/>
      </g>
     </g>
     <g id="text_8">
      <!-- 1.75 -->
      <g transform="translate(372.781527 542.877813)scale(0.14 -0.14)">
       <use xlink:href="#DejaVuSans-49"/>
       <use x="63.623047" xlink:href="#DejaVuSans-46"/>
       <use x="95.410156" xlink:href="#DejaVuSans-55"/>
       <use x="159.033203" xlink:href="#DejaVuSans-53"/>
      </g>
     </g>
    </g>
    <g id="xtick_7">
     <g id="line2d_9">
      <g>
       <use style="stroke:#000000;stroke-width:0.8;" x="455.72377" xlink:href="#m89f801edbd" y="525.24"/>
      </g>
     </g>
     <g id="text_9">
      <!-- 2.00 -->
      <g transform="translate(440.137833 542.877813)scale(0.14 -0.14)">
       <use xlink:href="#DejaVuSans-50"/>
       <use x="63.623047" xlink:href="#DejaVuSans-46"/>
       <use x="95.410156" xlink:href="#DejaVuSans-48"/>
       <use x="159.033203" xlink:href="#DejaVuSans-48"/>
      </g>
     </g>
    </g>
    <g id="xtick_8">
     <g id="line2d_10">
      <g>
       <use style="stroke:#000000;stroke-width:0.8;" x="523.080075" xlink:href="#m89f801edbd" y="525.24"/>
      </g>
     </g>
     <g id="text_10">
      <!-- 2.25 -->
      <g transform="translate(507.494138 542.877813)scale(0.14 -0.14)">
       <use xlink:href="#DejaVuSans-50"/>
       <use x="63.623047" xlink:href="#DejaVuSans-46"/>
       <use x="95.410156" xlink:href="#DejaVuSans-50"/>
       <use x="159.033203" xlink:href="#DejaVuSans-53"/>
      </g>
     </g>
    </g>
   </g>
   <g id="line2d_11">
    <path clip-path="url(#pe0ed680ece)" d="M 310.23415 525.24 
L 310.23415 402.93 
" style="fill:none;stroke:#ff6384;stroke-dasharray:5.55,2.4;stroke-dashoffset:0;stroke-opacity:0.8;stroke-width:1.5;"/>
   </g>
   <g id="line2d_12">
    <path clip-path="url(#pe0ed680ece)" d="M 291.374385 525.24 
L 291.374385 402.93 
" style="fill:none;stroke:#36a2eb;stroke-dasharray:5.55,2.4;stroke-dashoffset:0;stroke-opacity:0.8;stroke-width:1.5;"/>
   </g>
   <g id="patch_10">
    <path d="M 50.869561 525.24 
L 553.069561 525.24 
" style="fill:none;stroke:#000000;stroke-linecap:square;stroke-linejoin:miter;stroke-width:0.8;"/>
   </g>
  </g>
 </g>
 <defs>
  <clipPath id="p3c39331502">
   <rect height="366.93" width="502.2" x="50.869561" y="36"/>
  </clipPath>
  <clipPath id="pe0ed680ece">
   <rect height="122.31" width="502.2" x="50.869561" y="402.93"/>
  </clipPath>
 </defs>
</svg>
