<?xml version="1.0" encoding="utf-8" standalone="no"?>
<!DOCTYPE svg PUBLIC "-//W3C//DTD SVG 1.1//EN"
  "http://www.w3.org/Graphics/SVG/1.1/DTD/svg11.dtd">
<!-- Created with matplotlib (https://matplotlib.org/) -->
<svg height="581.789375pt" version="1.1" viewBox="0 0 589.069465 581.789375" width="589.069465pt" xmlns="http://www.w3.org/2000/svg" xmlns:xlink="http://www.w3.org/1999/xlink">
 <defs>
  <style type="text/css">
*{stroke-linecap:butt;stroke-linejoin:round;}
  </style>
 </defs>
 <g id="figure_1">
  <g id="patch_1">
   <path d="M 0 581.789375 
L 589.069465 581.789375 
L 589.069465 0 
L 0 0 
z
" style="fill:none;"/>
  </g>
  <g id="axes_1">
   <g id="patch_2">
    <path d="M 50.869465 402.93 
L 553.069465 402.93 
L 553.069465 36 
L 50.869465 36 
z
" style="fill:none;"/>
   </g>
   <g id="PolyCollection_1">
    <defs>
     <path d="M 90.223851 -195.538011 
L 90.223851 -195.648817 
L 94.668481 -195.690599 
L 99.113111 -195.74677 
L 103.557741 -195.821759 
L 108.00237 -195.921175 
L 112.447 -196.052056 
L 116.89163 -196.223155 
L 121.336259 -196.44526 
L 125.780889 -196.731545 
L 130.225519 -197.09795 
L 134.670148 -197.563568 
L 139.114778 -198.151046 
L 143.559408 -198.886972 
L 148.004038 -199.802227 
L 152.448667 -200.932276 
L 156.893297 -202.317382 
L 161.337927 -204.002694 
L 165.782556 -206.038174 
L 170.227186 -208.478344 
L 174.671816 -211.381796 
L 179.116445 -214.810443 
L 183.561075 -218.828478 
L 188.005705 -223.501022 
L 192.450335 -228.89246 
L 196.894964 -235.064448 
L 201.339594 -242.073648 
L 205.784224 -249.969188 
L 210.228853 -258.789954 
L 214.673483 -268.561756 
L 219.118113 -279.29449 
L 223.562743 -290.979411 
L 228.007372 -303.586642 
L 232.452002 -317.063064 
L 236.896632 -331.33072 
L 241.341261 -346.285874 
L 245.785891 -361.798845 
L 250.230521 -377.71471 
L 254.67515 -393.854936 
L 259.11978 -410.019993 
L 263.56441 -425.992902 
L 268.00904 -441.543685 
L 272.453669 -456.434599 
L 276.898299 -470.425994 
L 281.342929 -483.282617 
L 285.787558 -494.780121 
L 290.232188 -504.711542 
L 294.676818 -512.893477 
L 299.121448 -519.171713 
L 303.566077 -523.426055 
L 308.010707 -525.574152 
L 312.455337 -525.574152 
L 316.899966 -523.426055 
L 321.344596 -519.171713 
L 325.789226 -512.893477 
L 330.233855 -504.711542 
L 334.678485 -494.780121 
L 339.123115 -483.282617 
L 343.567745 -470.425994 
L 348.012374 -456.434599 
L 352.457004 -441.543685 
L 356.901634 -425.992902 
L 361.346263 -410.019993 
L 365.790893 -393.854936 
L 370.235523 -377.71471 
L 374.680152 -361.798845 
L 379.124782 -346.285874 
L 383.569412 -331.33072 
L 388.014042 -317.063064 
L 392.458671 -303.586642 
L 396.903301 -290.979411 
L 401.347931 -279.29449 
L 405.79256 -268.561756 
L 410.23719 -258.789954 
L 414.68182 -249.969188 
L 419.12645 -242.073648 
L 423.571079 -235.064448 
L 428.015709 -228.89246 
L 432.460339 -223.501022 
L 436.904968 -218.828478 
L 441.349598 -214.810443 
L 445.794228 -211.381796 
L 450.238857 -208.478344 
L 454.683487 -206.038174 
L 459.128117 -204.002694 
L 463.572747 -202.317382 
L 468.017376 -200.932276 
L 472.462006 -199.802227 
L 476.906636 -198.886972 
L 481.351265 -198.151046 
L 485.795895 -197.563568 
L 490.240525 -197.09795 
L 494.685154 -196.731545 
L 499.129784 -196.44526 
L 503.574414 -196.223155 
L 508.019044 -196.052056 
L 512.463673 -195.921175 
L 516.908303 -195.821759 
L 521.352933 -195.74677 
L 525.797562 -195.690599 
L 530.242192 -195.648817 
L 530.242192 -195.538011 
L 530.242192 -195.538011 
L 525.797562 -195.538011 
L 521.352933 -195.538011 
L 516.908303 -195.538011 
L 512.463673 -195.538011 
L 508.019044 -195.538011 
L 503.574414 -195.538011 
L 499.129784 -195.538011 
L 494.685154 -195.538011 
L 490.240525 -195.538011 
L 485.795895 -195.538011 
L 481.351265 -195.538011 
L 476.906636 -195.538011 
L 472.462006 -195.538011 
L 468.017376 -195.538011 
L 463.572747 -195.538011 
L 459.128117 -195.538011 
L 454.683487 -195.538011 
L 450.238857 -195.538011 
L 445.794228 -195.538011 
L 441.349598 -195.538011 
L 436.904968 -195.538011 
L 432.460339 -195.538011 
L 428.015709 -195.538011 
L 423.571079 -195.538011 
L 419.12645 -195.538011 
L 414.68182 -195.538011 
L 410.23719 -195.538011 
L 405.79256 -195.538011 
L 401.347931 -195.538011 
L 396.903301 -195.538011 
L 392.458671 -195.538011 
L 388.014042 -195.538011 
L 383.569412 -195.538011 
L 379.124782 -195.538011 
L 374.680152 -195.538011 
L 370.235523 -195.538011 
L 365.790893 -195.538011 
L 361.346263 -195.538011 
L 356.901634 -195.538011 
L 352.457004 -195.538011 
L 348.012374 -195.538011 
L 343.567745 -195.538011 
L 339.123115 -195.538011 
L 334.678485 -195.538011 
L 330.233855 -195.538011 
L 325.789226 -195.538011 
L 321.344596 -195.538011 
L 316.899966 -195.538011 
L 312.455337 -195.538011 
L 308.010707 -195.538011 
L 303.566077 -195.538011 
L 299.121448 -195.538011 
L 294.676818 -195.538011 
L 290.232188 -195.538011 
L 285.787558 -195.538011 
L 281.342929 -195.538011 
L 276.898299 -195.538011 
L 272.453669 -195.538011 
L 268.00904 -195.538011 
L 263.56441 -195.538011 
L 259.11978 -195.538011 
L 254.67515 -195.538011 
L 250.230521 -195.538011 
L 245.785891 -195.538011 
L 241.341261 -195.538011 
L 236.896632 -195.538011 
L 232.452002 -195.538011 
L 228.007372 -195.538011 
L 223.562743 -195.538011 
L 219.118113 -195.538011 
L 214.673483 -195.538011 
L 210.228853 -195.538011 
L 205.784224 -195.538011 
L 201.339594 -195.538011 
L 196.894964 -195.538011 
L 192.450335 -195.538011 
L 188.005705 -195.538011 
L 183.561075 -195.538011 
L 179.116445 -195.538011 
L 174.671816 -195.538011 
L 170.227186 -195.538011 
L 165.782556 -195.538011 
L 161.337927 -195.538011 
L 156.893297 -195.538011 
L 152.448667 -195.538011 
L 148.004038 -195.538011 
L 143.559408 -195.538011 
L 139.114778 -195.538011 
L 134.670148 -195.538011 
L 130.225519 -195.538011 
L 125.780889 -195.538011 
L 121.336259 -195.538011 
L 116.89163 -195.538011 
L 112.447 -195.538011 
L 108.00237 -195.538011 
L 103.557741 -195.538011 
L 99.113111 -195.538011 
L 94.668481 -195.538011 
L 90.223851 -195.538011 
z
" id="m7ce9ee140b" style="stroke:#ff6384;stroke-opacity:0.5;"/>
    </defs>
    <g clip-path="url(#pf9edc4c015)">
     <use style="fill:#ff6384;fill-opacity:0.5;stroke:#ff6384;stroke-opacity:0.5;" x="0" xlink:href="#m7ce9ee140b" y="581.789375"/>
    </g>
   </g>
   <g id="PolyCollection_2">
    <defs>
     <path d="M 73.696738 -195.538011 
L 73.696738 -195.650004 
L 78.094245 -195.692234 
L 82.491752 -195.749007 
L 86.889259 -195.8248 
L 91.286766 -195.925281 
L 95.684273 -196.057565 
L 100.08178 -196.230497 
L 104.479287 -196.454982 
L 108.876794 -196.744335 
L 113.274301 -197.114666 
L 117.671808 -197.585273 
L 122.069316 -198.179047 
L 126.466823 -198.922859 
L 130.86433 -199.847921 
L 135.261837 -200.990079 
L 139.659344 -202.390029 
L 144.056851 -204.093399 
L 148.454358 -206.150691 
L 152.851865 -208.617009 
L 157.249372 -211.551575 
L 161.646879 -215.016962 
L 166.044386 -219.078053 
L 170.441894 -223.800667 
L 174.839401 -229.249878 
L 179.236908 -235.488004 
L 183.634415 -242.572312 
L 188.031922 -250.552459 
L 192.429429 -259.467747 
L 196.826936 -269.344261 
L 201.224443 -280.192004 
L 205.62195 -292.002137 
L 210.019457 -304.744465 
L 214.416964 -318.365297 
L 218.814472 -332.785841 
L 223.211979 -347.901251 
L 227.609486 -363.580456 
L 232.006993 -379.666871 
L 236.4045 -395.980052 
L 240.802007 -412.31833 
L 245.199514 -428.4624 
L 249.597021 -444.179822 
L 253.994528 -459.230303 
L 258.392035 -473.371627 
L 262.789542 -486.366018 
L 267.18705 -497.986726 
L 271.584557 -508.02457 
L 275.982064 -516.294181 
L 280.379571 -522.639693 
L 284.777078 -526.939623 
L 289.174585 -529.110739 
L 293.572092 -529.110739 
L 297.969599 -526.939623 
L 302.367106 -522.639693 
L 306.764613 -516.294181 
L 311.16212 -508.02457 
L 315.559628 -497.986726 
L 319.957135 -486.366018 
L 324.354642 -473.371627 
L 328.752149 -459.230303 
L 333.149656 -444.179822 
L 337.547163 -428.4624 
L 341.94467 -412.31833 
L 346.342177 -395.980052 
L 350.739684 -379.666871 
L 355.137191 -363.580456 
L 359.534698 -347.901251 
L 363.932206 -332.785841 
L 368.329713 -318.365297 
L 372.72722 -304.744465 
L 377.124727 -292.002137 
L 381.522234 -280.192004 
L 385.919741 -269.344261 
L 390.317248 -259.467747 
L 394.714755 -250.552459 
L 399.112262 -242.572312 
L 403.509769 -235.488004 
L 407.907276 -229.249878 
L 412.304784 -223.800667 
L 416.702291 -219.078053 
L 421.099798 -215.016962 
L 425.497305 -211.551575 
L 429.894812 -208.617009 
L 434.292319 -206.150691 
L 438.689826 -204.093399 
L 443.087333 -202.390029 
L 447.48484 -200.990079 
L 451.882347 -199.847921 
L 456.279854 -198.922859 
L 460.677362 -198.179047 
L 465.074869 -197.585273 
L 469.472376 -197.114666 
L 473.869883 -196.744335 
L 478.26739 -196.454982 
L 482.664897 -196.230497 
L 487.062404 -196.057565 
L 491.459911 -195.925281 
L 495.857418 -195.8248 
L 500.254925 -195.749007 
L 504.652432 -195.692234 
L 509.049939 -195.650004 
L 509.049939 -195.538011 
L 509.049939 -195.538011 
L 504.652432 -195.538011 
L 500.254925 -195.538011 
L 495.857418 -195.538011 
L 491.459911 -195.538011 
L 487.062404 -195.538011 
L 482.664897 -195.538011 
L 478.26739 -195.538011 
L 473.869883 -195.538011 
L 469.472376 -195.538011 
L 465.074869 -195.538011 
L 460.677362 -195.538011 
L 456.279854 -195.538011 
L 451.882347 -195.538011 
L 447.48484 -195.538011 
L 443.087333 -195.538011 
L 438.689826 -195.538011 
L 434.292319 -195.538011 
L 429.894812 -195.538011 
L 425.497305 -195.538011 
L 421.099798 -195.538011 
L 416.702291 -195.538011 
L 412.304784 -195.538011 
L 407.907276 -195.538011 
L 403.509769 -195.538011 
L 399.112262 -195.538011 
L 394.714755 -195.538011 
L 390.317248 -195.538011 
L 385.919741 -195.538011 
L 381.522234 -195.538011 
L 377.124727 -195.538011 
L 372.72722 -195.538011 
L 368.329713 -195.538011 
L 363.932206 -195.538011 
L 359.534698 -195.538011 
L 355.137191 -195.538011 
L 350.739684 -195.538011 
L 346.342177 -195.538011 
L 341.94467 -195.538011 
L 337.547163 -195.538011 
L 333.149656 -195.538011 
L 328.752149 -195.538011 
L 324.354642 -195.538011 
L 319.957135 -195.538011 
L 315.559628 -195.538011 
L 311.16212 -195.538011 
L 306.764613 -195.538011 
L 302.367106 -195.538011 
L 297.969599 -195.538011 
L 293.572092 -195.538011 
L 289.174585 -195.538011 
L 284.777078 -195.538011 
L 280.379571 -195.538011 
L 275.982064 -195.538011 
L 271.584557 -195.538011 
L 267.18705 -195.538011 
L 262.789542 -195.538011 
L 258.392035 -195.538011 
L 253.994528 -195.538011 
L 249.597021 -195.538011 
L 245.199514 -195.538011 
L 240.802007 -195.538011 
L 236.4045 -195.538011 
L 232.006993 -195.538011 
L 227.609486 -195.538011 
L 223.211979 -195.538011 
L 218.814472 -195.538011 
L 214.416964 -195.538011 
L 210.019457 -195.538011 
L 205.62195 -195.538011 
L 201.224443 -195.538011 
L 196.826936 -195.538011 
L 192.429429 -195.538011 
L 188.031922 -195.538011 
L 183.634415 -195.538011 
L 179.236908 -195.538011 
L 174.839401 -195.538011 
L 170.441894 -195.538011 
L 166.044386 -195.538011 
L 161.646879 -195.538011 
L 157.249372 -195.538011 
L 152.851865 -195.538011 
L 148.454358 -195.538011 
L 144.056851 -195.538011 
L 139.659344 -195.538011 
L 135.261837 -195.538011 
L 130.86433 -195.538011 
L 126.466823 -195.538011 
L 122.069316 -195.538011 
L 117.671808 -195.538011 
L 113.274301 -195.538011 
L 108.876794 -195.538011 
L 104.479287 -195.538011 
L 100.08178 -195.538011 
L 95.684273 -195.538011 
L 91.286766 -195.538011 
L 86.889259 -195.538011 
L 82.491752 -195.538011 
L 78.094245 -195.538011 
L 73.696738 -195.538011 
z
" id="mc05382cfec" style="stroke:#36a2eb;stroke-opacity:0.5;"/>
    </defs>
    <g clip-path="url(#pf9edc4c015)">
     <use style="fill:#36a2eb;fill-opacity:0.5;stroke:#36a2eb;stroke-opacity:0.5;" x="0" xlink:href="#mc05382cfec" y="581.789375"/>
    </g>
   </g>
   <g id="line2d_1">
    <path clip-path="url(#pf9edc4c015)" d="M 90.223851 386.140558 
L 94.668481 386.098776 
L 99.113111 386.042605 
L 103.557741 385.967616 
L 108.00237 385.8682 
L 112.447 385.737319 
L 116.89163 385.56622 
L 121.336259 385.344115 
L 125.780889 385.05783 
L 130.225519 384.691425 
L 134.670148 384.225807 
L 139.114778 383.638329 
L 143.559408 382.902403 
L 148.004038 381.987148 
L 152.448667 380.857099 
L 156.893297 379.471993 
L 161.337927 377.786681 
L 165.782556 375.751201 
L 170.227186 373.311031 
L 174.671816 370.407579 
L 179.116445 366.978932 
L 183.561075 362.960897 
L 188.005705 358.288353 
L 192.450335 352.896915 
L 196.894964 346.724927 
L 201.339594 339.715727 
L 205.784224 331.820187 
L 210.228853 322.999421 
L 214.673483 313.227619 
L 219.118113 302.494885 
L 223.562743 290.809964 
L 228.007372 278.202733 
L 232.452002 264.726311 
L 236.896632 250.458655 
L 241.341261 235.503501 
L 245.785891 219.99053 
L 250.230521 204.074665 
L 254.67515 187.934439 
L 259.11978 171.769382 
L 263.56441 155.796473 
L 268.00904 140.24569 
L 272.453669 125.354776 
L 276.898299 111.363381 
L 281.342929 98.506758 
L 285.787558 87.009254 
L 290.232188 77.077833 
L 294.676818 68.895898 
L 299.121448 62.617662 
L 303.566077 58.36332 
L 308.010707 56.215223 
L 312.455337 56.215223 
L 316.899966 58.36332 
L 321.344596 62.617662 
L 325.789226 68.895898 
L 330.233855 77.077833 
L 334.678485 87.009254 
L 339.123115 98.506758 
L 343.567745 111.363381 
L 348.012374 125.354776 
L 352.457004 140.24569 
L 356.901634 155.796473 
L 361.346263 171.769382 
L 365.790893 187.934439 
L 370.235523 204.074665 
L 374.680152 219.99053 
L 379.124782 235.503501 
L 383.569412 250.458655 
L 388.014042 264.726311 
L 392.458671 278.202733 
L 396.903301 290.809964 
L 401.347931 302.494885 
L 405.79256 313.227619 
L 410.23719 322.999421 
L 414.68182 331.820187 
L 419.12645 339.715727 
L 423.571079 346.724927 
L 428.015709 352.896915 
L 432.460339 358.288353 
L 436.904968 362.960897 
L 441.349598 366.978932 
L 445.794228 370.407579 
L 450.238857 373.311031 
L 454.683487 375.751201 
L 459.128117 377.786681 
L 463.572747 379.471993 
L 468.017376 380.857099 
L 472.462006 381.987148 
L 476.906636 382.902403 
L 481.351265 383.638329 
L 485.795895 384.225807 
L 490.240525 384.691425 
L 494.685154 385.05783 
L 499.129784 385.344115 
L 503.574414 385.56622 
L 508.019044 385.737319 
L 512.463673 385.8682 
L 516.908303 385.967616 
L 521.352933 386.042605 
L 525.797562 386.098776 
L 530.242192 386.140558 
" style="fill:none;stroke:#ff6384;stroke-linecap:square;"/>
   </g>
   <g id="line2d_2">
    <path clip-path="url(#pf9edc4c015)" d="M 73.696738 386.139371 
L 78.094245 386.097141 
L 82.491752 386.040368 
L 86.889259 385.964575 
L 91.286766 385.864094 
L 95.684273 385.73181 
L 100.08178 385.558878 
L 104.479287 385.334393 
L 108.876794 385.04504 
L 113.274301 384.674709 
L 117.671808 384.204102 
L 122.069316 383.610328 
L 126.466823 382.866516 
L 130.86433 381.941454 
L 135.261837 380.799296 
L 139.659344 379.399346 
L 144.056851 377.695976 
L 148.454358 375.638684 
L 152.851865 373.172366 
L 157.249372 370.2378 
L 161.646879 366.772413 
L 166.044386 362.711322 
L 170.441894 357.988708 
L 174.839401 352.539497 
L 179.236908 346.301371 
L 183.634415 339.217063 
L 188.031922 331.236916 
L 192.429429 322.321628 
L 196.826936 312.445114 
L 201.224443 301.597371 
L 205.62195 289.787238 
L 210.019457 277.04491 
L 214.416964 263.424078 
L 218.814472 249.003534 
L 223.211979 233.888124 
L 227.609486 218.208919 
L 232.006993 202.122504 
L 236.4045 185.809323 
L 240.802007 169.471045 
L 245.199514 153.326975 
L 249.597021 137.609553 
L 253.994528 122.559072 
L 258.392035 108.417748 
L 262.789542 95.423357 
L 267.18705 83.802649 
L 271.584557 73.764805 
L 275.982064 65.495194 
L 280.379571 59.149682 
L 284.777078 54.849752 
L 289.174585 52.678636 
L 293.572092 52.678636 
L 297.969599 54.849752 
L 302.367106 59.149682 
L 306.764613 65.495194 
L 311.16212 73.764805 
L 315.559628 83.802649 
L 319.957135 95.423357 
L 324.354642 108.417748 
L 328.752149 122.559072 
L 333.149656 137.609553 
L 337.547163 153.326975 
L 341.94467 169.471045 
L 346.342177 185.809323 
L 350.739684 202.122504 
L 355.137191 218.208919 
L 359.534698 233.888124 
L 363.932206 249.003534 
L 368.329713 263.424078 
L 372.72722 277.04491 
L 377.124727 289.787238 
L 381.522234 301.597371 
L 385.919741 312.445114 
L 390.317248 322.321628 
L 394.714755 331.236916 
L 399.112262 339.217063 
L 403.509769 346.301371 
L 407.907276 352.539497 
L 412.304784 357.988708 
L 416.702291 362.711322 
L 421.099798 366.772413 
L 425.497305 370.2378 
L 429.894812 373.172366 
L 434.292319 375.638684 
L 438.689826 377.695976 
L 443.087333 379.399346 
L 447.48484 380.799296 
L 451.882347 381.941454 
L 456.279854 382.866516 
L 460.677362 383.610328 
L 465.074869 384.204102 
L 469.472376 384.674709 
L 473.869883 385.04504 
L 478.26739 385.334393 
L 482.664897 385.558878 
L 487.062404 385.73181 
L 491.459911 385.864094 
L 495.857418 385.964575 
L 500.254925 386.040368 
L 504.652432 386.097141 
L 509.049939 386.139371 
" style="fill:none;stroke:#36a2eb;stroke-linecap:square;"/>
   </g>
   <g id="patch_3">
    <path d="M 50.869465 402.93 
L 553.069465 402.93 
" style="fill:none;stroke:#000000;stroke-linecap:square;stroke-linejoin:miter;stroke-width:0.8;"/>
   </g>
   <g id="legend_1">
    <g id="patch_4">
     <path d="M 456.576652 88.29875 
L 543.269465 88.29875 
Q 546.069465 88.29875 546.069465 85.49875 
L 546.069465 45.8 
Q 546.069465 43 543.269465 43 
L 456.576652 43 
Q 453.776652 43 453.776652 45.8 
L 453.776652 85.49875 
Q 453.776652 88.29875 456.576652 88.29875 
z
" style="fill:#ffffff;opacity:0.8;stroke:#cccccc;stroke-linejoin:miter;"/>
    </g>
    <g id="patch_5">
     <path d="M 459.376652 59.237813 
L 487.376652 59.237813 
L 487.376652 49.437813 
L 459.376652 49.437813 
z
" style="fill:#ff6384;opacity:0.5;stroke:#ff6384;stroke-linejoin:miter;"/>
    </g>
    <g id="text_1">
     <!-- base -->
     <defs>
      <path d="M 48.6875 27.296875 
Q 48.6875 37.203125 44.609375 42.84375 
Q 40.53125 48.484375 33.40625 48.484375 
Q 26.265625 48.484375 22.1875 42.84375 
Q 18.109375 37.203125 18.109375 27.296875 
Q 18.109375 17.390625 22.1875 11.75 
Q 26.265625 6.109375 33.40625 6.109375 
Q 40.53125 6.109375 44.609375 11.75 
Q 48.6875 17.390625 48.6875 27.296875 
z
M 18.109375 46.390625 
Q 20.953125 51.265625 25.265625 53.625 
Q 29.59375 56 35.59375 56 
Q 45.5625 56 51.78125 48.09375 
Q 58.015625 40.1875 58.015625 27.296875 
Q 58.015625 14.40625 51.78125 6.484375 
Q 45.5625 -1.421875 35.59375 -1.421875 
Q 29.59375 -1.421875 25.265625 0.953125 
Q 20.953125 3.328125 18.109375 8.203125 
L 18.109375 0 
L 9.078125 0 
L 9.078125 75.984375 
L 18.109375 75.984375 
z
" id="DejaVuSans-98"/>
      <path d="M 34.28125 27.484375 
Q 23.390625 27.484375 19.1875 25 
Q 14.984375 22.515625 14.984375 16.5 
Q 14.984375 11.71875 18.140625 8.90625 
Q 21.296875 6.109375 26.703125 6.109375 
Q 34.1875 6.109375 38.703125 11.40625 
Q 43.21875 16.703125 43.21875 25.484375 
L 43.21875 27.484375 
z
M 52.203125 31.203125 
L 52.203125 0 
L 43.21875 0 
L 43.21875 8.296875 
Q 40.140625 3.328125 35.546875 0.953125 
Q 30.953125 -1.421875 24.3125 -1.421875 
Q 15.921875 -1.421875 10.953125 3.296875 
Q 6 8.015625 6 15.921875 
Q 6 25.140625 12.171875 29.828125 
Q 18.359375 34.515625 30.609375 34.515625 
L 43.21875 34.515625 
L 43.21875 35.40625 
Q 43.21875 41.609375 39.140625 45 
Q 35.0625 48.390625 27.6875 48.390625 
Q 23 48.390625 18.546875 47.265625 
Q 14.109375 46.140625 10.015625 43.890625 
L 10.015625 52.203125 
Q 14.9375 54.109375 19.578125 55.046875 
Q 24.21875 56 28.609375 56 
Q 40.484375 56 46.34375 49.84375 
Q 52.203125 43.703125 52.203125 31.203125 
z
" id="DejaVuSans-97"/>
      <path d="M 44.28125 53.078125 
L 44.28125 44.578125 
Q 40.484375 46.53125 36.375 47.5 
Q 32.28125 48.484375 27.875 48.484375 
Q 21.1875 48.484375 17.84375 46.4375 
Q 14.5 44.390625 14.5 40.28125 
Q 14.5 37.15625 16.890625 35.375 
Q 19.28125 33.59375 26.515625 31.984375 
L 29.59375 31.296875 
Q 39.15625 29.25 43.1875 25.515625 
Q 47.21875 21.78125 47.21875 15.09375 
Q 47.21875 7.46875 41.1875 3.015625 
Q 35.15625 -1.421875 24.609375 -1.421875 
Q 20.21875 -1.421875 15.453125 -0.5625 
Q 10.6875 0.296875 5.421875 2 
L 5.421875 11.28125 
Q 10.40625 8.6875 15.234375 7.390625 
Q 20.0625 6.109375 24.8125 6.109375 
Q 31.15625 6.109375 34.5625 8.28125 
Q 37.984375 10.453125 37.984375 14.40625 
Q 37.984375 18.0625 35.515625 20.015625 
Q 33.0625 21.96875 24.703125 23.78125 
L 21.578125 24.515625 
Q 13.234375 26.265625 9.515625 29.90625 
Q 5.8125 33.546875 5.8125 39.890625 
Q 5.8125 47.609375 11.28125 51.796875 
Q 16.75 56 26.8125 56 
Q 31.78125 56 36.171875 55.265625 
Q 40.578125 54.546875 44.28125 53.078125 
z
" id="DejaVuSans-115"/>
      <path d="M 56.203125 29.59375 
L 56.203125 25.203125 
L 14.890625 25.203125 
Q 15.484375 15.921875 20.484375 11.0625 
Q 25.484375 6.203125 34.421875 6.203125 
Q 39.59375 6.203125 44.453125 7.46875 
Q 49.3125 8.734375 54.109375 11.28125 
L 54.109375 2.78125 
Q 49.265625 0.734375 44.1875 -0.34375 
Q 39.109375 -1.421875 33.890625 -1.421875 
Q 20.796875 -1.421875 13.15625 6.1875 
Q 5.515625 13.8125 5.515625 26.8125 
Q 5.515625 40.234375 12.765625 48.109375 
Q 20.015625 56 32.328125 56 
Q 43.359375 56 49.78125 48.890625 
Q 56.203125 41.796875 56.203125 29.59375 
z
M 47.21875 32.234375 
Q 47.125 39.59375 43.09375 43.984375 
Q 39.0625 48.390625 32.421875 48.390625 
Q 24.90625 48.390625 20.390625 44.140625 
Q 15.875 39.890625 15.1875 32.171875 
z
" id="DejaVuSans-101"/>
     </defs>
     <g transform="translate(498.576652 59.237813)scale(0.14 -0.14)">
      <use xlink:href="#DejaVuSans-98"/>
      <use x="63.476562" xlink:href="#DejaVuSans-97"/>
      <use x="124.755859" xlink:href="#DejaVuSans-115"/>
      <use x="176.855469" xlink:href="#DejaVuSans-101"/>
     </g>
    </g>
    <g id="patch_6">
     <path d="M 459.376652 79.787188 
L 487.376652 79.787188 
L 487.376652 69.987188 
L 459.376652 69.987188 
z
" style="fill:#36a2eb;opacity:0.5;stroke:#36a2eb;stroke-linejoin:miter;"/>
    </g>
    <g id="text_2">
     <!-- osago -->
     <defs>
      <path d="M 30.609375 48.390625 
Q 23.390625 48.390625 19.1875 42.75 
Q 14.984375 37.109375 14.984375 27.296875 
Q 14.984375 17.484375 19.15625 11.84375 
Q 23.34375 6.203125 30.609375 6.203125 
Q 37.796875 6.203125 41.984375 11.859375 
Q 46.1875 17.53125 46.1875 27.296875 
Q 46.1875 37.015625 41.984375 42.703125 
Q 37.796875 48.390625 30.609375 48.390625 
z
M 30.609375 56 
Q 42.328125 56 49.015625 48.375 
Q 55.71875 40.765625 55.71875 27.296875 
Q 55.71875 13.875 49.015625 6.21875 
Q 42.328125 -1.421875 30.609375 -1.421875 
Q 18.84375 -1.421875 12.171875 6.21875 
Q 5.515625 13.875 5.515625 27.296875 
Q 5.515625 40.765625 12.171875 48.375 
Q 18.84375 56 30.609375 56 
z
" id="DejaVuSans-111"/>
      <path d="M 45.40625 27.984375 
Q 45.40625 37.75 41.375 43.109375 
Q 37.359375 48.484375 30.078125 48.484375 
Q 22.859375 48.484375 18.828125 43.109375 
Q 14.796875 37.75 14.796875 27.984375 
Q 14.796875 18.265625 18.828125 12.890625 
Q 22.859375 7.515625 30.078125 7.515625 
Q 37.359375 7.515625 41.375 12.890625 
Q 45.40625 18.265625 45.40625 27.984375 
z
M 54.390625 6.78125 
Q 54.390625 -7.171875 48.1875 -13.984375 
Q 42 -20.796875 29.203125 -20.796875 
Q 24.46875 -20.796875 20.265625 -20.09375 
Q 16.0625 -19.390625 12.109375 -17.921875 
L 12.109375 -9.1875 
Q 16.0625 -11.328125 19.921875 -12.34375 
Q 23.78125 -13.375 27.78125 -13.375 
Q 36.625 -13.375 41.015625 -8.765625 
Q 45.40625 -4.15625 45.40625 5.171875 
L 45.40625 9.625 
Q 42.625 4.78125 38.28125 2.390625 
Q 33.9375 0 27.875 0 
Q 17.828125 0 11.671875 7.65625 
Q 5.515625 15.328125 5.515625 27.984375 
Q 5.515625 40.671875 11.671875 48.328125 
Q 17.828125 56 27.875 56 
Q 33.9375 56 38.28125 53.609375 
Q 42.625 51.21875 45.40625 46.390625 
L 45.40625 54.6875 
L 54.390625 54.6875 
z
" id="DejaVuSans-103"/>
     </defs>
     <g transform="translate(498.576652 79.787188)scale(0.14 -0.14)">
      <use xlink:href="#DejaVuSans-111"/>
      <use x="61.181641" xlink:href="#DejaVuSans-115"/>
      <use x="113.28125" xlink:href="#DejaVuSans-97"/>
      <use x="174.560547" xlink:href="#DejaVuSans-103"/>
      <use x="238.037109" xlink:href="#DejaVuSans-111"/>
     </g>
    </g>
   </g>
  </g>
  <g id="axes_2">
   <g id="patch_7">
    <path d="M 50.869465 525.24 
L 553.069465 525.24 
L 553.069465 402.93 
L 50.869465 402.93 
z
" style="fill:none;"/>
   </g>
   <g id="patch_8">
    <path clip-path="url(#pbe333a127f)" d="M 202.428528 519.680455 
L 418.037515 519.680455 
L 418.037515 482.616818 
L 202.428528 482.616818 
z
" style="fill:#ff6384;opacity:0.5;"/>
   </g>
   <g id="patch_9">
    <path clip-path="url(#pbe333a127f)" d="M 184.711804 445.553182 
L 398.034873 445.553182 
L 398.034873 408.489545 
L 184.711804 408.489545 
z
" style="fill:#36a2eb;opacity:0.5;"/>
   </g>
   <g id="matplotlib.axis_1">
    <g id="xtick_1">
     <g id="line2d_3">
      <defs>
       <path d="M 0 0 
L 0 3.5 
" id="mbd2b70ece0" style="stroke:#000000;stroke-width:0.8;"/>
      </defs>
      <g>
       <use style="stroke:#000000;stroke-width:0.8;" x="51.585938" xlink:href="#mbd2b70ece0" y="525.24"/>
      </g>
     </g>
     <g id="text_3">
      <!-- 0.50 -->
      <defs>
       <path d="M 31.78125 66.40625 
Q 24.171875 66.40625 20.328125 58.90625 
Q 16.5 51.421875 16.5 36.375 
Q 16.5 21.390625 20.328125 13.890625 
Q 24.171875 6.390625 31.78125 6.390625 
Q 39.453125 6.390625 43.28125 13.890625 
Q 47.125 21.390625 47.125 36.375 
Q 47.125 51.421875 43.28125 58.90625 
Q 39.453125 66.40625 31.78125 66.40625 
z
M 31.78125 74.21875 
Q 44.046875 74.21875 50.515625 64.515625 
Q 56.984375 54.828125 56.984375 36.375 
Q 56.984375 17.96875 50.515625 8.265625 
Q 44.046875 -1.421875 31.78125 -1.421875 
Q 19.53125 -1.421875 13.0625 8.265625 
Q 6.59375 17.96875 6.59375 36.375 
Q 6.59375 54.828125 13.0625 64.515625 
Q 19.53125 74.21875 31.78125 74.21875 
z
" id="DejaVuSans-48"/>
       <path d="M 10.6875 12.40625 
L 21 12.40625 
L 21 0 
L 10.6875 0 
z
" id="DejaVuSans-46"/>
       <path d="M 10.796875 72.90625 
L 49.515625 72.90625 
L 49.515625 64.59375 
L 19.828125 64.59375 
L 19.828125 46.734375 
Q 21.96875 47.46875 24.109375 47.828125 
Q 26.265625 48.1875 28.421875 48.1875 
Q 40.625 48.1875 47.75 41.5 
Q 54.890625 34.8125 54.890625 23.390625 
Q 54.890625 11.625 47.5625 5.09375 
Q 40.234375 -1.421875 26.90625 -1.421875 
Q 22.3125 -1.421875 17.546875 -0.640625 
Q 12.796875 0.140625 7.71875 1.703125 
L 7.71875 11.625 
Q 12.109375 9.234375 16.796875 8.0625 
Q 21.484375 6.890625 26.703125 6.890625 
Q 35.15625 6.890625 40.078125 11.328125 
Q 45.015625 15.765625 45.015625 23.390625 
Q 45.015625 31 40.078125 35.4375 
Q 35.15625 39.890625 26.703125 39.890625 
Q 22.75 39.890625 18.8125 39.015625 
Q 14.890625 38.140625 10.796875 36.28125 
z
" id="DejaVuSans-53"/>
      </defs>
      <g transform="translate(36 542.877813)scale(0.14 -0.14)">
       <use xlink:href="#DejaVuSans-48"/>
       <use x="63.623047" xlink:href="#DejaVuSans-46"/>
       <use x="95.410156" xlink:href="#DejaVuSans-53"/>
       <use x="159.033203" xlink:href="#DejaVuSans-48"/>
      </g>
     </g>
    </g>
    <g id="xtick_2">
     <g id="line2d_4">
      <g>
       <use style="stroke:#000000;stroke-width:0.8;" x="118.941949" xlink:href="#mbd2b70ece0" y="525.24"/>
      </g>
     </g>
     <g id="text_4">
      <!-- 0.75 -->
      <defs>
       <path d="M 8.203125 72.90625 
L 55.078125 72.90625 
L 55.078125 68.703125 
L 28.609375 0 
L 18.3125 0 
L 43.21875 64.59375 
L 8.203125 64.59375 
z
" id="DejaVuSans-55"/>
      </defs>
      <g transform="translate(103.356012 542.877813)scale(0.14 -0.14)">
       <use xlink:href="#DejaVuSans-48"/>
       <use x="63.623047" xlink:href="#DejaVuSans-46"/>
       <use x="95.410156" xlink:href="#DejaVuSans-55"/>
       <use x="159.033203" xlink:href="#DejaVuSans-53"/>
      </g>
     </g>
    </g>
    <g id="xtick_3">
     <g id="line2d_5">
      <g>
       <use style="stroke:#000000;stroke-width:0.8;" x="186.297961" xlink:href="#mbd2b70ece0" y="525.24"/>
      </g>
     </g>
     <g id="text_5">
      <!-- 1.00 -->
      <defs>
       <path d="M 12.40625 8.296875 
L 28.515625 8.296875 
L 28.515625 63.921875 
L 10.984375 60.40625 
L 10.984375 69.390625 
L 28.421875 72.90625 
L 38.28125 72.90625 
L 38.28125 8.296875 
L 54.390625 8.296875 
L 54.390625 0 
L 12.40625 0 
z
" id="DejaVuSans-49"/>
      </defs>
      <g transform="translate(170.712023 542.877813)scale(0.14 -0.14)">
       <use xlink:href="#DejaVuSans-49"/>
       <use x="63.623047" xlink:href="#DejaVuSans-46"/>
       <use x="95.410156" xlink:href="#DejaVuSans-48"/>
       <use x="159.033203" xlink:href="#DejaVuSans-48"/>
      </g>
     </g>
    </g>
    <g id="xtick_4">
     <g id="line2d_6">
      <g>
       <use style="stroke:#000000;stroke-width:0.8;" x="253.653972" xlink:href="#mbd2b70ece0" y="525.24"/>
      </g>
     </g>
     <g id="text_6">
      <!-- 1.25 -->
      <defs>
       <path d="M 19.1875 8.296875 
L 53.609375 8.296875 
L 53.609375 0 
L 7.328125 0 
L 7.328125 8.296875 
Q 12.9375 14.109375 22.625 23.890625 
Q 32.328125 33.6875 34.8125 36.53125 
Q 39.546875 41.84375 41.421875 45.53125 
Q 43.3125 49.21875 43.3125 52.78125 
Q 43.3125 58.59375 39.234375 62.25 
Q 35.15625 65.921875 28.609375 65.921875 
Q 23.96875 65.921875 18.8125 64.3125 
Q 13.671875 62.703125 7.8125 59.421875 
L 7.8125 69.390625 
Q 13.765625 71.78125 18.9375 73 
Q 24.125 74.21875 28.421875 74.21875 
Q 39.75 74.21875 46.484375 68.546875 
Q 53.21875 62.890625 53.21875 53.421875 
Q 53.21875 48.921875 51.53125 44.890625 
Q 49.859375 40.875 45.40625 35.40625 
Q 44.1875 33.984375 37.640625 27.21875 
Q 31.109375 20.453125 19.1875 8.296875 
z
" id="DejaVuSans-50"/>
      </defs>
      <g transform="translate(238.068035 542.877813)scale(0.14 -0.14)">
       <use xlink:href="#DejaVuSans-49"/>
       <use x="63.623047" xlink:href="#DejaVuSans-46"/>
       <use x="95.410156" xlink:href="#DejaVuSans-50"/>
       <use x="159.033203" xlink:href="#DejaVuSans-53"/>
      </g>
     </g>
    </g>
    <g id="xtick_5">
     <g id="line2d_7">
      <g>
       <use style="stroke:#000000;stroke-width:0.8;" x="321.009984" xlink:href="#mbd2b70ece0" y="525.24"/>
      </g>
     </g>
     <g id="text_7">
      <!-- 1.50 -->
      <g transform="translate(305.424046 542.877813)scale(0.14 -0.14)">
       <use xlink:href="#DejaVuSans-49"/>
       <use x="63.623047" xlink:href="#DejaVuSans-46"/>
       <use x="95.410156" xlink:href="#DejaVuSans-53"/>
       <use x="159.033203" xlink:href="#DejaVuSans-48"/>
      </g>
     </g>
    </g>
    <g id="xtick_6">
     <g id="line2d_8">
      <g>
       <use style="stroke:#000000;stroke-width:0.8;" x="388.365995" xlink:href="#mbd2b70ece0" y="525.24"/>
      </g>
     </g>
     <g id="text_8">
      <!-- 1.75 -->
      <g transform="translate(372.780058 542.877813)scale(0.14 -0.14)">
       <use xlink:href="#DejaVuSans-49"/>
       <use x="63.623047" xlink:href="#DejaVuSans-46"/>
       <use x="95.410156" xlink:href="#DejaVuSans-55"/>
       <use x="159.033203" xlink:href="#DejaVuSans-53"/>
      </g>
     </g>
    </g>
    <g id="xtick_7">
     <g id="line2d_9">
      <g>
       <use style="stroke:#000000;stroke-width:0.8;" x="455.722007" xlink:href="#mbd2b70ece0" y="525.24"/>
      </g>
     </g>
     <g id="text_9">
      <!-- 2.00 -->
      <g transform="translate(440.136069 542.877813)scale(0.14 -0.14)">
       <use xlink:href="#DejaVuSans-50"/>
       <use x="63.623047" xlink:href="#DejaVuSans-46"/>
       <use x="95.410156" xlink:href="#DejaVuSans-48"/>
       <use x="159.033203" xlink:href="#DejaVuSans-48"/>
      </g>
     </g>
    </g>
    <g id="xtick_8">
     <g id="line2d_10">
      <g>
       <use style="stroke:#000000;stroke-width:0.8;" x="523.078018" xlink:href="#mbd2b70ece0" y="525.24"/>
      </g>
     </g>
     <g id="text_10">
      <!-- 2.25 -->
      <g transform="translate(507.492081 542.877813)scale(0.14 -0.14)">
       <use xlink:href="#DejaVuSans-50"/>
       <use x="63.623047" xlink:href="#DejaVuSans-46"/>
       <use x="95.410156" xlink:href="#DejaVuSans-50"/>
       <use x="159.033203" xlink:href="#DejaVuSans-53"/>
      </g>
     </g>
    </g>
   </g>
   <g id="line2d_11">
    <path clip-path="url(#pbe333a127f)" d="M 310.233022 525.24 
L 310.233022 402.93 
" style="fill:none;stroke:#ff6384;stroke-dasharray:5.55,2.4;stroke-dashoffset:0;stroke-opacity:0.8;stroke-width:1.5;"/>
   </g>
   <g id="line2d_12">
    <path clip-path="url(#pbe333a127f)" d="M 291.373339 525.24 
L 291.373339 402.93 
" style="fill:none;stroke:#36a2eb;stroke-dasharray:5.55,2.4;stroke-dashoffset:0;stroke-opacity:0.8;stroke-width:1.5;"/>
   </g>
   <g id="patch_10">
    <path d="M 50.869465 525.24 
L 553.069465 525.24 
" style="fill:none;stroke:#000000;stroke-linecap:square;stroke-linejoin:miter;stroke-width:0.8;"/>
   </g>
  </g>
 </g>
 <defs>
  <clipPath id="pf9edc4c015">
   <rect height="366.93" width="502.2" x="50.869465" y="36"/>
  </clipPath>
  <clipPath id="pbe333a127f">
   <rect height="122.31" width="502.2" x="50.869465" y="402.93"/>
  </clipPath>
 </defs>
</svg>
