<?xml version="1.0" encoding="utf-8" standalone="no"?>
<!DOCTYPE svg PUBLIC "-//W3C//DTD SVG 1.1//EN"
  "http://www.w3.org/Graphics/SVG/1.1/DTD/svg11.dtd">
<!-- Created with matplotlib (https://matplotlib.org/) -->
<svg height="581.789375pt" version="1.1" viewBox="0 0 589.068708 581.789375" width="589.068708pt" xmlns="http://www.w3.org/2000/svg" xmlns:xlink="http://www.w3.org/1999/xlink">
 <defs>
  <style type="text/css">
*{stroke-linecap:butt;stroke-linejoin:round;}
  </style>
 </defs>
 <g id="figure_1">
  <g id="patch_1">
   <path d="M 0 581.789375 
L 589.068708 581.789375 
L 589.068708 0 
L 0 0 
z
" style="fill:none;"/>
  </g>
  <g id="axes_1">
   <g id="patch_2">
    <path d="M 50.868708 402.93 
L 553.068708 402.93 
L 553.068708 36 
L 50.868708 36 
z
" style="fill:none;"/>
   </g>
   <g id="PolyCollection_1">
    <defs>
     <path d="M 90.222355 -195.538011 
L 90.222355 -195.648816 
L 94.666992 -195.690599 
L 99.111629 -195.746769 
L 103.556267 -195.821758 
L 108.000904 -195.921174 
L 112.445541 -196.052055 
L 116.890178 -196.223153 
L 121.334815 -196.445257 
L 125.779452 -196.731542 
L 130.22409 -197.097945 
L 134.668727 -197.563562 
L 139.113364 -198.151038 
L 143.558001 -198.886962 
L 148.002638 -199.802214 
L 152.447275 -200.93226 
L 156.891913 -202.317362 
L 161.33655 -204.002668 
L 165.781187 -206.038142 
L 170.225824 -208.478305 
L 174.670461 -211.381749 
L 179.115098 -214.810386 
L 183.559736 -218.828408 
L 188.004373 -223.500939 
L 192.44901 -228.89236 
L 196.893647 -235.06433 
L 201.338284 -242.073508 
L 205.782921 -249.969025 
L 210.227559 -258.789765 
L 214.672196 -268.561537 
L 219.116833 -279.294238 
L 223.56147 -290.979124 
L 228.006107 -303.586318 
L 232.450744 -317.0627 
L 236.895382 -331.330312 
L 241.340019 -346.285421 
L 245.784656 -361.798346 
L 250.229293 -377.714163 
L 254.67393 -393.854341 
L 259.118568 -410.01935 
L 263.563205 -425.99221 
L 268.007842 -441.542947 
L 272.452479 -456.433816 
L 276.897116 -470.425169 
L 281.341753 -483.281753 
L 285.786391 -494.779223 
L 290.231028 -504.710614 
L 294.675665 -512.892525 
L 299.120302 -519.170742 
L 303.564939 -523.425071 
L 308.009576 -525.573161 
L 312.454214 -525.573161 
L 316.898851 -523.425071 
L 321.343488 -519.170742 
L 325.788125 -512.892525 
L 330.232762 -504.710614 
L 334.677399 -494.779223 
L 339.122037 -483.281753 
L 343.566674 -470.425169 
L 348.011311 -456.433816 
L 352.455948 -441.542947 
L 356.900585 -425.99221 
L 361.345222 -410.01935 
L 365.78986 -393.854341 
L 370.234497 -377.714163 
L 374.679134 -361.798346 
L 379.123771 -346.285421 
L 383.568408 -331.330312 
L 388.013045 -317.0627 
L 392.457683 -303.586318 
L 396.90232 -290.979124 
L 401.346957 -279.294238 
L 405.791594 -268.561537 
L 410.236231 -258.789765 
L 414.680869 -249.969025 
L 419.125506 -242.073508 
L 423.570143 -235.06433 
L 428.01478 -228.89236 
L 432.459417 -223.500939 
L 436.904054 -218.828408 
L 441.348692 -214.810386 
L 445.793329 -211.381749 
L 450.237966 -208.478305 
L 454.682603 -206.038142 
L 459.12724 -204.002668 
L 463.571877 -202.317362 
L 468.016515 -200.93226 
L 472.461152 -199.802214 
L 476.905789 -198.886962 
L 481.350426 -198.151038 
L 485.795063 -197.563562 
L 490.2397 -197.097945 
L 494.684338 -196.731542 
L 499.128975 -196.445257 
L 503.573612 -196.223153 
L 508.018249 -196.052055 
L 512.462886 -195.921174 
L 516.907523 -195.821758 
L 521.352161 -195.746769 
L 525.796798 -195.690599 
L 530.241435 -195.648816 
L 530.241435 -195.538011 
L 530.241435 -195.538011 
L 525.796798 -195.538011 
L 521.352161 -195.538011 
L 516.907523 -195.538011 
L 512.462886 -195.538011 
L 508.018249 -195.538011 
L 503.573612 -195.538011 
L 499.128975 -195.538011 
L 494.684338 -195.538011 
L 490.2397 -195.538011 
L 485.795063 -195.538011 
L 481.350426 -195.538011 
L 476.905789 -195.538011 
L 472.461152 -195.538011 
L 468.016515 -195.538011 
L 463.571877 -195.538011 
L 459.12724 -195.538011 
L 454.682603 -195.538011 
L 450.237966 -195.538011 
L 445.793329 -195.538011 
L 441.348692 -195.538011 
L 436.904054 -195.538011 
L 432.459417 -195.538011 
L 428.01478 -195.538011 
L 423.570143 -195.538011 
L 419.125506 -195.538011 
L 414.680869 -195.538011 
L 410.236231 -195.538011 
L 405.791594 -195.538011 
L 401.346957 -195.538011 
L 396.90232 -195.538011 
L 392.457683 -195.538011 
L 388.013045 -195.538011 
L 383.568408 -195.538011 
L 379.123771 -195.538011 
L 374.679134 -195.538011 
L 370.234497 -195.538011 
L 365.78986 -195.538011 
L 361.345222 -195.538011 
L 356.900585 -195.538011 
L 352.455948 -195.538011 
L 348.011311 -195.538011 
L 343.566674 -195.538011 
L 339.122037 -195.538011 
L 334.677399 -195.538011 
L 330.232762 -195.538011 
L 325.788125 -195.538011 
L 321.343488 -195.538011 
L 316.898851 -195.538011 
L 312.454214 -195.538011 
L 308.009576 -195.538011 
L 303.564939 -195.538011 
L 299.120302 -195.538011 
L 294.675665 -195.538011 
L 290.231028 -195.538011 
L 285.786391 -195.538011 
L 281.341753 -195.538011 
L 276.897116 -195.538011 
L 272.452479 -195.538011 
L 268.007842 -195.538011 
L 263.563205 -195.538011 
L 259.118568 -195.538011 
L 254.67393 -195.538011 
L 250.229293 -195.538011 
L 245.784656 -195.538011 
L 241.340019 -195.538011 
L 236.895382 -195.538011 
L 232.450744 -195.538011 
L 228.006107 -195.538011 
L 223.56147 -195.538011 
L 219.116833 -195.538011 
L 214.672196 -195.538011 
L 210.227559 -195.538011 
L 205.782921 -195.538011 
L 201.338284 -195.538011 
L 196.893647 -195.538011 
L 192.44901 -195.538011 
L 188.004373 -195.538011 
L 183.559736 -195.538011 
L 179.115098 -195.538011 
L 174.670461 -195.538011 
L 170.225824 -195.538011 
L 165.781187 -195.538011 
L 161.33655 -195.538011 
L 156.891913 -195.538011 
L 152.447275 -195.538011 
L 148.002638 -195.538011 
L 143.558001 -195.538011 
L 139.113364 -195.538011 
L 134.668727 -195.538011 
L 130.22409 -195.538011 
L 125.779452 -195.538011 
L 121.334815 -195.538011 
L 116.890178 -195.538011 
L 112.445541 -195.538011 
L 108.000904 -195.538011 
L 103.556267 -195.538011 
L 99.111629 -195.538011 
L 94.666992 -195.538011 
L 90.222355 -195.538011 
z
" id="me520ce5df1" style="stroke:#ff6384;stroke-opacity:0.5;"/>
    </defs>
    <g clip-path="url(#p2c9b195f02)">
     <use style="fill:#ff6384;fill-opacity:0.5;stroke:#ff6384;stroke-opacity:0.5;" x="0" xlink:href="#me520ce5df1" y="581.789375"/>
    </g>
   </g>
   <g id="PolyCollection_2">
    <defs>
     <path d="M 73.69598 -195.538011 
L 73.69598 -195.650004 
L 78.093482 -195.692234 
L 82.490983 -195.749007 
L 86.888484 -195.8248 
L 91.285986 -195.925281 
L 95.683487 -196.057565 
L 100.080988 -196.230497 
L 104.478489 -196.454982 
L 108.875991 -196.744335 
L 113.273492 -197.114666 
L 117.670993 -197.585273 
L 122.068495 -198.179047 
L 126.465996 -198.922859 
L 130.863497 -199.847921 
L 135.260998 -200.990079 
L 139.6585 -202.390029 
L 144.056001 -204.093399 
L 148.453502 -206.150691 
L 152.851004 -208.617009 
L 157.248505 -211.551575 
L 161.646006 -215.016962 
L 166.043507 -219.078053 
L 170.441009 -223.800667 
L 174.83851 -229.249878 
L 179.236011 -235.488004 
L 183.633512 -242.572312 
L 188.031014 -250.552459 
L 192.428515 -259.467747 
L 196.826016 -269.344261 
L 201.223518 -280.192004 
L 205.621019 -292.002137 
L 210.01852 -304.744465 
L 214.416021 -318.365297 
L 218.813523 -332.785841 
L 223.211024 -347.901251 
L 227.608525 -363.580456 
L 232.006027 -379.666871 
L 236.403528 -395.980052 
L 240.801029 -412.31833 
L 245.19853 -428.4624 
L 249.596032 -444.179822 
L 253.993533 -459.230303 
L 258.391034 -473.371627 
L 262.788536 -486.366018 
L 267.186037 -497.986726 
L 271.583538 -508.02457 
L 275.981039 -516.294181 
L 280.378541 -522.639693 
L 284.776042 -526.939623 
L 289.173543 -529.110739 
L 293.571045 -529.110739 
L 297.968546 -526.939623 
L 302.366047 -522.639693 
L 306.763548 -516.294181 
L 311.16105 -508.02457 
L 315.558551 -497.986726 
L 319.956052 -486.366018 
L 324.353554 -473.371627 
L 328.751055 -459.230303 
L 333.148556 -444.179822 
L 337.546057 -428.4624 
L 341.943559 -412.31833 
L 346.34106 -395.980052 
L 350.738561 -379.666871 
L 355.136063 -363.580456 
L 359.533564 -347.901251 
L 363.931065 -332.785841 
L 368.328566 -318.365297 
L 372.726068 -304.744465 
L 377.123569 -292.002137 
L 381.52107 -280.192004 
L 385.918571 -269.344261 
L 390.316073 -259.467747 
L 394.713574 -250.552459 
L 399.111075 -242.572312 
L 403.508577 -235.488004 
L 407.906078 -229.249878 
L 412.303579 -223.800667 
L 416.70108 -219.078053 
L 421.098582 -215.016962 
L 425.496083 -211.551575 
L 429.893584 -208.617009 
L 434.291086 -206.150691 
L 438.688587 -204.093399 
L 443.086088 -202.390029 
L 447.483589 -200.990079 
L 451.881091 -199.847921 
L 456.278592 -198.922859 
L 460.676093 -198.179047 
L 465.073595 -197.585273 
L 469.471096 -197.114666 
L 473.868597 -196.744335 
L 478.266098 -196.454982 
L 482.6636 -196.230497 
L 487.061101 -196.057565 
L 491.458602 -195.925281 
L 495.856104 -195.8248 
L 500.253605 -195.749007 
L 504.651106 -195.692234 
L 509.048607 -195.650004 
L 509.048607 -195.538011 
L 509.048607 -195.538011 
L 504.651106 -195.538011 
L 500.253605 -195.538011 
L 495.856104 -195.538011 
L 491.458602 -195.538011 
L 487.061101 -195.538011 
L 482.6636 -195.538011 
L 478.266098 -195.538011 
L 473.868597 -195.538011 
L 469.471096 -195.538011 
L 465.073595 -195.538011 
L 460.676093 -195.538011 
L 456.278592 -195.538011 
L 451.881091 -195.538011 
L 447.483589 -195.538011 
L 443.086088 -195.538011 
L 438.688587 -195.538011 
L 434.291086 -195.538011 
L 429.893584 -195.538011 
L 425.496083 -195.538011 
L 421.098582 -195.538011 
L 416.70108 -195.538011 
L 412.303579 -195.538011 
L 407.906078 -195.538011 
L 403.508577 -195.538011 
L 399.111075 -195.538011 
L 394.713574 -195.538011 
L 390.316073 -195.538011 
L 385.918571 -195.538011 
L 381.52107 -195.538011 
L 377.123569 -195.538011 
L 372.726068 -195.538011 
L 368.328566 -195.538011 
L 363.931065 -195.538011 
L 359.533564 -195.538011 
L 355.136063 -195.538011 
L 350.738561 -195.538011 
L 346.34106 -195.538011 
L 341.943559 -195.538011 
L 337.546057 -195.538011 
L 333.148556 -195.538011 
L 328.751055 -195.538011 
L 324.353554 -195.538011 
L 319.956052 -195.538011 
L 315.558551 -195.538011 
L 311.16105 -195.538011 
L 306.763548 -195.538011 
L 302.366047 -195.538011 
L 297.968546 -195.538011 
L 293.571045 -195.538011 
L 289.173543 -195.538011 
L 284.776042 -195.538011 
L 280.378541 -195.538011 
L 275.981039 -195.538011 
L 271.583538 -195.538011 
L 267.186037 -195.538011 
L 262.788536 -195.538011 
L 258.391034 -195.538011 
L 253.993533 -195.538011 
L 249.596032 -195.538011 
L 245.19853 -195.538011 
L 240.801029 -195.538011 
L 236.403528 -195.538011 
L 232.006027 -195.538011 
L 227.608525 -195.538011 
L 223.211024 -195.538011 
L 218.813523 -195.538011 
L 214.416021 -195.538011 
L 210.01852 -195.538011 
L 205.621019 -195.538011 
L 201.223518 -195.538011 
L 196.826016 -195.538011 
L 192.428515 -195.538011 
L 188.031014 -195.538011 
L 183.633512 -195.538011 
L 179.236011 -195.538011 
L 174.83851 -195.538011 
L 170.441009 -195.538011 
L 166.043507 -195.538011 
L 161.646006 -195.538011 
L 157.248505 -195.538011 
L 152.851004 -195.538011 
L 148.453502 -195.538011 
L 144.056001 -195.538011 
L 139.6585 -195.538011 
L 135.260998 -195.538011 
L 130.863497 -195.538011 
L 126.465996 -195.538011 
L 122.068495 -195.538011 
L 117.670993 -195.538011 
L 113.273492 -195.538011 
L 108.875991 -195.538011 
L 104.478489 -195.538011 
L 100.080988 -195.538011 
L 95.683487 -195.538011 
L 91.285986 -195.538011 
L 86.888484 -195.538011 
L 82.490983 -195.538011 
L 78.093482 -195.538011 
L 73.69598 -195.538011 
z
" id="m96ad6420a6" style="stroke:#36a2eb;stroke-opacity:0.5;"/>
    </defs>
    <g clip-path="url(#p2c9b195f02)">
     <use style="fill:#36a2eb;fill-opacity:0.5;stroke:#36a2eb;stroke-opacity:0.5;" x="0" xlink:href="#m96ad6420a6" y="581.789375"/>
    </g>
   </g>
   <g id="line2d_1">
    <path clip-path="url(#p2c9b195f02)" d="M 90.222355 386.140559 
L 94.666992 386.098776 
L 99.111629 386.042606 
L 103.556267 385.967617 
L 108.000904 385.868201 
L 112.445541 385.73732 
L 116.890178 385.566222 
L 121.334815 385.344118 
L 125.779452 385.057833 
L 130.22409 384.69143 
L 134.668727 384.225813 
L 139.113364 383.638337 
L 143.558001 382.902413 
L 148.002638 381.987161 
L 152.447275 380.857115 
L 156.891913 379.472013 
L 161.33655 377.786707 
L 165.781187 375.751233 
L 170.225824 373.31107 
L 174.670461 370.407626 
L 179.115098 366.978989 
L 183.559736 362.960967 
L 188.004373 358.288436 
L 192.44901 352.897015 
L 196.893647 346.725045 
L 201.338284 339.715867 
L 205.782921 331.82035 
L 210.227559 322.99961 
L 214.672196 313.227838 
L 219.116833 302.495137 
L 223.56147 290.810251 
L 228.006107 278.203057 
L 232.450744 264.726675 
L 236.895382 250.459063 
L 241.340019 235.503954 
L 245.784656 219.991029 
L 250.229293 204.075212 
L 254.67393 187.935034 
L 259.118568 171.770025 
L 263.563205 155.797165 
L 268.007842 140.246428 
L 272.452479 125.355559 
L 276.897116 111.364206 
L 281.341753 98.507622 
L 285.786391 87.010152 
L 290.231028 77.078761 
L 294.675665 68.89685 
L 299.120302 62.618633 
L 303.564939 58.364304 
L 308.009576 56.216214 
L 312.454214 56.216214 
L 316.898851 58.364304 
L 321.343488 62.618633 
L 325.788125 68.89685 
L 330.232762 77.078761 
L 334.677399 87.010152 
L 339.122037 98.507622 
L 343.566674 111.364206 
L 348.011311 125.355559 
L 352.455948 140.246428 
L 356.900585 155.797165 
L 361.345222 171.770025 
L 365.78986 187.935034 
L 370.234497 204.075212 
L 374.679134 219.991029 
L 379.123771 235.503954 
L 383.568408 250.459063 
L 388.013045 264.726675 
L 392.457683 278.203057 
L 396.90232 290.810251 
L 401.346957 302.495137 
L 405.791594 313.227838 
L 410.236231 322.99961 
L 414.680869 331.82035 
L 419.125506 339.715867 
L 423.570143 346.725045 
L 428.01478 352.897015 
L 432.459417 358.288436 
L 436.904054 362.960967 
L 441.348692 366.978989 
L 445.793329 370.407626 
L 450.237966 373.31107 
L 454.682603 375.751233 
L 459.12724 377.786707 
L 463.571877 379.472013 
L 468.016515 380.857115 
L 472.461152 381.987161 
L 476.905789 382.902413 
L 481.350426 383.638337 
L 485.795063 384.225813 
L 490.2397 384.69143 
L 494.684338 385.057833 
L 499.128975 385.344118 
L 503.573612 385.566222 
L 508.018249 385.73732 
L 512.462886 385.868201 
L 516.907523 385.967617 
L 521.352161 386.042606 
L 525.796798 386.098776 
L 530.241435 386.140559 
" style="fill:none;stroke:#ff6384;stroke-linecap:square;"/>
   </g>
   <g id="line2d_2">
    <path clip-path="url(#p2c9b195f02)" d="M 73.69598 386.139371 
L 78.093482 386.097141 
L 82.490983 386.040368 
L 86.888484 385.964575 
L 91.285986 385.864094 
L 95.683487 385.73181 
L 100.080988 385.558878 
L 104.478489 385.334393 
L 108.875991 385.04504 
L 113.273492 384.674709 
L 117.670993 384.204102 
L 122.068495 383.610328 
L 126.465996 382.866516 
L 130.863497 381.941454 
L 135.260998 380.799296 
L 139.6585 379.399346 
L 144.056001 377.695976 
L 148.453502 375.638684 
L 152.851004 373.172366 
L 157.248505 370.2378 
L 161.646006 366.772413 
L 166.043507 362.711322 
L 170.441009 357.988708 
L 174.83851 352.539497 
L 179.236011 346.301371 
L 183.633512 339.217063 
L 188.031014 331.236916 
L 192.428515 322.321628 
L 196.826016 312.445114 
L 201.223518 301.597371 
L 205.621019 289.787238 
L 210.01852 277.04491 
L 214.416021 263.424078 
L 218.813523 249.003534 
L 223.211024 233.888124 
L 227.608525 218.208919 
L 232.006027 202.122504 
L 236.403528 185.809323 
L 240.801029 169.471045 
L 245.19853 153.326975 
L 249.596032 137.609553 
L 253.993533 122.559072 
L 258.391034 108.417748 
L 262.788536 95.423357 
L 267.186037 83.802649 
L 271.583538 73.764805 
L 275.981039 65.495194 
L 280.378541 59.149682 
L 284.776042 54.849752 
L 289.173543 52.678636 
L 293.571045 52.678636 
L 297.968546 54.849752 
L 302.366047 59.149682 
L 306.763548 65.495194 
L 311.16105 73.764805 
L 315.558551 83.802649 
L 319.956052 95.423357 
L 324.353554 108.417748 
L 328.751055 122.559072 
L 333.148556 137.609553 
L 337.546057 153.326975 
L 341.943559 169.471045 
L 346.34106 185.809323 
L 350.738561 202.122504 
L 355.136063 218.208919 
L 359.533564 233.888124 
L 363.931065 249.003534 
L 368.328566 263.424078 
L 372.726068 277.04491 
L 377.123569 289.787238 
L 381.52107 301.597371 
L 385.918571 312.445114 
L 390.316073 322.321628 
L 394.713574 331.236916 
L 399.111075 339.217063 
L 403.508577 346.301371 
L 407.906078 352.539497 
L 412.303579 357.988708 
L 416.70108 362.711322 
L 421.098582 366.772413 
L 425.496083 370.2378 
L 429.893584 373.172366 
L 434.291086 375.638684 
L 438.688587 377.695976 
L 443.086088 379.399346 
L 447.483589 380.799296 
L 451.881091 381.941454 
L 456.278592 382.866516 
L 460.676093 383.610328 
L 465.073595 384.204102 
L 469.471096 384.674709 
L 473.868597 385.04504 
L 478.266098 385.334393 
L 482.6636 385.558878 
L 487.061101 385.73181 
L 491.458602 385.864094 
L 495.856104 385.964575 
L 500.253605 386.040368 
L 504.651106 386.097141 
L 509.048607 386.139371 
" style="fill:none;stroke:#36a2eb;stroke-linecap:square;"/>
   </g>
   <g id="patch_3">
    <path d="M 50.868708 402.93 
L 553.068708 402.93 
" style="fill:none;stroke:#000000;stroke-linecap:square;stroke-linejoin:miter;stroke-width:0.8;"/>
   </g>
   <g id="legend_1">
    <g id="patch_4">
     <path d="M 456.575895 88.29875 
L 543.268708 88.29875 
Q 546.068708 88.29875 546.068708 85.49875 
L 546.068708 45.8 
Q 546.068708 43 543.268708 43 
L 456.575895 43 
Q 453.775895 43 453.775895 45.8 
L 453.775895 85.49875 
Q 453.775895 88.29875 456.575895 88.29875 
z
" style="fill:#ffffff;opacity:0.8;stroke:#cccccc;stroke-linejoin:miter;"/>
    </g>
    <g id="patch_5">
     <path d="M 459.375895 59.237813 
L 487.375895 59.237813 
L 487.375895 49.437813 
L 459.375895 49.437813 
z
" style="fill:#ff6384;opacity:0.5;stroke:#ff6384;stroke-linejoin:miter;"/>
    </g>
    <g id="text_1">
     <!-- base -->
     <defs>
      <path d="M 48.6875 27.296875 
Q 48.6875 37.203125 44.609375 42.84375 
Q 40.53125 48.484375 33.40625 48.484375 
Q 26.265625 48.484375 22.1875 42.84375 
Q 18.109375 37.203125 18.109375 27.296875 
Q 18.109375 17.390625 22.1875 11.75 
Q 26.265625 6.109375 33.40625 6.109375 
Q 40.53125 6.109375 44.609375 11.75 
Q 48.6875 17.390625 48.6875 27.296875 
z
M 18.109375 46.390625 
Q 20.953125 51.265625 25.265625 53.625 
Q 29.59375 56 35.59375 56 
Q 45.5625 56 51.78125 48.09375 
Q 58.015625 40.1875 58.015625 27.296875 
Q 58.015625 14.40625 51.78125 6.484375 
Q 45.5625 -1.421875 35.59375 -1.421875 
Q 29.59375 -1.421875 25.265625 0.953125 
Q 20.953125 3.328125 18.109375 8.203125 
L 18.109375 0 
L 9.078125 0 
L 9.078125 75.984375 
L 18.109375 75.984375 
z
" id="DejaVuSans-98"/>
      <path d="M 34.28125 27.484375 
Q 23.390625 27.484375 19.1875 25 
Q 14.984375 22.515625 14.984375 16.5 
Q 14.984375 11.71875 18.140625 8.90625 
Q 21.296875 6.109375 26.703125 6.109375 
Q 34.1875 6.109375 38.703125 11.40625 
Q 43.21875 16.703125 43.21875 25.484375 
L 43.21875 27.484375 
z
M 52.203125 31.203125 
L 52.203125 0 
L 43.21875 0 
L 43.21875 8.296875 
Q 40.140625 3.328125 35.546875 0.953125 
Q 30.953125 -1.421875 24.3125 -1.421875 
Q 15.921875 -1.421875 10.953125 3.296875 
Q 6 8.015625 6 15.921875 
Q 6 25.140625 12.171875 29.828125 
Q 18.359375 34.515625 30.609375 34.515625 
L 43.21875 34.515625 
L 43.21875 35.40625 
Q 43.21875 41.609375 39.140625 45 
Q 35.0625 48.390625 27.6875 48.390625 
Q 23 48.390625 18.546875 47.265625 
Q 14.109375 46.140625 10.015625 43.890625 
L 10.015625 52.203125 
Q 14.9375 54.109375 19.578125 55.046875 
Q 24.21875 56 28.609375 56 
Q 40.484375 56 46.34375 49.84375 
Q 52.203125 43.703125 52.203125 31.203125 
z
" id="DejaVuSans-97"/>
      <path d="M 44.28125 53.078125 
L 44.28125 44.578125 
Q 40.484375 46.53125 36.375 47.5 
Q 32.28125 48.484375 27.875 48.484375 
Q 21.1875 48.484375 17.84375 46.4375 
Q 14.5 44.390625 14.5 40.28125 
Q 14.5 37.15625 16.890625 35.375 
Q 19.28125 33.59375 26.515625 31.984375 
L 29.59375 31.296875 
Q 39.15625 29.25 43.1875 25.515625 
Q 47.21875 21.78125 47.21875 15.09375 
Q 47.21875 7.46875 41.1875 3.015625 
Q 35.15625 -1.421875 24.609375 -1.421875 
Q 20.21875 -1.421875 15.453125 -0.5625 
Q 10.6875 0.296875 5.421875 2 
L 5.421875 11.28125 
Q 10.40625 8.6875 15.234375 7.390625 
Q 20.0625 6.109375 24.8125 6.109375 
Q 31.15625 6.109375 34.5625 8.28125 
Q 37.984375 10.453125 37.984375 14.40625 
Q 37.984375 18.0625 35.515625 20.015625 
Q 33.0625 21.96875 24.703125 23.78125 
L 21.578125 24.515625 
Q 13.234375 26.265625 9.515625 29.90625 
Q 5.8125 33.546875 5.8125 39.890625 
Q 5.8125 47.609375 11.28125 51.796875 
Q 16.75 56 26.8125 56 
Q 31.78125 56 36.171875 55.265625 
Q 40.578125 54.546875 44.28125 53.078125 
z
" id="DejaVuSans-115"/>
      <path d="M 56.203125 29.59375 
L 56.203125 25.203125 
L 14.890625 25.203125 
Q 15.484375 15.921875 20.484375 11.0625 
Q 25.484375 6.203125 34.421875 6.203125 
Q 39.59375 6.203125 44.453125 7.46875 
Q 49.3125 8.734375 54.109375 11.28125 
L 54.109375 2.78125 
Q 49.265625 0.734375 44.1875 -0.34375 
Q 39.109375 -1.421875 33.890625 -1.421875 
Q 20.796875 -1.421875 13.15625 6.1875 
Q 5.515625 13.8125 5.515625 26.8125 
Q 5.515625 40.234375 12.765625 48.109375 
Q 20.015625 56 32.328125 56 
Q 43.359375 56 49.78125 48.890625 
Q 56.203125 41.796875 56.203125 29.59375 
z
M 47.21875 32.234375 
Q 47.125 39.59375 43.09375 43.984375 
Q 39.0625 48.390625 32.421875 48.390625 
Q 24.90625 48.390625 20.390625 44.140625 
Q 15.875 39.890625 15.1875 32.171875 
z
" id="DejaVuSans-101"/>
     </defs>
     <g transform="translate(498.575895 59.237813)scale(0.14 -0.14)">
      <use xlink:href="#DejaVuSans-98"/>
      <use x="63.476562" xlink:href="#DejaVuSans-97"/>
      <use x="124.755859" xlink:href="#DejaVuSans-115"/>
      <use x="176.855469" xlink:href="#DejaVuSans-101"/>
     </g>
    </g>
    <g id="patch_6">
     <path d="M 459.375895 79.787188 
L 487.375895 79.787188 
L 487.375895 69.987188 
L 459.375895 69.987188 
z
" style="fill:#36a2eb;opacity:0.5;stroke:#36a2eb;stroke-linejoin:miter;"/>
    </g>
    <g id="text_2">
     <!-- osago -->
     <defs>
      <path d="M 30.609375 48.390625 
Q 23.390625 48.390625 19.1875 42.75 
Q 14.984375 37.109375 14.984375 27.296875 
Q 14.984375 17.484375 19.15625 11.84375 
Q 23.34375 6.203125 30.609375 6.203125 
Q 37.796875 6.203125 41.984375 11.859375 
Q 46.1875 17.53125 46.1875 27.296875 
Q 46.1875 37.015625 41.984375 42.703125 
Q 37.796875 48.390625 30.609375 48.390625 
z
M 30.609375 56 
Q 42.328125 56 49.015625 48.375 
Q 55.71875 40.765625 55.71875 27.296875 
Q 55.71875 13.875 49.015625 6.21875 
Q 42.328125 -1.421875 30.609375 -1.421875 
Q 18.84375 -1.421875 12.171875 6.21875 
Q 5.515625 13.875 5.515625 27.296875 
Q 5.515625 40.765625 12.171875 48.375 
Q 18.84375 56 30.609375 56 
z
" id="DejaVuSans-111"/>
      <path d="M 45.40625 27.984375 
Q 45.40625 37.75 41.375 43.109375 
Q 37.359375 48.484375 30.078125 48.484375 
Q 22.859375 48.484375 18.828125 43.109375 
Q 14.796875 37.75 14.796875 27.984375 
Q 14.796875 18.265625 18.828125 12.890625 
Q 22.859375 7.515625 30.078125 7.515625 
Q 37.359375 7.515625 41.375 12.890625 
Q 45.40625 18.265625 45.40625 27.984375 
z
M 54.390625 6.78125 
Q 54.390625 -7.171875 48.1875 -13.984375 
Q 42 -20.796875 29.203125 -20.796875 
Q 24.46875 -20.796875 20.265625 -20.09375 
Q 16.0625 -19.390625 12.109375 -17.921875 
L 12.109375 -9.1875 
Q 16.0625 -11.328125 19.921875 -12.34375 
Q 23.78125 -13.375 27.78125 -13.375 
Q 36.625 -13.375 41.015625 -8.765625 
Q 45.40625 -4.15625 45.40625 5.171875 
L 45.40625 9.625 
Q 42.625 4.78125 38.28125 2.390625 
Q 33.9375 0 27.875 0 
Q 17.828125 0 11.671875 7.65625 
Q 5.515625 15.328125 5.515625 27.984375 
Q 5.515625 40.671875 11.671875 48.328125 
Q 17.828125 56 27.875 56 
Q 33.9375 56 38.28125 53.609375 
Q 42.625 51.21875 45.40625 46.390625 
L 45.40625 54.6875 
L 54.390625 54.6875 
z
" id="DejaVuSans-103"/>
     </defs>
     <g transform="translate(498.575895 79.787188)scale(0.14 -0.14)">
      <use xlink:href="#DejaVuSans-111"/>
      <use x="61.181641" xlink:href="#DejaVuSans-115"/>
      <use x="113.28125" xlink:href="#DejaVuSans-97"/>
      <use x="174.560547" xlink:href="#DejaVuSans-103"/>
      <use x="238.037109" xlink:href="#DejaVuSans-111"/>
     </g>
    </g>
   </g>
  </g>
  <g id="axes_2">
   <g id="patch_7">
    <path d="M 50.868708 525.24 
L 553.068708 525.24 
L 553.068708 402.93 
L 50.868708 402.93 
z
" style="fill:none;"/>
   </g>
   <g id="patch_8">
    <path clip-path="url(#pd8be250910)" d="M 202.42722 519.680455 
L 418.03657 519.680455 
L 418.03657 482.616818 
L 202.42722 482.616818 
z
" style="fill:#ff6384;opacity:0.5;"/>
   </g>
   <g id="patch_9">
    <path clip-path="url(#pd8be250910)" d="M 184.7109 445.553182 
L 398.033688 445.553182 
L 398.033688 408.489545 
L 184.7109 408.489545 
z
" style="fill:#36a2eb;opacity:0.5;"/>
   </g>
   <g id="matplotlib.axis_1">
    <g id="xtick_1">
     <g id="line2d_3">
      <defs>
       <path d="M 0 0 
L 0 3.5 
" id="m97801d1eff" style="stroke:#000000;stroke-width:0.8;"/>
      </defs>
      <g>
       <use style="stroke:#000000;stroke-width:0.8;" x="51.585938" xlink:href="#m97801d1eff" y="525.24"/>
      </g>
     </g>
     <g id="text_3">
      <!-- 0.50 -->
      <defs>
       <path d="M 31.78125 66.40625 
Q 24.171875 66.40625 20.328125 58.90625 
Q 16.5 51.421875 16.5 36.375 
Q 16.5 21.390625 20.328125 13.890625 
Q 24.171875 6.390625 31.78125 6.390625 
Q 39.453125 6.390625 43.28125 13.890625 
Q 47.125 21.390625 47.125 36.375 
Q 47.125 51.421875 43.28125 58.90625 
Q 39.453125 66.40625 31.78125 66.40625 
z
M 31.78125 74.21875 
Q 44.046875 74.21875 50.515625 64.515625 
Q 56.984375 54.828125 56.984375 36.375 
Q 56.984375 17.96875 50.515625 8.265625 
Q 44.046875 -1.421875 31.78125 -1.421875 
Q 19.53125 -1.421875 13.0625 8.265625 
Q 6.59375 17.96875 6.59375 36.375 
Q 6.59375 54.828125 13.0625 64.515625 
Q 19.53125 74.21875 31.78125 74.21875 
z
" id="DejaVuSans-48"/>
       <path d="M 10.6875 12.40625 
L 21 12.40625 
L 21 0 
L 10.6875 0 
z
" id="DejaVuSans-46"/>
       <path d="M 10.796875 72.90625 
L 49.515625 72.90625 
L 49.515625 64.59375 
L 19.828125 64.59375 
L 19.828125 46.734375 
Q 21.96875 47.46875 24.109375 47.828125 
Q 26.265625 48.1875 28.421875 48.1875 
Q 40.625 48.1875 47.75 41.5 
Q 54.890625 34.8125 54.890625 23.390625 
Q 54.890625 11.625 47.5625 5.09375 
Q 40.234375 -1.421875 26.90625 -1.421875 
Q 22.3125 -1.421875 17.546875 -0.640625 
Q 12.796875 0.140625 7.71875 1.703125 
L 7.71875 11.625 
Q 12.109375 9.234375 16.796875 8.0625 
Q 21.484375 6.890625 26.703125 6.890625 
Q 35.15625 6.890625 40.078125 11.328125 
Q 45.015625 15.765625 45.015625 23.390625 
Q 45.015625 31 40.078125 35.4375 
Q 35.15625 39.890625 26.703125 39.890625 
Q 22.75 39.890625 18.8125 39.015625 
Q 14.890625 38.140625 10.796875 36.28125 
z
" id="DejaVuSans-53"/>
      </defs>
      <g transform="translate(36 542.877813)scale(0.14 -0.14)">
       <use xlink:href="#DejaVuSans-48"/>
       <use x="63.623047" xlink:href="#DejaVuSans-46"/>
       <use x="95.410156" xlink:href="#DejaVuSans-53"/>
       <use x="159.033203" xlink:href="#DejaVuSans-48"/>
      </g>
     </g>
    </g>
    <g id="xtick_2">
     <g id="line2d_4">
      <g>
       <use style="stroke:#000000;stroke-width:0.8;" x="118.941656" xlink:href="#m97801d1eff" y="525.24"/>
      </g>
     </g>
     <g id="text_4">
      <!-- 0.75 -->
      <defs>
       <path d="M 8.203125 72.90625 
L 55.078125 72.90625 
L 55.078125 68.703125 
L 28.609375 0 
L 18.3125 0 
L 43.21875 64.59375 
L 8.203125 64.59375 
z
" id="DejaVuSans-55"/>
      </defs>
      <g transform="translate(103.355718 542.877813)scale(0.14 -0.14)">
       <use xlink:href="#DejaVuSans-48"/>
       <use x="63.623047" xlink:href="#DejaVuSans-46"/>
       <use x="95.410156" xlink:href="#DejaVuSans-55"/>
       <use x="159.033203" xlink:href="#DejaVuSans-53"/>
      </g>
     </g>
    </g>
    <g id="xtick_3">
     <g id="line2d_5">
      <g>
       <use style="stroke:#000000;stroke-width:0.8;" x="186.297374" xlink:href="#m97801d1eff" y="525.24"/>
      </g>
     </g>
     <g id="text_5">
      <!-- 1.00 -->
      <defs>
       <path d="M 12.40625 8.296875 
L 28.515625 8.296875 
L 28.515625 63.921875 
L 10.984375 60.40625 
L 10.984375 69.390625 
L 28.421875 72.90625 
L 38.28125 72.90625 
L 38.28125 8.296875 
L 54.390625 8.296875 
L 54.390625 0 
L 12.40625 0 
z
" id="DejaVuSans-49"/>
      </defs>
      <g transform="translate(170.711436 542.877813)scale(0.14 -0.14)">
       <use xlink:href="#DejaVuSans-49"/>
       <use x="63.623047" xlink:href="#DejaVuSans-46"/>
       <use x="95.410156" xlink:href="#DejaVuSans-48"/>
       <use x="159.033203" xlink:href="#DejaVuSans-48"/>
      </g>
     </g>
    </g>
    <g id="xtick_4">
     <g id="line2d_6">
      <g>
       <use style="stroke:#000000;stroke-width:0.8;" x="253.653092" xlink:href="#m97801d1eff" y="525.24"/>
      </g>
     </g>
     <g id="text_6">
      <!-- 1.25 -->
      <defs>
       <path d="M 19.1875 8.296875 
L 53.609375 8.296875 
L 53.609375 0 
L 7.328125 0 
L 7.328125 8.296875 
Q 12.9375 14.109375 22.625 23.890625 
Q 32.328125 33.6875 34.8125 36.53125 
Q 39.546875 41.84375 41.421875 45.53125 
Q 43.3125 49.21875 43.3125 52.78125 
Q 43.3125 58.59375 39.234375 62.25 
Q 35.15625 65.921875 28.609375 65.921875 
Q 23.96875 65.921875 18.8125 64.3125 
Q 13.671875 62.703125 7.8125 59.421875 
L 7.8125 69.390625 
Q 13.765625 71.78125 18.9375 73 
Q 24.125 74.21875 28.421875 74.21875 
Q 39.75 74.21875 46.484375 68.546875 
Q 53.21875 62.890625 53.21875 53.421875 
Q 53.21875 48.921875 51.53125 44.890625 
Q 49.859375 40.875 45.40625 35.40625 
Q 44.1875 33.984375 37.640625 27.21875 
Q 31.109375 20.453125 19.1875 8.296875 
z
" id="DejaVuSans-50"/>
      </defs>
      <g transform="translate(238.067154 542.877813)scale(0.14 -0.14)">
       <use xlink:href="#DejaVuSans-49"/>
       <use x="63.623047" xlink:href="#DejaVuSans-46"/>
       <use x="95.410156" xlink:href="#DejaVuSans-50"/>
       <use x="159.033203" xlink:href="#DejaVuSans-53"/>
      </g>
     </g>
    </g>
    <g id="xtick_5">
     <g id="line2d_7">
      <g>
       <use style="stroke:#000000;stroke-width:0.8;" x="321.00881" xlink:href="#m97801d1eff" y="525.24"/>
      </g>
     </g>
     <g id="text_7">
      <!-- 1.50 -->
      <g transform="translate(305.422872 542.877813)scale(0.14 -0.14)">
       <use xlink:href="#DejaVuSans-49"/>
       <use x="63.623047" xlink:href="#DejaVuSans-46"/>
       <use x="95.410156" xlink:href="#DejaVuSans-53"/>
       <use x="159.033203" xlink:href="#DejaVuSans-48"/>
      </g>
     </g>
    </g>
    <g id="xtick_6">
     <g id="line2d_8">
      <g>
       <use style="stroke:#000000;stroke-width:0.8;" x="388.364528" xlink:href="#m97801d1eff" y="525.24"/>
      </g>
     </g>
     <g id="text_8">
      <!-- 1.75 -->
      <g transform="translate(372.77859 542.877813)scale(0.14 -0.14)">
       <use xlink:href="#DejaVuSans-49"/>
       <use x="63.623047" xlink:href="#DejaVuSans-46"/>
       <use x="95.410156" xlink:href="#DejaVuSans-55"/>
       <use x="159.033203" xlink:href="#DejaVuSans-53"/>
      </g>
     </g>
    </g>
    <g id="xtick_7">
     <g id="line2d_9">
      <g>
       <use style="stroke:#000000;stroke-width:0.8;" x="455.720246" xlink:href="#m97801d1eff" y="525.24"/>
      </g>
     </g>
     <g id="text_9">
      <!-- 2.00 -->
      <g transform="translate(440.134309 542.877813)scale(0.14 -0.14)">
       <use xlink:href="#DejaVuSans-50"/>
       <use x="63.623047" xlink:href="#DejaVuSans-46"/>
       <use x="95.410156" xlink:href="#DejaVuSans-48"/>
       <use x="159.033203" xlink:href="#DejaVuSans-48"/>
      </g>
     </g>
    </g>
    <g id="xtick_8">
     <g id="line2d_10">
      <g>
       <use style="stroke:#000000;stroke-width:0.8;" x="523.075964" xlink:href="#m97801d1eff" y="525.24"/>
      </g>
     </g>
     <g id="text_10">
      <!-- 2.25 -->
      <g transform="translate(507.490027 542.877813)scale(0.14 -0.14)">
       <use xlink:href="#DejaVuSans-50"/>
       <use x="63.623047" xlink:href="#DejaVuSans-46"/>
       <use x="95.410156" xlink:href="#DejaVuSans-50"/>
       <use x="159.033203" xlink:href="#DejaVuSans-53"/>
      </g>
     </g>
    </g>
   </g>
   <g id="line2d_11">
    <path clip-path="url(#pd8be250910)" d="M 310.231895 525.24 
L 310.231895 402.93 
" style="fill:none;stroke:#ff6384;stroke-dasharray:5.55,2.4;stroke-dashoffset:0;stroke-opacity:0.8;stroke-width:1.5;"/>
   </g>
   <g id="line2d_12">
    <path clip-path="url(#pd8be250910)" d="M 291.372294 525.24 
L 291.372294 402.93 
" style="fill:none;stroke:#36a2eb;stroke-dasharray:5.55,2.4;stroke-dashoffset:0;stroke-opacity:0.8;stroke-width:1.5;"/>
   </g>
   <g id="patch_10">
    <path d="M 50.868708 525.24 
L 553.068708 525.24 
" style="fill:none;stroke:#000000;stroke-linecap:square;stroke-linejoin:miter;stroke-width:0.8;"/>
   </g>
  </g>
 </g>
 <defs>
  <clipPath id="p2c9b195f02">
   <rect height="366.93" width="502.2" x="50.868708" y="36"/>
  </clipPath>
  <clipPath id="pd8be250910">
   <rect height="122.31" width="502.2" x="50.868708" y="402.93"/>
  </clipPath>
 </defs>
</svg>
