<?xml version="1.0" encoding="utf-8" standalone="no"?>
<!DOCTYPE svg PUBLIC "-//W3C//DTD SVG 1.1//EN"
  "http://www.w3.org/Graphics/SVG/1.1/DTD/svg11.dtd">
<!-- Created with matplotlib (https://matplotlib.org/) -->
<svg height="581.789375pt" version="1.1" viewBox="0 0 574.2 581.789375" width="574.2pt" xmlns="http://www.w3.org/2000/svg" xmlns:xlink="http://www.w3.org/1999/xlink">
 <defs>
  <style type="text/css">
*{stroke-linecap:butt;stroke-linejoin:round;}
  </style>
 </defs>
 <g id="figure_1">
  <g id="patch_1">
   <path d="M 0 581.789375 
L 574.2 581.789375 
L 574.2 0 
L 0 0 
z
" style="fill:none;"/>
  </g>
  <g id="axes_1">
   <g id="patch_2">
    <path d="M 36 402.93 
L 538.2 402.93 
L 538.2 36 
L 36 36 
z
" style="fill:none;"/>
   </g>
   <g id="PolyCollection_1">
    <defs>
     <path d="M 58.827273 -195.538011 
L 58.827273 -195.650004 
L 63.404307 -195.692234 
L 67.981342 -195.749007 
L 72.558377 -195.8248 
L 77.135411 -195.925281 
L 81.712446 -196.057565 
L 86.289481 -196.230497 
L 90.866515 -196.454982 
L 95.44355 -196.744335 
L 100.020585 -197.114666 
L 104.597619 -197.585273 
L 109.174654 -198.179047 
L 113.751689 -198.922859 
L 118.328723 -199.847921 
L 122.905758 -200.990079 
L 127.482793 -202.390029 
L 132.059828 -204.093399 
L 136.636862 -206.150691 
L 141.213897 -208.617009 
L 145.790932 -211.551575 
L 150.367966 -215.016962 
L 154.945001 -219.078053 
L 159.522036 -223.800667 
L 164.09907 -229.249878 
L 168.676105 -235.488004 
L 173.25314 -242.572312 
L 177.830174 -250.552459 
L 182.407209 -259.467747 
L 186.984244 -269.344261 
L 191.561278 -280.192004 
L 196.138313 -292.002137 
L 200.715348 -304.744465 
L 205.292382 -318.365297 
L 209.869417 -332.785841 
L 214.446452 -347.901251 
L 219.023486 -363.580456 
L 223.600521 -379.666871 
L 228.177556 -395.980052 
L 232.75459 -412.31833 
L 237.331625 -428.4624 
L 241.90866 -444.179822 
L 246.485694 -459.230303 
L 251.062729 -473.371627 
L 255.639764 -486.366018 
L 260.216798 -497.986726 
L 264.793833 -508.02457 
L 269.370868 -516.294181 
L 273.947902 -522.639693 
L 278.524937 -526.939623 
L 283.101972 -529.110739 
L 287.679006 -529.110739 
L 292.256041 -526.939623 
L 296.833076 -522.639693 
L 301.41011 -516.294181 
L 305.987145 -508.02457 
L 310.56418 -497.986726 
L 315.141214 -486.366018 
L 319.718249 -473.371627 
L 324.295284 -459.230303 
L 328.872318 -444.179822 
L 333.449353 -428.4624 
L 338.026388 -412.31833 
L 342.603422 -395.980052 
L 347.180457 -379.666871 
L 351.757492 -363.580456 
L 356.334526 -347.901251 
L 360.911561 -332.785841 
L 365.488596 -318.365297 
L 370.065631 -304.744465 
L 374.642665 -292.002137 
L 379.2197 -280.192004 
L 383.796735 -269.344261 
L 388.373769 -259.467747 
L 392.950804 -250.552459 
L 397.527839 -242.572312 
L 402.104873 -235.488004 
L 406.681908 -229.249878 
L 411.258943 -223.800667 
L 415.835977 -219.078053 
L 420.413012 -215.016962 
L 424.990047 -211.551575 
L 429.567081 -208.617009 
L 434.144116 -206.150691 
L 438.721151 -204.093399 
L 443.298185 -202.390029 
L 447.87522 -200.990079 
L 452.452255 -199.847921 
L 457.029289 -198.922859 
L 461.606324 -198.179047 
L 466.183359 -197.585273 
L 470.760393 -197.114666 
L 475.337428 -196.744335 
L 479.914463 -196.454982 
L 484.491497 -196.230497 
L 489.068532 -196.057565 
L 493.645567 -195.925281 
L 498.222601 -195.8248 
L 502.799636 -195.749007 
L 507.376671 -195.692234 
L 511.953705 -195.650004 
L 511.953705 -195.538011 
L 511.953705 -195.538011 
L 507.376671 -195.538011 
L 502.799636 -195.538011 
L 498.222601 -195.538011 
L 493.645567 -195.538011 
L 489.068532 -195.538011 
L 484.491497 -195.538011 
L 479.914463 -195.538011 
L 475.337428 -195.538011 
L 470.760393 -195.538011 
L 466.183359 -195.538011 
L 461.606324 -195.538011 
L 457.029289 -195.538011 
L 452.452255 -195.538011 
L 447.87522 -195.538011 
L 443.298185 -195.538011 
L 438.721151 -195.538011 
L 434.144116 -195.538011 
L 429.567081 -195.538011 
L 424.990047 -195.538011 
L 420.413012 -195.538011 
L 415.835977 -195.538011 
L 411.258943 -195.538011 
L 406.681908 -195.538011 
L 402.104873 -195.538011 
L 397.527839 -195.538011 
L 392.950804 -195.538011 
L 388.373769 -195.538011 
L 383.796735 -195.538011 
L 379.2197 -195.538011 
L 374.642665 -195.538011 
L 370.065631 -195.538011 
L 365.488596 -195.538011 
L 360.911561 -195.538011 
L 356.334526 -195.538011 
L 351.757492 -195.538011 
L 347.180457 -195.538011 
L 342.603422 -195.538011 
L 338.026388 -195.538011 
L 333.449353 -195.538011 
L 328.872318 -195.538011 
L 324.295284 -195.538011 
L 319.718249 -195.538011 
L 315.141214 -195.538011 
L 310.56418 -195.538011 
L 305.987145 -195.538011 
L 301.41011 -195.538011 
L 296.833076 -195.538011 
L 292.256041 -195.538011 
L 287.679006 -195.538011 
L 283.101972 -195.538011 
L 278.524937 -195.538011 
L 273.947902 -195.538011 
L 269.370868 -195.538011 
L 264.793833 -195.538011 
L 260.216798 -195.538011 
L 255.639764 -195.538011 
L 251.062729 -195.538011 
L 246.485694 -195.538011 
L 241.90866 -195.538011 
L 237.331625 -195.538011 
L 232.75459 -195.538011 
L 228.177556 -195.538011 
L 223.600521 -195.538011 
L 219.023486 -195.538011 
L 214.446452 -195.538011 
L 209.869417 -195.538011 
L 205.292382 -195.538011 
L 200.715348 -195.538011 
L 196.138313 -195.538011 
L 191.561278 -195.538011 
L 186.984244 -195.538011 
L 182.407209 -195.538011 
L 177.830174 -195.538011 
L 173.25314 -195.538011 
L 168.676105 -195.538011 
L 164.09907 -195.538011 
L 159.522036 -195.538011 
L 154.945001 -195.538011 
L 150.367966 -195.538011 
L 145.790932 -195.538011 
L 141.213897 -195.538011 
L 136.636862 -195.538011 
L 132.059828 -195.538011 
L 127.482793 -195.538011 
L 122.905758 -195.538011 
L 118.328723 -195.538011 
L 113.751689 -195.538011 
L 109.174654 -195.538011 
L 104.597619 -195.538011 
L 100.020585 -195.538011 
L 95.44355 -195.538011 
L 90.866515 -195.538011 
L 86.289481 -195.538011 
L 81.712446 -195.538011 
L 77.135411 -195.538011 
L 72.558377 -195.538011 
L 67.981342 -195.538011 
L 63.404307 -195.538011 
L 58.827273 -195.538011 
z
" id="mc444cad5d5" style="stroke:#ff6384;stroke-opacity:0.5;"/>
    </defs>
    <g clip-path="url(#p68f7b140ce)">
     <use style="fill:#ff6384;fill-opacity:0.5;stroke:#ff6384;stroke-opacity:0.5;" x="0" xlink:href="#mc444cad5d5" y="581.789375"/>
    </g>
   </g>
   <g id="PolyCollection_2">
    <defs>
     <path d="M 61.504506 -195.538011 
L 61.504506 -195.649821 
L 66.089034 -195.691982 
L 70.673561 -195.748662 
L 75.258089 -195.824331 
L 79.842616 -195.924648 
L 84.427144 -196.056716 
L 89.011671 -196.229365 
L 93.596199 -196.453483 
L 98.180726 -196.742363 
L 102.765254 -197.112089 
L 107.349781 -197.581927 
L 111.934309 -198.17473 
L 116.518836 -198.917327 
L 121.103364 -199.840877 
L 125.687891 -200.981169 
L 130.272419 -202.37883 
L 134.856946 -204.079417 
L 139.441474 -206.133346 
L 144.026001 -208.595633 
L 148.610529 -211.525402 
L 153.195056 -214.985126 
L 157.779584 -219.03958 
L 162.364111 -223.754476 
L 166.948639 -229.19478 
L 171.533166 -235.422711 
L 176.117693 -242.495441 
L 180.702221 -250.462545 
L 185.286748 -259.363262 
L 189.871276 -269.223634 
L 194.455803 -280.053648 
L 199.040331 -291.844479 
L 203.624858 -304.565981 
L 208.209386 -318.164552 
L 212.793913 -332.561528 
L 217.378441 -347.652233 
L 221.962968 -363.305812 
L 226.547496 -379.365936 
L 231.132023 -395.652456 
L 235.716551 -411.964031 
L 240.301078 -428.081716 
L 244.885606 -443.773449 
L 249.470133 -458.799332 
L 254.054661 -472.917544 
L 258.639188 -485.890698 
L 263.223716 -497.492413 
L 267.808243 -507.513851 
L 272.392771 -515.769947 
L 276.977298 -522.105088 
L 281.561826 -526.397991 
L 286.146353 -528.565558 
L 290.730881 -528.565558 
L 295.315408 -526.397991 
L 299.899936 -522.105088 
L 304.484463 -515.769947 
L 309.068991 -507.513851 
L 313.653518 -497.492413 
L 318.238045 -485.890698 
L 322.822573 -472.917544 
L 327.4071 -458.799332 
L 331.991628 -443.773449 
L 336.576155 -428.081716 
L 341.160683 -411.964031 
L 345.74521 -395.652456 
L 350.329738 -379.365936 
L 354.914265 -363.305812 
L 359.498793 -347.652233 
L 364.08332 -332.561528 
L 368.667848 -318.164552 
L 373.252375 -304.565981 
L 377.836903 -291.844479 
L 382.42143 -280.053648 
L 387.005958 -269.223634 
L 391.590485 -259.363262 
L 396.175013 -250.462545 
L 400.75954 -242.495441 
L 405.344068 -235.422711 
L 409.928595 -229.19478 
L 414.513123 -223.754476 
L 419.09765 -219.03958 
L 423.682178 -214.985126 
L 428.266705 -211.525402 
L 432.851233 -208.595633 
L 437.43576 -206.133346 
L 442.020288 -204.079417 
L 446.604815 -202.37883 
L 451.189343 -200.981169 
L 455.77387 -199.840877 
L 460.358397 -198.917327 
L 464.942925 -198.17473 
L 469.527452 -197.581927 
L 474.11198 -197.112089 
L 478.696507 -196.742363 
L 483.281035 -196.453483 
L 487.865562 -196.229365 
L 492.45009 -196.056716 
L 497.034617 -195.924648 
L 501.619145 -195.824331 
L 506.203672 -195.748662 
L 510.7882 -195.691982 
L 515.372727 -195.649821 
L 515.372727 -195.538011 
L 515.372727 -195.538011 
L 510.7882 -195.538011 
L 506.203672 -195.538011 
L 501.619145 -195.538011 
L 497.034617 -195.538011 
L 492.45009 -195.538011 
L 487.865562 -195.538011 
L 483.281035 -195.538011 
L 478.696507 -195.538011 
L 474.11198 -195.538011 
L 469.527452 -195.538011 
L 464.942925 -195.538011 
L 460.358397 -195.538011 
L 455.77387 -195.538011 
L 451.189343 -195.538011 
L 446.604815 -195.538011 
L 442.020288 -195.538011 
L 437.43576 -195.538011 
L 432.851233 -195.538011 
L 428.266705 -195.538011 
L 423.682178 -195.538011 
L 419.09765 -195.538011 
L 414.513123 -195.538011 
L 409.928595 -195.538011 
L 405.344068 -195.538011 
L 400.75954 -195.538011 
L 396.175013 -195.538011 
L 391.590485 -195.538011 
L 387.005958 -195.538011 
L 382.42143 -195.538011 
L 377.836903 -195.538011 
L 373.252375 -195.538011 
L 368.667848 -195.538011 
L 364.08332 -195.538011 
L 359.498793 -195.538011 
L 354.914265 -195.538011 
L 350.329738 -195.538011 
L 345.74521 -195.538011 
L 341.160683 -195.538011 
L 336.576155 -195.538011 
L 331.991628 -195.538011 
L 327.4071 -195.538011 
L 322.822573 -195.538011 
L 318.238045 -195.538011 
L 313.653518 -195.538011 
L 309.068991 -195.538011 
L 304.484463 -195.538011 
L 299.899936 -195.538011 
L 295.315408 -195.538011 
L 290.730881 -195.538011 
L 286.146353 -195.538011 
L 281.561826 -195.538011 
L 276.977298 -195.538011 
L 272.392771 -195.538011 
L 267.808243 -195.538011 
L 263.223716 -195.538011 
L 258.639188 -195.538011 
L 254.054661 -195.538011 
L 249.470133 -195.538011 
L 244.885606 -195.538011 
L 240.301078 -195.538011 
L 235.716551 -195.538011 
L 231.132023 -195.538011 
L 226.547496 -195.538011 
L 221.962968 -195.538011 
L 217.378441 -195.538011 
L 212.793913 -195.538011 
L 208.209386 -195.538011 
L 203.624858 -195.538011 
L 199.040331 -195.538011 
L 194.455803 -195.538011 
L 189.871276 -195.538011 
L 185.286748 -195.538011 
L 180.702221 -195.538011 
L 176.117693 -195.538011 
L 171.533166 -195.538011 
L 166.948639 -195.538011 
L 162.364111 -195.538011 
L 157.779584 -195.538011 
L 153.195056 -195.538011 
L 148.610529 -195.538011 
L 144.026001 -195.538011 
L 139.441474 -195.538011 
L 134.856946 -195.538011 
L 130.272419 -195.538011 
L 125.687891 -195.538011 
L 121.103364 -195.538011 
L 116.518836 -195.538011 
L 111.934309 -195.538011 
L 107.349781 -195.538011 
L 102.765254 -195.538011 
L 98.180726 -195.538011 
L 93.596199 -195.538011 
L 89.011671 -195.538011 
L 84.427144 -195.538011 
L 79.842616 -195.538011 
L 75.258089 -195.538011 
L 70.673561 -195.538011 
L 66.089034 -195.538011 
L 61.504506 -195.538011 
z
" id="mb9748ffba5" style="stroke:#36a2eb;stroke-opacity:0.5;"/>
    </defs>
    <g clip-path="url(#p68f7b140ce)">
     <use style="fill:#36a2eb;fill-opacity:0.5;stroke:#36a2eb;stroke-opacity:0.5;" x="0" xlink:href="#mb9748ffba5" y="581.789375"/>
    </g>
   </g>
   <g id="line2d_1">
    <path clip-path="url(#p68f7b140ce)" d="M 58.827273 386.139371 
L 63.404307 386.097141 
L 67.981342 386.040368 
L 72.558377 385.964575 
L 77.135411 385.864094 
L 81.712446 385.73181 
L 86.289481 385.558878 
L 90.866515 385.334393 
L 95.44355 385.04504 
L 100.020585 384.674709 
L 104.597619 384.204102 
L 109.174654 383.610328 
L 113.751689 382.866516 
L 118.328723 381.941454 
L 122.905758 380.799296 
L 127.482793 379.399346 
L 132.059828 377.695976 
L 136.636862 375.638684 
L 141.213897 373.172366 
L 145.790932 370.2378 
L 150.367966 366.772413 
L 154.945001 362.711322 
L 159.522036 357.988708 
L 164.09907 352.539497 
L 168.676105 346.301371 
L 173.25314 339.217063 
L 177.830174 331.236916 
L 182.407209 322.321628 
L 186.984244 312.445114 
L 191.561278 301.597371 
L 196.138313 289.787238 
L 200.715348 277.04491 
L 205.292382 263.424078 
L 209.869417 249.003534 
L 214.446452 233.888124 
L 219.023486 218.208919 
L 223.600521 202.122504 
L 228.177556 185.809323 
L 232.75459 169.471045 
L 237.331625 153.326975 
L 241.90866 137.609553 
L 246.485694 122.559072 
L 251.062729 108.417748 
L 255.639764 95.423357 
L 260.216798 83.802649 
L 264.793833 73.764805 
L 269.370868 65.495194 
L 273.947902 59.149682 
L 278.524937 54.849752 
L 283.101972 52.678636 
L 287.679006 52.678636 
L 292.256041 54.849752 
L 296.833076 59.149682 
L 301.41011 65.495194 
L 305.987145 73.764805 
L 310.56418 83.802649 
L 315.141214 95.423357 
L 319.718249 108.417748 
L 324.295284 122.559072 
L 328.872318 137.609553 
L 333.449353 153.326975 
L 338.026388 169.471045 
L 342.603422 185.809323 
L 347.180457 202.122504 
L 351.757492 218.208919 
L 356.334526 233.888124 
L 360.911561 249.003534 
L 365.488596 263.424078 
L 370.065631 277.04491 
L 374.642665 289.787238 
L 379.2197 301.597371 
L 383.796735 312.445114 
L 388.373769 322.321628 
L 392.950804 331.236916 
L 397.527839 339.217063 
L 402.104873 346.301371 
L 406.681908 352.539497 
L 411.258943 357.988708 
L 415.835977 362.711322 
L 420.413012 366.772413 
L 424.990047 370.2378 
L 429.567081 373.172366 
L 434.144116 375.638684 
L 438.721151 377.695976 
L 443.298185 379.399346 
L 447.87522 380.799296 
L 452.452255 381.941454 
L 457.029289 382.866516 
L 461.606324 383.610328 
L 466.183359 384.204102 
L 470.760393 384.674709 
L 475.337428 385.04504 
L 479.914463 385.334393 
L 484.491497 385.558878 
L 489.068532 385.73181 
L 493.645567 385.864094 
L 498.222601 385.964575 
L 502.799636 386.040368 
L 507.376671 386.097141 
L 511.953705 386.139371 
" style="fill:none;stroke:#ff6384;stroke-linecap:square;"/>
   </g>
   <g id="line2d_2">
    <path clip-path="url(#p68f7b140ce)" d="M 61.504506 386.139554 
L 66.089034 386.097393 
L 70.673561 386.040713 
L 75.258089 385.965044 
L 79.842616 385.864727 
L 84.427144 385.732659 
L 89.011671 385.56001 
L 93.596199 385.335892 
L 98.180726 385.047012 
L 102.765254 384.677286 
L 107.349781 384.207448 
L 111.934309 383.614645 
L 116.518836 382.872048 
L 121.103364 381.948498 
L 125.687891 380.808206 
L 130.272419 379.410545 
L 134.856946 377.709958 
L 139.441474 375.656029 
L 144.026001 373.193742 
L 148.610529 370.263973 
L 153.195056 366.804249 
L 157.779584 362.749795 
L 162.364111 358.034899 
L 166.948639 352.594595 
L 171.533166 346.366664 
L 176.117693 339.293934 
L 180.702221 331.32683 
L 185.286748 322.426113 
L 189.871276 312.565741 
L 194.455803 301.735727 
L 199.040331 289.944896 
L 203.624858 277.223394 
L 208.209386 263.624823 
L 212.793913 249.227847 
L 217.378441 234.137142 
L 221.962968 218.483563 
L 226.547496 202.423439 
L 231.132023 186.136919 
L 235.716551 169.825344 
L 240.301078 153.707659 
L 244.885606 138.015926 
L 249.470133 122.990043 
L 254.054661 108.871831 
L 258.639188 95.898677 
L 263.223716 84.296962 
L 267.808243 74.275524 
L 272.392771 66.019428 
L 276.977298 59.684287 
L 281.561826 55.391384 
L 286.146353 53.223817 
L 290.730881 53.223817 
L 295.315408 55.391384 
L 299.899936 59.684287 
L 304.484463 66.019428 
L 309.068991 74.275524 
L 313.653518 84.296962 
L 318.238045 95.898677 
L 322.822573 108.871831 
L 327.4071 122.990043 
L 331.991628 138.015926 
L 336.576155 153.707659 
L 341.160683 169.825344 
L 345.74521 186.136919 
L 350.329738 202.423439 
L 354.914265 218.483563 
L 359.498793 234.137142 
L 364.08332 249.227847 
L 368.667848 263.624823 
L 373.252375 277.223394 
L 377.836903 289.944896 
L 382.42143 301.735727 
L 387.005958 312.565741 
L 391.590485 322.426113 
L 396.175013 331.32683 
L 400.75954 339.293934 
L 405.344068 346.366664 
L 409.928595 352.594595 
L 414.513123 358.034899 
L 419.09765 362.749795 
L 423.682178 366.804249 
L 428.266705 370.263973 
L 432.851233 373.193742 
L 437.43576 375.656029 
L 442.020288 377.709958 
L 446.604815 379.410545 
L 451.189343 380.808206 
L 455.77387 381.948498 
L 460.358397 382.872048 
L 464.942925 383.614645 
L 469.527452 384.207448 
L 474.11198 384.677286 
L 478.696507 385.047012 
L 483.281035 385.335892 
L 487.865562 385.56001 
L 492.45009 385.732659 
L 497.034617 385.864727 
L 501.619145 385.965044 
L 506.203672 386.040713 
L 510.7882 386.097393 
L 515.372727 386.139554 
" style="fill:none;stroke:#36a2eb;stroke-linecap:square;"/>
   </g>
   <g id="patch_3">
    <path d="M 36 402.93 
L 538.2 402.93 
" style="fill:none;stroke:#000000;stroke-linecap:square;stroke-linejoin:miter;stroke-width:0.8;"/>
   </g>
   <g id="legend_1">
    <g id="patch_4">
     <path d="M 441.707188 88.29875 
L 528.4 88.29875 
Q 531.2 88.29875 531.2 85.49875 
L 531.2 45.8 
Q 531.2 43 528.4 43 
L 441.707188 43 
Q 438.907188 43 438.907188 45.8 
L 438.907188 85.49875 
Q 438.907188 88.29875 441.707188 88.29875 
z
" style="fill:#ffffff;opacity:0.8;stroke:#cccccc;stroke-linejoin:miter;"/>
    </g>
    <g id="patch_5">
     <path d="M 444.507188 59.237813 
L 472.507188 59.237813 
L 472.507188 49.437813 
L 444.507188 49.437813 
z
" style="fill:#ff6384;opacity:0.5;stroke:#ff6384;stroke-linejoin:miter;"/>
    </g>
    <g id="text_1">
     <!-- base -->
     <defs>
      <path d="M 48.6875 27.296875 
Q 48.6875 37.203125 44.609375 42.84375 
Q 40.53125 48.484375 33.40625 48.484375 
Q 26.265625 48.484375 22.1875 42.84375 
Q 18.109375 37.203125 18.109375 27.296875 
Q 18.109375 17.390625 22.1875 11.75 
Q 26.265625 6.109375 33.40625 6.109375 
Q 40.53125 6.109375 44.609375 11.75 
Q 48.6875 17.390625 48.6875 27.296875 
z
M 18.109375 46.390625 
Q 20.953125 51.265625 25.265625 53.625 
Q 29.59375 56 35.59375 56 
Q 45.5625 56 51.78125 48.09375 
Q 58.015625 40.1875 58.015625 27.296875 
Q 58.015625 14.40625 51.78125 6.484375 
Q 45.5625 -1.421875 35.59375 -1.421875 
Q 29.59375 -1.421875 25.265625 0.953125 
Q 20.953125 3.328125 18.109375 8.203125 
L 18.109375 0 
L 9.078125 0 
L 9.078125 75.984375 
L 18.109375 75.984375 
z
" id="DejaVuSans-98"/>
      <path d="M 34.28125 27.484375 
Q 23.390625 27.484375 19.1875 25 
Q 14.984375 22.515625 14.984375 16.5 
Q 14.984375 11.71875 18.140625 8.90625 
Q 21.296875 6.109375 26.703125 6.109375 
Q 34.1875 6.109375 38.703125 11.40625 
Q 43.21875 16.703125 43.21875 25.484375 
L 43.21875 27.484375 
z
M 52.203125 31.203125 
L 52.203125 0 
L 43.21875 0 
L 43.21875 8.296875 
Q 40.140625 3.328125 35.546875 0.953125 
Q 30.953125 -1.421875 24.3125 -1.421875 
Q 15.921875 -1.421875 10.953125 3.296875 
Q 6 8.015625 6 15.921875 
Q 6 25.140625 12.171875 29.828125 
Q 18.359375 34.515625 30.609375 34.515625 
L 43.21875 34.515625 
L 43.21875 35.40625 
Q 43.21875 41.609375 39.140625 45 
Q 35.0625 48.390625 27.6875 48.390625 
Q 23 48.390625 18.546875 47.265625 
Q 14.109375 46.140625 10.015625 43.890625 
L 10.015625 52.203125 
Q 14.9375 54.109375 19.578125 55.046875 
Q 24.21875 56 28.609375 56 
Q 40.484375 56 46.34375 49.84375 
Q 52.203125 43.703125 52.203125 31.203125 
z
" id="DejaVuSans-97"/>
      <path d="M 44.28125 53.078125 
L 44.28125 44.578125 
Q 40.484375 46.53125 36.375 47.5 
Q 32.28125 48.484375 27.875 48.484375 
Q 21.1875 48.484375 17.84375 46.4375 
Q 14.5 44.390625 14.5 40.28125 
Q 14.5 37.15625 16.890625 35.375 
Q 19.28125 33.59375 26.515625 31.984375 
L 29.59375 31.296875 
Q 39.15625 29.25 43.1875 25.515625 
Q 47.21875 21.78125 47.21875 15.09375 
Q 47.21875 7.46875 41.1875 3.015625 
Q 35.15625 -1.421875 24.609375 -1.421875 
Q 20.21875 -1.421875 15.453125 -0.5625 
Q 10.6875 0.296875 5.421875 2 
L 5.421875 11.28125 
Q 10.40625 8.6875 15.234375 7.390625 
Q 20.0625 6.109375 24.8125 6.109375 
Q 31.15625 6.109375 34.5625 8.28125 
Q 37.984375 10.453125 37.984375 14.40625 
Q 37.984375 18.0625 35.515625 20.015625 
Q 33.0625 21.96875 24.703125 23.78125 
L 21.578125 24.515625 
Q 13.234375 26.265625 9.515625 29.90625 
Q 5.8125 33.546875 5.8125 39.890625 
Q 5.8125 47.609375 11.28125 51.796875 
Q 16.75 56 26.8125 56 
Q 31.78125 56 36.171875 55.265625 
Q 40.578125 54.546875 44.28125 53.078125 
z
" id="DejaVuSans-115"/>
      <path d="M 56.203125 29.59375 
L 56.203125 25.203125 
L 14.890625 25.203125 
Q 15.484375 15.921875 20.484375 11.0625 
Q 25.484375 6.203125 34.421875 6.203125 
Q 39.59375 6.203125 44.453125 7.46875 
Q 49.3125 8.734375 54.109375 11.28125 
L 54.109375 2.78125 
Q 49.265625 0.734375 44.1875 -0.34375 
Q 39.109375 -1.421875 33.890625 -1.421875 
Q 20.796875 -1.421875 13.15625 6.1875 
Q 5.515625 13.8125 5.515625 26.8125 
Q 5.515625 40.234375 12.765625 48.109375 
Q 20.015625 56 32.328125 56 
Q 43.359375 56 49.78125 48.890625 
Q 56.203125 41.796875 56.203125 29.59375 
z
M 47.21875 32.234375 
Q 47.125 39.59375 43.09375 43.984375 
Q 39.0625 48.390625 32.421875 48.390625 
Q 24.90625 48.390625 20.390625 44.140625 
Q 15.875 39.890625 15.1875 32.171875 
z
" id="DejaVuSans-101"/>
     </defs>
     <g transform="translate(483.707188 59.237813)scale(0.14 -0.14)">
      <use xlink:href="#DejaVuSans-98"/>
      <use x="63.476562" xlink:href="#DejaVuSans-97"/>
      <use x="124.755859" xlink:href="#DejaVuSans-115"/>
      <use x="176.855469" xlink:href="#DejaVuSans-101"/>
     </g>
    </g>
    <g id="patch_6">
     <path d="M 444.507188 79.787188 
L 472.507188 79.787188 
L 472.507188 69.987188 
L 444.507188 69.987188 
z
" style="fill:#36a2eb;opacity:0.5;stroke:#36a2eb;stroke-linejoin:miter;"/>
    </g>
    <g id="text_2">
     <!-- osago -->
     <defs>
      <path d="M 30.609375 48.390625 
Q 23.390625 48.390625 19.1875 42.75 
Q 14.984375 37.109375 14.984375 27.296875 
Q 14.984375 17.484375 19.15625 11.84375 
Q 23.34375 6.203125 30.609375 6.203125 
Q 37.796875 6.203125 41.984375 11.859375 
Q 46.1875 17.53125 46.1875 27.296875 
Q 46.1875 37.015625 41.984375 42.703125 
Q 37.796875 48.390625 30.609375 48.390625 
z
M 30.609375 56 
Q 42.328125 56 49.015625 48.375 
Q 55.71875 40.765625 55.71875 27.296875 
Q 55.71875 13.875 49.015625 6.21875 
Q 42.328125 -1.421875 30.609375 -1.421875 
Q 18.84375 -1.421875 12.171875 6.21875 
Q 5.515625 13.875 5.515625 27.296875 
Q 5.515625 40.765625 12.171875 48.375 
Q 18.84375 56 30.609375 56 
z
" id="DejaVuSans-111"/>
      <path d="M 45.40625 27.984375 
Q 45.40625 37.75 41.375 43.109375 
Q 37.359375 48.484375 30.078125 48.484375 
Q 22.859375 48.484375 18.828125 43.109375 
Q 14.796875 37.75 14.796875 27.984375 
Q 14.796875 18.265625 18.828125 12.890625 
Q 22.859375 7.515625 30.078125 7.515625 
Q 37.359375 7.515625 41.375 12.890625 
Q 45.40625 18.265625 45.40625 27.984375 
z
M 54.390625 6.78125 
Q 54.390625 -7.171875 48.1875 -13.984375 
Q 42 -20.796875 29.203125 -20.796875 
Q 24.46875 -20.796875 20.265625 -20.09375 
Q 16.0625 -19.390625 12.109375 -17.921875 
L 12.109375 -9.1875 
Q 16.0625 -11.328125 19.921875 -12.34375 
Q 23.78125 -13.375 27.78125 -13.375 
Q 36.625 -13.375 41.015625 -8.765625 
Q 45.40625 -4.15625 45.40625 5.171875 
L 45.40625 9.625 
Q 42.625 4.78125 38.28125 2.390625 
Q 33.9375 0 27.875 0 
Q 17.828125 0 11.671875 7.65625 
Q 5.515625 15.328125 5.515625 27.984375 
Q 5.515625 40.671875 11.671875 48.328125 
Q 17.828125 56 27.875 56 
Q 33.9375 56 38.28125 53.609375 
Q 42.625 51.21875 45.40625 46.390625 
L 45.40625 54.6875 
L 54.390625 54.6875 
z
" id="DejaVuSans-103"/>
     </defs>
     <g transform="translate(483.707188 79.787188)scale(0.14 -0.14)">
      <use xlink:href="#DejaVuSans-111"/>
      <use x="61.181641" xlink:href="#DejaVuSans-115"/>
      <use x="113.28125" xlink:href="#DejaVuSans-97"/>
      <use x="174.560547" xlink:href="#DejaVuSans-103"/>
      <use x="238.037109" xlink:href="#DejaVuSans-111"/>
     </g>
    </g>
   </g>
  </g>
  <g id="axes_2">
   <g id="patch_7">
    <path d="M 36 525.24 
L 538.2 525.24 
L 538.2 402.93 
L 36 402.93 
z
" style="fill:none;"/>
   </g>
   <g id="patch_8">
    <path clip-path="url(#pba8668ca94)" d="M 174.374513 519.680455 
L 396.406465 519.680455 
L 396.406465 482.616818 
L 174.374513 482.616818 
z
" style="fill:#ff6384;opacity:0.5;"/>
   </g>
   <g id="patch_9">
    <path clip-path="url(#pba8668ca94)" d="M 177.240903 445.553182 
L 399.636331 445.553182 
L 399.636331 408.489545 
L 177.240903 408.489545 
z
" style="fill:#36a2eb;opacity:0.5;"/>
   </g>
   <g id="matplotlib.axis_1">
    <g id="xtick_1">
     <g id="line2d_3">
      <defs>
       <path d="M 0 0 
L 0 3.5 
" id="md9dac00691" style="stroke:#000000;stroke-width:0.8;"/>
      </defs>
      <g>
       <use style="stroke:#000000;stroke-width:0.8;" x="107.075014" xlink:href="#md9dac00691" y="525.24"/>
      </g>
     </g>
     <g id="text_3">
      <!-- 18.5 -->
      <defs>
       <path d="M 12.40625 8.296875 
L 28.515625 8.296875 
L 28.515625 63.921875 
L 10.984375 60.40625 
L 10.984375 69.390625 
L 28.421875 72.90625 
L 38.28125 72.90625 
L 38.28125 8.296875 
L 54.390625 8.296875 
L 54.390625 0 
L 12.40625 0 
z
" id="DejaVuSans-49"/>
       <path d="M 31.78125 34.625 
Q 24.75 34.625 20.71875 30.859375 
Q 16.703125 27.09375 16.703125 20.515625 
Q 16.703125 13.921875 20.71875 10.15625 
Q 24.75 6.390625 31.78125 6.390625 
Q 38.8125 6.390625 42.859375 10.171875 
Q 46.921875 13.96875 46.921875 20.515625 
Q 46.921875 27.09375 42.890625 30.859375 
Q 38.875 34.625 31.78125 34.625 
z
M 21.921875 38.8125 
Q 15.578125 40.375 12.03125 44.71875 
Q 8.5 49.078125 8.5 55.328125 
Q 8.5 64.0625 14.71875 69.140625 
Q 20.953125 74.21875 31.78125 74.21875 
Q 42.671875 74.21875 48.875 69.140625 
Q 55.078125 64.0625 55.078125 55.328125 
Q 55.078125 49.078125 51.53125 44.71875 
Q 48 40.375 41.703125 38.8125 
Q 48.828125 37.15625 52.796875 32.3125 
Q 56.78125 27.484375 56.78125 20.515625 
Q 56.78125 9.90625 50.3125 4.234375 
Q 43.84375 -1.421875 31.78125 -1.421875 
Q 19.734375 -1.421875 13.25 4.234375 
Q 6.78125 9.90625 6.78125 20.515625 
Q 6.78125 27.484375 10.78125 32.3125 
Q 14.796875 37.15625 21.921875 38.8125 
z
M 18.3125 54.390625 
Q 18.3125 48.734375 21.84375 45.5625 
Q 25.390625 42.390625 31.78125 42.390625 
Q 38.140625 42.390625 41.71875 45.5625 
Q 45.3125 48.734375 45.3125 54.390625 
Q 45.3125 60.0625 41.71875 63.234375 
Q 38.140625 66.40625 31.78125 66.40625 
Q 25.390625 66.40625 21.84375 63.234375 
Q 18.3125 60.0625 18.3125 54.390625 
z
" id="DejaVuSans-56"/>
       <path d="M 10.6875 12.40625 
L 21 12.40625 
L 21 0 
L 10.6875 0 
z
" id="DejaVuSans-46"/>
       <path d="M 10.796875 72.90625 
L 49.515625 72.90625 
L 49.515625 64.59375 
L 19.828125 64.59375 
L 19.828125 46.734375 
Q 21.96875 47.46875 24.109375 47.828125 
Q 26.265625 48.1875 28.421875 48.1875 
Q 40.625 48.1875 47.75 41.5 
Q 54.890625 34.8125 54.890625 23.390625 
Q 54.890625 11.625 47.5625 5.09375 
Q 40.234375 -1.421875 26.90625 -1.421875 
Q 22.3125 -1.421875 17.546875 -0.640625 
Q 12.796875 0.140625 7.71875 1.703125 
L 7.71875 11.625 
Q 12.109375 9.234375 16.796875 8.0625 
Q 21.484375 6.890625 26.703125 6.890625 
Q 35.15625 6.890625 40.078125 11.328125 
Q 45.015625 15.765625 45.015625 23.390625 
Q 45.015625 31 40.078125 35.4375 
Q 35.15625 39.890625 26.703125 39.890625 
Q 22.75 39.890625 18.8125 39.015625 
Q 14.890625 38.140625 10.796875 36.28125 
z
" id="DejaVuSans-53"/>
      </defs>
      <g transform="translate(91.489077 542.877813)scale(0.14 -0.14)">
       <use xlink:href="#DejaVuSans-49"/>
       <use x="63.623047" xlink:href="#DejaVuSans-56"/>
       <use x="127.246094" xlink:href="#DejaVuSans-46"/>
       <use x="159.033203" xlink:href="#DejaVuSans-53"/>
      </g>
     </g>
    </g>
    <g id="xtick_2">
     <g id="line2d_4">
      <g>
       <use style="stroke:#000000;stroke-width:0.8;" x="183.278209" xlink:href="#md9dac00691" y="525.24"/>
      </g>
     </g>
     <g id="text_4">
      <!-- 19.0 -->
      <defs>
       <path d="M 10.984375 1.515625 
L 10.984375 10.5 
Q 14.703125 8.734375 18.5 7.8125 
Q 22.3125 6.890625 25.984375 6.890625 
Q 35.75 6.890625 40.890625 13.453125 
Q 46.046875 20.015625 46.78125 33.40625 
Q 43.953125 29.203125 39.59375 26.953125 
Q 35.25 24.703125 29.984375 24.703125 
Q 19.046875 24.703125 12.671875 31.3125 
Q 6.296875 37.9375 6.296875 49.421875 
Q 6.296875 60.640625 12.9375 67.421875 
Q 19.578125 74.21875 30.609375 74.21875 
Q 43.265625 74.21875 49.921875 64.515625 
Q 56.59375 54.828125 56.59375 36.375 
Q 56.59375 19.140625 48.40625 8.859375 
Q 40.234375 -1.421875 26.421875 -1.421875 
Q 22.703125 -1.421875 18.890625 -0.6875 
Q 15.09375 0.046875 10.984375 1.515625 
z
M 30.609375 32.421875 
Q 37.25 32.421875 41.125 36.953125 
Q 45.015625 41.5 45.015625 49.421875 
Q 45.015625 57.28125 41.125 61.84375 
Q 37.25 66.40625 30.609375 66.40625 
Q 23.96875 66.40625 20.09375 61.84375 
Q 16.21875 57.28125 16.21875 49.421875 
Q 16.21875 41.5 20.09375 36.953125 
Q 23.96875 32.421875 30.609375 32.421875 
z
" id="DejaVuSans-57"/>
       <path d="M 31.78125 66.40625 
Q 24.171875 66.40625 20.328125 58.90625 
Q 16.5 51.421875 16.5 36.375 
Q 16.5 21.390625 20.328125 13.890625 
Q 24.171875 6.390625 31.78125 6.390625 
Q 39.453125 6.390625 43.28125 13.890625 
Q 47.125 21.390625 47.125 36.375 
Q 47.125 51.421875 43.28125 58.90625 
Q 39.453125 66.40625 31.78125 66.40625 
z
M 31.78125 74.21875 
Q 44.046875 74.21875 50.515625 64.515625 
Q 56.984375 54.828125 56.984375 36.375 
Q 56.984375 17.96875 50.515625 8.265625 
Q 44.046875 -1.421875 31.78125 -1.421875 
Q 19.53125 -1.421875 13.0625 8.265625 
Q 6.59375 17.96875 6.59375 36.375 
Q 6.59375 54.828125 13.0625 64.515625 
Q 19.53125 74.21875 31.78125 74.21875 
z
" id="DejaVuSans-48"/>
      </defs>
      <g transform="translate(167.692271 542.877813)scale(0.14 -0.14)">
       <use xlink:href="#DejaVuSans-49"/>
       <use x="63.623047" xlink:href="#DejaVuSans-57"/>
       <use x="127.246094" xlink:href="#DejaVuSans-46"/>
       <use x="159.033203" xlink:href="#DejaVuSans-48"/>
      </g>
     </g>
    </g>
    <g id="xtick_3">
     <g id="line2d_5">
      <g>
       <use style="stroke:#000000;stroke-width:0.8;" x="259.481403" xlink:href="#md9dac00691" y="525.24"/>
      </g>
     </g>
     <g id="text_5">
      <!-- 19.5 -->
      <g transform="translate(243.895466 542.877813)scale(0.14 -0.14)">
       <use xlink:href="#DejaVuSans-49"/>
       <use x="63.623047" xlink:href="#DejaVuSans-57"/>
       <use x="127.246094" xlink:href="#DejaVuSans-46"/>
       <use x="159.033203" xlink:href="#DejaVuSans-53"/>
      </g>
     </g>
    </g>
    <g id="xtick_4">
     <g id="line2d_6">
      <g>
       <use style="stroke:#000000;stroke-width:0.8;" x="335.684597" xlink:href="#md9dac00691" y="525.24"/>
      </g>
     </g>
     <g id="text_6">
      <!-- 20.0 -->
      <defs>
       <path d="M 19.1875 8.296875 
L 53.609375 8.296875 
L 53.609375 0 
L 7.328125 0 
L 7.328125 8.296875 
Q 12.9375 14.109375 22.625 23.890625 
Q 32.328125 33.6875 34.8125 36.53125 
Q 39.546875 41.84375 41.421875 45.53125 
Q 43.3125 49.21875 43.3125 52.78125 
Q 43.3125 58.59375 39.234375 62.25 
Q 35.15625 65.921875 28.609375 65.921875 
Q 23.96875 65.921875 18.8125 64.3125 
Q 13.671875 62.703125 7.8125 59.421875 
L 7.8125 69.390625 
Q 13.765625 71.78125 18.9375 73 
Q 24.125 74.21875 28.421875 74.21875 
Q 39.75 74.21875 46.484375 68.546875 
Q 53.21875 62.890625 53.21875 53.421875 
Q 53.21875 48.921875 51.53125 44.890625 
Q 49.859375 40.875 45.40625 35.40625 
Q 44.1875 33.984375 37.640625 27.21875 
Q 31.109375 20.453125 19.1875 8.296875 
z
" id="DejaVuSans-50"/>
      </defs>
      <g transform="translate(320.09866 542.877813)scale(0.14 -0.14)">
       <use xlink:href="#DejaVuSans-50"/>
       <use x="63.623047" xlink:href="#DejaVuSans-48"/>
       <use x="127.246094" xlink:href="#DejaVuSans-46"/>
       <use x="159.033203" xlink:href="#DejaVuSans-48"/>
      </g>
     </g>
    </g>
    <g id="xtick_5">
     <g id="line2d_7">
      <g>
       <use style="stroke:#000000;stroke-width:0.8;" x="411.887792" xlink:href="#md9dac00691" y="525.24"/>
      </g>
     </g>
     <g id="text_7">
      <!-- 20.5 -->
      <g transform="translate(396.301854 542.877813)scale(0.14 -0.14)">
       <use xlink:href="#DejaVuSans-50"/>
       <use x="63.623047" xlink:href="#DejaVuSans-48"/>
       <use x="127.246094" xlink:href="#DejaVuSans-46"/>
       <use x="159.033203" xlink:href="#DejaVuSans-53"/>
      </g>
     </g>
    </g>
    <g id="xtick_6">
     <g id="line2d_8">
      <g>
       <use style="stroke:#000000;stroke-width:0.8;" x="488.090986" xlink:href="#md9dac00691" y="525.24"/>
      </g>
     </g>
     <g id="text_8">
      <!-- 21.0 -->
      <g transform="translate(472.505048 542.877813)scale(0.14 -0.14)">
       <use xlink:href="#DejaVuSans-50"/>
       <use x="63.623047" xlink:href="#DejaVuSans-49"/>
       <use x="127.246094" xlink:href="#DejaVuSans-46"/>
       <use x="159.033203" xlink:href="#DejaVuSans-48"/>
      </g>
     </g>
    </g>
   </g>
   <g id="line2d_9">
    <path clip-path="url(#pba8668ca94)" d="M 285.390489 525.24 
L 285.390489 402.93 
" style="fill:none;stroke:#ff6384;stroke-dasharray:5.55,2.4;stroke-dashoffset:0;stroke-opacity:0.8;stroke-width:1.5;"/>
   </g>
   <g id="line2d_10">
    <path clip-path="url(#pba8668ca94)" d="M 288.438617 525.24 
L 288.438617 402.93 
" style="fill:none;stroke:#36a2eb;stroke-dasharray:5.55,2.4;stroke-dashoffset:0;stroke-opacity:0.8;stroke-width:1.5;"/>
   </g>
   <g id="patch_10">
    <path d="M 36 525.24 
L 538.2 525.24 
" style="fill:none;stroke:#000000;stroke-linecap:square;stroke-linejoin:miter;stroke-width:0.8;"/>
   </g>
  </g>
 </g>
 <defs>
  <clipPath id="p68f7b140ce">
   <rect height="366.93" width="502.2" x="36" y="36"/>
  </clipPath>
  <clipPath id="pba8668ca94">
   <rect height="122.31" width="502.2" x="36" y="402.93"/>
  </clipPath>
 </defs>
</svg>
