<?xml version="1.0" encoding="utf-8" standalone="no"?>
<!DOCTYPE svg PUBLIC "-//W3C//DTD SVG 1.1//EN"
  "http://www.w3.org/Graphics/SVG/1.1/DTD/svg11.dtd">
<!-- Created with matplotlib (https://matplotlib.org/) -->
<svg height="581.789375pt" version="1.1" viewBox="0 0 589.072429 581.789375" width="589.072429pt" xmlns="http://www.w3.org/2000/svg" xmlns:xlink="http://www.w3.org/1999/xlink">
 <defs>
  <style type="text/css">
*{stroke-linecap:butt;stroke-linejoin:round;}
  </style>
 </defs>
 <g id="figure_1">
  <g id="patch_1">
   <path d="M 0 581.789375 
L 589.072429 581.789375 
L 589.072429 0 
L 0 0 
z
" style="fill:none;"/>
  </g>
  <g id="axes_1">
   <g id="patch_2">
    <path d="M 50.872429 402.93 
L 553.072429 402.93 
L 553.072429 36 
L 50.872429 36 
z
" style="fill:none;"/>
   </g>
   <g id="PolyCollection_1">
    <defs>
     <path d="M 90.228396 -195.538011 
L 90.228396 -195.648817 
L 94.67301 -195.6906 
L 99.117624 -195.746771 
L 103.562238 -195.821761 
L 108.006851 -195.921178 
L 112.451465 -196.05206 
L 116.896079 -196.223159 
L 121.340693 -196.445265 
L 125.785306 -196.731553 
L 130.22992 -197.097959 
L 134.674534 -197.56358 
L 139.119147 -198.151062 
L 143.563761 -198.886992 
L 148.008375 -199.802252 
L 152.452989 -200.932308 
L 156.897602 -202.317423 
L 161.342216 -204.002744 
L 165.78683 -206.038236 
L 170.231444 -208.478421 
L 174.676057 -211.381891 
L 179.120671 -214.810558 
L 183.565285 -218.828617 
L 188.009899 -223.501189 
L 192.454512 -228.892659 
L 196.899126 -235.064684 
L 201.34374 -242.073925 
L 205.788354 -249.969513 
L 210.232967 -258.790332 
L 214.677581 -268.562192 
L 219.122195 -279.294989 
L 223.566808 -290.97998 
L 228.011422 -303.587287 
L 232.456036 -317.063789 
L 236.90065 -331.33153 
L 241.345263 -346.286773 
L 245.789877 -361.799837 
L 250.234491 -377.715797 
L 254.679105 -393.85612 
L 259.123718 -410.021273 
L 263.568332 -425.994276 
L 268.012946 -441.545152 
L 272.45756 -456.436155 
L 276.902173 -470.427634 
L 281.346787 -483.284334 
L 285.791401 -494.781906 
L 290.236015 -504.713386 
L 294.680628 -512.895371 
L 299.125242 -519.173644 
L 303.569856 -523.428011 
L 308.014469 -525.576121 
L 312.459083 -525.576121 
L 316.903697 -523.428011 
L 321.348311 -519.173644 
L 325.792924 -512.895371 
L 330.237538 -504.713386 
L 334.682152 -494.781906 
L 339.126766 -483.284334 
L 343.571379 -470.427634 
L 348.015993 -456.436155 
L 352.460607 -441.545152 
L 356.905221 -425.994276 
L 361.349834 -410.021273 
L 365.794448 -393.85612 
L 370.239062 -377.715797 
L 374.683676 -361.799837 
L 379.128289 -346.286773 
L 383.572903 -331.33153 
L 388.017517 -317.063789 
L 392.46213 -303.587287 
L 396.906744 -290.97998 
L 401.351358 -279.294989 
L 405.795972 -268.562192 
L 410.240585 -258.790332 
L 414.685199 -249.969513 
L 419.129813 -242.073925 
L 423.574427 -235.064684 
L 428.01904 -228.892659 
L 432.463654 -223.501189 
L 436.908268 -218.828617 
L 441.352882 -214.810558 
L 445.797495 -211.381891 
L 450.242109 -208.478421 
L 454.686723 -206.038236 
L 459.131337 -204.002744 
L 463.57595 -202.317423 
L 468.020564 -200.932308 
L 472.465178 -199.802252 
L 476.909791 -198.886992 
L 481.354405 -198.151062 
L 485.799019 -197.56358 
L 490.243633 -197.097959 
L 494.688246 -196.731553 
L 499.13286 -196.445265 
L 503.577474 -196.223159 
L 508.022088 -196.05206 
L 512.466701 -195.921178 
L 516.911315 -195.821761 
L 521.355929 -195.746771 
L 525.800543 -195.6906 
L 530.245156 -195.648817 
L 530.245156 -195.538011 
L 530.245156 -195.538011 
L 525.800543 -195.538011 
L 521.355929 -195.538011 
L 516.911315 -195.538011 
L 512.466701 -195.538011 
L 508.022088 -195.538011 
L 503.577474 -195.538011 
L 499.13286 -195.538011 
L 494.688246 -195.538011 
L 490.243633 -195.538011 
L 485.799019 -195.538011 
L 481.354405 -195.538011 
L 476.909791 -195.538011 
L 472.465178 -195.538011 
L 468.020564 -195.538011 
L 463.57595 -195.538011 
L 459.131337 -195.538011 
L 454.686723 -195.538011 
L 450.242109 -195.538011 
L 445.797495 -195.538011 
L 441.352882 -195.538011 
L 436.908268 -195.538011 
L 432.463654 -195.538011 
L 428.01904 -195.538011 
L 423.574427 -195.538011 
L 419.129813 -195.538011 
L 414.685199 -195.538011 
L 410.240585 -195.538011 
L 405.795972 -195.538011 
L 401.351358 -195.538011 
L 396.906744 -195.538011 
L 392.46213 -195.538011 
L 388.017517 -195.538011 
L 383.572903 -195.538011 
L 379.128289 -195.538011 
L 374.683676 -195.538011 
L 370.239062 -195.538011 
L 365.794448 -195.538011 
L 361.349834 -195.538011 
L 356.905221 -195.538011 
L 352.460607 -195.538011 
L 348.015993 -195.538011 
L 343.571379 -195.538011 
L 339.126766 -195.538011 
L 334.682152 -195.538011 
L 330.237538 -195.538011 
L 325.792924 -195.538011 
L 321.348311 -195.538011 
L 316.903697 -195.538011 
L 312.459083 -195.538011 
L 308.014469 -195.538011 
L 303.569856 -195.538011 
L 299.125242 -195.538011 
L 294.680628 -195.538011 
L 290.236015 -195.538011 
L 285.791401 -195.538011 
L 281.346787 -195.538011 
L 276.902173 -195.538011 
L 272.45756 -195.538011 
L 268.012946 -195.538011 
L 263.568332 -195.538011 
L 259.123718 -195.538011 
L 254.679105 -195.538011 
L 250.234491 -195.538011 
L 245.789877 -195.538011 
L 241.345263 -195.538011 
L 236.90065 -195.538011 
L 232.456036 -195.538011 
L 228.011422 -195.538011 
L 223.566808 -195.538011 
L 219.122195 -195.538011 
L 214.677581 -195.538011 
L 210.232967 -195.538011 
L 205.788354 -195.538011 
L 201.34374 -195.538011 
L 196.899126 -195.538011 
L 192.454512 -195.538011 
L 188.009899 -195.538011 
L 183.565285 -195.538011 
L 179.120671 -195.538011 
L 174.676057 -195.538011 
L 170.231444 -195.538011 
L 165.78683 -195.538011 
L 161.342216 -195.538011 
L 156.897602 -195.538011 
L 152.452989 -195.538011 
L 148.008375 -195.538011 
L 143.563761 -195.538011 
L 139.119147 -195.538011 
L 134.674534 -195.538011 
L 130.22992 -195.538011 
L 125.785306 -195.538011 
L 121.340693 -195.538011 
L 116.896079 -195.538011 
L 112.451465 -195.538011 
L 108.006851 -195.538011 
L 103.562238 -195.538011 
L 99.117624 -195.538011 
L 94.67301 -195.538011 
L 90.228396 -195.538011 
z
" id="m4430e41fc7" style="stroke:#ff6384;stroke-opacity:0.5;"/>
    </defs>
    <g clip-path="url(#p760dbf173d)">
     <use style="fill:#ff6384;fill-opacity:0.5;stroke:#ff6384;stroke-opacity:0.5;" x="0" xlink:href="#m4430e41fc7" y="581.789375"/>
    </g>
   </g>
   <g id="PolyCollection_2">
    <defs>
     <path d="M 73.699702 -195.538011 
L 73.699702 -195.650004 
L 78.097219 -195.692234 
L 82.494737 -195.749007 
L 86.892254 -195.8248 
L 91.289772 -195.925281 
L 95.687289 -196.057565 
L 100.084807 -196.230497 
L 104.482324 -196.454982 
L 108.879842 -196.744335 
L 113.277359 -197.114666 
L 117.674877 -197.585273 
L 122.072395 -198.179047 
L 126.469912 -198.922859 
L 130.86743 -199.847921 
L 135.264947 -200.990079 
L 139.662465 -202.390029 
L 144.059982 -204.093399 
L 148.4575 -206.150691 
L 152.855017 -208.617009 
L 157.252535 -211.551575 
L 161.650052 -215.016962 
L 166.04757 -219.078053 
L 170.445087 -223.800667 
L 174.842605 -229.249878 
L 179.240122 -235.488004 
L 183.63764 -242.572312 
L 188.035157 -250.552459 
L 192.432675 -259.467747 
L 196.830193 -269.344261 
L 201.22771 -280.192004 
L 205.625228 -292.002137 
L 210.022745 -304.744465 
L 214.420263 -318.365297 
L 218.81778 -332.785841 
L 223.215298 -347.901251 
L 227.612815 -363.580456 
L 232.010333 -379.666871 
L 236.40785 -395.980052 
L 240.805368 -412.31833 
L 245.202885 -428.4624 
L 249.600403 -444.179822 
L 253.99792 -459.230303 
L 258.395438 -473.371627 
L 262.792955 -486.366018 
L 267.190473 -497.986726 
L 271.58799 -508.02457 
L 275.985508 -516.294181 
L 280.383026 -522.639693 
L 284.780543 -526.939623 
L 289.178061 -529.110739 
L 293.575578 -529.110739 
L 297.973096 -526.939623 
L 302.370613 -522.639693 
L 306.768131 -516.294181 
L 311.165648 -508.02457 
L 315.563166 -497.986726 
L 319.960683 -486.366018 
L 324.358201 -473.371627 
L 328.755718 -459.230303 
L 333.153236 -444.179822 
L 337.550753 -428.4624 
L 341.948271 -412.31833 
L 346.345788 -395.980052 
L 350.743306 -379.666871 
L 355.140823 -363.580456 
L 359.538341 -347.901251 
L 363.935859 -332.785841 
L 368.333376 -318.365297 
L 372.730894 -304.744465 
L 377.128411 -292.002137 
L 381.525929 -280.192004 
L 385.923446 -269.344261 
L 390.320964 -259.467747 
L 394.718481 -250.552459 
L 399.115999 -242.572312 
L 403.513516 -235.488004 
L 407.911034 -229.249878 
L 412.308551 -223.800667 
L 416.706069 -219.078053 
L 421.103586 -215.016962 
L 425.501104 -211.551575 
L 429.898621 -208.617009 
L 434.296139 -206.150691 
L 438.693657 -204.093399 
L 443.091174 -202.390029 
L 447.488692 -200.990079 
L 451.886209 -199.847921 
L 456.283727 -198.922859 
L 460.681244 -198.179047 
L 465.078762 -197.585273 
L 469.476279 -197.114666 
L 473.873797 -196.744335 
L 478.271314 -196.454982 
L 482.668832 -196.230497 
L 487.066349 -196.057565 
L 491.463867 -195.925281 
L 495.861384 -195.8248 
L 500.258902 -195.749007 
L 504.656419 -195.692234 
L 509.053937 -195.650004 
L 509.053937 -195.538011 
L 509.053937 -195.538011 
L 504.656419 -195.538011 
L 500.258902 -195.538011 
L 495.861384 -195.538011 
L 491.463867 -195.538011 
L 487.066349 -195.538011 
L 482.668832 -195.538011 
L 478.271314 -195.538011 
L 473.873797 -195.538011 
L 469.476279 -195.538011 
L 465.078762 -195.538011 
L 460.681244 -195.538011 
L 456.283727 -195.538011 
L 451.886209 -195.538011 
L 447.488692 -195.538011 
L 443.091174 -195.538011 
L 438.693657 -195.538011 
L 434.296139 -195.538011 
L 429.898621 -195.538011 
L 425.501104 -195.538011 
L 421.103586 -195.538011 
L 416.706069 -195.538011 
L 412.308551 -195.538011 
L 407.911034 -195.538011 
L 403.513516 -195.538011 
L 399.115999 -195.538011 
L 394.718481 -195.538011 
L 390.320964 -195.538011 
L 385.923446 -195.538011 
L 381.525929 -195.538011 
L 377.128411 -195.538011 
L 372.730894 -195.538011 
L 368.333376 -195.538011 
L 363.935859 -195.538011 
L 359.538341 -195.538011 
L 355.140823 -195.538011 
L 350.743306 -195.538011 
L 346.345788 -195.538011 
L 341.948271 -195.538011 
L 337.550753 -195.538011 
L 333.153236 -195.538011 
L 328.755718 -195.538011 
L 324.358201 -195.538011 
L 319.960683 -195.538011 
L 315.563166 -195.538011 
L 311.165648 -195.538011 
L 306.768131 -195.538011 
L 302.370613 -195.538011 
L 297.973096 -195.538011 
L 293.575578 -195.538011 
L 289.178061 -195.538011 
L 284.780543 -195.538011 
L 280.383026 -195.538011 
L 275.985508 -195.538011 
L 271.58799 -195.538011 
L 267.190473 -195.538011 
L 262.792955 -195.538011 
L 258.395438 -195.538011 
L 253.99792 -195.538011 
L 249.600403 -195.538011 
L 245.202885 -195.538011 
L 240.805368 -195.538011 
L 236.40785 -195.538011 
L 232.010333 -195.538011 
L 227.612815 -195.538011 
L 223.215298 -195.538011 
L 218.81778 -195.538011 
L 214.420263 -195.538011 
L 210.022745 -195.538011 
L 205.625228 -195.538011 
L 201.22771 -195.538011 
L 196.830193 -195.538011 
L 192.432675 -195.538011 
L 188.035157 -195.538011 
L 183.63764 -195.538011 
L 179.240122 -195.538011 
L 174.842605 -195.538011 
L 170.445087 -195.538011 
L 166.04757 -195.538011 
L 161.650052 -195.538011 
L 157.252535 -195.538011 
L 152.855017 -195.538011 
L 148.4575 -195.538011 
L 144.059982 -195.538011 
L 139.662465 -195.538011 
L 135.264947 -195.538011 
L 130.86743 -195.538011 
L 126.469912 -195.538011 
L 122.072395 -195.538011 
L 117.674877 -195.538011 
L 113.277359 -195.538011 
L 108.879842 -195.538011 
L 104.482324 -195.538011 
L 100.084807 -195.538011 
L 95.687289 -195.538011 
L 91.289772 -195.538011 
L 86.892254 -195.538011 
L 82.494737 -195.538011 
L 78.097219 -195.538011 
L 73.699702 -195.538011 
z
" id="mb46d101ae3" style="stroke:#36a2eb;stroke-opacity:0.5;"/>
    </defs>
    <g clip-path="url(#p760dbf173d)">
     <use style="fill:#36a2eb;fill-opacity:0.5;stroke:#36a2eb;stroke-opacity:0.5;" x="0" xlink:href="#mb46d101ae3" y="581.789375"/>
    </g>
   </g>
   <g id="line2d_1">
    <path clip-path="url(#p760dbf173d)" d="M 90.228396 386.140558 
L 94.67301 386.098775 
L 99.117624 386.042604 
L 103.562238 385.967614 
L 108.006851 385.868197 
L 112.451465 385.737315 
L 116.896079 385.566216 
L 121.340693 385.34411 
L 125.785306 385.057822 
L 130.22992 384.691416 
L 134.674534 384.225795 
L 139.119147 383.638313 
L 143.563761 382.902383 
L 148.008375 381.987123 
L 152.452989 380.857067 
L 156.897602 379.471952 
L 161.342216 377.786631 
L 165.78683 375.751139 
L 170.231444 373.310954 
L 174.676057 370.407484 
L 179.120671 366.978817 
L 183.565285 362.960758 
L 188.009899 358.288186 
L 192.454512 352.896716 
L 196.899126 346.724691 
L 201.34374 339.71545 
L 205.788354 331.819862 
L 210.232967 322.999043 
L 214.677581 313.227183 
L 219.122195 302.494386 
L 223.566808 290.809395 
L 228.011422 278.202088 
L 232.456036 264.725586 
L 236.90065 250.457845 
L 241.345263 235.502602 
L 245.789877 219.989538 
L 250.234491 204.073578 
L 254.679105 187.933255 
L 259.123718 171.768102 
L 263.568332 155.795099 
L 268.012946 140.244223 
L 272.45756 125.35322 
L 276.902173 111.361741 
L 281.346787 98.505041 
L 285.791401 87.007469 
L 290.236015 77.075989 
L 294.680628 68.894004 
L 299.125242 62.615731 
L 303.569856 58.361364 
L 308.014469 56.213254 
L 312.459083 56.213254 
L 316.903697 58.361364 
L 321.348311 62.615731 
L 325.792924 68.894004 
L 330.237538 77.075989 
L 334.682152 87.007469 
L 339.126766 98.505041 
L 343.571379 111.361741 
L 348.015993 125.35322 
L 352.460607 140.244223 
L 356.905221 155.795099 
L 361.349834 171.768102 
L 365.794448 187.933255 
L 370.239062 204.073578 
L 374.683676 219.989538 
L 379.128289 235.502602 
L 383.572903 250.457845 
L 388.017517 264.725586 
L 392.46213 278.202088 
L 396.906744 290.809395 
L 401.351358 302.494386 
L 405.795972 313.227183 
L 410.240585 322.999043 
L 414.685199 331.819862 
L 419.129813 339.71545 
L 423.574427 346.724691 
L 428.01904 352.896716 
L 432.463654 358.288186 
L 436.908268 362.960758 
L 441.352882 366.978817 
L 445.797495 370.407484 
L 450.242109 373.310954 
L 454.686723 375.751139 
L 459.131337 377.786631 
L 463.57595 379.471952 
L 468.020564 380.857067 
L 472.465178 381.987123 
L 476.909791 382.902383 
L 481.354405 383.638313 
L 485.799019 384.225795 
L 490.243633 384.691416 
L 494.688246 385.057822 
L 499.13286 385.34411 
L 503.577474 385.566216 
L 508.022088 385.737315 
L 512.466701 385.868197 
L 516.911315 385.967614 
L 521.355929 386.042604 
L 525.800543 386.098775 
L 530.245156 386.140558 
" style="fill:none;stroke:#ff6384;stroke-linecap:square;"/>
   </g>
   <g id="line2d_2">
    <path clip-path="url(#p760dbf173d)" d="M 73.699702 386.139371 
L 78.097219 386.097141 
L 82.494737 386.040368 
L 86.892254 385.964575 
L 91.289772 385.864094 
L 95.687289 385.73181 
L 100.084807 385.558878 
L 104.482324 385.334393 
L 108.879842 385.04504 
L 113.277359 384.674709 
L 117.674877 384.204102 
L 122.072395 383.610328 
L 126.469912 382.866516 
L 130.86743 381.941454 
L 135.264947 380.799296 
L 139.662465 379.399346 
L 144.059982 377.695976 
L 148.4575 375.638684 
L 152.855017 373.172366 
L 157.252535 370.2378 
L 161.650052 366.772413 
L 166.04757 362.711322 
L 170.445087 357.988708 
L 174.842605 352.539497 
L 179.240122 346.301371 
L 183.63764 339.217063 
L 188.035157 331.236916 
L 192.432675 322.321628 
L 196.830193 312.445114 
L 201.22771 301.597371 
L 205.625228 289.787238 
L 210.022745 277.04491 
L 214.420263 263.424078 
L 218.81778 249.003534 
L 223.215298 233.888124 
L 227.612815 218.208919 
L 232.010333 202.122504 
L 236.40785 185.809323 
L 240.805368 169.471045 
L 245.202885 153.326975 
L 249.600403 137.609553 
L 253.99792 122.559072 
L 258.395438 108.417748 
L 262.792955 95.423357 
L 267.190473 83.802649 
L 271.58799 73.764805 
L 275.985508 65.495194 
L 280.383026 59.149682 
L 284.780543 54.849752 
L 289.178061 52.678636 
L 293.575578 52.678636 
L 297.973096 54.849752 
L 302.370613 59.149682 
L 306.768131 65.495194 
L 311.165648 73.764805 
L 315.563166 83.802649 
L 319.960683 95.423357 
L 324.358201 108.417748 
L 328.755718 122.559072 
L 333.153236 137.609553 
L 337.550753 153.326975 
L 341.948271 169.471045 
L 346.345788 185.809323 
L 350.743306 202.122504 
L 355.140823 218.208919 
L 359.538341 233.888124 
L 363.935859 249.003534 
L 368.333376 263.424078 
L 372.730894 277.04491 
L 377.128411 289.787238 
L 381.525929 301.597371 
L 385.923446 312.445114 
L 390.320964 322.321628 
L 394.718481 331.236916 
L 399.115999 339.217063 
L 403.513516 346.301371 
L 407.911034 352.539497 
L 412.308551 357.988708 
L 416.706069 362.711322 
L 421.103586 366.772413 
L 425.501104 370.2378 
L 429.898621 373.172366 
L 434.296139 375.638684 
L 438.693657 377.695976 
L 443.091174 379.399346 
L 447.488692 380.799296 
L 451.886209 381.941454 
L 456.283727 382.866516 
L 460.681244 383.610328 
L 465.078762 384.204102 
L 469.476279 384.674709 
L 473.873797 385.04504 
L 478.271314 385.334393 
L 482.668832 385.558878 
L 487.066349 385.73181 
L 491.463867 385.864094 
L 495.861384 385.964575 
L 500.258902 386.040368 
L 504.656419 386.097141 
L 509.053937 386.139371 
" style="fill:none;stroke:#36a2eb;stroke-linecap:square;"/>
   </g>
   <g id="patch_3">
    <path d="M 50.872429 402.93 
L 553.072429 402.93 
" style="fill:none;stroke:#000000;stroke-linecap:square;stroke-linejoin:miter;stroke-width:0.8;"/>
   </g>
   <g id="legend_1">
    <g id="patch_4">
     <path d="M 456.579617 88.29875 
L 543.272429 88.29875 
Q 546.072429 88.29875 546.072429 85.49875 
L 546.072429 45.8 
Q 546.072429 43 543.272429 43 
L 456.579617 43 
Q 453.779617 43 453.779617 45.8 
L 453.779617 85.49875 
Q 453.779617 88.29875 456.579617 88.29875 
z
" style="fill:#ffffff;opacity:0.8;stroke:#cccccc;stroke-linejoin:miter;"/>
    </g>
    <g id="patch_5">
     <path d="M 459.379617 59.237813 
L 487.379617 59.237813 
L 487.379617 49.437813 
L 459.379617 49.437813 
z
" style="fill:#ff6384;opacity:0.5;stroke:#ff6384;stroke-linejoin:miter;"/>
    </g>
    <g id="text_1">
     <!-- base -->
     <defs>
      <path d="M 48.6875 27.296875 
Q 48.6875 37.203125 44.609375 42.84375 
Q 40.53125 48.484375 33.40625 48.484375 
Q 26.265625 48.484375 22.1875 42.84375 
Q 18.109375 37.203125 18.109375 27.296875 
Q 18.109375 17.390625 22.1875 11.75 
Q 26.265625 6.109375 33.40625 6.109375 
Q 40.53125 6.109375 44.609375 11.75 
Q 48.6875 17.390625 48.6875 27.296875 
z
M 18.109375 46.390625 
Q 20.953125 51.265625 25.265625 53.625 
Q 29.59375 56 35.59375 56 
Q 45.5625 56 51.78125 48.09375 
Q 58.015625 40.1875 58.015625 27.296875 
Q 58.015625 14.40625 51.78125 6.484375 
Q 45.5625 -1.421875 35.59375 -1.421875 
Q 29.59375 -1.421875 25.265625 0.953125 
Q 20.953125 3.328125 18.109375 8.203125 
L 18.109375 0 
L 9.078125 0 
L 9.078125 75.984375 
L 18.109375 75.984375 
z
" id="DejaVuSans-98"/>
      <path d="M 34.28125 27.484375 
Q 23.390625 27.484375 19.1875 25 
Q 14.984375 22.515625 14.984375 16.5 
Q 14.984375 11.71875 18.140625 8.90625 
Q 21.296875 6.109375 26.703125 6.109375 
Q 34.1875 6.109375 38.703125 11.40625 
Q 43.21875 16.703125 43.21875 25.484375 
L 43.21875 27.484375 
z
M 52.203125 31.203125 
L 52.203125 0 
L 43.21875 0 
L 43.21875 8.296875 
Q 40.140625 3.328125 35.546875 0.953125 
Q 30.953125 -1.421875 24.3125 -1.421875 
Q 15.921875 -1.421875 10.953125 3.296875 
Q 6 8.015625 6 15.921875 
Q 6 25.140625 12.171875 29.828125 
Q 18.359375 34.515625 30.609375 34.515625 
L 43.21875 34.515625 
L 43.21875 35.40625 
Q 43.21875 41.609375 39.140625 45 
Q 35.0625 48.390625 27.6875 48.390625 
Q 23 48.390625 18.546875 47.265625 
Q 14.109375 46.140625 10.015625 43.890625 
L 10.015625 52.203125 
Q 14.9375 54.109375 19.578125 55.046875 
Q 24.21875 56 28.609375 56 
Q 40.484375 56 46.34375 49.84375 
Q 52.203125 43.703125 52.203125 31.203125 
z
" id="DejaVuSans-97"/>
      <path d="M 44.28125 53.078125 
L 44.28125 44.578125 
Q 40.484375 46.53125 36.375 47.5 
Q 32.28125 48.484375 27.875 48.484375 
Q 21.1875 48.484375 17.84375 46.4375 
Q 14.5 44.390625 14.5 40.28125 
Q 14.5 37.15625 16.890625 35.375 
Q 19.28125 33.59375 26.515625 31.984375 
L 29.59375 31.296875 
Q 39.15625 29.25 43.1875 25.515625 
Q 47.21875 21.78125 47.21875 15.09375 
Q 47.21875 7.46875 41.1875 3.015625 
Q 35.15625 -1.421875 24.609375 -1.421875 
Q 20.21875 -1.421875 15.453125 -0.5625 
Q 10.6875 0.296875 5.421875 2 
L 5.421875 11.28125 
Q 10.40625 8.6875 15.234375 7.390625 
Q 20.0625 6.109375 24.8125 6.109375 
Q 31.15625 6.109375 34.5625 8.28125 
Q 37.984375 10.453125 37.984375 14.40625 
Q 37.984375 18.0625 35.515625 20.015625 
Q 33.0625 21.96875 24.703125 23.78125 
L 21.578125 24.515625 
Q 13.234375 26.265625 9.515625 29.90625 
Q 5.8125 33.546875 5.8125 39.890625 
Q 5.8125 47.609375 11.28125 51.796875 
Q 16.75 56 26.8125 56 
Q 31.78125 56 36.171875 55.265625 
Q 40.578125 54.546875 44.28125 53.078125 
z
" id="DejaVuSans-115"/>
      <path d="M 56.203125 29.59375 
L 56.203125 25.203125 
L 14.890625 25.203125 
Q 15.484375 15.921875 20.484375 11.0625 
Q 25.484375 6.203125 34.421875 6.203125 
Q 39.59375 6.203125 44.453125 7.46875 
Q 49.3125 8.734375 54.109375 11.28125 
L 54.109375 2.78125 
Q 49.265625 0.734375 44.1875 -0.34375 
Q 39.109375 -1.421875 33.890625 -1.421875 
Q 20.796875 -1.421875 13.15625 6.1875 
Q 5.515625 13.8125 5.515625 26.8125 
Q 5.515625 40.234375 12.765625 48.109375 
Q 20.015625 56 32.328125 56 
Q 43.359375 56 49.78125 48.890625 
Q 56.203125 41.796875 56.203125 29.59375 
z
M 47.21875 32.234375 
Q 47.125 39.59375 43.09375 43.984375 
Q 39.0625 48.390625 32.421875 48.390625 
Q 24.90625 48.390625 20.390625 44.140625 
Q 15.875 39.890625 15.1875 32.171875 
z
" id="DejaVuSans-101"/>
     </defs>
     <g transform="translate(498.579617 59.237813)scale(0.14 -0.14)">
      <use xlink:href="#DejaVuSans-98"/>
      <use x="63.476562" xlink:href="#DejaVuSans-97"/>
      <use x="124.755859" xlink:href="#DejaVuSans-115"/>
      <use x="176.855469" xlink:href="#DejaVuSans-101"/>
     </g>
    </g>
    <g id="patch_6">
     <path d="M 459.379617 79.787188 
L 487.379617 79.787188 
L 487.379617 69.987188 
L 459.379617 69.987188 
z
" style="fill:#36a2eb;opacity:0.5;stroke:#36a2eb;stroke-linejoin:miter;"/>
    </g>
    <g id="text_2">
     <!-- osago -->
     <defs>
      <path d="M 30.609375 48.390625 
Q 23.390625 48.390625 19.1875 42.75 
Q 14.984375 37.109375 14.984375 27.296875 
Q 14.984375 17.484375 19.15625 11.84375 
Q 23.34375 6.203125 30.609375 6.203125 
Q 37.796875 6.203125 41.984375 11.859375 
Q 46.1875 17.53125 46.1875 27.296875 
Q 46.1875 37.015625 41.984375 42.703125 
Q 37.796875 48.390625 30.609375 48.390625 
z
M 30.609375 56 
Q 42.328125 56 49.015625 48.375 
Q 55.71875 40.765625 55.71875 27.296875 
Q 55.71875 13.875 49.015625 6.21875 
Q 42.328125 -1.421875 30.609375 -1.421875 
Q 18.84375 -1.421875 12.171875 6.21875 
Q 5.515625 13.875 5.515625 27.296875 
Q 5.515625 40.765625 12.171875 48.375 
Q 18.84375 56 30.609375 56 
z
" id="DejaVuSans-111"/>
      <path d="M 45.40625 27.984375 
Q 45.40625 37.75 41.375 43.109375 
Q 37.359375 48.484375 30.078125 48.484375 
Q 22.859375 48.484375 18.828125 43.109375 
Q 14.796875 37.75 14.796875 27.984375 
Q 14.796875 18.265625 18.828125 12.890625 
Q 22.859375 7.515625 30.078125 7.515625 
Q 37.359375 7.515625 41.375 12.890625 
Q 45.40625 18.265625 45.40625 27.984375 
z
M 54.390625 6.78125 
Q 54.390625 -7.171875 48.1875 -13.984375 
Q 42 -20.796875 29.203125 -20.796875 
Q 24.46875 -20.796875 20.265625 -20.09375 
Q 16.0625 -19.390625 12.109375 -17.921875 
L 12.109375 -9.1875 
Q 16.0625 -11.328125 19.921875 -12.34375 
Q 23.78125 -13.375 27.78125 -13.375 
Q 36.625 -13.375 41.015625 -8.765625 
Q 45.40625 -4.15625 45.40625 5.171875 
L 45.40625 9.625 
Q 42.625 4.78125 38.28125 2.390625 
Q 33.9375 0 27.875 0 
Q 17.828125 0 11.671875 7.65625 
Q 5.515625 15.328125 5.515625 27.984375 
Q 5.515625 40.671875 11.671875 48.328125 
Q 17.828125 56 27.875 56 
Q 33.9375 56 38.28125 53.609375 
Q 42.625 51.21875 45.40625 46.390625 
L 45.40625 54.6875 
L 54.390625 54.6875 
z
" id="DejaVuSans-103"/>
     </defs>
     <g transform="translate(498.579617 79.787188)scale(0.14 -0.14)">
      <use xlink:href="#DejaVuSans-111"/>
      <use x="61.181641" xlink:href="#DejaVuSans-115"/>
      <use x="113.28125" xlink:href="#DejaVuSans-97"/>
      <use x="174.560547" xlink:href="#DejaVuSans-103"/>
      <use x="238.037109" xlink:href="#DejaVuSans-111"/>
     </g>
    </g>
   </g>
  </g>
  <g id="axes_2">
   <g id="patch_7">
    <path d="M 50.872429 525.24 
L 553.072429 525.24 
L 553.072429 402.93 
L 50.872429 402.93 
z
" style="fill:none;"/>
   </g>
   <g id="patch_8">
    <path clip-path="url(#pb75573ea1c)" d="M 202.43267 519.680455 
L 418.040883 519.680455 
L 418.040883 482.616818 
L 202.43267 482.616818 
z
" style="fill:#ff6384;opacity:0.5;"/>
   </g>
   <g id="patch_9">
    <path clip-path="url(#pb75573ea1c)" d="M 184.715032 445.553182 
L 398.038607 445.553182 
L 398.038607 408.489545 
L 184.715032 408.489545 
z
" style="fill:#36a2eb;opacity:0.5;"/>
   </g>
   <g id="matplotlib.axis_1">
    <g id="xtick_1">
     <g id="line2d_3">
      <defs>
       <path d="M 0 0 
L 0 3.5 
" id="m363a9264e1" style="stroke:#000000;stroke-width:0.8;"/>
      </defs>
      <g>
       <use style="stroke:#000000;stroke-width:0.8;" x="51.585938" xlink:href="#m363a9264e1" y="525.24"/>
      </g>
     </g>
     <g id="text_3">
      <!-- 0.50 -->
      <defs>
       <path d="M 31.78125 66.40625 
Q 24.171875 66.40625 20.328125 58.90625 
Q 16.5 51.421875 16.5 36.375 
Q 16.5 21.390625 20.328125 13.890625 
Q 24.171875 6.390625 31.78125 6.390625 
Q 39.453125 6.390625 43.28125 13.890625 
Q 47.125 21.390625 47.125 36.375 
Q 47.125 51.421875 43.28125 58.90625 
Q 39.453125 66.40625 31.78125 66.40625 
z
M 31.78125 74.21875 
Q 44.046875 74.21875 50.515625 64.515625 
Q 56.984375 54.828125 56.984375 36.375 
Q 56.984375 17.96875 50.515625 8.265625 
Q 44.046875 -1.421875 31.78125 -1.421875 
Q 19.53125 -1.421875 13.0625 8.265625 
Q 6.59375 17.96875 6.59375 36.375 
Q 6.59375 54.828125 13.0625 64.515625 
Q 19.53125 74.21875 31.78125 74.21875 
z
" id="DejaVuSans-48"/>
       <path d="M 10.6875 12.40625 
L 21 12.40625 
L 21 0 
L 10.6875 0 
z
" id="DejaVuSans-46"/>
       <path d="M 10.796875 72.90625 
L 49.515625 72.90625 
L 49.515625 64.59375 
L 19.828125 64.59375 
L 19.828125 46.734375 
Q 21.96875 47.46875 24.109375 47.828125 
Q 26.265625 48.1875 28.421875 48.1875 
Q 40.625 48.1875 47.75 41.5 
Q 54.890625 34.8125 54.890625 23.390625 
Q 54.890625 11.625 47.5625 5.09375 
Q 40.234375 -1.421875 26.90625 -1.421875 
Q 22.3125 -1.421875 17.546875 -0.640625 
Q 12.796875 0.140625 7.71875 1.703125 
L 7.71875 11.625 
Q 12.109375 9.234375 16.796875 8.0625 
Q 21.484375 6.890625 26.703125 6.890625 
Q 35.15625 6.890625 40.078125 11.328125 
Q 45.015625 15.765625 45.015625 23.390625 
Q 45.015625 31 40.078125 35.4375 
Q 35.15625 39.890625 26.703125 39.890625 
Q 22.75 39.890625 18.8125 39.015625 
Q 14.890625 38.140625 10.796875 36.28125 
z
" id="DejaVuSans-53"/>
      </defs>
      <g transform="translate(36 542.877813)scale(0.14 -0.14)">
       <use xlink:href="#DejaVuSans-48"/>
       <use x="63.623047" xlink:href="#DejaVuSans-46"/>
       <use x="95.410156" xlink:href="#DejaVuSans-53"/>
       <use x="159.033203" xlink:href="#DejaVuSans-48"/>
      </g>
     </g>
    </g>
    <g id="xtick_2">
     <g id="line2d_4">
      <g>
       <use style="stroke:#000000;stroke-width:0.8;" x="118.942927" xlink:href="#m363a9264e1" y="525.24"/>
      </g>
     </g>
     <g id="text_4">
      <!-- 0.75 -->
      <defs>
       <path d="M 8.203125 72.90625 
L 55.078125 72.90625 
L 55.078125 68.703125 
L 28.609375 0 
L 18.3125 0 
L 43.21875 64.59375 
L 8.203125 64.59375 
z
" id="DejaVuSans-55"/>
      </defs>
      <g transform="translate(103.356989 542.877813)scale(0.14 -0.14)">
       <use xlink:href="#DejaVuSans-48"/>
       <use x="63.623047" xlink:href="#DejaVuSans-46"/>
       <use x="95.410156" xlink:href="#DejaVuSans-55"/>
       <use x="159.033203" xlink:href="#DejaVuSans-53"/>
      </g>
     </g>
    </g>
    <g id="xtick_3">
     <g id="line2d_5">
      <g>
       <use style="stroke:#000000;stroke-width:0.8;" x="186.299916" xlink:href="#m363a9264e1" y="525.24"/>
      </g>
     </g>
     <g id="text_5">
      <!-- 1.00 -->
      <defs>
       <path d="M 12.40625 8.296875 
L 28.515625 8.296875 
L 28.515625 63.921875 
L 10.984375 60.40625 
L 10.984375 69.390625 
L 28.421875 72.90625 
L 38.28125 72.90625 
L 38.28125 8.296875 
L 54.390625 8.296875 
L 54.390625 0 
L 12.40625 0 
z
" id="DejaVuSans-49"/>
      </defs>
      <g transform="translate(170.713979 542.877813)scale(0.14 -0.14)">
       <use xlink:href="#DejaVuSans-49"/>
       <use x="63.623047" xlink:href="#DejaVuSans-46"/>
       <use x="95.410156" xlink:href="#DejaVuSans-48"/>
       <use x="159.033203" xlink:href="#DejaVuSans-48"/>
      </g>
     </g>
    </g>
    <g id="xtick_4">
     <g id="line2d_6">
      <g>
       <use style="stroke:#000000;stroke-width:0.8;" x="253.656905" xlink:href="#m363a9264e1" y="525.24"/>
      </g>
     </g>
     <g id="text_6">
      <!-- 1.25 -->
      <defs>
       <path d="M 19.1875 8.296875 
L 53.609375 8.296875 
L 53.609375 0 
L 7.328125 0 
L 7.328125 8.296875 
Q 12.9375 14.109375 22.625 23.890625 
Q 32.328125 33.6875 34.8125 36.53125 
Q 39.546875 41.84375 41.421875 45.53125 
Q 43.3125 49.21875 43.3125 52.78125 
Q 43.3125 58.59375 39.234375 62.25 
Q 35.15625 65.921875 28.609375 65.921875 
Q 23.96875 65.921875 18.8125 64.3125 
Q 13.671875 62.703125 7.8125 59.421875 
L 7.8125 69.390625 
Q 13.765625 71.78125 18.9375 73 
Q 24.125 74.21875 28.421875 74.21875 
Q 39.75 74.21875 46.484375 68.546875 
Q 53.21875 62.890625 53.21875 53.421875 
Q 53.21875 48.921875 51.53125 44.890625 
Q 49.859375 40.875 45.40625 35.40625 
Q 44.1875 33.984375 37.640625 27.21875 
Q 31.109375 20.453125 19.1875 8.296875 
z
" id="DejaVuSans-50"/>
      </defs>
      <g transform="translate(238.070968 542.877813)scale(0.14 -0.14)">
       <use xlink:href="#DejaVuSans-49"/>
       <use x="63.623047" xlink:href="#DejaVuSans-46"/>
       <use x="95.410156" xlink:href="#DejaVuSans-50"/>
       <use x="159.033203" xlink:href="#DejaVuSans-53"/>
      </g>
     </g>
    </g>
    <g id="xtick_5">
     <g id="line2d_7">
      <g>
       <use style="stroke:#000000;stroke-width:0.8;" x="321.013895" xlink:href="#m363a9264e1" y="525.24"/>
      </g>
     </g>
     <g id="text_7">
      <!-- 1.50 -->
      <g transform="translate(305.427957 542.877813)scale(0.14 -0.14)">
       <use xlink:href="#DejaVuSans-49"/>
       <use x="63.623047" xlink:href="#DejaVuSans-46"/>
       <use x="95.410156" xlink:href="#DejaVuSans-53"/>
       <use x="159.033203" xlink:href="#DejaVuSans-48"/>
      </g>
     </g>
    </g>
    <g id="xtick_6">
     <g id="line2d_8">
      <g>
       <use style="stroke:#000000;stroke-width:0.8;" x="388.370884" xlink:href="#m363a9264e1" y="525.24"/>
      </g>
     </g>
     <g id="text_8">
      <!-- 1.75 -->
      <g transform="translate(372.784946 542.877813)scale(0.14 -0.14)">
       <use xlink:href="#DejaVuSans-49"/>
       <use x="63.623047" xlink:href="#DejaVuSans-46"/>
       <use x="95.410156" xlink:href="#DejaVuSans-55"/>
       <use x="159.033203" xlink:href="#DejaVuSans-53"/>
      </g>
     </g>
    </g>
    <g id="xtick_7">
     <g id="line2d_9">
      <g>
       <use style="stroke:#000000;stroke-width:0.8;" x="455.727873" xlink:href="#m363a9264e1" y="525.24"/>
      </g>
     </g>
     <g id="text_9">
      <!-- 2.00 -->
      <g transform="translate(440.141936 542.877813)scale(0.14 -0.14)">
       <use xlink:href="#DejaVuSans-50"/>
       <use x="63.623047" xlink:href="#DejaVuSans-46"/>
       <use x="95.410156" xlink:href="#DejaVuSans-48"/>
       <use x="159.033203" xlink:href="#DejaVuSans-48"/>
      </g>
     </g>
    </g>
    <g id="xtick_8">
     <g id="line2d_10">
      <g>
       <use style="stroke:#000000;stroke-width:0.8;" x="523.084862" xlink:href="#m363a9264e1" y="525.24"/>
      </g>
     </g>
     <g id="text_10">
      <!-- 2.25 -->
      <g transform="translate(507.498925 542.877813)scale(0.14 -0.14)">
       <use xlink:href="#DejaVuSans-50"/>
       <use x="63.623047" xlink:href="#DejaVuSans-46"/>
       <use x="95.410156" xlink:href="#DejaVuSans-50"/>
       <use x="159.033203" xlink:href="#DejaVuSans-53"/>
      </g>
     </g>
    </g>
   </g>
   <g id="line2d_11">
    <path clip-path="url(#pb75573ea1c)" d="M 310.236776 525.24 
L 310.236776 402.93 
" style="fill:none;stroke:#ff6384;stroke-dasharray:5.55,2.4;stroke-dashoffset:0;stroke-opacity:0.8;stroke-width:1.5;"/>
   </g>
   <g id="line2d_12">
    <path clip-path="url(#pb75573ea1c)" d="M 291.376819 525.24 
L 291.376819 402.93 
" style="fill:none;stroke:#36a2eb;stroke-dasharray:5.55,2.4;stroke-dashoffset:0;stroke-opacity:0.8;stroke-width:1.5;"/>
   </g>
   <g id="patch_10">
    <path d="M 50.872429 525.24 
L 553.072429 525.24 
" style="fill:none;stroke:#000000;stroke-linecap:square;stroke-linejoin:miter;stroke-width:0.8;"/>
   </g>
  </g>
 </g>
 <defs>
  <clipPath id="p760dbf173d">
   <rect height="366.93" width="502.2" x="50.872429" y="36"/>
  </clipPath>
  <clipPath id="pb75573ea1c">
   <rect height="122.31" width="502.2" x="50.872429" y="402.93"/>
  </clipPath>
 </defs>
</svg>
