<?xml version="1.0" encoding="utf-8" standalone="no"?>
<!DOCTYPE svg PUBLIC "-//W3C//DTD SVG 1.1//EN"
  "http://www.w3.org/Graphics/SVG/1.1/DTD/svg11.dtd">
<!-- Created with matplotlib (https://matplotlib.org/) -->
<svg height="581.789375pt" version="1.1" viewBox="0 0 574.2 581.789375" width="574.2pt" xmlns="http://www.w3.org/2000/svg" xmlns:xlink="http://www.w3.org/1999/xlink">
 <defs>
  <style type="text/css">
*{stroke-linecap:butt;stroke-linejoin:round;}
  </style>
 </defs>
 <g id="figure_1">
  <g id="patch_1">
   <path d="M 0 581.789375 
L 574.2 581.789375 
L 574.2 0 
L 0 0 
z
" style="fill:none;"/>
  </g>
  <g id="axes_1">
   <g id="patch_2">
    <path d="M 36 402.93 
L 538.2 402.93 
L 538.2 36 
L 36 36 
z
" style="fill:none;"/>
   </g>
   <g id="PolyCollection_1">
    <defs>
     <path d="M 72.871705 -195.538011 
L 72.871705 -195.649723 
L 77.341413 -195.691847 
L 81.81112 -195.748477 
L 86.280827 -195.82408 
L 90.750535 -195.924309 
L 95.220242 -196.05626 
L 99.689949 -196.228758 
L 104.159656 -196.452679 
L 108.629364 -196.741306 
L 113.099071 -197.110707 
L 117.568778 -197.580132 
L 122.038486 -198.172415 
L 126.508193 -198.91436 
L 130.9779 -199.837099 
L 135.447607 -200.976389 
L 139.917315 -202.372823 
L 144.387022 -204.071917 
L 148.856729 -206.124043 
L 153.326437 -208.584168 
L 157.796144 -211.511365 
L 162.265851 -214.968051 
L 166.735559 -219.018945 
L 171.205266 -223.729701 
L 175.674973 -229.165229 
L 180.14468 -235.387691 
L 184.614388 -242.454211 
L 189.084095 -250.41432 
L 193.553802 -259.307222 
L 198.02351 -269.158936 
L 202.493217 -279.979441 
L 206.962924 -291.75992 
L 211.432631 -304.470252 
L 215.902339 -318.056883 
L 220.372046 -332.441217 
L 224.841753 -347.518673 
L 229.311461 -363.158508 
L 233.781168 -379.20453 
L 238.250875 -395.47675 
L 242.720582 -411.774003 
L 247.19029 -427.877536 
L 251.659997 -443.555491 
L 256.129704 -458.568182 
L 260.599412 -472.673997 
L 265.069119 -485.63576 
L 269.538826 -497.227289 
L 274.008534 -507.239928 
L 278.478241 -515.488775 
L 282.947948 -521.818353 
L 287.417655 -526.107486 
L 291.887363 -528.27315 
L 296.35707 -528.27315 
L 300.826777 -526.107486 
L 305.296485 -521.818353 
L 309.766192 -515.488775 
L 314.235899 -507.239928 
L 318.705606 -497.227289 
L 323.175314 -485.63576 
L 327.645021 -472.673997 
L 332.114728 -458.568182 
L 336.584436 -443.555491 
L 341.054143 -427.877536 
L 345.52385 -411.774003 
L 349.993557 -395.47675 
L 354.463265 -379.20453 
L 358.932972 -363.158508 
L 363.402679 -347.518673 
L 367.872387 -332.441217 
L 372.342094 -318.056883 
L 376.811801 -304.470252 
L 381.281509 -291.75992 
L 385.751216 -279.979441 
L 390.220923 -269.158936 
L 394.69063 -259.307222 
L 399.160338 -250.41432 
L 403.630045 -242.454211 
L 408.099752 -235.387691 
L 412.56946 -229.165229 
L 417.039167 -223.729701 
L 421.508874 -219.018945 
L 425.978581 -214.968051 
L 430.448289 -211.511365 
L 434.917996 -208.584168 
L 439.387703 -206.124043 
L 443.857411 -204.071917 
L 448.327118 -202.372823 
L 452.796825 -200.976389 
L 457.266532 -199.837099 
L 461.73624 -198.91436 
L 466.205947 -198.172415 
L 470.675654 -197.580132 
L 475.145362 -197.110707 
L 479.615069 -196.741306 
L 484.084776 -196.452679 
L 488.554484 -196.228758 
L 493.024191 -196.05626 
L 497.493898 -195.924309 
L 501.963605 -195.82408 
L 506.433313 -195.748477 
L 510.90302 -195.691847 
L 515.372727 -195.649723 
L 515.372727 -195.538011 
L 515.372727 -195.538011 
L 510.90302 -195.538011 
L 506.433313 -195.538011 
L 501.963605 -195.538011 
L 497.493898 -195.538011 
L 493.024191 -195.538011 
L 488.554484 -195.538011 
L 484.084776 -195.538011 
L 479.615069 -195.538011 
L 475.145362 -195.538011 
L 470.675654 -195.538011 
L 466.205947 -195.538011 
L 461.73624 -195.538011 
L 457.266532 -195.538011 
L 452.796825 -195.538011 
L 448.327118 -195.538011 
L 443.857411 -195.538011 
L 439.387703 -195.538011 
L 434.917996 -195.538011 
L 430.448289 -195.538011 
L 425.978581 -195.538011 
L 421.508874 -195.538011 
L 417.039167 -195.538011 
L 412.56946 -195.538011 
L 408.099752 -195.538011 
L 403.630045 -195.538011 
L 399.160338 -195.538011 
L 394.69063 -195.538011 
L 390.220923 -195.538011 
L 385.751216 -195.538011 
L 381.281509 -195.538011 
L 376.811801 -195.538011 
L 372.342094 -195.538011 
L 367.872387 -195.538011 
L 363.402679 -195.538011 
L 358.932972 -195.538011 
L 354.463265 -195.538011 
L 349.993557 -195.538011 
L 345.52385 -195.538011 
L 341.054143 -195.538011 
L 336.584436 -195.538011 
L 332.114728 -195.538011 
L 327.645021 -195.538011 
L 323.175314 -195.538011 
L 318.705606 -195.538011 
L 314.235899 -195.538011 
L 309.766192 -195.538011 
L 305.296485 -195.538011 
L 300.826777 -195.538011 
L 296.35707 -195.538011 
L 291.887363 -195.538011 
L 287.417655 -195.538011 
L 282.947948 -195.538011 
L 278.478241 -195.538011 
L 274.008534 -195.538011 
L 269.538826 -195.538011 
L 265.069119 -195.538011 
L 260.599412 -195.538011 
L 256.129704 -195.538011 
L 251.659997 -195.538011 
L 247.19029 -195.538011 
L 242.720582 -195.538011 
L 238.250875 -195.538011 
L 233.781168 -195.538011 
L 229.311461 -195.538011 
L 224.841753 -195.538011 
L 220.372046 -195.538011 
L 215.902339 -195.538011 
L 211.432631 -195.538011 
L 206.962924 -195.538011 
L 202.493217 -195.538011 
L 198.02351 -195.538011 
L 193.553802 -195.538011 
L 189.084095 -195.538011 
L 184.614388 -195.538011 
L 180.14468 -195.538011 
L 175.674973 -195.538011 
L 171.205266 -195.538011 
L 166.735559 -195.538011 
L 162.265851 -195.538011 
L 157.796144 -195.538011 
L 153.326437 -195.538011 
L 148.856729 -195.538011 
L 144.387022 -195.538011 
L 139.917315 -195.538011 
L 135.447607 -195.538011 
L 130.9779 -195.538011 
L 126.508193 -195.538011 
L 122.038486 -195.538011 
L 117.568778 -195.538011 
L 113.099071 -195.538011 
L 108.629364 -195.538011 
L 104.159656 -195.538011 
L 99.689949 -195.538011 
L 95.220242 -195.538011 
L 90.750535 -195.538011 
L 86.280827 -195.538011 
L 81.81112 -195.538011 
L 77.341413 -195.538011 
L 72.871705 -195.538011 
z
" id="m45a3c1d25a" style="stroke:#ff6384;stroke-opacity:0.5;"/>
    </defs>
    <g clip-path="url(#pc3140c0f25)">
     <use style="fill:#ff6384;fill-opacity:0.5;stroke:#ff6384;stroke-opacity:0.5;" x="0" xlink:href="#m45a3c1d25a" y="581.789375"/>
    </g>
   </g>
   <g id="PolyCollection_2">
    <defs>
     <path d="M 58.827273 -195.538011 
L 58.827273 -195.650004 
L 63.285757 -195.692234 
L 67.744241 -195.749007 
L 72.202725 -195.8248 
L 76.661209 -195.925281 
L 81.119693 -196.057565 
L 85.578177 -196.230497 
L 90.036661 -196.454982 
L 94.495145 -196.744335 
L 98.953629 -197.114666 
L 103.412113 -197.585273 
L 107.870597 -198.179047 
L 112.329081 -198.922859 
L 116.787565 -199.847921 
L 121.246049 -200.990079 
L 125.704533 -202.390029 
L 130.163017 -204.093399 
L 134.621501 -206.150691 
L 139.079985 -208.617009 
L 143.538469 -211.551575 
L 147.996953 -215.016962 
L 152.455437 -219.078053 
L 156.913921 -223.800667 
L 161.372405 -229.249878 
L 165.830889 -235.488004 
L 170.289373 -242.572312 
L 174.747857 -250.552459 
L 179.206341 -259.467747 
L 183.664825 -269.344261 
L 188.123309 -280.192004 
L 192.581794 -292.002137 
L 197.040278 -304.744465 
L 201.498762 -318.365297 
L 205.957246 -332.785841 
L 210.41573 -347.901251 
L 214.874214 -363.580456 
L 219.332698 -379.666871 
L 223.791182 -395.980052 
L 228.249666 -412.31833 
L 232.70815 -428.4624 
L 237.166634 -444.179822 
L 241.625118 -459.230303 
L 246.083602 -473.371627 
L 250.542086 -486.366018 
L 255.00057 -497.986726 
L 259.459054 -508.02457 
L 263.917538 -516.294181 
L 268.376022 -522.639693 
L 272.834506 -526.939623 
L 277.29299 -529.110739 
L 281.751474 -529.110739 
L 286.209958 -526.939623 
L 290.668442 -522.639693 
L 295.126926 -516.294181 
L 299.58541 -508.02457 
L 304.043894 -497.986726 
L 308.502378 -486.366018 
L 312.960862 -473.371627 
L 317.419346 -459.230303 
L 321.87783 -444.179822 
L 326.336314 -428.4624 
L 330.794798 -412.31833 
L 335.253282 -395.980052 
L 339.711766 -379.666871 
L 344.17025 -363.580456 
L 348.628734 -347.901251 
L 353.087218 -332.785841 
L 357.545703 -318.365297 
L 362.004187 -304.744465 
L 366.462671 -292.002137 
L 370.921155 -280.192004 
L 375.379639 -269.344261 
L 379.838123 -259.467747 
L 384.296607 -250.552459 
L 388.755091 -242.572312 
L 393.213575 -235.488004 
L 397.672059 -229.249878 
L 402.130543 -223.800667 
L 406.589027 -219.078053 
L 411.047511 -215.016962 
L 415.505995 -211.551575 
L 419.964479 -208.617009 
L 424.422963 -206.150691 
L 428.881447 -204.093399 
L 433.339931 -202.390029 
L 437.798415 -200.990079 
L 442.256899 -199.847921 
L 446.715383 -198.922859 
L 451.173867 -198.179047 
L 455.632351 -197.585273 
L 460.090835 -197.114666 
L 464.549319 -196.744335 
L 469.007803 -196.454982 
L 473.466287 -196.230497 
L 477.924771 -196.057565 
L 482.383255 -195.925281 
L 486.841739 -195.8248 
L 491.300223 -195.749007 
L 495.758707 -195.692234 
L 500.217191 -195.650004 
L 500.217191 -195.538011 
L 500.217191 -195.538011 
L 495.758707 -195.538011 
L 491.300223 -195.538011 
L 486.841739 -195.538011 
L 482.383255 -195.538011 
L 477.924771 -195.538011 
L 473.466287 -195.538011 
L 469.007803 -195.538011 
L 464.549319 -195.538011 
L 460.090835 -195.538011 
L 455.632351 -195.538011 
L 451.173867 -195.538011 
L 446.715383 -195.538011 
L 442.256899 -195.538011 
L 437.798415 -195.538011 
L 433.339931 -195.538011 
L 428.881447 -195.538011 
L 424.422963 -195.538011 
L 419.964479 -195.538011 
L 415.505995 -195.538011 
L 411.047511 -195.538011 
L 406.589027 -195.538011 
L 402.130543 -195.538011 
L 397.672059 -195.538011 
L 393.213575 -195.538011 
L 388.755091 -195.538011 
L 384.296607 -195.538011 
L 379.838123 -195.538011 
L 375.379639 -195.538011 
L 370.921155 -195.538011 
L 366.462671 -195.538011 
L 362.004187 -195.538011 
L 357.545703 -195.538011 
L 353.087218 -195.538011 
L 348.628734 -195.538011 
L 344.17025 -195.538011 
L 339.711766 -195.538011 
L 335.253282 -195.538011 
L 330.794798 -195.538011 
L 326.336314 -195.538011 
L 321.87783 -195.538011 
L 317.419346 -195.538011 
L 312.960862 -195.538011 
L 308.502378 -195.538011 
L 304.043894 -195.538011 
L 299.58541 -195.538011 
L 295.126926 -195.538011 
L 290.668442 -195.538011 
L 286.209958 -195.538011 
L 281.751474 -195.538011 
L 277.29299 -195.538011 
L 272.834506 -195.538011 
L 268.376022 -195.538011 
L 263.917538 -195.538011 
L 259.459054 -195.538011 
L 255.00057 -195.538011 
L 250.542086 -195.538011 
L 246.083602 -195.538011 
L 241.625118 -195.538011 
L 237.166634 -195.538011 
L 232.70815 -195.538011 
L 228.249666 -195.538011 
L 223.791182 -195.538011 
L 219.332698 -195.538011 
L 214.874214 -195.538011 
L 210.41573 -195.538011 
L 205.957246 -195.538011 
L 201.498762 -195.538011 
L 197.040278 -195.538011 
L 192.581794 -195.538011 
L 188.123309 -195.538011 
L 183.664825 -195.538011 
L 179.206341 -195.538011 
L 174.747857 -195.538011 
L 170.289373 -195.538011 
L 165.830889 -195.538011 
L 161.372405 -195.538011 
L 156.913921 -195.538011 
L 152.455437 -195.538011 
L 147.996953 -195.538011 
L 143.538469 -195.538011 
L 139.079985 -195.538011 
L 134.621501 -195.538011 
L 130.163017 -195.538011 
L 125.704533 -195.538011 
L 121.246049 -195.538011 
L 116.787565 -195.538011 
L 112.329081 -195.538011 
L 107.870597 -195.538011 
L 103.412113 -195.538011 
L 98.953629 -195.538011 
L 94.495145 -195.538011 
L 90.036661 -195.538011 
L 85.578177 -195.538011 
L 81.119693 -195.538011 
L 76.661209 -195.538011 
L 72.202725 -195.538011 
L 67.744241 -195.538011 
L 63.285757 -195.538011 
L 58.827273 -195.538011 
z
" id="m466f2b3d90" style="stroke:#36a2eb;stroke-opacity:0.5;"/>
    </defs>
    <g clip-path="url(#pc3140c0f25)">
     <use style="fill:#36a2eb;fill-opacity:0.5;stroke:#36a2eb;stroke-opacity:0.5;" x="0" xlink:href="#m466f2b3d90" y="581.789375"/>
    </g>
   </g>
   <g id="line2d_1">
    <path clip-path="url(#pc3140c0f25)" d="M 72.871705 386.139652 
L 77.341413 386.097528 
L 81.81112 386.040898 
L 86.280827 385.965295 
L 90.750535 385.865066 
L 95.220242 385.733115 
L 99.689949 385.560617 
L 104.159656 385.336696 
L 108.629364 385.048069 
L 113.099071 384.678668 
L 117.568778 384.209243 
L 122.038486 383.61696 
L 126.508193 382.875015 
L 130.9779 381.952276 
L 135.447607 380.812986 
L 139.917315 379.416552 
L 144.387022 377.717458 
L 148.856729 375.665332 
L 153.326437 373.205207 
L 157.796144 370.27801 
L 162.265851 366.821324 
L 166.735559 362.77043 
L 171.205266 358.059674 
L 175.674973 352.624146 
L 180.14468 346.401684 
L 184.614388 339.335164 
L 189.084095 331.375055 
L 193.553802 322.482153 
L 198.02351 312.630439 
L 202.493217 301.809934 
L 206.962924 290.029455 
L 211.432631 277.319123 
L 215.902339 263.732492 
L 220.372046 249.348158 
L 224.841753 234.270702 
L 229.311461 218.630867 
L 233.781168 202.584845 
L 238.250875 186.312625 
L 242.720582 170.015372 
L 247.19029 153.911839 
L 251.659997 138.233884 
L 256.129704 123.221193 
L 260.599412 109.115378 
L 265.069119 96.153615 
L 269.538826 84.562086 
L 274.008534 74.549447 
L 278.478241 66.3006 
L 282.947948 59.971022 
L 287.417655 55.681889 
L 291.887363 53.516225 
L 296.35707 53.516225 
L 300.826777 55.681889 
L 305.296485 59.971022 
L 309.766192 66.3006 
L 314.235899 74.549447 
L 318.705606 84.562086 
L 323.175314 96.153615 
L 327.645021 109.115378 
L 332.114728 123.221193 
L 336.584436 138.233884 
L 341.054143 153.911839 
L 345.52385 170.015372 
L 349.993557 186.312625 
L 354.463265 202.584845 
L 358.932972 218.630867 
L 363.402679 234.270702 
L 367.872387 249.348158 
L 372.342094 263.732492 
L 376.811801 277.319123 
L 381.281509 290.029455 
L 385.751216 301.809934 
L 390.220923 312.630439 
L 394.69063 322.482153 
L 399.160338 331.375055 
L 403.630045 339.335164 
L 408.099752 346.401684 
L 412.56946 352.624146 
L 417.039167 358.059674 
L 421.508874 362.77043 
L 425.978581 366.821324 
L 430.448289 370.27801 
L 434.917996 373.205207 
L 439.387703 375.665332 
L 443.857411 377.717458 
L 448.327118 379.416552 
L 452.796825 380.812986 
L 457.266532 381.952276 
L 461.73624 382.875015 
L 466.205947 383.61696 
L 470.675654 384.209243 
L 475.145362 384.678668 
L 479.615069 385.048069 
L 484.084776 385.336696 
L 488.554484 385.560617 
L 493.024191 385.733115 
L 497.493898 385.865066 
L 501.963605 385.965295 
L 506.433313 386.040898 
L 510.90302 386.097528 
L 515.372727 386.139652 
" style="fill:none;stroke:#ff6384;stroke-linecap:square;"/>
   </g>
   <g id="line2d_2">
    <path clip-path="url(#pc3140c0f25)" d="M 58.827273 386.139371 
L 63.285757 386.097141 
L 67.744241 386.040368 
L 72.202725 385.964575 
L 76.661209 385.864094 
L 81.119693 385.73181 
L 85.578177 385.558878 
L 90.036661 385.334393 
L 94.495145 385.04504 
L 98.953629 384.674709 
L 103.412113 384.204102 
L 107.870597 383.610328 
L 112.329081 382.866516 
L 116.787565 381.941454 
L 121.246049 380.799296 
L 125.704533 379.399346 
L 130.163017 377.695976 
L 134.621501 375.638684 
L 139.079985 373.172366 
L 143.538469 370.2378 
L 147.996953 366.772413 
L 152.455437 362.711322 
L 156.913921 357.988708 
L 161.372405 352.539497 
L 165.830889 346.301371 
L 170.289373 339.217063 
L 174.747857 331.236916 
L 179.206341 322.321628 
L 183.664825 312.445114 
L 188.123309 301.597371 
L 192.581794 289.787238 
L 197.040278 277.04491 
L 201.498762 263.424078 
L 205.957246 249.003534 
L 210.41573 233.888124 
L 214.874214 218.208919 
L 219.332698 202.122504 
L 223.791182 185.809323 
L 228.249666 169.471045 
L 232.70815 153.326975 
L 237.166634 137.609553 
L 241.625118 122.559072 
L 246.083602 108.417748 
L 250.542086 95.423357 
L 255.00057 83.802649 
L 259.459054 73.764805 
L 263.917538 65.495194 
L 268.376022 59.149682 
L 272.834506 54.849752 
L 277.29299 52.678636 
L 281.751474 52.678636 
L 286.209958 54.849752 
L 290.668442 59.149682 
L 295.126926 65.495194 
L 299.58541 73.764805 
L 304.043894 83.802649 
L 308.502378 95.423357 
L 312.960862 108.417748 
L 317.419346 122.559072 
L 321.87783 137.609553 
L 326.336314 153.326975 
L 330.794798 169.471045 
L 335.253282 185.809323 
L 339.711766 202.122504 
L 344.17025 218.208919 
L 348.628734 233.888124 
L 353.087218 249.003534 
L 357.545703 263.424078 
L 362.004187 277.04491 
L 366.462671 289.787238 
L 370.921155 301.597371 
L 375.379639 312.445114 
L 379.838123 322.321628 
L 384.296607 331.236916 
L 388.755091 339.217063 
L 393.213575 346.301371 
L 397.672059 352.539497 
L 402.130543 357.988708 
L 406.589027 362.711322 
L 411.047511 366.772413 
L 415.505995 370.2378 
L 419.964479 373.172366 
L 424.422963 375.638684 
L 428.881447 377.695976 
L 433.339931 379.399346 
L 437.798415 380.799296 
L 442.256899 381.941454 
L 446.715383 382.866516 
L 451.173867 383.610328 
L 455.632351 384.204102 
L 460.090835 384.674709 
L 464.549319 385.04504 
L 469.007803 385.334393 
L 473.466287 385.558878 
L 477.924771 385.73181 
L 482.383255 385.864094 
L 486.841739 385.964575 
L 491.300223 386.040368 
L 495.758707 386.097141 
L 500.217191 386.139371 
" style="fill:none;stroke:#36a2eb;stroke-linecap:square;"/>
   </g>
   <g id="patch_3">
    <path d="M 36 402.93 
L 538.2 402.93 
" style="fill:none;stroke:#000000;stroke-linecap:square;stroke-linejoin:miter;stroke-width:0.8;"/>
   </g>
   <g id="legend_1">
    <g id="patch_4">
     <path d="M 441.707188 88.29875 
L 528.4 88.29875 
Q 531.2 88.29875 531.2 85.49875 
L 531.2 45.8 
Q 531.2 43 528.4 43 
L 441.707188 43 
Q 438.907188 43 438.907188 45.8 
L 438.907188 85.49875 
Q 438.907188 88.29875 441.707188 88.29875 
z
" style="fill:#ffffff;opacity:0.8;stroke:#cccccc;stroke-linejoin:miter;"/>
    </g>
    <g id="patch_5">
     <path d="M 444.507188 59.237813 
L 472.507188 59.237813 
L 472.507188 49.437813 
L 444.507188 49.437813 
z
" style="fill:#ff6384;opacity:0.5;stroke:#ff6384;stroke-linejoin:miter;"/>
    </g>
    <g id="text_1">
     <!-- base -->
     <defs>
      <path d="M 48.6875 27.296875 
Q 48.6875 37.203125 44.609375 42.84375 
Q 40.53125 48.484375 33.40625 48.484375 
Q 26.265625 48.484375 22.1875 42.84375 
Q 18.109375 37.203125 18.109375 27.296875 
Q 18.109375 17.390625 22.1875 11.75 
Q 26.265625 6.109375 33.40625 6.109375 
Q 40.53125 6.109375 44.609375 11.75 
Q 48.6875 17.390625 48.6875 27.296875 
z
M 18.109375 46.390625 
Q 20.953125 51.265625 25.265625 53.625 
Q 29.59375 56 35.59375 56 
Q 45.5625 56 51.78125 48.09375 
Q 58.015625 40.1875 58.015625 27.296875 
Q 58.015625 14.40625 51.78125 6.484375 
Q 45.5625 -1.421875 35.59375 -1.421875 
Q 29.59375 -1.421875 25.265625 0.953125 
Q 20.953125 3.328125 18.109375 8.203125 
L 18.109375 0 
L 9.078125 0 
L 9.078125 75.984375 
L 18.109375 75.984375 
z
" id="DejaVuSans-98"/>
      <path d="M 34.28125 27.484375 
Q 23.390625 27.484375 19.1875 25 
Q 14.984375 22.515625 14.984375 16.5 
Q 14.984375 11.71875 18.140625 8.90625 
Q 21.296875 6.109375 26.703125 6.109375 
Q 34.1875 6.109375 38.703125 11.40625 
Q 43.21875 16.703125 43.21875 25.484375 
L 43.21875 27.484375 
z
M 52.203125 31.203125 
L 52.203125 0 
L 43.21875 0 
L 43.21875 8.296875 
Q 40.140625 3.328125 35.546875 0.953125 
Q 30.953125 -1.421875 24.3125 -1.421875 
Q 15.921875 -1.421875 10.953125 3.296875 
Q 6 8.015625 6 15.921875 
Q 6 25.140625 12.171875 29.828125 
Q 18.359375 34.515625 30.609375 34.515625 
L 43.21875 34.515625 
L 43.21875 35.40625 
Q 43.21875 41.609375 39.140625 45 
Q 35.0625 48.390625 27.6875 48.390625 
Q 23 48.390625 18.546875 47.265625 
Q 14.109375 46.140625 10.015625 43.890625 
L 10.015625 52.203125 
Q 14.9375 54.109375 19.578125 55.046875 
Q 24.21875 56 28.609375 56 
Q 40.484375 56 46.34375 49.84375 
Q 52.203125 43.703125 52.203125 31.203125 
z
" id="DejaVuSans-97"/>
      <path d="M 44.28125 53.078125 
L 44.28125 44.578125 
Q 40.484375 46.53125 36.375 47.5 
Q 32.28125 48.484375 27.875 48.484375 
Q 21.1875 48.484375 17.84375 46.4375 
Q 14.5 44.390625 14.5 40.28125 
Q 14.5 37.15625 16.890625 35.375 
Q 19.28125 33.59375 26.515625 31.984375 
L 29.59375 31.296875 
Q 39.15625 29.25 43.1875 25.515625 
Q 47.21875 21.78125 47.21875 15.09375 
Q 47.21875 7.46875 41.1875 3.015625 
Q 35.15625 -1.421875 24.609375 -1.421875 
Q 20.21875 -1.421875 15.453125 -0.5625 
Q 10.6875 0.296875 5.421875 2 
L 5.421875 11.28125 
Q 10.40625 8.6875 15.234375 7.390625 
Q 20.0625 6.109375 24.8125 6.109375 
Q 31.15625 6.109375 34.5625 8.28125 
Q 37.984375 10.453125 37.984375 14.40625 
Q 37.984375 18.0625 35.515625 20.015625 
Q 33.0625 21.96875 24.703125 23.78125 
L 21.578125 24.515625 
Q 13.234375 26.265625 9.515625 29.90625 
Q 5.8125 33.546875 5.8125 39.890625 
Q 5.8125 47.609375 11.28125 51.796875 
Q 16.75 56 26.8125 56 
Q 31.78125 56 36.171875 55.265625 
Q 40.578125 54.546875 44.28125 53.078125 
z
" id="DejaVuSans-115"/>
      <path d="M 56.203125 29.59375 
L 56.203125 25.203125 
L 14.890625 25.203125 
Q 15.484375 15.921875 20.484375 11.0625 
Q 25.484375 6.203125 34.421875 6.203125 
Q 39.59375 6.203125 44.453125 7.46875 
Q 49.3125 8.734375 54.109375 11.28125 
L 54.109375 2.78125 
Q 49.265625 0.734375 44.1875 -0.34375 
Q 39.109375 -1.421875 33.890625 -1.421875 
Q 20.796875 -1.421875 13.15625 6.1875 
Q 5.515625 13.8125 5.515625 26.8125 
Q 5.515625 40.234375 12.765625 48.109375 
Q 20.015625 56 32.328125 56 
Q 43.359375 56 49.78125 48.890625 
Q 56.203125 41.796875 56.203125 29.59375 
z
M 47.21875 32.234375 
Q 47.125 39.59375 43.09375 43.984375 
Q 39.0625 48.390625 32.421875 48.390625 
Q 24.90625 48.390625 20.390625 44.140625 
Q 15.875 39.890625 15.1875 32.171875 
z
" id="DejaVuSans-101"/>
     </defs>
     <g transform="translate(483.707188 59.237813)scale(0.14 -0.14)">
      <use xlink:href="#DejaVuSans-98"/>
      <use x="63.476562" xlink:href="#DejaVuSans-97"/>
      <use x="124.755859" xlink:href="#DejaVuSans-115"/>
      <use x="176.855469" xlink:href="#DejaVuSans-101"/>
     </g>
    </g>
    <g id="patch_6">
     <path d="M 444.507188 79.787188 
L 472.507188 79.787188 
L 472.507188 69.987188 
L 444.507188 69.987188 
z
" style="fill:#36a2eb;opacity:0.5;stroke:#36a2eb;stroke-linejoin:miter;"/>
    </g>
    <g id="text_2">
     <!-- osago -->
     <defs>
      <path d="M 30.609375 48.390625 
Q 23.390625 48.390625 19.1875 42.75 
Q 14.984375 37.109375 14.984375 27.296875 
Q 14.984375 17.484375 19.15625 11.84375 
Q 23.34375 6.203125 30.609375 6.203125 
Q 37.796875 6.203125 41.984375 11.859375 
Q 46.1875 17.53125 46.1875 27.296875 
Q 46.1875 37.015625 41.984375 42.703125 
Q 37.796875 48.390625 30.609375 48.390625 
z
M 30.609375 56 
Q 42.328125 56 49.015625 48.375 
Q 55.71875 40.765625 55.71875 27.296875 
Q 55.71875 13.875 49.015625 6.21875 
Q 42.328125 -1.421875 30.609375 -1.421875 
Q 18.84375 -1.421875 12.171875 6.21875 
Q 5.515625 13.875 5.515625 27.296875 
Q 5.515625 40.765625 12.171875 48.375 
Q 18.84375 56 30.609375 56 
z
" id="DejaVuSans-111"/>
      <path d="M 45.40625 27.984375 
Q 45.40625 37.75 41.375 43.109375 
Q 37.359375 48.484375 30.078125 48.484375 
Q 22.859375 48.484375 18.828125 43.109375 
Q 14.796875 37.75 14.796875 27.984375 
Q 14.796875 18.265625 18.828125 12.890625 
Q 22.859375 7.515625 30.078125 7.515625 
Q 37.359375 7.515625 41.375 12.890625 
Q 45.40625 18.265625 45.40625 27.984375 
z
M 54.390625 6.78125 
Q 54.390625 -7.171875 48.1875 -13.984375 
Q 42 -20.796875 29.203125 -20.796875 
Q 24.46875 -20.796875 20.265625 -20.09375 
Q 16.0625 -19.390625 12.109375 -17.921875 
L 12.109375 -9.1875 
Q 16.0625 -11.328125 19.921875 -12.34375 
Q 23.78125 -13.375 27.78125 -13.375 
Q 36.625 -13.375 41.015625 -8.765625 
Q 45.40625 -4.15625 45.40625 5.171875 
L 45.40625 9.625 
Q 42.625 4.78125 38.28125 2.390625 
Q 33.9375 0 27.875 0 
Q 17.828125 0 11.671875 7.65625 
Q 5.515625 15.328125 5.515625 27.984375 
Q 5.515625 40.671875 11.671875 48.328125 
Q 17.828125 56 27.875 56 
Q 33.9375 56 38.28125 53.609375 
Q 42.625 51.21875 45.40625 46.390625 
L 45.40625 54.6875 
L 54.390625 54.6875 
z
" id="DejaVuSans-103"/>
     </defs>
     <g transform="translate(483.707188 79.787188)scale(0.14 -0.14)">
      <use xlink:href="#DejaVuSans-111"/>
      <use x="61.181641" xlink:href="#DejaVuSans-115"/>
      <use x="113.28125" xlink:href="#DejaVuSans-97"/>
      <use x="174.560547" xlink:href="#DejaVuSans-103"/>
      <use x="238.037109" xlink:href="#DejaVuSans-111"/>
     </g>
    </g>
   </g>
  </g>
  <g id="axes_2">
   <g id="patch_7">
    <path d="M 36 525.24 
L 538.2 525.24 
L 538.2 402.93 
L 36 402.93 
z
" style="fill:none;"/>
   </g>
   <g id="patch_8">
    <path clip-path="url(#p36ebf435bc)" d="M 185.709466 519.680455 
L 402.534967 519.680455 
L 402.534967 482.616818 
L 185.709466 482.616818 
z
" style="fill:#ff6384;opacity:0.5;"/>
   </g>
   <g id="patch_9">
    <path clip-path="url(#p36ebf435bc)" d="M 171.381702 445.553182 
L 387.662762 445.553182 
L 387.662762 408.489545 
L 171.381702 408.489545 
z
" style="fill:#36a2eb;opacity:0.5;"/>
   </g>
   <g id="matplotlib.axis_1">
    <g id="xtick_1">
     <g id="line2d_3">
      <defs>
       <path d="M 0 0 
L 0 3.5 
" id="mc6ac7443c6" style="stroke:#000000;stroke-width:0.8;"/>
      </defs>
      <g>
       <use style="stroke:#000000;stroke-width:0.8;" x="131.436677" xlink:href="#mc6ac7443c6" y="525.24"/>
      </g>
     </g>
     <g id="text_3">
      <!-- 3.5 -->
      <defs>
       <path d="M 40.578125 39.3125 
Q 47.65625 37.796875 51.625 33 
Q 55.609375 28.21875 55.609375 21.1875 
Q 55.609375 10.40625 48.1875 4.484375 
Q 40.765625 -1.421875 27.09375 -1.421875 
Q 22.515625 -1.421875 17.65625 -0.515625 
Q 12.796875 0.390625 7.625 2.203125 
L 7.625 11.71875 
Q 11.71875 9.328125 16.59375 8.109375 
Q 21.484375 6.890625 26.8125 6.890625 
Q 36.078125 6.890625 40.9375 10.546875 
Q 45.796875 14.203125 45.796875 21.1875 
Q 45.796875 27.640625 41.28125 31.265625 
Q 36.765625 34.90625 28.71875 34.90625 
L 20.21875 34.90625 
L 20.21875 43.015625 
L 29.109375 43.015625 
Q 36.375 43.015625 40.234375 45.921875 
Q 44.09375 48.828125 44.09375 54.296875 
Q 44.09375 59.90625 40.109375 62.90625 
Q 36.140625 65.921875 28.71875 65.921875 
Q 24.65625 65.921875 20.015625 65.03125 
Q 15.375 64.15625 9.8125 62.3125 
L 9.8125 71.09375 
Q 15.4375 72.65625 20.34375 73.4375 
Q 25.25 74.21875 29.59375 74.21875 
Q 40.828125 74.21875 47.359375 69.109375 
Q 53.90625 64.015625 53.90625 55.328125 
Q 53.90625 49.265625 50.4375 45.09375 
Q 46.96875 40.921875 40.578125 39.3125 
z
" id="DejaVuSans-51"/>
       <path d="M 10.6875 12.40625 
L 21 12.40625 
L 21 0 
L 10.6875 0 
z
" id="DejaVuSans-46"/>
       <path d="M 10.796875 72.90625 
L 49.515625 72.90625 
L 49.515625 64.59375 
L 19.828125 64.59375 
L 19.828125 46.734375 
Q 21.96875 47.46875 24.109375 47.828125 
Q 26.265625 48.1875 28.421875 48.1875 
Q 40.625 48.1875 47.75 41.5 
Q 54.890625 34.8125 54.890625 23.390625 
Q 54.890625 11.625 47.5625 5.09375 
Q 40.234375 -1.421875 26.90625 -1.421875 
Q 22.3125 -1.421875 17.546875 -0.640625 
Q 12.796875 0.140625 7.71875 1.703125 
L 7.71875 11.625 
Q 12.109375 9.234375 16.796875 8.0625 
Q 21.484375 6.890625 26.703125 6.890625 
Q 35.15625 6.890625 40.078125 11.328125 
Q 45.015625 15.765625 45.015625 23.390625 
Q 45.015625 31 40.078125 35.4375 
Q 35.15625 39.890625 26.703125 39.890625 
Q 22.75 39.890625 18.8125 39.015625 
Q 14.890625 38.140625 10.796875 36.28125 
z
" id="DejaVuSans-53"/>
      </defs>
      <g transform="translate(120.30449 542.877813)scale(0.14 -0.14)">
       <use xlink:href="#DejaVuSans-51"/>
       <use x="63.623047" xlink:href="#DejaVuSans-46"/>
       <use x="95.410156" xlink:href="#DejaVuSans-53"/>
      </g>
     </g>
    </g>
    <g id="xtick_2">
     <g id="line2d_4">
      <g>
       <use style="stroke:#000000;stroke-width:0.8;" x="235.722279" xlink:href="#mc6ac7443c6" y="525.24"/>
      </g>
     </g>
     <g id="text_4">
      <!-- 4.0 -->
      <defs>
       <path d="M 37.796875 64.3125 
L 12.890625 25.390625 
L 37.796875 25.390625 
z
M 35.203125 72.90625 
L 47.609375 72.90625 
L 47.609375 25.390625 
L 58.015625 25.390625 
L 58.015625 17.1875 
L 47.609375 17.1875 
L 47.609375 0 
L 37.796875 0 
L 37.796875 17.1875 
L 4.890625 17.1875 
L 4.890625 26.703125 
z
" id="DejaVuSans-52"/>
       <path d="M 31.78125 66.40625 
Q 24.171875 66.40625 20.328125 58.90625 
Q 16.5 51.421875 16.5 36.375 
Q 16.5 21.390625 20.328125 13.890625 
Q 24.171875 6.390625 31.78125 6.390625 
Q 39.453125 6.390625 43.28125 13.890625 
Q 47.125 21.390625 47.125 36.375 
Q 47.125 51.421875 43.28125 58.90625 
Q 39.453125 66.40625 31.78125 66.40625 
z
M 31.78125 74.21875 
Q 44.046875 74.21875 50.515625 64.515625 
Q 56.984375 54.828125 56.984375 36.375 
Q 56.984375 17.96875 50.515625 8.265625 
Q 44.046875 -1.421875 31.78125 -1.421875 
Q 19.53125 -1.421875 13.0625 8.265625 
Q 6.59375 17.96875 6.59375 36.375 
Q 6.59375 54.828125 13.0625 64.515625 
Q 19.53125 74.21875 31.78125 74.21875 
z
" id="DejaVuSans-48"/>
      </defs>
      <g transform="translate(224.590092 542.877813)scale(0.14 -0.14)">
       <use xlink:href="#DejaVuSans-52"/>
       <use x="63.623047" xlink:href="#DejaVuSans-46"/>
       <use x="95.410156" xlink:href="#DejaVuSans-48"/>
      </g>
     </g>
    </g>
    <g id="xtick_3">
     <g id="line2d_5">
      <g>
       <use style="stroke:#000000;stroke-width:0.8;" x="340.007881" xlink:href="#mc6ac7443c6" y="525.24"/>
      </g>
     </g>
     <g id="text_5">
      <!-- 4.5 -->
      <g transform="translate(328.875694 542.877813)scale(0.14 -0.14)">
       <use xlink:href="#DejaVuSans-52"/>
       <use x="63.623047" xlink:href="#DejaVuSans-46"/>
       <use x="95.410156" xlink:href="#DejaVuSans-53"/>
      </g>
     </g>
    </g>
    <g id="xtick_4">
     <g id="line2d_6">
      <g>
       <use style="stroke:#000000;stroke-width:0.8;" x="444.293483" xlink:href="#mc6ac7443c6" y="525.24"/>
      </g>
     </g>
     <g id="text_6">
      <!-- 5.0 -->
      <g transform="translate(433.161296 542.877813)scale(0.14 -0.14)">
       <use xlink:href="#DejaVuSans-53"/>
       <use x="63.623047" xlink:href="#DejaVuSans-46"/>
       <use x="95.410156" xlink:href="#DejaVuSans-48"/>
      </g>
     </g>
    </g>
   </g>
   <g id="line2d_7">
    <path clip-path="url(#p36ebf435bc)" d="M 294.122216 525.24 
L 294.122216 402.93 
" style="fill:none;stroke:#ff6384;stroke-dasharray:5.55,2.4;stroke-dashoffset:0;stroke-opacity:0.8;stroke-width:1.5;"/>
   </g>
   <g id="line2d_8">
    <path clip-path="url(#p36ebf435bc)" d="M 279.522232 525.24 
L 279.522232 402.93 
" style="fill:none;stroke:#36a2eb;stroke-dasharray:5.55,2.4;stroke-dashoffset:0;stroke-opacity:0.8;stroke-width:1.5;"/>
   </g>
   <g id="patch_10">
    <path d="M 36 525.24 
L 538.2 525.24 
" style="fill:none;stroke:#000000;stroke-linecap:square;stroke-linejoin:miter;stroke-width:0.8;"/>
   </g>
  </g>
 </g>
 <defs>
  <clipPath id="pc3140c0f25">
   <rect height="366.93" width="502.2" x="36" y="36"/>
  </clipPath>
  <clipPath id="p36ebf435bc">
   <rect height="122.31" width="502.2" x="36" y="402.93"/>
  </clipPath>
 </defs>
</svg>
