<?xml version="1.0" encoding="utf-8" standalone="no"?>
<!DOCTYPE svg PUBLIC "-//W3C//DTD SVG 1.1//EN"
  "http://www.w3.org/Graphics/SVG/1.1/DTD/svg11.dtd">
<!-- Created with matplotlib (https://matplotlib.org/) -->
<svg height="581.789375pt" version="1.1" viewBox="0 0 574.2 581.789375" width="574.2pt" xmlns="http://www.w3.org/2000/svg" xmlns:xlink="http://www.w3.org/1999/xlink">
 <defs>
  <style type="text/css">
*{stroke-linecap:butt;stroke-linejoin:round;}
  </style>
 </defs>
 <g id="figure_1">
  <g id="patch_1">
   <path d="M 0 581.789375 
L 574.2 581.789375 
L 574.2 0 
L 0 0 
z
" style="fill:none;"/>
  </g>
  <g id="axes_1">
   <g id="patch_2">
    <path d="M 36 402.93 
L 538.2 402.93 
L 538.2 36 
L 36 36 
z
" style="fill:none;"/>
   </g>
   <g id="PolyCollection_1">
    <defs>
     <path d="M 92.26873 -195.538011 
L 92.26873 -195.650004 
L 96.542508 -195.692234 
L 100.816286 -195.749007 
L 105.090063 -195.8248 
L 109.363841 -195.925281 
L 113.637619 -196.057565 
L 117.911397 -196.230497 
L 122.185174 -196.454982 
L 126.458952 -196.744335 
L 130.73273 -197.114666 
L 135.006508 -197.585273 
L 139.280285 -198.179047 
L 143.554063 -198.922859 
L 147.827841 -199.847921 
L 152.101619 -200.990079 
L 156.375396 -202.390029 
L 160.649174 -204.093399 
L 164.922952 -206.150691 
L 169.19673 -208.617009 
L 173.470507 -211.551575 
L 177.744285 -215.016962 
L 182.018063 -219.078053 
L 186.291841 -223.800667 
L 190.565618 -229.249878 
L 194.839396 -235.488004 
L 199.113174 -242.572312 
L 203.386952 -250.552459 
L 207.660729 -259.467747 
L 211.934507 -269.344261 
L 216.208285 -280.192004 
L 220.482063 -292.002137 
L 224.75584 -304.744465 
L 229.029618 -318.365297 
L 233.303396 -332.785841 
L 237.577174 -347.901251 
L 241.850951 -363.580456 
L 246.124729 -379.666871 
L 250.398507 -395.980052 
L 254.672285 -412.31833 
L 258.946062 -428.4624 
L 263.21984 -444.179822 
L 267.493618 -459.230303 
L 271.767396 -473.371627 
L 276.041173 -486.366018 
L 280.314951 -497.986726 
L 284.588729 -508.02457 
L 288.862507 -516.294181 
L 293.136284 -522.639693 
L 297.410062 -526.939623 
L 301.68384 -529.110739 
L 305.957618 -529.110739 
L 310.231395 -526.939623 
L 314.505173 -522.639693 
L 318.778951 -516.294181 
L 323.052729 -508.02457 
L 327.326506 -497.986726 
L 331.600284 -486.366018 
L 335.874062 -473.371627 
L 340.14784 -459.230303 
L 344.421617 -444.179822 
L 348.695395 -428.4624 
L 352.969173 -412.31833 
L 357.242951 -395.980052 
L 361.516728 -379.666871 
L 365.790506 -363.580456 
L 370.064284 -347.901251 
L 374.338062 -332.785841 
L 378.611839 -318.365297 
L 382.885617 -304.744465 
L 387.159395 -292.002137 
L 391.433173 -280.192004 
L 395.70695 -269.344261 
L 399.980728 -259.467747 
L 404.254506 -250.552459 
L 408.528284 -242.572312 
L 412.802061 -235.488004 
L 417.075839 -229.249878 
L 421.349617 -223.800667 
L 425.623395 -219.078053 
L 429.897172 -215.016962 
L 434.17095 -211.551575 
L 438.444728 -208.617009 
L 442.718506 -206.150691 
L 446.992283 -204.093399 
L 451.266061 -202.390029 
L 455.539839 -200.990079 
L 459.813617 -199.847921 
L 464.087394 -198.922859 
L 468.361172 -198.179047 
L 472.63495 -197.585273 
L 476.908728 -197.114666 
L 481.182505 -196.744335 
L 485.456283 -196.454982 
L 489.730061 -196.230497 
L 494.003839 -196.057565 
L 498.277616 -195.925281 
L 502.551394 -195.8248 
L 506.825172 -195.749007 
L 511.09895 -195.692234 
L 515.372727 -195.650004 
L 515.372727 -195.538011 
L 515.372727 -195.538011 
L 511.09895 -195.538011 
L 506.825172 -195.538011 
L 502.551394 -195.538011 
L 498.277616 -195.538011 
L 494.003839 -195.538011 
L 489.730061 -195.538011 
L 485.456283 -195.538011 
L 481.182505 -195.538011 
L 476.908728 -195.538011 
L 472.63495 -195.538011 
L 468.361172 -195.538011 
L 464.087394 -195.538011 
L 459.813617 -195.538011 
L 455.539839 -195.538011 
L 451.266061 -195.538011 
L 446.992283 -195.538011 
L 442.718506 -195.538011 
L 438.444728 -195.538011 
L 434.17095 -195.538011 
L 429.897172 -195.538011 
L 425.623395 -195.538011 
L 421.349617 -195.538011 
L 417.075839 -195.538011 
L 412.802061 -195.538011 
L 408.528284 -195.538011 
L 404.254506 -195.538011 
L 399.980728 -195.538011 
L 395.70695 -195.538011 
L 391.433173 -195.538011 
L 387.159395 -195.538011 
L 382.885617 -195.538011 
L 378.611839 -195.538011 
L 374.338062 -195.538011 
L 370.064284 -195.538011 
L 365.790506 -195.538011 
L 361.516728 -195.538011 
L 357.242951 -195.538011 
L 352.969173 -195.538011 
L 348.695395 -195.538011 
L 344.421617 -195.538011 
L 340.14784 -195.538011 
L 335.874062 -195.538011 
L 331.600284 -195.538011 
L 327.326506 -195.538011 
L 323.052729 -195.538011 
L 318.778951 -195.538011 
L 314.505173 -195.538011 
L 310.231395 -195.538011 
L 305.957618 -195.538011 
L 301.68384 -195.538011 
L 297.410062 -195.538011 
L 293.136284 -195.538011 
L 288.862507 -195.538011 
L 284.588729 -195.538011 
L 280.314951 -195.538011 
L 276.041173 -195.538011 
L 271.767396 -195.538011 
L 267.493618 -195.538011 
L 263.21984 -195.538011 
L 258.946062 -195.538011 
L 254.672285 -195.538011 
L 250.398507 -195.538011 
L 246.124729 -195.538011 
L 241.850951 -195.538011 
L 237.577174 -195.538011 
L 233.303396 -195.538011 
L 229.029618 -195.538011 
L 224.75584 -195.538011 
L 220.482063 -195.538011 
L 216.208285 -195.538011 
L 211.934507 -195.538011 
L 207.660729 -195.538011 
L 203.386952 -195.538011 
L 199.113174 -195.538011 
L 194.839396 -195.538011 
L 190.565618 -195.538011 
L 186.291841 -195.538011 
L 182.018063 -195.538011 
L 177.744285 -195.538011 
L 173.470507 -195.538011 
L 169.19673 -195.538011 
L 164.922952 -195.538011 
L 160.649174 -195.538011 
L 156.375396 -195.538011 
L 152.101619 -195.538011 
L 147.827841 -195.538011 
L 143.554063 -195.538011 
L 139.280285 -195.538011 
L 135.006508 -195.538011 
L 130.73273 -195.538011 
L 126.458952 -195.538011 
L 122.185174 -195.538011 
L 117.911397 -195.538011 
L 113.637619 -195.538011 
L 109.363841 -195.538011 
L 105.090063 -195.538011 
L 100.816286 -195.538011 
L 96.542508 -195.538011 
L 92.26873 -195.538011 
z
" id="m33f6173070" style="stroke:#ff6384;stroke-opacity:0.5;"/>
    </defs>
    <g clip-path="url(#p2b0873d890)">
     <use style="fill:#ff6384;fill-opacity:0.5;stroke:#ff6384;stroke-opacity:0.5;" x="0" xlink:href="#m33f6173070" y="581.789375"/>
    </g>
   </g>
   <g id="PolyCollection_2">
    <defs>
     <path d="M 58.827273 -195.538011 
L 58.827273 -195.650004 
L 63.10105 -195.692234 
L 67.374828 -195.749007 
L 71.648606 -195.8248 
L 75.922384 -195.925281 
L 80.196161 -196.057565 
L 84.469939 -196.230497 
L 88.743717 -196.454982 
L 93.017495 -196.744335 
L 97.291272 -197.114666 
L 101.56505 -197.585273 
L 105.838828 -198.179047 
L 110.112606 -198.922859 
L 114.386383 -199.847921 
L 118.660161 -200.990079 
L 122.933939 -202.390029 
L 127.207717 -204.093399 
L 131.481494 -206.150691 
L 135.755272 -208.617009 
L 140.02905 -211.551575 
L 144.302828 -215.016962 
L 148.576605 -219.078053 
L 152.850383 -223.800667 
L 157.124161 -229.249878 
L 161.397939 -235.488004 
L 165.671716 -242.572312 
L 169.945494 -250.552459 
L 174.219272 -259.467747 
L 178.49305 -269.344261 
L 182.766827 -280.192004 
L 187.040605 -292.002137 
L 191.314383 -304.744465 
L 195.588161 -318.365297 
L 199.861938 -332.785841 
L 204.135716 -347.901251 
L 208.409494 -363.580456 
L 212.683272 -379.666871 
L 216.957049 -395.980052 
L 221.230827 -412.31833 
L 225.504605 -428.4624 
L 229.778383 -444.179822 
L 234.05216 -459.230303 
L 238.325938 -473.371627 
L 242.599716 -486.366018 
L 246.873494 -497.986726 
L 251.147271 -508.02457 
L 255.421049 -516.294181 
L 259.694827 -522.639693 
L 263.968605 -526.939623 
L 268.242382 -529.110739 
L 272.51616 -529.110739 
L 276.789938 -526.939623 
L 281.063716 -522.639693 
L 285.337493 -516.294181 
L 289.611271 -508.02457 
L 293.885049 -497.986726 
L 298.158827 -486.366018 
L 302.432604 -473.371627 
L 306.706382 -459.230303 
L 310.98016 -444.179822 
L 315.253938 -428.4624 
L 319.527715 -412.31833 
L 323.801493 -395.980052 
L 328.075271 -379.666871 
L 332.349049 -363.580456 
L 336.622826 -347.901251 
L 340.896604 -332.785841 
L 345.170382 -318.365297 
L 349.44416 -304.744465 
L 353.717937 -292.002137 
L 357.991715 -280.192004 
L 362.265493 -269.344261 
L 366.539271 -259.467747 
L 370.813048 -250.552459 
L 375.086826 -242.572312 
L 379.360604 -235.488004 
L 383.634382 -229.249878 
L 387.908159 -223.800667 
L 392.181937 -219.078053 
L 396.455715 -215.016962 
L 400.729493 -211.551575 
L 405.00327 -208.617009 
L 409.277048 -206.150691 
L 413.550826 -204.093399 
L 417.824604 -202.390029 
L 422.098381 -200.990079 
L 426.372159 -199.847921 
L 430.645937 -198.922859 
L 434.919715 -198.179047 
L 439.193492 -197.585273 
L 443.46727 -197.114666 
L 447.741048 -196.744335 
L 452.014826 -196.454982 
L 456.288603 -196.230497 
L 460.562381 -196.057565 
L 464.836159 -195.925281 
L 469.109937 -195.8248 
L 473.383714 -195.749007 
L 477.657492 -195.692234 
L 481.93127 -195.650004 
L 481.93127 -195.538011 
L 481.93127 -195.538011 
L 477.657492 -195.538011 
L 473.383714 -195.538011 
L 469.109937 -195.538011 
L 464.836159 -195.538011 
L 460.562381 -195.538011 
L 456.288603 -195.538011 
L 452.014826 -195.538011 
L 447.741048 -195.538011 
L 443.46727 -195.538011 
L 439.193492 -195.538011 
L 434.919715 -195.538011 
L 430.645937 -195.538011 
L 426.372159 -195.538011 
L 422.098381 -195.538011 
L 417.824604 -195.538011 
L 413.550826 -195.538011 
L 409.277048 -195.538011 
L 405.00327 -195.538011 
L 400.729493 -195.538011 
L 396.455715 -195.538011 
L 392.181937 -195.538011 
L 387.908159 -195.538011 
L 383.634382 -195.538011 
L 379.360604 -195.538011 
L 375.086826 -195.538011 
L 370.813048 -195.538011 
L 366.539271 -195.538011 
L 362.265493 -195.538011 
L 357.991715 -195.538011 
L 353.717937 -195.538011 
L 349.44416 -195.538011 
L 345.170382 -195.538011 
L 340.896604 -195.538011 
L 336.622826 -195.538011 
L 332.349049 -195.538011 
L 328.075271 -195.538011 
L 323.801493 -195.538011 
L 319.527715 -195.538011 
L 315.253938 -195.538011 
L 310.98016 -195.538011 
L 306.706382 -195.538011 
L 302.432604 -195.538011 
L 298.158827 -195.538011 
L 293.885049 -195.538011 
L 289.611271 -195.538011 
L 285.337493 -195.538011 
L 281.063716 -195.538011 
L 276.789938 -195.538011 
L 272.51616 -195.538011 
L 268.242382 -195.538011 
L 263.968605 -195.538011 
L 259.694827 -195.538011 
L 255.421049 -195.538011 
L 251.147271 -195.538011 
L 246.873494 -195.538011 
L 242.599716 -195.538011 
L 238.325938 -195.538011 
L 234.05216 -195.538011 
L 229.778383 -195.538011 
L 225.504605 -195.538011 
L 221.230827 -195.538011 
L 216.957049 -195.538011 
L 212.683272 -195.538011 
L 208.409494 -195.538011 
L 204.135716 -195.538011 
L 199.861938 -195.538011 
L 195.588161 -195.538011 
L 191.314383 -195.538011 
L 187.040605 -195.538011 
L 182.766827 -195.538011 
L 178.49305 -195.538011 
L 174.219272 -195.538011 
L 169.945494 -195.538011 
L 165.671716 -195.538011 
L 161.397939 -195.538011 
L 157.124161 -195.538011 
L 152.850383 -195.538011 
L 148.576605 -195.538011 
L 144.302828 -195.538011 
L 140.02905 -195.538011 
L 135.755272 -195.538011 
L 131.481494 -195.538011 
L 127.207717 -195.538011 
L 122.933939 -195.538011 
L 118.660161 -195.538011 
L 114.386383 -195.538011 
L 110.112606 -195.538011 
L 105.838828 -195.538011 
L 101.56505 -195.538011 
L 97.291272 -195.538011 
L 93.017495 -195.538011 
L 88.743717 -195.538011 
L 84.469939 -195.538011 
L 80.196161 -195.538011 
L 75.922384 -195.538011 
L 71.648606 -195.538011 
L 67.374828 -195.538011 
L 63.10105 -195.538011 
L 58.827273 -195.538011 
z
" id="m82866ea1c3" style="stroke:#36a2eb;stroke-opacity:0.5;"/>
    </defs>
    <g clip-path="url(#p2b0873d890)">
     <use style="fill:#36a2eb;fill-opacity:0.5;stroke:#36a2eb;stroke-opacity:0.5;" x="0" xlink:href="#m82866ea1c3" y="581.789375"/>
    </g>
   </g>
   <g id="line2d_1">
    <path clip-path="url(#p2b0873d890)" d="M 92.26873 386.139371 
L 96.542508 386.097141 
L 100.816286 386.040368 
L 105.090063 385.964575 
L 109.363841 385.864094 
L 113.637619 385.73181 
L 117.911397 385.558878 
L 122.185174 385.334393 
L 126.458952 385.04504 
L 130.73273 384.674709 
L 135.006508 384.204102 
L 139.280285 383.610328 
L 143.554063 382.866516 
L 147.827841 381.941454 
L 152.101619 380.799296 
L 156.375396 379.399346 
L 160.649174 377.695976 
L 164.922952 375.638684 
L 169.19673 373.172366 
L 173.470507 370.2378 
L 177.744285 366.772413 
L 182.018063 362.711322 
L 186.291841 357.988708 
L 190.565618 352.539497 
L 194.839396 346.301371 
L 199.113174 339.217063 
L 203.386952 331.236916 
L 207.660729 322.321628 
L 211.934507 312.445114 
L 216.208285 301.597371 
L 220.482063 289.787238 
L 224.75584 277.04491 
L 229.029618 263.424078 
L 233.303396 249.003534 
L 237.577174 233.888124 
L 241.850951 218.208919 
L 246.124729 202.122504 
L 250.398507 185.809323 
L 254.672285 169.471045 
L 258.946062 153.326975 
L 263.21984 137.609553 
L 267.493618 122.559072 
L 271.767396 108.417748 
L 276.041173 95.423357 
L 280.314951 83.802649 
L 284.588729 73.764805 
L 288.862507 65.495194 
L 293.136284 59.149682 
L 297.410062 54.849752 
L 301.68384 52.678636 
L 305.957618 52.678636 
L 310.231395 54.849752 
L 314.505173 59.149682 
L 318.778951 65.495194 
L 323.052729 73.764805 
L 327.326506 83.802649 
L 331.600284 95.423357 
L 335.874062 108.417748 
L 340.14784 122.559072 
L 344.421617 137.609553 
L 348.695395 153.326975 
L 352.969173 169.471045 
L 357.242951 185.809323 
L 361.516728 202.122504 
L 365.790506 218.208919 
L 370.064284 233.888124 
L 374.338062 249.003534 
L 378.611839 263.424078 
L 382.885617 277.04491 
L 387.159395 289.787238 
L 391.433173 301.597371 
L 395.70695 312.445114 
L 399.980728 322.321628 
L 404.254506 331.236916 
L 408.528284 339.217063 
L 412.802061 346.301371 
L 417.075839 352.539497 
L 421.349617 357.988708 
L 425.623395 362.711322 
L 429.897172 366.772413 
L 434.17095 370.2378 
L 438.444728 373.172366 
L 442.718506 375.638684 
L 446.992283 377.695976 
L 451.266061 379.399346 
L 455.539839 380.799296 
L 459.813617 381.941454 
L 464.087394 382.866516 
L 468.361172 383.610328 
L 472.63495 384.204102 
L 476.908728 384.674709 
L 481.182505 385.04504 
L 485.456283 385.334393 
L 489.730061 385.558878 
L 494.003839 385.73181 
L 498.277616 385.864094 
L 502.551394 385.964575 
L 506.825172 386.040368 
L 511.09895 386.097141 
L 515.372727 386.139371 
" style="fill:none;stroke:#ff6384;stroke-linecap:square;"/>
   </g>
   <g id="line2d_2">
    <path clip-path="url(#p2b0873d890)" d="M 58.827273 386.139371 
L 63.10105 386.097141 
L 67.374828 386.040368 
L 71.648606 385.964575 
L 75.922384 385.864094 
L 80.196161 385.73181 
L 84.469939 385.558878 
L 88.743717 385.334393 
L 93.017495 385.04504 
L 97.291272 384.674709 
L 101.56505 384.204102 
L 105.838828 383.610328 
L 110.112606 382.866516 
L 114.386383 381.941454 
L 118.660161 380.799296 
L 122.933939 379.399346 
L 127.207717 377.695976 
L 131.481494 375.638684 
L 135.755272 373.172366 
L 140.02905 370.2378 
L 144.302828 366.772413 
L 148.576605 362.711322 
L 152.850383 357.988708 
L 157.124161 352.539497 
L 161.397939 346.301371 
L 165.671716 339.217063 
L 169.945494 331.236916 
L 174.219272 322.321628 
L 178.49305 312.445114 
L 182.766827 301.597371 
L 187.040605 289.787238 
L 191.314383 277.04491 
L 195.588161 263.424078 
L 199.861938 249.003534 
L 204.135716 233.888124 
L 208.409494 218.208919 
L 212.683272 202.122504 
L 216.957049 185.809323 
L 221.230827 169.471045 
L 225.504605 153.326975 
L 229.778383 137.609553 
L 234.05216 122.559072 
L 238.325938 108.417748 
L 242.599716 95.423357 
L 246.873494 83.802649 
L 251.147271 73.764805 
L 255.421049 65.495194 
L 259.694827 59.149682 
L 263.968605 54.849752 
L 268.242382 52.678636 
L 272.51616 52.678636 
L 276.789938 54.849752 
L 281.063716 59.149682 
L 285.337493 65.495194 
L 289.611271 73.764805 
L 293.885049 83.802649 
L 298.158827 95.423357 
L 302.432604 108.417748 
L 306.706382 122.559072 
L 310.98016 137.609553 
L 315.253938 153.326975 
L 319.527715 169.471045 
L 323.801493 185.809323 
L 328.075271 202.122504 
L 332.349049 218.208919 
L 336.622826 233.888124 
L 340.896604 249.003534 
L 345.170382 263.424078 
L 349.44416 277.04491 
L 353.717937 289.787238 
L 357.991715 301.597371 
L 362.265493 312.445114 
L 366.539271 322.321628 
L 370.813048 331.236916 
L 375.086826 339.217063 
L 379.360604 346.301371 
L 383.634382 352.539497 
L 387.908159 357.988708 
L 392.181937 362.711322 
L 396.455715 366.772413 
L 400.729493 370.2378 
L 405.00327 373.172366 
L 409.277048 375.638684 
L 413.550826 377.695976 
L 417.824604 379.399346 
L 422.098381 380.799296 
L 426.372159 381.941454 
L 430.645937 382.866516 
L 434.919715 383.610328 
L 439.193492 384.204102 
L 443.46727 384.674709 
L 447.741048 385.04504 
L 452.014826 385.334393 
L 456.288603 385.558878 
L 460.562381 385.73181 
L 464.836159 385.864094 
L 469.109937 385.964575 
L 473.383714 386.040368 
L 477.657492 386.097141 
L 481.93127 386.139371 
" style="fill:none;stroke:#36a2eb;stroke-linecap:square;"/>
   </g>
   <g id="patch_3">
    <path d="M 36 402.93 
L 538.2 402.93 
" style="fill:none;stroke:#000000;stroke-linecap:square;stroke-linejoin:miter;stroke-width:0.8;"/>
   </g>
   <g id="legend_1">
    <g id="patch_4">
     <path d="M 441.707188 88.29875 
L 528.4 88.29875 
Q 531.2 88.29875 531.2 85.49875 
L 531.2 45.8 
Q 531.2 43 528.4 43 
L 441.707188 43 
Q 438.907188 43 438.907188 45.8 
L 438.907188 85.49875 
Q 438.907188 88.29875 441.707188 88.29875 
z
" style="fill:#ffffff;opacity:0.8;stroke:#cccccc;stroke-linejoin:miter;"/>
    </g>
    <g id="patch_5">
     <path d="M 444.507188 59.237813 
L 472.507188 59.237813 
L 472.507188 49.437813 
L 444.507188 49.437813 
z
" style="fill:#ff6384;opacity:0.5;stroke:#ff6384;stroke-linejoin:miter;"/>
    </g>
    <g id="text_1">
     <!-- base -->
     <defs>
      <path d="M 48.6875 27.296875 
Q 48.6875 37.203125 44.609375 42.84375 
Q 40.53125 48.484375 33.40625 48.484375 
Q 26.265625 48.484375 22.1875 42.84375 
Q 18.109375 37.203125 18.109375 27.296875 
Q 18.109375 17.390625 22.1875 11.75 
Q 26.265625 6.109375 33.40625 6.109375 
Q 40.53125 6.109375 44.609375 11.75 
Q 48.6875 17.390625 48.6875 27.296875 
z
M 18.109375 46.390625 
Q 20.953125 51.265625 25.265625 53.625 
Q 29.59375 56 35.59375 56 
Q 45.5625 56 51.78125 48.09375 
Q 58.015625 40.1875 58.015625 27.296875 
Q 58.015625 14.40625 51.78125 6.484375 
Q 45.5625 -1.421875 35.59375 -1.421875 
Q 29.59375 -1.421875 25.265625 0.953125 
Q 20.953125 3.328125 18.109375 8.203125 
L 18.109375 0 
L 9.078125 0 
L 9.078125 75.984375 
L 18.109375 75.984375 
z
" id="DejaVuSans-98"/>
      <path d="M 34.28125 27.484375 
Q 23.390625 27.484375 19.1875 25 
Q 14.984375 22.515625 14.984375 16.5 
Q 14.984375 11.71875 18.140625 8.90625 
Q 21.296875 6.109375 26.703125 6.109375 
Q 34.1875 6.109375 38.703125 11.40625 
Q 43.21875 16.703125 43.21875 25.484375 
L 43.21875 27.484375 
z
M 52.203125 31.203125 
L 52.203125 0 
L 43.21875 0 
L 43.21875 8.296875 
Q 40.140625 3.328125 35.546875 0.953125 
Q 30.953125 -1.421875 24.3125 -1.421875 
Q 15.921875 -1.421875 10.953125 3.296875 
Q 6 8.015625 6 15.921875 
Q 6 25.140625 12.171875 29.828125 
Q 18.359375 34.515625 30.609375 34.515625 
L 43.21875 34.515625 
L 43.21875 35.40625 
Q 43.21875 41.609375 39.140625 45 
Q 35.0625 48.390625 27.6875 48.390625 
Q 23 48.390625 18.546875 47.265625 
Q 14.109375 46.140625 10.015625 43.890625 
L 10.015625 52.203125 
Q 14.9375 54.109375 19.578125 55.046875 
Q 24.21875 56 28.609375 56 
Q 40.484375 56 46.34375 49.84375 
Q 52.203125 43.703125 52.203125 31.203125 
z
" id="DejaVuSans-97"/>
      <path d="M 44.28125 53.078125 
L 44.28125 44.578125 
Q 40.484375 46.53125 36.375 47.5 
Q 32.28125 48.484375 27.875 48.484375 
Q 21.1875 48.484375 17.84375 46.4375 
Q 14.5 44.390625 14.5 40.28125 
Q 14.5 37.15625 16.890625 35.375 
Q 19.28125 33.59375 26.515625 31.984375 
L 29.59375 31.296875 
Q 39.15625 29.25 43.1875 25.515625 
Q 47.21875 21.78125 47.21875 15.09375 
Q 47.21875 7.46875 41.1875 3.015625 
Q 35.15625 -1.421875 24.609375 -1.421875 
Q 20.21875 -1.421875 15.453125 -0.5625 
Q 10.6875 0.296875 5.421875 2 
L 5.421875 11.28125 
Q 10.40625 8.6875 15.234375 7.390625 
Q 20.0625 6.109375 24.8125 6.109375 
Q 31.15625 6.109375 34.5625 8.28125 
Q 37.984375 10.453125 37.984375 14.40625 
Q 37.984375 18.0625 35.515625 20.015625 
Q 33.0625 21.96875 24.703125 23.78125 
L 21.578125 24.515625 
Q 13.234375 26.265625 9.515625 29.90625 
Q 5.8125 33.546875 5.8125 39.890625 
Q 5.8125 47.609375 11.28125 51.796875 
Q 16.75 56 26.8125 56 
Q 31.78125 56 36.171875 55.265625 
Q 40.578125 54.546875 44.28125 53.078125 
z
" id="DejaVuSans-115"/>
      <path d="M 56.203125 29.59375 
L 56.203125 25.203125 
L 14.890625 25.203125 
Q 15.484375 15.921875 20.484375 11.0625 
Q 25.484375 6.203125 34.421875 6.203125 
Q 39.59375 6.203125 44.453125 7.46875 
Q 49.3125 8.734375 54.109375 11.28125 
L 54.109375 2.78125 
Q 49.265625 0.734375 44.1875 -0.34375 
Q 39.109375 -1.421875 33.890625 -1.421875 
Q 20.796875 -1.421875 13.15625 6.1875 
Q 5.515625 13.8125 5.515625 26.8125 
Q 5.515625 40.234375 12.765625 48.109375 
Q 20.015625 56 32.328125 56 
Q 43.359375 56 49.78125 48.890625 
Q 56.203125 41.796875 56.203125 29.59375 
z
M 47.21875 32.234375 
Q 47.125 39.59375 43.09375 43.984375 
Q 39.0625 48.390625 32.421875 48.390625 
Q 24.90625 48.390625 20.390625 44.140625 
Q 15.875 39.890625 15.1875 32.171875 
z
" id="DejaVuSans-101"/>
     </defs>
     <g transform="translate(483.707188 59.237813)scale(0.14 -0.14)">
      <use xlink:href="#DejaVuSans-98"/>
      <use x="63.476562" xlink:href="#DejaVuSans-97"/>
      <use x="124.755859" xlink:href="#DejaVuSans-115"/>
      <use x="176.855469" xlink:href="#DejaVuSans-101"/>
     </g>
    </g>
    <g id="patch_6">
     <path d="M 444.507188 79.787188 
L 472.507188 79.787188 
L 472.507188 69.987188 
L 444.507188 69.987188 
z
" style="fill:#36a2eb;opacity:0.5;stroke:#36a2eb;stroke-linejoin:miter;"/>
    </g>
    <g id="text_2">
     <!-- osago -->
     <defs>
      <path d="M 30.609375 48.390625 
Q 23.390625 48.390625 19.1875 42.75 
Q 14.984375 37.109375 14.984375 27.296875 
Q 14.984375 17.484375 19.15625 11.84375 
Q 23.34375 6.203125 30.609375 6.203125 
Q 37.796875 6.203125 41.984375 11.859375 
Q 46.1875 17.53125 46.1875 27.296875 
Q 46.1875 37.015625 41.984375 42.703125 
Q 37.796875 48.390625 30.609375 48.390625 
z
M 30.609375 56 
Q 42.328125 56 49.015625 48.375 
Q 55.71875 40.765625 55.71875 27.296875 
Q 55.71875 13.875 49.015625 6.21875 
Q 42.328125 -1.421875 30.609375 -1.421875 
Q 18.84375 -1.421875 12.171875 6.21875 
Q 5.515625 13.875 5.515625 27.296875 
Q 5.515625 40.765625 12.171875 48.375 
Q 18.84375 56 30.609375 56 
z
" id="DejaVuSans-111"/>
      <path d="M 45.40625 27.984375 
Q 45.40625 37.75 41.375 43.109375 
Q 37.359375 48.484375 30.078125 48.484375 
Q 22.859375 48.484375 18.828125 43.109375 
Q 14.796875 37.75 14.796875 27.984375 
Q 14.796875 18.265625 18.828125 12.890625 
Q 22.859375 7.515625 30.078125 7.515625 
Q 37.359375 7.515625 41.375 12.890625 
Q 45.40625 18.265625 45.40625 27.984375 
z
M 54.390625 6.78125 
Q 54.390625 -7.171875 48.1875 -13.984375 
Q 42 -20.796875 29.203125 -20.796875 
Q 24.46875 -20.796875 20.265625 -20.09375 
Q 16.0625 -19.390625 12.109375 -17.921875 
L 12.109375 -9.1875 
Q 16.0625 -11.328125 19.921875 -12.34375 
Q 23.78125 -13.375 27.78125 -13.375 
Q 36.625 -13.375 41.015625 -8.765625 
Q 45.40625 -4.15625 45.40625 5.171875 
L 45.40625 9.625 
Q 42.625 4.78125 38.28125 2.390625 
Q 33.9375 0 27.875 0 
Q 17.828125 0 11.671875 7.65625 
Q 5.515625 15.328125 5.515625 27.984375 
Q 5.515625 40.671875 11.671875 48.328125 
Q 17.828125 56 27.875 56 
Q 33.9375 56 38.28125 53.609375 
Q 42.625 51.21875 45.40625 46.390625 
L 45.40625 54.6875 
L 54.390625 54.6875 
z
" id="DejaVuSans-103"/>
     </defs>
     <g transform="translate(483.707188 79.787188)scale(0.14 -0.14)">
      <use xlink:href="#DejaVuSans-111"/>
      <use x="61.181641" xlink:href="#DejaVuSans-115"/>
      <use x="113.28125" xlink:href="#DejaVuSans-97"/>
      <use x="174.560547" xlink:href="#DejaVuSans-103"/>
      <use x="238.037109" xlink:href="#DejaVuSans-111"/>
     </g>
    </g>
   </g>
  </g>
  <g id="axes_2">
   <g id="patch_7">
    <path d="M 36 525.24 
L 538.2 525.24 
L 538.2 402.93 
L 36 402.93 
z
" style="fill:none;"/>
   </g>
   <g id="patch_8">
    <path clip-path="url(#p7a16dc686c)" d="M 200.160249 519.680455 
L 407.481208 519.680455 
L 407.481208 482.616818 
L 200.160249 482.616818 
z
" style="fill:#ff6384;opacity:0.5;"/>
   </g>
   <g id="patch_9">
    <path clip-path="url(#p7a16dc686c)" d="M 166.718792 445.553182 
L 374.039751 445.553182 
L 374.039751 408.489545 
L 166.718792 408.489545 
z
" style="fill:#36a2eb;opacity:0.5;"/>
   </g>
   <g id="matplotlib.axis_1">
    <g id="xtick_1">
     <g id="line2d_3">
      <defs>
       <path d="M 0 0 
L 0 3.5 
" id="md35655390a" style="stroke:#000000;stroke-width:0.8;"/>
      </defs>
      <g>
       <use style="stroke:#000000;stroke-width:0.8;" x="71.271607" xlink:href="#md35655390a" y="525.24"/>
      </g>
     </g>
     <g id="text_3">
      <!-- 3.6 -->
      <defs>
       <path d="M 40.578125 39.3125 
Q 47.65625 37.796875 51.625 33 
Q 55.609375 28.21875 55.609375 21.1875 
Q 55.609375 10.40625 48.1875 4.484375 
Q 40.765625 -1.421875 27.09375 -1.421875 
Q 22.515625 -1.421875 17.65625 -0.515625 
Q 12.796875 0.390625 7.625 2.203125 
L 7.625 11.71875 
Q 11.71875 9.328125 16.59375 8.109375 
Q 21.484375 6.890625 26.8125 6.890625 
Q 36.078125 6.890625 40.9375 10.546875 
Q 45.796875 14.203125 45.796875 21.1875 
Q 45.796875 27.640625 41.28125 31.265625 
Q 36.765625 34.90625 28.71875 34.90625 
L 20.21875 34.90625 
L 20.21875 43.015625 
L 29.109375 43.015625 
Q 36.375 43.015625 40.234375 45.921875 
Q 44.09375 48.828125 44.09375 54.296875 
Q 44.09375 59.90625 40.109375 62.90625 
Q 36.140625 65.921875 28.71875 65.921875 
Q 24.65625 65.921875 20.015625 65.03125 
Q 15.375 64.15625 9.8125 62.3125 
L 9.8125 71.09375 
Q 15.4375 72.65625 20.34375 73.4375 
Q 25.25 74.21875 29.59375 74.21875 
Q 40.828125 74.21875 47.359375 69.109375 
Q 53.90625 64.015625 53.90625 55.328125 
Q 53.90625 49.265625 50.4375 45.09375 
Q 46.96875 40.921875 40.578125 39.3125 
z
" id="DejaVuSans-51"/>
       <path d="M 10.6875 12.40625 
L 21 12.40625 
L 21 0 
L 10.6875 0 
z
" id="DejaVuSans-46"/>
       <path d="M 33.015625 40.375 
Q 26.375 40.375 22.484375 35.828125 
Q 18.609375 31.296875 18.609375 23.390625 
Q 18.609375 15.53125 22.484375 10.953125 
Q 26.375 6.390625 33.015625 6.390625 
Q 39.65625 6.390625 43.53125 10.953125 
Q 47.40625 15.53125 47.40625 23.390625 
Q 47.40625 31.296875 43.53125 35.828125 
Q 39.65625 40.375 33.015625 40.375 
z
M 52.59375 71.296875 
L 52.59375 62.3125 
Q 48.875 64.0625 45.09375 64.984375 
Q 41.3125 65.921875 37.59375 65.921875 
Q 27.828125 65.921875 22.671875 59.328125 
Q 17.53125 52.734375 16.796875 39.40625 
Q 19.671875 43.65625 24.015625 45.921875 
Q 28.375 48.1875 33.59375 48.1875 
Q 44.578125 48.1875 50.953125 41.515625 
Q 57.328125 34.859375 57.328125 23.390625 
Q 57.328125 12.15625 50.6875 5.359375 
Q 44.046875 -1.421875 33.015625 -1.421875 
Q 20.359375 -1.421875 13.671875 8.265625 
Q 6.984375 17.96875 6.984375 36.375 
Q 6.984375 53.65625 15.1875 63.9375 
Q 23.390625 74.21875 37.203125 74.21875 
Q 40.921875 74.21875 44.703125 73.484375 
Q 48.484375 72.75 52.59375 71.296875 
z
" id="DejaVuSans-54"/>
      </defs>
      <g transform="translate(60.13942 542.877813)scale(0.14 -0.14)">
       <use xlink:href="#DejaVuSans-51"/>
       <use x="63.623047" xlink:href="#DejaVuSans-46"/>
       <use x="95.410156" xlink:href="#DejaVuSans-54"/>
      </g>
     </g>
    </g>
    <g id="xtick_2">
     <g id="line2d_4">
      <g>
       <use style="stroke:#000000;stroke-width:0.8;" x="174.01034" xlink:href="#md35655390a" y="525.24"/>
      </g>
     </g>
     <g id="text_4">
      <!-- 3.8 -->
      <defs>
       <path d="M 31.78125 34.625 
Q 24.75 34.625 20.71875 30.859375 
Q 16.703125 27.09375 16.703125 20.515625 
Q 16.703125 13.921875 20.71875 10.15625 
Q 24.75 6.390625 31.78125 6.390625 
Q 38.8125 6.390625 42.859375 10.171875 
Q 46.921875 13.96875 46.921875 20.515625 
Q 46.921875 27.09375 42.890625 30.859375 
Q 38.875 34.625 31.78125 34.625 
z
M 21.921875 38.8125 
Q 15.578125 40.375 12.03125 44.71875 
Q 8.5 49.078125 8.5 55.328125 
Q 8.5 64.0625 14.71875 69.140625 
Q 20.953125 74.21875 31.78125 74.21875 
Q 42.671875 74.21875 48.875 69.140625 
Q 55.078125 64.0625 55.078125 55.328125 
Q 55.078125 49.078125 51.53125 44.71875 
Q 48 40.375 41.703125 38.8125 
Q 48.828125 37.15625 52.796875 32.3125 
Q 56.78125 27.484375 56.78125 20.515625 
Q 56.78125 9.90625 50.3125 4.234375 
Q 43.84375 -1.421875 31.78125 -1.421875 
Q 19.734375 -1.421875 13.25 4.234375 
Q 6.78125 9.90625 6.78125 20.515625 
Q 6.78125 27.484375 10.78125 32.3125 
Q 14.796875 37.15625 21.921875 38.8125 
z
M 18.3125 54.390625 
Q 18.3125 48.734375 21.84375 45.5625 
Q 25.390625 42.390625 31.78125 42.390625 
Q 38.140625 42.390625 41.71875 45.5625 
Q 45.3125 48.734375 45.3125 54.390625 
Q 45.3125 60.0625 41.71875 63.234375 
Q 38.140625 66.40625 31.78125 66.40625 
Q 25.390625 66.40625 21.84375 63.234375 
Q 18.3125 60.0625 18.3125 54.390625 
z
" id="DejaVuSans-56"/>
      </defs>
      <g transform="translate(162.878153 542.877813)scale(0.14 -0.14)">
       <use xlink:href="#DejaVuSans-51"/>
       <use x="63.623047" xlink:href="#DejaVuSans-46"/>
       <use x="95.410156" xlink:href="#DejaVuSans-56"/>
      </g>
     </g>
    </g>
    <g id="xtick_3">
     <g id="line2d_5">
      <g>
       <use style="stroke:#000000;stroke-width:0.8;" x="276.749073" xlink:href="#md35655390a" y="525.24"/>
      </g>
     </g>
     <g id="text_5">
      <!-- 4.0 -->
      <defs>
       <path d="M 37.796875 64.3125 
L 12.890625 25.390625 
L 37.796875 25.390625 
z
M 35.203125 72.90625 
L 47.609375 72.90625 
L 47.609375 25.390625 
L 58.015625 25.390625 
L 58.015625 17.1875 
L 47.609375 17.1875 
L 47.609375 0 
L 37.796875 0 
L 37.796875 17.1875 
L 4.890625 17.1875 
L 4.890625 26.703125 
z
" id="DejaVuSans-52"/>
       <path d="M 31.78125 66.40625 
Q 24.171875 66.40625 20.328125 58.90625 
Q 16.5 51.421875 16.5 36.375 
Q 16.5 21.390625 20.328125 13.890625 
Q 24.171875 6.390625 31.78125 6.390625 
Q 39.453125 6.390625 43.28125 13.890625 
Q 47.125 21.390625 47.125 36.375 
Q 47.125 51.421875 43.28125 58.90625 
Q 39.453125 66.40625 31.78125 66.40625 
z
M 31.78125 74.21875 
Q 44.046875 74.21875 50.515625 64.515625 
Q 56.984375 54.828125 56.984375 36.375 
Q 56.984375 17.96875 50.515625 8.265625 
Q 44.046875 -1.421875 31.78125 -1.421875 
Q 19.53125 -1.421875 13.0625 8.265625 
Q 6.59375 17.96875 6.59375 36.375 
Q 6.59375 54.828125 13.0625 64.515625 
Q 19.53125 74.21875 31.78125 74.21875 
z
" id="DejaVuSans-48"/>
      </defs>
      <g transform="translate(265.616885 542.877813)scale(0.14 -0.14)">
       <use xlink:href="#DejaVuSans-52"/>
       <use x="63.623047" xlink:href="#DejaVuSans-46"/>
       <use x="95.410156" xlink:href="#DejaVuSans-48"/>
      </g>
     </g>
    </g>
    <g id="xtick_4">
     <g id="line2d_6">
      <g>
       <use style="stroke:#000000;stroke-width:0.8;" x="379.487805" xlink:href="#md35655390a" y="525.24"/>
      </g>
     </g>
     <g id="text_6">
      <!-- 4.2 -->
      <defs>
       <path d="M 19.1875 8.296875 
L 53.609375 8.296875 
L 53.609375 0 
L 7.328125 0 
L 7.328125 8.296875 
Q 12.9375 14.109375 22.625 23.890625 
Q 32.328125 33.6875 34.8125 36.53125 
Q 39.546875 41.84375 41.421875 45.53125 
Q 43.3125 49.21875 43.3125 52.78125 
Q 43.3125 58.59375 39.234375 62.25 
Q 35.15625 65.921875 28.609375 65.921875 
Q 23.96875 65.921875 18.8125 64.3125 
Q 13.671875 62.703125 7.8125 59.421875 
L 7.8125 69.390625 
Q 13.765625 71.78125 18.9375 73 
Q 24.125 74.21875 28.421875 74.21875 
Q 39.75 74.21875 46.484375 68.546875 
Q 53.21875 62.890625 53.21875 53.421875 
Q 53.21875 48.921875 51.53125 44.890625 
Q 49.859375 40.875 45.40625 35.40625 
Q 44.1875 33.984375 37.640625 27.21875 
Q 31.109375 20.453125 19.1875 8.296875 
z
" id="DejaVuSans-50"/>
      </defs>
      <g transform="translate(368.355618 542.877813)scale(0.14 -0.14)">
       <use xlink:href="#DejaVuSans-52"/>
       <use x="63.623047" xlink:href="#DejaVuSans-46"/>
       <use x="95.410156" xlink:href="#DejaVuSans-50"/>
      </g>
     </g>
    </g>
    <g id="xtick_5">
     <g id="line2d_7">
      <g>
       <use style="stroke:#000000;stroke-width:0.8;" x="482.226538" xlink:href="#md35655390a" y="525.24"/>
      </g>
     </g>
     <g id="text_7">
      <!-- 4.4 -->
      <g transform="translate(471.094351 542.877813)scale(0.14 -0.14)">
       <use xlink:href="#DejaVuSans-52"/>
       <use x="63.623047" xlink:href="#DejaVuSans-46"/>
       <use x="95.410156" xlink:href="#DejaVuSans-52"/>
      </g>
     </g>
    </g>
   </g>
   <g id="line2d_8">
    <path clip-path="url(#p7a16dc686c)" d="M 303.820729 525.24 
L 303.820729 402.93 
" style="fill:none;stroke:#ff6384;stroke-dasharray:5.55,2.4;stroke-dashoffset:0;stroke-opacity:0.8;stroke-width:1.5;"/>
   </g>
   <g id="line2d_9">
    <path clip-path="url(#p7a16dc686c)" d="M 270.379271 525.24 
L 270.379271 402.93 
" style="fill:none;stroke:#36a2eb;stroke-dasharray:5.55,2.4;stroke-dashoffset:0;stroke-opacity:0.8;stroke-width:1.5;"/>
   </g>
   <g id="patch_10">
    <path d="M 36 525.24 
L 538.2 525.24 
" style="fill:none;stroke:#000000;stroke-linecap:square;stroke-linejoin:miter;stroke-width:0.8;"/>
   </g>
  </g>
 </g>
 <defs>
  <clipPath id="p2b0873d890">
   <rect height="366.93" width="502.2" x="36" y="36"/>
  </clipPath>
  <clipPath id="p7a16dc686c">
   <rect height="122.31" width="502.2" x="36" y="402.93"/>
  </clipPath>
 </defs>
</svg>
