<?xml version="1.0" encoding="utf-8" standalone="no"?>
<!DOCTYPE svg PUBLIC "-//W3C//DTD SVG 1.1//EN"
  "http://www.w3.org/Graphics/SVG/1.1/DTD/svg11.dtd">
<!-- Created with matplotlib (https://matplotlib.org/) -->
<svg height="581.789375pt" version="1.1" viewBox="0 0 589.071608 581.789375" width="589.071608pt" xmlns="http://www.w3.org/2000/svg" xmlns:xlink="http://www.w3.org/1999/xlink">
 <defs>
  <style type="text/css">
*{stroke-linecap:butt;stroke-linejoin:round;}
  </style>
 </defs>
 <g id="figure_1">
  <g id="patch_1">
   <path d="M 0 581.789375 
L 589.071608 581.789375 
L 589.071608 0 
L 0 0 
z
" style="fill:none;"/>
  </g>
  <g id="axes_1">
   <g id="patch_2">
    <path d="M 50.871608 402.93 
L 553.071608 402.93 
L 553.071608 36 
L 50.871608 36 
z
" style="fill:none;"/>
   </g>
   <g id="PolyCollection_1">
    <defs>
     <path d="M 90.22546 -195.538011 
L 90.22546 -195.648816 
L 94.670095 -195.690599 
L 99.11473 -195.746769 
L 103.559365 -195.821758 
L 108.004 -195.921174 
L 112.448635 -196.052055 
L 116.89327 -196.223153 
L 121.337905 -196.445257 
L 125.78254 -196.731542 
L 130.227176 -197.097945 
L 134.671811 -197.563561 
L 139.116446 -198.151038 
L 143.561081 -198.886962 
L 148.005716 -199.802214 
L 152.450351 -200.932259 
L 156.894986 -202.317362 
L 161.339621 -204.002668 
L 165.784256 -206.038141 
L 170.228891 -208.478304 
L 174.673527 -211.381748 
L 179.118162 -214.810384 
L 183.562797 -218.828406 
L 188.007432 -223.500937 
L 192.452067 -228.892357 
L 196.896702 -235.064327 
L 201.341337 -242.073505 
L 205.785972 -249.969021 
L 210.230607 -258.78976 
L 214.675243 -268.561532 
L 219.119878 -279.294233 
L 223.564513 -290.979118 
L 228.009148 -303.58631 
L 232.453783 -317.062691 
L 236.898418 -331.330303 
L 241.343053 -346.285411 
L 245.787688 -361.798335 
L 250.232323 -377.71415 
L 254.676958 -393.854327 
L 259.121594 -410.019335 
L 263.566229 -425.992194 
L 268.010864 -441.542929 
L 272.455499 -456.433798 
L 276.900134 -470.42515 
L 281.344769 -483.281733 
L 285.789404 -494.779202 
L 290.234039 -504.710592 
L 294.678674 -512.892503 
L 299.123309 -519.17072 
L 303.567945 -523.425048 
L 308.01258 -525.573138 
L 312.457215 -525.573138 
L 316.90185 -523.425048 
L 321.346485 -519.17072 
L 325.79112 -512.892503 
L 330.235755 -504.710592 
L 334.68039 -494.779202 
L 339.125025 -483.281733 
L 343.569661 -470.42515 
L 348.014296 -456.433798 
L 352.458931 -441.542929 
L 356.903566 -425.992194 
L 361.348201 -410.019335 
L 365.792836 -393.854327 
L 370.237471 -377.71415 
L 374.682106 -361.798335 
L 379.126741 -346.285411 
L 383.571376 -331.330303 
L 388.016012 -317.062691 
L 392.460647 -303.58631 
L 396.905282 -290.979118 
L 401.349917 -279.294233 
L 405.794552 -268.561532 
L 410.239187 -258.78976 
L 414.683822 -249.969021 
L 419.128457 -242.073505 
L 423.573092 -235.064327 
L 428.017727 -228.892357 
L 432.462363 -223.500937 
L 436.906998 -218.828406 
L 441.351633 -214.810384 
L 445.796268 -211.381748 
L 450.240903 -208.478304 
L 454.685538 -206.038141 
L 459.130173 -204.002668 
L 463.574808 -202.317362 
L 468.019443 -200.932259 
L 472.464079 -199.802214 
L 476.908714 -198.886962 
L 481.353349 -198.151038 
L 485.797984 -197.563561 
L 490.242619 -197.097945 
L 494.687254 -196.731542 
L 499.131889 -196.445257 
L 503.576524 -196.223153 
L 508.021159 -196.052055 
L 512.465794 -195.921174 
L 516.91043 -195.821758 
L 521.355065 -195.746769 
L 525.7997 -195.690599 
L 530.244335 -195.648816 
L 530.244335 -195.538011 
L 530.244335 -195.538011 
L 525.7997 -195.538011 
L 521.355065 -195.538011 
L 516.91043 -195.538011 
L 512.465794 -195.538011 
L 508.021159 -195.538011 
L 503.576524 -195.538011 
L 499.131889 -195.538011 
L 494.687254 -195.538011 
L 490.242619 -195.538011 
L 485.797984 -195.538011 
L 481.353349 -195.538011 
L 476.908714 -195.538011 
L 472.464079 -195.538011 
L 468.019443 -195.538011 
L 463.574808 -195.538011 
L 459.130173 -195.538011 
L 454.685538 -195.538011 
L 450.240903 -195.538011 
L 445.796268 -195.538011 
L 441.351633 -195.538011 
L 436.906998 -195.538011 
L 432.462363 -195.538011 
L 428.017727 -195.538011 
L 423.573092 -195.538011 
L 419.128457 -195.538011 
L 414.683822 -195.538011 
L 410.239187 -195.538011 
L 405.794552 -195.538011 
L 401.349917 -195.538011 
L 396.905282 -195.538011 
L 392.460647 -195.538011 
L 388.016012 -195.538011 
L 383.571376 -195.538011 
L 379.126741 -195.538011 
L 374.682106 -195.538011 
L 370.237471 -195.538011 
L 365.792836 -195.538011 
L 361.348201 -195.538011 
L 356.903566 -195.538011 
L 352.458931 -195.538011 
L 348.014296 -195.538011 
L 343.569661 -195.538011 
L 339.125025 -195.538011 
L 334.68039 -195.538011 
L 330.235755 -195.538011 
L 325.79112 -195.538011 
L 321.346485 -195.538011 
L 316.90185 -195.538011 
L 312.457215 -195.538011 
L 308.01258 -195.538011 
L 303.567945 -195.538011 
L 299.123309 -195.538011 
L 294.678674 -195.538011 
L 290.234039 -195.538011 
L 285.789404 -195.538011 
L 281.344769 -195.538011 
L 276.900134 -195.538011 
L 272.455499 -195.538011 
L 268.010864 -195.538011 
L 263.566229 -195.538011 
L 259.121594 -195.538011 
L 254.676958 -195.538011 
L 250.232323 -195.538011 
L 245.787688 -195.538011 
L 241.343053 -195.538011 
L 236.898418 -195.538011 
L 232.453783 -195.538011 
L 228.009148 -195.538011 
L 223.564513 -195.538011 
L 219.119878 -195.538011 
L 214.675243 -195.538011 
L 210.230607 -195.538011 
L 205.785972 -195.538011 
L 201.341337 -195.538011 
L 196.896702 -195.538011 
L 192.452067 -195.538011 
L 188.007432 -195.538011 
L 183.562797 -195.538011 
L 179.118162 -195.538011 
L 174.673527 -195.538011 
L 170.228891 -195.538011 
L 165.784256 -195.538011 
L 161.339621 -195.538011 
L 156.894986 -195.538011 
L 152.450351 -195.538011 
L 148.005716 -195.538011 
L 143.561081 -195.538011 
L 139.116446 -195.538011 
L 134.671811 -195.538011 
L 130.227176 -195.538011 
L 125.78254 -195.538011 
L 121.337905 -195.538011 
L 116.89327 -195.538011 
L 112.448635 -195.538011 
L 108.004 -195.538011 
L 103.559365 -195.538011 
L 99.11473 -195.538011 
L 94.670095 -195.538011 
L 90.22546 -195.538011 
z
" id="m0c02f75697" style="stroke:#ff6384;stroke-opacity:0.5;"/>
    </defs>
    <g clip-path="url(#p7c2d2708ac)">
     <use style="fill:#ff6384;fill-opacity:0.5;stroke:#ff6384;stroke-opacity:0.5;" x="0" xlink:href="#m0c02f75697" y="581.789375"/>
    </g>
   </g>
   <g id="PolyCollection_2">
    <defs>
     <path d="M 73.69888 -195.538011 
L 73.69888 -195.650004 
L 78.096379 -195.692234 
L 82.493878 -195.749007 
L 86.891377 -195.8248 
L 91.288876 -195.925281 
L 95.686375 -196.057565 
L 100.083874 -196.230497 
L 104.481373 -196.454982 
L 108.878872 -196.744335 
L 113.276371 -197.114666 
L 117.67387 -197.585273 
L 122.071369 -198.179047 
L 126.468867 -198.922859 
L 130.866366 -199.847921 
L 135.263865 -200.990079 
L 139.661364 -202.390029 
L 144.058863 -204.093399 
L 148.456362 -206.150691 
L 152.853861 -208.617009 
L 157.25136 -211.551575 
L 161.648859 -215.016962 
L 166.046358 -219.078053 
L 170.443857 -223.800667 
L 174.841356 -229.249878 
L 179.238855 -235.488004 
L 183.636354 -242.572312 
L 188.033852 -250.552459 
L 192.431351 -259.467747 
L 196.82885 -269.344261 
L 201.226349 -280.192004 
L 205.623848 -292.002137 
L 210.021347 -304.744465 
L 214.418846 -318.365297 
L 218.816345 -332.785841 
L 223.213844 -347.901251 
L 227.611343 -363.580456 
L 232.008842 -379.666871 
L 236.406341 -395.980052 
L 240.80384 -412.31833 
L 245.201339 -428.4624 
L 249.598837 -444.179822 
L 253.996336 -459.230303 
L 258.393835 -473.371627 
L 262.791334 -486.366018 
L 267.188833 -497.986726 
L 271.586332 -508.02457 
L 275.983831 -516.294181 
L 280.38133 -522.639693 
L 284.778829 -526.939623 
L 289.176328 -529.110739 
L 293.573827 -529.110739 
L 297.971326 -526.939623 
L 302.368825 -522.639693 
L 306.766324 -516.294181 
L 311.163822 -508.02457 
L 315.561321 -497.986726 
L 319.95882 -486.366018 
L 324.356319 -473.371627 
L 328.753818 -459.230303 
L 333.151317 -444.179822 
L 337.548816 -428.4624 
L 341.946315 -412.31833 
L 346.343814 -395.980052 
L 350.741313 -379.666871 
L 355.138812 -363.580456 
L 359.536311 -347.901251 
L 363.93381 -332.785841 
L 368.331309 -318.365297 
L 372.728807 -304.744465 
L 377.126306 -292.002137 
L 381.523805 -280.192004 
L 385.921304 -269.344261 
L 390.318803 -259.467747 
L 394.716302 -250.552459 
L 399.113801 -242.572312 
L 403.5113 -235.488004 
L 407.908799 -229.249878 
L 412.306298 -223.800667 
L 416.703797 -219.078053 
L 421.101296 -215.016962 
L 425.498795 -211.551575 
L 429.896294 -208.617009 
L 434.293792 -206.150691 
L 438.691291 -204.093399 
L 443.08879 -202.390029 
L 447.486289 -200.990079 
L 451.883788 -199.847921 
L 456.281287 -198.922859 
L 460.678786 -198.179047 
L 465.076285 -197.585273 
L 469.473784 -197.114666 
L 473.871283 -196.744335 
L 478.268782 -196.454982 
L 482.666281 -196.230497 
L 487.06378 -196.057565 
L 491.461279 -195.925281 
L 495.858777 -195.8248 
L 500.256276 -195.749007 
L 504.653775 -195.692234 
L 509.051274 -195.650004 
L 509.051274 -195.538011 
L 509.051274 -195.538011 
L 504.653775 -195.538011 
L 500.256276 -195.538011 
L 495.858777 -195.538011 
L 491.461279 -195.538011 
L 487.06378 -195.538011 
L 482.666281 -195.538011 
L 478.268782 -195.538011 
L 473.871283 -195.538011 
L 469.473784 -195.538011 
L 465.076285 -195.538011 
L 460.678786 -195.538011 
L 456.281287 -195.538011 
L 451.883788 -195.538011 
L 447.486289 -195.538011 
L 443.08879 -195.538011 
L 438.691291 -195.538011 
L 434.293792 -195.538011 
L 429.896294 -195.538011 
L 425.498795 -195.538011 
L 421.101296 -195.538011 
L 416.703797 -195.538011 
L 412.306298 -195.538011 
L 407.908799 -195.538011 
L 403.5113 -195.538011 
L 399.113801 -195.538011 
L 394.716302 -195.538011 
L 390.318803 -195.538011 
L 385.921304 -195.538011 
L 381.523805 -195.538011 
L 377.126306 -195.538011 
L 372.728807 -195.538011 
L 368.331309 -195.538011 
L 363.93381 -195.538011 
L 359.536311 -195.538011 
L 355.138812 -195.538011 
L 350.741313 -195.538011 
L 346.343814 -195.538011 
L 341.946315 -195.538011 
L 337.548816 -195.538011 
L 333.151317 -195.538011 
L 328.753818 -195.538011 
L 324.356319 -195.538011 
L 319.95882 -195.538011 
L 315.561321 -195.538011 
L 311.163822 -195.538011 
L 306.766324 -195.538011 
L 302.368825 -195.538011 
L 297.971326 -195.538011 
L 293.573827 -195.538011 
L 289.176328 -195.538011 
L 284.778829 -195.538011 
L 280.38133 -195.538011 
L 275.983831 -195.538011 
L 271.586332 -195.538011 
L 267.188833 -195.538011 
L 262.791334 -195.538011 
L 258.393835 -195.538011 
L 253.996336 -195.538011 
L 249.598837 -195.538011 
L 245.201339 -195.538011 
L 240.80384 -195.538011 
L 236.406341 -195.538011 
L 232.008842 -195.538011 
L 227.611343 -195.538011 
L 223.213844 -195.538011 
L 218.816345 -195.538011 
L 214.418846 -195.538011 
L 210.021347 -195.538011 
L 205.623848 -195.538011 
L 201.226349 -195.538011 
L 196.82885 -195.538011 
L 192.431351 -195.538011 
L 188.033852 -195.538011 
L 183.636354 -195.538011 
L 179.238855 -195.538011 
L 174.841356 -195.538011 
L 170.443857 -195.538011 
L 166.046358 -195.538011 
L 161.648859 -195.538011 
L 157.25136 -195.538011 
L 152.853861 -195.538011 
L 148.456362 -195.538011 
L 144.058863 -195.538011 
L 139.661364 -195.538011 
L 135.263865 -195.538011 
L 130.866366 -195.538011 
L 126.468867 -195.538011 
L 122.071369 -195.538011 
L 117.67387 -195.538011 
L 113.276371 -195.538011 
L 108.878872 -195.538011 
L 104.481373 -195.538011 
L 100.083874 -195.538011 
L 95.686375 -195.538011 
L 91.288876 -195.538011 
L 86.891377 -195.538011 
L 82.493878 -195.538011 
L 78.096379 -195.538011 
L 73.69888 -195.538011 
z
" id="m96b7f57539" style="stroke:#36a2eb;stroke-opacity:0.5;"/>
    </defs>
    <g clip-path="url(#p7c2d2708ac)">
     <use style="fill:#36a2eb;fill-opacity:0.5;stroke:#36a2eb;stroke-opacity:0.5;" x="0" xlink:href="#m96b7f57539" y="581.789375"/>
    </g>
   </g>
   <g id="line2d_1">
    <path clip-path="url(#p7c2d2708ac)" d="M 90.22546 386.140559 
L 94.670095 386.098776 
L 99.11473 386.042606 
L 103.559365 385.967617 
L 108.004 385.868201 
L 112.448635 385.73732 
L 116.89327 385.566222 
L 121.337905 385.344118 
L 125.78254 385.057833 
L 130.227176 384.69143 
L 134.671811 384.225814 
L 139.116446 383.638337 
L 143.561081 382.902413 
L 148.005716 381.987161 
L 152.450351 380.857116 
L 156.894986 379.472013 
L 161.339621 377.786707 
L 165.784256 375.751234 
L 170.228891 373.311071 
L 174.673527 370.407627 
L 179.118162 366.978991 
L 183.562797 362.960969 
L 188.007432 358.288438 
L 192.452067 352.897018 
L 196.896702 346.725048 
L 201.341337 339.71587 
L 205.785972 331.820354 
L 210.230607 322.999615 
L 214.675243 313.227843 
L 219.119878 302.495142 
L 223.564513 290.810257 
L 228.009148 278.203065 
L 232.453783 264.726684 
L 236.898418 250.459072 
L 241.343053 235.503964 
L 245.787688 219.99104 
L 250.232323 204.075225 
L 254.676958 187.935048 
L 259.121594 171.77004 
L 263.566229 155.797181 
L 268.010864 140.246446 
L 272.455499 125.355577 
L 276.900134 111.364225 
L 281.344769 98.507642 
L 285.789404 87.010173 
L 290.234039 77.078783 
L 294.678674 68.896872 
L 299.123309 62.618655 
L 303.567945 58.364327 
L 308.01258 56.216237 
L 312.457215 56.216237 
L 316.90185 58.364327 
L 321.346485 62.618655 
L 325.79112 68.896872 
L 330.235755 77.078783 
L 334.68039 87.010173 
L 339.125025 98.507642 
L 343.569661 111.364225 
L 348.014296 125.355577 
L 352.458931 140.246446 
L 356.903566 155.797181 
L 361.348201 171.77004 
L 365.792836 187.935048 
L 370.237471 204.075225 
L 374.682106 219.99104 
L 379.126741 235.503964 
L 383.571376 250.459072 
L 388.016012 264.726684 
L 392.460647 278.203065 
L 396.905282 290.810257 
L 401.349917 302.495142 
L 405.794552 313.227843 
L 410.239187 322.999615 
L 414.683822 331.820354 
L 419.128457 339.71587 
L 423.573092 346.725048 
L 428.017727 352.897018 
L 432.462363 358.288438 
L 436.906998 362.960969 
L 441.351633 366.978991 
L 445.796268 370.407627 
L 450.240903 373.311071 
L 454.685538 375.751234 
L 459.130173 377.786707 
L 463.574808 379.472013 
L 468.019443 380.857116 
L 472.464079 381.987161 
L 476.908714 382.902413 
L 481.353349 383.638337 
L 485.797984 384.225814 
L 490.242619 384.69143 
L 494.687254 385.057833 
L 499.131889 385.344118 
L 503.576524 385.566222 
L 508.021159 385.73732 
L 512.465794 385.868201 
L 516.91043 385.967617 
L 521.355065 386.042606 
L 525.7997 386.098776 
L 530.244335 386.140559 
" style="fill:none;stroke:#ff6384;stroke-linecap:square;"/>
   </g>
   <g id="line2d_2">
    <path clip-path="url(#p7c2d2708ac)" d="M 73.69888 386.139371 
L 78.096379 386.097141 
L 82.493878 386.040368 
L 86.891377 385.964575 
L 91.288876 385.864094 
L 95.686375 385.73181 
L 100.083874 385.558878 
L 104.481373 385.334393 
L 108.878872 385.04504 
L 113.276371 384.674709 
L 117.67387 384.204102 
L 122.071369 383.610328 
L 126.468867 382.866516 
L 130.866366 381.941454 
L 135.263865 380.799296 
L 139.661364 379.399346 
L 144.058863 377.695976 
L 148.456362 375.638684 
L 152.853861 373.172366 
L 157.25136 370.2378 
L 161.648859 366.772413 
L 166.046358 362.711322 
L 170.443857 357.988708 
L 174.841356 352.539497 
L 179.238855 346.301371 
L 183.636354 339.217063 
L 188.033852 331.236916 
L 192.431351 322.321628 
L 196.82885 312.445114 
L 201.226349 301.597371 
L 205.623848 289.787238 
L 210.021347 277.04491 
L 214.418846 263.424078 
L 218.816345 249.003534 
L 223.213844 233.888124 
L 227.611343 218.208919 
L 232.008842 202.122504 
L 236.406341 185.809323 
L 240.80384 169.471045 
L 245.201339 153.326975 
L 249.598837 137.609553 
L 253.996336 122.559072 
L 258.393835 108.417748 
L 262.791334 95.423357 
L 267.188833 83.802649 
L 271.586332 73.764805 
L 275.983831 65.495194 
L 280.38133 59.149682 
L 284.778829 54.849752 
L 289.176328 52.678636 
L 293.573827 52.678636 
L 297.971326 54.849752 
L 302.368825 59.149682 
L 306.766324 65.495194 
L 311.163822 73.764805 
L 315.561321 83.802649 
L 319.95882 95.423357 
L 324.356319 108.417748 
L 328.753818 122.559072 
L 333.151317 137.609553 
L 337.548816 153.326975 
L 341.946315 169.471045 
L 346.343814 185.809323 
L 350.741313 202.122504 
L 355.138812 218.208919 
L 359.536311 233.888124 
L 363.93381 249.003534 
L 368.331309 263.424078 
L 372.728807 277.04491 
L 377.126306 289.787238 
L 381.523805 301.597371 
L 385.921304 312.445114 
L 390.318803 322.321628 
L 394.716302 331.236916 
L 399.113801 339.217063 
L 403.5113 346.301371 
L 407.908799 352.539497 
L 412.306298 357.988708 
L 416.703797 362.711322 
L 421.101296 366.772413 
L 425.498795 370.2378 
L 429.896294 373.172366 
L 434.293792 375.638684 
L 438.691291 377.695976 
L 443.08879 379.399346 
L 447.486289 380.799296 
L 451.883788 381.941454 
L 456.281287 382.866516 
L 460.678786 383.610328 
L 465.076285 384.204102 
L 469.473784 384.674709 
L 473.871283 385.04504 
L 478.268782 385.334393 
L 482.666281 385.558878 
L 487.06378 385.73181 
L 491.461279 385.864094 
L 495.858777 385.964575 
L 500.256276 386.040368 
L 504.653775 386.097141 
L 509.051274 386.139371 
" style="fill:none;stroke:#36a2eb;stroke-linecap:square;"/>
   </g>
   <g id="patch_3">
    <path d="M 50.871608 402.93 
L 553.071608 402.93 
" style="fill:none;stroke:#000000;stroke-linecap:square;stroke-linejoin:miter;stroke-width:0.8;"/>
   </g>
   <g id="legend_1">
    <g id="patch_4">
     <path d="M 456.578795 88.29875 
L 543.271608 88.29875 
Q 546.071608 88.29875 546.071608 85.49875 
L 546.071608 45.8 
Q 546.071608 43 543.271608 43 
L 456.578795 43 
Q 453.778795 43 453.778795 45.8 
L 453.778795 85.49875 
Q 453.778795 88.29875 456.578795 88.29875 
z
" style="fill:#ffffff;opacity:0.8;stroke:#cccccc;stroke-linejoin:miter;"/>
    </g>
    <g id="patch_5">
     <path d="M 459.378795 59.237813 
L 487.378795 59.237813 
L 487.378795 49.437813 
L 459.378795 49.437813 
z
" style="fill:#ff6384;opacity:0.5;stroke:#ff6384;stroke-linejoin:miter;"/>
    </g>
    <g id="text_1">
     <!-- base -->
     <defs>
      <path d="M 48.6875 27.296875 
Q 48.6875 37.203125 44.609375 42.84375 
Q 40.53125 48.484375 33.40625 48.484375 
Q 26.265625 48.484375 22.1875 42.84375 
Q 18.109375 37.203125 18.109375 27.296875 
Q 18.109375 17.390625 22.1875 11.75 
Q 26.265625 6.109375 33.40625 6.109375 
Q 40.53125 6.109375 44.609375 11.75 
Q 48.6875 17.390625 48.6875 27.296875 
z
M 18.109375 46.390625 
Q 20.953125 51.265625 25.265625 53.625 
Q 29.59375 56 35.59375 56 
Q 45.5625 56 51.78125 48.09375 
Q 58.015625 40.1875 58.015625 27.296875 
Q 58.015625 14.40625 51.78125 6.484375 
Q 45.5625 -1.421875 35.59375 -1.421875 
Q 29.59375 -1.421875 25.265625 0.953125 
Q 20.953125 3.328125 18.109375 8.203125 
L 18.109375 0 
L 9.078125 0 
L 9.078125 75.984375 
L 18.109375 75.984375 
z
" id="DejaVuSans-98"/>
      <path d="M 34.28125 27.484375 
Q 23.390625 27.484375 19.1875 25 
Q 14.984375 22.515625 14.984375 16.5 
Q 14.984375 11.71875 18.140625 8.90625 
Q 21.296875 6.109375 26.703125 6.109375 
Q 34.1875 6.109375 38.703125 11.40625 
Q 43.21875 16.703125 43.21875 25.484375 
L 43.21875 27.484375 
z
M 52.203125 31.203125 
L 52.203125 0 
L 43.21875 0 
L 43.21875 8.296875 
Q 40.140625 3.328125 35.546875 0.953125 
Q 30.953125 -1.421875 24.3125 -1.421875 
Q 15.921875 -1.421875 10.953125 3.296875 
Q 6 8.015625 6 15.921875 
Q 6 25.140625 12.171875 29.828125 
Q 18.359375 34.515625 30.609375 34.515625 
L 43.21875 34.515625 
L 43.21875 35.40625 
Q 43.21875 41.609375 39.140625 45 
Q 35.0625 48.390625 27.6875 48.390625 
Q 23 48.390625 18.546875 47.265625 
Q 14.109375 46.140625 10.015625 43.890625 
L 10.015625 52.203125 
Q 14.9375 54.109375 19.578125 55.046875 
Q 24.21875 56 28.609375 56 
Q 40.484375 56 46.34375 49.84375 
Q 52.203125 43.703125 52.203125 31.203125 
z
" id="DejaVuSans-97"/>
      <path d="M 44.28125 53.078125 
L 44.28125 44.578125 
Q 40.484375 46.53125 36.375 47.5 
Q 32.28125 48.484375 27.875 48.484375 
Q 21.1875 48.484375 17.84375 46.4375 
Q 14.5 44.390625 14.5 40.28125 
Q 14.5 37.15625 16.890625 35.375 
Q 19.28125 33.59375 26.515625 31.984375 
L 29.59375 31.296875 
Q 39.15625 29.25 43.1875 25.515625 
Q 47.21875 21.78125 47.21875 15.09375 
Q 47.21875 7.46875 41.1875 3.015625 
Q 35.15625 -1.421875 24.609375 -1.421875 
Q 20.21875 -1.421875 15.453125 -0.5625 
Q 10.6875 0.296875 5.421875 2 
L 5.421875 11.28125 
Q 10.40625 8.6875 15.234375 7.390625 
Q 20.0625 6.109375 24.8125 6.109375 
Q 31.15625 6.109375 34.5625 8.28125 
Q 37.984375 10.453125 37.984375 14.40625 
Q 37.984375 18.0625 35.515625 20.015625 
Q 33.0625 21.96875 24.703125 23.78125 
L 21.578125 24.515625 
Q 13.234375 26.265625 9.515625 29.90625 
Q 5.8125 33.546875 5.8125 39.890625 
Q 5.8125 47.609375 11.28125 51.796875 
Q 16.75 56 26.8125 56 
Q 31.78125 56 36.171875 55.265625 
Q 40.578125 54.546875 44.28125 53.078125 
z
" id="DejaVuSans-115"/>
      <path d="M 56.203125 29.59375 
L 56.203125 25.203125 
L 14.890625 25.203125 
Q 15.484375 15.921875 20.484375 11.0625 
Q 25.484375 6.203125 34.421875 6.203125 
Q 39.59375 6.203125 44.453125 7.46875 
Q 49.3125 8.734375 54.109375 11.28125 
L 54.109375 2.78125 
Q 49.265625 0.734375 44.1875 -0.34375 
Q 39.109375 -1.421875 33.890625 -1.421875 
Q 20.796875 -1.421875 13.15625 6.1875 
Q 5.515625 13.8125 5.515625 26.8125 
Q 5.515625 40.234375 12.765625 48.109375 
Q 20.015625 56 32.328125 56 
Q 43.359375 56 49.78125 48.890625 
Q 56.203125 41.796875 56.203125 29.59375 
z
M 47.21875 32.234375 
Q 47.125 39.59375 43.09375 43.984375 
Q 39.0625 48.390625 32.421875 48.390625 
Q 24.90625 48.390625 20.390625 44.140625 
Q 15.875 39.890625 15.1875 32.171875 
z
" id="DejaVuSans-101"/>
     </defs>
     <g transform="translate(498.578795 59.237813)scale(0.14 -0.14)">
      <use xlink:href="#DejaVuSans-98"/>
      <use x="63.476562" xlink:href="#DejaVuSans-97"/>
      <use x="124.755859" xlink:href="#DejaVuSans-115"/>
      <use x="176.855469" xlink:href="#DejaVuSans-101"/>
     </g>
    </g>
    <g id="patch_6">
     <path d="M 459.378795 79.787188 
L 487.378795 79.787188 
L 487.378795 69.987188 
L 459.378795 69.987188 
z
" style="fill:#36a2eb;opacity:0.5;stroke:#36a2eb;stroke-linejoin:miter;"/>
    </g>
    <g id="text_2">
     <!-- osago -->
     <defs>
      <path d="M 30.609375 48.390625 
Q 23.390625 48.390625 19.1875 42.75 
Q 14.984375 37.109375 14.984375 27.296875 
Q 14.984375 17.484375 19.15625 11.84375 
Q 23.34375 6.203125 30.609375 6.203125 
Q 37.796875 6.203125 41.984375 11.859375 
Q 46.1875 17.53125 46.1875 27.296875 
Q 46.1875 37.015625 41.984375 42.703125 
Q 37.796875 48.390625 30.609375 48.390625 
z
M 30.609375 56 
Q 42.328125 56 49.015625 48.375 
Q 55.71875 40.765625 55.71875 27.296875 
Q 55.71875 13.875 49.015625 6.21875 
Q 42.328125 -1.421875 30.609375 -1.421875 
Q 18.84375 -1.421875 12.171875 6.21875 
Q 5.515625 13.875 5.515625 27.296875 
Q 5.515625 40.765625 12.171875 48.375 
Q 18.84375 56 30.609375 56 
z
" id="DejaVuSans-111"/>
      <path d="M 45.40625 27.984375 
Q 45.40625 37.75 41.375 43.109375 
Q 37.359375 48.484375 30.078125 48.484375 
Q 22.859375 48.484375 18.828125 43.109375 
Q 14.796875 37.75 14.796875 27.984375 
Q 14.796875 18.265625 18.828125 12.890625 
Q 22.859375 7.515625 30.078125 7.515625 
Q 37.359375 7.515625 41.375 12.890625 
Q 45.40625 18.265625 45.40625 27.984375 
z
M 54.390625 6.78125 
Q 54.390625 -7.171875 48.1875 -13.984375 
Q 42 -20.796875 29.203125 -20.796875 
Q 24.46875 -20.796875 20.265625 -20.09375 
Q 16.0625 -19.390625 12.109375 -17.921875 
L 12.109375 -9.1875 
Q 16.0625 -11.328125 19.921875 -12.34375 
Q 23.78125 -13.375 27.78125 -13.375 
Q 36.625 -13.375 41.015625 -8.765625 
Q 45.40625 -4.15625 45.40625 5.171875 
L 45.40625 9.625 
Q 42.625 4.78125 38.28125 2.390625 
Q 33.9375 0 27.875 0 
Q 17.828125 0 11.671875 7.65625 
Q 5.515625 15.328125 5.515625 27.984375 
Q 5.515625 40.671875 11.671875 48.328125 
Q 17.828125 56 27.875 56 
Q 33.9375 56 38.28125 53.609375 
Q 42.625 51.21875 45.40625 46.390625 
L 45.40625 54.6875 
L 54.390625 54.6875 
z
" id="DejaVuSans-103"/>
     </defs>
     <g transform="translate(498.578795 79.787188)scale(0.14 -0.14)">
      <use xlink:href="#DejaVuSans-111"/>
      <use x="61.181641" xlink:href="#DejaVuSans-115"/>
      <use x="113.28125" xlink:href="#DejaVuSans-97"/>
      <use x="174.560547" xlink:href="#DejaVuSans-103"/>
      <use x="238.037109" xlink:href="#DejaVuSans-111"/>
     </g>
    </g>
   </g>
  </g>
  <g id="axes_2">
   <g id="patch_7">
    <path d="M 50.871608 525.24 
L 553.071608 525.24 
L 553.071608 402.93 
L 50.871608 402.93 
z
" style="fill:none;"/>
   </g>
   <g id="patch_8">
    <path clip-path="url(#p46328cf214)" d="M 202.430273 519.680455 
L 418.039522 519.680455 
L 418.039522 482.616818 
L 202.430273 482.616818 
z
" style="fill:#ff6384;opacity:0.5;"/>
   </g>
   <g id="patch_9">
    <path clip-path="url(#p46328cf214)" d="M 184.713741 445.553182 
L 398.036414 445.553182 
L 398.036414 408.489545 
L 184.713741 408.489545 
z
" style="fill:#36a2eb;opacity:0.5;"/>
   </g>
   <g id="matplotlib.axis_1">
    <g id="xtick_1">
     <g id="line2d_3">
      <defs>
       <path d="M 0 0 
L 0 3.5 
" id="m3c86cb9166" style="stroke:#000000;stroke-width:0.8;"/>
      </defs>
      <g>
       <use style="stroke:#000000;stroke-width:0.8;" x="51.585938" xlink:href="#m3c86cb9166" y="525.24"/>
      </g>
     </g>
     <g id="text_3">
      <!-- 0.50 -->
      <defs>
       <path d="M 31.78125 66.40625 
Q 24.171875 66.40625 20.328125 58.90625 
Q 16.5 51.421875 16.5 36.375 
Q 16.5 21.390625 20.328125 13.890625 
Q 24.171875 6.390625 31.78125 6.390625 
Q 39.453125 6.390625 43.28125 13.890625 
Q 47.125 21.390625 47.125 36.375 
Q 47.125 51.421875 43.28125 58.90625 
Q 39.453125 66.40625 31.78125 66.40625 
z
M 31.78125 74.21875 
Q 44.046875 74.21875 50.515625 64.515625 
Q 56.984375 54.828125 56.984375 36.375 
Q 56.984375 17.96875 50.515625 8.265625 
Q 44.046875 -1.421875 31.78125 -1.421875 
Q 19.53125 -1.421875 13.0625 8.265625 
Q 6.59375 17.96875 6.59375 36.375 
Q 6.59375 54.828125 13.0625 64.515625 
Q 19.53125 74.21875 31.78125 74.21875 
z
" id="DejaVuSans-48"/>
       <path d="M 10.6875 12.40625 
L 21 12.40625 
L 21 0 
L 10.6875 0 
z
" id="DejaVuSans-46"/>
       <path d="M 10.796875 72.90625 
L 49.515625 72.90625 
L 49.515625 64.59375 
L 19.828125 64.59375 
L 19.828125 46.734375 
Q 21.96875 47.46875 24.109375 47.828125 
Q 26.265625 48.1875 28.421875 48.1875 
Q 40.625 48.1875 47.75 41.5 
Q 54.890625 34.8125 54.890625 23.390625 
Q 54.890625 11.625 47.5625 5.09375 
Q 40.234375 -1.421875 26.90625 -1.421875 
Q 22.3125 -1.421875 17.546875 -0.640625 
Q 12.796875 0.140625 7.71875 1.703125 
L 7.71875 11.625 
Q 12.109375 9.234375 16.796875 8.0625 
Q 21.484375 6.890625 26.703125 6.890625 
Q 35.15625 6.890625 40.078125 11.328125 
Q 45.015625 15.765625 45.015625 23.390625 
Q 45.015625 31 40.078125 35.4375 
Q 35.15625 39.890625 26.703125 39.890625 
Q 22.75 39.890625 18.8125 39.015625 
Q 14.890625 38.140625 10.796875 36.28125 
z
" id="DejaVuSans-53"/>
      </defs>
      <g transform="translate(36 542.877813)scale(0.14 -0.14)">
       <use xlink:href="#DejaVuSans-48"/>
       <use x="63.623047" xlink:href="#DejaVuSans-46"/>
       <use x="95.410156" xlink:href="#DejaVuSans-53"/>
       <use x="159.033203" xlink:href="#DejaVuSans-48"/>
      </g>
     </g>
    </g>
    <g id="xtick_2">
     <g id="line2d_4">
      <g>
       <use style="stroke:#000000;stroke-width:0.8;" x="118.942437" xlink:href="#m3c86cb9166" y="525.24"/>
      </g>
     </g>
     <g id="text_4">
      <!-- 0.75 -->
      <defs>
       <path d="M 8.203125 72.90625 
L 55.078125 72.90625 
L 55.078125 68.703125 
L 28.609375 0 
L 18.3125 0 
L 43.21875 64.59375 
L 8.203125 64.59375 
z
" id="DejaVuSans-55"/>
      </defs>
      <g transform="translate(103.3565 542.877813)scale(0.14 -0.14)">
       <use xlink:href="#DejaVuSans-48"/>
       <use x="63.623047" xlink:href="#DejaVuSans-46"/>
       <use x="95.410156" xlink:href="#DejaVuSans-55"/>
       <use x="159.033203" xlink:href="#DejaVuSans-53"/>
      </g>
     </g>
    </g>
    <g id="xtick_3">
     <g id="line2d_5">
      <g>
       <use style="stroke:#000000;stroke-width:0.8;" x="186.298937" xlink:href="#m3c86cb9166" y="525.24"/>
      </g>
     </g>
     <g id="text_5">
      <!-- 1.00 -->
      <defs>
       <path d="M 12.40625 8.296875 
L 28.515625 8.296875 
L 28.515625 63.921875 
L 10.984375 60.40625 
L 10.984375 69.390625 
L 28.421875 72.90625 
L 38.28125 72.90625 
L 38.28125 8.296875 
L 54.390625 8.296875 
L 54.390625 0 
L 12.40625 0 
z
" id="DejaVuSans-49"/>
      </defs>
      <g transform="translate(170.713 542.877813)scale(0.14 -0.14)">
       <use xlink:href="#DejaVuSans-49"/>
       <use x="63.623047" xlink:href="#DejaVuSans-46"/>
       <use x="95.410156" xlink:href="#DejaVuSans-48"/>
       <use x="159.033203" xlink:href="#DejaVuSans-48"/>
      </g>
     </g>
    </g>
    <g id="xtick_4">
     <g id="line2d_6">
      <g>
       <use style="stroke:#000000;stroke-width:0.8;" x="253.655437" xlink:href="#m3c86cb9166" y="525.24"/>
      </g>
     </g>
     <g id="text_6">
      <!-- 1.25 -->
      <defs>
       <path d="M 19.1875 8.296875 
L 53.609375 8.296875 
L 53.609375 0 
L 7.328125 0 
L 7.328125 8.296875 
Q 12.9375 14.109375 22.625 23.890625 
Q 32.328125 33.6875 34.8125 36.53125 
Q 39.546875 41.84375 41.421875 45.53125 
Q 43.3125 49.21875 43.3125 52.78125 
Q 43.3125 58.59375 39.234375 62.25 
Q 35.15625 65.921875 28.609375 65.921875 
Q 23.96875 65.921875 18.8125 64.3125 
Q 13.671875 62.703125 7.8125 59.421875 
L 7.8125 69.390625 
Q 13.765625 71.78125 18.9375 73 
Q 24.125 74.21875 28.421875 74.21875 
Q 39.75 74.21875 46.484375 68.546875 
Q 53.21875 62.890625 53.21875 53.421875 
Q 53.21875 48.921875 51.53125 44.890625 
Q 49.859375 40.875 45.40625 35.40625 
Q 44.1875 33.984375 37.640625 27.21875 
Q 31.109375 20.453125 19.1875 8.296875 
z
" id="DejaVuSans-50"/>
      </defs>
      <g transform="translate(238.0695 542.877813)scale(0.14 -0.14)">
       <use xlink:href="#DejaVuSans-49"/>
       <use x="63.623047" xlink:href="#DejaVuSans-46"/>
       <use x="95.410156" xlink:href="#DejaVuSans-50"/>
       <use x="159.033203" xlink:href="#DejaVuSans-53"/>
      </g>
     </g>
    </g>
    <g id="xtick_5">
     <g id="line2d_7">
      <g>
       <use style="stroke:#000000;stroke-width:0.8;" x="321.011937" xlink:href="#m3c86cb9166" y="525.24"/>
      </g>
     </g>
     <g id="text_7">
      <!-- 1.50 -->
      <g transform="translate(305.426 542.877813)scale(0.14 -0.14)">
       <use xlink:href="#DejaVuSans-49"/>
       <use x="63.623047" xlink:href="#DejaVuSans-46"/>
       <use x="95.410156" xlink:href="#DejaVuSans-53"/>
       <use x="159.033203" xlink:href="#DejaVuSans-48"/>
      </g>
     </g>
    </g>
    <g id="xtick_6">
     <g id="line2d_8">
      <g>
       <use style="stroke:#000000;stroke-width:0.8;" x="388.368437" xlink:href="#m3c86cb9166" y="525.24"/>
      </g>
     </g>
     <g id="text_8">
      <!-- 1.75 -->
      <g transform="translate(372.7825 542.877813)scale(0.14 -0.14)">
       <use xlink:href="#DejaVuSans-49"/>
       <use x="63.623047" xlink:href="#DejaVuSans-46"/>
       <use x="95.410156" xlink:href="#DejaVuSans-55"/>
       <use x="159.033203" xlink:href="#DejaVuSans-53"/>
      </g>
     </g>
    </g>
    <g id="xtick_7">
     <g id="line2d_9">
      <g>
       <use style="stroke:#000000;stroke-width:0.8;" x="455.724937" xlink:href="#m3c86cb9166" y="525.24"/>
      </g>
     </g>
     <g id="text_9">
      <!-- 2.00 -->
      <g transform="translate(440.139 542.877813)scale(0.14 -0.14)">
       <use xlink:href="#DejaVuSans-50"/>
       <use x="63.623047" xlink:href="#DejaVuSans-46"/>
       <use x="95.410156" xlink:href="#DejaVuSans-48"/>
       <use x="159.033203" xlink:href="#DejaVuSans-48"/>
      </g>
     </g>
    </g>
    <g id="xtick_8">
     <g id="line2d_10">
      <g>
       <use style="stroke:#000000;stroke-width:0.8;" x="523.081437" xlink:href="#m3c86cb9166" y="525.24"/>
      </g>
     </g>
     <g id="text_10">
      <!-- 2.25 -->
      <g transform="translate(507.4955 542.877813)scale(0.14 -0.14)">
       <use xlink:href="#DejaVuSans-50"/>
       <use x="63.623047" xlink:href="#DejaVuSans-46"/>
       <use x="95.410156" xlink:href="#DejaVuSans-50"/>
       <use x="159.033203" xlink:href="#DejaVuSans-53"/>
      </g>
     </g>
    </g>
   </g>
   <g id="line2d_11">
    <path clip-path="url(#p46328cf214)" d="M 310.234897 525.24 
L 310.234897 402.93 
" style="fill:none;stroke:#ff6384;stroke-dasharray:5.55,2.4;stroke-dashoffset:0;stroke-opacity:0.8;stroke-width:1.5;"/>
   </g>
   <g id="line2d_12">
    <path clip-path="url(#p46328cf214)" d="M 291.375077 525.24 
L 291.375077 402.93 
" style="fill:none;stroke:#36a2eb;stroke-dasharray:5.55,2.4;stroke-dashoffset:0;stroke-opacity:0.8;stroke-width:1.5;"/>
   </g>
   <g id="patch_10">
    <path d="M 50.871608 525.24 
L 553.071608 525.24 
" style="fill:none;stroke:#000000;stroke-linecap:square;stroke-linejoin:miter;stroke-width:0.8;"/>
   </g>
  </g>
 </g>
 <defs>
  <clipPath id="p7c2d2708ac">
   <rect height="366.93" width="502.2" x="50.871608" y="36"/>
  </clipPath>
  <clipPath id="p46328cf214">
   <rect height="122.31" width="502.2" x="50.871608" y="402.93"/>
  </clipPath>
 </defs>
</svg>
