<?xml version="1.0" encoding="utf-8" standalone="no"?>
<!DOCTYPE svg PUBLIC "-//W3C//DTD SVG 1.1//EN"
  "http://www.w3.org/Graphics/SVG/1.1/DTD/svg11.dtd">
<!-- Created with matplotlib (https://matplotlib.org/) -->
<svg height="581.789375pt" version="1.1" viewBox="0 0 574.2 581.789375" width="574.2pt" xmlns="http://www.w3.org/2000/svg" xmlns:xlink="http://www.w3.org/1999/xlink">
 <defs>
  <style type="text/css">
*{stroke-linecap:butt;stroke-linejoin:round;}
  </style>
 </defs>
 <g id="figure_1">
  <g id="patch_1">
   <path d="M 0 581.789375 
L 574.2 581.789375 
L 574.2 0 
L 0 0 
z
" style="fill:none;"/>
  </g>
  <g id="axes_1">
   <g id="patch_2">
    <path d="M 36 402.93 
L 538.2 402.93 
L 538.2 36 
L 36 36 
z
" style="fill:none;"/>
   </g>
   <g id="PolyCollection_1">
    <defs>
     <path d="M 93.189344 -195.538011 
L 93.189344 -195.650004 
L 97.453823 -195.692234 
L 101.718302 -195.749007 
L 105.98278 -195.8248 
L 110.247259 -195.925281 
L 114.511738 -196.057565 
L 118.776216 -196.230497 
L 123.040695 -196.454982 
L 127.305173 -196.744335 
L 131.569652 -197.114666 
L 135.834131 -197.585273 
L 140.098609 -198.179047 
L 144.363088 -198.922859 
L 148.627566 -199.847921 
L 152.892045 -200.990079 
L 157.156524 -202.390029 
L 161.421002 -204.093399 
L 165.685481 -206.150691 
L 169.94996 -208.617009 
L 174.214438 -211.551575 
L 178.478917 -215.016962 
L 182.743395 -219.078053 
L 187.007874 -223.800667 
L 191.272353 -229.249878 
L 195.536831 -235.488004 
L 199.80131 -242.572312 
L 204.065788 -250.552459 
L 208.330267 -259.467747 
L 212.594746 -269.344261 
L 216.859224 -280.192004 
L 221.123703 -292.002137 
L 225.388182 -304.744465 
L 229.65266 -318.365297 
L 233.917139 -332.785841 
L 238.181617 -347.901251 
L 242.446096 -363.580456 
L 246.710575 -379.666871 
L 250.975053 -395.980052 
L 255.239532 -412.31833 
L 259.50401 -428.4624 
L 263.768489 -444.179822 
L 268.032968 -459.230303 
L 272.297446 -473.371627 
L 276.561925 -486.366018 
L 280.826404 -497.986726 
L 285.090882 -508.02457 
L 289.355361 -516.294181 
L 293.619839 -522.639693 
L 297.884318 -526.939623 
L 302.148797 -529.110739 
L 306.413275 -529.110739 
L 310.677754 -526.939623 
L 314.942232 -522.639693 
L 319.206711 -516.294181 
L 323.47119 -508.02457 
L 327.735668 -497.986726 
L 332.000147 -486.366018 
L 336.264625 -473.371627 
L 340.529104 -459.230303 
L 344.793583 -444.179822 
L 349.058061 -428.4624 
L 353.32254 -412.31833 
L 357.587019 -395.980052 
L 361.851497 -379.666871 
L 366.115976 -363.580456 
L 370.380454 -347.901251 
L 374.644933 -332.785841 
L 378.909412 -318.365297 
L 383.17389 -304.744465 
L 387.438369 -292.002137 
L 391.702847 -280.192004 
L 395.967326 -269.344261 
L 400.231805 -259.467747 
L 404.496283 -250.552459 
L 408.760762 -242.572312 
L 413.025241 -235.488004 
L 417.289719 -229.249878 
L 421.554198 -223.800667 
L 425.818676 -219.078053 
L 430.083155 -215.016962 
L 434.347634 -211.551575 
L 438.612112 -208.617009 
L 442.876591 -206.150691 
L 447.141069 -204.093399 
L 451.405548 -202.390029 
L 455.670027 -200.990079 
L 459.934505 -199.847921 
L 464.198984 -198.922859 
L 468.463463 -198.179047 
L 472.727941 -197.585273 
L 476.99242 -197.114666 
L 481.256898 -196.744335 
L 485.521377 -196.454982 
L 489.785856 -196.230497 
L 494.050334 -196.057565 
L 498.314813 -195.925281 
L 502.579291 -195.8248 
L 506.84377 -195.749007 
L 511.108249 -195.692234 
L 515.372727 -195.650004 
L 515.372727 -195.538011 
L 515.372727 -195.538011 
L 511.108249 -195.538011 
L 506.84377 -195.538011 
L 502.579291 -195.538011 
L 498.314813 -195.538011 
L 494.050334 -195.538011 
L 489.785856 -195.538011 
L 485.521377 -195.538011 
L 481.256898 -195.538011 
L 476.99242 -195.538011 
L 472.727941 -195.538011 
L 468.463463 -195.538011 
L 464.198984 -195.538011 
L 459.934505 -195.538011 
L 455.670027 -195.538011 
L 451.405548 -195.538011 
L 447.141069 -195.538011 
L 442.876591 -195.538011 
L 438.612112 -195.538011 
L 434.347634 -195.538011 
L 430.083155 -195.538011 
L 425.818676 -195.538011 
L 421.554198 -195.538011 
L 417.289719 -195.538011 
L 413.025241 -195.538011 
L 408.760762 -195.538011 
L 404.496283 -195.538011 
L 400.231805 -195.538011 
L 395.967326 -195.538011 
L 391.702847 -195.538011 
L 387.438369 -195.538011 
L 383.17389 -195.538011 
L 378.909412 -195.538011 
L 374.644933 -195.538011 
L 370.380454 -195.538011 
L 366.115976 -195.538011 
L 361.851497 -195.538011 
L 357.587019 -195.538011 
L 353.32254 -195.538011 
L 349.058061 -195.538011 
L 344.793583 -195.538011 
L 340.529104 -195.538011 
L 336.264625 -195.538011 
L 332.000147 -195.538011 
L 327.735668 -195.538011 
L 323.47119 -195.538011 
L 319.206711 -195.538011 
L 314.942232 -195.538011 
L 310.677754 -195.538011 
L 306.413275 -195.538011 
L 302.148797 -195.538011 
L 297.884318 -195.538011 
L 293.619839 -195.538011 
L 289.355361 -195.538011 
L 285.090882 -195.538011 
L 280.826404 -195.538011 
L 276.561925 -195.538011 
L 272.297446 -195.538011 
L 268.032968 -195.538011 
L 263.768489 -195.538011 
L 259.50401 -195.538011 
L 255.239532 -195.538011 
L 250.975053 -195.538011 
L 246.710575 -195.538011 
L 242.446096 -195.538011 
L 238.181617 -195.538011 
L 233.917139 -195.538011 
L 229.65266 -195.538011 
L 225.388182 -195.538011 
L 221.123703 -195.538011 
L 216.859224 -195.538011 
L 212.594746 -195.538011 
L 208.330267 -195.538011 
L 204.065788 -195.538011 
L 199.80131 -195.538011 
L 195.536831 -195.538011 
L 191.272353 -195.538011 
L 187.007874 -195.538011 
L 182.743395 -195.538011 
L 178.478917 -195.538011 
L 174.214438 -195.538011 
L 169.94996 -195.538011 
L 165.685481 -195.538011 
L 161.421002 -195.538011 
L 157.156524 -195.538011 
L 152.892045 -195.538011 
L 148.627566 -195.538011 
L 144.363088 -195.538011 
L 140.098609 -195.538011 
L 135.834131 -195.538011 
L 131.569652 -195.538011 
L 127.305173 -195.538011 
L 123.040695 -195.538011 
L 118.776216 -195.538011 
L 114.511738 -195.538011 
L 110.247259 -195.538011 
L 105.98278 -195.538011 
L 101.718302 -195.538011 
L 97.453823 -195.538011 
L 93.189344 -195.538011 
z
" id="mbd4e1e9829" style="stroke:#ff6384;stroke-opacity:0.5;"/>
    </defs>
    <g clip-path="url(#pfab5908f67)">
     <use style="fill:#ff6384;fill-opacity:0.5;stroke:#ff6384;stroke-opacity:0.5;" x="0" xlink:href="#mbd4e1e9829" y="581.789375"/>
    </g>
   </g>
   <g id="PolyCollection_2">
    <defs>
     <path d="M 58.827273 -195.538011 
L 58.827273 -195.649479 
L 63.11182 -195.691512 
L 67.396366 -195.748019 
L 71.680913 -195.823456 
L 75.96546 -195.923467 
L 80.250007 -196.055131 
L 84.534554 -196.227253 
L 88.819101 -196.450687 
L 93.103648 -196.738685 
L 97.388194 -197.107281 
L 101.672741 -197.575684 
L 105.957288 -198.166676 
L 110.241835 -198.907005 
L 114.526382 -199.827734 
L 118.810929 -200.964543 
L 123.095476 -202.357935 
L 127.380022 -204.053327 
L 131.664569 -206.100983 
L 135.949116 -208.555749 
L 140.233663 -211.476569 
L 144.51821 -214.925725 
L 148.802757 -218.967795 
L 153.087304 -223.668289 
L 157.37185 -229.091976 
L 161.656397 -235.300884 
L 165.940944 -242.35201 
L 170.225491 -250.294779 
L 174.510038 -259.168308 
L 178.794585 -268.998562 
L 183.079132 -279.795496 
L 187.363679 -291.550312 
L 191.648225 -304.232957 
L 195.932772 -317.789991 
L 200.217319 -332.142991 
L 204.501866 -347.187602 
L 208.786413 -362.793367 
L 213.07096 -378.804436 
L 217.355507 -395.041209 
L 221.640053 -411.30296 
L 225.9246 -427.371413 
L 230.209147 -443.015217 
L 234.493694 -457.995203 
L 238.778241 -472.070291 
L 243.062788 -485.003818 
L 247.347335 -496.570097 
L 251.631881 -506.560924 
L 255.916428 -514.791802 
L 260.200975 -521.107593 
L 264.485522 -525.387382 
L 268.770069 -527.548329 
L 273.054616 -527.548329 
L 277.339163 -525.387382 
L 281.623709 -521.107593 
L 285.908256 -514.791802 
L 290.192803 -506.560924 
L 294.47735 -496.570097 
L 298.761897 -485.003818 
L 303.046444 -472.070291 
L 307.330991 -457.995203 
L 311.615537 -443.015217 
L 315.900084 -427.371413 
L 320.184631 -411.30296 
L 324.469178 -395.041209 
L 328.753725 -378.804436 
L 333.038272 -362.793367 
L 337.322819 -347.187602 
L 341.607365 -332.142991 
L 345.891912 -317.789991 
L 350.176459 -304.232957 
L 354.461006 -291.550312 
L 358.745553 -279.795496 
L 363.0301 -268.998562 
L 367.314647 -259.168308 
L 371.599193 -250.294779 
L 375.88374 -242.35201 
L 380.168287 -235.300884 
L 384.452834 -229.091976 
L 388.737381 -223.668289 
L 393.021928 -218.967795 
L 397.306475 -214.925725 
L 401.591021 -211.476569 
L 405.875568 -208.555749 
L 410.160115 -206.100983 
L 414.444662 -204.053327 
L 418.729209 -202.357935 
L 423.013756 -200.964543 
L 427.298303 -199.827734 
L 431.582849 -198.907005 
L 435.867396 -198.166676 
L 440.151943 -197.575684 
L 444.43649 -197.107281 
L 448.721037 -196.738685 
L 453.005584 -196.450687 
L 457.290131 -196.227253 
L 461.574678 -196.055131 
L 465.859224 -195.923467 
L 470.143771 -195.823456 
L 474.428318 -195.748019 
L 478.712865 -195.691512 
L 482.997412 -195.649479 
L 482.997412 -195.538011 
L 482.997412 -195.538011 
L 478.712865 -195.538011 
L 474.428318 -195.538011 
L 470.143771 -195.538011 
L 465.859224 -195.538011 
L 461.574678 -195.538011 
L 457.290131 -195.538011 
L 453.005584 -195.538011 
L 448.721037 -195.538011 
L 444.43649 -195.538011 
L 440.151943 -195.538011 
L 435.867396 -195.538011 
L 431.582849 -195.538011 
L 427.298303 -195.538011 
L 423.013756 -195.538011 
L 418.729209 -195.538011 
L 414.444662 -195.538011 
L 410.160115 -195.538011 
L 405.875568 -195.538011 
L 401.591021 -195.538011 
L 397.306475 -195.538011 
L 393.021928 -195.538011 
L 388.737381 -195.538011 
L 384.452834 -195.538011 
L 380.168287 -195.538011 
L 375.88374 -195.538011 
L 371.599193 -195.538011 
L 367.314647 -195.538011 
L 363.0301 -195.538011 
L 358.745553 -195.538011 
L 354.461006 -195.538011 
L 350.176459 -195.538011 
L 345.891912 -195.538011 
L 341.607365 -195.538011 
L 337.322819 -195.538011 
L 333.038272 -195.538011 
L 328.753725 -195.538011 
L 324.469178 -195.538011 
L 320.184631 -195.538011 
L 315.900084 -195.538011 
L 311.615537 -195.538011 
L 307.330991 -195.538011 
L 303.046444 -195.538011 
L 298.761897 -195.538011 
L 294.47735 -195.538011 
L 290.192803 -195.538011 
L 285.908256 -195.538011 
L 281.623709 -195.538011 
L 277.339163 -195.538011 
L 273.054616 -195.538011 
L 268.770069 -195.538011 
L 264.485522 -195.538011 
L 260.200975 -195.538011 
L 255.916428 -195.538011 
L 251.631881 -195.538011 
L 247.347335 -195.538011 
L 243.062788 -195.538011 
L 238.778241 -195.538011 
L 234.493694 -195.538011 
L 230.209147 -195.538011 
L 225.9246 -195.538011 
L 221.640053 -195.538011 
L 217.355507 -195.538011 
L 213.07096 -195.538011 
L 208.786413 -195.538011 
L 204.501866 -195.538011 
L 200.217319 -195.538011 
L 195.932772 -195.538011 
L 191.648225 -195.538011 
L 187.363679 -195.538011 
L 183.079132 -195.538011 
L 178.794585 -195.538011 
L 174.510038 -195.538011 
L 170.225491 -195.538011 
L 165.940944 -195.538011 
L 161.656397 -195.538011 
L 157.37185 -195.538011 
L 153.087304 -195.538011 
L 148.802757 -195.538011 
L 144.51821 -195.538011 
L 140.233663 -195.538011 
L 135.949116 -195.538011 
L 131.664569 -195.538011 
L 127.380022 -195.538011 
L 123.095476 -195.538011 
L 118.810929 -195.538011 
L 114.526382 -195.538011 
L 110.241835 -195.538011 
L 105.957288 -195.538011 
L 101.672741 -195.538011 
L 97.388194 -195.538011 
L 93.103648 -195.538011 
L 88.819101 -195.538011 
L 84.534554 -195.538011 
L 80.250007 -195.538011 
L 75.96546 -195.538011 
L 71.680913 -195.538011 
L 67.396366 -195.538011 
L 63.11182 -195.538011 
L 58.827273 -195.538011 
z
" id="m2a3d30b1ff" style="stroke:#36a2eb;stroke-opacity:0.5;"/>
    </defs>
    <g clip-path="url(#pfab5908f67)">
     <use style="fill:#36a2eb;fill-opacity:0.5;stroke:#36a2eb;stroke-opacity:0.5;" x="0" xlink:href="#m2a3d30b1ff" y="581.789375"/>
    </g>
   </g>
   <g id="line2d_1">
    <path clip-path="url(#pfab5908f67)" d="M 93.189344 386.139371 
L 97.453823 386.097141 
L 101.718302 386.040368 
L 105.98278 385.964575 
L 110.247259 385.864094 
L 114.511738 385.73181 
L 118.776216 385.558878 
L 123.040695 385.334393 
L 127.305173 385.04504 
L 131.569652 384.674709 
L 135.834131 384.204102 
L 140.098609 383.610328 
L 144.363088 382.866516 
L 148.627566 381.941454 
L 152.892045 380.799296 
L 157.156524 379.399346 
L 161.421002 377.695976 
L 165.685481 375.638684 
L 169.94996 373.172366 
L 174.214438 370.2378 
L 178.478917 366.772413 
L 182.743395 362.711322 
L 187.007874 357.988708 
L 191.272353 352.539497 
L 195.536831 346.301371 
L 199.80131 339.217063 
L 204.065788 331.236916 
L 208.330267 322.321628 
L 212.594746 312.445114 
L 216.859224 301.597371 
L 221.123703 289.787238 
L 225.388182 277.04491 
L 229.65266 263.424078 
L 233.917139 249.003534 
L 238.181617 233.888124 
L 242.446096 218.208919 
L 246.710575 202.122504 
L 250.975053 185.809323 
L 255.239532 169.471045 
L 259.50401 153.326975 
L 263.768489 137.609553 
L 268.032968 122.559072 
L 272.297446 108.417748 
L 276.561925 95.423357 
L 280.826404 83.802649 
L 285.090882 73.764805 
L 289.355361 65.495194 
L 293.619839 59.149682 
L 297.884318 54.849752 
L 302.148797 52.678636 
L 306.413275 52.678636 
L 310.677754 54.849752 
L 314.942232 59.149682 
L 319.206711 65.495194 
L 323.47119 73.764805 
L 327.735668 83.802649 
L 332.000147 95.423357 
L 336.264625 108.417748 
L 340.529104 122.559072 
L 344.793583 137.609553 
L 349.058061 153.326975 
L 353.32254 169.471045 
L 357.587019 185.809323 
L 361.851497 202.122504 
L 366.115976 218.208919 
L 370.380454 233.888124 
L 374.644933 249.003534 
L 378.909412 263.424078 
L 383.17389 277.04491 
L 387.438369 289.787238 
L 391.702847 301.597371 
L 395.967326 312.445114 
L 400.231805 322.321628 
L 404.496283 331.236916 
L 408.760762 339.217063 
L 413.025241 346.301371 
L 417.289719 352.539497 
L 421.554198 357.988708 
L 425.818676 362.711322 
L 430.083155 366.772413 
L 434.347634 370.2378 
L 438.612112 373.172366 
L 442.876591 375.638684 
L 447.141069 377.695976 
L 451.405548 379.399346 
L 455.670027 380.799296 
L 459.934505 381.941454 
L 464.198984 382.866516 
L 468.463463 383.610328 
L 472.727941 384.204102 
L 476.99242 384.674709 
L 481.256898 385.04504 
L 485.521377 385.334393 
L 489.785856 385.558878 
L 494.050334 385.73181 
L 498.314813 385.864094 
L 502.579291 385.964575 
L 506.84377 386.040368 
L 511.108249 386.097141 
L 515.372727 386.139371 
" style="fill:none;stroke:#ff6384;stroke-linecap:square;"/>
   </g>
   <g id="line2d_2">
    <path clip-path="url(#pfab5908f67)" d="M 58.827273 386.139896 
L 63.11182 386.097863 
L 67.396366 386.041356 
L 71.680913 385.965919 
L 75.96546 385.865908 
L 80.250007 385.734244 
L 84.534554 385.562122 
L 88.819101 385.338688 
L 93.103648 385.05069 
L 97.388194 384.682094 
L 101.672741 384.213691 
L 105.957288 383.622699 
L 110.241835 382.88237 
L 114.526382 381.961641 
L 118.810929 380.824832 
L 123.095476 379.43144 
L 127.380022 377.736048 
L 131.664569 375.688392 
L 135.949116 373.233626 
L 140.233663 370.312806 
L 144.51821 366.86365 
L 148.802757 362.82158 
L 153.087304 358.121086 
L 157.37185 352.697399 
L 161.656397 346.488491 
L 165.940944 339.437365 
L 170.225491 331.494596 
L 174.510038 322.621067 
L 178.794585 312.790813 
L 183.079132 301.993879 
L 187.363679 290.239063 
L 191.648225 277.556418 
L 195.932772 263.999384 
L 200.217319 249.646384 
L 204.501866 234.601773 
L 208.786413 218.996008 
L 213.07096 202.984939 
L 217.355507 186.748166 
L 221.640053 170.486415 
L 225.9246 154.417962 
L 230.209147 138.774158 
L 234.493694 123.794172 
L 238.778241 109.719084 
L 243.062788 96.785557 
L 247.347335 85.219278 
L 251.631881 75.228451 
L 255.916428 66.997573 
L 260.200975 60.681782 
L 264.485522 56.401993 
L 268.770069 54.241046 
L 273.054616 54.241046 
L 277.339163 56.401993 
L 281.623709 60.681782 
L 285.908256 66.997573 
L 290.192803 75.228451 
L 294.47735 85.219278 
L 298.761897 96.785557 
L 303.046444 109.719084 
L 307.330991 123.794172 
L 311.615537 138.774158 
L 315.900084 154.417962 
L 320.184631 170.486415 
L 324.469178 186.748166 
L 328.753725 202.984939 
L 333.038272 218.996008 
L 337.322819 234.601773 
L 341.607365 249.646384 
L 345.891912 263.999384 
L 350.176459 277.556418 
L 354.461006 290.239063 
L 358.745553 301.993879 
L 363.0301 312.790813 
L 367.314647 322.621067 
L 371.599193 331.494596 
L 375.88374 339.437365 
L 380.168287 346.488491 
L 384.452834 352.697399 
L 388.737381 358.121086 
L 393.021928 362.82158 
L 397.306475 366.86365 
L 401.591021 370.312806 
L 405.875568 373.233626 
L 410.160115 375.688392 
L 414.444662 377.736048 
L 418.729209 379.43144 
L 423.013756 380.824832 
L 427.298303 381.961641 
L 431.582849 382.88237 
L 435.867396 383.622699 
L 440.151943 384.213691 
L 444.43649 384.682094 
L 448.721037 385.05069 
L 453.005584 385.338688 
L 457.290131 385.562122 
L 461.574678 385.734244 
L 465.859224 385.865908 
L 470.143771 385.965919 
L 474.428318 386.041356 
L 478.712865 386.097863 
L 482.997412 386.139896 
" style="fill:none;stroke:#36a2eb;stroke-linecap:square;"/>
   </g>
   <g id="patch_3">
    <path d="M 36 402.93 
L 538.2 402.93 
" style="fill:none;stroke:#000000;stroke-linecap:square;stroke-linejoin:miter;stroke-width:0.8;"/>
   </g>
   <g id="legend_1">
    <g id="patch_4">
     <path d="M 441.707188 88.29875 
L 528.4 88.29875 
Q 531.2 88.29875 531.2 85.49875 
L 531.2 45.8 
Q 531.2 43 528.4 43 
L 441.707188 43 
Q 438.907188 43 438.907188 45.8 
L 438.907188 85.49875 
Q 438.907188 88.29875 441.707188 88.29875 
z
" style="fill:#ffffff;opacity:0.8;stroke:#cccccc;stroke-linejoin:miter;"/>
    </g>
    <g id="patch_5">
     <path d="M 444.507188 59.237813 
L 472.507188 59.237813 
L 472.507188 49.437813 
L 444.507188 49.437813 
z
" style="fill:#ff6384;opacity:0.5;stroke:#ff6384;stroke-linejoin:miter;"/>
    </g>
    <g id="text_1">
     <!-- base -->
     <defs>
      <path d="M 48.6875 27.296875 
Q 48.6875 37.203125 44.609375 42.84375 
Q 40.53125 48.484375 33.40625 48.484375 
Q 26.265625 48.484375 22.1875 42.84375 
Q 18.109375 37.203125 18.109375 27.296875 
Q 18.109375 17.390625 22.1875 11.75 
Q 26.265625 6.109375 33.40625 6.109375 
Q 40.53125 6.109375 44.609375 11.75 
Q 48.6875 17.390625 48.6875 27.296875 
z
M 18.109375 46.390625 
Q 20.953125 51.265625 25.265625 53.625 
Q 29.59375 56 35.59375 56 
Q 45.5625 56 51.78125 48.09375 
Q 58.015625 40.1875 58.015625 27.296875 
Q 58.015625 14.40625 51.78125 6.484375 
Q 45.5625 -1.421875 35.59375 -1.421875 
Q 29.59375 -1.421875 25.265625 0.953125 
Q 20.953125 3.328125 18.109375 8.203125 
L 18.109375 0 
L 9.078125 0 
L 9.078125 75.984375 
L 18.109375 75.984375 
z
" id="DejaVuSans-98"/>
      <path d="M 34.28125 27.484375 
Q 23.390625 27.484375 19.1875 25 
Q 14.984375 22.515625 14.984375 16.5 
Q 14.984375 11.71875 18.140625 8.90625 
Q 21.296875 6.109375 26.703125 6.109375 
Q 34.1875 6.109375 38.703125 11.40625 
Q 43.21875 16.703125 43.21875 25.484375 
L 43.21875 27.484375 
z
M 52.203125 31.203125 
L 52.203125 0 
L 43.21875 0 
L 43.21875 8.296875 
Q 40.140625 3.328125 35.546875 0.953125 
Q 30.953125 -1.421875 24.3125 -1.421875 
Q 15.921875 -1.421875 10.953125 3.296875 
Q 6 8.015625 6 15.921875 
Q 6 25.140625 12.171875 29.828125 
Q 18.359375 34.515625 30.609375 34.515625 
L 43.21875 34.515625 
L 43.21875 35.40625 
Q 43.21875 41.609375 39.140625 45 
Q 35.0625 48.390625 27.6875 48.390625 
Q 23 48.390625 18.546875 47.265625 
Q 14.109375 46.140625 10.015625 43.890625 
L 10.015625 52.203125 
Q 14.9375 54.109375 19.578125 55.046875 
Q 24.21875 56 28.609375 56 
Q 40.484375 56 46.34375 49.84375 
Q 52.203125 43.703125 52.203125 31.203125 
z
" id="DejaVuSans-97"/>
      <path d="M 44.28125 53.078125 
L 44.28125 44.578125 
Q 40.484375 46.53125 36.375 47.5 
Q 32.28125 48.484375 27.875 48.484375 
Q 21.1875 48.484375 17.84375 46.4375 
Q 14.5 44.390625 14.5 40.28125 
Q 14.5 37.15625 16.890625 35.375 
Q 19.28125 33.59375 26.515625 31.984375 
L 29.59375 31.296875 
Q 39.15625 29.25 43.1875 25.515625 
Q 47.21875 21.78125 47.21875 15.09375 
Q 47.21875 7.46875 41.1875 3.015625 
Q 35.15625 -1.421875 24.609375 -1.421875 
Q 20.21875 -1.421875 15.453125 -0.5625 
Q 10.6875 0.296875 5.421875 2 
L 5.421875 11.28125 
Q 10.40625 8.6875 15.234375 7.390625 
Q 20.0625 6.109375 24.8125 6.109375 
Q 31.15625 6.109375 34.5625 8.28125 
Q 37.984375 10.453125 37.984375 14.40625 
Q 37.984375 18.0625 35.515625 20.015625 
Q 33.0625 21.96875 24.703125 23.78125 
L 21.578125 24.515625 
Q 13.234375 26.265625 9.515625 29.90625 
Q 5.8125 33.546875 5.8125 39.890625 
Q 5.8125 47.609375 11.28125 51.796875 
Q 16.75 56 26.8125 56 
Q 31.78125 56 36.171875 55.265625 
Q 40.578125 54.546875 44.28125 53.078125 
z
" id="DejaVuSans-115"/>
      <path d="M 56.203125 29.59375 
L 56.203125 25.203125 
L 14.890625 25.203125 
Q 15.484375 15.921875 20.484375 11.0625 
Q 25.484375 6.203125 34.421875 6.203125 
Q 39.59375 6.203125 44.453125 7.46875 
Q 49.3125 8.734375 54.109375 11.28125 
L 54.109375 2.78125 
Q 49.265625 0.734375 44.1875 -0.34375 
Q 39.109375 -1.421875 33.890625 -1.421875 
Q 20.796875 -1.421875 13.15625 6.1875 
Q 5.515625 13.8125 5.515625 26.8125 
Q 5.515625 40.234375 12.765625 48.109375 
Q 20.015625 56 32.328125 56 
Q 43.359375 56 49.78125 48.890625 
Q 56.203125 41.796875 56.203125 29.59375 
z
M 47.21875 32.234375 
Q 47.125 39.59375 43.09375 43.984375 
Q 39.0625 48.390625 32.421875 48.390625 
Q 24.90625 48.390625 20.390625 44.140625 
Q 15.875 39.890625 15.1875 32.171875 
z
" id="DejaVuSans-101"/>
     </defs>
     <g transform="translate(483.707188 59.237813)scale(0.14 -0.14)">
      <use xlink:href="#DejaVuSans-98"/>
      <use x="63.476562" xlink:href="#DejaVuSans-97"/>
      <use x="124.755859" xlink:href="#DejaVuSans-115"/>
      <use x="176.855469" xlink:href="#DejaVuSans-101"/>
     </g>
    </g>
    <g id="patch_6">
     <path d="M 444.507188 79.787188 
L 472.507188 79.787188 
L 472.507188 69.987188 
L 444.507188 69.987188 
z
" style="fill:#36a2eb;opacity:0.5;stroke:#36a2eb;stroke-linejoin:miter;"/>
    </g>
    <g id="text_2">
     <!-- osago -->
     <defs>
      <path d="M 30.609375 48.390625 
Q 23.390625 48.390625 19.1875 42.75 
Q 14.984375 37.109375 14.984375 27.296875 
Q 14.984375 17.484375 19.15625 11.84375 
Q 23.34375 6.203125 30.609375 6.203125 
Q 37.796875 6.203125 41.984375 11.859375 
Q 46.1875 17.53125 46.1875 27.296875 
Q 46.1875 37.015625 41.984375 42.703125 
Q 37.796875 48.390625 30.609375 48.390625 
z
M 30.609375 56 
Q 42.328125 56 49.015625 48.375 
Q 55.71875 40.765625 55.71875 27.296875 
Q 55.71875 13.875 49.015625 6.21875 
Q 42.328125 -1.421875 30.609375 -1.421875 
Q 18.84375 -1.421875 12.171875 6.21875 
Q 5.515625 13.875 5.515625 27.296875 
Q 5.515625 40.765625 12.171875 48.375 
Q 18.84375 56 30.609375 56 
z
" id="DejaVuSans-111"/>
      <path d="M 45.40625 27.984375 
Q 45.40625 37.75 41.375 43.109375 
Q 37.359375 48.484375 30.078125 48.484375 
Q 22.859375 48.484375 18.828125 43.109375 
Q 14.796875 37.75 14.796875 27.984375 
Q 14.796875 18.265625 18.828125 12.890625 
Q 22.859375 7.515625 30.078125 7.515625 
Q 37.359375 7.515625 41.375 12.890625 
Q 45.40625 18.265625 45.40625 27.984375 
z
M 54.390625 6.78125 
Q 54.390625 -7.171875 48.1875 -13.984375 
Q 42 -20.796875 29.203125 -20.796875 
Q 24.46875 -20.796875 20.265625 -20.09375 
Q 16.0625 -19.390625 12.109375 -17.921875 
L 12.109375 -9.1875 
Q 16.0625 -11.328125 19.921875 -12.34375 
Q 23.78125 -13.375 27.78125 -13.375 
Q 36.625 -13.375 41.015625 -8.765625 
Q 45.40625 -4.15625 45.40625 5.171875 
L 45.40625 9.625 
Q 42.625 4.78125 38.28125 2.390625 
Q 33.9375 0 27.875 0 
Q 17.828125 0 11.671875 7.65625 
Q 5.515625 15.328125 5.515625 27.984375 
Q 5.515625 40.671875 11.671875 48.328125 
Q 17.828125 56 27.875 56 
Q 33.9375 56 38.28125 53.609375 
Q 42.625 51.21875 45.40625 46.390625 
L 45.40625 54.6875 
L 54.390625 54.6875 
z
" id="DejaVuSans-103"/>
     </defs>
     <g transform="translate(483.707188 79.787188)scale(0.14 -0.14)">
      <use xlink:href="#DejaVuSans-111"/>
      <use x="61.181641" xlink:href="#DejaVuSans-115"/>
      <use x="113.28125" xlink:href="#DejaVuSans-97"/>
      <use x="174.560547" xlink:href="#DejaVuSans-103"/>
      <use x="238.037109" xlink:href="#DejaVuSans-111"/>
     </g>
    </g>
   </g>
  </g>
  <g id="axes_2">
   <g id="patch_7">
    <path d="M 36 525.24 
L 538.2 525.24 
L 538.2 402.93 
L 36 402.93 
z
" style="fill:none;"/>
   </g>
   <g id="patch_8">
    <path clip-path="url(#pad124a8013)" d="M 200.846107 519.680455 
L 407.715965 519.680455 
L 407.715965 482.616818 
L 200.846107 482.616818 
z
" style="fill:#ff6384;opacity:0.5;"/>
   </g>
   <g id="patch_9">
    <path clip-path="url(#pad124a8013)" d="M 166.990658 445.553182 
L 374.834026 445.553182 
L 374.834026 408.489545 
L 166.990658 408.489545 
z
" style="fill:#36a2eb;opacity:0.5;"/>
   </g>
   <g id="matplotlib.axis_1">
    <g id="xtick_1">
     <g id="line2d_3">
      <defs>
       <path d="M 0 0 
L 0 3.5 
" id="mf5cfac7d2d" style="stroke:#000000;stroke-width:0.8;"/>
      </defs>
      <g>
       <use style="stroke:#000000;stroke-width:0.8;" x="72.084136" xlink:href="#mf5cfac7d2d" y="525.24"/>
      </g>
     </g>
     <g id="text_3">
      <!-- 3.6 -->
      <defs>
       <path d="M 40.578125 39.3125 
Q 47.65625 37.796875 51.625 33 
Q 55.609375 28.21875 55.609375 21.1875 
Q 55.609375 10.40625 48.1875 4.484375 
Q 40.765625 -1.421875 27.09375 -1.421875 
Q 22.515625 -1.421875 17.65625 -0.515625 
Q 12.796875 0.390625 7.625 2.203125 
L 7.625 11.71875 
Q 11.71875 9.328125 16.59375 8.109375 
Q 21.484375 6.890625 26.8125 6.890625 
Q 36.078125 6.890625 40.9375 10.546875 
Q 45.796875 14.203125 45.796875 21.1875 
Q 45.796875 27.640625 41.28125 31.265625 
Q 36.765625 34.90625 28.71875 34.90625 
L 20.21875 34.90625 
L 20.21875 43.015625 
L 29.109375 43.015625 
Q 36.375 43.015625 40.234375 45.921875 
Q 44.09375 48.828125 44.09375 54.296875 
Q 44.09375 59.90625 40.109375 62.90625 
Q 36.140625 65.921875 28.71875 65.921875 
Q 24.65625 65.921875 20.015625 65.03125 
Q 15.375 64.15625 9.8125 62.3125 
L 9.8125 71.09375 
Q 15.4375 72.65625 20.34375 73.4375 
Q 25.25 74.21875 29.59375 74.21875 
Q 40.828125 74.21875 47.359375 69.109375 
Q 53.90625 64.015625 53.90625 55.328125 
Q 53.90625 49.265625 50.4375 45.09375 
Q 46.96875 40.921875 40.578125 39.3125 
z
" id="DejaVuSans-51"/>
       <path d="M 10.6875 12.40625 
L 21 12.40625 
L 21 0 
L 10.6875 0 
z
" id="DejaVuSans-46"/>
       <path d="M 33.015625 40.375 
Q 26.375 40.375 22.484375 35.828125 
Q 18.609375 31.296875 18.609375 23.390625 
Q 18.609375 15.53125 22.484375 10.953125 
Q 26.375 6.390625 33.015625 6.390625 
Q 39.65625 6.390625 43.53125 10.953125 
Q 47.40625 15.53125 47.40625 23.390625 
Q 47.40625 31.296875 43.53125 35.828125 
Q 39.65625 40.375 33.015625 40.375 
z
M 52.59375 71.296875 
L 52.59375 62.3125 
Q 48.875 64.0625 45.09375 64.984375 
Q 41.3125 65.921875 37.59375 65.921875 
Q 27.828125 65.921875 22.671875 59.328125 
Q 17.53125 52.734375 16.796875 39.40625 
Q 19.671875 43.65625 24.015625 45.921875 
Q 28.375 48.1875 33.59375 48.1875 
Q 44.578125 48.1875 50.953125 41.515625 
Q 57.328125 34.859375 57.328125 23.390625 
Q 57.328125 12.15625 50.6875 5.359375 
Q 44.046875 -1.421875 33.015625 -1.421875 
Q 20.359375 -1.421875 13.671875 8.265625 
Q 6.984375 17.96875 6.984375 36.375 
Q 6.984375 53.65625 15.1875 63.9375 
Q 23.390625 74.21875 37.203125 74.21875 
Q 40.921875 74.21875 44.703125 73.484375 
Q 48.484375 72.75 52.59375 71.296875 
z
" id="DejaVuSans-54"/>
      </defs>
      <g transform="translate(60.951948 542.877813)scale(0.14 -0.14)">
       <use xlink:href="#DejaVuSans-51"/>
       <use x="63.623047" xlink:href="#DejaVuSans-46"/>
       <use x="95.410156" xlink:href="#DejaVuSans-54"/>
      </g>
     </g>
    </g>
    <g id="xtick_2">
     <g id="line2d_4">
      <g>
       <use style="stroke:#000000;stroke-width:0.8;" x="174.599323" xlink:href="#mf5cfac7d2d" y="525.24"/>
      </g>
     </g>
     <g id="text_4">
      <!-- 3.8 -->
      <defs>
       <path d="M 31.78125 34.625 
Q 24.75 34.625 20.71875 30.859375 
Q 16.703125 27.09375 16.703125 20.515625 
Q 16.703125 13.921875 20.71875 10.15625 
Q 24.75 6.390625 31.78125 6.390625 
Q 38.8125 6.390625 42.859375 10.171875 
Q 46.921875 13.96875 46.921875 20.515625 
Q 46.921875 27.09375 42.890625 30.859375 
Q 38.875 34.625 31.78125 34.625 
z
M 21.921875 38.8125 
Q 15.578125 40.375 12.03125 44.71875 
Q 8.5 49.078125 8.5 55.328125 
Q 8.5 64.0625 14.71875 69.140625 
Q 20.953125 74.21875 31.78125 74.21875 
Q 42.671875 74.21875 48.875 69.140625 
Q 55.078125 64.0625 55.078125 55.328125 
Q 55.078125 49.078125 51.53125 44.71875 
Q 48 40.375 41.703125 38.8125 
Q 48.828125 37.15625 52.796875 32.3125 
Q 56.78125 27.484375 56.78125 20.515625 
Q 56.78125 9.90625 50.3125 4.234375 
Q 43.84375 -1.421875 31.78125 -1.421875 
Q 19.734375 -1.421875 13.25 4.234375 
Q 6.78125 9.90625 6.78125 20.515625 
Q 6.78125 27.484375 10.78125 32.3125 
Q 14.796875 37.15625 21.921875 38.8125 
z
M 18.3125 54.390625 
Q 18.3125 48.734375 21.84375 45.5625 
Q 25.390625 42.390625 31.78125 42.390625 
Q 38.140625 42.390625 41.71875 45.5625 
Q 45.3125 48.734375 45.3125 54.390625 
Q 45.3125 60.0625 41.71875 63.234375 
Q 38.140625 66.40625 31.78125 66.40625 
Q 25.390625 66.40625 21.84375 63.234375 
Q 18.3125 60.0625 18.3125 54.390625 
z
" id="DejaVuSans-56"/>
      </defs>
      <g transform="translate(163.467136 542.877813)scale(0.14 -0.14)">
       <use xlink:href="#DejaVuSans-51"/>
       <use x="63.623047" xlink:href="#DejaVuSans-46"/>
       <use x="95.410156" xlink:href="#DejaVuSans-56"/>
      </g>
     </g>
    </g>
    <g id="xtick_3">
     <g id="line2d_5">
      <g>
       <use style="stroke:#000000;stroke-width:0.8;" x="277.114511" xlink:href="#mf5cfac7d2d" y="525.24"/>
      </g>
     </g>
     <g id="text_5">
      <!-- 4.0 -->
      <defs>
       <path d="M 37.796875 64.3125 
L 12.890625 25.390625 
L 37.796875 25.390625 
z
M 35.203125 72.90625 
L 47.609375 72.90625 
L 47.609375 25.390625 
L 58.015625 25.390625 
L 58.015625 17.1875 
L 47.609375 17.1875 
L 47.609375 0 
L 37.796875 0 
L 37.796875 17.1875 
L 4.890625 17.1875 
L 4.890625 26.703125 
z
" id="DejaVuSans-52"/>
       <path d="M 31.78125 66.40625 
Q 24.171875 66.40625 20.328125 58.90625 
Q 16.5 51.421875 16.5 36.375 
Q 16.5 21.390625 20.328125 13.890625 
Q 24.171875 6.390625 31.78125 6.390625 
Q 39.453125 6.390625 43.28125 13.890625 
Q 47.125 21.390625 47.125 36.375 
Q 47.125 51.421875 43.28125 58.90625 
Q 39.453125 66.40625 31.78125 66.40625 
z
M 31.78125 74.21875 
Q 44.046875 74.21875 50.515625 64.515625 
Q 56.984375 54.828125 56.984375 36.375 
Q 56.984375 17.96875 50.515625 8.265625 
Q 44.046875 -1.421875 31.78125 -1.421875 
Q 19.53125 -1.421875 13.0625 8.265625 
Q 6.59375 17.96875 6.59375 36.375 
Q 6.59375 54.828125 13.0625 64.515625 
Q 19.53125 74.21875 31.78125 74.21875 
z
" id="DejaVuSans-48"/>
      </defs>
      <g transform="translate(265.982324 542.877813)scale(0.14 -0.14)">
       <use xlink:href="#DejaVuSans-52"/>
       <use x="63.623047" xlink:href="#DejaVuSans-46"/>
       <use x="95.410156" xlink:href="#DejaVuSans-48"/>
      </g>
     </g>
    </g>
    <g id="xtick_4">
     <g id="line2d_6">
      <g>
       <use style="stroke:#000000;stroke-width:0.8;" x="379.629699" xlink:href="#mf5cfac7d2d" y="525.24"/>
      </g>
     </g>
     <g id="text_6">
      <!-- 4.2 -->
      <defs>
       <path d="M 19.1875 8.296875 
L 53.609375 8.296875 
L 53.609375 0 
L 7.328125 0 
L 7.328125 8.296875 
Q 12.9375 14.109375 22.625 23.890625 
Q 32.328125 33.6875 34.8125 36.53125 
Q 39.546875 41.84375 41.421875 45.53125 
Q 43.3125 49.21875 43.3125 52.78125 
Q 43.3125 58.59375 39.234375 62.25 
Q 35.15625 65.921875 28.609375 65.921875 
Q 23.96875 65.921875 18.8125 64.3125 
Q 13.671875 62.703125 7.8125 59.421875 
L 7.8125 69.390625 
Q 13.765625 71.78125 18.9375 73 
Q 24.125 74.21875 28.421875 74.21875 
Q 39.75 74.21875 46.484375 68.546875 
Q 53.21875 62.890625 53.21875 53.421875 
Q 53.21875 48.921875 51.53125 44.890625 
Q 49.859375 40.875 45.40625 35.40625 
Q 44.1875 33.984375 37.640625 27.21875 
Q 31.109375 20.453125 19.1875 8.296875 
z
" id="DejaVuSans-50"/>
      </defs>
      <g transform="translate(368.497511 542.877813)scale(0.14 -0.14)">
       <use xlink:href="#DejaVuSans-52"/>
       <use x="63.623047" xlink:href="#DejaVuSans-46"/>
       <use x="95.410156" xlink:href="#DejaVuSans-50"/>
      </g>
     </g>
    </g>
    <g id="xtick_5">
     <g id="line2d_7">
      <g>
       <use style="stroke:#000000;stroke-width:0.8;" x="482.144887" xlink:href="#mf5cfac7d2d" y="525.24"/>
      </g>
     </g>
     <g id="text_7">
      <!-- 4.4 -->
      <g transform="translate(471.012699 542.877813)scale(0.14 -0.14)">
       <use xlink:href="#DejaVuSans-52"/>
       <use x="63.623047" xlink:href="#DejaVuSans-46"/>
       <use x="95.410156" xlink:href="#DejaVuSans-52"/>
      </g>
     </g>
    </g>
   </g>
   <g id="line2d_8">
    <path clip-path="url(#pad124a8013)" d="M 304.281036 525.24 
L 304.281036 402.93 
" style="fill:none;stroke:#ff6384;stroke-dasharray:5.55,2.4;stroke-dashoffset:0;stroke-opacity:0.8;stroke-width:1.5;"/>
   </g>
   <g id="line2d_9">
    <path clip-path="url(#pad124a8013)" d="M 270.912342 525.24 
L 270.912342 402.93 
" style="fill:none;stroke:#36a2eb;stroke-dasharray:5.55,2.4;stroke-dashoffset:0;stroke-opacity:0.8;stroke-width:1.5;"/>
   </g>
   <g id="patch_10">
    <path d="M 36 525.24 
L 538.2 525.24 
" style="fill:none;stroke:#000000;stroke-linecap:square;stroke-linejoin:miter;stroke-width:0.8;"/>
   </g>
  </g>
 </g>
 <defs>
  <clipPath id="pfab5908f67">
   <rect height="366.93" width="502.2" x="36" y="36"/>
  </clipPath>
  <clipPath id="pad124a8013">
   <rect height="122.31" width="502.2" x="36" y="402.93"/>
  </clipPath>
 </defs>
</svg>
