<?xml version="1.0" encoding="utf-8" standalone="no"?>
<!DOCTYPE svg PUBLIC "-//W3C//DTD SVG 1.1//EN"
  "http://www.w3.org/Graphics/SVG/1.1/DTD/svg11.dtd">
<!-- Created with matplotlib (https://matplotlib.org/) -->
<svg height="581.789375pt" version="1.1" viewBox="0 0 574.2 581.789375" width="574.2pt" xmlns="http://www.w3.org/2000/svg" xmlns:xlink="http://www.w3.org/1999/xlink">
 <defs>
  <style type="text/css">
*{stroke-linecap:butt;stroke-linejoin:round;}
  </style>
 </defs>
 <g id="figure_1">
  <g id="patch_1">
   <path d="M 0 581.789375 
L 574.2 581.789375 
L 574.2 0 
L 0 0 
z
" style="fill:none;"/>
  </g>
  <g id="axes_1">
   <g id="patch_2">
    <path d="M 36 402.93 
L 538.2 402.93 
L 538.2 36 
L 36 36 
z
" style="fill:none;"/>
   </g>
   <g id="PolyCollection_1">
    <defs>
     <path d="M 59.08199 -195.538011 
L 59.08199 -195.641657 
L 63.690987 -195.68074 
L 68.299984 -195.733281 
L 72.908982 -195.803425 
L 77.517979 -195.896418 
L 82.126976 -196.018842 
L 86.735974 -196.178885 
L 91.344971 -196.386638 
L 95.953968 -196.654426 
L 100.562966 -196.997156 
L 105.171963 -197.432688 
L 109.78096 -197.982206 
L 114.389958 -198.670581 
L 118.998955 -199.526697 
L 123.607952 -200.583729 
L 128.21695 -201.879338 
L 132.825947 -203.455754 
L 137.434945 -205.359712 
L 142.043942 -207.642213 
L 146.652939 -210.35806 
L 151.261937 -213.565168 
L 155.870934 -217.323579 
L 160.479931 -221.69421 
L 165.088929 -226.737283 
L 169.697926 -232.510473 
L 174.306923 -239.066777 
L 178.915921 -246.452152 
L 183.524918 -254.702971 
L 188.133915 -263.843373 
L 192.742913 -273.882618 
L 197.35191 -284.812526 
L 201.960907 -296.605149 
L 206.569905 -309.210801 
L 211.178902 -322.556561 
L 215.7879 -336.545397 
L 220.396897 -351.056008 
L 225.005894 -365.943479 
L 229.614892 -381.040815 
L 234.223889 -396.161377 
L 238.832886 -411.102206 
L 243.441884 -425.648186 
L 248.050881 -439.576933 
L 252.659878 -452.664283 
L 257.268876 -464.690183 
L 261.877873 -475.444783 
L 266.48687 -484.734492 
L 271.095868 -492.387757 
L 275.704865 -498.260329 
L 280.313862 -502.239779 
L 284.92286 -504.249078 
L 289.531857 -504.249078 
L 294.140854 -502.239779 
L 298.749852 -498.260329 
L 303.358849 -492.387757 
L 307.967847 -484.734492 
L 312.576844 -475.444783 
L 317.185841 -464.690183 
L 321.794839 -452.664283 
L 326.403836 -439.576933 
L 331.012833 -425.648186 
L 335.621831 -411.102206 
L 340.230828 -396.161377 
L 344.839825 -381.040815 
L 349.448823 -365.943479 
L 354.05782 -351.056008 
L 358.666817 -336.545397 
L 363.275815 -322.556561 
L 367.884812 -309.210801 
L 372.493809 -296.605149 
L 377.102807 -284.812526 
L 381.711804 -273.882618 
L 386.320801 -263.843373 
L 390.929799 -254.702971 
L 395.538796 -246.452152 
L 400.147794 -239.066777 
L 404.756791 -232.510473 
L 409.365788 -226.737283 
L 413.974786 -221.69421 
L 418.583783 -217.323579 
L 423.19278 -213.565168 
L 427.801778 -210.35806 
L 432.410775 -207.642213 
L 437.019772 -205.359712 
L 441.62877 -203.455754 
L 446.237767 -201.879338 
L 450.846764 -200.583729 
L 455.455762 -199.526697 
L 460.064759 -198.670581 
L 464.673756 -197.982206 
L 469.282754 -197.432688 
L 473.891751 -196.997156 
L 478.500748 -196.654426 
L 483.109746 -196.386638 
L 487.718743 -196.178885 
L 492.327741 -196.018842 
L 496.936738 -195.896418 
L 501.545735 -195.803425 
L 506.154733 -195.733281 
L 510.76373 -195.68074 
L 515.372727 -195.641657 
L 515.372727 -195.538011 
L 515.372727 -195.538011 
L 510.76373 -195.538011 
L 506.154733 -195.538011 
L 501.545735 -195.538011 
L 496.936738 -195.538011 
L 492.327741 -195.538011 
L 487.718743 -195.538011 
L 483.109746 -195.538011 
L 478.500748 -195.538011 
L 473.891751 -195.538011 
L 469.282754 -195.538011 
L 464.673756 -195.538011 
L 460.064759 -195.538011 
L 455.455762 -195.538011 
L 450.846764 -195.538011 
L 446.237767 -195.538011 
L 441.62877 -195.538011 
L 437.019772 -195.538011 
L 432.410775 -195.538011 
L 427.801778 -195.538011 
L 423.19278 -195.538011 
L 418.583783 -195.538011 
L 413.974786 -195.538011 
L 409.365788 -195.538011 
L 404.756791 -195.538011 
L 400.147794 -195.538011 
L 395.538796 -195.538011 
L 390.929799 -195.538011 
L 386.320801 -195.538011 
L 381.711804 -195.538011 
L 377.102807 -195.538011 
L 372.493809 -195.538011 
L 367.884812 -195.538011 
L 363.275815 -195.538011 
L 358.666817 -195.538011 
L 354.05782 -195.538011 
L 349.448823 -195.538011 
L 344.839825 -195.538011 
L 340.230828 -195.538011 
L 335.621831 -195.538011 
L 331.012833 -195.538011 
L 326.403836 -195.538011 
L 321.794839 -195.538011 
L 317.185841 -195.538011 
L 312.576844 -195.538011 
L 307.967847 -195.538011 
L 303.358849 -195.538011 
L 298.749852 -195.538011 
L 294.140854 -195.538011 
L 289.531857 -195.538011 
L 284.92286 -195.538011 
L 280.313862 -195.538011 
L 275.704865 -195.538011 
L 271.095868 -195.538011 
L 266.48687 -195.538011 
L 261.877873 -195.538011 
L 257.268876 -195.538011 
L 252.659878 -195.538011 
L 248.050881 -195.538011 
L 243.441884 -195.538011 
L 238.832886 -195.538011 
L 234.223889 -195.538011 
L 229.614892 -195.538011 
L 225.005894 -195.538011 
L 220.396897 -195.538011 
L 215.7879 -195.538011 
L 211.178902 -195.538011 
L 206.569905 -195.538011 
L 201.960907 -195.538011 
L 197.35191 -195.538011 
L 192.742913 -195.538011 
L 188.133915 -195.538011 
L 183.524918 -195.538011 
L 178.915921 -195.538011 
L 174.306923 -195.538011 
L 169.697926 -195.538011 
L 165.088929 -195.538011 
L 160.479931 -195.538011 
L 155.870934 -195.538011 
L 151.261937 -195.538011 
L 146.652939 -195.538011 
L 142.043942 -195.538011 
L 137.434945 -195.538011 
L 132.825947 -195.538011 
L 128.21695 -195.538011 
L 123.607952 -195.538011 
L 118.998955 -195.538011 
L 114.389958 -195.538011 
L 109.78096 -195.538011 
L 105.171963 -195.538011 
L 100.562966 -195.538011 
L 95.953968 -195.538011 
L 91.344971 -195.538011 
L 86.735974 -195.538011 
L 82.126976 -195.538011 
L 77.517979 -195.538011 
L 72.908982 -195.538011 
L 68.299984 -195.538011 
L 63.690987 -195.538011 
L 59.08199 -195.538011 
z
" id="m59048e501b" style="stroke:#ff6384;stroke-opacity:0.5;"/>
    </defs>
    <g clip-path="url(#pb8254eee32)">
     <use style="fill:#ff6384;fill-opacity:0.5;stroke:#ff6384;stroke-opacity:0.5;" x="0" xlink:href="#m59048e501b" y="581.789375"/>
    </g>
   </g>
   <g id="PolyCollection_2">
    <defs>
     <path d="M 58.827273 -195.538011 
L 58.827273 -195.650004 
L 63.092755 -195.692234 
L 67.358237 -195.749007 
L 71.623719 -195.8248 
L 75.889201 -195.925281 
L 80.154683 -196.057565 
L 84.420165 -196.230497 
L 88.685647 -196.454982 
L 92.951129 -196.744335 
L 97.216611 -197.114666 
L 101.482093 -197.585273 
L 105.747576 -198.179047 
L 110.013058 -198.922859 
L 114.27854 -199.847921 
L 118.544022 -200.990079 
L 122.809504 -202.390029 
L 127.074986 -204.093399 
L 131.340468 -206.150691 
L 135.60595 -208.617009 
L 139.871432 -211.551575 
L 144.136914 -215.016962 
L 148.402396 -219.078053 
L 152.667878 -223.800667 
L 156.93336 -229.249878 
L 161.198842 -235.488004 
L 165.464324 -242.572312 
L 169.729807 -250.552459 
L 173.995289 -259.467747 
L 178.260771 -269.344261 
L 182.526253 -280.192004 
L 186.791735 -292.002137 
L 191.057217 -304.744465 
L 195.322699 -318.365297 
L 199.588181 -332.785841 
L 203.853663 -347.901251 
L 208.119145 -363.580456 
L 212.384627 -379.666871 
L 216.650109 -395.980052 
L 220.915591 -412.31833 
L 225.181073 -428.4624 
L 229.446556 -444.179822 
L 233.712038 -459.230303 
L 237.97752 -473.371627 
L 242.243002 -486.366018 
L 246.508484 -497.986726 
L 250.773966 -508.02457 
L 255.039448 -516.294181 
L 259.30493 -522.639693 
L 263.570412 -526.939623 
L 267.835894 -529.110739 
L 272.101376 -529.110739 
L 276.366858 -526.939623 
L 280.63234 -522.639693 
L 284.897822 -516.294181 
L 289.163305 -508.02457 
L 293.428787 -497.986726 
L 297.694269 -486.366018 
L 301.959751 -473.371627 
L 306.225233 -459.230303 
L 310.490715 -444.179822 
L 314.756197 -428.4624 
L 319.021679 -412.31833 
L 323.287161 -395.980052 
L 327.552643 -379.666871 
L 331.818125 -363.580456 
L 336.083607 -347.901251 
L 340.349089 -332.785841 
L 344.614571 -318.365297 
L 348.880054 -304.744465 
L 353.145536 -292.002137 
L 357.411018 -280.192004 
L 361.6765 -269.344261 
L 365.941982 -259.467747 
L 370.207464 -250.552459 
L 374.472946 -242.572312 
L 378.738428 -235.488004 
L 383.00391 -229.249878 
L 387.269392 -223.800667 
L 391.534874 -219.078053 
L 395.800356 -215.016962 
L 400.065838 -211.551575 
L 404.33132 -208.617009 
L 408.596803 -206.150691 
L 412.862285 -204.093399 
L 417.127767 -202.390029 
L 421.393249 -200.990079 
L 425.658731 -199.847921 
L 429.924213 -198.922859 
L 434.189695 -198.179047 
L 438.455177 -197.585273 
L 442.720659 -197.114666 
L 446.986141 -196.744335 
L 451.251623 -196.454982 
L 455.517105 -196.230497 
L 459.782587 -196.057565 
L 464.048069 -195.925281 
L 468.313552 -195.8248 
L 472.579034 -195.749007 
L 476.844516 -195.692234 
L 481.109998 -195.650004 
L 481.109998 -195.538011 
L 481.109998 -195.538011 
L 476.844516 -195.538011 
L 472.579034 -195.538011 
L 468.313552 -195.538011 
L 464.048069 -195.538011 
L 459.782587 -195.538011 
L 455.517105 -195.538011 
L 451.251623 -195.538011 
L 446.986141 -195.538011 
L 442.720659 -195.538011 
L 438.455177 -195.538011 
L 434.189695 -195.538011 
L 429.924213 -195.538011 
L 425.658731 -195.538011 
L 421.393249 -195.538011 
L 417.127767 -195.538011 
L 412.862285 -195.538011 
L 408.596803 -195.538011 
L 404.33132 -195.538011 
L 400.065838 -195.538011 
L 395.800356 -195.538011 
L 391.534874 -195.538011 
L 387.269392 -195.538011 
L 383.00391 -195.538011 
L 378.738428 -195.538011 
L 374.472946 -195.538011 
L 370.207464 -195.538011 
L 365.941982 -195.538011 
L 361.6765 -195.538011 
L 357.411018 -195.538011 
L 353.145536 -195.538011 
L 348.880054 -195.538011 
L 344.614571 -195.538011 
L 340.349089 -195.538011 
L 336.083607 -195.538011 
L 331.818125 -195.538011 
L 327.552643 -195.538011 
L 323.287161 -195.538011 
L 319.021679 -195.538011 
L 314.756197 -195.538011 
L 310.490715 -195.538011 
L 306.225233 -195.538011 
L 301.959751 -195.538011 
L 297.694269 -195.538011 
L 293.428787 -195.538011 
L 289.163305 -195.538011 
L 284.897822 -195.538011 
L 280.63234 -195.538011 
L 276.366858 -195.538011 
L 272.101376 -195.538011 
L 267.835894 -195.538011 
L 263.570412 -195.538011 
L 259.30493 -195.538011 
L 255.039448 -195.538011 
L 250.773966 -195.538011 
L 246.508484 -195.538011 
L 242.243002 -195.538011 
L 237.97752 -195.538011 
L 233.712038 -195.538011 
L 229.446556 -195.538011 
L 225.181073 -195.538011 
L 220.915591 -195.538011 
L 216.650109 -195.538011 
L 212.384627 -195.538011 
L 208.119145 -195.538011 
L 203.853663 -195.538011 
L 199.588181 -195.538011 
L 195.322699 -195.538011 
L 191.057217 -195.538011 
L 186.791735 -195.538011 
L 182.526253 -195.538011 
L 178.260771 -195.538011 
L 173.995289 -195.538011 
L 169.729807 -195.538011 
L 165.464324 -195.538011 
L 161.198842 -195.538011 
L 156.93336 -195.538011 
L 152.667878 -195.538011 
L 148.402396 -195.538011 
L 144.136914 -195.538011 
L 139.871432 -195.538011 
L 135.60595 -195.538011 
L 131.340468 -195.538011 
L 127.074986 -195.538011 
L 122.809504 -195.538011 
L 118.544022 -195.538011 
L 114.27854 -195.538011 
L 110.013058 -195.538011 
L 105.747576 -195.538011 
L 101.482093 -195.538011 
L 97.216611 -195.538011 
L 92.951129 -195.538011 
L 88.685647 -195.538011 
L 84.420165 -195.538011 
L 80.154683 -195.538011 
L 75.889201 -195.538011 
L 71.623719 -195.538011 
L 67.358237 -195.538011 
L 63.092755 -195.538011 
L 58.827273 -195.538011 
z
" id="m72b99a26c0" style="stroke:#36a2eb;stroke-opacity:0.5;"/>
    </defs>
    <g clip-path="url(#pb8254eee32)">
     <use style="fill:#36a2eb;fill-opacity:0.5;stroke:#36a2eb;stroke-opacity:0.5;" x="0" xlink:href="#m72b99a26c0" y="581.789375"/>
    </g>
   </g>
   <g id="line2d_1">
    <path clip-path="url(#pb8254eee32)" d="M 59.08199 386.147718 
L 63.690987 386.108635 
L 68.299984 386.056094 
L 72.908982 385.98595 
L 77.517979 385.892957 
L 82.126976 385.770533 
L 86.735974 385.61049 
L 91.344971 385.402737 
L 95.953968 385.134949 
L 100.562966 384.792219 
L 105.171963 384.356687 
L 109.78096 383.807169 
L 114.389958 383.118794 
L 118.998955 382.262678 
L 123.607952 381.205646 
L 128.21695 379.910037 
L 132.825947 378.333621 
L 137.434945 376.429663 
L 142.043942 374.147162 
L 146.652939 371.431315 
L 151.261937 368.224207 
L 155.870934 364.465796 
L 160.479931 360.095165 
L 165.088929 355.052092 
L 169.697926 349.278902 
L 174.306923 342.722598 
L 178.915921 335.337223 
L 183.524918 327.086404 
L 188.133915 317.946002 
L 192.742913 307.906757 
L 197.35191 296.976849 
L 201.960907 285.184226 
L 206.569905 272.578574 
L 211.178902 259.232814 
L 215.7879 245.243978 
L 220.396897 230.733367 
L 225.005894 215.845896 
L 229.614892 200.74856 
L 234.223889 185.627998 
L 238.832886 170.687169 
L 243.441884 156.141189 
L 248.050881 142.212442 
L 252.659878 129.125092 
L 257.268876 117.099192 
L 261.877873 106.344592 
L 266.48687 97.054883 
L 271.095868 89.401618 
L 275.704865 83.529046 
L 280.313862 79.549596 
L 284.92286 77.540297 
L 289.531857 77.540297 
L 294.140854 79.549596 
L 298.749852 83.529046 
L 303.358849 89.401618 
L 307.967847 97.054883 
L 312.576844 106.344592 
L 317.185841 117.099192 
L 321.794839 129.125092 
L 326.403836 142.212442 
L 331.012833 156.141189 
L 335.621831 170.687169 
L 340.230828 185.627998 
L 344.839825 200.74856 
L 349.448823 215.845896 
L 354.05782 230.733367 
L 358.666817 245.243978 
L 363.275815 259.232814 
L 367.884812 272.578574 
L 372.493809 285.184226 
L 377.102807 296.976849 
L 381.711804 307.906757 
L 386.320801 317.946002 
L 390.929799 327.086404 
L 395.538796 335.337223 
L 400.147794 342.722598 
L 404.756791 349.278902 
L 409.365788 355.052092 
L 413.974786 360.095165 
L 418.583783 364.465796 
L 423.19278 368.224207 
L 427.801778 371.431315 
L 432.410775 374.147162 
L 437.019772 376.429663 
L 441.62877 378.333621 
L 446.237767 379.910037 
L 450.846764 381.205646 
L 455.455762 382.262678 
L 460.064759 383.118794 
L 464.673756 383.807169 
L 469.282754 384.356687 
L 473.891751 384.792219 
L 478.500748 385.134949 
L 483.109746 385.402737 
L 487.718743 385.61049 
L 492.327741 385.770533 
L 496.936738 385.892957 
L 501.545735 385.98595 
L 506.154733 386.056094 
L 510.76373 386.108635 
L 515.372727 386.147718 
" style="fill:none;stroke:#ff6384;stroke-linecap:square;"/>
   </g>
   <g id="line2d_2">
    <path clip-path="url(#pb8254eee32)" d="M 58.827273 386.139371 
L 63.092755 386.097141 
L 67.358237 386.040368 
L 71.623719 385.964575 
L 75.889201 385.864094 
L 80.154683 385.73181 
L 84.420165 385.558878 
L 88.685647 385.334393 
L 92.951129 385.04504 
L 97.216611 384.674709 
L 101.482093 384.204102 
L 105.747576 383.610328 
L 110.013058 382.866516 
L 114.27854 381.941454 
L 118.544022 380.799296 
L 122.809504 379.399346 
L 127.074986 377.695976 
L 131.340468 375.638684 
L 135.60595 373.172366 
L 139.871432 370.2378 
L 144.136914 366.772413 
L 148.402396 362.711322 
L 152.667878 357.988708 
L 156.93336 352.539497 
L 161.198842 346.301371 
L 165.464324 339.217063 
L 169.729807 331.236916 
L 173.995289 322.321628 
L 178.260771 312.445114 
L 182.526253 301.597371 
L 186.791735 289.787238 
L 191.057217 277.04491 
L 195.322699 263.424078 
L 199.588181 249.003534 
L 203.853663 233.888124 
L 208.119145 218.208919 
L 212.384627 202.122504 
L 216.650109 185.809323 
L 220.915591 169.471045 
L 225.181073 153.326975 
L 229.446556 137.609553 
L 233.712038 122.559072 
L 237.97752 108.417748 
L 242.243002 95.423357 
L 246.508484 83.802649 
L 250.773966 73.764805 
L 255.039448 65.495194 
L 259.30493 59.149682 
L 263.570412 54.849752 
L 267.835894 52.678636 
L 272.101376 52.678636 
L 276.366858 54.849752 
L 280.63234 59.149682 
L 284.897822 65.495194 
L 289.163305 73.764805 
L 293.428787 83.802649 
L 297.694269 95.423357 
L 301.959751 108.417748 
L 306.225233 122.559072 
L 310.490715 137.609553 
L 314.756197 153.326975 
L 319.021679 169.471045 
L 323.287161 185.809323 
L 327.552643 202.122504 
L 331.818125 218.208919 
L 336.083607 233.888124 
L 340.349089 249.003534 
L 344.614571 263.424078 
L 348.880054 277.04491 
L 353.145536 289.787238 
L 357.411018 301.597371 
L 361.6765 312.445114 
L 365.941982 322.321628 
L 370.207464 331.236916 
L 374.472946 339.217063 
L 378.738428 346.301371 
L 383.00391 352.539497 
L 387.269392 357.988708 
L 391.534874 362.711322 
L 395.800356 366.772413 
L 400.065838 370.2378 
L 404.33132 373.172366 
L 408.596803 375.638684 
L 412.862285 377.695976 
L 417.127767 379.399346 
L 421.393249 380.799296 
L 425.658731 381.941454 
L 429.924213 382.866516 
L 434.189695 383.610328 
L 438.455177 384.204102 
L 442.720659 384.674709 
L 446.986141 385.04504 
L 451.251623 385.334393 
L 455.517105 385.558878 
L 459.782587 385.73181 
L 464.048069 385.864094 
L 468.313552 385.964575 
L 472.579034 386.040368 
L 476.844516 386.097141 
L 481.109998 386.139371 
" style="fill:none;stroke:#36a2eb;stroke-linecap:square;"/>
   </g>
   <g id="patch_3">
    <path d="M 36 402.93 
L 538.2 402.93 
" style="fill:none;stroke:#000000;stroke-linecap:square;stroke-linejoin:miter;stroke-width:0.8;"/>
   </g>
   <g id="legend_1">
    <g id="patch_4">
     <path d="M 450.225313 88.29875 
L 528.4 88.29875 
Q 531.2 88.29875 531.2 85.49875 
L 531.2 45.8 
Q 531.2 43 528.4 43 
L 450.225313 43 
Q 447.425313 43 447.425313 45.8 
L 447.425313 85.49875 
Q 447.425313 88.29875 450.225313 88.29875 
z
" style="fill:#ffffff;opacity:0.8;stroke:#cccccc;stroke-linejoin:miter;"/>
    </g>
    <g id="patch_5">
     <path d="M 453.025313 59.237813 
L 481.025313 59.237813 
L 481.025313 49.437813 
L 453.025313 49.437813 
z
" style="fill:#ff6384;opacity:0.5;stroke:#ff6384;stroke-linejoin:miter;"/>
    </g>
    <g id="text_1">
     <!-- base -->
     <defs>
      <path d="M 48.6875 27.296875 
Q 48.6875 37.203125 44.609375 42.84375 
Q 40.53125 48.484375 33.40625 48.484375 
Q 26.265625 48.484375 22.1875 42.84375 
Q 18.109375 37.203125 18.109375 27.296875 
Q 18.109375 17.390625 22.1875 11.75 
Q 26.265625 6.109375 33.40625 6.109375 
Q 40.53125 6.109375 44.609375 11.75 
Q 48.6875 17.390625 48.6875 27.296875 
z
M 18.109375 46.390625 
Q 20.953125 51.265625 25.265625 53.625 
Q 29.59375 56 35.59375 56 
Q 45.5625 56 51.78125 48.09375 
Q 58.015625 40.1875 58.015625 27.296875 
Q 58.015625 14.40625 51.78125 6.484375 
Q 45.5625 -1.421875 35.59375 -1.421875 
Q 29.59375 -1.421875 25.265625 0.953125 
Q 20.953125 3.328125 18.109375 8.203125 
L 18.109375 0 
L 9.078125 0 
L 9.078125 75.984375 
L 18.109375 75.984375 
z
" id="DejaVuSans-98"/>
      <path d="M 34.28125 27.484375 
Q 23.390625 27.484375 19.1875 25 
Q 14.984375 22.515625 14.984375 16.5 
Q 14.984375 11.71875 18.140625 8.90625 
Q 21.296875 6.109375 26.703125 6.109375 
Q 34.1875 6.109375 38.703125 11.40625 
Q 43.21875 16.703125 43.21875 25.484375 
L 43.21875 27.484375 
z
M 52.203125 31.203125 
L 52.203125 0 
L 43.21875 0 
L 43.21875 8.296875 
Q 40.140625 3.328125 35.546875 0.953125 
Q 30.953125 -1.421875 24.3125 -1.421875 
Q 15.921875 -1.421875 10.953125 3.296875 
Q 6 8.015625 6 15.921875 
Q 6 25.140625 12.171875 29.828125 
Q 18.359375 34.515625 30.609375 34.515625 
L 43.21875 34.515625 
L 43.21875 35.40625 
Q 43.21875 41.609375 39.140625 45 
Q 35.0625 48.390625 27.6875 48.390625 
Q 23 48.390625 18.546875 47.265625 
Q 14.109375 46.140625 10.015625 43.890625 
L 10.015625 52.203125 
Q 14.9375 54.109375 19.578125 55.046875 
Q 24.21875 56 28.609375 56 
Q 40.484375 56 46.34375 49.84375 
Q 52.203125 43.703125 52.203125 31.203125 
z
" id="DejaVuSans-97"/>
      <path d="M 44.28125 53.078125 
L 44.28125 44.578125 
Q 40.484375 46.53125 36.375 47.5 
Q 32.28125 48.484375 27.875 48.484375 
Q 21.1875 48.484375 17.84375 46.4375 
Q 14.5 44.390625 14.5 40.28125 
Q 14.5 37.15625 16.890625 35.375 
Q 19.28125 33.59375 26.515625 31.984375 
L 29.59375 31.296875 
Q 39.15625 29.25 43.1875 25.515625 
Q 47.21875 21.78125 47.21875 15.09375 
Q 47.21875 7.46875 41.1875 3.015625 
Q 35.15625 -1.421875 24.609375 -1.421875 
Q 20.21875 -1.421875 15.453125 -0.5625 
Q 10.6875 0.296875 5.421875 2 
L 5.421875 11.28125 
Q 10.40625 8.6875 15.234375 7.390625 
Q 20.0625 6.109375 24.8125 6.109375 
Q 31.15625 6.109375 34.5625 8.28125 
Q 37.984375 10.453125 37.984375 14.40625 
Q 37.984375 18.0625 35.515625 20.015625 
Q 33.0625 21.96875 24.703125 23.78125 
L 21.578125 24.515625 
Q 13.234375 26.265625 9.515625 29.90625 
Q 5.8125 33.546875 5.8125 39.890625 
Q 5.8125 47.609375 11.28125 51.796875 
Q 16.75 56 26.8125 56 
Q 31.78125 56 36.171875 55.265625 
Q 40.578125 54.546875 44.28125 53.078125 
z
" id="DejaVuSans-115"/>
      <path d="M 56.203125 29.59375 
L 56.203125 25.203125 
L 14.890625 25.203125 
Q 15.484375 15.921875 20.484375 11.0625 
Q 25.484375 6.203125 34.421875 6.203125 
Q 39.59375 6.203125 44.453125 7.46875 
Q 49.3125 8.734375 54.109375 11.28125 
L 54.109375 2.78125 
Q 49.265625 0.734375 44.1875 -0.34375 
Q 39.109375 -1.421875 33.890625 -1.421875 
Q 20.796875 -1.421875 13.15625 6.1875 
Q 5.515625 13.8125 5.515625 26.8125 
Q 5.515625 40.234375 12.765625 48.109375 
Q 20.015625 56 32.328125 56 
Q 43.359375 56 49.78125 48.890625 
Q 56.203125 41.796875 56.203125 29.59375 
z
M 47.21875 32.234375 
Q 47.125 39.59375 43.09375 43.984375 
Q 39.0625 48.390625 32.421875 48.390625 
Q 24.90625 48.390625 20.390625 44.140625 
Q 15.875 39.890625 15.1875 32.171875 
z
" id="DejaVuSans-101"/>
     </defs>
     <g transform="translate(492.225313 59.237813)scale(0.14 -0.14)">
      <use xlink:href="#DejaVuSans-98"/>
      <use x="63.476562" xlink:href="#DejaVuSans-97"/>
      <use x="124.755859" xlink:href="#DejaVuSans-115"/>
      <use x="176.855469" xlink:href="#DejaVuSans-101"/>
     </g>
    </g>
    <g id="patch_6">
     <path d="M 453.025313 79.787188 
L 481.025313 79.787188 
L 481.025313 69.987188 
L 453.025313 69.987188 
z
" style="fill:#36a2eb;opacity:0.5;stroke:#36a2eb;stroke-linejoin:miter;"/>
    </g>
    <g id="text_2">
     <!-- new -->
     <defs>
      <path d="M 54.890625 33.015625 
L 54.890625 0 
L 45.90625 0 
L 45.90625 32.71875 
Q 45.90625 40.484375 42.875 44.328125 
Q 39.84375 48.1875 33.796875 48.1875 
Q 26.515625 48.1875 22.3125 43.546875 
Q 18.109375 38.921875 18.109375 30.90625 
L 18.109375 0 
L 9.078125 0 
L 9.078125 54.6875 
L 18.109375 54.6875 
L 18.109375 46.1875 
Q 21.34375 51.125 25.703125 53.5625 
Q 30.078125 56 35.796875 56 
Q 45.21875 56 50.046875 50.171875 
Q 54.890625 44.34375 54.890625 33.015625 
z
" id="DejaVuSans-110"/>
      <path d="M 4.203125 54.6875 
L 13.1875 54.6875 
L 24.421875 12.015625 
L 35.59375 54.6875 
L 46.1875 54.6875 
L 57.421875 12.015625 
L 68.609375 54.6875 
L 77.59375 54.6875 
L 63.28125 0 
L 52.6875 0 
L 40.921875 44.828125 
L 29.109375 0 
L 18.5 0 
z
" id="DejaVuSans-119"/>
     </defs>
     <g transform="translate(492.225313 79.787188)scale(0.14 -0.14)">
      <use xlink:href="#DejaVuSans-110"/>
      <use x="63.378906" xlink:href="#DejaVuSans-101"/>
      <use x="124.902344" xlink:href="#DejaVuSans-119"/>
     </g>
    </g>
   </g>
  </g>
  <g id="axes_2">
   <g id="patch_7">
    <path d="M 36 525.24 
L 538.2 525.24 
L 538.2 402.93 
L 36 402.93 
z
" style="fill:none;"/>
   </g>
   <g id="patch_8">
    <path clip-path="url(#p6e71d6a758)" d="M 175.436128 519.680455 
L 399.018589 519.680455 
L 399.018589 482.616818 
L 175.436128 482.616818 
z
" style="fill:#ff6384;opacity:0.5;"/>
   </g>
   <g id="patch_9">
    <path clip-path="url(#p6e71d6a758)" d="M 166.509368 445.553182 
L 373.427903 445.553182 
L 373.427903 408.489545 
L 166.509368 408.489545 
z
" style="fill:#36a2eb;opacity:0.5;"/>
   </g>
   <g id="matplotlib.axis_1">
    <g id="xtick_1">
     <g id="line2d_3">
      <defs>
       <path d="M 0 0 
L 0 3.5 
" id="m346d920d8a" style="stroke:#000000;stroke-width:0.8;"/>
      </defs>
      <g>
       <use style="stroke:#000000;stroke-width:0.8;" x="95.203646" xlink:href="#m346d920d8a" y="525.24"/>
      </g>
     </g>
     <g id="text_3">
      <!-- 9.75 -->
      <defs>
       <path d="M 10.984375 1.515625 
L 10.984375 10.5 
Q 14.703125 8.734375 18.5 7.8125 
Q 22.3125 6.890625 25.984375 6.890625 
Q 35.75 6.890625 40.890625 13.453125 
Q 46.046875 20.015625 46.78125 33.40625 
Q 43.953125 29.203125 39.59375 26.953125 
Q 35.25 24.703125 29.984375 24.703125 
Q 19.046875 24.703125 12.671875 31.3125 
Q 6.296875 37.9375 6.296875 49.421875 
Q 6.296875 60.640625 12.9375 67.421875 
Q 19.578125 74.21875 30.609375 74.21875 
Q 43.265625 74.21875 49.921875 64.515625 
Q 56.59375 54.828125 56.59375 36.375 
Q 56.59375 19.140625 48.40625 8.859375 
Q 40.234375 -1.421875 26.421875 -1.421875 
Q 22.703125 -1.421875 18.890625 -0.6875 
Q 15.09375 0.046875 10.984375 1.515625 
z
M 30.609375 32.421875 
Q 37.25 32.421875 41.125 36.953125 
Q 45.015625 41.5 45.015625 49.421875 
Q 45.015625 57.28125 41.125 61.84375 
Q 37.25 66.40625 30.609375 66.40625 
Q 23.96875 66.40625 20.09375 61.84375 
Q 16.21875 57.28125 16.21875 49.421875 
Q 16.21875 41.5 20.09375 36.953125 
Q 23.96875 32.421875 30.609375 32.421875 
z
" id="DejaVuSans-57"/>
       <path d="M 10.6875 12.40625 
L 21 12.40625 
L 21 0 
L 10.6875 0 
z
" id="DejaVuSans-46"/>
       <path d="M 8.203125 72.90625 
L 55.078125 72.90625 
L 55.078125 68.703125 
L 28.609375 0 
L 18.3125 0 
L 43.21875 64.59375 
L 8.203125 64.59375 
z
" id="DejaVuSans-55"/>
       <path d="M 10.796875 72.90625 
L 49.515625 72.90625 
L 49.515625 64.59375 
L 19.828125 64.59375 
L 19.828125 46.734375 
Q 21.96875 47.46875 24.109375 47.828125 
Q 26.265625 48.1875 28.421875 48.1875 
Q 40.625 48.1875 47.75 41.5 
Q 54.890625 34.8125 54.890625 23.390625 
Q 54.890625 11.625 47.5625 5.09375 
Q 40.234375 -1.421875 26.90625 -1.421875 
Q 22.3125 -1.421875 17.546875 -0.640625 
Q 12.796875 0.140625 7.71875 1.703125 
L 7.71875 11.625 
Q 12.109375 9.234375 16.796875 8.0625 
Q 21.484375 6.890625 26.703125 6.890625 
Q 35.15625 6.890625 40.078125 11.328125 
Q 45.015625 15.765625 45.015625 23.390625 
Q 45.015625 31 40.078125 35.4375 
Q 35.15625 39.890625 26.703125 39.890625 
Q 22.75 39.890625 18.8125 39.015625 
Q 14.890625 38.140625 10.796875 36.28125 
z
" id="DejaVuSans-53"/>
      </defs>
      <g transform="translate(79.617709 542.877813)scale(0.14 -0.14)">
       <use xlink:href="#DejaVuSans-57"/>
       <use x="63.623047" xlink:href="#DejaVuSans-46"/>
       <use x="95.410156" xlink:href="#DejaVuSans-55"/>
       <use x="159.033203" xlink:href="#DejaVuSans-53"/>
      </g>
     </g>
    </g>
    <g id="xtick_2">
     <g id="line2d_4">
      <g>
       <use style="stroke:#000000;stroke-width:0.8;" x="163.258548" xlink:href="#m346d920d8a" y="525.24"/>
      </g>
     </g>
     <g id="text_4">
      <!-- 10.00 -->
      <defs>
       <path d="M 12.40625 8.296875 
L 28.515625 8.296875 
L 28.515625 63.921875 
L 10.984375 60.40625 
L 10.984375 69.390625 
L 28.421875 72.90625 
L 38.28125 72.90625 
L 38.28125 8.296875 
L 54.390625 8.296875 
L 54.390625 0 
L 12.40625 0 
z
" id="DejaVuSans-49"/>
       <path d="M 31.78125 66.40625 
Q 24.171875 66.40625 20.328125 58.90625 
Q 16.5 51.421875 16.5 36.375 
Q 16.5 21.390625 20.328125 13.890625 
Q 24.171875 6.390625 31.78125 6.390625 
Q 39.453125 6.390625 43.28125 13.890625 
Q 47.125 21.390625 47.125 36.375 
Q 47.125 51.421875 43.28125 58.90625 
Q 39.453125 66.40625 31.78125 66.40625 
z
M 31.78125 74.21875 
Q 44.046875 74.21875 50.515625 64.515625 
Q 56.984375 54.828125 56.984375 36.375 
Q 56.984375 17.96875 50.515625 8.265625 
Q 44.046875 -1.421875 31.78125 -1.421875 
Q 19.53125 -1.421875 13.0625 8.265625 
Q 6.59375 17.96875 6.59375 36.375 
Q 6.59375 54.828125 13.0625 64.515625 
Q 19.53125 74.21875 31.78125 74.21875 
z
" id="DejaVuSans-48"/>
      </defs>
      <g transform="translate(143.218861 542.877813)scale(0.14 -0.14)">
       <use xlink:href="#DejaVuSans-49"/>
       <use x="63.623047" xlink:href="#DejaVuSans-48"/>
       <use x="127.246094" xlink:href="#DejaVuSans-46"/>
       <use x="159.033203" xlink:href="#DejaVuSans-48"/>
       <use x="222.65625" xlink:href="#DejaVuSans-48"/>
      </g>
     </g>
    </g>
    <g id="xtick_3">
     <g id="line2d_5">
      <g>
       <use style="stroke:#000000;stroke-width:0.8;" x="231.313451" xlink:href="#m346d920d8a" y="525.24"/>
      </g>
     </g>
     <g id="text_5">
      <!-- 10.25 -->
      <defs>
       <path d="M 19.1875 8.296875 
L 53.609375 8.296875 
L 53.609375 0 
L 7.328125 0 
L 7.328125 8.296875 
Q 12.9375 14.109375 22.625 23.890625 
Q 32.328125 33.6875 34.8125 36.53125 
Q 39.546875 41.84375 41.421875 45.53125 
Q 43.3125 49.21875 43.3125 52.78125 
Q 43.3125 58.59375 39.234375 62.25 
Q 35.15625 65.921875 28.609375 65.921875 
Q 23.96875 65.921875 18.8125 64.3125 
Q 13.671875 62.703125 7.8125 59.421875 
L 7.8125 69.390625 
Q 13.765625 71.78125 18.9375 73 
Q 24.125 74.21875 28.421875 74.21875 
Q 39.75 74.21875 46.484375 68.546875 
Q 53.21875 62.890625 53.21875 53.421875 
Q 53.21875 48.921875 51.53125 44.890625 
Q 49.859375 40.875 45.40625 35.40625 
Q 44.1875 33.984375 37.640625 27.21875 
Q 31.109375 20.453125 19.1875 8.296875 
z
" id="DejaVuSans-50"/>
      </defs>
      <g transform="translate(211.273763 542.877813)scale(0.14 -0.14)">
       <use xlink:href="#DejaVuSans-49"/>
       <use x="63.623047" xlink:href="#DejaVuSans-48"/>
       <use x="127.246094" xlink:href="#DejaVuSans-46"/>
       <use x="159.033203" xlink:href="#DejaVuSans-50"/>
       <use x="222.65625" xlink:href="#DejaVuSans-53"/>
      </g>
     </g>
    </g>
    <g id="xtick_4">
     <g id="line2d_6">
      <g>
       <use style="stroke:#000000;stroke-width:0.8;" x="299.368353" xlink:href="#m346d920d8a" y="525.24"/>
      </g>
     </g>
     <g id="text_6">
      <!-- 10.50 -->
      <g transform="translate(279.328665 542.877813)scale(0.14 -0.14)">
       <use xlink:href="#DejaVuSans-49"/>
       <use x="63.623047" xlink:href="#DejaVuSans-48"/>
       <use x="127.246094" xlink:href="#DejaVuSans-46"/>
       <use x="159.033203" xlink:href="#DejaVuSans-53"/>
       <use x="222.65625" xlink:href="#DejaVuSans-48"/>
      </g>
     </g>
    </g>
    <g id="xtick_5">
     <g id="line2d_7">
      <g>
       <use style="stroke:#000000;stroke-width:0.8;" x="367.423255" xlink:href="#m346d920d8a" y="525.24"/>
      </g>
     </g>
     <g id="text_7">
      <!-- 10.75 -->
      <g transform="translate(347.383568 542.877813)scale(0.14 -0.14)">
       <use xlink:href="#DejaVuSans-49"/>
       <use x="63.623047" xlink:href="#DejaVuSans-48"/>
       <use x="127.246094" xlink:href="#DejaVuSans-46"/>
       <use x="159.033203" xlink:href="#DejaVuSans-55"/>
       <use x="222.65625" xlink:href="#DejaVuSans-53"/>
      </g>
     </g>
    </g>
    <g id="xtick_6">
     <g id="line2d_8">
      <g>
       <use style="stroke:#000000;stroke-width:0.8;" x="435.478158" xlink:href="#m346d920d8a" y="525.24"/>
      </g>
     </g>
     <g id="text_8">
      <!-- 11.00 -->
      <g transform="translate(415.43847 542.877813)scale(0.14 -0.14)">
       <use xlink:href="#DejaVuSans-49"/>
       <use x="63.623047" xlink:href="#DejaVuSans-49"/>
       <use x="127.246094" xlink:href="#DejaVuSans-46"/>
       <use x="159.033203" xlink:href="#DejaVuSans-48"/>
       <use x="222.65625" xlink:href="#DejaVuSans-48"/>
      </g>
     </g>
    </g>
    <g id="xtick_7">
     <g id="line2d_9">
      <g>
       <use style="stroke:#000000;stroke-width:0.8;" x="503.53306" xlink:href="#m346d920d8a" y="525.24"/>
      </g>
     </g>
     <g id="text_9">
      <!-- 11.25 -->
      <g transform="translate(483.493372 542.877813)scale(0.14 -0.14)">
       <use xlink:href="#DejaVuSans-49"/>
       <use x="63.623047" xlink:href="#DejaVuSans-49"/>
       <use x="127.246094" xlink:href="#DejaVuSans-46"/>
       <use x="159.033203" xlink:href="#DejaVuSans-50"/>
       <use x="222.65625" xlink:href="#DejaVuSans-53"/>
      </g>
     </g>
    </g>
   </g>
   <g id="line2d_10">
    <path clip-path="url(#p6e71d6a758)" d="M 287.227358 525.24 
L 287.227358 402.93 
" style="fill:none;stroke:#ff6384;stroke-dasharray:5.55,2.4;stroke-dashoffset:0;stroke-opacity:0.8;stroke-width:1.5;"/>
   </g>
   <g id="line2d_11">
    <path clip-path="url(#p6e71d6a758)" d="M 269.968635 525.24 
L 269.968635 402.93 
" style="fill:none;stroke:#36a2eb;stroke-dasharray:5.55,2.4;stroke-dashoffset:0;stroke-opacity:0.8;stroke-width:1.5;"/>
   </g>
   <g id="patch_10">
    <path d="M 36 525.24 
L 538.2 525.24 
" style="fill:none;stroke:#000000;stroke-linecap:square;stroke-linejoin:miter;stroke-width:0.8;"/>
   </g>
  </g>
 </g>
 <defs>
  <clipPath id="pb8254eee32">
   <rect height="366.93" width="502.2" x="36" y="36"/>
  </clipPath>
  <clipPath id="p6e71d6a758">
   <rect height="122.31" width="502.2" x="36" y="402.93"/>
  </clipPath>
 </defs>
</svg>
