<?xml version="1.0" encoding="utf-8" standalone="no"?>
<!DOCTYPE svg PUBLIC "-//W3C//DTD SVG 1.1//EN"
  "http://www.w3.org/Graphics/SVG/1.1/DTD/svg11.dtd">
<!-- Created with matplotlib (https://matplotlib.org/) -->
<svg height="581.789375pt" version="1.1" viewBox="0 0 574.2 581.789375" width="574.2pt" xmlns="http://www.w3.org/2000/svg" xmlns:xlink="http://www.w3.org/1999/xlink">
 <defs>
  <style type="text/css">
*{stroke-linecap:butt;stroke-linejoin:round;}
  </style>
 </defs>
 <g id="figure_1">
  <g id="patch_1">
   <path d="M 0 581.789375 
L 574.2 581.789375 
L 574.2 0 
L 0 0 
z
" style="fill:none;"/>
  </g>
  <g id="axes_1">
   <g id="patch_2">
    <path d="M 36 402.93 
L 538.2 402.93 
L 538.2 36 
L 36 36 
z
" style="fill:none;"/>
   </g>
   <g id="PolyCollection_1">
    <defs>
     <path d="M 90.198127 -195.538011 
L 90.198127 -195.649281 
L 94.49282 -195.691238 
L 98.787513 -195.747644 
L 103.082206 -195.822948 
L 107.376899 -195.92278 
L 111.671592 -196.05421 
L 115.966285 -196.226025 
L 120.260978 -196.44906 
L 124.555671 -196.736545 
L 128.850364 -197.104484 
L 133.145057 -197.572052 
L 137.43975 -198.161991 
L 141.734443 -198.901001 
L 146.029135 -199.820089 
L 150.323828 -200.954871 
L 154.618521 -202.34578 
L 158.913214 -204.038151 
L 163.207907 -206.082157 
L 167.5026 -208.532548 
L 171.797293 -211.448163 
L 176.091986 -214.891172 
L 180.386679 -218.926037 
L 184.681372 -223.618154 
L 188.976065 -229.032174 
L 193.270758 -235.230016 
L 197.565451 -242.268576 
L 201.860144 -250.197189 
L 206.154836 -259.054904 
L 210.449529 -268.867637 
L 214.744222 -279.645328 
L 219.038915 -291.379195 
L 223.333608 -304.039235 
L 227.628301 -317.572107 
L 231.922994 -331.899527 
L 236.217687 -346.917325 
L 240.51238 -362.495277 
L 244.807073 -378.47781 
L 249.101766 -394.685645 
L 253.396459 -410.918413 
L 257.691152 -426.958229 
L 261.985845 -442.574151 
L 266.280537 -457.52744 
L 270.57523 -471.577443 
L 274.869923 -484.487919 
L 279.164616 -496.033584 
L 283.459309 -506.006605 
L 287.754002 -514.222813 
L 292.048695 -520.527348 
L 296.343388 -524.799509 
L 300.638081 -526.956604 
L 304.932774 -526.956604 
L 309.227467 -524.799509 
L 313.52216 -520.527348 
L 317.816853 -514.222813 
L 322.111546 -506.006605 
L 326.406238 -496.033584 
L 330.700931 -484.487919 
L 334.995624 -471.577443 
L 339.290317 -457.52744 
L 343.58501 -442.574151 
L 347.879703 -426.958229 
L 352.174396 -410.918413 
L 356.469089 -394.685645 
L 360.763782 -378.47781 
L 365.058475 -362.495277 
L 369.353168 -346.917325 
L 373.647861 -331.899527 
L 377.942554 -317.572107 
L 382.237247 -304.039235 
L 386.531939 -291.379195 
L 390.826632 -279.645328 
L 395.121325 -268.867637 
L 399.416018 -259.054904 
L 403.710711 -250.197189 
L 408.005404 -242.268576 
L 412.300097 -235.230016 
L 416.59479 -229.032174 
L 420.889483 -223.618154 
L 425.184176 -218.926037 
L 429.478869 -214.891172 
L 433.773562 -211.448163 
L 438.068255 -208.532548 
L 442.362948 -206.082157 
L 446.65764 -204.038151 
L 450.952333 -202.34578 
L 455.247026 -200.954871 
L 459.541719 -199.820089 
L 463.836412 -198.901001 
L 468.131105 -198.161991 
L 472.425798 -197.572052 
L 476.720491 -197.104484 
L 481.015184 -196.736545 
L 485.309877 -196.44906 
L 489.60457 -196.226025 
L 493.899263 -196.05421 
L 498.193956 -195.92278 
L 502.488648 -195.822948 
L 506.783341 -195.747644 
L 511.078034 -195.691238 
L 515.372727 -195.649281 
L 515.372727 -195.538011 
L 515.372727 -195.538011 
L 511.078034 -195.538011 
L 506.783341 -195.538011 
L 502.488648 -195.538011 
L 498.193956 -195.538011 
L 493.899263 -195.538011 
L 489.60457 -195.538011 
L 485.309877 -195.538011 
L 481.015184 -195.538011 
L 476.720491 -195.538011 
L 472.425798 -195.538011 
L 468.131105 -195.538011 
L 463.836412 -195.538011 
L 459.541719 -195.538011 
L 455.247026 -195.538011 
L 450.952333 -195.538011 
L 446.65764 -195.538011 
L 442.362948 -195.538011 
L 438.068255 -195.538011 
L 433.773562 -195.538011 
L 429.478869 -195.538011 
L 425.184176 -195.538011 
L 420.889483 -195.538011 
L 416.59479 -195.538011 
L 412.300097 -195.538011 
L 408.005404 -195.538011 
L 403.710711 -195.538011 
L 399.416018 -195.538011 
L 395.121325 -195.538011 
L 390.826632 -195.538011 
L 386.531939 -195.538011 
L 382.237247 -195.538011 
L 377.942554 -195.538011 
L 373.647861 -195.538011 
L 369.353168 -195.538011 
L 365.058475 -195.538011 
L 360.763782 -195.538011 
L 356.469089 -195.538011 
L 352.174396 -195.538011 
L 347.879703 -195.538011 
L 343.58501 -195.538011 
L 339.290317 -195.538011 
L 334.995624 -195.538011 
L 330.700931 -195.538011 
L 326.406238 -195.538011 
L 322.111546 -195.538011 
L 317.816853 -195.538011 
L 313.52216 -195.538011 
L 309.227467 -195.538011 
L 304.932774 -195.538011 
L 300.638081 -195.538011 
L 296.343388 -195.538011 
L 292.048695 -195.538011 
L 287.754002 -195.538011 
L 283.459309 -195.538011 
L 279.164616 -195.538011 
L 274.869923 -195.538011 
L 270.57523 -195.538011 
L 266.280537 -195.538011 
L 261.985845 -195.538011 
L 257.691152 -195.538011 
L 253.396459 -195.538011 
L 249.101766 -195.538011 
L 244.807073 -195.538011 
L 240.51238 -195.538011 
L 236.217687 -195.538011 
L 231.922994 -195.538011 
L 227.628301 -195.538011 
L 223.333608 -195.538011 
L 219.038915 -195.538011 
L 214.744222 -195.538011 
L 210.449529 -195.538011 
L 206.154836 -195.538011 
L 201.860144 -195.538011 
L 197.565451 -195.538011 
L 193.270758 -195.538011 
L 188.976065 -195.538011 
L 184.681372 -195.538011 
L 180.386679 -195.538011 
L 176.091986 -195.538011 
L 171.797293 -195.538011 
L 167.5026 -195.538011 
L 163.207907 -195.538011 
L 158.913214 -195.538011 
L 154.618521 -195.538011 
L 150.323828 -195.538011 
L 146.029135 -195.538011 
L 141.734443 -195.538011 
L 137.43975 -195.538011 
L 133.145057 -195.538011 
L 128.850364 -195.538011 
L 124.555671 -195.538011 
L 120.260978 -195.538011 
L 115.966285 -195.538011 
L 111.671592 -195.538011 
L 107.376899 -195.538011 
L 103.082206 -195.538011 
L 98.787513 -195.538011 
L 94.49282 -195.538011 
L 90.198127 -195.538011 
z
" id="mbdce8731fb" style="stroke:#ff6384;stroke-opacity:0.5;"/>
    </defs>
    <g clip-path="url(#p400ffde684)">
     <use style="fill:#ff6384;fill-opacity:0.5;stroke:#ff6384;stroke-opacity:0.5;" x="0" xlink:href="#mbdce8731fb" y="581.789375"/>
    </g>
   </g>
   <g id="PolyCollection_2">
    <defs>
     <path d="M 58.827273 -195.538011 
L 58.827273 -195.650004 
L 63.094232 -195.692234 
L 67.36119 -195.749007 
L 71.628149 -195.8248 
L 75.895108 -195.925281 
L 80.162067 -196.057565 
L 84.429026 -196.230497 
L 88.695984 -196.454982 
L 92.962943 -196.744335 
L 97.229902 -197.114666 
L 101.496861 -197.585273 
L 105.76382 -198.179047 
L 110.030778 -198.922859 
L 114.297737 -199.847921 
L 118.564696 -200.990079 
L 122.831655 -202.390029 
L 127.098614 -204.093399 
L 131.365573 -206.150691 
L 135.632531 -208.617009 
L 139.89949 -211.551575 
L 144.166449 -215.016962 
L 148.433408 -219.078053 
L 152.700367 -223.800667 
L 156.967325 -229.249878 
L 161.234284 -235.488004 
L 165.501243 -242.572312 
L 169.768202 -250.552459 
L 174.035161 -259.467747 
L 178.302119 -269.344261 
L 182.569078 -280.192004 
L 186.836037 -292.002137 
L 191.102996 -304.744465 
L 195.369955 -318.365297 
L 199.636913 -332.785841 
L 203.903872 -347.901251 
L 208.170831 -363.580456 
L 212.43779 -379.666871 
L 216.704749 -395.980052 
L 220.971708 -412.31833 
L 225.238666 -428.4624 
L 229.505625 -444.179822 
L 233.772584 -459.230303 
L 238.039543 -473.371627 
L 242.306502 -486.366018 
L 246.57346 -497.986726 
L 250.840419 -508.02457 
L 255.107378 -516.294181 
L 259.374337 -522.639693 
L 263.641296 -526.939623 
L 267.908254 -529.110739 
L 272.175213 -529.110739 
L 276.442172 -526.939623 
L 280.709131 -522.639693 
L 284.97609 -516.294181 
L 289.243048 -508.02457 
L 293.510007 -497.986726 
L 297.776966 -486.366018 
L 302.043925 -473.371627 
L 306.310884 -459.230303 
L 310.577843 -444.179822 
L 314.844801 -428.4624 
L 319.11176 -412.31833 
L 323.378719 -395.980052 
L 327.645678 -379.666871 
L 331.912637 -363.580456 
L 336.179595 -347.901251 
L 340.446554 -332.785841 
L 344.713513 -318.365297 
L 348.980472 -304.744465 
L 353.247431 -292.002137 
L 357.514389 -280.192004 
L 361.781348 -269.344261 
L 366.048307 -259.467747 
L 370.315266 -250.552459 
L 374.582225 -242.572312 
L 378.849184 -235.488004 
L 383.116142 -229.249878 
L 387.383101 -223.800667 
L 391.65006 -219.078053 
L 395.917019 -215.016962 
L 400.183978 -211.551575 
L 404.450936 -208.617009 
L 408.717895 -206.150691 
L 412.984854 -204.093399 
L 417.251813 -202.390029 
L 421.518772 -200.990079 
L 425.78573 -199.847921 
L 430.052689 -198.922859 
L 434.319648 -198.179047 
L 438.586607 -197.585273 
L 442.853566 -197.114666 
L 447.120524 -196.744335 
L 451.387483 -196.454982 
L 455.654442 -196.230497 
L 459.921401 -196.057565 
L 464.18836 -195.925281 
L 468.455319 -195.8248 
L 472.722277 -195.749007 
L 476.989236 -195.692234 
L 481.256195 -195.650004 
L 481.256195 -195.538011 
L 481.256195 -195.538011 
L 476.989236 -195.538011 
L 472.722277 -195.538011 
L 468.455319 -195.538011 
L 464.18836 -195.538011 
L 459.921401 -195.538011 
L 455.654442 -195.538011 
L 451.387483 -195.538011 
L 447.120524 -195.538011 
L 442.853566 -195.538011 
L 438.586607 -195.538011 
L 434.319648 -195.538011 
L 430.052689 -195.538011 
L 425.78573 -195.538011 
L 421.518772 -195.538011 
L 417.251813 -195.538011 
L 412.984854 -195.538011 
L 408.717895 -195.538011 
L 404.450936 -195.538011 
L 400.183978 -195.538011 
L 395.917019 -195.538011 
L 391.65006 -195.538011 
L 387.383101 -195.538011 
L 383.116142 -195.538011 
L 378.849184 -195.538011 
L 374.582225 -195.538011 
L 370.315266 -195.538011 
L 366.048307 -195.538011 
L 361.781348 -195.538011 
L 357.514389 -195.538011 
L 353.247431 -195.538011 
L 348.980472 -195.538011 
L 344.713513 -195.538011 
L 340.446554 -195.538011 
L 336.179595 -195.538011 
L 331.912637 -195.538011 
L 327.645678 -195.538011 
L 323.378719 -195.538011 
L 319.11176 -195.538011 
L 314.844801 -195.538011 
L 310.577843 -195.538011 
L 306.310884 -195.538011 
L 302.043925 -195.538011 
L 297.776966 -195.538011 
L 293.510007 -195.538011 
L 289.243048 -195.538011 
L 284.97609 -195.538011 
L 280.709131 -195.538011 
L 276.442172 -195.538011 
L 272.175213 -195.538011 
L 267.908254 -195.538011 
L 263.641296 -195.538011 
L 259.374337 -195.538011 
L 255.107378 -195.538011 
L 250.840419 -195.538011 
L 246.57346 -195.538011 
L 242.306502 -195.538011 
L 238.039543 -195.538011 
L 233.772584 -195.538011 
L 229.505625 -195.538011 
L 225.238666 -195.538011 
L 220.971708 -195.538011 
L 216.704749 -195.538011 
L 212.43779 -195.538011 
L 208.170831 -195.538011 
L 203.903872 -195.538011 
L 199.636913 -195.538011 
L 195.369955 -195.538011 
L 191.102996 -195.538011 
L 186.836037 -195.538011 
L 182.569078 -195.538011 
L 178.302119 -195.538011 
L 174.035161 -195.538011 
L 169.768202 -195.538011 
L 165.501243 -195.538011 
L 161.234284 -195.538011 
L 156.967325 -195.538011 
L 152.700367 -195.538011 
L 148.433408 -195.538011 
L 144.166449 -195.538011 
L 139.89949 -195.538011 
L 135.632531 -195.538011 
L 131.365573 -195.538011 
L 127.098614 -195.538011 
L 122.831655 -195.538011 
L 118.564696 -195.538011 
L 114.297737 -195.538011 
L 110.030778 -195.538011 
L 105.76382 -195.538011 
L 101.496861 -195.538011 
L 97.229902 -195.538011 
L 92.962943 -195.538011 
L 88.695984 -195.538011 
L 84.429026 -195.538011 
L 80.162067 -195.538011 
L 75.895108 -195.538011 
L 71.628149 -195.538011 
L 67.36119 -195.538011 
L 63.094232 -195.538011 
L 58.827273 -195.538011 
z
" id="m0946c4da4c" style="stroke:#36a2eb;stroke-opacity:0.5;"/>
    </defs>
    <g clip-path="url(#p400ffde684)">
     <use style="fill:#36a2eb;fill-opacity:0.5;stroke:#36a2eb;stroke-opacity:0.5;" x="0" xlink:href="#m0946c4da4c" y="581.789375"/>
    </g>
   </g>
   <g id="line2d_1">
    <path clip-path="url(#p400ffde684)" d="M 90.198127 386.140094 
L 94.49282 386.098137 
L 98.787513 386.041731 
L 103.082206 385.966427 
L 107.376899 385.866595 
L 111.671592 385.735165 
L 115.966285 385.56335 
L 120.260978 385.340315 
L 124.555671 385.05283 
L 128.850364 384.684891 
L 133.145057 384.217323 
L 137.43975 383.627384 
L 141.734443 382.888374 
L 146.029135 381.969286 
L 150.323828 380.834504 
L 154.618521 379.443595 
L 158.913214 377.751224 
L 163.207907 375.707218 
L 167.5026 373.256827 
L 171.797293 370.341212 
L 176.091986 366.898203 
L 180.386679 362.863338 
L 184.681372 358.171221 
L 188.976065 352.757201 
L 193.270758 346.559359 
L 197.565451 339.520799 
L 201.860144 331.592186 
L 206.154836 322.734471 
L 210.449529 312.921738 
L 214.744222 302.144047 
L 219.038915 290.41018 
L 223.333608 277.75014 
L 227.628301 264.217268 
L 231.922994 249.889848 
L 236.217687 234.87205 
L 240.51238 219.294098 
L 244.807073 203.311565 
L 249.101766 187.10373 
L 253.396459 170.870962 
L 257.691152 154.831146 
L 261.985845 139.215224 
L 266.280537 124.261935 
L 270.57523 110.211932 
L 274.869923 97.301456 
L 279.164616 85.755791 
L 283.459309 75.78277 
L 287.754002 67.566562 
L 292.048695 61.262027 
L 296.343388 56.989866 
L 300.638081 54.832771 
L 304.932774 54.832771 
L 309.227467 56.989866 
L 313.52216 61.262027 
L 317.816853 67.566562 
L 322.111546 75.78277 
L 326.406238 85.755791 
L 330.700931 97.301456 
L 334.995624 110.211932 
L 339.290317 124.261935 
L 343.58501 139.215224 
L 347.879703 154.831146 
L 352.174396 170.870962 
L 356.469089 187.10373 
L 360.763782 203.311565 
L 365.058475 219.294098 
L 369.353168 234.87205 
L 373.647861 249.889848 
L 377.942554 264.217268 
L 382.237247 277.75014 
L 386.531939 290.41018 
L 390.826632 302.144047 
L 395.121325 312.921738 
L 399.416018 322.734471 
L 403.710711 331.592186 
L 408.005404 339.520799 
L 412.300097 346.559359 
L 416.59479 352.757201 
L 420.889483 358.171221 
L 425.184176 362.863338 
L 429.478869 366.898203 
L 433.773562 370.341212 
L 438.068255 373.256827 
L 442.362948 375.707218 
L 446.65764 377.751224 
L 450.952333 379.443595 
L 455.247026 380.834504 
L 459.541719 381.969286 
L 463.836412 382.888374 
L 468.131105 383.627384 
L 472.425798 384.217323 
L 476.720491 384.684891 
L 481.015184 385.05283 
L 485.309877 385.340315 
L 489.60457 385.56335 
L 493.899263 385.735165 
L 498.193956 385.866595 
L 502.488648 385.966427 
L 506.783341 386.041731 
L 511.078034 386.098137 
L 515.372727 386.140094 
" style="fill:none;stroke:#ff6384;stroke-linecap:square;"/>
   </g>
   <g id="line2d_2">
    <path clip-path="url(#p400ffde684)" d="M 58.827273 386.139371 
L 63.094232 386.097141 
L 67.36119 386.040368 
L 71.628149 385.964575 
L 75.895108 385.864094 
L 80.162067 385.73181 
L 84.429026 385.558878 
L 88.695984 385.334393 
L 92.962943 385.04504 
L 97.229902 384.674709 
L 101.496861 384.204102 
L 105.76382 383.610328 
L 110.030778 382.866516 
L 114.297737 381.941454 
L 118.564696 380.799296 
L 122.831655 379.399346 
L 127.098614 377.695976 
L 131.365573 375.638684 
L 135.632531 373.172366 
L 139.89949 370.2378 
L 144.166449 366.772413 
L 148.433408 362.711322 
L 152.700367 357.988708 
L 156.967325 352.539497 
L 161.234284 346.301371 
L 165.501243 339.217063 
L 169.768202 331.236916 
L 174.035161 322.321628 
L 178.302119 312.445114 
L 182.569078 301.597371 
L 186.836037 289.787238 
L 191.102996 277.04491 
L 195.369955 263.424078 
L 199.636913 249.003534 
L 203.903872 233.888124 
L 208.170831 218.208919 
L 212.43779 202.122504 
L 216.704749 185.809323 
L 220.971708 169.471045 
L 225.238666 153.326975 
L 229.505625 137.609553 
L 233.772584 122.559072 
L 238.039543 108.417748 
L 242.306502 95.423357 
L 246.57346 83.802649 
L 250.840419 73.764805 
L 255.107378 65.495194 
L 259.374337 59.149682 
L 263.641296 54.849752 
L 267.908254 52.678636 
L 272.175213 52.678636 
L 276.442172 54.849752 
L 280.709131 59.149682 
L 284.97609 65.495194 
L 289.243048 73.764805 
L 293.510007 83.802649 
L 297.776966 95.423357 
L 302.043925 108.417748 
L 306.310884 122.559072 
L 310.577843 137.609553 
L 314.844801 153.326975 
L 319.11176 169.471045 
L 323.378719 185.809323 
L 327.645678 202.122504 
L 331.912637 218.208919 
L 336.179595 233.888124 
L 340.446554 249.003534 
L 344.713513 263.424078 
L 348.980472 277.04491 
L 353.247431 289.787238 
L 357.514389 301.597371 
L 361.781348 312.445114 
L 366.048307 322.321628 
L 370.315266 331.236916 
L 374.582225 339.217063 
L 378.849184 346.301371 
L 383.116142 352.539497 
L 387.383101 357.988708 
L 391.65006 362.711322 
L 395.917019 366.772413 
L 400.183978 370.2378 
L 404.450936 373.172366 
L 408.717895 375.638684 
L 412.984854 377.695976 
L 417.251813 379.399346 
L 421.518772 380.799296 
L 425.78573 381.941454 
L 430.052689 382.866516 
L 434.319648 383.610328 
L 438.586607 384.204102 
L 442.853566 384.674709 
L 447.120524 385.04504 
L 451.387483 385.334393 
L 455.654442 385.558878 
L 459.921401 385.73181 
L 464.18836 385.864094 
L 468.455319 385.964575 
L 472.722277 386.040368 
L 476.989236 386.097141 
L 481.256195 386.139371 
" style="fill:none;stroke:#36a2eb;stroke-linecap:square;"/>
   </g>
   <g id="patch_3">
    <path d="M 36 402.93 
L 538.2 402.93 
" style="fill:none;stroke:#000000;stroke-linecap:square;stroke-linejoin:miter;stroke-width:0.8;"/>
   </g>
   <g id="legend_1">
    <g id="patch_4">
     <path d="M 450.225313 88.29875 
L 528.4 88.29875 
Q 531.2 88.29875 531.2 85.49875 
L 531.2 45.8 
Q 531.2 43 528.4 43 
L 450.225313 43 
Q 447.425313 43 447.425313 45.8 
L 447.425313 85.49875 
Q 447.425313 88.29875 450.225313 88.29875 
z
" style="fill:#ffffff;opacity:0.8;stroke:#cccccc;stroke-linejoin:miter;"/>
    </g>
    <g id="patch_5">
     <path d="M 453.025313 59.237813 
L 481.025313 59.237813 
L 481.025313 49.437813 
L 453.025313 49.437813 
z
" style="fill:#ff6384;opacity:0.5;stroke:#ff6384;stroke-linejoin:miter;"/>
    </g>
    <g id="text_1">
     <!-- base -->
     <defs>
      <path d="M 48.6875 27.296875 
Q 48.6875 37.203125 44.609375 42.84375 
Q 40.53125 48.484375 33.40625 48.484375 
Q 26.265625 48.484375 22.1875 42.84375 
Q 18.109375 37.203125 18.109375 27.296875 
Q 18.109375 17.390625 22.1875 11.75 
Q 26.265625 6.109375 33.40625 6.109375 
Q 40.53125 6.109375 44.609375 11.75 
Q 48.6875 17.390625 48.6875 27.296875 
z
M 18.109375 46.390625 
Q 20.953125 51.265625 25.265625 53.625 
Q 29.59375 56 35.59375 56 
Q 45.5625 56 51.78125 48.09375 
Q 58.015625 40.1875 58.015625 27.296875 
Q 58.015625 14.40625 51.78125 6.484375 
Q 45.5625 -1.421875 35.59375 -1.421875 
Q 29.59375 -1.421875 25.265625 0.953125 
Q 20.953125 3.328125 18.109375 8.203125 
L 18.109375 0 
L 9.078125 0 
L 9.078125 75.984375 
L 18.109375 75.984375 
z
" id="DejaVuSans-98"/>
      <path d="M 34.28125 27.484375 
Q 23.390625 27.484375 19.1875 25 
Q 14.984375 22.515625 14.984375 16.5 
Q 14.984375 11.71875 18.140625 8.90625 
Q 21.296875 6.109375 26.703125 6.109375 
Q 34.1875 6.109375 38.703125 11.40625 
Q 43.21875 16.703125 43.21875 25.484375 
L 43.21875 27.484375 
z
M 52.203125 31.203125 
L 52.203125 0 
L 43.21875 0 
L 43.21875 8.296875 
Q 40.140625 3.328125 35.546875 0.953125 
Q 30.953125 -1.421875 24.3125 -1.421875 
Q 15.921875 -1.421875 10.953125 3.296875 
Q 6 8.015625 6 15.921875 
Q 6 25.140625 12.171875 29.828125 
Q 18.359375 34.515625 30.609375 34.515625 
L 43.21875 34.515625 
L 43.21875 35.40625 
Q 43.21875 41.609375 39.140625 45 
Q 35.0625 48.390625 27.6875 48.390625 
Q 23 48.390625 18.546875 47.265625 
Q 14.109375 46.140625 10.015625 43.890625 
L 10.015625 52.203125 
Q 14.9375 54.109375 19.578125 55.046875 
Q 24.21875 56 28.609375 56 
Q 40.484375 56 46.34375 49.84375 
Q 52.203125 43.703125 52.203125 31.203125 
z
" id="DejaVuSans-97"/>
      <path d="M 44.28125 53.078125 
L 44.28125 44.578125 
Q 40.484375 46.53125 36.375 47.5 
Q 32.28125 48.484375 27.875 48.484375 
Q 21.1875 48.484375 17.84375 46.4375 
Q 14.5 44.390625 14.5 40.28125 
Q 14.5 37.15625 16.890625 35.375 
Q 19.28125 33.59375 26.515625 31.984375 
L 29.59375 31.296875 
Q 39.15625 29.25 43.1875 25.515625 
Q 47.21875 21.78125 47.21875 15.09375 
Q 47.21875 7.46875 41.1875 3.015625 
Q 35.15625 -1.421875 24.609375 -1.421875 
Q 20.21875 -1.421875 15.453125 -0.5625 
Q 10.6875 0.296875 5.421875 2 
L 5.421875 11.28125 
Q 10.40625 8.6875 15.234375 7.390625 
Q 20.0625 6.109375 24.8125 6.109375 
Q 31.15625 6.109375 34.5625 8.28125 
Q 37.984375 10.453125 37.984375 14.40625 
Q 37.984375 18.0625 35.515625 20.015625 
Q 33.0625 21.96875 24.703125 23.78125 
L 21.578125 24.515625 
Q 13.234375 26.265625 9.515625 29.90625 
Q 5.8125 33.546875 5.8125 39.890625 
Q 5.8125 47.609375 11.28125 51.796875 
Q 16.75 56 26.8125 56 
Q 31.78125 56 36.171875 55.265625 
Q 40.578125 54.546875 44.28125 53.078125 
z
" id="DejaVuSans-115"/>
      <path d="M 56.203125 29.59375 
L 56.203125 25.203125 
L 14.890625 25.203125 
Q 15.484375 15.921875 20.484375 11.0625 
Q 25.484375 6.203125 34.421875 6.203125 
Q 39.59375 6.203125 44.453125 7.46875 
Q 49.3125 8.734375 54.109375 11.28125 
L 54.109375 2.78125 
Q 49.265625 0.734375 44.1875 -0.34375 
Q 39.109375 -1.421875 33.890625 -1.421875 
Q 20.796875 -1.421875 13.15625 6.1875 
Q 5.515625 13.8125 5.515625 26.8125 
Q 5.515625 40.234375 12.765625 48.109375 
Q 20.015625 56 32.328125 56 
Q 43.359375 56 49.78125 48.890625 
Q 56.203125 41.796875 56.203125 29.59375 
z
M 47.21875 32.234375 
Q 47.125 39.59375 43.09375 43.984375 
Q 39.0625 48.390625 32.421875 48.390625 
Q 24.90625 48.390625 20.390625 44.140625 
Q 15.875 39.890625 15.1875 32.171875 
z
" id="DejaVuSans-101"/>
     </defs>
     <g transform="translate(492.225313 59.237813)scale(0.14 -0.14)">
      <use xlink:href="#DejaVuSans-98"/>
      <use x="63.476562" xlink:href="#DejaVuSans-97"/>
      <use x="124.755859" xlink:href="#DejaVuSans-115"/>
      <use x="176.855469" xlink:href="#DejaVuSans-101"/>
     </g>
    </g>
    <g id="patch_6">
     <path d="M 453.025313 79.787188 
L 481.025313 79.787188 
L 481.025313 69.987188 
L 453.025313 69.987188 
z
" style="fill:#36a2eb;opacity:0.5;stroke:#36a2eb;stroke-linejoin:miter;"/>
    </g>
    <g id="text_2">
     <!-- new -->
     <defs>
      <path d="M 54.890625 33.015625 
L 54.890625 0 
L 45.90625 0 
L 45.90625 32.71875 
Q 45.90625 40.484375 42.875 44.328125 
Q 39.84375 48.1875 33.796875 48.1875 
Q 26.515625 48.1875 22.3125 43.546875 
Q 18.109375 38.921875 18.109375 30.90625 
L 18.109375 0 
L 9.078125 0 
L 9.078125 54.6875 
L 18.109375 54.6875 
L 18.109375 46.1875 
Q 21.34375 51.125 25.703125 53.5625 
Q 30.078125 56 35.796875 56 
Q 45.21875 56 50.046875 50.171875 
Q 54.890625 44.34375 54.890625 33.015625 
z
" id="DejaVuSans-110"/>
      <path d="M 4.203125 54.6875 
L 13.1875 54.6875 
L 24.421875 12.015625 
L 35.59375 54.6875 
L 46.1875 54.6875 
L 57.421875 12.015625 
L 68.609375 54.6875 
L 77.59375 54.6875 
L 63.28125 0 
L 52.6875 0 
L 40.921875 44.828125 
L 29.109375 0 
L 18.5 0 
z
" id="DejaVuSans-119"/>
     </defs>
     <g transform="translate(492.225313 79.787188)scale(0.14 -0.14)">
      <use xlink:href="#DejaVuSans-110"/>
      <use x="63.378906" xlink:href="#DejaVuSans-101"/>
      <use x="124.902344" xlink:href="#DejaVuSans-119"/>
     </g>
    </g>
   </g>
  </g>
  <g id="axes_2">
   <g id="patch_7">
    <path d="M 36 525.24 
L 538.2 525.24 
L 538.2 402.93 
L 36 402.93 
z
" style="fill:none;"/>
   </g>
   <g id="patch_8">
    <path clip-path="url(#p8fb991cc21)" d="M 198.61765 519.680455 
L 406.953204 519.680455 
L 406.953204 482.616818 
L 198.61765 482.616818 
z
" style="fill:#ff6384;opacity:0.5;"/>
   </g>
   <g id="patch_9">
    <path clip-path="url(#p8fb991cc21)" d="M 166.546648 445.553182 
L 373.53682 445.553182 
L 373.53682 408.489545 
L 166.546648 408.489545 
z
" style="fill:#36a2eb;opacity:0.5;"/>
   </g>
   <g id="matplotlib.axis_1">
    <g id="xtick_1">
     <g id="line2d_3">
      <defs>
       <path d="M 0 0 
L 0 3.5 
" id="m9cba755610" style="stroke:#000000;stroke-width:0.8;"/>
      </defs>
      <g>
       <use style="stroke:#000000;stroke-width:0.8;" x="57.207726" xlink:href="#m9cba755610" y="525.24"/>
      </g>
     </g>
     <g id="text_3">
      <!-- 4.0 -->
      <defs>
       <path d="M 37.796875 64.3125 
L 12.890625 25.390625 
L 37.796875 25.390625 
z
M 35.203125 72.90625 
L 47.609375 72.90625 
L 47.609375 25.390625 
L 58.015625 25.390625 
L 58.015625 17.1875 
L 47.609375 17.1875 
L 47.609375 0 
L 37.796875 0 
L 37.796875 17.1875 
L 4.890625 17.1875 
L 4.890625 26.703125 
z
" id="DejaVuSans-52"/>
       <path d="M 10.6875 12.40625 
L 21 12.40625 
L 21 0 
L 10.6875 0 
z
" id="DejaVuSans-46"/>
       <path d="M 31.78125 66.40625 
Q 24.171875 66.40625 20.328125 58.90625 
Q 16.5 51.421875 16.5 36.375 
Q 16.5 21.390625 20.328125 13.890625 
Q 24.171875 6.390625 31.78125 6.390625 
Q 39.453125 6.390625 43.28125 13.890625 
Q 47.125 21.390625 47.125 36.375 
Q 47.125 51.421875 43.28125 58.90625 
Q 39.453125 66.40625 31.78125 66.40625 
z
M 31.78125 74.21875 
Q 44.046875 74.21875 50.515625 64.515625 
Q 56.984375 54.828125 56.984375 36.375 
Q 56.984375 17.96875 50.515625 8.265625 
Q 44.046875 -1.421875 31.78125 -1.421875 
Q 19.53125 -1.421875 13.0625 8.265625 
Q 6.59375 17.96875 6.59375 36.375 
Q 6.59375 54.828125 13.0625 64.515625 
Q 19.53125 74.21875 31.78125 74.21875 
z
" id="DejaVuSans-48"/>
      </defs>
      <g transform="translate(46.075539 542.877813)scale(0.14 -0.14)">
       <use xlink:href="#DejaVuSans-52"/>
       <use x="63.623047" xlink:href="#DejaVuSans-46"/>
       <use x="95.410156" xlink:href="#DejaVuSans-48"/>
      </g>
     </g>
    </g>
    <g id="xtick_2">
     <g id="line2d_4">
      <g>
       <use style="stroke:#000000;stroke-width:0.8;" x="159.531768" xlink:href="#m9cba755610" y="525.24"/>
      </g>
     </g>
     <g id="text_4">
      <!-- 4.5 -->
      <defs>
       <path d="M 10.796875 72.90625 
L 49.515625 72.90625 
L 49.515625 64.59375 
L 19.828125 64.59375 
L 19.828125 46.734375 
Q 21.96875 47.46875 24.109375 47.828125 
Q 26.265625 48.1875 28.421875 48.1875 
Q 40.625 48.1875 47.75 41.5 
Q 54.890625 34.8125 54.890625 23.390625 
Q 54.890625 11.625 47.5625 5.09375 
Q 40.234375 -1.421875 26.90625 -1.421875 
Q 22.3125 -1.421875 17.546875 -0.640625 
Q 12.796875 0.140625 7.71875 1.703125 
L 7.71875 11.625 
Q 12.109375 9.234375 16.796875 8.0625 
Q 21.484375 6.890625 26.703125 6.890625 
Q 35.15625 6.890625 40.078125 11.328125 
Q 45.015625 15.765625 45.015625 23.390625 
Q 45.015625 31 40.078125 35.4375 
Q 35.15625 39.890625 26.703125 39.890625 
Q 22.75 39.890625 18.8125 39.015625 
Q 14.890625 38.140625 10.796875 36.28125 
z
" id="DejaVuSans-53"/>
      </defs>
      <g transform="translate(148.399581 542.877813)scale(0.14 -0.14)">
       <use xlink:href="#DejaVuSans-52"/>
       <use x="63.623047" xlink:href="#DejaVuSans-46"/>
       <use x="95.410156" xlink:href="#DejaVuSans-53"/>
      </g>
     </g>
    </g>
    <g id="xtick_3">
     <g id="line2d_5">
      <g>
       <use style="stroke:#000000;stroke-width:0.8;" x="261.85581" xlink:href="#m9cba755610" y="525.24"/>
      </g>
     </g>
     <g id="text_5">
      <!-- 5.0 -->
      <g transform="translate(250.723623 542.877813)scale(0.14 -0.14)">
       <use xlink:href="#DejaVuSans-53"/>
       <use x="63.623047" xlink:href="#DejaVuSans-46"/>
       <use x="95.410156" xlink:href="#DejaVuSans-48"/>
      </g>
     </g>
    </g>
    <g id="xtick_4">
     <g id="line2d_6">
      <g>
       <use style="stroke:#000000;stroke-width:0.8;" x="364.179853" xlink:href="#m9cba755610" y="525.24"/>
      </g>
     </g>
     <g id="text_6">
      <!-- 5.5 -->
      <g transform="translate(353.047665 542.877813)scale(0.14 -0.14)">
       <use xlink:href="#DejaVuSans-53"/>
       <use x="63.623047" xlink:href="#DejaVuSans-46"/>
       <use x="95.410156" xlink:href="#DejaVuSans-53"/>
      </g>
     </g>
    </g>
    <g id="xtick_5">
     <g id="line2d_7">
      <g>
       <use style="stroke:#000000;stroke-width:0.8;" x="466.503895" xlink:href="#m9cba755610" y="525.24"/>
      </g>
     </g>
     <g id="text_7">
      <!-- 6.0 -->
      <defs>
       <path d="M 33.015625 40.375 
Q 26.375 40.375 22.484375 35.828125 
Q 18.609375 31.296875 18.609375 23.390625 
Q 18.609375 15.53125 22.484375 10.953125 
Q 26.375 6.390625 33.015625 6.390625 
Q 39.65625 6.390625 43.53125 10.953125 
Q 47.40625 15.53125 47.40625 23.390625 
Q 47.40625 31.296875 43.53125 35.828125 
Q 39.65625 40.375 33.015625 40.375 
z
M 52.59375 71.296875 
L 52.59375 62.3125 
Q 48.875 64.0625 45.09375 64.984375 
Q 41.3125 65.921875 37.59375 65.921875 
Q 27.828125 65.921875 22.671875 59.328125 
Q 17.53125 52.734375 16.796875 39.40625 
Q 19.671875 43.65625 24.015625 45.921875 
Q 28.375 48.1875 33.59375 48.1875 
Q 44.578125 48.1875 50.953125 41.515625 
Q 57.328125 34.859375 57.328125 23.390625 
Q 57.328125 12.15625 50.6875 5.359375 
Q 44.046875 -1.421875 33.015625 -1.421875 
Q 20.359375 -1.421875 13.671875 8.265625 
Q 6.984375 17.96875 6.984375 36.375 
Q 6.984375 53.65625 15.1875 63.9375 
Q 23.390625 74.21875 37.203125 74.21875 
Q 40.921875 74.21875 44.703125 73.484375 
Q 48.484375 72.75 52.59375 71.296875 
z
" id="DejaVuSans-54"/>
      </defs>
      <g transform="translate(455.371707 542.877813)scale(0.14 -0.14)">
       <use xlink:href="#DejaVuSans-54"/>
       <use x="63.623047" xlink:href="#DejaVuSans-46"/>
       <use x="95.410156" xlink:href="#DejaVuSans-48"/>
      </g>
     </g>
    </g>
   </g>
   <g id="line2d_8">
    <path clip-path="url(#p8fb991cc21)" d="M 302.785427 525.24 
L 302.785427 402.93 
" style="fill:none;stroke:#ff6384;stroke-dasharray:5.55,2.4;stroke-dashoffset:0;stroke-opacity:0.8;stroke-width:1.5;"/>
   </g>
   <g id="line2d_9">
    <path clip-path="url(#p8fb991cc21)" d="M 270.041734 525.24 
L 270.041734 402.93 
" style="fill:none;stroke:#36a2eb;stroke-dasharray:5.55,2.4;stroke-dashoffset:0;stroke-opacity:0.8;stroke-width:1.5;"/>
   </g>
   <g id="patch_10">
    <path d="M 36 525.24 
L 538.2 525.24 
" style="fill:none;stroke:#000000;stroke-linecap:square;stroke-linejoin:miter;stroke-width:0.8;"/>
   </g>
  </g>
 </g>
 <defs>
  <clipPath id="p400ffde684">
   <rect height="366.93" width="502.2" x="36" y="36"/>
  </clipPath>
  <clipPath id="p8fb991cc21">
   <rect height="122.31" width="502.2" x="36" y="402.93"/>
  </clipPath>
 </defs>
</svg>
