<?xml version="1.0" encoding="utf-8" standalone="no"?>
<!DOCTYPE svg PUBLIC "-//W3C//DTD SVG 1.1//EN"
  "http://www.w3.org/Graphics/SVG/1.1/DTD/svg11.dtd">
<!-- Created with matplotlib (https://matplotlib.org/) -->
<svg height="581.789375pt" version="1.1" viewBox="0 0 574.2 581.789375" width="574.2pt" xmlns="http://www.w3.org/2000/svg" xmlns:xlink="http://www.w3.org/1999/xlink">
 <defs>
  <style type="text/css">
*{stroke-linecap:butt;stroke-linejoin:round;}
  </style>
 </defs>
 <g id="figure_1">
  <g id="patch_1">
   <path d="M 0 581.789375 
L 574.2 581.789375 
L 574.2 0 
L 0 0 
z
" style="fill:none;"/>
  </g>
  <g id="axes_1">
   <g id="patch_2">
    <path d="M 36 402.93 
L 538.2 402.93 
L 538.2 36 
L 36 36 
z
" style="fill:none;"/>
   </g>
   <g id="PolyCollection_1">
    <defs>
     <path d="M 92.044778 -195.538011 
L 92.044778 -195.638759 
L 96.320818 -195.676749 
L 100.596858 -195.727821 
L 104.872898 -195.796004 
L 109.148938 -195.886396 
L 113.424978 -196.005397 
L 117.701018 -196.160965 
L 121.977057 -196.36291 
L 126.253097 -196.62321 
L 130.529137 -196.956356 
L 134.805177 -197.37971 
L 139.081217 -197.913863 
L 143.357257 -198.582991 
L 147.633297 -199.415168 
L 151.909337 -200.442644 
L 156.185377 -201.702026 
L 160.461416 -203.234363 
L 164.737456 -205.085084 
L 169.013496 -207.303763 
L 173.289536 -209.943672 
L 177.565576 -213.061104 
L 181.841616 -216.714425 
L 186.117656 -220.962848 
L 190.393696 -225.864909 
L 194.669736 -231.476673 
L 198.945775 -237.849654 
L 203.221815 -245.028524 
L 207.497855 -253.048638 
L 211.773895 -261.933463 
L 216.049935 -271.691997 
L 220.325975 -282.316289 
L 224.602015 -293.779175 
L 228.878055 -306.032355 
L 233.154095 -319.00495 
L 237.430134 -332.602639 
L 241.706174 -346.707513 
L 245.982214 -361.178711 
L 250.258254 -375.853905 
L 254.534294 -390.551676 
L 258.810334 -405.074739 
L 263.086374 -419.213993 
L 267.362414 -432.753273 
L 271.638454 -445.474683 
L 275.914493 -457.164323 
L 280.190533 -467.61821 
L 284.466573 -476.648166 
L 288.742613 -484.087435 
L 293.018653 -489.795802 
L 297.294693 -493.663981 
L 301.570733 -495.617097 
L 305.846773 -495.617097 
L 310.122813 -493.663981 
L 314.398852 -489.795802 
L 318.674892 -484.087435 
L 322.950932 -476.648166 
L 327.226972 -467.61821 
L 331.503012 -457.164323 
L 335.779052 -445.474683 
L 340.055092 -432.753273 
L 344.331132 -419.213993 
L 348.607172 -405.074739 
L 352.883211 -390.551676 
L 357.159251 -375.853905 
L 361.435291 -361.178711 
L 365.711331 -346.707513 
L 369.987371 -332.602639 
L 374.263411 -319.00495 
L 378.539451 -306.032355 
L 382.815491 -293.779175 
L 387.091531 -282.316289 
L 391.36757 -271.691997 
L 395.64361 -261.933463 
L 399.91965 -253.048638 
L 404.19569 -245.028524 
L 408.47173 -237.849654 
L 412.74777 -231.476673 
L 417.02381 -225.864909 
L 421.29985 -220.962848 
L 425.57589 -216.714425 
L 429.851929 -213.061104 
L 434.127969 -209.943672 
L 438.404009 -207.303763 
L 442.680049 -205.085084 
L 446.956089 -203.234363 
L 451.232129 -201.702026 
L 455.508169 -200.442644 
L 459.784209 -199.415168 
L 464.060249 -198.582991 
L 468.336288 -197.913863 
L 472.612328 -197.37971 
L 476.888368 -196.956356 
L 481.164408 -196.62321 
L 485.440448 -196.36291 
L 489.716488 -196.160965 
L 493.992528 -196.005397 
L 498.268568 -195.886396 
L 502.544608 -195.796004 
L 506.820647 -195.727821 
L 511.096687 -195.676749 
L 515.372727 -195.638759 
L 515.372727 -195.538011 
L 515.372727 -195.538011 
L 511.096687 -195.538011 
L 506.820647 -195.538011 
L 502.544608 -195.538011 
L 498.268568 -195.538011 
L 493.992528 -195.538011 
L 489.716488 -195.538011 
L 485.440448 -195.538011 
L 481.164408 -195.538011 
L 476.888368 -195.538011 
L 472.612328 -195.538011 
L 468.336288 -195.538011 
L 464.060249 -195.538011 
L 459.784209 -195.538011 
L 455.508169 -195.538011 
L 451.232129 -195.538011 
L 446.956089 -195.538011 
L 442.680049 -195.538011 
L 438.404009 -195.538011 
L 434.127969 -195.538011 
L 429.851929 -195.538011 
L 425.57589 -195.538011 
L 421.29985 -195.538011 
L 417.02381 -195.538011 
L 412.74777 -195.538011 
L 408.47173 -195.538011 
L 404.19569 -195.538011 
L 399.91965 -195.538011 
L 395.64361 -195.538011 
L 391.36757 -195.538011 
L 387.091531 -195.538011 
L 382.815491 -195.538011 
L 378.539451 -195.538011 
L 374.263411 -195.538011 
L 369.987371 -195.538011 
L 365.711331 -195.538011 
L 361.435291 -195.538011 
L 357.159251 -195.538011 
L 352.883211 -195.538011 
L 348.607172 -195.538011 
L 344.331132 -195.538011 
L 340.055092 -195.538011 
L 335.779052 -195.538011 
L 331.503012 -195.538011 
L 327.226972 -195.538011 
L 322.950932 -195.538011 
L 318.674892 -195.538011 
L 314.398852 -195.538011 
L 310.122813 -195.538011 
L 305.846773 -195.538011 
L 301.570733 -195.538011 
L 297.294693 -195.538011 
L 293.018653 -195.538011 
L 288.742613 -195.538011 
L 284.466573 -195.538011 
L 280.190533 -195.538011 
L 275.914493 -195.538011 
L 271.638454 -195.538011 
L 267.362414 -195.538011 
L 263.086374 -195.538011 
L 258.810334 -195.538011 
L 254.534294 -195.538011 
L 250.258254 -195.538011 
L 245.982214 -195.538011 
L 241.706174 -195.538011 
L 237.430134 -195.538011 
L 233.154095 -195.538011 
L 228.878055 -195.538011 
L 224.602015 -195.538011 
L 220.325975 -195.538011 
L 216.049935 -195.538011 
L 211.773895 -195.538011 
L 207.497855 -195.538011 
L 203.221815 -195.538011 
L 198.945775 -195.538011 
L 194.669736 -195.538011 
L 190.393696 -195.538011 
L 186.117656 -195.538011 
L 181.841616 -195.538011 
L 177.565576 -195.538011 
L 173.289536 -195.538011 
L 169.013496 -195.538011 
L 164.737456 -195.538011 
L 160.461416 -195.538011 
L 156.185377 -195.538011 
L 151.909337 -195.538011 
L 147.633297 -195.538011 
L 143.357257 -195.538011 
L 139.081217 -195.538011 
L 134.805177 -195.538011 
L 130.529137 -195.538011 
L 126.253097 -195.538011 
L 121.977057 -195.538011 
L 117.701018 -195.538011 
L 113.424978 -195.538011 
L 109.148938 -195.538011 
L 104.872898 -195.538011 
L 100.596858 -195.538011 
L 96.320818 -195.538011 
L 92.044778 -195.538011 
z
" id="m2cd79f1b63" style="stroke:#ff6384;stroke-opacity:0.5;"/>
    </defs>
    <g clip-path="url(#pc31167c7d0)">
     <use style="fill:#ff6384;fill-opacity:0.5;stroke:#ff6384;stroke-opacity:0.5;" x="0" xlink:href="#m2cd79f1b63" y="581.789375"/>
    </g>
   </g>
   <g id="PolyCollection_2">
    <defs>
     <path d="M 58.827273 -195.538011 
L 58.827273 -195.650004 
L 62.673961 -195.692234 
L 66.520648 -195.749007 
L 70.367336 -195.8248 
L 74.214024 -195.925281 
L 78.060712 -196.057565 
L 81.9074 -196.230497 
L 85.754087 -196.454982 
L 89.600775 -196.744335 
L 93.447463 -197.114666 
L 97.294151 -197.585273 
L 101.140839 -198.179047 
L 104.987526 -198.922859 
L 108.834214 -199.847921 
L 112.680902 -200.990079 
L 116.52759 -202.390029 
L 120.374278 -204.093399 
L 124.220965 -206.150691 
L 128.067653 -208.617009 
L 131.914341 -211.551575 
L 135.761029 -215.016962 
L 139.607717 -219.078053 
L 143.454404 -223.800667 
L 147.301092 -229.249878 
L 151.14778 -235.488004 
L 154.994468 -242.572312 
L 158.841156 -250.552459 
L 162.687843 -259.467747 
L 166.534531 -269.344261 
L 170.381219 -280.192004 
L 174.227907 -292.002137 
L 178.074595 -304.744465 
L 181.921282 -318.365297 
L 185.76797 -332.785841 
L 189.614658 -347.901251 
L 193.461346 -363.580456 
L 197.308034 -379.666871 
L 201.154721 -395.980052 
L 205.001409 -412.31833 
L 208.848097 -428.4624 
L 212.694785 -444.179822 
L 216.541473 -459.230303 
L 220.38816 -473.371627 
L 224.234848 -486.366018 
L 228.081536 -497.986726 
L 231.928224 -508.02457 
L 235.774912 -516.294181 
L 239.621599 -522.639693 
L 243.468287 -526.939623 
L 247.314975 -529.110739 
L 251.161663 -529.110739 
L 255.008351 -526.939623 
L 258.855038 -522.639693 
L 262.701726 -516.294181 
L 266.548414 -508.02457 
L 270.395102 -497.986726 
L 274.24179 -486.366018 
L 278.088477 -473.371627 
L 281.935165 -459.230303 
L 285.781853 -444.179822 
L 289.628541 -428.4624 
L 293.475229 -412.31833 
L 297.321917 -395.980052 
L 301.168604 -379.666871 
L 305.015292 -363.580456 
L 308.86198 -347.901251 
L 312.708668 -332.785841 
L 316.555356 -318.365297 
L 320.402043 -304.744465 
L 324.248731 -292.002137 
L 328.095419 -280.192004 
L 331.942107 -269.344261 
L 335.788795 -259.467747 
L 339.635482 -250.552459 
L 343.48217 -242.572312 
L 347.328858 -235.488004 
L 351.175546 -229.249878 
L 355.022234 -223.800667 
L 358.868921 -219.078053 
L 362.715609 -215.016962 
L 366.562297 -211.551575 
L 370.408985 -208.617009 
L 374.255673 -206.150691 
L 378.10236 -204.093399 
L 381.949048 -202.390029 
L 385.795736 -200.990079 
L 389.642424 -199.847921 
L 393.489112 -198.922859 
L 397.335799 -198.179047 
L 401.182487 -197.585273 
L 405.029175 -197.114666 
L 408.875863 -196.744335 
L 412.722551 -196.454982 
L 416.569238 -196.230497 
L 420.415926 -196.057565 
L 424.262614 -195.925281 
L 428.109302 -195.8248 
L 431.95599 -195.749007 
L 435.802677 -195.692234 
L 439.649365 -195.650004 
L 439.649365 -195.538011 
L 439.649365 -195.538011 
L 435.802677 -195.538011 
L 431.95599 -195.538011 
L 428.109302 -195.538011 
L 424.262614 -195.538011 
L 420.415926 -195.538011 
L 416.569238 -195.538011 
L 412.722551 -195.538011 
L 408.875863 -195.538011 
L 405.029175 -195.538011 
L 401.182487 -195.538011 
L 397.335799 -195.538011 
L 393.489112 -195.538011 
L 389.642424 -195.538011 
L 385.795736 -195.538011 
L 381.949048 -195.538011 
L 378.10236 -195.538011 
L 374.255673 -195.538011 
L 370.408985 -195.538011 
L 366.562297 -195.538011 
L 362.715609 -195.538011 
L 358.868921 -195.538011 
L 355.022234 -195.538011 
L 351.175546 -195.538011 
L 347.328858 -195.538011 
L 343.48217 -195.538011 
L 339.635482 -195.538011 
L 335.788795 -195.538011 
L 331.942107 -195.538011 
L 328.095419 -195.538011 
L 324.248731 -195.538011 
L 320.402043 -195.538011 
L 316.555356 -195.538011 
L 312.708668 -195.538011 
L 308.86198 -195.538011 
L 305.015292 -195.538011 
L 301.168604 -195.538011 
L 297.321917 -195.538011 
L 293.475229 -195.538011 
L 289.628541 -195.538011 
L 285.781853 -195.538011 
L 281.935165 -195.538011 
L 278.088477 -195.538011 
L 274.24179 -195.538011 
L 270.395102 -195.538011 
L 266.548414 -195.538011 
L 262.701726 -195.538011 
L 258.855038 -195.538011 
L 255.008351 -195.538011 
L 251.161663 -195.538011 
L 247.314975 -195.538011 
L 243.468287 -195.538011 
L 239.621599 -195.538011 
L 235.774912 -195.538011 
L 231.928224 -195.538011 
L 228.081536 -195.538011 
L 224.234848 -195.538011 
L 220.38816 -195.538011 
L 216.541473 -195.538011 
L 212.694785 -195.538011 
L 208.848097 -195.538011 
L 205.001409 -195.538011 
L 201.154721 -195.538011 
L 197.308034 -195.538011 
L 193.461346 -195.538011 
L 189.614658 -195.538011 
L 185.76797 -195.538011 
L 181.921282 -195.538011 
L 178.074595 -195.538011 
L 174.227907 -195.538011 
L 170.381219 -195.538011 
L 166.534531 -195.538011 
L 162.687843 -195.538011 
L 158.841156 -195.538011 
L 154.994468 -195.538011 
L 151.14778 -195.538011 
L 147.301092 -195.538011 
L 143.454404 -195.538011 
L 139.607717 -195.538011 
L 135.761029 -195.538011 
L 131.914341 -195.538011 
L 128.067653 -195.538011 
L 124.220965 -195.538011 
L 120.374278 -195.538011 
L 116.52759 -195.538011 
L 112.680902 -195.538011 
L 108.834214 -195.538011 
L 104.987526 -195.538011 
L 101.140839 -195.538011 
L 97.294151 -195.538011 
L 93.447463 -195.538011 
L 89.600775 -195.538011 
L 85.754087 -195.538011 
L 81.9074 -195.538011 
L 78.060712 -195.538011 
L 74.214024 -195.538011 
L 70.367336 -195.538011 
L 66.520648 -195.538011 
L 62.673961 -195.538011 
L 58.827273 -195.538011 
z
" id="me7a4f091d1" style="stroke:#36a2eb;stroke-opacity:0.5;"/>
    </defs>
    <g clip-path="url(#pc31167c7d0)">
     <use style="fill:#36a2eb;fill-opacity:0.5;stroke:#36a2eb;stroke-opacity:0.5;" x="0" xlink:href="#me7a4f091d1" y="581.789375"/>
    </g>
   </g>
   <g id="line2d_1">
    <path clip-path="url(#pc31167c7d0)" d="M 92.044778 386.150616 
L 96.320818 386.112626 
L 100.596858 386.061554 
L 104.872898 385.993371 
L 109.148938 385.902979 
L 113.424978 385.783978 
L 117.701018 385.62841 
L 121.977057 385.426465 
L 126.253097 385.166165 
L 130.529137 384.833019 
L 134.805177 384.409665 
L 139.081217 383.875512 
L 143.357257 383.206384 
L 147.633297 382.374207 
L 151.909337 381.346731 
L 156.185377 380.087349 
L 160.461416 378.555012 
L 164.737456 376.704291 
L 169.013496 374.485612 
L 173.289536 371.845703 
L 177.565576 368.728271 
L 181.841616 365.07495 
L 186.117656 360.826527 
L 190.393696 355.924466 
L 194.669736 350.312702 
L 198.945775 343.939721 
L 203.221815 336.760851 
L 207.497855 328.740737 
L 211.773895 319.855912 
L 216.049935 310.097378 
L 220.325975 299.473086 
L 224.602015 288.0102 
L 228.878055 275.75702 
L 233.154095 262.784425 
L 237.430134 249.186736 
L 241.706174 235.081862 
L 245.982214 220.610664 
L 250.258254 205.93547 
L 254.534294 191.237699 
L 258.810334 176.714636 
L 263.086374 162.575382 
L 267.362414 149.036102 
L 271.638454 136.314692 
L 275.914493 124.625052 
L 280.190533 114.171165 
L 284.466573 105.141209 
L 288.742613 97.70194 
L 293.018653 91.993573 
L 297.294693 88.125394 
L 301.570733 86.172278 
L 305.846773 86.172278 
L 310.122813 88.125394 
L 314.398852 91.993573 
L 318.674892 97.70194 
L 322.950932 105.141209 
L 327.226972 114.171165 
L 331.503012 124.625052 
L 335.779052 136.314692 
L 340.055092 149.036102 
L 344.331132 162.575382 
L 348.607172 176.714636 
L 352.883211 191.237699 
L 357.159251 205.93547 
L 361.435291 220.610664 
L 365.711331 235.081862 
L 369.987371 249.186736 
L 374.263411 262.784425 
L 378.539451 275.75702 
L 382.815491 288.0102 
L 387.091531 299.473086 
L 391.36757 310.097378 
L 395.64361 319.855912 
L 399.91965 328.740737 
L 404.19569 336.760851 
L 408.47173 343.939721 
L 412.74777 350.312702 
L 417.02381 355.924466 
L 421.29985 360.826527 
L 425.57589 365.07495 
L 429.851929 368.728271 
L 434.127969 371.845703 
L 438.404009 374.485612 
L 442.680049 376.704291 
L 446.956089 378.555012 
L 451.232129 380.087349 
L 455.508169 381.346731 
L 459.784209 382.374207 
L 464.060249 383.206384 
L 468.336288 383.875512 
L 472.612328 384.409665 
L 476.888368 384.833019 
L 481.164408 385.166165 
L 485.440448 385.426465 
L 489.716488 385.62841 
L 493.992528 385.783978 
L 498.268568 385.902979 
L 502.544608 385.993371 
L 506.820647 386.061554 
L 511.096687 386.112626 
L 515.372727 386.150616 
" style="fill:none;stroke:#ff6384;stroke-linecap:square;"/>
   </g>
   <g id="line2d_2">
    <path clip-path="url(#pc31167c7d0)" d="M 58.827273 386.139371 
L 62.673961 386.097141 
L 66.520648 386.040368 
L 70.367336 385.964575 
L 74.214024 385.864094 
L 78.060712 385.73181 
L 81.9074 385.558878 
L 85.754087 385.334393 
L 89.600775 385.04504 
L 93.447463 384.674709 
L 97.294151 384.204102 
L 101.140839 383.610328 
L 104.987526 382.866516 
L 108.834214 381.941454 
L 112.680902 380.799296 
L 116.52759 379.399346 
L 120.374278 377.695976 
L 124.220965 375.638684 
L 128.067653 373.172366 
L 131.914341 370.2378 
L 135.761029 366.772413 
L 139.607717 362.711322 
L 143.454404 357.988708 
L 147.301092 352.539497 
L 151.14778 346.301371 
L 154.994468 339.217063 
L 158.841156 331.236916 
L 162.687843 322.321628 
L 166.534531 312.445114 
L 170.381219 301.597371 
L 174.227907 289.787238 
L 178.074595 277.04491 
L 181.921282 263.424078 
L 185.76797 249.003534 
L 189.614658 233.888124 
L 193.461346 218.208919 
L 197.308034 202.122504 
L 201.154721 185.809323 
L 205.001409 169.471045 
L 208.848097 153.326975 
L 212.694785 137.609553 
L 216.541473 122.559072 
L 220.38816 108.417748 
L 224.234848 95.423357 
L 228.081536 83.802649 
L 231.928224 73.764805 
L 235.774912 65.495194 
L 239.621599 59.149682 
L 243.468287 54.849752 
L 247.314975 52.678636 
L 251.161663 52.678636 
L 255.008351 54.849752 
L 258.855038 59.149682 
L 262.701726 65.495194 
L 266.548414 73.764805 
L 270.395102 83.802649 
L 274.24179 95.423357 
L 278.088477 108.417748 
L 281.935165 122.559072 
L 285.781853 137.609553 
L 289.628541 153.326975 
L 293.475229 169.471045 
L 297.321917 185.809323 
L 301.168604 202.122504 
L 305.015292 218.208919 
L 308.86198 233.888124 
L 312.708668 249.003534 
L 316.555356 263.424078 
L 320.402043 277.04491 
L 324.248731 289.787238 
L 328.095419 301.597371 
L 331.942107 312.445114 
L 335.788795 322.321628 
L 339.635482 331.236916 
L 343.48217 339.217063 
L 347.328858 346.301371 
L 351.175546 352.539497 
L 355.022234 357.988708 
L 358.868921 362.711322 
L 362.715609 366.772413 
L 366.562297 370.2378 
L 370.408985 373.172366 
L 374.255673 375.638684 
L 378.10236 377.695976 
L 381.949048 379.399346 
L 385.795736 380.799296 
L 389.642424 381.941454 
L 393.489112 382.866516 
L 397.335799 383.610328 
L 401.182487 384.204102 
L 405.029175 384.674709 
L 408.875863 385.04504 
L 412.722551 385.334393 
L 416.569238 385.558878 
L 420.415926 385.73181 
L 424.262614 385.864094 
L 428.109302 385.964575 
L 431.95599 386.040368 
L 435.802677 386.097141 
L 439.649365 386.139371 
" style="fill:none;stroke:#36a2eb;stroke-linecap:square;"/>
   </g>
   <g id="patch_3">
    <path d="M 36 402.93 
L 538.2 402.93 
" style="fill:none;stroke:#000000;stroke-linecap:square;stroke-linejoin:miter;stroke-width:0.8;"/>
   </g>
   <g id="legend_1">
    <g id="patch_4">
     <path d="M 450.225313 88.29875 
L 528.4 88.29875 
Q 531.2 88.29875 531.2 85.49875 
L 531.2 45.8 
Q 531.2 43 528.4 43 
L 450.225313 43 
Q 447.425313 43 447.425313 45.8 
L 447.425313 85.49875 
Q 447.425313 88.29875 450.225313 88.29875 
z
" style="fill:#ffffff;opacity:0.8;stroke:#cccccc;stroke-linejoin:miter;"/>
    </g>
    <g id="patch_5">
     <path d="M 453.025313 59.237813 
L 481.025313 59.237813 
L 481.025313 49.437813 
L 453.025313 49.437813 
z
" style="fill:#ff6384;opacity:0.5;stroke:#ff6384;stroke-linejoin:miter;"/>
    </g>
    <g id="text_1">
     <!-- base -->
     <defs>
      <path d="M 48.6875 27.296875 
Q 48.6875 37.203125 44.609375 42.84375 
Q 40.53125 48.484375 33.40625 48.484375 
Q 26.265625 48.484375 22.1875 42.84375 
Q 18.109375 37.203125 18.109375 27.296875 
Q 18.109375 17.390625 22.1875 11.75 
Q 26.265625 6.109375 33.40625 6.109375 
Q 40.53125 6.109375 44.609375 11.75 
Q 48.6875 17.390625 48.6875 27.296875 
z
M 18.109375 46.390625 
Q 20.953125 51.265625 25.265625 53.625 
Q 29.59375 56 35.59375 56 
Q 45.5625 56 51.78125 48.09375 
Q 58.015625 40.1875 58.015625 27.296875 
Q 58.015625 14.40625 51.78125 6.484375 
Q 45.5625 -1.421875 35.59375 -1.421875 
Q 29.59375 -1.421875 25.265625 0.953125 
Q 20.953125 3.328125 18.109375 8.203125 
L 18.109375 0 
L 9.078125 0 
L 9.078125 75.984375 
L 18.109375 75.984375 
z
" id="DejaVuSans-98"/>
      <path d="M 34.28125 27.484375 
Q 23.390625 27.484375 19.1875 25 
Q 14.984375 22.515625 14.984375 16.5 
Q 14.984375 11.71875 18.140625 8.90625 
Q 21.296875 6.109375 26.703125 6.109375 
Q 34.1875 6.109375 38.703125 11.40625 
Q 43.21875 16.703125 43.21875 25.484375 
L 43.21875 27.484375 
z
M 52.203125 31.203125 
L 52.203125 0 
L 43.21875 0 
L 43.21875 8.296875 
Q 40.140625 3.328125 35.546875 0.953125 
Q 30.953125 -1.421875 24.3125 -1.421875 
Q 15.921875 -1.421875 10.953125 3.296875 
Q 6 8.015625 6 15.921875 
Q 6 25.140625 12.171875 29.828125 
Q 18.359375 34.515625 30.609375 34.515625 
L 43.21875 34.515625 
L 43.21875 35.40625 
Q 43.21875 41.609375 39.140625 45 
Q 35.0625 48.390625 27.6875 48.390625 
Q 23 48.390625 18.546875 47.265625 
Q 14.109375 46.140625 10.015625 43.890625 
L 10.015625 52.203125 
Q 14.9375 54.109375 19.578125 55.046875 
Q 24.21875 56 28.609375 56 
Q 40.484375 56 46.34375 49.84375 
Q 52.203125 43.703125 52.203125 31.203125 
z
" id="DejaVuSans-97"/>
      <path d="M 44.28125 53.078125 
L 44.28125 44.578125 
Q 40.484375 46.53125 36.375 47.5 
Q 32.28125 48.484375 27.875 48.484375 
Q 21.1875 48.484375 17.84375 46.4375 
Q 14.5 44.390625 14.5 40.28125 
Q 14.5 37.15625 16.890625 35.375 
Q 19.28125 33.59375 26.515625 31.984375 
L 29.59375 31.296875 
Q 39.15625 29.25 43.1875 25.515625 
Q 47.21875 21.78125 47.21875 15.09375 
Q 47.21875 7.46875 41.1875 3.015625 
Q 35.15625 -1.421875 24.609375 -1.421875 
Q 20.21875 -1.421875 15.453125 -0.5625 
Q 10.6875 0.296875 5.421875 2 
L 5.421875 11.28125 
Q 10.40625 8.6875 15.234375 7.390625 
Q 20.0625 6.109375 24.8125 6.109375 
Q 31.15625 6.109375 34.5625 8.28125 
Q 37.984375 10.453125 37.984375 14.40625 
Q 37.984375 18.0625 35.515625 20.015625 
Q 33.0625 21.96875 24.703125 23.78125 
L 21.578125 24.515625 
Q 13.234375 26.265625 9.515625 29.90625 
Q 5.8125 33.546875 5.8125 39.890625 
Q 5.8125 47.609375 11.28125 51.796875 
Q 16.75 56 26.8125 56 
Q 31.78125 56 36.171875 55.265625 
Q 40.578125 54.546875 44.28125 53.078125 
z
" id="DejaVuSans-115"/>
      <path d="M 56.203125 29.59375 
L 56.203125 25.203125 
L 14.890625 25.203125 
Q 15.484375 15.921875 20.484375 11.0625 
Q 25.484375 6.203125 34.421875 6.203125 
Q 39.59375 6.203125 44.453125 7.46875 
Q 49.3125 8.734375 54.109375 11.28125 
L 54.109375 2.78125 
Q 49.265625 0.734375 44.1875 -0.34375 
Q 39.109375 -1.421875 33.890625 -1.421875 
Q 20.796875 -1.421875 13.15625 6.1875 
Q 5.515625 13.8125 5.515625 26.8125 
Q 5.515625 40.234375 12.765625 48.109375 
Q 20.015625 56 32.328125 56 
Q 43.359375 56 49.78125 48.890625 
Q 56.203125 41.796875 56.203125 29.59375 
z
M 47.21875 32.234375 
Q 47.125 39.59375 43.09375 43.984375 
Q 39.0625 48.390625 32.421875 48.390625 
Q 24.90625 48.390625 20.390625 44.140625 
Q 15.875 39.890625 15.1875 32.171875 
z
" id="DejaVuSans-101"/>
     </defs>
     <g transform="translate(492.225313 59.237813)scale(0.14 -0.14)">
      <use xlink:href="#DejaVuSans-98"/>
      <use x="63.476562" xlink:href="#DejaVuSans-97"/>
      <use x="124.755859" xlink:href="#DejaVuSans-115"/>
      <use x="176.855469" xlink:href="#DejaVuSans-101"/>
     </g>
    </g>
    <g id="patch_6">
     <path d="M 453.025313 79.787188 
L 481.025313 79.787188 
L 481.025313 69.987188 
L 453.025313 69.987188 
z
" style="fill:#36a2eb;opacity:0.5;stroke:#36a2eb;stroke-linejoin:miter;"/>
    </g>
    <g id="text_2">
     <!-- new -->
     <defs>
      <path d="M 54.890625 33.015625 
L 54.890625 0 
L 45.90625 0 
L 45.90625 32.71875 
Q 45.90625 40.484375 42.875 44.328125 
Q 39.84375 48.1875 33.796875 48.1875 
Q 26.515625 48.1875 22.3125 43.546875 
Q 18.109375 38.921875 18.109375 30.90625 
L 18.109375 0 
L 9.078125 0 
L 9.078125 54.6875 
L 18.109375 54.6875 
L 18.109375 46.1875 
Q 21.34375 51.125 25.703125 53.5625 
Q 30.078125 56 35.796875 56 
Q 45.21875 56 50.046875 50.171875 
Q 54.890625 44.34375 54.890625 33.015625 
z
" id="DejaVuSans-110"/>
      <path d="M 4.203125 54.6875 
L 13.1875 54.6875 
L 24.421875 12.015625 
L 35.59375 54.6875 
L 46.1875 54.6875 
L 57.421875 12.015625 
L 68.609375 54.6875 
L 77.59375 54.6875 
L 63.28125 0 
L 52.6875 0 
L 40.921875 44.828125 
L 29.109375 0 
L 18.5 0 
z
" id="DejaVuSans-119"/>
     </defs>
     <g transform="translate(492.225313 79.787188)scale(0.14 -0.14)">
      <use xlink:href="#DejaVuSans-110"/>
      <use x="63.378906" xlink:href="#DejaVuSans-101"/>
      <use x="124.902344" xlink:href="#DejaVuSans-119"/>
     </g>
    </g>
   </g>
  </g>
  <g id="axes_2">
   <g id="patch_7">
    <path d="M 36 525.24 
L 538.2 525.24 
L 538.2 402.93 
L 36 402.93 
z
" style="fill:none;"/>
   </g>
   <g id="patch_8">
    <path clip-path="url(#p12939faddd)" d="M 199.993405 519.680455 
L 407.4241 519.680455 
L 407.4241 482.616818 
L 199.993405 482.616818 
z
" style="fill:#ff6384;opacity:0.5;"/>
   </g>
   <g id="patch_9">
    <path clip-path="url(#p12939faddd)" d="M 155.936906 445.553182 
L 342.539732 445.553182 
L 342.539732 408.489545 
L 155.936906 408.489545 
z
" style="fill:#36a2eb;opacity:0.5;"/>
   </g>
   <g id="matplotlib.axis_1">
    <g id="xtick_1">
     <g id="line2d_3">
      <defs>
       <path d="M 0 0 
L 0 3.5 
" id="m3fd5f7ec96" style="stroke:#000000;stroke-width:0.8;"/>
      </defs>
      <g>
       <use style="stroke:#000000;stroke-width:0.8;" x="94.693655" xlink:href="#m3fd5f7ec96" y="525.24"/>
      </g>
     </g>
     <g id="text_3">
      <!-- 7.75 -->
      <defs>
       <path d="M 8.203125 72.90625 
L 55.078125 72.90625 
L 55.078125 68.703125 
L 28.609375 0 
L 18.3125 0 
L 43.21875 64.59375 
L 8.203125 64.59375 
z
" id="DejaVuSans-55"/>
       <path d="M 10.6875 12.40625 
L 21 12.40625 
L 21 0 
L 10.6875 0 
z
" id="DejaVuSans-46"/>
       <path d="M 10.796875 72.90625 
L 49.515625 72.90625 
L 49.515625 64.59375 
L 19.828125 64.59375 
L 19.828125 46.734375 
Q 21.96875 47.46875 24.109375 47.828125 
Q 26.265625 48.1875 28.421875 48.1875 
Q 40.625 48.1875 47.75 41.5 
Q 54.890625 34.8125 54.890625 23.390625 
Q 54.890625 11.625 47.5625 5.09375 
Q 40.234375 -1.421875 26.90625 -1.421875 
Q 22.3125 -1.421875 17.546875 -0.640625 
Q 12.796875 0.140625 7.71875 1.703125 
L 7.71875 11.625 
Q 12.109375 9.234375 16.796875 8.0625 
Q 21.484375 6.890625 26.703125 6.890625 
Q 35.15625 6.890625 40.078125 11.328125 
Q 45.015625 15.765625 45.015625 23.390625 
Q 45.015625 31 40.078125 35.4375 
Q 35.15625 39.890625 26.703125 39.890625 
Q 22.75 39.890625 18.8125 39.015625 
Q 14.890625 38.140625 10.796875 36.28125 
z
" id="DejaVuSans-53"/>
      </defs>
      <g transform="translate(79.107718 542.877813)scale(0.14 -0.14)">
       <use xlink:href="#DejaVuSans-55"/>
       <use x="63.623047" xlink:href="#DejaVuSans-46"/>
       <use x="95.410156" xlink:href="#DejaVuSans-55"/>
       <use x="159.033203" xlink:href="#DejaVuSans-53"/>
      </g>
     </g>
    </g>
    <g id="xtick_2">
     <g id="line2d_4">
      <g>
       <use style="stroke:#000000;stroke-width:0.8;" x="163.748465" xlink:href="#m3fd5f7ec96" y="525.24"/>
      </g>
     </g>
     <g id="text_4">
      <!-- 8.00 -->
      <defs>
       <path d="M 31.78125 34.625 
Q 24.75 34.625 20.71875 30.859375 
Q 16.703125 27.09375 16.703125 20.515625 
Q 16.703125 13.921875 20.71875 10.15625 
Q 24.75 6.390625 31.78125 6.390625 
Q 38.8125 6.390625 42.859375 10.171875 
Q 46.921875 13.96875 46.921875 20.515625 
Q 46.921875 27.09375 42.890625 30.859375 
Q 38.875 34.625 31.78125 34.625 
z
M 21.921875 38.8125 
Q 15.578125 40.375 12.03125 44.71875 
Q 8.5 49.078125 8.5 55.328125 
Q 8.5 64.0625 14.71875 69.140625 
Q 20.953125 74.21875 31.78125 74.21875 
Q 42.671875 74.21875 48.875 69.140625 
Q 55.078125 64.0625 55.078125 55.328125 
Q 55.078125 49.078125 51.53125 44.71875 
Q 48 40.375 41.703125 38.8125 
Q 48.828125 37.15625 52.796875 32.3125 
Q 56.78125 27.484375 56.78125 20.515625 
Q 56.78125 9.90625 50.3125 4.234375 
Q 43.84375 -1.421875 31.78125 -1.421875 
Q 19.734375 -1.421875 13.25 4.234375 
Q 6.78125 9.90625 6.78125 20.515625 
Q 6.78125 27.484375 10.78125 32.3125 
Q 14.796875 37.15625 21.921875 38.8125 
z
M 18.3125 54.390625 
Q 18.3125 48.734375 21.84375 45.5625 
Q 25.390625 42.390625 31.78125 42.390625 
Q 38.140625 42.390625 41.71875 45.5625 
Q 45.3125 48.734375 45.3125 54.390625 
Q 45.3125 60.0625 41.71875 63.234375 
Q 38.140625 66.40625 31.78125 66.40625 
Q 25.390625 66.40625 21.84375 63.234375 
Q 18.3125 60.0625 18.3125 54.390625 
z
" id="DejaVuSans-56"/>
       <path d="M 31.78125 66.40625 
Q 24.171875 66.40625 20.328125 58.90625 
Q 16.5 51.421875 16.5 36.375 
Q 16.5 21.390625 20.328125 13.890625 
Q 24.171875 6.390625 31.78125 6.390625 
Q 39.453125 6.390625 43.28125 13.890625 
Q 47.125 21.390625 47.125 36.375 
Q 47.125 51.421875 43.28125 58.90625 
Q 39.453125 66.40625 31.78125 66.40625 
z
M 31.78125 74.21875 
Q 44.046875 74.21875 50.515625 64.515625 
Q 56.984375 54.828125 56.984375 36.375 
Q 56.984375 17.96875 50.515625 8.265625 
Q 44.046875 -1.421875 31.78125 -1.421875 
Q 19.53125 -1.421875 13.0625 8.265625 
Q 6.59375 17.96875 6.59375 36.375 
Q 6.59375 54.828125 13.0625 64.515625 
Q 19.53125 74.21875 31.78125 74.21875 
z
" id="DejaVuSans-48"/>
      </defs>
      <g transform="translate(148.162527 542.877813)scale(0.14 -0.14)">
       <use xlink:href="#DejaVuSans-56"/>
       <use x="63.623047" xlink:href="#DejaVuSans-46"/>
       <use x="95.410156" xlink:href="#DejaVuSans-48"/>
       <use x="159.033203" xlink:href="#DejaVuSans-48"/>
      </g>
     </g>
    </g>
    <g id="xtick_3">
     <g id="line2d_5">
      <g>
       <use style="stroke:#000000;stroke-width:0.8;" x="232.803274" xlink:href="#m3fd5f7ec96" y="525.24"/>
      </g>
     </g>
     <g id="text_5">
      <!-- 8.25 -->
      <defs>
       <path d="M 19.1875 8.296875 
L 53.609375 8.296875 
L 53.609375 0 
L 7.328125 0 
L 7.328125 8.296875 
Q 12.9375 14.109375 22.625 23.890625 
Q 32.328125 33.6875 34.8125 36.53125 
Q 39.546875 41.84375 41.421875 45.53125 
Q 43.3125 49.21875 43.3125 52.78125 
Q 43.3125 58.59375 39.234375 62.25 
Q 35.15625 65.921875 28.609375 65.921875 
Q 23.96875 65.921875 18.8125 64.3125 
Q 13.671875 62.703125 7.8125 59.421875 
L 7.8125 69.390625 
Q 13.765625 71.78125 18.9375 73 
Q 24.125 74.21875 28.421875 74.21875 
Q 39.75 74.21875 46.484375 68.546875 
Q 53.21875 62.890625 53.21875 53.421875 
Q 53.21875 48.921875 51.53125 44.890625 
Q 49.859375 40.875 45.40625 35.40625 
Q 44.1875 33.984375 37.640625 27.21875 
Q 31.109375 20.453125 19.1875 8.296875 
z
" id="DejaVuSans-50"/>
      </defs>
      <g transform="translate(217.217337 542.877813)scale(0.14 -0.14)">
       <use xlink:href="#DejaVuSans-56"/>
       <use x="63.623047" xlink:href="#DejaVuSans-46"/>
       <use x="95.410156" xlink:href="#DejaVuSans-50"/>
       <use x="159.033203" xlink:href="#DejaVuSans-53"/>
      </g>
     </g>
    </g>
    <g id="xtick_4">
     <g id="line2d_6">
      <g>
       <use style="stroke:#000000;stroke-width:0.8;" x="301.858084" xlink:href="#m3fd5f7ec96" y="525.24"/>
      </g>
     </g>
     <g id="text_6">
      <!-- 8.50 -->
      <g transform="translate(286.272146 542.877813)scale(0.14 -0.14)">
       <use xlink:href="#DejaVuSans-56"/>
       <use x="63.623047" xlink:href="#DejaVuSans-46"/>
       <use x="95.410156" xlink:href="#DejaVuSans-53"/>
       <use x="159.033203" xlink:href="#DejaVuSans-48"/>
      </g>
     </g>
    </g>
    <g id="xtick_5">
     <g id="line2d_7">
      <g>
       <use style="stroke:#000000;stroke-width:0.8;" x="370.912893" xlink:href="#m3fd5f7ec96" y="525.24"/>
      </g>
     </g>
     <g id="text_7">
      <!-- 8.75 -->
      <g transform="translate(355.326956 542.877813)scale(0.14 -0.14)">
       <use xlink:href="#DejaVuSans-56"/>
       <use x="63.623047" xlink:href="#DejaVuSans-46"/>
       <use x="95.410156" xlink:href="#DejaVuSans-55"/>
       <use x="159.033203" xlink:href="#DejaVuSans-53"/>
      </g>
     </g>
    </g>
    <g id="xtick_6">
     <g id="line2d_8">
      <g>
       <use style="stroke:#000000;stroke-width:0.8;" x="439.967703" xlink:href="#m3fd5f7ec96" y="525.24"/>
      </g>
     </g>
     <g id="text_8">
      <!-- 9.00 -->
      <defs>
       <path d="M 10.984375 1.515625 
L 10.984375 10.5 
Q 14.703125 8.734375 18.5 7.8125 
Q 22.3125 6.890625 25.984375 6.890625 
Q 35.75 6.890625 40.890625 13.453125 
Q 46.046875 20.015625 46.78125 33.40625 
Q 43.953125 29.203125 39.59375 26.953125 
Q 35.25 24.703125 29.984375 24.703125 
Q 19.046875 24.703125 12.671875 31.3125 
Q 6.296875 37.9375 6.296875 49.421875 
Q 6.296875 60.640625 12.9375 67.421875 
Q 19.578125 74.21875 30.609375 74.21875 
Q 43.265625 74.21875 49.921875 64.515625 
Q 56.59375 54.828125 56.59375 36.375 
Q 56.59375 19.140625 48.40625 8.859375 
Q 40.234375 -1.421875 26.421875 -1.421875 
Q 22.703125 -1.421875 18.890625 -0.6875 
Q 15.09375 0.046875 10.984375 1.515625 
z
M 30.609375 32.421875 
Q 37.25 32.421875 41.125 36.953125 
Q 45.015625 41.5 45.015625 49.421875 
Q 45.015625 57.28125 41.125 61.84375 
Q 37.25 66.40625 30.609375 66.40625 
Q 23.96875 66.40625 20.09375 61.84375 
Q 16.21875 57.28125 16.21875 49.421875 
Q 16.21875 41.5 20.09375 36.953125 
Q 23.96875 32.421875 30.609375 32.421875 
z
" id="DejaVuSans-57"/>
      </defs>
      <g transform="translate(424.381766 542.877813)scale(0.14 -0.14)">
       <use xlink:href="#DejaVuSans-57"/>
       <use x="63.623047" xlink:href="#DejaVuSans-46"/>
       <use x="95.410156" xlink:href="#DejaVuSans-48"/>
       <use x="159.033203" xlink:href="#DejaVuSans-48"/>
      </g>
     </g>
    </g>
    <g id="xtick_7">
     <g id="line2d_9">
      <g>
       <use style="stroke:#000000;stroke-width:0.8;" x="509.022513" xlink:href="#m3fd5f7ec96" y="525.24"/>
      </g>
     </g>
     <g id="text_9">
      <!-- 9.25 -->
      <g transform="translate(493.436575 542.877813)scale(0.14 -0.14)">
       <use xlink:href="#DejaVuSans-57"/>
       <use x="63.623047" xlink:href="#DejaVuSans-46"/>
       <use x="95.410156" xlink:href="#DejaVuSans-50"/>
       <use x="159.033203" xlink:href="#DejaVuSans-53"/>
      </g>
     </g>
    </g>
   </g>
   <g id="line2d_10">
    <path clip-path="url(#p12939faddd)" d="M 303.708753 525.24 
L 303.708753 402.93 
" style="fill:none;stroke:#ff6384;stroke-dasharray:5.55,2.4;stroke-dashoffset:0;stroke-opacity:0.8;stroke-width:1.5;"/>
   </g>
   <g id="line2d_11">
    <path clip-path="url(#p12939faddd)" d="M 249.238319 525.24 
L 249.238319 402.93 
" style="fill:none;stroke:#36a2eb;stroke-dasharray:5.55,2.4;stroke-dashoffset:0;stroke-opacity:0.8;stroke-width:1.5;"/>
   </g>
   <g id="patch_10">
    <path d="M 36 525.24 
L 538.2 525.24 
" style="fill:none;stroke:#000000;stroke-linecap:square;stroke-linejoin:miter;stroke-width:0.8;"/>
   </g>
  </g>
 </g>
 <defs>
  <clipPath id="pc31167c7d0">
   <rect height="366.93" width="502.2" x="36" y="36"/>
  </clipPath>
  <clipPath id="p12939faddd">
   <rect height="122.31" width="502.2" x="36" y="402.93"/>
  </clipPath>
 </defs>
</svg>
