<?xml version="1.0" encoding="utf-8" standalone="no"?>
<!DOCTYPE svg PUBLIC "-//W3C//DTD SVG 1.1//EN"
  "http://www.w3.org/Graphics/SVG/1.1/DTD/svg11.dtd">
<!-- Created with matplotlib (https://matplotlib.org/) -->
<svg height="581.789375pt" version="1.1" viewBox="0 0 574.2 581.789375" width="574.2pt" xmlns="http://www.w3.org/2000/svg" xmlns:xlink="http://www.w3.org/1999/xlink">
 <defs>
  <style type="text/css">
*{stroke-linecap:butt;stroke-linejoin:round;}
  </style>
 </defs>
 <g id="figure_1">
  <g id="patch_1">
   <path d="M 0 581.789375 
L 574.2 581.789375 
L 574.2 0 
L 0 0 
z
" style="fill:none;"/>
  </g>
  <g id="axes_1">
   <g id="patch_2">
    <path d="M 36 402.93 
L 538.2 402.93 
L 538.2 36 
L 36 36 
z
" style="fill:none;"/>
   </g>
   <g id="PolyCollection_1">
    <defs>
     <path d="M 84.125672 -195.538011 
L 84.125672 -195.649684 
L 88.481703 -195.691793 
L 92.837734 -195.748404 
L 97.193764 -195.82398 
L 101.549795 -195.924174 
L 105.905826 -196.056079 
L 110.261857 -196.228517 
L 114.617888 -196.45236 
L 118.973919 -196.740886 
L 123.32995 -197.110158 
L 127.68598 -197.57942 
L 132.042011 -198.171496 
L 136.398042 -198.913182 
L 140.754073 -199.835599 
L 145.110104 -200.974492 
L 149.466135 -202.370439 
L 153.822166 -204.068939 
L 158.178197 -206.120349 
L 162.534227 -208.579616 
L 166.890258 -211.505792 
L 171.246289 -214.961272 
L 175.60232 -219.010752 
L 179.958351 -223.719864 
L 184.314382 -229.153495 
L 188.670413 -235.373787 
L 193.026443 -242.43784 
L 197.382474 -250.395172 
L 201.738505 -259.284971 
L 206.094536 -269.133248 
L 210.450567 -279.949977 
L 214.806598 -291.726345 
L 219.162629 -304.432243 
L 223.518659 -318.014133 
L 227.87469 -332.393448 
L 232.230721 -347.465643 
L 236.586752 -363.100021 
L 240.942783 -379.140444 
L 245.298814 -395.406986 
L 249.654845 -411.698553 
L 254.010876 -427.796467 
L 258.366906 -443.468952 
L 262.722937 -458.476404 
L 267.078968 -472.577297 
L 271.434999 -485.534538 
L 275.79103 -497.122022 
L 280.147061 -507.131167 
L 284.503092 -515.377136 
L 288.859122 -521.704506 
L 293.215153 -525.992142 
L 297.571184 -528.157051 
L 301.927215 -528.157051 
L 306.283246 -525.992142 
L 310.639277 -521.704506 
L 314.995308 -515.377136 
L 319.351338 -507.131167 
L 323.707369 -497.122022 
L 328.0634 -485.534538 
L 332.419431 -472.577297 
L 336.775462 -458.476404 
L 341.131493 -443.468952 
L 345.487524 -427.796467 
L 349.843554 -411.698553 
L 354.199585 -395.406986 
L 358.555616 -379.140444 
L 362.911647 -363.100021 
L 367.267678 -347.465643 
L 371.623709 -332.393448 
L 375.97974 -318.014133 
L 380.335771 -304.432243 
L 384.691801 -291.726345 
L 389.047832 -279.949977 
L 393.403863 -269.133248 
L 397.759894 -259.284971 
L 402.115925 -250.395172 
L 406.471956 -242.43784 
L 410.827987 -235.373787 
L 415.184017 -229.153495 
L 419.540048 -223.719864 
L 423.896079 -219.010752 
L 428.25211 -214.961272 
L 432.608141 -211.505792 
L 436.964172 -208.579616 
L 441.320203 -206.120349 
L 445.676233 -204.068939 
L 450.032264 -202.370439 
L 454.388295 -200.974492 
L 458.744326 -199.835599 
L 463.100357 -198.913182 
L 467.456388 -198.171496 
L 471.812419 -197.57942 
L 476.16845 -197.110158 
L 480.52448 -196.740886 
L 484.880511 -196.45236 
L 489.236542 -196.228517 
L 493.592573 -196.056079 
L 497.948604 -195.924174 
L 502.304635 -195.82398 
L 506.660666 -195.748404 
L 511.016696 -195.691793 
L 515.372727 -195.649684 
L 515.372727 -195.538011 
L 515.372727 -195.538011 
L 511.016696 -195.538011 
L 506.660666 -195.538011 
L 502.304635 -195.538011 
L 497.948604 -195.538011 
L 493.592573 -195.538011 
L 489.236542 -195.538011 
L 484.880511 -195.538011 
L 480.52448 -195.538011 
L 476.16845 -195.538011 
L 471.812419 -195.538011 
L 467.456388 -195.538011 
L 463.100357 -195.538011 
L 458.744326 -195.538011 
L 454.388295 -195.538011 
L 450.032264 -195.538011 
L 445.676233 -195.538011 
L 441.320203 -195.538011 
L 436.964172 -195.538011 
L 432.608141 -195.538011 
L 428.25211 -195.538011 
L 423.896079 -195.538011 
L 419.540048 -195.538011 
L 415.184017 -195.538011 
L 410.827987 -195.538011 
L 406.471956 -195.538011 
L 402.115925 -195.538011 
L 397.759894 -195.538011 
L 393.403863 -195.538011 
L 389.047832 -195.538011 
L 384.691801 -195.538011 
L 380.335771 -195.538011 
L 375.97974 -195.538011 
L 371.623709 -195.538011 
L 367.267678 -195.538011 
L 362.911647 -195.538011 
L 358.555616 -195.538011 
L 354.199585 -195.538011 
L 349.843554 -195.538011 
L 345.487524 -195.538011 
L 341.131493 -195.538011 
L 336.775462 -195.538011 
L 332.419431 -195.538011 
L 328.0634 -195.538011 
L 323.707369 -195.538011 
L 319.351338 -195.538011 
L 314.995308 -195.538011 
L 310.639277 -195.538011 
L 306.283246 -195.538011 
L 301.927215 -195.538011 
L 297.571184 -195.538011 
L 293.215153 -195.538011 
L 288.859122 -195.538011 
L 284.503092 -195.538011 
L 280.147061 -195.538011 
L 275.79103 -195.538011 
L 271.434999 -195.538011 
L 267.078968 -195.538011 
L 262.722937 -195.538011 
L 258.366906 -195.538011 
L 254.010876 -195.538011 
L 249.654845 -195.538011 
L 245.298814 -195.538011 
L 240.942783 -195.538011 
L 236.586752 -195.538011 
L 232.230721 -195.538011 
L 227.87469 -195.538011 
L 223.518659 -195.538011 
L 219.162629 -195.538011 
L 214.806598 -195.538011 
L 210.450567 -195.538011 
L 206.094536 -195.538011 
L 201.738505 -195.538011 
L 197.382474 -195.538011 
L 193.026443 -195.538011 
L 188.670413 -195.538011 
L 184.314382 -195.538011 
L 179.958351 -195.538011 
L 175.60232 -195.538011 
L 171.246289 -195.538011 
L 166.890258 -195.538011 
L 162.534227 -195.538011 
L 158.178197 -195.538011 
L 153.822166 -195.538011 
L 149.466135 -195.538011 
L 145.110104 -195.538011 
L 140.754073 -195.538011 
L 136.398042 -195.538011 
L 132.042011 -195.538011 
L 127.68598 -195.538011 
L 123.32995 -195.538011 
L 118.973919 -195.538011 
L 114.617888 -195.538011 
L 110.261857 -195.538011 
L 105.905826 -195.538011 
L 101.549795 -195.538011 
L 97.193764 -195.538011 
L 92.837734 -195.538011 
L 88.481703 -195.538011 
L 84.125672 -195.538011 
z
" id="m232345da9d" style="stroke:#ff6384;stroke-opacity:0.5;"/>
    </defs>
    <g clip-path="url(#pfa5af77505)">
     <use style="fill:#ff6384;fill-opacity:0.5;stroke:#ff6384;stroke-opacity:0.5;" x="0" xlink:href="#m232345da9d" y="581.789375"/>
    </g>
   </g>
   <g id="PolyCollection_2">
    <defs>
     <path d="M 58.827273 -195.538011 
L 58.827273 -195.650004 
L 63.17085 -195.692234 
L 67.514427 -195.749007 
L 71.858003 -195.8248 
L 76.20158 -195.925281 
L 80.545157 -196.057565 
L 84.888734 -196.230497 
L 89.232311 -196.454982 
L 93.575888 -196.744335 
L 97.919465 -197.114666 
L 102.263042 -197.585273 
L 106.606619 -198.179047 
L 110.950196 -198.922859 
L 115.293773 -199.847921 
L 119.63735 -200.990079 
L 123.980927 -202.390029 
L 128.324503 -204.093399 
L 132.66808 -206.150691 
L 137.011657 -208.617009 
L 141.355234 -211.551575 
L 145.698811 -215.016962 
L 150.042388 -219.078053 
L 154.385965 -223.800667 
L 158.729542 -229.249878 
L 163.073119 -235.488004 
L 167.416696 -242.572312 
L 171.760273 -250.552459 
L 176.10385 -259.467747 
L 180.447427 -269.344261 
L 184.791004 -280.192004 
L 189.13458 -292.002137 
L 193.478157 -304.744465 
L 197.821734 -318.365297 
L 202.165311 -332.785841 
L 206.508888 -347.901251 
L 210.852465 -363.580456 
L 215.196042 -379.666871 
L 219.539619 -395.980052 
L 223.883196 -412.31833 
L 228.226773 -428.4624 
L 232.57035 -444.179822 
L 236.913927 -459.230303 
L 241.257504 -473.371627 
L 245.60108 -486.366018 
L 249.944657 -497.986726 
L 254.288234 -508.02457 
L 258.631811 -516.294181 
L 262.975388 -522.639693 
L 267.318965 -526.939623 
L 271.662542 -529.110739 
L 276.006119 -529.110739 
L 280.349696 -526.939623 
L 284.693273 -522.639693 
L 289.03685 -516.294181 
L 293.380427 -508.02457 
L 297.724004 -497.986726 
L 302.06758 -486.366018 
L 306.411157 -473.371627 
L 310.754734 -459.230303 
L 315.098311 -444.179822 
L 319.441888 -428.4624 
L 323.785465 -412.31833 
L 328.129042 -395.980052 
L 332.472619 -379.666871 
L 336.816196 -363.580456 
L 341.159773 -347.901251 
L 345.50335 -332.785841 
L 349.846927 -318.365297 
L 354.190504 -304.744465 
L 358.53408 -292.002137 
L 362.877657 -280.192004 
L 367.221234 -269.344261 
L 371.564811 -259.467747 
L 375.908388 -250.552459 
L 380.251965 -242.572312 
L 384.595542 -235.488004 
L 388.939119 -229.249878 
L 393.282696 -223.800667 
L 397.626273 -219.078053 
L 401.96985 -215.016962 
L 406.313427 -211.551575 
L 410.657004 -208.617009 
L 415.00058 -206.150691 
L 419.344157 -204.093399 
L 423.687734 -202.390029 
L 428.031311 -200.990079 
L 432.374888 -199.847921 
L 436.718465 -198.922859 
L 441.062042 -198.179047 
L 445.405619 -197.585273 
L 449.749196 -197.114666 
L 454.092773 -196.744335 
L 458.43635 -196.454982 
L 462.779927 -196.230497 
L 467.123504 -196.057565 
L 471.46708 -195.925281 
L 475.810657 -195.8248 
L 480.154234 -195.749007 
L 484.497811 -195.692234 
L 488.841388 -195.650004 
L 488.841388 -195.538011 
L 488.841388 -195.538011 
L 484.497811 -195.538011 
L 480.154234 -195.538011 
L 475.810657 -195.538011 
L 471.46708 -195.538011 
L 467.123504 -195.538011 
L 462.779927 -195.538011 
L 458.43635 -195.538011 
L 454.092773 -195.538011 
L 449.749196 -195.538011 
L 445.405619 -195.538011 
L 441.062042 -195.538011 
L 436.718465 -195.538011 
L 432.374888 -195.538011 
L 428.031311 -195.538011 
L 423.687734 -195.538011 
L 419.344157 -195.538011 
L 415.00058 -195.538011 
L 410.657004 -195.538011 
L 406.313427 -195.538011 
L 401.96985 -195.538011 
L 397.626273 -195.538011 
L 393.282696 -195.538011 
L 388.939119 -195.538011 
L 384.595542 -195.538011 
L 380.251965 -195.538011 
L 375.908388 -195.538011 
L 371.564811 -195.538011 
L 367.221234 -195.538011 
L 362.877657 -195.538011 
L 358.53408 -195.538011 
L 354.190504 -195.538011 
L 349.846927 -195.538011 
L 345.50335 -195.538011 
L 341.159773 -195.538011 
L 336.816196 -195.538011 
L 332.472619 -195.538011 
L 328.129042 -195.538011 
L 323.785465 -195.538011 
L 319.441888 -195.538011 
L 315.098311 -195.538011 
L 310.754734 -195.538011 
L 306.411157 -195.538011 
L 302.06758 -195.538011 
L 297.724004 -195.538011 
L 293.380427 -195.538011 
L 289.03685 -195.538011 
L 284.693273 -195.538011 
L 280.349696 -195.538011 
L 276.006119 -195.538011 
L 271.662542 -195.538011 
L 267.318965 -195.538011 
L 262.975388 -195.538011 
L 258.631811 -195.538011 
L 254.288234 -195.538011 
L 249.944657 -195.538011 
L 245.60108 -195.538011 
L 241.257504 -195.538011 
L 236.913927 -195.538011 
L 232.57035 -195.538011 
L 228.226773 -195.538011 
L 223.883196 -195.538011 
L 219.539619 -195.538011 
L 215.196042 -195.538011 
L 210.852465 -195.538011 
L 206.508888 -195.538011 
L 202.165311 -195.538011 
L 197.821734 -195.538011 
L 193.478157 -195.538011 
L 189.13458 -195.538011 
L 184.791004 -195.538011 
L 180.447427 -195.538011 
L 176.10385 -195.538011 
L 171.760273 -195.538011 
L 167.416696 -195.538011 
L 163.073119 -195.538011 
L 158.729542 -195.538011 
L 154.385965 -195.538011 
L 150.042388 -195.538011 
L 145.698811 -195.538011 
L 141.355234 -195.538011 
L 137.011657 -195.538011 
L 132.66808 -195.538011 
L 128.324503 -195.538011 
L 123.980927 -195.538011 
L 119.63735 -195.538011 
L 115.293773 -195.538011 
L 110.950196 -195.538011 
L 106.606619 -195.538011 
L 102.263042 -195.538011 
L 97.919465 -195.538011 
L 93.575888 -195.538011 
L 89.232311 -195.538011 
L 84.888734 -195.538011 
L 80.545157 -195.538011 
L 76.20158 -195.538011 
L 71.858003 -195.538011 
L 67.514427 -195.538011 
L 63.17085 -195.538011 
L 58.827273 -195.538011 
z
" id="mfac3ae34d7" style="stroke:#36a2eb;stroke-opacity:0.5;"/>
    </defs>
    <g clip-path="url(#pfa5af77505)">
     <use style="fill:#36a2eb;fill-opacity:0.5;stroke:#36a2eb;stroke-opacity:0.5;" x="0" xlink:href="#mfac3ae34d7" y="581.789375"/>
    </g>
   </g>
   <g id="line2d_1">
    <path clip-path="url(#pfa5af77505)" d="M 84.125672 386.139691 
L 88.481703 386.097582 
L 92.837734 386.040971 
L 97.193764 385.965395 
L 101.549795 385.865201 
L 105.905826 385.733296 
L 110.261857 385.560858 
L 114.617888 385.337015 
L 118.973919 385.048489 
L 123.32995 384.679217 
L 127.68598 384.209955 
L 132.042011 383.617879 
L 136.398042 382.876193 
L 140.754073 381.953776 
L 145.110104 380.814883 
L 149.466135 379.418936 
L 153.822166 377.720436 
L 158.178197 375.669026 
L 162.534227 373.209759 
L 166.890258 370.283583 
L 171.246289 366.828103 
L 175.60232 362.778623 
L 179.958351 358.069511 
L 184.314382 352.63588 
L 188.670413 346.415588 
L 193.026443 339.351535 
L 197.382474 331.394203 
L 201.738505 322.504404 
L 206.094536 312.656127 
L 210.450567 301.839398 
L 214.806598 290.06303 
L 219.162629 277.357132 
L 223.518659 263.775242 
L 227.87469 249.395927 
L 232.230721 234.323732 
L 236.586752 218.689354 
L 240.942783 202.648931 
L 245.298814 186.382389 
L 249.654845 170.090822 
L 254.010876 153.992908 
L 258.366906 138.320423 
L 262.722937 123.312971 
L 267.078968 109.212078 
L 271.434999 96.254837 
L 275.79103 84.667353 
L 280.147061 74.658208 
L 284.503092 66.412239 
L 288.859122 60.084869 
L 293.215153 55.797233 
L 297.571184 53.632324 
L 301.927215 53.632324 
L 306.283246 55.797233 
L 310.639277 60.084869 
L 314.995308 66.412239 
L 319.351338 74.658208 
L 323.707369 84.667353 
L 328.0634 96.254837 
L 332.419431 109.212078 
L 336.775462 123.312971 
L 341.131493 138.320423 
L 345.487524 153.992908 
L 349.843554 170.090822 
L 354.199585 186.382389 
L 358.555616 202.648931 
L 362.911647 218.689354 
L 367.267678 234.323732 
L 371.623709 249.395927 
L 375.97974 263.775242 
L 380.335771 277.357132 
L 384.691801 290.06303 
L 389.047832 301.839398 
L 393.403863 312.656127 
L 397.759894 322.504404 
L 402.115925 331.394203 
L 406.471956 339.351535 
L 410.827987 346.415588 
L 415.184017 352.63588 
L 419.540048 358.069511 
L 423.896079 362.778623 
L 428.25211 366.828103 
L 432.608141 370.283583 
L 436.964172 373.209759 
L 441.320203 375.669026 
L 445.676233 377.720436 
L 450.032264 379.418936 
L 454.388295 380.814883 
L 458.744326 381.953776 
L 463.100357 382.876193 
L 467.456388 383.617879 
L 471.812419 384.209955 
L 476.16845 384.679217 
L 480.52448 385.048489 
L 484.880511 385.337015 
L 489.236542 385.560858 
L 493.592573 385.733296 
L 497.948604 385.865201 
L 502.304635 385.965395 
L 506.660666 386.040971 
L 511.016696 386.097582 
L 515.372727 386.139691 
" style="fill:none;stroke:#ff6384;stroke-linecap:square;"/>
   </g>
   <g id="line2d_2">
    <path clip-path="url(#pfa5af77505)" d="M 58.827273 386.139371 
L 63.17085 386.097141 
L 67.514427 386.040368 
L 71.858003 385.964575 
L 76.20158 385.864094 
L 80.545157 385.73181 
L 84.888734 385.558878 
L 89.232311 385.334393 
L 93.575888 385.04504 
L 97.919465 384.674709 
L 102.263042 384.204102 
L 106.606619 383.610328 
L 110.950196 382.866516 
L 115.293773 381.941454 
L 119.63735 380.799296 
L 123.980927 379.399346 
L 128.324503 377.695976 
L 132.66808 375.638684 
L 137.011657 373.172366 
L 141.355234 370.2378 
L 145.698811 366.772413 
L 150.042388 362.711322 
L 154.385965 357.988708 
L 158.729542 352.539497 
L 163.073119 346.301371 
L 167.416696 339.217063 
L 171.760273 331.236916 
L 176.10385 322.321628 
L 180.447427 312.445114 
L 184.791004 301.597371 
L 189.13458 289.787238 
L 193.478157 277.04491 
L 197.821734 263.424078 
L 202.165311 249.003534 
L 206.508888 233.888124 
L 210.852465 218.208919 
L 215.196042 202.122504 
L 219.539619 185.809323 
L 223.883196 169.471045 
L 228.226773 153.326975 
L 232.57035 137.609553 
L 236.913927 122.559072 
L 241.257504 108.417748 
L 245.60108 95.423357 
L 249.944657 83.802649 
L 254.288234 73.764805 
L 258.631811 65.495194 
L 262.975388 59.149682 
L 267.318965 54.849752 
L 271.662542 52.678636 
L 276.006119 52.678636 
L 280.349696 54.849752 
L 284.693273 59.149682 
L 289.03685 65.495194 
L 293.380427 73.764805 
L 297.724004 83.802649 
L 302.06758 95.423357 
L 306.411157 108.417748 
L 310.754734 122.559072 
L 315.098311 137.609553 
L 319.441888 153.326975 
L 323.785465 169.471045 
L 328.129042 185.809323 
L 332.472619 202.122504 
L 336.816196 218.208919 
L 341.159773 233.888124 
L 345.50335 249.003534 
L 349.846927 263.424078 
L 354.190504 277.04491 
L 358.53408 289.787238 
L 362.877657 301.597371 
L 367.221234 312.445114 
L 371.564811 322.321628 
L 375.908388 331.236916 
L 380.251965 339.217063 
L 384.595542 346.301371 
L 388.939119 352.539497 
L 393.282696 357.988708 
L 397.626273 362.711322 
L 401.96985 366.772413 
L 406.313427 370.2378 
L 410.657004 373.172366 
L 415.00058 375.638684 
L 419.344157 377.695976 
L 423.687734 379.399346 
L 428.031311 380.799296 
L 432.374888 381.941454 
L 436.718465 382.866516 
L 441.062042 383.610328 
L 445.405619 384.204102 
L 449.749196 384.674709 
L 454.092773 385.04504 
L 458.43635 385.334393 
L 462.779927 385.558878 
L 467.123504 385.73181 
L 471.46708 385.864094 
L 475.810657 385.964575 
L 480.154234 386.040368 
L 484.497811 386.097141 
L 488.841388 386.139371 
" style="fill:none;stroke:#36a2eb;stroke-linecap:square;"/>
   </g>
   <g id="patch_3">
    <path d="M 36 402.93 
L 538.2 402.93 
" style="fill:none;stroke:#000000;stroke-linecap:square;stroke-linejoin:miter;stroke-width:0.8;"/>
   </g>
   <g id="legend_1">
    <g id="patch_4">
     <path d="M 450.225313 88.29875 
L 528.4 88.29875 
Q 531.2 88.29875 531.2 85.49875 
L 531.2 45.8 
Q 531.2 43 528.4 43 
L 450.225313 43 
Q 447.425313 43 447.425313 45.8 
L 447.425313 85.49875 
Q 447.425313 88.29875 450.225313 88.29875 
z
" style="fill:#ffffff;opacity:0.8;stroke:#cccccc;stroke-linejoin:miter;"/>
    </g>
    <g id="patch_5">
     <path d="M 453.025313 59.237813 
L 481.025313 59.237813 
L 481.025313 49.437813 
L 453.025313 49.437813 
z
" style="fill:#ff6384;opacity:0.5;stroke:#ff6384;stroke-linejoin:miter;"/>
    </g>
    <g id="text_1">
     <!-- base -->
     <defs>
      <path d="M 48.6875 27.296875 
Q 48.6875 37.203125 44.609375 42.84375 
Q 40.53125 48.484375 33.40625 48.484375 
Q 26.265625 48.484375 22.1875 42.84375 
Q 18.109375 37.203125 18.109375 27.296875 
Q 18.109375 17.390625 22.1875 11.75 
Q 26.265625 6.109375 33.40625 6.109375 
Q 40.53125 6.109375 44.609375 11.75 
Q 48.6875 17.390625 48.6875 27.296875 
z
M 18.109375 46.390625 
Q 20.953125 51.265625 25.265625 53.625 
Q 29.59375 56 35.59375 56 
Q 45.5625 56 51.78125 48.09375 
Q 58.015625 40.1875 58.015625 27.296875 
Q 58.015625 14.40625 51.78125 6.484375 
Q 45.5625 -1.421875 35.59375 -1.421875 
Q 29.59375 -1.421875 25.265625 0.953125 
Q 20.953125 3.328125 18.109375 8.203125 
L 18.109375 0 
L 9.078125 0 
L 9.078125 75.984375 
L 18.109375 75.984375 
z
" id="DejaVuSans-98"/>
      <path d="M 34.28125 27.484375 
Q 23.390625 27.484375 19.1875 25 
Q 14.984375 22.515625 14.984375 16.5 
Q 14.984375 11.71875 18.140625 8.90625 
Q 21.296875 6.109375 26.703125 6.109375 
Q 34.1875 6.109375 38.703125 11.40625 
Q 43.21875 16.703125 43.21875 25.484375 
L 43.21875 27.484375 
z
M 52.203125 31.203125 
L 52.203125 0 
L 43.21875 0 
L 43.21875 8.296875 
Q 40.140625 3.328125 35.546875 0.953125 
Q 30.953125 -1.421875 24.3125 -1.421875 
Q 15.921875 -1.421875 10.953125 3.296875 
Q 6 8.015625 6 15.921875 
Q 6 25.140625 12.171875 29.828125 
Q 18.359375 34.515625 30.609375 34.515625 
L 43.21875 34.515625 
L 43.21875 35.40625 
Q 43.21875 41.609375 39.140625 45 
Q 35.0625 48.390625 27.6875 48.390625 
Q 23 48.390625 18.546875 47.265625 
Q 14.109375 46.140625 10.015625 43.890625 
L 10.015625 52.203125 
Q 14.9375 54.109375 19.578125 55.046875 
Q 24.21875 56 28.609375 56 
Q 40.484375 56 46.34375 49.84375 
Q 52.203125 43.703125 52.203125 31.203125 
z
" id="DejaVuSans-97"/>
      <path d="M 44.28125 53.078125 
L 44.28125 44.578125 
Q 40.484375 46.53125 36.375 47.5 
Q 32.28125 48.484375 27.875 48.484375 
Q 21.1875 48.484375 17.84375 46.4375 
Q 14.5 44.390625 14.5 40.28125 
Q 14.5 37.15625 16.890625 35.375 
Q 19.28125 33.59375 26.515625 31.984375 
L 29.59375 31.296875 
Q 39.15625 29.25 43.1875 25.515625 
Q 47.21875 21.78125 47.21875 15.09375 
Q 47.21875 7.46875 41.1875 3.015625 
Q 35.15625 -1.421875 24.609375 -1.421875 
Q 20.21875 -1.421875 15.453125 -0.5625 
Q 10.6875 0.296875 5.421875 2 
L 5.421875 11.28125 
Q 10.40625 8.6875 15.234375 7.390625 
Q 20.0625 6.109375 24.8125 6.109375 
Q 31.15625 6.109375 34.5625 8.28125 
Q 37.984375 10.453125 37.984375 14.40625 
Q 37.984375 18.0625 35.515625 20.015625 
Q 33.0625 21.96875 24.703125 23.78125 
L 21.578125 24.515625 
Q 13.234375 26.265625 9.515625 29.90625 
Q 5.8125 33.546875 5.8125 39.890625 
Q 5.8125 47.609375 11.28125 51.796875 
Q 16.75 56 26.8125 56 
Q 31.78125 56 36.171875 55.265625 
Q 40.578125 54.546875 44.28125 53.078125 
z
" id="DejaVuSans-115"/>
      <path d="M 56.203125 29.59375 
L 56.203125 25.203125 
L 14.890625 25.203125 
Q 15.484375 15.921875 20.484375 11.0625 
Q 25.484375 6.203125 34.421875 6.203125 
Q 39.59375 6.203125 44.453125 7.46875 
Q 49.3125 8.734375 54.109375 11.28125 
L 54.109375 2.78125 
Q 49.265625 0.734375 44.1875 -0.34375 
Q 39.109375 -1.421875 33.890625 -1.421875 
Q 20.796875 -1.421875 13.15625 6.1875 
Q 5.515625 13.8125 5.515625 26.8125 
Q 5.515625 40.234375 12.765625 48.109375 
Q 20.015625 56 32.328125 56 
Q 43.359375 56 49.78125 48.890625 
Q 56.203125 41.796875 56.203125 29.59375 
z
M 47.21875 32.234375 
Q 47.125 39.59375 43.09375 43.984375 
Q 39.0625 48.390625 32.421875 48.390625 
Q 24.90625 48.390625 20.390625 44.140625 
Q 15.875 39.890625 15.1875 32.171875 
z
" id="DejaVuSans-101"/>
     </defs>
     <g transform="translate(492.225313 59.237813)scale(0.14 -0.14)">
      <use xlink:href="#DejaVuSans-98"/>
      <use x="63.476562" xlink:href="#DejaVuSans-97"/>
      <use x="124.755859" xlink:href="#DejaVuSans-115"/>
      <use x="176.855469" xlink:href="#DejaVuSans-101"/>
     </g>
    </g>
    <g id="patch_6">
     <path d="M 453.025313 79.787188 
L 481.025313 79.787188 
L 481.025313 69.987188 
L 453.025313 69.987188 
z
" style="fill:#36a2eb;opacity:0.5;stroke:#36a2eb;stroke-linejoin:miter;"/>
    </g>
    <g id="text_2">
     <!-- new -->
     <defs>
      <path d="M 54.890625 33.015625 
L 54.890625 0 
L 45.90625 0 
L 45.90625 32.71875 
Q 45.90625 40.484375 42.875 44.328125 
Q 39.84375 48.1875 33.796875 48.1875 
Q 26.515625 48.1875 22.3125 43.546875 
Q 18.109375 38.921875 18.109375 30.90625 
L 18.109375 0 
L 9.078125 0 
L 9.078125 54.6875 
L 18.109375 54.6875 
L 18.109375 46.1875 
Q 21.34375 51.125 25.703125 53.5625 
Q 30.078125 56 35.796875 56 
Q 45.21875 56 50.046875 50.171875 
Q 54.890625 44.34375 54.890625 33.015625 
z
" id="DejaVuSans-110"/>
      <path d="M 4.203125 54.6875 
L 13.1875 54.6875 
L 24.421875 12.015625 
L 35.59375 54.6875 
L 46.1875 54.6875 
L 57.421875 12.015625 
L 68.609375 54.6875 
L 77.59375 54.6875 
L 63.28125 0 
L 52.6875 0 
L 40.921875 44.828125 
L 29.109375 0 
L 18.5 0 
z
" id="DejaVuSans-119"/>
     </defs>
     <g transform="translate(492.225313 79.787188)scale(0.14 -0.14)">
      <use xlink:href="#DejaVuSans-110"/>
      <use x="63.378906" xlink:href="#DejaVuSans-101"/>
      <use x="124.902344" xlink:href="#DejaVuSans-119"/>
     </g>
    </g>
   </g>
  </g>
  <g id="axes_2">
   <g id="patch_7">
    <path d="M 36 525.24 
L 538.2 525.24 
L 538.2 402.93 
L 36 402.93 
z
" style="fill:none;"/>
   </g>
   <g id="patch_8">
    <path clip-path="url(#pded924e75f)" d="M 194.093671 519.680455 
L 405.404728 519.680455 
L 405.404728 482.616818 
L 194.093671 482.616818 
z
" style="fill:#ff6384;opacity:0.5;"/>
   </g>
   <g id="patch_9">
    <path clip-path="url(#pded924e75f)" d="M 168.480872 445.553182 
L 379.187789 445.553182 
L 379.187789 408.489545 
L 168.480872 408.489545 
z
" style="fill:#36a2eb;opacity:0.5;"/>
   </g>
   <g id="matplotlib.axis_1">
    <g id="xtick_1">
     <g id="line2d_3">
      <defs>
       <path d="M 0 0 
L 0 3.5 
" id="m88134463c0" style="stroke:#000000;stroke-width:0.8;"/>
      </defs>
      <g>
       <use style="stroke:#000000;stroke-width:0.8;" x="110.940867" xlink:href="#m88134463c0" y="525.24"/>
      </g>
     </g>
     <g id="text_3">
      <!-- 7.5 -->
      <defs>
       <path d="M 8.203125 72.90625 
L 55.078125 72.90625 
L 55.078125 68.703125 
L 28.609375 0 
L 18.3125 0 
L 43.21875 64.59375 
L 8.203125 64.59375 
z
" id="DejaVuSans-55"/>
       <path d="M 10.6875 12.40625 
L 21 12.40625 
L 21 0 
L 10.6875 0 
z
" id="DejaVuSans-46"/>
       <path d="M 10.796875 72.90625 
L 49.515625 72.90625 
L 49.515625 64.59375 
L 19.828125 64.59375 
L 19.828125 46.734375 
Q 21.96875 47.46875 24.109375 47.828125 
Q 26.265625 48.1875 28.421875 48.1875 
Q 40.625 48.1875 47.75 41.5 
Q 54.890625 34.8125 54.890625 23.390625 
Q 54.890625 11.625 47.5625 5.09375 
Q 40.234375 -1.421875 26.90625 -1.421875 
Q 22.3125 -1.421875 17.546875 -0.640625 
Q 12.796875 0.140625 7.71875 1.703125 
L 7.71875 11.625 
Q 12.109375 9.234375 16.796875 8.0625 
Q 21.484375 6.890625 26.703125 6.890625 
Q 35.15625 6.890625 40.078125 11.328125 
Q 45.015625 15.765625 45.015625 23.390625 
Q 45.015625 31 40.078125 35.4375 
Q 35.15625 39.890625 26.703125 39.890625 
Q 22.75 39.890625 18.8125 39.015625 
Q 14.890625 38.140625 10.796875 36.28125 
z
" id="DejaVuSans-53"/>
      </defs>
      <g transform="translate(99.80868 542.877813)scale(0.14 -0.14)">
       <use xlink:href="#DejaVuSans-55"/>
       <use x="63.623047" xlink:href="#DejaVuSans-46"/>
       <use x="95.410156" xlink:href="#DejaVuSans-53"/>
      </g>
     </g>
    </g>
    <g id="xtick_2">
     <g id="line2d_4">
      <g>
       <use style="stroke:#000000;stroke-width:0.8;" x="203.493971" xlink:href="#m88134463c0" y="525.24"/>
      </g>
     </g>
     <g id="text_4">
      <!-- 8.0 -->
      <defs>
       <path d="M 31.78125 34.625 
Q 24.75 34.625 20.71875 30.859375 
Q 16.703125 27.09375 16.703125 20.515625 
Q 16.703125 13.921875 20.71875 10.15625 
Q 24.75 6.390625 31.78125 6.390625 
Q 38.8125 6.390625 42.859375 10.171875 
Q 46.921875 13.96875 46.921875 20.515625 
Q 46.921875 27.09375 42.890625 30.859375 
Q 38.875 34.625 31.78125 34.625 
z
M 21.921875 38.8125 
Q 15.578125 40.375 12.03125 44.71875 
Q 8.5 49.078125 8.5 55.328125 
Q 8.5 64.0625 14.71875 69.140625 
Q 20.953125 74.21875 31.78125 74.21875 
Q 42.671875 74.21875 48.875 69.140625 
Q 55.078125 64.0625 55.078125 55.328125 
Q 55.078125 49.078125 51.53125 44.71875 
Q 48 40.375 41.703125 38.8125 
Q 48.828125 37.15625 52.796875 32.3125 
Q 56.78125 27.484375 56.78125 20.515625 
Q 56.78125 9.90625 50.3125 4.234375 
Q 43.84375 -1.421875 31.78125 -1.421875 
Q 19.734375 -1.421875 13.25 4.234375 
Q 6.78125 9.90625 6.78125 20.515625 
Q 6.78125 27.484375 10.78125 32.3125 
Q 14.796875 37.15625 21.921875 38.8125 
z
M 18.3125 54.390625 
Q 18.3125 48.734375 21.84375 45.5625 
Q 25.390625 42.390625 31.78125 42.390625 
Q 38.140625 42.390625 41.71875 45.5625 
Q 45.3125 48.734375 45.3125 54.390625 
Q 45.3125 60.0625 41.71875 63.234375 
Q 38.140625 66.40625 31.78125 66.40625 
Q 25.390625 66.40625 21.84375 63.234375 
Q 18.3125 60.0625 18.3125 54.390625 
z
" id="DejaVuSans-56"/>
       <path d="M 31.78125 66.40625 
Q 24.171875 66.40625 20.328125 58.90625 
Q 16.5 51.421875 16.5 36.375 
Q 16.5 21.390625 20.328125 13.890625 
Q 24.171875 6.390625 31.78125 6.390625 
Q 39.453125 6.390625 43.28125 13.890625 
Q 47.125 21.390625 47.125 36.375 
Q 47.125 51.421875 43.28125 58.90625 
Q 39.453125 66.40625 31.78125 66.40625 
z
M 31.78125 74.21875 
Q 44.046875 74.21875 50.515625 64.515625 
Q 56.984375 54.828125 56.984375 36.375 
Q 56.984375 17.96875 50.515625 8.265625 
Q 44.046875 -1.421875 31.78125 -1.421875 
Q 19.53125 -1.421875 13.0625 8.265625 
Q 6.59375 17.96875 6.59375 36.375 
Q 6.59375 54.828125 13.0625 64.515625 
Q 19.53125 74.21875 31.78125 74.21875 
z
" id="DejaVuSans-48"/>
      </defs>
      <g transform="translate(192.361784 542.877813)scale(0.14 -0.14)">
       <use xlink:href="#DejaVuSans-56"/>
       <use x="63.623047" xlink:href="#DejaVuSans-46"/>
       <use x="95.410156" xlink:href="#DejaVuSans-48"/>
      </g>
     </g>
    </g>
    <g id="xtick_3">
     <g id="line2d_5">
      <g>
       <use style="stroke:#000000;stroke-width:0.8;" x="296.047075" xlink:href="#m88134463c0" y="525.24"/>
      </g>
     </g>
     <g id="text_5">
      <!-- 8.5 -->
      <g transform="translate(284.914888 542.877813)scale(0.14 -0.14)">
       <use xlink:href="#DejaVuSans-56"/>
       <use x="63.623047" xlink:href="#DejaVuSans-46"/>
       <use x="95.410156" xlink:href="#DejaVuSans-53"/>
      </g>
     </g>
    </g>
    <g id="xtick_4">
     <g id="line2d_6">
      <g>
       <use style="stroke:#000000;stroke-width:0.8;" x="388.600179" xlink:href="#m88134463c0" y="525.24"/>
      </g>
     </g>
     <g id="text_6">
      <!-- 9.0 -->
      <defs>
       <path d="M 10.984375 1.515625 
L 10.984375 10.5 
Q 14.703125 8.734375 18.5 7.8125 
Q 22.3125 6.890625 25.984375 6.890625 
Q 35.75 6.890625 40.890625 13.453125 
Q 46.046875 20.015625 46.78125 33.40625 
Q 43.953125 29.203125 39.59375 26.953125 
Q 35.25 24.703125 29.984375 24.703125 
Q 19.046875 24.703125 12.671875 31.3125 
Q 6.296875 37.9375 6.296875 49.421875 
Q 6.296875 60.640625 12.9375 67.421875 
Q 19.578125 74.21875 30.609375 74.21875 
Q 43.265625 74.21875 49.921875 64.515625 
Q 56.59375 54.828125 56.59375 36.375 
Q 56.59375 19.140625 48.40625 8.859375 
Q 40.234375 -1.421875 26.421875 -1.421875 
Q 22.703125 -1.421875 18.890625 -0.6875 
Q 15.09375 0.046875 10.984375 1.515625 
z
M 30.609375 32.421875 
Q 37.25 32.421875 41.125 36.953125 
Q 45.015625 41.5 45.015625 49.421875 
Q 45.015625 57.28125 41.125 61.84375 
Q 37.25 66.40625 30.609375 66.40625 
Q 23.96875 66.40625 20.09375 61.84375 
Q 16.21875 57.28125 16.21875 49.421875 
Q 16.21875 41.5 20.09375 36.953125 
Q 23.96875 32.421875 30.609375 32.421875 
z
" id="DejaVuSans-57"/>
      </defs>
      <g transform="translate(377.467992 542.877813)scale(0.14 -0.14)">
       <use xlink:href="#DejaVuSans-57"/>
       <use x="63.623047" xlink:href="#DejaVuSans-46"/>
       <use x="95.410156" xlink:href="#DejaVuSans-48"/>
      </g>
     </g>
    </g>
    <g id="xtick_5">
     <g id="line2d_7">
      <g>
       <use style="stroke:#000000;stroke-width:0.8;" x="481.153284" xlink:href="#m88134463c0" y="525.24"/>
      </g>
     </g>
     <g id="text_7">
      <!-- 9.5 -->
      <g transform="translate(470.021096 542.877813)scale(0.14 -0.14)">
       <use xlink:href="#DejaVuSans-57"/>
       <use x="63.623047" xlink:href="#DejaVuSans-46"/>
       <use x="95.410156" xlink:href="#DejaVuSans-53"/>
      </g>
     </g>
    </g>
   </g>
   <g id="line2d_8">
    <path clip-path="url(#pded924e75f)" d="M 299.7492 525.24 
L 299.7492 402.93 
" style="fill:none;stroke:#ff6384;stroke-dasharray:5.55,2.4;stroke-dashoffset:0;stroke-opacity:0.8;stroke-width:1.5;"/>
   </g>
   <g id="line2d_9">
    <path clip-path="url(#pded924e75f)" d="M 273.83433 525.24 
L 273.83433 402.93 
" style="fill:none;stroke:#36a2eb;stroke-dasharray:5.55,2.4;stroke-dashoffset:0;stroke-opacity:0.8;stroke-width:1.5;"/>
   </g>
   <g id="patch_10">
    <path d="M 36 525.24 
L 538.2 525.24 
" style="fill:none;stroke:#000000;stroke-linecap:square;stroke-linejoin:miter;stroke-width:0.8;"/>
   </g>
  </g>
 </g>
 <defs>
  <clipPath id="pfa5af77505">
   <rect height="366.93" width="502.2" x="36" y="36"/>
  </clipPath>
  <clipPath id="pded924e75f">
   <rect height="122.31" width="502.2" x="36" y="402.93"/>
  </clipPath>
 </defs>
</svg>
