<?xml version="1.0" encoding="utf-8" standalone="no"?>
<!DOCTYPE svg PUBLIC "-//W3C//DTD SVG 1.1//EN"
  "http://www.w3.org/Graphics/SVG/1.1/DTD/svg11.dtd">
<!-- Created with matplotlib (https://matplotlib.org/) -->
<svg height="581.789375pt" version="1.1" viewBox="0 0 574.2 581.789375" width="574.2pt" xmlns="http://www.w3.org/2000/svg" xmlns:xlink="http://www.w3.org/1999/xlink">
 <defs>
  <style type="text/css">
*{stroke-linecap:butt;stroke-linejoin:round;}
  </style>
 </defs>
 <g id="figure_1">
  <g id="patch_1">
   <path d="M 0 581.789375 
L 574.2 581.789375 
L 574.2 0 
L 0 0 
z
" style="fill:none;"/>
  </g>
  <g id="axes_1">
   <g id="patch_2">
    <path d="M 36 402.93 
L 538.2 402.93 
L 538.2 36 
L 36 36 
z
" style="fill:none;"/>
   </g>
   <g id="PolyCollection_1">
    <defs>
     <path d="M 92.223988 -195.538011 
L 92.223988 -195.638759 
L 96.498217 -195.676749 
L 100.772447 -195.727821 
L 105.046677 -195.796004 
L 109.320907 -195.886396 
L 113.595136 -196.005397 
L 117.869366 -196.160965 
L 122.143596 -196.36291 
L 126.417825 -196.62321 
L 130.692055 -196.956356 
L 134.966285 -197.37971 
L 139.240514 -197.913863 
L 143.514744 -198.582991 
L 147.788974 -199.415168 
L 152.063203 -200.442644 
L 156.337433 -201.702026 
L 160.611663 -203.234363 
L 164.885893 -205.085084 
L 169.160122 -207.303763 
L 173.434352 -209.943672 
L 177.708582 -213.061104 
L 181.982811 -216.714425 
L 186.257041 -220.962848 
L 190.531271 -225.864909 
L 194.8055 -231.476673 
L 199.07973 -237.849654 
L 203.35396 -245.028524 
L 207.628189 -253.048638 
L 211.902419 -261.933463 
L 216.176649 -271.691997 
L 220.450879 -282.316289 
L 224.725108 -293.779175 
L 228.999338 -306.032355 
L 233.273568 -319.00495 
L 237.547797 -332.602639 
L 241.822027 -346.707513 
L 246.096257 -361.178711 
L 250.370486 -375.853905 
L 254.644716 -390.551676 
L 258.918946 -405.074739 
L 263.193175 -419.213993 
L 267.467405 -432.753273 
L 271.741635 -445.474683 
L 276.015865 -457.164323 
L 280.290094 -467.61821 
L 284.564324 -476.648166 
L 288.838554 -484.087435 
L 293.112783 -489.795802 
L 297.387013 -493.663981 
L 301.661243 -495.617097 
L 305.935472 -495.617097 
L 310.209702 -493.663981 
L 314.483932 -489.795802 
L 318.758161 -484.087435 
L 323.032391 -476.648166 
L 327.306621 -467.61821 
L 331.580851 -457.164323 
L 335.85508 -445.474683 
L 340.12931 -432.753273 
L 344.40354 -419.213993 
L 348.677769 -405.074739 
L 352.951999 -390.551676 
L 357.226229 -375.853905 
L 361.500458 -361.178711 
L 365.774688 -346.707513 
L 370.048918 -332.602639 
L 374.323147 -319.00495 
L 378.597377 -306.032355 
L 382.871607 -293.779175 
L 387.145837 -282.316289 
L 391.420066 -271.691997 
L 395.694296 -261.933463 
L 399.968526 -253.048638 
L 404.242755 -245.028524 
L 408.516985 -237.849654 
L 412.791215 -231.476673 
L 417.065444 -225.864909 
L 421.339674 -220.962848 
L 425.613904 -216.714425 
L 429.888133 -213.061104 
L 434.162363 -209.943672 
L 438.436593 -207.303763 
L 442.710823 -205.085084 
L 446.985052 -203.234363 
L 451.259282 -201.702026 
L 455.533512 -200.442644 
L 459.807741 -199.415168 
L 464.081971 -198.582991 
L 468.356201 -197.913863 
L 472.63043 -197.37971 
L 476.90466 -196.956356 
L 481.17889 -196.62321 
L 485.453119 -196.36291 
L 489.727349 -196.160965 
L 494.001579 -196.005397 
L 498.275809 -195.886396 
L 502.550038 -195.796004 
L 506.824268 -195.727821 
L 511.098498 -195.676749 
L 515.372727 -195.638759 
L 515.372727 -195.538011 
L 515.372727 -195.538011 
L 511.098498 -195.538011 
L 506.824268 -195.538011 
L 502.550038 -195.538011 
L 498.275809 -195.538011 
L 494.001579 -195.538011 
L 489.727349 -195.538011 
L 485.453119 -195.538011 
L 481.17889 -195.538011 
L 476.90466 -195.538011 
L 472.63043 -195.538011 
L 468.356201 -195.538011 
L 464.081971 -195.538011 
L 459.807741 -195.538011 
L 455.533512 -195.538011 
L 451.259282 -195.538011 
L 446.985052 -195.538011 
L 442.710823 -195.538011 
L 438.436593 -195.538011 
L 434.162363 -195.538011 
L 429.888133 -195.538011 
L 425.613904 -195.538011 
L 421.339674 -195.538011 
L 417.065444 -195.538011 
L 412.791215 -195.538011 
L 408.516985 -195.538011 
L 404.242755 -195.538011 
L 399.968526 -195.538011 
L 395.694296 -195.538011 
L 391.420066 -195.538011 
L 387.145837 -195.538011 
L 382.871607 -195.538011 
L 378.597377 -195.538011 
L 374.323147 -195.538011 
L 370.048918 -195.538011 
L 365.774688 -195.538011 
L 361.500458 -195.538011 
L 357.226229 -195.538011 
L 352.951999 -195.538011 
L 348.677769 -195.538011 
L 344.40354 -195.538011 
L 340.12931 -195.538011 
L 335.85508 -195.538011 
L 331.580851 -195.538011 
L 327.306621 -195.538011 
L 323.032391 -195.538011 
L 318.758161 -195.538011 
L 314.483932 -195.538011 
L 310.209702 -195.538011 
L 305.935472 -195.538011 
L 301.661243 -195.538011 
L 297.387013 -195.538011 
L 293.112783 -195.538011 
L 288.838554 -195.538011 
L 284.564324 -195.538011 
L 280.290094 -195.538011 
L 276.015865 -195.538011 
L 271.741635 -195.538011 
L 267.467405 -195.538011 
L 263.193175 -195.538011 
L 258.918946 -195.538011 
L 254.644716 -195.538011 
L 250.370486 -195.538011 
L 246.096257 -195.538011 
L 241.822027 -195.538011 
L 237.547797 -195.538011 
L 233.273568 -195.538011 
L 228.999338 -195.538011 
L 224.725108 -195.538011 
L 220.450879 -195.538011 
L 216.176649 -195.538011 
L 211.902419 -195.538011 
L 207.628189 -195.538011 
L 203.35396 -195.538011 
L 199.07973 -195.538011 
L 194.8055 -195.538011 
L 190.531271 -195.538011 
L 186.257041 -195.538011 
L 181.982811 -195.538011 
L 177.708582 -195.538011 
L 173.434352 -195.538011 
L 169.160122 -195.538011 
L 164.885893 -195.538011 
L 160.611663 -195.538011 
L 156.337433 -195.538011 
L 152.063203 -195.538011 
L 147.788974 -195.538011 
L 143.514744 -195.538011 
L 139.240514 -195.538011 
L 134.966285 -195.538011 
L 130.692055 -195.538011 
L 126.417825 -195.538011 
L 122.143596 -195.538011 
L 117.869366 -195.538011 
L 113.595136 -195.538011 
L 109.320907 -195.538011 
L 105.046677 -195.538011 
L 100.772447 -195.538011 
L 96.498217 -195.538011 
L 92.223988 -195.538011 
z
" id="m609f27de4f" style="stroke:#ff6384;stroke-opacity:0.5;"/>
    </defs>
    <g clip-path="url(#p51b2c13b2d)">
     <use style="fill:#ff6384;fill-opacity:0.5;stroke:#ff6384;stroke-opacity:0.5;" x="0" xlink:href="#m609f27de4f" y="581.789375"/>
    </g>
   </g>
   <g id="PolyCollection_2">
    <defs>
     <path d="M 58.827273 -195.538011 
L 58.827273 -195.650004 
L 62.672332 -195.692234 
L 66.517391 -195.749007 
L 70.362451 -195.8248 
L 74.20751 -195.925281 
L 78.05257 -196.057565 
L 81.897629 -196.230497 
L 85.742688 -196.454982 
L 89.587748 -196.744335 
L 93.432807 -197.114666 
L 97.277866 -197.585273 
L 101.122926 -198.179047 
L 104.967985 -198.922859 
L 108.813044 -199.847921 
L 112.658104 -200.990079 
L 116.503163 -202.390029 
L 120.348223 -204.093399 
L 124.193282 -206.150691 
L 128.038341 -208.617009 
L 131.883401 -211.551575 
L 135.72846 -215.016962 
L 139.573519 -219.078053 
L 143.418579 -223.800667 
L 147.263638 -229.249878 
L 151.108698 -235.488004 
L 154.953757 -242.572312 
L 158.798816 -250.552459 
L 162.643876 -259.467747 
L 166.488935 -269.344261 
L 170.333994 -280.192004 
L 174.179054 -292.002137 
L 178.024113 -304.744465 
L 181.869172 -318.365297 
L 185.714232 -332.785841 
L 189.559291 -347.901251 
L 193.404351 -363.580456 
L 197.24941 -379.666871 
L 201.094469 -395.980052 
L 204.939529 -412.31833 
L 208.784588 -428.4624 
L 212.629647 -444.179822 
L 216.474707 -459.230303 
L 220.319766 -473.371627 
L 224.164825 -486.366018 
L 228.009885 -497.986726 
L 231.854944 -508.02457 
L 235.700004 -516.294181 
L 239.545063 -522.639693 
L 243.390122 -526.939623 
L 247.235182 -529.110739 
L 251.080241 -529.110739 
L 254.9253 -526.939623 
L 258.77036 -522.639693 
L 262.615419 -516.294181 
L 266.460478 -508.02457 
L 270.305538 -497.986726 
L 274.150597 -486.366018 
L 277.995657 -473.371627 
L 281.840716 -459.230303 
L 285.685775 -444.179822 
L 289.530835 -428.4624 
L 293.375894 -412.31833 
L 297.220953 -395.980052 
L 301.066013 -379.666871 
L 304.911072 -363.580456 
L 308.756132 -347.901251 
L 312.601191 -332.785841 
L 316.44625 -318.365297 
L 320.29131 -304.744465 
L 324.136369 -292.002137 
L 327.981428 -280.192004 
L 331.826488 -269.344261 
L 335.671547 -259.467747 
L 339.516606 -250.552459 
L 343.361666 -242.572312 
L 347.206725 -235.488004 
L 351.051785 -229.249878 
L 354.896844 -223.800667 
L 358.741903 -219.078053 
L 362.586963 -215.016962 
L 366.432022 -211.551575 
L 370.277081 -208.617009 
L 374.122141 -206.150691 
L 377.9672 -204.093399 
L 381.812259 -202.390029 
L 385.657319 -200.990079 
L 389.502378 -199.847921 
L 393.347438 -198.922859 
L 397.192497 -198.179047 
L 401.037556 -197.585273 
L 404.882616 -197.114666 
L 408.727675 -196.744335 
L 412.572734 -196.454982 
L 416.417794 -196.230497 
L 420.262853 -196.057565 
L 424.107912 -195.925281 
L 427.952972 -195.8248 
L 431.798031 -195.749007 
L 435.643091 -195.692234 
L 439.48815 -195.650004 
L 439.48815 -195.538011 
L 439.48815 -195.538011 
L 435.643091 -195.538011 
L 431.798031 -195.538011 
L 427.952972 -195.538011 
L 424.107912 -195.538011 
L 420.262853 -195.538011 
L 416.417794 -195.538011 
L 412.572734 -195.538011 
L 408.727675 -195.538011 
L 404.882616 -195.538011 
L 401.037556 -195.538011 
L 397.192497 -195.538011 
L 393.347438 -195.538011 
L 389.502378 -195.538011 
L 385.657319 -195.538011 
L 381.812259 -195.538011 
L 377.9672 -195.538011 
L 374.122141 -195.538011 
L 370.277081 -195.538011 
L 366.432022 -195.538011 
L 362.586963 -195.538011 
L 358.741903 -195.538011 
L 354.896844 -195.538011 
L 351.051785 -195.538011 
L 347.206725 -195.538011 
L 343.361666 -195.538011 
L 339.516606 -195.538011 
L 335.671547 -195.538011 
L 331.826488 -195.538011 
L 327.981428 -195.538011 
L 324.136369 -195.538011 
L 320.29131 -195.538011 
L 316.44625 -195.538011 
L 312.601191 -195.538011 
L 308.756132 -195.538011 
L 304.911072 -195.538011 
L 301.066013 -195.538011 
L 297.220953 -195.538011 
L 293.375894 -195.538011 
L 289.530835 -195.538011 
L 285.685775 -195.538011 
L 281.840716 -195.538011 
L 277.995657 -195.538011 
L 274.150597 -195.538011 
L 270.305538 -195.538011 
L 266.460478 -195.538011 
L 262.615419 -195.538011 
L 258.77036 -195.538011 
L 254.9253 -195.538011 
L 251.080241 -195.538011 
L 247.235182 -195.538011 
L 243.390122 -195.538011 
L 239.545063 -195.538011 
L 235.700004 -195.538011 
L 231.854944 -195.538011 
L 228.009885 -195.538011 
L 224.164825 -195.538011 
L 220.319766 -195.538011 
L 216.474707 -195.538011 
L 212.629647 -195.538011 
L 208.784588 -195.538011 
L 204.939529 -195.538011 
L 201.094469 -195.538011 
L 197.24941 -195.538011 
L 193.404351 -195.538011 
L 189.559291 -195.538011 
L 185.714232 -195.538011 
L 181.869172 -195.538011 
L 178.024113 -195.538011 
L 174.179054 -195.538011 
L 170.333994 -195.538011 
L 166.488935 -195.538011 
L 162.643876 -195.538011 
L 158.798816 -195.538011 
L 154.953757 -195.538011 
L 151.108698 -195.538011 
L 147.263638 -195.538011 
L 143.418579 -195.538011 
L 139.573519 -195.538011 
L 135.72846 -195.538011 
L 131.883401 -195.538011 
L 128.038341 -195.538011 
L 124.193282 -195.538011 
L 120.348223 -195.538011 
L 116.503163 -195.538011 
L 112.658104 -195.538011 
L 108.813044 -195.538011 
L 104.967985 -195.538011 
L 101.122926 -195.538011 
L 97.277866 -195.538011 
L 93.432807 -195.538011 
L 89.587748 -195.538011 
L 85.742688 -195.538011 
L 81.897629 -195.538011 
L 78.05257 -195.538011 
L 74.20751 -195.538011 
L 70.362451 -195.538011 
L 66.517391 -195.538011 
L 62.672332 -195.538011 
L 58.827273 -195.538011 
z
" id="m5920960d3f" style="stroke:#36a2eb;stroke-opacity:0.5;"/>
    </defs>
    <g clip-path="url(#p51b2c13b2d)">
     <use style="fill:#36a2eb;fill-opacity:0.5;stroke:#36a2eb;stroke-opacity:0.5;" x="0" xlink:href="#m5920960d3f" y="581.789375"/>
    </g>
   </g>
   <g id="line2d_1">
    <path clip-path="url(#p51b2c13b2d)" d="M 92.223988 386.150616 
L 96.498217 386.112626 
L 100.772447 386.061554 
L 105.046677 385.993371 
L 109.320907 385.902979 
L 113.595136 385.783978 
L 117.869366 385.62841 
L 122.143596 385.426465 
L 126.417825 385.166165 
L 130.692055 384.833019 
L 134.966285 384.409665 
L 139.240514 383.875512 
L 143.514744 383.206384 
L 147.788974 382.374207 
L 152.063203 381.346731 
L 156.337433 380.087349 
L 160.611663 378.555012 
L 164.885893 376.704291 
L 169.160122 374.485612 
L 173.434352 371.845703 
L 177.708582 368.728271 
L 181.982811 365.07495 
L 186.257041 360.826527 
L 190.531271 355.924466 
L 194.8055 350.312702 
L 199.07973 343.939721 
L 203.35396 336.760851 
L 207.628189 328.740737 
L 211.902419 319.855912 
L 216.176649 310.097378 
L 220.450879 299.473086 
L 224.725108 288.0102 
L 228.999338 275.75702 
L 233.273568 262.784425 
L 237.547797 249.186736 
L 241.822027 235.081862 
L 246.096257 220.610664 
L 250.370486 205.93547 
L 254.644716 191.237699 
L 258.918946 176.714636 
L 263.193175 162.575382 
L 267.467405 149.036102 
L 271.741635 136.314692 
L 276.015865 124.625052 
L 280.290094 114.171165 
L 284.564324 105.141209 
L 288.838554 97.70194 
L 293.112783 91.993573 
L 297.387013 88.125394 
L 301.661243 86.172278 
L 305.935472 86.172278 
L 310.209702 88.125394 
L 314.483932 91.993573 
L 318.758161 97.70194 
L 323.032391 105.141209 
L 327.306621 114.171165 
L 331.580851 124.625052 
L 335.85508 136.314692 
L 340.12931 149.036102 
L 344.40354 162.575382 
L 348.677769 176.714636 
L 352.951999 191.237699 
L 357.226229 205.93547 
L 361.500458 220.610664 
L 365.774688 235.081862 
L 370.048918 249.186736 
L 374.323147 262.784425 
L 378.597377 275.75702 
L 382.871607 288.0102 
L 387.145837 299.473086 
L 391.420066 310.097378 
L 395.694296 319.855912 
L 399.968526 328.740737 
L 404.242755 336.760851 
L 408.516985 343.939721 
L 412.791215 350.312702 
L 417.065444 355.924466 
L 421.339674 360.826527 
L 425.613904 365.07495 
L 429.888133 368.728271 
L 434.162363 371.845703 
L 438.436593 374.485612 
L 442.710823 376.704291 
L 446.985052 378.555012 
L 451.259282 380.087349 
L 455.533512 381.346731 
L 459.807741 382.374207 
L 464.081971 383.206384 
L 468.356201 383.875512 
L 472.63043 384.409665 
L 476.90466 384.833019 
L 481.17889 385.166165 
L 485.453119 385.426465 
L 489.727349 385.62841 
L 494.001579 385.783978 
L 498.275809 385.902979 
L 502.550038 385.993371 
L 506.824268 386.061554 
L 511.098498 386.112626 
L 515.372727 386.150616 
" style="fill:none;stroke:#ff6384;stroke-linecap:square;"/>
   </g>
   <g id="line2d_2">
    <path clip-path="url(#p51b2c13b2d)" d="M 58.827273 386.139371 
L 62.672332 386.097141 
L 66.517391 386.040368 
L 70.362451 385.964575 
L 74.20751 385.864094 
L 78.05257 385.73181 
L 81.897629 385.558878 
L 85.742688 385.334393 
L 89.587748 385.04504 
L 93.432807 384.674709 
L 97.277866 384.204102 
L 101.122926 383.610328 
L 104.967985 382.866516 
L 108.813044 381.941454 
L 112.658104 380.799296 
L 116.503163 379.399346 
L 120.348223 377.695976 
L 124.193282 375.638684 
L 128.038341 373.172366 
L 131.883401 370.2378 
L 135.72846 366.772413 
L 139.573519 362.711322 
L 143.418579 357.988708 
L 147.263638 352.539497 
L 151.108698 346.301371 
L 154.953757 339.217063 
L 158.798816 331.236916 
L 162.643876 322.321628 
L 166.488935 312.445114 
L 170.333994 301.597371 
L 174.179054 289.787238 
L 178.024113 277.04491 
L 181.869172 263.424078 
L 185.714232 249.003534 
L 189.559291 233.888124 
L 193.404351 218.208919 
L 197.24941 202.122504 
L 201.094469 185.809323 
L 204.939529 169.471045 
L 208.784588 153.326975 
L 212.629647 137.609553 
L 216.474707 122.559072 
L 220.319766 108.417748 
L 224.164825 95.423357 
L 228.009885 83.802649 
L 231.854944 73.764805 
L 235.700004 65.495194 
L 239.545063 59.149682 
L 243.390122 54.849752 
L 247.235182 52.678636 
L 251.080241 52.678636 
L 254.9253 54.849752 
L 258.77036 59.149682 
L 262.615419 65.495194 
L 266.460478 73.764805 
L 270.305538 83.802649 
L 274.150597 95.423357 
L 277.995657 108.417748 
L 281.840716 122.559072 
L 285.685775 137.609553 
L 289.530835 153.326975 
L 293.375894 169.471045 
L 297.220953 185.809323 
L 301.066013 202.122504 
L 304.911072 218.208919 
L 308.756132 233.888124 
L 312.601191 249.003534 
L 316.44625 263.424078 
L 320.29131 277.04491 
L 324.136369 289.787238 
L 327.981428 301.597371 
L 331.826488 312.445114 
L 335.671547 322.321628 
L 339.516606 331.236916 
L 343.361666 339.217063 
L 347.206725 346.301371 
L 351.051785 352.539497 
L 354.896844 357.988708 
L 358.741903 362.711322 
L 362.586963 366.772413 
L 366.432022 370.2378 
L 370.277081 373.172366 
L 374.122141 375.638684 
L 377.9672 377.695976 
L 381.812259 379.399346 
L 385.657319 380.799296 
L 389.502378 381.941454 
L 393.347438 382.866516 
L 397.192497 383.610328 
L 401.037556 384.204102 
L 404.882616 384.674709 
L 408.727675 385.04504 
L 412.572734 385.334393 
L 416.417794 385.558878 
L 420.262853 385.73181 
L 424.107912 385.864094 
L 427.952972 385.964575 
L 431.798031 386.040368 
L 435.643091 386.097141 
L 439.48815 386.139371 
" style="fill:none;stroke:#36a2eb;stroke-linecap:square;"/>
   </g>
   <g id="patch_3">
    <path d="M 36 402.93 
L 538.2 402.93 
" style="fill:none;stroke:#000000;stroke-linecap:square;stroke-linejoin:miter;stroke-width:0.8;"/>
   </g>
   <g id="legend_1">
    <g id="patch_4">
     <path d="M 450.225313 88.29875 
L 528.4 88.29875 
Q 531.2 88.29875 531.2 85.49875 
L 531.2 45.8 
Q 531.2 43 528.4 43 
L 450.225313 43 
Q 447.425313 43 447.425313 45.8 
L 447.425313 85.49875 
Q 447.425313 88.29875 450.225313 88.29875 
z
" style="fill:#ffffff;opacity:0.8;stroke:#cccccc;stroke-linejoin:miter;"/>
    </g>
    <g id="patch_5">
     <path d="M 453.025313 59.237813 
L 481.025313 59.237813 
L 481.025313 49.437813 
L 453.025313 49.437813 
z
" style="fill:#ff6384;opacity:0.5;stroke:#ff6384;stroke-linejoin:miter;"/>
    </g>
    <g id="text_1">
     <!-- base -->
     <defs>
      <path d="M 48.6875 27.296875 
Q 48.6875 37.203125 44.609375 42.84375 
Q 40.53125 48.484375 33.40625 48.484375 
Q 26.265625 48.484375 22.1875 42.84375 
Q 18.109375 37.203125 18.109375 27.296875 
Q 18.109375 17.390625 22.1875 11.75 
Q 26.265625 6.109375 33.40625 6.109375 
Q 40.53125 6.109375 44.609375 11.75 
Q 48.6875 17.390625 48.6875 27.296875 
z
M 18.109375 46.390625 
Q 20.953125 51.265625 25.265625 53.625 
Q 29.59375 56 35.59375 56 
Q 45.5625 56 51.78125 48.09375 
Q 58.015625 40.1875 58.015625 27.296875 
Q 58.015625 14.40625 51.78125 6.484375 
Q 45.5625 -1.421875 35.59375 -1.421875 
Q 29.59375 -1.421875 25.265625 0.953125 
Q 20.953125 3.328125 18.109375 8.203125 
L 18.109375 0 
L 9.078125 0 
L 9.078125 75.984375 
L 18.109375 75.984375 
z
" id="DejaVuSans-98"/>
      <path d="M 34.28125 27.484375 
Q 23.390625 27.484375 19.1875 25 
Q 14.984375 22.515625 14.984375 16.5 
Q 14.984375 11.71875 18.140625 8.90625 
Q 21.296875 6.109375 26.703125 6.109375 
Q 34.1875 6.109375 38.703125 11.40625 
Q 43.21875 16.703125 43.21875 25.484375 
L 43.21875 27.484375 
z
M 52.203125 31.203125 
L 52.203125 0 
L 43.21875 0 
L 43.21875 8.296875 
Q 40.140625 3.328125 35.546875 0.953125 
Q 30.953125 -1.421875 24.3125 -1.421875 
Q 15.921875 -1.421875 10.953125 3.296875 
Q 6 8.015625 6 15.921875 
Q 6 25.140625 12.171875 29.828125 
Q 18.359375 34.515625 30.609375 34.515625 
L 43.21875 34.515625 
L 43.21875 35.40625 
Q 43.21875 41.609375 39.140625 45 
Q 35.0625 48.390625 27.6875 48.390625 
Q 23 48.390625 18.546875 47.265625 
Q 14.109375 46.140625 10.015625 43.890625 
L 10.015625 52.203125 
Q 14.9375 54.109375 19.578125 55.046875 
Q 24.21875 56 28.609375 56 
Q 40.484375 56 46.34375 49.84375 
Q 52.203125 43.703125 52.203125 31.203125 
z
" id="DejaVuSans-97"/>
      <path d="M 44.28125 53.078125 
L 44.28125 44.578125 
Q 40.484375 46.53125 36.375 47.5 
Q 32.28125 48.484375 27.875 48.484375 
Q 21.1875 48.484375 17.84375 46.4375 
Q 14.5 44.390625 14.5 40.28125 
Q 14.5 37.15625 16.890625 35.375 
Q 19.28125 33.59375 26.515625 31.984375 
L 29.59375 31.296875 
Q 39.15625 29.25 43.1875 25.515625 
Q 47.21875 21.78125 47.21875 15.09375 
Q 47.21875 7.46875 41.1875 3.015625 
Q 35.15625 -1.421875 24.609375 -1.421875 
Q 20.21875 -1.421875 15.453125 -0.5625 
Q 10.6875 0.296875 5.421875 2 
L 5.421875 11.28125 
Q 10.40625 8.6875 15.234375 7.390625 
Q 20.0625 6.109375 24.8125 6.109375 
Q 31.15625 6.109375 34.5625 8.28125 
Q 37.984375 10.453125 37.984375 14.40625 
Q 37.984375 18.0625 35.515625 20.015625 
Q 33.0625 21.96875 24.703125 23.78125 
L 21.578125 24.515625 
Q 13.234375 26.265625 9.515625 29.90625 
Q 5.8125 33.546875 5.8125 39.890625 
Q 5.8125 47.609375 11.28125 51.796875 
Q 16.75 56 26.8125 56 
Q 31.78125 56 36.171875 55.265625 
Q 40.578125 54.546875 44.28125 53.078125 
z
" id="DejaVuSans-115"/>
      <path d="M 56.203125 29.59375 
L 56.203125 25.203125 
L 14.890625 25.203125 
Q 15.484375 15.921875 20.484375 11.0625 
Q 25.484375 6.203125 34.421875 6.203125 
Q 39.59375 6.203125 44.453125 7.46875 
Q 49.3125 8.734375 54.109375 11.28125 
L 54.109375 2.78125 
Q 49.265625 0.734375 44.1875 -0.34375 
Q 39.109375 -1.421875 33.890625 -1.421875 
Q 20.796875 -1.421875 13.15625 6.1875 
Q 5.515625 13.8125 5.515625 26.8125 
Q 5.515625 40.234375 12.765625 48.109375 
Q 20.015625 56 32.328125 56 
Q 43.359375 56 49.78125 48.890625 
Q 56.203125 41.796875 56.203125 29.59375 
z
M 47.21875 32.234375 
Q 47.125 39.59375 43.09375 43.984375 
Q 39.0625 48.390625 32.421875 48.390625 
Q 24.90625 48.390625 20.390625 44.140625 
Q 15.875 39.890625 15.1875 32.171875 
z
" id="DejaVuSans-101"/>
     </defs>
     <g transform="translate(492.225313 59.237813)scale(0.14 -0.14)">
      <use xlink:href="#DejaVuSans-98"/>
      <use x="63.476562" xlink:href="#DejaVuSans-97"/>
      <use x="124.755859" xlink:href="#DejaVuSans-115"/>
      <use x="176.855469" xlink:href="#DejaVuSans-101"/>
     </g>
    </g>
    <g id="patch_6">
     <path d="M 453.025313 79.787188 
L 481.025313 79.787188 
L 481.025313 69.987188 
L 453.025313 69.987188 
z
" style="fill:#36a2eb;opacity:0.5;stroke:#36a2eb;stroke-linejoin:miter;"/>
    </g>
    <g id="text_2">
     <!-- new -->
     <defs>
      <path d="M 54.890625 33.015625 
L 54.890625 0 
L 45.90625 0 
L 45.90625 32.71875 
Q 45.90625 40.484375 42.875 44.328125 
Q 39.84375 48.1875 33.796875 48.1875 
Q 26.515625 48.1875 22.3125 43.546875 
Q 18.109375 38.921875 18.109375 30.90625 
L 18.109375 0 
L 9.078125 0 
L 9.078125 54.6875 
L 18.109375 54.6875 
L 18.109375 46.1875 
Q 21.34375 51.125 25.703125 53.5625 
Q 30.078125 56 35.796875 56 
Q 45.21875 56 50.046875 50.171875 
Q 54.890625 44.34375 54.890625 33.015625 
z
" id="DejaVuSans-110"/>
      <path d="M 4.203125 54.6875 
L 13.1875 54.6875 
L 24.421875 12.015625 
L 35.59375 54.6875 
L 46.1875 54.6875 
L 57.421875 12.015625 
L 68.609375 54.6875 
L 77.59375 54.6875 
L 63.28125 0 
L 52.6875 0 
L 40.921875 44.828125 
L 29.109375 0 
L 18.5 0 
z
" id="DejaVuSans-119"/>
     </defs>
     <g transform="translate(492.225313 79.787188)scale(0.14 -0.14)">
      <use xlink:href="#DejaVuSans-110"/>
      <use x="63.378906" xlink:href="#DejaVuSans-101"/>
      <use x="124.902344" xlink:href="#DejaVuSans-119"/>
     </g>
    </g>
   </g>
  </g>
  <g id="axes_2">
   <g id="patch_7">
    <path d="M 36 525.24 
L 538.2 525.24 
L 538.2 402.93 
L 36 402.93 
z
" style="fill:none;"/>
   </g>
   <g id="patch_8">
    <path clip-path="url(#pd12d274c1c)" d="M 200.126916 519.680455 
L 407.469799 519.680455 
L 407.469799 482.616818 
L 200.126916 482.616818 
z
" style="fill:#ff6384;opacity:0.5;"/>
   </g>
   <g id="patch_9">
    <path clip-path="url(#pd12d274c1c)" d="M 155.895796 445.553182 
L 342.419626 445.553182 
L 342.419626 408.489545 
L 155.895796 408.489545 
z
" style="fill:#36a2eb;opacity:0.5;"/>
   </g>
   <g id="matplotlib.axis_1">
    <g id="xtick_1">
     <g id="line2d_3">
      <defs>
       <path d="M 0 0 
L 0 3.5 
" id="mba79980c43" style="stroke:#000000;stroke-width:0.8;"/>
      </defs>
      <g>
       <use style="stroke:#000000;stroke-width:0.8;" x="94.678472" xlink:href="#mba79980c43" y="525.24"/>
      </g>
     </g>
     <g id="text_3">
      <!-- 7.75 -->
      <defs>
       <path d="M 8.203125 72.90625 
L 55.078125 72.90625 
L 55.078125 68.703125 
L 28.609375 0 
L 18.3125 0 
L 43.21875 64.59375 
L 8.203125 64.59375 
z
" id="DejaVuSans-55"/>
       <path d="M 10.6875 12.40625 
L 21 12.40625 
L 21 0 
L 10.6875 0 
z
" id="DejaVuSans-46"/>
       <path d="M 10.796875 72.90625 
L 49.515625 72.90625 
L 49.515625 64.59375 
L 19.828125 64.59375 
L 19.828125 46.734375 
Q 21.96875 47.46875 24.109375 47.828125 
Q 26.265625 48.1875 28.421875 48.1875 
Q 40.625 48.1875 47.75 41.5 
Q 54.890625 34.8125 54.890625 23.390625 
Q 54.890625 11.625 47.5625 5.09375 
Q 40.234375 -1.421875 26.90625 -1.421875 
Q 22.3125 -1.421875 17.546875 -0.640625 
Q 12.796875 0.140625 7.71875 1.703125 
L 7.71875 11.625 
Q 12.109375 9.234375 16.796875 8.0625 
Q 21.484375 6.890625 26.703125 6.890625 
Q 35.15625 6.890625 40.078125 11.328125 
Q 45.015625 15.765625 45.015625 23.390625 
Q 45.015625 31 40.078125 35.4375 
Q 35.15625 39.890625 26.703125 39.890625 
Q 22.75 39.890625 18.8125 39.015625 
Q 14.890625 38.140625 10.796875 36.28125 
z
" id="DejaVuSans-53"/>
      </defs>
      <g transform="translate(79.092534 542.877813)scale(0.14 -0.14)">
       <use xlink:href="#DejaVuSans-55"/>
       <use x="63.623047" xlink:href="#DejaVuSans-46"/>
       <use x="95.410156" xlink:href="#DejaVuSans-55"/>
       <use x="159.033203" xlink:href="#DejaVuSans-53"/>
      </g>
     </g>
    </g>
    <g id="xtick_2">
     <g id="line2d_4">
      <g>
       <use style="stroke:#000000;stroke-width:0.8;" x="163.704048" xlink:href="#mba79980c43" y="525.24"/>
      </g>
     </g>
     <g id="text_4">
      <!-- 8.00 -->
      <defs>
       <path d="M 31.78125 34.625 
Q 24.75 34.625 20.71875 30.859375 
Q 16.703125 27.09375 16.703125 20.515625 
Q 16.703125 13.921875 20.71875 10.15625 
Q 24.75 6.390625 31.78125 6.390625 
Q 38.8125 6.390625 42.859375 10.171875 
Q 46.921875 13.96875 46.921875 20.515625 
Q 46.921875 27.09375 42.890625 30.859375 
Q 38.875 34.625 31.78125 34.625 
z
M 21.921875 38.8125 
Q 15.578125 40.375 12.03125 44.71875 
Q 8.5 49.078125 8.5 55.328125 
Q 8.5 64.0625 14.71875 69.140625 
Q 20.953125 74.21875 31.78125 74.21875 
Q 42.671875 74.21875 48.875 69.140625 
Q 55.078125 64.0625 55.078125 55.328125 
Q 55.078125 49.078125 51.53125 44.71875 
Q 48 40.375 41.703125 38.8125 
Q 48.828125 37.15625 52.796875 32.3125 
Q 56.78125 27.484375 56.78125 20.515625 
Q 56.78125 9.90625 50.3125 4.234375 
Q 43.84375 -1.421875 31.78125 -1.421875 
Q 19.734375 -1.421875 13.25 4.234375 
Q 6.78125 9.90625 6.78125 20.515625 
Q 6.78125 27.484375 10.78125 32.3125 
Q 14.796875 37.15625 21.921875 38.8125 
z
M 18.3125 54.390625 
Q 18.3125 48.734375 21.84375 45.5625 
Q 25.390625 42.390625 31.78125 42.390625 
Q 38.140625 42.390625 41.71875 45.5625 
Q 45.3125 48.734375 45.3125 54.390625 
Q 45.3125 60.0625 41.71875 63.234375 
Q 38.140625 66.40625 31.78125 66.40625 
Q 25.390625 66.40625 21.84375 63.234375 
Q 18.3125 60.0625 18.3125 54.390625 
z
" id="DejaVuSans-56"/>
       <path d="M 31.78125 66.40625 
Q 24.171875 66.40625 20.328125 58.90625 
Q 16.5 51.421875 16.5 36.375 
Q 16.5 21.390625 20.328125 13.890625 
Q 24.171875 6.390625 31.78125 6.390625 
Q 39.453125 6.390625 43.28125 13.890625 
Q 47.125 21.390625 47.125 36.375 
Q 47.125 51.421875 43.28125 58.90625 
Q 39.453125 66.40625 31.78125 66.40625 
z
M 31.78125 74.21875 
Q 44.046875 74.21875 50.515625 64.515625 
Q 56.984375 54.828125 56.984375 36.375 
Q 56.984375 17.96875 50.515625 8.265625 
Q 44.046875 -1.421875 31.78125 -1.421875 
Q 19.53125 -1.421875 13.0625 8.265625 
Q 6.59375 17.96875 6.59375 36.375 
Q 6.59375 54.828125 13.0625 64.515625 
Q 19.53125 74.21875 31.78125 74.21875 
z
" id="DejaVuSans-48"/>
      </defs>
      <g transform="translate(148.11811 542.877813)scale(0.14 -0.14)">
       <use xlink:href="#DejaVuSans-56"/>
       <use x="63.623047" xlink:href="#DejaVuSans-46"/>
       <use x="95.410156" xlink:href="#DejaVuSans-48"/>
       <use x="159.033203" xlink:href="#DejaVuSans-48"/>
      </g>
     </g>
    </g>
    <g id="xtick_3">
     <g id="line2d_5">
      <g>
       <use style="stroke:#000000;stroke-width:0.8;" x="232.729624" xlink:href="#mba79980c43" y="525.24"/>
      </g>
     </g>
     <g id="text_5">
      <!-- 8.25 -->
      <defs>
       <path d="M 19.1875 8.296875 
L 53.609375 8.296875 
L 53.609375 0 
L 7.328125 0 
L 7.328125 8.296875 
Q 12.9375 14.109375 22.625 23.890625 
Q 32.328125 33.6875 34.8125 36.53125 
Q 39.546875 41.84375 41.421875 45.53125 
Q 43.3125 49.21875 43.3125 52.78125 
Q 43.3125 58.59375 39.234375 62.25 
Q 35.15625 65.921875 28.609375 65.921875 
Q 23.96875 65.921875 18.8125 64.3125 
Q 13.671875 62.703125 7.8125 59.421875 
L 7.8125 69.390625 
Q 13.765625 71.78125 18.9375 73 
Q 24.125 74.21875 28.421875 74.21875 
Q 39.75 74.21875 46.484375 68.546875 
Q 53.21875 62.890625 53.21875 53.421875 
Q 53.21875 48.921875 51.53125 44.890625 
Q 49.859375 40.875 45.40625 35.40625 
Q 44.1875 33.984375 37.640625 27.21875 
Q 31.109375 20.453125 19.1875 8.296875 
z
" id="DejaVuSans-50"/>
      </defs>
      <g transform="translate(217.143687 542.877813)scale(0.14 -0.14)">
       <use xlink:href="#DejaVuSans-56"/>
       <use x="63.623047" xlink:href="#DejaVuSans-46"/>
       <use x="95.410156" xlink:href="#DejaVuSans-50"/>
       <use x="159.033203" xlink:href="#DejaVuSans-53"/>
      </g>
     </g>
    </g>
    <g id="xtick_4">
     <g id="line2d_6">
      <g>
       <use style="stroke:#000000;stroke-width:0.8;" x="301.7552" xlink:href="#mba79980c43" y="525.24"/>
      </g>
     </g>
     <g id="text_6">
      <!-- 8.50 -->
      <g transform="translate(286.169263 542.877813)scale(0.14 -0.14)">
       <use xlink:href="#DejaVuSans-56"/>
       <use x="63.623047" xlink:href="#DejaVuSans-46"/>
       <use x="95.410156" xlink:href="#DejaVuSans-53"/>
       <use x="159.033203" xlink:href="#DejaVuSans-48"/>
      </g>
     </g>
    </g>
    <g id="xtick_5">
     <g id="line2d_7">
      <g>
       <use style="stroke:#000000;stroke-width:0.8;" x="370.780777" xlink:href="#mba79980c43" y="525.24"/>
      </g>
     </g>
     <g id="text_7">
      <!-- 8.75 -->
      <g transform="translate(355.194839 542.877813)scale(0.14 -0.14)">
       <use xlink:href="#DejaVuSans-56"/>
       <use x="63.623047" xlink:href="#DejaVuSans-46"/>
       <use x="95.410156" xlink:href="#DejaVuSans-55"/>
       <use x="159.033203" xlink:href="#DejaVuSans-53"/>
      </g>
     </g>
    </g>
    <g id="xtick_6">
     <g id="line2d_8">
      <g>
       <use style="stroke:#000000;stroke-width:0.8;" x="439.806353" xlink:href="#mba79980c43" y="525.24"/>
      </g>
     </g>
     <g id="text_8">
      <!-- 9.00 -->
      <defs>
       <path d="M 10.984375 1.515625 
L 10.984375 10.5 
Q 14.703125 8.734375 18.5 7.8125 
Q 22.3125 6.890625 25.984375 6.890625 
Q 35.75 6.890625 40.890625 13.453125 
Q 46.046875 20.015625 46.78125 33.40625 
Q 43.953125 29.203125 39.59375 26.953125 
Q 35.25 24.703125 29.984375 24.703125 
Q 19.046875 24.703125 12.671875 31.3125 
Q 6.296875 37.9375 6.296875 49.421875 
Q 6.296875 60.640625 12.9375 67.421875 
Q 19.578125 74.21875 30.609375 74.21875 
Q 43.265625 74.21875 49.921875 64.515625 
Q 56.59375 54.828125 56.59375 36.375 
Q 56.59375 19.140625 48.40625 8.859375 
Q 40.234375 -1.421875 26.421875 -1.421875 
Q 22.703125 -1.421875 18.890625 -0.6875 
Q 15.09375 0.046875 10.984375 1.515625 
z
M 30.609375 32.421875 
Q 37.25 32.421875 41.125 36.953125 
Q 45.015625 41.5 45.015625 49.421875 
Q 45.015625 57.28125 41.125 61.84375 
Q 37.25 66.40625 30.609375 66.40625 
Q 23.96875 66.40625 20.09375 61.84375 
Q 16.21875 57.28125 16.21875 49.421875 
Q 16.21875 41.5 20.09375 36.953125 
Q 23.96875 32.421875 30.609375 32.421875 
z
" id="DejaVuSans-57"/>
      </defs>
      <g transform="translate(424.220415 542.877813)scale(0.14 -0.14)">
       <use xlink:href="#DejaVuSans-57"/>
       <use x="63.623047" xlink:href="#DejaVuSans-46"/>
       <use x="95.410156" xlink:href="#DejaVuSans-48"/>
       <use x="159.033203" xlink:href="#DejaVuSans-48"/>
      </g>
     </g>
    </g>
    <g id="xtick_7">
     <g id="line2d_9">
      <g>
       <use style="stroke:#000000;stroke-width:0.8;" x="508.831929" xlink:href="#mba79980c43" y="525.24"/>
      </g>
     </g>
     <g id="text_9">
      <!-- 9.25 -->
      <g transform="translate(493.245992 542.877813)scale(0.14 -0.14)">
       <use xlink:href="#DejaVuSans-57"/>
       <use x="63.623047" xlink:href="#DejaVuSans-46"/>
       <use x="95.410156" xlink:href="#DejaVuSans-50"/>
       <use x="159.033203" xlink:href="#DejaVuSans-53"/>
      </g>
     </g>
    </g>
   </g>
   <g id="line2d_10">
    <path clip-path="url(#pd12d274c1c)" d="M 303.798358 525.24 
L 303.798358 402.93 
" style="fill:none;stroke:#ff6384;stroke-dasharray:5.55,2.4;stroke-dashoffset:0;stroke-opacity:0.8;stroke-width:1.5;"/>
   </g>
   <g id="line2d_11">
    <path clip-path="url(#pd12d274c1c)" d="M 249.157711 525.24 
L 249.157711 402.93 
" style="fill:none;stroke:#36a2eb;stroke-dasharray:5.55,2.4;stroke-dashoffset:0;stroke-opacity:0.8;stroke-width:1.5;"/>
   </g>
   <g id="patch_10">
    <path d="M 36 525.24 
L 538.2 525.24 
" style="fill:none;stroke:#000000;stroke-linecap:square;stroke-linejoin:miter;stroke-width:0.8;"/>
   </g>
  </g>
 </g>
 <defs>
  <clipPath id="p51b2c13b2d">
   <rect height="366.93" width="502.2" x="36" y="36"/>
  </clipPath>
  <clipPath id="pd12d274c1c">
   <rect height="122.31" width="502.2" x="36" y="402.93"/>
  </clipPath>
 </defs>
</svg>
