<?xml version="1.0" encoding="utf-8" standalone="no"?>
<!DOCTYPE svg PUBLIC "-//W3C//DTD SVG 1.1//EN"
  "http://www.w3.org/Graphics/SVG/1.1/DTD/svg11.dtd">
<!-- Created with matplotlib (https://matplotlib.org/) -->
<svg height="581.789375pt" version="1.1" viewBox="0 0 574.2 581.789375" width="574.2pt" xmlns="http://www.w3.org/2000/svg" xmlns:xlink="http://www.w3.org/1999/xlink">
 <defs>
  <style type="text/css">
*{stroke-linecap:butt;stroke-linejoin:round;}
  </style>
 </defs>
 <g id="figure_1">
  <g id="patch_1">
   <path d="M 0 581.789375 
L 574.2 581.789375 
L 574.2 0 
L 0 0 
z
" style="fill:none;"/>
  </g>
  <g id="axes_1">
   <g id="patch_2">
    <path d="M 36 402.93 
L 538.2 402.93 
L 538.2 36 
L 36 36 
z
" style="fill:none;"/>
   </g>
   <g id="PolyCollection_1">
    <defs>
     <path d="M 58.827273 -195.538011 
L 58.827273 -195.641657 
L 63.438843 -195.68074 
L 68.050413 -195.733281 
L 72.661983 -195.803425 
L 77.273554 -195.896418 
L 81.885124 -196.018842 
L 86.496694 -196.178885 
L 91.108264 -196.386638 
L 95.719835 -196.654426 
L 100.331405 -196.997156 
L 104.942975 -197.432688 
L 109.554545 -197.982206 
L 114.166116 -198.670581 
L 118.777686 -199.526697 
L 123.389256 -200.583729 
L 128.000826 -201.879338 
L 132.612397 -203.455754 
L 137.223967 -205.359712 
L 141.835537 -207.642213 
L 146.447107 -210.35806 
L 151.058678 -213.565168 
L 155.670248 -217.323579 
L 160.281818 -221.69421 
L 164.893388 -226.737283 
L 169.504959 -232.510473 
L 174.116529 -239.066777 
L 178.728099 -246.452152 
L 183.339669 -254.702971 
L 187.95124 -263.843373 
L 192.56281 -273.882618 
L 197.17438 -284.812526 
L 201.78595 -296.605149 
L 206.397521 -309.210801 
L 211.009091 -322.556561 
L 215.620661 -336.545397 
L 220.232231 -351.056008 
L 224.843802 -365.943479 
L 229.455372 -381.040815 
L 234.066942 -396.161377 
L 238.678512 -411.102206 
L 243.290083 -425.648186 
L 247.901653 -439.576933 
L 252.513223 -452.664283 
L 257.124793 -464.690183 
L 261.736364 -475.444783 
L 266.347934 -484.734492 
L 270.959504 -492.387757 
L 275.571074 -498.260329 
L 280.182645 -502.239779 
L 284.794215 -504.249078 
L 289.405785 -504.249078 
L 294.017355 -502.239779 
L 298.628926 -498.260329 
L 303.240496 -492.387757 
L 307.852066 -484.734492 
L 312.463636 -475.444783 
L 317.075207 -464.690183 
L 321.686777 -452.664283 
L 326.298347 -439.576933 
L 330.909917 -425.648186 
L 335.521488 -411.102206 
L 340.133058 -396.161377 
L 344.744628 -381.040815 
L 349.356198 -365.943479 
L 353.967769 -351.056008 
L 358.579339 -336.545397 
L 363.190909 -322.556561 
L 367.802479 -309.210801 
L 372.41405 -296.605149 
L 377.02562 -284.812526 
L 381.63719 -273.882618 
L 386.24876 -263.843373 
L 390.860331 -254.702971 
L 395.471901 -246.452152 
L 400.083471 -239.066777 
L 404.695041 -232.510473 
L 409.306612 -226.737283 
L 413.918182 -221.69421 
L 418.529752 -217.323579 
L 423.141322 -213.565168 
L 427.752893 -210.35806 
L 432.364463 -207.642213 
L 436.976033 -205.359712 
L 441.587603 -203.455754 
L 446.199174 -201.879338 
L 450.810744 -200.583729 
L 455.422314 -199.526697 
L 460.033884 -198.670581 
L 464.645455 -197.982206 
L 469.257025 -197.432688 
L 473.868595 -196.997156 
L 478.480165 -196.654426 
L 483.091736 -196.386638 
L 487.703306 -196.178885 
L 492.314876 -196.018842 
L 496.926446 -195.896418 
L 501.538017 -195.803425 
L 506.149587 -195.733281 
L 510.761157 -195.68074 
L 515.372727 -195.641657 
L 515.372727 -195.538011 
L 515.372727 -195.538011 
L 510.761157 -195.538011 
L 506.149587 -195.538011 
L 501.538017 -195.538011 
L 496.926446 -195.538011 
L 492.314876 -195.538011 
L 487.703306 -195.538011 
L 483.091736 -195.538011 
L 478.480165 -195.538011 
L 473.868595 -195.538011 
L 469.257025 -195.538011 
L 464.645455 -195.538011 
L 460.033884 -195.538011 
L 455.422314 -195.538011 
L 450.810744 -195.538011 
L 446.199174 -195.538011 
L 441.587603 -195.538011 
L 436.976033 -195.538011 
L 432.364463 -195.538011 
L 427.752893 -195.538011 
L 423.141322 -195.538011 
L 418.529752 -195.538011 
L 413.918182 -195.538011 
L 409.306612 -195.538011 
L 404.695041 -195.538011 
L 400.083471 -195.538011 
L 395.471901 -195.538011 
L 390.860331 -195.538011 
L 386.24876 -195.538011 
L 381.63719 -195.538011 
L 377.02562 -195.538011 
L 372.41405 -195.538011 
L 367.802479 -195.538011 
L 363.190909 -195.538011 
L 358.579339 -195.538011 
L 353.967769 -195.538011 
L 349.356198 -195.538011 
L 344.744628 -195.538011 
L 340.133058 -195.538011 
L 335.521488 -195.538011 
L 330.909917 -195.538011 
L 326.298347 -195.538011 
L 321.686777 -195.538011 
L 317.075207 -195.538011 
L 312.463636 -195.538011 
L 307.852066 -195.538011 
L 303.240496 -195.538011 
L 298.628926 -195.538011 
L 294.017355 -195.538011 
L 289.405785 -195.538011 
L 284.794215 -195.538011 
L 280.182645 -195.538011 
L 275.571074 -195.538011 
L 270.959504 -195.538011 
L 266.347934 -195.538011 
L 261.736364 -195.538011 
L 257.124793 -195.538011 
L 252.513223 -195.538011 
L 247.901653 -195.538011 
L 243.290083 -195.538011 
L 238.678512 -195.538011 
L 234.066942 -195.538011 
L 229.455372 -195.538011 
L 224.843802 -195.538011 
L 220.232231 -195.538011 
L 215.620661 -195.538011 
L 211.009091 -195.538011 
L 206.397521 -195.538011 
L 201.78595 -195.538011 
L 197.17438 -195.538011 
L 192.56281 -195.538011 
L 187.95124 -195.538011 
L 183.339669 -195.538011 
L 178.728099 -195.538011 
L 174.116529 -195.538011 
L 169.504959 -195.538011 
L 164.893388 -195.538011 
L 160.281818 -195.538011 
L 155.670248 -195.538011 
L 151.058678 -195.538011 
L 146.447107 -195.538011 
L 141.835537 -195.538011 
L 137.223967 -195.538011 
L 132.612397 -195.538011 
L 128.000826 -195.538011 
L 123.389256 -195.538011 
L 118.777686 -195.538011 
L 114.166116 -195.538011 
L 109.554545 -195.538011 
L 104.942975 -195.538011 
L 100.331405 -195.538011 
L 95.719835 -195.538011 
L 91.108264 -195.538011 
L 86.496694 -195.538011 
L 81.885124 -195.538011 
L 77.273554 -195.538011 
L 72.661983 -195.538011 
L 68.050413 -195.538011 
L 63.438843 -195.538011 
L 58.827273 -195.538011 
z
" id="m3c352d15c2" style="stroke:#ff6384;stroke-opacity:0.5;"/>
    </defs>
    <g clip-path="url(#pcb85bda712)">
     <use style="fill:#ff6384;fill-opacity:0.5;stroke:#ff6384;stroke-opacity:0.5;" x="0" xlink:href="#m3c352d15c2" y="581.789375"/>
    </g>
   </g>
   <g id="PolyCollection_2">
    <defs>
     <path d="M 59.226105 -195.538011 
L 59.226105 -195.650004 
L 63.493969 -195.692234 
L 67.761832 -195.749007 
L 72.029695 -195.8248 
L 76.297558 -195.925281 
L 80.565421 -196.057565 
L 84.833285 -196.230497 
L 89.101148 -196.454982 
L 93.369011 -196.744335 
L 97.636874 -197.114666 
L 101.904738 -197.585273 
L 106.172601 -198.179047 
L 110.440464 -198.922859 
L 114.708327 -199.847921 
L 118.97619 -200.990079 
L 123.244054 -202.390029 
L 127.511917 -204.093399 
L 131.77978 -206.150691 
L 136.047643 -208.617009 
L 140.315506 -211.551575 
L 144.58337 -215.016962 
L 148.851233 -219.078053 
L 153.119096 -223.800667 
L 157.386959 -229.249878 
L 161.654822 -235.488004 
L 165.922686 -242.572312 
L 170.190549 -250.552459 
L 174.458412 -259.467747 
L 178.726275 -269.344261 
L 182.994138 -280.192004 
L 187.262002 -292.002137 
L 191.529865 -304.744465 
L 195.797728 -318.365297 
L 200.065591 -332.785841 
L 204.333454 -347.901251 
L 208.601318 -363.580456 
L 212.869181 -379.666871 
L 217.137044 -395.980052 
L 221.404907 -412.31833 
L 225.67277 -428.4624 
L 229.940634 -444.179822 
L 234.208497 -459.230303 
L 238.47636 -473.371627 
L 242.744223 -486.366018 
L 247.012087 -497.986726 
L 251.27995 -508.02457 
L 255.547813 -516.294181 
L 259.815676 -522.639693 
L 264.083539 -526.939623 
L 268.351403 -529.110739 
L 272.619266 -529.110739 
L 276.887129 -526.939623 
L 281.154992 -522.639693 
L 285.422855 -516.294181 
L 289.690719 -508.02457 
L 293.958582 -497.986726 
L 298.226445 -486.366018 
L 302.494308 -473.371627 
L 306.762171 -459.230303 
L 311.030035 -444.179822 
L 315.297898 -428.4624 
L 319.565761 -412.31833 
L 323.833624 -395.980052 
L 328.101487 -379.666871 
L 332.369351 -363.580456 
L 336.637214 -347.901251 
L 340.905077 -332.785841 
L 345.17294 -318.365297 
L 349.440803 -304.744465 
L 353.708667 -292.002137 
L 357.97653 -280.192004 
L 362.244393 -269.344261 
L 366.512256 -259.467747 
L 370.78012 -250.552459 
L 375.047983 -242.572312 
L 379.315846 -235.488004 
L 383.583709 -229.249878 
L 387.851572 -223.800667 
L 392.119436 -219.078053 
L 396.387299 -215.016962 
L 400.655162 -211.551575 
L 404.923025 -208.617009 
L 409.190888 -206.150691 
L 413.458752 -204.093399 
L 417.726615 -202.390029 
L 421.994478 -200.990079 
L 426.262341 -199.847921 
L 430.530204 -198.922859 
L 434.798068 -198.179047 
L 439.065931 -197.585273 
L 443.333794 -197.114666 
L 447.601657 -196.744335 
L 451.86952 -196.454982 
L 456.137384 -196.230497 
L 460.405247 -196.057565 
L 464.67311 -195.925281 
L 468.940973 -195.8248 
L 473.208836 -195.749007 
L 477.4767 -195.692234 
L 481.744563 -195.650004 
L 481.744563 -195.538011 
L 481.744563 -195.538011 
L 477.4767 -195.538011 
L 473.208836 -195.538011 
L 468.940973 -195.538011 
L 464.67311 -195.538011 
L 460.405247 -195.538011 
L 456.137384 -195.538011 
L 451.86952 -195.538011 
L 447.601657 -195.538011 
L 443.333794 -195.538011 
L 439.065931 -195.538011 
L 434.798068 -195.538011 
L 430.530204 -195.538011 
L 426.262341 -195.538011 
L 421.994478 -195.538011 
L 417.726615 -195.538011 
L 413.458752 -195.538011 
L 409.190888 -195.538011 
L 404.923025 -195.538011 
L 400.655162 -195.538011 
L 396.387299 -195.538011 
L 392.119436 -195.538011 
L 387.851572 -195.538011 
L 383.583709 -195.538011 
L 379.315846 -195.538011 
L 375.047983 -195.538011 
L 370.78012 -195.538011 
L 366.512256 -195.538011 
L 362.244393 -195.538011 
L 357.97653 -195.538011 
L 353.708667 -195.538011 
L 349.440803 -195.538011 
L 345.17294 -195.538011 
L 340.905077 -195.538011 
L 336.637214 -195.538011 
L 332.369351 -195.538011 
L 328.101487 -195.538011 
L 323.833624 -195.538011 
L 319.565761 -195.538011 
L 315.297898 -195.538011 
L 311.030035 -195.538011 
L 306.762171 -195.538011 
L 302.494308 -195.538011 
L 298.226445 -195.538011 
L 293.958582 -195.538011 
L 289.690719 -195.538011 
L 285.422855 -195.538011 
L 281.154992 -195.538011 
L 276.887129 -195.538011 
L 272.619266 -195.538011 
L 268.351403 -195.538011 
L 264.083539 -195.538011 
L 259.815676 -195.538011 
L 255.547813 -195.538011 
L 251.27995 -195.538011 
L 247.012087 -195.538011 
L 242.744223 -195.538011 
L 238.47636 -195.538011 
L 234.208497 -195.538011 
L 229.940634 -195.538011 
L 225.67277 -195.538011 
L 221.404907 -195.538011 
L 217.137044 -195.538011 
L 212.869181 -195.538011 
L 208.601318 -195.538011 
L 204.333454 -195.538011 
L 200.065591 -195.538011 
L 195.797728 -195.538011 
L 191.529865 -195.538011 
L 187.262002 -195.538011 
L 182.994138 -195.538011 
L 178.726275 -195.538011 
L 174.458412 -195.538011 
L 170.190549 -195.538011 
L 165.922686 -195.538011 
L 161.654822 -195.538011 
L 157.386959 -195.538011 
L 153.119096 -195.538011 
L 148.851233 -195.538011 
L 144.58337 -195.538011 
L 140.315506 -195.538011 
L 136.047643 -195.538011 
L 131.77978 -195.538011 
L 127.511917 -195.538011 
L 123.244054 -195.538011 
L 118.97619 -195.538011 
L 114.708327 -195.538011 
L 110.440464 -195.538011 
L 106.172601 -195.538011 
L 101.904738 -195.538011 
L 97.636874 -195.538011 
L 93.369011 -195.538011 
L 89.101148 -195.538011 
L 84.833285 -195.538011 
L 80.565421 -195.538011 
L 76.297558 -195.538011 
L 72.029695 -195.538011 
L 67.761832 -195.538011 
L 63.493969 -195.538011 
L 59.226105 -195.538011 
z
" id="m4096927f69" style="stroke:#36a2eb;stroke-opacity:0.5;"/>
    </defs>
    <g clip-path="url(#pcb85bda712)">
     <use style="fill:#36a2eb;fill-opacity:0.5;stroke:#36a2eb;stroke-opacity:0.5;" x="0" xlink:href="#m4096927f69" y="581.789375"/>
    </g>
   </g>
   <g id="line2d_1">
    <path clip-path="url(#pcb85bda712)" d="M 58.827273 386.147718 
L 63.438843 386.108635 
L 68.050413 386.056094 
L 72.661983 385.98595 
L 77.273554 385.892957 
L 81.885124 385.770533 
L 86.496694 385.61049 
L 91.108264 385.402737 
L 95.719835 385.134949 
L 100.331405 384.792219 
L 104.942975 384.356687 
L 109.554545 383.807169 
L 114.166116 383.118794 
L 118.777686 382.262678 
L 123.389256 381.205646 
L 128.000826 379.910037 
L 132.612397 378.333621 
L 137.223967 376.429663 
L 141.835537 374.147162 
L 146.447107 371.431315 
L 151.058678 368.224207 
L 155.670248 364.465796 
L 160.281818 360.095165 
L 164.893388 355.052092 
L 169.504959 349.278902 
L 174.116529 342.722598 
L 178.728099 335.337223 
L 183.339669 327.086404 
L 187.95124 317.946002 
L 192.56281 307.906757 
L 197.17438 296.976849 
L 201.78595 285.184226 
L 206.397521 272.578574 
L 211.009091 259.232814 
L 215.620661 245.243978 
L 220.232231 230.733367 
L 224.843802 215.845896 
L 229.455372 200.74856 
L 234.066942 185.627998 
L 238.678512 170.687169 
L 243.290083 156.141189 
L 247.901653 142.212442 
L 252.513223 129.125092 
L 257.124793 117.099192 
L 261.736364 106.344592 
L 266.347934 97.054883 
L 270.959504 89.401618 
L 275.571074 83.529046 
L 280.182645 79.549596 
L 284.794215 77.540297 
L 289.405785 77.540297 
L 294.017355 79.549596 
L 298.628926 83.529046 
L 303.240496 89.401618 
L 307.852066 97.054883 
L 312.463636 106.344592 
L 317.075207 117.099192 
L 321.686777 129.125092 
L 326.298347 142.212442 
L 330.909917 156.141189 
L 335.521488 170.687169 
L 340.133058 185.627998 
L 344.744628 200.74856 
L 349.356198 215.845896 
L 353.967769 230.733367 
L 358.579339 245.243978 
L 363.190909 259.232814 
L 367.802479 272.578574 
L 372.41405 285.184226 
L 377.02562 296.976849 
L 381.63719 307.906757 
L 386.24876 317.946002 
L 390.860331 327.086404 
L 395.471901 335.337223 
L 400.083471 342.722598 
L 404.695041 349.278902 
L 409.306612 355.052092 
L 413.918182 360.095165 
L 418.529752 364.465796 
L 423.141322 368.224207 
L 427.752893 371.431315 
L 432.364463 374.147162 
L 436.976033 376.429663 
L 441.587603 378.333621 
L 446.199174 379.910037 
L 450.810744 381.205646 
L 455.422314 382.262678 
L 460.033884 383.118794 
L 464.645455 383.807169 
L 469.257025 384.356687 
L 473.868595 384.792219 
L 478.480165 385.134949 
L 483.091736 385.402737 
L 487.703306 385.61049 
L 492.314876 385.770533 
L 496.926446 385.892957 
L 501.538017 385.98595 
L 506.149587 386.056094 
L 510.761157 386.108635 
L 515.372727 386.147718 
" style="fill:none;stroke:#ff6384;stroke-linecap:square;"/>
   </g>
   <g id="line2d_2">
    <path clip-path="url(#pcb85bda712)" d="M 59.226105 386.139371 
L 63.493969 386.097141 
L 67.761832 386.040368 
L 72.029695 385.964575 
L 76.297558 385.864094 
L 80.565421 385.73181 
L 84.833285 385.558878 
L 89.101148 385.334393 
L 93.369011 385.04504 
L 97.636874 384.674709 
L 101.904738 384.204102 
L 106.172601 383.610328 
L 110.440464 382.866516 
L 114.708327 381.941454 
L 118.97619 380.799296 
L 123.244054 379.399346 
L 127.511917 377.695976 
L 131.77978 375.638684 
L 136.047643 373.172366 
L 140.315506 370.2378 
L 144.58337 366.772413 
L 148.851233 362.711322 
L 153.119096 357.988708 
L 157.386959 352.539497 
L 161.654822 346.301371 
L 165.922686 339.217063 
L 170.190549 331.236916 
L 174.458412 322.321628 
L 178.726275 312.445114 
L 182.994138 301.597371 
L 187.262002 289.787238 
L 191.529865 277.04491 
L 195.797728 263.424078 
L 200.065591 249.003534 
L 204.333454 233.888124 
L 208.601318 218.208919 
L 212.869181 202.122504 
L 217.137044 185.809323 
L 221.404907 169.471045 
L 225.67277 153.326975 
L 229.940634 137.609553 
L 234.208497 122.559072 
L 238.47636 108.417748 
L 242.744223 95.423357 
L 247.012087 83.802649 
L 251.27995 73.764805 
L 255.547813 65.495194 
L 259.815676 59.149682 
L 264.083539 54.849752 
L 268.351403 52.678636 
L 272.619266 52.678636 
L 276.887129 54.849752 
L 281.154992 59.149682 
L 285.422855 65.495194 
L 289.690719 73.764805 
L 293.958582 83.802649 
L 298.226445 95.423357 
L 302.494308 108.417748 
L 306.762171 122.559072 
L 311.030035 137.609553 
L 315.297898 153.326975 
L 319.565761 169.471045 
L 323.833624 185.809323 
L 328.101487 202.122504 
L 332.369351 218.208919 
L 336.637214 233.888124 
L 340.905077 249.003534 
L 345.17294 263.424078 
L 349.440803 277.04491 
L 353.708667 289.787238 
L 357.97653 301.597371 
L 362.244393 312.445114 
L 366.512256 322.321628 
L 370.78012 331.236916 
L 375.047983 339.217063 
L 379.315846 346.301371 
L 383.583709 352.539497 
L 387.851572 357.988708 
L 392.119436 362.711322 
L 396.387299 366.772413 
L 400.655162 370.2378 
L 404.923025 373.172366 
L 409.190888 375.638684 
L 413.458752 377.695976 
L 417.726615 379.399346 
L 421.994478 380.799296 
L 426.262341 381.941454 
L 430.530204 382.866516 
L 434.798068 383.610328 
L 439.065931 384.204102 
L 443.333794 384.674709 
L 447.601657 385.04504 
L 451.86952 385.334393 
L 456.137384 385.558878 
L 460.405247 385.73181 
L 464.67311 385.864094 
L 468.940973 385.964575 
L 473.208836 386.040368 
L 477.4767 386.097141 
L 481.744563 386.139371 
" style="fill:none;stroke:#36a2eb;stroke-linecap:square;"/>
   </g>
   <g id="patch_3">
    <path d="M 36 402.93 
L 538.2 402.93 
" style="fill:none;stroke:#000000;stroke-linecap:square;stroke-linejoin:miter;stroke-width:0.8;"/>
   </g>
   <g id="legend_1">
    <g id="patch_4">
     <path d="M 450.225313 88.29875 
L 528.4 88.29875 
Q 531.2 88.29875 531.2 85.49875 
L 531.2 45.8 
Q 531.2 43 528.4 43 
L 450.225313 43 
Q 447.425313 43 447.425313 45.8 
L 447.425313 85.49875 
Q 447.425313 88.29875 450.225313 88.29875 
z
" style="fill:#ffffff;opacity:0.8;stroke:#cccccc;stroke-linejoin:miter;"/>
    </g>
    <g id="patch_5">
     <path d="M 453.025313 59.237813 
L 481.025313 59.237813 
L 481.025313 49.437813 
L 453.025313 49.437813 
z
" style="fill:#ff6384;opacity:0.5;stroke:#ff6384;stroke-linejoin:miter;"/>
    </g>
    <g id="text_1">
     <!-- base -->
     <defs>
      <path d="M 48.6875 27.296875 
Q 48.6875 37.203125 44.609375 42.84375 
Q 40.53125 48.484375 33.40625 48.484375 
Q 26.265625 48.484375 22.1875 42.84375 
Q 18.109375 37.203125 18.109375 27.296875 
Q 18.109375 17.390625 22.1875 11.75 
Q 26.265625 6.109375 33.40625 6.109375 
Q 40.53125 6.109375 44.609375 11.75 
Q 48.6875 17.390625 48.6875 27.296875 
z
M 18.109375 46.390625 
Q 20.953125 51.265625 25.265625 53.625 
Q 29.59375 56 35.59375 56 
Q 45.5625 56 51.78125 48.09375 
Q 58.015625 40.1875 58.015625 27.296875 
Q 58.015625 14.40625 51.78125 6.484375 
Q 45.5625 -1.421875 35.59375 -1.421875 
Q 29.59375 -1.421875 25.265625 0.953125 
Q 20.953125 3.328125 18.109375 8.203125 
L 18.109375 0 
L 9.078125 0 
L 9.078125 75.984375 
L 18.109375 75.984375 
z
" id="DejaVuSans-98"/>
      <path d="M 34.28125 27.484375 
Q 23.390625 27.484375 19.1875 25 
Q 14.984375 22.515625 14.984375 16.5 
Q 14.984375 11.71875 18.140625 8.90625 
Q 21.296875 6.109375 26.703125 6.109375 
Q 34.1875 6.109375 38.703125 11.40625 
Q 43.21875 16.703125 43.21875 25.484375 
L 43.21875 27.484375 
z
M 52.203125 31.203125 
L 52.203125 0 
L 43.21875 0 
L 43.21875 8.296875 
Q 40.140625 3.328125 35.546875 0.953125 
Q 30.953125 -1.421875 24.3125 -1.421875 
Q 15.921875 -1.421875 10.953125 3.296875 
Q 6 8.015625 6 15.921875 
Q 6 25.140625 12.171875 29.828125 
Q 18.359375 34.515625 30.609375 34.515625 
L 43.21875 34.515625 
L 43.21875 35.40625 
Q 43.21875 41.609375 39.140625 45 
Q 35.0625 48.390625 27.6875 48.390625 
Q 23 48.390625 18.546875 47.265625 
Q 14.109375 46.140625 10.015625 43.890625 
L 10.015625 52.203125 
Q 14.9375 54.109375 19.578125 55.046875 
Q 24.21875 56 28.609375 56 
Q 40.484375 56 46.34375 49.84375 
Q 52.203125 43.703125 52.203125 31.203125 
z
" id="DejaVuSans-97"/>
      <path d="M 44.28125 53.078125 
L 44.28125 44.578125 
Q 40.484375 46.53125 36.375 47.5 
Q 32.28125 48.484375 27.875 48.484375 
Q 21.1875 48.484375 17.84375 46.4375 
Q 14.5 44.390625 14.5 40.28125 
Q 14.5 37.15625 16.890625 35.375 
Q 19.28125 33.59375 26.515625 31.984375 
L 29.59375 31.296875 
Q 39.15625 29.25 43.1875 25.515625 
Q 47.21875 21.78125 47.21875 15.09375 
Q 47.21875 7.46875 41.1875 3.015625 
Q 35.15625 -1.421875 24.609375 -1.421875 
Q 20.21875 -1.421875 15.453125 -0.5625 
Q 10.6875 0.296875 5.421875 2 
L 5.421875 11.28125 
Q 10.40625 8.6875 15.234375 7.390625 
Q 20.0625 6.109375 24.8125 6.109375 
Q 31.15625 6.109375 34.5625 8.28125 
Q 37.984375 10.453125 37.984375 14.40625 
Q 37.984375 18.0625 35.515625 20.015625 
Q 33.0625 21.96875 24.703125 23.78125 
L 21.578125 24.515625 
Q 13.234375 26.265625 9.515625 29.90625 
Q 5.8125 33.546875 5.8125 39.890625 
Q 5.8125 47.609375 11.28125 51.796875 
Q 16.75 56 26.8125 56 
Q 31.78125 56 36.171875 55.265625 
Q 40.578125 54.546875 44.28125 53.078125 
z
" id="DejaVuSans-115"/>
      <path d="M 56.203125 29.59375 
L 56.203125 25.203125 
L 14.890625 25.203125 
Q 15.484375 15.921875 20.484375 11.0625 
Q 25.484375 6.203125 34.421875 6.203125 
Q 39.59375 6.203125 44.453125 7.46875 
Q 49.3125 8.734375 54.109375 11.28125 
L 54.109375 2.78125 
Q 49.265625 0.734375 44.1875 -0.34375 
Q 39.109375 -1.421875 33.890625 -1.421875 
Q 20.796875 -1.421875 13.15625 6.1875 
Q 5.515625 13.8125 5.515625 26.8125 
Q 5.515625 40.234375 12.765625 48.109375 
Q 20.015625 56 32.328125 56 
Q 43.359375 56 49.78125 48.890625 
Q 56.203125 41.796875 56.203125 29.59375 
z
M 47.21875 32.234375 
Q 47.125 39.59375 43.09375 43.984375 
Q 39.0625 48.390625 32.421875 48.390625 
Q 24.90625 48.390625 20.390625 44.140625 
Q 15.875 39.890625 15.1875 32.171875 
z
" id="DejaVuSans-101"/>
     </defs>
     <g transform="translate(492.225313 59.237813)scale(0.14 -0.14)">
      <use xlink:href="#DejaVuSans-98"/>
      <use x="63.476562" xlink:href="#DejaVuSans-97"/>
      <use x="124.755859" xlink:href="#DejaVuSans-115"/>
      <use x="176.855469" xlink:href="#DejaVuSans-101"/>
     </g>
    </g>
    <g id="patch_6">
     <path d="M 453.025313 79.787188 
L 481.025313 79.787188 
L 481.025313 69.987188 
L 453.025313 69.987188 
z
" style="fill:#36a2eb;opacity:0.5;stroke:#36a2eb;stroke-linejoin:miter;"/>
    </g>
    <g id="text_2">
     <!-- new -->
     <defs>
      <path d="M 54.890625 33.015625 
L 54.890625 0 
L 45.90625 0 
L 45.90625 32.71875 
Q 45.90625 40.484375 42.875 44.328125 
Q 39.84375 48.1875 33.796875 48.1875 
Q 26.515625 48.1875 22.3125 43.546875 
Q 18.109375 38.921875 18.109375 30.90625 
L 18.109375 0 
L 9.078125 0 
L 9.078125 54.6875 
L 18.109375 54.6875 
L 18.109375 46.1875 
Q 21.34375 51.125 25.703125 53.5625 
Q 30.078125 56 35.796875 56 
Q 45.21875 56 50.046875 50.171875 
Q 54.890625 44.34375 54.890625 33.015625 
z
" id="DejaVuSans-110"/>
      <path d="M 4.203125 54.6875 
L 13.1875 54.6875 
L 24.421875 12.015625 
L 35.59375 54.6875 
L 46.1875 54.6875 
L 57.421875 12.015625 
L 68.609375 54.6875 
L 77.59375 54.6875 
L 63.28125 0 
L 52.6875 0 
L 40.921875 44.828125 
L 29.109375 0 
L 18.5 0 
z
" id="DejaVuSans-119"/>
     </defs>
     <g transform="translate(492.225313 79.787188)scale(0.14 -0.14)">
      <use xlink:href="#DejaVuSans-110"/>
      <use x="63.378906" xlink:href="#DejaVuSans-101"/>
      <use x="124.902344" xlink:href="#DejaVuSans-119"/>
     </g>
    </g>
   </g>
  </g>
  <g id="axes_2">
   <g id="patch_7">
    <path d="M 36 525.24 
L 538.2 525.24 
L 538.2 402.93 
L 36 402.93 
z
" style="fill:none;"/>
   </g>
   <g id="patch_8">
    <path clip-path="url(#p4f8af8d98a)" d="M 175.246364 519.680455 
L 398.953636 519.680455 
L 398.953636 482.616818 
L 175.246364 482.616818 
z
" style="fill:#ff6384;opacity:0.5;"/>
   </g>
   <g id="patch_9">
    <path clip-path="url(#p4f8af8d98a)" d="M 166.968312 445.553182 
L 374.002356 445.553182 
L 374.002356 408.489545 
L 166.968312 408.489545 
z
" style="fill:#36a2eb;opacity:0.5;"/>
   </g>
   <g id="matplotlib.axis_1">
    <g id="xtick_1">
     <g id="line2d_3">
      <defs>
       <path d="M 0 0 
L 0 3.5 
" id="m3da93ad8b3" style="stroke:#000000;stroke-width:0.8;"/>
      </defs>
      <g>
       <use style="stroke:#000000;stroke-width:0.8;" x="95.622785" xlink:href="#m3da93ad8b3" y="525.24"/>
      </g>
     </g>
     <g id="text_3">
      <!-- 9.75 -->
      <defs>
       <path d="M 10.984375 1.515625 
L 10.984375 10.5 
Q 14.703125 8.734375 18.5 7.8125 
Q 22.3125 6.890625 25.984375 6.890625 
Q 35.75 6.890625 40.890625 13.453125 
Q 46.046875 20.015625 46.78125 33.40625 
Q 43.953125 29.203125 39.59375 26.953125 
Q 35.25 24.703125 29.984375 24.703125 
Q 19.046875 24.703125 12.671875 31.3125 
Q 6.296875 37.9375 6.296875 49.421875 
Q 6.296875 60.640625 12.9375 67.421875 
Q 19.578125 74.21875 30.609375 74.21875 
Q 43.265625 74.21875 49.921875 64.515625 
Q 56.59375 54.828125 56.59375 36.375 
Q 56.59375 19.140625 48.40625 8.859375 
Q 40.234375 -1.421875 26.421875 -1.421875 
Q 22.703125 -1.421875 18.890625 -0.6875 
Q 15.09375 0.046875 10.984375 1.515625 
z
M 30.609375 32.421875 
Q 37.25 32.421875 41.125 36.953125 
Q 45.015625 41.5 45.015625 49.421875 
Q 45.015625 57.28125 41.125 61.84375 
Q 37.25 66.40625 30.609375 66.40625 
Q 23.96875 66.40625 20.09375 61.84375 
Q 16.21875 57.28125 16.21875 49.421875 
Q 16.21875 41.5 20.09375 36.953125 
Q 23.96875 32.421875 30.609375 32.421875 
z
" id="DejaVuSans-57"/>
       <path d="M 10.6875 12.40625 
L 21 12.40625 
L 21 0 
L 10.6875 0 
z
" id="DejaVuSans-46"/>
       <path d="M 8.203125 72.90625 
L 55.078125 72.90625 
L 55.078125 68.703125 
L 28.609375 0 
L 18.3125 0 
L 43.21875 64.59375 
L 8.203125 64.59375 
z
" id="DejaVuSans-55"/>
       <path d="M 10.796875 72.90625 
L 49.515625 72.90625 
L 49.515625 64.59375 
L 19.828125 64.59375 
L 19.828125 46.734375 
Q 21.96875 47.46875 24.109375 47.828125 
Q 26.265625 48.1875 28.421875 48.1875 
Q 40.625 48.1875 47.75 41.5 
Q 54.890625 34.8125 54.890625 23.390625 
Q 54.890625 11.625 47.5625 5.09375 
Q 40.234375 -1.421875 26.90625 -1.421875 
Q 22.3125 -1.421875 17.546875 -0.640625 
Q 12.796875 0.140625 7.71875 1.703125 
L 7.71875 11.625 
Q 12.109375 9.234375 16.796875 8.0625 
Q 21.484375 6.890625 26.703125 6.890625 
Q 35.15625 6.890625 40.078125 11.328125 
Q 45.015625 15.765625 45.015625 23.390625 
Q 45.015625 31 40.078125 35.4375 
Q 35.15625 39.890625 26.703125 39.890625 
Q 22.75 39.890625 18.8125 39.015625 
Q 14.890625 38.140625 10.796875 36.28125 
z
" id="DejaVuSans-53"/>
      </defs>
      <g transform="translate(80.036848 542.877813)scale(0.14 -0.14)">
       <use xlink:href="#DejaVuSans-57"/>
       <use x="63.623047" xlink:href="#DejaVuSans-46"/>
       <use x="95.410156" xlink:href="#DejaVuSans-55"/>
       <use x="159.033203" xlink:href="#DejaVuSans-53"/>
      </g>
     </g>
    </g>
    <g id="xtick_2">
     <g id="line2d_4">
      <g>
       <use style="stroke:#000000;stroke-width:0.8;" x="163.715678" xlink:href="#m3da93ad8b3" y="525.24"/>
      </g>
     </g>
     <g id="text_4">
      <!-- 10.00 -->
      <defs>
       <path d="M 12.40625 8.296875 
L 28.515625 8.296875 
L 28.515625 63.921875 
L 10.984375 60.40625 
L 10.984375 69.390625 
L 28.421875 72.90625 
L 38.28125 72.90625 
L 38.28125 8.296875 
L 54.390625 8.296875 
L 54.390625 0 
L 12.40625 0 
z
" id="DejaVuSans-49"/>
       <path d="M 31.78125 66.40625 
Q 24.171875 66.40625 20.328125 58.90625 
Q 16.5 51.421875 16.5 36.375 
Q 16.5 21.390625 20.328125 13.890625 
Q 24.171875 6.390625 31.78125 6.390625 
Q 39.453125 6.390625 43.28125 13.890625 
Q 47.125 21.390625 47.125 36.375 
Q 47.125 51.421875 43.28125 58.90625 
Q 39.453125 66.40625 31.78125 66.40625 
z
M 31.78125 74.21875 
Q 44.046875 74.21875 50.515625 64.515625 
Q 56.984375 54.828125 56.984375 36.375 
Q 56.984375 17.96875 50.515625 8.265625 
Q 44.046875 -1.421875 31.78125 -1.421875 
Q 19.53125 -1.421875 13.0625 8.265625 
Q 6.59375 17.96875 6.59375 36.375 
Q 6.59375 54.828125 13.0625 64.515625 
Q 19.53125 74.21875 31.78125 74.21875 
z
" id="DejaVuSans-48"/>
      </defs>
      <g transform="translate(143.675991 542.877813)scale(0.14 -0.14)">
       <use xlink:href="#DejaVuSans-49"/>
       <use x="63.623047" xlink:href="#DejaVuSans-48"/>
       <use x="127.246094" xlink:href="#DejaVuSans-46"/>
       <use x="159.033203" xlink:href="#DejaVuSans-48"/>
       <use x="222.65625" xlink:href="#DejaVuSans-48"/>
      </g>
     </g>
    </g>
    <g id="xtick_3">
     <g id="line2d_5">
      <g>
       <use style="stroke:#000000;stroke-width:0.8;" x="231.808571" xlink:href="#m3da93ad8b3" y="525.24"/>
      </g>
     </g>
     <g id="text_5">
      <!-- 10.25 -->
      <defs>
       <path d="M 19.1875 8.296875 
L 53.609375 8.296875 
L 53.609375 0 
L 7.328125 0 
L 7.328125 8.296875 
Q 12.9375 14.109375 22.625 23.890625 
Q 32.328125 33.6875 34.8125 36.53125 
Q 39.546875 41.84375 41.421875 45.53125 
Q 43.3125 49.21875 43.3125 52.78125 
Q 43.3125 58.59375 39.234375 62.25 
Q 35.15625 65.921875 28.609375 65.921875 
Q 23.96875 65.921875 18.8125 64.3125 
Q 13.671875 62.703125 7.8125 59.421875 
L 7.8125 69.390625 
Q 13.765625 71.78125 18.9375 73 
Q 24.125 74.21875 28.421875 74.21875 
Q 39.75 74.21875 46.484375 68.546875 
Q 53.21875 62.890625 53.21875 53.421875 
Q 53.21875 48.921875 51.53125 44.890625 
Q 49.859375 40.875 45.40625 35.40625 
Q 44.1875 33.984375 37.640625 27.21875 
Q 31.109375 20.453125 19.1875 8.296875 
z
" id="DejaVuSans-50"/>
      </defs>
      <g transform="translate(211.768884 542.877813)scale(0.14 -0.14)">
       <use xlink:href="#DejaVuSans-49"/>
       <use x="63.623047" xlink:href="#DejaVuSans-48"/>
       <use x="127.246094" xlink:href="#DejaVuSans-46"/>
       <use x="159.033203" xlink:href="#DejaVuSans-50"/>
       <use x="222.65625" xlink:href="#DejaVuSans-53"/>
      </g>
     </g>
    </g>
    <g id="xtick_4">
     <g id="line2d_6">
      <g>
       <use style="stroke:#000000;stroke-width:0.8;" x="299.901464" xlink:href="#m3da93ad8b3" y="525.24"/>
      </g>
     </g>
     <g id="text_6">
      <!-- 10.50 -->
      <g transform="translate(279.861776 542.877813)scale(0.14 -0.14)">
       <use xlink:href="#DejaVuSans-49"/>
       <use x="63.623047" xlink:href="#DejaVuSans-48"/>
       <use x="127.246094" xlink:href="#DejaVuSans-46"/>
       <use x="159.033203" xlink:href="#DejaVuSans-53"/>
       <use x="222.65625" xlink:href="#DejaVuSans-48"/>
      </g>
     </g>
    </g>
    <g id="xtick_5">
     <g id="line2d_7">
      <g>
       <use style="stroke:#000000;stroke-width:0.8;" x="367.994357" xlink:href="#m3da93ad8b3" y="525.24"/>
      </g>
     </g>
     <g id="text_7">
      <!-- 10.75 -->
      <g transform="translate(347.954669 542.877813)scale(0.14 -0.14)">
       <use xlink:href="#DejaVuSans-49"/>
       <use x="63.623047" xlink:href="#DejaVuSans-48"/>
       <use x="127.246094" xlink:href="#DejaVuSans-46"/>
       <use x="159.033203" xlink:href="#DejaVuSans-55"/>
       <use x="222.65625" xlink:href="#DejaVuSans-53"/>
      </g>
     </g>
    </g>
    <g id="xtick_6">
     <g id="line2d_8">
      <g>
       <use style="stroke:#000000;stroke-width:0.8;" x="436.087249" xlink:href="#m3da93ad8b3" y="525.24"/>
      </g>
     </g>
     <g id="text_8">
      <!-- 11.00 -->
      <g transform="translate(416.047562 542.877813)scale(0.14 -0.14)">
       <use xlink:href="#DejaVuSans-49"/>
       <use x="63.623047" xlink:href="#DejaVuSans-49"/>
       <use x="127.246094" xlink:href="#DejaVuSans-46"/>
       <use x="159.033203" xlink:href="#DejaVuSans-48"/>
       <use x="222.65625" xlink:href="#DejaVuSans-48"/>
      </g>
     </g>
    </g>
    <g id="xtick_7">
     <g id="line2d_9">
      <g>
       <use style="stroke:#000000;stroke-width:0.8;" x="504.180142" xlink:href="#m3da93ad8b3" y="525.24"/>
      </g>
     </g>
     <g id="text_9">
      <!-- 11.25 -->
      <g transform="translate(484.140455 542.877813)scale(0.14 -0.14)">
       <use xlink:href="#DejaVuSans-49"/>
       <use x="63.623047" xlink:href="#DejaVuSans-49"/>
       <use x="127.246094" xlink:href="#DejaVuSans-46"/>
       <use x="159.033203" xlink:href="#DejaVuSans-50"/>
       <use x="222.65625" xlink:href="#DejaVuSans-53"/>
      </g>
     </g>
    </g>
   </g>
   <g id="line2d_10">
    <path clip-path="url(#p4f8af8d98a)" d="M 287.1 525.24 
L 287.1 402.93 
" style="fill:none;stroke:#ff6384;stroke-dasharray:5.55,2.4;stroke-dashoffset:0;stroke-opacity:0.8;stroke-width:1.5;"/>
   </g>
   <g id="line2d_11">
    <path clip-path="url(#p4f8af8d98a)" d="M 270.485334 525.24 
L 270.485334 402.93 
" style="fill:none;stroke:#36a2eb;stroke-dasharray:5.55,2.4;stroke-dashoffset:0;stroke-opacity:0.8;stroke-width:1.5;"/>
   </g>
   <g id="patch_10">
    <path d="M 36 525.24 
L 538.2 525.24 
" style="fill:none;stroke:#000000;stroke-linecap:square;stroke-linejoin:miter;stroke-width:0.8;"/>
   </g>
  </g>
 </g>
 <defs>
  <clipPath id="pcb85bda712">
   <rect height="366.93" width="502.2" x="36" y="36"/>
  </clipPath>
  <clipPath id="p4f8af8d98a">
   <rect height="122.31" width="502.2" x="36" y="402.93"/>
  </clipPath>
 </defs>
</svg>
