<?xml version="1.0" encoding="utf-8" standalone="no"?>
<!DOCTYPE svg PUBLIC "-//W3C//DTD SVG 1.1//EN"
  "http://www.w3.org/Graphics/SVG/1.1/DTD/svg11.dtd">
<!-- Created with matplotlib (https://matplotlib.org/) -->
<svg height="581.789375pt" version="1.1" viewBox="0 0 574.2 581.789375" width="574.2pt" xmlns="http://www.w3.org/2000/svg" xmlns:xlink="http://www.w3.org/1999/xlink">
 <defs>
  <style type="text/css">
*{stroke-linecap:butt;stroke-linejoin:round;}
  </style>
 </defs>
 <g id="figure_1">
  <g id="patch_1">
   <path d="M 0 581.789375 
L 574.2 581.789375 
L 574.2 0 
L 0 0 
z
" style="fill:none;"/>
  </g>
  <g id="axes_1">
   <g id="patch_2">
    <path d="M 36 402.93 
L 538.2 402.93 
L 538.2 36 
L 36 36 
z
" style="fill:none;"/>
   </g>
   <g id="PolyCollection_1">
    <defs>
     <path d="M 84.129347 -195.538011 
L 84.129347 -195.649686 
L 88.48534 -195.691796 
L 92.841334 -195.748407 
L 97.197328 -195.823984 
L 101.553322 -195.92418 
L 105.909315 -196.056088 
L 110.265309 -196.228528 
L 114.621303 -196.452375 
L 118.977297 -196.740906 
L 123.33329 -197.110184 
L 127.689284 -197.579453 
L 132.045278 -198.171538 
L 136.401272 -198.913236 
L 140.757265 -199.835668 
L 145.113259 -200.97458 
L 149.469253 -202.370549 
L 153.825247 -204.069077 
L 158.18124 -206.12052 
L 162.537234 -208.579827 
L 166.893228 -211.506049 
L 171.249222 -214.961585 
L 175.605215 -219.011131 
L 179.961209 -223.720319 
L 184.317203 -229.154038 
L 188.673197 -235.37443 
L 193.02919 -242.438598 
L 197.385184 -250.396058 
L 201.741178 -259.286 
L 206.097172 -269.134436 
L 210.453165 -279.95134 
L 214.809159 -291.727899 
L 219.165153 -304.434001 
L 223.521146 -318.01611 
L 227.87714 -332.395658 
L 232.233134 -347.468096 
L 236.589128 -363.102726 
L 240.945121 -379.143409 
L 245.301115 -395.410214 
L 249.657109 -411.702043 
L 254.013103 -427.800217 
L 258.369096 -443.472956 
L 262.72509 -458.48065 
L 267.081084 -472.581771 
L 271.437078 -485.53922 
L 275.793071 -497.126892 
L 280.149065 -507.136199 
L 284.505059 -515.382301 
L 288.861053 -521.709773 
L 293.217046 -525.997479 
L 297.57304 -528.162422 
L 301.929034 -528.162422 
L 306.285028 -525.997479 
L 310.641021 -521.709773 
L 314.997015 -515.382301 
L 319.353009 -507.136199 
L 323.709003 -497.126892 
L 328.064996 -485.53922 
L 332.42099 -472.581771 
L 336.776984 -458.48065 
L 341.132978 -443.472956 
L 345.488971 -427.800217 
L 349.844965 -411.702043 
L 354.200959 -395.410214 
L 358.556953 -379.143409 
L 362.912946 -363.102726 
L 367.26894 -347.468096 
L 371.624934 -332.395658 
L 375.980927 -318.01611 
L 380.336921 -304.434001 
L 384.692915 -291.727899 
L 389.048909 -279.95134 
L 393.404902 -269.134436 
L 397.760896 -259.286 
L 402.11689 -250.396058 
L 406.472884 -242.438598 
L 410.828877 -235.37443 
L 415.184871 -229.154038 
L 419.540865 -223.720319 
L 423.896859 -219.011131 
L 428.252852 -214.961585 
L 432.608846 -211.506049 
L 436.96484 -208.579827 
L 441.320834 -206.12052 
L 445.676827 -204.069077 
L 450.032821 -202.370549 
L 454.388815 -200.97458 
L 458.744809 -199.835668 
L 463.100802 -198.913236 
L 467.456796 -198.171538 
L 471.81279 -197.579453 
L 476.168784 -197.110184 
L 480.524777 -196.740906 
L 484.880771 -196.452375 
L 489.236765 -196.228528 
L 493.592759 -196.056088 
L 497.948752 -195.92418 
L 502.304746 -195.823984 
L 506.66074 -195.748407 
L 511.016734 -195.691796 
L 515.372727 -195.649686 
L 515.372727 -195.538011 
L 515.372727 -195.538011 
L 511.016734 -195.538011 
L 506.66074 -195.538011 
L 502.304746 -195.538011 
L 497.948752 -195.538011 
L 493.592759 -195.538011 
L 489.236765 -195.538011 
L 484.880771 -195.538011 
L 480.524777 -195.538011 
L 476.168784 -195.538011 
L 471.81279 -195.538011 
L 467.456796 -195.538011 
L 463.100802 -195.538011 
L 458.744809 -195.538011 
L 454.388815 -195.538011 
L 450.032821 -195.538011 
L 445.676827 -195.538011 
L 441.320834 -195.538011 
L 436.96484 -195.538011 
L 432.608846 -195.538011 
L 428.252852 -195.538011 
L 423.896859 -195.538011 
L 419.540865 -195.538011 
L 415.184871 -195.538011 
L 410.828877 -195.538011 
L 406.472884 -195.538011 
L 402.11689 -195.538011 
L 397.760896 -195.538011 
L 393.404902 -195.538011 
L 389.048909 -195.538011 
L 384.692915 -195.538011 
L 380.336921 -195.538011 
L 375.980927 -195.538011 
L 371.624934 -195.538011 
L 367.26894 -195.538011 
L 362.912946 -195.538011 
L 358.556953 -195.538011 
L 354.200959 -195.538011 
L 349.844965 -195.538011 
L 345.488971 -195.538011 
L 341.132978 -195.538011 
L 336.776984 -195.538011 
L 332.42099 -195.538011 
L 328.064996 -195.538011 
L 323.709003 -195.538011 
L 319.353009 -195.538011 
L 314.997015 -195.538011 
L 310.641021 -195.538011 
L 306.285028 -195.538011 
L 301.929034 -195.538011 
L 297.57304 -195.538011 
L 293.217046 -195.538011 
L 288.861053 -195.538011 
L 284.505059 -195.538011 
L 280.149065 -195.538011 
L 275.793071 -195.538011 
L 271.437078 -195.538011 
L 267.081084 -195.538011 
L 262.72509 -195.538011 
L 258.369096 -195.538011 
L 254.013103 -195.538011 
L 249.657109 -195.538011 
L 245.301115 -195.538011 
L 240.945121 -195.538011 
L 236.589128 -195.538011 
L 232.233134 -195.538011 
L 227.87714 -195.538011 
L 223.521146 -195.538011 
L 219.165153 -195.538011 
L 214.809159 -195.538011 
L 210.453165 -195.538011 
L 206.097172 -195.538011 
L 201.741178 -195.538011 
L 197.385184 -195.538011 
L 193.02919 -195.538011 
L 188.673197 -195.538011 
L 184.317203 -195.538011 
L 179.961209 -195.538011 
L 175.605215 -195.538011 
L 171.249222 -195.538011 
L 166.893228 -195.538011 
L 162.537234 -195.538011 
L 158.18124 -195.538011 
L 153.825247 -195.538011 
L 149.469253 -195.538011 
L 145.113259 -195.538011 
L 140.757265 -195.538011 
L 136.401272 -195.538011 
L 132.045278 -195.538011 
L 127.689284 -195.538011 
L 123.33329 -195.538011 
L 118.977297 -195.538011 
L 114.621303 -195.538011 
L 110.265309 -195.538011 
L 105.909315 -195.538011 
L 101.553322 -195.538011 
L 97.197328 -195.538011 
L 92.841334 -195.538011 
L 88.48534 -195.538011 
L 84.129347 -195.538011 
z
" id="ma306aec946" style="stroke:#ff6384;stroke-opacity:0.5;"/>
    </defs>
    <g clip-path="url(#p5572974f9c)">
     <use style="fill:#ff6384;fill-opacity:0.5;stroke:#ff6384;stroke-opacity:0.5;" x="0" xlink:href="#ma306aec946" y="581.789375"/>
    </g>
   </g>
   <g id="PolyCollection_2">
    <defs>
     <path d="M 58.827273 -195.538011 
L 58.827273 -195.650004 
L 63.170883 -195.692234 
L 67.514493 -195.749007 
L 71.858103 -195.8248 
L 76.201713 -195.925281 
L 80.545323 -196.057565 
L 84.888933 -196.230497 
L 89.232543 -196.454982 
L 93.576153 -196.744335 
L 97.919763 -197.114666 
L 102.263373 -197.585273 
L 106.606983 -198.179047 
L 110.950593 -198.922859 
L 115.294203 -199.847921 
L 119.637813 -200.990079 
L 123.981423 -202.390029 
L 128.325034 -204.093399 
L 132.668644 -206.150691 
L 137.012254 -208.617009 
L 141.355864 -211.551575 
L 145.699474 -215.016962 
L 150.043084 -219.078053 
L 154.386694 -223.800667 
L 158.730304 -229.249878 
L 163.073914 -235.488004 
L 167.417524 -242.572312 
L 171.761134 -250.552459 
L 176.104744 -259.467747 
L 180.448354 -269.344261 
L 184.791964 -280.192004 
L 189.135574 -292.002137 
L 193.479184 -304.744465 
L 197.822794 -318.365297 
L 202.166404 -332.785841 
L 206.510014 -347.901251 
L 210.853624 -363.580456 
L 215.197235 -379.666871 
L 219.540845 -395.980052 
L 223.884455 -412.31833 
L 228.228065 -428.4624 
L 232.571675 -444.179822 
L 236.915285 -459.230303 
L 241.258895 -473.371627 
L 245.602505 -486.366018 
L 249.946115 -497.986726 
L 254.289725 -508.02457 
L 258.633335 -516.294181 
L 262.976945 -522.639693 
L 267.320555 -526.939623 
L 271.664165 -529.110739 
L 276.007775 -529.110739 
L 280.351385 -526.939623 
L 284.694995 -522.639693 
L 289.038605 -516.294181 
L 293.382215 -508.02457 
L 297.725825 -497.986726 
L 302.069436 -486.366018 
L 306.413046 -473.371627 
L 310.756656 -459.230303 
L 315.100266 -444.179822 
L 319.443876 -428.4624 
L 323.787486 -412.31833 
L 328.131096 -395.980052 
L 332.474706 -379.666871 
L 336.818316 -363.580456 
L 341.161926 -347.901251 
L 345.505536 -332.785841 
L 349.849146 -318.365297 
L 354.192756 -304.744465 
L 358.536366 -292.002137 
L 362.879976 -280.192004 
L 367.223586 -269.344261 
L 371.567196 -259.467747 
L 375.910806 -250.552459 
L 380.254416 -242.572312 
L 384.598026 -235.488004 
L 388.941637 -229.249878 
L 393.285247 -223.800667 
L 397.628857 -219.078053 
L 401.972467 -215.016962 
L 406.316077 -211.551575 
L 410.659687 -208.617009 
L 415.003297 -206.150691 
L 419.346907 -204.093399 
L 423.690517 -202.390029 
L 428.034127 -200.990079 
L 432.377737 -199.847921 
L 436.721347 -198.922859 
L 441.064957 -198.179047 
L 445.408567 -197.585273 
L 449.752177 -197.114666 
L 454.095787 -196.744335 
L 458.439397 -196.454982 
L 462.783007 -196.230497 
L 467.126617 -196.057565 
L 471.470227 -195.925281 
L 475.813838 -195.8248 
L 480.157448 -195.749007 
L 484.501058 -195.692234 
L 488.844668 -195.650004 
L 488.844668 -195.538011 
L 488.844668 -195.538011 
L 484.501058 -195.538011 
L 480.157448 -195.538011 
L 475.813838 -195.538011 
L 471.470227 -195.538011 
L 467.126617 -195.538011 
L 462.783007 -195.538011 
L 458.439397 -195.538011 
L 454.095787 -195.538011 
L 449.752177 -195.538011 
L 445.408567 -195.538011 
L 441.064957 -195.538011 
L 436.721347 -195.538011 
L 432.377737 -195.538011 
L 428.034127 -195.538011 
L 423.690517 -195.538011 
L 419.346907 -195.538011 
L 415.003297 -195.538011 
L 410.659687 -195.538011 
L 406.316077 -195.538011 
L 401.972467 -195.538011 
L 397.628857 -195.538011 
L 393.285247 -195.538011 
L 388.941637 -195.538011 
L 384.598026 -195.538011 
L 380.254416 -195.538011 
L 375.910806 -195.538011 
L 371.567196 -195.538011 
L 367.223586 -195.538011 
L 362.879976 -195.538011 
L 358.536366 -195.538011 
L 354.192756 -195.538011 
L 349.849146 -195.538011 
L 345.505536 -195.538011 
L 341.161926 -195.538011 
L 336.818316 -195.538011 
L 332.474706 -195.538011 
L 328.131096 -195.538011 
L 323.787486 -195.538011 
L 319.443876 -195.538011 
L 315.100266 -195.538011 
L 310.756656 -195.538011 
L 306.413046 -195.538011 
L 302.069436 -195.538011 
L 297.725825 -195.538011 
L 293.382215 -195.538011 
L 289.038605 -195.538011 
L 284.694995 -195.538011 
L 280.351385 -195.538011 
L 276.007775 -195.538011 
L 271.664165 -195.538011 
L 267.320555 -195.538011 
L 262.976945 -195.538011 
L 258.633335 -195.538011 
L 254.289725 -195.538011 
L 249.946115 -195.538011 
L 245.602505 -195.538011 
L 241.258895 -195.538011 
L 236.915285 -195.538011 
L 232.571675 -195.538011 
L 228.228065 -195.538011 
L 223.884455 -195.538011 
L 219.540845 -195.538011 
L 215.197235 -195.538011 
L 210.853624 -195.538011 
L 206.510014 -195.538011 
L 202.166404 -195.538011 
L 197.822794 -195.538011 
L 193.479184 -195.538011 
L 189.135574 -195.538011 
L 184.791964 -195.538011 
L 180.448354 -195.538011 
L 176.104744 -195.538011 
L 171.761134 -195.538011 
L 167.417524 -195.538011 
L 163.073914 -195.538011 
L 158.730304 -195.538011 
L 154.386694 -195.538011 
L 150.043084 -195.538011 
L 145.699474 -195.538011 
L 141.355864 -195.538011 
L 137.012254 -195.538011 
L 132.668644 -195.538011 
L 128.325034 -195.538011 
L 123.981423 -195.538011 
L 119.637813 -195.538011 
L 115.294203 -195.538011 
L 110.950593 -195.538011 
L 106.606983 -195.538011 
L 102.263373 -195.538011 
L 97.919763 -195.538011 
L 93.576153 -195.538011 
L 89.232543 -195.538011 
L 84.888933 -195.538011 
L 80.545323 -195.538011 
L 76.201713 -195.538011 
L 71.858103 -195.538011 
L 67.514493 -195.538011 
L 63.170883 -195.538011 
L 58.827273 -195.538011 
z
" id="mc450e912e8" style="stroke:#36a2eb;stroke-opacity:0.5;"/>
    </defs>
    <g clip-path="url(#p5572974f9c)">
     <use style="fill:#36a2eb;fill-opacity:0.5;stroke:#36a2eb;stroke-opacity:0.5;" x="0" xlink:href="#mc450e912e8" y="581.789375"/>
    </g>
   </g>
   <g id="line2d_1">
    <path clip-path="url(#p5572974f9c)" d="M 84.129347 386.139689 
L 88.48534 386.097579 
L 92.841334 386.040968 
L 97.197328 385.965391 
L 101.553322 385.865195 
L 105.909315 385.733287 
L 110.265309 385.560847 
L 114.621303 385.337 
L 118.977297 385.048469 
L 123.33329 384.679191 
L 127.689284 384.209922 
L 132.045278 383.617837 
L 136.401272 382.876139 
L 140.757265 381.953707 
L 145.113259 380.814795 
L 149.469253 379.418826 
L 153.825247 377.720298 
L 158.18124 375.668855 
L 162.537234 373.209548 
L 166.893228 370.283326 
L 171.249222 366.82779 
L 175.605215 362.778244 
L 179.961209 358.069056 
L 184.317203 352.635337 
L 188.673197 346.414945 
L 193.02919 339.350777 
L 197.385184 331.393317 
L 201.741178 322.503375 
L 206.097172 312.654939 
L 210.453165 301.838035 
L 214.809159 290.061476 
L 219.165153 277.355374 
L 223.521146 263.773265 
L 227.87714 249.393717 
L 232.233134 234.321279 
L 236.589128 218.686649 
L 240.945121 202.645966 
L 245.301115 186.379161 
L 249.657109 170.087332 
L 254.013103 153.989158 
L 258.369096 138.316419 
L 262.72509 123.308725 
L 267.081084 109.207604 
L 271.437078 96.250155 
L 275.793071 84.662483 
L 280.149065 74.653176 
L 284.505059 66.407074 
L 288.861053 60.079602 
L 293.217046 55.791896 
L 297.57304 53.626953 
L 301.929034 53.626953 
L 306.285028 55.791896 
L 310.641021 60.079602 
L 314.997015 66.407074 
L 319.353009 74.653176 
L 323.709003 84.662483 
L 328.064996 96.250155 
L 332.42099 109.207604 
L 336.776984 123.308725 
L 341.132978 138.316419 
L 345.488971 153.989158 
L 349.844965 170.087332 
L 354.200959 186.379161 
L 358.556953 202.645966 
L 362.912946 218.686649 
L 367.26894 234.321279 
L 371.624934 249.393717 
L 375.980927 263.773265 
L 380.336921 277.355374 
L 384.692915 290.061476 
L 389.048909 301.838035 
L 393.404902 312.654939 
L 397.760896 322.503375 
L 402.11689 331.393317 
L 406.472884 339.350777 
L 410.828877 346.414945 
L 415.184871 352.635337 
L 419.540865 358.069056 
L 423.896859 362.778244 
L 428.252852 366.82779 
L 432.608846 370.283326 
L 436.96484 373.209548 
L 441.320834 375.668855 
L 445.676827 377.720298 
L 450.032821 379.418826 
L 454.388815 380.814795 
L 458.744809 381.953707 
L 463.100802 382.876139 
L 467.456796 383.617837 
L 471.81279 384.209922 
L 476.168784 384.679191 
L 480.524777 385.048469 
L 484.880771 385.337 
L 489.236765 385.560847 
L 493.592759 385.733287 
L 497.948752 385.865195 
L 502.304746 385.965391 
L 506.66074 386.040968 
L 511.016734 386.097579 
L 515.372727 386.139689 
" style="fill:none;stroke:#ff6384;stroke-linecap:square;"/>
   </g>
   <g id="line2d_2">
    <path clip-path="url(#p5572974f9c)" d="M 58.827273 386.139371 
L 63.170883 386.097141 
L 67.514493 386.040368 
L 71.858103 385.964575 
L 76.201713 385.864094 
L 80.545323 385.73181 
L 84.888933 385.558878 
L 89.232543 385.334393 
L 93.576153 385.04504 
L 97.919763 384.674709 
L 102.263373 384.204102 
L 106.606983 383.610328 
L 110.950593 382.866516 
L 115.294203 381.941454 
L 119.637813 380.799296 
L 123.981423 379.399346 
L 128.325034 377.695976 
L 132.668644 375.638684 
L 137.012254 373.172366 
L 141.355864 370.2378 
L 145.699474 366.772413 
L 150.043084 362.711322 
L 154.386694 357.988708 
L 158.730304 352.539497 
L 163.073914 346.301371 
L 167.417524 339.217063 
L 171.761134 331.236916 
L 176.104744 322.321628 
L 180.448354 312.445114 
L 184.791964 301.597371 
L 189.135574 289.787238 
L 193.479184 277.04491 
L 197.822794 263.424078 
L 202.166404 249.003534 
L 206.510014 233.888124 
L 210.853624 218.208919 
L 215.197235 202.122504 
L 219.540845 185.809323 
L 223.884455 169.471045 
L 228.228065 153.326975 
L 232.571675 137.609553 
L 236.915285 122.559072 
L 241.258895 108.417748 
L 245.602505 95.423357 
L 249.946115 83.802649 
L 254.289725 73.764805 
L 258.633335 65.495194 
L 262.976945 59.149682 
L 267.320555 54.849752 
L 271.664165 52.678636 
L 276.007775 52.678636 
L 280.351385 54.849752 
L 284.694995 59.149682 
L 289.038605 65.495194 
L 293.382215 73.764805 
L 297.725825 83.802649 
L 302.069436 95.423357 
L 306.413046 108.417748 
L 310.756656 122.559072 
L 315.100266 137.609553 
L 319.443876 153.326975 
L 323.787486 169.471045 
L 328.131096 185.809323 
L 332.474706 202.122504 
L 336.818316 218.208919 
L 341.161926 233.888124 
L 345.505536 249.003534 
L 349.849146 263.424078 
L 354.192756 277.04491 
L 358.536366 289.787238 
L 362.879976 301.597371 
L 367.223586 312.445114 
L 371.567196 322.321628 
L 375.910806 331.236916 
L 380.254416 339.217063 
L 384.598026 346.301371 
L 388.941637 352.539497 
L 393.285247 357.988708 
L 397.628857 362.711322 
L 401.972467 366.772413 
L 406.316077 370.2378 
L 410.659687 373.172366 
L 415.003297 375.638684 
L 419.346907 377.695976 
L 423.690517 379.399346 
L 428.034127 380.799296 
L 432.377737 381.941454 
L 436.721347 382.866516 
L 441.064957 383.610328 
L 445.408567 384.204102 
L 449.752177 384.674709 
L 454.095787 385.04504 
L 458.439397 385.334393 
L 462.783007 385.558878 
L 467.126617 385.73181 
L 471.470227 385.864094 
L 475.813838 385.964575 
L 480.157448 386.040368 
L 484.501058 386.097141 
L 488.844668 386.139371 
" style="fill:none;stroke:#36a2eb;stroke-linecap:square;"/>
   </g>
   <g id="patch_3">
    <path d="M 36 402.93 
L 538.2 402.93 
" style="fill:none;stroke:#000000;stroke-linecap:square;stroke-linejoin:miter;stroke-width:0.8;"/>
   </g>
   <g id="legend_1">
    <g id="patch_4">
     <path d="M 450.225313 88.29875 
L 528.4 88.29875 
Q 531.2 88.29875 531.2 85.49875 
L 531.2 45.8 
Q 531.2 43 528.4 43 
L 450.225313 43 
Q 447.425313 43 447.425313 45.8 
L 447.425313 85.49875 
Q 447.425313 88.29875 450.225313 88.29875 
z
" style="fill:#ffffff;opacity:0.8;stroke:#cccccc;stroke-linejoin:miter;"/>
    </g>
    <g id="patch_5">
     <path d="M 453.025313 59.237813 
L 481.025313 59.237813 
L 481.025313 49.437813 
L 453.025313 49.437813 
z
" style="fill:#ff6384;opacity:0.5;stroke:#ff6384;stroke-linejoin:miter;"/>
    </g>
    <g id="text_1">
     <!-- base -->
     <defs>
      <path d="M 48.6875 27.296875 
Q 48.6875 37.203125 44.609375 42.84375 
Q 40.53125 48.484375 33.40625 48.484375 
Q 26.265625 48.484375 22.1875 42.84375 
Q 18.109375 37.203125 18.109375 27.296875 
Q 18.109375 17.390625 22.1875 11.75 
Q 26.265625 6.109375 33.40625 6.109375 
Q 40.53125 6.109375 44.609375 11.75 
Q 48.6875 17.390625 48.6875 27.296875 
z
M 18.109375 46.390625 
Q 20.953125 51.265625 25.265625 53.625 
Q 29.59375 56 35.59375 56 
Q 45.5625 56 51.78125 48.09375 
Q 58.015625 40.1875 58.015625 27.296875 
Q 58.015625 14.40625 51.78125 6.484375 
Q 45.5625 -1.421875 35.59375 -1.421875 
Q 29.59375 -1.421875 25.265625 0.953125 
Q 20.953125 3.328125 18.109375 8.203125 
L 18.109375 0 
L 9.078125 0 
L 9.078125 75.984375 
L 18.109375 75.984375 
z
" id="DejaVuSans-98"/>
      <path d="M 34.28125 27.484375 
Q 23.390625 27.484375 19.1875 25 
Q 14.984375 22.515625 14.984375 16.5 
Q 14.984375 11.71875 18.140625 8.90625 
Q 21.296875 6.109375 26.703125 6.109375 
Q 34.1875 6.109375 38.703125 11.40625 
Q 43.21875 16.703125 43.21875 25.484375 
L 43.21875 27.484375 
z
M 52.203125 31.203125 
L 52.203125 0 
L 43.21875 0 
L 43.21875 8.296875 
Q 40.140625 3.328125 35.546875 0.953125 
Q 30.953125 -1.421875 24.3125 -1.421875 
Q 15.921875 -1.421875 10.953125 3.296875 
Q 6 8.015625 6 15.921875 
Q 6 25.140625 12.171875 29.828125 
Q 18.359375 34.515625 30.609375 34.515625 
L 43.21875 34.515625 
L 43.21875 35.40625 
Q 43.21875 41.609375 39.140625 45 
Q 35.0625 48.390625 27.6875 48.390625 
Q 23 48.390625 18.546875 47.265625 
Q 14.109375 46.140625 10.015625 43.890625 
L 10.015625 52.203125 
Q 14.9375 54.109375 19.578125 55.046875 
Q 24.21875 56 28.609375 56 
Q 40.484375 56 46.34375 49.84375 
Q 52.203125 43.703125 52.203125 31.203125 
z
" id="DejaVuSans-97"/>
      <path d="M 44.28125 53.078125 
L 44.28125 44.578125 
Q 40.484375 46.53125 36.375 47.5 
Q 32.28125 48.484375 27.875 48.484375 
Q 21.1875 48.484375 17.84375 46.4375 
Q 14.5 44.390625 14.5 40.28125 
Q 14.5 37.15625 16.890625 35.375 
Q 19.28125 33.59375 26.515625 31.984375 
L 29.59375 31.296875 
Q 39.15625 29.25 43.1875 25.515625 
Q 47.21875 21.78125 47.21875 15.09375 
Q 47.21875 7.46875 41.1875 3.015625 
Q 35.15625 -1.421875 24.609375 -1.421875 
Q 20.21875 -1.421875 15.453125 -0.5625 
Q 10.6875 0.296875 5.421875 2 
L 5.421875 11.28125 
Q 10.40625 8.6875 15.234375 7.390625 
Q 20.0625 6.109375 24.8125 6.109375 
Q 31.15625 6.109375 34.5625 8.28125 
Q 37.984375 10.453125 37.984375 14.40625 
Q 37.984375 18.0625 35.515625 20.015625 
Q 33.0625 21.96875 24.703125 23.78125 
L 21.578125 24.515625 
Q 13.234375 26.265625 9.515625 29.90625 
Q 5.8125 33.546875 5.8125 39.890625 
Q 5.8125 47.609375 11.28125 51.796875 
Q 16.75 56 26.8125 56 
Q 31.78125 56 36.171875 55.265625 
Q 40.578125 54.546875 44.28125 53.078125 
z
" id="DejaVuSans-115"/>
      <path d="M 56.203125 29.59375 
L 56.203125 25.203125 
L 14.890625 25.203125 
Q 15.484375 15.921875 20.484375 11.0625 
Q 25.484375 6.203125 34.421875 6.203125 
Q 39.59375 6.203125 44.453125 7.46875 
Q 49.3125 8.734375 54.109375 11.28125 
L 54.109375 2.78125 
Q 49.265625 0.734375 44.1875 -0.34375 
Q 39.109375 -1.421875 33.890625 -1.421875 
Q 20.796875 -1.421875 13.15625 6.1875 
Q 5.515625 13.8125 5.515625 26.8125 
Q 5.515625 40.234375 12.765625 48.109375 
Q 20.015625 56 32.328125 56 
Q 43.359375 56 49.78125 48.890625 
Q 56.203125 41.796875 56.203125 29.59375 
z
M 47.21875 32.234375 
Q 47.125 39.59375 43.09375 43.984375 
Q 39.0625 48.390625 32.421875 48.390625 
Q 24.90625 48.390625 20.390625 44.140625 
Q 15.875 39.890625 15.1875 32.171875 
z
" id="DejaVuSans-101"/>
     </defs>
     <g transform="translate(492.225313 59.237813)scale(0.14 -0.14)">
      <use xlink:href="#DejaVuSans-98"/>
      <use x="63.476562" xlink:href="#DejaVuSans-97"/>
      <use x="124.755859" xlink:href="#DejaVuSans-115"/>
      <use x="176.855469" xlink:href="#DejaVuSans-101"/>
     </g>
    </g>
    <g id="patch_6">
     <path d="M 453.025313 79.787188 
L 481.025313 79.787188 
L 481.025313 69.987188 
L 453.025313 69.987188 
z
" style="fill:#36a2eb;opacity:0.5;stroke:#36a2eb;stroke-linejoin:miter;"/>
    </g>
    <g id="text_2">
     <!-- new -->
     <defs>
      <path d="M 54.890625 33.015625 
L 54.890625 0 
L 45.90625 0 
L 45.90625 32.71875 
Q 45.90625 40.484375 42.875 44.328125 
Q 39.84375 48.1875 33.796875 48.1875 
Q 26.515625 48.1875 22.3125 43.546875 
Q 18.109375 38.921875 18.109375 30.90625 
L 18.109375 0 
L 9.078125 0 
L 9.078125 54.6875 
L 18.109375 54.6875 
L 18.109375 46.1875 
Q 21.34375 51.125 25.703125 53.5625 
Q 30.078125 56 35.796875 56 
Q 45.21875 56 50.046875 50.171875 
Q 54.890625 44.34375 54.890625 33.015625 
z
" id="DejaVuSans-110"/>
      <path d="M 4.203125 54.6875 
L 13.1875 54.6875 
L 24.421875 12.015625 
L 35.59375 54.6875 
L 46.1875 54.6875 
L 57.421875 12.015625 
L 68.609375 54.6875 
L 77.59375 54.6875 
L 63.28125 0 
L 52.6875 0 
L 40.921875 44.828125 
L 29.109375 0 
L 18.5 0 
z
" id="DejaVuSans-119"/>
     </defs>
     <g transform="translate(492.225313 79.787188)scale(0.14 -0.14)">
      <use xlink:href="#DejaVuSans-110"/>
      <use x="63.378906" xlink:href="#DejaVuSans-101"/>
      <use x="124.902344" xlink:href="#DejaVuSans-119"/>
     </g>
    </g>
   </g>
  </g>
  <g id="axes_2">
   <g id="patch_7">
    <path d="M 36 525.24 
L 538.2 525.24 
L 538.2 402.93 
L 36 402.93 
z
" style="fill:none;"/>
   </g>
   <g id="patch_8">
    <path clip-path="url(#p32f665fc65)" d="M 194.096409 519.680455 
L 405.405665 519.680455 
L 405.405665 482.616818 
L 194.096409 482.616818 
z
" style="fill:#ff6384;opacity:0.5;"/>
   </g>
   <g id="patch_9">
    <path clip-path="url(#p32f665fc65)" d="M 168.481708 445.553182 
L 379.190232 445.553182 
L 379.190232 408.489545 
L 168.481708 408.489545 
z
" style="fill:#36a2eb;opacity:0.5;"/>
   </g>
   <g id="matplotlib.axis_1">
    <g id="xtick_1">
     <g id="line2d_3">
      <defs>
       <path d="M 0 0 
L 0 3.5 
" id="md3e0d6fde8" style="stroke:#000000;stroke-width:0.8;"/>
      </defs>
      <g>
       <use style="stroke:#000000;stroke-width:0.8;" x="110.941265" xlink:href="#md3e0d6fde8" y="525.24"/>
      </g>
     </g>
     <g id="text_3">
      <!-- 7.5 -->
      <defs>
       <path d="M 8.203125 72.90625 
L 55.078125 72.90625 
L 55.078125 68.703125 
L 28.609375 0 
L 18.3125 0 
L 43.21875 64.59375 
L 8.203125 64.59375 
z
" id="DejaVuSans-55"/>
       <path d="M 10.6875 12.40625 
L 21 12.40625 
L 21 0 
L 10.6875 0 
z
" id="DejaVuSans-46"/>
       <path d="M 10.796875 72.90625 
L 49.515625 72.90625 
L 49.515625 64.59375 
L 19.828125 64.59375 
L 19.828125 46.734375 
Q 21.96875 47.46875 24.109375 47.828125 
Q 26.265625 48.1875 28.421875 48.1875 
Q 40.625 48.1875 47.75 41.5 
Q 54.890625 34.8125 54.890625 23.390625 
Q 54.890625 11.625 47.5625 5.09375 
Q 40.234375 -1.421875 26.90625 -1.421875 
Q 22.3125 -1.421875 17.546875 -0.640625 
Q 12.796875 0.140625 7.71875 1.703125 
L 7.71875 11.625 
Q 12.109375 9.234375 16.796875 8.0625 
Q 21.484375 6.890625 26.703125 6.890625 
Q 35.15625 6.890625 40.078125 11.328125 
Q 45.015625 15.765625 45.015625 23.390625 
Q 45.015625 31 40.078125 35.4375 
Q 35.15625 39.890625 26.703125 39.890625 
Q 22.75 39.890625 18.8125 39.015625 
Q 14.890625 38.140625 10.796875 36.28125 
z
" id="DejaVuSans-53"/>
      </defs>
      <g transform="translate(99.809077 542.877813)scale(0.14 -0.14)">
       <use xlink:href="#DejaVuSans-55"/>
       <use x="63.623047" xlink:href="#DejaVuSans-46"/>
       <use x="95.410156" xlink:href="#DejaVuSans-53"/>
      </g>
     </g>
    </g>
    <g id="xtick_2">
     <g id="line2d_4">
      <g>
       <use style="stroke:#000000;stroke-width:0.8;" x="203.495075" xlink:href="#md3e0d6fde8" y="525.24"/>
      </g>
     </g>
     <g id="text_4">
      <!-- 8.0 -->
      <defs>
       <path d="M 31.78125 34.625 
Q 24.75 34.625 20.71875 30.859375 
Q 16.703125 27.09375 16.703125 20.515625 
Q 16.703125 13.921875 20.71875 10.15625 
Q 24.75 6.390625 31.78125 6.390625 
Q 38.8125 6.390625 42.859375 10.171875 
Q 46.921875 13.96875 46.921875 20.515625 
Q 46.921875 27.09375 42.890625 30.859375 
Q 38.875 34.625 31.78125 34.625 
z
M 21.921875 38.8125 
Q 15.578125 40.375 12.03125 44.71875 
Q 8.5 49.078125 8.5 55.328125 
Q 8.5 64.0625 14.71875 69.140625 
Q 20.953125 74.21875 31.78125 74.21875 
Q 42.671875 74.21875 48.875 69.140625 
Q 55.078125 64.0625 55.078125 55.328125 
Q 55.078125 49.078125 51.53125 44.71875 
Q 48 40.375 41.703125 38.8125 
Q 48.828125 37.15625 52.796875 32.3125 
Q 56.78125 27.484375 56.78125 20.515625 
Q 56.78125 9.90625 50.3125 4.234375 
Q 43.84375 -1.421875 31.78125 -1.421875 
Q 19.734375 -1.421875 13.25 4.234375 
Q 6.78125 9.90625 6.78125 20.515625 
Q 6.78125 27.484375 10.78125 32.3125 
Q 14.796875 37.15625 21.921875 38.8125 
z
M 18.3125 54.390625 
Q 18.3125 48.734375 21.84375 45.5625 
Q 25.390625 42.390625 31.78125 42.390625 
Q 38.140625 42.390625 41.71875 45.5625 
Q 45.3125 48.734375 45.3125 54.390625 
Q 45.3125 60.0625 41.71875 63.234375 
Q 38.140625 66.40625 31.78125 66.40625 
Q 25.390625 66.40625 21.84375 63.234375 
Q 18.3125 60.0625 18.3125 54.390625 
z
" id="DejaVuSans-56"/>
       <path d="M 31.78125 66.40625 
Q 24.171875 66.40625 20.328125 58.90625 
Q 16.5 51.421875 16.5 36.375 
Q 16.5 21.390625 20.328125 13.890625 
Q 24.171875 6.390625 31.78125 6.390625 
Q 39.453125 6.390625 43.28125 13.890625 
Q 47.125 21.390625 47.125 36.375 
Q 47.125 51.421875 43.28125 58.90625 
Q 39.453125 66.40625 31.78125 66.40625 
z
M 31.78125 74.21875 
Q 44.046875 74.21875 50.515625 64.515625 
Q 56.984375 54.828125 56.984375 36.375 
Q 56.984375 17.96875 50.515625 8.265625 
Q 44.046875 -1.421875 31.78125 -1.421875 
Q 19.53125 -1.421875 13.0625 8.265625 
Q 6.59375 17.96875 6.59375 36.375 
Q 6.59375 54.828125 13.0625 64.515625 
Q 19.53125 74.21875 31.78125 74.21875 
z
" id="DejaVuSans-48"/>
      </defs>
      <g transform="translate(192.362887 542.877813)scale(0.14 -0.14)">
       <use xlink:href="#DejaVuSans-56"/>
       <use x="63.623047" xlink:href="#DejaVuSans-46"/>
       <use x="95.410156" xlink:href="#DejaVuSans-48"/>
      </g>
     </g>
    </g>
    <g id="xtick_3">
     <g id="line2d_5">
      <g>
       <use style="stroke:#000000;stroke-width:0.8;" x="296.048885" xlink:href="#md3e0d6fde8" y="525.24"/>
      </g>
     </g>
     <g id="text_5">
      <!-- 8.5 -->
      <g transform="translate(284.916697 542.877813)scale(0.14 -0.14)">
       <use xlink:href="#DejaVuSans-56"/>
       <use x="63.623047" xlink:href="#DejaVuSans-46"/>
       <use x="95.410156" xlink:href="#DejaVuSans-53"/>
      </g>
     </g>
    </g>
    <g id="xtick_4">
     <g id="line2d_6">
      <g>
       <use style="stroke:#000000;stroke-width:0.8;" x="388.602695" xlink:href="#md3e0d6fde8" y="525.24"/>
      </g>
     </g>
     <g id="text_6">
      <!-- 9.0 -->
      <defs>
       <path d="M 10.984375 1.515625 
L 10.984375 10.5 
Q 14.703125 8.734375 18.5 7.8125 
Q 22.3125 6.890625 25.984375 6.890625 
Q 35.75 6.890625 40.890625 13.453125 
Q 46.046875 20.015625 46.78125 33.40625 
Q 43.953125 29.203125 39.59375 26.953125 
Q 35.25 24.703125 29.984375 24.703125 
Q 19.046875 24.703125 12.671875 31.3125 
Q 6.296875 37.9375 6.296875 49.421875 
Q 6.296875 60.640625 12.9375 67.421875 
Q 19.578125 74.21875 30.609375 74.21875 
Q 43.265625 74.21875 49.921875 64.515625 
Q 56.59375 54.828125 56.59375 36.375 
Q 56.59375 19.140625 48.40625 8.859375 
Q 40.234375 -1.421875 26.421875 -1.421875 
Q 22.703125 -1.421875 18.890625 -0.6875 
Q 15.09375 0.046875 10.984375 1.515625 
z
M 30.609375 32.421875 
Q 37.25 32.421875 41.125 36.953125 
Q 45.015625 41.5 45.015625 49.421875 
Q 45.015625 57.28125 41.125 61.84375 
Q 37.25 66.40625 30.609375 66.40625 
Q 23.96875 66.40625 20.09375 61.84375 
Q 16.21875 57.28125 16.21875 49.421875 
Q 16.21875 41.5 20.09375 36.953125 
Q 23.96875 32.421875 30.609375 32.421875 
z
" id="DejaVuSans-57"/>
      </defs>
      <g transform="translate(377.470507 542.877813)scale(0.14 -0.14)">
       <use xlink:href="#DejaVuSans-57"/>
       <use x="63.623047" xlink:href="#DejaVuSans-46"/>
       <use x="95.410156" xlink:href="#DejaVuSans-48"/>
      </g>
     </g>
    </g>
    <g id="xtick_5">
     <g id="line2d_7">
      <g>
       <use style="stroke:#000000;stroke-width:0.8;" x="481.156504" xlink:href="#md3e0d6fde8" y="525.24"/>
      </g>
     </g>
     <g id="text_7">
      <!-- 9.5 -->
      <g transform="translate(470.024317 542.877813)scale(0.14 -0.14)">
       <use xlink:href="#DejaVuSans-57"/>
       <use x="63.623047" xlink:href="#DejaVuSans-46"/>
       <use x="95.410156" xlink:href="#DejaVuSans-53"/>
      </g>
     </g>
    </g>
   </g>
   <g id="line2d_8">
    <path clip-path="url(#p32f665fc65)" d="M 299.751037 525.24 
L 299.751037 402.93 
" style="fill:none;stroke:#ff6384;stroke-dasharray:5.55,2.4;stroke-dashoffset:0;stroke-opacity:0.8;stroke-width:1.5;"/>
   </g>
   <g id="line2d_9">
    <path clip-path="url(#p32f665fc65)" d="M 273.83597 525.24 
L 273.83597 402.93 
" style="fill:none;stroke:#36a2eb;stroke-dasharray:5.55,2.4;stroke-dashoffset:0;stroke-opacity:0.8;stroke-width:1.5;"/>
   </g>
   <g id="patch_10">
    <path d="M 36 525.24 
L 538.2 525.24 
" style="fill:none;stroke:#000000;stroke-linecap:square;stroke-linejoin:miter;stroke-width:0.8;"/>
   </g>
  </g>
 </g>
 <defs>
  <clipPath id="p5572974f9c">
   <rect height="366.93" width="502.2" x="36" y="36"/>
  </clipPath>
  <clipPath id="p32f665fc65">
   <rect height="122.31" width="502.2" x="36" y="402.93"/>
  </clipPath>
 </defs>
</svg>
