<?xml version="1.0" encoding="utf-8" standalone="no"?>
<!DOCTYPE svg PUBLIC "-//W3C//DTD SVG 1.1//EN"
  "http://www.w3.org/Graphics/SVG/1.1/DTD/svg11.dtd">
<!-- Created with matplotlib (https://matplotlib.org/) -->
<svg height="581.789375pt" version="1.1" viewBox="0 0 574.2 581.789375" width="574.2pt" xmlns="http://www.w3.org/2000/svg" xmlns:xlink="http://www.w3.org/1999/xlink">
 <defs>
  <style type="text/css">
*{stroke-linecap:butt;stroke-linejoin:round;}
  </style>
 </defs>
 <g id="figure_1">
  <g id="patch_1">
   <path d="M 0 581.789375 
L 574.2 581.789375 
L 574.2 0 
L 0 0 
z
" style="fill:none;"/>
  </g>
  <g id="axes_1">
   <g id="patch_2">
    <path d="M 36 402.93 
L 538.2 402.93 
L 538.2 36 
L 36 36 
z
" style="fill:none;"/>
   </g>
   <g id="PolyCollection_1">
    <defs>
     <path d="M 90.192886 -195.538011 
L 90.192886 -195.649278 
L 94.487632 -195.691235 
L 98.782378 -195.74764 
L 103.077124 -195.822941 
L 107.37187 -195.922772 
L 111.666616 -196.054198 
L 115.961361 -196.226009 
L 120.256107 -196.449039 
L 124.550853 -196.736517 
L 128.845599 -197.104448 
L 133.140345 -197.572005 
L 137.435091 -198.161931 
L 141.729837 -198.900923 
L 146.024583 -199.81999 
L 150.319328 -200.954746 
L 154.614074 -202.345623 
L 158.90882 -204.037955 
L 163.203566 -206.081913 
L 167.498312 -208.532248 
L 171.793058 -211.447796 
L 176.087804 -214.890725 
L 180.38255 -218.925497 
L 184.677295 -223.617506 
L 188.972041 -229.031402 
L 193.266787 -235.229101 
L 197.561533 -242.267498 
L 201.856279 -250.195928 
L 206.151025 -259.053438 
L 210.445771 -268.865946 
L 214.740516 -279.643388 
L 219.035262 -291.376984 
L 223.330008 -304.036732 
L 227.624754 -317.569292 
L 231.9195 -331.896381 
L 236.214246 -346.913833 
L 240.508992 -362.491426 
L 244.803738 -378.47359 
L 249.098483 -394.681051 
L 253.393229 -410.913445 
L 257.687975 -426.95289 
L 261.982721 -442.568452 
L 266.277467 -457.521396 
L 270.572213 -471.571075 
L 274.866959 -484.481253 
L 279.161705 -496.026652 
L 283.45645 -505.999443 
L 287.751196 -514.215462 
L 292.045942 -520.519851 
L 296.340688 -524.791914 
L 300.635434 -526.948959 
L 304.93018 -526.948959 
L 309.224926 -524.791914 
L 313.519671 -520.519851 
L 317.814417 -514.215462 
L 322.109163 -505.999443 
L 326.403909 -496.026652 
L 330.698655 -484.481253 
L 334.993401 -471.571075 
L 339.288147 -457.521396 
L 343.582893 -442.568452 
L 347.877638 -426.95289 
L 352.172384 -410.913445 
L 356.46713 -394.681051 
L 360.761876 -378.47359 
L 365.056622 -362.491426 
L 369.351368 -346.913833 
L 373.646114 -331.896381 
L 377.940859 -317.569292 
L 382.235605 -304.036732 
L 386.530351 -291.376984 
L 390.825097 -279.643388 
L 395.119843 -268.865946 
L 399.414589 -259.053438 
L 403.709335 -250.195928 
L 408.004081 -242.267498 
L 412.298826 -235.229101 
L 416.593572 -229.031402 
L 420.888318 -223.617506 
L 425.183064 -218.925497 
L 429.47781 -214.890725 
L 433.772556 -211.447796 
L 438.067302 -208.532248 
L 442.362048 -206.081913 
L 446.656793 -204.037955 
L 450.951539 -202.345623 
L 455.246285 -200.954746 
L 459.541031 -199.81999 
L 463.835777 -198.900923 
L 468.130523 -198.161931 
L 472.425269 -197.572005 
L 476.720014 -197.104448 
L 481.01476 -196.736517 
L 485.309506 -196.449039 
L 489.604252 -196.226009 
L 493.898998 -196.054198 
L 498.193744 -195.922772 
L 502.48849 -195.822941 
L 506.783236 -195.74764 
L 511.077981 -195.691235 
L 515.372727 -195.649278 
L 515.372727 -195.538011 
L 515.372727 -195.538011 
L 511.077981 -195.538011 
L 506.783236 -195.538011 
L 502.48849 -195.538011 
L 498.193744 -195.538011 
L 493.898998 -195.538011 
L 489.604252 -195.538011 
L 485.309506 -195.538011 
L 481.01476 -195.538011 
L 476.720014 -195.538011 
L 472.425269 -195.538011 
L 468.130523 -195.538011 
L 463.835777 -195.538011 
L 459.541031 -195.538011 
L 455.246285 -195.538011 
L 450.951539 -195.538011 
L 446.656793 -195.538011 
L 442.362048 -195.538011 
L 438.067302 -195.538011 
L 433.772556 -195.538011 
L 429.47781 -195.538011 
L 425.183064 -195.538011 
L 420.888318 -195.538011 
L 416.593572 -195.538011 
L 412.298826 -195.538011 
L 408.004081 -195.538011 
L 403.709335 -195.538011 
L 399.414589 -195.538011 
L 395.119843 -195.538011 
L 390.825097 -195.538011 
L 386.530351 -195.538011 
L 382.235605 -195.538011 
L 377.940859 -195.538011 
L 373.646114 -195.538011 
L 369.351368 -195.538011 
L 365.056622 -195.538011 
L 360.761876 -195.538011 
L 356.46713 -195.538011 
L 352.172384 -195.538011 
L 347.877638 -195.538011 
L 343.582893 -195.538011 
L 339.288147 -195.538011 
L 334.993401 -195.538011 
L 330.698655 -195.538011 
L 326.403909 -195.538011 
L 322.109163 -195.538011 
L 317.814417 -195.538011 
L 313.519671 -195.538011 
L 309.224926 -195.538011 
L 304.93018 -195.538011 
L 300.635434 -195.538011 
L 296.340688 -195.538011 
L 292.045942 -195.538011 
L 287.751196 -195.538011 
L 283.45645 -195.538011 
L 279.161705 -195.538011 
L 274.866959 -195.538011 
L 270.572213 -195.538011 
L 266.277467 -195.538011 
L 261.982721 -195.538011 
L 257.687975 -195.538011 
L 253.393229 -195.538011 
L 249.098483 -195.538011 
L 244.803738 -195.538011 
L 240.508992 -195.538011 
L 236.214246 -195.538011 
L 231.9195 -195.538011 
L 227.624754 -195.538011 
L 223.330008 -195.538011 
L 219.035262 -195.538011 
L 214.740516 -195.538011 
L 210.445771 -195.538011 
L 206.151025 -195.538011 
L 201.856279 -195.538011 
L 197.561533 -195.538011 
L 193.266787 -195.538011 
L 188.972041 -195.538011 
L 184.677295 -195.538011 
L 180.38255 -195.538011 
L 176.087804 -195.538011 
L 171.793058 -195.538011 
L 167.498312 -195.538011 
L 163.203566 -195.538011 
L 158.90882 -195.538011 
L 154.614074 -195.538011 
L 150.319328 -195.538011 
L 146.024583 -195.538011 
L 141.729837 -195.538011 
L 137.435091 -195.538011 
L 133.140345 -195.538011 
L 128.845599 -195.538011 
L 124.550853 -195.538011 
L 120.256107 -195.538011 
L 115.961361 -195.538011 
L 111.666616 -195.538011 
L 107.37187 -195.538011 
L 103.077124 -195.538011 
L 98.782378 -195.538011 
L 94.487632 -195.538011 
L 90.192886 -195.538011 
z
" id="m0df7624268" style="stroke:#ff6384;stroke-opacity:0.5;"/>
    </defs>
    <g clip-path="url(#pa62d8ef13c)">
     <use style="fill:#ff6384;fill-opacity:0.5;stroke:#ff6384;stroke-opacity:0.5;" x="0" xlink:href="#m0df7624268" y="581.789375"/>
    </g>
   </g>
   <g id="PolyCollection_2">
    <defs>
     <path d="M 58.827273 -195.538011 
L 58.827273 -195.650004 
L 63.094186 -195.692234 
L 67.361099 -195.749007 
L 71.628012 -195.8248 
L 75.894925 -195.925281 
L 80.161838 -196.057565 
L 84.428751 -196.230497 
L 88.695664 -196.454982 
L 92.962577 -196.744335 
L 97.22949 -197.114666 
L 101.496402 -197.585273 
L 105.763315 -198.179047 
L 110.030228 -198.922859 
L 114.297141 -199.847921 
L 118.564054 -200.990079 
L 122.830967 -202.390029 
L 127.09788 -204.093399 
L 131.364793 -206.150691 
L 135.631706 -208.617009 
L 139.898619 -211.551575 
L 144.165532 -215.016962 
L 148.432445 -219.078053 
L 152.699358 -223.800667 
L 156.966271 -229.249878 
L 161.233184 -235.488004 
L 165.500097 -242.572312 
L 169.76701 -250.552459 
L 174.033923 -259.467747 
L 178.300836 -269.344261 
L 182.567749 -280.192004 
L 186.834662 -292.002137 
L 191.101575 -304.744465 
L 195.368488 -318.365297 
L 199.635401 -332.785841 
L 203.902314 -347.901251 
L 208.169227 -363.580456 
L 212.43614 -379.666871 
L 216.703053 -395.980052 
L 220.969966 -412.31833 
L 225.236879 -428.4624 
L 229.503792 -444.179822 
L 233.770705 -459.230303 
L 238.037618 -473.371627 
L 242.304531 -486.366018 
L 246.571444 -497.986726 
L 250.838357 -508.02457 
L 255.10527 -516.294181 
L 259.372183 -522.639693 
L 263.639096 -526.939623 
L 267.906009 -529.110739 
L 272.172921 -529.110739 
L 276.439834 -526.939623 
L 280.706747 -522.639693 
L 284.97366 -516.294181 
L 289.240573 -508.02457 
L 293.507486 -497.986726 
L 297.774399 -486.366018 
L 302.041312 -473.371627 
L 306.308225 -459.230303 
L 310.575138 -444.179822 
L 314.842051 -428.4624 
L 319.108964 -412.31833 
L 323.375877 -395.980052 
L 327.64279 -379.666871 
L 331.909703 -363.580456 
L 336.176616 -347.901251 
L 340.443529 -332.785841 
L 344.710442 -318.365297 
L 348.977355 -304.744465 
L 353.244268 -292.002137 
L 357.511181 -280.192004 
L 361.778094 -269.344261 
L 366.045007 -259.467747 
L 370.31192 -250.552459 
L 374.578833 -242.572312 
L 378.845746 -235.488004 
L 383.112659 -229.249878 
L 387.379572 -223.800667 
L 391.646485 -219.078053 
L 395.913398 -215.016962 
L 400.180311 -211.551575 
L 404.447224 -208.617009 
L 408.714137 -206.150691 
L 412.98105 -204.093399 
L 417.247963 -202.390029 
L 421.514876 -200.990079 
L 425.781789 -199.847921 
L 430.048702 -198.922859 
L 434.315615 -198.179047 
L 438.582528 -197.585273 
L 442.84944 -197.114666 
L 447.116353 -196.744335 
L 451.383266 -196.454982 
L 455.650179 -196.230497 
L 459.917092 -196.057565 
L 464.184005 -195.925281 
L 468.450918 -195.8248 
L 472.717831 -195.749007 
L 476.984744 -195.692234 
L 481.251657 -195.650004 
L 481.251657 -195.538011 
L 481.251657 -195.538011 
L 476.984744 -195.538011 
L 472.717831 -195.538011 
L 468.450918 -195.538011 
L 464.184005 -195.538011 
L 459.917092 -195.538011 
L 455.650179 -195.538011 
L 451.383266 -195.538011 
L 447.116353 -195.538011 
L 442.84944 -195.538011 
L 438.582528 -195.538011 
L 434.315615 -195.538011 
L 430.048702 -195.538011 
L 425.781789 -195.538011 
L 421.514876 -195.538011 
L 417.247963 -195.538011 
L 412.98105 -195.538011 
L 408.714137 -195.538011 
L 404.447224 -195.538011 
L 400.180311 -195.538011 
L 395.913398 -195.538011 
L 391.646485 -195.538011 
L 387.379572 -195.538011 
L 383.112659 -195.538011 
L 378.845746 -195.538011 
L 374.578833 -195.538011 
L 370.31192 -195.538011 
L 366.045007 -195.538011 
L 361.778094 -195.538011 
L 357.511181 -195.538011 
L 353.244268 -195.538011 
L 348.977355 -195.538011 
L 344.710442 -195.538011 
L 340.443529 -195.538011 
L 336.176616 -195.538011 
L 331.909703 -195.538011 
L 327.64279 -195.538011 
L 323.375877 -195.538011 
L 319.108964 -195.538011 
L 314.842051 -195.538011 
L 310.575138 -195.538011 
L 306.308225 -195.538011 
L 302.041312 -195.538011 
L 297.774399 -195.538011 
L 293.507486 -195.538011 
L 289.240573 -195.538011 
L 284.97366 -195.538011 
L 280.706747 -195.538011 
L 276.439834 -195.538011 
L 272.172921 -195.538011 
L 267.906009 -195.538011 
L 263.639096 -195.538011 
L 259.372183 -195.538011 
L 255.10527 -195.538011 
L 250.838357 -195.538011 
L 246.571444 -195.538011 
L 242.304531 -195.538011 
L 238.037618 -195.538011 
L 233.770705 -195.538011 
L 229.503792 -195.538011 
L 225.236879 -195.538011 
L 220.969966 -195.538011 
L 216.703053 -195.538011 
L 212.43614 -195.538011 
L 208.169227 -195.538011 
L 203.902314 -195.538011 
L 199.635401 -195.538011 
L 195.368488 -195.538011 
L 191.101575 -195.538011 
L 186.834662 -195.538011 
L 182.567749 -195.538011 
L 178.300836 -195.538011 
L 174.033923 -195.538011 
L 169.76701 -195.538011 
L 165.500097 -195.538011 
L 161.233184 -195.538011 
L 156.966271 -195.538011 
L 152.699358 -195.538011 
L 148.432445 -195.538011 
L 144.165532 -195.538011 
L 139.898619 -195.538011 
L 135.631706 -195.538011 
L 131.364793 -195.538011 
L 127.09788 -195.538011 
L 122.830967 -195.538011 
L 118.564054 -195.538011 
L 114.297141 -195.538011 
L 110.030228 -195.538011 
L 105.763315 -195.538011 
L 101.496402 -195.538011 
L 97.22949 -195.538011 
L 92.962577 -195.538011 
L 88.695664 -195.538011 
L 84.428751 -195.538011 
L 80.161838 -195.538011 
L 75.894925 -195.538011 
L 71.628012 -195.538011 
L 67.361099 -195.538011 
L 63.094186 -195.538011 
L 58.827273 -195.538011 
z
" id="mca057bba84" style="stroke:#36a2eb;stroke-opacity:0.5;"/>
    </defs>
    <g clip-path="url(#pa62d8ef13c)">
     <use style="fill:#36a2eb;fill-opacity:0.5;stroke:#36a2eb;stroke-opacity:0.5;" x="0" xlink:href="#mca057bba84" y="581.789375"/>
    </g>
   </g>
   <g id="line2d_1">
    <path clip-path="url(#pa62d8ef13c)" d="M 90.192886 386.140097 
L 94.487632 386.09814 
L 98.782378 386.041735 
L 103.077124 385.966434 
L 107.37187 385.866603 
L 111.666616 385.735177 
L 115.961361 385.563366 
L 120.256107 385.340336 
L 124.550853 385.052858 
L 128.845599 384.684927 
L 133.140345 384.21737 
L 137.435091 383.627444 
L 141.729837 382.888452 
L 146.024583 381.969385 
L 150.319328 380.834629 
L 154.614074 379.443752 
L 158.90882 377.75142 
L 163.203566 375.707462 
L 167.498312 373.257127 
L 171.793058 370.341579 
L 176.087804 366.89865 
L 180.38255 362.863878 
L 184.677295 358.171869 
L 188.972041 352.757973 
L 193.266787 346.560274 
L 197.561533 339.521877 
L 201.856279 331.593447 
L 206.151025 322.735937 
L 210.445771 312.923429 
L 214.740516 302.145987 
L 219.035262 290.412391 
L 223.330008 277.752643 
L 227.624754 264.220083 
L 231.9195 249.892994 
L 236.214246 234.875542 
L 240.508992 219.297949 
L 244.803738 203.315785 
L 249.098483 187.108324 
L 253.393229 170.87593 
L 257.687975 154.836485 
L 261.982721 139.220923 
L 266.277467 124.267979 
L 270.572213 110.2183 
L 274.866959 97.308122 
L 279.161705 85.762723 
L 283.45645 75.789932 
L 287.751196 67.573913 
L 292.045942 61.269524 
L 296.340688 56.997461 
L 300.635434 54.840416 
L 304.93018 54.840416 
L 309.224926 56.997461 
L 313.519671 61.269524 
L 317.814417 67.573913 
L 322.109163 75.789932 
L 326.403909 85.762723 
L 330.698655 97.308122 
L 334.993401 110.2183 
L 339.288147 124.267979 
L 343.582893 139.220923 
L 347.877638 154.836485 
L 352.172384 170.87593 
L 356.46713 187.108324 
L 360.761876 203.315785 
L 365.056622 219.297949 
L 369.351368 234.875542 
L 373.646114 249.892994 
L 377.940859 264.220083 
L 382.235605 277.752643 
L 386.530351 290.412391 
L 390.825097 302.145987 
L 395.119843 312.923429 
L 399.414589 322.735937 
L 403.709335 331.593447 
L 408.004081 339.521877 
L 412.298826 346.560274 
L 416.593572 352.757973 
L 420.888318 358.171869 
L 425.183064 362.863878 
L 429.47781 366.89865 
L 433.772556 370.341579 
L 438.067302 373.257127 
L 442.362048 375.707462 
L 446.656793 377.75142 
L 450.951539 379.443752 
L 455.246285 380.834629 
L 459.541031 381.969385 
L 463.835777 382.888452 
L 468.130523 383.627444 
L 472.425269 384.21737 
L 476.720014 384.684927 
L 481.01476 385.052858 
L 485.309506 385.340336 
L 489.604252 385.563366 
L 493.898998 385.735177 
L 498.193744 385.866603 
L 502.48849 385.966434 
L 506.783236 386.041735 
L 511.077981 386.09814 
L 515.372727 386.140097 
" style="fill:none;stroke:#ff6384;stroke-linecap:square;"/>
   </g>
   <g id="line2d_2">
    <path clip-path="url(#pa62d8ef13c)" d="M 58.827273 386.139371 
L 63.094186 386.097141 
L 67.361099 386.040368 
L 71.628012 385.964575 
L 75.894925 385.864094 
L 80.161838 385.73181 
L 84.428751 385.558878 
L 88.695664 385.334393 
L 92.962577 385.04504 
L 97.22949 384.674709 
L 101.496402 384.204102 
L 105.763315 383.610328 
L 110.030228 382.866516 
L 114.297141 381.941454 
L 118.564054 380.799296 
L 122.830967 379.399346 
L 127.09788 377.695976 
L 131.364793 375.638684 
L 135.631706 373.172366 
L 139.898619 370.2378 
L 144.165532 366.772413 
L 148.432445 362.711322 
L 152.699358 357.988708 
L 156.966271 352.539497 
L 161.233184 346.301371 
L 165.500097 339.217063 
L 169.76701 331.236916 
L 174.033923 322.321628 
L 178.300836 312.445114 
L 182.567749 301.597371 
L 186.834662 289.787238 
L 191.101575 277.04491 
L 195.368488 263.424078 
L 199.635401 249.003534 
L 203.902314 233.888124 
L 208.169227 218.208919 
L 212.43614 202.122504 
L 216.703053 185.809323 
L 220.969966 169.471045 
L 225.236879 153.326975 
L 229.503792 137.609553 
L 233.770705 122.559072 
L 238.037618 108.417748 
L 242.304531 95.423357 
L 246.571444 83.802649 
L 250.838357 73.764805 
L 255.10527 65.495194 
L 259.372183 59.149682 
L 263.639096 54.849752 
L 267.906009 52.678636 
L 272.172921 52.678636 
L 276.439834 54.849752 
L 280.706747 59.149682 
L 284.97366 65.495194 
L 289.240573 73.764805 
L 293.507486 83.802649 
L 297.774399 95.423357 
L 302.041312 108.417748 
L 306.308225 122.559072 
L 310.575138 137.609553 
L 314.842051 153.326975 
L 319.108964 169.471045 
L 323.375877 185.809323 
L 327.64279 202.122504 
L 331.909703 218.208919 
L 336.176616 233.888124 
L 340.443529 249.003534 
L 344.710442 263.424078 
L 348.977355 277.04491 
L 353.244268 289.787238 
L 357.511181 301.597371 
L 361.778094 312.445114 
L 366.045007 322.321628 
L 370.31192 331.236916 
L 374.578833 339.217063 
L 378.845746 346.301371 
L 383.112659 352.539497 
L 387.379572 357.988708 
L 391.646485 362.711322 
L 395.913398 366.772413 
L 400.180311 370.2378 
L 404.447224 373.172366 
L 408.714137 375.638684 
L 412.98105 377.695976 
L 417.247963 379.399346 
L 421.514876 380.799296 
L 425.781789 381.941454 
L 430.048702 382.866516 
L 434.315615 383.610328 
L 438.582528 384.204102 
L 442.84944 384.674709 
L 447.116353 385.04504 
L 451.383266 385.334393 
L 455.650179 385.558878 
L 459.917092 385.73181 
L 464.184005 385.864094 
L 468.450918 385.964575 
L 472.717831 386.040368 
L 476.984744 386.097141 
L 481.251657 386.139371 
" style="fill:none;stroke:#36a2eb;stroke-linecap:square;"/>
   </g>
   <g id="patch_3">
    <path d="M 36 402.93 
L 538.2 402.93 
" style="fill:none;stroke:#000000;stroke-linecap:square;stroke-linejoin:miter;stroke-width:0.8;"/>
   </g>
   <g id="legend_1">
    <g id="patch_4">
     <path d="M 450.225313 88.29875 
L 528.4 88.29875 
Q 531.2 88.29875 531.2 85.49875 
L 531.2 45.8 
Q 531.2 43 528.4 43 
L 450.225313 43 
Q 447.425313 43 447.425313 45.8 
L 447.425313 85.49875 
Q 447.425313 88.29875 450.225313 88.29875 
z
" style="fill:#ffffff;opacity:0.8;stroke:#cccccc;stroke-linejoin:miter;"/>
    </g>
    <g id="patch_5">
     <path d="M 453.025313 59.237813 
L 481.025313 59.237813 
L 481.025313 49.437813 
L 453.025313 49.437813 
z
" style="fill:#ff6384;opacity:0.5;stroke:#ff6384;stroke-linejoin:miter;"/>
    </g>
    <g id="text_1">
     <!-- base -->
     <defs>
      <path d="M 48.6875 27.296875 
Q 48.6875 37.203125 44.609375 42.84375 
Q 40.53125 48.484375 33.40625 48.484375 
Q 26.265625 48.484375 22.1875 42.84375 
Q 18.109375 37.203125 18.109375 27.296875 
Q 18.109375 17.390625 22.1875 11.75 
Q 26.265625 6.109375 33.40625 6.109375 
Q 40.53125 6.109375 44.609375 11.75 
Q 48.6875 17.390625 48.6875 27.296875 
z
M 18.109375 46.390625 
Q 20.953125 51.265625 25.265625 53.625 
Q 29.59375 56 35.59375 56 
Q 45.5625 56 51.78125 48.09375 
Q 58.015625 40.1875 58.015625 27.296875 
Q 58.015625 14.40625 51.78125 6.484375 
Q 45.5625 -1.421875 35.59375 -1.421875 
Q 29.59375 -1.421875 25.265625 0.953125 
Q 20.953125 3.328125 18.109375 8.203125 
L 18.109375 0 
L 9.078125 0 
L 9.078125 75.984375 
L 18.109375 75.984375 
z
" id="DejaVuSans-98"/>
      <path d="M 34.28125 27.484375 
Q 23.390625 27.484375 19.1875 25 
Q 14.984375 22.515625 14.984375 16.5 
Q 14.984375 11.71875 18.140625 8.90625 
Q 21.296875 6.109375 26.703125 6.109375 
Q 34.1875 6.109375 38.703125 11.40625 
Q 43.21875 16.703125 43.21875 25.484375 
L 43.21875 27.484375 
z
M 52.203125 31.203125 
L 52.203125 0 
L 43.21875 0 
L 43.21875 8.296875 
Q 40.140625 3.328125 35.546875 0.953125 
Q 30.953125 -1.421875 24.3125 -1.421875 
Q 15.921875 -1.421875 10.953125 3.296875 
Q 6 8.015625 6 15.921875 
Q 6 25.140625 12.171875 29.828125 
Q 18.359375 34.515625 30.609375 34.515625 
L 43.21875 34.515625 
L 43.21875 35.40625 
Q 43.21875 41.609375 39.140625 45 
Q 35.0625 48.390625 27.6875 48.390625 
Q 23 48.390625 18.546875 47.265625 
Q 14.109375 46.140625 10.015625 43.890625 
L 10.015625 52.203125 
Q 14.9375 54.109375 19.578125 55.046875 
Q 24.21875 56 28.609375 56 
Q 40.484375 56 46.34375 49.84375 
Q 52.203125 43.703125 52.203125 31.203125 
z
" id="DejaVuSans-97"/>
      <path d="M 44.28125 53.078125 
L 44.28125 44.578125 
Q 40.484375 46.53125 36.375 47.5 
Q 32.28125 48.484375 27.875 48.484375 
Q 21.1875 48.484375 17.84375 46.4375 
Q 14.5 44.390625 14.5 40.28125 
Q 14.5 37.15625 16.890625 35.375 
Q 19.28125 33.59375 26.515625 31.984375 
L 29.59375 31.296875 
Q 39.15625 29.25 43.1875 25.515625 
Q 47.21875 21.78125 47.21875 15.09375 
Q 47.21875 7.46875 41.1875 3.015625 
Q 35.15625 -1.421875 24.609375 -1.421875 
Q 20.21875 -1.421875 15.453125 -0.5625 
Q 10.6875 0.296875 5.421875 2 
L 5.421875 11.28125 
Q 10.40625 8.6875 15.234375 7.390625 
Q 20.0625 6.109375 24.8125 6.109375 
Q 31.15625 6.109375 34.5625 8.28125 
Q 37.984375 10.453125 37.984375 14.40625 
Q 37.984375 18.0625 35.515625 20.015625 
Q 33.0625 21.96875 24.703125 23.78125 
L 21.578125 24.515625 
Q 13.234375 26.265625 9.515625 29.90625 
Q 5.8125 33.546875 5.8125 39.890625 
Q 5.8125 47.609375 11.28125 51.796875 
Q 16.75 56 26.8125 56 
Q 31.78125 56 36.171875 55.265625 
Q 40.578125 54.546875 44.28125 53.078125 
z
" id="DejaVuSans-115"/>
      <path d="M 56.203125 29.59375 
L 56.203125 25.203125 
L 14.890625 25.203125 
Q 15.484375 15.921875 20.484375 11.0625 
Q 25.484375 6.203125 34.421875 6.203125 
Q 39.59375 6.203125 44.453125 7.46875 
Q 49.3125 8.734375 54.109375 11.28125 
L 54.109375 2.78125 
Q 49.265625 0.734375 44.1875 -0.34375 
Q 39.109375 -1.421875 33.890625 -1.421875 
Q 20.796875 -1.421875 13.15625 6.1875 
Q 5.515625 13.8125 5.515625 26.8125 
Q 5.515625 40.234375 12.765625 48.109375 
Q 20.015625 56 32.328125 56 
Q 43.359375 56 49.78125 48.890625 
Q 56.203125 41.796875 56.203125 29.59375 
z
M 47.21875 32.234375 
Q 47.125 39.59375 43.09375 43.984375 
Q 39.0625 48.390625 32.421875 48.390625 
Q 24.90625 48.390625 20.390625 44.140625 
Q 15.875 39.890625 15.1875 32.171875 
z
" id="DejaVuSans-101"/>
     </defs>
     <g transform="translate(492.225313 59.237813)scale(0.14 -0.14)">
      <use xlink:href="#DejaVuSans-98"/>
      <use x="63.476562" xlink:href="#DejaVuSans-97"/>
      <use x="124.755859" xlink:href="#DejaVuSans-115"/>
      <use x="176.855469" xlink:href="#DejaVuSans-101"/>
     </g>
    </g>
    <g id="patch_6">
     <path d="M 453.025313 79.787188 
L 481.025313 79.787188 
L 481.025313 69.987188 
L 453.025313 69.987188 
z
" style="fill:#36a2eb;opacity:0.5;stroke:#36a2eb;stroke-linejoin:miter;"/>
    </g>
    <g id="text_2">
     <!-- new -->
     <defs>
      <path d="M 54.890625 33.015625 
L 54.890625 0 
L 45.90625 0 
L 45.90625 32.71875 
Q 45.90625 40.484375 42.875 44.328125 
Q 39.84375 48.1875 33.796875 48.1875 
Q 26.515625 48.1875 22.3125 43.546875 
Q 18.109375 38.921875 18.109375 30.90625 
L 18.109375 0 
L 9.078125 0 
L 9.078125 54.6875 
L 18.109375 54.6875 
L 18.109375 46.1875 
Q 21.34375 51.125 25.703125 53.5625 
Q 30.078125 56 35.796875 56 
Q 45.21875 56 50.046875 50.171875 
Q 54.890625 44.34375 54.890625 33.015625 
z
" id="DejaVuSans-110"/>
      <path d="M 4.203125 54.6875 
L 13.1875 54.6875 
L 24.421875 12.015625 
L 35.59375 54.6875 
L 46.1875 54.6875 
L 57.421875 12.015625 
L 68.609375 54.6875 
L 77.59375 54.6875 
L 63.28125 0 
L 52.6875 0 
L 40.921875 44.828125 
L 29.109375 0 
L 18.5 0 
z
" id="DejaVuSans-119"/>
     </defs>
     <g transform="translate(492.225313 79.787188)scale(0.14 -0.14)">
      <use xlink:href="#DejaVuSans-110"/>
      <use x="63.378906" xlink:href="#DejaVuSans-101"/>
      <use x="124.902344" xlink:href="#DejaVuSans-119"/>
     </g>
    </g>
   </g>
  </g>
  <g id="axes_2">
   <g id="patch_7">
    <path d="M 36 525.24 
L 538.2 525.24 
L 538.2 402.93 
L 36 402.93 
z
" style="fill:none;"/>
   </g>
   <g id="patch_8">
    <path clip-path="url(#p7027e62a93)" d="M 198.613746 519.680455 
L 406.951868 519.680455 
L 406.951868 482.616818 
L 198.613746 482.616818 
z
" style="fill:#ff6384;opacity:0.5;"/>
   </g>
   <g id="patch_9">
    <path clip-path="url(#p7027e62a93)" d="M 166.545491 445.553182 
L 373.533439 445.553182 
L 373.533439 408.489545 
L 166.545491 408.489545 
z
" style="fill:#36a2eb;opacity:0.5;"/>
   </g>
   <g id="matplotlib.axis_1">
    <g id="xtick_1">
     <g id="line2d_3">
      <defs>
       <path d="M 0 0 
L 0 3.5 
" id="m9ea11ed264" style="stroke:#000000;stroke-width:0.8;"/>
      </defs>
      <g>
       <use style="stroke:#000000;stroke-width:0.8;" x="57.207743" xlink:href="#m9ea11ed264" y="525.24"/>
      </g>
     </g>
     <g id="text_3">
      <!-- 4.0 -->
      <defs>
       <path d="M 37.796875 64.3125 
L 12.890625 25.390625 
L 37.796875 25.390625 
z
M 35.203125 72.90625 
L 47.609375 72.90625 
L 47.609375 25.390625 
L 58.015625 25.390625 
L 58.015625 17.1875 
L 47.609375 17.1875 
L 47.609375 0 
L 37.796875 0 
L 37.796875 17.1875 
L 4.890625 17.1875 
L 4.890625 26.703125 
z
" id="DejaVuSans-52"/>
       <path d="M 10.6875 12.40625 
L 21 12.40625 
L 21 0 
L 10.6875 0 
z
" id="DejaVuSans-46"/>
       <path d="M 31.78125 66.40625 
Q 24.171875 66.40625 20.328125 58.90625 
Q 16.5 51.421875 16.5 36.375 
Q 16.5 21.390625 20.328125 13.890625 
Q 24.171875 6.390625 31.78125 6.390625 
Q 39.453125 6.390625 43.28125 13.890625 
Q 47.125 21.390625 47.125 36.375 
Q 47.125 51.421875 43.28125 58.90625 
Q 39.453125 66.40625 31.78125 66.40625 
z
M 31.78125 74.21875 
Q 44.046875 74.21875 50.515625 64.515625 
Q 56.984375 54.828125 56.984375 36.375 
Q 56.984375 17.96875 50.515625 8.265625 
Q 44.046875 -1.421875 31.78125 -1.421875 
Q 19.53125 -1.421875 13.0625 8.265625 
Q 6.59375 17.96875 6.59375 36.375 
Q 6.59375 54.828125 13.0625 64.515625 
Q 19.53125 74.21875 31.78125 74.21875 
z
" id="DejaVuSans-48"/>
      </defs>
      <g transform="translate(46.075556 542.877813)scale(0.14 -0.14)">
       <use xlink:href="#DejaVuSans-52"/>
       <use x="63.623047" xlink:href="#DejaVuSans-46"/>
       <use x="95.410156" xlink:href="#DejaVuSans-48"/>
      </g>
     </g>
    </g>
    <g id="xtick_2">
     <g id="line2d_4">
      <g>
       <use style="stroke:#000000;stroke-width:0.8;" x="159.530686" xlink:href="#m9ea11ed264" y="525.24"/>
      </g>
     </g>
     <g id="text_4">
      <!-- 4.5 -->
      <defs>
       <path d="M 10.796875 72.90625 
L 49.515625 72.90625 
L 49.515625 64.59375 
L 19.828125 64.59375 
L 19.828125 46.734375 
Q 21.96875 47.46875 24.109375 47.828125 
Q 26.265625 48.1875 28.421875 48.1875 
Q 40.625 48.1875 47.75 41.5 
Q 54.890625 34.8125 54.890625 23.390625 
Q 54.890625 11.625 47.5625 5.09375 
Q 40.234375 -1.421875 26.90625 -1.421875 
Q 22.3125 -1.421875 17.546875 -0.640625 
Q 12.796875 0.140625 7.71875 1.703125 
L 7.71875 11.625 
Q 12.109375 9.234375 16.796875 8.0625 
Q 21.484375 6.890625 26.703125 6.890625 
Q 35.15625 6.890625 40.078125 11.328125 
Q 45.015625 15.765625 45.015625 23.390625 
Q 45.015625 31 40.078125 35.4375 
Q 35.15625 39.890625 26.703125 39.890625 
Q 22.75 39.890625 18.8125 39.015625 
Q 14.890625 38.140625 10.796875 36.28125 
z
" id="DejaVuSans-53"/>
      </defs>
      <g transform="translate(148.398499 542.877813)scale(0.14 -0.14)">
       <use xlink:href="#DejaVuSans-52"/>
       <use x="63.623047" xlink:href="#DejaVuSans-46"/>
       <use x="95.410156" xlink:href="#DejaVuSans-53"/>
      </g>
     </g>
    </g>
    <g id="xtick_3">
     <g id="line2d_5">
      <g>
       <use style="stroke:#000000;stroke-width:0.8;" x="261.85363" xlink:href="#m9ea11ed264" y="525.24"/>
      </g>
     </g>
     <g id="text_5">
      <!-- 5.0 -->
      <g transform="translate(250.721442 542.877813)scale(0.14 -0.14)">
       <use xlink:href="#DejaVuSans-53"/>
       <use x="63.623047" xlink:href="#DejaVuSans-46"/>
       <use x="95.410156" xlink:href="#DejaVuSans-48"/>
      </g>
     </g>
    </g>
    <g id="xtick_4">
     <g id="line2d_6">
      <g>
       <use style="stroke:#000000;stroke-width:0.8;" x="364.176573" xlink:href="#m9ea11ed264" y="525.24"/>
      </g>
     </g>
     <g id="text_6">
      <!-- 5.5 -->
      <g transform="translate(353.044385 542.877813)scale(0.14 -0.14)">
       <use xlink:href="#DejaVuSans-53"/>
       <use x="63.623047" xlink:href="#DejaVuSans-46"/>
       <use x="95.410156" xlink:href="#DejaVuSans-53"/>
      </g>
     </g>
    </g>
    <g id="xtick_5">
     <g id="line2d_7">
      <g>
       <use style="stroke:#000000;stroke-width:0.8;" x="466.499516" xlink:href="#m9ea11ed264" y="525.24"/>
      </g>
     </g>
     <g id="text_7">
      <!-- 6.0 -->
      <defs>
       <path d="M 33.015625 40.375 
Q 26.375 40.375 22.484375 35.828125 
Q 18.609375 31.296875 18.609375 23.390625 
Q 18.609375 15.53125 22.484375 10.953125 
Q 26.375 6.390625 33.015625 6.390625 
Q 39.65625 6.390625 43.53125 10.953125 
Q 47.40625 15.53125 47.40625 23.390625 
Q 47.40625 31.296875 43.53125 35.828125 
Q 39.65625 40.375 33.015625 40.375 
z
M 52.59375 71.296875 
L 52.59375 62.3125 
Q 48.875 64.0625 45.09375 64.984375 
Q 41.3125 65.921875 37.59375 65.921875 
Q 27.828125 65.921875 22.671875 59.328125 
Q 17.53125 52.734375 16.796875 39.40625 
Q 19.671875 43.65625 24.015625 45.921875 
Q 28.375 48.1875 33.59375 48.1875 
Q 44.578125 48.1875 50.953125 41.515625 
Q 57.328125 34.859375 57.328125 23.390625 
Q 57.328125 12.15625 50.6875 5.359375 
Q 44.046875 -1.421875 33.015625 -1.421875 
Q 20.359375 -1.421875 13.671875 8.265625 
Q 6.984375 17.96875 6.984375 36.375 
Q 6.984375 53.65625 15.1875 63.9375 
Q 23.390625 74.21875 37.203125 74.21875 
Q 40.921875 74.21875 44.703125 73.484375 
Q 48.484375 72.75 52.59375 71.296875 
z
" id="DejaVuSans-54"/>
      </defs>
      <g transform="translate(455.367328 542.877813)scale(0.14 -0.14)">
       <use xlink:href="#DejaVuSans-54"/>
       <use x="63.623047" xlink:href="#DejaVuSans-46"/>
       <use x="95.410156" xlink:href="#DejaVuSans-48"/>
      </g>
     </g>
    </g>
   </g>
   <g id="line2d_8">
    <path clip-path="url(#p7027e62a93)" d="M 302.782807 525.24 
L 302.782807 402.93 
" style="fill:none;stroke:#ff6384;stroke-dasharray:5.55,2.4;stroke-dashoffset:0;stroke-opacity:0.8;stroke-width:1.5;"/>
   </g>
   <g id="line2d_9">
    <path clip-path="url(#p7027e62a93)" d="M 270.039465 525.24 
L 270.039465 402.93 
" style="fill:none;stroke:#36a2eb;stroke-dasharray:5.55,2.4;stroke-dashoffset:0;stroke-opacity:0.8;stroke-width:1.5;"/>
   </g>
   <g id="patch_10">
    <path d="M 36 525.24 
L 538.2 525.24 
" style="fill:none;stroke:#000000;stroke-linecap:square;stroke-linejoin:miter;stroke-width:0.8;"/>
   </g>
  </g>
 </g>
 <defs>
  <clipPath id="pa62d8ef13c">
   <rect height="366.93" width="502.2" x="36" y="36"/>
  </clipPath>
  <clipPath id="p7027e62a93">
   <rect height="122.31" width="502.2" x="36" y="402.93"/>
  </clipPath>
 </defs>
</svg>
