<?xml version="1.0" encoding="utf-8" standalone="no"?>
<!DOCTYPE svg PUBLIC "-//W3C//DTD SVG 1.1//EN"
  "http://www.w3.org/Graphics/SVG/1.1/DTD/svg11.dtd">
<!-- Created with matplotlib (https://matplotlib.org/) -->
<svg height="581.789375pt" version="1.1" viewBox="0 0 574.2 581.789375" width="574.2pt" xmlns="http://www.w3.org/2000/svg" xmlns:xlink="http://www.w3.org/1999/xlink">
 <defs>
  <style type="text/css">
*{stroke-linecap:butt;stroke-linejoin:round;}
  </style>
 </defs>
 <g id="figure_1">
  <g id="patch_1">
   <path d="M 0 581.789375 
L 574.2 581.789375 
L 574.2 0 
L 0 0 
z
" style="fill:none;"/>
  </g>
  <g id="axes_1">
   <g id="patch_2">
    <path d="M 36 402.93 
L 538.2 402.93 
L 538.2 36 
L 36 36 
z
" style="fill:none;"/>
   </g>
   <g id="PolyCollection_1">
    <defs>
     <path d="M 100.881471 -195.538011 
L 100.881471 -195.649759 
L 105.068251 -195.691897 
L 109.255032 -195.748546 
L 113.441812 -195.824173 
L 117.628593 -195.924435 
L 121.815373 -196.056429 
L 126.002153 -196.228983 
L 130.188934 -196.452977 
L 134.375714 -196.741697 
L 138.562494 -197.111218 
L 142.749275 -197.580796 
L 146.936055 -198.173272 
L 151.122835 -198.915458 
L 155.309616 -199.838497 
L 159.496396 -200.978158 
L 163.683177 -202.375046 
L 167.869957 -204.074692 
L 172.056737 -206.127485 
L 176.243518 -208.58841 
L 180.430298 -211.516559 
L 184.617078 -214.974369 
L 188.803859 -219.026579 
L 192.990639 -223.738867 
L 197.177419 -229.176162 
L 201.3642 -235.400648 
L 205.55098 -242.469465 
L 209.737761 -250.432163 
L 213.924541 -259.327956 
L 218.111321 -269.182873 
L 222.298102 -280.006896 
L 226.484882 -291.791206 
L 230.671662 -304.50567 
L 234.858443 -318.096719 
L 239.045223 -332.48573 
L 243.232003 -347.568088 
L 247.418784 -363.213008 
L 251.605564 -379.264248 
L 255.792345 -395.541759 
L 259.979125 -411.84431 
L 264.165905 -427.953079 
L 268.352686 -443.636132 
L 272.539466 -458.653704 
L 276.726246 -472.764106 
L 280.913027 -485.730083 
L 285.099807 -497.325381 
L 289.286588 -507.341275 
L 293.473368 -515.592804 
L 297.660148 -521.924441 
L 301.846929 -526.214968 
L 306.033709 -528.381336 
L 310.220489 -528.381336 
L 314.40727 -526.214968 
L 318.59405 -521.924441 
L 322.78083 -515.592804 
L 326.967611 -507.341275 
L 331.154391 -497.325381 
L 335.341172 -485.730083 
L 339.527952 -472.764106 
L 343.714732 -458.653704 
L 347.901513 -443.636132 
L 352.088293 -427.953079 
L 356.275073 -411.84431 
L 360.461854 -395.541759 
L 364.648634 -379.264248 
L 368.835414 -363.213008 
L 373.022195 -347.568088 
L 377.208975 -332.48573 
L 381.395756 -318.096719 
L 385.582536 -304.50567 
L 389.769316 -291.791206 
L 393.956097 -280.006896 
L 398.142877 -269.182873 
L 402.329657 -259.327956 
L 406.516438 -250.432163 
L 410.703218 -242.469465 
L 414.889998 -235.400648 
L 419.076779 -229.176162 
L 423.263559 -223.738867 
L 427.45034 -219.026579 
L 431.63712 -214.974369 
L 435.8239 -211.516559 
L 440.010681 -208.58841 
L 444.197461 -206.127485 
L 448.384241 -204.074692 
L 452.571022 -202.375046 
L 456.757802 -200.978158 
L 460.944583 -199.838497 
L 465.131363 -198.915458 
L 469.318143 -198.173272 
L 473.504924 -197.580796 
L 477.691704 -197.111218 
L 481.878484 -196.741697 
L 486.065265 -196.452977 
L 490.252045 -196.228983 
L 494.438825 -196.056429 
L 498.625606 -195.924435 
L 502.812386 -195.824173 
L 506.999167 -195.748546 
L 511.185947 -195.691897 
L 515.372727 -195.649759 
L 515.372727 -195.538011 
L 515.372727 -195.538011 
L 511.185947 -195.538011 
L 506.999167 -195.538011 
L 502.812386 -195.538011 
L 498.625606 -195.538011 
L 494.438825 -195.538011 
L 490.252045 -195.538011 
L 486.065265 -195.538011 
L 481.878484 -195.538011 
L 477.691704 -195.538011 
L 473.504924 -195.538011 
L 469.318143 -195.538011 
L 465.131363 -195.538011 
L 460.944583 -195.538011 
L 456.757802 -195.538011 
L 452.571022 -195.538011 
L 448.384241 -195.538011 
L 444.197461 -195.538011 
L 440.010681 -195.538011 
L 435.8239 -195.538011 
L 431.63712 -195.538011 
L 427.45034 -195.538011 
L 423.263559 -195.538011 
L 419.076779 -195.538011 
L 414.889998 -195.538011 
L 410.703218 -195.538011 
L 406.516438 -195.538011 
L 402.329657 -195.538011 
L 398.142877 -195.538011 
L 393.956097 -195.538011 
L 389.769316 -195.538011 
L 385.582536 -195.538011 
L 381.395756 -195.538011 
L 377.208975 -195.538011 
L 373.022195 -195.538011 
L 368.835414 -195.538011 
L 364.648634 -195.538011 
L 360.461854 -195.538011 
L 356.275073 -195.538011 
L 352.088293 -195.538011 
L 347.901513 -195.538011 
L 343.714732 -195.538011 
L 339.527952 -195.538011 
L 335.341172 -195.538011 
L 331.154391 -195.538011 
L 326.967611 -195.538011 
L 322.78083 -195.538011 
L 318.59405 -195.538011 
L 314.40727 -195.538011 
L 310.220489 -195.538011 
L 306.033709 -195.538011 
L 301.846929 -195.538011 
L 297.660148 -195.538011 
L 293.473368 -195.538011 
L 289.286588 -195.538011 
L 285.099807 -195.538011 
L 280.913027 -195.538011 
L 276.726246 -195.538011 
L 272.539466 -195.538011 
L 268.352686 -195.538011 
L 264.165905 -195.538011 
L 259.979125 -195.538011 
L 255.792345 -195.538011 
L 251.605564 -195.538011 
L 247.418784 -195.538011 
L 243.232003 -195.538011 
L 239.045223 -195.538011 
L 234.858443 -195.538011 
L 230.671662 -195.538011 
L 226.484882 -195.538011 
L 222.298102 -195.538011 
L 218.111321 -195.538011 
L 213.924541 -195.538011 
L 209.737761 -195.538011 
L 205.55098 -195.538011 
L 201.3642 -195.538011 
L 197.177419 -195.538011 
L 192.990639 -195.538011 
L 188.803859 -195.538011 
L 184.617078 -195.538011 
L 180.430298 -195.538011 
L 176.243518 -195.538011 
L 172.056737 -195.538011 
L 167.869957 -195.538011 
L 163.683177 -195.538011 
L 159.496396 -195.538011 
L 155.309616 -195.538011 
L 151.122835 -195.538011 
L 146.936055 -195.538011 
L 142.749275 -195.538011 
L 138.562494 -195.538011 
L 134.375714 -195.538011 
L 130.188934 -195.538011 
L 126.002153 -195.538011 
L 121.815373 -195.538011 
L 117.628593 -195.538011 
L 113.441812 -195.538011 
L 109.255032 -195.538011 
L 105.068251 -195.538011 
L 100.881471 -195.538011 
z
" id="m01894a2fbb" style="stroke:#ff6384;stroke-opacity:0.5;"/>
    </defs>
    <g clip-path="url(#p3280d14869)">
     <use style="fill:#ff6384;fill-opacity:0.5;stroke:#ff6384;stroke-opacity:0.5;" x="0" xlink:href="#m01894a2fbb" y="581.789375"/>
    </g>
   </g>
   <g id="PolyCollection_2">
    <defs>
     <path d="M 58.827273 -195.538011 
L 58.827273 -195.650004 
L 63.004898 -195.692234 
L 67.182524 -195.749007 
L 71.360149 -195.8248 
L 75.537774 -195.925281 
L 79.7154 -196.057565 
L 83.893025 -196.230497 
L 88.070651 -196.454982 
L 92.248276 -196.744335 
L 96.425901 -197.114666 
L 100.603527 -197.585273 
L 104.781152 -198.179047 
L 108.958778 -198.922859 
L 113.136403 -199.847921 
L 117.314028 -200.990079 
L 121.491654 -202.390029 
L 125.669279 -204.093399 
L 129.846905 -206.150691 
L 134.02453 -208.617009 
L 138.202155 -211.551575 
L 142.379781 -215.016962 
L 146.557406 -219.078053 
L 150.735032 -223.800667 
L 154.912657 -229.249878 
L 159.090282 -235.488004 
L 163.267908 -242.572312 
L 167.445533 -250.552459 
L 171.623159 -259.467747 
L 175.800784 -269.344261 
L 179.978409 -280.192004 
L 184.156035 -292.002137 
L 188.33366 -304.744465 
L 192.511286 -318.365297 
L 196.688911 -332.785841 
L 200.866536 -347.901251 
L 205.044162 -363.580456 
L 209.221787 -379.666871 
L 213.399413 -395.980052 
L 217.577038 -412.31833 
L 221.754663 -428.4624 
L 225.932289 -444.179822 
L 230.109914 -459.230303 
L 234.28754 -473.371627 
L 238.465165 -486.366018 
L 242.64279 -497.986726 
L 246.820416 -508.02457 
L 250.998041 -516.294181 
L 255.175667 -522.639693 
L 259.353292 -526.939623 
L 263.530917 -529.110739 
L 267.708543 -529.110739 
L 271.886168 -526.939623 
L 276.063794 -522.639693 
L 280.241419 -516.294181 
L 284.419044 -508.02457 
L 288.59667 -497.986726 
L 292.774295 -486.366018 
L 296.951921 -473.371627 
L 301.129546 -459.230303 
L 305.307171 -444.179822 
L 309.484797 -428.4624 
L 313.662422 -412.31833 
L 317.840048 -395.980052 
L 322.017673 -379.666871 
L 326.195298 -363.580456 
L 330.372924 -347.901251 
L 334.550549 -332.785841 
L 338.728175 -318.365297 
L 342.9058 -304.744465 
L 347.083425 -292.002137 
L 351.261051 -280.192004 
L 355.438676 -269.344261 
L 359.616302 -259.467747 
L 363.793927 -250.552459 
L 367.971552 -242.572312 
L 372.149178 -235.488004 
L 376.326803 -229.249878 
L 380.504429 -223.800667 
L 384.682054 -219.078053 
L 388.859679 -215.016962 
L 393.037305 -211.551575 
L 397.21493 -208.617009 
L 401.392556 -206.150691 
L 405.570181 -204.093399 
L 409.747806 -202.390029 
L 413.925432 -200.990079 
L 418.103057 -199.847921 
L 422.280683 -198.922859 
L 426.458308 -198.179047 
L 430.635933 -197.585273 
L 434.813559 -197.114666 
L 438.991184 -196.744335 
L 443.16881 -196.454982 
L 447.346435 -196.230497 
L 451.52406 -196.057565 
L 455.701686 -195.925281 
L 459.879311 -195.8248 
L 464.056937 -195.749007 
L 468.234562 -195.692234 
L 472.412187 -195.650004 
L 472.412187 -195.538011 
L 472.412187 -195.538011 
L 468.234562 -195.538011 
L 464.056937 -195.538011 
L 459.879311 -195.538011 
L 455.701686 -195.538011 
L 451.52406 -195.538011 
L 447.346435 -195.538011 
L 443.16881 -195.538011 
L 438.991184 -195.538011 
L 434.813559 -195.538011 
L 430.635933 -195.538011 
L 426.458308 -195.538011 
L 422.280683 -195.538011 
L 418.103057 -195.538011 
L 413.925432 -195.538011 
L 409.747806 -195.538011 
L 405.570181 -195.538011 
L 401.392556 -195.538011 
L 397.21493 -195.538011 
L 393.037305 -195.538011 
L 388.859679 -195.538011 
L 384.682054 -195.538011 
L 380.504429 -195.538011 
L 376.326803 -195.538011 
L 372.149178 -195.538011 
L 367.971552 -195.538011 
L 363.793927 -195.538011 
L 359.616302 -195.538011 
L 355.438676 -195.538011 
L 351.261051 -195.538011 
L 347.083425 -195.538011 
L 342.9058 -195.538011 
L 338.728175 -195.538011 
L 334.550549 -195.538011 
L 330.372924 -195.538011 
L 326.195298 -195.538011 
L 322.017673 -195.538011 
L 317.840048 -195.538011 
L 313.662422 -195.538011 
L 309.484797 -195.538011 
L 305.307171 -195.538011 
L 301.129546 -195.538011 
L 296.951921 -195.538011 
L 292.774295 -195.538011 
L 288.59667 -195.538011 
L 284.419044 -195.538011 
L 280.241419 -195.538011 
L 276.063794 -195.538011 
L 271.886168 -195.538011 
L 267.708543 -195.538011 
L 263.530917 -195.538011 
L 259.353292 -195.538011 
L 255.175667 -195.538011 
L 250.998041 -195.538011 
L 246.820416 -195.538011 
L 242.64279 -195.538011 
L 238.465165 -195.538011 
L 234.28754 -195.538011 
L 230.109914 -195.538011 
L 225.932289 -195.538011 
L 221.754663 -195.538011 
L 217.577038 -195.538011 
L 213.399413 -195.538011 
L 209.221787 -195.538011 
L 205.044162 -195.538011 
L 200.866536 -195.538011 
L 196.688911 -195.538011 
L 192.511286 -195.538011 
L 188.33366 -195.538011 
L 184.156035 -195.538011 
L 179.978409 -195.538011 
L 175.800784 -195.538011 
L 171.623159 -195.538011 
L 167.445533 -195.538011 
L 163.267908 -195.538011 
L 159.090282 -195.538011 
L 154.912657 -195.538011 
L 150.735032 -195.538011 
L 146.557406 -195.538011 
L 142.379781 -195.538011 
L 138.202155 -195.538011 
L 134.02453 -195.538011 
L 129.846905 -195.538011 
L 125.669279 -195.538011 
L 121.491654 -195.538011 
L 117.314028 -195.538011 
L 113.136403 -195.538011 
L 108.958778 -195.538011 
L 104.781152 -195.538011 
L 100.603527 -195.538011 
L 96.425901 -195.538011 
L 92.248276 -195.538011 
L 88.070651 -195.538011 
L 83.893025 -195.538011 
L 79.7154 -195.538011 
L 75.537774 -195.538011 
L 71.360149 -195.538011 
L 67.182524 -195.538011 
L 63.004898 -195.538011 
L 58.827273 -195.538011 
z
" id="m8c202ba497" style="stroke:#36a2eb;stroke-opacity:0.5;"/>
    </defs>
    <g clip-path="url(#p3280d14869)">
     <use style="fill:#36a2eb;fill-opacity:0.5;stroke:#36a2eb;stroke-opacity:0.5;" x="0" xlink:href="#m8c202ba497" y="581.789375"/>
    </g>
   </g>
   <g id="line2d_1">
    <path clip-path="url(#p3280d14869)" d="M 100.881471 386.139616 
L 105.068251 386.097478 
L 109.255032 386.040829 
L 113.441812 385.965202 
L 117.628593 385.86494 
L 121.815373 385.732946 
L 126.002153 385.560392 
L 130.188934 385.336398 
L 134.375714 385.047678 
L 138.562494 384.678157 
L 142.749275 384.208579 
L 146.936055 383.616103 
L 151.122835 382.873917 
L 155.309616 381.950878 
L 159.496396 380.811217 
L 163.683177 379.414329 
L 167.869957 377.714683 
L 172.056737 375.66189 
L 176.243518 373.200965 
L 180.430298 370.272816 
L 184.617078 366.815006 
L 188.803859 362.762796 
L 192.990639 358.050508 
L 197.177419 352.613213 
L 201.3642 346.388727 
L 205.55098 339.31991 
L 209.737761 331.357212 
L 213.924541 322.461419 
L 218.111321 312.606502 
L 222.298102 301.782479 
L 226.484882 289.998169 
L 230.671662 277.283705 
L 234.858443 263.692656 
L 239.045223 249.303645 
L 243.232003 234.221287 
L 247.418784 218.576367 
L 251.605564 202.525127 
L 255.792345 186.247616 
L 259.979125 169.945065 
L 264.165905 153.836296 
L 268.352686 138.153243 
L 272.539466 123.135671 
L 276.726246 109.025269 
L 280.913027 96.059292 
L 285.099807 84.463994 
L 289.286588 74.4481 
L 293.473368 66.196571 
L 297.660148 59.864934 
L 301.846929 55.574407 
L 306.033709 53.408039 
L 310.220489 53.408039 
L 314.40727 55.574407 
L 318.59405 59.864934 
L 322.78083 66.196571 
L 326.967611 74.4481 
L 331.154391 84.463994 
L 335.341172 96.059292 
L 339.527952 109.025269 
L 343.714732 123.135671 
L 347.901513 138.153243 
L 352.088293 153.836296 
L 356.275073 169.945065 
L 360.461854 186.247616 
L 364.648634 202.525127 
L 368.835414 218.576367 
L 373.022195 234.221287 
L 377.208975 249.303645 
L 381.395756 263.692656 
L 385.582536 277.283705 
L 389.769316 289.998169 
L 393.956097 301.782479 
L 398.142877 312.606502 
L 402.329657 322.461419 
L 406.516438 331.357212 
L 410.703218 339.31991 
L 414.889998 346.388727 
L 419.076779 352.613213 
L 423.263559 358.050508 
L 427.45034 362.762796 
L 431.63712 366.815006 
L 435.8239 370.272816 
L 440.010681 373.200965 
L 444.197461 375.66189 
L 448.384241 377.714683 
L 452.571022 379.414329 
L 456.757802 380.811217 
L 460.944583 381.950878 
L 465.131363 382.873917 
L 469.318143 383.616103 
L 473.504924 384.208579 
L 477.691704 384.678157 
L 481.878484 385.047678 
L 486.065265 385.336398 
L 490.252045 385.560392 
L 494.438825 385.732946 
L 498.625606 385.86494 
L 502.812386 385.965202 
L 506.999167 386.040829 
L 511.185947 386.097478 
L 515.372727 386.139616 
" style="fill:none;stroke:#ff6384;stroke-linecap:square;"/>
   </g>
   <g id="line2d_2">
    <path clip-path="url(#p3280d14869)" d="M 58.827273 386.139371 
L 63.004898 386.097141 
L 67.182524 386.040368 
L 71.360149 385.964575 
L 75.537774 385.864094 
L 79.7154 385.73181 
L 83.893025 385.558878 
L 88.070651 385.334393 
L 92.248276 385.04504 
L 96.425901 384.674709 
L 100.603527 384.204102 
L 104.781152 383.610328 
L 108.958778 382.866516 
L 113.136403 381.941454 
L 117.314028 380.799296 
L 121.491654 379.399346 
L 125.669279 377.695976 
L 129.846905 375.638684 
L 134.02453 373.172366 
L 138.202155 370.2378 
L 142.379781 366.772413 
L 146.557406 362.711322 
L 150.735032 357.988708 
L 154.912657 352.539497 
L 159.090282 346.301371 
L 163.267908 339.217063 
L 167.445533 331.236916 
L 171.623159 322.321628 
L 175.800784 312.445114 
L 179.978409 301.597371 
L 184.156035 289.787238 
L 188.33366 277.04491 
L 192.511286 263.424078 
L 196.688911 249.003534 
L 200.866536 233.888124 
L 205.044162 218.208919 
L 209.221787 202.122504 
L 213.399413 185.809323 
L 217.577038 169.471045 
L 221.754663 153.326975 
L 225.932289 137.609553 
L 230.109914 122.559072 
L 234.28754 108.417748 
L 238.465165 95.423357 
L 242.64279 83.802649 
L 246.820416 73.764805 
L 250.998041 65.495194 
L 255.175667 59.149682 
L 259.353292 54.849752 
L 263.530917 52.678636 
L 267.708543 52.678636 
L 271.886168 54.849752 
L 276.063794 59.149682 
L 280.241419 65.495194 
L 284.419044 73.764805 
L 288.59667 83.802649 
L 292.774295 95.423357 
L 296.951921 108.417748 
L 301.129546 122.559072 
L 305.307171 137.609553 
L 309.484797 153.326975 
L 313.662422 169.471045 
L 317.840048 185.809323 
L 322.017673 202.122504 
L 326.195298 218.208919 
L 330.372924 233.888124 
L 334.550549 249.003534 
L 338.728175 263.424078 
L 342.9058 277.04491 
L 347.083425 289.787238 
L 351.261051 301.597371 
L 355.438676 312.445114 
L 359.616302 322.321628 
L 363.793927 331.236916 
L 367.971552 339.217063 
L 372.149178 346.301371 
L 376.326803 352.539497 
L 380.504429 357.988708 
L 384.682054 362.711322 
L 388.859679 366.772413 
L 393.037305 370.2378 
L 397.21493 373.172366 
L 401.392556 375.638684 
L 405.570181 377.695976 
L 409.747806 379.399346 
L 413.925432 380.799296 
L 418.103057 381.941454 
L 422.280683 382.866516 
L 426.458308 383.610328 
L 430.635933 384.204102 
L 434.813559 384.674709 
L 438.991184 385.04504 
L 443.16881 385.334393 
L 447.346435 385.558878 
L 451.52406 385.73181 
L 455.701686 385.864094 
L 459.879311 385.964575 
L 464.056937 386.040368 
L 468.234562 386.097141 
L 472.412187 386.139371 
" style="fill:none;stroke:#36a2eb;stroke-linecap:square;"/>
   </g>
   <g id="patch_3">
    <path d="M 36 402.93 
L 538.2 402.93 
" style="fill:none;stroke:#000000;stroke-linecap:square;stroke-linejoin:miter;stroke-width:0.8;"/>
   </g>
   <g id="legend_1">
    <g id="patch_4">
     <path d="M 450.225313 88.29875 
L 528.4 88.29875 
Q 531.2 88.29875 531.2 85.49875 
L 531.2 45.8 
Q 531.2 43 528.4 43 
L 450.225313 43 
Q 447.425313 43 447.425313 45.8 
L 447.425313 85.49875 
Q 447.425313 88.29875 450.225313 88.29875 
z
" style="fill:#ffffff;opacity:0.8;stroke:#cccccc;stroke-linejoin:miter;"/>
    </g>
    <g id="patch_5">
     <path d="M 453.025313 59.237813 
L 481.025313 59.237813 
L 481.025313 49.437813 
L 453.025313 49.437813 
z
" style="fill:#ff6384;opacity:0.5;stroke:#ff6384;stroke-linejoin:miter;"/>
    </g>
    <g id="text_1">
     <!-- base -->
     <defs>
      <path d="M 48.6875 27.296875 
Q 48.6875 37.203125 44.609375 42.84375 
Q 40.53125 48.484375 33.40625 48.484375 
Q 26.265625 48.484375 22.1875 42.84375 
Q 18.109375 37.203125 18.109375 27.296875 
Q 18.109375 17.390625 22.1875 11.75 
Q 26.265625 6.109375 33.40625 6.109375 
Q 40.53125 6.109375 44.609375 11.75 
Q 48.6875 17.390625 48.6875 27.296875 
z
M 18.109375 46.390625 
Q 20.953125 51.265625 25.265625 53.625 
Q 29.59375 56 35.59375 56 
Q 45.5625 56 51.78125 48.09375 
Q 58.015625 40.1875 58.015625 27.296875 
Q 58.015625 14.40625 51.78125 6.484375 
Q 45.5625 -1.421875 35.59375 -1.421875 
Q 29.59375 -1.421875 25.265625 0.953125 
Q 20.953125 3.328125 18.109375 8.203125 
L 18.109375 0 
L 9.078125 0 
L 9.078125 75.984375 
L 18.109375 75.984375 
z
" id="DejaVuSans-98"/>
      <path d="M 34.28125 27.484375 
Q 23.390625 27.484375 19.1875 25 
Q 14.984375 22.515625 14.984375 16.5 
Q 14.984375 11.71875 18.140625 8.90625 
Q 21.296875 6.109375 26.703125 6.109375 
Q 34.1875 6.109375 38.703125 11.40625 
Q 43.21875 16.703125 43.21875 25.484375 
L 43.21875 27.484375 
z
M 52.203125 31.203125 
L 52.203125 0 
L 43.21875 0 
L 43.21875 8.296875 
Q 40.140625 3.328125 35.546875 0.953125 
Q 30.953125 -1.421875 24.3125 -1.421875 
Q 15.921875 -1.421875 10.953125 3.296875 
Q 6 8.015625 6 15.921875 
Q 6 25.140625 12.171875 29.828125 
Q 18.359375 34.515625 30.609375 34.515625 
L 43.21875 34.515625 
L 43.21875 35.40625 
Q 43.21875 41.609375 39.140625 45 
Q 35.0625 48.390625 27.6875 48.390625 
Q 23 48.390625 18.546875 47.265625 
Q 14.109375 46.140625 10.015625 43.890625 
L 10.015625 52.203125 
Q 14.9375 54.109375 19.578125 55.046875 
Q 24.21875 56 28.609375 56 
Q 40.484375 56 46.34375 49.84375 
Q 52.203125 43.703125 52.203125 31.203125 
z
" id="DejaVuSans-97"/>
      <path d="M 44.28125 53.078125 
L 44.28125 44.578125 
Q 40.484375 46.53125 36.375 47.5 
Q 32.28125 48.484375 27.875 48.484375 
Q 21.1875 48.484375 17.84375 46.4375 
Q 14.5 44.390625 14.5 40.28125 
Q 14.5 37.15625 16.890625 35.375 
Q 19.28125 33.59375 26.515625 31.984375 
L 29.59375 31.296875 
Q 39.15625 29.25 43.1875 25.515625 
Q 47.21875 21.78125 47.21875 15.09375 
Q 47.21875 7.46875 41.1875 3.015625 
Q 35.15625 -1.421875 24.609375 -1.421875 
Q 20.21875 -1.421875 15.453125 -0.5625 
Q 10.6875 0.296875 5.421875 2 
L 5.421875 11.28125 
Q 10.40625 8.6875 15.234375 7.390625 
Q 20.0625 6.109375 24.8125 6.109375 
Q 31.15625 6.109375 34.5625 8.28125 
Q 37.984375 10.453125 37.984375 14.40625 
Q 37.984375 18.0625 35.515625 20.015625 
Q 33.0625 21.96875 24.703125 23.78125 
L 21.578125 24.515625 
Q 13.234375 26.265625 9.515625 29.90625 
Q 5.8125 33.546875 5.8125 39.890625 
Q 5.8125 47.609375 11.28125 51.796875 
Q 16.75 56 26.8125 56 
Q 31.78125 56 36.171875 55.265625 
Q 40.578125 54.546875 44.28125 53.078125 
z
" id="DejaVuSans-115"/>
      <path d="M 56.203125 29.59375 
L 56.203125 25.203125 
L 14.890625 25.203125 
Q 15.484375 15.921875 20.484375 11.0625 
Q 25.484375 6.203125 34.421875 6.203125 
Q 39.59375 6.203125 44.453125 7.46875 
Q 49.3125 8.734375 54.109375 11.28125 
L 54.109375 2.78125 
Q 49.265625 0.734375 44.1875 -0.34375 
Q 39.109375 -1.421875 33.890625 -1.421875 
Q 20.796875 -1.421875 13.15625 6.1875 
Q 5.515625 13.8125 5.515625 26.8125 
Q 5.515625 40.234375 12.765625 48.109375 
Q 20.015625 56 32.328125 56 
Q 43.359375 56 49.78125 48.890625 
Q 56.203125 41.796875 56.203125 29.59375 
z
M 47.21875 32.234375 
Q 47.125 39.59375 43.09375 43.984375 
Q 39.0625 48.390625 32.421875 48.390625 
Q 24.90625 48.390625 20.390625 44.140625 
Q 15.875 39.890625 15.1875 32.171875 
z
" id="DejaVuSans-101"/>
     </defs>
     <g transform="translate(492.225313 59.237813)scale(0.14 -0.14)">
      <use xlink:href="#DejaVuSans-98"/>
      <use x="63.476562" xlink:href="#DejaVuSans-97"/>
      <use x="124.755859" xlink:href="#DejaVuSans-115"/>
      <use x="176.855469" xlink:href="#DejaVuSans-101"/>
     </g>
    </g>
    <g id="patch_6">
     <path d="M 453.025313 79.787188 
L 481.025313 79.787188 
L 481.025313 69.987188 
L 453.025313 69.987188 
z
" style="fill:#36a2eb;opacity:0.5;stroke:#36a2eb;stroke-linejoin:miter;"/>
    </g>
    <g id="text_2">
     <!-- new -->
     <defs>
      <path d="M 54.890625 33.015625 
L 54.890625 0 
L 45.90625 0 
L 45.90625 32.71875 
Q 45.90625 40.484375 42.875 44.328125 
Q 39.84375 48.1875 33.796875 48.1875 
Q 26.515625 48.1875 22.3125 43.546875 
Q 18.109375 38.921875 18.109375 30.90625 
L 18.109375 0 
L 9.078125 0 
L 9.078125 54.6875 
L 18.109375 54.6875 
L 18.109375 46.1875 
Q 21.34375 51.125 25.703125 53.5625 
Q 30.078125 56 35.796875 56 
Q 45.21875 56 50.046875 50.171875 
Q 54.890625 44.34375 54.890625 33.015625 
z
" id="DejaVuSans-110"/>
      <path d="M 4.203125 54.6875 
L 13.1875 54.6875 
L 24.421875 12.015625 
L 35.59375 54.6875 
L 46.1875 54.6875 
L 57.421875 12.015625 
L 68.609375 54.6875 
L 77.59375 54.6875 
L 63.28125 0 
L 52.6875 0 
L 40.921875 44.828125 
L 29.109375 0 
L 18.5 0 
z
" id="DejaVuSans-119"/>
     </defs>
     <g transform="translate(492.225313 79.787188)scale(0.14 -0.14)">
      <use xlink:href="#DejaVuSans-110"/>
      <use x="63.378906" xlink:href="#DejaVuSans-101"/>
      <use x="124.902344" xlink:href="#DejaVuSans-119"/>
     </g>
    </g>
   </g>
  </g>
  <g id="axes_2">
   <g id="patch_7">
    <path d="M 36 525.24 
L 538.2 525.24 
L 538.2 402.93 
L 36 402.93 
z
" style="fill:none;"/>
   </g>
   <g id="patch_8">
    <path clip-path="url(#p9cb4aed57c)" d="M 206.576741 519.680455 
L 409.677457 519.680455 
L 409.677457 482.616818 
L 206.576741 482.616818 
z
" style="fill:#ff6384;opacity:0.5;"/>
   </g>
   <g id="patch_9">
    <path clip-path="url(#p9cb4aed57c)" d="M 164.291426 445.553182 
L 366.948034 445.553182 
L 366.948034 408.489545 
L 164.291426 408.489545 
z
" style="fill:#36a2eb;opacity:0.5;"/>
   </g>
   <g id="matplotlib.axis_1">
    <g id="xtick_1">
     <g id="line2d_3">
      <defs>
       <path d="M 0 0 
L 0 3.5 
" id="m24b4a99c79" style="stroke:#000000;stroke-width:0.8;"/>
      </defs>
      <g>
       <use style="stroke:#000000;stroke-width:0.8;" x="94.072133" xlink:href="#m24b4a99c79" y="525.24"/>
      </g>
     </g>
     <g id="text_3">
      <!-- 16.5 -->
      <defs>
       <path d="M 12.40625 8.296875 
L 28.515625 8.296875 
L 28.515625 63.921875 
L 10.984375 60.40625 
L 10.984375 69.390625 
L 28.421875 72.90625 
L 38.28125 72.90625 
L 38.28125 8.296875 
L 54.390625 8.296875 
L 54.390625 0 
L 12.40625 0 
z
" id="DejaVuSans-49"/>
       <path d="M 33.015625 40.375 
Q 26.375 40.375 22.484375 35.828125 
Q 18.609375 31.296875 18.609375 23.390625 
Q 18.609375 15.53125 22.484375 10.953125 
Q 26.375 6.390625 33.015625 6.390625 
Q 39.65625 6.390625 43.53125 10.953125 
Q 47.40625 15.53125 47.40625 23.390625 
Q 47.40625 31.296875 43.53125 35.828125 
Q 39.65625 40.375 33.015625 40.375 
z
M 52.59375 71.296875 
L 52.59375 62.3125 
Q 48.875 64.0625 45.09375 64.984375 
Q 41.3125 65.921875 37.59375 65.921875 
Q 27.828125 65.921875 22.671875 59.328125 
Q 17.53125 52.734375 16.796875 39.40625 
Q 19.671875 43.65625 24.015625 45.921875 
Q 28.375 48.1875 33.59375 48.1875 
Q 44.578125 48.1875 50.953125 41.515625 
Q 57.328125 34.859375 57.328125 23.390625 
Q 57.328125 12.15625 50.6875 5.359375 
Q 44.046875 -1.421875 33.015625 -1.421875 
Q 20.359375 -1.421875 13.671875 8.265625 
Q 6.984375 17.96875 6.984375 36.375 
Q 6.984375 53.65625 15.1875 63.9375 
Q 23.390625 74.21875 37.203125 74.21875 
Q 40.921875 74.21875 44.703125 73.484375 
Q 48.484375 72.75 52.59375 71.296875 
z
" id="DejaVuSans-54"/>
       <path d="M 10.6875 12.40625 
L 21 12.40625 
L 21 0 
L 10.6875 0 
z
" id="DejaVuSans-46"/>
       <path d="M 10.796875 72.90625 
L 49.515625 72.90625 
L 49.515625 64.59375 
L 19.828125 64.59375 
L 19.828125 46.734375 
Q 21.96875 47.46875 24.109375 47.828125 
Q 26.265625 48.1875 28.421875 48.1875 
Q 40.625 48.1875 47.75 41.5 
Q 54.890625 34.8125 54.890625 23.390625 
Q 54.890625 11.625 47.5625 5.09375 
Q 40.234375 -1.421875 26.90625 -1.421875 
Q 22.3125 -1.421875 17.546875 -0.640625 
Q 12.796875 0.140625 7.71875 1.703125 
L 7.71875 11.625 
Q 12.109375 9.234375 16.796875 8.0625 
Q 21.484375 6.890625 26.703125 6.890625 
Q 35.15625 6.890625 40.078125 11.328125 
Q 45.015625 15.765625 45.015625 23.390625 
Q 45.015625 31 40.078125 35.4375 
Q 35.15625 39.890625 26.703125 39.890625 
Q 22.75 39.890625 18.8125 39.015625 
Q 14.890625 38.140625 10.796875 36.28125 
z
" id="DejaVuSans-53"/>
      </defs>
      <g transform="translate(78.486196 542.877813)scale(0.14 -0.14)">
       <use xlink:href="#DejaVuSans-49"/>
       <use x="63.623047" xlink:href="#DejaVuSans-54"/>
       <use x="127.246094" xlink:href="#DejaVuSans-46"/>
       <use x="159.033203" xlink:href="#DejaVuSans-53"/>
      </g>
     </g>
    </g>
    <g id="xtick_2">
     <g id="line2d_4">
      <g>
       <use style="stroke:#000000;stroke-width:0.8;" x="169.97815" xlink:href="#m24b4a99c79" y="525.24"/>
      </g>
     </g>
     <g id="text_4">
      <!-- 17.0 -->
      <defs>
       <path d="M 8.203125 72.90625 
L 55.078125 72.90625 
L 55.078125 68.703125 
L 28.609375 0 
L 18.3125 0 
L 43.21875 64.59375 
L 8.203125 64.59375 
z
" id="DejaVuSans-55"/>
       <path d="M 31.78125 66.40625 
Q 24.171875 66.40625 20.328125 58.90625 
Q 16.5 51.421875 16.5 36.375 
Q 16.5 21.390625 20.328125 13.890625 
Q 24.171875 6.390625 31.78125 6.390625 
Q 39.453125 6.390625 43.28125 13.890625 
Q 47.125 21.390625 47.125 36.375 
Q 47.125 51.421875 43.28125 58.90625 
Q 39.453125 66.40625 31.78125 66.40625 
z
M 31.78125 74.21875 
Q 44.046875 74.21875 50.515625 64.515625 
Q 56.984375 54.828125 56.984375 36.375 
Q 56.984375 17.96875 50.515625 8.265625 
Q 44.046875 -1.421875 31.78125 -1.421875 
Q 19.53125 -1.421875 13.0625 8.265625 
Q 6.59375 17.96875 6.59375 36.375 
Q 6.59375 54.828125 13.0625 64.515625 
Q 19.53125 74.21875 31.78125 74.21875 
z
" id="DejaVuSans-48"/>
      </defs>
      <g transform="translate(154.392212 542.877813)scale(0.14 -0.14)">
       <use xlink:href="#DejaVuSans-49"/>
       <use x="63.623047" xlink:href="#DejaVuSans-55"/>
       <use x="127.246094" xlink:href="#DejaVuSans-46"/>
       <use x="159.033203" xlink:href="#DejaVuSans-48"/>
      </g>
     </g>
    </g>
    <g id="xtick_3">
     <g id="line2d_5">
      <g>
       <use style="stroke:#000000;stroke-width:0.8;" x="245.884166" xlink:href="#m24b4a99c79" y="525.24"/>
      </g>
     </g>
     <g id="text_5">
      <!-- 17.5 -->
      <g transform="translate(230.298228 542.877813)scale(0.14 -0.14)">
       <use xlink:href="#DejaVuSans-49"/>
       <use x="63.623047" xlink:href="#DejaVuSans-55"/>
       <use x="127.246094" xlink:href="#DejaVuSans-46"/>
       <use x="159.033203" xlink:href="#DejaVuSans-53"/>
      </g>
     </g>
    </g>
    <g id="xtick_4">
     <g id="line2d_6">
      <g>
       <use style="stroke:#000000;stroke-width:0.8;" x="321.790182" xlink:href="#m24b4a99c79" y="525.24"/>
      </g>
     </g>
     <g id="text_6">
      <!-- 18.0 -->
      <defs>
       <path d="M 31.78125 34.625 
Q 24.75 34.625 20.71875 30.859375 
Q 16.703125 27.09375 16.703125 20.515625 
Q 16.703125 13.921875 20.71875 10.15625 
Q 24.75 6.390625 31.78125 6.390625 
Q 38.8125 6.390625 42.859375 10.171875 
Q 46.921875 13.96875 46.921875 20.515625 
Q 46.921875 27.09375 42.890625 30.859375 
Q 38.875 34.625 31.78125 34.625 
z
M 21.921875 38.8125 
Q 15.578125 40.375 12.03125 44.71875 
Q 8.5 49.078125 8.5 55.328125 
Q 8.5 64.0625 14.71875 69.140625 
Q 20.953125 74.21875 31.78125 74.21875 
Q 42.671875 74.21875 48.875 69.140625 
Q 55.078125 64.0625 55.078125 55.328125 
Q 55.078125 49.078125 51.53125 44.71875 
Q 48 40.375 41.703125 38.8125 
Q 48.828125 37.15625 52.796875 32.3125 
Q 56.78125 27.484375 56.78125 20.515625 
Q 56.78125 9.90625 50.3125 4.234375 
Q 43.84375 -1.421875 31.78125 -1.421875 
Q 19.734375 -1.421875 13.25 4.234375 
Q 6.78125 9.90625 6.78125 20.515625 
Q 6.78125 27.484375 10.78125 32.3125 
Q 14.796875 37.15625 21.921875 38.8125 
z
M 18.3125 54.390625 
Q 18.3125 48.734375 21.84375 45.5625 
Q 25.390625 42.390625 31.78125 42.390625 
Q 38.140625 42.390625 41.71875 45.5625 
Q 45.3125 48.734375 45.3125 54.390625 
Q 45.3125 60.0625 41.71875 63.234375 
Q 38.140625 66.40625 31.78125 66.40625 
Q 25.390625 66.40625 21.84375 63.234375 
Q 18.3125 60.0625 18.3125 54.390625 
z
" id="DejaVuSans-56"/>
      </defs>
      <g transform="translate(306.204245 542.877813)scale(0.14 -0.14)">
       <use xlink:href="#DejaVuSans-49"/>
       <use x="63.623047" xlink:href="#DejaVuSans-56"/>
       <use x="127.246094" xlink:href="#DejaVuSans-46"/>
       <use x="159.033203" xlink:href="#DejaVuSans-48"/>
      </g>
     </g>
    </g>
    <g id="xtick_5">
     <g id="line2d_7">
      <g>
       <use style="stroke:#000000;stroke-width:0.8;" x="397.696198" xlink:href="#m24b4a99c79" y="525.24"/>
      </g>
     </g>
     <g id="text_7">
      <!-- 18.5 -->
      <g transform="translate(382.110261 542.877813)scale(0.14 -0.14)">
       <use xlink:href="#DejaVuSans-49"/>
       <use x="63.623047" xlink:href="#DejaVuSans-56"/>
       <use x="127.246094" xlink:href="#DejaVuSans-46"/>
       <use x="159.033203" xlink:href="#DejaVuSans-53"/>
      </g>
     </g>
    </g>
    <g id="xtick_6">
     <g id="line2d_8">
      <g>
       <use style="stroke:#000000;stroke-width:0.8;" x="473.602214" xlink:href="#m24b4a99c79" y="525.24"/>
      </g>
     </g>
     <g id="text_8">
      <!-- 19.0 -->
      <defs>
       <path d="M 10.984375 1.515625 
L 10.984375 10.5 
Q 14.703125 8.734375 18.5 7.8125 
Q 22.3125 6.890625 25.984375 6.890625 
Q 35.75 6.890625 40.890625 13.453125 
Q 46.046875 20.015625 46.78125 33.40625 
Q 43.953125 29.203125 39.59375 26.953125 
Q 35.25 24.703125 29.984375 24.703125 
Q 19.046875 24.703125 12.671875 31.3125 
Q 6.296875 37.9375 6.296875 49.421875 
Q 6.296875 60.640625 12.9375 67.421875 
Q 19.578125 74.21875 30.609375 74.21875 
Q 43.265625 74.21875 49.921875 64.515625 
Q 56.59375 54.828125 56.59375 36.375 
Q 56.59375 19.140625 48.40625 8.859375 
Q 40.234375 -1.421875 26.421875 -1.421875 
Q 22.703125 -1.421875 18.890625 -0.6875 
Q 15.09375 0.046875 10.984375 1.515625 
z
M 30.609375 32.421875 
Q 37.25 32.421875 41.125 36.953125 
Q 45.015625 41.5 45.015625 49.421875 
Q 45.015625 57.28125 41.125 61.84375 
Q 37.25 66.40625 30.609375 66.40625 
Q 23.96875 66.40625 20.09375 61.84375 
Q 16.21875 57.28125 16.21875 49.421875 
Q 16.21875 41.5 20.09375 36.953125 
Q 23.96875 32.421875 30.609375 32.421875 
z
" id="DejaVuSans-57"/>
      </defs>
      <g transform="translate(458.016277 542.877813)scale(0.14 -0.14)">
       <use xlink:href="#DejaVuSans-49"/>
       <use x="63.623047" xlink:href="#DejaVuSans-57"/>
       <use x="127.246094" xlink:href="#DejaVuSans-46"/>
       <use x="159.033203" xlink:href="#DejaVuSans-48"/>
      </g>
     </g>
    </g>
   </g>
   <g id="line2d_9">
    <path clip-path="url(#p9cb4aed57c)" d="M 308.127099 525.24 
L 308.127099 402.93 
" style="fill:none;stroke:#ff6384;stroke-dasharray:5.55,2.4;stroke-dashoffset:0;stroke-opacity:0.8;stroke-width:1.5;"/>
   </g>
   <g id="line2d_10">
    <path clip-path="url(#p9cb4aed57c)" d="M 265.61973 525.24 
L 265.61973 402.93 
" style="fill:none;stroke:#36a2eb;stroke-dasharray:5.55,2.4;stroke-dashoffset:0;stroke-opacity:0.8;stroke-width:1.5;"/>
   </g>
   <g id="patch_10">
    <path d="M 36 525.24 
L 538.2 525.24 
" style="fill:none;stroke:#000000;stroke-linecap:square;stroke-linejoin:miter;stroke-width:0.8;"/>
   </g>
  </g>
 </g>
 <defs>
  <clipPath id="p3280d14869">
   <rect height="366.93" width="502.2" x="36" y="36"/>
  </clipPath>
  <clipPath id="p9cb4aed57c">
   <rect height="122.31" width="502.2" x="36" y="402.93"/>
  </clipPath>
 </defs>
</svg>
