<?xml version="1.0" encoding="utf-8" standalone="no"?>
<!DOCTYPE svg PUBLIC "-//W3C//DTD SVG 1.1//EN"
  "http://www.w3.org/Graphics/SVG/1.1/DTD/svg11.dtd">
<!-- Created with matplotlib (https://matplotlib.org/) -->
<svg height="581.789375pt" version="1.1" viewBox="0 0 574.2 581.789375" width="574.2pt" xmlns="http://www.w3.org/2000/svg" xmlns:xlink="http://www.w3.org/1999/xlink">
 <defs>
  <style type="text/css">
*{stroke-linecap:butt;stroke-linejoin:round;}
  </style>
 </defs>
 <g id="figure_1">
  <g id="patch_1">
   <path d="M 0 581.789375 
L 574.2 581.789375 
L 574.2 0 
L 0 0 
z
" style="fill:none;"/>
  </g>
  <g id="axes_1">
   <g id="patch_2">
    <path d="M 36 402.93 
L 538.2 402.93 
L 538.2 36 
L 36 36 
z
" style="fill:none;"/>
   </g>
   <g id="PolyCollection_1">
    <defs>
     <path d="M 92.147202 -195.538011 
L 92.147202 -195.638759 
L 96.422208 -195.676749 
L 100.697213 -195.727821 
L 104.972218 -195.796004 
L 109.247223 -195.886396 
L 113.522229 -196.005397 
L 117.797234 -196.160965 
L 122.072239 -196.36291 
L 126.347245 -196.62321 
L 130.62225 -196.956356 
L 134.897255 -197.37971 
L 139.172261 -197.913863 
L 143.447266 -198.582991 
L 147.722271 -199.415168 
L 151.997277 -200.442644 
L 156.272282 -201.702026 
L 160.547287 -203.234363 
L 164.822292 -205.085084 
L 169.097298 -207.303763 
L 173.372303 -209.943672 
L 177.647308 -213.061104 
L 181.922314 -216.714425 
L 186.197319 -220.962848 
L 190.472324 -225.864909 
L 194.74733 -231.476673 
L 199.022335 -237.849654 
L 203.29734 -245.028524 
L 207.572345 -253.048638 
L 211.847351 -261.933463 
L 216.122356 -271.691997 
L 220.397361 -282.316289 
L 224.672367 -293.779175 
L 228.947372 -306.032355 
L 233.222377 -319.00495 
L 237.497383 -332.602639 
L 241.772388 -346.707513 
L 246.047393 -361.178711 
L 250.322398 -375.853905 
L 254.597404 -390.551676 
L 258.872409 -405.074739 
L 263.147414 -419.213993 
L 267.42242 -432.753273 
L 271.697425 -445.474683 
L 275.97243 -457.164323 
L 280.247436 -467.61821 
L 284.522441 -476.648166 
L 288.797446 -484.087435 
L 293.072452 -489.795802 
L 297.347457 -493.663981 
L 301.622462 -495.617097 
L 305.897467 -495.617097 
L 310.172473 -493.663981 
L 314.447478 -489.795802 
L 318.722483 -484.087435 
L 322.997489 -476.648166 
L 327.272494 -467.61821 
L 331.547499 -457.164323 
L 335.822505 -445.474683 
L 340.09751 -432.753273 
L 344.372515 -419.213993 
L 348.64752 -405.074739 
L 352.922526 -390.551676 
L 357.197531 -375.853905 
L 361.472536 -361.178711 
L 365.747542 -346.707513 
L 370.022547 -332.602639 
L 374.297552 -319.00495 
L 378.572558 -306.032355 
L 382.847563 -293.779175 
L 387.122568 -282.316289 
L 391.397573 -271.691997 
L 395.672579 -261.933463 
L 399.947584 -253.048638 
L 404.222589 -245.028524 
L 408.497595 -237.849654 
L 412.7726 -231.476673 
L 417.047605 -225.864909 
L 421.322611 -220.962848 
L 425.597616 -216.714425 
L 429.872621 -213.061104 
L 434.147627 -209.943672 
L 438.422632 -207.303763 
L 442.697637 -205.085084 
L 446.972642 -203.234363 
L 451.247648 -201.702026 
L 455.522653 -200.442644 
L 459.797658 -199.415168 
L 464.072664 -198.582991 
L 468.347669 -197.913863 
L 472.622674 -197.37971 
L 476.89768 -196.956356 
L 481.172685 -196.62321 
L 485.44769 -196.36291 
L 489.722695 -196.160965 
L 493.997701 -196.005397 
L 498.272706 -195.886396 
L 502.547711 -195.796004 
L 506.822717 -195.727821 
L 511.097722 -195.676749 
L 515.372727 -195.638759 
L 515.372727 -195.538011 
L 515.372727 -195.538011 
L 511.097722 -195.538011 
L 506.822717 -195.538011 
L 502.547711 -195.538011 
L 498.272706 -195.538011 
L 493.997701 -195.538011 
L 489.722695 -195.538011 
L 485.44769 -195.538011 
L 481.172685 -195.538011 
L 476.89768 -195.538011 
L 472.622674 -195.538011 
L 468.347669 -195.538011 
L 464.072664 -195.538011 
L 459.797658 -195.538011 
L 455.522653 -195.538011 
L 451.247648 -195.538011 
L 446.972642 -195.538011 
L 442.697637 -195.538011 
L 438.422632 -195.538011 
L 434.147627 -195.538011 
L 429.872621 -195.538011 
L 425.597616 -195.538011 
L 421.322611 -195.538011 
L 417.047605 -195.538011 
L 412.7726 -195.538011 
L 408.497595 -195.538011 
L 404.222589 -195.538011 
L 399.947584 -195.538011 
L 395.672579 -195.538011 
L 391.397573 -195.538011 
L 387.122568 -195.538011 
L 382.847563 -195.538011 
L 378.572558 -195.538011 
L 374.297552 -195.538011 
L 370.022547 -195.538011 
L 365.747542 -195.538011 
L 361.472536 -195.538011 
L 357.197531 -195.538011 
L 352.922526 -195.538011 
L 348.64752 -195.538011 
L 344.372515 -195.538011 
L 340.09751 -195.538011 
L 335.822505 -195.538011 
L 331.547499 -195.538011 
L 327.272494 -195.538011 
L 322.997489 -195.538011 
L 318.722483 -195.538011 
L 314.447478 -195.538011 
L 310.172473 -195.538011 
L 305.897467 -195.538011 
L 301.622462 -195.538011 
L 297.347457 -195.538011 
L 293.072452 -195.538011 
L 288.797446 -195.538011 
L 284.522441 -195.538011 
L 280.247436 -195.538011 
L 275.97243 -195.538011 
L 271.697425 -195.538011 
L 267.42242 -195.538011 
L 263.147414 -195.538011 
L 258.872409 -195.538011 
L 254.597404 -195.538011 
L 250.322398 -195.538011 
L 246.047393 -195.538011 
L 241.772388 -195.538011 
L 237.497383 -195.538011 
L 233.222377 -195.538011 
L 228.947372 -195.538011 
L 224.672367 -195.538011 
L 220.397361 -195.538011 
L 216.122356 -195.538011 
L 211.847351 -195.538011 
L 207.572345 -195.538011 
L 203.29734 -195.538011 
L 199.022335 -195.538011 
L 194.74733 -195.538011 
L 190.472324 -195.538011 
L 186.197319 -195.538011 
L 181.922314 -195.538011 
L 177.647308 -195.538011 
L 173.372303 -195.538011 
L 169.097298 -195.538011 
L 164.822292 -195.538011 
L 160.547287 -195.538011 
L 156.272282 -195.538011 
L 151.997277 -195.538011 
L 147.722271 -195.538011 
L 143.447266 -195.538011 
L 139.172261 -195.538011 
L 134.897255 -195.538011 
L 130.62225 -195.538011 
L 126.347245 -195.538011 
L 122.072239 -195.538011 
L 117.797234 -195.538011 
L 113.522229 -195.538011 
L 109.247223 -195.538011 
L 104.972218 -195.538011 
L 100.697213 -195.538011 
L 96.422208 -195.538011 
L 92.147202 -195.538011 
z
" id="mc0f4fa221c" style="stroke:#ff6384;stroke-opacity:0.5;"/>
    </defs>
    <g clip-path="url(#p0ed7a6923c)">
     <use style="fill:#ff6384;fill-opacity:0.5;stroke:#ff6384;stroke-opacity:0.5;" x="0" xlink:href="#mc0f4fa221c" y="581.789375"/>
    </g>
   </g>
   <g id="PolyCollection_2">
    <defs>
     <path d="M 58.827273 -195.538011 
L 58.827273 -195.650004 
L 62.67303 -195.692234 
L 66.518787 -195.749007 
L 70.364544 -195.8248 
L 74.210301 -195.925281 
L 78.056058 -196.057565 
L 81.901815 -196.230497 
L 85.747572 -196.454982 
L 89.59333 -196.744335 
L 93.439087 -197.114666 
L 97.284844 -197.585273 
L 101.130601 -198.179047 
L 104.976358 -198.922859 
L 108.822115 -199.847921 
L 112.667872 -200.990079 
L 116.513629 -202.390029 
L 120.359386 -204.093399 
L 124.205143 -206.150691 
L 128.050901 -208.617009 
L 131.896658 -211.551575 
L 135.742415 -215.016962 
L 139.588172 -219.078053 
L 143.433929 -223.800667 
L 147.279686 -229.249878 
L 151.125443 -235.488004 
L 154.9712 -242.572312 
L 158.816957 -250.552459 
L 162.662714 -259.467747 
L 166.508471 -269.344261 
L 170.354229 -280.192004 
L 174.199986 -292.002137 
L 178.045743 -304.744465 
L 181.8915 -318.365297 
L 185.737257 -332.785841 
L 189.583014 -347.901251 
L 193.428771 -363.580456 
L 197.274528 -379.666871 
L 201.120285 -395.980052 
L 204.966042 -412.31833 
L 208.8118 -428.4624 
L 212.657557 -444.179822 
L 216.503314 -459.230303 
L 220.349071 -473.371627 
L 224.194828 -486.366018 
L 228.040585 -497.986726 
L 231.886342 -508.02457 
L 235.732099 -516.294181 
L 239.577856 -522.639693 
L 243.423613 -526.939623 
L 247.269371 -529.110739 
L 251.115128 -529.110739 
L 254.960885 -526.939623 
L 258.806642 -522.639693 
L 262.652399 -516.294181 
L 266.498156 -508.02457 
L 270.343913 -497.986726 
L 274.18967 -486.366018 
L 278.035427 -473.371627 
L 281.881184 -459.230303 
L 285.726942 -444.179822 
L 289.572699 -428.4624 
L 293.418456 -412.31833 
L 297.264213 -395.980052 
L 301.10997 -379.666871 
L 304.955727 -363.580456 
L 308.801484 -347.901251 
L 312.647241 -332.785841 
L 316.492998 -318.365297 
L 320.338755 -304.744465 
L 324.184513 -292.002137 
L 328.03027 -280.192004 
L 331.876027 -269.344261 
L 335.721784 -259.467747 
L 339.567541 -250.552459 
L 343.413298 -242.572312 
L 347.259055 -235.488004 
L 351.104812 -229.249878 
L 354.950569 -223.800667 
L 358.796326 -219.078053 
L 362.642084 -215.016962 
L 366.487841 -211.551575 
L 370.333598 -208.617009 
L 374.179355 -206.150691 
L 378.025112 -204.093399 
L 381.870869 -202.390029 
L 385.716626 -200.990079 
L 389.562383 -199.847921 
L 393.40814 -198.922859 
L 397.253897 -198.179047 
L 401.099654 -197.585273 
L 404.945412 -197.114666 
L 408.791169 -196.744335 
L 412.636926 -196.454982 
L 416.482683 -196.230497 
L 420.32844 -196.057565 
L 424.174197 -195.925281 
L 428.019954 -195.8248 
L 431.865711 -195.749007 
L 435.711468 -195.692234 
L 439.557225 -195.650004 
L 439.557225 -195.538011 
L 439.557225 -195.538011 
L 435.711468 -195.538011 
L 431.865711 -195.538011 
L 428.019954 -195.538011 
L 424.174197 -195.538011 
L 420.32844 -195.538011 
L 416.482683 -195.538011 
L 412.636926 -195.538011 
L 408.791169 -195.538011 
L 404.945412 -195.538011 
L 401.099654 -195.538011 
L 397.253897 -195.538011 
L 393.40814 -195.538011 
L 389.562383 -195.538011 
L 385.716626 -195.538011 
L 381.870869 -195.538011 
L 378.025112 -195.538011 
L 374.179355 -195.538011 
L 370.333598 -195.538011 
L 366.487841 -195.538011 
L 362.642084 -195.538011 
L 358.796326 -195.538011 
L 354.950569 -195.538011 
L 351.104812 -195.538011 
L 347.259055 -195.538011 
L 343.413298 -195.538011 
L 339.567541 -195.538011 
L 335.721784 -195.538011 
L 331.876027 -195.538011 
L 328.03027 -195.538011 
L 324.184513 -195.538011 
L 320.338755 -195.538011 
L 316.492998 -195.538011 
L 312.647241 -195.538011 
L 308.801484 -195.538011 
L 304.955727 -195.538011 
L 301.10997 -195.538011 
L 297.264213 -195.538011 
L 293.418456 -195.538011 
L 289.572699 -195.538011 
L 285.726942 -195.538011 
L 281.881184 -195.538011 
L 278.035427 -195.538011 
L 274.18967 -195.538011 
L 270.343913 -195.538011 
L 266.498156 -195.538011 
L 262.652399 -195.538011 
L 258.806642 -195.538011 
L 254.960885 -195.538011 
L 251.115128 -195.538011 
L 247.269371 -195.538011 
L 243.423613 -195.538011 
L 239.577856 -195.538011 
L 235.732099 -195.538011 
L 231.886342 -195.538011 
L 228.040585 -195.538011 
L 224.194828 -195.538011 
L 220.349071 -195.538011 
L 216.503314 -195.538011 
L 212.657557 -195.538011 
L 208.8118 -195.538011 
L 204.966042 -195.538011 
L 201.120285 -195.538011 
L 197.274528 -195.538011 
L 193.428771 -195.538011 
L 189.583014 -195.538011 
L 185.737257 -195.538011 
L 181.8915 -195.538011 
L 178.045743 -195.538011 
L 174.199986 -195.538011 
L 170.354229 -195.538011 
L 166.508471 -195.538011 
L 162.662714 -195.538011 
L 158.816957 -195.538011 
L 154.9712 -195.538011 
L 151.125443 -195.538011 
L 147.279686 -195.538011 
L 143.433929 -195.538011 
L 139.588172 -195.538011 
L 135.742415 -195.538011 
L 131.896658 -195.538011 
L 128.050901 -195.538011 
L 124.205143 -195.538011 
L 120.359386 -195.538011 
L 116.513629 -195.538011 
L 112.667872 -195.538011 
L 108.822115 -195.538011 
L 104.976358 -195.538011 
L 101.130601 -195.538011 
L 97.284844 -195.538011 
L 93.439087 -195.538011 
L 89.59333 -195.538011 
L 85.747572 -195.538011 
L 81.901815 -195.538011 
L 78.056058 -195.538011 
L 74.210301 -195.538011 
L 70.364544 -195.538011 
L 66.518787 -195.538011 
L 62.67303 -195.538011 
L 58.827273 -195.538011 
z
" id="m5d0cab97df" style="stroke:#36a2eb;stroke-opacity:0.5;"/>
    </defs>
    <g clip-path="url(#p0ed7a6923c)">
     <use style="fill:#36a2eb;fill-opacity:0.5;stroke:#36a2eb;stroke-opacity:0.5;" x="0" xlink:href="#m5d0cab97df" y="581.789375"/>
    </g>
   </g>
   <g id="line2d_1">
    <path clip-path="url(#p0ed7a6923c)" d="M 92.147202 386.150616 
L 96.422208 386.112626 
L 100.697213 386.061554 
L 104.972218 385.993371 
L 109.247223 385.902979 
L 113.522229 385.783978 
L 117.797234 385.62841 
L 122.072239 385.426465 
L 126.347245 385.166165 
L 130.62225 384.833019 
L 134.897255 384.409665 
L 139.172261 383.875512 
L 143.447266 383.206384 
L 147.722271 382.374207 
L 151.997277 381.346731 
L 156.272282 380.087349 
L 160.547287 378.555012 
L 164.822292 376.704291 
L 169.097298 374.485612 
L 173.372303 371.845703 
L 177.647308 368.728271 
L 181.922314 365.07495 
L 186.197319 360.826527 
L 190.472324 355.924466 
L 194.74733 350.312702 
L 199.022335 343.939721 
L 203.29734 336.760851 
L 207.572345 328.740737 
L 211.847351 319.855912 
L 216.122356 310.097378 
L 220.397361 299.473086 
L 224.672367 288.0102 
L 228.947372 275.75702 
L 233.222377 262.784425 
L 237.497383 249.186736 
L 241.772388 235.081862 
L 246.047393 220.610664 
L 250.322398 205.93547 
L 254.597404 191.237699 
L 258.872409 176.714636 
L 263.147414 162.575382 
L 267.42242 149.036102 
L 271.697425 136.314692 
L 275.97243 124.625052 
L 280.247436 114.171165 
L 284.522441 105.141209 
L 288.797446 97.70194 
L 293.072452 91.993573 
L 297.347457 88.125394 
L 301.622462 86.172278 
L 305.897467 86.172278 
L 310.172473 88.125394 
L 314.447478 91.993573 
L 318.722483 97.70194 
L 322.997489 105.141209 
L 327.272494 114.171165 
L 331.547499 124.625052 
L 335.822505 136.314692 
L 340.09751 149.036102 
L 344.372515 162.575382 
L 348.64752 176.714636 
L 352.922526 191.237699 
L 357.197531 205.93547 
L 361.472536 220.610664 
L 365.747542 235.081862 
L 370.022547 249.186736 
L 374.297552 262.784425 
L 378.572558 275.75702 
L 382.847563 288.0102 
L 387.122568 299.473086 
L 391.397573 310.097378 
L 395.672579 319.855912 
L 399.947584 328.740737 
L 404.222589 336.760851 
L 408.497595 343.939721 
L 412.7726 350.312702 
L 417.047605 355.924466 
L 421.322611 360.826527 
L 425.597616 365.07495 
L 429.872621 368.728271 
L 434.147627 371.845703 
L 438.422632 374.485612 
L 442.697637 376.704291 
L 446.972642 378.555012 
L 451.247648 380.087349 
L 455.522653 381.346731 
L 459.797658 382.374207 
L 464.072664 383.206384 
L 468.347669 383.875512 
L 472.622674 384.409665 
L 476.89768 384.833019 
L 481.172685 385.166165 
L 485.44769 385.426465 
L 489.722695 385.62841 
L 493.997701 385.783978 
L 498.272706 385.902979 
L 502.547711 385.993371 
L 506.822717 386.061554 
L 511.097722 386.112626 
L 515.372727 386.150616 
" style="fill:none;stroke:#ff6384;stroke-linecap:square;"/>
   </g>
   <g id="line2d_2">
    <path clip-path="url(#p0ed7a6923c)" d="M 58.827273 386.139371 
L 62.67303 386.097141 
L 66.518787 386.040368 
L 70.364544 385.964575 
L 74.210301 385.864094 
L 78.056058 385.73181 
L 81.901815 385.558878 
L 85.747572 385.334393 
L 89.59333 385.04504 
L 93.439087 384.674709 
L 97.284844 384.204102 
L 101.130601 383.610328 
L 104.976358 382.866516 
L 108.822115 381.941454 
L 112.667872 380.799296 
L 116.513629 379.399346 
L 120.359386 377.695976 
L 124.205143 375.638684 
L 128.050901 373.172366 
L 131.896658 370.2378 
L 135.742415 366.772413 
L 139.588172 362.711322 
L 143.433929 357.988708 
L 147.279686 352.539497 
L 151.125443 346.301371 
L 154.9712 339.217063 
L 158.816957 331.236916 
L 162.662714 322.321628 
L 166.508471 312.445114 
L 170.354229 301.597371 
L 174.199986 289.787238 
L 178.045743 277.04491 
L 181.8915 263.424078 
L 185.737257 249.003534 
L 189.583014 233.888124 
L 193.428771 218.208919 
L 197.274528 202.122504 
L 201.120285 185.809323 
L 204.966042 169.471045 
L 208.8118 153.326975 
L 212.657557 137.609553 
L 216.503314 122.559072 
L 220.349071 108.417748 
L 224.194828 95.423357 
L 228.040585 83.802649 
L 231.886342 73.764805 
L 235.732099 65.495194 
L 239.577856 59.149682 
L 243.423613 54.849752 
L 247.269371 52.678636 
L 251.115128 52.678636 
L 254.960885 54.849752 
L 258.806642 59.149682 
L 262.652399 65.495194 
L 266.498156 73.764805 
L 270.343913 83.802649 
L 274.18967 95.423357 
L 278.035427 108.417748 
L 281.881184 122.559072 
L 285.726942 137.609553 
L 289.572699 153.326975 
L 293.418456 169.471045 
L 297.264213 185.809323 
L 301.10997 202.122504 
L 304.955727 218.208919 
L 308.801484 233.888124 
L 312.647241 249.003534 
L 316.492998 263.424078 
L 320.338755 277.04491 
L 324.184513 289.787238 
L 328.03027 301.597371 
L 331.876027 312.445114 
L 335.721784 322.321628 
L 339.567541 331.236916 
L 343.413298 339.217063 
L 347.259055 346.301371 
L 351.104812 352.539497 
L 354.950569 357.988708 
L 358.796326 362.711322 
L 362.642084 366.772413 
L 366.487841 370.2378 
L 370.333598 373.172366 
L 374.179355 375.638684 
L 378.025112 377.695976 
L 381.870869 379.399346 
L 385.716626 380.799296 
L 389.562383 381.941454 
L 393.40814 382.866516 
L 397.253897 383.610328 
L 401.099654 384.204102 
L 404.945412 384.674709 
L 408.791169 385.04504 
L 412.636926 385.334393 
L 416.482683 385.558878 
L 420.32844 385.73181 
L 424.174197 385.864094 
L 428.019954 385.964575 
L 431.865711 386.040368 
L 435.711468 386.097141 
L 439.557225 386.139371 
" style="fill:none;stroke:#36a2eb;stroke-linecap:square;"/>
   </g>
   <g id="patch_3">
    <path d="M 36 402.93 
L 538.2 402.93 
" style="fill:none;stroke:#000000;stroke-linecap:square;stroke-linejoin:miter;stroke-width:0.8;"/>
   </g>
   <g id="legend_1">
    <g id="patch_4">
     <path d="M 450.225313 88.29875 
L 528.4 88.29875 
Q 531.2 88.29875 531.2 85.49875 
L 531.2 45.8 
Q 531.2 43 528.4 43 
L 450.225313 43 
Q 447.425313 43 447.425313 45.8 
L 447.425313 85.49875 
Q 447.425313 88.29875 450.225313 88.29875 
z
" style="fill:#ffffff;opacity:0.8;stroke:#cccccc;stroke-linejoin:miter;"/>
    </g>
    <g id="patch_5">
     <path d="M 453.025313 59.237813 
L 481.025313 59.237813 
L 481.025313 49.437813 
L 453.025313 49.437813 
z
" style="fill:#ff6384;opacity:0.5;stroke:#ff6384;stroke-linejoin:miter;"/>
    </g>
    <g id="text_1">
     <!-- base -->
     <defs>
      <path d="M 48.6875 27.296875 
Q 48.6875 37.203125 44.609375 42.84375 
Q 40.53125 48.484375 33.40625 48.484375 
Q 26.265625 48.484375 22.1875 42.84375 
Q 18.109375 37.203125 18.109375 27.296875 
Q 18.109375 17.390625 22.1875 11.75 
Q 26.265625 6.109375 33.40625 6.109375 
Q 40.53125 6.109375 44.609375 11.75 
Q 48.6875 17.390625 48.6875 27.296875 
z
M 18.109375 46.390625 
Q 20.953125 51.265625 25.265625 53.625 
Q 29.59375 56 35.59375 56 
Q 45.5625 56 51.78125 48.09375 
Q 58.015625 40.1875 58.015625 27.296875 
Q 58.015625 14.40625 51.78125 6.484375 
Q 45.5625 -1.421875 35.59375 -1.421875 
Q 29.59375 -1.421875 25.265625 0.953125 
Q 20.953125 3.328125 18.109375 8.203125 
L 18.109375 0 
L 9.078125 0 
L 9.078125 75.984375 
L 18.109375 75.984375 
z
" id="DejaVuSans-98"/>
      <path d="M 34.28125 27.484375 
Q 23.390625 27.484375 19.1875 25 
Q 14.984375 22.515625 14.984375 16.5 
Q 14.984375 11.71875 18.140625 8.90625 
Q 21.296875 6.109375 26.703125 6.109375 
Q 34.1875 6.109375 38.703125 11.40625 
Q 43.21875 16.703125 43.21875 25.484375 
L 43.21875 27.484375 
z
M 52.203125 31.203125 
L 52.203125 0 
L 43.21875 0 
L 43.21875 8.296875 
Q 40.140625 3.328125 35.546875 0.953125 
Q 30.953125 -1.421875 24.3125 -1.421875 
Q 15.921875 -1.421875 10.953125 3.296875 
Q 6 8.015625 6 15.921875 
Q 6 25.140625 12.171875 29.828125 
Q 18.359375 34.515625 30.609375 34.515625 
L 43.21875 34.515625 
L 43.21875 35.40625 
Q 43.21875 41.609375 39.140625 45 
Q 35.0625 48.390625 27.6875 48.390625 
Q 23 48.390625 18.546875 47.265625 
Q 14.109375 46.140625 10.015625 43.890625 
L 10.015625 52.203125 
Q 14.9375 54.109375 19.578125 55.046875 
Q 24.21875 56 28.609375 56 
Q 40.484375 56 46.34375 49.84375 
Q 52.203125 43.703125 52.203125 31.203125 
z
" id="DejaVuSans-97"/>
      <path d="M 44.28125 53.078125 
L 44.28125 44.578125 
Q 40.484375 46.53125 36.375 47.5 
Q 32.28125 48.484375 27.875 48.484375 
Q 21.1875 48.484375 17.84375 46.4375 
Q 14.5 44.390625 14.5 40.28125 
Q 14.5 37.15625 16.890625 35.375 
Q 19.28125 33.59375 26.515625 31.984375 
L 29.59375 31.296875 
Q 39.15625 29.25 43.1875 25.515625 
Q 47.21875 21.78125 47.21875 15.09375 
Q 47.21875 7.46875 41.1875 3.015625 
Q 35.15625 -1.421875 24.609375 -1.421875 
Q 20.21875 -1.421875 15.453125 -0.5625 
Q 10.6875 0.296875 5.421875 2 
L 5.421875 11.28125 
Q 10.40625 8.6875 15.234375 7.390625 
Q 20.0625 6.109375 24.8125 6.109375 
Q 31.15625 6.109375 34.5625 8.28125 
Q 37.984375 10.453125 37.984375 14.40625 
Q 37.984375 18.0625 35.515625 20.015625 
Q 33.0625 21.96875 24.703125 23.78125 
L 21.578125 24.515625 
Q 13.234375 26.265625 9.515625 29.90625 
Q 5.8125 33.546875 5.8125 39.890625 
Q 5.8125 47.609375 11.28125 51.796875 
Q 16.75 56 26.8125 56 
Q 31.78125 56 36.171875 55.265625 
Q 40.578125 54.546875 44.28125 53.078125 
z
" id="DejaVuSans-115"/>
      <path d="M 56.203125 29.59375 
L 56.203125 25.203125 
L 14.890625 25.203125 
Q 15.484375 15.921875 20.484375 11.0625 
Q 25.484375 6.203125 34.421875 6.203125 
Q 39.59375 6.203125 44.453125 7.46875 
Q 49.3125 8.734375 54.109375 11.28125 
L 54.109375 2.78125 
Q 49.265625 0.734375 44.1875 -0.34375 
Q 39.109375 -1.421875 33.890625 -1.421875 
Q 20.796875 -1.421875 13.15625 6.1875 
Q 5.515625 13.8125 5.515625 26.8125 
Q 5.515625 40.234375 12.765625 48.109375 
Q 20.015625 56 32.328125 56 
Q 43.359375 56 49.78125 48.890625 
Q 56.203125 41.796875 56.203125 29.59375 
z
M 47.21875 32.234375 
Q 47.125 39.59375 43.09375 43.984375 
Q 39.0625 48.390625 32.421875 48.390625 
Q 24.90625 48.390625 20.390625 44.140625 
Q 15.875 39.890625 15.1875 32.171875 
z
" id="DejaVuSans-101"/>
     </defs>
     <g transform="translate(492.225313 59.237813)scale(0.14 -0.14)">
      <use xlink:href="#DejaVuSans-98"/>
      <use x="63.476562" xlink:href="#DejaVuSans-97"/>
      <use x="124.755859" xlink:href="#DejaVuSans-115"/>
      <use x="176.855469" xlink:href="#DejaVuSans-101"/>
     </g>
    </g>
    <g id="patch_6">
     <path d="M 453.025313 79.787188 
L 481.025313 79.787188 
L 481.025313 69.987188 
L 453.025313 69.987188 
z
" style="fill:#36a2eb;opacity:0.5;stroke:#36a2eb;stroke-linejoin:miter;"/>
    </g>
    <g id="text_2">
     <!-- new -->
     <defs>
      <path d="M 54.890625 33.015625 
L 54.890625 0 
L 45.90625 0 
L 45.90625 32.71875 
Q 45.90625 40.484375 42.875 44.328125 
Q 39.84375 48.1875 33.796875 48.1875 
Q 26.515625 48.1875 22.3125 43.546875 
Q 18.109375 38.921875 18.109375 30.90625 
L 18.109375 0 
L 9.078125 0 
L 9.078125 54.6875 
L 18.109375 54.6875 
L 18.109375 46.1875 
Q 21.34375 51.125 25.703125 53.5625 
Q 30.078125 56 35.796875 56 
Q 45.21875 56 50.046875 50.171875 
Q 54.890625 44.34375 54.890625 33.015625 
z
" id="DejaVuSans-110"/>
      <path d="M 4.203125 54.6875 
L 13.1875 54.6875 
L 24.421875 12.015625 
L 35.59375 54.6875 
L 46.1875 54.6875 
L 57.421875 12.015625 
L 68.609375 54.6875 
L 77.59375 54.6875 
L 63.28125 0 
L 52.6875 0 
L 40.921875 44.828125 
L 29.109375 0 
L 18.5 0 
z
" id="DejaVuSans-119"/>
     </defs>
     <g transform="translate(492.225313 79.787188)scale(0.14 -0.14)">
      <use xlink:href="#DejaVuSans-110"/>
      <use x="63.378906" xlink:href="#DejaVuSans-101"/>
      <use x="124.902344" xlink:href="#DejaVuSans-119"/>
     </g>
    </g>
   </g>
  </g>
  <g id="axes_2">
   <g id="patch_7">
    <path d="M 36 525.24 
L 538.2 525.24 
L 538.2 402.93 
L 36 402.93 
z
" style="fill:none;"/>
   </g>
   <g id="patch_8">
    <path clip-path="url(#pa6e1e6e5c8)" d="M 200.069711 519.680455 
L 407.450218 519.680455 
L 407.450218 482.616818 
L 200.069711 482.616818 
z
" style="fill:#ff6384;opacity:0.5;"/>
   </g>
   <g id="patch_9">
    <path clip-path="url(#pa6e1e6e5c8)" d="M 155.913411 445.553182 
L 342.471088 445.553182 
L 342.471088 408.489545 
L 155.913411 408.489545 
z
" style="fill:#36a2eb;opacity:0.5;"/>
   </g>
   <g id="matplotlib.axis_1">
    <g id="xtick_1">
     <g id="line2d_3">
      <defs>
       <path d="M 0 0 
L 0 3.5 
" id="m5070a53c8e" style="stroke:#000000;stroke-width:0.8;"/>
      </defs>
      <g>
       <use style="stroke:#000000;stroke-width:0.8;" x="94.684977" xlink:href="#m5070a53c8e" y="525.24"/>
      </g>
     </g>
     <g id="text_3">
      <!-- 7.75 -->
      <defs>
       <path d="M 8.203125 72.90625 
L 55.078125 72.90625 
L 55.078125 68.703125 
L 28.609375 0 
L 18.3125 0 
L 43.21875 64.59375 
L 8.203125 64.59375 
z
" id="DejaVuSans-55"/>
       <path d="M 10.6875 12.40625 
L 21 12.40625 
L 21 0 
L 10.6875 0 
z
" id="DejaVuSans-46"/>
       <path d="M 10.796875 72.90625 
L 49.515625 72.90625 
L 49.515625 64.59375 
L 19.828125 64.59375 
L 19.828125 46.734375 
Q 21.96875 47.46875 24.109375 47.828125 
Q 26.265625 48.1875 28.421875 48.1875 
Q 40.625 48.1875 47.75 41.5 
Q 54.890625 34.8125 54.890625 23.390625 
Q 54.890625 11.625 47.5625 5.09375 
Q 40.234375 -1.421875 26.90625 -1.421875 
Q 22.3125 -1.421875 17.546875 -0.640625 
Q 12.796875 0.140625 7.71875 1.703125 
L 7.71875 11.625 
Q 12.109375 9.234375 16.796875 8.0625 
Q 21.484375 6.890625 26.703125 6.890625 
Q 35.15625 6.890625 40.078125 11.328125 
Q 45.015625 15.765625 45.015625 23.390625 
Q 45.015625 31 40.078125 35.4375 
Q 35.15625 39.890625 26.703125 39.890625 
Q 22.75 39.890625 18.8125 39.015625 
Q 14.890625 38.140625 10.796875 36.28125 
z
" id="DejaVuSans-53"/>
      </defs>
      <g transform="translate(79.09904 542.877813)scale(0.14 -0.14)">
       <use xlink:href="#DejaVuSans-55"/>
       <use x="63.623047" xlink:href="#DejaVuSans-46"/>
       <use x="95.410156" xlink:href="#DejaVuSans-55"/>
       <use x="159.033203" xlink:href="#DejaVuSans-53"/>
      </g>
     </g>
    </g>
    <g id="xtick_2">
     <g id="line2d_4">
      <g>
       <use style="stroke:#000000;stroke-width:0.8;" x="163.723079" xlink:href="#m5070a53c8e" y="525.24"/>
      </g>
     </g>
     <g id="text_4">
      <!-- 8.00 -->
      <defs>
       <path d="M 31.78125 34.625 
Q 24.75 34.625 20.71875 30.859375 
Q 16.703125 27.09375 16.703125 20.515625 
Q 16.703125 13.921875 20.71875 10.15625 
Q 24.75 6.390625 31.78125 6.390625 
Q 38.8125 6.390625 42.859375 10.171875 
Q 46.921875 13.96875 46.921875 20.515625 
Q 46.921875 27.09375 42.890625 30.859375 
Q 38.875 34.625 31.78125 34.625 
z
M 21.921875 38.8125 
Q 15.578125 40.375 12.03125 44.71875 
Q 8.5 49.078125 8.5 55.328125 
Q 8.5 64.0625 14.71875 69.140625 
Q 20.953125 74.21875 31.78125 74.21875 
Q 42.671875 74.21875 48.875 69.140625 
Q 55.078125 64.0625 55.078125 55.328125 
Q 55.078125 49.078125 51.53125 44.71875 
Q 48 40.375 41.703125 38.8125 
Q 48.828125 37.15625 52.796875 32.3125 
Q 56.78125 27.484375 56.78125 20.515625 
Q 56.78125 9.90625 50.3125 4.234375 
Q 43.84375 -1.421875 31.78125 -1.421875 
Q 19.734375 -1.421875 13.25 4.234375 
Q 6.78125 9.90625 6.78125 20.515625 
Q 6.78125 27.484375 10.78125 32.3125 
Q 14.796875 37.15625 21.921875 38.8125 
z
M 18.3125 54.390625 
Q 18.3125 48.734375 21.84375 45.5625 
Q 25.390625 42.390625 31.78125 42.390625 
Q 38.140625 42.390625 41.71875 45.5625 
Q 45.3125 48.734375 45.3125 54.390625 
Q 45.3125 60.0625 41.71875 63.234375 
Q 38.140625 66.40625 31.78125 66.40625 
Q 25.390625 66.40625 21.84375 63.234375 
Q 18.3125 60.0625 18.3125 54.390625 
z
" id="DejaVuSans-56"/>
       <path d="M 31.78125 66.40625 
Q 24.171875 66.40625 20.328125 58.90625 
Q 16.5 51.421875 16.5 36.375 
Q 16.5 21.390625 20.328125 13.890625 
Q 24.171875 6.390625 31.78125 6.390625 
Q 39.453125 6.390625 43.28125 13.890625 
Q 47.125 21.390625 47.125 36.375 
Q 47.125 51.421875 43.28125 58.90625 
Q 39.453125 66.40625 31.78125 66.40625 
z
M 31.78125 74.21875 
Q 44.046875 74.21875 50.515625 64.515625 
Q 56.984375 54.828125 56.984375 36.375 
Q 56.984375 17.96875 50.515625 8.265625 
Q 44.046875 -1.421875 31.78125 -1.421875 
Q 19.53125 -1.421875 13.0625 8.265625 
Q 6.59375 17.96875 6.59375 36.375 
Q 6.59375 54.828125 13.0625 64.515625 
Q 19.53125 74.21875 31.78125 74.21875 
z
" id="DejaVuSans-48"/>
      </defs>
      <g transform="translate(148.137142 542.877813)scale(0.14 -0.14)">
       <use xlink:href="#DejaVuSans-56"/>
       <use x="63.623047" xlink:href="#DejaVuSans-46"/>
       <use x="95.410156" xlink:href="#DejaVuSans-48"/>
       <use x="159.033203" xlink:href="#DejaVuSans-48"/>
      </g>
     </g>
    </g>
    <g id="xtick_3">
     <g id="line2d_5">
      <g>
       <use style="stroke:#000000;stroke-width:0.8;" x="232.761181" xlink:href="#m5070a53c8e" y="525.24"/>
      </g>
     </g>
     <g id="text_5">
      <!-- 8.25 -->
      <defs>
       <path d="M 19.1875 8.296875 
L 53.609375 8.296875 
L 53.609375 0 
L 7.328125 0 
L 7.328125 8.296875 
Q 12.9375 14.109375 22.625 23.890625 
Q 32.328125 33.6875 34.8125 36.53125 
Q 39.546875 41.84375 41.421875 45.53125 
Q 43.3125 49.21875 43.3125 52.78125 
Q 43.3125 58.59375 39.234375 62.25 
Q 35.15625 65.921875 28.609375 65.921875 
Q 23.96875 65.921875 18.8125 64.3125 
Q 13.671875 62.703125 7.8125 59.421875 
L 7.8125 69.390625 
Q 13.765625 71.78125 18.9375 73 
Q 24.125 74.21875 28.421875 74.21875 
Q 39.75 74.21875 46.484375 68.546875 
Q 53.21875 62.890625 53.21875 53.421875 
Q 53.21875 48.921875 51.53125 44.890625 
Q 49.859375 40.875 45.40625 35.40625 
Q 44.1875 33.984375 37.640625 27.21875 
Q 31.109375 20.453125 19.1875 8.296875 
z
" id="DejaVuSans-50"/>
      </defs>
      <g transform="translate(217.175243 542.877813)scale(0.14 -0.14)">
       <use xlink:href="#DejaVuSans-56"/>
       <use x="63.623047" xlink:href="#DejaVuSans-46"/>
       <use x="95.410156" xlink:href="#DejaVuSans-50"/>
       <use x="159.033203" xlink:href="#DejaVuSans-53"/>
      </g>
     </g>
    </g>
    <g id="xtick_4">
     <g id="line2d_6">
      <g>
       <use style="stroke:#000000;stroke-width:0.8;" x="301.799283" xlink:href="#m5070a53c8e" y="525.24"/>
      </g>
     </g>
     <g id="text_6">
      <!-- 8.50 -->
      <g transform="translate(286.213345 542.877813)scale(0.14 -0.14)">
       <use xlink:href="#DejaVuSans-56"/>
       <use x="63.623047" xlink:href="#DejaVuSans-46"/>
       <use x="95.410156" xlink:href="#DejaVuSans-53"/>
       <use x="159.033203" xlink:href="#DejaVuSans-48"/>
      </g>
     </g>
    </g>
    <g id="xtick_5">
     <g id="line2d_7">
      <g>
       <use style="stroke:#000000;stroke-width:0.8;" x="370.837384" xlink:href="#m5070a53c8e" y="525.24"/>
      </g>
     </g>
     <g id="text_7">
      <!-- 8.75 -->
      <g transform="translate(355.251447 542.877813)scale(0.14 -0.14)">
       <use xlink:href="#DejaVuSans-56"/>
       <use x="63.623047" xlink:href="#DejaVuSans-46"/>
       <use x="95.410156" xlink:href="#DejaVuSans-55"/>
       <use x="159.033203" xlink:href="#DejaVuSans-53"/>
      </g>
     </g>
    </g>
    <g id="xtick_6">
     <g id="line2d_8">
      <g>
       <use style="stroke:#000000;stroke-width:0.8;" x="439.875486" xlink:href="#m5070a53c8e" y="525.24"/>
      </g>
     </g>
     <g id="text_8">
      <!-- 9.00 -->
      <defs>
       <path d="M 10.984375 1.515625 
L 10.984375 10.5 
Q 14.703125 8.734375 18.5 7.8125 
Q 22.3125 6.890625 25.984375 6.890625 
Q 35.75 6.890625 40.890625 13.453125 
Q 46.046875 20.015625 46.78125 33.40625 
Q 43.953125 29.203125 39.59375 26.953125 
Q 35.25 24.703125 29.984375 24.703125 
Q 19.046875 24.703125 12.671875 31.3125 
Q 6.296875 37.9375 6.296875 49.421875 
Q 6.296875 60.640625 12.9375 67.421875 
Q 19.578125 74.21875 30.609375 74.21875 
Q 43.265625 74.21875 49.921875 64.515625 
Q 56.59375 54.828125 56.59375 36.375 
Q 56.59375 19.140625 48.40625 8.859375 
Q 40.234375 -1.421875 26.421875 -1.421875 
Q 22.703125 -1.421875 18.890625 -0.6875 
Q 15.09375 0.046875 10.984375 1.515625 
z
M 30.609375 32.421875 
Q 37.25 32.421875 41.125 36.953125 
Q 45.015625 41.5 45.015625 49.421875 
Q 45.015625 57.28125 41.125 61.84375 
Q 37.25 66.40625 30.609375 66.40625 
Q 23.96875 66.40625 20.09375 61.84375 
Q 16.21875 57.28125 16.21875 49.421875 
Q 16.21875 41.5 20.09375 36.953125 
Q 23.96875 32.421875 30.609375 32.421875 
z
" id="DejaVuSans-57"/>
      </defs>
      <g transform="translate(424.289549 542.877813)scale(0.14 -0.14)">
       <use xlink:href="#DejaVuSans-57"/>
       <use x="63.623047" xlink:href="#DejaVuSans-46"/>
       <use x="95.410156" xlink:href="#DejaVuSans-48"/>
       <use x="159.033203" xlink:href="#DejaVuSans-48"/>
      </g>
     </g>
    </g>
    <g id="xtick_7">
     <g id="line2d_9">
      <g>
       <use style="stroke:#000000;stroke-width:0.8;" x="508.913588" xlink:href="#m5070a53c8e" y="525.24"/>
      </g>
     </g>
     <g id="text_9">
      <!-- 9.25 -->
      <g transform="translate(493.327651 542.877813)scale(0.14 -0.14)">
       <use xlink:href="#DejaVuSans-57"/>
       <use x="63.623047" xlink:href="#DejaVuSans-46"/>
       <use x="95.410156" xlink:href="#DejaVuSans-50"/>
       <use x="159.033203" xlink:href="#DejaVuSans-53"/>
      </g>
     </g>
    </g>
   </g>
   <g id="line2d_10">
    <path clip-path="url(#pa6e1e6e5c8)" d="M 303.759965 525.24 
L 303.759965 402.93 
" style="fill:none;stroke:#ff6384;stroke-dasharray:5.55,2.4;stroke-dashoffset:0;stroke-opacity:0.8;stroke-width:1.5;"/>
   </g>
   <g id="line2d_11">
    <path clip-path="url(#pa6e1e6e5c8)" d="M 249.192249 525.24 
L 249.192249 402.93 
" style="fill:none;stroke:#36a2eb;stroke-dasharray:5.55,2.4;stroke-dashoffset:0;stroke-opacity:0.8;stroke-width:1.5;"/>
   </g>
   <g id="patch_10">
    <path d="M 36 525.24 
L 538.2 525.24 
" style="fill:none;stroke:#000000;stroke-linecap:square;stroke-linejoin:miter;stroke-width:0.8;"/>
   </g>
  </g>
 </g>
 <defs>
  <clipPath id="p0ed7a6923c">
   <rect height="366.93" width="502.2" x="36" y="36"/>
  </clipPath>
  <clipPath id="pa6e1e6e5c8">
   <rect height="122.31" width="502.2" x="36" y="402.93"/>
  </clipPath>
 </defs>
</svg>
