<?xml version="1.0" encoding="utf-8" standalone="no"?>
<!DOCTYPE svg PUBLIC "-//W3C//DTD SVG 1.1//EN"
  "http://www.w3.org/Graphics/SVG/1.1/DTD/svg11.dtd">
<!-- Created with matplotlib (https://matplotlib.org/) -->
<svg height="581.789375pt" version="1.1" viewBox="0 0 574.2 581.789375" width="574.2pt" xmlns="http://www.w3.org/2000/svg" xmlns:xlink="http://www.w3.org/1999/xlink">
 <defs>
  <style type="text/css">
*{stroke-linecap:butt;stroke-linejoin:round;}
  </style>
 </defs>
 <g id="figure_1">
  <g id="patch_1">
   <path d="M 0 581.789375 
L 574.2 581.789375 
L 574.2 0 
L 0 0 
z
" style="fill:none;"/>
  </g>
  <g id="axes_1">
   <g id="patch_2">
    <path d="M 36 402.93 
L 538.2 402.93 
L 538.2 36 
L 36 36 
z
" style="fill:none;"/>
   </g>
   <g id="PolyCollection_1">
    <defs>
     <path d="M 84.128822 -195.538011 
L 84.128822 -195.649685 
L 88.484821 -195.691796 
L 92.84082 -195.748407 
L 97.196819 -195.823984 
L 101.552818 -195.92418 
L 105.908817 -196.056087 
L 110.264816 -196.228527 
L 114.620815 -196.452373 
L 118.976814 -196.740903 
L 123.332813 -197.11018 
L 127.688812 -197.579448 
L 132.044811 -198.171532 
L 136.40081 -198.913229 
L 140.756809 -199.835658 
L 145.112808 -200.974567 
L 149.468807 -202.370533 
L 153.824806 -204.069057 
L 158.180806 -206.120496 
L 162.536805 -208.579797 
L 166.892804 -211.506013 
L 171.248803 -214.96154 
L 175.604802 -219.011077 
L 179.960801 -223.720254 
L 184.3168 -229.15396 
L 188.672799 -235.374338 
L 193.028798 -242.43849 
L 197.384797 -250.395932 
L 201.740796 -259.285853 
L 206.096795 -269.134266 
L 210.452794 -279.951145 
L 214.808793 -291.727677 
L 219.164792 -304.43375 
L 223.520791 -318.015828 
L 227.87679 -332.395342 
L 232.232789 -347.467746 
L 236.588788 -363.10234 
L 240.944787 -379.142986 
L 245.300786 -395.409753 
L 249.656785 -411.701544 
L 254.012785 -427.799681 
L 258.368784 -443.472384 
L 262.724783 -458.480043 
L 267.080782 -472.581132 
L 271.436781 -485.538552 
L 275.79278 -497.126196 
L 280.148779 -507.13548 
L 284.504778 -515.381563 
L 288.860777 -521.709021 
L 293.216776 -525.996716 
L 297.572775 -528.161654 
L 301.928774 -528.161654 
L 306.284773 -525.996716 
L 310.640772 -521.709021 
L 314.996771 -515.381563 
L 319.35277 -507.13548 
L 323.708769 -497.126196 
L 328.064768 -485.538552 
L 332.420767 -472.581132 
L 336.776766 -458.480043 
L 341.132765 -443.472384 
L 345.488764 -427.799681 
L 349.844764 -411.701544 
L 354.200763 -395.409753 
L 358.556762 -379.142986 
L 362.912761 -363.10234 
L 367.26876 -347.467746 
L 371.624759 -332.395342 
L 375.980758 -318.015828 
L 380.336757 -304.43375 
L 384.692756 -291.727677 
L 389.048755 -279.951145 
L 393.404754 -269.134266 
L 397.760753 -259.285853 
L 402.116752 -250.395932 
L 406.472751 -242.43849 
L 410.82875 -235.374338 
L 415.184749 -229.15396 
L 419.540748 -223.720254 
L 423.896747 -219.011077 
L 428.252746 -214.96154 
L 432.608745 -211.506013 
L 436.964744 -208.579797 
L 441.320743 -206.120496 
L 445.676743 -204.069057 
L 450.032742 -202.370533 
L 454.388741 -200.974567 
L 458.74474 -199.835658 
L 463.100739 -198.913229 
L 467.456738 -198.171532 
L 471.812737 -197.579448 
L 476.168736 -197.11018 
L 480.524735 -196.740903 
L 484.880734 -196.452373 
L 489.236733 -196.228527 
L 493.592732 -196.056087 
L 497.948731 -195.92418 
L 502.30473 -195.823984 
L 506.660729 -195.748407 
L 511.016728 -195.691796 
L 515.372727 -195.649685 
L 515.372727 -195.538011 
L 515.372727 -195.538011 
L 511.016728 -195.538011 
L 506.660729 -195.538011 
L 502.30473 -195.538011 
L 497.948731 -195.538011 
L 493.592732 -195.538011 
L 489.236733 -195.538011 
L 484.880734 -195.538011 
L 480.524735 -195.538011 
L 476.168736 -195.538011 
L 471.812737 -195.538011 
L 467.456738 -195.538011 
L 463.100739 -195.538011 
L 458.74474 -195.538011 
L 454.388741 -195.538011 
L 450.032742 -195.538011 
L 445.676743 -195.538011 
L 441.320743 -195.538011 
L 436.964744 -195.538011 
L 432.608745 -195.538011 
L 428.252746 -195.538011 
L 423.896747 -195.538011 
L 419.540748 -195.538011 
L 415.184749 -195.538011 
L 410.82875 -195.538011 
L 406.472751 -195.538011 
L 402.116752 -195.538011 
L 397.760753 -195.538011 
L 393.404754 -195.538011 
L 389.048755 -195.538011 
L 384.692756 -195.538011 
L 380.336757 -195.538011 
L 375.980758 -195.538011 
L 371.624759 -195.538011 
L 367.26876 -195.538011 
L 362.912761 -195.538011 
L 358.556762 -195.538011 
L 354.200763 -195.538011 
L 349.844764 -195.538011 
L 345.488764 -195.538011 
L 341.132765 -195.538011 
L 336.776766 -195.538011 
L 332.420767 -195.538011 
L 328.064768 -195.538011 
L 323.708769 -195.538011 
L 319.35277 -195.538011 
L 314.996771 -195.538011 
L 310.640772 -195.538011 
L 306.284773 -195.538011 
L 301.928774 -195.538011 
L 297.572775 -195.538011 
L 293.216776 -195.538011 
L 288.860777 -195.538011 
L 284.504778 -195.538011 
L 280.148779 -195.538011 
L 275.79278 -195.538011 
L 271.436781 -195.538011 
L 267.080782 -195.538011 
L 262.724783 -195.538011 
L 258.368784 -195.538011 
L 254.012785 -195.538011 
L 249.656785 -195.538011 
L 245.300786 -195.538011 
L 240.944787 -195.538011 
L 236.588788 -195.538011 
L 232.232789 -195.538011 
L 227.87679 -195.538011 
L 223.520791 -195.538011 
L 219.164792 -195.538011 
L 214.808793 -195.538011 
L 210.452794 -195.538011 
L 206.096795 -195.538011 
L 201.740796 -195.538011 
L 197.384797 -195.538011 
L 193.028798 -195.538011 
L 188.672799 -195.538011 
L 184.3168 -195.538011 
L 179.960801 -195.538011 
L 175.604802 -195.538011 
L 171.248803 -195.538011 
L 166.892804 -195.538011 
L 162.536805 -195.538011 
L 158.180806 -195.538011 
L 153.824806 -195.538011 
L 149.468807 -195.538011 
L 145.112808 -195.538011 
L 140.756809 -195.538011 
L 136.40081 -195.538011 
L 132.044811 -195.538011 
L 127.688812 -195.538011 
L 123.332813 -195.538011 
L 118.976814 -195.538011 
L 114.620815 -195.538011 
L 110.264816 -195.538011 
L 105.908817 -195.538011 
L 101.552818 -195.538011 
L 97.196819 -195.538011 
L 92.84082 -195.538011 
L 88.484821 -195.538011 
L 84.128822 -195.538011 
z
" id="ma49fe7ecbd" style="stroke:#ff6384;stroke-opacity:0.5;"/>
    </defs>
    <g clip-path="url(#p7763212a58)">
     <use style="fill:#ff6384;fill-opacity:0.5;stroke:#ff6384;stroke-opacity:0.5;" x="0" xlink:href="#ma49fe7ecbd" y="581.789375"/>
    </g>
   </g>
   <g id="PolyCollection_2">
    <defs>
     <path d="M 58.827273 -195.538011 
L 58.827273 -195.650004 
L 63.170878 -195.692234 
L 67.514483 -195.749007 
L 71.858089 -195.8248 
L 76.201694 -195.925281 
L 80.545299 -196.057565 
L 84.888905 -196.230497 
L 89.23251 -196.454982 
L 93.576115 -196.744335 
L 97.919721 -197.114666 
L 102.263326 -197.585273 
L 106.606931 -198.179047 
L 110.950537 -198.922859 
L 115.294142 -199.847921 
L 119.637747 -200.990079 
L 123.981352 -202.390029 
L 128.324958 -204.093399 
L 132.668563 -206.150691 
L 137.012168 -208.617009 
L 141.355774 -211.551575 
L 145.699379 -215.016962 
L 150.042984 -219.078053 
L 154.38659 -223.800667 
L 158.730195 -229.249878 
L 163.0738 -235.488004 
L 167.417406 -242.572312 
L 171.761011 -250.552459 
L 176.104616 -259.467747 
L 180.448222 -269.344261 
L 184.791827 -280.192004 
L 189.135432 -292.002137 
L 193.479038 -304.744465 
L 197.822643 -318.365297 
L 202.166248 -332.785841 
L 206.509854 -347.901251 
L 210.853459 -363.580456 
L 215.197064 -379.666871 
L 219.540669 -395.980052 
L 223.884275 -412.31833 
L 228.22788 -428.4624 
L 232.571485 -444.179822 
L 236.915091 -459.230303 
L 241.258696 -473.371627 
L 245.602301 -486.366018 
L 249.945907 -497.986726 
L 254.289512 -508.02457 
L 258.633117 -516.294181 
L 262.976723 -522.639693 
L 267.320328 -526.939623 
L 271.663933 -529.110739 
L 276.007539 -529.110739 
L 280.351144 -526.939623 
L 284.694749 -522.639693 
L 289.038355 -516.294181 
L 293.38196 -508.02457 
L 297.725565 -497.986726 
L 302.069171 -486.366018 
L 306.412776 -473.371627 
L 310.756381 -459.230303 
L 315.099986 -444.179822 
L 319.443592 -428.4624 
L 323.787197 -412.31833 
L 328.130802 -395.980052 
L 332.474408 -379.666871 
L 336.818013 -363.580456 
L 341.161618 -347.901251 
L 345.505224 -332.785841 
L 349.848829 -318.365297 
L 354.192434 -304.744465 
L 358.53604 -292.002137 
L 362.879645 -280.192004 
L 367.22325 -269.344261 
L 371.566856 -259.467747 
L 375.910461 -250.552459 
L 380.254066 -242.572312 
L 384.597672 -235.488004 
L 388.941277 -229.249878 
L 393.284882 -223.800667 
L 397.628488 -219.078053 
L 401.972093 -215.016962 
L 406.315698 -211.551575 
L 410.659303 -208.617009 
L 415.002909 -206.150691 
L 419.346514 -204.093399 
L 423.690119 -202.390029 
L 428.033725 -200.990079 
L 432.37733 -199.847921 
L 436.720935 -198.922859 
L 441.064541 -198.179047 
L 445.408146 -197.585273 
L 449.751751 -197.114666 
L 454.095357 -196.744335 
L 458.438962 -196.454982 
L 462.782567 -196.230497 
L 467.126173 -196.057565 
L 471.469778 -195.925281 
L 475.813383 -195.8248 
L 480.156989 -195.749007 
L 484.500594 -195.692234 
L 488.844199 -195.650004 
L 488.844199 -195.538011 
L 488.844199 -195.538011 
L 484.500594 -195.538011 
L 480.156989 -195.538011 
L 475.813383 -195.538011 
L 471.469778 -195.538011 
L 467.126173 -195.538011 
L 462.782567 -195.538011 
L 458.438962 -195.538011 
L 454.095357 -195.538011 
L 449.751751 -195.538011 
L 445.408146 -195.538011 
L 441.064541 -195.538011 
L 436.720935 -195.538011 
L 432.37733 -195.538011 
L 428.033725 -195.538011 
L 423.690119 -195.538011 
L 419.346514 -195.538011 
L 415.002909 -195.538011 
L 410.659303 -195.538011 
L 406.315698 -195.538011 
L 401.972093 -195.538011 
L 397.628488 -195.538011 
L 393.284882 -195.538011 
L 388.941277 -195.538011 
L 384.597672 -195.538011 
L 380.254066 -195.538011 
L 375.910461 -195.538011 
L 371.566856 -195.538011 
L 367.22325 -195.538011 
L 362.879645 -195.538011 
L 358.53604 -195.538011 
L 354.192434 -195.538011 
L 349.848829 -195.538011 
L 345.505224 -195.538011 
L 341.161618 -195.538011 
L 336.818013 -195.538011 
L 332.474408 -195.538011 
L 328.130802 -195.538011 
L 323.787197 -195.538011 
L 319.443592 -195.538011 
L 315.099986 -195.538011 
L 310.756381 -195.538011 
L 306.412776 -195.538011 
L 302.069171 -195.538011 
L 297.725565 -195.538011 
L 293.38196 -195.538011 
L 289.038355 -195.538011 
L 284.694749 -195.538011 
L 280.351144 -195.538011 
L 276.007539 -195.538011 
L 271.663933 -195.538011 
L 267.320328 -195.538011 
L 262.976723 -195.538011 
L 258.633117 -195.538011 
L 254.289512 -195.538011 
L 249.945907 -195.538011 
L 245.602301 -195.538011 
L 241.258696 -195.538011 
L 236.915091 -195.538011 
L 232.571485 -195.538011 
L 228.22788 -195.538011 
L 223.884275 -195.538011 
L 219.540669 -195.538011 
L 215.197064 -195.538011 
L 210.853459 -195.538011 
L 206.509854 -195.538011 
L 202.166248 -195.538011 
L 197.822643 -195.538011 
L 193.479038 -195.538011 
L 189.135432 -195.538011 
L 184.791827 -195.538011 
L 180.448222 -195.538011 
L 176.104616 -195.538011 
L 171.761011 -195.538011 
L 167.417406 -195.538011 
L 163.0738 -195.538011 
L 158.730195 -195.538011 
L 154.38659 -195.538011 
L 150.042984 -195.538011 
L 145.699379 -195.538011 
L 141.355774 -195.538011 
L 137.012168 -195.538011 
L 132.668563 -195.538011 
L 128.324958 -195.538011 
L 123.981352 -195.538011 
L 119.637747 -195.538011 
L 115.294142 -195.538011 
L 110.950537 -195.538011 
L 106.606931 -195.538011 
L 102.263326 -195.538011 
L 97.919721 -195.538011 
L 93.576115 -195.538011 
L 89.23251 -195.538011 
L 84.888905 -195.538011 
L 80.545299 -195.538011 
L 76.201694 -195.538011 
L 71.858089 -195.538011 
L 67.514483 -195.538011 
L 63.170878 -195.538011 
L 58.827273 -195.538011 
z
" id="m5a3ae9a360" style="stroke:#36a2eb;stroke-opacity:0.5;"/>
    </defs>
    <g clip-path="url(#p7763212a58)">
     <use style="fill:#36a2eb;fill-opacity:0.5;stroke:#36a2eb;stroke-opacity:0.5;" x="0" xlink:href="#m5a3ae9a360" y="581.789375"/>
    </g>
   </g>
   <g id="line2d_1">
    <path clip-path="url(#p7763212a58)" d="M 84.128822 386.13969 
L 88.484821 386.097579 
L 92.84082 386.040968 
L 97.196819 385.965391 
L 101.552818 385.865195 
L 105.908817 385.733288 
L 110.264816 385.560848 
L 114.620815 385.337002 
L 118.976814 385.048472 
L 123.332813 384.679195 
L 127.688812 384.209927 
L 132.044811 383.617843 
L 136.40081 382.876146 
L 140.756809 381.953717 
L 145.112808 380.814808 
L 149.468807 379.418842 
L 153.824806 377.720318 
L 158.180806 375.668879 
L 162.536805 373.209578 
L 166.892804 370.283362 
L 171.248803 366.827835 
L 175.604802 362.778298 
L 179.960801 358.069121 
L 184.3168 352.635415 
L 188.672799 346.415037 
L 193.028798 339.350885 
L 197.384797 331.393443 
L 201.740796 322.503522 
L 206.096795 312.655109 
L 210.452794 301.83823 
L 214.808793 290.061698 
L 219.164792 277.355625 
L 223.520791 263.773547 
L 227.87679 249.394033 
L 232.232789 234.321629 
L 236.588788 218.687035 
L 240.944787 202.646389 
L 245.300786 186.379622 
L 249.656785 170.087831 
L 254.012785 153.989694 
L 258.368784 138.316991 
L 262.724783 123.309332 
L 267.080782 109.208243 
L 271.436781 96.250823 
L 275.79278 84.663179 
L 280.148779 74.653895 
L 284.504778 66.407812 
L 288.860777 60.080354 
L 293.216776 55.792659 
L 297.572775 53.627721 
L 301.928774 53.627721 
L 306.284773 55.792659 
L 310.640772 60.080354 
L 314.996771 66.407812 
L 319.35277 74.653895 
L 323.708769 84.663179 
L 328.064768 96.250823 
L 332.420767 109.208243 
L 336.776766 123.309332 
L 341.132765 138.316991 
L 345.488764 153.989694 
L 349.844764 170.087831 
L 354.200763 186.379622 
L 358.556762 202.646389 
L 362.912761 218.687035 
L 367.26876 234.321629 
L 371.624759 249.394033 
L 375.980758 263.773547 
L 380.336757 277.355625 
L 384.692756 290.061698 
L 389.048755 301.83823 
L 393.404754 312.655109 
L 397.760753 322.503522 
L 402.116752 331.393443 
L 406.472751 339.350885 
L 410.82875 346.415037 
L 415.184749 352.635415 
L 419.540748 358.069121 
L 423.896747 362.778298 
L 428.252746 366.827835 
L 432.608745 370.283362 
L 436.964744 373.209578 
L 441.320743 375.668879 
L 445.676743 377.720318 
L 450.032742 379.418842 
L 454.388741 380.814808 
L 458.74474 381.953717 
L 463.100739 382.876146 
L 467.456738 383.617843 
L 471.812737 384.209927 
L 476.168736 384.679195 
L 480.524735 385.048472 
L 484.880734 385.337002 
L 489.236733 385.560848 
L 493.592732 385.733288 
L 497.948731 385.865195 
L 502.30473 385.965391 
L 506.660729 386.040968 
L 511.016728 386.097579 
L 515.372727 386.13969 
" style="fill:none;stroke:#ff6384;stroke-linecap:square;"/>
   </g>
   <g id="line2d_2">
    <path clip-path="url(#p7763212a58)" d="M 58.827273 386.139371 
L 63.170878 386.097141 
L 67.514483 386.040368 
L 71.858089 385.964575 
L 76.201694 385.864094 
L 80.545299 385.73181 
L 84.888905 385.558878 
L 89.23251 385.334393 
L 93.576115 385.04504 
L 97.919721 384.674709 
L 102.263326 384.204102 
L 106.606931 383.610328 
L 110.950537 382.866516 
L 115.294142 381.941454 
L 119.637747 380.799296 
L 123.981352 379.399346 
L 128.324958 377.695976 
L 132.668563 375.638684 
L 137.012168 373.172366 
L 141.355774 370.2378 
L 145.699379 366.772413 
L 150.042984 362.711322 
L 154.38659 357.988708 
L 158.730195 352.539497 
L 163.0738 346.301371 
L 167.417406 339.217063 
L 171.761011 331.236916 
L 176.104616 322.321628 
L 180.448222 312.445114 
L 184.791827 301.597371 
L 189.135432 289.787238 
L 193.479038 277.04491 
L 197.822643 263.424078 
L 202.166248 249.003534 
L 206.509854 233.888124 
L 210.853459 218.208919 
L 215.197064 202.122504 
L 219.540669 185.809323 
L 223.884275 169.471045 
L 228.22788 153.326975 
L 232.571485 137.609553 
L 236.915091 122.559072 
L 241.258696 108.417748 
L 245.602301 95.423357 
L 249.945907 83.802649 
L 254.289512 73.764805 
L 258.633117 65.495194 
L 262.976723 59.149682 
L 267.320328 54.849752 
L 271.663933 52.678636 
L 276.007539 52.678636 
L 280.351144 54.849752 
L 284.694749 59.149682 
L 289.038355 65.495194 
L 293.38196 73.764805 
L 297.725565 83.802649 
L 302.069171 95.423357 
L 306.412776 108.417748 
L 310.756381 122.559072 
L 315.099986 137.609553 
L 319.443592 153.326975 
L 323.787197 169.471045 
L 328.130802 185.809323 
L 332.474408 202.122504 
L 336.818013 218.208919 
L 341.161618 233.888124 
L 345.505224 249.003534 
L 349.848829 263.424078 
L 354.192434 277.04491 
L 358.53604 289.787238 
L 362.879645 301.597371 
L 367.22325 312.445114 
L 371.566856 322.321628 
L 375.910461 331.236916 
L 380.254066 339.217063 
L 384.597672 346.301371 
L 388.941277 352.539497 
L 393.284882 357.988708 
L 397.628488 362.711322 
L 401.972093 366.772413 
L 406.315698 370.2378 
L 410.659303 373.172366 
L 415.002909 375.638684 
L 419.346514 377.695976 
L 423.690119 379.399346 
L 428.033725 380.799296 
L 432.37733 381.941454 
L 436.720935 382.866516 
L 441.064541 383.610328 
L 445.408146 384.204102 
L 449.751751 384.674709 
L 454.095357 385.04504 
L 458.438962 385.334393 
L 462.782567 385.558878 
L 467.126173 385.73181 
L 471.469778 385.864094 
L 475.813383 385.964575 
L 480.156989 386.040368 
L 484.500594 386.097141 
L 488.844199 386.139371 
" style="fill:none;stroke:#36a2eb;stroke-linecap:square;"/>
   </g>
   <g id="patch_3">
    <path d="M 36 402.93 
L 538.2 402.93 
" style="fill:none;stroke:#000000;stroke-linecap:square;stroke-linejoin:miter;stroke-width:0.8;"/>
   </g>
   <g id="legend_1">
    <g id="patch_4">
     <path d="M 450.225313 88.29875 
L 528.4 88.29875 
Q 531.2 88.29875 531.2 85.49875 
L 531.2 45.8 
Q 531.2 43 528.4 43 
L 450.225313 43 
Q 447.425313 43 447.425313 45.8 
L 447.425313 85.49875 
Q 447.425313 88.29875 450.225313 88.29875 
z
" style="fill:#ffffff;opacity:0.8;stroke:#cccccc;stroke-linejoin:miter;"/>
    </g>
    <g id="patch_5">
     <path d="M 453.025313 59.237813 
L 481.025313 59.237813 
L 481.025313 49.437813 
L 453.025313 49.437813 
z
" style="fill:#ff6384;opacity:0.5;stroke:#ff6384;stroke-linejoin:miter;"/>
    </g>
    <g id="text_1">
     <!-- base -->
     <defs>
      <path d="M 48.6875 27.296875 
Q 48.6875 37.203125 44.609375 42.84375 
Q 40.53125 48.484375 33.40625 48.484375 
Q 26.265625 48.484375 22.1875 42.84375 
Q 18.109375 37.203125 18.109375 27.296875 
Q 18.109375 17.390625 22.1875 11.75 
Q 26.265625 6.109375 33.40625 6.109375 
Q 40.53125 6.109375 44.609375 11.75 
Q 48.6875 17.390625 48.6875 27.296875 
z
M 18.109375 46.390625 
Q 20.953125 51.265625 25.265625 53.625 
Q 29.59375 56 35.59375 56 
Q 45.5625 56 51.78125 48.09375 
Q 58.015625 40.1875 58.015625 27.296875 
Q 58.015625 14.40625 51.78125 6.484375 
Q 45.5625 -1.421875 35.59375 -1.421875 
Q 29.59375 -1.421875 25.265625 0.953125 
Q 20.953125 3.328125 18.109375 8.203125 
L 18.109375 0 
L 9.078125 0 
L 9.078125 75.984375 
L 18.109375 75.984375 
z
" id="DejaVuSans-98"/>
      <path d="M 34.28125 27.484375 
Q 23.390625 27.484375 19.1875 25 
Q 14.984375 22.515625 14.984375 16.5 
Q 14.984375 11.71875 18.140625 8.90625 
Q 21.296875 6.109375 26.703125 6.109375 
Q 34.1875 6.109375 38.703125 11.40625 
Q 43.21875 16.703125 43.21875 25.484375 
L 43.21875 27.484375 
z
M 52.203125 31.203125 
L 52.203125 0 
L 43.21875 0 
L 43.21875 8.296875 
Q 40.140625 3.328125 35.546875 0.953125 
Q 30.953125 -1.421875 24.3125 -1.421875 
Q 15.921875 -1.421875 10.953125 3.296875 
Q 6 8.015625 6 15.921875 
Q 6 25.140625 12.171875 29.828125 
Q 18.359375 34.515625 30.609375 34.515625 
L 43.21875 34.515625 
L 43.21875 35.40625 
Q 43.21875 41.609375 39.140625 45 
Q 35.0625 48.390625 27.6875 48.390625 
Q 23 48.390625 18.546875 47.265625 
Q 14.109375 46.140625 10.015625 43.890625 
L 10.015625 52.203125 
Q 14.9375 54.109375 19.578125 55.046875 
Q 24.21875 56 28.609375 56 
Q 40.484375 56 46.34375 49.84375 
Q 52.203125 43.703125 52.203125 31.203125 
z
" id="DejaVuSans-97"/>
      <path d="M 44.28125 53.078125 
L 44.28125 44.578125 
Q 40.484375 46.53125 36.375 47.5 
Q 32.28125 48.484375 27.875 48.484375 
Q 21.1875 48.484375 17.84375 46.4375 
Q 14.5 44.390625 14.5 40.28125 
Q 14.5 37.15625 16.890625 35.375 
Q 19.28125 33.59375 26.515625 31.984375 
L 29.59375 31.296875 
Q 39.15625 29.25 43.1875 25.515625 
Q 47.21875 21.78125 47.21875 15.09375 
Q 47.21875 7.46875 41.1875 3.015625 
Q 35.15625 -1.421875 24.609375 -1.421875 
Q 20.21875 -1.421875 15.453125 -0.5625 
Q 10.6875 0.296875 5.421875 2 
L 5.421875 11.28125 
Q 10.40625 8.6875 15.234375 7.390625 
Q 20.0625 6.109375 24.8125 6.109375 
Q 31.15625 6.109375 34.5625 8.28125 
Q 37.984375 10.453125 37.984375 14.40625 
Q 37.984375 18.0625 35.515625 20.015625 
Q 33.0625 21.96875 24.703125 23.78125 
L 21.578125 24.515625 
Q 13.234375 26.265625 9.515625 29.90625 
Q 5.8125 33.546875 5.8125 39.890625 
Q 5.8125 47.609375 11.28125 51.796875 
Q 16.75 56 26.8125 56 
Q 31.78125 56 36.171875 55.265625 
Q 40.578125 54.546875 44.28125 53.078125 
z
" id="DejaVuSans-115"/>
      <path d="M 56.203125 29.59375 
L 56.203125 25.203125 
L 14.890625 25.203125 
Q 15.484375 15.921875 20.484375 11.0625 
Q 25.484375 6.203125 34.421875 6.203125 
Q 39.59375 6.203125 44.453125 7.46875 
Q 49.3125 8.734375 54.109375 11.28125 
L 54.109375 2.78125 
Q 49.265625 0.734375 44.1875 -0.34375 
Q 39.109375 -1.421875 33.890625 -1.421875 
Q 20.796875 -1.421875 13.15625 6.1875 
Q 5.515625 13.8125 5.515625 26.8125 
Q 5.515625 40.234375 12.765625 48.109375 
Q 20.015625 56 32.328125 56 
Q 43.359375 56 49.78125 48.890625 
Q 56.203125 41.796875 56.203125 29.59375 
z
M 47.21875 32.234375 
Q 47.125 39.59375 43.09375 43.984375 
Q 39.0625 48.390625 32.421875 48.390625 
Q 24.90625 48.390625 20.390625 44.140625 
Q 15.875 39.890625 15.1875 32.171875 
z
" id="DejaVuSans-101"/>
     </defs>
     <g transform="translate(492.225313 59.237813)scale(0.14 -0.14)">
      <use xlink:href="#DejaVuSans-98"/>
      <use x="63.476562" xlink:href="#DejaVuSans-97"/>
      <use x="124.755859" xlink:href="#DejaVuSans-115"/>
      <use x="176.855469" xlink:href="#DejaVuSans-101"/>
     </g>
    </g>
    <g id="patch_6">
     <path d="M 453.025313 79.787188 
L 481.025313 79.787188 
L 481.025313 69.987188 
L 453.025313 69.987188 
z
" style="fill:#36a2eb;opacity:0.5;stroke:#36a2eb;stroke-linejoin:miter;"/>
    </g>
    <g id="text_2">
     <!-- new -->
     <defs>
      <path d="M 54.890625 33.015625 
L 54.890625 0 
L 45.90625 0 
L 45.90625 32.71875 
Q 45.90625 40.484375 42.875 44.328125 
Q 39.84375 48.1875 33.796875 48.1875 
Q 26.515625 48.1875 22.3125 43.546875 
Q 18.109375 38.921875 18.109375 30.90625 
L 18.109375 0 
L 9.078125 0 
L 9.078125 54.6875 
L 18.109375 54.6875 
L 18.109375 46.1875 
Q 21.34375 51.125 25.703125 53.5625 
Q 30.078125 56 35.796875 56 
Q 45.21875 56 50.046875 50.171875 
Q 54.890625 44.34375 54.890625 33.015625 
z
" id="DejaVuSans-110"/>
      <path d="M 4.203125 54.6875 
L 13.1875 54.6875 
L 24.421875 12.015625 
L 35.59375 54.6875 
L 46.1875 54.6875 
L 57.421875 12.015625 
L 68.609375 54.6875 
L 77.59375 54.6875 
L 63.28125 0 
L 52.6875 0 
L 40.921875 44.828125 
L 29.109375 0 
L 18.5 0 
z
" id="DejaVuSans-119"/>
     </defs>
     <g transform="translate(492.225313 79.787188)scale(0.14 -0.14)">
      <use xlink:href="#DejaVuSans-110"/>
      <use x="63.378906" xlink:href="#DejaVuSans-101"/>
      <use x="124.902344" xlink:href="#DejaVuSans-119"/>
     </g>
    </g>
   </g>
  </g>
  <g id="axes_2">
   <g id="patch_7">
    <path d="M 36 525.24 
L 538.2 525.24 
L 538.2 402.93 
L 36 402.93 
z
" style="fill:none;"/>
   </g>
   <g id="patch_8">
    <path clip-path="url(#paf1c4c7ba9)" d="M 194.096018 519.680455 
L 405.405531 519.680455 
L 405.405531 482.616818 
L 194.096018 482.616818 
z
" style="fill:#ff6384;opacity:0.5;"/>
   </g>
   <g id="patch_9">
    <path clip-path="url(#paf1c4c7ba9)" d="M 168.481589 445.553182 
L 379.189883 445.553182 
L 379.189883 408.489545 
L 168.481589 408.489545 
z
" style="fill:#36a2eb;opacity:0.5;"/>
   </g>
   <g id="matplotlib.axis_1">
    <g id="xtick_1">
     <g id="line2d_3">
      <defs>
       <path d="M 0 0 
L 0 3.5 
" id="m81f8a73634" style="stroke:#000000;stroke-width:0.8;"/>
      </defs>
      <g>
       <use style="stroke:#000000;stroke-width:0.8;" x="110.941208" xlink:href="#m81f8a73634" y="525.24"/>
      </g>
     </g>
     <g id="text_3">
      <!-- 7.5 -->
      <defs>
       <path d="M 8.203125 72.90625 
L 55.078125 72.90625 
L 55.078125 68.703125 
L 28.609375 0 
L 18.3125 0 
L 43.21875 64.59375 
L 8.203125 64.59375 
z
" id="DejaVuSans-55"/>
       <path d="M 10.6875 12.40625 
L 21 12.40625 
L 21 0 
L 10.6875 0 
z
" id="DejaVuSans-46"/>
       <path d="M 10.796875 72.90625 
L 49.515625 72.90625 
L 49.515625 64.59375 
L 19.828125 64.59375 
L 19.828125 46.734375 
Q 21.96875 47.46875 24.109375 47.828125 
Q 26.265625 48.1875 28.421875 48.1875 
Q 40.625 48.1875 47.75 41.5 
Q 54.890625 34.8125 54.890625 23.390625 
Q 54.890625 11.625 47.5625 5.09375 
Q 40.234375 -1.421875 26.90625 -1.421875 
Q 22.3125 -1.421875 17.546875 -0.640625 
Q 12.796875 0.140625 7.71875 1.703125 
L 7.71875 11.625 
Q 12.109375 9.234375 16.796875 8.0625 
Q 21.484375 6.890625 26.703125 6.890625 
Q 35.15625 6.890625 40.078125 11.328125 
Q 45.015625 15.765625 45.015625 23.390625 
Q 45.015625 31 40.078125 35.4375 
Q 35.15625 39.890625 26.703125 39.890625 
Q 22.75 39.890625 18.8125 39.015625 
Q 14.890625 38.140625 10.796875 36.28125 
z
" id="DejaVuSans-53"/>
      </defs>
      <g transform="translate(99.80902 542.877813)scale(0.14 -0.14)">
       <use xlink:href="#DejaVuSans-55"/>
       <use x="63.623047" xlink:href="#DejaVuSans-46"/>
       <use x="95.410156" xlink:href="#DejaVuSans-53"/>
      </g>
     </g>
    </g>
    <g id="xtick_2">
     <g id="line2d_4">
      <g>
       <use style="stroke:#000000;stroke-width:0.8;" x="203.494917" xlink:href="#m81f8a73634" y="525.24"/>
      </g>
     </g>
     <g id="text_4">
      <!-- 8.0 -->
      <defs>
       <path d="M 31.78125 34.625 
Q 24.75 34.625 20.71875 30.859375 
Q 16.703125 27.09375 16.703125 20.515625 
Q 16.703125 13.921875 20.71875 10.15625 
Q 24.75 6.390625 31.78125 6.390625 
Q 38.8125 6.390625 42.859375 10.171875 
Q 46.921875 13.96875 46.921875 20.515625 
Q 46.921875 27.09375 42.890625 30.859375 
Q 38.875 34.625 31.78125 34.625 
z
M 21.921875 38.8125 
Q 15.578125 40.375 12.03125 44.71875 
Q 8.5 49.078125 8.5 55.328125 
Q 8.5 64.0625 14.71875 69.140625 
Q 20.953125 74.21875 31.78125 74.21875 
Q 42.671875 74.21875 48.875 69.140625 
Q 55.078125 64.0625 55.078125 55.328125 
Q 55.078125 49.078125 51.53125 44.71875 
Q 48 40.375 41.703125 38.8125 
Q 48.828125 37.15625 52.796875 32.3125 
Q 56.78125 27.484375 56.78125 20.515625 
Q 56.78125 9.90625 50.3125 4.234375 
Q 43.84375 -1.421875 31.78125 -1.421875 
Q 19.734375 -1.421875 13.25 4.234375 
Q 6.78125 9.90625 6.78125 20.515625 
Q 6.78125 27.484375 10.78125 32.3125 
Q 14.796875 37.15625 21.921875 38.8125 
z
M 18.3125 54.390625 
Q 18.3125 48.734375 21.84375 45.5625 
Q 25.390625 42.390625 31.78125 42.390625 
Q 38.140625 42.390625 41.71875 45.5625 
Q 45.3125 48.734375 45.3125 54.390625 
Q 45.3125 60.0625 41.71875 63.234375 
Q 38.140625 66.40625 31.78125 66.40625 
Q 25.390625 66.40625 21.84375 63.234375 
Q 18.3125 60.0625 18.3125 54.390625 
z
" id="DejaVuSans-56"/>
       <path d="M 31.78125 66.40625 
Q 24.171875 66.40625 20.328125 58.90625 
Q 16.5 51.421875 16.5 36.375 
Q 16.5 21.390625 20.328125 13.890625 
Q 24.171875 6.390625 31.78125 6.390625 
Q 39.453125 6.390625 43.28125 13.890625 
Q 47.125 21.390625 47.125 36.375 
Q 47.125 51.421875 43.28125 58.90625 
Q 39.453125 66.40625 31.78125 66.40625 
z
M 31.78125 74.21875 
Q 44.046875 74.21875 50.515625 64.515625 
Q 56.984375 54.828125 56.984375 36.375 
Q 56.984375 17.96875 50.515625 8.265625 
Q 44.046875 -1.421875 31.78125 -1.421875 
Q 19.53125 -1.421875 13.0625 8.265625 
Q 6.59375 17.96875 6.59375 36.375 
Q 6.59375 54.828125 13.0625 64.515625 
Q 19.53125 74.21875 31.78125 74.21875 
z
" id="DejaVuSans-48"/>
      </defs>
      <g transform="translate(192.36273 542.877813)scale(0.14 -0.14)">
       <use xlink:href="#DejaVuSans-56"/>
       <use x="63.623047" xlink:href="#DejaVuSans-46"/>
       <use x="95.410156" xlink:href="#DejaVuSans-48"/>
      </g>
     </g>
    </g>
    <g id="xtick_3">
     <g id="line2d_5">
      <g>
       <use style="stroke:#000000;stroke-width:0.8;" x="296.048626" xlink:href="#m81f8a73634" y="525.24"/>
      </g>
     </g>
     <g id="text_5">
      <!-- 8.5 -->
      <g transform="translate(284.916439 542.877813)scale(0.14 -0.14)">
       <use xlink:href="#DejaVuSans-56"/>
       <use x="63.623047" xlink:href="#DejaVuSans-46"/>
       <use x="95.410156" xlink:href="#DejaVuSans-53"/>
      </g>
     </g>
    </g>
    <g id="xtick_4">
     <g id="line2d_6">
      <g>
       <use style="stroke:#000000;stroke-width:0.8;" x="388.602335" xlink:href="#m81f8a73634" y="525.24"/>
      </g>
     </g>
     <g id="text_6">
      <!-- 9.0 -->
      <defs>
       <path d="M 10.984375 1.515625 
L 10.984375 10.5 
Q 14.703125 8.734375 18.5 7.8125 
Q 22.3125 6.890625 25.984375 6.890625 
Q 35.75 6.890625 40.890625 13.453125 
Q 46.046875 20.015625 46.78125 33.40625 
Q 43.953125 29.203125 39.59375 26.953125 
Q 35.25 24.703125 29.984375 24.703125 
Q 19.046875 24.703125 12.671875 31.3125 
Q 6.296875 37.9375 6.296875 49.421875 
Q 6.296875 60.640625 12.9375 67.421875 
Q 19.578125 74.21875 30.609375 74.21875 
Q 43.265625 74.21875 49.921875 64.515625 
Q 56.59375 54.828125 56.59375 36.375 
Q 56.59375 19.140625 48.40625 8.859375 
Q 40.234375 -1.421875 26.421875 -1.421875 
Q 22.703125 -1.421875 18.890625 -0.6875 
Q 15.09375 0.046875 10.984375 1.515625 
z
M 30.609375 32.421875 
Q 37.25 32.421875 41.125 36.953125 
Q 45.015625 41.5 45.015625 49.421875 
Q 45.015625 57.28125 41.125 61.84375 
Q 37.25 66.40625 30.609375 66.40625 
Q 23.96875 66.40625 20.09375 61.84375 
Q 16.21875 57.28125 16.21875 49.421875 
Q 16.21875 41.5 20.09375 36.953125 
Q 23.96875 32.421875 30.609375 32.421875 
z
" id="DejaVuSans-57"/>
      </defs>
      <g transform="translate(377.470148 542.877813)scale(0.14 -0.14)">
       <use xlink:href="#DejaVuSans-57"/>
       <use x="63.623047" xlink:href="#DejaVuSans-46"/>
       <use x="95.410156" xlink:href="#DejaVuSans-48"/>
      </g>
     </g>
    </g>
    <g id="xtick_5">
     <g id="line2d_7">
      <g>
       <use style="stroke:#000000;stroke-width:0.8;" x="481.156044" xlink:href="#m81f8a73634" y="525.24"/>
      </g>
     </g>
     <g id="text_7">
      <!-- 9.5 -->
      <g transform="translate(470.023857 542.877813)scale(0.14 -0.14)">
       <use xlink:href="#DejaVuSans-57"/>
       <use x="63.623047" xlink:href="#DejaVuSans-46"/>
       <use x="95.410156" xlink:href="#DejaVuSans-53"/>
      </g>
     </g>
    </g>
   </g>
   <g id="line2d_8">
    <path clip-path="url(#paf1c4c7ba9)" d="M 299.750775 525.24 
L 299.750775 402.93 
" style="fill:none;stroke:#ff6384;stroke-dasharray:5.55,2.4;stroke-dashoffset:0;stroke-opacity:0.8;stroke-width:1.5;"/>
   </g>
   <g id="line2d_9">
    <path clip-path="url(#paf1c4c7ba9)" d="M 273.835736 525.24 
L 273.835736 402.93 
" style="fill:none;stroke:#36a2eb;stroke-dasharray:5.55,2.4;stroke-dashoffset:0;stroke-opacity:0.8;stroke-width:1.5;"/>
   </g>
   <g id="patch_10">
    <path d="M 36 525.24 
L 538.2 525.24 
" style="fill:none;stroke:#000000;stroke-linecap:square;stroke-linejoin:miter;stroke-width:0.8;"/>
   </g>
  </g>
 </g>
 <defs>
  <clipPath id="p7763212a58">
   <rect height="366.93" width="502.2" x="36" y="36"/>
  </clipPath>
  <clipPath id="paf1c4c7ba9">
   <rect height="122.31" width="502.2" x="36" y="402.93"/>
  </clipPath>
 </defs>
</svg>
