<?xml version="1.0" encoding="utf-8" standalone="no"?>
<!DOCTYPE svg PUBLIC "-//W3C//DTD SVG 1.1//EN"
  "http://www.w3.org/Graphics/SVG/1.1/DTD/svg11.dtd">
<!-- Created with matplotlib (https://matplotlib.org/) -->
<svg height="581.789375pt" version="1.1" viewBox="0 0 574.2 581.789375" width="574.2pt" xmlns="http://www.w3.org/2000/svg" xmlns:xlink="http://www.w3.org/1999/xlink">
 <defs>
  <style type="text/css">
*{stroke-linecap:butt;stroke-linejoin:round;}
  </style>
 </defs>
 <g id="figure_1">
  <g id="patch_1">
   <path d="M 0 581.789375 
L 574.2 581.789375 
L 574.2 0 
L 0 0 
z
" style="fill:none;"/>
  </g>
  <g id="axes_1">
   <g id="patch_2">
    <path d="M 36 402.93 
L 538.2 402.93 
L 538.2 36 
L 36 36 
z
" style="fill:none;"/>
   </g>
   <g id="PolyCollection_1">
    <defs>
     <path d="M 92.121601 -195.538011 
L 92.121601 -195.638759 
L 96.396865 -195.676749 
L 100.672129 -195.727821 
L 104.947393 -195.796004 
L 109.222657 -195.886396 
L 113.49792 -196.005397 
L 117.773184 -196.160965 
L 122.048448 -196.36291 
L 126.323712 -196.62321 
L 130.598976 -196.956356 
L 134.87424 -197.37971 
L 139.149504 -197.913863 
L 143.424768 -198.582991 
L 147.700032 -199.415168 
L 151.975296 -200.442644 
L 156.250559 -201.702026 
L 160.525823 -203.234363 
L 164.801087 -205.085084 
L 169.076351 -207.303763 
L 173.351615 -209.943672 
L 177.626879 -213.061104 
L 181.902143 -216.714425 
L 186.177407 -220.962848 
L 190.452671 -225.864909 
L 194.727935 -231.476673 
L 199.003198 -237.849654 
L 203.278462 -245.028524 
L 207.553726 -253.048638 
L 211.82899 -261.933463 
L 216.104254 -271.691997 
L 220.379518 -282.316289 
L 224.654782 -293.779175 
L 228.930046 -306.032355 
L 233.20531 -319.00495 
L 237.480574 -332.602639 
L 241.755838 -346.707513 
L 246.031101 -361.178711 
L 250.306365 -375.853905 
L 254.581629 -390.551676 
L 258.856893 -405.074739 
L 263.132157 -419.213993 
L 267.407421 -432.753273 
L 271.682685 -445.474683 
L 275.957949 -457.164323 
L 280.233213 -467.61821 
L 284.508477 -476.648166 
L 288.78374 -484.087435 
L 293.059004 -489.795802 
L 297.334268 -493.663981 
L 301.609532 -495.617097 
L 305.884796 -495.617097 
L 310.16006 -493.663981 
L 314.435324 -489.795802 
L 318.710588 -484.087435 
L 322.985852 -476.648166 
L 327.261116 -467.61821 
L 331.536379 -457.164323 
L 335.811643 -445.474683 
L 340.086907 -432.753273 
L 344.362171 -419.213993 
L 348.637435 -405.074739 
L 352.912699 -390.551676 
L 357.187963 -375.853905 
L 361.463227 -361.178711 
L 365.738491 -346.707513 
L 370.013755 -332.602639 
L 374.289018 -319.00495 
L 378.564282 -306.032355 
L 382.839546 -293.779175 
L 387.11481 -282.316289 
L 391.390074 -271.691997 
L 395.665338 -261.933463 
L 399.940602 -253.048638 
L 404.215866 -245.028524 
L 408.49113 -237.849654 
L 412.766394 -231.476673 
L 417.041658 -225.864909 
L 421.316921 -220.962848 
L 425.592185 -216.714425 
L 429.867449 -213.061104 
L 434.142713 -209.943672 
L 438.417977 -207.303763 
L 442.693241 -205.085084 
L 446.968505 -203.234363 
L 451.243769 -201.702026 
L 455.519033 -200.442644 
L 459.794297 -199.415168 
L 464.06956 -198.582991 
L 468.344824 -197.913863 
L 472.620088 -197.37971 
L 476.895352 -196.956356 
L 481.170616 -196.62321 
L 485.44588 -196.36291 
L 489.721144 -196.160965 
L 493.996408 -196.005397 
L 498.271672 -195.886396 
L 502.546936 -195.796004 
L 506.822199 -195.727821 
L 511.097463 -195.676749 
L 515.372727 -195.638759 
L 515.372727 -195.538011 
L 515.372727 -195.538011 
L 511.097463 -195.538011 
L 506.822199 -195.538011 
L 502.546936 -195.538011 
L 498.271672 -195.538011 
L 493.996408 -195.538011 
L 489.721144 -195.538011 
L 485.44588 -195.538011 
L 481.170616 -195.538011 
L 476.895352 -195.538011 
L 472.620088 -195.538011 
L 468.344824 -195.538011 
L 464.06956 -195.538011 
L 459.794297 -195.538011 
L 455.519033 -195.538011 
L 451.243769 -195.538011 
L 446.968505 -195.538011 
L 442.693241 -195.538011 
L 438.417977 -195.538011 
L 434.142713 -195.538011 
L 429.867449 -195.538011 
L 425.592185 -195.538011 
L 421.316921 -195.538011 
L 417.041658 -195.538011 
L 412.766394 -195.538011 
L 408.49113 -195.538011 
L 404.215866 -195.538011 
L 399.940602 -195.538011 
L 395.665338 -195.538011 
L 391.390074 -195.538011 
L 387.11481 -195.538011 
L 382.839546 -195.538011 
L 378.564282 -195.538011 
L 374.289018 -195.538011 
L 370.013755 -195.538011 
L 365.738491 -195.538011 
L 361.463227 -195.538011 
L 357.187963 -195.538011 
L 352.912699 -195.538011 
L 348.637435 -195.538011 
L 344.362171 -195.538011 
L 340.086907 -195.538011 
L 335.811643 -195.538011 
L 331.536379 -195.538011 
L 327.261116 -195.538011 
L 322.985852 -195.538011 
L 318.710588 -195.538011 
L 314.435324 -195.538011 
L 310.16006 -195.538011 
L 305.884796 -195.538011 
L 301.609532 -195.538011 
L 297.334268 -195.538011 
L 293.059004 -195.538011 
L 288.78374 -195.538011 
L 284.508477 -195.538011 
L 280.233213 -195.538011 
L 275.957949 -195.538011 
L 271.682685 -195.538011 
L 267.407421 -195.538011 
L 263.132157 -195.538011 
L 258.856893 -195.538011 
L 254.581629 -195.538011 
L 250.306365 -195.538011 
L 246.031101 -195.538011 
L 241.755838 -195.538011 
L 237.480574 -195.538011 
L 233.20531 -195.538011 
L 228.930046 -195.538011 
L 224.654782 -195.538011 
L 220.379518 -195.538011 
L 216.104254 -195.538011 
L 211.82899 -195.538011 
L 207.553726 -195.538011 
L 203.278462 -195.538011 
L 199.003198 -195.538011 
L 194.727935 -195.538011 
L 190.452671 -195.538011 
L 186.177407 -195.538011 
L 181.902143 -195.538011 
L 177.626879 -195.538011 
L 173.351615 -195.538011 
L 169.076351 -195.538011 
L 164.801087 -195.538011 
L 160.525823 -195.538011 
L 156.250559 -195.538011 
L 151.975296 -195.538011 
L 147.700032 -195.538011 
L 143.424768 -195.538011 
L 139.149504 -195.538011 
L 134.87424 -195.538011 
L 130.598976 -195.538011 
L 126.323712 -195.538011 
L 122.048448 -195.538011 
L 117.773184 -195.538011 
L 113.49792 -195.538011 
L 109.222657 -195.538011 
L 104.947393 -195.538011 
L 100.672129 -195.538011 
L 96.396865 -195.538011 
L 92.121601 -195.538011 
z
" id="m1db7677a00" style="stroke:#ff6384;stroke-opacity:0.5;"/>
    </defs>
    <g clip-path="url(#pbdda40aed7)">
     <use style="fill:#ff6384;fill-opacity:0.5;stroke:#ff6384;stroke-opacity:0.5;" x="0" xlink:href="#m1db7677a00" y="581.789375"/>
    </g>
   </g>
   <g id="PolyCollection_2">
    <defs>
     <path d="M 58.827273 -195.538011 
L 58.827273 -195.650004 
L 62.673262 -195.692234 
L 66.519252 -195.749007 
L 70.365242 -195.8248 
L 74.211232 -195.925281 
L 78.057221 -196.057565 
L 81.903211 -196.230497 
L 85.749201 -196.454982 
L 89.595191 -196.744335 
L 93.44118 -197.114666 
L 97.28717 -197.585273 
L 101.13316 -198.179047 
L 104.97915 -198.922859 
L 108.825139 -199.847921 
L 112.671129 -200.990079 
L 116.517119 -202.390029 
L 120.363108 -204.093399 
L 124.209098 -206.150691 
L 128.055088 -208.617009 
L 131.901078 -211.551575 
L 135.747067 -215.016962 
L 139.593057 -219.078053 
L 143.439047 -223.800667 
L 147.285037 -229.249878 
L 151.131026 -235.488004 
L 154.977016 -242.572312 
L 158.823006 -250.552459 
L 162.668996 -259.467747 
L 166.514985 -269.344261 
L 170.360975 -280.192004 
L 174.206965 -292.002137 
L 178.052954 -304.744465 
L 181.898944 -318.365297 
L 185.744934 -332.785841 
L 189.590924 -347.901251 
L 193.436913 -363.580456 
L 197.282903 -379.666871 
L 201.128893 -395.980052 
L 204.974883 -412.31833 
L 208.820872 -428.4624 
L 212.666862 -444.179822 
L 216.512852 -459.230303 
L 220.358841 -473.371627 
L 224.204831 -486.366018 
L 228.050821 -497.986726 
L 231.896811 -508.02457 
L 235.7428 -516.294181 
L 239.58879 -522.639693 
L 243.43478 -526.939623 
L 247.28077 -529.110739 
L 251.126759 -529.110739 
L 254.972749 -526.939623 
L 258.818739 -522.639693 
L 262.664729 -516.294181 
L 266.510718 -508.02457 
L 270.356708 -497.986726 
L 274.202698 -486.366018 
L 278.048687 -473.371627 
L 281.894677 -459.230303 
L 285.740667 -444.179822 
L 289.586657 -428.4624 
L 293.432646 -412.31833 
L 297.278636 -395.980052 
L 301.124626 -379.666871 
L 304.970616 -363.580456 
L 308.816605 -347.901251 
L 312.662595 -332.785841 
L 316.508585 -318.365297 
L 320.354575 -304.744465 
L 324.200564 -292.002137 
L 328.046554 -280.192004 
L 331.892544 -269.344261 
L 335.738533 -259.467747 
L 339.584523 -250.552459 
L 343.430513 -242.572312 
L 347.276503 -235.488004 
L 351.122492 -229.249878 
L 354.968482 -223.800667 
L 358.814472 -219.078053 
L 362.660462 -215.016962 
L 366.506451 -211.551575 
L 370.352441 -208.617009 
L 374.198431 -206.150691 
L 378.044421 -204.093399 
L 381.89041 -202.390029 
L 385.7364 -200.990079 
L 389.58239 -199.847921 
L 393.428379 -198.922859 
L 397.274369 -198.179047 
L 401.120359 -197.585273 
L 404.966349 -197.114666 
L 408.812338 -196.744335 
L 412.658328 -196.454982 
L 416.504318 -196.230497 
L 420.350308 -196.057565 
L 424.196297 -195.925281 
L 428.042287 -195.8248 
L 431.888277 -195.749007 
L 435.734267 -195.692234 
L 439.580256 -195.650004 
L 439.580256 -195.538011 
L 439.580256 -195.538011 
L 435.734267 -195.538011 
L 431.888277 -195.538011 
L 428.042287 -195.538011 
L 424.196297 -195.538011 
L 420.350308 -195.538011 
L 416.504318 -195.538011 
L 412.658328 -195.538011 
L 408.812338 -195.538011 
L 404.966349 -195.538011 
L 401.120359 -195.538011 
L 397.274369 -195.538011 
L 393.428379 -195.538011 
L 389.58239 -195.538011 
L 385.7364 -195.538011 
L 381.89041 -195.538011 
L 378.044421 -195.538011 
L 374.198431 -195.538011 
L 370.352441 -195.538011 
L 366.506451 -195.538011 
L 362.660462 -195.538011 
L 358.814472 -195.538011 
L 354.968482 -195.538011 
L 351.122492 -195.538011 
L 347.276503 -195.538011 
L 343.430513 -195.538011 
L 339.584523 -195.538011 
L 335.738533 -195.538011 
L 331.892544 -195.538011 
L 328.046554 -195.538011 
L 324.200564 -195.538011 
L 320.354575 -195.538011 
L 316.508585 -195.538011 
L 312.662595 -195.538011 
L 308.816605 -195.538011 
L 304.970616 -195.538011 
L 301.124626 -195.538011 
L 297.278636 -195.538011 
L 293.432646 -195.538011 
L 289.586657 -195.538011 
L 285.740667 -195.538011 
L 281.894677 -195.538011 
L 278.048687 -195.538011 
L 274.202698 -195.538011 
L 270.356708 -195.538011 
L 266.510718 -195.538011 
L 262.664729 -195.538011 
L 258.818739 -195.538011 
L 254.972749 -195.538011 
L 251.126759 -195.538011 
L 247.28077 -195.538011 
L 243.43478 -195.538011 
L 239.58879 -195.538011 
L 235.7428 -195.538011 
L 231.896811 -195.538011 
L 228.050821 -195.538011 
L 224.204831 -195.538011 
L 220.358841 -195.538011 
L 216.512852 -195.538011 
L 212.666862 -195.538011 
L 208.820872 -195.538011 
L 204.974883 -195.538011 
L 201.128893 -195.538011 
L 197.282903 -195.538011 
L 193.436913 -195.538011 
L 189.590924 -195.538011 
L 185.744934 -195.538011 
L 181.898944 -195.538011 
L 178.052954 -195.538011 
L 174.206965 -195.538011 
L 170.360975 -195.538011 
L 166.514985 -195.538011 
L 162.668996 -195.538011 
L 158.823006 -195.538011 
L 154.977016 -195.538011 
L 151.131026 -195.538011 
L 147.285037 -195.538011 
L 143.439047 -195.538011 
L 139.593057 -195.538011 
L 135.747067 -195.538011 
L 131.901078 -195.538011 
L 128.055088 -195.538011 
L 124.209098 -195.538011 
L 120.363108 -195.538011 
L 116.517119 -195.538011 
L 112.671129 -195.538011 
L 108.825139 -195.538011 
L 104.97915 -195.538011 
L 101.13316 -195.538011 
L 97.28717 -195.538011 
L 93.44118 -195.538011 
L 89.595191 -195.538011 
L 85.749201 -195.538011 
L 81.903211 -195.538011 
L 78.057221 -195.538011 
L 74.211232 -195.538011 
L 70.365242 -195.538011 
L 66.519252 -195.538011 
L 62.673262 -195.538011 
L 58.827273 -195.538011 
z
" id="m1d0f8db551" style="stroke:#36a2eb;stroke-opacity:0.5;"/>
    </defs>
    <g clip-path="url(#pbdda40aed7)">
     <use style="fill:#36a2eb;fill-opacity:0.5;stroke:#36a2eb;stroke-opacity:0.5;" x="0" xlink:href="#m1d0f8db551" y="581.789375"/>
    </g>
   </g>
   <g id="line2d_1">
    <path clip-path="url(#pbdda40aed7)" d="M 92.121601 386.150616 
L 96.396865 386.112626 
L 100.672129 386.061554 
L 104.947393 385.993371 
L 109.222657 385.902979 
L 113.49792 385.783978 
L 117.773184 385.62841 
L 122.048448 385.426465 
L 126.323712 385.166165 
L 130.598976 384.833019 
L 134.87424 384.409665 
L 139.149504 383.875512 
L 143.424768 383.206384 
L 147.700032 382.374207 
L 151.975296 381.346731 
L 156.250559 380.087349 
L 160.525823 378.555012 
L 164.801087 376.704291 
L 169.076351 374.485612 
L 173.351615 371.845703 
L 177.626879 368.728271 
L 181.902143 365.07495 
L 186.177407 360.826527 
L 190.452671 355.924466 
L 194.727935 350.312702 
L 199.003198 343.939721 
L 203.278462 336.760851 
L 207.553726 328.740737 
L 211.82899 319.855912 
L 216.104254 310.097378 
L 220.379518 299.473086 
L 224.654782 288.0102 
L 228.930046 275.75702 
L 233.20531 262.784425 
L 237.480574 249.186736 
L 241.755838 235.081862 
L 246.031101 220.610664 
L 250.306365 205.93547 
L 254.581629 191.237699 
L 258.856893 176.714636 
L 263.132157 162.575382 
L 267.407421 149.036102 
L 271.682685 136.314692 
L 275.957949 124.625052 
L 280.233213 114.171165 
L 284.508477 105.141209 
L 288.78374 97.70194 
L 293.059004 91.993573 
L 297.334268 88.125394 
L 301.609532 86.172278 
L 305.884796 86.172278 
L 310.16006 88.125394 
L 314.435324 91.993573 
L 318.710588 97.70194 
L 322.985852 105.141209 
L 327.261116 114.171165 
L 331.536379 124.625052 
L 335.811643 136.314692 
L 340.086907 149.036102 
L 344.362171 162.575382 
L 348.637435 176.714636 
L 352.912699 191.237699 
L 357.187963 205.93547 
L 361.463227 220.610664 
L 365.738491 235.081862 
L 370.013755 249.186736 
L 374.289018 262.784425 
L 378.564282 275.75702 
L 382.839546 288.0102 
L 387.11481 299.473086 
L 391.390074 310.097378 
L 395.665338 319.855912 
L 399.940602 328.740737 
L 404.215866 336.760851 
L 408.49113 343.939721 
L 412.766394 350.312702 
L 417.041658 355.924466 
L 421.316921 360.826527 
L 425.592185 365.07495 
L 429.867449 368.728271 
L 434.142713 371.845703 
L 438.417977 374.485612 
L 442.693241 376.704291 
L 446.968505 378.555012 
L 451.243769 380.087349 
L 455.519033 381.346731 
L 459.794297 382.374207 
L 464.06956 383.206384 
L 468.344824 383.875512 
L 472.620088 384.409665 
L 476.895352 384.833019 
L 481.170616 385.166165 
L 485.44588 385.426465 
L 489.721144 385.62841 
L 493.996408 385.783978 
L 498.271672 385.902979 
L 502.546936 385.993371 
L 506.822199 386.061554 
L 511.097463 386.112626 
L 515.372727 386.150616 
" style="fill:none;stroke:#ff6384;stroke-linecap:square;"/>
   </g>
   <g id="line2d_2">
    <path clip-path="url(#pbdda40aed7)" d="M 58.827273 386.139371 
L 62.673262 386.097141 
L 66.519252 386.040368 
L 70.365242 385.964575 
L 74.211232 385.864094 
L 78.057221 385.73181 
L 81.903211 385.558878 
L 85.749201 385.334393 
L 89.595191 385.04504 
L 93.44118 384.674709 
L 97.28717 384.204102 
L 101.13316 383.610328 
L 104.97915 382.866516 
L 108.825139 381.941454 
L 112.671129 380.799296 
L 116.517119 379.399346 
L 120.363108 377.695976 
L 124.209098 375.638684 
L 128.055088 373.172366 
L 131.901078 370.2378 
L 135.747067 366.772413 
L 139.593057 362.711322 
L 143.439047 357.988708 
L 147.285037 352.539497 
L 151.131026 346.301371 
L 154.977016 339.217063 
L 158.823006 331.236916 
L 162.668996 322.321628 
L 166.514985 312.445114 
L 170.360975 301.597371 
L 174.206965 289.787238 
L 178.052954 277.04491 
L 181.898944 263.424078 
L 185.744934 249.003534 
L 189.590924 233.888124 
L 193.436913 218.208919 
L 197.282903 202.122504 
L 201.128893 185.809323 
L 204.974883 169.471045 
L 208.820872 153.326975 
L 212.666862 137.609553 
L 216.512852 122.559072 
L 220.358841 108.417748 
L 224.204831 95.423357 
L 228.050821 83.802649 
L 231.896811 73.764805 
L 235.7428 65.495194 
L 239.58879 59.149682 
L 243.43478 54.849752 
L 247.28077 52.678636 
L 251.126759 52.678636 
L 254.972749 54.849752 
L 258.818739 59.149682 
L 262.664729 65.495194 
L 266.510718 73.764805 
L 270.356708 83.802649 
L 274.202698 95.423357 
L 278.048687 108.417748 
L 281.894677 122.559072 
L 285.740667 137.609553 
L 289.586657 153.326975 
L 293.432646 169.471045 
L 297.278636 185.809323 
L 301.124626 202.122504 
L 304.970616 218.208919 
L 308.816605 233.888124 
L 312.662595 249.003534 
L 316.508585 263.424078 
L 320.354575 277.04491 
L 324.200564 289.787238 
L 328.046554 301.597371 
L 331.892544 312.445114 
L 335.738533 322.321628 
L 339.584523 331.236916 
L 343.430513 339.217063 
L 347.276503 346.301371 
L 351.122492 352.539497 
L 354.968482 357.988708 
L 358.814472 362.711322 
L 362.660462 366.772413 
L 366.506451 370.2378 
L 370.352441 373.172366 
L 374.198431 375.638684 
L 378.044421 377.695976 
L 381.89041 379.399346 
L 385.7364 380.799296 
L 389.58239 381.941454 
L 393.428379 382.866516 
L 397.274369 383.610328 
L 401.120359 384.204102 
L 404.966349 384.674709 
L 408.812338 385.04504 
L 412.658328 385.334393 
L 416.504318 385.558878 
L 420.350308 385.73181 
L 424.196297 385.864094 
L 428.042287 385.964575 
L 431.888277 386.040368 
L 435.734267 386.097141 
L 439.580256 386.139371 
" style="fill:none;stroke:#36a2eb;stroke-linecap:square;"/>
   </g>
   <g id="patch_3">
    <path d="M 36 402.93 
L 538.2 402.93 
" style="fill:none;stroke:#000000;stroke-linecap:square;stroke-linejoin:miter;stroke-width:0.8;"/>
   </g>
   <g id="legend_1">
    <g id="patch_4">
     <path d="M 450.225313 88.29875 
L 528.4 88.29875 
Q 531.2 88.29875 531.2 85.49875 
L 531.2 45.8 
Q 531.2 43 528.4 43 
L 450.225313 43 
Q 447.425313 43 447.425313 45.8 
L 447.425313 85.49875 
Q 447.425313 88.29875 450.225313 88.29875 
z
" style="fill:#ffffff;opacity:0.8;stroke:#cccccc;stroke-linejoin:miter;"/>
    </g>
    <g id="patch_5">
     <path d="M 453.025313 59.237813 
L 481.025313 59.237813 
L 481.025313 49.437813 
L 453.025313 49.437813 
z
" style="fill:#ff6384;opacity:0.5;stroke:#ff6384;stroke-linejoin:miter;"/>
    </g>
    <g id="text_1">
     <!-- base -->
     <defs>
      <path d="M 48.6875 27.296875 
Q 48.6875 37.203125 44.609375 42.84375 
Q 40.53125 48.484375 33.40625 48.484375 
Q 26.265625 48.484375 22.1875 42.84375 
Q 18.109375 37.203125 18.109375 27.296875 
Q 18.109375 17.390625 22.1875 11.75 
Q 26.265625 6.109375 33.40625 6.109375 
Q 40.53125 6.109375 44.609375 11.75 
Q 48.6875 17.390625 48.6875 27.296875 
z
M 18.109375 46.390625 
Q 20.953125 51.265625 25.265625 53.625 
Q 29.59375 56 35.59375 56 
Q 45.5625 56 51.78125 48.09375 
Q 58.015625 40.1875 58.015625 27.296875 
Q 58.015625 14.40625 51.78125 6.484375 
Q 45.5625 -1.421875 35.59375 -1.421875 
Q 29.59375 -1.421875 25.265625 0.953125 
Q 20.953125 3.328125 18.109375 8.203125 
L 18.109375 0 
L 9.078125 0 
L 9.078125 75.984375 
L 18.109375 75.984375 
z
" id="DejaVuSans-98"/>
      <path d="M 34.28125 27.484375 
Q 23.390625 27.484375 19.1875 25 
Q 14.984375 22.515625 14.984375 16.5 
Q 14.984375 11.71875 18.140625 8.90625 
Q 21.296875 6.109375 26.703125 6.109375 
Q 34.1875 6.109375 38.703125 11.40625 
Q 43.21875 16.703125 43.21875 25.484375 
L 43.21875 27.484375 
z
M 52.203125 31.203125 
L 52.203125 0 
L 43.21875 0 
L 43.21875 8.296875 
Q 40.140625 3.328125 35.546875 0.953125 
Q 30.953125 -1.421875 24.3125 -1.421875 
Q 15.921875 -1.421875 10.953125 3.296875 
Q 6 8.015625 6 15.921875 
Q 6 25.140625 12.171875 29.828125 
Q 18.359375 34.515625 30.609375 34.515625 
L 43.21875 34.515625 
L 43.21875 35.40625 
Q 43.21875 41.609375 39.140625 45 
Q 35.0625 48.390625 27.6875 48.390625 
Q 23 48.390625 18.546875 47.265625 
Q 14.109375 46.140625 10.015625 43.890625 
L 10.015625 52.203125 
Q 14.9375 54.109375 19.578125 55.046875 
Q 24.21875 56 28.609375 56 
Q 40.484375 56 46.34375 49.84375 
Q 52.203125 43.703125 52.203125 31.203125 
z
" id="DejaVuSans-97"/>
      <path d="M 44.28125 53.078125 
L 44.28125 44.578125 
Q 40.484375 46.53125 36.375 47.5 
Q 32.28125 48.484375 27.875 48.484375 
Q 21.1875 48.484375 17.84375 46.4375 
Q 14.5 44.390625 14.5 40.28125 
Q 14.5 37.15625 16.890625 35.375 
Q 19.28125 33.59375 26.515625 31.984375 
L 29.59375 31.296875 
Q 39.15625 29.25 43.1875 25.515625 
Q 47.21875 21.78125 47.21875 15.09375 
Q 47.21875 7.46875 41.1875 3.015625 
Q 35.15625 -1.421875 24.609375 -1.421875 
Q 20.21875 -1.421875 15.453125 -0.5625 
Q 10.6875 0.296875 5.421875 2 
L 5.421875 11.28125 
Q 10.40625 8.6875 15.234375 7.390625 
Q 20.0625 6.109375 24.8125 6.109375 
Q 31.15625 6.109375 34.5625 8.28125 
Q 37.984375 10.453125 37.984375 14.40625 
Q 37.984375 18.0625 35.515625 20.015625 
Q 33.0625 21.96875 24.703125 23.78125 
L 21.578125 24.515625 
Q 13.234375 26.265625 9.515625 29.90625 
Q 5.8125 33.546875 5.8125 39.890625 
Q 5.8125 47.609375 11.28125 51.796875 
Q 16.75 56 26.8125 56 
Q 31.78125 56 36.171875 55.265625 
Q 40.578125 54.546875 44.28125 53.078125 
z
" id="DejaVuSans-115"/>
      <path d="M 56.203125 29.59375 
L 56.203125 25.203125 
L 14.890625 25.203125 
Q 15.484375 15.921875 20.484375 11.0625 
Q 25.484375 6.203125 34.421875 6.203125 
Q 39.59375 6.203125 44.453125 7.46875 
Q 49.3125 8.734375 54.109375 11.28125 
L 54.109375 2.78125 
Q 49.265625 0.734375 44.1875 -0.34375 
Q 39.109375 -1.421875 33.890625 -1.421875 
Q 20.796875 -1.421875 13.15625 6.1875 
Q 5.515625 13.8125 5.515625 26.8125 
Q 5.515625 40.234375 12.765625 48.109375 
Q 20.015625 56 32.328125 56 
Q 43.359375 56 49.78125 48.890625 
Q 56.203125 41.796875 56.203125 29.59375 
z
M 47.21875 32.234375 
Q 47.125 39.59375 43.09375 43.984375 
Q 39.0625 48.390625 32.421875 48.390625 
Q 24.90625 48.390625 20.390625 44.140625 
Q 15.875 39.890625 15.1875 32.171875 
z
" id="DejaVuSans-101"/>
     </defs>
     <g transform="translate(492.225313 59.237813)scale(0.14 -0.14)">
      <use xlink:href="#DejaVuSans-98"/>
      <use x="63.476562" xlink:href="#DejaVuSans-97"/>
      <use x="124.755859" xlink:href="#DejaVuSans-115"/>
      <use x="176.855469" xlink:href="#DejaVuSans-101"/>
     </g>
    </g>
    <g id="patch_6">
     <path d="M 453.025313 79.787188 
L 481.025313 79.787188 
L 481.025313 69.987188 
L 453.025313 69.987188 
z
" style="fill:#36a2eb;opacity:0.5;stroke:#36a2eb;stroke-linejoin:miter;"/>
    </g>
    <g id="text_2">
     <!-- new -->
     <defs>
      <path d="M 54.890625 33.015625 
L 54.890625 0 
L 45.90625 0 
L 45.90625 32.71875 
Q 45.90625 40.484375 42.875 44.328125 
Q 39.84375 48.1875 33.796875 48.1875 
Q 26.515625 48.1875 22.3125 43.546875 
Q 18.109375 38.921875 18.109375 30.90625 
L 18.109375 0 
L 9.078125 0 
L 9.078125 54.6875 
L 18.109375 54.6875 
L 18.109375 46.1875 
Q 21.34375 51.125 25.703125 53.5625 
Q 30.078125 56 35.796875 56 
Q 45.21875 56 50.046875 50.171875 
Q 54.890625 44.34375 54.890625 33.015625 
z
" id="DejaVuSans-110"/>
      <path d="M 4.203125 54.6875 
L 13.1875 54.6875 
L 24.421875 12.015625 
L 35.59375 54.6875 
L 46.1875 54.6875 
L 57.421875 12.015625 
L 68.609375 54.6875 
L 77.59375 54.6875 
L 63.28125 0 
L 52.6875 0 
L 40.921875 44.828125 
L 29.109375 0 
L 18.5 0 
z
" id="DejaVuSans-119"/>
     </defs>
     <g transform="translate(492.225313 79.787188)scale(0.14 -0.14)">
      <use xlink:href="#DejaVuSans-110"/>
      <use x="63.378906" xlink:href="#DejaVuSans-101"/>
      <use x="124.902344" xlink:href="#DejaVuSans-119"/>
     </g>
    </g>
   </g>
  </g>
  <g id="axes_2">
   <g id="patch_7">
    <path d="M 36 525.24 
L 538.2 525.24 
L 538.2 402.93 
L 36 402.93 
z
" style="fill:none;"/>
   </g>
   <g id="patch_8">
    <path clip-path="url(#p9884f7306f)" d="M 200.050638 519.680455 
L 407.44369 519.680455 
L 407.44369 482.616818 
L 200.050638 482.616818 
z
" style="fill:#ff6384;opacity:0.5;"/>
   </g>
   <g id="patch_9">
    <path clip-path="url(#p9884f7306f)" d="M 155.919284 445.553182 
L 342.488245 445.553182 
L 342.488245 408.489545 
L 155.919284 408.489545 
z
" style="fill:#36a2eb;opacity:0.5;"/>
   </g>
   <g id="matplotlib.axis_1">
    <g id="xtick_1">
     <g id="line2d_3">
      <defs>
       <path d="M 0 0 
L 0 3.5 
" id="m6923174163" style="stroke:#000000;stroke-width:0.8;"/>
      </defs>
      <g>
       <use style="stroke:#000000;stroke-width:0.8;" x="94.687146" xlink:href="#m6923174163" y="525.24"/>
      </g>
     </g>
     <g id="text_3">
      <!-- 7.75 -->
      <defs>
       <path d="M 8.203125 72.90625 
L 55.078125 72.90625 
L 55.078125 68.703125 
L 28.609375 0 
L 18.3125 0 
L 43.21875 64.59375 
L 8.203125 64.59375 
z
" id="DejaVuSans-55"/>
       <path d="M 10.6875 12.40625 
L 21 12.40625 
L 21 0 
L 10.6875 0 
z
" id="DejaVuSans-46"/>
       <path d="M 10.796875 72.90625 
L 49.515625 72.90625 
L 49.515625 64.59375 
L 19.828125 64.59375 
L 19.828125 46.734375 
Q 21.96875 47.46875 24.109375 47.828125 
Q 26.265625 48.1875 28.421875 48.1875 
Q 40.625 48.1875 47.75 41.5 
Q 54.890625 34.8125 54.890625 23.390625 
Q 54.890625 11.625 47.5625 5.09375 
Q 40.234375 -1.421875 26.90625 -1.421875 
Q 22.3125 -1.421875 17.546875 -0.640625 
Q 12.796875 0.140625 7.71875 1.703125 
L 7.71875 11.625 
Q 12.109375 9.234375 16.796875 8.0625 
Q 21.484375 6.890625 26.703125 6.890625 
Q 35.15625 6.890625 40.078125 11.328125 
Q 45.015625 15.765625 45.015625 23.390625 
Q 45.015625 31 40.078125 35.4375 
Q 35.15625 39.890625 26.703125 39.890625 
Q 22.75 39.890625 18.8125 39.015625 
Q 14.890625 38.140625 10.796875 36.28125 
z
" id="DejaVuSans-53"/>
      </defs>
      <g transform="translate(79.101209 542.877813)scale(0.14 -0.14)">
       <use xlink:href="#DejaVuSans-55"/>
       <use x="63.623047" xlink:href="#DejaVuSans-46"/>
       <use x="95.410156" xlink:href="#DejaVuSans-55"/>
       <use x="159.033203" xlink:href="#DejaVuSans-53"/>
      </g>
     </g>
    </g>
    <g id="xtick_2">
     <g id="line2d_4">
      <g>
       <use style="stroke:#000000;stroke-width:0.8;" x="163.729424" xlink:href="#m6923174163" y="525.24"/>
      </g>
     </g>
     <g id="text_4">
      <!-- 8.00 -->
      <defs>
       <path d="M 31.78125 34.625 
Q 24.75 34.625 20.71875 30.859375 
Q 16.703125 27.09375 16.703125 20.515625 
Q 16.703125 13.921875 20.71875 10.15625 
Q 24.75 6.390625 31.78125 6.390625 
Q 38.8125 6.390625 42.859375 10.171875 
Q 46.921875 13.96875 46.921875 20.515625 
Q 46.921875 27.09375 42.890625 30.859375 
Q 38.875 34.625 31.78125 34.625 
z
M 21.921875 38.8125 
Q 15.578125 40.375 12.03125 44.71875 
Q 8.5 49.078125 8.5 55.328125 
Q 8.5 64.0625 14.71875 69.140625 
Q 20.953125 74.21875 31.78125 74.21875 
Q 42.671875 74.21875 48.875 69.140625 
Q 55.078125 64.0625 55.078125 55.328125 
Q 55.078125 49.078125 51.53125 44.71875 
Q 48 40.375 41.703125 38.8125 
Q 48.828125 37.15625 52.796875 32.3125 
Q 56.78125 27.484375 56.78125 20.515625 
Q 56.78125 9.90625 50.3125 4.234375 
Q 43.84375 -1.421875 31.78125 -1.421875 
Q 19.734375 -1.421875 13.25 4.234375 
Q 6.78125 9.90625 6.78125 20.515625 
Q 6.78125 27.484375 10.78125 32.3125 
Q 14.796875 37.15625 21.921875 38.8125 
z
M 18.3125 54.390625 
Q 18.3125 48.734375 21.84375 45.5625 
Q 25.390625 42.390625 31.78125 42.390625 
Q 38.140625 42.390625 41.71875 45.5625 
Q 45.3125 48.734375 45.3125 54.390625 
Q 45.3125 60.0625 41.71875 63.234375 
Q 38.140625 66.40625 31.78125 66.40625 
Q 25.390625 66.40625 21.84375 63.234375 
Q 18.3125 60.0625 18.3125 54.390625 
z
" id="DejaVuSans-56"/>
       <path d="M 31.78125 66.40625 
Q 24.171875 66.40625 20.328125 58.90625 
Q 16.5 51.421875 16.5 36.375 
Q 16.5 21.390625 20.328125 13.890625 
Q 24.171875 6.390625 31.78125 6.390625 
Q 39.453125 6.390625 43.28125 13.890625 
Q 47.125 21.390625 47.125 36.375 
Q 47.125 51.421875 43.28125 58.90625 
Q 39.453125 66.40625 31.78125 66.40625 
z
M 31.78125 74.21875 
Q 44.046875 74.21875 50.515625 64.515625 
Q 56.984375 54.828125 56.984375 36.375 
Q 56.984375 17.96875 50.515625 8.265625 
Q 44.046875 -1.421875 31.78125 -1.421875 
Q 19.53125 -1.421875 13.0625 8.265625 
Q 6.59375 17.96875 6.59375 36.375 
Q 6.59375 54.828125 13.0625 64.515625 
Q 19.53125 74.21875 31.78125 74.21875 
z
" id="DejaVuSans-48"/>
      </defs>
      <g transform="translate(148.143487 542.877813)scale(0.14 -0.14)">
       <use xlink:href="#DejaVuSans-56"/>
       <use x="63.623047" xlink:href="#DejaVuSans-46"/>
       <use x="95.410156" xlink:href="#DejaVuSans-48"/>
       <use x="159.033203" xlink:href="#DejaVuSans-48"/>
      </g>
     </g>
    </g>
    <g id="xtick_3">
     <g id="line2d_5">
      <g>
       <use style="stroke:#000000;stroke-width:0.8;" x="232.771702" xlink:href="#m6923174163" y="525.24"/>
      </g>
     </g>
     <g id="text_5">
      <!-- 8.25 -->
      <defs>
       <path d="M 19.1875 8.296875 
L 53.609375 8.296875 
L 53.609375 0 
L 7.328125 0 
L 7.328125 8.296875 
Q 12.9375 14.109375 22.625 23.890625 
Q 32.328125 33.6875 34.8125 36.53125 
Q 39.546875 41.84375 41.421875 45.53125 
Q 43.3125 49.21875 43.3125 52.78125 
Q 43.3125 58.59375 39.234375 62.25 
Q 35.15625 65.921875 28.609375 65.921875 
Q 23.96875 65.921875 18.8125 64.3125 
Q 13.671875 62.703125 7.8125 59.421875 
L 7.8125 69.390625 
Q 13.765625 71.78125 18.9375 73 
Q 24.125 74.21875 28.421875 74.21875 
Q 39.75 74.21875 46.484375 68.546875 
Q 53.21875 62.890625 53.21875 53.421875 
Q 53.21875 48.921875 51.53125 44.890625 
Q 49.859375 40.875 45.40625 35.40625 
Q 44.1875 33.984375 37.640625 27.21875 
Q 31.109375 20.453125 19.1875 8.296875 
z
" id="DejaVuSans-50"/>
      </defs>
      <g transform="translate(217.185765 542.877813)scale(0.14 -0.14)">
       <use xlink:href="#DejaVuSans-56"/>
       <use x="63.623047" xlink:href="#DejaVuSans-46"/>
       <use x="95.410156" xlink:href="#DejaVuSans-50"/>
       <use x="159.033203" xlink:href="#DejaVuSans-53"/>
      </g>
     </g>
    </g>
    <g id="xtick_4">
     <g id="line2d_6">
      <g>
       <use style="stroke:#000000;stroke-width:0.8;" x="301.81398" xlink:href="#m6923174163" y="525.24"/>
      </g>
     </g>
     <g id="text_6">
      <!-- 8.50 -->
      <g transform="translate(286.228043 542.877813)scale(0.14 -0.14)">
       <use xlink:href="#DejaVuSans-56"/>
       <use x="63.623047" xlink:href="#DejaVuSans-46"/>
       <use x="95.410156" xlink:href="#DejaVuSans-53"/>
       <use x="159.033203" xlink:href="#DejaVuSans-48"/>
      </g>
     </g>
    </g>
    <g id="xtick_5">
     <g id="line2d_7">
      <g>
       <use style="stroke:#000000;stroke-width:0.8;" x="370.856258" xlink:href="#m6923174163" y="525.24"/>
      </g>
     </g>
     <g id="text_7">
      <!-- 8.75 -->
      <g transform="translate(355.270321 542.877813)scale(0.14 -0.14)">
       <use xlink:href="#DejaVuSans-56"/>
       <use x="63.623047" xlink:href="#DejaVuSans-46"/>
       <use x="95.410156" xlink:href="#DejaVuSans-55"/>
       <use x="159.033203" xlink:href="#DejaVuSans-53"/>
      </g>
     </g>
    </g>
    <g id="xtick_6">
     <g id="line2d_8">
      <g>
       <use style="stroke:#000000;stroke-width:0.8;" x="439.898536" xlink:href="#m6923174163" y="525.24"/>
      </g>
     </g>
     <g id="text_8">
      <!-- 9.00 -->
      <defs>
       <path d="M 10.984375 1.515625 
L 10.984375 10.5 
Q 14.703125 8.734375 18.5 7.8125 
Q 22.3125 6.890625 25.984375 6.890625 
Q 35.75 6.890625 40.890625 13.453125 
Q 46.046875 20.015625 46.78125 33.40625 
Q 43.953125 29.203125 39.59375 26.953125 
Q 35.25 24.703125 29.984375 24.703125 
Q 19.046875 24.703125 12.671875 31.3125 
Q 6.296875 37.9375 6.296875 49.421875 
Q 6.296875 60.640625 12.9375 67.421875 
Q 19.578125 74.21875 30.609375 74.21875 
Q 43.265625 74.21875 49.921875 64.515625 
Q 56.59375 54.828125 56.59375 36.375 
Q 56.59375 19.140625 48.40625 8.859375 
Q 40.234375 -1.421875 26.421875 -1.421875 
Q 22.703125 -1.421875 18.890625 -0.6875 
Q 15.09375 0.046875 10.984375 1.515625 
z
M 30.609375 32.421875 
Q 37.25 32.421875 41.125 36.953125 
Q 45.015625 41.5 45.015625 49.421875 
Q 45.015625 57.28125 41.125 61.84375 
Q 37.25 66.40625 30.609375 66.40625 
Q 23.96875 66.40625 20.09375 61.84375 
Q 16.21875 57.28125 16.21875 49.421875 
Q 16.21875 41.5 20.09375 36.953125 
Q 23.96875 32.421875 30.609375 32.421875 
z
" id="DejaVuSans-57"/>
      </defs>
      <g transform="translate(424.312599 542.877813)scale(0.14 -0.14)">
       <use xlink:href="#DejaVuSans-57"/>
       <use x="63.623047" xlink:href="#DejaVuSans-46"/>
       <use x="95.410156" xlink:href="#DejaVuSans-48"/>
       <use x="159.033203" xlink:href="#DejaVuSans-48"/>
      </g>
     </g>
    </g>
    <g id="xtick_7">
     <g id="line2d_9">
      <g>
       <use style="stroke:#000000;stroke-width:0.8;" x="508.940814" xlink:href="#m6923174163" y="525.24"/>
      </g>
     </g>
     <g id="text_9">
      <!-- 9.25 -->
      <g transform="translate(493.354877 542.877813)scale(0.14 -0.14)">
       <use xlink:href="#DejaVuSans-57"/>
       <use x="63.623047" xlink:href="#DejaVuSans-46"/>
       <use x="95.410156" xlink:href="#DejaVuSans-50"/>
       <use x="159.033203" xlink:href="#DejaVuSans-53"/>
      </g>
     </g>
    </g>
   </g>
   <g id="line2d_10">
    <path clip-path="url(#p9884f7306f)" d="M 303.747164 525.24 
L 303.747164 402.93 
" style="fill:none;stroke:#ff6384;stroke-dasharray:5.55,2.4;stroke-dashoffset:0;stroke-opacity:0.8;stroke-width:1.5;"/>
   </g>
   <g id="line2d_11">
    <path clip-path="url(#p9884f7306f)" d="M 249.203764 525.24 
L 249.203764 402.93 
" style="fill:none;stroke:#36a2eb;stroke-dasharray:5.55,2.4;stroke-dashoffset:0;stroke-opacity:0.8;stroke-width:1.5;"/>
   </g>
   <g id="patch_10">
    <path d="M 36 525.24 
L 538.2 525.24 
" style="fill:none;stroke:#000000;stroke-linecap:square;stroke-linejoin:miter;stroke-width:0.8;"/>
   </g>
  </g>
 </g>
 <defs>
  <clipPath id="pbdda40aed7">
   <rect height="366.93" width="502.2" x="36" y="36"/>
  </clipPath>
  <clipPath id="p9884f7306f">
   <rect height="122.31" width="502.2" x="36" y="402.93"/>
  </clipPath>
 </defs>
</svg>
