<?xml version="1.0" encoding="utf-8" standalone="no"?>
<!DOCTYPE svg PUBLIC "-//W3C//DTD SVG 1.1//EN"
  "http://www.w3.org/Graphics/SVG/1.1/DTD/svg11.dtd">
<!-- Created with matplotlib (https://matplotlib.org/) -->
<svg height="581.789375pt" version="1.1" viewBox="0 0 574.2 581.789375" width="574.2pt" xmlns="http://www.w3.org/2000/svg" xmlns:xlink="http://www.w3.org/1999/xlink">
 <defs>
  <style type="text/css">
*{stroke-linecap:butt;stroke-linejoin:round;}
  </style>
 </defs>
 <g id="figure_1">
  <g id="patch_1">
   <path d="M 0 581.789375 
L 574.2 581.789375 
L 574.2 0 
L 0 0 
z
" style="fill:none;"/>
  </g>
  <g id="axes_1">
   <g id="patch_2">
    <path d="M 36 402.93 
L 538.2 402.93 
L 538.2 36 
L 36 36 
z
" style="fill:none;"/>
   </g>
   <g id="PolyCollection_1">
    <defs>
     <path d="M 58.827273 -195.538011 
L 58.827273 -195.630255 
L 63.438843 -195.665039 
L 68.050413 -195.7118 
L 72.661983 -195.774227 
L 77.273554 -195.85699 
L 81.885124 -195.965946 
L 86.496694 -196.108383 
L 91.108264 -196.293282 
L 95.719835 -196.531611 
L 100.331405 -196.836637 
L 104.942975 -197.224257 
L 109.554545 -197.713324 
L 114.166116 -198.325972 
L 118.777686 -199.087907 
L 123.389256 -200.028656 
L 128.000826 -201.181737 
L 132.612397 -202.584733 
L 137.223967 -204.27924 
L 141.835537 -206.310645 
L 146.447107 -208.727726 
L 151.058678 -211.582024 
L 155.670248 -214.926978 
L 160.281818 -218.816801 
L 164.893388 -223.305093 
L 169.504959 -228.443181 
L 174.116529 -234.278235 
L 178.728099 -240.851155 
L 183.339669 -248.194311 
L 187.95124 -256.32919 
L 192.56281 -265.264031 
L 197.17438 -274.991554 
L 201.78595 -285.486886 
L 206.397521 -296.705807 
L 211.009091 -308.583417 
L 215.620661 -321.03336 
L 220.232231 -333.947678 
L 224.843802 -347.197398 
L 229.455372 -360.633896 
L 234.066942 -374.091065 
L 238.678512 -387.388273 
L 243.290083 -400.334068 
L 247.901653 -412.730532 
L 252.513223 -424.37816 
L 257.124793 -435.081107 
L 261.736364 -444.652608 
L 266.347934 -452.920368 
L 270.959504 -459.731707 
L 275.571074 -464.958245 
L 280.182645 -468.499921 
L 284.794215 -470.28818 
L 289.405785 -470.28818 
L 294.017355 -468.499921 
L 298.628926 -464.958245 
L 303.240496 -459.731707 
L 307.852066 -452.920368 
L 312.463636 -444.652608 
L 317.075207 -435.081107 
L 321.686777 -424.37816 
L 326.298347 -412.730532 
L 330.909917 -400.334068 
L 335.521488 -387.388273 
L 340.133058 -374.091065 
L 344.744628 -360.633896 
L 349.356198 -347.197398 
L 353.967769 -333.947678 
L 358.579339 -321.03336 
L 363.190909 -308.583417 
L 367.802479 -296.705807 
L 372.41405 -285.486886 
L 377.02562 -274.991554 
L 381.63719 -265.264031 
L 386.24876 -256.32919 
L 390.860331 -248.194311 
L 395.471901 -240.851155 
L 400.083471 -234.278235 
L 404.695041 -228.443181 
L 409.306612 -223.305093 
L 413.918182 -218.816801 
L 418.529752 -214.926978 
L 423.141322 -211.582024 
L 427.752893 -208.727726 
L 432.364463 -206.310645 
L 436.976033 -204.27924 
L 441.587603 -202.584733 
L 446.199174 -201.181737 
L 450.810744 -200.028656 
L 455.422314 -199.087907 
L 460.033884 -198.325972 
L 464.645455 -197.713324 
L 469.257025 -197.224257 
L 473.868595 -196.836637 
L 478.480165 -196.531611 
L 483.091736 -196.293282 
L 487.703306 -196.108383 
L 492.314876 -195.965946 
L 496.926446 -195.85699 
L 501.538017 -195.774227 
L 506.149587 -195.7118 
L 510.761157 -195.665039 
L 515.372727 -195.630255 
L 515.372727 -195.538011 
L 515.372727 -195.538011 
L 510.761157 -195.538011 
L 506.149587 -195.538011 
L 501.538017 -195.538011 
L 496.926446 -195.538011 
L 492.314876 -195.538011 
L 487.703306 -195.538011 
L 483.091736 -195.538011 
L 478.480165 -195.538011 
L 473.868595 -195.538011 
L 469.257025 -195.538011 
L 464.645455 -195.538011 
L 460.033884 -195.538011 
L 455.422314 -195.538011 
L 450.810744 -195.538011 
L 446.199174 -195.538011 
L 441.587603 -195.538011 
L 436.976033 -195.538011 
L 432.364463 -195.538011 
L 427.752893 -195.538011 
L 423.141322 -195.538011 
L 418.529752 -195.538011 
L 413.918182 -195.538011 
L 409.306612 -195.538011 
L 404.695041 -195.538011 
L 400.083471 -195.538011 
L 395.471901 -195.538011 
L 390.860331 -195.538011 
L 386.24876 -195.538011 
L 381.63719 -195.538011 
L 377.02562 -195.538011 
L 372.41405 -195.538011 
L 367.802479 -195.538011 
L 363.190909 -195.538011 
L 358.579339 -195.538011 
L 353.967769 -195.538011 
L 349.356198 -195.538011 
L 344.744628 -195.538011 
L 340.133058 -195.538011 
L 335.521488 -195.538011 
L 330.909917 -195.538011 
L 326.298347 -195.538011 
L 321.686777 -195.538011 
L 317.075207 -195.538011 
L 312.463636 -195.538011 
L 307.852066 -195.538011 
L 303.240496 -195.538011 
L 298.628926 -195.538011 
L 294.017355 -195.538011 
L 289.405785 -195.538011 
L 284.794215 -195.538011 
L 280.182645 -195.538011 
L 275.571074 -195.538011 
L 270.959504 -195.538011 
L 266.347934 -195.538011 
L 261.736364 -195.538011 
L 257.124793 -195.538011 
L 252.513223 -195.538011 
L 247.901653 -195.538011 
L 243.290083 -195.538011 
L 238.678512 -195.538011 
L 234.066942 -195.538011 
L 229.455372 -195.538011 
L 224.843802 -195.538011 
L 220.232231 -195.538011 
L 215.620661 -195.538011 
L 211.009091 -195.538011 
L 206.397521 -195.538011 
L 201.78595 -195.538011 
L 197.17438 -195.538011 
L 192.56281 -195.538011 
L 187.95124 -195.538011 
L 183.339669 -195.538011 
L 178.728099 -195.538011 
L 174.116529 -195.538011 
L 169.504959 -195.538011 
L 164.893388 -195.538011 
L 160.281818 -195.538011 
L 155.670248 -195.538011 
L 151.058678 -195.538011 
L 146.447107 -195.538011 
L 141.835537 -195.538011 
L 137.223967 -195.538011 
L 132.612397 -195.538011 
L 128.000826 -195.538011 
L 123.389256 -195.538011 
L 118.777686 -195.538011 
L 114.166116 -195.538011 
L 109.554545 -195.538011 
L 104.942975 -195.538011 
L 100.331405 -195.538011 
L 95.719835 -195.538011 
L 91.108264 -195.538011 
L 86.496694 -195.538011 
L 81.885124 -195.538011 
L 77.273554 -195.538011 
L 72.661983 -195.538011 
L 68.050413 -195.538011 
L 63.438843 -195.538011 
L 58.827273 -195.538011 
z
" id="mfa09b1a555" style="stroke:#ff6384;stroke-opacity:0.5;"/>
    </defs>
    <g clip-path="url(#p7a0cac3796)">
     <use style="fill:#ff6384;fill-opacity:0.5;stroke:#ff6384;stroke-opacity:0.5;" x="0" xlink:href="#mfa09b1a555" y="581.789375"/>
    </g>
   </g>
   <g id="PolyCollection_2">
    <defs>
     <path d="M 69.137252 -195.538011 
L 69.137252 -195.650004 
L 72.935613 -195.692234 
L 76.733974 -195.749007 
L 80.532335 -195.8248 
L 84.330697 -195.925281 
L 88.129058 -196.057565 
L 91.927419 -196.230497 
L 95.72578 -196.454982 
L 99.524141 -196.744335 
L 103.322503 -197.114666 
L 107.120864 -197.585273 
L 110.919225 -198.179047 
L 114.717586 -198.922859 
L 118.515947 -199.847921 
L 122.314309 -200.990079 
L 126.11267 -202.390029 
L 129.911031 -204.093399 
L 133.709392 -206.150691 
L 137.507753 -208.617009 
L 141.306115 -211.551575 
L 145.104476 -215.016962 
L 148.902837 -219.078053 
L 152.701198 -223.800667 
L 156.499559 -229.249878 
L 160.297921 -235.488004 
L 164.096282 -242.572312 
L 167.894643 -250.552459 
L 171.693004 -259.467747 
L 175.491365 -269.344261 
L 179.289727 -280.192004 
L 183.088088 -292.002137 
L 186.886449 -304.744465 
L 190.68481 -318.365297 
L 194.483171 -332.785841 
L 198.281533 -347.901251 
L 202.079894 -363.580456 
L 205.878255 -379.666871 
L 209.676616 -395.980052 
L 213.474977 -412.31833 
L 217.273339 -428.4624 
L 221.0717 -444.179822 
L 224.870061 -459.230303 
L 228.668422 -473.371627 
L 232.466783 -486.366018 
L 236.265144 -497.986726 
L 240.063506 -508.02457 
L 243.861867 -516.294181 
L 247.660228 -522.639693 
L 251.458589 -526.939623 
L 255.25695 -529.110739 
L 259.055312 -529.110739 
L 262.853673 -526.939623 
L 266.652034 -522.639693 
L 270.450395 -516.294181 
L 274.248756 -508.02457 
L 278.047118 -497.986726 
L 281.845479 -486.366018 
L 285.64384 -473.371627 
L 289.442201 -459.230303 
L 293.240562 -444.179822 
L 297.038924 -428.4624 
L 300.837285 -412.31833 
L 304.635646 -395.980052 
L 308.434007 -379.666871 
L 312.232368 -363.580456 
L 316.03073 -347.901251 
L 319.829091 -332.785841 
L 323.627452 -318.365297 
L 327.425813 -304.744465 
L 331.224174 -292.002137 
L 335.022536 -280.192004 
L 338.820897 -269.344261 
L 342.619258 -259.467747 
L 346.417619 -250.552459 
L 350.21598 -242.572312 
L 354.014342 -235.488004 
L 357.812703 -229.249878 
L 361.611064 -223.800667 
L 365.409425 -219.078053 
L 369.207786 -215.016962 
L 373.006148 -211.551575 
L 376.804509 -208.617009 
L 380.60287 -206.150691 
L 384.401231 -204.093399 
L 388.199592 -202.390029 
L 391.997953 -200.990079 
L 395.796315 -199.847921 
L 399.594676 -198.922859 
L 403.393037 -198.179047 
L 407.191398 -197.585273 
L 410.989759 -197.114666 
L 414.788121 -196.744335 
L 418.586482 -196.454982 
L 422.384843 -196.230497 
L 426.183204 -196.057565 
L 429.981565 -195.925281 
L 433.779927 -195.8248 
L 437.578288 -195.749007 
L 441.376649 -195.692234 
L 445.17501 -195.650004 
L 445.17501 -195.538011 
L 445.17501 -195.538011 
L 441.376649 -195.538011 
L 437.578288 -195.538011 
L 433.779927 -195.538011 
L 429.981565 -195.538011 
L 426.183204 -195.538011 
L 422.384843 -195.538011 
L 418.586482 -195.538011 
L 414.788121 -195.538011 
L 410.989759 -195.538011 
L 407.191398 -195.538011 
L 403.393037 -195.538011 
L 399.594676 -195.538011 
L 395.796315 -195.538011 
L 391.997953 -195.538011 
L 388.199592 -195.538011 
L 384.401231 -195.538011 
L 380.60287 -195.538011 
L 376.804509 -195.538011 
L 373.006148 -195.538011 
L 369.207786 -195.538011 
L 365.409425 -195.538011 
L 361.611064 -195.538011 
L 357.812703 -195.538011 
L 354.014342 -195.538011 
L 350.21598 -195.538011 
L 346.417619 -195.538011 
L 342.619258 -195.538011 
L 338.820897 -195.538011 
L 335.022536 -195.538011 
L 331.224174 -195.538011 
L 327.425813 -195.538011 
L 323.627452 -195.538011 
L 319.829091 -195.538011 
L 316.03073 -195.538011 
L 312.232368 -195.538011 
L 308.434007 -195.538011 
L 304.635646 -195.538011 
L 300.837285 -195.538011 
L 297.038924 -195.538011 
L 293.240562 -195.538011 
L 289.442201 -195.538011 
L 285.64384 -195.538011 
L 281.845479 -195.538011 
L 278.047118 -195.538011 
L 274.248756 -195.538011 
L 270.450395 -195.538011 
L 266.652034 -195.538011 
L 262.853673 -195.538011 
L 259.055312 -195.538011 
L 255.25695 -195.538011 
L 251.458589 -195.538011 
L 247.660228 -195.538011 
L 243.861867 -195.538011 
L 240.063506 -195.538011 
L 236.265144 -195.538011 
L 232.466783 -195.538011 
L 228.668422 -195.538011 
L 224.870061 -195.538011 
L 221.0717 -195.538011 
L 217.273339 -195.538011 
L 213.474977 -195.538011 
L 209.676616 -195.538011 
L 205.878255 -195.538011 
L 202.079894 -195.538011 
L 198.281533 -195.538011 
L 194.483171 -195.538011 
L 190.68481 -195.538011 
L 186.886449 -195.538011 
L 183.088088 -195.538011 
L 179.289727 -195.538011 
L 175.491365 -195.538011 
L 171.693004 -195.538011 
L 167.894643 -195.538011 
L 164.096282 -195.538011 
L 160.297921 -195.538011 
L 156.499559 -195.538011 
L 152.701198 -195.538011 
L 148.902837 -195.538011 
L 145.104476 -195.538011 
L 141.306115 -195.538011 
L 137.507753 -195.538011 
L 133.709392 -195.538011 
L 129.911031 -195.538011 
L 126.11267 -195.538011 
L 122.314309 -195.538011 
L 118.515947 -195.538011 
L 114.717586 -195.538011 
L 110.919225 -195.538011 
L 107.120864 -195.538011 
L 103.322503 -195.538011 
L 99.524141 -195.538011 
L 95.72578 -195.538011 
L 91.927419 -195.538011 
L 88.129058 -195.538011 
L 84.330697 -195.538011 
L 80.532335 -195.538011 
L 76.733974 -195.538011 
L 72.935613 -195.538011 
L 69.137252 -195.538011 
z
" id="m2ba6ebeebc" style="stroke:#36a2eb;stroke-opacity:0.5;"/>
    </defs>
    <g clip-path="url(#p7a0cac3796)">
     <use style="fill:#36a2eb;fill-opacity:0.5;stroke:#36a2eb;stroke-opacity:0.5;" x="0" xlink:href="#m2ba6ebeebc" y="581.789375"/>
    </g>
   </g>
   <g id="line2d_1">
    <path clip-path="url(#p7a0cac3796)" d="M 58.827273 386.15912 
L 63.438843 386.124336 
L 68.050413 386.077575 
L 72.661983 386.015148 
L 77.273554 385.932385 
L 81.885124 385.823429 
L 86.496694 385.680992 
L 91.108264 385.496093 
L 95.719835 385.257764 
L 100.331405 384.952738 
L 104.942975 384.565118 
L 109.554545 384.076051 
L 114.166116 383.463403 
L 118.777686 382.701468 
L 123.389256 381.760719 
L 128.000826 380.607638 
L 132.612397 379.204642 
L 137.223967 377.510135 
L 141.835537 375.47873 
L 146.447107 373.061649 
L 151.058678 370.207351 
L 155.670248 366.862397 
L 160.281818 362.972574 
L 164.893388 358.484282 
L 169.504959 353.346194 
L 174.116529 347.51114 
L 178.728099 340.93822 
L 183.339669 333.595064 
L 187.95124 325.460185 
L 192.56281 316.525344 
L 197.17438 306.797821 
L 201.78595 296.302489 
L 206.397521 285.083568 
L 211.009091 273.205958 
L 215.620661 260.756015 
L 220.232231 247.841697 
L 224.843802 234.591977 
L 229.455372 221.155479 
L 234.066942 207.69831 
L 238.678512 194.401102 
L 243.290083 181.455307 
L 247.901653 169.058843 
L 252.513223 157.411215 
L 257.124793 146.708268 
L 261.736364 137.136767 
L 266.347934 128.869007 
L 270.959504 122.057668 
L 275.571074 116.83113 
L 280.182645 113.289454 
L 284.794215 111.501195 
L 289.405785 111.501195 
L 294.017355 113.289454 
L 298.628926 116.83113 
L 303.240496 122.057668 
L 307.852066 128.869007 
L 312.463636 137.136767 
L 317.075207 146.708268 
L 321.686777 157.411215 
L 326.298347 169.058843 
L 330.909917 181.455307 
L 335.521488 194.401102 
L 340.133058 207.69831 
L 344.744628 221.155479 
L 349.356198 234.591977 
L 353.967769 247.841697 
L 358.579339 260.756015 
L 363.190909 273.205958 
L 367.802479 285.083568 
L 372.41405 296.302489 
L 377.02562 306.797821 
L 381.63719 316.525344 
L 386.24876 325.460185 
L 390.860331 333.595064 
L 395.471901 340.93822 
L 400.083471 347.51114 
L 404.695041 353.346194 
L 409.306612 358.484282 
L 413.918182 362.972574 
L 418.529752 366.862397 
L 423.141322 370.207351 
L 427.752893 373.061649 
L 432.364463 375.47873 
L 436.976033 377.510135 
L 441.587603 379.204642 
L 446.199174 380.607638 
L 450.810744 381.760719 
L 455.422314 382.701468 
L 460.033884 383.463403 
L 464.645455 384.076051 
L 469.257025 384.565118 
L 473.868595 384.952738 
L 478.480165 385.257764 
L 483.091736 385.496093 
L 487.703306 385.680992 
L 492.314876 385.823429 
L 496.926446 385.932385 
L 501.538017 386.015148 
L 506.149587 386.077575 
L 510.761157 386.124336 
L 515.372727 386.15912 
" style="fill:none;stroke:#ff6384;stroke-linecap:square;"/>
   </g>
   <g id="line2d_2">
    <path clip-path="url(#p7a0cac3796)" d="M 69.137252 386.139371 
L 72.935613 386.097141 
L 76.733974 386.040368 
L 80.532335 385.964575 
L 84.330697 385.864094 
L 88.129058 385.73181 
L 91.927419 385.558878 
L 95.72578 385.334393 
L 99.524141 385.04504 
L 103.322503 384.674709 
L 107.120864 384.204102 
L 110.919225 383.610328 
L 114.717586 382.866516 
L 118.515947 381.941454 
L 122.314309 380.799296 
L 126.11267 379.399346 
L 129.911031 377.695976 
L 133.709392 375.638684 
L 137.507753 373.172366 
L 141.306115 370.2378 
L 145.104476 366.772413 
L 148.902837 362.711322 
L 152.701198 357.988708 
L 156.499559 352.539497 
L 160.297921 346.301371 
L 164.096282 339.217063 
L 167.894643 331.236916 
L 171.693004 322.321628 
L 175.491365 312.445114 
L 179.289727 301.597371 
L 183.088088 289.787238 
L 186.886449 277.04491 
L 190.68481 263.424078 
L 194.483171 249.003534 
L 198.281533 233.888124 
L 202.079894 218.208919 
L 205.878255 202.122504 
L 209.676616 185.809323 
L 213.474977 169.471045 
L 217.273339 153.326975 
L 221.0717 137.609553 
L 224.870061 122.559072 
L 228.668422 108.417748 
L 232.466783 95.423357 
L 236.265144 83.802649 
L 240.063506 73.764805 
L 243.861867 65.495194 
L 247.660228 59.149682 
L 251.458589 54.849752 
L 255.25695 52.678636 
L 259.055312 52.678636 
L 262.853673 54.849752 
L 266.652034 59.149682 
L 270.450395 65.495194 
L 274.248756 73.764805 
L 278.047118 83.802649 
L 281.845479 95.423357 
L 285.64384 108.417748 
L 289.442201 122.559072 
L 293.240562 137.609553 
L 297.038924 153.326975 
L 300.837285 169.471045 
L 304.635646 185.809323 
L 308.434007 202.122504 
L 312.232368 218.208919 
L 316.03073 233.888124 
L 319.829091 249.003534 
L 323.627452 263.424078 
L 327.425813 277.04491 
L 331.224174 289.787238 
L 335.022536 301.597371 
L 338.820897 312.445114 
L 342.619258 322.321628 
L 346.417619 331.236916 
L 350.21598 339.217063 
L 354.014342 346.301371 
L 357.812703 352.539497 
L 361.611064 357.988708 
L 365.409425 362.711322 
L 369.207786 366.772413 
L 373.006148 370.2378 
L 376.804509 373.172366 
L 380.60287 375.638684 
L 384.401231 377.695976 
L 388.199592 379.399346 
L 391.997953 380.799296 
L 395.796315 381.941454 
L 399.594676 382.866516 
L 403.393037 383.610328 
L 407.191398 384.204102 
L 410.989759 384.674709 
L 414.788121 385.04504 
L 418.586482 385.334393 
L 422.384843 385.558878 
L 426.183204 385.73181 
L 429.981565 385.864094 
L 433.779927 385.964575 
L 437.578288 386.040368 
L 441.376649 386.097141 
L 445.17501 386.139371 
" style="fill:none;stroke:#36a2eb;stroke-linecap:square;"/>
   </g>
   <g id="patch_3">
    <path d="M 36 402.93 
L 538.2 402.93 
" style="fill:none;stroke:#000000;stroke-linecap:square;stroke-linejoin:miter;stroke-width:0.8;"/>
   </g>
   <g id="legend_1">
    <g id="patch_4">
     <path d="M 430.8725 88.29875 
L 528.4 88.29875 
Q 531.2 88.29875 531.2 85.49875 
L 531.2 45.8 
Q 531.2 43 528.4 43 
L 430.8725 43 
Q 428.0725 43 428.0725 45.8 
L 428.0725 85.49875 
Q 428.0725 88.29875 430.8725 88.29875 
z
" style="fill:#ffffff;opacity:0.8;stroke:#cccccc;stroke-linejoin:miter;"/>
    </g>
    <g id="patch_5">
     <path d="M 433.6725 59.237813 
L 461.6725 59.237813 
L 461.6725 49.437813 
L 433.6725 49.437813 
z
" style="fill:#ff6384;opacity:0.5;stroke:#ff6384;stroke-linejoin:miter;"/>
    </g>
    <g id="text_1">
     <!-- base -->
     <defs>
      <path d="M 48.6875 27.296875 
Q 48.6875 37.203125 44.609375 42.84375 
Q 40.53125 48.484375 33.40625 48.484375 
Q 26.265625 48.484375 22.1875 42.84375 
Q 18.109375 37.203125 18.109375 27.296875 
Q 18.109375 17.390625 22.1875 11.75 
Q 26.265625 6.109375 33.40625 6.109375 
Q 40.53125 6.109375 44.609375 11.75 
Q 48.6875 17.390625 48.6875 27.296875 
z
M 18.109375 46.390625 
Q 20.953125 51.265625 25.265625 53.625 
Q 29.59375 56 35.59375 56 
Q 45.5625 56 51.78125 48.09375 
Q 58.015625 40.1875 58.015625 27.296875 
Q 58.015625 14.40625 51.78125 6.484375 
Q 45.5625 -1.421875 35.59375 -1.421875 
Q 29.59375 -1.421875 25.265625 0.953125 
Q 20.953125 3.328125 18.109375 8.203125 
L 18.109375 0 
L 9.078125 0 
L 9.078125 75.984375 
L 18.109375 75.984375 
z
" id="DejaVuSans-98"/>
      <path d="M 34.28125 27.484375 
Q 23.390625 27.484375 19.1875 25 
Q 14.984375 22.515625 14.984375 16.5 
Q 14.984375 11.71875 18.140625 8.90625 
Q 21.296875 6.109375 26.703125 6.109375 
Q 34.1875 6.109375 38.703125 11.40625 
Q 43.21875 16.703125 43.21875 25.484375 
L 43.21875 27.484375 
z
M 52.203125 31.203125 
L 52.203125 0 
L 43.21875 0 
L 43.21875 8.296875 
Q 40.140625 3.328125 35.546875 0.953125 
Q 30.953125 -1.421875 24.3125 -1.421875 
Q 15.921875 -1.421875 10.953125 3.296875 
Q 6 8.015625 6 15.921875 
Q 6 25.140625 12.171875 29.828125 
Q 18.359375 34.515625 30.609375 34.515625 
L 43.21875 34.515625 
L 43.21875 35.40625 
Q 43.21875 41.609375 39.140625 45 
Q 35.0625 48.390625 27.6875 48.390625 
Q 23 48.390625 18.546875 47.265625 
Q 14.109375 46.140625 10.015625 43.890625 
L 10.015625 52.203125 
Q 14.9375 54.109375 19.578125 55.046875 
Q 24.21875 56 28.609375 56 
Q 40.484375 56 46.34375 49.84375 
Q 52.203125 43.703125 52.203125 31.203125 
z
" id="DejaVuSans-97"/>
      <path d="M 44.28125 53.078125 
L 44.28125 44.578125 
Q 40.484375 46.53125 36.375 47.5 
Q 32.28125 48.484375 27.875 48.484375 
Q 21.1875 48.484375 17.84375 46.4375 
Q 14.5 44.390625 14.5 40.28125 
Q 14.5 37.15625 16.890625 35.375 
Q 19.28125 33.59375 26.515625 31.984375 
L 29.59375 31.296875 
Q 39.15625 29.25 43.1875 25.515625 
Q 47.21875 21.78125 47.21875 15.09375 
Q 47.21875 7.46875 41.1875 3.015625 
Q 35.15625 -1.421875 24.609375 -1.421875 
Q 20.21875 -1.421875 15.453125 -0.5625 
Q 10.6875 0.296875 5.421875 2 
L 5.421875 11.28125 
Q 10.40625 8.6875 15.234375 7.390625 
Q 20.0625 6.109375 24.8125 6.109375 
Q 31.15625 6.109375 34.5625 8.28125 
Q 37.984375 10.453125 37.984375 14.40625 
Q 37.984375 18.0625 35.515625 20.015625 
Q 33.0625 21.96875 24.703125 23.78125 
L 21.578125 24.515625 
Q 13.234375 26.265625 9.515625 29.90625 
Q 5.8125 33.546875 5.8125 39.890625 
Q 5.8125 47.609375 11.28125 51.796875 
Q 16.75 56 26.8125 56 
Q 31.78125 56 36.171875 55.265625 
Q 40.578125 54.546875 44.28125 53.078125 
z
" id="DejaVuSans-115"/>
      <path d="M 56.203125 29.59375 
L 56.203125 25.203125 
L 14.890625 25.203125 
Q 15.484375 15.921875 20.484375 11.0625 
Q 25.484375 6.203125 34.421875 6.203125 
Q 39.59375 6.203125 44.453125 7.46875 
Q 49.3125 8.734375 54.109375 11.28125 
L 54.109375 2.78125 
Q 49.265625 0.734375 44.1875 -0.34375 
Q 39.109375 -1.421875 33.890625 -1.421875 
Q 20.796875 -1.421875 13.15625 6.1875 
Q 5.515625 13.8125 5.515625 26.8125 
Q 5.515625 40.234375 12.765625 48.109375 
Q 20.015625 56 32.328125 56 
Q 43.359375 56 49.78125 48.890625 
Q 56.203125 41.796875 56.203125 29.59375 
z
M 47.21875 32.234375 
Q 47.125 39.59375 43.09375 43.984375 
Q 39.0625 48.390625 32.421875 48.390625 
Q 24.90625 48.390625 20.390625 44.140625 
Q 15.875 39.890625 15.1875 32.171875 
z
" id="DejaVuSans-101"/>
     </defs>
     <g transform="translate(472.8725 59.237813)scale(0.14 -0.14)">
      <use xlink:href="#DejaVuSans-98"/>
      <use x="63.476562" xlink:href="#DejaVuSans-97"/>
      <use x="124.755859" xlink:href="#DejaVuSans-115"/>
      <use x="176.855469" xlink:href="#DejaVuSans-101"/>
     </g>
    </g>
    <g id="patch_6">
     <path d="M 433.6725 79.787188 
L 461.6725 79.787188 
L 461.6725 69.987188 
L 433.6725 69.987188 
z
" style="fill:#36a2eb;opacity:0.5;stroke:#36a2eb;stroke-linejoin:miter;"/>
    </g>
    <g id="text_2">
     <!-- policies -->
     <defs>
      <path d="M 18.109375 8.203125 
L 18.109375 -20.796875 
L 9.078125 -20.796875 
L 9.078125 54.6875 
L 18.109375 54.6875 
L 18.109375 46.390625 
Q 20.953125 51.265625 25.265625 53.625 
Q 29.59375 56 35.59375 56 
Q 45.5625 56 51.78125 48.09375 
Q 58.015625 40.1875 58.015625 27.296875 
Q 58.015625 14.40625 51.78125 6.484375 
Q 45.5625 -1.421875 35.59375 -1.421875 
Q 29.59375 -1.421875 25.265625 0.953125 
Q 20.953125 3.328125 18.109375 8.203125 
z
M 48.6875 27.296875 
Q 48.6875 37.203125 44.609375 42.84375 
Q 40.53125 48.484375 33.40625 48.484375 
Q 26.265625 48.484375 22.1875 42.84375 
Q 18.109375 37.203125 18.109375 27.296875 
Q 18.109375 17.390625 22.1875 11.75 
Q 26.265625 6.109375 33.40625 6.109375 
Q 40.53125 6.109375 44.609375 11.75 
Q 48.6875 17.390625 48.6875 27.296875 
z
" id="DejaVuSans-112"/>
      <path d="M 30.609375 48.390625 
Q 23.390625 48.390625 19.1875 42.75 
Q 14.984375 37.109375 14.984375 27.296875 
Q 14.984375 17.484375 19.15625 11.84375 
Q 23.34375 6.203125 30.609375 6.203125 
Q 37.796875 6.203125 41.984375 11.859375 
Q 46.1875 17.53125 46.1875 27.296875 
Q 46.1875 37.015625 41.984375 42.703125 
Q 37.796875 48.390625 30.609375 48.390625 
z
M 30.609375 56 
Q 42.328125 56 49.015625 48.375 
Q 55.71875 40.765625 55.71875 27.296875 
Q 55.71875 13.875 49.015625 6.21875 
Q 42.328125 -1.421875 30.609375 -1.421875 
Q 18.84375 -1.421875 12.171875 6.21875 
Q 5.515625 13.875 5.515625 27.296875 
Q 5.515625 40.765625 12.171875 48.375 
Q 18.84375 56 30.609375 56 
z
" id="DejaVuSans-111"/>
      <path d="M 9.421875 75.984375 
L 18.40625 75.984375 
L 18.40625 0 
L 9.421875 0 
z
" id="DejaVuSans-108"/>
      <path d="M 9.421875 54.6875 
L 18.40625 54.6875 
L 18.40625 0 
L 9.421875 0 
z
M 9.421875 75.984375 
L 18.40625 75.984375 
L 18.40625 64.59375 
L 9.421875 64.59375 
z
" id="DejaVuSans-105"/>
      <path d="M 48.78125 52.59375 
L 48.78125 44.1875 
Q 44.96875 46.296875 41.140625 47.34375 
Q 37.3125 48.390625 33.40625 48.390625 
Q 24.65625 48.390625 19.8125 42.84375 
Q 14.984375 37.3125 14.984375 27.296875 
Q 14.984375 17.28125 19.8125 11.734375 
Q 24.65625 6.203125 33.40625 6.203125 
Q 37.3125 6.203125 41.140625 7.25 
Q 44.96875 8.296875 48.78125 10.40625 
L 48.78125 2.09375 
Q 45.015625 0.34375 40.984375 -0.53125 
Q 36.96875 -1.421875 32.421875 -1.421875 
Q 20.0625 -1.421875 12.78125 6.34375 
Q 5.515625 14.109375 5.515625 27.296875 
Q 5.515625 40.671875 12.859375 48.328125 
Q 20.21875 56 33.015625 56 
Q 37.15625 56 41.109375 55.140625 
Q 45.0625 54.296875 48.78125 52.59375 
z
" id="DejaVuSans-99"/>
     </defs>
     <g transform="translate(472.8725 79.787188)scale(0.14 -0.14)">
      <use xlink:href="#DejaVuSans-112"/>
      <use x="63.476562" xlink:href="#DejaVuSans-111"/>
      <use x="124.658203" xlink:href="#DejaVuSans-108"/>
      <use x="152.441406" xlink:href="#DejaVuSans-105"/>
      <use x="180.224609" xlink:href="#DejaVuSans-99"/>
      <use x="235.205078" xlink:href="#DejaVuSans-105"/>
      <use x="262.988281" xlink:href="#DejaVuSans-101"/>
      <use x="324.511719" xlink:href="#DejaVuSans-115"/>
     </g>
    </g>
   </g>
  </g>
  <g id="axes_2">
   <g id="patch_7">
    <path d="M 36 525.24 
L 538.2 525.24 
L 538.2 402.93 
L 36 402.93 
z
" style="fill:none;"/>
   </g>
   <g id="patch_8">
    <path clip-path="url(#pfb73079414)" d="M 175.246364 519.680455 
L 398.953636 519.680455 
L 398.953636 482.616818 
L 175.246364 482.616818 
z
" style="fill:#ff6384;opacity:0.5;"/>
   </g>
   <g id="patch_9">
    <path clip-path="url(#pfb73079414)" d="M 165.02688 445.553182 
L 349.285382 445.553182 
L 349.285382 408.489545 
L 165.02688 408.489545 
z
" style="fill:#36a2eb;opacity:0.5;"/>
   </g>
   <g id="matplotlib.axis_1">
    <g id="xtick_1">
     <g id="line2d_3">
      <defs>
       <path d="M 0 0 
L 0 3.5 
" id="m2ed5ba0ed9" style="stroke:#000000;stroke-width:0.8;"/>
      </defs>
      <g>
       <use style="stroke:#000000;stroke-width:0.8;" x="92.116667" xlink:href="#m2ed5ba0ed9" y="525.24"/>
      </g>
     </g>
     <g id="text_3">
      <!-- 2.25 -->
      <defs>
       <path d="M 19.1875 8.296875 
L 53.609375 8.296875 
L 53.609375 0 
L 7.328125 0 
L 7.328125 8.296875 
Q 12.9375 14.109375 22.625 23.890625 
Q 32.328125 33.6875 34.8125 36.53125 
Q 39.546875 41.84375 41.421875 45.53125 
Q 43.3125 49.21875 43.3125 52.78125 
Q 43.3125 58.59375 39.234375 62.25 
Q 35.15625 65.921875 28.609375 65.921875 
Q 23.96875 65.921875 18.8125 64.3125 
Q 13.671875 62.703125 7.8125 59.421875 
L 7.8125 69.390625 
Q 13.765625 71.78125 18.9375 73 
Q 24.125 74.21875 28.421875 74.21875 
Q 39.75 74.21875 46.484375 68.546875 
Q 53.21875 62.890625 53.21875 53.421875 
Q 53.21875 48.921875 51.53125 44.890625 
Q 49.859375 40.875 45.40625 35.40625 
Q 44.1875 33.984375 37.640625 27.21875 
Q 31.109375 20.453125 19.1875 8.296875 
z
" id="DejaVuSans-50"/>
       <path d="M 10.6875 12.40625 
L 21 12.40625 
L 21 0 
L 10.6875 0 
z
" id="DejaVuSans-46"/>
       <path d="M 10.796875 72.90625 
L 49.515625 72.90625 
L 49.515625 64.59375 
L 19.828125 64.59375 
L 19.828125 46.734375 
Q 21.96875 47.46875 24.109375 47.828125 
Q 26.265625 48.1875 28.421875 48.1875 
Q 40.625 48.1875 47.75 41.5 
Q 54.890625 34.8125 54.890625 23.390625 
Q 54.890625 11.625 47.5625 5.09375 
Q 40.234375 -1.421875 26.90625 -1.421875 
Q 22.3125 -1.421875 17.546875 -0.640625 
Q 12.796875 0.140625 7.71875 1.703125 
L 7.71875 11.625 
Q 12.109375 9.234375 16.796875 8.0625 
Q 21.484375 6.890625 26.703125 6.890625 
Q 35.15625 6.890625 40.078125 11.328125 
Q 45.015625 15.765625 45.015625 23.390625 
Q 45.015625 31 40.078125 35.4375 
Q 35.15625 39.890625 26.703125 39.890625 
Q 22.75 39.890625 18.8125 39.015625 
Q 14.890625 38.140625 10.796875 36.28125 
z
" id="DejaVuSans-53"/>
      </defs>
      <g transform="translate(76.53073 542.877813)scale(0.14 -0.14)">
       <use xlink:href="#DejaVuSans-50"/>
       <use x="63.623047" xlink:href="#DejaVuSans-46"/>
       <use x="95.410156" xlink:href="#DejaVuSans-50"/>
       <use x="159.033203" xlink:href="#DejaVuSans-53"/>
      </g>
     </g>
    </g>
    <g id="xtick_2">
     <g id="line2d_4">
      <g>
       <use style="stroke:#000000;stroke-width:0.8;" x="159.075229" xlink:href="#m2ed5ba0ed9" y="525.24"/>
      </g>
     </g>
     <g id="text_4">
      <!-- 2.50 -->
      <defs>
       <path d="M 31.78125 66.40625 
Q 24.171875 66.40625 20.328125 58.90625 
Q 16.5 51.421875 16.5 36.375 
Q 16.5 21.390625 20.328125 13.890625 
Q 24.171875 6.390625 31.78125 6.390625 
Q 39.453125 6.390625 43.28125 13.890625 
Q 47.125 21.390625 47.125 36.375 
Q 47.125 51.421875 43.28125 58.90625 
Q 39.453125 66.40625 31.78125 66.40625 
z
M 31.78125 74.21875 
Q 44.046875 74.21875 50.515625 64.515625 
Q 56.984375 54.828125 56.984375 36.375 
Q 56.984375 17.96875 50.515625 8.265625 
Q 44.046875 -1.421875 31.78125 -1.421875 
Q 19.53125 -1.421875 13.0625 8.265625 
Q 6.59375 17.96875 6.59375 36.375 
Q 6.59375 54.828125 13.0625 64.515625 
Q 19.53125 74.21875 31.78125 74.21875 
z
" id="DejaVuSans-48"/>
      </defs>
      <g transform="translate(143.489292 542.877813)scale(0.14 -0.14)">
       <use xlink:href="#DejaVuSans-50"/>
       <use x="63.623047" xlink:href="#DejaVuSans-46"/>
       <use x="95.410156" xlink:href="#DejaVuSans-53"/>
       <use x="159.033203" xlink:href="#DejaVuSans-48"/>
      </g>
     </g>
    </g>
    <g id="xtick_3">
     <g id="line2d_5">
      <g>
       <use style="stroke:#000000;stroke-width:0.8;" x="226.033791" xlink:href="#m2ed5ba0ed9" y="525.24"/>
      </g>
     </g>
     <g id="text_5">
      <!-- 2.75 -->
      <defs>
       <path d="M 8.203125 72.90625 
L 55.078125 72.90625 
L 55.078125 68.703125 
L 28.609375 0 
L 18.3125 0 
L 43.21875 64.59375 
L 8.203125 64.59375 
z
" id="DejaVuSans-55"/>
      </defs>
      <g transform="translate(210.447854 542.877813)scale(0.14 -0.14)">
       <use xlink:href="#DejaVuSans-50"/>
       <use x="63.623047" xlink:href="#DejaVuSans-46"/>
       <use x="95.410156" xlink:href="#DejaVuSans-55"/>
       <use x="159.033203" xlink:href="#DejaVuSans-53"/>
      </g>
     </g>
    </g>
    <g id="xtick_4">
     <g id="line2d_6">
      <g>
       <use style="stroke:#000000;stroke-width:0.8;" x="292.992353" xlink:href="#m2ed5ba0ed9" y="525.24"/>
      </g>
     </g>
     <g id="text_6">
      <!-- 3.00 -->
      <defs>
       <path d="M 40.578125 39.3125 
Q 47.65625 37.796875 51.625 33 
Q 55.609375 28.21875 55.609375 21.1875 
Q 55.609375 10.40625 48.1875 4.484375 
Q 40.765625 -1.421875 27.09375 -1.421875 
Q 22.515625 -1.421875 17.65625 -0.515625 
Q 12.796875 0.390625 7.625 2.203125 
L 7.625 11.71875 
Q 11.71875 9.328125 16.59375 8.109375 
Q 21.484375 6.890625 26.8125 6.890625 
Q 36.078125 6.890625 40.9375 10.546875 
Q 45.796875 14.203125 45.796875 21.1875 
Q 45.796875 27.640625 41.28125 31.265625 
Q 36.765625 34.90625 28.71875 34.90625 
L 20.21875 34.90625 
L 20.21875 43.015625 
L 29.109375 43.015625 
Q 36.375 43.015625 40.234375 45.921875 
Q 44.09375 48.828125 44.09375 54.296875 
Q 44.09375 59.90625 40.109375 62.90625 
Q 36.140625 65.921875 28.71875 65.921875 
Q 24.65625 65.921875 20.015625 65.03125 
Q 15.375 64.15625 9.8125 62.3125 
L 9.8125 71.09375 
Q 15.4375 72.65625 20.34375 73.4375 
Q 25.25 74.21875 29.59375 74.21875 
Q 40.828125 74.21875 47.359375 69.109375 
Q 53.90625 64.015625 53.90625 55.328125 
Q 53.90625 49.265625 50.4375 45.09375 
Q 46.96875 40.921875 40.578125 39.3125 
z
" id="DejaVuSans-51"/>
      </defs>
      <g transform="translate(277.406416 542.877813)scale(0.14 -0.14)">
       <use xlink:href="#DejaVuSans-51"/>
       <use x="63.623047" xlink:href="#DejaVuSans-46"/>
       <use x="95.410156" xlink:href="#DejaVuSans-48"/>
       <use x="159.033203" xlink:href="#DejaVuSans-48"/>
      </g>
     </g>
    </g>
    <g id="xtick_5">
     <g id="line2d_7">
      <g>
       <use style="stroke:#000000;stroke-width:0.8;" x="359.950916" xlink:href="#m2ed5ba0ed9" y="525.24"/>
      </g>
     </g>
     <g id="text_7">
      <!-- 3.25 -->
      <g transform="translate(344.364978 542.877813)scale(0.14 -0.14)">
       <use xlink:href="#DejaVuSans-51"/>
       <use x="63.623047" xlink:href="#DejaVuSans-46"/>
       <use x="95.410156" xlink:href="#DejaVuSans-50"/>
       <use x="159.033203" xlink:href="#DejaVuSans-53"/>
      </g>
     </g>
    </g>
    <g id="xtick_6">
     <g id="line2d_8">
      <g>
       <use style="stroke:#000000;stroke-width:0.8;" x="426.909478" xlink:href="#m2ed5ba0ed9" y="525.24"/>
      </g>
     </g>
     <g id="text_8">
      <!-- 3.50 -->
      <g transform="translate(411.32354 542.877813)scale(0.14 -0.14)">
       <use xlink:href="#DejaVuSans-51"/>
       <use x="63.623047" xlink:href="#DejaVuSans-46"/>
       <use x="95.410156" xlink:href="#DejaVuSans-53"/>
       <use x="159.033203" xlink:href="#DejaVuSans-48"/>
      </g>
     </g>
    </g>
    <g id="xtick_7">
     <g id="line2d_9">
      <g>
       <use style="stroke:#000000;stroke-width:0.8;" x="493.86804" xlink:href="#m2ed5ba0ed9" y="525.24"/>
      </g>
     </g>
     <g id="text_9">
      <!-- 3.75 -->
      <g transform="translate(478.282102 542.877813)scale(0.14 -0.14)">
       <use xlink:href="#DejaVuSans-51"/>
       <use x="63.623047" xlink:href="#DejaVuSans-46"/>
       <use x="95.410156" xlink:href="#DejaVuSans-55"/>
       <use x="159.033203" xlink:href="#DejaVuSans-53"/>
      </g>
     </g>
    </g>
   </g>
   <g id="line2d_10">
    <path clip-path="url(#pfb73079414)" d="M 287.1 525.24 
L 287.1 402.93 
" style="fill:none;stroke:#ff6384;stroke-dasharray:5.55,2.4;stroke-dashoffset:0;stroke-opacity:0.8;stroke-width:1.5;"/>
   </g>
   <g id="line2d_11">
    <path clip-path="url(#pfb73079414)" d="M 257.156131 525.24 
L 257.156131 402.93 
" style="fill:none;stroke:#36a2eb;stroke-dasharray:5.55,2.4;stroke-dashoffset:0;stroke-opacity:0.8;stroke-width:1.5;"/>
   </g>
   <g id="patch_10">
    <path d="M 36 525.24 
L 538.2 525.24 
" style="fill:none;stroke:#000000;stroke-linecap:square;stroke-linejoin:miter;stroke-width:0.8;"/>
   </g>
  </g>
 </g>
 <defs>
  <clipPath id="p7a0cac3796">
   <rect height="366.93" width="502.2" x="36" y="36"/>
  </clipPath>
  <clipPath id="pfb73079414">
   <rect height="122.31" width="502.2" x="36" y="402.93"/>
  </clipPath>
 </defs>
</svg>
