<?xml version="1.0" encoding="utf-8" standalone="no"?>
<!DOCTYPE svg PUBLIC "-//W3C//DTD SVG 1.1//EN"
  "http://www.w3.org/Graphics/SVG/1.1/DTD/svg11.dtd">
<!-- Created with matplotlib (https://matplotlib.org/) -->
<svg height="581.789375pt" version="1.1" viewBox="0 0 574.2 581.789375" width="574.2pt" xmlns="http://www.w3.org/2000/svg" xmlns:xlink="http://www.w3.org/1999/xlink">
 <defs>
  <style type="text/css">
*{stroke-linecap:butt;stroke-linejoin:round;}
  </style>
 </defs>
 <g id="figure_1">
  <g id="patch_1">
   <path d="M 0 581.789375 
L 574.2 581.789375 
L 574.2 0 
L 0 0 
z
" style="fill:none;"/>
  </g>
  <g id="axes_1">
   <g id="patch_2">
    <path d="M 36 402.93 
L 538.2 402.93 
L 538.2 36 
L 36 36 
z
" style="fill:none;"/>
   </g>
   <g id="PolyCollection_1">
    <defs>
     <path d="M 58.827273 -195.538011 
L 58.827273 -195.649717 
L 63.36872 -195.691839 
L 67.910167 -195.748466 
L 72.451614 -195.824065 
L 76.993061 -195.924289 
L 81.534508 -196.056233 
L 86.075955 -196.228722 
L 90.617402 -196.452632 
L 95.158849 -196.741244 
L 99.700296 -197.110626 
L 104.241743 -197.580027 
L 108.78319 -198.172279 
L 113.324637 -198.914185 
L 117.866084 -199.836876 
L 122.407531 -200.976108 
L 126.948978 -202.372469 
L 131.490425 -204.071475 
L 136.031872 -206.123495 
L 140.573319 -208.583493 
L 145.114766 -211.510538 
L 149.656213 -214.967045 
L 154.19766 -219.017729 
L 158.739107 -223.728241 
L 163.280555 -229.163487 
L 167.822002 -235.385627 
L 172.363449 -242.451781 
L 176.904896 -250.411478 
L 181.446343 -259.303919 
L 185.98779 -269.155123 
L 190.529237 -279.975067 
L 195.070684 -291.754936 
L 199.612131 -304.46461 
L 204.153578 -318.050537 
L 208.695025 -332.434127 
L 213.236472 -347.510801 
L 217.777919 -363.149826 
L 222.319366 -379.195018 
L 226.860813 -395.466395 
L 231.40226 -411.762804 
L 235.943707 -427.865503 
L 240.485154 -443.542647 
L 245.026601 -458.554559 
L 249.568048 -472.659644 
L 254.109495 -485.620736 
L 258.650942 -497.211664 
L 263.192389 -507.223785 
L 267.733836 -515.472204 
L 272.275283 -521.801455 
L 276.81673 -526.090366 
L 281.358177 -528.255918 
L 285.899624 -528.255918 
L 290.441072 -526.090366 
L 294.982519 -521.801455 
L 299.523966 -515.472204 
L 304.065413 -507.223785 
L 308.60686 -497.211664 
L 313.148307 -485.620736 
L 317.689754 -472.659644 
L 322.231201 -458.554559 
L 326.772648 -443.542647 
L 331.314095 -427.865503 
L 335.855542 -411.762804 
L 340.396989 -395.466395 
L 344.938436 -379.195018 
L 349.479883 -363.149826 
L 354.02133 -347.510801 
L 358.562777 -332.434127 
L 363.104224 -318.050537 
L 367.645671 -304.46461 
L 372.187118 -291.754936 
L 376.728565 -279.975067 
L 381.270012 -269.155123 
L 385.811459 -259.303919 
L 390.352906 -250.411478 
L 394.894353 -242.451781 
L 399.4358 -235.385627 
L 403.977247 -229.163487 
L 408.518694 -223.728241 
L 413.060141 -219.017729 
L 417.601588 -214.967045 
L 422.143036 -211.510538 
L 426.684483 -208.583493 
L 431.22593 -206.123495 
L 435.767377 -204.071475 
L 440.308824 -202.372469 
L 444.850271 -200.976108 
L 449.391718 -199.836876 
L 453.933165 -198.914185 
L 458.474612 -198.172279 
L 463.016059 -197.580027 
L 467.557506 -197.110626 
L 472.098953 -196.741244 
L 476.6404 -196.452632 
L 481.181847 -196.228722 
L 485.723294 -196.056233 
L 490.264741 -195.924289 
L 494.806188 -195.824065 
L 499.347635 -195.748466 
L 503.889082 -195.691839 
L 508.430529 -195.649717 
L 508.430529 -195.538011 
L 508.430529 -195.538011 
L 503.889082 -195.538011 
L 499.347635 -195.538011 
L 494.806188 -195.538011 
L 490.264741 -195.538011 
L 485.723294 -195.538011 
L 481.181847 -195.538011 
L 476.6404 -195.538011 
L 472.098953 -195.538011 
L 467.557506 -195.538011 
L 463.016059 -195.538011 
L 458.474612 -195.538011 
L 453.933165 -195.538011 
L 449.391718 -195.538011 
L 444.850271 -195.538011 
L 440.308824 -195.538011 
L 435.767377 -195.538011 
L 431.22593 -195.538011 
L 426.684483 -195.538011 
L 422.143036 -195.538011 
L 417.601588 -195.538011 
L 413.060141 -195.538011 
L 408.518694 -195.538011 
L 403.977247 -195.538011 
L 399.4358 -195.538011 
L 394.894353 -195.538011 
L 390.352906 -195.538011 
L 385.811459 -195.538011 
L 381.270012 -195.538011 
L 376.728565 -195.538011 
L 372.187118 -195.538011 
L 367.645671 -195.538011 
L 363.104224 -195.538011 
L 358.562777 -195.538011 
L 354.02133 -195.538011 
L 349.479883 -195.538011 
L 344.938436 -195.538011 
L 340.396989 -195.538011 
L 335.855542 -195.538011 
L 331.314095 -195.538011 
L 326.772648 -195.538011 
L 322.231201 -195.538011 
L 317.689754 -195.538011 
L 313.148307 -195.538011 
L 308.60686 -195.538011 
L 304.065413 -195.538011 
L 299.523966 -195.538011 
L 294.982519 -195.538011 
L 290.441072 -195.538011 
L 285.899624 -195.538011 
L 281.358177 -195.538011 
L 276.81673 -195.538011 
L 272.275283 -195.538011 
L 267.733836 -195.538011 
L 263.192389 -195.538011 
L 258.650942 -195.538011 
L 254.109495 -195.538011 
L 249.568048 -195.538011 
L 245.026601 -195.538011 
L 240.485154 -195.538011 
L 235.943707 -195.538011 
L 231.40226 -195.538011 
L 226.860813 -195.538011 
L 222.319366 -195.538011 
L 217.777919 -195.538011 
L 213.236472 -195.538011 
L 208.695025 -195.538011 
L 204.153578 -195.538011 
L 199.612131 -195.538011 
L 195.070684 -195.538011 
L 190.529237 -195.538011 
L 185.98779 -195.538011 
L 181.446343 -195.538011 
L 176.904896 -195.538011 
L 172.363449 -195.538011 
L 167.822002 -195.538011 
L 163.280555 -195.538011 
L 158.739107 -195.538011 
L 154.19766 -195.538011 
L 149.656213 -195.538011 
L 145.114766 -195.538011 
L 140.573319 -195.538011 
L 136.031872 -195.538011 
L 131.490425 -195.538011 
L 126.948978 -195.538011 
L 122.407531 -195.538011 
L 117.866084 -195.538011 
L 113.324637 -195.538011 
L 108.78319 -195.538011 
L 104.241743 -195.538011 
L 99.700296 -195.538011 
L 95.158849 -195.538011 
L 90.617402 -195.538011 
L 86.075955 -195.538011 
L 81.534508 -195.538011 
L 76.993061 -195.538011 
L 72.451614 -195.538011 
L 67.910167 -195.538011 
L 63.36872 -195.538011 
L 58.827273 -195.538011 
z
" id="mb3e2426d4c" style="stroke:#ff6384;stroke-opacity:0.5;"/>
    </defs>
    <g clip-path="url(#pbe797ff7b9)">
     <use style="fill:#ff6384;fill-opacity:0.5;stroke:#ff6384;stroke-opacity:0.5;" x="0" xlink:href="#mb3e2426d4c" y="581.789375"/>
    </g>
   </g>
   <g id="PolyCollection_2">
    <defs>
     <path d="M 66.921634 -195.538011 
L 66.921634 -195.650004 
L 71.451443 -195.692234 
L 75.981252 -195.749007 
L 80.511061 -195.8248 
L 85.04087 -195.925281 
L 89.570679 -196.057565 
L 94.100488 -196.230497 
L 98.630297 -196.454982 
L 103.160106 -196.744335 
L 107.689915 -197.114666 
L 112.219724 -197.585273 
L 116.749533 -198.179047 
L 121.279342 -198.922859 
L 125.809151 -199.847921 
L 130.33896 -200.990079 
L 134.86877 -202.390029 
L 139.398579 -204.093399 
L 143.928388 -206.150691 
L 148.458197 -208.617009 
L 152.988006 -211.551575 
L 157.517815 -215.016962 
L 162.047624 -219.078053 
L 166.577433 -223.800667 
L 171.107242 -229.249878 
L 175.637051 -235.488004 
L 180.16686 -242.572312 
L 184.696669 -250.552459 
L 189.226478 -259.467747 
L 193.756287 -269.344261 
L 198.286096 -280.192004 
L 202.815905 -292.002137 
L 207.345714 -304.744465 
L 211.875523 -318.365297 
L 216.405332 -332.785841 
L 220.935141 -347.901251 
L 225.46495 -363.580456 
L 229.994759 -379.666871 
L 234.524568 -395.980052 
L 239.054377 -412.31833 
L 243.584186 -428.4624 
L 248.113995 -444.179822 
L 252.643804 -459.230303 
L 257.173613 -473.371627 
L 261.703422 -486.366018 
L 266.233231 -497.986726 
L 270.76304 -508.02457 
L 275.292849 -516.294181 
L 279.822658 -522.639693 
L 284.352467 -526.939623 
L 288.882276 -529.110739 
L 293.412085 -529.110739 
L 297.941894 -526.939623 
L 302.471703 -522.639693 
L 307.001512 -516.294181 
L 311.531321 -508.02457 
L 316.06113 -497.986726 
L 320.590939 -486.366018 
L 325.120748 -473.371627 
L 329.650557 -459.230303 
L 334.180366 -444.179822 
L 338.710175 -428.4624 
L 343.239984 -412.31833 
L 347.769793 -395.980052 
L 352.299603 -379.666871 
L 356.829412 -363.580456 
L 361.359221 -347.901251 
L 365.88903 -332.785841 
L 370.418839 -318.365297 
L 374.948648 -304.744465 
L 379.478457 -292.002137 
L 384.008266 -280.192004 
L 388.538075 -269.344261 
L 393.067884 -259.467747 
L 397.597693 -250.552459 
L 402.127502 -242.572312 
L 406.657311 -235.488004 
L 411.18712 -229.249878 
L 415.716929 -223.800667 
L 420.246738 -219.078053 
L 424.776547 -215.016962 
L 429.306356 -211.551575 
L 433.836165 -208.617009 
L 438.365974 -206.150691 
L 442.895783 -204.093399 
L 447.425592 -202.390029 
L 451.955401 -200.990079 
L 456.48521 -199.847921 
L 461.015019 -198.922859 
L 465.544828 -198.179047 
L 470.074637 -197.585273 
L 474.604446 -197.114666 
L 479.134255 -196.744335 
L 483.664064 -196.454982 
L 488.193873 -196.230497 
L 492.723682 -196.057565 
L 497.253491 -195.925281 
L 501.7833 -195.8248 
L 506.313109 -195.749007 
L 510.842918 -195.692234 
L 515.372727 -195.650004 
L 515.372727 -195.538011 
L 515.372727 -195.538011 
L 510.842918 -195.538011 
L 506.313109 -195.538011 
L 501.7833 -195.538011 
L 497.253491 -195.538011 
L 492.723682 -195.538011 
L 488.193873 -195.538011 
L 483.664064 -195.538011 
L 479.134255 -195.538011 
L 474.604446 -195.538011 
L 470.074637 -195.538011 
L 465.544828 -195.538011 
L 461.015019 -195.538011 
L 456.48521 -195.538011 
L 451.955401 -195.538011 
L 447.425592 -195.538011 
L 442.895783 -195.538011 
L 438.365974 -195.538011 
L 433.836165 -195.538011 
L 429.306356 -195.538011 
L 424.776547 -195.538011 
L 420.246738 -195.538011 
L 415.716929 -195.538011 
L 411.18712 -195.538011 
L 406.657311 -195.538011 
L 402.127502 -195.538011 
L 397.597693 -195.538011 
L 393.067884 -195.538011 
L 388.538075 -195.538011 
L 384.008266 -195.538011 
L 379.478457 -195.538011 
L 374.948648 -195.538011 
L 370.418839 -195.538011 
L 365.88903 -195.538011 
L 361.359221 -195.538011 
L 356.829412 -195.538011 
L 352.299603 -195.538011 
L 347.769793 -195.538011 
L 343.239984 -195.538011 
L 338.710175 -195.538011 
L 334.180366 -195.538011 
L 329.650557 -195.538011 
L 325.120748 -195.538011 
L 320.590939 -195.538011 
L 316.06113 -195.538011 
L 311.531321 -195.538011 
L 307.001512 -195.538011 
L 302.471703 -195.538011 
L 297.941894 -195.538011 
L 293.412085 -195.538011 
L 288.882276 -195.538011 
L 284.352467 -195.538011 
L 279.822658 -195.538011 
L 275.292849 -195.538011 
L 270.76304 -195.538011 
L 266.233231 -195.538011 
L 261.703422 -195.538011 
L 257.173613 -195.538011 
L 252.643804 -195.538011 
L 248.113995 -195.538011 
L 243.584186 -195.538011 
L 239.054377 -195.538011 
L 234.524568 -195.538011 
L 229.994759 -195.538011 
L 225.46495 -195.538011 
L 220.935141 -195.538011 
L 216.405332 -195.538011 
L 211.875523 -195.538011 
L 207.345714 -195.538011 
L 202.815905 -195.538011 
L 198.286096 -195.538011 
L 193.756287 -195.538011 
L 189.226478 -195.538011 
L 184.696669 -195.538011 
L 180.16686 -195.538011 
L 175.637051 -195.538011 
L 171.107242 -195.538011 
L 166.577433 -195.538011 
L 162.047624 -195.538011 
L 157.517815 -195.538011 
L 152.988006 -195.538011 
L 148.458197 -195.538011 
L 143.928388 -195.538011 
L 139.398579 -195.538011 
L 134.86877 -195.538011 
L 130.33896 -195.538011 
L 125.809151 -195.538011 
L 121.279342 -195.538011 
L 116.749533 -195.538011 
L 112.219724 -195.538011 
L 107.689915 -195.538011 
L 103.160106 -195.538011 
L 98.630297 -195.538011 
L 94.100488 -195.538011 
L 89.570679 -195.538011 
L 85.04087 -195.538011 
L 80.511061 -195.538011 
L 75.981252 -195.538011 
L 71.451443 -195.538011 
L 66.921634 -195.538011 
z
" id="mda2aa94f2a" style="stroke:#36a2eb;stroke-opacity:0.5;"/>
    </defs>
    <g clip-path="url(#pbe797ff7b9)">
     <use style="fill:#36a2eb;fill-opacity:0.5;stroke:#36a2eb;stroke-opacity:0.5;" x="0" xlink:href="#mda2aa94f2a" y="581.789375"/>
    </g>
   </g>
   <g id="line2d_1">
    <path clip-path="url(#pbe797ff7b9)" d="M 58.827273 386.139658 
L 63.36872 386.097536 
L 67.910167 386.040909 
L 72.451614 385.96531 
L 76.993061 385.865086 
L 81.534508 385.733142 
L 86.075955 385.560653 
L 90.617402 385.336743 
L 95.158849 385.048131 
L 99.700296 384.678749 
L 104.241743 384.209348 
L 108.78319 383.617096 
L 113.324637 382.87519 
L 117.866084 381.952499 
L 122.407531 380.813267 
L 126.948978 379.416906 
L 131.490425 377.7179 
L 136.031872 375.66588 
L 140.573319 373.205882 
L 145.114766 370.278837 
L 149.656213 366.82233 
L 154.19766 362.771646 
L 158.739107 358.061134 
L 163.280555 352.625888 
L 167.822002 346.403748 
L 172.363449 339.337594 
L 176.904896 331.377897 
L 181.446343 322.485456 
L 185.98779 312.634252 
L 190.529237 301.814308 
L 195.070684 290.034439 
L 199.612131 277.324765 
L 204.153578 263.738838 
L 208.695025 249.355248 
L 213.236472 234.278574 
L 217.777919 218.639549 
L 222.319366 202.594357 
L 226.860813 186.32298 
L 231.40226 170.026571 
L 235.943707 153.923872 
L 240.485154 138.246728 
L 245.026601 123.234816 
L 249.568048 109.129731 
L 254.109495 96.168639 
L 258.650942 84.577711 
L 263.192389 74.56559 
L 267.733836 66.317171 
L 272.275283 59.98792 
L 276.81673 55.699009 
L 281.358177 53.533457 
L 285.899624 53.533457 
L 290.441072 55.699009 
L 294.982519 59.98792 
L 299.523966 66.317171 
L 304.065413 74.56559 
L 308.60686 84.577711 
L 313.148307 96.168639 
L 317.689754 109.129731 
L 322.231201 123.234816 
L 326.772648 138.246728 
L 331.314095 153.923872 
L 335.855542 170.026571 
L 340.396989 186.32298 
L 344.938436 202.594357 
L 349.479883 218.639549 
L 354.02133 234.278574 
L 358.562777 249.355248 
L 363.104224 263.738838 
L 367.645671 277.324765 
L 372.187118 290.034439 
L 376.728565 301.814308 
L 381.270012 312.634252 
L 385.811459 322.485456 
L 390.352906 331.377897 
L 394.894353 339.337594 
L 399.4358 346.403748 
L 403.977247 352.625888 
L 408.518694 358.061134 
L 413.060141 362.771646 
L 417.601588 366.82233 
L 422.143036 370.278837 
L 426.684483 373.205882 
L 431.22593 375.66588 
L 435.767377 377.7179 
L 440.308824 379.416906 
L 444.850271 380.813267 
L 449.391718 381.952499 
L 453.933165 382.87519 
L 458.474612 383.617096 
L 463.016059 384.209348 
L 467.557506 384.678749 
L 472.098953 385.048131 
L 476.6404 385.336743 
L 481.181847 385.560653 
L 485.723294 385.733142 
L 490.264741 385.865086 
L 494.806188 385.96531 
L 499.347635 386.040909 
L 503.889082 386.097536 
L 508.430529 386.139658 
" style="fill:none;stroke:#ff6384;stroke-linecap:square;"/>
   </g>
   <g id="line2d_2">
    <path clip-path="url(#pbe797ff7b9)" d="M 66.921634 386.139371 
L 71.451443 386.097141 
L 75.981252 386.040368 
L 80.511061 385.964575 
L 85.04087 385.864094 
L 89.570679 385.73181 
L 94.100488 385.558878 
L 98.630297 385.334393 
L 103.160106 385.04504 
L 107.689915 384.674709 
L 112.219724 384.204102 
L 116.749533 383.610328 
L 121.279342 382.866516 
L 125.809151 381.941454 
L 130.33896 380.799296 
L 134.86877 379.399346 
L 139.398579 377.695976 
L 143.928388 375.638684 
L 148.458197 373.172366 
L 152.988006 370.2378 
L 157.517815 366.772413 
L 162.047624 362.711322 
L 166.577433 357.988708 
L 171.107242 352.539497 
L 175.637051 346.301371 
L 180.16686 339.217063 
L 184.696669 331.236916 
L 189.226478 322.321628 
L 193.756287 312.445114 
L 198.286096 301.597371 
L 202.815905 289.787238 
L 207.345714 277.04491 
L 211.875523 263.424078 
L 216.405332 249.003534 
L 220.935141 233.888124 
L 225.46495 218.208919 
L 229.994759 202.122504 
L 234.524568 185.809323 
L 239.054377 169.471045 
L 243.584186 153.326975 
L 248.113995 137.609553 
L 252.643804 122.559072 
L 257.173613 108.417748 
L 261.703422 95.423357 
L 266.233231 83.802649 
L 270.76304 73.764805 
L 275.292849 65.495194 
L 279.822658 59.149682 
L 284.352467 54.849752 
L 288.882276 52.678636 
L 293.412085 52.678636 
L 297.941894 54.849752 
L 302.471703 59.149682 
L 307.001512 65.495194 
L 311.531321 73.764805 
L 316.06113 83.802649 
L 320.590939 95.423357 
L 325.120748 108.417748 
L 329.650557 122.559072 
L 334.180366 137.609553 
L 338.710175 153.326975 
L 343.239984 169.471045 
L 347.769793 185.809323 
L 352.299603 202.122504 
L 356.829412 218.208919 
L 361.359221 233.888124 
L 365.88903 249.003534 
L 370.418839 263.424078 
L 374.948648 277.04491 
L 379.478457 289.787238 
L 384.008266 301.597371 
L 388.538075 312.445114 
L 393.067884 322.321628 
L 397.597693 331.236916 
L 402.127502 339.217063 
L 406.657311 346.301371 
L 411.18712 352.539497 
L 415.716929 357.988708 
L 420.246738 362.711322 
L 424.776547 366.772413 
L 429.306356 370.2378 
L 433.836165 373.172366 
L 438.365974 375.638684 
L 442.895783 377.695976 
L 447.425592 379.399346 
L 451.955401 380.799296 
L 456.48521 381.941454 
L 461.015019 382.866516 
L 465.544828 383.610328 
L 470.074637 384.204102 
L 474.604446 384.674709 
L 479.134255 385.04504 
L 483.664064 385.334393 
L 488.193873 385.558878 
L 492.723682 385.73181 
L 497.253491 385.864094 
L 501.7833 385.964575 
L 506.313109 386.040368 
L 510.842918 386.097141 
L 515.372727 386.139371 
" style="fill:none;stroke:#36a2eb;stroke-linecap:square;"/>
   </g>
   <g id="patch_3">
    <path d="M 36 402.93 
L 538.2 402.93 
" style="fill:none;stroke:#000000;stroke-linecap:square;stroke-linejoin:miter;stroke-width:0.8;"/>
   </g>
   <g id="legend_1">
    <g id="patch_4">
     <path d="M 430.8725 88.29875 
L 528.4 88.29875 
Q 531.2 88.29875 531.2 85.49875 
L 531.2 45.8 
Q 531.2 43 528.4 43 
L 430.8725 43 
Q 428.0725 43 428.0725 45.8 
L 428.0725 85.49875 
Q 428.0725 88.29875 430.8725 88.29875 
z
" style="fill:#ffffff;opacity:0.8;stroke:#cccccc;stroke-linejoin:miter;"/>
    </g>
    <g id="patch_5">
     <path d="M 433.6725 59.237813 
L 461.6725 59.237813 
L 461.6725 49.437813 
L 433.6725 49.437813 
z
" style="fill:#ff6384;opacity:0.5;stroke:#ff6384;stroke-linejoin:miter;"/>
    </g>
    <g id="text_1">
     <!-- base -->
     <defs>
      <path d="M 48.6875 27.296875 
Q 48.6875 37.203125 44.609375 42.84375 
Q 40.53125 48.484375 33.40625 48.484375 
Q 26.265625 48.484375 22.1875 42.84375 
Q 18.109375 37.203125 18.109375 27.296875 
Q 18.109375 17.390625 22.1875 11.75 
Q 26.265625 6.109375 33.40625 6.109375 
Q 40.53125 6.109375 44.609375 11.75 
Q 48.6875 17.390625 48.6875 27.296875 
z
M 18.109375 46.390625 
Q 20.953125 51.265625 25.265625 53.625 
Q 29.59375 56 35.59375 56 
Q 45.5625 56 51.78125 48.09375 
Q 58.015625 40.1875 58.015625 27.296875 
Q 58.015625 14.40625 51.78125 6.484375 
Q 45.5625 -1.421875 35.59375 -1.421875 
Q 29.59375 -1.421875 25.265625 0.953125 
Q 20.953125 3.328125 18.109375 8.203125 
L 18.109375 0 
L 9.078125 0 
L 9.078125 75.984375 
L 18.109375 75.984375 
z
" id="DejaVuSans-98"/>
      <path d="M 34.28125 27.484375 
Q 23.390625 27.484375 19.1875 25 
Q 14.984375 22.515625 14.984375 16.5 
Q 14.984375 11.71875 18.140625 8.90625 
Q 21.296875 6.109375 26.703125 6.109375 
Q 34.1875 6.109375 38.703125 11.40625 
Q 43.21875 16.703125 43.21875 25.484375 
L 43.21875 27.484375 
z
M 52.203125 31.203125 
L 52.203125 0 
L 43.21875 0 
L 43.21875 8.296875 
Q 40.140625 3.328125 35.546875 0.953125 
Q 30.953125 -1.421875 24.3125 -1.421875 
Q 15.921875 -1.421875 10.953125 3.296875 
Q 6 8.015625 6 15.921875 
Q 6 25.140625 12.171875 29.828125 
Q 18.359375 34.515625 30.609375 34.515625 
L 43.21875 34.515625 
L 43.21875 35.40625 
Q 43.21875 41.609375 39.140625 45 
Q 35.0625 48.390625 27.6875 48.390625 
Q 23 48.390625 18.546875 47.265625 
Q 14.109375 46.140625 10.015625 43.890625 
L 10.015625 52.203125 
Q 14.9375 54.109375 19.578125 55.046875 
Q 24.21875 56 28.609375 56 
Q 40.484375 56 46.34375 49.84375 
Q 52.203125 43.703125 52.203125 31.203125 
z
" id="DejaVuSans-97"/>
      <path d="M 44.28125 53.078125 
L 44.28125 44.578125 
Q 40.484375 46.53125 36.375 47.5 
Q 32.28125 48.484375 27.875 48.484375 
Q 21.1875 48.484375 17.84375 46.4375 
Q 14.5 44.390625 14.5 40.28125 
Q 14.5 37.15625 16.890625 35.375 
Q 19.28125 33.59375 26.515625 31.984375 
L 29.59375 31.296875 
Q 39.15625 29.25 43.1875 25.515625 
Q 47.21875 21.78125 47.21875 15.09375 
Q 47.21875 7.46875 41.1875 3.015625 
Q 35.15625 -1.421875 24.609375 -1.421875 
Q 20.21875 -1.421875 15.453125 -0.5625 
Q 10.6875 0.296875 5.421875 2 
L 5.421875 11.28125 
Q 10.40625 8.6875 15.234375 7.390625 
Q 20.0625 6.109375 24.8125 6.109375 
Q 31.15625 6.109375 34.5625 8.28125 
Q 37.984375 10.453125 37.984375 14.40625 
Q 37.984375 18.0625 35.515625 20.015625 
Q 33.0625 21.96875 24.703125 23.78125 
L 21.578125 24.515625 
Q 13.234375 26.265625 9.515625 29.90625 
Q 5.8125 33.546875 5.8125 39.890625 
Q 5.8125 47.609375 11.28125 51.796875 
Q 16.75 56 26.8125 56 
Q 31.78125 56 36.171875 55.265625 
Q 40.578125 54.546875 44.28125 53.078125 
z
" id="DejaVuSans-115"/>
      <path d="M 56.203125 29.59375 
L 56.203125 25.203125 
L 14.890625 25.203125 
Q 15.484375 15.921875 20.484375 11.0625 
Q 25.484375 6.203125 34.421875 6.203125 
Q 39.59375 6.203125 44.453125 7.46875 
Q 49.3125 8.734375 54.109375 11.28125 
L 54.109375 2.78125 
Q 49.265625 0.734375 44.1875 -0.34375 
Q 39.109375 -1.421875 33.890625 -1.421875 
Q 20.796875 -1.421875 13.15625 6.1875 
Q 5.515625 13.8125 5.515625 26.8125 
Q 5.515625 40.234375 12.765625 48.109375 
Q 20.015625 56 32.328125 56 
Q 43.359375 56 49.78125 48.890625 
Q 56.203125 41.796875 56.203125 29.59375 
z
M 47.21875 32.234375 
Q 47.125 39.59375 43.09375 43.984375 
Q 39.0625 48.390625 32.421875 48.390625 
Q 24.90625 48.390625 20.390625 44.140625 
Q 15.875 39.890625 15.1875 32.171875 
z
" id="DejaVuSans-101"/>
     </defs>
     <g transform="translate(472.8725 59.237813)scale(0.14 -0.14)">
      <use xlink:href="#DejaVuSans-98"/>
      <use x="63.476562" xlink:href="#DejaVuSans-97"/>
      <use x="124.755859" xlink:href="#DejaVuSans-115"/>
      <use x="176.855469" xlink:href="#DejaVuSans-101"/>
     </g>
    </g>
    <g id="patch_6">
     <path d="M 433.6725 79.787188 
L 461.6725 79.787188 
L 461.6725 69.987188 
L 433.6725 69.987188 
z
" style="fill:#36a2eb;opacity:0.5;stroke:#36a2eb;stroke-linejoin:miter;"/>
    </g>
    <g id="text_2">
     <!-- policies -->
     <defs>
      <path d="M 18.109375 8.203125 
L 18.109375 -20.796875 
L 9.078125 -20.796875 
L 9.078125 54.6875 
L 18.109375 54.6875 
L 18.109375 46.390625 
Q 20.953125 51.265625 25.265625 53.625 
Q 29.59375 56 35.59375 56 
Q 45.5625 56 51.78125 48.09375 
Q 58.015625 40.1875 58.015625 27.296875 
Q 58.015625 14.40625 51.78125 6.484375 
Q 45.5625 -1.421875 35.59375 -1.421875 
Q 29.59375 -1.421875 25.265625 0.953125 
Q 20.953125 3.328125 18.109375 8.203125 
z
M 48.6875 27.296875 
Q 48.6875 37.203125 44.609375 42.84375 
Q 40.53125 48.484375 33.40625 48.484375 
Q 26.265625 48.484375 22.1875 42.84375 
Q 18.109375 37.203125 18.109375 27.296875 
Q 18.109375 17.390625 22.1875 11.75 
Q 26.265625 6.109375 33.40625 6.109375 
Q 40.53125 6.109375 44.609375 11.75 
Q 48.6875 17.390625 48.6875 27.296875 
z
" id="DejaVuSans-112"/>
      <path d="M 30.609375 48.390625 
Q 23.390625 48.390625 19.1875 42.75 
Q 14.984375 37.109375 14.984375 27.296875 
Q 14.984375 17.484375 19.15625 11.84375 
Q 23.34375 6.203125 30.609375 6.203125 
Q 37.796875 6.203125 41.984375 11.859375 
Q 46.1875 17.53125 46.1875 27.296875 
Q 46.1875 37.015625 41.984375 42.703125 
Q 37.796875 48.390625 30.609375 48.390625 
z
M 30.609375 56 
Q 42.328125 56 49.015625 48.375 
Q 55.71875 40.765625 55.71875 27.296875 
Q 55.71875 13.875 49.015625 6.21875 
Q 42.328125 -1.421875 30.609375 -1.421875 
Q 18.84375 -1.421875 12.171875 6.21875 
Q 5.515625 13.875 5.515625 27.296875 
Q 5.515625 40.765625 12.171875 48.375 
Q 18.84375 56 30.609375 56 
z
" id="DejaVuSans-111"/>
      <path d="M 9.421875 75.984375 
L 18.40625 75.984375 
L 18.40625 0 
L 9.421875 0 
z
" id="DejaVuSans-108"/>
      <path d="M 9.421875 54.6875 
L 18.40625 54.6875 
L 18.40625 0 
L 9.421875 0 
z
M 9.421875 75.984375 
L 18.40625 75.984375 
L 18.40625 64.59375 
L 9.421875 64.59375 
z
" id="DejaVuSans-105"/>
      <path d="M 48.78125 52.59375 
L 48.78125 44.1875 
Q 44.96875 46.296875 41.140625 47.34375 
Q 37.3125 48.390625 33.40625 48.390625 
Q 24.65625 48.390625 19.8125 42.84375 
Q 14.984375 37.3125 14.984375 27.296875 
Q 14.984375 17.28125 19.8125 11.734375 
Q 24.65625 6.203125 33.40625 6.203125 
Q 37.3125 6.203125 41.140625 7.25 
Q 44.96875 8.296875 48.78125 10.40625 
L 48.78125 2.09375 
Q 45.015625 0.34375 40.984375 -0.53125 
Q 36.96875 -1.421875 32.421875 -1.421875 
Q 20.0625 -1.421875 12.78125 6.34375 
Q 5.515625 14.109375 5.515625 27.296875 
Q 5.515625 40.671875 12.859375 48.328125 
Q 20.21875 56 33.015625 56 
Q 37.15625 56 41.109375 55.140625 
Q 45.0625 54.296875 48.78125 52.59375 
z
" id="DejaVuSans-99"/>
     </defs>
     <g transform="translate(472.8725 79.787188)scale(0.14 -0.14)">
      <use xlink:href="#DejaVuSans-112"/>
      <use x="63.476562" xlink:href="#DejaVuSans-111"/>
      <use x="124.658203" xlink:href="#DejaVuSans-108"/>
      <use x="152.441406" xlink:href="#DejaVuSans-105"/>
      <use x="180.224609" xlink:href="#DejaVuSans-99"/>
      <use x="235.205078" xlink:href="#DejaVuSans-105"/>
      <use x="262.988281" xlink:href="#DejaVuSans-101"/>
      <use x="324.511719" xlink:href="#DejaVuSans-115"/>
     </g>
    </g>
   </g>
  </g>
  <g id="axes_2">
   <g id="patch_7">
    <path d="M 36 525.24 
L 538.2 525.24 
L 538.2 402.93 
L 36 402.93 
z
" style="fill:none;"/>
   </g>
   <g id="patch_8">
    <path clip-path="url(#pdebc57f3ff)" d="M 173.476103 519.680455 
L 393.781699 519.680455 
L 393.781699 482.616818 
L 173.476103 482.616818 
z
" style="fill:#ff6384;opacity:0.5;"/>
   </g>
   <g id="patch_9">
    <path clip-path="url(#pdebc57f3ff)" d="M 181.276663 445.553182 
L 401.017699 445.553182 
L 401.017699 408.489545 
L 181.276663 408.489545 
z
" style="fill:#36a2eb;opacity:0.5;"/>
   </g>
   <g id="matplotlib.axis_1">
    <g id="xtick_1">
     <g id="line2d_3">
      <defs>
       <path d="M 0 0 
L 0 3.5 
" id="m9670d85bd4" style="stroke:#000000;stroke-width:0.8;"/>
      </defs>
      <g>
       <use style="stroke:#000000;stroke-width:0.8;" x="56.827461" xlink:href="#m9670d85bd4" y="525.24"/>
      </g>
     </g>
     <g id="text_3">
      <!-- 11.5 -->
      <defs>
       <path d="M 12.40625 8.296875 
L 28.515625 8.296875 
L 28.515625 63.921875 
L 10.984375 60.40625 
L 10.984375 69.390625 
L 28.421875 72.90625 
L 38.28125 72.90625 
L 38.28125 8.296875 
L 54.390625 8.296875 
L 54.390625 0 
L 12.40625 0 
z
" id="DejaVuSans-49"/>
       <path d="M 10.6875 12.40625 
L 21 12.40625 
L 21 0 
L 10.6875 0 
z
" id="DejaVuSans-46"/>
       <path d="M 10.796875 72.90625 
L 49.515625 72.90625 
L 49.515625 64.59375 
L 19.828125 64.59375 
L 19.828125 46.734375 
Q 21.96875 47.46875 24.109375 47.828125 
Q 26.265625 48.1875 28.421875 48.1875 
Q 40.625 48.1875 47.75 41.5 
Q 54.890625 34.8125 54.890625 23.390625 
Q 54.890625 11.625 47.5625 5.09375 
Q 40.234375 -1.421875 26.90625 -1.421875 
Q 22.3125 -1.421875 17.546875 -0.640625 
Q 12.796875 0.140625 7.71875 1.703125 
L 7.71875 11.625 
Q 12.109375 9.234375 16.796875 8.0625 
Q 21.484375 6.890625 26.703125 6.890625 
Q 35.15625 6.890625 40.078125 11.328125 
Q 45.015625 15.765625 45.015625 23.390625 
Q 45.015625 31 40.078125 35.4375 
Q 35.15625 39.890625 26.703125 39.890625 
Q 22.75 39.890625 18.8125 39.015625 
Q 14.890625 38.140625 10.796875 36.28125 
z
" id="DejaVuSans-53"/>
      </defs>
      <g transform="translate(41.241523 542.877813)scale(0.14 -0.14)">
       <use xlink:href="#DejaVuSans-49"/>
       <use x="63.623047" xlink:href="#DejaVuSans-49"/>
       <use x="127.246094" xlink:href="#DejaVuSans-46"/>
       <use x="159.033203" xlink:href="#DejaVuSans-53"/>
      </g>
     </g>
    </g>
    <g id="xtick_2">
     <g id="line2d_4">
      <g>
       <use style="stroke:#000000;stroke-width:0.8;" x="119.479792" xlink:href="#m9670d85bd4" y="525.24"/>
      </g>
     </g>
     <g id="text_4">
      <!-- 12.0 -->
      <defs>
       <path d="M 19.1875 8.296875 
L 53.609375 8.296875 
L 53.609375 0 
L 7.328125 0 
L 7.328125 8.296875 
Q 12.9375 14.109375 22.625 23.890625 
Q 32.328125 33.6875 34.8125 36.53125 
Q 39.546875 41.84375 41.421875 45.53125 
Q 43.3125 49.21875 43.3125 52.78125 
Q 43.3125 58.59375 39.234375 62.25 
Q 35.15625 65.921875 28.609375 65.921875 
Q 23.96875 65.921875 18.8125 64.3125 
Q 13.671875 62.703125 7.8125 59.421875 
L 7.8125 69.390625 
Q 13.765625 71.78125 18.9375 73 
Q 24.125 74.21875 28.421875 74.21875 
Q 39.75 74.21875 46.484375 68.546875 
Q 53.21875 62.890625 53.21875 53.421875 
Q 53.21875 48.921875 51.53125 44.890625 
Q 49.859375 40.875 45.40625 35.40625 
Q 44.1875 33.984375 37.640625 27.21875 
Q 31.109375 20.453125 19.1875 8.296875 
z
" id="DejaVuSans-50"/>
       <path d="M 31.78125 66.40625 
Q 24.171875 66.40625 20.328125 58.90625 
Q 16.5 51.421875 16.5 36.375 
Q 16.5 21.390625 20.328125 13.890625 
Q 24.171875 6.390625 31.78125 6.390625 
Q 39.453125 6.390625 43.28125 13.890625 
Q 47.125 21.390625 47.125 36.375 
Q 47.125 51.421875 43.28125 58.90625 
Q 39.453125 66.40625 31.78125 66.40625 
z
M 31.78125 74.21875 
Q 44.046875 74.21875 50.515625 64.515625 
Q 56.984375 54.828125 56.984375 36.375 
Q 56.984375 17.96875 50.515625 8.265625 
Q 44.046875 -1.421875 31.78125 -1.421875 
Q 19.53125 -1.421875 13.0625 8.265625 
Q 6.59375 17.96875 6.59375 36.375 
Q 6.59375 54.828125 13.0625 64.515625 
Q 19.53125 74.21875 31.78125 74.21875 
z
" id="DejaVuSans-48"/>
      </defs>
      <g transform="translate(103.893855 542.877813)scale(0.14 -0.14)">
       <use xlink:href="#DejaVuSans-49"/>
       <use x="63.623047" xlink:href="#DejaVuSans-50"/>
       <use x="127.246094" xlink:href="#DejaVuSans-46"/>
       <use x="159.033203" xlink:href="#DejaVuSans-48"/>
      </g>
     </g>
    </g>
    <g id="xtick_3">
     <g id="line2d_5">
      <g>
       <use style="stroke:#000000;stroke-width:0.8;" x="182.132124" xlink:href="#m9670d85bd4" y="525.24"/>
      </g>
     </g>
     <g id="text_5">
      <!-- 12.5 -->
      <g transform="translate(166.546186 542.877813)scale(0.14 -0.14)">
       <use xlink:href="#DejaVuSans-49"/>
       <use x="63.623047" xlink:href="#DejaVuSans-50"/>
       <use x="127.246094" xlink:href="#DejaVuSans-46"/>
       <use x="159.033203" xlink:href="#DejaVuSans-53"/>
      </g>
     </g>
    </g>
    <g id="xtick_4">
     <g id="line2d_6">
      <g>
       <use style="stroke:#000000;stroke-width:0.8;" x="244.784455" xlink:href="#m9670d85bd4" y="525.24"/>
      </g>
     </g>
     <g id="text_6">
      <!-- 13.0 -->
      <defs>
       <path d="M 40.578125 39.3125 
Q 47.65625 37.796875 51.625 33 
Q 55.609375 28.21875 55.609375 21.1875 
Q 55.609375 10.40625 48.1875 4.484375 
Q 40.765625 -1.421875 27.09375 -1.421875 
Q 22.515625 -1.421875 17.65625 -0.515625 
Q 12.796875 0.390625 7.625 2.203125 
L 7.625 11.71875 
Q 11.71875 9.328125 16.59375 8.109375 
Q 21.484375 6.890625 26.8125 6.890625 
Q 36.078125 6.890625 40.9375 10.546875 
Q 45.796875 14.203125 45.796875 21.1875 
Q 45.796875 27.640625 41.28125 31.265625 
Q 36.765625 34.90625 28.71875 34.90625 
L 20.21875 34.90625 
L 20.21875 43.015625 
L 29.109375 43.015625 
Q 36.375 43.015625 40.234375 45.921875 
Q 44.09375 48.828125 44.09375 54.296875 
Q 44.09375 59.90625 40.109375 62.90625 
Q 36.140625 65.921875 28.71875 65.921875 
Q 24.65625 65.921875 20.015625 65.03125 
Q 15.375 64.15625 9.8125 62.3125 
L 9.8125 71.09375 
Q 15.4375 72.65625 20.34375 73.4375 
Q 25.25 74.21875 29.59375 74.21875 
Q 40.828125 74.21875 47.359375 69.109375 
Q 53.90625 64.015625 53.90625 55.328125 
Q 53.90625 49.265625 50.4375 45.09375 
Q 46.96875 40.921875 40.578125 39.3125 
z
" id="DejaVuSans-51"/>
      </defs>
      <g transform="translate(229.198518 542.877813)scale(0.14 -0.14)">
       <use xlink:href="#DejaVuSans-49"/>
       <use x="63.623047" xlink:href="#DejaVuSans-51"/>
       <use x="127.246094" xlink:href="#DejaVuSans-46"/>
       <use x="159.033203" xlink:href="#DejaVuSans-48"/>
      </g>
     </g>
    </g>
    <g id="xtick_5">
     <g id="line2d_7">
      <g>
       <use style="stroke:#000000;stroke-width:0.8;" x="307.436787" xlink:href="#m9670d85bd4" y="525.24"/>
      </g>
     </g>
     <g id="text_7">
      <!-- 13.5 -->
      <g transform="translate(291.850849 542.877813)scale(0.14 -0.14)">
       <use xlink:href="#DejaVuSans-49"/>
       <use x="63.623047" xlink:href="#DejaVuSans-51"/>
       <use x="127.246094" xlink:href="#DejaVuSans-46"/>
       <use x="159.033203" xlink:href="#DejaVuSans-53"/>
      </g>
     </g>
    </g>
    <g id="xtick_6">
     <g id="line2d_8">
      <g>
       <use style="stroke:#000000;stroke-width:0.8;" x="370.089118" xlink:href="#m9670d85bd4" y="525.24"/>
      </g>
     </g>
     <g id="text_8">
      <!-- 14.0 -->
      <defs>
       <path d="M 37.796875 64.3125 
L 12.890625 25.390625 
L 37.796875 25.390625 
z
M 35.203125 72.90625 
L 47.609375 72.90625 
L 47.609375 25.390625 
L 58.015625 25.390625 
L 58.015625 17.1875 
L 47.609375 17.1875 
L 47.609375 0 
L 37.796875 0 
L 37.796875 17.1875 
L 4.890625 17.1875 
L 4.890625 26.703125 
z
" id="DejaVuSans-52"/>
      </defs>
      <g transform="translate(354.503181 542.877813)scale(0.14 -0.14)">
       <use xlink:href="#DejaVuSans-49"/>
       <use x="63.623047" xlink:href="#DejaVuSans-52"/>
       <use x="127.246094" xlink:href="#DejaVuSans-46"/>
       <use x="159.033203" xlink:href="#DejaVuSans-48"/>
      </g>
     </g>
    </g>
    <g id="xtick_7">
     <g id="line2d_9">
      <g>
       <use style="stroke:#000000;stroke-width:0.8;" x="432.74145" xlink:href="#m9670d85bd4" y="525.24"/>
      </g>
     </g>
     <g id="text_9">
      <!-- 14.5 -->
      <g transform="translate(417.155512 542.877813)scale(0.14 -0.14)">
       <use xlink:href="#DejaVuSans-49"/>
       <use x="63.623047" xlink:href="#DejaVuSans-52"/>
       <use x="127.246094" xlink:href="#DejaVuSans-46"/>
       <use x="159.033203" xlink:href="#DejaVuSans-53"/>
      </g>
     </g>
    </g>
    <g id="xtick_8">
     <g id="line2d_10">
      <g>
       <use style="stroke:#000000;stroke-width:0.8;" x="495.393781" xlink:href="#m9670d85bd4" y="525.24"/>
      </g>
     </g>
     <g id="text_10">
      <!-- 15.0 -->
      <g transform="translate(479.807844 542.877813)scale(0.14 -0.14)">
       <use xlink:href="#DejaVuSans-49"/>
       <use x="63.623047" xlink:href="#DejaVuSans-53"/>
       <use x="127.246094" xlink:href="#DejaVuSans-46"/>
       <use x="159.033203" xlink:href="#DejaVuSans-48"/>
      </g>
     </g>
    </g>
   </g>
   <g id="line2d_11">
    <path clip-path="url(#pdebc57f3ff)" d="M 283.628901 525.24 
L 283.628901 402.93 
" style="fill:none;stroke:#ff6384;stroke-dasharray:5.55,2.4;stroke-dashoffset:0;stroke-opacity:0.8;stroke-width:1.5;"/>
   </g>
   <g id="line2d_12">
    <path clip-path="url(#pdebc57f3ff)" d="M 291.147181 525.24 
L 291.147181 402.93 
" style="fill:none;stroke:#36a2eb;stroke-dasharray:5.55,2.4;stroke-dashoffset:0;stroke-opacity:0.8;stroke-width:1.5;"/>
   </g>
   <g id="patch_10">
    <path d="M 36 525.24 
L 538.2 525.24 
" style="fill:none;stroke:#000000;stroke-linecap:square;stroke-linejoin:miter;stroke-width:0.8;"/>
   </g>
  </g>
 </g>
 <defs>
  <clipPath id="pbe797ff7b9">
   <rect height="366.93" width="502.2" x="36" y="36"/>
  </clipPath>
  <clipPath id="pdebc57f3ff">
   <rect height="122.31" width="502.2" x="36" y="402.93"/>
  </clipPath>
 </defs>
</svg>
