<?xml version="1.0" encoding="utf-8" standalone="no"?>
<!DOCTYPE svg PUBLIC "-//W3C//DTD SVG 1.1//EN"
  "http://www.w3.org/Graphics/SVG/1.1/DTD/svg11.dtd">
<!-- Created with matplotlib (https://matplotlib.org/) -->
<svg height="581.789375pt" version="1.1" viewBox="0 0 574.2 581.789375" width="574.2pt" xmlns="http://www.w3.org/2000/svg" xmlns:xlink="http://www.w3.org/1999/xlink">
 <defs>
  <style type="text/css">
*{stroke-linecap:butt;stroke-linejoin:round;}
  </style>
 </defs>
 <g id="figure_1">
  <g id="patch_1">
   <path d="M 0 581.789375 
L 574.2 581.789375 
L 574.2 0 
L 0 0 
z
" style="fill:none;"/>
  </g>
  <g id="axes_1">
   <g id="patch_2">
    <path d="M 36 402.93 
L 538.2 402.93 
L 538.2 36 
L 36 36 
z
" style="fill:none;"/>
   </g>
   <g id="PolyCollection_1">
    <defs>
     <path d="M 58.827273 -195.538011 
L 58.827273 -195.649737 
L 63.392678 -195.691867 
L 67.958083 -195.748504 
L 72.523488 -195.824116 
L 77.088892 -195.924359 
L 81.654297 -196.056327 
L 86.219702 -196.228847 
L 90.785107 -196.452797 
L 95.350512 -196.741461 
L 99.915917 -197.110909 
L 104.481322 -197.580395 
L 109.046727 -198.172753 
L 113.612132 -198.914793 
L 118.177537 -199.837651 
L 122.742942 -200.977088 
L 127.308347 -202.373701 
L 131.873752 -204.073013 
L 136.439157 -206.125402 
L 141.004562 -208.585844 
L 145.569967 -211.513416 
L 150.135371 -214.970546 
L 154.700776 -219.02196 
L 159.266181 -223.733321 
L 163.831586 -229.169547 
L 168.396991 -235.392808 
L 172.962396 -242.460235 
L 177.527801 -250.421367 
L 182.093206 -259.31541 
L 186.658611 -269.16839 
L 191.224016 -279.990284 
L 195.789421 -291.772276 
L 200.354826 -304.48424 
L 204.920231 -318.072615 
L 209.485636 -332.458797 
L 214.051041 -347.538189 
L 218.616446 -363.180032 
L 223.181851 -379.228115 
L 227.747255 -395.502424 
L 232.31266 -411.80177 
L 236.878065 -427.907371 
L 241.44347 -443.58734 
L 246.008875 -458.601958 
L 250.57428 -472.709584 
L 255.139685 -485.673012 
L 259.70509 -497.266029 
L 264.270495 -507.279954 
L 268.8359 -515.52986 
L 273.401305 -521.860251 
L 277.96671 -526.149935 
L 282.532115 -528.315877 
L 287.09752 -528.315877 
L 291.662925 -526.149935 
L 296.22833 -521.860251 
L 300.793734 -515.52986 
L 305.359139 -507.279954 
L 309.924544 -497.266029 
L 314.489949 -485.673012 
L 319.055354 -472.709584 
L 323.620759 -458.601958 
L 328.186164 -443.58734 
L 332.751569 -427.907371 
L 337.316974 -411.80177 
L 341.882379 -395.502424 
L 346.447784 -379.228115 
L 351.013189 -363.180032 
L 355.578594 -347.538189 
L 360.143999 -332.458797 
L 364.709404 -318.072615 
L 369.274809 -304.48424 
L 373.840213 -291.772276 
L 378.405618 -279.990284 
L 382.971023 -269.16839 
L 387.536428 -259.31541 
L 392.101833 -250.421367 
L 396.667238 -242.460235 
L 401.232643 -235.392808 
L 405.798048 -229.169547 
L 410.363453 -223.733321 
L 414.928858 -219.02196 
L 419.494263 -214.970546 
L 424.059668 -211.513416 
L 428.625073 -208.585844 
L 433.190478 -206.125402 
L 437.755883 -204.073013 
L 442.321288 -202.373701 
L 446.886692 -200.977088 
L 451.452097 -199.837651 
L 456.017502 -198.914793 
L 460.582907 -198.172753 
L 465.148312 -197.580395 
L 469.713717 -197.110909 
L 474.279122 -196.741461 
L 478.844527 -196.452797 
L 483.409932 -196.228847 
L 487.975337 -196.056327 
L 492.540742 -195.924359 
L 497.106147 -195.824116 
L 501.671552 -195.748504 
L 506.236957 -195.691867 
L 510.802362 -195.649737 
L 510.802362 -195.538011 
L 510.802362 -195.538011 
L 506.236957 -195.538011 
L 501.671552 -195.538011 
L 497.106147 -195.538011 
L 492.540742 -195.538011 
L 487.975337 -195.538011 
L 483.409932 -195.538011 
L 478.844527 -195.538011 
L 474.279122 -195.538011 
L 469.713717 -195.538011 
L 465.148312 -195.538011 
L 460.582907 -195.538011 
L 456.017502 -195.538011 
L 451.452097 -195.538011 
L 446.886692 -195.538011 
L 442.321288 -195.538011 
L 437.755883 -195.538011 
L 433.190478 -195.538011 
L 428.625073 -195.538011 
L 424.059668 -195.538011 
L 419.494263 -195.538011 
L 414.928858 -195.538011 
L 410.363453 -195.538011 
L 405.798048 -195.538011 
L 401.232643 -195.538011 
L 396.667238 -195.538011 
L 392.101833 -195.538011 
L 387.536428 -195.538011 
L 382.971023 -195.538011 
L 378.405618 -195.538011 
L 373.840213 -195.538011 
L 369.274809 -195.538011 
L 364.709404 -195.538011 
L 360.143999 -195.538011 
L 355.578594 -195.538011 
L 351.013189 -195.538011 
L 346.447784 -195.538011 
L 341.882379 -195.538011 
L 337.316974 -195.538011 
L 332.751569 -195.538011 
L 328.186164 -195.538011 
L 323.620759 -195.538011 
L 319.055354 -195.538011 
L 314.489949 -195.538011 
L 309.924544 -195.538011 
L 305.359139 -195.538011 
L 300.793734 -195.538011 
L 296.22833 -195.538011 
L 291.662925 -195.538011 
L 287.09752 -195.538011 
L 282.532115 -195.538011 
L 277.96671 -195.538011 
L 273.401305 -195.538011 
L 268.8359 -195.538011 
L 264.270495 -195.538011 
L 259.70509 -195.538011 
L 255.139685 -195.538011 
L 250.57428 -195.538011 
L 246.008875 -195.538011 
L 241.44347 -195.538011 
L 236.878065 -195.538011 
L 232.31266 -195.538011 
L 227.747255 -195.538011 
L 223.181851 -195.538011 
L 218.616446 -195.538011 
L 214.051041 -195.538011 
L 209.485636 -195.538011 
L 204.920231 -195.538011 
L 200.354826 -195.538011 
L 195.789421 -195.538011 
L 191.224016 -195.538011 
L 186.658611 -195.538011 
L 182.093206 -195.538011 
L 177.527801 -195.538011 
L 172.962396 -195.538011 
L 168.396991 -195.538011 
L 163.831586 -195.538011 
L 159.266181 -195.538011 
L 154.700776 -195.538011 
L 150.135371 -195.538011 
L 145.569967 -195.538011 
L 141.004562 -195.538011 
L 136.439157 -195.538011 
L 131.873752 -195.538011 
L 127.308347 -195.538011 
L 122.742942 -195.538011 
L 118.177537 -195.538011 
L 113.612132 -195.538011 
L 109.046727 -195.538011 
L 104.481322 -195.538011 
L 99.915917 -195.538011 
L 95.350512 -195.538011 
L 90.785107 -195.538011 
L 86.219702 -195.538011 
L 81.654297 -195.538011 
L 77.088892 -195.538011 
L 72.523488 -195.538011 
L 67.958083 -195.538011 
L 63.392678 -195.538011 
L 58.827273 -195.538011 
z
" id="m4b726f0f8a" style="stroke:#ff6384;stroke-opacity:0.5;"/>
    </defs>
    <g clip-path="url(#p144e1f7194)">
     <use style="fill:#ff6384;fill-opacity:0.5;stroke:#ff6384;stroke-opacity:0.5;" x="0" xlink:href="#m4b726f0f8a" y="581.789375"/>
    </g>
   </g>
   <g id="PolyCollection_2">
    <defs>
     <path d="M 64.474638 -195.538011 
L 64.474638 -195.650004 
L 69.029164 -195.692234 
L 73.58369 -195.749007 
L 78.138216 -195.8248 
L 82.692743 -195.925281 
L 87.247269 -196.057565 
L 91.801795 -196.230497 
L 96.356321 -196.454982 
L 100.910847 -196.744335 
L 105.465373 -197.114666 
L 110.019899 -197.585273 
L 114.574426 -198.179047 
L 119.128952 -198.922859 
L 123.683478 -199.847921 
L 128.238004 -200.990079 
L 132.79253 -202.390029 
L 137.347056 -204.093399 
L 141.901583 -206.150691 
L 146.456109 -208.617009 
L 151.010635 -211.551575 
L 155.565161 -215.016962 
L 160.119687 -219.078053 
L 164.674213 -223.800667 
L 169.228739 -229.249878 
L 173.783266 -235.488004 
L 178.337792 -242.572312 
L 182.892318 -250.552459 
L 187.446844 -259.467747 
L 192.00137 -269.344261 
L 196.555896 -280.192004 
L 201.110423 -292.002137 
L 205.664949 -304.744465 
L 210.219475 -318.365297 
L 214.774001 -332.785841 
L 219.328527 -347.901251 
L 223.883053 -363.580456 
L 228.43758 -379.666871 
L 232.992106 -395.980052 
L 237.546632 -412.31833 
L 242.101158 -428.4624 
L 246.655684 -444.179822 
L 251.21021 -459.230303 
L 255.764736 -473.371627 
L 260.319263 -486.366018 
L 264.873789 -497.986726 
L 269.428315 -508.02457 
L 273.982841 -516.294181 
L 278.537367 -522.639693 
L 283.091893 -526.939623 
L 287.64642 -529.110739 
L 292.200946 -529.110739 
L 296.755472 -526.939623 
L 301.309998 -522.639693 
L 305.864524 -516.294181 
L 310.41905 -508.02457 
L 314.973576 -497.986726 
L 319.528103 -486.366018 
L 324.082629 -473.371627 
L 328.637155 -459.230303 
L 333.191681 -444.179822 
L 337.746207 -428.4624 
L 342.300733 -412.31833 
L 346.85526 -395.980052 
L 351.409786 -379.666871 
L 355.964312 -363.580456 
L 360.518838 -347.901251 
L 365.073364 -332.785841 
L 369.62789 -318.365297 
L 374.182416 -304.744465 
L 378.736943 -292.002137 
L 383.291469 -280.192004 
L 387.845995 -269.344261 
L 392.400521 -259.467747 
L 396.955047 -250.552459 
L 401.509573 -242.572312 
L 406.0641 -235.488004 
L 410.618626 -229.249878 
L 415.173152 -223.800667 
L 419.727678 -219.078053 
L 424.282204 -215.016962 
L 428.83673 -211.551575 
L 433.391256 -208.617009 
L 437.945783 -206.150691 
L 442.500309 -204.093399 
L 447.054835 -202.390029 
L 451.609361 -200.990079 
L 456.163887 -199.847921 
L 460.718413 -198.922859 
L 465.27294 -198.179047 
L 469.827466 -197.585273 
L 474.381992 -197.114666 
L 478.936518 -196.744335 
L 483.491044 -196.454982 
L 488.04557 -196.230497 
L 492.600096 -196.057565 
L 497.154623 -195.925281 
L 501.709149 -195.8248 
L 506.263675 -195.749007 
L 510.818201 -195.692234 
L 515.372727 -195.650004 
L 515.372727 -195.538011 
L 515.372727 -195.538011 
L 510.818201 -195.538011 
L 506.263675 -195.538011 
L 501.709149 -195.538011 
L 497.154623 -195.538011 
L 492.600096 -195.538011 
L 488.04557 -195.538011 
L 483.491044 -195.538011 
L 478.936518 -195.538011 
L 474.381992 -195.538011 
L 469.827466 -195.538011 
L 465.27294 -195.538011 
L 460.718413 -195.538011 
L 456.163887 -195.538011 
L 451.609361 -195.538011 
L 447.054835 -195.538011 
L 442.500309 -195.538011 
L 437.945783 -195.538011 
L 433.391256 -195.538011 
L 428.83673 -195.538011 
L 424.282204 -195.538011 
L 419.727678 -195.538011 
L 415.173152 -195.538011 
L 410.618626 -195.538011 
L 406.0641 -195.538011 
L 401.509573 -195.538011 
L 396.955047 -195.538011 
L 392.400521 -195.538011 
L 387.845995 -195.538011 
L 383.291469 -195.538011 
L 378.736943 -195.538011 
L 374.182416 -195.538011 
L 369.62789 -195.538011 
L 365.073364 -195.538011 
L 360.518838 -195.538011 
L 355.964312 -195.538011 
L 351.409786 -195.538011 
L 346.85526 -195.538011 
L 342.300733 -195.538011 
L 337.746207 -195.538011 
L 333.191681 -195.538011 
L 328.637155 -195.538011 
L 324.082629 -195.538011 
L 319.528103 -195.538011 
L 314.973576 -195.538011 
L 310.41905 -195.538011 
L 305.864524 -195.538011 
L 301.309998 -195.538011 
L 296.755472 -195.538011 
L 292.200946 -195.538011 
L 287.64642 -195.538011 
L 283.091893 -195.538011 
L 278.537367 -195.538011 
L 273.982841 -195.538011 
L 269.428315 -195.538011 
L 264.873789 -195.538011 
L 260.319263 -195.538011 
L 255.764736 -195.538011 
L 251.21021 -195.538011 
L 246.655684 -195.538011 
L 242.101158 -195.538011 
L 237.546632 -195.538011 
L 232.992106 -195.538011 
L 228.43758 -195.538011 
L 223.883053 -195.538011 
L 219.328527 -195.538011 
L 214.774001 -195.538011 
L 210.219475 -195.538011 
L 205.664949 -195.538011 
L 201.110423 -195.538011 
L 196.555896 -195.538011 
L 192.00137 -195.538011 
L 187.446844 -195.538011 
L 182.892318 -195.538011 
L 178.337792 -195.538011 
L 173.783266 -195.538011 
L 169.228739 -195.538011 
L 164.674213 -195.538011 
L 160.119687 -195.538011 
L 155.565161 -195.538011 
L 151.010635 -195.538011 
L 146.456109 -195.538011 
L 141.901583 -195.538011 
L 137.347056 -195.538011 
L 132.79253 -195.538011 
L 128.238004 -195.538011 
L 123.683478 -195.538011 
L 119.128952 -195.538011 
L 114.574426 -195.538011 
L 110.019899 -195.538011 
L 105.465373 -195.538011 
L 100.910847 -195.538011 
L 96.356321 -195.538011 
L 91.801795 -195.538011 
L 87.247269 -195.538011 
L 82.692743 -195.538011 
L 78.138216 -195.538011 
L 73.58369 -195.538011 
L 69.029164 -195.538011 
L 64.474638 -195.538011 
z
" id="m80cee35199" style="stroke:#36a2eb;stroke-opacity:0.5;"/>
    </defs>
    <g clip-path="url(#p144e1f7194)">
     <use style="fill:#36a2eb;fill-opacity:0.5;stroke:#36a2eb;stroke-opacity:0.5;" x="0" xlink:href="#m80cee35199" y="581.789375"/>
    </g>
   </g>
   <g id="line2d_1">
    <path clip-path="url(#p144e1f7194)" d="M 58.827273 386.139638 
L 63.392678 386.097508 
L 67.958083 386.040871 
L 72.523488 385.965259 
L 77.088892 385.865016 
L 81.654297 385.733048 
L 86.219702 385.560528 
L 90.785107 385.336578 
L 95.350512 385.047914 
L 99.915917 384.678466 
L 104.481322 384.20898 
L 109.046727 383.616622 
L 113.612132 382.874582 
L 118.177537 381.951724 
L 122.742942 380.812287 
L 127.308347 379.415674 
L 131.873752 377.716362 
L 136.439157 375.663973 
L 141.004562 373.203531 
L 145.569967 370.275959 
L 150.135371 366.818829 
L 154.700776 362.767415 
L 159.266181 358.056054 
L 163.831586 352.619828 
L 168.396991 346.396567 
L 172.962396 339.32914 
L 177.527801 331.368008 
L 182.093206 322.473965 
L 186.658611 312.620985 
L 191.224016 301.799091 
L 195.789421 290.017099 
L 200.354826 277.305135 
L 204.920231 263.71676 
L 209.485636 249.330578 
L 214.051041 234.251186 
L 218.616446 218.609343 
L 223.181851 202.56126 
L 227.747255 186.286951 
L 232.31266 169.987605 
L 236.878065 153.882004 
L 241.44347 138.202035 
L 246.008875 123.187417 
L 250.57428 109.079791 
L 255.139685 96.116363 
L 259.70509 84.523346 
L 264.270495 74.509421 
L 268.8359 66.259515 
L 273.401305 59.929124 
L 277.96671 55.63944 
L 282.532115 53.473498 
L 287.09752 53.473498 
L 291.662925 55.63944 
L 296.22833 59.929124 
L 300.793734 66.259515 
L 305.359139 74.509421 
L 309.924544 84.523346 
L 314.489949 96.116363 
L 319.055354 109.079791 
L 323.620759 123.187417 
L 328.186164 138.202035 
L 332.751569 153.882004 
L 337.316974 169.987605 
L 341.882379 186.286951 
L 346.447784 202.56126 
L 351.013189 218.609343 
L 355.578594 234.251186 
L 360.143999 249.330578 
L 364.709404 263.71676 
L 369.274809 277.305135 
L 373.840213 290.017099 
L 378.405618 301.799091 
L 382.971023 312.620985 
L 387.536428 322.473965 
L 392.101833 331.368008 
L 396.667238 339.32914 
L 401.232643 346.396567 
L 405.798048 352.619828 
L 410.363453 358.056054 
L 414.928858 362.767415 
L 419.494263 366.818829 
L 424.059668 370.275959 
L 428.625073 373.203531 
L 433.190478 375.663973 
L 437.755883 377.716362 
L 442.321288 379.415674 
L 446.886692 380.812287 
L 451.452097 381.951724 
L 456.017502 382.874582 
L 460.582907 383.616622 
L 465.148312 384.20898 
L 469.713717 384.678466 
L 474.279122 385.047914 
L 478.844527 385.336578 
L 483.409932 385.560528 
L 487.975337 385.733048 
L 492.540742 385.865016 
L 497.106147 385.965259 
L 501.671552 386.040871 
L 506.236957 386.097508 
L 510.802362 386.139638 
" style="fill:none;stroke:#ff6384;stroke-linecap:square;"/>
   </g>
   <g id="line2d_2">
    <path clip-path="url(#p144e1f7194)" d="M 64.474638 386.139371 
L 69.029164 386.097141 
L 73.58369 386.040368 
L 78.138216 385.964575 
L 82.692743 385.864094 
L 87.247269 385.73181 
L 91.801795 385.558878 
L 96.356321 385.334393 
L 100.910847 385.04504 
L 105.465373 384.674709 
L 110.019899 384.204102 
L 114.574426 383.610328 
L 119.128952 382.866516 
L 123.683478 381.941454 
L 128.238004 380.799296 
L 132.79253 379.399346 
L 137.347056 377.695976 
L 141.901583 375.638684 
L 146.456109 373.172366 
L 151.010635 370.2378 
L 155.565161 366.772413 
L 160.119687 362.711322 
L 164.674213 357.988708 
L 169.228739 352.539497 
L 173.783266 346.301371 
L 178.337792 339.217063 
L 182.892318 331.236916 
L 187.446844 322.321628 
L 192.00137 312.445114 
L 196.555896 301.597371 
L 201.110423 289.787238 
L 205.664949 277.04491 
L 210.219475 263.424078 
L 214.774001 249.003534 
L 219.328527 233.888124 
L 223.883053 218.208919 
L 228.43758 202.122504 
L 232.992106 185.809323 
L 237.546632 169.471045 
L 242.101158 153.326975 
L 246.655684 137.609553 
L 251.21021 122.559072 
L 255.764736 108.417748 
L 260.319263 95.423357 
L 264.873789 83.802649 
L 269.428315 73.764805 
L 273.982841 65.495194 
L 278.537367 59.149682 
L 283.091893 54.849752 
L 287.64642 52.678636 
L 292.200946 52.678636 
L 296.755472 54.849752 
L 301.309998 59.149682 
L 305.864524 65.495194 
L 310.41905 73.764805 
L 314.973576 83.802649 
L 319.528103 95.423357 
L 324.082629 108.417748 
L 328.637155 122.559072 
L 333.191681 137.609553 
L 337.746207 153.326975 
L 342.300733 169.471045 
L 346.85526 185.809323 
L 351.409786 202.122504 
L 355.964312 218.208919 
L 360.518838 233.888124 
L 365.073364 249.003534 
L 369.62789 263.424078 
L 374.182416 277.04491 
L 378.736943 289.787238 
L 383.291469 301.597371 
L 387.845995 312.445114 
L 392.400521 322.321628 
L 396.955047 331.236916 
L 401.509573 339.217063 
L 406.0641 346.301371 
L 410.618626 352.539497 
L 415.173152 357.988708 
L 419.727678 362.711322 
L 424.282204 366.772413 
L 428.83673 370.2378 
L 433.391256 373.172366 
L 437.945783 375.638684 
L 442.500309 377.695976 
L 447.054835 379.399346 
L 451.609361 380.799296 
L 456.163887 381.941454 
L 460.718413 382.866516 
L 465.27294 383.610328 
L 469.827466 384.204102 
L 474.381992 384.674709 
L 478.936518 385.04504 
L 483.491044 385.334393 
L 488.04557 385.558878 
L 492.600096 385.73181 
L 497.154623 385.864094 
L 501.709149 385.964575 
L 506.263675 386.040368 
L 510.818201 386.097141 
L 515.372727 386.139371 
" style="fill:none;stroke:#36a2eb;stroke-linecap:square;"/>
   </g>
   <g id="patch_3">
    <path d="M 36 402.93 
L 538.2 402.93 
" style="fill:none;stroke:#000000;stroke-linecap:square;stroke-linejoin:miter;stroke-width:0.8;"/>
   </g>
   <g id="legend_1">
    <g id="patch_4">
     <path d="M 430.8725 88.29875 
L 528.4 88.29875 
Q 531.2 88.29875 531.2 85.49875 
L 531.2 45.8 
Q 531.2 43 528.4 43 
L 430.8725 43 
Q 428.0725 43 428.0725 45.8 
L 428.0725 85.49875 
Q 428.0725 88.29875 430.8725 88.29875 
z
" style="fill:#ffffff;opacity:0.8;stroke:#cccccc;stroke-linejoin:miter;"/>
    </g>
    <g id="patch_5">
     <path d="M 433.6725 59.237813 
L 461.6725 59.237813 
L 461.6725 49.437813 
L 433.6725 49.437813 
z
" style="fill:#ff6384;opacity:0.5;stroke:#ff6384;stroke-linejoin:miter;"/>
    </g>
    <g id="text_1">
     <!-- base -->
     <defs>
      <path d="M 48.6875 27.296875 
Q 48.6875 37.203125 44.609375 42.84375 
Q 40.53125 48.484375 33.40625 48.484375 
Q 26.265625 48.484375 22.1875 42.84375 
Q 18.109375 37.203125 18.109375 27.296875 
Q 18.109375 17.390625 22.1875 11.75 
Q 26.265625 6.109375 33.40625 6.109375 
Q 40.53125 6.109375 44.609375 11.75 
Q 48.6875 17.390625 48.6875 27.296875 
z
M 18.109375 46.390625 
Q 20.953125 51.265625 25.265625 53.625 
Q 29.59375 56 35.59375 56 
Q 45.5625 56 51.78125 48.09375 
Q 58.015625 40.1875 58.015625 27.296875 
Q 58.015625 14.40625 51.78125 6.484375 
Q 45.5625 -1.421875 35.59375 -1.421875 
Q 29.59375 -1.421875 25.265625 0.953125 
Q 20.953125 3.328125 18.109375 8.203125 
L 18.109375 0 
L 9.078125 0 
L 9.078125 75.984375 
L 18.109375 75.984375 
z
" id="DejaVuSans-98"/>
      <path d="M 34.28125 27.484375 
Q 23.390625 27.484375 19.1875 25 
Q 14.984375 22.515625 14.984375 16.5 
Q 14.984375 11.71875 18.140625 8.90625 
Q 21.296875 6.109375 26.703125 6.109375 
Q 34.1875 6.109375 38.703125 11.40625 
Q 43.21875 16.703125 43.21875 25.484375 
L 43.21875 27.484375 
z
M 52.203125 31.203125 
L 52.203125 0 
L 43.21875 0 
L 43.21875 8.296875 
Q 40.140625 3.328125 35.546875 0.953125 
Q 30.953125 -1.421875 24.3125 -1.421875 
Q 15.921875 -1.421875 10.953125 3.296875 
Q 6 8.015625 6 15.921875 
Q 6 25.140625 12.171875 29.828125 
Q 18.359375 34.515625 30.609375 34.515625 
L 43.21875 34.515625 
L 43.21875 35.40625 
Q 43.21875 41.609375 39.140625 45 
Q 35.0625 48.390625 27.6875 48.390625 
Q 23 48.390625 18.546875 47.265625 
Q 14.109375 46.140625 10.015625 43.890625 
L 10.015625 52.203125 
Q 14.9375 54.109375 19.578125 55.046875 
Q 24.21875 56 28.609375 56 
Q 40.484375 56 46.34375 49.84375 
Q 52.203125 43.703125 52.203125 31.203125 
z
" id="DejaVuSans-97"/>
      <path d="M 44.28125 53.078125 
L 44.28125 44.578125 
Q 40.484375 46.53125 36.375 47.5 
Q 32.28125 48.484375 27.875 48.484375 
Q 21.1875 48.484375 17.84375 46.4375 
Q 14.5 44.390625 14.5 40.28125 
Q 14.5 37.15625 16.890625 35.375 
Q 19.28125 33.59375 26.515625 31.984375 
L 29.59375 31.296875 
Q 39.15625 29.25 43.1875 25.515625 
Q 47.21875 21.78125 47.21875 15.09375 
Q 47.21875 7.46875 41.1875 3.015625 
Q 35.15625 -1.421875 24.609375 -1.421875 
Q 20.21875 -1.421875 15.453125 -0.5625 
Q 10.6875 0.296875 5.421875 2 
L 5.421875 11.28125 
Q 10.40625 8.6875 15.234375 7.390625 
Q 20.0625 6.109375 24.8125 6.109375 
Q 31.15625 6.109375 34.5625 8.28125 
Q 37.984375 10.453125 37.984375 14.40625 
Q 37.984375 18.0625 35.515625 20.015625 
Q 33.0625 21.96875 24.703125 23.78125 
L 21.578125 24.515625 
Q 13.234375 26.265625 9.515625 29.90625 
Q 5.8125 33.546875 5.8125 39.890625 
Q 5.8125 47.609375 11.28125 51.796875 
Q 16.75 56 26.8125 56 
Q 31.78125 56 36.171875 55.265625 
Q 40.578125 54.546875 44.28125 53.078125 
z
" id="DejaVuSans-115"/>
      <path d="M 56.203125 29.59375 
L 56.203125 25.203125 
L 14.890625 25.203125 
Q 15.484375 15.921875 20.484375 11.0625 
Q 25.484375 6.203125 34.421875 6.203125 
Q 39.59375 6.203125 44.453125 7.46875 
Q 49.3125 8.734375 54.109375 11.28125 
L 54.109375 2.78125 
Q 49.265625 0.734375 44.1875 -0.34375 
Q 39.109375 -1.421875 33.890625 -1.421875 
Q 20.796875 -1.421875 13.15625 6.1875 
Q 5.515625 13.8125 5.515625 26.8125 
Q 5.515625 40.234375 12.765625 48.109375 
Q 20.015625 56 32.328125 56 
Q 43.359375 56 49.78125 48.890625 
Q 56.203125 41.796875 56.203125 29.59375 
z
M 47.21875 32.234375 
Q 47.125 39.59375 43.09375 43.984375 
Q 39.0625 48.390625 32.421875 48.390625 
Q 24.90625 48.390625 20.390625 44.140625 
Q 15.875 39.890625 15.1875 32.171875 
z
" id="DejaVuSans-101"/>
     </defs>
     <g transform="translate(472.8725 59.237813)scale(0.14 -0.14)">
      <use xlink:href="#DejaVuSans-98"/>
      <use x="63.476562" xlink:href="#DejaVuSans-97"/>
      <use x="124.755859" xlink:href="#DejaVuSans-115"/>
      <use x="176.855469" xlink:href="#DejaVuSans-101"/>
     </g>
    </g>
    <g id="patch_6">
     <path d="M 433.6725 79.787188 
L 461.6725 79.787188 
L 461.6725 69.987188 
L 433.6725 69.987188 
z
" style="fill:#36a2eb;opacity:0.5;stroke:#36a2eb;stroke-linejoin:miter;"/>
    </g>
    <g id="text_2">
     <!-- policies -->
     <defs>
      <path d="M 18.109375 8.203125 
L 18.109375 -20.796875 
L 9.078125 -20.796875 
L 9.078125 54.6875 
L 18.109375 54.6875 
L 18.109375 46.390625 
Q 20.953125 51.265625 25.265625 53.625 
Q 29.59375 56 35.59375 56 
Q 45.5625 56 51.78125 48.09375 
Q 58.015625 40.1875 58.015625 27.296875 
Q 58.015625 14.40625 51.78125 6.484375 
Q 45.5625 -1.421875 35.59375 -1.421875 
Q 29.59375 -1.421875 25.265625 0.953125 
Q 20.953125 3.328125 18.109375 8.203125 
z
M 48.6875 27.296875 
Q 48.6875 37.203125 44.609375 42.84375 
Q 40.53125 48.484375 33.40625 48.484375 
Q 26.265625 48.484375 22.1875 42.84375 
Q 18.109375 37.203125 18.109375 27.296875 
Q 18.109375 17.390625 22.1875 11.75 
Q 26.265625 6.109375 33.40625 6.109375 
Q 40.53125 6.109375 44.609375 11.75 
Q 48.6875 17.390625 48.6875 27.296875 
z
" id="DejaVuSans-112"/>
      <path d="M 30.609375 48.390625 
Q 23.390625 48.390625 19.1875 42.75 
Q 14.984375 37.109375 14.984375 27.296875 
Q 14.984375 17.484375 19.15625 11.84375 
Q 23.34375 6.203125 30.609375 6.203125 
Q 37.796875 6.203125 41.984375 11.859375 
Q 46.1875 17.53125 46.1875 27.296875 
Q 46.1875 37.015625 41.984375 42.703125 
Q 37.796875 48.390625 30.609375 48.390625 
z
M 30.609375 56 
Q 42.328125 56 49.015625 48.375 
Q 55.71875 40.765625 55.71875 27.296875 
Q 55.71875 13.875 49.015625 6.21875 
Q 42.328125 -1.421875 30.609375 -1.421875 
Q 18.84375 -1.421875 12.171875 6.21875 
Q 5.515625 13.875 5.515625 27.296875 
Q 5.515625 40.765625 12.171875 48.375 
Q 18.84375 56 30.609375 56 
z
" id="DejaVuSans-111"/>
      <path d="M 9.421875 75.984375 
L 18.40625 75.984375 
L 18.40625 0 
L 9.421875 0 
z
" id="DejaVuSans-108"/>
      <path d="M 9.421875 54.6875 
L 18.40625 54.6875 
L 18.40625 0 
L 9.421875 0 
z
M 9.421875 75.984375 
L 18.40625 75.984375 
L 18.40625 64.59375 
L 9.421875 64.59375 
z
" id="DejaVuSans-105"/>
      <path d="M 48.78125 52.59375 
L 48.78125 44.1875 
Q 44.96875 46.296875 41.140625 47.34375 
Q 37.3125 48.390625 33.40625 48.390625 
Q 24.65625 48.390625 19.8125 42.84375 
Q 14.984375 37.3125 14.984375 27.296875 
Q 14.984375 17.28125 19.8125 11.734375 
Q 24.65625 6.203125 33.40625 6.203125 
Q 37.3125 6.203125 41.140625 7.25 
Q 44.96875 8.296875 48.78125 10.40625 
L 48.78125 2.09375 
Q 45.015625 0.34375 40.984375 -0.53125 
Q 36.96875 -1.421875 32.421875 -1.421875 
Q 20.0625 -1.421875 12.78125 6.34375 
Q 5.515625 14.109375 5.515625 27.296875 
Q 5.515625 40.671875 12.859375 48.328125 
Q 20.21875 56 33.015625 56 
Q 37.15625 56 41.109375 55.140625 
Q 45.0625 54.296875 48.78125 52.59375 
z
" id="DejaVuSans-99"/>
     </defs>
     <g transform="translate(472.8725 79.787188)scale(0.14 -0.14)">
      <use xlink:href="#DejaVuSans-112"/>
      <use x="63.476562" xlink:href="#DejaVuSans-111"/>
      <use x="124.658203" xlink:href="#DejaVuSans-108"/>
      <use x="152.441406" xlink:href="#DejaVuSans-105"/>
      <use x="180.224609" xlink:href="#DejaVuSans-99"/>
      <use x="235.205078" xlink:href="#DejaVuSans-105"/>
      <use x="262.988281" xlink:href="#DejaVuSans-101"/>
      <use x="324.511719" xlink:href="#DejaVuSans-115"/>
     </g>
    </g>
   </g>
  </g>
  <g id="axes_2">
   <g id="patch_7">
    <path d="M 36 525.24 
L 538.2 525.24 
L 538.2 402.93 
L 36 402.93 
z
" style="fill:none;"/>
   </g>
   <g id="patch_8">
    <path clip-path="url(#pda32493e3e)" d="M 174.08092 519.680455 
L 395.548714 519.680455 
L 395.548714 482.616818 
L 174.08092 482.616818 
z
" style="fill:#ff6384;opacity:0.5;"/>
   </g>
   <g id="patch_9">
    <path clip-path="url(#pda32493e3e)" d="M 179.453651 445.553182 
L 400.393714 445.553182 
L 400.393714 408.489545 
L 179.453651 408.489545 
z
" style="fill:#36a2eb;opacity:0.5;"/>
   </g>
   <g id="matplotlib.axis_1">
    <g id="xtick_1">
     <g id="line2d_3">
      <defs>
       <path d="M 0 0 
L 0 3.5 
" id="m80d37419ac" style="stroke:#000000;stroke-width:0.8;"/>
      </defs>
      <g>
       <use style="stroke:#000000;stroke-width:0.8;" x="77.05429" xlink:href="#m80d37419ac" y="525.24"/>
      </g>
     </g>
     <g id="text_3">
      <!-- 7.0 -->
      <defs>
       <path d="M 8.203125 72.90625 
L 55.078125 72.90625 
L 55.078125 68.703125 
L 28.609375 0 
L 18.3125 0 
L 43.21875 64.59375 
L 8.203125 64.59375 
z
" id="DejaVuSans-55"/>
       <path d="M 10.6875 12.40625 
L 21 12.40625 
L 21 0 
L 10.6875 0 
z
" id="DejaVuSans-46"/>
       <path d="M 31.78125 66.40625 
Q 24.171875 66.40625 20.328125 58.90625 
Q 16.5 51.421875 16.5 36.375 
Q 16.5 21.390625 20.328125 13.890625 
Q 24.171875 6.390625 31.78125 6.390625 
Q 39.453125 6.390625 43.28125 13.890625 
Q 47.125 21.390625 47.125 36.375 
Q 47.125 51.421875 43.28125 58.90625 
Q 39.453125 66.40625 31.78125 66.40625 
z
M 31.78125 74.21875 
Q 44.046875 74.21875 50.515625 64.515625 
Q 56.984375 54.828125 56.984375 36.375 
Q 56.984375 17.96875 50.515625 8.265625 
Q 44.046875 -1.421875 31.78125 -1.421875 
Q 19.53125 -1.421875 13.0625 8.265625 
Q 6.59375 17.96875 6.59375 36.375 
Q 6.59375 54.828125 13.0625 64.515625 
Q 19.53125 74.21875 31.78125 74.21875 
z
" id="DejaVuSans-48"/>
      </defs>
      <g transform="translate(65.922102 542.877813)scale(0.14 -0.14)">
       <use xlink:href="#DejaVuSans-55"/>
       <use x="63.623047" xlink:href="#DejaVuSans-46"/>
       <use x="95.410156" xlink:href="#DejaVuSans-48"/>
      </g>
     </g>
    </g>
    <g id="xtick_2">
     <g id="line2d_4">
      <g>
       <use style="stroke:#000000;stroke-width:0.8;" x="162.202047" xlink:href="#m80d37419ac" y="525.24"/>
      </g>
     </g>
     <g id="text_4">
      <!-- 7.5 -->
      <defs>
       <path d="M 10.796875 72.90625 
L 49.515625 72.90625 
L 49.515625 64.59375 
L 19.828125 64.59375 
L 19.828125 46.734375 
Q 21.96875 47.46875 24.109375 47.828125 
Q 26.265625 48.1875 28.421875 48.1875 
Q 40.625 48.1875 47.75 41.5 
Q 54.890625 34.8125 54.890625 23.390625 
Q 54.890625 11.625 47.5625 5.09375 
Q 40.234375 -1.421875 26.90625 -1.421875 
Q 22.3125 -1.421875 17.546875 -0.640625 
Q 12.796875 0.140625 7.71875 1.703125 
L 7.71875 11.625 
Q 12.109375 9.234375 16.796875 8.0625 
Q 21.484375 6.890625 26.703125 6.890625 
Q 35.15625 6.890625 40.078125 11.328125 
Q 45.015625 15.765625 45.015625 23.390625 
Q 45.015625 31 40.078125 35.4375 
Q 35.15625 39.890625 26.703125 39.890625 
Q 22.75 39.890625 18.8125 39.015625 
Q 14.890625 38.140625 10.796875 36.28125 
z
" id="DejaVuSans-53"/>
      </defs>
      <g transform="translate(151.069859 542.877813)scale(0.14 -0.14)">
       <use xlink:href="#DejaVuSans-55"/>
       <use x="63.623047" xlink:href="#DejaVuSans-46"/>
       <use x="95.410156" xlink:href="#DejaVuSans-53"/>
      </g>
     </g>
    </g>
    <g id="xtick_3">
     <g id="line2d_5">
      <g>
       <use style="stroke:#000000;stroke-width:0.8;" x="247.349804" xlink:href="#m80d37419ac" y="525.24"/>
      </g>
     </g>
     <g id="text_5">
      <!-- 8.0 -->
      <defs>
       <path d="M 31.78125 34.625 
Q 24.75 34.625 20.71875 30.859375 
Q 16.703125 27.09375 16.703125 20.515625 
Q 16.703125 13.921875 20.71875 10.15625 
Q 24.75 6.390625 31.78125 6.390625 
Q 38.8125 6.390625 42.859375 10.171875 
Q 46.921875 13.96875 46.921875 20.515625 
Q 46.921875 27.09375 42.890625 30.859375 
Q 38.875 34.625 31.78125 34.625 
z
M 21.921875 38.8125 
Q 15.578125 40.375 12.03125 44.71875 
Q 8.5 49.078125 8.5 55.328125 
Q 8.5 64.0625 14.71875 69.140625 
Q 20.953125 74.21875 31.78125 74.21875 
Q 42.671875 74.21875 48.875 69.140625 
Q 55.078125 64.0625 55.078125 55.328125 
Q 55.078125 49.078125 51.53125 44.71875 
Q 48 40.375 41.703125 38.8125 
Q 48.828125 37.15625 52.796875 32.3125 
Q 56.78125 27.484375 56.78125 20.515625 
Q 56.78125 9.90625 50.3125 4.234375 
Q 43.84375 -1.421875 31.78125 -1.421875 
Q 19.734375 -1.421875 13.25 4.234375 
Q 6.78125 9.90625 6.78125 20.515625 
Q 6.78125 27.484375 10.78125 32.3125 
Q 14.796875 37.15625 21.921875 38.8125 
z
M 18.3125 54.390625 
Q 18.3125 48.734375 21.84375 45.5625 
Q 25.390625 42.390625 31.78125 42.390625 
Q 38.140625 42.390625 41.71875 45.5625 
Q 45.3125 48.734375 45.3125 54.390625 
Q 45.3125 60.0625 41.71875 63.234375 
Q 38.140625 66.40625 31.78125 66.40625 
Q 25.390625 66.40625 21.84375 63.234375 
Q 18.3125 60.0625 18.3125 54.390625 
z
" id="DejaVuSans-56"/>
      </defs>
      <g transform="translate(236.217617 542.877813)scale(0.14 -0.14)">
       <use xlink:href="#DejaVuSans-56"/>
       <use x="63.623047" xlink:href="#DejaVuSans-46"/>
       <use x="95.410156" xlink:href="#DejaVuSans-48"/>
      </g>
     </g>
    </g>
    <g id="xtick_4">
     <g id="line2d_6">
      <g>
       <use style="stroke:#000000;stroke-width:0.8;" x="332.497561" xlink:href="#m80d37419ac" y="525.24"/>
      </g>
     </g>
     <g id="text_6">
      <!-- 8.5 -->
      <g transform="translate(321.365374 542.877813)scale(0.14 -0.14)">
       <use xlink:href="#DejaVuSans-56"/>
       <use x="63.623047" xlink:href="#DejaVuSans-46"/>
       <use x="95.410156" xlink:href="#DejaVuSans-53"/>
      </g>
     </g>
    </g>
    <g id="xtick_5">
     <g id="line2d_7">
      <g>
       <use style="stroke:#000000;stroke-width:0.8;" x="417.645318" xlink:href="#m80d37419ac" y="525.24"/>
      </g>
     </g>
     <g id="text_7">
      <!-- 9.0 -->
      <defs>
       <path d="M 10.984375 1.515625 
L 10.984375 10.5 
Q 14.703125 8.734375 18.5 7.8125 
Q 22.3125 6.890625 25.984375 6.890625 
Q 35.75 6.890625 40.890625 13.453125 
Q 46.046875 20.015625 46.78125 33.40625 
Q 43.953125 29.203125 39.59375 26.953125 
Q 35.25 24.703125 29.984375 24.703125 
Q 19.046875 24.703125 12.671875 31.3125 
Q 6.296875 37.9375 6.296875 49.421875 
Q 6.296875 60.640625 12.9375 67.421875 
Q 19.578125 74.21875 30.609375 74.21875 
Q 43.265625 74.21875 49.921875 64.515625 
Q 56.59375 54.828125 56.59375 36.375 
Q 56.59375 19.140625 48.40625 8.859375 
Q 40.234375 -1.421875 26.421875 -1.421875 
Q 22.703125 -1.421875 18.890625 -0.6875 
Q 15.09375 0.046875 10.984375 1.515625 
z
M 30.609375 32.421875 
Q 37.25 32.421875 41.125 36.953125 
Q 45.015625 41.5 45.015625 49.421875 
Q 45.015625 57.28125 41.125 61.84375 
Q 37.25 66.40625 30.609375 66.40625 
Q 23.96875 66.40625 20.09375 61.84375 
Q 16.21875 57.28125 16.21875 49.421875 
Q 16.21875 41.5 20.09375 36.953125 
Q 23.96875 32.421875 30.609375 32.421875 
z
" id="DejaVuSans-57"/>
      </defs>
      <g transform="translate(406.513131 542.877813)scale(0.14 -0.14)">
       <use xlink:href="#DejaVuSans-57"/>
       <use x="63.623047" xlink:href="#DejaVuSans-46"/>
       <use x="95.410156" xlink:href="#DejaVuSans-48"/>
      </g>
     </g>
    </g>
    <g id="xtick_6">
     <g id="line2d_8">
      <g>
       <use style="stroke:#000000;stroke-width:0.8;" x="502.793075" xlink:href="#m80d37419ac" y="525.24"/>
      </g>
     </g>
     <g id="text_8">
      <!-- 9.5 -->
      <g transform="translate(491.660888 542.877813)scale(0.14 -0.14)">
       <use xlink:href="#DejaVuSans-57"/>
       <use x="63.623047" xlink:href="#DejaVuSans-46"/>
       <use x="95.410156" xlink:href="#DejaVuSans-53"/>
      </g>
     </g>
    </g>
   </g>
   <g id="line2d_9">
    <path clip-path="url(#pda32493e3e)" d="M 284.814817 525.24 
L 284.814817 402.93 
" style="fill:none;stroke:#ff6384;stroke-dasharray:5.55,2.4;stroke-dashoffset:0;stroke-opacity:0.8;stroke-width:1.5;"/>
   </g>
   <g id="line2d_10">
    <path clip-path="url(#pda32493e3e)" d="M 289.923683 525.24 
L 289.923683 402.93 
" style="fill:none;stroke:#36a2eb;stroke-dasharray:5.55,2.4;stroke-dashoffset:0;stroke-opacity:0.8;stroke-width:1.5;"/>
   </g>
   <g id="patch_10">
    <path d="M 36 525.24 
L 538.2 525.24 
" style="fill:none;stroke:#000000;stroke-linecap:square;stroke-linejoin:miter;stroke-width:0.8;"/>
   </g>
  </g>
 </g>
 <defs>
  <clipPath id="p144e1f7194">
   <rect height="366.93" width="502.2" x="36" y="36"/>
  </clipPath>
  <clipPath id="pda32493e3e">
   <rect height="122.31" width="502.2" x="36" y="402.93"/>
  </clipPath>
 </defs>
</svg>
