<?xml version="1.0" encoding="utf-8" standalone="no"?>
<!DOCTYPE svg PUBLIC "-//W3C//DTD SVG 1.1//EN"
  "http://www.w3.org/Graphics/SVG/1.1/DTD/svg11.dtd">
<!-- Created with matplotlib (https://matplotlib.org/) -->
<svg height="581.789375pt" version="1.1" viewBox="0 0 574.2 581.789375" width="574.2pt" xmlns="http://www.w3.org/2000/svg" xmlns:xlink="http://www.w3.org/1999/xlink">
 <defs>
  <style type="text/css">
*{stroke-linecap:butt;stroke-linejoin:round;}
  </style>
 </defs>
 <g id="figure_1">
  <g id="patch_1">
   <path d="M 0 581.789375 
L 574.2 581.789375 
L 574.2 0 
L 0 0 
z
" style="fill:none;"/>
  </g>
  <g id="axes_1">
   <g id="patch_2">
    <path d="M 36 402.93 
L 538.2 402.93 
L 538.2 36 
L 36 36 
z
" style="fill:none;"/>
   </g>
   <g id="PolyCollection_1">
    <defs>
     <path d="M 102.426416 -195.538011 
L 102.426416 -195.650004 
L 104.837723 -195.692234 
L 107.249031 -195.749007 
L 109.660338 -195.8248 
L 112.071646 -195.925281 
L 114.482954 -196.057565 
L 116.894261 -196.230497 
L 119.305569 -196.454982 
L 121.716876 -196.744335 
L 124.128184 -197.114666 
L 126.539491 -197.585273 
L 128.950799 -198.179047 
L 131.362107 -198.922859 
L 133.773414 -199.847921 
L 136.184722 -200.990079 
L 138.596029 -202.390029 
L 141.007337 -204.093399 
L 143.418645 -206.150691 
L 145.829952 -208.617009 
L 148.24126 -211.551575 
L 150.652567 -215.016962 
L 153.063875 -219.078053 
L 155.475182 -223.800667 
L 157.88649 -229.249878 
L 160.297798 -235.488004 
L 162.709105 -242.572312 
L 165.120413 -250.552459 
L 167.53172 -259.467747 
L 169.943028 -269.344261 
L 172.354335 -280.192004 
L 174.765643 -292.002137 
L 177.176951 -304.744465 
L 179.588258 -318.365297 
L 181.999566 -332.785841 
L 184.410873 -347.901251 
L 186.822181 -363.580456 
L 189.233488 -379.666871 
L 191.644796 -395.980052 
L 194.056104 -412.31833 
L 196.467411 -428.4624 
L 198.878719 -444.179822 
L 201.290026 -459.230303 
L 203.701334 -473.371627 
L 206.112641 -486.366018 
L 208.523949 -497.986726 
L 210.935257 -508.02457 
L 213.346564 -516.294181 
L 215.757872 -522.639693 
L 218.169179 -526.939623 
L 220.580487 -529.110739 
L 222.991794 -529.110739 
L 225.403102 -526.939623 
L 227.81441 -522.639693 
L 230.225717 -516.294181 
L 232.637025 -508.02457 
L 235.048332 -497.986726 
L 237.45964 -486.366018 
L 239.870947 -473.371627 
L 242.282255 -459.230303 
L 244.693563 -444.179822 
L 247.10487 -428.4624 
L 249.516178 -412.31833 
L 251.927485 -395.980052 
L 254.338793 -379.666871 
L 256.7501 -363.580456 
L 259.161408 -347.901251 
L 261.572716 -332.785841 
L 263.984023 -318.365297 
L 266.395331 -304.744465 
L 268.806638 -292.002137 
L 271.217946 -280.192004 
L 273.629253 -269.344261 
L 276.040561 -259.467747 
L 278.451869 -250.552459 
L 280.863176 -242.572312 
L 283.274484 -235.488004 
L 285.685791 -229.249878 
L 288.097099 -223.800667 
L 290.508406 -219.078053 
L 292.919714 -215.016962 
L 295.331022 -211.551575 
L 297.742329 -208.617009 
L 300.153637 -206.150691 
L 302.564944 -204.093399 
L 304.976252 -202.390029 
L 307.387559 -200.990079 
L 309.798867 -199.847921 
L 312.210175 -198.922859 
L 314.621482 -198.179047 
L 317.03279 -197.585273 
L 319.444097 -197.114666 
L 321.855405 -196.744335 
L 324.266712 -196.454982 
L 326.67802 -196.230497 
L 329.089328 -196.057565 
L 331.500635 -195.925281 
L 333.911943 -195.8248 
L 336.32325 -195.749007 
L 338.734558 -195.692234 
L 341.145865 -195.650004 
L 341.145865 -195.538011 
L 341.145865 -195.538011 
L 338.734558 -195.538011 
L 336.32325 -195.538011 
L 333.911943 -195.538011 
L 331.500635 -195.538011 
L 329.089328 -195.538011 
L 326.67802 -195.538011 
L 324.266712 -195.538011 
L 321.855405 -195.538011 
L 319.444097 -195.538011 
L 317.03279 -195.538011 
L 314.621482 -195.538011 
L 312.210175 -195.538011 
L 309.798867 -195.538011 
L 307.387559 -195.538011 
L 304.976252 -195.538011 
L 302.564944 -195.538011 
L 300.153637 -195.538011 
L 297.742329 -195.538011 
L 295.331022 -195.538011 
L 292.919714 -195.538011 
L 290.508406 -195.538011 
L 288.097099 -195.538011 
L 285.685791 -195.538011 
L 283.274484 -195.538011 
L 280.863176 -195.538011 
L 278.451869 -195.538011 
L 276.040561 -195.538011 
L 273.629253 -195.538011 
L 271.217946 -195.538011 
L 268.806638 -195.538011 
L 266.395331 -195.538011 
L 263.984023 -195.538011 
L 261.572716 -195.538011 
L 259.161408 -195.538011 
L 256.7501 -195.538011 
L 254.338793 -195.538011 
L 251.927485 -195.538011 
L 249.516178 -195.538011 
L 247.10487 -195.538011 
L 244.693563 -195.538011 
L 242.282255 -195.538011 
L 239.870947 -195.538011 
L 237.45964 -195.538011 
L 235.048332 -195.538011 
L 232.637025 -195.538011 
L 230.225717 -195.538011 
L 227.81441 -195.538011 
L 225.403102 -195.538011 
L 222.991794 -195.538011 
L 220.580487 -195.538011 
L 218.169179 -195.538011 
L 215.757872 -195.538011 
L 213.346564 -195.538011 
L 210.935257 -195.538011 
L 208.523949 -195.538011 
L 206.112641 -195.538011 
L 203.701334 -195.538011 
L 201.290026 -195.538011 
L 198.878719 -195.538011 
L 196.467411 -195.538011 
L 194.056104 -195.538011 
L 191.644796 -195.538011 
L 189.233488 -195.538011 
L 186.822181 -195.538011 
L 184.410873 -195.538011 
L 181.999566 -195.538011 
L 179.588258 -195.538011 
L 177.176951 -195.538011 
L 174.765643 -195.538011 
L 172.354335 -195.538011 
L 169.943028 -195.538011 
L 167.53172 -195.538011 
L 165.120413 -195.538011 
L 162.709105 -195.538011 
L 160.297798 -195.538011 
L 157.88649 -195.538011 
L 155.475182 -195.538011 
L 153.063875 -195.538011 
L 150.652567 -195.538011 
L 148.24126 -195.538011 
L 145.829952 -195.538011 
L 143.418645 -195.538011 
L 141.007337 -195.538011 
L 138.596029 -195.538011 
L 136.184722 -195.538011 
L 133.773414 -195.538011 
L 131.362107 -195.538011 
L 128.950799 -195.538011 
L 126.539491 -195.538011 
L 124.128184 -195.538011 
L 121.716876 -195.538011 
L 119.305569 -195.538011 
L 116.894261 -195.538011 
L 114.482954 -195.538011 
L 112.071646 -195.538011 
L 109.660338 -195.538011 
L 107.249031 -195.538011 
L 104.837723 -195.538011 
L 102.426416 -195.538011 
z
" id="ma01ab32de9" style="stroke:#ff6384;stroke-opacity:0.5;"/>
    </defs>
    <g clip-path="url(#p6368d50b96)">
     <use style="fill:#ff6384;fill-opacity:0.5;stroke:#ff6384;stroke-opacity:0.5;" x="0" xlink:href="#ma01ab32de9" y="581.789375"/>
    </g>
   </g>
   <g id="PolyCollection_2">
    <defs>
     <path d="M 58.827273 -195.538011 
L 58.827273 -195.59657 
L 63.438843 -195.618652 
L 68.050413 -195.648337 
L 72.661983 -195.687968 
L 77.273554 -195.740508 
L 81.885124 -195.809677 
L 86.496694 -195.9001 
L 91.108264 -196.017479 
L 95.719835 -196.168776 
L 100.331405 -196.362416 
L 104.942975 -196.608488 
L 109.554545 -196.918961 
L 114.166116 -197.307888 
L 118.777686 -197.791586 
L 123.389256 -198.3888 
L 128.000826 -199.120809 
L 132.612397 -200.011471 
L 137.223967 -201.087192 
L 141.835537 -202.376785 
L 146.447107 -203.911217 
L 151.058678 -205.723206 
L 155.670248 -207.846678 
L 160.281818 -210.316048 
L 164.893388 -213.165343 
L 169.504959 -216.427148 
L 174.116529 -220.131406 
L 178.728099 -224.304082 
L 183.339669 -228.965726 
L 187.95124 -234.129979 
L 192.56281 -239.802069 
L 197.17438 -245.977377 
L 201.78595 -252.640112 
L 206.397521 -259.762201 
L 211.009091 -267.302446 
L 215.620661 -275.206023 
L 220.232231 -283.404399 
L 224.843802 -291.815697 
L 229.455372 -300.345568 
L 234.066942 -308.888561 
L 238.678512 -317.330007 
L 243.290083 -325.548365 
L 247.901653 -333.417993 
L 252.513223 -340.812238 
L 257.124793 -347.606773 
L 261.736364 -353.683033 
L 266.347934 -358.931642 
L 270.959504 -363.255674 
L 275.571074 -366.573628 
L 280.182645 -368.821985 
L 284.794215 -369.957222 
L 289.405785 -369.957222 
L 294.017355 -368.821985 
L 298.628926 -366.573628 
L 303.240496 -363.255674 
L 307.852066 -358.931642 
L 312.463636 -353.683033 
L 317.075207 -347.606773 
L 321.686777 -340.812238 
L 326.298347 -333.417993 
L 330.909917 -325.548365 
L 335.521488 -317.330007 
L 340.133058 -308.888561 
L 344.744628 -300.345568 
L 349.356198 -291.815697 
L 353.967769 -283.404399 
L 358.579339 -275.206023 
L 363.190909 -267.302446 
L 367.802479 -259.762201 
L 372.41405 -252.640112 
L 377.02562 -245.977377 
L 381.63719 -239.802069 
L 386.24876 -234.129979 
L 390.860331 -228.965726 
L 395.471901 -224.304082 
L 400.083471 -220.131406 
L 404.695041 -216.427148 
L 409.306612 -213.165343 
L 413.918182 -210.316048 
L 418.529752 -207.846678 
L 423.141322 -205.723206 
L 427.752893 -203.911217 
L 432.364463 -202.376785 
L 436.976033 -201.087192 
L 441.587603 -200.011471 
L 446.199174 -199.120809 
L 450.810744 -198.3888 
L 455.422314 -197.791586 
L 460.033884 -197.307888 
L 464.645455 -196.918961 
L 469.257025 -196.608488 
L 473.868595 -196.362416 
L 478.480165 -196.168776 
L 483.091736 -196.017479 
L 487.703306 -195.9001 
L 492.314876 -195.809677 
L 496.926446 -195.740508 
L 501.538017 -195.687968 
L 506.149587 -195.648337 
L 510.761157 -195.618652 
L 515.372727 -195.59657 
L 515.372727 -195.538011 
L 515.372727 -195.538011 
L 510.761157 -195.538011 
L 506.149587 -195.538011 
L 501.538017 -195.538011 
L 496.926446 -195.538011 
L 492.314876 -195.538011 
L 487.703306 -195.538011 
L 483.091736 -195.538011 
L 478.480165 -195.538011 
L 473.868595 -195.538011 
L 469.257025 -195.538011 
L 464.645455 -195.538011 
L 460.033884 -195.538011 
L 455.422314 -195.538011 
L 450.810744 -195.538011 
L 446.199174 -195.538011 
L 441.587603 -195.538011 
L 436.976033 -195.538011 
L 432.364463 -195.538011 
L 427.752893 -195.538011 
L 423.141322 -195.538011 
L 418.529752 -195.538011 
L 413.918182 -195.538011 
L 409.306612 -195.538011 
L 404.695041 -195.538011 
L 400.083471 -195.538011 
L 395.471901 -195.538011 
L 390.860331 -195.538011 
L 386.24876 -195.538011 
L 381.63719 -195.538011 
L 377.02562 -195.538011 
L 372.41405 -195.538011 
L 367.802479 -195.538011 
L 363.190909 -195.538011 
L 358.579339 -195.538011 
L 353.967769 -195.538011 
L 349.356198 -195.538011 
L 344.744628 -195.538011 
L 340.133058 -195.538011 
L 335.521488 -195.538011 
L 330.909917 -195.538011 
L 326.298347 -195.538011 
L 321.686777 -195.538011 
L 317.075207 -195.538011 
L 312.463636 -195.538011 
L 307.852066 -195.538011 
L 303.240496 -195.538011 
L 298.628926 -195.538011 
L 294.017355 -195.538011 
L 289.405785 -195.538011 
L 284.794215 -195.538011 
L 280.182645 -195.538011 
L 275.571074 -195.538011 
L 270.959504 -195.538011 
L 266.347934 -195.538011 
L 261.736364 -195.538011 
L 257.124793 -195.538011 
L 252.513223 -195.538011 
L 247.901653 -195.538011 
L 243.290083 -195.538011 
L 238.678512 -195.538011 
L 234.066942 -195.538011 
L 229.455372 -195.538011 
L 224.843802 -195.538011 
L 220.232231 -195.538011 
L 215.620661 -195.538011 
L 211.009091 -195.538011 
L 206.397521 -195.538011 
L 201.78595 -195.538011 
L 197.17438 -195.538011 
L 192.56281 -195.538011 
L 187.95124 -195.538011 
L 183.339669 -195.538011 
L 178.728099 -195.538011 
L 174.116529 -195.538011 
L 169.504959 -195.538011 
L 164.893388 -195.538011 
L 160.281818 -195.538011 
L 155.670248 -195.538011 
L 151.058678 -195.538011 
L 146.447107 -195.538011 
L 141.835537 -195.538011 
L 137.223967 -195.538011 
L 132.612397 -195.538011 
L 128.000826 -195.538011 
L 123.389256 -195.538011 
L 118.777686 -195.538011 
L 114.166116 -195.538011 
L 109.554545 -195.538011 
L 104.942975 -195.538011 
L 100.331405 -195.538011 
L 95.719835 -195.538011 
L 91.108264 -195.538011 
L 86.496694 -195.538011 
L 81.885124 -195.538011 
L 77.273554 -195.538011 
L 72.661983 -195.538011 
L 68.050413 -195.538011 
L 63.438843 -195.538011 
L 58.827273 -195.538011 
z
" id="m9bbdedf3a6" style="stroke:#36a2eb;stroke-opacity:0.5;"/>
    </defs>
    <g clip-path="url(#p6368d50b96)">
     <use style="fill:#36a2eb;fill-opacity:0.5;stroke:#36a2eb;stroke-opacity:0.5;" x="0" xlink:href="#m9bbdedf3a6" y="581.789375"/>
    </g>
   </g>
   <g id="line2d_1">
    <path clip-path="url(#p6368d50b96)" d="M 102.426416 386.139371 
L 104.837723 386.097141 
L 107.249031 386.040368 
L 109.660338 385.964575 
L 112.071646 385.864094 
L 114.482954 385.73181 
L 116.894261 385.558878 
L 119.305569 385.334393 
L 121.716876 385.04504 
L 124.128184 384.674709 
L 126.539491 384.204102 
L 128.950799 383.610328 
L 131.362107 382.866516 
L 133.773414 381.941454 
L 136.184722 380.799296 
L 138.596029 379.399346 
L 141.007337 377.695976 
L 143.418645 375.638684 
L 145.829952 373.172366 
L 148.24126 370.2378 
L 150.652567 366.772413 
L 153.063875 362.711322 
L 155.475182 357.988708 
L 157.88649 352.539497 
L 160.297798 346.301371 
L 162.709105 339.217063 
L 165.120413 331.236916 
L 167.53172 322.321628 
L 169.943028 312.445114 
L 172.354335 301.597371 
L 174.765643 289.787238 
L 177.176951 277.04491 
L 179.588258 263.424078 
L 181.999566 249.003534 
L 184.410873 233.888124 
L 186.822181 218.208919 
L 189.233488 202.122504 
L 191.644796 185.809323 
L 194.056104 169.471045 
L 196.467411 153.326975 
L 198.878719 137.609553 
L 201.290026 122.559072 
L 203.701334 108.417748 
L 206.112641 95.423357 
L 208.523949 83.802649 
L 210.935257 73.764805 
L 213.346564 65.495194 
L 215.757872 59.149682 
L 218.169179 54.849752 
L 220.580487 52.678636 
L 222.991794 52.678636 
L 225.403102 54.849752 
L 227.81441 59.149682 
L 230.225717 65.495194 
L 232.637025 73.764805 
L 235.048332 83.802649 
L 237.45964 95.423357 
L 239.870947 108.417748 
L 242.282255 122.559072 
L 244.693563 137.609553 
L 247.10487 153.326975 
L 249.516178 169.471045 
L 251.927485 185.809323 
L 254.338793 202.122504 
L 256.7501 218.208919 
L 259.161408 233.888124 
L 261.572716 249.003534 
L 263.984023 263.424078 
L 266.395331 277.04491 
L 268.806638 289.787238 
L 271.217946 301.597371 
L 273.629253 312.445114 
L 276.040561 322.321628 
L 278.451869 331.236916 
L 280.863176 339.217063 
L 283.274484 346.301371 
L 285.685791 352.539497 
L 288.097099 357.988708 
L 290.508406 362.711322 
L 292.919714 366.772413 
L 295.331022 370.2378 
L 297.742329 373.172366 
L 300.153637 375.638684 
L 302.564944 377.695976 
L 304.976252 379.399346 
L 307.387559 380.799296 
L 309.798867 381.941454 
L 312.210175 382.866516 
L 314.621482 383.610328 
L 317.03279 384.204102 
L 319.444097 384.674709 
L 321.855405 385.04504 
L 324.266712 385.334393 
L 326.67802 385.558878 
L 329.089328 385.73181 
L 331.500635 385.864094 
L 333.911943 385.964575 
L 336.32325 386.040368 
L 338.734558 386.097141 
L 341.145865 386.139371 
" style="fill:none;stroke:#ff6384;stroke-linecap:square;"/>
   </g>
   <g id="line2d_2">
    <path clip-path="url(#p6368d50b96)" d="M 58.827273 386.192805 
L 63.438843 386.170723 
L 68.050413 386.141038 
L 72.661983 386.101407 
L 77.273554 386.048867 
L 81.885124 385.979698 
L 86.496694 385.889275 
L 91.108264 385.771896 
L 95.719835 385.620599 
L 100.331405 385.426959 
L 104.942975 385.180887 
L 109.554545 384.870414 
L 114.166116 384.481487 
L 118.777686 383.997789 
L 123.389256 383.400575 
L 128.000826 382.668566 
L 132.612397 381.777904 
L 137.223967 380.702183 
L 141.835537 379.41259 
L 146.447107 377.878158 
L 151.058678 376.066169 
L 155.670248 373.942697 
L 160.281818 371.473327 
L 164.893388 368.624032 
L 169.504959 365.362227 
L 174.116529 361.657969 
L 178.728099 357.485293 
L 183.339669 352.823649 
L 187.95124 347.659396 
L 192.56281 341.987306 
L 197.17438 335.811998 
L 201.78595 329.149263 
L 206.397521 322.027174 
L 211.009091 314.486929 
L 215.620661 306.583352 
L 220.232231 298.384976 
L 224.843802 289.973678 
L 229.455372 281.443807 
L 234.066942 272.900814 
L 238.678512 264.459368 
L 243.290083 256.24101 
L 247.901653 248.371382 
L 252.513223 240.977137 
L 257.124793 234.182602 
L 261.736364 228.106342 
L 266.347934 222.857733 
L 270.959504 218.533701 
L 275.571074 215.215747 
L 280.182645 212.96739 
L 284.794215 211.832153 
L 289.405785 211.832153 
L 294.017355 212.96739 
L 298.628926 215.215747 
L 303.240496 218.533701 
L 307.852066 222.857733 
L 312.463636 228.106342 
L 317.075207 234.182602 
L 321.686777 240.977137 
L 326.298347 248.371382 
L 330.909917 256.24101 
L 335.521488 264.459368 
L 340.133058 272.900814 
L 344.744628 281.443807 
L 349.356198 289.973678 
L 353.967769 298.384976 
L 358.579339 306.583352 
L 363.190909 314.486929 
L 367.802479 322.027174 
L 372.41405 329.149263 
L 377.02562 335.811998 
L 381.63719 341.987306 
L 386.24876 347.659396 
L 390.860331 352.823649 
L 395.471901 357.485293 
L 400.083471 361.657969 
L 404.695041 365.362227 
L 409.306612 368.624032 
L 413.918182 371.473327 
L 418.529752 373.942697 
L 423.141322 376.066169 
L 427.752893 377.878158 
L 432.364463 379.41259 
L 436.976033 380.702183 
L 441.587603 381.777904 
L 446.199174 382.668566 
L 450.810744 383.400575 
L 455.422314 383.997789 
L 460.033884 384.481487 
L 464.645455 384.870414 
L 469.257025 385.180887 
L 473.868595 385.426959 
L 478.480165 385.620599 
L 483.091736 385.771896 
L 487.703306 385.889275 
L 492.314876 385.979698 
L 496.926446 386.048867 
L 501.538017 386.101407 
L 506.149587 386.141038 
L 510.761157 386.170723 
L 515.372727 386.192805 
" style="fill:none;stroke:#36a2eb;stroke-linecap:square;"/>
   </g>
   <g id="patch_3">
    <path d="M 36 402.93 
L 538.2 402.93 
" style="fill:none;stroke:#000000;stroke-linecap:square;stroke-linejoin:miter;stroke-width:0.8;"/>
   </g>
   <g id="legend_1">
    <g id="patch_4">
     <path d="M 414.919063 88.29875 
L 528.4 88.29875 
Q 531.2 88.29875 531.2 85.49875 
L 531.2 45.8 
Q 531.2 43 528.4 43 
L 414.919063 43 
Q 412.119063 43 412.119063 45.8 
L 412.119063 85.49875 
Q 412.119063 88.29875 414.919063 88.29875 
z
" style="fill:#ffffff;opacity:0.8;stroke:#cccccc;stroke-linejoin:miter;"/>
    </g>
    <g id="patch_5">
     <path d="M 417.719063 59.237813 
L 445.719063 59.237813 
L 445.719063 49.437813 
L 417.719063 49.437813 
z
" style="fill:#ff6384;opacity:0.5;stroke:#ff6384;stroke-linejoin:miter;"/>
    </g>
    <g id="text_1">
     <!-- sidemenu -->
     <defs>
      <path d="M 44.28125 53.078125 
L 44.28125 44.578125 
Q 40.484375 46.53125 36.375 47.5 
Q 32.28125 48.484375 27.875 48.484375 
Q 21.1875 48.484375 17.84375 46.4375 
Q 14.5 44.390625 14.5 40.28125 
Q 14.5 37.15625 16.890625 35.375 
Q 19.28125 33.59375 26.515625 31.984375 
L 29.59375 31.296875 
Q 39.15625 29.25 43.1875 25.515625 
Q 47.21875 21.78125 47.21875 15.09375 
Q 47.21875 7.46875 41.1875 3.015625 
Q 35.15625 -1.421875 24.609375 -1.421875 
Q 20.21875 -1.421875 15.453125 -0.5625 
Q 10.6875 0.296875 5.421875 2 
L 5.421875 11.28125 
Q 10.40625 8.6875 15.234375 7.390625 
Q 20.0625 6.109375 24.8125 6.109375 
Q 31.15625 6.109375 34.5625 8.28125 
Q 37.984375 10.453125 37.984375 14.40625 
Q 37.984375 18.0625 35.515625 20.015625 
Q 33.0625 21.96875 24.703125 23.78125 
L 21.578125 24.515625 
Q 13.234375 26.265625 9.515625 29.90625 
Q 5.8125 33.546875 5.8125 39.890625 
Q 5.8125 47.609375 11.28125 51.796875 
Q 16.75 56 26.8125 56 
Q 31.78125 56 36.171875 55.265625 
Q 40.578125 54.546875 44.28125 53.078125 
z
" id="DejaVuSans-115"/>
      <path d="M 9.421875 54.6875 
L 18.40625 54.6875 
L 18.40625 0 
L 9.421875 0 
z
M 9.421875 75.984375 
L 18.40625 75.984375 
L 18.40625 64.59375 
L 9.421875 64.59375 
z
" id="DejaVuSans-105"/>
      <path d="M 45.40625 46.390625 
L 45.40625 75.984375 
L 54.390625 75.984375 
L 54.390625 0 
L 45.40625 0 
L 45.40625 8.203125 
Q 42.578125 3.328125 38.25 0.953125 
Q 33.9375 -1.421875 27.875 -1.421875 
Q 17.96875 -1.421875 11.734375 6.484375 
Q 5.515625 14.40625 5.515625 27.296875 
Q 5.515625 40.1875 11.734375 48.09375 
Q 17.96875 56 27.875 56 
Q 33.9375 56 38.25 53.625 
Q 42.578125 51.265625 45.40625 46.390625 
z
M 14.796875 27.296875 
Q 14.796875 17.390625 18.875 11.75 
Q 22.953125 6.109375 30.078125 6.109375 
Q 37.203125 6.109375 41.296875 11.75 
Q 45.40625 17.390625 45.40625 27.296875 
Q 45.40625 37.203125 41.296875 42.84375 
Q 37.203125 48.484375 30.078125 48.484375 
Q 22.953125 48.484375 18.875 42.84375 
Q 14.796875 37.203125 14.796875 27.296875 
z
" id="DejaVuSans-100"/>
      <path d="M 56.203125 29.59375 
L 56.203125 25.203125 
L 14.890625 25.203125 
Q 15.484375 15.921875 20.484375 11.0625 
Q 25.484375 6.203125 34.421875 6.203125 
Q 39.59375 6.203125 44.453125 7.46875 
Q 49.3125 8.734375 54.109375 11.28125 
L 54.109375 2.78125 
Q 49.265625 0.734375 44.1875 -0.34375 
Q 39.109375 -1.421875 33.890625 -1.421875 
Q 20.796875 -1.421875 13.15625 6.1875 
Q 5.515625 13.8125 5.515625 26.8125 
Q 5.515625 40.234375 12.765625 48.109375 
Q 20.015625 56 32.328125 56 
Q 43.359375 56 49.78125 48.890625 
Q 56.203125 41.796875 56.203125 29.59375 
z
M 47.21875 32.234375 
Q 47.125 39.59375 43.09375 43.984375 
Q 39.0625 48.390625 32.421875 48.390625 
Q 24.90625 48.390625 20.390625 44.140625 
Q 15.875 39.890625 15.1875 32.171875 
z
" id="DejaVuSans-101"/>
      <path d="M 52 44.1875 
Q 55.375 50.25 60.0625 53.125 
Q 64.75 56 71.09375 56 
Q 79.640625 56 84.28125 50.015625 
Q 88.921875 44.046875 88.921875 33.015625 
L 88.921875 0 
L 79.890625 0 
L 79.890625 32.71875 
Q 79.890625 40.578125 77.09375 44.375 
Q 74.3125 48.1875 68.609375 48.1875 
Q 61.625 48.1875 57.5625 43.546875 
Q 53.515625 38.921875 53.515625 30.90625 
L 53.515625 0 
L 44.484375 0 
L 44.484375 32.71875 
Q 44.484375 40.625 41.703125 44.40625 
Q 38.921875 48.1875 33.109375 48.1875 
Q 26.21875 48.1875 22.15625 43.53125 
Q 18.109375 38.875 18.109375 30.90625 
L 18.109375 0 
L 9.078125 0 
L 9.078125 54.6875 
L 18.109375 54.6875 
L 18.109375 46.1875 
Q 21.1875 51.21875 25.484375 53.609375 
Q 29.78125 56 35.6875 56 
Q 41.65625 56 45.828125 52.96875 
Q 50 49.953125 52 44.1875 
z
" id="DejaVuSans-109"/>
      <path d="M 54.890625 33.015625 
L 54.890625 0 
L 45.90625 0 
L 45.90625 32.71875 
Q 45.90625 40.484375 42.875 44.328125 
Q 39.84375 48.1875 33.796875 48.1875 
Q 26.515625 48.1875 22.3125 43.546875 
Q 18.109375 38.921875 18.109375 30.90625 
L 18.109375 0 
L 9.078125 0 
L 9.078125 54.6875 
L 18.109375 54.6875 
L 18.109375 46.1875 
Q 21.34375 51.125 25.703125 53.5625 
Q 30.078125 56 35.796875 56 
Q 45.21875 56 50.046875 50.171875 
Q 54.890625 44.34375 54.890625 33.015625 
z
" id="DejaVuSans-110"/>
      <path d="M 8.5 21.578125 
L 8.5 54.6875 
L 17.484375 54.6875 
L 17.484375 21.921875 
Q 17.484375 14.15625 20.5 10.265625 
Q 23.53125 6.390625 29.59375 6.390625 
Q 36.859375 6.390625 41.078125 11.03125 
Q 45.3125 15.671875 45.3125 23.6875 
L 45.3125 54.6875 
L 54.296875 54.6875 
L 54.296875 0 
L 45.3125 0 
L 45.3125 8.40625 
Q 42.046875 3.421875 37.71875 1 
Q 33.40625 -1.421875 27.6875 -1.421875 
Q 18.265625 -1.421875 13.375 4.4375 
Q 8.5 10.296875 8.5 21.578125 
z
M 31.109375 56 
z
" id="DejaVuSans-117"/>
     </defs>
     <g transform="translate(456.919063 59.237813)scale(0.14 -0.14)">
      <use xlink:href="#DejaVuSans-115"/>
      <use x="52.099609" xlink:href="#DejaVuSans-105"/>
      <use x="79.882812" xlink:href="#DejaVuSans-100"/>
      <use x="143.359375" xlink:href="#DejaVuSans-101"/>
      <use x="204.882812" xlink:href="#DejaVuSans-109"/>
      <use x="302.294922" xlink:href="#DejaVuSans-101"/>
      <use x="363.818359" xlink:href="#DejaVuSans-110"/>
      <use x="427.197266" xlink:href="#DejaVuSans-117"/>
     </g>
    </g>
    <g id="patch_6">
     <path d="M 417.719063 79.787188 
L 445.719063 79.787188 
L 445.719063 69.987188 
L 417.719063 69.987188 
z
" style="fill:#36a2eb;opacity:0.5;stroke:#36a2eb;stroke-linejoin:miter;"/>
    </g>
    <g id="text_2">
     <!-- tabbar -->
     <defs>
      <path d="M 18.3125 70.21875 
L 18.3125 54.6875 
L 36.8125 54.6875 
L 36.8125 47.703125 
L 18.3125 47.703125 
L 18.3125 18.015625 
Q 18.3125 11.328125 20.140625 9.421875 
Q 21.96875 7.515625 27.59375 7.515625 
L 36.8125 7.515625 
L 36.8125 0 
L 27.59375 0 
Q 17.1875 0 13.234375 3.875 
Q 9.28125 7.765625 9.28125 18.015625 
L 9.28125 47.703125 
L 2.6875 47.703125 
L 2.6875 54.6875 
L 9.28125 54.6875 
L 9.28125 70.21875 
z
" id="DejaVuSans-116"/>
      <path d="M 34.28125 27.484375 
Q 23.390625 27.484375 19.1875 25 
Q 14.984375 22.515625 14.984375 16.5 
Q 14.984375 11.71875 18.140625 8.90625 
Q 21.296875 6.109375 26.703125 6.109375 
Q 34.1875 6.109375 38.703125 11.40625 
Q 43.21875 16.703125 43.21875 25.484375 
L 43.21875 27.484375 
z
M 52.203125 31.203125 
L 52.203125 0 
L 43.21875 0 
L 43.21875 8.296875 
Q 40.140625 3.328125 35.546875 0.953125 
Q 30.953125 -1.421875 24.3125 -1.421875 
Q 15.921875 -1.421875 10.953125 3.296875 
Q 6 8.015625 6 15.921875 
Q 6 25.140625 12.171875 29.828125 
Q 18.359375 34.515625 30.609375 34.515625 
L 43.21875 34.515625 
L 43.21875 35.40625 
Q 43.21875 41.609375 39.140625 45 
Q 35.0625 48.390625 27.6875 48.390625 
Q 23 48.390625 18.546875 47.265625 
Q 14.109375 46.140625 10.015625 43.890625 
L 10.015625 52.203125 
Q 14.9375 54.109375 19.578125 55.046875 
Q 24.21875 56 28.609375 56 
Q 40.484375 56 46.34375 49.84375 
Q 52.203125 43.703125 52.203125 31.203125 
z
" id="DejaVuSans-97"/>
      <path d="M 48.6875 27.296875 
Q 48.6875 37.203125 44.609375 42.84375 
Q 40.53125 48.484375 33.40625 48.484375 
Q 26.265625 48.484375 22.1875 42.84375 
Q 18.109375 37.203125 18.109375 27.296875 
Q 18.109375 17.390625 22.1875 11.75 
Q 26.265625 6.109375 33.40625 6.109375 
Q 40.53125 6.109375 44.609375 11.75 
Q 48.6875 17.390625 48.6875 27.296875 
z
M 18.109375 46.390625 
Q 20.953125 51.265625 25.265625 53.625 
Q 29.59375 56 35.59375 56 
Q 45.5625 56 51.78125 48.09375 
Q 58.015625 40.1875 58.015625 27.296875 
Q 58.015625 14.40625 51.78125 6.484375 
Q 45.5625 -1.421875 35.59375 -1.421875 
Q 29.59375 -1.421875 25.265625 0.953125 
Q 20.953125 3.328125 18.109375 8.203125 
L 18.109375 0 
L 9.078125 0 
L 9.078125 75.984375 
L 18.109375 75.984375 
z
" id="DejaVuSans-98"/>
      <path d="M 41.109375 46.296875 
Q 39.59375 47.171875 37.8125 47.578125 
Q 36.03125 48 33.890625 48 
Q 26.265625 48 22.1875 43.046875 
Q 18.109375 38.09375 18.109375 28.8125 
L 18.109375 0 
L 9.078125 0 
L 9.078125 54.6875 
L 18.109375 54.6875 
L 18.109375 46.1875 
Q 20.953125 51.171875 25.484375 53.578125 
Q 30.03125 56 36.53125 56 
Q 37.453125 56 38.578125 55.875 
Q 39.703125 55.765625 41.0625 55.515625 
z
" id="DejaVuSans-114"/>
     </defs>
     <g transform="translate(456.919063 79.787188)scale(0.14 -0.14)">
      <use xlink:href="#DejaVuSans-116"/>
      <use x="39.208984" xlink:href="#DejaVuSans-97"/>
      <use x="100.488281" xlink:href="#DejaVuSans-98"/>
      <use x="163.964844" xlink:href="#DejaVuSans-98"/>
      <use x="227.441406" xlink:href="#DejaVuSans-97"/>
      <use x="288.720703" xlink:href="#DejaVuSans-114"/>
     </g>
    </g>
   </g>
  </g>
  <g id="axes_2">
   <g id="patch_7">
    <path d="M 36 525.24 
L 538.2 525.24 
L 538.2 402.93 
L 36 402.93 
z
" style="fill:none;"/>
   </g>
   <g id="patch_8">
    <path clip-path="url(#pbbee0d3644)" d="M 163.299875 519.680455 
L 280.272406 519.680455 
L 280.272406 482.616818 
L 163.299875 482.616818 
z
" style="fill:#ff6384;opacity:0.5;"/>
   </g>
   <g id="patch_9">
    <path clip-path="url(#pbbee0d3644)" d="M 175.246364 445.553182 
L 398.953636 445.553182 
L 398.953636 408.489545 
L 175.246364 408.489545 
z
" style="fill:#36a2eb;opacity:0.5;"/>
   </g>
   <g id="matplotlib.axis_1">
    <g id="xtick_1">
     <g id="line2d_3">
      <defs>
       <path d="M 0 0 
L 0 3.5 
" id="m6eefd31c34" style="stroke:#000000;stroke-width:0.8;"/>
      </defs>
      <g>
       <use style="stroke:#000000;stroke-width:0.8;" x="100.656728" xlink:href="#m6eefd31c34" y="525.24"/>
      </g>
     </g>
     <g id="text_3">
      <!-- 23.0 -->
      <defs>
       <path d="M 19.1875 8.296875 
L 53.609375 8.296875 
L 53.609375 0 
L 7.328125 0 
L 7.328125 8.296875 
Q 12.9375 14.109375 22.625 23.890625 
Q 32.328125 33.6875 34.8125 36.53125 
Q 39.546875 41.84375 41.421875 45.53125 
Q 43.3125 49.21875 43.3125 52.78125 
Q 43.3125 58.59375 39.234375 62.25 
Q 35.15625 65.921875 28.609375 65.921875 
Q 23.96875 65.921875 18.8125 64.3125 
Q 13.671875 62.703125 7.8125 59.421875 
L 7.8125 69.390625 
Q 13.765625 71.78125 18.9375 73 
Q 24.125 74.21875 28.421875 74.21875 
Q 39.75 74.21875 46.484375 68.546875 
Q 53.21875 62.890625 53.21875 53.421875 
Q 53.21875 48.921875 51.53125 44.890625 
Q 49.859375 40.875 45.40625 35.40625 
Q 44.1875 33.984375 37.640625 27.21875 
Q 31.109375 20.453125 19.1875 8.296875 
z
" id="DejaVuSans-50"/>
       <path d="M 40.578125 39.3125 
Q 47.65625 37.796875 51.625 33 
Q 55.609375 28.21875 55.609375 21.1875 
Q 55.609375 10.40625 48.1875 4.484375 
Q 40.765625 -1.421875 27.09375 -1.421875 
Q 22.515625 -1.421875 17.65625 -0.515625 
Q 12.796875 0.390625 7.625 2.203125 
L 7.625 11.71875 
Q 11.71875 9.328125 16.59375 8.109375 
Q 21.484375 6.890625 26.8125 6.890625 
Q 36.078125 6.890625 40.9375 10.546875 
Q 45.796875 14.203125 45.796875 21.1875 
Q 45.796875 27.640625 41.28125 31.265625 
Q 36.765625 34.90625 28.71875 34.90625 
L 20.21875 34.90625 
L 20.21875 43.015625 
L 29.109375 43.015625 
Q 36.375 43.015625 40.234375 45.921875 
Q 44.09375 48.828125 44.09375 54.296875 
Q 44.09375 59.90625 40.109375 62.90625 
Q 36.140625 65.921875 28.71875 65.921875 
Q 24.65625 65.921875 20.015625 65.03125 
Q 15.375 64.15625 9.8125 62.3125 
L 9.8125 71.09375 
Q 15.4375 72.65625 20.34375 73.4375 
Q 25.25 74.21875 29.59375 74.21875 
Q 40.828125 74.21875 47.359375 69.109375 
Q 53.90625 64.015625 53.90625 55.328125 
Q 53.90625 49.265625 50.4375 45.09375 
Q 46.96875 40.921875 40.578125 39.3125 
z
" id="DejaVuSans-51"/>
       <path d="M 10.6875 12.40625 
L 21 12.40625 
L 21 0 
L 10.6875 0 
z
" id="DejaVuSans-46"/>
       <path d="M 31.78125 66.40625 
Q 24.171875 66.40625 20.328125 58.90625 
Q 16.5 51.421875 16.5 36.375 
Q 16.5 21.390625 20.328125 13.890625 
Q 24.171875 6.390625 31.78125 6.390625 
Q 39.453125 6.390625 43.28125 13.890625 
Q 47.125 21.390625 47.125 36.375 
Q 47.125 51.421875 43.28125 58.90625 
Q 39.453125 66.40625 31.78125 66.40625 
z
M 31.78125 74.21875 
Q 44.046875 74.21875 50.515625 64.515625 
Q 56.984375 54.828125 56.984375 36.375 
Q 56.984375 17.96875 50.515625 8.265625 
Q 44.046875 -1.421875 31.78125 -1.421875 
Q 19.53125 -1.421875 13.0625 8.265625 
Q 6.59375 17.96875 6.59375 36.375 
Q 6.59375 54.828125 13.0625 64.515625 
Q 19.53125 74.21875 31.78125 74.21875 
z
" id="DejaVuSans-48"/>
      </defs>
      <g transform="translate(85.07079 542.877813)scale(0.14 -0.14)">
       <use xlink:href="#DejaVuSans-50"/>
       <use x="63.623047" xlink:href="#DejaVuSans-51"/>
       <use x="127.246094" xlink:href="#DejaVuSans-46"/>
       <use x="159.033203" xlink:href="#DejaVuSans-48"/>
      </g>
     </g>
    </g>
    <g id="xtick_2">
     <g id="line2d_4">
      <g>
       <use style="stroke:#000000;stroke-width:0.8;" x="174.97837" xlink:href="#m6eefd31c34" y="525.24"/>
      </g>
     </g>
     <g id="text_4">
      <!-- 23.5 -->
      <defs>
       <path d="M 10.796875 72.90625 
L 49.515625 72.90625 
L 49.515625 64.59375 
L 19.828125 64.59375 
L 19.828125 46.734375 
Q 21.96875 47.46875 24.109375 47.828125 
Q 26.265625 48.1875 28.421875 48.1875 
Q 40.625 48.1875 47.75 41.5 
Q 54.890625 34.8125 54.890625 23.390625 
Q 54.890625 11.625 47.5625 5.09375 
Q 40.234375 -1.421875 26.90625 -1.421875 
Q 22.3125 -1.421875 17.546875 -0.640625 
Q 12.796875 0.140625 7.71875 1.703125 
L 7.71875 11.625 
Q 12.109375 9.234375 16.796875 8.0625 
Q 21.484375 6.890625 26.703125 6.890625 
Q 35.15625 6.890625 40.078125 11.328125 
Q 45.015625 15.765625 45.015625 23.390625 
Q 45.015625 31 40.078125 35.4375 
Q 35.15625 39.890625 26.703125 39.890625 
Q 22.75 39.890625 18.8125 39.015625 
Q 14.890625 38.140625 10.796875 36.28125 
z
" id="DejaVuSans-53"/>
      </defs>
      <g transform="translate(159.392433 542.877813)scale(0.14 -0.14)">
       <use xlink:href="#DejaVuSans-50"/>
       <use x="63.623047" xlink:href="#DejaVuSans-51"/>
       <use x="127.246094" xlink:href="#DejaVuSans-46"/>
       <use x="159.033203" xlink:href="#DejaVuSans-53"/>
      </g>
     </g>
    </g>
    <g id="xtick_3">
     <g id="line2d_5">
      <g>
       <use style="stroke:#000000;stroke-width:0.8;" x="249.300013" xlink:href="#m6eefd31c34" y="525.24"/>
      </g>
     </g>
     <g id="text_5">
      <!-- 24.0 -->
      <defs>
       <path d="M 37.796875 64.3125 
L 12.890625 25.390625 
L 37.796875 25.390625 
z
M 35.203125 72.90625 
L 47.609375 72.90625 
L 47.609375 25.390625 
L 58.015625 25.390625 
L 58.015625 17.1875 
L 47.609375 17.1875 
L 47.609375 0 
L 37.796875 0 
L 37.796875 17.1875 
L 4.890625 17.1875 
L 4.890625 26.703125 
z
" id="DejaVuSans-52"/>
      </defs>
      <g transform="translate(233.714075 542.877813)scale(0.14 -0.14)">
       <use xlink:href="#DejaVuSans-50"/>
       <use x="63.623047" xlink:href="#DejaVuSans-52"/>
       <use x="127.246094" xlink:href="#DejaVuSans-46"/>
       <use x="159.033203" xlink:href="#DejaVuSans-48"/>
      </g>
     </g>
    </g>
    <g id="xtick_4">
     <g id="line2d_6">
      <g>
       <use style="stroke:#000000;stroke-width:0.8;" x="323.621655" xlink:href="#m6eefd31c34" y="525.24"/>
      </g>
     </g>
     <g id="text_6">
      <!-- 24.5 -->
      <g transform="translate(308.035718 542.877813)scale(0.14 -0.14)">
       <use xlink:href="#DejaVuSans-50"/>
       <use x="63.623047" xlink:href="#DejaVuSans-52"/>
       <use x="127.246094" xlink:href="#DejaVuSans-46"/>
       <use x="159.033203" xlink:href="#DejaVuSans-53"/>
      </g>
     </g>
    </g>
    <g id="xtick_5">
     <g id="line2d_7">
      <g>
       <use style="stroke:#000000;stroke-width:0.8;" x="397.943298" xlink:href="#m6eefd31c34" y="525.24"/>
      </g>
     </g>
     <g id="text_7">
      <!-- 25.0 -->
      <g transform="translate(382.35736 542.877813)scale(0.14 -0.14)">
       <use xlink:href="#DejaVuSans-50"/>
       <use x="63.623047" xlink:href="#DejaVuSans-53"/>
       <use x="127.246094" xlink:href="#DejaVuSans-46"/>
       <use x="159.033203" xlink:href="#DejaVuSans-48"/>
      </g>
     </g>
    </g>
    <g id="xtick_6">
     <g id="line2d_8">
      <g>
       <use style="stroke:#000000;stroke-width:0.8;" x="472.26494" xlink:href="#m6eefd31c34" y="525.24"/>
      </g>
     </g>
     <g id="text_8">
      <!-- 25.5 -->
      <g transform="translate(456.679003 542.877813)scale(0.14 -0.14)">
       <use xlink:href="#DejaVuSans-50"/>
       <use x="63.623047" xlink:href="#DejaVuSans-53"/>
       <use x="127.246094" xlink:href="#DejaVuSans-46"/>
       <use x="159.033203" xlink:href="#DejaVuSans-53"/>
      </g>
     </g>
    </g>
   </g>
   <g id="line2d_9">
    <path clip-path="url(#pbbee0d3644)" d="M 221.786141 525.24 
L 221.786141 402.93 
" style="fill:none;stroke:#ff6384;stroke-dasharray:5.55,2.4;stroke-dashoffset:0;stroke-opacity:0.8;stroke-width:1.5;"/>
   </g>
   <g id="line2d_10">
    <path clip-path="url(#pbbee0d3644)" d="M 287.1 525.24 
L 287.1 402.93 
" style="fill:none;stroke:#36a2eb;stroke-dasharray:5.55,2.4;stroke-dashoffset:0;stroke-opacity:0.8;stroke-width:1.5;"/>
   </g>
   <g id="patch_10">
    <path d="M 36 525.24 
L 538.2 525.24 
" style="fill:none;stroke:#000000;stroke-linecap:square;stroke-linejoin:miter;stroke-width:0.8;"/>
   </g>
  </g>
 </g>
 <defs>
  <clipPath id="p6368d50b96">
   <rect height="366.93" width="502.2" x="36" y="36"/>
  </clipPath>
  <clipPath id="pbbee0d3644">
   <rect height="122.31" width="502.2" x="36" y="402.93"/>
  </clipPath>
 </defs>
</svg>
