<?xml version="1.0" encoding="utf-8" standalone="no"?>
<!DOCTYPE svg PUBLIC "-//W3C//DTD SVG 1.1//EN"
  "http://www.w3.org/Graphics/SVG/1.1/DTD/svg11.dtd">
<!-- Created with matplotlib (https://matplotlib.org/) -->
<svg height="581.789375pt" version="1.1" viewBox="0 0 574.2 581.789375" width="574.2pt" xmlns="http://www.w3.org/2000/svg" xmlns:xlink="http://www.w3.org/1999/xlink">
 <defs>
  <style type="text/css">
*{stroke-linecap:butt;stroke-linejoin:round;}
  </style>
 </defs>
 <g id="figure_1">
  <g id="patch_1">
   <path d="M 0 581.789375 
L 574.2 581.789375 
L 574.2 0 
L 0 0 
z
" style="fill:none;"/>
  </g>
  <g id="axes_1">
   <g id="patch_2">
    <path d="M 36 402.93 
L 538.2 402.93 
L 538.2 36 
L 36 36 
z
" style="fill:none;"/>
   </g>
   <g id="PolyCollection_1">
    <defs>
     <path d="M 108.938159 -195.538011 
L 108.938159 -195.650004 
L 112.260966 -195.692234 
L 115.583772 -195.749007 
L 118.906579 -195.8248 
L 122.229386 -195.925281 
L 125.552193 -196.057565 
L 128.875 -196.230497 
L 132.197807 -196.454982 
L 135.520614 -196.744335 
L 138.84342 -197.114666 
L 142.166227 -197.585273 
L 145.489034 -198.179047 
L 148.811841 -198.922859 
L 152.134648 -199.847921 
L 155.457455 -200.990079 
L 158.780261 -202.390029 
L 162.103068 -204.093399 
L 165.425875 -206.150691 
L 168.748682 -208.617009 
L 172.071489 -211.551575 
L 175.394296 -215.016962 
L 178.717103 -219.078053 
L 182.039909 -223.800667 
L 185.362716 -229.249878 
L 188.685523 -235.488004 
L 192.00833 -242.572312 
L 195.331137 -250.552459 
L 198.653944 -259.467747 
L 201.97675 -269.344261 
L 205.299557 -280.192004 
L 208.622364 -292.002137 
L 211.945171 -304.744465 
L 215.267978 -318.365297 
L 218.590785 -332.785841 
L 221.913592 -347.901251 
L 225.236398 -363.580456 
L 228.559205 -379.666871 
L 231.882012 -395.980052 
L 235.204819 -412.31833 
L 238.527626 -428.4624 
L 241.850433 -444.179822 
L 245.173239 -459.230303 
L 248.496046 -473.371627 
L 251.818853 -486.366018 
L 255.14166 -497.986726 
L 258.464467 -508.02457 
L 261.787274 -516.294181 
L 265.110081 -522.639693 
L 268.432887 -526.939623 
L 271.755694 -529.110739 
L 275.078501 -529.110739 
L 278.401308 -526.939623 
L 281.724115 -522.639693 
L 285.046922 -516.294181 
L 288.369728 -508.02457 
L 291.692535 -497.986726 
L 295.015342 -486.366018 
L 298.338149 -473.371627 
L 301.660956 -459.230303 
L 304.983763 -444.179822 
L 308.30657 -428.4624 
L 311.629376 -412.31833 
L 314.952183 -395.980052 
L 318.27499 -379.666871 
L 321.597797 -363.580456 
L 324.920604 -347.901251 
L 328.243411 -332.785841 
L 331.566217 -318.365297 
L 334.889024 -304.744465 
L 338.211831 -292.002137 
L 341.534638 -280.192004 
L 344.857445 -269.344261 
L 348.180252 -259.467747 
L 351.503059 -250.552459 
L 354.825865 -242.572312 
L 358.148672 -235.488004 
L 361.471479 -229.249878 
L 364.794286 -223.800667 
L 368.117093 -219.078053 
L 371.4399 -215.016962 
L 374.762706 -211.551575 
L 378.085513 -208.617009 
L 381.40832 -206.150691 
L 384.731127 -204.093399 
L 388.053934 -202.390029 
L 391.376741 -200.990079 
L 394.699548 -199.847921 
L 398.022354 -198.922859 
L 401.345161 -198.179047 
L 404.667968 -197.585273 
L 407.990775 -197.114666 
L 411.313582 -196.744335 
L 414.636389 -196.454982 
L 417.959195 -196.230497 
L 421.282002 -196.057565 
L 424.604809 -195.925281 
L 427.927616 -195.8248 
L 431.250423 -195.749007 
L 434.57323 -195.692234 
L 437.896037 -195.650004 
L 437.896037 -195.538011 
L 437.896037 -195.538011 
L 434.57323 -195.538011 
L 431.250423 -195.538011 
L 427.927616 -195.538011 
L 424.604809 -195.538011 
L 421.282002 -195.538011 
L 417.959195 -195.538011 
L 414.636389 -195.538011 
L 411.313582 -195.538011 
L 407.990775 -195.538011 
L 404.667968 -195.538011 
L 401.345161 -195.538011 
L 398.022354 -195.538011 
L 394.699548 -195.538011 
L 391.376741 -195.538011 
L 388.053934 -195.538011 
L 384.731127 -195.538011 
L 381.40832 -195.538011 
L 378.085513 -195.538011 
L 374.762706 -195.538011 
L 371.4399 -195.538011 
L 368.117093 -195.538011 
L 364.794286 -195.538011 
L 361.471479 -195.538011 
L 358.148672 -195.538011 
L 354.825865 -195.538011 
L 351.503059 -195.538011 
L 348.180252 -195.538011 
L 344.857445 -195.538011 
L 341.534638 -195.538011 
L 338.211831 -195.538011 
L 334.889024 -195.538011 
L 331.566217 -195.538011 
L 328.243411 -195.538011 
L 324.920604 -195.538011 
L 321.597797 -195.538011 
L 318.27499 -195.538011 
L 314.952183 -195.538011 
L 311.629376 -195.538011 
L 308.30657 -195.538011 
L 304.983763 -195.538011 
L 301.660956 -195.538011 
L 298.338149 -195.538011 
L 295.015342 -195.538011 
L 291.692535 -195.538011 
L 288.369728 -195.538011 
L 285.046922 -195.538011 
L 281.724115 -195.538011 
L 278.401308 -195.538011 
L 275.078501 -195.538011 
L 271.755694 -195.538011 
L 268.432887 -195.538011 
L 265.110081 -195.538011 
L 261.787274 -195.538011 
L 258.464467 -195.538011 
L 255.14166 -195.538011 
L 251.818853 -195.538011 
L 248.496046 -195.538011 
L 245.173239 -195.538011 
L 241.850433 -195.538011 
L 238.527626 -195.538011 
L 235.204819 -195.538011 
L 231.882012 -195.538011 
L 228.559205 -195.538011 
L 225.236398 -195.538011 
L 221.913592 -195.538011 
L 218.590785 -195.538011 
L 215.267978 -195.538011 
L 211.945171 -195.538011 
L 208.622364 -195.538011 
L 205.299557 -195.538011 
L 201.97675 -195.538011 
L 198.653944 -195.538011 
L 195.331137 -195.538011 
L 192.00833 -195.538011 
L 188.685523 -195.538011 
L 185.362716 -195.538011 
L 182.039909 -195.538011 
L 178.717103 -195.538011 
L 175.394296 -195.538011 
L 172.071489 -195.538011 
L 168.748682 -195.538011 
L 165.425875 -195.538011 
L 162.103068 -195.538011 
L 158.780261 -195.538011 
L 155.457455 -195.538011 
L 152.134648 -195.538011 
L 148.811841 -195.538011 
L 145.489034 -195.538011 
L 142.166227 -195.538011 
L 138.84342 -195.538011 
L 135.520614 -195.538011 
L 132.197807 -195.538011 
L 128.875 -195.538011 
L 125.552193 -195.538011 
L 122.229386 -195.538011 
L 118.906579 -195.538011 
L 115.583772 -195.538011 
L 112.260966 -195.538011 
L 108.938159 -195.538011 
z
" id="md621ffeace" style="stroke:#ff6384;stroke-opacity:0.5;"/>
    </defs>
    <g clip-path="url(#p6503226025)">
     <use style="fill:#ff6384;fill-opacity:0.5;stroke:#ff6384;stroke-opacity:0.5;" x="0" xlink:href="#md621ffeace" y="581.789375"/>
    </g>
   </g>
   <g id="PolyCollection_2">
    <defs>
     <path d="M 58.827273 -195.538011 
L 58.827273 -195.618706 
L 63.438843 -195.649135 
L 68.050413 -195.690041 
L 72.661983 -195.744653 
L 77.273554 -195.817054 
L 81.885124 -195.912369 
L 86.496694 -196.036973 
L 91.108264 -196.198722 
L 95.719835 -196.407212 
L 100.331405 -196.674049 
L 104.942975 -197.013139 
L 109.554545 -197.440975 
L 114.166116 -197.976919 
L 118.777686 -198.643461 
L 123.389256 -199.466428 
L 128.000826 -200.475143 
L 132.612397 -201.702485 
L 137.223967 -203.184839 
L 141.835537 -204.961913 
L 146.447107 -207.076376 
L 151.058678 -209.573316 
L 155.670248 -212.499482 
L 160.281818 -215.9023 
L 164.893388 -219.828657 
L 169.504959 -224.323458 
L 174.116529 -229.427964 
L 178.728099 -235.177955 
L 183.339669 -241.601749 
L 187.95124 -248.718142 
L 192.56281 -256.534342 
L 197.17438 -265.04398 
L 201.78595 -274.225298 
L 206.397521 -284.039611 
L 211.009091 -294.430147 
L 215.620661 -305.321358 
L 220.232231 -316.618805 
L 224.843802 -328.209661 
L 229.455372 -339.963912 
L 234.066942 -351.736245 
L 238.678512 -363.368644 
L 243.290083 -374.693628 
L 247.901653 -385.538056 
L 252.513223 -395.727402 
L 257.124793 -405.090342 
L 261.736364 -413.463491 
L 266.347934 -420.696129 
L 270.959504 -426.65469 
L 275.571074 -431.226866 
L 280.182645 -434.325124 
L 284.794215 -435.889493 
L 289.405785 -435.889493 
L 294.017355 -434.325124 
L 298.628926 -431.226866 
L 303.240496 -426.65469 
L 307.852066 -420.696129 
L 312.463636 -413.463491 
L 317.075207 -405.090342 
L 321.686777 -395.727402 
L 326.298347 -385.538056 
L 330.909917 -374.693628 
L 335.521488 -363.368644 
L 340.133058 -351.736245 
L 344.744628 -339.963912 
L 349.356198 -328.209661 
L 353.967769 -316.618805 
L 358.579339 -305.321358 
L 363.190909 -294.430147 
L 367.802479 -284.039611 
L 372.41405 -274.225298 
L 377.02562 -265.04398 
L 381.63719 -256.534342 
L 386.24876 -248.718142 
L 390.860331 -241.601749 
L 395.471901 -235.177955 
L 400.083471 -229.427964 
L 404.695041 -224.323458 
L 409.306612 -219.828657 
L 413.918182 -215.9023 
L 418.529752 -212.499482 
L 423.141322 -209.573316 
L 427.752893 -207.076376 
L 432.364463 -204.961913 
L 436.976033 -203.184839 
L 441.587603 -201.702485 
L 446.199174 -200.475143 
L 450.810744 -199.466428 
L 455.422314 -198.643461 
L 460.033884 -197.976919 
L 464.645455 -197.440975 
L 469.257025 -197.013139 
L 473.868595 -196.674049 
L 478.480165 -196.407212 
L 483.091736 -196.198722 
L 487.703306 -196.036973 
L 492.314876 -195.912369 
L 496.926446 -195.817054 
L 501.538017 -195.744653 
L 506.149587 -195.690041 
L 510.761157 -195.649135 
L 515.372727 -195.618706 
L 515.372727 -195.538011 
L 515.372727 -195.538011 
L 510.761157 -195.538011 
L 506.149587 -195.538011 
L 501.538017 -195.538011 
L 496.926446 -195.538011 
L 492.314876 -195.538011 
L 487.703306 -195.538011 
L 483.091736 -195.538011 
L 478.480165 -195.538011 
L 473.868595 -195.538011 
L 469.257025 -195.538011 
L 464.645455 -195.538011 
L 460.033884 -195.538011 
L 455.422314 -195.538011 
L 450.810744 -195.538011 
L 446.199174 -195.538011 
L 441.587603 -195.538011 
L 436.976033 -195.538011 
L 432.364463 -195.538011 
L 427.752893 -195.538011 
L 423.141322 -195.538011 
L 418.529752 -195.538011 
L 413.918182 -195.538011 
L 409.306612 -195.538011 
L 404.695041 -195.538011 
L 400.083471 -195.538011 
L 395.471901 -195.538011 
L 390.860331 -195.538011 
L 386.24876 -195.538011 
L 381.63719 -195.538011 
L 377.02562 -195.538011 
L 372.41405 -195.538011 
L 367.802479 -195.538011 
L 363.190909 -195.538011 
L 358.579339 -195.538011 
L 353.967769 -195.538011 
L 349.356198 -195.538011 
L 344.744628 -195.538011 
L 340.133058 -195.538011 
L 335.521488 -195.538011 
L 330.909917 -195.538011 
L 326.298347 -195.538011 
L 321.686777 -195.538011 
L 317.075207 -195.538011 
L 312.463636 -195.538011 
L 307.852066 -195.538011 
L 303.240496 -195.538011 
L 298.628926 -195.538011 
L 294.017355 -195.538011 
L 289.405785 -195.538011 
L 284.794215 -195.538011 
L 280.182645 -195.538011 
L 275.571074 -195.538011 
L 270.959504 -195.538011 
L 266.347934 -195.538011 
L 261.736364 -195.538011 
L 257.124793 -195.538011 
L 252.513223 -195.538011 
L 247.901653 -195.538011 
L 243.290083 -195.538011 
L 238.678512 -195.538011 
L 234.066942 -195.538011 
L 229.455372 -195.538011 
L 224.843802 -195.538011 
L 220.232231 -195.538011 
L 215.620661 -195.538011 
L 211.009091 -195.538011 
L 206.397521 -195.538011 
L 201.78595 -195.538011 
L 197.17438 -195.538011 
L 192.56281 -195.538011 
L 187.95124 -195.538011 
L 183.339669 -195.538011 
L 178.728099 -195.538011 
L 174.116529 -195.538011 
L 169.504959 -195.538011 
L 164.893388 -195.538011 
L 160.281818 -195.538011 
L 155.670248 -195.538011 
L 151.058678 -195.538011 
L 146.447107 -195.538011 
L 141.835537 -195.538011 
L 137.223967 -195.538011 
L 132.612397 -195.538011 
L 128.000826 -195.538011 
L 123.389256 -195.538011 
L 118.777686 -195.538011 
L 114.166116 -195.538011 
L 109.554545 -195.538011 
L 104.942975 -195.538011 
L 100.331405 -195.538011 
L 95.719835 -195.538011 
L 91.108264 -195.538011 
L 86.496694 -195.538011 
L 81.885124 -195.538011 
L 77.273554 -195.538011 
L 72.661983 -195.538011 
L 68.050413 -195.538011 
L 63.438843 -195.538011 
L 58.827273 -195.538011 
z
" id="m34286f56fe" style="stroke:#36a2eb;stroke-opacity:0.5;"/>
    </defs>
    <g clip-path="url(#p6503226025)">
     <use style="fill:#36a2eb;fill-opacity:0.5;stroke:#36a2eb;stroke-opacity:0.5;" x="0" xlink:href="#m34286f56fe" y="581.789375"/>
    </g>
   </g>
   <g id="line2d_1">
    <path clip-path="url(#p6503226025)" d="M 108.938159 386.139371 
L 112.260966 386.097141 
L 115.583772 386.040368 
L 118.906579 385.964575 
L 122.229386 385.864094 
L 125.552193 385.73181 
L 128.875 385.558878 
L 132.197807 385.334393 
L 135.520614 385.04504 
L 138.84342 384.674709 
L 142.166227 384.204102 
L 145.489034 383.610328 
L 148.811841 382.866516 
L 152.134648 381.941454 
L 155.457455 380.799296 
L 158.780261 379.399346 
L 162.103068 377.695976 
L 165.425875 375.638684 
L 168.748682 373.172366 
L 172.071489 370.2378 
L 175.394296 366.772413 
L 178.717103 362.711322 
L 182.039909 357.988708 
L 185.362716 352.539497 
L 188.685523 346.301371 
L 192.00833 339.217063 
L 195.331137 331.236916 
L 198.653944 322.321628 
L 201.97675 312.445114 
L 205.299557 301.597371 
L 208.622364 289.787238 
L 211.945171 277.04491 
L 215.267978 263.424078 
L 218.590785 249.003534 
L 221.913592 233.888124 
L 225.236398 218.208919 
L 228.559205 202.122504 
L 231.882012 185.809323 
L 235.204819 169.471045 
L 238.527626 153.326975 
L 241.850433 137.609553 
L 245.173239 122.559072 
L 248.496046 108.417748 
L 251.818853 95.423357 
L 255.14166 83.802649 
L 258.464467 73.764805 
L 261.787274 65.495194 
L 265.110081 59.149682 
L 268.432887 54.849752 
L 271.755694 52.678636 
L 275.078501 52.678636 
L 278.401308 54.849752 
L 281.724115 59.149682 
L 285.046922 65.495194 
L 288.369728 73.764805 
L 291.692535 83.802649 
L 295.015342 95.423357 
L 298.338149 108.417748 
L 301.660956 122.559072 
L 304.983763 137.609553 
L 308.30657 153.326975 
L 311.629376 169.471045 
L 314.952183 185.809323 
L 318.27499 202.122504 
L 321.597797 218.208919 
L 324.920604 233.888124 
L 328.243411 249.003534 
L 331.566217 263.424078 
L 334.889024 277.04491 
L 338.211831 289.787238 
L 341.534638 301.597371 
L 344.857445 312.445114 
L 348.180252 322.321628 
L 351.503059 331.236916 
L 354.825865 339.217063 
L 358.148672 346.301371 
L 361.471479 352.539497 
L 364.794286 357.988708 
L 368.117093 362.711322 
L 371.4399 366.772413 
L 374.762706 370.2378 
L 378.085513 373.172366 
L 381.40832 375.638684 
L 384.731127 377.695976 
L 388.053934 379.399346 
L 391.376741 380.799296 
L 394.699548 381.941454 
L 398.022354 382.866516 
L 401.345161 383.610328 
L 404.667968 384.204102 
L 407.990775 384.674709 
L 411.313582 385.04504 
L 414.636389 385.334393 
L 417.959195 385.558878 
L 421.282002 385.73181 
L 424.604809 385.864094 
L 427.927616 385.964575 
L 431.250423 386.040368 
L 434.57323 386.097141 
L 437.896037 386.139371 
" style="fill:none;stroke:#ff6384;stroke-linecap:square;"/>
   </g>
   <g id="line2d_2">
    <path clip-path="url(#p6503226025)" d="M 58.827273 386.170669 
L 63.438843 386.14024 
L 68.050413 386.099334 
L 72.661983 386.044722 
L 77.273554 385.972321 
L 81.885124 385.877006 
L 86.496694 385.752402 
L 91.108264 385.590653 
L 95.719835 385.382163 
L 100.331405 385.115326 
L 104.942975 384.776236 
L 109.554545 384.3484 
L 114.166116 383.812456 
L 118.777686 383.145914 
L 123.389256 382.322947 
L 128.000826 381.314232 
L 132.612397 380.08689 
L 137.223967 378.604536 
L 141.835537 376.827462 
L 146.447107 374.712999 
L 151.058678 372.216059 
L 155.670248 369.289893 
L 160.281818 365.887075 
L 164.893388 361.960718 
L 169.504959 357.465917 
L 174.116529 352.361411 
L 178.728099 346.61142 
L 183.339669 340.187626 
L 187.95124 333.071233 
L 192.56281 325.255033 
L 197.17438 316.745395 
L 201.78595 307.564077 
L 206.397521 297.749764 
L 211.009091 287.359228 
L 215.620661 276.468017 
L 220.232231 265.17057 
L 224.843802 253.579714 
L 229.455372 241.825463 
L 234.066942 230.05313 
L 238.678512 218.420731 
L 243.290083 207.095747 
L 247.901653 196.251319 
L 252.513223 186.061973 
L 257.124793 176.699033 
L 261.736364 168.325884 
L 266.347934 161.093246 
L 270.959504 155.134685 
L 275.571074 150.562509 
L 280.182645 147.464251 
L 284.794215 145.899882 
L 289.405785 145.899882 
L 294.017355 147.464251 
L 298.628926 150.562509 
L 303.240496 155.134685 
L 307.852066 161.093246 
L 312.463636 168.325884 
L 317.075207 176.699033 
L 321.686777 186.061973 
L 326.298347 196.251319 
L 330.909917 207.095747 
L 335.521488 218.420731 
L 340.133058 230.05313 
L 344.744628 241.825463 
L 349.356198 253.579714 
L 353.967769 265.17057 
L 358.579339 276.468017 
L 363.190909 287.359228 
L 367.802479 297.749764 
L 372.41405 307.564077 
L 377.02562 316.745395 
L 381.63719 325.255033 
L 386.24876 333.071233 
L 390.860331 340.187626 
L 395.471901 346.61142 
L 400.083471 352.361411 
L 404.695041 357.465917 
L 409.306612 361.960718 
L 413.918182 365.887075 
L 418.529752 369.289893 
L 423.141322 372.216059 
L 427.752893 374.712999 
L 432.364463 376.827462 
L 436.976033 378.604536 
L 441.587603 380.08689 
L 446.199174 381.314232 
L 450.810744 382.322947 
L 455.422314 383.145914 
L 460.033884 383.812456 
L 464.645455 384.3484 
L 469.257025 384.776236 
L 473.868595 385.115326 
L 478.480165 385.382163 
L 483.091736 385.590653 
L 487.703306 385.752402 
L 492.314876 385.877006 
L 496.926446 385.972321 
L 501.538017 386.044722 
L 506.149587 386.099334 
L 510.761157 386.14024 
L 515.372727 386.170669 
" style="fill:none;stroke:#36a2eb;stroke-linecap:square;"/>
   </g>
   <g id="patch_3">
    <path d="M 36 402.93 
L 538.2 402.93 
" style="fill:none;stroke:#000000;stroke-linecap:square;stroke-linejoin:miter;stroke-width:0.8;"/>
   </g>
   <g id="legend_1">
    <g id="patch_4">
     <path d="M 414.919063 88.29875 
L 528.4 88.29875 
Q 531.2 88.29875 531.2 85.49875 
L 531.2 45.8 
Q 531.2 43 528.4 43 
L 414.919063 43 
Q 412.119063 43 412.119063 45.8 
L 412.119063 85.49875 
Q 412.119063 88.29875 414.919063 88.29875 
z
" style="fill:#ffffff;opacity:0.8;stroke:#cccccc;stroke-linejoin:miter;"/>
    </g>
    <g id="patch_5">
     <path d="M 417.719063 59.237813 
L 445.719063 59.237813 
L 445.719063 49.437813 
L 417.719063 49.437813 
z
" style="fill:#ff6384;opacity:0.5;stroke:#ff6384;stroke-linejoin:miter;"/>
    </g>
    <g id="text_1">
     <!-- sidemenu -->
     <defs>
      <path d="M 44.28125 53.078125 
L 44.28125 44.578125 
Q 40.484375 46.53125 36.375 47.5 
Q 32.28125 48.484375 27.875 48.484375 
Q 21.1875 48.484375 17.84375 46.4375 
Q 14.5 44.390625 14.5 40.28125 
Q 14.5 37.15625 16.890625 35.375 
Q 19.28125 33.59375 26.515625 31.984375 
L 29.59375 31.296875 
Q 39.15625 29.25 43.1875 25.515625 
Q 47.21875 21.78125 47.21875 15.09375 
Q 47.21875 7.46875 41.1875 3.015625 
Q 35.15625 -1.421875 24.609375 -1.421875 
Q 20.21875 -1.421875 15.453125 -0.5625 
Q 10.6875 0.296875 5.421875 2 
L 5.421875 11.28125 
Q 10.40625 8.6875 15.234375 7.390625 
Q 20.0625 6.109375 24.8125 6.109375 
Q 31.15625 6.109375 34.5625 8.28125 
Q 37.984375 10.453125 37.984375 14.40625 
Q 37.984375 18.0625 35.515625 20.015625 
Q 33.0625 21.96875 24.703125 23.78125 
L 21.578125 24.515625 
Q 13.234375 26.265625 9.515625 29.90625 
Q 5.8125 33.546875 5.8125 39.890625 
Q 5.8125 47.609375 11.28125 51.796875 
Q 16.75 56 26.8125 56 
Q 31.78125 56 36.171875 55.265625 
Q 40.578125 54.546875 44.28125 53.078125 
z
" id="DejaVuSans-115"/>
      <path d="M 9.421875 54.6875 
L 18.40625 54.6875 
L 18.40625 0 
L 9.421875 0 
z
M 9.421875 75.984375 
L 18.40625 75.984375 
L 18.40625 64.59375 
L 9.421875 64.59375 
z
" id="DejaVuSans-105"/>
      <path d="M 45.40625 46.390625 
L 45.40625 75.984375 
L 54.390625 75.984375 
L 54.390625 0 
L 45.40625 0 
L 45.40625 8.203125 
Q 42.578125 3.328125 38.25 0.953125 
Q 33.9375 -1.421875 27.875 -1.421875 
Q 17.96875 -1.421875 11.734375 6.484375 
Q 5.515625 14.40625 5.515625 27.296875 
Q 5.515625 40.1875 11.734375 48.09375 
Q 17.96875 56 27.875 56 
Q 33.9375 56 38.25 53.625 
Q 42.578125 51.265625 45.40625 46.390625 
z
M 14.796875 27.296875 
Q 14.796875 17.390625 18.875 11.75 
Q 22.953125 6.109375 30.078125 6.109375 
Q 37.203125 6.109375 41.296875 11.75 
Q 45.40625 17.390625 45.40625 27.296875 
Q 45.40625 37.203125 41.296875 42.84375 
Q 37.203125 48.484375 30.078125 48.484375 
Q 22.953125 48.484375 18.875 42.84375 
Q 14.796875 37.203125 14.796875 27.296875 
z
" id="DejaVuSans-100"/>
      <path d="M 56.203125 29.59375 
L 56.203125 25.203125 
L 14.890625 25.203125 
Q 15.484375 15.921875 20.484375 11.0625 
Q 25.484375 6.203125 34.421875 6.203125 
Q 39.59375 6.203125 44.453125 7.46875 
Q 49.3125 8.734375 54.109375 11.28125 
L 54.109375 2.78125 
Q 49.265625 0.734375 44.1875 -0.34375 
Q 39.109375 -1.421875 33.890625 -1.421875 
Q 20.796875 -1.421875 13.15625 6.1875 
Q 5.515625 13.8125 5.515625 26.8125 
Q 5.515625 40.234375 12.765625 48.109375 
Q 20.015625 56 32.328125 56 
Q 43.359375 56 49.78125 48.890625 
Q 56.203125 41.796875 56.203125 29.59375 
z
M 47.21875 32.234375 
Q 47.125 39.59375 43.09375 43.984375 
Q 39.0625 48.390625 32.421875 48.390625 
Q 24.90625 48.390625 20.390625 44.140625 
Q 15.875 39.890625 15.1875 32.171875 
z
" id="DejaVuSans-101"/>
      <path d="M 52 44.1875 
Q 55.375 50.25 60.0625 53.125 
Q 64.75 56 71.09375 56 
Q 79.640625 56 84.28125 50.015625 
Q 88.921875 44.046875 88.921875 33.015625 
L 88.921875 0 
L 79.890625 0 
L 79.890625 32.71875 
Q 79.890625 40.578125 77.09375 44.375 
Q 74.3125 48.1875 68.609375 48.1875 
Q 61.625 48.1875 57.5625 43.546875 
Q 53.515625 38.921875 53.515625 30.90625 
L 53.515625 0 
L 44.484375 0 
L 44.484375 32.71875 
Q 44.484375 40.625 41.703125 44.40625 
Q 38.921875 48.1875 33.109375 48.1875 
Q 26.21875 48.1875 22.15625 43.53125 
Q 18.109375 38.875 18.109375 30.90625 
L 18.109375 0 
L 9.078125 0 
L 9.078125 54.6875 
L 18.109375 54.6875 
L 18.109375 46.1875 
Q 21.1875 51.21875 25.484375 53.609375 
Q 29.78125 56 35.6875 56 
Q 41.65625 56 45.828125 52.96875 
Q 50 49.953125 52 44.1875 
z
" id="DejaVuSans-109"/>
      <path d="M 54.890625 33.015625 
L 54.890625 0 
L 45.90625 0 
L 45.90625 32.71875 
Q 45.90625 40.484375 42.875 44.328125 
Q 39.84375 48.1875 33.796875 48.1875 
Q 26.515625 48.1875 22.3125 43.546875 
Q 18.109375 38.921875 18.109375 30.90625 
L 18.109375 0 
L 9.078125 0 
L 9.078125 54.6875 
L 18.109375 54.6875 
L 18.109375 46.1875 
Q 21.34375 51.125 25.703125 53.5625 
Q 30.078125 56 35.796875 56 
Q 45.21875 56 50.046875 50.171875 
Q 54.890625 44.34375 54.890625 33.015625 
z
" id="DejaVuSans-110"/>
      <path d="M 8.5 21.578125 
L 8.5 54.6875 
L 17.484375 54.6875 
L 17.484375 21.921875 
Q 17.484375 14.15625 20.5 10.265625 
Q 23.53125 6.390625 29.59375 6.390625 
Q 36.859375 6.390625 41.078125 11.03125 
Q 45.3125 15.671875 45.3125 23.6875 
L 45.3125 54.6875 
L 54.296875 54.6875 
L 54.296875 0 
L 45.3125 0 
L 45.3125 8.40625 
Q 42.046875 3.421875 37.71875 1 
Q 33.40625 -1.421875 27.6875 -1.421875 
Q 18.265625 -1.421875 13.375 4.4375 
Q 8.5 10.296875 8.5 21.578125 
z
M 31.109375 56 
z
" id="DejaVuSans-117"/>
     </defs>
     <g transform="translate(456.919063 59.237813)scale(0.14 -0.14)">
      <use xlink:href="#DejaVuSans-115"/>
      <use x="52.099609" xlink:href="#DejaVuSans-105"/>
      <use x="79.882812" xlink:href="#DejaVuSans-100"/>
      <use x="143.359375" xlink:href="#DejaVuSans-101"/>
      <use x="204.882812" xlink:href="#DejaVuSans-109"/>
      <use x="302.294922" xlink:href="#DejaVuSans-101"/>
      <use x="363.818359" xlink:href="#DejaVuSans-110"/>
      <use x="427.197266" xlink:href="#DejaVuSans-117"/>
     </g>
    </g>
    <g id="patch_6">
     <path d="M 417.719063 79.787188 
L 445.719063 79.787188 
L 445.719063 69.987188 
L 417.719063 69.987188 
z
" style="fill:#36a2eb;opacity:0.5;stroke:#36a2eb;stroke-linejoin:miter;"/>
    </g>
    <g id="text_2">
     <!-- tabbar -->
     <defs>
      <path d="M 18.3125 70.21875 
L 18.3125 54.6875 
L 36.8125 54.6875 
L 36.8125 47.703125 
L 18.3125 47.703125 
L 18.3125 18.015625 
Q 18.3125 11.328125 20.140625 9.421875 
Q 21.96875 7.515625 27.59375 7.515625 
L 36.8125 7.515625 
L 36.8125 0 
L 27.59375 0 
Q 17.1875 0 13.234375 3.875 
Q 9.28125 7.765625 9.28125 18.015625 
L 9.28125 47.703125 
L 2.6875 47.703125 
L 2.6875 54.6875 
L 9.28125 54.6875 
L 9.28125 70.21875 
z
" id="DejaVuSans-116"/>
      <path d="M 34.28125 27.484375 
Q 23.390625 27.484375 19.1875 25 
Q 14.984375 22.515625 14.984375 16.5 
Q 14.984375 11.71875 18.140625 8.90625 
Q 21.296875 6.109375 26.703125 6.109375 
Q 34.1875 6.109375 38.703125 11.40625 
Q 43.21875 16.703125 43.21875 25.484375 
L 43.21875 27.484375 
z
M 52.203125 31.203125 
L 52.203125 0 
L 43.21875 0 
L 43.21875 8.296875 
Q 40.140625 3.328125 35.546875 0.953125 
Q 30.953125 -1.421875 24.3125 -1.421875 
Q 15.921875 -1.421875 10.953125 3.296875 
Q 6 8.015625 6 15.921875 
Q 6 25.140625 12.171875 29.828125 
Q 18.359375 34.515625 30.609375 34.515625 
L 43.21875 34.515625 
L 43.21875 35.40625 
Q 43.21875 41.609375 39.140625 45 
Q 35.0625 48.390625 27.6875 48.390625 
Q 23 48.390625 18.546875 47.265625 
Q 14.109375 46.140625 10.015625 43.890625 
L 10.015625 52.203125 
Q 14.9375 54.109375 19.578125 55.046875 
Q 24.21875 56 28.609375 56 
Q 40.484375 56 46.34375 49.84375 
Q 52.203125 43.703125 52.203125 31.203125 
z
" id="DejaVuSans-97"/>
      <path d="M 48.6875 27.296875 
Q 48.6875 37.203125 44.609375 42.84375 
Q 40.53125 48.484375 33.40625 48.484375 
Q 26.265625 48.484375 22.1875 42.84375 
Q 18.109375 37.203125 18.109375 27.296875 
Q 18.109375 17.390625 22.1875 11.75 
Q 26.265625 6.109375 33.40625 6.109375 
Q 40.53125 6.109375 44.609375 11.75 
Q 48.6875 17.390625 48.6875 27.296875 
z
M 18.109375 46.390625 
Q 20.953125 51.265625 25.265625 53.625 
Q 29.59375 56 35.59375 56 
Q 45.5625 56 51.78125 48.09375 
Q 58.015625 40.1875 58.015625 27.296875 
Q 58.015625 14.40625 51.78125 6.484375 
Q 45.5625 -1.421875 35.59375 -1.421875 
Q 29.59375 -1.421875 25.265625 0.953125 
Q 20.953125 3.328125 18.109375 8.203125 
L 18.109375 0 
L 9.078125 0 
L 9.078125 75.984375 
L 18.109375 75.984375 
z
" id="DejaVuSans-98"/>
      <path d="M 41.109375 46.296875 
Q 39.59375 47.171875 37.8125 47.578125 
Q 36.03125 48 33.890625 48 
Q 26.265625 48 22.1875 43.046875 
Q 18.109375 38.09375 18.109375 28.8125 
L 18.109375 0 
L 9.078125 0 
L 9.078125 54.6875 
L 18.109375 54.6875 
L 18.109375 46.1875 
Q 20.953125 51.171875 25.484375 53.578125 
Q 30.03125 56 36.53125 56 
Q 37.453125 56 38.578125 55.875 
Q 39.703125 55.765625 41.0625 55.515625 
z
" id="DejaVuSans-114"/>
     </defs>
     <g transform="translate(456.919063 79.787188)scale(0.14 -0.14)">
      <use xlink:href="#DejaVuSans-116"/>
      <use x="39.208984" xlink:href="#DejaVuSans-97"/>
      <use x="100.488281" xlink:href="#DejaVuSans-98"/>
      <use x="163.964844" xlink:href="#DejaVuSans-98"/>
      <use x="227.441406" xlink:href="#DejaVuSans-97"/>
      <use x="288.720703" xlink:href="#DejaVuSans-114"/>
     </g>
    </g>
   </g>
  </g>
  <g id="axes_2">
   <g id="patch_7">
    <path d="M 36 525.24 
L 538.2 525.24 
L 538.2 402.93 
L 36 402.93 
z
" style="fill:none;"/>
   </g>
   <g id="patch_8">
    <path clip-path="url(#pfb6b1681a7)" d="M 192.822418 519.680455 
L 354.011778 519.680455 
L 354.011778 482.616818 
L 192.822418 482.616818 
z
" style="fill:#ff6384;opacity:0.5;"/>
   </g>
   <g id="patch_9">
    <path clip-path="url(#pfb6b1681a7)" d="M 175.246364 445.553182 
L 398.953636 445.553182 
L 398.953636 408.489545 
L 175.246364 408.489545 
z
" style="fill:#36a2eb;opacity:0.5;"/>
   </g>
   <g id="matplotlib.axis_1">
    <g id="xtick_1">
     <g id="line2d_3">
      <defs>
       <path d="M 0 0 
L 0 3.5 
" id="m945f74d614" style="stroke:#000000;stroke-width:0.8;"/>
      </defs>
      <g>
       <use style="stroke:#000000;stroke-width:0.8;" x="88.697916" xlink:href="#m945f74d614" y="525.24"/>
      </g>
     </g>
     <g id="text_3">
      <!-- 3.75 -->
      <defs>
       <path d="M 40.578125 39.3125 
Q 47.65625 37.796875 51.625 33 
Q 55.609375 28.21875 55.609375 21.1875 
Q 55.609375 10.40625 48.1875 4.484375 
Q 40.765625 -1.421875 27.09375 -1.421875 
Q 22.515625 -1.421875 17.65625 -0.515625 
Q 12.796875 0.390625 7.625 2.203125 
L 7.625 11.71875 
Q 11.71875 9.328125 16.59375 8.109375 
Q 21.484375 6.890625 26.8125 6.890625 
Q 36.078125 6.890625 40.9375 10.546875 
Q 45.796875 14.203125 45.796875 21.1875 
Q 45.796875 27.640625 41.28125 31.265625 
Q 36.765625 34.90625 28.71875 34.90625 
L 20.21875 34.90625 
L 20.21875 43.015625 
L 29.109375 43.015625 
Q 36.375 43.015625 40.234375 45.921875 
Q 44.09375 48.828125 44.09375 54.296875 
Q 44.09375 59.90625 40.109375 62.90625 
Q 36.140625 65.921875 28.71875 65.921875 
Q 24.65625 65.921875 20.015625 65.03125 
Q 15.375 64.15625 9.8125 62.3125 
L 9.8125 71.09375 
Q 15.4375 72.65625 20.34375 73.4375 
Q 25.25 74.21875 29.59375 74.21875 
Q 40.828125 74.21875 47.359375 69.109375 
Q 53.90625 64.015625 53.90625 55.328125 
Q 53.90625 49.265625 50.4375 45.09375 
Q 46.96875 40.921875 40.578125 39.3125 
z
" id="DejaVuSans-51"/>
       <path d="M 10.6875 12.40625 
L 21 12.40625 
L 21 0 
L 10.6875 0 
z
" id="DejaVuSans-46"/>
       <path d="M 8.203125 72.90625 
L 55.078125 72.90625 
L 55.078125 68.703125 
L 28.609375 0 
L 18.3125 0 
L 43.21875 64.59375 
L 8.203125 64.59375 
z
" id="DejaVuSans-55"/>
       <path d="M 10.796875 72.90625 
L 49.515625 72.90625 
L 49.515625 64.59375 
L 19.828125 64.59375 
L 19.828125 46.734375 
Q 21.96875 47.46875 24.109375 47.828125 
Q 26.265625 48.1875 28.421875 48.1875 
Q 40.625 48.1875 47.75 41.5 
Q 54.890625 34.8125 54.890625 23.390625 
Q 54.890625 11.625 47.5625 5.09375 
Q 40.234375 -1.421875 26.90625 -1.421875 
Q 22.3125 -1.421875 17.546875 -0.640625 
Q 12.796875 0.140625 7.71875 1.703125 
L 7.71875 11.625 
Q 12.109375 9.234375 16.796875 8.0625 
Q 21.484375 6.890625 26.703125 6.890625 
Q 35.15625 6.890625 40.078125 11.328125 
Q 45.015625 15.765625 45.015625 23.390625 
Q 45.015625 31 40.078125 35.4375 
Q 35.15625 39.890625 26.703125 39.890625 
Q 22.75 39.890625 18.8125 39.015625 
Q 14.890625 38.140625 10.796875 36.28125 
z
" id="DejaVuSans-53"/>
      </defs>
      <g transform="translate(73.111979 542.877813)scale(0.14 -0.14)">
       <use xlink:href="#DejaVuSans-51"/>
       <use x="63.623047" xlink:href="#DejaVuSans-46"/>
       <use x="95.410156" xlink:href="#DejaVuSans-55"/>
       <use x="159.033203" xlink:href="#DejaVuSans-53"/>
      </g>
     </g>
    </g>
    <g id="xtick_2">
     <g id="line2d_4">
      <g>
       <use style="stroke:#000000;stroke-width:0.8;" x="145.710009" xlink:href="#m945f74d614" y="525.24"/>
      </g>
     </g>
     <g id="text_4">
      <!-- 4.00 -->
      <defs>
       <path d="M 37.796875 64.3125 
L 12.890625 25.390625 
L 37.796875 25.390625 
z
M 35.203125 72.90625 
L 47.609375 72.90625 
L 47.609375 25.390625 
L 58.015625 25.390625 
L 58.015625 17.1875 
L 47.609375 17.1875 
L 47.609375 0 
L 37.796875 0 
L 37.796875 17.1875 
L 4.890625 17.1875 
L 4.890625 26.703125 
z
" id="DejaVuSans-52"/>
       <path d="M 31.78125 66.40625 
Q 24.171875 66.40625 20.328125 58.90625 
Q 16.5 51.421875 16.5 36.375 
Q 16.5 21.390625 20.328125 13.890625 
Q 24.171875 6.390625 31.78125 6.390625 
Q 39.453125 6.390625 43.28125 13.890625 
Q 47.125 21.390625 47.125 36.375 
Q 47.125 51.421875 43.28125 58.90625 
Q 39.453125 66.40625 31.78125 66.40625 
z
M 31.78125 74.21875 
Q 44.046875 74.21875 50.515625 64.515625 
Q 56.984375 54.828125 56.984375 36.375 
Q 56.984375 17.96875 50.515625 8.265625 
Q 44.046875 -1.421875 31.78125 -1.421875 
Q 19.53125 -1.421875 13.0625 8.265625 
Q 6.59375 17.96875 6.59375 36.375 
Q 6.59375 54.828125 13.0625 64.515625 
Q 19.53125 74.21875 31.78125 74.21875 
z
" id="DejaVuSans-48"/>
      </defs>
      <g transform="translate(130.124072 542.877813)scale(0.14 -0.14)">
       <use xlink:href="#DejaVuSans-52"/>
       <use x="63.623047" xlink:href="#DejaVuSans-46"/>
       <use x="95.410156" xlink:href="#DejaVuSans-48"/>
       <use x="159.033203" xlink:href="#DejaVuSans-48"/>
      </g>
     </g>
    </g>
    <g id="xtick_3">
     <g id="line2d_5">
      <g>
       <use style="stroke:#000000;stroke-width:0.8;" x="202.722102" xlink:href="#m945f74d614" y="525.24"/>
      </g>
     </g>
     <g id="text_5">
      <!-- 4.25 -->
      <defs>
       <path d="M 19.1875 8.296875 
L 53.609375 8.296875 
L 53.609375 0 
L 7.328125 0 
L 7.328125 8.296875 
Q 12.9375 14.109375 22.625 23.890625 
Q 32.328125 33.6875 34.8125 36.53125 
Q 39.546875 41.84375 41.421875 45.53125 
Q 43.3125 49.21875 43.3125 52.78125 
Q 43.3125 58.59375 39.234375 62.25 
Q 35.15625 65.921875 28.609375 65.921875 
Q 23.96875 65.921875 18.8125 64.3125 
Q 13.671875 62.703125 7.8125 59.421875 
L 7.8125 69.390625 
Q 13.765625 71.78125 18.9375 73 
Q 24.125 74.21875 28.421875 74.21875 
Q 39.75 74.21875 46.484375 68.546875 
Q 53.21875 62.890625 53.21875 53.421875 
Q 53.21875 48.921875 51.53125 44.890625 
Q 49.859375 40.875 45.40625 35.40625 
Q 44.1875 33.984375 37.640625 27.21875 
Q 31.109375 20.453125 19.1875 8.296875 
z
" id="DejaVuSans-50"/>
      </defs>
      <g transform="translate(187.136165 542.877813)scale(0.14 -0.14)">
       <use xlink:href="#DejaVuSans-52"/>
       <use x="63.623047" xlink:href="#DejaVuSans-46"/>
       <use x="95.410156" xlink:href="#DejaVuSans-50"/>
       <use x="159.033203" xlink:href="#DejaVuSans-53"/>
      </g>
     </g>
    </g>
    <g id="xtick_4">
     <g id="line2d_6">
      <g>
       <use style="stroke:#000000;stroke-width:0.8;" x="259.734195" xlink:href="#m945f74d614" y="525.24"/>
      </g>
     </g>
     <g id="text_6">
      <!-- 4.50 -->
      <g transform="translate(244.148258 542.877813)scale(0.14 -0.14)">
       <use xlink:href="#DejaVuSans-52"/>
       <use x="63.623047" xlink:href="#DejaVuSans-46"/>
       <use x="95.410156" xlink:href="#DejaVuSans-53"/>
       <use x="159.033203" xlink:href="#DejaVuSans-48"/>
      </g>
     </g>
    </g>
    <g id="xtick_5">
     <g id="line2d_7">
      <g>
       <use style="stroke:#000000;stroke-width:0.8;" x="316.746288" xlink:href="#m945f74d614" y="525.24"/>
      </g>
     </g>
     <g id="text_7">
      <!-- 4.75 -->
      <g transform="translate(301.160351 542.877813)scale(0.14 -0.14)">
       <use xlink:href="#DejaVuSans-52"/>
       <use x="63.623047" xlink:href="#DejaVuSans-46"/>
       <use x="95.410156" xlink:href="#DejaVuSans-55"/>
       <use x="159.033203" xlink:href="#DejaVuSans-53"/>
      </g>
     </g>
    </g>
    <g id="xtick_6">
     <g id="line2d_8">
      <g>
       <use style="stroke:#000000;stroke-width:0.8;" x="373.758381" xlink:href="#m945f74d614" y="525.24"/>
      </g>
     </g>
     <g id="text_8">
      <!-- 5.00 -->
      <g transform="translate(358.172444 542.877813)scale(0.14 -0.14)">
       <use xlink:href="#DejaVuSans-53"/>
       <use x="63.623047" xlink:href="#DejaVuSans-46"/>
       <use x="95.410156" xlink:href="#DejaVuSans-48"/>
       <use x="159.033203" xlink:href="#DejaVuSans-48"/>
      </g>
     </g>
    </g>
    <g id="xtick_7">
     <g id="line2d_9">
      <g>
       <use style="stroke:#000000;stroke-width:0.8;" x="430.770475" xlink:href="#m945f74d614" y="525.24"/>
      </g>
     </g>
     <g id="text_9">
      <!-- 5.25 -->
      <g transform="translate(415.184537 542.877813)scale(0.14 -0.14)">
       <use xlink:href="#DejaVuSans-53"/>
       <use x="63.623047" xlink:href="#DejaVuSans-46"/>
       <use x="95.410156" xlink:href="#DejaVuSans-50"/>
       <use x="159.033203" xlink:href="#DejaVuSans-53"/>
      </g>
     </g>
    </g>
    <g id="xtick_8">
     <g id="line2d_10">
      <g>
       <use style="stroke:#000000;stroke-width:0.8;" x="487.782568" xlink:href="#m945f74d614" y="525.24"/>
      </g>
     </g>
     <g id="text_10">
      <!-- 5.50 -->
      <g transform="translate(472.19663 542.877813)scale(0.14 -0.14)">
       <use xlink:href="#DejaVuSans-53"/>
       <use x="63.623047" xlink:href="#DejaVuSans-46"/>
       <use x="95.410156" xlink:href="#DejaVuSans-53"/>
       <use x="159.033203" xlink:href="#DejaVuSans-48"/>
      </g>
     </g>
    </g>
   </g>
   <g id="line2d_11">
    <path clip-path="url(#pfb6b1681a7)" d="M 273.417098 525.24 
L 273.417098 402.93 
" style="fill:none;stroke:#ff6384;stroke-dasharray:5.55,2.4;stroke-dashoffset:0;stroke-opacity:0.8;stroke-width:1.5;"/>
   </g>
   <g id="line2d_12">
    <path clip-path="url(#pfb6b1681a7)" d="M 287.1 525.24 
L 287.1 402.93 
" style="fill:none;stroke:#36a2eb;stroke-dasharray:5.55,2.4;stroke-dashoffset:0;stroke-opacity:0.8;stroke-width:1.5;"/>
   </g>
   <g id="patch_10">
    <path d="M 36 525.24 
L 538.2 525.24 
" style="fill:none;stroke:#000000;stroke-linecap:square;stroke-linejoin:miter;stroke-width:0.8;"/>
   </g>
  </g>
 </g>
 <defs>
  <clipPath id="p6503226025">
   <rect height="366.93" width="502.2" x="36" y="36"/>
  </clipPath>
  <clipPath id="pfb6b1681a7">
   <rect height="122.31" width="502.2" x="36" y="402.93"/>
  </clipPath>
 </defs>
</svg>
