<?xml version="1.0" encoding="utf-8" standalone="no"?>
<!DOCTYPE svg PUBLIC "-//W3C//DTD SVG 1.1//EN"
  "http://www.w3.org/Graphics/SVG/1.1/DTD/svg11.dtd">
<!-- Created with matplotlib (https://matplotlib.org/) -->
<svg height="591.509375pt" version="1.1" viewBox="0 0 574.2 591.509375" width="574.2pt" xmlns="http://www.w3.org/2000/svg" xmlns:xlink="http://www.w3.org/1999/xlink">
 <defs>
  <style type="text/css">
*{stroke-linecap:butt;stroke-linejoin:round;}
  </style>
 </defs>
 <g id="figure_1">
  <g id="patch_1">
   <path d="M 0 591.509375 
L 574.2 591.509375 
L 574.2 0 
L 0 0 
z
" style="fill:none;"/>
  </g>
  <g id="axes_1">
   <g id="patch_2">
    <path d="M 36 410.22 
L 538.2 410.22 
L 538.2 36 
L 36 36 
z
" style="fill:none;"/>
   </g>
   <g id="PolyCollection_1">
    <defs>
     <path d="M 108.938355 -198.299375 
L 108.938355 -198.413593 
L 112.261159 -198.456662 
L 115.583962 -198.514563 
L 118.906766 -198.591861 
L 122.229569 -198.694339 
L 125.552373 -198.829251 
L 128.875176 -199.005619 
L 132.19798 -199.234563 
L 135.520783 -199.529665 
L 138.843587 -199.907354 
L 142.16639 -200.387311 
L 145.489194 -200.992881 
L 148.811997 -201.751471 
L 152.134801 -202.694912 
L 155.457604 -203.859762 
L 158.780408 -205.287525 
L 162.103211 -207.024738 
L 165.426015 -209.122902 
L 168.748818 -211.638221 
L 172.071622 -214.631088 
L 175.394425 -218.165325 
L 178.717229 -222.3071 
L 182.040032 -227.123541 
L 185.362836 -232.681014 
L 188.685639 -239.043076 
L 192.008443 -246.268132 
L 195.331246 -254.406825 
L 198.65405 -263.499238 
L 201.976853 -273.571974 
L 205.299657 -284.635235 
L 208.62246 -296.680007 
L 211.945264 -309.675493 
L 215.268067 -323.566938 
L 218.590871 -338.273983 
L 221.913674 -353.689699 
L 225.236478 -369.680411 
L 228.559281 -386.086424 
L 231.882085 -402.723708 
L 235.204888 -419.386587 
L 238.527691 -435.8514 
L 241.850495 -451.881089 
L 245.173298 -467.230586 
L 248.496102 -481.652863 
L 251.818905 -494.905422 
L 255.141709 -506.757005 
L 258.464512 -516.994276 
L 261.787316 -525.428184 
L 265.110119 -531.899766 
L 268.432923 -536.285125 
L 271.755726 -538.499375 
L 275.07853 -538.499375 
L 278.401333 -536.285125 
L 281.724137 -531.899766 
L 285.04694 -525.428184 
L 288.369744 -516.994276 
L 291.692547 -506.757005 
L 295.015351 -494.905422 
L 298.338154 -481.652863 
L 301.660958 -467.230586 
L 304.983761 -451.881089 
L 308.306565 -435.8514 
L 311.629368 -419.386587 
L 314.952172 -402.723708 
L 318.274975 -386.086424 
L 321.597779 -369.680411 
L 324.920582 -353.689699 
L 328.243386 -338.273983 
L 331.566189 -323.566938 
L 334.888993 -309.675493 
L 338.211796 -296.680007 
L 341.5346 -284.635235 
L 344.857403 -273.571974 
L 348.180207 -263.499238 
L 351.50301 -254.406825 
L 354.825814 -246.268132 
L 358.148617 -239.043076 
L 361.471421 -232.681014 
L 364.794224 -227.123541 
L 368.117028 -222.3071 
L 371.439831 -218.165325 
L 374.762634 -214.631088 
L 378.085438 -211.638221 
L 381.408241 -209.122902 
L 384.731045 -207.024738 
L 388.053848 -205.287525 
L 391.376652 -203.859762 
L 394.699455 -202.694912 
L 398.022259 -201.751471 
L 401.345062 -200.992881 
L 404.667866 -200.387311 
L 407.990669 -199.907354 
L 411.313473 -199.529665 
L 414.636276 -199.234563 
L 417.95908 -199.005619 
L 421.281883 -198.829251 
L 424.604687 -198.694339 
L 427.92749 -198.591861 
L 431.250294 -198.514563 
L 434.573097 -198.456662 
L 437.895901 -198.413593 
L 437.895901 -198.299375 
L 437.895901 -198.299375 
L 434.573097 -198.299375 
L 431.250294 -198.299375 
L 427.92749 -198.299375 
L 424.604687 -198.299375 
L 421.281883 -198.299375 
L 417.95908 -198.299375 
L 414.636276 -198.299375 
L 411.313473 -198.299375 
L 407.990669 -198.299375 
L 404.667866 -198.299375 
L 401.345062 -198.299375 
L 398.022259 -198.299375 
L 394.699455 -198.299375 
L 391.376652 -198.299375 
L 388.053848 -198.299375 
L 384.731045 -198.299375 
L 381.408241 -198.299375 
L 378.085438 -198.299375 
L 374.762634 -198.299375 
L 371.439831 -198.299375 
L 368.117028 -198.299375 
L 364.794224 -198.299375 
L 361.471421 -198.299375 
L 358.148617 -198.299375 
L 354.825814 -198.299375 
L 351.50301 -198.299375 
L 348.180207 -198.299375 
L 344.857403 -198.299375 
L 341.5346 -198.299375 
L 338.211796 -198.299375 
L 334.888993 -198.299375 
L 331.566189 -198.299375 
L 328.243386 -198.299375 
L 324.920582 -198.299375 
L 321.597779 -198.299375 
L 318.274975 -198.299375 
L 314.952172 -198.299375 
L 311.629368 -198.299375 
L 308.306565 -198.299375 
L 304.983761 -198.299375 
L 301.660958 -198.299375 
L 298.338154 -198.299375 
L 295.015351 -198.299375 
L 291.692547 -198.299375 
L 288.369744 -198.299375 
L 285.04694 -198.299375 
L 281.724137 -198.299375 
L 278.401333 -198.299375 
L 275.07853 -198.299375 
L 271.755726 -198.299375 
L 268.432923 -198.299375 
L 265.110119 -198.299375 
L 261.787316 -198.299375 
L 258.464512 -198.299375 
L 255.141709 -198.299375 
L 251.818905 -198.299375 
L 248.496102 -198.299375 
L 245.173298 -198.299375 
L 241.850495 -198.299375 
L 238.527691 -198.299375 
L 235.204888 -198.299375 
L 231.882085 -198.299375 
L 228.559281 -198.299375 
L 225.236478 -198.299375 
L 221.913674 -198.299375 
L 218.590871 -198.299375 
L 215.268067 -198.299375 
L 211.945264 -198.299375 
L 208.62246 -198.299375 
L 205.299657 -198.299375 
L 201.976853 -198.299375 
L 198.65405 -198.299375 
L 195.331246 -198.299375 
L 192.008443 -198.299375 
L 188.685639 -198.299375 
L 185.362836 -198.299375 
L 182.040032 -198.299375 
L 178.717229 -198.299375 
L 175.394425 -198.299375 
L 172.071622 -198.299375 
L 168.748818 -198.299375 
L 165.426015 -198.299375 
L 162.103211 -198.299375 
L 158.780408 -198.299375 
L 155.457604 -198.299375 
L 152.134801 -198.299375 
L 148.811997 -198.299375 
L 145.489194 -198.299375 
L 142.16639 -198.299375 
L 138.843587 -198.299375 
L 135.520783 -198.299375 
L 132.19798 -198.299375 
L 128.875176 -198.299375 
L 125.552373 -198.299375 
L 122.229569 -198.299375 
L 118.906766 -198.299375 
L 115.583962 -198.299375 
L 112.261159 -198.299375 
L 108.938355 -198.299375 
z
" id="m2849fc101e" style="stroke:#ff6384;stroke-opacity:0.5;"/>
    </defs>
    <g clip-path="url(#p908140f8dc)">
     <use style="fill:#ff6384;fill-opacity:0.5;stroke:#ff6384;stroke-opacity:0.5;" x="0" xlink:href="#m2849fc101e" y="591.509375"/>
    </g>
   </g>
   <g id="PolyCollection_2">
    <defs>
     <path d="M 58.827273 -198.299375 
L 58.827273 -198.381673 
L 63.438843 -198.412706 
L 68.050413 -198.454425 
L 72.661983 -198.510122 
L 77.273554 -198.583961 
L 81.885124 -198.68117 
L 86.496694 -198.808249 
L 91.108264 -198.973212 
L 95.719835 -199.185844 
L 100.331405 -199.457982 
L 104.942975 -199.803808 
L 109.554545 -200.240144 
L 114.166116 -200.786736 
L 118.777686 -201.466519 
L 123.389256 -202.305835 
L 128.000826 -203.33459 
L 132.612397 -204.586315 
L 137.223967 -206.098119 
L 141.835537 -207.910497 
L 146.447107 -210.066966 
L 151.058678 -212.613512 
L 155.670248 -215.597811 
L 160.281818 -219.068231 
L 164.893388 -223.072592 
L 169.504959 -227.656688 
L 174.116529 -232.862603 
L 178.728099 -238.726826 
L 183.339669 -245.278239 
L 187.95124 -252.53601 
L 192.56281 -260.507491 
L 197.17438 -269.186186 
L 201.78595 -278.549905 
L 206.397521 -288.559194 
L 211.009091 -299.156153 
L 215.620661 -310.263735 
L 220.232231 -321.785622 
L 224.843802 -333.606749 
L 229.455372 -345.594515 
L 234.066942 -357.600724 
L 238.678512 -369.464218 
L 243.290083 -381.01419 
L 247.901653 -392.074059 
L 252.513223 -402.465832 
L 257.124793 -412.014781 
L 261.736364 -420.554276 
L 266.347934 -427.9306 
L 270.959504 -434.007537 
L 275.571074 -438.670546 
L 280.182645 -441.830356 
L 284.794215 -443.425804 
L 289.405785 -443.425804 
L 294.017355 -441.830356 
L 298.628926 -438.670546 
L 303.240496 -434.007537 
L 307.852066 -427.9306 
L 312.463636 -420.554276 
L 317.075207 -412.014781 
L 321.686777 -402.465832 
L 326.298347 -392.074059 
L 330.909917 -381.01419 
L 335.521488 -369.464218 
L 340.133058 -357.600724 
L 344.744628 -345.594515 
L 349.356198 -333.606749 
L 353.967769 -321.785622 
L 358.579339 -310.263735 
L 363.190909 -299.156153 
L 367.802479 -288.559194 
L 372.41405 -278.549905 
L 377.02562 -269.186186 
L 381.63719 -260.507491 
L 386.24876 -252.53601 
L 390.860331 -245.278239 
L 395.471901 -238.726826 
L 400.083471 -232.862603 
L 404.695041 -227.656688 
L 409.306612 -223.072592 
L 413.918182 -219.068231 
L 418.529752 -215.597811 
L 423.141322 -212.613512 
L 427.752893 -210.066966 
L 432.364463 -207.910497 
L 436.976033 -206.098119 
L 441.587603 -204.586315 
L 446.199174 -203.33459 
L 450.810744 -202.305835 
L 455.422314 -201.466519 
L 460.033884 -200.786736 
L 464.645455 -200.240144 
L 469.257025 -199.803808 
L 473.868595 -199.457982 
L 478.480165 -199.185844 
L 483.091736 -198.973212 
L 487.703306 -198.808249 
L 492.314876 -198.68117 
L 496.926446 -198.583961 
L 501.538017 -198.510122 
L 506.149587 -198.454425 
L 510.761157 -198.412706 
L 515.372727 -198.381673 
L 515.372727 -198.299375 
L 515.372727 -198.299375 
L 510.761157 -198.299375 
L 506.149587 -198.299375 
L 501.538017 -198.299375 
L 496.926446 -198.299375 
L 492.314876 -198.299375 
L 487.703306 -198.299375 
L 483.091736 -198.299375 
L 478.480165 -198.299375 
L 473.868595 -198.299375 
L 469.257025 -198.299375 
L 464.645455 -198.299375 
L 460.033884 -198.299375 
L 455.422314 -198.299375 
L 450.810744 -198.299375 
L 446.199174 -198.299375 
L 441.587603 -198.299375 
L 436.976033 -198.299375 
L 432.364463 -198.299375 
L 427.752893 -198.299375 
L 423.141322 -198.299375 
L 418.529752 -198.299375 
L 413.918182 -198.299375 
L 409.306612 -198.299375 
L 404.695041 -198.299375 
L 400.083471 -198.299375 
L 395.471901 -198.299375 
L 390.860331 -198.299375 
L 386.24876 -198.299375 
L 381.63719 -198.299375 
L 377.02562 -198.299375 
L 372.41405 -198.299375 
L 367.802479 -198.299375 
L 363.190909 -198.299375 
L 358.579339 -198.299375 
L 353.967769 -198.299375 
L 349.356198 -198.299375 
L 344.744628 -198.299375 
L 340.133058 -198.299375 
L 335.521488 -198.299375 
L 330.909917 -198.299375 
L 326.298347 -198.299375 
L 321.686777 -198.299375 
L 317.075207 -198.299375 
L 312.463636 -198.299375 
L 307.852066 -198.299375 
L 303.240496 -198.299375 
L 298.628926 -198.299375 
L 294.017355 -198.299375 
L 289.405785 -198.299375 
L 284.794215 -198.299375 
L 280.182645 -198.299375 
L 275.571074 -198.299375 
L 270.959504 -198.299375 
L 266.347934 -198.299375 
L 261.736364 -198.299375 
L 257.124793 -198.299375 
L 252.513223 -198.299375 
L 247.901653 -198.299375 
L 243.290083 -198.299375 
L 238.678512 -198.299375 
L 234.066942 -198.299375 
L 229.455372 -198.299375 
L 224.843802 -198.299375 
L 220.232231 -198.299375 
L 215.620661 -198.299375 
L 211.009091 -198.299375 
L 206.397521 -198.299375 
L 201.78595 -198.299375 
L 197.17438 -198.299375 
L 192.56281 -198.299375 
L 187.95124 -198.299375 
L 183.339669 -198.299375 
L 178.728099 -198.299375 
L 174.116529 -198.299375 
L 169.504959 -198.299375 
L 164.893388 -198.299375 
L 160.281818 -198.299375 
L 155.670248 -198.299375 
L 151.058678 -198.299375 
L 146.447107 -198.299375 
L 141.835537 -198.299375 
L 137.223967 -198.299375 
L 132.612397 -198.299375 
L 128.000826 -198.299375 
L 123.389256 -198.299375 
L 118.777686 -198.299375 
L 114.166116 -198.299375 
L 109.554545 -198.299375 
L 104.942975 -198.299375 
L 100.331405 -198.299375 
L 95.719835 -198.299375 
L 91.108264 -198.299375 
L 86.496694 -198.299375 
L 81.885124 -198.299375 
L 77.273554 -198.299375 
L 72.661983 -198.299375 
L 68.050413 -198.299375 
L 63.438843 -198.299375 
L 58.827273 -198.299375 
z
" id="m40d90c79d2" style="stroke:#36a2eb;stroke-opacity:0.5;"/>
    </defs>
    <g clip-path="url(#p908140f8dc)">
     <use style="fill:#36a2eb;fill-opacity:0.5;stroke:#36a2eb;stroke-opacity:0.5;" x="0" xlink:href="#m40d90c79d2" y="591.509375"/>
    </g>
   </g>
   <g id="line2d_1">
    <path clip-path="url(#p908140f8dc)" d="M 108.938355 393.095782 
L 112.261159 393.052713 
L 115.583962 392.994812 
L 118.906766 392.917514 
L 122.229569 392.815036 
L 125.552373 392.680124 
L 128.875176 392.503756 
L 132.19798 392.274812 
L 135.520783 391.97971 
L 138.843587 391.602021 
L 142.16639 391.122064 
L 145.489194 390.516494 
L 148.811997 389.757904 
L 152.134801 388.814463 
L 155.457604 387.649613 
L 158.780408 386.22185 
L 162.103211 384.484637 
L 165.426015 382.386473 
L 168.748818 379.871154 
L 172.071622 376.878287 
L 175.394425 373.34405 
L 178.717229 369.202275 
L 182.040032 364.385834 
L 185.362836 358.828361 
L 188.685639 352.466299 
L 192.008443 345.241243 
L 195.331246 337.10255 
L 198.65405 328.010137 
L 201.976853 317.937401 
L 205.299657 306.87414 
L 208.62246 294.829368 
L 211.945264 281.833882 
L 215.268067 267.942437 
L 218.590871 253.235392 
L 221.913674 237.819676 
L 225.236478 221.828964 
L 228.559281 205.422951 
L 231.882085 188.785667 
L 235.204888 172.122788 
L 238.527691 155.657975 
L 241.850495 139.628286 
L 245.173298 124.278789 
L 248.496102 109.856512 
L 251.818905 96.603953 
L 255.141709 84.75237 
L 258.464512 74.515099 
L 261.787316 66.081191 
L 265.110119 59.609609 
L 268.432923 55.22425 
L 271.755726 53.01 
L 275.07853 53.01 
L 278.401333 55.22425 
L 281.724137 59.609609 
L 285.04694 66.081191 
L 288.369744 74.515099 
L 291.692547 84.75237 
L 295.015351 96.603953 
L 298.338154 109.856512 
L 301.660958 124.278789 
L 304.983761 139.628286 
L 308.306565 155.657975 
L 311.629368 172.122788 
L 314.952172 188.785667 
L 318.274975 205.422951 
L 321.597779 221.828964 
L 324.920582 237.819676 
L 328.243386 253.235392 
L 331.566189 267.942437 
L 334.888993 281.833882 
L 338.211796 294.829368 
L 341.5346 306.87414 
L 344.857403 317.937401 
L 348.180207 328.010137 
L 351.50301 337.10255 
L 354.825814 345.241243 
L 358.148617 352.466299 
L 361.471421 358.828361 
L 364.794224 364.385834 
L 368.117028 369.202275 
L 371.439831 373.34405 
L 374.762634 376.878287 
L 378.085438 379.871154 
L 381.408241 382.386473 
L 384.731045 384.484637 
L 388.053848 386.22185 
L 391.376652 387.649613 
L 394.699455 388.814463 
L 398.022259 389.757904 
L 401.345062 390.516494 
L 404.667866 391.122064 
L 407.990669 391.602021 
L 411.313473 391.97971 
L 414.636276 392.274812 
L 417.95908 392.503756 
L 421.281883 392.680124 
L 424.604687 392.815036 
L 427.92749 392.917514 
L 431.250294 392.994812 
L 434.573097 393.052713 
L 437.895901 393.095782 
" style="fill:none;stroke:#ff6384;stroke-linecap:square;"/>
   </g>
   <g id="line2d_2">
    <path clip-path="url(#p908140f8dc)" d="M 58.827273 393.127702 
L 63.438843 393.096669 
L 68.050413 393.05495 
L 72.661983 392.999253 
L 77.273554 392.925414 
L 81.885124 392.828205 
L 86.496694 392.701126 
L 91.108264 392.536163 
L 95.719835 392.323531 
L 100.331405 392.051393 
L 104.942975 391.705567 
L 109.554545 391.269231 
L 114.166116 390.722639 
L 118.777686 390.042856 
L 123.389256 389.20354 
L 128.000826 388.174785 
L 132.612397 386.92306 
L 137.223967 385.411256 
L 141.835537 383.598878 
L 146.447107 381.442409 
L 151.058678 378.895863 
L 155.670248 375.911564 
L 160.281818 372.441144 
L 164.893388 368.436783 
L 169.504959 363.852687 
L 174.116529 358.646772 
L 178.728099 352.782549 
L 183.339669 346.231136 
L 187.95124 338.973365 
L 192.56281 331.001884 
L 197.17438 322.323189 
L 201.78595 312.95947 
L 206.397521 302.950181 
L 211.009091 292.353222 
L 215.620661 281.24564 
L 220.232231 269.723753 
L 224.843802 257.902626 
L 229.455372 245.91486 
L 234.066942 233.908651 
L 238.678512 222.045157 
L 243.290083 210.495185 
L 247.901653 199.435316 
L 252.513223 189.043543 
L 257.124793 179.494594 
L 261.736364 170.955099 
L 266.347934 163.578775 
L 270.959504 157.501838 
L 275.571074 152.838829 
L 280.182645 149.679019 
L 284.794215 148.083571 
L 289.405785 148.083571 
L 294.017355 149.679019 
L 298.628926 152.838829 
L 303.240496 157.501838 
L 307.852066 163.578775 
L 312.463636 170.955099 
L 317.075207 179.494594 
L 321.686777 189.043543 
L 326.298347 199.435316 
L 330.909917 210.495185 
L 335.521488 222.045157 
L 340.133058 233.908651 
L 344.744628 245.91486 
L 349.356198 257.902626 
L 353.967769 269.723753 
L 358.579339 281.24564 
L 363.190909 292.353222 
L 367.802479 302.950181 
L 372.41405 312.95947 
L 377.02562 322.323189 
L 381.63719 331.001884 
L 386.24876 338.973365 
L 390.860331 346.231136 
L 395.471901 352.782549 
L 400.083471 358.646772 
L 404.695041 363.852687 
L 409.306612 368.436783 
L 413.918182 372.441144 
L 418.529752 375.911564 
L 423.141322 378.895863 
L 427.752893 381.442409 
L 432.364463 383.598878 
L 436.976033 385.411256 
L 441.587603 386.92306 
L 446.199174 388.174785 
L 450.810744 389.20354 
L 455.422314 390.042856 
L 460.033884 390.722639 
L 464.645455 391.269231 
L 469.257025 391.705567 
L 473.868595 392.051393 
L 478.480165 392.323531 
L 483.091736 392.536163 
L 487.703306 392.701126 
L 492.314876 392.828205 
L 496.926446 392.925414 
L 501.538017 392.999253 
L 506.149587 393.05495 
L 510.761157 393.096669 
L 515.372727 393.127702 
" style="fill:none;stroke:#36a2eb;stroke-linecap:square;"/>
   </g>
   <g id="patch_3">
    <path d="M 36 410.22 
L 538.2 410.22 
" style="fill:none;stroke:#000000;stroke-linecap:square;stroke-linejoin:miter;stroke-width:0.8;"/>
   </g>
   <g id="legend_1">
    <g id="patch_4">
     <path d="M 414.919063 88.29875 
L 528.4 88.29875 
Q 531.2 88.29875 531.2 85.49875 
L 531.2 45.8 
Q 531.2 43 528.4 43 
L 414.919063 43 
Q 412.119063 43 412.119063 45.8 
L 412.119063 85.49875 
Q 412.119063 88.29875 414.919063 88.29875 
z
" style="fill:#ffffff;opacity:0.8;stroke:#cccccc;stroke-linejoin:miter;"/>
    </g>
    <g id="patch_5">
     <path d="M 417.719063 59.237813 
L 445.719063 59.237813 
L 445.719063 49.437813 
L 417.719063 49.437813 
z
" style="fill:#ff6384;opacity:0.5;stroke:#ff6384;stroke-linejoin:miter;"/>
    </g>
    <g id="text_1">
     <!-- sidemenu -->
     <defs>
      <path d="M 44.28125 53.078125 
L 44.28125 44.578125 
Q 40.484375 46.53125 36.375 47.5 
Q 32.28125 48.484375 27.875 48.484375 
Q 21.1875 48.484375 17.84375 46.4375 
Q 14.5 44.390625 14.5 40.28125 
Q 14.5 37.15625 16.890625 35.375 
Q 19.28125 33.59375 26.515625 31.984375 
L 29.59375 31.296875 
Q 39.15625 29.25 43.1875 25.515625 
Q 47.21875 21.78125 47.21875 15.09375 
Q 47.21875 7.46875 41.1875 3.015625 
Q 35.15625 -1.421875 24.609375 -1.421875 
Q 20.21875 -1.421875 15.453125 -0.5625 
Q 10.6875 0.296875 5.421875 2 
L 5.421875 11.28125 
Q 10.40625 8.6875 15.234375 7.390625 
Q 20.0625 6.109375 24.8125 6.109375 
Q 31.15625 6.109375 34.5625 8.28125 
Q 37.984375 10.453125 37.984375 14.40625 
Q 37.984375 18.0625 35.515625 20.015625 
Q 33.0625 21.96875 24.703125 23.78125 
L 21.578125 24.515625 
Q 13.234375 26.265625 9.515625 29.90625 
Q 5.8125 33.546875 5.8125 39.890625 
Q 5.8125 47.609375 11.28125 51.796875 
Q 16.75 56 26.8125 56 
Q 31.78125 56 36.171875 55.265625 
Q 40.578125 54.546875 44.28125 53.078125 
z
" id="DejaVuSans-115"/>
      <path d="M 9.421875 54.6875 
L 18.40625 54.6875 
L 18.40625 0 
L 9.421875 0 
z
M 9.421875 75.984375 
L 18.40625 75.984375 
L 18.40625 64.59375 
L 9.421875 64.59375 
z
" id="DejaVuSans-105"/>
      <path d="M 45.40625 46.390625 
L 45.40625 75.984375 
L 54.390625 75.984375 
L 54.390625 0 
L 45.40625 0 
L 45.40625 8.203125 
Q 42.578125 3.328125 38.25 0.953125 
Q 33.9375 -1.421875 27.875 -1.421875 
Q 17.96875 -1.421875 11.734375 6.484375 
Q 5.515625 14.40625 5.515625 27.296875 
Q 5.515625 40.1875 11.734375 48.09375 
Q 17.96875 56 27.875 56 
Q 33.9375 56 38.25 53.625 
Q 42.578125 51.265625 45.40625 46.390625 
z
M 14.796875 27.296875 
Q 14.796875 17.390625 18.875 11.75 
Q 22.953125 6.109375 30.078125 6.109375 
Q 37.203125 6.109375 41.296875 11.75 
Q 45.40625 17.390625 45.40625 27.296875 
Q 45.40625 37.203125 41.296875 42.84375 
Q 37.203125 48.484375 30.078125 48.484375 
Q 22.953125 48.484375 18.875 42.84375 
Q 14.796875 37.203125 14.796875 27.296875 
z
" id="DejaVuSans-100"/>
      <path d="M 56.203125 29.59375 
L 56.203125 25.203125 
L 14.890625 25.203125 
Q 15.484375 15.921875 20.484375 11.0625 
Q 25.484375 6.203125 34.421875 6.203125 
Q 39.59375 6.203125 44.453125 7.46875 
Q 49.3125 8.734375 54.109375 11.28125 
L 54.109375 2.78125 
Q 49.265625 0.734375 44.1875 -0.34375 
Q 39.109375 -1.421875 33.890625 -1.421875 
Q 20.796875 -1.421875 13.15625 6.1875 
Q 5.515625 13.8125 5.515625 26.8125 
Q 5.515625 40.234375 12.765625 48.109375 
Q 20.015625 56 32.328125 56 
Q 43.359375 56 49.78125 48.890625 
Q 56.203125 41.796875 56.203125 29.59375 
z
M 47.21875 32.234375 
Q 47.125 39.59375 43.09375 43.984375 
Q 39.0625 48.390625 32.421875 48.390625 
Q 24.90625 48.390625 20.390625 44.140625 
Q 15.875 39.890625 15.1875 32.171875 
z
" id="DejaVuSans-101"/>
      <path d="M 52 44.1875 
Q 55.375 50.25 60.0625 53.125 
Q 64.75 56 71.09375 56 
Q 79.640625 56 84.28125 50.015625 
Q 88.921875 44.046875 88.921875 33.015625 
L 88.921875 0 
L 79.890625 0 
L 79.890625 32.71875 
Q 79.890625 40.578125 77.09375 44.375 
Q 74.3125 48.1875 68.609375 48.1875 
Q 61.625 48.1875 57.5625 43.546875 
Q 53.515625 38.921875 53.515625 30.90625 
L 53.515625 0 
L 44.484375 0 
L 44.484375 32.71875 
Q 44.484375 40.625 41.703125 44.40625 
Q 38.921875 48.1875 33.109375 48.1875 
Q 26.21875 48.1875 22.15625 43.53125 
Q 18.109375 38.875 18.109375 30.90625 
L 18.109375 0 
L 9.078125 0 
L 9.078125 54.6875 
L 18.109375 54.6875 
L 18.109375 46.1875 
Q 21.1875 51.21875 25.484375 53.609375 
Q 29.78125 56 35.6875 56 
Q 41.65625 56 45.828125 52.96875 
Q 50 49.953125 52 44.1875 
z
" id="DejaVuSans-109"/>
      <path d="M 54.890625 33.015625 
L 54.890625 0 
L 45.90625 0 
L 45.90625 32.71875 
Q 45.90625 40.484375 42.875 44.328125 
Q 39.84375 48.1875 33.796875 48.1875 
Q 26.515625 48.1875 22.3125 43.546875 
Q 18.109375 38.921875 18.109375 30.90625 
L 18.109375 0 
L 9.078125 0 
L 9.078125 54.6875 
L 18.109375 54.6875 
L 18.109375 46.1875 
Q 21.34375 51.125 25.703125 53.5625 
Q 30.078125 56 35.796875 56 
Q 45.21875 56 50.046875 50.171875 
Q 54.890625 44.34375 54.890625 33.015625 
z
" id="DejaVuSans-110"/>
      <path d="M 8.5 21.578125 
L 8.5 54.6875 
L 17.484375 54.6875 
L 17.484375 21.921875 
Q 17.484375 14.15625 20.5 10.265625 
Q 23.53125 6.390625 29.59375 6.390625 
Q 36.859375 6.390625 41.078125 11.03125 
Q 45.3125 15.671875 45.3125 23.6875 
L 45.3125 54.6875 
L 54.296875 54.6875 
L 54.296875 0 
L 45.3125 0 
L 45.3125 8.40625 
Q 42.046875 3.421875 37.71875 1 
Q 33.40625 -1.421875 27.6875 -1.421875 
Q 18.265625 -1.421875 13.375 4.4375 
Q 8.5 10.296875 8.5 21.578125 
z
M 31.109375 56 
z
" id="DejaVuSans-117"/>
     </defs>
     <g transform="translate(456.919063 59.237813)scale(0.14 -0.14)">
      <use xlink:href="#DejaVuSans-115"/>
      <use x="52.099609" xlink:href="#DejaVuSans-105"/>
      <use x="79.882812" xlink:href="#DejaVuSans-100"/>
      <use x="143.359375" xlink:href="#DejaVuSans-101"/>
      <use x="204.882812" xlink:href="#DejaVuSans-109"/>
      <use x="302.294922" xlink:href="#DejaVuSans-101"/>
      <use x="363.818359" xlink:href="#DejaVuSans-110"/>
      <use x="427.197266" xlink:href="#DejaVuSans-117"/>
     </g>
    </g>
    <g id="patch_6">
     <path d="M 417.719063 79.787188 
L 445.719063 79.787188 
L 445.719063 69.987188 
L 417.719063 69.987188 
z
" style="fill:#36a2eb;opacity:0.5;stroke:#36a2eb;stroke-linejoin:miter;"/>
    </g>
    <g id="text_2">
     <!-- tabbar -->
     <defs>
      <path d="M 18.3125 70.21875 
L 18.3125 54.6875 
L 36.8125 54.6875 
L 36.8125 47.703125 
L 18.3125 47.703125 
L 18.3125 18.015625 
Q 18.3125 11.328125 20.140625 9.421875 
Q 21.96875 7.515625 27.59375 7.515625 
L 36.8125 7.515625 
L 36.8125 0 
L 27.59375 0 
Q 17.1875 0 13.234375 3.875 
Q 9.28125 7.765625 9.28125 18.015625 
L 9.28125 47.703125 
L 2.6875 47.703125 
L 2.6875 54.6875 
L 9.28125 54.6875 
L 9.28125 70.21875 
z
" id="DejaVuSans-116"/>
      <path d="M 34.28125 27.484375 
Q 23.390625 27.484375 19.1875 25 
Q 14.984375 22.515625 14.984375 16.5 
Q 14.984375 11.71875 18.140625 8.90625 
Q 21.296875 6.109375 26.703125 6.109375 
Q 34.1875 6.109375 38.703125 11.40625 
Q 43.21875 16.703125 43.21875 25.484375 
L 43.21875 27.484375 
z
M 52.203125 31.203125 
L 52.203125 0 
L 43.21875 0 
L 43.21875 8.296875 
Q 40.140625 3.328125 35.546875 0.953125 
Q 30.953125 -1.421875 24.3125 -1.421875 
Q 15.921875 -1.421875 10.953125 3.296875 
Q 6 8.015625 6 15.921875 
Q 6 25.140625 12.171875 29.828125 
Q 18.359375 34.515625 30.609375 34.515625 
L 43.21875 34.515625 
L 43.21875 35.40625 
Q 43.21875 41.609375 39.140625 45 
Q 35.0625 48.390625 27.6875 48.390625 
Q 23 48.390625 18.546875 47.265625 
Q 14.109375 46.140625 10.015625 43.890625 
L 10.015625 52.203125 
Q 14.9375 54.109375 19.578125 55.046875 
Q 24.21875 56 28.609375 56 
Q 40.484375 56 46.34375 49.84375 
Q 52.203125 43.703125 52.203125 31.203125 
z
" id="DejaVuSans-97"/>
      <path d="M 48.6875 27.296875 
Q 48.6875 37.203125 44.609375 42.84375 
Q 40.53125 48.484375 33.40625 48.484375 
Q 26.265625 48.484375 22.1875 42.84375 
Q 18.109375 37.203125 18.109375 27.296875 
Q 18.109375 17.390625 22.1875 11.75 
Q 26.265625 6.109375 33.40625 6.109375 
Q 40.53125 6.109375 44.609375 11.75 
Q 48.6875 17.390625 48.6875 27.296875 
z
M 18.109375 46.390625 
Q 20.953125 51.265625 25.265625 53.625 
Q 29.59375 56 35.59375 56 
Q 45.5625 56 51.78125 48.09375 
Q 58.015625 40.1875 58.015625 27.296875 
Q 58.015625 14.40625 51.78125 6.484375 
Q 45.5625 -1.421875 35.59375 -1.421875 
Q 29.59375 -1.421875 25.265625 0.953125 
Q 20.953125 3.328125 18.109375 8.203125 
L 18.109375 0 
L 9.078125 0 
L 9.078125 75.984375 
L 18.109375 75.984375 
z
" id="DejaVuSans-98"/>
      <path d="M 41.109375 46.296875 
Q 39.59375 47.171875 37.8125 47.578125 
Q 36.03125 48 33.890625 48 
Q 26.265625 48 22.1875 43.046875 
Q 18.109375 38.09375 18.109375 28.8125 
L 18.109375 0 
L 9.078125 0 
L 9.078125 54.6875 
L 18.109375 54.6875 
L 18.109375 46.1875 
Q 20.953125 51.171875 25.484375 53.578125 
Q 30.03125 56 36.53125 56 
Q 37.453125 56 38.578125 55.875 
Q 39.703125 55.765625 41.0625 55.515625 
z
" id="DejaVuSans-114"/>
     </defs>
     <g transform="translate(456.919063 79.787188)scale(0.14 -0.14)">
      <use xlink:href="#DejaVuSans-116"/>
      <use x="39.208984" xlink:href="#DejaVuSans-97"/>
      <use x="100.488281" xlink:href="#DejaVuSans-98"/>
      <use x="163.964844" xlink:href="#DejaVuSans-98"/>
      <use x="227.441406" xlink:href="#DejaVuSans-97"/>
      <use x="288.720703" xlink:href="#DejaVuSans-114"/>
     </g>
    </g>
   </g>
  </g>
  <g id="axes_2">
   <g id="patch_7">
    <path d="M 36 534.96 
L 538.2 534.96 
L 538.2 410.22 
L 36 410.22 
z
" style="fill:none;"/>
   </g>
   <g id="patch_8">
    <path clip-path="url(#pa750a241e9)" d="M 192.822529 529.29 
L 354.011727 529.29 
L 354.011727 491.49 
L 192.822529 491.49 
z
" style="fill:#ff6384;opacity:0.5;"/>
   </g>
   <g id="patch_9">
    <path clip-path="url(#pa750a241e9)" d="M 175.246364 453.69 
L 398.953636 453.69 
L 398.953636 415.89 
L 175.246364 415.89 
z
" style="fill:#36a2eb;opacity:0.5;"/>
   </g>
   <g id="matplotlib.axis_1">
    <g id="xtick_1">
     <g id="line2d_3">
      <defs>
       <path d="M 0 0 
L 0 3.5 
" id="m5b5d704201" style="stroke:#000000;stroke-width:0.8;"/>
      </defs>
      <g>
       <use style="stroke:#000000;stroke-width:0.8;" x="88.698358" xlink:href="#m5b5d704201" y="534.96"/>
      </g>
     </g>
     <g id="text_3">
      <!-- 3.75 -->
      <defs>
       <path d="M 40.578125 39.3125 
Q 47.65625 37.796875 51.625 33 
Q 55.609375 28.21875 55.609375 21.1875 
Q 55.609375 10.40625 48.1875 4.484375 
Q 40.765625 -1.421875 27.09375 -1.421875 
Q 22.515625 -1.421875 17.65625 -0.515625 
Q 12.796875 0.390625 7.625 2.203125 
L 7.625 11.71875 
Q 11.71875 9.328125 16.59375 8.109375 
Q 21.484375 6.890625 26.8125 6.890625 
Q 36.078125 6.890625 40.9375 10.546875 
Q 45.796875 14.203125 45.796875 21.1875 
Q 45.796875 27.640625 41.28125 31.265625 
Q 36.765625 34.90625 28.71875 34.90625 
L 20.21875 34.90625 
L 20.21875 43.015625 
L 29.109375 43.015625 
Q 36.375 43.015625 40.234375 45.921875 
Q 44.09375 48.828125 44.09375 54.296875 
Q 44.09375 59.90625 40.109375 62.90625 
Q 36.140625 65.921875 28.71875 65.921875 
Q 24.65625 65.921875 20.015625 65.03125 
Q 15.375 64.15625 9.8125 62.3125 
L 9.8125 71.09375 
Q 15.4375 72.65625 20.34375 73.4375 
Q 25.25 74.21875 29.59375 74.21875 
Q 40.828125 74.21875 47.359375 69.109375 
Q 53.90625 64.015625 53.90625 55.328125 
Q 53.90625 49.265625 50.4375 45.09375 
Q 46.96875 40.921875 40.578125 39.3125 
z
" id="DejaVuSans-51"/>
       <path d="M 10.6875 12.40625 
L 21 12.40625 
L 21 0 
L 10.6875 0 
z
" id="DejaVuSans-46"/>
       <path d="M 8.203125 72.90625 
L 55.078125 72.90625 
L 55.078125 68.703125 
L 28.609375 0 
L 18.3125 0 
L 43.21875 64.59375 
L 8.203125 64.59375 
z
" id="DejaVuSans-55"/>
       <path d="M 10.796875 72.90625 
L 49.515625 72.90625 
L 49.515625 64.59375 
L 19.828125 64.59375 
L 19.828125 46.734375 
Q 21.96875 47.46875 24.109375 47.828125 
Q 26.265625 48.1875 28.421875 48.1875 
Q 40.625 48.1875 47.75 41.5 
Q 54.890625 34.8125 54.890625 23.390625 
Q 54.890625 11.625 47.5625 5.09375 
Q 40.234375 -1.421875 26.90625 -1.421875 
Q 22.3125 -1.421875 17.546875 -0.640625 
Q 12.796875 0.140625 7.71875 1.703125 
L 7.71875 11.625 
Q 12.109375 9.234375 16.796875 8.0625 
Q 21.484375 6.890625 26.703125 6.890625 
Q 35.15625 6.890625 40.078125 11.328125 
Q 45.015625 15.765625 45.015625 23.390625 
Q 45.015625 31 40.078125 35.4375 
Q 35.15625 39.890625 26.703125 39.890625 
Q 22.75 39.890625 18.8125 39.015625 
Q 14.890625 38.140625 10.796875 36.28125 
z
" id="DejaVuSans-53"/>
      </defs>
      <g transform="translate(73.11242 552.597813)scale(0.14 -0.14)">
       <use xlink:href="#DejaVuSans-51"/>
       <use x="63.623047" xlink:href="#DejaVuSans-46"/>
       <use x="95.410156" xlink:href="#DejaVuSans-55"/>
       <use x="159.033203" xlink:href="#DejaVuSans-53"/>
      </g>
     </g>
    </g>
    <g id="xtick_2">
     <g id="line2d_4">
      <g>
       <use style="stroke:#000000;stroke-width:0.8;" x="145.710324" xlink:href="#m5b5d704201" y="534.96"/>
      </g>
     </g>
     <g id="text_4">
      <!-- 4.00 -->
      <defs>
       <path d="M 37.796875 64.3125 
L 12.890625 25.390625 
L 37.796875 25.390625 
z
M 35.203125 72.90625 
L 47.609375 72.90625 
L 47.609375 25.390625 
L 58.015625 25.390625 
L 58.015625 17.1875 
L 47.609375 17.1875 
L 47.609375 0 
L 37.796875 0 
L 37.796875 17.1875 
L 4.890625 17.1875 
L 4.890625 26.703125 
z
" id="DejaVuSans-52"/>
       <path d="M 31.78125 66.40625 
Q 24.171875 66.40625 20.328125 58.90625 
Q 16.5 51.421875 16.5 36.375 
Q 16.5 21.390625 20.328125 13.890625 
Q 24.171875 6.390625 31.78125 6.390625 
Q 39.453125 6.390625 43.28125 13.890625 
Q 47.125 21.390625 47.125 36.375 
Q 47.125 51.421875 43.28125 58.90625 
Q 39.453125 66.40625 31.78125 66.40625 
z
M 31.78125 74.21875 
Q 44.046875 74.21875 50.515625 64.515625 
Q 56.984375 54.828125 56.984375 36.375 
Q 56.984375 17.96875 50.515625 8.265625 
Q 44.046875 -1.421875 31.78125 -1.421875 
Q 19.53125 -1.421875 13.0625 8.265625 
Q 6.59375 17.96875 6.59375 36.375 
Q 6.59375 54.828125 13.0625 64.515625 
Q 19.53125 74.21875 31.78125 74.21875 
z
" id="DejaVuSans-48"/>
      </defs>
      <g transform="translate(130.124386 552.597813)scale(0.14 -0.14)">
       <use xlink:href="#DejaVuSans-52"/>
       <use x="63.623047" xlink:href="#DejaVuSans-46"/>
       <use x="95.410156" xlink:href="#DejaVuSans-48"/>
       <use x="159.033203" xlink:href="#DejaVuSans-48"/>
      </g>
     </g>
    </g>
    <g id="xtick_3">
     <g id="line2d_5">
      <g>
       <use style="stroke:#000000;stroke-width:0.8;" x="202.72229" xlink:href="#m5b5d704201" y="534.96"/>
      </g>
     </g>
     <g id="text_5">
      <!-- 4.25 -->
      <defs>
       <path d="M 19.1875 8.296875 
L 53.609375 8.296875 
L 53.609375 0 
L 7.328125 0 
L 7.328125 8.296875 
Q 12.9375 14.109375 22.625 23.890625 
Q 32.328125 33.6875 34.8125 36.53125 
Q 39.546875 41.84375 41.421875 45.53125 
Q 43.3125 49.21875 43.3125 52.78125 
Q 43.3125 58.59375 39.234375 62.25 
Q 35.15625 65.921875 28.609375 65.921875 
Q 23.96875 65.921875 18.8125 64.3125 
Q 13.671875 62.703125 7.8125 59.421875 
L 7.8125 69.390625 
Q 13.765625 71.78125 18.9375 73 
Q 24.125 74.21875 28.421875 74.21875 
Q 39.75 74.21875 46.484375 68.546875 
Q 53.21875 62.890625 53.21875 53.421875 
Q 53.21875 48.921875 51.53125 44.890625 
Q 49.859375 40.875 45.40625 35.40625 
Q 44.1875 33.984375 37.640625 27.21875 
Q 31.109375 20.453125 19.1875 8.296875 
z
" id="DejaVuSans-50"/>
      </defs>
      <g transform="translate(187.136352 552.597813)scale(0.14 -0.14)">
       <use xlink:href="#DejaVuSans-52"/>
       <use x="63.623047" xlink:href="#DejaVuSans-46"/>
       <use x="95.410156" xlink:href="#DejaVuSans-50"/>
       <use x="159.033203" xlink:href="#DejaVuSans-53"/>
      </g>
     </g>
    </g>
    <g id="xtick_4">
     <g id="line2d_6">
      <g>
       <use style="stroke:#000000;stroke-width:0.8;" x="259.734256" xlink:href="#m5b5d704201" y="534.96"/>
      </g>
     </g>
     <g id="text_6">
      <!-- 4.50 -->
      <g transform="translate(244.148319 552.597813)scale(0.14 -0.14)">
       <use xlink:href="#DejaVuSans-52"/>
       <use x="63.623047" xlink:href="#DejaVuSans-46"/>
       <use x="95.410156" xlink:href="#DejaVuSans-53"/>
       <use x="159.033203" xlink:href="#DejaVuSans-48"/>
      </g>
     </g>
    </g>
    <g id="xtick_5">
     <g id="line2d_7">
      <g>
       <use style="stroke:#000000;stroke-width:0.8;" x="316.746222" xlink:href="#m5b5d704201" y="534.96"/>
      </g>
     </g>
     <g id="text_7">
      <!-- 4.75 -->
      <g transform="translate(301.160285 552.597813)scale(0.14 -0.14)">
       <use xlink:href="#DejaVuSans-52"/>
       <use x="63.623047" xlink:href="#DejaVuSans-46"/>
       <use x="95.410156" xlink:href="#DejaVuSans-55"/>
       <use x="159.033203" xlink:href="#DejaVuSans-53"/>
      </g>
     </g>
    </g>
    <g id="xtick_6">
     <g id="line2d_8">
      <g>
       <use style="stroke:#000000;stroke-width:0.8;" x="373.758189" xlink:href="#m5b5d704201" y="534.96"/>
      </g>
     </g>
     <g id="text_8">
      <!-- 5.00 -->
      <g transform="translate(358.172251 552.597813)scale(0.14 -0.14)">
       <use xlink:href="#DejaVuSans-53"/>
       <use x="63.623047" xlink:href="#DejaVuSans-46"/>
       <use x="95.410156" xlink:href="#DejaVuSans-48"/>
       <use x="159.033203" xlink:href="#DejaVuSans-48"/>
      </g>
     </g>
    </g>
    <g id="xtick_7">
     <g id="line2d_9">
      <g>
       <use style="stroke:#000000;stroke-width:0.8;" x="430.770155" xlink:href="#m5b5d704201" y="534.96"/>
      </g>
     </g>
     <g id="text_9">
      <!-- 5.25 -->
      <g transform="translate(415.184217 552.597813)scale(0.14 -0.14)">
       <use xlink:href="#DejaVuSans-53"/>
       <use x="63.623047" xlink:href="#DejaVuSans-46"/>
       <use x="95.410156" xlink:href="#DejaVuSans-50"/>
       <use x="159.033203" xlink:href="#DejaVuSans-53"/>
      </g>
     </g>
    </g>
    <g id="xtick_8">
     <g id="line2d_10">
      <g>
       <use style="stroke:#000000;stroke-width:0.8;" x="487.782121" xlink:href="#m5b5d704201" y="534.96"/>
      </g>
     </g>
     <g id="text_10">
      <!-- 5.50 -->
      <g transform="translate(472.196184 552.597813)scale(0.14 -0.14)">
       <use xlink:href="#DejaVuSans-53"/>
       <use x="63.623047" xlink:href="#DejaVuSans-46"/>
       <use x="95.410156" xlink:href="#DejaVuSans-53"/>
       <use x="159.033203" xlink:href="#DejaVuSans-48"/>
      </g>
     </g>
    </g>
   </g>
   <g id="line2d_11">
    <path clip-path="url(#pa750a241e9)" d="M 273.417128 534.96 
L 273.417128 410.22 
" style="fill:none;stroke:#ff6384;stroke-dasharray:5.55,2.4;stroke-dashoffset:0;stroke-opacity:0.8;stroke-width:1.5;"/>
   </g>
   <g id="line2d_12">
    <path clip-path="url(#pa750a241e9)" d="M 287.1 534.96 
L 287.1 410.22 
" style="fill:none;stroke:#36a2eb;stroke-dasharray:5.55,2.4;stroke-dashoffset:0;stroke-opacity:0.8;stroke-width:1.5;"/>
   </g>
   <g id="patch_10">
    <path d="M 36 534.96 
L 538.2 534.96 
" style="fill:none;stroke:#000000;stroke-linecap:square;stroke-linejoin:miter;stroke-width:0.8;"/>
   </g>
  </g>
 </g>
 <defs>
  <clipPath id="p908140f8dc">
   <rect height="374.22" width="502.2" x="36" y="36"/>
  </clipPath>
  <clipPath id="pa750a241e9">
   <rect height="124.74" width="502.2" x="36" y="410.22"/>
  </clipPath>
 </defs>
</svg>
