<?xml version="1.0" encoding="utf-8" standalone="no"?>
<!DOCTYPE svg PUBLIC "-//W3C//DTD SVG 1.1//EN"
  "http://www.w3.org/Graphics/SVG/1.1/DTD/svg11.dtd">
<!-- Created with matplotlib (https://matplotlib.org/) -->
<svg height="581.789375pt" version="1.1" viewBox="0 0 575.428486 581.789375" width="575.428486pt" xmlns="http://www.w3.org/2000/svg" xmlns:xlink="http://www.w3.org/1999/xlink">
 <defs>
  <style type="text/css">
*{stroke-linecap:butt;stroke-linejoin:round;}
  </style>
 </defs>
 <g id="figure_1">
  <g id="patch_1">
   <path d="M -0 581.789375 
L 575.428486 581.789375 
L 575.428486 0 
L -0 0 
z
" style="fill:none;"/>
  </g>
  <g id="axes_1">
   <g id="patch_2">
    <path d="M 37.228486 402.93 
L 539.428486 402.93 
L 539.428486 36 
L 37.228486 36 
z
" style="fill:none;"/>
   </g>
   <g id="PolyCollection_1">
    <defs>
     <path d="M 60.055759 -195.538011 
L 60.055759 -195.637325 
L 64.667329 -195.674775 
L 69.2789 -195.72512 
L 73.89047 -195.792333 
L 78.50204 -195.881439 
L 83.11361 -195.998746 
L 87.725181 -196.152101 
L 92.336751 -196.351172 
L 96.948321 -196.607768 
L 101.559891 -196.936173 
L 106.171462 -197.353503 
L 110.783032 -197.880056 
L 115.394602 -198.539662 
L 120.006172 -199.359998 
L 124.617743 -200.372853 
L 129.229313 -201.614314 
L 133.840883 -203.124847 
L 138.452453 -204.949233 
L 143.064024 -207.136341 
L 147.675594 -209.738685 
L 152.287164 -212.811757 
L 156.898734 -216.413093 
L 161.510305 -220.601062 
L 166.121875 -225.433369 
L 170.733445 -230.96528 
L 175.345015 -237.247576 
L 179.956586 -244.324293 
L 184.568156 -252.230284 
L 189.179726 -260.988681 
L 193.791296 -270.608355 
L 198.402867 -281.081468 
L 203.014437 -292.381241 
L 207.626007 -304.460064 
L 212.237577 -317.248063 
L 216.849148 -330.652262 
L 221.460718 -344.55643 
L 226.072288 -358.821708 
L 230.683858 -373.28808 
L 235.295429 -387.776707 
L 239.906999 -402.093112 
L 244.518569 -416.03117 
L 249.130139 -429.377792 
L 253.74171 -441.918181 
L 258.35328 -453.441482 
L 262.96485 -463.746614 
L 267.57642 -472.648077 
L 272.187991 -479.981489 
L 276.799561 -485.608628 
L 281.411131 -489.421764 
L 286.022701 -491.347088 
L 290.634272 -491.347088 
L 295.245842 -489.421764 
L 299.857412 -485.608628 
L 304.468982 -479.981489 
L 309.080553 -472.648077 
L 313.692123 -463.746614 
L 318.303693 -453.441482 
L 322.915263 -441.918181 
L 327.526834 -429.377792 
L 332.138404 -416.03117 
L 336.749974 -402.093112 
L 341.361544 -387.776707 
L 345.973115 -373.28808 
L 350.584685 -358.821708 
L 355.196255 -344.55643 
L 359.807825 -330.652262 
L 364.419396 -317.248063 
L 369.030966 -304.460064 
L 373.642536 -292.381241 
L 378.254106 -281.081468 
L 382.865677 -270.608355 
L 387.477247 -260.988681 
L 392.088817 -252.230284 
L 396.700387 -244.324293 
L 401.311958 -237.247576 
L 405.923528 -230.96528 
L 410.535098 -225.433369 
L 415.146668 -220.601062 
L 419.758239 -216.413093 
L 424.369809 -212.811757 
L 428.981379 -209.738685 
L 433.592949 -207.136341 
L 438.20452 -204.949233 
L 442.81609 -203.124847 
L 447.42766 -201.614314 
L 452.03923 -200.372853 
L 456.650801 -199.359998 
L 461.262371 -198.539662 
L 465.873941 -197.880056 
L 470.485511 -197.353503 
L 475.097082 -196.936173 
L 479.708652 -196.607768 
L 484.320222 -196.351172 
L 488.931792 -196.152101 
L 493.543363 -195.998746 
L 498.154933 -195.881439 
L 502.766503 -195.792333 
L 507.378073 -195.72512 
L 511.989644 -195.674775 
L 516.601214 -195.637325 
L 516.601214 -195.538011 
L 516.601214 -195.538011 
L 511.989644 -195.538011 
L 507.378073 -195.538011 
L 502.766503 -195.538011 
L 498.154933 -195.538011 
L 493.543363 -195.538011 
L 488.931792 -195.538011 
L 484.320222 -195.538011 
L 479.708652 -195.538011 
L 475.097082 -195.538011 
L 470.485511 -195.538011 
L 465.873941 -195.538011 
L 461.262371 -195.538011 
L 456.650801 -195.538011 
L 452.03923 -195.538011 
L 447.42766 -195.538011 
L 442.81609 -195.538011 
L 438.20452 -195.538011 
L 433.592949 -195.538011 
L 428.981379 -195.538011 
L 424.369809 -195.538011 
L 419.758239 -195.538011 
L 415.146668 -195.538011 
L 410.535098 -195.538011 
L 405.923528 -195.538011 
L 401.311958 -195.538011 
L 396.700387 -195.538011 
L 392.088817 -195.538011 
L 387.477247 -195.538011 
L 382.865677 -195.538011 
L 378.254106 -195.538011 
L 373.642536 -195.538011 
L 369.030966 -195.538011 
L 364.419396 -195.538011 
L 359.807825 -195.538011 
L 355.196255 -195.538011 
L 350.584685 -195.538011 
L 345.973115 -195.538011 
L 341.361544 -195.538011 
L 336.749974 -195.538011 
L 332.138404 -195.538011 
L 327.526834 -195.538011 
L 322.915263 -195.538011 
L 318.303693 -195.538011 
L 313.692123 -195.538011 
L 309.080553 -195.538011 
L 304.468982 -195.538011 
L 299.857412 -195.538011 
L 295.245842 -195.538011 
L 290.634272 -195.538011 
L 286.022701 -195.538011 
L 281.411131 -195.538011 
L 276.799561 -195.538011 
L 272.187991 -195.538011 
L 267.57642 -195.538011 
L 262.96485 -195.538011 
L 258.35328 -195.538011 
L 253.74171 -195.538011 
L 249.130139 -195.538011 
L 244.518569 -195.538011 
L 239.906999 -195.538011 
L 235.295429 -195.538011 
L 230.683858 -195.538011 
L 226.072288 -195.538011 
L 221.460718 -195.538011 
L 216.849148 -195.538011 
L 212.237577 -195.538011 
L 207.626007 -195.538011 
L 203.014437 -195.538011 
L 198.402867 -195.538011 
L 193.791296 -195.538011 
L 189.179726 -195.538011 
L 184.568156 -195.538011 
L 179.956586 -195.538011 
L 175.345015 -195.538011 
L 170.733445 -195.538011 
L 166.121875 -195.538011 
L 161.510305 -195.538011 
L 156.898734 -195.538011 
L 152.287164 -195.538011 
L 147.675594 -195.538011 
L 143.064024 -195.538011 
L 138.452453 -195.538011 
L 133.840883 -195.538011 
L 129.229313 -195.538011 
L 124.617743 -195.538011 
L 120.006172 -195.538011 
L 115.394602 -195.538011 
L 110.783032 -195.538011 
L 106.171462 -195.538011 
L 101.559891 -195.538011 
L 96.948321 -195.538011 
L 92.336751 -195.538011 
L 87.725181 -195.538011 
L 83.11361 -195.538011 
L 78.50204 -195.538011 
L 73.89047 -195.538011 
L 69.2789 -195.538011 
L 64.667329 -195.538011 
L 60.055759 -195.538011 
z
" id="mc7d4dd0734" style="stroke:#ff6384;stroke-opacity:0.5;"/>
    </defs>
    <g clip-path="url(#pb8dec53ade)">
     <use style="fill:#ff6384;fill-opacity:0.5;stroke:#ff6384;stroke-opacity:0.5;" x="0" xlink:href="#mc7d4dd0734" y="581.789375"/>
    </g>
   </g>
   <g id="PolyCollection_2">
    <defs>
     <path d="M 91.294456 -195.538011 
L 91.294456 -195.650004 
L 95.383952 -195.692234 
L 99.473448 -195.749007 
L 103.562944 -195.8248 
L 107.65244 -195.925281 
L 111.741936 -196.057565 
L 115.831432 -196.230497 
L 119.920928 -196.454982 
L 124.010424 -196.744335 
L 128.09992 -197.114666 
L 132.189416 -197.585273 
L 136.278912 -198.179047 
L 140.368408 -198.922859 
L 144.457904 -199.847921 
L 148.5474 -200.990079 
L 152.636896 -202.390029 
L 156.726392 -204.093399 
L 160.815888 -206.150691 
L 164.905384 -208.617009 
L 168.99488 -211.551575 
L 173.084376 -215.016962 
L 177.173872 -219.078053 
L 181.263368 -223.800667 
L 185.352864 -229.249878 
L 189.44236 -235.488004 
L 193.531856 -242.572312 
L 197.621352 -250.552459 
L 201.710848 -259.467747 
L 205.800344 -269.344261 
L 209.88984 -280.192004 
L 213.979336 -292.002137 
L 218.068832 -304.744465 
L 222.158328 -318.365297 
L 226.247824 -332.785841 
L 230.33732 -347.901251 
L 234.426817 -363.580456 
L 238.516313 -379.666871 
L 242.605809 -395.980052 
L 246.695305 -412.31833 
L 250.784801 -428.4624 
L 254.874297 -444.179822 
L 258.963793 -459.230303 
L 263.053289 -473.371627 
L 267.142785 -486.366018 
L 271.232281 -497.986726 
L 275.321777 -508.02457 
L 279.411273 -516.294181 
L 283.500769 -522.639693 
L 287.590265 -526.939623 
L 291.679761 -529.110739 
L 295.769257 -529.110739 
L 299.858753 -526.939623 
L 303.948249 -522.639693 
L 308.037745 -516.294181 
L 312.127241 -508.02457 
L 316.216737 -497.986726 
L 320.306233 -486.366018 
L 324.395729 -473.371627 
L 328.485225 -459.230303 
L 332.574721 -444.179822 
L 336.664217 -428.4624 
L 340.753713 -412.31833 
L 344.843209 -395.980052 
L 348.932705 -379.666871 
L 353.022201 -363.580456 
L 357.111697 -347.901251 
L 361.201193 -332.785841 
L 365.290689 -318.365297 
L 369.380185 -304.744465 
L 373.469681 -292.002137 
L 377.559177 -280.192004 
L 381.648673 -269.344261 
L 385.738169 -259.467747 
L 389.827665 -250.552459 
L 393.917161 -242.572312 
L 398.006657 -235.488004 
L 402.096153 -229.249878 
L 406.185649 -223.800667 
L 410.275145 -219.078053 
L 414.364641 -215.016962 
L 418.454137 -211.551575 
L 422.543633 -208.617009 
L 426.633129 -206.150691 
L 430.722625 -204.093399 
L 434.812121 -202.390029 
L 438.901617 -200.990079 
L 442.991113 -199.847921 
L 447.080609 -198.922859 
L 451.170105 -198.179047 
L 455.259601 -197.585273 
L 459.349097 -197.114666 
L 463.438593 -196.744335 
L 467.528089 -196.454982 
L 471.617585 -196.230497 
L 475.707081 -196.057565 
L 479.796577 -195.925281 
L 483.886073 -195.8248 
L 487.975569 -195.749007 
L 492.065065 -195.692234 
L 496.154561 -195.650004 
L 496.154561 -195.538011 
L 496.154561 -195.538011 
L 492.065065 -195.538011 
L 487.975569 -195.538011 
L 483.886073 -195.538011 
L 479.796577 -195.538011 
L 475.707081 -195.538011 
L 471.617585 -195.538011 
L 467.528089 -195.538011 
L 463.438593 -195.538011 
L 459.349097 -195.538011 
L 455.259601 -195.538011 
L 451.170105 -195.538011 
L 447.080609 -195.538011 
L 442.991113 -195.538011 
L 438.901617 -195.538011 
L 434.812121 -195.538011 
L 430.722625 -195.538011 
L 426.633129 -195.538011 
L 422.543633 -195.538011 
L 418.454137 -195.538011 
L 414.364641 -195.538011 
L 410.275145 -195.538011 
L 406.185649 -195.538011 
L 402.096153 -195.538011 
L 398.006657 -195.538011 
L 393.917161 -195.538011 
L 389.827665 -195.538011 
L 385.738169 -195.538011 
L 381.648673 -195.538011 
L 377.559177 -195.538011 
L 373.469681 -195.538011 
L 369.380185 -195.538011 
L 365.290689 -195.538011 
L 361.201193 -195.538011 
L 357.111697 -195.538011 
L 353.022201 -195.538011 
L 348.932705 -195.538011 
L 344.843209 -195.538011 
L 340.753713 -195.538011 
L 336.664217 -195.538011 
L 332.574721 -195.538011 
L 328.485225 -195.538011 
L 324.395729 -195.538011 
L 320.306233 -195.538011 
L 316.216737 -195.538011 
L 312.127241 -195.538011 
L 308.037745 -195.538011 
L 303.948249 -195.538011 
L 299.858753 -195.538011 
L 295.769257 -195.538011 
L 291.679761 -195.538011 
L 287.590265 -195.538011 
L 283.500769 -195.538011 
L 279.411273 -195.538011 
L 275.321777 -195.538011 
L 271.232281 -195.538011 
L 267.142785 -195.538011 
L 263.053289 -195.538011 
L 258.963793 -195.538011 
L 254.874297 -195.538011 
L 250.784801 -195.538011 
L 246.695305 -195.538011 
L 242.605809 -195.538011 
L 238.516313 -195.538011 
L 234.426817 -195.538011 
L 230.33732 -195.538011 
L 226.247824 -195.538011 
L 222.158328 -195.538011 
L 218.068832 -195.538011 
L 213.979336 -195.538011 
L 209.88984 -195.538011 
L 205.800344 -195.538011 
L 201.710848 -195.538011 
L 197.621352 -195.538011 
L 193.531856 -195.538011 
L 189.44236 -195.538011 
L 185.352864 -195.538011 
L 181.263368 -195.538011 
L 177.173872 -195.538011 
L 173.084376 -195.538011 
L 168.99488 -195.538011 
L 164.905384 -195.538011 
L 160.815888 -195.538011 
L 156.726392 -195.538011 
L 152.636896 -195.538011 
L 148.5474 -195.538011 
L 144.457904 -195.538011 
L 140.368408 -195.538011 
L 136.278912 -195.538011 
L 132.189416 -195.538011 
L 128.09992 -195.538011 
L 124.010424 -195.538011 
L 119.920928 -195.538011 
L 115.831432 -195.538011 
L 111.741936 -195.538011 
L 107.65244 -195.538011 
L 103.562944 -195.538011 
L 99.473448 -195.538011 
L 95.383952 -195.538011 
L 91.294456 -195.538011 
z
" id="md04bfb9c42" style="stroke:#36a2eb;stroke-opacity:0.5;"/>
    </defs>
    <g clip-path="url(#pb8dec53ade)">
     <use style="fill:#36a2eb;fill-opacity:0.5;stroke:#36a2eb;stroke-opacity:0.5;" x="0" xlink:href="#md04bfb9c42" y="581.789375"/>
    </g>
   </g>
   <g id="line2d_1">
    <path clip-path="url(#pb8dec53ade)" d="M 60.055759 386.15205 
L 64.667329 386.1146 
L 69.2789 386.064255 
L 73.89047 385.997042 
L 78.50204 385.907936 
L 83.11361 385.790629 
L 87.725181 385.637274 
L 92.336751 385.438203 
L 96.948321 385.181607 
L 101.559891 384.853202 
L 106.171462 384.435872 
L 110.783032 383.909319 
L 115.394602 383.249713 
L 120.006172 382.429377 
L 124.617743 381.416522 
L 129.229313 380.175061 
L 133.840883 378.664528 
L 138.452453 376.840142 
L 143.064024 374.653034 
L 147.675594 372.05069 
L 152.287164 368.977618 
L 156.898734 365.376282 
L 161.510305 361.188313 
L 166.121875 356.356006 
L 170.733445 350.824095 
L 175.345015 344.541799 
L 179.956586 337.465082 
L 184.568156 329.559091 
L 189.179726 320.800694 
L 193.791296 311.18102 
L 198.402867 300.707907 
L 203.014437 289.408134 
L 207.626007 277.329311 
L 212.237577 264.541312 
L 216.849148 251.137113 
L 221.460718 237.232945 
L 226.072288 222.967667 
L 230.683858 208.501295 
L 235.295429 194.012668 
L 239.906999 179.696263 
L 244.518569 165.758205 
L 249.130139 152.411583 
L 253.74171 139.871194 
L 258.35328 128.347893 
L 262.96485 118.042761 
L 267.57642 109.141298 
L 272.187991 101.807886 
L 276.799561 96.180747 
L 281.411131 92.367611 
L 286.022701 90.442287 
L 290.634272 90.442287 
L 295.245842 92.367611 
L 299.857412 96.180747 
L 304.468982 101.807886 
L 309.080553 109.141298 
L 313.692123 118.042761 
L 318.303693 128.347893 
L 322.915263 139.871194 
L 327.526834 152.411583 
L 332.138404 165.758205 
L 336.749974 179.696263 
L 341.361544 194.012668 
L 345.973115 208.501295 
L 350.584685 222.967667 
L 355.196255 237.232945 
L 359.807825 251.137113 
L 364.419396 264.541312 
L 369.030966 277.329311 
L 373.642536 289.408134 
L 378.254106 300.707907 
L 382.865677 311.18102 
L 387.477247 320.800694 
L 392.088817 329.559091 
L 396.700387 337.465082 
L 401.311958 344.541799 
L 405.923528 350.824095 
L 410.535098 356.356006 
L 415.146668 361.188313 
L 419.758239 365.376282 
L 424.369809 368.977618 
L 428.981379 372.05069 
L 433.592949 374.653034 
L 438.20452 376.840142 
L 442.81609 378.664528 
L 447.42766 380.175061 
L 452.03923 381.416522 
L 456.650801 382.429377 
L 461.262371 383.249713 
L 465.873941 383.909319 
L 470.485511 384.435872 
L 475.097082 384.853202 
L 479.708652 385.181607 
L 484.320222 385.438203 
L 488.931792 385.637274 
L 493.543363 385.790629 
L 498.154933 385.907936 
L 502.766503 385.997042 
L 507.378073 386.064255 
L 511.989644 386.1146 
L 516.601214 386.15205 
" style="fill:none;stroke:#ff6384;stroke-linecap:square;"/>
   </g>
   <g id="line2d_2">
    <path clip-path="url(#pb8dec53ade)" d="M 91.294456 386.139371 
L 95.383952 386.097141 
L 99.473448 386.040368 
L 103.562944 385.964575 
L 107.65244 385.864094 
L 111.741936 385.73181 
L 115.831432 385.558878 
L 119.920928 385.334393 
L 124.010424 385.04504 
L 128.09992 384.674709 
L 132.189416 384.204102 
L 136.278912 383.610328 
L 140.368408 382.866516 
L 144.457904 381.941454 
L 148.5474 380.799296 
L 152.636896 379.399346 
L 156.726392 377.695976 
L 160.815888 375.638684 
L 164.905384 373.172366 
L 168.99488 370.2378 
L 173.084376 366.772413 
L 177.173872 362.711322 
L 181.263368 357.988708 
L 185.352864 352.539497 
L 189.44236 346.301371 
L 193.531856 339.217063 
L 197.621352 331.236916 
L 201.710848 322.321628 
L 205.800344 312.445114 
L 209.88984 301.597371 
L 213.979336 289.787238 
L 218.068832 277.04491 
L 222.158328 263.424078 
L 226.247824 249.003534 
L 230.33732 233.888124 
L 234.426817 218.208919 
L 238.516313 202.122504 
L 242.605809 185.809323 
L 246.695305 169.471045 
L 250.784801 153.326975 
L 254.874297 137.609553 
L 258.963793 122.559072 
L 263.053289 108.417748 
L 267.142785 95.423357 
L 271.232281 83.802649 
L 275.321777 73.764805 
L 279.411273 65.495194 
L 283.500769 59.149682 
L 287.590265 54.849752 
L 291.679761 52.678636 
L 295.769257 52.678636 
L 299.858753 54.849752 
L 303.948249 59.149682 
L 308.037745 65.495194 
L 312.127241 73.764805 
L 316.216737 83.802649 
L 320.306233 95.423357 
L 324.395729 108.417748 
L 328.485225 122.559072 
L 332.574721 137.609553 
L 336.664217 153.326975 
L 340.753713 169.471045 
L 344.843209 185.809323 
L 348.932705 202.122504 
L 353.022201 218.208919 
L 357.111697 233.888124 
L 361.201193 249.003534 
L 365.290689 263.424078 
L 369.380185 277.04491 
L 373.469681 289.787238 
L 377.559177 301.597371 
L 381.648673 312.445114 
L 385.738169 322.321628 
L 389.827665 331.236916 
L 393.917161 339.217063 
L 398.006657 346.301371 
L 402.096153 352.539497 
L 406.185649 357.988708 
L 410.275145 362.711322 
L 414.364641 366.772413 
L 418.454137 370.2378 
L 422.543633 373.172366 
L 426.633129 375.638684 
L 430.722625 377.695976 
L 434.812121 379.399346 
L 438.901617 380.799296 
L 442.991113 381.941454 
L 447.080609 382.866516 
L 451.170105 383.610328 
L 455.259601 384.204102 
L 459.349097 384.674709 
L 463.438593 385.04504 
L 467.528089 385.334393 
L 471.617585 385.558878 
L 475.707081 385.73181 
L 479.796577 385.864094 
L 483.886073 385.964575 
L 487.975569 386.040368 
L 492.065065 386.097141 
L 496.154561 386.139371 
" style="fill:none;stroke:#36a2eb;stroke-linecap:square;"/>
   </g>
   <g id="patch_3">
    <path d="M 37.228486 402.93 
L 539.428486 402.93 
" style="fill:none;stroke:#000000;stroke-linecap:square;stroke-linejoin:miter;stroke-width:0.8;"/>
   </g>
   <g id="legend_1">
    <g id="patch_4">
     <path d="M 451.453799 88.29875 
L 529.628486 88.29875 
Q 532.428486 88.29875 532.428486 85.49875 
L 532.428486 45.8 
Q 532.428486 43 529.628486 43 
L 451.453799 43 
Q 448.653799 43 448.653799 45.8 
L 448.653799 85.49875 
Q 448.653799 88.29875 451.453799 88.29875 
z
" style="fill:#ffffff;opacity:0.8;stroke:#cccccc;stroke-linejoin:miter;"/>
    </g>
    <g id="patch_5">
     <path d="M 454.253799 59.237813 
L 482.253799 59.237813 
L 482.253799 49.437813 
L 454.253799 49.437813 
z
" style="fill:#ff6384;opacity:0.5;stroke:#ff6384;stroke-linejoin:miter;"/>
    </g>
    <g id="text_1">
     <!-- base -->
     <defs>
      <path d="M 48.6875 27.296875 
Q 48.6875 37.203125 44.609375 42.84375 
Q 40.53125 48.484375 33.40625 48.484375 
Q 26.265625 48.484375 22.1875 42.84375 
Q 18.109375 37.203125 18.109375 27.296875 
Q 18.109375 17.390625 22.1875 11.75 
Q 26.265625 6.109375 33.40625 6.109375 
Q 40.53125 6.109375 44.609375 11.75 
Q 48.6875 17.390625 48.6875 27.296875 
z
M 18.109375 46.390625 
Q 20.953125 51.265625 25.265625 53.625 
Q 29.59375 56 35.59375 56 
Q 45.5625 56 51.78125 48.09375 
Q 58.015625 40.1875 58.015625 27.296875 
Q 58.015625 14.40625 51.78125 6.484375 
Q 45.5625 -1.421875 35.59375 -1.421875 
Q 29.59375 -1.421875 25.265625 0.953125 
Q 20.953125 3.328125 18.109375 8.203125 
L 18.109375 0 
L 9.078125 0 
L 9.078125 75.984375 
L 18.109375 75.984375 
z
" id="DejaVuSans-98"/>
      <path d="M 34.28125 27.484375 
Q 23.390625 27.484375 19.1875 25 
Q 14.984375 22.515625 14.984375 16.5 
Q 14.984375 11.71875 18.140625 8.90625 
Q 21.296875 6.109375 26.703125 6.109375 
Q 34.1875 6.109375 38.703125 11.40625 
Q 43.21875 16.703125 43.21875 25.484375 
L 43.21875 27.484375 
z
M 52.203125 31.203125 
L 52.203125 0 
L 43.21875 0 
L 43.21875 8.296875 
Q 40.140625 3.328125 35.546875 0.953125 
Q 30.953125 -1.421875 24.3125 -1.421875 
Q 15.921875 -1.421875 10.953125 3.296875 
Q 6 8.015625 6 15.921875 
Q 6 25.140625 12.171875 29.828125 
Q 18.359375 34.515625 30.609375 34.515625 
L 43.21875 34.515625 
L 43.21875 35.40625 
Q 43.21875 41.609375 39.140625 45 
Q 35.0625 48.390625 27.6875 48.390625 
Q 23 48.390625 18.546875 47.265625 
Q 14.109375 46.140625 10.015625 43.890625 
L 10.015625 52.203125 
Q 14.9375 54.109375 19.578125 55.046875 
Q 24.21875 56 28.609375 56 
Q 40.484375 56 46.34375 49.84375 
Q 52.203125 43.703125 52.203125 31.203125 
z
" id="DejaVuSans-97"/>
      <path d="M 44.28125 53.078125 
L 44.28125 44.578125 
Q 40.484375 46.53125 36.375 47.5 
Q 32.28125 48.484375 27.875 48.484375 
Q 21.1875 48.484375 17.84375 46.4375 
Q 14.5 44.390625 14.5 40.28125 
Q 14.5 37.15625 16.890625 35.375 
Q 19.28125 33.59375 26.515625 31.984375 
L 29.59375 31.296875 
Q 39.15625 29.25 43.1875 25.515625 
Q 47.21875 21.78125 47.21875 15.09375 
Q 47.21875 7.46875 41.1875 3.015625 
Q 35.15625 -1.421875 24.609375 -1.421875 
Q 20.21875 -1.421875 15.453125 -0.5625 
Q 10.6875 0.296875 5.421875 2 
L 5.421875 11.28125 
Q 10.40625 8.6875 15.234375 7.390625 
Q 20.0625 6.109375 24.8125 6.109375 
Q 31.15625 6.109375 34.5625 8.28125 
Q 37.984375 10.453125 37.984375 14.40625 
Q 37.984375 18.0625 35.515625 20.015625 
Q 33.0625 21.96875 24.703125 23.78125 
L 21.578125 24.515625 
Q 13.234375 26.265625 9.515625 29.90625 
Q 5.8125 33.546875 5.8125 39.890625 
Q 5.8125 47.609375 11.28125 51.796875 
Q 16.75 56 26.8125 56 
Q 31.78125 56 36.171875 55.265625 
Q 40.578125 54.546875 44.28125 53.078125 
z
" id="DejaVuSans-115"/>
      <path d="M 56.203125 29.59375 
L 56.203125 25.203125 
L 14.890625 25.203125 
Q 15.484375 15.921875 20.484375 11.0625 
Q 25.484375 6.203125 34.421875 6.203125 
Q 39.59375 6.203125 44.453125 7.46875 
Q 49.3125 8.734375 54.109375 11.28125 
L 54.109375 2.78125 
Q 49.265625 0.734375 44.1875 -0.34375 
Q 39.109375 -1.421875 33.890625 -1.421875 
Q 20.796875 -1.421875 13.15625 6.1875 
Q 5.515625 13.8125 5.515625 26.8125 
Q 5.515625 40.234375 12.765625 48.109375 
Q 20.015625 56 32.328125 56 
Q 43.359375 56 49.78125 48.890625 
Q 56.203125 41.796875 56.203125 29.59375 
z
M 47.21875 32.234375 
Q 47.125 39.59375 43.09375 43.984375 
Q 39.0625 48.390625 32.421875 48.390625 
Q 24.90625 48.390625 20.390625 44.140625 
Q 15.875 39.890625 15.1875 32.171875 
z
" id="DejaVuSans-101"/>
     </defs>
     <g transform="translate(493.453799 59.237813)scale(0.14 -0.14)">
      <use xlink:href="#DejaVuSans-98"/>
      <use x="63.476562" xlink:href="#DejaVuSans-97"/>
      <use x="124.755859" xlink:href="#DejaVuSans-115"/>
      <use x="176.855469" xlink:href="#DejaVuSans-101"/>
     </g>
    </g>
    <g id="patch_6">
     <path d="M 454.253799 79.787188 
L 482.253799 79.787188 
L 482.253799 69.987188 
L 454.253799 69.987188 
z
" style="fill:#36a2eb;opacity:0.5;stroke:#36a2eb;stroke-linejoin:miter;"/>
    </g>
    <g id="text_2">
     <!-- subs -->
     <defs>
      <path d="M 8.5 21.578125 
L 8.5 54.6875 
L 17.484375 54.6875 
L 17.484375 21.921875 
Q 17.484375 14.15625 20.5 10.265625 
Q 23.53125 6.390625 29.59375 6.390625 
Q 36.859375 6.390625 41.078125 11.03125 
Q 45.3125 15.671875 45.3125 23.6875 
L 45.3125 54.6875 
L 54.296875 54.6875 
L 54.296875 0 
L 45.3125 0 
L 45.3125 8.40625 
Q 42.046875 3.421875 37.71875 1 
Q 33.40625 -1.421875 27.6875 -1.421875 
Q 18.265625 -1.421875 13.375 4.4375 
Q 8.5 10.296875 8.5 21.578125 
z
M 31.109375 56 
z
" id="DejaVuSans-117"/>
     </defs>
     <g transform="translate(493.453799 79.787188)scale(0.14 -0.14)">
      <use xlink:href="#DejaVuSans-115"/>
      <use x="52.099609" xlink:href="#DejaVuSans-117"/>
      <use x="115.478516" xlink:href="#DejaVuSans-98"/>
      <use x="178.955078" xlink:href="#DejaVuSans-115"/>
     </g>
    </g>
   </g>
  </g>
  <g id="axes_2">
   <g id="patch_7">
    <path d="M 37.228486 525.24 
L 539.428486 525.24 
L 539.428486 402.93 
L 37.228486 402.93 
z
" style="fill:none;"/>
   </g>
   <g id="patch_8">
    <path clip-path="url(#p9a65b54805)" d="M 176.47485 519.680455 
L 400.182123 519.680455 
L 400.182123 482.616818 
L 176.47485 482.616818 
z
" style="fill:#ff6384;opacity:0.5;"/>
   </g>
   <g id="patch_9">
    <path clip-path="url(#p9a65b54805)" d="M 194.533783 445.553182 
L 392.915234 445.553182 
L 392.915234 408.489545 
L 194.533783 408.489545 
z
" style="fill:#36a2eb;opacity:0.5;"/>
   </g>
   <g id="matplotlib.axis_1">
    <g id="xtick_1">
     <g id="line2d_3">
      <defs>
       <path d="M 0 0 
L 0 3.5 
" id="mc39df04d22" style="stroke:#000000;stroke-width:0.8;"/>
      </defs>
      <g>
       <use style="stroke:#000000;stroke-width:0.8;" x="40.45375" xlink:href="#mc39df04d22" y="525.24"/>
      </g>
     </g>
     <g id="text_3">
      <!-- 4 -->
      <defs>
       <path d="M 37.796875 64.3125 
L 12.890625 25.390625 
L 37.796875 25.390625 
z
M 35.203125 72.90625 
L 47.609375 72.90625 
L 47.609375 25.390625 
L 58.015625 25.390625 
L 58.015625 17.1875 
L 47.609375 17.1875 
L 47.609375 0 
L 37.796875 0 
L 37.796875 17.1875 
L 4.890625 17.1875 
L 4.890625 26.703125 
z
" id="DejaVuSans-52"/>
      </defs>
      <g transform="translate(36 542.877813)scale(0.14 -0.14)">
       <use xlink:href="#DejaVuSans-52"/>
      </g>
     </g>
    </g>
    <g id="xtick_2">
     <g id="line2d_4">
      <g>
       <use style="stroke:#000000;stroke-width:0.8;" x="120.991395" xlink:href="#mc39df04d22" y="525.24"/>
      </g>
     </g>
     <g id="text_4">
      <!-- 6 -->
      <defs>
       <path d="M 33.015625 40.375 
Q 26.375 40.375 22.484375 35.828125 
Q 18.609375 31.296875 18.609375 23.390625 
Q 18.609375 15.53125 22.484375 10.953125 
Q 26.375 6.390625 33.015625 6.390625 
Q 39.65625 6.390625 43.53125 10.953125 
Q 47.40625 15.53125 47.40625 23.390625 
Q 47.40625 31.296875 43.53125 35.828125 
Q 39.65625 40.375 33.015625 40.375 
z
M 52.59375 71.296875 
L 52.59375 62.3125 
Q 48.875 64.0625 45.09375 64.984375 
Q 41.3125 65.921875 37.59375 65.921875 
Q 27.828125 65.921875 22.671875 59.328125 
Q 17.53125 52.734375 16.796875 39.40625 
Q 19.671875 43.65625 24.015625 45.921875 
Q 28.375 48.1875 33.59375 48.1875 
Q 44.578125 48.1875 50.953125 41.515625 
Q 57.328125 34.859375 57.328125 23.390625 
Q 57.328125 12.15625 50.6875 5.359375 
Q 44.046875 -1.421875 33.015625 -1.421875 
Q 20.359375 -1.421875 13.671875 8.265625 
Q 6.984375 17.96875 6.984375 36.375 
Q 6.984375 53.65625 15.1875 63.9375 
Q 23.390625 74.21875 37.203125 74.21875 
Q 40.921875 74.21875 44.703125 73.484375 
Q 48.484375 72.75 52.59375 71.296875 
z
" id="DejaVuSans-54"/>
      </defs>
      <g transform="translate(116.537645 542.877813)scale(0.14 -0.14)">
       <use xlink:href="#DejaVuSans-54"/>
      </g>
     </g>
    </g>
    <g id="xtick_3">
     <g id="line2d_5">
      <g>
       <use style="stroke:#000000;stroke-width:0.8;" x="201.52904" xlink:href="#mc39df04d22" y="525.24"/>
      </g>
     </g>
     <g id="text_5">
      <!-- 8 -->
      <defs>
       <path d="M 31.78125 34.625 
Q 24.75 34.625 20.71875 30.859375 
Q 16.703125 27.09375 16.703125 20.515625 
Q 16.703125 13.921875 20.71875 10.15625 
Q 24.75 6.390625 31.78125 6.390625 
Q 38.8125 6.390625 42.859375 10.171875 
Q 46.921875 13.96875 46.921875 20.515625 
Q 46.921875 27.09375 42.890625 30.859375 
Q 38.875 34.625 31.78125 34.625 
z
M 21.921875 38.8125 
Q 15.578125 40.375 12.03125 44.71875 
Q 8.5 49.078125 8.5 55.328125 
Q 8.5 64.0625 14.71875 69.140625 
Q 20.953125 74.21875 31.78125 74.21875 
Q 42.671875 74.21875 48.875 69.140625 
Q 55.078125 64.0625 55.078125 55.328125 
Q 55.078125 49.078125 51.53125 44.71875 
Q 48 40.375 41.703125 38.8125 
Q 48.828125 37.15625 52.796875 32.3125 
Q 56.78125 27.484375 56.78125 20.515625 
Q 56.78125 9.90625 50.3125 4.234375 
Q 43.84375 -1.421875 31.78125 -1.421875 
Q 19.734375 -1.421875 13.25 4.234375 
Q 6.78125 9.90625 6.78125 20.515625 
Q 6.78125 27.484375 10.78125 32.3125 
Q 14.796875 37.15625 21.921875 38.8125 
z
M 18.3125 54.390625 
Q 18.3125 48.734375 21.84375 45.5625 
Q 25.390625 42.390625 31.78125 42.390625 
Q 38.140625 42.390625 41.71875 45.5625 
Q 45.3125 48.734375 45.3125 54.390625 
Q 45.3125 60.0625 41.71875 63.234375 
Q 38.140625 66.40625 31.78125 66.40625 
Q 25.390625 66.40625 21.84375 63.234375 
Q 18.3125 60.0625 18.3125 54.390625 
z
" id="DejaVuSans-56"/>
      </defs>
      <g transform="translate(197.07529 542.877813)scale(0.14 -0.14)">
       <use xlink:href="#DejaVuSans-56"/>
      </g>
     </g>
    </g>
    <g id="xtick_4">
     <g id="line2d_6">
      <g>
       <use style="stroke:#000000;stroke-width:0.8;" x="282.066685" xlink:href="#mc39df04d22" y="525.24"/>
      </g>
     </g>
     <g id="text_6">
      <!-- 10 -->
      <defs>
       <path d="M 12.40625 8.296875 
L 28.515625 8.296875 
L 28.515625 63.921875 
L 10.984375 60.40625 
L 10.984375 69.390625 
L 28.421875 72.90625 
L 38.28125 72.90625 
L 38.28125 8.296875 
L 54.390625 8.296875 
L 54.390625 0 
L 12.40625 0 
z
" id="DejaVuSans-49"/>
       <path d="M 31.78125 66.40625 
Q 24.171875 66.40625 20.328125 58.90625 
Q 16.5 51.421875 16.5 36.375 
Q 16.5 21.390625 20.328125 13.890625 
Q 24.171875 6.390625 31.78125 6.390625 
Q 39.453125 6.390625 43.28125 13.890625 
Q 47.125 21.390625 47.125 36.375 
Q 47.125 51.421875 43.28125 58.90625 
Q 39.453125 66.40625 31.78125 66.40625 
z
M 31.78125 74.21875 
Q 44.046875 74.21875 50.515625 64.515625 
Q 56.984375 54.828125 56.984375 36.375 
Q 56.984375 17.96875 50.515625 8.265625 
Q 44.046875 -1.421875 31.78125 -1.421875 
Q 19.53125 -1.421875 13.0625 8.265625 
Q 6.59375 17.96875 6.59375 36.375 
Q 6.59375 54.828125 13.0625 64.515625 
Q 19.53125 74.21875 31.78125 74.21875 
z
" id="DejaVuSans-48"/>
      </defs>
      <g transform="translate(273.159185 542.877813)scale(0.14 -0.14)">
       <use xlink:href="#DejaVuSans-49"/>
       <use x="63.623047" xlink:href="#DejaVuSans-48"/>
      </g>
     </g>
    </g>
    <g id="xtick_5">
     <g id="line2d_7">
      <g>
       <use style="stroke:#000000;stroke-width:0.8;" x="362.604329" xlink:href="#mc39df04d22" y="525.24"/>
      </g>
     </g>
     <g id="text_7">
      <!-- 12 -->
      <defs>
       <path d="M 19.1875 8.296875 
L 53.609375 8.296875 
L 53.609375 0 
L 7.328125 0 
L 7.328125 8.296875 
Q 12.9375 14.109375 22.625 23.890625 
Q 32.328125 33.6875 34.8125 36.53125 
Q 39.546875 41.84375 41.421875 45.53125 
Q 43.3125 49.21875 43.3125 52.78125 
Q 43.3125 58.59375 39.234375 62.25 
Q 35.15625 65.921875 28.609375 65.921875 
Q 23.96875 65.921875 18.8125 64.3125 
Q 13.671875 62.703125 7.8125 59.421875 
L 7.8125 69.390625 
Q 13.765625 71.78125 18.9375 73 
Q 24.125 74.21875 28.421875 74.21875 
Q 39.75 74.21875 46.484375 68.546875 
Q 53.21875 62.890625 53.21875 53.421875 
Q 53.21875 48.921875 51.53125 44.890625 
Q 49.859375 40.875 45.40625 35.40625 
Q 44.1875 33.984375 37.640625 27.21875 
Q 31.109375 20.453125 19.1875 8.296875 
z
" id="DejaVuSans-50"/>
      </defs>
      <g transform="translate(353.696829 542.877813)scale(0.14 -0.14)">
       <use xlink:href="#DejaVuSans-49"/>
       <use x="63.623047" xlink:href="#DejaVuSans-50"/>
      </g>
     </g>
    </g>
    <g id="xtick_6">
     <g id="line2d_8">
      <g>
       <use style="stroke:#000000;stroke-width:0.8;" x="443.141974" xlink:href="#mc39df04d22" y="525.24"/>
      </g>
     </g>
     <g id="text_8">
      <!-- 14 -->
      <g transform="translate(434.234474 542.877813)scale(0.14 -0.14)">
       <use xlink:href="#DejaVuSans-49"/>
       <use x="63.623047" xlink:href="#DejaVuSans-52"/>
      </g>
     </g>
    </g>
    <g id="xtick_7">
     <g id="line2d_9">
      <g>
       <use style="stroke:#000000;stroke-width:0.8;" x="523.679619" xlink:href="#mc39df04d22" y="525.24"/>
      </g>
     </g>
     <g id="text_9">
      <!-- 16 -->
      <g transform="translate(514.772119 542.877813)scale(0.14 -0.14)">
       <use xlink:href="#DejaVuSans-49"/>
       <use x="63.623047" xlink:href="#DejaVuSans-54"/>
      </g>
     </g>
    </g>
   </g>
   <g id="line2d_10">
    <path clip-path="url(#p9a65b54805)" d="M 288.328486 525.24 
L 288.328486 402.93 
" style="fill:none;stroke:#ff6384;stroke-dasharray:5.55,2.4;stroke-dashoffset:0;stroke-opacity:0.8;stroke-width:1.5;"/>
   </g>
   <g id="line2d_11">
    <path clip-path="url(#p9a65b54805)" d="M 293.724509 525.24 
L 293.724509 402.93 
" style="fill:none;stroke:#36a2eb;stroke-dasharray:5.55,2.4;stroke-dashoffset:0;stroke-opacity:0.8;stroke-width:1.5;"/>
   </g>
   <g id="patch_10">
    <path d="M 37.228486 525.24 
L 539.428486 525.24 
" style="fill:none;stroke:#000000;stroke-linecap:square;stroke-linejoin:miter;stroke-width:0.8;"/>
   </g>
  </g>
 </g>
 <defs>
  <clipPath id="pb8dec53ade">
   <rect height="366.93" width="502.2" x="37.228486" y="36"/>
  </clipPath>
  <clipPath id="p9a65b54805">
   <rect height="122.31" width="502.2" x="37.228486" y="402.93"/>
  </clipPath>
 </defs>
</svg>
