<?xml version="1.0" encoding="utf-8" standalone="no"?>
<!DOCTYPE svg PUBLIC "-//W3C//DTD SVG 1.1//EN"
  "http://www.w3.org/Graphics/SVG/1.1/DTD/svg11.dtd">
<!-- Created with matplotlib (https://matplotlib.org/) -->
<svg height="581.789375pt" version="1.1" viewBox="0 0 574.2 581.789375" width="574.2pt" xmlns="http://www.w3.org/2000/svg" xmlns:xlink="http://www.w3.org/1999/xlink">
 <defs>
  <style type="text/css">
*{stroke-linecap:butt;stroke-linejoin:round;}
  </style>
 </defs>
 <g id="figure_1">
  <g id="patch_1">
   <path d="M 0 581.789375 
L 574.2 581.789375 
L 574.2 0 
L 0 0 
z
" style="fill:none;"/>
  </g>
  <g id="axes_1">
   <g id="patch_2">
    <path d="M 36 402.93 
L 538.2 402.93 
L 538.2 36 
L 36 36 
z
" style="fill:none;"/>
   </g>
   <g id="PolyCollection_1">
    <defs>
     <path d="M 62.176331 -195.538011 
L 62.176331 -195.650004 
L 65.435676 -195.692234 
L 68.69502 -195.749007 
L 71.954365 -195.8248 
L 75.21371 -195.925281 
L 78.473055 -196.057565 
L 81.7324 -196.230497 
L 84.991744 -196.454982 
L 88.251089 -196.744335 
L 91.510434 -197.114666 
L 94.769779 -197.585273 
L 98.029124 -198.179047 
L 101.288468 -198.922859 
L 104.547813 -199.847921 
L 107.807158 -200.990079 
L 111.066503 -202.390029 
L 114.325848 -204.093399 
L 117.585192 -206.150691 
L 120.844537 -208.617009 
L 124.103882 -211.551575 
L 127.363227 -215.016962 
L 130.622571 -219.078053 
L 133.881916 -223.800667 
L 137.141261 -229.249878 
L 140.400606 -235.488004 
L 143.659951 -242.572312 
L 146.919295 -250.552459 
L 150.17864 -259.467747 
L 153.437985 -269.344261 
L 156.69733 -280.192004 
L 159.956675 -292.002137 
L 163.216019 -304.744465 
L 166.475364 -318.365297 
L 169.734709 -332.785841 
L 172.994054 -347.901251 
L 176.253399 -363.580456 
L 179.512743 -379.666871 
L 182.772088 -395.980052 
L 186.031433 -412.31833 
L 189.290778 -428.4624 
L 192.550123 -444.179822 
L 195.809467 -459.230303 
L 199.068812 -473.371627 
L 202.328157 -486.366018 
L 205.587502 -497.986726 
L 208.846847 -508.02457 
L 212.106191 -516.294181 
L 215.365536 -522.639693 
L 218.624881 -526.939623 
L 221.884226 -529.110739 
L 225.143571 -529.110739 
L 228.402915 -526.939623 
L 231.66226 -522.639693 
L 234.921605 -516.294181 
L 238.18095 -508.02457 
L 241.440295 -497.986726 
L 244.699639 -486.366018 
L 247.958984 -473.371627 
L 251.218329 -459.230303 
L 254.477674 -444.179822 
L 257.737019 -428.4624 
L 260.996363 -412.31833 
L 264.255708 -395.980052 
L 267.515053 -379.666871 
L 270.774398 -363.580456 
L 274.033743 -347.901251 
L 277.293087 -332.785841 
L 280.552432 -318.365297 
L 283.811777 -304.744465 
L 287.071122 -292.002137 
L 290.330467 -280.192004 
L 293.589811 -269.344261 
L 296.849156 -259.467747 
L 300.108501 -250.552459 
L 303.367846 -242.572312 
L 306.627191 -235.488004 
L 309.886535 -229.249878 
L 313.14588 -223.800667 
L 316.405225 -219.078053 
L 319.66457 -215.016962 
L 322.923915 -211.551575 
L 326.183259 -208.617009 
L 329.442604 -206.150691 
L 332.701949 -204.093399 
L 335.961294 -202.390029 
L 339.220639 -200.990079 
L 342.479983 -199.847921 
L 345.739328 -198.922859 
L 348.998673 -198.179047 
L 352.258018 -197.585273 
L 355.517363 -197.114666 
L 358.776707 -196.744335 
L 362.036052 -196.454982 
L 365.295397 -196.230497 
L 368.554742 -196.057565 
L 371.814086 -195.925281 
L 375.073431 -195.8248 
L 378.332776 -195.749007 
L 381.592121 -195.692234 
L 384.851466 -195.650004 
L 384.851466 -195.538011 
L 384.851466 -195.538011 
L 381.592121 -195.538011 
L 378.332776 -195.538011 
L 375.073431 -195.538011 
L 371.814086 -195.538011 
L 368.554742 -195.538011 
L 365.295397 -195.538011 
L 362.036052 -195.538011 
L 358.776707 -195.538011 
L 355.517363 -195.538011 
L 352.258018 -195.538011 
L 348.998673 -195.538011 
L 345.739328 -195.538011 
L 342.479983 -195.538011 
L 339.220639 -195.538011 
L 335.961294 -195.538011 
L 332.701949 -195.538011 
L 329.442604 -195.538011 
L 326.183259 -195.538011 
L 322.923915 -195.538011 
L 319.66457 -195.538011 
L 316.405225 -195.538011 
L 313.14588 -195.538011 
L 309.886535 -195.538011 
L 306.627191 -195.538011 
L 303.367846 -195.538011 
L 300.108501 -195.538011 
L 296.849156 -195.538011 
L 293.589811 -195.538011 
L 290.330467 -195.538011 
L 287.071122 -195.538011 
L 283.811777 -195.538011 
L 280.552432 -195.538011 
L 277.293087 -195.538011 
L 274.033743 -195.538011 
L 270.774398 -195.538011 
L 267.515053 -195.538011 
L 264.255708 -195.538011 
L 260.996363 -195.538011 
L 257.737019 -195.538011 
L 254.477674 -195.538011 
L 251.218329 -195.538011 
L 247.958984 -195.538011 
L 244.699639 -195.538011 
L 241.440295 -195.538011 
L 238.18095 -195.538011 
L 234.921605 -195.538011 
L 231.66226 -195.538011 
L 228.402915 -195.538011 
L 225.143571 -195.538011 
L 221.884226 -195.538011 
L 218.624881 -195.538011 
L 215.365536 -195.538011 
L 212.106191 -195.538011 
L 208.846847 -195.538011 
L 205.587502 -195.538011 
L 202.328157 -195.538011 
L 199.068812 -195.538011 
L 195.809467 -195.538011 
L 192.550123 -195.538011 
L 189.290778 -195.538011 
L 186.031433 -195.538011 
L 182.772088 -195.538011 
L 179.512743 -195.538011 
L 176.253399 -195.538011 
L 172.994054 -195.538011 
L 169.734709 -195.538011 
L 166.475364 -195.538011 
L 163.216019 -195.538011 
L 159.956675 -195.538011 
L 156.69733 -195.538011 
L 153.437985 -195.538011 
L 150.17864 -195.538011 
L 146.919295 -195.538011 
L 143.659951 -195.538011 
L 140.400606 -195.538011 
L 137.141261 -195.538011 
L 133.881916 -195.538011 
L 130.622571 -195.538011 
L 127.363227 -195.538011 
L 124.103882 -195.538011 
L 120.844537 -195.538011 
L 117.585192 -195.538011 
L 114.325848 -195.538011 
L 111.066503 -195.538011 
L 107.807158 -195.538011 
L 104.547813 -195.538011 
L 101.288468 -195.538011 
L 98.029124 -195.538011 
L 94.769779 -195.538011 
L 91.510434 -195.538011 
L 88.251089 -195.538011 
L 84.991744 -195.538011 
L 81.7324 -195.538011 
L 78.473055 -195.538011 
L 75.21371 -195.538011 
L 71.954365 -195.538011 
L 68.69502 -195.538011 
L 65.435676 -195.538011 
L 62.176331 -195.538011 
z
" id="mae1fd760da" style="stroke:#ff6384;stroke-opacity:0.5;"/>
    </defs>
    <g clip-path="url(#p93947e69c6)">
     <use style="fill:#ff6384;fill-opacity:0.5;stroke:#ff6384;stroke-opacity:0.5;" x="0" xlink:href="#mae1fd760da" y="581.789375"/>
    </g>
   </g>
   <g id="PolyCollection_2">
    <defs>
     <path d="M 58.827273 -195.538011 
L 58.827273 -195.617165 
L 63.438843 -195.647012 
L 68.050413 -195.687138 
L 72.661983 -195.740706 
L 77.273554 -195.811724 
L 81.885124 -195.905219 
L 86.496694 -196.027443 
L 91.108264 -196.186103 
L 95.719835 -196.390611 
L 100.331405 -196.652352 
L 104.942975 -196.984966 
L 109.554545 -197.40463 
L 114.166116 -197.930339 
L 118.777686 -198.58415 
L 123.389256 -199.391399 
L 128.000826 -200.380849 
L 132.612397 -201.58475 
L 137.223967 -203.038793 
L 141.835537 -204.781927 
L 146.447107 -206.856005 
L 151.058678 -209.305256 
L 155.670248 -212.175536 
L 160.281818 -215.513364 
L 164.893388 -219.364732 
L 169.504959 -223.773687 
L 174.116529 -228.780702 
L 178.728099 -234.420874 
L 183.339669 -240.721981 
L 187.95124 -247.702459 
L 192.56281 -255.369378 
L 197.17438 -263.716491 
L 201.78595 -272.722456 
L 206.397521 -282.349326 
L 211.009091 -292.541413 
L 215.620661 -303.224614 
L 220.232231 -314.306291 
L 224.843802 -325.675775 
L 229.455372 -337.205532 
L 234.066942 -348.753026 
L 238.678512 -360.163259 
L 243.290083 -371.271947 
L 247.901653 -381.909259 
L 252.513223 -391.904 
L 257.124793 -401.088117 
L 261.736364 -409.301348 
L 266.347934 -416.39585 
L 270.959504 -422.240609 
L 275.571074 -426.725461 
L 280.182645 -429.764546 
L 284.794215 -431.299037 
L 289.405785 -431.299037 
L 294.017355 -429.764546 
L 298.628926 -426.725461 
L 303.240496 -422.240609 
L 307.852066 -416.39585 
L 312.463636 -409.301348 
L 317.075207 -401.088117 
L 321.686777 -391.904 
L 326.298347 -381.909259 
L 330.909917 -371.271947 
L 335.521488 -360.163259 
L 340.133058 -348.753026 
L 344.744628 -337.205532 
L 349.356198 -325.675775 
L 353.967769 -314.306291 
L 358.579339 -303.224614 
L 363.190909 -292.541413 
L 367.802479 -282.349326 
L 372.41405 -272.722456 
L 377.02562 -263.716491 
L 381.63719 -255.369378 
L 386.24876 -247.702459 
L 390.860331 -240.721981 
L 395.471901 -234.420874 
L 400.083471 -228.780702 
L 404.695041 -223.773687 
L 409.306612 -219.364732 
L 413.918182 -215.513364 
L 418.529752 -212.175536 
L 423.141322 -209.305256 
L 427.752893 -206.856005 
L 432.364463 -204.781927 
L 436.976033 -203.038793 
L 441.587603 -201.58475 
L 446.199174 -200.380849 
L 450.810744 -199.391399 
L 455.422314 -198.58415 
L 460.033884 -197.930339 
L 464.645455 -197.40463 
L 469.257025 -196.984966 
L 473.868595 -196.652352 
L 478.480165 -196.390611 
L 483.091736 -196.186103 
L 487.703306 -196.027443 
L 492.314876 -195.905219 
L 496.926446 -195.811724 
L 501.538017 -195.740706 
L 506.149587 -195.687138 
L 510.761157 -195.647012 
L 515.372727 -195.617165 
L 515.372727 -195.538011 
L 515.372727 -195.538011 
L 510.761157 -195.538011 
L 506.149587 -195.538011 
L 501.538017 -195.538011 
L 496.926446 -195.538011 
L 492.314876 -195.538011 
L 487.703306 -195.538011 
L 483.091736 -195.538011 
L 478.480165 -195.538011 
L 473.868595 -195.538011 
L 469.257025 -195.538011 
L 464.645455 -195.538011 
L 460.033884 -195.538011 
L 455.422314 -195.538011 
L 450.810744 -195.538011 
L 446.199174 -195.538011 
L 441.587603 -195.538011 
L 436.976033 -195.538011 
L 432.364463 -195.538011 
L 427.752893 -195.538011 
L 423.141322 -195.538011 
L 418.529752 -195.538011 
L 413.918182 -195.538011 
L 409.306612 -195.538011 
L 404.695041 -195.538011 
L 400.083471 -195.538011 
L 395.471901 -195.538011 
L 390.860331 -195.538011 
L 386.24876 -195.538011 
L 381.63719 -195.538011 
L 377.02562 -195.538011 
L 372.41405 -195.538011 
L 367.802479 -195.538011 
L 363.190909 -195.538011 
L 358.579339 -195.538011 
L 353.967769 -195.538011 
L 349.356198 -195.538011 
L 344.744628 -195.538011 
L 340.133058 -195.538011 
L 335.521488 -195.538011 
L 330.909917 -195.538011 
L 326.298347 -195.538011 
L 321.686777 -195.538011 
L 317.075207 -195.538011 
L 312.463636 -195.538011 
L 307.852066 -195.538011 
L 303.240496 -195.538011 
L 298.628926 -195.538011 
L 294.017355 -195.538011 
L 289.405785 -195.538011 
L 284.794215 -195.538011 
L 280.182645 -195.538011 
L 275.571074 -195.538011 
L 270.959504 -195.538011 
L 266.347934 -195.538011 
L 261.736364 -195.538011 
L 257.124793 -195.538011 
L 252.513223 -195.538011 
L 247.901653 -195.538011 
L 243.290083 -195.538011 
L 238.678512 -195.538011 
L 234.066942 -195.538011 
L 229.455372 -195.538011 
L 224.843802 -195.538011 
L 220.232231 -195.538011 
L 215.620661 -195.538011 
L 211.009091 -195.538011 
L 206.397521 -195.538011 
L 201.78595 -195.538011 
L 197.17438 -195.538011 
L 192.56281 -195.538011 
L 187.95124 -195.538011 
L 183.339669 -195.538011 
L 178.728099 -195.538011 
L 174.116529 -195.538011 
L 169.504959 -195.538011 
L 164.893388 -195.538011 
L 160.281818 -195.538011 
L 155.670248 -195.538011 
L 151.058678 -195.538011 
L 146.447107 -195.538011 
L 141.835537 -195.538011 
L 137.223967 -195.538011 
L 132.612397 -195.538011 
L 128.000826 -195.538011 
L 123.389256 -195.538011 
L 118.777686 -195.538011 
L 114.166116 -195.538011 
L 109.554545 -195.538011 
L 104.942975 -195.538011 
L 100.331405 -195.538011 
L 95.719835 -195.538011 
L 91.108264 -195.538011 
L 86.496694 -195.538011 
L 81.885124 -195.538011 
L 77.273554 -195.538011 
L 72.661983 -195.538011 
L 68.050413 -195.538011 
L 63.438843 -195.538011 
L 58.827273 -195.538011 
z
" id="m5e416f5cfe" style="stroke:#36a2eb;stroke-opacity:0.5;"/>
    </defs>
    <g clip-path="url(#p93947e69c6)">
     <use style="fill:#36a2eb;fill-opacity:0.5;stroke:#36a2eb;stroke-opacity:0.5;" x="0" xlink:href="#m5e416f5cfe" y="581.789375"/>
    </g>
   </g>
   <g id="line2d_1">
    <path clip-path="url(#p93947e69c6)" d="M 62.176331 386.139371 
L 65.435676 386.097141 
L 68.69502 386.040368 
L 71.954365 385.964575 
L 75.21371 385.864094 
L 78.473055 385.73181 
L 81.7324 385.558878 
L 84.991744 385.334393 
L 88.251089 385.04504 
L 91.510434 384.674709 
L 94.769779 384.204102 
L 98.029124 383.610328 
L 101.288468 382.866516 
L 104.547813 381.941454 
L 107.807158 380.799296 
L 111.066503 379.399346 
L 114.325848 377.695976 
L 117.585192 375.638684 
L 120.844537 373.172366 
L 124.103882 370.2378 
L 127.363227 366.772413 
L 130.622571 362.711322 
L 133.881916 357.988708 
L 137.141261 352.539497 
L 140.400606 346.301371 
L 143.659951 339.217063 
L 146.919295 331.236916 
L 150.17864 322.321628 
L 153.437985 312.445114 
L 156.69733 301.597371 
L 159.956675 289.787238 
L 163.216019 277.04491 
L 166.475364 263.424078 
L 169.734709 249.003534 
L 172.994054 233.888124 
L 176.253399 218.208919 
L 179.512743 202.122504 
L 182.772088 185.809323 
L 186.031433 169.471045 
L 189.290778 153.326975 
L 192.550123 137.609553 
L 195.809467 122.559072 
L 199.068812 108.417748 
L 202.328157 95.423357 
L 205.587502 83.802649 
L 208.846847 73.764805 
L 212.106191 65.495194 
L 215.365536 59.149682 
L 218.624881 54.849752 
L 221.884226 52.678636 
L 225.143571 52.678636 
L 228.402915 54.849752 
L 231.66226 59.149682 
L 234.921605 65.495194 
L 238.18095 73.764805 
L 241.440295 83.802649 
L 244.699639 95.423357 
L 247.958984 108.417748 
L 251.218329 122.559072 
L 254.477674 137.609553 
L 257.737019 153.326975 
L 260.996363 169.471045 
L 264.255708 185.809323 
L 267.515053 202.122504 
L 270.774398 218.208919 
L 274.033743 233.888124 
L 277.293087 249.003534 
L 280.552432 263.424078 
L 283.811777 277.04491 
L 287.071122 289.787238 
L 290.330467 301.597371 
L 293.589811 312.445114 
L 296.849156 322.321628 
L 300.108501 331.236916 
L 303.367846 339.217063 
L 306.627191 346.301371 
L 309.886535 352.539497 
L 313.14588 357.988708 
L 316.405225 362.711322 
L 319.66457 366.772413 
L 322.923915 370.2378 
L 326.183259 373.172366 
L 329.442604 375.638684 
L 332.701949 377.695976 
L 335.961294 379.399346 
L 339.220639 380.799296 
L 342.479983 381.941454 
L 345.739328 382.866516 
L 348.998673 383.610328 
L 352.258018 384.204102 
L 355.517363 384.674709 
L 358.776707 385.04504 
L 362.036052 385.334393 
L 365.295397 385.558878 
L 368.554742 385.73181 
L 371.814086 385.864094 
L 375.073431 385.964575 
L 378.332776 386.040368 
L 381.592121 386.097141 
L 384.851466 386.139371 
" style="fill:none;stroke:#ff6384;stroke-linecap:square;"/>
   </g>
   <g id="line2d_2">
    <path clip-path="url(#p93947e69c6)" d="M 58.827273 386.17221 
L 63.438843 386.142363 
L 68.050413 386.102237 
L 72.661983 386.048669 
L 77.273554 385.977651 
L 81.885124 385.884156 
L 86.496694 385.761932 
L 91.108264 385.603272 
L 95.719835 385.398764 
L 100.331405 385.137023 
L 104.942975 384.804409 
L 109.554545 384.384745 
L 114.166116 383.859036 
L 118.777686 383.205225 
L 123.389256 382.397976 
L 128.000826 381.408526 
L 132.612397 380.204625 
L 137.223967 378.750582 
L 141.835537 377.007448 
L 146.447107 374.93337 
L 151.058678 372.484119 
L 155.670248 369.613839 
L 160.281818 366.276011 
L 164.893388 362.424643 
L 169.504959 358.015688 
L 174.116529 353.008673 
L 178.728099 347.368501 
L 183.339669 341.067394 
L 187.95124 334.086916 
L 192.56281 326.419997 
L 197.17438 318.072884 
L 201.78595 309.066919 
L 206.397521 299.440049 
L 211.009091 289.247962 
L 215.620661 278.564761 
L 220.232231 267.483084 
L 224.843802 256.1136 
L 229.455372 244.583843 
L 234.066942 233.036349 
L 238.678512 221.626116 
L 243.290083 210.517428 
L 247.901653 199.880116 
L 252.513223 189.885375 
L 257.124793 180.701258 
L 261.736364 172.488027 
L 266.347934 165.393525 
L 270.959504 159.548766 
L 275.571074 155.063914 
L 280.182645 152.024829 
L 284.794215 150.490338 
L 289.405785 150.490338 
L 294.017355 152.024829 
L 298.628926 155.063914 
L 303.240496 159.548766 
L 307.852066 165.393525 
L 312.463636 172.488027 
L 317.075207 180.701258 
L 321.686777 189.885375 
L 326.298347 199.880116 
L 330.909917 210.517428 
L 335.521488 221.626116 
L 340.133058 233.036349 
L 344.744628 244.583843 
L 349.356198 256.1136 
L 353.967769 267.483084 
L 358.579339 278.564761 
L 363.190909 289.247962 
L 367.802479 299.440049 
L 372.41405 309.066919 
L 377.02562 318.072884 
L 381.63719 326.419997 
L 386.24876 334.086916 
L 390.860331 341.067394 
L 395.471901 347.368501 
L 400.083471 353.008673 
L 404.695041 358.015688 
L 409.306612 362.424643 
L 413.918182 366.276011 
L 418.529752 369.613839 
L 423.141322 372.484119 
L 427.752893 374.93337 
L 432.364463 377.007448 
L 436.976033 378.750582 
L 441.587603 380.204625 
L 446.199174 381.408526 
L 450.810744 382.397976 
L 455.422314 383.205225 
L 460.033884 383.859036 
L 464.645455 384.384745 
L 469.257025 384.804409 
L 473.868595 385.137023 
L 478.480165 385.398764 
L 483.091736 385.603272 
L 487.703306 385.761932 
L 492.314876 385.884156 
L 496.926446 385.977651 
L 501.538017 386.048669 
L 506.149587 386.102237 
L 510.761157 386.142363 
L 515.372727 386.17221 
" style="fill:none;stroke:#36a2eb;stroke-linecap:square;"/>
   </g>
   <g id="patch_3">
    <path d="M 36 402.93 
L 538.2 402.93 
" style="fill:none;stroke:#000000;stroke-linecap:square;stroke-linejoin:miter;stroke-width:0.8;"/>
   </g>
   <g id="legend_1">
    <g id="patch_4">
     <path d="M 450.225313 88.29875 
L 528.4 88.29875 
Q 531.2 88.29875 531.2 85.49875 
L 531.2 45.8 
Q 531.2 43 528.4 43 
L 450.225313 43 
Q 447.425313 43 447.425313 45.8 
L 447.425313 85.49875 
Q 447.425313 88.29875 450.225313 88.29875 
z
" style="fill:#ffffff;opacity:0.8;stroke:#cccccc;stroke-linejoin:miter;"/>
    </g>
    <g id="patch_5">
     <path d="M 453.025313 59.237813 
L 481.025313 59.237813 
L 481.025313 49.437813 
L 453.025313 49.437813 
z
" style="fill:#ff6384;opacity:0.5;stroke:#ff6384;stroke-linejoin:miter;"/>
    </g>
    <g id="text_1">
     <!-- base -->
     <defs>
      <path d="M 48.6875 27.296875 
Q 48.6875 37.203125 44.609375 42.84375 
Q 40.53125 48.484375 33.40625 48.484375 
Q 26.265625 48.484375 22.1875 42.84375 
Q 18.109375 37.203125 18.109375 27.296875 
Q 18.109375 17.390625 22.1875 11.75 
Q 26.265625 6.109375 33.40625 6.109375 
Q 40.53125 6.109375 44.609375 11.75 
Q 48.6875 17.390625 48.6875 27.296875 
z
M 18.109375 46.390625 
Q 20.953125 51.265625 25.265625 53.625 
Q 29.59375 56 35.59375 56 
Q 45.5625 56 51.78125 48.09375 
Q 58.015625 40.1875 58.015625 27.296875 
Q 58.015625 14.40625 51.78125 6.484375 
Q 45.5625 -1.421875 35.59375 -1.421875 
Q 29.59375 -1.421875 25.265625 0.953125 
Q 20.953125 3.328125 18.109375 8.203125 
L 18.109375 0 
L 9.078125 0 
L 9.078125 75.984375 
L 18.109375 75.984375 
z
" id="DejaVuSans-98"/>
      <path d="M 34.28125 27.484375 
Q 23.390625 27.484375 19.1875 25 
Q 14.984375 22.515625 14.984375 16.5 
Q 14.984375 11.71875 18.140625 8.90625 
Q 21.296875 6.109375 26.703125 6.109375 
Q 34.1875 6.109375 38.703125 11.40625 
Q 43.21875 16.703125 43.21875 25.484375 
L 43.21875 27.484375 
z
M 52.203125 31.203125 
L 52.203125 0 
L 43.21875 0 
L 43.21875 8.296875 
Q 40.140625 3.328125 35.546875 0.953125 
Q 30.953125 -1.421875 24.3125 -1.421875 
Q 15.921875 -1.421875 10.953125 3.296875 
Q 6 8.015625 6 15.921875 
Q 6 25.140625 12.171875 29.828125 
Q 18.359375 34.515625 30.609375 34.515625 
L 43.21875 34.515625 
L 43.21875 35.40625 
Q 43.21875 41.609375 39.140625 45 
Q 35.0625 48.390625 27.6875 48.390625 
Q 23 48.390625 18.546875 47.265625 
Q 14.109375 46.140625 10.015625 43.890625 
L 10.015625 52.203125 
Q 14.9375 54.109375 19.578125 55.046875 
Q 24.21875 56 28.609375 56 
Q 40.484375 56 46.34375 49.84375 
Q 52.203125 43.703125 52.203125 31.203125 
z
" id="DejaVuSans-97"/>
      <path d="M 44.28125 53.078125 
L 44.28125 44.578125 
Q 40.484375 46.53125 36.375 47.5 
Q 32.28125 48.484375 27.875 48.484375 
Q 21.1875 48.484375 17.84375 46.4375 
Q 14.5 44.390625 14.5 40.28125 
Q 14.5 37.15625 16.890625 35.375 
Q 19.28125 33.59375 26.515625 31.984375 
L 29.59375 31.296875 
Q 39.15625 29.25 43.1875 25.515625 
Q 47.21875 21.78125 47.21875 15.09375 
Q 47.21875 7.46875 41.1875 3.015625 
Q 35.15625 -1.421875 24.609375 -1.421875 
Q 20.21875 -1.421875 15.453125 -0.5625 
Q 10.6875 0.296875 5.421875 2 
L 5.421875 11.28125 
Q 10.40625 8.6875 15.234375 7.390625 
Q 20.0625 6.109375 24.8125 6.109375 
Q 31.15625 6.109375 34.5625 8.28125 
Q 37.984375 10.453125 37.984375 14.40625 
Q 37.984375 18.0625 35.515625 20.015625 
Q 33.0625 21.96875 24.703125 23.78125 
L 21.578125 24.515625 
Q 13.234375 26.265625 9.515625 29.90625 
Q 5.8125 33.546875 5.8125 39.890625 
Q 5.8125 47.609375 11.28125 51.796875 
Q 16.75 56 26.8125 56 
Q 31.78125 56 36.171875 55.265625 
Q 40.578125 54.546875 44.28125 53.078125 
z
" id="DejaVuSans-115"/>
      <path d="M 56.203125 29.59375 
L 56.203125 25.203125 
L 14.890625 25.203125 
Q 15.484375 15.921875 20.484375 11.0625 
Q 25.484375 6.203125 34.421875 6.203125 
Q 39.59375 6.203125 44.453125 7.46875 
Q 49.3125 8.734375 54.109375 11.28125 
L 54.109375 2.78125 
Q 49.265625 0.734375 44.1875 -0.34375 
Q 39.109375 -1.421875 33.890625 -1.421875 
Q 20.796875 -1.421875 13.15625 6.1875 
Q 5.515625 13.8125 5.515625 26.8125 
Q 5.515625 40.234375 12.765625 48.109375 
Q 20.015625 56 32.328125 56 
Q 43.359375 56 49.78125 48.890625 
Q 56.203125 41.796875 56.203125 29.59375 
z
M 47.21875 32.234375 
Q 47.125 39.59375 43.09375 43.984375 
Q 39.0625 48.390625 32.421875 48.390625 
Q 24.90625 48.390625 20.390625 44.140625 
Q 15.875 39.890625 15.1875 32.171875 
z
" id="DejaVuSans-101"/>
     </defs>
     <g transform="translate(492.225313 59.237813)scale(0.14 -0.14)">
      <use xlink:href="#DejaVuSans-98"/>
      <use x="63.476562" xlink:href="#DejaVuSans-97"/>
      <use x="124.755859" xlink:href="#DejaVuSans-115"/>
      <use x="176.855469" xlink:href="#DejaVuSans-101"/>
     </g>
    </g>
    <g id="patch_6">
     <path d="M 453.025313 79.787188 
L 481.025313 79.787188 
L 481.025313 69.987188 
L 453.025313 69.987188 
z
" style="fill:#36a2eb;opacity:0.5;stroke:#36a2eb;stroke-linejoin:miter;"/>
    </g>
    <g id="text_2">
     <!-- subs -->
     <defs>
      <path d="M 8.5 21.578125 
L 8.5 54.6875 
L 17.484375 54.6875 
L 17.484375 21.921875 
Q 17.484375 14.15625 20.5 10.265625 
Q 23.53125 6.390625 29.59375 6.390625 
Q 36.859375 6.390625 41.078125 11.03125 
Q 45.3125 15.671875 45.3125 23.6875 
L 45.3125 54.6875 
L 54.296875 54.6875 
L 54.296875 0 
L 45.3125 0 
L 45.3125 8.40625 
Q 42.046875 3.421875 37.71875 1 
Q 33.40625 -1.421875 27.6875 -1.421875 
Q 18.265625 -1.421875 13.375 4.4375 
Q 8.5 10.296875 8.5 21.578125 
z
M 31.109375 56 
z
" id="DejaVuSans-117"/>
     </defs>
     <g transform="translate(492.225313 79.787188)scale(0.14 -0.14)">
      <use xlink:href="#DejaVuSans-115"/>
      <use x="52.099609" xlink:href="#DejaVuSans-117"/>
      <use x="115.478516" xlink:href="#DejaVuSans-98"/>
      <use x="178.955078" xlink:href="#DejaVuSans-115"/>
     </g>
    </g>
   </g>
  </g>
  <g id="axes_2">
   <g id="patch_7">
    <path d="M 36 525.24 
L 538.2 525.24 
L 538.2 402.93 
L 36 402.93 
z
" style="fill:none;"/>
   </g>
   <g id="patch_8">
    <path clip-path="url(#pa9109eac35)" d="M 144.45849 519.680455 
L 302.569306 519.680455 
L 302.569306 482.616818 
L 144.45849 482.616818 
z
" style="fill:#ff6384;opacity:0.5;"/>
   </g>
   <g id="patch_9">
    <path clip-path="url(#pa9109eac35)" d="M 175.246364 445.553182 
L 398.953636 445.553182 
L 398.953636 408.489545 
L 175.246364 408.489545 
z
" style="fill:#36a2eb;opacity:0.5;"/>
   </g>
   <g id="matplotlib.axis_1">
    <g id="xtick_1">
     <g id="line2d_3">
      <defs>
       <path d="M 0 0 
L 0 3.5 
" id="m32c2774a74" style="stroke:#000000;stroke-width:0.8;"/>
      </defs>
      <g>
       <use style="stroke:#000000;stroke-width:0.8;" x="56.483283" xlink:href="#m32c2774a74" y="525.24"/>
      </g>
     </g>
     <g id="text_3">
      <!-- 0.0 -->
      <defs>
       <path d="M 31.78125 66.40625 
Q 24.171875 66.40625 20.328125 58.90625 
Q 16.5 51.421875 16.5 36.375 
Q 16.5 21.390625 20.328125 13.890625 
Q 24.171875 6.390625 31.78125 6.390625 
Q 39.453125 6.390625 43.28125 13.890625 
Q 47.125 21.390625 47.125 36.375 
Q 47.125 51.421875 43.28125 58.90625 
Q 39.453125 66.40625 31.78125 66.40625 
z
M 31.78125 74.21875 
Q 44.046875 74.21875 50.515625 64.515625 
Q 56.984375 54.828125 56.984375 36.375 
Q 56.984375 17.96875 50.515625 8.265625 
Q 44.046875 -1.421875 31.78125 -1.421875 
Q 19.53125 -1.421875 13.0625 8.265625 
Q 6.59375 17.96875 6.59375 36.375 
Q 6.59375 54.828125 13.0625 64.515625 
Q 19.53125 74.21875 31.78125 74.21875 
z
" id="DejaVuSans-48"/>
       <path d="M 10.6875 12.40625 
L 21 12.40625 
L 21 0 
L 10.6875 0 
z
" id="DejaVuSans-46"/>
      </defs>
      <g transform="translate(45.351096 542.877813)scale(0.14 -0.14)">
       <use xlink:href="#DejaVuSans-48"/>
       <use x="63.623047" xlink:href="#DejaVuSans-46"/>
       <use x="95.410156" xlink:href="#DejaVuSans-48"/>
      </g>
     </g>
    </g>
    <g id="xtick_2">
     <g id="line2d_4">
      <g>
       <use style="stroke:#000000;stroke-width:0.8;" x="117.630821" xlink:href="#m32c2774a74" y="525.24"/>
      </g>
     </g>
     <g id="text_4">
      <!-- 2.5 -->
      <defs>
       <path d="M 19.1875 8.296875 
L 53.609375 8.296875 
L 53.609375 0 
L 7.328125 0 
L 7.328125 8.296875 
Q 12.9375 14.109375 22.625 23.890625 
Q 32.328125 33.6875 34.8125 36.53125 
Q 39.546875 41.84375 41.421875 45.53125 
Q 43.3125 49.21875 43.3125 52.78125 
Q 43.3125 58.59375 39.234375 62.25 
Q 35.15625 65.921875 28.609375 65.921875 
Q 23.96875 65.921875 18.8125 64.3125 
Q 13.671875 62.703125 7.8125 59.421875 
L 7.8125 69.390625 
Q 13.765625 71.78125 18.9375 73 
Q 24.125 74.21875 28.421875 74.21875 
Q 39.75 74.21875 46.484375 68.546875 
Q 53.21875 62.890625 53.21875 53.421875 
Q 53.21875 48.921875 51.53125 44.890625 
Q 49.859375 40.875 45.40625 35.40625 
Q 44.1875 33.984375 37.640625 27.21875 
Q 31.109375 20.453125 19.1875 8.296875 
z
" id="DejaVuSans-50"/>
       <path d="M 10.796875 72.90625 
L 49.515625 72.90625 
L 49.515625 64.59375 
L 19.828125 64.59375 
L 19.828125 46.734375 
Q 21.96875 47.46875 24.109375 47.828125 
Q 26.265625 48.1875 28.421875 48.1875 
Q 40.625 48.1875 47.75 41.5 
Q 54.890625 34.8125 54.890625 23.390625 
Q 54.890625 11.625 47.5625 5.09375 
Q 40.234375 -1.421875 26.90625 -1.421875 
Q 22.3125 -1.421875 17.546875 -0.640625 
Q 12.796875 0.140625 7.71875 1.703125 
L 7.71875 11.625 
Q 12.109375 9.234375 16.796875 8.0625 
Q 21.484375 6.890625 26.703125 6.890625 
Q 35.15625 6.890625 40.078125 11.328125 
Q 45.015625 15.765625 45.015625 23.390625 
Q 45.015625 31 40.078125 35.4375 
Q 35.15625 39.890625 26.703125 39.890625 
Q 22.75 39.890625 18.8125 39.015625 
Q 14.890625 38.140625 10.796875 36.28125 
z
" id="DejaVuSans-53"/>
      </defs>
      <g transform="translate(106.498634 542.877813)scale(0.14 -0.14)">
       <use xlink:href="#DejaVuSans-50"/>
       <use x="63.623047" xlink:href="#DejaVuSans-46"/>
       <use x="95.410156" xlink:href="#DejaVuSans-53"/>
      </g>
     </g>
    </g>
    <g id="xtick_3">
     <g id="line2d_5">
      <g>
       <use style="stroke:#000000;stroke-width:0.8;" x="178.778359" xlink:href="#m32c2774a74" y="525.24"/>
      </g>
     </g>
     <g id="text_5">
      <!-- 5.0 -->
      <g transform="translate(167.646172 542.877813)scale(0.14 -0.14)">
       <use xlink:href="#DejaVuSans-53"/>
       <use x="63.623047" xlink:href="#DejaVuSans-46"/>
       <use x="95.410156" xlink:href="#DejaVuSans-48"/>
      </g>
     </g>
    </g>
    <g id="xtick_4">
     <g id="line2d_6">
      <g>
       <use style="stroke:#000000;stroke-width:0.8;" x="239.925897" xlink:href="#m32c2774a74" y="525.24"/>
      </g>
     </g>
     <g id="text_6">
      <!-- 7.5 -->
      <defs>
       <path d="M 8.203125 72.90625 
L 55.078125 72.90625 
L 55.078125 68.703125 
L 28.609375 0 
L 18.3125 0 
L 43.21875 64.59375 
L 8.203125 64.59375 
z
" id="DejaVuSans-55"/>
      </defs>
      <g transform="translate(228.79371 542.877813)scale(0.14 -0.14)">
       <use xlink:href="#DejaVuSans-55"/>
       <use x="63.623047" xlink:href="#DejaVuSans-46"/>
       <use x="95.410156" xlink:href="#DejaVuSans-53"/>
      </g>
     </g>
    </g>
    <g id="xtick_5">
     <g id="line2d_7">
      <g>
       <use style="stroke:#000000;stroke-width:0.8;" x="301.073435" xlink:href="#m32c2774a74" y="525.24"/>
      </g>
     </g>
     <g id="text_7">
      <!-- 10.0 -->
      <defs>
       <path d="M 12.40625 8.296875 
L 28.515625 8.296875 
L 28.515625 63.921875 
L 10.984375 60.40625 
L 10.984375 69.390625 
L 28.421875 72.90625 
L 38.28125 72.90625 
L 38.28125 8.296875 
L 54.390625 8.296875 
L 54.390625 0 
L 12.40625 0 
z
" id="DejaVuSans-49"/>
      </defs>
      <g transform="translate(285.487498 542.877813)scale(0.14 -0.14)">
       <use xlink:href="#DejaVuSans-49"/>
       <use x="63.623047" xlink:href="#DejaVuSans-48"/>
       <use x="127.246094" xlink:href="#DejaVuSans-46"/>
       <use x="159.033203" xlink:href="#DejaVuSans-48"/>
      </g>
     </g>
    </g>
    <g id="xtick_6">
     <g id="line2d_8">
      <g>
       <use style="stroke:#000000;stroke-width:0.8;" x="362.220973" xlink:href="#m32c2774a74" y="525.24"/>
      </g>
     </g>
     <g id="text_8">
      <!-- 12.5 -->
      <g transform="translate(346.635036 542.877813)scale(0.14 -0.14)">
       <use xlink:href="#DejaVuSans-49"/>
       <use x="63.623047" xlink:href="#DejaVuSans-50"/>
       <use x="127.246094" xlink:href="#DejaVuSans-46"/>
       <use x="159.033203" xlink:href="#DejaVuSans-53"/>
      </g>
     </g>
    </g>
    <g id="xtick_7">
     <g id="line2d_9">
      <g>
       <use style="stroke:#000000;stroke-width:0.8;" x="423.368511" xlink:href="#m32c2774a74" y="525.24"/>
      </g>
     </g>
     <g id="text_9">
      <!-- 15.0 -->
      <g transform="translate(407.782574 542.877813)scale(0.14 -0.14)">
       <use xlink:href="#DejaVuSans-49"/>
       <use x="63.623047" xlink:href="#DejaVuSans-53"/>
       <use x="127.246094" xlink:href="#DejaVuSans-46"/>
       <use x="159.033203" xlink:href="#DejaVuSans-48"/>
      </g>
     </g>
    </g>
    <g id="xtick_8">
     <g id="line2d_10">
      <g>
       <use style="stroke:#000000;stroke-width:0.8;" x="484.516049" xlink:href="#m32c2774a74" y="525.24"/>
      </g>
     </g>
     <g id="text_10">
      <!-- 17.5 -->
      <g transform="translate(468.930112 542.877813)scale(0.14 -0.14)">
       <use xlink:href="#DejaVuSans-49"/>
       <use x="63.623047" xlink:href="#DejaVuSans-55"/>
       <use x="127.246094" xlink:href="#DejaVuSans-46"/>
       <use x="159.033203" xlink:href="#DejaVuSans-53"/>
      </g>
     </g>
    </g>
   </g>
   <g id="line2d_11">
    <path clip-path="url(#pa9109eac35)" d="M 223.513898 525.24 
L 223.513898 402.93 
" style="fill:none;stroke:#ff6384;stroke-dasharray:5.55,2.4;stroke-dashoffset:0;stroke-opacity:0.8;stroke-width:1.5;"/>
   </g>
   <g id="line2d_12">
    <path clip-path="url(#pa9109eac35)" d="M 287.1 525.24 
L 287.1 402.93 
" style="fill:none;stroke:#36a2eb;stroke-dasharray:5.55,2.4;stroke-dashoffset:0;stroke-opacity:0.8;stroke-width:1.5;"/>
   </g>
   <g id="patch_10">
    <path d="M 36 525.24 
L 538.2 525.24 
" style="fill:none;stroke:#000000;stroke-linecap:square;stroke-linejoin:miter;stroke-width:0.8;"/>
   </g>
  </g>
 </g>
 <defs>
  <clipPath id="p93947e69c6">
   <rect height="366.93" width="502.2" x="36" y="36"/>
  </clipPath>
  <clipPath id="pa9109eac35">
   <rect height="122.31" width="502.2" x="36" y="402.93"/>
  </clipPath>
 </defs>
</svg>
