<?xml version="1.0" encoding="utf-8" standalone="no"?>
<!DOCTYPE svg PUBLIC "-//W3C//DTD SVG 1.1//EN"
  "http://www.w3.org/Graphics/SVG/1.1/DTD/svg11.dtd">
<!-- Created with matplotlib (https://matplotlib.org/) -->
<svg height="591.509375pt" version="1.1" viewBox="0 0 574.2 591.509375" width="574.2pt" xmlns="http://www.w3.org/2000/svg" xmlns:xlink="http://www.w3.org/1999/xlink">
 <defs>
  <style type="text/css">
*{stroke-linecap:butt;stroke-linejoin:round;}
  </style>
 </defs>
 <g id="figure_1">
  <g id="patch_1">
   <path d="M 0 591.509375 
L 574.2 591.509375 
L 574.2 0 
L 0 0 
z
" style="fill:none;"/>
  </g>
  <g id="axes_1">
   <g id="patch_2">
    <path d="M 36 410.22 
L 538.2 410.22 
L 538.2 36 
L 36 36 
z
" style="fill:none;"/>
   </g>
   <g id="PolyCollection_1">
    <defs>
     <path d="M 58.827273 -198.299375 
L 58.827273 -198.380686 
L 63.438843 -198.411347 
L 68.050413 -198.452566 
L 72.661983 -198.507595 
L 77.273554 -198.580548 
L 81.885124 -198.676592 
L 86.496694 -198.802147 
L 91.108264 -198.965132 
L 95.719835 -199.175214 
L 100.331405 -199.444089 
L 104.942975 -199.785769 
L 109.554545 -200.216872 
L 114.166116 -200.75691 
L 118.777686 -201.428541 
L 123.389256 -202.257794 
L 128.000826 -203.274213 
L 132.612397 -204.510928 
L 137.223967 -206.004604 
L 141.835537 -207.79525 
L 146.447107 -209.925861 
L 151.058678 -212.441871 
L 155.670248 -215.390385 
L 160.281818 -218.819192 
L 164.893388 -222.775536 
L 169.504959 -227.304665 
L 174.116529 -232.448155 
L 178.728099 -238.242061 
L 183.339669 -244.714915 
L 187.95124 -251.885659 
L 192.56281 -259.761553 
L 197.17438 -268.336182 
L 201.78595 -277.587621 
L 206.397521 -287.476889 
L 211.009091 -297.946779 
L 215.620661 -308.92117 
L 220.232231 -320.304899 
L 224.843802 -331.984279 
L 229.455372 -343.8283 
L 234.066942 -355.690542 
L 238.678512 -367.411781 
L 243.290083 -378.823257 
L 247.901653 -389.750507 
L 252.513223 -400.017673 
L 257.124793 -409.45212 
L 261.736364 -417.889218 
L 266.347934 -425.177093 
L 270.959504 -431.181161 
L 275.571074 -435.788256 
L 280.182645 -438.910177 
L 284.794215 -440.486494 
L 289.405785 -440.486494 
L 294.017355 -438.910177 
L 298.628926 -435.788256 
L 303.240496 -431.181161 
L 307.852066 -425.177093 
L 312.463636 -417.889218 
L 317.075207 -409.45212 
L 321.686777 -400.017673 
L 326.298347 -389.750507 
L 330.909917 -378.823257 
L 335.521488 -367.411781 
L 340.133058 -355.690542 
L 344.744628 -343.8283 
L 349.356198 -331.984279 
L 353.967769 -320.304899 
L 358.579339 -308.92117 
L 363.190909 -297.946779 
L 367.802479 -287.476889 
L 372.41405 -277.587621 
L 377.02562 -268.336182 
L 381.63719 -259.761553 
L 386.24876 -251.885659 
L 390.860331 -244.714915 
L 395.471901 -238.242061 
L 400.083471 -232.448155 
L 404.695041 -227.304665 
L 409.306612 -222.775536 
L 413.918182 -218.819192 
L 418.529752 -215.390385 
L 423.141322 -212.441871 
L 427.752893 -209.925861 
L 432.364463 -207.79525 
L 436.976033 -206.004604 
L 441.587603 -204.510928 
L 446.199174 -203.274213 
L 450.810744 -202.257794 
L 455.422314 -201.428541 
L 460.033884 -200.75691 
L 464.645455 -200.216872 
L 469.257025 -199.785769 
L 473.868595 -199.444089 
L 478.480165 -199.175214 
L 483.091736 -198.965132 
L 487.703306 -198.802147 
L 492.314876 -198.676592 
L 496.926446 -198.580548 
L 501.538017 -198.507595 
L 506.149587 -198.452566 
L 510.761157 -198.411347 
L 515.372727 -198.380686 
L 515.372727 -198.299375 
L 515.372727 -198.299375 
L 510.761157 -198.299375 
L 506.149587 -198.299375 
L 501.538017 -198.299375 
L 496.926446 -198.299375 
L 492.314876 -198.299375 
L 487.703306 -198.299375 
L 483.091736 -198.299375 
L 478.480165 -198.299375 
L 473.868595 -198.299375 
L 469.257025 -198.299375 
L 464.645455 -198.299375 
L 460.033884 -198.299375 
L 455.422314 -198.299375 
L 450.810744 -198.299375 
L 446.199174 -198.299375 
L 441.587603 -198.299375 
L 436.976033 -198.299375 
L 432.364463 -198.299375 
L 427.752893 -198.299375 
L 423.141322 -198.299375 
L 418.529752 -198.299375 
L 413.918182 -198.299375 
L 409.306612 -198.299375 
L 404.695041 -198.299375 
L 400.083471 -198.299375 
L 395.471901 -198.299375 
L 390.860331 -198.299375 
L 386.24876 -198.299375 
L 381.63719 -198.299375 
L 377.02562 -198.299375 
L 372.41405 -198.299375 
L 367.802479 -198.299375 
L 363.190909 -198.299375 
L 358.579339 -198.299375 
L 353.967769 -198.299375 
L 349.356198 -198.299375 
L 344.744628 -198.299375 
L 340.133058 -198.299375 
L 335.521488 -198.299375 
L 330.909917 -198.299375 
L 326.298347 -198.299375 
L 321.686777 -198.299375 
L 317.075207 -198.299375 
L 312.463636 -198.299375 
L 307.852066 -198.299375 
L 303.240496 -198.299375 
L 298.628926 -198.299375 
L 294.017355 -198.299375 
L 289.405785 -198.299375 
L 284.794215 -198.299375 
L 280.182645 -198.299375 
L 275.571074 -198.299375 
L 270.959504 -198.299375 
L 266.347934 -198.299375 
L 261.736364 -198.299375 
L 257.124793 -198.299375 
L 252.513223 -198.299375 
L 247.901653 -198.299375 
L 243.290083 -198.299375 
L 238.678512 -198.299375 
L 234.066942 -198.299375 
L 229.455372 -198.299375 
L 224.843802 -198.299375 
L 220.232231 -198.299375 
L 215.620661 -198.299375 
L 211.009091 -198.299375 
L 206.397521 -198.299375 
L 201.78595 -198.299375 
L 197.17438 -198.299375 
L 192.56281 -198.299375 
L 187.95124 -198.299375 
L 183.339669 -198.299375 
L 178.728099 -198.299375 
L 174.116529 -198.299375 
L 169.504959 -198.299375 
L 164.893388 -198.299375 
L 160.281818 -198.299375 
L 155.670248 -198.299375 
L 151.058678 -198.299375 
L 146.447107 -198.299375 
L 141.835537 -198.299375 
L 137.223967 -198.299375 
L 132.612397 -198.299375 
L 128.000826 -198.299375 
L 123.389256 -198.299375 
L 118.777686 -198.299375 
L 114.166116 -198.299375 
L 109.554545 -198.299375 
L 104.942975 -198.299375 
L 100.331405 -198.299375 
L 95.719835 -198.299375 
L 91.108264 -198.299375 
L 86.496694 -198.299375 
L 81.885124 -198.299375 
L 77.273554 -198.299375 
L 72.661983 -198.299375 
L 68.050413 -198.299375 
L 63.438843 -198.299375 
L 58.827273 -198.299375 
z
" id="m5daffdd82e" style="stroke:#ff6384;stroke-opacity:0.5;"/>
    </defs>
    <g clip-path="url(#pf2f5ce93d9)">
     <use style="fill:#ff6384;fill-opacity:0.5;stroke:#ff6384;stroke-opacity:0.5;" x="0" xlink:href="#m5daffdd82e" y="591.509375"/>
    </g>
   </g>
   <g id="PolyCollection_2">
    <defs>
     <path d="M 60.295552 -198.299375 
L 60.295552 -198.413593 
L 63.578512 -198.456662 
L 66.861472 -198.514563 
L 70.144432 -198.591861 
L 73.427391 -198.694339 
L 76.710351 -198.829251 
L 79.993311 -199.005619 
L 83.276271 -199.234563 
L 86.55923 -199.529665 
L 89.84219 -199.907354 
L 93.12515 -200.387311 
L 96.40811 -200.992881 
L 99.691069 -201.751471 
L 102.974029 -202.694912 
L 106.256989 -203.859762 
L 109.539949 -205.287525 
L 112.822909 -207.024738 
L 116.105868 -209.122902 
L 119.388828 -211.638221 
L 122.671788 -214.631088 
L 125.954748 -218.165325 
L 129.237707 -222.3071 
L 132.520667 -227.123541 
L 135.803627 -232.681014 
L 139.086587 -239.043076 
L 142.369546 -246.268132 
L 145.652506 -254.406825 
L 148.935466 -263.499238 
L 152.218426 -273.571974 
L 155.501385 -284.635235 
L 158.784345 -296.680007 
L 162.067305 -309.675493 
L 165.350265 -323.566938 
L 168.633224 -338.273983 
L 171.916184 -353.689699 
L 175.199144 -369.680411 
L 178.482104 -386.086424 
L 181.765064 -402.723708 
L 185.048023 -419.386587 
L 188.330983 -435.8514 
L 191.613943 -451.881089 
L 194.896903 -467.230586 
L 198.179862 -481.652863 
L 201.462822 -494.905422 
L 204.745782 -506.757005 
L 208.028742 -516.994276 
L 211.311701 -525.428184 
L 214.594661 -531.899766 
L 217.877621 -536.285125 
L 221.160581 -538.499375 
L 224.44354 -538.499375 
L 227.7265 -536.285125 
L 231.00946 -531.899766 
L 234.29242 -525.428184 
L 237.575379 -516.994276 
L 240.858339 -506.757005 
L 244.141299 -494.905422 
L 247.424259 -481.652863 
L 250.707219 -467.230586 
L 253.990178 -451.881089 
L 257.273138 -435.8514 
L 260.556098 -419.386587 
L 263.839058 -402.723708 
L 267.122017 -386.086424 
L 270.404977 -369.680411 
L 273.687937 -353.689699 
L 276.970897 -338.273983 
L 280.253856 -323.566938 
L 283.536816 -309.675493 
L 286.819776 -296.680007 
L 290.102736 -284.635235 
L 293.385695 -273.571974 
L 296.668655 -263.499238 
L 299.951615 -254.406825 
L 303.234575 -246.268132 
L 306.517534 -239.043076 
L 309.800494 -232.681014 
L 313.083454 -227.123541 
L 316.366414 -222.3071 
L 319.649373 -218.165325 
L 322.932333 -214.631088 
L 326.215293 -211.638221 
L 329.498253 -209.122902 
L 332.781213 -207.024738 
L 336.064172 -205.287525 
L 339.347132 -203.859762 
L 342.630092 -202.694912 
L 345.913052 -201.751471 
L 349.196011 -200.992881 
L 352.478971 -200.387311 
L 355.761931 -199.907354 
L 359.044891 -199.529665 
L 362.32785 -199.234563 
L 365.61081 -199.005619 
L 368.89377 -198.829251 
L 372.17673 -198.694339 
L 375.459689 -198.591861 
L 378.742649 -198.514563 
L 382.025609 -198.456662 
L 385.308569 -198.413593 
L 385.308569 -198.299375 
L 385.308569 -198.299375 
L 382.025609 -198.299375 
L 378.742649 -198.299375 
L 375.459689 -198.299375 
L 372.17673 -198.299375 
L 368.89377 -198.299375 
L 365.61081 -198.299375 
L 362.32785 -198.299375 
L 359.044891 -198.299375 
L 355.761931 -198.299375 
L 352.478971 -198.299375 
L 349.196011 -198.299375 
L 345.913052 -198.299375 
L 342.630092 -198.299375 
L 339.347132 -198.299375 
L 336.064172 -198.299375 
L 332.781213 -198.299375 
L 329.498253 -198.299375 
L 326.215293 -198.299375 
L 322.932333 -198.299375 
L 319.649373 -198.299375 
L 316.366414 -198.299375 
L 313.083454 -198.299375 
L 309.800494 -198.299375 
L 306.517534 -198.299375 
L 303.234575 -198.299375 
L 299.951615 -198.299375 
L 296.668655 -198.299375 
L 293.385695 -198.299375 
L 290.102736 -198.299375 
L 286.819776 -198.299375 
L 283.536816 -198.299375 
L 280.253856 -198.299375 
L 276.970897 -198.299375 
L 273.687937 -198.299375 
L 270.404977 -198.299375 
L 267.122017 -198.299375 
L 263.839058 -198.299375 
L 260.556098 -198.299375 
L 257.273138 -198.299375 
L 253.990178 -198.299375 
L 250.707219 -198.299375 
L 247.424259 -198.299375 
L 244.141299 -198.299375 
L 240.858339 -198.299375 
L 237.575379 -198.299375 
L 234.29242 -198.299375 
L 231.00946 -198.299375 
L 227.7265 -198.299375 
L 224.44354 -198.299375 
L 221.160581 -198.299375 
L 217.877621 -198.299375 
L 214.594661 -198.299375 
L 211.311701 -198.299375 
L 208.028742 -198.299375 
L 204.745782 -198.299375 
L 201.462822 -198.299375 
L 198.179862 -198.299375 
L 194.896903 -198.299375 
L 191.613943 -198.299375 
L 188.330983 -198.299375 
L 185.048023 -198.299375 
L 181.765064 -198.299375 
L 178.482104 -198.299375 
L 175.199144 -198.299375 
L 171.916184 -198.299375 
L 168.633224 -198.299375 
L 165.350265 -198.299375 
L 162.067305 -198.299375 
L 158.784345 -198.299375 
L 155.501385 -198.299375 
L 152.218426 -198.299375 
L 148.935466 -198.299375 
L 145.652506 -198.299375 
L 142.369546 -198.299375 
L 139.086587 -198.299375 
L 135.803627 -198.299375 
L 132.520667 -198.299375 
L 129.237707 -198.299375 
L 125.954748 -198.299375 
L 122.671788 -198.299375 
L 119.388828 -198.299375 
L 116.105868 -198.299375 
L 112.822909 -198.299375 
L 109.539949 -198.299375 
L 106.256989 -198.299375 
L 102.974029 -198.299375 
L 99.691069 -198.299375 
L 96.40811 -198.299375 
L 93.12515 -198.299375 
L 89.84219 -198.299375 
L 86.55923 -198.299375 
L 83.276271 -198.299375 
L 79.993311 -198.299375 
L 76.710351 -198.299375 
L 73.427391 -198.299375 
L 70.144432 -198.299375 
L 66.861472 -198.299375 
L 63.578512 -198.299375 
L 60.295552 -198.299375 
z
" id="mf3b2044a6e" style="stroke:#36a2eb;stroke-opacity:0.5;"/>
    </defs>
    <g clip-path="url(#pf2f5ce93d9)">
     <use style="fill:#36a2eb;fill-opacity:0.5;stroke:#36a2eb;stroke-opacity:0.5;" x="0" xlink:href="#mf3b2044a6e" y="591.509375"/>
    </g>
   </g>
   <g id="line2d_1">
    <path clip-path="url(#pf2f5ce93d9)" d="M 58.827273 393.128689 
L 63.438843 393.098028 
L 68.050413 393.056809 
L 72.661983 393.00178 
L 77.273554 392.928827 
L 81.885124 392.832783 
L 86.496694 392.707228 
L 91.108264 392.544243 
L 95.719835 392.334161 
L 100.331405 392.065286 
L 104.942975 391.723606 
L 109.554545 391.292503 
L 114.166116 390.752465 
L 118.777686 390.080834 
L 123.389256 389.251581 
L 128.000826 388.235162 
L 132.612397 386.998447 
L 137.223967 385.504771 
L 141.835537 383.714125 
L 146.447107 381.583514 
L 151.058678 379.067504 
L 155.670248 376.11899 
L 160.281818 372.690183 
L 164.893388 368.733839 
L 169.504959 364.20471 
L 174.116529 359.06122 
L 178.728099 353.267314 
L 183.339669 346.79446 
L 187.95124 339.623716 
L 192.56281 331.747822 
L 197.17438 323.173193 
L 201.78595 313.921754 
L 206.397521 304.032486 
L 211.009091 293.562596 
L 215.620661 282.588205 
L 220.232231 271.204476 
L 224.843802 259.525096 
L 229.455372 247.681075 
L 234.066942 235.818833 
L 238.678512 224.097594 
L 243.290083 212.686118 
L 247.901653 201.758868 
L 252.513223 191.491702 
L 257.124793 182.057255 
L 261.736364 173.620157 
L 266.347934 166.332282 
L 270.959504 160.328214 
L 275.571074 155.721119 
L 280.182645 152.599198 
L 284.794215 151.022881 
L 289.405785 151.022881 
L 294.017355 152.599198 
L 298.628926 155.721119 
L 303.240496 160.328214 
L 307.852066 166.332282 
L 312.463636 173.620157 
L 317.075207 182.057255 
L 321.686777 191.491702 
L 326.298347 201.758868 
L 330.909917 212.686118 
L 335.521488 224.097594 
L 340.133058 235.818833 
L 344.744628 247.681075 
L 349.356198 259.525096 
L 353.967769 271.204476 
L 358.579339 282.588205 
L 363.190909 293.562596 
L 367.802479 304.032486 
L 372.41405 313.921754 
L 377.02562 323.173193 
L 381.63719 331.747822 
L 386.24876 339.623716 
L 390.860331 346.79446 
L 395.471901 353.267314 
L 400.083471 359.06122 
L 404.695041 364.20471 
L 409.306612 368.733839 
L 413.918182 372.690183 
L 418.529752 376.11899 
L 423.141322 379.067504 
L 427.752893 381.583514 
L 432.364463 383.714125 
L 436.976033 385.504771 
L 441.587603 386.998447 
L 446.199174 388.235162 
L 450.810744 389.251581 
L 455.422314 390.080834 
L 460.033884 390.752465 
L 464.645455 391.292503 
L 469.257025 391.723606 
L 473.868595 392.065286 
L 478.480165 392.334161 
L 483.091736 392.544243 
L 487.703306 392.707228 
L 492.314876 392.832783 
L 496.926446 392.928827 
L 501.538017 393.00178 
L 506.149587 393.056809 
L 510.761157 393.098028 
L 515.372727 393.128689 
" style="fill:none;stroke:#ff6384;stroke-linecap:square;"/>
   </g>
   <g id="line2d_2">
    <path clip-path="url(#pf2f5ce93d9)" d="M 60.295552 393.095782 
L 63.578512 393.052713 
L 66.861472 392.994812 
L 70.144432 392.917514 
L 73.427391 392.815036 
L 76.710351 392.680124 
L 79.993311 392.503756 
L 83.276271 392.274812 
L 86.55923 391.97971 
L 89.84219 391.602021 
L 93.12515 391.122064 
L 96.40811 390.516494 
L 99.691069 389.757904 
L 102.974029 388.814463 
L 106.256989 387.649613 
L 109.539949 386.22185 
L 112.822909 384.484637 
L 116.105868 382.386473 
L 119.388828 379.871154 
L 122.671788 376.878287 
L 125.954748 373.34405 
L 129.237707 369.202275 
L 132.520667 364.385834 
L 135.803627 358.828361 
L 139.086587 352.466299 
L 142.369546 345.241243 
L 145.652506 337.10255 
L 148.935466 328.010137 
L 152.218426 317.937401 
L 155.501385 306.87414 
L 158.784345 294.829368 
L 162.067305 281.833882 
L 165.350265 267.942437 
L 168.633224 253.235392 
L 171.916184 237.819676 
L 175.199144 221.828964 
L 178.482104 205.422951 
L 181.765064 188.785667 
L 185.048023 172.122788 
L 188.330983 155.657975 
L 191.613943 139.628286 
L 194.896903 124.278789 
L 198.179862 109.856512 
L 201.462822 96.603953 
L 204.745782 84.75237 
L 208.028742 74.515099 
L 211.311701 66.081191 
L 214.594661 59.609609 
L 217.877621 55.22425 
L 221.160581 53.01 
L 224.44354 53.01 
L 227.7265 55.22425 
L 231.00946 59.609609 
L 234.29242 66.081191 
L 237.575379 74.515099 
L 240.858339 84.75237 
L 244.141299 96.603953 
L 247.424259 109.856512 
L 250.707219 124.278789 
L 253.990178 139.628286 
L 257.273138 155.657975 
L 260.556098 172.122788 
L 263.839058 188.785667 
L 267.122017 205.422951 
L 270.404977 221.828964 
L 273.687937 237.819676 
L 276.970897 253.235392 
L 280.253856 267.942437 
L 283.536816 281.833882 
L 286.819776 294.829368 
L 290.102736 306.87414 
L 293.385695 317.937401 
L 296.668655 328.010137 
L 299.951615 337.10255 
L 303.234575 345.241243 
L 306.517534 352.466299 
L 309.800494 358.828361 
L 313.083454 364.385834 
L 316.366414 369.202275 
L 319.649373 373.34405 
L 322.932333 376.878287 
L 326.215293 379.871154 
L 329.498253 382.386473 
L 332.781213 384.484637 
L 336.064172 386.22185 
L 339.347132 387.649613 
L 342.630092 388.814463 
L 345.913052 389.757904 
L 349.196011 390.516494 
L 352.478971 391.122064 
L 355.761931 391.602021 
L 359.044891 391.97971 
L 362.32785 392.274812 
L 365.61081 392.503756 
L 368.89377 392.680124 
L 372.17673 392.815036 
L 375.459689 392.917514 
L 378.742649 392.994812 
L 382.025609 393.052713 
L 385.308569 393.095782 
" style="fill:none;stroke:#36a2eb;stroke-linecap:square;"/>
   </g>
   <g id="patch_3">
    <path d="M 36 410.22 
L 538.2 410.22 
" style="fill:none;stroke:#000000;stroke-linecap:square;stroke-linejoin:miter;stroke-width:0.8;"/>
   </g>
   <g id="legend_1">
    <g id="patch_4">
     <path d="M 450.225313 88.29875 
L 528.4 88.29875 
Q 531.2 88.29875 531.2 85.49875 
L 531.2 45.8 
Q 531.2 43 528.4 43 
L 450.225313 43 
Q 447.425313 43 447.425313 45.8 
L 447.425313 85.49875 
Q 447.425313 88.29875 450.225313 88.29875 
z
" style="fill:#ffffff;opacity:0.8;stroke:#cccccc;stroke-linejoin:miter;"/>
    </g>
    <g id="patch_5">
     <path d="M 453.025313 59.237813 
L 481.025313 59.237813 
L 481.025313 49.437813 
L 453.025313 49.437813 
z
" style="fill:#ff6384;opacity:0.5;stroke:#ff6384;stroke-linejoin:miter;"/>
    </g>
    <g id="text_1">
     <!-- base -->
     <defs>
      <path d="M 48.6875 27.296875 
Q 48.6875 37.203125 44.609375 42.84375 
Q 40.53125 48.484375 33.40625 48.484375 
Q 26.265625 48.484375 22.1875 42.84375 
Q 18.109375 37.203125 18.109375 27.296875 
Q 18.109375 17.390625 22.1875 11.75 
Q 26.265625 6.109375 33.40625 6.109375 
Q 40.53125 6.109375 44.609375 11.75 
Q 48.6875 17.390625 48.6875 27.296875 
z
M 18.109375 46.390625 
Q 20.953125 51.265625 25.265625 53.625 
Q 29.59375 56 35.59375 56 
Q 45.5625 56 51.78125 48.09375 
Q 58.015625 40.1875 58.015625 27.296875 
Q 58.015625 14.40625 51.78125 6.484375 
Q 45.5625 -1.421875 35.59375 -1.421875 
Q 29.59375 -1.421875 25.265625 0.953125 
Q 20.953125 3.328125 18.109375 8.203125 
L 18.109375 0 
L 9.078125 0 
L 9.078125 75.984375 
L 18.109375 75.984375 
z
" id="DejaVuSans-98"/>
      <path d="M 34.28125 27.484375 
Q 23.390625 27.484375 19.1875 25 
Q 14.984375 22.515625 14.984375 16.5 
Q 14.984375 11.71875 18.140625 8.90625 
Q 21.296875 6.109375 26.703125 6.109375 
Q 34.1875 6.109375 38.703125 11.40625 
Q 43.21875 16.703125 43.21875 25.484375 
L 43.21875 27.484375 
z
M 52.203125 31.203125 
L 52.203125 0 
L 43.21875 0 
L 43.21875 8.296875 
Q 40.140625 3.328125 35.546875 0.953125 
Q 30.953125 -1.421875 24.3125 -1.421875 
Q 15.921875 -1.421875 10.953125 3.296875 
Q 6 8.015625 6 15.921875 
Q 6 25.140625 12.171875 29.828125 
Q 18.359375 34.515625 30.609375 34.515625 
L 43.21875 34.515625 
L 43.21875 35.40625 
Q 43.21875 41.609375 39.140625 45 
Q 35.0625 48.390625 27.6875 48.390625 
Q 23 48.390625 18.546875 47.265625 
Q 14.109375 46.140625 10.015625 43.890625 
L 10.015625 52.203125 
Q 14.9375 54.109375 19.578125 55.046875 
Q 24.21875 56 28.609375 56 
Q 40.484375 56 46.34375 49.84375 
Q 52.203125 43.703125 52.203125 31.203125 
z
" id="DejaVuSans-97"/>
      <path d="M 44.28125 53.078125 
L 44.28125 44.578125 
Q 40.484375 46.53125 36.375 47.5 
Q 32.28125 48.484375 27.875 48.484375 
Q 21.1875 48.484375 17.84375 46.4375 
Q 14.5 44.390625 14.5 40.28125 
Q 14.5 37.15625 16.890625 35.375 
Q 19.28125 33.59375 26.515625 31.984375 
L 29.59375 31.296875 
Q 39.15625 29.25 43.1875 25.515625 
Q 47.21875 21.78125 47.21875 15.09375 
Q 47.21875 7.46875 41.1875 3.015625 
Q 35.15625 -1.421875 24.609375 -1.421875 
Q 20.21875 -1.421875 15.453125 -0.5625 
Q 10.6875 0.296875 5.421875 2 
L 5.421875 11.28125 
Q 10.40625 8.6875 15.234375 7.390625 
Q 20.0625 6.109375 24.8125 6.109375 
Q 31.15625 6.109375 34.5625 8.28125 
Q 37.984375 10.453125 37.984375 14.40625 
Q 37.984375 18.0625 35.515625 20.015625 
Q 33.0625 21.96875 24.703125 23.78125 
L 21.578125 24.515625 
Q 13.234375 26.265625 9.515625 29.90625 
Q 5.8125 33.546875 5.8125 39.890625 
Q 5.8125 47.609375 11.28125 51.796875 
Q 16.75 56 26.8125 56 
Q 31.78125 56 36.171875 55.265625 
Q 40.578125 54.546875 44.28125 53.078125 
z
" id="DejaVuSans-115"/>
      <path d="M 56.203125 29.59375 
L 56.203125 25.203125 
L 14.890625 25.203125 
Q 15.484375 15.921875 20.484375 11.0625 
Q 25.484375 6.203125 34.421875 6.203125 
Q 39.59375 6.203125 44.453125 7.46875 
Q 49.3125 8.734375 54.109375 11.28125 
L 54.109375 2.78125 
Q 49.265625 0.734375 44.1875 -0.34375 
Q 39.109375 -1.421875 33.890625 -1.421875 
Q 20.796875 -1.421875 13.15625 6.1875 
Q 5.515625 13.8125 5.515625 26.8125 
Q 5.515625 40.234375 12.765625 48.109375 
Q 20.015625 56 32.328125 56 
Q 43.359375 56 49.78125 48.890625 
Q 56.203125 41.796875 56.203125 29.59375 
z
M 47.21875 32.234375 
Q 47.125 39.59375 43.09375 43.984375 
Q 39.0625 48.390625 32.421875 48.390625 
Q 24.90625 48.390625 20.390625 44.140625 
Q 15.875 39.890625 15.1875 32.171875 
z
" id="DejaVuSans-101"/>
     </defs>
     <g transform="translate(492.225313 59.237813)scale(0.14 -0.14)">
      <use xlink:href="#DejaVuSans-98"/>
      <use x="63.476562" xlink:href="#DejaVuSans-97"/>
      <use x="124.755859" xlink:href="#DejaVuSans-115"/>
      <use x="176.855469" xlink:href="#DejaVuSans-101"/>
     </g>
    </g>
    <g id="patch_6">
     <path d="M 453.025313 79.787188 
L 481.025313 79.787188 
L 481.025313 69.987188 
L 453.025313 69.987188 
z
" style="fill:#36a2eb;opacity:0.5;stroke:#36a2eb;stroke-linejoin:miter;"/>
    </g>
    <g id="text_2">
     <!-- subs -->
     <defs>
      <path d="M 8.5 21.578125 
L 8.5 54.6875 
L 17.484375 54.6875 
L 17.484375 21.921875 
Q 17.484375 14.15625 20.5 10.265625 
Q 23.53125 6.390625 29.59375 6.390625 
Q 36.859375 6.390625 41.078125 11.03125 
Q 45.3125 15.671875 45.3125 23.6875 
L 45.3125 54.6875 
L 54.296875 54.6875 
L 54.296875 0 
L 45.3125 0 
L 45.3125 8.40625 
Q 42.046875 3.421875 37.71875 1 
Q 33.40625 -1.421875 27.6875 -1.421875 
Q 18.265625 -1.421875 13.375 4.4375 
Q 8.5 10.296875 8.5 21.578125 
z
M 31.109375 56 
z
" id="DejaVuSans-117"/>
     </defs>
     <g transform="translate(492.225313 79.787188)scale(0.14 -0.14)">
      <use xlink:href="#DejaVuSans-115"/>
      <use x="52.099609" xlink:href="#DejaVuSans-117"/>
      <use x="115.478516" xlink:href="#DejaVuSans-98"/>
      <use x="178.955078" xlink:href="#DejaVuSans-115"/>
     </g>
    </g>
   </g>
  </g>
  <g id="axes_2">
   <g id="patch_7">
    <path d="M 36 534.96 
L 538.2 534.96 
L 538.2 410.22 
L 36 410.22 
z
" style="fill:none;"/>
   </g>
   <g id="patch_8">
    <path clip-path="url(#pa75dccb88d)" d="M 175.246364 529.29 
L 398.953636 529.29 
L 398.953636 491.49 
L 175.246364 491.49 
z
" style="fill:#ff6384;opacity:0.5;"/>
   </g>
   <g id="patch_9">
    <path clip-path="url(#pa75dccb88d)" d="M 143.173872 453.69 
L 302.43025 453.69 
L 302.43025 415.89 
L 143.173872 415.89 
z
" style="fill:#36a2eb;opacity:0.5;"/>
   </g>
   <g id="matplotlib.axis_1">
    <g id="xtick_1">
     <g id="line2d_3">
      <defs>
       <path d="M 0 0 
L 0 3.5 
" id="md2b0508db7" style="stroke:#000000;stroke-width:0.8;"/>
      </defs>
      <g>
       <use style="stroke:#000000;stroke-width:0.8;" x="78.264564" xlink:href="#md2b0508db7" y="534.96"/>
      </g>
     </g>
     <g id="text_3">
      <!-- 10.0 -->
      <defs>
       <path d="M 12.40625 8.296875 
L 28.515625 8.296875 
L 28.515625 63.921875 
L 10.984375 60.40625 
L 10.984375 69.390625 
L 28.421875 72.90625 
L 38.28125 72.90625 
L 38.28125 8.296875 
L 54.390625 8.296875 
L 54.390625 0 
L 12.40625 0 
z
" id="DejaVuSans-49"/>
       <path d="M 31.78125 66.40625 
Q 24.171875 66.40625 20.328125 58.90625 
Q 16.5 51.421875 16.5 36.375 
Q 16.5 21.390625 20.328125 13.890625 
Q 24.171875 6.390625 31.78125 6.390625 
Q 39.453125 6.390625 43.28125 13.890625 
Q 47.125 21.390625 47.125 36.375 
Q 47.125 51.421875 43.28125 58.90625 
Q 39.453125 66.40625 31.78125 66.40625 
z
M 31.78125 74.21875 
Q 44.046875 74.21875 50.515625 64.515625 
Q 56.984375 54.828125 56.984375 36.375 
Q 56.984375 17.96875 50.515625 8.265625 
Q 44.046875 -1.421875 31.78125 -1.421875 
Q 19.53125 -1.421875 13.0625 8.265625 
Q 6.59375 17.96875 6.59375 36.375 
Q 6.59375 54.828125 13.0625 64.515625 
Q 19.53125 74.21875 31.78125 74.21875 
z
" id="DejaVuSans-48"/>
       <path d="M 10.6875 12.40625 
L 21 12.40625 
L 21 0 
L 10.6875 0 
z
" id="DejaVuSans-46"/>
      </defs>
      <g transform="translate(62.678626 552.597813)scale(0.14 -0.14)">
       <use xlink:href="#DejaVuSans-49"/>
       <use x="63.623047" xlink:href="#DejaVuSans-48"/>
       <use x="127.246094" xlink:href="#DejaVuSans-46"/>
       <use x="159.033203" xlink:href="#DejaVuSans-48"/>
      </g>
     </g>
    </g>
    <g id="xtick_2">
     <g id="line2d_4">
      <g>
       <use style="stroke:#000000;stroke-width:0.8;" x="139.493699" xlink:href="#md2b0508db7" y="534.96"/>
      </g>
     </g>
     <g id="text_4">
      <!-- 12.5 -->
      <defs>
       <path d="M 19.1875 8.296875 
L 53.609375 8.296875 
L 53.609375 0 
L 7.328125 0 
L 7.328125 8.296875 
Q 12.9375 14.109375 22.625 23.890625 
Q 32.328125 33.6875 34.8125 36.53125 
Q 39.546875 41.84375 41.421875 45.53125 
Q 43.3125 49.21875 43.3125 52.78125 
Q 43.3125 58.59375 39.234375 62.25 
Q 35.15625 65.921875 28.609375 65.921875 
Q 23.96875 65.921875 18.8125 64.3125 
Q 13.671875 62.703125 7.8125 59.421875 
L 7.8125 69.390625 
Q 13.765625 71.78125 18.9375 73 
Q 24.125 74.21875 28.421875 74.21875 
Q 39.75 74.21875 46.484375 68.546875 
Q 53.21875 62.890625 53.21875 53.421875 
Q 53.21875 48.921875 51.53125 44.890625 
Q 49.859375 40.875 45.40625 35.40625 
Q 44.1875 33.984375 37.640625 27.21875 
Q 31.109375 20.453125 19.1875 8.296875 
z
" id="DejaVuSans-50"/>
       <path d="M 10.796875 72.90625 
L 49.515625 72.90625 
L 49.515625 64.59375 
L 19.828125 64.59375 
L 19.828125 46.734375 
Q 21.96875 47.46875 24.109375 47.828125 
Q 26.265625 48.1875 28.421875 48.1875 
Q 40.625 48.1875 47.75 41.5 
Q 54.890625 34.8125 54.890625 23.390625 
Q 54.890625 11.625 47.5625 5.09375 
Q 40.234375 -1.421875 26.90625 -1.421875 
Q 22.3125 -1.421875 17.546875 -0.640625 
Q 12.796875 0.140625 7.71875 1.703125 
L 7.71875 11.625 
Q 12.109375 9.234375 16.796875 8.0625 
Q 21.484375 6.890625 26.703125 6.890625 
Q 35.15625 6.890625 40.078125 11.328125 
Q 45.015625 15.765625 45.015625 23.390625 
Q 45.015625 31 40.078125 35.4375 
Q 35.15625 39.890625 26.703125 39.890625 
Q 22.75 39.890625 18.8125 39.015625 
Q 14.890625 38.140625 10.796875 36.28125 
z
" id="DejaVuSans-53"/>
      </defs>
      <g transform="translate(123.907762 552.597813)scale(0.14 -0.14)">
       <use xlink:href="#DejaVuSans-49"/>
       <use x="63.623047" xlink:href="#DejaVuSans-50"/>
       <use x="127.246094" xlink:href="#DejaVuSans-46"/>
       <use x="159.033203" xlink:href="#DejaVuSans-53"/>
      </g>
     </g>
    </g>
    <g id="xtick_3">
     <g id="line2d_5">
      <g>
       <use style="stroke:#000000;stroke-width:0.8;" x="200.722834" xlink:href="#md2b0508db7" y="534.96"/>
      </g>
     </g>
     <g id="text_5">
      <!-- 15.0 -->
      <g transform="translate(185.136897 552.597813)scale(0.14 -0.14)">
       <use xlink:href="#DejaVuSans-49"/>
       <use x="63.623047" xlink:href="#DejaVuSans-53"/>
       <use x="127.246094" xlink:href="#DejaVuSans-46"/>
       <use x="159.033203" xlink:href="#DejaVuSans-48"/>
      </g>
     </g>
    </g>
    <g id="xtick_4">
     <g id="line2d_6">
      <g>
       <use style="stroke:#000000;stroke-width:0.8;" x="261.95197" xlink:href="#md2b0508db7" y="534.96"/>
      </g>
     </g>
     <g id="text_6">
      <!-- 17.5 -->
      <defs>
       <path d="M 8.203125 72.90625 
L 55.078125 72.90625 
L 55.078125 68.703125 
L 28.609375 0 
L 18.3125 0 
L 43.21875 64.59375 
L 8.203125 64.59375 
z
" id="DejaVuSans-55"/>
      </defs>
      <g transform="translate(246.366032 552.597813)scale(0.14 -0.14)">
       <use xlink:href="#DejaVuSans-49"/>
       <use x="63.623047" xlink:href="#DejaVuSans-55"/>
       <use x="127.246094" xlink:href="#DejaVuSans-46"/>
       <use x="159.033203" xlink:href="#DejaVuSans-53"/>
      </g>
     </g>
    </g>
    <g id="xtick_5">
     <g id="line2d_7">
      <g>
       <use style="stroke:#000000;stroke-width:0.8;" x="323.181105" xlink:href="#md2b0508db7" y="534.96"/>
      </g>
     </g>
     <g id="text_7">
      <!-- 20.0 -->
      <g transform="translate(307.595167 552.597813)scale(0.14 -0.14)">
       <use xlink:href="#DejaVuSans-50"/>
       <use x="63.623047" xlink:href="#DejaVuSans-48"/>
       <use x="127.246094" xlink:href="#DejaVuSans-46"/>
       <use x="159.033203" xlink:href="#DejaVuSans-48"/>
      </g>
     </g>
    </g>
    <g id="xtick_6">
     <g id="line2d_8">
      <g>
       <use style="stroke:#000000;stroke-width:0.8;" x="384.41024" xlink:href="#md2b0508db7" y="534.96"/>
      </g>
     </g>
     <g id="text_8">
      <!-- 22.5 -->
      <g transform="translate(368.824303 552.597813)scale(0.14 -0.14)">
       <use xlink:href="#DejaVuSans-50"/>
       <use x="63.623047" xlink:href="#DejaVuSans-50"/>
       <use x="127.246094" xlink:href="#DejaVuSans-46"/>
       <use x="159.033203" xlink:href="#DejaVuSans-53"/>
      </g>
     </g>
    </g>
    <g id="xtick_7">
     <g id="line2d_9">
      <g>
       <use style="stroke:#000000;stroke-width:0.8;" x="445.639375" xlink:href="#md2b0508db7" y="534.96"/>
      </g>
     </g>
     <g id="text_9">
      <!-- 25.0 -->
      <g transform="translate(430.053438 552.597813)scale(0.14 -0.14)">
       <use xlink:href="#DejaVuSans-50"/>
       <use x="63.623047" xlink:href="#DejaVuSans-53"/>
       <use x="127.246094" xlink:href="#DejaVuSans-46"/>
       <use x="159.033203" xlink:href="#DejaVuSans-48"/>
      </g>
     </g>
    </g>
    <g id="xtick_8">
     <g id="line2d_10">
      <g>
       <use style="stroke:#000000;stroke-width:0.8;" x="506.86851" xlink:href="#md2b0508db7" y="534.96"/>
      </g>
     </g>
     <g id="text_10">
      <!-- 27.5 -->
      <g transform="translate(491.282573 552.597813)scale(0.14 -0.14)">
       <use xlink:href="#DejaVuSans-50"/>
       <use x="63.623047" xlink:href="#DejaVuSans-55"/>
       <use x="127.246094" xlink:href="#DejaVuSans-46"/>
       <use x="159.033203" xlink:href="#DejaVuSans-53"/>
      </g>
     </g>
    </g>
   </g>
   <g id="line2d_11">
    <path clip-path="url(#pa75dccb88d)" d="M 287.1 534.96 
L 287.1 410.22 
" style="fill:none;stroke:#ff6384;stroke-dasharray:5.55,2.4;stroke-dashoffset:0;stroke-opacity:0.8;stroke-width:1.5;"/>
   </g>
   <g id="line2d_12">
    <path clip-path="url(#pa75dccb88d)" d="M 222.802061 534.96 
L 222.802061 410.22 
" style="fill:none;stroke:#36a2eb;stroke-dasharray:5.55,2.4;stroke-dashoffset:0;stroke-opacity:0.8;stroke-width:1.5;"/>
   </g>
   <g id="patch_10">
    <path d="M 36 534.96 
L 538.2 534.96 
" style="fill:none;stroke:#000000;stroke-linecap:square;stroke-linejoin:miter;stroke-width:0.8;"/>
   </g>
  </g>
 </g>
 <defs>
  <clipPath id="pf2f5ce93d9">
   <rect height="374.22" width="502.2" x="36" y="36"/>
  </clipPath>
  <clipPath id="pa75dccb88d">
   <rect height="124.74" width="502.2" x="36" y="410.22"/>
  </clipPath>
 </defs>
</svg>
