<?xml version="1.0" encoding="utf-8" standalone="no"?>
<!DOCTYPE svg PUBLIC "-//W3C//DTD SVG 1.1//EN"
  "http://www.w3.org/Graphics/SVG/1.1/DTD/svg11.dtd">
<!-- Created with matplotlib (https://matplotlib.org/) -->
<svg height="581.789375pt" version="1.1" viewBox="0 0 574.2 581.789375" width="574.2pt" xmlns="http://www.w3.org/2000/svg" xmlns:xlink="http://www.w3.org/1999/xlink">
 <defs>
  <style type="text/css">
*{stroke-linecap:butt;stroke-linejoin:round;}
  </style>
 </defs>
 <g id="figure_1">
  <g id="patch_1">
   <path d="M 0 581.789375 
L 574.2 581.789375 
L 574.2 0 
L 0 0 
z
" style="fill:none;"/>
  </g>
  <g id="axes_1">
   <g id="patch_2">
    <path d="M 36 402.93 
L 538.2 402.93 
L 538.2 36 
L 36 36 
z
" style="fill:none;"/>
   </g>
   <g id="PolyCollection_1">
    <defs>
     <path d="M 93.170911 -195.538011 
L 93.170911 -195.648834 
L 97.435576 -195.690623 
L 101.700241 -195.746803 
L 105.964905 -195.821804 
L 110.22957 -195.921236 
L 114.494235 -196.052138 
L 118.7589 -196.223264 
L 123.023565 -196.445403 
L 127.288229 -196.731734 
L 131.552894 -197.098197 
L 135.817559 -197.563888 
L 140.082224 -198.15146 
L 144.346889 -198.887503 
L 148.611553 -199.802902 
L 152.876218 -200.93313 
L 157.140883 -202.318456 
L 161.405548 -204.004034 
L 165.670213 -206.039836 
L 169.934878 -208.480392 
L 174.199542 -211.384304 
L 178.464207 -214.813494 
L 182.728872 -218.832164 
L 186.993537 -223.505449 
L 191.258202 -228.897739 
L 195.522866 -235.070705 
L 199.787531 -242.081013 
L 204.052196 -249.977803 
L 208.316861 -258.799966 
L 212.581526 -268.573314 
L 216.84619 -279.307747 
L 221.110855 -290.994517 
L 225.37552 -303.603744 
L 229.640185 -317.082299 
L 233.90485 -331.352213 
L 238.169515 -346.309734 
L 242.434179 -361.825161 
L 246.698844 -377.743545 
L 250.963509 -393.886326 
L 255.228174 -410.053942 
L 259.492839 -426.029378 
L 263.757503 -441.582623 
L 268.022168 -456.475894 
L 272.286833 -470.469504 
L 276.551498 -483.328162 
L 280.816163 -494.827485 
L 285.080827 -504.760478 
L 289.345492 -512.943709 
L 293.610157 -519.222939 
L 297.874822 -523.477953 
L 302.139487 -525.62639 
L 306.404152 -525.62639 
L 310.668816 -523.477953 
L 314.933481 -519.222939 
L 319.198146 -512.943709 
L 323.462811 -504.760478 
L 327.727476 -494.827485 
L 331.99214 -483.328162 
L 336.256805 -470.469504 
L 340.52147 -456.475894 
L 344.786135 -441.582623 
L 349.0508 -426.029378 
L 353.315464 -410.053942 
L 357.580129 -393.886326 
L 361.844794 -377.743545 
L 366.109459 -361.825161 
L 370.374124 -346.309734 
L 374.638788 -331.352213 
L 378.903453 -317.082299 
L 383.168118 -303.603744 
L 387.432783 -290.994517 
L 391.697448 -279.307747 
L 395.962113 -268.573314 
L 400.226777 -258.799966 
L 404.491442 -249.977803 
L 408.756107 -242.081013 
L 413.020772 -235.070705 
L 417.285437 -228.897739 
L 421.550101 -223.505449 
L 425.814766 -218.832164 
L 430.079431 -214.813494 
L 434.344096 -211.384304 
L 438.608761 -208.480392 
L 442.873425 -206.039836 
L 447.13809 -204.004034 
L 451.402755 -202.318456 
L 455.66742 -200.93313 
L 459.932085 -199.802902 
L 464.19675 -198.887503 
L 468.461414 -198.15146 
L 472.726079 -197.563888 
L 476.990744 -197.098197 
L 481.255409 -196.731734 
L 485.520074 -196.445403 
L 489.784738 -196.223264 
L 494.049403 -196.052138 
L 498.314068 -195.921236 
L 502.578733 -195.821804 
L 506.843398 -195.746803 
L 511.108062 -195.690623 
L 515.372727 -195.648834 
L 515.372727 -195.538011 
L 515.372727 -195.538011 
L 511.108062 -195.538011 
L 506.843398 -195.538011 
L 502.578733 -195.538011 
L 498.314068 -195.538011 
L 494.049403 -195.538011 
L 489.784738 -195.538011 
L 485.520074 -195.538011 
L 481.255409 -195.538011 
L 476.990744 -195.538011 
L 472.726079 -195.538011 
L 468.461414 -195.538011 
L 464.19675 -195.538011 
L 459.932085 -195.538011 
L 455.66742 -195.538011 
L 451.402755 -195.538011 
L 447.13809 -195.538011 
L 442.873425 -195.538011 
L 438.608761 -195.538011 
L 434.344096 -195.538011 
L 430.079431 -195.538011 
L 425.814766 -195.538011 
L 421.550101 -195.538011 
L 417.285437 -195.538011 
L 413.020772 -195.538011 
L 408.756107 -195.538011 
L 404.491442 -195.538011 
L 400.226777 -195.538011 
L 395.962113 -195.538011 
L 391.697448 -195.538011 
L 387.432783 -195.538011 
L 383.168118 -195.538011 
L 378.903453 -195.538011 
L 374.638788 -195.538011 
L 370.374124 -195.538011 
L 366.109459 -195.538011 
L 361.844794 -195.538011 
L 357.580129 -195.538011 
L 353.315464 -195.538011 
L 349.0508 -195.538011 
L 344.786135 -195.538011 
L 340.52147 -195.538011 
L 336.256805 -195.538011 
L 331.99214 -195.538011 
L 327.727476 -195.538011 
L 323.462811 -195.538011 
L 319.198146 -195.538011 
L 314.933481 -195.538011 
L 310.668816 -195.538011 
L 306.404152 -195.538011 
L 302.139487 -195.538011 
L 297.874822 -195.538011 
L 293.610157 -195.538011 
L 289.345492 -195.538011 
L 285.080827 -195.538011 
L 280.816163 -195.538011 
L 276.551498 -195.538011 
L 272.286833 -195.538011 
L 268.022168 -195.538011 
L 263.757503 -195.538011 
L 259.492839 -195.538011 
L 255.228174 -195.538011 
L 250.963509 -195.538011 
L 246.698844 -195.538011 
L 242.434179 -195.538011 
L 238.169515 -195.538011 
L 233.90485 -195.538011 
L 229.640185 -195.538011 
L 225.37552 -195.538011 
L 221.110855 -195.538011 
L 216.84619 -195.538011 
L 212.581526 -195.538011 
L 208.316861 -195.538011 
L 204.052196 -195.538011 
L 199.787531 -195.538011 
L 195.522866 -195.538011 
L 191.258202 -195.538011 
L 186.993537 -195.538011 
L 182.728872 -195.538011 
L 178.464207 -195.538011 
L 174.199542 -195.538011 
L 169.934878 -195.538011 
L 165.670213 -195.538011 
L 161.405548 -195.538011 
L 157.140883 -195.538011 
L 152.876218 -195.538011 
L 148.611553 -195.538011 
L 144.346889 -195.538011 
L 140.082224 -195.538011 
L 135.817559 -195.538011 
L 131.552894 -195.538011 
L 127.288229 -195.538011 
L 123.023565 -195.538011 
L 118.7589 -195.538011 
L 114.494235 -195.538011 
L 110.22957 -195.538011 
L 105.964905 -195.538011 
L 101.700241 -195.538011 
L 97.435576 -195.538011 
L 93.170911 -195.538011 
z
" id="m40ec381d8f" style="stroke:#ff6384;stroke-opacity:0.5;"/>
    </defs>
    <g clip-path="url(#p8f66d54cc8)">
     <use style="fill:#ff6384;fill-opacity:0.5;stroke:#ff6384;stroke-opacity:0.5;" x="0" xlink:href="#m40ec381d8f" y="581.789375"/>
    </g>
   </g>
   <g id="PolyCollection_2">
    <defs>
     <path d="M 58.827273 -195.538011 
L 58.827273 -195.650004 
L 63.047391 -195.692234 
L 67.267509 -195.749007 
L 71.487627 -195.8248 
L 75.707745 -195.925281 
L 79.927863 -196.057565 
L 84.147981 -196.230497 
L 88.368099 -196.454982 
L 92.588217 -196.744335 
L 96.808335 -197.114666 
L 101.028453 -197.585273 
L 105.248572 -198.179047 
L 109.46869 -198.922859 
L 113.688808 -199.847921 
L 117.908926 -200.990079 
L 122.129044 -202.390029 
L 126.349162 -204.093399 
L 130.56928 -206.150691 
L 134.789398 -208.617009 
L 139.009516 -211.551575 
L 143.229634 -215.016962 
L 147.449752 -219.078053 
L 151.66987 -223.800667 
L 155.889988 -229.249878 
L 160.110106 -235.488004 
L 164.330225 -242.572312 
L 168.550343 -250.552459 
L 172.770461 -259.467747 
L 176.990579 -269.344261 
L 181.210697 -280.192004 
L 185.430815 -292.002137 
L 189.650933 -304.744465 
L 193.871051 -318.365297 
L 198.091169 -332.785841 
L 202.311287 -347.901251 
L 206.531405 -363.580456 
L 210.751523 -379.666871 
L 214.971641 -395.980052 
L 219.191759 -412.31833 
L 223.411878 -428.4624 
L 227.631996 -444.179822 
L 231.852114 -459.230303 
L 236.072232 -473.371627 
L 240.29235 -486.366018 
L 244.512468 -497.986726 
L 248.732586 -508.02457 
L 252.952704 -516.294181 
L 257.172822 -522.639693 
L 261.39294 -526.939623 
L 265.613058 -529.110739 
L 269.833176 -529.110739 
L 274.053294 -526.939623 
L 278.273412 -522.639693 
L 282.493531 -516.294181 
L 286.713649 -508.02457 
L 290.933767 -497.986726 
L 295.153885 -486.366018 
L 299.374003 -473.371627 
L 303.594121 -459.230303 
L 307.814239 -444.179822 
L 312.034357 -428.4624 
L 316.254475 -412.31833 
L 320.474593 -395.980052 
L 324.694711 -379.666871 
L 328.914829 -363.580456 
L 333.134947 -347.901251 
L 337.355065 -332.785841 
L 341.575184 -318.365297 
L 345.795302 -304.744465 
L 350.01542 -292.002137 
L 354.235538 -280.192004 
L 358.455656 -269.344261 
L 362.675774 -259.467747 
L 366.895892 -250.552459 
L 371.11601 -242.572312 
L 375.336128 -235.488004 
L 379.556246 -229.249878 
L 383.776364 -223.800667 
L 387.996482 -219.078053 
L 392.2166 -215.016962 
L 396.436719 -211.551575 
L 400.656837 -208.617009 
L 404.876955 -206.150691 
L 409.097073 -204.093399 
L 413.317191 -202.390029 
L 417.537309 -200.990079 
L 421.757427 -199.847921 
L 425.977545 -198.922859 
L 430.197663 -198.179047 
L 434.417781 -197.585273 
L 438.637899 -197.114666 
L 442.858017 -196.744335 
L 447.078135 -196.454982 
L 451.298253 -196.230497 
L 455.518372 -196.057565 
L 459.73849 -195.925281 
L 463.958608 -195.8248 
L 468.178726 -195.749007 
L 472.398844 -195.692234 
L 476.618962 -195.650004 
L 476.618962 -195.538011 
L 476.618962 -195.538011 
L 472.398844 -195.538011 
L 468.178726 -195.538011 
L 463.958608 -195.538011 
L 459.73849 -195.538011 
L 455.518372 -195.538011 
L 451.298253 -195.538011 
L 447.078135 -195.538011 
L 442.858017 -195.538011 
L 438.637899 -195.538011 
L 434.417781 -195.538011 
L 430.197663 -195.538011 
L 425.977545 -195.538011 
L 421.757427 -195.538011 
L 417.537309 -195.538011 
L 413.317191 -195.538011 
L 409.097073 -195.538011 
L 404.876955 -195.538011 
L 400.656837 -195.538011 
L 396.436719 -195.538011 
L 392.2166 -195.538011 
L 387.996482 -195.538011 
L 383.776364 -195.538011 
L 379.556246 -195.538011 
L 375.336128 -195.538011 
L 371.11601 -195.538011 
L 366.895892 -195.538011 
L 362.675774 -195.538011 
L 358.455656 -195.538011 
L 354.235538 -195.538011 
L 350.01542 -195.538011 
L 345.795302 -195.538011 
L 341.575184 -195.538011 
L 337.355065 -195.538011 
L 333.134947 -195.538011 
L 328.914829 -195.538011 
L 324.694711 -195.538011 
L 320.474593 -195.538011 
L 316.254475 -195.538011 
L 312.034357 -195.538011 
L 307.814239 -195.538011 
L 303.594121 -195.538011 
L 299.374003 -195.538011 
L 295.153885 -195.538011 
L 290.933767 -195.538011 
L 286.713649 -195.538011 
L 282.493531 -195.538011 
L 278.273412 -195.538011 
L 274.053294 -195.538011 
L 269.833176 -195.538011 
L 265.613058 -195.538011 
L 261.39294 -195.538011 
L 257.172822 -195.538011 
L 252.952704 -195.538011 
L 248.732586 -195.538011 
L 244.512468 -195.538011 
L 240.29235 -195.538011 
L 236.072232 -195.538011 
L 231.852114 -195.538011 
L 227.631996 -195.538011 
L 223.411878 -195.538011 
L 219.191759 -195.538011 
L 214.971641 -195.538011 
L 210.751523 -195.538011 
L 206.531405 -195.538011 
L 202.311287 -195.538011 
L 198.091169 -195.538011 
L 193.871051 -195.538011 
L 189.650933 -195.538011 
L 185.430815 -195.538011 
L 181.210697 -195.538011 
L 176.990579 -195.538011 
L 172.770461 -195.538011 
L 168.550343 -195.538011 
L 164.330225 -195.538011 
L 160.110106 -195.538011 
L 155.889988 -195.538011 
L 151.66987 -195.538011 
L 147.449752 -195.538011 
L 143.229634 -195.538011 
L 139.009516 -195.538011 
L 134.789398 -195.538011 
L 130.56928 -195.538011 
L 126.349162 -195.538011 
L 122.129044 -195.538011 
L 117.908926 -195.538011 
L 113.688808 -195.538011 
L 109.46869 -195.538011 
L 105.248572 -195.538011 
L 101.028453 -195.538011 
L 96.808335 -195.538011 
L 92.588217 -195.538011 
L 88.368099 -195.538011 
L 84.147981 -195.538011 
L 79.927863 -195.538011 
L 75.707745 -195.538011 
L 71.487627 -195.538011 
L 67.267509 -195.538011 
L 63.047391 -195.538011 
L 58.827273 -195.538011 
z
" id="m2a65ecfff2" style="stroke:#36a2eb;stroke-opacity:0.5;"/>
    </defs>
    <g clip-path="url(#p8f66d54cc8)">
     <use style="fill:#36a2eb;fill-opacity:0.5;stroke:#36a2eb;stroke-opacity:0.5;" x="0" xlink:href="#m2a65ecfff2" y="581.789375"/>
    </g>
   </g>
   <g id="line2d_1">
    <path clip-path="url(#p8f66d54cc8)" d="M 93.170911 386.140541 
L 97.435576 386.098752 
L 101.700241 386.042572 
L 105.964905 385.967571 
L 110.22957 385.868139 
L 114.494235 385.737237 
L 118.7589 385.566111 
L 123.023565 385.343972 
L 127.288229 385.057641 
L 131.552894 384.691178 
L 135.817559 384.225487 
L 140.082224 383.637915 
L 144.346889 382.901872 
L 148.611553 381.986473 
L 152.876218 380.856245 
L 157.140883 379.470919 
L 161.405548 377.785341 
L 165.670213 375.749539 
L 169.934878 373.308983 
L 174.199542 370.405071 
L 178.464207 366.975881 
L 182.728872 362.957211 
L 186.993537 358.283926 
L 191.258202 352.891636 
L 195.522866 346.71867 
L 199.787531 339.708362 
L 204.052196 331.811572 
L 208.316861 322.989409 
L 212.581526 313.216061 
L 216.84619 302.481628 
L 221.110855 290.794858 
L 225.37552 278.185631 
L 229.640185 264.707076 
L 233.90485 250.437162 
L 238.169515 235.479641 
L 242.434179 219.964214 
L 246.698844 204.04583 
L 250.963509 187.903049 
L 255.228174 171.735433 
L 259.492839 155.759997 
L 263.757503 140.206752 
L 268.022168 125.313481 
L 272.286833 111.319871 
L 276.551498 98.461213 
L 280.816163 86.96189 
L 285.080827 77.028897 
L 289.345492 68.845666 
L 293.610157 62.566436 
L 297.874822 58.311422 
L 302.139487 56.162985 
L 306.404152 56.162985 
L 310.668816 58.311422 
L 314.933481 62.566436 
L 319.198146 68.845666 
L 323.462811 77.028897 
L 327.727476 86.96189 
L 331.99214 98.461213 
L 336.256805 111.319871 
L 340.52147 125.313481 
L 344.786135 140.206752 
L 349.0508 155.759997 
L 353.315464 171.735433 
L 357.580129 187.903049 
L 361.844794 204.04583 
L 366.109459 219.964214 
L 370.374124 235.479641 
L 374.638788 250.437162 
L 378.903453 264.707076 
L 383.168118 278.185631 
L 387.432783 290.794858 
L 391.697448 302.481628 
L 395.962113 313.216061 
L 400.226777 322.989409 
L 404.491442 331.811572 
L 408.756107 339.708362 
L 413.020772 346.71867 
L 417.285437 352.891636 
L 421.550101 358.283926 
L 425.814766 362.957211 
L 430.079431 366.975881 
L 434.344096 370.405071 
L 438.608761 373.308983 
L 442.873425 375.749539 
L 447.13809 377.785341 
L 451.402755 379.470919 
L 455.66742 380.856245 
L 459.932085 381.986473 
L 464.19675 382.901872 
L 468.461414 383.637915 
L 472.726079 384.225487 
L 476.990744 384.691178 
L 481.255409 385.057641 
L 485.520074 385.343972 
L 489.784738 385.566111 
L 494.049403 385.737237 
L 498.314068 385.868139 
L 502.578733 385.967571 
L 506.843398 386.042572 
L 511.108062 386.098752 
L 515.372727 386.140541 
" style="fill:none;stroke:#ff6384;stroke-linecap:square;"/>
   </g>
   <g id="line2d_2">
    <path clip-path="url(#p8f66d54cc8)" d="M 58.827273 386.139371 
L 63.047391 386.097141 
L 67.267509 386.040368 
L 71.487627 385.964575 
L 75.707745 385.864094 
L 79.927863 385.73181 
L 84.147981 385.558878 
L 88.368099 385.334393 
L 92.588217 385.04504 
L 96.808335 384.674709 
L 101.028453 384.204102 
L 105.248572 383.610328 
L 109.46869 382.866516 
L 113.688808 381.941454 
L 117.908926 380.799296 
L 122.129044 379.399346 
L 126.349162 377.695976 
L 130.56928 375.638684 
L 134.789398 373.172366 
L 139.009516 370.2378 
L 143.229634 366.772413 
L 147.449752 362.711322 
L 151.66987 357.988708 
L 155.889988 352.539497 
L 160.110106 346.301371 
L 164.330225 339.217063 
L 168.550343 331.236916 
L 172.770461 322.321628 
L 176.990579 312.445114 
L 181.210697 301.597371 
L 185.430815 289.787238 
L 189.650933 277.04491 
L 193.871051 263.424078 
L 198.091169 249.003534 
L 202.311287 233.888124 
L 206.531405 218.208919 
L 210.751523 202.122504 
L 214.971641 185.809323 
L 219.191759 169.471045 
L 223.411878 153.326975 
L 227.631996 137.609553 
L 231.852114 122.559072 
L 236.072232 108.417748 
L 240.29235 95.423357 
L 244.512468 83.802649 
L 248.732586 73.764805 
L 252.952704 65.495194 
L 257.172822 59.149682 
L 261.39294 54.849752 
L 265.613058 52.678636 
L 269.833176 52.678636 
L 274.053294 54.849752 
L 278.273412 59.149682 
L 282.493531 65.495194 
L 286.713649 73.764805 
L 290.933767 83.802649 
L 295.153885 95.423357 
L 299.374003 108.417748 
L 303.594121 122.559072 
L 307.814239 137.609553 
L 312.034357 153.326975 
L 316.254475 169.471045 
L 320.474593 185.809323 
L 324.694711 202.122504 
L 328.914829 218.208919 
L 333.134947 233.888124 
L 337.355065 249.003534 
L 341.575184 263.424078 
L 345.795302 277.04491 
L 350.01542 289.787238 
L 354.235538 301.597371 
L 358.455656 312.445114 
L 362.675774 322.321628 
L 366.895892 331.236916 
L 371.11601 339.217063 
L 375.336128 346.301371 
L 379.556246 352.539497 
L 383.776364 357.988708 
L 387.996482 362.711322 
L 392.2166 366.772413 
L 396.436719 370.2378 
L 400.656837 373.172366 
L 404.876955 375.638684 
L 409.097073 377.695976 
L 413.317191 379.399346 
L 417.537309 380.799296 
L 421.757427 381.941454 
L 425.977545 382.866516 
L 430.197663 383.610328 
L 434.417781 384.204102 
L 438.637899 384.674709 
L 442.858017 385.04504 
L 447.078135 385.334393 
L 451.298253 385.558878 
L 455.518372 385.73181 
L 459.73849 385.864094 
L 463.958608 385.964575 
L 468.178726 386.040368 
L 472.398844 386.097141 
L 476.618962 386.139371 
" style="fill:none;stroke:#36a2eb;stroke-linecap:square;"/>
   </g>
   <g id="patch_3">
    <path d="M 36 402.93 
L 538.2 402.93 
" style="fill:none;stroke:#000000;stroke-linecap:square;stroke-linejoin:miter;stroke-width:0.8;"/>
   </g>
   <g id="legend_1">
    <g id="patch_4">
     <path d="M 450.225313 88.29875 
L 528.4 88.29875 
Q 531.2 88.29875 531.2 85.49875 
L 531.2 45.8 
Q 531.2 43 528.4 43 
L 450.225313 43 
Q 447.425313 43 447.425313 45.8 
L 447.425313 85.49875 
Q 447.425313 88.29875 450.225313 88.29875 
z
" style="fill:#ffffff;opacity:0.8;stroke:#cccccc;stroke-linejoin:miter;"/>
    </g>
    <g id="patch_5">
     <path d="M 453.025313 59.237813 
L 481.025313 59.237813 
L 481.025313 49.437813 
L 453.025313 49.437813 
z
" style="fill:#ff6384;opacity:0.5;stroke:#ff6384;stroke-linejoin:miter;"/>
    </g>
    <g id="text_1">
     <!-- base -->
     <defs>
      <path d="M 48.6875 27.296875 
Q 48.6875 37.203125 44.609375 42.84375 
Q 40.53125 48.484375 33.40625 48.484375 
Q 26.265625 48.484375 22.1875 42.84375 
Q 18.109375 37.203125 18.109375 27.296875 
Q 18.109375 17.390625 22.1875 11.75 
Q 26.265625 6.109375 33.40625 6.109375 
Q 40.53125 6.109375 44.609375 11.75 
Q 48.6875 17.390625 48.6875 27.296875 
z
M 18.109375 46.390625 
Q 20.953125 51.265625 25.265625 53.625 
Q 29.59375 56 35.59375 56 
Q 45.5625 56 51.78125 48.09375 
Q 58.015625 40.1875 58.015625 27.296875 
Q 58.015625 14.40625 51.78125 6.484375 
Q 45.5625 -1.421875 35.59375 -1.421875 
Q 29.59375 -1.421875 25.265625 0.953125 
Q 20.953125 3.328125 18.109375 8.203125 
L 18.109375 0 
L 9.078125 0 
L 9.078125 75.984375 
L 18.109375 75.984375 
z
" id="DejaVuSans-98"/>
      <path d="M 34.28125 27.484375 
Q 23.390625 27.484375 19.1875 25 
Q 14.984375 22.515625 14.984375 16.5 
Q 14.984375 11.71875 18.140625 8.90625 
Q 21.296875 6.109375 26.703125 6.109375 
Q 34.1875 6.109375 38.703125 11.40625 
Q 43.21875 16.703125 43.21875 25.484375 
L 43.21875 27.484375 
z
M 52.203125 31.203125 
L 52.203125 0 
L 43.21875 0 
L 43.21875 8.296875 
Q 40.140625 3.328125 35.546875 0.953125 
Q 30.953125 -1.421875 24.3125 -1.421875 
Q 15.921875 -1.421875 10.953125 3.296875 
Q 6 8.015625 6 15.921875 
Q 6 25.140625 12.171875 29.828125 
Q 18.359375 34.515625 30.609375 34.515625 
L 43.21875 34.515625 
L 43.21875 35.40625 
Q 43.21875 41.609375 39.140625 45 
Q 35.0625 48.390625 27.6875 48.390625 
Q 23 48.390625 18.546875 47.265625 
Q 14.109375 46.140625 10.015625 43.890625 
L 10.015625 52.203125 
Q 14.9375 54.109375 19.578125 55.046875 
Q 24.21875 56 28.609375 56 
Q 40.484375 56 46.34375 49.84375 
Q 52.203125 43.703125 52.203125 31.203125 
z
" id="DejaVuSans-97"/>
      <path d="M 44.28125 53.078125 
L 44.28125 44.578125 
Q 40.484375 46.53125 36.375 47.5 
Q 32.28125 48.484375 27.875 48.484375 
Q 21.1875 48.484375 17.84375 46.4375 
Q 14.5 44.390625 14.5 40.28125 
Q 14.5 37.15625 16.890625 35.375 
Q 19.28125 33.59375 26.515625 31.984375 
L 29.59375 31.296875 
Q 39.15625 29.25 43.1875 25.515625 
Q 47.21875 21.78125 47.21875 15.09375 
Q 47.21875 7.46875 41.1875 3.015625 
Q 35.15625 -1.421875 24.609375 -1.421875 
Q 20.21875 -1.421875 15.453125 -0.5625 
Q 10.6875 0.296875 5.421875 2 
L 5.421875 11.28125 
Q 10.40625 8.6875 15.234375 7.390625 
Q 20.0625 6.109375 24.8125 6.109375 
Q 31.15625 6.109375 34.5625 8.28125 
Q 37.984375 10.453125 37.984375 14.40625 
Q 37.984375 18.0625 35.515625 20.015625 
Q 33.0625 21.96875 24.703125 23.78125 
L 21.578125 24.515625 
Q 13.234375 26.265625 9.515625 29.90625 
Q 5.8125 33.546875 5.8125 39.890625 
Q 5.8125 47.609375 11.28125 51.796875 
Q 16.75 56 26.8125 56 
Q 31.78125 56 36.171875 55.265625 
Q 40.578125 54.546875 44.28125 53.078125 
z
" id="DejaVuSans-115"/>
      <path d="M 56.203125 29.59375 
L 56.203125 25.203125 
L 14.890625 25.203125 
Q 15.484375 15.921875 20.484375 11.0625 
Q 25.484375 6.203125 34.421875 6.203125 
Q 39.59375 6.203125 44.453125 7.46875 
Q 49.3125 8.734375 54.109375 11.28125 
L 54.109375 2.78125 
Q 49.265625 0.734375 44.1875 -0.34375 
Q 39.109375 -1.421875 33.890625 -1.421875 
Q 20.796875 -1.421875 13.15625 6.1875 
Q 5.515625 13.8125 5.515625 26.8125 
Q 5.515625 40.234375 12.765625 48.109375 
Q 20.015625 56 32.328125 56 
Q 43.359375 56 49.78125 48.890625 
Q 56.203125 41.796875 56.203125 29.59375 
z
M 47.21875 32.234375 
Q 47.125 39.59375 43.09375 43.984375 
Q 39.0625 48.390625 32.421875 48.390625 
Q 24.90625 48.390625 20.390625 44.140625 
Q 15.875 39.890625 15.1875 32.171875 
z
" id="DejaVuSans-101"/>
     </defs>
     <g transform="translate(492.225313 59.237813)scale(0.14 -0.14)">
      <use xlink:href="#DejaVuSans-98"/>
      <use x="63.476562" xlink:href="#DejaVuSans-97"/>
      <use x="124.755859" xlink:href="#DejaVuSans-115"/>
      <use x="176.855469" xlink:href="#DejaVuSans-101"/>
     </g>
    </g>
    <g id="patch_6">
     <path d="M 453.025313 79.787188 
L 481.025313 79.787188 
L 481.025313 69.987188 
L 453.025313 69.987188 
z
" style="fill:#36a2eb;opacity:0.5;stroke:#36a2eb;stroke-linejoin:miter;"/>
    </g>
    <g id="text_2">
     <!-- subs -->
     <defs>
      <path d="M 8.5 21.578125 
L 8.5 54.6875 
L 17.484375 54.6875 
L 17.484375 21.921875 
Q 17.484375 14.15625 20.5 10.265625 
Q 23.53125 6.390625 29.59375 6.390625 
Q 36.859375 6.390625 41.078125 11.03125 
Q 45.3125 15.671875 45.3125 23.6875 
L 45.3125 54.6875 
L 54.296875 54.6875 
L 54.296875 0 
L 45.3125 0 
L 45.3125 8.40625 
Q 42.046875 3.421875 37.71875 1 
Q 33.40625 -1.421875 27.6875 -1.421875 
Q 18.265625 -1.421875 13.375 4.4375 
Q 8.5 10.296875 8.5 21.578125 
z
M 31.109375 56 
z
" id="DejaVuSans-117"/>
     </defs>
     <g transform="translate(492.225313 79.787188)scale(0.14 -0.14)">
      <use xlink:href="#DejaVuSans-115"/>
      <use x="52.099609" xlink:href="#DejaVuSans-117"/>
      <use x="115.478516" xlink:href="#DejaVuSans-98"/>
      <use x="178.955078" xlink:href="#DejaVuSans-115"/>
     </g>
    </g>
   </g>
  </g>
  <g id="axes_2">
   <g id="patch_7">
    <path d="M 36 525.24 
L 538.2 525.24 
L 538.2 402.93 
L 36 402.93 
z
" style="fill:none;"/>
   </g>
   <g id="patch_8">
    <path clip-path="url(#p89973d6110)" d="M 200.832374 519.680455 
L 407.711264 519.680455 
L 407.711264 482.616818 
L 200.832374 482.616818 
z
" style="fill:#ff6384;opacity:0.5;"/>
   </g>
   <g id="patch_9">
    <path clip-path="url(#p89973d6110)" d="M 165.364153 445.553182 
L 370.082081 445.553182 
L 370.082081 408.489545 
L 165.364153 408.489545 
z
" style="fill:#36a2eb;opacity:0.5;"/>
   </g>
   <g id="matplotlib.axis_1">
    <g id="xtick_1">
     <g id="line2d_3">
      <defs>
       <path d="M 0 0 
L 0 3.5 
" id="m01ff6e3aea" style="stroke:#000000;stroke-width:0.8;"/>
      </defs>
      <g>
       <use style="stroke:#000000;stroke-width:0.8;" x="48.430907" xlink:href="#m01ff6e3aea" y="525.24"/>
      </g>
     </g>
     <g id="text_3">
      <!-- 2 -->
      <defs>
       <path d="M 19.1875 8.296875 
L 53.609375 8.296875 
L 53.609375 0 
L 7.328125 0 
L 7.328125 8.296875 
Q 12.9375 14.109375 22.625 23.890625 
Q 32.328125 33.6875 34.8125 36.53125 
Q 39.546875 41.84375 41.421875 45.53125 
Q 43.3125 49.21875 43.3125 52.78125 
Q 43.3125 58.59375 39.234375 62.25 
Q 35.15625 65.921875 28.609375 65.921875 
Q 23.96875 65.921875 18.8125 64.3125 
Q 13.671875 62.703125 7.8125 59.421875 
L 7.8125 69.390625 
Q 13.765625 71.78125 18.9375 73 
Q 24.125 74.21875 28.421875 74.21875 
Q 39.75 74.21875 46.484375 68.546875 
Q 53.21875 62.890625 53.21875 53.421875 
Q 53.21875 48.921875 51.53125 44.890625 
Q 49.859375 40.875 45.40625 35.40625 
Q 44.1875 33.984375 37.640625 27.21875 
Q 31.109375 20.453125 19.1875 8.296875 
z
" id="DejaVuSans-50"/>
      </defs>
      <g transform="translate(43.977157 542.877813)scale(0.14 -0.14)">
       <use xlink:href="#DejaVuSans-50"/>
      </g>
     </g>
    </g>
    <g id="xtick_2">
     <g id="line2d_4">
      <g>
       <use style="stroke:#000000;stroke-width:0.8;" x="142.145527" xlink:href="#m01ff6e3aea" y="525.24"/>
      </g>
     </g>
     <g id="text_4">
      <!-- 4 -->
      <defs>
       <path d="M 37.796875 64.3125 
L 12.890625 25.390625 
L 37.796875 25.390625 
z
M 35.203125 72.90625 
L 47.609375 72.90625 
L 47.609375 25.390625 
L 58.015625 25.390625 
L 58.015625 17.1875 
L 47.609375 17.1875 
L 47.609375 0 
L 37.796875 0 
L 37.796875 17.1875 
L 4.890625 17.1875 
L 4.890625 26.703125 
z
" id="DejaVuSans-52"/>
      </defs>
      <g transform="translate(137.691777 542.877813)scale(0.14 -0.14)">
       <use xlink:href="#DejaVuSans-52"/>
      </g>
     </g>
    </g>
    <g id="xtick_3">
     <g id="line2d_5">
      <g>
       <use style="stroke:#000000;stroke-width:0.8;" x="235.860147" xlink:href="#m01ff6e3aea" y="525.24"/>
      </g>
     </g>
     <g id="text_5">
      <!-- 6 -->
      <defs>
       <path d="M 33.015625 40.375 
Q 26.375 40.375 22.484375 35.828125 
Q 18.609375 31.296875 18.609375 23.390625 
Q 18.609375 15.53125 22.484375 10.953125 
Q 26.375 6.390625 33.015625 6.390625 
Q 39.65625 6.390625 43.53125 10.953125 
Q 47.40625 15.53125 47.40625 23.390625 
Q 47.40625 31.296875 43.53125 35.828125 
Q 39.65625 40.375 33.015625 40.375 
z
M 52.59375 71.296875 
L 52.59375 62.3125 
Q 48.875 64.0625 45.09375 64.984375 
Q 41.3125 65.921875 37.59375 65.921875 
Q 27.828125 65.921875 22.671875 59.328125 
Q 17.53125 52.734375 16.796875 39.40625 
Q 19.671875 43.65625 24.015625 45.921875 
Q 28.375 48.1875 33.59375 48.1875 
Q 44.578125 48.1875 50.953125 41.515625 
Q 57.328125 34.859375 57.328125 23.390625 
Q 57.328125 12.15625 50.6875 5.359375 
Q 44.046875 -1.421875 33.015625 -1.421875 
Q 20.359375 -1.421875 13.671875 8.265625 
Q 6.984375 17.96875 6.984375 36.375 
Q 6.984375 53.65625 15.1875 63.9375 
Q 23.390625 74.21875 37.203125 74.21875 
Q 40.921875 74.21875 44.703125 73.484375 
Q 48.484375 72.75 52.59375 71.296875 
z
" id="DejaVuSans-54"/>
      </defs>
      <g transform="translate(231.406397 542.877813)scale(0.14 -0.14)">
       <use xlink:href="#DejaVuSans-54"/>
      </g>
     </g>
    </g>
    <g id="xtick_4">
     <g id="line2d_6">
      <g>
       <use style="stroke:#000000;stroke-width:0.8;" x="329.574766" xlink:href="#m01ff6e3aea" y="525.24"/>
      </g>
     </g>
     <g id="text_6">
      <!-- 8 -->
      <defs>
       <path d="M 31.78125 34.625 
Q 24.75 34.625 20.71875 30.859375 
Q 16.703125 27.09375 16.703125 20.515625 
Q 16.703125 13.921875 20.71875 10.15625 
Q 24.75 6.390625 31.78125 6.390625 
Q 38.8125 6.390625 42.859375 10.171875 
Q 46.921875 13.96875 46.921875 20.515625 
Q 46.921875 27.09375 42.890625 30.859375 
Q 38.875 34.625 31.78125 34.625 
z
M 21.921875 38.8125 
Q 15.578125 40.375 12.03125 44.71875 
Q 8.5 49.078125 8.5 55.328125 
Q 8.5 64.0625 14.71875 69.140625 
Q 20.953125 74.21875 31.78125 74.21875 
Q 42.671875 74.21875 48.875 69.140625 
Q 55.078125 64.0625 55.078125 55.328125 
Q 55.078125 49.078125 51.53125 44.71875 
Q 48 40.375 41.703125 38.8125 
Q 48.828125 37.15625 52.796875 32.3125 
Q 56.78125 27.484375 56.78125 20.515625 
Q 56.78125 9.90625 50.3125 4.234375 
Q 43.84375 -1.421875 31.78125 -1.421875 
Q 19.734375 -1.421875 13.25 4.234375 
Q 6.78125 9.90625 6.78125 20.515625 
Q 6.78125 27.484375 10.78125 32.3125 
Q 14.796875 37.15625 21.921875 38.8125 
z
M 18.3125 54.390625 
Q 18.3125 48.734375 21.84375 45.5625 
Q 25.390625 42.390625 31.78125 42.390625 
Q 38.140625 42.390625 41.71875 45.5625 
Q 45.3125 48.734375 45.3125 54.390625 
Q 45.3125 60.0625 41.71875 63.234375 
Q 38.140625 66.40625 31.78125 66.40625 
Q 25.390625 66.40625 21.84375 63.234375 
Q 18.3125 60.0625 18.3125 54.390625 
z
" id="DejaVuSans-56"/>
      </defs>
      <g transform="translate(325.121016 542.877813)scale(0.14 -0.14)">
       <use xlink:href="#DejaVuSans-56"/>
      </g>
     </g>
    </g>
    <g id="xtick_5">
     <g id="line2d_7">
      <g>
       <use style="stroke:#000000;stroke-width:0.8;" x="423.289386" xlink:href="#m01ff6e3aea" y="525.24"/>
      </g>
     </g>
     <g id="text_7">
      <!-- 10 -->
      <defs>
       <path d="M 12.40625 8.296875 
L 28.515625 8.296875 
L 28.515625 63.921875 
L 10.984375 60.40625 
L 10.984375 69.390625 
L 28.421875 72.90625 
L 38.28125 72.90625 
L 38.28125 8.296875 
L 54.390625 8.296875 
L 54.390625 0 
L 12.40625 0 
z
" id="DejaVuSans-49"/>
       <path d="M 31.78125 66.40625 
Q 24.171875 66.40625 20.328125 58.90625 
Q 16.5 51.421875 16.5 36.375 
Q 16.5 21.390625 20.328125 13.890625 
Q 24.171875 6.390625 31.78125 6.390625 
Q 39.453125 6.390625 43.28125 13.890625 
Q 47.125 21.390625 47.125 36.375 
Q 47.125 51.421875 43.28125 58.90625 
Q 39.453125 66.40625 31.78125 66.40625 
z
M 31.78125 74.21875 
Q 44.046875 74.21875 50.515625 64.515625 
Q 56.984375 54.828125 56.984375 36.375 
Q 56.984375 17.96875 50.515625 8.265625 
Q 44.046875 -1.421875 31.78125 -1.421875 
Q 19.53125 -1.421875 13.0625 8.265625 
Q 6.59375 17.96875 6.59375 36.375 
Q 6.59375 54.828125 13.0625 64.515625 
Q 19.53125 74.21875 31.78125 74.21875 
z
" id="DejaVuSans-48"/>
      </defs>
      <g transform="translate(414.381886 542.877813)scale(0.14 -0.14)">
       <use xlink:href="#DejaVuSans-49"/>
       <use x="63.623047" xlink:href="#DejaVuSans-48"/>
      </g>
     </g>
    </g>
    <g id="xtick_6">
     <g id="line2d_8">
      <g>
       <use style="stroke:#000000;stroke-width:0.8;" x="517.004006" xlink:href="#m01ff6e3aea" y="525.24"/>
      </g>
     </g>
     <g id="text_8">
      <!-- 12 -->
      <g transform="translate(508.096506 542.877813)scale(0.14 -0.14)">
       <use xlink:href="#DejaVuSans-49"/>
       <use x="63.623047" xlink:href="#DejaVuSans-50"/>
      </g>
     </g>
    </g>
   </g>
   <g id="line2d_9">
    <path clip-path="url(#p89973d6110)" d="M 304.271819 525.24 
L 304.271819 402.93 
" style="fill:none;stroke:#ff6384;stroke-dasharray:5.55,2.4;stroke-dashoffset:0;stroke-opacity:0.8;stroke-width:1.5;"/>
   </g>
   <g id="line2d_10">
    <path clip-path="url(#p89973d6110)" d="M 267.723117 525.24 
L 267.723117 402.93 
" style="fill:none;stroke:#36a2eb;stroke-dasharray:5.55,2.4;stroke-dashoffset:0;stroke-opacity:0.8;stroke-width:1.5;"/>
   </g>
   <g id="patch_10">
    <path d="M 36 525.24 
L 538.2 525.24 
" style="fill:none;stroke:#000000;stroke-linecap:square;stroke-linejoin:miter;stroke-width:0.8;"/>
   </g>
  </g>
 </g>
 <defs>
  <clipPath id="p8f66d54cc8">
   <rect height="366.93" width="502.2" x="36" y="36"/>
  </clipPath>
  <clipPath id="p89973d6110">
   <rect height="122.31" width="502.2" x="36" y="402.93"/>
  </clipPath>
 </defs>
</svg>
