<?xml version="1.0" encoding="utf-8" standalone="no"?>
<!DOCTYPE svg PUBLIC "-//W3C//DTD SVG 1.1//EN"
  "http://www.w3.org/Graphics/SVG/1.1/DTD/svg11.dtd">
<!-- Created with matplotlib (https://matplotlib.org/) -->
<svg height="581.789375pt" version="1.1" viewBox="0 0 574.2 581.789375" width="574.2pt" xmlns="http://www.w3.org/2000/svg" xmlns:xlink="http://www.w3.org/1999/xlink">
 <defs>
  <style type="text/css">
*{stroke-linecap:butt;stroke-linejoin:round;}
  </style>
 </defs>
 <g id="figure_1">
  <g id="patch_1">
   <path d="M 0 581.789375 
L 574.2 581.789375 
L 574.2 0 
L 0 0 
z
" style="fill:none;"/>
  </g>
  <g id="axes_1">
   <g id="patch_2">
    <path d="M 36 402.93 
L 538.2 402.93 
L 538.2 36 
L 36 36 
z
" style="fill:none;"/>
   </g>
   <g id="PolyCollection_1">
    <defs>
     <path d="M 58.827273 -195.538011 
L 58.827273 -195.650004 
L 63.288764 -195.692234 
L 67.750256 -195.749007 
L 72.211747 -195.8248 
L 76.673239 -195.925281 
L 81.13473 -196.057565 
L 85.596222 -196.230497 
L 90.057713 -196.454982 
L 94.519205 -196.744335 
L 98.980697 -197.114666 
L 103.442188 -197.585273 
L 107.90368 -198.179047 
L 112.365171 -198.922859 
L 116.826663 -199.847921 
L 121.288154 -200.990079 
L 125.749646 -202.390029 
L 130.211137 -204.093399 
L 134.672629 -206.150691 
L 139.13412 -208.617009 
L 143.595612 -211.551575 
L 148.057103 -215.016962 
L 152.518595 -219.078053 
L 156.980087 -223.800667 
L 161.441578 -229.249878 
L 165.90307 -235.488004 
L 170.364561 -242.572312 
L 174.826053 -250.552459 
L 179.287544 -259.467747 
L 183.749036 -269.344261 
L 188.210527 -280.192004 
L 192.672019 -292.002137 
L 197.13351 -304.744465 
L 201.595002 -318.365297 
L 206.056493 -332.785841 
L 210.517985 -347.901251 
L 214.979477 -363.580456 
L 219.440968 -379.666871 
L 223.90246 -395.980052 
L 228.363951 -412.31833 
L 232.825443 -428.4624 
L 237.286934 -444.179822 
L 241.748426 -459.230303 
L 246.209917 -473.371627 
L 250.671409 -486.366018 
L 255.1329 -497.986726 
L 259.594392 -508.02457 
L 264.055883 -516.294181 
L 268.517375 -522.639693 
L 272.978867 -526.939623 
L 277.440358 -529.110739 
L 281.90185 -529.110739 
L 286.363341 -526.939623 
L 290.824833 -522.639693 
L 295.286324 -516.294181 
L 299.747816 -508.02457 
L 304.209307 -497.986726 
L 308.670799 -486.366018 
L 313.13229 -473.371627 
L 317.593782 -459.230303 
L 322.055273 -444.179822 
L 326.516765 -428.4624 
L 330.978257 -412.31833 
L 335.439748 -395.980052 
L 339.90124 -379.666871 
L 344.362731 -363.580456 
L 348.824223 -347.901251 
L 353.285714 -332.785841 
L 357.747206 -318.365297 
L 362.208697 -304.744465 
L 366.670189 -292.002137 
L 371.13168 -280.192004 
L 375.593172 -269.344261 
L 380.054663 -259.467747 
L 384.516155 -250.552459 
L 388.977647 -242.572312 
L 393.439138 -235.488004 
L 397.90063 -229.249878 
L 402.362121 -223.800667 
L 406.823613 -219.078053 
L 411.285104 -215.016962 
L 415.746596 -211.551575 
L 420.208087 -208.617009 
L 424.669579 -206.150691 
L 429.13107 -204.093399 
L 433.592562 -202.390029 
L 438.054053 -200.990079 
L 442.515545 -199.847921 
L 446.977037 -198.922859 
L 451.438528 -198.179047 
L 455.90002 -197.585273 
L 460.361511 -197.114666 
L 464.823003 -196.744335 
L 469.284494 -196.454982 
L 473.745986 -196.230497 
L 478.207477 -196.057565 
L 482.668969 -195.925281 
L 487.13046 -195.8248 
L 491.591952 -195.749007 
L 496.053443 -195.692234 
L 500.514935 -195.650004 
L 500.514935 -195.538011 
L 500.514935 -195.538011 
L 496.053443 -195.538011 
L 491.591952 -195.538011 
L 487.13046 -195.538011 
L 482.668969 -195.538011 
L 478.207477 -195.538011 
L 473.745986 -195.538011 
L 469.284494 -195.538011 
L 464.823003 -195.538011 
L 460.361511 -195.538011 
L 455.90002 -195.538011 
L 451.438528 -195.538011 
L 446.977037 -195.538011 
L 442.515545 -195.538011 
L 438.054053 -195.538011 
L 433.592562 -195.538011 
L 429.13107 -195.538011 
L 424.669579 -195.538011 
L 420.208087 -195.538011 
L 415.746596 -195.538011 
L 411.285104 -195.538011 
L 406.823613 -195.538011 
L 402.362121 -195.538011 
L 397.90063 -195.538011 
L 393.439138 -195.538011 
L 388.977647 -195.538011 
L 384.516155 -195.538011 
L 380.054663 -195.538011 
L 375.593172 -195.538011 
L 371.13168 -195.538011 
L 366.670189 -195.538011 
L 362.208697 -195.538011 
L 357.747206 -195.538011 
L 353.285714 -195.538011 
L 348.824223 -195.538011 
L 344.362731 -195.538011 
L 339.90124 -195.538011 
L 335.439748 -195.538011 
L 330.978257 -195.538011 
L 326.516765 -195.538011 
L 322.055273 -195.538011 
L 317.593782 -195.538011 
L 313.13229 -195.538011 
L 308.670799 -195.538011 
L 304.209307 -195.538011 
L 299.747816 -195.538011 
L 295.286324 -195.538011 
L 290.824833 -195.538011 
L 286.363341 -195.538011 
L 281.90185 -195.538011 
L 277.440358 -195.538011 
L 272.978867 -195.538011 
L 268.517375 -195.538011 
L 264.055883 -195.538011 
L 259.594392 -195.538011 
L 255.1329 -195.538011 
L 250.671409 -195.538011 
L 246.209917 -195.538011 
L 241.748426 -195.538011 
L 237.286934 -195.538011 
L 232.825443 -195.538011 
L 228.363951 -195.538011 
L 223.90246 -195.538011 
L 219.440968 -195.538011 
L 214.979477 -195.538011 
L 210.517985 -195.538011 
L 206.056493 -195.538011 
L 201.595002 -195.538011 
L 197.13351 -195.538011 
L 192.672019 -195.538011 
L 188.210527 -195.538011 
L 183.749036 -195.538011 
L 179.287544 -195.538011 
L 174.826053 -195.538011 
L 170.364561 -195.538011 
L 165.90307 -195.538011 
L 161.441578 -195.538011 
L 156.980087 -195.538011 
L 152.518595 -195.538011 
L 148.057103 -195.538011 
L 143.595612 -195.538011 
L 139.13412 -195.538011 
L 134.672629 -195.538011 
L 130.211137 -195.538011 
L 125.749646 -195.538011 
L 121.288154 -195.538011 
L 116.826663 -195.538011 
L 112.365171 -195.538011 
L 107.90368 -195.538011 
L 103.442188 -195.538011 
L 98.980697 -195.538011 
L 94.519205 -195.538011 
L 90.057713 -195.538011 
L 85.596222 -195.538011 
L 81.13473 -195.538011 
L 76.673239 -195.538011 
L 72.211747 -195.538011 
L 67.750256 -195.538011 
L 63.288764 -195.538011 
L 58.827273 -195.538011 
z
" id="mcd826c7594" style="stroke:#ff6384;stroke-opacity:0.5;"/>
    </defs>
    <g clip-path="url(#p0ae0d3d0e7)">
     <use style="fill:#ff6384;fill-opacity:0.5;stroke:#ff6384;stroke-opacity:0.5;" x="0" xlink:href="#mcd826c7594" y="581.789375"/>
    </g>
   </g>
   <g id="PolyCollection_2">
    <defs>
     <path d="M 65.305508 -195.538011 
L 65.305508 -195.647919 
L 69.851642 -195.689363 
L 74.397775 -195.745079 
L 78.943909 -195.81946 
L 83.490042 -195.918071 
L 88.036176 -196.047892 
L 92.582309 -196.217604 
L 97.128443 -196.437909 
L 101.674576 -196.721875 
L 106.22071 -197.085311 
L 110.766843 -197.547156 
L 115.312977 -198.129875 
L 119.85911 -198.859838 
L 124.405244 -199.767677 
L 128.951377 -200.88857 
L 133.497511 -202.262455 
L 138.043644 -203.934111 
L 142.589778 -205.953099 
L 147.135912 -208.373499 
L 151.682045 -211.253427 
L 156.228179 -214.654294 
L 160.774312 -218.639774 
L 165.320446 -223.27446 
L 169.866579 -228.622215 
L 174.412713 -234.744197 
L 178.958846 -241.696606 
L 183.50498 -249.528175 
L 188.051113 -258.277474 
L 192.597247 -267.970102 
L 197.14338 -278.615877 
L 201.689514 -290.206124 
L 206.235647 -302.711209 
L 210.781781 -316.078443 
L 215.327914 -330.230498 
L 219.874048 -345.064483 
L 224.420181 -360.451765 
L 228.966315 -376.238676 
L 233.512449 -392.248131 
L 238.058582 -408.282215 
L 242.604716 -424.125707 
L 247.150849 -439.550495 
L 251.696983 -454.320759 
L 256.243116 -468.198794 
L 260.78925 -480.951249 
L 265.335383 -492.355598 
L 269.881517 -502.206552 
L 274.42765 -510.322196 
L 278.973784 -516.549565 
L 283.519917 -520.769437 
L 288.066051 -522.900129 
L 292.612184 -522.900129 
L 297.158318 -520.769437 
L 301.704451 -516.549565 
L 306.250585 -510.322196 
L 310.796719 -502.206552 
L 315.342852 -492.355598 
L 319.888986 -480.951249 
L 324.435119 -468.198794 
L 328.981253 -454.320759 
L 333.527386 -439.550495 
L 338.07352 -424.125707 
L 342.619653 -408.282215 
L 347.165787 -392.248131 
L 351.71192 -376.238676 
L 356.258054 -360.451765 
L 360.804187 -345.064483 
L 365.350321 -330.230498 
L 369.896454 -316.078443 
L 374.442588 -302.711209 
L 378.988721 -290.206124 
L 383.534855 -278.615877 
L 388.080988 -267.970102 
L 392.627122 -258.277474 
L 397.173256 -249.528175 
L 401.719389 -241.696606 
L 406.265523 -234.744197 
L 410.811656 -228.622215 
L 415.35779 -223.27446 
L 419.903923 -218.639774 
L 424.450057 -214.654294 
L 428.99619 -211.253427 
L 433.542324 -208.373499 
L 438.088457 -205.953099 
L 442.634591 -203.934111 
L 447.180724 -202.262455 
L 451.726858 -200.88857 
L 456.272991 -199.767677 
L 460.819125 -198.859838 
L 465.365258 -198.129875 
L 469.911392 -197.547156 
L 474.457526 -197.085311 
L 479.003659 -196.721875 
L 483.549793 -196.437909 
L 488.095926 -196.217604 
L 492.64206 -196.047892 
L 497.188193 -195.918071 
L 501.734327 -195.81946 
L 506.28046 -195.745079 
L 510.826594 -195.689363 
L 515.372727 -195.647919 
L 515.372727 -195.538011 
L 515.372727 -195.538011 
L 510.826594 -195.538011 
L 506.28046 -195.538011 
L 501.734327 -195.538011 
L 497.188193 -195.538011 
L 492.64206 -195.538011 
L 488.095926 -195.538011 
L 483.549793 -195.538011 
L 479.003659 -195.538011 
L 474.457526 -195.538011 
L 469.911392 -195.538011 
L 465.365258 -195.538011 
L 460.819125 -195.538011 
L 456.272991 -195.538011 
L 451.726858 -195.538011 
L 447.180724 -195.538011 
L 442.634591 -195.538011 
L 438.088457 -195.538011 
L 433.542324 -195.538011 
L 428.99619 -195.538011 
L 424.450057 -195.538011 
L 419.903923 -195.538011 
L 415.35779 -195.538011 
L 410.811656 -195.538011 
L 406.265523 -195.538011 
L 401.719389 -195.538011 
L 397.173256 -195.538011 
L 392.627122 -195.538011 
L 388.080988 -195.538011 
L 383.534855 -195.538011 
L 378.988721 -195.538011 
L 374.442588 -195.538011 
L 369.896454 -195.538011 
L 365.350321 -195.538011 
L 360.804187 -195.538011 
L 356.258054 -195.538011 
L 351.71192 -195.538011 
L 347.165787 -195.538011 
L 342.619653 -195.538011 
L 338.07352 -195.538011 
L 333.527386 -195.538011 
L 328.981253 -195.538011 
L 324.435119 -195.538011 
L 319.888986 -195.538011 
L 315.342852 -195.538011 
L 310.796719 -195.538011 
L 306.250585 -195.538011 
L 301.704451 -195.538011 
L 297.158318 -195.538011 
L 292.612184 -195.538011 
L 288.066051 -195.538011 
L 283.519917 -195.538011 
L 278.973784 -195.538011 
L 274.42765 -195.538011 
L 269.881517 -195.538011 
L 265.335383 -195.538011 
L 260.78925 -195.538011 
L 256.243116 -195.538011 
L 251.696983 -195.538011 
L 247.150849 -195.538011 
L 242.604716 -195.538011 
L 238.058582 -195.538011 
L 233.512449 -195.538011 
L 228.966315 -195.538011 
L 224.420181 -195.538011 
L 219.874048 -195.538011 
L 215.327914 -195.538011 
L 210.781781 -195.538011 
L 206.235647 -195.538011 
L 201.689514 -195.538011 
L 197.14338 -195.538011 
L 192.597247 -195.538011 
L 188.051113 -195.538011 
L 183.50498 -195.538011 
L 178.958846 -195.538011 
L 174.412713 -195.538011 
L 169.866579 -195.538011 
L 165.320446 -195.538011 
L 160.774312 -195.538011 
L 156.228179 -195.538011 
L 151.682045 -195.538011 
L 147.135912 -195.538011 
L 142.589778 -195.538011 
L 138.043644 -195.538011 
L 133.497511 -195.538011 
L 128.951377 -195.538011 
L 124.405244 -195.538011 
L 119.85911 -195.538011 
L 115.312977 -195.538011 
L 110.766843 -195.538011 
L 106.22071 -195.538011 
L 101.674576 -195.538011 
L 97.128443 -195.538011 
L 92.582309 -195.538011 
L 88.036176 -195.538011 
L 83.490042 -195.538011 
L 78.943909 -195.538011 
L 74.397775 -195.538011 
L 69.851642 -195.538011 
L 65.305508 -195.538011 
z
" id="m0567100d88" style="stroke:#36a2eb;stroke-opacity:0.5;"/>
    </defs>
    <g clip-path="url(#p0ae0d3d0e7)">
     <use style="fill:#36a2eb;fill-opacity:0.5;stroke:#36a2eb;stroke-opacity:0.5;" x="0" xlink:href="#m0567100d88" y="581.789375"/>
    </g>
   </g>
   <g id="line2d_1">
    <path clip-path="url(#p0ae0d3d0e7)" d="M 58.827273 386.139371 
L 63.288764 386.097141 
L 67.750256 386.040368 
L 72.211747 385.964575 
L 76.673239 385.864094 
L 81.13473 385.73181 
L 85.596222 385.558878 
L 90.057713 385.334393 
L 94.519205 385.04504 
L 98.980697 384.674709 
L 103.442188 384.204102 
L 107.90368 383.610328 
L 112.365171 382.866516 
L 116.826663 381.941454 
L 121.288154 380.799296 
L 125.749646 379.399346 
L 130.211137 377.695976 
L 134.672629 375.638684 
L 139.13412 373.172366 
L 143.595612 370.2378 
L 148.057103 366.772413 
L 152.518595 362.711322 
L 156.980087 357.988708 
L 161.441578 352.539497 
L 165.90307 346.301371 
L 170.364561 339.217063 
L 174.826053 331.236916 
L 179.287544 322.321628 
L 183.749036 312.445114 
L 188.210527 301.597371 
L 192.672019 289.787238 
L 197.13351 277.04491 
L 201.595002 263.424078 
L 206.056493 249.003534 
L 210.517985 233.888124 
L 214.979477 218.208919 
L 219.440968 202.122504 
L 223.90246 185.809323 
L 228.363951 169.471045 
L 232.825443 153.326975 
L 237.286934 137.609553 
L 241.748426 122.559072 
L 246.209917 108.417748 
L 250.671409 95.423357 
L 255.1329 83.802649 
L 259.594392 73.764805 
L 264.055883 65.495194 
L 268.517375 59.149682 
L 272.978867 54.849752 
L 277.440358 52.678636 
L 281.90185 52.678636 
L 286.363341 54.849752 
L 290.824833 59.149682 
L 295.286324 65.495194 
L 299.747816 73.764805 
L 304.209307 83.802649 
L 308.670799 95.423357 
L 313.13229 108.417748 
L 317.593782 122.559072 
L 322.055273 137.609553 
L 326.516765 153.326975 
L 330.978257 169.471045 
L 335.439748 185.809323 
L 339.90124 202.122504 
L 344.362731 218.208919 
L 348.824223 233.888124 
L 353.285714 249.003534 
L 357.747206 263.424078 
L 362.208697 277.04491 
L 366.670189 289.787238 
L 371.13168 301.597371 
L 375.593172 312.445114 
L 380.054663 322.321628 
L 384.516155 331.236916 
L 388.977647 339.217063 
L 393.439138 346.301371 
L 397.90063 352.539497 
L 402.362121 357.988708 
L 406.823613 362.711322 
L 411.285104 366.772413 
L 415.746596 370.2378 
L 420.208087 373.172366 
L 424.669579 375.638684 
L 429.13107 377.695976 
L 433.592562 379.399346 
L 438.054053 380.799296 
L 442.515545 381.941454 
L 446.977037 382.866516 
L 451.438528 383.610328 
L 455.90002 384.204102 
L 460.361511 384.674709 
L 464.823003 385.04504 
L 469.284494 385.334393 
L 473.745986 385.558878 
L 478.207477 385.73181 
L 482.668969 385.864094 
L 487.13046 385.964575 
L 491.591952 386.040368 
L 496.053443 386.097141 
L 500.514935 386.139371 
" style="fill:none;stroke:#ff6384;stroke-linecap:square;"/>
   </g>
   <g id="line2d_2">
    <path clip-path="url(#p0ae0d3d0e7)" d="M 65.305508 386.141456 
L 69.851642 386.100012 
L 74.397775 386.044296 
L 78.943909 385.969915 
L 83.490042 385.871304 
L 88.036176 385.741483 
L 92.582309 385.571771 
L 97.128443 385.351466 
L 101.674576 385.0675 
L 106.22071 384.704064 
L 110.766843 384.242219 
L 115.312977 383.6595 
L 119.85911 382.929537 
L 124.405244 382.021698 
L 128.951377 380.900805 
L 133.497511 379.52692 
L 138.043644 377.855264 
L 142.589778 375.836276 
L 147.135912 373.415876 
L 151.682045 370.535948 
L 156.228179 367.135081 
L 160.774312 363.149601 
L 165.320446 358.514915 
L 169.866579 353.16716 
L 174.412713 347.045178 
L 178.958846 340.092769 
L 183.50498 332.2612 
L 188.051113 323.511901 
L 192.597247 313.819273 
L 197.14338 303.173498 
L 201.689514 291.583251 
L 206.235647 279.078166 
L 210.781781 265.710932 
L 215.327914 251.558877 
L 219.874048 236.724892 
L 224.420181 221.33761 
L 228.966315 205.550699 
L 233.512449 189.541244 
L 238.058582 173.50716 
L 242.604716 157.663668 
L 247.150849 142.23888 
L 251.696983 127.468616 
L 256.243116 113.590581 
L 260.78925 100.838126 
L 265.335383 89.433777 
L 269.881517 79.582823 
L 274.42765 71.467179 
L 278.973784 65.23981 
L 283.519917 61.019938 
L 288.066051 58.889246 
L 292.612184 58.889246 
L 297.158318 61.019938 
L 301.704451 65.23981 
L 306.250585 71.467179 
L 310.796719 79.582823 
L 315.342852 89.433777 
L 319.888986 100.838126 
L 324.435119 113.590581 
L 328.981253 127.468616 
L 333.527386 142.23888 
L 338.07352 157.663668 
L 342.619653 173.50716 
L 347.165787 189.541244 
L 351.71192 205.550699 
L 356.258054 221.33761 
L 360.804187 236.724892 
L 365.350321 251.558877 
L 369.896454 265.710932 
L 374.442588 279.078166 
L 378.988721 291.583251 
L 383.534855 303.173498 
L 388.080988 313.819273 
L 392.627122 323.511901 
L 397.173256 332.2612 
L 401.719389 340.092769 
L 406.265523 347.045178 
L 410.811656 353.16716 
L 415.35779 358.514915 
L 419.903923 363.149601 
L 424.450057 367.135081 
L 428.99619 370.535948 
L 433.542324 373.415876 
L 438.088457 375.836276 
L 442.634591 377.855264 
L 447.180724 379.52692 
L 451.726858 380.900805 
L 456.272991 382.021698 
L 460.819125 382.929537 
L 465.365258 383.6595 
L 469.911392 384.242219 
L 474.457526 384.704064 
L 479.003659 385.0675 
L 483.549793 385.351466 
L 488.095926 385.571771 
L 492.64206 385.741483 
L 497.188193 385.871304 
L 501.734327 385.969915 
L 506.28046 386.044296 
L 510.826594 386.100012 
L 515.372727 386.141456 
" style="fill:none;stroke:#36a2eb;stroke-linecap:square;"/>
   </g>
   <g id="patch_3">
    <path d="M 36 402.93 
L 538.2 402.93 
" style="fill:none;stroke:#000000;stroke-linecap:square;stroke-linejoin:miter;stroke-width:0.8;"/>
   </g>
   <g id="legend_1">
    <g id="patch_4">
     <path d="M 450.225313 88.29875 
L 528.4 88.29875 
Q 531.2 88.29875 531.2 85.49875 
L 531.2 45.8 
Q 531.2 43 528.4 43 
L 450.225313 43 
Q 447.425313 43 447.425313 45.8 
L 447.425313 85.49875 
Q 447.425313 88.29875 450.225313 88.29875 
z
" style="fill:#ffffff;opacity:0.8;stroke:#cccccc;stroke-linejoin:miter;"/>
    </g>
    <g id="patch_5">
     <path d="M 453.025313 59.237813 
L 481.025313 59.237813 
L 481.025313 49.437813 
L 453.025313 49.437813 
z
" style="fill:#ff6384;opacity:0.5;stroke:#ff6384;stroke-linejoin:miter;"/>
    </g>
    <g id="text_1">
     <!-- base -->
     <defs>
      <path d="M 48.6875 27.296875 
Q 48.6875 37.203125 44.609375 42.84375 
Q 40.53125 48.484375 33.40625 48.484375 
Q 26.265625 48.484375 22.1875 42.84375 
Q 18.109375 37.203125 18.109375 27.296875 
Q 18.109375 17.390625 22.1875 11.75 
Q 26.265625 6.109375 33.40625 6.109375 
Q 40.53125 6.109375 44.609375 11.75 
Q 48.6875 17.390625 48.6875 27.296875 
z
M 18.109375 46.390625 
Q 20.953125 51.265625 25.265625 53.625 
Q 29.59375 56 35.59375 56 
Q 45.5625 56 51.78125 48.09375 
Q 58.015625 40.1875 58.015625 27.296875 
Q 58.015625 14.40625 51.78125 6.484375 
Q 45.5625 -1.421875 35.59375 -1.421875 
Q 29.59375 -1.421875 25.265625 0.953125 
Q 20.953125 3.328125 18.109375 8.203125 
L 18.109375 0 
L 9.078125 0 
L 9.078125 75.984375 
L 18.109375 75.984375 
z
" id="DejaVuSans-98"/>
      <path d="M 34.28125 27.484375 
Q 23.390625 27.484375 19.1875 25 
Q 14.984375 22.515625 14.984375 16.5 
Q 14.984375 11.71875 18.140625 8.90625 
Q 21.296875 6.109375 26.703125 6.109375 
Q 34.1875 6.109375 38.703125 11.40625 
Q 43.21875 16.703125 43.21875 25.484375 
L 43.21875 27.484375 
z
M 52.203125 31.203125 
L 52.203125 0 
L 43.21875 0 
L 43.21875 8.296875 
Q 40.140625 3.328125 35.546875 0.953125 
Q 30.953125 -1.421875 24.3125 -1.421875 
Q 15.921875 -1.421875 10.953125 3.296875 
Q 6 8.015625 6 15.921875 
Q 6 25.140625 12.171875 29.828125 
Q 18.359375 34.515625 30.609375 34.515625 
L 43.21875 34.515625 
L 43.21875 35.40625 
Q 43.21875 41.609375 39.140625 45 
Q 35.0625 48.390625 27.6875 48.390625 
Q 23 48.390625 18.546875 47.265625 
Q 14.109375 46.140625 10.015625 43.890625 
L 10.015625 52.203125 
Q 14.9375 54.109375 19.578125 55.046875 
Q 24.21875 56 28.609375 56 
Q 40.484375 56 46.34375 49.84375 
Q 52.203125 43.703125 52.203125 31.203125 
z
" id="DejaVuSans-97"/>
      <path d="M 44.28125 53.078125 
L 44.28125 44.578125 
Q 40.484375 46.53125 36.375 47.5 
Q 32.28125 48.484375 27.875 48.484375 
Q 21.1875 48.484375 17.84375 46.4375 
Q 14.5 44.390625 14.5 40.28125 
Q 14.5 37.15625 16.890625 35.375 
Q 19.28125 33.59375 26.515625 31.984375 
L 29.59375 31.296875 
Q 39.15625 29.25 43.1875 25.515625 
Q 47.21875 21.78125 47.21875 15.09375 
Q 47.21875 7.46875 41.1875 3.015625 
Q 35.15625 -1.421875 24.609375 -1.421875 
Q 20.21875 -1.421875 15.453125 -0.5625 
Q 10.6875 0.296875 5.421875 2 
L 5.421875 11.28125 
Q 10.40625 8.6875 15.234375 7.390625 
Q 20.0625 6.109375 24.8125 6.109375 
Q 31.15625 6.109375 34.5625 8.28125 
Q 37.984375 10.453125 37.984375 14.40625 
Q 37.984375 18.0625 35.515625 20.015625 
Q 33.0625 21.96875 24.703125 23.78125 
L 21.578125 24.515625 
Q 13.234375 26.265625 9.515625 29.90625 
Q 5.8125 33.546875 5.8125 39.890625 
Q 5.8125 47.609375 11.28125 51.796875 
Q 16.75 56 26.8125 56 
Q 31.78125 56 36.171875 55.265625 
Q 40.578125 54.546875 44.28125 53.078125 
z
" id="DejaVuSans-115"/>
      <path d="M 56.203125 29.59375 
L 56.203125 25.203125 
L 14.890625 25.203125 
Q 15.484375 15.921875 20.484375 11.0625 
Q 25.484375 6.203125 34.421875 6.203125 
Q 39.59375 6.203125 44.453125 7.46875 
Q 49.3125 8.734375 54.109375 11.28125 
L 54.109375 2.78125 
Q 49.265625 0.734375 44.1875 -0.34375 
Q 39.109375 -1.421875 33.890625 -1.421875 
Q 20.796875 -1.421875 13.15625 6.1875 
Q 5.515625 13.8125 5.515625 26.8125 
Q 5.515625 40.234375 12.765625 48.109375 
Q 20.015625 56 32.328125 56 
Q 43.359375 56 49.78125 48.890625 
Q 56.203125 41.796875 56.203125 29.59375 
z
M 47.21875 32.234375 
Q 47.125 39.59375 43.09375 43.984375 
Q 39.0625 48.390625 32.421875 48.390625 
Q 24.90625 48.390625 20.390625 44.140625 
Q 15.875 39.890625 15.1875 32.171875 
z
" id="DejaVuSans-101"/>
     </defs>
     <g transform="translate(492.225313 59.237813)scale(0.14 -0.14)">
      <use xlink:href="#DejaVuSans-98"/>
      <use x="63.476562" xlink:href="#DejaVuSans-97"/>
      <use x="124.755859" xlink:href="#DejaVuSans-115"/>
      <use x="176.855469" xlink:href="#DejaVuSans-101"/>
     </g>
    </g>
    <g id="patch_6">
     <path d="M 453.025313 79.787188 
L 481.025313 79.787188 
L 481.025313 69.987188 
L 453.025313 69.987188 
z
" style="fill:#36a2eb;opacity:0.5;stroke:#36a2eb;stroke-linejoin:miter;"/>
    </g>
    <g id="text_2">
     <!-- subs -->
     <defs>
      <path d="M 8.5 21.578125 
L 8.5 54.6875 
L 17.484375 54.6875 
L 17.484375 21.921875 
Q 17.484375 14.15625 20.5 10.265625 
Q 23.53125 6.390625 29.59375 6.390625 
Q 36.859375 6.390625 41.078125 11.03125 
Q 45.3125 15.671875 45.3125 23.6875 
L 45.3125 54.6875 
L 54.296875 54.6875 
L 54.296875 0 
L 45.3125 0 
L 45.3125 8.40625 
Q 42.046875 3.421875 37.71875 1 
Q 33.40625 -1.421875 27.6875 -1.421875 
Q 18.265625 -1.421875 13.375 4.4375 
Q 8.5 10.296875 8.5 21.578125 
z
M 31.109375 56 
z
" id="DejaVuSans-117"/>
     </defs>
     <g transform="translate(492.225313 79.787188)scale(0.14 -0.14)">
      <use xlink:href="#DejaVuSans-115"/>
      <use x="52.099609" xlink:href="#DejaVuSans-117"/>
      <use x="115.478516" xlink:href="#DejaVuSans-98"/>
      <use x="178.955078" xlink:href="#DejaVuSans-115"/>
     </g>
    </g>
   </g>
  </g>
  <g id="axes_2">
   <g id="patch_7">
    <path d="M 36 525.24 
L 538.2 525.24 
L 538.2 402.93 
L 36 402.93 
z
" style="fill:none;"/>
   </g>
   <g id="patch_8">
    <path clip-path="url(#paf213aaf87)" d="M 171.457627 519.680455 
L 387.884581 519.680455 
L 387.884581 482.616818 
L 171.457627 482.616818 
z
" style="fill:#ff6384;opacity:0.5;"/>
   </g>
   <g id="patch_9">
    <path clip-path="url(#paf213aaf87)" d="M 180.072649 445.553182 
L 400.605586 445.553182 
L 400.605586 408.489545 
L 180.072649 408.489545 
z
" style="fill:#36a2eb;opacity:0.5;"/>
   </g>
   <g id="matplotlib.axis_1">
    <g id="xtick_1">
     <g id="line2d_3">
      <defs>
       <path d="M 0 0 
L 0 3.5 
" id="m254c4f809d" style="stroke:#000000;stroke-width:0.8;"/>
      </defs>
      <g>
       <use style="stroke:#000000;stroke-width:0.8;" x="68.871151" xlink:href="#m254c4f809d" y="525.24"/>
      </g>
     </g>
     <g id="text_3">
      <!-- 8 -->
      <defs>
       <path d="M 31.78125 34.625 
Q 24.75 34.625 20.71875 30.859375 
Q 16.703125 27.09375 16.703125 20.515625 
Q 16.703125 13.921875 20.71875 10.15625 
Q 24.75 6.390625 31.78125 6.390625 
Q 38.8125 6.390625 42.859375 10.171875 
Q 46.921875 13.96875 46.921875 20.515625 
Q 46.921875 27.09375 42.890625 30.859375 
Q 38.875 34.625 31.78125 34.625 
z
M 21.921875 38.8125 
Q 15.578125 40.375 12.03125 44.71875 
Q 8.5 49.078125 8.5 55.328125 
Q 8.5 64.0625 14.71875 69.140625 
Q 20.953125 74.21875 31.78125 74.21875 
Q 42.671875 74.21875 48.875 69.140625 
Q 55.078125 64.0625 55.078125 55.328125 
Q 55.078125 49.078125 51.53125 44.71875 
Q 48 40.375 41.703125 38.8125 
Q 48.828125 37.15625 52.796875 32.3125 
Q 56.78125 27.484375 56.78125 20.515625 
Q 56.78125 9.90625 50.3125 4.234375 
Q 43.84375 -1.421875 31.78125 -1.421875 
Q 19.734375 -1.421875 13.25 4.234375 
Q 6.78125 9.90625 6.78125 20.515625 
Q 6.78125 27.484375 10.78125 32.3125 
Q 14.796875 37.15625 21.921875 38.8125 
z
M 18.3125 54.390625 
Q 18.3125 48.734375 21.84375 45.5625 
Q 25.390625 42.390625 31.78125 42.390625 
Q 38.140625 42.390625 41.71875 45.5625 
Q 45.3125 48.734375 45.3125 54.390625 
Q 45.3125 60.0625 41.71875 63.234375 
Q 38.140625 66.40625 31.78125 66.40625 
Q 25.390625 66.40625 21.84375 63.234375 
Q 18.3125 60.0625 18.3125 54.390625 
z
" id="DejaVuSans-56"/>
      </defs>
      <g transform="translate(64.417401 542.877813)scale(0.14 -0.14)">
       <use xlink:href="#DejaVuSans-56"/>
      </g>
     </g>
    </g>
    <g id="xtick_2">
     <g id="line2d_4">
      <g>
       <use style="stroke:#000000;stroke-width:0.8;" x="154.215262" xlink:href="#m254c4f809d" y="525.24"/>
      </g>
     </g>
     <g id="text_4">
      <!-- 10 -->
      <defs>
       <path d="M 12.40625 8.296875 
L 28.515625 8.296875 
L 28.515625 63.921875 
L 10.984375 60.40625 
L 10.984375 69.390625 
L 28.421875 72.90625 
L 38.28125 72.90625 
L 38.28125 8.296875 
L 54.390625 8.296875 
L 54.390625 0 
L 12.40625 0 
z
" id="DejaVuSans-49"/>
       <path d="M 31.78125 66.40625 
Q 24.171875 66.40625 20.328125 58.90625 
Q 16.5 51.421875 16.5 36.375 
Q 16.5 21.390625 20.328125 13.890625 
Q 24.171875 6.390625 31.78125 6.390625 
Q 39.453125 6.390625 43.28125 13.890625 
Q 47.125 21.390625 47.125 36.375 
Q 47.125 51.421875 43.28125 58.90625 
Q 39.453125 66.40625 31.78125 66.40625 
z
M 31.78125 74.21875 
Q 44.046875 74.21875 50.515625 64.515625 
Q 56.984375 54.828125 56.984375 36.375 
Q 56.984375 17.96875 50.515625 8.265625 
Q 44.046875 -1.421875 31.78125 -1.421875 
Q 19.53125 -1.421875 13.0625 8.265625 
Q 6.59375 17.96875 6.59375 36.375 
Q 6.59375 54.828125 13.0625 64.515625 
Q 19.53125 74.21875 31.78125 74.21875 
z
" id="DejaVuSans-48"/>
      </defs>
      <g transform="translate(145.307762 542.877813)scale(0.14 -0.14)">
       <use xlink:href="#DejaVuSans-49"/>
       <use x="63.623047" xlink:href="#DejaVuSans-48"/>
      </g>
     </g>
    </g>
    <g id="xtick_3">
     <g id="line2d_5">
      <g>
       <use style="stroke:#000000;stroke-width:0.8;" x="239.559372" xlink:href="#m254c4f809d" y="525.24"/>
      </g>
     </g>
     <g id="text_5">
      <!-- 12 -->
      <defs>
       <path d="M 19.1875 8.296875 
L 53.609375 8.296875 
L 53.609375 0 
L 7.328125 0 
L 7.328125 8.296875 
Q 12.9375 14.109375 22.625 23.890625 
Q 32.328125 33.6875 34.8125 36.53125 
Q 39.546875 41.84375 41.421875 45.53125 
Q 43.3125 49.21875 43.3125 52.78125 
Q 43.3125 58.59375 39.234375 62.25 
Q 35.15625 65.921875 28.609375 65.921875 
Q 23.96875 65.921875 18.8125 64.3125 
Q 13.671875 62.703125 7.8125 59.421875 
L 7.8125 69.390625 
Q 13.765625 71.78125 18.9375 73 
Q 24.125 74.21875 28.421875 74.21875 
Q 39.75 74.21875 46.484375 68.546875 
Q 53.21875 62.890625 53.21875 53.421875 
Q 53.21875 48.921875 51.53125 44.890625 
Q 49.859375 40.875 45.40625 35.40625 
Q 44.1875 33.984375 37.640625 27.21875 
Q 31.109375 20.453125 19.1875 8.296875 
z
" id="DejaVuSans-50"/>
      </defs>
      <g transform="translate(230.651872 542.877813)scale(0.14 -0.14)">
       <use xlink:href="#DejaVuSans-49"/>
       <use x="63.623047" xlink:href="#DejaVuSans-50"/>
      </g>
     </g>
    </g>
    <g id="xtick_4">
     <g id="line2d_6">
      <g>
       <use style="stroke:#000000;stroke-width:0.8;" x="324.903482" xlink:href="#m254c4f809d" y="525.24"/>
      </g>
     </g>
     <g id="text_6">
      <!-- 14 -->
      <defs>
       <path d="M 37.796875 64.3125 
L 12.890625 25.390625 
L 37.796875 25.390625 
z
M 35.203125 72.90625 
L 47.609375 72.90625 
L 47.609375 25.390625 
L 58.015625 25.390625 
L 58.015625 17.1875 
L 47.609375 17.1875 
L 47.609375 0 
L 37.796875 0 
L 37.796875 17.1875 
L 4.890625 17.1875 
L 4.890625 26.703125 
z
" id="DejaVuSans-52"/>
      </defs>
      <g transform="translate(315.995982 542.877813)scale(0.14 -0.14)">
       <use xlink:href="#DejaVuSans-49"/>
       <use x="63.623047" xlink:href="#DejaVuSans-52"/>
      </g>
     </g>
    </g>
    <g id="xtick_5">
     <g id="line2d_7">
      <g>
       <use style="stroke:#000000;stroke-width:0.8;" x="410.247593" xlink:href="#m254c4f809d" y="525.24"/>
      </g>
     </g>
     <g id="text_7">
      <!-- 16 -->
      <defs>
       <path d="M 33.015625 40.375 
Q 26.375 40.375 22.484375 35.828125 
Q 18.609375 31.296875 18.609375 23.390625 
Q 18.609375 15.53125 22.484375 10.953125 
Q 26.375 6.390625 33.015625 6.390625 
Q 39.65625 6.390625 43.53125 10.953125 
Q 47.40625 15.53125 47.40625 23.390625 
Q 47.40625 31.296875 43.53125 35.828125 
Q 39.65625 40.375 33.015625 40.375 
z
M 52.59375 71.296875 
L 52.59375 62.3125 
Q 48.875 64.0625 45.09375 64.984375 
Q 41.3125 65.921875 37.59375 65.921875 
Q 27.828125 65.921875 22.671875 59.328125 
Q 17.53125 52.734375 16.796875 39.40625 
Q 19.671875 43.65625 24.015625 45.921875 
Q 28.375 48.1875 33.59375 48.1875 
Q 44.578125 48.1875 50.953125 41.515625 
Q 57.328125 34.859375 57.328125 23.390625 
Q 57.328125 12.15625 50.6875 5.359375 
Q 44.046875 -1.421875 33.015625 -1.421875 
Q 20.359375 -1.421875 13.671875 8.265625 
Q 6.984375 17.96875 6.984375 36.375 
Q 6.984375 53.65625 15.1875 63.9375 
Q 23.390625 74.21875 37.203125 74.21875 
Q 40.921875 74.21875 44.703125 73.484375 
Q 48.484375 72.75 52.59375 71.296875 
z
" id="DejaVuSans-54"/>
      </defs>
      <g transform="translate(401.340093 542.877813)scale(0.14 -0.14)">
       <use xlink:href="#DejaVuSans-49"/>
       <use x="63.623047" xlink:href="#DejaVuSans-54"/>
      </g>
     </g>
    </g>
    <g id="xtick_6">
     <g id="line2d_8">
      <g>
       <use style="stroke:#000000;stroke-width:0.8;" x="495.591703" xlink:href="#m254c4f809d" y="525.24"/>
      </g>
     </g>
     <g id="text_8">
      <!-- 18 -->
      <g transform="translate(486.684203 542.877813)scale(0.14 -0.14)">
       <use xlink:href="#DejaVuSans-49"/>
       <use x="63.623047" xlink:href="#DejaVuSans-56"/>
      </g>
     </g>
    </g>
   </g>
   <g id="line2d_9">
    <path clip-path="url(#paf213aaf87)" d="M 279.671104 525.24 
L 279.671104 402.93 
" style="fill:none;stroke:#ff6384;stroke-dasharray:5.55,2.4;stroke-dashoffset:0;stroke-opacity:0.8;stroke-width:1.5;"/>
   </g>
   <g id="line2d_10">
    <path clip-path="url(#paf213aaf87)" d="M 290.339118 525.24 
L 290.339118 402.93 
" style="fill:none;stroke:#36a2eb;stroke-dasharray:5.55,2.4;stroke-dashoffset:0;stroke-opacity:0.8;stroke-width:1.5;"/>
   </g>
   <g id="patch_10">
    <path d="M 36 525.24 
L 538.2 525.24 
" style="fill:none;stroke:#000000;stroke-linecap:square;stroke-linejoin:miter;stroke-width:0.8;"/>
   </g>
  </g>
 </g>
 <defs>
  <clipPath id="p0ae0d3d0e7">
   <rect height="366.93" width="502.2" x="36" y="36"/>
  </clipPath>
  <clipPath id="paf213aaf87">
   <rect height="122.31" width="502.2" x="36" y="402.93"/>
  </clipPath>
 </defs>
</svg>
