<?xml version="1.0" encoding="utf-8" standalone="no"?>
<!DOCTYPE svg PUBLIC "-//W3C//DTD SVG 1.1//EN"
  "http://www.w3.org/Graphics/SVG/1.1/DTD/svg11.dtd">
<!-- Created with matplotlib (https://matplotlib.org/) -->
<svg height="581.789375pt" version="1.1" viewBox="0 0 574.2 581.789375" width="574.2pt" xmlns="http://www.w3.org/2000/svg" xmlns:xlink="http://www.w3.org/1999/xlink">
 <defs>
  <style type="text/css">
*{stroke-linecap:butt;stroke-linejoin:round;}
  </style>
 </defs>
 <g id="figure_1">
  <g id="patch_1">
   <path d="M 0 581.789375 
L 574.2 581.789375 
L 574.2 0 
L 0 0 
z
" style="fill:none;"/>
  </g>
  <g id="axes_1">
   <g id="patch_2">
    <path d="M 36 402.93 
L 538.2 402.93 
L 538.2 36 
L 36 36 
z
" style="fill:none;"/>
   </g>
   <g id="PolyCollection_1">
    <defs>
     <path d="M 85.942955 -195.538011 
L 85.942955 -195.649378 
L 90.280629 -195.691372 
L 94.618304 -195.747827 
L 98.955978 -195.823196 
L 103.293653 -195.923116 
L 107.631327 -196.05466 
L 111.969002 -196.226625 
L 116.306676 -196.449854 
L 120.644351 -196.73759 
L 124.982025 -197.10585 
L 129.3197 -197.573826 
L 133.657374 -198.164279 
L 137.995049 -198.903933 
L 142.332723 -199.823822 
L 146.670397 -200.959594 
L 151.008072 -202.351716 
L 155.345746 -204.045562 
L 159.683421 -206.09135 
L 164.021095 -208.543878 
L 168.35877 -211.462035 
L 172.696444 -214.908046 
L 177.034119 -218.946429 
L 181.371793 -223.642637 
L 185.709468 -229.061378 
L 190.047142 -235.264624 
L 194.384817 -242.30932 
L 198.722491 -250.244846 
L 203.060166 -259.110284 
L 207.39784 -268.931573 
L 211.735514 -279.718662 
L 216.073189 -291.462759 
L 220.410863 -304.133838 
L 224.748538 -317.678509 
L 229.086212 -332.018421 
L 233.423887 -347.049313 
L 237.761561 -362.640848 
L 242.099236 -378.637316 
L 246.43691 -394.859282 
L 250.774585 -411.106204 
L 255.112259 -427.160005 
L 259.449934 -442.789543 
L 263.787608 -457.755869 
L 268.125283 -471.818122 
L 272.462957 -484.739855 
L 276.800631 -496.295586 
L 281.138306 -506.277303 
L 285.47598 -514.500675 
L 289.813655 -520.810707 
L 294.151329 -525.086593 
L 298.489004 -527.245569 
L 302.826678 -527.245569 
L 307.164353 -525.086593 
L 311.502027 -520.810707 
L 315.839702 -514.500675 
L 320.177376 -506.277303 
L 324.515051 -496.295586 
L 328.852725 -484.739855 
L 333.1904 -471.818122 
L 337.528074 -457.755869 
L 341.865749 -442.789543 
L 346.203423 -427.160005 
L 350.541097 -411.106204 
L 354.878772 -394.859282 
L 359.216446 -378.637316 
L 363.554121 -362.640848 
L 367.891795 -347.049313 
L 372.22947 -332.018421 
L 376.567144 -317.678509 
L 380.904819 -304.133838 
L 385.242493 -291.462759 
L 389.580168 -279.718662 
L 393.917842 -268.931573 
L 398.255517 -259.110284 
L 402.593191 -250.244846 
L 406.930866 -242.30932 
L 411.26854 -235.264624 
L 415.606214 -229.061378 
L 419.943889 -223.642637 
L 424.281563 -218.946429 
L 428.619238 -214.908046 
L 432.956912 -211.462035 
L 437.294587 -208.543878 
L 441.632261 -206.09135 
L 445.969936 -204.045562 
L 450.30761 -202.351716 
L 454.645285 -200.959594 
L 458.982959 -199.823822 
L 463.320634 -198.903933 
L 467.658308 -198.164279 
L 471.995983 -197.573826 
L 476.333657 -197.10585 
L 480.671332 -196.73759 
L 485.009006 -196.449854 
L 489.34668 -196.226625 
L 493.684355 -196.05466 
L 498.022029 -195.923116 
L 502.359704 -195.823196 
L 506.697378 -195.747827 
L 511.035053 -195.691372 
L 515.372727 -195.649378 
L 515.372727 -195.538011 
L 515.372727 -195.538011 
L 511.035053 -195.538011 
L 506.697378 -195.538011 
L 502.359704 -195.538011 
L 498.022029 -195.538011 
L 493.684355 -195.538011 
L 489.34668 -195.538011 
L 485.009006 -195.538011 
L 480.671332 -195.538011 
L 476.333657 -195.538011 
L 471.995983 -195.538011 
L 467.658308 -195.538011 
L 463.320634 -195.538011 
L 458.982959 -195.538011 
L 454.645285 -195.538011 
L 450.30761 -195.538011 
L 445.969936 -195.538011 
L 441.632261 -195.538011 
L 437.294587 -195.538011 
L 432.956912 -195.538011 
L 428.619238 -195.538011 
L 424.281563 -195.538011 
L 419.943889 -195.538011 
L 415.606214 -195.538011 
L 411.26854 -195.538011 
L 406.930866 -195.538011 
L 402.593191 -195.538011 
L 398.255517 -195.538011 
L 393.917842 -195.538011 
L 389.580168 -195.538011 
L 385.242493 -195.538011 
L 380.904819 -195.538011 
L 376.567144 -195.538011 
L 372.22947 -195.538011 
L 367.891795 -195.538011 
L 363.554121 -195.538011 
L 359.216446 -195.538011 
L 354.878772 -195.538011 
L 350.541097 -195.538011 
L 346.203423 -195.538011 
L 341.865749 -195.538011 
L 337.528074 -195.538011 
L 333.1904 -195.538011 
L 328.852725 -195.538011 
L 324.515051 -195.538011 
L 320.177376 -195.538011 
L 315.839702 -195.538011 
L 311.502027 -195.538011 
L 307.164353 -195.538011 
L 302.826678 -195.538011 
L 298.489004 -195.538011 
L 294.151329 -195.538011 
L 289.813655 -195.538011 
L 285.47598 -195.538011 
L 281.138306 -195.538011 
L 276.800631 -195.538011 
L 272.462957 -195.538011 
L 268.125283 -195.538011 
L 263.787608 -195.538011 
L 259.449934 -195.538011 
L 255.112259 -195.538011 
L 250.774585 -195.538011 
L 246.43691 -195.538011 
L 242.099236 -195.538011 
L 237.761561 -195.538011 
L 233.423887 -195.538011 
L 229.086212 -195.538011 
L 224.748538 -195.538011 
L 220.410863 -195.538011 
L 216.073189 -195.538011 
L 211.735514 -195.538011 
L 207.39784 -195.538011 
L 203.060166 -195.538011 
L 198.722491 -195.538011 
L 194.384817 -195.538011 
L 190.047142 -195.538011 
L 185.709468 -195.538011 
L 181.371793 -195.538011 
L 177.034119 -195.538011 
L 172.696444 -195.538011 
L 168.35877 -195.538011 
L 164.021095 -195.538011 
L 159.683421 -195.538011 
L 155.345746 -195.538011 
L 151.008072 -195.538011 
L 146.670397 -195.538011 
L 142.332723 -195.538011 
L 137.995049 -195.538011 
L 133.657374 -195.538011 
L 129.3197 -195.538011 
L 124.982025 -195.538011 
L 120.644351 -195.538011 
L 116.306676 -195.538011 
L 111.969002 -195.538011 
L 107.631327 -195.538011 
L 103.293653 -195.538011 
L 98.955978 -195.538011 
L 94.618304 -195.538011 
L 90.280629 -195.538011 
L 85.942955 -195.538011 
z
" id="me58a905fa0" style="stroke:#ff6384;stroke-opacity:0.5;"/>
    </defs>
    <g clip-path="url(#p976d8963ea)">
     <use style="fill:#ff6384;fill-opacity:0.5;stroke:#ff6384;stroke-opacity:0.5;" x="0" xlink:href="#me58a905fa0" y="581.789375"/>
    </g>
   </g>
   <g id="PolyCollection_2">
    <defs>
     <path d="M 58.827273 -195.538011 
L 58.827273 -195.650004 
L 63.140693 -195.692234 
L 67.454114 -195.749007 
L 71.767534 -195.8248 
L 76.080954 -195.925281 
L 80.394375 -196.057565 
L 84.707795 -196.230497 
L 89.021215 -196.454982 
L 93.334636 -196.744335 
L 97.648056 -197.114666 
L 101.961477 -197.585273 
L 106.274897 -198.179047 
L 110.588317 -198.922859 
L 114.901738 -199.847921 
L 119.215158 -200.990079 
L 123.528579 -202.390029 
L 127.841999 -204.093399 
L 132.155419 -206.150691 
L 136.46884 -208.617009 
L 140.78226 -211.551575 
L 145.095681 -215.016962 
L 149.409101 -219.078053 
L 153.722521 -223.800667 
L 158.035942 -229.249878 
L 162.349362 -235.488004 
L 166.662783 -242.572312 
L 170.976203 -250.552459 
L 175.289623 -259.467747 
L 179.603044 -269.344261 
L 183.916464 -280.192004 
L 188.229885 -292.002137 
L 192.543305 -304.744465 
L 196.856725 -318.365297 
L 201.170146 -332.785841 
L 205.483566 -347.901251 
L 209.796986 -363.580456 
L 214.110407 -379.666871 
L 218.423827 -395.980052 
L 222.737248 -412.31833 
L 227.050668 -428.4624 
L 231.364088 -444.179822 
L 235.677509 -459.230303 
L 239.990929 -473.371627 
L 244.30435 -486.366018 
L 248.61777 -497.986726 
L 252.93119 -508.02457 
L 257.244611 -516.294181 
L 261.558031 -522.639693 
L 265.871452 -526.939623 
L 270.184872 -529.110739 
L 274.498292 -529.110739 
L 278.811713 -526.939623 
L 283.125133 -522.639693 
L 287.438554 -516.294181 
L 291.751974 -508.02457 
L 296.065394 -497.986726 
L 300.378815 -486.366018 
L 304.692235 -473.371627 
L 309.005655 -459.230303 
L 313.319076 -444.179822 
L 317.632496 -428.4624 
L 321.945917 -412.31833 
L 326.259337 -395.980052 
L 330.572757 -379.666871 
L 334.886178 -363.580456 
L 339.199598 -347.901251 
L 343.513019 -332.785841 
L 347.826439 -318.365297 
L 352.139859 -304.744465 
L 356.45328 -292.002137 
L 360.7667 -280.192004 
L 365.080121 -269.344261 
L 369.393541 -259.467747 
L 373.706961 -250.552459 
L 378.020382 -242.572312 
L 382.333802 -235.488004 
L 386.647223 -229.249878 
L 390.960643 -223.800667 
L 395.274063 -219.078053 
L 399.587484 -215.016962 
L 403.900904 -211.551575 
L 408.214325 -208.617009 
L 412.527745 -206.150691 
L 416.841165 -204.093399 
L 421.154586 -202.390029 
L 425.468006 -200.990079 
L 429.781426 -199.847921 
L 434.094847 -198.922859 
L 438.408267 -198.179047 
L 442.721688 -197.585273 
L 447.035108 -197.114666 
L 451.348528 -196.744335 
L 455.661949 -196.454982 
L 459.975369 -196.230497 
L 464.28879 -196.057565 
L 468.60221 -195.925281 
L 472.91563 -195.8248 
L 477.229051 -195.749007 
L 481.542471 -195.692234 
L 485.855892 -195.650004 
L 485.855892 -195.538011 
L 485.855892 -195.538011 
L 481.542471 -195.538011 
L 477.229051 -195.538011 
L 472.91563 -195.538011 
L 468.60221 -195.538011 
L 464.28879 -195.538011 
L 459.975369 -195.538011 
L 455.661949 -195.538011 
L 451.348528 -195.538011 
L 447.035108 -195.538011 
L 442.721688 -195.538011 
L 438.408267 -195.538011 
L 434.094847 -195.538011 
L 429.781426 -195.538011 
L 425.468006 -195.538011 
L 421.154586 -195.538011 
L 416.841165 -195.538011 
L 412.527745 -195.538011 
L 408.214325 -195.538011 
L 403.900904 -195.538011 
L 399.587484 -195.538011 
L 395.274063 -195.538011 
L 390.960643 -195.538011 
L 386.647223 -195.538011 
L 382.333802 -195.538011 
L 378.020382 -195.538011 
L 373.706961 -195.538011 
L 369.393541 -195.538011 
L 365.080121 -195.538011 
L 360.7667 -195.538011 
L 356.45328 -195.538011 
L 352.139859 -195.538011 
L 347.826439 -195.538011 
L 343.513019 -195.538011 
L 339.199598 -195.538011 
L 334.886178 -195.538011 
L 330.572757 -195.538011 
L 326.259337 -195.538011 
L 321.945917 -195.538011 
L 317.632496 -195.538011 
L 313.319076 -195.538011 
L 309.005655 -195.538011 
L 304.692235 -195.538011 
L 300.378815 -195.538011 
L 296.065394 -195.538011 
L 291.751974 -195.538011 
L 287.438554 -195.538011 
L 283.125133 -195.538011 
L 278.811713 -195.538011 
L 274.498292 -195.538011 
L 270.184872 -195.538011 
L 265.871452 -195.538011 
L 261.558031 -195.538011 
L 257.244611 -195.538011 
L 252.93119 -195.538011 
L 248.61777 -195.538011 
L 244.30435 -195.538011 
L 239.990929 -195.538011 
L 235.677509 -195.538011 
L 231.364088 -195.538011 
L 227.050668 -195.538011 
L 222.737248 -195.538011 
L 218.423827 -195.538011 
L 214.110407 -195.538011 
L 209.796986 -195.538011 
L 205.483566 -195.538011 
L 201.170146 -195.538011 
L 196.856725 -195.538011 
L 192.543305 -195.538011 
L 188.229885 -195.538011 
L 183.916464 -195.538011 
L 179.603044 -195.538011 
L 175.289623 -195.538011 
L 170.976203 -195.538011 
L 166.662783 -195.538011 
L 162.349362 -195.538011 
L 158.035942 -195.538011 
L 153.722521 -195.538011 
L 149.409101 -195.538011 
L 145.095681 -195.538011 
L 140.78226 -195.538011 
L 136.46884 -195.538011 
L 132.155419 -195.538011 
L 127.841999 -195.538011 
L 123.528579 -195.538011 
L 119.215158 -195.538011 
L 114.901738 -195.538011 
L 110.588317 -195.538011 
L 106.274897 -195.538011 
L 101.961477 -195.538011 
L 97.648056 -195.538011 
L 93.334636 -195.538011 
L 89.021215 -195.538011 
L 84.707795 -195.538011 
L 80.394375 -195.538011 
L 76.080954 -195.538011 
L 71.767534 -195.538011 
L 67.454114 -195.538011 
L 63.140693 -195.538011 
L 58.827273 -195.538011 
z
" id="m11fd58293c" style="stroke:#36a2eb;stroke-opacity:0.5;"/>
    </defs>
    <g clip-path="url(#p976d8963ea)">
     <use style="fill:#36a2eb;fill-opacity:0.5;stroke:#36a2eb;stroke-opacity:0.5;" x="0" xlink:href="#m11fd58293c" y="581.789375"/>
    </g>
   </g>
   <g id="line2d_1">
    <path clip-path="url(#p976d8963ea)" d="M 85.942955 386.139997 
L 90.280629 386.098003 
L 94.618304 386.041548 
L 98.955978 385.966179 
L 103.293653 385.866259 
L 107.631327 385.734715 
L 111.969002 385.56275 
L 116.306676 385.339521 
L 120.644351 385.051785 
L 124.982025 384.683525 
L 129.3197 384.215549 
L 133.657374 383.625096 
L 137.995049 382.885442 
L 142.332723 381.965553 
L 146.670397 380.829781 
L 151.008072 379.437659 
L 155.345746 377.743813 
L 159.683421 375.698025 
L 164.021095 373.245497 
L 168.35877 370.32734 
L 172.696444 366.881329 
L 177.034119 362.842946 
L 181.371793 358.146738 
L 185.709468 352.727997 
L 190.047142 346.524751 
L 194.384817 339.480055 
L 198.722491 331.544529 
L 203.060166 322.679091 
L 207.39784 312.857802 
L 211.735514 302.070713 
L 216.073189 290.326616 
L 220.410863 277.655537 
L 224.748538 264.110866 
L 229.086212 249.770954 
L 233.423887 234.740062 
L 237.761561 219.148527 
L 242.099236 203.152059 
L 246.43691 186.930093 
L 250.774585 170.683171 
L 255.112259 154.62937 
L 259.449934 138.999832 
L 263.787608 124.033506 
L 268.125283 109.971253 
L 272.462957 97.04952 
L 276.800631 85.493789 
L 281.138306 75.512072 
L 285.47598 67.2887 
L 289.813655 60.978668 
L 294.151329 56.702782 
L 298.489004 54.543806 
L 302.826678 54.543806 
L 307.164353 56.702782 
L 311.502027 60.978668 
L 315.839702 67.2887 
L 320.177376 75.512072 
L 324.515051 85.493789 
L 328.852725 97.04952 
L 333.1904 109.971253 
L 337.528074 124.033506 
L 341.865749 138.999832 
L 346.203423 154.62937 
L 350.541097 170.683171 
L 354.878772 186.930093 
L 359.216446 203.152059 
L 363.554121 219.148527 
L 367.891795 234.740062 
L 372.22947 249.770954 
L 376.567144 264.110866 
L 380.904819 277.655537 
L 385.242493 290.326616 
L 389.580168 302.070713 
L 393.917842 312.857802 
L 398.255517 322.679091 
L 402.593191 331.544529 
L 406.930866 339.480055 
L 411.26854 346.524751 
L 415.606214 352.727997 
L 419.943889 358.146738 
L 424.281563 362.842946 
L 428.619238 366.881329 
L 432.956912 370.32734 
L 437.294587 373.245497 
L 441.632261 375.698025 
L 445.969936 377.743813 
L 450.30761 379.437659 
L 454.645285 380.829781 
L 458.982959 381.965553 
L 463.320634 382.885442 
L 467.658308 383.625096 
L 471.995983 384.215549 
L 476.333657 384.683525 
L 480.671332 385.051785 
L 485.009006 385.339521 
L 489.34668 385.56275 
L 493.684355 385.734715 
L 498.022029 385.866259 
L 502.359704 385.966179 
L 506.697378 386.041548 
L 511.035053 386.098003 
L 515.372727 386.139997 
" style="fill:none;stroke:#ff6384;stroke-linecap:square;"/>
   </g>
   <g id="line2d_2">
    <path clip-path="url(#p976d8963ea)" d="M 58.827273 386.139371 
L 63.140693 386.097141 
L 67.454114 386.040368 
L 71.767534 385.964575 
L 76.080954 385.864094 
L 80.394375 385.73181 
L 84.707795 385.558878 
L 89.021215 385.334393 
L 93.334636 385.04504 
L 97.648056 384.674709 
L 101.961477 384.204102 
L 106.274897 383.610328 
L 110.588317 382.866516 
L 114.901738 381.941454 
L 119.215158 380.799296 
L 123.528579 379.399346 
L 127.841999 377.695976 
L 132.155419 375.638684 
L 136.46884 373.172366 
L 140.78226 370.2378 
L 145.095681 366.772413 
L 149.409101 362.711322 
L 153.722521 357.988708 
L 158.035942 352.539497 
L 162.349362 346.301371 
L 166.662783 339.217063 
L 170.976203 331.236916 
L 175.289623 322.321628 
L 179.603044 312.445114 
L 183.916464 301.597371 
L 188.229885 289.787238 
L 192.543305 277.04491 
L 196.856725 263.424078 
L 201.170146 249.003534 
L 205.483566 233.888124 
L 209.796986 218.208919 
L 214.110407 202.122504 
L 218.423827 185.809323 
L 222.737248 169.471045 
L 227.050668 153.326975 
L 231.364088 137.609553 
L 235.677509 122.559072 
L 239.990929 108.417748 
L 244.30435 95.423357 
L 248.61777 83.802649 
L 252.93119 73.764805 
L 257.244611 65.495194 
L 261.558031 59.149682 
L 265.871452 54.849752 
L 270.184872 52.678636 
L 274.498292 52.678636 
L 278.811713 54.849752 
L 283.125133 59.149682 
L 287.438554 65.495194 
L 291.751974 73.764805 
L 296.065394 83.802649 
L 300.378815 95.423357 
L 304.692235 108.417748 
L 309.005655 122.559072 
L 313.319076 137.609553 
L 317.632496 153.326975 
L 321.945917 169.471045 
L 326.259337 185.809323 
L 330.572757 202.122504 
L 334.886178 218.208919 
L 339.199598 233.888124 
L 343.513019 249.003534 
L 347.826439 263.424078 
L 352.139859 277.04491 
L 356.45328 289.787238 
L 360.7667 301.597371 
L 365.080121 312.445114 
L 369.393541 322.321628 
L 373.706961 331.236916 
L 378.020382 339.217063 
L 382.333802 346.301371 
L 386.647223 352.539497 
L 390.960643 357.988708 
L 395.274063 362.711322 
L 399.587484 366.772413 
L 403.900904 370.2378 
L 408.214325 373.172366 
L 412.527745 375.638684 
L 416.841165 377.695976 
L 421.154586 379.399346 
L 425.468006 380.799296 
L 429.781426 381.941454 
L 434.094847 382.866516 
L 438.408267 383.610328 
L 442.721688 384.204102 
L 447.035108 384.674709 
L 451.348528 385.04504 
L 455.661949 385.334393 
L 459.975369 385.558878 
L 464.28879 385.73181 
L 468.60221 385.864094 
L 472.91563 385.964575 
L 477.229051 386.040368 
L 481.542471 386.097141 
L 485.855892 386.139371 
" style="fill:none;stroke:#36a2eb;stroke-linecap:square;"/>
   </g>
   <g id="patch_3">
    <path d="M 36 402.93 
L 538.2 402.93 
" style="fill:none;stroke:#000000;stroke-linecap:square;stroke-linejoin:miter;stroke-width:0.8;"/>
   </g>
   <g id="legend_1">
    <g id="patch_4">
     <path d="M 450.225313 88.29875 
L 528.4 88.29875 
Q 531.2 88.29875 531.2 85.49875 
L 531.2 45.8 
Q 531.2 43 528.4 43 
L 450.225313 43 
Q 447.425313 43 447.425313 45.8 
L 447.425313 85.49875 
Q 447.425313 88.29875 450.225313 88.29875 
z
" style="fill:#ffffff;opacity:0.8;stroke:#cccccc;stroke-linejoin:miter;"/>
    </g>
    <g id="patch_5">
     <path d="M 453.025313 59.237813 
L 481.025313 59.237813 
L 481.025313 49.437813 
L 453.025313 49.437813 
z
" style="fill:#ff6384;opacity:0.5;stroke:#ff6384;stroke-linejoin:miter;"/>
    </g>
    <g id="text_1">
     <!-- base -->
     <defs>
      <path d="M 48.6875 27.296875 
Q 48.6875 37.203125 44.609375 42.84375 
Q 40.53125 48.484375 33.40625 48.484375 
Q 26.265625 48.484375 22.1875 42.84375 
Q 18.109375 37.203125 18.109375 27.296875 
Q 18.109375 17.390625 22.1875 11.75 
Q 26.265625 6.109375 33.40625 6.109375 
Q 40.53125 6.109375 44.609375 11.75 
Q 48.6875 17.390625 48.6875 27.296875 
z
M 18.109375 46.390625 
Q 20.953125 51.265625 25.265625 53.625 
Q 29.59375 56 35.59375 56 
Q 45.5625 56 51.78125 48.09375 
Q 58.015625 40.1875 58.015625 27.296875 
Q 58.015625 14.40625 51.78125 6.484375 
Q 45.5625 -1.421875 35.59375 -1.421875 
Q 29.59375 -1.421875 25.265625 0.953125 
Q 20.953125 3.328125 18.109375 8.203125 
L 18.109375 0 
L 9.078125 0 
L 9.078125 75.984375 
L 18.109375 75.984375 
z
" id="DejaVuSans-98"/>
      <path d="M 34.28125 27.484375 
Q 23.390625 27.484375 19.1875 25 
Q 14.984375 22.515625 14.984375 16.5 
Q 14.984375 11.71875 18.140625 8.90625 
Q 21.296875 6.109375 26.703125 6.109375 
Q 34.1875 6.109375 38.703125 11.40625 
Q 43.21875 16.703125 43.21875 25.484375 
L 43.21875 27.484375 
z
M 52.203125 31.203125 
L 52.203125 0 
L 43.21875 0 
L 43.21875 8.296875 
Q 40.140625 3.328125 35.546875 0.953125 
Q 30.953125 -1.421875 24.3125 -1.421875 
Q 15.921875 -1.421875 10.953125 3.296875 
Q 6 8.015625 6 15.921875 
Q 6 25.140625 12.171875 29.828125 
Q 18.359375 34.515625 30.609375 34.515625 
L 43.21875 34.515625 
L 43.21875 35.40625 
Q 43.21875 41.609375 39.140625 45 
Q 35.0625 48.390625 27.6875 48.390625 
Q 23 48.390625 18.546875 47.265625 
Q 14.109375 46.140625 10.015625 43.890625 
L 10.015625 52.203125 
Q 14.9375 54.109375 19.578125 55.046875 
Q 24.21875 56 28.609375 56 
Q 40.484375 56 46.34375 49.84375 
Q 52.203125 43.703125 52.203125 31.203125 
z
" id="DejaVuSans-97"/>
      <path d="M 44.28125 53.078125 
L 44.28125 44.578125 
Q 40.484375 46.53125 36.375 47.5 
Q 32.28125 48.484375 27.875 48.484375 
Q 21.1875 48.484375 17.84375 46.4375 
Q 14.5 44.390625 14.5 40.28125 
Q 14.5 37.15625 16.890625 35.375 
Q 19.28125 33.59375 26.515625 31.984375 
L 29.59375 31.296875 
Q 39.15625 29.25 43.1875 25.515625 
Q 47.21875 21.78125 47.21875 15.09375 
Q 47.21875 7.46875 41.1875 3.015625 
Q 35.15625 -1.421875 24.609375 -1.421875 
Q 20.21875 -1.421875 15.453125 -0.5625 
Q 10.6875 0.296875 5.421875 2 
L 5.421875 11.28125 
Q 10.40625 8.6875 15.234375 7.390625 
Q 20.0625 6.109375 24.8125 6.109375 
Q 31.15625 6.109375 34.5625 8.28125 
Q 37.984375 10.453125 37.984375 14.40625 
Q 37.984375 18.0625 35.515625 20.015625 
Q 33.0625 21.96875 24.703125 23.78125 
L 21.578125 24.515625 
Q 13.234375 26.265625 9.515625 29.90625 
Q 5.8125 33.546875 5.8125 39.890625 
Q 5.8125 47.609375 11.28125 51.796875 
Q 16.75 56 26.8125 56 
Q 31.78125 56 36.171875 55.265625 
Q 40.578125 54.546875 44.28125 53.078125 
z
" id="DejaVuSans-115"/>
      <path d="M 56.203125 29.59375 
L 56.203125 25.203125 
L 14.890625 25.203125 
Q 15.484375 15.921875 20.484375 11.0625 
Q 25.484375 6.203125 34.421875 6.203125 
Q 39.59375 6.203125 44.453125 7.46875 
Q 49.3125 8.734375 54.109375 11.28125 
L 54.109375 2.78125 
Q 49.265625 0.734375 44.1875 -0.34375 
Q 39.109375 -1.421875 33.890625 -1.421875 
Q 20.796875 -1.421875 13.15625 6.1875 
Q 5.515625 13.8125 5.515625 26.8125 
Q 5.515625 40.234375 12.765625 48.109375 
Q 20.015625 56 32.328125 56 
Q 43.359375 56 49.78125 48.890625 
Q 56.203125 41.796875 56.203125 29.59375 
z
M 47.21875 32.234375 
Q 47.125 39.59375 43.09375 43.984375 
Q 39.0625 48.390625 32.421875 48.390625 
Q 24.90625 48.390625 20.390625 44.140625 
Q 15.875 39.890625 15.1875 32.171875 
z
" id="DejaVuSans-101"/>
     </defs>
     <g transform="translate(492.225313 59.237813)scale(0.14 -0.14)">
      <use xlink:href="#DejaVuSans-98"/>
      <use x="63.476562" xlink:href="#DejaVuSans-97"/>
      <use x="124.755859" xlink:href="#DejaVuSans-115"/>
      <use x="176.855469" xlink:href="#DejaVuSans-101"/>
     </g>
    </g>
    <g id="patch_6">
     <path d="M 453.025313 79.787188 
L 481.025313 79.787188 
L 481.025313 69.987188 
L 453.025313 69.987188 
z
" style="fill:#36a2eb;opacity:0.5;stroke:#36a2eb;stroke-linejoin:miter;"/>
    </g>
    <g id="text_2">
     <!-- subs -->
     <defs>
      <path d="M 8.5 21.578125 
L 8.5 54.6875 
L 17.484375 54.6875 
L 17.484375 21.921875 
Q 17.484375 14.15625 20.5 10.265625 
Q 23.53125 6.390625 29.59375 6.390625 
Q 36.859375 6.390625 41.078125 11.03125 
Q 45.3125 15.671875 45.3125 23.6875 
L 45.3125 54.6875 
L 54.296875 54.6875 
L 54.296875 0 
L 45.3125 0 
L 45.3125 8.40625 
Q 42.046875 3.421875 37.71875 1 
Q 33.40625 -1.421875 27.6875 -1.421875 
Q 18.265625 -1.421875 13.375 4.4375 
Q 8.5 10.296875 8.5 21.578125 
z
M 31.109375 56 
z
" id="DejaVuSans-117"/>
     </defs>
     <g transform="translate(492.225313 79.787188)scale(0.14 -0.14)">
      <use xlink:href="#DejaVuSans-115"/>
      <use x="52.099609" xlink:href="#DejaVuSans-117"/>
      <use x="115.478516" xlink:href="#DejaVuSans-98"/>
      <use x="178.955078" xlink:href="#DejaVuSans-115"/>
     </g>
    </g>
   </g>
  </g>
  <g id="axes_2">
   <g id="patch_7">
    <path d="M 36 525.24 
L 538.2 525.24 
L 538.2 402.93 
L 36 402.93 
z
" style="fill:none;"/>
   </g>
   <g id="patch_8">
    <path clip-path="url(#p3be94d9116)" d="M 195.447547 519.680455 
L 405.868135 519.680455 
L 405.868135 482.616818 
L 195.447547 482.616818 
z
" style="fill:#ff6384;opacity:0.5;"/>
   </g>
   <g id="patch_9">
    <path clip-path="url(#p3be94d9116)" d="M 167.719571 445.553182 
L 376.963594 445.553182 
L 376.963594 408.489545 
L 167.719571 408.489545 
z
" style="fill:#36a2eb;opacity:0.5;"/>
   </g>
   <g id="matplotlib.axis_1">
    <g id="xtick_1">
     <g id="line2d_3">
      <defs>
       <path d="M 0 0 
L 0 3.5 
" id="ma35c2e720f" style="stroke:#000000;stroke-width:0.8;"/>
      </defs>
      <g>
       <use style="stroke:#000000;stroke-width:0.8;" x="41.564072" xlink:href="#ma35c2e720f" y="525.24"/>
      </g>
     </g>
     <g id="text_3">
      <!-- 2 -->
      <defs>
       <path d="M 19.1875 8.296875 
L 53.609375 8.296875 
L 53.609375 0 
L 7.328125 0 
L 7.328125 8.296875 
Q 12.9375 14.109375 22.625 23.890625 
Q 32.328125 33.6875 34.8125 36.53125 
Q 39.546875 41.84375 41.421875 45.53125 
Q 43.3125 49.21875 43.3125 52.78125 
Q 43.3125 58.59375 39.234375 62.25 
Q 35.15625 65.921875 28.609375 65.921875 
Q 23.96875 65.921875 18.8125 64.3125 
Q 13.671875 62.703125 7.8125 59.421875 
L 7.8125 69.390625 
Q 13.765625 71.78125 18.9375 73 
Q 24.125 74.21875 28.421875 74.21875 
Q 39.75 74.21875 46.484375 68.546875 
Q 53.21875 62.890625 53.21875 53.421875 
Q 53.21875 48.921875 51.53125 44.890625 
Q 49.859375 40.875 45.40625 35.40625 
Q 44.1875 33.984375 37.640625 27.21875 
Q 31.109375 20.453125 19.1875 8.296875 
z
" id="DejaVuSans-50"/>
      </defs>
      <g transform="translate(37.110322 542.877813)scale(0.14 -0.14)">
       <use xlink:href="#DejaVuSans-50"/>
      </g>
     </g>
    </g>
    <g id="xtick_2">
     <g id="line2d_4">
      <g>
       <use style="stroke:#000000;stroke-width:0.8;" x="135.951602" xlink:href="#ma35c2e720f" y="525.24"/>
      </g>
     </g>
     <g id="text_4">
      <!-- 4 -->
      <defs>
       <path d="M 37.796875 64.3125 
L 12.890625 25.390625 
L 37.796875 25.390625 
z
M 35.203125 72.90625 
L 47.609375 72.90625 
L 47.609375 25.390625 
L 58.015625 25.390625 
L 58.015625 17.1875 
L 47.609375 17.1875 
L 47.609375 0 
L 37.796875 0 
L 37.796875 17.1875 
L 4.890625 17.1875 
L 4.890625 26.703125 
z
" id="DejaVuSans-52"/>
      </defs>
      <g transform="translate(131.497852 542.877813)scale(0.14 -0.14)">
       <use xlink:href="#DejaVuSans-52"/>
      </g>
     </g>
    </g>
    <g id="xtick_3">
     <g id="line2d_5">
      <g>
       <use style="stroke:#000000;stroke-width:0.8;" x="230.339131" xlink:href="#ma35c2e720f" y="525.24"/>
      </g>
     </g>
     <g id="text_5">
      <!-- 6 -->
      <defs>
       <path d="M 33.015625 40.375 
Q 26.375 40.375 22.484375 35.828125 
Q 18.609375 31.296875 18.609375 23.390625 
Q 18.609375 15.53125 22.484375 10.953125 
Q 26.375 6.390625 33.015625 6.390625 
Q 39.65625 6.390625 43.53125 10.953125 
Q 47.40625 15.53125 47.40625 23.390625 
Q 47.40625 31.296875 43.53125 35.828125 
Q 39.65625 40.375 33.015625 40.375 
z
M 52.59375 71.296875 
L 52.59375 62.3125 
Q 48.875 64.0625 45.09375 64.984375 
Q 41.3125 65.921875 37.59375 65.921875 
Q 27.828125 65.921875 22.671875 59.328125 
Q 17.53125 52.734375 16.796875 39.40625 
Q 19.671875 43.65625 24.015625 45.921875 
Q 28.375 48.1875 33.59375 48.1875 
Q 44.578125 48.1875 50.953125 41.515625 
Q 57.328125 34.859375 57.328125 23.390625 
Q 57.328125 12.15625 50.6875 5.359375 
Q 44.046875 -1.421875 33.015625 -1.421875 
Q 20.359375 -1.421875 13.671875 8.265625 
Q 6.984375 17.96875 6.984375 36.375 
Q 6.984375 53.65625 15.1875 63.9375 
Q 23.390625 74.21875 37.203125 74.21875 
Q 40.921875 74.21875 44.703125 73.484375 
Q 48.484375 72.75 52.59375 71.296875 
z
" id="DejaVuSans-54"/>
      </defs>
      <g transform="translate(225.885381 542.877813)scale(0.14 -0.14)">
       <use xlink:href="#DejaVuSans-54"/>
      </g>
     </g>
    </g>
    <g id="xtick_4">
     <g id="line2d_6">
      <g>
       <use style="stroke:#000000;stroke-width:0.8;" x="324.726661" xlink:href="#ma35c2e720f" y="525.24"/>
      </g>
     </g>
     <g id="text_6">
      <!-- 8 -->
      <defs>
       <path d="M 31.78125 34.625 
Q 24.75 34.625 20.71875 30.859375 
Q 16.703125 27.09375 16.703125 20.515625 
Q 16.703125 13.921875 20.71875 10.15625 
Q 24.75 6.390625 31.78125 6.390625 
Q 38.8125 6.390625 42.859375 10.171875 
Q 46.921875 13.96875 46.921875 20.515625 
Q 46.921875 27.09375 42.890625 30.859375 
Q 38.875 34.625 31.78125 34.625 
z
M 21.921875 38.8125 
Q 15.578125 40.375 12.03125 44.71875 
Q 8.5 49.078125 8.5 55.328125 
Q 8.5 64.0625 14.71875 69.140625 
Q 20.953125 74.21875 31.78125 74.21875 
Q 42.671875 74.21875 48.875 69.140625 
Q 55.078125 64.0625 55.078125 55.328125 
Q 55.078125 49.078125 51.53125 44.71875 
Q 48 40.375 41.703125 38.8125 
Q 48.828125 37.15625 52.796875 32.3125 
Q 56.78125 27.484375 56.78125 20.515625 
Q 56.78125 9.90625 50.3125 4.234375 
Q 43.84375 -1.421875 31.78125 -1.421875 
Q 19.734375 -1.421875 13.25 4.234375 
Q 6.78125 9.90625 6.78125 20.515625 
Q 6.78125 27.484375 10.78125 32.3125 
Q 14.796875 37.15625 21.921875 38.8125 
z
M 18.3125 54.390625 
Q 18.3125 48.734375 21.84375 45.5625 
Q 25.390625 42.390625 31.78125 42.390625 
Q 38.140625 42.390625 41.71875 45.5625 
Q 45.3125 48.734375 45.3125 54.390625 
Q 45.3125 60.0625 41.71875 63.234375 
Q 38.140625 66.40625 31.78125 66.40625 
Q 25.390625 66.40625 21.84375 63.234375 
Q 18.3125 60.0625 18.3125 54.390625 
z
" id="DejaVuSans-56"/>
      </defs>
      <g transform="translate(320.272911 542.877813)scale(0.14 -0.14)">
       <use xlink:href="#DejaVuSans-56"/>
      </g>
     </g>
    </g>
    <g id="xtick_5">
     <g id="line2d_7">
      <g>
       <use style="stroke:#000000;stroke-width:0.8;" x="419.114191" xlink:href="#ma35c2e720f" y="525.24"/>
      </g>
     </g>
     <g id="text_7">
      <!-- 10 -->
      <defs>
       <path d="M 12.40625 8.296875 
L 28.515625 8.296875 
L 28.515625 63.921875 
L 10.984375 60.40625 
L 10.984375 69.390625 
L 28.421875 72.90625 
L 38.28125 72.90625 
L 38.28125 8.296875 
L 54.390625 8.296875 
L 54.390625 0 
L 12.40625 0 
z
" id="DejaVuSans-49"/>
       <path d="M 31.78125 66.40625 
Q 24.171875 66.40625 20.328125 58.90625 
Q 16.5 51.421875 16.5 36.375 
Q 16.5 21.390625 20.328125 13.890625 
Q 24.171875 6.390625 31.78125 6.390625 
Q 39.453125 6.390625 43.28125 13.890625 
Q 47.125 21.390625 47.125 36.375 
Q 47.125 51.421875 43.28125 58.90625 
Q 39.453125 66.40625 31.78125 66.40625 
z
M 31.78125 74.21875 
Q 44.046875 74.21875 50.515625 64.515625 
Q 56.984375 54.828125 56.984375 36.375 
Q 56.984375 17.96875 50.515625 8.265625 
Q 44.046875 -1.421875 31.78125 -1.421875 
Q 19.53125 -1.421875 13.0625 8.265625 
Q 6.59375 17.96875 6.59375 36.375 
Q 6.59375 54.828125 13.0625 64.515625 
Q 19.53125 74.21875 31.78125 74.21875 
z
" id="DejaVuSans-48"/>
      </defs>
      <g transform="translate(410.206691 542.877813)scale(0.14 -0.14)">
       <use xlink:href="#DejaVuSans-49"/>
       <use x="63.623047" xlink:href="#DejaVuSans-48"/>
      </g>
     </g>
    </g>
    <g id="xtick_6">
     <g id="line2d_8">
      <g>
       <use style="stroke:#000000;stroke-width:0.8;" x="513.501721" xlink:href="#ma35c2e720f" y="525.24"/>
      </g>
     </g>
     <g id="text_8">
      <!-- 12 -->
      <g transform="translate(504.594221 542.877813)scale(0.14 -0.14)">
       <use xlink:href="#DejaVuSans-49"/>
       <use x="63.623047" xlink:href="#DejaVuSans-50"/>
      </g>
     </g>
    </g>
   </g>
   <g id="line2d_9">
    <path clip-path="url(#p3be94d9116)" d="M 300.657841 525.24 
L 300.657841 402.93 
" style="fill:none;stroke:#ff6384;stroke-dasharray:5.55,2.4;stroke-dashoffset:0;stroke-opacity:0.8;stroke-width:1.5;"/>
   </g>
   <g id="line2d_10">
    <path clip-path="url(#p3be94d9116)" d="M 272.341582 525.24 
L 272.341582 402.93 
" style="fill:none;stroke:#36a2eb;stroke-dasharray:5.55,2.4;stroke-dashoffset:0;stroke-opacity:0.8;stroke-width:1.5;"/>
   </g>
   <g id="patch_10">
    <path d="M 36 525.24 
L 538.2 525.24 
" style="fill:none;stroke:#000000;stroke-linecap:square;stroke-linejoin:miter;stroke-width:0.8;"/>
   </g>
  </g>
 </g>
 <defs>
  <clipPath id="p976d8963ea">
   <rect height="366.93" width="502.2" x="36" y="36"/>
  </clipPath>
  <clipPath id="p3be94d9116">
   <rect height="122.31" width="502.2" x="36" y="402.93"/>
  </clipPath>
 </defs>
</svg>
