<?xml version="1.0" encoding="utf-8" standalone="no"?>
<!DOCTYPE svg PUBLIC "-//W3C//DTD SVG 1.1//EN"
  "http://www.w3.org/Graphics/SVG/1.1/DTD/svg11.dtd">
<!-- Created with matplotlib (https://matplotlib.org/) -->
<svg height="581.789375pt" version="1.1" viewBox="0 0 581.460979 581.789375" width="581.460979pt" xmlns="http://www.w3.org/2000/svg" xmlns:xlink="http://www.w3.org/1999/xlink">
 <defs>
  <style type="text/css">
*{stroke-linecap:butt;stroke-linejoin:round;}
  </style>
 </defs>
 <g id="figure_1">
  <g id="patch_1">
   <path d="M 0 581.789375 
L 581.460979 581.789375 
L 581.460979 0 
L 0 0 
z
" style="fill:none;"/>
  </g>
  <g id="axes_1">
   <g id="patch_2">
    <path d="M 43.260979 402.93 
L 545.460979 402.93 
L 545.460979 36 
L 43.260979 36 
z
" style="fill:none;"/>
   </g>
   <g id="PolyCollection_1">
    <defs>
     <path d="M 71.000215 -195.538011 
L 71.000215 -195.650004 
L 75.512553 -195.692234 
L 80.024892 -195.749007 
L 84.537231 -195.8248 
L 89.049569 -195.925281 
L 93.561908 -196.057565 
L 98.074247 -196.230497 
L 102.586585 -196.454982 
L 107.098924 -196.744335 
L 111.611263 -197.114666 
L 116.123601 -197.585273 
L 120.63594 -198.179047 
L 125.148279 -198.922859 
L 129.660617 -199.847921 
L 134.172956 -200.990079 
L 138.685295 -202.390029 
L 143.197633 -204.093399 
L 147.709972 -206.150691 
L 152.222311 -208.617009 
L 156.73465 -211.551575 
L 161.246988 -215.016962 
L 165.759327 -219.078053 
L 170.271666 -223.800667 
L 174.784004 -229.249878 
L 179.296343 -235.488004 
L 183.808682 -242.572312 
L 188.32102 -250.552459 
L 192.833359 -259.467747 
L 197.345698 -269.344261 
L 201.858036 -280.192004 
L 206.370375 -292.002137 
L 210.882714 -304.744465 
L 215.395052 -318.365297 
L 219.907391 -332.785841 
L 224.41973 -347.901251 
L 228.932068 -363.580456 
L 233.444407 -379.666871 
L 237.956746 -395.980052 
L 242.469084 -412.31833 
L 246.981423 -428.4624 
L 251.493762 -444.179822 
L 256.0061 -459.230303 
L 260.518439 -473.371627 
L 265.030778 -486.366018 
L 269.543116 -497.986726 
L 274.055455 -508.02457 
L 278.567794 -516.294181 
L 283.080132 -522.639693 
L 287.592471 -526.939623 
L 292.10481 -529.110739 
L 296.617148 -529.110739 
L 301.129487 -526.939623 
L 305.641826 -522.639693 
L 310.154164 -516.294181 
L 314.666503 -508.02457 
L 319.178842 -497.986726 
L 323.691181 -486.366018 
L 328.203519 -473.371627 
L 332.715858 -459.230303 
L 337.228197 -444.179822 
L 341.740535 -428.4624 
L 346.252874 -412.31833 
L 350.765213 -395.980052 
L 355.277551 -379.666871 
L 359.78989 -363.580456 
L 364.302229 -347.901251 
L 368.814567 -332.785841 
L 373.326906 -318.365297 
L 377.839245 -304.744465 
L 382.351583 -292.002137 
L 386.863922 -280.192004 
L 391.376261 -269.344261 
L 395.888599 -259.467747 
L 400.400938 -250.552459 
L 404.913277 -242.572312 
L 409.425615 -235.488004 
L 413.937954 -229.249878 
L 418.450293 -223.800667 
L 422.962631 -219.078053 
L 427.47497 -215.016962 
L 431.987309 -211.551575 
L 436.499647 -208.617009 
L 441.011986 -206.150691 
L 445.524325 -204.093399 
L 450.036663 -202.390029 
L 454.549002 -200.990079 
L 459.061341 -199.847921 
L 463.573679 -198.922859 
L 468.086018 -198.179047 
L 472.598357 -197.585273 
L 477.110696 -197.114666 
L 481.623034 -196.744335 
L 486.135373 -196.454982 
L 490.647712 -196.230497 
L 495.16005 -196.057565 
L 499.672389 -195.925281 
L 504.184728 -195.8248 
L 508.697066 -195.749007 
L 513.209405 -195.692234 
L 517.721744 -195.650004 
L 517.721744 -195.538011 
L 517.721744 -195.538011 
L 513.209405 -195.538011 
L 508.697066 -195.538011 
L 504.184728 -195.538011 
L 499.672389 -195.538011 
L 495.16005 -195.538011 
L 490.647712 -195.538011 
L 486.135373 -195.538011 
L 481.623034 -195.538011 
L 477.110696 -195.538011 
L 472.598357 -195.538011 
L 468.086018 -195.538011 
L 463.573679 -195.538011 
L 459.061341 -195.538011 
L 454.549002 -195.538011 
L 450.036663 -195.538011 
L 445.524325 -195.538011 
L 441.011986 -195.538011 
L 436.499647 -195.538011 
L 431.987309 -195.538011 
L 427.47497 -195.538011 
L 422.962631 -195.538011 
L 418.450293 -195.538011 
L 413.937954 -195.538011 
L 409.425615 -195.538011 
L 404.913277 -195.538011 
L 400.400938 -195.538011 
L 395.888599 -195.538011 
L 391.376261 -195.538011 
L 386.863922 -195.538011 
L 382.351583 -195.538011 
L 377.839245 -195.538011 
L 373.326906 -195.538011 
L 368.814567 -195.538011 
L 364.302229 -195.538011 
L 359.78989 -195.538011 
L 355.277551 -195.538011 
L 350.765213 -195.538011 
L 346.252874 -195.538011 
L 341.740535 -195.538011 
L 337.228197 -195.538011 
L 332.715858 -195.538011 
L 328.203519 -195.538011 
L 323.691181 -195.538011 
L 319.178842 -195.538011 
L 314.666503 -195.538011 
L 310.154164 -195.538011 
L 305.641826 -195.538011 
L 301.129487 -195.538011 
L 296.617148 -195.538011 
L 292.10481 -195.538011 
L 287.592471 -195.538011 
L 283.080132 -195.538011 
L 278.567794 -195.538011 
L 274.055455 -195.538011 
L 269.543116 -195.538011 
L 265.030778 -195.538011 
L 260.518439 -195.538011 
L 256.0061 -195.538011 
L 251.493762 -195.538011 
L 246.981423 -195.538011 
L 242.469084 -195.538011 
L 237.956746 -195.538011 
L 233.444407 -195.538011 
L 228.932068 -195.538011 
L 224.41973 -195.538011 
L 219.907391 -195.538011 
L 215.395052 -195.538011 
L 210.882714 -195.538011 
L 206.370375 -195.538011 
L 201.858036 -195.538011 
L 197.345698 -195.538011 
L 192.833359 -195.538011 
L 188.32102 -195.538011 
L 183.808682 -195.538011 
L 179.296343 -195.538011 
L 174.784004 -195.538011 
L 170.271666 -195.538011 
L 165.759327 -195.538011 
L 161.246988 -195.538011 
L 156.73465 -195.538011 
L 152.222311 -195.538011 
L 147.709972 -195.538011 
L 143.197633 -195.538011 
L 138.685295 -195.538011 
L 134.172956 -195.538011 
L 129.660617 -195.538011 
L 125.148279 -195.538011 
L 120.63594 -195.538011 
L 116.123601 -195.538011 
L 111.611263 -195.538011 
L 107.098924 -195.538011 
L 102.586585 -195.538011 
L 98.074247 -195.538011 
L 93.561908 -195.538011 
L 89.049569 -195.538011 
L 84.537231 -195.538011 
L 80.024892 -195.538011 
L 75.512553 -195.538011 
L 71.000215 -195.538011 
z
" id="m5b5a047eb5" style="stroke:#ff6384;stroke-opacity:0.5;"/>
    </defs>
    <g clip-path="url(#p6f51216c1c)">
     <use style="fill:#ff6384;fill-opacity:0.5;stroke:#ff6384;stroke-opacity:0.5;" x="0" xlink:href="#m5b5a047eb5" y="581.789375"/>
    </g>
   </g>
   <g id="PolyCollection_2">
    <defs>
     <path d="M 66.088252 -195.538011 
L 66.088252 -195.647594 
L 70.699822 -195.688916 
L 75.311392 -195.744467 
L 79.922963 -195.818629 
L 84.534533 -195.916948 
L 89.146103 -196.046385 
L 93.757673 -196.215596 
L 98.369244 -196.43525 
L 102.980814 -196.718377 
L 107.592384 -197.08074 
L 112.203954 -197.54122 
L 116.815525 -198.122217 
L 121.427095 -198.850024 
L 126.038665 -199.755181 
L 130.650235 -200.872762 
L 135.261806 -202.242587 
L 139.873376 -203.909305 
L 144.484946 -205.922328 
L 149.096516 -208.335576 
L 153.708087 -211.206995 
L 158.319657 -214.597815 
L 162.931227 -218.571519 
L 167.542797 -223.192513 
L 172.154368 -228.524467 
L 176.765938 -234.628362 
L 181.377508 -241.56023 
L 185.989078 -249.368661 
L 190.600649 -258.092109 
L 195.212219 -267.756101 
L 199.823789 -278.370423 
L 204.435359 -289.926426 
L 209.04693 -302.394565 
L 213.6585 -315.722305 
L 218.27007 -329.832548 
L 222.88164 -344.622705 
L 227.493211 -359.964526 
L 232.104781 -375.704794 
L 236.716351 -391.666949 
L 241.327921 -407.65366 
L 245.939492 -423.450343 
L 250.551062 -438.829558 
L 255.162632 -453.556183 
L 259.774202 -467.393215 
L 264.385773 -480.107993 
L 268.997343 -491.478648 
L 273.608913 -501.300497 
L 278.220483 -509.392164 
L 282.832054 -515.601133 
L 287.443624 -519.808537 
L 292.055194 -521.932935 
L 296.666764 -521.932935 
L 301.278335 -519.808537 
L 305.889905 -515.601133 
L 310.501475 -509.392164 
L 315.113045 -501.300497 
L 319.724615 -491.478648 
L 324.336186 -480.107993 
L 328.947756 -467.393215 
L 333.559326 -453.556183 
L 338.170896 -438.829558 
L 342.782467 -423.450343 
L 347.394037 -407.65366 
L 352.005607 -391.666949 
L 356.617177 -375.704794 
L 361.228748 -359.964526 
L 365.840318 -344.622705 
L 370.451888 -329.832548 
L 375.063458 -315.722305 
L 379.675029 -302.394565 
L 384.286599 -289.926426 
L 388.898169 -278.370423 
L 393.509739 -267.756101 
L 398.12131 -258.092109 
L 402.73288 -249.368661 
L 407.34445 -241.56023 
L 411.95602 -234.628362 
L 416.567591 -228.524467 
L 421.179161 -223.192513 
L 425.790731 -218.571519 
L 430.402301 -214.597815 
L 435.013872 -211.206995 
L 439.625442 -208.335576 
L 444.237012 -205.922328 
L 448.848582 -203.909305 
L 453.460153 -202.242587 
L 458.071723 -200.872762 
L 462.683293 -199.755181 
L 467.294863 -198.850024 
L 471.906434 -198.122217 
L 476.518004 -197.54122 
L 481.129574 -197.08074 
L 485.741144 -196.718377 
L 490.352715 -196.43525 
L 494.964285 -196.215596 
L 499.575855 -196.046385 
L 504.187425 -195.916948 
L 508.798996 -195.818629 
L 513.410566 -195.744467 
L 518.022136 -195.688916 
L 522.633706 -195.647594 
L 522.633706 -195.538011 
L 522.633706 -195.538011 
L 518.022136 -195.538011 
L 513.410566 -195.538011 
L 508.798996 -195.538011 
L 504.187425 -195.538011 
L 499.575855 -195.538011 
L 494.964285 -195.538011 
L 490.352715 -195.538011 
L 485.741144 -195.538011 
L 481.129574 -195.538011 
L 476.518004 -195.538011 
L 471.906434 -195.538011 
L 467.294863 -195.538011 
L 462.683293 -195.538011 
L 458.071723 -195.538011 
L 453.460153 -195.538011 
L 448.848582 -195.538011 
L 444.237012 -195.538011 
L 439.625442 -195.538011 
L 435.013872 -195.538011 
L 430.402301 -195.538011 
L 425.790731 -195.538011 
L 421.179161 -195.538011 
L 416.567591 -195.538011 
L 411.95602 -195.538011 
L 407.34445 -195.538011 
L 402.73288 -195.538011 
L 398.12131 -195.538011 
L 393.509739 -195.538011 
L 388.898169 -195.538011 
L 384.286599 -195.538011 
L 379.675029 -195.538011 
L 375.063458 -195.538011 
L 370.451888 -195.538011 
L 365.840318 -195.538011 
L 361.228748 -195.538011 
L 356.617177 -195.538011 
L 352.005607 -195.538011 
L 347.394037 -195.538011 
L 342.782467 -195.538011 
L 338.170896 -195.538011 
L 333.559326 -195.538011 
L 328.947756 -195.538011 
L 324.336186 -195.538011 
L 319.724615 -195.538011 
L 315.113045 -195.538011 
L 310.501475 -195.538011 
L 305.889905 -195.538011 
L 301.278335 -195.538011 
L 296.666764 -195.538011 
L 292.055194 -195.538011 
L 287.443624 -195.538011 
L 282.832054 -195.538011 
L 278.220483 -195.538011 
L 273.608913 -195.538011 
L 268.997343 -195.538011 
L 264.385773 -195.538011 
L 259.774202 -195.538011 
L 255.162632 -195.538011 
L 250.551062 -195.538011 
L 245.939492 -195.538011 
L 241.327921 -195.538011 
L 236.716351 -195.538011 
L 232.104781 -195.538011 
L 227.493211 -195.538011 
L 222.88164 -195.538011 
L 218.27007 -195.538011 
L 213.6585 -195.538011 
L 209.04693 -195.538011 
L 204.435359 -195.538011 
L 199.823789 -195.538011 
L 195.212219 -195.538011 
L 190.600649 -195.538011 
L 185.989078 -195.538011 
L 181.377508 -195.538011 
L 176.765938 -195.538011 
L 172.154368 -195.538011 
L 167.542797 -195.538011 
L 162.931227 -195.538011 
L 158.319657 -195.538011 
L 153.708087 -195.538011 
L 149.096516 -195.538011 
L 144.484946 -195.538011 
L 139.873376 -195.538011 
L 135.261806 -195.538011 
L 130.650235 -195.538011 
L 126.038665 -195.538011 
L 121.427095 -195.538011 
L 116.815525 -195.538011 
L 112.203954 -195.538011 
L 107.592384 -195.538011 
L 102.980814 -195.538011 
L 98.369244 -195.538011 
L 93.757673 -195.538011 
L 89.146103 -195.538011 
L 84.534533 -195.538011 
L 79.922963 -195.538011 
L 75.311392 -195.538011 
L 70.699822 -195.538011 
L 66.088252 -195.538011 
z
" id="mcd7e448aef" style="stroke:#36a2eb;stroke-opacity:0.5;"/>
    </defs>
    <g clip-path="url(#p6f51216c1c)">
     <use style="fill:#36a2eb;fill-opacity:0.5;stroke:#36a2eb;stroke-opacity:0.5;" x="0" xlink:href="#mcd7e448aef" y="581.789375"/>
    </g>
   </g>
   <g id="line2d_1">
    <path clip-path="url(#p6f51216c1c)" d="M 71.000215 386.139371 
L 75.512553 386.097141 
L 80.024892 386.040368 
L 84.537231 385.964575 
L 89.049569 385.864094 
L 93.561908 385.73181 
L 98.074247 385.558878 
L 102.586585 385.334393 
L 107.098924 385.04504 
L 111.611263 384.674709 
L 116.123601 384.204102 
L 120.63594 383.610328 
L 125.148279 382.866516 
L 129.660617 381.941454 
L 134.172956 380.799296 
L 138.685295 379.399346 
L 143.197633 377.695976 
L 147.709972 375.638684 
L 152.222311 373.172366 
L 156.73465 370.2378 
L 161.246988 366.772413 
L 165.759327 362.711322 
L 170.271666 357.988708 
L 174.784004 352.539497 
L 179.296343 346.301371 
L 183.808682 339.217063 
L 188.32102 331.236916 
L 192.833359 322.321628 
L 197.345698 312.445114 
L 201.858036 301.597371 
L 206.370375 289.787238 
L 210.882714 277.04491 
L 215.395052 263.424078 
L 219.907391 249.003534 
L 224.41973 233.888124 
L 228.932068 218.208919 
L 233.444407 202.122504 
L 237.956746 185.809323 
L 242.469084 169.471045 
L 246.981423 153.326975 
L 251.493762 137.609553 
L 256.0061 122.559072 
L 260.518439 108.417748 
L 265.030778 95.423357 
L 269.543116 83.802649 
L 274.055455 73.764805 
L 278.567794 65.495194 
L 283.080132 59.149682 
L 287.592471 54.849752 
L 292.10481 52.678636 
L 296.617148 52.678636 
L 301.129487 54.849752 
L 305.641826 59.149682 
L 310.154164 65.495194 
L 314.666503 73.764805 
L 319.178842 83.802649 
L 323.691181 95.423357 
L 328.203519 108.417748 
L 332.715858 122.559072 
L 337.228197 137.609553 
L 341.740535 153.326975 
L 346.252874 169.471045 
L 350.765213 185.809323 
L 355.277551 202.122504 
L 359.78989 218.208919 
L 364.302229 233.888124 
L 368.814567 249.003534 
L 373.326906 263.424078 
L 377.839245 277.04491 
L 382.351583 289.787238 
L 386.863922 301.597371 
L 391.376261 312.445114 
L 395.888599 322.321628 
L 400.400938 331.236916 
L 404.913277 339.217063 
L 409.425615 346.301371 
L 413.937954 352.539497 
L 418.450293 357.988708 
L 422.962631 362.711322 
L 427.47497 366.772413 
L 431.987309 370.2378 
L 436.499647 373.172366 
L 441.011986 375.638684 
L 445.524325 377.695976 
L 450.036663 379.399346 
L 454.549002 380.799296 
L 459.061341 381.941454 
L 463.573679 382.866516 
L 468.086018 383.610328 
L 472.598357 384.204102 
L 477.110696 384.674709 
L 481.623034 385.04504 
L 486.135373 385.334393 
L 490.647712 385.558878 
L 495.16005 385.73181 
L 499.672389 385.864094 
L 504.184728 385.964575 
L 508.697066 386.040368 
L 513.209405 386.097141 
L 517.721744 386.139371 
" style="fill:none;stroke:#ff6384;stroke-linecap:square;"/>
   </g>
   <g id="line2d_2">
    <path clip-path="url(#p6f51216c1c)" d="M 66.088252 386.141781 
L 70.699822 386.100459 
L 75.311392 386.044908 
L 79.922963 385.970746 
L 84.534533 385.872427 
L 89.146103 385.74299 
L 93.757673 385.573779 
L 98.369244 385.354125 
L 102.980814 385.070998 
L 107.592384 384.708635 
L 112.203954 384.248155 
L 116.815525 383.667158 
L 121.427095 382.939351 
L 126.038665 382.034194 
L 130.650235 380.916613 
L 135.261806 379.546788 
L 139.873376 377.88007 
L 144.484946 375.867047 
L 149.096516 373.453799 
L 153.708087 370.58238 
L 158.319657 367.19156 
L 162.931227 363.217856 
L 167.542797 358.596862 
L 172.154368 353.264908 
L 176.765938 347.161013 
L 181.377508 340.229145 
L 185.989078 332.420714 
L 190.600649 323.697266 
L 195.212219 314.033274 
L 199.823789 303.418952 
L 204.435359 291.862949 
L 209.04693 279.39481 
L 213.6585 266.06707 
L 218.27007 251.956827 
L 222.88164 237.16667 
L 227.493211 221.824849 
L 232.104781 206.084581 
L 236.716351 190.122426 
L 241.327921 174.135715 
L 245.939492 158.339032 
L 250.551062 142.959817 
L 255.162632 128.233192 
L 259.774202 114.39616 
L 264.385773 101.681382 
L 268.997343 90.310727 
L 273.608913 80.488878 
L 278.220483 72.397211 
L 282.832054 66.188242 
L 287.443624 61.980838 
L 292.055194 59.85644 
L 296.666764 59.85644 
L 301.278335 61.980838 
L 305.889905 66.188242 
L 310.501475 72.397211 
L 315.113045 80.488878 
L 319.724615 90.310727 
L 324.336186 101.681382 
L 328.947756 114.39616 
L 333.559326 128.233192 
L 338.170896 142.959817 
L 342.782467 158.339032 
L 347.394037 174.135715 
L 352.005607 190.122426 
L 356.617177 206.084581 
L 361.228748 221.824849 
L 365.840318 237.16667 
L 370.451888 251.956827 
L 375.063458 266.06707 
L 379.675029 279.39481 
L 384.286599 291.862949 
L 388.898169 303.418952 
L 393.509739 314.033274 
L 398.12131 323.697266 
L 402.73288 332.420714 
L 407.34445 340.229145 
L 411.95602 347.161013 
L 416.567591 353.264908 
L 421.179161 358.596862 
L 425.790731 363.217856 
L 430.402301 367.19156 
L 435.013872 370.58238 
L 439.625442 373.453799 
L 444.237012 375.867047 
L 448.848582 377.88007 
L 453.460153 379.546788 
L 458.071723 380.916613 
L 462.683293 382.034194 
L 467.294863 382.939351 
L 471.906434 383.667158 
L 476.518004 384.248155 
L 481.129574 384.708635 
L 485.741144 385.070998 
L 490.352715 385.354125 
L 494.964285 385.573779 
L 499.575855 385.74299 
L 504.187425 385.872427 
L 508.798996 385.970746 
L 513.410566 386.044908 
L 518.022136 386.100459 
L 522.633706 386.141781 
" style="fill:none;stroke:#36a2eb;stroke-linecap:square;"/>
   </g>
   <g id="patch_3">
    <path d="M 43.260979 402.93 
L 545.460979 402.93 
" style="fill:none;stroke:#000000;stroke-linecap:square;stroke-linejoin:miter;stroke-width:0.8;"/>
   </g>
   <g id="legend_1">
    <g id="patch_4">
     <path d="M 457.486292 88.29875 
L 535.660979 88.29875 
Q 538.460979 88.29875 538.460979 85.49875 
L 538.460979 45.8 
Q 538.460979 43 535.660979 43 
L 457.486292 43 
Q 454.686292 43 454.686292 45.8 
L 454.686292 85.49875 
Q 454.686292 88.29875 457.486292 88.29875 
z
" style="fill:#ffffff;opacity:0.8;stroke:#cccccc;stroke-linejoin:miter;"/>
    </g>
    <g id="patch_5">
     <path d="M 460.286292 59.237813 
L 488.286292 59.237813 
L 488.286292 49.437813 
L 460.286292 49.437813 
z
" style="fill:#ff6384;opacity:0.5;stroke:#ff6384;stroke-linejoin:miter;"/>
    </g>
    <g id="text_1">
     <!-- base -->
     <defs>
      <path d="M 48.6875 27.296875 
Q 48.6875 37.203125 44.609375 42.84375 
Q 40.53125 48.484375 33.40625 48.484375 
Q 26.265625 48.484375 22.1875 42.84375 
Q 18.109375 37.203125 18.109375 27.296875 
Q 18.109375 17.390625 22.1875 11.75 
Q 26.265625 6.109375 33.40625 6.109375 
Q 40.53125 6.109375 44.609375 11.75 
Q 48.6875 17.390625 48.6875 27.296875 
z
M 18.109375 46.390625 
Q 20.953125 51.265625 25.265625 53.625 
Q 29.59375 56 35.59375 56 
Q 45.5625 56 51.78125 48.09375 
Q 58.015625 40.1875 58.015625 27.296875 
Q 58.015625 14.40625 51.78125 6.484375 
Q 45.5625 -1.421875 35.59375 -1.421875 
Q 29.59375 -1.421875 25.265625 0.953125 
Q 20.953125 3.328125 18.109375 8.203125 
L 18.109375 0 
L 9.078125 0 
L 9.078125 75.984375 
L 18.109375 75.984375 
z
" id="DejaVuSans-98"/>
      <path d="M 34.28125 27.484375 
Q 23.390625 27.484375 19.1875 25 
Q 14.984375 22.515625 14.984375 16.5 
Q 14.984375 11.71875 18.140625 8.90625 
Q 21.296875 6.109375 26.703125 6.109375 
Q 34.1875 6.109375 38.703125 11.40625 
Q 43.21875 16.703125 43.21875 25.484375 
L 43.21875 27.484375 
z
M 52.203125 31.203125 
L 52.203125 0 
L 43.21875 0 
L 43.21875 8.296875 
Q 40.140625 3.328125 35.546875 0.953125 
Q 30.953125 -1.421875 24.3125 -1.421875 
Q 15.921875 -1.421875 10.953125 3.296875 
Q 6 8.015625 6 15.921875 
Q 6 25.140625 12.171875 29.828125 
Q 18.359375 34.515625 30.609375 34.515625 
L 43.21875 34.515625 
L 43.21875 35.40625 
Q 43.21875 41.609375 39.140625 45 
Q 35.0625 48.390625 27.6875 48.390625 
Q 23 48.390625 18.546875 47.265625 
Q 14.109375 46.140625 10.015625 43.890625 
L 10.015625 52.203125 
Q 14.9375 54.109375 19.578125 55.046875 
Q 24.21875 56 28.609375 56 
Q 40.484375 56 46.34375 49.84375 
Q 52.203125 43.703125 52.203125 31.203125 
z
" id="DejaVuSans-97"/>
      <path d="M 44.28125 53.078125 
L 44.28125 44.578125 
Q 40.484375 46.53125 36.375 47.5 
Q 32.28125 48.484375 27.875 48.484375 
Q 21.1875 48.484375 17.84375 46.4375 
Q 14.5 44.390625 14.5 40.28125 
Q 14.5 37.15625 16.890625 35.375 
Q 19.28125 33.59375 26.515625 31.984375 
L 29.59375 31.296875 
Q 39.15625 29.25 43.1875 25.515625 
Q 47.21875 21.78125 47.21875 15.09375 
Q 47.21875 7.46875 41.1875 3.015625 
Q 35.15625 -1.421875 24.609375 -1.421875 
Q 20.21875 -1.421875 15.453125 -0.5625 
Q 10.6875 0.296875 5.421875 2 
L 5.421875 11.28125 
Q 10.40625 8.6875 15.234375 7.390625 
Q 20.0625 6.109375 24.8125 6.109375 
Q 31.15625 6.109375 34.5625 8.28125 
Q 37.984375 10.453125 37.984375 14.40625 
Q 37.984375 18.0625 35.515625 20.015625 
Q 33.0625 21.96875 24.703125 23.78125 
L 21.578125 24.515625 
Q 13.234375 26.265625 9.515625 29.90625 
Q 5.8125 33.546875 5.8125 39.890625 
Q 5.8125 47.609375 11.28125 51.796875 
Q 16.75 56 26.8125 56 
Q 31.78125 56 36.171875 55.265625 
Q 40.578125 54.546875 44.28125 53.078125 
z
" id="DejaVuSans-115"/>
      <path d="M 56.203125 29.59375 
L 56.203125 25.203125 
L 14.890625 25.203125 
Q 15.484375 15.921875 20.484375 11.0625 
Q 25.484375 6.203125 34.421875 6.203125 
Q 39.59375 6.203125 44.453125 7.46875 
Q 49.3125 8.734375 54.109375 11.28125 
L 54.109375 2.78125 
Q 49.265625 0.734375 44.1875 -0.34375 
Q 39.109375 -1.421875 33.890625 -1.421875 
Q 20.796875 -1.421875 13.15625 6.1875 
Q 5.515625 13.8125 5.515625 26.8125 
Q 5.515625 40.234375 12.765625 48.109375 
Q 20.015625 56 32.328125 56 
Q 43.359375 56 49.78125 48.890625 
Q 56.203125 41.796875 56.203125 29.59375 
z
M 47.21875 32.234375 
Q 47.125 39.59375 43.09375 43.984375 
Q 39.0625 48.390625 32.421875 48.390625 
Q 24.90625 48.390625 20.390625 44.140625 
Q 15.875 39.890625 15.1875 32.171875 
z
" id="DejaVuSans-101"/>
     </defs>
     <g transform="translate(499.486292 59.237813)scale(0.14 -0.14)">
      <use xlink:href="#DejaVuSans-98"/>
      <use x="63.476562" xlink:href="#DejaVuSans-97"/>
      <use x="124.755859" xlink:href="#DejaVuSans-115"/>
      <use x="176.855469" xlink:href="#DejaVuSans-101"/>
     </g>
    </g>
    <g id="patch_6">
     <path d="M 460.286292 79.787188 
L 488.286292 79.787188 
L 488.286292 69.987188 
L 460.286292 69.987188 
z
" style="fill:#36a2eb;opacity:0.5;stroke:#36a2eb;stroke-linejoin:miter;"/>
    </g>
    <g id="text_2">
     <!-- subs -->
     <defs>
      <path d="M 8.5 21.578125 
L 8.5 54.6875 
L 17.484375 54.6875 
L 17.484375 21.921875 
Q 17.484375 14.15625 20.5 10.265625 
Q 23.53125 6.390625 29.59375 6.390625 
Q 36.859375 6.390625 41.078125 11.03125 
Q 45.3125 15.671875 45.3125 23.6875 
L 45.3125 54.6875 
L 54.296875 54.6875 
L 54.296875 0 
L 45.3125 0 
L 45.3125 8.40625 
Q 42.046875 3.421875 37.71875 1 
Q 33.40625 -1.421875 27.6875 -1.421875 
Q 18.265625 -1.421875 13.375 4.4375 
Q 8.5 10.296875 8.5 21.578125 
z
M 31.109375 56 
z
" id="DejaVuSans-117"/>
     </defs>
     <g transform="translate(499.486292 79.787188)scale(0.14 -0.14)">
      <use xlink:href="#DejaVuSans-115"/>
      <use x="52.099609" xlink:href="#DejaVuSans-117"/>
      <use x="115.478516" xlink:href="#DejaVuSans-98"/>
      <use x="178.955078" xlink:href="#DejaVuSans-115"/>
     </g>
    </g>
   </g>
  </g>
  <g id="axes_2">
   <g id="patch_7">
    <path d="M 43.260979 525.24 
L 545.460979 525.24 
L 545.460979 402.93 
L 43.260979 402.93 
z
" style="fill:none;"/>
   </g>
   <g id="patch_8">
    <path clip-path="url(#pad694241dd)" d="M 184.914205 519.680455 
L 403.807754 519.680455 
L 403.807754 482.616818 
L 184.914205 482.616818 
z
" style="fill:#ff6384;opacity:0.5;"/>
   </g>
   <g id="patch_9">
    <path clip-path="url(#pad694241dd)" d="M 182.507343 445.553182 
L 406.214615 445.553182 
L 406.214615 408.489545 
L 182.507343 408.489545 
z
" style="fill:#36a2eb;opacity:0.5;"/>
   </g>
   <g id="matplotlib.axis_1">
    <g id="xtick_1">
     <g id="line2d_3">
      <defs>
       <path d="M 0 0 
L 0 3.5 
" id="m1b45a6fd8f" style="stroke:#000000;stroke-width:0.8;"/>
      </defs>
      <g>
       <use style="stroke:#000000;stroke-width:0.8;" x="44.9075" xlink:href="#m1b45a6fd8f" y="525.24"/>
      </g>
     </g>
     <g id="text_3">
      <!-- 12 -->
      <defs>
       <path d="M 12.40625 8.296875 
L 28.515625 8.296875 
L 28.515625 63.921875 
L 10.984375 60.40625 
L 10.984375 69.390625 
L 28.421875 72.90625 
L 38.28125 72.90625 
L 38.28125 8.296875 
L 54.390625 8.296875 
L 54.390625 0 
L 12.40625 0 
z
" id="DejaVuSans-49"/>
       <path d="M 19.1875 8.296875 
L 53.609375 8.296875 
L 53.609375 0 
L 7.328125 0 
L 7.328125 8.296875 
Q 12.9375 14.109375 22.625 23.890625 
Q 32.328125 33.6875 34.8125 36.53125 
Q 39.546875 41.84375 41.421875 45.53125 
Q 43.3125 49.21875 43.3125 52.78125 
Q 43.3125 58.59375 39.234375 62.25 
Q 35.15625 65.921875 28.609375 65.921875 
Q 23.96875 65.921875 18.8125 64.3125 
Q 13.671875 62.703125 7.8125 59.421875 
L 7.8125 69.390625 
Q 13.765625 71.78125 18.9375 73 
Q 24.125 74.21875 28.421875 74.21875 
Q 39.75 74.21875 46.484375 68.546875 
Q 53.21875 62.890625 53.21875 53.421875 
Q 53.21875 48.921875 51.53125 44.890625 
Q 49.859375 40.875 45.40625 35.40625 
Q 44.1875 33.984375 37.640625 27.21875 
Q 31.109375 20.453125 19.1875 8.296875 
z
" id="DejaVuSans-50"/>
      </defs>
      <g transform="translate(36 542.877813)scale(0.14 -0.14)">
       <use xlink:href="#DejaVuSans-49"/>
       <use x="63.623047" xlink:href="#DejaVuSans-50"/>
      </g>
     </g>
    </g>
    <g id="xtick_2">
     <g id="line2d_4">
      <g>
       <use style="stroke:#000000;stroke-width:0.8;" x="128.757409" xlink:href="#m1b45a6fd8f" y="525.24"/>
      </g>
     </g>
     <g id="text_4">
      <!-- 14 -->
      <defs>
       <path d="M 37.796875 64.3125 
L 12.890625 25.390625 
L 37.796875 25.390625 
z
M 35.203125 72.90625 
L 47.609375 72.90625 
L 47.609375 25.390625 
L 58.015625 25.390625 
L 58.015625 17.1875 
L 47.609375 17.1875 
L 47.609375 0 
L 37.796875 0 
L 37.796875 17.1875 
L 4.890625 17.1875 
L 4.890625 26.703125 
z
" id="DejaVuSans-52"/>
      </defs>
      <g transform="translate(119.849909 542.877813)scale(0.14 -0.14)">
       <use xlink:href="#DejaVuSans-49"/>
       <use x="63.623047" xlink:href="#DejaVuSans-52"/>
      </g>
     </g>
    </g>
    <g id="xtick_3">
     <g id="line2d_5">
      <g>
       <use style="stroke:#000000;stroke-width:0.8;" x="212.607318" xlink:href="#m1b45a6fd8f" y="525.24"/>
      </g>
     </g>
     <g id="text_5">
      <!-- 16 -->
      <defs>
       <path d="M 33.015625 40.375 
Q 26.375 40.375 22.484375 35.828125 
Q 18.609375 31.296875 18.609375 23.390625 
Q 18.609375 15.53125 22.484375 10.953125 
Q 26.375 6.390625 33.015625 6.390625 
Q 39.65625 6.390625 43.53125 10.953125 
Q 47.40625 15.53125 47.40625 23.390625 
Q 47.40625 31.296875 43.53125 35.828125 
Q 39.65625 40.375 33.015625 40.375 
z
M 52.59375 71.296875 
L 52.59375 62.3125 
Q 48.875 64.0625 45.09375 64.984375 
Q 41.3125 65.921875 37.59375 65.921875 
Q 27.828125 65.921875 22.671875 59.328125 
Q 17.53125 52.734375 16.796875 39.40625 
Q 19.671875 43.65625 24.015625 45.921875 
Q 28.375 48.1875 33.59375 48.1875 
Q 44.578125 48.1875 50.953125 41.515625 
Q 57.328125 34.859375 57.328125 23.390625 
Q 57.328125 12.15625 50.6875 5.359375 
Q 44.046875 -1.421875 33.015625 -1.421875 
Q 20.359375 -1.421875 13.671875 8.265625 
Q 6.984375 17.96875 6.984375 36.375 
Q 6.984375 53.65625 15.1875 63.9375 
Q 23.390625 74.21875 37.203125 74.21875 
Q 40.921875 74.21875 44.703125 73.484375 
Q 48.484375 72.75 52.59375 71.296875 
z
" id="DejaVuSans-54"/>
      </defs>
      <g transform="translate(203.699818 542.877813)scale(0.14 -0.14)">
       <use xlink:href="#DejaVuSans-49"/>
       <use x="63.623047" xlink:href="#DejaVuSans-54"/>
      </g>
     </g>
    </g>
    <g id="xtick_4">
     <g id="line2d_6">
      <g>
       <use style="stroke:#000000;stroke-width:0.8;" x="296.457227" xlink:href="#m1b45a6fd8f" y="525.24"/>
      </g>
     </g>
     <g id="text_6">
      <!-- 18 -->
      <defs>
       <path d="M 31.78125 34.625 
Q 24.75 34.625 20.71875 30.859375 
Q 16.703125 27.09375 16.703125 20.515625 
Q 16.703125 13.921875 20.71875 10.15625 
Q 24.75 6.390625 31.78125 6.390625 
Q 38.8125 6.390625 42.859375 10.171875 
Q 46.921875 13.96875 46.921875 20.515625 
Q 46.921875 27.09375 42.890625 30.859375 
Q 38.875 34.625 31.78125 34.625 
z
M 21.921875 38.8125 
Q 15.578125 40.375 12.03125 44.71875 
Q 8.5 49.078125 8.5 55.328125 
Q 8.5 64.0625 14.71875 69.140625 
Q 20.953125 74.21875 31.78125 74.21875 
Q 42.671875 74.21875 48.875 69.140625 
Q 55.078125 64.0625 55.078125 55.328125 
Q 55.078125 49.078125 51.53125 44.71875 
Q 48 40.375 41.703125 38.8125 
Q 48.828125 37.15625 52.796875 32.3125 
Q 56.78125 27.484375 56.78125 20.515625 
Q 56.78125 9.90625 50.3125 4.234375 
Q 43.84375 -1.421875 31.78125 -1.421875 
Q 19.734375 -1.421875 13.25 4.234375 
Q 6.78125 9.90625 6.78125 20.515625 
Q 6.78125 27.484375 10.78125 32.3125 
Q 14.796875 37.15625 21.921875 38.8125 
z
M 18.3125 54.390625 
Q 18.3125 48.734375 21.84375 45.5625 
Q 25.390625 42.390625 31.78125 42.390625 
Q 38.140625 42.390625 41.71875 45.5625 
Q 45.3125 48.734375 45.3125 54.390625 
Q 45.3125 60.0625 41.71875 63.234375 
Q 38.140625 66.40625 31.78125 66.40625 
Q 25.390625 66.40625 21.84375 63.234375 
Q 18.3125 60.0625 18.3125 54.390625 
z
" id="DejaVuSans-56"/>
      </defs>
      <g transform="translate(287.549727 542.877813)scale(0.14 -0.14)">
       <use xlink:href="#DejaVuSans-49"/>
       <use x="63.623047" xlink:href="#DejaVuSans-56"/>
      </g>
     </g>
    </g>
    <g id="xtick_5">
     <g id="line2d_7">
      <g>
       <use style="stroke:#000000;stroke-width:0.8;" x="380.307136" xlink:href="#m1b45a6fd8f" y="525.24"/>
      </g>
     </g>
     <g id="text_7">
      <!-- 20 -->
      <defs>
       <path d="M 31.78125 66.40625 
Q 24.171875 66.40625 20.328125 58.90625 
Q 16.5 51.421875 16.5 36.375 
Q 16.5 21.390625 20.328125 13.890625 
Q 24.171875 6.390625 31.78125 6.390625 
Q 39.453125 6.390625 43.28125 13.890625 
Q 47.125 21.390625 47.125 36.375 
Q 47.125 51.421875 43.28125 58.90625 
Q 39.453125 66.40625 31.78125 66.40625 
z
M 31.78125 74.21875 
Q 44.046875 74.21875 50.515625 64.515625 
Q 56.984375 54.828125 56.984375 36.375 
Q 56.984375 17.96875 50.515625 8.265625 
Q 44.046875 -1.421875 31.78125 -1.421875 
Q 19.53125 -1.421875 13.0625 8.265625 
Q 6.59375 17.96875 6.59375 36.375 
Q 6.59375 54.828125 13.0625 64.515625 
Q 19.53125 74.21875 31.78125 74.21875 
z
" id="DejaVuSans-48"/>
      </defs>
      <g transform="translate(371.399636 542.877813)scale(0.14 -0.14)">
       <use xlink:href="#DejaVuSans-50"/>
       <use x="63.623047" xlink:href="#DejaVuSans-48"/>
      </g>
     </g>
    </g>
    <g id="xtick_6">
     <g id="line2d_8">
      <g>
       <use style="stroke:#000000;stroke-width:0.8;" x="464.157045" xlink:href="#m1b45a6fd8f" y="525.24"/>
      </g>
     </g>
     <g id="text_8">
      <!-- 22 -->
      <g transform="translate(455.249545 542.877813)scale(0.14 -0.14)">
       <use xlink:href="#DejaVuSans-50"/>
       <use x="63.623047" xlink:href="#DejaVuSans-50"/>
      </g>
     </g>
    </g>
   </g>
   <g id="line2d_9">
    <path clip-path="url(#pad694241dd)" d="M 294.360979 525.24 
L 294.360979 402.93 
" style="fill:none;stroke:#ff6384;stroke-dasharray:5.55,2.4;stroke-dashoffset:0;stroke-opacity:0.8;stroke-width:1.5;"/>
   </g>
   <g id="line2d_10">
    <path clip-path="url(#pad694241dd)" d="M 294.360979 525.24 
L 294.360979 402.93 
" style="fill:none;stroke:#36a2eb;stroke-dasharray:5.55,2.4;stroke-dashoffset:0;stroke-opacity:0.8;stroke-width:1.5;"/>
   </g>
   <g id="patch_10">
    <path d="M 43.260979 525.24 
L 545.460979 525.24 
" style="fill:none;stroke:#000000;stroke-linecap:square;stroke-linejoin:miter;stroke-width:0.8;"/>
   </g>
  </g>
 </g>
 <defs>
  <clipPath id="p6f51216c1c">
   <rect height="366.93" width="502.2" x="43.260979" y="36"/>
  </clipPath>
  <clipPath id="pad694241dd">
   <rect height="122.31" width="502.2" x="43.260979" y="402.93"/>
  </clipPath>
 </defs>
</svg>
