<?xml version="1.0" encoding="utf-8" standalone="no"?>
<!DOCTYPE svg PUBLIC "-//W3C//DTD SVG 1.1//EN"
  "http://www.w3.org/Graphics/SVG/1.1/DTD/svg11.dtd">
<!-- Created with matplotlib (https://matplotlib.org/) -->
<svg height="581.789375pt" version="1.1" viewBox="0 0 574.2 581.789375" width="574.2pt" xmlns="http://www.w3.org/2000/svg" xmlns:xlink="http://www.w3.org/1999/xlink">
 <defs>
  <style type="text/css">
*{stroke-linecap:butt;stroke-linejoin:round;}
  </style>
 </defs>
 <g id="figure_1">
  <g id="patch_1">
   <path d="M 0 581.789375 
L 574.2 581.789375 
L 574.2 0 
L 0 0 
z
" style="fill:none;"/>
  </g>
  <g id="axes_1">
   <g id="patch_2">
    <path d="M 36 402.93 
L 538.2 402.93 
L 538.2 36 
L 36 36 
z
" style="fill:none;"/>
   </g>
   <g id="PolyCollection_1">
    <defs>
     <path d="M 76.150413 -195.538011 
L 76.150413 -195.634696 
L 80.587002 -195.671154 
L 85.023591 -195.720166 
L 89.46018 -195.785599 
L 93.896769 -195.872346 
L 98.333358 -195.986548 
L 102.769947 -196.135842 
L 107.206536 -196.329642 
L 111.643125 -196.579444 
L 116.079714 -196.899154 
L 120.516303 -197.305435 
L 124.952892 -197.818046 
L 129.389481 -198.460187 
L 133.82607 -199.258803 
L 138.262659 -200.244841 
L 142.699248 -201.453432 
L 147.135837 -202.923971 
L 151.572426 -204.700053 
L 156.009016 -206.829253 
L 160.445605 -209.362695 
L 164.882194 -212.354401 
L 169.318783 -215.860385 
L 173.755372 -219.93747 
L 178.191961 -224.641832 
L 182.62855 -230.027274 
L 187.065139 -236.143234 
L 191.501728 -243.032582 
L 195.938317 -250.729247 
L 200.374906 -259.255749 
L 204.811495 -268.620723 
L 209.248084 -278.81654 
L 213.684673 -289.81713 
L 218.121262 -301.576143 
L 222.557851 -314.025555 
L 226.99444 -327.074852 
L 231.431029 -340.61088 
L 235.867618 -354.498457 
L 240.304207 -368.581804 
L 244.740796 -382.686817 
L 249.177385 -396.624168 
L 253.613974 -410.193189 
L 258.050563 -423.186433 
L 262.487152 -435.394792 
L 266.923741 -446.612991 
L 271.36033 -456.645275 
L 275.796919 -465.311055 
L 280.233508 -472.4503 
L 284.670097 -477.92845 
L 289.106687 -481.640626 
L 293.543276 -483.514973 
L 297.979865 -483.514973 
L 302.416454 -481.640626 
L 306.853043 -477.92845 
L 311.289632 -472.4503 
L 315.726221 -465.311055 
L 320.16281 -456.645275 
L 324.599399 -446.612991 
L 329.035988 -435.394792 
L 333.472577 -423.186433 
L 337.909166 -410.193189 
L 342.345755 -396.624168 
L 346.782344 -382.686817 
L 351.218933 -368.581804 
L 355.655522 -354.498457 
L 360.092111 -340.61088 
L 364.5287 -327.074852 
L 368.965289 -314.025555 
L 373.401878 -301.576143 
L 377.838467 -289.81713 
L 382.275056 -278.81654 
L 386.711645 -268.620723 
L 391.148234 -259.255749 
L 395.584823 -250.729247 
L 400.021412 -243.032582 
L 404.458001 -236.143234 
L 408.89459 -230.027274 
L 413.331179 -224.641832 
L 417.767769 -219.93747 
L 422.204358 -215.860385 
L 426.640947 -212.354401 
L 431.077536 -209.362695 
L 435.514125 -206.829253 
L 439.950714 -204.700053 
L 444.387303 -202.923971 
L 448.823892 -201.453432 
L 453.260481 -200.244841 
L 457.69707 -199.258803 
L 462.133659 -198.460187 
L 466.570248 -197.818046 
L 471.006837 -197.305435 
L 475.443426 -196.899154 
L 479.880015 -196.579444 
L 484.316604 -196.329642 
L 488.753193 -196.135842 
L 493.189782 -195.986548 
L 497.626371 -195.872346 
L 502.06296 -195.785599 
L 506.499549 -195.720166 
L 510.936138 -195.671154 
L 515.372727 -195.634696 
L 515.372727 -195.538011 
L 515.372727 -195.538011 
L 510.936138 -195.538011 
L 506.499549 -195.538011 
L 502.06296 -195.538011 
L 497.626371 -195.538011 
L 493.189782 -195.538011 
L 488.753193 -195.538011 
L 484.316604 -195.538011 
L 479.880015 -195.538011 
L 475.443426 -195.538011 
L 471.006837 -195.538011 
L 466.570248 -195.538011 
L 462.133659 -195.538011 
L 457.69707 -195.538011 
L 453.260481 -195.538011 
L 448.823892 -195.538011 
L 444.387303 -195.538011 
L 439.950714 -195.538011 
L 435.514125 -195.538011 
L 431.077536 -195.538011 
L 426.640947 -195.538011 
L 422.204358 -195.538011 
L 417.767769 -195.538011 
L 413.331179 -195.538011 
L 408.89459 -195.538011 
L 404.458001 -195.538011 
L 400.021412 -195.538011 
L 395.584823 -195.538011 
L 391.148234 -195.538011 
L 386.711645 -195.538011 
L 382.275056 -195.538011 
L 377.838467 -195.538011 
L 373.401878 -195.538011 
L 368.965289 -195.538011 
L 364.5287 -195.538011 
L 360.092111 -195.538011 
L 355.655522 -195.538011 
L 351.218933 -195.538011 
L 346.782344 -195.538011 
L 342.345755 -195.538011 
L 337.909166 -195.538011 
L 333.472577 -195.538011 
L 329.035988 -195.538011 
L 324.599399 -195.538011 
L 320.16281 -195.538011 
L 315.726221 -195.538011 
L 311.289632 -195.538011 
L 306.853043 -195.538011 
L 302.416454 -195.538011 
L 297.979865 -195.538011 
L 293.543276 -195.538011 
L 289.106687 -195.538011 
L 284.670097 -195.538011 
L 280.233508 -195.538011 
L 275.796919 -195.538011 
L 271.36033 -195.538011 
L 266.923741 -195.538011 
L 262.487152 -195.538011 
L 258.050563 -195.538011 
L 253.613974 -195.538011 
L 249.177385 -195.538011 
L 244.740796 -195.538011 
L 240.304207 -195.538011 
L 235.867618 -195.538011 
L 231.431029 -195.538011 
L 226.99444 -195.538011 
L 222.557851 -195.538011 
L 218.121262 -195.538011 
L 213.684673 -195.538011 
L 209.248084 -195.538011 
L 204.811495 -195.538011 
L 200.374906 -195.538011 
L 195.938317 -195.538011 
L 191.501728 -195.538011 
L 187.065139 -195.538011 
L 182.62855 -195.538011 
L 178.191961 -195.538011 
L 173.755372 -195.538011 
L 169.318783 -195.538011 
L 164.882194 -195.538011 
L 160.445605 -195.538011 
L 156.009016 -195.538011 
L 151.572426 -195.538011 
L 147.135837 -195.538011 
L 142.699248 -195.538011 
L 138.262659 -195.538011 
L 133.82607 -195.538011 
L 129.389481 -195.538011 
L 124.952892 -195.538011 
L 120.516303 -195.538011 
L 116.079714 -195.538011 
L 111.643125 -195.538011 
L 107.206536 -195.538011 
L 102.769947 -195.538011 
L 98.333358 -195.538011 
L 93.896769 -195.538011 
L 89.46018 -195.538011 
L 85.023591 -195.538011 
L 80.587002 -195.538011 
L 76.150413 -195.538011 
z
" id="m421243591e" style="stroke:#ff6384;stroke-opacity:0.5;"/>
    </defs>
    <g clip-path="url(#p55e6225dcd)">
     <use style="fill:#ff6384;fill-opacity:0.5;stroke:#ff6384;stroke-opacity:0.5;" x="0" xlink:href="#m421243591e" y="581.789375"/>
    </g>
   </g>
   <g id="PolyCollection_2">
    <defs>
     <path d="M 58.827273 -195.538011 
L 58.827273 -195.650004 
L 62.657428 -195.692234 
L 66.487584 -195.749007 
L 70.317739 -195.8248 
L 74.147895 -195.925281 
L 77.97805 -196.057565 
L 81.808206 -196.230497 
L 85.638362 -196.454982 
L 89.468517 -196.744335 
L 93.298673 -197.114666 
L 97.128828 -197.585273 
L 100.958984 -198.179047 
L 104.789139 -198.922859 
L 108.619295 -199.847921 
L 112.44945 -200.990079 
L 116.279606 -202.390029 
L 120.109761 -204.093399 
L 123.939917 -206.150691 
L 127.770073 -208.617009 
L 131.600228 -211.551575 
L 135.430384 -215.016962 
L 139.260539 -219.078053 
L 143.090695 -223.800667 
L 146.92085 -229.249878 
L 150.751006 -235.488004 
L 154.581161 -242.572312 
L 158.411317 -250.552459 
L 162.241472 -259.467747 
L 166.071628 -269.344261 
L 169.901784 -280.192004 
L 173.731939 -292.002137 
L 177.562095 -304.744465 
L 181.39225 -318.365297 
L 185.222406 -332.785841 
L 189.052561 -347.901251 
L 192.882717 -363.580456 
L 196.712872 -379.666871 
L 200.543028 -395.980052 
L 204.373184 -412.31833 
L 208.203339 -428.4624 
L 212.033495 -444.179822 
L 215.86365 -459.230303 
L 219.693806 -473.371627 
L 223.523961 -486.366018 
L 227.354117 -497.986726 
L 231.184272 -508.02457 
L 235.014428 -516.294181 
L 238.844583 -522.639693 
L 242.674739 -526.939623 
L 246.504895 -529.110739 
L 250.33505 -529.110739 
L 254.165206 -526.939623 
L 257.995361 -522.639693 
L 261.825517 -516.294181 
L 265.655672 -508.02457 
L 269.485828 -497.986726 
L 273.315983 -486.366018 
L 277.146139 -473.371627 
L 280.976294 -459.230303 
L 284.80645 -444.179822 
L 288.636606 -428.4624 
L 292.466761 -412.31833 
L 296.296917 -395.980052 
L 300.127072 -379.666871 
L 303.957228 -363.580456 
L 307.787383 -347.901251 
L 311.617539 -332.785841 
L 315.447694 -318.365297 
L 319.27785 -304.744465 
L 323.108005 -292.002137 
L 326.938161 -280.192004 
L 330.768317 -269.344261 
L 334.598472 -259.467747 
L 338.428628 -250.552459 
L 342.258783 -242.572312 
L 346.088939 -235.488004 
L 349.919094 -229.249878 
L 353.74925 -223.800667 
L 357.579405 -219.078053 
L 361.409561 -215.016962 
L 365.239716 -211.551575 
L 369.069872 -208.617009 
L 372.900028 -206.150691 
L 376.730183 -204.093399 
L 380.560339 -202.390029 
L 384.390494 -200.990079 
L 388.22065 -199.847921 
L 392.050805 -198.922859 
L 395.880961 -198.179047 
L 399.711116 -197.585273 
L 403.541272 -197.114666 
L 407.371428 -196.744335 
L 411.201583 -196.454982 
L 415.031739 -196.230497 
L 418.861894 -196.057565 
L 422.69205 -195.925281 
L 426.522205 -195.8248 
L 430.352361 -195.749007 
L 434.182516 -195.692234 
L 438.012672 -195.650004 
L 438.012672 -195.538011 
L 438.012672 -195.538011 
L 434.182516 -195.538011 
L 430.352361 -195.538011 
L 426.522205 -195.538011 
L 422.69205 -195.538011 
L 418.861894 -195.538011 
L 415.031739 -195.538011 
L 411.201583 -195.538011 
L 407.371428 -195.538011 
L 403.541272 -195.538011 
L 399.711116 -195.538011 
L 395.880961 -195.538011 
L 392.050805 -195.538011 
L 388.22065 -195.538011 
L 384.390494 -195.538011 
L 380.560339 -195.538011 
L 376.730183 -195.538011 
L 372.900028 -195.538011 
L 369.069872 -195.538011 
L 365.239716 -195.538011 
L 361.409561 -195.538011 
L 357.579405 -195.538011 
L 353.74925 -195.538011 
L 349.919094 -195.538011 
L 346.088939 -195.538011 
L 342.258783 -195.538011 
L 338.428628 -195.538011 
L 334.598472 -195.538011 
L 330.768317 -195.538011 
L 326.938161 -195.538011 
L 323.108005 -195.538011 
L 319.27785 -195.538011 
L 315.447694 -195.538011 
L 311.617539 -195.538011 
L 307.787383 -195.538011 
L 303.957228 -195.538011 
L 300.127072 -195.538011 
L 296.296917 -195.538011 
L 292.466761 -195.538011 
L 288.636606 -195.538011 
L 284.80645 -195.538011 
L 280.976294 -195.538011 
L 277.146139 -195.538011 
L 273.315983 -195.538011 
L 269.485828 -195.538011 
L 265.655672 -195.538011 
L 261.825517 -195.538011 
L 257.995361 -195.538011 
L 254.165206 -195.538011 
L 250.33505 -195.538011 
L 246.504895 -195.538011 
L 242.674739 -195.538011 
L 238.844583 -195.538011 
L 235.014428 -195.538011 
L 231.184272 -195.538011 
L 227.354117 -195.538011 
L 223.523961 -195.538011 
L 219.693806 -195.538011 
L 215.86365 -195.538011 
L 212.033495 -195.538011 
L 208.203339 -195.538011 
L 204.373184 -195.538011 
L 200.543028 -195.538011 
L 196.712872 -195.538011 
L 192.882717 -195.538011 
L 189.052561 -195.538011 
L 185.222406 -195.538011 
L 181.39225 -195.538011 
L 177.562095 -195.538011 
L 173.731939 -195.538011 
L 169.901784 -195.538011 
L 166.071628 -195.538011 
L 162.241472 -195.538011 
L 158.411317 -195.538011 
L 154.581161 -195.538011 
L 150.751006 -195.538011 
L 146.92085 -195.538011 
L 143.090695 -195.538011 
L 139.260539 -195.538011 
L 135.430384 -195.538011 
L 131.600228 -195.538011 
L 127.770073 -195.538011 
L 123.939917 -195.538011 
L 120.109761 -195.538011 
L 116.279606 -195.538011 
L 112.44945 -195.538011 
L 108.619295 -195.538011 
L 104.789139 -195.538011 
L 100.958984 -195.538011 
L 97.128828 -195.538011 
L 93.298673 -195.538011 
L 89.468517 -195.538011 
L 85.638362 -195.538011 
L 81.808206 -195.538011 
L 77.97805 -195.538011 
L 74.147895 -195.538011 
L 70.317739 -195.538011 
L 66.487584 -195.538011 
L 62.657428 -195.538011 
L 58.827273 -195.538011 
z
" id="m2ea2b2ee79" style="stroke:#36a2eb;stroke-opacity:0.5;"/>
    </defs>
    <g clip-path="url(#p55e6225dcd)">
     <use style="fill:#36a2eb;fill-opacity:0.5;stroke:#36a2eb;stroke-opacity:0.5;" x="0" xlink:href="#m2ea2b2ee79" y="581.789375"/>
    </g>
   </g>
   <g id="line2d_1">
    <path clip-path="url(#p55e6225dcd)" d="M 76.150413 386.154679 
L 80.587002 386.118221 
L 85.023591 386.069209 
L 89.46018 386.003776 
L 93.896769 385.917029 
L 98.333358 385.802827 
L 102.769947 385.653533 
L 107.206536 385.459733 
L 111.643125 385.209931 
L 116.079714 384.890221 
L 120.516303 384.48394 
L 124.952892 383.971329 
L 129.389481 383.329188 
L 133.82607 382.530572 
L 138.262659 381.544534 
L 142.699248 380.335943 
L 147.135837 378.865404 
L 151.572426 377.089322 
L 156.009016 374.960122 
L 160.445605 372.42668 
L 164.882194 369.434974 
L 169.318783 365.92899 
L 173.755372 361.851905 
L 178.191961 357.147543 
L 182.62855 351.762101 
L 187.065139 345.646141 
L 191.501728 338.756793 
L 195.938317 331.060128 
L 200.374906 322.533626 
L 204.811495 313.168652 
L 209.248084 302.972835 
L 213.684673 291.972245 
L 218.121262 280.213232 
L 222.557851 267.76382 
L 226.99444 254.714523 
L 231.431029 241.178495 
L 235.867618 227.290918 
L 240.304207 213.207571 
L 244.740796 199.102558 
L 249.177385 185.165207 
L 253.613974 171.596186 
L 258.050563 158.602942 
L 262.487152 146.394583 
L 266.923741 135.176384 
L 271.36033 125.1441 
L 275.796919 116.47832 
L 280.233508 109.339075 
L 284.670097 103.860925 
L 289.106687 100.148749 
L 293.543276 98.274402 
L 297.979865 98.274402 
L 302.416454 100.148749 
L 306.853043 103.860925 
L 311.289632 109.339075 
L 315.726221 116.47832 
L 320.16281 125.1441 
L 324.599399 135.176384 
L 329.035988 146.394583 
L 333.472577 158.602942 
L 337.909166 171.596186 
L 342.345755 185.165207 
L 346.782344 199.102558 
L 351.218933 213.207571 
L 355.655522 227.290918 
L 360.092111 241.178495 
L 364.5287 254.714523 
L 368.965289 267.76382 
L 373.401878 280.213232 
L 377.838467 291.972245 
L 382.275056 302.972835 
L 386.711645 313.168652 
L 391.148234 322.533626 
L 395.584823 331.060128 
L 400.021412 338.756793 
L 404.458001 345.646141 
L 408.89459 351.762101 
L 413.331179 357.147543 
L 417.767769 361.851905 
L 422.204358 365.92899 
L 426.640947 369.434974 
L 431.077536 372.42668 
L 435.514125 374.960122 
L 439.950714 377.089322 
L 444.387303 378.865404 
L 448.823892 380.335943 
L 453.260481 381.544534 
L 457.69707 382.530572 
L 462.133659 383.329188 
L 466.570248 383.971329 
L 471.006837 384.48394 
L 475.443426 384.890221 
L 479.880015 385.209931 
L 484.316604 385.459733 
L 488.753193 385.653533 
L 493.189782 385.802827 
L 497.626371 385.917029 
L 502.06296 386.003776 
L 506.499549 386.069209 
L 510.936138 386.118221 
L 515.372727 386.154679 
" style="fill:none;stroke:#ff6384;stroke-linecap:square;"/>
   </g>
   <g id="line2d_2">
    <path clip-path="url(#p55e6225dcd)" d="M 58.827273 386.139371 
L 62.657428 386.097141 
L 66.487584 386.040368 
L 70.317739 385.964575 
L 74.147895 385.864094 
L 77.97805 385.73181 
L 81.808206 385.558878 
L 85.638362 385.334393 
L 89.468517 385.04504 
L 93.298673 384.674709 
L 97.128828 384.204102 
L 100.958984 383.610328 
L 104.789139 382.866516 
L 108.619295 381.941454 
L 112.44945 380.799296 
L 116.279606 379.399346 
L 120.109761 377.695976 
L 123.939917 375.638684 
L 127.770073 373.172366 
L 131.600228 370.2378 
L 135.430384 366.772413 
L 139.260539 362.711322 
L 143.090695 357.988708 
L 146.92085 352.539497 
L 150.751006 346.301371 
L 154.581161 339.217063 
L 158.411317 331.236916 
L 162.241472 322.321628 
L 166.071628 312.445114 
L 169.901784 301.597371 
L 173.731939 289.787238 
L 177.562095 277.04491 
L 181.39225 263.424078 
L 185.222406 249.003534 
L 189.052561 233.888124 
L 192.882717 218.208919 
L 196.712872 202.122504 
L 200.543028 185.809323 
L 204.373184 169.471045 
L 208.203339 153.326975 
L 212.033495 137.609553 
L 215.86365 122.559072 
L 219.693806 108.417748 
L 223.523961 95.423357 
L 227.354117 83.802649 
L 231.184272 73.764805 
L 235.014428 65.495194 
L 238.844583 59.149682 
L 242.674739 54.849752 
L 246.504895 52.678636 
L 250.33505 52.678636 
L 254.165206 54.849752 
L 257.995361 59.149682 
L 261.825517 65.495194 
L 265.655672 73.764805 
L 269.485828 83.802649 
L 273.315983 95.423357 
L 277.146139 108.417748 
L 280.976294 122.559072 
L 284.80645 137.609553 
L 288.636606 153.326975 
L 292.466761 169.471045 
L 296.296917 185.809323 
L 300.127072 202.122504 
L 303.957228 218.208919 
L 307.787383 233.888124 
L 311.617539 249.003534 
L 315.447694 263.424078 
L 319.27785 277.04491 
L 323.108005 289.787238 
L 326.938161 301.597371 
L 330.768317 312.445114 
L 334.598472 322.321628 
L 338.428628 331.236916 
L 342.258783 339.217063 
L 346.088939 346.301371 
L 349.919094 352.539497 
L 353.74925 357.988708 
L 357.579405 362.711322 
L 361.409561 366.772413 
L 365.239716 370.2378 
L 369.069872 373.172366 
L 372.900028 375.638684 
L 376.730183 377.695976 
L 380.560339 379.399346 
L 384.390494 380.799296 
L 388.22065 381.941454 
L 392.050805 382.866516 
L 395.880961 383.610328 
L 399.711116 384.204102 
L 403.541272 384.674709 
L 407.371428 385.04504 
L 411.201583 385.334393 
L 415.031739 385.558878 
L 418.861894 385.73181 
L 422.69205 385.864094 
L 426.522205 385.964575 
L 430.352361 386.040368 
L 434.182516 386.097141 
L 438.012672 386.139371 
" style="fill:none;stroke:#36a2eb;stroke-linecap:square;"/>
   </g>
   <g id="patch_3">
    <path d="M 36 402.93 
L 538.2 402.93 
" style="fill:none;stroke:#000000;stroke-linecap:square;stroke-linejoin:miter;stroke-width:0.8;"/>
   </g>
   <g id="legend_1">
    <g id="patch_4">
     <path d="M 450.225313 88.29875 
L 528.4 88.29875 
Q 531.2 88.29875 531.2 85.49875 
L 531.2 45.8 
Q 531.2 43 528.4 43 
L 450.225313 43 
Q 447.425313 43 447.425313 45.8 
L 447.425313 85.49875 
Q 447.425313 88.29875 450.225313 88.29875 
z
" style="fill:#ffffff;opacity:0.8;stroke:#cccccc;stroke-linejoin:miter;"/>
    </g>
    <g id="patch_5">
     <path d="M 453.025313 59.237813 
L 481.025313 59.237813 
L 481.025313 49.437813 
L 453.025313 49.437813 
z
" style="fill:#ff6384;opacity:0.5;stroke:#ff6384;stroke-linejoin:miter;"/>
    </g>
    <g id="text_1">
     <!-- base -->
     <defs>
      <path d="M 48.6875 27.296875 
Q 48.6875 37.203125 44.609375 42.84375 
Q 40.53125 48.484375 33.40625 48.484375 
Q 26.265625 48.484375 22.1875 42.84375 
Q 18.109375 37.203125 18.109375 27.296875 
Q 18.109375 17.390625 22.1875 11.75 
Q 26.265625 6.109375 33.40625 6.109375 
Q 40.53125 6.109375 44.609375 11.75 
Q 48.6875 17.390625 48.6875 27.296875 
z
M 18.109375 46.390625 
Q 20.953125 51.265625 25.265625 53.625 
Q 29.59375 56 35.59375 56 
Q 45.5625 56 51.78125 48.09375 
Q 58.015625 40.1875 58.015625 27.296875 
Q 58.015625 14.40625 51.78125 6.484375 
Q 45.5625 -1.421875 35.59375 -1.421875 
Q 29.59375 -1.421875 25.265625 0.953125 
Q 20.953125 3.328125 18.109375 8.203125 
L 18.109375 0 
L 9.078125 0 
L 9.078125 75.984375 
L 18.109375 75.984375 
z
" id="DejaVuSans-98"/>
      <path d="M 34.28125 27.484375 
Q 23.390625 27.484375 19.1875 25 
Q 14.984375 22.515625 14.984375 16.5 
Q 14.984375 11.71875 18.140625 8.90625 
Q 21.296875 6.109375 26.703125 6.109375 
Q 34.1875 6.109375 38.703125 11.40625 
Q 43.21875 16.703125 43.21875 25.484375 
L 43.21875 27.484375 
z
M 52.203125 31.203125 
L 52.203125 0 
L 43.21875 0 
L 43.21875 8.296875 
Q 40.140625 3.328125 35.546875 0.953125 
Q 30.953125 -1.421875 24.3125 -1.421875 
Q 15.921875 -1.421875 10.953125 3.296875 
Q 6 8.015625 6 15.921875 
Q 6 25.140625 12.171875 29.828125 
Q 18.359375 34.515625 30.609375 34.515625 
L 43.21875 34.515625 
L 43.21875 35.40625 
Q 43.21875 41.609375 39.140625 45 
Q 35.0625 48.390625 27.6875 48.390625 
Q 23 48.390625 18.546875 47.265625 
Q 14.109375 46.140625 10.015625 43.890625 
L 10.015625 52.203125 
Q 14.9375 54.109375 19.578125 55.046875 
Q 24.21875 56 28.609375 56 
Q 40.484375 56 46.34375 49.84375 
Q 52.203125 43.703125 52.203125 31.203125 
z
" id="DejaVuSans-97"/>
      <path d="M 44.28125 53.078125 
L 44.28125 44.578125 
Q 40.484375 46.53125 36.375 47.5 
Q 32.28125 48.484375 27.875 48.484375 
Q 21.1875 48.484375 17.84375 46.4375 
Q 14.5 44.390625 14.5 40.28125 
Q 14.5 37.15625 16.890625 35.375 
Q 19.28125 33.59375 26.515625 31.984375 
L 29.59375 31.296875 
Q 39.15625 29.25 43.1875 25.515625 
Q 47.21875 21.78125 47.21875 15.09375 
Q 47.21875 7.46875 41.1875 3.015625 
Q 35.15625 -1.421875 24.609375 -1.421875 
Q 20.21875 -1.421875 15.453125 -0.5625 
Q 10.6875 0.296875 5.421875 2 
L 5.421875 11.28125 
Q 10.40625 8.6875 15.234375 7.390625 
Q 20.0625 6.109375 24.8125 6.109375 
Q 31.15625 6.109375 34.5625 8.28125 
Q 37.984375 10.453125 37.984375 14.40625 
Q 37.984375 18.0625 35.515625 20.015625 
Q 33.0625 21.96875 24.703125 23.78125 
L 21.578125 24.515625 
Q 13.234375 26.265625 9.515625 29.90625 
Q 5.8125 33.546875 5.8125 39.890625 
Q 5.8125 47.609375 11.28125 51.796875 
Q 16.75 56 26.8125 56 
Q 31.78125 56 36.171875 55.265625 
Q 40.578125 54.546875 44.28125 53.078125 
z
" id="DejaVuSans-115"/>
      <path d="M 56.203125 29.59375 
L 56.203125 25.203125 
L 14.890625 25.203125 
Q 15.484375 15.921875 20.484375 11.0625 
Q 25.484375 6.203125 34.421875 6.203125 
Q 39.59375 6.203125 44.453125 7.46875 
Q 49.3125 8.734375 54.109375 11.28125 
L 54.109375 2.78125 
Q 49.265625 0.734375 44.1875 -0.34375 
Q 39.109375 -1.421875 33.890625 -1.421875 
Q 20.796875 -1.421875 13.15625 6.1875 
Q 5.515625 13.8125 5.515625 26.8125 
Q 5.515625 40.234375 12.765625 48.109375 
Q 20.015625 56 32.328125 56 
Q 43.359375 56 49.78125 48.890625 
Q 56.203125 41.796875 56.203125 29.59375 
z
M 47.21875 32.234375 
Q 47.125 39.59375 43.09375 43.984375 
Q 39.0625 48.390625 32.421875 48.390625 
Q 24.90625 48.390625 20.390625 44.140625 
Q 15.875 39.890625 15.1875 32.171875 
z
" id="DejaVuSans-101"/>
     </defs>
     <g transform="translate(492.225313 59.237813)scale(0.14 -0.14)">
      <use xlink:href="#DejaVuSans-98"/>
      <use x="63.476562" xlink:href="#DejaVuSans-97"/>
      <use x="124.755859" xlink:href="#DejaVuSans-115"/>
      <use x="176.855469" xlink:href="#DejaVuSans-101"/>
     </g>
    </g>
    <g id="patch_6">
     <path d="M 453.025313 79.787188 
L 481.025313 79.787188 
L 481.025313 69.987188 
L 453.025313 69.987188 
z
" style="fill:#36a2eb;opacity:0.5;stroke:#36a2eb;stroke-linejoin:miter;"/>
    </g>
    <g id="text_2">
     <!-- subs -->
     <defs>
      <path d="M 8.5 21.578125 
L 8.5 54.6875 
L 17.484375 54.6875 
L 17.484375 21.921875 
Q 17.484375 14.15625 20.5 10.265625 
Q 23.53125 6.390625 29.59375 6.390625 
Q 36.859375 6.390625 41.078125 11.03125 
Q 45.3125 15.671875 45.3125 23.6875 
L 45.3125 54.6875 
L 54.296875 54.6875 
L 54.296875 0 
L 45.3125 0 
L 45.3125 8.40625 
Q 42.046875 3.421875 37.71875 1 
Q 33.40625 -1.421875 27.6875 -1.421875 
Q 18.265625 -1.421875 13.375 4.4375 
Q 8.5 10.296875 8.5 21.578125 
z
M 31.109375 56 
z
" id="DejaVuSans-117"/>
     </defs>
     <g transform="translate(492.225313 79.787188)scale(0.14 -0.14)">
      <use xlink:href="#DejaVuSans-115"/>
      <use x="52.099609" xlink:href="#DejaVuSans-117"/>
      <use x="115.478516" xlink:href="#DejaVuSans-98"/>
      <use x="178.955078" xlink:href="#DejaVuSans-115"/>
     </g>
    </g>
   </g>
  </g>
  <g id="axes_2">
   <g id="patch_7">
    <path d="M 36 525.24 
L 538.2 525.24 
L 538.2 402.93 
L 36 402.93 
z
" style="fill:none;"/>
   </g>
   <g id="patch_8">
    <path clip-path="url(#pd30a8085f4)" d="M 188.152103 519.680455 
L 403.371037 519.680455 
L 403.371037 482.616818 
L 188.152103 482.616818 
z
" style="fill:#ff6384;opacity:0.5;"/>
   </g>
   <g id="patch_9">
    <path clip-path="url(#pd30a8085f4)" d="M 155.51955 445.553182 
L 341.320395 445.553182 
L 341.320395 408.489545 
L 155.51955 408.489545 
z
" style="fill:#36a2eb;opacity:0.5;"/>
   </g>
   <g id="matplotlib.axis_1">
    <g id="xtick_1">
     <g id="line2d_3">
      <defs>
       <path d="M 0 0 
L 0 3.5 
" id="m93a39c9e07" style="stroke:#000000;stroke-width:0.8;"/>
      </defs>
      <g>
       <use style="stroke:#000000;stroke-width:0.8;" x="52.145113" xlink:href="#m93a39c9e07" y="525.24"/>
      </g>
     </g>
     <g id="text_3">
      <!-- 1 -->
      <defs>
       <path d="M 12.40625 8.296875 
L 28.515625 8.296875 
L 28.515625 63.921875 
L 10.984375 60.40625 
L 10.984375 69.390625 
L 28.421875 72.90625 
L 38.28125 72.90625 
L 38.28125 8.296875 
L 54.390625 8.296875 
L 54.390625 0 
L 12.40625 0 
z
" id="DejaVuSans-49"/>
      </defs>
      <g transform="translate(47.691363 542.877813)scale(0.14 -0.14)">
       <use xlink:href="#DejaVuSans-49"/>
      </g>
     </g>
    </g>
    <g id="xtick_2">
     <g id="line2d_4">
      <g>
       <use style="stroke:#000000;stroke-width:0.8;" x="117.380883" xlink:href="#m93a39c9e07" y="525.24"/>
      </g>
     </g>
     <g id="text_4">
      <!-- 2 -->
      <defs>
       <path d="M 19.1875 8.296875 
L 53.609375 8.296875 
L 53.609375 0 
L 7.328125 0 
L 7.328125 8.296875 
Q 12.9375 14.109375 22.625 23.890625 
Q 32.328125 33.6875 34.8125 36.53125 
Q 39.546875 41.84375 41.421875 45.53125 
Q 43.3125 49.21875 43.3125 52.78125 
Q 43.3125 58.59375 39.234375 62.25 
Q 35.15625 65.921875 28.609375 65.921875 
Q 23.96875 65.921875 18.8125 64.3125 
Q 13.671875 62.703125 7.8125 59.421875 
L 7.8125 69.390625 
Q 13.765625 71.78125 18.9375 73 
Q 24.125 74.21875 28.421875 74.21875 
Q 39.75 74.21875 46.484375 68.546875 
Q 53.21875 62.890625 53.21875 53.421875 
Q 53.21875 48.921875 51.53125 44.890625 
Q 49.859375 40.875 45.40625 35.40625 
Q 44.1875 33.984375 37.640625 27.21875 
Q 31.109375 20.453125 19.1875 8.296875 
z
" id="DejaVuSans-50"/>
      </defs>
      <g transform="translate(112.927133 542.877813)scale(0.14 -0.14)">
       <use xlink:href="#DejaVuSans-50"/>
      </g>
     </g>
    </g>
    <g id="xtick_3">
     <g id="line2d_5">
      <g>
       <use style="stroke:#000000;stroke-width:0.8;" x="182.616652" xlink:href="#m93a39c9e07" y="525.24"/>
      </g>
     </g>
     <g id="text_5">
      <!-- 3 -->
      <defs>
       <path d="M 40.578125 39.3125 
Q 47.65625 37.796875 51.625 33 
Q 55.609375 28.21875 55.609375 21.1875 
Q 55.609375 10.40625 48.1875 4.484375 
Q 40.765625 -1.421875 27.09375 -1.421875 
Q 22.515625 -1.421875 17.65625 -0.515625 
Q 12.796875 0.390625 7.625 2.203125 
L 7.625 11.71875 
Q 11.71875 9.328125 16.59375 8.109375 
Q 21.484375 6.890625 26.8125 6.890625 
Q 36.078125 6.890625 40.9375 10.546875 
Q 45.796875 14.203125 45.796875 21.1875 
Q 45.796875 27.640625 41.28125 31.265625 
Q 36.765625 34.90625 28.71875 34.90625 
L 20.21875 34.90625 
L 20.21875 43.015625 
L 29.109375 43.015625 
Q 36.375 43.015625 40.234375 45.921875 
Q 44.09375 48.828125 44.09375 54.296875 
Q 44.09375 59.90625 40.109375 62.90625 
Q 36.140625 65.921875 28.71875 65.921875 
Q 24.65625 65.921875 20.015625 65.03125 
Q 15.375 64.15625 9.8125 62.3125 
L 9.8125 71.09375 
Q 15.4375 72.65625 20.34375 73.4375 
Q 25.25 74.21875 29.59375 74.21875 
Q 40.828125 74.21875 47.359375 69.109375 
Q 53.90625 64.015625 53.90625 55.328125 
Q 53.90625 49.265625 50.4375 45.09375 
Q 46.96875 40.921875 40.578125 39.3125 
z
" id="DejaVuSans-51"/>
      </defs>
      <g transform="translate(178.162902 542.877813)scale(0.14 -0.14)">
       <use xlink:href="#DejaVuSans-51"/>
      </g>
     </g>
    </g>
    <g id="xtick_4">
     <g id="line2d_6">
      <g>
       <use style="stroke:#000000;stroke-width:0.8;" x="247.852421" xlink:href="#m93a39c9e07" y="525.24"/>
      </g>
     </g>
     <g id="text_6">
      <!-- 4 -->
      <defs>
       <path d="M 37.796875 64.3125 
L 12.890625 25.390625 
L 37.796875 25.390625 
z
M 35.203125 72.90625 
L 47.609375 72.90625 
L 47.609375 25.390625 
L 58.015625 25.390625 
L 58.015625 17.1875 
L 47.609375 17.1875 
L 47.609375 0 
L 37.796875 0 
L 37.796875 17.1875 
L 4.890625 17.1875 
L 4.890625 26.703125 
z
" id="DejaVuSans-52"/>
      </defs>
      <g transform="translate(243.398671 542.877813)scale(0.14 -0.14)">
       <use xlink:href="#DejaVuSans-52"/>
      </g>
     </g>
    </g>
    <g id="xtick_5">
     <g id="line2d_7">
      <g>
       <use style="stroke:#000000;stroke-width:0.8;" x="313.08819" xlink:href="#m93a39c9e07" y="525.24"/>
      </g>
     </g>
     <g id="text_7">
      <!-- 5 -->
      <defs>
       <path d="M 10.796875 72.90625 
L 49.515625 72.90625 
L 49.515625 64.59375 
L 19.828125 64.59375 
L 19.828125 46.734375 
Q 21.96875 47.46875 24.109375 47.828125 
Q 26.265625 48.1875 28.421875 48.1875 
Q 40.625 48.1875 47.75 41.5 
Q 54.890625 34.8125 54.890625 23.390625 
Q 54.890625 11.625 47.5625 5.09375 
Q 40.234375 -1.421875 26.90625 -1.421875 
Q 22.3125 -1.421875 17.546875 -0.640625 
Q 12.796875 0.140625 7.71875 1.703125 
L 7.71875 11.625 
Q 12.109375 9.234375 16.796875 8.0625 
Q 21.484375 6.890625 26.703125 6.890625 
Q 35.15625 6.890625 40.078125 11.328125 
Q 45.015625 15.765625 45.015625 23.390625 
Q 45.015625 31 40.078125 35.4375 
Q 35.15625 39.890625 26.703125 39.890625 
Q 22.75 39.890625 18.8125 39.015625 
Q 14.890625 38.140625 10.796875 36.28125 
z
" id="DejaVuSans-53"/>
      </defs>
      <g transform="translate(308.63444 542.877813)scale(0.14 -0.14)">
       <use xlink:href="#DejaVuSans-53"/>
      </g>
     </g>
    </g>
    <g id="xtick_6">
     <g id="line2d_8">
      <g>
       <use style="stroke:#000000;stroke-width:0.8;" x="378.32396" xlink:href="#m93a39c9e07" y="525.24"/>
      </g>
     </g>
     <g id="text_8">
      <!-- 6 -->
      <defs>
       <path d="M 33.015625 40.375 
Q 26.375 40.375 22.484375 35.828125 
Q 18.609375 31.296875 18.609375 23.390625 
Q 18.609375 15.53125 22.484375 10.953125 
Q 26.375 6.390625 33.015625 6.390625 
Q 39.65625 6.390625 43.53125 10.953125 
Q 47.40625 15.53125 47.40625 23.390625 
Q 47.40625 31.296875 43.53125 35.828125 
Q 39.65625 40.375 33.015625 40.375 
z
M 52.59375 71.296875 
L 52.59375 62.3125 
Q 48.875 64.0625 45.09375 64.984375 
Q 41.3125 65.921875 37.59375 65.921875 
Q 27.828125 65.921875 22.671875 59.328125 
Q 17.53125 52.734375 16.796875 39.40625 
Q 19.671875 43.65625 24.015625 45.921875 
Q 28.375 48.1875 33.59375 48.1875 
Q 44.578125 48.1875 50.953125 41.515625 
Q 57.328125 34.859375 57.328125 23.390625 
Q 57.328125 12.15625 50.6875 5.359375 
Q 44.046875 -1.421875 33.015625 -1.421875 
Q 20.359375 -1.421875 13.671875 8.265625 
Q 6.984375 17.96875 6.984375 36.375 
Q 6.984375 53.65625 15.1875 63.9375 
Q 23.390625 74.21875 37.203125 74.21875 
Q 40.921875 74.21875 44.703125 73.484375 
Q 48.484375 72.75 52.59375 71.296875 
z
" id="DejaVuSans-54"/>
      </defs>
      <g transform="translate(373.87021 542.877813)scale(0.14 -0.14)">
       <use xlink:href="#DejaVuSans-54"/>
      </g>
     </g>
    </g>
    <g id="xtick_7">
     <g id="line2d_9">
      <g>
       <use style="stroke:#000000;stroke-width:0.8;" x="443.559729" xlink:href="#m93a39c9e07" y="525.24"/>
      </g>
     </g>
     <g id="text_9">
      <!-- 7 -->
      <defs>
       <path d="M 8.203125 72.90625 
L 55.078125 72.90625 
L 55.078125 68.703125 
L 28.609375 0 
L 18.3125 0 
L 43.21875 64.59375 
L 8.203125 64.59375 
z
" id="DejaVuSans-55"/>
      </defs>
      <g transform="translate(439.105979 542.877813)scale(0.14 -0.14)">
       <use xlink:href="#DejaVuSans-55"/>
      </g>
     </g>
    </g>
    <g id="xtick_8">
     <g id="line2d_10">
      <g>
       <use style="stroke:#000000;stroke-width:0.8;" x="508.795498" xlink:href="#m93a39c9e07" y="525.24"/>
      </g>
     </g>
     <g id="text_10">
      <!-- 8 -->
      <defs>
       <path d="M 31.78125 34.625 
Q 24.75 34.625 20.71875 30.859375 
Q 16.703125 27.09375 16.703125 20.515625 
Q 16.703125 13.921875 20.71875 10.15625 
Q 24.75 6.390625 31.78125 6.390625 
Q 38.8125 6.390625 42.859375 10.171875 
Q 46.921875 13.96875 46.921875 20.515625 
Q 46.921875 27.09375 42.890625 30.859375 
Q 38.875 34.625 31.78125 34.625 
z
M 21.921875 38.8125 
Q 15.578125 40.375 12.03125 44.71875 
Q 8.5 49.078125 8.5 55.328125 
Q 8.5 64.0625 14.71875 69.140625 
Q 20.953125 74.21875 31.78125 74.21875 
Q 42.671875 74.21875 48.875 69.140625 
Q 55.078125 64.0625 55.078125 55.328125 
Q 55.078125 49.078125 51.53125 44.71875 
Q 48 40.375 41.703125 38.8125 
Q 48.828125 37.15625 52.796875 32.3125 
Q 56.78125 27.484375 56.78125 20.515625 
Q 56.78125 9.90625 50.3125 4.234375 
Q 43.84375 -1.421875 31.78125 -1.421875 
Q 19.734375 -1.421875 13.25 4.234375 
Q 6.78125 9.90625 6.78125 20.515625 
Q 6.78125 27.484375 10.78125 32.3125 
Q 14.796875 37.15625 21.921875 38.8125 
z
M 18.3125 54.390625 
Q 18.3125 48.734375 21.84375 45.5625 
Q 25.390625 42.390625 31.78125 42.390625 
Q 38.140625 42.390625 41.71875 45.5625 
Q 45.3125 48.734375 45.3125 54.390625 
Q 45.3125 60.0625 41.71875 63.234375 
Q 38.140625 66.40625 31.78125 66.40625 
Q 25.390625 66.40625 21.84375 63.234375 
Q 18.3125 60.0625 18.3125 54.390625 
z
" id="DejaVuSans-56"/>
      </defs>
      <g transform="translate(504.341748 542.877813)scale(0.14 -0.14)">
       <use xlink:href="#DejaVuSans-56"/>
      </g>
     </g>
    </g>
   </g>
   <g id="line2d_11">
    <path clip-path="url(#pd30a8085f4)" d="M 295.76157 525.24 
L 295.76157 402.93 
" style="fill:none;stroke:#ff6384;stroke-dasharray:5.55,2.4;stroke-dashoffset:0;stroke-opacity:0.8;stroke-width:1.5;"/>
   </g>
   <g id="line2d_12">
    <path clip-path="url(#pd30a8085f4)" d="M 248.419972 525.24 
L 248.419972 402.93 
" style="fill:none;stroke:#36a2eb;stroke-dasharray:5.55,2.4;stroke-dashoffset:0;stroke-opacity:0.8;stroke-width:1.5;"/>
   </g>
   <g id="patch_10">
    <path d="M 36 525.24 
L 538.2 525.24 
" style="fill:none;stroke:#000000;stroke-linecap:square;stroke-linejoin:miter;stroke-width:0.8;"/>
   </g>
  </g>
 </g>
 <defs>
  <clipPath id="p55e6225dcd">
   <rect height="366.93" width="502.2" x="36" y="36"/>
  </clipPath>
  <clipPath id="pd30a8085f4">
   <rect height="122.31" width="502.2" x="36" y="402.93"/>
  </clipPath>
 </defs>
</svg>
