<?xml version="1.0" encoding="utf-8" standalone="no"?>
<!DOCTYPE svg PUBLIC "-//W3C//DTD SVG 1.1//EN"
  "http://www.w3.org/Graphics/SVG/1.1/DTD/svg11.dtd">
<!-- Created with matplotlib (https://matplotlib.org/) -->
<svg height="581.789375pt" version="1.1" viewBox="0 0 574.2 581.789375" width="574.2pt" xmlns="http://www.w3.org/2000/svg" xmlns:xlink="http://www.w3.org/1999/xlink">
 <defs>
  <style type="text/css">
*{stroke-linecap:butt;stroke-linejoin:round;}
  </style>
 </defs>
 <g id="figure_1">
  <g id="patch_1">
   <path d="M 0 581.789375 
L 574.2 581.789375 
L 574.2 0 
L 0 0 
z
" style="fill:none;"/>
  </g>
  <g id="axes_1">
   <g id="patch_2">
    <path d="M 36 402.93 
L 538.2 402.93 
L 538.2 36 
L 36 36 
z
" style="fill:none;"/>
   </g>
   <g id="PolyCollection_1">
    <defs>
     <path d="M 59.29699 -195.538011 
L 59.29699 -195.650004 
L 63.000235 -195.692234 
L 66.703479 -195.749007 
L 70.406724 -195.8248 
L 74.109968 -195.925281 
L 77.813213 -196.057565 
L 81.516457 -196.230497 
L 85.219702 -196.454982 
L 88.922946 -196.744335 
L 92.626191 -197.114666 
L 96.329435 -197.585273 
L 100.03268 -198.179047 
L 103.735924 -198.922859 
L 107.439169 -199.847921 
L 111.142413 -200.990079 
L 114.845658 -202.390029 
L 118.548902 -204.093399 
L 122.252147 -206.150691 
L 125.955391 -208.617009 
L 129.658636 -211.551575 
L 133.36188 -215.016962 
L 137.065124 -219.078053 
L 140.768369 -223.800667 
L 144.471613 -229.249878 
L 148.174858 -235.488004 
L 151.878102 -242.572312 
L 155.581347 -250.552459 
L 159.284591 -259.467747 
L 162.987836 -269.344261 
L 166.69108 -280.192004 
L 170.394325 -292.002137 
L 174.097569 -304.744465 
L 177.800814 -318.365297 
L 181.504058 -332.785841 
L 185.207303 -347.901251 
L 188.910547 -363.580456 
L 192.613792 -379.666871 
L 196.317036 -395.980052 
L 200.020281 -412.31833 
L 203.723525 -428.4624 
L 207.42677 -444.179822 
L 211.130014 -459.230303 
L 214.833259 -473.371627 
L 218.536503 -486.366018 
L 222.239748 -497.986726 
L 225.942992 -508.02457 
L 229.646237 -516.294181 
L 233.349481 -522.639693 
L 237.052726 -526.939623 
L 240.75597 -529.110739 
L 244.459214 -529.110739 
L 248.162459 -526.939623 
L 251.865703 -522.639693 
L 255.568948 -516.294181 
L 259.272192 -508.02457 
L 262.975437 -497.986726 
L 266.678681 -486.366018 
L 270.381926 -473.371627 
L 274.08517 -459.230303 
L 277.788415 -444.179822 
L 281.491659 -428.4624 
L 285.194904 -412.31833 
L 288.898148 -395.980052 
L 292.601393 -379.666871 
L 296.304637 -363.580456 
L 300.007882 -347.901251 
L 303.711126 -332.785841 
L 307.414371 -318.365297 
L 311.117615 -304.744465 
L 314.82086 -292.002137 
L 318.524104 -280.192004 
L 322.227349 -269.344261 
L 325.930593 -259.467747 
L 329.633838 -250.552459 
L 333.337082 -242.572312 
L 337.040327 -235.488004 
L 340.743571 -229.249878 
L 344.446816 -223.800667 
L 348.15006 -219.078053 
L 351.853305 -215.016962 
L 355.556549 -211.551575 
L 359.259793 -208.617009 
L 362.963038 -206.150691 
L 366.666282 -204.093399 
L 370.369527 -202.390029 
L 374.072771 -200.990079 
L 377.776016 -199.847921 
L 381.47926 -198.922859 
L 385.182505 -198.179047 
L 388.885749 -197.585273 
L 392.588994 -197.114666 
L 396.292238 -196.744335 
L 399.995483 -196.454982 
L 403.698727 -196.230497 
L 407.401972 -196.057565 
L 411.105216 -195.925281 
L 414.808461 -195.8248 
L 418.511705 -195.749007 
L 422.21495 -195.692234 
L 425.918194 -195.650004 
L 425.918194 -195.538011 
L 425.918194 -195.538011 
L 422.21495 -195.538011 
L 418.511705 -195.538011 
L 414.808461 -195.538011 
L 411.105216 -195.538011 
L 407.401972 -195.538011 
L 403.698727 -195.538011 
L 399.995483 -195.538011 
L 396.292238 -195.538011 
L 392.588994 -195.538011 
L 388.885749 -195.538011 
L 385.182505 -195.538011 
L 381.47926 -195.538011 
L 377.776016 -195.538011 
L 374.072771 -195.538011 
L 370.369527 -195.538011 
L 366.666282 -195.538011 
L 362.963038 -195.538011 
L 359.259793 -195.538011 
L 355.556549 -195.538011 
L 351.853305 -195.538011 
L 348.15006 -195.538011 
L 344.446816 -195.538011 
L 340.743571 -195.538011 
L 337.040327 -195.538011 
L 333.337082 -195.538011 
L 329.633838 -195.538011 
L 325.930593 -195.538011 
L 322.227349 -195.538011 
L 318.524104 -195.538011 
L 314.82086 -195.538011 
L 311.117615 -195.538011 
L 307.414371 -195.538011 
L 303.711126 -195.538011 
L 300.007882 -195.538011 
L 296.304637 -195.538011 
L 292.601393 -195.538011 
L 288.898148 -195.538011 
L 285.194904 -195.538011 
L 281.491659 -195.538011 
L 277.788415 -195.538011 
L 274.08517 -195.538011 
L 270.381926 -195.538011 
L 266.678681 -195.538011 
L 262.975437 -195.538011 
L 259.272192 -195.538011 
L 255.568948 -195.538011 
L 251.865703 -195.538011 
L 248.162459 -195.538011 
L 244.459214 -195.538011 
L 240.75597 -195.538011 
L 237.052726 -195.538011 
L 233.349481 -195.538011 
L 229.646237 -195.538011 
L 225.942992 -195.538011 
L 222.239748 -195.538011 
L 218.536503 -195.538011 
L 214.833259 -195.538011 
L 211.130014 -195.538011 
L 207.42677 -195.538011 
L 203.723525 -195.538011 
L 200.020281 -195.538011 
L 196.317036 -195.538011 
L 192.613792 -195.538011 
L 188.910547 -195.538011 
L 185.207303 -195.538011 
L 181.504058 -195.538011 
L 177.800814 -195.538011 
L 174.097569 -195.538011 
L 170.394325 -195.538011 
L 166.69108 -195.538011 
L 162.987836 -195.538011 
L 159.284591 -195.538011 
L 155.581347 -195.538011 
L 151.878102 -195.538011 
L 148.174858 -195.538011 
L 144.471613 -195.538011 
L 140.768369 -195.538011 
L 137.065124 -195.538011 
L 133.36188 -195.538011 
L 129.658636 -195.538011 
L 125.955391 -195.538011 
L 122.252147 -195.538011 
L 118.548902 -195.538011 
L 114.845658 -195.538011 
L 111.142413 -195.538011 
L 107.439169 -195.538011 
L 103.735924 -195.538011 
L 100.03268 -195.538011 
L 96.329435 -195.538011 
L 92.626191 -195.538011 
L 88.922946 -195.538011 
L 85.219702 -195.538011 
L 81.516457 -195.538011 
L 77.813213 -195.538011 
L 74.109968 -195.538011 
L 70.406724 -195.538011 
L 66.703479 -195.538011 
L 63.000235 -195.538011 
L 59.29699 -195.538011 
z
" id="m317d7f5d2a" style="stroke:#ff6384;stroke-opacity:0.5;"/>
    </defs>
    <g clip-path="url(#pda963b2953)">
     <use style="fill:#ff6384;fill-opacity:0.5;stroke:#ff6384;stroke-opacity:0.5;" x="0" xlink:href="#m317d7f5d2a" y="581.789375"/>
    </g>
   </g>
   <g id="PolyCollection_2">
    <defs>
     <path d="M 58.827273 -195.538011 
L 58.827273 -195.627945 
L 63.438843 -195.661858 
L 68.050413 -195.707448 
L 72.661983 -195.768312 
L 77.273554 -195.849002 
L 81.885124 -195.95523 
L 86.496694 -196.0941 
L 91.108264 -196.274369 
L 95.719835 -196.506729 
L 100.331405 -196.804118 
L 104.942975 -197.182031 
L 109.554545 -197.658851 
L 114.166116 -198.256157 
L 118.777686 -198.999012 
L 123.389256 -199.916204 
L 128.000826 -201.040409 
L 132.612397 -202.408273 
L 137.223967 -204.060346 
L 141.835537 -206.040882 
L 146.447107 -208.397436 
L 151.058678 -211.180258 
L 155.670248 -214.441449 
L 160.281818 -218.233865 
L 164.893388 -222.609763 
L 169.504959 -227.619186 
L 174.116529 -233.308121 
L 178.728099 -239.716445 
L 183.339669 -246.875718 
L 187.95124 -254.806887 
L 192.56281 -263.517986 
L 197.17438 -273.001917 
L 201.78595 -283.23443 
L 206.397521 -294.172412 
L 211.009091 -305.752589 
L 215.620661 -317.890767 
L 220.232231 -330.48169 
L 224.843802 -343.399617 
L 229.455372 -356.499645 
L 234.066942 -369.619826 
L 238.678512 -382.584052 
L 243.290083 -395.205665 
L 247.901653 -407.291703 
L 252.513223 -418.647657 
L 257.124793 -429.082586 
L 261.736364 -438.414402 
L 266.347934 -446.475124 
L 270.959504 -453.115898 
L 275.571074 -458.211555 
L 280.182645 -461.664542 
L 284.794215 -463.40802 
L 289.405785 -463.40802 
L 294.017355 -461.664542 
L 298.628926 -458.211555 
L 303.240496 -453.115898 
L 307.852066 -446.475124 
L 312.463636 -438.414402 
L 317.075207 -429.082586 
L 321.686777 -418.647657 
L 326.298347 -407.291703 
L 330.909917 -395.205665 
L 335.521488 -382.584052 
L 340.133058 -369.619826 
L 344.744628 -356.499645 
L 349.356198 -343.399617 
L 353.967769 -330.48169 
L 358.579339 -317.890767 
L 363.190909 -305.752589 
L 367.802479 -294.172412 
L 372.41405 -283.23443 
L 377.02562 -273.001917 
L 381.63719 -263.517986 
L 386.24876 -254.806887 
L 390.860331 -246.875718 
L 395.471901 -239.716445 
L 400.083471 -233.308121 
L 404.695041 -227.619186 
L 409.306612 -222.609763 
L 413.918182 -218.233865 
L 418.529752 -214.441449 
L 423.141322 -211.180258 
L 427.752893 -208.397436 
L 432.364463 -206.040882 
L 436.976033 -204.060346 
L 441.587603 -202.408273 
L 446.199174 -201.040409 
L 450.810744 -199.916204 
L 455.422314 -198.999012 
L 460.033884 -198.256157 
L 464.645455 -197.658851 
L 469.257025 -197.182031 
L 473.868595 -196.804118 
L 478.480165 -196.506729 
L 483.091736 -196.274369 
L 487.703306 -196.0941 
L 492.314876 -195.95523 
L 496.926446 -195.849002 
L 501.538017 -195.768312 
L 506.149587 -195.707448 
L 510.761157 -195.661858 
L 515.372727 -195.627945 
L 515.372727 -195.538011 
L 515.372727 -195.538011 
L 510.761157 -195.538011 
L 506.149587 -195.538011 
L 501.538017 -195.538011 
L 496.926446 -195.538011 
L 492.314876 -195.538011 
L 487.703306 -195.538011 
L 483.091736 -195.538011 
L 478.480165 -195.538011 
L 473.868595 -195.538011 
L 469.257025 -195.538011 
L 464.645455 -195.538011 
L 460.033884 -195.538011 
L 455.422314 -195.538011 
L 450.810744 -195.538011 
L 446.199174 -195.538011 
L 441.587603 -195.538011 
L 436.976033 -195.538011 
L 432.364463 -195.538011 
L 427.752893 -195.538011 
L 423.141322 -195.538011 
L 418.529752 -195.538011 
L 413.918182 -195.538011 
L 409.306612 -195.538011 
L 404.695041 -195.538011 
L 400.083471 -195.538011 
L 395.471901 -195.538011 
L 390.860331 -195.538011 
L 386.24876 -195.538011 
L 381.63719 -195.538011 
L 377.02562 -195.538011 
L 372.41405 -195.538011 
L 367.802479 -195.538011 
L 363.190909 -195.538011 
L 358.579339 -195.538011 
L 353.967769 -195.538011 
L 349.356198 -195.538011 
L 344.744628 -195.538011 
L 340.133058 -195.538011 
L 335.521488 -195.538011 
L 330.909917 -195.538011 
L 326.298347 -195.538011 
L 321.686777 -195.538011 
L 317.075207 -195.538011 
L 312.463636 -195.538011 
L 307.852066 -195.538011 
L 303.240496 -195.538011 
L 298.628926 -195.538011 
L 294.017355 -195.538011 
L 289.405785 -195.538011 
L 284.794215 -195.538011 
L 280.182645 -195.538011 
L 275.571074 -195.538011 
L 270.959504 -195.538011 
L 266.347934 -195.538011 
L 261.736364 -195.538011 
L 257.124793 -195.538011 
L 252.513223 -195.538011 
L 247.901653 -195.538011 
L 243.290083 -195.538011 
L 238.678512 -195.538011 
L 234.066942 -195.538011 
L 229.455372 -195.538011 
L 224.843802 -195.538011 
L 220.232231 -195.538011 
L 215.620661 -195.538011 
L 211.009091 -195.538011 
L 206.397521 -195.538011 
L 201.78595 -195.538011 
L 197.17438 -195.538011 
L 192.56281 -195.538011 
L 187.95124 -195.538011 
L 183.339669 -195.538011 
L 178.728099 -195.538011 
L 174.116529 -195.538011 
L 169.504959 -195.538011 
L 164.893388 -195.538011 
L 160.281818 -195.538011 
L 155.670248 -195.538011 
L 151.058678 -195.538011 
L 146.447107 -195.538011 
L 141.835537 -195.538011 
L 137.223967 -195.538011 
L 132.612397 -195.538011 
L 128.000826 -195.538011 
L 123.389256 -195.538011 
L 118.777686 -195.538011 
L 114.166116 -195.538011 
L 109.554545 -195.538011 
L 104.942975 -195.538011 
L 100.331405 -195.538011 
L 95.719835 -195.538011 
L 91.108264 -195.538011 
L 86.496694 -195.538011 
L 81.885124 -195.538011 
L 77.273554 -195.538011 
L 72.661983 -195.538011 
L 68.050413 -195.538011 
L 63.438843 -195.538011 
L 58.827273 -195.538011 
z
" id="md1969be0b6" style="stroke:#36a2eb;stroke-opacity:0.5;"/>
    </defs>
    <g clip-path="url(#pda963b2953)">
     <use style="fill:#36a2eb;fill-opacity:0.5;stroke:#36a2eb;stroke-opacity:0.5;" x="0" xlink:href="#md1969be0b6" y="581.789375"/>
    </g>
   </g>
   <g id="line2d_1">
    <path clip-path="url(#pda963b2953)" d="M 59.29699 386.139371 
L 63.000235 386.097141 
L 66.703479 386.040368 
L 70.406724 385.964575 
L 74.109968 385.864094 
L 77.813213 385.73181 
L 81.516457 385.558878 
L 85.219702 385.334393 
L 88.922946 385.04504 
L 92.626191 384.674709 
L 96.329435 384.204102 
L 100.03268 383.610328 
L 103.735924 382.866516 
L 107.439169 381.941454 
L 111.142413 380.799296 
L 114.845658 379.399346 
L 118.548902 377.695976 
L 122.252147 375.638684 
L 125.955391 373.172366 
L 129.658636 370.2378 
L 133.36188 366.772413 
L 137.065124 362.711322 
L 140.768369 357.988708 
L 144.471613 352.539497 
L 148.174858 346.301371 
L 151.878102 339.217063 
L 155.581347 331.236916 
L 159.284591 322.321628 
L 162.987836 312.445114 
L 166.69108 301.597371 
L 170.394325 289.787238 
L 174.097569 277.04491 
L 177.800814 263.424078 
L 181.504058 249.003534 
L 185.207303 233.888124 
L 188.910547 218.208919 
L 192.613792 202.122504 
L 196.317036 185.809323 
L 200.020281 169.471045 
L 203.723525 153.326975 
L 207.42677 137.609553 
L 211.130014 122.559072 
L 214.833259 108.417748 
L 218.536503 95.423357 
L 222.239748 83.802649 
L 225.942992 73.764805 
L 229.646237 65.495194 
L 233.349481 59.149682 
L 237.052726 54.849752 
L 240.75597 52.678636 
L 244.459214 52.678636 
L 248.162459 54.849752 
L 251.865703 59.149682 
L 255.568948 65.495194 
L 259.272192 73.764805 
L 262.975437 83.802649 
L 266.678681 95.423357 
L 270.381926 108.417748 
L 274.08517 122.559072 
L 277.788415 137.609553 
L 281.491659 153.326975 
L 285.194904 169.471045 
L 288.898148 185.809323 
L 292.601393 202.122504 
L 296.304637 218.208919 
L 300.007882 233.888124 
L 303.711126 249.003534 
L 307.414371 263.424078 
L 311.117615 277.04491 
L 314.82086 289.787238 
L 318.524104 301.597371 
L 322.227349 312.445114 
L 325.930593 322.321628 
L 329.633838 331.236916 
L 333.337082 339.217063 
L 337.040327 346.301371 
L 340.743571 352.539497 
L 344.446816 357.988708 
L 348.15006 362.711322 
L 351.853305 366.772413 
L 355.556549 370.2378 
L 359.259793 373.172366 
L 362.963038 375.638684 
L 366.666282 377.695976 
L 370.369527 379.399346 
L 374.072771 380.799296 
L 377.776016 381.941454 
L 381.47926 382.866516 
L 385.182505 383.610328 
L 388.885749 384.204102 
L 392.588994 384.674709 
L 396.292238 385.04504 
L 399.995483 385.334393 
L 403.698727 385.558878 
L 407.401972 385.73181 
L 411.105216 385.864094 
L 414.808461 385.964575 
L 418.511705 386.040368 
L 422.21495 386.097141 
L 425.918194 386.139371 
" style="fill:none;stroke:#ff6384;stroke-linecap:square;"/>
   </g>
   <g id="line2d_2">
    <path clip-path="url(#pda963b2953)" d="M 58.827273 386.16143 
L 63.438843 386.127517 
L 68.050413 386.081927 
L 72.661983 386.021063 
L 77.273554 385.940373 
L 81.885124 385.834145 
L 86.496694 385.695275 
L 91.108264 385.515006 
L 95.719835 385.282646 
L 100.331405 384.985257 
L 104.942975 384.607344 
L 109.554545 384.130524 
L 114.166116 383.533218 
L 118.777686 382.790363 
L 123.389256 381.873171 
L 128.000826 380.748966 
L 132.612397 379.381102 
L 137.223967 377.729029 
L 141.835537 375.748493 
L 146.447107 373.391939 
L 151.058678 370.609117 
L 155.670248 367.347926 
L 160.281818 363.55551 
L 164.893388 359.179612 
L 169.504959 354.170189 
L 174.116529 348.481254 
L 178.728099 342.07293 
L 183.339669 334.913657 
L 187.95124 326.982488 
L 192.56281 318.271389 
L 197.17438 308.787458 
L 201.78595 298.554945 
L 206.397521 287.616963 
L 211.009091 276.036786 
L 215.620661 263.898608 
L 220.232231 251.307685 
L 224.843802 238.389758 
L 229.455372 225.28973 
L 234.066942 212.169549 
L 238.678512 199.205323 
L 243.290083 186.58371 
L 247.901653 174.497672 
L 252.513223 163.141718 
L 257.124793 152.706789 
L 261.736364 143.374973 
L 266.347934 135.314251 
L 270.959504 128.673477 
L 275.571074 123.57782 
L 280.182645 120.124833 
L 284.794215 118.381355 
L 289.405785 118.381355 
L 294.017355 120.124833 
L 298.628926 123.57782 
L 303.240496 128.673477 
L 307.852066 135.314251 
L 312.463636 143.374973 
L 317.075207 152.706789 
L 321.686777 163.141718 
L 326.298347 174.497672 
L 330.909917 186.58371 
L 335.521488 199.205323 
L 340.133058 212.169549 
L 344.744628 225.28973 
L 349.356198 238.389758 
L 353.967769 251.307685 
L 358.579339 263.898608 
L 363.190909 276.036786 
L 367.802479 287.616963 
L 372.41405 298.554945 
L 377.02562 308.787458 
L 381.63719 318.271389 
L 386.24876 326.982488 
L 390.860331 334.913657 
L 395.471901 342.07293 
L 400.083471 348.481254 
L 404.695041 354.170189 
L 409.306612 359.179612 
L 413.918182 363.55551 
L 418.529752 367.347926 
L 423.141322 370.609117 
L 427.752893 373.391939 
L 432.364463 375.748493 
L 436.976033 377.729029 
L 441.587603 379.381102 
L 446.199174 380.748966 
L 450.810744 381.873171 
L 455.422314 382.790363 
L 460.033884 383.533218 
L 464.645455 384.130524 
L 469.257025 384.607344 
L 473.868595 384.985257 
L 478.480165 385.282646 
L 483.091736 385.515006 
L 487.703306 385.695275 
L 492.314876 385.834145 
L 496.926446 385.940373 
L 501.538017 386.021063 
L 506.149587 386.081927 
L 510.761157 386.127517 
L 515.372727 386.16143 
" style="fill:none;stroke:#36a2eb;stroke-linecap:square;"/>
   </g>
   <g id="patch_3">
    <path d="M 36 402.93 
L 538.2 402.93 
" style="fill:none;stroke:#000000;stroke-linecap:square;stroke-linejoin:miter;stroke-width:0.8;"/>
   </g>
   <g id="legend_1">
    <g id="patch_4">
     <path d="M 450.225313 88.29875 
L 528.4 88.29875 
Q 531.2 88.29875 531.2 85.49875 
L 531.2 45.8 
Q 531.2 43 528.4 43 
L 450.225313 43 
Q 447.425313 43 447.425313 45.8 
L 447.425313 85.49875 
Q 447.425313 88.29875 450.225313 88.29875 
z
" style="fill:#ffffff;opacity:0.8;stroke:#cccccc;stroke-linejoin:miter;"/>
    </g>
    <g id="patch_5">
     <path d="M 453.025313 59.237813 
L 481.025313 59.237813 
L 481.025313 49.437813 
L 453.025313 49.437813 
z
" style="fill:#ff6384;opacity:0.5;stroke:#ff6384;stroke-linejoin:miter;"/>
    </g>
    <g id="text_1">
     <!-- base -->
     <defs>
      <path d="M 48.6875 27.296875 
Q 48.6875 37.203125 44.609375 42.84375 
Q 40.53125 48.484375 33.40625 48.484375 
Q 26.265625 48.484375 22.1875 42.84375 
Q 18.109375 37.203125 18.109375 27.296875 
Q 18.109375 17.390625 22.1875 11.75 
Q 26.265625 6.109375 33.40625 6.109375 
Q 40.53125 6.109375 44.609375 11.75 
Q 48.6875 17.390625 48.6875 27.296875 
z
M 18.109375 46.390625 
Q 20.953125 51.265625 25.265625 53.625 
Q 29.59375 56 35.59375 56 
Q 45.5625 56 51.78125 48.09375 
Q 58.015625 40.1875 58.015625 27.296875 
Q 58.015625 14.40625 51.78125 6.484375 
Q 45.5625 -1.421875 35.59375 -1.421875 
Q 29.59375 -1.421875 25.265625 0.953125 
Q 20.953125 3.328125 18.109375 8.203125 
L 18.109375 0 
L 9.078125 0 
L 9.078125 75.984375 
L 18.109375 75.984375 
z
" id="DejaVuSans-98"/>
      <path d="M 34.28125 27.484375 
Q 23.390625 27.484375 19.1875 25 
Q 14.984375 22.515625 14.984375 16.5 
Q 14.984375 11.71875 18.140625 8.90625 
Q 21.296875 6.109375 26.703125 6.109375 
Q 34.1875 6.109375 38.703125 11.40625 
Q 43.21875 16.703125 43.21875 25.484375 
L 43.21875 27.484375 
z
M 52.203125 31.203125 
L 52.203125 0 
L 43.21875 0 
L 43.21875 8.296875 
Q 40.140625 3.328125 35.546875 0.953125 
Q 30.953125 -1.421875 24.3125 -1.421875 
Q 15.921875 -1.421875 10.953125 3.296875 
Q 6 8.015625 6 15.921875 
Q 6 25.140625 12.171875 29.828125 
Q 18.359375 34.515625 30.609375 34.515625 
L 43.21875 34.515625 
L 43.21875 35.40625 
Q 43.21875 41.609375 39.140625 45 
Q 35.0625 48.390625 27.6875 48.390625 
Q 23 48.390625 18.546875 47.265625 
Q 14.109375 46.140625 10.015625 43.890625 
L 10.015625 52.203125 
Q 14.9375 54.109375 19.578125 55.046875 
Q 24.21875 56 28.609375 56 
Q 40.484375 56 46.34375 49.84375 
Q 52.203125 43.703125 52.203125 31.203125 
z
" id="DejaVuSans-97"/>
      <path d="M 44.28125 53.078125 
L 44.28125 44.578125 
Q 40.484375 46.53125 36.375 47.5 
Q 32.28125 48.484375 27.875 48.484375 
Q 21.1875 48.484375 17.84375 46.4375 
Q 14.5 44.390625 14.5 40.28125 
Q 14.5 37.15625 16.890625 35.375 
Q 19.28125 33.59375 26.515625 31.984375 
L 29.59375 31.296875 
Q 39.15625 29.25 43.1875 25.515625 
Q 47.21875 21.78125 47.21875 15.09375 
Q 47.21875 7.46875 41.1875 3.015625 
Q 35.15625 -1.421875 24.609375 -1.421875 
Q 20.21875 -1.421875 15.453125 -0.5625 
Q 10.6875 0.296875 5.421875 2 
L 5.421875 11.28125 
Q 10.40625 8.6875 15.234375 7.390625 
Q 20.0625 6.109375 24.8125 6.109375 
Q 31.15625 6.109375 34.5625 8.28125 
Q 37.984375 10.453125 37.984375 14.40625 
Q 37.984375 18.0625 35.515625 20.015625 
Q 33.0625 21.96875 24.703125 23.78125 
L 21.578125 24.515625 
Q 13.234375 26.265625 9.515625 29.90625 
Q 5.8125 33.546875 5.8125 39.890625 
Q 5.8125 47.609375 11.28125 51.796875 
Q 16.75 56 26.8125 56 
Q 31.78125 56 36.171875 55.265625 
Q 40.578125 54.546875 44.28125 53.078125 
z
" id="DejaVuSans-115"/>
      <path d="M 56.203125 29.59375 
L 56.203125 25.203125 
L 14.890625 25.203125 
Q 15.484375 15.921875 20.484375 11.0625 
Q 25.484375 6.203125 34.421875 6.203125 
Q 39.59375 6.203125 44.453125 7.46875 
Q 49.3125 8.734375 54.109375 11.28125 
L 54.109375 2.78125 
Q 49.265625 0.734375 44.1875 -0.34375 
Q 39.109375 -1.421875 33.890625 -1.421875 
Q 20.796875 -1.421875 13.15625 6.1875 
Q 5.515625 13.8125 5.515625 26.8125 
Q 5.515625 40.234375 12.765625 48.109375 
Q 20.015625 56 32.328125 56 
Q 43.359375 56 49.78125 48.890625 
Q 56.203125 41.796875 56.203125 29.59375 
z
M 47.21875 32.234375 
Q 47.125 39.59375 43.09375 43.984375 
Q 39.0625 48.390625 32.421875 48.390625 
Q 24.90625 48.390625 20.390625 44.140625 
Q 15.875 39.890625 15.1875 32.171875 
z
" id="DejaVuSans-101"/>
     </defs>
     <g transform="translate(492.225313 59.237813)scale(0.14 -0.14)">
      <use xlink:href="#DejaVuSans-98"/>
      <use x="63.476562" xlink:href="#DejaVuSans-97"/>
      <use x="124.755859" xlink:href="#DejaVuSans-115"/>
      <use x="176.855469" xlink:href="#DejaVuSans-101"/>
     </g>
    </g>
    <g id="patch_6">
     <path d="M 453.025313 79.787188 
L 481.025313 79.787188 
L 481.025313 69.987188 
L 453.025313 69.987188 
z
" style="fill:#36a2eb;opacity:0.5;stroke:#36a2eb;stroke-linejoin:miter;"/>
    </g>
    <g id="text_2">
     <!-- subs -->
     <defs>
      <path d="M 8.5 21.578125 
L 8.5 54.6875 
L 17.484375 54.6875 
L 17.484375 21.921875 
Q 17.484375 14.15625 20.5 10.265625 
Q 23.53125 6.390625 29.59375 6.390625 
Q 36.859375 6.390625 41.078125 11.03125 
Q 45.3125 15.671875 45.3125 23.6875 
L 45.3125 54.6875 
L 54.296875 54.6875 
L 54.296875 0 
L 45.3125 0 
L 45.3125 8.40625 
Q 42.046875 3.421875 37.71875 1 
Q 33.40625 -1.421875 27.6875 -1.421875 
Q 18.265625 -1.421875 13.375 4.4375 
Q 8.5 10.296875 8.5 21.578125 
z
M 31.109375 56 
z
" id="DejaVuSans-117"/>
     </defs>
     <g transform="translate(492.225313 79.787188)scale(0.14 -0.14)">
      <use xlink:href="#DejaVuSans-115"/>
      <use x="52.099609" xlink:href="#DejaVuSans-117"/>
      <use x="115.478516" xlink:href="#DejaVuSans-98"/>
      <use x="178.955078" xlink:href="#DejaVuSans-115"/>
     </g>
    </g>
   </g>
  </g>
  <g id="axes_2">
   <g id="patch_7">
    <path d="M 36 525.24 
L 538.2 525.24 
L 538.2 402.93 
L 36 402.93 
z
" style="fill:none;"/>
   </g>
   <g id="patch_8">
    <path clip-path="url(#pb1d02be204)" d="M 152.785397 519.680455 
L 332.429787 519.680455 
L 332.429787 482.616818 
L 152.785397 482.616818 
z
" style="fill:#ff6384;opacity:0.5;"/>
   </g>
   <g id="patch_9">
    <path clip-path="url(#pb1d02be204)" d="M 175.246364 445.553182 
L 398.953636 445.553182 
L 398.953636 408.489545 
L 175.246364 408.489545 
z
" style="fill:#36a2eb;opacity:0.5;"/>
   </g>
   <g id="matplotlib.axis_1">
    <g id="xtick_1">
     <g id="line2d_3">
      <defs>
       <path d="M 0 0 
L 0 3.5 
" id="m17c12ce207" style="stroke:#000000;stroke-width:0.8;"/>
      </defs>
      <g>
       <use style="stroke:#000000;stroke-width:0.8;" x="49.647771" xlink:href="#m17c12ce207" y="525.24"/>
      </g>
     </g>
     <g id="text_3">
      <!-- 0 -->
      <defs>
       <path d="M 31.78125 66.40625 
Q 24.171875 66.40625 20.328125 58.90625 
Q 16.5 51.421875 16.5 36.375 
Q 16.5 21.390625 20.328125 13.890625 
Q 24.171875 6.390625 31.78125 6.390625 
Q 39.453125 6.390625 43.28125 13.890625 
Q 47.125 21.390625 47.125 36.375 
Q 47.125 51.421875 43.28125 58.90625 
Q 39.453125 66.40625 31.78125 66.40625 
z
M 31.78125 74.21875 
Q 44.046875 74.21875 50.515625 64.515625 
Q 56.984375 54.828125 56.984375 36.375 
Q 56.984375 17.96875 50.515625 8.265625 
Q 44.046875 -1.421875 31.78125 -1.421875 
Q 19.53125 -1.421875 13.0625 8.265625 
Q 6.59375 17.96875 6.59375 36.375 
Q 6.59375 54.828125 13.0625 64.515625 
Q 19.53125 74.21875 31.78125 74.21875 
z
" id="DejaVuSans-48"/>
      </defs>
      <g transform="translate(45.194021 542.877813)scale(0.14 -0.14)">
       <use xlink:href="#DejaVuSans-48"/>
      </g>
     </g>
    </g>
    <g id="xtick_2">
     <g id="line2d_4">
      <g>
       <use style="stroke:#000000;stroke-width:0.8;" x="132.375092" xlink:href="#m17c12ce207" y="525.24"/>
      </g>
     </g>
     <g id="text_4">
      <!-- 5 -->
      <defs>
       <path d="M 10.796875 72.90625 
L 49.515625 72.90625 
L 49.515625 64.59375 
L 19.828125 64.59375 
L 19.828125 46.734375 
Q 21.96875 47.46875 24.109375 47.828125 
Q 26.265625 48.1875 28.421875 48.1875 
Q 40.625 48.1875 47.75 41.5 
Q 54.890625 34.8125 54.890625 23.390625 
Q 54.890625 11.625 47.5625 5.09375 
Q 40.234375 -1.421875 26.90625 -1.421875 
Q 22.3125 -1.421875 17.546875 -0.640625 
Q 12.796875 0.140625 7.71875 1.703125 
L 7.71875 11.625 
Q 12.109375 9.234375 16.796875 8.0625 
Q 21.484375 6.890625 26.703125 6.890625 
Q 35.15625 6.890625 40.078125 11.328125 
Q 45.015625 15.765625 45.015625 23.390625 
Q 45.015625 31 40.078125 35.4375 
Q 35.15625 39.890625 26.703125 39.890625 
Q 22.75 39.890625 18.8125 39.015625 
Q 14.890625 38.140625 10.796875 36.28125 
z
" id="DejaVuSans-53"/>
      </defs>
      <g transform="translate(127.921342 542.877813)scale(0.14 -0.14)">
       <use xlink:href="#DejaVuSans-53"/>
      </g>
     </g>
    </g>
    <g id="xtick_3">
     <g id="line2d_5">
      <g>
       <use style="stroke:#000000;stroke-width:0.8;" x="215.102413" xlink:href="#m17c12ce207" y="525.24"/>
      </g>
     </g>
     <g id="text_5">
      <!-- 10 -->
      <defs>
       <path d="M 12.40625 8.296875 
L 28.515625 8.296875 
L 28.515625 63.921875 
L 10.984375 60.40625 
L 10.984375 69.390625 
L 28.421875 72.90625 
L 38.28125 72.90625 
L 38.28125 8.296875 
L 54.390625 8.296875 
L 54.390625 0 
L 12.40625 0 
z
" id="DejaVuSans-49"/>
      </defs>
      <g transform="translate(206.194913 542.877813)scale(0.14 -0.14)">
       <use xlink:href="#DejaVuSans-49"/>
       <use x="63.623047" xlink:href="#DejaVuSans-48"/>
      </g>
     </g>
    </g>
    <g id="xtick_4">
     <g id="line2d_6">
      <g>
       <use style="stroke:#000000;stroke-width:0.8;" x="297.829734" xlink:href="#m17c12ce207" y="525.24"/>
      </g>
     </g>
     <g id="text_6">
      <!-- 15 -->
      <g transform="translate(288.922234 542.877813)scale(0.14 -0.14)">
       <use xlink:href="#DejaVuSans-49"/>
       <use x="63.623047" xlink:href="#DejaVuSans-53"/>
      </g>
     </g>
    </g>
    <g id="xtick_5">
     <g id="line2d_7">
      <g>
       <use style="stroke:#000000;stroke-width:0.8;" x="380.557054" xlink:href="#m17c12ce207" y="525.24"/>
      </g>
     </g>
     <g id="text_7">
      <!-- 20 -->
      <defs>
       <path d="M 19.1875 8.296875 
L 53.609375 8.296875 
L 53.609375 0 
L 7.328125 0 
L 7.328125 8.296875 
Q 12.9375 14.109375 22.625 23.890625 
Q 32.328125 33.6875 34.8125 36.53125 
Q 39.546875 41.84375 41.421875 45.53125 
Q 43.3125 49.21875 43.3125 52.78125 
Q 43.3125 58.59375 39.234375 62.25 
Q 35.15625 65.921875 28.609375 65.921875 
Q 23.96875 65.921875 18.8125 64.3125 
Q 13.671875 62.703125 7.8125 59.421875 
L 7.8125 69.390625 
Q 13.765625 71.78125 18.9375 73 
Q 24.125 74.21875 28.421875 74.21875 
Q 39.75 74.21875 46.484375 68.546875 
Q 53.21875 62.890625 53.21875 53.421875 
Q 53.21875 48.921875 51.53125 44.890625 
Q 49.859375 40.875 45.40625 35.40625 
Q 44.1875 33.984375 37.640625 27.21875 
Q 31.109375 20.453125 19.1875 8.296875 
z
" id="DejaVuSans-50"/>
      </defs>
      <g transform="translate(371.649554 542.877813)scale(0.14 -0.14)">
       <use xlink:href="#DejaVuSans-50"/>
       <use x="63.623047" xlink:href="#DejaVuSans-48"/>
      </g>
     </g>
    </g>
    <g id="xtick_6">
     <g id="line2d_8">
      <g>
       <use style="stroke:#000000;stroke-width:0.8;" x="463.284375" xlink:href="#m17c12ce207" y="525.24"/>
      </g>
     </g>
     <g id="text_8">
      <!-- 25 -->
      <g transform="translate(454.376875 542.877813)scale(0.14 -0.14)">
       <use xlink:href="#DejaVuSans-50"/>
       <use x="63.623047" xlink:href="#DejaVuSans-53"/>
      </g>
     </g>
    </g>
   </g>
   <g id="line2d_9">
    <path clip-path="url(#pb1d02be204)" d="M 242.607592 525.24 
L 242.607592 402.93 
" style="fill:none;stroke:#ff6384;stroke-dasharray:5.55,2.4;stroke-dashoffset:0;stroke-opacity:0.8;stroke-width:1.5;"/>
   </g>
   <g id="line2d_10">
    <path clip-path="url(#pb1d02be204)" d="M 287.1 525.24 
L 287.1 402.93 
" style="fill:none;stroke:#36a2eb;stroke-dasharray:5.55,2.4;stroke-dashoffset:0;stroke-opacity:0.8;stroke-width:1.5;"/>
   </g>
   <g id="patch_10">
    <path d="M 36 525.24 
L 538.2 525.24 
" style="fill:none;stroke:#000000;stroke-linecap:square;stroke-linejoin:miter;stroke-width:0.8;"/>
   </g>
  </g>
 </g>
 <defs>
  <clipPath id="pda963b2953">
   <rect height="366.93" width="502.2" x="36" y="36"/>
  </clipPath>
  <clipPath id="pb1d02be204">
   <rect height="122.31" width="502.2" x="36" y="402.93"/>
  </clipPath>
 </defs>
</svg>
