<?xml version="1.0" encoding="utf-8" standalone="no"?>
<!DOCTYPE svg PUBLIC "-//W3C//DTD SVG 1.1//EN"
  "http://www.w3.org/Graphics/SVG/1.1/DTD/svg11.dtd">
<!-- Created with matplotlib (https://matplotlib.org/) -->
<svg height="581.789375pt" version="1.1" viewBox="0 0 574.2 581.789375" width="574.2pt" xmlns="http://www.w3.org/2000/svg" xmlns:xlink="http://www.w3.org/1999/xlink">
 <defs>
  <style type="text/css">
*{stroke-linecap:butt;stroke-linejoin:round;}
  </style>
 </defs>
 <g id="figure_1">
  <g id="patch_1">
   <path d="M 0 581.789375 
L 574.2 581.789375 
L 574.2 0 
L 0 0 
z
" style="fill:none;"/>
  </g>
  <g id="axes_1">
   <g id="patch_2">
    <path d="M 36 402.93 
L 538.2 402.93 
L 538.2 36 
L 36 36 
z
" style="fill:none;"/>
   </g>
   <g id="PolyCollection_1">
    <defs>
     <path d="M 84.630942 -195.538011 
L 84.630942 -195.648414 
L 88.981869 -195.690045 
L 93.332796 -195.746011 
L 97.683723 -195.820728 
L 102.03465 -195.919783 
L 106.385578 -196.050188 
L 110.736505 -196.220665 
L 115.087432 -196.441962 
L 119.438359 -196.727207 
L 123.789286 -197.09228 
L 128.140213 -197.556205 
L 132.49114 -198.141547 
L 136.842067 -198.874799 
L 141.192995 -199.786726 
L 145.543922 -200.912667 
L 149.894849 -202.292739 
L 154.245776 -203.971924 
L 158.596703 -206.000005 
L 162.94763 -208.431305 
L 167.298557 -211.324203 
L 171.649484 -214.740386 
L 176.000412 -218.743815 
L 180.351339 -223.399374 
L 184.702266 -228.771213 
L 189.053193 -234.920766 
L 193.40412 -241.904486 
L 197.755047 -249.771326 
L 202.105974 -258.560028 
L 206.456901 -268.296308 
L 210.807829 -278.990027 
L 215.158756 -290.632472 
L 219.509683 -303.193875 
L 223.86061 -316.621309 
L 228.211537 -330.837101 
L 232.562464 -345.737891 
L 236.913391 -361.194472 
L 241.264318 -377.05248 
L 245.615246 -393.134036 
L 249.966173 -409.240331 
L 254.3171 -425.155177 
L 258.668027 -440.649431 
L 263.018954 -455.486215 
L 267.369881 -469.426751 
L 271.720808 -482.236638 
L 276.071735 -493.692348 
L 280.422663 -503.587667 
L 284.77359 -511.739861 
L 289.124517 -517.995275 
L 293.475444 -522.234151 
L 297.826371 -524.37444 
L 302.177298 -524.37444 
L 306.528225 -522.234151 
L 310.879152 -517.995275 
L 315.23008 -511.739861 
L 319.581007 -503.587667 
L 323.931934 -493.692348 
L 328.282861 -482.236638 
L 332.633788 -469.426751 
L 336.984715 -455.486215 
L 341.335642 -440.649431 
L 345.686569 -425.155177 
L 350.037497 -409.240331 
L 354.388424 -393.134036 
L 358.739351 -377.05248 
L 363.090278 -361.194472 
L 367.441205 -345.737891 
L 371.792132 -330.837101 
L 376.143059 -316.621309 
L 380.493986 -303.193875 
L 384.844914 -290.632472 
L 389.195841 -278.990027 
L 393.546768 -268.296308 
L 397.897695 -258.560028 
L 402.248622 -249.771326 
L 406.599549 -241.904486 
L 410.950476 -234.920766 
L 415.301403 -228.771213 
L 419.652331 -223.399374 
L 424.003258 -218.743815 
L 428.354185 -214.740386 
L 432.705112 -211.324203 
L 437.056039 -208.431305 
L 441.406966 -206.000005 
L 445.757893 -203.971924 
L 450.10882 -202.292739 
L 454.459748 -200.912667 
L 458.810675 -199.786726 
L 463.161602 -198.874799 
L 467.512529 -198.141547 
L 471.863456 -197.556205 
L 476.214383 -197.09228 
L 480.56531 -196.727207 
L 484.916237 -196.441962 
L 489.267165 -196.220665 
L 493.618092 -196.050188 
L 497.969019 -195.919783 
L 502.319946 -195.820728 
L 506.670873 -195.746011 
L 511.0218 -195.690045 
L 515.372727 -195.648414 
L 515.372727 -195.538011 
L 515.372727 -195.538011 
L 511.0218 -195.538011 
L 506.670873 -195.538011 
L 502.319946 -195.538011 
L 497.969019 -195.538011 
L 493.618092 -195.538011 
L 489.267165 -195.538011 
L 484.916237 -195.538011 
L 480.56531 -195.538011 
L 476.214383 -195.538011 
L 471.863456 -195.538011 
L 467.512529 -195.538011 
L 463.161602 -195.538011 
L 458.810675 -195.538011 
L 454.459748 -195.538011 
L 450.10882 -195.538011 
L 445.757893 -195.538011 
L 441.406966 -195.538011 
L 437.056039 -195.538011 
L 432.705112 -195.538011 
L 428.354185 -195.538011 
L 424.003258 -195.538011 
L 419.652331 -195.538011 
L 415.301403 -195.538011 
L 410.950476 -195.538011 
L 406.599549 -195.538011 
L 402.248622 -195.538011 
L 397.897695 -195.538011 
L 393.546768 -195.538011 
L 389.195841 -195.538011 
L 384.844914 -195.538011 
L 380.493986 -195.538011 
L 376.143059 -195.538011 
L 371.792132 -195.538011 
L 367.441205 -195.538011 
L 363.090278 -195.538011 
L 358.739351 -195.538011 
L 354.388424 -195.538011 
L 350.037497 -195.538011 
L 345.686569 -195.538011 
L 341.335642 -195.538011 
L 336.984715 -195.538011 
L 332.633788 -195.538011 
L 328.282861 -195.538011 
L 323.931934 -195.538011 
L 319.581007 -195.538011 
L 315.23008 -195.538011 
L 310.879152 -195.538011 
L 306.528225 -195.538011 
L 302.177298 -195.538011 
L 297.826371 -195.538011 
L 293.475444 -195.538011 
L 289.124517 -195.538011 
L 284.77359 -195.538011 
L 280.422663 -195.538011 
L 276.071735 -195.538011 
L 271.720808 -195.538011 
L 267.369881 -195.538011 
L 263.018954 -195.538011 
L 258.668027 -195.538011 
L 254.3171 -195.538011 
L 249.966173 -195.538011 
L 245.615246 -195.538011 
L 241.264318 -195.538011 
L 236.913391 -195.538011 
L 232.562464 -195.538011 
L 228.211537 -195.538011 
L 223.86061 -195.538011 
L 219.509683 -195.538011 
L 215.158756 -195.538011 
L 210.807829 -195.538011 
L 206.456901 -195.538011 
L 202.105974 -195.538011 
L 197.755047 -195.538011 
L 193.40412 -195.538011 
L 189.053193 -195.538011 
L 184.702266 -195.538011 
L 180.351339 -195.538011 
L 176.000412 -195.538011 
L 171.649484 -195.538011 
L 167.298557 -195.538011 
L 162.94763 -195.538011 
L 158.596703 -195.538011 
L 154.245776 -195.538011 
L 149.894849 -195.538011 
L 145.543922 -195.538011 
L 141.192995 -195.538011 
L 136.842067 -195.538011 
L 132.49114 -195.538011 
L 128.140213 -195.538011 
L 123.789286 -195.538011 
L 119.438359 -195.538011 
L 115.087432 -195.538011 
L 110.736505 -195.538011 
L 106.385578 -195.538011 
L 102.03465 -195.538011 
L 97.683723 -195.538011 
L 93.332796 -195.538011 
L 88.981869 -195.538011 
L 84.630942 -195.538011 
z
" id="m8e9b52e6a4" style="stroke:#ff6384;stroke-opacity:0.5;"/>
    </defs>
    <g clip-path="url(#pd0ed7bafd8)">
     <use style="fill:#ff6384;fill-opacity:0.5;stroke:#ff6384;stroke-opacity:0.5;" x="0" xlink:href="#m8e9b52e6a4" y="581.789375"/>
    </g>
   </g>
   <g id="PolyCollection_2">
    <defs>
     <path d="M 58.827273 -195.538011 
L 58.827273 -195.649459 
L 63.137406 -195.691484 
L 67.447539 -195.74798 
L 71.757672 -195.823404 
L 76.067804 -195.923396 
L 80.377937 -196.055035 
L 84.68807 -196.227126 
L 88.998203 -196.450517 
L 93.308336 -196.738462 
L 97.618469 -197.10699 
L 101.928602 -197.575306 
L 106.238735 -198.166189 
L 110.548868 -198.90638 
L 114.859001 -199.826939 
L 119.169134 -200.963537 
L 123.479267 -202.35667 
L 127.7894 -204.051749 
L 132.099532 -206.099024 
L 136.409665 -208.553336 
L 140.719798 -211.473615 
L 145.029931 -214.922132 
L 149.340064 -218.963451 
L 153.650197 -223.663074 
L 157.96033 -229.085756 
L 162.270463 -235.293513 
L 166.580596 -242.343332 
L 170.890729 -250.284629 
L 175.200862 -259.156513 
L 179.510995 -268.984945 
L 183.821128 -279.779877 
L 188.13126 -291.532515 
L 192.441393 -304.212808 
L 196.751526 -317.767329 
L 201.061659 -332.117668 
L 205.371792 -347.159491 
L 209.681925 -362.762363 
L 213.992058 -378.770464 
L 218.302191 -395.004227 
L 222.612324 -411.262964 
L 226.922457 -427.328439 
L 231.23259 -442.969342 
L 235.542723 -457.946552 
L 239.852856 -472.019031 
L 244.162989 -484.950161 
L 248.473121 -496.514295 
L 252.783254 -506.503271 
L 257.093387 -514.732622 
L 261.40352 -521.047242 
L 265.713653 -525.326238 
L 270.023786 -527.486784 
L 274.333919 -527.486784 
L 278.644052 -525.326238 
L 282.954185 -521.047242 
L 287.264318 -514.732622 
L 291.574451 -506.503271 
L 295.884584 -496.514295 
L 300.194717 -484.950161 
L 304.504849 -472.019031 
L 308.814982 -457.946552 
L 313.125115 -442.969342 
L 317.435248 -427.328439 
L 321.745381 -411.262964 
L 326.055514 -395.004227 
L 330.365647 -378.770464 
L 334.67578 -362.762363 
L 338.985913 -347.159491 
L 343.296046 -332.117668 
L 347.606179 -317.767329 
L 351.916312 -304.212808 
L 356.226445 -291.532515 
L 360.536577 -279.779877 
L 364.84671 -268.984945 
L 369.156843 -259.156513 
L 373.466976 -250.284629 
L 377.777109 -242.343332 
L 382.087242 -235.293513 
L 386.397375 -229.085756 
L 390.707508 -223.663074 
L 395.017641 -218.963451 
L 399.327774 -214.922132 
L 403.637907 -211.473615 
L 407.94804 -208.553336 
L 412.258173 -206.099024 
L 416.568306 -204.051749 
L 420.878438 -202.35667 
L 425.188571 -200.963537 
L 429.498704 -199.826939 
L 433.808837 -198.90638 
L 438.11897 -198.166189 
L 442.429103 -197.575306 
L 446.739236 -197.10699 
L 451.049369 -196.738462 
L 455.359502 -196.450517 
L 459.669635 -196.227126 
L 463.979768 -196.055035 
L 468.289901 -195.923396 
L 472.600034 -195.823404 
L 476.910166 -195.74798 
L 481.220299 -195.691484 
L 485.530432 -195.649459 
L 485.530432 -195.538011 
L 485.530432 -195.538011 
L 481.220299 -195.538011 
L 476.910166 -195.538011 
L 472.600034 -195.538011 
L 468.289901 -195.538011 
L 463.979768 -195.538011 
L 459.669635 -195.538011 
L 455.359502 -195.538011 
L 451.049369 -195.538011 
L 446.739236 -195.538011 
L 442.429103 -195.538011 
L 438.11897 -195.538011 
L 433.808837 -195.538011 
L 429.498704 -195.538011 
L 425.188571 -195.538011 
L 420.878438 -195.538011 
L 416.568306 -195.538011 
L 412.258173 -195.538011 
L 407.94804 -195.538011 
L 403.637907 -195.538011 
L 399.327774 -195.538011 
L 395.017641 -195.538011 
L 390.707508 -195.538011 
L 386.397375 -195.538011 
L 382.087242 -195.538011 
L 377.777109 -195.538011 
L 373.466976 -195.538011 
L 369.156843 -195.538011 
L 364.84671 -195.538011 
L 360.536577 -195.538011 
L 356.226445 -195.538011 
L 351.916312 -195.538011 
L 347.606179 -195.538011 
L 343.296046 -195.538011 
L 338.985913 -195.538011 
L 334.67578 -195.538011 
L 330.365647 -195.538011 
L 326.055514 -195.538011 
L 321.745381 -195.538011 
L 317.435248 -195.538011 
L 313.125115 -195.538011 
L 308.814982 -195.538011 
L 304.504849 -195.538011 
L 300.194717 -195.538011 
L 295.884584 -195.538011 
L 291.574451 -195.538011 
L 287.264318 -195.538011 
L 282.954185 -195.538011 
L 278.644052 -195.538011 
L 274.333919 -195.538011 
L 270.023786 -195.538011 
L 265.713653 -195.538011 
L 261.40352 -195.538011 
L 257.093387 -195.538011 
L 252.783254 -195.538011 
L 248.473121 -195.538011 
L 244.162989 -195.538011 
L 239.852856 -195.538011 
L 235.542723 -195.538011 
L 231.23259 -195.538011 
L 226.922457 -195.538011 
L 222.612324 -195.538011 
L 218.302191 -195.538011 
L 213.992058 -195.538011 
L 209.681925 -195.538011 
L 205.371792 -195.538011 
L 201.061659 -195.538011 
L 196.751526 -195.538011 
L 192.441393 -195.538011 
L 188.13126 -195.538011 
L 183.821128 -195.538011 
L 179.510995 -195.538011 
L 175.200862 -195.538011 
L 170.890729 -195.538011 
L 166.580596 -195.538011 
L 162.270463 -195.538011 
L 157.96033 -195.538011 
L 153.650197 -195.538011 
L 149.340064 -195.538011 
L 145.029931 -195.538011 
L 140.719798 -195.538011 
L 136.409665 -195.538011 
L 132.099532 -195.538011 
L 127.7894 -195.538011 
L 123.479267 -195.538011 
L 119.169134 -195.538011 
L 114.859001 -195.538011 
L 110.548868 -195.538011 
L 106.238735 -195.538011 
L 101.928602 -195.538011 
L 97.618469 -195.538011 
L 93.308336 -195.538011 
L 88.998203 -195.538011 
L 84.68807 -195.538011 
L 80.377937 -195.538011 
L 76.067804 -195.538011 
L 71.757672 -195.538011 
L 67.447539 -195.538011 
L 63.137406 -195.538011 
L 58.827273 -195.538011 
z
" id="m41858dd0de" style="stroke:#36a2eb;stroke-opacity:0.5;"/>
    </defs>
    <g clip-path="url(#pd0ed7bafd8)">
     <use style="fill:#36a2eb;fill-opacity:0.5;stroke:#36a2eb;stroke-opacity:0.5;" x="0" xlink:href="#m41858dd0de" y="581.789375"/>
    </g>
   </g>
   <g id="PolyCollection_3">
    <defs>
     <path d="M 62.184528 -195.538011 
L 62.184528 -195.650004 
L 66.473678 -195.692234 
L 70.762828 -195.749007 
L 75.051977 -195.8248 
L 79.341127 -195.925281 
L 83.630276 -196.057565 
L 87.919426 -196.230497 
L 92.208576 -196.454982 
L 96.497725 -196.744335 
L 100.786875 -197.114666 
L 105.076025 -197.585273 
L 109.365174 -198.179047 
L 113.654324 -198.922859 
L 117.943473 -199.847921 
L 122.232623 -200.990079 
L 126.521773 -202.390029 
L 130.810922 -204.093399 
L 135.100072 -206.150691 
L 139.389221 -208.617009 
L 143.678371 -211.551575 
L 147.967521 -215.016962 
L 152.25667 -219.078053 
L 156.54582 -223.800667 
L 160.83497 -229.249878 
L 165.124119 -235.488004 
L 169.413269 -242.572312 
L 173.702418 -250.552459 
L 177.991568 -259.467747 
L 182.280718 -269.344261 
L 186.569867 -280.192004 
L 190.859017 -292.002137 
L 195.148166 -304.744465 
L 199.437316 -318.365297 
L 203.726466 -332.785841 
L 208.015615 -347.901251 
L 212.304765 -363.580456 
L 216.593915 -379.666871 
L 220.883064 -395.980052 
L 225.172214 -412.31833 
L 229.461363 -428.4624 
L 233.750513 -444.179822 
L 238.039663 -459.230303 
L 242.328812 -473.371627 
L 246.617962 -486.366018 
L 250.907111 -497.986726 
L 255.196261 -508.02457 
L 259.485411 -516.294181 
L 263.77456 -522.639693 
L 268.06371 -526.939623 
L 272.35286 -529.110739 
L 276.642009 -529.110739 
L 280.931159 -526.939623 
L 285.220308 -522.639693 
L 289.509458 -516.294181 
L 293.798608 -508.02457 
L 298.087757 -497.986726 
L 302.376907 -486.366018 
L 306.666056 -473.371627 
L 310.955206 -459.230303 
L 315.244356 -444.179822 
L 319.533505 -428.4624 
L 323.822655 -412.31833 
L 328.111805 -395.980052 
L 332.400954 -379.666871 
L 336.690104 -363.580456 
L 340.979253 -347.901251 
L 345.268403 -332.785841 
L 349.557553 -318.365297 
L 353.846702 -304.744465 
L 358.135852 -292.002137 
L 362.425002 -280.192004 
L 366.714151 -269.344261 
L 371.003301 -259.467747 
L 375.29245 -250.552459 
L 379.5816 -242.572312 
L 383.87075 -235.488004 
L 388.159899 -229.249878 
L 392.449049 -223.800667 
L 396.738198 -219.078053 
L 401.027348 -215.016962 
L 405.316498 -211.551575 
L 409.605647 -208.617009 
L 413.894797 -206.150691 
L 418.183947 -204.093399 
L 422.473096 -202.390029 
L 426.762246 -200.990079 
L 431.051395 -199.847921 
L 435.340545 -198.922859 
L 439.629695 -198.179047 
L 443.918844 -197.585273 
L 448.207994 -197.114666 
L 452.497143 -196.744335 
L 456.786293 -196.454982 
L 461.075443 -196.230497 
L 465.364592 -196.057565 
L 469.653742 -195.925281 
L 473.942892 -195.8248 
L 478.232041 -195.749007 
L 482.521191 -195.692234 
L 486.81034 -195.650004 
L 486.81034 -195.538011 
L 486.81034 -195.538011 
L 482.521191 -195.538011 
L 478.232041 -195.538011 
L 473.942892 -195.538011 
L 469.653742 -195.538011 
L 465.364592 -195.538011 
L 461.075443 -195.538011 
L 456.786293 -195.538011 
L 452.497143 -195.538011 
L 448.207994 -195.538011 
L 443.918844 -195.538011 
L 439.629695 -195.538011 
L 435.340545 -195.538011 
L 431.051395 -195.538011 
L 426.762246 -195.538011 
L 422.473096 -195.538011 
L 418.183947 -195.538011 
L 413.894797 -195.538011 
L 409.605647 -195.538011 
L 405.316498 -195.538011 
L 401.027348 -195.538011 
L 396.738198 -195.538011 
L 392.449049 -195.538011 
L 388.159899 -195.538011 
L 383.87075 -195.538011 
L 379.5816 -195.538011 
L 375.29245 -195.538011 
L 371.003301 -195.538011 
L 366.714151 -195.538011 
L 362.425002 -195.538011 
L 358.135852 -195.538011 
L 353.846702 -195.538011 
L 349.557553 -195.538011 
L 345.268403 -195.538011 
L 340.979253 -195.538011 
L 336.690104 -195.538011 
L 332.400954 -195.538011 
L 328.111805 -195.538011 
L 323.822655 -195.538011 
L 319.533505 -195.538011 
L 315.244356 -195.538011 
L 310.955206 -195.538011 
L 306.666056 -195.538011 
L 302.376907 -195.538011 
L 298.087757 -195.538011 
L 293.798608 -195.538011 
L 289.509458 -195.538011 
L 285.220308 -195.538011 
L 280.931159 -195.538011 
L 276.642009 -195.538011 
L 272.35286 -195.538011 
L 268.06371 -195.538011 
L 263.77456 -195.538011 
L 259.485411 -195.538011 
L 255.196261 -195.538011 
L 250.907111 -195.538011 
L 246.617962 -195.538011 
L 242.328812 -195.538011 
L 238.039663 -195.538011 
L 233.750513 -195.538011 
L 229.461363 -195.538011 
L 225.172214 -195.538011 
L 220.883064 -195.538011 
L 216.593915 -195.538011 
L 212.304765 -195.538011 
L 208.015615 -195.538011 
L 203.726466 -195.538011 
L 199.437316 -195.538011 
L 195.148166 -195.538011 
L 190.859017 -195.538011 
L 186.569867 -195.538011 
L 182.280718 -195.538011 
L 177.991568 -195.538011 
L 173.702418 -195.538011 
L 169.413269 -195.538011 
L 165.124119 -195.538011 
L 160.83497 -195.538011 
L 156.54582 -195.538011 
L 152.25667 -195.538011 
L 147.967521 -195.538011 
L 143.678371 -195.538011 
L 139.389221 -195.538011 
L 135.100072 -195.538011 
L 130.810922 -195.538011 
L 126.521773 -195.538011 
L 122.232623 -195.538011 
L 117.943473 -195.538011 
L 113.654324 -195.538011 
L 109.365174 -195.538011 
L 105.076025 -195.538011 
L 100.786875 -195.538011 
L 96.497725 -195.538011 
L 92.208576 -195.538011 
L 87.919426 -195.538011 
L 83.630276 -195.538011 
L 79.341127 -195.538011 
L 75.051977 -195.538011 
L 70.762828 -195.538011 
L 66.473678 -195.538011 
L 62.184528 -195.538011 
z
" id="m4caa7f328d" style="stroke:#4bc0c0;stroke-opacity:0.5;"/>
    </defs>
    <g clip-path="url(#pd0ed7bafd8)">
     <use style="fill:#4bc0c0;fill-opacity:0.5;stroke:#4bc0c0;stroke-opacity:0.5;" x="0" xlink:href="#m4caa7f328d" y="581.789375"/>
    </g>
   </g>
   <g id="line2d_1">
    <path clip-path="url(#pd0ed7bafd8)" d="M 84.630942 386.140961 
L 88.981869 386.09933 
L 93.332796 386.043364 
L 97.683723 385.968647 
L 102.03465 385.869592 
L 106.385578 385.739187 
L 110.736505 385.56871 
L 115.087432 385.347413 
L 119.438359 385.062168 
L 123.789286 384.697095 
L 128.140213 384.23317 
L 132.49114 383.647828 
L 136.842067 382.914576 
L 141.192995 382.002649 
L 145.543922 380.876708 
L 149.894849 379.496636 
L 154.245776 377.817451 
L 158.596703 375.78937 
L 162.94763 373.35807 
L 167.298557 370.465172 
L 171.649484 367.048989 
L 176.000412 363.04556 
L 180.351339 358.390001 
L 184.702266 353.018162 
L 189.053193 346.868609 
L 193.40412 339.884889 
L 197.755047 332.018049 
L 202.105974 323.229347 
L 206.456901 313.493067 
L 210.807829 302.799348 
L 215.158756 291.156903 
L 219.509683 278.5955 
L 223.86061 265.168066 
L 228.211537 250.952274 
L 232.562464 236.051484 
L 236.913391 220.594903 
L 241.264318 204.736895 
L 245.615246 188.655339 
L 249.966173 172.549044 
L 254.3171 156.634198 
L 258.668027 141.139944 
L 263.018954 126.30316 
L 267.369881 112.362624 
L 271.720808 99.552737 
L 276.071735 88.097027 
L 280.422663 78.201708 
L 284.77359 70.049514 
L 289.124517 63.7941 
L 293.475444 59.555224 
L 297.826371 57.414935 
L 302.177298 57.414935 
L 306.528225 59.555224 
L 310.879152 63.7941 
L 315.23008 70.049514 
L 319.581007 78.201708 
L 323.931934 88.097027 
L 328.282861 99.552737 
L 332.633788 112.362624 
L 336.984715 126.30316 
L 341.335642 141.139944 
L 345.686569 156.634198 
L 350.037497 172.549044 
L 354.388424 188.655339 
L 358.739351 204.736895 
L 363.090278 220.594903 
L 367.441205 236.051484 
L 371.792132 250.952274 
L 376.143059 265.168066 
L 380.493986 278.5955 
L 384.844914 291.156903 
L 389.195841 302.799348 
L 393.546768 313.493067 
L 397.897695 323.229347 
L 402.248622 332.018049 
L 406.599549 339.884889 
L 410.950476 346.868609 
L 415.301403 353.018162 
L 419.652331 358.390001 
L 424.003258 363.04556 
L 428.354185 367.048989 
L 432.705112 370.465172 
L 437.056039 373.35807 
L 441.406966 375.78937 
L 445.757893 377.817451 
L 450.10882 379.496636 
L 454.459748 380.876708 
L 458.810675 382.002649 
L 463.161602 382.914576 
L 467.512529 383.647828 
L 471.863456 384.23317 
L 476.214383 384.697095 
L 480.56531 385.062168 
L 484.916237 385.347413 
L 489.267165 385.56871 
L 493.618092 385.739187 
L 497.969019 385.869592 
L 502.319946 385.968647 
L 506.670873 386.043364 
L 511.0218 386.09933 
L 515.372727 386.140961 
" style="fill:none;stroke:#ff6384;stroke-linecap:square;"/>
   </g>
   <g id="line2d_2">
    <path clip-path="url(#pd0ed7bafd8)" d="M 58.827273 386.139916 
L 63.137406 386.097891 
L 67.447539 386.041395 
L 71.757672 385.965971 
L 76.067804 385.865979 
L 80.377937 385.73434 
L 84.68807 385.562249 
L 88.998203 385.338858 
L 93.308336 385.050913 
L 97.618469 384.682385 
L 101.928602 384.214069 
L 106.238735 383.623186 
L 110.548868 382.882995 
L 114.859001 381.962436 
L 119.169134 380.825838 
L 123.479267 379.432705 
L 127.7894 377.737626 
L 132.099532 375.690351 
L 136.409665 373.236039 
L 140.719798 370.31576 
L 145.029931 366.867243 
L 149.340064 362.825924 
L 153.650197 358.126301 
L 157.96033 352.703619 
L 162.270463 346.495862 
L 166.580596 339.446043 
L 170.890729 331.504746 
L 175.200862 322.632862 
L 179.510995 312.80443 
L 183.821128 302.009498 
L 188.13126 290.25686 
L 192.441393 277.576567 
L 196.751526 264.022046 
L 201.061659 249.671707 
L 205.371792 234.629884 
L 209.681925 219.027012 
L 213.992058 203.018911 
L 218.302191 186.785148 
L 222.612324 170.526411 
L 226.922457 154.460936 
L 231.23259 138.820033 
L 235.542723 123.842823 
L 239.852856 109.770344 
L 244.162989 96.839214 
L 248.473121 85.27508 
L 252.783254 75.286104 
L 257.093387 67.056753 
L 261.40352 60.742133 
L 265.713653 56.463137 
L 270.023786 54.302591 
L 274.333919 54.302591 
L 278.644052 56.463137 
L 282.954185 60.742133 
L 287.264318 67.056753 
L 291.574451 75.286104 
L 295.884584 85.27508 
L 300.194717 96.839214 
L 304.504849 109.770344 
L 308.814982 123.842823 
L 313.125115 138.820033 
L 317.435248 154.460936 
L 321.745381 170.526411 
L 326.055514 186.785148 
L 330.365647 203.018911 
L 334.67578 219.027012 
L 338.985913 234.629884 
L 343.296046 249.671707 
L 347.606179 264.022046 
L 351.916312 277.576567 
L 356.226445 290.25686 
L 360.536577 302.009498 
L 364.84671 312.80443 
L 369.156843 322.632862 
L 373.466976 331.504746 
L 377.777109 339.446043 
L 382.087242 346.495862 
L 386.397375 352.703619 
L 390.707508 358.126301 
L 395.017641 362.825924 
L 399.327774 366.867243 
L 403.637907 370.31576 
L 407.94804 373.236039 
L 412.258173 375.690351 
L 416.568306 377.737626 
L 420.878438 379.432705 
L 425.188571 380.825838 
L 429.498704 381.962436 
L 433.808837 382.882995 
L 438.11897 383.623186 
L 442.429103 384.214069 
L 446.739236 384.682385 
L 451.049369 385.050913 
L 455.359502 385.338858 
L 459.669635 385.562249 
L 463.979768 385.73434 
L 468.289901 385.865979 
L 472.600034 385.965971 
L 476.910166 386.041395 
L 481.220299 386.097891 
L 485.530432 386.139916 
" style="fill:none;stroke:#36a2eb;stroke-linecap:square;"/>
   </g>
   <g id="line2d_3">
    <path clip-path="url(#pd0ed7bafd8)" d="M 62.184528 386.139371 
L 66.473678 386.097141 
L 70.762828 386.040368 
L 75.051977 385.964575 
L 79.341127 385.864094 
L 83.630276 385.73181 
L 87.919426 385.558878 
L 92.208576 385.334393 
L 96.497725 385.04504 
L 100.786875 384.674709 
L 105.076025 384.204102 
L 109.365174 383.610328 
L 113.654324 382.866516 
L 117.943473 381.941454 
L 122.232623 380.799296 
L 126.521773 379.399346 
L 130.810922 377.695976 
L 135.100072 375.638684 
L 139.389221 373.172366 
L 143.678371 370.2378 
L 147.967521 366.772413 
L 152.25667 362.711322 
L 156.54582 357.988708 
L 160.83497 352.539497 
L 165.124119 346.301371 
L 169.413269 339.217063 
L 173.702418 331.236916 
L 177.991568 322.321628 
L 182.280718 312.445114 
L 186.569867 301.597371 
L 190.859017 289.787238 
L 195.148166 277.04491 
L 199.437316 263.424078 
L 203.726466 249.003534 
L 208.015615 233.888124 
L 212.304765 218.208919 
L 216.593915 202.122504 
L 220.883064 185.809323 
L 225.172214 169.471045 
L 229.461363 153.326975 
L 233.750513 137.609553 
L 238.039663 122.559072 
L 242.328812 108.417748 
L 246.617962 95.423357 
L 250.907111 83.802649 
L 255.196261 73.764805 
L 259.485411 65.495194 
L 263.77456 59.149682 
L 268.06371 54.849752 
L 272.35286 52.678636 
L 276.642009 52.678636 
L 280.931159 54.849752 
L 285.220308 59.149682 
L 289.509458 65.495194 
L 293.798608 73.764805 
L 298.087757 83.802649 
L 302.376907 95.423357 
L 306.666056 108.417748 
L 310.955206 122.559072 
L 315.244356 137.609553 
L 319.533505 153.326975 
L 323.822655 169.471045 
L 328.111805 185.809323 
L 332.400954 202.122504 
L 336.690104 218.208919 
L 340.979253 233.888124 
L 345.268403 249.003534 
L 349.557553 263.424078 
L 353.846702 277.04491 
L 358.135852 289.787238 
L 362.425002 301.597371 
L 366.714151 312.445114 
L 371.003301 322.321628 
L 375.29245 331.236916 
L 379.5816 339.217063 
L 383.87075 346.301371 
L 388.159899 352.539497 
L 392.449049 357.988708 
L 396.738198 362.711322 
L 401.027348 366.772413 
L 405.316498 370.2378 
L 409.605647 373.172366 
L 413.894797 375.638684 
L 418.183947 377.695976 
L 422.473096 379.399346 
L 426.762246 380.799296 
L 431.051395 381.941454 
L 435.340545 382.866516 
L 439.629695 383.610328 
L 443.918844 384.204102 
L 448.207994 384.674709 
L 452.497143 385.04504 
L 456.786293 385.334393 
L 461.075443 385.558878 
L 465.364592 385.73181 
L 469.653742 385.864094 
L 473.942892 385.964575 
L 478.232041 386.040368 
L 482.521191 386.097141 
L 486.81034 386.139371 
" style="fill:none;stroke:#4bc0c0;stroke-linecap:square;"/>
   </g>
   <g id="patch_3">
    <path d="M 36 402.93 
L 538.2 402.93 
" style="fill:none;stroke:#000000;stroke-linecap:square;stroke-linejoin:miter;stroke-width:0.8;"/>
   </g>
   <g id="legend_1">
    <g id="patch_4">
     <path d="M 421.16 109.2375 
L 528.4 109.2375 
Q 531.2 109.2375 531.2 106.4375 
L 531.2 45.8 
Q 531.2 43 528.4 43 
L 421.16 43 
Q 418.36 43 418.36 45.8 
L 418.36 106.4375 
Q 418.36 109.2375 421.16 109.2375 
z
" style="fill:#ffffff;opacity:0.8;stroke:#cccccc;stroke-linejoin:miter;"/>
    </g>
    <g id="patch_5">
     <path d="M 423.96 59.237813 
L 451.96 59.237813 
L 451.96 49.437813 
L 423.96 49.437813 
z
" style="fill:#ff6384;opacity:0.5;stroke:#ff6384;stroke-linejoin:miter;"/>
    </g>
    <g id="text_1">
     <!-- base -->
     <defs>
      <path d="M 48.6875 27.296875 
Q 48.6875 37.203125 44.609375 42.84375 
Q 40.53125 48.484375 33.40625 48.484375 
Q 26.265625 48.484375 22.1875 42.84375 
Q 18.109375 37.203125 18.109375 27.296875 
Q 18.109375 17.390625 22.1875 11.75 
Q 26.265625 6.109375 33.40625 6.109375 
Q 40.53125 6.109375 44.609375 11.75 
Q 48.6875 17.390625 48.6875 27.296875 
z
M 18.109375 46.390625 
Q 20.953125 51.265625 25.265625 53.625 
Q 29.59375 56 35.59375 56 
Q 45.5625 56 51.78125 48.09375 
Q 58.015625 40.1875 58.015625 27.296875 
Q 58.015625 14.40625 51.78125 6.484375 
Q 45.5625 -1.421875 35.59375 -1.421875 
Q 29.59375 -1.421875 25.265625 0.953125 
Q 20.953125 3.328125 18.109375 8.203125 
L 18.109375 0 
L 9.078125 0 
L 9.078125 75.984375 
L 18.109375 75.984375 
z
" id="DejaVuSans-98"/>
      <path d="M 34.28125 27.484375 
Q 23.390625 27.484375 19.1875 25 
Q 14.984375 22.515625 14.984375 16.5 
Q 14.984375 11.71875 18.140625 8.90625 
Q 21.296875 6.109375 26.703125 6.109375 
Q 34.1875 6.109375 38.703125 11.40625 
Q 43.21875 16.703125 43.21875 25.484375 
L 43.21875 27.484375 
z
M 52.203125 31.203125 
L 52.203125 0 
L 43.21875 0 
L 43.21875 8.296875 
Q 40.140625 3.328125 35.546875 0.953125 
Q 30.953125 -1.421875 24.3125 -1.421875 
Q 15.921875 -1.421875 10.953125 3.296875 
Q 6 8.015625 6 15.921875 
Q 6 25.140625 12.171875 29.828125 
Q 18.359375 34.515625 30.609375 34.515625 
L 43.21875 34.515625 
L 43.21875 35.40625 
Q 43.21875 41.609375 39.140625 45 
Q 35.0625 48.390625 27.6875 48.390625 
Q 23 48.390625 18.546875 47.265625 
Q 14.109375 46.140625 10.015625 43.890625 
L 10.015625 52.203125 
Q 14.9375 54.109375 19.578125 55.046875 
Q 24.21875 56 28.609375 56 
Q 40.484375 56 46.34375 49.84375 
Q 52.203125 43.703125 52.203125 31.203125 
z
" id="DejaVuSans-97"/>
      <path d="M 44.28125 53.078125 
L 44.28125 44.578125 
Q 40.484375 46.53125 36.375 47.5 
Q 32.28125 48.484375 27.875 48.484375 
Q 21.1875 48.484375 17.84375 46.4375 
Q 14.5 44.390625 14.5 40.28125 
Q 14.5 37.15625 16.890625 35.375 
Q 19.28125 33.59375 26.515625 31.984375 
L 29.59375 31.296875 
Q 39.15625 29.25 43.1875 25.515625 
Q 47.21875 21.78125 47.21875 15.09375 
Q 47.21875 7.46875 41.1875 3.015625 
Q 35.15625 -1.421875 24.609375 -1.421875 
Q 20.21875 -1.421875 15.453125 -0.5625 
Q 10.6875 0.296875 5.421875 2 
L 5.421875 11.28125 
Q 10.40625 8.6875 15.234375 7.390625 
Q 20.0625 6.109375 24.8125 6.109375 
Q 31.15625 6.109375 34.5625 8.28125 
Q 37.984375 10.453125 37.984375 14.40625 
Q 37.984375 18.0625 35.515625 20.015625 
Q 33.0625 21.96875 24.703125 23.78125 
L 21.578125 24.515625 
Q 13.234375 26.265625 9.515625 29.90625 
Q 5.8125 33.546875 5.8125 39.890625 
Q 5.8125 47.609375 11.28125 51.796875 
Q 16.75 56 26.8125 56 
Q 31.78125 56 36.171875 55.265625 
Q 40.578125 54.546875 44.28125 53.078125 
z
" id="DejaVuSans-115"/>
      <path d="M 56.203125 29.59375 
L 56.203125 25.203125 
L 14.890625 25.203125 
Q 15.484375 15.921875 20.484375 11.0625 
Q 25.484375 6.203125 34.421875 6.203125 
Q 39.59375 6.203125 44.453125 7.46875 
Q 49.3125 8.734375 54.109375 11.28125 
L 54.109375 2.78125 
Q 49.265625 0.734375 44.1875 -0.34375 
Q 39.109375 -1.421875 33.890625 -1.421875 
Q 20.796875 -1.421875 13.15625 6.1875 
Q 5.515625 13.8125 5.515625 26.8125 
Q 5.515625 40.234375 12.765625 48.109375 
Q 20.015625 56 32.328125 56 
Q 43.359375 56 49.78125 48.890625 
Q 56.203125 41.796875 56.203125 29.59375 
z
M 47.21875 32.234375 
Q 47.125 39.59375 43.09375 43.984375 
Q 39.0625 48.390625 32.421875 48.390625 
Q 24.90625 48.390625 20.390625 44.140625 
Q 15.875 39.890625 15.1875 32.171875 
z
" id="DejaVuSans-101"/>
     </defs>
     <g transform="translate(463.16 59.237813)scale(0.14 -0.14)">
      <use xlink:href="#DejaVuSans-98"/>
      <use x="63.476562" xlink:href="#DejaVuSans-97"/>
      <use x="124.755859" xlink:href="#DejaVuSans-115"/>
      <use x="176.855469" xlink:href="#DejaVuSans-101"/>
     </g>
    </g>
    <g id="patch_6">
     <path d="M 423.96 79.787188 
L 451.96 79.787188 
L 451.96 69.987188 
L 423.96 69.987188 
z
" style="fill:#36a2eb;opacity:0.5;stroke:#36a2eb;stroke-linejoin:miter;"/>
    </g>
    <g id="text_2">
     <!-- mid -->
     <defs>
      <path d="M 52 44.1875 
Q 55.375 50.25 60.0625 53.125 
Q 64.75 56 71.09375 56 
Q 79.640625 56 84.28125 50.015625 
Q 88.921875 44.046875 88.921875 33.015625 
L 88.921875 0 
L 79.890625 0 
L 79.890625 32.71875 
Q 79.890625 40.578125 77.09375 44.375 
Q 74.3125 48.1875 68.609375 48.1875 
Q 61.625 48.1875 57.5625 43.546875 
Q 53.515625 38.921875 53.515625 30.90625 
L 53.515625 0 
L 44.484375 0 
L 44.484375 32.71875 
Q 44.484375 40.625 41.703125 44.40625 
Q 38.921875 48.1875 33.109375 48.1875 
Q 26.21875 48.1875 22.15625 43.53125 
Q 18.109375 38.875 18.109375 30.90625 
L 18.109375 0 
L 9.078125 0 
L 9.078125 54.6875 
L 18.109375 54.6875 
L 18.109375 46.1875 
Q 21.1875 51.21875 25.484375 53.609375 
Q 29.78125 56 35.6875 56 
Q 41.65625 56 45.828125 52.96875 
Q 50 49.953125 52 44.1875 
z
" id="DejaVuSans-109"/>
      <path d="M 9.421875 54.6875 
L 18.40625 54.6875 
L 18.40625 0 
L 9.421875 0 
z
M 9.421875 75.984375 
L 18.40625 75.984375 
L 18.40625 64.59375 
L 9.421875 64.59375 
z
" id="DejaVuSans-105"/>
      <path d="M 45.40625 46.390625 
L 45.40625 75.984375 
L 54.390625 75.984375 
L 54.390625 0 
L 45.40625 0 
L 45.40625 8.203125 
Q 42.578125 3.328125 38.25 0.953125 
Q 33.9375 -1.421875 27.875 -1.421875 
Q 17.96875 -1.421875 11.734375 6.484375 
Q 5.515625 14.40625 5.515625 27.296875 
Q 5.515625 40.1875 11.734375 48.09375 
Q 17.96875 56 27.875 56 
Q 33.9375 56 38.25 53.625 
Q 42.578125 51.265625 45.40625 46.390625 
z
M 14.796875 27.296875 
Q 14.796875 17.390625 18.875 11.75 
Q 22.953125 6.109375 30.078125 6.109375 
Q 37.203125 6.109375 41.296875 11.75 
Q 45.40625 17.390625 45.40625 27.296875 
Q 45.40625 37.203125 41.296875 42.84375 
Q 37.203125 48.484375 30.078125 48.484375 
Q 22.953125 48.484375 18.875 42.84375 
Q 14.796875 37.203125 14.796875 27.296875 
z
" id="DejaVuSans-100"/>
     </defs>
     <g transform="translate(463.16 79.787188)scale(0.14 -0.14)">
      <use xlink:href="#DejaVuSans-109"/>
      <use x="97.412109" xlink:href="#DejaVuSans-105"/>
      <use x="125.195312" xlink:href="#DejaVuSans-100"/>
     </g>
    </g>
    <g id="patch_7">
     <path d="M 423.96 100.336563 
L 451.96 100.336563 
L 451.96 90.536563 
L 423.96 90.536563 
z
" style="fill:#4bc0c0;opacity:0.5;stroke:#4bc0c0;stroke-linejoin:miter;"/>
    </g>
    <g id="text_3">
     <!-- mid_icon -->
     <defs>
      <path d="M 50.984375 -16.609375 
L 50.984375 -23.578125 
L -0.984375 -23.578125 
L -0.984375 -16.609375 
z
" id="DejaVuSans-95"/>
      <path d="M 48.78125 52.59375 
L 48.78125 44.1875 
Q 44.96875 46.296875 41.140625 47.34375 
Q 37.3125 48.390625 33.40625 48.390625 
Q 24.65625 48.390625 19.8125 42.84375 
Q 14.984375 37.3125 14.984375 27.296875 
Q 14.984375 17.28125 19.8125 11.734375 
Q 24.65625 6.203125 33.40625 6.203125 
Q 37.3125 6.203125 41.140625 7.25 
Q 44.96875 8.296875 48.78125 10.40625 
L 48.78125 2.09375 
Q 45.015625 0.34375 40.984375 -0.53125 
Q 36.96875 -1.421875 32.421875 -1.421875 
Q 20.0625 -1.421875 12.78125 6.34375 
Q 5.515625 14.109375 5.515625 27.296875 
Q 5.515625 40.671875 12.859375 48.328125 
Q 20.21875 56 33.015625 56 
Q 37.15625 56 41.109375 55.140625 
Q 45.0625 54.296875 48.78125 52.59375 
z
" id="DejaVuSans-99"/>
      <path d="M 30.609375 48.390625 
Q 23.390625 48.390625 19.1875 42.75 
Q 14.984375 37.109375 14.984375 27.296875 
Q 14.984375 17.484375 19.15625 11.84375 
Q 23.34375 6.203125 30.609375 6.203125 
Q 37.796875 6.203125 41.984375 11.859375 
Q 46.1875 17.53125 46.1875 27.296875 
Q 46.1875 37.015625 41.984375 42.703125 
Q 37.796875 48.390625 30.609375 48.390625 
z
M 30.609375 56 
Q 42.328125 56 49.015625 48.375 
Q 55.71875 40.765625 55.71875 27.296875 
Q 55.71875 13.875 49.015625 6.21875 
Q 42.328125 -1.421875 30.609375 -1.421875 
Q 18.84375 -1.421875 12.171875 6.21875 
Q 5.515625 13.875 5.515625 27.296875 
Q 5.515625 40.765625 12.171875 48.375 
Q 18.84375 56 30.609375 56 
z
" id="DejaVuSans-111"/>
      <path d="M 54.890625 33.015625 
L 54.890625 0 
L 45.90625 0 
L 45.90625 32.71875 
Q 45.90625 40.484375 42.875 44.328125 
Q 39.84375 48.1875 33.796875 48.1875 
Q 26.515625 48.1875 22.3125 43.546875 
Q 18.109375 38.921875 18.109375 30.90625 
L 18.109375 0 
L 9.078125 0 
L 9.078125 54.6875 
L 18.109375 54.6875 
L 18.109375 46.1875 
Q 21.34375 51.125 25.703125 53.5625 
Q 30.078125 56 35.796875 56 
Q 45.21875 56 50.046875 50.171875 
Q 54.890625 44.34375 54.890625 33.015625 
z
" id="DejaVuSans-110"/>
     </defs>
     <g transform="translate(463.16 100.336563)scale(0.14 -0.14)">
      <use xlink:href="#DejaVuSans-109"/>
      <use x="97.412109" xlink:href="#DejaVuSans-105"/>
      <use x="125.195312" xlink:href="#DejaVuSans-100"/>
      <use x="188.671875" xlink:href="#DejaVuSans-95"/>
      <use x="238.671875" xlink:href="#DejaVuSans-105"/>
      <use x="266.455078" xlink:href="#DejaVuSans-99"/>
      <use x="321.435547" xlink:href="#DejaVuSans-111"/>
      <use x="382.617188" xlink:href="#DejaVuSans-110"/>
     </g>
    </g>
   </g>
  </g>
  <g id="axes_2">
   <g id="patch_8">
    <path d="M 36 525.24 
L 538.2 525.24 
L 538.2 402.93 
L 36 402.93 
z
" style="fill:none;"/>
   </g>
   <g id="patch_9">
    <path clip-path="url(#p8660be5e0d)" d="M 194.470097 519.680455 
L 405.533572 519.680455 
L 405.533572 497.442273 
L 194.470097 497.442273 
z
" style="fill:#ff6384;opacity:0.5;"/>
   </g>
   <g id="patch_10">
    <path clip-path="url(#p8660be5e0d)" d="M 167.636578 475.204091 
L 376.721127 475.204091 
L 376.721127 452.965909 
L 167.636578 452.965909 
z
" style="fill:#36a2eb;opacity:0.5;"/>
   </g>
   <g id="patch_11">
    <path clip-path="url(#p8660be5e0d)" d="M 170.46411 430.727727 
L 378.530758 430.727727 
L 378.530758 408.489545 
L 170.46411 408.489545 
z
" style="fill:#4bc0c0;opacity:0.5;"/>
   </g>
   <g id="matplotlib.axis_1">
    <g id="xtick_1">
     <g id="line2d_4">
      <defs>
       <path d="M 0 0 
L 0 3.5 
" id="m68c6f35bdd" style="stroke:#000000;stroke-width:0.8;"/>
      </defs>
      <g>
       <use style="stroke:#000000;stroke-width:0.8;" x="97.512354" xlink:href="#m68c6f35bdd" y="525.24"/>
      </g>
     </g>
     <g id="text_4">
      <!-- 7 -->
      <defs>
       <path d="M 8.203125 72.90625 
L 55.078125 72.90625 
L 55.078125 68.703125 
L 28.609375 0 
L 18.3125 0 
L 43.21875 64.59375 
L 8.203125 64.59375 
z
" id="DejaVuSans-55"/>
      </defs>
      <g transform="translate(93.058604 542.877813)scale(0.14 -0.14)">
       <use xlink:href="#DejaVuSans-55"/>
      </g>
     </g>
    </g>
    <g id="xtick_2">
     <g id="line2d_5">
      <g>
       <use style="stroke:#000000;stroke-width:0.8;" x="174.798415" xlink:href="#m68c6f35bdd" y="525.24"/>
      </g>
     </g>
     <g id="text_5">
      <!-- 8 -->
      <defs>
       <path d="M 31.78125 34.625 
Q 24.75 34.625 20.71875 30.859375 
Q 16.703125 27.09375 16.703125 20.515625 
Q 16.703125 13.921875 20.71875 10.15625 
Q 24.75 6.390625 31.78125 6.390625 
Q 38.8125 6.390625 42.859375 10.171875 
Q 46.921875 13.96875 46.921875 20.515625 
Q 46.921875 27.09375 42.890625 30.859375 
Q 38.875 34.625 31.78125 34.625 
z
M 21.921875 38.8125 
Q 15.578125 40.375 12.03125 44.71875 
Q 8.5 49.078125 8.5 55.328125 
Q 8.5 64.0625 14.71875 69.140625 
Q 20.953125 74.21875 31.78125 74.21875 
Q 42.671875 74.21875 48.875 69.140625 
Q 55.078125 64.0625 55.078125 55.328125 
Q 55.078125 49.078125 51.53125 44.71875 
Q 48 40.375 41.703125 38.8125 
Q 48.828125 37.15625 52.796875 32.3125 
Q 56.78125 27.484375 56.78125 20.515625 
Q 56.78125 9.90625 50.3125 4.234375 
Q 43.84375 -1.421875 31.78125 -1.421875 
Q 19.734375 -1.421875 13.25 4.234375 
Q 6.78125 9.90625 6.78125 20.515625 
Q 6.78125 27.484375 10.78125 32.3125 
Q 14.796875 37.15625 21.921875 38.8125 
z
M 18.3125 54.390625 
Q 18.3125 48.734375 21.84375 45.5625 
Q 25.390625 42.390625 31.78125 42.390625 
Q 38.140625 42.390625 41.71875 45.5625 
Q 45.3125 48.734375 45.3125 54.390625 
Q 45.3125 60.0625 41.71875 63.234375 
Q 38.140625 66.40625 31.78125 66.40625 
Q 25.390625 66.40625 21.84375 63.234375 
Q 18.3125 60.0625 18.3125 54.390625 
z
" id="DejaVuSans-56"/>
      </defs>
      <g transform="translate(170.344665 542.877813)scale(0.14 -0.14)">
       <use xlink:href="#DejaVuSans-56"/>
      </g>
     </g>
    </g>
    <g id="xtick_3">
     <g id="line2d_6">
      <g>
       <use style="stroke:#000000;stroke-width:0.8;" x="252.084477" xlink:href="#m68c6f35bdd" y="525.24"/>
      </g>
     </g>
     <g id="text_6">
      <!-- 9 -->
      <defs>
       <path d="M 10.984375 1.515625 
L 10.984375 10.5 
Q 14.703125 8.734375 18.5 7.8125 
Q 22.3125 6.890625 25.984375 6.890625 
Q 35.75 6.890625 40.890625 13.453125 
Q 46.046875 20.015625 46.78125 33.40625 
Q 43.953125 29.203125 39.59375 26.953125 
Q 35.25 24.703125 29.984375 24.703125 
Q 19.046875 24.703125 12.671875 31.3125 
Q 6.296875 37.9375 6.296875 49.421875 
Q 6.296875 60.640625 12.9375 67.421875 
Q 19.578125 74.21875 30.609375 74.21875 
Q 43.265625 74.21875 49.921875 64.515625 
Q 56.59375 54.828125 56.59375 36.375 
Q 56.59375 19.140625 48.40625 8.859375 
Q 40.234375 -1.421875 26.421875 -1.421875 
Q 22.703125 -1.421875 18.890625 -0.6875 
Q 15.09375 0.046875 10.984375 1.515625 
z
M 30.609375 32.421875 
Q 37.25 32.421875 41.125 36.953125 
Q 45.015625 41.5 45.015625 49.421875 
Q 45.015625 57.28125 41.125 61.84375 
Q 37.25 66.40625 30.609375 66.40625 
Q 23.96875 66.40625 20.09375 61.84375 
Q 16.21875 57.28125 16.21875 49.421875 
Q 16.21875 41.5 20.09375 36.953125 
Q 23.96875 32.421875 30.609375 32.421875 
z
" id="DejaVuSans-57"/>
      </defs>
      <g transform="translate(247.630727 542.877813)scale(0.14 -0.14)">
       <use xlink:href="#DejaVuSans-57"/>
      </g>
     </g>
    </g>
    <g id="xtick_4">
     <g id="line2d_7">
      <g>
       <use style="stroke:#000000;stroke-width:0.8;" x="329.370538" xlink:href="#m68c6f35bdd" y="525.24"/>
      </g>
     </g>
     <g id="text_7">
      <!-- 10 -->
      <defs>
       <path d="M 12.40625 8.296875 
L 28.515625 8.296875 
L 28.515625 63.921875 
L 10.984375 60.40625 
L 10.984375 69.390625 
L 28.421875 72.90625 
L 38.28125 72.90625 
L 38.28125 8.296875 
L 54.390625 8.296875 
L 54.390625 0 
L 12.40625 0 
z
" id="DejaVuSans-49"/>
       <path d="M 31.78125 66.40625 
Q 24.171875 66.40625 20.328125 58.90625 
Q 16.5 51.421875 16.5 36.375 
Q 16.5 21.390625 20.328125 13.890625 
Q 24.171875 6.390625 31.78125 6.390625 
Q 39.453125 6.390625 43.28125 13.890625 
Q 47.125 21.390625 47.125 36.375 
Q 47.125 51.421875 43.28125 58.90625 
Q 39.453125 66.40625 31.78125 66.40625 
z
M 31.78125 74.21875 
Q 44.046875 74.21875 50.515625 64.515625 
Q 56.984375 54.828125 56.984375 36.375 
Q 56.984375 17.96875 50.515625 8.265625 
Q 44.046875 -1.421875 31.78125 -1.421875 
Q 19.53125 -1.421875 13.0625 8.265625 
Q 6.59375 17.96875 6.59375 36.375 
Q 6.59375 54.828125 13.0625 64.515625 
Q 19.53125 74.21875 31.78125 74.21875 
z
" id="DejaVuSans-48"/>
      </defs>
      <g transform="translate(320.463038 542.877813)scale(0.14 -0.14)">
       <use xlink:href="#DejaVuSans-49"/>
       <use x="63.623047" xlink:href="#DejaVuSans-48"/>
      </g>
     </g>
    </g>
    <g id="xtick_5">
     <g id="line2d_8">
      <g>
       <use style="stroke:#000000;stroke-width:0.8;" x="406.656599" xlink:href="#m68c6f35bdd" y="525.24"/>
      </g>
     </g>
     <g id="text_8">
      <!-- 11 -->
      <g transform="translate(397.749099 542.877813)scale(0.14 -0.14)">
       <use xlink:href="#DejaVuSans-49"/>
       <use x="63.623047" xlink:href="#DejaVuSans-49"/>
      </g>
     </g>
    </g>
    <g id="xtick_6">
     <g id="line2d_9">
      <g>
       <use style="stroke:#000000;stroke-width:0.8;" x="483.942661" xlink:href="#m68c6f35bdd" y="525.24"/>
      </g>
     </g>
     <g id="text_9">
      <!-- 12 -->
      <defs>
       <path d="M 19.1875 8.296875 
L 53.609375 8.296875 
L 53.609375 0 
L 7.328125 0 
L 7.328125 8.296875 
Q 12.9375 14.109375 22.625 23.890625 
Q 32.328125 33.6875 34.8125 36.53125 
Q 39.546875 41.84375 41.421875 45.53125 
Q 43.3125 49.21875 43.3125 52.78125 
Q 43.3125 58.59375 39.234375 62.25 
Q 35.15625 65.921875 28.609375 65.921875 
Q 23.96875 65.921875 18.8125 64.3125 
Q 13.671875 62.703125 7.8125 59.421875 
L 7.8125 69.390625 
Q 13.765625 71.78125 18.9375 73 
Q 24.125 74.21875 28.421875 74.21875 
Q 39.75 74.21875 46.484375 68.546875 
Q 53.21875 62.890625 53.21875 53.421875 
Q 53.21875 48.921875 51.53125 44.890625 
Q 49.859375 40.875 45.40625 35.40625 
Q 44.1875 33.984375 37.640625 27.21875 
Q 31.109375 20.453125 19.1875 8.296875 
z
" id="DejaVuSans-50"/>
      </defs>
      <g transform="translate(475.035161 542.877813)scale(0.14 -0.14)">
       <use xlink:href="#DejaVuSans-49"/>
       <use x="63.623047" xlink:href="#DejaVuSans-50"/>
      </g>
     </g>
    </g>
   </g>
   <g id="line2d_10">
    <path clip-path="url(#p8660be5e0d)" d="M 300.001835 525.24 
L 300.001835 402.93 
" style="fill:none;stroke:#ff6384;stroke-dasharray:5.55,2.4;stroke-dashoffset:0;stroke-opacity:0.8;stroke-width:1.5;"/>
   </g>
   <g id="line2d_11">
    <path clip-path="url(#p8660be5e0d)" d="M 272.178853 525.24 
L 272.178853 402.93 
" style="fill:none;stroke:#36a2eb;stroke-dasharray:5.55,2.4;stroke-dashoffset:0;stroke-opacity:0.8;stroke-width:1.5;"/>
   </g>
   <g id="line2d_12">
    <path clip-path="url(#p8660be5e0d)" d="M 274.497434 525.24 
L 274.497434 402.93 
" style="fill:none;stroke:#4bc0c0;stroke-dasharray:5.55,2.4;stroke-dashoffset:0;stroke-opacity:0.8;stroke-width:1.5;"/>
   </g>
   <g id="patch_12">
    <path d="M 36 525.24 
L 538.2 525.24 
" style="fill:none;stroke:#000000;stroke-linecap:square;stroke-linejoin:miter;stroke-width:0.8;"/>
   </g>
  </g>
 </g>
 <defs>
  <clipPath id="pd0ed7bafd8">
   <rect height="366.93" width="502.2" x="36" y="36"/>
  </clipPath>
  <clipPath id="p8660be5e0d">
   <rect height="122.31" width="502.2" x="36" y="402.93"/>
  </clipPath>
 </defs>
</svg>
