<?xml version="1.0" encoding="utf-8" standalone="no"?>
<!DOCTYPE svg PUBLIC "-//W3C//DTD SVG 1.1//EN"
  "http://www.w3.org/Graphics/SVG/1.1/DTD/svg11.dtd">
<!-- Created with matplotlib (https://matplotlib.org/) -->
<svg height="581.789375pt" version="1.1" viewBox="0 0 574.2 581.789375" width="574.2pt" xmlns="http://www.w3.org/2000/svg" xmlns:xlink="http://www.w3.org/1999/xlink">
 <defs>
  <style type="text/css">
*{stroke-linecap:butt;stroke-linejoin:round;}
  </style>
 </defs>
 <g id="figure_1">
  <g id="patch_1">
   <path d="M 0 581.789375 
L 574.2 581.789375 
L 574.2 0 
L 0 0 
z
" style="fill:none;"/>
  </g>
  <g id="axes_1">
   <g id="patch_2">
    <path d="M 36 402.93 
L 538.2 402.93 
L 538.2 36 
L 36 36 
z
" style="fill:none;"/>
   </g>
   <g id="PolyCollection_1">
    <defs>
     <path d="M 119.433938 -195.538011 
L 119.433938 -195.641932 
L 123.00434 -195.681119 
L 126.574742 -195.7338 
L 130.145144 -195.80413 
L 133.715546 -195.89737 
L 137.285948 -196.02012 
L 140.85635 -196.180588 
L 144.426752 -196.388894 
L 147.997154 -196.657393 
L 151.567556 -197.001034 
L 155.137958 -197.437723 
L 158.70836 -197.988703 
L 162.278762 -198.678907 
L 165.849164 -199.537298 
L 169.419566 -200.597139 
L 172.989968 -201.896192 
L 176.56037 -203.476797 
L 180.130772 -205.385816 
L 183.701174 -207.674383 
L 187.271576 -210.397449 
L 190.841978 -213.61308 
L 194.41238 -217.381481 
L 197.982782 -221.763728 
L 201.553184 -226.820204 
L 205.123586 -232.608737 
L 208.693988 -239.182467 
L 212.26439 -246.587471 
L 215.834792 -254.860218 
L 219.405194 -264.024914 
L 222.975596 -274.090841 
L 226.545998 -285.049797 
L 230.1164 -296.873763 
L 233.686802 -309.512917 
L 237.257204 -322.894147 
L 240.827606 -336.920163 
L 244.398008 -351.46934 
L 247.96841 -366.396378 
L 251.538812 -381.53384 
L 255.109214 -396.694589 
L 258.679616 -411.675127 
L 262.250018 -426.259767 
L 265.82042 -440.225533 
L 269.390822 -453.347667 
L 272.961224 -465.405529 
L 276.531626 -476.188713 
L 280.102028 -485.503111 
L 283.67243 -493.176717 
L 287.242832 -499.064897 
L 290.813234 -503.054923 
L 294.383636 -505.069562 
L 297.954038 -505.069562 
L 301.52444 -503.054923 
L 305.094842 -499.064897 
L 308.665244 -493.176717 
L 312.235646 -485.503111 
L 315.806048 -476.188713 
L 319.37645 -465.405529 
L 322.946852 -453.347667 
L 326.517254 -440.225533 
L 330.087656 -426.259767 
L 333.658058 -411.675127 
L 337.22846 -396.694589 
L 340.798862 -381.53384 
L 344.369264 -366.396378 
L 347.939666 -351.46934 
L 351.510068 -336.920163 
L 355.08047 -322.894147 
L 358.650872 -309.512917 
L 362.221274 -296.873763 
L 365.791676 -285.049797 
L 369.362078 -274.090841 
L 372.93248 -264.024914 
L 376.502882 -254.860218 
L 380.073284 -246.587471 
L 383.643686 -239.182467 
L 387.214088 -232.608737 
L 390.78449 -226.820204 
L 394.354892 -221.763728 
L 397.925294 -217.381481 
L 401.495696 -213.61308 
L 405.066098 -210.397449 
L 408.6365 -207.674383 
L 412.206902 -205.385816 
L 415.777304 -203.476797 
L 419.347706 -201.896192 
L 422.918108 -200.597139 
L 426.48851 -199.537298 
L 430.058912 -198.678907 
L 433.629314 -197.988703 
L 437.199716 -197.437723 
L 440.770118 -197.001034 
L 444.34052 -196.657393 
L 447.910922 -196.388894 
L 451.481324 -196.180588 
L 455.051726 -196.02012 
L 458.622128 -195.89737 
L 462.19253 -195.80413 
L 465.762932 -195.7338 
L 469.333334 -195.681119 
L 472.903736 -195.641932 
L 472.903736 -195.538011 
L 472.903736 -195.538011 
L 469.333334 -195.538011 
L 465.762932 -195.538011 
L 462.19253 -195.538011 
L 458.622128 -195.538011 
L 455.051726 -195.538011 
L 451.481324 -195.538011 
L 447.910922 -195.538011 
L 444.34052 -195.538011 
L 440.770118 -195.538011 
L 437.199716 -195.538011 
L 433.629314 -195.538011 
L 430.058912 -195.538011 
L 426.48851 -195.538011 
L 422.918108 -195.538011 
L 419.347706 -195.538011 
L 415.777304 -195.538011 
L 412.206902 -195.538011 
L 408.6365 -195.538011 
L 405.066098 -195.538011 
L 401.495696 -195.538011 
L 397.925294 -195.538011 
L 394.354892 -195.538011 
L 390.78449 -195.538011 
L 387.214088 -195.538011 
L 383.643686 -195.538011 
L 380.073284 -195.538011 
L 376.502882 -195.538011 
L 372.93248 -195.538011 
L 369.362078 -195.538011 
L 365.791676 -195.538011 
L 362.221274 -195.538011 
L 358.650872 -195.538011 
L 355.08047 -195.538011 
L 351.510068 -195.538011 
L 347.939666 -195.538011 
L 344.369264 -195.538011 
L 340.798862 -195.538011 
L 337.22846 -195.538011 
L 333.658058 -195.538011 
L 330.087656 -195.538011 
L 326.517254 -195.538011 
L 322.946852 -195.538011 
L 319.37645 -195.538011 
L 315.806048 -195.538011 
L 312.235646 -195.538011 
L 308.665244 -195.538011 
L 305.094842 -195.538011 
L 301.52444 -195.538011 
L 297.954038 -195.538011 
L 294.383636 -195.538011 
L 290.813234 -195.538011 
L 287.242832 -195.538011 
L 283.67243 -195.538011 
L 280.102028 -195.538011 
L 276.531626 -195.538011 
L 272.961224 -195.538011 
L 269.390822 -195.538011 
L 265.82042 -195.538011 
L 262.250018 -195.538011 
L 258.679616 -195.538011 
L 255.109214 -195.538011 
L 251.538812 -195.538011 
L 247.96841 -195.538011 
L 244.398008 -195.538011 
L 240.827606 -195.538011 
L 237.257204 -195.538011 
L 233.686802 -195.538011 
L 230.1164 -195.538011 
L 226.545998 -195.538011 
L 222.975596 -195.538011 
L 219.405194 -195.538011 
L 215.834792 -195.538011 
L 212.26439 -195.538011 
L 208.693988 -195.538011 
L 205.123586 -195.538011 
L 201.553184 -195.538011 
L 197.982782 -195.538011 
L 194.41238 -195.538011 
L 190.841978 -195.538011 
L 187.271576 -195.538011 
L 183.701174 -195.538011 
L 180.130772 -195.538011 
L 176.56037 -195.538011 
L 172.989968 -195.538011 
L 169.419566 -195.538011 
L 165.849164 -195.538011 
L 162.278762 -195.538011 
L 158.70836 -195.538011 
L 155.137958 -195.538011 
L 151.567556 -195.538011 
L 147.997154 -195.538011 
L 144.426752 -195.538011 
L 140.85635 -195.538011 
L 137.285948 -195.538011 
L 133.715546 -195.538011 
L 130.145144 -195.538011 
L 126.574742 -195.538011 
L 123.00434 -195.538011 
L 119.433938 -195.538011 
z
" id="mc97c8379a3" style="stroke:#ff6384;stroke-opacity:0.5;"/>
    </defs>
    <g clip-path="url(#pa042eeb99f)">
     <use style="fill:#ff6384;fill-opacity:0.5;stroke:#ff6384;stroke-opacity:0.5;" x="0" xlink:href="#mc97c8379a3" y="581.789375"/>
    </g>
   </g>
   <g id="PolyCollection_2">
    <defs>
     <path d="M 111.879437 -195.538011 
L 111.879437 -195.650004 
L 115.192513 -195.692234 
L 118.50559 -195.749007 
L 121.818667 -195.8248 
L 125.131744 -195.925281 
L 128.444821 -196.057565 
L 131.757898 -196.230497 
L 135.070974 -196.454982 
L 138.384051 -196.744335 
L 141.697128 -197.114666 
L 145.010205 -197.585273 
L 148.323282 -198.179047 
L 151.636358 -198.922859 
L 154.949435 -199.847921 
L 158.262512 -200.990079 
L 161.575589 -202.390029 
L 164.888666 -204.093399 
L 168.201742 -206.150691 
L 171.514819 -208.617009 
L 174.827896 -211.551575 
L 178.140973 -215.016962 
L 181.45405 -219.078053 
L 184.767127 -223.800667 
L 188.080203 -229.249878 
L 191.39328 -235.488004 
L 194.706357 -242.572312 
L 198.019434 -250.552459 
L 201.332511 -259.467747 
L 204.645587 -269.344261 
L 207.958664 -280.192004 
L 211.271741 -292.002137 
L 214.584818 -304.744465 
L 217.897895 -318.365297 
L 221.210972 -332.785841 
L 224.524048 -347.901251 
L 227.837125 -363.580456 
L 231.150202 -379.666871 
L 234.463279 -395.980052 
L 237.776356 -412.31833 
L 241.089432 -428.4624 
L 244.402509 -444.179822 
L 247.715586 -459.230303 
L 251.028663 -473.371627 
L 254.34174 -486.366018 
L 257.654817 -497.986726 
L 260.967893 -508.02457 
L 264.28097 -516.294181 
L 267.594047 -522.639693 
L 270.907124 -526.939623 
L 274.220201 -529.110739 
L 277.533277 -529.110739 
L 280.846354 -526.939623 
L 284.159431 -522.639693 
L 287.472508 -516.294181 
L 290.785585 -508.02457 
L 294.098662 -497.986726 
L 297.411738 -486.366018 
L 300.724815 -473.371627 
L 304.037892 -459.230303 
L 307.350969 -444.179822 
L 310.664046 -428.4624 
L 313.977122 -412.31833 
L 317.290199 -395.980052 
L 320.603276 -379.666871 
L 323.916353 -363.580456 
L 327.22943 -347.901251 
L 330.542506 -332.785841 
L 333.855583 -318.365297 
L 337.16866 -304.744465 
L 340.481737 -292.002137 
L 343.794814 -280.192004 
L 347.107891 -269.344261 
L 350.420967 -259.467747 
L 353.734044 -250.552459 
L 357.047121 -242.572312 
L 360.360198 -235.488004 
L 363.673275 -229.249878 
L 366.986351 -223.800667 
L 370.299428 -219.078053 
L 373.612505 -215.016962 
L 376.925582 -211.551575 
L 380.238659 -208.617009 
L 383.551736 -206.150691 
L 386.864812 -204.093399 
L 390.177889 -202.390029 
L 393.490966 -200.990079 
L 396.804043 -199.847921 
L 400.11712 -198.922859 
L 403.430196 -198.179047 
L 406.743273 -197.585273 
L 410.05635 -197.114666 
L 413.369427 -196.744335 
L 416.682504 -196.454982 
L 419.995581 -196.230497 
L 423.308657 -196.057565 
L 426.621734 -195.925281 
L 429.934811 -195.8248 
L 433.247888 -195.749007 
L 436.560965 -195.692234 
L 439.874041 -195.650004 
L 439.874041 -195.538011 
L 439.874041 -195.538011 
L 436.560965 -195.538011 
L 433.247888 -195.538011 
L 429.934811 -195.538011 
L 426.621734 -195.538011 
L 423.308657 -195.538011 
L 419.995581 -195.538011 
L 416.682504 -195.538011 
L 413.369427 -195.538011 
L 410.05635 -195.538011 
L 406.743273 -195.538011 
L 403.430196 -195.538011 
L 400.11712 -195.538011 
L 396.804043 -195.538011 
L 393.490966 -195.538011 
L 390.177889 -195.538011 
L 386.864812 -195.538011 
L 383.551736 -195.538011 
L 380.238659 -195.538011 
L 376.925582 -195.538011 
L 373.612505 -195.538011 
L 370.299428 -195.538011 
L 366.986351 -195.538011 
L 363.673275 -195.538011 
L 360.360198 -195.538011 
L 357.047121 -195.538011 
L 353.734044 -195.538011 
L 350.420967 -195.538011 
L 347.107891 -195.538011 
L 343.794814 -195.538011 
L 340.481737 -195.538011 
L 337.16866 -195.538011 
L 333.855583 -195.538011 
L 330.542506 -195.538011 
L 327.22943 -195.538011 
L 323.916353 -195.538011 
L 320.603276 -195.538011 
L 317.290199 -195.538011 
L 313.977122 -195.538011 
L 310.664046 -195.538011 
L 307.350969 -195.538011 
L 304.037892 -195.538011 
L 300.724815 -195.538011 
L 297.411738 -195.538011 
L 294.098662 -195.538011 
L 290.785585 -195.538011 
L 287.472508 -195.538011 
L 284.159431 -195.538011 
L 280.846354 -195.538011 
L 277.533277 -195.538011 
L 274.220201 -195.538011 
L 270.907124 -195.538011 
L 267.594047 -195.538011 
L 264.28097 -195.538011 
L 260.967893 -195.538011 
L 257.654817 -195.538011 
L 254.34174 -195.538011 
L 251.028663 -195.538011 
L 247.715586 -195.538011 
L 244.402509 -195.538011 
L 241.089432 -195.538011 
L 237.776356 -195.538011 
L 234.463279 -195.538011 
L 231.150202 -195.538011 
L 227.837125 -195.538011 
L 224.524048 -195.538011 
L 221.210972 -195.538011 
L 217.897895 -195.538011 
L 214.584818 -195.538011 
L 211.271741 -195.538011 
L 207.958664 -195.538011 
L 204.645587 -195.538011 
L 201.332511 -195.538011 
L 198.019434 -195.538011 
L 194.706357 -195.538011 
L 191.39328 -195.538011 
L 188.080203 -195.538011 
L 184.767127 -195.538011 
L 181.45405 -195.538011 
L 178.140973 -195.538011 
L 174.827896 -195.538011 
L 171.514819 -195.538011 
L 168.201742 -195.538011 
L 164.888666 -195.538011 
L 161.575589 -195.538011 
L 158.262512 -195.538011 
L 154.949435 -195.538011 
L 151.636358 -195.538011 
L 148.323282 -195.538011 
L 145.010205 -195.538011 
L 141.697128 -195.538011 
L 138.384051 -195.538011 
L 135.070974 -195.538011 
L 131.757898 -195.538011 
L 128.444821 -195.538011 
L 125.131744 -195.538011 
L 121.818667 -195.538011 
L 118.50559 -195.538011 
L 115.192513 -195.538011 
L 111.879437 -195.538011 
z
" id="m3e5fc832f3" style="stroke:#36a2eb;stroke-opacity:0.5;"/>
    </defs>
    <g clip-path="url(#pa042eeb99f)">
     <use style="fill:#36a2eb;fill-opacity:0.5;stroke:#36a2eb;stroke-opacity:0.5;" x="0" xlink:href="#m3e5fc832f3" y="581.789375"/>
    </g>
   </g>
   <g id="PolyCollection_3">
    <defs>
     <path d="M 58.827273 -195.538011 
L 58.827273 -195.61847 
L 63.438843 -195.648809 
L 68.050413 -195.689596 
L 72.661983 -195.744048 
L 77.273554 -195.816237 
L 81.885124 -195.911273 
L 86.496694 -196.035512 
L 91.108264 -196.196788 
L 95.719835 -196.404667 
L 100.331405 -196.670723 
L 104.942975 -197.008819 
L 109.554545 -197.435403 
L 114.166116 -197.969778 
L 118.777686 -198.634367 
L 123.389256 -199.454924 
L 128.000826 -200.460686 
L 132.612397 -201.684433 
L 137.223967 -203.162447 
L 141.835537 -204.934317 
L 146.447107 -207.042588 
L 151.058678 -209.532217 
L 155.670248 -212.449814 
L 160.281818 -215.842668 
L 164.893388 -219.757528 
L 169.504959 -224.239167 
L 174.116529 -229.328725 
L 178.728099 -235.061879 
L 183.339669 -241.466863 
L 187.95124 -248.562417 
L 192.56281 -256.355729 
L 197.17438 -264.840449 
L 201.78595 -273.994882 
L 206.397521 -283.780456 
L 211.009091 -294.140565 
L 215.620661 -304.999884 
L 220.232231 -316.264249 
L 224.843802 -327.821165 
L 229.455372 -339.540996 
L 234.066942 -351.278856 
L 238.678512 -362.877193 
L 243.290083 -374.169014 
L 247.901653 -384.981687 
L 252.513223 -395.141196 
L 257.124793 -404.476719 
L 261.736364 -412.82535 
L 266.347934 -420.036808 
L 270.959504 -425.977921 
L 275.571074 -430.536708 
L 280.182645 -433.625894 
L 284.794215 -435.185682 
L 289.405785 -435.185682 
L 294.017355 -433.625894 
L 298.628926 -430.536708 
L 303.240496 -425.977921 
L 307.852066 -420.036808 
L 312.463636 -412.82535 
L 317.075207 -404.476719 
L 321.686777 -395.141196 
L 326.298347 -384.981687 
L 330.909917 -374.169014 
L 335.521488 -362.877193 
L 340.133058 -351.278856 
L 344.744628 -339.540996 
L 349.356198 -327.821165 
L 353.967769 -316.264249 
L 358.579339 -304.999884 
L 363.190909 -294.140565 
L 367.802479 -283.780456 
L 372.41405 -273.994882 
L 377.02562 -264.840449 
L 381.63719 -256.355729 
L 386.24876 -248.562417 
L 390.860331 -241.466863 
L 395.471901 -235.061879 
L 400.083471 -229.328725 
L 404.695041 -224.239167 
L 409.306612 -219.757528 
L 413.918182 -215.842668 
L 418.529752 -212.449814 
L 423.141322 -209.532217 
L 427.752893 -207.042588 
L 432.364463 -204.934317 
L 436.976033 -203.162447 
L 441.587603 -201.684433 
L 446.199174 -200.460686 
L 450.810744 -199.454924 
L 455.422314 -198.634367 
L 460.033884 -197.969778 
L 464.645455 -197.435403 
L 469.257025 -197.008819 
L 473.868595 -196.670723 
L 478.480165 -196.404667 
L 483.091736 -196.196788 
L 487.703306 -196.035512 
L 492.314876 -195.911273 
L 496.926446 -195.816237 
L 501.538017 -195.744048 
L 506.149587 -195.689596 
L 510.761157 -195.648809 
L 515.372727 -195.61847 
L 515.372727 -195.538011 
L 515.372727 -195.538011 
L 510.761157 -195.538011 
L 506.149587 -195.538011 
L 501.538017 -195.538011 
L 496.926446 -195.538011 
L 492.314876 -195.538011 
L 487.703306 -195.538011 
L 483.091736 -195.538011 
L 478.480165 -195.538011 
L 473.868595 -195.538011 
L 469.257025 -195.538011 
L 464.645455 -195.538011 
L 460.033884 -195.538011 
L 455.422314 -195.538011 
L 450.810744 -195.538011 
L 446.199174 -195.538011 
L 441.587603 -195.538011 
L 436.976033 -195.538011 
L 432.364463 -195.538011 
L 427.752893 -195.538011 
L 423.141322 -195.538011 
L 418.529752 -195.538011 
L 413.918182 -195.538011 
L 409.306612 -195.538011 
L 404.695041 -195.538011 
L 400.083471 -195.538011 
L 395.471901 -195.538011 
L 390.860331 -195.538011 
L 386.24876 -195.538011 
L 381.63719 -195.538011 
L 377.02562 -195.538011 
L 372.41405 -195.538011 
L 367.802479 -195.538011 
L 363.190909 -195.538011 
L 358.579339 -195.538011 
L 353.967769 -195.538011 
L 349.356198 -195.538011 
L 344.744628 -195.538011 
L 340.133058 -195.538011 
L 335.521488 -195.538011 
L 330.909917 -195.538011 
L 326.298347 -195.538011 
L 321.686777 -195.538011 
L 317.075207 -195.538011 
L 312.463636 -195.538011 
L 307.852066 -195.538011 
L 303.240496 -195.538011 
L 298.628926 -195.538011 
L 294.017355 -195.538011 
L 289.405785 -195.538011 
L 284.794215 -195.538011 
L 280.182645 -195.538011 
L 275.571074 -195.538011 
L 270.959504 -195.538011 
L 266.347934 -195.538011 
L 261.736364 -195.538011 
L 257.124793 -195.538011 
L 252.513223 -195.538011 
L 247.901653 -195.538011 
L 243.290083 -195.538011 
L 238.678512 -195.538011 
L 234.066942 -195.538011 
L 229.455372 -195.538011 
L 224.843802 -195.538011 
L 220.232231 -195.538011 
L 215.620661 -195.538011 
L 211.009091 -195.538011 
L 206.397521 -195.538011 
L 201.78595 -195.538011 
L 197.17438 -195.538011 
L 192.56281 -195.538011 
L 187.95124 -195.538011 
L 183.339669 -195.538011 
L 178.728099 -195.538011 
L 174.116529 -195.538011 
L 169.504959 -195.538011 
L 164.893388 -195.538011 
L 160.281818 -195.538011 
L 155.670248 -195.538011 
L 151.058678 -195.538011 
L 146.447107 -195.538011 
L 141.835537 -195.538011 
L 137.223967 -195.538011 
L 132.612397 -195.538011 
L 128.000826 -195.538011 
L 123.389256 -195.538011 
L 118.777686 -195.538011 
L 114.166116 -195.538011 
L 109.554545 -195.538011 
L 104.942975 -195.538011 
L 100.331405 -195.538011 
L 95.719835 -195.538011 
L 91.108264 -195.538011 
L 86.496694 -195.538011 
L 81.885124 -195.538011 
L 77.273554 -195.538011 
L 72.661983 -195.538011 
L 68.050413 -195.538011 
L 63.438843 -195.538011 
L 58.827273 -195.538011 
z
" id="m12ae6c4da8" style="stroke:#4bc0c0;stroke-opacity:0.5;"/>
    </defs>
    <g clip-path="url(#pa042eeb99f)">
     <use style="fill:#4bc0c0;fill-opacity:0.5;stroke:#4bc0c0;stroke-opacity:0.5;" x="0" xlink:href="#m12ae6c4da8" y="581.789375"/>
    </g>
   </g>
   <g id="line2d_1">
    <path clip-path="url(#pa042eeb99f)" d="M 119.433938 386.147443 
L 123.00434 386.108256 
L 126.574742 386.055575 
L 130.145144 385.985245 
L 133.715546 385.892005 
L 137.285948 385.769255 
L 140.85635 385.608787 
L 144.426752 385.400481 
L 147.997154 385.131982 
L 151.567556 384.788341 
L 155.137958 384.351652 
L 158.70836 383.800672 
L 162.278762 383.110468 
L 165.849164 382.252077 
L 169.419566 381.192236 
L 172.989968 379.893183 
L 176.56037 378.312578 
L 180.130772 376.403559 
L 183.701174 374.114992 
L 187.271576 371.391926 
L 190.841978 368.176295 
L 194.41238 364.407894 
L 197.982782 360.025647 
L 201.553184 354.969171 
L 205.123586 349.180638 
L 208.693988 342.606908 
L 212.26439 335.201904 
L 215.834792 326.929157 
L 219.405194 317.764461 
L 222.975596 307.698534 
L 226.545998 296.739578 
L 230.1164 284.915612 
L 233.686802 272.276458 
L 237.257204 258.895228 
L 240.827606 244.869212 
L 244.398008 230.320035 
L 247.96841 215.392997 
L 251.538812 200.255535 
L 255.109214 185.094786 
L 258.679616 170.114248 
L 262.250018 155.529608 
L 265.82042 141.563842 
L 269.390822 128.441708 
L 272.961224 116.383846 
L 276.531626 105.600662 
L 280.102028 96.286264 
L 283.67243 88.612658 
L 287.242832 82.724478 
L 290.813234 78.734452 
L 294.383636 76.719813 
L 297.954038 76.719813 
L 301.52444 78.734452 
L 305.094842 82.724478 
L 308.665244 88.612658 
L 312.235646 96.286264 
L 315.806048 105.600662 
L 319.37645 116.383846 
L 322.946852 128.441708 
L 326.517254 141.563842 
L 330.087656 155.529608 
L 333.658058 170.114248 
L 337.22846 185.094786 
L 340.798862 200.255535 
L 344.369264 215.392997 
L 347.939666 230.320035 
L 351.510068 244.869212 
L 355.08047 258.895228 
L 358.650872 272.276458 
L 362.221274 284.915612 
L 365.791676 296.739578 
L 369.362078 307.698534 
L 372.93248 317.764461 
L 376.502882 326.929157 
L 380.073284 335.201904 
L 383.643686 342.606908 
L 387.214088 349.180638 
L 390.78449 354.969171 
L 394.354892 360.025647 
L 397.925294 364.407894 
L 401.495696 368.176295 
L 405.066098 371.391926 
L 408.6365 374.114992 
L 412.206902 376.403559 
L 415.777304 378.312578 
L 419.347706 379.893183 
L 422.918108 381.192236 
L 426.48851 382.252077 
L 430.058912 383.110468 
L 433.629314 383.800672 
L 437.199716 384.351652 
L 440.770118 384.788341 
L 444.34052 385.131982 
L 447.910922 385.400481 
L 451.481324 385.608787 
L 455.051726 385.769255 
L 458.622128 385.892005 
L 462.19253 385.985245 
L 465.762932 386.055575 
L 469.333334 386.108256 
L 472.903736 386.147443 
" style="fill:none;stroke:#ff6384;stroke-linecap:square;"/>
   </g>
   <g id="line2d_2">
    <path clip-path="url(#pa042eeb99f)" d="M 111.879437 386.139371 
L 115.192513 386.097141 
L 118.50559 386.040368 
L 121.818667 385.964575 
L 125.131744 385.864094 
L 128.444821 385.73181 
L 131.757898 385.558878 
L 135.070974 385.334393 
L 138.384051 385.04504 
L 141.697128 384.674709 
L 145.010205 384.204102 
L 148.323282 383.610328 
L 151.636358 382.866516 
L 154.949435 381.941454 
L 158.262512 380.799296 
L 161.575589 379.399346 
L 164.888666 377.695976 
L 168.201742 375.638684 
L 171.514819 373.172366 
L 174.827896 370.2378 
L 178.140973 366.772413 
L 181.45405 362.711322 
L 184.767127 357.988708 
L 188.080203 352.539497 
L 191.39328 346.301371 
L 194.706357 339.217063 
L 198.019434 331.236916 
L 201.332511 322.321628 
L 204.645587 312.445114 
L 207.958664 301.597371 
L 211.271741 289.787238 
L 214.584818 277.04491 
L 217.897895 263.424078 
L 221.210972 249.003534 
L 224.524048 233.888124 
L 227.837125 218.208919 
L 231.150202 202.122504 
L 234.463279 185.809323 
L 237.776356 169.471045 
L 241.089432 153.326975 
L 244.402509 137.609553 
L 247.715586 122.559072 
L 251.028663 108.417748 
L 254.34174 95.423357 
L 257.654817 83.802649 
L 260.967893 73.764805 
L 264.28097 65.495194 
L 267.594047 59.149682 
L 270.907124 54.849752 
L 274.220201 52.678636 
L 277.533277 52.678636 
L 280.846354 54.849752 
L 284.159431 59.149682 
L 287.472508 65.495194 
L 290.785585 73.764805 
L 294.098662 83.802649 
L 297.411738 95.423357 
L 300.724815 108.417748 
L 304.037892 122.559072 
L 307.350969 137.609553 
L 310.664046 153.326975 
L 313.977122 169.471045 
L 317.290199 185.809323 
L 320.603276 202.122504 
L 323.916353 218.208919 
L 327.22943 233.888124 
L 330.542506 249.003534 
L 333.855583 263.424078 
L 337.16866 277.04491 
L 340.481737 289.787238 
L 343.794814 301.597371 
L 347.107891 312.445114 
L 350.420967 322.321628 
L 353.734044 331.236916 
L 357.047121 339.217063 
L 360.360198 346.301371 
L 363.673275 352.539497 
L 366.986351 357.988708 
L 370.299428 362.711322 
L 373.612505 366.772413 
L 376.925582 370.2378 
L 380.238659 373.172366 
L 383.551736 375.638684 
L 386.864812 377.695976 
L 390.177889 379.399346 
L 393.490966 380.799296 
L 396.804043 381.941454 
L 400.11712 382.866516 
L 403.430196 383.610328 
L 406.743273 384.204102 
L 410.05635 384.674709 
L 413.369427 385.04504 
L 416.682504 385.334393 
L 419.995581 385.558878 
L 423.308657 385.73181 
L 426.621734 385.864094 
L 429.934811 385.964575 
L 433.247888 386.040368 
L 436.560965 386.097141 
L 439.874041 386.139371 
" style="fill:none;stroke:#36a2eb;stroke-linecap:square;"/>
   </g>
   <g id="line2d_3">
    <path clip-path="url(#pa042eeb99f)" d="M 58.827273 386.170905 
L 63.438843 386.140566 
L 68.050413 386.099779 
L 72.661983 386.045327 
L 77.273554 385.973138 
L 81.885124 385.878102 
L 86.496694 385.753863 
L 91.108264 385.592587 
L 95.719835 385.384708 
L 100.331405 385.118652 
L 104.942975 384.780556 
L 109.554545 384.353972 
L 114.166116 383.819597 
L 118.777686 383.155008 
L 123.389256 382.334451 
L 128.000826 381.328689 
L 132.612397 380.104942 
L 137.223967 378.626928 
L 141.835537 376.855058 
L 146.447107 374.746787 
L 151.058678 372.257158 
L 155.670248 369.339561 
L 160.281818 365.946707 
L 164.893388 362.031847 
L 169.504959 357.550208 
L 174.116529 352.46065 
L 178.728099 346.727496 
L 183.339669 340.322512 
L 187.95124 333.226958 
L 192.56281 325.433646 
L 197.17438 316.948926 
L 201.78595 307.794493 
L 206.397521 298.008919 
L 211.009091 287.64881 
L 215.620661 276.789491 
L 220.232231 265.525126 
L 224.843802 253.96821 
L 229.455372 242.248379 
L 234.066942 230.510519 
L 238.678512 218.912182 
L 243.290083 207.620361 
L 247.901653 196.807688 
L 252.513223 186.648179 
L 257.124793 177.312656 
L 261.736364 168.964025 
L 266.347934 161.752567 
L 270.959504 155.811454 
L 275.571074 151.252667 
L 280.182645 148.163481 
L 284.794215 146.603693 
L 289.405785 146.603693 
L 294.017355 148.163481 
L 298.628926 151.252667 
L 303.240496 155.811454 
L 307.852066 161.752567 
L 312.463636 168.964025 
L 317.075207 177.312656 
L 321.686777 186.648179 
L 326.298347 196.807688 
L 330.909917 207.620361 
L 335.521488 218.912182 
L 340.133058 230.510519 
L 344.744628 242.248379 
L 349.356198 253.96821 
L 353.967769 265.525126 
L 358.579339 276.789491 
L 363.190909 287.64881 
L 367.802479 298.008919 
L 372.41405 307.794493 
L 377.02562 316.948926 
L 381.63719 325.433646 
L 386.24876 333.226958 
L 390.860331 340.322512 
L 395.471901 346.727496 
L 400.083471 352.46065 
L 404.695041 357.550208 
L 409.306612 362.031847 
L 413.918182 365.946707 
L 418.529752 369.339561 
L 423.141322 372.257158 
L 427.752893 374.746787 
L 432.364463 376.855058 
L 436.976033 378.626928 
L 441.587603 380.104942 
L 446.199174 381.328689 
L 450.810744 382.334451 
L 455.422314 383.155008 
L 460.033884 383.819597 
L 464.645455 384.353972 
L 469.257025 384.780556 
L 473.868595 385.118652 
L 478.480165 385.384708 
L 483.091736 385.592587 
L 487.703306 385.753863 
L 492.314876 385.878102 
L 496.926446 385.973138 
L 501.538017 386.045327 
L 506.149587 386.099779 
L 510.761157 386.140566 
L 515.372727 386.170905 
" style="fill:none;stroke:#4bc0c0;stroke-linecap:square;"/>
   </g>
   <g id="patch_3">
    <path d="M 36 402.93 
L 538.2 402.93 
" style="fill:none;stroke:#000000;stroke-linecap:square;stroke-linejoin:miter;stroke-width:0.8;"/>
   </g>
   <g id="legend_1">
    <g id="patch_4">
     <path d="M 421.16 109.2375 
L 528.4 109.2375 
Q 531.2 109.2375 531.2 106.4375 
L 531.2 45.8 
Q 531.2 43 528.4 43 
L 421.16 43 
Q 418.36 43 418.36 45.8 
L 418.36 106.4375 
Q 418.36 109.2375 421.16 109.2375 
z
" style="fill:#ffffff;opacity:0.8;stroke:#cccccc;stroke-linejoin:miter;"/>
    </g>
    <g id="patch_5">
     <path d="M 423.96 59.237813 
L 451.96 59.237813 
L 451.96 49.437813 
L 423.96 49.437813 
z
" style="fill:#ff6384;opacity:0.5;stroke:#ff6384;stroke-linejoin:miter;"/>
    </g>
    <g id="text_1">
     <!-- base -->
     <defs>
      <path d="M 48.6875 27.296875 
Q 48.6875 37.203125 44.609375 42.84375 
Q 40.53125 48.484375 33.40625 48.484375 
Q 26.265625 48.484375 22.1875 42.84375 
Q 18.109375 37.203125 18.109375 27.296875 
Q 18.109375 17.390625 22.1875 11.75 
Q 26.265625 6.109375 33.40625 6.109375 
Q 40.53125 6.109375 44.609375 11.75 
Q 48.6875 17.390625 48.6875 27.296875 
z
M 18.109375 46.390625 
Q 20.953125 51.265625 25.265625 53.625 
Q 29.59375 56 35.59375 56 
Q 45.5625 56 51.78125 48.09375 
Q 58.015625 40.1875 58.015625 27.296875 
Q 58.015625 14.40625 51.78125 6.484375 
Q 45.5625 -1.421875 35.59375 -1.421875 
Q 29.59375 -1.421875 25.265625 0.953125 
Q 20.953125 3.328125 18.109375 8.203125 
L 18.109375 0 
L 9.078125 0 
L 9.078125 75.984375 
L 18.109375 75.984375 
z
" id="DejaVuSans-98"/>
      <path d="M 34.28125 27.484375 
Q 23.390625 27.484375 19.1875 25 
Q 14.984375 22.515625 14.984375 16.5 
Q 14.984375 11.71875 18.140625 8.90625 
Q 21.296875 6.109375 26.703125 6.109375 
Q 34.1875 6.109375 38.703125 11.40625 
Q 43.21875 16.703125 43.21875 25.484375 
L 43.21875 27.484375 
z
M 52.203125 31.203125 
L 52.203125 0 
L 43.21875 0 
L 43.21875 8.296875 
Q 40.140625 3.328125 35.546875 0.953125 
Q 30.953125 -1.421875 24.3125 -1.421875 
Q 15.921875 -1.421875 10.953125 3.296875 
Q 6 8.015625 6 15.921875 
Q 6 25.140625 12.171875 29.828125 
Q 18.359375 34.515625 30.609375 34.515625 
L 43.21875 34.515625 
L 43.21875 35.40625 
Q 43.21875 41.609375 39.140625 45 
Q 35.0625 48.390625 27.6875 48.390625 
Q 23 48.390625 18.546875 47.265625 
Q 14.109375 46.140625 10.015625 43.890625 
L 10.015625 52.203125 
Q 14.9375 54.109375 19.578125 55.046875 
Q 24.21875 56 28.609375 56 
Q 40.484375 56 46.34375 49.84375 
Q 52.203125 43.703125 52.203125 31.203125 
z
" id="DejaVuSans-97"/>
      <path d="M 44.28125 53.078125 
L 44.28125 44.578125 
Q 40.484375 46.53125 36.375 47.5 
Q 32.28125 48.484375 27.875 48.484375 
Q 21.1875 48.484375 17.84375 46.4375 
Q 14.5 44.390625 14.5 40.28125 
Q 14.5 37.15625 16.890625 35.375 
Q 19.28125 33.59375 26.515625 31.984375 
L 29.59375 31.296875 
Q 39.15625 29.25 43.1875 25.515625 
Q 47.21875 21.78125 47.21875 15.09375 
Q 47.21875 7.46875 41.1875 3.015625 
Q 35.15625 -1.421875 24.609375 -1.421875 
Q 20.21875 -1.421875 15.453125 -0.5625 
Q 10.6875 0.296875 5.421875 2 
L 5.421875 11.28125 
Q 10.40625 8.6875 15.234375 7.390625 
Q 20.0625 6.109375 24.8125 6.109375 
Q 31.15625 6.109375 34.5625 8.28125 
Q 37.984375 10.453125 37.984375 14.40625 
Q 37.984375 18.0625 35.515625 20.015625 
Q 33.0625 21.96875 24.703125 23.78125 
L 21.578125 24.515625 
Q 13.234375 26.265625 9.515625 29.90625 
Q 5.8125 33.546875 5.8125 39.890625 
Q 5.8125 47.609375 11.28125 51.796875 
Q 16.75 56 26.8125 56 
Q 31.78125 56 36.171875 55.265625 
Q 40.578125 54.546875 44.28125 53.078125 
z
" id="DejaVuSans-115"/>
      <path d="M 56.203125 29.59375 
L 56.203125 25.203125 
L 14.890625 25.203125 
Q 15.484375 15.921875 20.484375 11.0625 
Q 25.484375 6.203125 34.421875 6.203125 
Q 39.59375 6.203125 44.453125 7.46875 
Q 49.3125 8.734375 54.109375 11.28125 
L 54.109375 2.78125 
Q 49.265625 0.734375 44.1875 -0.34375 
Q 39.109375 -1.421875 33.890625 -1.421875 
Q 20.796875 -1.421875 13.15625 6.1875 
Q 5.515625 13.8125 5.515625 26.8125 
Q 5.515625 40.234375 12.765625 48.109375 
Q 20.015625 56 32.328125 56 
Q 43.359375 56 49.78125 48.890625 
Q 56.203125 41.796875 56.203125 29.59375 
z
M 47.21875 32.234375 
Q 47.125 39.59375 43.09375 43.984375 
Q 39.0625 48.390625 32.421875 48.390625 
Q 24.90625 48.390625 20.390625 44.140625 
Q 15.875 39.890625 15.1875 32.171875 
z
" id="DejaVuSans-101"/>
     </defs>
     <g transform="translate(463.16 59.237813)scale(0.14 -0.14)">
      <use xlink:href="#DejaVuSans-98"/>
      <use x="63.476562" xlink:href="#DejaVuSans-97"/>
      <use x="124.755859" xlink:href="#DejaVuSans-115"/>
      <use x="176.855469" xlink:href="#DejaVuSans-101"/>
     </g>
    </g>
    <g id="patch_6">
     <path d="M 423.96 79.787188 
L 451.96 79.787188 
L 451.96 69.987188 
L 423.96 69.987188 
z
" style="fill:#36a2eb;opacity:0.5;stroke:#36a2eb;stroke-linejoin:miter;"/>
    </g>
    <g id="text_2">
     <!-- mid -->
     <defs>
      <path d="M 52 44.1875 
Q 55.375 50.25 60.0625 53.125 
Q 64.75 56 71.09375 56 
Q 79.640625 56 84.28125 50.015625 
Q 88.921875 44.046875 88.921875 33.015625 
L 88.921875 0 
L 79.890625 0 
L 79.890625 32.71875 
Q 79.890625 40.578125 77.09375 44.375 
Q 74.3125 48.1875 68.609375 48.1875 
Q 61.625 48.1875 57.5625 43.546875 
Q 53.515625 38.921875 53.515625 30.90625 
L 53.515625 0 
L 44.484375 0 
L 44.484375 32.71875 
Q 44.484375 40.625 41.703125 44.40625 
Q 38.921875 48.1875 33.109375 48.1875 
Q 26.21875 48.1875 22.15625 43.53125 
Q 18.109375 38.875 18.109375 30.90625 
L 18.109375 0 
L 9.078125 0 
L 9.078125 54.6875 
L 18.109375 54.6875 
L 18.109375 46.1875 
Q 21.1875 51.21875 25.484375 53.609375 
Q 29.78125 56 35.6875 56 
Q 41.65625 56 45.828125 52.96875 
Q 50 49.953125 52 44.1875 
z
" id="DejaVuSans-109"/>
      <path d="M 9.421875 54.6875 
L 18.40625 54.6875 
L 18.40625 0 
L 9.421875 0 
z
M 9.421875 75.984375 
L 18.40625 75.984375 
L 18.40625 64.59375 
L 9.421875 64.59375 
z
" id="DejaVuSans-105"/>
      <path d="M 45.40625 46.390625 
L 45.40625 75.984375 
L 54.390625 75.984375 
L 54.390625 0 
L 45.40625 0 
L 45.40625 8.203125 
Q 42.578125 3.328125 38.25 0.953125 
Q 33.9375 -1.421875 27.875 -1.421875 
Q 17.96875 -1.421875 11.734375 6.484375 
Q 5.515625 14.40625 5.515625 27.296875 
Q 5.515625 40.1875 11.734375 48.09375 
Q 17.96875 56 27.875 56 
Q 33.9375 56 38.25 53.625 
Q 42.578125 51.265625 45.40625 46.390625 
z
M 14.796875 27.296875 
Q 14.796875 17.390625 18.875 11.75 
Q 22.953125 6.109375 30.078125 6.109375 
Q 37.203125 6.109375 41.296875 11.75 
Q 45.40625 17.390625 45.40625 27.296875 
Q 45.40625 37.203125 41.296875 42.84375 
Q 37.203125 48.484375 30.078125 48.484375 
Q 22.953125 48.484375 18.875 42.84375 
Q 14.796875 37.203125 14.796875 27.296875 
z
" id="DejaVuSans-100"/>
     </defs>
     <g transform="translate(463.16 79.787188)scale(0.14 -0.14)">
      <use xlink:href="#DejaVuSans-109"/>
      <use x="97.412109" xlink:href="#DejaVuSans-105"/>
      <use x="125.195312" xlink:href="#DejaVuSans-100"/>
     </g>
    </g>
    <g id="patch_7">
     <path d="M 423.96 100.336563 
L 451.96 100.336563 
L 451.96 90.536563 
L 423.96 90.536563 
z
" style="fill:#4bc0c0;opacity:0.5;stroke:#4bc0c0;stroke-linejoin:miter;"/>
    </g>
    <g id="text_3">
     <!-- mid_icon -->
     <defs>
      <path d="M 50.984375 -16.609375 
L 50.984375 -23.578125 
L -0.984375 -23.578125 
L -0.984375 -16.609375 
z
" id="DejaVuSans-95"/>
      <path d="M 48.78125 52.59375 
L 48.78125 44.1875 
Q 44.96875 46.296875 41.140625 47.34375 
Q 37.3125 48.390625 33.40625 48.390625 
Q 24.65625 48.390625 19.8125 42.84375 
Q 14.984375 37.3125 14.984375 27.296875 
Q 14.984375 17.28125 19.8125 11.734375 
Q 24.65625 6.203125 33.40625 6.203125 
Q 37.3125 6.203125 41.140625 7.25 
Q 44.96875 8.296875 48.78125 10.40625 
L 48.78125 2.09375 
Q 45.015625 0.34375 40.984375 -0.53125 
Q 36.96875 -1.421875 32.421875 -1.421875 
Q 20.0625 -1.421875 12.78125 6.34375 
Q 5.515625 14.109375 5.515625 27.296875 
Q 5.515625 40.671875 12.859375 48.328125 
Q 20.21875 56 33.015625 56 
Q 37.15625 56 41.109375 55.140625 
Q 45.0625 54.296875 48.78125 52.59375 
z
" id="DejaVuSans-99"/>
      <path d="M 30.609375 48.390625 
Q 23.390625 48.390625 19.1875 42.75 
Q 14.984375 37.109375 14.984375 27.296875 
Q 14.984375 17.484375 19.15625 11.84375 
Q 23.34375 6.203125 30.609375 6.203125 
Q 37.796875 6.203125 41.984375 11.859375 
Q 46.1875 17.53125 46.1875 27.296875 
Q 46.1875 37.015625 41.984375 42.703125 
Q 37.796875 48.390625 30.609375 48.390625 
z
M 30.609375 56 
Q 42.328125 56 49.015625 48.375 
Q 55.71875 40.765625 55.71875 27.296875 
Q 55.71875 13.875 49.015625 6.21875 
Q 42.328125 -1.421875 30.609375 -1.421875 
Q 18.84375 -1.421875 12.171875 6.21875 
Q 5.515625 13.875 5.515625 27.296875 
Q 5.515625 40.765625 12.171875 48.375 
Q 18.84375 56 30.609375 56 
z
" id="DejaVuSans-111"/>
      <path d="M 54.890625 33.015625 
L 54.890625 0 
L 45.90625 0 
L 45.90625 32.71875 
Q 45.90625 40.484375 42.875 44.328125 
Q 39.84375 48.1875 33.796875 48.1875 
Q 26.515625 48.1875 22.3125 43.546875 
Q 18.109375 38.921875 18.109375 30.90625 
L 18.109375 0 
L 9.078125 0 
L 9.078125 54.6875 
L 18.109375 54.6875 
L 18.109375 46.1875 
Q 21.34375 51.125 25.703125 53.5625 
Q 30.078125 56 35.796875 56 
Q 45.21875 56 50.046875 50.171875 
Q 54.890625 44.34375 54.890625 33.015625 
z
" id="DejaVuSans-110"/>
     </defs>
     <g transform="translate(463.16 100.336563)scale(0.14 -0.14)">
      <use xlink:href="#DejaVuSans-109"/>
      <use x="97.412109" xlink:href="#DejaVuSans-105"/>
      <use x="125.195312" xlink:href="#DejaVuSans-100"/>
      <use x="188.671875" xlink:href="#DejaVuSans-95"/>
      <use x="238.671875" xlink:href="#DejaVuSans-105"/>
      <use x="266.455078" xlink:href="#DejaVuSans-99"/>
      <use x="321.435547" xlink:href="#DejaVuSans-111"/>
      <use x="382.617188" xlink:href="#DejaVuSans-110"/>
     </g>
    </g>
   </g>
  </g>
  <g id="axes_2">
   <g id="patch_8">
    <path d="M 36 525.24 
L 538.2 525.24 
L 538.2 402.93 
L 36 402.93 
z
" style="fill:none;"/>
   </g>
   <g id="patch_9">
    <path clip-path="url(#p5e2fd5e35c)" d="M 209.568736 519.680455 
L 382.768937 519.680455 
L 382.768937 497.442273 
L 209.568736 497.442273 
z
" style="fill:#ff6384;opacity:0.5;"/>
   </g>
   <g id="patch_10">
    <path clip-path="url(#p5e2fd5e35c)" d="M 195.518061 475.204091 
L 356.235417 475.204091 
L 356.235417 452.965909 
L 195.518061 452.965909 
z
" style="fill:#36a2eb;opacity:0.5;"/>
   </g>
   <g id="patch_11">
    <path clip-path="url(#p5e2fd5e35c)" d="M 175.246364 430.727727 
L 398.953636 430.727727 
L 398.953636 408.489545 
L 175.246364 408.489545 
z
" style="fill:#4bc0c0;opacity:0.5;"/>
   </g>
   <g id="matplotlib.axis_1">
    <g id="xtick_1">
     <g id="line2d_4">
      <defs>
       <path d="M 0 0 
L 0 3.5 
" id="mccd462e917" style="stroke:#000000;stroke-width:0.8;"/>
      </defs>
      <g>
       <use style="stroke:#000000;stroke-width:0.8;" x="117.480528" xlink:href="#mccd462e917" y="525.24"/>
      </g>
     </g>
     <g id="text_4">
      <!-- 4 -->
      <defs>
       <path d="M 37.796875 64.3125 
L 12.890625 25.390625 
L 37.796875 25.390625 
z
M 35.203125 72.90625 
L 47.609375 72.90625 
L 47.609375 25.390625 
L 58.015625 25.390625 
L 58.015625 17.1875 
L 47.609375 17.1875 
L 47.609375 0 
L 37.796875 0 
L 37.796875 17.1875 
L 4.890625 17.1875 
L 4.890625 26.703125 
z
" id="DejaVuSans-52"/>
      </defs>
      <g transform="translate(113.026778 542.877813)scale(0.14 -0.14)">
       <use xlink:href="#DejaVuSans-52"/>
      </g>
     </g>
    </g>
    <g id="xtick_2">
     <g id="line2d_5">
      <g>
       <use style="stroke:#000000;stroke-width:0.8;" x="209.549937" xlink:href="#mccd462e917" y="525.24"/>
      </g>
     </g>
     <g id="text_5">
      <!-- 5 -->
      <defs>
       <path d="M 10.796875 72.90625 
L 49.515625 72.90625 
L 49.515625 64.59375 
L 19.828125 64.59375 
L 19.828125 46.734375 
Q 21.96875 47.46875 24.109375 47.828125 
Q 26.265625 48.1875 28.421875 48.1875 
Q 40.625 48.1875 47.75 41.5 
Q 54.890625 34.8125 54.890625 23.390625 
Q 54.890625 11.625 47.5625 5.09375 
Q 40.234375 -1.421875 26.90625 -1.421875 
Q 22.3125 -1.421875 17.546875 -0.640625 
Q 12.796875 0.140625 7.71875 1.703125 
L 7.71875 11.625 
Q 12.109375 9.234375 16.796875 8.0625 
Q 21.484375 6.890625 26.703125 6.890625 
Q 35.15625 6.890625 40.078125 11.328125 
Q 45.015625 15.765625 45.015625 23.390625 
Q 45.015625 31 40.078125 35.4375 
Q 35.15625 39.890625 26.703125 39.890625 
Q 22.75 39.890625 18.8125 39.015625 
Q 14.890625 38.140625 10.796875 36.28125 
z
" id="DejaVuSans-53"/>
      </defs>
      <g transform="translate(205.096187 542.877813)scale(0.14 -0.14)">
       <use xlink:href="#DejaVuSans-53"/>
      </g>
     </g>
    </g>
    <g id="xtick_3">
     <g id="line2d_6">
      <g>
       <use style="stroke:#000000;stroke-width:0.8;" x="301.619346" xlink:href="#mccd462e917" y="525.24"/>
      </g>
     </g>
     <g id="text_6">
      <!-- 6 -->
      <defs>
       <path d="M 33.015625 40.375 
Q 26.375 40.375 22.484375 35.828125 
Q 18.609375 31.296875 18.609375 23.390625 
Q 18.609375 15.53125 22.484375 10.953125 
Q 26.375 6.390625 33.015625 6.390625 
Q 39.65625 6.390625 43.53125 10.953125 
Q 47.40625 15.53125 47.40625 23.390625 
Q 47.40625 31.296875 43.53125 35.828125 
Q 39.65625 40.375 33.015625 40.375 
z
M 52.59375 71.296875 
L 52.59375 62.3125 
Q 48.875 64.0625 45.09375 64.984375 
Q 41.3125 65.921875 37.59375 65.921875 
Q 27.828125 65.921875 22.671875 59.328125 
Q 17.53125 52.734375 16.796875 39.40625 
Q 19.671875 43.65625 24.015625 45.921875 
Q 28.375 48.1875 33.59375 48.1875 
Q 44.578125 48.1875 50.953125 41.515625 
Q 57.328125 34.859375 57.328125 23.390625 
Q 57.328125 12.15625 50.6875 5.359375 
Q 44.046875 -1.421875 33.015625 -1.421875 
Q 20.359375 -1.421875 13.671875 8.265625 
Q 6.984375 17.96875 6.984375 36.375 
Q 6.984375 53.65625 15.1875 63.9375 
Q 23.390625 74.21875 37.203125 74.21875 
Q 40.921875 74.21875 44.703125 73.484375 
Q 48.484375 72.75 52.59375 71.296875 
z
" id="DejaVuSans-54"/>
      </defs>
      <g transform="translate(297.165596 542.877813)scale(0.14 -0.14)">
       <use xlink:href="#DejaVuSans-54"/>
      </g>
     </g>
    </g>
    <g id="xtick_4">
     <g id="line2d_7">
      <g>
       <use style="stroke:#000000;stroke-width:0.8;" x="393.688755" xlink:href="#mccd462e917" y="525.24"/>
      </g>
     </g>
     <g id="text_7">
      <!-- 7 -->
      <defs>
       <path d="M 8.203125 72.90625 
L 55.078125 72.90625 
L 55.078125 68.703125 
L 28.609375 0 
L 18.3125 0 
L 43.21875 64.59375 
L 8.203125 64.59375 
z
" id="DejaVuSans-55"/>
      </defs>
      <g transform="translate(389.235005 542.877813)scale(0.14 -0.14)">
       <use xlink:href="#DejaVuSans-55"/>
      </g>
     </g>
    </g>
    <g id="xtick_5">
     <g id="line2d_8">
      <g>
       <use style="stroke:#000000;stroke-width:0.8;" x="485.758164" xlink:href="#mccd462e917" y="525.24"/>
      </g>
     </g>
     <g id="text_8">
      <!-- 8 -->
      <defs>
       <path d="M 31.78125 34.625 
Q 24.75 34.625 20.71875 30.859375 
Q 16.703125 27.09375 16.703125 20.515625 
Q 16.703125 13.921875 20.71875 10.15625 
Q 24.75 6.390625 31.78125 6.390625 
Q 38.8125 6.390625 42.859375 10.171875 
Q 46.921875 13.96875 46.921875 20.515625 
Q 46.921875 27.09375 42.890625 30.859375 
Q 38.875 34.625 31.78125 34.625 
z
M 21.921875 38.8125 
Q 15.578125 40.375 12.03125 44.71875 
Q 8.5 49.078125 8.5 55.328125 
Q 8.5 64.0625 14.71875 69.140625 
Q 20.953125 74.21875 31.78125 74.21875 
Q 42.671875 74.21875 48.875 69.140625 
Q 55.078125 64.0625 55.078125 55.328125 
Q 55.078125 49.078125 51.53125 44.71875 
Q 48 40.375 41.703125 38.8125 
Q 48.828125 37.15625 52.796875 32.3125 
Q 56.78125 27.484375 56.78125 20.515625 
Q 56.78125 9.90625 50.3125 4.234375 
Q 43.84375 -1.421875 31.78125 -1.421875 
Q 19.734375 -1.421875 13.25 4.234375 
Q 6.78125 9.90625 6.78125 20.515625 
Q 6.78125 27.484375 10.78125 32.3125 
Q 14.796875 37.15625 21.921875 38.8125 
z
M 18.3125 54.390625 
Q 18.3125 48.734375 21.84375 45.5625 
Q 25.390625 42.390625 31.78125 42.390625 
Q 38.140625 42.390625 41.71875 45.5625 
Q 45.3125 48.734375 45.3125 54.390625 
Q 45.3125 60.0625 41.71875 63.234375 
Q 38.140625 66.40625 31.78125 66.40625 
Q 25.390625 66.40625 21.84375 63.234375 
Q 18.3125 60.0625 18.3125 54.390625 
z
" id="DejaVuSans-56"/>
      </defs>
      <g transform="translate(481.304414 542.877813)scale(0.14 -0.14)">
       <use xlink:href="#DejaVuSans-56"/>
      </g>
     </g>
    </g>
   </g>
   <g id="line2d_9">
    <path clip-path="url(#p5e2fd5e35c)" d="M 296.168837 525.24 
L 296.168837 402.93 
" style="fill:none;stroke:#ff6384;stroke-dasharray:5.55,2.4;stroke-dashoffset:0;stroke-opacity:0.8;stroke-width:1.5;"/>
   </g>
   <g id="line2d_10">
    <path clip-path="url(#p5e2fd5e35c)" d="M 275.876739 525.24 
L 275.876739 402.93 
" style="fill:none;stroke:#36a2eb;stroke-dasharray:5.55,2.4;stroke-dashoffset:0;stroke-opacity:0.8;stroke-width:1.5;"/>
   </g>
   <g id="line2d_11">
    <path clip-path="url(#p5e2fd5e35c)" d="M 287.1 525.24 
L 287.1 402.93 
" style="fill:none;stroke:#4bc0c0;stroke-dasharray:5.55,2.4;stroke-dashoffset:0;stroke-opacity:0.8;stroke-width:1.5;"/>
   </g>
   <g id="patch_12">
    <path d="M 36 525.24 
L 538.2 525.24 
" style="fill:none;stroke:#000000;stroke-linecap:square;stroke-linejoin:miter;stroke-width:0.8;"/>
   </g>
  </g>
 </g>
 <defs>
  <clipPath id="pa042eeb99f">
   <rect height="366.93" width="502.2" x="36" y="36"/>
  </clipPath>
  <clipPath id="p5e2fd5e35c">
   <rect height="122.31" width="502.2" x="36" y="402.93"/>
  </clipPath>
 </defs>
</svg>
