<?xml version="1.0" encoding="utf-8" standalone="no"?>
<!DOCTYPE svg PUBLIC "-//W3C//DTD SVG 1.1//EN"
  "http://www.w3.org/Graphics/SVG/1.1/DTD/svg11.dtd">
<!-- Created with matplotlib (https://matplotlib.org/) -->
<svg height="581.789375pt" version="1.1" viewBox="0 0 574.2 581.789375" width="574.2pt" xmlns="http://www.w3.org/2000/svg" xmlns:xlink="http://www.w3.org/1999/xlink">
 <defs>
  <style type="text/css">
*{stroke-linecap:butt;stroke-linejoin:round;}
  </style>
 </defs>
 <g id="figure_1">
  <g id="patch_1">
   <path d="M 0 581.789375 
L 574.2 581.789375 
L 574.2 0 
L 0 0 
z
" style="fill:none;"/>
  </g>
  <g id="axes_1">
   <g id="patch_2">
    <path d="M 36 402.93 
L 538.2 402.93 
L 538.2 36 
L 36 36 
z
" style="fill:none;"/>
   </g>
   <g id="PolyCollection_1">
    <defs>
     <path d="M 85.897972 -195.538011 
L 85.897972 -195.648973 
L 90.2361 -195.690815 
L 94.574229 -195.747065 
L 98.912358 -195.82216 
L 103.250487 -195.921717 
L 107.588616 -196.052783 
L 111.926745 -196.224124 
L 116.264873 -196.446542 
L 120.603002 -196.733233 
L 124.941131 -197.100156 
L 129.27926 -197.566431 
L 133.617389 -198.15474 
L 137.955518 -198.891707 
L 142.293647 -199.808256 
L 146.631775 -200.939902 
L 150.969904 -202.326967 
L 155.308033 -204.014662 
L 159.646162 -206.053019 
L 163.984291 -208.49664 
L 168.32242 -211.404197 
L 172.660548 -214.837692 
L 176.998677 -218.861407 
L 181.336806 -223.540558 
L 185.674935 -228.939618 
L 190.013064 -235.120333 
L 194.351193 -242.139442 
L 198.689322 -250.046145 
L 203.02745 -258.879383 
L 207.365579 -268.665 
L 211.703708 -279.412908 
L 216.041837 -291.11435 
L 220.379966 -303.739406 
L 224.718095 -317.234882 
L 229.056223 -331.52271 
L 233.394352 -346.499008 
L 237.732481 -362.033912 
L 242.07061 -377.972279 
L 246.408739 -394.135326 
L 250.746868 -410.323238 
L 255.084997 -426.318729 
L 259.423125 -441.891499 
L 263.761254 -456.803466 
L 268.099383 -470.814643 
L 272.437512 -483.689443 
L 276.775641 -495.203203 
L 281.11377 -505.148665 
L 285.451898 -513.342169 
L 289.790027 -519.629282 
L 294.128156 -523.889638 
L 298.466285 -526.040772 
L 302.804414 -526.040772 
L 307.142543 -523.889638 
L 311.480672 -519.629282 
L 315.8188 -513.342169 
L 320.156929 -505.148665 
L 324.495058 -495.203203 
L 328.833187 -483.689443 
L 333.171316 -470.814643 
L 337.509445 -456.803466 
L 341.847573 -441.891499 
L 346.185702 -426.318729 
L 350.523831 -410.323238 
L 354.86196 -394.135326 
L 359.200089 -377.972279 
L 363.538218 -362.033912 
L 367.876347 -346.499008 
L 372.214475 -331.52271 
L 376.552604 -317.234882 
L 380.890733 -303.739406 
L 385.228862 -291.11435 
L 389.566991 -279.412908 
L 393.90512 -268.665 
L 398.243248 -258.879383 
L 402.581377 -250.046145 
L 406.919506 -242.139442 
L 411.257635 -235.120333 
L 415.595764 -228.939618 
L 419.933893 -223.540558 
L 424.272022 -218.861407 
L 428.61015 -214.837692 
L 432.948279 -211.404197 
L 437.286408 -208.49664 
L 441.624537 -206.053019 
L 445.962666 -204.014662 
L 450.300795 -202.326967 
L 454.638923 -200.939902 
L 458.977052 -199.808256 
L 463.315181 -198.891707 
L 467.65331 -198.15474 
L 471.991439 -197.566431 
L 476.329568 -197.100156 
L 480.667697 -196.733233 
L 485.005825 -196.446542 
L 489.343954 -196.224124 
L 493.682083 -196.052783 
L 498.020212 -195.921717 
L 502.358341 -195.82216 
L 506.69647 -195.747065 
L 511.034598 -195.690815 
L 515.372727 -195.648973 
L 515.372727 -195.538011 
L 515.372727 -195.538011 
L 511.034598 -195.538011 
L 506.69647 -195.538011 
L 502.358341 -195.538011 
L 498.020212 -195.538011 
L 493.682083 -195.538011 
L 489.343954 -195.538011 
L 485.005825 -195.538011 
L 480.667697 -195.538011 
L 476.329568 -195.538011 
L 471.991439 -195.538011 
L 467.65331 -195.538011 
L 463.315181 -195.538011 
L 458.977052 -195.538011 
L 454.638923 -195.538011 
L 450.300795 -195.538011 
L 445.962666 -195.538011 
L 441.624537 -195.538011 
L 437.286408 -195.538011 
L 432.948279 -195.538011 
L 428.61015 -195.538011 
L 424.272022 -195.538011 
L 419.933893 -195.538011 
L 415.595764 -195.538011 
L 411.257635 -195.538011 
L 406.919506 -195.538011 
L 402.581377 -195.538011 
L 398.243248 -195.538011 
L 393.90512 -195.538011 
L 389.566991 -195.538011 
L 385.228862 -195.538011 
L 380.890733 -195.538011 
L 376.552604 -195.538011 
L 372.214475 -195.538011 
L 367.876347 -195.538011 
L 363.538218 -195.538011 
L 359.200089 -195.538011 
L 354.86196 -195.538011 
L 350.523831 -195.538011 
L 346.185702 -195.538011 
L 341.847573 -195.538011 
L 337.509445 -195.538011 
L 333.171316 -195.538011 
L 328.833187 -195.538011 
L 324.495058 -195.538011 
L 320.156929 -195.538011 
L 315.8188 -195.538011 
L 311.480672 -195.538011 
L 307.142543 -195.538011 
L 302.804414 -195.538011 
L 298.466285 -195.538011 
L 294.128156 -195.538011 
L 289.790027 -195.538011 
L 285.451898 -195.538011 
L 281.11377 -195.538011 
L 276.775641 -195.538011 
L 272.437512 -195.538011 
L 268.099383 -195.538011 
L 263.761254 -195.538011 
L 259.423125 -195.538011 
L 255.084997 -195.538011 
L 250.746868 -195.538011 
L 246.408739 -195.538011 
L 242.07061 -195.538011 
L 237.732481 -195.538011 
L 233.394352 -195.538011 
L 229.056223 -195.538011 
L 224.718095 -195.538011 
L 220.379966 -195.538011 
L 216.041837 -195.538011 
L 211.703708 -195.538011 
L 207.365579 -195.538011 
L 203.02745 -195.538011 
L 198.689322 -195.538011 
L 194.351193 -195.538011 
L 190.013064 -195.538011 
L 185.674935 -195.538011 
L 181.336806 -195.538011 
L 176.998677 -195.538011 
L 172.660548 -195.538011 
L 168.32242 -195.538011 
L 163.984291 -195.538011 
L 159.646162 -195.538011 
L 155.308033 -195.538011 
L 150.969904 -195.538011 
L 146.631775 -195.538011 
L 142.293647 -195.538011 
L 137.955518 -195.538011 
L 133.617389 -195.538011 
L 129.27926 -195.538011 
L 124.941131 -195.538011 
L 120.603002 -195.538011 
L 116.264873 -195.538011 
L 111.926745 -195.538011 
L 107.588616 -195.538011 
L 103.250487 -195.538011 
L 98.912358 -195.538011 
L 94.574229 -195.538011 
L 90.2361 -195.538011 
L 85.897972 -195.538011 
z
" id="m691b5ec338" style="stroke:#ff6384;stroke-opacity:0.5;"/>
    </defs>
    <g clip-path="url(#pa6e940793b)">
     <use style="fill:#ff6384;fill-opacity:0.5;stroke:#ff6384;stroke-opacity:0.5;" x="0" xlink:href="#m691b5ec338" y="581.789375"/>
    </g>
   </g>
   <g id="PolyCollection_2">
    <defs>
     <path d="M 84.34638 -195.538011 
L 84.34638 -195.64859 
L 88.699554 -195.690287 
L 93.052728 -195.746343 
L 97.405902 -195.821178 
L 101.759076 -195.920391 
L 106.11225 -196.051004 
L 110.465424 -196.221752 
L 114.818597 -196.443402 
L 119.171771 -196.729102 
L 123.524945 -197.094757 
L 127.878119 -197.559421 
L 132.231293 -198.145697 
L 136.584467 -198.880117 
L 140.937641 -199.793497 
L 145.290815 -200.921233 
L 149.643989 -202.303504 
L 153.997163 -203.985365 
L 158.350337 -206.016678 
L 162.70351 -208.451853 
L 167.056684 -211.349362 
L 171.409858 -214.77099 
L 175.763032 -218.780799 
L 180.116206 -223.443778 
L 184.46938 -228.824178 
L 188.822554 -234.983532 
L 193.175728 -241.978382 
L 197.528902 -249.857759 
L 201.882076 -258.660468 
L 206.23525 -268.412265 
L 210.588423 -279.123027 
L 214.941597 -290.784027 
L 219.294771 -303.36545 
L 223.647945 -316.814284 
L 228.001119 -331.052731 
L 232.354293 -345.977269 
L 236.707467 -361.458484 
L 241.060641 -377.341766 
L 245.413815 -393.448951 
L 249.766989 -409.580915 
L 254.120163 -425.521125 
L 258.473336 -441.040073 
L 262.82651 -455.900503 
L 267.179684 -469.863256 
L 271.532858 -482.693559 
L 275.886032 -494.167526 
L 280.239206 -504.078616 
L 284.59238 -512.243802 
L 288.945554 -518.509185 
L 293.298728 -522.754817 
L 297.651902 -524.898517 
L 302.005076 -524.898517 
L 306.358249 -522.754817 
L 310.711423 -518.509185 
L 315.064597 -512.243802 
L 319.417771 -504.078616 
L 323.770945 -494.167526 
L 328.124119 -482.693559 
L 332.477293 -469.863256 
L 336.830467 -455.900503 
L 341.183641 -441.040073 
L 345.536815 -425.521125 
L 349.889989 -409.580915 
L 354.243162 -393.448951 
L 358.596336 -377.341766 
L 362.94951 -361.458484 
L 367.302684 -345.977269 
L 371.655858 -331.052731 
L 376.009032 -316.814284 
L 380.362206 -303.36545 
L 384.71538 -290.784027 
L 389.068554 -279.123027 
L 393.421728 -268.412265 
L 397.774902 -258.660468 
L 402.128075 -249.857759 
L 406.481249 -241.978382 
L 410.834423 -234.983532 
L 415.187597 -228.824178 
L 419.540771 -223.443778 
L 423.893945 -218.780799 
L 428.247119 -214.77099 
L 432.600293 -211.349362 
L 436.953467 -208.451853 
L 441.306641 -206.016678 
L 445.659815 -203.985365 
L 450.012988 -202.303504 
L 454.366162 -200.921233 
L 458.719336 -199.793497 
L 463.07251 -198.880117 
L 467.425684 -198.145697 
L 471.778858 -197.559421 
L 476.132032 -197.094757 
L 480.485206 -196.729102 
L 484.83838 -196.443402 
L 489.191554 -196.221752 
L 493.544728 -196.051004 
L 497.897901 -195.920391 
L 502.251075 -195.821178 
L 506.604249 -195.746343 
L 510.957423 -195.690287 
L 515.310597 -195.64859 
L 515.310597 -195.538011 
L 515.310597 -195.538011 
L 510.957423 -195.538011 
L 506.604249 -195.538011 
L 502.251075 -195.538011 
L 497.897901 -195.538011 
L 493.544728 -195.538011 
L 489.191554 -195.538011 
L 484.83838 -195.538011 
L 480.485206 -195.538011 
L 476.132032 -195.538011 
L 471.778858 -195.538011 
L 467.425684 -195.538011 
L 463.07251 -195.538011 
L 458.719336 -195.538011 
L 454.366162 -195.538011 
L 450.012988 -195.538011 
L 445.659815 -195.538011 
L 441.306641 -195.538011 
L 436.953467 -195.538011 
L 432.600293 -195.538011 
L 428.247119 -195.538011 
L 423.893945 -195.538011 
L 419.540771 -195.538011 
L 415.187597 -195.538011 
L 410.834423 -195.538011 
L 406.481249 -195.538011 
L 402.128075 -195.538011 
L 397.774902 -195.538011 
L 393.421728 -195.538011 
L 389.068554 -195.538011 
L 384.71538 -195.538011 
L 380.362206 -195.538011 
L 376.009032 -195.538011 
L 371.655858 -195.538011 
L 367.302684 -195.538011 
L 362.94951 -195.538011 
L 358.596336 -195.538011 
L 354.243162 -195.538011 
L 349.889989 -195.538011 
L 345.536815 -195.538011 
L 341.183641 -195.538011 
L 336.830467 -195.538011 
L 332.477293 -195.538011 
L 328.124119 -195.538011 
L 323.770945 -195.538011 
L 319.417771 -195.538011 
L 315.064597 -195.538011 
L 310.711423 -195.538011 
L 306.358249 -195.538011 
L 302.005076 -195.538011 
L 297.651902 -195.538011 
L 293.298728 -195.538011 
L 288.945554 -195.538011 
L 284.59238 -195.538011 
L 280.239206 -195.538011 
L 275.886032 -195.538011 
L 271.532858 -195.538011 
L 267.179684 -195.538011 
L 262.82651 -195.538011 
L 258.473336 -195.538011 
L 254.120163 -195.538011 
L 249.766989 -195.538011 
L 245.413815 -195.538011 
L 241.060641 -195.538011 
L 236.707467 -195.538011 
L 232.354293 -195.538011 
L 228.001119 -195.538011 
L 223.647945 -195.538011 
L 219.294771 -195.538011 
L 214.941597 -195.538011 
L 210.588423 -195.538011 
L 206.23525 -195.538011 
L 201.882076 -195.538011 
L 197.528902 -195.538011 
L 193.175728 -195.538011 
L 188.822554 -195.538011 
L 184.46938 -195.538011 
L 180.116206 -195.538011 
L 175.763032 -195.538011 
L 171.409858 -195.538011 
L 167.056684 -195.538011 
L 162.70351 -195.538011 
L 158.350337 -195.538011 
L 153.997163 -195.538011 
L 149.643989 -195.538011 
L 145.290815 -195.538011 
L 140.937641 -195.538011 
L 136.584467 -195.538011 
L 132.231293 -195.538011 
L 127.878119 -195.538011 
L 123.524945 -195.538011 
L 119.171771 -195.538011 
L 114.818597 -195.538011 
L 110.465424 -195.538011 
L 106.11225 -195.538011 
L 101.759076 -195.538011 
L 97.405902 -195.538011 
L 93.052728 -195.538011 
L 88.699554 -195.538011 
L 84.34638 -195.538011 
z
" id="m416f9b24c4" style="stroke:#36a2eb;stroke-opacity:0.5;"/>
    </defs>
    <g clip-path="url(#pa6e940793b)">
     <use style="fill:#36a2eb;fill-opacity:0.5;stroke:#36a2eb;stroke-opacity:0.5;" x="0" xlink:href="#m416f9b24c4" y="581.789375"/>
    </g>
   </g>
   <g id="PolyCollection_3">
    <defs>
     <path d="M 58.827273 -195.538011 
L 58.827273 -195.650004 
L 63.125477 -195.692234 
L 67.42368 -195.749007 
L 71.721884 -195.8248 
L 76.020088 -195.925281 
L 80.318292 -196.057565 
L 84.616495 -196.230497 
L 88.914699 -196.454982 
L 93.212903 -196.744335 
L 97.511107 -197.114666 
L 101.809311 -197.585273 
L 106.107514 -198.179047 
L 110.405718 -198.922859 
L 114.703922 -199.847921 
L 119.002126 -200.990079 
L 123.30033 -202.390029 
L 127.598533 -204.093399 
L 131.896737 -206.150691 
L 136.194941 -208.617009 
L 140.493145 -211.551575 
L 144.791348 -215.016962 
L 149.089552 -219.078053 
L 153.387756 -223.800667 
L 157.68596 -229.249878 
L 161.984164 -235.488004 
L 166.282367 -242.572312 
L 170.580571 -250.552459 
L 174.878775 -259.467747 
L 179.176979 -269.344261 
L 183.475183 -280.192004 
L 187.773386 -292.002137 
L 192.07159 -304.744465 
L 196.369794 -318.365297 
L 200.667998 -332.785841 
L 204.966201 -347.901251 
L 209.264405 -363.580456 
L 213.562609 -379.666871 
L 217.860813 -395.980052 
L 222.159017 -412.31833 
L 226.45722 -428.4624 
L 230.755424 -444.179822 
L 235.053628 -459.230303 
L 239.351832 -473.371627 
L 243.650036 -486.366018 
L 247.948239 -497.986726 
L 252.246443 -508.02457 
L 256.544647 -516.294181 
L 260.842851 -522.639693 
L 265.141054 -526.939623 
L 269.439258 -529.110739 
L 273.737462 -529.110739 
L 278.035666 -526.939623 
L 282.33387 -522.639693 
L 286.632073 -516.294181 
L 290.930277 -508.02457 
L 295.228481 -497.986726 
L 299.526685 -486.366018 
L 303.824889 -473.371627 
L 308.123092 -459.230303 
L 312.421296 -444.179822 
L 316.7195 -428.4624 
L 321.017704 -412.31833 
L 325.315908 -395.980052 
L 329.614111 -379.666871 
L 333.912315 -363.580456 
L 338.210519 -347.901251 
L 342.508723 -332.785841 
L 346.806926 -318.365297 
L 351.10513 -304.744465 
L 355.403334 -292.002137 
L 359.701538 -280.192004 
L 363.999742 -269.344261 
L 368.297945 -259.467747 
L 372.596149 -250.552459 
L 376.894353 -242.572312 
L 381.192557 -235.488004 
L 385.490761 -229.249878 
L 389.788964 -223.800667 
L 394.087168 -219.078053 
L 398.385372 -215.016962 
L 402.683576 -211.551575 
L 406.981779 -208.617009 
L 411.279983 -206.150691 
L 415.578187 -204.093399 
L 419.876391 -202.390029 
L 424.174595 -200.990079 
L 428.472798 -199.847921 
L 432.771002 -198.922859 
L 437.069206 -198.179047 
L 441.36741 -197.585273 
L 445.665614 -197.114666 
L 449.963817 -196.744335 
L 454.262021 -196.454982 
L 458.560225 -196.230497 
L 462.858429 -196.057565 
L 467.156632 -195.925281 
L 471.454836 -195.8248 
L 475.75304 -195.749007 
L 480.051244 -195.692234 
L 484.349448 -195.650004 
L 484.349448 -195.538011 
L 484.349448 -195.538011 
L 480.051244 -195.538011 
L 475.75304 -195.538011 
L 471.454836 -195.538011 
L 467.156632 -195.538011 
L 462.858429 -195.538011 
L 458.560225 -195.538011 
L 454.262021 -195.538011 
L 449.963817 -195.538011 
L 445.665614 -195.538011 
L 441.36741 -195.538011 
L 437.069206 -195.538011 
L 432.771002 -195.538011 
L 428.472798 -195.538011 
L 424.174595 -195.538011 
L 419.876391 -195.538011 
L 415.578187 -195.538011 
L 411.279983 -195.538011 
L 406.981779 -195.538011 
L 402.683576 -195.538011 
L 398.385372 -195.538011 
L 394.087168 -195.538011 
L 389.788964 -195.538011 
L 385.490761 -195.538011 
L 381.192557 -195.538011 
L 376.894353 -195.538011 
L 372.596149 -195.538011 
L 368.297945 -195.538011 
L 363.999742 -195.538011 
L 359.701538 -195.538011 
L 355.403334 -195.538011 
L 351.10513 -195.538011 
L 346.806926 -195.538011 
L 342.508723 -195.538011 
L 338.210519 -195.538011 
L 333.912315 -195.538011 
L 329.614111 -195.538011 
L 325.315908 -195.538011 
L 321.017704 -195.538011 
L 316.7195 -195.538011 
L 312.421296 -195.538011 
L 308.123092 -195.538011 
L 303.824889 -195.538011 
L 299.526685 -195.538011 
L 295.228481 -195.538011 
L 290.930277 -195.538011 
L 286.632073 -195.538011 
L 282.33387 -195.538011 
L 278.035666 -195.538011 
L 273.737462 -195.538011 
L 269.439258 -195.538011 
L 265.141054 -195.538011 
L 260.842851 -195.538011 
L 256.544647 -195.538011 
L 252.246443 -195.538011 
L 247.948239 -195.538011 
L 243.650036 -195.538011 
L 239.351832 -195.538011 
L 235.053628 -195.538011 
L 230.755424 -195.538011 
L 226.45722 -195.538011 
L 222.159017 -195.538011 
L 217.860813 -195.538011 
L 213.562609 -195.538011 
L 209.264405 -195.538011 
L 204.966201 -195.538011 
L 200.667998 -195.538011 
L 196.369794 -195.538011 
L 192.07159 -195.538011 
L 187.773386 -195.538011 
L 183.475183 -195.538011 
L 179.176979 -195.538011 
L 174.878775 -195.538011 
L 170.580571 -195.538011 
L 166.282367 -195.538011 
L 161.984164 -195.538011 
L 157.68596 -195.538011 
L 153.387756 -195.538011 
L 149.089552 -195.538011 
L 144.791348 -195.538011 
L 140.493145 -195.538011 
L 136.194941 -195.538011 
L 131.896737 -195.538011 
L 127.598533 -195.538011 
L 123.30033 -195.538011 
L 119.002126 -195.538011 
L 114.703922 -195.538011 
L 110.405718 -195.538011 
L 106.107514 -195.538011 
L 101.809311 -195.538011 
L 97.511107 -195.538011 
L 93.212903 -195.538011 
L 88.914699 -195.538011 
L 84.616495 -195.538011 
L 80.318292 -195.538011 
L 76.020088 -195.538011 
L 71.721884 -195.538011 
L 67.42368 -195.538011 
L 63.125477 -195.538011 
L 58.827273 -195.538011 
z
" id="m53e1e80bda" style="stroke:#4bc0c0;stroke-opacity:0.5;"/>
    </defs>
    <g clip-path="url(#pa6e940793b)">
     <use style="fill:#4bc0c0;fill-opacity:0.5;stroke:#4bc0c0;stroke-opacity:0.5;" x="0" xlink:href="#m53e1e80bda" y="581.789375"/>
    </g>
   </g>
   <g id="line2d_1">
    <path clip-path="url(#pa6e940793b)" d="M 85.897972 386.140402 
L 90.2361 386.09856 
L 94.574229 386.04231 
L 98.912358 385.967215 
L 103.250487 385.867658 
L 107.588616 385.736592 
L 111.926745 385.565251 
L 116.264873 385.342833 
L 120.603002 385.056142 
L 124.941131 384.689219 
L 129.27926 384.222944 
L 133.617389 383.634635 
L 137.955518 382.897668 
L 142.293647 381.981119 
L 146.631775 380.849473 
L 150.969904 379.462408 
L 155.308033 377.774713 
L 159.646162 375.736356 
L 163.984291 373.292735 
L 168.32242 370.385178 
L 172.660548 366.951683 
L 176.998677 362.927968 
L 181.336806 358.248817 
L 185.674935 352.849757 
L 190.013064 346.669042 
L 194.351193 339.649933 
L 198.689322 331.74323 
L 203.02745 322.909992 
L 207.365579 313.124375 
L 211.703708 302.376467 
L 216.041837 290.675025 
L 220.379966 278.049969 
L 224.718095 264.554493 
L 229.056223 250.266665 
L 233.394352 235.290367 
L 237.732481 219.755463 
L 242.07061 203.817096 
L 246.408739 187.654049 
L 250.746868 171.466137 
L 255.084997 155.470646 
L 259.423125 139.897876 
L 263.761254 124.985909 
L 268.099383 110.974732 
L 272.437512 98.099932 
L 276.775641 86.586172 
L 281.11377 76.64071 
L 285.451898 68.447206 
L 289.790027 62.160093 
L 294.128156 57.899737 
L 298.466285 55.748603 
L 302.804414 55.748603 
L 307.142543 57.899737 
L 311.480672 62.160093 
L 315.8188 68.447206 
L 320.156929 76.64071 
L 324.495058 86.586172 
L 328.833187 98.099932 
L 333.171316 110.974732 
L 337.509445 124.985909 
L 341.847573 139.897876 
L 346.185702 155.470646 
L 350.523831 171.466137 
L 354.86196 187.654049 
L 359.200089 203.817096 
L 363.538218 219.755463 
L 367.876347 235.290367 
L 372.214475 250.266665 
L 376.552604 264.554493 
L 380.890733 278.049969 
L 385.228862 290.675025 
L 389.566991 302.376467 
L 393.90512 313.124375 
L 398.243248 322.909992 
L 402.581377 331.74323 
L 406.919506 339.649933 
L 411.257635 346.669042 
L 415.595764 352.849757 
L 419.933893 358.248817 
L 424.272022 362.927968 
L 428.61015 366.951683 
L 432.948279 370.385178 
L 437.286408 373.292735 
L 441.624537 375.736356 
L 445.962666 377.774713 
L 450.300795 379.462408 
L 454.638923 380.849473 
L 458.977052 381.981119 
L 463.315181 382.897668 
L 467.65331 383.634635 
L 471.991439 384.222944 
L 476.329568 384.689219 
L 480.667697 385.056142 
L 485.005825 385.342833 
L 489.343954 385.565251 
L 493.682083 385.736592 
L 498.020212 385.867658 
L 502.358341 385.967215 
L 506.69647 386.04231 
L 511.034598 386.09856 
L 515.372727 386.140402 
" style="fill:none;stroke:#ff6384;stroke-linecap:square;"/>
   </g>
   <g id="line2d_2">
    <path clip-path="url(#pa6e940793b)" d="M 84.34638 386.140785 
L 88.699554 386.099088 
L 93.052728 386.043032 
L 97.405902 385.968197 
L 101.759076 385.868984 
L 106.11225 385.738371 
L 110.465424 385.567623 
L 114.818597 385.345973 
L 119.171771 385.060273 
L 123.524945 384.694618 
L 127.878119 384.229954 
L 132.231293 383.643678 
L 136.584467 382.909258 
L 140.937641 381.995878 
L 145.290815 380.868142 
L 149.643989 379.485871 
L 153.997163 377.80401 
L 158.350337 375.772697 
L 162.70351 373.337522 
L 167.056684 370.440013 
L 171.409858 367.018385 
L 175.763032 363.008576 
L 180.116206 358.345597 
L 184.46938 352.965197 
L 188.822554 346.805843 
L 193.175728 339.810993 
L 197.528902 331.931616 
L 201.882076 323.128907 
L 206.23525 313.37711 
L 210.588423 302.666348 
L 214.941597 291.005348 
L 219.294771 278.423925 
L 223.647945 264.975091 
L 228.001119 250.736644 
L 232.354293 235.812106 
L 236.707467 220.330891 
L 241.060641 204.447609 
L 245.413815 188.340424 
L 249.766989 172.20846 
L 254.120163 156.26825 
L 258.473336 140.749302 
L 262.82651 125.888872 
L 267.179684 111.926119 
L 271.532858 99.095816 
L 275.886032 87.621849 
L 280.239206 77.710759 
L 284.59238 69.545573 
L 288.945554 63.28019 
L 293.298728 59.034558 
L 297.651902 56.890858 
L 302.005076 56.890858 
L 306.358249 59.034558 
L 310.711423 63.28019 
L 315.064597 69.545573 
L 319.417771 77.710759 
L 323.770945 87.621849 
L 328.124119 99.095816 
L 332.477293 111.926119 
L 336.830467 125.888872 
L 341.183641 140.749302 
L 345.536815 156.26825 
L 349.889989 172.20846 
L 354.243162 188.340424 
L 358.596336 204.447609 
L 362.94951 220.330891 
L 367.302684 235.812106 
L 371.655858 250.736644 
L 376.009032 264.975091 
L 380.362206 278.423925 
L 384.71538 291.005348 
L 389.068554 302.666348 
L 393.421728 313.37711 
L 397.774902 323.128907 
L 402.128075 331.931616 
L 406.481249 339.810993 
L 410.834423 346.805843 
L 415.187597 352.965197 
L 419.540771 358.345597 
L 423.893945 363.008576 
L 428.247119 367.018385 
L 432.600293 370.440013 
L 436.953467 373.337522 
L 441.306641 375.772697 
L 445.659815 377.80401 
L 450.012988 379.485871 
L 454.366162 380.868142 
L 458.719336 381.995878 
L 463.07251 382.909258 
L 467.425684 383.643678 
L 471.778858 384.229954 
L 476.132032 384.694618 
L 480.485206 385.060273 
L 484.83838 385.345973 
L 489.191554 385.567623 
L 493.544728 385.738371 
L 497.897901 385.868984 
L 502.251075 385.968197 
L 506.604249 386.043032 
L 510.957423 386.099088 
L 515.310597 386.140785 
" style="fill:none;stroke:#36a2eb;stroke-linecap:square;"/>
   </g>
   <g id="line2d_3">
    <path clip-path="url(#pa6e940793b)" d="M 58.827273 386.139371 
L 63.125477 386.097141 
L 67.42368 386.040368 
L 71.721884 385.964575 
L 76.020088 385.864094 
L 80.318292 385.73181 
L 84.616495 385.558878 
L 88.914699 385.334393 
L 93.212903 385.04504 
L 97.511107 384.674709 
L 101.809311 384.204102 
L 106.107514 383.610328 
L 110.405718 382.866516 
L 114.703922 381.941454 
L 119.002126 380.799296 
L 123.30033 379.399346 
L 127.598533 377.695976 
L 131.896737 375.638684 
L 136.194941 373.172366 
L 140.493145 370.2378 
L 144.791348 366.772413 
L 149.089552 362.711322 
L 153.387756 357.988708 
L 157.68596 352.539497 
L 161.984164 346.301371 
L 166.282367 339.217063 
L 170.580571 331.236916 
L 174.878775 322.321628 
L 179.176979 312.445114 
L 183.475183 301.597371 
L 187.773386 289.787238 
L 192.07159 277.04491 
L 196.369794 263.424078 
L 200.667998 249.003534 
L 204.966201 233.888124 
L 209.264405 218.208919 
L 213.562609 202.122504 
L 217.860813 185.809323 
L 222.159017 169.471045 
L 226.45722 153.326975 
L 230.755424 137.609553 
L 235.053628 122.559072 
L 239.351832 108.417748 
L 243.650036 95.423357 
L 247.948239 83.802649 
L 252.246443 73.764805 
L 256.544647 65.495194 
L 260.842851 59.149682 
L 265.141054 54.849752 
L 269.439258 52.678636 
L 273.737462 52.678636 
L 278.035666 54.849752 
L 282.33387 59.149682 
L 286.632073 65.495194 
L 290.930277 73.764805 
L 295.228481 83.802649 
L 299.526685 95.423357 
L 303.824889 108.417748 
L 308.123092 122.559072 
L 312.421296 137.609553 
L 316.7195 153.326975 
L 321.017704 169.471045 
L 325.315908 185.809323 
L 329.614111 202.122504 
L 333.912315 218.208919 
L 338.210519 233.888124 
L 342.508723 249.003534 
L 346.806926 263.424078 
L 351.10513 277.04491 
L 355.403334 289.787238 
L 359.701538 301.597371 
L 363.999742 312.445114 
L 368.297945 322.321628 
L 372.596149 331.236916 
L 376.894353 339.217063 
L 381.192557 346.301371 
L 385.490761 352.539497 
L 389.788964 357.988708 
L 394.087168 362.711322 
L 398.385372 366.772413 
L 402.683576 370.2378 
L 406.981779 373.172366 
L 411.279983 375.638684 
L 415.578187 377.695976 
L 419.876391 379.399346 
L 424.174595 380.799296 
L 428.472798 381.941454 
L 432.771002 382.866516 
L 437.069206 383.610328 
L 441.36741 384.204102 
L 445.665614 384.674709 
L 449.963817 385.04504 
L 454.262021 385.334393 
L 458.560225 385.558878 
L 462.858429 385.73181 
L 467.156632 385.864094 
L 471.454836 385.964575 
L 475.75304 386.040368 
L 480.051244 386.097141 
L 484.349448 386.139371 
" style="fill:none;stroke:#4bc0c0;stroke-linecap:square;"/>
   </g>
   <g id="patch_3">
    <path d="M 36 402.93 
L 538.2 402.93 
" style="fill:none;stroke:#000000;stroke-linecap:square;stroke-linejoin:miter;stroke-width:0.8;"/>
   </g>
   <g id="legend_1">
    <g id="patch_4">
     <path d="M 421.16 109.2375 
L 528.4 109.2375 
Q 531.2 109.2375 531.2 106.4375 
L 531.2 45.8 
Q 531.2 43 528.4 43 
L 421.16 43 
Q 418.36 43 418.36 45.8 
L 418.36 106.4375 
Q 418.36 109.2375 421.16 109.2375 
z
" style="fill:#ffffff;opacity:0.8;stroke:#cccccc;stroke-linejoin:miter;"/>
    </g>
    <g id="patch_5">
     <path d="M 423.96 59.237813 
L 451.96 59.237813 
L 451.96 49.437813 
L 423.96 49.437813 
z
" style="fill:#ff6384;opacity:0.5;stroke:#ff6384;stroke-linejoin:miter;"/>
    </g>
    <g id="text_1">
     <!-- base -->
     <defs>
      <path d="M 48.6875 27.296875 
Q 48.6875 37.203125 44.609375 42.84375 
Q 40.53125 48.484375 33.40625 48.484375 
Q 26.265625 48.484375 22.1875 42.84375 
Q 18.109375 37.203125 18.109375 27.296875 
Q 18.109375 17.390625 22.1875 11.75 
Q 26.265625 6.109375 33.40625 6.109375 
Q 40.53125 6.109375 44.609375 11.75 
Q 48.6875 17.390625 48.6875 27.296875 
z
M 18.109375 46.390625 
Q 20.953125 51.265625 25.265625 53.625 
Q 29.59375 56 35.59375 56 
Q 45.5625 56 51.78125 48.09375 
Q 58.015625 40.1875 58.015625 27.296875 
Q 58.015625 14.40625 51.78125 6.484375 
Q 45.5625 -1.421875 35.59375 -1.421875 
Q 29.59375 -1.421875 25.265625 0.953125 
Q 20.953125 3.328125 18.109375 8.203125 
L 18.109375 0 
L 9.078125 0 
L 9.078125 75.984375 
L 18.109375 75.984375 
z
" id="DejaVuSans-98"/>
      <path d="M 34.28125 27.484375 
Q 23.390625 27.484375 19.1875 25 
Q 14.984375 22.515625 14.984375 16.5 
Q 14.984375 11.71875 18.140625 8.90625 
Q 21.296875 6.109375 26.703125 6.109375 
Q 34.1875 6.109375 38.703125 11.40625 
Q 43.21875 16.703125 43.21875 25.484375 
L 43.21875 27.484375 
z
M 52.203125 31.203125 
L 52.203125 0 
L 43.21875 0 
L 43.21875 8.296875 
Q 40.140625 3.328125 35.546875 0.953125 
Q 30.953125 -1.421875 24.3125 -1.421875 
Q 15.921875 -1.421875 10.953125 3.296875 
Q 6 8.015625 6 15.921875 
Q 6 25.140625 12.171875 29.828125 
Q 18.359375 34.515625 30.609375 34.515625 
L 43.21875 34.515625 
L 43.21875 35.40625 
Q 43.21875 41.609375 39.140625 45 
Q 35.0625 48.390625 27.6875 48.390625 
Q 23 48.390625 18.546875 47.265625 
Q 14.109375 46.140625 10.015625 43.890625 
L 10.015625 52.203125 
Q 14.9375 54.109375 19.578125 55.046875 
Q 24.21875 56 28.609375 56 
Q 40.484375 56 46.34375 49.84375 
Q 52.203125 43.703125 52.203125 31.203125 
z
" id="DejaVuSans-97"/>
      <path d="M 44.28125 53.078125 
L 44.28125 44.578125 
Q 40.484375 46.53125 36.375 47.5 
Q 32.28125 48.484375 27.875 48.484375 
Q 21.1875 48.484375 17.84375 46.4375 
Q 14.5 44.390625 14.5 40.28125 
Q 14.5 37.15625 16.890625 35.375 
Q 19.28125 33.59375 26.515625 31.984375 
L 29.59375 31.296875 
Q 39.15625 29.25 43.1875 25.515625 
Q 47.21875 21.78125 47.21875 15.09375 
Q 47.21875 7.46875 41.1875 3.015625 
Q 35.15625 -1.421875 24.609375 -1.421875 
Q 20.21875 -1.421875 15.453125 -0.5625 
Q 10.6875 0.296875 5.421875 2 
L 5.421875 11.28125 
Q 10.40625 8.6875 15.234375 7.390625 
Q 20.0625 6.109375 24.8125 6.109375 
Q 31.15625 6.109375 34.5625 8.28125 
Q 37.984375 10.453125 37.984375 14.40625 
Q 37.984375 18.0625 35.515625 20.015625 
Q 33.0625 21.96875 24.703125 23.78125 
L 21.578125 24.515625 
Q 13.234375 26.265625 9.515625 29.90625 
Q 5.8125 33.546875 5.8125 39.890625 
Q 5.8125 47.609375 11.28125 51.796875 
Q 16.75 56 26.8125 56 
Q 31.78125 56 36.171875 55.265625 
Q 40.578125 54.546875 44.28125 53.078125 
z
" id="DejaVuSans-115"/>
      <path d="M 56.203125 29.59375 
L 56.203125 25.203125 
L 14.890625 25.203125 
Q 15.484375 15.921875 20.484375 11.0625 
Q 25.484375 6.203125 34.421875 6.203125 
Q 39.59375 6.203125 44.453125 7.46875 
Q 49.3125 8.734375 54.109375 11.28125 
L 54.109375 2.78125 
Q 49.265625 0.734375 44.1875 -0.34375 
Q 39.109375 -1.421875 33.890625 -1.421875 
Q 20.796875 -1.421875 13.15625 6.1875 
Q 5.515625 13.8125 5.515625 26.8125 
Q 5.515625 40.234375 12.765625 48.109375 
Q 20.015625 56 32.328125 56 
Q 43.359375 56 49.78125 48.890625 
Q 56.203125 41.796875 56.203125 29.59375 
z
M 47.21875 32.234375 
Q 47.125 39.59375 43.09375 43.984375 
Q 39.0625 48.390625 32.421875 48.390625 
Q 24.90625 48.390625 20.390625 44.140625 
Q 15.875 39.890625 15.1875 32.171875 
z
" id="DejaVuSans-101"/>
     </defs>
     <g transform="translate(463.16 59.237813)scale(0.14 -0.14)">
      <use xlink:href="#DejaVuSans-98"/>
      <use x="63.476562" xlink:href="#DejaVuSans-97"/>
      <use x="124.755859" xlink:href="#DejaVuSans-115"/>
      <use x="176.855469" xlink:href="#DejaVuSans-101"/>
     </g>
    </g>
    <g id="patch_6">
     <path d="M 423.96 79.787188 
L 451.96 79.787188 
L 451.96 69.987188 
L 423.96 69.987188 
z
" style="fill:#36a2eb;opacity:0.5;stroke:#36a2eb;stroke-linejoin:miter;"/>
    </g>
    <g id="text_2">
     <!-- mid -->
     <defs>
      <path d="M 52 44.1875 
Q 55.375 50.25 60.0625 53.125 
Q 64.75 56 71.09375 56 
Q 79.640625 56 84.28125 50.015625 
Q 88.921875 44.046875 88.921875 33.015625 
L 88.921875 0 
L 79.890625 0 
L 79.890625 32.71875 
Q 79.890625 40.578125 77.09375 44.375 
Q 74.3125 48.1875 68.609375 48.1875 
Q 61.625 48.1875 57.5625 43.546875 
Q 53.515625 38.921875 53.515625 30.90625 
L 53.515625 0 
L 44.484375 0 
L 44.484375 32.71875 
Q 44.484375 40.625 41.703125 44.40625 
Q 38.921875 48.1875 33.109375 48.1875 
Q 26.21875 48.1875 22.15625 43.53125 
Q 18.109375 38.875 18.109375 30.90625 
L 18.109375 0 
L 9.078125 0 
L 9.078125 54.6875 
L 18.109375 54.6875 
L 18.109375 46.1875 
Q 21.1875 51.21875 25.484375 53.609375 
Q 29.78125 56 35.6875 56 
Q 41.65625 56 45.828125 52.96875 
Q 50 49.953125 52 44.1875 
z
" id="DejaVuSans-109"/>
      <path d="M 9.421875 54.6875 
L 18.40625 54.6875 
L 18.40625 0 
L 9.421875 0 
z
M 9.421875 75.984375 
L 18.40625 75.984375 
L 18.40625 64.59375 
L 9.421875 64.59375 
z
" id="DejaVuSans-105"/>
      <path d="M 45.40625 46.390625 
L 45.40625 75.984375 
L 54.390625 75.984375 
L 54.390625 0 
L 45.40625 0 
L 45.40625 8.203125 
Q 42.578125 3.328125 38.25 0.953125 
Q 33.9375 -1.421875 27.875 -1.421875 
Q 17.96875 -1.421875 11.734375 6.484375 
Q 5.515625 14.40625 5.515625 27.296875 
Q 5.515625 40.1875 11.734375 48.09375 
Q 17.96875 56 27.875 56 
Q 33.9375 56 38.25 53.625 
Q 42.578125 51.265625 45.40625 46.390625 
z
M 14.796875 27.296875 
Q 14.796875 17.390625 18.875 11.75 
Q 22.953125 6.109375 30.078125 6.109375 
Q 37.203125 6.109375 41.296875 11.75 
Q 45.40625 17.390625 45.40625 27.296875 
Q 45.40625 37.203125 41.296875 42.84375 
Q 37.203125 48.484375 30.078125 48.484375 
Q 22.953125 48.484375 18.875 42.84375 
Q 14.796875 37.203125 14.796875 27.296875 
z
" id="DejaVuSans-100"/>
     </defs>
     <g transform="translate(463.16 79.787188)scale(0.14 -0.14)">
      <use xlink:href="#DejaVuSans-109"/>
      <use x="97.412109" xlink:href="#DejaVuSans-105"/>
      <use x="125.195312" xlink:href="#DejaVuSans-100"/>
     </g>
    </g>
    <g id="patch_7">
     <path d="M 423.96 100.336563 
L 451.96 100.336563 
L 451.96 90.536563 
L 423.96 90.536563 
z
" style="fill:#4bc0c0;opacity:0.5;stroke:#4bc0c0;stroke-linejoin:miter;"/>
    </g>
    <g id="text_3">
     <!-- mid_icon -->
     <defs>
      <path d="M 50.984375 -16.609375 
L 50.984375 -23.578125 
L -0.984375 -23.578125 
L -0.984375 -16.609375 
z
" id="DejaVuSans-95"/>
      <path d="M 48.78125 52.59375 
L 48.78125 44.1875 
Q 44.96875 46.296875 41.140625 47.34375 
Q 37.3125 48.390625 33.40625 48.390625 
Q 24.65625 48.390625 19.8125 42.84375 
Q 14.984375 37.3125 14.984375 27.296875 
Q 14.984375 17.28125 19.8125 11.734375 
Q 24.65625 6.203125 33.40625 6.203125 
Q 37.3125 6.203125 41.140625 7.25 
Q 44.96875 8.296875 48.78125 10.40625 
L 48.78125 2.09375 
Q 45.015625 0.34375 40.984375 -0.53125 
Q 36.96875 -1.421875 32.421875 -1.421875 
Q 20.0625 -1.421875 12.78125 6.34375 
Q 5.515625 14.109375 5.515625 27.296875 
Q 5.515625 40.671875 12.859375 48.328125 
Q 20.21875 56 33.015625 56 
Q 37.15625 56 41.109375 55.140625 
Q 45.0625 54.296875 48.78125 52.59375 
z
" id="DejaVuSans-99"/>
      <path d="M 30.609375 48.390625 
Q 23.390625 48.390625 19.1875 42.75 
Q 14.984375 37.109375 14.984375 27.296875 
Q 14.984375 17.484375 19.15625 11.84375 
Q 23.34375 6.203125 30.609375 6.203125 
Q 37.796875 6.203125 41.984375 11.859375 
Q 46.1875 17.53125 46.1875 27.296875 
Q 46.1875 37.015625 41.984375 42.703125 
Q 37.796875 48.390625 30.609375 48.390625 
z
M 30.609375 56 
Q 42.328125 56 49.015625 48.375 
Q 55.71875 40.765625 55.71875 27.296875 
Q 55.71875 13.875 49.015625 6.21875 
Q 42.328125 -1.421875 30.609375 -1.421875 
Q 18.84375 -1.421875 12.171875 6.21875 
Q 5.515625 13.875 5.515625 27.296875 
Q 5.515625 40.765625 12.171875 48.375 
Q 18.84375 56 30.609375 56 
z
" id="DejaVuSans-111"/>
      <path d="M 54.890625 33.015625 
L 54.890625 0 
L 45.90625 0 
L 45.90625 32.71875 
Q 45.90625 40.484375 42.875 44.328125 
Q 39.84375 48.1875 33.796875 48.1875 
Q 26.515625 48.1875 22.3125 43.546875 
Q 18.109375 38.921875 18.109375 30.90625 
L 18.109375 0 
L 9.078125 0 
L 9.078125 54.6875 
L 18.109375 54.6875 
L 18.109375 46.1875 
Q 21.34375 51.125 25.703125 53.5625 
Q 30.078125 56 35.796875 56 
Q 45.21875 56 50.046875 50.171875 
Q 54.890625 44.34375 54.890625 33.015625 
z
" id="DejaVuSans-110"/>
     </defs>
     <g transform="translate(463.16 100.336563)scale(0.14 -0.14)">
      <use xlink:href="#DejaVuSans-109"/>
      <use x="97.412109" xlink:href="#DejaVuSans-105"/>
      <use x="125.195312" xlink:href="#DejaVuSans-100"/>
      <use x="188.671875" xlink:href="#DejaVuSans-95"/>
      <use x="238.671875" xlink:href="#DejaVuSans-105"/>
      <use x="266.455078" xlink:href="#DejaVuSans-99"/>
      <use x="321.435547" xlink:href="#DejaVuSans-111"/>
      <use x="382.617188" xlink:href="#DejaVuSans-110"/>
     </g>
    </g>
   </g>
  </g>
  <g id="axes_2">
   <g id="patch_8">
    <path d="M 36 525.24 
L 538.2 525.24 
L 538.2 402.93 
L 36 402.93 
z
" style="fill:none;"/>
   </g>
   <g id="patch_9">
    <path clip-path="url(#p330accd283)" d="M 195.414034 519.680455 
L 405.856665 519.680455 
L 405.856665 497.442273 
L 195.414034 497.442273 
z
" style="fill:#ff6384;opacity:0.5;"/>
   </g>
   <g id="patch_10">
    <path clip-path="url(#p330accd283)" d="M 194.242255 475.204091 
L 405.414722 475.204091 
L 405.414722 452.965909 
L 194.242255 452.965909 
z
" style="fill:#36a2eb;opacity:0.5;"/>
   </g>
   <g id="patch_11">
    <path clip-path="url(#p330accd283)" d="M 167.335427 430.727727 
L 375.841293 430.727727 
L 375.841293 408.489545 
L 167.335427 408.489545 
z
" style="fill:#4bc0c0;opacity:0.5;"/>
   </g>
   <g id="matplotlib.axis_1">
    <g id="xtick_1">
     <g id="line2d_4">
      <defs>
       <path d="M 0 0 
L 0 3.5 
" id="mce2493e71a" style="stroke:#000000;stroke-width:0.8;"/>
      </defs>
      <g>
       <use style="stroke:#000000;stroke-width:0.8;" x="58.577106" xlink:href="#mce2493e71a" y="525.24"/>
      </g>
     </g>
     <g id="text_4">
      <!-- 12 -->
      <defs>
       <path d="M 12.40625 8.296875 
L 28.515625 8.296875 
L 28.515625 63.921875 
L 10.984375 60.40625 
L 10.984375 69.390625 
L 28.421875 72.90625 
L 38.28125 72.90625 
L 38.28125 8.296875 
L 54.390625 8.296875 
L 54.390625 0 
L 12.40625 0 
z
" id="DejaVuSans-49"/>
       <path d="M 19.1875 8.296875 
L 53.609375 8.296875 
L 53.609375 0 
L 7.328125 0 
L 7.328125 8.296875 
Q 12.9375 14.109375 22.625 23.890625 
Q 32.328125 33.6875 34.8125 36.53125 
Q 39.546875 41.84375 41.421875 45.53125 
Q 43.3125 49.21875 43.3125 52.78125 
Q 43.3125 58.59375 39.234375 62.25 
Q 35.15625 65.921875 28.609375 65.921875 
Q 23.96875 65.921875 18.8125 64.3125 
Q 13.671875 62.703125 7.8125 59.421875 
L 7.8125 69.390625 
Q 13.765625 71.78125 18.9375 73 
Q 24.125 74.21875 28.421875 74.21875 
Q 39.75 74.21875 46.484375 68.546875 
Q 53.21875 62.890625 53.21875 53.421875 
Q 53.21875 48.921875 51.53125 44.890625 
Q 49.859375 40.875 45.40625 35.40625 
Q 44.1875 33.984375 37.640625 27.21875 
Q 31.109375 20.453125 19.1875 8.296875 
z
" id="DejaVuSans-50"/>
      </defs>
      <g transform="translate(49.669606 542.877813)scale(0.14 -0.14)">
       <use xlink:href="#DejaVuSans-49"/>
       <use x="63.623047" xlink:href="#DejaVuSans-50"/>
      </g>
     </g>
    </g>
    <g id="xtick_2">
     <g id="line2d_5">
      <g>
       <use style="stroke:#000000;stroke-width:0.8;" x="139.263187" xlink:href="#mce2493e71a" y="525.24"/>
      </g>
     </g>
     <g id="text_5">
      <!-- 13 -->
      <defs>
       <path d="M 40.578125 39.3125 
Q 47.65625 37.796875 51.625 33 
Q 55.609375 28.21875 55.609375 21.1875 
Q 55.609375 10.40625 48.1875 4.484375 
Q 40.765625 -1.421875 27.09375 -1.421875 
Q 22.515625 -1.421875 17.65625 -0.515625 
Q 12.796875 0.390625 7.625 2.203125 
L 7.625 11.71875 
Q 11.71875 9.328125 16.59375 8.109375 
Q 21.484375 6.890625 26.8125 6.890625 
Q 36.078125 6.890625 40.9375 10.546875 
Q 45.796875 14.203125 45.796875 21.1875 
Q 45.796875 27.640625 41.28125 31.265625 
Q 36.765625 34.90625 28.71875 34.90625 
L 20.21875 34.90625 
L 20.21875 43.015625 
L 29.109375 43.015625 
Q 36.375 43.015625 40.234375 45.921875 
Q 44.09375 48.828125 44.09375 54.296875 
Q 44.09375 59.90625 40.109375 62.90625 
Q 36.140625 65.921875 28.71875 65.921875 
Q 24.65625 65.921875 20.015625 65.03125 
Q 15.375 64.15625 9.8125 62.3125 
L 9.8125 71.09375 
Q 15.4375 72.65625 20.34375 73.4375 
Q 25.25 74.21875 29.59375 74.21875 
Q 40.828125 74.21875 47.359375 69.109375 
Q 53.90625 64.015625 53.90625 55.328125 
Q 53.90625 49.265625 50.4375 45.09375 
Q 46.96875 40.921875 40.578125 39.3125 
z
" id="DejaVuSans-51"/>
      </defs>
      <g transform="translate(130.355687 542.877813)scale(0.14 -0.14)">
       <use xlink:href="#DejaVuSans-49"/>
       <use x="63.623047" xlink:href="#DejaVuSans-51"/>
      </g>
     </g>
    </g>
    <g id="xtick_3">
     <g id="line2d_6">
      <g>
       <use style="stroke:#000000;stroke-width:0.8;" x="219.949268" xlink:href="#mce2493e71a" y="525.24"/>
      </g>
     </g>
     <g id="text_6">
      <!-- 14 -->
      <defs>
       <path d="M 37.796875 64.3125 
L 12.890625 25.390625 
L 37.796875 25.390625 
z
M 35.203125 72.90625 
L 47.609375 72.90625 
L 47.609375 25.390625 
L 58.015625 25.390625 
L 58.015625 17.1875 
L 47.609375 17.1875 
L 47.609375 0 
L 37.796875 0 
L 37.796875 17.1875 
L 4.890625 17.1875 
L 4.890625 26.703125 
z
" id="DejaVuSans-52"/>
      </defs>
      <g transform="translate(211.041768 542.877813)scale(0.14 -0.14)">
       <use xlink:href="#DejaVuSans-49"/>
       <use x="63.623047" xlink:href="#DejaVuSans-52"/>
      </g>
     </g>
    </g>
    <g id="xtick_4">
     <g id="line2d_7">
      <g>
       <use style="stroke:#000000;stroke-width:0.8;" x="300.635349" xlink:href="#mce2493e71a" y="525.24"/>
      </g>
     </g>
     <g id="text_7">
      <!-- 15 -->
      <defs>
       <path d="M 10.796875 72.90625 
L 49.515625 72.90625 
L 49.515625 64.59375 
L 19.828125 64.59375 
L 19.828125 46.734375 
Q 21.96875 47.46875 24.109375 47.828125 
Q 26.265625 48.1875 28.421875 48.1875 
Q 40.625 48.1875 47.75 41.5 
Q 54.890625 34.8125 54.890625 23.390625 
Q 54.890625 11.625 47.5625 5.09375 
Q 40.234375 -1.421875 26.90625 -1.421875 
Q 22.3125 -1.421875 17.546875 -0.640625 
Q 12.796875 0.140625 7.71875 1.703125 
L 7.71875 11.625 
Q 12.109375 9.234375 16.796875 8.0625 
Q 21.484375 6.890625 26.703125 6.890625 
Q 35.15625 6.890625 40.078125 11.328125 
Q 45.015625 15.765625 45.015625 23.390625 
Q 45.015625 31 40.078125 35.4375 
Q 35.15625 39.890625 26.703125 39.890625 
Q 22.75 39.890625 18.8125 39.015625 
Q 14.890625 38.140625 10.796875 36.28125 
z
" id="DejaVuSans-53"/>
      </defs>
      <g transform="translate(291.727849 542.877813)scale(0.14 -0.14)">
       <use xlink:href="#DejaVuSans-49"/>
       <use x="63.623047" xlink:href="#DejaVuSans-53"/>
      </g>
     </g>
    </g>
    <g id="xtick_5">
     <g id="line2d_8">
      <g>
       <use style="stroke:#000000;stroke-width:0.8;" x="381.321431" xlink:href="#mce2493e71a" y="525.24"/>
      </g>
     </g>
     <g id="text_8">
      <!-- 16 -->
      <defs>
       <path d="M 33.015625 40.375 
Q 26.375 40.375 22.484375 35.828125 
Q 18.609375 31.296875 18.609375 23.390625 
Q 18.609375 15.53125 22.484375 10.953125 
Q 26.375 6.390625 33.015625 6.390625 
Q 39.65625 6.390625 43.53125 10.953125 
Q 47.40625 15.53125 47.40625 23.390625 
Q 47.40625 31.296875 43.53125 35.828125 
Q 39.65625 40.375 33.015625 40.375 
z
M 52.59375 71.296875 
L 52.59375 62.3125 
Q 48.875 64.0625 45.09375 64.984375 
Q 41.3125 65.921875 37.59375 65.921875 
Q 27.828125 65.921875 22.671875 59.328125 
Q 17.53125 52.734375 16.796875 39.40625 
Q 19.671875 43.65625 24.015625 45.921875 
Q 28.375 48.1875 33.59375 48.1875 
Q 44.578125 48.1875 50.953125 41.515625 
Q 57.328125 34.859375 57.328125 23.390625 
Q 57.328125 12.15625 50.6875 5.359375 
Q 44.046875 -1.421875 33.015625 -1.421875 
Q 20.359375 -1.421875 13.671875 8.265625 
Q 6.984375 17.96875 6.984375 36.375 
Q 6.984375 53.65625 15.1875 63.9375 
Q 23.390625 74.21875 37.203125 74.21875 
Q 40.921875 74.21875 44.703125 73.484375 
Q 48.484375 72.75 52.59375 71.296875 
z
" id="DejaVuSans-54"/>
      </defs>
      <g transform="translate(372.413931 542.877813)scale(0.14 -0.14)">
       <use xlink:href="#DejaVuSans-49"/>
       <use x="63.623047" xlink:href="#DejaVuSans-54"/>
      </g>
     </g>
    </g>
    <g id="xtick_6">
     <g id="line2d_9">
      <g>
       <use style="stroke:#000000;stroke-width:0.8;" x="462.007512" xlink:href="#mce2493e71a" y="525.24"/>
      </g>
     </g>
     <g id="text_9">
      <!-- 17 -->
      <defs>
       <path d="M 8.203125 72.90625 
L 55.078125 72.90625 
L 55.078125 68.703125 
L 28.609375 0 
L 18.3125 0 
L 43.21875 64.59375 
L 8.203125 64.59375 
z
" id="DejaVuSans-55"/>
      </defs>
      <g transform="translate(453.100012 542.877813)scale(0.14 -0.14)">
       <use xlink:href="#DejaVuSans-49"/>
       <use x="63.623047" xlink:href="#DejaVuSans-55"/>
      </g>
     </g>
    </g>
   </g>
   <g id="line2d_10">
    <path clip-path="url(#p330accd283)" d="M 300.635349 525.24 
L 300.635349 402.93 
" style="fill:none;stroke:#ff6384;stroke-dasharray:5.55,2.4;stroke-dashoffset:0;stroke-opacity:0.8;stroke-width:1.5;"/>
   </g>
   <g id="line2d_11">
    <path clip-path="url(#p330accd283)" d="M 299.828489 525.24 
L 299.828489 402.93 
" style="fill:none;stroke:#36a2eb;stroke-dasharray:5.55,2.4;stroke-dashoffset:0;stroke-opacity:0.8;stroke-width:1.5;"/>
   </g>
   <g id="line2d_12">
    <path clip-path="url(#p330accd283)" d="M 271.58836 525.24 
L 271.58836 402.93 
" style="fill:none;stroke:#4bc0c0;stroke-dasharray:5.55,2.4;stroke-dashoffset:0;stroke-opacity:0.8;stroke-width:1.5;"/>
   </g>
   <g id="patch_12">
    <path d="M 36 525.24 
L 538.2 525.24 
" style="fill:none;stroke:#000000;stroke-linecap:square;stroke-linejoin:miter;stroke-width:0.8;"/>
   </g>
  </g>
 </g>
 <defs>
  <clipPath id="pa6e940793b">
   <rect height="366.93" width="502.2" x="36" y="36"/>
  </clipPath>
  <clipPath id="p330accd283">
   <rect height="122.31" width="502.2" x="36" y="402.93"/>
  </clipPath>
 </defs>
</svg>
