<?xml version="1.0" encoding="utf-8" standalone="no"?>
<!DOCTYPE svg PUBLIC "-//W3C//DTD SVG 1.1//EN"
  "http://www.w3.org/Graphics/SVG/1.1/DTD/svg11.dtd">
<!-- Created with matplotlib (https://matplotlib.org/) -->
<svg height="581.789375pt" version="1.1" viewBox="0 0 574.2 581.789375" width="574.2pt" xmlns="http://www.w3.org/2000/svg" xmlns:xlink="http://www.w3.org/1999/xlink">
 <defs>
  <style type="text/css">
*{stroke-linecap:butt;stroke-linejoin:round;}
  </style>
 </defs>
 <g id="figure_1">
  <g id="patch_1">
   <path d="M 0 581.789375 
L 574.2 581.789375 
L 574.2 0 
L 0 0 
z
" style="fill:none;"/>
  </g>
  <g id="axes_1">
   <g id="patch_2">
    <path d="M 36 402.93 
L 538.2 402.93 
L 538.2 36 
L 36 36 
z
" style="fill:none;"/>
   </g>
   <g id="PolyCollection_1">
    <defs>
     <path d="M 105.657013 -195.538011 
L 105.657013 -195.650004 
L 109.650088 -195.692234 
L 113.643163 -195.749007 
L 117.636239 -195.8248 
L 121.629314 -195.925281 
L 125.62239 -196.057565 
L 129.615465 -196.230497 
L 133.60854 -196.454982 
L 137.601616 -196.744335 
L 141.594691 -197.114666 
L 145.587767 -197.585273 
L 149.580842 -198.179047 
L 153.573917 -198.922859 
L 157.566993 -199.847921 
L 161.560068 -200.990079 
L 165.553144 -202.390029 
L 169.546219 -204.093399 
L 173.539295 -206.150691 
L 177.53237 -208.617009 
L 181.525445 -211.551575 
L 185.518521 -215.016962 
L 189.511596 -219.078053 
L 193.504672 -223.800667 
L 197.497747 -229.249878 
L 201.490822 -235.488004 
L 205.483898 -242.572312 
L 209.476973 -250.552459 
L 213.470049 -259.467747 
L 217.463124 -269.344261 
L 221.456199 -280.192004 
L 225.449275 -292.002137 
L 229.44235 -304.744465 
L 233.435426 -318.365297 
L 237.428501 -332.785841 
L 241.421576 -347.901251 
L 245.414652 -363.580456 
L 249.407727 -379.666871 
L 253.400803 -395.980052 
L 257.393878 -412.31833 
L 261.386954 -428.4624 
L 265.380029 -444.179822 
L 269.373104 -459.230303 
L 273.36618 -473.371627 
L 277.359255 -486.366018 
L 281.352331 -497.986726 
L 285.345406 -508.02457 
L 289.338481 -516.294181 
L 293.331557 -522.639693 
L 297.324632 -526.939623 
L 301.317708 -529.110739 
L 305.310783 -529.110739 
L 309.303858 -526.939623 
L 313.296934 -522.639693 
L 317.290009 -516.294181 
L 321.283085 -508.02457 
L 325.27616 -497.986726 
L 329.269235 -486.366018 
L 333.262311 -473.371627 
L 337.255386 -459.230303 
L 341.248462 -444.179822 
L 345.241537 -428.4624 
L 349.234613 -412.31833 
L 353.227688 -395.980052 
L 357.220763 -379.666871 
L 361.213839 -363.580456 
L 365.206914 -347.901251 
L 369.19999 -332.785841 
L 373.193065 -318.365297 
L 377.18614 -304.744465 
L 381.179216 -292.002137 
L 385.172291 -280.192004 
L 389.165367 -269.344261 
L 393.158442 -259.467747 
L 397.151517 -250.552459 
L 401.144593 -242.572312 
L 405.137668 -235.488004 
L 409.130744 -229.249878 
L 413.123819 -223.800667 
L 417.116895 -219.078053 
L 421.10997 -215.016962 
L 425.103045 -211.551575 
L 429.096121 -208.617009 
L 433.089196 -206.150691 
L 437.082272 -204.093399 
L 441.075347 -202.390029 
L 445.068422 -200.990079 
L 449.061498 -199.847921 
L 453.054573 -198.922859 
L 457.047649 -198.179047 
L 461.040724 -197.585273 
L 465.033799 -197.114666 
L 469.026875 -196.744335 
L 473.01995 -196.454982 
L 477.013026 -196.230497 
L 481.006101 -196.057565 
L 484.999176 -195.925281 
L 488.992252 -195.8248 
L 492.985327 -195.749007 
L 496.978403 -195.692234 
L 500.971478 -195.650004 
L 500.971478 -195.538011 
L 500.971478 -195.538011 
L 496.978403 -195.538011 
L 492.985327 -195.538011 
L 488.992252 -195.538011 
L 484.999176 -195.538011 
L 481.006101 -195.538011 
L 477.013026 -195.538011 
L 473.01995 -195.538011 
L 469.026875 -195.538011 
L 465.033799 -195.538011 
L 461.040724 -195.538011 
L 457.047649 -195.538011 
L 453.054573 -195.538011 
L 449.061498 -195.538011 
L 445.068422 -195.538011 
L 441.075347 -195.538011 
L 437.082272 -195.538011 
L 433.089196 -195.538011 
L 429.096121 -195.538011 
L 425.103045 -195.538011 
L 421.10997 -195.538011 
L 417.116895 -195.538011 
L 413.123819 -195.538011 
L 409.130744 -195.538011 
L 405.137668 -195.538011 
L 401.144593 -195.538011 
L 397.151517 -195.538011 
L 393.158442 -195.538011 
L 389.165367 -195.538011 
L 385.172291 -195.538011 
L 381.179216 -195.538011 
L 377.18614 -195.538011 
L 373.193065 -195.538011 
L 369.19999 -195.538011 
L 365.206914 -195.538011 
L 361.213839 -195.538011 
L 357.220763 -195.538011 
L 353.227688 -195.538011 
L 349.234613 -195.538011 
L 345.241537 -195.538011 
L 341.248462 -195.538011 
L 337.255386 -195.538011 
L 333.262311 -195.538011 
L 329.269235 -195.538011 
L 325.27616 -195.538011 
L 321.283085 -195.538011 
L 317.290009 -195.538011 
L 313.296934 -195.538011 
L 309.303858 -195.538011 
L 305.310783 -195.538011 
L 301.317708 -195.538011 
L 297.324632 -195.538011 
L 293.331557 -195.538011 
L 289.338481 -195.538011 
L 285.345406 -195.538011 
L 281.352331 -195.538011 
L 277.359255 -195.538011 
L 273.36618 -195.538011 
L 269.373104 -195.538011 
L 265.380029 -195.538011 
L 261.386954 -195.538011 
L 257.393878 -195.538011 
L 253.400803 -195.538011 
L 249.407727 -195.538011 
L 245.414652 -195.538011 
L 241.421576 -195.538011 
L 237.428501 -195.538011 
L 233.435426 -195.538011 
L 229.44235 -195.538011 
L 225.449275 -195.538011 
L 221.456199 -195.538011 
L 217.463124 -195.538011 
L 213.470049 -195.538011 
L 209.476973 -195.538011 
L 205.483898 -195.538011 
L 201.490822 -195.538011 
L 197.497747 -195.538011 
L 193.504672 -195.538011 
L 189.511596 -195.538011 
L 185.518521 -195.538011 
L 181.525445 -195.538011 
L 177.53237 -195.538011 
L 173.539295 -195.538011 
L 169.546219 -195.538011 
L 165.553144 -195.538011 
L 161.560068 -195.538011 
L 157.566993 -195.538011 
L 153.573917 -195.538011 
L 149.580842 -195.538011 
L 145.587767 -195.538011 
L 141.594691 -195.538011 
L 137.601616 -195.538011 
L 133.60854 -195.538011 
L 129.615465 -195.538011 
L 125.62239 -195.538011 
L 121.629314 -195.538011 
L 117.636239 -195.538011 
L 113.643163 -195.538011 
L 109.650088 -195.538011 
L 105.657013 -195.538011 
z
" id="m64412c3c51" style="stroke:#ff6384;stroke-opacity:0.5;"/>
    </defs>
    <g clip-path="url(#p39a069bd87)">
     <use style="fill:#ff6384;fill-opacity:0.5;stroke:#ff6384;stroke-opacity:0.5;" x="0" xlink:href="#m64412c3c51" y="581.789375"/>
    </g>
   </g>
   <g id="PolyCollection_2">
    <defs>
     <path d="M 58.827273 -195.538011 
L 58.827273 -195.634984 
L 63.438843 -195.67155 
L 68.050413 -195.720709 
L 72.661983 -195.786336 
L 77.273554 -195.873341 
L 81.885124 -195.987883 
L 86.496694 -196.137622 
L 91.108264 -196.331999 
L 95.719835 -196.582545 
L 100.331405 -196.903208 
L 104.942975 -197.310698 
L 109.554545 -197.824836 
L 114.166116 -198.46889 
L 118.777686 -199.269884 
L 123.389256 -200.258859 
L 128.000826 -201.471049 
L 132.612397 -202.945967 
L 137.223967 -204.727339 
L 141.835537 -206.86288 
L 146.447107 -209.403867 
L 151.058678 -212.404483 
L 155.670248 -215.920908 
L 160.281818 -220.010135 
L 164.893388 -224.728508 
L 169.504959 -230.129989 
L 174.116529 -236.264163 
L 178.728099 -243.174028 
L 183.339669 -250.893615 
L 187.95124 -259.44551 
L 192.56281 -268.838375 
L 197.17438 -279.064556 
L 201.78595 -290.097908 
L 206.397521 -301.89194 
L 211.009091 -314.378429 
L 215.620661 -327.466589 
L 220.232231 -341.04293 
L 224.843802 -354.971866 
L 229.455372 -369.097155 
L 234.066942 -383.244175 
L 238.678512 -397.223034 
L 243.290083 -410.832465 
L 247.901653 -423.864405 
L 252.513223 -436.109122 
L 257.124793 -447.360731 
L 261.736364 -457.422892 
L 266.347934 -466.11448 
L 270.959504 -473.274987 
L 275.571074 -478.769452 
L 280.182645 -482.492683 
L 284.794215 -484.372613 
L 289.405785 -484.372613 
L 294.017355 -482.492683 
L 298.628926 -478.769452 
L 303.240496 -473.274987 
L 307.852066 -466.11448 
L 312.463636 -457.422892 
L 317.075207 -447.360731 
L 321.686777 -436.109122 
L 326.298347 -423.864405 
L 330.909917 -410.832465 
L 335.521488 -397.223034 
L 340.133058 -383.244175 
L 344.744628 -369.097155 
L 349.356198 -354.971866 
L 353.967769 -341.04293 
L 358.579339 -327.466589 
L 363.190909 -314.378429 
L 367.802479 -301.89194 
L 372.41405 -290.097908 
L 377.02562 -279.064556 
L 381.63719 -268.838375 
L 386.24876 -259.44551 
L 390.860331 -250.893615 
L 395.471901 -243.174028 
L 400.083471 -236.264163 
L 404.695041 -230.129989 
L 409.306612 -224.728508 
L 413.918182 -220.010135 
L 418.529752 -215.920908 
L 423.141322 -212.404483 
L 427.752893 -209.403867 
L 432.364463 -206.86288 
L 436.976033 -204.727339 
L 441.587603 -202.945967 
L 446.199174 -201.471049 
L 450.810744 -200.258859 
L 455.422314 -199.269884 
L 460.033884 -198.46889 
L 464.645455 -197.824836 
L 469.257025 -197.310698 
L 473.868595 -196.903208 
L 478.480165 -196.582545 
L 483.091736 -196.331999 
L 487.703306 -196.137622 
L 492.314876 -195.987883 
L 496.926446 -195.873341 
L 501.538017 -195.786336 
L 506.149587 -195.720709 
L 510.761157 -195.67155 
L 515.372727 -195.634984 
L 515.372727 -195.538011 
L 515.372727 -195.538011 
L 510.761157 -195.538011 
L 506.149587 -195.538011 
L 501.538017 -195.538011 
L 496.926446 -195.538011 
L 492.314876 -195.538011 
L 487.703306 -195.538011 
L 483.091736 -195.538011 
L 478.480165 -195.538011 
L 473.868595 -195.538011 
L 469.257025 -195.538011 
L 464.645455 -195.538011 
L 460.033884 -195.538011 
L 455.422314 -195.538011 
L 450.810744 -195.538011 
L 446.199174 -195.538011 
L 441.587603 -195.538011 
L 436.976033 -195.538011 
L 432.364463 -195.538011 
L 427.752893 -195.538011 
L 423.141322 -195.538011 
L 418.529752 -195.538011 
L 413.918182 -195.538011 
L 409.306612 -195.538011 
L 404.695041 -195.538011 
L 400.083471 -195.538011 
L 395.471901 -195.538011 
L 390.860331 -195.538011 
L 386.24876 -195.538011 
L 381.63719 -195.538011 
L 377.02562 -195.538011 
L 372.41405 -195.538011 
L 367.802479 -195.538011 
L 363.190909 -195.538011 
L 358.579339 -195.538011 
L 353.967769 -195.538011 
L 349.356198 -195.538011 
L 344.744628 -195.538011 
L 340.133058 -195.538011 
L 335.521488 -195.538011 
L 330.909917 -195.538011 
L 326.298347 -195.538011 
L 321.686777 -195.538011 
L 317.075207 -195.538011 
L 312.463636 -195.538011 
L 307.852066 -195.538011 
L 303.240496 -195.538011 
L 298.628926 -195.538011 
L 294.017355 -195.538011 
L 289.405785 -195.538011 
L 284.794215 -195.538011 
L 280.182645 -195.538011 
L 275.571074 -195.538011 
L 270.959504 -195.538011 
L 266.347934 -195.538011 
L 261.736364 -195.538011 
L 257.124793 -195.538011 
L 252.513223 -195.538011 
L 247.901653 -195.538011 
L 243.290083 -195.538011 
L 238.678512 -195.538011 
L 234.066942 -195.538011 
L 229.455372 -195.538011 
L 224.843802 -195.538011 
L 220.232231 -195.538011 
L 215.620661 -195.538011 
L 211.009091 -195.538011 
L 206.397521 -195.538011 
L 201.78595 -195.538011 
L 197.17438 -195.538011 
L 192.56281 -195.538011 
L 187.95124 -195.538011 
L 183.339669 -195.538011 
L 178.728099 -195.538011 
L 174.116529 -195.538011 
L 169.504959 -195.538011 
L 164.893388 -195.538011 
L 160.281818 -195.538011 
L 155.670248 -195.538011 
L 151.058678 -195.538011 
L 146.447107 -195.538011 
L 141.835537 -195.538011 
L 137.223967 -195.538011 
L 132.612397 -195.538011 
L 128.000826 -195.538011 
L 123.389256 -195.538011 
L 118.777686 -195.538011 
L 114.166116 -195.538011 
L 109.554545 -195.538011 
L 104.942975 -195.538011 
L 100.331405 -195.538011 
L 95.719835 -195.538011 
L 91.108264 -195.538011 
L 86.496694 -195.538011 
L 81.885124 -195.538011 
L 77.273554 -195.538011 
L 72.661983 -195.538011 
L 68.050413 -195.538011 
L 63.438843 -195.538011 
L 58.827273 -195.538011 
z
" id="m980f8388f6" style="stroke:#36a2eb;stroke-opacity:0.5;"/>
    </defs>
    <g clip-path="url(#p39a069bd87)">
     <use style="fill:#36a2eb;fill-opacity:0.5;stroke:#36a2eb;stroke-opacity:0.5;" x="0" xlink:href="#m980f8388f6" y="581.789375"/>
    </g>
   </g>
   <g id="PolyCollection_3">
    <defs>
     <path d="M 59.508174 -195.538011 
L 59.508174 -195.649291 
L 63.526839 -195.691252 
L 67.545503 -195.747663 
L 71.564168 -195.822974 
L 75.582833 -195.922815 
L 79.601497 -196.054257 
L 83.620162 -196.226087 
L 87.638827 -196.449143 
L 91.657491 -196.736654 
L 95.676156 -197.104626 
L 99.694821 -197.572237 
L 103.713486 -198.16223 
L 107.73215 -198.901306 
L 111.750815 -199.820477 
L 115.76948 -200.955363 
L 119.788144 -202.346398 
L 123.806809 -204.038922 
L 127.825474 -206.083113 
L 131.844138 -208.533727 
L 135.862803 -211.449606 
L 139.881468 -214.892928 
L 143.900132 -218.928159 
L 147.918797 -223.620702 
L 151.937462 -229.035214 
L 155.956127 -235.233618 
L 159.974791 -242.272816 
L 163.993456 -250.202149 
L 168.012121 -259.060667 
L 172.030785 -268.874291 
L 176.04945 -279.65296 
L 180.068115 -291.387892 
L 184.086779 -304.049081 
L 188.105444 -317.583181 
L 192.124109 -331.911901 
L 196.142774 -346.931061 
L 200.161438 -362.510427 
L 204.180103 -378.49441 
L 208.198768 -394.703716 
L 212.217432 -410.937957 
L 216.236097 -426.979228 
L 220.254762 -442.596568 
L 224.273426 -457.551213 
L 228.292091 -471.602491 
L 232.310756 -484.514139 
L 236.329421 -496.060851 
L 240.348085 -506.034777 
L 244.36675 -514.251731 
L 248.385415 -520.556837 
L 252.404079 -524.829387 
L 256.422744 -526.986678 
L 260.441409 -526.986678 
L 264.460073 -524.829387 
L 268.478738 -520.556837 
L 272.497403 -514.251731 
L 276.516068 -506.034777 
L 280.534732 -496.060851 
L 284.553397 -484.514139 
L 288.572062 -471.602491 
L 292.590726 -457.551213 
L 296.609391 -442.596568 
L 300.628056 -426.979228 
L 304.64672 -410.937957 
L 308.665385 -394.703716 
L 312.68405 -378.49441 
L 316.702715 -362.510427 
L 320.721379 -346.931061 
L 324.740044 -331.911901 
L 328.758709 -317.583181 
L 332.777373 -304.049081 
L 336.796038 -291.387892 
L 340.814703 -279.65296 
L 344.833367 -268.874291 
L 348.852032 -259.060667 
L 352.870697 -250.202149 
L 356.889362 -242.272816 
L 360.908026 -235.233618 
L 364.926691 -229.035214 
L 368.945356 -223.620702 
L 372.96402 -218.928159 
L 376.982685 -214.892928 
L 381.00135 -211.449606 
L 385.020014 -208.533727 
L 389.038679 -206.083113 
L 393.057344 -204.038922 
L 397.076009 -202.346398 
L 401.094673 -200.955363 
L 405.113338 -199.820477 
L 409.132003 -198.901306 
L 413.150667 -198.16223 
L 417.169332 -197.572237 
L 421.187997 -197.104626 
L 425.206661 -196.736654 
L 429.225326 -196.449143 
L 433.243991 -196.226087 
L 437.262656 -196.054257 
L 441.28132 -195.922815 
L 445.299985 -195.822974 
L 449.31865 -195.747663 
L 453.337314 -195.691252 
L 457.355979 -195.649291 
L 457.355979 -195.538011 
L 457.355979 -195.538011 
L 453.337314 -195.538011 
L 449.31865 -195.538011 
L 445.299985 -195.538011 
L 441.28132 -195.538011 
L 437.262656 -195.538011 
L 433.243991 -195.538011 
L 429.225326 -195.538011 
L 425.206661 -195.538011 
L 421.187997 -195.538011 
L 417.169332 -195.538011 
L 413.150667 -195.538011 
L 409.132003 -195.538011 
L 405.113338 -195.538011 
L 401.094673 -195.538011 
L 397.076009 -195.538011 
L 393.057344 -195.538011 
L 389.038679 -195.538011 
L 385.020014 -195.538011 
L 381.00135 -195.538011 
L 376.982685 -195.538011 
L 372.96402 -195.538011 
L 368.945356 -195.538011 
L 364.926691 -195.538011 
L 360.908026 -195.538011 
L 356.889362 -195.538011 
L 352.870697 -195.538011 
L 348.852032 -195.538011 
L 344.833367 -195.538011 
L 340.814703 -195.538011 
L 336.796038 -195.538011 
L 332.777373 -195.538011 
L 328.758709 -195.538011 
L 324.740044 -195.538011 
L 320.721379 -195.538011 
L 316.702715 -195.538011 
L 312.68405 -195.538011 
L 308.665385 -195.538011 
L 304.64672 -195.538011 
L 300.628056 -195.538011 
L 296.609391 -195.538011 
L 292.590726 -195.538011 
L 288.572062 -195.538011 
L 284.553397 -195.538011 
L 280.534732 -195.538011 
L 276.516068 -195.538011 
L 272.497403 -195.538011 
L 268.478738 -195.538011 
L 264.460073 -195.538011 
L 260.441409 -195.538011 
L 256.422744 -195.538011 
L 252.404079 -195.538011 
L 248.385415 -195.538011 
L 244.36675 -195.538011 
L 240.348085 -195.538011 
L 236.329421 -195.538011 
L 232.310756 -195.538011 
L 228.292091 -195.538011 
L 224.273426 -195.538011 
L 220.254762 -195.538011 
L 216.236097 -195.538011 
L 212.217432 -195.538011 
L 208.198768 -195.538011 
L 204.180103 -195.538011 
L 200.161438 -195.538011 
L 196.142774 -195.538011 
L 192.124109 -195.538011 
L 188.105444 -195.538011 
L 184.086779 -195.538011 
L 180.068115 -195.538011 
L 176.04945 -195.538011 
L 172.030785 -195.538011 
L 168.012121 -195.538011 
L 163.993456 -195.538011 
L 159.974791 -195.538011 
L 155.956127 -195.538011 
L 151.937462 -195.538011 
L 147.918797 -195.538011 
L 143.900132 -195.538011 
L 139.881468 -195.538011 
L 135.862803 -195.538011 
L 131.844138 -195.538011 
L 127.825474 -195.538011 
L 123.806809 -195.538011 
L 119.788144 -195.538011 
L 115.76948 -195.538011 
L 111.750815 -195.538011 
L 107.73215 -195.538011 
L 103.713486 -195.538011 
L 99.694821 -195.538011 
L 95.676156 -195.538011 
L 91.657491 -195.538011 
L 87.638827 -195.538011 
L 83.620162 -195.538011 
L 79.601497 -195.538011 
L 75.582833 -195.538011 
L 71.564168 -195.538011 
L 67.545503 -195.538011 
L 63.526839 -195.538011 
L 59.508174 -195.538011 
z
" id="m126354baed" style="stroke:#4bc0c0;stroke-opacity:0.5;"/>
    </defs>
    <g clip-path="url(#p39a069bd87)">
     <use style="fill:#4bc0c0;fill-opacity:0.5;stroke:#4bc0c0;stroke-opacity:0.5;" x="0" xlink:href="#m126354baed" y="581.789375"/>
    </g>
   </g>
   <g id="line2d_1">
    <path clip-path="url(#p39a069bd87)" d="M 105.657013 386.139371 
L 109.650088 386.097141 
L 113.643163 386.040368 
L 117.636239 385.964575 
L 121.629314 385.864094 
L 125.62239 385.73181 
L 129.615465 385.558878 
L 133.60854 385.334393 
L 137.601616 385.04504 
L 141.594691 384.674709 
L 145.587767 384.204102 
L 149.580842 383.610328 
L 153.573917 382.866516 
L 157.566993 381.941454 
L 161.560068 380.799296 
L 165.553144 379.399346 
L 169.546219 377.695976 
L 173.539295 375.638684 
L 177.53237 373.172366 
L 181.525445 370.2378 
L 185.518521 366.772413 
L 189.511596 362.711322 
L 193.504672 357.988708 
L 197.497747 352.539497 
L 201.490822 346.301371 
L 205.483898 339.217063 
L 209.476973 331.236916 
L 213.470049 322.321628 
L 217.463124 312.445114 
L 221.456199 301.597371 
L 225.449275 289.787238 
L 229.44235 277.04491 
L 233.435426 263.424078 
L 237.428501 249.003534 
L 241.421576 233.888124 
L 245.414652 218.208919 
L 249.407727 202.122504 
L 253.400803 185.809323 
L 257.393878 169.471045 
L 261.386954 153.326975 
L 265.380029 137.609553 
L 269.373104 122.559072 
L 273.36618 108.417748 
L 277.359255 95.423357 
L 281.352331 83.802649 
L 285.345406 73.764805 
L 289.338481 65.495194 
L 293.331557 59.149682 
L 297.324632 54.849752 
L 301.317708 52.678636 
L 305.310783 52.678636 
L 309.303858 54.849752 
L 313.296934 59.149682 
L 317.290009 65.495194 
L 321.283085 73.764805 
L 325.27616 83.802649 
L 329.269235 95.423357 
L 333.262311 108.417748 
L 337.255386 122.559072 
L 341.248462 137.609553 
L 345.241537 153.326975 
L 349.234613 169.471045 
L 353.227688 185.809323 
L 357.220763 202.122504 
L 361.213839 218.208919 
L 365.206914 233.888124 
L 369.19999 249.003534 
L 373.193065 263.424078 
L 377.18614 277.04491 
L 381.179216 289.787238 
L 385.172291 301.597371 
L 389.165367 312.445114 
L 393.158442 322.321628 
L 397.151517 331.236916 
L 401.144593 339.217063 
L 405.137668 346.301371 
L 409.130744 352.539497 
L 413.123819 357.988708 
L 417.116895 362.711322 
L 421.10997 366.772413 
L 425.103045 370.2378 
L 429.096121 373.172366 
L 433.089196 375.638684 
L 437.082272 377.695976 
L 441.075347 379.399346 
L 445.068422 380.799296 
L 449.061498 381.941454 
L 453.054573 382.866516 
L 457.047649 383.610328 
L 461.040724 384.204102 
L 465.033799 384.674709 
L 469.026875 385.04504 
L 473.01995 385.334393 
L 477.013026 385.558878 
L 481.006101 385.73181 
L 484.999176 385.864094 
L 488.992252 385.964575 
L 492.985327 386.040368 
L 496.978403 386.097141 
L 500.971478 386.139371 
" style="fill:none;stroke:#ff6384;stroke-linecap:square;"/>
   </g>
   <g id="line2d_2">
    <path clip-path="url(#p39a069bd87)" d="M 58.827273 386.154391 
L 63.438843 386.117825 
L 68.050413 386.068666 
L 72.661983 386.003039 
L 77.273554 385.916034 
L 81.885124 385.801492 
L 86.496694 385.651753 
L 91.108264 385.457376 
L 95.719835 385.20683 
L 100.331405 384.886167 
L 104.942975 384.478677 
L 109.554545 383.964539 
L 114.166116 383.320485 
L 118.777686 382.519491 
L 123.389256 381.530516 
L 128.000826 380.318326 
L 132.612397 378.843408 
L 137.223967 377.062036 
L 141.835537 374.926495 
L 146.447107 372.385508 
L 151.058678 369.384892 
L 155.670248 365.868467 
L 160.281818 361.77924 
L 164.893388 357.060867 
L 169.504959 351.659386 
L 174.116529 345.525212 
L 178.728099 338.615347 
L 183.339669 330.89576 
L 187.95124 322.343865 
L 192.56281 312.951 
L 197.17438 302.724819 
L 201.78595 291.691467 
L 206.397521 279.897435 
L 211.009091 267.410946 
L 215.620661 254.322786 
L 220.232231 240.746445 
L 224.843802 226.817509 
L 229.455372 212.69222 
L 234.066942 198.5452 
L 238.678512 184.566341 
L 243.290083 170.95691 
L 247.901653 157.92497 
L 252.513223 145.680253 
L 257.124793 134.428644 
L 261.736364 124.366483 
L 266.347934 115.674895 
L 270.959504 108.514388 
L 275.571074 103.019923 
L 280.182645 99.296692 
L 284.794215 97.416762 
L 289.405785 97.416762 
L 294.017355 99.296692 
L 298.628926 103.019923 
L 303.240496 108.514388 
L 307.852066 115.674895 
L 312.463636 124.366483 
L 317.075207 134.428644 
L 321.686777 145.680253 
L 326.298347 157.92497 
L 330.909917 170.95691 
L 335.521488 184.566341 
L 340.133058 198.5452 
L 344.744628 212.69222 
L 349.356198 226.817509 
L 353.967769 240.746445 
L 358.579339 254.322786 
L 363.190909 267.410946 
L 367.802479 279.897435 
L 372.41405 291.691467 
L 377.02562 302.724819 
L 381.63719 312.951 
L 386.24876 322.343865 
L 390.860331 330.89576 
L 395.471901 338.615347 
L 400.083471 345.525212 
L 404.695041 351.659386 
L 409.306612 357.060867 
L 413.918182 361.77924 
L 418.529752 365.868467 
L 423.141322 369.384892 
L 427.752893 372.385508 
L 432.364463 374.926495 
L 436.976033 377.062036 
L 441.587603 378.843408 
L 446.199174 380.318326 
L 450.810744 381.530516 
L 455.422314 382.519491 
L 460.033884 383.320485 
L 464.645455 383.964539 
L 469.257025 384.478677 
L 473.868595 384.886167 
L 478.480165 385.20683 
L 483.091736 385.457376 
L 487.703306 385.651753 
L 492.314876 385.801492 
L 496.926446 385.916034 
L 501.538017 386.003039 
L 506.149587 386.068666 
L 510.761157 386.117825 
L 515.372727 386.154391 
" style="fill:none;stroke:#36a2eb;stroke-linecap:square;"/>
   </g>
   <g id="line2d_3">
    <path clip-path="url(#p39a069bd87)" d="M 59.508174 386.140084 
L 63.526839 386.098123 
L 67.545503 386.041712 
L 71.564168 385.966401 
L 75.582833 385.86656 
L 79.601497 385.735118 
L 83.620162 385.563288 
L 87.638827 385.340232 
L 91.657491 385.052721 
L 95.676156 384.684749 
L 99.694821 384.217138 
L 103.713486 383.627145 
L 107.73215 382.888069 
L 111.750815 381.968898 
L 115.76948 380.834012 
L 119.788144 379.442977 
L 123.806809 377.750453 
L 127.825474 375.706262 
L 131.844138 373.255648 
L 135.862803 370.339769 
L 139.881468 366.896447 
L 143.900132 362.861216 
L 147.918797 358.168673 
L 151.937462 352.754161 
L 155.956127 346.555757 
L 159.974791 339.516559 
L 163.993456 331.587226 
L 168.012121 322.728708 
L 172.030785 312.915084 
L 176.04945 302.136415 
L 180.068115 290.401483 
L 184.086779 277.740294 
L 188.105444 264.206194 
L 192.124109 249.877474 
L 196.142774 234.858314 
L 200.161438 219.278948 
L 204.180103 203.294965 
L 208.198768 187.085659 
L 212.217432 170.851418 
L 216.236097 154.810147 
L 220.254762 139.192807 
L 224.273426 124.238162 
L 228.292091 110.186884 
L 232.310756 97.275236 
L 236.329421 85.728524 
L 240.348085 75.754598 
L 244.36675 67.537644 
L 248.385415 61.232538 
L 252.404079 56.959988 
L 256.422744 54.802697 
L 260.441409 54.802697 
L 264.460073 56.959988 
L 268.478738 61.232538 
L 272.497403 67.537644 
L 276.516068 75.754598 
L 280.534732 85.728524 
L 284.553397 97.275236 
L 288.572062 110.186884 
L 292.590726 124.238162 
L 296.609391 139.192807 
L 300.628056 154.810147 
L 304.64672 170.851418 
L 308.665385 187.085659 
L 312.68405 203.294965 
L 316.702715 219.278948 
L 320.721379 234.858314 
L 324.740044 249.877474 
L 328.758709 264.206194 
L 332.777373 277.740294 
L 336.796038 290.401483 
L 340.814703 302.136415 
L 344.833367 312.915084 
L 348.852032 322.728708 
L 352.870697 331.587226 
L 356.889362 339.516559 
L 360.908026 346.555757 
L 364.926691 352.754161 
L 368.945356 358.168673 
L 372.96402 362.861216 
L 376.982685 366.896447 
L 381.00135 370.339769 
L 385.020014 373.255648 
L 389.038679 375.706262 
L 393.057344 377.750453 
L 397.076009 379.442977 
L 401.094673 380.834012 
L 405.113338 381.968898 
L 409.132003 382.888069 
L 413.150667 383.627145 
L 417.169332 384.217138 
L 421.187997 384.684749 
L 425.206661 385.052721 
L 429.225326 385.340232 
L 433.243991 385.563288 
L 437.262656 385.735118 
L 441.28132 385.86656 
L 445.299985 385.966401 
L 449.31865 386.041712 
L 453.337314 386.098123 
L 457.355979 386.140084 
" style="fill:none;stroke:#4bc0c0;stroke-linecap:square;"/>
   </g>
   <g id="patch_3">
    <path d="M 36 402.93 
L 538.2 402.93 
" style="fill:none;stroke:#000000;stroke-linecap:square;stroke-linejoin:miter;stroke-width:0.8;"/>
   </g>
   <g id="legend_1">
    <g id="patch_4">
     <path d="M 421.16 109.2375 
L 528.4 109.2375 
Q 531.2 109.2375 531.2 106.4375 
L 531.2 45.8 
Q 531.2 43 528.4 43 
L 421.16 43 
Q 418.36 43 418.36 45.8 
L 418.36 106.4375 
Q 418.36 109.2375 421.16 109.2375 
z
" style="fill:#ffffff;opacity:0.8;stroke:#cccccc;stroke-linejoin:miter;"/>
    </g>
    <g id="patch_5">
     <path d="M 423.96 59.237813 
L 451.96 59.237813 
L 451.96 49.437813 
L 423.96 49.437813 
z
" style="fill:#ff6384;opacity:0.5;stroke:#ff6384;stroke-linejoin:miter;"/>
    </g>
    <g id="text_1">
     <!-- base -->
     <defs>
      <path d="M 48.6875 27.296875 
Q 48.6875 37.203125 44.609375 42.84375 
Q 40.53125 48.484375 33.40625 48.484375 
Q 26.265625 48.484375 22.1875 42.84375 
Q 18.109375 37.203125 18.109375 27.296875 
Q 18.109375 17.390625 22.1875 11.75 
Q 26.265625 6.109375 33.40625 6.109375 
Q 40.53125 6.109375 44.609375 11.75 
Q 48.6875 17.390625 48.6875 27.296875 
z
M 18.109375 46.390625 
Q 20.953125 51.265625 25.265625 53.625 
Q 29.59375 56 35.59375 56 
Q 45.5625 56 51.78125 48.09375 
Q 58.015625 40.1875 58.015625 27.296875 
Q 58.015625 14.40625 51.78125 6.484375 
Q 45.5625 -1.421875 35.59375 -1.421875 
Q 29.59375 -1.421875 25.265625 0.953125 
Q 20.953125 3.328125 18.109375 8.203125 
L 18.109375 0 
L 9.078125 0 
L 9.078125 75.984375 
L 18.109375 75.984375 
z
" id="DejaVuSans-98"/>
      <path d="M 34.28125 27.484375 
Q 23.390625 27.484375 19.1875 25 
Q 14.984375 22.515625 14.984375 16.5 
Q 14.984375 11.71875 18.140625 8.90625 
Q 21.296875 6.109375 26.703125 6.109375 
Q 34.1875 6.109375 38.703125 11.40625 
Q 43.21875 16.703125 43.21875 25.484375 
L 43.21875 27.484375 
z
M 52.203125 31.203125 
L 52.203125 0 
L 43.21875 0 
L 43.21875 8.296875 
Q 40.140625 3.328125 35.546875 0.953125 
Q 30.953125 -1.421875 24.3125 -1.421875 
Q 15.921875 -1.421875 10.953125 3.296875 
Q 6 8.015625 6 15.921875 
Q 6 25.140625 12.171875 29.828125 
Q 18.359375 34.515625 30.609375 34.515625 
L 43.21875 34.515625 
L 43.21875 35.40625 
Q 43.21875 41.609375 39.140625 45 
Q 35.0625 48.390625 27.6875 48.390625 
Q 23 48.390625 18.546875 47.265625 
Q 14.109375 46.140625 10.015625 43.890625 
L 10.015625 52.203125 
Q 14.9375 54.109375 19.578125 55.046875 
Q 24.21875 56 28.609375 56 
Q 40.484375 56 46.34375 49.84375 
Q 52.203125 43.703125 52.203125 31.203125 
z
" id="DejaVuSans-97"/>
      <path d="M 44.28125 53.078125 
L 44.28125 44.578125 
Q 40.484375 46.53125 36.375 47.5 
Q 32.28125 48.484375 27.875 48.484375 
Q 21.1875 48.484375 17.84375 46.4375 
Q 14.5 44.390625 14.5 40.28125 
Q 14.5 37.15625 16.890625 35.375 
Q 19.28125 33.59375 26.515625 31.984375 
L 29.59375 31.296875 
Q 39.15625 29.25 43.1875 25.515625 
Q 47.21875 21.78125 47.21875 15.09375 
Q 47.21875 7.46875 41.1875 3.015625 
Q 35.15625 -1.421875 24.609375 -1.421875 
Q 20.21875 -1.421875 15.453125 -0.5625 
Q 10.6875 0.296875 5.421875 2 
L 5.421875 11.28125 
Q 10.40625 8.6875 15.234375 7.390625 
Q 20.0625 6.109375 24.8125 6.109375 
Q 31.15625 6.109375 34.5625 8.28125 
Q 37.984375 10.453125 37.984375 14.40625 
Q 37.984375 18.0625 35.515625 20.015625 
Q 33.0625 21.96875 24.703125 23.78125 
L 21.578125 24.515625 
Q 13.234375 26.265625 9.515625 29.90625 
Q 5.8125 33.546875 5.8125 39.890625 
Q 5.8125 47.609375 11.28125 51.796875 
Q 16.75 56 26.8125 56 
Q 31.78125 56 36.171875 55.265625 
Q 40.578125 54.546875 44.28125 53.078125 
z
" id="DejaVuSans-115"/>
      <path d="M 56.203125 29.59375 
L 56.203125 25.203125 
L 14.890625 25.203125 
Q 15.484375 15.921875 20.484375 11.0625 
Q 25.484375 6.203125 34.421875 6.203125 
Q 39.59375 6.203125 44.453125 7.46875 
Q 49.3125 8.734375 54.109375 11.28125 
L 54.109375 2.78125 
Q 49.265625 0.734375 44.1875 -0.34375 
Q 39.109375 -1.421875 33.890625 -1.421875 
Q 20.796875 -1.421875 13.15625 6.1875 
Q 5.515625 13.8125 5.515625 26.8125 
Q 5.515625 40.234375 12.765625 48.109375 
Q 20.015625 56 32.328125 56 
Q 43.359375 56 49.78125 48.890625 
Q 56.203125 41.796875 56.203125 29.59375 
z
M 47.21875 32.234375 
Q 47.125 39.59375 43.09375 43.984375 
Q 39.0625 48.390625 32.421875 48.390625 
Q 24.90625 48.390625 20.390625 44.140625 
Q 15.875 39.890625 15.1875 32.171875 
z
" id="DejaVuSans-101"/>
     </defs>
     <g transform="translate(463.16 59.237813)scale(0.14 -0.14)">
      <use xlink:href="#DejaVuSans-98"/>
      <use x="63.476562" xlink:href="#DejaVuSans-97"/>
      <use x="124.755859" xlink:href="#DejaVuSans-115"/>
      <use x="176.855469" xlink:href="#DejaVuSans-101"/>
     </g>
    </g>
    <g id="patch_6">
     <path d="M 423.96 79.787188 
L 451.96 79.787188 
L 451.96 69.987188 
L 423.96 69.987188 
z
" style="fill:#36a2eb;opacity:0.5;stroke:#36a2eb;stroke-linejoin:miter;"/>
    </g>
    <g id="text_2">
     <!-- mid -->
     <defs>
      <path d="M 52 44.1875 
Q 55.375 50.25 60.0625 53.125 
Q 64.75 56 71.09375 56 
Q 79.640625 56 84.28125 50.015625 
Q 88.921875 44.046875 88.921875 33.015625 
L 88.921875 0 
L 79.890625 0 
L 79.890625 32.71875 
Q 79.890625 40.578125 77.09375 44.375 
Q 74.3125 48.1875 68.609375 48.1875 
Q 61.625 48.1875 57.5625 43.546875 
Q 53.515625 38.921875 53.515625 30.90625 
L 53.515625 0 
L 44.484375 0 
L 44.484375 32.71875 
Q 44.484375 40.625 41.703125 44.40625 
Q 38.921875 48.1875 33.109375 48.1875 
Q 26.21875 48.1875 22.15625 43.53125 
Q 18.109375 38.875 18.109375 30.90625 
L 18.109375 0 
L 9.078125 0 
L 9.078125 54.6875 
L 18.109375 54.6875 
L 18.109375 46.1875 
Q 21.1875 51.21875 25.484375 53.609375 
Q 29.78125 56 35.6875 56 
Q 41.65625 56 45.828125 52.96875 
Q 50 49.953125 52 44.1875 
z
" id="DejaVuSans-109"/>
      <path d="M 9.421875 54.6875 
L 18.40625 54.6875 
L 18.40625 0 
L 9.421875 0 
z
M 9.421875 75.984375 
L 18.40625 75.984375 
L 18.40625 64.59375 
L 9.421875 64.59375 
z
" id="DejaVuSans-105"/>
      <path d="M 45.40625 46.390625 
L 45.40625 75.984375 
L 54.390625 75.984375 
L 54.390625 0 
L 45.40625 0 
L 45.40625 8.203125 
Q 42.578125 3.328125 38.25 0.953125 
Q 33.9375 -1.421875 27.875 -1.421875 
Q 17.96875 -1.421875 11.734375 6.484375 
Q 5.515625 14.40625 5.515625 27.296875 
Q 5.515625 40.1875 11.734375 48.09375 
Q 17.96875 56 27.875 56 
Q 33.9375 56 38.25 53.625 
Q 42.578125 51.265625 45.40625 46.390625 
z
M 14.796875 27.296875 
Q 14.796875 17.390625 18.875 11.75 
Q 22.953125 6.109375 30.078125 6.109375 
Q 37.203125 6.109375 41.296875 11.75 
Q 45.40625 17.390625 45.40625 27.296875 
Q 45.40625 37.203125 41.296875 42.84375 
Q 37.203125 48.484375 30.078125 48.484375 
Q 22.953125 48.484375 18.875 42.84375 
Q 14.796875 37.203125 14.796875 27.296875 
z
" id="DejaVuSans-100"/>
     </defs>
     <g transform="translate(463.16 79.787188)scale(0.14 -0.14)">
      <use xlink:href="#DejaVuSans-109"/>
      <use x="97.412109" xlink:href="#DejaVuSans-105"/>
      <use x="125.195312" xlink:href="#DejaVuSans-100"/>
     </g>
    </g>
    <g id="patch_7">
     <path d="M 423.96 100.336563 
L 451.96 100.336563 
L 451.96 90.536563 
L 423.96 90.536563 
z
" style="fill:#4bc0c0;opacity:0.5;stroke:#4bc0c0;stroke-linejoin:miter;"/>
    </g>
    <g id="text_3">
     <!-- mid_icon -->
     <defs>
      <path d="M 50.984375 -16.609375 
L 50.984375 -23.578125 
L -0.984375 -23.578125 
L -0.984375 -16.609375 
z
" id="DejaVuSans-95"/>
      <path d="M 48.78125 52.59375 
L 48.78125 44.1875 
Q 44.96875 46.296875 41.140625 47.34375 
Q 37.3125 48.390625 33.40625 48.390625 
Q 24.65625 48.390625 19.8125 42.84375 
Q 14.984375 37.3125 14.984375 27.296875 
Q 14.984375 17.28125 19.8125 11.734375 
Q 24.65625 6.203125 33.40625 6.203125 
Q 37.3125 6.203125 41.140625 7.25 
Q 44.96875 8.296875 48.78125 10.40625 
L 48.78125 2.09375 
Q 45.015625 0.34375 40.984375 -0.53125 
Q 36.96875 -1.421875 32.421875 -1.421875 
Q 20.0625 -1.421875 12.78125 6.34375 
Q 5.515625 14.109375 5.515625 27.296875 
Q 5.515625 40.671875 12.859375 48.328125 
Q 20.21875 56 33.015625 56 
Q 37.15625 56 41.109375 55.140625 
Q 45.0625 54.296875 48.78125 52.59375 
z
" id="DejaVuSans-99"/>
      <path d="M 30.609375 48.390625 
Q 23.390625 48.390625 19.1875 42.75 
Q 14.984375 37.109375 14.984375 27.296875 
Q 14.984375 17.484375 19.15625 11.84375 
Q 23.34375 6.203125 30.609375 6.203125 
Q 37.796875 6.203125 41.984375 11.859375 
Q 46.1875 17.53125 46.1875 27.296875 
Q 46.1875 37.015625 41.984375 42.703125 
Q 37.796875 48.390625 30.609375 48.390625 
z
M 30.609375 56 
Q 42.328125 56 49.015625 48.375 
Q 55.71875 40.765625 55.71875 27.296875 
Q 55.71875 13.875 49.015625 6.21875 
Q 42.328125 -1.421875 30.609375 -1.421875 
Q 18.84375 -1.421875 12.171875 6.21875 
Q 5.515625 13.875 5.515625 27.296875 
Q 5.515625 40.765625 12.171875 48.375 
Q 18.84375 56 30.609375 56 
z
" id="DejaVuSans-111"/>
      <path d="M 54.890625 33.015625 
L 54.890625 0 
L 45.90625 0 
L 45.90625 32.71875 
Q 45.90625 40.484375 42.875 44.328125 
Q 39.84375 48.1875 33.796875 48.1875 
Q 26.515625 48.1875 22.3125 43.546875 
Q 18.109375 38.921875 18.109375 30.90625 
L 18.109375 0 
L 9.078125 0 
L 9.078125 54.6875 
L 18.109375 54.6875 
L 18.109375 46.1875 
Q 21.34375 51.125 25.703125 53.5625 
Q 30.078125 56 35.796875 56 
Q 45.21875 56 50.046875 50.171875 
Q 54.890625 44.34375 54.890625 33.015625 
z
" id="DejaVuSans-110"/>
     </defs>
     <g transform="translate(463.16 100.336563)scale(0.14 -0.14)">
      <use xlink:href="#DejaVuSans-109"/>
      <use x="97.412109" xlink:href="#DejaVuSans-105"/>
      <use x="125.195312" xlink:href="#DejaVuSans-100"/>
      <use x="188.671875" xlink:href="#DejaVuSans-95"/>
      <use x="238.671875" xlink:href="#DejaVuSans-105"/>
      <use x="266.455078" xlink:href="#DejaVuSans-99"/>
      <use x="321.435547" xlink:href="#DejaVuSans-111"/>
      <use x="382.617188" xlink:href="#DejaVuSans-110"/>
     </g>
    </g>
   </g>
  </g>
  <g id="axes_2">
   <g id="patch_8">
    <path d="M 36 525.24 
L 538.2 525.24 
L 538.2 402.93 
L 36 402.93 
z
" style="fill:none;"/>
   </g>
   <g id="patch_9">
    <path clip-path="url(#p27195cd88d)" d="M 206.462201 519.680455 
L 400.166289 519.680455 
L 400.166289 497.442273 
L 206.462201 497.442273 
z
" style="fill:#ff6384;opacity:0.5;"/>
   </g>
   <g id="patch_10">
    <path clip-path="url(#p27195cd88d)" d="M 175.246364 475.204091 
L 398.953636 475.204091 
L 398.953636 452.965909 
L 175.246364 452.965909 
z
" style="fill:#36a2eb;opacity:0.5;"/>
   </g>
   <g id="patch_11">
    <path clip-path="url(#p27195cd88d)" d="M 160.959364 430.727727 
L 355.904789 430.727727 
L 355.904789 408.489545 
L 160.959364 408.489545 
z
" style="fill:#4bc0c0;opacity:0.5;"/>
   </g>
   <g id="matplotlib.axis_1">
    <g id="xtick_1">
     <g id="line2d_4">
      <defs>
       <path d="M 0 0 
L 0 3.5 
" id="ma8397b5051" style="stroke:#000000;stroke-width:0.8;"/>
      </defs>
      <g>
       <use style="stroke:#000000;stroke-width:0.8;" x="89.462572" xlink:href="#ma8397b5051" y="525.24"/>
      </g>
     </g>
     <g id="text_4">
      <!-- 10 -->
      <defs>
       <path d="M 12.40625 8.296875 
L 28.515625 8.296875 
L 28.515625 63.921875 
L 10.984375 60.40625 
L 10.984375 69.390625 
L 28.421875 72.90625 
L 38.28125 72.90625 
L 38.28125 8.296875 
L 54.390625 8.296875 
L 54.390625 0 
L 12.40625 0 
z
" id="DejaVuSans-49"/>
       <path d="M 31.78125 66.40625 
Q 24.171875 66.40625 20.328125 58.90625 
Q 16.5 51.421875 16.5 36.375 
Q 16.5 21.390625 20.328125 13.890625 
Q 24.171875 6.390625 31.78125 6.390625 
Q 39.453125 6.390625 43.28125 13.890625 
Q 47.125 21.390625 47.125 36.375 
Q 47.125 51.421875 43.28125 58.90625 
Q 39.453125 66.40625 31.78125 66.40625 
z
M 31.78125 74.21875 
Q 44.046875 74.21875 50.515625 64.515625 
Q 56.984375 54.828125 56.984375 36.375 
Q 56.984375 17.96875 50.515625 8.265625 
Q 44.046875 -1.421875 31.78125 -1.421875 
Q 19.53125 -1.421875 13.0625 8.265625 
Q 6.59375 17.96875 6.59375 36.375 
Q 6.59375 54.828125 13.0625 64.515625 
Q 19.53125 74.21875 31.78125 74.21875 
z
" id="DejaVuSans-48"/>
      </defs>
      <g transform="translate(80.555072 542.877813)scale(0.14 -0.14)">
       <use xlink:href="#DejaVuSans-49"/>
       <use x="63.623047" xlink:href="#DejaVuSans-48"/>
      </g>
     </g>
    </g>
    <g id="xtick_2">
     <g id="line2d_5">
      <g>
       <use style="stroke:#000000;stroke-width:0.8;" x="146.354661" xlink:href="#ma8397b5051" y="525.24"/>
      </g>
     </g>
     <g id="text_5">
      <!-- 11 -->
      <g transform="translate(137.447161 542.877813)scale(0.14 -0.14)">
       <use xlink:href="#DejaVuSans-49"/>
       <use x="63.623047" xlink:href="#DejaVuSans-49"/>
      </g>
     </g>
    </g>
    <g id="xtick_3">
     <g id="line2d_6">
      <g>
       <use style="stroke:#000000;stroke-width:0.8;" x="203.24675" xlink:href="#ma8397b5051" y="525.24"/>
      </g>
     </g>
     <g id="text_6">
      <!-- 12 -->
      <defs>
       <path d="M 19.1875 8.296875 
L 53.609375 8.296875 
L 53.609375 0 
L 7.328125 0 
L 7.328125 8.296875 
Q 12.9375 14.109375 22.625 23.890625 
Q 32.328125 33.6875 34.8125 36.53125 
Q 39.546875 41.84375 41.421875 45.53125 
Q 43.3125 49.21875 43.3125 52.78125 
Q 43.3125 58.59375 39.234375 62.25 
Q 35.15625 65.921875 28.609375 65.921875 
Q 23.96875 65.921875 18.8125 64.3125 
Q 13.671875 62.703125 7.8125 59.421875 
L 7.8125 69.390625 
Q 13.765625 71.78125 18.9375 73 
Q 24.125 74.21875 28.421875 74.21875 
Q 39.75 74.21875 46.484375 68.546875 
Q 53.21875 62.890625 53.21875 53.421875 
Q 53.21875 48.921875 51.53125 44.890625 
Q 49.859375 40.875 45.40625 35.40625 
Q 44.1875 33.984375 37.640625 27.21875 
Q 31.109375 20.453125 19.1875 8.296875 
z
" id="DejaVuSans-50"/>
      </defs>
      <g transform="translate(194.33925 542.877813)scale(0.14 -0.14)">
       <use xlink:href="#DejaVuSans-49"/>
       <use x="63.623047" xlink:href="#DejaVuSans-50"/>
      </g>
     </g>
    </g>
    <g id="xtick_4">
     <g id="line2d_7">
      <g>
       <use style="stroke:#000000;stroke-width:0.8;" x="260.138839" xlink:href="#ma8397b5051" y="525.24"/>
      </g>
     </g>
     <g id="text_7">
      <!-- 13 -->
      <defs>
       <path d="M 40.578125 39.3125 
Q 47.65625 37.796875 51.625 33 
Q 55.609375 28.21875 55.609375 21.1875 
Q 55.609375 10.40625 48.1875 4.484375 
Q 40.765625 -1.421875 27.09375 -1.421875 
Q 22.515625 -1.421875 17.65625 -0.515625 
Q 12.796875 0.390625 7.625 2.203125 
L 7.625 11.71875 
Q 11.71875 9.328125 16.59375 8.109375 
Q 21.484375 6.890625 26.8125 6.890625 
Q 36.078125 6.890625 40.9375 10.546875 
Q 45.796875 14.203125 45.796875 21.1875 
Q 45.796875 27.640625 41.28125 31.265625 
Q 36.765625 34.90625 28.71875 34.90625 
L 20.21875 34.90625 
L 20.21875 43.015625 
L 29.109375 43.015625 
Q 36.375 43.015625 40.234375 45.921875 
Q 44.09375 48.828125 44.09375 54.296875 
Q 44.09375 59.90625 40.109375 62.90625 
Q 36.140625 65.921875 28.71875 65.921875 
Q 24.65625 65.921875 20.015625 65.03125 
Q 15.375 64.15625 9.8125 62.3125 
L 9.8125 71.09375 
Q 15.4375 72.65625 20.34375 73.4375 
Q 25.25 74.21875 29.59375 74.21875 
Q 40.828125 74.21875 47.359375 69.109375 
Q 53.90625 64.015625 53.90625 55.328125 
Q 53.90625 49.265625 50.4375 45.09375 
Q 46.96875 40.921875 40.578125 39.3125 
z
" id="DejaVuSans-51"/>
      </defs>
      <g transform="translate(251.231339 542.877813)scale(0.14 -0.14)">
       <use xlink:href="#DejaVuSans-49"/>
       <use x="63.623047" xlink:href="#DejaVuSans-51"/>
      </g>
     </g>
    </g>
    <g id="xtick_5">
     <g id="line2d_8">
      <g>
       <use style="stroke:#000000;stroke-width:0.8;" x="317.030928" xlink:href="#ma8397b5051" y="525.24"/>
      </g>
     </g>
     <g id="text_8">
      <!-- 14 -->
      <defs>
       <path d="M 37.796875 64.3125 
L 12.890625 25.390625 
L 37.796875 25.390625 
z
M 35.203125 72.90625 
L 47.609375 72.90625 
L 47.609375 25.390625 
L 58.015625 25.390625 
L 58.015625 17.1875 
L 47.609375 17.1875 
L 47.609375 0 
L 37.796875 0 
L 37.796875 17.1875 
L 4.890625 17.1875 
L 4.890625 26.703125 
z
" id="DejaVuSans-52"/>
      </defs>
      <g transform="translate(308.123428 542.877813)scale(0.14 -0.14)">
       <use xlink:href="#DejaVuSans-49"/>
       <use x="63.623047" xlink:href="#DejaVuSans-52"/>
      </g>
     </g>
    </g>
    <g id="xtick_6">
     <g id="line2d_9">
      <g>
       <use style="stroke:#000000;stroke-width:0.8;" x="373.923017" xlink:href="#ma8397b5051" y="525.24"/>
      </g>
     </g>
     <g id="text_9">
      <!-- 15 -->
      <defs>
       <path d="M 10.796875 72.90625 
L 49.515625 72.90625 
L 49.515625 64.59375 
L 19.828125 64.59375 
L 19.828125 46.734375 
Q 21.96875 47.46875 24.109375 47.828125 
Q 26.265625 48.1875 28.421875 48.1875 
Q 40.625 48.1875 47.75 41.5 
Q 54.890625 34.8125 54.890625 23.390625 
Q 54.890625 11.625 47.5625 5.09375 
Q 40.234375 -1.421875 26.90625 -1.421875 
Q 22.3125 -1.421875 17.546875 -0.640625 
Q 12.796875 0.140625 7.71875 1.703125 
L 7.71875 11.625 
Q 12.109375 9.234375 16.796875 8.0625 
Q 21.484375 6.890625 26.703125 6.890625 
Q 35.15625 6.890625 40.078125 11.328125 
Q 45.015625 15.765625 45.015625 23.390625 
Q 45.015625 31 40.078125 35.4375 
Q 35.15625 39.890625 26.703125 39.890625 
Q 22.75 39.890625 18.8125 39.015625 
Q 14.890625 38.140625 10.796875 36.28125 
z
" id="DejaVuSans-53"/>
      </defs>
      <g transform="translate(365.015517 542.877813)scale(0.14 -0.14)">
       <use xlink:href="#DejaVuSans-49"/>
       <use x="63.623047" xlink:href="#DejaVuSans-53"/>
      </g>
     </g>
    </g>
    <g id="xtick_7">
     <g id="line2d_10">
      <g>
       <use style="stroke:#000000;stroke-width:0.8;" x="430.815106" xlink:href="#ma8397b5051" y="525.24"/>
      </g>
     </g>
     <g id="text_10">
      <!-- 16 -->
      <defs>
       <path d="M 33.015625 40.375 
Q 26.375 40.375 22.484375 35.828125 
Q 18.609375 31.296875 18.609375 23.390625 
Q 18.609375 15.53125 22.484375 10.953125 
Q 26.375 6.390625 33.015625 6.390625 
Q 39.65625 6.390625 43.53125 10.953125 
Q 47.40625 15.53125 47.40625 23.390625 
Q 47.40625 31.296875 43.53125 35.828125 
Q 39.65625 40.375 33.015625 40.375 
z
M 52.59375 71.296875 
L 52.59375 62.3125 
Q 48.875 64.0625 45.09375 64.984375 
Q 41.3125 65.921875 37.59375 65.921875 
Q 27.828125 65.921875 22.671875 59.328125 
Q 17.53125 52.734375 16.796875 39.40625 
Q 19.671875 43.65625 24.015625 45.921875 
Q 28.375 48.1875 33.59375 48.1875 
Q 44.578125 48.1875 50.953125 41.515625 
Q 57.328125 34.859375 57.328125 23.390625 
Q 57.328125 12.15625 50.6875 5.359375 
Q 44.046875 -1.421875 33.015625 -1.421875 
Q 20.359375 -1.421875 13.671875 8.265625 
Q 6.984375 17.96875 6.984375 36.375 
Q 6.984375 53.65625 15.1875 63.9375 
Q 23.390625 74.21875 37.203125 74.21875 
Q 40.921875 74.21875 44.703125 73.484375 
Q 48.484375 72.75 52.59375 71.296875 
z
" id="DejaVuSans-54"/>
      </defs>
      <g transform="translate(421.907606 542.877813)scale(0.14 -0.14)">
       <use xlink:href="#DejaVuSans-49"/>
       <use x="63.623047" xlink:href="#DejaVuSans-54"/>
      </g>
     </g>
    </g>
    <g id="xtick_8">
     <g id="line2d_11">
      <g>
       <use style="stroke:#000000;stroke-width:0.8;" x="487.707195" xlink:href="#ma8397b5051" y="525.24"/>
      </g>
     </g>
     <g id="text_11">
      <!-- 17 -->
      <defs>
       <path d="M 8.203125 72.90625 
L 55.078125 72.90625 
L 55.078125 68.703125 
L 28.609375 0 
L 18.3125 0 
L 43.21875 64.59375 
L 8.203125 64.59375 
z
" id="DejaVuSans-55"/>
      </defs>
      <g transform="translate(478.799695 542.877813)scale(0.14 -0.14)">
       <use xlink:href="#DejaVuSans-49"/>
       <use x="63.623047" xlink:href="#DejaVuSans-55"/>
      </g>
     </g>
    </g>
   </g>
   <g id="line2d_12">
    <path clip-path="url(#p27195cd88d)" d="M 303.314245 525.24 
L 303.314245 402.93 
" style="fill:none;stroke:#ff6384;stroke-dasharray:5.55,2.4;stroke-dashoffset:0;stroke-opacity:0.8;stroke-width:1.5;"/>
   </g>
   <g id="line2d_13">
    <path clip-path="url(#p27195cd88d)" d="M 287.1 525.24 
L 287.1 402.93 
" style="fill:none;stroke:#36a2eb;stroke-dasharray:5.55,2.4;stroke-dashoffset:0;stroke-opacity:0.8;stroke-width:1.5;"/>
   </g>
   <g id="line2d_14">
    <path clip-path="url(#p27195cd88d)" d="M 258.432076 525.24 
L 258.432076 402.93 
" style="fill:none;stroke:#4bc0c0;stroke-dasharray:5.55,2.4;stroke-dashoffset:0;stroke-opacity:0.8;stroke-width:1.5;"/>
   </g>
   <g id="patch_12">
    <path d="M 36 525.24 
L 538.2 525.24 
" style="fill:none;stroke:#000000;stroke-linecap:square;stroke-linejoin:miter;stroke-width:0.8;"/>
   </g>
  </g>
 </g>
 <defs>
  <clipPath id="p39a069bd87">
   <rect height="366.93" width="502.2" x="36" y="36"/>
  </clipPath>
  <clipPath id="p27195cd88d">
   <rect height="122.31" width="502.2" x="36" y="402.93"/>
  </clipPath>
 </defs>
</svg>
