<?xml version="1.0" encoding="utf-8" standalone="no"?>
<!DOCTYPE svg PUBLIC "-//W3C//DTD SVG 1.1//EN"
  "http://www.w3.org/Graphics/SVG/1.1/DTD/svg11.dtd">
<!-- Created with matplotlib (https://matplotlib.org/) -->
<svg height="581.789375pt" version="1.1" viewBox="0 0 574.2 581.789375" width="574.2pt" xmlns="http://www.w3.org/2000/svg" xmlns:xlink="http://www.w3.org/1999/xlink">
 <defs>
  <style type="text/css">
*{stroke-linecap:butt;stroke-linejoin:round;}
  </style>
 </defs>
 <g id="figure_1">
  <g id="patch_1">
   <path d="M 0 581.789375 
L 574.2 581.789375 
L 574.2 0 
L 0 0 
z
" style="fill:none;"/>
  </g>
  <g id="axes_1">
   <g id="patch_2">
    <path d="M 36 402.93 
L 538.2 402.93 
L 538.2 36 
L 36 36 
z
" style="fill:none;"/>
   </g>
   <g id="PolyCollection_1">
    <defs>
     <path d="M 82.213535 -195.538011 
L 82.213535 -195.649211 
L 86.58888 -195.691142 
L 90.964226 -195.747513 
L 95.339571 -195.822769 
L 99.714917 -195.922539 
L 104.090262 -196.053886 
L 108.465607 -196.225594 
L 112.840953 -196.448489 
L 117.216298 -196.735794 
L 121.591643 -197.103502 
L 125.966989 -197.570777 
L 130.342334 -198.160347 
L 134.71768 -198.898893 
L 139.093025 -199.817405 
L 143.46837 -200.951476 
L 147.843716 -202.341513 
L 152.219061 -204.032823 
L 156.594406 -206.075547 
L 160.969752 -208.524403 
L 165.345097 -211.43819 
L 169.720443 -214.879041 
L 174.095788 -218.911377 
L 178.471133 -223.600553 
L 182.846479 -229.01118 
L 187.221824 -235.205137 
L 191.597169 -242.239284 
L 195.972515 -250.162928 
L 200.34786 -259.01509 
L 204.723206 -268.821673 
L 209.098551 -279.592609 
L 213.473896 -291.31912 
L 217.849242 -303.971226 
L 222.224587 -317.495615 
L 226.599932 -331.814054 
L 230.975278 -346.822439 
L 235.350623 -362.390626 
L 239.725969 -378.363141 
L 244.101314 -394.560817 
L 248.476659 -410.78341 
L 252.852005 -426.813172 
L 257.22735 -442.419306 
L 261.602695 -457.363222 
L 265.978041 -471.404418 
L 270.353386 -484.306802 
L 274.728732 -495.845229 
L 279.104077 -505.812 
L 283.479422 -514.023058 
L 287.854768 -520.32364 
L 292.230113 -524.593124 
L 296.605458 -526.748867 
L 300.980804 -526.748867 
L 305.356149 -524.593124 
L 309.731495 -520.32364 
L 314.10684 -514.023058 
L 318.482185 -505.812 
L 322.857531 -495.845229 
L 327.232876 -484.306802 
L 331.608221 -471.404418 
L 335.983567 -457.363222 
L 340.358912 -442.419306 
L 344.734258 -426.813172 
L 349.109603 -410.78341 
L 353.484948 -394.560817 
L 357.860294 -378.363141 
L 362.235639 -362.390626 
L 366.610984 -346.822439 
L 370.98633 -331.814054 
L 375.361675 -317.495615 
L 379.737021 -303.971226 
L 384.112366 -291.31912 
L 388.487711 -279.592609 
L 392.863057 -268.821673 
L 397.238402 -259.01509 
L 401.613747 -250.162928 
L 405.989093 -242.239284 
L 410.364438 -235.205137 
L 414.739784 -229.01118 
L 419.115129 -223.600553 
L 423.490474 -218.911377 
L 427.86582 -214.879041 
L 432.241165 -211.43819 
L 436.616511 -208.524403 
L 440.991856 -206.075547 
L 445.367201 -204.032823 
L 449.742547 -202.341513 
L 454.117892 -200.951476 
L 458.493237 -199.817405 
L 462.868583 -198.898893 
L 467.243928 -198.160347 
L 471.619274 -197.570777 
L 475.994619 -197.103502 
L 480.369964 -196.735794 
L 484.74531 -196.448489 
L 489.120655 -196.225594 
L 493.496 -196.053886 
L 497.871346 -195.922539 
L 502.246691 -195.822769 
L 506.622037 -195.747513 
L 510.997382 -195.691142 
L 515.372727 -195.649211 
L 515.372727 -195.538011 
L 515.372727 -195.538011 
L 510.997382 -195.538011 
L 506.622037 -195.538011 
L 502.246691 -195.538011 
L 497.871346 -195.538011 
L 493.496 -195.538011 
L 489.120655 -195.538011 
L 484.74531 -195.538011 
L 480.369964 -195.538011 
L 475.994619 -195.538011 
L 471.619274 -195.538011 
L 467.243928 -195.538011 
L 462.868583 -195.538011 
L 458.493237 -195.538011 
L 454.117892 -195.538011 
L 449.742547 -195.538011 
L 445.367201 -195.538011 
L 440.991856 -195.538011 
L 436.616511 -195.538011 
L 432.241165 -195.538011 
L 427.86582 -195.538011 
L 423.490474 -195.538011 
L 419.115129 -195.538011 
L 414.739784 -195.538011 
L 410.364438 -195.538011 
L 405.989093 -195.538011 
L 401.613747 -195.538011 
L 397.238402 -195.538011 
L 392.863057 -195.538011 
L 388.487711 -195.538011 
L 384.112366 -195.538011 
L 379.737021 -195.538011 
L 375.361675 -195.538011 
L 370.98633 -195.538011 
L 366.610984 -195.538011 
L 362.235639 -195.538011 
L 357.860294 -195.538011 
L 353.484948 -195.538011 
L 349.109603 -195.538011 
L 344.734258 -195.538011 
L 340.358912 -195.538011 
L 335.983567 -195.538011 
L 331.608221 -195.538011 
L 327.232876 -195.538011 
L 322.857531 -195.538011 
L 318.482185 -195.538011 
L 314.10684 -195.538011 
L 309.731495 -195.538011 
L 305.356149 -195.538011 
L 300.980804 -195.538011 
L 296.605458 -195.538011 
L 292.230113 -195.538011 
L 287.854768 -195.538011 
L 283.479422 -195.538011 
L 279.104077 -195.538011 
L 274.728732 -195.538011 
L 270.353386 -195.538011 
L 265.978041 -195.538011 
L 261.602695 -195.538011 
L 257.22735 -195.538011 
L 252.852005 -195.538011 
L 248.476659 -195.538011 
L 244.101314 -195.538011 
L 239.725969 -195.538011 
L 235.350623 -195.538011 
L 230.975278 -195.538011 
L 226.599932 -195.538011 
L 222.224587 -195.538011 
L 217.849242 -195.538011 
L 213.473896 -195.538011 
L 209.098551 -195.538011 
L 204.723206 -195.538011 
L 200.34786 -195.538011 
L 195.972515 -195.538011 
L 191.597169 -195.538011 
L 187.221824 -195.538011 
L 182.846479 -195.538011 
L 178.471133 -195.538011 
L 174.095788 -195.538011 
L 169.720443 -195.538011 
L 165.345097 -195.538011 
L 160.969752 -195.538011 
L 156.594406 -195.538011 
L 152.219061 -195.538011 
L 147.843716 -195.538011 
L 143.46837 -195.538011 
L 139.093025 -195.538011 
L 134.71768 -195.538011 
L 130.342334 -195.538011 
L 125.966989 -195.538011 
L 121.591643 -195.538011 
L 117.216298 -195.538011 
L 112.840953 -195.538011 
L 108.465607 -195.538011 
L 104.090262 -195.538011 
L 99.714917 -195.538011 
L 95.339571 -195.538011 
L 90.964226 -195.538011 
L 86.58888 -195.538011 
L 82.213535 -195.538011 
z
" id="mc4c579d96b" style="stroke:#ff6384;stroke-opacity:0.5;"/>
    </defs>
    <g clip-path="url(#pbade9b0c3e)">
     <use style="fill:#ff6384;fill-opacity:0.5;stroke:#ff6384;stroke-opacity:0.5;" x="0" xlink:href="#mc4c579d96b" y="581.789375"/>
    </g>
   </g>
   <g id="PolyCollection_2">
    <defs>
     <path d="M 58.827273 -195.538011 
L 58.827273 -195.649321 
L 63.198304 -195.691294 
L 67.569335 -195.74772 
L 71.940366 -195.82305 
L 76.311397 -195.922919 
L 80.682428 -196.054395 
L 85.053459 -196.226272 
L 89.424491 -196.449388 
L 93.795522 -196.736976 
L 98.166553 -197.105048 
L 102.537584 -197.572784 
L 106.908615 -198.162935 
L 111.279646 -198.90221 
L 115.650677 -199.821628 
L 120.021708 -200.956819 
L 124.39274 -202.348228 
L 128.763771 -204.041207 
L 133.134802 -206.085948 
L 137.505833 -208.537221 
L 141.876864 -211.453884 
L 146.247895 -214.898131 
L 150.618926 -218.934447 
L 154.989957 -223.628251 
L 159.360989 -229.044218 
L 163.73202 -235.244289 
L 168.103051 -242.285379 
L 172.474082 -250.216843 
L 176.845113 -259.077743 
L 181.216144 -268.894005 
L 185.587175 -279.675571 
L 189.958206 -291.413657 
L 194.329238 -304.07825 
L 198.700269 -317.615988 
L 203.0713 -331.94856 
L 207.442331 -346.971758 
L 211.813362 -362.555312 
L 216.184393 -378.543591 
L 220.555424 -394.757254 
L 224.926455 -410.99586 
L 229.297487 -427.041443 
L 233.668518 -442.66298 
L 238.039549 -457.621646 
L 242.41058 -471.676701 
L 246.781611 -484.59182 
L 251.152642 -496.141636 
L 255.523673 -506.118243 
L 259.894704 -514.337406 
L 264.265736 -520.644207 
L 268.636767 -524.917905 
L 273.007798 -527.075776 
L 277.378829 -527.075776 
L 281.74986 -524.917905 
L 286.120891 -520.644207 
L 290.491922 -514.337406 
L 294.862953 -506.118243 
L 299.233985 -496.141636 
L 303.605016 -484.59182 
L 307.976047 -471.676701 
L 312.347078 -457.621646 
L 316.718109 -442.66298 
L 321.08914 -427.041443 
L 325.460171 -410.99586 
L 329.831202 -394.757254 
L 334.202233 -378.543591 
L 338.573265 -362.555312 
L 342.944296 -346.971758 
L 347.315327 -331.94856 
L 351.686358 -317.615988 
L 356.057389 -304.07825 
L 360.42842 -291.413657 
L 364.799451 -279.675571 
L 369.170482 -268.894005 
L 373.541514 -259.077743 
L 377.912545 -250.216843 
L 382.283576 -242.285379 
L 386.654607 -235.244289 
L 391.025638 -229.044218 
L 395.396669 -223.628251 
L 399.7677 -218.934447 
L 404.138731 -214.898131 
L 408.509763 -211.453884 
L 412.880794 -208.537221 
L 417.251825 -206.085948 
L 421.622856 -204.041207 
L 425.993887 -202.348228 
L 430.364918 -200.956819 
L 434.735949 -199.821628 
L 439.10698 -198.90221 
L 443.478012 -198.162935 
L 447.849043 -197.572784 
L 452.220074 -197.105048 
L 456.591105 -196.736976 
L 460.962136 -196.449388 
L 465.333167 -196.226272 
L 469.704198 -196.054395 
L 474.075229 -195.922919 
L 478.446261 -195.82305 
L 482.817292 -195.74772 
L 487.188323 -195.691294 
L 491.559354 -195.649321 
L 491.559354 -195.538011 
L 491.559354 -195.538011 
L 487.188323 -195.538011 
L 482.817292 -195.538011 
L 478.446261 -195.538011 
L 474.075229 -195.538011 
L 469.704198 -195.538011 
L 465.333167 -195.538011 
L 460.962136 -195.538011 
L 456.591105 -195.538011 
L 452.220074 -195.538011 
L 447.849043 -195.538011 
L 443.478012 -195.538011 
L 439.10698 -195.538011 
L 434.735949 -195.538011 
L 430.364918 -195.538011 
L 425.993887 -195.538011 
L 421.622856 -195.538011 
L 417.251825 -195.538011 
L 412.880794 -195.538011 
L 408.509763 -195.538011 
L 404.138731 -195.538011 
L 399.7677 -195.538011 
L 395.396669 -195.538011 
L 391.025638 -195.538011 
L 386.654607 -195.538011 
L 382.283576 -195.538011 
L 377.912545 -195.538011 
L 373.541514 -195.538011 
L 369.170482 -195.538011 
L 364.799451 -195.538011 
L 360.42842 -195.538011 
L 356.057389 -195.538011 
L 351.686358 -195.538011 
L 347.315327 -195.538011 
L 342.944296 -195.538011 
L 338.573265 -195.538011 
L 334.202233 -195.538011 
L 329.831202 -195.538011 
L 325.460171 -195.538011 
L 321.08914 -195.538011 
L 316.718109 -195.538011 
L 312.347078 -195.538011 
L 307.976047 -195.538011 
L 303.605016 -195.538011 
L 299.233985 -195.538011 
L 294.862953 -195.538011 
L 290.491922 -195.538011 
L 286.120891 -195.538011 
L 281.74986 -195.538011 
L 277.378829 -195.538011 
L 273.007798 -195.538011 
L 268.636767 -195.538011 
L 264.265736 -195.538011 
L 259.894704 -195.538011 
L 255.523673 -195.538011 
L 251.152642 -195.538011 
L 246.781611 -195.538011 
L 242.41058 -195.538011 
L 238.039549 -195.538011 
L 233.668518 -195.538011 
L 229.297487 -195.538011 
L 224.926455 -195.538011 
L 220.555424 -195.538011 
L 216.184393 -195.538011 
L 211.813362 -195.538011 
L 207.442331 -195.538011 
L 203.0713 -195.538011 
L 198.700269 -195.538011 
L 194.329238 -195.538011 
L 189.958206 -195.538011 
L 185.587175 -195.538011 
L 181.216144 -195.538011 
L 176.845113 -195.538011 
L 172.474082 -195.538011 
L 168.103051 -195.538011 
L 163.73202 -195.538011 
L 159.360989 -195.538011 
L 154.989957 -195.538011 
L 150.618926 -195.538011 
L 146.247895 -195.538011 
L 141.876864 -195.538011 
L 137.505833 -195.538011 
L 133.134802 -195.538011 
L 128.763771 -195.538011 
L 124.39274 -195.538011 
L 120.021708 -195.538011 
L 115.650677 -195.538011 
L 111.279646 -195.538011 
L 106.908615 -195.538011 
L 102.537584 -195.538011 
L 98.166553 -195.538011 
L 93.795522 -195.538011 
L 89.424491 -195.538011 
L 85.053459 -195.538011 
L 80.682428 -195.538011 
L 76.311397 -195.538011 
L 71.940366 -195.538011 
L 67.569335 -195.538011 
L 63.198304 -195.538011 
L 58.827273 -195.538011 
z
" id="m6f7fe0a497" style="stroke:#36a2eb;stroke-opacity:0.5;"/>
    </defs>
    <g clip-path="url(#pbade9b0c3e)">
     <use style="fill:#36a2eb;fill-opacity:0.5;stroke:#36a2eb;stroke-opacity:0.5;" x="0" xlink:href="#m6f7fe0a497" y="581.789375"/>
    </g>
   </g>
   <g id="PolyCollection_3">
    <defs>
     <path d="M 71.104274 -195.538011 
L 71.104274 -195.650004 
L 75.448639 -195.692234 
L 79.793005 -195.749007 
L 84.13737 -195.8248 
L 88.481736 -195.925281 
L 92.826102 -196.057565 
L 97.170467 -196.230497 
L 101.514833 -196.454982 
L 105.859199 -196.744335 
L 110.203564 -197.114666 
L 114.54793 -197.585273 
L 118.892295 -198.179047 
L 123.236661 -198.922859 
L 127.581027 -199.847921 
L 131.925392 -200.990079 
L 136.269758 -202.390029 
L 140.614123 -204.093399 
L 144.958489 -206.150691 
L 149.302855 -208.617009 
L 153.64722 -211.551575 
L 157.991586 -215.016962 
L 162.335952 -219.078053 
L 166.680317 -223.800667 
L 171.024683 -229.249878 
L 175.369048 -235.488004 
L 179.713414 -242.572312 
L 184.05778 -250.552459 
L 188.402145 -259.467747 
L 192.746511 -269.344261 
L 197.090876 -280.192004 
L 201.435242 -292.002137 
L 205.779608 -304.744465 
L 210.123973 -318.365297 
L 214.468339 -332.785841 
L 218.812705 -347.901251 
L 223.15707 -363.580456 
L 227.501436 -379.666871 
L 231.845801 -395.980052 
L 236.190167 -412.31833 
L 240.534533 -428.4624 
L 244.878898 -444.179822 
L 249.223264 -459.230303 
L 253.567629 -473.371627 
L 257.911995 -486.366018 
L 262.256361 -497.986726 
L 266.600726 -508.02457 
L 270.945092 -516.294181 
L 275.289458 -522.639693 
L 279.633823 -526.939623 
L 283.978189 -529.110739 
L 288.322554 -529.110739 
L 292.66692 -526.939623 
L 297.011286 -522.639693 
L 301.355651 -516.294181 
L 305.700017 -508.02457 
L 310.044382 -497.986726 
L 314.388748 -486.366018 
L 318.733114 -473.371627 
L 323.077479 -459.230303 
L 327.421845 -444.179822 
L 331.766211 -428.4624 
L 336.110576 -412.31833 
L 340.454942 -395.980052 
L 344.799307 -379.666871 
L 349.143673 -363.580456 
L 353.488039 -347.901251 
L 357.832404 -332.785841 
L 362.17677 -318.365297 
L 366.521135 -304.744465 
L 370.865501 -292.002137 
L 375.209867 -280.192004 
L 379.554232 -269.344261 
L 383.898598 -259.467747 
L 388.242964 -250.552459 
L 392.587329 -242.572312 
L 396.931695 -235.488004 
L 401.27606 -229.249878 
L 405.620426 -223.800667 
L 409.964792 -219.078053 
L 414.309157 -215.016962 
L 418.653523 -211.551575 
L 422.997888 -208.617009 
L 427.342254 -206.150691 
L 431.68662 -204.093399 
L 436.030985 -202.390029 
L 440.375351 -200.990079 
L 444.719717 -199.847921 
L 449.064082 -198.922859 
L 453.408448 -198.179047 
L 457.752813 -197.585273 
L 462.097179 -197.114666 
L 466.441545 -196.744335 
L 470.78591 -196.454982 
L 475.130276 -196.230497 
L 479.474642 -196.057565 
L 483.819007 -195.925281 
L 488.163373 -195.8248 
L 492.507738 -195.749007 
L 496.852104 -195.692234 
L 501.19647 -195.650004 
L 501.19647 -195.538011 
L 501.19647 -195.538011 
L 496.852104 -195.538011 
L 492.507738 -195.538011 
L 488.163373 -195.538011 
L 483.819007 -195.538011 
L 479.474642 -195.538011 
L 475.130276 -195.538011 
L 470.78591 -195.538011 
L 466.441545 -195.538011 
L 462.097179 -195.538011 
L 457.752813 -195.538011 
L 453.408448 -195.538011 
L 449.064082 -195.538011 
L 444.719717 -195.538011 
L 440.375351 -195.538011 
L 436.030985 -195.538011 
L 431.68662 -195.538011 
L 427.342254 -195.538011 
L 422.997888 -195.538011 
L 418.653523 -195.538011 
L 414.309157 -195.538011 
L 409.964792 -195.538011 
L 405.620426 -195.538011 
L 401.27606 -195.538011 
L 396.931695 -195.538011 
L 392.587329 -195.538011 
L 388.242964 -195.538011 
L 383.898598 -195.538011 
L 379.554232 -195.538011 
L 375.209867 -195.538011 
L 370.865501 -195.538011 
L 366.521135 -195.538011 
L 362.17677 -195.538011 
L 357.832404 -195.538011 
L 353.488039 -195.538011 
L 349.143673 -195.538011 
L 344.799307 -195.538011 
L 340.454942 -195.538011 
L 336.110576 -195.538011 
L 331.766211 -195.538011 
L 327.421845 -195.538011 
L 323.077479 -195.538011 
L 318.733114 -195.538011 
L 314.388748 -195.538011 
L 310.044382 -195.538011 
L 305.700017 -195.538011 
L 301.355651 -195.538011 
L 297.011286 -195.538011 
L 292.66692 -195.538011 
L 288.322554 -195.538011 
L 283.978189 -195.538011 
L 279.633823 -195.538011 
L 275.289458 -195.538011 
L 270.945092 -195.538011 
L 266.600726 -195.538011 
L 262.256361 -195.538011 
L 257.911995 -195.538011 
L 253.567629 -195.538011 
L 249.223264 -195.538011 
L 244.878898 -195.538011 
L 240.534533 -195.538011 
L 236.190167 -195.538011 
L 231.845801 -195.538011 
L 227.501436 -195.538011 
L 223.15707 -195.538011 
L 218.812705 -195.538011 
L 214.468339 -195.538011 
L 210.123973 -195.538011 
L 205.779608 -195.538011 
L 201.435242 -195.538011 
L 197.090876 -195.538011 
L 192.746511 -195.538011 
L 188.402145 -195.538011 
L 184.05778 -195.538011 
L 179.713414 -195.538011 
L 175.369048 -195.538011 
L 171.024683 -195.538011 
L 166.680317 -195.538011 
L 162.335952 -195.538011 
L 157.991586 -195.538011 
L 153.64722 -195.538011 
L 149.302855 -195.538011 
L 144.958489 -195.538011 
L 140.614123 -195.538011 
L 136.269758 -195.538011 
L 131.925392 -195.538011 
L 127.581027 -195.538011 
L 123.236661 -195.538011 
L 118.892295 -195.538011 
L 114.54793 -195.538011 
L 110.203564 -195.538011 
L 105.859199 -195.538011 
L 101.514833 -195.538011 
L 97.170467 -195.538011 
L 92.826102 -195.538011 
L 88.481736 -195.538011 
L 84.13737 -195.538011 
L 79.793005 -195.538011 
L 75.448639 -195.538011 
L 71.104274 -195.538011 
z
" id="m8d2d8f5a02" style="stroke:#4bc0c0;stroke-opacity:0.5;"/>
    </defs>
    <g clip-path="url(#pbade9b0c3e)">
     <use style="fill:#4bc0c0;fill-opacity:0.5;stroke:#4bc0c0;stroke-opacity:0.5;" x="0" xlink:href="#m8d2d8f5a02" y="581.789375"/>
    </g>
   </g>
   <g id="line2d_1">
    <path clip-path="url(#pbade9b0c3e)" d="M 82.213535 386.140164 
L 86.58888 386.098233 
L 90.964226 386.041862 
L 95.339571 385.966606 
L 99.714917 385.866836 
L 104.090262 385.735489 
L 108.465607 385.563781 
L 112.840953 385.340886 
L 117.216298 385.053581 
L 121.591643 384.685873 
L 125.966989 384.218598 
L 130.342334 383.629028 
L 134.71768 382.890482 
L 139.093025 381.97197 
L 143.46837 380.837899 
L 147.843716 379.447862 
L 152.219061 377.756552 
L 156.594406 375.713828 
L 160.969752 373.264972 
L 165.345097 370.351185 
L 169.720443 366.910334 
L 174.095788 362.877998 
L 178.471133 358.188822 
L 182.846479 352.778195 
L 187.221824 346.584238 
L 191.597169 339.550091 
L 195.972515 331.626447 
L 200.34786 322.774285 
L 204.723206 312.967702 
L 209.098551 302.196766 
L 213.473896 290.470255 
L 217.849242 277.818149 
L 222.224587 264.29376 
L 226.599932 249.975321 
L 230.975278 234.966936 
L 235.350623 219.398749 
L 239.725969 203.426234 
L 244.101314 187.228558 
L 248.476659 171.005965 
L 252.852005 154.976203 
L 257.22735 139.370069 
L 261.602695 124.426153 
L 265.978041 110.384957 
L 270.353386 97.482573 
L 274.728732 85.944146 
L 279.104077 75.977375 
L 283.479422 67.766317 
L 287.854768 61.465735 
L 292.230113 57.196251 
L 296.605458 55.040508 
L 300.980804 55.040508 
L 305.356149 57.196251 
L 309.731495 61.465735 
L 314.10684 67.766317 
L 318.482185 75.977375 
L 322.857531 85.944146 
L 327.232876 97.482573 
L 331.608221 110.384957 
L 335.983567 124.426153 
L 340.358912 139.370069 
L 344.734258 154.976203 
L 349.109603 171.005965 
L 353.484948 187.228558 
L 357.860294 203.426234 
L 362.235639 219.398749 
L 366.610984 234.966936 
L 370.98633 249.975321 
L 375.361675 264.29376 
L 379.737021 277.818149 
L 384.112366 290.470255 
L 388.487711 302.196766 
L 392.863057 312.967702 
L 397.238402 322.774285 
L 401.613747 331.626447 
L 405.989093 339.550091 
L 410.364438 346.584238 
L 414.739784 352.778195 
L 419.115129 358.188822 
L 423.490474 362.877998 
L 427.86582 366.910334 
L 432.241165 370.351185 
L 436.616511 373.264972 
L 440.991856 375.713828 
L 445.367201 377.756552 
L 449.742547 379.447862 
L 454.117892 380.837899 
L 458.493237 381.97197 
L 462.868583 382.890482 
L 467.243928 383.629028 
L 471.619274 384.218598 
L 475.994619 384.685873 
L 480.369964 385.053581 
L 484.74531 385.340886 
L 489.120655 385.563781 
L 493.496 385.735489 
L 497.871346 385.866836 
L 502.246691 385.966606 
L 506.622037 386.041862 
L 510.997382 386.098233 
L 515.372727 386.140164 
" style="fill:none;stroke:#ff6384;stroke-linecap:square;"/>
   </g>
   <g id="line2d_2">
    <path clip-path="url(#pbade9b0c3e)" d="M 58.827273 386.140054 
L 63.198304 386.098081 
L 67.569335 386.041655 
L 71.940366 385.966325 
L 76.311397 385.866456 
L 80.682428 385.73498 
L 85.053459 385.563103 
L 89.424491 385.339987 
L 93.795522 385.052399 
L 98.166553 384.684327 
L 102.537584 384.216591 
L 106.908615 383.62644 
L 111.279646 382.887165 
L 115.650677 381.967747 
L 120.021708 380.832556 
L 124.39274 379.441147 
L 128.763771 377.748168 
L 133.134802 375.703427 
L 137.505833 373.252154 
L 141.876864 370.335491 
L 146.247895 366.891244 
L 150.618926 362.854928 
L 154.989957 358.161124 
L 159.360989 352.745157 
L 163.73202 346.545086 
L 168.103051 339.503996 
L 172.474082 331.572532 
L 176.845113 322.711632 
L 181.216144 312.89537 
L 185.587175 302.113804 
L 189.958206 290.375718 
L 194.329238 277.711125 
L 198.700269 264.173387 
L 203.0713 249.840815 
L 207.442331 234.817617 
L 211.813362 219.234063 
L 216.184393 203.245784 
L 220.555424 187.032121 
L 224.926455 170.793515 
L 229.297487 154.747932 
L 233.668518 139.126395 
L 238.039549 124.167729 
L 242.41058 110.112674 
L 246.781611 97.197555 
L 251.152642 85.647739 
L 255.523673 75.671132 
L 259.894704 67.451969 
L 264.265736 61.145168 
L 268.636767 56.87147 
L 273.007798 54.713599 
L 277.378829 54.713599 
L 281.74986 56.87147 
L 286.120891 61.145168 
L 290.491922 67.451969 
L 294.862953 75.671132 
L 299.233985 85.647739 
L 303.605016 97.197555 
L 307.976047 110.112674 
L 312.347078 124.167729 
L 316.718109 139.126395 
L 321.08914 154.747932 
L 325.460171 170.793515 
L 329.831202 187.032121 
L 334.202233 203.245784 
L 338.573265 219.234063 
L 342.944296 234.817617 
L 347.315327 249.840815 
L 351.686358 264.173387 
L 356.057389 277.711125 
L 360.42842 290.375718 
L 364.799451 302.113804 
L 369.170482 312.89537 
L 373.541514 322.711632 
L 377.912545 331.572532 
L 382.283576 339.503996 
L 386.654607 346.545086 
L 391.025638 352.745157 
L 395.396669 358.161124 
L 399.7677 362.854928 
L 404.138731 366.891244 
L 408.509763 370.335491 
L 412.880794 373.252154 
L 417.251825 375.703427 
L 421.622856 377.748168 
L 425.993887 379.441147 
L 430.364918 380.832556 
L 434.735949 381.967747 
L 439.10698 382.887165 
L 443.478012 383.62644 
L 447.849043 384.216591 
L 452.220074 384.684327 
L 456.591105 385.052399 
L 460.962136 385.339987 
L 465.333167 385.563103 
L 469.704198 385.73498 
L 474.075229 385.866456 
L 478.446261 385.966325 
L 482.817292 386.041655 
L 487.188323 386.098081 
L 491.559354 386.140054 
" style="fill:none;stroke:#36a2eb;stroke-linecap:square;"/>
   </g>
   <g id="line2d_3">
    <path clip-path="url(#pbade9b0c3e)" d="M 71.104274 386.139371 
L 75.448639 386.097141 
L 79.793005 386.040368 
L 84.13737 385.964575 
L 88.481736 385.864094 
L 92.826102 385.73181 
L 97.170467 385.558878 
L 101.514833 385.334393 
L 105.859199 385.04504 
L 110.203564 384.674709 
L 114.54793 384.204102 
L 118.892295 383.610328 
L 123.236661 382.866516 
L 127.581027 381.941454 
L 131.925392 380.799296 
L 136.269758 379.399346 
L 140.614123 377.695976 
L 144.958489 375.638684 
L 149.302855 373.172366 
L 153.64722 370.2378 
L 157.991586 366.772413 
L 162.335952 362.711322 
L 166.680317 357.988708 
L 171.024683 352.539497 
L 175.369048 346.301371 
L 179.713414 339.217063 
L 184.05778 331.236916 
L 188.402145 322.321628 
L 192.746511 312.445114 
L 197.090876 301.597371 
L 201.435242 289.787238 
L 205.779608 277.04491 
L 210.123973 263.424078 
L 214.468339 249.003534 
L 218.812705 233.888124 
L 223.15707 218.208919 
L 227.501436 202.122504 
L 231.845801 185.809323 
L 236.190167 169.471045 
L 240.534533 153.326975 
L 244.878898 137.609553 
L 249.223264 122.559072 
L 253.567629 108.417748 
L 257.911995 95.423357 
L 262.256361 83.802649 
L 266.600726 73.764805 
L 270.945092 65.495194 
L 275.289458 59.149682 
L 279.633823 54.849752 
L 283.978189 52.678636 
L 288.322554 52.678636 
L 292.66692 54.849752 
L 297.011286 59.149682 
L 301.355651 65.495194 
L 305.700017 73.764805 
L 310.044382 83.802649 
L 314.388748 95.423357 
L 318.733114 108.417748 
L 323.077479 122.559072 
L 327.421845 137.609553 
L 331.766211 153.326975 
L 336.110576 169.471045 
L 340.454942 185.809323 
L 344.799307 202.122504 
L 349.143673 218.208919 
L 353.488039 233.888124 
L 357.832404 249.003534 
L 362.17677 263.424078 
L 366.521135 277.04491 
L 370.865501 289.787238 
L 375.209867 301.597371 
L 379.554232 312.445114 
L 383.898598 322.321628 
L 388.242964 331.236916 
L 392.587329 339.217063 
L 396.931695 346.301371 
L 401.27606 352.539497 
L 405.620426 357.988708 
L 409.964792 362.711322 
L 414.309157 366.772413 
L 418.653523 370.2378 
L 422.997888 373.172366 
L 427.342254 375.638684 
L 431.68662 377.695976 
L 436.030985 379.399346 
L 440.375351 380.799296 
L 444.719717 381.941454 
L 449.064082 382.866516 
L 453.408448 383.610328 
L 457.752813 384.204102 
L 462.097179 384.674709 
L 466.441545 385.04504 
L 470.78591 385.334393 
L 475.130276 385.558878 
L 479.474642 385.73181 
L 483.819007 385.864094 
L 488.163373 385.964575 
L 492.507738 386.040368 
L 496.852104 386.097141 
L 501.19647 386.139371 
" style="fill:none;stroke:#4bc0c0;stroke-linecap:square;"/>
   </g>
   <g id="patch_3">
    <path d="M 36 402.93 
L 538.2 402.93 
" style="fill:none;stroke:#000000;stroke-linecap:square;stroke-linejoin:miter;stroke-width:0.8;"/>
   </g>
   <g id="legend_1">
    <g id="patch_4">
     <path d="M 421.16 109.2375 
L 528.4 109.2375 
Q 531.2 109.2375 531.2 106.4375 
L 531.2 45.8 
Q 531.2 43 528.4 43 
L 421.16 43 
Q 418.36 43 418.36 45.8 
L 418.36 106.4375 
Q 418.36 109.2375 421.16 109.2375 
z
" style="fill:#ffffff;opacity:0.8;stroke:#cccccc;stroke-linejoin:miter;"/>
    </g>
    <g id="patch_5">
     <path d="M 423.96 59.237813 
L 451.96 59.237813 
L 451.96 49.437813 
L 423.96 49.437813 
z
" style="fill:#ff6384;opacity:0.5;stroke:#ff6384;stroke-linejoin:miter;"/>
    </g>
    <g id="text_1">
     <!-- base -->
     <defs>
      <path d="M 48.6875 27.296875 
Q 48.6875 37.203125 44.609375 42.84375 
Q 40.53125 48.484375 33.40625 48.484375 
Q 26.265625 48.484375 22.1875 42.84375 
Q 18.109375 37.203125 18.109375 27.296875 
Q 18.109375 17.390625 22.1875 11.75 
Q 26.265625 6.109375 33.40625 6.109375 
Q 40.53125 6.109375 44.609375 11.75 
Q 48.6875 17.390625 48.6875 27.296875 
z
M 18.109375 46.390625 
Q 20.953125 51.265625 25.265625 53.625 
Q 29.59375 56 35.59375 56 
Q 45.5625 56 51.78125 48.09375 
Q 58.015625 40.1875 58.015625 27.296875 
Q 58.015625 14.40625 51.78125 6.484375 
Q 45.5625 -1.421875 35.59375 -1.421875 
Q 29.59375 -1.421875 25.265625 0.953125 
Q 20.953125 3.328125 18.109375 8.203125 
L 18.109375 0 
L 9.078125 0 
L 9.078125 75.984375 
L 18.109375 75.984375 
z
" id="DejaVuSans-98"/>
      <path d="M 34.28125 27.484375 
Q 23.390625 27.484375 19.1875 25 
Q 14.984375 22.515625 14.984375 16.5 
Q 14.984375 11.71875 18.140625 8.90625 
Q 21.296875 6.109375 26.703125 6.109375 
Q 34.1875 6.109375 38.703125 11.40625 
Q 43.21875 16.703125 43.21875 25.484375 
L 43.21875 27.484375 
z
M 52.203125 31.203125 
L 52.203125 0 
L 43.21875 0 
L 43.21875 8.296875 
Q 40.140625 3.328125 35.546875 0.953125 
Q 30.953125 -1.421875 24.3125 -1.421875 
Q 15.921875 -1.421875 10.953125 3.296875 
Q 6 8.015625 6 15.921875 
Q 6 25.140625 12.171875 29.828125 
Q 18.359375 34.515625 30.609375 34.515625 
L 43.21875 34.515625 
L 43.21875 35.40625 
Q 43.21875 41.609375 39.140625 45 
Q 35.0625 48.390625 27.6875 48.390625 
Q 23 48.390625 18.546875 47.265625 
Q 14.109375 46.140625 10.015625 43.890625 
L 10.015625 52.203125 
Q 14.9375 54.109375 19.578125 55.046875 
Q 24.21875 56 28.609375 56 
Q 40.484375 56 46.34375 49.84375 
Q 52.203125 43.703125 52.203125 31.203125 
z
" id="DejaVuSans-97"/>
      <path d="M 44.28125 53.078125 
L 44.28125 44.578125 
Q 40.484375 46.53125 36.375 47.5 
Q 32.28125 48.484375 27.875 48.484375 
Q 21.1875 48.484375 17.84375 46.4375 
Q 14.5 44.390625 14.5 40.28125 
Q 14.5 37.15625 16.890625 35.375 
Q 19.28125 33.59375 26.515625 31.984375 
L 29.59375 31.296875 
Q 39.15625 29.25 43.1875 25.515625 
Q 47.21875 21.78125 47.21875 15.09375 
Q 47.21875 7.46875 41.1875 3.015625 
Q 35.15625 -1.421875 24.609375 -1.421875 
Q 20.21875 -1.421875 15.453125 -0.5625 
Q 10.6875 0.296875 5.421875 2 
L 5.421875 11.28125 
Q 10.40625 8.6875 15.234375 7.390625 
Q 20.0625 6.109375 24.8125 6.109375 
Q 31.15625 6.109375 34.5625 8.28125 
Q 37.984375 10.453125 37.984375 14.40625 
Q 37.984375 18.0625 35.515625 20.015625 
Q 33.0625 21.96875 24.703125 23.78125 
L 21.578125 24.515625 
Q 13.234375 26.265625 9.515625 29.90625 
Q 5.8125 33.546875 5.8125 39.890625 
Q 5.8125 47.609375 11.28125 51.796875 
Q 16.75 56 26.8125 56 
Q 31.78125 56 36.171875 55.265625 
Q 40.578125 54.546875 44.28125 53.078125 
z
" id="DejaVuSans-115"/>
      <path d="M 56.203125 29.59375 
L 56.203125 25.203125 
L 14.890625 25.203125 
Q 15.484375 15.921875 20.484375 11.0625 
Q 25.484375 6.203125 34.421875 6.203125 
Q 39.59375 6.203125 44.453125 7.46875 
Q 49.3125 8.734375 54.109375 11.28125 
L 54.109375 2.78125 
Q 49.265625 0.734375 44.1875 -0.34375 
Q 39.109375 -1.421875 33.890625 -1.421875 
Q 20.796875 -1.421875 13.15625 6.1875 
Q 5.515625 13.8125 5.515625 26.8125 
Q 5.515625 40.234375 12.765625 48.109375 
Q 20.015625 56 32.328125 56 
Q 43.359375 56 49.78125 48.890625 
Q 56.203125 41.796875 56.203125 29.59375 
z
M 47.21875 32.234375 
Q 47.125 39.59375 43.09375 43.984375 
Q 39.0625 48.390625 32.421875 48.390625 
Q 24.90625 48.390625 20.390625 44.140625 
Q 15.875 39.890625 15.1875 32.171875 
z
" id="DejaVuSans-101"/>
     </defs>
     <g transform="translate(463.16 59.237813)scale(0.14 -0.14)">
      <use xlink:href="#DejaVuSans-98"/>
      <use x="63.476562" xlink:href="#DejaVuSans-97"/>
      <use x="124.755859" xlink:href="#DejaVuSans-115"/>
      <use x="176.855469" xlink:href="#DejaVuSans-101"/>
     </g>
    </g>
    <g id="patch_6">
     <path d="M 423.96 79.787188 
L 451.96 79.787188 
L 451.96 69.987188 
L 423.96 69.987188 
z
" style="fill:#36a2eb;opacity:0.5;stroke:#36a2eb;stroke-linejoin:miter;"/>
    </g>
    <g id="text_2">
     <!-- mid -->
     <defs>
      <path d="M 52 44.1875 
Q 55.375 50.25 60.0625 53.125 
Q 64.75 56 71.09375 56 
Q 79.640625 56 84.28125 50.015625 
Q 88.921875 44.046875 88.921875 33.015625 
L 88.921875 0 
L 79.890625 0 
L 79.890625 32.71875 
Q 79.890625 40.578125 77.09375 44.375 
Q 74.3125 48.1875 68.609375 48.1875 
Q 61.625 48.1875 57.5625 43.546875 
Q 53.515625 38.921875 53.515625 30.90625 
L 53.515625 0 
L 44.484375 0 
L 44.484375 32.71875 
Q 44.484375 40.625 41.703125 44.40625 
Q 38.921875 48.1875 33.109375 48.1875 
Q 26.21875 48.1875 22.15625 43.53125 
Q 18.109375 38.875 18.109375 30.90625 
L 18.109375 0 
L 9.078125 0 
L 9.078125 54.6875 
L 18.109375 54.6875 
L 18.109375 46.1875 
Q 21.1875 51.21875 25.484375 53.609375 
Q 29.78125 56 35.6875 56 
Q 41.65625 56 45.828125 52.96875 
Q 50 49.953125 52 44.1875 
z
" id="DejaVuSans-109"/>
      <path d="M 9.421875 54.6875 
L 18.40625 54.6875 
L 18.40625 0 
L 9.421875 0 
z
M 9.421875 75.984375 
L 18.40625 75.984375 
L 18.40625 64.59375 
L 9.421875 64.59375 
z
" id="DejaVuSans-105"/>
      <path d="M 45.40625 46.390625 
L 45.40625 75.984375 
L 54.390625 75.984375 
L 54.390625 0 
L 45.40625 0 
L 45.40625 8.203125 
Q 42.578125 3.328125 38.25 0.953125 
Q 33.9375 -1.421875 27.875 -1.421875 
Q 17.96875 -1.421875 11.734375 6.484375 
Q 5.515625 14.40625 5.515625 27.296875 
Q 5.515625 40.1875 11.734375 48.09375 
Q 17.96875 56 27.875 56 
Q 33.9375 56 38.25 53.625 
Q 42.578125 51.265625 45.40625 46.390625 
z
M 14.796875 27.296875 
Q 14.796875 17.390625 18.875 11.75 
Q 22.953125 6.109375 30.078125 6.109375 
Q 37.203125 6.109375 41.296875 11.75 
Q 45.40625 17.390625 45.40625 27.296875 
Q 45.40625 37.203125 41.296875 42.84375 
Q 37.203125 48.484375 30.078125 48.484375 
Q 22.953125 48.484375 18.875 42.84375 
Q 14.796875 37.203125 14.796875 27.296875 
z
" id="DejaVuSans-100"/>
     </defs>
     <g transform="translate(463.16 79.787188)scale(0.14 -0.14)">
      <use xlink:href="#DejaVuSans-109"/>
      <use x="97.412109" xlink:href="#DejaVuSans-105"/>
      <use x="125.195312" xlink:href="#DejaVuSans-100"/>
     </g>
    </g>
    <g id="patch_7">
     <path d="M 423.96 100.336563 
L 451.96 100.336563 
L 451.96 90.536563 
L 423.96 90.536563 
z
" style="fill:#4bc0c0;opacity:0.5;stroke:#4bc0c0;stroke-linejoin:miter;"/>
    </g>
    <g id="text_3">
     <!-- mid_icon -->
     <defs>
      <path d="M 50.984375 -16.609375 
L 50.984375 -23.578125 
L -0.984375 -23.578125 
L -0.984375 -16.609375 
z
" id="DejaVuSans-95"/>
      <path d="M 48.78125 52.59375 
L 48.78125 44.1875 
Q 44.96875 46.296875 41.140625 47.34375 
Q 37.3125 48.390625 33.40625 48.390625 
Q 24.65625 48.390625 19.8125 42.84375 
Q 14.984375 37.3125 14.984375 27.296875 
Q 14.984375 17.28125 19.8125 11.734375 
Q 24.65625 6.203125 33.40625 6.203125 
Q 37.3125 6.203125 41.140625 7.25 
Q 44.96875 8.296875 48.78125 10.40625 
L 48.78125 2.09375 
Q 45.015625 0.34375 40.984375 -0.53125 
Q 36.96875 -1.421875 32.421875 -1.421875 
Q 20.0625 -1.421875 12.78125 6.34375 
Q 5.515625 14.109375 5.515625 27.296875 
Q 5.515625 40.671875 12.859375 48.328125 
Q 20.21875 56 33.015625 56 
Q 37.15625 56 41.109375 55.140625 
Q 45.0625 54.296875 48.78125 52.59375 
z
" id="DejaVuSans-99"/>
      <path d="M 30.609375 48.390625 
Q 23.390625 48.390625 19.1875 42.75 
Q 14.984375 37.109375 14.984375 27.296875 
Q 14.984375 17.484375 19.15625 11.84375 
Q 23.34375 6.203125 30.609375 6.203125 
Q 37.796875 6.203125 41.984375 11.859375 
Q 46.1875 17.53125 46.1875 27.296875 
Q 46.1875 37.015625 41.984375 42.703125 
Q 37.796875 48.390625 30.609375 48.390625 
z
M 30.609375 56 
Q 42.328125 56 49.015625 48.375 
Q 55.71875 40.765625 55.71875 27.296875 
Q 55.71875 13.875 49.015625 6.21875 
Q 42.328125 -1.421875 30.609375 -1.421875 
Q 18.84375 -1.421875 12.171875 6.21875 
Q 5.515625 13.875 5.515625 27.296875 
Q 5.515625 40.765625 12.171875 48.375 
Q 18.84375 56 30.609375 56 
z
" id="DejaVuSans-111"/>
      <path d="M 54.890625 33.015625 
L 54.890625 0 
L 45.90625 0 
L 45.90625 32.71875 
Q 45.90625 40.484375 42.875 44.328125 
Q 39.84375 48.1875 33.796875 48.1875 
Q 26.515625 48.1875 22.3125 43.546875 
Q 18.109375 38.921875 18.109375 30.90625 
L 18.109375 0 
L 9.078125 0 
L 9.078125 54.6875 
L 18.109375 54.6875 
L 18.109375 46.1875 
Q 21.34375 51.125 25.703125 53.5625 
Q 30.078125 56 35.796875 56 
Q 45.21875 56 50.046875 50.171875 
Q 54.890625 44.34375 54.890625 33.015625 
z
" id="DejaVuSans-110"/>
     </defs>
     <g transform="translate(463.16 100.336563)scale(0.14 -0.14)">
      <use xlink:href="#DejaVuSans-109"/>
      <use x="97.412109" xlink:href="#DejaVuSans-105"/>
      <use x="125.195312" xlink:href="#DejaVuSans-100"/>
      <use x="188.671875" xlink:href="#DejaVuSans-95"/>
      <use x="238.671875" xlink:href="#DejaVuSans-105"/>
      <use x="266.455078" xlink:href="#DejaVuSans-99"/>
      <use x="321.435547" xlink:href="#DejaVuSans-111"/>
      <use x="382.617188" xlink:href="#DejaVuSans-110"/>
     </g>
    </g>
   </g>
  </g>
  <g id="axes_2">
   <g id="patch_8">
    <path d="M 36 525.24 
L 538.2 525.24 
L 538.2 402.93 
L 36 402.93 
z
" style="fill:none;"/>
   </g>
   <g id="patch_9">
    <path clip-path="url(#p6ce352539a)" d="M 192.669129 519.680455 
L 404.917133 519.680455 
L 404.917133 497.442273 
L 192.669129 497.442273 
z
" style="fill:#ff6384;opacity:0.5;"/>
   </g>
   <g id="patch_10">
    <path clip-path="url(#p6ce352539a)" d="M 169.173953 475.204091 
L 381.212673 475.204091 
L 381.212673 452.965909 
L 169.173953 452.965909 
z
" style="fill:#36a2eb;opacity:0.5;"/>
   </g>
   <g id="patch_11">
    <path clip-path="url(#p6ce352539a)" d="M 180.777784 430.727727 
L 391.52296 430.727727 
L 391.52296 408.489545 
L 180.777784 408.489545 
z
" style="fill:#4bc0c0;opacity:0.5;"/>
   </g>
   <g id="matplotlib.axis_1">
    <g id="xtick_1">
     <g id="line2d_4">
      <defs>
       <path d="M 0 0 
L 0 3.5 
" id="mf8b70a695a" style="stroke:#000000;stroke-width:0.8;"/>
      </defs>
      <g>
       <use style="stroke:#000000;stroke-width:0.8;" x="56.052148" xlink:href="#mf8b70a695a" y="525.24"/>
      </g>
     </g>
     <g id="text_4">
      <!-- 9 -->
      <defs>
       <path d="M 10.984375 1.515625 
L 10.984375 10.5 
Q 14.703125 8.734375 18.5 7.8125 
Q 22.3125 6.890625 25.984375 6.890625 
Q 35.75 6.890625 40.890625 13.453125 
Q 46.046875 20.015625 46.78125 33.40625 
Q 43.953125 29.203125 39.59375 26.953125 
Q 35.25 24.703125 29.984375 24.703125 
Q 19.046875 24.703125 12.671875 31.3125 
Q 6.296875 37.9375 6.296875 49.421875 
Q 6.296875 60.640625 12.9375 67.421875 
Q 19.578125 74.21875 30.609375 74.21875 
Q 43.265625 74.21875 49.921875 64.515625 
Q 56.59375 54.828125 56.59375 36.375 
Q 56.59375 19.140625 48.40625 8.859375 
Q 40.234375 -1.421875 26.421875 -1.421875 
Q 22.703125 -1.421875 18.890625 -0.6875 
Q 15.09375 0.046875 10.984375 1.515625 
z
M 30.609375 32.421875 
Q 37.25 32.421875 41.125 36.953125 
Q 45.015625 41.5 45.015625 49.421875 
Q 45.015625 57.28125 41.125 61.84375 
Q 37.25 66.40625 30.609375 66.40625 
Q 23.96875 66.40625 20.09375 61.84375 
Q 16.21875 57.28125 16.21875 49.421875 
Q 16.21875 41.5 20.09375 36.953125 
Q 23.96875 32.421875 30.609375 32.421875 
z
" id="DejaVuSans-57"/>
      </defs>
      <g transform="translate(51.598398 542.877813)scale(0.14 -0.14)">
       <use xlink:href="#DejaVuSans-57"/>
      </g>
     </g>
    </g>
    <g id="xtick_2">
     <g id="line2d_5">
      <g>
       <use style="stroke:#000000;stroke-width:0.8;" x="140.337211" xlink:href="#mf8b70a695a" y="525.24"/>
      </g>
     </g>
     <g id="text_5">
      <!-- 10 -->
      <defs>
       <path d="M 12.40625 8.296875 
L 28.515625 8.296875 
L 28.515625 63.921875 
L 10.984375 60.40625 
L 10.984375 69.390625 
L 28.421875 72.90625 
L 38.28125 72.90625 
L 38.28125 8.296875 
L 54.390625 8.296875 
L 54.390625 0 
L 12.40625 0 
z
" id="DejaVuSans-49"/>
       <path d="M 31.78125 66.40625 
Q 24.171875 66.40625 20.328125 58.90625 
Q 16.5 51.421875 16.5 36.375 
Q 16.5 21.390625 20.328125 13.890625 
Q 24.171875 6.390625 31.78125 6.390625 
Q 39.453125 6.390625 43.28125 13.890625 
Q 47.125 21.390625 47.125 36.375 
Q 47.125 51.421875 43.28125 58.90625 
Q 39.453125 66.40625 31.78125 66.40625 
z
M 31.78125 74.21875 
Q 44.046875 74.21875 50.515625 64.515625 
Q 56.984375 54.828125 56.984375 36.375 
Q 56.984375 17.96875 50.515625 8.265625 
Q 44.046875 -1.421875 31.78125 -1.421875 
Q 19.53125 -1.421875 13.0625 8.265625 
Q 6.59375 17.96875 6.59375 36.375 
Q 6.59375 54.828125 13.0625 64.515625 
Q 19.53125 74.21875 31.78125 74.21875 
z
" id="DejaVuSans-48"/>
      </defs>
      <g transform="translate(131.429711 542.877813)scale(0.14 -0.14)">
       <use xlink:href="#DejaVuSans-49"/>
       <use x="63.623047" xlink:href="#DejaVuSans-48"/>
      </g>
     </g>
    </g>
    <g id="xtick_3">
     <g id="line2d_6">
      <g>
       <use style="stroke:#000000;stroke-width:0.8;" x="224.622275" xlink:href="#mf8b70a695a" y="525.24"/>
      </g>
     </g>
     <g id="text_6">
      <!-- 11 -->
      <g transform="translate(215.714775 542.877813)scale(0.14 -0.14)">
       <use xlink:href="#DejaVuSans-49"/>
       <use x="63.623047" xlink:href="#DejaVuSans-49"/>
      </g>
     </g>
    </g>
    <g id="xtick_4">
     <g id="line2d_7">
      <g>
       <use style="stroke:#000000;stroke-width:0.8;" x="308.907339" xlink:href="#mf8b70a695a" y="525.24"/>
      </g>
     </g>
     <g id="text_7">
      <!-- 12 -->
      <defs>
       <path d="M 19.1875 8.296875 
L 53.609375 8.296875 
L 53.609375 0 
L 7.328125 0 
L 7.328125 8.296875 
Q 12.9375 14.109375 22.625 23.890625 
Q 32.328125 33.6875 34.8125 36.53125 
Q 39.546875 41.84375 41.421875 45.53125 
Q 43.3125 49.21875 43.3125 52.78125 
Q 43.3125 58.59375 39.234375 62.25 
Q 35.15625 65.921875 28.609375 65.921875 
Q 23.96875 65.921875 18.8125 64.3125 
Q 13.671875 62.703125 7.8125 59.421875 
L 7.8125 69.390625 
Q 13.765625 71.78125 18.9375 73 
Q 24.125 74.21875 28.421875 74.21875 
Q 39.75 74.21875 46.484375 68.546875 
Q 53.21875 62.890625 53.21875 53.421875 
Q 53.21875 48.921875 51.53125 44.890625 
Q 49.859375 40.875 45.40625 35.40625 
Q 44.1875 33.984375 37.640625 27.21875 
Q 31.109375 20.453125 19.1875 8.296875 
z
" id="DejaVuSans-50"/>
      </defs>
      <g transform="translate(299.999839 542.877813)scale(0.14 -0.14)">
       <use xlink:href="#DejaVuSans-49"/>
       <use x="63.623047" xlink:href="#DejaVuSans-50"/>
      </g>
     </g>
    </g>
    <g id="xtick_5">
     <g id="line2d_8">
      <g>
       <use style="stroke:#000000;stroke-width:0.8;" x="393.192402" xlink:href="#mf8b70a695a" y="525.24"/>
      </g>
     </g>
     <g id="text_8">
      <!-- 13 -->
      <defs>
       <path d="M 40.578125 39.3125 
Q 47.65625 37.796875 51.625 33 
Q 55.609375 28.21875 55.609375 21.1875 
Q 55.609375 10.40625 48.1875 4.484375 
Q 40.765625 -1.421875 27.09375 -1.421875 
Q 22.515625 -1.421875 17.65625 -0.515625 
Q 12.796875 0.390625 7.625 2.203125 
L 7.625 11.71875 
Q 11.71875 9.328125 16.59375 8.109375 
Q 21.484375 6.890625 26.8125 6.890625 
Q 36.078125 6.890625 40.9375 10.546875 
Q 45.796875 14.203125 45.796875 21.1875 
Q 45.796875 27.640625 41.28125 31.265625 
Q 36.765625 34.90625 28.71875 34.90625 
L 20.21875 34.90625 
L 20.21875 43.015625 
L 29.109375 43.015625 
Q 36.375 43.015625 40.234375 45.921875 
Q 44.09375 48.828125 44.09375 54.296875 
Q 44.09375 59.90625 40.109375 62.90625 
Q 36.140625 65.921875 28.71875 65.921875 
Q 24.65625 65.921875 20.015625 65.03125 
Q 15.375 64.15625 9.8125 62.3125 
L 9.8125 71.09375 
Q 15.4375 72.65625 20.34375 73.4375 
Q 25.25 74.21875 29.59375 74.21875 
Q 40.828125 74.21875 47.359375 69.109375 
Q 53.90625 64.015625 53.90625 55.328125 
Q 53.90625 49.265625 50.4375 45.09375 
Q 46.96875 40.921875 40.578125 39.3125 
z
" id="DejaVuSans-51"/>
      </defs>
      <g transform="translate(384.284902 542.877813)scale(0.14 -0.14)">
       <use xlink:href="#DejaVuSans-49"/>
       <use x="63.623047" xlink:href="#DejaVuSans-51"/>
      </g>
     </g>
    </g>
    <g id="xtick_6">
     <g id="line2d_9">
      <g>
       <use style="stroke:#000000;stroke-width:0.8;" x="477.477466" xlink:href="#mf8b70a695a" y="525.24"/>
      </g>
     </g>
     <g id="text_9">
      <!-- 14 -->
      <defs>
       <path d="M 37.796875 64.3125 
L 12.890625 25.390625 
L 37.796875 25.390625 
z
M 35.203125 72.90625 
L 47.609375 72.90625 
L 47.609375 25.390625 
L 58.015625 25.390625 
L 58.015625 17.1875 
L 47.609375 17.1875 
L 47.609375 0 
L 37.796875 0 
L 37.796875 17.1875 
L 4.890625 17.1875 
L 4.890625 26.703125 
z
" id="DejaVuSans-52"/>
      </defs>
      <g transform="translate(468.569966 542.877813)scale(0.14 -0.14)">
       <use xlink:href="#DejaVuSans-49"/>
       <use x="63.623047" xlink:href="#DejaVuSans-52"/>
      </g>
     </g>
    </g>
   </g>
   <g id="line2d_10">
    <path clip-path="url(#p6ce352539a)" d="M 298.793131 525.24 
L 298.793131 402.93 
" style="fill:none;stroke:#ff6384;stroke-dasharray:5.55,2.4;stroke-dashoffset:0;stroke-opacity:0.8;stroke-width:1.5;"/>
   </g>
   <g id="line2d_11">
    <path clip-path="url(#p6ce352539a)" d="M 275.193313 525.24 
L 275.193313 402.93 
" style="fill:none;stroke:#36a2eb;stroke-dasharray:5.55,2.4;stroke-dashoffset:0;stroke-opacity:0.8;stroke-width:1.5;"/>
   </g>
   <g id="line2d_12">
    <path clip-path="url(#p6ce352539a)" d="M 286.150372 525.24 
L 286.150372 402.93 
" style="fill:none;stroke:#4bc0c0;stroke-dasharray:5.55,2.4;stroke-dashoffset:0;stroke-opacity:0.8;stroke-width:1.5;"/>
   </g>
   <g id="patch_12">
    <path d="M 36 525.24 
L 538.2 525.24 
" style="fill:none;stroke:#000000;stroke-linecap:square;stroke-linejoin:miter;stroke-width:0.8;"/>
   </g>
  </g>
 </g>
 <defs>
  <clipPath id="pbade9b0c3e">
   <rect height="366.93" width="502.2" x="36" y="36"/>
  </clipPath>
  <clipPath id="p6ce352539a">
   <rect height="122.31" width="502.2" x="36" y="402.93"/>
  </clipPath>
 </defs>
</svg>
