<?xml version="1.0" encoding="utf-8" standalone="no"?>
<!DOCTYPE svg PUBLIC "-//W3C//DTD SVG 1.1//EN"
  "http://www.w3.org/Graphics/SVG/1.1/DTD/svg11.dtd">
<!-- Created with matplotlib (https://matplotlib.org/) -->
<svg height="581.789375pt" version="1.1" viewBox="0 0 574.2 581.789375" width="574.2pt" xmlns="http://www.w3.org/2000/svg" xmlns:xlink="http://www.w3.org/1999/xlink">
 <defs>
  <style type="text/css">
*{stroke-linecap:butt;stroke-linejoin:round;}
  </style>
 </defs>
 <g id="figure_1">
  <g id="patch_1">
   <path d="M 0 581.789375 
L 574.2 581.789375 
L 574.2 0 
L 0 0 
z
" style="fill:none;"/>
  </g>
  <g id="axes_1">
   <g id="patch_2">
    <path d="M 36 402.93 
L 538.2 402.93 
L 538.2 36 
L 36 36 
z
" style="fill:none;"/>
   </g>
   <g id="PolyCollection_1">
    <defs>
     <path d="M 96.765052 -195.538011 
L 96.765052 -195.648771 
L 100.993412 -195.690536 
L 105.221772 -195.746684 
L 109.450133 -195.821642 
L 113.678493 -195.921017 
L 117.906853 -196.051844 
L 122.135214 -196.222872 
L 126.363574 -196.444884 
L 130.591935 -196.731052 
L 134.820295 -197.097305 
L 139.048655 -197.562729 
L 143.277016 -198.149965 
L 147.505376 -198.885587 
L 151.733736 -199.800462 
L 155.962097 -200.930044 
L 160.190457 -202.314577 
L 164.418817 -203.999191 
L 168.647178 -206.033829 
L 172.875538 -208.472989 
L 177.103899 -211.37524 
L 181.332259 -214.802468 
L 185.560619 -218.81884 
L 189.78898 -223.489451 
L 194.01734 -228.878657 
L 198.2457 -235.048092 
L 202.474061 -242.054391 
L 206.702421 -249.946664 
L 210.930781 -258.76378 
L 215.159142 -268.531538 
L 219.387502 -279.25983 
L 223.615862 -290.939916 
L 227.844223 -303.541931 
L 232.072583 -317.012776 
L 236.300944 -331.274527 
L 240.529304 -346.223493 
L 244.757664 -361.730045 
L 248.986025 -377.639323 
L 253.214385 -393.772871 
L 257.442745 -409.931238 
L 261.671106 -425.897537 
L 265.899466 -441.441885 
L 270.127826 -456.326637 
L 274.356187 -470.312243 
L 278.584547 -483.163545 
L 282.812908 -494.656291 
L 287.041268 -504.583603 
L 291.269628 -512.762153 
L 295.497989 -519.037791 
L 299.726349 -523.290371 
L 303.954709 -525.43758 
L 308.18307 -525.43758 
L 312.41143 -523.290371 
L 316.63979 -519.037791 
L 320.868151 -512.762153 
L 325.096511 -504.583603 
L 329.324871 -494.656291 
L 333.553232 -483.163545 
L 337.781592 -470.312243 
L 342.009953 -456.326637 
L 346.238313 -441.441885 
L 350.466673 -425.897537 
L 354.695034 -409.931238 
L 358.923394 -393.772871 
L 363.151754 -377.639323 
L 367.380115 -361.730045 
L 371.608475 -346.223493 
L 375.836835 -331.274527 
L 380.065196 -317.012776 
L 384.293556 -303.541931 
L 388.521916 -290.939916 
L 392.750277 -279.25983 
L 396.978637 -268.531538 
L 401.206998 -258.76378 
L 405.435358 -249.946664 
L 409.663718 -242.054391 
L 413.892079 -235.048092 
L 418.120439 -228.878657 
L 422.348799 -223.489451 
L 426.57716 -218.81884 
L 430.80552 -214.802468 
L 435.03388 -211.37524 
L 439.262241 -208.472989 
L 443.490601 -206.033829 
L 447.718962 -203.999191 
L 451.947322 -202.314577 
L 456.175682 -200.930044 
L 460.404043 -199.800462 
L 464.632403 -198.885587 
L 468.860763 -198.149965 
L 473.089124 -197.562729 
L 477.317484 -197.097305 
L 481.545844 -196.731052 
L 485.774205 -196.444884 
L 490.002565 -196.222872 
L 494.230925 -196.051844 
L 498.459286 -195.921017 
L 502.687646 -195.821642 
L 506.916007 -195.746684 
L 511.144367 -195.690536 
L 515.372727 -195.648771 
L 515.372727 -195.538011 
L 515.372727 -195.538011 
L 511.144367 -195.538011 
L 506.916007 -195.538011 
L 502.687646 -195.538011 
L 498.459286 -195.538011 
L 494.230925 -195.538011 
L 490.002565 -195.538011 
L 485.774205 -195.538011 
L 481.545844 -195.538011 
L 477.317484 -195.538011 
L 473.089124 -195.538011 
L 468.860763 -195.538011 
L 464.632403 -195.538011 
L 460.404043 -195.538011 
L 456.175682 -195.538011 
L 451.947322 -195.538011 
L 447.718962 -195.538011 
L 443.490601 -195.538011 
L 439.262241 -195.538011 
L 435.03388 -195.538011 
L 430.80552 -195.538011 
L 426.57716 -195.538011 
L 422.348799 -195.538011 
L 418.120439 -195.538011 
L 413.892079 -195.538011 
L 409.663718 -195.538011 
L 405.435358 -195.538011 
L 401.206998 -195.538011 
L 396.978637 -195.538011 
L 392.750277 -195.538011 
L 388.521916 -195.538011 
L 384.293556 -195.538011 
L 380.065196 -195.538011 
L 375.836835 -195.538011 
L 371.608475 -195.538011 
L 367.380115 -195.538011 
L 363.151754 -195.538011 
L 358.923394 -195.538011 
L 354.695034 -195.538011 
L 350.466673 -195.538011 
L 346.238313 -195.538011 
L 342.009953 -195.538011 
L 337.781592 -195.538011 
L 333.553232 -195.538011 
L 329.324871 -195.538011 
L 325.096511 -195.538011 
L 320.868151 -195.538011 
L 316.63979 -195.538011 
L 312.41143 -195.538011 
L 308.18307 -195.538011 
L 303.954709 -195.538011 
L 299.726349 -195.538011 
L 295.497989 -195.538011 
L 291.269628 -195.538011 
L 287.041268 -195.538011 
L 282.812908 -195.538011 
L 278.584547 -195.538011 
L 274.356187 -195.538011 
L 270.127826 -195.538011 
L 265.899466 -195.538011 
L 261.671106 -195.538011 
L 257.442745 -195.538011 
L 253.214385 -195.538011 
L 248.986025 -195.538011 
L 244.757664 -195.538011 
L 240.529304 -195.538011 
L 236.300944 -195.538011 
L 232.072583 -195.538011 
L 227.844223 -195.538011 
L 223.615862 -195.538011 
L 219.387502 -195.538011 
L 215.159142 -195.538011 
L 210.930781 -195.538011 
L 206.702421 -195.538011 
L 202.474061 -195.538011 
L 198.2457 -195.538011 
L 194.01734 -195.538011 
L 189.78898 -195.538011 
L 185.560619 -195.538011 
L 181.332259 -195.538011 
L 177.103899 -195.538011 
L 172.875538 -195.538011 
L 168.647178 -195.538011 
L 164.418817 -195.538011 
L 160.190457 -195.538011 
L 155.962097 -195.538011 
L 151.733736 -195.538011 
L 147.505376 -195.538011 
L 143.277016 -195.538011 
L 139.048655 -195.538011 
L 134.820295 -195.538011 
L 130.591935 -195.538011 
L 126.363574 -195.538011 
L 122.135214 -195.538011 
L 117.906853 -195.538011 
L 113.678493 -195.538011 
L 109.450133 -195.538011 
L 105.221772 -195.538011 
L 100.993412 -195.538011 
L 96.765052 -195.538011 
z
" id="mef772d9b82" style="stroke:#ff6384;stroke-opacity:0.5;"/>
    </defs>
    <g clip-path="url(#pabac77c8e4)">
     <use style="fill:#ff6384;fill-opacity:0.5;stroke:#ff6384;stroke-opacity:0.5;" x="0" xlink:href="#mef772d9b82" y="581.789375"/>
    </g>
   </g>
   <g id="PolyCollection_2">
    <defs>
     <path d="M 58.827273 -195.538011 
L 58.827273 -195.650004 
L 63.009072 -195.692234 
L 67.190872 -195.749007 
L 71.372671 -195.8248 
L 75.554471 -195.925281 
L 79.73627 -196.057565 
L 83.91807 -196.230497 
L 88.099869 -196.454982 
L 92.281669 -196.744335 
L 96.463468 -197.114666 
L 100.645268 -197.585273 
L 104.827067 -198.179047 
L 109.008866 -198.922859 
L 113.190666 -199.847921 
L 117.372465 -200.990079 
L 121.554265 -202.390029 
L 125.736064 -204.093399 
L 129.917864 -206.150691 
L 134.099663 -208.617009 
L 138.281463 -211.551575 
L 142.463262 -215.016962 
L 146.645062 -219.078053 
L 150.826861 -223.800667 
L 155.008661 -229.249878 
L 159.19046 -235.488004 
L 163.37226 -242.572312 
L 167.554059 -250.552459 
L 171.735859 -259.467747 
L 175.917658 -269.344261 
L 180.099458 -280.192004 
L 184.281257 -292.002137 
L 188.463057 -304.744465 
L 192.644856 -318.365297 
L 196.826656 -332.785841 
L 201.008455 -347.901251 
L 205.190254 -363.580456 
L 209.372054 -379.666871 
L 213.553853 -395.980052 
L 217.735653 -412.31833 
L 221.917452 -428.4624 
L 226.099252 -444.179822 
L 230.281051 -459.230303 
L 234.462851 -473.371627 
L 238.64465 -486.366018 
L 242.82645 -497.986726 
L 247.008249 -508.02457 
L 251.190049 -516.294181 
L 255.371848 -522.639693 
L 259.553648 -526.939623 
L 263.735447 -529.110739 
L 267.917247 -529.110739 
L 272.099046 -526.939623 
L 276.280846 -522.639693 
L 280.462645 -516.294181 
L 284.644445 -508.02457 
L 288.826244 -497.986726 
L 293.008044 -486.366018 
L 297.189843 -473.371627 
L 301.371642 -459.230303 
L 305.553442 -444.179822 
L 309.735241 -428.4624 
L 313.917041 -412.31833 
L 318.09884 -395.980052 
L 322.28064 -379.666871 
L 326.462439 -363.580456 
L 330.644239 -347.901251 
L 334.826038 -332.785841 
L 339.007838 -318.365297 
L 343.189637 -304.744465 
L 347.371437 -292.002137 
L 351.553236 -280.192004 
L 355.735036 -269.344261 
L 359.916835 -259.467747 
L 364.098635 -250.552459 
L 368.280434 -242.572312 
L 372.462234 -235.488004 
L 376.644033 -229.249878 
L 380.825833 -223.800667 
L 385.007632 -219.078053 
L 389.189432 -215.016962 
L 393.371231 -211.551575 
L 397.55303 -208.617009 
L 401.73483 -206.150691 
L 405.916629 -204.093399 
L 410.098429 -202.390029 
L 414.280228 -200.990079 
L 418.462028 -199.847921 
L 422.643827 -198.922859 
L 426.825627 -198.179047 
L 431.007426 -197.585273 
L 435.189226 -197.114666 
L 439.371025 -196.744335 
L 443.552825 -196.454982 
L 447.734624 -196.230497 
L 451.916424 -196.057565 
L 456.098223 -195.925281 
L 460.280023 -195.8248 
L 464.461822 -195.749007 
L 468.643622 -195.692234 
L 472.825421 -195.650004 
L 472.825421 -195.538011 
L 472.825421 -195.538011 
L 468.643622 -195.538011 
L 464.461822 -195.538011 
L 460.280023 -195.538011 
L 456.098223 -195.538011 
L 451.916424 -195.538011 
L 447.734624 -195.538011 
L 443.552825 -195.538011 
L 439.371025 -195.538011 
L 435.189226 -195.538011 
L 431.007426 -195.538011 
L 426.825627 -195.538011 
L 422.643827 -195.538011 
L 418.462028 -195.538011 
L 414.280228 -195.538011 
L 410.098429 -195.538011 
L 405.916629 -195.538011 
L 401.73483 -195.538011 
L 397.55303 -195.538011 
L 393.371231 -195.538011 
L 389.189432 -195.538011 
L 385.007632 -195.538011 
L 380.825833 -195.538011 
L 376.644033 -195.538011 
L 372.462234 -195.538011 
L 368.280434 -195.538011 
L 364.098635 -195.538011 
L 359.916835 -195.538011 
L 355.735036 -195.538011 
L 351.553236 -195.538011 
L 347.371437 -195.538011 
L 343.189637 -195.538011 
L 339.007838 -195.538011 
L 334.826038 -195.538011 
L 330.644239 -195.538011 
L 326.462439 -195.538011 
L 322.28064 -195.538011 
L 318.09884 -195.538011 
L 313.917041 -195.538011 
L 309.735241 -195.538011 
L 305.553442 -195.538011 
L 301.371642 -195.538011 
L 297.189843 -195.538011 
L 293.008044 -195.538011 
L 288.826244 -195.538011 
L 284.644445 -195.538011 
L 280.462645 -195.538011 
L 276.280846 -195.538011 
L 272.099046 -195.538011 
L 267.917247 -195.538011 
L 263.735447 -195.538011 
L 259.553648 -195.538011 
L 255.371848 -195.538011 
L 251.190049 -195.538011 
L 247.008249 -195.538011 
L 242.82645 -195.538011 
L 238.64465 -195.538011 
L 234.462851 -195.538011 
L 230.281051 -195.538011 
L 226.099252 -195.538011 
L 221.917452 -195.538011 
L 217.735653 -195.538011 
L 213.553853 -195.538011 
L 209.372054 -195.538011 
L 205.190254 -195.538011 
L 201.008455 -195.538011 
L 196.826656 -195.538011 
L 192.644856 -195.538011 
L 188.463057 -195.538011 
L 184.281257 -195.538011 
L 180.099458 -195.538011 
L 175.917658 -195.538011 
L 171.735859 -195.538011 
L 167.554059 -195.538011 
L 163.37226 -195.538011 
L 159.19046 -195.538011 
L 155.008661 -195.538011 
L 150.826861 -195.538011 
L 146.645062 -195.538011 
L 142.463262 -195.538011 
L 138.281463 -195.538011 
L 134.099663 -195.538011 
L 129.917864 -195.538011 
L 125.736064 -195.538011 
L 121.554265 -195.538011 
L 117.372465 -195.538011 
L 113.190666 -195.538011 
L 109.008866 -195.538011 
L 104.827067 -195.538011 
L 100.645268 -195.538011 
L 96.463468 -195.538011 
L 92.281669 -195.538011 
L 88.099869 -195.538011 
L 83.91807 -195.538011 
L 79.73627 -195.538011 
L 75.554471 -195.538011 
L 71.372671 -195.538011 
L 67.190872 -195.538011 
L 63.009072 -195.538011 
L 58.827273 -195.538011 
z
" id="m4dcc7711fd" style="stroke:#36a2eb;stroke-opacity:0.5;"/>
    </defs>
    <g clip-path="url(#pabac77c8e4)">
     <use style="fill:#36a2eb;fill-opacity:0.5;stroke:#36a2eb;stroke-opacity:0.5;" x="0" xlink:href="#m4dcc7711fd" y="581.789375"/>
    </g>
   </g>
   <g id="line2d_1">
    <path clip-path="url(#pabac77c8e4)" d="M 96.765052 386.140604 
L 100.993412 386.098839 
L 105.221772 386.042691 
L 109.450133 385.967733 
L 113.678493 385.868358 
L 117.906853 385.737531 
L 122.135214 385.566503 
L 126.363574 385.344491 
L 130.591935 385.058323 
L 134.820295 384.69207 
L 139.048655 384.226646 
L 143.277016 383.63941 
L 147.505376 382.903788 
L 151.733736 381.988913 
L 155.962097 380.859331 
L 160.190457 379.474798 
L 164.418817 377.790184 
L 168.647178 375.755546 
L 172.875538 373.316386 
L 177.103899 370.414135 
L 181.332259 366.986907 
L 185.560619 362.970535 
L 189.78898 358.299924 
L 194.01734 352.910718 
L 198.2457 346.741283 
L 202.474061 339.734984 
L 206.702421 331.842711 
L 210.930781 323.025595 
L 215.159142 313.257837 
L 219.387502 302.529545 
L 223.615862 290.849459 
L 227.844223 278.247444 
L 232.072583 264.776599 
L 236.300944 250.514848 
L 240.529304 235.565882 
L 244.757664 220.05933 
L 248.986025 204.150052 
L 253.214385 188.016504 
L 257.442745 171.858137 
L 261.671106 155.891838 
L 265.899466 140.34749 
L 270.127826 125.462738 
L 274.356187 111.477132 
L 278.584547 98.62583 
L 282.812908 87.133084 
L 287.041268 77.205772 
L 291.269628 69.027222 
L 295.497989 62.751584 
L 299.726349 58.499004 
L 303.954709 56.351795 
L 308.18307 56.351795 
L 312.41143 58.499004 
L 316.63979 62.751584 
L 320.868151 69.027222 
L 325.096511 77.205772 
L 329.324871 87.133084 
L 333.553232 98.62583 
L 337.781592 111.477132 
L 342.009953 125.462738 
L 346.238313 140.34749 
L 350.466673 155.891838 
L 354.695034 171.858137 
L 358.923394 188.016504 
L 363.151754 204.150052 
L 367.380115 220.05933 
L 371.608475 235.565882 
L 375.836835 250.514848 
L 380.065196 264.776599 
L 384.293556 278.247444 
L 388.521916 290.849459 
L 392.750277 302.529545 
L 396.978637 313.257837 
L 401.206998 323.025595 
L 405.435358 331.842711 
L 409.663718 339.734984 
L 413.892079 346.741283 
L 418.120439 352.910718 
L 422.348799 358.299924 
L 426.57716 362.970535 
L 430.80552 366.986907 
L 435.03388 370.414135 
L 439.262241 373.316386 
L 443.490601 375.755546 
L 447.718962 377.790184 
L 451.947322 379.474798 
L 456.175682 380.859331 
L 460.404043 381.988913 
L 464.632403 382.903788 
L 468.860763 383.63941 
L 473.089124 384.226646 
L 477.317484 384.69207 
L 481.545844 385.058323 
L 485.774205 385.344491 
L 490.002565 385.566503 
L 494.230925 385.737531 
L 498.459286 385.868358 
L 502.687646 385.967733 
L 506.916007 386.042691 
L 511.144367 386.098839 
L 515.372727 386.140604 
" style="fill:none;stroke:#ff6384;stroke-linecap:square;"/>
   </g>
   <g id="line2d_2">
    <path clip-path="url(#pabac77c8e4)" d="M 58.827273 386.139371 
L 63.009072 386.097141 
L 67.190872 386.040368 
L 71.372671 385.964575 
L 75.554471 385.864094 
L 79.73627 385.73181 
L 83.91807 385.558878 
L 88.099869 385.334393 
L 92.281669 385.04504 
L 96.463468 384.674709 
L 100.645268 384.204102 
L 104.827067 383.610328 
L 109.008866 382.866516 
L 113.190666 381.941454 
L 117.372465 380.799296 
L 121.554265 379.399346 
L 125.736064 377.695976 
L 129.917864 375.638684 
L 134.099663 373.172366 
L 138.281463 370.2378 
L 142.463262 366.772413 
L 146.645062 362.711322 
L 150.826861 357.988708 
L 155.008661 352.539497 
L 159.19046 346.301371 
L 163.37226 339.217063 
L 167.554059 331.236916 
L 171.735859 322.321628 
L 175.917658 312.445114 
L 180.099458 301.597371 
L 184.281257 289.787238 
L 188.463057 277.04491 
L 192.644856 263.424078 
L 196.826656 249.003534 
L 201.008455 233.888124 
L 205.190254 218.208919 
L 209.372054 202.122504 
L 213.553853 185.809323 
L 217.735653 169.471045 
L 221.917452 153.326975 
L 226.099252 137.609553 
L 230.281051 122.559072 
L 234.462851 108.417748 
L 238.64465 95.423357 
L 242.82645 83.802649 
L 247.008249 73.764805 
L 251.190049 65.495194 
L 255.371848 59.149682 
L 259.553648 54.849752 
L 263.735447 52.678636 
L 267.917247 52.678636 
L 272.099046 54.849752 
L 276.280846 59.149682 
L 280.462645 65.495194 
L 284.644445 73.764805 
L 288.826244 83.802649 
L 293.008044 95.423357 
L 297.189843 108.417748 
L 301.371642 122.559072 
L 305.553442 137.609553 
L 309.735241 153.326975 
L 313.917041 169.471045 
L 318.09884 185.809323 
L 322.28064 202.122504 
L 326.462439 218.208919 
L 330.644239 233.888124 
L 334.826038 249.003534 
L 339.007838 263.424078 
L 343.189637 277.04491 
L 347.371437 289.787238 
L 351.553236 301.597371 
L 355.735036 312.445114 
L 359.916835 322.321628 
L 364.098635 331.236916 
L 368.280434 339.217063 
L 372.462234 346.301371 
L 376.644033 352.539497 
L 380.825833 357.988708 
L 385.007632 362.711322 
L 389.189432 366.772413 
L 393.371231 370.2378 
L 397.55303 373.172366 
L 401.73483 375.638684 
L 405.916629 377.695976 
L 410.098429 379.399346 
L 414.280228 380.799296 
L 418.462028 381.941454 
L 422.643827 382.866516 
L 426.825627 383.610328 
L 431.007426 384.204102 
L 435.189226 384.674709 
L 439.371025 385.04504 
L 443.552825 385.334393 
L 447.734624 385.558878 
L 451.916424 385.73181 
L 456.098223 385.864094 
L 460.280023 385.964575 
L 464.461822 386.040368 
L 468.643622 386.097141 
L 472.825421 386.139371 
" style="fill:none;stroke:#36a2eb;stroke-linecap:square;"/>
   </g>
   <g id="patch_3">
    <path d="M 36 402.93 
L 538.2 402.93 
" style="fill:none;stroke:#000000;stroke-linecap:square;stroke-linejoin:miter;stroke-width:0.8;"/>
   </g>
   <g id="legend_1">
    <g id="patch_4">
     <path d="M 441.707188 88.29875 
L 528.4 88.29875 
Q 531.2 88.29875 531.2 85.49875 
L 531.2 45.8 
Q 531.2 43 528.4 43 
L 441.707188 43 
Q 438.907188 43 438.907188 45.8 
L 438.907188 85.49875 
Q 438.907188 88.29875 441.707188 88.29875 
z
" style="fill:#ffffff;opacity:0.8;stroke:#cccccc;stroke-linejoin:miter;"/>
    </g>
    <g id="patch_5">
     <path d="M 444.507188 59.237813 
L 472.507188 59.237813 
L 472.507188 49.437813 
L 444.507188 49.437813 
z
" style="fill:#ff6384;opacity:0.5;stroke:#ff6384;stroke-linejoin:miter;"/>
    </g>
    <g id="text_1">
     <!-- base -->
     <defs>
      <path d="M 48.6875 27.296875 
Q 48.6875 37.203125 44.609375 42.84375 
Q 40.53125 48.484375 33.40625 48.484375 
Q 26.265625 48.484375 22.1875 42.84375 
Q 18.109375 37.203125 18.109375 27.296875 
Q 18.109375 17.390625 22.1875 11.75 
Q 26.265625 6.109375 33.40625 6.109375 
Q 40.53125 6.109375 44.609375 11.75 
Q 48.6875 17.390625 48.6875 27.296875 
z
M 18.109375 46.390625 
Q 20.953125 51.265625 25.265625 53.625 
Q 29.59375 56 35.59375 56 
Q 45.5625 56 51.78125 48.09375 
Q 58.015625 40.1875 58.015625 27.296875 
Q 58.015625 14.40625 51.78125 6.484375 
Q 45.5625 -1.421875 35.59375 -1.421875 
Q 29.59375 -1.421875 25.265625 0.953125 
Q 20.953125 3.328125 18.109375 8.203125 
L 18.109375 0 
L 9.078125 0 
L 9.078125 75.984375 
L 18.109375 75.984375 
z
" id="DejaVuSans-98"/>
      <path d="M 34.28125 27.484375 
Q 23.390625 27.484375 19.1875 25 
Q 14.984375 22.515625 14.984375 16.5 
Q 14.984375 11.71875 18.140625 8.90625 
Q 21.296875 6.109375 26.703125 6.109375 
Q 34.1875 6.109375 38.703125 11.40625 
Q 43.21875 16.703125 43.21875 25.484375 
L 43.21875 27.484375 
z
M 52.203125 31.203125 
L 52.203125 0 
L 43.21875 0 
L 43.21875 8.296875 
Q 40.140625 3.328125 35.546875 0.953125 
Q 30.953125 -1.421875 24.3125 -1.421875 
Q 15.921875 -1.421875 10.953125 3.296875 
Q 6 8.015625 6 15.921875 
Q 6 25.140625 12.171875 29.828125 
Q 18.359375 34.515625 30.609375 34.515625 
L 43.21875 34.515625 
L 43.21875 35.40625 
Q 43.21875 41.609375 39.140625 45 
Q 35.0625 48.390625 27.6875 48.390625 
Q 23 48.390625 18.546875 47.265625 
Q 14.109375 46.140625 10.015625 43.890625 
L 10.015625 52.203125 
Q 14.9375 54.109375 19.578125 55.046875 
Q 24.21875 56 28.609375 56 
Q 40.484375 56 46.34375 49.84375 
Q 52.203125 43.703125 52.203125 31.203125 
z
" id="DejaVuSans-97"/>
      <path d="M 44.28125 53.078125 
L 44.28125 44.578125 
Q 40.484375 46.53125 36.375 47.5 
Q 32.28125 48.484375 27.875 48.484375 
Q 21.1875 48.484375 17.84375 46.4375 
Q 14.5 44.390625 14.5 40.28125 
Q 14.5 37.15625 16.890625 35.375 
Q 19.28125 33.59375 26.515625 31.984375 
L 29.59375 31.296875 
Q 39.15625 29.25 43.1875 25.515625 
Q 47.21875 21.78125 47.21875 15.09375 
Q 47.21875 7.46875 41.1875 3.015625 
Q 35.15625 -1.421875 24.609375 -1.421875 
Q 20.21875 -1.421875 15.453125 -0.5625 
Q 10.6875 0.296875 5.421875 2 
L 5.421875 11.28125 
Q 10.40625 8.6875 15.234375 7.390625 
Q 20.0625 6.109375 24.8125 6.109375 
Q 31.15625 6.109375 34.5625 8.28125 
Q 37.984375 10.453125 37.984375 14.40625 
Q 37.984375 18.0625 35.515625 20.015625 
Q 33.0625 21.96875 24.703125 23.78125 
L 21.578125 24.515625 
Q 13.234375 26.265625 9.515625 29.90625 
Q 5.8125 33.546875 5.8125 39.890625 
Q 5.8125 47.609375 11.28125 51.796875 
Q 16.75 56 26.8125 56 
Q 31.78125 56 36.171875 55.265625 
Q 40.578125 54.546875 44.28125 53.078125 
z
" id="DejaVuSans-115"/>
      <path d="M 56.203125 29.59375 
L 56.203125 25.203125 
L 14.890625 25.203125 
Q 15.484375 15.921875 20.484375 11.0625 
Q 25.484375 6.203125 34.421875 6.203125 
Q 39.59375 6.203125 44.453125 7.46875 
Q 49.3125 8.734375 54.109375 11.28125 
L 54.109375 2.78125 
Q 49.265625 0.734375 44.1875 -0.34375 
Q 39.109375 -1.421875 33.890625 -1.421875 
Q 20.796875 -1.421875 13.15625 6.1875 
Q 5.515625 13.8125 5.515625 26.8125 
Q 5.515625 40.234375 12.765625 48.109375 
Q 20.015625 56 32.328125 56 
Q 43.359375 56 49.78125 48.890625 
Q 56.203125 41.796875 56.203125 29.59375 
z
M 47.21875 32.234375 
Q 47.125 39.59375 43.09375 43.984375 
Q 39.0625 48.390625 32.421875 48.390625 
Q 24.90625 48.390625 20.390625 44.140625 
Q 15.875 39.890625 15.1875 32.171875 
z
" id="DejaVuSans-101"/>
     </defs>
     <g transform="translate(483.707188 59.237813)scale(0.14 -0.14)">
      <use xlink:href="#DejaVuSans-98"/>
      <use x="63.476562" xlink:href="#DejaVuSans-97"/>
      <use x="124.755859" xlink:href="#DejaVuSans-115"/>
      <use x="176.855469" xlink:href="#DejaVuSans-101"/>
     </g>
    </g>
    <g id="patch_6">
     <path d="M 444.507188 79.787188 
L 472.507188 79.787188 
L 472.507188 69.987188 
L 444.507188 69.987188 
z
" style="fill:#36a2eb;opacity:0.5;stroke:#36a2eb;stroke-linejoin:miter;"/>
    </g>
    <g id="text_2">
     <!-- osago -->
     <defs>
      <path d="M 30.609375 48.390625 
Q 23.390625 48.390625 19.1875 42.75 
Q 14.984375 37.109375 14.984375 27.296875 
Q 14.984375 17.484375 19.15625 11.84375 
Q 23.34375 6.203125 30.609375 6.203125 
Q 37.796875 6.203125 41.984375 11.859375 
Q 46.1875 17.53125 46.1875 27.296875 
Q 46.1875 37.015625 41.984375 42.703125 
Q 37.796875 48.390625 30.609375 48.390625 
z
M 30.609375 56 
Q 42.328125 56 49.015625 48.375 
Q 55.71875 40.765625 55.71875 27.296875 
Q 55.71875 13.875 49.015625 6.21875 
Q 42.328125 -1.421875 30.609375 -1.421875 
Q 18.84375 -1.421875 12.171875 6.21875 
Q 5.515625 13.875 5.515625 27.296875 
Q 5.515625 40.765625 12.171875 48.375 
Q 18.84375 56 30.609375 56 
z
" id="DejaVuSans-111"/>
      <path d="M 45.40625 27.984375 
Q 45.40625 37.75 41.375 43.109375 
Q 37.359375 48.484375 30.078125 48.484375 
Q 22.859375 48.484375 18.828125 43.109375 
Q 14.796875 37.75 14.796875 27.984375 
Q 14.796875 18.265625 18.828125 12.890625 
Q 22.859375 7.515625 30.078125 7.515625 
Q 37.359375 7.515625 41.375 12.890625 
Q 45.40625 18.265625 45.40625 27.984375 
z
M 54.390625 6.78125 
Q 54.390625 -7.171875 48.1875 -13.984375 
Q 42 -20.796875 29.203125 -20.796875 
Q 24.46875 -20.796875 20.265625 -20.09375 
Q 16.0625 -19.390625 12.109375 -17.921875 
L 12.109375 -9.1875 
Q 16.0625 -11.328125 19.921875 -12.34375 
Q 23.78125 -13.375 27.78125 -13.375 
Q 36.625 -13.375 41.015625 -8.765625 
Q 45.40625 -4.15625 45.40625 5.171875 
L 45.40625 9.625 
Q 42.625 4.78125 38.28125 2.390625 
Q 33.9375 0 27.875 0 
Q 17.828125 0 11.671875 7.65625 
Q 5.515625 15.328125 5.515625 27.984375 
Q 5.515625 40.671875 11.671875 48.328125 
Q 17.828125 56 27.875 56 
Q 33.9375 56 38.28125 53.609375 
Q 42.625 51.21875 45.40625 46.390625 
L 45.40625 54.6875 
L 54.390625 54.6875 
z
" id="DejaVuSans-103"/>
     </defs>
     <g transform="translate(483.707188 79.787188)scale(0.14 -0.14)">
      <use xlink:href="#DejaVuSans-111"/>
      <use x="61.181641" xlink:href="#DejaVuSans-115"/>
      <use x="113.28125" xlink:href="#DejaVuSans-97"/>
      <use x="174.560547" xlink:href="#DejaVuSans-103"/>
      <use x="238.037109" xlink:href="#DejaVuSans-111"/>
     </g>
    </g>
   </g>
  </g>
  <g id="axes_2">
   <g id="patch_7">
    <path d="M 36 525.24 
L 538.2 525.24 
L 538.2 402.93 
L 36 402.93 
z
" style="fill:none;"/>
   </g>
   <g id="patch_8">
    <path clip-path="url(#p0d30d1154a)" d="M 203.510009 519.680455 
L 408.62777 519.680455 
L 408.62777 482.616818 
L 203.510009 482.616818 
z
" style="fill:#ff6384;opacity:0.5;"/>
   </g>
   <g id="patch_9">
    <path clip-path="url(#p0d30d1154a)" d="M 164.396801 445.553182 
L 367.255893 445.553182 
L 367.255893 408.489545 
L 164.396801 408.489545 
z
" style="fill:#36a2eb;opacity:0.5;"/>
   </g>
   <g id="matplotlib.axis_1">
    <g id="xtick_1">
     <g id="line2d_3">
      <defs>
       <path d="M 0 0 
L 0 3.5 
" id="m72a176ea27" style="stroke:#000000;stroke-width:0.8;"/>
      </defs>
      <g>
       <use style="stroke:#000000;stroke-width:0.8;" x="84.041068" xlink:href="#m72a176ea27" y="525.24"/>
      </g>
     </g>
     <g id="text_3">
      <!-- 5.0 -->
      <defs>
       <path d="M 10.796875 72.90625 
L 49.515625 72.90625 
L 49.515625 64.59375 
L 19.828125 64.59375 
L 19.828125 46.734375 
Q 21.96875 47.46875 24.109375 47.828125 
Q 26.265625 48.1875 28.421875 48.1875 
Q 40.625 48.1875 47.75 41.5 
Q 54.890625 34.8125 54.890625 23.390625 
Q 54.890625 11.625 47.5625 5.09375 
Q 40.234375 -1.421875 26.90625 -1.421875 
Q 22.3125 -1.421875 17.546875 -0.640625 
Q 12.796875 0.140625 7.71875 1.703125 
L 7.71875 11.625 
Q 12.109375 9.234375 16.796875 8.0625 
Q 21.484375 6.890625 26.703125 6.890625 
Q 35.15625 6.890625 40.078125 11.328125 
Q 45.015625 15.765625 45.015625 23.390625 
Q 45.015625 31 40.078125 35.4375 
Q 35.15625 39.890625 26.703125 39.890625 
Q 22.75 39.890625 18.8125 39.015625 
Q 14.890625 38.140625 10.796875 36.28125 
z
" id="DejaVuSans-53"/>
       <path d="M 10.6875 12.40625 
L 21 12.40625 
L 21 0 
L 10.6875 0 
z
" id="DejaVuSans-46"/>
       <path d="M 31.78125 66.40625 
Q 24.171875 66.40625 20.328125 58.90625 
Q 16.5 51.421875 16.5 36.375 
Q 16.5 21.390625 20.328125 13.890625 
Q 24.171875 6.390625 31.78125 6.390625 
Q 39.453125 6.390625 43.28125 13.890625 
Q 47.125 21.390625 47.125 36.375 
Q 47.125 51.421875 43.28125 58.90625 
Q 39.453125 66.40625 31.78125 66.40625 
z
M 31.78125 74.21875 
Q 44.046875 74.21875 50.515625 64.515625 
Q 56.984375 54.828125 56.984375 36.375 
Q 56.984375 17.96875 50.515625 8.265625 
Q 44.046875 -1.421875 31.78125 -1.421875 
Q 19.53125 -1.421875 13.0625 8.265625 
Q 6.59375 17.96875 6.59375 36.375 
Q 6.59375 54.828125 13.0625 64.515625 
Q 19.53125 74.21875 31.78125 74.21875 
z
" id="DejaVuSans-48"/>
      </defs>
      <g transform="translate(72.908881 542.877813)scale(0.14 -0.14)">
       <use xlink:href="#DejaVuSans-53"/>
       <use x="63.623047" xlink:href="#DejaVuSans-46"/>
       <use x="95.410156" xlink:href="#DejaVuSans-48"/>
      </g>
     </g>
    </g>
    <g id="xtick_2">
     <g id="line2d_4">
      <g>
       <use style="stroke:#000000;stroke-width:0.8;" x="153.424762" xlink:href="#m72a176ea27" y="525.24"/>
      </g>
     </g>
     <g id="text_4">
      <!-- 5.5 -->
      <g transform="translate(142.292575 542.877813)scale(0.14 -0.14)">
       <use xlink:href="#DejaVuSans-53"/>
       <use x="63.623047" xlink:href="#DejaVuSans-46"/>
       <use x="95.410156" xlink:href="#DejaVuSans-53"/>
      </g>
     </g>
    </g>
    <g id="xtick_3">
     <g id="line2d_5">
      <g>
       <use style="stroke:#000000;stroke-width:0.8;" x="222.808457" xlink:href="#m72a176ea27" y="525.24"/>
      </g>
     </g>
     <g id="text_5">
      <!-- 6.0 -->
      <defs>
       <path d="M 33.015625 40.375 
Q 26.375 40.375 22.484375 35.828125 
Q 18.609375 31.296875 18.609375 23.390625 
Q 18.609375 15.53125 22.484375 10.953125 
Q 26.375 6.390625 33.015625 6.390625 
Q 39.65625 6.390625 43.53125 10.953125 
Q 47.40625 15.53125 47.40625 23.390625 
Q 47.40625 31.296875 43.53125 35.828125 
Q 39.65625 40.375 33.015625 40.375 
z
M 52.59375 71.296875 
L 52.59375 62.3125 
Q 48.875 64.0625 45.09375 64.984375 
Q 41.3125 65.921875 37.59375 65.921875 
Q 27.828125 65.921875 22.671875 59.328125 
Q 17.53125 52.734375 16.796875 39.40625 
Q 19.671875 43.65625 24.015625 45.921875 
Q 28.375 48.1875 33.59375 48.1875 
Q 44.578125 48.1875 50.953125 41.515625 
Q 57.328125 34.859375 57.328125 23.390625 
Q 57.328125 12.15625 50.6875 5.359375 
Q 44.046875 -1.421875 33.015625 -1.421875 
Q 20.359375 -1.421875 13.671875 8.265625 
Q 6.984375 17.96875 6.984375 36.375 
Q 6.984375 53.65625 15.1875 63.9375 
Q 23.390625 74.21875 37.203125 74.21875 
Q 40.921875 74.21875 44.703125 73.484375 
Q 48.484375 72.75 52.59375 71.296875 
z
" id="DejaVuSans-54"/>
      </defs>
      <g transform="translate(211.676269 542.877813)scale(0.14 -0.14)">
       <use xlink:href="#DejaVuSans-54"/>
       <use x="63.623047" xlink:href="#DejaVuSans-46"/>
       <use x="95.410156" xlink:href="#DejaVuSans-48"/>
      </g>
     </g>
    </g>
    <g id="xtick_4">
     <g id="line2d_6">
      <g>
       <use style="stroke:#000000;stroke-width:0.8;" x="292.192151" xlink:href="#m72a176ea27" y="525.24"/>
      </g>
     </g>
     <g id="text_6">
      <!-- 6.5 -->
      <g transform="translate(281.059963 542.877813)scale(0.14 -0.14)">
       <use xlink:href="#DejaVuSans-54"/>
       <use x="63.623047" xlink:href="#DejaVuSans-46"/>
       <use x="95.410156" xlink:href="#DejaVuSans-53"/>
      </g>
     </g>
    </g>
    <g id="xtick_5">
     <g id="line2d_7">
      <g>
       <use style="stroke:#000000;stroke-width:0.8;" x="361.575845" xlink:href="#m72a176ea27" y="525.24"/>
      </g>
     </g>
     <g id="text_7">
      <!-- 7.0 -->
      <defs>
       <path d="M 8.203125 72.90625 
L 55.078125 72.90625 
L 55.078125 68.703125 
L 28.609375 0 
L 18.3125 0 
L 43.21875 64.59375 
L 8.203125 64.59375 
z
" id="DejaVuSans-55"/>
      </defs>
      <g transform="translate(350.443657 542.877813)scale(0.14 -0.14)">
       <use xlink:href="#DejaVuSans-55"/>
       <use x="63.623047" xlink:href="#DejaVuSans-46"/>
       <use x="95.410156" xlink:href="#DejaVuSans-48"/>
      </g>
     </g>
    </g>
    <g id="xtick_6">
     <g id="line2d_8">
      <g>
       <use style="stroke:#000000;stroke-width:0.8;" x="430.959539" xlink:href="#m72a176ea27" y="525.24"/>
      </g>
     </g>
     <g id="text_8">
      <!-- 7.5 -->
      <g transform="translate(419.827351 542.877813)scale(0.14 -0.14)">
       <use xlink:href="#DejaVuSans-55"/>
       <use x="63.623047" xlink:href="#DejaVuSans-46"/>
       <use x="95.410156" xlink:href="#DejaVuSans-53"/>
      </g>
     </g>
    </g>
    <g id="xtick_7">
     <g id="line2d_9">
      <g>
       <use style="stroke:#000000;stroke-width:0.8;" x="500.343233" xlink:href="#m72a176ea27" y="525.24"/>
      </g>
     </g>
     <g id="text_9">
      <!-- 8.0 -->
      <defs>
       <path d="M 31.78125 34.625 
Q 24.75 34.625 20.71875 30.859375 
Q 16.703125 27.09375 16.703125 20.515625 
Q 16.703125 13.921875 20.71875 10.15625 
Q 24.75 6.390625 31.78125 6.390625 
Q 38.8125 6.390625 42.859375 10.171875 
Q 46.921875 13.96875 46.921875 20.515625 
Q 46.921875 27.09375 42.890625 30.859375 
Q 38.875 34.625 31.78125 34.625 
z
M 21.921875 38.8125 
Q 15.578125 40.375 12.03125 44.71875 
Q 8.5 49.078125 8.5 55.328125 
Q 8.5 64.0625 14.71875 69.140625 
Q 20.953125 74.21875 31.78125 74.21875 
Q 42.671875 74.21875 48.875 69.140625 
Q 55.078125 64.0625 55.078125 55.328125 
Q 55.078125 49.078125 51.53125 44.71875 
Q 48 40.375 41.703125 38.8125 
Q 48.828125 37.15625 52.796875 32.3125 
Q 56.78125 27.484375 56.78125 20.515625 
Q 56.78125 9.90625 50.3125 4.234375 
Q 43.84375 -1.421875 31.78125 -1.421875 
Q 19.734375 -1.421875 13.25 4.234375 
Q 6.78125 9.90625 6.78125 20.515625 
Q 6.78125 27.484375 10.78125 32.3125 
Q 14.796875 37.15625 21.921875 38.8125 
z
M 18.3125 54.390625 
Q 18.3125 48.734375 21.84375 45.5625 
Q 25.390625 42.390625 31.78125 42.390625 
Q 38.140625 42.390625 41.71875 45.5625 
Q 45.3125 48.734375 45.3125 54.390625 
Q 45.3125 60.0625 41.71875 63.234375 
Q 38.140625 66.40625 31.78125 66.40625 
Q 25.390625 66.40625 21.84375 63.234375 
Q 18.3125 60.0625 18.3125 54.390625 
z
" id="DejaVuSans-56"/>
      </defs>
      <g transform="translate(489.211045 542.877813)scale(0.14 -0.14)">
       <use xlink:href="#DejaVuSans-56"/>
       <use x="63.623047" xlink:href="#DejaVuSans-46"/>
       <use x="95.410156" xlink:href="#DejaVuSans-48"/>
      </g>
     </g>
    </g>
   </g>
   <g id="line2d_10">
    <path clip-path="url(#p0d30d1154a)" d="M 306.068889 525.24 
L 306.068889 402.93 
" style="fill:none;stroke:#ff6384;stroke-dasharray:5.55,2.4;stroke-dashoffset:0;stroke-opacity:0.8;stroke-width:1.5;"/>
   </g>
   <g id="line2d_11">
    <path clip-path="url(#p0d30d1154a)" d="M 265.826347 525.24 
L 265.826347 402.93 
" style="fill:none;stroke:#36a2eb;stroke-dasharray:5.55,2.4;stroke-dashoffset:0;stroke-opacity:0.8;stroke-width:1.5;"/>
   </g>
   <g id="patch_10">
    <path d="M 36 525.24 
L 538.2 525.24 
" style="fill:none;stroke:#000000;stroke-linecap:square;stroke-linejoin:miter;stroke-width:0.8;"/>
   </g>
  </g>
 </g>
 <defs>
  <clipPath id="pabac77c8e4">
   <rect height="366.93" width="502.2" x="36" y="36"/>
  </clipPath>
  <clipPath id="p0d30d1154a">
   <rect height="122.31" width="502.2" x="36" y="402.93"/>
  </clipPath>
 </defs>
</svg>
