<?xml version="1.0" encoding="utf-8" standalone="no"?>
<!DOCTYPE svg PUBLIC "-//W3C//DTD SVG 1.1//EN"
  "http://www.w3.org/Graphics/SVG/1.1/DTD/svg11.dtd">
<!-- Created with matplotlib (https://matplotlib.org/) -->
<svg height="581.789375pt" version="1.1" viewBox="0 0 574.2 581.789375" width="574.2pt" xmlns="http://www.w3.org/2000/svg" xmlns:xlink="http://www.w3.org/1999/xlink">
 <defs>
  <style type="text/css">
*{stroke-linecap:butt;stroke-linejoin:round;}
  </style>
 </defs>
 <g id="figure_1">
  <g id="patch_1">
   <path d="M 0 581.789375 
L 574.2 581.789375 
L 574.2 0 
L 0 0 
z
" style="fill:none;"/>
  </g>
  <g id="axes_1">
   <g id="patch_2">
    <path d="M 36 402.93 
L 538.2 402.93 
L 538.2 36 
L 36 36 
z
" style="fill:none;"/>
   </g>
   <g id="PolyCollection_1">
    <defs>
     <path d="M 106.446465 -195.538011 
L 106.446465 -195.647515 
L 110.577034 -195.688807 
L 114.707602 -195.744318 
L 118.83817 -195.818426 
L 122.968739 -195.916675 
L 127.099307 -196.046019 
L 131.229875 -196.215107 
L 135.360443 -196.434603 
L 139.491012 -196.717526 
L 143.62158 -197.079627 
L 147.752148 -197.539776 
L 151.882717 -198.120354 
L 156.013285 -198.847636 
L 160.143853 -199.75214 
L 164.274422 -200.868916 
L 168.40499 -202.237753 
L 172.535558 -203.903269 
L 176.666126 -205.914841 
L 180.796695 -208.326349 
L 184.927263 -211.195698 
L 189.057831 -214.584073 
L 193.1884 -218.554912 
L 197.318968 -223.172574 
L 201.449536 -228.500684 
L 205.580105 -234.600178 
L 209.710673 -241.527048 
L 213.841241 -249.329849 
L 217.971809 -258.047008 
L 222.102378 -267.704032 
L 226.232946 -278.310701 
L 230.363514 -289.858373 
L 234.494083 -302.317522 
L 238.624651 -315.635653 
L 242.755219 -329.735723 
L 246.885788 -344.515216 
L 251.016356 -359.845975 
L 255.146924 -375.574895 
L 259.277492 -391.525541 
L 263.408061 -407.500726 
L 267.538629 -423.286019 
L 271.669197 -438.654146 
L 275.799766 -453.370154 
L 279.930334 -467.197209 
L 284.060902 -479.90282 
L 288.191471 -491.265276 
L 292.322039 -501.080044 
L 296.452607 -509.165876 
L 300.583176 -515.370369 
L 304.713744 -519.57474 
L 308.844312 -521.697606 
L 312.97488 -521.697606 
L 317.105449 -519.57474 
L 321.236017 -515.370369 
L 325.366585 -509.165876 
L 329.497154 -501.080044 
L 333.627722 -491.265276 
L 337.75829 -479.90282 
L 341.888859 -467.197209 
L 346.019427 -453.370154 
L 350.149995 -438.654146 
L 354.280563 -423.286019 
L 358.411132 -407.500726 
L 362.5417 -391.525541 
L 366.672268 -375.574895 
L 370.802837 -359.845975 
L 374.933405 -344.515216 
L 379.063973 -329.735723 
L 383.194542 -315.635653 
L 387.32511 -302.317522 
L 391.455678 -289.858373 
L 395.586246 -278.310701 
L 399.716815 -267.704032 
L 403.847383 -258.047008 
L 407.977951 -249.329849 
L 412.10852 -241.527048 
L 416.239088 -234.600178 
L 420.369656 -228.500684 
L 424.500225 -223.172574 
L 428.630793 -218.554912 
L 432.761361 -214.584073 
L 436.89193 -211.195698 
L 441.022498 -208.326349 
L 445.153066 -205.914841 
L 449.283634 -203.903269 
L 453.414203 -202.237753 
L 457.544771 -200.868916 
L 461.675339 -199.75214 
L 465.805908 -198.847636 
L 469.936476 -198.120354 
L 474.067044 -197.539776 
L 478.197613 -197.079627 
L 482.328181 -196.717526 
L 486.458749 -196.434603 
L 490.589317 -196.215107 
L 494.719886 -196.046019 
L 498.850454 -195.916675 
L 502.981022 -195.818426 
L 507.111591 -195.744318 
L 511.242159 -195.688807 
L 515.372727 -195.647515 
L 515.372727 -195.538011 
L 515.372727 -195.538011 
L 511.242159 -195.538011 
L 507.111591 -195.538011 
L 502.981022 -195.538011 
L 498.850454 -195.538011 
L 494.719886 -195.538011 
L 490.589317 -195.538011 
L 486.458749 -195.538011 
L 482.328181 -195.538011 
L 478.197613 -195.538011 
L 474.067044 -195.538011 
L 469.936476 -195.538011 
L 465.805908 -195.538011 
L 461.675339 -195.538011 
L 457.544771 -195.538011 
L 453.414203 -195.538011 
L 449.283634 -195.538011 
L 445.153066 -195.538011 
L 441.022498 -195.538011 
L 436.89193 -195.538011 
L 432.761361 -195.538011 
L 428.630793 -195.538011 
L 424.500225 -195.538011 
L 420.369656 -195.538011 
L 416.239088 -195.538011 
L 412.10852 -195.538011 
L 407.977951 -195.538011 
L 403.847383 -195.538011 
L 399.716815 -195.538011 
L 395.586246 -195.538011 
L 391.455678 -195.538011 
L 387.32511 -195.538011 
L 383.194542 -195.538011 
L 379.063973 -195.538011 
L 374.933405 -195.538011 
L 370.802837 -195.538011 
L 366.672268 -195.538011 
L 362.5417 -195.538011 
L 358.411132 -195.538011 
L 354.280563 -195.538011 
L 350.149995 -195.538011 
L 346.019427 -195.538011 
L 341.888859 -195.538011 
L 337.75829 -195.538011 
L 333.627722 -195.538011 
L 329.497154 -195.538011 
L 325.366585 -195.538011 
L 321.236017 -195.538011 
L 317.105449 -195.538011 
L 312.97488 -195.538011 
L 308.844312 -195.538011 
L 304.713744 -195.538011 
L 300.583176 -195.538011 
L 296.452607 -195.538011 
L 292.322039 -195.538011 
L 288.191471 -195.538011 
L 284.060902 -195.538011 
L 279.930334 -195.538011 
L 275.799766 -195.538011 
L 271.669197 -195.538011 
L 267.538629 -195.538011 
L 263.408061 -195.538011 
L 259.277492 -195.538011 
L 255.146924 -195.538011 
L 251.016356 -195.538011 
L 246.885788 -195.538011 
L 242.755219 -195.538011 
L 238.624651 -195.538011 
L 234.494083 -195.538011 
L 230.363514 -195.538011 
L 226.232946 -195.538011 
L 222.102378 -195.538011 
L 217.971809 -195.538011 
L 213.841241 -195.538011 
L 209.710673 -195.538011 
L 205.580105 -195.538011 
L 201.449536 -195.538011 
L 197.318968 -195.538011 
L 193.1884 -195.538011 
L 189.057831 -195.538011 
L 184.927263 -195.538011 
L 180.796695 -195.538011 
L 176.666126 -195.538011 
L 172.535558 -195.538011 
L 168.40499 -195.538011 
L 164.274422 -195.538011 
L 160.143853 -195.538011 
L 156.013285 -195.538011 
L 151.882717 -195.538011 
L 147.752148 -195.538011 
L 143.62158 -195.538011 
L 139.491012 -195.538011 
L 135.360443 -195.538011 
L 131.229875 -195.538011 
L 127.099307 -195.538011 
L 122.968739 -195.538011 
L 118.83817 -195.538011 
L 114.707602 -195.538011 
L 110.577034 -195.538011 
L 106.446465 -195.538011 
z
" id="ma5712677fe" style="stroke:#ff6384;stroke-opacity:0.5;"/>
    </defs>
    <g clip-path="url(#p1696356d07)">
     <use style="fill:#ff6384;fill-opacity:0.5;stroke:#ff6384;stroke-opacity:0.5;" x="0" xlink:href="#ma5712677fe" y="581.789375"/>
    </g>
   </g>
   <g id="PolyCollection_2">
    <defs>
     <path d="M 58.827273 -195.538011 
L 58.827273 -195.650004 
L 62.866046 -195.692234 
L 66.904818 -195.749007 
L 70.943591 -195.8248 
L 74.982364 -195.925281 
L 79.021137 -196.057565 
L 83.05991 -196.230497 
L 87.098683 -196.454982 
L 91.137456 -196.744335 
L 95.176229 -197.114666 
L 99.215001 -197.585273 
L 103.253774 -198.179047 
L 107.292547 -198.922859 
L 111.33132 -199.847921 
L 115.370093 -200.990079 
L 119.408866 -202.390029 
L 123.447639 -204.093399 
L 127.486412 -206.150691 
L 131.525184 -208.617009 
L 135.563957 -211.551575 
L 139.60273 -215.016962 
L 143.641503 -219.078053 
L 147.680276 -223.800667 
L 151.719049 -229.249878 
L 155.757822 -235.488004 
L 159.796595 -242.572312 
L 163.835367 -250.552459 
L 167.87414 -259.467747 
L 171.912913 -269.344261 
L 175.951686 -280.192004 
L 179.990459 -292.002137 
L 184.029232 -304.744465 
L 188.068005 -318.365297 
L 192.106778 -332.785841 
L 196.14555 -347.901251 
L 200.184323 -363.580456 
L 204.223096 -379.666871 
L 208.261869 -395.980052 
L 212.300642 -412.31833 
L 216.339415 -428.4624 
L 220.378188 -444.179822 
L 224.416961 -459.230303 
L 228.455733 -473.371627 
L 232.494506 -486.366018 
L 236.533279 -497.986726 
L 240.572052 -508.02457 
L 244.610825 -516.294181 
L 248.649598 -522.639693 
L 252.688371 -526.939623 
L 256.727144 -529.110739 
L 260.765916 -529.110739 
L 264.804689 -526.939623 
L 268.843462 -522.639693 
L 272.882235 -516.294181 
L 276.921008 -508.02457 
L 280.959781 -497.986726 
L 284.998554 -486.366018 
L 289.037327 -473.371627 
L 293.076099 -459.230303 
L 297.114872 -444.179822 
L 301.153645 -428.4624 
L 305.192418 -412.31833 
L 309.231191 -395.980052 
L 313.269964 -379.666871 
L 317.308737 -363.580456 
L 321.34751 -347.901251 
L 325.386282 -332.785841 
L 329.425055 -318.365297 
L 333.463828 -304.744465 
L 337.502601 -292.002137 
L 341.541374 -280.192004 
L 345.580147 -269.344261 
L 349.61892 -259.467747 
L 353.657693 -250.552459 
L 357.696466 -242.572312 
L 361.735238 -235.488004 
L 365.774011 -229.249878 
L 369.812784 -223.800667 
L 373.851557 -219.078053 
L 377.89033 -215.016962 
L 381.929103 -211.551575 
L 385.967876 -208.617009 
L 390.006649 -206.150691 
L 394.045421 -204.093399 
L 398.084194 -202.390029 
L 402.122967 -200.990079 
L 406.16174 -199.847921 
L 410.200513 -198.922859 
L 414.239286 -198.179047 
L 418.278059 -197.585273 
L 422.316832 -197.114666 
L 426.355604 -196.744335 
L 430.394377 -196.454982 
L 434.43315 -196.230497 
L 438.471923 -196.057565 
L 442.510696 -195.925281 
L 446.549469 -195.8248 
L 450.588242 -195.749007 
L 454.627015 -195.692234 
L 458.665787 -195.650004 
L 458.665787 -195.538011 
L 458.665787 -195.538011 
L 454.627015 -195.538011 
L 450.588242 -195.538011 
L 446.549469 -195.538011 
L 442.510696 -195.538011 
L 438.471923 -195.538011 
L 434.43315 -195.538011 
L 430.394377 -195.538011 
L 426.355604 -195.538011 
L 422.316832 -195.538011 
L 418.278059 -195.538011 
L 414.239286 -195.538011 
L 410.200513 -195.538011 
L 406.16174 -195.538011 
L 402.122967 -195.538011 
L 398.084194 -195.538011 
L 394.045421 -195.538011 
L 390.006649 -195.538011 
L 385.967876 -195.538011 
L 381.929103 -195.538011 
L 377.89033 -195.538011 
L 373.851557 -195.538011 
L 369.812784 -195.538011 
L 365.774011 -195.538011 
L 361.735238 -195.538011 
L 357.696466 -195.538011 
L 353.657693 -195.538011 
L 349.61892 -195.538011 
L 345.580147 -195.538011 
L 341.541374 -195.538011 
L 337.502601 -195.538011 
L 333.463828 -195.538011 
L 329.425055 -195.538011 
L 325.386282 -195.538011 
L 321.34751 -195.538011 
L 317.308737 -195.538011 
L 313.269964 -195.538011 
L 309.231191 -195.538011 
L 305.192418 -195.538011 
L 301.153645 -195.538011 
L 297.114872 -195.538011 
L 293.076099 -195.538011 
L 289.037327 -195.538011 
L 284.998554 -195.538011 
L 280.959781 -195.538011 
L 276.921008 -195.538011 
L 272.882235 -195.538011 
L 268.843462 -195.538011 
L 264.804689 -195.538011 
L 260.765916 -195.538011 
L 256.727144 -195.538011 
L 252.688371 -195.538011 
L 248.649598 -195.538011 
L 244.610825 -195.538011 
L 240.572052 -195.538011 
L 236.533279 -195.538011 
L 232.494506 -195.538011 
L 228.455733 -195.538011 
L 224.416961 -195.538011 
L 220.378188 -195.538011 
L 216.339415 -195.538011 
L 212.300642 -195.538011 
L 208.261869 -195.538011 
L 204.223096 -195.538011 
L 200.184323 -195.538011 
L 196.14555 -195.538011 
L 192.106778 -195.538011 
L 188.068005 -195.538011 
L 184.029232 -195.538011 
L 179.990459 -195.538011 
L 175.951686 -195.538011 
L 171.912913 -195.538011 
L 167.87414 -195.538011 
L 163.835367 -195.538011 
L 159.796595 -195.538011 
L 155.757822 -195.538011 
L 151.719049 -195.538011 
L 147.680276 -195.538011 
L 143.641503 -195.538011 
L 139.60273 -195.538011 
L 135.563957 -195.538011 
L 131.525184 -195.538011 
L 127.486412 -195.538011 
L 123.447639 -195.538011 
L 119.408866 -195.538011 
L 115.370093 -195.538011 
L 111.33132 -195.538011 
L 107.292547 -195.538011 
L 103.253774 -195.538011 
L 99.215001 -195.538011 
L 95.176229 -195.538011 
L 91.137456 -195.538011 
L 87.098683 -195.538011 
L 83.05991 -195.538011 
L 79.021137 -195.538011 
L 74.982364 -195.538011 
L 70.943591 -195.538011 
L 66.904818 -195.538011 
L 62.866046 -195.538011 
L 58.827273 -195.538011 
z
" id="m22ff88c38f" style="stroke:#36a2eb;stroke-opacity:0.5;"/>
    </defs>
    <g clip-path="url(#p1696356d07)">
     <use style="fill:#36a2eb;fill-opacity:0.5;stroke:#36a2eb;stroke-opacity:0.5;" x="0" xlink:href="#m22ff88c38f" y="581.789375"/>
    </g>
   </g>
   <g id="line2d_1">
    <path clip-path="url(#p1696356d07)" d="M 106.446465 386.14186 
L 110.577034 386.100568 
L 114.707602 386.045057 
L 118.83817 385.970949 
L 122.968739 385.8727 
L 127.099307 385.743356 
L 131.229875 385.574268 
L 135.360443 385.354772 
L 139.491012 385.071849 
L 143.62158 384.709748 
L 147.752148 384.249599 
L 151.882717 383.669021 
L 156.013285 382.941739 
L 160.143853 382.037235 
L 164.274422 380.920459 
L 168.40499 379.551622 
L 172.535558 377.886106 
L 176.666126 375.874534 
L 180.796695 373.463026 
L 184.927263 370.593677 
L 189.057831 367.205302 
L 193.1884 363.234463 
L 197.318968 358.616801 
L 201.449536 353.288691 
L 205.580105 347.189197 
L 209.710673 340.262327 
L 213.841241 332.459526 
L 217.971809 323.742367 
L 222.102378 314.085343 
L 226.232946 303.478674 
L 230.363514 291.931002 
L 234.494083 279.471853 
L 238.624651 266.153722 
L 242.755219 252.053652 
L 246.885788 237.274159 
L 251.016356 221.9434 
L 255.146924 206.21448 
L 259.277492 190.263834 
L 263.408061 174.288649 
L 267.538629 158.503356 
L 271.669197 143.135229 
L 275.799766 128.419221 
L 279.930334 114.592166 
L 284.060902 101.886555 
L 288.191471 90.524099 
L 292.322039 80.709331 
L 296.452607 72.623499 
L 300.583176 66.419006 
L 304.713744 62.214635 
L 308.844312 60.091769 
L 312.97488 60.091769 
L 317.105449 62.214635 
L 321.236017 66.419006 
L 325.366585 72.623499 
L 329.497154 80.709331 
L 333.627722 90.524099 
L 337.75829 101.886555 
L 341.888859 114.592166 
L 346.019427 128.419221 
L 350.149995 143.135229 
L 354.280563 158.503356 
L 358.411132 174.288649 
L 362.5417 190.263834 
L 366.672268 206.21448 
L 370.802837 221.9434 
L 374.933405 237.274159 
L 379.063973 252.053652 
L 383.194542 266.153722 
L 387.32511 279.471853 
L 391.455678 291.931002 
L 395.586246 303.478674 
L 399.716815 314.085343 
L 403.847383 323.742367 
L 407.977951 332.459526 
L 412.10852 340.262327 
L 416.239088 347.189197 
L 420.369656 353.288691 
L 424.500225 358.616801 
L 428.630793 363.234463 
L 432.761361 367.205302 
L 436.89193 370.593677 
L 441.022498 373.463026 
L 445.153066 375.874534 
L 449.283634 377.886106 
L 453.414203 379.551622 
L 457.544771 380.920459 
L 461.675339 382.037235 
L 465.805908 382.941739 
L 469.936476 383.669021 
L 474.067044 384.249599 
L 478.197613 384.709748 
L 482.328181 385.071849 
L 486.458749 385.354772 
L 490.589317 385.574268 
L 494.719886 385.743356 
L 498.850454 385.8727 
L 502.981022 385.970949 
L 507.111591 386.045057 
L 511.242159 386.100568 
L 515.372727 386.14186 
" style="fill:none;stroke:#ff6384;stroke-linecap:square;"/>
   </g>
   <g id="line2d_2">
    <path clip-path="url(#p1696356d07)" d="M 58.827273 386.139371 
L 62.866046 386.097141 
L 66.904818 386.040368 
L 70.943591 385.964575 
L 74.982364 385.864094 
L 79.021137 385.73181 
L 83.05991 385.558878 
L 87.098683 385.334393 
L 91.137456 385.04504 
L 95.176229 384.674709 
L 99.215001 384.204102 
L 103.253774 383.610328 
L 107.292547 382.866516 
L 111.33132 381.941454 
L 115.370093 380.799296 
L 119.408866 379.399346 
L 123.447639 377.695976 
L 127.486412 375.638684 
L 131.525184 373.172366 
L 135.563957 370.2378 
L 139.60273 366.772413 
L 143.641503 362.711322 
L 147.680276 357.988708 
L 151.719049 352.539497 
L 155.757822 346.301371 
L 159.796595 339.217063 
L 163.835367 331.236916 
L 167.87414 322.321628 
L 171.912913 312.445114 
L 175.951686 301.597371 
L 179.990459 289.787238 
L 184.029232 277.04491 
L 188.068005 263.424078 
L 192.106778 249.003534 
L 196.14555 233.888124 
L 200.184323 218.208919 
L 204.223096 202.122504 
L 208.261869 185.809323 
L 212.300642 169.471045 
L 216.339415 153.326975 
L 220.378188 137.609553 
L 224.416961 122.559072 
L 228.455733 108.417748 
L 232.494506 95.423357 
L 236.533279 83.802649 
L 240.572052 73.764805 
L 244.610825 65.495194 
L 248.649598 59.149682 
L 252.688371 54.849752 
L 256.727144 52.678636 
L 260.765916 52.678636 
L 264.804689 54.849752 
L 268.843462 59.149682 
L 272.882235 65.495194 
L 276.921008 73.764805 
L 280.959781 83.802649 
L 284.998554 95.423357 
L 289.037327 108.417748 
L 293.076099 122.559072 
L 297.114872 137.609553 
L 301.153645 153.326975 
L 305.192418 169.471045 
L 309.231191 185.809323 
L 313.269964 202.122504 
L 317.308737 218.208919 
L 321.34751 233.888124 
L 325.386282 249.003534 
L 329.425055 263.424078 
L 333.463828 277.04491 
L 337.502601 289.787238 
L 341.541374 301.597371 
L 345.580147 312.445114 
L 349.61892 322.321628 
L 353.657693 331.236916 
L 357.696466 339.217063 
L 361.735238 346.301371 
L 365.774011 352.539497 
L 369.812784 357.988708 
L 373.851557 362.711322 
L 377.89033 366.772413 
L 381.929103 370.2378 
L 385.967876 373.172366 
L 390.006649 375.638684 
L 394.045421 377.695976 
L 398.084194 379.399346 
L 402.122967 380.799296 
L 406.16174 381.941454 
L 410.200513 382.866516 
L 414.239286 383.610328 
L 418.278059 384.204102 
L 422.316832 384.674709 
L 426.355604 385.04504 
L 430.394377 385.334393 
L 434.43315 385.558878 
L 438.471923 385.73181 
L 442.510696 385.864094 
L 446.549469 385.964575 
L 450.588242 386.040368 
L 454.627015 386.097141 
L 458.665787 386.139371 
" style="fill:none;stroke:#36a2eb;stroke-linecap:square;"/>
   </g>
   <g id="patch_3">
    <path d="M 36 402.93 
L 538.2 402.93 
" style="fill:none;stroke:#000000;stroke-linecap:square;stroke-linejoin:miter;stroke-width:0.8;"/>
   </g>
   <g id="legend_1">
    <g id="patch_4">
     <path d="M 441.707188 88.29875 
L 528.4 88.29875 
Q 531.2 88.29875 531.2 85.49875 
L 531.2 45.8 
Q 531.2 43 528.4 43 
L 441.707188 43 
Q 438.907188 43 438.907188 45.8 
L 438.907188 85.49875 
Q 438.907188 88.29875 441.707188 88.29875 
z
" style="fill:#ffffff;opacity:0.8;stroke:#cccccc;stroke-linejoin:miter;"/>
    </g>
    <g id="patch_5">
     <path d="M 444.507188 59.237813 
L 472.507188 59.237813 
L 472.507188 49.437813 
L 444.507188 49.437813 
z
" style="fill:#ff6384;opacity:0.5;stroke:#ff6384;stroke-linejoin:miter;"/>
    </g>
    <g id="text_1">
     <!-- base -->
     <defs>
      <path d="M 48.6875 27.296875 
Q 48.6875 37.203125 44.609375 42.84375 
Q 40.53125 48.484375 33.40625 48.484375 
Q 26.265625 48.484375 22.1875 42.84375 
Q 18.109375 37.203125 18.109375 27.296875 
Q 18.109375 17.390625 22.1875 11.75 
Q 26.265625 6.109375 33.40625 6.109375 
Q 40.53125 6.109375 44.609375 11.75 
Q 48.6875 17.390625 48.6875 27.296875 
z
M 18.109375 46.390625 
Q 20.953125 51.265625 25.265625 53.625 
Q 29.59375 56 35.59375 56 
Q 45.5625 56 51.78125 48.09375 
Q 58.015625 40.1875 58.015625 27.296875 
Q 58.015625 14.40625 51.78125 6.484375 
Q 45.5625 -1.421875 35.59375 -1.421875 
Q 29.59375 -1.421875 25.265625 0.953125 
Q 20.953125 3.328125 18.109375 8.203125 
L 18.109375 0 
L 9.078125 0 
L 9.078125 75.984375 
L 18.109375 75.984375 
z
" id="DejaVuSans-98"/>
      <path d="M 34.28125 27.484375 
Q 23.390625 27.484375 19.1875 25 
Q 14.984375 22.515625 14.984375 16.5 
Q 14.984375 11.71875 18.140625 8.90625 
Q 21.296875 6.109375 26.703125 6.109375 
Q 34.1875 6.109375 38.703125 11.40625 
Q 43.21875 16.703125 43.21875 25.484375 
L 43.21875 27.484375 
z
M 52.203125 31.203125 
L 52.203125 0 
L 43.21875 0 
L 43.21875 8.296875 
Q 40.140625 3.328125 35.546875 0.953125 
Q 30.953125 -1.421875 24.3125 -1.421875 
Q 15.921875 -1.421875 10.953125 3.296875 
Q 6 8.015625 6 15.921875 
Q 6 25.140625 12.171875 29.828125 
Q 18.359375 34.515625 30.609375 34.515625 
L 43.21875 34.515625 
L 43.21875 35.40625 
Q 43.21875 41.609375 39.140625 45 
Q 35.0625 48.390625 27.6875 48.390625 
Q 23 48.390625 18.546875 47.265625 
Q 14.109375 46.140625 10.015625 43.890625 
L 10.015625 52.203125 
Q 14.9375 54.109375 19.578125 55.046875 
Q 24.21875 56 28.609375 56 
Q 40.484375 56 46.34375 49.84375 
Q 52.203125 43.703125 52.203125 31.203125 
z
" id="DejaVuSans-97"/>
      <path d="M 44.28125 53.078125 
L 44.28125 44.578125 
Q 40.484375 46.53125 36.375 47.5 
Q 32.28125 48.484375 27.875 48.484375 
Q 21.1875 48.484375 17.84375 46.4375 
Q 14.5 44.390625 14.5 40.28125 
Q 14.5 37.15625 16.890625 35.375 
Q 19.28125 33.59375 26.515625 31.984375 
L 29.59375 31.296875 
Q 39.15625 29.25 43.1875 25.515625 
Q 47.21875 21.78125 47.21875 15.09375 
Q 47.21875 7.46875 41.1875 3.015625 
Q 35.15625 -1.421875 24.609375 -1.421875 
Q 20.21875 -1.421875 15.453125 -0.5625 
Q 10.6875 0.296875 5.421875 2 
L 5.421875 11.28125 
Q 10.40625 8.6875 15.234375 7.390625 
Q 20.0625 6.109375 24.8125 6.109375 
Q 31.15625 6.109375 34.5625 8.28125 
Q 37.984375 10.453125 37.984375 14.40625 
Q 37.984375 18.0625 35.515625 20.015625 
Q 33.0625 21.96875 24.703125 23.78125 
L 21.578125 24.515625 
Q 13.234375 26.265625 9.515625 29.90625 
Q 5.8125 33.546875 5.8125 39.890625 
Q 5.8125 47.609375 11.28125 51.796875 
Q 16.75 56 26.8125 56 
Q 31.78125 56 36.171875 55.265625 
Q 40.578125 54.546875 44.28125 53.078125 
z
" id="DejaVuSans-115"/>
      <path d="M 56.203125 29.59375 
L 56.203125 25.203125 
L 14.890625 25.203125 
Q 15.484375 15.921875 20.484375 11.0625 
Q 25.484375 6.203125 34.421875 6.203125 
Q 39.59375 6.203125 44.453125 7.46875 
Q 49.3125 8.734375 54.109375 11.28125 
L 54.109375 2.78125 
Q 49.265625 0.734375 44.1875 -0.34375 
Q 39.109375 -1.421875 33.890625 -1.421875 
Q 20.796875 -1.421875 13.15625 6.1875 
Q 5.515625 13.8125 5.515625 26.8125 
Q 5.515625 40.234375 12.765625 48.109375 
Q 20.015625 56 32.328125 56 
Q 43.359375 56 49.78125 48.890625 
Q 56.203125 41.796875 56.203125 29.59375 
z
M 47.21875 32.234375 
Q 47.125 39.59375 43.09375 43.984375 
Q 39.0625 48.390625 32.421875 48.390625 
Q 24.90625 48.390625 20.390625 44.140625 
Q 15.875 39.890625 15.1875 32.171875 
z
" id="DejaVuSans-101"/>
     </defs>
     <g transform="translate(483.707188 59.237813)scale(0.14 -0.14)">
      <use xlink:href="#DejaVuSans-98"/>
      <use x="63.476562" xlink:href="#DejaVuSans-97"/>
      <use x="124.755859" xlink:href="#DejaVuSans-115"/>
      <use x="176.855469" xlink:href="#DejaVuSans-101"/>
     </g>
    </g>
    <g id="patch_6">
     <path d="M 444.507188 79.787188 
L 472.507188 79.787188 
L 472.507188 69.987188 
L 444.507188 69.987188 
z
" style="fill:#36a2eb;opacity:0.5;stroke:#36a2eb;stroke-linejoin:miter;"/>
    </g>
    <g id="text_2">
     <!-- osago -->
     <defs>
      <path d="M 30.609375 48.390625 
Q 23.390625 48.390625 19.1875 42.75 
Q 14.984375 37.109375 14.984375 27.296875 
Q 14.984375 17.484375 19.15625 11.84375 
Q 23.34375 6.203125 30.609375 6.203125 
Q 37.796875 6.203125 41.984375 11.859375 
Q 46.1875 17.53125 46.1875 27.296875 
Q 46.1875 37.015625 41.984375 42.703125 
Q 37.796875 48.390625 30.609375 48.390625 
z
M 30.609375 56 
Q 42.328125 56 49.015625 48.375 
Q 55.71875 40.765625 55.71875 27.296875 
Q 55.71875 13.875 49.015625 6.21875 
Q 42.328125 -1.421875 30.609375 -1.421875 
Q 18.84375 -1.421875 12.171875 6.21875 
Q 5.515625 13.875 5.515625 27.296875 
Q 5.515625 40.765625 12.171875 48.375 
Q 18.84375 56 30.609375 56 
z
" id="DejaVuSans-111"/>
      <path d="M 45.40625 27.984375 
Q 45.40625 37.75 41.375 43.109375 
Q 37.359375 48.484375 30.078125 48.484375 
Q 22.859375 48.484375 18.828125 43.109375 
Q 14.796875 37.75 14.796875 27.984375 
Q 14.796875 18.265625 18.828125 12.890625 
Q 22.859375 7.515625 30.078125 7.515625 
Q 37.359375 7.515625 41.375 12.890625 
Q 45.40625 18.265625 45.40625 27.984375 
z
M 54.390625 6.78125 
Q 54.390625 -7.171875 48.1875 -13.984375 
Q 42 -20.796875 29.203125 -20.796875 
Q 24.46875 -20.796875 20.265625 -20.09375 
Q 16.0625 -19.390625 12.109375 -17.921875 
L 12.109375 -9.1875 
Q 16.0625 -11.328125 19.921875 -12.34375 
Q 23.78125 -13.375 27.78125 -13.375 
Q 36.625 -13.375 41.015625 -8.765625 
Q 45.40625 -4.15625 45.40625 5.171875 
L 45.40625 9.625 
Q 42.625 4.78125 38.28125 2.390625 
Q 33.9375 0 27.875 0 
Q 17.828125 0 11.671875 7.65625 
Q 5.515625 15.328125 5.515625 27.984375 
Q 5.515625 40.671875 11.671875 48.328125 
Q 17.828125 56 27.875 56 
Q 33.9375 56 38.28125 53.609375 
Q 42.625 51.21875 45.40625 46.390625 
L 45.40625 54.6875 
L 54.390625 54.6875 
z
" id="DejaVuSans-103"/>
     </defs>
     <g transform="translate(483.707188 79.787188)scale(0.14 -0.14)">
      <use xlink:href="#DejaVuSans-111"/>
      <use x="61.181641" xlink:href="#DejaVuSans-115"/>
      <use x="113.28125" xlink:href="#DejaVuSans-97"/>
      <use x="174.560547" xlink:href="#DejaVuSans-103"/>
      <use x="238.037109" xlink:href="#DejaVuSans-111"/>
     </g>
    </g>
   </g>
  </g>
  <g id="axes_2">
   <g id="patch_7">
    <path d="M 36 525.24 
L 538.2 525.24 
L 538.2 402.93 
L 36 402.93 
z
" style="fill:none;"/>
   </g>
   <g id="patch_8">
    <path clip-path="url(#p8017cee65b)" d="M 210.722662 519.680455 
L 411.09653 519.680455 
L 411.09653 482.616818 
L 210.722662 482.616818 
z
" style="fill:#ff6384;opacity:0.5;"/>
   </g>
   <g id="patch_9">
    <path clip-path="url(#p8017cee65b)" d="M 160.786094 445.553182 
L 356.706966 445.553182 
L 356.706966 408.489545 
L 160.786094 408.489545 
z
" style="fill:#36a2eb;opacity:0.5;"/>
   </g>
   <g id="matplotlib.axis_1">
    <g id="xtick_1">
     <g id="line2d_3">
      <defs>
       <path d="M 0 0 
L 0 3.5 
" id="m64795a5632" style="stroke:#000000;stroke-width:0.8;"/>
      </defs>
      <g>
       <use style="stroke:#000000;stroke-width:0.8;" x="94.586292" xlink:href="#m64795a5632" y="525.24"/>
      </g>
     </g>
     <g id="text_3">
      <!-- 2.5 -->
      <defs>
       <path d="M 19.1875 8.296875 
L 53.609375 8.296875 
L 53.609375 0 
L 7.328125 0 
L 7.328125 8.296875 
Q 12.9375 14.109375 22.625 23.890625 
Q 32.328125 33.6875 34.8125 36.53125 
Q 39.546875 41.84375 41.421875 45.53125 
Q 43.3125 49.21875 43.3125 52.78125 
Q 43.3125 58.59375 39.234375 62.25 
Q 35.15625 65.921875 28.609375 65.921875 
Q 23.96875 65.921875 18.8125 64.3125 
Q 13.671875 62.703125 7.8125 59.421875 
L 7.8125 69.390625 
Q 13.765625 71.78125 18.9375 73 
Q 24.125 74.21875 28.421875 74.21875 
Q 39.75 74.21875 46.484375 68.546875 
Q 53.21875 62.890625 53.21875 53.421875 
Q 53.21875 48.921875 51.53125 44.890625 
Q 49.859375 40.875 45.40625 35.40625 
Q 44.1875 33.984375 37.640625 27.21875 
Q 31.109375 20.453125 19.1875 8.296875 
z
" id="DejaVuSans-50"/>
       <path d="M 10.6875 12.40625 
L 21 12.40625 
L 21 0 
L 10.6875 0 
z
" id="DejaVuSans-46"/>
       <path d="M 10.796875 72.90625 
L 49.515625 72.90625 
L 49.515625 64.59375 
L 19.828125 64.59375 
L 19.828125 46.734375 
Q 21.96875 47.46875 24.109375 47.828125 
Q 26.265625 48.1875 28.421875 48.1875 
Q 40.625 48.1875 47.75 41.5 
Q 54.890625 34.8125 54.890625 23.390625 
Q 54.890625 11.625 47.5625 5.09375 
Q 40.234375 -1.421875 26.90625 -1.421875 
Q 22.3125 -1.421875 17.546875 -0.640625 
Q 12.796875 0.140625 7.71875 1.703125 
L 7.71875 11.625 
Q 12.109375 9.234375 16.796875 8.0625 
Q 21.484375 6.890625 26.703125 6.890625 
Q 35.15625 6.890625 40.078125 11.328125 
Q 45.015625 15.765625 45.015625 23.390625 
Q 45.015625 31 40.078125 35.4375 
Q 35.15625 39.890625 26.703125 39.890625 
Q 22.75 39.890625 18.8125 39.015625 
Q 14.890625 38.140625 10.796875 36.28125 
z
" id="DejaVuSans-53"/>
      </defs>
      <g transform="translate(83.454105 542.877813)scale(0.14 -0.14)">
       <use xlink:href="#DejaVuSans-50"/>
       <use x="63.623047" xlink:href="#DejaVuSans-46"/>
       <use x="95.410156" xlink:href="#DejaVuSans-53"/>
      </g>
     </g>
    </g>
    <g id="xtick_2">
     <g id="line2d_4">
      <g>
       <use style="stroke:#000000;stroke-width:0.8;" x="171.296684" xlink:href="#m64795a5632" y="525.24"/>
      </g>
     </g>
     <g id="text_4">
      <!-- 3.0 -->
      <defs>
       <path d="M 40.578125 39.3125 
Q 47.65625 37.796875 51.625 33 
Q 55.609375 28.21875 55.609375 21.1875 
Q 55.609375 10.40625 48.1875 4.484375 
Q 40.765625 -1.421875 27.09375 -1.421875 
Q 22.515625 -1.421875 17.65625 -0.515625 
Q 12.796875 0.390625 7.625 2.203125 
L 7.625 11.71875 
Q 11.71875 9.328125 16.59375 8.109375 
Q 21.484375 6.890625 26.8125 6.890625 
Q 36.078125 6.890625 40.9375 10.546875 
Q 45.796875 14.203125 45.796875 21.1875 
Q 45.796875 27.640625 41.28125 31.265625 
Q 36.765625 34.90625 28.71875 34.90625 
L 20.21875 34.90625 
L 20.21875 43.015625 
L 29.109375 43.015625 
Q 36.375 43.015625 40.234375 45.921875 
Q 44.09375 48.828125 44.09375 54.296875 
Q 44.09375 59.90625 40.109375 62.90625 
Q 36.140625 65.921875 28.71875 65.921875 
Q 24.65625 65.921875 20.015625 65.03125 
Q 15.375 64.15625 9.8125 62.3125 
L 9.8125 71.09375 
Q 15.4375 72.65625 20.34375 73.4375 
Q 25.25 74.21875 29.59375 74.21875 
Q 40.828125 74.21875 47.359375 69.109375 
Q 53.90625 64.015625 53.90625 55.328125 
Q 53.90625 49.265625 50.4375 45.09375 
Q 46.96875 40.921875 40.578125 39.3125 
z
" id="DejaVuSans-51"/>
       <path d="M 31.78125 66.40625 
Q 24.171875 66.40625 20.328125 58.90625 
Q 16.5 51.421875 16.5 36.375 
Q 16.5 21.390625 20.328125 13.890625 
Q 24.171875 6.390625 31.78125 6.390625 
Q 39.453125 6.390625 43.28125 13.890625 
Q 47.125 21.390625 47.125 36.375 
Q 47.125 51.421875 43.28125 58.90625 
Q 39.453125 66.40625 31.78125 66.40625 
z
M 31.78125 74.21875 
Q 44.046875 74.21875 50.515625 64.515625 
Q 56.984375 54.828125 56.984375 36.375 
Q 56.984375 17.96875 50.515625 8.265625 
Q 44.046875 -1.421875 31.78125 -1.421875 
Q 19.53125 -1.421875 13.0625 8.265625 
Q 6.59375 17.96875 6.59375 36.375 
Q 6.59375 54.828125 13.0625 64.515625 
Q 19.53125 74.21875 31.78125 74.21875 
z
" id="DejaVuSans-48"/>
      </defs>
      <g transform="translate(160.164496 542.877813)scale(0.14 -0.14)">
       <use xlink:href="#DejaVuSans-51"/>
       <use x="63.623047" xlink:href="#DejaVuSans-46"/>
       <use x="95.410156" xlink:href="#DejaVuSans-48"/>
      </g>
     </g>
    </g>
    <g id="xtick_3">
     <g id="line2d_5">
      <g>
       <use style="stroke:#000000;stroke-width:0.8;" x="248.007075" xlink:href="#m64795a5632" y="525.24"/>
      </g>
     </g>
     <g id="text_5">
      <!-- 3.5 -->
      <g transform="translate(236.874888 542.877813)scale(0.14 -0.14)">
       <use xlink:href="#DejaVuSans-51"/>
       <use x="63.623047" xlink:href="#DejaVuSans-46"/>
       <use x="95.410156" xlink:href="#DejaVuSans-53"/>
      </g>
     </g>
    </g>
    <g id="xtick_4">
     <g id="line2d_6">
      <g>
       <use style="stroke:#000000;stroke-width:0.8;" x="324.717467" xlink:href="#m64795a5632" y="525.24"/>
      </g>
     </g>
     <g id="text_6">
      <!-- 4.0 -->
      <defs>
       <path d="M 37.796875 64.3125 
L 12.890625 25.390625 
L 37.796875 25.390625 
z
M 35.203125 72.90625 
L 47.609375 72.90625 
L 47.609375 25.390625 
L 58.015625 25.390625 
L 58.015625 17.1875 
L 47.609375 17.1875 
L 47.609375 0 
L 37.796875 0 
L 37.796875 17.1875 
L 4.890625 17.1875 
L 4.890625 26.703125 
z
" id="DejaVuSans-52"/>
      </defs>
      <g transform="translate(313.585279 542.877813)scale(0.14 -0.14)">
       <use xlink:href="#DejaVuSans-52"/>
       <use x="63.623047" xlink:href="#DejaVuSans-46"/>
       <use x="95.410156" xlink:href="#DejaVuSans-48"/>
      </g>
     </g>
    </g>
    <g id="xtick_5">
     <g id="line2d_7">
      <g>
       <use style="stroke:#000000;stroke-width:0.8;" x="401.427858" xlink:href="#m64795a5632" y="525.24"/>
      </g>
     </g>
     <g id="text_7">
      <!-- 4.5 -->
      <g transform="translate(390.295671 542.877813)scale(0.14 -0.14)">
       <use xlink:href="#DejaVuSans-52"/>
       <use x="63.623047" xlink:href="#DejaVuSans-46"/>
       <use x="95.410156" xlink:href="#DejaVuSans-53"/>
      </g>
     </g>
    </g>
    <g id="xtick_6">
     <g id="line2d_8">
      <g>
       <use style="stroke:#000000;stroke-width:0.8;" x="478.13825" xlink:href="#m64795a5632" y="525.24"/>
      </g>
     </g>
     <g id="text_8">
      <!-- 5.0 -->
      <g transform="translate(467.006062 542.877813)scale(0.14 -0.14)">
       <use xlink:href="#DejaVuSans-53"/>
       <use x="63.623047" xlink:href="#DejaVuSans-46"/>
       <use x="95.410156" xlink:href="#DejaVuSans-48"/>
      </g>
     </g>
    </g>
   </g>
   <g id="line2d_9">
    <path clip-path="url(#p8017cee65b)" d="M 310.909596 525.24 
L 310.909596 402.93 
" style="fill:none;stroke:#ff6384;stroke-dasharray:5.55,2.4;stroke-dashoffset:0;stroke-opacity:0.8;stroke-width:1.5;"/>
   </g>
   <g id="line2d_10">
    <path clip-path="url(#p8017cee65b)" d="M 258.74653 525.24 
L 258.74653 402.93 
" style="fill:none;stroke:#36a2eb;stroke-dasharray:5.55,2.4;stroke-dashoffset:0;stroke-opacity:0.8;stroke-width:1.5;"/>
   </g>
   <g id="patch_10">
    <path d="M 36 525.24 
L 538.2 525.24 
" style="fill:none;stroke:#000000;stroke-linecap:square;stroke-linejoin:miter;stroke-width:0.8;"/>
   </g>
  </g>
 </g>
 <defs>
  <clipPath id="p1696356d07">
   <rect height="366.93" width="502.2" x="36" y="36"/>
  </clipPath>
  <clipPath id="p8017cee65b">
   <rect height="122.31" width="502.2" x="36" y="402.93"/>
  </clipPath>
 </defs>
</svg>
