<?xml version="1.0" encoding="utf-8" standalone="no"?>
<!DOCTYPE svg PUBLIC "-//W3C//DTD SVG 1.1//EN"
  "http://www.w3.org/Graphics/SVG/1.1/DTD/svg11.dtd">
<!-- Created with matplotlib (https://matplotlib.org/) -->
<svg height="591.509375pt" version="1.1" viewBox="0 0 577.34967 591.509375" width="577.34967pt" xmlns="http://www.w3.org/2000/svg" xmlns:xlink="http://www.w3.org/1999/xlink">
 <defs>
  <style type="text/css">
*{stroke-linecap:butt;stroke-linejoin:round;}
  </style>
 </defs>
 <g id="figure_1">
  <g id="patch_1">
   <path d="M 0 591.509375 
L 577.34967 591.509375 
L 577.34967 0 
L 0 0 
z
" style="fill:none;"/>
  </g>
  <g id="axes_1">
   <g id="patch_2">
    <path d="M 36 410.22 
L 538.2 410.22 
L 538.2 36 
L 36 36 
z
" style="fill:none;"/>
   </g>
   <g id="PolyCollection_1">
    <defs>
     <path d="M 171.316754 -198.299375 
L 171.316754 -198.386664 
L 174.792067 -198.419579 
L 178.26738 -198.463829 
L 181.742692 -198.522903 
L 185.218005 -198.60122 
L 188.693318 -198.704325 
L 192.168631 -198.839111 
L 195.643944 -199.014079 
L 199.119257 -199.239606 
L 202.59457 -199.528249 
L 206.069882 -199.895049 
L 209.545195 -200.357847 
L 213.020508 -200.937589 
L 216.495821 -201.658599 
L 219.971134 -202.548819 
L 223.446447 -203.639965 
L 226.92176 -204.967604 
L 230.397072 -206.571096 
L 233.872385 -208.493391 
L 237.347698 -210.780645 
L 240.823011 -213.481633 
L 244.298324 -216.646923 
L 247.773637 -220.327817 
L 251.24895 -224.575034 
L 254.724263 -229.437146 
L 258.199575 -234.958788 
L 261.674888 -241.178664 
L 265.150201 -248.127406 
L 268.625514 -255.825345 
L 272.100827 -264.280279 
L 275.57614 -273.485318 
L 279.051453 -283.416926 
L 282.526765 -294.033258 
L 286.002078 -305.272899 
L 289.477391 -317.054132 
L 292.952704 -329.274797 
L 296.428017 -341.81285 
L 299.90333 -354.527649 
L 303.378643 -367.262007 
L 306.853955 -379.844998 
L 310.329268 -392.09545 
L 313.804581 -403.826076 
L 317.279894 -414.848088 
L 320.755207 -424.97616 
L 324.23052 -434.033557 
L 327.705833 -441.85724 
L 331.181146 -448.30273 
L 334.656458 -453.24854 
L 338.131771 -456.599986 
L 341.607084 -458.292194 
L 345.082397 -458.292194 
L 348.55771 -456.599986 
L 352.033023 -453.24854 
L 355.508336 -448.30273 
L 358.983648 -441.85724 
L 362.458961 -434.033557 
L 365.934274 -424.97616 
L 369.409587 -414.848088 
L 372.8849 -403.826076 
L 376.360213 -392.09545 
L 379.835526 -379.844998 
L 383.310838 -367.262007 
L 386.786151 -354.527649 
L 390.261464 -341.81285 
L 393.736777 -329.274797 
L 397.21209 -317.054132 
L 400.687403 -305.272899 
L 404.162716 -294.033258 
L 407.638029 -283.416926 
L 411.113341 -273.485318 
L 414.588654 -264.280279 
L 418.063967 -255.825345 
L 421.53928 -248.127406 
L 425.014593 -241.178664 
L 428.489906 -234.958788 
L 431.965219 -229.437146 
L 435.440531 -224.575034 
L 438.915844 -220.327817 
L 442.391157 -216.646923 
L 445.86647 -213.481633 
L 449.341783 -210.780645 
L 452.817096 -208.493391 
L 456.292409 -206.571096 
L 459.767721 -204.967604 
L 463.243034 -203.639965 
L 466.718347 -202.548819 
L 470.19366 -201.658599 
L 473.668973 -200.937589 
L 477.144286 -200.357847 
L 480.619599 -199.895049 
L 484.094912 -199.528249 
L 487.570224 -199.239606 
L 491.045537 -199.014079 
L 494.52085 -198.839111 
L 497.996163 -198.704325 
L 501.471476 -198.60122 
L 504.946789 -198.522903 
L 508.422102 -198.463829 
L 511.897414 -198.419579 
L 515.372727 -198.386664 
L 515.372727 -198.299375 
L 515.372727 -198.299375 
L 511.897414 -198.299375 
L 508.422102 -198.299375 
L 504.946789 -198.299375 
L 501.471476 -198.299375 
L 497.996163 -198.299375 
L 494.52085 -198.299375 
L 491.045537 -198.299375 
L 487.570224 -198.299375 
L 484.094912 -198.299375 
L 480.619599 -198.299375 
L 477.144286 -198.299375 
L 473.668973 -198.299375 
L 470.19366 -198.299375 
L 466.718347 -198.299375 
L 463.243034 -198.299375 
L 459.767721 -198.299375 
L 456.292409 -198.299375 
L 452.817096 -198.299375 
L 449.341783 -198.299375 
L 445.86647 -198.299375 
L 442.391157 -198.299375 
L 438.915844 -198.299375 
L 435.440531 -198.299375 
L 431.965219 -198.299375 
L 428.489906 -198.299375 
L 425.014593 -198.299375 
L 421.53928 -198.299375 
L 418.063967 -198.299375 
L 414.588654 -198.299375 
L 411.113341 -198.299375 
L 407.638029 -198.299375 
L 404.162716 -198.299375 
L 400.687403 -198.299375 
L 397.21209 -198.299375 
L 393.736777 -198.299375 
L 390.261464 -198.299375 
L 386.786151 -198.299375 
L 383.310838 -198.299375 
L 379.835526 -198.299375 
L 376.360213 -198.299375 
L 372.8849 -198.299375 
L 369.409587 -198.299375 
L 365.934274 -198.299375 
L 362.458961 -198.299375 
L 358.983648 -198.299375 
L 355.508336 -198.299375 
L 352.033023 -198.299375 
L 348.55771 -198.299375 
L 345.082397 -198.299375 
L 341.607084 -198.299375 
L 338.131771 -198.299375 
L 334.656458 -198.299375 
L 331.181146 -198.299375 
L 327.705833 -198.299375 
L 324.23052 -198.299375 
L 320.755207 -198.299375 
L 317.279894 -198.299375 
L 313.804581 -198.299375 
L 310.329268 -198.299375 
L 306.853955 -198.299375 
L 303.378643 -198.299375 
L 299.90333 -198.299375 
L 296.428017 -198.299375 
L 292.952704 -198.299375 
L 289.477391 -198.299375 
L 286.002078 -198.299375 
L 282.526765 -198.299375 
L 279.051453 -198.299375 
L 275.57614 -198.299375 
L 272.100827 -198.299375 
L 268.625514 -198.299375 
L 265.150201 -198.299375 
L 261.674888 -198.299375 
L 258.199575 -198.299375 
L 254.724263 -198.299375 
L 251.24895 -198.299375 
L 247.773637 -198.299375 
L 244.298324 -198.299375 
L 240.823011 -198.299375 
L 237.347698 -198.299375 
L 233.872385 -198.299375 
L 230.397072 -198.299375 
L 226.92176 -198.299375 
L 223.446447 -198.299375 
L 219.971134 -198.299375 
L 216.495821 -198.299375 
L 213.020508 -198.299375 
L 209.545195 -198.299375 
L 206.069882 -198.299375 
L 202.59457 -198.299375 
L 199.119257 -198.299375 
L 195.643944 -198.299375 
L 192.168631 -198.299375 
L 188.693318 -198.299375 
L 185.218005 -198.299375 
L 181.742692 -198.299375 
L 178.26738 -198.299375 
L 174.792067 -198.299375 
L 171.316754 -198.299375 
z
" id="m4792234580" style="stroke:#ff6384;stroke-opacity:0.5;"/>
    </defs>
    <g clip-path="url(#pd270615144)">
     <use style="fill:#ff6384;fill-opacity:0.5;stroke:#ff6384;stroke-opacity:0.5;" x="0" xlink:href="#m4792234580" y="591.509375"/>
    </g>
   </g>
   <g id="PolyCollection_2">
    <defs>
     <path d="M 58.827273 -198.299375 
L 58.827273 -198.413593 
L 61.483229 -198.456662 
L 64.139186 -198.514563 
L 66.795142 -198.591861 
L 69.451099 -198.694339 
L 72.107055 -198.829251 
L 74.763012 -199.005619 
L 77.418968 -199.234563 
L 80.074924 -199.529665 
L 82.730881 -199.907354 
L 85.386837 -200.387311 
L 88.042794 -200.992881 
L 90.69875 -201.751471 
L 93.354707 -202.694912 
L 96.010663 -203.859762 
L 98.66662 -205.287525 
L 101.322576 -207.024738 
L 103.978533 -209.122902 
L 106.634489 -211.638221 
L 109.290446 -214.631088 
L 111.946402 -218.165325 
L 114.602358 -222.3071 
L 117.258315 -227.123541 
L 119.914271 -232.681014 
L 122.570228 -239.043076 
L 125.226184 -246.268132 
L 127.882141 -254.406825 
L 130.538097 -263.499238 
L 133.194054 -273.571974 
L 135.85001 -284.635235 
L 138.505967 -296.680007 
L 141.161923 -309.675493 
L 143.81788 -323.566938 
L 146.473836 -338.273983 
L 149.129792 -353.689699 
L 151.785749 -369.680411 
L 154.441705 -386.086424 
L 157.097662 -402.723708 
L 159.753618 -419.386587 
L 162.409575 -435.8514 
L 165.065531 -451.881089 
L 167.721488 -467.230586 
L 170.377444 -481.652863 
L 173.033401 -494.905422 
L 175.689357 -506.757005 
L 178.345314 -516.994276 
L 181.00127 -525.428184 
L 183.657226 -531.899766 
L 186.313183 -536.285125 
L 188.969139 -538.499375 
L 191.625096 -538.499375 
L 194.281052 -536.285125 
L 196.937009 -531.899766 
L 199.592965 -525.428184 
L 202.248922 -516.994276 
L 204.904878 -506.757005 
L 207.560835 -494.905422 
L 210.216791 -481.652863 
L 212.872748 -467.230586 
L 215.528704 -451.881089 
L 218.184661 -435.8514 
L 220.840617 -419.386587 
L 223.496573 -402.723708 
L 226.15253 -386.086424 
L 228.808486 -369.680411 
L 231.464443 -353.689699 
L 234.120399 -338.273983 
L 236.776356 -323.566938 
L 239.432312 -309.675493 
L 242.088269 -296.680007 
L 244.744225 -284.635235 
L 247.400182 -273.571974 
L 250.056138 -263.499238 
L 252.712095 -254.406825 
L 255.368051 -246.268132 
L 258.024007 -239.043076 
L 260.679964 -232.681014 
L 263.33592 -227.123541 
L 265.991877 -222.3071 
L 268.647833 -218.165325 
L 271.30379 -214.631088 
L 273.959746 -211.638221 
L 276.615703 -209.122902 
L 279.271659 -207.024738 
L 281.927616 -205.287525 
L 284.583572 -203.859762 
L 287.239529 -202.694912 
L 289.895485 -201.751471 
L 292.551441 -200.992881 
L 295.207398 -200.387311 
L 297.863354 -199.907354 
L 300.519311 -199.529665 
L 303.175267 -199.234563 
L 305.831224 -199.005619 
L 308.48718 -198.829251 
L 311.143137 -198.694339 
L 313.799093 -198.591861 
L 316.45505 -198.514563 
L 319.111006 -198.456662 
L 321.766963 -198.413593 
L 321.766963 -198.299375 
L 321.766963 -198.299375 
L 319.111006 -198.299375 
L 316.45505 -198.299375 
L 313.799093 -198.299375 
L 311.143137 -198.299375 
L 308.48718 -198.299375 
L 305.831224 -198.299375 
L 303.175267 -198.299375 
L 300.519311 -198.299375 
L 297.863354 -198.299375 
L 295.207398 -198.299375 
L 292.551441 -198.299375 
L 289.895485 -198.299375 
L 287.239529 -198.299375 
L 284.583572 -198.299375 
L 281.927616 -198.299375 
L 279.271659 -198.299375 
L 276.615703 -198.299375 
L 273.959746 -198.299375 
L 271.30379 -198.299375 
L 268.647833 -198.299375 
L 265.991877 -198.299375 
L 263.33592 -198.299375 
L 260.679964 -198.299375 
L 258.024007 -198.299375 
L 255.368051 -198.299375 
L 252.712095 -198.299375 
L 250.056138 -198.299375 
L 247.400182 -198.299375 
L 244.744225 -198.299375 
L 242.088269 -198.299375 
L 239.432312 -198.299375 
L 236.776356 -198.299375 
L 234.120399 -198.299375 
L 231.464443 -198.299375 
L 228.808486 -198.299375 
L 226.15253 -198.299375 
L 223.496573 -198.299375 
L 220.840617 -198.299375 
L 218.184661 -198.299375 
L 215.528704 -198.299375 
L 212.872748 -198.299375 
L 210.216791 -198.299375 
L 207.560835 -198.299375 
L 204.904878 -198.299375 
L 202.248922 -198.299375 
L 199.592965 -198.299375 
L 196.937009 -198.299375 
L 194.281052 -198.299375 
L 191.625096 -198.299375 
L 188.969139 -198.299375 
L 186.313183 -198.299375 
L 183.657226 -198.299375 
L 181.00127 -198.299375 
L 178.345314 -198.299375 
L 175.689357 -198.299375 
L 173.033401 -198.299375 
L 170.377444 -198.299375 
L 167.721488 -198.299375 
L 165.065531 -198.299375 
L 162.409575 -198.299375 
L 159.753618 -198.299375 
L 157.097662 -198.299375 
L 154.441705 -198.299375 
L 151.785749 -198.299375 
L 149.129792 -198.299375 
L 146.473836 -198.299375 
L 143.81788 -198.299375 
L 141.161923 -198.299375 
L 138.505967 -198.299375 
L 135.85001 -198.299375 
L 133.194054 -198.299375 
L 130.538097 -198.299375 
L 127.882141 -198.299375 
L 125.226184 -198.299375 
L 122.570228 -198.299375 
L 119.914271 -198.299375 
L 117.258315 -198.299375 
L 114.602358 -198.299375 
L 111.946402 -198.299375 
L 109.290446 -198.299375 
L 106.634489 -198.299375 
L 103.978533 -198.299375 
L 101.322576 -198.299375 
L 98.66662 -198.299375 
L 96.010663 -198.299375 
L 93.354707 -198.299375 
L 90.69875 -198.299375 
L 88.042794 -198.299375 
L 85.386837 -198.299375 
L 82.730881 -198.299375 
L 80.074924 -198.299375 
L 77.418968 -198.299375 
L 74.763012 -198.299375 
L 72.107055 -198.299375 
L 69.451099 -198.299375 
L 66.795142 -198.299375 
L 64.139186 -198.299375 
L 61.483229 -198.299375 
L 58.827273 -198.299375 
z
" id="m0b76791711" style="stroke:#36a2eb;stroke-opacity:0.5;"/>
    </defs>
    <g clip-path="url(#pd270615144)">
     <use style="fill:#36a2eb;fill-opacity:0.5;stroke:#36a2eb;stroke-opacity:0.5;" x="0" xlink:href="#m0b76791711" y="591.509375"/>
    </g>
   </g>
   <g id="line2d_1">
    <path clip-path="url(#pd270615144)" d="M 171.316754 393.122711 
L 174.792067 393.089796 
L 178.26738 393.045546 
L 181.742692 392.986472 
L 185.218005 392.908155 
L 188.693318 392.80505 
L 192.168631 392.670264 
L 195.643944 392.495296 
L 199.119257 392.269769 
L 202.59457 391.981126 
L 206.069882 391.614326 
L 209.545195 391.151528 
L 213.020508 390.571786 
L 216.495821 389.850776 
L 219.971134 388.960556 
L 223.446447 387.86941 
L 226.92176 386.541771 
L 230.397072 384.938279 
L 233.872385 383.015984 
L 237.347698 380.72873 
L 240.823011 378.027742 
L 244.298324 374.862452 
L 247.773637 371.181558 
L 251.24895 366.934341 
L 254.724263 362.072229 
L 258.199575 356.550587 
L 261.674888 350.330711 
L 265.150201 343.381969 
L 268.625514 335.68403 
L 272.100827 327.229096 
L 275.57614 318.024057 
L 279.051453 308.092449 
L 282.526765 297.476117 
L 286.002078 286.236476 
L 289.477391 274.455243 
L 292.952704 262.234578 
L 296.428017 249.696525 
L 299.90333 236.981726 
L 303.378643 224.247368 
L 306.853955 211.664377 
L 310.329268 199.413925 
L 313.804581 187.683299 
L 317.279894 176.661287 
L 320.755207 166.533215 
L 324.23052 157.475818 
L 327.705833 149.652135 
L 331.181146 143.206645 
L 334.656458 138.260835 
L 338.131771 134.909389 
L 341.607084 133.217181 
L 345.082397 133.217181 
L 348.55771 134.909389 
L 352.033023 138.260835 
L 355.508336 143.206645 
L 358.983648 149.652135 
L 362.458961 157.475818 
L 365.934274 166.533215 
L 369.409587 176.661287 
L 372.8849 187.683299 
L 376.360213 199.413925 
L 379.835526 211.664377 
L 383.310838 224.247368 
L 386.786151 236.981726 
L 390.261464 249.696525 
L 393.736777 262.234578 
L 397.21209 274.455243 
L 400.687403 286.236476 
L 404.162716 297.476117 
L 407.638029 308.092449 
L 411.113341 318.024057 
L 414.588654 327.229096 
L 418.063967 335.68403 
L 421.53928 343.381969 
L 425.014593 350.330711 
L 428.489906 356.550587 
L 431.965219 362.072229 
L 435.440531 366.934341 
L 438.915844 371.181558 
L 442.391157 374.862452 
L 445.86647 378.027742 
L 449.341783 380.72873 
L 452.817096 383.015984 
L 456.292409 384.938279 
L 459.767721 386.541771 
L 463.243034 387.86941 
L 466.718347 388.960556 
L 470.19366 389.850776 
L 473.668973 390.571786 
L 477.144286 391.151528 
L 480.619599 391.614326 
L 484.094912 391.981126 
L 487.570224 392.269769 
L 491.045537 392.495296 
L 494.52085 392.670264 
L 497.996163 392.80505 
L 501.471476 392.908155 
L 504.946789 392.986472 
L 508.422102 393.045546 
L 511.897414 393.089796 
L 515.372727 393.122711 
" style="fill:none;stroke:#ff6384;stroke-linecap:square;"/>
   </g>
   <g id="line2d_2">
    <path clip-path="url(#pd270615144)" d="M 58.827273 393.095782 
L 61.483229 393.052713 
L 64.139186 392.994812 
L 66.795142 392.917514 
L 69.451099 392.815036 
L 72.107055 392.680124 
L 74.763012 392.503756 
L 77.418968 392.274812 
L 80.074924 391.97971 
L 82.730881 391.602021 
L 85.386837 391.122064 
L 88.042794 390.516494 
L 90.69875 389.757904 
L 93.354707 388.814463 
L 96.010663 387.649613 
L 98.66662 386.22185 
L 101.322576 384.484637 
L 103.978533 382.386473 
L 106.634489 379.871154 
L 109.290446 376.878287 
L 111.946402 373.34405 
L 114.602358 369.202275 
L 117.258315 364.385834 
L 119.914271 358.828361 
L 122.570228 352.466299 
L 125.226184 345.241243 
L 127.882141 337.10255 
L 130.538097 328.010137 
L 133.194054 317.937401 
L 135.85001 306.87414 
L 138.505967 294.829368 
L 141.161923 281.833882 
L 143.81788 267.942437 
L 146.473836 253.235392 
L 149.129792 237.819676 
L 151.785749 221.828964 
L 154.441705 205.422951 
L 157.097662 188.785667 
L 159.753618 172.122788 
L 162.409575 155.657975 
L 165.065531 139.628286 
L 167.721488 124.278789 
L 170.377444 109.856512 
L 173.033401 96.603953 
L 175.689357 84.75237 
L 178.345314 74.515099 
L 181.00127 66.081191 
L 183.657226 59.609609 
L 186.313183 55.22425 
L 188.969139 53.01 
L 191.625096 53.01 
L 194.281052 55.22425 
L 196.937009 59.609609 
L 199.592965 66.081191 
L 202.248922 74.515099 
L 204.904878 84.75237 
L 207.560835 96.603953 
L 210.216791 109.856512 
L 212.872748 124.278789 
L 215.528704 139.628286 
L 218.184661 155.657975 
L 220.840617 172.122788 
L 223.496573 188.785667 
L 226.15253 205.422951 
L 228.808486 221.828964 
L 231.464443 237.819676 
L 234.120399 253.235392 
L 236.776356 267.942437 
L 239.432312 281.833882 
L 242.088269 294.829368 
L 244.744225 306.87414 
L 247.400182 317.937401 
L 250.056138 328.010137 
L 252.712095 337.10255 
L 255.368051 345.241243 
L 258.024007 352.466299 
L 260.679964 358.828361 
L 263.33592 364.385834 
L 265.991877 369.202275 
L 268.647833 373.34405 
L 271.30379 376.878287 
L 273.959746 379.871154 
L 276.615703 382.386473 
L 279.271659 384.484637 
L 281.927616 386.22185 
L 284.583572 387.649613 
L 287.239529 388.814463 
L 289.895485 389.757904 
L 292.551441 390.516494 
L 295.207398 391.122064 
L 297.863354 391.602021 
L 300.519311 391.97971 
L 303.175267 392.274812 
L 305.831224 392.503756 
L 308.48718 392.680124 
L 311.143137 392.815036 
L 313.799093 392.917514 
L 316.45505 392.994812 
L 319.111006 393.052713 
L 321.766963 393.095782 
" style="fill:none;stroke:#36a2eb;stroke-linecap:square;"/>
   </g>
   <g id="patch_3">
    <path d="M 36 410.22 
L 538.2 410.22 
" style="fill:none;stroke:#000000;stroke-linecap:square;stroke-linejoin:miter;stroke-width:0.8;"/>
   </g>
   <g id="legend_1">
    <g id="patch_4">
     <path d="M 441.707188 88.29875 
L 528.4 88.29875 
Q 531.2 88.29875 531.2 85.49875 
L 531.2 45.8 
Q 531.2 43 528.4 43 
L 441.707188 43 
Q 438.907188 43 438.907188 45.8 
L 438.907188 85.49875 
Q 438.907188 88.29875 441.707188 88.29875 
z
" style="fill:#ffffff;opacity:0.8;stroke:#cccccc;stroke-linejoin:miter;"/>
    </g>
    <g id="patch_5">
     <path d="M 444.507188 59.237813 
L 472.507188 59.237813 
L 472.507188 49.437813 
L 444.507188 49.437813 
z
" style="fill:#ff6384;opacity:0.5;stroke:#ff6384;stroke-linejoin:miter;"/>
    </g>
    <g id="text_1">
     <!-- base -->
     <defs>
      <path d="M 48.6875 27.296875 
Q 48.6875 37.203125 44.609375 42.84375 
Q 40.53125 48.484375 33.40625 48.484375 
Q 26.265625 48.484375 22.1875 42.84375 
Q 18.109375 37.203125 18.109375 27.296875 
Q 18.109375 17.390625 22.1875 11.75 
Q 26.265625 6.109375 33.40625 6.109375 
Q 40.53125 6.109375 44.609375 11.75 
Q 48.6875 17.390625 48.6875 27.296875 
z
M 18.109375 46.390625 
Q 20.953125 51.265625 25.265625 53.625 
Q 29.59375 56 35.59375 56 
Q 45.5625 56 51.78125 48.09375 
Q 58.015625 40.1875 58.015625 27.296875 
Q 58.015625 14.40625 51.78125 6.484375 
Q 45.5625 -1.421875 35.59375 -1.421875 
Q 29.59375 -1.421875 25.265625 0.953125 
Q 20.953125 3.328125 18.109375 8.203125 
L 18.109375 0 
L 9.078125 0 
L 9.078125 75.984375 
L 18.109375 75.984375 
z
" id="DejaVuSans-98"/>
      <path d="M 34.28125 27.484375 
Q 23.390625 27.484375 19.1875 25 
Q 14.984375 22.515625 14.984375 16.5 
Q 14.984375 11.71875 18.140625 8.90625 
Q 21.296875 6.109375 26.703125 6.109375 
Q 34.1875 6.109375 38.703125 11.40625 
Q 43.21875 16.703125 43.21875 25.484375 
L 43.21875 27.484375 
z
M 52.203125 31.203125 
L 52.203125 0 
L 43.21875 0 
L 43.21875 8.296875 
Q 40.140625 3.328125 35.546875 0.953125 
Q 30.953125 -1.421875 24.3125 -1.421875 
Q 15.921875 -1.421875 10.953125 3.296875 
Q 6 8.015625 6 15.921875 
Q 6 25.140625 12.171875 29.828125 
Q 18.359375 34.515625 30.609375 34.515625 
L 43.21875 34.515625 
L 43.21875 35.40625 
Q 43.21875 41.609375 39.140625 45 
Q 35.0625 48.390625 27.6875 48.390625 
Q 23 48.390625 18.546875 47.265625 
Q 14.109375 46.140625 10.015625 43.890625 
L 10.015625 52.203125 
Q 14.9375 54.109375 19.578125 55.046875 
Q 24.21875 56 28.609375 56 
Q 40.484375 56 46.34375 49.84375 
Q 52.203125 43.703125 52.203125 31.203125 
z
" id="DejaVuSans-97"/>
      <path d="M 44.28125 53.078125 
L 44.28125 44.578125 
Q 40.484375 46.53125 36.375 47.5 
Q 32.28125 48.484375 27.875 48.484375 
Q 21.1875 48.484375 17.84375 46.4375 
Q 14.5 44.390625 14.5 40.28125 
Q 14.5 37.15625 16.890625 35.375 
Q 19.28125 33.59375 26.515625 31.984375 
L 29.59375 31.296875 
Q 39.15625 29.25 43.1875 25.515625 
Q 47.21875 21.78125 47.21875 15.09375 
Q 47.21875 7.46875 41.1875 3.015625 
Q 35.15625 -1.421875 24.609375 -1.421875 
Q 20.21875 -1.421875 15.453125 -0.5625 
Q 10.6875 0.296875 5.421875 2 
L 5.421875 11.28125 
Q 10.40625 8.6875 15.234375 7.390625 
Q 20.0625 6.109375 24.8125 6.109375 
Q 31.15625 6.109375 34.5625 8.28125 
Q 37.984375 10.453125 37.984375 14.40625 
Q 37.984375 18.0625 35.515625 20.015625 
Q 33.0625 21.96875 24.703125 23.78125 
L 21.578125 24.515625 
Q 13.234375 26.265625 9.515625 29.90625 
Q 5.8125 33.546875 5.8125 39.890625 
Q 5.8125 47.609375 11.28125 51.796875 
Q 16.75 56 26.8125 56 
Q 31.78125 56 36.171875 55.265625 
Q 40.578125 54.546875 44.28125 53.078125 
z
" id="DejaVuSans-115"/>
      <path d="M 56.203125 29.59375 
L 56.203125 25.203125 
L 14.890625 25.203125 
Q 15.484375 15.921875 20.484375 11.0625 
Q 25.484375 6.203125 34.421875 6.203125 
Q 39.59375 6.203125 44.453125 7.46875 
Q 49.3125 8.734375 54.109375 11.28125 
L 54.109375 2.78125 
Q 49.265625 0.734375 44.1875 -0.34375 
Q 39.109375 -1.421875 33.890625 -1.421875 
Q 20.796875 -1.421875 13.15625 6.1875 
Q 5.515625 13.8125 5.515625 26.8125 
Q 5.515625 40.234375 12.765625 48.109375 
Q 20.015625 56 32.328125 56 
Q 43.359375 56 49.78125 48.890625 
Q 56.203125 41.796875 56.203125 29.59375 
z
M 47.21875 32.234375 
Q 47.125 39.59375 43.09375 43.984375 
Q 39.0625 48.390625 32.421875 48.390625 
Q 24.90625 48.390625 20.390625 44.140625 
Q 15.875 39.890625 15.1875 32.171875 
z
" id="DejaVuSans-101"/>
     </defs>
     <g transform="translate(483.707188 59.237813)scale(0.14 -0.14)">
      <use xlink:href="#DejaVuSans-98"/>
      <use x="63.476562" xlink:href="#DejaVuSans-97"/>
      <use x="124.755859" xlink:href="#DejaVuSans-115"/>
      <use x="176.855469" xlink:href="#DejaVuSans-101"/>
     </g>
    </g>
    <g id="patch_6">
     <path d="M 444.507188 79.787188 
L 472.507188 79.787188 
L 472.507188 69.987188 
L 444.507188 69.987188 
z
" style="fill:#36a2eb;opacity:0.5;stroke:#36a2eb;stroke-linejoin:miter;"/>
    </g>
    <g id="text_2">
     <!-- osago -->
     <defs>
      <path d="M 30.609375 48.390625 
Q 23.390625 48.390625 19.1875 42.75 
Q 14.984375 37.109375 14.984375 27.296875 
Q 14.984375 17.484375 19.15625 11.84375 
Q 23.34375 6.203125 30.609375 6.203125 
Q 37.796875 6.203125 41.984375 11.859375 
Q 46.1875 17.53125 46.1875 27.296875 
Q 46.1875 37.015625 41.984375 42.703125 
Q 37.796875 48.390625 30.609375 48.390625 
z
M 30.609375 56 
Q 42.328125 56 49.015625 48.375 
Q 55.71875 40.765625 55.71875 27.296875 
Q 55.71875 13.875 49.015625 6.21875 
Q 42.328125 -1.421875 30.609375 -1.421875 
Q 18.84375 -1.421875 12.171875 6.21875 
Q 5.515625 13.875 5.515625 27.296875 
Q 5.515625 40.765625 12.171875 48.375 
Q 18.84375 56 30.609375 56 
z
" id="DejaVuSans-111"/>
      <path d="M 45.40625 27.984375 
Q 45.40625 37.75 41.375 43.109375 
Q 37.359375 48.484375 30.078125 48.484375 
Q 22.859375 48.484375 18.828125 43.109375 
Q 14.796875 37.75 14.796875 27.984375 
Q 14.796875 18.265625 18.828125 12.890625 
Q 22.859375 7.515625 30.078125 7.515625 
Q 37.359375 7.515625 41.375 12.890625 
Q 45.40625 18.265625 45.40625 27.984375 
z
M 54.390625 6.78125 
Q 54.390625 -7.171875 48.1875 -13.984375 
Q 42 -20.796875 29.203125 -20.796875 
Q 24.46875 -20.796875 20.265625 -20.09375 
Q 16.0625 -19.390625 12.109375 -17.921875 
L 12.109375 -9.1875 
Q 16.0625 -11.328125 19.921875 -12.34375 
Q 23.78125 -13.375 27.78125 -13.375 
Q 36.625 -13.375 41.015625 -8.765625 
Q 45.40625 -4.15625 45.40625 5.171875 
L 45.40625 9.625 
Q 42.625 4.78125 38.28125 2.390625 
Q 33.9375 0 27.875 0 
Q 17.828125 0 11.671875 7.65625 
Q 5.515625 15.328125 5.515625 27.984375 
Q 5.515625 40.671875 11.671875 48.328125 
Q 17.828125 56 27.875 56 
Q 33.9375 56 38.28125 53.609375 
Q 42.625 51.21875 45.40625 46.390625 
L 45.40625 54.6875 
L 54.390625 54.6875 
z
" id="DejaVuSans-103"/>
     </defs>
     <g transform="translate(483.707188 79.787188)scale(0.14 -0.14)">
      <use xlink:href="#DejaVuSans-111"/>
      <use x="61.181641" xlink:href="#DejaVuSans-115"/>
      <use x="113.28125" xlink:href="#DejaVuSans-97"/>
      <use x="174.560547" xlink:href="#DejaVuSans-103"/>
      <use x="238.037109" xlink:href="#DejaVuSans-111"/>
     </g>
    </g>
   </g>
  </g>
  <g id="axes_2">
   <g id="patch_7">
    <path d="M 36 534.96 
L 538.2 534.96 
L 538.2 410.22 
L 36 410.22 
z
" style="fill:none;"/>
   </g>
   <g id="patch_8">
    <path clip-path="url(#pea82f1cbd4)" d="M 259.051027 529.29 
L 427.638454 529.29 
L 427.638454 491.49 
L 259.051027 491.49 
z
" style="fill:#ff6384;opacity:0.5;"/>
   </g>
   <g id="patch_9">
    <path clip-path="url(#pea82f1cbd4)" d="M 125.876894 453.69 
L 254.717342 453.69 
L 254.717342 415.89 
L 125.876894 415.89 
z
" style="fill:#36a2eb;opacity:0.5;"/>
   </g>
   <g id="matplotlib.axis_1">
    <g id="xtick_1">
     <g id="line2d_3">
      <defs>
       <path d="M 0 0 
L 0 3.5 
" id="mf310c7e571" style="stroke:#000000;stroke-width:0.8;"/>
      </defs>
      <g>
       <use style="stroke:#000000;stroke-width:0.8;" x="82.661177" xlink:href="#mf310c7e571" y="534.96"/>
      </g>
     </g>
     <g id="text_3">
      <!-- 6.5 -->
      <defs>
       <path d="M 33.015625 40.375 
Q 26.375 40.375 22.484375 35.828125 
Q 18.609375 31.296875 18.609375 23.390625 
Q 18.609375 15.53125 22.484375 10.953125 
Q 26.375 6.390625 33.015625 6.390625 
Q 39.65625 6.390625 43.53125 10.953125 
Q 47.40625 15.53125 47.40625 23.390625 
Q 47.40625 31.296875 43.53125 35.828125 
Q 39.65625 40.375 33.015625 40.375 
z
M 52.59375 71.296875 
L 52.59375 62.3125 
Q 48.875 64.0625 45.09375 64.984375 
Q 41.3125 65.921875 37.59375 65.921875 
Q 27.828125 65.921875 22.671875 59.328125 
Q 17.53125 52.734375 16.796875 39.40625 
Q 19.671875 43.65625 24.015625 45.921875 
Q 28.375 48.1875 33.59375 48.1875 
Q 44.578125 48.1875 50.953125 41.515625 
Q 57.328125 34.859375 57.328125 23.390625 
Q 57.328125 12.15625 50.6875 5.359375 
Q 44.046875 -1.421875 33.015625 -1.421875 
Q 20.359375 -1.421875 13.671875 8.265625 
Q 6.984375 17.96875 6.984375 36.375 
Q 6.984375 53.65625 15.1875 63.9375 
Q 23.390625 74.21875 37.203125 74.21875 
Q 40.921875 74.21875 44.703125 73.484375 
Q 48.484375 72.75 52.59375 71.296875 
z
" id="DejaVuSans-54"/>
       <path d="M 10.6875 12.40625 
L 21 12.40625 
L 21 0 
L 10.6875 0 
z
" id="DejaVuSans-46"/>
       <path d="M 10.796875 72.90625 
L 49.515625 72.90625 
L 49.515625 64.59375 
L 19.828125 64.59375 
L 19.828125 46.734375 
Q 21.96875 47.46875 24.109375 47.828125 
Q 26.265625 48.1875 28.421875 48.1875 
Q 40.625 48.1875 47.75 41.5 
Q 54.890625 34.8125 54.890625 23.390625 
Q 54.890625 11.625 47.5625 5.09375 
Q 40.234375 -1.421875 26.90625 -1.421875 
Q 22.3125 -1.421875 17.546875 -0.640625 
Q 12.796875 0.140625 7.71875 1.703125 
L 7.71875 11.625 
Q 12.109375 9.234375 16.796875 8.0625 
Q 21.484375 6.890625 26.703125 6.890625 
Q 35.15625 6.890625 40.078125 11.328125 
Q 45.015625 15.765625 45.015625 23.390625 
Q 45.015625 31 40.078125 35.4375 
Q 35.15625 39.890625 26.703125 39.890625 
Q 22.75 39.890625 18.8125 39.015625 
Q 14.890625 38.140625 10.796875 36.28125 
z
" id="DejaVuSans-53"/>
      </defs>
      <g transform="translate(71.528989 552.597813)scale(0.14 -0.14)">
       <use xlink:href="#DejaVuSans-54"/>
       <use x="63.623047" xlink:href="#DejaVuSans-46"/>
       <use x="95.410156" xlink:href="#DejaVuSans-53"/>
      </g>
     </g>
    </g>
    <g id="xtick_2">
     <g id="line2d_4">
      <g>
       <use style="stroke:#000000;stroke-width:0.8;" x="145.961542" xlink:href="#mf310c7e571" y="534.96"/>
      </g>
     </g>
     <g id="text_4">
      <!-- 7.0 -->
      <defs>
       <path d="M 8.203125 72.90625 
L 55.078125 72.90625 
L 55.078125 68.703125 
L 28.609375 0 
L 18.3125 0 
L 43.21875 64.59375 
L 8.203125 64.59375 
z
" id="DejaVuSans-55"/>
       <path d="M 31.78125 66.40625 
Q 24.171875 66.40625 20.328125 58.90625 
Q 16.5 51.421875 16.5 36.375 
Q 16.5 21.390625 20.328125 13.890625 
Q 24.171875 6.390625 31.78125 6.390625 
Q 39.453125 6.390625 43.28125 13.890625 
Q 47.125 21.390625 47.125 36.375 
Q 47.125 51.421875 43.28125 58.90625 
Q 39.453125 66.40625 31.78125 66.40625 
z
M 31.78125 74.21875 
Q 44.046875 74.21875 50.515625 64.515625 
Q 56.984375 54.828125 56.984375 36.375 
Q 56.984375 17.96875 50.515625 8.265625 
Q 44.046875 -1.421875 31.78125 -1.421875 
Q 19.53125 -1.421875 13.0625 8.265625 
Q 6.59375 17.96875 6.59375 36.375 
Q 6.59375 54.828125 13.0625 64.515625 
Q 19.53125 74.21875 31.78125 74.21875 
z
" id="DejaVuSans-48"/>
      </defs>
      <g transform="translate(134.829354 552.597813)scale(0.14 -0.14)">
       <use xlink:href="#DejaVuSans-55"/>
       <use x="63.623047" xlink:href="#DejaVuSans-46"/>
       <use x="95.410156" xlink:href="#DejaVuSans-48"/>
      </g>
     </g>
    </g>
    <g id="xtick_3">
     <g id="line2d_5">
      <g>
       <use style="stroke:#000000;stroke-width:0.8;" x="209.261907" xlink:href="#mf310c7e571" y="534.96"/>
      </g>
     </g>
     <g id="text_5">
      <!-- 7.5 -->
      <g transform="translate(198.12972 552.597813)scale(0.14 -0.14)">
       <use xlink:href="#DejaVuSans-55"/>
       <use x="63.623047" xlink:href="#DejaVuSans-46"/>
       <use x="95.410156" xlink:href="#DejaVuSans-53"/>
      </g>
     </g>
    </g>
    <g id="xtick_4">
     <g id="line2d_6">
      <g>
       <use style="stroke:#000000;stroke-width:0.8;" x="272.562272" xlink:href="#mf310c7e571" y="534.96"/>
      </g>
     </g>
     <g id="text_6">
      <!-- 8.0 -->
      <defs>
       <path d="M 31.78125 34.625 
Q 24.75 34.625 20.71875 30.859375 
Q 16.703125 27.09375 16.703125 20.515625 
Q 16.703125 13.921875 20.71875 10.15625 
Q 24.75 6.390625 31.78125 6.390625 
Q 38.8125 6.390625 42.859375 10.171875 
Q 46.921875 13.96875 46.921875 20.515625 
Q 46.921875 27.09375 42.890625 30.859375 
Q 38.875 34.625 31.78125 34.625 
z
M 21.921875 38.8125 
Q 15.578125 40.375 12.03125 44.71875 
Q 8.5 49.078125 8.5 55.328125 
Q 8.5 64.0625 14.71875 69.140625 
Q 20.953125 74.21875 31.78125 74.21875 
Q 42.671875 74.21875 48.875 69.140625 
Q 55.078125 64.0625 55.078125 55.328125 
Q 55.078125 49.078125 51.53125 44.71875 
Q 48 40.375 41.703125 38.8125 
Q 48.828125 37.15625 52.796875 32.3125 
Q 56.78125 27.484375 56.78125 20.515625 
Q 56.78125 9.90625 50.3125 4.234375 
Q 43.84375 -1.421875 31.78125 -1.421875 
Q 19.734375 -1.421875 13.25 4.234375 
Q 6.78125 9.90625 6.78125 20.515625 
Q 6.78125 27.484375 10.78125 32.3125 
Q 14.796875 37.15625 21.921875 38.8125 
z
M 18.3125 54.390625 
Q 18.3125 48.734375 21.84375 45.5625 
Q 25.390625 42.390625 31.78125 42.390625 
Q 38.140625 42.390625 41.71875 45.5625 
Q 45.3125 48.734375 45.3125 54.390625 
Q 45.3125 60.0625 41.71875 63.234375 
Q 38.140625 66.40625 31.78125 66.40625 
Q 25.390625 66.40625 21.84375 63.234375 
Q 18.3125 60.0625 18.3125 54.390625 
z
" id="DejaVuSans-56"/>
      </defs>
      <g transform="translate(261.430085 552.597813)scale(0.14 -0.14)">
       <use xlink:href="#DejaVuSans-56"/>
       <use x="63.623047" xlink:href="#DejaVuSans-46"/>
       <use x="95.410156" xlink:href="#DejaVuSans-48"/>
      </g>
     </g>
    </g>
    <g id="xtick_5">
     <g id="line2d_7">
      <g>
       <use style="stroke:#000000;stroke-width:0.8;" x="335.862637" xlink:href="#mf310c7e571" y="534.96"/>
      </g>
     </g>
     <g id="text_7">
      <!-- 8.5 -->
      <g transform="translate(324.73045 552.597813)scale(0.14 -0.14)">
       <use xlink:href="#DejaVuSans-56"/>
       <use x="63.623047" xlink:href="#DejaVuSans-46"/>
       <use x="95.410156" xlink:href="#DejaVuSans-53"/>
      </g>
     </g>
    </g>
    <g id="xtick_6">
     <g id="line2d_8">
      <g>
       <use style="stroke:#000000;stroke-width:0.8;" x="399.163003" xlink:href="#mf310c7e571" y="534.96"/>
      </g>
     </g>
     <g id="text_8">
      <!-- 9.0 -->
      <defs>
       <path d="M 10.984375 1.515625 
L 10.984375 10.5 
Q 14.703125 8.734375 18.5 7.8125 
Q 22.3125 6.890625 25.984375 6.890625 
Q 35.75 6.890625 40.890625 13.453125 
Q 46.046875 20.015625 46.78125 33.40625 
Q 43.953125 29.203125 39.59375 26.953125 
Q 35.25 24.703125 29.984375 24.703125 
Q 19.046875 24.703125 12.671875 31.3125 
Q 6.296875 37.9375 6.296875 49.421875 
Q 6.296875 60.640625 12.9375 67.421875 
Q 19.578125 74.21875 30.609375 74.21875 
Q 43.265625 74.21875 49.921875 64.515625 
Q 56.59375 54.828125 56.59375 36.375 
Q 56.59375 19.140625 48.40625 8.859375 
Q 40.234375 -1.421875 26.421875 -1.421875 
Q 22.703125 -1.421875 18.890625 -0.6875 
Q 15.09375 0.046875 10.984375 1.515625 
z
M 30.609375 32.421875 
Q 37.25 32.421875 41.125 36.953125 
Q 45.015625 41.5 45.015625 49.421875 
Q 45.015625 57.28125 41.125 61.84375 
Q 37.25 66.40625 30.609375 66.40625 
Q 23.96875 66.40625 20.09375 61.84375 
Q 16.21875 57.28125 16.21875 49.421875 
Q 16.21875 41.5 20.09375 36.953125 
Q 23.96875 32.421875 30.609375 32.421875 
z
" id="DejaVuSans-57"/>
      </defs>
      <g transform="translate(388.030815 552.597813)scale(0.14 -0.14)">
       <use xlink:href="#DejaVuSans-57"/>
       <use x="63.623047" xlink:href="#DejaVuSans-46"/>
       <use x="95.410156" xlink:href="#DejaVuSans-48"/>
      </g>
     </g>
    </g>
    <g id="xtick_7">
     <g id="line2d_9">
      <g>
       <use style="stroke:#000000;stroke-width:0.8;" x="462.463368" xlink:href="#mf310c7e571" y="534.96"/>
      </g>
     </g>
     <g id="text_9">
      <!-- 9.5 -->
      <g transform="translate(451.33118 552.597813)scale(0.14 -0.14)">
       <use xlink:href="#DejaVuSans-57"/>
       <use x="63.623047" xlink:href="#DejaVuSans-46"/>
       <use x="95.410156" xlink:href="#DejaVuSans-53"/>
      </g>
     </g>
    </g>
    <g id="xtick_8">
     <g id="line2d_10">
      <g>
       <use style="stroke:#000000;stroke-width:0.8;" x="525.763733" xlink:href="#mf310c7e571" y="534.96"/>
      </g>
     </g>
     <g id="text_10">
      <!-- 10.0 -->
      <defs>
       <path d="M 12.40625 8.296875 
L 28.515625 8.296875 
L 28.515625 63.921875 
L 10.984375 60.40625 
L 10.984375 69.390625 
L 28.421875 72.90625 
L 38.28125 72.90625 
L 38.28125 8.296875 
L 54.390625 8.296875 
L 54.390625 0 
L 12.40625 0 
z
" id="DejaVuSans-49"/>
      </defs>
      <g transform="translate(510.177795 552.597813)scale(0.14 -0.14)">
       <use xlink:href="#DejaVuSans-49"/>
       <use x="63.623047" xlink:href="#DejaVuSans-48"/>
       <use x="127.246094" xlink:href="#DejaVuSans-46"/>
       <use x="159.033203" xlink:href="#DejaVuSans-48"/>
      </g>
     </g>
    </g>
   </g>
   <g id="line2d_11">
    <path clip-path="url(#pea82f1cbd4)" d="M 343.344741 534.96 
L 343.344741 410.22 
" style="fill:none;stroke:#ff6384;stroke-dasharray:5.55,2.4;stroke-dashoffset:0;stroke-opacity:0.8;stroke-width:1.5;"/>
   </g>
   <g id="line2d_12">
    <path clip-path="url(#pea82f1cbd4)" d="M 190.297118 534.96 
L 190.297118 410.22 
" style="fill:none;stroke:#36a2eb;stroke-dasharray:5.55,2.4;stroke-dashoffset:0;stroke-opacity:0.8;stroke-width:1.5;"/>
   </g>
   <g id="patch_10">
    <path d="M 36 534.96 
L 538.2 534.96 
" style="fill:none;stroke:#000000;stroke-linecap:square;stroke-linejoin:miter;stroke-width:0.8;"/>
   </g>
  </g>
 </g>
 <defs>
  <clipPath id="pd270615144">
   <rect height="374.22" width="502.2" x="36" y="36"/>
  </clipPath>
  <clipPath id="pea82f1cbd4">
   <rect height="124.74" width="502.2" x="36" y="410.22"/>
  </clipPath>
 </defs>
</svg>
