<?xml version="1.0" encoding="utf-8" standalone="no"?>
<!DOCTYPE svg PUBLIC "-//W3C//DTD SVG 1.1//EN"
  "http://www.w3.org/Graphics/SVG/1.1/DTD/svg11.dtd">
<!-- Created with matplotlib (https://matplotlib.org/) -->
<svg height="581.789375pt" version="1.1" viewBox="0 0 574.2 581.789375" width="574.2pt" xmlns="http://www.w3.org/2000/svg" xmlns:xlink="http://www.w3.org/1999/xlink">
 <defs>
  <style type="text/css">
*{stroke-linecap:butt;stroke-linejoin:round;}
  </style>
 </defs>
 <g id="figure_1">
  <g id="patch_1">
   <path d="M 0 581.789375 
L 574.2 581.789375 
L 574.2 0 
L 0 0 
z
" style="fill:none;"/>
  </g>
  <g id="axes_1">
   <g id="patch_2">
    <path d="M 36 402.93 
L 538.2 402.93 
L 538.2 36 
L 36 36 
z
" style="fill:none;"/>
   </g>
   <g id="PolyCollection_1">
    <defs>
     <path d="M 105.075248 -195.538011 
L 105.075248 -195.648246 
L 109.219667 -195.689813 
L 113.364086 -195.745695 
L 117.508505 -195.820297 
L 121.652924 -195.919202 
L 125.797343 -196.049408 
L 129.941762 -196.219626 
L 134.086181 -196.440586 
L 138.2306 -196.725397 
L 142.375019 -197.089914 
L 146.519438 -197.553133 
L 150.663857 -198.137585 
L 154.808276 -198.86972 
L 158.952695 -199.780259 
L 163.097114 -200.904487 
L 167.241533 -202.282458 
L 171.385952 -203.959088 
L 175.530371 -205.984082 
L 179.67479 -208.411681 
L 183.819209 -211.300176 
L 187.963628 -214.711161 
L 192.108047 -218.708496 
L 196.252466 -223.35697 
L 200.396885 -228.720632 
L 204.541304 -234.860826 
L 208.685723 -241.833917 
L 212.830142 -249.688783 
L 216.974561 -258.464109 
L 221.11898 -268.18557 
L 225.263399 -278.863014 
L 229.407818 -290.487739 
L 233.552237 -303.030024 
L 237.696656 -316.437021 
L 241.841075 -330.631176 
L 245.985494 -345.509288 
L 250.129913 -360.942344 
L 254.274332 -376.776217 
L 258.418751 -392.833296 
L 262.56317 -408.915078 
L 266.707589 -424.805701 
L 270.852007 -440.276373 
L 274.996426 -455.090576 
L 279.140845 -469.009894 
L 283.285264 -481.800285 
L 287.429683 -493.238559 
L 291.574102 -503.118818 
L 295.718521 -511.258604 
L 299.86294 -517.504497 
L 304.007359 -521.736922 
L 308.151778 -523.873953 
L 312.296197 -523.873953 
L 316.440616 -521.736922 
L 320.585035 -517.504497 
L 324.729454 -511.258604 
L 328.873873 -503.118818 
L 333.018292 -493.238559 
L 337.162711 -481.800285 
L 341.30713 -469.009894 
L 345.451549 -455.090576 
L 349.595968 -440.276373 
L 353.740387 -424.805701 
L 357.884806 -408.915078 
L 362.029225 -392.833296 
L 366.173644 -376.776217 
L 370.318063 -360.942344 
L 374.462482 -345.509288 
L 378.606901 -330.631176 
L 382.75132 -316.437021 
L 386.895739 -303.030024 
L 391.040158 -290.487739 
L 395.184577 -278.863014 
L 399.328996 -268.18557 
L 403.473415 -258.464109 
L 407.617834 -249.688783 
L 411.762253 -241.833917 
L 415.906672 -234.860826 
L 420.051091 -228.720632 
L 424.19551 -223.35697 
L 428.339929 -218.708496 
L 432.484348 -214.711161 
L 436.628767 -211.300176 
L 440.773186 -208.411681 
L 444.917605 -205.984082 
L 449.062024 -203.959088 
L 453.206443 -202.282458 
L 457.350862 -200.904487 
L 461.495281 -199.780259 
L 465.6397 -198.86972 
L 469.784118 -198.137585 
L 473.928537 -197.553133 
L 478.072956 -197.089914 
L 482.217375 -196.725397 
L 486.361794 -196.440586 
L 490.506213 -196.219626 
L 494.650632 -196.049408 
L 498.795051 -195.919202 
L 502.93947 -195.820297 
L 507.083889 -195.745695 
L 511.228308 -195.689813 
L 515.372727 -195.648246 
L 515.372727 -195.538011 
L 515.372727 -195.538011 
L 511.228308 -195.538011 
L 507.083889 -195.538011 
L 502.93947 -195.538011 
L 498.795051 -195.538011 
L 494.650632 -195.538011 
L 490.506213 -195.538011 
L 486.361794 -195.538011 
L 482.217375 -195.538011 
L 478.072956 -195.538011 
L 473.928537 -195.538011 
L 469.784118 -195.538011 
L 465.6397 -195.538011 
L 461.495281 -195.538011 
L 457.350862 -195.538011 
L 453.206443 -195.538011 
L 449.062024 -195.538011 
L 444.917605 -195.538011 
L 440.773186 -195.538011 
L 436.628767 -195.538011 
L 432.484348 -195.538011 
L 428.339929 -195.538011 
L 424.19551 -195.538011 
L 420.051091 -195.538011 
L 415.906672 -195.538011 
L 411.762253 -195.538011 
L 407.617834 -195.538011 
L 403.473415 -195.538011 
L 399.328996 -195.538011 
L 395.184577 -195.538011 
L 391.040158 -195.538011 
L 386.895739 -195.538011 
L 382.75132 -195.538011 
L 378.606901 -195.538011 
L 374.462482 -195.538011 
L 370.318063 -195.538011 
L 366.173644 -195.538011 
L 362.029225 -195.538011 
L 357.884806 -195.538011 
L 353.740387 -195.538011 
L 349.595968 -195.538011 
L 345.451549 -195.538011 
L 341.30713 -195.538011 
L 337.162711 -195.538011 
L 333.018292 -195.538011 
L 328.873873 -195.538011 
L 324.729454 -195.538011 
L 320.585035 -195.538011 
L 316.440616 -195.538011 
L 312.296197 -195.538011 
L 308.151778 -195.538011 
L 304.007359 -195.538011 
L 299.86294 -195.538011 
L 295.718521 -195.538011 
L 291.574102 -195.538011 
L 287.429683 -195.538011 
L 283.285264 -195.538011 
L 279.140845 -195.538011 
L 274.996426 -195.538011 
L 270.852007 -195.538011 
L 266.707589 -195.538011 
L 262.56317 -195.538011 
L 258.418751 -195.538011 
L 254.274332 -195.538011 
L 250.129913 -195.538011 
L 245.985494 -195.538011 
L 241.841075 -195.538011 
L 237.696656 -195.538011 
L 233.552237 -195.538011 
L 229.407818 -195.538011 
L 225.263399 -195.538011 
L 221.11898 -195.538011 
L 216.974561 -195.538011 
L 212.830142 -195.538011 
L 208.685723 -195.538011 
L 204.541304 -195.538011 
L 200.396885 -195.538011 
L 196.252466 -195.538011 
L 192.108047 -195.538011 
L 187.963628 -195.538011 
L 183.819209 -195.538011 
L 179.67479 -195.538011 
L 175.530371 -195.538011 
L 171.385952 -195.538011 
L 167.241533 -195.538011 
L 163.097114 -195.538011 
L 158.952695 -195.538011 
L 154.808276 -195.538011 
L 150.663857 -195.538011 
L 146.519438 -195.538011 
L 142.375019 -195.538011 
L 138.2306 -195.538011 
L 134.086181 -195.538011 
L 129.941762 -195.538011 
L 125.797343 -195.538011 
L 121.652924 -195.538011 
L 117.508505 -195.538011 
L 113.364086 -195.538011 
L 109.219667 -195.538011 
L 105.075248 -195.538011 
z
" id="mf4f85016bd" style="stroke:#ff6384;stroke-opacity:0.5;"/>
    </defs>
    <g clip-path="url(#p6b7f21691b)">
     <use style="fill:#ff6384;fill-opacity:0.5;stroke:#ff6384;stroke-opacity:0.5;" x="0" xlink:href="#mf4f85016bd" y="581.789375"/>
    </g>
   </g>
   <g id="PolyCollection_2">
    <defs>
     <path d="M 58.827273 -195.538011 
L 58.827273 -195.650004 
L 62.906628 -195.692234 
L 66.985984 -195.749007 
L 71.065339 -195.8248 
L 75.144694 -195.925281 
L 79.22405 -196.057565 
L 83.303405 -196.230497 
L 87.382761 -196.454982 
L 91.462116 -196.744335 
L 95.541471 -197.114666 
L 99.620827 -197.585273 
L 103.700182 -198.179047 
L 107.779538 -198.922859 
L 111.858893 -199.847921 
L 115.938248 -200.990079 
L 120.017604 -202.390029 
L 124.096959 -204.093399 
L 128.176315 -206.150691 
L 132.25567 -208.617009 
L 136.335025 -211.551575 
L 140.414381 -215.016962 
L 144.493736 -219.078053 
L 148.573092 -223.800667 
L 152.652447 -229.249878 
L 156.731802 -235.488004 
L 160.811158 -242.572312 
L 164.890513 -250.552459 
L 168.969869 -259.467747 
L 173.049224 -269.344261 
L 177.128579 -280.192004 
L 181.207935 -292.002137 
L 185.28729 -304.744465 
L 189.366646 -318.365297 
L 193.446001 -332.785841 
L 197.525356 -347.901251 
L 201.604712 -363.580456 
L 205.684067 -379.666871 
L 209.763423 -395.980052 
L 213.842778 -412.31833 
L 217.922134 -428.4624 
L 222.001489 -444.179822 
L 226.080844 -459.230303 
L 230.1602 -473.371627 
L 234.239555 -486.366018 
L 238.318911 -497.986726 
L 242.398266 -508.02457 
L 246.477621 -516.294181 
L 250.556977 -522.639693 
L 254.636332 -526.939623 
L 258.715688 -529.110739 
L 262.795043 -529.110739 
L 266.874398 -526.939623 
L 270.953754 -522.639693 
L 275.033109 -516.294181 
L 279.112465 -508.02457 
L 283.19182 -497.986726 
L 287.271175 -486.366018 
L 291.350531 -473.371627 
L 295.429886 -459.230303 
L 299.509242 -444.179822 
L 303.588597 -428.4624 
L 307.667952 -412.31833 
L 311.747308 -395.980052 
L 315.826663 -379.666871 
L 319.906019 -363.580456 
L 323.985374 -347.901251 
L 328.064729 -332.785841 
L 332.144085 -318.365297 
L 336.22344 -304.744465 
L 340.302796 -292.002137 
L 344.382151 -280.192004 
L 348.461506 -269.344261 
L 352.540862 -259.467747 
L 356.620217 -250.552459 
L 360.699573 -242.572312 
L 364.778928 -235.488004 
L 368.858283 -229.249878 
L 372.937639 -223.800667 
L 377.016994 -219.078053 
L 381.09635 -215.016962 
L 385.175705 -211.551575 
L 389.25506 -208.617009 
L 393.334416 -206.150691 
L 397.413771 -204.093399 
L 401.493127 -202.390029 
L 405.572482 -200.990079 
L 409.651838 -199.847921 
L 413.731193 -198.922859 
L 417.810548 -198.179047 
L 421.889904 -197.585273 
L 425.969259 -197.114666 
L 430.048615 -196.744335 
L 434.12797 -196.454982 
L 438.207325 -196.230497 
L 442.286681 -196.057565 
L 446.366036 -195.925281 
L 450.445392 -195.8248 
L 454.524747 -195.749007 
L 458.604102 -195.692234 
L 462.683458 -195.650004 
L 462.683458 -195.538011 
L 462.683458 -195.538011 
L 458.604102 -195.538011 
L 454.524747 -195.538011 
L 450.445392 -195.538011 
L 446.366036 -195.538011 
L 442.286681 -195.538011 
L 438.207325 -195.538011 
L 434.12797 -195.538011 
L 430.048615 -195.538011 
L 425.969259 -195.538011 
L 421.889904 -195.538011 
L 417.810548 -195.538011 
L 413.731193 -195.538011 
L 409.651838 -195.538011 
L 405.572482 -195.538011 
L 401.493127 -195.538011 
L 397.413771 -195.538011 
L 393.334416 -195.538011 
L 389.25506 -195.538011 
L 385.175705 -195.538011 
L 381.09635 -195.538011 
L 377.016994 -195.538011 
L 372.937639 -195.538011 
L 368.858283 -195.538011 
L 364.778928 -195.538011 
L 360.699573 -195.538011 
L 356.620217 -195.538011 
L 352.540862 -195.538011 
L 348.461506 -195.538011 
L 344.382151 -195.538011 
L 340.302796 -195.538011 
L 336.22344 -195.538011 
L 332.144085 -195.538011 
L 328.064729 -195.538011 
L 323.985374 -195.538011 
L 319.906019 -195.538011 
L 315.826663 -195.538011 
L 311.747308 -195.538011 
L 307.667952 -195.538011 
L 303.588597 -195.538011 
L 299.509242 -195.538011 
L 295.429886 -195.538011 
L 291.350531 -195.538011 
L 287.271175 -195.538011 
L 283.19182 -195.538011 
L 279.112465 -195.538011 
L 275.033109 -195.538011 
L 270.953754 -195.538011 
L 266.874398 -195.538011 
L 262.795043 -195.538011 
L 258.715688 -195.538011 
L 254.636332 -195.538011 
L 250.556977 -195.538011 
L 246.477621 -195.538011 
L 242.398266 -195.538011 
L 238.318911 -195.538011 
L 234.239555 -195.538011 
L 230.1602 -195.538011 
L 226.080844 -195.538011 
L 222.001489 -195.538011 
L 217.922134 -195.538011 
L 213.842778 -195.538011 
L 209.763423 -195.538011 
L 205.684067 -195.538011 
L 201.604712 -195.538011 
L 197.525356 -195.538011 
L 193.446001 -195.538011 
L 189.366646 -195.538011 
L 185.28729 -195.538011 
L 181.207935 -195.538011 
L 177.128579 -195.538011 
L 173.049224 -195.538011 
L 168.969869 -195.538011 
L 164.890513 -195.538011 
L 160.811158 -195.538011 
L 156.731802 -195.538011 
L 152.652447 -195.538011 
L 148.573092 -195.538011 
L 144.493736 -195.538011 
L 140.414381 -195.538011 
L 136.335025 -195.538011 
L 132.25567 -195.538011 
L 128.176315 -195.538011 
L 124.096959 -195.538011 
L 120.017604 -195.538011 
L 115.938248 -195.538011 
L 111.858893 -195.538011 
L 107.779538 -195.538011 
L 103.700182 -195.538011 
L 99.620827 -195.538011 
L 95.541471 -195.538011 
L 91.462116 -195.538011 
L 87.382761 -195.538011 
L 83.303405 -195.538011 
L 79.22405 -195.538011 
L 75.144694 -195.538011 
L 71.065339 -195.538011 
L 66.985984 -195.538011 
L 62.906628 -195.538011 
L 58.827273 -195.538011 
z
" id="m92ece1fd00" style="stroke:#36a2eb;stroke-opacity:0.5;"/>
    </defs>
    <g clip-path="url(#p6b7f21691b)">
     <use style="fill:#36a2eb;fill-opacity:0.5;stroke:#36a2eb;stroke-opacity:0.5;" x="0" xlink:href="#m92ece1fd00" y="581.789375"/>
    </g>
   </g>
   <g id="line2d_1">
    <path clip-path="url(#p6b7f21691b)" d="M 105.075248 386.141129 
L 109.219667 386.099562 
L 113.364086 386.04368 
L 117.508505 385.969078 
L 121.652924 385.870173 
L 125.797343 385.739967 
L 129.941762 385.569749 
L 134.086181 385.348789 
L 138.2306 385.063978 
L 142.375019 384.699461 
L 146.519438 384.236242 
L 150.663857 383.65179 
L 154.808276 382.919655 
L 158.952695 382.009116 
L 163.097114 380.884888 
L 167.241533 379.506917 
L 171.385952 377.830287 
L 175.530371 375.805293 
L 179.67479 373.377694 
L 183.819209 370.489199 
L 187.963628 367.078214 
L 192.108047 363.080879 
L 196.252466 358.432405 
L 200.396885 353.068743 
L 204.541304 346.928549 
L 208.685723 339.955458 
L 212.830142 332.100592 
L 216.974561 323.325266 
L 221.11898 313.603805 
L 225.263399 302.926361 
L 229.407818 291.301636 
L 233.552237 278.759351 
L 237.696656 265.352354 
L 241.841075 251.158199 
L 245.985494 236.280087 
L 250.129913 220.847031 
L 254.274332 205.013158 
L 258.418751 188.956079 
L 262.56317 172.874297 
L 266.707589 156.983674 
L 270.852007 141.513002 
L 274.996426 126.698799 
L 279.140845 112.779481 
L 283.285264 99.98909 
L 287.429683 88.550816 
L 291.574102 78.670557 
L 295.718521 70.530771 
L 299.86294 64.284878 
L 304.007359 60.052453 
L 308.151778 57.915422 
L 312.296197 57.915422 
L 316.440616 60.052453 
L 320.585035 64.284878 
L 324.729454 70.530771 
L 328.873873 78.670557 
L 333.018292 88.550816 
L 337.162711 99.98909 
L 341.30713 112.779481 
L 345.451549 126.698799 
L 349.595968 141.513002 
L 353.740387 156.983674 
L 357.884806 172.874297 
L 362.029225 188.956079 
L 366.173644 205.013158 
L 370.318063 220.847031 
L 374.462482 236.280087 
L 378.606901 251.158199 
L 382.75132 265.352354 
L 386.895739 278.759351 
L 391.040158 291.301636 
L 395.184577 302.926361 
L 399.328996 313.603805 
L 403.473415 323.325266 
L 407.617834 332.100592 
L 411.762253 339.955458 
L 415.906672 346.928549 
L 420.051091 353.068743 
L 424.19551 358.432405 
L 428.339929 363.080879 
L 432.484348 367.078214 
L 436.628767 370.489199 
L 440.773186 373.377694 
L 444.917605 375.805293 
L 449.062024 377.830287 
L 453.206443 379.506917 
L 457.350862 380.884888 
L 461.495281 382.009116 
L 465.6397 382.919655 
L 469.784118 383.65179 
L 473.928537 384.236242 
L 478.072956 384.699461 
L 482.217375 385.063978 
L 486.361794 385.348789 
L 490.506213 385.569749 
L 494.650632 385.739967 
L 498.795051 385.870173 
L 502.93947 385.969078 
L 507.083889 386.04368 
L 511.228308 386.099562 
L 515.372727 386.141129 
" style="fill:none;stroke:#ff6384;stroke-linecap:square;"/>
   </g>
   <g id="line2d_2">
    <path clip-path="url(#p6b7f21691b)" d="M 58.827273 386.139371 
L 62.906628 386.097141 
L 66.985984 386.040368 
L 71.065339 385.964575 
L 75.144694 385.864094 
L 79.22405 385.73181 
L 83.303405 385.558878 
L 87.382761 385.334393 
L 91.462116 385.04504 
L 95.541471 384.674709 
L 99.620827 384.204102 
L 103.700182 383.610328 
L 107.779538 382.866516 
L 111.858893 381.941454 
L 115.938248 380.799296 
L 120.017604 379.399346 
L 124.096959 377.695976 
L 128.176315 375.638684 
L 132.25567 373.172366 
L 136.335025 370.2378 
L 140.414381 366.772413 
L 144.493736 362.711322 
L 148.573092 357.988708 
L 152.652447 352.539497 
L 156.731802 346.301371 
L 160.811158 339.217063 
L 164.890513 331.236916 
L 168.969869 322.321628 
L 173.049224 312.445114 
L 177.128579 301.597371 
L 181.207935 289.787238 
L 185.28729 277.04491 
L 189.366646 263.424078 
L 193.446001 249.003534 
L 197.525356 233.888124 
L 201.604712 218.208919 
L 205.684067 202.122504 
L 209.763423 185.809323 
L 213.842778 169.471045 
L 217.922134 153.326975 
L 222.001489 137.609553 
L 226.080844 122.559072 
L 230.1602 108.417748 
L 234.239555 95.423357 
L 238.318911 83.802649 
L 242.398266 73.764805 
L 246.477621 65.495194 
L 250.556977 59.149682 
L 254.636332 54.849752 
L 258.715688 52.678636 
L 262.795043 52.678636 
L 266.874398 54.849752 
L 270.953754 59.149682 
L 275.033109 65.495194 
L 279.112465 73.764805 
L 283.19182 83.802649 
L 287.271175 95.423357 
L 291.350531 108.417748 
L 295.429886 122.559072 
L 299.509242 137.609553 
L 303.588597 153.326975 
L 307.667952 169.471045 
L 311.747308 185.809323 
L 315.826663 202.122504 
L 319.906019 218.208919 
L 323.985374 233.888124 
L 328.064729 249.003534 
L 332.144085 263.424078 
L 336.22344 277.04491 
L 340.302796 289.787238 
L 344.382151 301.597371 
L 348.461506 312.445114 
L 352.540862 322.321628 
L 356.620217 331.236916 
L 360.699573 339.217063 
L 364.778928 346.301371 
L 368.858283 352.539497 
L 372.937639 357.988708 
L 377.016994 362.711322 
L 381.09635 366.772413 
L 385.175705 370.2378 
L 389.25506 373.172366 
L 393.334416 375.638684 
L 397.413771 377.695976 
L 401.493127 379.399346 
L 405.572482 380.799296 
L 409.651838 381.941454 
L 413.731193 382.866516 
L 417.810548 383.610328 
L 421.889904 384.204102 
L 425.969259 384.674709 
L 430.048615 385.04504 
L 434.12797 385.334393 
L 438.207325 385.558878 
L 442.286681 385.73181 
L 446.366036 385.864094 
L 450.445392 385.964575 
L 454.524747 386.040368 
L 458.604102 386.097141 
L 462.683458 386.139371 
" style="fill:none;stroke:#36a2eb;stroke-linecap:square;"/>
   </g>
   <g id="patch_3">
    <path d="M 36 402.93 
L 538.2 402.93 
" style="fill:none;stroke:#000000;stroke-linecap:square;stroke-linejoin:miter;stroke-width:0.8;"/>
   </g>
   <g id="legend_1">
    <g id="patch_4">
     <path d="M 441.707188 88.29875 
L 528.4 88.29875 
Q 531.2 88.29875 531.2 85.49875 
L 531.2 45.8 
Q 531.2 43 528.4 43 
L 441.707188 43 
Q 438.907188 43 438.907188 45.8 
L 438.907188 85.49875 
Q 438.907188 88.29875 441.707188 88.29875 
z
" style="fill:#ffffff;opacity:0.8;stroke:#cccccc;stroke-linejoin:miter;"/>
    </g>
    <g id="patch_5">
     <path d="M 444.507188 59.237813 
L 472.507188 59.237813 
L 472.507188 49.437813 
L 444.507188 49.437813 
z
" style="fill:#ff6384;opacity:0.5;stroke:#ff6384;stroke-linejoin:miter;"/>
    </g>
    <g id="text_1">
     <!-- base -->
     <defs>
      <path d="M 48.6875 27.296875 
Q 48.6875 37.203125 44.609375 42.84375 
Q 40.53125 48.484375 33.40625 48.484375 
Q 26.265625 48.484375 22.1875 42.84375 
Q 18.109375 37.203125 18.109375 27.296875 
Q 18.109375 17.390625 22.1875 11.75 
Q 26.265625 6.109375 33.40625 6.109375 
Q 40.53125 6.109375 44.609375 11.75 
Q 48.6875 17.390625 48.6875 27.296875 
z
M 18.109375 46.390625 
Q 20.953125 51.265625 25.265625 53.625 
Q 29.59375 56 35.59375 56 
Q 45.5625 56 51.78125 48.09375 
Q 58.015625 40.1875 58.015625 27.296875 
Q 58.015625 14.40625 51.78125 6.484375 
Q 45.5625 -1.421875 35.59375 -1.421875 
Q 29.59375 -1.421875 25.265625 0.953125 
Q 20.953125 3.328125 18.109375 8.203125 
L 18.109375 0 
L 9.078125 0 
L 9.078125 75.984375 
L 18.109375 75.984375 
z
" id="DejaVuSans-98"/>
      <path d="M 34.28125 27.484375 
Q 23.390625 27.484375 19.1875 25 
Q 14.984375 22.515625 14.984375 16.5 
Q 14.984375 11.71875 18.140625 8.90625 
Q 21.296875 6.109375 26.703125 6.109375 
Q 34.1875 6.109375 38.703125 11.40625 
Q 43.21875 16.703125 43.21875 25.484375 
L 43.21875 27.484375 
z
M 52.203125 31.203125 
L 52.203125 0 
L 43.21875 0 
L 43.21875 8.296875 
Q 40.140625 3.328125 35.546875 0.953125 
Q 30.953125 -1.421875 24.3125 -1.421875 
Q 15.921875 -1.421875 10.953125 3.296875 
Q 6 8.015625 6 15.921875 
Q 6 25.140625 12.171875 29.828125 
Q 18.359375 34.515625 30.609375 34.515625 
L 43.21875 34.515625 
L 43.21875 35.40625 
Q 43.21875 41.609375 39.140625 45 
Q 35.0625 48.390625 27.6875 48.390625 
Q 23 48.390625 18.546875 47.265625 
Q 14.109375 46.140625 10.015625 43.890625 
L 10.015625 52.203125 
Q 14.9375 54.109375 19.578125 55.046875 
Q 24.21875 56 28.609375 56 
Q 40.484375 56 46.34375 49.84375 
Q 52.203125 43.703125 52.203125 31.203125 
z
" id="DejaVuSans-97"/>
      <path d="M 44.28125 53.078125 
L 44.28125 44.578125 
Q 40.484375 46.53125 36.375 47.5 
Q 32.28125 48.484375 27.875 48.484375 
Q 21.1875 48.484375 17.84375 46.4375 
Q 14.5 44.390625 14.5 40.28125 
Q 14.5 37.15625 16.890625 35.375 
Q 19.28125 33.59375 26.515625 31.984375 
L 29.59375 31.296875 
Q 39.15625 29.25 43.1875 25.515625 
Q 47.21875 21.78125 47.21875 15.09375 
Q 47.21875 7.46875 41.1875 3.015625 
Q 35.15625 -1.421875 24.609375 -1.421875 
Q 20.21875 -1.421875 15.453125 -0.5625 
Q 10.6875 0.296875 5.421875 2 
L 5.421875 11.28125 
Q 10.40625 8.6875 15.234375 7.390625 
Q 20.0625 6.109375 24.8125 6.109375 
Q 31.15625 6.109375 34.5625 8.28125 
Q 37.984375 10.453125 37.984375 14.40625 
Q 37.984375 18.0625 35.515625 20.015625 
Q 33.0625 21.96875 24.703125 23.78125 
L 21.578125 24.515625 
Q 13.234375 26.265625 9.515625 29.90625 
Q 5.8125 33.546875 5.8125 39.890625 
Q 5.8125 47.609375 11.28125 51.796875 
Q 16.75 56 26.8125 56 
Q 31.78125 56 36.171875 55.265625 
Q 40.578125 54.546875 44.28125 53.078125 
z
" id="DejaVuSans-115"/>
      <path d="M 56.203125 29.59375 
L 56.203125 25.203125 
L 14.890625 25.203125 
Q 15.484375 15.921875 20.484375 11.0625 
Q 25.484375 6.203125 34.421875 6.203125 
Q 39.59375 6.203125 44.453125 7.46875 
Q 49.3125 8.734375 54.109375 11.28125 
L 54.109375 2.78125 
Q 49.265625 0.734375 44.1875 -0.34375 
Q 39.109375 -1.421875 33.890625 -1.421875 
Q 20.796875 -1.421875 13.15625 6.1875 
Q 5.515625 13.8125 5.515625 26.8125 
Q 5.515625 40.234375 12.765625 48.109375 
Q 20.015625 56 32.328125 56 
Q 43.359375 56 49.78125 48.890625 
Q 56.203125 41.796875 56.203125 29.59375 
z
M 47.21875 32.234375 
Q 47.125 39.59375 43.09375 43.984375 
Q 39.0625 48.390625 32.421875 48.390625 
Q 24.90625 48.390625 20.390625 44.140625 
Q 15.875 39.890625 15.1875 32.171875 
z
" id="DejaVuSans-101"/>
     </defs>
     <g transform="translate(483.707188 59.237813)scale(0.14 -0.14)">
      <use xlink:href="#DejaVuSans-98"/>
      <use x="63.476562" xlink:href="#DejaVuSans-97"/>
      <use x="124.755859" xlink:href="#DejaVuSans-115"/>
      <use x="176.855469" xlink:href="#DejaVuSans-101"/>
     </g>
    </g>
    <g id="patch_6">
     <path d="M 444.507188 79.787188 
L 472.507188 79.787188 
L 472.507188 69.987188 
L 444.507188 69.987188 
z
" style="fill:#36a2eb;opacity:0.5;stroke:#36a2eb;stroke-linejoin:miter;"/>
    </g>
    <g id="text_2">
     <!-- osago -->
     <defs>
      <path d="M 30.609375 48.390625 
Q 23.390625 48.390625 19.1875 42.75 
Q 14.984375 37.109375 14.984375 27.296875 
Q 14.984375 17.484375 19.15625 11.84375 
Q 23.34375 6.203125 30.609375 6.203125 
Q 37.796875 6.203125 41.984375 11.859375 
Q 46.1875 17.53125 46.1875 27.296875 
Q 46.1875 37.015625 41.984375 42.703125 
Q 37.796875 48.390625 30.609375 48.390625 
z
M 30.609375 56 
Q 42.328125 56 49.015625 48.375 
Q 55.71875 40.765625 55.71875 27.296875 
Q 55.71875 13.875 49.015625 6.21875 
Q 42.328125 -1.421875 30.609375 -1.421875 
Q 18.84375 -1.421875 12.171875 6.21875 
Q 5.515625 13.875 5.515625 27.296875 
Q 5.515625 40.765625 12.171875 48.375 
Q 18.84375 56 30.609375 56 
z
" id="DejaVuSans-111"/>
      <path d="M 45.40625 27.984375 
Q 45.40625 37.75 41.375 43.109375 
Q 37.359375 48.484375 30.078125 48.484375 
Q 22.859375 48.484375 18.828125 43.109375 
Q 14.796875 37.75 14.796875 27.984375 
Q 14.796875 18.265625 18.828125 12.890625 
Q 22.859375 7.515625 30.078125 7.515625 
Q 37.359375 7.515625 41.375 12.890625 
Q 45.40625 18.265625 45.40625 27.984375 
z
M 54.390625 6.78125 
Q 54.390625 -7.171875 48.1875 -13.984375 
Q 42 -20.796875 29.203125 -20.796875 
Q 24.46875 -20.796875 20.265625 -20.09375 
Q 16.0625 -19.390625 12.109375 -17.921875 
L 12.109375 -9.1875 
Q 16.0625 -11.328125 19.921875 -12.34375 
Q 23.78125 -13.375 27.78125 -13.375 
Q 36.625 -13.375 41.015625 -8.765625 
Q 45.40625 -4.15625 45.40625 5.171875 
L 45.40625 9.625 
Q 42.625 4.78125 38.28125 2.390625 
Q 33.9375 0 27.875 0 
Q 17.828125 0 11.671875 7.65625 
Q 5.515625 15.328125 5.515625 27.984375 
Q 5.515625 40.671875 11.671875 48.328125 
Q 17.828125 56 27.875 56 
Q 33.9375 56 38.28125 53.609375 
Q 42.625 51.21875 45.40625 46.390625 
L 45.40625 54.6875 
L 54.390625 54.6875 
z
" id="DejaVuSans-103"/>
     </defs>
     <g transform="translate(483.707188 79.787188)scale(0.14 -0.14)">
      <use xlink:href="#DejaVuSans-111"/>
      <use x="61.181641" xlink:href="#DejaVuSans-115"/>
      <use x="113.28125" xlink:href="#DejaVuSans-97"/>
      <use x="174.560547" xlink:href="#DejaVuSans-103"/>
      <use x="238.037109" xlink:href="#DejaVuSans-111"/>
     </g>
    </g>
   </g>
  </g>
  <g id="axes_2">
   <g id="patch_7">
    <path d="M 36 525.24 
L 538.2 525.24 
L 538.2 402.93 
L 36 402.93 
z
" style="fill:none;"/>
   </g>
   <g id="patch_8">
    <path clip-path="url(#p2cc7fdde6a)" d="M 209.701105 519.680455 
L 410.74687 519.680455 
L 410.74687 482.616818 
L 209.701105 482.616818 
z
" style="fill:#ff6384;opacity:0.5;"/>
   </g>
   <g id="patch_9">
    <path clip-path="url(#p2cc7fdde6a)" d="M 161.8106 445.553182 
L 359.700131 445.553182 
L 359.700131 408.489545 
L 161.8106 408.489545 
z
" style="fill:#36a2eb;opacity:0.5;"/>
   </g>
   <g id="matplotlib.axis_1">
    <g id="xtick_1">
     <g id="line2d_3">
      <defs>
       <path d="M 0 0 
L 0 3.5 
" id="meebe8b584f" style="stroke:#000000;stroke-width:0.8;"/>
      </defs>
      <g>
       <use style="stroke:#000000;stroke-width:0.8;" x="84.081713" xlink:href="#meebe8b584f" y="525.24"/>
      </g>
     </g>
     <g id="text_3">
      <!-- 4.0 -->
      <defs>
       <path d="M 37.796875 64.3125 
L 12.890625 25.390625 
L 37.796875 25.390625 
z
M 35.203125 72.90625 
L 47.609375 72.90625 
L 47.609375 25.390625 
L 58.015625 25.390625 
L 58.015625 17.1875 
L 47.609375 17.1875 
L 47.609375 0 
L 37.796875 0 
L 37.796875 17.1875 
L 4.890625 17.1875 
L 4.890625 26.703125 
z
" id="DejaVuSans-52"/>
       <path d="M 10.6875 12.40625 
L 21 12.40625 
L 21 0 
L 10.6875 0 
z
" id="DejaVuSans-46"/>
       <path d="M 31.78125 66.40625 
Q 24.171875 66.40625 20.328125 58.90625 
Q 16.5 51.421875 16.5 36.375 
Q 16.5 21.390625 20.328125 13.890625 
Q 24.171875 6.390625 31.78125 6.390625 
Q 39.453125 6.390625 43.28125 13.890625 
Q 47.125 21.390625 47.125 36.375 
Q 47.125 51.421875 43.28125 58.90625 
Q 39.453125 66.40625 31.78125 66.40625 
z
M 31.78125 74.21875 
Q 44.046875 74.21875 50.515625 64.515625 
Q 56.984375 54.828125 56.984375 36.375 
Q 56.984375 17.96875 50.515625 8.265625 
Q 44.046875 -1.421875 31.78125 -1.421875 
Q 19.53125 -1.421875 13.0625 8.265625 
Q 6.59375 17.96875 6.59375 36.375 
Q 6.59375 54.828125 13.0625 64.515625 
Q 19.53125 74.21875 31.78125 74.21875 
z
" id="DejaVuSans-48"/>
      </defs>
      <g transform="translate(72.949526 542.877813)scale(0.14 -0.14)">
       <use xlink:href="#DejaVuSans-52"/>
       <use x="63.623047" xlink:href="#DejaVuSans-46"/>
       <use x="95.410156" xlink:href="#DejaVuSans-48"/>
      </g>
     </g>
    </g>
    <g id="xtick_2">
     <g id="line2d_4">
      <g>
       <use style="stroke:#000000;stroke-width:0.8;" x="154.751174" xlink:href="#meebe8b584f" y="525.24"/>
      </g>
     </g>
     <g id="text_4">
      <!-- 4.5 -->
      <defs>
       <path d="M 10.796875 72.90625 
L 49.515625 72.90625 
L 49.515625 64.59375 
L 19.828125 64.59375 
L 19.828125 46.734375 
Q 21.96875 47.46875 24.109375 47.828125 
Q 26.265625 48.1875 28.421875 48.1875 
Q 40.625 48.1875 47.75 41.5 
Q 54.890625 34.8125 54.890625 23.390625 
Q 54.890625 11.625 47.5625 5.09375 
Q 40.234375 -1.421875 26.90625 -1.421875 
Q 22.3125 -1.421875 17.546875 -0.640625 
Q 12.796875 0.140625 7.71875 1.703125 
L 7.71875 11.625 
Q 12.109375 9.234375 16.796875 8.0625 
Q 21.484375 6.890625 26.703125 6.890625 
Q 35.15625 6.890625 40.078125 11.328125 
Q 45.015625 15.765625 45.015625 23.390625 
Q 45.015625 31 40.078125 35.4375 
Q 35.15625 39.890625 26.703125 39.890625 
Q 22.75 39.890625 18.8125 39.015625 
Q 14.890625 38.140625 10.796875 36.28125 
z
" id="DejaVuSans-53"/>
      </defs>
      <g transform="translate(143.618987 542.877813)scale(0.14 -0.14)">
       <use xlink:href="#DejaVuSans-52"/>
       <use x="63.623047" xlink:href="#DejaVuSans-46"/>
       <use x="95.410156" xlink:href="#DejaVuSans-53"/>
      </g>
     </g>
    </g>
    <g id="xtick_3">
     <g id="line2d_5">
      <g>
       <use style="stroke:#000000;stroke-width:0.8;" x="225.420635" xlink:href="#meebe8b584f" y="525.24"/>
      </g>
     </g>
     <g id="text_5">
      <!-- 5.0 -->
      <g transform="translate(214.288447 542.877813)scale(0.14 -0.14)">
       <use xlink:href="#DejaVuSans-53"/>
       <use x="63.623047" xlink:href="#DejaVuSans-46"/>
       <use x="95.410156" xlink:href="#DejaVuSans-48"/>
      </g>
     </g>
    </g>
    <g id="xtick_4">
     <g id="line2d_6">
      <g>
       <use style="stroke:#000000;stroke-width:0.8;" x="296.090096" xlink:href="#meebe8b584f" y="525.24"/>
      </g>
     </g>
     <g id="text_6">
      <!-- 5.5 -->
      <g transform="translate(284.957908 542.877813)scale(0.14 -0.14)">
       <use xlink:href="#DejaVuSans-53"/>
       <use x="63.623047" xlink:href="#DejaVuSans-46"/>
       <use x="95.410156" xlink:href="#DejaVuSans-53"/>
      </g>
     </g>
    </g>
    <g id="xtick_5">
     <g id="line2d_7">
      <g>
       <use style="stroke:#000000;stroke-width:0.8;" x="366.759556" xlink:href="#meebe8b584f" y="525.24"/>
      </g>
     </g>
     <g id="text_7">
      <!-- 6.0 -->
      <defs>
       <path d="M 33.015625 40.375 
Q 26.375 40.375 22.484375 35.828125 
Q 18.609375 31.296875 18.609375 23.390625 
Q 18.609375 15.53125 22.484375 10.953125 
Q 26.375 6.390625 33.015625 6.390625 
Q 39.65625 6.390625 43.53125 10.953125 
Q 47.40625 15.53125 47.40625 23.390625 
Q 47.40625 31.296875 43.53125 35.828125 
Q 39.65625 40.375 33.015625 40.375 
z
M 52.59375 71.296875 
L 52.59375 62.3125 
Q 48.875 64.0625 45.09375 64.984375 
Q 41.3125 65.921875 37.59375 65.921875 
Q 27.828125 65.921875 22.671875 59.328125 
Q 17.53125 52.734375 16.796875 39.40625 
Q 19.671875 43.65625 24.015625 45.921875 
Q 28.375 48.1875 33.59375 48.1875 
Q 44.578125 48.1875 50.953125 41.515625 
Q 57.328125 34.859375 57.328125 23.390625 
Q 57.328125 12.15625 50.6875 5.359375 
Q 44.046875 -1.421875 33.015625 -1.421875 
Q 20.359375 -1.421875 13.671875 8.265625 
Q 6.984375 17.96875 6.984375 36.375 
Q 6.984375 53.65625 15.1875 63.9375 
Q 23.390625 74.21875 37.203125 74.21875 
Q 40.921875 74.21875 44.703125 73.484375 
Q 48.484375 72.75 52.59375 71.296875 
z
" id="DejaVuSans-54"/>
      </defs>
      <g transform="translate(355.627369 542.877813)scale(0.14 -0.14)">
       <use xlink:href="#DejaVuSans-54"/>
       <use x="63.623047" xlink:href="#DejaVuSans-46"/>
       <use x="95.410156" xlink:href="#DejaVuSans-48"/>
      </g>
     </g>
    </g>
    <g id="xtick_6">
     <g id="line2d_8">
      <g>
       <use style="stroke:#000000;stroke-width:0.8;" x="437.429017" xlink:href="#meebe8b584f" y="525.24"/>
      </g>
     </g>
     <g id="text_8">
      <!-- 6.5 -->
      <g transform="translate(426.29683 542.877813)scale(0.14 -0.14)">
       <use xlink:href="#DejaVuSans-54"/>
       <use x="63.623047" xlink:href="#DejaVuSans-46"/>
       <use x="95.410156" xlink:href="#DejaVuSans-53"/>
      </g>
     </g>
    </g>
    <g id="xtick_7">
     <g id="line2d_9">
      <g>
       <use style="stroke:#000000;stroke-width:0.8;" x="508.098478" xlink:href="#meebe8b584f" y="525.24"/>
      </g>
     </g>
     <g id="text_9">
      <!-- 7.0 -->
      <defs>
       <path d="M 8.203125 72.90625 
L 55.078125 72.90625 
L 55.078125 68.703125 
L 28.609375 0 
L 18.3125 0 
L 43.21875 64.59375 
L 8.203125 64.59375 
z
" id="DejaVuSans-55"/>
      </defs>
      <g transform="translate(496.96629 542.877813)scale(0.14 -0.14)">
       <use xlink:href="#DejaVuSans-55"/>
       <use x="63.623047" xlink:href="#DejaVuSans-46"/>
       <use x="95.410156" xlink:href="#DejaVuSans-48"/>
      </g>
     </g>
    </g>
   </g>
   <g id="line2d_10">
    <path clip-path="url(#p2cc7fdde6a)" d="M 310.223988 525.24 
L 310.223988 402.93 
" style="fill:none;stroke:#ff6384;stroke-dasharray:5.55,2.4;stroke-dashoffset:0;stroke-opacity:0.8;stroke-width:1.5;"/>
   </g>
   <g id="line2d_11">
    <path clip-path="url(#p2cc7fdde6a)" d="M 260.755365 525.24 
L 260.755365 402.93 
" style="fill:none;stroke:#36a2eb;stroke-dasharray:5.55,2.4;stroke-dashoffset:0;stroke-opacity:0.8;stroke-width:1.5;"/>
   </g>
   <g id="patch_10">
    <path d="M 36 525.24 
L 538.2 525.24 
" style="fill:none;stroke:#000000;stroke-linecap:square;stroke-linejoin:miter;stroke-width:0.8;"/>
   </g>
  </g>
 </g>
 <defs>
  <clipPath id="p6b7f21691b">
   <rect height="366.93" width="502.2" x="36" y="36"/>
  </clipPath>
  <clipPath id="p2cc7fdde6a">
   <rect height="122.31" width="502.2" x="36" y="402.93"/>
  </clipPath>
 </defs>
</svg>
