<?xml version="1.0" encoding="utf-8" standalone="no"?>
<!DOCTYPE svg PUBLIC "-//W3C//DTD SVG 1.1//EN"
  "http://www.w3.org/Graphics/SVG/1.1/DTD/svg11.dtd">
<!-- Created with matplotlib (https://matplotlib.org/) -->
<svg height="581.789375pt" version="1.1" viewBox="0 0 574.2 581.789375" width="574.2pt" xmlns="http://www.w3.org/2000/svg" xmlns:xlink="http://www.w3.org/1999/xlink">
 <defs>
  <style type="text/css">
*{stroke-linecap:butt;stroke-linejoin:round;}
  </style>
 </defs>
 <g id="figure_1">
  <g id="patch_1">
   <path d="M 0 581.789375 
L 574.2 581.789375 
L 574.2 0 
L 0 0 
z
" style="fill:none;"/>
  </g>
  <g id="axes_1">
   <g id="patch_2">
    <path d="M 36 402.93 
L 538.2 402.93 
L 538.2 36 
L 36 36 
z
" style="fill:none;"/>
   </g>
   <g id="PolyCollection_1">
    <defs>
     <path d="M 133.335467 -195.538011 
L 133.335467 -195.650004 
L 137.194429 -195.692234 
L 141.053392 -195.749007 
L 144.912354 -195.8248 
L 148.771316 -195.925281 
L 152.630278 -196.057565 
L 156.489241 -196.230497 
L 160.348203 -196.454982 
L 164.207165 -196.744335 
L 168.066127 -197.114666 
L 171.925089 -197.585273 
L 175.784052 -198.179047 
L 179.643014 -198.922859 
L 183.501976 -199.847921 
L 187.360938 -200.990079 
L 191.219901 -202.390029 
L 195.078863 -204.093399 
L 198.937825 -206.150691 
L 202.796787 -208.617009 
L 206.655749 -211.551575 
L 210.514712 -215.016962 
L 214.373674 -219.078053 
L 218.232636 -223.800667 
L 222.091598 -229.249878 
L 225.950561 -235.488004 
L 229.809523 -242.572312 
L 233.668485 -250.552459 
L 237.527447 -259.467747 
L 241.386409 -269.344261 
L 245.245372 -280.192004 
L 249.104334 -292.002137 
L 252.963296 -304.744465 
L 256.822258 -318.365297 
L 260.681221 -332.785841 
L 264.540183 -347.901251 
L 268.399145 -363.580456 
L 272.258107 -379.666871 
L 276.117069 -395.980052 
L 279.976032 -412.31833 
L 283.834994 -428.4624 
L 287.693956 -444.179822 
L 291.552918 -459.230303 
L 295.411881 -473.371627 
L 299.270843 -486.366018 
L 303.129805 -497.986726 
L 306.988767 -508.02457 
L 310.847729 -516.294181 
L 314.706692 -522.639693 
L 318.565654 -526.939623 
L 322.424616 -529.110739 
L 326.283578 -529.110739 
L 330.142541 -526.939623 
L 334.001503 -522.639693 
L 337.860465 -516.294181 
L 341.719427 -508.02457 
L 345.578389 -497.986726 
L 349.437352 -486.366018 
L 353.296314 -473.371627 
L 357.155276 -459.230303 
L 361.014238 -444.179822 
L 364.873201 -428.4624 
L 368.732163 -412.31833 
L 372.591125 -395.980052 
L 376.450087 -379.666871 
L 380.309049 -363.580456 
L 384.168012 -347.901251 
L 388.026974 -332.785841 
L 391.885936 -318.365297 
L 395.744898 -304.744465 
L 399.603861 -292.002137 
L 403.462823 -280.192004 
L 407.321785 -269.344261 
L 411.180747 -259.467747 
L 415.039709 -250.552459 
L 418.898672 -242.572312 
L 422.757634 -235.488004 
L 426.616596 -229.249878 
L 430.475558 -223.800667 
L 434.334521 -219.078053 
L 438.193483 -215.016962 
L 442.052445 -211.551575 
L 445.911407 -208.617009 
L 449.770369 -206.150691 
L 453.629332 -204.093399 
L 457.488294 -202.390029 
L 461.347256 -200.990079 
L 465.206218 -199.847921 
L 469.065181 -198.922859 
L 472.924143 -198.179047 
L 476.783105 -197.585273 
L 480.642067 -197.114666 
L 484.501029 -196.744335 
L 488.359992 -196.454982 
L 492.218954 -196.230497 
L 496.077916 -196.057565 
L 499.936878 -195.925281 
L 503.795841 -195.8248 
L 507.654803 -195.749007 
L 511.513765 -195.692234 
L 515.372727 -195.650004 
L 515.372727 -195.538011 
L 515.372727 -195.538011 
L 511.513765 -195.538011 
L 507.654803 -195.538011 
L 503.795841 -195.538011 
L 499.936878 -195.538011 
L 496.077916 -195.538011 
L 492.218954 -195.538011 
L 488.359992 -195.538011 
L 484.501029 -195.538011 
L 480.642067 -195.538011 
L 476.783105 -195.538011 
L 472.924143 -195.538011 
L 469.065181 -195.538011 
L 465.206218 -195.538011 
L 461.347256 -195.538011 
L 457.488294 -195.538011 
L 453.629332 -195.538011 
L 449.770369 -195.538011 
L 445.911407 -195.538011 
L 442.052445 -195.538011 
L 438.193483 -195.538011 
L 434.334521 -195.538011 
L 430.475558 -195.538011 
L 426.616596 -195.538011 
L 422.757634 -195.538011 
L 418.898672 -195.538011 
L 415.039709 -195.538011 
L 411.180747 -195.538011 
L 407.321785 -195.538011 
L 403.462823 -195.538011 
L 399.603861 -195.538011 
L 395.744898 -195.538011 
L 391.885936 -195.538011 
L 388.026974 -195.538011 
L 384.168012 -195.538011 
L 380.309049 -195.538011 
L 376.450087 -195.538011 
L 372.591125 -195.538011 
L 368.732163 -195.538011 
L 364.873201 -195.538011 
L 361.014238 -195.538011 
L 357.155276 -195.538011 
L 353.296314 -195.538011 
L 349.437352 -195.538011 
L 345.578389 -195.538011 
L 341.719427 -195.538011 
L 337.860465 -195.538011 
L 334.001503 -195.538011 
L 330.142541 -195.538011 
L 326.283578 -195.538011 
L 322.424616 -195.538011 
L 318.565654 -195.538011 
L 314.706692 -195.538011 
L 310.847729 -195.538011 
L 306.988767 -195.538011 
L 303.129805 -195.538011 
L 299.270843 -195.538011 
L 295.411881 -195.538011 
L 291.552918 -195.538011 
L 287.693956 -195.538011 
L 283.834994 -195.538011 
L 279.976032 -195.538011 
L 276.117069 -195.538011 
L 272.258107 -195.538011 
L 268.399145 -195.538011 
L 264.540183 -195.538011 
L 260.681221 -195.538011 
L 256.822258 -195.538011 
L 252.963296 -195.538011 
L 249.104334 -195.538011 
L 245.245372 -195.538011 
L 241.386409 -195.538011 
L 237.527447 -195.538011 
L 233.668485 -195.538011 
L 229.809523 -195.538011 
L 225.950561 -195.538011 
L 222.091598 -195.538011 
L 218.232636 -195.538011 
L 214.373674 -195.538011 
L 210.514712 -195.538011 
L 206.655749 -195.538011 
L 202.796787 -195.538011 
L 198.937825 -195.538011 
L 195.078863 -195.538011 
L 191.219901 -195.538011 
L 187.360938 -195.538011 
L 183.501976 -195.538011 
L 179.643014 -195.538011 
L 175.784052 -195.538011 
L 171.925089 -195.538011 
L 168.066127 -195.538011 
L 164.207165 -195.538011 
L 160.348203 -195.538011 
L 156.489241 -195.538011 
L 152.630278 -195.538011 
L 148.771316 -195.538011 
L 144.912354 -195.538011 
L 141.053392 -195.538011 
L 137.194429 -195.538011 
L 133.335467 -195.538011 
z
" id="m856e66607f" style="stroke:#ff6384;stroke-opacity:0.5;"/>
    </defs>
    <g clip-path="url(#p3261e6f481)">
     <use style="fill:#ff6384;fill-opacity:0.5;stroke:#ff6384;stroke-opacity:0.5;" x="0" xlink:href="#m856e66607f" y="581.789375"/>
    </g>
   </g>
   <g id="PolyCollection_2">
    <defs>
     <path d="M 58.827273 -195.538011 
L 58.827273 -195.633844 
L 63.336971 -195.66998 
L 67.846668 -195.718561 
L 72.356366 -195.783417 
L 76.866064 -195.869399 
L 81.375762 -195.982595 
L 85.88546 -196.130573 
L 90.395158 -196.322666 
L 94.904855 -196.570266 
L 99.414553 -196.88716 
L 103.924251 -197.289859 
L 108.433949 -197.797953 
L 112.943647 -198.434436 
L 117.453345 -199.226014 
L 121.963043 -200.203363 
L 126.47274 -201.401303 
L 130.982438 -202.858883 
L 135.492136 -204.619314 
L 140.001834 -206.72975 
L 144.511532 -209.240866 
L 149.02123 -212.206209 
L 153.530927 -215.681297 
L 158.040625 -219.722452 
L 162.550323 -224.385358 
L 167.060021 -229.723342 
L 171.569719 -235.785406 
L 176.079417 -242.614042 
L 180.589115 -250.242881 
L 185.098812 -258.694244 
L 189.60851 -267.976691 
L 194.118208 -278.082659 
L 198.627906 -288.986307 
L 203.137604 -300.641695 
L 207.647302 -312.981399 
L 212.156999 -325.915701 
L 216.666697 -339.332444 
L 221.176395 -353.097639 
L 225.686093 -367.056878 
L 230.195791 -381.037592 
L 234.705489 -394.852122 
L 239.215187 -408.301568 
L 243.724884 -421.180311 
L 248.234582 -433.281085 
L 252.74428 -444.400425 
L 257.253978 -454.344301 
L 261.763676 -462.933714 
L 266.273374 -470.010046 
L 270.783071 -475.43992 
L 275.292769 -479.119383 
L 279.802467 -480.977213 
L 284.312165 -480.977213 
L 288.821863 -479.119383 
L 293.331561 -475.43992 
L 297.841259 -470.010046 
L 302.350956 -462.933714 
L 306.860654 -454.344301 
L 311.370352 -444.400425 
L 315.88005 -433.281085 
L 320.389748 -421.180311 
L 324.899446 -408.301568 
L 329.409143 -394.852122 
L 333.918841 -381.037592 
L 338.428539 -367.056878 
L 342.938237 -353.097639 
L 347.447935 -339.332444 
L 351.957633 -325.915701 
L 356.467331 -312.981399 
L 360.977028 -300.641695 
L 365.486726 -288.986307 
L 369.996424 -278.082659 
L 374.506122 -267.976691 
L 379.01582 -258.694244 
L 383.525518 -250.242881 
L 388.035215 -242.614042 
L 392.544913 -235.785406 
L 397.054611 -229.723342 
L 401.564309 -224.385358 
L 406.074007 -219.722452 
L 410.583705 -215.681297 
L 415.093403 -212.206209 
L 419.6031 -209.240866 
L 424.112798 -206.72975 
L 428.622496 -204.619314 
L 433.132194 -202.858883 
L 437.641892 -201.401303 
L 442.15159 -200.203363 
L 446.661287 -199.226014 
L 451.170985 -198.434436 
L 455.680683 -197.797953 
L 460.190381 -197.289859 
L 464.700079 -196.88716 
L 469.209777 -196.570266 
L 473.719475 -196.322666 
L 478.229172 -196.130573 
L 482.73887 -195.982595 
L 487.248568 -195.869399 
L 491.758266 -195.783417 
L 496.267964 -195.718561 
L 500.777662 -195.66998 
L 505.287359 -195.633844 
L 505.287359 -195.538011 
L 505.287359 -195.538011 
L 500.777662 -195.538011 
L 496.267964 -195.538011 
L 491.758266 -195.538011 
L 487.248568 -195.538011 
L 482.73887 -195.538011 
L 478.229172 -195.538011 
L 473.719475 -195.538011 
L 469.209777 -195.538011 
L 464.700079 -195.538011 
L 460.190381 -195.538011 
L 455.680683 -195.538011 
L 451.170985 -195.538011 
L 446.661287 -195.538011 
L 442.15159 -195.538011 
L 437.641892 -195.538011 
L 433.132194 -195.538011 
L 428.622496 -195.538011 
L 424.112798 -195.538011 
L 419.6031 -195.538011 
L 415.093403 -195.538011 
L 410.583705 -195.538011 
L 406.074007 -195.538011 
L 401.564309 -195.538011 
L 397.054611 -195.538011 
L 392.544913 -195.538011 
L 388.035215 -195.538011 
L 383.525518 -195.538011 
L 379.01582 -195.538011 
L 374.506122 -195.538011 
L 369.996424 -195.538011 
L 365.486726 -195.538011 
L 360.977028 -195.538011 
L 356.467331 -195.538011 
L 351.957633 -195.538011 
L 347.447935 -195.538011 
L 342.938237 -195.538011 
L 338.428539 -195.538011 
L 333.918841 -195.538011 
L 329.409143 -195.538011 
L 324.899446 -195.538011 
L 320.389748 -195.538011 
L 315.88005 -195.538011 
L 311.370352 -195.538011 
L 306.860654 -195.538011 
L 302.350956 -195.538011 
L 297.841259 -195.538011 
L 293.331561 -195.538011 
L 288.821863 -195.538011 
L 284.312165 -195.538011 
L 279.802467 -195.538011 
L 275.292769 -195.538011 
L 270.783071 -195.538011 
L 266.273374 -195.538011 
L 261.763676 -195.538011 
L 257.253978 -195.538011 
L 252.74428 -195.538011 
L 248.234582 -195.538011 
L 243.724884 -195.538011 
L 239.215187 -195.538011 
L 234.705489 -195.538011 
L 230.195791 -195.538011 
L 225.686093 -195.538011 
L 221.176395 -195.538011 
L 216.666697 -195.538011 
L 212.156999 -195.538011 
L 207.647302 -195.538011 
L 203.137604 -195.538011 
L 198.627906 -195.538011 
L 194.118208 -195.538011 
L 189.60851 -195.538011 
L 185.098812 -195.538011 
L 180.589115 -195.538011 
L 176.079417 -195.538011 
L 171.569719 -195.538011 
L 167.060021 -195.538011 
L 162.550323 -195.538011 
L 158.040625 -195.538011 
L 153.530927 -195.538011 
L 149.02123 -195.538011 
L 144.511532 -195.538011 
L 140.001834 -195.538011 
L 135.492136 -195.538011 
L 130.982438 -195.538011 
L 126.47274 -195.538011 
L 121.963043 -195.538011 
L 117.453345 -195.538011 
L 112.943647 -195.538011 
L 108.433949 -195.538011 
L 103.924251 -195.538011 
L 99.414553 -195.538011 
L 94.904855 -195.538011 
L 90.395158 -195.538011 
L 85.88546 -195.538011 
L 81.375762 -195.538011 
L 76.866064 -195.538011 
L 72.356366 -195.538011 
L 67.846668 -195.538011 
L 63.336971 -195.538011 
L 58.827273 -195.538011 
z
" id="m0008915aed" style="stroke:#36a2eb;stroke-opacity:0.5;"/>
    </defs>
    <g clip-path="url(#p3261e6f481)">
     <use style="fill:#36a2eb;fill-opacity:0.5;stroke:#36a2eb;stroke-opacity:0.5;" x="0" xlink:href="#m0008915aed" y="581.789375"/>
    </g>
   </g>
   <g id="line2d_1">
    <path clip-path="url(#p3261e6f481)" d="M 133.335467 386.139371 
L 137.194429 386.097141 
L 141.053392 386.040368 
L 144.912354 385.964575 
L 148.771316 385.864094 
L 152.630278 385.73181 
L 156.489241 385.558878 
L 160.348203 385.334393 
L 164.207165 385.04504 
L 168.066127 384.674709 
L 171.925089 384.204102 
L 175.784052 383.610328 
L 179.643014 382.866516 
L 183.501976 381.941454 
L 187.360938 380.799296 
L 191.219901 379.399346 
L 195.078863 377.695976 
L 198.937825 375.638684 
L 202.796787 373.172366 
L 206.655749 370.2378 
L 210.514712 366.772413 
L 214.373674 362.711322 
L 218.232636 357.988708 
L 222.091598 352.539497 
L 225.950561 346.301371 
L 229.809523 339.217063 
L 233.668485 331.236916 
L 237.527447 322.321628 
L 241.386409 312.445114 
L 245.245372 301.597371 
L 249.104334 289.787238 
L 252.963296 277.04491 
L 256.822258 263.424078 
L 260.681221 249.003534 
L 264.540183 233.888124 
L 268.399145 218.208919 
L 272.258107 202.122504 
L 276.117069 185.809323 
L 279.976032 169.471045 
L 283.834994 153.326975 
L 287.693956 137.609553 
L 291.552918 122.559072 
L 295.411881 108.417748 
L 299.270843 95.423357 
L 303.129805 83.802649 
L 306.988767 73.764805 
L 310.847729 65.495194 
L 314.706692 59.149682 
L 318.565654 54.849752 
L 322.424616 52.678636 
L 326.283578 52.678636 
L 330.142541 54.849752 
L 334.001503 59.149682 
L 337.860465 65.495194 
L 341.719427 73.764805 
L 345.578389 83.802649 
L 349.437352 95.423357 
L 353.296314 108.417748 
L 357.155276 122.559072 
L 361.014238 137.609553 
L 364.873201 153.326975 
L 368.732163 169.471045 
L 372.591125 185.809323 
L 376.450087 202.122504 
L 380.309049 218.208919 
L 384.168012 233.888124 
L 388.026974 249.003534 
L 391.885936 263.424078 
L 395.744898 277.04491 
L 399.603861 289.787238 
L 403.462823 301.597371 
L 407.321785 312.445114 
L 411.180747 322.321628 
L 415.039709 331.236916 
L 418.898672 339.217063 
L 422.757634 346.301371 
L 426.616596 352.539497 
L 430.475558 357.988708 
L 434.334521 362.711322 
L 438.193483 366.772413 
L 442.052445 370.2378 
L 445.911407 373.172366 
L 449.770369 375.638684 
L 453.629332 377.695976 
L 457.488294 379.399346 
L 461.347256 380.799296 
L 465.206218 381.941454 
L 469.065181 382.866516 
L 472.924143 383.610328 
L 476.783105 384.204102 
L 480.642067 384.674709 
L 484.501029 385.04504 
L 488.359992 385.334393 
L 492.218954 385.558878 
L 496.077916 385.73181 
L 499.936878 385.864094 
L 503.795841 385.964575 
L 507.654803 386.040368 
L 511.513765 386.097141 
L 515.372727 386.139371 
" style="fill:none;stroke:#ff6384;stroke-linecap:square;"/>
   </g>
   <g id="line2d_2">
    <path clip-path="url(#p3261e6f481)" d="M 58.827273 386.155531 
L 63.336971 386.119395 
L 67.846668 386.070814 
L 72.356366 386.005958 
L 76.866064 385.919976 
L 81.375762 385.80678 
L 85.88546 385.658802 
L 90.395158 385.466709 
L 94.904855 385.219109 
L 99.414553 384.902215 
L 103.924251 384.499516 
L 108.433949 383.991422 
L 112.943647 383.354939 
L 117.453345 382.563361 
L 121.963043 381.586012 
L 126.47274 380.388072 
L 130.982438 378.930492 
L 135.492136 377.170061 
L 140.001834 375.059625 
L 144.511532 372.548509 
L 149.02123 369.583166 
L 153.530927 366.108078 
L 158.040625 362.066923 
L 162.550323 357.404017 
L 167.060021 352.066033 
L 171.569719 346.003969 
L 176.079417 339.175333 
L 180.589115 331.546494 
L 185.098812 323.095131 
L 189.60851 313.812684 
L 194.118208 303.706716 
L 198.627906 292.803068 
L 203.137604 281.14768 
L 207.647302 268.807976 
L 212.156999 255.873674 
L 216.666697 242.456931 
L 221.176395 228.691736 
L 225.686093 214.732497 
L 230.195791 200.751783 
L 234.705489 186.937253 
L 239.215187 173.487807 
L 243.724884 160.609064 
L 248.234582 148.50829 
L 252.74428 137.38895 
L 257.253978 127.445074 
L 261.763676 118.855661 
L 266.273374 111.779329 
L 270.783071 106.349455 
L 275.292769 102.669992 
L 279.802467 100.812162 
L 284.312165 100.812162 
L 288.821863 102.669992 
L 293.331561 106.349455 
L 297.841259 111.779329 
L 302.350956 118.855661 
L 306.860654 127.445074 
L 311.370352 137.38895 
L 315.88005 148.50829 
L 320.389748 160.609064 
L 324.899446 173.487807 
L 329.409143 186.937253 
L 333.918841 200.751783 
L 338.428539 214.732497 
L 342.938237 228.691736 
L 347.447935 242.456931 
L 351.957633 255.873674 
L 356.467331 268.807976 
L 360.977028 281.14768 
L 365.486726 292.803068 
L 369.996424 303.706716 
L 374.506122 313.812684 
L 379.01582 323.095131 
L 383.525518 331.546494 
L 388.035215 339.175333 
L 392.544913 346.003969 
L 397.054611 352.066033 
L 401.564309 357.404017 
L 406.074007 362.066923 
L 410.583705 366.108078 
L 415.093403 369.583166 
L 419.6031 372.548509 
L 424.112798 375.059625 
L 428.622496 377.170061 
L 433.132194 378.930492 
L 437.641892 380.388072 
L 442.15159 381.586012 
L 446.661287 382.563361 
L 451.170985 383.354939 
L 455.680683 383.991422 
L 460.190381 384.499516 
L 464.700079 384.902215 
L 469.209777 385.219109 
L 473.719475 385.466709 
L 478.229172 385.658802 
L 482.73887 385.80678 
L 487.248568 385.919976 
L 491.758266 386.005958 
L 496.267964 386.070814 
L 500.777662 386.119395 
L 505.287359 386.155531 
" style="fill:none;stroke:#36a2eb;stroke-linecap:square;"/>
   </g>
   <g id="patch_3">
    <path d="M 36 402.93 
L 538.2 402.93 
" style="fill:none;stroke:#000000;stroke-linecap:square;stroke-linejoin:miter;stroke-width:0.8;"/>
   </g>
   <g id="legend_1">
    <g id="patch_4">
     <path d="M 441.707188 88.29875 
L 528.4 88.29875 
Q 531.2 88.29875 531.2 85.49875 
L 531.2 45.8 
Q 531.2 43 528.4 43 
L 441.707188 43 
Q 438.907188 43 438.907188 45.8 
L 438.907188 85.49875 
Q 438.907188 88.29875 441.707188 88.29875 
z
" style="fill:#ffffff;opacity:0.8;stroke:#cccccc;stroke-linejoin:miter;"/>
    </g>
    <g id="patch_5">
     <path d="M 444.507188 59.237813 
L 472.507188 59.237813 
L 472.507188 49.437813 
L 444.507188 49.437813 
z
" style="fill:#ff6384;opacity:0.5;stroke:#ff6384;stroke-linejoin:miter;"/>
    </g>
    <g id="text_1">
     <!-- base -->
     <defs>
      <path d="M 48.6875 27.296875 
Q 48.6875 37.203125 44.609375 42.84375 
Q 40.53125 48.484375 33.40625 48.484375 
Q 26.265625 48.484375 22.1875 42.84375 
Q 18.109375 37.203125 18.109375 27.296875 
Q 18.109375 17.390625 22.1875 11.75 
Q 26.265625 6.109375 33.40625 6.109375 
Q 40.53125 6.109375 44.609375 11.75 
Q 48.6875 17.390625 48.6875 27.296875 
z
M 18.109375 46.390625 
Q 20.953125 51.265625 25.265625 53.625 
Q 29.59375 56 35.59375 56 
Q 45.5625 56 51.78125 48.09375 
Q 58.015625 40.1875 58.015625 27.296875 
Q 58.015625 14.40625 51.78125 6.484375 
Q 45.5625 -1.421875 35.59375 -1.421875 
Q 29.59375 -1.421875 25.265625 0.953125 
Q 20.953125 3.328125 18.109375 8.203125 
L 18.109375 0 
L 9.078125 0 
L 9.078125 75.984375 
L 18.109375 75.984375 
z
" id="DejaVuSans-98"/>
      <path d="M 34.28125 27.484375 
Q 23.390625 27.484375 19.1875 25 
Q 14.984375 22.515625 14.984375 16.5 
Q 14.984375 11.71875 18.140625 8.90625 
Q 21.296875 6.109375 26.703125 6.109375 
Q 34.1875 6.109375 38.703125 11.40625 
Q 43.21875 16.703125 43.21875 25.484375 
L 43.21875 27.484375 
z
M 52.203125 31.203125 
L 52.203125 0 
L 43.21875 0 
L 43.21875 8.296875 
Q 40.140625 3.328125 35.546875 0.953125 
Q 30.953125 -1.421875 24.3125 -1.421875 
Q 15.921875 -1.421875 10.953125 3.296875 
Q 6 8.015625 6 15.921875 
Q 6 25.140625 12.171875 29.828125 
Q 18.359375 34.515625 30.609375 34.515625 
L 43.21875 34.515625 
L 43.21875 35.40625 
Q 43.21875 41.609375 39.140625 45 
Q 35.0625 48.390625 27.6875 48.390625 
Q 23 48.390625 18.546875 47.265625 
Q 14.109375 46.140625 10.015625 43.890625 
L 10.015625 52.203125 
Q 14.9375 54.109375 19.578125 55.046875 
Q 24.21875 56 28.609375 56 
Q 40.484375 56 46.34375 49.84375 
Q 52.203125 43.703125 52.203125 31.203125 
z
" id="DejaVuSans-97"/>
      <path d="M 44.28125 53.078125 
L 44.28125 44.578125 
Q 40.484375 46.53125 36.375 47.5 
Q 32.28125 48.484375 27.875 48.484375 
Q 21.1875 48.484375 17.84375 46.4375 
Q 14.5 44.390625 14.5 40.28125 
Q 14.5 37.15625 16.890625 35.375 
Q 19.28125 33.59375 26.515625 31.984375 
L 29.59375 31.296875 
Q 39.15625 29.25 43.1875 25.515625 
Q 47.21875 21.78125 47.21875 15.09375 
Q 47.21875 7.46875 41.1875 3.015625 
Q 35.15625 -1.421875 24.609375 -1.421875 
Q 20.21875 -1.421875 15.453125 -0.5625 
Q 10.6875 0.296875 5.421875 2 
L 5.421875 11.28125 
Q 10.40625 8.6875 15.234375 7.390625 
Q 20.0625 6.109375 24.8125 6.109375 
Q 31.15625 6.109375 34.5625 8.28125 
Q 37.984375 10.453125 37.984375 14.40625 
Q 37.984375 18.0625 35.515625 20.015625 
Q 33.0625 21.96875 24.703125 23.78125 
L 21.578125 24.515625 
Q 13.234375 26.265625 9.515625 29.90625 
Q 5.8125 33.546875 5.8125 39.890625 
Q 5.8125 47.609375 11.28125 51.796875 
Q 16.75 56 26.8125 56 
Q 31.78125 56 36.171875 55.265625 
Q 40.578125 54.546875 44.28125 53.078125 
z
" id="DejaVuSans-115"/>
      <path d="M 56.203125 29.59375 
L 56.203125 25.203125 
L 14.890625 25.203125 
Q 15.484375 15.921875 20.484375 11.0625 
Q 25.484375 6.203125 34.421875 6.203125 
Q 39.59375 6.203125 44.453125 7.46875 
Q 49.3125 8.734375 54.109375 11.28125 
L 54.109375 2.78125 
Q 49.265625 0.734375 44.1875 -0.34375 
Q 39.109375 -1.421875 33.890625 -1.421875 
Q 20.796875 -1.421875 13.15625 6.1875 
Q 5.515625 13.8125 5.515625 26.8125 
Q 5.515625 40.234375 12.765625 48.109375 
Q 20.015625 56 32.328125 56 
Q 43.359375 56 49.78125 48.890625 
Q 56.203125 41.796875 56.203125 29.59375 
z
M 47.21875 32.234375 
Q 47.125 39.59375 43.09375 43.984375 
Q 39.0625 48.390625 32.421875 48.390625 
Q 24.90625 48.390625 20.390625 44.140625 
Q 15.875 39.890625 15.1875 32.171875 
z
" id="DejaVuSans-101"/>
     </defs>
     <g transform="translate(483.707188 59.237813)scale(0.14 -0.14)">
      <use xlink:href="#DejaVuSans-98"/>
      <use x="63.476562" xlink:href="#DejaVuSans-97"/>
      <use x="124.755859" xlink:href="#DejaVuSans-115"/>
      <use x="176.855469" xlink:href="#DejaVuSans-101"/>
     </g>
    </g>
    <g id="patch_6">
     <path d="M 444.507188 79.787188 
L 472.507188 79.787188 
L 472.507188 69.987188 
L 444.507188 69.987188 
z
" style="fill:#36a2eb;opacity:0.5;stroke:#36a2eb;stroke-linejoin:miter;"/>
    </g>
    <g id="text_2">
     <!-- osago -->
     <defs>
      <path d="M 30.609375 48.390625 
Q 23.390625 48.390625 19.1875 42.75 
Q 14.984375 37.109375 14.984375 27.296875 
Q 14.984375 17.484375 19.15625 11.84375 
Q 23.34375 6.203125 30.609375 6.203125 
Q 37.796875 6.203125 41.984375 11.859375 
Q 46.1875 17.53125 46.1875 27.296875 
Q 46.1875 37.015625 41.984375 42.703125 
Q 37.796875 48.390625 30.609375 48.390625 
z
M 30.609375 56 
Q 42.328125 56 49.015625 48.375 
Q 55.71875 40.765625 55.71875 27.296875 
Q 55.71875 13.875 49.015625 6.21875 
Q 42.328125 -1.421875 30.609375 -1.421875 
Q 18.84375 -1.421875 12.171875 6.21875 
Q 5.515625 13.875 5.515625 27.296875 
Q 5.515625 40.765625 12.171875 48.375 
Q 18.84375 56 30.609375 56 
z
" id="DejaVuSans-111"/>
      <path d="M 45.40625 27.984375 
Q 45.40625 37.75 41.375 43.109375 
Q 37.359375 48.484375 30.078125 48.484375 
Q 22.859375 48.484375 18.828125 43.109375 
Q 14.796875 37.75 14.796875 27.984375 
Q 14.796875 18.265625 18.828125 12.890625 
Q 22.859375 7.515625 30.078125 7.515625 
Q 37.359375 7.515625 41.375 12.890625 
Q 45.40625 18.265625 45.40625 27.984375 
z
M 54.390625 6.78125 
Q 54.390625 -7.171875 48.1875 -13.984375 
Q 42 -20.796875 29.203125 -20.796875 
Q 24.46875 -20.796875 20.265625 -20.09375 
Q 16.0625 -19.390625 12.109375 -17.921875 
L 12.109375 -9.1875 
Q 16.0625 -11.328125 19.921875 -12.34375 
Q 23.78125 -13.375 27.78125 -13.375 
Q 36.625 -13.375 41.015625 -8.765625 
Q 45.40625 -4.15625 45.40625 5.171875 
L 45.40625 9.625 
Q 42.625 4.78125 38.28125 2.390625 
Q 33.9375 0 27.875 0 
Q 17.828125 0 11.671875 7.65625 
Q 5.515625 15.328125 5.515625 27.984375 
Q 5.515625 40.671875 11.671875 48.328125 
Q 17.828125 56 27.875 56 
Q 33.9375 56 38.28125 53.609375 
Q 42.625 51.21875 45.40625 46.390625 
L 45.40625 54.6875 
L 54.390625 54.6875 
z
" id="DejaVuSans-103"/>
     </defs>
     <g transform="translate(483.707188 79.787188)scale(0.14 -0.14)">
      <use xlink:href="#DejaVuSans-111"/>
      <use x="61.181641" xlink:href="#DejaVuSans-115"/>
      <use x="113.28125" xlink:href="#DejaVuSans-97"/>
      <use x="174.560547" xlink:href="#DejaVuSans-103"/>
      <use x="238.037109" xlink:href="#DejaVuSans-111"/>
     </g>
    </g>
   </g>
  </g>
  <g id="axes_2">
   <g id="patch_7">
    <path d="M 36 525.24 
L 538.2 525.24 
L 538.2 402.93 
L 36 402.93 
z
" style="fill:none;"/>
   </g>
   <g id="patch_8">
    <path clip-path="url(#pba8382f056)" d="M 230.754969 519.680455 
L 417.953226 519.680455 
L 417.953226 482.616818 
L 230.754969 482.616818 
z
" style="fill:#ff6384;opacity:0.5;"/>
   </g>
   <g id="patch_9">
    <path clip-path="url(#pba8382f056)" d="M 172.674595 445.553182 
L 391.440037 445.553182 
L 391.440037 408.489545 
L 172.674595 408.489545 
z
" style="fill:#36a2eb;opacity:0.5;"/>
   </g>
   <g id="matplotlib.axis_1">
    <g id="xtick_1">
     <g id="line2d_3">
      <defs>
       <path d="M 0 0 
L 0 3.5 
" id="m2294f33b98" style="stroke:#000000;stroke-width:0.8;"/>
      </defs>
      <g>
       <use style="stroke:#000000;stroke-width:0.8;" x="51.738812" xlink:href="#m2294f33b98" y="525.24"/>
      </g>
     </g>
     <g id="text_3">
      <!-- 26 -->
      <defs>
       <path d="M 19.1875 8.296875 
L 53.609375 8.296875 
L 53.609375 0 
L 7.328125 0 
L 7.328125 8.296875 
Q 12.9375 14.109375 22.625 23.890625 
Q 32.328125 33.6875 34.8125 36.53125 
Q 39.546875 41.84375 41.421875 45.53125 
Q 43.3125 49.21875 43.3125 52.78125 
Q 43.3125 58.59375 39.234375 62.25 
Q 35.15625 65.921875 28.609375 65.921875 
Q 23.96875 65.921875 18.8125 64.3125 
Q 13.671875 62.703125 7.8125 59.421875 
L 7.8125 69.390625 
Q 13.765625 71.78125 18.9375 73 
Q 24.125 74.21875 28.421875 74.21875 
Q 39.75 74.21875 46.484375 68.546875 
Q 53.21875 62.890625 53.21875 53.421875 
Q 53.21875 48.921875 51.53125 44.890625 
Q 49.859375 40.875 45.40625 35.40625 
Q 44.1875 33.984375 37.640625 27.21875 
Q 31.109375 20.453125 19.1875 8.296875 
z
" id="DejaVuSans-50"/>
       <path d="M 33.015625 40.375 
Q 26.375 40.375 22.484375 35.828125 
Q 18.609375 31.296875 18.609375 23.390625 
Q 18.609375 15.53125 22.484375 10.953125 
Q 26.375 6.390625 33.015625 6.390625 
Q 39.65625 6.390625 43.53125 10.953125 
Q 47.40625 15.53125 47.40625 23.390625 
Q 47.40625 31.296875 43.53125 35.828125 
Q 39.65625 40.375 33.015625 40.375 
z
M 52.59375 71.296875 
L 52.59375 62.3125 
Q 48.875 64.0625 45.09375 64.984375 
Q 41.3125 65.921875 37.59375 65.921875 
Q 27.828125 65.921875 22.671875 59.328125 
Q 17.53125 52.734375 16.796875 39.40625 
Q 19.671875 43.65625 24.015625 45.921875 
Q 28.375 48.1875 33.59375 48.1875 
Q 44.578125 48.1875 50.953125 41.515625 
Q 57.328125 34.859375 57.328125 23.390625 
Q 57.328125 12.15625 50.6875 5.359375 
Q 44.046875 -1.421875 33.015625 -1.421875 
Q 20.359375 -1.421875 13.671875 8.265625 
Q 6.984375 17.96875 6.984375 36.375 
Q 6.984375 53.65625 15.1875 63.9375 
Q 23.390625 74.21875 37.203125 74.21875 
Q 40.921875 74.21875 44.703125 73.484375 
Q 48.484375 72.75 52.59375 71.296875 
z
" id="DejaVuSans-54"/>
      </defs>
      <g transform="translate(42.831312 542.877813)scale(0.14 -0.14)">
       <use xlink:href="#DejaVuSans-50"/>
       <use x="63.623047" xlink:href="#DejaVuSans-54"/>
      </g>
     </g>
    </g>
    <g id="xtick_2">
     <g id="line2d_4">
      <g>
       <use style="stroke:#000000;stroke-width:0.8;" x="161.657682" xlink:href="#m2294f33b98" y="525.24"/>
      </g>
     </g>
     <g id="text_4">
      <!-- 28 -->
      <defs>
       <path d="M 31.78125 34.625 
Q 24.75 34.625 20.71875 30.859375 
Q 16.703125 27.09375 16.703125 20.515625 
Q 16.703125 13.921875 20.71875 10.15625 
Q 24.75 6.390625 31.78125 6.390625 
Q 38.8125 6.390625 42.859375 10.171875 
Q 46.921875 13.96875 46.921875 20.515625 
Q 46.921875 27.09375 42.890625 30.859375 
Q 38.875 34.625 31.78125 34.625 
z
M 21.921875 38.8125 
Q 15.578125 40.375 12.03125 44.71875 
Q 8.5 49.078125 8.5 55.328125 
Q 8.5 64.0625 14.71875 69.140625 
Q 20.953125 74.21875 31.78125 74.21875 
Q 42.671875 74.21875 48.875 69.140625 
Q 55.078125 64.0625 55.078125 55.328125 
Q 55.078125 49.078125 51.53125 44.71875 
Q 48 40.375 41.703125 38.8125 
Q 48.828125 37.15625 52.796875 32.3125 
Q 56.78125 27.484375 56.78125 20.515625 
Q 56.78125 9.90625 50.3125 4.234375 
Q 43.84375 -1.421875 31.78125 -1.421875 
Q 19.734375 -1.421875 13.25 4.234375 
Q 6.78125 9.90625 6.78125 20.515625 
Q 6.78125 27.484375 10.78125 32.3125 
Q 14.796875 37.15625 21.921875 38.8125 
z
M 18.3125 54.390625 
Q 18.3125 48.734375 21.84375 45.5625 
Q 25.390625 42.390625 31.78125 42.390625 
Q 38.140625 42.390625 41.71875 45.5625 
Q 45.3125 48.734375 45.3125 54.390625 
Q 45.3125 60.0625 41.71875 63.234375 
Q 38.140625 66.40625 31.78125 66.40625 
Q 25.390625 66.40625 21.84375 63.234375 
Q 18.3125 60.0625 18.3125 54.390625 
z
" id="DejaVuSans-56"/>
      </defs>
      <g transform="translate(152.750182 542.877813)scale(0.14 -0.14)">
       <use xlink:href="#DejaVuSans-50"/>
       <use x="63.623047" xlink:href="#DejaVuSans-56"/>
      </g>
     </g>
    </g>
    <g id="xtick_3">
     <g id="line2d_5">
      <g>
       <use style="stroke:#000000;stroke-width:0.8;" x="271.576552" xlink:href="#m2294f33b98" y="525.24"/>
      </g>
     </g>
     <g id="text_5">
      <!-- 30 -->
      <defs>
       <path d="M 40.578125 39.3125 
Q 47.65625 37.796875 51.625 33 
Q 55.609375 28.21875 55.609375 21.1875 
Q 55.609375 10.40625 48.1875 4.484375 
Q 40.765625 -1.421875 27.09375 -1.421875 
Q 22.515625 -1.421875 17.65625 -0.515625 
Q 12.796875 0.390625 7.625 2.203125 
L 7.625 11.71875 
Q 11.71875 9.328125 16.59375 8.109375 
Q 21.484375 6.890625 26.8125 6.890625 
Q 36.078125 6.890625 40.9375 10.546875 
Q 45.796875 14.203125 45.796875 21.1875 
Q 45.796875 27.640625 41.28125 31.265625 
Q 36.765625 34.90625 28.71875 34.90625 
L 20.21875 34.90625 
L 20.21875 43.015625 
L 29.109375 43.015625 
Q 36.375 43.015625 40.234375 45.921875 
Q 44.09375 48.828125 44.09375 54.296875 
Q 44.09375 59.90625 40.109375 62.90625 
Q 36.140625 65.921875 28.71875 65.921875 
Q 24.65625 65.921875 20.015625 65.03125 
Q 15.375 64.15625 9.8125 62.3125 
L 9.8125 71.09375 
Q 15.4375 72.65625 20.34375 73.4375 
Q 25.25 74.21875 29.59375 74.21875 
Q 40.828125 74.21875 47.359375 69.109375 
Q 53.90625 64.015625 53.90625 55.328125 
Q 53.90625 49.265625 50.4375 45.09375 
Q 46.96875 40.921875 40.578125 39.3125 
z
" id="DejaVuSans-51"/>
       <path d="M 31.78125 66.40625 
Q 24.171875 66.40625 20.328125 58.90625 
Q 16.5 51.421875 16.5 36.375 
Q 16.5 21.390625 20.328125 13.890625 
Q 24.171875 6.390625 31.78125 6.390625 
Q 39.453125 6.390625 43.28125 13.890625 
Q 47.125 21.390625 47.125 36.375 
Q 47.125 51.421875 43.28125 58.90625 
Q 39.453125 66.40625 31.78125 66.40625 
z
M 31.78125 74.21875 
Q 44.046875 74.21875 50.515625 64.515625 
Q 56.984375 54.828125 56.984375 36.375 
Q 56.984375 17.96875 50.515625 8.265625 
Q 44.046875 -1.421875 31.78125 -1.421875 
Q 19.53125 -1.421875 13.0625 8.265625 
Q 6.59375 17.96875 6.59375 36.375 
Q 6.59375 54.828125 13.0625 64.515625 
Q 19.53125 74.21875 31.78125 74.21875 
z
" id="DejaVuSans-48"/>
      </defs>
      <g transform="translate(262.669052 542.877813)scale(0.14 -0.14)">
       <use xlink:href="#DejaVuSans-51"/>
       <use x="63.623047" xlink:href="#DejaVuSans-48"/>
      </g>
     </g>
    </g>
    <g id="xtick_4">
     <g id="line2d_6">
      <g>
       <use style="stroke:#000000;stroke-width:0.8;" x="381.495422" xlink:href="#m2294f33b98" y="525.24"/>
      </g>
     </g>
     <g id="text_6">
      <!-- 32 -->
      <g transform="translate(372.587922 542.877813)scale(0.14 -0.14)">
       <use xlink:href="#DejaVuSans-51"/>
       <use x="63.623047" xlink:href="#DejaVuSans-50"/>
      </g>
     </g>
    </g>
    <g id="xtick_5">
     <g id="line2d_7">
      <g>
       <use style="stroke:#000000;stroke-width:0.8;" x="491.414292" xlink:href="#m2294f33b98" y="525.24"/>
      </g>
     </g>
     <g id="text_7">
      <!-- 34 -->
      <defs>
       <path d="M 37.796875 64.3125 
L 12.890625 25.390625 
L 37.796875 25.390625 
z
M 35.203125 72.90625 
L 47.609375 72.90625 
L 47.609375 25.390625 
L 58.015625 25.390625 
L 58.015625 17.1875 
L 47.609375 17.1875 
L 47.609375 0 
L 37.796875 0 
L 37.796875 17.1875 
L 4.890625 17.1875 
L 4.890625 26.703125 
z
" id="DejaVuSans-52"/>
      </defs>
      <g transform="translate(482.506792 542.877813)scale(0.14 -0.14)">
       <use xlink:href="#DejaVuSans-51"/>
       <use x="63.623047" xlink:href="#DejaVuSans-52"/>
      </g>
     </g>
    </g>
   </g>
   <g id="line2d_8">
    <path clip-path="url(#pba8382f056)" d="M 324.354097 525.24 
L 324.354097 402.93 
" style="fill:none;stroke:#ff6384;stroke-dasharray:5.55,2.4;stroke-dashoffset:0;stroke-opacity:0.8;stroke-width:1.5;"/>
   </g>
   <g id="line2d_9">
    <path clip-path="url(#pba8382f056)" d="M 282.057316 525.24 
L 282.057316 402.93 
" style="fill:none;stroke:#36a2eb;stroke-dasharray:5.55,2.4;stroke-dashoffset:0;stroke-opacity:0.8;stroke-width:1.5;"/>
   </g>
   <g id="patch_10">
    <path d="M 36 525.24 
L 538.2 525.24 
" style="fill:none;stroke:#000000;stroke-linecap:square;stroke-linejoin:miter;stroke-width:0.8;"/>
   </g>
  </g>
 </g>
 <defs>
  <clipPath id="p3261e6f481">
   <rect height="366.93" width="502.2" x="36" y="36"/>
  </clipPath>
  <clipPath id="pba8382f056">
   <rect height="122.31" width="502.2" x="36" y="402.93"/>
  </clipPath>
 </defs>
</svg>
