<?xml version="1.0" encoding="utf-8" standalone="no"?>
<!DOCTYPE svg PUBLIC "-//W3C//DTD SVG 1.1//EN"
  "http://www.w3.org/Graphics/SVG/1.1/DTD/svg11.dtd">
<!-- Created with matplotlib (https://matplotlib.org/) -->
<svg height="591.509375pt" version="1.1" viewBox="0 0 574.2 591.509375" width="574.2pt" xmlns="http://www.w3.org/2000/svg" xmlns:xlink="http://www.w3.org/1999/xlink">
 <defs>
  <style type="text/css">
*{stroke-linecap:butt;stroke-linejoin:round;}
  </style>
 </defs>
 <g id="figure_1">
  <g id="patch_1">
   <path d="M 0 591.509375 
L 574.2 591.509375 
L 574.2 0 
L 0 0 
z
" style="fill:none;"/>
  </g>
  <g id="axes_1">
   <g id="patch_2">
    <path d="M 36 410.22 
L 538.2 410.22 
L 538.2 36 
L 36 36 
z
" style="fill:none;"/>
   </g>
   <g id="PolyCollection_1">
    <defs>
     <path d="M 105.075248 -198.299375 
L 105.075248 -198.411799 
L 109.219667 -198.454193 
L 113.364086 -198.511184 
L 117.508505 -198.587269 
L 121.652924 -198.688139 
L 125.797343 -198.820932 
L 129.941762 -198.994531 
L 134.086181 -199.219882 
L 138.2306 -199.510351 
L 142.375019 -199.88211 
L 146.519438 -200.354532 
L 150.663857 -200.950596 
L 154.808276 -201.697277 
L 158.952695 -202.625906 
L 163.097114 -203.772469 
L 167.241533 -205.177817 
L 171.385952 -206.887757 
L 175.530371 -208.952983 
L 179.67479 -211.428813 
L 183.819209 -214.374695 
L 187.963628 -217.853448 
L 192.108047 -221.9302 
L 196.252466 -226.671028 
L 200.396885 -232.141253 
L 204.541304 -238.403437 
L 208.685723 -245.515067 
L 212.830142 -253.52599 
L 216.974561 -262.47566 
L 221.11898 -272.390263 
L 225.263399 -283.279841 
L 229.407818 -295.135521 
L 233.552237 -307.92699 
L 237.696656 -321.600352 
L 241.841075 -336.07651 
L 245.985494 -351.250213 
L 250.129913 -366.989886 
L 254.274332 -383.138339 
L 258.418751 -399.514434 
L 262.56317 -415.915721 
L 266.707589 -432.122052 
L 270.852007 -447.900089 
L 274.996426 -463.008613 
L 279.140845 -477.204474 
L 283.285264 -490.248979 
L 287.429683 -501.914503 
L 291.574102 -511.991058 
L 295.718521 -520.292562 
L 299.86294 -526.662546 
L 304.007359 -530.979059 
L 308.151778 -533.158547 
L 312.296197 -533.158547 
L 316.440616 -530.979059 
L 320.585035 -526.662546 
L 324.729454 -520.292562 
L 328.873873 -511.991058 
L 333.018292 -501.914503 
L 337.162711 -490.248979 
L 341.30713 -477.204474 
L 345.451549 -463.008613 
L 349.595968 -447.900089 
L 353.740387 -432.122052 
L 357.884806 -415.915721 
L 362.029225 -399.514434 
L 366.173644 -383.138339 
L 370.318063 -366.989886 
L 374.462482 -351.250213 
L 378.606901 -336.07651 
L 382.75132 -321.600352 
L 386.895739 -307.92699 
L 391.040158 -295.135521 
L 395.184577 -283.279841 
L 399.328996 -272.390263 
L 403.473415 -262.47566 
L 407.617834 -253.52599 
L 411.762253 -245.515067 
L 415.906672 -238.403437 
L 420.051091 -232.141253 
L 424.19551 -226.671028 
L 428.339929 -221.9302 
L 432.484348 -217.853448 
L 436.628767 -214.374695 
L 440.773186 -211.428813 
L 444.917605 -208.952983 
L 449.062024 -206.887757 
L 453.206443 -205.177817 
L 457.350862 -203.772469 
L 461.495281 -202.625906 
L 465.6397 -201.697277 
L 469.784118 -200.950596 
L 473.928537 -200.354532 
L 478.072956 -199.88211 
L 482.217375 -199.510351 
L 486.361794 -199.219882 
L 490.506213 -198.994531 
L 494.650632 -198.820932 
L 498.795051 -198.688139 
L 502.93947 -198.587269 
L 507.083889 -198.511184 
L 511.228308 -198.454193 
L 515.372727 -198.411799 
L 515.372727 -198.299375 
L 515.372727 -198.299375 
L 511.228308 -198.299375 
L 507.083889 -198.299375 
L 502.93947 -198.299375 
L 498.795051 -198.299375 
L 494.650632 -198.299375 
L 490.506213 -198.299375 
L 486.361794 -198.299375 
L 482.217375 -198.299375 
L 478.072956 -198.299375 
L 473.928537 -198.299375 
L 469.784118 -198.299375 
L 465.6397 -198.299375 
L 461.495281 -198.299375 
L 457.350862 -198.299375 
L 453.206443 -198.299375 
L 449.062024 -198.299375 
L 444.917605 -198.299375 
L 440.773186 -198.299375 
L 436.628767 -198.299375 
L 432.484348 -198.299375 
L 428.339929 -198.299375 
L 424.19551 -198.299375 
L 420.051091 -198.299375 
L 415.906672 -198.299375 
L 411.762253 -198.299375 
L 407.617834 -198.299375 
L 403.473415 -198.299375 
L 399.328996 -198.299375 
L 395.184577 -198.299375 
L 391.040158 -198.299375 
L 386.895739 -198.299375 
L 382.75132 -198.299375 
L 378.606901 -198.299375 
L 374.462482 -198.299375 
L 370.318063 -198.299375 
L 366.173644 -198.299375 
L 362.029225 -198.299375 
L 357.884806 -198.299375 
L 353.740387 -198.299375 
L 349.595968 -198.299375 
L 345.451549 -198.299375 
L 341.30713 -198.299375 
L 337.162711 -198.299375 
L 333.018292 -198.299375 
L 328.873873 -198.299375 
L 324.729454 -198.299375 
L 320.585035 -198.299375 
L 316.440616 -198.299375 
L 312.296197 -198.299375 
L 308.151778 -198.299375 
L 304.007359 -198.299375 
L 299.86294 -198.299375 
L 295.718521 -198.299375 
L 291.574102 -198.299375 
L 287.429683 -198.299375 
L 283.285264 -198.299375 
L 279.140845 -198.299375 
L 274.996426 -198.299375 
L 270.852007 -198.299375 
L 266.707589 -198.299375 
L 262.56317 -198.299375 
L 258.418751 -198.299375 
L 254.274332 -198.299375 
L 250.129913 -198.299375 
L 245.985494 -198.299375 
L 241.841075 -198.299375 
L 237.696656 -198.299375 
L 233.552237 -198.299375 
L 229.407818 -198.299375 
L 225.263399 -198.299375 
L 221.11898 -198.299375 
L 216.974561 -198.299375 
L 212.830142 -198.299375 
L 208.685723 -198.299375 
L 204.541304 -198.299375 
L 200.396885 -198.299375 
L 196.252466 -198.299375 
L 192.108047 -198.299375 
L 187.963628 -198.299375 
L 183.819209 -198.299375 
L 179.67479 -198.299375 
L 175.530371 -198.299375 
L 171.385952 -198.299375 
L 167.241533 -198.299375 
L 163.097114 -198.299375 
L 158.952695 -198.299375 
L 154.808276 -198.299375 
L 150.663857 -198.299375 
L 146.519438 -198.299375 
L 142.375019 -198.299375 
L 138.2306 -198.299375 
L 134.086181 -198.299375 
L 129.941762 -198.299375 
L 125.797343 -198.299375 
L 121.652924 -198.299375 
L 117.508505 -198.299375 
L 113.364086 -198.299375 
L 109.219667 -198.299375 
L 105.075248 -198.299375 
z
" id="m331d4047b8" style="stroke:#ff6384;stroke-opacity:0.5;"/>
    </defs>
    <g clip-path="url(#pa64f389b62)">
     <use style="fill:#ff6384;fill-opacity:0.5;stroke:#ff6384;stroke-opacity:0.5;" x="0" xlink:href="#m331d4047b8" y="591.509375"/>
    </g>
   </g>
   <g id="PolyCollection_2">
    <defs>
     <path d="M 58.827273 -198.299375 
L 58.827273 -198.413593 
L 62.906628 -198.456662 
L 66.985984 -198.514563 
L 71.065339 -198.591861 
L 75.144694 -198.694339 
L 79.22405 -198.829251 
L 83.303405 -199.005619 
L 87.382761 -199.234563 
L 91.462116 -199.529665 
L 95.541471 -199.907354 
L 99.620827 -200.387311 
L 103.700182 -200.992881 
L 107.779538 -201.751471 
L 111.858893 -202.694912 
L 115.938248 -203.859762 
L 120.017604 -205.287525 
L 124.096959 -207.024738 
L 128.176315 -209.122902 
L 132.25567 -211.638221 
L 136.335025 -214.631088 
L 140.414381 -218.165325 
L 144.493736 -222.3071 
L 148.573092 -227.123541 
L 152.652447 -232.681014 
L 156.731802 -239.043076 
L 160.811158 -246.268132 
L 164.890513 -254.406825 
L 168.969869 -263.499238 
L 173.049224 -273.571974 
L 177.128579 -284.635235 
L 181.207935 -296.680007 
L 185.28729 -309.675493 
L 189.366646 -323.566938 
L 193.446001 -338.273983 
L 197.525356 -353.689699 
L 201.604712 -369.680411 
L 205.684067 -386.086424 
L 209.763423 -402.723708 
L 213.842778 -419.386587 
L 217.922134 -435.8514 
L 222.001489 -451.881089 
L 226.080844 -467.230586 
L 230.1602 -481.652863 
L 234.239555 -494.905422 
L 238.318911 -506.757005 
L 242.398266 -516.994276 
L 246.477621 -525.428184 
L 250.556977 -531.899766 
L 254.636332 -536.285125 
L 258.715688 -538.499375 
L 262.795043 -538.499375 
L 266.874398 -536.285125 
L 270.953754 -531.899766 
L 275.033109 -525.428184 
L 279.112465 -516.994276 
L 283.19182 -506.757005 
L 287.271175 -494.905422 
L 291.350531 -481.652863 
L 295.429886 -467.230586 
L 299.509242 -451.881089 
L 303.588597 -435.8514 
L 307.667952 -419.386587 
L 311.747308 -402.723708 
L 315.826663 -386.086424 
L 319.906019 -369.680411 
L 323.985374 -353.689699 
L 328.064729 -338.273983 
L 332.144085 -323.566938 
L 336.22344 -309.675493 
L 340.302796 -296.680007 
L 344.382151 -284.635235 
L 348.461506 -273.571974 
L 352.540862 -263.499238 
L 356.620217 -254.406825 
L 360.699573 -246.268132 
L 364.778928 -239.043076 
L 368.858283 -232.681014 
L 372.937639 -227.123541 
L 377.016994 -222.3071 
L 381.09635 -218.165325 
L 385.175705 -214.631088 
L 389.25506 -211.638221 
L 393.334416 -209.122902 
L 397.413771 -207.024738 
L 401.493127 -205.287525 
L 405.572482 -203.859762 
L 409.651838 -202.694912 
L 413.731193 -201.751471 
L 417.810548 -200.992881 
L 421.889904 -200.387311 
L 425.969259 -199.907354 
L 430.048615 -199.529665 
L 434.12797 -199.234563 
L 438.207325 -199.005619 
L 442.286681 -198.829251 
L 446.366036 -198.694339 
L 450.445392 -198.591861 
L 454.524747 -198.514563 
L 458.604102 -198.456662 
L 462.683458 -198.413593 
L 462.683458 -198.299375 
L 462.683458 -198.299375 
L 458.604102 -198.299375 
L 454.524747 -198.299375 
L 450.445392 -198.299375 
L 446.366036 -198.299375 
L 442.286681 -198.299375 
L 438.207325 -198.299375 
L 434.12797 -198.299375 
L 430.048615 -198.299375 
L 425.969259 -198.299375 
L 421.889904 -198.299375 
L 417.810548 -198.299375 
L 413.731193 -198.299375 
L 409.651838 -198.299375 
L 405.572482 -198.299375 
L 401.493127 -198.299375 
L 397.413771 -198.299375 
L 393.334416 -198.299375 
L 389.25506 -198.299375 
L 385.175705 -198.299375 
L 381.09635 -198.299375 
L 377.016994 -198.299375 
L 372.937639 -198.299375 
L 368.858283 -198.299375 
L 364.778928 -198.299375 
L 360.699573 -198.299375 
L 356.620217 -198.299375 
L 352.540862 -198.299375 
L 348.461506 -198.299375 
L 344.382151 -198.299375 
L 340.302796 -198.299375 
L 336.22344 -198.299375 
L 332.144085 -198.299375 
L 328.064729 -198.299375 
L 323.985374 -198.299375 
L 319.906019 -198.299375 
L 315.826663 -198.299375 
L 311.747308 -198.299375 
L 307.667952 -198.299375 
L 303.588597 -198.299375 
L 299.509242 -198.299375 
L 295.429886 -198.299375 
L 291.350531 -198.299375 
L 287.271175 -198.299375 
L 283.19182 -198.299375 
L 279.112465 -198.299375 
L 275.033109 -198.299375 
L 270.953754 -198.299375 
L 266.874398 -198.299375 
L 262.795043 -198.299375 
L 258.715688 -198.299375 
L 254.636332 -198.299375 
L 250.556977 -198.299375 
L 246.477621 -198.299375 
L 242.398266 -198.299375 
L 238.318911 -198.299375 
L 234.239555 -198.299375 
L 230.1602 -198.299375 
L 226.080844 -198.299375 
L 222.001489 -198.299375 
L 217.922134 -198.299375 
L 213.842778 -198.299375 
L 209.763423 -198.299375 
L 205.684067 -198.299375 
L 201.604712 -198.299375 
L 197.525356 -198.299375 
L 193.446001 -198.299375 
L 189.366646 -198.299375 
L 185.28729 -198.299375 
L 181.207935 -198.299375 
L 177.128579 -198.299375 
L 173.049224 -198.299375 
L 168.969869 -198.299375 
L 164.890513 -198.299375 
L 160.811158 -198.299375 
L 156.731802 -198.299375 
L 152.652447 -198.299375 
L 148.573092 -198.299375 
L 144.493736 -198.299375 
L 140.414381 -198.299375 
L 136.335025 -198.299375 
L 132.25567 -198.299375 
L 128.176315 -198.299375 
L 124.096959 -198.299375 
L 120.017604 -198.299375 
L 115.938248 -198.299375 
L 111.858893 -198.299375 
L 107.779538 -198.299375 
L 103.700182 -198.299375 
L 99.620827 -198.299375 
L 95.541471 -198.299375 
L 91.462116 -198.299375 
L 87.382761 -198.299375 
L 83.303405 -198.299375 
L 79.22405 -198.299375 
L 75.144694 -198.299375 
L 71.065339 -198.299375 
L 66.985984 -198.299375 
L 62.906628 -198.299375 
L 58.827273 -198.299375 
z
" id="m08f09c61d4" style="stroke:#36a2eb;stroke-opacity:0.5;"/>
    </defs>
    <g clip-path="url(#pa64f389b62)">
     <use style="fill:#36a2eb;fill-opacity:0.5;stroke:#36a2eb;stroke-opacity:0.5;" x="0" xlink:href="#m08f09c61d4" y="591.509375"/>
    </g>
   </g>
   <g id="line2d_1">
    <path clip-path="url(#pa64f389b62)" d="M 105.075248 393.097576 
L 109.219667 393.055182 
L 113.364086 392.998191 
L 117.508505 392.922106 
L 121.652924 392.821236 
L 125.797343 392.688443 
L 129.941762 392.514844 
L 134.086181 392.289493 
L 138.2306 391.999024 
L 142.375019 391.627265 
L 146.519438 391.154843 
L 150.663857 390.558779 
L 154.808276 389.812098 
L 158.952695 388.883469 
L 163.097114 387.736906 
L 167.241533 386.331558 
L 171.385952 384.621618 
L 175.530371 382.556392 
L 179.67479 380.080562 
L 183.819209 377.13468 
L 187.963628 373.655927 
L 192.108047 369.579175 
L 196.252466 364.838347 
L 200.396885 359.368122 
L 204.541304 353.105938 
L 208.685723 345.994308 
L 212.830142 337.983385 
L 216.974561 329.033715 
L 221.11898 319.119112 
L 225.263399 308.229534 
L 229.407818 296.373854 
L 233.552237 283.582385 
L 237.696656 269.909023 
L 241.841075 255.432865 
L 245.985494 240.259162 
L 250.129913 224.519489 
L 254.274332 208.371036 
L 258.418751 191.994941 
L 262.56317 175.593654 
L 266.707589 159.387323 
L 270.852007 143.609286 
L 274.996426 128.500762 
L 279.140845 114.304901 
L 283.285264 101.260396 
L 287.429683 89.594872 
L 291.574102 79.518317 
L 295.718521 71.216813 
L 299.86294 64.846829 
L 304.007359 60.530316 
L 308.151778 58.350828 
L 312.296197 58.350828 
L 316.440616 60.530316 
L 320.585035 64.846829 
L 324.729454 71.216813 
L 328.873873 79.518317 
L 333.018292 89.594872 
L 337.162711 101.260396 
L 341.30713 114.304901 
L 345.451549 128.500762 
L 349.595968 143.609286 
L 353.740387 159.387323 
L 357.884806 175.593654 
L 362.029225 191.994941 
L 366.173644 208.371036 
L 370.318063 224.519489 
L 374.462482 240.259162 
L 378.606901 255.432865 
L 382.75132 269.909023 
L 386.895739 283.582385 
L 391.040158 296.373854 
L 395.184577 308.229534 
L 399.328996 319.119112 
L 403.473415 329.033715 
L 407.617834 337.983385 
L 411.762253 345.994308 
L 415.906672 353.105938 
L 420.051091 359.368122 
L 424.19551 364.838347 
L 428.339929 369.579175 
L 432.484348 373.655927 
L 436.628767 377.13468 
L 440.773186 380.080562 
L 444.917605 382.556392 
L 449.062024 384.621618 
L 453.206443 386.331558 
L 457.350862 387.736906 
L 461.495281 388.883469 
L 465.6397 389.812098 
L 469.784118 390.558779 
L 473.928537 391.154843 
L 478.072956 391.627265 
L 482.217375 391.999024 
L 486.361794 392.289493 
L 490.506213 392.514844 
L 494.650632 392.688443 
L 498.795051 392.821236 
L 502.93947 392.922106 
L 507.083889 392.998191 
L 511.228308 393.055182 
L 515.372727 393.097576 
" style="fill:none;stroke:#ff6384;stroke-linecap:square;"/>
   </g>
   <g id="line2d_2">
    <path clip-path="url(#pa64f389b62)" d="M 58.827273 393.095782 
L 62.906628 393.052713 
L 66.985984 392.994812 
L 71.065339 392.917514 
L 75.144694 392.815036 
L 79.22405 392.680124 
L 83.303405 392.503756 
L 87.382761 392.274812 
L 91.462116 391.97971 
L 95.541471 391.602021 
L 99.620827 391.122064 
L 103.700182 390.516494 
L 107.779538 389.757904 
L 111.858893 388.814463 
L 115.938248 387.649613 
L 120.017604 386.22185 
L 124.096959 384.484637 
L 128.176315 382.386473 
L 132.25567 379.871154 
L 136.335025 376.878287 
L 140.414381 373.34405 
L 144.493736 369.202275 
L 148.573092 364.385834 
L 152.652447 358.828361 
L 156.731802 352.466299 
L 160.811158 345.241243 
L 164.890513 337.10255 
L 168.969869 328.010137 
L 173.049224 317.937401 
L 177.128579 306.87414 
L 181.207935 294.829368 
L 185.28729 281.833882 
L 189.366646 267.942437 
L 193.446001 253.235392 
L 197.525356 237.819676 
L 201.604712 221.828964 
L 205.684067 205.422951 
L 209.763423 188.785667 
L 213.842778 172.122788 
L 217.922134 155.657975 
L 222.001489 139.628286 
L 226.080844 124.278789 
L 230.1602 109.856512 
L 234.239555 96.603953 
L 238.318911 84.75237 
L 242.398266 74.515099 
L 246.477621 66.081191 
L 250.556977 59.609609 
L 254.636332 55.22425 
L 258.715688 53.01 
L 262.795043 53.01 
L 266.874398 55.22425 
L 270.953754 59.609609 
L 275.033109 66.081191 
L 279.112465 74.515099 
L 283.19182 84.75237 
L 287.271175 96.603953 
L 291.350531 109.856512 
L 295.429886 124.278789 
L 299.509242 139.628286 
L 303.588597 155.657975 
L 307.667952 172.122788 
L 311.747308 188.785667 
L 315.826663 205.422951 
L 319.906019 221.828964 
L 323.985374 237.819676 
L 328.064729 253.235392 
L 332.144085 267.942437 
L 336.22344 281.833882 
L 340.302796 294.829368 
L 344.382151 306.87414 
L 348.461506 317.937401 
L 352.540862 328.010137 
L 356.620217 337.10255 
L 360.699573 345.241243 
L 364.778928 352.466299 
L 368.858283 358.828361 
L 372.937639 364.385834 
L 377.016994 369.202275 
L 381.09635 373.34405 
L 385.175705 376.878287 
L 389.25506 379.871154 
L 393.334416 382.386473 
L 397.413771 384.484637 
L 401.493127 386.22185 
L 405.572482 387.649613 
L 409.651838 388.814463 
L 413.731193 389.757904 
L 417.810548 390.516494 
L 421.889904 391.122064 
L 425.969259 391.602021 
L 430.048615 391.97971 
L 434.12797 392.274812 
L 438.207325 392.503756 
L 442.286681 392.680124 
L 446.366036 392.815036 
L 450.445392 392.917514 
L 454.524747 392.994812 
L 458.604102 393.052713 
L 462.683458 393.095782 
" style="fill:none;stroke:#36a2eb;stroke-linecap:square;"/>
   </g>
   <g id="patch_3">
    <path d="M 36 410.22 
L 538.2 410.22 
" style="fill:none;stroke:#000000;stroke-linecap:square;stroke-linejoin:miter;stroke-width:0.8;"/>
   </g>
   <g id="legend_1">
    <g id="patch_4">
     <path d="M 441.707188 88.29875 
L 528.4 88.29875 
Q 531.2 88.29875 531.2 85.49875 
L 531.2 45.8 
Q 531.2 43 528.4 43 
L 441.707188 43 
Q 438.907188 43 438.907188 45.8 
L 438.907188 85.49875 
Q 438.907188 88.29875 441.707188 88.29875 
z
" style="fill:#ffffff;opacity:0.8;stroke:#cccccc;stroke-linejoin:miter;"/>
    </g>
    <g id="patch_5">
     <path d="M 444.507188 59.237813 
L 472.507188 59.237813 
L 472.507188 49.437813 
L 444.507188 49.437813 
z
" style="fill:#ff6384;opacity:0.5;stroke:#ff6384;stroke-linejoin:miter;"/>
    </g>
    <g id="text_1">
     <!-- base -->
     <defs>
      <path d="M 48.6875 27.296875 
Q 48.6875 37.203125 44.609375 42.84375 
Q 40.53125 48.484375 33.40625 48.484375 
Q 26.265625 48.484375 22.1875 42.84375 
Q 18.109375 37.203125 18.109375 27.296875 
Q 18.109375 17.390625 22.1875 11.75 
Q 26.265625 6.109375 33.40625 6.109375 
Q 40.53125 6.109375 44.609375 11.75 
Q 48.6875 17.390625 48.6875 27.296875 
z
M 18.109375 46.390625 
Q 20.953125 51.265625 25.265625 53.625 
Q 29.59375 56 35.59375 56 
Q 45.5625 56 51.78125 48.09375 
Q 58.015625 40.1875 58.015625 27.296875 
Q 58.015625 14.40625 51.78125 6.484375 
Q 45.5625 -1.421875 35.59375 -1.421875 
Q 29.59375 -1.421875 25.265625 0.953125 
Q 20.953125 3.328125 18.109375 8.203125 
L 18.109375 0 
L 9.078125 0 
L 9.078125 75.984375 
L 18.109375 75.984375 
z
" id="DejaVuSans-98"/>
      <path d="M 34.28125 27.484375 
Q 23.390625 27.484375 19.1875 25 
Q 14.984375 22.515625 14.984375 16.5 
Q 14.984375 11.71875 18.140625 8.90625 
Q 21.296875 6.109375 26.703125 6.109375 
Q 34.1875 6.109375 38.703125 11.40625 
Q 43.21875 16.703125 43.21875 25.484375 
L 43.21875 27.484375 
z
M 52.203125 31.203125 
L 52.203125 0 
L 43.21875 0 
L 43.21875 8.296875 
Q 40.140625 3.328125 35.546875 0.953125 
Q 30.953125 -1.421875 24.3125 -1.421875 
Q 15.921875 -1.421875 10.953125 3.296875 
Q 6 8.015625 6 15.921875 
Q 6 25.140625 12.171875 29.828125 
Q 18.359375 34.515625 30.609375 34.515625 
L 43.21875 34.515625 
L 43.21875 35.40625 
Q 43.21875 41.609375 39.140625 45 
Q 35.0625 48.390625 27.6875 48.390625 
Q 23 48.390625 18.546875 47.265625 
Q 14.109375 46.140625 10.015625 43.890625 
L 10.015625 52.203125 
Q 14.9375 54.109375 19.578125 55.046875 
Q 24.21875 56 28.609375 56 
Q 40.484375 56 46.34375 49.84375 
Q 52.203125 43.703125 52.203125 31.203125 
z
" id="DejaVuSans-97"/>
      <path d="M 44.28125 53.078125 
L 44.28125 44.578125 
Q 40.484375 46.53125 36.375 47.5 
Q 32.28125 48.484375 27.875 48.484375 
Q 21.1875 48.484375 17.84375 46.4375 
Q 14.5 44.390625 14.5 40.28125 
Q 14.5 37.15625 16.890625 35.375 
Q 19.28125 33.59375 26.515625 31.984375 
L 29.59375 31.296875 
Q 39.15625 29.25 43.1875 25.515625 
Q 47.21875 21.78125 47.21875 15.09375 
Q 47.21875 7.46875 41.1875 3.015625 
Q 35.15625 -1.421875 24.609375 -1.421875 
Q 20.21875 -1.421875 15.453125 -0.5625 
Q 10.6875 0.296875 5.421875 2 
L 5.421875 11.28125 
Q 10.40625 8.6875 15.234375 7.390625 
Q 20.0625 6.109375 24.8125 6.109375 
Q 31.15625 6.109375 34.5625 8.28125 
Q 37.984375 10.453125 37.984375 14.40625 
Q 37.984375 18.0625 35.515625 20.015625 
Q 33.0625 21.96875 24.703125 23.78125 
L 21.578125 24.515625 
Q 13.234375 26.265625 9.515625 29.90625 
Q 5.8125 33.546875 5.8125 39.890625 
Q 5.8125 47.609375 11.28125 51.796875 
Q 16.75 56 26.8125 56 
Q 31.78125 56 36.171875 55.265625 
Q 40.578125 54.546875 44.28125 53.078125 
z
" id="DejaVuSans-115"/>
      <path d="M 56.203125 29.59375 
L 56.203125 25.203125 
L 14.890625 25.203125 
Q 15.484375 15.921875 20.484375 11.0625 
Q 25.484375 6.203125 34.421875 6.203125 
Q 39.59375 6.203125 44.453125 7.46875 
Q 49.3125 8.734375 54.109375 11.28125 
L 54.109375 2.78125 
Q 49.265625 0.734375 44.1875 -0.34375 
Q 39.109375 -1.421875 33.890625 -1.421875 
Q 20.796875 -1.421875 13.15625 6.1875 
Q 5.515625 13.8125 5.515625 26.8125 
Q 5.515625 40.234375 12.765625 48.109375 
Q 20.015625 56 32.328125 56 
Q 43.359375 56 49.78125 48.890625 
Q 56.203125 41.796875 56.203125 29.59375 
z
M 47.21875 32.234375 
Q 47.125 39.59375 43.09375 43.984375 
Q 39.0625 48.390625 32.421875 48.390625 
Q 24.90625 48.390625 20.390625 44.140625 
Q 15.875 39.890625 15.1875 32.171875 
z
" id="DejaVuSans-101"/>
     </defs>
     <g transform="translate(483.707188 59.237813)scale(0.14 -0.14)">
      <use xlink:href="#DejaVuSans-98"/>
      <use x="63.476562" xlink:href="#DejaVuSans-97"/>
      <use x="124.755859" xlink:href="#DejaVuSans-115"/>
      <use x="176.855469" xlink:href="#DejaVuSans-101"/>
     </g>
    </g>
    <g id="patch_6">
     <path d="M 444.507188 79.787188 
L 472.507188 79.787188 
L 472.507188 69.987188 
L 444.507188 69.987188 
z
" style="fill:#36a2eb;opacity:0.5;stroke:#36a2eb;stroke-linejoin:miter;"/>
    </g>
    <g id="text_2">
     <!-- osago -->
     <defs>
      <path d="M 30.609375 48.390625 
Q 23.390625 48.390625 19.1875 42.75 
Q 14.984375 37.109375 14.984375 27.296875 
Q 14.984375 17.484375 19.15625 11.84375 
Q 23.34375 6.203125 30.609375 6.203125 
Q 37.796875 6.203125 41.984375 11.859375 
Q 46.1875 17.53125 46.1875 27.296875 
Q 46.1875 37.015625 41.984375 42.703125 
Q 37.796875 48.390625 30.609375 48.390625 
z
M 30.609375 56 
Q 42.328125 56 49.015625 48.375 
Q 55.71875 40.765625 55.71875 27.296875 
Q 55.71875 13.875 49.015625 6.21875 
Q 42.328125 -1.421875 30.609375 -1.421875 
Q 18.84375 -1.421875 12.171875 6.21875 
Q 5.515625 13.875 5.515625 27.296875 
Q 5.515625 40.765625 12.171875 48.375 
Q 18.84375 56 30.609375 56 
z
" id="DejaVuSans-111"/>
      <path d="M 45.40625 27.984375 
Q 45.40625 37.75 41.375 43.109375 
Q 37.359375 48.484375 30.078125 48.484375 
Q 22.859375 48.484375 18.828125 43.109375 
Q 14.796875 37.75 14.796875 27.984375 
Q 14.796875 18.265625 18.828125 12.890625 
Q 22.859375 7.515625 30.078125 7.515625 
Q 37.359375 7.515625 41.375 12.890625 
Q 45.40625 18.265625 45.40625 27.984375 
z
M 54.390625 6.78125 
Q 54.390625 -7.171875 48.1875 -13.984375 
Q 42 -20.796875 29.203125 -20.796875 
Q 24.46875 -20.796875 20.265625 -20.09375 
Q 16.0625 -19.390625 12.109375 -17.921875 
L 12.109375 -9.1875 
Q 16.0625 -11.328125 19.921875 -12.34375 
Q 23.78125 -13.375 27.78125 -13.375 
Q 36.625 -13.375 41.015625 -8.765625 
Q 45.40625 -4.15625 45.40625 5.171875 
L 45.40625 9.625 
Q 42.625 4.78125 38.28125 2.390625 
Q 33.9375 0 27.875 0 
Q 17.828125 0 11.671875 7.65625 
Q 5.515625 15.328125 5.515625 27.984375 
Q 5.515625 40.671875 11.671875 48.328125 
Q 17.828125 56 27.875 56 
Q 33.9375 56 38.28125 53.609375 
Q 42.625 51.21875 45.40625 46.390625 
L 45.40625 54.6875 
L 54.390625 54.6875 
z
" id="DejaVuSans-103"/>
     </defs>
     <g transform="translate(483.707188 79.787188)scale(0.14 -0.14)">
      <use xlink:href="#DejaVuSans-111"/>
      <use x="61.181641" xlink:href="#DejaVuSans-115"/>
      <use x="113.28125" xlink:href="#DejaVuSans-97"/>
      <use x="174.560547" xlink:href="#DejaVuSans-103"/>
      <use x="238.037109" xlink:href="#DejaVuSans-111"/>
     </g>
    </g>
   </g>
  </g>
  <g id="axes_2">
   <g id="patch_7">
    <path d="M 36 534.96 
L 538.2 534.96 
L 538.2 410.22 
L 36 410.22 
z
" style="fill:none;"/>
   </g>
   <g id="patch_8">
    <path clip-path="url(#p87b29260e8)" d="M 209.701105 529.29 
L 410.74687 529.29 
L 410.74687 491.49 
L 209.701105 491.49 
z
" style="fill:#ff6384;opacity:0.5;"/>
   </g>
   <g id="patch_9">
    <path clip-path="url(#p87b29260e8)" d="M 161.8106 453.69 
L 359.700131 453.69 
L 359.700131 415.89 
L 161.8106 415.89 
z
" style="fill:#36a2eb;opacity:0.5;"/>
   </g>
   <g id="matplotlib.axis_1">
    <g id="xtick_1">
     <g id="line2d_3">
      <defs>
       <path d="M 0 0 
L 0 3.5 
" id="mb867defc10" style="stroke:#000000;stroke-width:0.8;"/>
      </defs>
      <g>
       <use style="stroke:#000000;stroke-width:0.8;" x="84.081713" xlink:href="#mb867defc10" y="534.96"/>
      </g>
     </g>
     <g id="text_3">
      <!-- 4.0 -->
      <defs>
       <path d="M 37.796875 64.3125 
L 12.890625 25.390625 
L 37.796875 25.390625 
z
M 35.203125 72.90625 
L 47.609375 72.90625 
L 47.609375 25.390625 
L 58.015625 25.390625 
L 58.015625 17.1875 
L 47.609375 17.1875 
L 47.609375 0 
L 37.796875 0 
L 37.796875 17.1875 
L 4.890625 17.1875 
L 4.890625 26.703125 
z
" id="DejaVuSans-52"/>
       <path d="M 10.6875 12.40625 
L 21 12.40625 
L 21 0 
L 10.6875 0 
z
" id="DejaVuSans-46"/>
       <path d="M 31.78125 66.40625 
Q 24.171875 66.40625 20.328125 58.90625 
Q 16.5 51.421875 16.5 36.375 
Q 16.5 21.390625 20.328125 13.890625 
Q 24.171875 6.390625 31.78125 6.390625 
Q 39.453125 6.390625 43.28125 13.890625 
Q 47.125 21.390625 47.125 36.375 
Q 47.125 51.421875 43.28125 58.90625 
Q 39.453125 66.40625 31.78125 66.40625 
z
M 31.78125 74.21875 
Q 44.046875 74.21875 50.515625 64.515625 
Q 56.984375 54.828125 56.984375 36.375 
Q 56.984375 17.96875 50.515625 8.265625 
Q 44.046875 -1.421875 31.78125 -1.421875 
Q 19.53125 -1.421875 13.0625 8.265625 
Q 6.59375 17.96875 6.59375 36.375 
Q 6.59375 54.828125 13.0625 64.515625 
Q 19.53125 74.21875 31.78125 74.21875 
z
" id="DejaVuSans-48"/>
      </defs>
      <g transform="translate(72.949526 552.597813)scale(0.14 -0.14)">
       <use xlink:href="#DejaVuSans-52"/>
       <use x="63.623047" xlink:href="#DejaVuSans-46"/>
       <use x="95.410156" xlink:href="#DejaVuSans-48"/>
      </g>
     </g>
    </g>
    <g id="xtick_2">
     <g id="line2d_4">
      <g>
       <use style="stroke:#000000;stroke-width:0.8;" x="154.751174" xlink:href="#mb867defc10" y="534.96"/>
      </g>
     </g>
     <g id="text_4">
      <!-- 4.5 -->
      <defs>
       <path d="M 10.796875 72.90625 
L 49.515625 72.90625 
L 49.515625 64.59375 
L 19.828125 64.59375 
L 19.828125 46.734375 
Q 21.96875 47.46875 24.109375 47.828125 
Q 26.265625 48.1875 28.421875 48.1875 
Q 40.625 48.1875 47.75 41.5 
Q 54.890625 34.8125 54.890625 23.390625 
Q 54.890625 11.625 47.5625 5.09375 
Q 40.234375 -1.421875 26.90625 -1.421875 
Q 22.3125 -1.421875 17.546875 -0.640625 
Q 12.796875 0.140625 7.71875 1.703125 
L 7.71875 11.625 
Q 12.109375 9.234375 16.796875 8.0625 
Q 21.484375 6.890625 26.703125 6.890625 
Q 35.15625 6.890625 40.078125 11.328125 
Q 45.015625 15.765625 45.015625 23.390625 
Q 45.015625 31 40.078125 35.4375 
Q 35.15625 39.890625 26.703125 39.890625 
Q 22.75 39.890625 18.8125 39.015625 
Q 14.890625 38.140625 10.796875 36.28125 
z
" id="DejaVuSans-53"/>
      </defs>
      <g transform="translate(143.618987 552.597813)scale(0.14 -0.14)">
       <use xlink:href="#DejaVuSans-52"/>
       <use x="63.623047" xlink:href="#DejaVuSans-46"/>
       <use x="95.410156" xlink:href="#DejaVuSans-53"/>
      </g>
     </g>
    </g>
    <g id="xtick_3">
     <g id="line2d_5">
      <g>
       <use style="stroke:#000000;stroke-width:0.8;" x="225.420635" xlink:href="#mb867defc10" y="534.96"/>
      </g>
     </g>
     <g id="text_5">
      <!-- 5.0 -->
      <g transform="translate(214.288447 552.597813)scale(0.14 -0.14)">
       <use xlink:href="#DejaVuSans-53"/>
       <use x="63.623047" xlink:href="#DejaVuSans-46"/>
       <use x="95.410156" xlink:href="#DejaVuSans-48"/>
      </g>
     </g>
    </g>
    <g id="xtick_4">
     <g id="line2d_6">
      <g>
       <use style="stroke:#000000;stroke-width:0.8;" x="296.090096" xlink:href="#mb867defc10" y="534.96"/>
      </g>
     </g>
     <g id="text_6">
      <!-- 5.5 -->
      <g transform="translate(284.957908 552.597813)scale(0.14 -0.14)">
       <use xlink:href="#DejaVuSans-53"/>
       <use x="63.623047" xlink:href="#DejaVuSans-46"/>
       <use x="95.410156" xlink:href="#DejaVuSans-53"/>
      </g>
     </g>
    </g>
    <g id="xtick_5">
     <g id="line2d_7">
      <g>
       <use style="stroke:#000000;stroke-width:0.8;" x="366.759556" xlink:href="#mb867defc10" y="534.96"/>
      </g>
     </g>
     <g id="text_7">
      <!-- 6.0 -->
      <defs>
       <path d="M 33.015625 40.375 
Q 26.375 40.375 22.484375 35.828125 
Q 18.609375 31.296875 18.609375 23.390625 
Q 18.609375 15.53125 22.484375 10.953125 
Q 26.375 6.390625 33.015625 6.390625 
Q 39.65625 6.390625 43.53125 10.953125 
Q 47.40625 15.53125 47.40625 23.390625 
Q 47.40625 31.296875 43.53125 35.828125 
Q 39.65625 40.375 33.015625 40.375 
z
M 52.59375 71.296875 
L 52.59375 62.3125 
Q 48.875 64.0625 45.09375 64.984375 
Q 41.3125 65.921875 37.59375 65.921875 
Q 27.828125 65.921875 22.671875 59.328125 
Q 17.53125 52.734375 16.796875 39.40625 
Q 19.671875 43.65625 24.015625 45.921875 
Q 28.375 48.1875 33.59375 48.1875 
Q 44.578125 48.1875 50.953125 41.515625 
Q 57.328125 34.859375 57.328125 23.390625 
Q 57.328125 12.15625 50.6875 5.359375 
Q 44.046875 -1.421875 33.015625 -1.421875 
Q 20.359375 -1.421875 13.671875 8.265625 
Q 6.984375 17.96875 6.984375 36.375 
Q 6.984375 53.65625 15.1875 63.9375 
Q 23.390625 74.21875 37.203125 74.21875 
Q 40.921875 74.21875 44.703125 73.484375 
Q 48.484375 72.75 52.59375 71.296875 
z
" id="DejaVuSans-54"/>
      </defs>
      <g transform="translate(355.627369 552.597813)scale(0.14 -0.14)">
       <use xlink:href="#DejaVuSans-54"/>
       <use x="63.623047" xlink:href="#DejaVuSans-46"/>
       <use x="95.410156" xlink:href="#DejaVuSans-48"/>
      </g>
     </g>
    </g>
    <g id="xtick_6">
     <g id="line2d_8">
      <g>
       <use style="stroke:#000000;stroke-width:0.8;" x="437.429017" xlink:href="#mb867defc10" y="534.96"/>
      </g>
     </g>
     <g id="text_8">
      <!-- 6.5 -->
      <g transform="translate(426.29683 552.597813)scale(0.14 -0.14)">
       <use xlink:href="#DejaVuSans-54"/>
       <use x="63.623047" xlink:href="#DejaVuSans-46"/>
       <use x="95.410156" xlink:href="#DejaVuSans-53"/>
      </g>
     </g>
    </g>
    <g id="xtick_7">
     <g id="line2d_9">
      <g>
       <use style="stroke:#000000;stroke-width:0.8;" x="508.098478" xlink:href="#mb867defc10" y="534.96"/>
      </g>
     </g>
     <g id="text_9">
      <!-- 7.0 -->
      <defs>
       <path d="M 8.203125 72.90625 
L 55.078125 72.90625 
L 55.078125 68.703125 
L 28.609375 0 
L 18.3125 0 
L 43.21875 64.59375 
L 8.203125 64.59375 
z
" id="DejaVuSans-55"/>
      </defs>
      <g transform="translate(496.96629 552.597813)scale(0.14 -0.14)">
       <use xlink:href="#DejaVuSans-55"/>
       <use x="63.623047" xlink:href="#DejaVuSans-46"/>
       <use x="95.410156" xlink:href="#DejaVuSans-48"/>
      </g>
     </g>
    </g>
   </g>
   <g id="line2d_10">
    <path clip-path="url(#p87b29260e8)" d="M 310.223988 534.96 
L 310.223988 410.22 
" style="fill:none;stroke:#ff6384;stroke-dasharray:5.55,2.4;stroke-dashoffset:0;stroke-opacity:0.8;stroke-width:1.5;"/>
   </g>
   <g id="line2d_11">
    <path clip-path="url(#p87b29260e8)" d="M 260.755365 534.96 
L 260.755365 410.22 
" style="fill:none;stroke:#36a2eb;stroke-dasharray:5.55,2.4;stroke-dashoffset:0;stroke-opacity:0.8;stroke-width:1.5;"/>
   </g>
   <g id="patch_10">
    <path d="M 36 534.96 
L 538.2 534.96 
" style="fill:none;stroke:#000000;stroke-linecap:square;stroke-linejoin:miter;stroke-width:0.8;"/>
   </g>
  </g>
 </g>
 <defs>
  <clipPath id="pa64f389b62">
   <rect height="374.22" width="502.2" x="36" y="36"/>
  </clipPath>
  <clipPath id="p87b29260e8">
   <rect height="124.74" width="502.2" x="36" y="410.22"/>
  </clipPath>
 </defs>
</svg>
