<?xml version="1.0" encoding="utf-8" standalone="no"?>
<!DOCTYPE svg PUBLIC "-//W3C//DTD SVG 1.1//EN"
  "http://www.w3.org/Graphics/SVG/1.1/DTD/svg11.dtd">
<!-- Created with matplotlib (https://matplotlib.org/) -->
<svg height="581.789375pt" version="1.1" viewBox="0 0 577.34967 581.789375" width="577.34967pt" xmlns="http://www.w3.org/2000/svg" xmlns:xlink="http://www.w3.org/1999/xlink">
 <defs>
  <style type="text/css">
*{stroke-linecap:butt;stroke-linejoin:round;}
  </style>
 </defs>
 <g id="figure_1">
  <g id="patch_1">
   <path d="M 0 581.789375 
L 577.34967 581.789375 
L 577.34967 0 
L 0 0 
z
" style="fill:none;"/>
  </g>
  <g id="axes_1">
   <g id="patch_2">
    <path d="M 36 402.93 
L 538.2 402.93 
L 538.2 36 
L 36 36 
z
" style="fill:none;"/>
   </g>
   <g id="PolyCollection_1">
    <defs>
     <path d="M 171.316754 -195.538011 
L 171.316754 -195.6236 
L 174.792067 -195.655874 
L 178.26738 -195.699262 
L 181.742692 -195.757185 
L 185.218005 -195.833977 
L 188.693318 -195.935072 
L 192.168631 -196.067233 
L 195.643944 -196.238792 
L 199.119257 -196.459926 
L 202.59457 -196.742946 
L 206.069882 -197.102601 
L 209.545195 -197.556384 
L 213.020508 -198.124831 
L 216.495821 -198.831796 
L 219.971134 -199.704674 
L 223.446447 -200.774564 
L 226.92176 -202.07634 
L 230.397072 -203.648595 
L 233.872385 -205.533442 
L 237.347698 -207.77614 
L 240.823011 -210.424511 
L 244.298324 -213.52814 
L 247.773637 -217.137328 
L 251.24895 -221.301807 
L 254.724263 -226.069202 
L 258.199575 -231.48328 
L 261.674888 -237.58199 
L 265.150201 -244.395366 
L 268.625514 -251.943346 
L 272.100827 -260.233573 
L 275.57614 -269.259293 
L 279.051453 -278.997429 
L 282.526765 -289.406948 
L 286.002078 -300.427636 
L 289.477391 -311.979364 
L 292.952704 -323.961964 
L 296.428017 -336.255769 
L 299.90333 -348.722877 
L 303.378643 -361.209164 
L 306.853955 -373.547031 
L 310.329268 -385.558838 
L 313.804581 -397.060946 
L 317.279894 -407.868243 
L 320.755207 -417.799015 
L 324.23052 -426.679969 
L 327.705833 -434.351243 
L 331.181146 -440.671171 
L 334.656458 -445.520635 
L 338.131771 -448.806792 
L 341.607084 -450.466035 
L 345.082397 -450.466035 
L 348.55771 -448.806792 
L 352.033023 -445.520635 
L 355.508336 -440.671171 
L 358.983648 -434.351243 
L 362.458961 -426.679969 
L 365.934274 -417.799015 
L 369.409587 -407.868243 
L 372.8849 -397.060946 
L 376.360213 -385.558838 
L 379.835526 -373.547031 
L 383.310838 -361.209164 
L 386.786151 -348.722877 
L 390.261464 -336.255769 
L 393.736777 -323.961964 
L 397.21209 -311.979364 
L 400.687403 -300.427636 
L 404.162716 -289.406948 
L 407.638029 -278.997429 
L 411.113341 -269.259293 
L 414.588654 -260.233573 
L 418.063967 -251.943346 
L 421.53928 -244.395366 
L 425.014593 -237.58199 
L 428.489906 -231.48328 
L 431.965219 -226.069202 
L 435.440531 -221.301807 
L 438.915844 -217.137328 
L 442.391157 -213.52814 
L 445.86647 -210.424511 
L 449.341783 -207.77614 
L 452.817096 -205.533442 
L 456.292409 -203.648595 
L 459.767721 -202.07634 
L 463.243034 -200.774564 
L 466.718347 -199.704674 
L 470.19366 -198.831796 
L 473.668973 -198.124831 
L 477.144286 -197.556384 
L 480.619599 -197.102601 
L 484.094912 -196.742946 
L 487.570224 -196.459926 
L 491.045537 -196.238792 
L 494.52085 -196.067233 
L 497.996163 -195.935072 
L 501.471476 -195.833977 
L 504.946789 -195.757185 
L 508.422102 -195.699262 
L 511.897414 -195.655874 
L 515.372727 -195.6236 
L 515.372727 -195.538011 
L 515.372727 -195.538011 
L 511.897414 -195.538011 
L 508.422102 -195.538011 
L 504.946789 -195.538011 
L 501.471476 -195.538011 
L 497.996163 -195.538011 
L 494.52085 -195.538011 
L 491.045537 -195.538011 
L 487.570224 -195.538011 
L 484.094912 -195.538011 
L 480.619599 -195.538011 
L 477.144286 -195.538011 
L 473.668973 -195.538011 
L 470.19366 -195.538011 
L 466.718347 -195.538011 
L 463.243034 -195.538011 
L 459.767721 -195.538011 
L 456.292409 -195.538011 
L 452.817096 -195.538011 
L 449.341783 -195.538011 
L 445.86647 -195.538011 
L 442.391157 -195.538011 
L 438.915844 -195.538011 
L 435.440531 -195.538011 
L 431.965219 -195.538011 
L 428.489906 -195.538011 
L 425.014593 -195.538011 
L 421.53928 -195.538011 
L 418.063967 -195.538011 
L 414.588654 -195.538011 
L 411.113341 -195.538011 
L 407.638029 -195.538011 
L 404.162716 -195.538011 
L 400.687403 -195.538011 
L 397.21209 -195.538011 
L 393.736777 -195.538011 
L 390.261464 -195.538011 
L 386.786151 -195.538011 
L 383.310838 -195.538011 
L 379.835526 -195.538011 
L 376.360213 -195.538011 
L 372.8849 -195.538011 
L 369.409587 -195.538011 
L 365.934274 -195.538011 
L 362.458961 -195.538011 
L 358.983648 -195.538011 
L 355.508336 -195.538011 
L 352.033023 -195.538011 
L 348.55771 -195.538011 
L 345.082397 -195.538011 
L 341.607084 -195.538011 
L 338.131771 -195.538011 
L 334.656458 -195.538011 
L 331.181146 -195.538011 
L 327.705833 -195.538011 
L 324.23052 -195.538011 
L 320.755207 -195.538011 
L 317.279894 -195.538011 
L 313.804581 -195.538011 
L 310.329268 -195.538011 
L 306.853955 -195.538011 
L 303.378643 -195.538011 
L 299.90333 -195.538011 
L 296.428017 -195.538011 
L 292.952704 -195.538011 
L 289.477391 -195.538011 
L 286.002078 -195.538011 
L 282.526765 -195.538011 
L 279.051453 -195.538011 
L 275.57614 -195.538011 
L 272.100827 -195.538011 
L 268.625514 -195.538011 
L 265.150201 -195.538011 
L 261.674888 -195.538011 
L 258.199575 -195.538011 
L 254.724263 -195.538011 
L 251.24895 -195.538011 
L 247.773637 -195.538011 
L 244.298324 -195.538011 
L 240.823011 -195.538011 
L 237.347698 -195.538011 
L 233.872385 -195.538011 
L 230.397072 -195.538011 
L 226.92176 -195.538011 
L 223.446447 -195.538011 
L 219.971134 -195.538011 
L 216.495821 -195.538011 
L 213.020508 -195.538011 
L 209.545195 -195.538011 
L 206.069882 -195.538011 
L 202.59457 -195.538011 
L 199.119257 -195.538011 
L 195.643944 -195.538011 
L 192.168631 -195.538011 
L 188.693318 -195.538011 
L 185.218005 -195.538011 
L 181.742692 -195.538011 
L 178.26738 -195.538011 
L 174.792067 -195.538011 
L 171.316754 -195.538011 
z
" id="m8247d37854" style="stroke:#ff6384;stroke-opacity:0.5;"/>
    </defs>
    <g clip-path="url(#p99ba1f14fa)">
     <use style="fill:#ff6384;fill-opacity:0.5;stroke:#ff6384;stroke-opacity:0.5;" x="0" xlink:href="#m8247d37854" y="581.789375"/>
    </g>
   </g>
   <g id="PolyCollection_2">
    <defs>
     <path d="M 58.827273 -195.538011 
L 58.827273 -195.650004 
L 61.483229 -195.692234 
L 64.139186 -195.749007 
L 66.795142 -195.8248 
L 69.451099 -195.925281 
L 72.107055 -196.057565 
L 74.763012 -196.230497 
L 77.418968 -196.454982 
L 80.074924 -196.744335 
L 82.730881 -197.114666 
L 85.386837 -197.585273 
L 88.042794 -198.179047 
L 90.69875 -198.922859 
L 93.354707 -199.847921 
L 96.010663 -200.990079 
L 98.66662 -202.390029 
L 101.322576 -204.093399 
L 103.978533 -206.150691 
L 106.634489 -208.617009 
L 109.290446 -211.551575 
L 111.946402 -215.016962 
L 114.602358 -219.078053 
L 117.258315 -223.800667 
L 119.914271 -229.249878 
L 122.570228 -235.488004 
L 125.226184 -242.572312 
L 127.882141 -250.552459 
L 130.538097 -259.467747 
L 133.194054 -269.344261 
L 135.85001 -280.192004 
L 138.505967 -292.002137 
L 141.161923 -304.744465 
L 143.81788 -318.365297 
L 146.473836 -332.785841 
L 149.129792 -347.901251 
L 151.785749 -363.580456 
L 154.441705 -379.666871 
L 157.097662 -395.980052 
L 159.753618 -412.31833 
L 162.409575 -428.4624 
L 165.065531 -444.179822 
L 167.721488 -459.230303 
L 170.377444 -473.371627 
L 173.033401 -486.366018 
L 175.689357 -497.986726 
L 178.345314 -508.02457 
L 181.00127 -516.294181 
L 183.657226 -522.639693 
L 186.313183 -526.939623 
L 188.969139 -529.110739 
L 191.625096 -529.110739 
L 194.281052 -526.939623 
L 196.937009 -522.639693 
L 199.592965 -516.294181 
L 202.248922 -508.02457 
L 204.904878 -497.986726 
L 207.560835 -486.366018 
L 210.216791 -473.371627 
L 212.872748 -459.230303 
L 215.528704 -444.179822 
L 218.184661 -428.4624 
L 220.840617 -412.31833 
L 223.496573 -395.980052 
L 226.15253 -379.666871 
L 228.808486 -363.580456 
L 231.464443 -347.901251 
L 234.120399 -332.785841 
L 236.776356 -318.365297 
L 239.432312 -304.744465 
L 242.088269 -292.002137 
L 244.744225 -280.192004 
L 247.400182 -269.344261 
L 250.056138 -259.467747 
L 252.712095 -250.552459 
L 255.368051 -242.572312 
L 258.024007 -235.488004 
L 260.679964 -229.249878 
L 263.33592 -223.800667 
L 265.991877 -219.078053 
L 268.647833 -215.016962 
L 271.30379 -211.551575 
L 273.959746 -208.617009 
L 276.615703 -206.150691 
L 279.271659 -204.093399 
L 281.927616 -202.390029 
L 284.583572 -200.990079 
L 287.239529 -199.847921 
L 289.895485 -198.922859 
L 292.551441 -198.179047 
L 295.207398 -197.585273 
L 297.863354 -197.114666 
L 300.519311 -196.744335 
L 303.175267 -196.454982 
L 305.831224 -196.230497 
L 308.48718 -196.057565 
L 311.143137 -195.925281 
L 313.799093 -195.8248 
L 316.45505 -195.749007 
L 319.111006 -195.692234 
L 321.766963 -195.650004 
L 321.766963 -195.538011 
L 321.766963 -195.538011 
L 319.111006 -195.538011 
L 316.45505 -195.538011 
L 313.799093 -195.538011 
L 311.143137 -195.538011 
L 308.48718 -195.538011 
L 305.831224 -195.538011 
L 303.175267 -195.538011 
L 300.519311 -195.538011 
L 297.863354 -195.538011 
L 295.207398 -195.538011 
L 292.551441 -195.538011 
L 289.895485 -195.538011 
L 287.239529 -195.538011 
L 284.583572 -195.538011 
L 281.927616 -195.538011 
L 279.271659 -195.538011 
L 276.615703 -195.538011 
L 273.959746 -195.538011 
L 271.30379 -195.538011 
L 268.647833 -195.538011 
L 265.991877 -195.538011 
L 263.33592 -195.538011 
L 260.679964 -195.538011 
L 258.024007 -195.538011 
L 255.368051 -195.538011 
L 252.712095 -195.538011 
L 250.056138 -195.538011 
L 247.400182 -195.538011 
L 244.744225 -195.538011 
L 242.088269 -195.538011 
L 239.432312 -195.538011 
L 236.776356 -195.538011 
L 234.120399 -195.538011 
L 231.464443 -195.538011 
L 228.808486 -195.538011 
L 226.15253 -195.538011 
L 223.496573 -195.538011 
L 220.840617 -195.538011 
L 218.184661 -195.538011 
L 215.528704 -195.538011 
L 212.872748 -195.538011 
L 210.216791 -195.538011 
L 207.560835 -195.538011 
L 204.904878 -195.538011 
L 202.248922 -195.538011 
L 199.592965 -195.538011 
L 196.937009 -195.538011 
L 194.281052 -195.538011 
L 191.625096 -195.538011 
L 188.969139 -195.538011 
L 186.313183 -195.538011 
L 183.657226 -195.538011 
L 181.00127 -195.538011 
L 178.345314 -195.538011 
L 175.689357 -195.538011 
L 173.033401 -195.538011 
L 170.377444 -195.538011 
L 167.721488 -195.538011 
L 165.065531 -195.538011 
L 162.409575 -195.538011 
L 159.753618 -195.538011 
L 157.097662 -195.538011 
L 154.441705 -195.538011 
L 151.785749 -195.538011 
L 149.129792 -195.538011 
L 146.473836 -195.538011 
L 143.81788 -195.538011 
L 141.161923 -195.538011 
L 138.505967 -195.538011 
L 135.85001 -195.538011 
L 133.194054 -195.538011 
L 130.538097 -195.538011 
L 127.882141 -195.538011 
L 125.226184 -195.538011 
L 122.570228 -195.538011 
L 119.914271 -195.538011 
L 117.258315 -195.538011 
L 114.602358 -195.538011 
L 111.946402 -195.538011 
L 109.290446 -195.538011 
L 106.634489 -195.538011 
L 103.978533 -195.538011 
L 101.322576 -195.538011 
L 98.66662 -195.538011 
L 96.010663 -195.538011 
L 93.354707 -195.538011 
L 90.69875 -195.538011 
L 88.042794 -195.538011 
L 85.386837 -195.538011 
L 82.730881 -195.538011 
L 80.074924 -195.538011 
L 77.418968 -195.538011 
L 74.763012 -195.538011 
L 72.107055 -195.538011 
L 69.451099 -195.538011 
L 66.795142 -195.538011 
L 64.139186 -195.538011 
L 61.483229 -195.538011 
L 58.827273 -195.538011 
z
" id="m37be588354" style="stroke:#36a2eb;stroke-opacity:0.5;"/>
    </defs>
    <g clip-path="url(#p99ba1f14fa)">
     <use style="fill:#36a2eb;fill-opacity:0.5;stroke:#36a2eb;stroke-opacity:0.5;" x="0" xlink:href="#m37be588354" y="581.789375"/>
    </g>
   </g>
   <g id="line2d_1">
    <path clip-path="url(#p99ba1f14fa)" d="M 171.316754 386.165775 
L 174.792067 386.133501 
L 178.26738 386.090113 
L 181.742692 386.03219 
L 185.218005 385.955398 
L 188.693318 385.854303 
L 192.168631 385.722142 
L 195.643944 385.550583 
L 199.119257 385.329449 
L 202.59457 385.046429 
L 206.069882 384.686774 
L 209.545195 384.232991 
L 213.020508 383.664544 
L 216.495821 382.957579 
L 219.971134 382.084701 
L 223.446447 381.014811 
L 226.92176 379.713035 
L 230.397072 378.14078 
L 233.872385 376.255933 
L 237.347698 374.013235 
L 240.823011 371.364864 
L 244.298324 368.261235 
L 247.773637 364.652047 
L 251.24895 360.487568 
L 254.724263 355.720173 
L 258.199575 350.306095 
L 261.674888 344.207385 
L 265.150201 337.394009 
L 268.625514 329.846029 
L 272.100827 321.555802 
L 275.57614 312.530082 
L 279.051453 302.791946 
L 282.526765 292.382427 
L 286.002078 281.361739 
L 289.477391 269.810011 
L 292.952704 257.827411 
L 296.428017 245.533606 
L 299.90333 233.066498 
L 303.378643 220.580211 
L 306.853955 208.242344 
L 310.329268 196.230537 
L 313.804581 184.728429 
L 317.279894 173.921132 
L 320.755207 163.99036 
L 324.23052 155.109406 
L 327.705833 147.438132 
L 331.181146 141.118204 
L 334.656458 136.26874 
L 338.131771 132.982583 
L 341.607084 131.32334 
L 345.082397 131.32334 
L 348.55771 132.982583 
L 352.033023 136.26874 
L 355.508336 141.118204 
L 358.983648 147.438132 
L 362.458961 155.109406 
L 365.934274 163.99036 
L 369.409587 173.921132 
L 372.8849 184.728429 
L 376.360213 196.230537 
L 379.835526 208.242344 
L 383.310838 220.580211 
L 386.786151 233.066498 
L 390.261464 245.533606 
L 393.736777 257.827411 
L 397.21209 269.810011 
L 400.687403 281.361739 
L 404.162716 292.382427 
L 407.638029 302.791946 
L 411.113341 312.530082 
L 414.588654 321.555802 
L 418.063967 329.846029 
L 421.53928 337.394009 
L 425.014593 344.207385 
L 428.489906 350.306095 
L 431.965219 355.720173 
L 435.440531 360.487568 
L 438.915844 364.652047 
L 442.391157 368.261235 
L 445.86647 371.364864 
L 449.341783 374.013235 
L 452.817096 376.255933 
L 456.292409 378.14078 
L 459.767721 379.713035 
L 463.243034 381.014811 
L 466.718347 382.084701 
L 470.19366 382.957579 
L 473.668973 383.664544 
L 477.144286 384.232991 
L 480.619599 384.686774 
L 484.094912 385.046429 
L 487.570224 385.329449 
L 491.045537 385.550583 
L 494.52085 385.722142 
L 497.996163 385.854303 
L 501.471476 385.955398 
L 504.946789 386.03219 
L 508.422102 386.090113 
L 511.897414 386.133501 
L 515.372727 386.165775 
" style="fill:none;stroke:#ff6384;stroke-linecap:square;"/>
   </g>
   <g id="line2d_2">
    <path clip-path="url(#p99ba1f14fa)" d="M 58.827273 386.139371 
L 61.483229 386.097141 
L 64.139186 386.040368 
L 66.795142 385.964575 
L 69.451099 385.864094 
L 72.107055 385.73181 
L 74.763012 385.558878 
L 77.418968 385.334393 
L 80.074924 385.04504 
L 82.730881 384.674709 
L 85.386837 384.204102 
L 88.042794 383.610328 
L 90.69875 382.866516 
L 93.354707 381.941454 
L 96.010663 380.799296 
L 98.66662 379.399346 
L 101.322576 377.695976 
L 103.978533 375.638684 
L 106.634489 373.172366 
L 109.290446 370.2378 
L 111.946402 366.772413 
L 114.602358 362.711322 
L 117.258315 357.988708 
L 119.914271 352.539497 
L 122.570228 346.301371 
L 125.226184 339.217063 
L 127.882141 331.236916 
L 130.538097 322.321628 
L 133.194054 312.445114 
L 135.85001 301.597371 
L 138.505967 289.787238 
L 141.161923 277.04491 
L 143.81788 263.424078 
L 146.473836 249.003534 
L 149.129792 233.888124 
L 151.785749 218.208919 
L 154.441705 202.122504 
L 157.097662 185.809323 
L 159.753618 169.471045 
L 162.409575 153.326975 
L 165.065531 137.609553 
L 167.721488 122.559072 
L 170.377444 108.417748 
L 173.033401 95.423357 
L 175.689357 83.802649 
L 178.345314 73.764805 
L 181.00127 65.495194 
L 183.657226 59.149682 
L 186.313183 54.849752 
L 188.969139 52.678636 
L 191.625096 52.678636 
L 194.281052 54.849752 
L 196.937009 59.149682 
L 199.592965 65.495194 
L 202.248922 73.764805 
L 204.904878 83.802649 
L 207.560835 95.423357 
L 210.216791 108.417748 
L 212.872748 122.559072 
L 215.528704 137.609553 
L 218.184661 153.326975 
L 220.840617 169.471045 
L 223.496573 185.809323 
L 226.15253 202.122504 
L 228.808486 218.208919 
L 231.464443 233.888124 
L 234.120399 249.003534 
L 236.776356 263.424078 
L 239.432312 277.04491 
L 242.088269 289.787238 
L 244.744225 301.597371 
L 247.400182 312.445114 
L 250.056138 322.321628 
L 252.712095 331.236916 
L 255.368051 339.217063 
L 258.024007 346.301371 
L 260.679964 352.539497 
L 263.33592 357.988708 
L 265.991877 362.711322 
L 268.647833 366.772413 
L 271.30379 370.2378 
L 273.959746 373.172366 
L 276.615703 375.638684 
L 279.271659 377.695976 
L 281.927616 379.399346 
L 284.583572 380.799296 
L 287.239529 381.941454 
L 289.895485 382.866516 
L 292.551441 383.610328 
L 295.207398 384.204102 
L 297.863354 384.674709 
L 300.519311 385.04504 
L 303.175267 385.334393 
L 305.831224 385.558878 
L 308.48718 385.73181 
L 311.143137 385.864094 
L 313.799093 385.964575 
L 316.45505 386.040368 
L 319.111006 386.097141 
L 321.766963 386.139371 
" style="fill:none;stroke:#36a2eb;stroke-linecap:square;"/>
   </g>
   <g id="patch_3">
    <path d="M 36 402.93 
L 538.2 402.93 
" style="fill:none;stroke:#000000;stroke-linecap:square;stroke-linejoin:miter;stroke-width:0.8;"/>
   </g>
   <g id="legend_1">
    <g id="patch_4">
     <path d="M 441.707188 88.29875 
L 528.4 88.29875 
Q 531.2 88.29875 531.2 85.49875 
L 531.2 45.8 
Q 531.2 43 528.4 43 
L 441.707188 43 
Q 438.907188 43 438.907188 45.8 
L 438.907188 85.49875 
Q 438.907188 88.29875 441.707188 88.29875 
z
" style="fill:#ffffff;opacity:0.8;stroke:#cccccc;stroke-linejoin:miter;"/>
    </g>
    <g id="patch_5">
     <path d="M 444.507188 59.237813 
L 472.507188 59.237813 
L 472.507188 49.437813 
L 444.507188 49.437813 
z
" style="fill:#ff6384;opacity:0.5;stroke:#ff6384;stroke-linejoin:miter;"/>
    </g>
    <g id="text_1">
     <!-- base -->
     <defs>
      <path d="M 48.6875 27.296875 
Q 48.6875 37.203125 44.609375 42.84375 
Q 40.53125 48.484375 33.40625 48.484375 
Q 26.265625 48.484375 22.1875 42.84375 
Q 18.109375 37.203125 18.109375 27.296875 
Q 18.109375 17.390625 22.1875 11.75 
Q 26.265625 6.109375 33.40625 6.109375 
Q 40.53125 6.109375 44.609375 11.75 
Q 48.6875 17.390625 48.6875 27.296875 
z
M 18.109375 46.390625 
Q 20.953125 51.265625 25.265625 53.625 
Q 29.59375 56 35.59375 56 
Q 45.5625 56 51.78125 48.09375 
Q 58.015625 40.1875 58.015625 27.296875 
Q 58.015625 14.40625 51.78125 6.484375 
Q 45.5625 -1.421875 35.59375 -1.421875 
Q 29.59375 -1.421875 25.265625 0.953125 
Q 20.953125 3.328125 18.109375 8.203125 
L 18.109375 0 
L 9.078125 0 
L 9.078125 75.984375 
L 18.109375 75.984375 
z
" id="DejaVuSans-98"/>
      <path d="M 34.28125 27.484375 
Q 23.390625 27.484375 19.1875 25 
Q 14.984375 22.515625 14.984375 16.5 
Q 14.984375 11.71875 18.140625 8.90625 
Q 21.296875 6.109375 26.703125 6.109375 
Q 34.1875 6.109375 38.703125 11.40625 
Q 43.21875 16.703125 43.21875 25.484375 
L 43.21875 27.484375 
z
M 52.203125 31.203125 
L 52.203125 0 
L 43.21875 0 
L 43.21875 8.296875 
Q 40.140625 3.328125 35.546875 0.953125 
Q 30.953125 -1.421875 24.3125 -1.421875 
Q 15.921875 -1.421875 10.953125 3.296875 
Q 6 8.015625 6 15.921875 
Q 6 25.140625 12.171875 29.828125 
Q 18.359375 34.515625 30.609375 34.515625 
L 43.21875 34.515625 
L 43.21875 35.40625 
Q 43.21875 41.609375 39.140625 45 
Q 35.0625 48.390625 27.6875 48.390625 
Q 23 48.390625 18.546875 47.265625 
Q 14.109375 46.140625 10.015625 43.890625 
L 10.015625 52.203125 
Q 14.9375 54.109375 19.578125 55.046875 
Q 24.21875 56 28.609375 56 
Q 40.484375 56 46.34375 49.84375 
Q 52.203125 43.703125 52.203125 31.203125 
z
" id="DejaVuSans-97"/>
      <path d="M 44.28125 53.078125 
L 44.28125 44.578125 
Q 40.484375 46.53125 36.375 47.5 
Q 32.28125 48.484375 27.875 48.484375 
Q 21.1875 48.484375 17.84375 46.4375 
Q 14.5 44.390625 14.5 40.28125 
Q 14.5 37.15625 16.890625 35.375 
Q 19.28125 33.59375 26.515625 31.984375 
L 29.59375 31.296875 
Q 39.15625 29.25 43.1875 25.515625 
Q 47.21875 21.78125 47.21875 15.09375 
Q 47.21875 7.46875 41.1875 3.015625 
Q 35.15625 -1.421875 24.609375 -1.421875 
Q 20.21875 -1.421875 15.453125 -0.5625 
Q 10.6875 0.296875 5.421875 2 
L 5.421875 11.28125 
Q 10.40625 8.6875 15.234375 7.390625 
Q 20.0625 6.109375 24.8125 6.109375 
Q 31.15625 6.109375 34.5625 8.28125 
Q 37.984375 10.453125 37.984375 14.40625 
Q 37.984375 18.0625 35.515625 20.015625 
Q 33.0625 21.96875 24.703125 23.78125 
L 21.578125 24.515625 
Q 13.234375 26.265625 9.515625 29.90625 
Q 5.8125 33.546875 5.8125 39.890625 
Q 5.8125 47.609375 11.28125 51.796875 
Q 16.75 56 26.8125 56 
Q 31.78125 56 36.171875 55.265625 
Q 40.578125 54.546875 44.28125 53.078125 
z
" id="DejaVuSans-115"/>
      <path d="M 56.203125 29.59375 
L 56.203125 25.203125 
L 14.890625 25.203125 
Q 15.484375 15.921875 20.484375 11.0625 
Q 25.484375 6.203125 34.421875 6.203125 
Q 39.59375 6.203125 44.453125 7.46875 
Q 49.3125 8.734375 54.109375 11.28125 
L 54.109375 2.78125 
Q 49.265625 0.734375 44.1875 -0.34375 
Q 39.109375 -1.421875 33.890625 -1.421875 
Q 20.796875 -1.421875 13.15625 6.1875 
Q 5.515625 13.8125 5.515625 26.8125 
Q 5.515625 40.234375 12.765625 48.109375 
Q 20.015625 56 32.328125 56 
Q 43.359375 56 49.78125 48.890625 
Q 56.203125 41.796875 56.203125 29.59375 
z
M 47.21875 32.234375 
Q 47.125 39.59375 43.09375 43.984375 
Q 39.0625 48.390625 32.421875 48.390625 
Q 24.90625 48.390625 20.390625 44.140625 
Q 15.875 39.890625 15.1875 32.171875 
z
" id="DejaVuSans-101"/>
     </defs>
     <g transform="translate(483.707188 59.237813)scale(0.14 -0.14)">
      <use xlink:href="#DejaVuSans-98"/>
      <use x="63.476562" xlink:href="#DejaVuSans-97"/>
      <use x="124.755859" xlink:href="#DejaVuSans-115"/>
      <use x="176.855469" xlink:href="#DejaVuSans-101"/>
     </g>
    </g>
    <g id="patch_6">
     <path d="M 444.507188 79.787188 
L 472.507188 79.787188 
L 472.507188 69.987188 
L 444.507188 69.987188 
z
" style="fill:#36a2eb;opacity:0.5;stroke:#36a2eb;stroke-linejoin:miter;"/>
    </g>
    <g id="text_2">
     <!-- osago -->
     <defs>
      <path d="M 30.609375 48.390625 
Q 23.390625 48.390625 19.1875 42.75 
Q 14.984375 37.109375 14.984375 27.296875 
Q 14.984375 17.484375 19.15625 11.84375 
Q 23.34375 6.203125 30.609375 6.203125 
Q 37.796875 6.203125 41.984375 11.859375 
Q 46.1875 17.53125 46.1875 27.296875 
Q 46.1875 37.015625 41.984375 42.703125 
Q 37.796875 48.390625 30.609375 48.390625 
z
M 30.609375 56 
Q 42.328125 56 49.015625 48.375 
Q 55.71875 40.765625 55.71875 27.296875 
Q 55.71875 13.875 49.015625 6.21875 
Q 42.328125 -1.421875 30.609375 -1.421875 
Q 18.84375 -1.421875 12.171875 6.21875 
Q 5.515625 13.875 5.515625 27.296875 
Q 5.515625 40.765625 12.171875 48.375 
Q 18.84375 56 30.609375 56 
z
" id="DejaVuSans-111"/>
      <path d="M 45.40625 27.984375 
Q 45.40625 37.75 41.375 43.109375 
Q 37.359375 48.484375 30.078125 48.484375 
Q 22.859375 48.484375 18.828125 43.109375 
Q 14.796875 37.75 14.796875 27.984375 
Q 14.796875 18.265625 18.828125 12.890625 
Q 22.859375 7.515625 30.078125 7.515625 
Q 37.359375 7.515625 41.375 12.890625 
Q 45.40625 18.265625 45.40625 27.984375 
z
M 54.390625 6.78125 
Q 54.390625 -7.171875 48.1875 -13.984375 
Q 42 -20.796875 29.203125 -20.796875 
Q 24.46875 -20.796875 20.265625 -20.09375 
Q 16.0625 -19.390625 12.109375 -17.921875 
L 12.109375 -9.1875 
Q 16.0625 -11.328125 19.921875 -12.34375 
Q 23.78125 -13.375 27.78125 -13.375 
Q 36.625 -13.375 41.015625 -8.765625 
Q 45.40625 -4.15625 45.40625 5.171875 
L 45.40625 9.625 
Q 42.625 4.78125 38.28125 2.390625 
Q 33.9375 0 27.875 0 
Q 17.828125 0 11.671875 7.65625 
Q 5.515625 15.328125 5.515625 27.984375 
Q 5.515625 40.671875 11.671875 48.328125 
Q 17.828125 56 27.875 56 
Q 33.9375 56 38.28125 53.609375 
Q 42.625 51.21875 45.40625 46.390625 
L 45.40625 54.6875 
L 54.390625 54.6875 
z
" id="DejaVuSans-103"/>
     </defs>
     <g transform="translate(483.707188 79.787188)scale(0.14 -0.14)">
      <use xlink:href="#DejaVuSans-111"/>
      <use x="61.181641" xlink:href="#DejaVuSans-115"/>
      <use x="113.28125" xlink:href="#DejaVuSans-97"/>
      <use x="174.560547" xlink:href="#DejaVuSans-103"/>
      <use x="238.037109" xlink:href="#DejaVuSans-111"/>
     </g>
    </g>
   </g>
  </g>
  <g id="axes_2">
   <g id="patch_7">
    <path d="M 36 525.24 
L 538.2 525.24 
L 538.2 402.93 
L 36 402.93 
z
" style="fill:none;"/>
   </g>
   <g id="patch_8">
    <path clip-path="url(#p4df01a3b9c)" d="M 259.051027 519.680455 
L 427.638454 519.680455 
L 427.638454 482.616818 
L 259.051027 482.616818 
z
" style="fill:#ff6384;opacity:0.5;"/>
   </g>
   <g id="patch_9">
    <path clip-path="url(#p4df01a3b9c)" d="M 125.876894 445.553182 
L 254.717342 445.553182 
L 254.717342 408.489545 
L 125.876894 408.489545 
z
" style="fill:#36a2eb;opacity:0.5;"/>
   </g>
   <g id="matplotlib.axis_1">
    <g id="xtick_1">
     <g id="line2d_3">
      <defs>
       <path d="M 0 0 
L 0 3.5 
" id="m858c4e6f0d" style="stroke:#000000;stroke-width:0.8;"/>
      </defs>
      <g>
       <use style="stroke:#000000;stroke-width:0.8;" x="82.661177" xlink:href="#m858c4e6f0d" y="525.24"/>
      </g>
     </g>
     <g id="text_3">
      <!-- 6.5 -->
      <defs>
       <path d="M 33.015625 40.375 
Q 26.375 40.375 22.484375 35.828125 
Q 18.609375 31.296875 18.609375 23.390625 
Q 18.609375 15.53125 22.484375 10.953125 
Q 26.375 6.390625 33.015625 6.390625 
Q 39.65625 6.390625 43.53125 10.953125 
Q 47.40625 15.53125 47.40625 23.390625 
Q 47.40625 31.296875 43.53125 35.828125 
Q 39.65625 40.375 33.015625 40.375 
z
M 52.59375 71.296875 
L 52.59375 62.3125 
Q 48.875 64.0625 45.09375 64.984375 
Q 41.3125 65.921875 37.59375 65.921875 
Q 27.828125 65.921875 22.671875 59.328125 
Q 17.53125 52.734375 16.796875 39.40625 
Q 19.671875 43.65625 24.015625 45.921875 
Q 28.375 48.1875 33.59375 48.1875 
Q 44.578125 48.1875 50.953125 41.515625 
Q 57.328125 34.859375 57.328125 23.390625 
Q 57.328125 12.15625 50.6875 5.359375 
Q 44.046875 -1.421875 33.015625 -1.421875 
Q 20.359375 -1.421875 13.671875 8.265625 
Q 6.984375 17.96875 6.984375 36.375 
Q 6.984375 53.65625 15.1875 63.9375 
Q 23.390625 74.21875 37.203125 74.21875 
Q 40.921875 74.21875 44.703125 73.484375 
Q 48.484375 72.75 52.59375 71.296875 
z
" id="DejaVuSans-54"/>
       <path d="M 10.6875 12.40625 
L 21 12.40625 
L 21 0 
L 10.6875 0 
z
" id="DejaVuSans-46"/>
       <path d="M 10.796875 72.90625 
L 49.515625 72.90625 
L 49.515625 64.59375 
L 19.828125 64.59375 
L 19.828125 46.734375 
Q 21.96875 47.46875 24.109375 47.828125 
Q 26.265625 48.1875 28.421875 48.1875 
Q 40.625 48.1875 47.75 41.5 
Q 54.890625 34.8125 54.890625 23.390625 
Q 54.890625 11.625 47.5625 5.09375 
Q 40.234375 -1.421875 26.90625 -1.421875 
Q 22.3125 -1.421875 17.546875 -0.640625 
Q 12.796875 0.140625 7.71875 1.703125 
L 7.71875 11.625 
Q 12.109375 9.234375 16.796875 8.0625 
Q 21.484375 6.890625 26.703125 6.890625 
Q 35.15625 6.890625 40.078125 11.328125 
Q 45.015625 15.765625 45.015625 23.390625 
Q 45.015625 31 40.078125 35.4375 
Q 35.15625 39.890625 26.703125 39.890625 
Q 22.75 39.890625 18.8125 39.015625 
Q 14.890625 38.140625 10.796875 36.28125 
z
" id="DejaVuSans-53"/>
      </defs>
      <g transform="translate(71.528989 542.877813)scale(0.14 -0.14)">
       <use xlink:href="#DejaVuSans-54"/>
       <use x="63.623047" xlink:href="#DejaVuSans-46"/>
       <use x="95.410156" xlink:href="#DejaVuSans-53"/>
      </g>
     </g>
    </g>
    <g id="xtick_2">
     <g id="line2d_4">
      <g>
       <use style="stroke:#000000;stroke-width:0.8;" x="145.961542" xlink:href="#m858c4e6f0d" y="525.24"/>
      </g>
     </g>
     <g id="text_4">
      <!-- 7.0 -->
      <defs>
       <path d="M 8.203125 72.90625 
L 55.078125 72.90625 
L 55.078125 68.703125 
L 28.609375 0 
L 18.3125 0 
L 43.21875 64.59375 
L 8.203125 64.59375 
z
" id="DejaVuSans-55"/>
       <path d="M 31.78125 66.40625 
Q 24.171875 66.40625 20.328125 58.90625 
Q 16.5 51.421875 16.5 36.375 
Q 16.5 21.390625 20.328125 13.890625 
Q 24.171875 6.390625 31.78125 6.390625 
Q 39.453125 6.390625 43.28125 13.890625 
Q 47.125 21.390625 47.125 36.375 
Q 47.125 51.421875 43.28125 58.90625 
Q 39.453125 66.40625 31.78125 66.40625 
z
M 31.78125 74.21875 
Q 44.046875 74.21875 50.515625 64.515625 
Q 56.984375 54.828125 56.984375 36.375 
Q 56.984375 17.96875 50.515625 8.265625 
Q 44.046875 -1.421875 31.78125 -1.421875 
Q 19.53125 -1.421875 13.0625 8.265625 
Q 6.59375 17.96875 6.59375 36.375 
Q 6.59375 54.828125 13.0625 64.515625 
Q 19.53125 74.21875 31.78125 74.21875 
z
" id="DejaVuSans-48"/>
      </defs>
      <g transform="translate(134.829354 542.877813)scale(0.14 -0.14)">
       <use xlink:href="#DejaVuSans-55"/>
       <use x="63.623047" xlink:href="#DejaVuSans-46"/>
       <use x="95.410156" xlink:href="#DejaVuSans-48"/>
      </g>
     </g>
    </g>
    <g id="xtick_3">
     <g id="line2d_5">
      <g>
       <use style="stroke:#000000;stroke-width:0.8;" x="209.261907" xlink:href="#m858c4e6f0d" y="525.24"/>
      </g>
     </g>
     <g id="text_5">
      <!-- 7.5 -->
      <g transform="translate(198.12972 542.877813)scale(0.14 -0.14)">
       <use xlink:href="#DejaVuSans-55"/>
       <use x="63.623047" xlink:href="#DejaVuSans-46"/>
       <use x="95.410156" xlink:href="#DejaVuSans-53"/>
      </g>
     </g>
    </g>
    <g id="xtick_4">
     <g id="line2d_6">
      <g>
       <use style="stroke:#000000;stroke-width:0.8;" x="272.562272" xlink:href="#m858c4e6f0d" y="525.24"/>
      </g>
     </g>
     <g id="text_6">
      <!-- 8.0 -->
      <defs>
       <path d="M 31.78125 34.625 
Q 24.75 34.625 20.71875 30.859375 
Q 16.703125 27.09375 16.703125 20.515625 
Q 16.703125 13.921875 20.71875 10.15625 
Q 24.75 6.390625 31.78125 6.390625 
Q 38.8125 6.390625 42.859375 10.171875 
Q 46.921875 13.96875 46.921875 20.515625 
Q 46.921875 27.09375 42.890625 30.859375 
Q 38.875 34.625 31.78125 34.625 
z
M 21.921875 38.8125 
Q 15.578125 40.375 12.03125 44.71875 
Q 8.5 49.078125 8.5 55.328125 
Q 8.5 64.0625 14.71875 69.140625 
Q 20.953125 74.21875 31.78125 74.21875 
Q 42.671875 74.21875 48.875 69.140625 
Q 55.078125 64.0625 55.078125 55.328125 
Q 55.078125 49.078125 51.53125 44.71875 
Q 48 40.375 41.703125 38.8125 
Q 48.828125 37.15625 52.796875 32.3125 
Q 56.78125 27.484375 56.78125 20.515625 
Q 56.78125 9.90625 50.3125 4.234375 
Q 43.84375 -1.421875 31.78125 -1.421875 
Q 19.734375 -1.421875 13.25 4.234375 
Q 6.78125 9.90625 6.78125 20.515625 
Q 6.78125 27.484375 10.78125 32.3125 
Q 14.796875 37.15625 21.921875 38.8125 
z
M 18.3125 54.390625 
Q 18.3125 48.734375 21.84375 45.5625 
Q 25.390625 42.390625 31.78125 42.390625 
Q 38.140625 42.390625 41.71875 45.5625 
Q 45.3125 48.734375 45.3125 54.390625 
Q 45.3125 60.0625 41.71875 63.234375 
Q 38.140625 66.40625 31.78125 66.40625 
Q 25.390625 66.40625 21.84375 63.234375 
Q 18.3125 60.0625 18.3125 54.390625 
z
" id="DejaVuSans-56"/>
      </defs>
      <g transform="translate(261.430085 542.877813)scale(0.14 -0.14)">
       <use xlink:href="#DejaVuSans-56"/>
       <use x="63.623047" xlink:href="#DejaVuSans-46"/>
       <use x="95.410156" xlink:href="#DejaVuSans-48"/>
      </g>
     </g>
    </g>
    <g id="xtick_5">
     <g id="line2d_7">
      <g>
       <use style="stroke:#000000;stroke-width:0.8;" x="335.862637" xlink:href="#m858c4e6f0d" y="525.24"/>
      </g>
     </g>
     <g id="text_7">
      <!-- 8.5 -->
      <g transform="translate(324.73045 542.877813)scale(0.14 -0.14)">
       <use xlink:href="#DejaVuSans-56"/>
       <use x="63.623047" xlink:href="#DejaVuSans-46"/>
       <use x="95.410156" xlink:href="#DejaVuSans-53"/>
      </g>
     </g>
    </g>
    <g id="xtick_6">
     <g id="line2d_8">
      <g>
       <use style="stroke:#000000;stroke-width:0.8;" x="399.163003" xlink:href="#m858c4e6f0d" y="525.24"/>
      </g>
     </g>
     <g id="text_8">
      <!-- 9.0 -->
      <defs>
       <path d="M 10.984375 1.515625 
L 10.984375 10.5 
Q 14.703125 8.734375 18.5 7.8125 
Q 22.3125 6.890625 25.984375 6.890625 
Q 35.75 6.890625 40.890625 13.453125 
Q 46.046875 20.015625 46.78125 33.40625 
Q 43.953125 29.203125 39.59375 26.953125 
Q 35.25 24.703125 29.984375 24.703125 
Q 19.046875 24.703125 12.671875 31.3125 
Q 6.296875 37.9375 6.296875 49.421875 
Q 6.296875 60.640625 12.9375 67.421875 
Q 19.578125 74.21875 30.609375 74.21875 
Q 43.265625 74.21875 49.921875 64.515625 
Q 56.59375 54.828125 56.59375 36.375 
Q 56.59375 19.140625 48.40625 8.859375 
Q 40.234375 -1.421875 26.421875 -1.421875 
Q 22.703125 -1.421875 18.890625 -0.6875 
Q 15.09375 0.046875 10.984375 1.515625 
z
M 30.609375 32.421875 
Q 37.25 32.421875 41.125 36.953125 
Q 45.015625 41.5 45.015625 49.421875 
Q 45.015625 57.28125 41.125 61.84375 
Q 37.25 66.40625 30.609375 66.40625 
Q 23.96875 66.40625 20.09375 61.84375 
Q 16.21875 57.28125 16.21875 49.421875 
Q 16.21875 41.5 20.09375 36.953125 
Q 23.96875 32.421875 30.609375 32.421875 
z
" id="DejaVuSans-57"/>
      </defs>
      <g transform="translate(388.030815 542.877813)scale(0.14 -0.14)">
       <use xlink:href="#DejaVuSans-57"/>
       <use x="63.623047" xlink:href="#DejaVuSans-46"/>
       <use x="95.410156" xlink:href="#DejaVuSans-48"/>
      </g>
     </g>
    </g>
    <g id="xtick_7">
     <g id="line2d_9">
      <g>
       <use style="stroke:#000000;stroke-width:0.8;" x="462.463368" xlink:href="#m858c4e6f0d" y="525.24"/>
      </g>
     </g>
     <g id="text_9">
      <!-- 9.5 -->
      <g transform="translate(451.33118 542.877813)scale(0.14 -0.14)">
       <use xlink:href="#DejaVuSans-57"/>
       <use x="63.623047" xlink:href="#DejaVuSans-46"/>
       <use x="95.410156" xlink:href="#DejaVuSans-53"/>
      </g>
     </g>
    </g>
    <g id="xtick_8">
     <g id="line2d_10">
      <g>
       <use style="stroke:#000000;stroke-width:0.8;" x="525.763733" xlink:href="#m858c4e6f0d" y="525.24"/>
      </g>
     </g>
     <g id="text_10">
      <!-- 10.0 -->
      <defs>
       <path d="M 12.40625 8.296875 
L 28.515625 8.296875 
L 28.515625 63.921875 
L 10.984375 60.40625 
L 10.984375 69.390625 
L 28.421875 72.90625 
L 38.28125 72.90625 
L 38.28125 8.296875 
L 54.390625 8.296875 
L 54.390625 0 
L 12.40625 0 
z
" id="DejaVuSans-49"/>
      </defs>
      <g transform="translate(510.177795 542.877813)scale(0.14 -0.14)">
       <use xlink:href="#DejaVuSans-49"/>
       <use x="63.623047" xlink:href="#DejaVuSans-48"/>
       <use x="127.246094" xlink:href="#DejaVuSans-46"/>
       <use x="159.033203" xlink:href="#DejaVuSans-48"/>
      </g>
     </g>
    </g>
   </g>
   <g id="line2d_11">
    <path clip-path="url(#p4df01a3b9c)" d="M 343.344741 525.24 
L 343.344741 402.93 
" style="fill:none;stroke:#ff6384;stroke-dasharray:5.55,2.4;stroke-dashoffset:0;stroke-opacity:0.8;stroke-width:1.5;"/>
   </g>
   <g id="line2d_12">
    <path clip-path="url(#p4df01a3b9c)" d="M 190.297118 525.24 
L 190.297118 402.93 
" style="fill:none;stroke:#36a2eb;stroke-dasharray:5.55,2.4;stroke-dashoffset:0;stroke-opacity:0.8;stroke-width:1.5;"/>
   </g>
   <g id="patch_10">
    <path d="M 36 525.24 
L 538.2 525.24 
" style="fill:none;stroke:#000000;stroke-linecap:square;stroke-linejoin:miter;stroke-width:0.8;"/>
   </g>
  </g>
 </g>
 <defs>
  <clipPath id="p99ba1f14fa">
   <rect height="366.93" width="502.2" x="36" y="36"/>
  </clipPath>
  <clipPath id="p4df01a3b9c">
   <rect height="122.31" width="502.2" x="36" y="402.93"/>
  </clipPath>
 </defs>
</svg>
