<?xml version="1.0" encoding="utf-8" standalone="no"?>
<!DOCTYPE svg PUBLIC "-//W3C//DTD SVG 1.1//EN"
  "http://www.w3.org/Graphics/SVG/1.1/DTD/svg11.dtd">
<!-- Created with matplotlib (https://matplotlib.org/) -->
<svg height="591.509375pt" version="1.1" viewBox="0 0 574.2 591.509375" width="574.2pt" xmlns="http://www.w3.org/2000/svg" xmlns:xlink="http://www.w3.org/1999/xlink">
 <defs>
  <style type="text/css">
*{stroke-linecap:butt;stroke-linejoin:round;}
  </style>
 </defs>
 <g id="figure_1">
  <g id="patch_1">
   <path d="M 0 591.509375 
L 574.2 591.509375 
L 574.2 0 
L 0 0 
z
" style="fill:none;"/>
  </g>
  <g id="axes_1">
   <g id="patch_2">
    <path d="M 36 410.22 
L 538.2 410.22 
L 538.2 36 
L 36 36 
z
" style="fill:none;"/>
   </g>
   <g id="PolyCollection_1">
    <defs>
     <path d="M 84.663346 -198.299375 
L 84.663346 -198.41288 
L 89.013946 -198.455681 
L 93.364546 -198.51322 
L 97.715145 -198.590036 
L 102.065745 -198.691875 
L 106.416345 -198.825945 
L 110.766945 -199.001212 
L 115.117545 -199.228728 
L 119.468145 -199.521989 
L 123.818744 -199.897321 
L 128.169344 -200.374284 
L 132.519944 -200.976076 
L 136.870544 -201.729933 
L 141.221144 -202.667488 
L 145.571743 -203.82507 
L 149.922343 -205.243925 
L 154.272943 -206.970299 
L 158.623543 -209.055373 
L 162.974143 -211.554998 
L 167.324742 -214.529193 
L 171.675342 -218.041379 
L 176.025942 -222.157312 
L 180.376542 -226.943703 
L 184.727142 -232.466502 
L 189.077741 -238.788871 
L 193.428341 -245.968849 
L 197.778941 -254.056764 
L 202.129541 -263.092448 
L 206.480141 -273.102339 
L 210.830741 -284.096575 
L 215.18134 -296.066198 
L 219.53194 -308.980604 
L 223.88254 -322.785379 
L 228.23314 -337.400665 
L 232.58374 -352.7202 
L 236.934339 -368.611144 
L 241.284939 -384.914798 
L 245.635539 -401.44828 
L 249.986139 -418.007198 
L 254.336739 -434.369285 
L 258.687338 -450.298962 
L 263.037938 -465.552692 
L 267.388538 -479.884987 
L 271.739138 -493.054861 
L 276.089738 -504.832501 
L 280.440337 -515.0059 
L 284.790937 -523.387188 
L 289.141537 -529.818393 
L 293.492137 -534.176391 
L 297.842737 -536.376827 
L 302.193337 -536.376827 
L 306.543936 -534.176391 
L 310.894536 -529.818393 
L 315.245136 -523.387188 
L 319.595736 -515.0059 
L 323.946336 -504.832501 
L 328.296935 -493.054861 
L 332.647535 -479.884987 
L 336.998135 -465.552692 
L 341.348735 -450.298962 
L 345.699335 -434.369285 
L 350.049934 -418.007198 
L 354.400534 -401.44828 
L 358.751134 -384.914798 
L 363.101734 -368.611144 
L 367.452334 -352.7202 
L 371.802934 -337.400665 
L 376.153533 -322.785379 
L 380.504133 -308.980604 
L 384.854733 -296.066198 
L 389.205333 -284.096575 
L 393.555933 -273.102339 
L 397.906532 -263.092448 
L 402.257132 -254.056764 
L 406.607732 -245.968849 
L 410.958332 -238.788871 
L 415.308932 -232.466502 
L 419.659531 -226.943703 
L 424.010131 -222.157312 
L 428.360731 -218.041379 
L 432.711331 -214.529193 
L 437.061931 -211.554998 
L 441.41253 -209.055373 
L 445.76313 -206.970299 
L 450.11373 -205.243925 
L 454.46433 -203.82507 
L 458.81493 -202.667488 
L 463.16553 -201.729933 
L 467.516129 -200.976076 
L 471.866729 -200.374284 
L 476.217329 -199.897321 
L 480.567929 -199.521989 
L 484.918529 -199.228728 
L 489.269128 -199.001212 
L 493.619728 -198.825945 
L 497.970328 -198.691875 
L 502.320928 -198.590036 
L 506.671528 -198.51322 
L 511.022127 -198.455681 
L 515.372727 -198.41288 
L 515.372727 -198.299375 
L 515.372727 -198.299375 
L 511.022127 -198.299375 
L 506.671528 -198.299375 
L 502.320928 -198.299375 
L 497.970328 -198.299375 
L 493.619728 -198.299375 
L 489.269128 -198.299375 
L 484.918529 -198.299375 
L 480.567929 -198.299375 
L 476.217329 -198.299375 
L 471.866729 -198.299375 
L 467.516129 -198.299375 
L 463.16553 -198.299375 
L 458.81493 -198.299375 
L 454.46433 -198.299375 
L 450.11373 -198.299375 
L 445.76313 -198.299375 
L 441.41253 -198.299375 
L 437.061931 -198.299375 
L 432.711331 -198.299375 
L 428.360731 -198.299375 
L 424.010131 -198.299375 
L 419.659531 -198.299375 
L 415.308932 -198.299375 
L 410.958332 -198.299375 
L 406.607732 -198.299375 
L 402.257132 -198.299375 
L 397.906532 -198.299375 
L 393.555933 -198.299375 
L 389.205333 -198.299375 
L 384.854733 -198.299375 
L 380.504133 -198.299375 
L 376.153533 -198.299375 
L 371.802934 -198.299375 
L 367.452334 -198.299375 
L 363.101734 -198.299375 
L 358.751134 -198.299375 
L 354.400534 -198.299375 
L 350.049934 -198.299375 
L 345.699335 -198.299375 
L 341.348735 -198.299375 
L 336.998135 -198.299375 
L 332.647535 -198.299375 
L 328.296935 -198.299375 
L 323.946336 -198.299375 
L 319.595736 -198.299375 
L 315.245136 -198.299375 
L 310.894536 -198.299375 
L 306.543936 -198.299375 
L 302.193337 -198.299375 
L 297.842737 -198.299375 
L 293.492137 -198.299375 
L 289.141537 -198.299375 
L 284.790937 -198.299375 
L 280.440337 -198.299375 
L 276.089738 -198.299375 
L 271.739138 -198.299375 
L 267.388538 -198.299375 
L 263.037938 -198.299375 
L 258.687338 -198.299375 
L 254.336739 -198.299375 
L 249.986139 -198.299375 
L 245.635539 -198.299375 
L 241.284939 -198.299375 
L 236.934339 -198.299375 
L 232.58374 -198.299375 
L 228.23314 -198.299375 
L 223.88254 -198.299375 
L 219.53194 -198.299375 
L 215.18134 -198.299375 
L 210.830741 -198.299375 
L 206.480141 -198.299375 
L 202.129541 -198.299375 
L 197.778941 -198.299375 
L 193.428341 -198.299375 
L 189.077741 -198.299375 
L 184.727142 -198.299375 
L 180.376542 -198.299375 
L 176.025942 -198.299375 
L 171.675342 -198.299375 
L 167.324742 -198.299375 
L 162.974143 -198.299375 
L 158.623543 -198.299375 
L 154.272943 -198.299375 
L 149.922343 -198.299375 
L 145.571743 -198.299375 
L 141.221144 -198.299375 
L 136.870544 -198.299375 
L 132.519944 -198.299375 
L 128.169344 -198.299375 
L 123.818744 -198.299375 
L 119.468145 -198.299375 
L 115.117545 -198.299375 
L 110.766945 -198.299375 
L 106.416345 -198.299375 
L 102.065745 -198.299375 
L 97.715145 -198.299375 
L 93.364546 -198.299375 
L 89.013946 -198.299375 
L 84.663346 -198.299375 
z
" id="m060a85a69b" style="stroke:#ff6384;stroke-opacity:0.5;"/>
    </defs>
    <g clip-path="url(#pa3e1b823a5)">
     <use style="fill:#ff6384;fill-opacity:0.5;stroke:#ff6384;stroke-opacity:0.5;" x="0" xlink:href="#m060a85a69b" y="591.509375"/>
    </g>
   </g>
   <g id="PolyCollection_2">
    <defs>
     <path d="M 58.827273 -198.299375 
L 58.827273 -198.413593 
L 63.150729 -198.456662 
L 67.474185 -198.514563 
L 71.79764 -198.591861 
L 76.121096 -198.694339 
L 80.444552 -198.829251 
L 84.768008 -199.005619 
L 89.091464 -199.234563 
L 93.41492 -199.529665 
L 97.738376 -199.907354 
L 102.061832 -200.387311 
L 106.385288 -200.992881 
L 110.708744 -201.751471 
L 115.032199 -202.694912 
L 119.355655 -203.859762 
L 123.679111 -205.287525 
L 128.002567 -207.024738 
L 132.326023 -209.122902 
L 136.649479 -211.638221 
L 140.972935 -214.631088 
L 145.296391 -218.165325 
L 149.619847 -222.3071 
L 153.943303 -227.123541 
L 158.266758 -232.681014 
L 162.590214 -239.043076 
L 166.91367 -246.268132 
L 171.237126 -254.406825 
L 175.560582 -263.499238 
L 179.884038 -273.571974 
L 184.207494 -284.635235 
L 188.53095 -296.680007 
L 192.854406 -309.675493 
L 197.177862 -323.566938 
L 201.501317 -338.273983 
L 205.824773 -353.689699 
L 210.148229 -369.680411 
L 214.471685 -386.086424 
L 218.795141 -402.723708 
L 223.118597 -419.386587 
L 227.442053 -435.8514 
L 231.765509 -451.881089 
L 236.088965 -467.230586 
L 240.412421 -481.652863 
L 244.735876 -494.905422 
L 249.059332 -506.757005 
L 253.382788 -516.994276 
L 257.706244 -525.428184 
L 262.0297 -531.899766 
L 266.353156 -536.285125 
L 270.676612 -538.499375 
L 275.000068 -538.499375 
L 279.323524 -536.285125 
L 283.64698 -531.899766 
L 287.970435 -525.428184 
L 292.293891 -516.994276 
L 296.617347 -506.757005 
L 300.940803 -494.905422 
L 305.264259 -481.652863 
L 309.587715 -467.230586 
L 313.911171 -451.881089 
L 318.234627 -435.8514 
L 322.558083 -419.386587 
L 326.881539 -402.723708 
L 331.204994 -386.086424 
L 335.52845 -369.680411 
L 339.851906 -353.689699 
L 344.175362 -338.273983 
L 348.498818 -323.566938 
L 352.822274 -309.675493 
L 357.14573 -296.680007 
L 361.469186 -284.635235 
L 365.792642 -273.571974 
L 370.116098 -263.499238 
L 374.439553 -254.406825 
L 378.763009 -246.268132 
L 383.086465 -239.043076 
L 387.409921 -232.681014 
L 391.733377 -227.123541 
L 396.056833 -222.3071 
L 400.380289 -218.165325 
L 404.703745 -214.631088 
L 409.027201 -211.638221 
L 413.350657 -209.122902 
L 417.674112 -207.024738 
L 421.997568 -205.287525 
L 426.321024 -203.859762 
L 430.64448 -202.694912 
L 434.967936 -201.751471 
L 439.291392 -200.992881 
L 443.614848 -200.387311 
L 447.938304 -199.907354 
L 452.26176 -199.529665 
L 456.585216 -199.234563 
L 460.908671 -199.005619 
L 465.232127 -198.829251 
L 469.555583 -198.694339 
L 473.879039 -198.591861 
L 478.202495 -198.514563 
L 482.525951 -198.456662 
L 486.849407 -198.413593 
L 486.849407 -198.299375 
L 486.849407 -198.299375 
L 482.525951 -198.299375 
L 478.202495 -198.299375 
L 473.879039 -198.299375 
L 469.555583 -198.299375 
L 465.232127 -198.299375 
L 460.908671 -198.299375 
L 456.585216 -198.299375 
L 452.26176 -198.299375 
L 447.938304 -198.299375 
L 443.614848 -198.299375 
L 439.291392 -198.299375 
L 434.967936 -198.299375 
L 430.64448 -198.299375 
L 426.321024 -198.299375 
L 421.997568 -198.299375 
L 417.674112 -198.299375 
L 413.350657 -198.299375 
L 409.027201 -198.299375 
L 404.703745 -198.299375 
L 400.380289 -198.299375 
L 396.056833 -198.299375 
L 391.733377 -198.299375 
L 387.409921 -198.299375 
L 383.086465 -198.299375 
L 378.763009 -198.299375 
L 374.439553 -198.299375 
L 370.116098 -198.299375 
L 365.792642 -198.299375 
L 361.469186 -198.299375 
L 357.14573 -198.299375 
L 352.822274 -198.299375 
L 348.498818 -198.299375 
L 344.175362 -198.299375 
L 339.851906 -198.299375 
L 335.52845 -198.299375 
L 331.204994 -198.299375 
L 326.881539 -198.299375 
L 322.558083 -198.299375 
L 318.234627 -198.299375 
L 313.911171 -198.299375 
L 309.587715 -198.299375 
L 305.264259 -198.299375 
L 300.940803 -198.299375 
L 296.617347 -198.299375 
L 292.293891 -198.299375 
L 287.970435 -198.299375 
L 283.64698 -198.299375 
L 279.323524 -198.299375 
L 275.000068 -198.299375 
L 270.676612 -198.299375 
L 266.353156 -198.299375 
L 262.0297 -198.299375 
L 257.706244 -198.299375 
L 253.382788 -198.299375 
L 249.059332 -198.299375 
L 244.735876 -198.299375 
L 240.412421 -198.299375 
L 236.088965 -198.299375 
L 231.765509 -198.299375 
L 227.442053 -198.299375 
L 223.118597 -198.299375 
L 218.795141 -198.299375 
L 214.471685 -198.299375 
L 210.148229 -198.299375 
L 205.824773 -198.299375 
L 201.501317 -198.299375 
L 197.177862 -198.299375 
L 192.854406 -198.299375 
L 188.53095 -198.299375 
L 184.207494 -198.299375 
L 179.884038 -198.299375 
L 175.560582 -198.299375 
L 171.237126 -198.299375 
L 166.91367 -198.299375 
L 162.590214 -198.299375 
L 158.266758 -198.299375 
L 153.943303 -198.299375 
L 149.619847 -198.299375 
L 145.296391 -198.299375 
L 140.972935 -198.299375 
L 136.649479 -198.299375 
L 132.326023 -198.299375 
L 128.002567 -198.299375 
L 123.679111 -198.299375 
L 119.355655 -198.299375 
L 115.032199 -198.299375 
L 110.708744 -198.299375 
L 106.385288 -198.299375 
L 102.061832 -198.299375 
L 97.738376 -198.299375 
L 93.41492 -198.299375 
L 89.091464 -198.299375 
L 84.768008 -198.299375 
L 80.444552 -198.299375 
L 76.121096 -198.299375 
L 71.79764 -198.299375 
L 67.474185 -198.299375 
L 63.150729 -198.299375 
L 58.827273 -198.299375 
z
" id="m5f4b98fc7b" style="stroke:#36a2eb;stroke-opacity:0.5;"/>
    </defs>
    <g clip-path="url(#pa3e1b823a5)">
     <use style="fill:#36a2eb;fill-opacity:0.5;stroke:#36a2eb;stroke-opacity:0.5;" x="0" xlink:href="#m5f4b98fc7b" y="591.509375"/>
    </g>
   </g>
   <g id="line2d_1">
    <path clip-path="url(#pa3e1b823a5)" d="M 84.663346 393.096495 
L 89.013946 393.053694 
L 93.364546 392.996155 
L 97.715145 392.919339 
L 102.065745 392.8175 
L 106.416345 392.68343 
L 110.766945 392.508163 
L 115.117545 392.280647 
L 119.468145 391.987386 
L 123.818744 391.612054 
L 128.169344 391.135091 
L 132.519944 390.533299 
L 136.870544 389.779442 
L 141.221144 388.841887 
L 145.571743 387.684305 
L 149.922343 386.26545 
L 154.272943 384.539076 
L 158.623543 382.454002 
L 162.974143 379.954377 
L 167.324742 376.980182 
L 171.675342 373.467996 
L 176.025942 369.352063 
L 180.376542 364.565672 
L 184.727142 359.042873 
L 189.077741 352.720504 
L 193.428341 345.540526 
L 197.778941 337.452611 
L 202.129541 328.416927 
L 206.480141 318.407036 
L 210.830741 307.4128 
L 215.18134 295.443177 
L 219.53194 282.528771 
L 223.88254 268.723996 
L 228.23314 254.10871 
L 232.58374 238.789175 
L 236.934339 222.898231 
L 241.284939 206.594577 
L 245.635539 190.061095 
L 249.986139 173.502177 
L 254.336739 157.14009 
L 258.687338 141.210413 
L 263.037938 125.956683 
L 267.388538 111.624388 
L 271.739138 98.454514 
L 276.089738 86.676874 
L 280.440337 76.503475 
L 284.790937 68.122187 
L 289.141537 61.690982 
L 293.492137 57.332984 
L 297.842737 55.132548 
L 302.193337 55.132548 
L 306.543936 57.332984 
L 310.894536 61.690982 
L 315.245136 68.122187 
L 319.595736 76.503475 
L 323.946336 86.676874 
L 328.296935 98.454514 
L 332.647535 111.624388 
L 336.998135 125.956683 
L 341.348735 141.210413 
L 345.699335 157.14009 
L 350.049934 173.502177 
L 354.400534 190.061095 
L 358.751134 206.594577 
L 363.101734 222.898231 
L 367.452334 238.789175 
L 371.802934 254.10871 
L 376.153533 268.723996 
L 380.504133 282.528771 
L 384.854733 295.443177 
L 389.205333 307.4128 
L 393.555933 318.407036 
L 397.906532 328.416927 
L 402.257132 337.452611 
L 406.607732 345.540526 
L 410.958332 352.720504 
L 415.308932 359.042873 
L 419.659531 364.565672 
L 424.010131 369.352063 
L 428.360731 373.467996 
L 432.711331 376.980182 
L 437.061931 379.954377 
L 441.41253 382.454002 
L 445.76313 384.539076 
L 450.11373 386.26545 
L 454.46433 387.684305 
L 458.81493 388.841887 
L 463.16553 389.779442 
L 467.516129 390.533299 
L 471.866729 391.135091 
L 476.217329 391.612054 
L 480.567929 391.987386 
L 484.918529 392.280647 
L 489.269128 392.508163 
L 493.619728 392.68343 
L 497.970328 392.8175 
L 502.320928 392.919339 
L 506.671528 392.996155 
L 511.022127 393.053694 
L 515.372727 393.096495 
" style="fill:none;stroke:#ff6384;stroke-linecap:square;"/>
   </g>
   <g id="line2d_2">
    <path clip-path="url(#pa3e1b823a5)" d="M 58.827273 393.095782 
L 63.150729 393.052713 
L 67.474185 392.994812 
L 71.79764 392.917514 
L 76.121096 392.815036 
L 80.444552 392.680124 
L 84.768008 392.503756 
L 89.091464 392.274812 
L 93.41492 391.97971 
L 97.738376 391.602021 
L 102.061832 391.122064 
L 106.385288 390.516494 
L 110.708744 389.757904 
L 115.032199 388.814463 
L 119.355655 387.649613 
L 123.679111 386.22185 
L 128.002567 384.484637 
L 132.326023 382.386473 
L 136.649479 379.871154 
L 140.972935 376.878287 
L 145.296391 373.34405 
L 149.619847 369.202275 
L 153.943303 364.385834 
L 158.266758 358.828361 
L 162.590214 352.466299 
L 166.91367 345.241243 
L 171.237126 337.10255 
L 175.560582 328.010137 
L 179.884038 317.937401 
L 184.207494 306.87414 
L 188.53095 294.829368 
L 192.854406 281.833882 
L 197.177862 267.942437 
L 201.501317 253.235392 
L 205.824773 237.819676 
L 210.148229 221.828964 
L 214.471685 205.422951 
L 218.795141 188.785667 
L 223.118597 172.122788 
L 227.442053 155.657975 
L 231.765509 139.628286 
L 236.088965 124.278789 
L 240.412421 109.856512 
L 244.735876 96.603953 
L 249.059332 84.75237 
L 253.382788 74.515099 
L 257.706244 66.081191 
L 262.0297 59.609609 
L 266.353156 55.22425 
L 270.676612 53.01 
L 275.000068 53.01 
L 279.323524 55.22425 
L 283.64698 59.609609 
L 287.970435 66.081191 
L 292.293891 74.515099 
L 296.617347 84.75237 
L 300.940803 96.603953 
L 305.264259 109.856512 
L 309.587715 124.278789 
L 313.911171 139.628286 
L 318.234627 155.657975 
L 322.558083 172.122788 
L 326.881539 188.785667 
L 331.204994 205.422951 
L 335.52845 221.828964 
L 339.851906 237.819676 
L 344.175362 253.235392 
L 348.498818 267.942437 
L 352.822274 281.833882 
L 357.14573 294.829368 
L 361.469186 306.87414 
L 365.792642 317.937401 
L 370.116098 328.010137 
L 374.439553 337.10255 
L 378.763009 345.241243 
L 383.086465 352.466299 
L 387.409921 358.828361 
L 391.733377 364.385834 
L 396.056833 369.202275 
L 400.380289 373.34405 
L 404.703745 376.878287 
L 409.027201 379.871154 
L 413.350657 382.386473 
L 417.674112 384.484637 
L 421.997568 386.22185 
L 426.321024 387.649613 
L 430.64448 388.814463 
L 434.967936 389.757904 
L 439.291392 390.516494 
L 443.614848 391.122064 
L 447.938304 391.602021 
L 452.26176 391.97971 
L 456.585216 392.274812 
L 460.908671 392.503756 
L 465.232127 392.680124 
L 469.555583 392.815036 
L 473.879039 392.917514 
L 478.202495 392.994812 
L 482.525951 393.052713 
L 486.849407 393.095782 
" style="fill:none;stroke:#36a2eb;stroke-linecap:square;"/>
   </g>
   <g id="patch_3">
    <path d="M 36 410.22 
L 538.2 410.22 
" style="fill:none;stroke:#000000;stroke-linecap:square;stroke-linejoin:miter;stroke-width:0.8;"/>
   </g>
   <g id="legend_1">
    <g id="patch_4">
     <path d="M 441.707188 88.29875 
L 528.4 88.29875 
Q 531.2 88.29875 531.2 85.49875 
L 531.2 45.8 
Q 531.2 43 528.4 43 
L 441.707188 43 
Q 438.907188 43 438.907188 45.8 
L 438.907188 85.49875 
Q 438.907188 88.29875 441.707188 88.29875 
z
" style="fill:#ffffff;opacity:0.8;stroke:#cccccc;stroke-linejoin:miter;"/>
    </g>
    <g id="patch_5">
     <path d="M 444.507188 59.237813 
L 472.507188 59.237813 
L 472.507188 49.437813 
L 444.507188 49.437813 
z
" style="fill:#ff6384;opacity:0.5;stroke:#ff6384;stroke-linejoin:miter;"/>
    </g>
    <g id="text_1">
     <!-- base -->
     <defs>
      <path d="M 48.6875 27.296875 
Q 48.6875 37.203125 44.609375 42.84375 
Q 40.53125 48.484375 33.40625 48.484375 
Q 26.265625 48.484375 22.1875 42.84375 
Q 18.109375 37.203125 18.109375 27.296875 
Q 18.109375 17.390625 22.1875 11.75 
Q 26.265625 6.109375 33.40625 6.109375 
Q 40.53125 6.109375 44.609375 11.75 
Q 48.6875 17.390625 48.6875 27.296875 
z
M 18.109375 46.390625 
Q 20.953125 51.265625 25.265625 53.625 
Q 29.59375 56 35.59375 56 
Q 45.5625 56 51.78125 48.09375 
Q 58.015625 40.1875 58.015625 27.296875 
Q 58.015625 14.40625 51.78125 6.484375 
Q 45.5625 -1.421875 35.59375 -1.421875 
Q 29.59375 -1.421875 25.265625 0.953125 
Q 20.953125 3.328125 18.109375 8.203125 
L 18.109375 0 
L 9.078125 0 
L 9.078125 75.984375 
L 18.109375 75.984375 
z
" id="DejaVuSans-98"/>
      <path d="M 34.28125 27.484375 
Q 23.390625 27.484375 19.1875 25 
Q 14.984375 22.515625 14.984375 16.5 
Q 14.984375 11.71875 18.140625 8.90625 
Q 21.296875 6.109375 26.703125 6.109375 
Q 34.1875 6.109375 38.703125 11.40625 
Q 43.21875 16.703125 43.21875 25.484375 
L 43.21875 27.484375 
z
M 52.203125 31.203125 
L 52.203125 0 
L 43.21875 0 
L 43.21875 8.296875 
Q 40.140625 3.328125 35.546875 0.953125 
Q 30.953125 -1.421875 24.3125 -1.421875 
Q 15.921875 -1.421875 10.953125 3.296875 
Q 6 8.015625 6 15.921875 
Q 6 25.140625 12.171875 29.828125 
Q 18.359375 34.515625 30.609375 34.515625 
L 43.21875 34.515625 
L 43.21875 35.40625 
Q 43.21875 41.609375 39.140625 45 
Q 35.0625 48.390625 27.6875 48.390625 
Q 23 48.390625 18.546875 47.265625 
Q 14.109375 46.140625 10.015625 43.890625 
L 10.015625 52.203125 
Q 14.9375 54.109375 19.578125 55.046875 
Q 24.21875 56 28.609375 56 
Q 40.484375 56 46.34375 49.84375 
Q 52.203125 43.703125 52.203125 31.203125 
z
" id="DejaVuSans-97"/>
      <path d="M 44.28125 53.078125 
L 44.28125 44.578125 
Q 40.484375 46.53125 36.375 47.5 
Q 32.28125 48.484375 27.875 48.484375 
Q 21.1875 48.484375 17.84375 46.4375 
Q 14.5 44.390625 14.5 40.28125 
Q 14.5 37.15625 16.890625 35.375 
Q 19.28125 33.59375 26.515625 31.984375 
L 29.59375 31.296875 
Q 39.15625 29.25 43.1875 25.515625 
Q 47.21875 21.78125 47.21875 15.09375 
Q 47.21875 7.46875 41.1875 3.015625 
Q 35.15625 -1.421875 24.609375 -1.421875 
Q 20.21875 -1.421875 15.453125 -0.5625 
Q 10.6875 0.296875 5.421875 2 
L 5.421875 11.28125 
Q 10.40625 8.6875 15.234375 7.390625 
Q 20.0625 6.109375 24.8125 6.109375 
Q 31.15625 6.109375 34.5625 8.28125 
Q 37.984375 10.453125 37.984375 14.40625 
Q 37.984375 18.0625 35.515625 20.015625 
Q 33.0625 21.96875 24.703125 23.78125 
L 21.578125 24.515625 
Q 13.234375 26.265625 9.515625 29.90625 
Q 5.8125 33.546875 5.8125 39.890625 
Q 5.8125 47.609375 11.28125 51.796875 
Q 16.75 56 26.8125 56 
Q 31.78125 56 36.171875 55.265625 
Q 40.578125 54.546875 44.28125 53.078125 
z
" id="DejaVuSans-115"/>
      <path d="M 56.203125 29.59375 
L 56.203125 25.203125 
L 14.890625 25.203125 
Q 15.484375 15.921875 20.484375 11.0625 
Q 25.484375 6.203125 34.421875 6.203125 
Q 39.59375 6.203125 44.453125 7.46875 
Q 49.3125 8.734375 54.109375 11.28125 
L 54.109375 2.78125 
Q 49.265625 0.734375 44.1875 -0.34375 
Q 39.109375 -1.421875 33.890625 -1.421875 
Q 20.796875 -1.421875 13.15625 6.1875 
Q 5.515625 13.8125 5.515625 26.8125 
Q 5.515625 40.234375 12.765625 48.109375 
Q 20.015625 56 32.328125 56 
Q 43.359375 56 49.78125 48.890625 
Q 56.203125 41.796875 56.203125 29.59375 
z
M 47.21875 32.234375 
Q 47.125 39.59375 43.09375 43.984375 
Q 39.0625 48.390625 32.421875 48.390625 
Q 24.90625 48.390625 20.390625 44.140625 
Q 15.875 39.890625 15.1875 32.171875 
z
" id="DejaVuSans-101"/>
     </defs>
     <g transform="translate(483.707188 59.237813)scale(0.14 -0.14)">
      <use xlink:href="#DejaVuSans-98"/>
      <use x="63.476562" xlink:href="#DejaVuSans-97"/>
      <use x="124.755859" xlink:href="#DejaVuSans-115"/>
      <use x="176.855469" xlink:href="#DejaVuSans-101"/>
     </g>
    </g>
    <g id="patch_6">
     <path d="M 444.507188 79.787188 
L 472.507188 79.787188 
L 472.507188 69.987188 
L 444.507188 69.987188 
z
" style="fill:#36a2eb;opacity:0.5;stroke:#36a2eb;stroke-linejoin:miter;"/>
    </g>
    <g id="text_2">
     <!-- osago -->
     <defs>
      <path d="M 30.609375 48.390625 
Q 23.390625 48.390625 19.1875 42.75 
Q 14.984375 37.109375 14.984375 27.296875 
Q 14.984375 17.484375 19.15625 11.84375 
Q 23.34375 6.203125 30.609375 6.203125 
Q 37.796875 6.203125 41.984375 11.859375 
Q 46.1875 17.53125 46.1875 27.296875 
Q 46.1875 37.015625 41.984375 42.703125 
Q 37.796875 48.390625 30.609375 48.390625 
z
M 30.609375 56 
Q 42.328125 56 49.015625 48.375 
Q 55.71875 40.765625 55.71875 27.296875 
Q 55.71875 13.875 49.015625 6.21875 
Q 42.328125 -1.421875 30.609375 -1.421875 
Q 18.84375 -1.421875 12.171875 6.21875 
Q 5.515625 13.875 5.515625 27.296875 
Q 5.515625 40.765625 12.171875 48.375 
Q 18.84375 56 30.609375 56 
z
" id="DejaVuSans-111"/>
      <path d="M 45.40625 27.984375 
Q 45.40625 37.75 41.375 43.109375 
Q 37.359375 48.484375 30.078125 48.484375 
Q 22.859375 48.484375 18.828125 43.109375 
Q 14.796875 37.75 14.796875 27.984375 
Q 14.796875 18.265625 18.828125 12.890625 
Q 22.859375 7.515625 30.078125 7.515625 
Q 37.359375 7.515625 41.375 12.890625 
Q 45.40625 18.265625 45.40625 27.984375 
z
M 54.390625 6.78125 
Q 54.390625 -7.171875 48.1875 -13.984375 
Q 42 -20.796875 29.203125 -20.796875 
Q 24.46875 -20.796875 20.265625 -20.09375 
Q 16.0625 -19.390625 12.109375 -17.921875 
L 12.109375 -9.1875 
Q 16.0625 -11.328125 19.921875 -12.34375 
Q 23.78125 -13.375 27.78125 -13.375 
Q 36.625 -13.375 41.015625 -8.765625 
Q 45.40625 -4.15625 45.40625 5.171875 
L 45.40625 9.625 
Q 42.625 4.78125 38.28125 2.390625 
Q 33.9375 0 27.875 0 
Q 17.828125 0 11.671875 7.65625 
Q 5.515625 15.328125 5.515625 27.984375 
Q 5.515625 40.671875 11.671875 48.328125 
Q 17.828125 56 27.875 56 
Q 33.9375 56 38.28125 53.609375 
Q 42.625 51.21875 45.40625 46.390625 
L 45.40625 54.6875 
L 54.390625 54.6875 
z
" id="DejaVuSans-103"/>
     </defs>
     <g transform="translate(483.707188 79.787188)scale(0.14 -0.14)">
      <use xlink:href="#DejaVuSans-111"/>
      <use x="61.181641" xlink:href="#DejaVuSans-115"/>
      <use x="113.28125" xlink:href="#DejaVuSans-97"/>
      <use x="174.560547" xlink:href="#DejaVuSans-103"/>
      <use x="238.037109" xlink:href="#DejaVuSans-111"/>
     </g>
    </g>
   </g>
  </g>
  <g id="axes_2">
   <g id="patch_7">
    <path d="M 36 534.96 
L 538.2 534.96 
L 538.2 410.22 
L 36 410.22 
z
" style="fill:none;"/>
   </g>
   <g id="patch_8">
    <path clip-path="url(#p78aefc4161)" d="M 194.494238 529.29 
L 405.541835 529.29 
L 405.541835 491.49 
L 194.494238 491.49 
z
" style="fill:#ff6384;opacity:0.5;"/>
   </g>
   <g id="patch_9">
    <path clip-path="url(#p78aefc4161)" d="M 167.972917 453.69 
L 377.703763 453.69 
L 377.703763 415.89 
L 167.972917 415.89 
z
" style="fill:#36a2eb;opacity:0.5;"/>
   </g>
   <g id="matplotlib.axis_1">
    <g id="xtick_1">
     <g id="line2d_3">
      <defs>
       <path d="M 0 0 
L 0 3.5 
" id="m0a8663a854" style="stroke:#000000;stroke-width:0.8;"/>
      </defs>
      <g>
       <use style="stroke:#000000;stroke-width:0.8;" x="71.708583" xlink:href="#m0a8663a854" y="534.96"/>
      </g>
     </g>
     <g id="text_3">
      <!-- 6.5 -->
      <defs>
       <path d="M 33.015625 40.375 
Q 26.375 40.375 22.484375 35.828125 
Q 18.609375 31.296875 18.609375 23.390625 
Q 18.609375 15.53125 22.484375 10.953125 
Q 26.375 6.390625 33.015625 6.390625 
Q 39.65625 6.390625 43.53125 10.953125 
Q 47.40625 15.53125 47.40625 23.390625 
Q 47.40625 31.296875 43.53125 35.828125 
Q 39.65625 40.375 33.015625 40.375 
z
M 52.59375 71.296875 
L 52.59375 62.3125 
Q 48.875 64.0625 45.09375 64.984375 
Q 41.3125 65.921875 37.59375 65.921875 
Q 27.828125 65.921875 22.671875 59.328125 
Q 17.53125 52.734375 16.796875 39.40625 
Q 19.671875 43.65625 24.015625 45.921875 
Q 28.375 48.1875 33.59375 48.1875 
Q 44.578125 48.1875 50.953125 41.515625 
Q 57.328125 34.859375 57.328125 23.390625 
Q 57.328125 12.15625 50.6875 5.359375 
Q 44.046875 -1.421875 33.015625 -1.421875 
Q 20.359375 -1.421875 13.671875 8.265625 
Q 6.984375 17.96875 6.984375 36.375 
Q 6.984375 53.65625 15.1875 63.9375 
Q 23.390625 74.21875 37.203125 74.21875 
Q 40.921875 74.21875 44.703125 73.484375 
Q 48.484375 72.75 52.59375 71.296875 
z
" id="DejaVuSans-54"/>
       <path d="M 10.6875 12.40625 
L 21 12.40625 
L 21 0 
L 10.6875 0 
z
" id="DejaVuSans-46"/>
       <path d="M 10.796875 72.90625 
L 49.515625 72.90625 
L 49.515625 64.59375 
L 19.828125 64.59375 
L 19.828125 46.734375 
Q 21.96875 47.46875 24.109375 47.828125 
Q 26.265625 48.1875 28.421875 48.1875 
Q 40.625 48.1875 47.75 41.5 
Q 54.890625 34.8125 54.890625 23.390625 
Q 54.890625 11.625 47.5625 5.09375 
Q 40.234375 -1.421875 26.90625 -1.421875 
Q 22.3125 -1.421875 17.546875 -0.640625 
Q 12.796875 0.140625 7.71875 1.703125 
L 7.71875 11.625 
Q 12.109375 9.234375 16.796875 8.0625 
Q 21.484375 6.890625 26.703125 6.890625 
Q 35.15625 6.890625 40.078125 11.328125 
Q 45.015625 15.765625 45.015625 23.390625 
Q 45.015625 31 40.078125 35.4375 
Q 35.15625 39.890625 26.703125 39.890625 
Q 22.75 39.890625 18.8125 39.015625 
Q 14.890625 38.140625 10.796875 36.28125 
z
" id="DejaVuSans-53"/>
      </defs>
      <g transform="translate(60.576395 552.597813)scale(0.14 -0.14)">
       <use xlink:href="#DejaVuSans-54"/>
       <use x="63.623047" xlink:href="#DejaVuSans-46"/>
       <use x="95.410156" xlink:href="#DejaVuSans-53"/>
      </g>
     </g>
    </g>
    <g id="xtick_2">
     <g id="line2d_4">
      <g>
       <use style="stroke:#000000;stroke-width:0.8;" x="139.657825" xlink:href="#m0a8663a854" y="534.96"/>
      </g>
     </g>
     <g id="text_4">
      <!-- 7.0 -->
      <defs>
       <path d="M 8.203125 72.90625 
L 55.078125 72.90625 
L 55.078125 68.703125 
L 28.609375 0 
L 18.3125 0 
L 43.21875 64.59375 
L 8.203125 64.59375 
z
" id="DejaVuSans-55"/>
       <path d="M 31.78125 66.40625 
Q 24.171875 66.40625 20.328125 58.90625 
Q 16.5 51.421875 16.5 36.375 
Q 16.5 21.390625 20.328125 13.890625 
Q 24.171875 6.390625 31.78125 6.390625 
Q 39.453125 6.390625 43.28125 13.890625 
Q 47.125 21.390625 47.125 36.375 
Q 47.125 51.421875 43.28125 58.90625 
Q 39.453125 66.40625 31.78125 66.40625 
z
M 31.78125 74.21875 
Q 44.046875 74.21875 50.515625 64.515625 
Q 56.984375 54.828125 56.984375 36.375 
Q 56.984375 17.96875 50.515625 8.265625 
Q 44.046875 -1.421875 31.78125 -1.421875 
Q 19.53125 -1.421875 13.0625 8.265625 
Q 6.59375 17.96875 6.59375 36.375 
Q 6.59375 54.828125 13.0625 64.515625 
Q 19.53125 74.21875 31.78125 74.21875 
z
" id="DejaVuSans-48"/>
      </defs>
      <g transform="translate(128.525638 552.597813)scale(0.14 -0.14)">
       <use xlink:href="#DejaVuSans-55"/>
       <use x="63.623047" xlink:href="#DejaVuSans-46"/>
       <use x="95.410156" xlink:href="#DejaVuSans-48"/>
      </g>
     </g>
    </g>
    <g id="xtick_3">
     <g id="line2d_5">
      <g>
       <use style="stroke:#000000;stroke-width:0.8;" x="207.607067" xlink:href="#m0a8663a854" y="534.96"/>
      </g>
     </g>
     <g id="text_5">
      <!-- 7.5 -->
      <g transform="translate(196.47488 552.597813)scale(0.14 -0.14)">
       <use xlink:href="#DejaVuSans-55"/>
       <use x="63.623047" xlink:href="#DejaVuSans-46"/>
       <use x="95.410156" xlink:href="#DejaVuSans-53"/>
      </g>
     </g>
    </g>
    <g id="xtick_4">
     <g id="line2d_6">
      <g>
       <use style="stroke:#000000;stroke-width:0.8;" x="275.556309" xlink:href="#m0a8663a854" y="534.96"/>
      </g>
     </g>
     <g id="text_6">
      <!-- 8.0 -->
      <defs>
       <path d="M 31.78125 34.625 
Q 24.75 34.625 20.71875 30.859375 
Q 16.703125 27.09375 16.703125 20.515625 
Q 16.703125 13.921875 20.71875 10.15625 
Q 24.75 6.390625 31.78125 6.390625 
Q 38.8125 6.390625 42.859375 10.171875 
Q 46.921875 13.96875 46.921875 20.515625 
Q 46.921875 27.09375 42.890625 30.859375 
Q 38.875 34.625 31.78125 34.625 
z
M 21.921875 38.8125 
Q 15.578125 40.375 12.03125 44.71875 
Q 8.5 49.078125 8.5 55.328125 
Q 8.5 64.0625 14.71875 69.140625 
Q 20.953125 74.21875 31.78125 74.21875 
Q 42.671875 74.21875 48.875 69.140625 
Q 55.078125 64.0625 55.078125 55.328125 
Q 55.078125 49.078125 51.53125 44.71875 
Q 48 40.375 41.703125 38.8125 
Q 48.828125 37.15625 52.796875 32.3125 
Q 56.78125 27.484375 56.78125 20.515625 
Q 56.78125 9.90625 50.3125 4.234375 
Q 43.84375 -1.421875 31.78125 -1.421875 
Q 19.734375 -1.421875 13.25 4.234375 
Q 6.78125 9.90625 6.78125 20.515625 
Q 6.78125 27.484375 10.78125 32.3125 
Q 14.796875 37.15625 21.921875 38.8125 
z
M 18.3125 54.390625 
Q 18.3125 48.734375 21.84375 45.5625 
Q 25.390625 42.390625 31.78125 42.390625 
Q 38.140625 42.390625 41.71875 45.5625 
Q 45.3125 48.734375 45.3125 54.390625 
Q 45.3125 60.0625 41.71875 63.234375 
Q 38.140625 66.40625 31.78125 66.40625 
Q 25.390625 66.40625 21.84375 63.234375 
Q 18.3125 60.0625 18.3125 54.390625 
z
" id="DejaVuSans-56"/>
      </defs>
      <g transform="translate(264.424122 552.597813)scale(0.14 -0.14)">
       <use xlink:href="#DejaVuSans-56"/>
       <use x="63.623047" xlink:href="#DejaVuSans-46"/>
       <use x="95.410156" xlink:href="#DejaVuSans-48"/>
      </g>
     </g>
    </g>
    <g id="xtick_5">
     <g id="line2d_7">
      <g>
       <use style="stroke:#000000;stroke-width:0.8;" x="343.505552" xlink:href="#m0a8663a854" y="534.96"/>
      </g>
     </g>
     <g id="text_7">
      <!-- 8.5 -->
      <g transform="translate(332.373364 552.597813)scale(0.14 -0.14)">
       <use xlink:href="#DejaVuSans-56"/>
       <use x="63.623047" xlink:href="#DejaVuSans-46"/>
       <use x="95.410156" xlink:href="#DejaVuSans-53"/>
      </g>
     </g>
    </g>
    <g id="xtick_6">
     <g id="line2d_8">
      <g>
       <use style="stroke:#000000;stroke-width:0.8;" x="411.454794" xlink:href="#m0a8663a854" y="534.96"/>
      </g>
     </g>
     <g id="text_8">
      <!-- 9.0 -->
      <defs>
       <path d="M 10.984375 1.515625 
L 10.984375 10.5 
Q 14.703125 8.734375 18.5 7.8125 
Q 22.3125 6.890625 25.984375 6.890625 
Q 35.75 6.890625 40.890625 13.453125 
Q 46.046875 20.015625 46.78125 33.40625 
Q 43.953125 29.203125 39.59375 26.953125 
Q 35.25 24.703125 29.984375 24.703125 
Q 19.046875 24.703125 12.671875 31.3125 
Q 6.296875 37.9375 6.296875 49.421875 
Q 6.296875 60.640625 12.9375 67.421875 
Q 19.578125 74.21875 30.609375 74.21875 
Q 43.265625 74.21875 49.921875 64.515625 
Q 56.59375 54.828125 56.59375 36.375 
Q 56.59375 19.140625 48.40625 8.859375 
Q 40.234375 -1.421875 26.421875 -1.421875 
Q 22.703125 -1.421875 18.890625 -0.6875 
Q 15.09375 0.046875 10.984375 1.515625 
z
M 30.609375 32.421875 
Q 37.25 32.421875 41.125 36.953125 
Q 45.015625 41.5 45.015625 49.421875 
Q 45.015625 57.28125 41.125 61.84375 
Q 37.25 66.40625 30.609375 66.40625 
Q 23.96875 66.40625 20.09375 61.84375 
Q 16.21875 57.28125 16.21875 49.421875 
Q 16.21875 41.5 20.09375 36.953125 
Q 23.96875 32.421875 30.609375 32.421875 
z
" id="DejaVuSans-57"/>
      </defs>
      <g transform="translate(400.322606 552.597813)scale(0.14 -0.14)">
       <use xlink:href="#DejaVuSans-57"/>
       <use x="63.623047" xlink:href="#DejaVuSans-46"/>
       <use x="95.410156" xlink:href="#DejaVuSans-48"/>
      </g>
     </g>
    </g>
    <g id="xtick_7">
     <g id="line2d_9">
      <g>
       <use style="stroke:#000000;stroke-width:0.8;" x="479.404036" xlink:href="#m0a8663a854" y="534.96"/>
      </g>
     </g>
     <g id="text_9">
      <!-- 9.5 -->
      <g transform="translate(468.271848 552.597813)scale(0.14 -0.14)">
       <use xlink:href="#DejaVuSans-57"/>
       <use x="63.623047" xlink:href="#DejaVuSans-46"/>
       <use x="95.410156" xlink:href="#DejaVuSans-53"/>
      </g>
     </g>
    </g>
   </g>
   <g id="line2d_10">
    <path clip-path="url(#p78aefc4161)" d="M 300.018037 534.96 
L 300.018037 410.22 
" style="fill:none;stroke:#ff6384;stroke-dasharray:5.55,2.4;stroke-dashoffset:0;stroke-opacity:0.8;stroke-width:1.5;"/>
   </g>
   <g id="line2d_11">
    <path clip-path="url(#p78aefc4161)" d="M 272.83834 534.96 
L 272.83834 410.22 
" style="fill:none;stroke:#36a2eb;stroke-dasharray:5.55,2.4;stroke-dashoffset:0;stroke-opacity:0.8;stroke-width:1.5;"/>
   </g>
   <g id="patch_10">
    <path d="M 36 534.96 
L 538.2 534.96 
" style="fill:none;stroke:#000000;stroke-linecap:square;stroke-linejoin:miter;stroke-width:0.8;"/>
   </g>
  </g>
 </g>
 <defs>
  <clipPath id="pa3e1b823a5">
   <rect height="374.22" width="502.2" x="36" y="36"/>
  </clipPath>
  <clipPath id="p78aefc4161">
   <rect height="124.74" width="502.2" x="36" y="410.22"/>
  </clipPath>
 </defs>
</svg>
