<?xml version="1.0" encoding="utf-8" standalone="no"?>
<!DOCTYPE svg PUBLIC "-//W3C//DTD SVG 1.1//EN"
  "http://www.w3.org/Graphics/SVG/1.1/DTD/svg11.dtd">
<!-- Created with matplotlib (https://matplotlib.org/) -->
<svg height="581.789375pt" version="1.1" viewBox="0 0 574.2 581.789375" width="574.2pt" xmlns="http://www.w3.org/2000/svg" xmlns:xlink="http://www.w3.org/1999/xlink">
 <defs>
  <style type="text/css">
*{stroke-linecap:butt;stroke-linejoin:round;}
  </style>
 </defs>
 <g id="figure_1">
  <g id="patch_1">
   <path d="M 0 581.789375 
L 574.2 581.789375 
L 574.2 0 
L 0 0 
z
" style="fill:none;"/>
  </g>
  <g id="axes_1">
   <g id="patch_2">
    <path d="M 36 402.93 
L 538.2 402.93 
L 538.2 36 
L 36 36 
z
" style="fill:none;"/>
   </g>
   <g id="PolyCollection_1">
    <defs>
     <path d="M 84.58007 -195.538011 
L 84.58007 -195.650004 
L 88.931511 -195.692234 
L 93.282952 -195.749007 
L 97.634393 -195.8248 
L 101.985834 -195.925281 
L 106.337275 -196.057565 
L 110.688716 -196.230497 
L 115.040157 -196.454982 
L 119.391598 -196.744335 
L 123.743039 -197.114666 
L 128.09448 -197.585273 
L 132.445921 -198.179047 
L 136.797362 -198.922859 
L 141.148803 -199.847921 
L 145.500244 -200.990079 
L 149.851685 -202.390029 
L 154.203126 -204.093399 
L 158.554567 -206.150691 
L 162.906008 -208.617009 
L 167.257449 -211.551575 
L 171.60889 -215.016962 
L 175.960331 -219.078053 
L 180.311772 -223.800667 
L 184.663213 -229.249878 
L 189.014654 -235.488004 
L 193.366095 -242.572312 
L 197.717536 -250.552459 
L 202.068977 -259.467747 
L 206.420418 -269.344261 
L 210.771859 -280.192004 
L 215.1233 -292.002137 
L 219.474741 -304.744465 
L 223.826182 -318.365297 
L 228.177623 -332.785841 
L 232.529063 -347.901251 
L 236.880504 -363.580456 
L 241.231945 -379.666871 
L 245.583386 -395.980052 
L 249.934827 -412.31833 
L 254.286268 -428.4624 
L 258.637709 -444.179822 
L 262.98915 -459.230303 
L 267.340591 -473.371627 
L 271.692032 -486.366018 
L 276.043473 -497.986726 
L 280.394914 -508.02457 
L 284.746355 -516.294181 
L 289.097796 -522.639693 
L 293.449237 -526.939623 
L 297.800678 -529.110739 
L 302.152119 -529.110739 
L 306.50356 -526.939623 
L 310.855001 -522.639693 
L 315.206442 -516.294181 
L 319.557883 -508.02457 
L 323.909324 -497.986726 
L 328.260765 -486.366018 
L 332.612206 -473.371627 
L 336.963647 -459.230303 
L 341.315088 -444.179822 
L 345.666529 -428.4624 
L 350.01797 -412.31833 
L 354.369411 -395.980052 
L 358.720852 -379.666871 
L 363.072293 -363.580456 
L 367.423734 -347.901251 
L 371.775175 -332.785841 
L 376.126616 -318.365297 
L 380.478057 -304.744465 
L 384.829498 -292.002137 
L 389.180939 -280.192004 
L 393.53238 -269.344261 
L 397.883821 -259.467747 
L 402.235262 -250.552459 
L 406.586703 -242.572312 
L 410.938144 -235.488004 
L 415.289585 -229.249878 
L 419.641026 -223.800667 
L 423.992467 -219.078053 
L 428.343908 -215.016962 
L 432.695349 -211.551575 
L 437.04679 -208.617009 
L 441.398231 -206.150691 
L 445.749672 -204.093399 
L 450.101113 -202.390029 
L 454.452554 -200.990079 
L 458.803995 -199.847921 
L 463.155435 -198.922859 
L 467.506876 -198.179047 
L 471.858317 -197.585273 
L 476.209758 -197.114666 
L 480.561199 -196.744335 
L 484.91264 -196.454982 
L 489.264081 -196.230497 
L 493.615522 -196.057565 
L 497.966963 -195.925281 
L 502.318404 -195.8248 
L 506.669845 -195.749007 
L 511.021286 -195.692234 
L 515.372727 -195.650004 
L 515.372727 -195.538011 
L 515.372727 -195.538011 
L 511.021286 -195.538011 
L 506.669845 -195.538011 
L 502.318404 -195.538011 
L 497.966963 -195.538011 
L 493.615522 -195.538011 
L 489.264081 -195.538011 
L 484.91264 -195.538011 
L 480.561199 -195.538011 
L 476.209758 -195.538011 
L 471.858317 -195.538011 
L 467.506876 -195.538011 
L 463.155435 -195.538011 
L 458.803995 -195.538011 
L 454.452554 -195.538011 
L 450.101113 -195.538011 
L 445.749672 -195.538011 
L 441.398231 -195.538011 
L 437.04679 -195.538011 
L 432.695349 -195.538011 
L 428.343908 -195.538011 
L 423.992467 -195.538011 
L 419.641026 -195.538011 
L 415.289585 -195.538011 
L 410.938144 -195.538011 
L 406.586703 -195.538011 
L 402.235262 -195.538011 
L 397.883821 -195.538011 
L 393.53238 -195.538011 
L 389.180939 -195.538011 
L 384.829498 -195.538011 
L 380.478057 -195.538011 
L 376.126616 -195.538011 
L 371.775175 -195.538011 
L 367.423734 -195.538011 
L 363.072293 -195.538011 
L 358.720852 -195.538011 
L 354.369411 -195.538011 
L 350.01797 -195.538011 
L 345.666529 -195.538011 
L 341.315088 -195.538011 
L 336.963647 -195.538011 
L 332.612206 -195.538011 
L 328.260765 -195.538011 
L 323.909324 -195.538011 
L 319.557883 -195.538011 
L 315.206442 -195.538011 
L 310.855001 -195.538011 
L 306.50356 -195.538011 
L 302.152119 -195.538011 
L 297.800678 -195.538011 
L 293.449237 -195.538011 
L 289.097796 -195.538011 
L 284.746355 -195.538011 
L 280.394914 -195.538011 
L 276.043473 -195.538011 
L 271.692032 -195.538011 
L 267.340591 -195.538011 
L 262.98915 -195.538011 
L 258.637709 -195.538011 
L 254.286268 -195.538011 
L 249.934827 -195.538011 
L 245.583386 -195.538011 
L 241.231945 -195.538011 
L 236.880504 -195.538011 
L 232.529063 -195.538011 
L 228.177623 -195.538011 
L 223.826182 -195.538011 
L 219.474741 -195.538011 
L 215.1233 -195.538011 
L 210.771859 -195.538011 
L 206.420418 -195.538011 
L 202.068977 -195.538011 
L 197.717536 -195.538011 
L 193.366095 -195.538011 
L 189.014654 -195.538011 
L 184.663213 -195.538011 
L 180.311772 -195.538011 
L 175.960331 -195.538011 
L 171.60889 -195.538011 
L 167.257449 -195.538011 
L 162.906008 -195.538011 
L 158.554567 -195.538011 
L 154.203126 -195.538011 
L 149.851685 -195.538011 
L 145.500244 -195.538011 
L 141.148803 -195.538011 
L 136.797362 -195.538011 
L 132.445921 -195.538011 
L 128.09448 -195.538011 
L 123.743039 -195.538011 
L 119.391598 -195.538011 
L 115.040157 -195.538011 
L 110.688716 -195.538011 
L 106.337275 -195.538011 
L 101.985834 -195.538011 
L 97.634393 -195.538011 
L 93.282952 -195.538011 
L 88.931511 -195.538011 
L 84.58007 -195.538011 
z
" id="m914de6dfc9" style="stroke:#ff6384;stroke-opacity:0.5;"/>
    </defs>
    <g clip-path="url(#p025f2b6323)">
     <use style="fill:#ff6384;fill-opacity:0.5;stroke:#ff6384;stroke-opacity:0.5;" x="0" xlink:href="#m914de6dfc9" y="581.789375"/>
    </g>
   </g>
   <g id="PolyCollection_2">
    <defs>
     <path d="M 58.827273 -195.538011 
L 58.827273 -195.649599 
L 63.194493 -195.691677 
L 67.561714 -195.748245 
L 71.928935 -195.823764 
L 76.296155 -195.923882 
L 80.663376 -196.055688 
L 85.030596 -196.227995 
L 89.397817 -196.451668 
L 93.765038 -196.739976 
L 98.132258 -197.108969 
L 102.499479 -197.577876 
L 106.866699 -198.169504 
L 111.23392 -198.910629 
L 115.60114 -199.832348 
L 119.968361 -200.97038 
L 124.335582 -202.365271 
L 128.702802 -204.062487 
L 133.070023 -206.112345 
L 137.437243 -208.569752 
L 141.804464 -211.493714 
L 146.171685 -214.946581 
L 150.538905 -218.992998 
L 154.906126 -223.698549 
L 159.273346 -229.12807 
L 163.640567 -235.343657 
L 168.007788 -242.402368 
L 172.375008 -250.353681 
L 176.742229 -259.236756 
L 181.109449 -269.077584 
L 185.47667 -279.886132 
L 189.843891 -291.653594 
L 194.211111 -304.349881 
L 198.578332 -317.921498 
L 202.945552 -332.289938 
L 207.312773 -347.350733 
L 211.679994 -362.973286 
L 216.047214 -379.001577 
L 220.414435 -395.255816 
L 224.781655 -411.53506 
L 229.148876 -427.620799 
L 233.516097 -443.28143 
L 237.883317 -458.277531 
L 242.250538 -472.36776 
L 246.617758 -485.3152 
L 250.984979 -496.89392 
L 255.3522 -506.895495 
L 259.71942 -515.135227 
L 264.086641 -521.457811 
L 268.453861 -525.742205 
L 272.821082 -527.905476 
L 277.188303 -527.905476 
L 281.555523 -525.742205 
L 285.922744 -521.457811 
L 290.289964 -515.135227 
L 294.657185 -506.895495 
L 299.024406 -496.89392 
L 303.391626 -485.3152 
L 307.758847 -472.36776 
L 312.126067 -458.277531 
L 316.493288 -443.28143 
L 320.860509 -427.620799 
L 325.227729 -411.53506 
L 329.59495 -395.255816 
L 333.96217 -379.001577 
L 338.329391 -362.973286 
L 342.696612 -347.350733 
L 347.063832 -332.289938 
L 351.431053 -317.921498 
L 355.798273 -304.349881 
L 360.165494 -291.653594 
L 364.532715 -279.886132 
L 368.899935 -269.077584 
L 373.267156 -259.236756 
L 377.634376 -250.353681 
L 382.001597 -242.402368 
L 386.368818 -235.343657 
L 390.736038 -229.12807 
L 395.103259 -223.698549 
L 399.470479 -218.992998 
L 403.8377 -214.946581 
L 408.20492 -211.493714 
L 412.572141 -208.569752 
L 416.939362 -206.112345 
L 421.306582 -204.062487 
L 425.673803 -202.365271 
L 430.041023 -200.97038 
L 434.408244 -199.832348 
L 438.775465 -198.910629 
L 443.142685 -198.169504 
L 447.509906 -197.577876 
L 451.877126 -197.108969 
L 456.244347 -196.739976 
L 460.611568 -196.451668 
L 464.978788 -196.227995 
L 469.346009 -196.055688 
L 473.713229 -195.923882 
L 478.08045 -195.823764 
L 482.447671 -195.748245 
L 486.814891 -195.691677 
L 491.182112 -195.649599 
L 491.182112 -195.538011 
L 491.182112 -195.538011 
L 486.814891 -195.538011 
L 482.447671 -195.538011 
L 478.08045 -195.538011 
L 473.713229 -195.538011 
L 469.346009 -195.538011 
L 464.978788 -195.538011 
L 460.611568 -195.538011 
L 456.244347 -195.538011 
L 451.877126 -195.538011 
L 447.509906 -195.538011 
L 443.142685 -195.538011 
L 438.775465 -195.538011 
L 434.408244 -195.538011 
L 430.041023 -195.538011 
L 425.673803 -195.538011 
L 421.306582 -195.538011 
L 416.939362 -195.538011 
L 412.572141 -195.538011 
L 408.20492 -195.538011 
L 403.8377 -195.538011 
L 399.470479 -195.538011 
L 395.103259 -195.538011 
L 390.736038 -195.538011 
L 386.368818 -195.538011 
L 382.001597 -195.538011 
L 377.634376 -195.538011 
L 373.267156 -195.538011 
L 368.899935 -195.538011 
L 364.532715 -195.538011 
L 360.165494 -195.538011 
L 355.798273 -195.538011 
L 351.431053 -195.538011 
L 347.063832 -195.538011 
L 342.696612 -195.538011 
L 338.329391 -195.538011 
L 333.96217 -195.538011 
L 329.59495 -195.538011 
L 325.227729 -195.538011 
L 320.860509 -195.538011 
L 316.493288 -195.538011 
L 312.126067 -195.538011 
L 307.758847 -195.538011 
L 303.391626 -195.538011 
L 299.024406 -195.538011 
L 294.657185 -195.538011 
L 290.289964 -195.538011 
L 285.922744 -195.538011 
L 281.555523 -195.538011 
L 277.188303 -195.538011 
L 272.821082 -195.538011 
L 268.453861 -195.538011 
L 264.086641 -195.538011 
L 259.71942 -195.538011 
L 255.3522 -195.538011 
L 250.984979 -195.538011 
L 246.617758 -195.538011 
L 242.250538 -195.538011 
L 237.883317 -195.538011 
L 233.516097 -195.538011 
L 229.148876 -195.538011 
L 224.781655 -195.538011 
L 220.414435 -195.538011 
L 216.047214 -195.538011 
L 211.679994 -195.538011 
L 207.312773 -195.538011 
L 202.945552 -195.538011 
L 198.578332 -195.538011 
L 194.211111 -195.538011 
L 189.843891 -195.538011 
L 185.47667 -195.538011 
L 181.109449 -195.538011 
L 176.742229 -195.538011 
L 172.375008 -195.538011 
L 168.007788 -195.538011 
L 163.640567 -195.538011 
L 159.273346 -195.538011 
L 154.906126 -195.538011 
L 150.538905 -195.538011 
L 146.171685 -195.538011 
L 141.804464 -195.538011 
L 137.437243 -195.538011 
L 133.070023 -195.538011 
L 128.702802 -195.538011 
L 124.335582 -195.538011 
L 119.968361 -195.538011 
L 115.60114 -195.538011 
L 111.23392 -195.538011 
L 106.866699 -195.538011 
L 102.499479 -195.538011 
L 98.132258 -195.538011 
L 93.765038 -195.538011 
L 89.397817 -195.538011 
L 85.030596 -195.538011 
L 80.663376 -195.538011 
L 76.296155 -195.538011 
L 71.928935 -195.538011 
L 67.561714 -195.538011 
L 63.194493 -195.538011 
L 58.827273 -195.538011 
z
" id="mbded16078e" style="stroke:#36a2eb;stroke-opacity:0.5;"/>
    </defs>
    <g clip-path="url(#p025f2b6323)">
     <use style="fill:#36a2eb;fill-opacity:0.5;stroke:#36a2eb;stroke-opacity:0.5;" x="0" xlink:href="#mbded16078e" y="581.789375"/>
    </g>
   </g>
   <g id="line2d_1">
    <path clip-path="url(#p025f2b6323)" d="M 84.58007 386.139371 
L 88.931511 386.097141 
L 93.282952 386.040368 
L 97.634393 385.964575 
L 101.985834 385.864094 
L 106.337275 385.73181 
L 110.688716 385.558878 
L 115.040157 385.334393 
L 119.391598 385.04504 
L 123.743039 384.674709 
L 128.09448 384.204102 
L 132.445921 383.610328 
L 136.797362 382.866516 
L 141.148803 381.941454 
L 145.500244 380.799296 
L 149.851685 379.399346 
L 154.203126 377.695976 
L 158.554567 375.638684 
L 162.906008 373.172366 
L 167.257449 370.2378 
L 171.60889 366.772413 
L 175.960331 362.711322 
L 180.311772 357.988708 
L 184.663213 352.539497 
L 189.014654 346.301371 
L 193.366095 339.217063 
L 197.717536 331.236916 
L 202.068977 322.321628 
L 206.420418 312.445114 
L 210.771859 301.597371 
L 215.1233 289.787238 
L 219.474741 277.04491 
L 223.826182 263.424078 
L 228.177623 249.003534 
L 232.529063 233.888124 
L 236.880504 218.208919 
L 241.231945 202.122504 
L 245.583386 185.809323 
L 249.934827 169.471045 
L 254.286268 153.326975 
L 258.637709 137.609553 
L 262.98915 122.559072 
L 267.340591 108.417748 
L 271.692032 95.423357 
L 276.043473 83.802649 
L 280.394914 73.764805 
L 284.746355 65.495194 
L 289.097796 59.149682 
L 293.449237 54.849752 
L 297.800678 52.678636 
L 302.152119 52.678636 
L 306.50356 54.849752 
L 310.855001 59.149682 
L 315.206442 65.495194 
L 319.557883 73.764805 
L 323.909324 83.802649 
L 328.260765 95.423357 
L 332.612206 108.417748 
L 336.963647 122.559072 
L 341.315088 137.609553 
L 345.666529 153.326975 
L 350.01797 169.471045 
L 354.369411 185.809323 
L 358.720852 202.122504 
L 363.072293 218.208919 
L 367.423734 233.888124 
L 371.775175 249.003534 
L 376.126616 263.424078 
L 380.478057 277.04491 
L 384.829498 289.787238 
L 389.180939 301.597371 
L 393.53238 312.445114 
L 397.883821 322.321628 
L 402.235262 331.236916 
L 406.586703 339.217063 
L 410.938144 346.301371 
L 415.289585 352.539497 
L 419.641026 357.988708 
L 423.992467 362.711322 
L 428.343908 366.772413 
L 432.695349 370.2378 
L 437.04679 373.172366 
L 441.398231 375.638684 
L 445.749672 377.695976 
L 450.101113 379.399346 
L 454.452554 380.799296 
L 458.803995 381.941454 
L 463.155435 382.866516 
L 467.506876 383.610328 
L 471.858317 384.204102 
L 476.209758 384.674709 
L 480.561199 385.04504 
L 484.91264 385.334393 
L 489.264081 385.558878 
L 493.615522 385.73181 
L 497.966963 385.864094 
L 502.318404 385.964575 
L 506.669845 386.040368 
L 511.021286 386.097141 
L 515.372727 386.139371 
" style="fill:none;stroke:#ff6384;stroke-linecap:square;"/>
   </g>
   <g id="line2d_2">
    <path clip-path="url(#p025f2b6323)" d="M 58.827273 386.139776 
L 63.194493 386.097698 
L 67.561714 386.04113 
L 71.928935 385.965611 
L 76.296155 385.865493 
L 80.663376 385.733687 
L 85.030596 385.56138 
L 89.397817 385.337707 
L 93.765038 385.049399 
L 98.132258 384.680406 
L 102.499479 384.211499 
L 106.866699 383.619871 
L 111.23392 382.878746 
L 115.60114 381.957027 
L 119.968361 380.818995 
L 124.335582 379.424104 
L 128.702802 377.726888 
L 133.070023 375.67703 
L 137.437243 373.219623 
L 141.804464 370.295661 
L 146.171685 366.842794 
L 150.538905 362.796377 
L 154.906126 358.090826 
L 159.273346 352.661305 
L 163.640567 346.445718 
L 168.007788 339.387007 
L 172.375008 331.435694 
L 176.742229 322.552619 
L 181.109449 312.711791 
L 185.47667 301.903243 
L 189.843891 290.135781 
L 194.211111 277.439494 
L 198.578332 263.867877 
L 202.945552 249.499437 
L 207.312773 234.438642 
L 211.679994 218.816089 
L 216.047214 202.787798 
L 220.414435 186.533559 
L 224.781655 170.254315 
L 229.148876 154.168576 
L 233.516097 138.507945 
L 237.883317 123.511844 
L 242.250538 109.421615 
L 246.617758 96.474175 
L 250.984979 84.895455 
L 255.3522 74.89388 
L 259.71942 66.654148 
L 264.086641 60.331564 
L 268.453861 56.04717 
L 272.821082 53.883899 
L 277.188303 53.883899 
L 281.555523 56.04717 
L 285.922744 60.331564 
L 290.289964 66.654148 
L 294.657185 74.89388 
L 299.024406 84.895455 
L 303.391626 96.474175 
L 307.758847 109.421615 
L 312.126067 123.511844 
L 316.493288 138.507945 
L 320.860509 154.168576 
L 325.227729 170.254315 
L 329.59495 186.533559 
L 333.96217 202.787798 
L 338.329391 218.816089 
L 342.696612 234.438642 
L 347.063832 249.499437 
L 351.431053 263.867877 
L 355.798273 277.439494 
L 360.165494 290.135781 
L 364.532715 301.903243 
L 368.899935 312.711791 
L 373.267156 322.552619 
L 377.634376 331.435694 
L 382.001597 339.387007 
L 386.368818 346.445718 
L 390.736038 352.661305 
L 395.103259 358.090826 
L 399.470479 362.796377 
L 403.8377 366.842794 
L 408.20492 370.295661 
L 412.572141 373.219623 
L 416.939362 375.67703 
L 421.306582 377.726888 
L 425.673803 379.424104 
L 430.041023 380.818995 
L 434.408244 381.957027 
L 438.775465 382.878746 
L 443.142685 383.619871 
L 447.509906 384.211499 
L 451.877126 384.680406 
L 456.244347 385.049399 
L 460.611568 385.337707 
L 464.978788 385.56138 
L 469.346009 385.733687 
L 473.713229 385.865493 
L 478.08045 385.965611 
L 482.447671 386.04113 
L 486.814891 386.097698 
L 491.182112 386.139776 
" style="fill:none;stroke:#36a2eb;stroke-linecap:square;"/>
   </g>
   <g id="patch_3">
    <path d="M 36 402.93 
L 538.2 402.93 
" style="fill:none;stroke:#000000;stroke-linecap:square;stroke-linejoin:miter;stroke-width:0.8;"/>
   </g>
   <g id="legend_1">
    <g id="patch_4">
     <path d="M 413.971875 88.29875 
L 528.4 88.29875 
Q 531.2 88.29875 531.2 85.49875 
L 531.2 45.8 
Q 531.2 43 528.4 43 
L 413.971875 43 
Q 411.171875 43 411.171875 45.8 
L 411.171875 85.49875 
Q 411.171875 88.29875 413.971875 88.29875 
z
" style="fill:#ffffff;opacity:0.8;stroke:#cccccc;stroke-linejoin:miter;"/>
    </g>
    <g id="patch_5">
     <path d="M 416.771875 59.237813 
L 444.771875 59.237813 
L 444.771875 49.437813 
L 416.771875 49.437813 
z
" style="fill:#ff6384;opacity:0.5;stroke:#ff6384;stroke-linejoin:miter;"/>
    </g>
    <g id="text_1">
     <!-- base -->
     <defs>
      <path d="M 48.6875 27.296875 
Q 48.6875 37.203125 44.609375 42.84375 
Q 40.53125 48.484375 33.40625 48.484375 
Q 26.265625 48.484375 22.1875 42.84375 
Q 18.109375 37.203125 18.109375 27.296875 
Q 18.109375 17.390625 22.1875 11.75 
Q 26.265625 6.109375 33.40625 6.109375 
Q 40.53125 6.109375 44.609375 11.75 
Q 48.6875 17.390625 48.6875 27.296875 
z
M 18.109375 46.390625 
Q 20.953125 51.265625 25.265625 53.625 
Q 29.59375 56 35.59375 56 
Q 45.5625 56 51.78125 48.09375 
Q 58.015625 40.1875 58.015625 27.296875 
Q 58.015625 14.40625 51.78125 6.484375 
Q 45.5625 -1.421875 35.59375 -1.421875 
Q 29.59375 -1.421875 25.265625 0.953125 
Q 20.953125 3.328125 18.109375 8.203125 
L 18.109375 0 
L 9.078125 0 
L 9.078125 75.984375 
L 18.109375 75.984375 
z
" id="DejaVuSans-98"/>
      <path d="M 34.28125 27.484375 
Q 23.390625 27.484375 19.1875 25 
Q 14.984375 22.515625 14.984375 16.5 
Q 14.984375 11.71875 18.140625 8.90625 
Q 21.296875 6.109375 26.703125 6.109375 
Q 34.1875 6.109375 38.703125 11.40625 
Q 43.21875 16.703125 43.21875 25.484375 
L 43.21875 27.484375 
z
M 52.203125 31.203125 
L 52.203125 0 
L 43.21875 0 
L 43.21875 8.296875 
Q 40.140625 3.328125 35.546875 0.953125 
Q 30.953125 -1.421875 24.3125 -1.421875 
Q 15.921875 -1.421875 10.953125 3.296875 
Q 6 8.015625 6 15.921875 
Q 6 25.140625 12.171875 29.828125 
Q 18.359375 34.515625 30.609375 34.515625 
L 43.21875 34.515625 
L 43.21875 35.40625 
Q 43.21875 41.609375 39.140625 45 
Q 35.0625 48.390625 27.6875 48.390625 
Q 23 48.390625 18.546875 47.265625 
Q 14.109375 46.140625 10.015625 43.890625 
L 10.015625 52.203125 
Q 14.9375 54.109375 19.578125 55.046875 
Q 24.21875 56 28.609375 56 
Q 40.484375 56 46.34375 49.84375 
Q 52.203125 43.703125 52.203125 31.203125 
z
" id="DejaVuSans-97"/>
      <path d="M 44.28125 53.078125 
L 44.28125 44.578125 
Q 40.484375 46.53125 36.375 47.5 
Q 32.28125 48.484375 27.875 48.484375 
Q 21.1875 48.484375 17.84375 46.4375 
Q 14.5 44.390625 14.5 40.28125 
Q 14.5 37.15625 16.890625 35.375 
Q 19.28125 33.59375 26.515625 31.984375 
L 29.59375 31.296875 
Q 39.15625 29.25 43.1875 25.515625 
Q 47.21875 21.78125 47.21875 15.09375 
Q 47.21875 7.46875 41.1875 3.015625 
Q 35.15625 -1.421875 24.609375 -1.421875 
Q 20.21875 -1.421875 15.453125 -0.5625 
Q 10.6875 0.296875 5.421875 2 
L 5.421875 11.28125 
Q 10.40625 8.6875 15.234375 7.390625 
Q 20.0625 6.109375 24.8125 6.109375 
Q 31.15625 6.109375 34.5625 8.28125 
Q 37.984375 10.453125 37.984375 14.40625 
Q 37.984375 18.0625 35.515625 20.015625 
Q 33.0625 21.96875 24.703125 23.78125 
L 21.578125 24.515625 
Q 13.234375 26.265625 9.515625 29.90625 
Q 5.8125 33.546875 5.8125 39.890625 
Q 5.8125 47.609375 11.28125 51.796875 
Q 16.75 56 26.8125 56 
Q 31.78125 56 36.171875 55.265625 
Q 40.578125 54.546875 44.28125 53.078125 
z
" id="DejaVuSans-115"/>
      <path d="M 56.203125 29.59375 
L 56.203125 25.203125 
L 14.890625 25.203125 
Q 15.484375 15.921875 20.484375 11.0625 
Q 25.484375 6.203125 34.421875 6.203125 
Q 39.59375 6.203125 44.453125 7.46875 
Q 49.3125 8.734375 54.109375 11.28125 
L 54.109375 2.78125 
Q 49.265625 0.734375 44.1875 -0.34375 
Q 39.109375 -1.421875 33.890625 -1.421875 
Q 20.796875 -1.421875 13.15625 6.1875 
Q 5.515625 13.8125 5.515625 26.8125 
Q 5.515625 40.234375 12.765625 48.109375 
Q 20.015625 56 32.328125 56 
Q 43.359375 56 49.78125 48.890625 
Q 56.203125 41.796875 56.203125 29.59375 
z
M 47.21875 32.234375 
Q 47.125 39.59375 43.09375 43.984375 
Q 39.0625 48.390625 32.421875 48.390625 
Q 24.90625 48.390625 20.390625 44.140625 
Q 15.875 39.890625 15.1875 32.171875 
z
" id="DejaVuSans-101"/>
     </defs>
     <g transform="translate(455.971875 59.237813)scale(0.14 -0.14)">
      <use xlink:href="#DejaVuSans-98"/>
      <use x="63.476562" xlink:href="#DejaVuSans-97"/>
      <use x="124.755859" xlink:href="#DejaVuSans-115"/>
      <use x="176.855469" xlink:href="#DejaVuSans-101"/>
     </g>
    </g>
    <g id="patch_6">
     <path d="M 416.771875 79.787188 
L 444.771875 79.787188 
L 444.771875 69.987188 
L 416.771875 69.987188 
z
" style="fill:#36a2eb;opacity:0.5;stroke:#36a2eb;stroke-linejoin:miter;"/>
    </g>
    <g id="text_2">
     <!-- expanded -->
     <defs>
      <path d="M 54.890625 54.6875 
L 35.109375 28.078125 
L 55.90625 0 
L 45.3125 0 
L 29.390625 21.484375 
L 13.484375 0 
L 2.875 0 
L 24.125 28.609375 
L 4.6875 54.6875 
L 15.28125 54.6875 
L 29.78125 35.203125 
L 44.28125 54.6875 
z
" id="DejaVuSans-120"/>
      <path d="M 18.109375 8.203125 
L 18.109375 -20.796875 
L 9.078125 -20.796875 
L 9.078125 54.6875 
L 18.109375 54.6875 
L 18.109375 46.390625 
Q 20.953125 51.265625 25.265625 53.625 
Q 29.59375 56 35.59375 56 
Q 45.5625 56 51.78125 48.09375 
Q 58.015625 40.1875 58.015625 27.296875 
Q 58.015625 14.40625 51.78125 6.484375 
Q 45.5625 -1.421875 35.59375 -1.421875 
Q 29.59375 -1.421875 25.265625 0.953125 
Q 20.953125 3.328125 18.109375 8.203125 
z
M 48.6875 27.296875 
Q 48.6875 37.203125 44.609375 42.84375 
Q 40.53125 48.484375 33.40625 48.484375 
Q 26.265625 48.484375 22.1875 42.84375 
Q 18.109375 37.203125 18.109375 27.296875 
Q 18.109375 17.390625 22.1875 11.75 
Q 26.265625 6.109375 33.40625 6.109375 
Q 40.53125 6.109375 44.609375 11.75 
Q 48.6875 17.390625 48.6875 27.296875 
z
" id="DejaVuSans-112"/>
      <path d="M 54.890625 33.015625 
L 54.890625 0 
L 45.90625 0 
L 45.90625 32.71875 
Q 45.90625 40.484375 42.875 44.328125 
Q 39.84375 48.1875 33.796875 48.1875 
Q 26.515625 48.1875 22.3125 43.546875 
Q 18.109375 38.921875 18.109375 30.90625 
L 18.109375 0 
L 9.078125 0 
L 9.078125 54.6875 
L 18.109375 54.6875 
L 18.109375 46.1875 
Q 21.34375 51.125 25.703125 53.5625 
Q 30.078125 56 35.796875 56 
Q 45.21875 56 50.046875 50.171875 
Q 54.890625 44.34375 54.890625 33.015625 
z
" id="DejaVuSans-110"/>
      <path d="M 45.40625 46.390625 
L 45.40625 75.984375 
L 54.390625 75.984375 
L 54.390625 0 
L 45.40625 0 
L 45.40625 8.203125 
Q 42.578125 3.328125 38.25 0.953125 
Q 33.9375 -1.421875 27.875 -1.421875 
Q 17.96875 -1.421875 11.734375 6.484375 
Q 5.515625 14.40625 5.515625 27.296875 
Q 5.515625 40.1875 11.734375 48.09375 
Q 17.96875 56 27.875 56 
Q 33.9375 56 38.25 53.625 
Q 42.578125 51.265625 45.40625 46.390625 
z
M 14.796875 27.296875 
Q 14.796875 17.390625 18.875 11.75 
Q 22.953125 6.109375 30.078125 6.109375 
Q 37.203125 6.109375 41.296875 11.75 
Q 45.40625 17.390625 45.40625 27.296875 
Q 45.40625 37.203125 41.296875 42.84375 
Q 37.203125 48.484375 30.078125 48.484375 
Q 22.953125 48.484375 18.875 42.84375 
Q 14.796875 37.203125 14.796875 27.296875 
z
" id="DejaVuSans-100"/>
     </defs>
     <g transform="translate(455.971875 79.787188)scale(0.14 -0.14)">
      <use xlink:href="#DejaVuSans-101"/>
      <use x="61.507812" xlink:href="#DejaVuSans-120"/>
      <use x="120.6875" xlink:href="#DejaVuSans-112"/>
      <use x="184.164062" xlink:href="#DejaVuSans-97"/>
      <use x="245.443359" xlink:href="#DejaVuSans-110"/>
      <use x="308.822266" xlink:href="#DejaVuSans-100"/>
      <use x="372.298828" xlink:href="#DejaVuSans-101"/>
      <use x="433.822266" xlink:href="#DejaVuSans-100"/>
     </g>
    </g>
   </g>
  </g>
  <g id="axes_2">
   <g id="patch_7">
    <path d="M 36 525.24 
L 538.2 525.24 
L 538.2 402.93 
L 36 402.93 
z
" style="fill:none;"/>
   </g>
   <g id="patch_8">
    <path clip-path="url(#p266863fd40)" d="M 194.432198 519.680455 
L 405.5206 519.680455 
L 405.5206 482.616818 
L 194.432198 482.616818 
z
" style="fill:#ff6384;opacity:0.5;"/>
   </g>
   <g id="patch_9">
    <path clip-path="url(#p266863fd40)" d="M 169.077757 445.553182 
L 380.931628 445.553182 
L 380.931628 408.489545 
L 169.077757 408.489545 
z
" style="fill:#36a2eb;opacity:0.5;"/>
   </g>
   <g id="matplotlib.axis_1">
    <g id="xtick_1">
     <g id="line2d_3">
      <defs>
       <path d="M 0 0 
L 0 3.5 
" id="me9ac6cf5a5" style="stroke:#000000;stroke-width:0.8;"/>
      </defs>
      <g>
       <use style="stroke:#000000;stroke-width:0.8;" x="64.636984" xlink:href="#me9ac6cf5a5" y="525.24"/>
      </g>
     </g>
     <g id="text_3">
      <!-- 29 -->
      <defs>
       <path d="M 19.1875 8.296875 
L 53.609375 8.296875 
L 53.609375 0 
L 7.328125 0 
L 7.328125 8.296875 
Q 12.9375 14.109375 22.625 23.890625 
Q 32.328125 33.6875 34.8125 36.53125 
Q 39.546875 41.84375 41.421875 45.53125 
Q 43.3125 49.21875 43.3125 52.78125 
Q 43.3125 58.59375 39.234375 62.25 
Q 35.15625 65.921875 28.609375 65.921875 
Q 23.96875 65.921875 18.8125 64.3125 
Q 13.671875 62.703125 7.8125 59.421875 
L 7.8125 69.390625 
Q 13.765625 71.78125 18.9375 73 
Q 24.125 74.21875 28.421875 74.21875 
Q 39.75 74.21875 46.484375 68.546875 
Q 53.21875 62.890625 53.21875 53.421875 
Q 53.21875 48.921875 51.53125 44.890625 
Q 49.859375 40.875 45.40625 35.40625 
Q 44.1875 33.984375 37.640625 27.21875 
Q 31.109375 20.453125 19.1875 8.296875 
z
" id="DejaVuSans-50"/>
       <path d="M 10.984375 1.515625 
L 10.984375 10.5 
Q 14.703125 8.734375 18.5 7.8125 
Q 22.3125 6.890625 25.984375 6.890625 
Q 35.75 6.890625 40.890625 13.453125 
Q 46.046875 20.015625 46.78125 33.40625 
Q 43.953125 29.203125 39.59375 26.953125 
Q 35.25 24.703125 29.984375 24.703125 
Q 19.046875 24.703125 12.671875 31.3125 
Q 6.296875 37.9375 6.296875 49.421875 
Q 6.296875 60.640625 12.9375 67.421875 
Q 19.578125 74.21875 30.609375 74.21875 
Q 43.265625 74.21875 49.921875 64.515625 
Q 56.59375 54.828125 56.59375 36.375 
Q 56.59375 19.140625 48.40625 8.859375 
Q 40.234375 -1.421875 26.421875 -1.421875 
Q 22.703125 -1.421875 18.890625 -0.6875 
Q 15.09375 0.046875 10.984375 1.515625 
z
M 30.609375 32.421875 
Q 37.25 32.421875 41.125 36.953125 
Q 45.015625 41.5 45.015625 49.421875 
Q 45.015625 57.28125 41.125 61.84375 
Q 37.25 66.40625 30.609375 66.40625 
Q 23.96875 66.40625 20.09375 61.84375 
Q 16.21875 57.28125 16.21875 49.421875 
Q 16.21875 41.5 20.09375 36.953125 
Q 23.96875 32.421875 30.609375 32.421875 
z
" id="DejaVuSans-57"/>
      </defs>
      <g transform="translate(55.729484 542.877813)scale(0.14 -0.14)">
       <use xlink:href="#DejaVuSans-50"/>
       <use x="63.623047" xlink:href="#DejaVuSans-57"/>
      </g>
     </g>
    </g>
    <g id="xtick_2">
     <g id="line2d_4">
      <g>
       <use style="stroke:#000000;stroke-width:0.8;" x="140.308821" xlink:href="#me9ac6cf5a5" y="525.24"/>
      </g>
     </g>
     <g id="text_4">
      <!-- 30 -->
      <defs>
       <path d="M 40.578125 39.3125 
Q 47.65625 37.796875 51.625 33 
Q 55.609375 28.21875 55.609375 21.1875 
Q 55.609375 10.40625 48.1875 4.484375 
Q 40.765625 -1.421875 27.09375 -1.421875 
Q 22.515625 -1.421875 17.65625 -0.515625 
Q 12.796875 0.390625 7.625 2.203125 
L 7.625 11.71875 
Q 11.71875 9.328125 16.59375 8.109375 
Q 21.484375 6.890625 26.8125 6.890625 
Q 36.078125 6.890625 40.9375 10.546875 
Q 45.796875 14.203125 45.796875 21.1875 
Q 45.796875 27.640625 41.28125 31.265625 
Q 36.765625 34.90625 28.71875 34.90625 
L 20.21875 34.90625 
L 20.21875 43.015625 
L 29.109375 43.015625 
Q 36.375 43.015625 40.234375 45.921875 
Q 44.09375 48.828125 44.09375 54.296875 
Q 44.09375 59.90625 40.109375 62.90625 
Q 36.140625 65.921875 28.71875 65.921875 
Q 24.65625 65.921875 20.015625 65.03125 
Q 15.375 64.15625 9.8125 62.3125 
L 9.8125 71.09375 
Q 15.4375 72.65625 20.34375 73.4375 
Q 25.25 74.21875 29.59375 74.21875 
Q 40.828125 74.21875 47.359375 69.109375 
Q 53.90625 64.015625 53.90625 55.328125 
Q 53.90625 49.265625 50.4375 45.09375 
Q 46.96875 40.921875 40.578125 39.3125 
z
" id="DejaVuSans-51"/>
       <path d="M 31.78125 66.40625 
Q 24.171875 66.40625 20.328125 58.90625 
Q 16.5 51.421875 16.5 36.375 
Q 16.5 21.390625 20.328125 13.890625 
Q 24.171875 6.390625 31.78125 6.390625 
Q 39.453125 6.390625 43.28125 13.890625 
Q 47.125 21.390625 47.125 36.375 
Q 47.125 51.421875 43.28125 58.90625 
Q 39.453125 66.40625 31.78125 66.40625 
z
M 31.78125 74.21875 
Q 44.046875 74.21875 50.515625 64.515625 
Q 56.984375 54.828125 56.984375 36.375 
Q 56.984375 17.96875 50.515625 8.265625 
Q 44.046875 -1.421875 31.78125 -1.421875 
Q 19.53125 -1.421875 13.0625 8.265625 
Q 6.59375 17.96875 6.59375 36.375 
Q 6.59375 54.828125 13.0625 64.515625 
Q 19.53125 74.21875 31.78125 74.21875 
z
" id="DejaVuSans-48"/>
      </defs>
      <g transform="translate(131.401321 542.877813)scale(0.14 -0.14)">
       <use xlink:href="#DejaVuSans-51"/>
       <use x="63.623047" xlink:href="#DejaVuSans-48"/>
      </g>
     </g>
    </g>
    <g id="xtick_3">
     <g id="line2d_5">
      <g>
       <use style="stroke:#000000;stroke-width:0.8;" x="215.980659" xlink:href="#me9ac6cf5a5" y="525.24"/>
      </g>
     </g>
     <g id="text_5">
      <!-- 31 -->
      <defs>
       <path d="M 12.40625 8.296875 
L 28.515625 8.296875 
L 28.515625 63.921875 
L 10.984375 60.40625 
L 10.984375 69.390625 
L 28.421875 72.90625 
L 38.28125 72.90625 
L 38.28125 8.296875 
L 54.390625 8.296875 
L 54.390625 0 
L 12.40625 0 
z
" id="DejaVuSans-49"/>
      </defs>
      <g transform="translate(207.073159 542.877813)scale(0.14 -0.14)">
       <use xlink:href="#DejaVuSans-51"/>
       <use x="63.623047" xlink:href="#DejaVuSans-49"/>
      </g>
     </g>
    </g>
    <g id="xtick_4">
     <g id="line2d_6">
      <g>
       <use style="stroke:#000000;stroke-width:0.8;" x="291.652497" xlink:href="#me9ac6cf5a5" y="525.24"/>
      </g>
     </g>
     <g id="text_6">
      <!-- 32 -->
      <g transform="translate(282.744997 542.877813)scale(0.14 -0.14)">
       <use xlink:href="#DejaVuSans-51"/>
       <use x="63.623047" xlink:href="#DejaVuSans-50"/>
      </g>
     </g>
    </g>
    <g id="xtick_5">
     <g id="line2d_7">
      <g>
       <use style="stroke:#000000;stroke-width:0.8;" x="367.324334" xlink:href="#me9ac6cf5a5" y="525.24"/>
      </g>
     </g>
     <g id="text_7">
      <!-- 33 -->
      <g transform="translate(358.416834 542.877813)scale(0.14 -0.14)">
       <use xlink:href="#DejaVuSans-51"/>
       <use x="63.623047" xlink:href="#DejaVuSans-51"/>
      </g>
     </g>
    </g>
    <g id="xtick_6">
     <g id="line2d_8">
      <g>
       <use style="stroke:#000000;stroke-width:0.8;" x="442.996172" xlink:href="#me9ac6cf5a5" y="525.24"/>
      </g>
     </g>
     <g id="text_8">
      <!-- 34 -->
      <defs>
       <path d="M 37.796875 64.3125 
L 12.890625 25.390625 
L 37.796875 25.390625 
z
M 35.203125 72.90625 
L 47.609375 72.90625 
L 47.609375 25.390625 
L 58.015625 25.390625 
L 58.015625 17.1875 
L 47.609375 17.1875 
L 47.609375 0 
L 37.796875 0 
L 37.796875 17.1875 
L 4.890625 17.1875 
L 4.890625 26.703125 
z
" id="DejaVuSans-52"/>
      </defs>
      <g transform="translate(434.088672 542.877813)scale(0.14 -0.14)">
       <use xlink:href="#DejaVuSans-51"/>
       <use x="63.623047" xlink:href="#DejaVuSans-52"/>
      </g>
     </g>
    </g>
    <g id="xtick_7">
     <g id="line2d_9">
      <g>
       <use style="stroke:#000000;stroke-width:0.8;" x="518.668009" xlink:href="#me9ac6cf5a5" y="525.24"/>
      </g>
     </g>
     <g id="text_9">
      <!-- 35 -->
      <defs>
       <path d="M 10.796875 72.90625 
L 49.515625 72.90625 
L 49.515625 64.59375 
L 19.828125 64.59375 
L 19.828125 46.734375 
Q 21.96875 47.46875 24.109375 47.828125 
Q 26.265625 48.1875 28.421875 48.1875 
Q 40.625 48.1875 47.75 41.5 
Q 54.890625 34.8125 54.890625 23.390625 
Q 54.890625 11.625 47.5625 5.09375 
Q 40.234375 -1.421875 26.90625 -1.421875 
Q 22.3125 -1.421875 17.546875 -0.640625 
Q 12.796875 0.140625 7.71875 1.703125 
L 7.71875 11.625 
Q 12.109375 9.234375 16.796875 8.0625 
Q 21.484375 6.890625 26.703125 6.890625 
Q 35.15625 6.890625 40.078125 11.328125 
Q 45.015625 15.765625 45.015625 23.390625 
Q 45.015625 31 40.078125 35.4375 
Q 35.15625 39.890625 26.703125 39.890625 
Q 22.75 39.890625 18.8125 39.015625 
Q 14.890625 38.140625 10.796875 36.28125 
z
" id="DejaVuSans-53"/>
      </defs>
      <g transform="translate(509.760509 542.877813)scale(0.14 -0.14)">
       <use xlink:href="#DejaVuSans-51"/>
       <use x="63.623047" xlink:href="#DejaVuSans-53"/>
      </g>
     </g>
    </g>
   </g>
   <g id="line2d_10">
    <path clip-path="url(#p266863fd40)" d="M 299.976399 525.24 
L 299.976399 402.93 
" style="fill:none;stroke:#ff6384;stroke-dasharray:5.55,2.4;stroke-dashoffset:0;stroke-opacity:0.8;stroke-width:1.5;"/>
   </g>
   <g id="line2d_11">
    <path clip-path="url(#p266863fd40)" d="M 275.004692 525.24 
L 275.004692 402.93 
" style="fill:none;stroke:#36a2eb;stroke-dasharray:5.55,2.4;stroke-dashoffset:0;stroke-opacity:0.8;stroke-width:1.5;"/>
   </g>
   <g id="patch_10">
    <path d="M 36 525.24 
L 538.2 525.24 
" style="fill:none;stroke:#000000;stroke-linecap:square;stroke-linejoin:miter;stroke-width:0.8;"/>
   </g>
  </g>
 </g>
 <defs>
  <clipPath id="p025f2b6323">
   <rect height="366.93" width="502.2" x="36" y="36"/>
  </clipPath>
  <clipPath id="p266863fd40">
   <rect height="122.31" width="502.2" x="36" y="402.93"/>
  </clipPath>
 </defs>
</svg>
