<?xml version="1.0" encoding="utf-8" standalone="no"?>
<!DOCTYPE svg PUBLIC "-//W3C//DTD SVG 1.1//EN"
  "http://www.w3.org/Graphics/SVG/1.1/DTD/svg11.dtd">
<!-- Created with matplotlib (https://matplotlib.org/) -->
<svg height="581.789375pt" version="1.1" viewBox="0 0 582.150426 581.789375" width="582.150426pt" xmlns="http://www.w3.org/2000/svg" xmlns:xlink="http://www.w3.org/1999/xlink">
 <defs>
  <style type="text/css">
*{stroke-linecap:butt;stroke-linejoin:round;}
  </style>
 </defs>
 <g id="figure_1">
  <g id="patch_1">
   <path d="M 0 581.789375 
L 582.150426 581.789375 
L 582.150426 0 
L 0 0 
z
" style="fill:none;"/>
  </g>
  <g id="axes_1">
   <g id="patch_2">
    <path d="M 36 402.93 
L 538.2 402.93 
L 538.2 36 
L 36 36 
z
" style="fill:none;"/>
   </g>
   <g id="PolyCollection_1">
    <defs>
     <path d="M 81.03958 -195.538011 
L 81.03958 -195.650004 
L 85.426784 -195.692234 
L 89.813987 -195.749007 
L 94.201191 -195.8248 
L 98.588394 -195.925281 
L 102.975598 -196.057565 
L 107.362801 -196.230497 
L 111.750005 -196.454982 
L 116.137208 -196.744335 
L 120.524412 -197.114666 
L 124.911615 -197.585273 
L 129.298819 -198.179047 
L 133.686022 -198.922859 
L 138.073226 -199.847921 
L 142.460429 -200.990079 
L 146.847633 -202.390029 
L 151.234836 -204.093399 
L 155.62204 -206.150691 
L 160.009243 -208.617009 
L 164.396447 -211.551575 
L 168.78365 -215.016962 
L 173.170854 -219.078053 
L 177.558057 -223.800667 
L 181.945261 -229.249878 
L 186.332464 -235.488004 
L 190.719668 -242.572312 
L 195.106871 -250.552459 
L 199.494075 -259.467747 
L 203.881278 -269.344261 
L 208.268482 -280.192004 
L 212.655685 -292.002137 
L 217.042889 -304.744465 
L 221.430092 -318.365297 
L 225.817296 -332.785841 
L 230.204499 -347.901251 
L 234.591703 -363.580456 
L 238.978906 -379.666871 
L 243.36611 -395.980052 
L 247.753313 -412.31833 
L 252.140517 -428.4624 
L 256.52772 -444.179822 
L 260.914924 -459.230303 
L 265.302127 -473.371627 
L 269.689331 -486.366018 
L 274.076534 -497.986726 
L 278.463738 -508.02457 
L 282.850941 -516.294181 
L 287.238145 -522.639693 
L 291.625348 -526.939623 
L 296.012552 -529.110739 
L 300.399755 -529.110739 
L 304.786959 -526.939623 
L 309.174162 -522.639693 
L 313.561366 -516.294181 
L 317.948569 -508.02457 
L 322.335773 -497.986726 
L 326.722976 -486.366018 
L 331.11018 -473.371627 
L 335.497383 -459.230303 
L 339.884587 -444.179822 
L 344.27179 -428.4624 
L 348.658994 -412.31833 
L 353.046197 -395.980052 
L 357.433401 -379.666871 
L 361.820605 -363.580456 
L 366.207808 -347.901251 
L 370.595012 -332.785841 
L 374.982215 -318.365297 
L 379.369419 -304.744465 
L 383.756622 -292.002137 
L 388.143826 -280.192004 
L 392.531029 -269.344261 
L 396.918233 -259.467747 
L 401.305436 -250.552459 
L 405.69264 -242.572312 
L 410.079843 -235.488004 
L 414.467047 -229.249878 
L 418.85425 -223.800667 
L 423.241454 -219.078053 
L 427.628657 -215.016962 
L 432.015861 -211.551575 
L 436.403064 -208.617009 
L 440.790268 -206.150691 
L 445.177471 -204.093399 
L 449.564675 -202.390029 
L 453.951878 -200.990079 
L 458.339082 -199.847921 
L 462.726285 -198.922859 
L 467.113489 -198.179047 
L 471.500692 -197.585273 
L 475.887896 -197.114666 
L 480.275099 -196.744335 
L 484.662303 -196.454982 
L 489.049506 -196.230497 
L 493.43671 -196.057565 
L 497.823913 -195.925281 
L 502.211117 -195.8248 
L 506.59832 -195.749007 
L 510.985524 -195.692234 
L 515.372727 -195.650004 
L 515.372727 -195.538011 
L 515.372727 -195.538011 
L 510.985524 -195.538011 
L 506.59832 -195.538011 
L 502.211117 -195.538011 
L 497.823913 -195.538011 
L 493.43671 -195.538011 
L 489.049506 -195.538011 
L 484.662303 -195.538011 
L 480.275099 -195.538011 
L 475.887896 -195.538011 
L 471.500692 -195.538011 
L 467.113489 -195.538011 
L 462.726285 -195.538011 
L 458.339082 -195.538011 
L 453.951878 -195.538011 
L 449.564675 -195.538011 
L 445.177471 -195.538011 
L 440.790268 -195.538011 
L 436.403064 -195.538011 
L 432.015861 -195.538011 
L 427.628657 -195.538011 
L 423.241454 -195.538011 
L 418.85425 -195.538011 
L 414.467047 -195.538011 
L 410.079843 -195.538011 
L 405.69264 -195.538011 
L 401.305436 -195.538011 
L 396.918233 -195.538011 
L 392.531029 -195.538011 
L 388.143826 -195.538011 
L 383.756622 -195.538011 
L 379.369419 -195.538011 
L 374.982215 -195.538011 
L 370.595012 -195.538011 
L 366.207808 -195.538011 
L 361.820605 -195.538011 
L 357.433401 -195.538011 
L 353.046197 -195.538011 
L 348.658994 -195.538011 
L 344.27179 -195.538011 
L 339.884587 -195.538011 
L 335.497383 -195.538011 
L 331.11018 -195.538011 
L 326.722976 -195.538011 
L 322.335773 -195.538011 
L 317.948569 -195.538011 
L 313.561366 -195.538011 
L 309.174162 -195.538011 
L 304.786959 -195.538011 
L 300.399755 -195.538011 
L 296.012552 -195.538011 
L 291.625348 -195.538011 
L 287.238145 -195.538011 
L 282.850941 -195.538011 
L 278.463738 -195.538011 
L 274.076534 -195.538011 
L 269.689331 -195.538011 
L 265.302127 -195.538011 
L 260.914924 -195.538011 
L 256.52772 -195.538011 
L 252.140517 -195.538011 
L 247.753313 -195.538011 
L 243.36611 -195.538011 
L 238.978906 -195.538011 
L 234.591703 -195.538011 
L 230.204499 -195.538011 
L 225.817296 -195.538011 
L 221.430092 -195.538011 
L 217.042889 -195.538011 
L 212.655685 -195.538011 
L 208.268482 -195.538011 
L 203.881278 -195.538011 
L 199.494075 -195.538011 
L 195.106871 -195.538011 
L 190.719668 -195.538011 
L 186.332464 -195.538011 
L 181.945261 -195.538011 
L 177.558057 -195.538011 
L 173.170854 -195.538011 
L 168.78365 -195.538011 
L 164.396447 -195.538011 
L 160.009243 -195.538011 
L 155.62204 -195.538011 
L 151.234836 -195.538011 
L 146.847633 -195.538011 
L 142.460429 -195.538011 
L 138.073226 -195.538011 
L 133.686022 -195.538011 
L 129.298819 -195.538011 
L 124.911615 -195.538011 
L 120.524412 -195.538011 
L 116.137208 -195.538011 
L 111.750005 -195.538011 
L 107.362801 -195.538011 
L 102.975598 -195.538011 
L 98.588394 -195.538011 
L 94.201191 -195.538011 
L 89.813987 -195.538011 
L 85.426784 -195.538011 
L 81.03958 -195.538011 
z
" id="m8748465dbd" style="stroke:#ff6384;stroke-opacity:0.5;"/>
    </defs>
    <g clip-path="url(#p9597b9b1da)">
     <use style="fill:#ff6384;fill-opacity:0.5;stroke:#ff6384;stroke-opacity:0.5;" x="0" xlink:href="#m8748465dbd" y="581.789375"/>
    </g>
   </g>
   <g id="PolyCollection_2">
    <defs>
     <path d="M 58.827273 -195.538011 
L 58.827273 -195.649578 
L 63.23122 -195.691648 
L 67.635168 -195.748205 
L 72.039115 -195.823709 
L 76.443063 -195.923809 
L 80.84701 -196.055589 
L 85.250958 -196.227864 
L 89.654905 -196.451495 
L 94.058852 -196.739749 
L 98.4628 -197.108671 
L 102.866747 -197.577489 
L 107.270695 -198.169005 
L 111.674642 -198.90999 
L 116.07859 -199.831535 
L 120.482537 -200.96935 
L 124.886485 -202.363977 
L 129.290432 -204.060871 
L 133.69438 -206.110341 
L 138.098327 -208.567283 
L 142.502275 -211.49069 
L 146.906222 -214.942903 
L 151.31017 -218.988553 
L 155.714117 -223.693212 
L 160.118064 -229.121704 
L 164.522012 -235.336113 
L 168.925959 -242.393486 
L 173.329907 -250.343292 
L 177.733854 -259.224684 
L 182.137802 -269.063647 
L 186.541749 -279.870146 
L 190.945697 -291.635378 
L 195.349644 -304.329258 
L 199.753592 -317.898304 
L 204.157539 -332.26402 
L 208.561487 -347.321961 
L 212.965434 -362.941553 
L 217.369382 -378.966806 
L 221.773329 -395.217965 
L 226.177277 -411.494124 
L 230.581224 -427.576813 
L 234.985171 -443.234477 
L 239.389119 -458.227736 
L 243.793066 -472.315294 
L 248.197014 -485.26028 
L 252.600961 -496.836806 
L 257.004909 -506.836485 
L 261.408856 -515.074655 
L 265.812804 -521.396041 
L 270.216751 -525.679623 
L 274.620699 -527.842484 
L 279.024646 -527.842484 
L 283.428594 -525.679623 
L 287.832541 -521.396041 
L 292.236489 -515.074655 
L 296.640436 -506.836485 
L 301.044383 -496.836806 
L 305.448331 -485.26028 
L 309.852278 -472.315294 
L 314.256226 -458.227736 
L 318.660173 -443.234477 
L 323.064121 -427.576813 
L 327.468068 -411.494124 
L 331.872016 -395.217965 
L 336.275963 -378.966806 
L 340.679911 -362.941553 
L 345.083858 -347.321961 
L 349.487806 -332.26402 
L 353.891753 -317.898304 
L 358.295701 -304.329258 
L 362.699648 -291.635378 
L 367.103595 -279.870146 
L 371.507543 -269.063647 
L 375.91149 -259.224684 
L 380.315438 -250.343292 
L 384.719385 -242.393486 
L 389.123333 -235.336113 
L 393.52728 -229.121704 
L 397.931228 -223.693212 
L 402.335175 -218.988553 
L 406.739123 -214.942903 
L 411.14307 -211.49069 
L 415.547018 -208.567283 
L 419.950965 -206.110341 
L 424.354913 -204.060871 
L 428.75886 -202.363977 
L 433.162808 -200.96935 
L 437.566755 -199.831535 
L 441.970702 -198.90999 
L 446.37465 -198.169005 
L 450.778597 -197.577489 
L 455.182545 -197.108671 
L 459.586492 -196.739749 
L 463.99044 -196.451495 
L 468.394387 -196.227864 
L 472.798335 -196.055589 
L 477.202282 -195.923809 
L 481.60623 -195.823709 
L 486.010177 -195.748205 
L 490.414125 -195.691648 
L 494.818072 -195.649578 
L 494.818072 -195.538011 
L 494.818072 -195.538011 
L 490.414125 -195.538011 
L 486.010177 -195.538011 
L 481.60623 -195.538011 
L 477.202282 -195.538011 
L 472.798335 -195.538011 
L 468.394387 -195.538011 
L 463.99044 -195.538011 
L 459.586492 -195.538011 
L 455.182545 -195.538011 
L 450.778597 -195.538011 
L 446.37465 -195.538011 
L 441.970702 -195.538011 
L 437.566755 -195.538011 
L 433.162808 -195.538011 
L 428.75886 -195.538011 
L 424.354913 -195.538011 
L 419.950965 -195.538011 
L 415.547018 -195.538011 
L 411.14307 -195.538011 
L 406.739123 -195.538011 
L 402.335175 -195.538011 
L 397.931228 -195.538011 
L 393.52728 -195.538011 
L 389.123333 -195.538011 
L 384.719385 -195.538011 
L 380.315438 -195.538011 
L 375.91149 -195.538011 
L 371.507543 -195.538011 
L 367.103595 -195.538011 
L 362.699648 -195.538011 
L 358.295701 -195.538011 
L 353.891753 -195.538011 
L 349.487806 -195.538011 
L 345.083858 -195.538011 
L 340.679911 -195.538011 
L 336.275963 -195.538011 
L 331.872016 -195.538011 
L 327.468068 -195.538011 
L 323.064121 -195.538011 
L 318.660173 -195.538011 
L 314.256226 -195.538011 
L 309.852278 -195.538011 
L 305.448331 -195.538011 
L 301.044383 -195.538011 
L 296.640436 -195.538011 
L 292.236489 -195.538011 
L 287.832541 -195.538011 
L 283.428594 -195.538011 
L 279.024646 -195.538011 
L 274.620699 -195.538011 
L 270.216751 -195.538011 
L 265.812804 -195.538011 
L 261.408856 -195.538011 
L 257.004909 -195.538011 
L 252.600961 -195.538011 
L 248.197014 -195.538011 
L 243.793066 -195.538011 
L 239.389119 -195.538011 
L 234.985171 -195.538011 
L 230.581224 -195.538011 
L 226.177277 -195.538011 
L 221.773329 -195.538011 
L 217.369382 -195.538011 
L 212.965434 -195.538011 
L 208.561487 -195.538011 
L 204.157539 -195.538011 
L 199.753592 -195.538011 
L 195.349644 -195.538011 
L 190.945697 -195.538011 
L 186.541749 -195.538011 
L 182.137802 -195.538011 
L 177.733854 -195.538011 
L 173.329907 -195.538011 
L 168.925959 -195.538011 
L 164.522012 -195.538011 
L 160.118064 -195.538011 
L 155.714117 -195.538011 
L 151.31017 -195.538011 
L 146.906222 -195.538011 
L 142.502275 -195.538011 
L 138.098327 -195.538011 
L 133.69438 -195.538011 
L 129.290432 -195.538011 
L 124.886485 -195.538011 
L 120.482537 -195.538011 
L 116.07859 -195.538011 
L 111.674642 -195.538011 
L 107.270695 -195.538011 
L 102.866747 -195.538011 
L 98.4628 -195.538011 
L 94.058852 -195.538011 
L 89.654905 -195.538011 
L 85.250958 -195.538011 
L 80.84701 -195.538011 
L 76.443063 -195.538011 
L 72.039115 -195.538011 
L 67.635168 -195.538011 
L 63.23122 -195.538011 
L 58.827273 -195.538011 
z
" id="mf987fe0cb5" style="stroke:#36a2eb;stroke-opacity:0.5;"/>
    </defs>
    <g clip-path="url(#p9597b9b1da)">
     <use style="fill:#36a2eb;fill-opacity:0.5;stroke:#36a2eb;stroke-opacity:0.5;" x="0" xlink:href="#mf987fe0cb5" y="581.789375"/>
    </g>
   </g>
   <g id="line2d_1">
    <path clip-path="url(#p9597b9b1da)" d="M 81.03958 386.139371 
L 85.426784 386.097141 
L 89.813987 386.040368 
L 94.201191 385.964575 
L 98.588394 385.864094 
L 102.975598 385.73181 
L 107.362801 385.558878 
L 111.750005 385.334393 
L 116.137208 385.04504 
L 120.524412 384.674709 
L 124.911615 384.204102 
L 129.298819 383.610328 
L 133.686022 382.866516 
L 138.073226 381.941454 
L 142.460429 380.799296 
L 146.847633 379.399346 
L 151.234836 377.695976 
L 155.62204 375.638684 
L 160.009243 373.172366 
L 164.396447 370.2378 
L 168.78365 366.772413 
L 173.170854 362.711322 
L 177.558057 357.988708 
L 181.945261 352.539497 
L 186.332464 346.301371 
L 190.719668 339.217063 
L 195.106871 331.236916 
L 199.494075 322.321628 
L 203.881278 312.445114 
L 208.268482 301.597371 
L 212.655685 289.787238 
L 217.042889 277.04491 
L 221.430092 263.424078 
L 225.817296 249.003534 
L 230.204499 233.888124 
L 234.591703 218.208919 
L 238.978906 202.122504 
L 243.36611 185.809323 
L 247.753313 169.471045 
L 252.140517 153.326975 
L 256.52772 137.609553 
L 260.914924 122.559072 
L 265.302127 108.417748 
L 269.689331 95.423357 
L 274.076534 83.802649 
L 278.463738 73.764805 
L 282.850941 65.495194 
L 287.238145 59.149682 
L 291.625348 54.849752 
L 296.012552 52.678636 
L 300.399755 52.678636 
L 304.786959 54.849752 
L 309.174162 59.149682 
L 313.561366 65.495194 
L 317.948569 73.764805 
L 322.335773 83.802649 
L 326.722976 95.423357 
L 331.11018 108.417748 
L 335.497383 122.559072 
L 339.884587 137.609553 
L 344.27179 153.326975 
L 348.658994 169.471045 
L 353.046197 185.809323 
L 357.433401 202.122504 
L 361.820605 218.208919 
L 366.207808 233.888124 
L 370.595012 249.003534 
L 374.982215 263.424078 
L 379.369419 277.04491 
L 383.756622 289.787238 
L 388.143826 301.597371 
L 392.531029 312.445114 
L 396.918233 322.321628 
L 401.305436 331.236916 
L 405.69264 339.217063 
L 410.079843 346.301371 
L 414.467047 352.539497 
L 418.85425 357.988708 
L 423.241454 362.711322 
L 427.628657 366.772413 
L 432.015861 370.2378 
L 436.403064 373.172366 
L 440.790268 375.638684 
L 445.177471 377.695976 
L 449.564675 379.399346 
L 453.951878 380.799296 
L 458.339082 381.941454 
L 462.726285 382.866516 
L 467.113489 383.610328 
L 471.500692 384.204102 
L 475.887896 384.674709 
L 480.275099 385.04504 
L 484.662303 385.334393 
L 489.049506 385.558878 
L 493.43671 385.73181 
L 497.823913 385.864094 
L 502.211117 385.964575 
L 506.59832 386.040368 
L 510.985524 386.097141 
L 515.372727 386.139371 
" style="fill:none;stroke:#ff6384;stroke-linecap:square;"/>
   </g>
   <g id="line2d_2">
    <path clip-path="url(#p9597b9b1da)" d="M 58.827273 386.139797 
L 63.23122 386.097727 
L 67.635168 386.04117 
L 72.039115 385.965666 
L 76.443063 385.865566 
L 80.84701 385.733786 
L 85.250958 385.561511 
L 89.654905 385.33788 
L 94.058852 385.049626 
L 98.4628 384.680704 
L 102.866747 384.211886 
L 107.270695 383.62037 
L 111.674642 382.879385 
L 116.07859 381.95784 
L 120.482537 380.820025 
L 124.886485 379.425398 
L 129.290432 377.728504 
L 133.69438 375.679034 
L 138.098327 373.222092 
L 142.502275 370.298685 
L 146.906222 366.846472 
L 151.31017 362.800822 
L 155.714117 358.096163 
L 160.118064 352.667671 
L 164.522012 346.453262 
L 168.925959 339.395889 
L 173.329907 331.446083 
L 177.733854 322.564691 
L 182.137802 312.725728 
L 186.541749 301.919229 
L 190.945697 290.153997 
L 195.349644 277.460117 
L 199.753592 263.891071 
L 204.157539 249.525355 
L 208.561487 234.467414 
L 212.965434 218.847822 
L 217.369382 202.822569 
L 221.773329 186.57141 
L 226.177277 170.295251 
L 230.581224 154.212562 
L 234.985171 138.554898 
L 239.389119 123.561639 
L 243.793066 109.474081 
L 248.197014 96.529095 
L 252.600961 84.952569 
L 257.004909 74.95289 
L 261.408856 66.71472 
L 265.812804 60.393334 
L 270.216751 56.109752 
L 274.620699 53.946891 
L 279.024646 53.946891 
L 283.428594 56.109752 
L 287.832541 60.393334 
L 292.236489 66.71472 
L 296.640436 74.95289 
L 301.044383 84.952569 
L 305.448331 96.529095 
L 309.852278 109.474081 
L 314.256226 123.561639 
L 318.660173 138.554898 
L 323.064121 154.212562 
L 327.468068 170.295251 
L 331.872016 186.57141 
L 336.275963 202.822569 
L 340.679911 218.847822 
L 345.083858 234.467414 
L 349.487806 249.525355 
L 353.891753 263.891071 
L 358.295701 277.460117 
L 362.699648 290.153997 
L 367.103595 301.919229 
L 371.507543 312.725728 
L 375.91149 322.564691 
L 380.315438 331.446083 
L 384.719385 339.395889 
L 389.123333 346.453262 
L 393.52728 352.667671 
L 397.931228 358.096163 
L 402.335175 362.800822 
L 406.739123 366.846472 
L 411.14307 370.298685 
L 415.547018 373.222092 
L 419.950965 375.679034 
L 424.354913 377.728504 
L 428.75886 379.425398 
L 433.162808 380.820025 
L 437.566755 381.95784 
L 441.970702 382.879385 
L 446.37465 383.62037 
L 450.778597 384.211886 
L 455.182545 384.680704 
L 459.586492 385.049626 
L 463.99044 385.33788 
L 468.394387 385.561511 
L 472.798335 385.733786 
L 477.202282 385.865566 
L 481.60623 385.965666 
L 486.010177 386.04117 
L 490.414125 386.097727 
L 494.818072 386.139797 
" style="fill:none;stroke:#36a2eb;stroke-linecap:square;"/>
   </g>
   <g id="patch_3">
    <path d="M 36 402.93 
L 538.2 402.93 
" style="fill:none;stroke:#000000;stroke-linecap:square;stroke-linejoin:miter;stroke-width:0.8;"/>
   </g>
   <g id="legend_1">
    <g id="patch_4">
     <path d="M 413.971875 88.29875 
L 528.4 88.29875 
Q 531.2 88.29875 531.2 85.49875 
L 531.2 45.8 
Q 531.2 43 528.4 43 
L 413.971875 43 
Q 411.171875 43 411.171875 45.8 
L 411.171875 85.49875 
Q 411.171875 88.29875 413.971875 88.29875 
z
" style="fill:#ffffff;opacity:0.8;stroke:#cccccc;stroke-linejoin:miter;"/>
    </g>
    <g id="patch_5">
     <path d="M 416.771875 59.237813 
L 444.771875 59.237813 
L 444.771875 49.437813 
L 416.771875 49.437813 
z
" style="fill:#ff6384;opacity:0.5;stroke:#ff6384;stroke-linejoin:miter;"/>
    </g>
    <g id="text_1">
     <!-- base -->
     <defs>
      <path d="M 48.6875 27.296875 
Q 48.6875 37.203125 44.609375 42.84375 
Q 40.53125 48.484375 33.40625 48.484375 
Q 26.265625 48.484375 22.1875 42.84375 
Q 18.109375 37.203125 18.109375 27.296875 
Q 18.109375 17.390625 22.1875 11.75 
Q 26.265625 6.109375 33.40625 6.109375 
Q 40.53125 6.109375 44.609375 11.75 
Q 48.6875 17.390625 48.6875 27.296875 
z
M 18.109375 46.390625 
Q 20.953125 51.265625 25.265625 53.625 
Q 29.59375 56 35.59375 56 
Q 45.5625 56 51.78125 48.09375 
Q 58.015625 40.1875 58.015625 27.296875 
Q 58.015625 14.40625 51.78125 6.484375 
Q 45.5625 -1.421875 35.59375 -1.421875 
Q 29.59375 -1.421875 25.265625 0.953125 
Q 20.953125 3.328125 18.109375 8.203125 
L 18.109375 0 
L 9.078125 0 
L 9.078125 75.984375 
L 18.109375 75.984375 
z
" id="DejaVuSans-98"/>
      <path d="M 34.28125 27.484375 
Q 23.390625 27.484375 19.1875 25 
Q 14.984375 22.515625 14.984375 16.5 
Q 14.984375 11.71875 18.140625 8.90625 
Q 21.296875 6.109375 26.703125 6.109375 
Q 34.1875 6.109375 38.703125 11.40625 
Q 43.21875 16.703125 43.21875 25.484375 
L 43.21875 27.484375 
z
M 52.203125 31.203125 
L 52.203125 0 
L 43.21875 0 
L 43.21875 8.296875 
Q 40.140625 3.328125 35.546875 0.953125 
Q 30.953125 -1.421875 24.3125 -1.421875 
Q 15.921875 -1.421875 10.953125 3.296875 
Q 6 8.015625 6 15.921875 
Q 6 25.140625 12.171875 29.828125 
Q 18.359375 34.515625 30.609375 34.515625 
L 43.21875 34.515625 
L 43.21875 35.40625 
Q 43.21875 41.609375 39.140625 45 
Q 35.0625 48.390625 27.6875 48.390625 
Q 23 48.390625 18.546875 47.265625 
Q 14.109375 46.140625 10.015625 43.890625 
L 10.015625 52.203125 
Q 14.9375 54.109375 19.578125 55.046875 
Q 24.21875 56 28.609375 56 
Q 40.484375 56 46.34375 49.84375 
Q 52.203125 43.703125 52.203125 31.203125 
z
" id="DejaVuSans-97"/>
      <path d="M 44.28125 53.078125 
L 44.28125 44.578125 
Q 40.484375 46.53125 36.375 47.5 
Q 32.28125 48.484375 27.875 48.484375 
Q 21.1875 48.484375 17.84375 46.4375 
Q 14.5 44.390625 14.5 40.28125 
Q 14.5 37.15625 16.890625 35.375 
Q 19.28125 33.59375 26.515625 31.984375 
L 29.59375 31.296875 
Q 39.15625 29.25 43.1875 25.515625 
Q 47.21875 21.78125 47.21875 15.09375 
Q 47.21875 7.46875 41.1875 3.015625 
Q 35.15625 -1.421875 24.609375 -1.421875 
Q 20.21875 -1.421875 15.453125 -0.5625 
Q 10.6875 0.296875 5.421875 2 
L 5.421875 11.28125 
Q 10.40625 8.6875 15.234375 7.390625 
Q 20.0625 6.109375 24.8125 6.109375 
Q 31.15625 6.109375 34.5625 8.28125 
Q 37.984375 10.453125 37.984375 14.40625 
Q 37.984375 18.0625 35.515625 20.015625 
Q 33.0625 21.96875 24.703125 23.78125 
L 21.578125 24.515625 
Q 13.234375 26.265625 9.515625 29.90625 
Q 5.8125 33.546875 5.8125 39.890625 
Q 5.8125 47.609375 11.28125 51.796875 
Q 16.75 56 26.8125 56 
Q 31.78125 56 36.171875 55.265625 
Q 40.578125 54.546875 44.28125 53.078125 
z
" id="DejaVuSans-115"/>
      <path d="M 56.203125 29.59375 
L 56.203125 25.203125 
L 14.890625 25.203125 
Q 15.484375 15.921875 20.484375 11.0625 
Q 25.484375 6.203125 34.421875 6.203125 
Q 39.59375 6.203125 44.453125 7.46875 
Q 49.3125 8.734375 54.109375 11.28125 
L 54.109375 2.78125 
Q 49.265625 0.734375 44.1875 -0.34375 
Q 39.109375 -1.421875 33.890625 -1.421875 
Q 20.796875 -1.421875 13.15625 6.1875 
Q 5.515625 13.8125 5.515625 26.8125 
Q 5.515625 40.234375 12.765625 48.109375 
Q 20.015625 56 32.328125 56 
Q 43.359375 56 49.78125 48.890625 
Q 56.203125 41.796875 56.203125 29.59375 
z
M 47.21875 32.234375 
Q 47.125 39.59375 43.09375 43.984375 
Q 39.0625 48.390625 32.421875 48.390625 
Q 24.90625 48.390625 20.390625 44.140625 
Q 15.875 39.890625 15.1875 32.171875 
z
" id="DejaVuSans-101"/>
     </defs>
     <g transform="translate(455.971875 59.237813)scale(0.14 -0.14)">
      <use xlink:href="#DejaVuSans-98"/>
      <use x="63.476562" xlink:href="#DejaVuSans-97"/>
      <use x="124.755859" xlink:href="#DejaVuSans-115"/>
      <use x="176.855469" xlink:href="#DejaVuSans-101"/>
     </g>
    </g>
    <g id="patch_6">
     <path d="M 416.771875 79.787188 
L 444.771875 79.787188 
L 444.771875 69.987188 
L 416.771875 69.987188 
z
" style="fill:#36a2eb;opacity:0.5;stroke:#36a2eb;stroke-linejoin:miter;"/>
    </g>
    <g id="text_2">
     <!-- expanded -->
     <defs>
      <path d="M 54.890625 54.6875 
L 35.109375 28.078125 
L 55.90625 0 
L 45.3125 0 
L 29.390625 21.484375 
L 13.484375 0 
L 2.875 0 
L 24.125 28.609375 
L 4.6875 54.6875 
L 15.28125 54.6875 
L 29.78125 35.203125 
L 44.28125 54.6875 
z
" id="DejaVuSans-120"/>
      <path d="M 18.109375 8.203125 
L 18.109375 -20.796875 
L 9.078125 -20.796875 
L 9.078125 54.6875 
L 18.109375 54.6875 
L 18.109375 46.390625 
Q 20.953125 51.265625 25.265625 53.625 
Q 29.59375 56 35.59375 56 
Q 45.5625 56 51.78125 48.09375 
Q 58.015625 40.1875 58.015625 27.296875 
Q 58.015625 14.40625 51.78125 6.484375 
Q 45.5625 -1.421875 35.59375 -1.421875 
Q 29.59375 -1.421875 25.265625 0.953125 
Q 20.953125 3.328125 18.109375 8.203125 
z
M 48.6875 27.296875 
Q 48.6875 37.203125 44.609375 42.84375 
Q 40.53125 48.484375 33.40625 48.484375 
Q 26.265625 48.484375 22.1875 42.84375 
Q 18.109375 37.203125 18.109375 27.296875 
Q 18.109375 17.390625 22.1875 11.75 
Q 26.265625 6.109375 33.40625 6.109375 
Q 40.53125 6.109375 44.609375 11.75 
Q 48.6875 17.390625 48.6875 27.296875 
z
" id="DejaVuSans-112"/>
      <path d="M 54.890625 33.015625 
L 54.890625 0 
L 45.90625 0 
L 45.90625 32.71875 
Q 45.90625 40.484375 42.875 44.328125 
Q 39.84375 48.1875 33.796875 48.1875 
Q 26.515625 48.1875 22.3125 43.546875 
Q 18.109375 38.921875 18.109375 30.90625 
L 18.109375 0 
L 9.078125 0 
L 9.078125 54.6875 
L 18.109375 54.6875 
L 18.109375 46.1875 
Q 21.34375 51.125 25.703125 53.5625 
Q 30.078125 56 35.796875 56 
Q 45.21875 56 50.046875 50.171875 
Q 54.890625 44.34375 54.890625 33.015625 
z
" id="DejaVuSans-110"/>
      <path d="M 45.40625 46.390625 
L 45.40625 75.984375 
L 54.390625 75.984375 
L 54.390625 0 
L 45.40625 0 
L 45.40625 8.203125 
Q 42.578125 3.328125 38.25 0.953125 
Q 33.9375 -1.421875 27.875 -1.421875 
Q 17.96875 -1.421875 11.734375 6.484375 
Q 5.515625 14.40625 5.515625 27.296875 
Q 5.515625 40.1875 11.734375 48.09375 
Q 17.96875 56 27.875 56 
Q 33.9375 56 38.25 53.625 
Q 42.578125 51.265625 45.40625 46.390625 
z
M 14.796875 27.296875 
Q 14.796875 17.390625 18.875 11.75 
Q 22.953125 6.109375 30.078125 6.109375 
Q 37.203125 6.109375 41.296875 11.75 
Q 45.40625 17.390625 45.40625 27.296875 
Q 45.40625 37.203125 41.296875 42.84375 
Q 37.203125 48.484375 30.078125 48.484375 
Q 22.953125 48.484375 18.875 42.84375 
Q 14.796875 37.203125 14.796875 27.296875 
z
" id="DejaVuSans-100"/>
     </defs>
     <g transform="translate(455.971875 79.787188)scale(0.14 -0.14)">
      <use xlink:href="#DejaVuSans-101"/>
      <use x="61.507812" xlink:href="#DejaVuSans-120"/>
      <use x="120.6875" xlink:href="#DejaVuSans-112"/>
      <use x="184.164062" xlink:href="#DejaVuSans-97"/>
      <use x="245.443359" xlink:href="#DejaVuSans-110"/>
      <use x="308.822266" xlink:href="#DejaVuSans-100"/>
      <use x="372.298828" xlink:href="#DejaVuSans-101"/>
      <use x="433.822266" xlink:href="#DejaVuSans-100"/>
     </g>
    </g>
   </g>
  </g>
  <g id="axes_2">
   <g id="patch_7">
    <path d="M 36 525.24 
L 538.2 525.24 
L 538.2 402.93 
L 36 402.93 
z
" style="fill:none;"/>
   </g>
   <g id="patch_8">
    <path clip-path="url(#p1cd3868d5e)" d="M 191.794533 519.680455 
L 404.617775 519.680455 
L 404.617775 482.616818 
L 191.794533 482.616818 
z
" style="fill:#ff6384;opacity:0.5;"/>
   </g>
   <g id="patch_9">
    <path clip-path="url(#p1cd3868d5e)" d="M 170.004927 445.553182 
L 383.640418 445.553182 
L 383.640418 408.489545 
L 170.004927 408.489545 
z
" style="fill:#36a2eb;opacity:0.5;"/>
   </g>
   <g id="matplotlib.axis_1">
    <g id="xtick_1">
     <g id="line2d_3">
      <defs>
       <path d="M 0 0 
L 0 3.5 
" id="mf53bff11c4" style="stroke:#000000;stroke-width:0.8;"/>
      </defs>
      <g>
       <use style="stroke:#000000;stroke-width:0.8;" x="79.025471" xlink:href="#mf53bff11c4" y="525.24"/>
      </g>
     </g>
     <g id="text_3">
      <!-- 29 -->
      <defs>
       <path d="M 19.1875 8.296875 
L 53.609375 8.296875 
L 53.609375 0 
L 7.328125 0 
L 7.328125 8.296875 
Q 12.9375 14.109375 22.625 23.890625 
Q 32.328125 33.6875 34.8125 36.53125 
Q 39.546875 41.84375 41.421875 45.53125 
Q 43.3125 49.21875 43.3125 52.78125 
Q 43.3125 58.59375 39.234375 62.25 
Q 35.15625 65.921875 28.609375 65.921875 
Q 23.96875 65.921875 18.8125 64.3125 
Q 13.671875 62.703125 7.8125 59.421875 
L 7.8125 69.390625 
Q 13.765625 71.78125 18.9375 73 
Q 24.125 74.21875 28.421875 74.21875 
Q 39.75 74.21875 46.484375 68.546875 
Q 53.21875 62.890625 53.21875 53.421875 
Q 53.21875 48.921875 51.53125 44.890625 
Q 49.859375 40.875 45.40625 35.40625 
Q 44.1875 33.984375 37.640625 27.21875 
Q 31.109375 20.453125 19.1875 8.296875 
z
" id="DejaVuSans-50"/>
       <path d="M 10.984375 1.515625 
L 10.984375 10.5 
Q 14.703125 8.734375 18.5 7.8125 
Q 22.3125 6.890625 25.984375 6.890625 
Q 35.75 6.890625 40.890625 13.453125 
Q 46.046875 20.015625 46.78125 33.40625 
Q 43.953125 29.203125 39.59375 26.953125 
Q 35.25 24.703125 29.984375 24.703125 
Q 19.046875 24.703125 12.671875 31.3125 
Q 6.296875 37.9375 6.296875 49.421875 
Q 6.296875 60.640625 12.9375 67.421875 
Q 19.578125 74.21875 30.609375 74.21875 
Q 43.265625 74.21875 49.921875 64.515625 
Q 56.59375 54.828125 56.59375 36.375 
Q 56.59375 19.140625 48.40625 8.859375 
Q 40.234375 -1.421875 26.421875 -1.421875 
Q 22.703125 -1.421875 18.890625 -0.6875 
Q 15.09375 0.046875 10.984375 1.515625 
z
M 30.609375 32.421875 
Q 37.25 32.421875 41.125 36.953125 
Q 45.015625 41.5 45.015625 49.421875 
Q 45.015625 57.28125 41.125 61.84375 
Q 37.25 66.40625 30.609375 66.40625 
Q 23.96875 66.40625 20.09375 61.84375 
Q 16.21875 57.28125 16.21875 49.421875 
Q 16.21875 41.5 20.09375 36.953125 
Q 23.96875 32.421875 30.609375 32.421875 
z
" id="DejaVuSans-57"/>
      </defs>
      <g transform="translate(70.117971 542.877813)scale(0.14 -0.14)">
       <use xlink:href="#DejaVuSans-50"/>
       <use x="63.623047" xlink:href="#DejaVuSans-57"/>
      </g>
     </g>
    </g>
    <g id="xtick_2">
     <g id="line2d_4">
      <g>
       <use style="stroke:#000000;stroke-width:0.8;" x="155.395047" xlink:href="#mf53bff11c4" y="525.24"/>
      </g>
     </g>
     <g id="text_4">
      <!-- 30 -->
      <defs>
       <path d="M 40.578125 39.3125 
Q 47.65625 37.796875 51.625 33 
Q 55.609375 28.21875 55.609375 21.1875 
Q 55.609375 10.40625 48.1875 4.484375 
Q 40.765625 -1.421875 27.09375 -1.421875 
Q 22.515625 -1.421875 17.65625 -0.515625 
Q 12.796875 0.390625 7.625 2.203125 
L 7.625 11.71875 
Q 11.71875 9.328125 16.59375 8.109375 
Q 21.484375 6.890625 26.8125 6.890625 
Q 36.078125 6.890625 40.9375 10.546875 
Q 45.796875 14.203125 45.796875 21.1875 
Q 45.796875 27.640625 41.28125 31.265625 
Q 36.765625 34.90625 28.71875 34.90625 
L 20.21875 34.90625 
L 20.21875 43.015625 
L 29.109375 43.015625 
Q 36.375 43.015625 40.234375 45.921875 
Q 44.09375 48.828125 44.09375 54.296875 
Q 44.09375 59.90625 40.109375 62.90625 
Q 36.140625 65.921875 28.71875 65.921875 
Q 24.65625 65.921875 20.015625 65.03125 
Q 15.375 64.15625 9.8125 62.3125 
L 9.8125 71.09375 
Q 15.4375 72.65625 20.34375 73.4375 
Q 25.25 74.21875 29.59375 74.21875 
Q 40.828125 74.21875 47.359375 69.109375 
Q 53.90625 64.015625 53.90625 55.328125 
Q 53.90625 49.265625 50.4375 45.09375 
Q 46.96875 40.921875 40.578125 39.3125 
z
" id="DejaVuSans-51"/>
       <path d="M 31.78125 66.40625 
Q 24.171875 66.40625 20.328125 58.90625 
Q 16.5 51.421875 16.5 36.375 
Q 16.5 21.390625 20.328125 13.890625 
Q 24.171875 6.390625 31.78125 6.390625 
Q 39.453125 6.390625 43.28125 13.890625 
Q 47.125 21.390625 47.125 36.375 
Q 47.125 51.421875 43.28125 58.90625 
Q 39.453125 66.40625 31.78125 66.40625 
z
M 31.78125 74.21875 
Q 44.046875 74.21875 50.515625 64.515625 
Q 56.984375 54.828125 56.984375 36.375 
Q 56.984375 17.96875 50.515625 8.265625 
Q 44.046875 -1.421875 31.78125 -1.421875 
Q 19.53125 -1.421875 13.0625 8.265625 
Q 6.59375 17.96875 6.59375 36.375 
Q 6.59375 54.828125 13.0625 64.515625 
Q 19.53125 74.21875 31.78125 74.21875 
z
" id="DejaVuSans-48"/>
      </defs>
      <g transform="translate(146.487547 542.877813)scale(0.14 -0.14)">
       <use xlink:href="#DejaVuSans-51"/>
       <use x="63.623047" xlink:href="#DejaVuSans-48"/>
      </g>
     </g>
    </g>
    <g id="xtick_3">
     <g id="line2d_5">
      <g>
       <use style="stroke:#000000;stroke-width:0.8;" x="231.764623" xlink:href="#mf53bff11c4" y="525.24"/>
      </g>
     </g>
     <g id="text_5">
      <!-- 31 -->
      <defs>
       <path d="M 12.40625 8.296875 
L 28.515625 8.296875 
L 28.515625 63.921875 
L 10.984375 60.40625 
L 10.984375 69.390625 
L 28.421875 72.90625 
L 38.28125 72.90625 
L 38.28125 8.296875 
L 54.390625 8.296875 
L 54.390625 0 
L 12.40625 0 
z
" id="DejaVuSans-49"/>
      </defs>
      <g transform="translate(222.857123 542.877813)scale(0.14 -0.14)">
       <use xlink:href="#DejaVuSans-51"/>
       <use x="63.623047" xlink:href="#DejaVuSans-49"/>
      </g>
     </g>
    </g>
    <g id="xtick_4">
     <g id="line2d_6">
      <g>
       <use style="stroke:#000000;stroke-width:0.8;" x="308.134199" xlink:href="#mf53bff11c4" y="525.24"/>
      </g>
     </g>
     <g id="text_6">
      <!-- 32 -->
      <g transform="translate(299.226699 542.877813)scale(0.14 -0.14)">
       <use xlink:href="#DejaVuSans-51"/>
       <use x="63.623047" xlink:href="#DejaVuSans-50"/>
      </g>
     </g>
    </g>
    <g id="xtick_5">
     <g id="line2d_7">
      <g>
       <use style="stroke:#000000;stroke-width:0.8;" x="384.503774" xlink:href="#mf53bff11c4" y="525.24"/>
      </g>
     </g>
     <g id="text_7">
      <!-- 33 -->
      <g transform="translate(375.596274 542.877813)scale(0.14 -0.14)">
       <use xlink:href="#DejaVuSans-51"/>
       <use x="63.623047" xlink:href="#DejaVuSans-51"/>
      </g>
     </g>
    </g>
    <g id="xtick_6">
     <g id="line2d_8">
      <g>
       <use style="stroke:#000000;stroke-width:0.8;" x="460.87335" xlink:href="#mf53bff11c4" y="525.24"/>
      </g>
     </g>
     <g id="text_8">
      <!-- 34 -->
      <defs>
       <path d="M 37.796875 64.3125 
L 12.890625 25.390625 
L 37.796875 25.390625 
z
M 35.203125 72.90625 
L 47.609375 72.90625 
L 47.609375 25.390625 
L 58.015625 25.390625 
L 58.015625 17.1875 
L 47.609375 17.1875 
L 47.609375 0 
L 37.796875 0 
L 37.796875 17.1875 
L 4.890625 17.1875 
L 4.890625 26.703125 
z
" id="DejaVuSans-52"/>
      </defs>
      <g transform="translate(451.96585 542.877813)scale(0.14 -0.14)">
       <use xlink:href="#DejaVuSans-51"/>
       <use x="63.623047" xlink:href="#DejaVuSans-52"/>
      </g>
     </g>
    </g>
    <g id="xtick_7">
     <g id="line2d_9">
      <g>
       <use style="stroke:#000000;stroke-width:0.8;" x="537.242926" xlink:href="#mf53bff11c4" y="525.24"/>
      </g>
     </g>
     <g id="text_9">
      <!-- 35 -->
      <defs>
       <path d="M 10.796875 72.90625 
L 49.515625 72.90625 
L 49.515625 64.59375 
L 19.828125 64.59375 
L 19.828125 46.734375 
Q 21.96875 47.46875 24.109375 47.828125 
Q 26.265625 48.1875 28.421875 48.1875 
Q 40.625 48.1875 47.75 41.5 
Q 54.890625 34.8125 54.890625 23.390625 
Q 54.890625 11.625 47.5625 5.09375 
Q 40.234375 -1.421875 26.90625 -1.421875 
Q 22.3125 -1.421875 17.546875 -0.640625 
Q 12.796875 0.140625 7.71875 1.703125 
L 7.71875 11.625 
Q 12.109375 9.234375 16.796875 8.0625 
Q 21.484375 6.890625 26.703125 6.890625 
Q 35.15625 6.890625 40.078125 11.328125 
Q 45.015625 15.765625 45.015625 23.390625 
Q 45.015625 31 40.078125 35.4375 
Q 35.15625 39.890625 26.703125 39.890625 
Q 22.75 39.890625 18.8125 39.015625 
Q 14.890625 38.140625 10.796875 36.28125 
z
" id="DejaVuSans-53"/>
      </defs>
      <g transform="translate(528.335426 542.877813)scale(0.14 -0.14)">
       <use xlink:href="#DejaVuSans-51"/>
       <use x="63.623047" xlink:href="#DejaVuSans-53"/>
      </g>
     </g>
    </g>
   </g>
   <g id="line2d_10">
    <path clip-path="url(#p1cd3868d5e)" d="M 298.206154 525.24 
L 298.206154 402.93 
" style="fill:none;stroke:#ff6384;stroke-dasharray:5.55,2.4;stroke-dashoffset:0;stroke-opacity:0.8;stroke-width:1.5;"/>
   </g>
   <g id="line2d_11">
    <path clip-path="url(#p1cd3868d5e)" d="M 276.822672 525.24 
L 276.822672 402.93 
" style="fill:none;stroke:#36a2eb;stroke-dasharray:5.55,2.4;stroke-dashoffset:0;stroke-opacity:0.8;stroke-width:1.5;"/>
   </g>
   <g id="patch_10">
    <path d="M 36 525.24 
L 538.2 525.24 
" style="fill:none;stroke:#000000;stroke-linecap:square;stroke-linejoin:miter;stroke-width:0.8;"/>
   </g>
  </g>
 </g>
 <defs>
  <clipPath id="p9597b9b1da">
   <rect height="366.93" width="502.2" x="36" y="36"/>
  </clipPath>
  <clipPath id="p1cd3868d5e">
   <rect height="122.31" width="502.2" x="36" y="402.93"/>
  </clipPath>
 </defs>
</svg>
