<?xml version="1.0" encoding="utf-8" standalone="no"?>
<!DOCTYPE svg PUBLIC "-//W3C//DTD SVG 1.1//EN"
  "http://www.w3.org/Graphics/SVG/1.1/DTD/svg11.dtd">
<!-- Created with matplotlib (https://matplotlib.org/) -->
<svg height="591.509375pt" version="1.1" viewBox="0 0 577.440893 591.509375" width="577.440893pt" xmlns="http://www.w3.org/2000/svg" xmlns:xlink="http://www.w3.org/1999/xlink">
 <defs>
  <style type="text/css">
*{stroke-linecap:butt;stroke-linejoin:round;}
  </style>
 </defs>
 <g id="figure_1">
  <g id="patch_1">
   <path d="M 0 591.509375 
L 577.440893 591.509375 
L 577.440893 0 
L 0 0 
z
" style="fill:none;"/>
  </g>
  <g id="axes_1">
   <g id="patch_2">
    <path d="M 36 410.22 
L 538.2 410.22 
L 538.2 36 
L 36 36 
z
" style="fill:none;"/>
   </g>
   <g id="PolyCollection_1">
    <defs>
     <path d="M 87.567997 -198.299375 
L 87.567997 -198.413593 
L 91.889257 -198.456662 
L 96.210517 -198.514563 
L 100.531777 -198.591861 
L 104.853036 -198.694339 
L 109.174296 -198.829251 
L 113.495556 -199.005619 
L 117.816816 -199.234563 
L 122.138076 -199.529665 
L 126.459336 -199.907354 
L 130.780596 -200.387311 
L 135.101856 -200.992881 
L 139.423116 -201.751471 
L 143.744376 -202.694912 
L 148.065636 -203.859762 
L 152.386895 -205.287525 
L 156.708155 -207.024738 
L 161.029415 -209.122902 
L 165.350675 -211.638221 
L 169.671935 -214.631088 
L 173.993195 -218.165325 
L 178.314455 -222.3071 
L 182.635715 -227.123541 
L 186.956975 -232.681014 
L 191.278235 -239.043076 
L 195.599494 -246.268132 
L 199.920754 -254.406825 
L 204.242014 -263.499238 
L 208.563274 -273.571974 
L 212.884534 -284.635235 
L 217.205794 -296.680007 
L 221.527054 -309.675493 
L 225.848314 -323.566938 
L 230.169574 -338.273983 
L 234.490834 -353.689699 
L 238.812093 -369.680411 
L 243.133353 -386.086424 
L 247.454613 -402.723708 
L 251.775873 -419.386587 
L 256.097133 -435.8514 
L 260.418393 -451.881089 
L 264.739653 -467.230586 
L 269.060913 -481.652863 
L 273.382173 -494.905422 
L 277.703433 -506.757005 
L 282.024693 -516.994276 
L 286.345952 -525.428184 
L 290.667212 -531.899766 
L 294.988472 -536.285125 
L 299.309732 -538.499375 
L 303.630992 -538.499375 
L 307.952252 -536.285125 
L 312.273512 -531.899766 
L 316.594772 -525.428184 
L 320.916032 -516.994276 
L 325.237292 -506.757005 
L 329.558551 -494.905422 
L 333.879811 -481.652863 
L 338.201071 -467.230586 
L 342.522331 -451.881089 
L 346.843591 -435.8514 
L 351.164851 -419.386587 
L 355.486111 -402.723708 
L 359.807371 -386.086424 
L 364.128631 -369.680411 
L 368.449891 -353.689699 
L 372.77115 -338.273983 
L 377.09241 -323.566938 
L 381.41367 -309.675493 
L 385.73493 -296.680007 
L 390.05619 -284.635235 
L 394.37745 -273.571974 
L 398.69871 -263.499238 
L 403.01997 -254.406825 
L 407.34123 -246.268132 
L 411.66249 -239.043076 
L 415.98375 -232.681014 
L 420.305009 -227.123541 
L 424.626269 -222.3071 
L 428.947529 -218.165325 
L 433.268789 -214.631088 
L 437.590049 -211.638221 
L 441.911309 -209.122902 
L 446.232569 -207.024738 
L 450.553829 -205.287525 
L 454.875089 -203.859762 
L 459.196349 -202.694912 
L 463.517608 -201.751471 
L 467.838868 -200.992881 
L 472.160128 -200.387311 
L 476.481388 -199.907354 
L 480.802648 -199.529665 
L 485.123908 -199.234563 
L 489.445168 -199.005619 
L 493.766428 -198.829251 
L 498.087688 -198.694339 
L 502.408948 -198.591861 
L 506.730207 -198.514563 
L 511.051467 -198.456662 
L 515.372727 -198.413593 
L 515.372727 -198.299375 
L 515.372727 -198.299375 
L 511.051467 -198.299375 
L 506.730207 -198.299375 
L 502.408948 -198.299375 
L 498.087688 -198.299375 
L 493.766428 -198.299375 
L 489.445168 -198.299375 
L 485.123908 -198.299375 
L 480.802648 -198.299375 
L 476.481388 -198.299375 
L 472.160128 -198.299375 
L 467.838868 -198.299375 
L 463.517608 -198.299375 
L 459.196349 -198.299375 
L 454.875089 -198.299375 
L 450.553829 -198.299375 
L 446.232569 -198.299375 
L 441.911309 -198.299375 
L 437.590049 -198.299375 
L 433.268789 -198.299375 
L 428.947529 -198.299375 
L 424.626269 -198.299375 
L 420.305009 -198.299375 
L 415.98375 -198.299375 
L 411.66249 -198.299375 
L 407.34123 -198.299375 
L 403.01997 -198.299375 
L 398.69871 -198.299375 
L 394.37745 -198.299375 
L 390.05619 -198.299375 
L 385.73493 -198.299375 
L 381.41367 -198.299375 
L 377.09241 -198.299375 
L 372.77115 -198.299375 
L 368.449891 -198.299375 
L 364.128631 -198.299375 
L 359.807371 -198.299375 
L 355.486111 -198.299375 
L 351.164851 -198.299375 
L 346.843591 -198.299375 
L 342.522331 -198.299375 
L 338.201071 -198.299375 
L 333.879811 -198.299375 
L 329.558551 -198.299375 
L 325.237292 -198.299375 
L 320.916032 -198.299375 
L 316.594772 -198.299375 
L 312.273512 -198.299375 
L 307.952252 -198.299375 
L 303.630992 -198.299375 
L 299.309732 -198.299375 
L 294.988472 -198.299375 
L 290.667212 -198.299375 
L 286.345952 -198.299375 
L 282.024693 -198.299375 
L 277.703433 -198.299375 
L 273.382173 -198.299375 
L 269.060913 -198.299375 
L 264.739653 -198.299375 
L 260.418393 -198.299375 
L 256.097133 -198.299375 
L 251.775873 -198.299375 
L 247.454613 -198.299375 
L 243.133353 -198.299375 
L 238.812093 -198.299375 
L 234.490834 -198.299375 
L 230.169574 -198.299375 
L 225.848314 -198.299375 
L 221.527054 -198.299375 
L 217.205794 -198.299375 
L 212.884534 -198.299375 
L 208.563274 -198.299375 
L 204.242014 -198.299375 
L 199.920754 -198.299375 
L 195.599494 -198.299375 
L 191.278235 -198.299375 
L 186.956975 -198.299375 
L 182.635715 -198.299375 
L 178.314455 -198.299375 
L 173.993195 -198.299375 
L 169.671935 -198.299375 
L 165.350675 -198.299375 
L 161.029415 -198.299375 
L 156.708155 -198.299375 
L 152.386895 -198.299375 
L 148.065636 -198.299375 
L 143.744376 -198.299375 
L 139.423116 -198.299375 
L 135.101856 -198.299375 
L 130.780596 -198.299375 
L 126.459336 -198.299375 
L 122.138076 -198.299375 
L 117.816816 -198.299375 
L 113.495556 -198.299375 
L 109.174296 -198.299375 
L 104.853036 -198.299375 
L 100.531777 -198.299375 
L 96.210517 -198.299375 
L 91.889257 -198.299375 
L 87.567997 -198.299375 
z
" id="m5cfe28dedd" style="stroke:#ff6384;stroke-opacity:0.5;"/>
    </defs>
    <g clip-path="url(#pa674fbf172)">
     <use style="fill:#ff6384;fill-opacity:0.5;stroke:#ff6384;stroke-opacity:0.5;" x="0" xlink:href="#m5cfe28dedd" y="591.509375"/>
    </g>
   </g>
   <g id="PolyCollection_2">
    <defs>
     <path d="M 58.827273 -198.299375 
L 58.827273 -198.413398 
L 63.155898 -198.456394 
L 67.484522 -198.514196 
L 71.813147 -198.591364 
L 76.141772 -198.693667 
L 80.470397 -198.828349 
L 84.799022 -199.004417 
L 89.127646 -199.232972 
L 93.456271 -199.527572 
L 97.784896 -199.904618 
L 102.113521 -200.383758 
L 106.442146 -200.988298 
L 110.77077 -201.745598 
L 115.099395 -202.687433 
L 119.42802 -203.850302 
L 123.756645 -205.275635 
L 128.08527 -207.009892 
L 132.413894 -209.104487 
L 136.742519 -211.615525 
L 141.071144 -214.603301 
L 145.399769 -218.131524 
L 149.728394 -222.266252 
L 154.057018 -227.074498 
L 158.385643 -232.622515 
L 162.714268 -238.973753 
L 167.042893 -246.186516 
L 171.371518 -254.311362 
L 175.700142 -263.388304 
L 180.028767 -273.443902 
L 184.357392 -284.488339 
L 188.686017 -296.512618 
L 193.014642 -309.485994 
L 197.343266 -323.353803 
L 201.671891 -338.035824 
L 206.000516 -353.425311 
L 210.329141 -369.388816 
L 214.657766 -385.766915 
L 218.98639 -402.375892 
L 223.315015 -419.01042 
L 227.64364 -435.44722 
L 231.972265 -451.449635 
L 236.30089 -466.773016 
L 240.629514 -481.170754 
L 244.958139 -494.400764 
L 249.286764 -506.232182 
L 253.615389 -516.452035 
L 257.944014 -524.871594 
L 262.272638 -531.332165 
L 266.601263 -535.710062 
L 270.929888 -537.920545 
L 275.258513 -537.920545 
L 279.587138 -535.710062 
L 283.915762 -531.332165 
L 288.244387 -524.871594 
L 292.573012 -516.452035 
L 296.901637 -506.232182 
L 301.230262 -494.400764 
L 305.558886 -481.170754 
L 309.887511 -466.773016 
L 314.216136 -451.449635 
L 318.544761 -435.44722 
L 322.873386 -419.01042 
L 327.20201 -402.375892 
L 331.530635 -385.766915 
L 335.85926 -369.388816 
L 340.187885 -353.425311 
L 344.51651 -338.035824 
L 348.845134 -323.353803 
L 353.173759 -309.485994 
L 357.502384 -296.512618 
L 361.831009 -284.488339 
L 366.159634 -273.443902 
L 370.488258 -263.388304 
L 374.816883 -254.311362 
L 379.145508 -246.186516 
L 383.474133 -238.973753 
L 387.802758 -232.622515 
L 392.131382 -227.074498 
L 396.460007 -222.266252 
L 400.788632 -218.131524 
L 405.117257 -214.603301 
L 409.445882 -211.615525 
L 413.774506 -209.104487 
L 418.103131 -207.009892 
L 422.431756 -205.275635 
L 426.760381 -203.850302 
L 431.089006 -202.687433 
L 435.41763 -201.745598 
L 439.746255 -200.988298 
L 444.07488 -200.383758 
L 448.403505 -199.904618 
L 452.73213 -199.527572 
L 457.060754 -199.232972 
L 461.389379 -199.004417 
L 465.718004 -198.828349 
L 470.046629 -198.693667 
L 474.375254 -198.591364 
L 478.703878 -198.514196 
L 483.032503 -198.456394 
L 487.361128 -198.413398 
L 487.361128 -198.299375 
L 487.361128 -198.299375 
L 483.032503 -198.299375 
L 478.703878 -198.299375 
L 474.375254 -198.299375 
L 470.046629 -198.299375 
L 465.718004 -198.299375 
L 461.389379 -198.299375 
L 457.060754 -198.299375 
L 452.73213 -198.299375 
L 448.403505 -198.299375 
L 444.07488 -198.299375 
L 439.746255 -198.299375 
L 435.41763 -198.299375 
L 431.089006 -198.299375 
L 426.760381 -198.299375 
L 422.431756 -198.299375 
L 418.103131 -198.299375 
L 413.774506 -198.299375 
L 409.445882 -198.299375 
L 405.117257 -198.299375 
L 400.788632 -198.299375 
L 396.460007 -198.299375 
L 392.131382 -198.299375 
L 387.802758 -198.299375 
L 383.474133 -198.299375 
L 379.145508 -198.299375 
L 374.816883 -198.299375 
L 370.488258 -198.299375 
L 366.159634 -198.299375 
L 361.831009 -198.299375 
L 357.502384 -198.299375 
L 353.173759 -198.299375 
L 348.845134 -198.299375 
L 344.51651 -198.299375 
L 340.187885 -198.299375 
L 335.85926 -198.299375 
L 331.530635 -198.299375 
L 327.20201 -198.299375 
L 322.873386 -198.299375 
L 318.544761 -198.299375 
L 314.216136 -198.299375 
L 309.887511 -198.299375 
L 305.558886 -198.299375 
L 301.230262 -198.299375 
L 296.901637 -198.299375 
L 292.573012 -198.299375 
L 288.244387 -198.299375 
L 283.915762 -198.299375 
L 279.587138 -198.299375 
L 275.258513 -198.299375 
L 270.929888 -198.299375 
L 266.601263 -198.299375 
L 262.272638 -198.299375 
L 257.944014 -198.299375 
L 253.615389 -198.299375 
L 249.286764 -198.299375 
L 244.958139 -198.299375 
L 240.629514 -198.299375 
L 236.30089 -198.299375 
L 231.972265 -198.299375 
L 227.64364 -198.299375 
L 223.315015 -198.299375 
L 218.98639 -198.299375 
L 214.657766 -198.299375 
L 210.329141 -198.299375 
L 206.000516 -198.299375 
L 201.671891 -198.299375 
L 197.343266 -198.299375 
L 193.014642 -198.299375 
L 188.686017 -198.299375 
L 184.357392 -198.299375 
L 180.028767 -198.299375 
L 175.700142 -198.299375 
L 171.371518 -198.299375 
L 167.042893 -198.299375 
L 162.714268 -198.299375 
L 158.385643 -198.299375 
L 154.057018 -198.299375 
L 149.728394 -198.299375 
L 145.399769 -198.299375 
L 141.071144 -198.299375 
L 136.742519 -198.299375 
L 132.413894 -198.299375 
L 128.08527 -198.299375 
L 123.756645 -198.299375 
L 119.42802 -198.299375 
L 115.099395 -198.299375 
L 110.77077 -198.299375 
L 106.442146 -198.299375 
L 102.113521 -198.299375 
L 97.784896 -198.299375 
L 93.456271 -198.299375 
L 89.127646 -198.299375 
L 84.799022 -198.299375 
L 80.470397 -198.299375 
L 76.141772 -198.299375 
L 71.813147 -198.299375 
L 67.484522 -198.299375 
L 63.155898 -198.299375 
L 58.827273 -198.299375 
z
" id="ma345645df4" style="stroke:#36a2eb;stroke-opacity:0.5;"/>
    </defs>
    <g clip-path="url(#pa674fbf172)">
     <use style="fill:#36a2eb;fill-opacity:0.5;stroke:#36a2eb;stroke-opacity:0.5;" x="0" xlink:href="#ma345645df4" y="591.509375"/>
    </g>
   </g>
   <g id="line2d_1">
    <path clip-path="url(#pa674fbf172)" d="M 87.567997 393.095782 
L 91.889257 393.052713 
L 96.210517 392.994812 
L 100.531777 392.917514 
L 104.853036 392.815036 
L 109.174296 392.680124 
L 113.495556 392.503756 
L 117.816816 392.274812 
L 122.138076 391.97971 
L 126.459336 391.602021 
L 130.780596 391.122064 
L 135.101856 390.516494 
L 139.423116 389.757904 
L 143.744376 388.814463 
L 148.065636 387.649613 
L 152.386895 386.22185 
L 156.708155 384.484637 
L 161.029415 382.386473 
L 165.350675 379.871154 
L 169.671935 376.878287 
L 173.993195 373.34405 
L 178.314455 369.202275 
L 182.635715 364.385834 
L 186.956975 358.828361 
L 191.278235 352.466299 
L 195.599494 345.241243 
L 199.920754 337.10255 
L 204.242014 328.010137 
L 208.563274 317.937401 
L 212.884534 306.87414 
L 217.205794 294.829368 
L 221.527054 281.833882 
L 225.848314 267.942437 
L 230.169574 253.235392 
L 234.490834 237.819676 
L 238.812093 221.828964 
L 243.133353 205.422951 
L 247.454613 188.785667 
L 251.775873 172.122788 
L 256.097133 155.657975 
L 260.418393 139.628286 
L 264.739653 124.278789 
L 269.060913 109.856512 
L 273.382173 96.603953 
L 277.703433 84.75237 
L 282.024693 74.515099 
L 286.345952 66.081191 
L 290.667212 59.609609 
L 294.988472 55.22425 
L 299.309732 53.01 
L 303.630992 53.01 
L 307.952252 55.22425 
L 312.273512 59.609609 
L 316.594772 66.081191 
L 320.916032 74.515099 
L 325.237292 84.75237 
L 329.558551 96.603953 
L 333.879811 109.856512 
L 338.201071 124.278789 
L 342.522331 139.628286 
L 346.843591 155.657975 
L 351.164851 172.122788 
L 355.486111 188.785667 
L 359.807371 205.422951 
L 364.128631 221.828964 
L 368.449891 237.819676 
L 372.77115 253.235392 
L 377.09241 267.942437 
L 381.41367 281.833882 
L 385.73493 294.829368 
L 390.05619 306.87414 
L 394.37745 317.937401 
L 398.69871 328.010137 
L 403.01997 337.10255 
L 407.34123 345.241243 
L 411.66249 352.466299 
L 415.98375 358.828361 
L 420.305009 364.385834 
L 424.626269 369.202275 
L 428.947529 373.34405 
L 433.268789 376.878287 
L 437.590049 379.871154 
L 441.911309 382.386473 
L 446.232569 384.484637 
L 450.553829 386.22185 
L 454.875089 387.649613 
L 459.196349 388.814463 
L 463.517608 389.757904 
L 467.838868 390.516494 
L 472.160128 391.122064 
L 476.481388 391.602021 
L 480.802648 391.97971 
L 485.123908 392.274812 
L 489.445168 392.503756 
L 493.766428 392.680124 
L 498.087688 392.815036 
L 502.408948 392.917514 
L 506.730207 392.994812 
L 511.051467 393.052713 
L 515.372727 393.095782 
" style="fill:none;stroke:#ff6384;stroke-linecap:square;"/>
   </g>
   <g id="line2d_2">
    <path clip-path="url(#pa674fbf172)" d="M 58.827273 393.095977 
L 63.155898 393.052981 
L 67.484522 392.995179 
L 71.813147 392.918011 
L 76.141772 392.815708 
L 80.470397 392.681026 
L 84.799022 392.504958 
L 89.127646 392.276403 
L 93.456271 391.981803 
L 97.784896 391.604757 
L 102.113521 391.125617 
L 106.442146 390.521077 
L 110.77077 389.763777 
L 115.099395 388.821942 
L 119.42802 387.659073 
L 123.756645 386.23374 
L 128.08527 384.499483 
L 132.413894 382.404888 
L 136.742519 379.89385 
L 141.071144 376.906074 
L 145.399769 373.377851 
L 149.728394 369.243123 
L 154.057018 364.434877 
L 158.385643 358.88686 
L 162.714268 352.535622 
L 167.042893 345.322859 
L 171.371518 337.198013 
L 175.700142 328.121071 
L 180.028767 318.065473 
L 184.357392 307.021036 
L 188.686017 294.996757 
L 193.014642 282.023381 
L 197.343266 268.155572 
L 201.671891 253.473551 
L 206.000516 238.084064 
L 210.329141 222.120559 
L 214.657766 205.74246 
L 218.98639 189.133483 
L 223.315015 172.498955 
L 227.64364 156.062155 
L 231.972265 140.05974 
L 236.30089 124.736359 
L 240.629514 110.338621 
L 244.958139 97.108611 
L 249.286764 85.277193 
L 253.615389 75.05734 
L 257.944014 66.637781 
L 262.272638 60.17721 
L 266.601263 55.799313 
L 270.929888 53.58883 
L 275.258513 53.58883 
L 279.587138 55.799313 
L 283.915762 60.17721 
L 288.244387 66.637781 
L 292.573012 75.05734 
L 296.901637 85.277193 
L 301.230262 97.108611 
L 305.558886 110.338621 
L 309.887511 124.736359 
L 314.216136 140.05974 
L 318.544761 156.062155 
L 322.873386 172.498955 
L 327.20201 189.133483 
L 331.530635 205.74246 
L 335.85926 222.120559 
L 340.187885 238.084064 
L 344.51651 253.473551 
L 348.845134 268.155572 
L 353.173759 282.023381 
L 357.502384 294.996757 
L 361.831009 307.021036 
L 366.159634 318.065473 
L 370.488258 328.121071 
L 374.816883 337.198013 
L 379.145508 345.322859 
L 383.474133 352.535622 
L 387.802758 358.88686 
L 392.131382 364.434877 
L 396.460007 369.243123 
L 400.788632 373.377851 
L 405.117257 376.906074 
L 409.445882 379.89385 
L 413.774506 382.404888 
L 418.103131 384.499483 
L 422.431756 386.23374 
L 426.760381 387.659073 
L 431.089006 388.821942 
L 435.41763 389.763777 
L 439.746255 390.521077 
L 444.07488 391.125617 
L 448.403505 391.604757 
L 452.73213 391.981803 
L 457.060754 392.276403 
L 461.389379 392.504958 
L 465.718004 392.681026 
L 470.046629 392.815708 
L 474.375254 392.918011 
L 478.703878 392.995179 
L 483.032503 393.052981 
L 487.361128 393.095977 
" style="fill:none;stroke:#36a2eb;stroke-linecap:square;"/>
   </g>
   <g id="patch_3">
    <path d="M 36 410.22 
L 538.2 410.22 
" style="fill:none;stroke:#000000;stroke-linecap:square;stroke-linejoin:miter;stroke-width:0.8;"/>
   </g>
   <g id="legend_1">
    <g id="patch_4">
     <path d="M 414.214688 88.29875 
L 528.4 88.29875 
Q 531.2 88.29875 531.2 85.49875 
L 531.2 45.8 
Q 531.2 43 528.4 43 
L 414.214688 43 
Q 411.414688 43 411.414688 45.8 
L 411.414688 85.49875 
Q 411.414688 88.29875 414.214688 88.29875 
z
" style="fill:#ffffff;opacity:0.8;stroke:#cccccc;stroke-linejoin:miter;"/>
    </g>
    <g id="patch_5">
     <path d="M 417.014688 59.237813 
L 445.014688 59.237813 
L 445.014688 49.437813 
L 417.014688 49.437813 
z
" style="fill:#ff6384;opacity:0.5;stroke:#ff6384;stroke-linejoin:miter;"/>
    </g>
    <g id="text_1">
     <!-- base -->
     <defs>
      <path d="M 48.6875 27.296875 
Q 48.6875 37.203125 44.609375 42.84375 
Q 40.53125 48.484375 33.40625 48.484375 
Q 26.265625 48.484375 22.1875 42.84375 
Q 18.109375 37.203125 18.109375 27.296875 
Q 18.109375 17.390625 22.1875 11.75 
Q 26.265625 6.109375 33.40625 6.109375 
Q 40.53125 6.109375 44.609375 11.75 
Q 48.6875 17.390625 48.6875 27.296875 
z
M 18.109375 46.390625 
Q 20.953125 51.265625 25.265625 53.625 
Q 29.59375 56 35.59375 56 
Q 45.5625 56 51.78125 48.09375 
Q 58.015625 40.1875 58.015625 27.296875 
Q 58.015625 14.40625 51.78125 6.484375 
Q 45.5625 -1.421875 35.59375 -1.421875 
Q 29.59375 -1.421875 25.265625 0.953125 
Q 20.953125 3.328125 18.109375 8.203125 
L 18.109375 0 
L 9.078125 0 
L 9.078125 75.984375 
L 18.109375 75.984375 
z
" id="DejaVuSans-98"/>
      <path d="M 34.28125 27.484375 
Q 23.390625 27.484375 19.1875 25 
Q 14.984375 22.515625 14.984375 16.5 
Q 14.984375 11.71875 18.140625 8.90625 
Q 21.296875 6.109375 26.703125 6.109375 
Q 34.1875 6.109375 38.703125 11.40625 
Q 43.21875 16.703125 43.21875 25.484375 
L 43.21875 27.484375 
z
M 52.203125 31.203125 
L 52.203125 0 
L 43.21875 0 
L 43.21875 8.296875 
Q 40.140625 3.328125 35.546875 0.953125 
Q 30.953125 -1.421875 24.3125 -1.421875 
Q 15.921875 -1.421875 10.953125 3.296875 
Q 6 8.015625 6 15.921875 
Q 6 25.140625 12.171875 29.828125 
Q 18.359375 34.515625 30.609375 34.515625 
L 43.21875 34.515625 
L 43.21875 35.40625 
Q 43.21875 41.609375 39.140625 45 
Q 35.0625 48.390625 27.6875 48.390625 
Q 23 48.390625 18.546875 47.265625 
Q 14.109375 46.140625 10.015625 43.890625 
L 10.015625 52.203125 
Q 14.9375 54.109375 19.578125 55.046875 
Q 24.21875 56 28.609375 56 
Q 40.484375 56 46.34375 49.84375 
Q 52.203125 43.703125 52.203125 31.203125 
z
" id="DejaVuSans-97"/>
      <path d="M 44.28125 53.078125 
L 44.28125 44.578125 
Q 40.484375 46.53125 36.375 47.5 
Q 32.28125 48.484375 27.875 48.484375 
Q 21.1875 48.484375 17.84375 46.4375 
Q 14.5 44.390625 14.5 40.28125 
Q 14.5 37.15625 16.890625 35.375 
Q 19.28125 33.59375 26.515625 31.984375 
L 29.59375 31.296875 
Q 39.15625 29.25 43.1875 25.515625 
Q 47.21875 21.78125 47.21875 15.09375 
Q 47.21875 7.46875 41.1875 3.015625 
Q 35.15625 -1.421875 24.609375 -1.421875 
Q 20.21875 -1.421875 15.453125 -0.5625 
Q 10.6875 0.296875 5.421875 2 
L 5.421875 11.28125 
Q 10.40625 8.6875 15.234375 7.390625 
Q 20.0625 6.109375 24.8125 6.109375 
Q 31.15625 6.109375 34.5625 8.28125 
Q 37.984375 10.453125 37.984375 14.40625 
Q 37.984375 18.0625 35.515625 20.015625 
Q 33.0625 21.96875 24.703125 23.78125 
L 21.578125 24.515625 
Q 13.234375 26.265625 9.515625 29.90625 
Q 5.8125 33.546875 5.8125 39.890625 
Q 5.8125 47.609375 11.28125 51.796875 
Q 16.75 56 26.8125 56 
Q 31.78125 56 36.171875 55.265625 
Q 40.578125 54.546875 44.28125 53.078125 
z
" id="DejaVuSans-115"/>
      <path d="M 56.203125 29.59375 
L 56.203125 25.203125 
L 14.890625 25.203125 
Q 15.484375 15.921875 20.484375 11.0625 
Q 25.484375 6.203125 34.421875 6.203125 
Q 39.59375 6.203125 44.453125 7.46875 
Q 49.3125 8.734375 54.109375 11.28125 
L 54.109375 2.78125 
Q 49.265625 0.734375 44.1875 -0.34375 
Q 39.109375 -1.421875 33.890625 -1.421875 
Q 20.796875 -1.421875 13.15625 6.1875 
Q 5.515625 13.8125 5.515625 26.8125 
Q 5.515625 40.234375 12.765625 48.109375 
Q 20.015625 56 32.328125 56 
Q 43.359375 56 49.78125 48.890625 
Q 56.203125 41.796875 56.203125 29.59375 
z
M 47.21875 32.234375 
Q 47.125 39.59375 43.09375 43.984375 
Q 39.0625 48.390625 32.421875 48.390625 
Q 24.90625 48.390625 20.390625 44.140625 
Q 15.875 39.890625 15.1875 32.171875 
z
" id="DejaVuSans-101"/>
     </defs>
     <g transform="translate(456.214688 59.237813)scale(0.14 -0.14)">
      <use xlink:href="#DejaVuSans-98"/>
      <use x="63.476562" xlink:href="#DejaVuSans-97"/>
      <use x="124.755859" xlink:href="#DejaVuSans-115"/>
      <use x="176.855469" xlink:href="#DejaVuSans-101"/>
     </g>
    </g>
    <g id="patch_6">
     <path d="M 417.014688 79.787188 
L 445.014688 79.787188 
L 445.014688 69.987188 
L 417.014688 69.987188 
z
" style="fill:#36a2eb;opacity:0.5;stroke:#36a2eb;stroke-linejoin:miter;"/>
    </g>
    <g id="text_2">
     <!-- expanded -->
     <defs>
      <path d="M 54.890625 54.6875 
L 35.109375 28.078125 
L 55.90625 0 
L 45.3125 0 
L 29.390625 21.484375 
L 13.484375 0 
L 2.875 0 
L 24.125 28.609375 
L 4.6875 54.6875 
L 15.28125 54.6875 
L 29.78125 35.203125 
L 44.28125 54.6875 
z
" id="DejaVuSans-120"/>
      <path d="M 18.109375 8.203125 
L 18.109375 -20.796875 
L 9.078125 -20.796875 
L 9.078125 54.6875 
L 18.109375 54.6875 
L 18.109375 46.390625 
Q 20.953125 51.265625 25.265625 53.625 
Q 29.59375 56 35.59375 56 
Q 45.5625 56 51.78125 48.09375 
Q 58.015625 40.1875 58.015625 27.296875 
Q 58.015625 14.40625 51.78125 6.484375 
Q 45.5625 -1.421875 35.59375 -1.421875 
Q 29.59375 -1.421875 25.265625 0.953125 
Q 20.953125 3.328125 18.109375 8.203125 
z
M 48.6875 27.296875 
Q 48.6875 37.203125 44.609375 42.84375 
Q 40.53125 48.484375 33.40625 48.484375 
Q 26.265625 48.484375 22.1875 42.84375 
Q 18.109375 37.203125 18.109375 27.296875 
Q 18.109375 17.390625 22.1875 11.75 
Q 26.265625 6.109375 33.40625 6.109375 
Q 40.53125 6.109375 44.609375 11.75 
Q 48.6875 17.390625 48.6875 27.296875 
z
" id="DejaVuSans-112"/>
      <path d="M 54.890625 33.015625 
L 54.890625 0 
L 45.90625 0 
L 45.90625 32.71875 
Q 45.90625 40.484375 42.875 44.328125 
Q 39.84375 48.1875 33.796875 48.1875 
Q 26.515625 48.1875 22.3125 43.546875 
Q 18.109375 38.921875 18.109375 30.90625 
L 18.109375 0 
L 9.078125 0 
L 9.078125 54.6875 
L 18.109375 54.6875 
L 18.109375 46.1875 
Q 21.34375 51.125 25.703125 53.5625 
Q 30.078125 56 35.796875 56 
Q 45.21875 56 50.046875 50.171875 
Q 54.890625 44.34375 54.890625 33.015625 
z
" id="DejaVuSans-110"/>
      <path d="M 45.40625 46.390625 
L 45.40625 75.984375 
L 54.390625 75.984375 
L 54.390625 0 
L 45.40625 0 
L 45.40625 8.203125 
Q 42.578125 3.328125 38.25 0.953125 
Q 33.9375 -1.421875 27.875 -1.421875 
Q 17.96875 -1.421875 11.734375 6.484375 
Q 5.515625 14.40625 5.515625 27.296875 
Q 5.515625 40.1875 11.734375 48.09375 
Q 17.96875 56 27.875 56 
Q 33.9375 56 38.25 53.625 
Q 42.578125 51.265625 45.40625 46.390625 
z
M 14.796875 27.296875 
Q 14.796875 17.390625 18.875 11.75 
Q 22.953125 6.109375 30.078125 6.109375 
Q 37.203125 6.109375 41.296875 11.75 
Q 45.40625 17.390625 45.40625 27.296875 
Q 45.40625 37.203125 41.296875 42.84375 
Q 37.203125 48.484375 30.078125 48.484375 
Q 22.953125 48.484375 18.875 42.84375 
Q 14.796875 37.203125 14.796875 27.296875 
z
" id="DejaVuSans-100"/>
     </defs>
     <g transform="translate(456.214688 79.787188)scale(0.14 -0.14)">
      <use xlink:href="#DejaVuSans-101"/>
      <use x="59.773438" xlink:href="#DejaVuSans-120"/>
      <use x="118.953125" xlink:href="#DejaVuSans-112"/>
      <use x="182.429688" xlink:href="#DejaVuSans-97"/>
      <use x="243.708984" xlink:href="#DejaVuSans-110"/>
      <use x="307.087891" xlink:href="#DejaVuSans-100"/>
      <use x="370.564453" xlink:href="#DejaVuSans-101"/>
      <use x="432.087891" xlink:href="#DejaVuSans-100"/>
     </g>
    </g>
   </g>
  </g>
  <g id="axes_2">
   <g id="patch_7">
    <path d="M 36 534.96 
L 538.2 534.96 
L 538.2 410.22 
L 36 410.22 
z
" style="fill:none;"/>
   </g>
   <g id="patch_8">
    <path clip-path="url(#p430bcfd8b1)" d="M 196.658203 529.29 
L 406.282521 529.29 
L 406.282521 491.49 
L 196.658203 491.49 
z
" style="fill:#ff6384;opacity:0.5;"/>
   </g>
   <g id="patch_9">
    <path clip-path="url(#p430bcfd8b1)" d="M 168.103406 453.69 
L 378.084995 453.69 
L 378.084995 415.89 
L 168.103406 415.89 
z
" style="fill:#36a2eb;opacity:0.5;"/>
   </g>
   <g id="matplotlib.axis_1">
    <g id="xtick_1">
     <g id="line2d_3">
      <defs>
       <path d="M 0 0 
L 0 3.5 
" id="m0bad578be2" style="stroke:#000000;stroke-width:0.8;"/>
      </defs>
      <g>
       <use style="stroke:#000000;stroke-width:0.8;" x="46.084906" xlink:href="#m0bad578be2" y="534.96"/>
      </g>
     </g>
     <g id="text_3">
      <!-- 17 -->
      <defs>
       <path d="M 12.40625 8.296875 
L 28.515625 8.296875 
L 28.515625 63.921875 
L 10.984375 60.40625 
L 10.984375 69.390625 
L 28.421875 72.90625 
L 38.28125 72.90625 
L 38.28125 8.296875 
L 54.390625 8.296875 
L 54.390625 0 
L 12.40625 0 
z
" id="DejaVuSans-49"/>
       <path d="M 8.203125 72.90625 
L 55.078125 72.90625 
L 55.078125 68.703125 
L 28.609375 0 
L 18.3125 0 
L 43.21875 64.59375 
L 8.203125 64.59375 
z
" id="DejaVuSans-55"/>
      </defs>
      <g transform="translate(37.177406 552.597813)scale(0.14 -0.14)">
       <use xlink:href="#DejaVuSans-49"/>
       <use x="63.623047" xlink:href="#DejaVuSans-55"/>
      </g>
     </g>
    </g>
    <g id="xtick_2">
     <g id="line2d_4">
      <g>
       <use style="stroke:#000000;stroke-width:0.8;" x="127.159654" xlink:href="#m0bad578be2" y="534.96"/>
      </g>
     </g>
     <g id="text_4">
      <!-- 18 -->
      <defs>
       <path d="M 31.78125 34.625 
Q 24.75 34.625 20.71875 30.859375 
Q 16.703125 27.09375 16.703125 20.515625 
Q 16.703125 13.921875 20.71875 10.15625 
Q 24.75 6.390625 31.78125 6.390625 
Q 38.8125 6.390625 42.859375 10.171875 
Q 46.921875 13.96875 46.921875 20.515625 
Q 46.921875 27.09375 42.890625 30.859375 
Q 38.875 34.625 31.78125 34.625 
z
M 21.921875 38.8125 
Q 15.578125 40.375 12.03125 44.71875 
Q 8.5 49.078125 8.5 55.328125 
Q 8.5 64.0625 14.71875 69.140625 
Q 20.953125 74.21875 31.78125 74.21875 
Q 42.671875 74.21875 48.875 69.140625 
Q 55.078125 64.0625 55.078125 55.328125 
Q 55.078125 49.078125 51.53125 44.71875 
Q 48 40.375 41.703125 38.8125 
Q 48.828125 37.15625 52.796875 32.3125 
Q 56.78125 27.484375 56.78125 20.515625 
Q 56.78125 9.90625 50.3125 4.234375 
Q 43.84375 -1.421875 31.78125 -1.421875 
Q 19.734375 -1.421875 13.25 4.234375 
Q 6.78125 9.90625 6.78125 20.515625 
Q 6.78125 27.484375 10.78125 32.3125 
Q 14.796875 37.15625 21.921875 38.8125 
z
M 18.3125 54.390625 
Q 18.3125 48.734375 21.84375 45.5625 
Q 25.390625 42.390625 31.78125 42.390625 
Q 38.140625 42.390625 41.71875 45.5625 
Q 45.3125 48.734375 45.3125 54.390625 
Q 45.3125 60.0625 41.71875 63.234375 
Q 38.140625 66.40625 31.78125 66.40625 
Q 25.390625 66.40625 21.84375 63.234375 
Q 18.3125 60.0625 18.3125 54.390625 
z
" id="DejaVuSans-56"/>
      </defs>
      <g transform="translate(118.252154 552.597813)scale(0.14 -0.14)">
       <use xlink:href="#DejaVuSans-49"/>
       <use x="63.623047" xlink:href="#DejaVuSans-56"/>
      </g>
     </g>
    </g>
    <g id="xtick_3">
     <g id="line2d_5">
      <g>
       <use style="stroke:#000000;stroke-width:0.8;" x="208.234402" xlink:href="#m0bad578be2" y="534.96"/>
      </g>
     </g>
     <g id="text_5">
      <!-- 19 -->
      <defs>
       <path d="M 10.984375 1.515625 
L 10.984375 10.5 
Q 14.703125 8.734375 18.5 7.8125 
Q 22.3125 6.890625 25.984375 6.890625 
Q 35.75 6.890625 40.890625 13.453125 
Q 46.046875 20.015625 46.78125 33.40625 
Q 43.953125 29.203125 39.59375 26.953125 
Q 35.25 24.703125 29.984375 24.703125 
Q 19.046875 24.703125 12.671875 31.3125 
Q 6.296875 37.9375 6.296875 49.421875 
Q 6.296875 60.640625 12.9375 67.421875 
Q 19.578125 74.21875 30.609375 74.21875 
Q 43.265625 74.21875 49.921875 64.515625 
Q 56.59375 54.828125 56.59375 36.375 
Q 56.59375 19.140625 48.40625 8.859375 
Q 40.234375 -1.421875 26.421875 -1.421875 
Q 22.703125 -1.421875 18.890625 -0.6875 
Q 15.09375 0.046875 10.984375 1.515625 
z
M 30.609375 32.421875 
Q 37.25 32.421875 41.125 36.953125 
Q 45.015625 41.5 45.015625 49.421875 
Q 45.015625 57.28125 41.125 61.84375 
Q 37.25 66.40625 30.609375 66.40625 
Q 23.96875 66.40625 20.09375 61.84375 
Q 16.21875 57.28125 16.21875 49.421875 
Q 16.21875 41.5 20.09375 36.953125 
Q 23.96875 32.421875 30.609375 32.421875 
z
" id="DejaVuSans-57"/>
      </defs>
      <g transform="translate(199.326902 552.597813)scale(0.14 -0.14)">
       <use xlink:href="#DejaVuSans-49"/>
       <use x="63.623047" xlink:href="#DejaVuSans-57"/>
      </g>
     </g>
    </g>
    <g id="xtick_4">
     <g id="line2d_6">
      <g>
       <use style="stroke:#000000;stroke-width:0.8;" x="289.30915" xlink:href="#m0bad578be2" y="534.96"/>
      </g>
     </g>
     <g id="text_6">
      <!-- 20 -->
      <defs>
       <path d="M 19.1875 8.296875 
L 53.609375 8.296875 
L 53.609375 0 
L 7.328125 0 
L 7.328125 8.296875 
Q 12.9375 14.109375 22.625 23.890625 
Q 32.328125 33.6875 34.8125 36.53125 
Q 39.546875 41.84375 41.421875 45.53125 
Q 43.3125 49.21875 43.3125 52.78125 
Q 43.3125 58.59375 39.234375 62.25 
Q 35.15625 65.921875 28.609375 65.921875 
Q 23.96875 65.921875 18.8125 64.3125 
Q 13.671875 62.703125 7.8125 59.421875 
L 7.8125 69.390625 
Q 13.765625 71.78125 18.9375 73 
Q 24.125 74.21875 28.421875 74.21875 
Q 39.75 74.21875 46.484375 68.546875 
Q 53.21875 62.890625 53.21875 53.421875 
Q 53.21875 48.921875 51.53125 44.890625 
Q 49.859375 40.875 45.40625 35.40625 
Q 44.1875 33.984375 37.640625 27.21875 
Q 31.109375 20.453125 19.1875 8.296875 
z
" id="DejaVuSans-50"/>
       <path d="M 31.78125 66.40625 
Q 24.171875 66.40625 20.328125 58.90625 
Q 16.5 51.421875 16.5 36.375 
Q 16.5 21.390625 20.328125 13.890625 
Q 24.171875 6.390625 31.78125 6.390625 
Q 39.453125 6.390625 43.28125 13.890625 
Q 47.125 21.390625 47.125 36.375 
Q 47.125 51.421875 43.28125 58.90625 
Q 39.453125 66.40625 31.78125 66.40625 
z
M 31.78125 74.21875 
Q 44.046875 74.21875 50.515625 64.515625 
Q 56.984375 54.828125 56.984375 36.375 
Q 56.984375 17.96875 50.515625 8.265625 
Q 44.046875 -1.421875 31.78125 -1.421875 
Q 19.53125 -1.421875 13.0625 8.265625 
Q 6.59375 17.96875 6.59375 36.375 
Q 6.59375 54.828125 13.0625 64.515625 
Q 19.53125 74.21875 31.78125 74.21875 
z
" id="DejaVuSans-48"/>
      </defs>
      <g transform="translate(280.40165 552.597813)scale(0.14 -0.14)">
       <use xlink:href="#DejaVuSans-50"/>
       <use x="63.623047" xlink:href="#DejaVuSans-48"/>
      </g>
     </g>
    </g>
    <g id="xtick_5">
     <g id="line2d_7">
      <g>
       <use style="stroke:#000000;stroke-width:0.8;" x="370.383898" xlink:href="#m0bad578be2" y="534.96"/>
      </g>
     </g>
     <g id="text_7">
      <!-- 21 -->
      <g transform="translate(361.476398 552.597813)scale(0.14 -0.14)">
       <use xlink:href="#DejaVuSans-50"/>
       <use x="63.623047" xlink:href="#DejaVuSans-49"/>
      </g>
     </g>
    </g>
    <g id="xtick_6">
     <g id="line2d_8">
      <g>
       <use style="stroke:#000000;stroke-width:0.8;" x="451.458646" xlink:href="#m0bad578be2" y="534.96"/>
      </g>
     </g>
     <g id="text_8">
      <!-- 22 -->
      <g transform="translate(442.551146 552.597813)scale(0.14 -0.14)">
       <use xlink:href="#DejaVuSans-50"/>
       <use x="63.623047" xlink:href="#DejaVuSans-50"/>
      </g>
     </g>
    </g>
    <g id="xtick_7">
     <g id="line2d_9">
      <g>
       <use style="stroke:#000000;stroke-width:0.8;" x="532.533393" xlink:href="#m0bad578be2" y="534.96"/>
      </g>
     </g>
     <g id="text_9">
      <!-- 23 -->
      <defs>
       <path d="M 40.578125 39.3125 
Q 47.65625 37.796875 51.625 33 
Q 55.609375 28.21875 55.609375 21.1875 
Q 55.609375 10.40625 48.1875 4.484375 
Q 40.765625 -1.421875 27.09375 -1.421875 
Q 22.515625 -1.421875 17.65625 -0.515625 
Q 12.796875 0.390625 7.625 2.203125 
L 7.625 11.71875 
Q 11.71875 9.328125 16.59375 8.109375 
Q 21.484375 6.890625 26.8125 6.890625 
Q 36.078125 6.890625 40.9375 10.546875 
Q 45.796875 14.203125 45.796875 21.1875 
Q 45.796875 27.640625 41.28125 31.265625 
Q 36.765625 34.90625 28.71875 34.90625 
L 20.21875 34.90625 
L 20.21875 43.015625 
L 29.109375 43.015625 
Q 36.375 43.015625 40.234375 45.921875 
Q 44.09375 48.828125 44.09375 54.296875 
Q 44.09375 59.90625 40.109375 62.90625 
Q 36.140625 65.921875 28.71875 65.921875 
Q 24.65625 65.921875 20.015625 65.03125 
Q 15.375 64.15625 9.8125 62.3125 
L 9.8125 71.09375 
Q 15.4375 72.65625 20.34375 73.4375 
Q 25.25 74.21875 29.59375 74.21875 
Q 40.828125 74.21875 47.359375 69.109375 
Q 53.90625 64.015625 53.90625 55.328125 
Q 53.90625 49.265625 50.4375 45.09375 
Q 46.96875 40.921875 40.578125 39.3125 
z
" id="DejaVuSans-51"/>
      </defs>
      <g transform="translate(523.625893 552.597813)scale(0.14 -0.14)">
       <use xlink:href="#DejaVuSans-50"/>
       <use x="63.623047" xlink:href="#DejaVuSans-51"/>
      </g>
     </g>
    </g>
   </g>
   <g id="line2d_10">
    <path clip-path="url(#p430bcfd8b1)" d="M 301.470362 534.96 
L 301.470362 410.22 
" style="fill:none;stroke:#ff6384;stroke-dasharray:5.55,2.4;stroke-dashoffset:0;stroke-opacity:0.8;stroke-width:1.5;"/>
   </g>
   <g id="line2d_11">
    <path clip-path="url(#p430bcfd8b1)" d="M 273.0942 534.96 
L 273.0942 410.22 
" style="fill:none;stroke:#36a2eb;stroke-dasharray:5.55,2.4;stroke-dashoffset:0;stroke-opacity:0.8;stroke-width:1.5;"/>
   </g>
   <g id="patch_10">
    <path d="M 36 534.96 
L 538.2 534.96 
" style="fill:none;stroke:#000000;stroke-linecap:square;stroke-linejoin:miter;stroke-width:0.8;"/>
   </g>
  </g>
 </g>
 <defs>
  <clipPath id="pa674fbf172">
   <rect height="374.22" width="502.2" x="36" y="36"/>
  </clipPath>
  <clipPath id="p430bcfd8b1">
   <rect height="124.74" width="502.2" x="36" y="410.22"/>
  </clipPath>
 </defs>
</svg>
