<?xml version="1.0" encoding="utf-8" standalone="no"?>
<!DOCTYPE svg PUBLIC "-//W3C//DTD SVG 1.1//EN"
  "http://www.w3.org/Graphics/SVG/1.1/DTD/svg11.dtd">
<!-- Created with matplotlib (https://matplotlib.org/) -->
<svg height="581.789375pt" version="1.1" viewBox="0 0 574.2 581.789375" width="574.2pt" xmlns="http://www.w3.org/2000/svg" xmlns:xlink="http://www.w3.org/1999/xlink">
 <defs>
  <style type="text/css">
*{stroke-linecap:butt;stroke-linejoin:round;}
  </style>
 </defs>
 <g id="figure_1">
  <g id="patch_1">
   <path d="M 0 581.789375 
L 574.2 581.789375 
L 574.2 0 
L 0 0 
z
" style="fill:none;"/>
  </g>
  <g id="axes_1">
   <g id="patch_2">
    <path d="M 36 402.93 
L 538.2 402.93 
L 538.2 36 
L 36 36 
z
" style="fill:none;"/>
   </g>
   <g id="PolyCollection_1">
    <defs>
     <path d="M 58.827273 -195.538011 
L 58.827273 -195.645268 
L 62.850341 -195.685712 
L 66.87341 -195.740084 
L 70.896479 -195.812671 
L 74.919547 -195.908904 
L 78.942616 -196.035593 
L 82.965685 -196.201211 
L 86.988754 -196.416203 
L 91.011822 -196.693319 
L 95.034891 -197.047989 
L 99.05796 -197.498694 
L 103.081028 -198.067356 
L 107.104097 -198.779713 
L 111.127166 -199.665653 
L 115.150234 -200.75951 
L 119.173303 -202.100254 
L 123.196372 -203.731589 
L 127.21944 -205.701877 
L 131.242509 -208.063894 
L 135.265578 -210.874355 
L 139.288646 -214.193191 
L 143.311715 -218.082537 
L 147.334784 -222.60543 
L 151.357852 -227.824191 
L 155.380921 -233.798505 
L 159.40399 -240.583215 
L 163.427058 -248.22588 
L 167.450127 -256.764136 
L 171.473196 -266.222969 
L 175.496265 -276.611958 
L 179.519333 -287.922637 
L 183.542402 -300.126087 
L 187.565471 -313.170889 
L 191.588539 -326.981584 
L 195.611608 -341.457758 
L 199.634677 -356.473884 
L 203.657745 -371.879999 
L 207.680814 -387.50329 
L 211.703883 -403.150616 
L 215.726951 -418.611948 
L 219.75002 -433.664675 
L 223.773089 -448.078666 
L 227.796157 -461.621949 
L 231.819226 -474.066803 
L 235.842295 -485.196067 
L 239.865363 -494.809407 
L 243.888432 -502.729294 
L 247.911501 -508.806452 
L 251.934569 -512.924536 
L 255.957638 -515.003834 
L 259.980707 -515.003834 
L 264.003776 -512.924536 
L 268.026844 -508.806452 
L 272.049913 -502.729294 
L 276.072982 -494.809407 
L 280.09605 -485.196067 
L 284.119119 -474.066803 
L 288.142188 -461.621949 
L 292.165256 -448.078666 
L 296.188325 -433.664675 
L 300.211394 -418.611948 
L 304.234462 -403.150616 
L 308.257531 -387.50329 
L 312.2806 -371.879999 
L 316.303668 -356.473884 
L 320.326737 -341.457758 
L 324.349806 -326.981584 
L 328.372874 -313.170889 
L 332.395943 -300.126087 
L 336.419012 -287.922637 
L 340.44208 -276.611958 
L 344.465149 -266.222969 
L 348.488218 -256.764136 
L 352.511287 -248.22588 
L 356.534355 -240.583215 
L 360.557424 -233.798505 
L 364.580493 -227.824191 
L 368.603561 -222.60543 
L 372.62663 -218.082537 
L 376.649699 -214.193191 
L 380.672767 -210.874355 
L 384.695836 -208.063894 
L 388.718905 -205.701877 
L 392.741973 -203.731589 
L 396.765042 -202.100254 
L 400.788111 -200.75951 
L 404.811179 -199.665653 
L 408.834248 -198.779713 
L 412.857317 -198.067356 
L 416.880385 -197.498694 
L 420.903454 -197.047989 
L 424.926523 -196.693319 
L 428.949591 -196.416203 
L 432.97266 -196.201211 
L 436.995729 -196.035593 
L 441.018798 -195.908904 
L 445.041866 -195.812671 
L 449.064935 -195.740084 
L 453.088004 -195.685712 
L 457.111072 -195.645268 
L 457.111072 -195.538011 
L 457.111072 -195.538011 
L 453.088004 -195.538011 
L 449.064935 -195.538011 
L 445.041866 -195.538011 
L 441.018798 -195.538011 
L 436.995729 -195.538011 
L 432.97266 -195.538011 
L 428.949591 -195.538011 
L 424.926523 -195.538011 
L 420.903454 -195.538011 
L 416.880385 -195.538011 
L 412.857317 -195.538011 
L 408.834248 -195.538011 
L 404.811179 -195.538011 
L 400.788111 -195.538011 
L 396.765042 -195.538011 
L 392.741973 -195.538011 
L 388.718905 -195.538011 
L 384.695836 -195.538011 
L 380.672767 -195.538011 
L 376.649699 -195.538011 
L 372.62663 -195.538011 
L 368.603561 -195.538011 
L 364.580493 -195.538011 
L 360.557424 -195.538011 
L 356.534355 -195.538011 
L 352.511287 -195.538011 
L 348.488218 -195.538011 
L 344.465149 -195.538011 
L 340.44208 -195.538011 
L 336.419012 -195.538011 
L 332.395943 -195.538011 
L 328.372874 -195.538011 
L 324.349806 -195.538011 
L 320.326737 -195.538011 
L 316.303668 -195.538011 
L 312.2806 -195.538011 
L 308.257531 -195.538011 
L 304.234462 -195.538011 
L 300.211394 -195.538011 
L 296.188325 -195.538011 
L 292.165256 -195.538011 
L 288.142188 -195.538011 
L 284.119119 -195.538011 
L 280.09605 -195.538011 
L 276.072982 -195.538011 
L 272.049913 -195.538011 
L 268.026844 -195.538011 
L 264.003776 -195.538011 
L 259.980707 -195.538011 
L 255.957638 -195.538011 
L 251.934569 -195.538011 
L 247.911501 -195.538011 
L 243.888432 -195.538011 
L 239.865363 -195.538011 
L 235.842295 -195.538011 
L 231.819226 -195.538011 
L 227.796157 -195.538011 
L 223.773089 -195.538011 
L 219.75002 -195.538011 
L 215.726951 -195.538011 
L 211.703883 -195.538011 
L 207.680814 -195.538011 
L 203.657745 -195.538011 
L 199.634677 -195.538011 
L 195.611608 -195.538011 
L 191.588539 -195.538011 
L 187.565471 -195.538011 
L 183.542402 -195.538011 
L 179.519333 -195.538011 
L 175.496265 -195.538011 
L 171.473196 -195.538011 
L 167.450127 -195.538011 
L 163.427058 -195.538011 
L 159.40399 -195.538011 
L 155.380921 -195.538011 
L 151.357852 -195.538011 
L 147.334784 -195.538011 
L 143.311715 -195.538011 
L 139.288646 -195.538011 
L 135.265578 -195.538011 
L 131.242509 -195.538011 
L 127.21944 -195.538011 
L 123.196372 -195.538011 
L 119.173303 -195.538011 
L 115.150234 -195.538011 
L 111.127166 -195.538011 
L 107.104097 -195.538011 
L 103.081028 -195.538011 
L 99.05796 -195.538011 
L 95.034891 -195.538011 
L 91.011822 -195.538011 
L 86.988754 -195.538011 
L 82.965685 -195.538011 
L 78.942616 -195.538011 
L 74.919547 -195.538011 
L 70.896479 -195.538011 
L 66.87341 -195.538011 
L 62.850341 -195.538011 
L 58.827273 -195.538011 
z
" id="m58cb9cdabf" style="stroke:#ff6384;stroke-opacity:0.5;"/>
    </defs>
    <g clip-path="url(#p363661f647)">
     <use style="fill:#ff6384;fill-opacity:0.5;stroke:#ff6384;stroke-opacity:0.5;" x="0" xlink:href="#m58cb9cdabf" y="581.789375"/>
    </g>
   </g>
   <g id="PolyCollection_2">
    <defs>
     <path d="M 126.577132 -195.538011 
L 126.577132 -195.647885 
L 130.50436 -195.689317 
L 134.431588 -195.745015 
L 138.358817 -195.819374 
L 142.286045 -195.917955 
L 146.213273 -196.047736 
L 150.140501 -196.217396 
L 154.06773 -196.437634 
L 157.994958 -196.721513 
L 161.922186 -197.084838 
L 165.849414 -197.546542 
L 169.776643 -198.129083 
L 173.703871 -198.858824 
L 177.631099 -199.766385 
L 181.558327 -200.886935 
L 185.485556 -202.2604 
L 189.412784 -203.931546 
L 193.340012 -205.949917 
L 197.26724 -208.369577 
L 201.194468 -211.248625 
L 205.121697 -214.648453 
L 209.048925 -218.632715 
L 212.976153 -223.265986 
L 216.903381 -228.612106 
L 220.83061 -234.732218 
L 224.757838 -241.682503 
L 228.685066 -249.511679 
L 232.612294 -258.258305 
L 236.539523 -267.947972 
L 240.466751 -278.590494 
L 244.393979 -290.1772 
L 248.321207 -302.678464 
L 252.248436 -316.041613 
L 256.175664 -330.189345 
L 260.102892 -345.018797 
L 264.03012 -360.401378 
L 267.957348 -376.183465 
L 271.884577 -392.188029 
L 275.811805 -408.217214 
L 279.739033 -424.055866 
L 283.666261 -439.47594 
L 287.59349 -454.241692 
L 291.520718 -468.115486 
L 295.447946 -480.864045 
L 299.375174 -492.26491 
L 303.302403 -502.112854 
L 307.229631 -510.226019 
L 311.156859 -516.451484 
L 315.084087 -520.670067 
L 319.011316 -522.800108 
L 322.938544 -522.800108 
L 326.865772 -520.670067 
L 330.793 -516.451484 
L 334.720228 -510.226019 
L 338.647457 -502.112854 
L 342.574685 -492.26491 
L 346.501913 -480.864045 
L 350.429141 -468.115486 
L 354.35637 -454.241692 
L 358.283598 -439.47594 
L 362.210826 -424.055866 
L 366.138054 -408.217214 
L 370.065283 -392.188029 
L 373.992511 -376.183465 
L 377.919739 -360.401378 
L 381.846967 -345.018797 
L 385.774196 -330.189345 
L 389.701424 -316.041613 
L 393.628652 -302.678464 
L 397.55588 -290.1772 
L 401.483108 -278.590494 
L 405.410337 -267.947972 
L 409.337565 -258.258305 
L 413.264793 -249.511679 
L 417.192021 -241.682503 
L 421.11925 -234.732218 
L 425.046478 -228.612106 
L 428.973706 -223.265986 
L 432.900934 -218.632715 
L 436.828163 -214.648453 
L 440.755391 -211.248625 
L 444.682619 -208.369577 
L 448.609847 -205.949917 
L 452.537076 -203.931546 
L 456.464304 -202.2604 
L 460.391532 -200.886935 
L 464.31876 -199.766385 
L 468.245988 -198.858824 
L 472.173217 -198.129083 
L 476.100445 -197.546542 
L 480.027673 -197.084838 
L 483.954901 -196.721513 
L 487.88213 -196.437634 
L 491.809358 -196.217396 
L 495.736586 -196.047736 
L 499.663814 -195.917955 
L 503.591043 -195.819374 
L 507.518271 -195.745015 
L 511.445499 -195.689317 
L 515.372727 -195.647885 
L 515.372727 -195.538011 
L 515.372727 -195.538011 
L 511.445499 -195.538011 
L 507.518271 -195.538011 
L 503.591043 -195.538011 
L 499.663814 -195.538011 
L 495.736586 -195.538011 
L 491.809358 -195.538011 
L 487.88213 -195.538011 
L 483.954901 -195.538011 
L 480.027673 -195.538011 
L 476.100445 -195.538011 
L 472.173217 -195.538011 
L 468.245988 -195.538011 
L 464.31876 -195.538011 
L 460.391532 -195.538011 
L 456.464304 -195.538011 
L 452.537076 -195.538011 
L 448.609847 -195.538011 
L 444.682619 -195.538011 
L 440.755391 -195.538011 
L 436.828163 -195.538011 
L 432.900934 -195.538011 
L 428.973706 -195.538011 
L 425.046478 -195.538011 
L 421.11925 -195.538011 
L 417.192021 -195.538011 
L 413.264793 -195.538011 
L 409.337565 -195.538011 
L 405.410337 -195.538011 
L 401.483108 -195.538011 
L 397.55588 -195.538011 
L 393.628652 -195.538011 
L 389.701424 -195.538011 
L 385.774196 -195.538011 
L 381.846967 -195.538011 
L 377.919739 -195.538011 
L 373.992511 -195.538011 
L 370.065283 -195.538011 
L 366.138054 -195.538011 
L 362.210826 -195.538011 
L 358.283598 -195.538011 
L 354.35637 -195.538011 
L 350.429141 -195.538011 
L 346.501913 -195.538011 
L 342.574685 -195.538011 
L 338.647457 -195.538011 
L 334.720228 -195.538011 
L 330.793 -195.538011 
L 326.865772 -195.538011 
L 322.938544 -195.538011 
L 319.011316 -195.538011 
L 315.084087 -195.538011 
L 311.156859 -195.538011 
L 307.229631 -195.538011 
L 303.302403 -195.538011 
L 299.375174 -195.538011 
L 295.447946 -195.538011 
L 291.520718 -195.538011 
L 287.59349 -195.538011 
L 283.666261 -195.538011 
L 279.739033 -195.538011 
L 275.811805 -195.538011 
L 271.884577 -195.538011 
L 267.957348 -195.538011 
L 264.03012 -195.538011 
L 260.102892 -195.538011 
L 256.175664 -195.538011 
L 252.248436 -195.538011 
L 248.321207 -195.538011 
L 244.393979 -195.538011 
L 240.466751 -195.538011 
L 236.539523 -195.538011 
L 232.612294 -195.538011 
L 228.685066 -195.538011 
L 224.757838 -195.538011 
L 220.83061 -195.538011 
L 216.903381 -195.538011 
L 212.976153 -195.538011 
L 209.048925 -195.538011 
L 205.121697 -195.538011 
L 201.194468 -195.538011 
L 197.26724 -195.538011 
L 193.340012 -195.538011 
L 189.412784 -195.538011 
L 185.485556 -195.538011 
L 181.558327 -195.538011 
L 177.631099 -195.538011 
L 173.703871 -195.538011 
L 169.776643 -195.538011 
L 165.849414 -195.538011 
L 161.922186 -195.538011 
L 157.994958 -195.538011 
L 154.06773 -195.538011 
L 150.140501 -195.538011 
L 146.213273 -195.538011 
L 142.286045 -195.538011 
L 138.358817 -195.538011 
L 134.431588 -195.538011 
L 130.50436 -195.538011 
L 126.577132 -195.538011 
z
" id="m2680bf595e" style="stroke:#36a2eb;stroke-opacity:0.5;"/>
    </defs>
    <g clip-path="url(#p363661f647)">
     <use style="fill:#36a2eb;fill-opacity:0.5;stroke:#36a2eb;stroke-opacity:0.5;" x="0" xlink:href="#m2680bf595e" y="581.789375"/>
    </g>
   </g>
   <g id="PolyCollection_3">
    <defs>
     <path d="M 81.852105 -195.538011 
L 81.852105 -195.650004 
L 85.705037 -195.692234 
L 89.557968 -195.749007 
L 93.4109 -195.8248 
L 97.263832 -195.925281 
L 101.116764 -196.057565 
L 104.969695 -196.230497 
L 108.822627 -196.454982 
L 112.675559 -196.744335 
L 116.528491 -197.114666 
L 120.381422 -197.585273 
L 124.234354 -198.179047 
L 128.087286 -198.922859 
L 131.940218 -199.847921 
L 135.793149 -200.990079 
L 139.646081 -202.390029 
L 143.499013 -204.093399 
L 147.351945 -206.150691 
L 151.204876 -208.617009 
L 155.057808 -211.551575 
L 158.91074 -215.016962 
L 162.763672 -219.078053 
L 166.616603 -223.800667 
L 170.469535 -229.249878 
L 174.322467 -235.488004 
L 178.175398 -242.572312 
L 182.02833 -250.552459 
L 185.881262 -259.467747 
L 189.734194 -269.344261 
L 193.587125 -280.192004 
L 197.440057 -292.002137 
L 201.292989 -304.744465 
L 205.145921 -318.365297 
L 208.998852 -332.785841 
L 212.851784 -347.901251 
L 216.704716 -363.580456 
L 220.557648 -379.666871 
L 224.410579 -395.980052 
L 228.263511 -412.31833 
L 232.116443 -428.4624 
L 235.969375 -444.179822 
L 239.822306 -459.230303 
L 243.675238 -473.371627 
L 247.52817 -486.366018 
L 251.381101 -497.986726 
L 255.234033 -508.02457 
L 259.086965 -516.294181 
L 262.939897 -522.639693 
L 266.792828 -526.939623 
L 270.64576 -529.110739 
L 274.498692 -529.110739 
L 278.351624 -526.939623 
L 282.204555 -522.639693 
L 286.057487 -516.294181 
L 289.910419 -508.02457 
L 293.763351 -497.986726 
L 297.616282 -486.366018 
L 301.469214 -473.371627 
L 305.322146 -459.230303 
L 309.175078 -444.179822 
L 313.028009 -428.4624 
L 316.880941 -412.31833 
L 320.733873 -395.980052 
L 324.586805 -379.666871 
L 328.439736 -363.580456 
L 332.292668 -347.901251 
L 336.1456 -332.785841 
L 339.998531 -318.365297 
L 343.851463 -304.744465 
L 347.704395 -292.002137 
L 351.557327 -280.192004 
L 355.410258 -269.344261 
L 359.26319 -259.467747 
L 363.116122 -250.552459 
L 366.969054 -242.572312 
L 370.821985 -235.488004 
L 374.674917 -229.249878 
L 378.527849 -223.800667 
L 382.380781 -219.078053 
L 386.233712 -215.016962 
L 390.086644 -211.551575 
L 393.939576 -208.617009 
L 397.792508 -206.150691 
L 401.645439 -204.093399 
L 405.498371 -202.390029 
L 409.351303 -200.990079 
L 413.204234 -199.847921 
L 417.057166 -198.922859 
L 420.910098 -198.179047 
L 424.76303 -197.585273 
L 428.615961 -197.114666 
L 432.468893 -196.744335 
L 436.321825 -196.454982 
L 440.174757 -196.230497 
L 444.027688 -196.057565 
L 447.88062 -195.925281 
L 451.733552 -195.8248 
L 455.586484 -195.749007 
L 459.439415 -195.692234 
L 463.292347 -195.650004 
L 463.292347 -195.538011 
L 463.292347 -195.538011 
L 459.439415 -195.538011 
L 455.586484 -195.538011 
L 451.733552 -195.538011 
L 447.88062 -195.538011 
L 444.027688 -195.538011 
L 440.174757 -195.538011 
L 436.321825 -195.538011 
L 432.468893 -195.538011 
L 428.615961 -195.538011 
L 424.76303 -195.538011 
L 420.910098 -195.538011 
L 417.057166 -195.538011 
L 413.204234 -195.538011 
L 409.351303 -195.538011 
L 405.498371 -195.538011 
L 401.645439 -195.538011 
L 397.792508 -195.538011 
L 393.939576 -195.538011 
L 390.086644 -195.538011 
L 386.233712 -195.538011 
L 382.380781 -195.538011 
L 378.527849 -195.538011 
L 374.674917 -195.538011 
L 370.821985 -195.538011 
L 366.969054 -195.538011 
L 363.116122 -195.538011 
L 359.26319 -195.538011 
L 355.410258 -195.538011 
L 351.557327 -195.538011 
L 347.704395 -195.538011 
L 343.851463 -195.538011 
L 339.998531 -195.538011 
L 336.1456 -195.538011 
L 332.292668 -195.538011 
L 328.439736 -195.538011 
L 324.586805 -195.538011 
L 320.733873 -195.538011 
L 316.880941 -195.538011 
L 313.028009 -195.538011 
L 309.175078 -195.538011 
L 305.322146 -195.538011 
L 301.469214 -195.538011 
L 297.616282 -195.538011 
L 293.763351 -195.538011 
L 289.910419 -195.538011 
L 286.057487 -195.538011 
L 282.204555 -195.538011 
L 278.351624 -195.538011 
L 274.498692 -195.538011 
L 270.64576 -195.538011 
L 266.792828 -195.538011 
L 262.939897 -195.538011 
L 259.086965 -195.538011 
L 255.234033 -195.538011 
L 251.381101 -195.538011 
L 247.52817 -195.538011 
L 243.675238 -195.538011 
L 239.822306 -195.538011 
L 235.969375 -195.538011 
L 232.116443 -195.538011 
L 228.263511 -195.538011 
L 224.410579 -195.538011 
L 220.557648 -195.538011 
L 216.704716 -195.538011 
L 212.851784 -195.538011 
L 208.998852 -195.538011 
L 205.145921 -195.538011 
L 201.292989 -195.538011 
L 197.440057 -195.538011 
L 193.587125 -195.538011 
L 189.734194 -195.538011 
L 185.881262 -195.538011 
L 182.02833 -195.538011 
L 178.175398 -195.538011 
L 174.322467 -195.538011 
L 170.469535 -195.538011 
L 166.616603 -195.538011 
L 162.763672 -195.538011 
L 158.91074 -195.538011 
L 155.057808 -195.538011 
L 151.204876 -195.538011 
L 147.351945 -195.538011 
L 143.499013 -195.538011 
L 139.646081 -195.538011 
L 135.793149 -195.538011 
L 131.940218 -195.538011 
L 128.087286 -195.538011 
L 124.234354 -195.538011 
L 120.381422 -195.538011 
L 116.528491 -195.538011 
L 112.675559 -195.538011 
L 108.822627 -195.538011 
L 104.969695 -195.538011 
L 101.116764 -195.538011 
L 97.263832 -195.538011 
L 93.4109 -195.538011 
L 89.557968 -195.538011 
L 85.705037 -195.538011 
L 81.852105 -195.538011 
z
" id="m729a05a6fa" style="stroke:#4bc0c0;stroke-opacity:0.5;"/>
    </defs>
    <g clip-path="url(#p363661f647)">
     <use style="fill:#4bc0c0;fill-opacity:0.5;stroke:#4bc0c0;stroke-opacity:0.5;" x="0" xlink:href="#m729a05a6fa" y="581.789375"/>
    </g>
   </g>
   <g id="line2d_1">
    <path clip-path="url(#p363661f647)" d="M 58.827273 386.144107 
L 62.850341 386.103663 
L 66.87341 386.049291 
L 70.896479 385.976704 
L 74.919547 385.880471 
L 78.942616 385.753782 
L 82.965685 385.588164 
L 86.988754 385.373172 
L 91.011822 385.096056 
L 95.034891 384.741386 
L 99.05796 384.290681 
L 103.081028 383.722019 
L 107.104097 383.009662 
L 111.127166 382.123722 
L 115.150234 381.029865 
L 119.173303 379.689121 
L 123.196372 378.057786 
L 127.21944 376.087498 
L 131.242509 373.725481 
L 135.265578 370.91502 
L 139.288646 367.596184 
L 143.311715 363.706838 
L 147.334784 359.183945 
L 151.357852 353.965184 
L 155.380921 347.99087 
L 159.40399 341.20616 
L 163.427058 333.563495 
L 167.450127 325.025239 
L 171.473196 315.566406 
L 175.496265 305.177417 
L 179.519333 293.866738 
L 183.542402 281.663288 
L 187.565471 268.618486 
L 191.588539 254.807791 
L 195.611608 240.331617 
L 199.634677 225.315491 
L 203.657745 209.909376 
L 207.680814 194.286085 
L 211.703883 178.638759 
L 215.726951 163.177427 
L 219.75002 148.1247 
L 223.773089 133.710709 
L 227.796157 120.167426 
L 231.819226 107.722572 
L 235.842295 96.593308 
L 239.865363 86.979968 
L 243.888432 79.060081 
L 247.911501 72.982923 
L 251.934569 68.864839 
L 255.957638 66.785541 
L 259.980707 66.785541 
L 264.003776 68.864839 
L 268.026844 72.982923 
L 272.049913 79.060081 
L 276.072982 86.979968 
L 280.09605 96.593308 
L 284.119119 107.722572 
L 288.142188 120.167426 
L 292.165256 133.710709 
L 296.188325 148.1247 
L 300.211394 163.177427 
L 304.234462 178.638759 
L 308.257531 194.286085 
L 312.2806 209.909376 
L 316.303668 225.315491 
L 320.326737 240.331617 
L 324.349806 254.807791 
L 328.372874 268.618486 
L 332.395943 281.663288 
L 336.419012 293.866738 
L 340.44208 305.177417 
L 344.465149 315.566406 
L 348.488218 325.025239 
L 352.511287 333.563495 
L 356.534355 341.20616 
L 360.557424 347.99087 
L 364.580493 353.965184 
L 368.603561 359.183945 
L 372.62663 363.706838 
L 376.649699 367.596184 
L 380.672767 370.91502 
L 384.695836 373.725481 
L 388.718905 376.087498 
L 392.741973 378.057786 
L 396.765042 379.689121 
L 400.788111 381.029865 
L 404.811179 382.123722 
L 408.834248 383.009662 
L 412.857317 383.722019 
L 416.880385 384.290681 
L 420.903454 384.741386 
L 424.926523 385.096056 
L 428.949591 385.373172 
L 432.97266 385.588164 
L 436.995729 385.753782 
L 441.018798 385.880471 
L 445.041866 385.976704 
L 449.064935 386.049291 
L 453.088004 386.103663 
L 457.111072 386.144107 
" style="fill:none;stroke:#ff6384;stroke-linecap:square;"/>
   </g>
   <g id="line2d_2">
    <path clip-path="url(#p363661f647)" d="M 126.577132 386.14149 
L 130.50436 386.100058 
L 134.431588 386.04436 
L 138.358817 385.970001 
L 142.286045 385.87142 
L 146.213273 385.741639 
L 150.140501 385.571979 
L 154.06773 385.351741 
L 157.994958 385.067862 
L 161.922186 384.704537 
L 165.849414 384.242833 
L 169.776643 383.660292 
L 173.703871 382.930551 
L 177.631099 382.02299 
L 181.558327 380.90244 
L 185.485556 379.528975 
L 189.412784 377.857829 
L 193.340012 375.839458 
L 197.26724 373.419798 
L 201.194468 370.54075 
L 205.121697 367.140922 
L 209.048925 363.15666 
L 212.976153 358.523389 
L 216.903381 353.177269 
L 220.83061 347.057157 
L 224.757838 340.106872 
L 228.685066 332.277696 
L 232.612294 323.53107 
L 236.539523 313.841403 
L 240.466751 303.198881 
L 244.393979 291.612175 
L 248.321207 279.110911 
L 252.248436 265.747762 
L 256.175664 251.60003 
L 260.102892 236.770578 
L 264.03012 221.387997 
L 267.957348 205.60591 
L 271.884577 189.601346 
L 275.811805 173.572161 
L 279.739033 157.733509 
L 283.666261 142.313435 
L 287.59349 127.547683 
L 291.520718 113.673889 
L 295.447946 100.92533 
L 299.375174 89.524465 
L 303.302403 79.676521 
L 307.229631 71.563356 
L 311.156859 65.337891 
L 315.084087 61.119308 
L 319.011316 58.989267 
L 322.938544 58.989267 
L 326.865772 61.119308 
L 330.793 65.337891 
L 334.720228 71.563356 
L 338.647457 79.676521 
L 342.574685 89.524465 
L 346.501913 100.92533 
L 350.429141 113.673889 
L 354.35637 127.547683 
L 358.283598 142.313435 
L 362.210826 157.733509 
L 366.138054 173.572161 
L 370.065283 189.601346 
L 373.992511 205.60591 
L 377.919739 221.387997 
L 381.846967 236.770578 
L 385.774196 251.60003 
L 389.701424 265.747762 
L 393.628652 279.110911 
L 397.55588 291.612175 
L 401.483108 303.198881 
L 405.410337 313.841403 
L 409.337565 323.53107 
L 413.264793 332.277696 
L 417.192021 340.106872 
L 421.11925 347.057157 
L 425.046478 353.177269 
L 428.973706 358.523389 
L 432.900934 363.15666 
L 436.828163 367.140922 
L 440.755391 370.54075 
L 444.682619 373.419798 
L 448.609847 375.839458 
L 452.537076 377.857829 
L 456.464304 379.528975 
L 460.391532 380.90244 
L 464.31876 382.02299 
L 468.245988 382.930551 
L 472.173217 383.660292 
L 476.100445 384.242833 
L 480.027673 384.704537 
L 483.954901 385.067862 
L 487.88213 385.351741 
L 491.809358 385.571979 
L 495.736586 385.741639 
L 499.663814 385.87142 
L 503.591043 385.970001 
L 507.518271 386.04436 
L 511.445499 386.100058 
L 515.372727 386.14149 
" style="fill:none;stroke:#36a2eb;stroke-linecap:square;"/>
   </g>
   <g id="line2d_3">
    <path clip-path="url(#p363661f647)" d="M 81.852105 386.139371 
L 85.705037 386.097141 
L 89.557968 386.040368 
L 93.4109 385.964575 
L 97.263832 385.864094 
L 101.116764 385.73181 
L 104.969695 385.558878 
L 108.822627 385.334393 
L 112.675559 385.04504 
L 116.528491 384.674709 
L 120.381422 384.204102 
L 124.234354 383.610328 
L 128.087286 382.866516 
L 131.940218 381.941454 
L 135.793149 380.799296 
L 139.646081 379.399346 
L 143.499013 377.695976 
L 147.351945 375.638684 
L 151.204876 373.172366 
L 155.057808 370.2378 
L 158.91074 366.772413 
L 162.763672 362.711322 
L 166.616603 357.988708 
L 170.469535 352.539497 
L 174.322467 346.301371 
L 178.175398 339.217063 
L 182.02833 331.236916 
L 185.881262 322.321628 
L 189.734194 312.445114 
L 193.587125 301.597371 
L 197.440057 289.787238 
L 201.292989 277.04491 
L 205.145921 263.424078 
L 208.998852 249.003534 
L 212.851784 233.888124 
L 216.704716 218.208919 
L 220.557648 202.122504 
L 224.410579 185.809323 
L 228.263511 169.471045 
L 232.116443 153.326975 
L 235.969375 137.609553 
L 239.822306 122.559072 
L 243.675238 108.417748 
L 247.52817 95.423357 
L 251.381101 83.802649 
L 255.234033 73.764805 
L 259.086965 65.495194 
L 262.939897 59.149682 
L 266.792828 54.849752 
L 270.64576 52.678636 
L 274.498692 52.678636 
L 278.351624 54.849752 
L 282.204555 59.149682 
L 286.057487 65.495194 
L 289.910419 73.764805 
L 293.763351 83.802649 
L 297.616282 95.423357 
L 301.469214 108.417748 
L 305.322146 122.559072 
L 309.175078 137.609553 
L 313.028009 153.326975 
L 316.880941 169.471045 
L 320.733873 185.809323 
L 324.586805 202.122504 
L 328.439736 218.208919 
L 332.292668 233.888124 
L 336.1456 249.003534 
L 339.998531 263.424078 
L 343.851463 277.04491 
L 347.704395 289.787238 
L 351.557327 301.597371 
L 355.410258 312.445114 
L 359.26319 322.321628 
L 363.116122 331.236916 
L 366.969054 339.217063 
L 370.821985 346.301371 
L 374.674917 352.539497 
L 378.527849 357.988708 
L 382.380781 362.711322 
L 386.233712 366.772413 
L 390.086644 370.2378 
L 393.939576 373.172366 
L 397.792508 375.638684 
L 401.645439 377.695976 
L 405.498371 379.399346 
L 409.351303 380.799296 
L 413.204234 381.941454 
L 417.057166 382.866516 
L 420.910098 383.610328 
L 424.76303 384.204102 
L 428.615961 384.674709 
L 432.468893 385.04504 
L 436.321825 385.334393 
L 440.174757 385.558878 
L 444.027688 385.73181 
L 447.88062 385.864094 
L 451.733552 385.964575 
L 455.586484 386.040368 
L 459.439415 386.097141 
L 463.292347 386.139371 
" style="fill:none;stroke:#4bc0c0;stroke-linecap:square;"/>
   </g>
   <g id="patch_3">
    <path d="M 36 402.93 
L 538.2 402.93 
" style="fill:none;stroke:#000000;stroke-linecap:square;stroke-linejoin:miter;stroke-width:0.8;"/>
   </g>
   <g id="legend_1">
    <g id="patch_4">
     <path d="M 434.317813 109.626875 
L 528.4 109.626875 
Q 531.2 109.626875 531.2 106.826875 
L 531.2 45.8 
Q 531.2 43 528.4 43 
L 434.317813 43 
Q 431.517813 43 431.517813 45.8 
L 431.517813 106.826875 
Q 431.517813 109.626875 434.317813 109.626875 
z
" style="fill:#ffffff;opacity:0.8;stroke:#cccccc;stroke-linejoin:miter;"/>
    </g>
    <g id="patch_5">
     <path d="M 437.117813 59.237813 
L 465.117813 59.237813 
L 465.117813 49.437813 
L 437.117813 49.437813 
z
" style="fill:#ff6384;opacity:0.5;stroke:#ff6384;stroke-linejoin:miter;"/>
    </g>
    <g id="text_1">
     <!-- base_1 -->
     <defs>
      <path d="M 48.6875 27.296875 
Q 48.6875 37.203125 44.609375 42.84375 
Q 40.53125 48.484375 33.40625 48.484375 
Q 26.265625 48.484375 22.1875 42.84375 
Q 18.109375 37.203125 18.109375 27.296875 
Q 18.109375 17.390625 22.1875 11.75 
Q 26.265625 6.109375 33.40625 6.109375 
Q 40.53125 6.109375 44.609375 11.75 
Q 48.6875 17.390625 48.6875 27.296875 
z
M 18.109375 46.390625 
Q 20.953125 51.265625 25.265625 53.625 
Q 29.59375 56 35.59375 56 
Q 45.5625 56 51.78125 48.09375 
Q 58.015625 40.1875 58.015625 27.296875 
Q 58.015625 14.40625 51.78125 6.484375 
Q 45.5625 -1.421875 35.59375 -1.421875 
Q 29.59375 -1.421875 25.265625 0.953125 
Q 20.953125 3.328125 18.109375 8.203125 
L 18.109375 0 
L 9.078125 0 
L 9.078125 75.984375 
L 18.109375 75.984375 
z
" id="DejaVuSans-98"/>
      <path d="M 34.28125 27.484375 
Q 23.390625 27.484375 19.1875 25 
Q 14.984375 22.515625 14.984375 16.5 
Q 14.984375 11.71875 18.140625 8.90625 
Q 21.296875 6.109375 26.703125 6.109375 
Q 34.1875 6.109375 38.703125 11.40625 
Q 43.21875 16.703125 43.21875 25.484375 
L 43.21875 27.484375 
z
M 52.203125 31.203125 
L 52.203125 0 
L 43.21875 0 
L 43.21875 8.296875 
Q 40.140625 3.328125 35.546875 0.953125 
Q 30.953125 -1.421875 24.3125 -1.421875 
Q 15.921875 -1.421875 10.953125 3.296875 
Q 6 8.015625 6 15.921875 
Q 6 25.140625 12.171875 29.828125 
Q 18.359375 34.515625 30.609375 34.515625 
L 43.21875 34.515625 
L 43.21875 35.40625 
Q 43.21875 41.609375 39.140625 45 
Q 35.0625 48.390625 27.6875 48.390625 
Q 23 48.390625 18.546875 47.265625 
Q 14.109375 46.140625 10.015625 43.890625 
L 10.015625 52.203125 
Q 14.9375 54.109375 19.578125 55.046875 
Q 24.21875 56 28.609375 56 
Q 40.484375 56 46.34375 49.84375 
Q 52.203125 43.703125 52.203125 31.203125 
z
" id="DejaVuSans-97"/>
      <path d="M 44.28125 53.078125 
L 44.28125 44.578125 
Q 40.484375 46.53125 36.375 47.5 
Q 32.28125 48.484375 27.875 48.484375 
Q 21.1875 48.484375 17.84375 46.4375 
Q 14.5 44.390625 14.5 40.28125 
Q 14.5 37.15625 16.890625 35.375 
Q 19.28125 33.59375 26.515625 31.984375 
L 29.59375 31.296875 
Q 39.15625 29.25 43.1875 25.515625 
Q 47.21875 21.78125 47.21875 15.09375 
Q 47.21875 7.46875 41.1875 3.015625 
Q 35.15625 -1.421875 24.609375 -1.421875 
Q 20.21875 -1.421875 15.453125 -0.5625 
Q 10.6875 0.296875 5.421875 2 
L 5.421875 11.28125 
Q 10.40625 8.6875 15.234375 7.390625 
Q 20.0625 6.109375 24.8125 6.109375 
Q 31.15625 6.109375 34.5625 8.28125 
Q 37.984375 10.453125 37.984375 14.40625 
Q 37.984375 18.0625 35.515625 20.015625 
Q 33.0625 21.96875 24.703125 23.78125 
L 21.578125 24.515625 
Q 13.234375 26.265625 9.515625 29.90625 
Q 5.8125 33.546875 5.8125 39.890625 
Q 5.8125 47.609375 11.28125 51.796875 
Q 16.75 56 26.8125 56 
Q 31.78125 56 36.171875 55.265625 
Q 40.578125 54.546875 44.28125 53.078125 
z
" id="DejaVuSans-115"/>
      <path d="M 56.203125 29.59375 
L 56.203125 25.203125 
L 14.890625 25.203125 
Q 15.484375 15.921875 20.484375 11.0625 
Q 25.484375 6.203125 34.421875 6.203125 
Q 39.59375 6.203125 44.453125 7.46875 
Q 49.3125 8.734375 54.109375 11.28125 
L 54.109375 2.78125 
Q 49.265625 0.734375 44.1875 -0.34375 
Q 39.109375 -1.421875 33.890625 -1.421875 
Q 20.796875 -1.421875 13.15625 6.1875 
Q 5.515625 13.8125 5.515625 26.8125 
Q 5.515625 40.234375 12.765625 48.109375 
Q 20.015625 56 32.328125 56 
Q 43.359375 56 49.78125 48.890625 
Q 56.203125 41.796875 56.203125 29.59375 
z
M 47.21875 32.234375 
Q 47.125 39.59375 43.09375 43.984375 
Q 39.0625 48.390625 32.421875 48.390625 
Q 24.90625 48.390625 20.390625 44.140625 
Q 15.875 39.890625 15.1875 32.171875 
z
" id="DejaVuSans-101"/>
      <path d="M 50.984375 -16.609375 
L 50.984375 -23.578125 
L -0.984375 -23.578125 
L -0.984375 -16.609375 
z
" id="DejaVuSans-95"/>
      <path d="M 12.40625 8.296875 
L 28.515625 8.296875 
L 28.515625 63.921875 
L 10.984375 60.40625 
L 10.984375 69.390625 
L 28.421875 72.90625 
L 38.28125 72.90625 
L 38.28125 8.296875 
L 54.390625 8.296875 
L 54.390625 0 
L 12.40625 0 
z
" id="DejaVuSans-49"/>
     </defs>
     <g transform="translate(476.317813 59.237813)scale(0.14 -0.14)">
      <use xlink:href="#DejaVuSans-98"/>
      <use x="63.476562" xlink:href="#DejaVuSans-97"/>
      <use x="124.755859" xlink:href="#DejaVuSans-115"/>
      <use x="176.855469" xlink:href="#DejaVuSans-101"/>
      <use x="238.378906" xlink:href="#DejaVuSans-95"/>
      <use x="288.378906" xlink:href="#DejaVuSans-49"/>
     </g>
    </g>
    <g id="patch_6">
     <path d="M 437.117813 80.176563 
L 465.117813 80.176563 
L 465.117813 70.376563 
L 437.117813 70.376563 
z
" style="fill:#36a2eb;opacity:0.5;stroke:#36a2eb;stroke-linejoin:miter;"/>
    </g>
    <g id="text_2">
     <!-- base_2 -->
     <defs>
      <path d="M 19.1875 8.296875 
L 53.609375 8.296875 
L 53.609375 0 
L 7.328125 0 
L 7.328125 8.296875 
Q 12.9375 14.109375 22.625 23.890625 
Q 32.328125 33.6875 34.8125 36.53125 
Q 39.546875 41.84375 41.421875 45.53125 
Q 43.3125 49.21875 43.3125 52.78125 
Q 43.3125 58.59375 39.234375 62.25 
Q 35.15625 65.921875 28.609375 65.921875 
Q 23.96875 65.921875 18.8125 64.3125 
Q 13.671875 62.703125 7.8125 59.421875 
L 7.8125 69.390625 
Q 13.765625 71.78125 18.9375 73 
Q 24.125 74.21875 28.421875 74.21875 
Q 39.75 74.21875 46.484375 68.546875 
Q 53.21875 62.890625 53.21875 53.421875 
Q 53.21875 48.921875 51.53125 44.890625 
Q 49.859375 40.875 45.40625 35.40625 
Q 44.1875 33.984375 37.640625 27.21875 
Q 31.109375 20.453125 19.1875 8.296875 
z
" id="DejaVuSans-50"/>
     </defs>
     <g transform="translate(476.317813 80.176563)scale(0.14 -0.14)">
      <use xlink:href="#DejaVuSans-98"/>
      <use x="63.476562" xlink:href="#DejaVuSans-97"/>
      <use x="124.755859" xlink:href="#DejaVuSans-115"/>
      <use x="176.855469" xlink:href="#DejaVuSans-101"/>
      <use x="238.378906" xlink:href="#DejaVuSans-95"/>
      <use x="288.378906" xlink:href="#DejaVuSans-50"/>
     </g>
    </g>
    <g id="patch_7">
     <path d="M 437.117813 101.115313 
L 465.117813 101.115313 
L 465.117813 91.315313 
L 437.117813 91.315313 
z
" style="fill:#4bc0c0;opacity:0.5;stroke:#4bc0c0;stroke-linejoin:miter;"/>
    </g>
    <g id="text_3">
     <!-- new -->
     <defs>
      <path d="M 54.890625 33.015625 
L 54.890625 0 
L 45.90625 0 
L 45.90625 32.71875 
Q 45.90625 40.484375 42.875 44.328125 
Q 39.84375 48.1875 33.796875 48.1875 
Q 26.515625 48.1875 22.3125 43.546875 
Q 18.109375 38.921875 18.109375 30.90625 
L 18.109375 0 
L 9.078125 0 
L 9.078125 54.6875 
L 18.109375 54.6875 
L 18.109375 46.1875 
Q 21.34375 51.125 25.703125 53.5625 
Q 30.078125 56 35.796875 56 
Q 45.21875 56 50.046875 50.171875 
Q 54.890625 44.34375 54.890625 33.015625 
z
" id="DejaVuSans-110"/>
      <path d="M 4.203125 54.6875 
L 13.1875 54.6875 
L 24.421875 12.015625 
L 35.59375 54.6875 
L 46.1875 54.6875 
L 57.421875 12.015625 
L 68.609375 54.6875 
L 77.59375 54.6875 
L 63.28125 0 
L 52.6875 0 
L 40.921875 44.828125 
L 29.109375 0 
L 18.5 0 
z
" id="DejaVuSans-119"/>
     </defs>
     <g transform="translate(476.317813 101.115313)scale(0.14 -0.14)">
      <use xlink:href="#DejaVuSans-110"/>
      <use x="63.378906" xlink:href="#DejaVuSans-101"/>
      <use x="124.902344" xlink:href="#DejaVuSans-119"/>
     </g>
    </g>
   </g>
  </g>
  <g id="axes_2">
   <g id="patch_8">
    <path d="M 36 525.24 
L 538.2 525.24 
L 538.2 402.93 
L 36 402.93 
z
" style="fill:none;"/>
   </g>
   <g id="patch_9">
    <path clip-path="url(#p69a5705fc4)" d="M 160.389642 519.680455 
L 355.548703 519.680455 
L 355.548703 497.442273 
L 160.389642 497.442273 
z
" style="fill:#ff6384;opacity:0.5;"/>
   </g>
   <g id="patch_10">
    <path clip-path="url(#p69a5705fc4)" d="M 225.720009 475.204091 
L 416.22985 475.204091 
L 416.22985 452.965909 
L 225.720009 452.965909 
z
" style="fill:#36a2eb;opacity:0.5;"/>
   </g>
   <g id="patch_11">
    <path clip-path="url(#p69a5705fc4)" d="M 179.119367 430.727727 
L 366.025085 430.727727 
L 366.025085 408.489545 
L 179.119367 408.489545 
z
" style="fill:#4bc0c0;opacity:0.5;"/>
   </g>
   <g id="matplotlib.axis_1">
    <g id="xtick_1">
     <g id="line2d_4">
      <defs>
       <path d="M 0 0 
L 0 3.5 
" id="m3ed637fc23" style="stroke:#000000;stroke-width:0.8;"/>
      </defs>
      <g>
       <use style="stroke:#000000;stroke-width:0.8;" x="76.072896" xlink:href="#m3ed637fc23" y="525.24"/>
      </g>
     </g>
     <g id="text_4">
      <!-- 17.0 -->
      <defs>
       <path d="M 8.203125 72.90625 
L 55.078125 72.90625 
L 55.078125 68.703125 
L 28.609375 0 
L 18.3125 0 
L 43.21875 64.59375 
L 8.203125 64.59375 
z
" id="DejaVuSans-55"/>
       <path d="M 10.6875 12.40625 
L 21 12.40625 
L 21 0 
L 10.6875 0 
z
" id="DejaVuSans-46"/>
       <path d="M 31.78125 66.40625 
Q 24.171875 66.40625 20.328125 58.90625 
Q 16.5 51.421875 16.5 36.375 
Q 16.5 21.390625 20.328125 13.890625 
Q 24.171875 6.390625 31.78125 6.390625 
Q 39.453125 6.390625 43.28125 13.890625 
Q 47.125 21.390625 47.125 36.375 
Q 47.125 51.421875 43.28125 58.90625 
Q 39.453125 66.40625 31.78125 66.40625 
z
M 31.78125 74.21875 
Q 44.046875 74.21875 50.515625 64.515625 
Q 56.984375 54.828125 56.984375 36.375 
Q 56.984375 17.96875 50.515625 8.265625 
Q 44.046875 -1.421875 31.78125 -1.421875 
Q 19.53125 -1.421875 13.0625 8.265625 
Q 6.59375 17.96875 6.59375 36.375 
Q 6.59375 54.828125 13.0625 64.515625 
Q 19.53125 74.21875 31.78125 74.21875 
z
" id="DejaVuSans-48"/>
      </defs>
      <g transform="translate(60.486958 542.877813)scale(0.14 -0.14)">
       <use xlink:href="#DejaVuSans-49"/>
       <use x="63.623047" xlink:href="#DejaVuSans-55"/>
       <use x="127.246094" xlink:href="#DejaVuSans-46"/>
       <use x="159.033203" xlink:href="#DejaVuSans-48"/>
      </g>
     </g>
    </g>
    <g id="xtick_2">
     <g id="line2d_5">
      <g>
       <use style="stroke:#000000;stroke-width:0.8;" x="176.368593" xlink:href="#m3ed637fc23" y="525.24"/>
      </g>
     </g>
     <g id="text_5">
      <!-- 17.5 -->
      <defs>
       <path d="M 10.796875 72.90625 
L 49.515625 72.90625 
L 49.515625 64.59375 
L 19.828125 64.59375 
L 19.828125 46.734375 
Q 21.96875 47.46875 24.109375 47.828125 
Q 26.265625 48.1875 28.421875 48.1875 
Q 40.625 48.1875 47.75 41.5 
Q 54.890625 34.8125 54.890625 23.390625 
Q 54.890625 11.625 47.5625 5.09375 
Q 40.234375 -1.421875 26.90625 -1.421875 
Q 22.3125 -1.421875 17.546875 -0.640625 
Q 12.796875 0.140625 7.71875 1.703125 
L 7.71875 11.625 
Q 12.109375 9.234375 16.796875 8.0625 
Q 21.484375 6.890625 26.703125 6.890625 
Q 35.15625 6.890625 40.078125 11.328125 
Q 45.015625 15.765625 45.015625 23.390625 
Q 45.015625 31 40.078125 35.4375 
Q 35.15625 39.890625 26.703125 39.890625 
Q 22.75 39.890625 18.8125 39.015625 
Q 14.890625 38.140625 10.796875 36.28125 
z
" id="DejaVuSans-53"/>
      </defs>
      <g transform="translate(160.782656 542.877813)scale(0.14 -0.14)">
       <use xlink:href="#DejaVuSans-49"/>
       <use x="63.623047" xlink:href="#DejaVuSans-55"/>
       <use x="127.246094" xlink:href="#DejaVuSans-46"/>
       <use x="159.033203" xlink:href="#DejaVuSans-53"/>
      </g>
     </g>
    </g>
    <g id="xtick_3">
     <g id="line2d_6">
      <g>
       <use style="stroke:#000000;stroke-width:0.8;" x="276.664291" xlink:href="#m3ed637fc23" y="525.24"/>
      </g>
     </g>
     <g id="text_6">
      <!-- 18.0 -->
      <defs>
       <path d="M 31.78125 34.625 
Q 24.75 34.625 20.71875 30.859375 
Q 16.703125 27.09375 16.703125 20.515625 
Q 16.703125 13.921875 20.71875 10.15625 
Q 24.75 6.390625 31.78125 6.390625 
Q 38.8125 6.390625 42.859375 10.171875 
Q 46.921875 13.96875 46.921875 20.515625 
Q 46.921875 27.09375 42.890625 30.859375 
Q 38.875 34.625 31.78125 34.625 
z
M 21.921875 38.8125 
Q 15.578125 40.375 12.03125 44.71875 
Q 8.5 49.078125 8.5 55.328125 
Q 8.5 64.0625 14.71875 69.140625 
Q 20.953125 74.21875 31.78125 74.21875 
Q 42.671875 74.21875 48.875 69.140625 
Q 55.078125 64.0625 55.078125 55.328125 
Q 55.078125 49.078125 51.53125 44.71875 
Q 48 40.375 41.703125 38.8125 
Q 48.828125 37.15625 52.796875 32.3125 
Q 56.78125 27.484375 56.78125 20.515625 
Q 56.78125 9.90625 50.3125 4.234375 
Q 43.84375 -1.421875 31.78125 -1.421875 
Q 19.734375 -1.421875 13.25 4.234375 
Q 6.78125 9.90625 6.78125 20.515625 
Q 6.78125 27.484375 10.78125 32.3125 
Q 14.796875 37.15625 21.921875 38.8125 
z
M 18.3125 54.390625 
Q 18.3125 48.734375 21.84375 45.5625 
Q 25.390625 42.390625 31.78125 42.390625 
Q 38.140625 42.390625 41.71875 45.5625 
Q 45.3125 48.734375 45.3125 54.390625 
Q 45.3125 60.0625 41.71875 63.234375 
Q 38.140625 66.40625 31.78125 66.40625 
Q 25.390625 66.40625 21.84375 63.234375 
Q 18.3125 60.0625 18.3125 54.390625 
z
" id="DejaVuSans-56"/>
      </defs>
      <g transform="translate(261.078353 542.877813)scale(0.14 -0.14)">
       <use xlink:href="#DejaVuSans-49"/>
       <use x="63.623047" xlink:href="#DejaVuSans-56"/>
       <use x="127.246094" xlink:href="#DejaVuSans-46"/>
       <use x="159.033203" xlink:href="#DejaVuSans-48"/>
      </g>
     </g>
    </g>
    <g id="xtick_4">
     <g id="line2d_7">
      <g>
       <use style="stroke:#000000;stroke-width:0.8;" x="376.959988" xlink:href="#m3ed637fc23" y="525.24"/>
      </g>
     </g>
     <g id="text_7">
      <!-- 18.5 -->
      <g transform="translate(361.37405 542.877813)scale(0.14 -0.14)">
       <use xlink:href="#DejaVuSans-49"/>
       <use x="63.623047" xlink:href="#DejaVuSans-56"/>
       <use x="127.246094" xlink:href="#DejaVuSans-46"/>
       <use x="159.033203" xlink:href="#DejaVuSans-53"/>
      </g>
     </g>
    </g>
    <g id="xtick_5">
     <g id="line2d_8">
      <g>
       <use style="stroke:#000000;stroke-width:0.8;" x="477.255685" xlink:href="#m3ed637fc23" y="525.24"/>
      </g>
     </g>
     <g id="text_8">
      <!-- 19.0 -->
      <defs>
       <path d="M 10.984375 1.515625 
L 10.984375 10.5 
Q 14.703125 8.734375 18.5 7.8125 
Q 22.3125 6.890625 25.984375 6.890625 
Q 35.75 6.890625 40.890625 13.453125 
Q 46.046875 20.015625 46.78125 33.40625 
Q 43.953125 29.203125 39.59375 26.953125 
Q 35.25 24.703125 29.984375 24.703125 
Q 19.046875 24.703125 12.671875 31.3125 
Q 6.296875 37.9375 6.296875 49.421875 
Q 6.296875 60.640625 12.9375 67.421875 
Q 19.578125 74.21875 30.609375 74.21875 
Q 43.265625 74.21875 49.921875 64.515625 
Q 56.59375 54.828125 56.59375 36.375 
Q 56.59375 19.140625 48.40625 8.859375 
Q 40.234375 -1.421875 26.421875 -1.421875 
Q 22.703125 -1.421875 18.890625 -0.6875 
Q 15.09375 0.046875 10.984375 1.515625 
z
M 30.609375 32.421875 
Q 37.25 32.421875 41.125 36.953125 
Q 45.015625 41.5 45.015625 49.421875 
Q 45.015625 57.28125 41.125 61.84375 
Q 37.25 66.40625 30.609375 66.40625 
Q 23.96875 66.40625 20.09375 61.84375 
Q 16.21875 57.28125 16.21875 49.421875 
Q 16.21875 41.5 20.09375 36.953125 
Q 23.96875 32.421875 30.609375 32.421875 
z
" id="DejaVuSans-57"/>
      </defs>
      <g transform="translate(461.669748 542.877813)scale(0.14 -0.14)">
       <use xlink:href="#DejaVuSans-49"/>
       <use x="63.623047" xlink:href="#DejaVuSans-57"/>
       <use x="127.246094" xlink:href="#DejaVuSans-46"/>
       <use x="159.033203" xlink:href="#DejaVuSans-48"/>
      </g>
     </g>
    </g>
   </g>
   <g id="line2d_9">
    <path clip-path="url(#p69a5705fc4)" d="M 257.969172 525.24 
L 257.969172 402.93 
" style="fill:none;stroke:#ff6384;stroke-dasharray:5.55,2.4;stroke-dashoffset:0;stroke-opacity:0.8;stroke-width:1.5;"/>
   </g>
   <g id="line2d_10">
    <path clip-path="url(#p69a5705fc4)" d="M 320.97493 525.24 
L 320.97493 402.93 
" style="fill:none;stroke:#36a2eb;stroke-dasharray:5.55,2.4;stroke-dashoffset:0;stroke-opacity:0.8;stroke-width:1.5;"/>
   </g>
   <g id="line2d_11">
    <path clip-path="url(#p69a5705fc4)" d="M 272.572226 525.24 
L 272.572226 402.93 
" style="fill:none;stroke:#4bc0c0;stroke-dasharray:5.55,2.4;stroke-dashoffset:0;stroke-opacity:0.8;stroke-width:1.5;"/>
   </g>
   <g id="patch_12">
    <path d="M 36 525.24 
L 538.2 525.24 
" style="fill:none;stroke:#000000;stroke-linecap:square;stroke-linejoin:miter;stroke-width:0.8;"/>
   </g>
  </g>
 </g>
 <defs>
  <clipPath id="p363661f647">
   <rect height="366.93" width="502.2" x="36" y="36"/>
  </clipPath>
  <clipPath id="p69a5705fc4">
   <rect height="122.31" width="502.2" x="36" y="402.93"/>
  </clipPath>
 </defs>
</svg>
