<?xml version="1.0" encoding="utf-8" standalone="no"?>
<!DOCTYPE svg PUBLIC "-//W3C//DTD SVG 1.1//EN"
  "http://www.w3.org/Graphics/SVG/1.1/DTD/svg11.dtd">
<!-- Created with matplotlib (https://matplotlib.org/) -->
<svg height="581.789375pt" version="1.1" viewBox="0 0 574.2 581.789375" width="574.2pt" xmlns="http://www.w3.org/2000/svg" xmlns:xlink="http://www.w3.org/1999/xlink">
 <defs>
  <style type="text/css">
*{stroke-linecap:butt;stroke-linejoin:round;}
  </style>
 </defs>
 <g id="figure_1">
  <g id="patch_1">
   <path d="M 0 581.789375 
L 574.2 581.789375 
L 574.2 0 
L 0 0 
z
" style="fill:none;"/>
  </g>
  <g id="axes_1">
   <g id="patch_2">
    <path d="M 36 402.93 
L 538.2 402.93 
L 538.2 36 
L 36 36 
z
" style="fill:none;"/>
   </g>
   <g id="PolyCollection_1">
    <defs>
     <path d="M 58.827273 -195.538011 
L 58.827273 -195.625031 
L 63.295191 -195.657845 
L 67.763109 -195.701958 
L 72.231028 -195.76085 
L 76.698946 -195.838926 
L 81.166864 -195.941712 
L 85.634783 -196.076083 
L 90.102701 -196.250511 
L 94.57062 -196.475342 
L 99.038538 -196.763095 
L 103.506456 -197.128763 
L 107.974375 -197.590134 
L 112.442293 -198.168087 
L 116.910211 -198.886873 
L 121.37813 -199.774347 
L 125.846048 -200.862128 
L 130.313966 -202.185671 
L 134.781885 -203.784217 
L 139.249803 -205.700582 
L 143.717721 -207.980781 
L 148.18564 -210.673438 
L 152.653558 -213.828964 
L 157.121476 -217.498504 
L 161.589395 -221.732619 
L 166.057313 -226.579733 
L 170.525231 -232.084343 
L 174.99315 -238.285033 
L 179.461068 -245.21234 
L 183.928987 -252.886534 
L 188.396905 -261.315387 
L 192.864823 -270.492032 
L 197.332742 -280.393005 
L 201.80066 -290.976588 
L 206.268578 -302.181559 
L 210.736497 -313.926451 
L 215.204415 -326.10942 
L 219.672333 -338.608797 
L 224.140252 -351.284375 
L 228.60817 -363.979453 
L 233.076088 -376.523629 
L 237.544007 -388.736292 
L 242.011925 -400.430734 
L 246.479843 -411.418747 
L 250.947762 -421.515577 
L 255.41568 -430.545035 
L 259.883599 -438.344585 
L 264.351517 -444.770192 
L 268.819435 -449.700747 
L 273.287354 -453.041855 
L 277.755272 -454.728843 
L 282.22319 -454.728843 
L 286.691109 -453.041855 
L 291.159027 -449.700747 
L 295.626945 -444.770192 
L 300.094864 -438.344585 
L 304.562782 -430.545035 
L 309.0307 -421.515577 
L 313.498619 -411.418747 
L 317.966537 -400.430734 
L 322.434455 -388.736292 
L 326.902374 -376.523629 
L 331.370292 -363.979453 
L 335.83821 -351.284375 
L 340.306129 -338.608797 
L 344.774047 -326.10942 
L 349.241966 -313.926451 
L 353.709884 -302.181559 
L 358.177802 -290.976588 
L 362.645721 -280.393005 
L 367.113639 -270.492032 
L 371.581557 -261.315387 
L 376.049476 -252.886534 
L 380.517394 -245.21234 
L 384.985312 -238.285033 
L 389.453231 -232.084343 
L 393.921149 -226.579733 
L 398.389067 -221.732619 
L 402.856986 -217.498504 
L 407.324904 -213.828964 
L 411.792822 -210.673438 
L 416.260741 -207.980781 
L 420.728659 -205.700582 
L 425.196577 -203.784217 
L 429.664496 -202.185671 
L 434.132414 -200.862128 
L 438.600333 -199.774347 
L 443.068251 -198.886873 
L 447.536169 -198.168087 
L 452.004088 -197.590134 
L 456.472006 -197.128763 
L 460.939924 -196.763095 
L 465.407843 -196.475342 
L 469.875761 -196.250511 
L 474.343679 -196.076083 
L 478.811598 -195.941712 
L 483.279516 -195.838926 
L 487.747434 -195.76085 
L 492.215353 -195.701958 
L 496.683271 -195.657845 
L 501.151189 -195.625031 
L 501.151189 -195.538011 
L 501.151189 -195.538011 
L 496.683271 -195.538011 
L 492.215353 -195.538011 
L 487.747434 -195.538011 
L 483.279516 -195.538011 
L 478.811598 -195.538011 
L 474.343679 -195.538011 
L 469.875761 -195.538011 
L 465.407843 -195.538011 
L 460.939924 -195.538011 
L 456.472006 -195.538011 
L 452.004088 -195.538011 
L 447.536169 -195.538011 
L 443.068251 -195.538011 
L 438.600333 -195.538011 
L 434.132414 -195.538011 
L 429.664496 -195.538011 
L 425.196577 -195.538011 
L 420.728659 -195.538011 
L 416.260741 -195.538011 
L 411.792822 -195.538011 
L 407.324904 -195.538011 
L 402.856986 -195.538011 
L 398.389067 -195.538011 
L 393.921149 -195.538011 
L 389.453231 -195.538011 
L 384.985312 -195.538011 
L 380.517394 -195.538011 
L 376.049476 -195.538011 
L 371.581557 -195.538011 
L 367.113639 -195.538011 
L 362.645721 -195.538011 
L 358.177802 -195.538011 
L 353.709884 -195.538011 
L 349.241966 -195.538011 
L 344.774047 -195.538011 
L 340.306129 -195.538011 
L 335.83821 -195.538011 
L 331.370292 -195.538011 
L 326.902374 -195.538011 
L 322.434455 -195.538011 
L 317.966537 -195.538011 
L 313.498619 -195.538011 
L 309.0307 -195.538011 
L 304.562782 -195.538011 
L 300.094864 -195.538011 
L 295.626945 -195.538011 
L 291.159027 -195.538011 
L 286.691109 -195.538011 
L 282.22319 -195.538011 
L 277.755272 -195.538011 
L 273.287354 -195.538011 
L 268.819435 -195.538011 
L 264.351517 -195.538011 
L 259.883599 -195.538011 
L 255.41568 -195.538011 
L 250.947762 -195.538011 
L 246.479843 -195.538011 
L 242.011925 -195.538011 
L 237.544007 -195.538011 
L 233.076088 -195.538011 
L 228.60817 -195.538011 
L 224.140252 -195.538011 
L 219.672333 -195.538011 
L 215.204415 -195.538011 
L 210.736497 -195.538011 
L 206.268578 -195.538011 
L 201.80066 -195.538011 
L 197.332742 -195.538011 
L 192.864823 -195.538011 
L 188.396905 -195.538011 
L 183.928987 -195.538011 
L 179.461068 -195.538011 
L 174.99315 -195.538011 
L 170.525231 -195.538011 
L 166.057313 -195.538011 
L 161.589395 -195.538011 
L 157.121476 -195.538011 
L 152.653558 -195.538011 
L 148.18564 -195.538011 
L 143.717721 -195.538011 
L 139.249803 -195.538011 
L 134.781885 -195.538011 
L 130.313966 -195.538011 
L 125.846048 -195.538011 
L 121.37813 -195.538011 
L 116.910211 -195.538011 
L 112.442293 -195.538011 
L 107.974375 -195.538011 
L 103.506456 -195.538011 
L 99.038538 -195.538011 
L 94.57062 -195.538011 
L 90.102701 -195.538011 
L 85.634783 -195.538011 
L 81.166864 -195.538011 
L 76.698946 -195.538011 
L 72.231028 -195.538011 
L 67.763109 -195.538011 
L 63.295191 -195.538011 
L 58.827273 -195.538011 
z
" id="m993818a85d" style="stroke:#ff6384;stroke-opacity:0.5;"/>
    </defs>
    <g clip-path="url(#pab01ffa012)">
     <use style="fill:#ff6384;fill-opacity:0.5;stroke:#ff6384;stroke-opacity:0.5;" x="0" xlink:href="#m993818a85d" y="581.789375"/>
    </g>
   </g>
   <g id="PolyCollection_2">
    <defs>
     <path d="M 166.71135 -195.538011 
L 166.71135 -195.648408 
L 170.233182 -195.690036 
L 173.755014 -195.746 
L 177.276846 -195.820712 
L 180.798678 -195.919762 
L 184.32051 -196.05016 
L 187.842342 -196.220627 
L 191.364174 -196.441912 
L 194.886006 -196.727142 
L 198.407839 -197.092195 
L 201.929671 -197.556094 
L 205.451503 -198.141405 
L 208.973335 -198.874617 
L 212.495167 -199.786494 
L 216.016999 -200.912374 
L 219.538831 -202.29237 
L 223.060663 -203.971464 
L 226.582495 -205.999434 
L 230.104327 -208.430601 
L 233.62616 -211.323341 
L 237.147992 -214.739338 
L 240.669824 -218.742548 
L 244.191656 -223.397854 
L 247.713488 -228.769399 
L 251.23532 -234.918616 
L 254.757152 -241.901955 
L 258.278984 -249.768365 
L 261.800816 -258.556588 
L 265.322648 -268.292336 
L 268.84448 -278.985472 
L 272.366313 -290.627281 
L 275.888145 -303.187999 
L 279.409977 -316.6147 
L 282.931809 -330.829715 
L 286.453641 -345.729692 
L 289.975473 -361.185429 
L 293.497305 -377.042572 
L 297.019137 -393.12325 
L 300.540969 -409.228666 
L 304.062801 -425.142643 
L 307.584634 -440.636052 
L 311.106466 -455.472026 
L 314.628298 -469.4118 
L 318.15013 -482.220989 
L 321.671962 -493.676073 
L 325.193794 -503.570852 
L 328.715626 -511.722601 
L 332.237458 -517.977673 
L 335.75929 -522.216318 
L 339.281122 -524.35649 
L 342.802955 -524.35649 
L 346.324787 -522.216318 
L 349.846619 -517.977673 
L 353.368451 -511.722601 
L 356.890283 -503.570852 
L 360.412115 -493.676073 
L 363.933947 -482.220989 
L 367.455779 -469.4118 
L 370.977611 -455.472026 
L 374.499443 -440.636052 
L 378.021275 -425.142643 
L 381.543108 -409.228666 
L 385.06494 -393.12325 
L 388.586772 -377.042572 
L 392.108604 -361.185429 
L 395.630436 -345.729692 
L 399.152268 -330.829715 
L 402.6741 -316.6147 
L 406.195932 -303.187999 
L 409.717764 -290.627281 
L 413.239596 -278.985472 
L 416.761429 -268.292336 
L 420.283261 -258.556588 
L 423.805093 -249.768365 
L 427.326925 -241.901955 
L 430.848757 -234.918616 
L 434.370589 -228.769399 
L 437.892421 -223.397854 
L 441.414253 -218.742548 
L 444.936085 -214.739338 
L 448.457917 -211.323341 
L 451.97975 -208.430601 
L 455.501582 -205.999434 
L 459.023414 -203.971464 
L 462.545246 -202.29237 
L 466.067078 -200.912374 
L 469.58891 -199.786494 
L 473.110742 -198.874617 
L 476.632574 -198.141405 
L 480.154406 -197.556094 
L 483.676238 -197.092195 
L 487.19807 -196.727142 
L 490.719903 -196.441912 
L 494.241735 -196.220627 
L 497.763567 -196.05016 
L 501.285399 -195.919762 
L 504.807231 -195.820712 
L 508.329063 -195.746 
L 511.850895 -195.690036 
L 515.372727 -195.648408 
L 515.372727 -195.538011 
L 515.372727 -195.538011 
L 511.850895 -195.538011 
L 508.329063 -195.538011 
L 504.807231 -195.538011 
L 501.285399 -195.538011 
L 497.763567 -195.538011 
L 494.241735 -195.538011 
L 490.719903 -195.538011 
L 487.19807 -195.538011 
L 483.676238 -195.538011 
L 480.154406 -195.538011 
L 476.632574 -195.538011 
L 473.110742 -195.538011 
L 469.58891 -195.538011 
L 466.067078 -195.538011 
L 462.545246 -195.538011 
L 459.023414 -195.538011 
L 455.501582 -195.538011 
L 451.97975 -195.538011 
L 448.457917 -195.538011 
L 444.936085 -195.538011 
L 441.414253 -195.538011 
L 437.892421 -195.538011 
L 434.370589 -195.538011 
L 430.848757 -195.538011 
L 427.326925 -195.538011 
L 423.805093 -195.538011 
L 420.283261 -195.538011 
L 416.761429 -195.538011 
L 413.239596 -195.538011 
L 409.717764 -195.538011 
L 406.195932 -195.538011 
L 402.6741 -195.538011 
L 399.152268 -195.538011 
L 395.630436 -195.538011 
L 392.108604 -195.538011 
L 388.586772 -195.538011 
L 385.06494 -195.538011 
L 381.543108 -195.538011 
L 378.021275 -195.538011 
L 374.499443 -195.538011 
L 370.977611 -195.538011 
L 367.455779 -195.538011 
L 363.933947 -195.538011 
L 360.412115 -195.538011 
L 356.890283 -195.538011 
L 353.368451 -195.538011 
L 349.846619 -195.538011 
L 346.324787 -195.538011 
L 342.802955 -195.538011 
L 339.281122 -195.538011 
L 335.75929 -195.538011 
L 332.237458 -195.538011 
L 328.715626 -195.538011 
L 325.193794 -195.538011 
L 321.671962 -195.538011 
L 318.15013 -195.538011 
L 314.628298 -195.538011 
L 311.106466 -195.538011 
L 307.584634 -195.538011 
L 304.062801 -195.538011 
L 300.540969 -195.538011 
L 297.019137 -195.538011 
L 293.497305 -195.538011 
L 289.975473 -195.538011 
L 286.453641 -195.538011 
L 282.931809 -195.538011 
L 279.409977 -195.538011 
L 275.888145 -195.538011 
L 272.366313 -195.538011 
L 268.84448 -195.538011 
L 265.322648 -195.538011 
L 261.800816 -195.538011 
L 258.278984 -195.538011 
L 254.757152 -195.538011 
L 251.23532 -195.538011 
L 247.713488 -195.538011 
L 244.191656 -195.538011 
L 240.669824 -195.538011 
L 237.147992 -195.538011 
L 233.62616 -195.538011 
L 230.104327 -195.538011 
L 226.582495 -195.538011 
L 223.060663 -195.538011 
L 219.538831 -195.538011 
L 216.016999 -195.538011 
L 212.495167 -195.538011 
L 208.973335 -195.538011 
L 205.451503 -195.538011 
L 201.929671 -195.538011 
L 198.407839 -195.538011 
L 194.886006 -195.538011 
L 191.364174 -195.538011 
L 187.842342 -195.538011 
L 184.32051 -195.538011 
L 180.798678 -195.538011 
L 177.276846 -195.538011 
L 173.755014 -195.538011 
L 170.233182 -195.538011 
L 166.71135 -195.538011 
z
" id="ma1965f9776" style="stroke:#36a2eb;stroke-opacity:0.5;"/>
    </defs>
    <g clip-path="url(#pab01ffa012)">
     <use style="fill:#36a2eb;fill-opacity:0.5;stroke:#36a2eb;stroke-opacity:0.5;" x="0" xlink:href="#ma1965f9776" y="581.789375"/>
    </g>
   </g>
   <g id="PolyCollection_3">
    <defs>
     <path d="M 113.727868 -195.538011 
L 113.727868 -195.650004 
L 117.199505 -195.692234 
L 120.671142 -195.749007 
L 124.142779 -195.8248 
L 127.614416 -195.925281 
L 131.086053 -196.057565 
L 134.557691 -196.230497 
L 138.029328 -196.454982 
L 141.500965 -196.744335 
L 144.972602 -197.114666 
L 148.444239 -197.585273 
L 151.915876 -198.179047 
L 155.387513 -198.922859 
L 158.859151 -199.847921 
L 162.330788 -200.990079 
L 165.802425 -202.390029 
L 169.274062 -204.093399 
L 172.745699 -206.150691 
L 176.217336 -208.617009 
L 179.688973 -211.551575 
L 183.160611 -215.016962 
L 186.632248 -219.078053 
L 190.103885 -223.800667 
L 193.575522 -229.249878 
L 197.047159 -235.488004 
L 200.518796 -242.572312 
L 203.990433 -250.552459 
L 207.462071 -259.467747 
L 210.933708 -269.344261 
L 214.405345 -280.192004 
L 217.876982 -292.002137 
L 221.348619 -304.744465 
L 224.820256 -318.365297 
L 228.291894 -332.785841 
L 231.763531 -347.901251 
L 235.235168 -363.580456 
L 238.706805 -379.666871 
L 242.178442 -395.980052 
L 245.650079 -412.31833 
L 249.121716 -428.4624 
L 252.593354 -444.179822 
L 256.064991 -459.230303 
L 259.536628 -473.371627 
L 263.008265 -486.366018 
L 266.479902 -497.986726 
L 269.951539 -508.02457 
L 273.423176 -516.294181 
L 276.894814 -522.639693 
L 280.366451 -526.939623 
L 283.838088 -529.110739 
L 287.309725 -529.110739 
L 290.781362 -526.939623 
L 294.252999 -522.639693 
L 297.724637 -516.294181 
L 301.196274 -508.02457 
L 304.667911 -497.986726 
L 308.139548 -486.366018 
L 311.611185 -473.371627 
L 315.082822 -459.230303 
L 318.554459 -444.179822 
L 322.026097 -428.4624 
L 325.497734 -412.31833 
L 328.969371 -395.980052 
L 332.441008 -379.666871 
L 335.912645 -363.580456 
L 339.384282 -347.901251 
L 342.855919 -332.785841 
L 346.327557 -318.365297 
L 349.799194 -304.744465 
L 353.270831 -292.002137 
L 356.742468 -280.192004 
L 360.214105 -269.344261 
L 363.685742 -259.467747 
L 367.157379 -250.552459 
L 370.629017 -242.572312 
L 374.100654 -235.488004 
L 377.572291 -229.249878 
L 381.043928 -223.800667 
L 384.515565 -219.078053 
L 387.987202 -215.016962 
L 391.45884 -211.551575 
L 394.930477 -208.617009 
L 398.402114 -206.150691 
L 401.873751 -204.093399 
L 405.345388 -202.390029 
L 408.817025 -200.990079 
L 412.288662 -199.847921 
L 415.7603 -198.922859 
L 419.231937 -198.179047 
L 422.703574 -197.585273 
L 426.175211 -197.114666 
L 429.646848 -196.744335 
L 433.118485 -196.454982 
L 436.590122 -196.230497 
L 440.06176 -196.057565 
L 443.533397 -195.925281 
L 447.005034 -195.8248 
L 450.476671 -195.749007 
L 453.948308 -195.692234 
L 457.419945 -195.650004 
L 457.419945 -195.538011 
L 457.419945 -195.538011 
L 453.948308 -195.538011 
L 450.476671 -195.538011 
L 447.005034 -195.538011 
L 443.533397 -195.538011 
L 440.06176 -195.538011 
L 436.590122 -195.538011 
L 433.118485 -195.538011 
L 429.646848 -195.538011 
L 426.175211 -195.538011 
L 422.703574 -195.538011 
L 419.231937 -195.538011 
L 415.7603 -195.538011 
L 412.288662 -195.538011 
L 408.817025 -195.538011 
L 405.345388 -195.538011 
L 401.873751 -195.538011 
L 398.402114 -195.538011 
L 394.930477 -195.538011 
L 391.45884 -195.538011 
L 387.987202 -195.538011 
L 384.515565 -195.538011 
L 381.043928 -195.538011 
L 377.572291 -195.538011 
L 374.100654 -195.538011 
L 370.629017 -195.538011 
L 367.157379 -195.538011 
L 363.685742 -195.538011 
L 360.214105 -195.538011 
L 356.742468 -195.538011 
L 353.270831 -195.538011 
L 349.799194 -195.538011 
L 346.327557 -195.538011 
L 342.855919 -195.538011 
L 339.384282 -195.538011 
L 335.912645 -195.538011 
L 332.441008 -195.538011 
L 328.969371 -195.538011 
L 325.497734 -195.538011 
L 322.026097 -195.538011 
L 318.554459 -195.538011 
L 315.082822 -195.538011 
L 311.611185 -195.538011 
L 308.139548 -195.538011 
L 304.667911 -195.538011 
L 301.196274 -195.538011 
L 297.724637 -195.538011 
L 294.252999 -195.538011 
L 290.781362 -195.538011 
L 287.309725 -195.538011 
L 283.838088 -195.538011 
L 280.366451 -195.538011 
L 276.894814 -195.538011 
L 273.423176 -195.538011 
L 269.951539 -195.538011 
L 266.479902 -195.538011 
L 263.008265 -195.538011 
L 259.536628 -195.538011 
L 256.064991 -195.538011 
L 252.593354 -195.538011 
L 249.121716 -195.538011 
L 245.650079 -195.538011 
L 242.178442 -195.538011 
L 238.706805 -195.538011 
L 235.235168 -195.538011 
L 231.763531 -195.538011 
L 228.291894 -195.538011 
L 224.820256 -195.538011 
L 221.348619 -195.538011 
L 217.876982 -195.538011 
L 214.405345 -195.538011 
L 210.933708 -195.538011 
L 207.462071 -195.538011 
L 203.990433 -195.538011 
L 200.518796 -195.538011 
L 197.047159 -195.538011 
L 193.575522 -195.538011 
L 190.103885 -195.538011 
L 186.632248 -195.538011 
L 183.160611 -195.538011 
L 179.688973 -195.538011 
L 176.217336 -195.538011 
L 172.745699 -195.538011 
L 169.274062 -195.538011 
L 165.802425 -195.538011 
L 162.330788 -195.538011 
L 158.859151 -195.538011 
L 155.387513 -195.538011 
L 151.915876 -195.538011 
L 148.444239 -195.538011 
L 144.972602 -195.538011 
L 141.500965 -195.538011 
L 138.029328 -195.538011 
L 134.557691 -195.538011 
L 131.086053 -195.538011 
L 127.614416 -195.538011 
L 124.142779 -195.538011 
L 120.671142 -195.538011 
L 117.199505 -195.538011 
L 113.727868 -195.538011 
z
" id="m85dbc893ea" style="stroke:#4bc0c0;stroke-opacity:0.5;"/>
    </defs>
    <g clip-path="url(#pab01ffa012)">
     <use style="fill:#4bc0c0;fill-opacity:0.5;stroke:#4bc0c0;stroke-opacity:0.5;" x="0" xlink:href="#m85dbc893ea" y="581.789375"/>
    </g>
   </g>
   <g id="line2d_1">
    <path clip-path="url(#pab01ffa012)" d="M 58.827273 386.164344 
L 63.295191 386.13153 
L 67.763109 386.087417 
L 72.231028 386.028525 
L 76.698946 385.950449 
L 81.166864 385.847663 
L 85.634783 385.713292 
L 90.102701 385.538864 
L 94.57062 385.314033 
L 99.038538 385.02628 
L 103.506456 384.660612 
L 107.974375 384.199241 
L 112.442293 383.621288 
L 116.910211 382.902502 
L 121.37813 382.015028 
L 125.846048 380.927247 
L 130.313966 379.603704 
L 134.781885 378.005158 
L 139.249803 376.088793 
L 143.717721 373.808594 
L 148.18564 371.115937 
L 152.653558 367.960411 
L 157.121476 364.290871 
L 161.589395 360.056756 
L 166.057313 355.209642 
L 170.525231 349.705032 
L 174.99315 343.504342 
L 179.461068 336.577035 
L 183.928987 328.902841 
L 188.396905 320.473988 
L 192.864823 311.297343 
L 197.332742 301.39637 
L 201.80066 290.812787 
L 206.268578 279.607816 
L 210.736497 267.862924 
L 215.204415 255.679955 
L 219.672333 243.180578 
L 224.140252 230.505 
L 228.60817 217.809922 
L 233.076088 205.265746 
L 237.544007 193.053083 
L 242.011925 181.358641 
L 246.479843 170.370628 
L 250.947762 160.273798 
L 255.41568 151.24434 
L 259.883599 143.44479 
L 264.351517 137.019183 
L 268.819435 132.088628 
L 273.287354 128.74752 
L 277.755272 127.060532 
L 282.22319 127.060532 
L 286.691109 128.74752 
L 291.159027 132.088628 
L 295.626945 137.019183 
L 300.094864 143.44479 
L 304.562782 151.24434 
L 309.0307 160.273798 
L 313.498619 170.370628 
L 317.966537 181.358641 
L 322.434455 193.053083 
L 326.902374 205.265746 
L 331.370292 217.809922 
L 335.83821 230.505 
L 340.306129 243.180578 
L 344.774047 255.679955 
L 349.241966 267.862924 
L 353.709884 279.607816 
L 358.177802 290.812787 
L 362.645721 301.39637 
L 367.113639 311.297343 
L 371.581557 320.473988 
L 376.049476 328.902841 
L 380.517394 336.577035 
L 384.985312 343.504342 
L 389.453231 349.705032 
L 393.921149 355.209642 
L 398.389067 360.056756 
L 402.856986 364.290871 
L 407.324904 367.960411 
L 411.792822 371.115937 
L 416.260741 373.808594 
L 420.728659 376.088793 
L 425.196577 378.005158 
L 429.664496 379.603704 
L 434.132414 380.927247 
L 438.600333 382.015028 
L 443.068251 382.902502 
L 447.536169 383.621288 
L 452.004088 384.199241 
L 456.472006 384.660612 
L 460.939924 385.02628 
L 465.407843 385.314033 
L 469.875761 385.538864 
L 474.343679 385.713292 
L 478.811598 385.847663 
L 483.279516 385.950449 
L 487.747434 386.028525 
L 492.215353 386.087417 
L 496.683271 386.13153 
L 501.151189 386.164344 
" style="fill:none;stroke:#ff6384;stroke-linecap:square;"/>
   </g>
   <g id="line2d_2">
    <path clip-path="url(#pab01ffa012)" d="M 166.71135 386.140967 
L 170.233182 386.099339 
L 173.755014 386.043375 
L 177.276846 385.968663 
L 180.798678 385.869613 
L 184.32051 385.739215 
L 187.842342 385.568748 
L 191.364174 385.347463 
L 194.886006 385.062233 
L 198.407839 384.69718 
L 201.929671 384.233281 
L 205.451503 383.64797 
L 208.973335 382.914758 
L 212.495167 382.002881 
L 216.016999 380.877001 
L 219.538831 379.497005 
L 223.060663 377.817911 
L 226.582495 375.789941 
L 230.104327 373.358774 
L 233.62616 370.466034 
L 237.147992 367.050037 
L 240.669824 363.046827 
L 244.191656 358.391521 
L 247.713488 353.019976 
L 251.23532 346.870759 
L 254.757152 339.88742 
L 258.278984 332.02101 
L 261.800816 323.232787 
L 265.322648 313.497039 
L 268.84448 302.803903 
L 272.366313 291.162094 
L 275.888145 278.601376 
L 279.409977 265.174675 
L 282.931809 250.95966 
L 286.453641 236.059683 
L 289.975473 220.603946 
L 293.497305 204.746803 
L 297.019137 188.666125 
L 300.540969 172.560709 
L 304.062801 156.646732 
L 307.584634 141.153323 
L 311.106466 126.317349 
L 314.628298 112.377575 
L 318.15013 99.568386 
L 321.671962 88.113302 
L 325.193794 78.218523 
L 328.715626 70.066774 
L 332.237458 63.811702 
L 335.75929 59.573057 
L 339.281122 57.432885 
L 342.802955 57.432885 
L 346.324787 59.573057 
L 349.846619 63.811702 
L 353.368451 70.066774 
L 356.890283 78.218523 
L 360.412115 88.113302 
L 363.933947 99.568386 
L 367.455779 112.377575 
L 370.977611 126.317349 
L 374.499443 141.153323 
L 378.021275 156.646732 
L 381.543108 172.560709 
L 385.06494 188.666125 
L 388.586772 204.746803 
L 392.108604 220.603946 
L 395.630436 236.059683 
L 399.152268 250.95966 
L 402.6741 265.174675 
L 406.195932 278.601376 
L 409.717764 291.162094 
L 413.239596 302.803903 
L 416.761429 313.497039 
L 420.283261 323.232787 
L 423.805093 332.02101 
L 427.326925 339.88742 
L 430.848757 346.870759 
L 434.370589 353.019976 
L 437.892421 358.391521 
L 441.414253 363.046827 
L 444.936085 367.050037 
L 448.457917 370.466034 
L 451.97975 373.358774 
L 455.501582 375.789941 
L 459.023414 377.817911 
L 462.545246 379.497005 
L 466.067078 380.877001 
L 469.58891 382.002881 
L 473.110742 382.914758 
L 476.632574 383.64797 
L 480.154406 384.233281 
L 483.676238 384.69718 
L 487.19807 385.062233 
L 490.719903 385.347463 
L 494.241735 385.568748 
L 497.763567 385.739215 
L 501.285399 385.869613 
L 504.807231 385.968663 
L 508.329063 386.043375 
L 511.850895 386.099339 
L 515.372727 386.140967 
" style="fill:none;stroke:#36a2eb;stroke-linecap:square;"/>
   </g>
   <g id="line2d_3">
    <path clip-path="url(#pab01ffa012)" d="M 113.727868 386.139371 
L 117.199505 386.097141 
L 120.671142 386.040368 
L 124.142779 385.964575 
L 127.614416 385.864094 
L 131.086053 385.73181 
L 134.557691 385.558878 
L 138.029328 385.334393 
L 141.500965 385.04504 
L 144.972602 384.674709 
L 148.444239 384.204102 
L 151.915876 383.610328 
L 155.387513 382.866516 
L 158.859151 381.941454 
L 162.330788 380.799296 
L 165.802425 379.399346 
L 169.274062 377.695976 
L 172.745699 375.638684 
L 176.217336 373.172366 
L 179.688973 370.2378 
L 183.160611 366.772413 
L 186.632248 362.711322 
L 190.103885 357.988708 
L 193.575522 352.539497 
L 197.047159 346.301371 
L 200.518796 339.217063 
L 203.990433 331.236916 
L 207.462071 322.321628 
L 210.933708 312.445114 
L 214.405345 301.597371 
L 217.876982 289.787238 
L 221.348619 277.04491 
L 224.820256 263.424078 
L 228.291894 249.003534 
L 231.763531 233.888124 
L 235.235168 218.208919 
L 238.706805 202.122504 
L 242.178442 185.809323 
L 245.650079 169.471045 
L 249.121716 153.326975 
L 252.593354 137.609553 
L 256.064991 122.559072 
L 259.536628 108.417748 
L 263.008265 95.423357 
L 266.479902 83.802649 
L 269.951539 73.764805 
L 273.423176 65.495194 
L 276.894814 59.149682 
L 280.366451 54.849752 
L 283.838088 52.678636 
L 287.309725 52.678636 
L 290.781362 54.849752 
L 294.252999 59.149682 
L 297.724637 65.495194 
L 301.196274 73.764805 
L 304.667911 83.802649 
L 308.139548 95.423357 
L 311.611185 108.417748 
L 315.082822 122.559072 
L 318.554459 137.609553 
L 322.026097 153.326975 
L 325.497734 169.471045 
L 328.969371 185.809323 
L 332.441008 202.122504 
L 335.912645 218.208919 
L 339.384282 233.888124 
L 342.855919 249.003534 
L 346.327557 263.424078 
L 349.799194 277.04491 
L 353.270831 289.787238 
L 356.742468 301.597371 
L 360.214105 312.445114 
L 363.685742 322.321628 
L 367.157379 331.236916 
L 370.629017 339.217063 
L 374.100654 346.301371 
L 377.572291 352.539497 
L 381.043928 357.988708 
L 384.515565 362.711322 
L 387.987202 366.772413 
L 391.45884 370.2378 
L 394.930477 373.172366 
L 398.402114 375.638684 
L 401.873751 377.695976 
L 405.345388 379.399346 
L 408.817025 380.799296 
L 412.288662 381.941454 
L 415.7603 382.866516 
L 419.231937 383.610328 
L 422.703574 384.204102 
L 426.175211 384.674709 
L 429.646848 385.04504 
L 433.118485 385.334393 
L 436.590122 385.558878 
L 440.06176 385.73181 
L 443.533397 385.864094 
L 447.005034 385.964575 
L 450.476671 386.040368 
L 453.948308 386.097141 
L 457.419945 386.139371 
" style="fill:none;stroke:#4bc0c0;stroke-linecap:square;"/>
   </g>
   <g id="patch_3">
    <path d="M 36 402.93 
L 538.2 402.93 
" style="fill:none;stroke:#000000;stroke-linecap:square;stroke-linejoin:miter;stroke-width:0.8;"/>
   </g>
   <g id="legend_1">
    <g id="patch_4">
     <path d="M 434.317813 109.626875 
L 528.4 109.626875 
Q 531.2 109.626875 531.2 106.826875 
L 531.2 45.8 
Q 531.2 43 528.4 43 
L 434.317813 43 
Q 431.517813 43 431.517813 45.8 
L 431.517813 106.826875 
Q 431.517813 109.626875 434.317813 109.626875 
z
" style="fill:#ffffff;opacity:0.8;stroke:#cccccc;stroke-linejoin:miter;"/>
    </g>
    <g id="patch_5">
     <path d="M 437.117813 59.237813 
L 465.117813 59.237813 
L 465.117813 49.437813 
L 437.117813 49.437813 
z
" style="fill:#ff6384;opacity:0.5;stroke:#ff6384;stroke-linejoin:miter;"/>
    </g>
    <g id="text_1">
     <!-- base_1 -->
     <defs>
      <path d="M 48.6875 27.296875 
Q 48.6875 37.203125 44.609375 42.84375 
Q 40.53125 48.484375 33.40625 48.484375 
Q 26.265625 48.484375 22.1875 42.84375 
Q 18.109375 37.203125 18.109375 27.296875 
Q 18.109375 17.390625 22.1875 11.75 
Q 26.265625 6.109375 33.40625 6.109375 
Q 40.53125 6.109375 44.609375 11.75 
Q 48.6875 17.390625 48.6875 27.296875 
z
M 18.109375 46.390625 
Q 20.953125 51.265625 25.265625 53.625 
Q 29.59375 56 35.59375 56 
Q 45.5625 56 51.78125 48.09375 
Q 58.015625 40.1875 58.015625 27.296875 
Q 58.015625 14.40625 51.78125 6.484375 
Q 45.5625 -1.421875 35.59375 -1.421875 
Q 29.59375 -1.421875 25.265625 0.953125 
Q 20.953125 3.328125 18.109375 8.203125 
L 18.109375 0 
L 9.078125 0 
L 9.078125 75.984375 
L 18.109375 75.984375 
z
" id="DejaVuSans-98"/>
      <path d="M 34.28125 27.484375 
Q 23.390625 27.484375 19.1875 25 
Q 14.984375 22.515625 14.984375 16.5 
Q 14.984375 11.71875 18.140625 8.90625 
Q 21.296875 6.109375 26.703125 6.109375 
Q 34.1875 6.109375 38.703125 11.40625 
Q 43.21875 16.703125 43.21875 25.484375 
L 43.21875 27.484375 
z
M 52.203125 31.203125 
L 52.203125 0 
L 43.21875 0 
L 43.21875 8.296875 
Q 40.140625 3.328125 35.546875 0.953125 
Q 30.953125 -1.421875 24.3125 -1.421875 
Q 15.921875 -1.421875 10.953125 3.296875 
Q 6 8.015625 6 15.921875 
Q 6 25.140625 12.171875 29.828125 
Q 18.359375 34.515625 30.609375 34.515625 
L 43.21875 34.515625 
L 43.21875 35.40625 
Q 43.21875 41.609375 39.140625 45 
Q 35.0625 48.390625 27.6875 48.390625 
Q 23 48.390625 18.546875 47.265625 
Q 14.109375 46.140625 10.015625 43.890625 
L 10.015625 52.203125 
Q 14.9375 54.109375 19.578125 55.046875 
Q 24.21875 56 28.609375 56 
Q 40.484375 56 46.34375 49.84375 
Q 52.203125 43.703125 52.203125 31.203125 
z
" id="DejaVuSans-97"/>
      <path d="M 44.28125 53.078125 
L 44.28125 44.578125 
Q 40.484375 46.53125 36.375 47.5 
Q 32.28125 48.484375 27.875 48.484375 
Q 21.1875 48.484375 17.84375 46.4375 
Q 14.5 44.390625 14.5 40.28125 
Q 14.5 37.15625 16.890625 35.375 
Q 19.28125 33.59375 26.515625 31.984375 
L 29.59375 31.296875 
Q 39.15625 29.25 43.1875 25.515625 
Q 47.21875 21.78125 47.21875 15.09375 
Q 47.21875 7.46875 41.1875 3.015625 
Q 35.15625 -1.421875 24.609375 -1.421875 
Q 20.21875 -1.421875 15.453125 -0.5625 
Q 10.6875 0.296875 5.421875 2 
L 5.421875 11.28125 
Q 10.40625 8.6875 15.234375 7.390625 
Q 20.0625 6.109375 24.8125 6.109375 
Q 31.15625 6.109375 34.5625 8.28125 
Q 37.984375 10.453125 37.984375 14.40625 
Q 37.984375 18.0625 35.515625 20.015625 
Q 33.0625 21.96875 24.703125 23.78125 
L 21.578125 24.515625 
Q 13.234375 26.265625 9.515625 29.90625 
Q 5.8125 33.546875 5.8125 39.890625 
Q 5.8125 47.609375 11.28125 51.796875 
Q 16.75 56 26.8125 56 
Q 31.78125 56 36.171875 55.265625 
Q 40.578125 54.546875 44.28125 53.078125 
z
" id="DejaVuSans-115"/>
      <path d="M 56.203125 29.59375 
L 56.203125 25.203125 
L 14.890625 25.203125 
Q 15.484375 15.921875 20.484375 11.0625 
Q 25.484375 6.203125 34.421875 6.203125 
Q 39.59375 6.203125 44.453125 7.46875 
Q 49.3125 8.734375 54.109375 11.28125 
L 54.109375 2.78125 
Q 49.265625 0.734375 44.1875 -0.34375 
Q 39.109375 -1.421875 33.890625 -1.421875 
Q 20.796875 -1.421875 13.15625 6.1875 
Q 5.515625 13.8125 5.515625 26.8125 
Q 5.515625 40.234375 12.765625 48.109375 
Q 20.015625 56 32.328125 56 
Q 43.359375 56 49.78125 48.890625 
Q 56.203125 41.796875 56.203125 29.59375 
z
M 47.21875 32.234375 
Q 47.125 39.59375 43.09375 43.984375 
Q 39.0625 48.390625 32.421875 48.390625 
Q 24.90625 48.390625 20.390625 44.140625 
Q 15.875 39.890625 15.1875 32.171875 
z
" id="DejaVuSans-101"/>
      <path d="M 50.984375 -16.609375 
L 50.984375 -23.578125 
L -0.984375 -23.578125 
L -0.984375 -16.609375 
z
" id="DejaVuSans-95"/>
      <path d="M 12.40625 8.296875 
L 28.515625 8.296875 
L 28.515625 63.921875 
L 10.984375 60.40625 
L 10.984375 69.390625 
L 28.421875 72.90625 
L 38.28125 72.90625 
L 38.28125 8.296875 
L 54.390625 8.296875 
L 54.390625 0 
L 12.40625 0 
z
" id="DejaVuSans-49"/>
     </defs>
     <g transform="translate(476.317813 59.237813)scale(0.14 -0.14)">
      <use xlink:href="#DejaVuSans-98"/>
      <use x="63.476562" xlink:href="#DejaVuSans-97"/>
      <use x="124.755859" xlink:href="#DejaVuSans-115"/>
      <use x="176.855469" xlink:href="#DejaVuSans-101"/>
      <use x="238.378906" xlink:href="#DejaVuSans-95"/>
      <use x="288.378906" xlink:href="#DejaVuSans-49"/>
     </g>
    </g>
    <g id="patch_6">
     <path d="M 437.117813 80.176563 
L 465.117813 80.176563 
L 465.117813 70.376563 
L 437.117813 70.376563 
z
" style="fill:#36a2eb;opacity:0.5;stroke:#36a2eb;stroke-linejoin:miter;"/>
    </g>
    <g id="text_2">
     <!-- base_2 -->
     <defs>
      <path d="M 19.1875 8.296875 
L 53.609375 8.296875 
L 53.609375 0 
L 7.328125 0 
L 7.328125 8.296875 
Q 12.9375 14.109375 22.625 23.890625 
Q 32.328125 33.6875 34.8125 36.53125 
Q 39.546875 41.84375 41.421875 45.53125 
Q 43.3125 49.21875 43.3125 52.78125 
Q 43.3125 58.59375 39.234375 62.25 
Q 35.15625 65.921875 28.609375 65.921875 
Q 23.96875 65.921875 18.8125 64.3125 
Q 13.671875 62.703125 7.8125 59.421875 
L 7.8125 69.390625 
Q 13.765625 71.78125 18.9375 73 
Q 24.125 74.21875 28.421875 74.21875 
Q 39.75 74.21875 46.484375 68.546875 
Q 53.21875 62.890625 53.21875 53.421875 
Q 53.21875 48.921875 51.53125 44.890625 
Q 49.859375 40.875 45.40625 35.40625 
Q 44.1875 33.984375 37.640625 27.21875 
Q 31.109375 20.453125 19.1875 8.296875 
z
" id="DejaVuSans-50"/>
     </defs>
     <g transform="translate(476.317813 80.176563)scale(0.14 -0.14)">
      <use xlink:href="#DejaVuSans-98"/>
      <use x="63.476562" xlink:href="#DejaVuSans-97"/>
      <use x="124.755859" xlink:href="#DejaVuSans-115"/>
      <use x="176.855469" xlink:href="#DejaVuSans-101"/>
      <use x="238.378906" xlink:href="#DejaVuSans-95"/>
      <use x="288.378906" xlink:href="#DejaVuSans-50"/>
     </g>
    </g>
    <g id="patch_7">
     <path d="M 437.117813 101.115313 
L 465.117813 101.115313 
L 465.117813 91.315313 
L 437.117813 91.315313 
z
" style="fill:#4bc0c0;opacity:0.5;stroke:#4bc0c0;stroke-linejoin:miter;"/>
    </g>
    <g id="text_3">
     <!-- new -->
     <defs>
      <path d="M 54.890625 33.015625 
L 54.890625 0 
L 45.90625 0 
L 45.90625 32.71875 
Q 45.90625 40.484375 42.875 44.328125 
Q 39.84375 48.1875 33.796875 48.1875 
Q 26.515625 48.1875 22.3125 43.546875 
Q 18.109375 38.921875 18.109375 30.90625 
L 18.109375 0 
L 9.078125 0 
L 9.078125 54.6875 
L 18.109375 54.6875 
L 18.109375 46.1875 
Q 21.34375 51.125 25.703125 53.5625 
Q 30.078125 56 35.796875 56 
Q 45.21875 56 50.046875 50.171875 
Q 54.890625 44.34375 54.890625 33.015625 
z
" id="DejaVuSans-110"/>
      <path d="M 4.203125 54.6875 
L 13.1875 54.6875 
L 24.421875 12.015625 
L 35.59375 54.6875 
L 46.1875 54.6875 
L 57.421875 12.015625 
L 68.609375 54.6875 
L 77.59375 54.6875 
L 63.28125 0 
L 52.6875 0 
L 40.921875 44.828125 
L 29.109375 0 
L 18.5 0 
z
" id="DejaVuSans-119"/>
     </defs>
     <g transform="translate(476.317813 101.115313)scale(0.14 -0.14)">
      <use xlink:href="#DejaVuSans-110"/>
      <use x="63.378906" xlink:href="#DejaVuSans-101"/>
      <use x="124.902344" xlink:href="#DejaVuSans-119"/>
     </g>
    </g>
   </g>
  </g>
  <g id="axes_2">
   <g id="patch_8">
    <path d="M 36 525.24 
L 538.2 525.24 
L 538.2 402.93 
L 36 402.93 
z
" style="fill:none;"/>
   </g>
   <g id="patch_9">
    <path clip-path="url(#pbedd944f27)" d="M 171.619871 519.680455 
L 388.358591 519.680455 
L 388.358591 497.442273 
L 171.619871 497.442273 
z
" style="fill:#ff6384;opacity:0.5;"/>
   </g>
   <g id="patch_10">
    <path clip-path="url(#pbedd944f27)" d="M 255.620001 475.204091 
L 426.464076 475.204091 
L 426.464076 452.965909 
L 255.620001 452.965909 
z
" style="fill:#36a2eb;opacity:0.5;"/>
   </g>
   <g id="patch_11">
    <path clip-path="url(#pbedd944f27)" d="M 201.369347 430.727727 
L 369.778466 430.727727 
L 369.778466 408.489545 
L 201.369347 408.489545 
z
" style="fill:#4bc0c0;opacity:0.5;"/>
   </g>
   <g id="matplotlib.axis_1">
    <g id="xtick_1">
     <g id="line2d_4">
      <defs>
       <path d="M 0 0 
L 0 3.5 
" id="mdb7051c91c" style="stroke:#000000;stroke-width:0.8;"/>
      </defs>
      <g>
       <use style="stroke:#000000;stroke-width:0.8;" x="128.161784" xlink:href="#mdb7051c91c" y="525.24"/>
      </g>
     </g>
     <g id="text_4">
      <!-- 17.5 -->
      <defs>
       <path d="M 8.203125 72.90625 
L 55.078125 72.90625 
L 55.078125 68.703125 
L 28.609375 0 
L 18.3125 0 
L 43.21875 64.59375 
L 8.203125 64.59375 
z
" id="DejaVuSans-55"/>
       <path d="M 10.6875 12.40625 
L 21 12.40625 
L 21 0 
L 10.6875 0 
z
" id="DejaVuSans-46"/>
       <path d="M 10.796875 72.90625 
L 49.515625 72.90625 
L 49.515625 64.59375 
L 19.828125 64.59375 
L 19.828125 46.734375 
Q 21.96875 47.46875 24.109375 47.828125 
Q 26.265625 48.1875 28.421875 48.1875 
Q 40.625 48.1875 47.75 41.5 
Q 54.890625 34.8125 54.890625 23.390625 
Q 54.890625 11.625 47.5625 5.09375 
Q 40.234375 -1.421875 26.90625 -1.421875 
Q 22.3125 -1.421875 17.546875 -0.640625 
Q 12.796875 0.140625 7.71875 1.703125 
L 7.71875 11.625 
Q 12.109375 9.234375 16.796875 8.0625 
Q 21.484375 6.890625 26.703125 6.890625 
Q 35.15625 6.890625 40.078125 11.328125 
Q 45.015625 15.765625 45.015625 23.390625 
Q 45.015625 31 40.078125 35.4375 
Q 35.15625 39.890625 26.703125 39.890625 
Q 22.75 39.890625 18.8125 39.015625 
Q 14.890625 38.140625 10.796875 36.28125 
z
" id="DejaVuSans-53"/>
      </defs>
      <g transform="translate(112.575847 542.877813)scale(0.14 -0.14)">
       <use xlink:href="#DejaVuSans-49"/>
       <use x="63.623047" xlink:href="#DejaVuSans-55"/>
       <use x="127.246094" xlink:href="#DejaVuSans-46"/>
       <use x="159.033203" xlink:href="#DejaVuSans-53"/>
      </g>
     </g>
    </g>
    <g id="xtick_2">
     <g id="line2d_5">
      <g>
       <use style="stroke:#000000;stroke-width:0.8;" x="222.8173" xlink:href="#mdb7051c91c" y="525.24"/>
      </g>
     </g>
     <g id="text_5">
      <!-- 18.0 -->
      <defs>
       <path d="M 31.78125 34.625 
Q 24.75 34.625 20.71875 30.859375 
Q 16.703125 27.09375 16.703125 20.515625 
Q 16.703125 13.921875 20.71875 10.15625 
Q 24.75 6.390625 31.78125 6.390625 
Q 38.8125 6.390625 42.859375 10.171875 
Q 46.921875 13.96875 46.921875 20.515625 
Q 46.921875 27.09375 42.890625 30.859375 
Q 38.875 34.625 31.78125 34.625 
z
M 21.921875 38.8125 
Q 15.578125 40.375 12.03125 44.71875 
Q 8.5 49.078125 8.5 55.328125 
Q 8.5 64.0625 14.71875 69.140625 
Q 20.953125 74.21875 31.78125 74.21875 
Q 42.671875 74.21875 48.875 69.140625 
Q 55.078125 64.0625 55.078125 55.328125 
Q 55.078125 49.078125 51.53125 44.71875 
Q 48 40.375 41.703125 38.8125 
Q 48.828125 37.15625 52.796875 32.3125 
Q 56.78125 27.484375 56.78125 20.515625 
Q 56.78125 9.90625 50.3125 4.234375 
Q 43.84375 -1.421875 31.78125 -1.421875 
Q 19.734375 -1.421875 13.25 4.234375 
Q 6.78125 9.90625 6.78125 20.515625 
Q 6.78125 27.484375 10.78125 32.3125 
Q 14.796875 37.15625 21.921875 38.8125 
z
M 18.3125 54.390625 
Q 18.3125 48.734375 21.84375 45.5625 
Q 25.390625 42.390625 31.78125 42.390625 
Q 38.140625 42.390625 41.71875 45.5625 
Q 45.3125 48.734375 45.3125 54.390625 
Q 45.3125 60.0625 41.71875 63.234375 
Q 38.140625 66.40625 31.78125 66.40625 
Q 25.390625 66.40625 21.84375 63.234375 
Q 18.3125 60.0625 18.3125 54.390625 
z
" id="DejaVuSans-56"/>
       <path d="M 31.78125 66.40625 
Q 24.171875 66.40625 20.328125 58.90625 
Q 16.5 51.421875 16.5 36.375 
Q 16.5 21.390625 20.328125 13.890625 
Q 24.171875 6.390625 31.78125 6.390625 
Q 39.453125 6.390625 43.28125 13.890625 
Q 47.125 21.390625 47.125 36.375 
Q 47.125 51.421875 43.28125 58.90625 
Q 39.453125 66.40625 31.78125 66.40625 
z
M 31.78125 74.21875 
Q 44.046875 74.21875 50.515625 64.515625 
Q 56.984375 54.828125 56.984375 36.375 
Q 56.984375 17.96875 50.515625 8.265625 
Q 44.046875 -1.421875 31.78125 -1.421875 
Q 19.53125 -1.421875 13.0625 8.265625 
Q 6.59375 17.96875 6.59375 36.375 
Q 6.59375 54.828125 13.0625 64.515625 
Q 19.53125 74.21875 31.78125 74.21875 
z
" id="DejaVuSans-48"/>
      </defs>
      <g transform="translate(207.231362 542.877813)scale(0.14 -0.14)">
       <use xlink:href="#DejaVuSans-49"/>
       <use x="63.623047" xlink:href="#DejaVuSans-56"/>
       <use x="127.246094" xlink:href="#DejaVuSans-46"/>
       <use x="159.033203" xlink:href="#DejaVuSans-48"/>
      </g>
     </g>
    </g>
    <g id="xtick_3">
     <g id="line2d_6">
      <g>
       <use style="stroke:#000000;stroke-width:0.8;" x="317.472815" xlink:href="#mdb7051c91c" y="525.24"/>
      </g>
     </g>
     <g id="text_6">
      <!-- 18.5 -->
      <g transform="translate(301.886878 542.877813)scale(0.14 -0.14)">
       <use xlink:href="#DejaVuSans-49"/>
       <use x="63.623047" xlink:href="#DejaVuSans-56"/>
       <use x="127.246094" xlink:href="#DejaVuSans-46"/>
       <use x="159.033203" xlink:href="#DejaVuSans-53"/>
      </g>
     </g>
    </g>
    <g id="xtick_4">
     <g id="line2d_7">
      <g>
       <use style="stroke:#000000;stroke-width:0.8;" x="412.12833" xlink:href="#mdb7051c91c" y="525.24"/>
      </g>
     </g>
     <g id="text_7">
      <!-- 19.0 -->
      <defs>
       <path d="M 10.984375 1.515625 
L 10.984375 10.5 
Q 14.703125 8.734375 18.5 7.8125 
Q 22.3125 6.890625 25.984375 6.890625 
Q 35.75 6.890625 40.890625 13.453125 
Q 46.046875 20.015625 46.78125 33.40625 
Q 43.953125 29.203125 39.59375 26.953125 
Q 35.25 24.703125 29.984375 24.703125 
Q 19.046875 24.703125 12.671875 31.3125 
Q 6.296875 37.9375 6.296875 49.421875 
Q 6.296875 60.640625 12.9375 67.421875 
Q 19.578125 74.21875 30.609375 74.21875 
Q 43.265625 74.21875 49.921875 64.515625 
Q 56.59375 54.828125 56.59375 36.375 
Q 56.59375 19.140625 48.40625 8.859375 
Q 40.234375 -1.421875 26.421875 -1.421875 
Q 22.703125 -1.421875 18.890625 -0.6875 
Q 15.09375 0.046875 10.984375 1.515625 
z
M 30.609375 32.421875 
Q 37.25 32.421875 41.125 36.953125 
Q 45.015625 41.5 45.015625 49.421875 
Q 45.015625 57.28125 41.125 61.84375 
Q 37.25 66.40625 30.609375 66.40625 
Q 23.96875 66.40625 20.09375 61.84375 
Q 16.21875 57.28125 16.21875 49.421875 
Q 16.21875 41.5 20.09375 36.953125 
Q 23.96875 32.421875 30.609375 32.421875 
z
" id="DejaVuSans-57"/>
      </defs>
      <g transform="translate(396.542393 542.877813)scale(0.14 -0.14)">
       <use xlink:href="#DejaVuSans-49"/>
       <use x="63.623047" xlink:href="#DejaVuSans-57"/>
       <use x="127.246094" xlink:href="#DejaVuSans-46"/>
       <use x="159.033203" xlink:href="#DejaVuSans-48"/>
      </g>
     </g>
    </g>
    <g id="xtick_5">
     <g id="line2d_8">
      <g>
       <use style="stroke:#000000;stroke-width:0.8;" x="506.783846" xlink:href="#mdb7051c91c" y="525.24"/>
      </g>
     </g>
     <g id="text_8">
      <!-- 19.5 -->
      <g transform="translate(491.197908 542.877813)scale(0.14 -0.14)">
       <use xlink:href="#DejaVuSans-49"/>
       <use x="63.623047" xlink:href="#DejaVuSans-57"/>
       <use x="127.246094" xlink:href="#DejaVuSans-46"/>
       <use x="159.033203" xlink:href="#DejaVuSans-53"/>
      </g>
     </g>
    </g>
   </g>
   <g id="line2d_9">
    <path clip-path="url(#pbedd944f27)" d="M 279.989231 525.24 
L 279.989231 402.93 
" style="fill:none;stroke:#ff6384;stroke-dasharray:5.55,2.4;stroke-dashoffset:0;stroke-opacity:0.8;stroke-width:1.5;"/>
   </g>
   <g id="line2d_10">
    <path clip-path="url(#pbedd944f27)" d="M 341.042038 525.24 
L 341.042038 402.93 
" style="fill:none;stroke:#36a2eb;stroke-dasharray:5.55,2.4;stroke-dashoffset:0;stroke-opacity:0.8;stroke-width:1.5;"/>
   </g>
   <g id="line2d_11">
    <path clip-path="url(#pbedd944f27)" d="M 285.573906 525.24 
L 285.573906 402.93 
" style="fill:none;stroke:#4bc0c0;stroke-dasharray:5.55,2.4;stroke-dashoffset:0;stroke-opacity:0.8;stroke-width:1.5;"/>
   </g>
   <g id="patch_12">
    <path d="M 36 525.24 
L 538.2 525.24 
" style="fill:none;stroke:#000000;stroke-linecap:square;stroke-linejoin:miter;stroke-width:0.8;"/>
   </g>
  </g>
 </g>
 <defs>
  <clipPath id="pab01ffa012">
   <rect height="366.93" width="502.2" x="36" y="36"/>
  </clipPath>
  <clipPath id="pbedd944f27">
   <rect height="122.31" width="502.2" x="36" y="402.93"/>
  </clipPath>
 </defs>
</svg>
