<?xml version="1.0" encoding="utf-8" standalone="no"?>
<!DOCTYPE svg PUBLIC "-//W3C//DTD SVG 1.1//EN"
  "http://www.w3.org/Graphics/SVG/1.1/DTD/svg11.dtd">
<!-- Created with matplotlib (https://matplotlib.org/) -->
<svg height="581.789375pt" version="1.1" viewBox="0 0 574.2 581.789375" width="574.2pt" xmlns="http://www.w3.org/2000/svg" xmlns:xlink="http://www.w3.org/1999/xlink">
 <defs>
  <style type="text/css">
*{stroke-linecap:butt;stroke-linejoin:round;}
  </style>
 </defs>
 <g id="figure_1">
  <g id="patch_1">
   <path d="M 0 581.789375 
L 574.2 581.789375 
L 574.2 0 
L 0 0 
z
" style="fill:none;"/>
  </g>
  <g id="axes_1">
   <g id="patch_2">
    <path d="M 36 402.93 
L 538.2 402.93 
L 538.2 36 
L 36 36 
z
" style="fill:none;"/>
   </g>
   <g id="PolyCollection_1">
    <defs>
     <path d="M 78.3716 -195.538011 
L 78.3716 -195.636998 
L 82.785753 -195.674324 
L 87.199906 -195.724504 
L 91.614059 -195.791495 
L 96.028212 -195.880307 
L 100.442364 -195.997228 
L 104.856517 -196.150077 
L 109.27067 -196.348492 
L 113.684823 -196.604243 
L 118.098975 -196.931566 
L 122.513128 -197.347521 
L 126.927281 -197.872339 
L 131.341434 -198.529771 
L 135.755587 -199.347404 
L 140.169739 -200.356921 
L 144.583892 -201.594292 
L 148.998045 -203.099847 
L 153.412198 -204.918222 
L 157.826351 -207.098122 
L 162.240503 -209.691891 
L 166.654656 -212.754838 
L 171.068809 -216.344307 
L 175.482962 -220.518476 
L 179.897115 -225.33486 
L 184.311267 -230.848541 
L 188.72542 -237.110136 
L 193.139573 -244.163535 
L 197.553726 -252.043475 
L 201.967879 -260.773012 
L 206.382031 -270.360987 
L 210.796184 -280.79959 
L 215.210337 -292.062128 
L 219.62449 -304.10115 
L 224.038643 -316.847011 
L 228.452795 -330.207041 
L 232.866948 -344.065393 
L 237.281101 -358.283664 
L 241.695254 -372.702367 
L 246.109407 -387.143252 
L 250.523559 -401.412483 
L 254.937712 -415.304613 
L 259.351865 -428.607256 
L 263.766018 -441.106323 
L 268.180171 -452.591653 
L 272.594323 -462.862828 
L 277.008476 -471.734959 
L 281.422629 -479.044206 
L 285.836782 -484.652803 
L 290.250935 -488.453374 
L 294.665087 -490.372354 
L 299.07924 -490.372354 
L 303.493393 -488.453374 
L 307.907546 -484.652803 
L 312.321699 -479.044206 
L 316.735851 -471.734959 
L 321.150004 -462.862828 
L 325.564157 -452.591653 
L 329.97831 -441.106323 
L 334.392463 -428.607256 
L 338.806615 -415.304613 
L 343.220768 -401.412483 
L 347.634921 -387.143252 
L 352.049074 -372.702367 
L 356.463227 -358.283664 
L 360.877379 -344.065393 
L 365.291532 -330.207041 
L 369.705685 -316.847011 
L 374.119838 -304.10115 
L 378.533991 -292.062128 
L 382.948143 -280.79959 
L 387.362296 -270.360987 
L 391.776449 -260.773012 
L 396.190602 -252.043475 
L 400.604755 -244.163535 
L 405.018907 -237.110136 
L 409.43306 -230.848541 
L 413.847213 -225.33486 
L 418.261366 -220.518476 
L 422.675519 -216.344307 
L 427.089671 -212.754838 
L 431.503824 -209.691891 
L 435.917977 -207.098122 
L 440.33213 -204.918222 
L 444.746283 -203.099847 
L 449.160435 -201.594292 
L 453.574588 -200.356921 
L 457.988741 -199.347404 
L 462.402894 -198.529771 
L 466.817046 -197.872339 
L 471.231199 -197.347521 
L 475.645352 -196.931566 
L 480.059505 -196.604243 
L 484.473658 -196.348492 
L 488.88781 -196.150077 
L 493.301963 -195.997228 
L 497.716116 -195.880307 
L 502.130269 -195.791495 
L 506.544422 -195.724504 
L 510.958574 -195.674324 
L 515.372727 -195.636998 
L 515.372727 -195.538011 
L 515.372727 -195.538011 
L 510.958574 -195.538011 
L 506.544422 -195.538011 
L 502.130269 -195.538011 
L 497.716116 -195.538011 
L 493.301963 -195.538011 
L 488.88781 -195.538011 
L 484.473658 -195.538011 
L 480.059505 -195.538011 
L 475.645352 -195.538011 
L 471.231199 -195.538011 
L 466.817046 -195.538011 
L 462.402894 -195.538011 
L 457.988741 -195.538011 
L 453.574588 -195.538011 
L 449.160435 -195.538011 
L 444.746283 -195.538011 
L 440.33213 -195.538011 
L 435.917977 -195.538011 
L 431.503824 -195.538011 
L 427.089671 -195.538011 
L 422.675519 -195.538011 
L 418.261366 -195.538011 
L 413.847213 -195.538011 
L 409.43306 -195.538011 
L 405.018907 -195.538011 
L 400.604755 -195.538011 
L 396.190602 -195.538011 
L 391.776449 -195.538011 
L 387.362296 -195.538011 
L 382.948143 -195.538011 
L 378.533991 -195.538011 
L 374.119838 -195.538011 
L 369.705685 -195.538011 
L 365.291532 -195.538011 
L 360.877379 -195.538011 
L 356.463227 -195.538011 
L 352.049074 -195.538011 
L 347.634921 -195.538011 
L 343.220768 -195.538011 
L 338.806615 -195.538011 
L 334.392463 -195.538011 
L 329.97831 -195.538011 
L 325.564157 -195.538011 
L 321.150004 -195.538011 
L 316.735851 -195.538011 
L 312.321699 -195.538011 
L 307.907546 -195.538011 
L 303.493393 -195.538011 
L 299.07924 -195.538011 
L 294.665087 -195.538011 
L 290.250935 -195.538011 
L 285.836782 -195.538011 
L 281.422629 -195.538011 
L 277.008476 -195.538011 
L 272.594323 -195.538011 
L 268.180171 -195.538011 
L 263.766018 -195.538011 
L 259.351865 -195.538011 
L 254.937712 -195.538011 
L 250.523559 -195.538011 
L 246.109407 -195.538011 
L 241.695254 -195.538011 
L 237.281101 -195.538011 
L 232.866948 -195.538011 
L 228.452795 -195.538011 
L 224.038643 -195.538011 
L 219.62449 -195.538011 
L 215.210337 -195.538011 
L 210.796184 -195.538011 
L 206.382031 -195.538011 
L 201.967879 -195.538011 
L 197.553726 -195.538011 
L 193.139573 -195.538011 
L 188.72542 -195.538011 
L 184.311267 -195.538011 
L 179.897115 -195.538011 
L 175.482962 -195.538011 
L 171.068809 -195.538011 
L 166.654656 -195.538011 
L 162.240503 -195.538011 
L 157.826351 -195.538011 
L 153.412198 -195.538011 
L 148.998045 -195.538011 
L 144.583892 -195.538011 
L 140.169739 -195.538011 
L 135.755587 -195.538011 
L 131.341434 -195.538011 
L 126.927281 -195.538011 
L 122.513128 -195.538011 
L 118.098975 -195.538011 
L 113.684823 -195.538011 
L 109.27067 -195.538011 
L 104.856517 -195.538011 
L 100.442364 -195.538011 
L 96.028212 -195.538011 
L 91.614059 -195.538011 
L 87.199906 -195.538011 
L 82.785753 -195.538011 
L 78.3716 -195.538011 
z
" id="m857b5797f0" style="stroke:#ff6384;stroke-opacity:0.5;"/>
    </defs>
    <g clip-path="url(#p5aa3825491)">
     <use style="fill:#ff6384;fill-opacity:0.5;stroke:#ff6384;stroke-opacity:0.5;" x="0" xlink:href="#m857b5797f0" y="581.789375"/>
    </g>
   </g>
   <g id="PolyCollection_2">
    <defs>
     <path d="M 80.580813 -195.538011 
L 80.580813 -195.650004 
L 84.482342 -195.692234 
L 88.383872 -195.749007 
L 92.285401 -195.8248 
L 96.186931 -195.925281 
L 100.08846 -196.057565 
L 103.98999 -196.230497 
L 107.891519 -196.454982 
L 111.793049 -196.744335 
L 115.694578 -197.114666 
L 119.596108 -197.585273 
L 123.497637 -198.179047 
L 127.399167 -198.922859 
L 131.300696 -199.847921 
L 135.202226 -200.990079 
L 139.103756 -202.390029 
L 143.005285 -204.093399 
L 146.906815 -206.150691 
L 150.808344 -208.617009 
L 154.709874 -211.551575 
L 158.611403 -215.016962 
L 162.512933 -219.078053 
L 166.414462 -223.800667 
L 170.315992 -229.249878 
L 174.217521 -235.488004 
L 178.119051 -242.572312 
L 182.02058 -250.552459 
L 185.92211 -259.467747 
L 189.823639 -269.344261 
L 193.725169 -280.192004 
L 197.626698 -292.002137 
L 201.528228 -304.744465 
L 205.429757 -318.365297 
L 209.331287 -332.785841 
L 213.232816 -347.901251 
L 217.134346 -363.580456 
L 221.035875 -379.666871 
L 224.937405 -395.980052 
L 228.838934 -412.31833 
L 232.740464 -428.4624 
L 236.641993 -444.179822 
L 240.543523 -459.230303 
L 244.445052 -473.371627 
L 248.346582 -486.366018 
L 252.248111 -497.986726 
L 256.149641 -508.02457 
L 260.05117 -516.294181 
L 263.9527 -522.639693 
L 267.854229 -526.939623 
L 271.755759 -529.110739 
L 275.657288 -529.110739 
L 279.558818 -526.939623 
L 283.460347 -522.639693 
L 287.361877 -516.294181 
L 291.263406 -508.02457 
L 295.164936 -497.986726 
L 299.066465 -486.366018 
L 302.967995 -473.371627 
L 306.869524 -459.230303 
L 310.771054 -444.179822 
L 314.672583 -428.4624 
L 318.574113 -412.31833 
L 322.475642 -395.980052 
L 326.377172 -379.666871 
L 330.278701 -363.580456 
L 334.180231 -347.901251 
L 338.08176 -332.785841 
L 341.98329 -318.365297 
L 345.884819 -304.744465 
L 349.786349 -292.002137 
L 353.687879 -280.192004 
L 357.589408 -269.344261 
L 361.490938 -259.467747 
L 365.392467 -250.552459 
L 369.293997 -242.572312 
L 373.195526 -235.488004 
L 377.097056 -229.249878 
L 380.998585 -223.800667 
L 384.900115 -219.078053 
L 388.801644 -215.016962 
L 392.703174 -211.551575 
L 396.604703 -208.617009 
L 400.506233 -206.150691 
L 404.407762 -204.093399 
L 408.309292 -202.390029 
L 412.210821 -200.990079 
L 416.112351 -199.847921 
L 420.01388 -198.922859 
L 423.91541 -198.179047 
L 427.816939 -197.585273 
L 431.718469 -197.114666 
L 435.619998 -196.744335 
L 439.521528 -196.454982 
L 443.423057 -196.230497 
L 447.324587 -196.057565 
L 451.226116 -195.925281 
L 455.127646 -195.8248 
L 459.029175 -195.749007 
L 462.930705 -195.692234 
L 466.832234 -195.650004 
L 466.832234 -195.538011 
L 466.832234 -195.538011 
L 462.930705 -195.538011 
L 459.029175 -195.538011 
L 455.127646 -195.538011 
L 451.226116 -195.538011 
L 447.324587 -195.538011 
L 443.423057 -195.538011 
L 439.521528 -195.538011 
L 435.619998 -195.538011 
L 431.718469 -195.538011 
L 427.816939 -195.538011 
L 423.91541 -195.538011 
L 420.01388 -195.538011 
L 416.112351 -195.538011 
L 412.210821 -195.538011 
L 408.309292 -195.538011 
L 404.407762 -195.538011 
L 400.506233 -195.538011 
L 396.604703 -195.538011 
L 392.703174 -195.538011 
L 388.801644 -195.538011 
L 384.900115 -195.538011 
L 380.998585 -195.538011 
L 377.097056 -195.538011 
L 373.195526 -195.538011 
L 369.293997 -195.538011 
L 365.392467 -195.538011 
L 361.490938 -195.538011 
L 357.589408 -195.538011 
L 353.687879 -195.538011 
L 349.786349 -195.538011 
L 345.884819 -195.538011 
L 341.98329 -195.538011 
L 338.08176 -195.538011 
L 334.180231 -195.538011 
L 330.278701 -195.538011 
L 326.377172 -195.538011 
L 322.475642 -195.538011 
L 318.574113 -195.538011 
L 314.672583 -195.538011 
L 310.771054 -195.538011 
L 306.869524 -195.538011 
L 302.967995 -195.538011 
L 299.066465 -195.538011 
L 295.164936 -195.538011 
L 291.263406 -195.538011 
L 287.361877 -195.538011 
L 283.460347 -195.538011 
L 279.558818 -195.538011 
L 275.657288 -195.538011 
L 271.755759 -195.538011 
L 267.854229 -195.538011 
L 263.9527 -195.538011 
L 260.05117 -195.538011 
L 256.149641 -195.538011 
L 252.248111 -195.538011 
L 248.346582 -195.538011 
L 244.445052 -195.538011 
L 240.543523 -195.538011 
L 236.641993 -195.538011 
L 232.740464 -195.538011 
L 228.838934 -195.538011 
L 224.937405 -195.538011 
L 221.035875 -195.538011 
L 217.134346 -195.538011 
L 213.232816 -195.538011 
L 209.331287 -195.538011 
L 205.429757 -195.538011 
L 201.528228 -195.538011 
L 197.626698 -195.538011 
L 193.725169 -195.538011 
L 189.823639 -195.538011 
L 185.92211 -195.538011 
L 182.02058 -195.538011 
L 178.119051 -195.538011 
L 174.217521 -195.538011 
L 170.315992 -195.538011 
L 166.414462 -195.538011 
L 162.512933 -195.538011 
L 158.611403 -195.538011 
L 154.709874 -195.538011 
L 150.808344 -195.538011 
L 146.906815 -195.538011 
L 143.005285 -195.538011 
L 139.103756 -195.538011 
L 135.202226 -195.538011 
L 131.300696 -195.538011 
L 127.399167 -195.538011 
L 123.497637 -195.538011 
L 119.596108 -195.538011 
L 115.694578 -195.538011 
L 111.793049 -195.538011 
L 107.891519 -195.538011 
L 103.98999 -195.538011 
L 100.08846 -195.538011 
L 96.186931 -195.538011 
L 92.285401 -195.538011 
L 88.383872 -195.538011 
L 84.482342 -195.538011 
L 80.580813 -195.538011 
z
" id="m56add7d0c0" style="stroke:#36a2eb;stroke-opacity:0.5;"/>
    </defs>
    <g clip-path="url(#p5aa3825491)">
     <use style="fill:#36a2eb;fill-opacity:0.5;stroke:#36a2eb;stroke-opacity:0.5;" x="0" xlink:href="#m56add7d0c0" y="581.789375"/>
    </g>
   </g>
   <g id="PolyCollection_3">
    <defs>
     <path d="M 58.827273 -195.538011 
L 58.827273 -195.643309 
L 62.97686 -195.683015 
L 67.126448 -195.736394 
L 71.276035 -195.807656 
L 75.425623 -195.902131 
L 79.575211 -196.026506 
L 83.724798 -196.189101 
L 87.874386 -196.400166 
L 92.023973 -196.672222 
L 96.173561 -197.020415 
L 100.323148 -197.46289 
L 104.472736 -198.021168 
L 108.622323 -198.720516 
L 112.771911 -199.590279 
L 116.921499 -200.66416 
L 121.071086 -201.980422 
L 125.220674 -203.581967 
L 129.370261 -205.516276 
L 133.519849 -207.83516 
L 137.669436 -210.5943 
L 141.819024 -213.852531 
L 145.968611 -217.670854 
L 150.118199 -222.111155 
L 154.267787 -227.234617 
L 158.417374 -233.099835 
L 162.566962 -239.76065 
L 166.716549 -247.263752 
L 170.866137 -255.646093 
L 175.015724 -264.932199 
L 179.165312 -275.131476 
L 183.314899 -286.235612 
L 187.464487 -298.216216 
L 191.614075 -311.022809 
L 195.763662 -324.581308 
L 199.91325 -338.793134 
L 204.062837 -353.535052 
L 208.212425 -368.659838 
L 212.362012 -383.997835 
L 216.5116 -399.359427 
L 220.661188 -414.538421 
L 224.810775 -429.316272 
L 228.960363 -443.467051 
L 233.10995 -456.763021 
L 237.259538 -468.980621 
L 241.409125 -479.906655 
L 245.558713 -489.344447 
L 249.7083 -497.119709 
L 253.857888 -503.085893 
L 258.007476 -507.128778 
L 262.157063 -509.170106 
L 266.306651 -509.170106 
L 270.456238 -507.128778 
L 274.605826 -503.085893 
L 278.755413 -497.119709 
L 282.905001 -489.344447 
L 287.054588 -479.906655 
L 291.204176 -468.980621 
L 295.353764 -456.763021 
L 299.503351 -443.467051 
L 303.652939 -429.316272 
L 307.802526 -414.538421 
L 311.952114 -399.359427 
L 316.101701 -383.997835 
L 320.251289 -368.659838 
L 324.400876 -353.535052 
L 328.550464 -338.793134 
L 332.700052 -324.581308 
L 336.849639 -311.022809 
L 340.999227 -298.216216 
L 345.148814 -286.235612 
L 349.298402 -275.131476 
L 353.447989 -264.932199 
L 357.597577 -255.646093 
L 361.747165 -247.263752 
L 365.896752 -239.76065 
L 370.04634 -233.099835 
L 374.195927 -227.234617 
L 378.345515 -222.111155 
L 382.495102 -217.670854 
L 386.64469 -213.852531 
L 390.794277 -210.5943 
L 394.943865 -207.83516 
L 399.093453 -205.516276 
L 403.24304 -203.581967 
L 407.392628 -201.980422 
L 411.542215 -200.66416 
L 415.691803 -199.590279 
L 419.84139 -198.720516 
L 423.990978 -198.021168 
L 428.140565 -197.46289 
L 432.290153 -197.020415 
L 436.439741 -196.672222 
L 440.589328 -196.400166 
L 444.738916 -196.189101 
L 448.888503 -196.026506 
L 453.038091 -195.902131 
L 457.187678 -195.807656 
L 461.337266 -195.736394 
L 465.486853 -195.683015 
L 469.636441 -195.643309 
L 469.636441 -195.538011 
L 469.636441 -195.538011 
L 465.486853 -195.538011 
L 461.337266 -195.538011 
L 457.187678 -195.538011 
L 453.038091 -195.538011 
L 448.888503 -195.538011 
L 444.738916 -195.538011 
L 440.589328 -195.538011 
L 436.439741 -195.538011 
L 432.290153 -195.538011 
L 428.140565 -195.538011 
L 423.990978 -195.538011 
L 419.84139 -195.538011 
L 415.691803 -195.538011 
L 411.542215 -195.538011 
L 407.392628 -195.538011 
L 403.24304 -195.538011 
L 399.093453 -195.538011 
L 394.943865 -195.538011 
L 390.794277 -195.538011 
L 386.64469 -195.538011 
L 382.495102 -195.538011 
L 378.345515 -195.538011 
L 374.195927 -195.538011 
L 370.04634 -195.538011 
L 365.896752 -195.538011 
L 361.747165 -195.538011 
L 357.597577 -195.538011 
L 353.447989 -195.538011 
L 349.298402 -195.538011 
L 345.148814 -195.538011 
L 340.999227 -195.538011 
L 336.849639 -195.538011 
L 332.700052 -195.538011 
L 328.550464 -195.538011 
L 324.400876 -195.538011 
L 320.251289 -195.538011 
L 316.101701 -195.538011 
L 311.952114 -195.538011 
L 307.802526 -195.538011 
L 303.652939 -195.538011 
L 299.503351 -195.538011 
L 295.353764 -195.538011 
L 291.204176 -195.538011 
L 287.054588 -195.538011 
L 282.905001 -195.538011 
L 278.755413 -195.538011 
L 274.605826 -195.538011 
L 270.456238 -195.538011 
L 266.306651 -195.538011 
L 262.157063 -195.538011 
L 258.007476 -195.538011 
L 253.857888 -195.538011 
L 249.7083 -195.538011 
L 245.558713 -195.538011 
L 241.409125 -195.538011 
L 237.259538 -195.538011 
L 233.10995 -195.538011 
L 228.960363 -195.538011 
L 224.810775 -195.538011 
L 220.661188 -195.538011 
L 216.5116 -195.538011 
L 212.362012 -195.538011 
L 208.212425 -195.538011 
L 204.062837 -195.538011 
L 199.91325 -195.538011 
L 195.763662 -195.538011 
L 191.614075 -195.538011 
L 187.464487 -195.538011 
L 183.314899 -195.538011 
L 179.165312 -195.538011 
L 175.015724 -195.538011 
L 170.866137 -195.538011 
L 166.716549 -195.538011 
L 162.566962 -195.538011 
L 158.417374 -195.538011 
L 154.267787 -195.538011 
L 150.118199 -195.538011 
L 145.968611 -195.538011 
L 141.819024 -195.538011 
L 137.669436 -195.538011 
L 133.519849 -195.538011 
L 129.370261 -195.538011 
L 125.220674 -195.538011 
L 121.071086 -195.538011 
L 116.921499 -195.538011 
L 112.771911 -195.538011 
L 108.622323 -195.538011 
L 104.472736 -195.538011 
L 100.323148 -195.538011 
L 96.173561 -195.538011 
L 92.023973 -195.538011 
L 87.874386 -195.538011 
L 83.724798 -195.538011 
L 79.575211 -195.538011 
L 75.425623 -195.538011 
L 71.276035 -195.538011 
L 67.126448 -195.538011 
L 62.97686 -195.538011 
L 58.827273 -195.538011 
z
" id="m4359fd3681" style="stroke:#4bc0c0;stroke-opacity:0.5;"/>
    </defs>
    <g clip-path="url(#p5aa3825491)">
     <use style="fill:#4bc0c0;fill-opacity:0.5;stroke:#4bc0c0;stroke-opacity:0.5;" x="0" xlink:href="#m4359fd3681" y="581.789375"/>
    </g>
   </g>
   <g id="line2d_1">
    <path clip-path="url(#p5aa3825491)" d="M 78.3716 386.152377 
L 82.785753 386.115051 
L 87.199906 386.064871 
L 91.614059 385.99788 
L 96.028212 385.909068 
L 100.442364 385.792147 
L 104.856517 385.639298 
L 109.27067 385.440883 
L 113.684823 385.185132 
L 118.098975 384.857809 
L 122.513128 384.441854 
L 126.927281 383.917036 
L 131.341434 383.259604 
L 135.755587 382.441971 
L 140.169739 381.432454 
L 144.583892 380.195083 
L 148.998045 378.689528 
L 153.412198 376.871153 
L 157.826351 374.691253 
L 162.240503 372.097484 
L 166.654656 369.034537 
L 171.068809 365.445068 
L 175.482962 361.270899 
L 179.897115 356.454515 
L 184.311267 350.940834 
L 188.72542 344.679239 
L 193.139573 337.62584 
L 197.553726 329.7459 
L 201.967879 321.016363 
L 206.382031 311.428388 
L 210.796184 300.989785 
L 215.210337 289.727247 
L 219.62449 277.688225 
L 224.038643 264.942364 
L 228.452795 251.582334 
L 232.866948 237.723982 
L 237.281101 223.505711 
L 241.695254 209.087008 
L 246.109407 194.646123 
L 250.523559 180.376892 
L 254.937712 166.484762 
L 259.351865 153.182119 
L 263.766018 140.683052 
L 268.180171 129.197722 
L 272.594323 118.926547 
L 277.008476 110.054416 
L 281.422629 102.745169 
L 285.836782 97.136572 
L 290.250935 93.336001 
L 294.665087 91.417021 
L 299.07924 91.417021 
L 303.493393 93.336001 
L 307.907546 97.136572 
L 312.321699 102.745169 
L 316.735851 110.054416 
L 321.150004 118.926547 
L 325.564157 129.197722 
L 329.97831 140.683052 
L 334.392463 153.182119 
L 338.806615 166.484762 
L 343.220768 180.376892 
L 347.634921 194.646123 
L 352.049074 209.087008 
L 356.463227 223.505711 
L 360.877379 237.723982 
L 365.291532 251.582334 
L 369.705685 264.942364 
L 374.119838 277.688225 
L 378.533991 289.727247 
L 382.948143 300.989785 
L 387.362296 311.428388 
L 391.776449 321.016363 
L 396.190602 329.7459 
L 400.604755 337.62584 
L 405.018907 344.679239 
L 409.43306 350.940834 
L 413.847213 356.454515 
L 418.261366 361.270899 
L 422.675519 365.445068 
L 427.089671 369.034537 
L 431.503824 372.097484 
L 435.917977 374.691253 
L 440.33213 376.871153 
L 444.746283 378.689528 
L 449.160435 380.195083 
L 453.574588 381.432454 
L 457.988741 382.441971 
L 462.402894 383.259604 
L 466.817046 383.917036 
L 471.231199 384.441854 
L 475.645352 384.857809 
L 480.059505 385.185132 
L 484.473658 385.440883 
L 488.88781 385.639298 
L 493.301963 385.792147 
L 497.716116 385.909068 
L 502.130269 385.99788 
L 506.544422 386.064871 
L 510.958574 386.115051 
L 515.372727 386.152377 
" style="fill:none;stroke:#ff6384;stroke-linecap:square;"/>
   </g>
   <g id="line2d_2">
    <path clip-path="url(#p5aa3825491)" d="M 80.580813 386.139371 
L 84.482342 386.097141 
L 88.383872 386.040368 
L 92.285401 385.964575 
L 96.186931 385.864094 
L 100.08846 385.73181 
L 103.98999 385.558878 
L 107.891519 385.334393 
L 111.793049 385.04504 
L 115.694578 384.674709 
L 119.596108 384.204102 
L 123.497637 383.610328 
L 127.399167 382.866516 
L 131.300696 381.941454 
L 135.202226 380.799296 
L 139.103756 379.399346 
L 143.005285 377.695976 
L 146.906815 375.638684 
L 150.808344 373.172366 
L 154.709874 370.2378 
L 158.611403 366.772413 
L 162.512933 362.711322 
L 166.414462 357.988708 
L 170.315992 352.539497 
L 174.217521 346.301371 
L 178.119051 339.217063 
L 182.02058 331.236916 
L 185.92211 322.321628 
L 189.823639 312.445114 
L 193.725169 301.597371 
L 197.626698 289.787238 
L 201.528228 277.04491 
L 205.429757 263.424078 
L 209.331287 249.003534 
L 213.232816 233.888124 
L 217.134346 218.208919 
L 221.035875 202.122504 
L 224.937405 185.809323 
L 228.838934 169.471045 
L 232.740464 153.326975 
L 236.641993 137.609553 
L 240.543523 122.559072 
L 244.445052 108.417748 
L 248.346582 95.423357 
L 252.248111 83.802649 
L 256.149641 73.764805 
L 260.05117 65.495194 
L 263.9527 59.149682 
L 267.854229 54.849752 
L 271.755759 52.678636 
L 275.657288 52.678636 
L 279.558818 54.849752 
L 283.460347 59.149682 
L 287.361877 65.495194 
L 291.263406 73.764805 
L 295.164936 83.802649 
L 299.066465 95.423357 
L 302.967995 108.417748 
L 306.869524 122.559072 
L 310.771054 137.609553 
L 314.672583 153.326975 
L 318.574113 169.471045 
L 322.475642 185.809323 
L 326.377172 202.122504 
L 330.278701 218.208919 
L 334.180231 233.888124 
L 338.08176 249.003534 
L 341.98329 263.424078 
L 345.884819 277.04491 
L 349.786349 289.787238 
L 353.687879 301.597371 
L 357.589408 312.445114 
L 361.490938 322.321628 
L 365.392467 331.236916 
L 369.293997 339.217063 
L 373.195526 346.301371 
L 377.097056 352.539497 
L 380.998585 357.988708 
L 384.900115 362.711322 
L 388.801644 366.772413 
L 392.703174 370.2378 
L 396.604703 373.172366 
L 400.506233 375.638684 
L 404.407762 377.695976 
L 408.309292 379.399346 
L 412.210821 380.799296 
L 416.112351 381.941454 
L 420.01388 382.866516 
L 423.91541 383.610328 
L 427.816939 384.204102 
L 431.718469 384.674709 
L 435.619998 385.04504 
L 439.521528 385.334393 
L 443.423057 385.558878 
L 447.324587 385.73181 
L 451.226116 385.864094 
L 455.127646 385.964575 
L 459.029175 386.040368 
L 462.930705 386.097141 
L 466.832234 386.139371 
" style="fill:none;stroke:#36a2eb;stroke-linecap:square;"/>
   </g>
   <g id="line2d_3">
    <path clip-path="url(#p5aa3825491)" d="M 58.827273 386.146066 
L 62.97686 386.10636 
L 67.126448 386.052981 
L 71.276035 385.981719 
L 75.425623 385.887244 
L 79.575211 385.762869 
L 83.724798 385.600274 
L 87.874386 385.389209 
L 92.023973 385.117153 
L 96.173561 384.76896 
L 100.323148 384.326485 
L 104.472736 383.768207 
L 108.622323 383.068859 
L 112.771911 382.199096 
L 116.921499 381.125215 
L 121.071086 379.808953 
L 125.220674 378.207408 
L 129.370261 376.273099 
L 133.519849 373.954215 
L 137.669436 371.195075 
L 141.819024 367.936844 
L 145.968611 364.118521 
L 150.118199 359.67822 
L 154.267787 354.554758 
L 158.417374 348.68954 
L 162.566962 342.028725 
L 166.716549 334.525623 
L 170.866137 326.143282 
L 175.015724 316.857176 
L 179.165312 306.657899 
L 183.314899 295.553763 
L 187.464487 283.573159 
L 191.614075 270.766566 
L 195.763662 257.208067 
L 199.91325 242.996241 
L 204.062837 228.254323 
L 208.212425 213.129537 
L 212.362012 197.79154 
L 216.5116 182.429948 
L 220.661188 167.250954 
L 224.810775 152.473103 
L 228.960363 138.322324 
L 233.10995 125.026354 
L 237.259538 112.808754 
L 241.409125 101.88272 
L 245.558713 92.444928 
L 249.7083 84.669666 
L 253.857888 78.703482 
L 258.007476 74.660597 
L 262.157063 72.619269 
L 266.306651 72.619269 
L 270.456238 74.660597 
L 274.605826 78.703482 
L 278.755413 84.669666 
L 282.905001 92.444928 
L 287.054588 101.88272 
L 291.204176 112.808754 
L 295.353764 125.026354 
L 299.503351 138.322324 
L 303.652939 152.473103 
L 307.802526 167.250954 
L 311.952114 182.429948 
L 316.101701 197.79154 
L 320.251289 213.129537 
L 324.400876 228.254323 
L 328.550464 242.996241 
L 332.700052 257.208067 
L 336.849639 270.766566 
L 340.999227 283.573159 
L 345.148814 295.553763 
L 349.298402 306.657899 
L 353.447989 316.857176 
L 357.597577 326.143282 
L 361.747165 334.525623 
L 365.896752 342.028725 
L 370.04634 348.68954 
L 374.195927 354.554758 
L 378.345515 359.67822 
L 382.495102 364.118521 
L 386.64469 367.936844 
L 390.794277 371.195075 
L 394.943865 373.954215 
L 399.093453 376.273099 
L 403.24304 378.207408 
L 407.392628 379.808953 
L 411.542215 381.125215 
L 415.691803 382.199096 
L 419.84139 383.068859 
L 423.990978 383.768207 
L 428.140565 384.326485 
L 432.290153 384.76896 
L 436.439741 385.117153 
L 440.589328 385.389209 
L 444.738916 385.600274 
L 448.888503 385.762869 
L 453.038091 385.887244 
L 457.187678 385.981719 
L 461.337266 386.052981 
L 465.486853 386.10636 
L 469.636441 386.146066 
" style="fill:none;stroke:#4bc0c0;stroke-linecap:square;"/>
   </g>
   <g id="patch_3">
    <path d="M 36 402.93 
L 538.2 402.93 
" style="fill:none;stroke:#000000;stroke-linecap:square;stroke-linejoin:miter;stroke-width:0.8;"/>
   </g>
   <g id="legend_1">
    <g id="patch_4">
     <path d="M 434.317813 109.626875 
L 528.4 109.626875 
Q 531.2 109.626875 531.2 106.826875 
L 531.2 45.8 
Q 531.2 43 528.4 43 
L 434.317813 43 
Q 431.517813 43 431.517813 45.8 
L 431.517813 106.826875 
Q 431.517813 109.626875 434.317813 109.626875 
z
" style="fill:#ffffff;opacity:0.8;stroke:#cccccc;stroke-linejoin:miter;"/>
    </g>
    <g id="patch_5">
     <path d="M 437.117813 59.237813 
L 465.117813 59.237813 
L 465.117813 49.437813 
L 437.117813 49.437813 
z
" style="fill:#ff6384;opacity:0.5;stroke:#ff6384;stroke-linejoin:miter;"/>
    </g>
    <g id="text_1">
     <!-- base_1 -->
     <defs>
      <path d="M 48.6875 27.296875 
Q 48.6875 37.203125 44.609375 42.84375 
Q 40.53125 48.484375 33.40625 48.484375 
Q 26.265625 48.484375 22.1875 42.84375 
Q 18.109375 37.203125 18.109375 27.296875 
Q 18.109375 17.390625 22.1875 11.75 
Q 26.265625 6.109375 33.40625 6.109375 
Q 40.53125 6.109375 44.609375 11.75 
Q 48.6875 17.390625 48.6875 27.296875 
z
M 18.109375 46.390625 
Q 20.953125 51.265625 25.265625 53.625 
Q 29.59375 56 35.59375 56 
Q 45.5625 56 51.78125 48.09375 
Q 58.015625 40.1875 58.015625 27.296875 
Q 58.015625 14.40625 51.78125 6.484375 
Q 45.5625 -1.421875 35.59375 -1.421875 
Q 29.59375 -1.421875 25.265625 0.953125 
Q 20.953125 3.328125 18.109375 8.203125 
L 18.109375 0 
L 9.078125 0 
L 9.078125 75.984375 
L 18.109375 75.984375 
z
" id="DejaVuSans-98"/>
      <path d="M 34.28125 27.484375 
Q 23.390625 27.484375 19.1875 25 
Q 14.984375 22.515625 14.984375 16.5 
Q 14.984375 11.71875 18.140625 8.90625 
Q 21.296875 6.109375 26.703125 6.109375 
Q 34.1875 6.109375 38.703125 11.40625 
Q 43.21875 16.703125 43.21875 25.484375 
L 43.21875 27.484375 
z
M 52.203125 31.203125 
L 52.203125 0 
L 43.21875 0 
L 43.21875 8.296875 
Q 40.140625 3.328125 35.546875 0.953125 
Q 30.953125 -1.421875 24.3125 -1.421875 
Q 15.921875 -1.421875 10.953125 3.296875 
Q 6 8.015625 6 15.921875 
Q 6 25.140625 12.171875 29.828125 
Q 18.359375 34.515625 30.609375 34.515625 
L 43.21875 34.515625 
L 43.21875 35.40625 
Q 43.21875 41.609375 39.140625 45 
Q 35.0625 48.390625 27.6875 48.390625 
Q 23 48.390625 18.546875 47.265625 
Q 14.109375 46.140625 10.015625 43.890625 
L 10.015625 52.203125 
Q 14.9375 54.109375 19.578125 55.046875 
Q 24.21875 56 28.609375 56 
Q 40.484375 56 46.34375 49.84375 
Q 52.203125 43.703125 52.203125 31.203125 
z
" id="DejaVuSans-97"/>
      <path d="M 44.28125 53.078125 
L 44.28125 44.578125 
Q 40.484375 46.53125 36.375 47.5 
Q 32.28125 48.484375 27.875 48.484375 
Q 21.1875 48.484375 17.84375 46.4375 
Q 14.5 44.390625 14.5 40.28125 
Q 14.5 37.15625 16.890625 35.375 
Q 19.28125 33.59375 26.515625 31.984375 
L 29.59375 31.296875 
Q 39.15625 29.25 43.1875 25.515625 
Q 47.21875 21.78125 47.21875 15.09375 
Q 47.21875 7.46875 41.1875 3.015625 
Q 35.15625 -1.421875 24.609375 -1.421875 
Q 20.21875 -1.421875 15.453125 -0.5625 
Q 10.6875 0.296875 5.421875 2 
L 5.421875 11.28125 
Q 10.40625 8.6875 15.234375 7.390625 
Q 20.0625 6.109375 24.8125 6.109375 
Q 31.15625 6.109375 34.5625 8.28125 
Q 37.984375 10.453125 37.984375 14.40625 
Q 37.984375 18.0625 35.515625 20.015625 
Q 33.0625 21.96875 24.703125 23.78125 
L 21.578125 24.515625 
Q 13.234375 26.265625 9.515625 29.90625 
Q 5.8125 33.546875 5.8125 39.890625 
Q 5.8125 47.609375 11.28125 51.796875 
Q 16.75 56 26.8125 56 
Q 31.78125 56 36.171875 55.265625 
Q 40.578125 54.546875 44.28125 53.078125 
z
" id="DejaVuSans-115"/>
      <path d="M 56.203125 29.59375 
L 56.203125 25.203125 
L 14.890625 25.203125 
Q 15.484375 15.921875 20.484375 11.0625 
Q 25.484375 6.203125 34.421875 6.203125 
Q 39.59375 6.203125 44.453125 7.46875 
Q 49.3125 8.734375 54.109375 11.28125 
L 54.109375 2.78125 
Q 49.265625 0.734375 44.1875 -0.34375 
Q 39.109375 -1.421875 33.890625 -1.421875 
Q 20.796875 -1.421875 13.15625 6.1875 
Q 5.515625 13.8125 5.515625 26.8125 
Q 5.515625 40.234375 12.765625 48.109375 
Q 20.015625 56 32.328125 56 
Q 43.359375 56 49.78125 48.890625 
Q 56.203125 41.796875 56.203125 29.59375 
z
M 47.21875 32.234375 
Q 47.125 39.59375 43.09375 43.984375 
Q 39.0625 48.390625 32.421875 48.390625 
Q 24.90625 48.390625 20.390625 44.140625 
Q 15.875 39.890625 15.1875 32.171875 
z
" id="DejaVuSans-101"/>
      <path d="M 50.984375 -16.609375 
L 50.984375 -23.578125 
L -0.984375 -23.578125 
L -0.984375 -16.609375 
z
" id="DejaVuSans-95"/>
      <path d="M 12.40625 8.296875 
L 28.515625 8.296875 
L 28.515625 63.921875 
L 10.984375 60.40625 
L 10.984375 69.390625 
L 28.421875 72.90625 
L 38.28125 72.90625 
L 38.28125 8.296875 
L 54.390625 8.296875 
L 54.390625 0 
L 12.40625 0 
z
" id="DejaVuSans-49"/>
     </defs>
     <g transform="translate(476.317813 59.237813)scale(0.14 -0.14)">
      <use xlink:href="#DejaVuSans-98"/>
      <use x="63.476562" xlink:href="#DejaVuSans-97"/>
      <use x="124.755859" xlink:href="#DejaVuSans-115"/>
      <use x="176.855469" xlink:href="#DejaVuSans-101"/>
      <use x="238.378906" xlink:href="#DejaVuSans-95"/>
      <use x="288.378906" xlink:href="#DejaVuSans-49"/>
     </g>
    </g>
    <g id="patch_6">
     <path d="M 437.117813 80.176563 
L 465.117813 80.176563 
L 465.117813 70.376563 
L 437.117813 70.376563 
z
" style="fill:#36a2eb;opacity:0.5;stroke:#36a2eb;stroke-linejoin:miter;"/>
    </g>
    <g id="text_2">
     <!-- base_2 -->
     <defs>
      <path d="M 19.1875 8.296875 
L 53.609375 8.296875 
L 53.609375 0 
L 7.328125 0 
L 7.328125 8.296875 
Q 12.9375 14.109375 22.625 23.890625 
Q 32.328125 33.6875 34.8125 36.53125 
Q 39.546875 41.84375 41.421875 45.53125 
Q 43.3125 49.21875 43.3125 52.78125 
Q 43.3125 58.59375 39.234375 62.25 
Q 35.15625 65.921875 28.609375 65.921875 
Q 23.96875 65.921875 18.8125 64.3125 
Q 13.671875 62.703125 7.8125 59.421875 
L 7.8125 69.390625 
Q 13.765625 71.78125 18.9375 73 
Q 24.125 74.21875 28.421875 74.21875 
Q 39.75 74.21875 46.484375 68.546875 
Q 53.21875 62.890625 53.21875 53.421875 
Q 53.21875 48.921875 51.53125 44.890625 
Q 49.859375 40.875 45.40625 35.40625 
Q 44.1875 33.984375 37.640625 27.21875 
Q 31.109375 20.453125 19.1875 8.296875 
z
" id="DejaVuSans-50"/>
     </defs>
     <g transform="translate(476.317813 80.176563)scale(0.14 -0.14)">
      <use xlink:href="#DejaVuSans-98"/>
      <use x="63.476562" xlink:href="#DejaVuSans-97"/>
      <use x="124.755859" xlink:href="#DejaVuSans-115"/>
      <use x="176.855469" xlink:href="#DejaVuSans-101"/>
      <use x="238.378906" xlink:href="#DejaVuSans-95"/>
      <use x="288.378906" xlink:href="#DejaVuSans-50"/>
     </g>
    </g>
    <g id="patch_7">
     <path d="M 437.117813 101.115313 
L 465.117813 101.115313 
L 465.117813 91.315313 
L 437.117813 91.315313 
z
" style="fill:#4bc0c0;opacity:0.5;stroke:#4bc0c0;stroke-linejoin:miter;"/>
    </g>
    <g id="text_3">
     <!-- new -->
     <defs>
      <path d="M 54.890625 33.015625 
L 54.890625 0 
L 45.90625 0 
L 45.90625 32.71875 
Q 45.90625 40.484375 42.875 44.328125 
Q 39.84375 48.1875 33.796875 48.1875 
Q 26.515625 48.1875 22.3125 43.546875 
Q 18.109375 38.921875 18.109375 30.90625 
L 18.109375 0 
L 9.078125 0 
L 9.078125 54.6875 
L 18.109375 54.6875 
L 18.109375 46.1875 
Q 21.34375 51.125 25.703125 53.5625 
Q 30.078125 56 35.796875 56 
Q 45.21875 56 50.046875 50.171875 
Q 54.890625 44.34375 54.890625 33.015625 
z
" id="DejaVuSans-110"/>
      <path d="M 4.203125 54.6875 
L 13.1875 54.6875 
L 24.421875 12.015625 
L 35.59375 54.6875 
L 46.1875 54.6875 
L 57.421875 12.015625 
L 68.609375 54.6875 
L 77.59375 54.6875 
L 63.28125 0 
L 52.6875 0 
L 40.921875 44.828125 
L 29.109375 0 
L 18.5 0 
z
" id="DejaVuSans-119"/>
     </defs>
     <g transform="translate(476.317813 101.115313)scale(0.14 -0.14)">
      <use xlink:href="#DejaVuSans-110"/>
      <use x="63.378906" xlink:href="#DejaVuSans-101"/>
      <use x="124.902344" xlink:href="#DejaVuSans-119"/>
     </g>
    </g>
   </g>
  </g>
  <g id="axes_2">
   <g id="patch_8">
    <path d="M 36 525.24 
L 538.2 525.24 
L 538.2 402.93 
L 36 402.93 
z
" style="fill:none;"/>
   </g>
   <g id="patch_9">
    <path clip-path="url(#pa35f0a58ed)" d="M 189.806888 519.680455 
L 403.93744 519.680455 
L 403.93744 497.442273 
L 189.806888 497.442273 
z
" style="fill:#ff6384;opacity:0.5;"/>
   </g>
   <g id="patch_10">
    <path clip-path="url(#pa35f0a58ed)" d="M 179.074925 475.204091 
L 368.338122 475.204091 
L 368.338122 452.965909 
L 179.074925 452.965909 
z
" style="fill:#36a2eb;opacity:0.5;"/>
   </g>
   <g id="patch_11">
    <path clip-path="url(#pa35f0a58ed)" d="M 163.583611 430.727727 
L 364.880103 430.727727 
L 364.880103 408.489545 
L 163.583611 408.489545 
z
" style="fill:#4bc0c0;opacity:0.5;"/>
   </g>
   <g id="matplotlib.axis_1">
    <g id="xtick_1">
     <g id="line2d_4">
      <defs>
       <path d="M 0 0 
L 0 3.5 
" id="mf0a683ba42" style="stroke:#000000;stroke-width:0.8;"/>
      </defs>
      <g>
       <use style="stroke:#000000;stroke-width:0.8;" x="63.708793" xlink:href="#mf0a683ba42" y="525.24"/>
      </g>
     </g>
     <g id="text_4">
      <!-- 24.0 -->
      <defs>
       <path d="M 37.796875 64.3125 
L 12.890625 25.390625 
L 37.796875 25.390625 
z
M 35.203125 72.90625 
L 47.609375 72.90625 
L 47.609375 25.390625 
L 58.015625 25.390625 
L 58.015625 17.1875 
L 47.609375 17.1875 
L 47.609375 0 
L 37.796875 0 
L 37.796875 17.1875 
L 4.890625 17.1875 
L 4.890625 26.703125 
z
" id="DejaVuSans-52"/>
       <path d="M 10.6875 12.40625 
L 21 12.40625 
L 21 0 
L 10.6875 0 
z
" id="DejaVuSans-46"/>
       <path d="M 31.78125 66.40625 
Q 24.171875 66.40625 20.328125 58.90625 
Q 16.5 51.421875 16.5 36.375 
Q 16.5 21.390625 20.328125 13.890625 
Q 24.171875 6.390625 31.78125 6.390625 
Q 39.453125 6.390625 43.28125 13.890625 
Q 47.125 21.390625 47.125 36.375 
Q 47.125 51.421875 43.28125 58.90625 
Q 39.453125 66.40625 31.78125 66.40625 
z
M 31.78125 74.21875 
Q 44.046875 74.21875 50.515625 64.515625 
Q 56.984375 54.828125 56.984375 36.375 
Q 56.984375 17.96875 50.515625 8.265625 
Q 44.046875 -1.421875 31.78125 -1.421875 
Q 19.53125 -1.421875 13.0625 8.265625 
Q 6.59375 17.96875 6.59375 36.375 
Q 6.59375 54.828125 13.0625 64.515625 
Q 19.53125 74.21875 31.78125 74.21875 
z
" id="DejaVuSans-48"/>
      </defs>
      <g transform="translate(48.122855 542.877813)scale(0.14 -0.14)">
       <use xlink:href="#DejaVuSans-50"/>
       <use x="63.623047" xlink:href="#DejaVuSans-52"/>
       <use x="127.246094" xlink:href="#DejaVuSans-46"/>
       <use x="159.033203" xlink:href="#DejaVuSans-48"/>
      </g>
     </g>
    </g>
    <g id="xtick_2">
     <g id="line2d_5">
      <g>
       <use style="stroke:#000000;stroke-width:0.8;" x="143.866717" xlink:href="#mf0a683ba42" y="525.24"/>
      </g>
     </g>
     <g id="text_5">
      <!-- 24.5 -->
      <defs>
       <path d="M 10.796875 72.90625 
L 49.515625 72.90625 
L 49.515625 64.59375 
L 19.828125 64.59375 
L 19.828125 46.734375 
Q 21.96875 47.46875 24.109375 47.828125 
Q 26.265625 48.1875 28.421875 48.1875 
Q 40.625 48.1875 47.75 41.5 
Q 54.890625 34.8125 54.890625 23.390625 
Q 54.890625 11.625 47.5625 5.09375 
Q 40.234375 -1.421875 26.90625 -1.421875 
Q 22.3125 -1.421875 17.546875 -0.640625 
Q 12.796875 0.140625 7.71875 1.703125 
L 7.71875 11.625 
Q 12.109375 9.234375 16.796875 8.0625 
Q 21.484375 6.890625 26.703125 6.890625 
Q 35.15625 6.890625 40.078125 11.328125 
Q 45.015625 15.765625 45.015625 23.390625 
Q 45.015625 31 40.078125 35.4375 
Q 35.15625 39.890625 26.703125 39.890625 
Q 22.75 39.890625 18.8125 39.015625 
Q 14.890625 38.140625 10.796875 36.28125 
z
" id="DejaVuSans-53"/>
      </defs>
      <g transform="translate(128.28078 542.877813)scale(0.14 -0.14)">
       <use xlink:href="#DejaVuSans-50"/>
       <use x="63.623047" xlink:href="#DejaVuSans-52"/>
       <use x="127.246094" xlink:href="#DejaVuSans-46"/>
       <use x="159.033203" xlink:href="#DejaVuSans-53"/>
      </g>
     </g>
    </g>
    <g id="xtick_3">
     <g id="line2d_6">
      <g>
       <use style="stroke:#000000;stroke-width:0.8;" x="224.024642" xlink:href="#mf0a683ba42" y="525.24"/>
      </g>
     </g>
     <g id="text_6">
      <!-- 25.0 -->
      <g transform="translate(208.438704 542.877813)scale(0.14 -0.14)">
       <use xlink:href="#DejaVuSans-50"/>
       <use x="63.623047" xlink:href="#DejaVuSans-53"/>
       <use x="127.246094" xlink:href="#DejaVuSans-46"/>
       <use x="159.033203" xlink:href="#DejaVuSans-48"/>
      </g>
     </g>
    </g>
    <g id="xtick_4">
     <g id="line2d_7">
      <g>
       <use style="stroke:#000000;stroke-width:0.8;" x="304.182567" xlink:href="#mf0a683ba42" y="525.24"/>
      </g>
     </g>
     <g id="text_7">
      <!-- 25.5 -->
      <g transform="translate(288.596629 542.877813)scale(0.14 -0.14)">
       <use xlink:href="#DejaVuSans-50"/>
       <use x="63.623047" xlink:href="#DejaVuSans-53"/>
       <use x="127.246094" xlink:href="#DejaVuSans-46"/>
       <use x="159.033203" xlink:href="#DejaVuSans-53"/>
      </g>
     </g>
    </g>
    <g id="xtick_5">
     <g id="line2d_8">
      <g>
       <use style="stroke:#000000;stroke-width:0.8;" x="384.340491" xlink:href="#mf0a683ba42" y="525.24"/>
      </g>
     </g>
     <g id="text_8">
      <!-- 26.0 -->
      <defs>
       <path d="M 33.015625 40.375 
Q 26.375 40.375 22.484375 35.828125 
Q 18.609375 31.296875 18.609375 23.390625 
Q 18.609375 15.53125 22.484375 10.953125 
Q 26.375 6.390625 33.015625 6.390625 
Q 39.65625 6.390625 43.53125 10.953125 
Q 47.40625 15.53125 47.40625 23.390625 
Q 47.40625 31.296875 43.53125 35.828125 
Q 39.65625 40.375 33.015625 40.375 
z
M 52.59375 71.296875 
L 52.59375 62.3125 
Q 48.875 64.0625 45.09375 64.984375 
Q 41.3125 65.921875 37.59375 65.921875 
Q 27.828125 65.921875 22.671875 59.328125 
Q 17.53125 52.734375 16.796875 39.40625 
Q 19.671875 43.65625 24.015625 45.921875 
Q 28.375 48.1875 33.59375 48.1875 
Q 44.578125 48.1875 50.953125 41.515625 
Q 57.328125 34.859375 57.328125 23.390625 
Q 57.328125 12.15625 50.6875 5.359375 
Q 44.046875 -1.421875 33.015625 -1.421875 
Q 20.359375 -1.421875 13.671875 8.265625 
Q 6.984375 17.96875 6.984375 36.375 
Q 6.984375 53.65625 15.1875 63.9375 
Q 23.390625 74.21875 37.203125 74.21875 
Q 40.921875 74.21875 44.703125 73.484375 
Q 48.484375 72.75 52.59375 71.296875 
z
" id="DejaVuSans-54"/>
      </defs>
      <g transform="translate(368.754554 542.877813)scale(0.14 -0.14)">
       <use xlink:href="#DejaVuSans-50"/>
       <use x="63.623047" xlink:href="#DejaVuSans-54"/>
       <use x="127.246094" xlink:href="#DejaVuSans-46"/>
       <use x="159.033203" xlink:href="#DejaVuSans-48"/>
      </g>
     </g>
    </g>
    <g id="xtick_6">
     <g id="line2d_9">
      <g>
       <use style="stroke:#000000;stroke-width:0.8;" x="464.498416" xlink:href="#mf0a683ba42" y="525.24"/>
      </g>
     </g>
     <g id="text_9">
      <!-- 26.5 -->
      <g transform="translate(448.912478 542.877813)scale(0.14 -0.14)">
       <use xlink:href="#DejaVuSans-50"/>
       <use x="63.623047" xlink:href="#DejaVuSans-54"/>
       <use x="127.246094" xlink:href="#DejaVuSans-46"/>
       <use x="159.033203" xlink:href="#DejaVuSans-53"/>
      </g>
     </g>
    </g>
   </g>
   <g id="line2d_10">
    <path clip-path="url(#pa35f0a58ed)" d="M 296.872164 525.24 
L 296.872164 402.93 
" style="fill:none;stroke:#ff6384;stroke-dasharray:5.55,2.4;stroke-dashoffset:0;stroke-opacity:0.8;stroke-width:1.5;"/>
   </g>
   <g id="line2d_11">
    <path clip-path="url(#pa35f0a58ed)" d="M 273.706524 525.24 
L 273.706524 402.93 
" style="fill:none;stroke:#36a2eb;stroke-dasharray:5.55,2.4;stroke-dashoffset:0;stroke-opacity:0.8;stroke-width:1.5;"/>
   </g>
   <g id="line2d_12">
    <path clip-path="url(#pa35f0a58ed)" d="M 264.231857 525.24 
L 264.231857 402.93 
" style="fill:none;stroke:#4bc0c0;stroke-dasharray:5.55,2.4;stroke-dashoffset:0;stroke-opacity:0.8;stroke-width:1.5;"/>
   </g>
   <g id="patch_12">
    <path d="M 36 525.24 
L 538.2 525.24 
" style="fill:none;stroke:#000000;stroke-linecap:square;stroke-linejoin:miter;stroke-width:0.8;"/>
   </g>
  </g>
 </g>
 <defs>
  <clipPath id="p5aa3825491">
   <rect height="366.93" width="502.2" x="36" y="36"/>
  </clipPath>
  <clipPath id="pa35f0a58ed">
   <rect height="122.31" width="502.2" x="36" y="402.93"/>
  </clipPath>
 </defs>
</svg>
