<?xml version="1.0" encoding="utf-8" standalone="no"?>
<!DOCTYPE svg PUBLIC "-//W3C//DTD SVG 1.1//EN"
  "http://www.w3.org/Graphics/SVG/1.1/DTD/svg11.dtd">
<!-- Created with matplotlib (https://matplotlib.org/) -->
<svg height="581.789375pt" version="1.1" viewBox="0 0 574.2 581.789375" width="574.2pt" xmlns="http://www.w3.org/2000/svg" xmlns:xlink="http://www.w3.org/1999/xlink">
 <defs>
  <style type="text/css">
*{stroke-linecap:butt;stroke-linejoin:round;}
  </style>
 </defs>
 <g id="figure_1">
  <g id="patch_1">
   <path d="M 0 581.789375 
L 574.2 581.789375 
L 574.2 0 
L 0 0 
z
" style="fill:none;"/>
  </g>
  <g id="axes_1">
   <g id="patch_2">
    <path d="M 36 402.93 
L 538.2 402.93 
L 538.2 36 
L 36 36 
z
" style="fill:none;"/>
   </g>
   <g id="PolyCollection_1">
    <defs>
     <path d="M 85.987141 -195.538011 
L 85.987141 -195.631602 
L 90.32437 -195.666893 
L 94.661598 -195.714337 
L 98.998826 -195.777676 
L 103.336054 -195.861647 
L 107.673282 -195.972194 
L 112.01051 -196.116711 
L 116.347738 -196.304309 
L 120.684966 -196.546118 
L 125.022195 -196.855597 
L 129.359423 -197.248876 
L 133.696651 -197.745084 
L 138.033879 -198.366677 
L 142.371107 -199.139737 
L 146.708335 -200.094221 
L 151.045563 -201.264137 
L 155.382792 -202.687618 
L 159.72002 -204.406865 
L 164.057248 -206.467929 
L 168.394476 -208.920301 
L 172.731704 -211.816272 
L 177.068932 -215.210063 
L 181.40616 -219.15668 
L 185.743389 -223.710501 
L 190.080617 -228.923608 
L 194.417845 -234.843855 
L 198.755073 -241.512742 
L 203.092301 -248.963111 
L 207.429529 -257.216762 
L 211.766757 -266.282055 
L 216.103986 -276.151602 
L 220.441214 -286.80017 
L 224.778442 -298.182891 
L 229.11567 -310.233918 
L 233.452898 -322.865634 
L 237.790126 -335.968506 
L 242.127354 -349.411676 
L 246.464583 -363.044352 
L 250.801811 -376.698 
L 255.139039 -390.189352 
L 259.476267 -403.32416 
L 263.813495 -415.901616 
L 268.150723 -427.719304 
L 272.487951 -438.578517 
L 276.82518 -448.289765 
L 281.162408 -456.678237 
L 285.499636 -463.589024 
L 289.836864 -468.891872 
L 294.174092 -472.485257 
L 298.51132 -474.299625 
L 302.848548 -474.299625 
L 307.185777 -472.485257 
L 311.523005 -468.891872 
L 315.860233 -463.589024 
L 320.197461 -456.678237 
L 324.534689 -448.289765 
L 328.871917 -438.578517 
L 333.209145 -427.719304 
L 337.546374 -415.901616 
L 341.883602 -403.32416 
L 346.22083 -390.189352 
L 350.558058 -376.698 
L 354.895286 -363.044352 
L 359.232514 -349.411676 
L 363.569742 -335.968506 
L 367.90697 -322.865634 
L 372.244199 -310.233918 
L 376.581427 -298.182891 
L 380.918655 -286.80017 
L 385.255883 -276.151602 
L 389.593111 -266.282055 
L 393.930339 -257.216762 
L 398.267567 -248.963111 
L 402.604796 -241.512742 
L 406.942024 -234.843855 
L 411.279252 -228.923608 
L 415.61648 -223.710501 
L 419.953708 -219.15668 
L 424.290936 -215.210063 
L 428.628164 -211.816272 
L 432.965393 -208.920301 
L 437.302621 -206.467929 
L 441.639849 -204.406865 
L 445.977077 -202.687618 
L 450.314305 -201.264137 
L 454.651533 -200.094221 
L 458.988761 -199.139737 
L 463.32599 -198.366677 
L 467.663218 -197.745084 
L 472.000446 -197.248876 
L 476.337674 -196.855597 
L 480.674902 -196.546118 
L 485.01213 -196.304309 
L 489.349358 -196.116711 
L 493.686587 -195.972194 
L 498.023815 -195.861647 
L 502.361043 -195.777676 
L 506.698271 -195.714337 
L 511.035499 -195.666893 
L 515.372727 -195.631602 
L 515.372727 -195.538011 
L 515.372727 -195.538011 
L 511.035499 -195.538011 
L 506.698271 -195.538011 
L 502.361043 -195.538011 
L 498.023815 -195.538011 
L 493.686587 -195.538011 
L 489.349358 -195.538011 
L 485.01213 -195.538011 
L 480.674902 -195.538011 
L 476.337674 -195.538011 
L 472.000446 -195.538011 
L 467.663218 -195.538011 
L 463.32599 -195.538011 
L 458.988761 -195.538011 
L 454.651533 -195.538011 
L 450.314305 -195.538011 
L 445.977077 -195.538011 
L 441.639849 -195.538011 
L 437.302621 -195.538011 
L 432.965393 -195.538011 
L 428.628164 -195.538011 
L 424.290936 -195.538011 
L 419.953708 -195.538011 
L 415.61648 -195.538011 
L 411.279252 -195.538011 
L 406.942024 -195.538011 
L 402.604796 -195.538011 
L 398.267567 -195.538011 
L 393.930339 -195.538011 
L 389.593111 -195.538011 
L 385.255883 -195.538011 
L 380.918655 -195.538011 
L 376.581427 -195.538011 
L 372.244199 -195.538011 
L 367.90697 -195.538011 
L 363.569742 -195.538011 
L 359.232514 -195.538011 
L 354.895286 -195.538011 
L 350.558058 -195.538011 
L 346.22083 -195.538011 
L 341.883602 -195.538011 
L 337.546374 -195.538011 
L 333.209145 -195.538011 
L 328.871917 -195.538011 
L 324.534689 -195.538011 
L 320.197461 -195.538011 
L 315.860233 -195.538011 
L 311.523005 -195.538011 
L 307.185777 -195.538011 
L 302.848548 -195.538011 
L 298.51132 -195.538011 
L 294.174092 -195.538011 
L 289.836864 -195.538011 
L 285.499636 -195.538011 
L 281.162408 -195.538011 
L 276.82518 -195.538011 
L 272.487951 -195.538011 
L 268.150723 -195.538011 
L 263.813495 -195.538011 
L 259.476267 -195.538011 
L 255.139039 -195.538011 
L 250.801811 -195.538011 
L 246.464583 -195.538011 
L 242.127354 -195.538011 
L 237.790126 -195.538011 
L 233.452898 -195.538011 
L 229.11567 -195.538011 
L 224.778442 -195.538011 
L 220.441214 -195.538011 
L 216.103986 -195.538011 
L 211.766757 -195.538011 
L 207.429529 -195.538011 
L 203.092301 -195.538011 
L 198.755073 -195.538011 
L 194.417845 -195.538011 
L 190.080617 -195.538011 
L 185.743389 -195.538011 
L 181.40616 -195.538011 
L 177.068932 -195.538011 
L 172.731704 -195.538011 
L 168.394476 -195.538011 
L 164.057248 -195.538011 
L 159.72002 -195.538011 
L 155.382792 -195.538011 
L 151.045563 -195.538011 
L 146.708335 -195.538011 
L 142.371107 -195.538011 
L 138.033879 -195.538011 
L 133.696651 -195.538011 
L 129.359423 -195.538011 
L 125.022195 -195.538011 
L 120.684966 -195.538011 
L 116.347738 -195.538011 
L 112.01051 -195.538011 
L 107.673282 -195.538011 
L 103.336054 -195.538011 
L 98.998826 -195.538011 
L 94.661598 -195.538011 
L 90.32437 -195.538011 
L 85.987141 -195.538011 
z
" id="mb321b073b6" style="stroke:#ff6384;stroke-opacity:0.5;"/>
    </defs>
    <g clip-path="url(#pca83ca7d4d)">
     <use style="fill:#ff6384;fill-opacity:0.5;stroke:#ff6384;stroke-opacity:0.5;" x="0" xlink:href="#mb321b073b6" y="581.789375"/>
    </g>
   </g>
   <g id="PolyCollection_2">
    <defs>
     <path d="M 58.827273 -195.538011 
L 58.827273 -195.650004 
L 62.451828 -195.692234 
L 66.076383 -195.749007 
L 69.700938 -195.8248 
L 73.325493 -195.925281 
L 76.950048 -196.057565 
L 80.574603 -196.230497 
L 84.199158 -196.454982 
L 87.823713 -196.744335 
L 91.448268 -197.114666 
L 95.072823 -197.585273 
L 98.697378 -198.179047 
L 102.321933 -198.922859 
L 105.946488 -199.847921 
L 109.571043 -200.990079 
L 113.195599 -202.390029 
L 116.820154 -204.093399 
L 120.444709 -206.150691 
L 124.069264 -208.617009 
L 127.693819 -211.551575 
L 131.318374 -215.016962 
L 134.942929 -219.078053 
L 138.567484 -223.800667 
L 142.192039 -229.249878 
L 145.816594 -235.488004 
L 149.441149 -242.572312 
L 153.065704 -250.552459 
L 156.690259 -259.467747 
L 160.314814 -269.344261 
L 163.939369 -280.192004 
L 167.563924 -292.002137 
L 171.188479 -304.744465 
L 174.813034 -318.365297 
L 178.43759 -332.785841 
L 182.062145 -347.901251 
L 185.6867 -363.580456 
L 189.311255 -379.666871 
L 192.93581 -395.980052 
L 196.560365 -412.31833 
L 200.18492 -428.4624 
L 203.809475 -444.179822 
L 207.43403 -459.230303 
L 211.058585 -473.371627 
L 214.68314 -486.366018 
L 218.307695 -497.986726 
L 221.93225 -508.02457 
L 225.556805 -516.294181 
L 229.18136 -522.639693 
L 232.805915 -526.939623 
L 236.43047 -529.110739 
L 240.055025 -529.110739 
L 243.67958 -526.939623 
L 247.304136 -522.639693 
L 250.928691 -516.294181 
L 254.553246 -508.02457 
L 258.177801 -497.986726 
L 261.802356 -486.366018 
L 265.426911 -473.371627 
L 269.051466 -459.230303 
L 272.676021 -444.179822 
L 276.300576 -428.4624 
L 279.925131 -412.31833 
L 283.549686 -395.980052 
L 287.174241 -379.666871 
L 290.798796 -363.580456 
L 294.423351 -347.901251 
L 298.047906 -332.785841 
L 301.672461 -318.365297 
L 305.297016 -304.744465 
L 308.921571 -292.002137 
L 312.546127 -280.192004 
L 316.170682 -269.344261 
L 319.795237 -259.467747 
L 323.419792 -250.552459 
L 327.044347 -242.572312 
L 330.668902 -235.488004 
L 334.293457 -229.249878 
L 337.918012 -223.800667 
L 341.542567 -219.078053 
L 345.167122 -215.016962 
L 348.791677 -211.551575 
L 352.416232 -208.617009 
L 356.040787 -206.150691 
L 359.665342 -204.093399 
L 363.289897 -202.390029 
L 366.914452 -200.990079 
L 370.539007 -199.847921 
L 374.163562 -198.922859 
L 377.788118 -198.179047 
L 381.412673 -197.585273 
L 385.037228 -197.114666 
L 388.661783 -196.744335 
L 392.286338 -196.454982 
L 395.910893 -196.230497 
L 399.535448 -196.057565 
L 403.160003 -195.925281 
L 406.784558 -195.8248 
L 410.409113 -195.749007 
L 414.033668 -195.692234 
L 417.658223 -195.650004 
L 417.658223 -195.538011 
L 417.658223 -195.538011 
L 414.033668 -195.538011 
L 410.409113 -195.538011 
L 406.784558 -195.538011 
L 403.160003 -195.538011 
L 399.535448 -195.538011 
L 395.910893 -195.538011 
L 392.286338 -195.538011 
L 388.661783 -195.538011 
L 385.037228 -195.538011 
L 381.412673 -195.538011 
L 377.788118 -195.538011 
L 374.163562 -195.538011 
L 370.539007 -195.538011 
L 366.914452 -195.538011 
L 363.289897 -195.538011 
L 359.665342 -195.538011 
L 356.040787 -195.538011 
L 352.416232 -195.538011 
L 348.791677 -195.538011 
L 345.167122 -195.538011 
L 341.542567 -195.538011 
L 337.918012 -195.538011 
L 334.293457 -195.538011 
L 330.668902 -195.538011 
L 327.044347 -195.538011 
L 323.419792 -195.538011 
L 319.795237 -195.538011 
L 316.170682 -195.538011 
L 312.546127 -195.538011 
L 308.921571 -195.538011 
L 305.297016 -195.538011 
L 301.672461 -195.538011 
L 298.047906 -195.538011 
L 294.423351 -195.538011 
L 290.798796 -195.538011 
L 287.174241 -195.538011 
L 283.549686 -195.538011 
L 279.925131 -195.538011 
L 276.300576 -195.538011 
L 272.676021 -195.538011 
L 269.051466 -195.538011 
L 265.426911 -195.538011 
L 261.802356 -195.538011 
L 258.177801 -195.538011 
L 254.553246 -195.538011 
L 250.928691 -195.538011 
L 247.304136 -195.538011 
L 243.67958 -195.538011 
L 240.055025 -195.538011 
L 236.43047 -195.538011 
L 232.805915 -195.538011 
L 229.18136 -195.538011 
L 225.556805 -195.538011 
L 221.93225 -195.538011 
L 218.307695 -195.538011 
L 214.68314 -195.538011 
L 211.058585 -195.538011 
L 207.43403 -195.538011 
L 203.809475 -195.538011 
L 200.18492 -195.538011 
L 196.560365 -195.538011 
L 192.93581 -195.538011 
L 189.311255 -195.538011 
L 185.6867 -195.538011 
L 182.062145 -195.538011 
L 178.43759 -195.538011 
L 174.813034 -195.538011 
L 171.188479 -195.538011 
L 167.563924 -195.538011 
L 163.939369 -195.538011 
L 160.314814 -195.538011 
L 156.690259 -195.538011 
L 153.065704 -195.538011 
L 149.441149 -195.538011 
L 145.816594 -195.538011 
L 142.192039 -195.538011 
L 138.567484 -195.538011 
L 134.942929 -195.538011 
L 131.318374 -195.538011 
L 127.693819 -195.538011 
L 124.069264 -195.538011 
L 120.444709 -195.538011 
L 116.820154 -195.538011 
L 113.195599 -195.538011 
L 109.571043 -195.538011 
L 105.946488 -195.538011 
L 102.321933 -195.538011 
L 98.697378 -195.538011 
L 95.072823 -195.538011 
L 91.448268 -195.538011 
L 87.823713 -195.538011 
L 84.199158 -195.538011 
L 80.574603 -195.538011 
L 76.950048 -195.538011 
L 73.325493 -195.538011 
L 69.700938 -195.538011 
L 66.076383 -195.538011 
L 62.451828 -195.538011 
L 58.827273 -195.538011 
z
" id="m08895d6344" style="stroke:#36a2eb;stroke-opacity:0.5;"/>
    </defs>
    <g clip-path="url(#pca83ca7d4d)">
     <use style="fill:#36a2eb;fill-opacity:0.5;stroke:#36a2eb;stroke-opacity:0.5;" x="0" xlink:href="#m08895d6344" y="581.789375"/>
    </g>
   </g>
   <g id="PolyCollection_3">
    <defs>
     <path d="M 59.696595 -195.538011 
L 59.696595 -195.643975 
L 63.527378 -195.683932 
L 67.35816 -195.737648 
L 71.188942 -195.809361 
L 75.019724 -195.904433 
L 78.850506 -196.029595 
L 82.681289 -196.193217 
L 86.512071 -196.405617 
L 90.342853 -196.679394 
L 94.173635 -197.029788 
L 98.004417 -197.47506 
L 101.835199 -198.036869 
L 105.665982 -198.740639 
L 109.496764 -199.6159 
L 113.327546 -200.696572 
L 117.158328 -202.021156 
L 120.98911 -203.632827 
L 124.819892 -205.579366 
L 128.650675 -207.912912 
L 132.481457 -210.689497 
L 136.312239 -213.968328 
L 140.143021 -217.810793 
L 143.973803 -222.27917 
L 147.804586 -227.435026 
L 151.635368 -233.337328 
L 155.46615 -240.040258 
L 159.296932 -247.5908 
L 163.127714 -256.02614 
L 166.958496 -265.37096 
L 170.789279 -275.634723 
L 174.620061 -286.809068 
L 178.450843 -298.865422 
L 182.281625 -311.752988 
L 186.112407 -325.397213 
L 189.943189 -339.698897 
L 193.773972 -354.534024 
L 197.604754 -369.75444 
L 201.435536 -385.189414 
L 205.266318 -400.648133 
L 209.0971 -415.9231 
L 212.927883 -430.794387 
L 216.758665 -445.034637 
L 220.589447 -458.414674 
L 224.420229 -470.709523 
L 228.251011 -481.704639 
L 232.081793 -491.202104 
L 235.912576 -499.026527 
L 239.743358 -505.030433 
L 243.57414 -509.09888 
L 247.404922 -511.153115 
L 251.235704 -511.153115 
L 255.066487 -509.09888 
L 258.897269 -505.030433 
L 262.728051 -499.026527 
L 266.558833 -491.202104 
L 270.389615 -481.704639 
L 274.220397 -470.709523 
L 278.05118 -458.414674 
L 281.881962 -445.034637 
L 285.712744 -430.794387 
L 289.543526 -415.9231 
L 293.374308 -400.648133 
L 297.20509 -385.189414 
L 301.035873 -369.75444 
L 304.866655 -354.534024 
L 308.697437 -339.698897 
L 312.528219 -325.397213 
L 316.359001 -311.752988 
L 320.189784 -298.865422 
L 324.020566 -286.809068 
L 327.851348 -275.634723 
L 331.68213 -265.37096 
L 335.512912 -256.02614 
L 339.343694 -247.5908 
L 343.174477 -240.040258 
L 347.005259 -233.337328 
L 350.836041 -227.435026 
L 354.666823 -222.27917 
L 358.497605 -217.810793 
L 362.328387 -213.968328 
L 366.15917 -210.689497 
L 369.989952 -207.912912 
L 373.820734 -205.579366 
L 377.651516 -203.632827 
L 381.482298 -202.021156 
L 385.313081 -200.696572 
L 389.143863 -199.6159 
L 392.974645 -198.740639 
L 396.805427 -198.036869 
L 400.636209 -197.47506 
L 404.466991 -197.029788 
L 408.297774 -196.679394 
L 412.128556 -196.405617 
L 415.959338 -196.193217 
L 419.79012 -196.029595 
L 423.620902 -195.904433 
L 427.451684 -195.809361 
L 431.282467 -195.737648 
L 435.113249 -195.683932 
L 438.944031 -195.643975 
L 438.944031 -195.538011 
L 438.944031 -195.538011 
L 435.113249 -195.538011 
L 431.282467 -195.538011 
L 427.451684 -195.538011 
L 423.620902 -195.538011 
L 419.79012 -195.538011 
L 415.959338 -195.538011 
L 412.128556 -195.538011 
L 408.297774 -195.538011 
L 404.466991 -195.538011 
L 400.636209 -195.538011 
L 396.805427 -195.538011 
L 392.974645 -195.538011 
L 389.143863 -195.538011 
L 385.313081 -195.538011 
L 381.482298 -195.538011 
L 377.651516 -195.538011 
L 373.820734 -195.538011 
L 369.989952 -195.538011 
L 366.15917 -195.538011 
L 362.328387 -195.538011 
L 358.497605 -195.538011 
L 354.666823 -195.538011 
L 350.836041 -195.538011 
L 347.005259 -195.538011 
L 343.174477 -195.538011 
L 339.343694 -195.538011 
L 335.512912 -195.538011 
L 331.68213 -195.538011 
L 327.851348 -195.538011 
L 324.020566 -195.538011 
L 320.189784 -195.538011 
L 316.359001 -195.538011 
L 312.528219 -195.538011 
L 308.697437 -195.538011 
L 304.866655 -195.538011 
L 301.035873 -195.538011 
L 297.20509 -195.538011 
L 293.374308 -195.538011 
L 289.543526 -195.538011 
L 285.712744 -195.538011 
L 281.881962 -195.538011 
L 278.05118 -195.538011 
L 274.220397 -195.538011 
L 270.389615 -195.538011 
L 266.558833 -195.538011 
L 262.728051 -195.538011 
L 258.897269 -195.538011 
L 255.066487 -195.538011 
L 251.235704 -195.538011 
L 247.404922 -195.538011 
L 243.57414 -195.538011 
L 239.743358 -195.538011 
L 235.912576 -195.538011 
L 232.081793 -195.538011 
L 228.251011 -195.538011 
L 224.420229 -195.538011 
L 220.589447 -195.538011 
L 216.758665 -195.538011 
L 212.927883 -195.538011 
L 209.0971 -195.538011 
L 205.266318 -195.538011 
L 201.435536 -195.538011 
L 197.604754 -195.538011 
L 193.773972 -195.538011 
L 189.943189 -195.538011 
L 186.112407 -195.538011 
L 182.281625 -195.538011 
L 178.450843 -195.538011 
L 174.620061 -195.538011 
L 170.789279 -195.538011 
L 166.958496 -195.538011 
L 163.127714 -195.538011 
L 159.296932 -195.538011 
L 155.46615 -195.538011 
L 151.635368 -195.538011 
L 147.804586 -195.538011 
L 143.973803 -195.538011 
L 140.143021 -195.538011 
L 136.312239 -195.538011 
L 132.481457 -195.538011 
L 128.650675 -195.538011 
L 124.819892 -195.538011 
L 120.98911 -195.538011 
L 117.158328 -195.538011 
L 113.327546 -195.538011 
L 109.496764 -195.538011 
L 105.665982 -195.538011 
L 101.835199 -195.538011 
L 98.004417 -195.538011 
L 94.173635 -195.538011 
L 90.342853 -195.538011 
L 86.512071 -195.538011 
L 82.681289 -195.538011 
L 78.850506 -195.538011 
L 75.019724 -195.538011 
L 71.188942 -195.538011 
L 67.35816 -195.538011 
L 63.527378 -195.538011 
L 59.696595 -195.538011 
z
" id="mf9513aea81" style="stroke:#4bc0c0;stroke-opacity:0.5;"/>
    </defs>
    <g clip-path="url(#pca83ca7d4d)">
     <use style="fill:#4bc0c0;fill-opacity:0.5;stroke:#4bc0c0;stroke-opacity:0.5;" x="0" xlink:href="#mf9513aea81" y="581.789375"/>
    </g>
   </g>
   <g id="line2d_1">
    <path clip-path="url(#pca83ca7d4d)" d="M 85.987141 386.157773 
L 90.32437 386.122482 
L 94.661598 386.075038 
L 98.998826 386.011699 
L 103.336054 385.927728 
L 107.673282 385.817181 
L 112.01051 385.672664 
L 116.347738 385.485066 
L 120.684966 385.243257 
L 125.022195 384.933778 
L 129.359423 384.540499 
L 133.696651 384.044291 
L 138.033879 383.422698 
L 142.371107 382.649638 
L 146.708335 381.695154 
L 151.045563 380.525238 
L 155.382792 379.101757 
L 159.72002 377.38251 
L 164.057248 375.321446 
L 168.394476 372.869074 
L 172.731704 369.973103 
L 177.068932 366.579312 
L 181.40616 362.632695 
L 185.743389 358.078874 
L 190.080617 352.865767 
L 194.417845 346.94552 
L 198.755073 340.276633 
L 203.092301 332.826264 
L 207.429529 324.572613 
L 211.766757 315.50732 
L 216.103986 305.637773 
L 220.441214 294.989205 
L 224.778442 283.606484 
L 229.11567 271.555457 
L 233.452898 258.923741 
L 237.790126 245.820869 
L 242.127354 232.377699 
L 246.464583 218.745023 
L 250.801811 205.091375 
L 255.139039 191.600023 
L 259.476267 178.465215 
L 263.813495 165.887759 
L 268.150723 154.070071 
L 272.487951 143.210858 
L 276.82518 133.49961 
L 281.162408 125.111138 
L 285.499636 118.200351 
L 289.836864 112.897503 
L 294.174092 109.304118 
L 298.51132 107.48975 
L 302.848548 107.48975 
L 307.185777 109.304118 
L 311.523005 112.897503 
L 315.860233 118.200351 
L 320.197461 125.111138 
L 324.534689 133.49961 
L 328.871917 143.210858 
L 333.209145 154.070071 
L 337.546374 165.887759 
L 341.883602 178.465215 
L 346.22083 191.600023 
L 350.558058 205.091375 
L 354.895286 218.745023 
L 359.232514 232.377699 
L 363.569742 245.820869 
L 367.90697 258.923741 
L 372.244199 271.555457 
L 376.581427 283.606484 
L 380.918655 294.989205 
L 385.255883 305.637773 
L 389.593111 315.50732 
L 393.930339 324.572613 
L 398.267567 332.826264 
L 402.604796 340.276633 
L 406.942024 346.94552 
L 411.279252 352.865767 
L 415.61648 358.078874 
L 419.953708 362.632695 
L 424.290936 366.579312 
L 428.628164 369.973103 
L 432.965393 372.869074 
L 437.302621 375.321446 
L 441.639849 377.38251 
L 445.977077 379.101757 
L 450.314305 380.525238 
L 454.651533 381.695154 
L 458.988761 382.649638 
L 463.32599 383.422698 
L 467.663218 384.044291 
L 472.000446 384.540499 
L 476.337674 384.933778 
L 480.674902 385.243257 
L 485.01213 385.485066 
L 489.349358 385.672664 
L 493.686587 385.817181 
L 498.023815 385.927728 
L 502.361043 386.011699 
L 506.698271 386.075038 
L 511.035499 386.122482 
L 515.372727 386.157773 
" style="fill:none;stroke:#ff6384;stroke-linecap:square;"/>
   </g>
   <g id="line2d_2">
    <path clip-path="url(#pca83ca7d4d)" d="M 58.827273 386.139371 
L 62.451828 386.097141 
L 66.076383 386.040368 
L 69.700938 385.964575 
L 73.325493 385.864094 
L 76.950048 385.73181 
L 80.574603 385.558878 
L 84.199158 385.334393 
L 87.823713 385.04504 
L 91.448268 384.674709 
L 95.072823 384.204102 
L 98.697378 383.610328 
L 102.321933 382.866516 
L 105.946488 381.941454 
L 109.571043 380.799296 
L 113.195599 379.399346 
L 116.820154 377.695976 
L 120.444709 375.638684 
L 124.069264 373.172366 
L 127.693819 370.2378 
L 131.318374 366.772413 
L 134.942929 362.711322 
L 138.567484 357.988708 
L 142.192039 352.539497 
L 145.816594 346.301371 
L 149.441149 339.217063 
L 153.065704 331.236916 
L 156.690259 322.321628 
L 160.314814 312.445114 
L 163.939369 301.597371 
L 167.563924 289.787238 
L 171.188479 277.04491 
L 174.813034 263.424078 
L 178.43759 249.003534 
L 182.062145 233.888124 
L 185.6867 218.208919 
L 189.311255 202.122504 
L 192.93581 185.809323 
L 196.560365 169.471045 
L 200.18492 153.326975 
L 203.809475 137.609553 
L 207.43403 122.559072 
L 211.058585 108.417748 
L 214.68314 95.423357 
L 218.307695 83.802649 
L 221.93225 73.764805 
L 225.556805 65.495194 
L 229.18136 59.149682 
L 232.805915 54.849752 
L 236.43047 52.678636 
L 240.055025 52.678636 
L 243.67958 54.849752 
L 247.304136 59.149682 
L 250.928691 65.495194 
L 254.553246 73.764805 
L 258.177801 83.802649 
L 261.802356 95.423357 
L 265.426911 108.417748 
L 269.051466 122.559072 
L 272.676021 137.609553 
L 276.300576 153.326975 
L 279.925131 169.471045 
L 283.549686 185.809323 
L 287.174241 202.122504 
L 290.798796 218.208919 
L 294.423351 233.888124 
L 298.047906 249.003534 
L 301.672461 263.424078 
L 305.297016 277.04491 
L 308.921571 289.787238 
L 312.546127 301.597371 
L 316.170682 312.445114 
L 319.795237 322.321628 
L 323.419792 331.236916 
L 327.044347 339.217063 
L 330.668902 346.301371 
L 334.293457 352.539497 
L 337.918012 357.988708 
L 341.542567 362.711322 
L 345.167122 366.772413 
L 348.791677 370.2378 
L 352.416232 373.172366 
L 356.040787 375.638684 
L 359.665342 377.695976 
L 363.289897 379.399346 
L 366.914452 380.799296 
L 370.539007 381.941454 
L 374.163562 382.866516 
L 377.788118 383.610328 
L 381.412673 384.204102 
L 385.037228 384.674709 
L 388.661783 385.04504 
L 392.286338 385.334393 
L 395.910893 385.558878 
L 399.535448 385.73181 
L 403.160003 385.864094 
L 406.784558 385.964575 
L 410.409113 386.040368 
L 414.033668 386.097141 
L 417.658223 386.139371 
" style="fill:none;stroke:#36a2eb;stroke-linecap:square;"/>
   </g>
   <g id="line2d_3">
    <path clip-path="url(#pca83ca7d4d)" d="M 59.696595 386.1454 
L 63.527378 386.105443 
L 67.35816 386.051727 
L 71.188942 385.980014 
L 75.019724 385.884942 
L 78.850506 385.75978 
L 82.681289 385.596158 
L 86.512071 385.383758 
L 90.342853 385.109981 
L 94.173635 384.759587 
L 98.004417 384.314315 
L 101.835199 383.752506 
L 105.665982 383.048736 
L 109.496764 382.173475 
L 113.327546 381.092803 
L 117.158328 379.768219 
L 120.98911 378.156548 
L 124.819892 376.210009 
L 128.650675 373.876463 
L 132.481457 371.099878 
L 136.312239 367.821047 
L 140.143021 363.978582 
L 143.973803 359.510205 
L 147.804586 354.354349 
L 151.635368 348.452047 
L 155.46615 341.749117 
L 159.296932 334.198575 
L 163.127714 325.763235 
L 166.958496 316.418415 
L 170.789279 306.154652 
L 174.620061 294.980307 
L 178.450843 282.923953 
L 182.281625 270.036387 
L 186.112407 256.392162 
L 189.943189 242.090478 
L 193.773972 227.255351 
L 197.604754 212.034935 
L 201.435536 196.599961 
L 205.266318 181.141242 
L 209.0971 165.866275 
L 212.927883 150.994988 
L 216.758665 136.754738 
L 220.589447 123.374701 
L 224.420229 111.079852 
L 228.251011 100.084736 
L 232.081793 90.587271 
L 235.912576 82.762848 
L 239.743358 76.758942 
L 243.57414 72.690495 
L 247.404922 70.63626 
L 251.235704 70.63626 
L 255.066487 72.690495 
L 258.897269 76.758942 
L 262.728051 82.762848 
L 266.558833 90.587271 
L 270.389615 100.084736 
L 274.220397 111.079852 
L 278.05118 123.374701 
L 281.881962 136.754738 
L 285.712744 150.994988 
L 289.543526 165.866275 
L 293.374308 181.141242 
L 297.20509 196.599961 
L 301.035873 212.034935 
L 304.866655 227.255351 
L 308.697437 242.090478 
L 312.528219 256.392162 
L 316.359001 270.036387 
L 320.189784 282.923953 
L 324.020566 294.980307 
L 327.851348 306.154652 
L 331.68213 316.418415 
L 335.512912 325.763235 
L 339.343694 334.198575 
L 343.174477 341.749117 
L 347.005259 348.452047 
L 350.836041 354.354349 
L 354.666823 359.510205 
L 358.497605 363.978582 
L 362.328387 367.821047 
L 366.15917 371.099878 
L 369.989952 373.876463 
L 373.820734 376.210009 
L 377.651516 378.156548 
L 381.482298 379.768219 
L 385.313081 381.092803 
L 389.143863 382.173475 
L 392.974645 383.048736 
L 396.805427 383.752506 
L 400.636209 384.314315 
L 404.466991 384.759587 
L 408.297774 385.109981 
L 412.128556 385.383758 
L 415.959338 385.596158 
L 419.79012 385.75978 
L 423.620902 385.884942 
L 427.451684 385.980014 
L 431.282467 386.051727 
L 435.113249 386.105443 
L 438.944031 386.1454 
" style="fill:none;stroke:#4bc0c0;stroke-linecap:square;"/>
   </g>
   <g id="patch_3">
    <path d="M 36 402.93 
L 538.2 402.93 
" style="fill:none;stroke:#000000;stroke-linecap:square;stroke-linejoin:miter;stroke-width:0.8;"/>
   </g>
   <g id="legend_1">
    <g id="patch_4">
     <path d="M 348.760313 109.626875 
L 528.4 109.626875 
Q 531.2 109.626875 531.2 106.826875 
L 531.2 45.8 
Q 531.2 43 528.4 43 
L 348.760313 43 
Q 345.960313 43 345.960313 45.8 
L 345.960313 106.826875 
Q 345.960313 109.626875 348.760313 109.626875 
z
" style="fill:#ffffff;opacity:0.8;stroke:#cccccc;stroke-linejoin:miter;"/>
    </g>
    <g id="patch_5">
     <path d="M 351.560313 59.237813 
L 379.560313 59.237813 
L 379.560313 49.437813 
L 351.560313 49.437813 
z
" style="fill:#ff6384;opacity:0.5;stroke:#ff6384;stroke-linejoin:miter;"/>
    </g>
    <g id="text_1">
     <!-- base -->
     <defs>
      <path d="M 48.6875 27.296875 
Q 48.6875 37.203125 44.609375 42.84375 
Q 40.53125 48.484375 33.40625 48.484375 
Q 26.265625 48.484375 22.1875 42.84375 
Q 18.109375 37.203125 18.109375 27.296875 
Q 18.109375 17.390625 22.1875 11.75 
Q 26.265625 6.109375 33.40625 6.109375 
Q 40.53125 6.109375 44.609375 11.75 
Q 48.6875 17.390625 48.6875 27.296875 
z
M 18.109375 46.390625 
Q 20.953125 51.265625 25.265625 53.625 
Q 29.59375 56 35.59375 56 
Q 45.5625 56 51.78125 48.09375 
Q 58.015625 40.1875 58.015625 27.296875 
Q 58.015625 14.40625 51.78125 6.484375 
Q 45.5625 -1.421875 35.59375 -1.421875 
Q 29.59375 -1.421875 25.265625 0.953125 
Q 20.953125 3.328125 18.109375 8.203125 
L 18.109375 0 
L 9.078125 0 
L 9.078125 75.984375 
L 18.109375 75.984375 
z
" id="DejaVuSans-98"/>
      <path d="M 34.28125 27.484375 
Q 23.390625 27.484375 19.1875 25 
Q 14.984375 22.515625 14.984375 16.5 
Q 14.984375 11.71875 18.140625 8.90625 
Q 21.296875 6.109375 26.703125 6.109375 
Q 34.1875 6.109375 38.703125 11.40625 
Q 43.21875 16.703125 43.21875 25.484375 
L 43.21875 27.484375 
z
M 52.203125 31.203125 
L 52.203125 0 
L 43.21875 0 
L 43.21875 8.296875 
Q 40.140625 3.328125 35.546875 0.953125 
Q 30.953125 -1.421875 24.3125 -1.421875 
Q 15.921875 -1.421875 10.953125 3.296875 
Q 6 8.015625 6 15.921875 
Q 6 25.140625 12.171875 29.828125 
Q 18.359375 34.515625 30.609375 34.515625 
L 43.21875 34.515625 
L 43.21875 35.40625 
Q 43.21875 41.609375 39.140625 45 
Q 35.0625 48.390625 27.6875 48.390625 
Q 23 48.390625 18.546875 47.265625 
Q 14.109375 46.140625 10.015625 43.890625 
L 10.015625 52.203125 
Q 14.9375 54.109375 19.578125 55.046875 
Q 24.21875 56 28.609375 56 
Q 40.484375 56 46.34375 49.84375 
Q 52.203125 43.703125 52.203125 31.203125 
z
" id="DejaVuSans-97"/>
      <path d="M 44.28125 53.078125 
L 44.28125 44.578125 
Q 40.484375 46.53125 36.375 47.5 
Q 32.28125 48.484375 27.875 48.484375 
Q 21.1875 48.484375 17.84375 46.4375 
Q 14.5 44.390625 14.5 40.28125 
Q 14.5 37.15625 16.890625 35.375 
Q 19.28125 33.59375 26.515625 31.984375 
L 29.59375 31.296875 
Q 39.15625 29.25 43.1875 25.515625 
Q 47.21875 21.78125 47.21875 15.09375 
Q 47.21875 7.46875 41.1875 3.015625 
Q 35.15625 -1.421875 24.609375 -1.421875 
Q 20.21875 -1.421875 15.453125 -0.5625 
Q 10.6875 0.296875 5.421875 2 
L 5.421875 11.28125 
Q 10.40625 8.6875 15.234375 7.390625 
Q 20.0625 6.109375 24.8125 6.109375 
Q 31.15625 6.109375 34.5625 8.28125 
Q 37.984375 10.453125 37.984375 14.40625 
Q 37.984375 18.0625 35.515625 20.015625 
Q 33.0625 21.96875 24.703125 23.78125 
L 21.578125 24.515625 
Q 13.234375 26.265625 9.515625 29.90625 
Q 5.8125 33.546875 5.8125 39.890625 
Q 5.8125 47.609375 11.28125 51.796875 
Q 16.75 56 26.8125 56 
Q 31.78125 56 36.171875 55.265625 
Q 40.578125 54.546875 44.28125 53.078125 
z
" id="DejaVuSans-115"/>
      <path d="M 56.203125 29.59375 
L 56.203125 25.203125 
L 14.890625 25.203125 
Q 15.484375 15.921875 20.484375 11.0625 
Q 25.484375 6.203125 34.421875 6.203125 
Q 39.59375 6.203125 44.453125 7.46875 
Q 49.3125 8.734375 54.109375 11.28125 
L 54.109375 2.78125 
Q 49.265625 0.734375 44.1875 -0.34375 
Q 39.109375 -1.421875 33.890625 -1.421875 
Q 20.796875 -1.421875 13.15625 6.1875 
Q 5.515625 13.8125 5.515625 26.8125 
Q 5.515625 40.234375 12.765625 48.109375 
Q 20.015625 56 32.328125 56 
Q 43.359375 56 49.78125 48.890625 
Q 56.203125 41.796875 56.203125 29.59375 
z
M 47.21875 32.234375 
Q 47.125 39.59375 43.09375 43.984375 
Q 39.0625 48.390625 32.421875 48.390625 
Q 24.90625 48.390625 20.390625 44.140625 
Q 15.875 39.890625 15.1875 32.171875 
z
" id="DejaVuSans-101"/>
     </defs>
     <g transform="translate(390.760313 59.237813)scale(0.14 -0.14)">
      <use xlink:href="#DejaVuSans-98"/>
      <use x="63.476562" xlink:href="#DejaVuSans-97"/>
      <use x="124.755859" xlink:href="#DejaVuSans-115"/>
      <use x="176.855469" xlink:href="#DejaVuSans-101"/>
     </g>
    </g>
    <g id="patch_6">
     <path d="M 351.560313 79.787188 
L 379.560313 79.787188 
L 379.560313 69.987188 
L 351.560313 69.987188 
z
" style="fill:#36a2eb;opacity:0.5;stroke:#36a2eb;stroke-linejoin:miter;"/>
    </g>
    <g id="text_2">
     <!-- estimation_request -->
     <defs>
      <path d="M 18.3125 70.21875 
L 18.3125 54.6875 
L 36.8125 54.6875 
L 36.8125 47.703125 
L 18.3125 47.703125 
L 18.3125 18.015625 
Q 18.3125 11.328125 20.140625 9.421875 
Q 21.96875 7.515625 27.59375 7.515625 
L 36.8125 7.515625 
L 36.8125 0 
L 27.59375 0 
Q 17.1875 0 13.234375 3.875 
Q 9.28125 7.765625 9.28125 18.015625 
L 9.28125 47.703125 
L 2.6875 47.703125 
L 2.6875 54.6875 
L 9.28125 54.6875 
L 9.28125 70.21875 
z
" id="DejaVuSans-116"/>
      <path d="M 9.421875 54.6875 
L 18.40625 54.6875 
L 18.40625 0 
L 9.421875 0 
z
M 9.421875 75.984375 
L 18.40625 75.984375 
L 18.40625 64.59375 
L 9.421875 64.59375 
z
" id="DejaVuSans-105"/>
      <path d="M 52 44.1875 
Q 55.375 50.25 60.0625 53.125 
Q 64.75 56 71.09375 56 
Q 79.640625 56 84.28125 50.015625 
Q 88.921875 44.046875 88.921875 33.015625 
L 88.921875 0 
L 79.890625 0 
L 79.890625 32.71875 
Q 79.890625 40.578125 77.09375 44.375 
Q 74.3125 48.1875 68.609375 48.1875 
Q 61.625 48.1875 57.5625 43.546875 
Q 53.515625 38.921875 53.515625 30.90625 
L 53.515625 0 
L 44.484375 0 
L 44.484375 32.71875 
Q 44.484375 40.625 41.703125 44.40625 
Q 38.921875 48.1875 33.109375 48.1875 
Q 26.21875 48.1875 22.15625 43.53125 
Q 18.109375 38.875 18.109375 30.90625 
L 18.109375 0 
L 9.078125 0 
L 9.078125 54.6875 
L 18.109375 54.6875 
L 18.109375 46.1875 
Q 21.1875 51.21875 25.484375 53.609375 
Q 29.78125 56 35.6875 56 
Q 41.65625 56 45.828125 52.96875 
Q 50 49.953125 52 44.1875 
z
" id="DejaVuSans-109"/>
      <path d="M 30.609375 48.390625 
Q 23.390625 48.390625 19.1875 42.75 
Q 14.984375 37.109375 14.984375 27.296875 
Q 14.984375 17.484375 19.15625 11.84375 
Q 23.34375 6.203125 30.609375 6.203125 
Q 37.796875 6.203125 41.984375 11.859375 
Q 46.1875 17.53125 46.1875 27.296875 
Q 46.1875 37.015625 41.984375 42.703125 
Q 37.796875 48.390625 30.609375 48.390625 
z
M 30.609375 56 
Q 42.328125 56 49.015625 48.375 
Q 55.71875 40.765625 55.71875 27.296875 
Q 55.71875 13.875 49.015625 6.21875 
Q 42.328125 -1.421875 30.609375 -1.421875 
Q 18.84375 -1.421875 12.171875 6.21875 
Q 5.515625 13.875 5.515625 27.296875 
Q 5.515625 40.765625 12.171875 48.375 
Q 18.84375 56 30.609375 56 
z
" id="DejaVuSans-111"/>
      <path d="M 54.890625 33.015625 
L 54.890625 0 
L 45.90625 0 
L 45.90625 32.71875 
Q 45.90625 40.484375 42.875 44.328125 
Q 39.84375 48.1875 33.796875 48.1875 
Q 26.515625 48.1875 22.3125 43.546875 
Q 18.109375 38.921875 18.109375 30.90625 
L 18.109375 0 
L 9.078125 0 
L 9.078125 54.6875 
L 18.109375 54.6875 
L 18.109375 46.1875 
Q 21.34375 51.125 25.703125 53.5625 
Q 30.078125 56 35.796875 56 
Q 45.21875 56 50.046875 50.171875 
Q 54.890625 44.34375 54.890625 33.015625 
z
" id="DejaVuSans-110"/>
      <path d="M 50.984375 -16.609375 
L 50.984375 -23.578125 
L -0.984375 -23.578125 
L -0.984375 -16.609375 
z
" id="DejaVuSans-95"/>
      <path d="M 41.109375 46.296875 
Q 39.59375 47.171875 37.8125 47.578125 
Q 36.03125 48 33.890625 48 
Q 26.265625 48 22.1875 43.046875 
Q 18.109375 38.09375 18.109375 28.8125 
L 18.109375 0 
L 9.078125 0 
L 9.078125 54.6875 
L 18.109375 54.6875 
L 18.109375 46.1875 
Q 20.953125 51.171875 25.484375 53.578125 
Q 30.03125 56 36.53125 56 
Q 37.453125 56 38.578125 55.875 
Q 39.703125 55.765625 41.0625 55.515625 
z
" id="DejaVuSans-114"/>
      <path d="M 14.796875 27.296875 
Q 14.796875 17.390625 18.875 11.75 
Q 22.953125 6.109375 30.078125 6.109375 
Q 37.203125 6.109375 41.296875 11.75 
Q 45.40625 17.390625 45.40625 27.296875 
Q 45.40625 37.203125 41.296875 42.84375 
Q 37.203125 48.484375 30.078125 48.484375 
Q 22.953125 48.484375 18.875 42.84375 
Q 14.796875 37.203125 14.796875 27.296875 
z
M 45.40625 8.203125 
Q 42.578125 3.328125 38.25 0.953125 
Q 33.9375 -1.421875 27.875 -1.421875 
Q 17.96875 -1.421875 11.734375 6.484375 
Q 5.515625 14.40625 5.515625 27.296875 
Q 5.515625 40.1875 11.734375 48.09375 
Q 17.96875 56 27.875 56 
Q 33.9375 56 38.25 53.625 
Q 42.578125 51.265625 45.40625 46.390625 
L 45.40625 54.6875 
L 54.390625 54.6875 
L 54.390625 -20.796875 
L 45.40625 -20.796875 
z
" id="DejaVuSans-113"/>
      <path d="M 8.5 21.578125 
L 8.5 54.6875 
L 17.484375 54.6875 
L 17.484375 21.921875 
Q 17.484375 14.15625 20.5 10.265625 
Q 23.53125 6.390625 29.59375 6.390625 
Q 36.859375 6.390625 41.078125 11.03125 
Q 45.3125 15.671875 45.3125 23.6875 
L 45.3125 54.6875 
L 54.296875 54.6875 
L 54.296875 0 
L 45.3125 0 
L 45.3125 8.40625 
Q 42.046875 3.421875 37.71875 1 
Q 33.40625 -1.421875 27.6875 -1.421875 
Q 18.265625 -1.421875 13.375 4.4375 
Q 8.5 10.296875 8.5 21.578125 
z
M 31.109375 56 
z
" id="DejaVuSans-117"/>
     </defs>
     <g transform="translate(390.760313 79.787188)scale(0.14 -0.14)">
      <use xlink:href="#DejaVuSans-101"/>
      <use x="61.523438" xlink:href="#DejaVuSans-115"/>
      <use x="113.623047" xlink:href="#DejaVuSans-116"/>
      <use x="152.832031" xlink:href="#DejaVuSans-105"/>
      <use x="180.615234" xlink:href="#DejaVuSans-109"/>
      <use x="278.027344" xlink:href="#DejaVuSans-97"/>
      <use x="339.306641" xlink:href="#DejaVuSans-116"/>
      <use x="378.515625" xlink:href="#DejaVuSans-105"/>
      <use x="406.298828" xlink:href="#DejaVuSans-111"/>
      <use x="467.480469" xlink:href="#DejaVuSans-110"/>
      <use x="530.859375" xlink:href="#DejaVuSans-95"/>
      <use x="580.859375" xlink:href="#DejaVuSans-114"/>
      <use x="621.941406" xlink:href="#DejaVuSans-101"/>
      <use x="683.464844" xlink:href="#DejaVuSans-113"/>
      <use x="746.941406" xlink:href="#DejaVuSans-117"/>
      <use x="810.320312" xlink:href="#DejaVuSans-101"/>
      <use x="871.84375" xlink:href="#DejaVuSans-115"/>
      <use x="923.943359" xlink:href="#DejaVuSans-116"/>
     </g>
    </g>
    <g id="patch_7">
     <path d="M 351.560313 100.725937 
L 379.560313 100.725937 
L 379.560313 90.925937 
L 351.560313 90.925937 
z
" style="fill:#4bc0c0;opacity:0.5;stroke:#4bc0c0;stroke-linejoin:miter;"/>
    </g>
    <g id="text_3">
     <!-- no_request -->
     <g transform="translate(390.760313 100.725937)scale(0.14 -0.14)">
      <use xlink:href="#DejaVuSans-110"/>
      <use x="63.378906" xlink:href="#DejaVuSans-111"/>
      <use x="124.560547" xlink:href="#DejaVuSans-95"/>
      <use x="174.560547" xlink:href="#DejaVuSans-114"/>
      <use x="215.642578" xlink:href="#DejaVuSans-101"/>
      <use x="277.166016" xlink:href="#DejaVuSans-113"/>
      <use x="340.642578" xlink:href="#DejaVuSans-117"/>
      <use x="404.021484" xlink:href="#DejaVuSans-101"/>
      <use x="465.544922" xlink:href="#DejaVuSans-115"/>
      <use x="517.644531" xlink:href="#DejaVuSans-116"/>
     </g>
    </g>
   </g>
  </g>
  <g id="axes_2">
   <g id="patch_8">
    <path d="M 36 525.24 
L 538.2 525.24 
L 538.2 402.93 
L 36 402.93 
z
" style="fill:none;"/>
   </g>
   <g id="patch_9">
    <path clip-path="url(#p90d592f884)" d="M 195.480466 519.680455 
L 405.879403 519.680455 
L 405.879403 497.442273 
L 195.480466 497.442273 
z
" style="fill:#ff6384;opacity:0.5;"/>
   </g>
   <g id="patch_10">
    <path clip-path="url(#p90d592f884)" d="M 150.329165 475.204091 
L 326.156331 475.204091 
L 326.156331 452.965909 
L 150.329165 452.965909 
z
" style="fill:#36a2eb;opacity:0.5;"/>
   </g>
   <g id="patch_11">
    <path clip-path="url(#p90d592f884)" d="M 156.404692 430.727727 
L 342.235935 430.727727 
L 342.235935 408.489545 
L 156.404692 408.489545 
z
" style="fill:#4bc0c0;opacity:0.5;"/>
   </g>
   <g id="matplotlib.axis_1">
    <g id="xtick_1">
     <g id="line2d_4">
      <defs>
       <path d="M 0 0 
L 0 3.5 
" id="m5d60939109" style="stroke:#000000;stroke-width:0.8;"/>
      </defs>
      <g>
       <use style="stroke:#000000;stroke-width:0.8;" x="71.072217" xlink:href="#m5d60939109" y="525.24"/>
      </g>
     </g>
     <g id="text_4">
      <!-- −1 -->
      <defs>
       <path d="M 10.59375 35.5 
L 73.1875 35.5 
L 73.1875 27.203125 
L 10.59375 27.203125 
z
" id="DejaVuSans-8722"/>
       <path d="M 12.40625 8.296875 
L 28.515625 8.296875 
L 28.515625 63.921875 
L 10.984375 60.40625 
L 10.984375 69.390625 
L 28.421875 72.90625 
L 38.28125 72.90625 
L 38.28125 8.296875 
L 54.390625 8.296875 
L 54.390625 0 
L 12.40625 0 
z
" id="DejaVuSans-49"/>
      </defs>
      <g transform="translate(60.752685 542.877813)scale(0.14 -0.14)">
       <use xlink:href="#DejaVuSans-8722"/>
       <use x="83.789062" xlink:href="#DejaVuSans-49"/>
      </g>
     </g>
    </g>
    <g id="xtick_2">
     <g id="line2d_5">
      <g>
       <use style="stroke:#000000;stroke-width:0.8;" x="171.777356" xlink:href="#m5d60939109" y="525.24"/>
      </g>
     </g>
     <g id="text_5">
      <!-- 0 -->
      <defs>
       <path d="M 31.78125 66.40625 
Q 24.171875 66.40625 20.328125 58.90625 
Q 16.5 51.421875 16.5 36.375 
Q 16.5 21.390625 20.328125 13.890625 
Q 24.171875 6.390625 31.78125 6.390625 
Q 39.453125 6.390625 43.28125 13.890625 
Q 47.125 21.390625 47.125 36.375 
Q 47.125 51.421875 43.28125 58.90625 
Q 39.453125 66.40625 31.78125 66.40625 
z
M 31.78125 74.21875 
Q 44.046875 74.21875 50.515625 64.515625 
Q 56.984375 54.828125 56.984375 36.375 
Q 56.984375 17.96875 50.515625 8.265625 
Q 44.046875 -1.421875 31.78125 -1.421875 
Q 19.53125 -1.421875 13.0625 8.265625 
Q 6.59375 17.96875 6.59375 36.375 
Q 6.59375 54.828125 13.0625 64.515625 
Q 19.53125 74.21875 31.78125 74.21875 
z
" id="DejaVuSans-48"/>
      </defs>
      <g transform="translate(167.323606 542.877813)scale(0.14 -0.14)">
       <use xlink:href="#DejaVuSans-48"/>
      </g>
     </g>
    </g>
    <g id="xtick_3">
     <g id="line2d_6">
      <g>
       <use style="stroke:#000000;stroke-width:0.8;" x="272.482495" xlink:href="#m5d60939109" y="525.24"/>
      </g>
     </g>
     <g id="text_6">
      <!-- 1 -->
      <g transform="translate(268.028745 542.877813)scale(0.14 -0.14)">
       <use xlink:href="#DejaVuSans-49"/>
      </g>
     </g>
    </g>
    <g id="xtick_4">
     <g id="line2d_7">
      <g>
       <use style="stroke:#000000;stroke-width:0.8;" x="373.187635" xlink:href="#m5d60939109" y="525.24"/>
      </g>
     </g>
     <g id="text_7">
      <!-- 2 -->
      <defs>
       <path d="M 19.1875 8.296875 
L 53.609375 8.296875 
L 53.609375 0 
L 7.328125 0 
L 7.328125 8.296875 
Q 12.9375 14.109375 22.625 23.890625 
Q 32.328125 33.6875 34.8125 36.53125 
Q 39.546875 41.84375 41.421875 45.53125 
Q 43.3125 49.21875 43.3125 52.78125 
Q 43.3125 58.59375 39.234375 62.25 
Q 35.15625 65.921875 28.609375 65.921875 
Q 23.96875 65.921875 18.8125 64.3125 
Q 13.671875 62.703125 7.8125 59.421875 
L 7.8125 69.390625 
Q 13.765625 71.78125 18.9375 73 
Q 24.125 74.21875 28.421875 74.21875 
Q 39.75 74.21875 46.484375 68.546875 
Q 53.21875 62.890625 53.21875 53.421875 
Q 53.21875 48.921875 51.53125 44.890625 
Q 49.859375 40.875 45.40625 35.40625 
Q 44.1875 33.984375 37.640625 27.21875 
Q 31.109375 20.453125 19.1875 8.296875 
z
" id="DejaVuSans-50"/>
      </defs>
      <g transform="translate(368.733885 542.877813)scale(0.14 -0.14)">
       <use xlink:href="#DejaVuSans-50"/>
      </g>
     </g>
    </g>
    <g id="xtick_5">
     <g id="line2d_8">
      <g>
       <use style="stroke:#000000;stroke-width:0.8;" x="473.892774" xlink:href="#m5d60939109" y="525.24"/>
      </g>
     </g>
     <g id="text_8">
      <!-- 3 -->
      <defs>
       <path d="M 40.578125 39.3125 
Q 47.65625 37.796875 51.625 33 
Q 55.609375 28.21875 55.609375 21.1875 
Q 55.609375 10.40625 48.1875 4.484375 
Q 40.765625 -1.421875 27.09375 -1.421875 
Q 22.515625 -1.421875 17.65625 -0.515625 
Q 12.796875 0.390625 7.625 2.203125 
L 7.625 11.71875 
Q 11.71875 9.328125 16.59375 8.109375 
Q 21.484375 6.890625 26.8125 6.890625 
Q 36.078125 6.890625 40.9375 10.546875 
Q 45.796875 14.203125 45.796875 21.1875 
Q 45.796875 27.640625 41.28125 31.265625 
Q 36.765625 34.90625 28.71875 34.90625 
L 20.21875 34.90625 
L 20.21875 43.015625 
L 29.109375 43.015625 
Q 36.375 43.015625 40.234375 45.921875 
Q 44.09375 48.828125 44.09375 54.296875 
Q 44.09375 59.90625 40.109375 62.90625 
Q 36.140625 65.921875 28.71875 65.921875 
Q 24.65625 65.921875 20.015625 65.03125 
Q 15.375 64.15625 9.8125 62.3125 
L 9.8125 71.09375 
Q 15.4375 72.65625 20.34375 73.4375 
Q 25.25 74.21875 29.59375 74.21875 
Q 40.828125 74.21875 47.359375 69.109375 
Q 53.90625 64.015625 53.90625 55.328125 
Q 53.90625 49.265625 50.4375 45.09375 
Q 46.96875 40.921875 40.578125 39.3125 
z
" id="DejaVuSans-51"/>
      </defs>
      <g transform="translate(469.439024 542.877813)scale(0.14 -0.14)">
       <use xlink:href="#DejaVuSans-51"/>
      </g>
     </g>
    </g>
   </g>
   <g id="line2d_9">
    <path clip-path="url(#p90d592f884)" d="M 300.679934 525.24 
L 300.679934 402.93 
" style="fill:none;stroke:#ff6384;stroke-dasharray:5.55,2.4;stroke-dashoffset:0;stroke-opacity:0.8;stroke-width:1.5;"/>
   </g>
   <g id="line2d_10">
    <path clip-path="url(#p90d592f884)" d="M 238.242748 525.24 
L 238.242748 402.93 
" style="fill:none;stroke:#36a2eb;stroke-dasharray:5.55,2.4;stroke-dashoffset:0;stroke-opacity:0.8;stroke-width:1.5;"/>
   </g>
   <g id="line2d_11">
    <path clip-path="url(#p90d592f884)" d="M 249.320313 525.24 
L 249.320313 402.93 
" style="fill:none;stroke:#4bc0c0;stroke-dasharray:5.55,2.4;stroke-dashoffset:0;stroke-opacity:0.8;stroke-width:1.5;"/>
   </g>
   <g id="patch_12">
    <path d="M 36 525.24 
L 538.2 525.24 
" style="fill:none;stroke:#000000;stroke-linecap:square;stroke-linejoin:miter;stroke-width:0.8;"/>
   </g>
  </g>
 </g>
 <defs>
  <clipPath id="pca83ca7d4d">
   <rect height="366.93" width="502.2" x="36" y="36"/>
  </clipPath>
  <clipPath id="p90d592f884">
   <rect height="122.31" width="502.2" x="36" y="402.93"/>
  </clipPath>
 </defs>
</svg>
