<?xml version="1.0" encoding="utf-8" standalone="no"?>
<!DOCTYPE svg PUBLIC "-//W3C//DTD SVG 1.1//EN"
  "http://www.w3.org/Graphics/SVG/1.1/DTD/svg11.dtd">
<!-- Created with matplotlib (https://matplotlib.org/) -->
<svg height="581.789375pt" version="1.1" viewBox="0 0 574.2 581.789375" width="574.2pt" xmlns="http://www.w3.org/2000/svg" xmlns:xlink="http://www.w3.org/1999/xlink">
 <defs>
  <style type="text/css">
*{stroke-linecap:butt;stroke-linejoin:round;}
  </style>
 </defs>
 <g id="figure_1">
  <g id="patch_1">
   <path d="M 0 581.789375 
L 574.2 581.789375 
L 574.2 0 
L 0 0 
z
" style="fill:none;"/>
  </g>
  <g id="axes_1">
   <g id="patch_2">
    <path d="M 36 402.93 
L 538.2 402.93 
L 538.2 36 
L 36 36 
z
" style="fill:none;"/>
   </g>
   <g id="PolyCollection_1">
    <defs>
     <path d="M 87.62844 -195.538011 
L 87.62844 -195.648286 
L 91.949089 -195.689869 
L 96.269739 -195.74577 
L 100.590388 -195.820401 
L 104.911037 -195.919341 
L 109.231687 -196.049595 
L 113.552336 -196.219875 
L 117.872985 -196.440916 
L 122.193635 -196.725831 
L 126.514284 -197.090482 
L 130.834933 -197.55387 
L 135.155583 -198.138536 
L 139.476232 -198.870939 
L 143.796882 -199.781811 
L 148.117531 -200.90645 
L 152.43818 -202.284925 
L 156.75883 -203.962168 
L 161.079479 -205.987902 
L 165.400128 -208.41639 
L 169.720778 -211.305941 
L 174.041427 -214.718173 
L 178.362077 -218.71697 
L 182.682726 -223.367144 
L 187.003375 -228.732769 
L 191.324025 -234.875208 
L 195.644674 -241.850849 
L 199.965323 -249.708588 
L 204.285973 -258.487123 
L 208.606622 -268.212141 
L 212.927271 -278.893489 
L 217.247921 -290.522467 
L 221.56857 -303.069339 
L 225.88922 -316.48124 
L 230.209869 -330.680586 
L 234.530518 -345.564139 
L 238.851168 -361.002839 
L 243.171817 -376.842503 
L 247.492466 -392.905456 
L 251.813116 -408.993119 
L 256.133765 -424.889554 
L 260.454415 -440.365885 
L 264.775064 -455.185506 
L 269.095713 -469.109915 
L 273.416363 -481.904984 
L 277.737012 -493.347441 
L 282.057661 -503.231313 
L 286.378311 -511.374077 
L 290.69896 -517.622254 
L 295.019609 -521.856227 
L 299.340259 -523.99404 
L 303.660908 -523.99404 
L 307.981558 -521.856227 
L 312.302207 -517.622254 
L 316.622856 -511.374077 
L 320.943506 -503.231313 
L 325.264155 -493.347441 
L 329.584804 -481.904984 
L 333.905454 -469.109915 
L 338.226103 -455.185506 
L 342.546753 -440.365885 
L 346.867402 -424.889554 
L 351.188051 -408.993119 
L 355.508701 -392.905456 
L 359.82935 -376.842503 
L 364.149999 -361.002839 
L 368.470649 -345.564139 
L 372.791298 -330.680586 
L 377.111947 -316.48124 
L 381.432597 -303.069339 
L 385.753246 -290.522467 
L 390.073896 -278.893489 
L 394.394545 -268.212141 
L 398.715194 -258.487123 
L 403.035844 -249.708588 
L 407.356493 -241.850849 
L 411.677142 -234.875208 
L 415.997792 -228.732769 
L 420.318441 -223.367144 
L 424.639091 -218.71697 
L 428.95974 -214.718173 
L 433.280389 -211.305941 
L 437.601039 -208.41639 
L 441.921688 -205.987902 
L 446.242337 -203.962168 
L 450.562987 -202.284925 
L 454.883636 -200.90645 
L 459.204285 -199.781811 
L 463.524935 -198.870939 
L 467.845584 -198.138536 
L 472.166234 -197.55387 
L 476.486883 -197.090482 
L 480.807532 -196.725831 
L 485.128182 -196.440916 
L 489.448831 -196.219875 
L 493.76948 -196.049595 
L 498.09013 -195.919341 
L 502.410779 -195.820401 
L 506.731429 -195.74577 
L 511.052078 -195.689869 
L 515.372727 -195.648286 
L 515.372727 -195.538011 
L 515.372727 -195.538011 
L 511.052078 -195.538011 
L 506.731429 -195.538011 
L 502.410779 -195.538011 
L 498.09013 -195.538011 
L 493.76948 -195.538011 
L 489.448831 -195.538011 
L 485.128182 -195.538011 
L 480.807532 -195.538011 
L 476.486883 -195.538011 
L 472.166234 -195.538011 
L 467.845584 -195.538011 
L 463.524935 -195.538011 
L 459.204285 -195.538011 
L 454.883636 -195.538011 
L 450.562987 -195.538011 
L 446.242337 -195.538011 
L 441.921688 -195.538011 
L 437.601039 -195.538011 
L 433.280389 -195.538011 
L 428.95974 -195.538011 
L 424.639091 -195.538011 
L 420.318441 -195.538011 
L 415.997792 -195.538011 
L 411.677142 -195.538011 
L 407.356493 -195.538011 
L 403.035844 -195.538011 
L 398.715194 -195.538011 
L 394.394545 -195.538011 
L 390.073896 -195.538011 
L 385.753246 -195.538011 
L 381.432597 -195.538011 
L 377.111947 -195.538011 
L 372.791298 -195.538011 
L 368.470649 -195.538011 
L 364.149999 -195.538011 
L 359.82935 -195.538011 
L 355.508701 -195.538011 
L 351.188051 -195.538011 
L 346.867402 -195.538011 
L 342.546753 -195.538011 
L 338.226103 -195.538011 
L 333.905454 -195.538011 
L 329.584804 -195.538011 
L 325.264155 -195.538011 
L 320.943506 -195.538011 
L 316.622856 -195.538011 
L 312.302207 -195.538011 
L 307.981558 -195.538011 
L 303.660908 -195.538011 
L 299.340259 -195.538011 
L 295.019609 -195.538011 
L 290.69896 -195.538011 
L 286.378311 -195.538011 
L 282.057661 -195.538011 
L 277.737012 -195.538011 
L 273.416363 -195.538011 
L 269.095713 -195.538011 
L 264.775064 -195.538011 
L 260.454415 -195.538011 
L 256.133765 -195.538011 
L 251.813116 -195.538011 
L 247.492466 -195.538011 
L 243.171817 -195.538011 
L 238.851168 -195.538011 
L 234.530518 -195.538011 
L 230.209869 -195.538011 
L 225.88922 -195.538011 
L 221.56857 -195.538011 
L 217.247921 -195.538011 
L 212.927271 -195.538011 
L 208.606622 -195.538011 
L 204.285973 -195.538011 
L 199.965323 -195.538011 
L 195.644674 -195.538011 
L 191.324025 -195.538011 
L 187.003375 -195.538011 
L 182.682726 -195.538011 
L 178.362077 -195.538011 
L 174.041427 -195.538011 
L 169.720778 -195.538011 
L 165.400128 -195.538011 
L 161.079479 -195.538011 
L 156.75883 -195.538011 
L 152.43818 -195.538011 
L 148.117531 -195.538011 
L 143.796882 -195.538011 
L 139.476232 -195.538011 
L 135.155583 -195.538011 
L 130.834933 -195.538011 
L 126.514284 -195.538011 
L 122.193635 -195.538011 
L 117.872985 -195.538011 
L 113.552336 -195.538011 
L 109.231687 -195.538011 
L 104.911037 -195.538011 
L 100.590388 -195.538011 
L 96.269739 -195.538011 
L 91.949089 -195.538011 
L 87.62844 -195.538011 
z
" id="m23fa7ccf6d" style="stroke:#ff6384;stroke-opacity:0.5;"/>
    </defs>
    <g clip-path="url(#pb26c1575fb)">
     <use style="fill:#ff6384;fill-opacity:0.5;stroke:#ff6384;stroke-opacity:0.5;" x="0" xlink:href="#m23fa7ccf6d" y="581.789375"/>
    </g>
   </g>
   <g id="PolyCollection_2">
    <defs>
     <path d="M 63.802706 -195.538011 
L 63.802706 -195.649103 
L 68.091591 -195.690993 
L 72.380477 -195.747309 
L 76.669362 -195.822492 
L 80.958247 -195.922165 
L 85.247132 -196.053384 
L 89.536017 -196.224925 
L 93.824902 -196.447603 
L 98.113787 -196.734628 
L 102.402672 -197.101979 
L 106.691557 -197.5688 
L 110.980442 -198.157796 
L 115.269327 -198.895623 
L 119.558212 -199.813241 
L 123.847097 -200.946209 
L 128.135982 -202.334894 
L 132.424867 -204.024558 
L 136.713752 -206.065296 
L 141.002637 -208.511769 
L 145.291522 -211.422722 
L 149.580407 -214.860225 
L 153.869292 -218.888638 
L 158.158178 -223.573252 
L 162.447063 -228.978616 
L 166.735948 -235.166547 
L 171.024833 -242.193851 
L 175.313718 -250.109786 
L 179.602603 -258.953337 
L 183.891488 -268.750379 
L 188.180373 -279.510836 
L 192.469258 -291.22594 
L 196.758143 -303.865736 
L 201.047028 -317.376969 
L 205.335913 -331.681478 
L 209.624798 -346.675262 
L 213.913683 -362.228304 
L 218.202568 -378.18528 
L 222.491453 -394.367198 
L 226.780338 -410.574009 
L 231.069223 -426.588176 
L 235.358108 -442.179128 
L 239.646993 -457.108506 
L 243.935879 -471.136041 
L 248.224764 -484.025874 
L 252.513649 -495.553076 
L 256.802534 -505.51015 
L 261.091419 -513.71322 
L 265.380304 -520.007673 
L 269.669189 -524.273004 
L 273.958074 -526.426649 
L 278.246959 -526.426649 
L 282.535844 -524.273004 
L 286.824729 -520.007673 
L 291.113614 -513.71322 
L 295.402499 -505.51015 
L 299.691384 -495.553076 
L 303.980269 -484.025874 
L 308.269154 -471.136041 
L 312.558039 -457.108506 
L 316.846924 -442.179128 
L 321.135809 -426.588176 
L 325.424695 -410.574009 
L 329.71358 -394.367198 
L 334.002465 -378.18528 
L 338.29135 -362.228304 
L 342.580235 -346.675262 
L 346.86912 -331.681478 
L 351.158005 -317.376969 
L 355.44689 -303.865736 
L 359.735775 -291.22594 
L 364.02466 -279.510836 
L 368.313545 -268.750379 
L 372.60243 -258.953337 
L 376.891315 -250.109786 
L 381.1802 -242.193851 
L 385.469085 -235.166547 
L 389.75797 -228.978616 
L 394.046855 -223.573252 
L 398.33574 -218.888638 
L 402.624625 -214.860225 
L 406.91351 -211.422722 
L 411.202396 -208.511769 
L 415.491281 -206.065296 
L 419.780166 -204.024558 
L 424.069051 -202.334894 
L 428.357936 -200.946209 
L 432.646821 -199.813241 
L 436.935706 -198.895623 
L 441.224591 -198.157796 
L 445.513476 -197.5688 
L 449.802361 -197.101979 
L 454.091246 -196.734628 
L 458.380131 -196.447603 
L 462.669016 -196.224925 
L 466.957901 -196.053384 
L 471.246786 -195.922165 
L 475.535671 -195.822492 
L 479.824556 -195.747309 
L 484.113441 -195.690993 
L 488.402326 -195.649103 
L 488.402326 -195.538011 
L 488.402326 -195.538011 
L 484.113441 -195.538011 
L 479.824556 -195.538011 
L 475.535671 -195.538011 
L 471.246786 -195.538011 
L 466.957901 -195.538011 
L 462.669016 -195.538011 
L 458.380131 -195.538011 
L 454.091246 -195.538011 
L 449.802361 -195.538011 
L 445.513476 -195.538011 
L 441.224591 -195.538011 
L 436.935706 -195.538011 
L 432.646821 -195.538011 
L 428.357936 -195.538011 
L 424.069051 -195.538011 
L 419.780166 -195.538011 
L 415.491281 -195.538011 
L 411.202396 -195.538011 
L 406.91351 -195.538011 
L 402.624625 -195.538011 
L 398.33574 -195.538011 
L 394.046855 -195.538011 
L 389.75797 -195.538011 
L 385.469085 -195.538011 
L 381.1802 -195.538011 
L 376.891315 -195.538011 
L 372.60243 -195.538011 
L 368.313545 -195.538011 
L 364.02466 -195.538011 
L 359.735775 -195.538011 
L 355.44689 -195.538011 
L 351.158005 -195.538011 
L 346.86912 -195.538011 
L 342.580235 -195.538011 
L 338.29135 -195.538011 
L 334.002465 -195.538011 
L 329.71358 -195.538011 
L 325.424695 -195.538011 
L 321.135809 -195.538011 
L 316.846924 -195.538011 
L 312.558039 -195.538011 
L 308.269154 -195.538011 
L 303.980269 -195.538011 
L 299.691384 -195.538011 
L 295.402499 -195.538011 
L 291.113614 -195.538011 
L 286.824729 -195.538011 
L 282.535844 -195.538011 
L 278.246959 -195.538011 
L 273.958074 -195.538011 
L 269.669189 -195.538011 
L 265.380304 -195.538011 
L 261.091419 -195.538011 
L 256.802534 -195.538011 
L 252.513649 -195.538011 
L 248.224764 -195.538011 
L 243.935879 -195.538011 
L 239.646993 -195.538011 
L 235.358108 -195.538011 
L 231.069223 -195.538011 
L 226.780338 -195.538011 
L 222.491453 -195.538011 
L 218.202568 -195.538011 
L 213.913683 -195.538011 
L 209.624798 -195.538011 
L 205.335913 -195.538011 
L 201.047028 -195.538011 
L 196.758143 -195.538011 
L 192.469258 -195.538011 
L 188.180373 -195.538011 
L 183.891488 -195.538011 
L 179.602603 -195.538011 
L 175.313718 -195.538011 
L 171.024833 -195.538011 
L 166.735948 -195.538011 
L 162.447063 -195.538011 
L 158.158178 -195.538011 
L 153.869292 -195.538011 
L 149.580407 -195.538011 
L 145.291522 -195.538011 
L 141.002637 -195.538011 
L 136.713752 -195.538011 
L 132.424867 -195.538011 
L 128.135982 -195.538011 
L 123.847097 -195.538011 
L 119.558212 -195.538011 
L 115.269327 -195.538011 
L 110.980442 -195.538011 
L 106.691557 -195.538011 
L 102.402672 -195.538011 
L 98.113787 -195.538011 
L 93.824902 -195.538011 
L 89.536017 -195.538011 
L 85.247132 -195.538011 
L 80.958247 -195.538011 
L 76.669362 -195.538011 
L 72.380477 -195.538011 
L 68.091591 -195.538011 
L 63.802706 -195.538011 
z
" id="m891f163844" style="stroke:#36a2eb;stroke-opacity:0.5;"/>
    </defs>
    <g clip-path="url(#pb26c1575fb)">
     <use style="fill:#36a2eb;fill-opacity:0.5;stroke:#36a2eb;stroke-opacity:0.5;" x="0" xlink:href="#m891f163844" y="581.789375"/>
    </g>
   </g>
   <g id="PolyCollection_3">
    <defs>
     <path d="M 58.827273 -195.538011 
L 58.827273 -195.650004 
L 63.081647 -195.692234 
L 67.336022 -195.749007 
L 71.590396 -195.8248 
L 75.844771 -195.925281 
L 80.099146 -196.057565 
L 84.35352 -196.230497 
L 88.607895 -196.454982 
L 92.862269 -196.744335 
L 97.116644 -197.114666 
L 101.371019 -197.585273 
L 105.625393 -198.179047 
L 109.879768 -198.922859 
L 114.134142 -199.847921 
L 118.388517 -200.990079 
L 122.642891 -202.390029 
L 126.897266 -204.093399 
L 131.151641 -206.150691 
L 135.406015 -208.617009 
L 139.66039 -211.551575 
L 143.914764 -215.016962 
L 148.169139 -219.078053 
L 152.423514 -223.800667 
L 156.677888 -229.249878 
L 160.932263 -235.488004 
L 165.186637 -242.572312 
L 169.441012 -250.552459 
L 173.695386 -259.467747 
L 177.949761 -269.344261 
L 182.204136 -280.192004 
L 186.45851 -292.002137 
L 190.712885 -304.744465 
L 194.967259 -318.365297 
L 199.221634 -332.785841 
L 203.476009 -347.901251 
L 207.730383 -363.580456 
L 211.984758 -379.666871 
L 216.239132 -395.980052 
L 220.493507 -412.31833 
L 224.747881 -428.4624 
L 229.002256 -444.179822 
L 233.256631 -459.230303 
L 237.511005 -473.371627 
L 241.76538 -486.366018 
L 246.019754 -497.986726 
L 250.274129 -508.02457 
L 254.528504 -516.294181 
L 258.782878 -522.639693 
L 263.037253 -526.939623 
L 267.291627 -529.110739 
L 271.546002 -529.110739 
L 275.800376 -526.939623 
L 280.054751 -522.639693 
L 284.309126 -516.294181 
L 288.5635 -508.02457 
L 292.817875 -497.986726 
L 297.072249 -486.366018 
L 301.326624 -473.371627 
L 305.580999 -459.230303 
L 309.835373 -444.179822 
L 314.089748 -428.4624 
L 318.344122 -412.31833 
L 322.598497 -395.980052 
L 326.852871 -379.666871 
L 331.107246 -363.580456 
L 335.361621 -347.901251 
L 339.615995 -332.785841 
L 343.87037 -318.365297 
L 348.124744 -304.744465 
L 352.379119 -292.002137 
L 356.633493 -280.192004 
L 360.887868 -269.344261 
L 365.142243 -259.467747 
L 369.396617 -250.552459 
L 373.650992 -242.572312 
L 377.905366 -235.488004 
L 382.159741 -229.249878 
L 386.414116 -223.800667 
L 390.66849 -219.078053 
L 394.922865 -215.016962 
L 399.177239 -211.551575 
L 403.431614 -208.617009 
L 407.685988 -206.150691 
L 411.940363 -204.093399 
L 416.194738 -202.390029 
L 420.449112 -200.990079 
L 424.703487 -199.847921 
L 428.957861 -198.922859 
L 433.212236 -198.179047 
L 437.466611 -197.585273 
L 441.720985 -197.114666 
L 445.97536 -196.744335 
L 450.229734 -196.454982 
L 454.484109 -196.230497 
L 458.738483 -196.057565 
L 462.992858 -195.925281 
L 467.247233 -195.8248 
L 471.501607 -195.749007 
L 475.755982 -195.692234 
L 480.010356 -195.650004 
L 480.010356 -195.538011 
L 480.010356 -195.538011 
L 475.755982 -195.538011 
L 471.501607 -195.538011 
L 467.247233 -195.538011 
L 462.992858 -195.538011 
L 458.738483 -195.538011 
L 454.484109 -195.538011 
L 450.229734 -195.538011 
L 445.97536 -195.538011 
L 441.720985 -195.538011 
L 437.466611 -195.538011 
L 433.212236 -195.538011 
L 428.957861 -195.538011 
L 424.703487 -195.538011 
L 420.449112 -195.538011 
L 416.194738 -195.538011 
L 411.940363 -195.538011 
L 407.685988 -195.538011 
L 403.431614 -195.538011 
L 399.177239 -195.538011 
L 394.922865 -195.538011 
L 390.66849 -195.538011 
L 386.414116 -195.538011 
L 382.159741 -195.538011 
L 377.905366 -195.538011 
L 373.650992 -195.538011 
L 369.396617 -195.538011 
L 365.142243 -195.538011 
L 360.887868 -195.538011 
L 356.633493 -195.538011 
L 352.379119 -195.538011 
L 348.124744 -195.538011 
L 343.87037 -195.538011 
L 339.615995 -195.538011 
L 335.361621 -195.538011 
L 331.107246 -195.538011 
L 326.852871 -195.538011 
L 322.598497 -195.538011 
L 318.344122 -195.538011 
L 314.089748 -195.538011 
L 309.835373 -195.538011 
L 305.580999 -195.538011 
L 301.326624 -195.538011 
L 297.072249 -195.538011 
L 292.817875 -195.538011 
L 288.5635 -195.538011 
L 284.309126 -195.538011 
L 280.054751 -195.538011 
L 275.800376 -195.538011 
L 271.546002 -195.538011 
L 267.291627 -195.538011 
L 263.037253 -195.538011 
L 258.782878 -195.538011 
L 254.528504 -195.538011 
L 250.274129 -195.538011 
L 246.019754 -195.538011 
L 241.76538 -195.538011 
L 237.511005 -195.538011 
L 233.256631 -195.538011 
L 229.002256 -195.538011 
L 224.747881 -195.538011 
L 220.493507 -195.538011 
L 216.239132 -195.538011 
L 211.984758 -195.538011 
L 207.730383 -195.538011 
L 203.476009 -195.538011 
L 199.221634 -195.538011 
L 194.967259 -195.538011 
L 190.712885 -195.538011 
L 186.45851 -195.538011 
L 182.204136 -195.538011 
L 177.949761 -195.538011 
L 173.695386 -195.538011 
L 169.441012 -195.538011 
L 165.186637 -195.538011 
L 160.932263 -195.538011 
L 156.677888 -195.538011 
L 152.423514 -195.538011 
L 148.169139 -195.538011 
L 143.914764 -195.538011 
L 139.66039 -195.538011 
L 135.406015 -195.538011 
L 131.151641 -195.538011 
L 126.897266 -195.538011 
L 122.642891 -195.538011 
L 118.388517 -195.538011 
L 114.134142 -195.538011 
L 109.879768 -195.538011 
L 105.625393 -195.538011 
L 101.371019 -195.538011 
L 97.116644 -195.538011 
L 92.862269 -195.538011 
L 88.607895 -195.538011 
L 84.35352 -195.538011 
L 80.099146 -195.538011 
L 75.844771 -195.538011 
L 71.590396 -195.538011 
L 67.336022 -195.538011 
L 63.081647 -195.538011 
L 58.827273 -195.538011 
z
" id="mcda10cab14" style="stroke:#4bc0c0;stroke-opacity:0.5;"/>
    </defs>
    <g clip-path="url(#pb26c1575fb)">
     <use style="fill:#4bc0c0;fill-opacity:0.5;stroke:#4bc0c0;stroke-opacity:0.5;" x="0" xlink:href="#mcda10cab14" y="581.789375"/>
    </g>
   </g>
   <g id="line2d_1">
    <path clip-path="url(#pb26c1575fb)" d="M 87.62844 386.141089 
L 91.949089 386.099506 
L 96.269739 386.043605 
L 100.590388 385.968974 
L 104.911037 385.870034 
L 109.231687 385.73978 
L 113.552336 385.5695 
L 117.872985 385.348459 
L 122.193635 385.063544 
L 126.514284 384.698893 
L 130.834933 384.235505 
L 135.155583 383.650839 
L 139.476232 382.918436 
L 143.796882 382.007564 
L 148.117531 380.882925 
L 152.43818 379.50445 
L 156.75883 377.827207 
L 161.079479 375.801473 
L 165.400128 373.372985 
L 169.720778 370.483434 
L 174.041427 367.071202 
L 178.362077 363.072405 
L 182.682726 358.422231 
L 187.003375 353.056606 
L 191.324025 346.914167 
L 195.644674 339.938526 
L 199.965323 332.080787 
L 204.285973 323.302252 
L 208.606622 313.577234 
L 212.927271 302.895886 
L 217.247921 291.266908 
L 221.56857 278.720036 
L 225.88922 265.308135 
L 230.209869 251.108789 
L 234.530518 236.225236 
L 238.851168 220.786536 
L 243.171817 204.946872 
L 247.492466 188.883919 
L 251.813116 172.796256 
L 256.133765 156.899821 
L 260.454415 141.42349 
L 264.775064 126.603869 
L 269.095713 112.67946 
L 273.416363 99.884391 
L 277.737012 88.441934 
L 282.057661 78.558062 
L 286.378311 70.415298 
L 290.69896 64.167121 
L 295.019609 59.933148 
L 299.340259 57.795335 
L 303.660908 57.795335 
L 307.981558 59.933148 
L 312.302207 64.167121 
L 316.622856 70.415298 
L 320.943506 78.558062 
L 325.264155 88.441934 
L 329.584804 99.884391 
L 333.905454 112.67946 
L 338.226103 126.603869 
L 342.546753 141.42349 
L 346.867402 156.899821 
L 351.188051 172.796256 
L 355.508701 188.883919 
L 359.82935 204.946872 
L 364.149999 220.786536 
L 368.470649 236.225236 
L 372.791298 251.108789 
L 377.111947 265.308135 
L 381.432597 278.720036 
L 385.753246 291.266908 
L 390.073896 302.895886 
L 394.394545 313.577234 
L 398.715194 323.302252 
L 403.035844 332.080787 
L 407.356493 339.938526 
L 411.677142 346.914167 
L 415.997792 353.056606 
L 420.318441 358.422231 
L 424.639091 363.072405 
L 428.95974 367.071202 
L 433.280389 370.483434 
L 437.601039 373.372985 
L 441.921688 375.801473 
L 446.242337 377.827207 
L 450.562987 379.50445 
L 454.883636 380.882925 
L 459.204285 382.007564 
L 463.524935 382.918436 
L 467.845584 383.650839 
L 472.166234 384.235505 
L 476.486883 384.698893 
L 480.807532 385.063544 
L 485.128182 385.348459 
L 489.448831 385.5695 
L 493.76948 385.73978 
L 498.09013 385.870034 
L 502.410779 385.968974 
L 506.731429 386.043605 
L 511.052078 386.099506 
L 515.372727 386.141089 
" style="fill:none;stroke:#ff6384;stroke-linecap:square;"/>
   </g>
   <g id="line2d_2">
    <path clip-path="url(#pb26c1575fb)" d="M 63.802706 386.140272 
L 68.091591 386.098382 
L 72.380477 386.042066 
L 76.669362 385.966883 
L 80.958247 385.86721 
L 85.247132 385.735991 
L 89.536017 385.56445 
L 93.824902 385.341772 
L 98.113787 385.054747 
L 102.402672 384.687396 
L 106.691557 384.220575 
L 110.980442 383.631579 
L 115.269327 382.893752 
L 119.558212 381.976134 
L 123.847097 380.843166 
L 128.135982 379.454481 
L 132.424867 377.764817 
L 136.713752 375.724079 
L 141.002637 373.277606 
L 145.291522 370.366653 
L 149.580407 366.92915 
L 153.869292 362.900737 
L 158.158178 358.216123 
L 162.447063 352.810759 
L 166.735948 346.622828 
L 171.024833 339.595524 
L 175.313718 331.679589 
L 179.602603 322.836038 
L 183.891488 313.038996 
L 188.180373 302.278539 
L 192.469258 290.563435 
L 196.758143 277.923639 
L 201.047028 264.412406 
L 205.335913 250.107897 
L 209.624798 235.114113 
L 213.913683 219.561071 
L 218.202568 203.604095 
L 222.491453 187.422177 
L 226.780338 171.215366 
L 231.069223 155.201199 
L 235.358108 139.610247 
L 239.646993 124.680869 
L 243.935879 110.653334 
L 248.224764 97.763501 
L 252.513649 86.236299 
L 256.802534 76.279225 
L 261.091419 68.076155 
L 265.380304 61.781702 
L 269.669189 57.516371 
L 273.958074 55.362726 
L 278.246959 55.362726 
L 282.535844 57.516371 
L 286.824729 61.781702 
L 291.113614 68.076155 
L 295.402499 76.279225 
L 299.691384 86.236299 
L 303.980269 97.763501 
L 308.269154 110.653334 
L 312.558039 124.680869 
L 316.846924 139.610247 
L 321.135809 155.201199 
L 325.424695 171.215366 
L 329.71358 187.422177 
L 334.002465 203.604095 
L 338.29135 219.561071 
L 342.580235 235.114113 
L 346.86912 250.107897 
L 351.158005 264.412406 
L 355.44689 277.923639 
L 359.735775 290.563435 
L 364.02466 302.278539 
L 368.313545 313.038996 
L 372.60243 322.836038 
L 376.891315 331.679589 
L 381.1802 339.595524 
L 385.469085 346.622828 
L 389.75797 352.810759 
L 394.046855 358.216123 
L 398.33574 362.900737 
L 402.624625 366.92915 
L 406.91351 370.366653 
L 411.202396 373.277606 
L 415.491281 375.724079 
L 419.780166 377.764817 
L 424.069051 379.454481 
L 428.357936 380.843166 
L 432.646821 381.976134 
L 436.935706 382.893752 
L 441.224591 383.631579 
L 445.513476 384.220575 
L 449.802361 384.687396 
L 454.091246 385.054747 
L 458.380131 385.341772 
L 462.669016 385.56445 
L 466.957901 385.735991 
L 471.246786 385.86721 
L 475.535671 385.966883 
L 479.824556 386.042066 
L 484.113441 386.098382 
L 488.402326 386.140272 
" style="fill:none;stroke:#36a2eb;stroke-linecap:square;"/>
   </g>
   <g id="line2d_3">
    <path clip-path="url(#pb26c1575fb)" d="M 58.827273 386.139371 
L 63.081647 386.097141 
L 67.336022 386.040368 
L 71.590396 385.964575 
L 75.844771 385.864094 
L 80.099146 385.73181 
L 84.35352 385.558878 
L 88.607895 385.334393 
L 92.862269 385.04504 
L 97.116644 384.674709 
L 101.371019 384.204102 
L 105.625393 383.610328 
L 109.879768 382.866516 
L 114.134142 381.941454 
L 118.388517 380.799296 
L 122.642891 379.399346 
L 126.897266 377.695976 
L 131.151641 375.638684 
L 135.406015 373.172366 
L 139.66039 370.2378 
L 143.914764 366.772413 
L 148.169139 362.711322 
L 152.423514 357.988708 
L 156.677888 352.539497 
L 160.932263 346.301371 
L 165.186637 339.217063 
L 169.441012 331.236916 
L 173.695386 322.321628 
L 177.949761 312.445114 
L 182.204136 301.597371 
L 186.45851 289.787238 
L 190.712885 277.04491 
L 194.967259 263.424078 
L 199.221634 249.003534 
L 203.476009 233.888124 
L 207.730383 218.208919 
L 211.984758 202.122504 
L 216.239132 185.809323 
L 220.493507 169.471045 
L 224.747881 153.326975 
L 229.002256 137.609553 
L 233.256631 122.559072 
L 237.511005 108.417748 
L 241.76538 95.423357 
L 246.019754 83.802649 
L 250.274129 73.764805 
L 254.528504 65.495194 
L 258.782878 59.149682 
L 263.037253 54.849752 
L 267.291627 52.678636 
L 271.546002 52.678636 
L 275.800376 54.849752 
L 280.054751 59.149682 
L 284.309126 65.495194 
L 288.5635 73.764805 
L 292.817875 83.802649 
L 297.072249 95.423357 
L 301.326624 108.417748 
L 305.580999 122.559072 
L 309.835373 137.609553 
L 314.089748 153.326975 
L 318.344122 169.471045 
L 322.598497 185.809323 
L 326.852871 202.122504 
L 331.107246 218.208919 
L 335.361621 233.888124 
L 339.615995 249.003534 
L 343.87037 263.424078 
L 348.124744 277.04491 
L 352.379119 289.787238 
L 356.633493 301.597371 
L 360.887868 312.445114 
L 365.142243 322.321628 
L 369.396617 331.236916 
L 373.650992 339.217063 
L 377.905366 346.301371 
L 382.159741 352.539497 
L 386.414116 357.988708 
L 390.66849 362.711322 
L 394.922865 366.772413 
L 399.177239 370.2378 
L 403.431614 373.172366 
L 407.685988 375.638684 
L 411.940363 377.695976 
L 416.194738 379.399346 
L 420.449112 380.799296 
L 424.703487 381.941454 
L 428.957861 382.866516 
L 433.212236 383.610328 
L 437.466611 384.204102 
L 441.720985 384.674709 
L 445.97536 385.04504 
L 450.229734 385.334393 
L 454.484109 385.558878 
L 458.738483 385.73181 
L 462.992858 385.864094 
L 467.247233 385.964575 
L 471.501607 386.040368 
L 475.755982 386.097141 
L 480.010356 386.139371 
" style="fill:none;stroke:#4bc0c0;stroke-linecap:square;"/>
   </g>
   <g id="patch_3">
    <path d="M 36 402.93 
L 538.2 402.93 
" style="fill:none;stroke:#000000;stroke-linecap:square;stroke-linejoin:miter;stroke-width:0.8;"/>
   </g>
   <g id="legend_1">
    <g id="patch_4">
     <path d="M 415.601563 109.626875 
L 528.4 109.626875 
Q 531.2 109.626875 531.2 106.826875 
L 531.2 45.8 
Q 531.2 43 528.4 43 
L 415.601563 43 
Q 412.801563 43 412.801563 45.8 
L 412.801563 106.826875 
Q 412.801563 109.626875 415.601563 109.626875 
z
" style="fill:#ffffff;opacity:0.8;stroke:#cccccc;stroke-linejoin:miter;"/>
    </g>
    <g id="patch_5">
     <path d="M 418.401563 59.237813 
L 446.401563 59.237813 
L 446.401563 49.437813 
L 418.401563 49.437813 
z
" style="fill:#ff6384;opacity:0.5;stroke:#ff6384;stroke-linejoin:miter;"/>
    </g>
    <g id="text_1">
     <!-- base -->
     <defs>
      <path d="M 48.6875 27.296875 
Q 48.6875 37.203125 44.609375 42.84375 
Q 40.53125 48.484375 33.40625 48.484375 
Q 26.265625 48.484375 22.1875 42.84375 
Q 18.109375 37.203125 18.109375 27.296875 
Q 18.109375 17.390625 22.1875 11.75 
Q 26.265625 6.109375 33.40625 6.109375 
Q 40.53125 6.109375 44.609375 11.75 
Q 48.6875 17.390625 48.6875 27.296875 
z
M 18.109375 46.390625 
Q 20.953125 51.265625 25.265625 53.625 
Q 29.59375 56 35.59375 56 
Q 45.5625 56 51.78125 48.09375 
Q 58.015625 40.1875 58.015625 27.296875 
Q 58.015625 14.40625 51.78125 6.484375 
Q 45.5625 -1.421875 35.59375 -1.421875 
Q 29.59375 -1.421875 25.265625 0.953125 
Q 20.953125 3.328125 18.109375 8.203125 
L 18.109375 0 
L 9.078125 0 
L 9.078125 75.984375 
L 18.109375 75.984375 
z
" id="DejaVuSans-98"/>
      <path d="M 34.28125 27.484375 
Q 23.390625 27.484375 19.1875 25 
Q 14.984375 22.515625 14.984375 16.5 
Q 14.984375 11.71875 18.140625 8.90625 
Q 21.296875 6.109375 26.703125 6.109375 
Q 34.1875 6.109375 38.703125 11.40625 
Q 43.21875 16.703125 43.21875 25.484375 
L 43.21875 27.484375 
z
M 52.203125 31.203125 
L 52.203125 0 
L 43.21875 0 
L 43.21875 8.296875 
Q 40.140625 3.328125 35.546875 0.953125 
Q 30.953125 -1.421875 24.3125 -1.421875 
Q 15.921875 -1.421875 10.953125 3.296875 
Q 6 8.015625 6 15.921875 
Q 6 25.140625 12.171875 29.828125 
Q 18.359375 34.515625 30.609375 34.515625 
L 43.21875 34.515625 
L 43.21875 35.40625 
Q 43.21875 41.609375 39.140625 45 
Q 35.0625 48.390625 27.6875 48.390625 
Q 23 48.390625 18.546875 47.265625 
Q 14.109375 46.140625 10.015625 43.890625 
L 10.015625 52.203125 
Q 14.9375 54.109375 19.578125 55.046875 
Q 24.21875 56 28.609375 56 
Q 40.484375 56 46.34375 49.84375 
Q 52.203125 43.703125 52.203125 31.203125 
z
" id="DejaVuSans-97"/>
      <path d="M 44.28125 53.078125 
L 44.28125 44.578125 
Q 40.484375 46.53125 36.375 47.5 
Q 32.28125 48.484375 27.875 48.484375 
Q 21.1875 48.484375 17.84375 46.4375 
Q 14.5 44.390625 14.5 40.28125 
Q 14.5 37.15625 16.890625 35.375 
Q 19.28125 33.59375 26.515625 31.984375 
L 29.59375 31.296875 
Q 39.15625 29.25 43.1875 25.515625 
Q 47.21875 21.78125 47.21875 15.09375 
Q 47.21875 7.46875 41.1875 3.015625 
Q 35.15625 -1.421875 24.609375 -1.421875 
Q 20.21875 -1.421875 15.453125 -0.5625 
Q 10.6875 0.296875 5.421875 2 
L 5.421875 11.28125 
Q 10.40625 8.6875 15.234375 7.390625 
Q 20.0625 6.109375 24.8125 6.109375 
Q 31.15625 6.109375 34.5625 8.28125 
Q 37.984375 10.453125 37.984375 14.40625 
Q 37.984375 18.0625 35.515625 20.015625 
Q 33.0625 21.96875 24.703125 23.78125 
L 21.578125 24.515625 
Q 13.234375 26.265625 9.515625 29.90625 
Q 5.8125 33.546875 5.8125 39.890625 
Q 5.8125 47.609375 11.28125 51.796875 
Q 16.75 56 26.8125 56 
Q 31.78125 56 36.171875 55.265625 
Q 40.578125 54.546875 44.28125 53.078125 
z
" id="DejaVuSans-115"/>
      <path d="M 56.203125 29.59375 
L 56.203125 25.203125 
L 14.890625 25.203125 
Q 15.484375 15.921875 20.484375 11.0625 
Q 25.484375 6.203125 34.421875 6.203125 
Q 39.59375 6.203125 44.453125 7.46875 
Q 49.3125 8.734375 54.109375 11.28125 
L 54.109375 2.78125 
Q 49.265625 0.734375 44.1875 -0.34375 
Q 39.109375 -1.421875 33.890625 -1.421875 
Q 20.796875 -1.421875 13.15625 6.1875 
Q 5.515625 13.8125 5.515625 26.8125 
Q 5.515625 40.234375 12.765625 48.109375 
Q 20.015625 56 32.328125 56 
Q 43.359375 56 49.78125 48.890625 
Q 56.203125 41.796875 56.203125 29.59375 
z
M 47.21875 32.234375 
Q 47.125 39.59375 43.09375 43.984375 
Q 39.0625 48.390625 32.421875 48.390625 
Q 24.90625 48.390625 20.390625 44.140625 
Q 15.875 39.890625 15.1875 32.171875 
z
" id="DejaVuSans-101"/>
     </defs>
     <g transform="translate(457.601563 59.237813)scale(0.14 -0.14)">
      <use xlink:href="#DejaVuSans-98"/>
      <use x="63.476562" xlink:href="#DejaVuSans-97"/>
      <use x="124.755859" xlink:href="#DejaVuSans-115"/>
      <use x="176.855469" xlink:href="#DejaVuSans-101"/>
     </g>
    </g>
    <g id="patch_6">
     <path d="M 418.401563 79.787188 
L 446.401563 79.787188 
L 446.401563 69.987188 
L 418.401563 69.987188 
z
" style="fill:#36a2eb;opacity:0.5;stroke:#36a2eb;stroke-linejoin:miter;"/>
    </g>
    <g id="text_2">
     <!-- fifth_mid -->
     <defs>
      <path d="M 37.109375 75.984375 
L 37.109375 68.5 
L 28.515625 68.5 
Q 23.6875 68.5 21.796875 66.546875 
Q 19.921875 64.59375 19.921875 59.515625 
L 19.921875 54.6875 
L 34.71875 54.6875 
L 34.71875 47.703125 
L 19.921875 47.703125 
L 19.921875 0 
L 10.890625 0 
L 10.890625 47.703125 
L 2.296875 47.703125 
L 2.296875 54.6875 
L 10.890625 54.6875 
L 10.890625 58.5 
Q 10.890625 67.625 15.140625 71.796875 
Q 19.390625 75.984375 28.609375 75.984375 
z
" id="DejaVuSans-102"/>
      <path d="M 9.421875 54.6875 
L 18.40625 54.6875 
L 18.40625 0 
L 9.421875 0 
z
M 9.421875 75.984375 
L 18.40625 75.984375 
L 18.40625 64.59375 
L 9.421875 64.59375 
z
" id="DejaVuSans-105"/>
      <path d="M 18.3125 70.21875 
L 18.3125 54.6875 
L 36.8125 54.6875 
L 36.8125 47.703125 
L 18.3125 47.703125 
L 18.3125 18.015625 
Q 18.3125 11.328125 20.140625 9.421875 
Q 21.96875 7.515625 27.59375 7.515625 
L 36.8125 7.515625 
L 36.8125 0 
L 27.59375 0 
Q 17.1875 0 13.234375 3.875 
Q 9.28125 7.765625 9.28125 18.015625 
L 9.28125 47.703125 
L 2.6875 47.703125 
L 2.6875 54.6875 
L 9.28125 54.6875 
L 9.28125 70.21875 
z
" id="DejaVuSans-116"/>
      <path d="M 54.890625 33.015625 
L 54.890625 0 
L 45.90625 0 
L 45.90625 32.71875 
Q 45.90625 40.484375 42.875 44.328125 
Q 39.84375 48.1875 33.796875 48.1875 
Q 26.515625 48.1875 22.3125 43.546875 
Q 18.109375 38.921875 18.109375 30.90625 
L 18.109375 0 
L 9.078125 0 
L 9.078125 75.984375 
L 18.109375 75.984375 
L 18.109375 46.1875 
Q 21.34375 51.125 25.703125 53.5625 
Q 30.078125 56 35.796875 56 
Q 45.21875 56 50.046875 50.171875 
Q 54.890625 44.34375 54.890625 33.015625 
z
" id="DejaVuSans-104"/>
      <path d="M 50.984375 -16.609375 
L 50.984375 -23.578125 
L -0.984375 -23.578125 
L -0.984375 -16.609375 
z
" id="DejaVuSans-95"/>
      <path d="M 52 44.1875 
Q 55.375 50.25 60.0625 53.125 
Q 64.75 56 71.09375 56 
Q 79.640625 56 84.28125 50.015625 
Q 88.921875 44.046875 88.921875 33.015625 
L 88.921875 0 
L 79.890625 0 
L 79.890625 32.71875 
Q 79.890625 40.578125 77.09375 44.375 
Q 74.3125 48.1875 68.609375 48.1875 
Q 61.625 48.1875 57.5625 43.546875 
Q 53.515625 38.921875 53.515625 30.90625 
L 53.515625 0 
L 44.484375 0 
L 44.484375 32.71875 
Q 44.484375 40.625 41.703125 44.40625 
Q 38.921875 48.1875 33.109375 48.1875 
Q 26.21875 48.1875 22.15625 43.53125 
Q 18.109375 38.875 18.109375 30.90625 
L 18.109375 0 
L 9.078125 0 
L 9.078125 54.6875 
L 18.109375 54.6875 
L 18.109375 46.1875 
Q 21.1875 51.21875 25.484375 53.609375 
Q 29.78125 56 35.6875 56 
Q 41.65625 56 45.828125 52.96875 
Q 50 49.953125 52 44.1875 
z
" id="DejaVuSans-109"/>
      <path d="M 45.40625 46.390625 
L 45.40625 75.984375 
L 54.390625 75.984375 
L 54.390625 0 
L 45.40625 0 
L 45.40625 8.203125 
Q 42.578125 3.328125 38.25 0.953125 
Q 33.9375 -1.421875 27.875 -1.421875 
Q 17.96875 -1.421875 11.734375 6.484375 
Q 5.515625 14.40625 5.515625 27.296875 
Q 5.515625 40.1875 11.734375 48.09375 
Q 17.96875 56 27.875 56 
Q 33.9375 56 38.25 53.625 
Q 42.578125 51.265625 45.40625 46.390625 
z
M 14.796875 27.296875 
Q 14.796875 17.390625 18.875 11.75 
Q 22.953125 6.109375 30.078125 6.109375 
Q 37.203125 6.109375 41.296875 11.75 
Q 45.40625 17.390625 45.40625 27.296875 
Q 45.40625 37.203125 41.296875 42.84375 
Q 37.203125 48.484375 30.078125 48.484375 
Q 22.953125 48.484375 18.875 42.84375 
Q 14.796875 37.203125 14.796875 27.296875 
z
" id="DejaVuSans-100"/>
     </defs>
     <g transform="translate(457.601563 79.787188)scale(0.14 -0.14)">
      <use xlink:href="#DejaVuSans-102"/>
      <use x="35.205078" xlink:href="#DejaVuSans-105"/>
      <use x="62.988281" xlink:href="#DejaVuSans-102"/>
      <use x="98.177734" xlink:href="#DejaVuSans-116"/>
      <use x="137.386719" xlink:href="#DejaVuSans-104"/>
      <use x="200.765625" xlink:href="#DejaVuSans-95"/>
      <use x="250.765625" xlink:href="#DejaVuSans-109"/>
      <use x="348.177734" xlink:href="#DejaVuSans-105"/>
      <use x="375.960938" xlink:href="#DejaVuSans-100"/>
     </g>
    </g>
    <g id="patch_7">
     <path d="M 418.401563 100.725937 
L 446.401563 100.725937 
L 446.401563 90.925937 
L 418.401563 90.925937 
z
" style="fill:#4bc0c0;opacity:0.5;stroke:#4bc0c0;stroke-linejoin:miter;"/>
    </g>
    <g id="text_3">
     <!-- fifth_right -->
     <defs>
      <path d="M 41.109375 46.296875 
Q 39.59375 47.171875 37.8125 47.578125 
Q 36.03125 48 33.890625 48 
Q 26.265625 48 22.1875 43.046875 
Q 18.109375 38.09375 18.109375 28.8125 
L 18.109375 0 
L 9.078125 0 
L 9.078125 54.6875 
L 18.109375 54.6875 
L 18.109375 46.1875 
Q 20.953125 51.171875 25.484375 53.578125 
Q 30.03125 56 36.53125 56 
Q 37.453125 56 38.578125 55.875 
Q 39.703125 55.765625 41.0625 55.515625 
z
" id="DejaVuSans-114"/>
      <path d="M 45.40625 27.984375 
Q 45.40625 37.75 41.375 43.109375 
Q 37.359375 48.484375 30.078125 48.484375 
Q 22.859375 48.484375 18.828125 43.109375 
Q 14.796875 37.75 14.796875 27.984375 
Q 14.796875 18.265625 18.828125 12.890625 
Q 22.859375 7.515625 30.078125 7.515625 
Q 37.359375 7.515625 41.375 12.890625 
Q 45.40625 18.265625 45.40625 27.984375 
z
M 54.390625 6.78125 
Q 54.390625 -7.171875 48.1875 -13.984375 
Q 42 -20.796875 29.203125 -20.796875 
Q 24.46875 -20.796875 20.265625 -20.09375 
Q 16.0625 -19.390625 12.109375 -17.921875 
L 12.109375 -9.1875 
Q 16.0625 -11.328125 19.921875 -12.34375 
Q 23.78125 -13.375 27.78125 -13.375 
Q 36.625 -13.375 41.015625 -8.765625 
Q 45.40625 -4.15625 45.40625 5.171875 
L 45.40625 9.625 
Q 42.625 4.78125 38.28125 2.390625 
Q 33.9375 0 27.875 0 
Q 17.828125 0 11.671875 7.65625 
Q 5.515625 15.328125 5.515625 27.984375 
Q 5.515625 40.671875 11.671875 48.328125 
Q 17.828125 56 27.875 56 
Q 33.9375 56 38.28125 53.609375 
Q 42.625 51.21875 45.40625 46.390625 
L 45.40625 54.6875 
L 54.390625 54.6875 
z
" id="DejaVuSans-103"/>
     </defs>
     <g transform="translate(457.601563 100.725937)scale(0.14 -0.14)">
      <use xlink:href="#DejaVuSans-102"/>
      <use x="35.205078" xlink:href="#DejaVuSans-105"/>
      <use x="62.988281" xlink:href="#DejaVuSans-102"/>
      <use x="98.177734" xlink:href="#DejaVuSans-116"/>
      <use x="137.386719" xlink:href="#DejaVuSans-104"/>
      <use x="200.765625" xlink:href="#DejaVuSans-95"/>
      <use x="250.765625" xlink:href="#DejaVuSans-114"/>
      <use x="291.878906" xlink:href="#DejaVuSans-105"/>
      <use x="319.662109" xlink:href="#DejaVuSans-103"/>
      <use x="383.138672" xlink:href="#DejaVuSans-104"/>
      <use x="446.517578" xlink:href="#DejaVuSans-116"/>
     </g>
    </g>
   </g>
  </g>
  <g id="axes_2">
   <g id="patch_8">
    <path d="M 36 525.24 
L 538.2 525.24 
L 538.2 402.93 
L 36 402.93 
z
" style="fill:none;"/>
   </g>
   <g id="patch_9">
    <path clip-path="url(#p632638b730)" d="M 196.703233 519.680455 
L 406.297934 519.680455 
L 406.297934 497.442273 
L 196.703233 497.442273 
z
" style="fill:#ff6384;opacity:0.5;"/>
   </g>
   <g id="patch_10">
    <path clip-path="url(#p632638b730)" d="M 172.07561 475.204091 
L 380.129423 475.204091 
L 380.129423 452.965909 
L 172.07561 452.965909 
z
" style="fill:#36a2eb;opacity:0.5;"/>
   </g>
   <g id="patch_11">
    <path clip-path="url(#p632638b730)" d="M 166.228959 430.727727 
L 372.60867 430.727727 
L 372.60867 408.489545 
L 166.228959 408.489545 
z
" style="fill:#4bc0c0;opacity:0.5;"/>
   </g>
   <g id="matplotlib.axis_1">
    <g id="xtick_1">
     <g id="line2d_4">
      <defs>
       <path d="M 0 0 
L 0 3.5 
" id="m8435a18186" style="stroke:#000000;stroke-width:0.8;"/>
      </defs>
      <g>
       <use style="stroke:#000000;stroke-width:0.8;" x="98.316047" xlink:href="#m8435a18186" y="525.24"/>
      </g>
     </g>
     <g id="text_4">
      <!-- 5.0 -->
      <defs>
       <path d="M 10.796875 72.90625 
L 49.515625 72.90625 
L 49.515625 64.59375 
L 19.828125 64.59375 
L 19.828125 46.734375 
Q 21.96875 47.46875 24.109375 47.828125 
Q 26.265625 48.1875 28.421875 48.1875 
Q 40.625 48.1875 47.75 41.5 
Q 54.890625 34.8125 54.890625 23.390625 
Q 54.890625 11.625 47.5625 5.09375 
Q 40.234375 -1.421875 26.90625 -1.421875 
Q 22.3125 -1.421875 17.546875 -0.640625 
Q 12.796875 0.140625 7.71875 1.703125 
L 7.71875 11.625 
Q 12.109375 9.234375 16.796875 8.0625 
Q 21.484375 6.890625 26.703125 6.890625 
Q 35.15625 6.890625 40.078125 11.328125 
Q 45.015625 15.765625 45.015625 23.390625 
Q 45.015625 31 40.078125 35.4375 
Q 35.15625 39.890625 26.703125 39.890625 
Q 22.75 39.890625 18.8125 39.015625 
Q 14.890625 38.140625 10.796875 36.28125 
z
" id="DejaVuSans-53"/>
       <path d="M 10.6875 12.40625 
L 21 12.40625 
L 21 0 
L 10.6875 0 
z
" id="DejaVuSans-46"/>
       <path d="M 31.78125 66.40625 
Q 24.171875 66.40625 20.328125 58.90625 
Q 16.5 51.421875 16.5 36.375 
Q 16.5 21.390625 20.328125 13.890625 
Q 24.171875 6.390625 31.78125 6.390625 
Q 39.453125 6.390625 43.28125 13.890625 
Q 47.125 21.390625 47.125 36.375 
Q 47.125 51.421875 43.28125 58.90625 
Q 39.453125 66.40625 31.78125 66.40625 
z
M 31.78125 74.21875 
Q 44.046875 74.21875 50.515625 64.515625 
Q 56.984375 54.828125 56.984375 36.375 
Q 56.984375 17.96875 50.515625 8.265625 
Q 44.046875 -1.421875 31.78125 -1.421875 
Q 19.53125 -1.421875 13.0625 8.265625 
Q 6.59375 17.96875 6.59375 36.375 
Q 6.59375 54.828125 13.0625 64.515625 
Q 19.53125 74.21875 31.78125 74.21875 
z
" id="DejaVuSans-48"/>
      </defs>
      <g transform="translate(87.183859 542.877813)scale(0.14 -0.14)">
       <use xlink:href="#DejaVuSans-53"/>
       <use x="63.623047" xlink:href="#DejaVuSans-46"/>
       <use x="95.410156" xlink:href="#DejaVuSans-48"/>
      </g>
     </g>
    </g>
    <g id="xtick_2">
     <g id="line2d_5">
      <g>
       <use style="stroke:#000000;stroke-width:0.8;" x="165.153065" xlink:href="#m8435a18186" y="525.24"/>
      </g>
     </g>
     <g id="text_5">
      <!-- 5.5 -->
      <g transform="translate(154.020878 542.877813)scale(0.14 -0.14)">
       <use xlink:href="#DejaVuSans-53"/>
       <use x="63.623047" xlink:href="#DejaVuSans-46"/>
       <use x="95.410156" xlink:href="#DejaVuSans-53"/>
      </g>
     </g>
    </g>
    <g id="xtick_3">
     <g id="line2d_6">
      <g>
       <use style="stroke:#000000;stroke-width:0.8;" x="231.990084" xlink:href="#m8435a18186" y="525.24"/>
      </g>
     </g>
     <g id="text_6">
      <!-- 6.0 -->
      <defs>
       <path d="M 33.015625 40.375 
Q 26.375 40.375 22.484375 35.828125 
Q 18.609375 31.296875 18.609375 23.390625 
Q 18.609375 15.53125 22.484375 10.953125 
Q 26.375 6.390625 33.015625 6.390625 
Q 39.65625 6.390625 43.53125 10.953125 
Q 47.40625 15.53125 47.40625 23.390625 
Q 47.40625 31.296875 43.53125 35.828125 
Q 39.65625 40.375 33.015625 40.375 
z
M 52.59375 71.296875 
L 52.59375 62.3125 
Q 48.875 64.0625 45.09375 64.984375 
Q 41.3125 65.921875 37.59375 65.921875 
Q 27.828125 65.921875 22.671875 59.328125 
Q 17.53125 52.734375 16.796875 39.40625 
Q 19.671875 43.65625 24.015625 45.921875 
Q 28.375 48.1875 33.59375 48.1875 
Q 44.578125 48.1875 50.953125 41.515625 
Q 57.328125 34.859375 57.328125 23.390625 
Q 57.328125 12.15625 50.6875 5.359375 
Q 44.046875 -1.421875 33.015625 -1.421875 
Q 20.359375 -1.421875 13.671875 8.265625 
Q 6.984375 17.96875 6.984375 36.375 
Q 6.984375 53.65625 15.1875 63.9375 
Q 23.390625 74.21875 37.203125 74.21875 
Q 40.921875 74.21875 44.703125 73.484375 
Q 48.484375 72.75 52.59375 71.296875 
z
" id="DejaVuSans-54"/>
      </defs>
      <g transform="translate(220.857897 542.877813)scale(0.14 -0.14)">
       <use xlink:href="#DejaVuSans-54"/>
       <use x="63.623047" xlink:href="#DejaVuSans-46"/>
       <use x="95.410156" xlink:href="#DejaVuSans-48"/>
      </g>
     </g>
    </g>
    <g id="xtick_4">
     <g id="line2d_7">
      <g>
       <use style="stroke:#000000;stroke-width:0.8;" x="298.827103" xlink:href="#m8435a18186" y="525.24"/>
      </g>
     </g>
     <g id="text_7">
      <!-- 6.5 -->
      <g transform="translate(287.694915 542.877813)scale(0.14 -0.14)">
       <use xlink:href="#DejaVuSans-54"/>
       <use x="63.623047" xlink:href="#DejaVuSans-46"/>
       <use x="95.410156" xlink:href="#DejaVuSans-53"/>
      </g>
     </g>
    </g>
    <g id="xtick_5">
     <g id="line2d_8">
      <g>
       <use style="stroke:#000000;stroke-width:0.8;" x="365.664121" xlink:href="#m8435a18186" y="525.24"/>
      </g>
     </g>
     <g id="text_8">
      <!-- 7.0 -->
      <defs>
       <path d="M 8.203125 72.90625 
L 55.078125 72.90625 
L 55.078125 68.703125 
L 28.609375 0 
L 18.3125 0 
L 43.21875 64.59375 
L 8.203125 64.59375 
z
" id="DejaVuSans-55"/>
      </defs>
      <g transform="translate(354.531934 542.877813)scale(0.14 -0.14)">
       <use xlink:href="#DejaVuSans-55"/>
       <use x="63.623047" xlink:href="#DejaVuSans-46"/>
       <use x="95.410156" xlink:href="#DejaVuSans-48"/>
      </g>
     </g>
    </g>
    <g id="xtick_6">
     <g id="line2d_9">
      <g>
       <use style="stroke:#000000;stroke-width:0.8;" x="432.50114" xlink:href="#m8435a18186" y="525.24"/>
      </g>
     </g>
     <g id="text_9">
      <!-- 7.5 -->
      <g transform="translate(421.368953 542.877813)scale(0.14 -0.14)">
       <use xlink:href="#DejaVuSans-55"/>
       <use x="63.623047" xlink:href="#DejaVuSans-46"/>
       <use x="95.410156" xlink:href="#DejaVuSans-53"/>
      </g>
     </g>
    </g>
    <g id="xtick_7">
     <g id="line2d_10">
      <g>
       <use style="stroke:#000000;stroke-width:0.8;" x="499.338159" xlink:href="#m8435a18186" y="525.24"/>
      </g>
     </g>
     <g id="text_10">
      <!-- 8.0 -->
      <defs>
       <path d="M 31.78125 34.625 
Q 24.75 34.625 20.71875 30.859375 
Q 16.703125 27.09375 16.703125 20.515625 
Q 16.703125 13.921875 20.71875 10.15625 
Q 24.75 6.390625 31.78125 6.390625 
Q 38.8125 6.390625 42.859375 10.171875 
Q 46.921875 13.96875 46.921875 20.515625 
Q 46.921875 27.09375 42.890625 30.859375 
Q 38.875 34.625 31.78125 34.625 
z
M 21.921875 38.8125 
Q 15.578125 40.375 12.03125 44.71875 
Q 8.5 49.078125 8.5 55.328125 
Q 8.5 64.0625 14.71875 69.140625 
Q 20.953125 74.21875 31.78125 74.21875 
Q 42.671875 74.21875 48.875 69.140625 
Q 55.078125 64.0625 55.078125 55.328125 
Q 55.078125 49.078125 51.53125 44.71875 
Q 48 40.375 41.703125 38.8125 
Q 48.828125 37.15625 52.796875 32.3125 
Q 56.78125 27.484375 56.78125 20.515625 
Q 56.78125 9.90625 50.3125 4.234375 
Q 43.84375 -1.421875 31.78125 -1.421875 
Q 19.734375 -1.421875 13.25 4.234375 
Q 6.78125 9.90625 6.78125 20.515625 
Q 6.78125 27.484375 10.78125 32.3125 
Q 14.796875 37.15625 21.921875 38.8125 
z
M 18.3125 54.390625 
Q 18.3125 48.734375 21.84375 45.5625 
Q 25.390625 42.390625 31.78125 42.390625 
Q 38.140625 42.390625 41.71875 45.5625 
Q 45.3125 48.734375 45.3125 54.390625 
Q 45.3125 60.0625 41.71875 63.234375 
Q 38.140625 66.40625 31.78125 66.40625 
Q 25.390625 66.40625 21.84375 63.234375 
Q 18.3125 60.0625 18.3125 54.390625 
z
" id="DejaVuSans-56"/>
      </defs>
      <g transform="translate(488.205971 542.877813)scale(0.14 -0.14)">
       <use xlink:href="#DejaVuSans-56"/>
       <use x="63.623047" xlink:href="#DejaVuSans-46"/>
       <use x="95.410156" xlink:href="#DejaVuSans-48"/>
      </g>
     </g>
    </g>
   </g>
   <g id="line2d_11">
    <path clip-path="url(#p632638b730)" d="M 301.500584 525.24 
L 301.500584 402.93 
" style="fill:none;stroke:#ff6384;stroke-dasharray:5.55,2.4;stroke-dashoffset:0;stroke-opacity:0.8;stroke-width:1.5;"/>
   </g>
   <g id="line2d_12">
    <path clip-path="url(#p632638b730)" d="M 276.102516 525.24 
L 276.102516 402.93 
" style="fill:none;stroke:#36a2eb;stroke-dasharray:5.55,2.4;stroke-dashoffset:0;stroke-opacity:0.8;stroke-width:1.5;"/>
   </g>
   <g id="line2d_13">
    <path clip-path="url(#p632638b730)" d="M 269.418815 525.24 
L 269.418815 402.93 
" style="fill:none;stroke:#4bc0c0;stroke-dasharray:5.55,2.4;stroke-dashoffset:0;stroke-opacity:0.8;stroke-width:1.5;"/>
   </g>
   <g id="patch_12">
    <path d="M 36 525.24 
L 538.2 525.24 
" style="fill:none;stroke:#000000;stroke-linecap:square;stroke-linejoin:miter;stroke-width:0.8;"/>
   </g>
  </g>
 </g>
 <defs>
  <clipPath id="pb26c1575fb">
   <rect height="366.93" width="502.2" x="36" y="36"/>
  </clipPath>
  <clipPath id="p632638b730">
   <rect height="122.31" width="502.2" x="36" y="402.93"/>
  </clipPath>
 </defs>
</svg>
