<?xml version="1.0" encoding="utf-8" standalone="no"?>
<!DOCTYPE svg PUBLIC "-//W3C//DTD SVG 1.1//EN"
  "http://www.w3.org/Graphics/SVG/1.1/DTD/svg11.dtd">
<!-- Created with matplotlib (https://matplotlib.org/) -->
<svg height="581.789375pt" version="1.1" viewBox="0 0 574.2 581.789375" width="574.2pt" xmlns="http://www.w3.org/2000/svg" xmlns:xlink="http://www.w3.org/1999/xlink">
 <defs>
  <style type="text/css">
*{stroke-linecap:butt;stroke-linejoin:round;}
  </style>
 </defs>
 <g id="figure_1">
  <g id="patch_1">
   <path d="M 0 581.789375 
L 574.2 581.789375 
L 574.2 0 
L 0 0 
z
" style="fill:none;"/>
  </g>
  <g id="axes_1">
   <g id="patch_2">
    <path d="M 36 402.93 
L 538.2 402.93 
L 538.2 36 
L 36 36 
z
" style="fill:none;"/>
   </g>
   <g id="PolyCollection_1">
    <defs>
     <path d="M 97.351238 -195.538011 
L 97.351238 -195.648361 
L 101.573677 -195.689972 
L 105.796117 -195.745912 
L 110.018556 -195.820593 
L 114.240995 -195.919601 
L 118.463434 -196.049944 
L 122.685874 -196.220339 
L 126.908313 -196.441531 
L 131.130752 -196.72664 
L 135.353192 -197.091538 
L 139.575631 -197.555242 
L 143.79807 -198.140306 
L 148.020509 -198.873208 
L 152.242949 -199.7847 
L 156.465388 -200.910104 
L 160.687827 -202.289518 
L 164.910267 -203.967902 
L 169.132706 -205.995016 
L 173.355145 -208.425157 
L 177.577584 -211.316675 
L 181.800024 -214.73123 
L 186.022463 -218.73275 
L 190.244902 -223.386089 
L 194.467342 -228.755366 
L 198.689781 -234.901987 
L 202.91222 -241.882377 
L 207.134659 -249.745465 
L 211.357099 -258.529977 
L 215.579538 -268.261614 
L 219.801977 -278.950234 
L 224.024417 -290.587128 
L 228.246856 -303.142541 
L 232.469295 -316.563573 
L 236.691734 -330.772585 
L 240.914174 -345.666271 
L 245.136613 -361.115481 
L 249.359052 -376.965928 
L 253.581492 -393.039815 
L 257.803931 -409.138431 
L 262.02637 -425.045687 
L 266.248809 -440.532554 
L 270.471249 -455.362263 
L 274.693688 -469.296151 
L 278.916127 -482.099931 
L 283.138567 -493.550178 
L 287.361006 -503.440778 
L 291.583445 -511.589085 
L 295.805884 -517.841516 
L 300.028324 -522.078371 
L 304.250763 -524.217639 
L 308.473202 -524.217639 
L 312.695642 -522.078371 
L 316.918081 -517.841516 
L 321.14052 -511.589085 
L 325.362959 -503.440778 
L 329.585399 -493.550178 
L 333.807838 -482.099931 
L 338.030277 -469.296151 
L 342.252717 -455.362263 
L 346.475156 -440.532554 
L 350.697595 -425.045687 
L 354.920034 -409.138431 
L 359.142474 -393.039815 
L 363.364913 -376.965928 
L 367.587352 -361.115481 
L 371.809792 -345.666271 
L 376.032231 -330.772585 
L 380.25467 -316.563573 
L 384.477109 -303.142541 
L 388.699549 -290.587128 
L 392.921988 -278.950234 
L 397.144427 -268.261614 
L 401.366867 -258.529977 
L 405.589306 -249.745465 
L 409.811745 -241.882377 
L 414.034184 -234.901987 
L 418.256624 -228.755366 
L 422.479063 -223.386089 
L 426.701502 -218.73275 
L 430.923942 -214.73123 
L 435.146381 -211.316675 
L 439.36882 -208.425157 
L 443.591259 -205.995016 
L 447.813699 -203.967902 
L 452.036138 -202.289518 
L 456.258577 -200.910104 
L 460.481017 -199.7847 
L 464.703456 -198.873208 
L 468.925895 -198.140306 
L 473.148334 -197.555242 
L 477.370774 -197.091538 
L 481.593213 -196.72664 
L 485.815652 -196.441531 
L 490.038092 -196.220339 
L 494.260531 -196.049944 
L 498.48297 -195.919601 
L 502.705409 -195.820593 
L 506.927849 -195.745912 
L 511.150288 -195.689972 
L 515.372727 -195.648361 
L 515.372727 -195.538011 
L 515.372727 -195.538011 
L 511.150288 -195.538011 
L 506.927849 -195.538011 
L 502.705409 -195.538011 
L 498.48297 -195.538011 
L 494.260531 -195.538011 
L 490.038092 -195.538011 
L 485.815652 -195.538011 
L 481.593213 -195.538011 
L 477.370774 -195.538011 
L 473.148334 -195.538011 
L 468.925895 -195.538011 
L 464.703456 -195.538011 
L 460.481017 -195.538011 
L 456.258577 -195.538011 
L 452.036138 -195.538011 
L 447.813699 -195.538011 
L 443.591259 -195.538011 
L 439.36882 -195.538011 
L 435.146381 -195.538011 
L 430.923942 -195.538011 
L 426.701502 -195.538011 
L 422.479063 -195.538011 
L 418.256624 -195.538011 
L 414.034184 -195.538011 
L 409.811745 -195.538011 
L 405.589306 -195.538011 
L 401.366867 -195.538011 
L 397.144427 -195.538011 
L 392.921988 -195.538011 
L 388.699549 -195.538011 
L 384.477109 -195.538011 
L 380.25467 -195.538011 
L 376.032231 -195.538011 
L 371.809792 -195.538011 
L 367.587352 -195.538011 
L 363.364913 -195.538011 
L 359.142474 -195.538011 
L 354.920034 -195.538011 
L 350.697595 -195.538011 
L 346.475156 -195.538011 
L 342.252717 -195.538011 
L 338.030277 -195.538011 
L 333.807838 -195.538011 
L 329.585399 -195.538011 
L 325.362959 -195.538011 
L 321.14052 -195.538011 
L 316.918081 -195.538011 
L 312.695642 -195.538011 
L 308.473202 -195.538011 
L 304.250763 -195.538011 
L 300.028324 -195.538011 
L 295.805884 -195.538011 
L 291.583445 -195.538011 
L 287.361006 -195.538011 
L 283.138567 -195.538011 
L 278.916127 -195.538011 
L 274.693688 -195.538011 
L 270.471249 -195.538011 
L 266.248809 -195.538011 
L 262.02637 -195.538011 
L 257.803931 -195.538011 
L 253.581492 -195.538011 
L 249.359052 -195.538011 
L 245.136613 -195.538011 
L 240.914174 -195.538011 
L 236.691734 -195.538011 
L 232.469295 -195.538011 
L 228.246856 -195.538011 
L 224.024417 -195.538011 
L 219.801977 -195.538011 
L 215.579538 -195.538011 
L 211.357099 -195.538011 
L 207.134659 -195.538011 
L 202.91222 -195.538011 
L 198.689781 -195.538011 
L 194.467342 -195.538011 
L 190.244902 -195.538011 
L 186.022463 -195.538011 
L 181.800024 -195.538011 
L 177.577584 -195.538011 
L 173.355145 -195.538011 
L 169.132706 -195.538011 
L 164.910267 -195.538011 
L 160.687827 -195.538011 
L 156.465388 -195.538011 
L 152.242949 -195.538011 
L 148.020509 -195.538011 
L 143.79807 -195.538011 
L 139.575631 -195.538011 
L 135.353192 -195.538011 
L 131.130752 -195.538011 
L 126.908313 -195.538011 
L 122.685874 -195.538011 
L 118.463434 -195.538011 
L 114.240995 -195.538011 
L 110.018556 -195.538011 
L 105.796117 -195.538011 
L 101.573677 -195.538011 
L 97.351238 -195.538011 
z
" id="me2c7333908" style="stroke:#ff6384;stroke-opacity:0.5;"/>
    </defs>
    <g clip-path="url(#pc0ae72c12d)">
     <use style="fill:#ff6384;fill-opacity:0.5;stroke:#ff6384;stroke-opacity:0.5;" x="0" xlink:href="#me2c7333908" y="581.789375"/>
    </g>
   </g>
   <g id="PolyCollection_2">
    <defs>
     <path d="M 86.437572 -195.538011 
L 86.437572 -195.648875 
L 90.640433 -195.69068 
L 94.843293 -195.74688 
L 99.046153 -195.821909 
L 103.249013 -195.921378 
L 107.451874 -196.052328 
L 111.654734 -196.223518 
L 115.857594 -196.44574 
L 120.060455 -196.732177 
L 124.263315 -197.098775 
L 128.466175 -197.564639 
L 132.669035 -198.152429 
L 136.871896 -198.888745 
L 141.074756 -199.804483 
L 145.277616 -200.93513 
L 149.480476 -202.32097 
L 153.683337 -204.007173 
L 157.886197 -206.04373 
L 162.089057 -208.485191 
L 166.291917 -211.39018 
L 170.494778 -214.820642 
L 174.697638 -218.840802 
L 178.900498 -223.515819 
L 183.103359 -228.910109 
L 187.306219 -235.085364 
L 191.509079 -242.098272 
L 195.711939 -249.997991 
L 199.9148 -258.823425 
L 204.11766 -268.600397 
L 208.32052 -279.33881 
L 212.52338 -291.029914 
L 216.726241 -303.643817 
L 220.929101 -317.12737 
L 225.131961 -331.402575 
L 229.334822 -346.365643 
L 233.537682 -361.886823 
L 237.740542 -377.81111 
L 241.943402 -393.959877 
L 246.146263 -410.133488 
L 250.349123 -426.114848 
L 254.551983 -441.67386 
L 258.754843 -456.572654 
L 262.957704 -470.571453 
L 267.160564 -483.434879 
L 271.363424 -494.938467 
L 275.566284 -504.875143 
L 279.769145 -513.061408 
L 283.972005 -519.342966 
L 288.174865 -523.599559 
L 292.377726 -525.748793 
L 296.580586 -525.748793 
L 300.783446 -523.599559 
L 304.986306 -519.342966 
L 309.189167 -513.061408 
L 313.392027 -504.875143 
L 317.594887 -494.938467 
L 321.797747 -483.434879 
L 326.000608 -470.571453 
L 330.203468 -456.572654 
L 334.406328 -441.67386 
L 338.609189 -426.114848 
L 342.812049 -410.133488 
L 347.014909 -393.959877 
L 351.217769 -377.81111 
L 355.42063 -361.886823 
L 359.62349 -346.365643 
L 363.82635 -331.402575 
L 368.02921 -317.12737 
L 372.232071 -303.643817 
L 376.434931 -291.029914 
L 380.637791 -279.33881 
L 384.840651 -268.600397 
L 389.043512 -258.823425 
L 393.246372 -249.997991 
L 397.449232 -242.098272 
L 401.652093 -235.085364 
L 405.854953 -228.910109 
L 410.057813 -223.515819 
L 414.260673 -218.840802 
L 418.463534 -214.820642 
L 422.666394 -211.39018 
L 426.869254 -208.485191 
L 431.072114 -206.04373 
L 435.274975 -204.007173 
L 439.477835 -202.32097 
L 443.680695 -200.93513 
L 447.883556 -199.804483 
L 452.086416 -198.888745 
L 456.289276 -198.152429 
L 460.492136 -197.564639 
L 464.694997 -197.098775 
L 468.897857 -196.732177 
L 473.100717 -196.44574 
L 477.303577 -196.223518 
L 481.506438 -196.052328 
L 485.709298 -195.921378 
L 489.912158 -195.821909 
L 494.115018 -195.74688 
L 498.317879 -195.69068 
L 502.520739 -195.648875 
L 502.520739 -195.538011 
L 502.520739 -195.538011 
L 498.317879 -195.538011 
L 494.115018 -195.538011 
L 489.912158 -195.538011 
L 485.709298 -195.538011 
L 481.506438 -195.538011 
L 477.303577 -195.538011 
L 473.100717 -195.538011 
L 468.897857 -195.538011 
L 464.694997 -195.538011 
L 460.492136 -195.538011 
L 456.289276 -195.538011 
L 452.086416 -195.538011 
L 447.883556 -195.538011 
L 443.680695 -195.538011 
L 439.477835 -195.538011 
L 435.274975 -195.538011 
L 431.072114 -195.538011 
L 426.869254 -195.538011 
L 422.666394 -195.538011 
L 418.463534 -195.538011 
L 414.260673 -195.538011 
L 410.057813 -195.538011 
L 405.854953 -195.538011 
L 401.652093 -195.538011 
L 397.449232 -195.538011 
L 393.246372 -195.538011 
L 389.043512 -195.538011 
L 384.840651 -195.538011 
L 380.637791 -195.538011 
L 376.434931 -195.538011 
L 372.232071 -195.538011 
L 368.02921 -195.538011 
L 363.82635 -195.538011 
L 359.62349 -195.538011 
L 355.42063 -195.538011 
L 351.217769 -195.538011 
L 347.014909 -195.538011 
L 342.812049 -195.538011 
L 338.609189 -195.538011 
L 334.406328 -195.538011 
L 330.203468 -195.538011 
L 326.000608 -195.538011 
L 321.797747 -195.538011 
L 317.594887 -195.538011 
L 313.392027 -195.538011 
L 309.189167 -195.538011 
L 304.986306 -195.538011 
L 300.783446 -195.538011 
L 296.580586 -195.538011 
L 292.377726 -195.538011 
L 288.174865 -195.538011 
L 283.972005 -195.538011 
L 279.769145 -195.538011 
L 275.566284 -195.538011 
L 271.363424 -195.538011 
L 267.160564 -195.538011 
L 262.957704 -195.538011 
L 258.754843 -195.538011 
L 254.551983 -195.538011 
L 250.349123 -195.538011 
L 246.146263 -195.538011 
L 241.943402 -195.538011 
L 237.740542 -195.538011 
L 233.537682 -195.538011 
L 229.334822 -195.538011 
L 225.131961 -195.538011 
L 220.929101 -195.538011 
L 216.726241 -195.538011 
L 212.52338 -195.538011 
L 208.32052 -195.538011 
L 204.11766 -195.538011 
L 199.9148 -195.538011 
L 195.711939 -195.538011 
L 191.509079 -195.538011 
L 187.306219 -195.538011 
L 183.103359 -195.538011 
L 178.900498 -195.538011 
L 174.697638 -195.538011 
L 170.494778 -195.538011 
L 166.291917 -195.538011 
L 162.089057 -195.538011 
L 157.886197 -195.538011 
L 153.683337 -195.538011 
L 149.480476 -195.538011 
L 145.277616 -195.538011 
L 141.074756 -195.538011 
L 136.871896 -195.538011 
L 132.669035 -195.538011 
L 128.466175 -195.538011 
L 124.263315 -195.538011 
L 120.060455 -195.538011 
L 115.857594 -195.538011 
L 111.654734 -195.538011 
L 107.451874 -195.538011 
L 103.249013 -195.538011 
L 99.046153 -195.538011 
L 94.843293 -195.538011 
L 90.640433 -195.538011 
L 86.437572 -195.538011 
z
" id="mf84005954f" style="stroke:#36a2eb;stroke-opacity:0.5;"/>
    </defs>
    <g clip-path="url(#pc0ae72c12d)">
     <use style="fill:#36a2eb;fill-opacity:0.5;stroke:#36a2eb;stroke-opacity:0.5;" x="0" xlink:href="#mf84005954f" y="581.789375"/>
    </g>
   </g>
   <g id="PolyCollection_3">
    <defs>
     <path d="M 58.827273 -195.538011 
L 58.827273 -195.650004 
L 62.987774 -195.692234 
L 67.148275 -195.749007 
L 71.308777 -195.8248 
L 75.469278 -195.925281 
L 79.629779 -196.057565 
L 83.790281 -196.230497 
L 87.950782 -196.454982 
L 92.111283 -196.744335 
L 96.271785 -197.114666 
L 100.432286 -197.585273 
L 104.592787 -198.179047 
L 108.753289 -198.922859 
L 112.91379 -199.847921 
L 117.074291 -200.990079 
L 121.234793 -202.390029 
L 125.395294 -204.093399 
L 129.555795 -206.150691 
L 133.716297 -208.617009 
L 137.876798 -211.551575 
L 142.037299 -215.016962 
L 146.197801 -219.078053 
L 150.358302 -223.800667 
L 154.518803 -229.249878 
L 158.679305 -235.488004 
L 162.839806 -242.572312 
L 167.000307 -250.552459 
L 171.160808 -259.467747 
L 175.32131 -269.344261 
L 179.481811 -280.192004 
L 183.642312 -292.002137 
L 187.802814 -304.744465 
L 191.963315 -318.365297 
L 196.123816 -332.785841 
L 200.284318 -347.901251 
L 204.444819 -363.580456 
L 208.60532 -379.666871 
L 212.765822 -395.980052 
L 216.926323 -412.31833 
L 221.086824 -428.4624 
L 225.247326 -444.179822 
L 229.407827 -459.230303 
L 233.568328 -473.371627 
L 237.72883 -486.366018 
L 241.889331 -497.986726 
L 246.049832 -508.02457 
L 250.210334 -516.294181 
L 254.370835 -522.639693 
L 258.531336 -526.939623 
L 262.691838 -529.110739 
L 266.852339 -529.110739 
L 271.01284 -526.939623 
L 275.173342 -522.639693 
L 279.333843 -516.294181 
L 283.494344 -508.02457 
L 287.654846 -497.986726 
L 291.815347 -486.366018 
L 295.975848 -473.371627 
L 300.13635 -459.230303 
L 304.296851 -444.179822 
L 308.457352 -428.4624 
L 312.617853 -412.31833 
L 316.778355 -395.980052 
L 320.938856 -379.666871 
L 325.099357 -363.580456 
L 329.259859 -347.901251 
L 333.42036 -332.785841 
L 337.580861 -318.365297 
L 341.741363 -304.744465 
L 345.901864 -292.002137 
L 350.062365 -280.192004 
L 354.222867 -269.344261 
L 358.383368 -259.467747 
L 362.543869 -250.552459 
L 366.704371 -242.572312 
L 370.864872 -235.488004 
L 375.025373 -229.249878 
L 379.185875 -223.800667 
L 383.346376 -219.078053 
L 387.506877 -215.016962 
L 391.667379 -211.551575 
L 395.82788 -208.617009 
L 399.988381 -206.150691 
L 404.148883 -204.093399 
L 408.309384 -202.390029 
L 412.469885 -200.990079 
L 416.630387 -199.847921 
L 420.790888 -198.922859 
L 424.951389 -198.179047 
L 429.111891 -197.585273 
L 433.272392 -197.114666 
L 437.432893 -196.744335 
L 441.593395 -196.454982 
L 445.753896 -196.230497 
L 449.914397 -196.057565 
L 454.074899 -195.925281 
L 458.2354 -195.8248 
L 462.395901 -195.749007 
L 466.556402 -195.692234 
L 470.716904 -195.650004 
L 470.716904 -195.538011 
L 470.716904 -195.538011 
L 466.556402 -195.538011 
L 462.395901 -195.538011 
L 458.2354 -195.538011 
L 454.074899 -195.538011 
L 449.914397 -195.538011 
L 445.753896 -195.538011 
L 441.593395 -195.538011 
L 437.432893 -195.538011 
L 433.272392 -195.538011 
L 429.111891 -195.538011 
L 424.951389 -195.538011 
L 420.790888 -195.538011 
L 416.630387 -195.538011 
L 412.469885 -195.538011 
L 408.309384 -195.538011 
L 404.148883 -195.538011 
L 399.988381 -195.538011 
L 395.82788 -195.538011 
L 391.667379 -195.538011 
L 387.506877 -195.538011 
L 383.346376 -195.538011 
L 379.185875 -195.538011 
L 375.025373 -195.538011 
L 370.864872 -195.538011 
L 366.704371 -195.538011 
L 362.543869 -195.538011 
L 358.383368 -195.538011 
L 354.222867 -195.538011 
L 350.062365 -195.538011 
L 345.901864 -195.538011 
L 341.741363 -195.538011 
L 337.580861 -195.538011 
L 333.42036 -195.538011 
L 329.259859 -195.538011 
L 325.099357 -195.538011 
L 320.938856 -195.538011 
L 316.778355 -195.538011 
L 312.617853 -195.538011 
L 308.457352 -195.538011 
L 304.296851 -195.538011 
L 300.13635 -195.538011 
L 295.975848 -195.538011 
L 291.815347 -195.538011 
L 287.654846 -195.538011 
L 283.494344 -195.538011 
L 279.333843 -195.538011 
L 275.173342 -195.538011 
L 271.01284 -195.538011 
L 266.852339 -195.538011 
L 262.691838 -195.538011 
L 258.531336 -195.538011 
L 254.370835 -195.538011 
L 250.210334 -195.538011 
L 246.049832 -195.538011 
L 241.889331 -195.538011 
L 237.72883 -195.538011 
L 233.568328 -195.538011 
L 229.407827 -195.538011 
L 225.247326 -195.538011 
L 221.086824 -195.538011 
L 216.926323 -195.538011 
L 212.765822 -195.538011 
L 208.60532 -195.538011 
L 204.444819 -195.538011 
L 200.284318 -195.538011 
L 196.123816 -195.538011 
L 191.963315 -195.538011 
L 187.802814 -195.538011 
L 183.642312 -195.538011 
L 179.481811 -195.538011 
L 175.32131 -195.538011 
L 171.160808 -195.538011 
L 167.000307 -195.538011 
L 162.839806 -195.538011 
L 158.679305 -195.538011 
L 154.518803 -195.538011 
L 150.358302 -195.538011 
L 146.197801 -195.538011 
L 142.037299 -195.538011 
L 137.876798 -195.538011 
L 133.716297 -195.538011 
L 129.555795 -195.538011 
L 125.395294 -195.538011 
L 121.234793 -195.538011 
L 117.074291 -195.538011 
L 112.91379 -195.538011 
L 108.753289 -195.538011 
L 104.592787 -195.538011 
L 100.432286 -195.538011 
L 96.271785 -195.538011 
L 92.111283 -195.538011 
L 87.950782 -195.538011 
L 83.790281 -195.538011 
L 79.629779 -195.538011 
L 75.469278 -195.538011 
L 71.308777 -195.538011 
L 67.148275 -195.538011 
L 62.987774 -195.538011 
L 58.827273 -195.538011 
z
" id="m53b13641e8" style="stroke:#4bc0c0;stroke-opacity:0.5;"/>
    </defs>
    <g clip-path="url(#pc0ae72c12d)">
     <use style="fill:#4bc0c0;fill-opacity:0.5;stroke:#4bc0c0;stroke-opacity:0.5;" x="0" xlink:href="#m53b13641e8" y="581.789375"/>
    </g>
   </g>
   <g id="line2d_1">
    <path clip-path="url(#pc0ae72c12d)" d="M 97.351238 386.141014 
L 101.573677 386.099403 
L 105.796117 386.043463 
L 110.018556 385.968782 
L 114.240995 385.869774 
L 118.463434 385.739431 
L 122.685874 385.569036 
L 126.908313 385.347844 
L 131.130752 385.062735 
L 135.353192 384.697837 
L 139.575631 384.234133 
L 143.79807 383.649069 
L 148.020509 382.916167 
L 152.242949 382.004675 
L 156.465388 380.879271 
L 160.687827 379.499857 
L 164.910267 377.821473 
L 169.132706 375.794359 
L 173.355145 373.364218 
L 177.577584 370.4727 
L 181.800024 367.058145 
L 186.022463 363.056625 
L 190.244902 358.403286 
L 194.467342 353.034009 
L 198.689781 346.887388 
L 202.91222 339.906998 
L 207.134659 332.04391 
L 211.357099 323.259398 
L 215.579538 313.527761 
L 219.801977 302.839141 
L 224.024417 291.202247 
L 228.246856 278.646834 
L 232.469295 265.225802 
L 236.691734 251.01679 
L 240.914174 236.123104 
L 245.136613 220.673894 
L 249.359052 204.823447 
L 253.581492 188.74956 
L 257.803931 172.650944 
L 262.02637 156.743688 
L 266.248809 141.256821 
L 270.471249 126.427112 
L 274.693688 112.493224 
L 278.916127 99.689444 
L 283.138567 88.239197 
L 287.361006 78.348597 
L 291.583445 70.20029 
L 295.805884 63.947859 
L 300.028324 59.711004 
L 304.250763 57.571736 
L 308.473202 57.571736 
L 312.695642 59.711004 
L 316.918081 63.947859 
L 321.14052 70.20029 
L 325.362959 78.348597 
L 329.585399 88.239197 
L 333.807838 99.689444 
L 338.030277 112.493224 
L 342.252717 126.427112 
L 346.475156 141.256821 
L 350.697595 156.743688 
L 354.920034 172.650944 
L 359.142474 188.74956 
L 363.364913 204.823447 
L 367.587352 220.673894 
L 371.809792 236.123104 
L 376.032231 251.01679 
L 380.25467 265.225802 
L 384.477109 278.646834 
L 388.699549 291.202247 
L 392.921988 302.839141 
L 397.144427 313.527761 
L 401.366867 323.259398 
L 405.589306 332.04391 
L 409.811745 339.906998 
L 414.034184 346.887388 
L 418.256624 353.034009 
L 422.479063 358.403286 
L 426.701502 363.056625 
L 430.923942 367.058145 
L 435.146381 370.4727 
L 439.36882 373.364218 
L 443.591259 375.794359 
L 447.813699 377.821473 
L 452.036138 379.499857 
L 456.258577 380.879271 
L 460.481017 382.004675 
L 464.703456 382.916167 
L 468.925895 383.649069 
L 473.148334 384.234133 
L 477.370774 384.697837 
L 481.593213 385.062735 
L 485.815652 385.347844 
L 490.038092 385.569036 
L 494.260531 385.739431 
L 498.48297 385.869774 
L 502.705409 385.968782 
L 506.927849 386.043463 
L 511.150288 386.099403 
L 515.372727 386.141014 
" style="fill:none;stroke:#ff6384;stroke-linecap:square;"/>
   </g>
   <g id="line2d_2">
    <path clip-path="url(#pc0ae72c12d)" d="M 86.437572 386.1405 
L 90.640433 386.098695 
L 94.843293 386.042495 
L 99.046153 385.967466 
L 103.249013 385.867997 
L 107.451874 385.737047 
L 111.654734 385.565857 
L 115.857594 385.343635 
L 120.060455 385.057198 
L 124.263315 384.6906 
L 128.466175 384.224736 
L 132.669035 383.636946 
L 136.871896 382.90063 
L 141.074756 381.984892 
L 145.277616 380.854245 
L 149.480476 379.468405 
L 153.683337 377.782202 
L 157.886197 375.745645 
L 162.089057 373.304184 
L 166.291917 370.399195 
L 170.494778 366.968733 
L 174.697638 362.948573 
L 178.900498 358.273556 
L 183.103359 352.879266 
L 187.306219 346.704011 
L 191.509079 339.691103 
L 195.711939 331.791384 
L 199.9148 322.96595 
L 204.11766 313.188978 
L 208.32052 302.450565 
L 212.52338 290.759461 
L 216.726241 278.145558 
L 220.929101 264.662005 
L 225.131961 250.3868 
L 229.334822 235.423732 
L 233.537682 219.902552 
L 237.740542 203.978265 
L 241.943402 187.829498 
L 246.146263 171.655887 
L 250.349123 155.674527 
L 254.551983 140.115515 
L 258.754843 125.216721 
L 262.957704 111.217922 
L 267.160564 98.354496 
L 271.363424 86.850908 
L 275.566284 76.914232 
L 279.769145 68.727967 
L 283.972005 62.446409 
L 288.174865 58.189816 
L 292.377726 56.040582 
L 296.580586 56.040582 
L 300.783446 58.189816 
L 304.986306 62.446409 
L 309.189167 68.727967 
L 313.392027 76.914232 
L 317.594887 86.850908 
L 321.797747 98.354496 
L 326.000608 111.217922 
L 330.203468 125.216721 
L 334.406328 140.115515 
L 338.609189 155.674527 
L 342.812049 171.655887 
L 347.014909 187.829498 
L 351.217769 203.978265 
L 355.42063 219.902552 
L 359.62349 235.423732 
L 363.82635 250.3868 
L 368.02921 264.662005 
L 372.232071 278.145558 
L 376.434931 290.759461 
L 380.637791 302.450565 
L 384.840651 313.188978 
L 389.043512 322.96595 
L 393.246372 331.791384 
L 397.449232 339.691103 
L 401.652093 346.704011 
L 405.854953 352.879266 
L 410.057813 358.273556 
L 414.260673 362.948573 
L 418.463534 366.968733 
L 422.666394 370.399195 
L 426.869254 373.304184 
L 431.072114 375.745645 
L 435.274975 377.782202 
L 439.477835 379.468405 
L 443.680695 380.854245 
L 447.883556 381.984892 
L 452.086416 382.90063 
L 456.289276 383.636946 
L 460.492136 384.224736 
L 464.694997 384.6906 
L 468.897857 385.057198 
L 473.100717 385.343635 
L 477.303577 385.565857 
L 481.506438 385.737047 
L 485.709298 385.867997 
L 489.912158 385.967466 
L 494.115018 386.042495 
L 498.317879 386.098695 
L 502.520739 386.1405 
" style="fill:none;stroke:#36a2eb;stroke-linecap:square;"/>
   </g>
   <g id="line2d_3">
    <path clip-path="url(#pc0ae72c12d)" d="M 58.827273 386.139371 
L 62.987774 386.097141 
L 67.148275 386.040368 
L 71.308777 385.964575 
L 75.469278 385.864094 
L 79.629779 385.73181 
L 83.790281 385.558878 
L 87.950782 385.334393 
L 92.111283 385.04504 
L 96.271785 384.674709 
L 100.432286 384.204102 
L 104.592787 383.610328 
L 108.753289 382.866516 
L 112.91379 381.941454 
L 117.074291 380.799296 
L 121.234793 379.399346 
L 125.395294 377.695976 
L 129.555795 375.638684 
L 133.716297 373.172366 
L 137.876798 370.2378 
L 142.037299 366.772413 
L 146.197801 362.711322 
L 150.358302 357.988708 
L 154.518803 352.539497 
L 158.679305 346.301371 
L 162.839806 339.217063 
L 167.000307 331.236916 
L 171.160808 322.321628 
L 175.32131 312.445114 
L 179.481811 301.597371 
L 183.642312 289.787238 
L 187.802814 277.04491 
L 191.963315 263.424078 
L 196.123816 249.003534 
L 200.284318 233.888124 
L 204.444819 218.208919 
L 208.60532 202.122504 
L 212.765822 185.809323 
L 216.926323 169.471045 
L 221.086824 153.326975 
L 225.247326 137.609553 
L 229.407827 122.559072 
L 233.568328 108.417748 
L 237.72883 95.423357 
L 241.889331 83.802649 
L 246.049832 73.764805 
L 250.210334 65.495194 
L 254.370835 59.149682 
L 258.531336 54.849752 
L 262.691838 52.678636 
L 266.852339 52.678636 
L 271.01284 54.849752 
L 275.173342 59.149682 
L 279.333843 65.495194 
L 283.494344 73.764805 
L 287.654846 83.802649 
L 291.815347 95.423357 
L 295.975848 108.417748 
L 300.13635 122.559072 
L 304.296851 137.609553 
L 308.457352 153.326975 
L 312.617853 169.471045 
L 316.778355 185.809323 
L 320.938856 202.122504 
L 325.099357 218.208919 
L 329.259859 233.888124 
L 333.42036 249.003534 
L 337.580861 263.424078 
L 341.741363 277.04491 
L 345.901864 289.787238 
L 350.062365 301.597371 
L 354.222867 312.445114 
L 358.383368 322.321628 
L 362.543869 331.236916 
L 366.704371 339.217063 
L 370.864872 346.301371 
L 375.025373 352.539497 
L 379.185875 357.988708 
L 383.346376 362.711322 
L 387.506877 366.772413 
L 391.667379 370.2378 
L 395.82788 373.172366 
L 399.988381 375.638684 
L 404.148883 377.695976 
L 408.309384 379.399346 
L 412.469885 380.799296 
L 416.630387 381.941454 
L 420.790888 382.866516 
L 424.951389 383.610328 
L 429.111891 384.204102 
L 433.272392 384.674709 
L 437.432893 385.04504 
L 441.593395 385.334393 
L 445.753896 385.558878 
L 449.914397 385.73181 
L 454.074899 385.864094 
L 458.2354 385.964575 
L 462.395901 386.040368 
L 466.556402 386.097141 
L 470.716904 386.139371 
" style="fill:none;stroke:#4bc0c0;stroke-linecap:square;"/>
   </g>
   <g id="patch_3">
    <path d="M 36 402.93 
L 538.2 402.93 
" style="fill:none;stroke:#000000;stroke-linecap:square;stroke-linejoin:miter;stroke-width:0.8;"/>
   </g>
   <g id="legend_1">
    <g id="patch_4">
     <path d="M 415.601563 109.626875 
L 528.4 109.626875 
Q 531.2 109.626875 531.2 106.826875 
L 531.2 45.8 
Q 531.2 43 528.4 43 
L 415.601563 43 
Q 412.801563 43 412.801563 45.8 
L 412.801563 106.826875 
Q 412.801563 109.626875 415.601563 109.626875 
z
" style="fill:#ffffff;opacity:0.8;stroke:#cccccc;stroke-linejoin:miter;"/>
    </g>
    <g id="patch_5">
     <path d="M 418.401563 59.237813 
L 446.401563 59.237813 
L 446.401563 49.437813 
L 418.401563 49.437813 
z
" style="fill:#ff6384;opacity:0.5;stroke:#ff6384;stroke-linejoin:miter;"/>
    </g>
    <g id="text_1">
     <!-- base -->
     <defs>
      <path d="M 48.6875 27.296875 
Q 48.6875 37.203125 44.609375 42.84375 
Q 40.53125 48.484375 33.40625 48.484375 
Q 26.265625 48.484375 22.1875 42.84375 
Q 18.109375 37.203125 18.109375 27.296875 
Q 18.109375 17.390625 22.1875 11.75 
Q 26.265625 6.109375 33.40625 6.109375 
Q 40.53125 6.109375 44.609375 11.75 
Q 48.6875 17.390625 48.6875 27.296875 
z
M 18.109375 46.390625 
Q 20.953125 51.265625 25.265625 53.625 
Q 29.59375 56 35.59375 56 
Q 45.5625 56 51.78125 48.09375 
Q 58.015625 40.1875 58.015625 27.296875 
Q 58.015625 14.40625 51.78125 6.484375 
Q 45.5625 -1.421875 35.59375 -1.421875 
Q 29.59375 -1.421875 25.265625 0.953125 
Q 20.953125 3.328125 18.109375 8.203125 
L 18.109375 0 
L 9.078125 0 
L 9.078125 75.984375 
L 18.109375 75.984375 
z
" id="DejaVuSans-98"/>
      <path d="M 34.28125 27.484375 
Q 23.390625 27.484375 19.1875 25 
Q 14.984375 22.515625 14.984375 16.5 
Q 14.984375 11.71875 18.140625 8.90625 
Q 21.296875 6.109375 26.703125 6.109375 
Q 34.1875 6.109375 38.703125 11.40625 
Q 43.21875 16.703125 43.21875 25.484375 
L 43.21875 27.484375 
z
M 52.203125 31.203125 
L 52.203125 0 
L 43.21875 0 
L 43.21875 8.296875 
Q 40.140625 3.328125 35.546875 0.953125 
Q 30.953125 -1.421875 24.3125 -1.421875 
Q 15.921875 -1.421875 10.953125 3.296875 
Q 6 8.015625 6 15.921875 
Q 6 25.140625 12.171875 29.828125 
Q 18.359375 34.515625 30.609375 34.515625 
L 43.21875 34.515625 
L 43.21875 35.40625 
Q 43.21875 41.609375 39.140625 45 
Q 35.0625 48.390625 27.6875 48.390625 
Q 23 48.390625 18.546875 47.265625 
Q 14.109375 46.140625 10.015625 43.890625 
L 10.015625 52.203125 
Q 14.9375 54.109375 19.578125 55.046875 
Q 24.21875 56 28.609375 56 
Q 40.484375 56 46.34375 49.84375 
Q 52.203125 43.703125 52.203125 31.203125 
z
" id="DejaVuSans-97"/>
      <path d="M 44.28125 53.078125 
L 44.28125 44.578125 
Q 40.484375 46.53125 36.375 47.5 
Q 32.28125 48.484375 27.875 48.484375 
Q 21.1875 48.484375 17.84375 46.4375 
Q 14.5 44.390625 14.5 40.28125 
Q 14.5 37.15625 16.890625 35.375 
Q 19.28125 33.59375 26.515625 31.984375 
L 29.59375 31.296875 
Q 39.15625 29.25 43.1875 25.515625 
Q 47.21875 21.78125 47.21875 15.09375 
Q 47.21875 7.46875 41.1875 3.015625 
Q 35.15625 -1.421875 24.609375 -1.421875 
Q 20.21875 -1.421875 15.453125 -0.5625 
Q 10.6875 0.296875 5.421875 2 
L 5.421875 11.28125 
Q 10.40625 8.6875 15.234375 7.390625 
Q 20.0625 6.109375 24.8125 6.109375 
Q 31.15625 6.109375 34.5625 8.28125 
Q 37.984375 10.453125 37.984375 14.40625 
Q 37.984375 18.0625 35.515625 20.015625 
Q 33.0625 21.96875 24.703125 23.78125 
L 21.578125 24.515625 
Q 13.234375 26.265625 9.515625 29.90625 
Q 5.8125 33.546875 5.8125 39.890625 
Q 5.8125 47.609375 11.28125 51.796875 
Q 16.75 56 26.8125 56 
Q 31.78125 56 36.171875 55.265625 
Q 40.578125 54.546875 44.28125 53.078125 
z
" id="DejaVuSans-115"/>
      <path d="M 56.203125 29.59375 
L 56.203125 25.203125 
L 14.890625 25.203125 
Q 15.484375 15.921875 20.484375 11.0625 
Q 25.484375 6.203125 34.421875 6.203125 
Q 39.59375 6.203125 44.453125 7.46875 
Q 49.3125 8.734375 54.109375 11.28125 
L 54.109375 2.78125 
Q 49.265625 0.734375 44.1875 -0.34375 
Q 39.109375 -1.421875 33.890625 -1.421875 
Q 20.796875 -1.421875 13.15625 6.1875 
Q 5.515625 13.8125 5.515625 26.8125 
Q 5.515625 40.234375 12.765625 48.109375 
Q 20.015625 56 32.328125 56 
Q 43.359375 56 49.78125 48.890625 
Q 56.203125 41.796875 56.203125 29.59375 
z
M 47.21875 32.234375 
Q 47.125 39.59375 43.09375 43.984375 
Q 39.0625 48.390625 32.421875 48.390625 
Q 24.90625 48.390625 20.390625 44.140625 
Q 15.875 39.890625 15.1875 32.171875 
z
" id="DejaVuSans-101"/>
     </defs>
     <g transform="translate(457.601563 59.237813)scale(0.14 -0.14)">
      <use xlink:href="#DejaVuSans-98"/>
      <use x="63.476562" xlink:href="#DejaVuSans-97"/>
      <use x="124.755859" xlink:href="#DejaVuSans-115"/>
      <use x="176.855469" xlink:href="#DejaVuSans-101"/>
     </g>
    </g>
    <g id="patch_6">
     <path d="M 418.401563 79.787188 
L 446.401563 79.787188 
L 446.401563 69.987188 
L 418.401563 69.987188 
z
" style="fill:#36a2eb;opacity:0.5;stroke:#36a2eb;stroke-linejoin:miter;"/>
    </g>
    <g id="text_2">
     <!-- fifth_mid -->
     <defs>
      <path d="M 37.109375 75.984375 
L 37.109375 68.5 
L 28.515625 68.5 
Q 23.6875 68.5 21.796875 66.546875 
Q 19.921875 64.59375 19.921875 59.515625 
L 19.921875 54.6875 
L 34.71875 54.6875 
L 34.71875 47.703125 
L 19.921875 47.703125 
L 19.921875 0 
L 10.890625 0 
L 10.890625 47.703125 
L 2.296875 47.703125 
L 2.296875 54.6875 
L 10.890625 54.6875 
L 10.890625 58.5 
Q 10.890625 67.625 15.140625 71.796875 
Q 19.390625 75.984375 28.609375 75.984375 
z
" id="DejaVuSans-102"/>
      <path d="M 9.421875 54.6875 
L 18.40625 54.6875 
L 18.40625 0 
L 9.421875 0 
z
M 9.421875 75.984375 
L 18.40625 75.984375 
L 18.40625 64.59375 
L 9.421875 64.59375 
z
" id="DejaVuSans-105"/>
      <path d="M 18.3125 70.21875 
L 18.3125 54.6875 
L 36.8125 54.6875 
L 36.8125 47.703125 
L 18.3125 47.703125 
L 18.3125 18.015625 
Q 18.3125 11.328125 20.140625 9.421875 
Q 21.96875 7.515625 27.59375 7.515625 
L 36.8125 7.515625 
L 36.8125 0 
L 27.59375 0 
Q 17.1875 0 13.234375 3.875 
Q 9.28125 7.765625 9.28125 18.015625 
L 9.28125 47.703125 
L 2.6875 47.703125 
L 2.6875 54.6875 
L 9.28125 54.6875 
L 9.28125 70.21875 
z
" id="DejaVuSans-116"/>
      <path d="M 54.890625 33.015625 
L 54.890625 0 
L 45.90625 0 
L 45.90625 32.71875 
Q 45.90625 40.484375 42.875 44.328125 
Q 39.84375 48.1875 33.796875 48.1875 
Q 26.515625 48.1875 22.3125 43.546875 
Q 18.109375 38.921875 18.109375 30.90625 
L 18.109375 0 
L 9.078125 0 
L 9.078125 75.984375 
L 18.109375 75.984375 
L 18.109375 46.1875 
Q 21.34375 51.125 25.703125 53.5625 
Q 30.078125 56 35.796875 56 
Q 45.21875 56 50.046875 50.171875 
Q 54.890625 44.34375 54.890625 33.015625 
z
" id="DejaVuSans-104"/>
      <path d="M 50.984375 -16.609375 
L 50.984375 -23.578125 
L -0.984375 -23.578125 
L -0.984375 -16.609375 
z
" id="DejaVuSans-95"/>
      <path d="M 52 44.1875 
Q 55.375 50.25 60.0625 53.125 
Q 64.75 56 71.09375 56 
Q 79.640625 56 84.28125 50.015625 
Q 88.921875 44.046875 88.921875 33.015625 
L 88.921875 0 
L 79.890625 0 
L 79.890625 32.71875 
Q 79.890625 40.578125 77.09375 44.375 
Q 74.3125 48.1875 68.609375 48.1875 
Q 61.625 48.1875 57.5625 43.546875 
Q 53.515625 38.921875 53.515625 30.90625 
L 53.515625 0 
L 44.484375 0 
L 44.484375 32.71875 
Q 44.484375 40.625 41.703125 44.40625 
Q 38.921875 48.1875 33.109375 48.1875 
Q 26.21875 48.1875 22.15625 43.53125 
Q 18.109375 38.875 18.109375 30.90625 
L 18.109375 0 
L 9.078125 0 
L 9.078125 54.6875 
L 18.109375 54.6875 
L 18.109375 46.1875 
Q 21.1875 51.21875 25.484375 53.609375 
Q 29.78125 56 35.6875 56 
Q 41.65625 56 45.828125 52.96875 
Q 50 49.953125 52 44.1875 
z
" id="DejaVuSans-109"/>
      <path d="M 45.40625 46.390625 
L 45.40625 75.984375 
L 54.390625 75.984375 
L 54.390625 0 
L 45.40625 0 
L 45.40625 8.203125 
Q 42.578125 3.328125 38.25 0.953125 
Q 33.9375 -1.421875 27.875 -1.421875 
Q 17.96875 -1.421875 11.734375 6.484375 
Q 5.515625 14.40625 5.515625 27.296875 
Q 5.515625 40.1875 11.734375 48.09375 
Q 17.96875 56 27.875 56 
Q 33.9375 56 38.25 53.625 
Q 42.578125 51.265625 45.40625 46.390625 
z
M 14.796875 27.296875 
Q 14.796875 17.390625 18.875 11.75 
Q 22.953125 6.109375 30.078125 6.109375 
Q 37.203125 6.109375 41.296875 11.75 
Q 45.40625 17.390625 45.40625 27.296875 
Q 45.40625 37.203125 41.296875 42.84375 
Q 37.203125 48.484375 30.078125 48.484375 
Q 22.953125 48.484375 18.875 42.84375 
Q 14.796875 37.203125 14.796875 27.296875 
z
" id="DejaVuSans-100"/>
     </defs>
     <g transform="translate(457.601563 79.787188)scale(0.14 -0.14)">
      <use xlink:href="#DejaVuSans-102"/>
      <use x="35.205078" xlink:href="#DejaVuSans-105"/>
      <use x="62.988281" xlink:href="#DejaVuSans-102"/>
      <use x="98.177734" xlink:href="#DejaVuSans-116"/>
      <use x="137.386719" xlink:href="#DejaVuSans-104"/>
      <use x="200.765625" xlink:href="#DejaVuSans-95"/>
      <use x="250.765625" xlink:href="#DejaVuSans-109"/>
      <use x="348.177734" xlink:href="#DejaVuSans-105"/>
      <use x="375.960938" xlink:href="#DejaVuSans-100"/>
     </g>
    </g>
    <g id="patch_7">
     <path d="M 418.401563 100.725937 
L 446.401563 100.725937 
L 446.401563 90.925937 
L 418.401563 90.925937 
z
" style="fill:#4bc0c0;opacity:0.5;stroke:#4bc0c0;stroke-linejoin:miter;"/>
    </g>
    <g id="text_3">
     <!-- fifth_right -->
     <defs>
      <path d="M 41.109375 46.296875 
Q 39.59375 47.171875 37.8125 47.578125 
Q 36.03125 48 33.890625 48 
Q 26.265625 48 22.1875 43.046875 
Q 18.109375 38.09375 18.109375 28.8125 
L 18.109375 0 
L 9.078125 0 
L 9.078125 54.6875 
L 18.109375 54.6875 
L 18.109375 46.1875 
Q 20.953125 51.171875 25.484375 53.578125 
Q 30.03125 56 36.53125 56 
Q 37.453125 56 38.578125 55.875 
Q 39.703125 55.765625 41.0625 55.515625 
z
" id="DejaVuSans-114"/>
      <path d="M 45.40625 27.984375 
Q 45.40625 37.75 41.375 43.109375 
Q 37.359375 48.484375 30.078125 48.484375 
Q 22.859375 48.484375 18.828125 43.109375 
Q 14.796875 37.75 14.796875 27.984375 
Q 14.796875 18.265625 18.828125 12.890625 
Q 22.859375 7.515625 30.078125 7.515625 
Q 37.359375 7.515625 41.375 12.890625 
Q 45.40625 18.265625 45.40625 27.984375 
z
M 54.390625 6.78125 
Q 54.390625 -7.171875 48.1875 -13.984375 
Q 42 -20.796875 29.203125 -20.796875 
Q 24.46875 -20.796875 20.265625 -20.09375 
Q 16.0625 -19.390625 12.109375 -17.921875 
L 12.109375 -9.1875 
Q 16.0625 -11.328125 19.921875 -12.34375 
Q 23.78125 -13.375 27.78125 -13.375 
Q 36.625 -13.375 41.015625 -8.765625 
Q 45.40625 -4.15625 45.40625 5.171875 
L 45.40625 9.625 
Q 42.625 4.78125 38.28125 2.390625 
Q 33.9375 0 27.875 0 
Q 17.828125 0 11.671875 7.65625 
Q 5.515625 15.328125 5.515625 27.984375 
Q 5.515625 40.671875 11.671875 48.328125 
Q 17.828125 56 27.875 56 
Q 33.9375 56 38.28125 53.609375 
Q 42.625 51.21875 45.40625 46.390625 
L 45.40625 54.6875 
L 54.390625 54.6875 
z
" id="DejaVuSans-103"/>
     </defs>
     <g transform="translate(457.601563 100.725937)scale(0.14 -0.14)">
      <use xlink:href="#DejaVuSans-102"/>
      <use x="35.205078" xlink:href="#DejaVuSans-105"/>
      <use x="62.988281" xlink:href="#DejaVuSans-102"/>
      <use x="98.177734" xlink:href="#DejaVuSans-116"/>
      <use x="137.386719" xlink:href="#DejaVuSans-104"/>
      <use x="200.765625" xlink:href="#DejaVuSans-95"/>
      <use x="250.765625" xlink:href="#DejaVuSans-114"/>
      <use x="291.878906" xlink:href="#DejaVuSans-105"/>
      <use x="319.662109" xlink:href="#DejaVuSans-103"/>
      <use x="383.138672" xlink:href="#DejaVuSans-104"/>
      <use x="446.517578" xlink:href="#DejaVuSans-116"/>
     </g>
    </g>
   </g>
  </g>
  <g id="axes_2">
   <g id="patch_8">
    <path d="M 36 525.24 
L 538.2 525.24 
L 538.2 402.93 
L 36 402.93 
z
" style="fill:none;"/>
   </g>
   <g id="patch_9">
    <path clip-path="url(#p86d5d45d15)" d="M 203.946718 519.680455 
L 408.777248 519.680455 
L 408.777248 497.442273 
L 203.946718 497.442273 
z
" style="fill:#ff6384;opacity:0.5;"/>
   </g>
   <g id="patch_10">
    <path clip-path="url(#p86d5d45d15)" d="M 192.53878 475.204091 
L 396.419532 475.204091 
L 396.419532 452.965909 
L 192.53878 452.965909 
z
" style="fill:#36a2eb;opacity:0.5;"/>
   </g>
   <g id="patch_11">
    <path clip-path="url(#p86d5d45d15)" d="M 163.859129 430.727727 
L 365.685048 430.727727 
L 365.685048 408.489545 
L 163.859129 408.489545 
z
" style="fill:#4bc0c0;opacity:0.5;"/>
   </g>
   <g id="matplotlib.axis_1">
    <g id="xtick_1">
     <g id="line2d_4">
      <defs>
       <path d="M 0 0 
L 0 3.5 
" id="ma72f1b4e28" style="stroke:#000000;stroke-width:0.8;"/>
      </defs>
      <g>
       <use style="stroke:#000000;stroke-width:0.8;" x="53.85191" xlink:href="#ma72f1b4e28" y="525.24"/>
      </g>
     </g>
     <g id="text_4">
      <!-- 6.5 -->
      <defs>
       <path d="M 33.015625 40.375 
Q 26.375 40.375 22.484375 35.828125 
Q 18.609375 31.296875 18.609375 23.390625 
Q 18.609375 15.53125 22.484375 10.953125 
Q 26.375 6.390625 33.015625 6.390625 
Q 39.65625 6.390625 43.53125 10.953125 
Q 47.40625 15.53125 47.40625 23.390625 
Q 47.40625 31.296875 43.53125 35.828125 
Q 39.65625 40.375 33.015625 40.375 
z
M 52.59375 71.296875 
L 52.59375 62.3125 
Q 48.875 64.0625 45.09375 64.984375 
Q 41.3125 65.921875 37.59375 65.921875 
Q 27.828125 65.921875 22.671875 59.328125 
Q 17.53125 52.734375 16.796875 39.40625 
Q 19.671875 43.65625 24.015625 45.921875 
Q 28.375 48.1875 33.59375 48.1875 
Q 44.578125 48.1875 50.953125 41.515625 
Q 57.328125 34.859375 57.328125 23.390625 
Q 57.328125 12.15625 50.6875 5.359375 
Q 44.046875 -1.421875 33.015625 -1.421875 
Q 20.359375 -1.421875 13.671875 8.265625 
Q 6.984375 17.96875 6.984375 36.375 
Q 6.984375 53.65625 15.1875 63.9375 
Q 23.390625 74.21875 37.203125 74.21875 
Q 40.921875 74.21875 44.703125 73.484375 
Q 48.484375 72.75 52.59375 71.296875 
z
" id="DejaVuSans-54"/>
       <path d="M 10.6875 12.40625 
L 21 12.40625 
L 21 0 
L 10.6875 0 
z
" id="DejaVuSans-46"/>
       <path d="M 10.796875 72.90625 
L 49.515625 72.90625 
L 49.515625 64.59375 
L 19.828125 64.59375 
L 19.828125 46.734375 
Q 21.96875 47.46875 24.109375 47.828125 
Q 26.265625 48.1875 28.421875 48.1875 
Q 40.625 48.1875 47.75 41.5 
Q 54.890625 34.8125 54.890625 23.390625 
Q 54.890625 11.625 47.5625 5.09375 
Q 40.234375 -1.421875 26.90625 -1.421875 
Q 22.3125 -1.421875 17.546875 -0.640625 
Q 12.796875 0.140625 7.71875 1.703125 
L 7.71875 11.625 
Q 12.109375 9.234375 16.796875 8.0625 
Q 21.484375 6.890625 26.703125 6.890625 
Q 35.15625 6.890625 40.078125 11.328125 
Q 45.015625 15.765625 45.015625 23.390625 
Q 45.015625 31 40.078125 35.4375 
Q 35.15625 39.890625 26.703125 39.890625 
Q 22.75 39.890625 18.8125 39.015625 
Q 14.890625 38.140625 10.796875 36.28125 
z
" id="DejaVuSans-53"/>
      </defs>
      <g transform="translate(42.719722 542.877813)scale(0.14 -0.14)">
       <use xlink:href="#DejaVuSans-54"/>
       <use x="63.623047" xlink:href="#DejaVuSans-46"/>
       <use x="95.410156" xlink:href="#DejaVuSans-53"/>
      </g>
     </g>
    </g>
    <g id="xtick_2">
     <g id="line2d_5">
      <g>
       <use style="stroke:#000000;stroke-width:0.8;" x="128.119578" xlink:href="#ma72f1b4e28" y="525.24"/>
      </g>
     </g>
     <g id="text_5">
      <!-- 7.0 -->
      <defs>
       <path d="M 8.203125 72.90625 
L 55.078125 72.90625 
L 55.078125 68.703125 
L 28.609375 0 
L 18.3125 0 
L 43.21875 64.59375 
L 8.203125 64.59375 
z
" id="DejaVuSans-55"/>
       <path d="M 31.78125 66.40625 
Q 24.171875 66.40625 20.328125 58.90625 
Q 16.5 51.421875 16.5 36.375 
Q 16.5 21.390625 20.328125 13.890625 
Q 24.171875 6.390625 31.78125 6.390625 
Q 39.453125 6.390625 43.28125 13.890625 
Q 47.125 21.390625 47.125 36.375 
Q 47.125 51.421875 43.28125 58.90625 
Q 39.453125 66.40625 31.78125 66.40625 
z
M 31.78125 74.21875 
Q 44.046875 74.21875 50.515625 64.515625 
Q 56.984375 54.828125 56.984375 36.375 
Q 56.984375 17.96875 50.515625 8.265625 
Q 44.046875 -1.421875 31.78125 -1.421875 
Q 19.53125 -1.421875 13.0625 8.265625 
Q 6.59375 17.96875 6.59375 36.375 
Q 6.59375 54.828125 13.0625 64.515625 
Q 19.53125 74.21875 31.78125 74.21875 
z
" id="DejaVuSans-48"/>
      </defs>
      <g transform="translate(116.987391 542.877813)scale(0.14 -0.14)">
       <use xlink:href="#DejaVuSans-55"/>
       <use x="63.623047" xlink:href="#DejaVuSans-46"/>
       <use x="95.410156" xlink:href="#DejaVuSans-48"/>
      </g>
     </g>
    </g>
    <g id="xtick_3">
     <g id="line2d_6">
      <g>
       <use style="stroke:#000000;stroke-width:0.8;" x="202.387247" xlink:href="#ma72f1b4e28" y="525.24"/>
      </g>
     </g>
     <g id="text_6">
      <!-- 7.5 -->
      <g transform="translate(191.255059 542.877813)scale(0.14 -0.14)">
       <use xlink:href="#DejaVuSans-55"/>
       <use x="63.623047" xlink:href="#DejaVuSans-46"/>
       <use x="95.410156" xlink:href="#DejaVuSans-53"/>
      </g>
     </g>
    </g>
    <g id="xtick_4">
     <g id="line2d_7">
      <g>
       <use style="stroke:#000000;stroke-width:0.8;" x="276.654915" xlink:href="#ma72f1b4e28" y="525.24"/>
      </g>
     </g>
     <g id="text_7">
      <!-- 8.0 -->
      <defs>
       <path d="M 31.78125 34.625 
Q 24.75 34.625 20.71875 30.859375 
Q 16.703125 27.09375 16.703125 20.515625 
Q 16.703125 13.921875 20.71875 10.15625 
Q 24.75 6.390625 31.78125 6.390625 
Q 38.8125 6.390625 42.859375 10.171875 
Q 46.921875 13.96875 46.921875 20.515625 
Q 46.921875 27.09375 42.890625 30.859375 
Q 38.875 34.625 31.78125 34.625 
z
M 21.921875 38.8125 
Q 15.578125 40.375 12.03125 44.71875 
Q 8.5 49.078125 8.5 55.328125 
Q 8.5 64.0625 14.71875 69.140625 
Q 20.953125 74.21875 31.78125 74.21875 
Q 42.671875 74.21875 48.875 69.140625 
Q 55.078125 64.0625 55.078125 55.328125 
Q 55.078125 49.078125 51.53125 44.71875 
Q 48 40.375 41.703125 38.8125 
Q 48.828125 37.15625 52.796875 32.3125 
Q 56.78125 27.484375 56.78125 20.515625 
Q 56.78125 9.90625 50.3125 4.234375 
Q 43.84375 -1.421875 31.78125 -1.421875 
Q 19.734375 -1.421875 13.25 4.234375 
Q 6.78125 9.90625 6.78125 20.515625 
Q 6.78125 27.484375 10.78125 32.3125 
Q 14.796875 37.15625 21.921875 38.8125 
z
M 18.3125 54.390625 
Q 18.3125 48.734375 21.84375 45.5625 
Q 25.390625 42.390625 31.78125 42.390625 
Q 38.140625 42.390625 41.71875 45.5625 
Q 45.3125 48.734375 45.3125 54.390625 
Q 45.3125 60.0625 41.71875 63.234375 
Q 38.140625 66.40625 31.78125 66.40625 
Q 25.390625 66.40625 21.84375 63.234375 
Q 18.3125 60.0625 18.3125 54.390625 
z
" id="DejaVuSans-56"/>
      </defs>
      <g transform="translate(265.522728 542.877813)scale(0.14 -0.14)">
       <use xlink:href="#DejaVuSans-56"/>
       <use x="63.623047" xlink:href="#DejaVuSans-46"/>
       <use x="95.410156" xlink:href="#DejaVuSans-48"/>
      </g>
     </g>
    </g>
    <g id="xtick_5">
     <g id="line2d_8">
      <g>
       <use style="stroke:#000000;stroke-width:0.8;" x="350.922584" xlink:href="#ma72f1b4e28" y="525.24"/>
      </g>
     </g>
     <g id="text_8">
      <!-- 8.5 -->
      <g transform="translate(339.790396 542.877813)scale(0.14 -0.14)">
       <use xlink:href="#DejaVuSans-56"/>
       <use x="63.623047" xlink:href="#DejaVuSans-46"/>
       <use x="95.410156" xlink:href="#DejaVuSans-53"/>
      </g>
     </g>
    </g>
    <g id="xtick_6">
     <g id="line2d_9">
      <g>
       <use style="stroke:#000000;stroke-width:0.8;" x="425.190252" xlink:href="#ma72f1b4e28" y="525.24"/>
      </g>
     </g>
     <g id="text_9">
      <!-- 9.0 -->
      <defs>
       <path d="M 10.984375 1.515625 
L 10.984375 10.5 
Q 14.703125 8.734375 18.5 7.8125 
Q 22.3125 6.890625 25.984375 6.890625 
Q 35.75 6.890625 40.890625 13.453125 
Q 46.046875 20.015625 46.78125 33.40625 
Q 43.953125 29.203125 39.59375 26.953125 
Q 35.25 24.703125 29.984375 24.703125 
Q 19.046875 24.703125 12.671875 31.3125 
Q 6.296875 37.9375 6.296875 49.421875 
Q 6.296875 60.640625 12.9375 67.421875 
Q 19.578125 74.21875 30.609375 74.21875 
Q 43.265625 74.21875 49.921875 64.515625 
Q 56.59375 54.828125 56.59375 36.375 
Q 56.59375 19.140625 48.40625 8.859375 
Q 40.234375 -1.421875 26.421875 -1.421875 
Q 22.703125 -1.421875 18.890625 -0.6875 
Q 15.09375 0.046875 10.984375 1.515625 
z
M 30.609375 32.421875 
Q 37.25 32.421875 41.125 36.953125 
Q 45.015625 41.5 45.015625 49.421875 
Q 45.015625 57.28125 41.125 61.84375 
Q 37.25 66.40625 30.609375 66.40625 
Q 23.96875 66.40625 20.09375 61.84375 
Q 16.21875 57.28125 16.21875 49.421875 
Q 16.21875 41.5 20.09375 36.953125 
Q 23.96875 32.421875 30.609375 32.421875 
z
" id="DejaVuSans-57"/>
      </defs>
      <g transform="translate(414.058065 542.877813)scale(0.14 -0.14)">
       <use xlink:href="#DejaVuSans-57"/>
       <use x="63.623047" xlink:href="#DejaVuSans-46"/>
       <use x="95.410156" xlink:href="#DejaVuSans-48"/>
      </g>
     </g>
    </g>
    <g id="xtick_7">
     <g id="line2d_10">
      <g>
       <use style="stroke:#000000;stroke-width:0.8;" x="499.457921" xlink:href="#ma72f1b4e28" y="525.24"/>
      </g>
     </g>
     <g id="text_10">
      <!-- 9.5 -->
      <g transform="translate(488.325733 542.877813)scale(0.14 -0.14)">
       <use xlink:href="#DejaVuSans-57"/>
       <use x="63.623047" xlink:href="#DejaVuSans-46"/>
       <use x="95.410156" xlink:href="#DejaVuSans-53"/>
      </g>
     </g>
    </g>
   </g>
   <g id="line2d_11">
    <path clip-path="url(#p86d5d45d15)" d="M 306.361983 525.24 
L 306.361983 402.93 
" style="fill:none;stroke:#ff6384;stroke-dasharray:5.55,2.4;stroke-dashoffset:0;stroke-opacity:0.8;stroke-width:1.5;"/>
   </g>
   <g id="line2d_12">
    <path clip-path="url(#p86d5d45d15)" d="M 294.479156 525.24 
L 294.479156 402.93 
" style="fill:none;stroke:#36a2eb;stroke-dasharray:5.55,2.4;stroke-dashoffset:0;stroke-opacity:0.8;stroke-width:1.5;"/>
   </g>
   <g id="line2d_13">
    <path clip-path="url(#p86d5d45d15)" d="M 264.772088 525.24 
L 264.772088 402.93 
" style="fill:none;stroke:#4bc0c0;stroke-dasharray:5.55,2.4;stroke-dashoffset:0;stroke-opacity:0.8;stroke-width:1.5;"/>
   </g>
   <g id="patch_12">
    <path d="M 36 525.24 
L 538.2 525.24 
" style="fill:none;stroke:#000000;stroke-linecap:square;stroke-linejoin:miter;stroke-width:0.8;"/>
   </g>
  </g>
 </g>
 <defs>
  <clipPath id="pc0ae72c12d">
   <rect height="366.93" width="502.2" x="36" y="36"/>
  </clipPath>
  <clipPath id="p86d5d45d15">
   <rect height="122.31" width="502.2" x="36" y="402.93"/>
  </clipPath>
 </defs>
</svg>
