<?xml version="1.0" encoding="utf-8" standalone="no"?>
<!DOCTYPE svg PUBLIC "-//W3C//DTD SVG 1.1//EN"
  "http://www.w3.org/Graphics/SVG/1.1/DTD/svg11.dtd">
<!-- Created with matplotlib (https://matplotlib.org/) -->
<svg height="581.789375pt" version="1.1" viewBox="0 0 574.2 581.789375" width="574.2pt" xmlns="http://www.w3.org/2000/svg" xmlns:xlink="http://www.w3.org/1999/xlink">
 <defs>
  <style type="text/css">
*{stroke-linecap:butt;stroke-linejoin:round;}
  </style>
 </defs>
 <g id="figure_1">
  <g id="patch_1">
   <path d="M 0 581.789375 
L 574.2 581.789375 
L 574.2 0 
L 0 0 
z
" style="fill:none;"/>
  </g>
  <g id="axes_1">
   <g id="patch_2">
    <path d="M 36 402.93 
L 538.2 402.93 
L 538.2 36 
L 36 36 
z
" style="fill:none;"/>
   </g>
   <g id="PolyCollection_1">
    <defs>
     <path d="M 58.827273 -195.538011 
L 58.827273 -195.650004 
L 62.397718 -195.692234 
L 65.968164 -195.749007 
L 69.538609 -195.8248 
L 73.109055 -195.925281 
L 76.679501 -196.057565 
L 80.249946 -196.230497 
L 83.820392 -196.454982 
L 87.390837 -196.744335 
L 90.961283 -197.114666 
L 94.531729 -197.585273 
L 98.102174 -198.179047 
L 101.67262 -198.922859 
L 105.243065 -199.847921 
L 108.813511 -200.990079 
L 112.383957 -202.390029 
L 115.954402 -204.093399 
L 119.524848 -206.150691 
L 123.095293 -208.617009 
L 126.665739 -211.551575 
L 130.236185 -215.016962 
L 133.80663 -219.078053 
L 137.377076 -223.800667 
L 140.947521 -229.249878 
L 144.517967 -235.488004 
L 148.088412 -242.572312 
L 151.658858 -250.552459 
L 155.229304 -259.467747 
L 158.799749 -269.344261 
L 162.370195 -280.192004 
L 165.94064 -292.002137 
L 169.511086 -304.744465 
L 173.081532 -318.365297 
L 176.651977 -332.785841 
L 180.222423 -347.901251 
L 183.792868 -363.580456 
L 187.363314 -379.666871 
L 190.93376 -395.980052 
L 194.504205 -412.31833 
L 198.074651 -428.4624 
L 201.645096 -444.179822 
L 205.215542 -459.230303 
L 208.785988 -473.371627 
L 212.356433 -486.366018 
L 215.926879 -497.986726 
L 219.497324 -508.02457 
L 223.06777 -516.294181 
L 226.638215 -522.639693 
L 230.208661 -526.939623 
L 233.779107 -529.110739 
L 237.349552 -529.110739 
L 240.919998 -526.939623 
L 244.490443 -522.639693 
L 248.060889 -516.294181 
L 251.631335 -508.02457 
L 255.20178 -497.986726 
L 258.772226 -486.366018 
L 262.342671 -473.371627 
L 265.913117 -459.230303 
L 269.483563 -444.179822 
L 273.054008 -428.4624 
L 276.624454 -412.31833 
L 280.194899 -395.980052 
L 283.765345 -379.666871 
L 287.335791 -363.580456 
L 290.906236 -347.901251 
L 294.476682 -332.785841 
L 298.047127 -318.365297 
L 301.617573 -304.744465 
L 305.188018 -292.002137 
L 308.758464 -280.192004 
L 312.32891 -269.344261 
L 315.899355 -259.467747 
L 319.469801 -250.552459 
L 323.040246 -242.572312 
L 326.610692 -235.488004 
L 330.181138 -229.249878 
L 333.751583 -223.800667 
L 337.322029 -219.078053 
L 340.892474 -215.016962 
L 344.46292 -211.551575 
L 348.033366 -208.617009 
L 351.603811 -206.150691 
L 355.174257 -204.093399 
L 358.744702 -202.390029 
L 362.315148 -200.990079 
L 365.885594 -199.847921 
L 369.456039 -198.922859 
L 373.026485 -198.179047 
L 376.59693 -197.585273 
L 380.167376 -197.114666 
L 383.737821 -196.744335 
L 387.308267 -196.454982 
L 390.878713 -196.230497 
L 394.449158 -196.057565 
L 398.019604 -195.925281 
L 401.590049 -195.8248 
L 405.160495 -195.749007 
L 408.730941 -195.692234 
L 412.301386 -195.650004 
L 412.301386 -195.538011 
L 412.301386 -195.538011 
L 408.730941 -195.538011 
L 405.160495 -195.538011 
L 401.590049 -195.538011 
L 398.019604 -195.538011 
L 394.449158 -195.538011 
L 390.878713 -195.538011 
L 387.308267 -195.538011 
L 383.737821 -195.538011 
L 380.167376 -195.538011 
L 376.59693 -195.538011 
L 373.026485 -195.538011 
L 369.456039 -195.538011 
L 365.885594 -195.538011 
L 362.315148 -195.538011 
L 358.744702 -195.538011 
L 355.174257 -195.538011 
L 351.603811 -195.538011 
L 348.033366 -195.538011 
L 344.46292 -195.538011 
L 340.892474 -195.538011 
L 337.322029 -195.538011 
L 333.751583 -195.538011 
L 330.181138 -195.538011 
L 326.610692 -195.538011 
L 323.040246 -195.538011 
L 319.469801 -195.538011 
L 315.899355 -195.538011 
L 312.32891 -195.538011 
L 308.758464 -195.538011 
L 305.188018 -195.538011 
L 301.617573 -195.538011 
L 298.047127 -195.538011 
L 294.476682 -195.538011 
L 290.906236 -195.538011 
L 287.335791 -195.538011 
L 283.765345 -195.538011 
L 280.194899 -195.538011 
L 276.624454 -195.538011 
L 273.054008 -195.538011 
L 269.483563 -195.538011 
L 265.913117 -195.538011 
L 262.342671 -195.538011 
L 258.772226 -195.538011 
L 255.20178 -195.538011 
L 251.631335 -195.538011 
L 248.060889 -195.538011 
L 244.490443 -195.538011 
L 240.919998 -195.538011 
L 237.349552 -195.538011 
L 233.779107 -195.538011 
L 230.208661 -195.538011 
L 226.638215 -195.538011 
L 223.06777 -195.538011 
L 219.497324 -195.538011 
L 215.926879 -195.538011 
L 212.356433 -195.538011 
L 208.785988 -195.538011 
L 205.215542 -195.538011 
L 201.645096 -195.538011 
L 198.074651 -195.538011 
L 194.504205 -195.538011 
L 190.93376 -195.538011 
L 187.363314 -195.538011 
L 183.792868 -195.538011 
L 180.222423 -195.538011 
L 176.651977 -195.538011 
L 173.081532 -195.538011 
L 169.511086 -195.538011 
L 165.94064 -195.538011 
L 162.370195 -195.538011 
L 158.799749 -195.538011 
L 155.229304 -195.538011 
L 151.658858 -195.538011 
L 148.088412 -195.538011 
L 144.517967 -195.538011 
L 140.947521 -195.538011 
L 137.377076 -195.538011 
L 133.80663 -195.538011 
L 130.236185 -195.538011 
L 126.665739 -195.538011 
L 123.095293 -195.538011 
L 119.524848 -195.538011 
L 115.954402 -195.538011 
L 112.383957 -195.538011 
L 108.813511 -195.538011 
L 105.243065 -195.538011 
L 101.67262 -195.538011 
L 98.102174 -195.538011 
L 94.531729 -195.538011 
L 90.961283 -195.538011 
L 87.390837 -195.538011 
L 83.820392 -195.538011 
L 80.249946 -195.538011 
L 76.679501 -195.538011 
L 73.109055 -195.538011 
L 69.538609 -195.538011 
L 65.968164 -195.538011 
L 62.397718 -195.538011 
L 58.827273 -195.538011 
z
" id="m474e6f444f" style="stroke:#ff6384;stroke-opacity:0.5;"/>
    </defs>
    <g clip-path="url(#p4f92105d29)">
     <use style="fill:#ff6384;fill-opacity:0.5;stroke:#ff6384;stroke-opacity:0.5;" x="0" xlink:href="#m474e6f444f" y="581.789375"/>
    </g>
   </g>
   <g id="PolyCollection_2">
    <defs>
     <path d="M 70.520097 -195.538011 
L 70.520097 -195.629005 
L 74.914499 -195.663317 
L 79.308902 -195.709445 
L 83.703304 -195.771027 
L 88.097706 -195.852668 
L 92.492108 -195.960148 
L 96.886511 -196.100655 
L 101.280913 -196.283048 
L 105.675315 -196.518148 
L 110.069718 -196.819041 
L 114.46412 -197.201408 
L 118.858522 -197.683849 
L 123.252924 -198.288195 
L 127.647327 -199.039807 
L 132.041729 -199.967809 
L 136.436131 -201.105266 
L 140.830533 -202.489252 
L 145.224936 -204.160798 
L 149.619338 -206.164679 
L 154.01374 -208.549009 
L 158.408143 -211.364631 
L 162.802545 -214.664262 
L 167.196947 -218.501379 
L 171.591349 -222.928855 
L 175.985752 -227.997324 
L 180.380154 -233.753314 
L 184.774556 -240.237172 
L 189.168958 -247.48083 
L 193.563361 -255.505484 
L 197.957763 -264.31926 
L 202.352165 -273.914977 
L 206.746568 -284.2681 
L 211.14097 -295.335006 
L 215.535372 -307.051678 
L 219.929774 -319.332927 
L 224.324177 -332.072258 
L 228.718579 -345.142448 
L 233.112981 -358.396884 
L 237.507383 -371.671712 
L 241.901786 -384.788746 
L 246.296188 -397.559128 
L 250.69059 -409.787623 
L 255.084992 -421.277428 
L 259.479395 -431.835353 
L 263.873797 -441.277162 
L 268.268199 -449.432895 
L 272.662602 -456.151943 
L 277.057004 -461.307662 
L 281.451406 -464.801349 
L 285.845808 -466.565378 
L 290.240211 -466.565378 
L 294.634613 -464.801349 
L 299.029015 -461.307662 
L 303.423417 -456.151943 
L 307.81782 -449.432895 
L 312.212222 -441.277162 
L 316.606624 -431.835353 
L 321.001027 -421.277428 
L 325.395429 -409.787623 
L 329.789831 -397.559128 
L 334.184233 -384.788746 
L 338.578636 -371.671712 
L 342.973038 -358.396884 
L 347.36744 -345.142448 
L 351.761842 -332.072258 
L 356.156245 -319.332927 
L 360.550647 -307.051678 
L 364.945049 -295.335006 
L 369.339452 -284.2681 
L 373.733854 -273.914977 
L 378.128256 -264.31926 
L 382.522658 -255.505484 
L 386.917061 -247.48083 
L 391.311463 -240.237172 
L 395.705865 -233.753314 
L 400.100267 -227.997324 
L 404.49467 -222.928855 
L 408.889072 -218.501379 
L 413.283474 -214.664262 
L 417.677877 -211.364631 
L 422.072279 -208.549009 
L 426.466681 -206.164679 
L 430.861083 -204.160798 
L 435.255486 -202.489252 
L 439.649888 -201.105266 
L 444.04429 -199.967809 
L 448.438692 -199.039807 
L 452.833095 -198.288195 
L 457.227497 -197.683849 
L 461.621899 -197.201408 
L 466.016301 -196.819041 
L 470.410704 -196.518148 
L 474.805106 -196.283048 
L 479.199508 -196.100655 
L 483.593911 -195.960148 
L 487.988313 -195.852668 
L 492.382715 -195.771027 
L 496.777117 -195.709445 
L 501.17152 -195.663317 
L 505.565922 -195.629005 
L 505.565922 -195.538011 
L 505.565922 -195.538011 
L 501.17152 -195.538011 
L 496.777117 -195.538011 
L 492.382715 -195.538011 
L 487.988313 -195.538011 
L 483.593911 -195.538011 
L 479.199508 -195.538011 
L 474.805106 -195.538011 
L 470.410704 -195.538011 
L 466.016301 -195.538011 
L 461.621899 -195.538011 
L 457.227497 -195.538011 
L 452.833095 -195.538011 
L 448.438692 -195.538011 
L 444.04429 -195.538011 
L 439.649888 -195.538011 
L 435.255486 -195.538011 
L 430.861083 -195.538011 
L 426.466681 -195.538011 
L 422.072279 -195.538011 
L 417.677877 -195.538011 
L 413.283474 -195.538011 
L 408.889072 -195.538011 
L 404.49467 -195.538011 
L 400.100267 -195.538011 
L 395.705865 -195.538011 
L 391.311463 -195.538011 
L 386.917061 -195.538011 
L 382.522658 -195.538011 
L 378.128256 -195.538011 
L 373.733854 -195.538011 
L 369.339452 -195.538011 
L 364.945049 -195.538011 
L 360.550647 -195.538011 
L 356.156245 -195.538011 
L 351.761842 -195.538011 
L 347.36744 -195.538011 
L 342.973038 -195.538011 
L 338.578636 -195.538011 
L 334.184233 -195.538011 
L 329.789831 -195.538011 
L 325.395429 -195.538011 
L 321.001027 -195.538011 
L 316.606624 -195.538011 
L 312.212222 -195.538011 
L 307.81782 -195.538011 
L 303.423417 -195.538011 
L 299.029015 -195.538011 
L 294.634613 -195.538011 
L 290.240211 -195.538011 
L 285.845808 -195.538011 
L 281.451406 -195.538011 
L 277.057004 -195.538011 
L 272.662602 -195.538011 
L 268.268199 -195.538011 
L 263.873797 -195.538011 
L 259.479395 -195.538011 
L 255.084992 -195.538011 
L 250.69059 -195.538011 
L 246.296188 -195.538011 
L 241.901786 -195.538011 
L 237.507383 -195.538011 
L 233.112981 -195.538011 
L 228.718579 -195.538011 
L 224.324177 -195.538011 
L 219.929774 -195.538011 
L 215.535372 -195.538011 
L 211.14097 -195.538011 
L 206.746568 -195.538011 
L 202.352165 -195.538011 
L 197.957763 -195.538011 
L 193.563361 -195.538011 
L 189.168958 -195.538011 
L 184.774556 -195.538011 
L 180.380154 -195.538011 
L 175.985752 -195.538011 
L 171.591349 -195.538011 
L 167.196947 -195.538011 
L 162.802545 -195.538011 
L 158.408143 -195.538011 
L 154.01374 -195.538011 
L 149.619338 -195.538011 
L 145.224936 -195.538011 
L 140.830533 -195.538011 
L 136.436131 -195.538011 
L 132.041729 -195.538011 
L 127.647327 -195.538011 
L 123.252924 -195.538011 
L 118.858522 -195.538011 
L 114.46412 -195.538011 
L 110.069718 -195.538011 
L 105.675315 -195.538011 
L 101.280913 -195.538011 
L 96.886511 -195.538011 
L 92.492108 -195.538011 
L 88.097706 -195.538011 
L 83.703304 -195.538011 
L 79.308902 -195.538011 
L 74.914499 -195.538011 
L 70.520097 -195.538011 
z
" id="mf0b11f46f3" style="stroke:#36a2eb;stroke-opacity:0.5;"/>
    </defs>
    <g clip-path="url(#p4f92105d29)">
     <use style="fill:#36a2eb;fill-opacity:0.5;stroke:#36a2eb;stroke-opacity:0.5;" x="0" xlink:href="#mf0b11f46f3" y="581.789375"/>
    </g>
   </g>
   <g id="PolyCollection_3">
    <defs>
     <path d="M 114.091758 -195.538011 
L 114.091758 -195.636662 
L 118.145101 -195.673861 
L 122.198444 -195.72387 
L 126.251787 -195.790633 
L 130.30513 -195.879144 
L 134.358473 -195.995668 
L 138.411816 -196.147997 
L 142.465159 -196.345738 
L 146.518503 -196.600619 
L 150.571846 -196.92683 
L 154.625189 -197.341371 
L 158.678532 -197.864405 
L 162.731875 -198.519603 
L 166.785218 -199.334457 
L 170.838561 -200.340544 
L 174.891904 -201.573709 
L 178.945248 -203.074148 
L 182.998591 -204.886343 
L 187.051934 -207.058835 
L 191.105277 -209.643789 
L 195.15862 -212.696325 
L 199.211963 -216.273596 
L 203.265306 -220.433578 
L 207.31865 -225.233594 
L 211.371993 -230.728537 
L 215.425336 -236.968852 
L 219.478679 -243.998279 
L 223.532022 -251.851438 
L 227.585365 -260.551307 
L 231.638708 -270.106698 
L 235.692051 -280.509824 
L 239.745395 -291.734087 
L 243.798738 -303.732193 
L 247.852081 -316.434736 
L 251.905424 -329.749362 
L 255.958767 -343.560615 
L 260.01211 -357.730565 
L 264.065453 -372.100266 
L 268.118796 -386.492073 
L 272.17214 -400.712809 
L 276.225483 -414.557726 
L 280.278826 -427.815159 
L 284.332169 -440.271747 
L 288.385512 -451.718044 
L 292.438855 -461.954312 
L 296.492198 -470.796291 
L 300.545541 -478.080697 
L 304.598885 -483.670232 
L 308.652228 -487.457887 
L 312.705571 -489.370346 
L 316.758914 -489.370346 
L 320.812257 -487.457887 
L 324.8656 -483.670232 
L 328.918943 -478.080697 
L 332.972286 -470.796291 
L 337.02563 -461.954312 
L 341.078973 -451.718044 
L 345.132316 -440.271747 
L 349.185659 -427.815159 
L 353.239002 -414.557726 
L 357.292345 -400.712809 
L 361.345688 -386.492073 
L 365.399032 -372.100266 
L 369.452375 -357.730565 
L 373.505718 -343.560615 
L 377.559061 -329.749362 
L 381.612404 -316.434736 
L 385.665747 -303.732193 
L 389.71909 -291.734087 
L 393.772433 -280.509824 
L 397.825777 -270.106698 
L 401.87912 -260.551307 
L 405.932463 -251.851438 
L 409.985806 -243.998279 
L 414.039149 -236.968852 
L 418.092492 -230.728537 
L 422.145835 -225.233594 
L 426.199178 -220.433578 
L 430.252522 -216.273596 
L 434.305865 -212.696325 
L 438.359208 -209.643789 
L 442.412551 -207.058835 
L 446.465894 -204.886343 
L 450.519237 -203.074148 
L 454.57258 -201.573709 
L 458.625923 -200.340544 
L 462.679267 -199.334457 
L 466.73261 -198.519603 
L 470.785953 -197.864405 
L 474.839296 -197.341371 
L 478.892639 -196.92683 
L 482.945982 -196.600619 
L 486.999325 -196.345738 
L 491.052669 -196.147997 
L 495.106012 -195.995668 
L 499.159355 -195.879144 
L 503.212698 -195.790633 
L 507.266041 -195.72387 
L 511.319384 -195.673861 
L 515.372727 -195.636662 
L 515.372727 -195.538011 
L 515.372727 -195.538011 
L 511.319384 -195.538011 
L 507.266041 -195.538011 
L 503.212698 -195.538011 
L 499.159355 -195.538011 
L 495.106012 -195.538011 
L 491.052669 -195.538011 
L 486.999325 -195.538011 
L 482.945982 -195.538011 
L 478.892639 -195.538011 
L 474.839296 -195.538011 
L 470.785953 -195.538011 
L 466.73261 -195.538011 
L 462.679267 -195.538011 
L 458.625923 -195.538011 
L 454.57258 -195.538011 
L 450.519237 -195.538011 
L 446.465894 -195.538011 
L 442.412551 -195.538011 
L 438.359208 -195.538011 
L 434.305865 -195.538011 
L 430.252522 -195.538011 
L 426.199178 -195.538011 
L 422.145835 -195.538011 
L 418.092492 -195.538011 
L 414.039149 -195.538011 
L 409.985806 -195.538011 
L 405.932463 -195.538011 
L 401.87912 -195.538011 
L 397.825777 -195.538011 
L 393.772433 -195.538011 
L 389.71909 -195.538011 
L 385.665747 -195.538011 
L 381.612404 -195.538011 
L 377.559061 -195.538011 
L 373.505718 -195.538011 
L 369.452375 -195.538011 
L 365.399032 -195.538011 
L 361.345688 -195.538011 
L 357.292345 -195.538011 
L 353.239002 -195.538011 
L 349.185659 -195.538011 
L 345.132316 -195.538011 
L 341.078973 -195.538011 
L 337.02563 -195.538011 
L 332.972286 -195.538011 
L 328.918943 -195.538011 
L 324.8656 -195.538011 
L 320.812257 -195.538011 
L 316.758914 -195.538011 
L 312.705571 -195.538011 
L 308.652228 -195.538011 
L 304.598885 -195.538011 
L 300.545541 -195.538011 
L 296.492198 -195.538011 
L 292.438855 -195.538011 
L 288.385512 -195.538011 
L 284.332169 -195.538011 
L 280.278826 -195.538011 
L 276.225483 -195.538011 
L 272.17214 -195.538011 
L 268.118796 -195.538011 
L 264.065453 -195.538011 
L 260.01211 -195.538011 
L 255.958767 -195.538011 
L 251.905424 -195.538011 
L 247.852081 -195.538011 
L 243.798738 -195.538011 
L 239.745395 -195.538011 
L 235.692051 -195.538011 
L 231.638708 -195.538011 
L 227.585365 -195.538011 
L 223.532022 -195.538011 
L 219.478679 -195.538011 
L 215.425336 -195.538011 
L 211.371993 -195.538011 
L 207.31865 -195.538011 
L 203.265306 -195.538011 
L 199.211963 -195.538011 
L 195.15862 -195.538011 
L 191.105277 -195.538011 
L 187.051934 -195.538011 
L 182.998591 -195.538011 
L 178.945248 -195.538011 
L 174.891904 -195.538011 
L 170.838561 -195.538011 
L 166.785218 -195.538011 
L 162.731875 -195.538011 
L 158.678532 -195.538011 
L 154.625189 -195.538011 
L 150.571846 -195.538011 
L 146.518503 -195.538011 
L 142.465159 -195.538011 
L 138.411816 -195.538011 
L 134.358473 -195.538011 
L 130.30513 -195.538011 
L 126.251787 -195.538011 
L 122.198444 -195.538011 
L 118.145101 -195.538011 
L 114.091758 -195.538011 
z
" id="m4dffbd619d" style="stroke:#4bc0c0;stroke-opacity:0.5;"/>
    </defs>
    <g clip-path="url(#p4f92105d29)">
     <use style="fill:#4bc0c0;fill-opacity:0.5;stroke:#4bc0c0;stroke-opacity:0.5;" x="0" xlink:href="#m4dffbd619d" y="581.789375"/>
    </g>
   </g>
   <g id="line2d_1">
    <path clip-path="url(#p4f92105d29)" d="M 58.827273 386.139371 
L 62.397718 386.097141 
L 65.968164 386.040368 
L 69.538609 385.964575 
L 73.109055 385.864094 
L 76.679501 385.73181 
L 80.249946 385.558878 
L 83.820392 385.334393 
L 87.390837 385.04504 
L 90.961283 384.674709 
L 94.531729 384.204102 
L 98.102174 383.610328 
L 101.67262 382.866516 
L 105.243065 381.941454 
L 108.813511 380.799296 
L 112.383957 379.399346 
L 115.954402 377.695976 
L 119.524848 375.638684 
L 123.095293 373.172366 
L 126.665739 370.2378 
L 130.236185 366.772413 
L 133.80663 362.711322 
L 137.377076 357.988708 
L 140.947521 352.539497 
L 144.517967 346.301371 
L 148.088412 339.217063 
L 151.658858 331.236916 
L 155.229304 322.321628 
L 158.799749 312.445114 
L 162.370195 301.597371 
L 165.94064 289.787238 
L 169.511086 277.04491 
L 173.081532 263.424078 
L 176.651977 249.003534 
L 180.222423 233.888124 
L 183.792868 218.208919 
L 187.363314 202.122504 
L 190.93376 185.809323 
L 194.504205 169.471045 
L 198.074651 153.326975 
L 201.645096 137.609553 
L 205.215542 122.559072 
L 208.785988 108.417748 
L 212.356433 95.423357 
L 215.926879 83.802649 
L 219.497324 73.764805 
L 223.06777 65.495194 
L 226.638215 59.149682 
L 230.208661 54.849752 
L 233.779107 52.678636 
L 237.349552 52.678636 
L 240.919998 54.849752 
L 244.490443 59.149682 
L 248.060889 65.495194 
L 251.631335 73.764805 
L 255.20178 83.802649 
L 258.772226 95.423357 
L 262.342671 108.417748 
L 265.913117 122.559072 
L 269.483563 137.609553 
L 273.054008 153.326975 
L 276.624454 169.471045 
L 280.194899 185.809323 
L 283.765345 202.122504 
L 287.335791 218.208919 
L 290.906236 233.888124 
L 294.476682 249.003534 
L 298.047127 263.424078 
L 301.617573 277.04491 
L 305.188018 289.787238 
L 308.758464 301.597371 
L 312.32891 312.445114 
L 315.899355 322.321628 
L 319.469801 331.236916 
L 323.040246 339.217063 
L 326.610692 346.301371 
L 330.181138 352.539497 
L 333.751583 357.988708 
L 337.322029 362.711322 
L 340.892474 366.772413 
L 344.46292 370.2378 
L 348.033366 373.172366 
L 351.603811 375.638684 
L 355.174257 377.695976 
L 358.744702 379.399346 
L 362.315148 380.799296 
L 365.885594 381.941454 
L 369.456039 382.866516 
L 373.026485 383.610328 
L 376.59693 384.204102 
L 380.167376 384.674709 
L 383.737821 385.04504 
L 387.308267 385.334393 
L 390.878713 385.558878 
L 394.449158 385.73181 
L 398.019604 385.864094 
L 401.590049 385.964575 
L 405.160495 386.040368 
L 408.730941 386.097141 
L 412.301386 386.139371 
" style="fill:none;stroke:#ff6384;stroke-linecap:square;"/>
   </g>
   <g id="line2d_2">
    <path clip-path="url(#p4f92105d29)" d="M 70.520097 386.16037 
L 74.914499 386.126058 
L 79.308902 386.07993 
L 83.703304 386.018348 
L 88.097706 385.936707 
L 92.492108 385.829227 
L 96.886511 385.68872 
L 101.280913 385.506327 
L 105.675315 385.271227 
L 110.069718 384.970334 
L 114.46412 384.587967 
L 118.858522 384.105526 
L 123.252924 383.50118 
L 127.647327 382.749568 
L 132.041729 381.821566 
L 136.436131 380.684109 
L 140.830533 379.300123 
L 145.224936 377.628577 
L 149.619338 375.624696 
L 154.01374 373.240366 
L 158.408143 370.424744 
L 162.802545 367.125113 
L 167.196947 363.287996 
L 171.591349 358.86052 
L 175.985752 353.792051 
L 180.380154 348.036061 
L 184.774556 341.552203 
L 189.168958 334.308545 
L 193.563361 326.283891 
L 197.957763 317.470115 
L 202.352165 307.874398 
L 206.746568 297.521275 
L 211.14097 286.454369 
L 215.535372 274.737697 
L 219.929774 262.456448 
L 224.324177 249.717117 
L 228.718579 236.646927 
L 233.112981 223.392491 
L 237.507383 210.117663 
L 241.901786 197.000629 
L 246.296188 184.230247 
L 250.69059 172.001752 
L 255.084992 160.511947 
L 259.479395 149.954022 
L 263.873797 140.512213 
L 268.268199 132.35648 
L 272.662602 125.637432 
L 277.057004 120.481713 
L 281.451406 116.988026 
L 285.845808 115.223997 
L 290.240211 115.223997 
L 294.634613 116.988026 
L 299.029015 120.481713 
L 303.423417 125.637432 
L 307.81782 132.35648 
L 312.212222 140.512213 
L 316.606624 149.954022 
L 321.001027 160.511947 
L 325.395429 172.001752 
L 329.789831 184.230247 
L 334.184233 197.000629 
L 338.578636 210.117663 
L 342.973038 223.392491 
L 347.36744 236.646927 
L 351.761842 249.717117 
L 356.156245 262.456448 
L 360.550647 274.737697 
L 364.945049 286.454369 
L 369.339452 297.521275 
L 373.733854 307.874398 
L 378.128256 317.470115 
L 382.522658 326.283891 
L 386.917061 334.308545 
L 391.311463 341.552203 
L 395.705865 348.036061 
L 400.100267 353.792051 
L 404.49467 358.86052 
L 408.889072 363.287996 
L 413.283474 367.125113 
L 417.677877 370.424744 
L 422.072279 373.240366 
L 426.466681 375.624696 
L 430.861083 377.628577 
L 435.255486 379.300123 
L 439.649888 380.684109 
L 444.04429 381.821566 
L 448.438692 382.749568 
L 452.833095 383.50118 
L 457.227497 384.105526 
L 461.621899 384.587967 
L 466.016301 384.970334 
L 470.410704 385.271227 
L 474.805106 385.506327 
L 479.199508 385.68872 
L 483.593911 385.829227 
L 487.988313 385.936707 
L 492.382715 386.018348 
L 496.777117 386.07993 
L 501.17152 386.126058 
L 505.565922 386.16037 
" style="fill:none;stroke:#36a2eb;stroke-linecap:square;"/>
   </g>
   <g id="line2d_3">
    <path clip-path="url(#p4f92105d29)" d="M 114.091758 386.152713 
L 118.145101 386.115514 
L 122.198444 386.065505 
L 126.251787 385.998742 
L 130.30513 385.910231 
L 134.358473 385.793707 
L 138.411816 385.641378 
L 142.465159 385.443637 
L 146.518503 385.188756 
L 150.571846 384.862545 
L 154.625189 384.448004 
L 158.678532 383.92497 
L 162.731875 383.269772 
L 166.785218 382.454918 
L 170.838561 381.448831 
L 174.891904 380.215666 
L 178.945248 378.715227 
L 182.998591 376.903032 
L 187.051934 374.73054 
L 191.105277 372.145586 
L 195.15862 369.09305 
L 199.211963 365.515779 
L 203.265306 361.355797 
L 207.31865 356.555781 
L 211.371993 351.060838 
L 215.425336 344.820523 
L 219.478679 337.791096 
L 223.532022 329.937937 
L 227.585365 321.238068 
L 231.638708 311.682677 
L 235.692051 301.279551 
L 239.745395 290.055288 
L 243.798738 278.057182 
L 247.852081 265.354639 
L 251.905424 252.040013 
L 255.958767 238.22876 
L 260.01211 224.05881 
L 264.065453 209.689109 
L 268.118796 195.297302 
L 272.17214 181.076566 
L 276.225483 167.231649 
L 280.278826 153.974216 
L 284.332169 141.517628 
L 288.385512 130.071331 
L 292.438855 119.835063 
L 296.492198 110.993084 
L 300.545541 103.708678 
L 304.598885 98.119143 
L 308.652228 94.331488 
L 312.705571 92.419029 
L 316.758914 92.419029 
L 320.812257 94.331488 
L 324.8656 98.119143 
L 328.918943 103.708678 
L 332.972286 110.993084 
L 337.02563 119.835063 
L 341.078973 130.071331 
L 345.132316 141.517628 
L 349.185659 153.974216 
L 353.239002 167.231649 
L 357.292345 181.076566 
L 361.345688 195.297302 
L 365.399032 209.689109 
L 369.452375 224.05881 
L 373.505718 238.22876 
L 377.559061 252.040013 
L 381.612404 265.354639 
L 385.665747 278.057182 
L 389.71909 290.055288 
L 393.772433 301.279551 
L 397.825777 311.682677 
L 401.87912 321.238068 
L 405.932463 329.937937 
L 409.985806 337.791096 
L 414.039149 344.820523 
L 418.092492 351.060838 
L 422.145835 356.555781 
L 426.199178 361.355797 
L 430.252522 365.515779 
L 434.305865 369.09305 
L 438.359208 372.145586 
L 442.412551 374.73054 
L 446.465894 376.903032 
L 450.519237 378.715227 
L 454.57258 380.215666 
L 458.625923 381.448831 
L 462.679267 382.454918 
L 466.73261 383.269772 
L 470.785953 383.92497 
L 474.839296 384.448004 
L 478.892639 384.862545 
L 482.945982 385.188756 
L 486.999325 385.443637 
L 491.052669 385.641378 
L 495.106012 385.793707 
L 499.159355 385.910231 
L 503.212698 385.998742 
L 507.266041 386.065505 
L 511.319384 386.115514 
L 515.372727 386.152713 
" style="fill:none;stroke:#4bc0c0;stroke-linecap:square;"/>
   </g>
   <g id="patch_3">
    <path d="M 36 402.93 
L 538.2 402.93 
" style="fill:none;stroke:#000000;stroke-linecap:square;stroke-linejoin:miter;stroke-width:0.8;"/>
   </g>
   <g id="legend_1">
    <g id="patch_4">
     <path d="M 415.601563 109.626875 
L 528.4 109.626875 
Q 531.2 109.626875 531.2 106.826875 
L 531.2 45.8 
Q 531.2 43 528.4 43 
L 415.601563 43 
Q 412.801563 43 412.801563 45.8 
L 412.801563 106.826875 
Q 412.801563 109.626875 415.601563 109.626875 
z
" style="fill:#ffffff;opacity:0.8;stroke:#cccccc;stroke-linejoin:miter;"/>
    </g>
    <g id="patch_5">
     <path d="M 418.401563 59.237813 
L 446.401563 59.237813 
L 446.401563 49.437813 
L 418.401563 49.437813 
z
" style="fill:#ff6384;opacity:0.5;stroke:#ff6384;stroke-linejoin:miter;"/>
    </g>
    <g id="text_1">
     <!-- base -->
     <defs>
      <path d="M 48.6875 27.296875 
Q 48.6875 37.203125 44.609375 42.84375 
Q 40.53125 48.484375 33.40625 48.484375 
Q 26.265625 48.484375 22.1875 42.84375 
Q 18.109375 37.203125 18.109375 27.296875 
Q 18.109375 17.390625 22.1875 11.75 
Q 26.265625 6.109375 33.40625 6.109375 
Q 40.53125 6.109375 44.609375 11.75 
Q 48.6875 17.390625 48.6875 27.296875 
z
M 18.109375 46.390625 
Q 20.953125 51.265625 25.265625 53.625 
Q 29.59375 56 35.59375 56 
Q 45.5625 56 51.78125 48.09375 
Q 58.015625 40.1875 58.015625 27.296875 
Q 58.015625 14.40625 51.78125 6.484375 
Q 45.5625 -1.421875 35.59375 -1.421875 
Q 29.59375 -1.421875 25.265625 0.953125 
Q 20.953125 3.328125 18.109375 8.203125 
L 18.109375 0 
L 9.078125 0 
L 9.078125 75.984375 
L 18.109375 75.984375 
z
" id="DejaVuSans-98"/>
      <path d="M 34.28125 27.484375 
Q 23.390625 27.484375 19.1875 25 
Q 14.984375 22.515625 14.984375 16.5 
Q 14.984375 11.71875 18.140625 8.90625 
Q 21.296875 6.109375 26.703125 6.109375 
Q 34.1875 6.109375 38.703125 11.40625 
Q 43.21875 16.703125 43.21875 25.484375 
L 43.21875 27.484375 
z
M 52.203125 31.203125 
L 52.203125 0 
L 43.21875 0 
L 43.21875 8.296875 
Q 40.140625 3.328125 35.546875 0.953125 
Q 30.953125 -1.421875 24.3125 -1.421875 
Q 15.921875 -1.421875 10.953125 3.296875 
Q 6 8.015625 6 15.921875 
Q 6 25.140625 12.171875 29.828125 
Q 18.359375 34.515625 30.609375 34.515625 
L 43.21875 34.515625 
L 43.21875 35.40625 
Q 43.21875 41.609375 39.140625 45 
Q 35.0625 48.390625 27.6875 48.390625 
Q 23 48.390625 18.546875 47.265625 
Q 14.109375 46.140625 10.015625 43.890625 
L 10.015625 52.203125 
Q 14.9375 54.109375 19.578125 55.046875 
Q 24.21875 56 28.609375 56 
Q 40.484375 56 46.34375 49.84375 
Q 52.203125 43.703125 52.203125 31.203125 
z
" id="DejaVuSans-97"/>
      <path d="M 44.28125 53.078125 
L 44.28125 44.578125 
Q 40.484375 46.53125 36.375 47.5 
Q 32.28125 48.484375 27.875 48.484375 
Q 21.1875 48.484375 17.84375 46.4375 
Q 14.5 44.390625 14.5 40.28125 
Q 14.5 37.15625 16.890625 35.375 
Q 19.28125 33.59375 26.515625 31.984375 
L 29.59375 31.296875 
Q 39.15625 29.25 43.1875 25.515625 
Q 47.21875 21.78125 47.21875 15.09375 
Q 47.21875 7.46875 41.1875 3.015625 
Q 35.15625 -1.421875 24.609375 -1.421875 
Q 20.21875 -1.421875 15.453125 -0.5625 
Q 10.6875 0.296875 5.421875 2 
L 5.421875 11.28125 
Q 10.40625 8.6875 15.234375 7.390625 
Q 20.0625 6.109375 24.8125 6.109375 
Q 31.15625 6.109375 34.5625 8.28125 
Q 37.984375 10.453125 37.984375 14.40625 
Q 37.984375 18.0625 35.515625 20.015625 
Q 33.0625 21.96875 24.703125 23.78125 
L 21.578125 24.515625 
Q 13.234375 26.265625 9.515625 29.90625 
Q 5.8125 33.546875 5.8125 39.890625 
Q 5.8125 47.609375 11.28125 51.796875 
Q 16.75 56 26.8125 56 
Q 31.78125 56 36.171875 55.265625 
Q 40.578125 54.546875 44.28125 53.078125 
z
" id="DejaVuSans-115"/>
      <path d="M 56.203125 29.59375 
L 56.203125 25.203125 
L 14.890625 25.203125 
Q 15.484375 15.921875 20.484375 11.0625 
Q 25.484375 6.203125 34.421875 6.203125 
Q 39.59375 6.203125 44.453125 7.46875 
Q 49.3125 8.734375 54.109375 11.28125 
L 54.109375 2.78125 
Q 49.265625 0.734375 44.1875 -0.34375 
Q 39.109375 -1.421875 33.890625 -1.421875 
Q 20.796875 -1.421875 13.15625 6.1875 
Q 5.515625 13.8125 5.515625 26.8125 
Q 5.515625 40.234375 12.765625 48.109375 
Q 20.015625 56 32.328125 56 
Q 43.359375 56 49.78125 48.890625 
Q 56.203125 41.796875 56.203125 29.59375 
z
M 47.21875 32.234375 
Q 47.125 39.59375 43.09375 43.984375 
Q 39.0625 48.390625 32.421875 48.390625 
Q 24.90625 48.390625 20.390625 44.140625 
Q 15.875 39.890625 15.1875 32.171875 
z
" id="DejaVuSans-101"/>
     </defs>
     <g transform="translate(457.601563 59.237813)scale(0.14 -0.14)">
      <use xlink:href="#DejaVuSans-98"/>
      <use x="63.476562" xlink:href="#DejaVuSans-97"/>
      <use x="124.755859" xlink:href="#DejaVuSans-115"/>
      <use x="176.855469" xlink:href="#DejaVuSans-101"/>
     </g>
    </g>
    <g id="patch_6">
     <path d="M 418.401563 79.787188 
L 446.401563 79.787188 
L 446.401563 69.987188 
L 418.401563 69.987188 
z
" style="fill:#36a2eb;opacity:0.5;stroke:#36a2eb;stroke-linejoin:miter;"/>
    </g>
    <g id="text_2">
     <!-- fifth_mid -->
     <defs>
      <path d="M 37.109375 75.984375 
L 37.109375 68.5 
L 28.515625 68.5 
Q 23.6875 68.5 21.796875 66.546875 
Q 19.921875 64.59375 19.921875 59.515625 
L 19.921875 54.6875 
L 34.71875 54.6875 
L 34.71875 47.703125 
L 19.921875 47.703125 
L 19.921875 0 
L 10.890625 0 
L 10.890625 47.703125 
L 2.296875 47.703125 
L 2.296875 54.6875 
L 10.890625 54.6875 
L 10.890625 58.5 
Q 10.890625 67.625 15.140625 71.796875 
Q 19.390625 75.984375 28.609375 75.984375 
z
" id="DejaVuSans-102"/>
      <path d="M 9.421875 54.6875 
L 18.40625 54.6875 
L 18.40625 0 
L 9.421875 0 
z
M 9.421875 75.984375 
L 18.40625 75.984375 
L 18.40625 64.59375 
L 9.421875 64.59375 
z
" id="DejaVuSans-105"/>
      <path d="M 18.3125 70.21875 
L 18.3125 54.6875 
L 36.8125 54.6875 
L 36.8125 47.703125 
L 18.3125 47.703125 
L 18.3125 18.015625 
Q 18.3125 11.328125 20.140625 9.421875 
Q 21.96875 7.515625 27.59375 7.515625 
L 36.8125 7.515625 
L 36.8125 0 
L 27.59375 0 
Q 17.1875 0 13.234375 3.875 
Q 9.28125 7.765625 9.28125 18.015625 
L 9.28125 47.703125 
L 2.6875 47.703125 
L 2.6875 54.6875 
L 9.28125 54.6875 
L 9.28125 70.21875 
z
" id="DejaVuSans-116"/>
      <path d="M 54.890625 33.015625 
L 54.890625 0 
L 45.90625 0 
L 45.90625 32.71875 
Q 45.90625 40.484375 42.875 44.328125 
Q 39.84375 48.1875 33.796875 48.1875 
Q 26.515625 48.1875 22.3125 43.546875 
Q 18.109375 38.921875 18.109375 30.90625 
L 18.109375 0 
L 9.078125 0 
L 9.078125 75.984375 
L 18.109375 75.984375 
L 18.109375 46.1875 
Q 21.34375 51.125 25.703125 53.5625 
Q 30.078125 56 35.796875 56 
Q 45.21875 56 50.046875 50.171875 
Q 54.890625 44.34375 54.890625 33.015625 
z
" id="DejaVuSans-104"/>
      <path d="M 50.984375 -16.609375 
L 50.984375 -23.578125 
L -0.984375 -23.578125 
L -0.984375 -16.609375 
z
" id="DejaVuSans-95"/>
      <path d="M 52 44.1875 
Q 55.375 50.25 60.0625 53.125 
Q 64.75 56 71.09375 56 
Q 79.640625 56 84.28125 50.015625 
Q 88.921875 44.046875 88.921875 33.015625 
L 88.921875 0 
L 79.890625 0 
L 79.890625 32.71875 
Q 79.890625 40.578125 77.09375 44.375 
Q 74.3125 48.1875 68.609375 48.1875 
Q 61.625 48.1875 57.5625 43.546875 
Q 53.515625 38.921875 53.515625 30.90625 
L 53.515625 0 
L 44.484375 0 
L 44.484375 32.71875 
Q 44.484375 40.625 41.703125 44.40625 
Q 38.921875 48.1875 33.109375 48.1875 
Q 26.21875 48.1875 22.15625 43.53125 
Q 18.109375 38.875 18.109375 30.90625 
L 18.109375 0 
L 9.078125 0 
L 9.078125 54.6875 
L 18.109375 54.6875 
L 18.109375 46.1875 
Q 21.1875 51.21875 25.484375 53.609375 
Q 29.78125 56 35.6875 56 
Q 41.65625 56 45.828125 52.96875 
Q 50 49.953125 52 44.1875 
z
" id="DejaVuSans-109"/>
      <path d="M 45.40625 46.390625 
L 45.40625 75.984375 
L 54.390625 75.984375 
L 54.390625 0 
L 45.40625 0 
L 45.40625 8.203125 
Q 42.578125 3.328125 38.25 0.953125 
Q 33.9375 -1.421875 27.875 -1.421875 
Q 17.96875 -1.421875 11.734375 6.484375 
Q 5.515625 14.40625 5.515625 27.296875 
Q 5.515625 40.1875 11.734375 48.09375 
Q 17.96875 56 27.875 56 
Q 33.9375 56 38.25 53.625 
Q 42.578125 51.265625 45.40625 46.390625 
z
M 14.796875 27.296875 
Q 14.796875 17.390625 18.875 11.75 
Q 22.953125 6.109375 30.078125 6.109375 
Q 37.203125 6.109375 41.296875 11.75 
Q 45.40625 17.390625 45.40625 27.296875 
Q 45.40625 37.203125 41.296875 42.84375 
Q 37.203125 48.484375 30.078125 48.484375 
Q 22.953125 48.484375 18.875 42.84375 
Q 14.796875 37.203125 14.796875 27.296875 
z
" id="DejaVuSans-100"/>
     </defs>
     <g transform="translate(457.601563 79.787188)scale(0.14 -0.14)">
      <use xlink:href="#DejaVuSans-102"/>
      <use x="35.205078" xlink:href="#DejaVuSans-105"/>
      <use x="62.988281" xlink:href="#DejaVuSans-102"/>
      <use x="98.177734" xlink:href="#DejaVuSans-116"/>
      <use x="137.386719" xlink:href="#DejaVuSans-104"/>
      <use x="200.765625" xlink:href="#DejaVuSans-95"/>
      <use x="250.765625" xlink:href="#DejaVuSans-109"/>
      <use x="348.177734" xlink:href="#DejaVuSans-105"/>
      <use x="375.960938" xlink:href="#DejaVuSans-100"/>
     </g>
    </g>
    <g id="patch_7">
     <path d="M 418.401563 100.725937 
L 446.401563 100.725937 
L 446.401563 90.925937 
L 418.401563 90.925937 
z
" style="fill:#4bc0c0;opacity:0.5;stroke:#4bc0c0;stroke-linejoin:miter;"/>
    </g>
    <g id="text_3">
     <!-- fifth_right -->
     <defs>
      <path d="M 41.109375 46.296875 
Q 39.59375 47.171875 37.8125 47.578125 
Q 36.03125 48 33.890625 48 
Q 26.265625 48 22.1875 43.046875 
Q 18.109375 38.09375 18.109375 28.8125 
L 18.109375 0 
L 9.078125 0 
L 9.078125 54.6875 
L 18.109375 54.6875 
L 18.109375 46.1875 
Q 20.953125 51.171875 25.484375 53.578125 
Q 30.03125 56 36.53125 56 
Q 37.453125 56 38.578125 55.875 
Q 39.703125 55.765625 41.0625 55.515625 
z
" id="DejaVuSans-114"/>
      <path d="M 45.40625 27.984375 
Q 45.40625 37.75 41.375 43.109375 
Q 37.359375 48.484375 30.078125 48.484375 
Q 22.859375 48.484375 18.828125 43.109375 
Q 14.796875 37.75 14.796875 27.984375 
Q 14.796875 18.265625 18.828125 12.890625 
Q 22.859375 7.515625 30.078125 7.515625 
Q 37.359375 7.515625 41.375 12.890625 
Q 45.40625 18.265625 45.40625 27.984375 
z
M 54.390625 6.78125 
Q 54.390625 -7.171875 48.1875 -13.984375 
Q 42 -20.796875 29.203125 -20.796875 
Q 24.46875 -20.796875 20.265625 -20.09375 
Q 16.0625 -19.390625 12.109375 -17.921875 
L 12.109375 -9.1875 
Q 16.0625 -11.328125 19.921875 -12.34375 
Q 23.78125 -13.375 27.78125 -13.375 
Q 36.625 -13.375 41.015625 -8.765625 
Q 45.40625 -4.15625 45.40625 5.171875 
L 45.40625 9.625 
Q 42.625 4.78125 38.28125 2.390625 
Q 33.9375 0 27.875 0 
Q 17.828125 0 11.671875 7.65625 
Q 5.515625 15.328125 5.515625 27.984375 
Q 5.515625 40.671875 11.671875 48.328125 
Q 17.828125 56 27.875 56 
Q 33.9375 56 38.28125 53.609375 
Q 42.625 51.21875 45.40625 46.390625 
L 45.40625 54.6875 
L 54.390625 54.6875 
z
" id="DejaVuSans-103"/>
     </defs>
     <g transform="translate(457.601563 100.725937)scale(0.14 -0.14)">
      <use xlink:href="#DejaVuSans-102"/>
      <use x="35.205078" xlink:href="#DejaVuSans-105"/>
      <use x="62.988281" xlink:href="#DejaVuSans-102"/>
      <use x="98.177734" xlink:href="#DejaVuSans-116"/>
      <use x="137.386719" xlink:href="#DejaVuSans-104"/>
      <use x="200.765625" xlink:href="#DejaVuSans-95"/>
      <use x="250.765625" xlink:href="#DejaVuSans-114"/>
      <use x="291.878906" xlink:href="#DejaVuSans-105"/>
      <use x="319.662109" xlink:href="#DejaVuSans-103"/>
      <use x="383.138672" xlink:href="#DejaVuSans-104"/>
      <use x="446.517578" xlink:href="#DejaVuSans-116"/>
     </g>
    </g>
   </g>
  </g>
  <g id="axes_2">
   <g id="patch_8">
    <path d="M 36 525.24 
L 538.2 525.24 
L 538.2 402.93 
L 36 402.93 
z
" style="fill:none;"/>
   </g>
   <g id="patch_9">
    <path clip-path="url(#p44d59c42fa)" d="M 148.963172 519.680455 
L 322.165487 519.680455 
L 322.165487 497.442273 
L 148.963172 497.442273 
z
" style="fill:#ff6384;opacity:0.5;"/>
   </g>
   <g id="patch_10">
    <path clip-path="url(#p44d59c42fa)" d="M 181.456782 475.204091 
L 394.629237 475.204091 
L 394.629237 452.965909 
L 181.456782 452.965909 
z
" style="fill:#36a2eb;opacity:0.5;"/>
   </g>
   <g id="patch_11">
    <path clip-path="url(#p44d59c42fa)" d="M 216.418405 430.727727 
L 413.04608 430.727727 
L 413.04608 408.489545 
L 216.418405 408.489545 
z
" style="fill:#4bc0c0;opacity:0.5;"/>
   </g>
   <g id="matplotlib.axis_1">
    <g id="xtick_1">
     <g id="line2d_4">
      <defs>
       <path d="M 0 0 
L 0 3.5 
" id="m43197cff96" style="stroke:#000000;stroke-width:0.8;"/>
      </defs>
      <g>
       <use style="stroke:#000000;stroke-width:0.8;" x="57.102414" xlink:href="#m43197cff96" y="525.24"/>
      </g>
     </g>
     <g id="text_4">
      <!-- 8.0 -->
      <defs>
       <path d="M 31.78125 34.625 
Q 24.75 34.625 20.71875 30.859375 
Q 16.703125 27.09375 16.703125 20.515625 
Q 16.703125 13.921875 20.71875 10.15625 
Q 24.75 6.390625 31.78125 6.390625 
Q 38.8125 6.390625 42.859375 10.171875 
Q 46.921875 13.96875 46.921875 20.515625 
Q 46.921875 27.09375 42.890625 30.859375 
Q 38.875 34.625 31.78125 34.625 
z
M 21.921875 38.8125 
Q 15.578125 40.375 12.03125 44.71875 
Q 8.5 49.078125 8.5 55.328125 
Q 8.5 64.0625 14.71875 69.140625 
Q 20.953125 74.21875 31.78125 74.21875 
Q 42.671875 74.21875 48.875 69.140625 
Q 55.078125 64.0625 55.078125 55.328125 
Q 55.078125 49.078125 51.53125 44.71875 
Q 48 40.375 41.703125 38.8125 
Q 48.828125 37.15625 52.796875 32.3125 
Q 56.78125 27.484375 56.78125 20.515625 
Q 56.78125 9.90625 50.3125 4.234375 
Q 43.84375 -1.421875 31.78125 -1.421875 
Q 19.734375 -1.421875 13.25 4.234375 
Q 6.78125 9.90625 6.78125 20.515625 
Q 6.78125 27.484375 10.78125 32.3125 
Q 14.796875 37.15625 21.921875 38.8125 
z
M 18.3125 54.390625 
Q 18.3125 48.734375 21.84375 45.5625 
Q 25.390625 42.390625 31.78125 42.390625 
Q 38.140625 42.390625 41.71875 45.5625 
Q 45.3125 48.734375 45.3125 54.390625 
Q 45.3125 60.0625 41.71875 63.234375 
Q 38.140625 66.40625 31.78125 66.40625 
Q 25.390625 66.40625 21.84375 63.234375 
Q 18.3125 60.0625 18.3125 54.390625 
z
" id="DejaVuSans-56"/>
       <path d="M 10.6875 12.40625 
L 21 12.40625 
L 21 0 
L 10.6875 0 
z
" id="DejaVuSans-46"/>
       <path d="M 31.78125 66.40625 
Q 24.171875 66.40625 20.328125 58.90625 
Q 16.5 51.421875 16.5 36.375 
Q 16.5 21.390625 20.328125 13.890625 
Q 24.171875 6.390625 31.78125 6.390625 
Q 39.453125 6.390625 43.28125 13.890625 
Q 47.125 21.390625 47.125 36.375 
Q 47.125 51.421875 43.28125 58.90625 
Q 39.453125 66.40625 31.78125 66.40625 
z
M 31.78125 74.21875 
Q 44.046875 74.21875 50.515625 64.515625 
Q 56.984375 54.828125 56.984375 36.375 
Q 56.984375 17.96875 50.515625 8.265625 
Q 44.046875 -1.421875 31.78125 -1.421875 
Q 19.53125 -1.421875 13.0625 8.265625 
Q 6.59375 17.96875 6.59375 36.375 
Q 6.59375 54.828125 13.0625 64.515625 
Q 19.53125 74.21875 31.78125 74.21875 
z
" id="DejaVuSans-48"/>
      </defs>
      <g transform="translate(45.970226 542.877813)scale(0.14 -0.14)">
       <use xlink:href="#DejaVuSans-56"/>
       <use x="63.623047" xlink:href="#DejaVuSans-46"/>
       <use x="95.410156" xlink:href="#DejaVuSans-48"/>
      </g>
     </g>
    </g>
    <g id="xtick_2">
     <g id="line2d_5">
      <g>
       <use style="stroke:#000000;stroke-width:0.8;" x="123.26313" xlink:href="#m43197cff96" y="525.24"/>
      </g>
     </g>
     <g id="text_5">
      <!-- 8.5 -->
      <defs>
       <path d="M 10.796875 72.90625 
L 49.515625 72.90625 
L 49.515625 64.59375 
L 19.828125 64.59375 
L 19.828125 46.734375 
Q 21.96875 47.46875 24.109375 47.828125 
Q 26.265625 48.1875 28.421875 48.1875 
Q 40.625 48.1875 47.75 41.5 
Q 54.890625 34.8125 54.890625 23.390625 
Q 54.890625 11.625 47.5625 5.09375 
Q 40.234375 -1.421875 26.90625 -1.421875 
Q 22.3125 -1.421875 17.546875 -0.640625 
Q 12.796875 0.140625 7.71875 1.703125 
L 7.71875 11.625 
Q 12.109375 9.234375 16.796875 8.0625 
Q 21.484375 6.890625 26.703125 6.890625 
Q 35.15625 6.890625 40.078125 11.328125 
Q 45.015625 15.765625 45.015625 23.390625 
Q 45.015625 31 40.078125 35.4375 
Q 35.15625 39.890625 26.703125 39.890625 
Q 22.75 39.890625 18.8125 39.015625 
Q 14.890625 38.140625 10.796875 36.28125 
z
" id="DejaVuSans-53"/>
      </defs>
      <g transform="translate(112.130942 542.877813)scale(0.14 -0.14)">
       <use xlink:href="#DejaVuSans-56"/>
       <use x="63.623047" xlink:href="#DejaVuSans-46"/>
       <use x="95.410156" xlink:href="#DejaVuSans-53"/>
      </g>
     </g>
    </g>
    <g id="xtick_3">
     <g id="line2d_6">
      <g>
       <use style="stroke:#000000;stroke-width:0.8;" x="189.423846" xlink:href="#m43197cff96" y="525.24"/>
      </g>
     </g>
     <g id="text_6">
      <!-- 9.0 -->
      <defs>
       <path d="M 10.984375 1.515625 
L 10.984375 10.5 
Q 14.703125 8.734375 18.5 7.8125 
Q 22.3125 6.890625 25.984375 6.890625 
Q 35.75 6.890625 40.890625 13.453125 
Q 46.046875 20.015625 46.78125 33.40625 
Q 43.953125 29.203125 39.59375 26.953125 
Q 35.25 24.703125 29.984375 24.703125 
Q 19.046875 24.703125 12.671875 31.3125 
Q 6.296875 37.9375 6.296875 49.421875 
Q 6.296875 60.640625 12.9375 67.421875 
Q 19.578125 74.21875 30.609375 74.21875 
Q 43.265625 74.21875 49.921875 64.515625 
Q 56.59375 54.828125 56.59375 36.375 
Q 56.59375 19.140625 48.40625 8.859375 
Q 40.234375 -1.421875 26.421875 -1.421875 
Q 22.703125 -1.421875 18.890625 -0.6875 
Q 15.09375 0.046875 10.984375 1.515625 
z
M 30.609375 32.421875 
Q 37.25 32.421875 41.125 36.953125 
Q 45.015625 41.5 45.015625 49.421875 
Q 45.015625 57.28125 41.125 61.84375 
Q 37.25 66.40625 30.609375 66.40625 
Q 23.96875 66.40625 20.09375 61.84375 
Q 16.21875 57.28125 16.21875 49.421875 
Q 16.21875 41.5 20.09375 36.953125 
Q 23.96875 32.421875 30.609375 32.421875 
z
" id="DejaVuSans-57"/>
      </defs>
      <g transform="translate(178.291659 542.877813)scale(0.14 -0.14)">
       <use xlink:href="#DejaVuSans-57"/>
       <use x="63.623047" xlink:href="#DejaVuSans-46"/>
       <use x="95.410156" xlink:href="#DejaVuSans-48"/>
      </g>
     </g>
    </g>
    <g id="xtick_4">
     <g id="line2d_7">
      <g>
       <use style="stroke:#000000;stroke-width:0.8;" x="255.584562" xlink:href="#m43197cff96" y="525.24"/>
      </g>
     </g>
     <g id="text_7">
      <!-- 9.5 -->
      <g transform="translate(244.452375 542.877813)scale(0.14 -0.14)">
       <use xlink:href="#DejaVuSans-57"/>
       <use x="63.623047" xlink:href="#DejaVuSans-46"/>
       <use x="95.410156" xlink:href="#DejaVuSans-53"/>
      </g>
     </g>
    </g>
    <g id="xtick_5">
     <g id="line2d_8">
      <g>
       <use style="stroke:#000000;stroke-width:0.8;" x="321.745278" xlink:href="#m43197cff96" y="525.24"/>
      </g>
     </g>
     <g id="text_8">
      <!-- 10.0 -->
      <defs>
       <path d="M 12.40625 8.296875 
L 28.515625 8.296875 
L 28.515625 63.921875 
L 10.984375 60.40625 
L 10.984375 69.390625 
L 28.421875 72.90625 
L 38.28125 72.90625 
L 38.28125 8.296875 
L 54.390625 8.296875 
L 54.390625 0 
L 12.40625 0 
z
" id="DejaVuSans-49"/>
      </defs>
      <g transform="translate(306.159341 542.877813)scale(0.14 -0.14)">
       <use xlink:href="#DejaVuSans-49"/>
       <use x="63.623047" xlink:href="#DejaVuSans-48"/>
       <use x="127.246094" xlink:href="#DejaVuSans-46"/>
       <use x="159.033203" xlink:href="#DejaVuSans-48"/>
      </g>
     </g>
    </g>
    <g id="xtick_6">
     <g id="line2d_9">
      <g>
       <use style="stroke:#000000;stroke-width:0.8;" x="387.905994" xlink:href="#m43197cff96" y="525.24"/>
      </g>
     </g>
     <g id="text_9">
      <!-- 10.5 -->
      <g transform="translate(372.320057 542.877813)scale(0.14 -0.14)">
       <use xlink:href="#DejaVuSans-49"/>
       <use x="63.623047" xlink:href="#DejaVuSans-48"/>
       <use x="127.246094" xlink:href="#DejaVuSans-46"/>
       <use x="159.033203" xlink:href="#DejaVuSans-53"/>
      </g>
     </g>
    </g>
    <g id="xtick_7">
     <g id="line2d_10">
      <g>
       <use style="stroke:#000000;stroke-width:0.8;" x="454.066711" xlink:href="#m43197cff96" y="525.24"/>
      </g>
     </g>
     <g id="text_10">
      <!-- 11.0 -->
      <g transform="translate(438.480773 542.877813)scale(0.14 -0.14)">
       <use xlink:href="#DejaVuSans-49"/>
       <use x="63.623047" xlink:href="#DejaVuSans-49"/>
       <use x="127.246094" xlink:href="#DejaVuSans-46"/>
       <use x="159.033203" xlink:href="#DejaVuSans-48"/>
      </g>
     </g>
    </g>
    <g id="xtick_8">
     <g id="line2d_11">
      <g>
       <use style="stroke:#000000;stroke-width:0.8;" x="520.227427" xlink:href="#m43197cff96" y="525.24"/>
      </g>
     </g>
     <g id="text_11">
      <!-- 11.5 -->
      <g transform="translate(504.641489 542.877813)scale(0.14 -0.14)">
       <use xlink:href="#DejaVuSans-49"/>
       <use x="63.623047" xlink:href="#DejaVuSans-49"/>
       <use x="127.246094" xlink:href="#DejaVuSans-46"/>
       <use x="159.033203" xlink:href="#DejaVuSans-53"/>
      </g>
     </g>
    </g>
   </g>
   <g id="line2d_12">
    <path clip-path="url(#p44d59c42fa)" d="M 235.564329 525.24 
L 235.564329 402.93 
" style="fill:none;stroke:#ff6384;stroke-dasharray:5.55,2.4;stroke-dashoffset:0;stroke-opacity:0.8;stroke-width:1.5;"/>
   </g>
   <g id="line2d_13">
    <path clip-path="url(#p44d59c42fa)" d="M 288.04301 525.24 
L 288.04301 402.93 
" style="fill:none;stroke:#36a2eb;stroke-dasharray:5.55,2.4;stroke-dashoffset:0;stroke-opacity:0.8;stroke-width:1.5;"/>
   </g>
   <g id="line2d_14">
    <path clip-path="url(#p44d59c42fa)" d="M 314.732242 525.24 
L 314.732242 402.93 
" style="fill:none;stroke:#4bc0c0;stroke-dasharray:5.55,2.4;stroke-dashoffset:0;stroke-opacity:0.8;stroke-width:1.5;"/>
   </g>
   <g id="patch_12">
    <path d="M 36 525.24 
L 538.2 525.24 
" style="fill:none;stroke:#000000;stroke-linecap:square;stroke-linejoin:miter;stroke-width:0.8;"/>
   </g>
  </g>
 </g>
 <defs>
  <clipPath id="p4f92105d29">
   <rect height="366.93" width="502.2" x="36" y="36"/>
  </clipPath>
  <clipPath id="p44d59c42fa">
   <rect height="122.31" width="502.2" x="36" y="402.93"/>
  </clipPath>
 </defs>
</svg>
