<?xml version="1.0" encoding="utf-8" standalone="no"?>
<!DOCTYPE svg PUBLIC "-//W3C//DTD SVG 1.1//EN"
  "http://www.w3.org/Graphics/SVG/1.1/DTD/svg11.dtd">
<!-- Created with matplotlib (https://matplotlib.org/) -->
<svg height="581.789375pt" version="1.1" viewBox="0 0 574.2 581.789375" width="574.2pt" xmlns="http://www.w3.org/2000/svg" xmlns:xlink="http://www.w3.org/1999/xlink">
 <defs>
  <style type="text/css">
*{stroke-linecap:butt;stroke-linejoin:round;}
  </style>
 </defs>
 <g id="figure_1">
  <g id="patch_1">
   <path d="M 0 581.789375 
L 574.2 581.789375 
L 574.2 0 
L 0 0 
z
" style="fill:none;"/>
  </g>
  <g id="axes_1">
   <g id="patch_2">
    <path d="M 36 402.93 
L 538.2 402.93 
L 538.2 36 
L 36 36 
z
" style="fill:none;"/>
   </g>
   <g id="PolyCollection_1">
    <defs>
     <path d="M 81.668429 -195.538011 
L 81.668429 -195.648801 
L 85.964821 -195.690577 
L 90.261213 -195.74674 
L 94.557606 -195.821718 
L 98.853998 -195.92112 
L 103.15039 -196.051983 
L 107.446782 -196.223057 
L 111.743174 -196.44513 
L 116.039567 -196.731374 
L 120.335959 -197.097726 
L 124.632351 -197.563277 
L 128.928743 -198.150671 
L 133.225135 -198.886492 
L 137.521528 -199.801615 
L 141.81792 -200.931501 
L 146.114312 -202.316409 
L 150.410704 -204.001479 
L 154.707096 -206.036666 
L 159.003489 -208.476486 
L 163.299881 -211.379522 
L 167.596273 -214.807677 
L 171.892665 -218.825135 
L 176.189057 -223.497009 
L 180.48545 -228.887672 
L 184.781842 -235.058775 
L 189.078234 -242.066968 
L 193.374626 -249.961375 
L 197.671018 -258.780875 
L 201.967411 -268.551274 
L 206.263803 -279.282467 
L 210.560195 -290.965711 
L 214.856587 -303.571133 
L 219.152979 -317.04562 
L 223.449372 -331.311228 
L 227.745764 -346.264235 
L 232.042156 -361.77498 
L 236.338548 -377.68856 
L 240.63494 -393.826469 
L 244.931333 -409.989206 
L 249.227725 -425.959821 
L 253.524117 -441.508372 
L 257.820509 -456.397149 
L 262.116901 -470.386536 
L 266.413294 -483.241313 
L 270.709686 -494.737167 
L 275.006078 -504.667162 
L 279.30247 -512.847923 
L 283.598862 -519.125258 
L 287.895255 -523.378989 
L 292.191647 -525.526777 
L 296.488039 -525.526777 
L 300.784431 -523.378989 
L 305.080823 -519.125258 
L 309.377216 -512.847923 
L 313.673608 -504.667162 
L 317.97 -494.737167 
L 322.266392 -483.241313 
L 326.562784 -470.386536 
L 330.859176 -456.397149 
L 335.155569 -441.508372 
L 339.451961 -425.959821 
L 343.748353 -409.989206 
L 348.044745 -393.826469 
L 352.341137 -377.68856 
L 356.63753 -361.77498 
L 360.933922 -346.264235 
L 365.230314 -331.311228 
L 369.526706 -317.04562 
L 373.823098 -303.571133 
L 378.119491 -290.965711 
L 382.415883 -279.282467 
L 386.712275 -268.551274 
L 391.008667 -258.780875 
L 395.305059 -249.961375 
L 399.601452 -242.066968 
L 403.897844 -235.058775 
L 408.194236 -228.887672 
L 412.490628 -223.497009 
L 416.78702 -218.825135 
L 421.083413 -214.807677 
L 425.379805 -211.379522 
L 429.676197 -208.476486 
L 433.972589 -206.036666 
L 438.268981 -204.001479 
L 442.565374 -202.316409 
L 446.861766 -200.931501 
L 451.158158 -199.801615 
L 455.45455 -198.886492 
L 459.750942 -198.150671 
L 464.047335 -197.563277 
L 468.343727 -197.097726 
L 472.640119 -196.731374 
L 476.936511 -196.44513 
L 481.232903 -196.223057 
L 485.529296 -196.051983 
L 489.825688 -195.92112 
L 494.12208 -195.821718 
L 498.418472 -195.74674 
L 502.714864 -195.690577 
L 507.011257 -195.648801 
L 507.011257 -195.538011 
L 507.011257 -195.538011 
L 502.714864 -195.538011 
L 498.418472 -195.538011 
L 494.12208 -195.538011 
L 489.825688 -195.538011 
L 485.529296 -195.538011 
L 481.232903 -195.538011 
L 476.936511 -195.538011 
L 472.640119 -195.538011 
L 468.343727 -195.538011 
L 464.047335 -195.538011 
L 459.750942 -195.538011 
L 455.45455 -195.538011 
L 451.158158 -195.538011 
L 446.861766 -195.538011 
L 442.565374 -195.538011 
L 438.268981 -195.538011 
L 433.972589 -195.538011 
L 429.676197 -195.538011 
L 425.379805 -195.538011 
L 421.083413 -195.538011 
L 416.78702 -195.538011 
L 412.490628 -195.538011 
L 408.194236 -195.538011 
L 403.897844 -195.538011 
L 399.601452 -195.538011 
L 395.305059 -195.538011 
L 391.008667 -195.538011 
L 386.712275 -195.538011 
L 382.415883 -195.538011 
L 378.119491 -195.538011 
L 373.823098 -195.538011 
L 369.526706 -195.538011 
L 365.230314 -195.538011 
L 360.933922 -195.538011 
L 356.63753 -195.538011 
L 352.341137 -195.538011 
L 348.044745 -195.538011 
L 343.748353 -195.538011 
L 339.451961 -195.538011 
L 335.155569 -195.538011 
L 330.859176 -195.538011 
L 326.562784 -195.538011 
L 322.266392 -195.538011 
L 317.97 -195.538011 
L 313.673608 -195.538011 
L 309.377216 -195.538011 
L 305.080823 -195.538011 
L 300.784431 -195.538011 
L 296.488039 -195.538011 
L 292.191647 -195.538011 
L 287.895255 -195.538011 
L 283.598862 -195.538011 
L 279.30247 -195.538011 
L 275.006078 -195.538011 
L 270.709686 -195.538011 
L 266.413294 -195.538011 
L 262.116901 -195.538011 
L 257.820509 -195.538011 
L 253.524117 -195.538011 
L 249.227725 -195.538011 
L 244.931333 -195.538011 
L 240.63494 -195.538011 
L 236.338548 -195.538011 
L 232.042156 -195.538011 
L 227.745764 -195.538011 
L 223.449372 -195.538011 
L 219.152979 -195.538011 
L 214.856587 -195.538011 
L 210.560195 -195.538011 
L 206.263803 -195.538011 
L 201.967411 -195.538011 
L 197.671018 -195.538011 
L 193.374626 -195.538011 
L 189.078234 -195.538011 
L 184.781842 -195.538011 
L 180.48545 -195.538011 
L 176.189057 -195.538011 
L 171.892665 -195.538011 
L 167.596273 -195.538011 
L 163.299881 -195.538011 
L 159.003489 -195.538011 
L 154.707096 -195.538011 
L 150.410704 -195.538011 
L 146.114312 -195.538011 
L 141.81792 -195.538011 
L 137.521528 -195.538011 
L 133.225135 -195.538011 
L 128.928743 -195.538011 
L 124.632351 -195.538011 
L 120.335959 -195.538011 
L 116.039567 -195.538011 
L 111.743174 -195.538011 
L 107.446782 -195.538011 
L 103.15039 -195.538011 
L 98.853998 -195.538011 
L 94.557606 -195.538011 
L 90.261213 -195.538011 
L 85.964821 -195.538011 
L 81.668429 -195.538011 
z
" id="m8b0b2f03af" style="stroke:#ff6384;stroke-opacity:0.5;"/>
    </defs>
    <g clip-path="url(#pf8f2d6808b)">
     <use style="fill:#ff6384;fill-opacity:0.5;stroke:#ff6384;stroke-opacity:0.5;" x="0" xlink:href="#m8b0b2f03af" y="581.789375"/>
    </g>
   </g>
   <g id="PolyCollection_2">
    <defs>
     <path d="M 90.057714 -195.538011 
L 90.057714 -195.648808 
L 94.353825 -195.690587 
L 98.649937 -195.746754 
L 102.946048 -195.821737 
L 107.242159 -195.921146 
L 111.53827 -196.052016 
L 115.834382 -196.223102 
L 120.130493 -196.445189 
L 124.426604 -196.731452 
L 128.722715 -197.097828 
L 133.018826 -197.563409 
L 137.314938 -198.150842 
L 141.611049 -198.886711 
L 145.90716 -199.801893 
L 150.203271 -200.931854 
L 154.499383 -202.316853 
L 158.795494 -204.002032 
L 163.091605 -206.037353 
L 167.387716 -208.477333 
L 171.683828 -211.380558 
L 175.979939 -214.808937 
L 180.27605 -218.826658 
L 184.572161 -223.498837 
L 188.868273 -228.889853 
L 193.164384 -235.061359 
L 197.460495 -242.070011 
L 201.756606 -249.964934 
L 206.052718 -258.785011 
L 210.348829 -268.556049 
L 214.64494 -279.287944 
L 218.941051 -290.971951 
L 223.237163 -303.578198 
L 227.533274 -317.053566 
L 231.829385 -331.320107 
L 236.125496 -346.274092 
L 240.421608 -361.785851 
L 244.717719 -377.700472 
L 249.01383 -393.839437 
L 253.309941 -410.00323 
L 257.606053 -425.97489 
L 261.902164 -441.524458 
L 266.198275 -456.414208 
L 270.494386 -470.40451 
L 274.790498 -483.260128 
L 279.086609 -494.756733 
L 283.38272 -504.687378 
L 287.678831 -512.868674 
L 291.974943 -519.14642 
L 296.271054 -523.400429 
L 300.567165 -525.548358 
L 304.863276 -525.548358 
L 309.159388 -523.400429 
L 313.455499 -519.14642 
L 317.75161 -512.868674 
L 322.047721 -504.687378 
L 326.343833 -494.756733 
L 330.639944 -483.260128 
L 334.936055 -470.40451 
L 339.232166 -456.414208 
L 343.528277 -441.524458 
L 347.824389 -425.97489 
L 352.1205 -410.00323 
L 356.416611 -393.839437 
L 360.712722 -377.700472 
L 365.008834 -361.785851 
L 369.304945 -346.274092 
L 373.601056 -331.320107 
L 377.897167 -317.053566 
L 382.193279 -303.578198 
L 386.48939 -290.971951 
L 390.785501 -279.287944 
L 395.081612 -268.556049 
L 399.377724 -258.785011 
L 403.673835 -249.964934 
L 407.969946 -242.070011 
L 412.266057 -235.061359 
L 416.562169 -228.889853 
L 420.85828 -223.498837 
L 425.154391 -218.826658 
L 429.450502 -214.808937 
L 433.746614 -211.380558 
L 438.042725 -208.477333 
L 442.338836 -206.037353 
L 446.634947 -204.002032 
L 450.931059 -202.316853 
L 455.22717 -200.931854 
L 459.523281 -199.801893 
L 463.819392 -198.886711 
L 468.115504 -198.150842 
L 472.411615 -197.563409 
L 476.707726 -197.097828 
L 481.003837 -196.731452 
L 485.299949 -196.445189 
L 489.59606 -196.223102 
L 493.892171 -196.052016 
L 498.188282 -195.921146 
L 502.484394 -195.821737 
L 506.780505 -195.746754 
L 511.076616 -195.690587 
L 515.372727 -195.648808 
L 515.372727 -195.538011 
L 515.372727 -195.538011 
L 511.076616 -195.538011 
L 506.780505 -195.538011 
L 502.484394 -195.538011 
L 498.188282 -195.538011 
L 493.892171 -195.538011 
L 489.59606 -195.538011 
L 485.299949 -195.538011 
L 481.003837 -195.538011 
L 476.707726 -195.538011 
L 472.411615 -195.538011 
L 468.115504 -195.538011 
L 463.819392 -195.538011 
L 459.523281 -195.538011 
L 455.22717 -195.538011 
L 450.931059 -195.538011 
L 446.634947 -195.538011 
L 442.338836 -195.538011 
L 438.042725 -195.538011 
L 433.746614 -195.538011 
L 429.450502 -195.538011 
L 425.154391 -195.538011 
L 420.85828 -195.538011 
L 416.562169 -195.538011 
L 412.266057 -195.538011 
L 407.969946 -195.538011 
L 403.673835 -195.538011 
L 399.377724 -195.538011 
L 395.081612 -195.538011 
L 390.785501 -195.538011 
L 386.48939 -195.538011 
L 382.193279 -195.538011 
L 377.897167 -195.538011 
L 373.601056 -195.538011 
L 369.304945 -195.538011 
L 365.008834 -195.538011 
L 360.712722 -195.538011 
L 356.416611 -195.538011 
L 352.1205 -195.538011 
L 347.824389 -195.538011 
L 343.528277 -195.538011 
L 339.232166 -195.538011 
L 334.936055 -195.538011 
L 330.639944 -195.538011 
L 326.343833 -195.538011 
L 322.047721 -195.538011 
L 317.75161 -195.538011 
L 313.455499 -195.538011 
L 309.159388 -195.538011 
L 304.863276 -195.538011 
L 300.567165 -195.538011 
L 296.271054 -195.538011 
L 291.974943 -195.538011 
L 287.678831 -195.538011 
L 283.38272 -195.538011 
L 279.086609 -195.538011 
L 274.790498 -195.538011 
L 270.494386 -195.538011 
L 266.198275 -195.538011 
L 261.902164 -195.538011 
L 257.606053 -195.538011 
L 253.309941 -195.538011 
L 249.01383 -195.538011 
L 244.717719 -195.538011 
L 240.421608 -195.538011 
L 236.125496 -195.538011 
L 231.829385 -195.538011 
L 227.533274 -195.538011 
L 223.237163 -195.538011 
L 218.941051 -195.538011 
L 214.64494 -195.538011 
L 210.348829 -195.538011 
L 206.052718 -195.538011 
L 201.756606 -195.538011 
L 197.460495 -195.538011 
L 193.164384 -195.538011 
L 188.868273 -195.538011 
L 184.572161 -195.538011 
L 180.27605 -195.538011 
L 175.979939 -195.538011 
L 171.683828 -195.538011 
L 167.387716 -195.538011 
L 163.091605 -195.538011 
L 158.795494 -195.538011 
L 154.499383 -195.538011 
L 150.203271 -195.538011 
L 145.90716 -195.538011 
L 141.611049 -195.538011 
L 137.314938 -195.538011 
L 133.018826 -195.538011 
L 128.722715 -195.538011 
L 124.426604 -195.538011 
L 120.130493 -195.538011 
L 115.834382 -195.538011 
L 111.53827 -195.538011 
L 107.242159 -195.538011 
L 102.946048 -195.538011 
L 98.649937 -195.538011 
L 94.353825 -195.538011 
L 90.057714 -195.538011 
z
" id="meceb0903b3" style="stroke:#36a2eb;stroke-opacity:0.5;"/>
    </defs>
    <g clip-path="url(#pf8f2d6808b)">
     <use style="fill:#36a2eb;fill-opacity:0.5;stroke:#36a2eb;stroke-opacity:0.5;" x="0" xlink:href="#meceb0903b3" y="581.789375"/>
    </g>
   </g>
   <g id="PolyCollection_3">
    <defs>
     <path d="M 58.827273 -195.538011 
L 58.827273 -195.650004 
L 63.077504 -195.692234 
L 67.327735 -195.749007 
L 71.577966 -195.8248 
L 75.828197 -195.925281 
L 80.078428 -196.057565 
L 84.328659 -196.230497 
L 88.57889 -196.454982 
L 92.829121 -196.744335 
L 97.079352 -197.114666 
L 101.329583 -197.585273 
L 105.579814 -198.179047 
L 109.830045 -198.922859 
L 114.080276 -199.847921 
L 118.330507 -200.990079 
L 122.580738 -202.390029 
L 126.830969 -204.093399 
L 131.0812 -206.150691 
L 135.331431 -208.617009 
L 139.581663 -211.551575 
L 143.831894 -215.016962 
L 148.082125 -219.078053 
L 152.332356 -223.800667 
L 156.582587 -229.249878 
L 160.832818 -235.488004 
L 165.083049 -242.572312 
L 169.33328 -250.552459 
L 173.583511 -259.467747 
L 177.833742 -269.344261 
L 182.083973 -280.192004 
L 186.334204 -292.002137 
L 190.584435 -304.744465 
L 194.834666 -318.365297 
L 199.084897 -332.785841 
L 203.335128 -347.901251 
L 207.585359 -363.580456 
L 211.83559 -379.666871 
L 216.085821 -395.980052 
L 220.336052 -412.31833 
L 224.586283 -428.4624 
L 228.836514 -444.179822 
L 233.086745 -459.230303 
L 237.336976 -473.371627 
L 241.587208 -486.366018 
L 245.837439 -497.986726 
L 250.08767 -508.02457 
L 254.337901 -516.294181 
L 258.588132 -522.639693 
L 262.838363 -526.939623 
L 267.088594 -529.110739 
L 271.338825 -529.110739 
L 275.589056 -526.939623 
L 279.839287 -522.639693 
L 284.089518 -516.294181 
L 288.339749 -508.02457 
L 292.58998 -497.986726 
L 296.840211 -486.366018 
L 301.090442 -473.371627 
L 305.340673 -459.230303 
L 309.590904 -444.179822 
L 313.841135 -428.4624 
L 318.091366 -412.31833 
L 322.341597 -395.980052 
L 326.591828 -379.666871 
L 330.842059 -363.580456 
L 335.09229 -347.901251 
L 339.342521 -332.785841 
L 343.592753 -318.365297 
L 347.842984 -304.744465 
L 352.093215 -292.002137 
L 356.343446 -280.192004 
L 360.593677 -269.344261 
L 364.843908 -259.467747 
L 369.094139 -250.552459 
L 373.34437 -242.572312 
L 377.594601 -235.488004 
L 381.844832 -229.249878 
L 386.095063 -223.800667 
L 390.345294 -219.078053 
L 394.595525 -215.016962 
L 398.845756 -211.551575 
L 403.095987 -208.617009 
L 407.346218 -206.150691 
L 411.596449 -204.093399 
L 415.84668 -202.390029 
L 420.096911 -200.990079 
L 424.347142 -199.847921 
L 428.597373 -198.922859 
L 432.847604 -198.179047 
L 437.097835 -197.585273 
L 441.348066 -197.114666 
L 445.598297 -196.744335 
L 449.848529 -196.454982 
L 454.09876 -196.230497 
L 458.348991 -196.057565 
L 462.599222 -195.925281 
L 466.849453 -195.8248 
L 471.099684 -195.749007 
L 475.349915 -195.692234 
L 479.600146 -195.650004 
L 479.600146 -195.538011 
L 479.600146 -195.538011 
L 475.349915 -195.538011 
L 471.099684 -195.538011 
L 466.849453 -195.538011 
L 462.599222 -195.538011 
L 458.348991 -195.538011 
L 454.09876 -195.538011 
L 449.848529 -195.538011 
L 445.598297 -195.538011 
L 441.348066 -195.538011 
L 437.097835 -195.538011 
L 432.847604 -195.538011 
L 428.597373 -195.538011 
L 424.347142 -195.538011 
L 420.096911 -195.538011 
L 415.84668 -195.538011 
L 411.596449 -195.538011 
L 407.346218 -195.538011 
L 403.095987 -195.538011 
L 398.845756 -195.538011 
L 394.595525 -195.538011 
L 390.345294 -195.538011 
L 386.095063 -195.538011 
L 381.844832 -195.538011 
L 377.594601 -195.538011 
L 373.34437 -195.538011 
L 369.094139 -195.538011 
L 364.843908 -195.538011 
L 360.593677 -195.538011 
L 356.343446 -195.538011 
L 352.093215 -195.538011 
L 347.842984 -195.538011 
L 343.592753 -195.538011 
L 339.342521 -195.538011 
L 335.09229 -195.538011 
L 330.842059 -195.538011 
L 326.591828 -195.538011 
L 322.341597 -195.538011 
L 318.091366 -195.538011 
L 313.841135 -195.538011 
L 309.590904 -195.538011 
L 305.340673 -195.538011 
L 301.090442 -195.538011 
L 296.840211 -195.538011 
L 292.58998 -195.538011 
L 288.339749 -195.538011 
L 284.089518 -195.538011 
L 279.839287 -195.538011 
L 275.589056 -195.538011 
L 271.338825 -195.538011 
L 267.088594 -195.538011 
L 262.838363 -195.538011 
L 258.588132 -195.538011 
L 254.337901 -195.538011 
L 250.08767 -195.538011 
L 245.837439 -195.538011 
L 241.587208 -195.538011 
L 237.336976 -195.538011 
L 233.086745 -195.538011 
L 228.836514 -195.538011 
L 224.586283 -195.538011 
L 220.336052 -195.538011 
L 216.085821 -195.538011 
L 211.83559 -195.538011 
L 207.585359 -195.538011 
L 203.335128 -195.538011 
L 199.084897 -195.538011 
L 194.834666 -195.538011 
L 190.584435 -195.538011 
L 186.334204 -195.538011 
L 182.083973 -195.538011 
L 177.833742 -195.538011 
L 173.583511 -195.538011 
L 169.33328 -195.538011 
L 165.083049 -195.538011 
L 160.832818 -195.538011 
L 156.582587 -195.538011 
L 152.332356 -195.538011 
L 148.082125 -195.538011 
L 143.831894 -195.538011 
L 139.581663 -195.538011 
L 135.331431 -195.538011 
L 131.0812 -195.538011 
L 126.830969 -195.538011 
L 122.580738 -195.538011 
L 118.330507 -195.538011 
L 114.080276 -195.538011 
L 109.830045 -195.538011 
L 105.579814 -195.538011 
L 101.329583 -195.538011 
L 97.079352 -195.538011 
L 92.829121 -195.538011 
L 88.57889 -195.538011 
L 84.328659 -195.538011 
L 80.078428 -195.538011 
L 75.828197 -195.538011 
L 71.577966 -195.538011 
L 67.327735 -195.538011 
L 63.077504 -195.538011 
L 58.827273 -195.538011 
z
" id="meaba7224a7" style="stroke:#4bc0c0;stroke-opacity:0.5;"/>
    </defs>
    <g clip-path="url(#pf8f2d6808b)">
     <use style="fill:#4bc0c0;fill-opacity:0.5;stroke:#4bc0c0;stroke-opacity:0.5;" x="0" xlink:href="#meaba7224a7" y="581.789375"/>
    </g>
   </g>
   <g id="line2d_1">
    <path clip-path="url(#pf8f2d6808b)" d="M 81.668429 386.140574 
L 85.964821 386.098798 
L 90.261213 386.042635 
L 94.557606 385.967657 
L 98.853998 385.868255 
L 103.15039 385.737392 
L 107.446782 385.566318 
L 111.743174 385.344245 
L 116.039567 385.058001 
L 120.335959 384.691649 
L 124.632351 384.226098 
L 128.928743 383.638704 
L 133.225135 382.902883 
L 137.521528 381.98776 
L 141.81792 380.857874 
L 146.114312 379.472966 
L 150.410704 377.787896 
L 154.707096 375.752709 
L 159.003489 373.312889 
L 163.299881 370.409853 
L 167.596273 366.981698 
L 171.892665 362.96424 
L 176.189057 358.292366 
L 180.48545 352.901703 
L 184.781842 346.7306 
L 189.078234 339.722407 
L 193.374626 331.828 
L 197.671018 323.0085 
L 201.967411 313.238101 
L 206.263803 302.506908 
L 210.560195 290.823664 
L 214.856587 278.218242 
L 219.152979 264.743755 
L 223.449372 250.478147 
L 227.745764 235.52514 
L 232.042156 220.014395 
L 236.338548 204.100815 
L 240.63494 187.962906 
L 244.931333 171.800169 
L 249.227725 155.829554 
L 253.524117 140.281003 
L 257.820509 125.392226 
L 262.116901 111.402839 
L 266.413294 98.548062 
L 270.709686 87.052208 
L 275.006078 77.122213 
L 279.30247 68.941452 
L 283.598862 62.664117 
L 287.895255 58.410386 
L 292.191647 56.262598 
L 296.488039 56.262598 
L 300.784431 58.410386 
L 305.080823 62.664117 
L 309.377216 68.941452 
L 313.673608 77.122213 
L 317.97 87.052208 
L 322.266392 98.548062 
L 326.562784 111.402839 
L 330.859176 125.392226 
L 335.155569 140.281003 
L 339.451961 155.829554 
L 343.748353 171.800169 
L 348.044745 187.962906 
L 352.341137 204.100815 
L 356.63753 220.014395 
L 360.933922 235.52514 
L 365.230314 250.478147 
L 369.526706 264.743755 
L 373.823098 278.218242 
L 378.119491 290.823664 
L 382.415883 302.506908 
L 386.712275 313.238101 
L 391.008667 323.0085 
L 395.305059 331.828 
L 399.601452 339.722407 
L 403.897844 346.7306 
L 408.194236 352.901703 
L 412.490628 358.292366 
L 416.78702 362.96424 
L 421.083413 366.981698 
L 425.379805 370.409853 
L 429.676197 373.312889 
L 433.972589 375.752709 
L 438.268981 377.787896 
L 442.565374 379.472966 
L 446.861766 380.857874 
L 451.158158 381.98776 
L 455.45455 382.902883 
L 459.750942 383.638704 
L 464.047335 384.226098 
L 468.343727 384.691649 
L 472.640119 385.058001 
L 476.936511 385.344245 
L 481.232903 385.566318 
L 485.529296 385.737392 
L 489.825688 385.868255 
L 494.12208 385.967657 
L 498.418472 386.042635 
L 502.714864 386.098798 
L 507.011257 386.140574 
" style="fill:none;stroke:#ff6384;stroke-linecap:square;"/>
   </g>
   <g id="line2d_2">
    <path clip-path="url(#pf8f2d6808b)" d="M 90.057714 386.140567 
L 94.353825 386.098788 
L 98.649937 386.042621 
L 102.946048 385.967638 
L 107.242159 385.868229 
L 111.53827 385.737359 
L 115.834382 385.566273 
L 120.130493 385.344186 
L 124.426604 385.057923 
L 128.722715 384.691547 
L 133.018826 384.225966 
L 137.314938 383.638533 
L 141.611049 382.902664 
L 145.90716 381.987482 
L 150.203271 380.857521 
L 154.499383 379.472522 
L 158.795494 377.787343 
L 163.091605 375.752022 
L 167.387716 373.312042 
L 171.683828 370.408817 
L 175.979939 366.980438 
L 180.27605 362.962717 
L 184.572161 358.290538 
L 188.868273 352.899522 
L 193.164384 346.728016 
L 197.460495 339.719364 
L 201.756606 331.824441 
L 206.052718 323.004364 
L 210.348829 313.233326 
L 214.64494 302.501431 
L 218.941051 290.817424 
L 223.237163 278.211177 
L 227.533274 264.735809 
L 231.829385 250.469268 
L 236.125496 235.515283 
L 240.421608 220.003524 
L 244.717719 204.088903 
L 249.01383 187.949938 
L 253.309941 171.786145 
L 257.606053 155.814485 
L 261.902164 140.264917 
L 266.198275 125.375167 
L 270.494386 111.384865 
L 274.790498 98.529247 
L 279.086609 87.032642 
L 283.38272 77.101997 
L 287.678831 68.920701 
L 291.974943 62.642955 
L 296.271054 58.388946 
L 300.567165 56.241017 
L 304.863276 56.241017 
L 309.159388 58.388946 
L 313.455499 62.642955 
L 317.75161 68.920701 
L 322.047721 77.101997 
L 326.343833 87.032642 
L 330.639944 98.529247 
L 334.936055 111.384865 
L 339.232166 125.375167 
L 343.528277 140.264917 
L 347.824389 155.814485 
L 352.1205 171.786145 
L 356.416611 187.949938 
L 360.712722 204.088903 
L 365.008834 220.003524 
L 369.304945 235.515283 
L 373.601056 250.469268 
L 377.897167 264.735809 
L 382.193279 278.211177 
L 386.48939 290.817424 
L 390.785501 302.501431 
L 395.081612 313.233326 
L 399.377724 323.004364 
L 403.673835 331.824441 
L 407.969946 339.719364 
L 412.266057 346.728016 
L 416.562169 352.899522 
L 420.85828 358.290538 
L 425.154391 362.962717 
L 429.450502 366.980438 
L 433.746614 370.408817 
L 438.042725 373.312042 
L 442.338836 375.752022 
L 446.634947 377.787343 
L 450.931059 379.472522 
L 455.22717 380.857521 
L 459.523281 381.987482 
L 463.819392 382.902664 
L 468.115504 383.638533 
L 472.411615 384.225966 
L 476.707726 384.691547 
L 481.003837 385.057923 
L 485.299949 385.344186 
L 489.59606 385.566273 
L 493.892171 385.737359 
L 498.188282 385.868229 
L 502.484394 385.967638 
L 506.780505 386.042621 
L 511.076616 386.098788 
L 515.372727 386.140567 
" style="fill:none;stroke:#36a2eb;stroke-linecap:square;"/>
   </g>
   <g id="line2d_3">
    <path clip-path="url(#pf8f2d6808b)" d="M 58.827273 386.139371 
L 63.077504 386.097141 
L 67.327735 386.040368 
L 71.577966 385.964575 
L 75.828197 385.864094 
L 80.078428 385.73181 
L 84.328659 385.558878 
L 88.57889 385.334393 
L 92.829121 385.04504 
L 97.079352 384.674709 
L 101.329583 384.204102 
L 105.579814 383.610328 
L 109.830045 382.866516 
L 114.080276 381.941454 
L 118.330507 380.799296 
L 122.580738 379.399346 
L 126.830969 377.695976 
L 131.0812 375.638684 
L 135.331431 373.172366 
L 139.581663 370.2378 
L 143.831894 366.772413 
L 148.082125 362.711322 
L 152.332356 357.988708 
L 156.582587 352.539497 
L 160.832818 346.301371 
L 165.083049 339.217063 
L 169.33328 331.236916 
L 173.583511 322.321628 
L 177.833742 312.445114 
L 182.083973 301.597371 
L 186.334204 289.787238 
L 190.584435 277.04491 
L 194.834666 263.424078 
L 199.084897 249.003534 
L 203.335128 233.888124 
L 207.585359 218.208919 
L 211.83559 202.122504 
L 216.085821 185.809323 
L 220.336052 169.471045 
L 224.586283 153.326975 
L 228.836514 137.609553 
L 233.086745 122.559072 
L 237.336976 108.417748 
L 241.587208 95.423357 
L 245.837439 83.802649 
L 250.08767 73.764805 
L 254.337901 65.495194 
L 258.588132 59.149682 
L 262.838363 54.849752 
L 267.088594 52.678636 
L 271.338825 52.678636 
L 275.589056 54.849752 
L 279.839287 59.149682 
L 284.089518 65.495194 
L 288.339749 73.764805 
L 292.58998 83.802649 
L 296.840211 95.423357 
L 301.090442 108.417748 
L 305.340673 122.559072 
L 309.590904 137.609553 
L 313.841135 153.326975 
L 318.091366 169.471045 
L 322.341597 185.809323 
L 326.591828 202.122504 
L 330.842059 218.208919 
L 335.09229 233.888124 
L 339.342521 249.003534 
L 343.592753 263.424078 
L 347.842984 277.04491 
L 352.093215 289.787238 
L 356.343446 301.597371 
L 360.593677 312.445114 
L 364.843908 322.321628 
L 369.094139 331.236916 
L 373.34437 339.217063 
L 377.594601 346.301371 
L 381.844832 352.539497 
L 386.095063 357.988708 
L 390.345294 362.711322 
L 394.595525 366.772413 
L 398.845756 370.2378 
L 403.095987 373.172366 
L 407.346218 375.638684 
L 411.596449 377.695976 
L 415.84668 379.399346 
L 420.096911 380.799296 
L 424.347142 381.941454 
L 428.597373 382.866516 
L 432.847604 383.610328 
L 437.097835 384.204102 
L 441.348066 384.674709 
L 445.598297 385.04504 
L 449.848529 385.334393 
L 454.09876 385.558878 
L 458.348991 385.73181 
L 462.599222 385.864094 
L 466.849453 385.964575 
L 471.099684 386.040368 
L 475.349915 386.097141 
L 479.600146 386.139371 
" style="fill:none;stroke:#4bc0c0;stroke-linecap:square;"/>
   </g>
   <g id="patch_3">
    <path d="M 36 402.93 
L 538.2 402.93 
" style="fill:none;stroke:#000000;stroke-linecap:square;stroke-linejoin:miter;stroke-width:0.8;"/>
   </g>
   <g id="legend_1">
    <g id="patch_4">
     <path d="M 415.601563 109.626875 
L 528.4 109.626875 
Q 531.2 109.626875 531.2 106.826875 
L 531.2 45.8 
Q 531.2 43 528.4 43 
L 415.601563 43 
Q 412.801563 43 412.801563 45.8 
L 412.801563 106.826875 
Q 412.801563 109.626875 415.601563 109.626875 
z
" style="fill:#ffffff;opacity:0.8;stroke:#cccccc;stroke-linejoin:miter;"/>
    </g>
    <g id="patch_5">
     <path d="M 418.401563 59.237813 
L 446.401563 59.237813 
L 446.401563 49.437813 
L 418.401563 49.437813 
z
" style="fill:#ff6384;opacity:0.5;stroke:#ff6384;stroke-linejoin:miter;"/>
    </g>
    <g id="text_1">
     <!-- base -->
     <defs>
      <path d="M 48.6875 27.296875 
Q 48.6875 37.203125 44.609375 42.84375 
Q 40.53125 48.484375 33.40625 48.484375 
Q 26.265625 48.484375 22.1875 42.84375 
Q 18.109375 37.203125 18.109375 27.296875 
Q 18.109375 17.390625 22.1875 11.75 
Q 26.265625 6.109375 33.40625 6.109375 
Q 40.53125 6.109375 44.609375 11.75 
Q 48.6875 17.390625 48.6875 27.296875 
z
M 18.109375 46.390625 
Q 20.953125 51.265625 25.265625 53.625 
Q 29.59375 56 35.59375 56 
Q 45.5625 56 51.78125 48.09375 
Q 58.015625 40.1875 58.015625 27.296875 
Q 58.015625 14.40625 51.78125 6.484375 
Q 45.5625 -1.421875 35.59375 -1.421875 
Q 29.59375 -1.421875 25.265625 0.953125 
Q 20.953125 3.328125 18.109375 8.203125 
L 18.109375 0 
L 9.078125 0 
L 9.078125 75.984375 
L 18.109375 75.984375 
z
" id="DejaVuSans-98"/>
      <path d="M 34.28125 27.484375 
Q 23.390625 27.484375 19.1875 25 
Q 14.984375 22.515625 14.984375 16.5 
Q 14.984375 11.71875 18.140625 8.90625 
Q 21.296875 6.109375 26.703125 6.109375 
Q 34.1875 6.109375 38.703125 11.40625 
Q 43.21875 16.703125 43.21875 25.484375 
L 43.21875 27.484375 
z
M 52.203125 31.203125 
L 52.203125 0 
L 43.21875 0 
L 43.21875 8.296875 
Q 40.140625 3.328125 35.546875 0.953125 
Q 30.953125 -1.421875 24.3125 -1.421875 
Q 15.921875 -1.421875 10.953125 3.296875 
Q 6 8.015625 6 15.921875 
Q 6 25.140625 12.171875 29.828125 
Q 18.359375 34.515625 30.609375 34.515625 
L 43.21875 34.515625 
L 43.21875 35.40625 
Q 43.21875 41.609375 39.140625 45 
Q 35.0625 48.390625 27.6875 48.390625 
Q 23 48.390625 18.546875 47.265625 
Q 14.109375 46.140625 10.015625 43.890625 
L 10.015625 52.203125 
Q 14.9375 54.109375 19.578125 55.046875 
Q 24.21875 56 28.609375 56 
Q 40.484375 56 46.34375 49.84375 
Q 52.203125 43.703125 52.203125 31.203125 
z
" id="DejaVuSans-97"/>
      <path d="M 44.28125 53.078125 
L 44.28125 44.578125 
Q 40.484375 46.53125 36.375 47.5 
Q 32.28125 48.484375 27.875 48.484375 
Q 21.1875 48.484375 17.84375 46.4375 
Q 14.5 44.390625 14.5 40.28125 
Q 14.5 37.15625 16.890625 35.375 
Q 19.28125 33.59375 26.515625 31.984375 
L 29.59375 31.296875 
Q 39.15625 29.25 43.1875 25.515625 
Q 47.21875 21.78125 47.21875 15.09375 
Q 47.21875 7.46875 41.1875 3.015625 
Q 35.15625 -1.421875 24.609375 -1.421875 
Q 20.21875 -1.421875 15.453125 -0.5625 
Q 10.6875 0.296875 5.421875 2 
L 5.421875 11.28125 
Q 10.40625 8.6875 15.234375 7.390625 
Q 20.0625 6.109375 24.8125 6.109375 
Q 31.15625 6.109375 34.5625 8.28125 
Q 37.984375 10.453125 37.984375 14.40625 
Q 37.984375 18.0625 35.515625 20.015625 
Q 33.0625 21.96875 24.703125 23.78125 
L 21.578125 24.515625 
Q 13.234375 26.265625 9.515625 29.90625 
Q 5.8125 33.546875 5.8125 39.890625 
Q 5.8125 47.609375 11.28125 51.796875 
Q 16.75 56 26.8125 56 
Q 31.78125 56 36.171875 55.265625 
Q 40.578125 54.546875 44.28125 53.078125 
z
" id="DejaVuSans-115"/>
      <path d="M 56.203125 29.59375 
L 56.203125 25.203125 
L 14.890625 25.203125 
Q 15.484375 15.921875 20.484375 11.0625 
Q 25.484375 6.203125 34.421875 6.203125 
Q 39.59375 6.203125 44.453125 7.46875 
Q 49.3125 8.734375 54.109375 11.28125 
L 54.109375 2.78125 
Q 49.265625 0.734375 44.1875 -0.34375 
Q 39.109375 -1.421875 33.890625 -1.421875 
Q 20.796875 -1.421875 13.15625 6.1875 
Q 5.515625 13.8125 5.515625 26.8125 
Q 5.515625 40.234375 12.765625 48.109375 
Q 20.015625 56 32.328125 56 
Q 43.359375 56 49.78125 48.890625 
Q 56.203125 41.796875 56.203125 29.59375 
z
M 47.21875 32.234375 
Q 47.125 39.59375 43.09375 43.984375 
Q 39.0625 48.390625 32.421875 48.390625 
Q 24.90625 48.390625 20.390625 44.140625 
Q 15.875 39.890625 15.1875 32.171875 
z
" id="DejaVuSans-101"/>
     </defs>
     <g transform="translate(457.601563 59.237813)scale(0.14 -0.14)">
      <use xlink:href="#DejaVuSans-98"/>
      <use x="63.476562" xlink:href="#DejaVuSans-97"/>
      <use x="124.755859" xlink:href="#DejaVuSans-115"/>
      <use x="176.855469" xlink:href="#DejaVuSans-101"/>
     </g>
    </g>
    <g id="patch_6">
     <path d="M 418.401563 79.787188 
L 446.401563 79.787188 
L 446.401563 69.987188 
L 418.401563 69.987188 
z
" style="fill:#36a2eb;opacity:0.5;stroke:#36a2eb;stroke-linejoin:miter;"/>
    </g>
    <g id="text_2">
     <!-- fifth_mid -->
     <defs>
      <path d="M 37.109375 75.984375 
L 37.109375 68.5 
L 28.515625 68.5 
Q 23.6875 68.5 21.796875 66.546875 
Q 19.921875 64.59375 19.921875 59.515625 
L 19.921875 54.6875 
L 34.71875 54.6875 
L 34.71875 47.703125 
L 19.921875 47.703125 
L 19.921875 0 
L 10.890625 0 
L 10.890625 47.703125 
L 2.296875 47.703125 
L 2.296875 54.6875 
L 10.890625 54.6875 
L 10.890625 58.5 
Q 10.890625 67.625 15.140625 71.796875 
Q 19.390625 75.984375 28.609375 75.984375 
z
" id="DejaVuSans-102"/>
      <path d="M 9.421875 54.6875 
L 18.40625 54.6875 
L 18.40625 0 
L 9.421875 0 
z
M 9.421875 75.984375 
L 18.40625 75.984375 
L 18.40625 64.59375 
L 9.421875 64.59375 
z
" id="DejaVuSans-105"/>
      <path d="M 18.3125 70.21875 
L 18.3125 54.6875 
L 36.8125 54.6875 
L 36.8125 47.703125 
L 18.3125 47.703125 
L 18.3125 18.015625 
Q 18.3125 11.328125 20.140625 9.421875 
Q 21.96875 7.515625 27.59375 7.515625 
L 36.8125 7.515625 
L 36.8125 0 
L 27.59375 0 
Q 17.1875 0 13.234375 3.875 
Q 9.28125 7.765625 9.28125 18.015625 
L 9.28125 47.703125 
L 2.6875 47.703125 
L 2.6875 54.6875 
L 9.28125 54.6875 
L 9.28125 70.21875 
z
" id="DejaVuSans-116"/>
      <path d="M 54.890625 33.015625 
L 54.890625 0 
L 45.90625 0 
L 45.90625 32.71875 
Q 45.90625 40.484375 42.875 44.328125 
Q 39.84375 48.1875 33.796875 48.1875 
Q 26.515625 48.1875 22.3125 43.546875 
Q 18.109375 38.921875 18.109375 30.90625 
L 18.109375 0 
L 9.078125 0 
L 9.078125 75.984375 
L 18.109375 75.984375 
L 18.109375 46.1875 
Q 21.34375 51.125 25.703125 53.5625 
Q 30.078125 56 35.796875 56 
Q 45.21875 56 50.046875 50.171875 
Q 54.890625 44.34375 54.890625 33.015625 
z
" id="DejaVuSans-104"/>
      <path d="M 50.984375 -16.609375 
L 50.984375 -23.578125 
L -0.984375 -23.578125 
L -0.984375 -16.609375 
z
" id="DejaVuSans-95"/>
      <path d="M 52 44.1875 
Q 55.375 50.25 60.0625 53.125 
Q 64.75 56 71.09375 56 
Q 79.640625 56 84.28125 50.015625 
Q 88.921875 44.046875 88.921875 33.015625 
L 88.921875 0 
L 79.890625 0 
L 79.890625 32.71875 
Q 79.890625 40.578125 77.09375 44.375 
Q 74.3125 48.1875 68.609375 48.1875 
Q 61.625 48.1875 57.5625 43.546875 
Q 53.515625 38.921875 53.515625 30.90625 
L 53.515625 0 
L 44.484375 0 
L 44.484375 32.71875 
Q 44.484375 40.625 41.703125 44.40625 
Q 38.921875 48.1875 33.109375 48.1875 
Q 26.21875 48.1875 22.15625 43.53125 
Q 18.109375 38.875 18.109375 30.90625 
L 18.109375 0 
L 9.078125 0 
L 9.078125 54.6875 
L 18.109375 54.6875 
L 18.109375 46.1875 
Q 21.1875 51.21875 25.484375 53.609375 
Q 29.78125 56 35.6875 56 
Q 41.65625 56 45.828125 52.96875 
Q 50 49.953125 52 44.1875 
z
" id="DejaVuSans-109"/>
      <path d="M 45.40625 46.390625 
L 45.40625 75.984375 
L 54.390625 75.984375 
L 54.390625 0 
L 45.40625 0 
L 45.40625 8.203125 
Q 42.578125 3.328125 38.25 0.953125 
Q 33.9375 -1.421875 27.875 -1.421875 
Q 17.96875 -1.421875 11.734375 6.484375 
Q 5.515625 14.40625 5.515625 27.296875 
Q 5.515625 40.1875 11.734375 48.09375 
Q 17.96875 56 27.875 56 
Q 33.9375 56 38.25 53.625 
Q 42.578125 51.265625 45.40625 46.390625 
z
M 14.796875 27.296875 
Q 14.796875 17.390625 18.875 11.75 
Q 22.953125 6.109375 30.078125 6.109375 
Q 37.203125 6.109375 41.296875 11.75 
Q 45.40625 17.390625 45.40625 27.296875 
Q 45.40625 37.203125 41.296875 42.84375 
Q 37.203125 48.484375 30.078125 48.484375 
Q 22.953125 48.484375 18.875 42.84375 
Q 14.796875 37.203125 14.796875 27.296875 
z
" id="DejaVuSans-100"/>
     </defs>
     <g transform="translate(457.601563 79.787188)scale(0.14 -0.14)">
      <use xlink:href="#DejaVuSans-102"/>
      <use x="35.205078" xlink:href="#DejaVuSans-105"/>
      <use x="62.988281" xlink:href="#DejaVuSans-102"/>
      <use x="98.177734" xlink:href="#DejaVuSans-116"/>
      <use x="137.386719" xlink:href="#DejaVuSans-104"/>
      <use x="200.765625" xlink:href="#DejaVuSans-95"/>
      <use x="250.765625" xlink:href="#DejaVuSans-109"/>
      <use x="348.177734" xlink:href="#DejaVuSans-105"/>
      <use x="375.960938" xlink:href="#DejaVuSans-100"/>
     </g>
    </g>
    <g id="patch_7">
     <path d="M 418.401563 100.725937 
L 446.401563 100.725937 
L 446.401563 90.925937 
L 418.401563 90.925937 
z
" style="fill:#4bc0c0;opacity:0.5;stroke:#4bc0c0;stroke-linejoin:miter;"/>
    </g>
    <g id="text_3">
     <!-- fifth_right -->
     <defs>
      <path d="M 41.109375 46.296875 
Q 39.59375 47.171875 37.8125 47.578125 
Q 36.03125 48 33.890625 48 
Q 26.265625 48 22.1875 43.046875 
Q 18.109375 38.09375 18.109375 28.8125 
L 18.109375 0 
L 9.078125 0 
L 9.078125 54.6875 
L 18.109375 54.6875 
L 18.109375 46.1875 
Q 20.953125 51.171875 25.484375 53.578125 
Q 30.03125 56 36.53125 56 
Q 37.453125 56 38.578125 55.875 
Q 39.703125 55.765625 41.0625 55.515625 
z
" id="DejaVuSans-114"/>
      <path d="M 45.40625 27.984375 
Q 45.40625 37.75 41.375 43.109375 
Q 37.359375 48.484375 30.078125 48.484375 
Q 22.859375 48.484375 18.828125 43.109375 
Q 14.796875 37.75 14.796875 27.984375 
Q 14.796875 18.265625 18.828125 12.890625 
Q 22.859375 7.515625 30.078125 7.515625 
Q 37.359375 7.515625 41.375 12.890625 
Q 45.40625 18.265625 45.40625 27.984375 
z
M 54.390625 6.78125 
Q 54.390625 -7.171875 48.1875 -13.984375 
Q 42 -20.796875 29.203125 -20.796875 
Q 24.46875 -20.796875 20.265625 -20.09375 
Q 16.0625 -19.390625 12.109375 -17.921875 
L 12.109375 -9.1875 
Q 16.0625 -11.328125 19.921875 -12.34375 
Q 23.78125 -13.375 27.78125 -13.375 
Q 36.625 -13.375 41.015625 -8.765625 
Q 45.40625 -4.15625 45.40625 5.171875 
L 45.40625 9.625 
Q 42.625 4.78125 38.28125 2.390625 
Q 33.9375 0 27.875 0 
Q 17.828125 0 11.671875 7.65625 
Q 5.515625 15.328125 5.515625 27.984375 
Q 5.515625 40.671875 11.671875 48.328125 
Q 17.828125 56 27.875 56 
Q 33.9375 56 38.28125 53.609375 
Q 42.625 51.21875 45.40625 46.390625 
L 45.40625 54.6875 
L 54.390625 54.6875 
z
" id="DejaVuSans-103"/>
     </defs>
     <g transform="translate(457.601563 100.725937)scale(0.14 -0.14)">
      <use xlink:href="#DejaVuSans-102"/>
      <use x="35.205078" xlink:href="#DejaVuSans-105"/>
      <use x="62.988281" xlink:href="#DejaVuSans-102"/>
      <use x="98.177734" xlink:href="#DejaVuSans-116"/>
      <use x="137.386719" xlink:href="#DejaVuSans-104"/>
      <use x="200.765625" xlink:href="#DejaVuSans-95"/>
      <use x="250.765625" xlink:href="#DejaVuSans-114"/>
      <use x="291.878906" xlink:href="#DejaVuSans-105"/>
      <use x="319.662109" xlink:href="#DejaVuSans-103"/>
      <use x="383.138672" xlink:href="#DejaVuSans-104"/>
      <use x="446.517578" xlink:href="#DejaVuSans-116"/>
     </g>
    </g>
   </g>
  </g>
  <g id="axes_2">
   <g id="patch_8">
    <path d="M 36 525.24 
L 538.2 525.24 
L 538.2 402.93 
L 36 402.93 
z
" style="fill:none;"/>
   </g>
   <g id="patch_9">
    <path clip-path="url(#p23131ff0e6)" d="M 190.13085 519.680455 
L 398.548836 519.680455 
L 398.548836 497.442273 
L 190.13085 497.442273 
z
" style="fill:#ff6384;opacity:0.5;"/>
   </g>
   <g id="patch_10">
    <path clip-path="url(#p23131ff0e6)" d="M 198.513042 475.204091 
L 406.917399 475.204091 
L 406.917399 452.965909 
L 198.513042 452.965909 
z
" style="fill:#36a2eb;opacity:0.5;"/>
   </g>
   <g id="patch_11">
    <path clip-path="url(#p23131ff0e6)" d="M 166.124355 430.727727 
L 372.303063 430.727727 
L 372.303063 408.489545 
L 166.124355 408.489545 
z
" style="fill:#4bc0c0;opacity:0.5;"/>
   </g>
   <g id="matplotlib.axis_1">
    <g id="xtick_1">
     <g id="line2d_4">
      <defs>
       <path d="M 0 0 
L 0 3.5 
" id="m63fc3698a3" style="stroke:#000000;stroke-width:0.8;"/>
      </defs>
      <g>
       <use style="stroke:#000000;stroke-width:0.8;" x="66.529565" xlink:href="#m63fc3698a3" y="525.24"/>
      </g>
     </g>
     <g id="text_4">
      <!-- 7.5 -->
      <defs>
       <path d="M 8.203125 72.90625 
L 55.078125 72.90625 
L 55.078125 68.703125 
L 28.609375 0 
L 18.3125 0 
L 43.21875 64.59375 
L 8.203125 64.59375 
z
" id="DejaVuSans-55"/>
       <path d="M 10.6875 12.40625 
L 21 12.40625 
L 21 0 
L 10.6875 0 
z
" id="DejaVuSans-46"/>
       <path d="M 10.796875 72.90625 
L 49.515625 72.90625 
L 49.515625 64.59375 
L 19.828125 64.59375 
L 19.828125 46.734375 
Q 21.96875 47.46875 24.109375 47.828125 
Q 26.265625 48.1875 28.421875 48.1875 
Q 40.625 48.1875 47.75 41.5 
Q 54.890625 34.8125 54.890625 23.390625 
Q 54.890625 11.625 47.5625 5.09375 
Q 40.234375 -1.421875 26.90625 -1.421875 
Q 22.3125 -1.421875 17.546875 -0.640625 
Q 12.796875 0.140625 7.71875 1.703125 
L 7.71875 11.625 
Q 12.109375 9.234375 16.796875 8.0625 
Q 21.484375 6.890625 26.703125 6.890625 
Q 35.15625 6.890625 40.078125 11.328125 
Q 45.015625 15.765625 45.015625 23.390625 
Q 45.015625 31 40.078125 35.4375 
Q 35.15625 39.890625 26.703125 39.890625 
Q 22.75 39.890625 18.8125 39.015625 
Q 14.890625 38.140625 10.796875 36.28125 
z
" id="DejaVuSans-53"/>
      </defs>
      <g transform="translate(55.397378 542.877813)scale(0.14 -0.14)">
       <use xlink:href="#DejaVuSans-55"/>
       <use x="63.623047" xlink:href="#DejaVuSans-46"/>
       <use x="95.410156" xlink:href="#DejaVuSans-53"/>
      </g>
     </g>
    </g>
    <g id="xtick_2">
     <g id="line2d_5">
      <g>
       <use style="stroke:#000000;stroke-width:0.8;" x="150.283344" xlink:href="#m63fc3698a3" y="525.24"/>
      </g>
     </g>
     <g id="text_5">
      <!-- 8.0 -->
      <defs>
       <path d="M 31.78125 34.625 
Q 24.75 34.625 20.71875 30.859375 
Q 16.703125 27.09375 16.703125 20.515625 
Q 16.703125 13.921875 20.71875 10.15625 
Q 24.75 6.390625 31.78125 6.390625 
Q 38.8125 6.390625 42.859375 10.171875 
Q 46.921875 13.96875 46.921875 20.515625 
Q 46.921875 27.09375 42.890625 30.859375 
Q 38.875 34.625 31.78125 34.625 
z
M 21.921875 38.8125 
Q 15.578125 40.375 12.03125 44.71875 
Q 8.5 49.078125 8.5 55.328125 
Q 8.5 64.0625 14.71875 69.140625 
Q 20.953125 74.21875 31.78125 74.21875 
Q 42.671875 74.21875 48.875 69.140625 
Q 55.078125 64.0625 55.078125 55.328125 
Q 55.078125 49.078125 51.53125 44.71875 
Q 48 40.375 41.703125 38.8125 
Q 48.828125 37.15625 52.796875 32.3125 
Q 56.78125 27.484375 56.78125 20.515625 
Q 56.78125 9.90625 50.3125 4.234375 
Q 43.84375 -1.421875 31.78125 -1.421875 
Q 19.734375 -1.421875 13.25 4.234375 
Q 6.78125 9.90625 6.78125 20.515625 
Q 6.78125 27.484375 10.78125 32.3125 
Q 14.796875 37.15625 21.921875 38.8125 
z
M 18.3125 54.390625 
Q 18.3125 48.734375 21.84375 45.5625 
Q 25.390625 42.390625 31.78125 42.390625 
Q 38.140625 42.390625 41.71875 45.5625 
Q 45.3125 48.734375 45.3125 54.390625 
Q 45.3125 60.0625 41.71875 63.234375 
Q 38.140625 66.40625 31.78125 66.40625 
Q 25.390625 66.40625 21.84375 63.234375 
Q 18.3125 60.0625 18.3125 54.390625 
z
" id="DejaVuSans-56"/>
       <path d="M 31.78125 66.40625 
Q 24.171875 66.40625 20.328125 58.90625 
Q 16.5 51.421875 16.5 36.375 
Q 16.5 21.390625 20.328125 13.890625 
Q 24.171875 6.390625 31.78125 6.390625 
Q 39.453125 6.390625 43.28125 13.890625 
Q 47.125 21.390625 47.125 36.375 
Q 47.125 51.421875 43.28125 58.90625 
Q 39.453125 66.40625 31.78125 66.40625 
z
M 31.78125 74.21875 
Q 44.046875 74.21875 50.515625 64.515625 
Q 56.984375 54.828125 56.984375 36.375 
Q 56.984375 17.96875 50.515625 8.265625 
Q 44.046875 -1.421875 31.78125 -1.421875 
Q 19.53125 -1.421875 13.0625 8.265625 
Q 6.59375 17.96875 6.59375 36.375 
Q 6.59375 54.828125 13.0625 64.515625 
Q 19.53125 74.21875 31.78125 74.21875 
z
" id="DejaVuSans-48"/>
      </defs>
      <g transform="translate(139.151156 542.877813)scale(0.14 -0.14)">
       <use xlink:href="#DejaVuSans-56"/>
       <use x="63.623047" xlink:href="#DejaVuSans-46"/>
       <use x="95.410156" xlink:href="#DejaVuSans-48"/>
      </g>
     </g>
    </g>
    <g id="xtick_3">
     <g id="line2d_6">
      <g>
       <use style="stroke:#000000;stroke-width:0.8;" x="234.037122" xlink:href="#m63fc3698a3" y="525.24"/>
      </g>
     </g>
     <g id="text_6">
      <!-- 8.5 -->
      <g transform="translate(222.904935 542.877813)scale(0.14 -0.14)">
       <use xlink:href="#DejaVuSans-56"/>
       <use x="63.623047" xlink:href="#DejaVuSans-46"/>
       <use x="95.410156" xlink:href="#DejaVuSans-53"/>
      </g>
     </g>
    </g>
    <g id="xtick_4">
     <g id="line2d_7">
      <g>
       <use style="stroke:#000000;stroke-width:0.8;" x="317.790901" xlink:href="#m63fc3698a3" y="525.24"/>
      </g>
     </g>
     <g id="text_7">
      <!-- 9.0 -->
      <defs>
       <path d="M 10.984375 1.515625 
L 10.984375 10.5 
Q 14.703125 8.734375 18.5 7.8125 
Q 22.3125 6.890625 25.984375 6.890625 
Q 35.75 6.890625 40.890625 13.453125 
Q 46.046875 20.015625 46.78125 33.40625 
Q 43.953125 29.203125 39.59375 26.953125 
Q 35.25 24.703125 29.984375 24.703125 
Q 19.046875 24.703125 12.671875 31.3125 
Q 6.296875 37.9375 6.296875 49.421875 
Q 6.296875 60.640625 12.9375 67.421875 
Q 19.578125 74.21875 30.609375 74.21875 
Q 43.265625 74.21875 49.921875 64.515625 
Q 56.59375 54.828125 56.59375 36.375 
Q 56.59375 19.140625 48.40625 8.859375 
Q 40.234375 -1.421875 26.421875 -1.421875 
Q 22.703125 -1.421875 18.890625 -0.6875 
Q 15.09375 0.046875 10.984375 1.515625 
z
M 30.609375 32.421875 
Q 37.25 32.421875 41.125 36.953125 
Q 45.015625 41.5 45.015625 49.421875 
Q 45.015625 57.28125 41.125 61.84375 
Q 37.25 66.40625 30.609375 66.40625 
Q 23.96875 66.40625 20.09375 61.84375 
Q 16.21875 57.28125 16.21875 49.421875 
Q 16.21875 41.5 20.09375 36.953125 
Q 23.96875 32.421875 30.609375 32.421875 
z
" id="DejaVuSans-57"/>
      </defs>
      <g transform="translate(306.658713 542.877813)scale(0.14 -0.14)">
       <use xlink:href="#DejaVuSans-57"/>
       <use x="63.623047" xlink:href="#DejaVuSans-46"/>
       <use x="95.410156" xlink:href="#DejaVuSans-48"/>
      </g>
     </g>
    </g>
    <g id="xtick_5">
     <g id="line2d_8">
      <g>
       <use style="stroke:#000000;stroke-width:0.8;" x="401.544679" xlink:href="#m63fc3698a3" y="525.24"/>
      </g>
     </g>
     <g id="text_8">
      <!-- 9.5 -->
      <g transform="translate(390.412492 542.877813)scale(0.14 -0.14)">
       <use xlink:href="#DejaVuSans-57"/>
       <use x="63.623047" xlink:href="#DejaVuSans-46"/>
       <use x="95.410156" xlink:href="#DejaVuSans-53"/>
      </g>
     </g>
    </g>
    <g id="xtick_6">
     <g id="line2d_9">
      <g>
       <use style="stroke:#000000;stroke-width:0.8;" x="485.298458" xlink:href="#m63fc3698a3" y="525.24"/>
      </g>
     </g>
     <g id="text_9">
      <!-- 10.0 -->
      <defs>
       <path d="M 12.40625 8.296875 
L 28.515625 8.296875 
L 28.515625 63.921875 
L 10.984375 60.40625 
L 10.984375 69.390625 
L 28.421875 72.90625 
L 38.28125 72.90625 
L 38.28125 8.296875 
L 54.390625 8.296875 
L 54.390625 0 
L 12.40625 0 
z
" id="DejaVuSans-49"/>
      </defs>
      <g transform="translate(469.71252 542.877813)scale(0.14 -0.14)">
       <use xlink:href="#DejaVuSans-49"/>
       <use x="63.623047" xlink:href="#DejaVuSans-48"/>
       <use x="127.246094" xlink:href="#DejaVuSans-46"/>
       <use x="159.033203" xlink:href="#DejaVuSans-48"/>
      </g>
     </g>
    </g>
   </g>
   <g id="line2d_10">
    <path clip-path="url(#p23131ff0e6)" d="M 294.339843 525.24 
L 294.339843 402.93 
" style="fill:none;stroke:#ff6384;stroke-dasharray:5.55,2.4;stroke-dashoffset:0;stroke-opacity:0.8;stroke-width:1.5;"/>
   </g>
   <g id="line2d_11">
    <path clip-path="url(#p23131ff0e6)" d="M 302.715221 525.24 
L 302.715221 402.93 
" style="fill:none;stroke:#36a2eb;stroke-dasharray:5.55,2.4;stroke-dashoffset:0;stroke-opacity:0.8;stroke-width:1.5;"/>
   </g>
   <g id="line2d_12">
    <path clip-path="url(#p23131ff0e6)" d="M 269.213709 525.24 
L 269.213709 402.93 
" style="fill:none;stroke:#4bc0c0;stroke-dasharray:5.55,2.4;stroke-dashoffset:0;stroke-opacity:0.8;stroke-width:1.5;"/>
   </g>
   <g id="patch_12">
    <path d="M 36 525.24 
L 538.2 525.24 
" style="fill:none;stroke:#000000;stroke-linecap:square;stroke-linejoin:miter;stroke-width:0.8;"/>
   </g>
  </g>
 </g>
 <defs>
  <clipPath id="pf8f2d6808b">
   <rect height="366.93" width="502.2" x="36" y="36"/>
  </clipPath>
  <clipPath id="p23131ff0e6">
   <rect height="122.31" width="502.2" x="36" y="402.93"/>
  </clipPath>
 </defs>
</svg>
