<?xml version="1.0" encoding="utf-8" standalone="no"?>
<!DOCTYPE svg PUBLIC "-//W3C//DTD SVG 1.1//EN"
  "http://www.w3.org/Graphics/SVG/1.1/DTD/svg11.dtd">
<!-- Created with matplotlib (https://matplotlib.org/) -->
<svg height="581.789375pt" version="1.1" viewBox="0 0 574.2 581.789375" width="574.2pt" xmlns="http://www.w3.org/2000/svg" xmlns:xlink="http://www.w3.org/1999/xlink">
 <defs>
  <style type="text/css">
*{stroke-linecap:butt;stroke-linejoin:round;}
  </style>
 </defs>
 <g id="figure_1">
  <g id="patch_1">
   <path d="M 0 581.789375 
L 574.2 581.789375 
L 574.2 0 
L 0 0 
z
" style="fill:none;"/>
  </g>
  <g id="axes_1">
   <g id="patch_2">
    <path d="M 36 402.93 
L 538.2 402.93 
L 538.2 36 
L 36 36 
z
" style="fill:none;"/>
   </g>
   <g id="PolyCollection_1">
    <defs>
     <path d="M 74.632498 -195.538011 
L 74.632498 -195.641277 
L 79.08442 -195.680217 
L 83.536341 -195.732566 
L 87.988263 -195.802453 
L 92.440184 -195.895105 
L 96.892106 -196.01708 
L 101.344027 -196.176537 
L 105.795949 -196.38353 
L 110.24787 -196.650336 
L 114.699792 -196.99181 
L 119.151713 -197.425747 
L 123.603635 -197.973253 
L 128.055556 -198.659106 
L 132.507478 -199.512085 
L 136.959399 -200.565245 
L 141.411321 -201.856107 
L 145.863242 -203.426748 
L 150.315164 -205.323732 
L 154.767085 -207.597871 
L 159.219007 -210.303769 
L 163.670928 -213.499128 
L 168.12285 -217.243772 
L 172.574771 -221.598391 
L 177.026693 -226.62299 
L 181.478614 -232.37503 
L 185.930536 -238.907317 
L 190.382457 -246.265637 
L 194.834379 -254.486229 
L 199.2863 -263.593148 
L 203.738222 -273.595616 
L 208.190143 -284.485483 
L 212.642065 -296.234906 
L 217.093986 -308.794379 
L 221.545908 -322.091249 
L 225.997829 -336.028839 
L 230.449751 -350.486293 
L 234.901672 -365.319226 
L 239.353594 -380.361256 
L 243.805515 -395.426426 
L 248.257437 -410.312522 
L 252.709358 -424.805214 
L 257.16128 -438.682936 
L 261.613201 -451.722343 
L 266.065123 -463.704188 
L 270.517044 -474.41939 
L 274.968966 -483.675067 
L 279.420887 -491.300296 
L 283.872809 -497.151355 
L 288.32473 -501.116227 
L 292.776652 -503.118165 
L 297.228573 -503.118165 
L 301.680495 -501.116227 
L 306.132416 -497.151355 
L 310.584338 -491.300296 
L 315.036259 -483.675067 
L 319.488181 -474.41939 
L 323.940102 -463.704188 
L 328.392024 -451.722343 
L 332.843945 -438.682936 
L 337.295867 -424.805214 
L 341.747788 -410.312522 
L 346.19971 -395.426426 
L 350.651631 -380.361256 
L 355.103553 -365.319226 
L 359.555475 -350.486293 
L 364.007396 -336.028839 
L 368.459318 -322.091249 
L 372.911239 -308.794379 
L 377.363161 -296.234906 
L 381.815082 -284.485483 
L 386.267004 -273.595616 
L 390.718925 -263.593148 
L 395.170847 -254.486229 
L 399.622768 -246.265637 
L 404.07469 -238.907317 
L 408.526611 -232.37503 
L 412.978533 -226.62299 
L 417.430454 -221.598391 
L 421.882376 -217.243772 
L 426.334297 -213.499128 
L 430.786219 -210.303769 
L 435.23814 -207.597871 
L 439.690062 -205.323732 
L 444.141983 -203.426748 
L 448.593905 -201.856107 
L 453.045826 -200.565245 
L 457.497748 -199.512085 
L 461.949669 -198.659106 
L 466.401591 -197.973253 
L 470.853512 -197.425747 
L 475.305434 -196.99181 
L 479.757355 -196.650336 
L 484.209277 -196.38353 
L 488.661198 -196.176537 
L 493.11312 -196.01708 
L 497.565041 -195.895105 
L 502.016963 -195.802453 
L 506.468884 -195.732566 
L 510.920806 -195.680217 
L 515.372727 -195.641277 
L 515.372727 -195.538011 
L 515.372727 -195.538011 
L 510.920806 -195.538011 
L 506.468884 -195.538011 
L 502.016963 -195.538011 
L 497.565041 -195.538011 
L 493.11312 -195.538011 
L 488.661198 -195.538011 
L 484.209277 -195.538011 
L 479.757355 -195.538011 
L 475.305434 -195.538011 
L 470.853512 -195.538011 
L 466.401591 -195.538011 
L 461.949669 -195.538011 
L 457.497748 -195.538011 
L 453.045826 -195.538011 
L 448.593905 -195.538011 
L 444.141983 -195.538011 
L 439.690062 -195.538011 
L 435.23814 -195.538011 
L 430.786219 -195.538011 
L 426.334297 -195.538011 
L 421.882376 -195.538011 
L 417.430454 -195.538011 
L 412.978533 -195.538011 
L 408.526611 -195.538011 
L 404.07469 -195.538011 
L 399.622768 -195.538011 
L 395.170847 -195.538011 
L 390.718925 -195.538011 
L 386.267004 -195.538011 
L 381.815082 -195.538011 
L 377.363161 -195.538011 
L 372.911239 -195.538011 
L 368.459318 -195.538011 
L 364.007396 -195.538011 
L 359.555475 -195.538011 
L 355.103553 -195.538011 
L 350.651631 -195.538011 
L 346.19971 -195.538011 
L 341.747788 -195.538011 
L 337.295867 -195.538011 
L 332.843945 -195.538011 
L 328.392024 -195.538011 
L 323.940102 -195.538011 
L 319.488181 -195.538011 
L 315.036259 -195.538011 
L 310.584338 -195.538011 
L 306.132416 -195.538011 
L 301.680495 -195.538011 
L 297.228573 -195.538011 
L 292.776652 -195.538011 
L 288.32473 -195.538011 
L 283.872809 -195.538011 
L 279.420887 -195.538011 
L 274.968966 -195.538011 
L 270.517044 -195.538011 
L 266.065123 -195.538011 
L 261.613201 -195.538011 
L 257.16128 -195.538011 
L 252.709358 -195.538011 
L 248.257437 -195.538011 
L 243.805515 -195.538011 
L 239.353594 -195.538011 
L 234.901672 -195.538011 
L 230.449751 -195.538011 
L 225.997829 -195.538011 
L 221.545908 -195.538011 
L 217.093986 -195.538011 
L 212.642065 -195.538011 
L 208.190143 -195.538011 
L 203.738222 -195.538011 
L 199.2863 -195.538011 
L 194.834379 -195.538011 
L 190.382457 -195.538011 
L 185.930536 -195.538011 
L 181.478614 -195.538011 
L 177.026693 -195.538011 
L 172.574771 -195.538011 
L 168.12285 -195.538011 
L 163.670928 -195.538011 
L 159.219007 -195.538011 
L 154.767085 -195.538011 
L 150.315164 -195.538011 
L 145.863242 -195.538011 
L 141.411321 -195.538011 
L 136.959399 -195.538011 
L 132.507478 -195.538011 
L 128.055556 -195.538011 
L 123.603635 -195.538011 
L 119.151713 -195.538011 
L 114.699792 -195.538011 
L 110.24787 -195.538011 
L 105.795949 -195.538011 
L 101.344027 -195.538011 
L 96.892106 -195.538011 
L 92.440184 -195.538011 
L 87.988263 -195.538011 
L 83.536341 -195.538011 
L 79.08442 -195.538011 
L 74.632498 -195.538011 
z
" id="mba75563bcb" style="stroke:#ff6384;stroke-opacity:0.5;"/>
    </defs>
    <g clip-path="url(#pe90be8af53)">
     <use style="fill:#ff6384;fill-opacity:0.5;stroke:#ff6384;stroke-opacity:0.5;" x="0" xlink:href="#mba75563bcb" y="581.789375"/>
    </g>
   </g>
   <g id="PolyCollection_2">
    <defs>
     <path d="M 58.827273 -195.538011 
L 58.827273 -195.643277 
L 63.194634 -195.68297 
L 67.561995 -195.736333 
L 71.929356 -195.807573 
L 76.296717 -195.902019 
L 80.664078 -196.026356 
L 85.031439 -196.1889 
L 89.3988 -196.399901 
L 93.766161 -196.671873 
L 98.133522 -197.019959 
L 102.500883 -197.462297 
L 106.868244 -198.020403 
L 111.235605 -198.719536 
L 115.602966 -199.589031 
L 119.970327 -200.662581 
L 124.337688 -201.978438 
L 128.70505 -203.579489 
L 133.072411 -205.513202 
L 137.439772 -207.831373 
L 141.807133 -210.589663 
L 146.174494 -213.84689 
L 150.541855 -217.664037 
L 154.909216 -222.10297 
L 159.276577 -227.224854 
L 163.643938 -233.088265 
L 168.011299 -239.747029 
L 172.37866 -247.24782 
L 176.746021 -255.627579 
L 181.113382 -264.910825 
L 185.480743 -275.10696 
L 189.848104 -286.207676 
L 194.215465 -298.18459 
L 198.582826 -310.987239 
L 202.950187 -324.541561 
L 207.317548 -338.74901 
L 211.684909 -353.486388 
L 216.052271 -368.606515 
L 220.419632 -383.939787 
L 224.786993 -399.296648 
L 229.154354 -414.470967 
L 233.521715 -429.244266 
L 237.889076 -443.390686 
L 242.256437 -456.682561 
L 246.623798 -468.896398 
L 250.991159 -479.819067 
L 255.35852 -489.253952 
L 259.725881 -497.026819 
L 264.093242 -502.991166 
L 268.460603 -507.032805 
L 272.827964 -509.073505 
L 277.195325 -509.073505 
L 281.562686 -507.032805 
L 285.930047 -502.991166 
L 290.297408 -497.026819 
L 294.664769 -489.253952 
L 299.03213 -479.819067 
L 303.399492 -468.896398 
L 307.766853 -456.682561 
L 312.134214 -443.390686 
L 316.501575 -429.244266 
L 320.868936 -414.470967 
L 325.236297 -399.296648 
L 329.603658 -383.939787 
L 333.971019 -368.606515 
L 338.33838 -353.486388 
L 342.705741 -338.74901 
L 347.073102 -324.541561 
L 351.440463 -310.987239 
L 355.807824 -298.18459 
L 360.175185 -286.207676 
L 364.542546 -275.10696 
L 368.909907 -264.910825 
L 373.277268 -255.627579 
L 377.644629 -247.24782 
L 382.01199 -239.747029 
L 386.379351 -233.088265 
L 390.746712 -227.224854 
L 395.114074 -222.10297 
L 399.481435 -217.664037 
L 403.848796 -213.84689 
L 408.216157 -210.589663 
L 412.583518 -207.831373 
L 416.950879 -205.513202 
L 421.31824 -203.579489 
L 425.685601 -201.978438 
L 430.052962 -200.662581 
L 434.420323 -199.589031 
L 438.787684 -198.719536 
L 443.155045 -198.020403 
L 447.522406 -197.462297 
L 451.889767 -197.019959 
L 456.257128 -196.671873 
L 460.624489 -196.399901 
L 464.99185 -196.1889 
L 469.359211 -196.026356 
L 473.726572 -195.902019 
L 478.093933 -195.807573 
L 482.461295 -195.736333 
L 486.828656 -195.68297 
L 491.196017 -195.643277 
L 491.196017 -195.538011 
L 491.196017 -195.538011 
L 486.828656 -195.538011 
L 482.461295 -195.538011 
L 478.093933 -195.538011 
L 473.726572 -195.538011 
L 469.359211 -195.538011 
L 464.99185 -195.538011 
L 460.624489 -195.538011 
L 456.257128 -195.538011 
L 451.889767 -195.538011 
L 447.522406 -195.538011 
L 443.155045 -195.538011 
L 438.787684 -195.538011 
L 434.420323 -195.538011 
L 430.052962 -195.538011 
L 425.685601 -195.538011 
L 421.31824 -195.538011 
L 416.950879 -195.538011 
L 412.583518 -195.538011 
L 408.216157 -195.538011 
L 403.848796 -195.538011 
L 399.481435 -195.538011 
L 395.114074 -195.538011 
L 390.746712 -195.538011 
L 386.379351 -195.538011 
L 382.01199 -195.538011 
L 377.644629 -195.538011 
L 373.277268 -195.538011 
L 368.909907 -195.538011 
L 364.542546 -195.538011 
L 360.175185 -195.538011 
L 355.807824 -195.538011 
L 351.440463 -195.538011 
L 347.073102 -195.538011 
L 342.705741 -195.538011 
L 338.33838 -195.538011 
L 333.971019 -195.538011 
L 329.603658 -195.538011 
L 325.236297 -195.538011 
L 320.868936 -195.538011 
L 316.501575 -195.538011 
L 312.134214 -195.538011 
L 307.766853 -195.538011 
L 303.399492 -195.538011 
L 299.03213 -195.538011 
L 294.664769 -195.538011 
L 290.297408 -195.538011 
L 285.930047 -195.538011 
L 281.562686 -195.538011 
L 277.195325 -195.538011 
L 272.827964 -195.538011 
L 268.460603 -195.538011 
L 264.093242 -195.538011 
L 259.725881 -195.538011 
L 255.35852 -195.538011 
L 250.991159 -195.538011 
L 246.623798 -195.538011 
L 242.256437 -195.538011 
L 237.889076 -195.538011 
L 233.521715 -195.538011 
L 229.154354 -195.538011 
L 224.786993 -195.538011 
L 220.419632 -195.538011 
L 216.052271 -195.538011 
L 211.684909 -195.538011 
L 207.317548 -195.538011 
L 202.950187 -195.538011 
L 198.582826 -195.538011 
L 194.215465 -195.538011 
L 189.848104 -195.538011 
L 185.480743 -195.538011 
L 181.113382 -195.538011 
L 176.746021 -195.538011 
L 172.37866 -195.538011 
L 168.011299 -195.538011 
L 163.643938 -195.538011 
L 159.276577 -195.538011 
L 154.909216 -195.538011 
L 150.541855 -195.538011 
L 146.174494 -195.538011 
L 141.807133 -195.538011 
L 137.439772 -195.538011 
L 133.072411 -195.538011 
L 128.70505 -195.538011 
L 124.337688 -195.538011 
L 119.970327 -195.538011 
L 115.602966 -195.538011 
L 111.235605 -195.538011 
L 106.868244 -195.538011 
L 102.500883 -195.538011 
L 98.133522 -195.538011 
L 93.766161 -195.538011 
L 89.3988 -195.538011 
L 85.031439 -195.538011 
L 80.664078 -195.538011 
L 76.296717 -195.538011 
L 71.929356 -195.538011 
L 67.561995 -195.538011 
L 63.194634 -195.538011 
L 58.827273 -195.538011 
z
" id="mdd838b18f6" style="stroke:#36a2eb;stroke-opacity:0.5;"/>
    </defs>
    <g clip-path="url(#pe90be8af53)">
     <use style="fill:#36a2eb;fill-opacity:0.5;stroke:#36a2eb;stroke-opacity:0.5;" x="0" xlink:href="#mdd838b18f6" y="581.789375"/>
    </g>
   </g>
   <g id="PolyCollection_3">
    <defs>
     <path d="M 72.989096 -195.538011 
L 72.989096 -195.650004 
L 77.094116 -195.692234 
L 81.199136 -195.749007 
L 85.304156 -195.8248 
L 89.409176 -195.925281 
L 93.514196 -196.057565 
L 97.619216 -196.230497 
L 101.724236 -196.454982 
L 105.829256 -196.744335 
L 109.934276 -197.114666 
L 114.039296 -197.585273 
L 118.144316 -198.179047 
L 122.249336 -198.922859 
L 126.354356 -199.847921 
L 130.459376 -200.990079 
L 134.564396 -202.390029 
L 138.669416 -204.093399 
L 142.774436 -206.150691 
L 146.879455 -208.617009 
L 150.984475 -211.551575 
L 155.089495 -215.016962 
L 159.194515 -219.078053 
L 163.299535 -223.800667 
L 167.404555 -229.249878 
L 171.509575 -235.488004 
L 175.614595 -242.572312 
L 179.719615 -250.552459 
L 183.824635 -259.467747 
L 187.929655 -269.344261 
L 192.034675 -280.192004 
L 196.139695 -292.002137 
L 200.244715 -304.744465 
L 204.349735 -318.365297 
L 208.454755 -332.785841 
L 212.559775 -347.901251 
L 216.664795 -363.580456 
L 220.769815 -379.666871 
L 224.874835 -395.980052 
L 228.979855 -412.31833 
L 233.084874 -428.4624 
L 237.189894 -444.179822 
L 241.294914 -459.230303 
L 245.399934 -473.371627 
L 249.504954 -486.366018 
L 253.609974 -497.986726 
L 257.714994 -508.02457 
L 261.820014 -516.294181 
L 265.925034 -522.639693 
L 270.030054 -526.939623 
L 274.135074 -529.110739 
L 278.240094 -529.110739 
L 282.345114 -526.939623 
L 286.450134 -522.639693 
L 290.555154 -516.294181 
L 294.660174 -508.02457 
L 298.765194 -497.986726 
L 302.870214 -486.366018 
L 306.975234 -473.371627 
L 311.080254 -459.230303 
L 315.185274 -444.179822 
L 319.290293 -428.4624 
L 323.395313 -412.31833 
L 327.500333 -395.980052 
L 331.605353 -379.666871 
L 335.710373 -363.580456 
L 339.815393 -347.901251 
L 343.920413 -332.785841 
L 348.025433 -318.365297 
L 352.130453 -304.744465 
L 356.235473 -292.002137 
L 360.340493 -280.192004 
L 364.445513 -269.344261 
L 368.550533 -259.467747 
L 372.655553 -250.552459 
L 376.760573 -242.572312 
L 380.865593 -235.488004 
L 384.970613 -229.249878 
L 389.075633 -223.800667 
L 393.180653 -219.078053 
L 397.285673 -215.016962 
L 401.390693 -211.551575 
L 405.495712 -208.617009 
L 409.600732 -206.150691 
L 413.705752 -204.093399 
L 417.810772 -202.390029 
L 421.915792 -200.990079 
L 426.020812 -199.847921 
L 430.125832 -198.922859 
L 434.230852 -198.179047 
L 438.335872 -197.585273 
L 442.440892 -197.114666 
L 446.545912 -196.744335 
L 450.650932 -196.454982 
L 454.755952 -196.230497 
L 458.860972 -196.057565 
L 462.965992 -195.925281 
L 467.071012 -195.8248 
L 471.176032 -195.749007 
L 475.281052 -195.692234 
L 479.386072 -195.650004 
L 479.386072 -195.538011 
L 479.386072 -195.538011 
L 475.281052 -195.538011 
L 471.176032 -195.538011 
L 467.071012 -195.538011 
L 462.965992 -195.538011 
L 458.860972 -195.538011 
L 454.755952 -195.538011 
L 450.650932 -195.538011 
L 446.545912 -195.538011 
L 442.440892 -195.538011 
L 438.335872 -195.538011 
L 434.230852 -195.538011 
L 430.125832 -195.538011 
L 426.020812 -195.538011 
L 421.915792 -195.538011 
L 417.810772 -195.538011 
L 413.705752 -195.538011 
L 409.600732 -195.538011 
L 405.495712 -195.538011 
L 401.390693 -195.538011 
L 397.285673 -195.538011 
L 393.180653 -195.538011 
L 389.075633 -195.538011 
L 384.970613 -195.538011 
L 380.865593 -195.538011 
L 376.760573 -195.538011 
L 372.655553 -195.538011 
L 368.550533 -195.538011 
L 364.445513 -195.538011 
L 360.340493 -195.538011 
L 356.235473 -195.538011 
L 352.130453 -195.538011 
L 348.025433 -195.538011 
L 343.920413 -195.538011 
L 339.815393 -195.538011 
L 335.710373 -195.538011 
L 331.605353 -195.538011 
L 327.500333 -195.538011 
L 323.395313 -195.538011 
L 319.290293 -195.538011 
L 315.185274 -195.538011 
L 311.080254 -195.538011 
L 306.975234 -195.538011 
L 302.870214 -195.538011 
L 298.765194 -195.538011 
L 294.660174 -195.538011 
L 290.555154 -195.538011 
L 286.450134 -195.538011 
L 282.345114 -195.538011 
L 278.240094 -195.538011 
L 274.135074 -195.538011 
L 270.030054 -195.538011 
L 265.925034 -195.538011 
L 261.820014 -195.538011 
L 257.714994 -195.538011 
L 253.609974 -195.538011 
L 249.504954 -195.538011 
L 245.399934 -195.538011 
L 241.294914 -195.538011 
L 237.189894 -195.538011 
L 233.084874 -195.538011 
L 228.979855 -195.538011 
L 224.874835 -195.538011 
L 220.769815 -195.538011 
L 216.664795 -195.538011 
L 212.559775 -195.538011 
L 208.454755 -195.538011 
L 204.349735 -195.538011 
L 200.244715 -195.538011 
L 196.139695 -195.538011 
L 192.034675 -195.538011 
L 187.929655 -195.538011 
L 183.824635 -195.538011 
L 179.719615 -195.538011 
L 175.614595 -195.538011 
L 171.509575 -195.538011 
L 167.404555 -195.538011 
L 163.299535 -195.538011 
L 159.194515 -195.538011 
L 155.089495 -195.538011 
L 150.984475 -195.538011 
L 146.879455 -195.538011 
L 142.774436 -195.538011 
L 138.669416 -195.538011 
L 134.564396 -195.538011 
L 130.459376 -195.538011 
L 126.354356 -195.538011 
L 122.249336 -195.538011 
L 118.144316 -195.538011 
L 114.039296 -195.538011 
L 109.934276 -195.538011 
L 105.829256 -195.538011 
L 101.724236 -195.538011 
L 97.619216 -195.538011 
L 93.514196 -195.538011 
L 89.409176 -195.538011 
L 85.304156 -195.538011 
L 81.199136 -195.538011 
L 77.094116 -195.538011 
L 72.989096 -195.538011 
z
" id="m7ae18d439e" style="stroke:#4bc0c0;stroke-opacity:0.5;"/>
    </defs>
    <g clip-path="url(#pe90be8af53)">
     <use style="fill:#4bc0c0;fill-opacity:0.5;stroke:#4bc0c0;stroke-opacity:0.5;" x="0" xlink:href="#m7ae18d439e" y="581.789375"/>
    </g>
   </g>
   <g id="line2d_1">
    <path clip-path="url(#pe90be8af53)" d="M 74.632498 386.148098 
L 79.08442 386.109158 
L 83.536341 386.056809 
L 87.988263 385.986922 
L 92.440184 385.89427 
L 96.892106 385.772295 
L 101.344027 385.612838 
L 105.795949 385.405845 
L 110.24787 385.139039 
L 114.699792 384.797565 
L 119.151713 384.363628 
L 123.603635 383.816122 
L 128.055556 383.130269 
L 132.507478 382.27729 
L 136.959399 381.22413 
L 141.411321 379.933268 
L 145.863242 378.362627 
L 150.315164 376.465643 
L 154.767085 374.191504 
L 159.219007 371.485606 
L 163.670928 368.290247 
L 168.12285 364.545603 
L 172.574771 360.190984 
L 177.026693 355.166385 
L 181.478614 349.414345 
L 185.930536 342.882058 
L 190.382457 335.523738 
L 194.834379 327.303146 
L 199.2863 318.196227 
L 203.738222 308.193759 
L 208.190143 297.303892 
L 212.642065 285.554469 
L 217.093986 272.994996 
L 221.545908 259.698126 
L 225.997829 245.760536 
L 230.449751 231.303082 
L 234.901672 216.470149 
L 239.353594 201.428119 
L 243.805515 186.362949 
L 248.257437 171.476853 
L 252.709358 156.984161 
L 257.16128 143.106439 
L 261.613201 130.067032 
L 266.065123 118.085187 
L 270.517044 107.369985 
L 274.968966 98.114308 
L 279.420887 90.489079 
L 283.872809 84.63802 
L 288.32473 80.673148 
L 292.776652 78.67121 
L 297.228573 78.67121 
L 301.680495 80.673148 
L 306.132416 84.63802 
L 310.584338 90.489079 
L 315.036259 98.114308 
L 319.488181 107.369985 
L 323.940102 118.085187 
L 328.392024 130.067032 
L 332.843945 143.106439 
L 337.295867 156.984161 
L 341.747788 171.476853 
L 346.19971 186.362949 
L 350.651631 201.428119 
L 355.103553 216.470149 
L 359.555475 231.303082 
L 364.007396 245.760536 
L 368.459318 259.698126 
L 372.911239 272.994996 
L 377.363161 285.554469 
L 381.815082 297.303892 
L 386.267004 308.193759 
L 390.718925 318.196227 
L 395.170847 327.303146 
L 399.622768 335.523738 
L 404.07469 342.882058 
L 408.526611 349.414345 
L 412.978533 355.166385 
L 417.430454 360.190984 
L 421.882376 364.545603 
L 426.334297 368.290247 
L 430.786219 371.485606 
L 435.23814 374.191504 
L 439.690062 376.465643 
L 444.141983 378.362627 
L 448.593905 379.933268 
L 453.045826 381.22413 
L 457.497748 382.27729 
L 461.949669 383.130269 
L 466.401591 383.816122 
L 470.853512 384.363628 
L 475.305434 384.797565 
L 479.757355 385.139039 
L 484.209277 385.405845 
L 488.661198 385.612838 
L 493.11312 385.772295 
L 497.565041 385.89427 
L 502.016963 385.986922 
L 506.468884 386.056809 
L 510.920806 386.109158 
L 515.372727 386.148098 
" style="fill:none;stroke:#ff6384;stroke-linecap:square;"/>
   </g>
   <g id="line2d_2">
    <path clip-path="url(#pe90be8af53)" d="M 58.827273 386.146098 
L 63.194634 386.106405 
L 67.561995 386.053042 
L 71.929356 385.981802 
L 76.296717 385.887356 
L 80.664078 385.763019 
L 85.031439 385.600475 
L 89.3988 385.389474 
L 93.766161 385.117502 
L 98.133522 384.769416 
L 102.500883 384.327078 
L 106.868244 383.768972 
L 111.235605 383.069839 
L 115.602966 382.200344 
L 119.970327 381.126794 
L 124.337688 379.810937 
L 128.70505 378.209886 
L 133.072411 376.276173 
L 137.439772 373.958002 
L 141.807133 371.199712 
L 146.174494 367.942485 
L 150.541855 364.125338 
L 154.909216 359.686405 
L 159.276577 354.564521 
L 163.643938 348.70111 
L 168.011299 342.042346 
L 172.37866 334.541555 
L 176.746021 326.161796 
L 181.113382 316.87855 
L 185.480743 306.682415 
L 189.848104 295.581699 
L 194.215465 283.604785 
L 198.582826 270.802136 
L 202.950187 257.247814 
L 207.317548 243.040365 
L 211.684909 228.302987 
L 216.052271 213.18286 
L 220.419632 197.849588 
L 224.786993 182.492727 
L 229.154354 167.318408 
L 233.521715 152.545109 
L 237.889076 138.398689 
L 242.256437 125.106814 
L 246.623798 112.892977 
L 250.991159 101.970308 
L 255.35852 92.535423 
L 259.725881 84.762556 
L 264.093242 78.798209 
L 268.460603 74.75657 
L 272.827964 72.71587 
L 277.195325 72.71587 
L 281.562686 74.75657 
L 285.930047 78.798209 
L 290.297408 84.762556 
L 294.664769 92.535423 
L 299.03213 101.970308 
L 303.399492 112.892977 
L 307.766853 125.106814 
L 312.134214 138.398689 
L 316.501575 152.545109 
L 320.868936 167.318408 
L 325.236297 182.492727 
L 329.603658 197.849588 
L 333.971019 213.18286 
L 338.33838 228.302987 
L 342.705741 243.040365 
L 347.073102 257.247814 
L 351.440463 270.802136 
L 355.807824 283.604785 
L 360.175185 295.581699 
L 364.542546 306.682415 
L 368.909907 316.87855 
L 373.277268 326.161796 
L 377.644629 334.541555 
L 382.01199 342.042346 
L 386.379351 348.70111 
L 390.746712 354.564521 
L 395.114074 359.686405 
L 399.481435 364.125338 
L 403.848796 367.942485 
L 408.216157 371.199712 
L 412.583518 373.958002 
L 416.950879 376.276173 
L 421.31824 378.209886 
L 425.685601 379.810937 
L 430.052962 381.126794 
L 434.420323 382.200344 
L 438.787684 383.069839 
L 443.155045 383.768972 
L 447.522406 384.327078 
L 451.889767 384.769416 
L 456.257128 385.117502 
L 460.624489 385.389474 
L 464.99185 385.600475 
L 469.359211 385.763019 
L 473.726572 385.887356 
L 478.093933 385.981802 
L 482.461295 386.053042 
L 486.828656 386.106405 
L 491.196017 386.146098 
" style="fill:none;stroke:#36a2eb;stroke-linecap:square;"/>
   </g>
   <g id="line2d_3">
    <path clip-path="url(#pe90be8af53)" d="M 72.989096 386.139371 
L 77.094116 386.097141 
L 81.199136 386.040368 
L 85.304156 385.964575 
L 89.409176 385.864094 
L 93.514196 385.73181 
L 97.619216 385.558878 
L 101.724236 385.334393 
L 105.829256 385.04504 
L 109.934276 384.674709 
L 114.039296 384.204102 
L 118.144316 383.610328 
L 122.249336 382.866516 
L 126.354356 381.941454 
L 130.459376 380.799296 
L 134.564396 379.399346 
L 138.669416 377.695976 
L 142.774436 375.638684 
L 146.879455 373.172366 
L 150.984475 370.2378 
L 155.089495 366.772413 
L 159.194515 362.711322 
L 163.299535 357.988708 
L 167.404555 352.539497 
L 171.509575 346.301371 
L 175.614595 339.217063 
L 179.719615 331.236916 
L 183.824635 322.321628 
L 187.929655 312.445114 
L 192.034675 301.597371 
L 196.139695 289.787238 
L 200.244715 277.04491 
L 204.349735 263.424078 
L 208.454755 249.003534 
L 212.559775 233.888124 
L 216.664795 218.208919 
L 220.769815 202.122504 
L 224.874835 185.809323 
L 228.979855 169.471045 
L 233.084874 153.326975 
L 237.189894 137.609553 
L 241.294914 122.559072 
L 245.399934 108.417748 
L 249.504954 95.423357 
L 253.609974 83.802649 
L 257.714994 73.764805 
L 261.820014 65.495194 
L 265.925034 59.149682 
L 270.030054 54.849752 
L 274.135074 52.678636 
L 278.240094 52.678636 
L 282.345114 54.849752 
L 286.450134 59.149682 
L 290.555154 65.495194 
L 294.660174 73.764805 
L 298.765194 83.802649 
L 302.870214 95.423357 
L 306.975234 108.417748 
L 311.080254 122.559072 
L 315.185274 137.609553 
L 319.290293 153.326975 
L 323.395313 169.471045 
L 327.500333 185.809323 
L 331.605353 202.122504 
L 335.710373 218.208919 
L 339.815393 233.888124 
L 343.920413 249.003534 
L 348.025433 263.424078 
L 352.130453 277.04491 
L 356.235473 289.787238 
L 360.340493 301.597371 
L 364.445513 312.445114 
L 368.550533 322.321628 
L 372.655553 331.236916 
L 376.760573 339.217063 
L 380.865593 346.301371 
L 384.970613 352.539497 
L 389.075633 357.988708 
L 393.180653 362.711322 
L 397.285673 366.772413 
L 401.390693 370.2378 
L 405.495712 373.172366 
L 409.600732 375.638684 
L 413.705752 377.695976 
L 417.810772 379.399346 
L 421.915792 380.799296 
L 426.020812 381.941454 
L 430.125832 382.866516 
L 434.230852 383.610328 
L 438.335872 384.204102 
L 442.440892 384.674709 
L 446.545912 385.04504 
L 450.650932 385.334393 
L 454.755952 385.558878 
L 458.860972 385.73181 
L 462.965992 385.864094 
L 467.071012 385.964575 
L 471.176032 386.040368 
L 475.281052 386.097141 
L 479.386072 386.139371 
" style="fill:none;stroke:#4bc0c0;stroke-linecap:square;"/>
   </g>
   <g id="patch_3">
    <path d="M 36 402.93 
L 538.2 402.93 
" style="fill:none;stroke:#000000;stroke-linecap:square;stroke-linejoin:miter;stroke-width:0.8;"/>
   </g>
   <g id="legend_1">
    <g id="patch_4">
     <path d="M 401.81375 109.626875 
L 528.4 109.626875 
Q 531.2 109.626875 531.2 106.826875 
L 531.2 45.8 
Q 531.2 43 528.4 43 
L 401.81375 43 
Q 399.01375 43 399.01375 45.8 
L 399.01375 106.826875 
Q 399.01375 109.626875 401.81375 109.626875 
z
" style="fill:#ffffff;opacity:0.8;stroke:#cccccc;stroke-linejoin:miter;"/>
    </g>
    <g id="patch_5">
     <path d="M 404.61375 59.237813 
L 432.61375 59.237813 
L 432.61375 49.437813 
L 404.61375 49.437813 
z
" style="fill:#ff6384;opacity:0.5;stroke:#ff6384;stroke-linejoin:miter;"/>
    </g>
    <g id="text_1">
     <!-- base -->
     <defs>
      <path d="M 48.6875 27.296875 
Q 48.6875 37.203125 44.609375 42.84375 
Q 40.53125 48.484375 33.40625 48.484375 
Q 26.265625 48.484375 22.1875 42.84375 
Q 18.109375 37.203125 18.109375 27.296875 
Q 18.109375 17.390625 22.1875 11.75 
Q 26.265625 6.109375 33.40625 6.109375 
Q 40.53125 6.109375 44.609375 11.75 
Q 48.6875 17.390625 48.6875 27.296875 
z
M 18.109375 46.390625 
Q 20.953125 51.265625 25.265625 53.625 
Q 29.59375 56 35.59375 56 
Q 45.5625 56 51.78125 48.09375 
Q 58.015625 40.1875 58.015625 27.296875 
Q 58.015625 14.40625 51.78125 6.484375 
Q 45.5625 -1.421875 35.59375 -1.421875 
Q 29.59375 -1.421875 25.265625 0.953125 
Q 20.953125 3.328125 18.109375 8.203125 
L 18.109375 0 
L 9.078125 0 
L 9.078125 75.984375 
L 18.109375 75.984375 
z
" id="DejaVuSans-98"/>
      <path d="M 34.28125 27.484375 
Q 23.390625 27.484375 19.1875 25 
Q 14.984375 22.515625 14.984375 16.5 
Q 14.984375 11.71875 18.140625 8.90625 
Q 21.296875 6.109375 26.703125 6.109375 
Q 34.1875 6.109375 38.703125 11.40625 
Q 43.21875 16.703125 43.21875 25.484375 
L 43.21875 27.484375 
z
M 52.203125 31.203125 
L 52.203125 0 
L 43.21875 0 
L 43.21875 8.296875 
Q 40.140625 3.328125 35.546875 0.953125 
Q 30.953125 -1.421875 24.3125 -1.421875 
Q 15.921875 -1.421875 10.953125 3.296875 
Q 6 8.015625 6 15.921875 
Q 6 25.140625 12.171875 29.828125 
Q 18.359375 34.515625 30.609375 34.515625 
L 43.21875 34.515625 
L 43.21875 35.40625 
Q 43.21875 41.609375 39.140625 45 
Q 35.0625 48.390625 27.6875 48.390625 
Q 23 48.390625 18.546875 47.265625 
Q 14.109375 46.140625 10.015625 43.890625 
L 10.015625 52.203125 
Q 14.9375 54.109375 19.578125 55.046875 
Q 24.21875 56 28.609375 56 
Q 40.484375 56 46.34375 49.84375 
Q 52.203125 43.703125 52.203125 31.203125 
z
" id="DejaVuSans-97"/>
      <path d="M 44.28125 53.078125 
L 44.28125 44.578125 
Q 40.484375 46.53125 36.375 47.5 
Q 32.28125 48.484375 27.875 48.484375 
Q 21.1875 48.484375 17.84375 46.4375 
Q 14.5 44.390625 14.5 40.28125 
Q 14.5 37.15625 16.890625 35.375 
Q 19.28125 33.59375 26.515625 31.984375 
L 29.59375 31.296875 
Q 39.15625 29.25 43.1875 25.515625 
Q 47.21875 21.78125 47.21875 15.09375 
Q 47.21875 7.46875 41.1875 3.015625 
Q 35.15625 -1.421875 24.609375 -1.421875 
Q 20.21875 -1.421875 15.453125 -0.5625 
Q 10.6875 0.296875 5.421875 2 
L 5.421875 11.28125 
Q 10.40625 8.6875 15.234375 7.390625 
Q 20.0625 6.109375 24.8125 6.109375 
Q 31.15625 6.109375 34.5625 8.28125 
Q 37.984375 10.453125 37.984375 14.40625 
Q 37.984375 18.0625 35.515625 20.015625 
Q 33.0625 21.96875 24.703125 23.78125 
L 21.578125 24.515625 
Q 13.234375 26.265625 9.515625 29.90625 
Q 5.8125 33.546875 5.8125 39.890625 
Q 5.8125 47.609375 11.28125 51.796875 
Q 16.75 56 26.8125 56 
Q 31.78125 56 36.171875 55.265625 
Q 40.578125 54.546875 44.28125 53.078125 
z
" id="DejaVuSans-115"/>
      <path d="M 56.203125 29.59375 
L 56.203125 25.203125 
L 14.890625 25.203125 
Q 15.484375 15.921875 20.484375 11.0625 
Q 25.484375 6.203125 34.421875 6.203125 
Q 39.59375 6.203125 44.453125 7.46875 
Q 49.3125 8.734375 54.109375 11.28125 
L 54.109375 2.78125 
Q 49.265625 0.734375 44.1875 -0.34375 
Q 39.109375 -1.421875 33.890625 -1.421875 
Q 20.796875 -1.421875 13.15625 6.1875 
Q 5.515625 13.8125 5.515625 26.8125 
Q 5.515625 40.234375 12.765625 48.109375 
Q 20.015625 56 32.328125 56 
Q 43.359375 56 49.78125 48.890625 
Q 56.203125 41.796875 56.203125 29.59375 
z
M 47.21875 32.234375 
Q 47.125 39.59375 43.09375 43.984375 
Q 39.0625 48.390625 32.421875 48.390625 
Q 24.90625 48.390625 20.390625 44.140625 
Q 15.875 39.890625 15.1875 32.171875 
z
" id="DejaVuSans-101"/>
     </defs>
     <g transform="translate(443.81375 59.237813)scale(0.14 -0.14)">
      <use xlink:href="#DejaVuSans-98"/>
      <use x="63.476562" xlink:href="#DejaVuSans-97"/>
      <use x="124.755859" xlink:href="#DejaVuSans-115"/>
      <use x="176.855469" xlink:href="#DejaVuSans-101"/>
     </g>
    </g>
    <g id="patch_6">
     <path d="M 404.61375 79.787188 
L 432.61375 79.787188 
L 432.61375 69.987188 
L 404.61375 69.987188 
z
" style="fill:#36a2eb;opacity:0.5;stroke:#36a2eb;stroke-linejoin:miter;"/>
    </g>
    <g id="text_2">
     <!-- osago_mid -->
     <defs>
      <path d="M 30.609375 48.390625 
Q 23.390625 48.390625 19.1875 42.75 
Q 14.984375 37.109375 14.984375 27.296875 
Q 14.984375 17.484375 19.15625 11.84375 
Q 23.34375 6.203125 30.609375 6.203125 
Q 37.796875 6.203125 41.984375 11.859375 
Q 46.1875 17.53125 46.1875 27.296875 
Q 46.1875 37.015625 41.984375 42.703125 
Q 37.796875 48.390625 30.609375 48.390625 
z
M 30.609375 56 
Q 42.328125 56 49.015625 48.375 
Q 55.71875 40.765625 55.71875 27.296875 
Q 55.71875 13.875 49.015625 6.21875 
Q 42.328125 -1.421875 30.609375 -1.421875 
Q 18.84375 -1.421875 12.171875 6.21875 
Q 5.515625 13.875 5.515625 27.296875 
Q 5.515625 40.765625 12.171875 48.375 
Q 18.84375 56 30.609375 56 
z
" id="DejaVuSans-111"/>
      <path d="M 45.40625 27.984375 
Q 45.40625 37.75 41.375 43.109375 
Q 37.359375 48.484375 30.078125 48.484375 
Q 22.859375 48.484375 18.828125 43.109375 
Q 14.796875 37.75 14.796875 27.984375 
Q 14.796875 18.265625 18.828125 12.890625 
Q 22.859375 7.515625 30.078125 7.515625 
Q 37.359375 7.515625 41.375 12.890625 
Q 45.40625 18.265625 45.40625 27.984375 
z
M 54.390625 6.78125 
Q 54.390625 -7.171875 48.1875 -13.984375 
Q 42 -20.796875 29.203125 -20.796875 
Q 24.46875 -20.796875 20.265625 -20.09375 
Q 16.0625 -19.390625 12.109375 -17.921875 
L 12.109375 -9.1875 
Q 16.0625 -11.328125 19.921875 -12.34375 
Q 23.78125 -13.375 27.78125 -13.375 
Q 36.625 -13.375 41.015625 -8.765625 
Q 45.40625 -4.15625 45.40625 5.171875 
L 45.40625 9.625 
Q 42.625 4.78125 38.28125 2.390625 
Q 33.9375 0 27.875 0 
Q 17.828125 0 11.671875 7.65625 
Q 5.515625 15.328125 5.515625 27.984375 
Q 5.515625 40.671875 11.671875 48.328125 
Q 17.828125 56 27.875 56 
Q 33.9375 56 38.28125 53.609375 
Q 42.625 51.21875 45.40625 46.390625 
L 45.40625 54.6875 
L 54.390625 54.6875 
z
" id="DejaVuSans-103"/>
      <path d="M 50.984375 -16.609375 
L 50.984375 -23.578125 
L -0.984375 -23.578125 
L -0.984375 -16.609375 
z
" id="DejaVuSans-95"/>
      <path d="M 52 44.1875 
Q 55.375 50.25 60.0625 53.125 
Q 64.75 56 71.09375 56 
Q 79.640625 56 84.28125 50.015625 
Q 88.921875 44.046875 88.921875 33.015625 
L 88.921875 0 
L 79.890625 0 
L 79.890625 32.71875 
Q 79.890625 40.578125 77.09375 44.375 
Q 74.3125 48.1875 68.609375 48.1875 
Q 61.625 48.1875 57.5625 43.546875 
Q 53.515625 38.921875 53.515625 30.90625 
L 53.515625 0 
L 44.484375 0 
L 44.484375 32.71875 
Q 44.484375 40.625 41.703125 44.40625 
Q 38.921875 48.1875 33.109375 48.1875 
Q 26.21875 48.1875 22.15625 43.53125 
Q 18.109375 38.875 18.109375 30.90625 
L 18.109375 0 
L 9.078125 0 
L 9.078125 54.6875 
L 18.109375 54.6875 
L 18.109375 46.1875 
Q 21.1875 51.21875 25.484375 53.609375 
Q 29.78125 56 35.6875 56 
Q 41.65625 56 45.828125 52.96875 
Q 50 49.953125 52 44.1875 
z
" id="DejaVuSans-109"/>
      <path d="M 9.421875 54.6875 
L 18.40625 54.6875 
L 18.40625 0 
L 9.421875 0 
z
M 9.421875 75.984375 
L 18.40625 75.984375 
L 18.40625 64.59375 
L 9.421875 64.59375 
z
" id="DejaVuSans-105"/>
      <path d="M 45.40625 46.390625 
L 45.40625 75.984375 
L 54.390625 75.984375 
L 54.390625 0 
L 45.40625 0 
L 45.40625 8.203125 
Q 42.578125 3.328125 38.25 0.953125 
Q 33.9375 -1.421875 27.875 -1.421875 
Q 17.96875 -1.421875 11.734375 6.484375 
Q 5.515625 14.40625 5.515625 27.296875 
Q 5.515625 40.1875 11.734375 48.09375 
Q 17.96875 56 27.875 56 
Q 33.9375 56 38.25 53.625 
Q 42.578125 51.265625 45.40625 46.390625 
z
M 14.796875 27.296875 
Q 14.796875 17.390625 18.875 11.75 
Q 22.953125 6.109375 30.078125 6.109375 
Q 37.203125 6.109375 41.296875 11.75 
Q 45.40625 17.390625 45.40625 27.296875 
Q 45.40625 37.203125 41.296875 42.84375 
Q 37.203125 48.484375 30.078125 48.484375 
Q 22.953125 48.484375 18.875 42.84375 
Q 14.796875 37.203125 14.796875 27.296875 
z
" id="DejaVuSans-100"/>
     </defs>
     <g transform="translate(443.81375 79.787188)scale(0.14 -0.14)">
      <use xlink:href="#DejaVuSans-111"/>
      <use x="61.181641" xlink:href="#DejaVuSans-115"/>
      <use x="113.28125" xlink:href="#DejaVuSans-97"/>
      <use x="174.560547" xlink:href="#DejaVuSans-103"/>
      <use x="238.037109" xlink:href="#DejaVuSans-111"/>
      <use x="299.21875" xlink:href="#DejaVuSans-95"/>
      <use x="349.21875" xlink:href="#DejaVuSans-109"/>
      <use x="446.630859" xlink:href="#DejaVuSans-105"/>
      <use x="474.414062" xlink:href="#DejaVuSans-100"/>
     </g>
    </g>
    <g id="patch_7">
     <path d="M 404.61375 100.725937 
L 432.61375 100.725937 
L 432.61375 90.925937 
L 404.61375 90.925937 
z
" style="fill:#4bc0c0;opacity:0.5;stroke:#4bc0c0;stroke-linejoin:miter;"/>
    </g>
    <g id="text_3">
     <!-- osago_right -->
     <defs>
      <path d="M 41.109375 46.296875 
Q 39.59375 47.171875 37.8125 47.578125 
Q 36.03125 48 33.890625 48 
Q 26.265625 48 22.1875 43.046875 
Q 18.109375 38.09375 18.109375 28.8125 
L 18.109375 0 
L 9.078125 0 
L 9.078125 54.6875 
L 18.109375 54.6875 
L 18.109375 46.1875 
Q 20.953125 51.171875 25.484375 53.578125 
Q 30.03125 56 36.53125 56 
Q 37.453125 56 38.578125 55.875 
Q 39.703125 55.765625 41.0625 55.515625 
z
" id="DejaVuSans-114"/>
      <path d="M 54.890625 33.015625 
L 54.890625 0 
L 45.90625 0 
L 45.90625 32.71875 
Q 45.90625 40.484375 42.875 44.328125 
Q 39.84375 48.1875 33.796875 48.1875 
Q 26.515625 48.1875 22.3125 43.546875 
Q 18.109375 38.921875 18.109375 30.90625 
L 18.109375 0 
L 9.078125 0 
L 9.078125 75.984375 
L 18.109375 75.984375 
L 18.109375 46.1875 
Q 21.34375 51.125 25.703125 53.5625 
Q 30.078125 56 35.796875 56 
Q 45.21875 56 50.046875 50.171875 
Q 54.890625 44.34375 54.890625 33.015625 
z
" id="DejaVuSans-104"/>
      <path d="M 18.3125 70.21875 
L 18.3125 54.6875 
L 36.8125 54.6875 
L 36.8125 47.703125 
L 18.3125 47.703125 
L 18.3125 18.015625 
Q 18.3125 11.328125 20.140625 9.421875 
Q 21.96875 7.515625 27.59375 7.515625 
L 36.8125 7.515625 
L 36.8125 0 
L 27.59375 0 
Q 17.1875 0 13.234375 3.875 
Q 9.28125 7.765625 9.28125 18.015625 
L 9.28125 47.703125 
L 2.6875 47.703125 
L 2.6875 54.6875 
L 9.28125 54.6875 
L 9.28125 70.21875 
z
" id="DejaVuSans-116"/>
     </defs>
     <g transform="translate(443.81375 100.725937)scale(0.14 -0.14)">
      <use xlink:href="#DejaVuSans-111"/>
      <use x="61.181641" xlink:href="#DejaVuSans-115"/>
      <use x="113.28125" xlink:href="#DejaVuSans-97"/>
      <use x="174.560547" xlink:href="#DejaVuSans-103"/>
      <use x="238.037109" xlink:href="#DejaVuSans-111"/>
      <use x="299.21875" xlink:href="#DejaVuSans-95"/>
      <use x="349.21875" xlink:href="#DejaVuSans-114"/>
      <use x="390.332031" xlink:href="#DejaVuSans-105"/>
      <use x="418.115234" xlink:href="#DejaVuSans-103"/>
      <use x="481.591797" xlink:href="#DejaVuSans-104"/>
      <use x="544.970703" xlink:href="#DejaVuSans-116"/>
     </g>
    </g>
   </g>
  </g>
  <g id="axes_2">
   <g id="patch_8">
    <path d="M 36 525.24 
L 538.2 525.24 
L 538.2 402.93 
L 36 402.93 
z
" style="fill:none;"/>
   </g>
   <g id="patch_9">
    <path clip-path="url(#p9bd571a219)" d="M 187.021256 519.680455 
L 402.983969 519.680455 
L 402.983969 497.442273 
L 187.021256 497.442273 
z
" style="fill:#ff6384;opacity:0.5;"/>
   </g>
   <g id="patch_10">
    <path clip-path="url(#p9bd571a219)" d="M 169.081302 475.204091 
L 380.941987 475.204091 
L 380.941987 452.965909 
L 169.081302 452.965909 
z
" style="fill:#36a2eb;opacity:0.5;"/>
   </g>
   <g id="patch_11">
    <path clip-path="url(#p9bd571a219)" d="M 176.620325 430.727727 
L 375.754843 430.727727 
L 375.754843 408.489545 
L 176.620325 408.489545 
z
" style="fill:#4bc0c0;opacity:0.5;"/>
   </g>
   <g id="matplotlib.axis_1">
    <g id="xtick_1">
     <g id="line2d_4">
      <defs>
       <path d="M 0 0 
L 0 3.5 
" id="m6aa8b8bd51" style="stroke:#000000;stroke-width:0.8;"/>
      </defs>
      <g>
       <use style="stroke:#000000;stroke-width:0.8;" x="73.926026" xlink:href="#m6aa8b8bd51" y="525.24"/>
      </g>
     </g>
     <g id="text_4">
      <!-- 14.0 -->
      <defs>
       <path d="M 12.40625 8.296875 
L 28.515625 8.296875 
L 28.515625 63.921875 
L 10.984375 60.40625 
L 10.984375 69.390625 
L 28.421875 72.90625 
L 38.28125 72.90625 
L 38.28125 8.296875 
L 54.390625 8.296875 
L 54.390625 0 
L 12.40625 0 
z
" id="DejaVuSans-49"/>
       <path d="M 37.796875 64.3125 
L 12.890625 25.390625 
L 37.796875 25.390625 
z
M 35.203125 72.90625 
L 47.609375 72.90625 
L 47.609375 25.390625 
L 58.015625 25.390625 
L 58.015625 17.1875 
L 47.609375 17.1875 
L 47.609375 0 
L 37.796875 0 
L 37.796875 17.1875 
L 4.890625 17.1875 
L 4.890625 26.703125 
z
" id="DejaVuSans-52"/>
       <path d="M 10.6875 12.40625 
L 21 12.40625 
L 21 0 
L 10.6875 0 
z
" id="DejaVuSans-46"/>
       <path d="M 31.78125 66.40625 
Q 24.171875 66.40625 20.328125 58.90625 
Q 16.5 51.421875 16.5 36.375 
Q 16.5 21.390625 20.328125 13.890625 
Q 24.171875 6.390625 31.78125 6.390625 
Q 39.453125 6.390625 43.28125 13.890625 
Q 47.125 21.390625 47.125 36.375 
Q 47.125 51.421875 43.28125 58.90625 
Q 39.453125 66.40625 31.78125 66.40625 
z
M 31.78125 74.21875 
Q 44.046875 74.21875 50.515625 64.515625 
Q 56.984375 54.828125 56.984375 36.375 
Q 56.984375 17.96875 50.515625 8.265625 
Q 44.046875 -1.421875 31.78125 -1.421875 
Q 19.53125 -1.421875 13.0625 8.265625 
Q 6.59375 17.96875 6.59375 36.375 
Q 6.59375 54.828125 13.0625 64.515625 
Q 19.53125 74.21875 31.78125 74.21875 
z
" id="DejaVuSans-48"/>
      </defs>
      <g transform="translate(58.340088 542.877813)scale(0.14 -0.14)">
       <use xlink:href="#DejaVuSans-49"/>
       <use x="63.623047" xlink:href="#DejaVuSans-52"/>
       <use x="127.246094" xlink:href="#DejaVuSans-46"/>
       <use x="159.033203" xlink:href="#DejaVuSans-48"/>
      </g>
     </g>
    </g>
    <g id="xtick_2">
     <g id="line2d_5">
      <g>
       <use style="stroke:#000000;stroke-width:0.8;" x="132.72299" xlink:href="#m6aa8b8bd51" y="525.24"/>
      </g>
     </g>
     <g id="text_5">
      <!-- 14.5 -->
      <defs>
       <path d="M 10.796875 72.90625 
L 49.515625 72.90625 
L 49.515625 64.59375 
L 19.828125 64.59375 
L 19.828125 46.734375 
Q 21.96875 47.46875 24.109375 47.828125 
Q 26.265625 48.1875 28.421875 48.1875 
Q 40.625 48.1875 47.75 41.5 
Q 54.890625 34.8125 54.890625 23.390625 
Q 54.890625 11.625 47.5625 5.09375 
Q 40.234375 -1.421875 26.90625 -1.421875 
Q 22.3125 -1.421875 17.546875 -0.640625 
Q 12.796875 0.140625 7.71875 1.703125 
L 7.71875 11.625 
Q 12.109375 9.234375 16.796875 8.0625 
Q 21.484375 6.890625 26.703125 6.890625 
Q 35.15625 6.890625 40.078125 11.328125 
Q 45.015625 15.765625 45.015625 23.390625 
Q 45.015625 31 40.078125 35.4375 
Q 35.15625 39.890625 26.703125 39.890625 
Q 22.75 39.890625 18.8125 39.015625 
Q 14.890625 38.140625 10.796875 36.28125 
z
" id="DejaVuSans-53"/>
      </defs>
      <g transform="translate(117.137053 542.877813)scale(0.14 -0.14)">
       <use xlink:href="#DejaVuSans-49"/>
       <use x="63.623047" xlink:href="#DejaVuSans-52"/>
       <use x="127.246094" xlink:href="#DejaVuSans-46"/>
       <use x="159.033203" xlink:href="#DejaVuSans-53"/>
      </g>
     </g>
    </g>
    <g id="xtick_3">
     <g id="line2d_6">
      <g>
       <use style="stroke:#000000;stroke-width:0.8;" x="191.519955" xlink:href="#m6aa8b8bd51" y="525.24"/>
      </g>
     </g>
     <g id="text_6">
      <!-- 15.0 -->
      <g transform="translate(175.934017 542.877813)scale(0.14 -0.14)">
       <use xlink:href="#DejaVuSans-49"/>
       <use x="63.623047" xlink:href="#DejaVuSans-53"/>
       <use x="127.246094" xlink:href="#DejaVuSans-46"/>
       <use x="159.033203" xlink:href="#DejaVuSans-48"/>
      </g>
     </g>
    </g>
    <g id="xtick_4">
     <g id="line2d_7">
      <g>
       <use style="stroke:#000000;stroke-width:0.8;" x="250.31692" xlink:href="#m6aa8b8bd51" y="525.24"/>
      </g>
     </g>
     <g id="text_7">
      <!-- 15.5 -->
      <g transform="translate(234.730982 542.877813)scale(0.14 -0.14)">
       <use xlink:href="#DejaVuSans-49"/>
       <use x="63.623047" xlink:href="#DejaVuSans-53"/>
       <use x="127.246094" xlink:href="#DejaVuSans-46"/>
       <use x="159.033203" xlink:href="#DejaVuSans-53"/>
      </g>
     </g>
    </g>
    <g id="xtick_5">
     <g id="line2d_8">
      <g>
       <use style="stroke:#000000;stroke-width:0.8;" x="309.113884" xlink:href="#m6aa8b8bd51" y="525.24"/>
      </g>
     </g>
     <g id="text_8">
      <!-- 16.0 -->
      <defs>
       <path d="M 33.015625 40.375 
Q 26.375 40.375 22.484375 35.828125 
Q 18.609375 31.296875 18.609375 23.390625 
Q 18.609375 15.53125 22.484375 10.953125 
Q 26.375 6.390625 33.015625 6.390625 
Q 39.65625 6.390625 43.53125 10.953125 
Q 47.40625 15.53125 47.40625 23.390625 
Q 47.40625 31.296875 43.53125 35.828125 
Q 39.65625 40.375 33.015625 40.375 
z
M 52.59375 71.296875 
L 52.59375 62.3125 
Q 48.875 64.0625 45.09375 64.984375 
Q 41.3125 65.921875 37.59375 65.921875 
Q 27.828125 65.921875 22.671875 59.328125 
Q 17.53125 52.734375 16.796875 39.40625 
Q 19.671875 43.65625 24.015625 45.921875 
Q 28.375 48.1875 33.59375 48.1875 
Q 44.578125 48.1875 50.953125 41.515625 
Q 57.328125 34.859375 57.328125 23.390625 
Q 57.328125 12.15625 50.6875 5.359375 
Q 44.046875 -1.421875 33.015625 -1.421875 
Q 20.359375 -1.421875 13.671875 8.265625 
Q 6.984375 17.96875 6.984375 36.375 
Q 6.984375 53.65625 15.1875 63.9375 
Q 23.390625 74.21875 37.203125 74.21875 
Q 40.921875 74.21875 44.703125 73.484375 
Q 48.484375 72.75 52.59375 71.296875 
z
" id="DejaVuSans-54"/>
      </defs>
      <g transform="translate(293.527947 542.877813)scale(0.14 -0.14)">
       <use xlink:href="#DejaVuSans-49"/>
       <use x="63.623047" xlink:href="#DejaVuSans-54"/>
       <use x="127.246094" xlink:href="#DejaVuSans-46"/>
       <use x="159.033203" xlink:href="#DejaVuSans-48"/>
      </g>
     </g>
    </g>
    <g id="xtick_6">
     <g id="line2d_9">
      <g>
       <use style="stroke:#000000;stroke-width:0.8;" x="367.910849" xlink:href="#m6aa8b8bd51" y="525.24"/>
      </g>
     </g>
     <g id="text_9">
      <!-- 16.5 -->
      <g transform="translate(352.324911 542.877813)scale(0.14 -0.14)">
       <use xlink:href="#DejaVuSans-49"/>
       <use x="63.623047" xlink:href="#DejaVuSans-54"/>
       <use x="127.246094" xlink:href="#DejaVuSans-46"/>
       <use x="159.033203" xlink:href="#DejaVuSans-53"/>
      </g>
     </g>
    </g>
    <g id="xtick_7">
     <g id="line2d_10">
      <g>
       <use style="stroke:#000000;stroke-width:0.8;" x="426.707813" xlink:href="#m6aa8b8bd51" y="525.24"/>
      </g>
     </g>
     <g id="text_10">
      <!-- 17.0 -->
      <defs>
       <path d="M 8.203125 72.90625 
L 55.078125 72.90625 
L 55.078125 68.703125 
L 28.609375 0 
L 18.3125 0 
L 43.21875 64.59375 
L 8.203125 64.59375 
z
" id="DejaVuSans-55"/>
      </defs>
      <g transform="translate(411.121876 542.877813)scale(0.14 -0.14)">
       <use xlink:href="#DejaVuSans-49"/>
       <use x="63.623047" xlink:href="#DejaVuSans-55"/>
       <use x="127.246094" xlink:href="#DejaVuSans-46"/>
       <use x="159.033203" xlink:href="#DejaVuSans-48"/>
      </g>
     </g>
    </g>
    <g id="xtick_8">
     <g id="line2d_11">
      <g>
       <use style="stroke:#000000;stroke-width:0.8;" x="485.504778" xlink:href="#m6aa8b8bd51" y="525.24"/>
      </g>
     </g>
     <g id="text_11">
      <!-- 17.5 -->
      <g transform="translate(469.918841 542.877813)scale(0.14 -0.14)">
       <use xlink:href="#DejaVuSans-49"/>
       <use x="63.623047" xlink:href="#DejaVuSans-55"/>
       <use x="127.246094" xlink:href="#DejaVuSans-46"/>
       <use x="159.033203" xlink:href="#DejaVuSans-53"/>
      </g>
     </g>
    </g>
   </g>
   <g id="line2d_12">
    <path clip-path="url(#p9bd571a219)" d="M 295.002613 525.24 
L 295.002613 402.93 
" style="fill:none;stroke:#ff6384;stroke-dasharray:5.55,2.4;stroke-dashoffset:0;stroke-opacity:0.8;stroke-width:1.5;"/>
   </g>
   <g id="line2d_13">
    <path clip-path="url(#p9bd571a219)" d="M 275.011645 525.24 
L 275.011645 402.93 
" style="fill:none;stroke:#36a2eb;stroke-dasharray:5.55,2.4;stroke-dashoffset:0;stroke-opacity:0.8;stroke-width:1.5;"/>
   </g>
   <g id="line2d_14">
    <path clip-path="url(#p9bd571a219)" d="M 276.187584 525.24 
L 276.187584 402.93 
" style="fill:none;stroke:#4bc0c0;stroke-dasharray:5.55,2.4;stroke-dashoffset:0;stroke-opacity:0.8;stroke-width:1.5;"/>
   </g>
   <g id="patch_12">
    <path d="M 36 525.24 
L 538.2 525.24 
" style="fill:none;stroke:#000000;stroke-linecap:square;stroke-linejoin:miter;stroke-width:0.8;"/>
   </g>
  </g>
 </g>
 <defs>
  <clipPath id="pe90be8af53">
   <rect height="366.93" width="502.2" x="36" y="36"/>
  </clipPath>
  <clipPath id="p9bd571a219">
   <rect height="122.31" width="502.2" x="36" y="402.93"/>
  </clipPath>
 </defs>
</svg>
