<?xml version="1.0" encoding="utf-8" standalone="no"?>
<!DOCTYPE svg PUBLIC "-//W3C//DTD SVG 1.1//EN"
  "http://www.w3.org/Graphics/SVG/1.1/DTD/svg11.dtd">
<!-- Created with matplotlib (https://matplotlib.org/) -->
<svg height="581.789375pt" version="1.1" viewBox="0 0 574.2 581.789375" width="574.2pt" xmlns="http://www.w3.org/2000/svg" xmlns:xlink="http://www.w3.org/1999/xlink">
 <defs>
  <style type="text/css">
*{stroke-linecap:butt;stroke-linejoin:round;}
  </style>
 </defs>
 <g id="figure_1">
  <g id="patch_1">
   <path d="M 0 581.789375 
L 574.2 581.789375 
L 574.2 0 
L 0 0 
z
" style="fill:none;"/>
  </g>
  <g id="axes_1">
   <g id="patch_2">
    <path d="M 36 402.93 
L 538.2 402.93 
L 538.2 36 
L 36 36 
z
" style="fill:none;"/>
   </g>
   <g id="PolyCollection_1">
    <defs>
     <path d="M 58.827273 -195.538011 
L 58.827273 -195.643935 
L 63.076528 -195.683877 
L 67.325784 -195.737573 
L 71.57504 -195.809259 
L 75.824295 -195.904295 
L 80.073551 -196.02941 
L 84.322807 -196.192971 
L 88.572062 -196.405291 
L 92.821318 -196.678964 
L 97.070574 -197.029227 
L 101.319829 -197.474331 
L 105.569085 -198.035928 
L 109.818341 -198.739433 
L 114.067596 -199.614366 
L 118.316852 -200.694631 
L 122.566108 -202.018716 
L 126.815363 -203.629781 
L 131.064619 -205.575587 
L 135.313875 -207.908256 
L 139.56313 -210.683796 
L 143.812386 -213.961394 
L 148.061642 -217.802413 
L 152.310897 -222.269108 
L 156.560153 -227.423024 
L 160.809409 -233.323105 
L 165.058664 -240.023513 
L 169.30792 -247.571214 
L 173.557176 -256.003381 
L 177.806431 -265.344684 
L 182.055687 -275.604585 
L 186.304943 -286.774726 
L 190.554198 -298.826544 
L 194.803454 -311.70926 
L 199.05271 -325.348352 
L 203.301965 -339.644654 
L 207.551221 -354.474199 
L 211.800477 -369.688888 
L 216.049732 -385.118055 
L 220.298988 -400.570957 
L 224.548244 -415.840177 
L 228.797499 -430.705868 
L 233.046755 -444.94076 
L 237.296011 -458.315763 
L 241.545267 -470.605985 
L 245.794522 -481.596965 
L 250.043778 -491.090855 
L 254.293034 -498.912335 
L 258.542289 -504.913982 
L 262.791545 -508.980898 
L 267.040801 -511.03436 
L 271.290056 -511.03436 
L 275.539312 -508.980898 
L 279.788568 -504.913982 
L 284.037823 -498.912335 
L 288.287079 -491.090855 
L 292.536335 -481.596965 
L 296.78559 -470.605985 
L 301.034846 -458.315763 
L 305.284102 -444.94076 
L 309.533357 -430.705868 
L 313.782613 -415.840177 
L 318.031869 -400.570957 
L 322.281124 -385.118055 
L 326.53038 -369.688888 
L 330.779636 -354.474199 
L 335.028891 -339.644654 
L 339.278147 -325.348352 
L 343.527403 -311.70926 
L 347.776658 -298.826544 
L 352.025914 -286.774726 
L 356.27517 -275.604585 
L 360.524425 -265.344684 
L 364.773681 -256.003381 
L 369.022937 -247.571214 
L 373.272192 -240.023513 
L 377.521448 -233.323105 
L 381.770704 -227.423024 
L 386.019959 -222.269108 
L 390.269215 -217.802413 
L 394.518471 -213.961394 
L 398.767726 -210.683796 
L 403.016982 -207.908256 
L 407.266238 -205.575587 
L 411.515493 -203.629781 
L 415.764749 -202.018716 
L 420.014005 -200.694631 
L 424.26326 -199.614366 
L 428.512516 -198.739433 
L 432.761772 -198.035928 
L 437.011027 -197.474331 
L 441.260283 -197.029227 
L 445.509539 -196.678964 
L 449.758794 -196.405291 
L 454.00805 -196.192971 
L 458.257306 -196.02941 
L 462.506561 -195.904295 
L 466.755817 -195.809259 
L 471.005073 -195.737573 
L 475.254328 -195.683877 
L 479.503584 -195.643935 
L 479.503584 -195.538011 
L 479.503584 -195.538011 
L 475.254328 -195.538011 
L 471.005073 -195.538011 
L 466.755817 -195.538011 
L 462.506561 -195.538011 
L 458.257306 -195.538011 
L 454.00805 -195.538011 
L 449.758794 -195.538011 
L 445.509539 -195.538011 
L 441.260283 -195.538011 
L 437.011027 -195.538011 
L 432.761772 -195.538011 
L 428.512516 -195.538011 
L 424.26326 -195.538011 
L 420.014005 -195.538011 
L 415.764749 -195.538011 
L 411.515493 -195.538011 
L 407.266238 -195.538011 
L 403.016982 -195.538011 
L 398.767726 -195.538011 
L 394.518471 -195.538011 
L 390.269215 -195.538011 
L 386.019959 -195.538011 
L 381.770704 -195.538011 
L 377.521448 -195.538011 
L 373.272192 -195.538011 
L 369.022937 -195.538011 
L 364.773681 -195.538011 
L 360.524425 -195.538011 
L 356.27517 -195.538011 
L 352.025914 -195.538011 
L 347.776658 -195.538011 
L 343.527403 -195.538011 
L 339.278147 -195.538011 
L 335.028891 -195.538011 
L 330.779636 -195.538011 
L 326.53038 -195.538011 
L 322.281124 -195.538011 
L 318.031869 -195.538011 
L 313.782613 -195.538011 
L 309.533357 -195.538011 
L 305.284102 -195.538011 
L 301.034846 -195.538011 
L 296.78559 -195.538011 
L 292.536335 -195.538011 
L 288.287079 -195.538011 
L 284.037823 -195.538011 
L 279.788568 -195.538011 
L 275.539312 -195.538011 
L 271.290056 -195.538011 
L 267.040801 -195.538011 
L 262.791545 -195.538011 
L 258.542289 -195.538011 
L 254.293034 -195.538011 
L 250.043778 -195.538011 
L 245.794522 -195.538011 
L 241.545267 -195.538011 
L 237.296011 -195.538011 
L 233.046755 -195.538011 
L 228.797499 -195.538011 
L 224.548244 -195.538011 
L 220.298988 -195.538011 
L 216.049732 -195.538011 
L 211.800477 -195.538011 
L 207.551221 -195.538011 
L 203.301965 -195.538011 
L 199.05271 -195.538011 
L 194.803454 -195.538011 
L 190.554198 -195.538011 
L 186.304943 -195.538011 
L 182.055687 -195.538011 
L 177.806431 -195.538011 
L 173.557176 -195.538011 
L 169.30792 -195.538011 
L 165.058664 -195.538011 
L 160.809409 -195.538011 
L 156.560153 -195.538011 
L 152.310897 -195.538011 
L 148.061642 -195.538011 
L 143.812386 -195.538011 
L 139.56313 -195.538011 
L 135.313875 -195.538011 
L 131.064619 -195.538011 
L 126.815363 -195.538011 
L 122.566108 -195.538011 
L 118.316852 -195.538011 
L 114.067596 -195.538011 
L 109.818341 -195.538011 
L 105.569085 -195.538011 
L 101.319829 -195.538011 
L 97.070574 -195.538011 
L 92.821318 -195.538011 
L 88.572062 -195.538011 
L 84.322807 -195.538011 
L 80.073551 -195.538011 
L 75.824295 -195.538011 
L 71.57504 -195.538011 
L 67.325784 -195.538011 
L 63.076528 -195.538011 
L 58.827273 -195.538011 
z
" id="me01c6419cf" style="stroke:#ff6384;stroke-opacity:0.5;"/>
    </defs>
    <g clip-path="url(#p16367c09b7)">
     <use style="fill:#ff6384;fill-opacity:0.5;stroke:#ff6384;stroke-opacity:0.5;" x="0" xlink:href="#me01c6419cf" y="581.789375"/>
    </g>
   </g>
   <g id="PolyCollection_2">
    <defs>
     <path d="M 83.553405 -195.538011 
L 83.553405 -195.644797 
L 87.76835 -195.685064 
L 91.983294 -195.739198 
L 96.198238 -195.811467 
L 100.413182 -195.907277 
L 104.628126 -196.03341 
L 108.84307 -196.198303 
L 113.058015 -196.412351 
L 117.272959 -196.688252 
L 121.487903 -197.041366 
L 125.702847 -197.490094 
L 129.917791 -198.056262 
L 134.132736 -198.765494 
L 138.34768 -199.647549 
L 142.562624 -200.736608 
L 146.777568 -202.071472 
L 150.992512 -203.695651 
L 155.207457 -205.657298 
L 159.422401 -208.008955 
L 163.637345 -210.807089 
L 167.852289 -214.111368 
L 172.067233 -217.983655 
L 176.282177 -222.486711 
L 180.497122 -227.682582 
L 184.712066 -233.630692 
L 188.92701 -240.385644 
L 193.141954 -247.994787 
L 197.356898 -256.495595 
L 201.571843 -265.912941 
L 205.786787 -276.256362 
L 210.001731 -287.517432 
L 214.216675 -299.667357 
L 218.431619 -312.654944 
L 222.646564 -326.405064 
L 226.861508 -340.817745 
L 231.076452 -355.768009 
L 235.291396 -371.106552 
L 239.50634 -386.661319 
L 243.721285 -402.240015 
L 247.936229 -417.633532 
L 252.151173 -432.620237 
L 256.366117 -446.971007 
L 260.581061 -460.454888 
L 264.796005 -472.845158 
L 269.01095 -483.925609 
L 273.225894 -493.496784 
L 277.440838 -501.381934 
L 281.655782 -507.432437 
L 285.870726 -511.532459 
L 290.085671 -513.602638 
L 294.300615 -513.602638 
L 298.515559 -511.532459 
L 302.730503 -507.432437 
L 306.945447 -501.381934 
L 311.160392 -493.496784 
L 315.375336 -483.925609 
L 319.59028 -472.845158 
L 323.805224 -460.454888 
L 328.020168 -446.971007 
L 332.235112 -432.620237 
L 336.450057 -417.633532 
L 340.665001 -402.240015 
L 344.879945 -386.661319 
L 349.094889 -371.106552 
L 353.309833 -355.768009 
L 357.524778 -340.817745 
L 361.739722 -326.405064 
L 365.954666 -312.654944 
L 370.16961 -299.667357 
L 374.384554 -287.517432 
L 378.599499 -276.256362 
L 382.814443 -265.912941 
L 387.029387 -256.495595 
L 391.244331 -247.994787 
L 395.459275 -240.385644 
L 399.674219 -233.630692 
L 403.889164 -227.682582 
L 408.104108 -222.486711 
L 412.319052 -217.983655 
L 416.533996 -214.111368 
L 420.74894 -210.807089 
L 424.963885 -208.008955 
L 429.178829 -205.657298 
L 433.393773 -203.695651 
L 437.608717 -202.071472 
L 441.823661 -200.736608 
L 446.038606 -199.647549 
L 450.25355 -198.765494 
L 454.468494 -198.056262 
L 458.683438 -197.490094 
L 462.898382 -197.041366 
L 467.113326 -196.688252 
L 471.328271 -196.412351 
L 475.543215 -196.198303 
L 479.758159 -196.03341 
L 483.973103 -195.907277 
L 488.188047 -195.811467 
L 492.402992 -195.739198 
L 496.617936 -195.685064 
L 500.83288 -195.644797 
L 500.83288 -195.538011 
L 500.83288 -195.538011 
L 496.617936 -195.538011 
L 492.402992 -195.538011 
L 488.188047 -195.538011 
L 483.973103 -195.538011 
L 479.758159 -195.538011 
L 475.543215 -195.538011 
L 471.328271 -195.538011 
L 467.113326 -195.538011 
L 462.898382 -195.538011 
L 458.683438 -195.538011 
L 454.468494 -195.538011 
L 450.25355 -195.538011 
L 446.038606 -195.538011 
L 441.823661 -195.538011 
L 437.608717 -195.538011 
L 433.393773 -195.538011 
L 429.178829 -195.538011 
L 424.963885 -195.538011 
L 420.74894 -195.538011 
L 416.533996 -195.538011 
L 412.319052 -195.538011 
L 408.104108 -195.538011 
L 403.889164 -195.538011 
L 399.674219 -195.538011 
L 395.459275 -195.538011 
L 391.244331 -195.538011 
L 387.029387 -195.538011 
L 382.814443 -195.538011 
L 378.599499 -195.538011 
L 374.384554 -195.538011 
L 370.16961 -195.538011 
L 365.954666 -195.538011 
L 361.739722 -195.538011 
L 357.524778 -195.538011 
L 353.309833 -195.538011 
L 349.094889 -195.538011 
L 344.879945 -195.538011 
L 340.665001 -195.538011 
L 336.450057 -195.538011 
L 332.235112 -195.538011 
L 328.020168 -195.538011 
L 323.805224 -195.538011 
L 319.59028 -195.538011 
L 315.375336 -195.538011 
L 311.160392 -195.538011 
L 306.945447 -195.538011 
L 302.730503 -195.538011 
L 298.515559 -195.538011 
L 294.300615 -195.538011 
L 290.085671 -195.538011 
L 285.870726 -195.538011 
L 281.655782 -195.538011 
L 277.440838 -195.538011 
L 273.225894 -195.538011 
L 269.01095 -195.538011 
L 264.796005 -195.538011 
L 260.581061 -195.538011 
L 256.366117 -195.538011 
L 252.151173 -195.538011 
L 247.936229 -195.538011 
L 243.721285 -195.538011 
L 239.50634 -195.538011 
L 235.291396 -195.538011 
L 231.076452 -195.538011 
L 226.861508 -195.538011 
L 222.646564 -195.538011 
L 218.431619 -195.538011 
L 214.216675 -195.538011 
L 210.001731 -195.538011 
L 205.786787 -195.538011 
L 201.571843 -195.538011 
L 197.356898 -195.538011 
L 193.141954 -195.538011 
L 188.92701 -195.538011 
L 184.712066 -195.538011 
L 180.497122 -195.538011 
L 176.282177 -195.538011 
L 172.067233 -195.538011 
L 167.852289 -195.538011 
L 163.637345 -195.538011 
L 159.422401 -195.538011 
L 155.207457 -195.538011 
L 150.992512 -195.538011 
L 146.777568 -195.538011 
L 142.562624 -195.538011 
L 138.34768 -195.538011 
L 134.132736 -195.538011 
L 129.917791 -195.538011 
L 125.702847 -195.538011 
L 121.487903 -195.538011 
L 117.272959 -195.538011 
L 113.058015 -195.538011 
L 108.84307 -195.538011 
L 104.628126 -195.538011 
L 100.413182 -195.538011 
L 96.198238 -195.538011 
L 91.983294 -195.538011 
L 87.76835 -195.538011 
L 83.553405 -195.538011 
z
" id="mef794daf6f" style="stroke:#36a2eb;stroke-opacity:0.5;"/>
    </defs>
    <g clip-path="url(#p16367c09b7)">
     <use style="fill:#36a2eb;fill-opacity:0.5;stroke:#36a2eb;stroke-opacity:0.5;" x="0" xlink:href="#mef794daf6f" y="581.789375"/>
    </g>
   </g>
   <g id="PolyCollection_3">
    <defs>
     <path d="M 117.492957 -195.538011 
L 117.492957 -195.650004 
L 121.511944 -195.692234 
L 125.530932 -195.749007 
L 129.549919 -195.8248 
L 133.568907 -195.925281 
L 137.587895 -196.057565 
L 141.606882 -196.230497 
L 145.62587 -196.454982 
L 149.644857 -196.744335 
L 153.663845 -197.114666 
L 157.682832 -197.585273 
L 161.70182 -198.179047 
L 165.720808 -198.922859 
L 169.739795 -199.847921 
L 173.758783 -200.990079 
L 177.77777 -202.390029 
L 181.796758 -204.093399 
L 185.815746 -206.150691 
L 189.834733 -208.617009 
L 193.853721 -211.551575 
L 197.872708 -215.016962 
L 201.891696 -219.078053 
L 205.910683 -223.800667 
L 209.929671 -229.249878 
L 213.948659 -235.488004 
L 217.967646 -242.572312 
L 221.986634 -250.552459 
L 226.005621 -259.467747 
L 230.024609 -269.344261 
L 234.043597 -280.192004 
L 238.062584 -292.002137 
L 242.081572 -304.744465 
L 246.100559 -318.365297 
L 250.119547 -332.785841 
L 254.138534 -347.901251 
L 258.157522 -363.580456 
L 262.17651 -379.666871 
L 266.195497 -395.980052 
L 270.214485 -412.31833 
L 274.233472 -428.4624 
L 278.25246 -444.179822 
L 282.271447 -459.230303 
L 286.290435 -473.371627 
L 290.309423 -486.366018 
L 294.32841 -497.986726 
L 298.347398 -508.02457 
L 302.366385 -516.294181 
L 306.385373 -522.639693 
L 310.404361 -526.939623 
L 314.423348 -529.110739 
L 318.442336 -529.110739 
L 322.461323 -526.939623 
L 326.480311 -522.639693 
L 330.499298 -516.294181 
L 334.518286 -508.02457 
L 338.537274 -497.986726 
L 342.556261 -486.366018 
L 346.575249 -473.371627 
L 350.594236 -459.230303 
L 354.613224 -444.179822 
L 358.632212 -428.4624 
L 362.651199 -412.31833 
L 366.670187 -395.980052 
L 370.689174 -379.666871 
L 374.708162 -363.580456 
L 378.727149 -347.901251 
L 382.746137 -332.785841 
L 386.765125 -318.365297 
L 390.784112 -304.744465 
L 394.8031 -292.002137 
L 398.822087 -280.192004 
L 402.841075 -269.344261 
L 406.860063 -259.467747 
L 410.87905 -250.552459 
L 414.898038 -242.572312 
L 418.917025 -235.488004 
L 422.936013 -229.249878 
L 426.955 -223.800667 
L 430.973988 -219.078053 
L 434.992976 -215.016962 
L 439.011963 -211.551575 
L 443.030951 -208.617009 
L 447.049938 -206.150691 
L 451.068926 -204.093399 
L 455.087914 -202.390029 
L 459.106901 -200.990079 
L 463.125889 -199.847921 
L 467.144876 -198.922859 
L 471.163864 -198.179047 
L 475.182851 -197.585273 
L 479.201839 -197.114666 
L 483.220827 -196.744335 
L 487.239814 -196.454982 
L 491.258802 -196.230497 
L 495.277789 -196.057565 
L 499.296777 -195.925281 
L 503.315765 -195.8248 
L 507.334752 -195.749007 
L 511.35374 -195.692234 
L 515.372727 -195.650004 
L 515.372727 -195.538011 
L 515.372727 -195.538011 
L 511.35374 -195.538011 
L 507.334752 -195.538011 
L 503.315765 -195.538011 
L 499.296777 -195.538011 
L 495.277789 -195.538011 
L 491.258802 -195.538011 
L 487.239814 -195.538011 
L 483.220827 -195.538011 
L 479.201839 -195.538011 
L 475.182851 -195.538011 
L 471.163864 -195.538011 
L 467.144876 -195.538011 
L 463.125889 -195.538011 
L 459.106901 -195.538011 
L 455.087914 -195.538011 
L 451.068926 -195.538011 
L 447.049938 -195.538011 
L 443.030951 -195.538011 
L 439.011963 -195.538011 
L 434.992976 -195.538011 
L 430.973988 -195.538011 
L 426.955 -195.538011 
L 422.936013 -195.538011 
L 418.917025 -195.538011 
L 414.898038 -195.538011 
L 410.87905 -195.538011 
L 406.860063 -195.538011 
L 402.841075 -195.538011 
L 398.822087 -195.538011 
L 394.8031 -195.538011 
L 390.784112 -195.538011 
L 386.765125 -195.538011 
L 382.746137 -195.538011 
L 378.727149 -195.538011 
L 374.708162 -195.538011 
L 370.689174 -195.538011 
L 366.670187 -195.538011 
L 362.651199 -195.538011 
L 358.632212 -195.538011 
L 354.613224 -195.538011 
L 350.594236 -195.538011 
L 346.575249 -195.538011 
L 342.556261 -195.538011 
L 338.537274 -195.538011 
L 334.518286 -195.538011 
L 330.499298 -195.538011 
L 326.480311 -195.538011 
L 322.461323 -195.538011 
L 318.442336 -195.538011 
L 314.423348 -195.538011 
L 310.404361 -195.538011 
L 306.385373 -195.538011 
L 302.366385 -195.538011 
L 298.347398 -195.538011 
L 294.32841 -195.538011 
L 290.309423 -195.538011 
L 286.290435 -195.538011 
L 282.271447 -195.538011 
L 278.25246 -195.538011 
L 274.233472 -195.538011 
L 270.214485 -195.538011 
L 266.195497 -195.538011 
L 262.17651 -195.538011 
L 258.157522 -195.538011 
L 254.138534 -195.538011 
L 250.119547 -195.538011 
L 246.100559 -195.538011 
L 242.081572 -195.538011 
L 238.062584 -195.538011 
L 234.043597 -195.538011 
L 230.024609 -195.538011 
L 226.005621 -195.538011 
L 221.986634 -195.538011 
L 217.967646 -195.538011 
L 213.948659 -195.538011 
L 209.929671 -195.538011 
L 205.910683 -195.538011 
L 201.891696 -195.538011 
L 197.872708 -195.538011 
L 193.853721 -195.538011 
L 189.834733 -195.538011 
L 185.815746 -195.538011 
L 181.796758 -195.538011 
L 177.77777 -195.538011 
L 173.758783 -195.538011 
L 169.739795 -195.538011 
L 165.720808 -195.538011 
L 161.70182 -195.538011 
L 157.682832 -195.538011 
L 153.663845 -195.538011 
L 149.644857 -195.538011 
L 145.62587 -195.538011 
L 141.606882 -195.538011 
L 137.587895 -195.538011 
L 133.568907 -195.538011 
L 129.549919 -195.538011 
L 125.530932 -195.538011 
L 121.511944 -195.538011 
L 117.492957 -195.538011 
z
" id="m0b92755016" style="stroke:#4bc0c0;stroke-opacity:0.5;"/>
    </defs>
    <g clip-path="url(#p16367c09b7)">
     <use style="fill:#4bc0c0;fill-opacity:0.5;stroke:#4bc0c0;stroke-opacity:0.5;" x="0" xlink:href="#m0b92755016" y="581.789375"/>
    </g>
   </g>
   <g id="line2d_1">
    <path clip-path="url(#p16367c09b7)" d="M 58.827273 386.14544 
L 63.076528 386.105498 
L 67.325784 386.051802 
L 71.57504 385.980116 
L 75.824295 385.88508 
L 80.073551 385.759965 
L 84.322807 385.596404 
L 88.572062 385.384084 
L 92.821318 385.110411 
L 97.070574 384.760148 
L 101.319829 384.315044 
L 105.569085 383.753447 
L 109.818341 383.049942 
L 114.067596 382.175009 
L 118.316852 381.094744 
L 122.566108 379.770659 
L 126.815363 378.159594 
L 131.064619 376.213788 
L 135.313875 373.881119 
L 139.56313 371.105579 
L 143.812386 367.827981 
L 148.061642 363.986962 
L 152.310897 359.520267 
L 156.560153 354.366351 
L 160.809409 348.46627 
L 165.058664 341.765862 
L 169.30792 334.218161 
L 173.557176 325.785994 
L 177.806431 316.444691 
L 182.055687 306.18479 
L 186.304943 295.014649 
L 190.554198 282.962831 
L 194.803454 270.080115 
L 199.05271 256.441023 
L 203.301965 242.144721 
L 207.551221 227.315176 
L 211.800477 212.100487 
L 216.049732 196.67132 
L 220.298988 181.218418 
L 224.548244 165.949198 
L 228.797499 151.083507 
L 233.046755 136.848615 
L 237.296011 123.473612 
L 241.545267 111.18339 
L 245.794522 100.19241 
L 250.043778 90.69852 
L 254.293034 82.87704 
L 258.542289 76.875393 
L 262.791545 72.808477 
L 267.040801 70.755015 
L 271.290056 70.755015 
L 275.539312 72.808477 
L 279.788568 76.875393 
L 284.037823 82.87704 
L 288.287079 90.69852 
L 292.536335 100.19241 
L 296.78559 111.18339 
L 301.034846 123.473612 
L 305.284102 136.848615 
L 309.533357 151.083507 
L 313.782613 165.949198 
L 318.031869 181.218418 
L 322.281124 196.67132 
L 326.53038 212.100487 
L 330.779636 227.315176 
L 335.028891 242.144721 
L 339.278147 256.441023 
L 343.527403 270.080115 
L 347.776658 282.962831 
L 352.025914 295.014649 
L 356.27517 306.18479 
L 360.524425 316.444691 
L 364.773681 325.785994 
L 369.022937 334.218161 
L 373.272192 341.765862 
L 377.521448 348.46627 
L 381.770704 354.366351 
L 386.019959 359.520267 
L 390.269215 363.986962 
L 394.518471 367.827981 
L 398.767726 371.105579 
L 403.016982 373.881119 
L 407.266238 376.213788 
L 411.515493 378.159594 
L 415.764749 379.770659 
L 420.014005 381.094744 
L 424.26326 382.175009 
L 428.512516 383.049942 
L 432.761772 383.753447 
L 437.011027 384.315044 
L 441.260283 384.760148 
L 445.509539 385.110411 
L 449.758794 385.384084 
L 454.00805 385.596404 
L 458.257306 385.759965 
L 462.506561 385.88508 
L 466.755817 385.980116 
L 471.005073 386.051802 
L 475.254328 386.105498 
L 479.503584 386.14544 
" style="fill:none;stroke:#ff6384;stroke-linecap:square;"/>
   </g>
   <g id="line2d_2">
    <path clip-path="url(#p16367c09b7)" d="M 83.553405 386.144578 
L 87.76835 386.104311 
L 91.983294 386.050177 
L 96.198238 385.977908 
L 100.413182 385.882098 
L 104.628126 385.755965 
L 108.84307 385.591072 
L 113.058015 385.377024 
L 117.272959 385.101123 
L 121.487903 384.748009 
L 125.702847 384.299281 
L 129.917791 383.733113 
L 134.132736 383.023881 
L 138.34768 382.141826 
L 142.562624 381.052767 
L 146.777568 379.717903 
L 150.992512 378.093724 
L 155.207457 376.132077 
L 159.422401 373.78042 
L 163.637345 370.982286 
L 167.852289 367.678007 
L 172.067233 363.80572 
L 176.282177 359.302664 
L 180.497122 354.106793 
L 184.712066 348.158683 
L 188.92701 341.403731 
L 193.141954 333.794588 
L 197.356898 325.29378 
L 201.571843 315.876434 
L 205.786787 305.533013 
L 210.001731 294.271943 
L 214.216675 282.122018 
L 218.431619 269.134431 
L 222.646564 255.384311 
L 226.861508 240.97163 
L 231.076452 226.021366 
L 235.291396 210.682823 
L 239.50634 195.128056 
L 243.721285 179.54936 
L 247.936229 164.155843 
L 252.151173 149.169138 
L 256.366117 134.818368 
L 260.581061 121.334487 
L 264.796005 108.944217 
L 269.01095 97.863766 
L 273.225894 88.292591 
L 277.440838 80.407441 
L 281.655782 74.356938 
L 285.870726 70.256916 
L 290.085671 68.186737 
L 294.300615 68.186737 
L 298.515559 70.256916 
L 302.730503 74.356938 
L 306.945447 80.407441 
L 311.160392 88.292591 
L 315.375336 97.863766 
L 319.59028 108.944217 
L 323.805224 121.334487 
L 328.020168 134.818368 
L 332.235112 149.169138 
L 336.450057 164.155843 
L 340.665001 179.54936 
L 344.879945 195.128056 
L 349.094889 210.682823 
L 353.309833 226.021366 
L 357.524778 240.97163 
L 361.739722 255.384311 
L 365.954666 269.134431 
L 370.16961 282.122018 
L 374.384554 294.271943 
L 378.599499 305.533013 
L 382.814443 315.876434 
L 387.029387 325.29378 
L 391.244331 333.794588 
L 395.459275 341.403731 
L 399.674219 348.158683 
L 403.889164 354.106793 
L 408.104108 359.302664 
L 412.319052 363.80572 
L 416.533996 367.678007 
L 420.74894 370.982286 
L 424.963885 373.78042 
L 429.178829 376.132077 
L 433.393773 378.093724 
L 437.608717 379.717903 
L 441.823661 381.052767 
L 446.038606 382.141826 
L 450.25355 383.023881 
L 454.468494 383.733113 
L 458.683438 384.299281 
L 462.898382 384.748009 
L 467.113326 385.101123 
L 471.328271 385.377024 
L 475.543215 385.591072 
L 479.758159 385.755965 
L 483.973103 385.882098 
L 488.188047 385.977908 
L 492.402992 386.050177 
L 496.617936 386.104311 
L 500.83288 386.144578 
" style="fill:none;stroke:#36a2eb;stroke-linecap:square;"/>
   </g>
   <g id="line2d_3">
    <path clip-path="url(#p16367c09b7)" d="M 117.492957 386.139371 
L 121.511944 386.097141 
L 125.530932 386.040368 
L 129.549919 385.964575 
L 133.568907 385.864094 
L 137.587895 385.73181 
L 141.606882 385.558878 
L 145.62587 385.334393 
L 149.644857 385.04504 
L 153.663845 384.674709 
L 157.682832 384.204102 
L 161.70182 383.610328 
L 165.720808 382.866516 
L 169.739795 381.941454 
L 173.758783 380.799296 
L 177.77777 379.399346 
L 181.796758 377.695976 
L 185.815746 375.638684 
L 189.834733 373.172366 
L 193.853721 370.2378 
L 197.872708 366.772413 
L 201.891696 362.711322 
L 205.910683 357.988708 
L 209.929671 352.539497 
L 213.948659 346.301371 
L 217.967646 339.217063 
L 221.986634 331.236916 
L 226.005621 322.321628 
L 230.024609 312.445114 
L 234.043597 301.597371 
L 238.062584 289.787238 
L 242.081572 277.04491 
L 246.100559 263.424078 
L 250.119547 249.003534 
L 254.138534 233.888124 
L 258.157522 218.208919 
L 262.17651 202.122504 
L 266.195497 185.809323 
L 270.214485 169.471045 
L 274.233472 153.326975 
L 278.25246 137.609553 
L 282.271447 122.559072 
L 286.290435 108.417748 
L 290.309423 95.423357 
L 294.32841 83.802649 
L 298.347398 73.764805 
L 302.366385 65.495194 
L 306.385373 59.149682 
L 310.404361 54.849752 
L 314.423348 52.678636 
L 318.442336 52.678636 
L 322.461323 54.849752 
L 326.480311 59.149682 
L 330.499298 65.495194 
L 334.518286 73.764805 
L 338.537274 83.802649 
L 342.556261 95.423357 
L 346.575249 108.417748 
L 350.594236 122.559072 
L 354.613224 137.609553 
L 358.632212 153.326975 
L 362.651199 169.471045 
L 366.670187 185.809323 
L 370.689174 202.122504 
L 374.708162 218.208919 
L 378.727149 233.888124 
L 382.746137 249.003534 
L 386.765125 263.424078 
L 390.784112 277.04491 
L 394.8031 289.787238 
L 398.822087 301.597371 
L 402.841075 312.445114 
L 406.860063 322.321628 
L 410.87905 331.236916 
L 414.898038 339.217063 
L 418.917025 346.301371 
L 422.936013 352.539497 
L 426.955 357.988708 
L 430.973988 362.711322 
L 434.992976 366.772413 
L 439.011963 370.2378 
L 443.030951 373.172366 
L 447.049938 375.638684 
L 451.068926 377.695976 
L 455.087914 379.399346 
L 459.106901 380.799296 
L 463.125889 381.941454 
L 467.144876 382.866516 
L 471.163864 383.610328 
L 475.182851 384.204102 
L 479.201839 384.674709 
L 483.220827 385.04504 
L 487.239814 385.334393 
L 491.258802 385.558878 
L 495.277789 385.73181 
L 499.296777 385.864094 
L 503.315765 385.964575 
L 507.334752 386.040368 
L 511.35374 386.097141 
L 515.372727 386.139371 
" style="fill:none;stroke:#4bc0c0;stroke-linecap:square;"/>
   </g>
   <g id="patch_3">
    <path d="M 36 402.93 
L 538.2 402.93 
" style="fill:none;stroke:#000000;stroke-linecap:square;stroke-linejoin:miter;stroke-width:0.8;"/>
   </g>
   <g id="legend_1">
    <g id="patch_4">
     <path d="M 401.81375 109.626875 
L 528.4 109.626875 
Q 531.2 109.626875 531.2 106.826875 
L 531.2 45.8 
Q 531.2 43 528.4 43 
L 401.81375 43 
Q 399.01375 43 399.01375 45.8 
L 399.01375 106.826875 
Q 399.01375 109.626875 401.81375 109.626875 
z
" style="fill:#ffffff;opacity:0.8;stroke:#cccccc;stroke-linejoin:miter;"/>
    </g>
    <g id="patch_5">
     <path d="M 404.61375 59.237813 
L 432.61375 59.237813 
L 432.61375 49.437813 
L 404.61375 49.437813 
z
" style="fill:#ff6384;opacity:0.5;stroke:#ff6384;stroke-linejoin:miter;"/>
    </g>
    <g id="text_1">
     <!-- base -->
     <defs>
      <path d="M 48.6875 27.296875 
Q 48.6875 37.203125 44.609375 42.84375 
Q 40.53125 48.484375 33.40625 48.484375 
Q 26.265625 48.484375 22.1875 42.84375 
Q 18.109375 37.203125 18.109375 27.296875 
Q 18.109375 17.390625 22.1875 11.75 
Q 26.265625 6.109375 33.40625 6.109375 
Q 40.53125 6.109375 44.609375 11.75 
Q 48.6875 17.390625 48.6875 27.296875 
z
M 18.109375 46.390625 
Q 20.953125 51.265625 25.265625 53.625 
Q 29.59375 56 35.59375 56 
Q 45.5625 56 51.78125 48.09375 
Q 58.015625 40.1875 58.015625 27.296875 
Q 58.015625 14.40625 51.78125 6.484375 
Q 45.5625 -1.421875 35.59375 -1.421875 
Q 29.59375 -1.421875 25.265625 0.953125 
Q 20.953125 3.328125 18.109375 8.203125 
L 18.109375 0 
L 9.078125 0 
L 9.078125 75.984375 
L 18.109375 75.984375 
z
" id="DejaVuSans-98"/>
      <path d="M 34.28125 27.484375 
Q 23.390625 27.484375 19.1875 25 
Q 14.984375 22.515625 14.984375 16.5 
Q 14.984375 11.71875 18.140625 8.90625 
Q 21.296875 6.109375 26.703125 6.109375 
Q 34.1875 6.109375 38.703125 11.40625 
Q 43.21875 16.703125 43.21875 25.484375 
L 43.21875 27.484375 
z
M 52.203125 31.203125 
L 52.203125 0 
L 43.21875 0 
L 43.21875 8.296875 
Q 40.140625 3.328125 35.546875 0.953125 
Q 30.953125 -1.421875 24.3125 -1.421875 
Q 15.921875 -1.421875 10.953125 3.296875 
Q 6 8.015625 6 15.921875 
Q 6 25.140625 12.171875 29.828125 
Q 18.359375 34.515625 30.609375 34.515625 
L 43.21875 34.515625 
L 43.21875 35.40625 
Q 43.21875 41.609375 39.140625 45 
Q 35.0625 48.390625 27.6875 48.390625 
Q 23 48.390625 18.546875 47.265625 
Q 14.109375 46.140625 10.015625 43.890625 
L 10.015625 52.203125 
Q 14.9375 54.109375 19.578125 55.046875 
Q 24.21875 56 28.609375 56 
Q 40.484375 56 46.34375 49.84375 
Q 52.203125 43.703125 52.203125 31.203125 
z
" id="DejaVuSans-97"/>
      <path d="M 44.28125 53.078125 
L 44.28125 44.578125 
Q 40.484375 46.53125 36.375 47.5 
Q 32.28125 48.484375 27.875 48.484375 
Q 21.1875 48.484375 17.84375 46.4375 
Q 14.5 44.390625 14.5 40.28125 
Q 14.5 37.15625 16.890625 35.375 
Q 19.28125 33.59375 26.515625 31.984375 
L 29.59375 31.296875 
Q 39.15625 29.25 43.1875 25.515625 
Q 47.21875 21.78125 47.21875 15.09375 
Q 47.21875 7.46875 41.1875 3.015625 
Q 35.15625 -1.421875 24.609375 -1.421875 
Q 20.21875 -1.421875 15.453125 -0.5625 
Q 10.6875 0.296875 5.421875 2 
L 5.421875 11.28125 
Q 10.40625 8.6875 15.234375 7.390625 
Q 20.0625 6.109375 24.8125 6.109375 
Q 31.15625 6.109375 34.5625 8.28125 
Q 37.984375 10.453125 37.984375 14.40625 
Q 37.984375 18.0625 35.515625 20.015625 
Q 33.0625 21.96875 24.703125 23.78125 
L 21.578125 24.515625 
Q 13.234375 26.265625 9.515625 29.90625 
Q 5.8125 33.546875 5.8125 39.890625 
Q 5.8125 47.609375 11.28125 51.796875 
Q 16.75 56 26.8125 56 
Q 31.78125 56 36.171875 55.265625 
Q 40.578125 54.546875 44.28125 53.078125 
z
" id="DejaVuSans-115"/>
      <path d="M 56.203125 29.59375 
L 56.203125 25.203125 
L 14.890625 25.203125 
Q 15.484375 15.921875 20.484375 11.0625 
Q 25.484375 6.203125 34.421875 6.203125 
Q 39.59375 6.203125 44.453125 7.46875 
Q 49.3125 8.734375 54.109375 11.28125 
L 54.109375 2.78125 
Q 49.265625 0.734375 44.1875 -0.34375 
Q 39.109375 -1.421875 33.890625 -1.421875 
Q 20.796875 -1.421875 13.15625 6.1875 
Q 5.515625 13.8125 5.515625 26.8125 
Q 5.515625 40.234375 12.765625 48.109375 
Q 20.015625 56 32.328125 56 
Q 43.359375 56 49.78125 48.890625 
Q 56.203125 41.796875 56.203125 29.59375 
z
M 47.21875 32.234375 
Q 47.125 39.59375 43.09375 43.984375 
Q 39.0625 48.390625 32.421875 48.390625 
Q 24.90625 48.390625 20.390625 44.140625 
Q 15.875 39.890625 15.1875 32.171875 
z
" id="DejaVuSans-101"/>
     </defs>
     <g transform="translate(443.81375 59.237813)scale(0.14 -0.14)">
      <use xlink:href="#DejaVuSans-98"/>
      <use x="63.476562" xlink:href="#DejaVuSans-97"/>
      <use x="124.755859" xlink:href="#DejaVuSans-115"/>
      <use x="176.855469" xlink:href="#DejaVuSans-101"/>
     </g>
    </g>
    <g id="patch_6">
     <path d="M 404.61375 79.787188 
L 432.61375 79.787188 
L 432.61375 69.987188 
L 404.61375 69.987188 
z
" style="fill:#36a2eb;opacity:0.5;stroke:#36a2eb;stroke-linejoin:miter;"/>
    </g>
    <g id="text_2">
     <!-- osago_mid -->
     <defs>
      <path d="M 30.609375 48.390625 
Q 23.390625 48.390625 19.1875 42.75 
Q 14.984375 37.109375 14.984375 27.296875 
Q 14.984375 17.484375 19.15625 11.84375 
Q 23.34375 6.203125 30.609375 6.203125 
Q 37.796875 6.203125 41.984375 11.859375 
Q 46.1875 17.53125 46.1875 27.296875 
Q 46.1875 37.015625 41.984375 42.703125 
Q 37.796875 48.390625 30.609375 48.390625 
z
M 30.609375 56 
Q 42.328125 56 49.015625 48.375 
Q 55.71875 40.765625 55.71875 27.296875 
Q 55.71875 13.875 49.015625 6.21875 
Q 42.328125 -1.421875 30.609375 -1.421875 
Q 18.84375 -1.421875 12.171875 6.21875 
Q 5.515625 13.875 5.515625 27.296875 
Q 5.515625 40.765625 12.171875 48.375 
Q 18.84375 56 30.609375 56 
z
" id="DejaVuSans-111"/>
      <path d="M 45.40625 27.984375 
Q 45.40625 37.75 41.375 43.109375 
Q 37.359375 48.484375 30.078125 48.484375 
Q 22.859375 48.484375 18.828125 43.109375 
Q 14.796875 37.75 14.796875 27.984375 
Q 14.796875 18.265625 18.828125 12.890625 
Q 22.859375 7.515625 30.078125 7.515625 
Q 37.359375 7.515625 41.375 12.890625 
Q 45.40625 18.265625 45.40625 27.984375 
z
M 54.390625 6.78125 
Q 54.390625 -7.171875 48.1875 -13.984375 
Q 42 -20.796875 29.203125 -20.796875 
Q 24.46875 -20.796875 20.265625 -20.09375 
Q 16.0625 -19.390625 12.109375 -17.921875 
L 12.109375 -9.1875 
Q 16.0625 -11.328125 19.921875 -12.34375 
Q 23.78125 -13.375 27.78125 -13.375 
Q 36.625 -13.375 41.015625 -8.765625 
Q 45.40625 -4.15625 45.40625 5.171875 
L 45.40625 9.625 
Q 42.625 4.78125 38.28125 2.390625 
Q 33.9375 0 27.875 0 
Q 17.828125 0 11.671875 7.65625 
Q 5.515625 15.328125 5.515625 27.984375 
Q 5.515625 40.671875 11.671875 48.328125 
Q 17.828125 56 27.875 56 
Q 33.9375 56 38.28125 53.609375 
Q 42.625 51.21875 45.40625 46.390625 
L 45.40625 54.6875 
L 54.390625 54.6875 
z
" id="DejaVuSans-103"/>
      <path d="M 50.984375 -16.609375 
L 50.984375 -23.578125 
L -0.984375 -23.578125 
L -0.984375 -16.609375 
z
" id="DejaVuSans-95"/>
      <path d="M 52 44.1875 
Q 55.375 50.25 60.0625 53.125 
Q 64.75 56 71.09375 56 
Q 79.640625 56 84.28125 50.015625 
Q 88.921875 44.046875 88.921875 33.015625 
L 88.921875 0 
L 79.890625 0 
L 79.890625 32.71875 
Q 79.890625 40.578125 77.09375 44.375 
Q 74.3125 48.1875 68.609375 48.1875 
Q 61.625 48.1875 57.5625 43.546875 
Q 53.515625 38.921875 53.515625 30.90625 
L 53.515625 0 
L 44.484375 0 
L 44.484375 32.71875 
Q 44.484375 40.625 41.703125 44.40625 
Q 38.921875 48.1875 33.109375 48.1875 
Q 26.21875 48.1875 22.15625 43.53125 
Q 18.109375 38.875 18.109375 30.90625 
L 18.109375 0 
L 9.078125 0 
L 9.078125 54.6875 
L 18.109375 54.6875 
L 18.109375 46.1875 
Q 21.1875 51.21875 25.484375 53.609375 
Q 29.78125 56 35.6875 56 
Q 41.65625 56 45.828125 52.96875 
Q 50 49.953125 52 44.1875 
z
" id="DejaVuSans-109"/>
      <path d="M 9.421875 54.6875 
L 18.40625 54.6875 
L 18.40625 0 
L 9.421875 0 
z
M 9.421875 75.984375 
L 18.40625 75.984375 
L 18.40625 64.59375 
L 9.421875 64.59375 
z
" id="DejaVuSans-105"/>
      <path d="M 45.40625 46.390625 
L 45.40625 75.984375 
L 54.390625 75.984375 
L 54.390625 0 
L 45.40625 0 
L 45.40625 8.203125 
Q 42.578125 3.328125 38.25 0.953125 
Q 33.9375 -1.421875 27.875 -1.421875 
Q 17.96875 -1.421875 11.734375 6.484375 
Q 5.515625 14.40625 5.515625 27.296875 
Q 5.515625 40.1875 11.734375 48.09375 
Q 17.96875 56 27.875 56 
Q 33.9375 56 38.25 53.625 
Q 42.578125 51.265625 45.40625 46.390625 
z
M 14.796875 27.296875 
Q 14.796875 17.390625 18.875 11.75 
Q 22.953125 6.109375 30.078125 6.109375 
Q 37.203125 6.109375 41.296875 11.75 
Q 45.40625 17.390625 45.40625 27.296875 
Q 45.40625 37.203125 41.296875 42.84375 
Q 37.203125 48.484375 30.078125 48.484375 
Q 22.953125 48.484375 18.875 42.84375 
Q 14.796875 37.203125 14.796875 27.296875 
z
" id="DejaVuSans-100"/>
     </defs>
     <g transform="translate(443.81375 79.787188)scale(0.14 -0.14)">
      <use xlink:href="#DejaVuSans-111"/>
      <use x="61.181641" xlink:href="#DejaVuSans-115"/>
      <use x="113.28125" xlink:href="#DejaVuSans-97"/>
      <use x="174.560547" xlink:href="#DejaVuSans-103"/>
      <use x="238.037109" xlink:href="#DejaVuSans-111"/>
      <use x="299.21875" xlink:href="#DejaVuSans-95"/>
      <use x="349.21875" xlink:href="#DejaVuSans-109"/>
      <use x="446.630859" xlink:href="#DejaVuSans-105"/>
      <use x="474.414062" xlink:href="#DejaVuSans-100"/>
     </g>
    </g>
    <g id="patch_7">
     <path d="M 404.61375 100.725937 
L 432.61375 100.725937 
L 432.61375 90.925937 
L 404.61375 90.925937 
z
" style="fill:#4bc0c0;opacity:0.5;stroke:#4bc0c0;stroke-linejoin:miter;"/>
    </g>
    <g id="text_3">
     <!-- osago_right -->
     <defs>
      <path d="M 41.109375 46.296875 
Q 39.59375 47.171875 37.8125 47.578125 
Q 36.03125 48 33.890625 48 
Q 26.265625 48 22.1875 43.046875 
Q 18.109375 38.09375 18.109375 28.8125 
L 18.109375 0 
L 9.078125 0 
L 9.078125 54.6875 
L 18.109375 54.6875 
L 18.109375 46.1875 
Q 20.953125 51.171875 25.484375 53.578125 
Q 30.03125 56 36.53125 56 
Q 37.453125 56 38.578125 55.875 
Q 39.703125 55.765625 41.0625 55.515625 
z
" id="DejaVuSans-114"/>
      <path d="M 54.890625 33.015625 
L 54.890625 0 
L 45.90625 0 
L 45.90625 32.71875 
Q 45.90625 40.484375 42.875 44.328125 
Q 39.84375 48.1875 33.796875 48.1875 
Q 26.515625 48.1875 22.3125 43.546875 
Q 18.109375 38.921875 18.109375 30.90625 
L 18.109375 0 
L 9.078125 0 
L 9.078125 75.984375 
L 18.109375 75.984375 
L 18.109375 46.1875 
Q 21.34375 51.125 25.703125 53.5625 
Q 30.078125 56 35.796875 56 
Q 45.21875 56 50.046875 50.171875 
Q 54.890625 44.34375 54.890625 33.015625 
z
" id="DejaVuSans-104"/>
      <path d="M 18.3125 70.21875 
L 18.3125 54.6875 
L 36.8125 54.6875 
L 36.8125 47.703125 
L 18.3125 47.703125 
L 18.3125 18.015625 
Q 18.3125 11.328125 20.140625 9.421875 
Q 21.96875 7.515625 27.59375 7.515625 
L 36.8125 7.515625 
L 36.8125 0 
L 27.59375 0 
Q 17.1875 0 13.234375 3.875 
Q 9.28125 7.765625 9.28125 18.015625 
L 9.28125 47.703125 
L 2.6875 47.703125 
L 2.6875 54.6875 
L 9.28125 54.6875 
L 9.28125 70.21875 
z
" id="DejaVuSans-116"/>
     </defs>
     <g transform="translate(443.81375 100.725937)scale(0.14 -0.14)">
      <use xlink:href="#DejaVuSans-111"/>
      <use x="61.181641" xlink:href="#DejaVuSans-115"/>
      <use x="113.28125" xlink:href="#DejaVuSans-97"/>
      <use x="174.560547" xlink:href="#DejaVuSans-103"/>
      <use x="238.037109" xlink:href="#DejaVuSans-111"/>
      <use x="299.21875" xlink:href="#DejaVuSans-95"/>
      <use x="349.21875" xlink:href="#DejaVuSans-114"/>
      <use x="390.332031" xlink:href="#DejaVuSans-105"/>
      <use x="418.115234" xlink:href="#DejaVuSans-103"/>
      <use x="481.591797" xlink:href="#DejaVuSans-104"/>
      <use x="544.970703" xlink:href="#DejaVuSans-116"/>
     </g>
    </g>
   </g>
  </g>
  <g id="axes_2">
   <g id="patch_8">
    <path d="M 36 525.24 
L 538.2 525.24 
L 538.2 402.93 
L 36 402.93 
z
" style="fill:none;"/>
   </g>
   <g id="patch_9">
    <path clip-path="url(#p4012442851)" d="M 166.099732 519.680455 
L 372.231125 519.680455 
L 372.231125 497.442273 
L 166.099732 497.442273 
z
" style="fill:#ff6384;opacity:0.5;"/>
   </g>
   <g id="patch_10">
    <path clip-path="url(#p4012442851)" d="M 189.959671 475.204091 
L 394.426614 475.204091 
L 394.426614 452.965909 
L 189.959671 452.965909 
z
" style="fill:#36a2eb;opacity:0.5;"/>
   </g>
   <g id="patch_11">
    <path clip-path="url(#p4012442851)" d="M 218.952298 430.727727 
L 413.913386 430.727727 
L 413.913386 408.489545 
L 218.952298 408.489545 
z
" style="fill:#4bc0c0;opacity:0.5;"/>
   </g>
   <g id="matplotlib.axis_1">
    <g id="xtick_1">
     <g id="line2d_4">
      <defs>
       <path d="M 0 0 
L 0 3.5 
" id="md254d42844" style="stroke:#000000;stroke-width:0.8;"/>
      </defs>
      <g>
       <use style="stroke:#000000;stroke-width:0.8;" x="75.247834" xlink:href="#md254d42844" y="525.24"/>
      </g>
     </g>
     <g id="text_4">
      <!-- 18.5 -->
      <defs>
       <path d="M 12.40625 8.296875 
L 28.515625 8.296875 
L 28.515625 63.921875 
L 10.984375 60.40625 
L 10.984375 69.390625 
L 28.421875 72.90625 
L 38.28125 72.90625 
L 38.28125 8.296875 
L 54.390625 8.296875 
L 54.390625 0 
L 12.40625 0 
z
" id="DejaVuSans-49"/>
       <path d="M 31.78125 34.625 
Q 24.75 34.625 20.71875 30.859375 
Q 16.703125 27.09375 16.703125 20.515625 
Q 16.703125 13.921875 20.71875 10.15625 
Q 24.75 6.390625 31.78125 6.390625 
Q 38.8125 6.390625 42.859375 10.171875 
Q 46.921875 13.96875 46.921875 20.515625 
Q 46.921875 27.09375 42.890625 30.859375 
Q 38.875 34.625 31.78125 34.625 
z
M 21.921875 38.8125 
Q 15.578125 40.375 12.03125 44.71875 
Q 8.5 49.078125 8.5 55.328125 
Q 8.5 64.0625 14.71875 69.140625 
Q 20.953125 74.21875 31.78125 74.21875 
Q 42.671875 74.21875 48.875 69.140625 
Q 55.078125 64.0625 55.078125 55.328125 
Q 55.078125 49.078125 51.53125 44.71875 
Q 48 40.375 41.703125 38.8125 
Q 48.828125 37.15625 52.796875 32.3125 
Q 56.78125 27.484375 56.78125 20.515625 
Q 56.78125 9.90625 50.3125 4.234375 
Q 43.84375 -1.421875 31.78125 -1.421875 
Q 19.734375 -1.421875 13.25 4.234375 
Q 6.78125 9.90625 6.78125 20.515625 
Q 6.78125 27.484375 10.78125 32.3125 
Q 14.796875 37.15625 21.921875 38.8125 
z
M 18.3125 54.390625 
Q 18.3125 48.734375 21.84375 45.5625 
Q 25.390625 42.390625 31.78125 42.390625 
Q 38.140625 42.390625 41.71875 45.5625 
Q 45.3125 48.734375 45.3125 54.390625 
Q 45.3125 60.0625 41.71875 63.234375 
Q 38.140625 66.40625 31.78125 66.40625 
Q 25.390625 66.40625 21.84375 63.234375 
Q 18.3125 60.0625 18.3125 54.390625 
z
" id="DejaVuSans-56"/>
       <path d="M 10.6875 12.40625 
L 21 12.40625 
L 21 0 
L 10.6875 0 
z
" id="DejaVuSans-46"/>
       <path d="M 10.796875 72.90625 
L 49.515625 72.90625 
L 49.515625 64.59375 
L 19.828125 64.59375 
L 19.828125 46.734375 
Q 21.96875 47.46875 24.109375 47.828125 
Q 26.265625 48.1875 28.421875 48.1875 
Q 40.625 48.1875 47.75 41.5 
Q 54.890625 34.8125 54.890625 23.390625 
Q 54.890625 11.625 47.5625 5.09375 
Q 40.234375 -1.421875 26.90625 -1.421875 
Q 22.3125 -1.421875 17.546875 -0.640625 
Q 12.796875 0.140625 7.71875 1.703125 
L 7.71875 11.625 
Q 12.109375 9.234375 16.796875 8.0625 
Q 21.484375 6.890625 26.703125 6.890625 
Q 35.15625 6.890625 40.078125 11.328125 
Q 45.015625 15.765625 45.015625 23.390625 
Q 45.015625 31 40.078125 35.4375 
Q 35.15625 39.890625 26.703125 39.890625 
Q 22.75 39.890625 18.8125 39.015625 
Q 14.890625 38.140625 10.796875 36.28125 
z
" id="DejaVuSans-53"/>
      </defs>
      <g transform="translate(59.661897 542.877813)scale(0.14 -0.14)">
       <use xlink:href="#DejaVuSans-49"/>
       <use x="63.623047" xlink:href="#DejaVuSans-56"/>
       <use x="127.246094" xlink:href="#DejaVuSans-46"/>
       <use x="159.033203" xlink:href="#DejaVuSans-53"/>
      </g>
     </g>
    </g>
    <g id="xtick_2">
     <g id="line2d_5">
      <g>
       <use style="stroke:#000000;stroke-width:0.8;" x="135.847082" xlink:href="#md254d42844" y="525.24"/>
      </g>
     </g>
     <g id="text_5">
      <!-- 19.0 -->
      <defs>
       <path d="M 10.984375 1.515625 
L 10.984375 10.5 
Q 14.703125 8.734375 18.5 7.8125 
Q 22.3125 6.890625 25.984375 6.890625 
Q 35.75 6.890625 40.890625 13.453125 
Q 46.046875 20.015625 46.78125 33.40625 
Q 43.953125 29.203125 39.59375 26.953125 
Q 35.25 24.703125 29.984375 24.703125 
Q 19.046875 24.703125 12.671875 31.3125 
Q 6.296875 37.9375 6.296875 49.421875 
Q 6.296875 60.640625 12.9375 67.421875 
Q 19.578125 74.21875 30.609375 74.21875 
Q 43.265625 74.21875 49.921875 64.515625 
Q 56.59375 54.828125 56.59375 36.375 
Q 56.59375 19.140625 48.40625 8.859375 
Q 40.234375 -1.421875 26.421875 -1.421875 
Q 22.703125 -1.421875 18.890625 -0.6875 
Q 15.09375 0.046875 10.984375 1.515625 
z
M 30.609375 32.421875 
Q 37.25 32.421875 41.125 36.953125 
Q 45.015625 41.5 45.015625 49.421875 
Q 45.015625 57.28125 41.125 61.84375 
Q 37.25 66.40625 30.609375 66.40625 
Q 23.96875 66.40625 20.09375 61.84375 
Q 16.21875 57.28125 16.21875 49.421875 
Q 16.21875 41.5 20.09375 36.953125 
Q 23.96875 32.421875 30.609375 32.421875 
z
" id="DejaVuSans-57"/>
       <path d="M 31.78125 66.40625 
Q 24.171875 66.40625 20.328125 58.90625 
Q 16.5 51.421875 16.5 36.375 
Q 16.5 21.390625 20.328125 13.890625 
Q 24.171875 6.390625 31.78125 6.390625 
Q 39.453125 6.390625 43.28125 13.890625 
Q 47.125 21.390625 47.125 36.375 
Q 47.125 51.421875 43.28125 58.90625 
Q 39.453125 66.40625 31.78125 66.40625 
z
M 31.78125 74.21875 
Q 44.046875 74.21875 50.515625 64.515625 
Q 56.984375 54.828125 56.984375 36.375 
Q 56.984375 17.96875 50.515625 8.265625 
Q 44.046875 -1.421875 31.78125 -1.421875 
Q 19.53125 -1.421875 13.0625 8.265625 
Q 6.59375 17.96875 6.59375 36.375 
Q 6.59375 54.828125 13.0625 64.515625 
Q 19.53125 74.21875 31.78125 74.21875 
z
" id="DejaVuSans-48"/>
      </defs>
      <g transform="translate(120.261145 542.877813)scale(0.14 -0.14)">
       <use xlink:href="#DejaVuSans-49"/>
       <use x="63.623047" xlink:href="#DejaVuSans-57"/>
       <use x="127.246094" xlink:href="#DejaVuSans-46"/>
       <use x="159.033203" xlink:href="#DejaVuSans-48"/>
      </g>
     </g>
    </g>
    <g id="xtick_3">
     <g id="line2d_6">
      <g>
       <use style="stroke:#000000;stroke-width:0.8;" x="196.446331" xlink:href="#md254d42844" y="525.24"/>
      </g>
     </g>
     <g id="text_6">
      <!-- 19.5 -->
      <g transform="translate(180.860393 542.877813)scale(0.14 -0.14)">
       <use xlink:href="#DejaVuSans-49"/>
       <use x="63.623047" xlink:href="#DejaVuSans-57"/>
       <use x="127.246094" xlink:href="#DejaVuSans-46"/>
       <use x="159.033203" xlink:href="#DejaVuSans-53"/>
      </g>
     </g>
    </g>
    <g id="xtick_4">
     <g id="line2d_7">
      <g>
       <use style="stroke:#000000;stroke-width:0.8;" x="257.045579" xlink:href="#md254d42844" y="525.24"/>
      </g>
     </g>
     <g id="text_7">
      <!-- 20.0 -->
      <defs>
       <path d="M 19.1875 8.296875 
L 53.609375 8.296875 
L 53.609375 0 
L 7.328125 0 
L 7.328125 8.296875 
Q 12.9375 14.109375 22.625 23.890625 
Q 32.328125 33.6875 34.8125 36.53125 
Q 39.546875 41.84375 41.421875 45.53125 
Q 43.3125 49.21875 43.3125 52.78125 
Q 43.3125 58.59375 39.234375 62.25 
Q 35.15625 65.921875 28.609375 65.921875 
Q 23.96875 65.921875 18.8125 64.3125 
Q 13.671875 62.703125 7.8125 59.421875 
L 7.8125 69.390625 
Q 13.765625 71.78125 18.9375 73 
Q 24.125 74.21875 28.421875 74.21875 
Q 39.75 74.21875 46.484375 68.546875 
Q 53.21875 62.890625 53.21875 53.421875 
Q 53.21875 48.921875 51.53125 44.890625 
Q 49.859375 40.875 45.40625 35.40625 
Q 44.1875 33.984375 37.640625 27.21875 
Q 31.109375 20.453125 19.1875 8.296875 
z
" id="DejaVuSans-50"/>
      </defs>
      <g transform="translate(241.459641 542.877813)scale(0.14 -0.14)">
       <use xlink:href="#DejaVuSans-50"/>
       <use x="63.623047" xlink:href="#DejaVuSans-48"/>
       <use x="127.246094" xlink:href="#DejaVuSans-46"/>
       <use x="159.033203" xlink:href="#DejaVuSans-48"/>
      </g>
     </g>
    </g>
    <g id="xtick_5">
     <g id="line2d_8">
      <g>
       <use style="stroke:#000000;stroke-width:0.8;" x="317.644827" xlink:href="#md254d42844" y="525.24"/>
      </g>
     </g>
     <g id="text_8">
      <!-- 20.5 -->
      <g transform="translate(302.058889 542.877813)scale(0.14 -0.14)">
       <use xlink:href="#DejaVuSans-50"/>
       <use x="63.623047" xlink:href="#DejaVuSans-48"/>
       <use x="127.246094" xlink:href="#DejaVuSans-46"/>
       <use x="159.033203" xlink:href="#DejaVuSans-53"/>
      </g>
     </g>
    </g>
    <g id="xtick_6">
     <g id="line2d_9">
      <g>
       <use style="stroke:#000000;stroke-width:0.8;" x="378.244075" xlink:href="#md254d42844" y="525.24"/>
      </g>
     </g>
     <g id="text_9">
      <!-- 21.0 -->
      <g transform="translate(362.658138 542.877813)scale(0.14 -0.14)">
       <use xlink:href="#DejaVuSans-50"/>
       <use x="63.623047" xlink:href="#DejaVuSans-49"/>
       <use x="127.246094" xlink:href="#DejaVuSans-46"/>
       <use x="159.033203" xlink:href="#DejaVuSans-48"/>
      </g>
     </g>
    </g>
    <g id="xtick_7">
     <g id="line2d_10">
      <g>
       <use style="stroke:#000000;stroke-width:0.8;" x="438.843323" xlink:href="#md254d42844" y="525.24"/>
      </g>
     </g>
     <g id="text_10">
      <!-- 21.5 -->
      <g transform="translate(423.257386 542.877813)scale(0.14 -0.14)">
       <use xlink:href="#DejaVuSans-50"/>
       <use x="63.623047" xlink:href="#DejaVuSans-49"/>
       <use x="127.246094" xlink:href="#DejaVuSans-46"/>
       <use x="159.033203" xlink:href="#DejaVuSans-53"/>
      </g>
     </g>
    </g>
    <g id="xtick_8">
     <g id="line2d_11">
      <g>
       <use style="stroke:#000000;stroke-width:0.8;" x="499.442571" xlink:href="#md254d42844" y="525.24"/>
      </g>
     </g>
     <g id="text_11">
      <!-- 22.0 -->
      <g transform="translate(483.856634 542.877813)scale(0.14 -0.14)">
       <use xlink:href="#DejaVuSans-50"/>
       <use x="63.623047" xlink:href="#DejaVuSans-50"/>
       <use x="127.246094" xlink:href="#DejaVuSans-46"/>
       <use x="159.033203" xlink:href="#DejaVuSans-48"/>
      </g>
     </g>
    </g>
   </g>
   <g id="line2d_12">
    <path clip-path="url(#p4012442851)" d="M 269.165428 525.24 
L 269.165428 402.93 
" style="fill:none;stroke:#ff6384;stroke-dasharray:5.55,2.4;stroke-dashoffset:0;stroke-opacity:0.8;stroke-width:1.5;"/>
   </g>
   <g id="line2d_13">
    <path clip-path="url(#p4012442851)" d="M 292.193143 525.24 
L 292.193143 402.93 
" style="fill:none;stroke:#36a2eb;stroke-dasharray:5.55,2.4;stroke-dashoffset:0;stroke-opacity:0.8;stroke-width:1.5;"/>
   </g>
   <g id="line2d_14">
    <path clip-path="url(#p4012442851)" d="M 316.432842 525.24 
L 316.432842 402.93 
" style="fill:none;stroke:#4bc0c0;stroke-dasharray:5.55,2.4;stroke-dashoffset:0;stroke-opacity:0.8;stroke-width:1.5;"/>
   </g>
   <g id="patch_12">
    <path d="M 36 525.24 
L 538.2 525.24 
" style="fill:none;stroke:#000000;stroke-linecap:square;stroke-linejoin:miter;stroke-width:0.8;"/>
   </g>
  </g>
 </g>
 <defs>
  <clipPath id="p16367c09b7">
   <rect height="366.93" width="502.2" x="36" y="36"/>
  </clipPath>
  <clipPath id="p4012442851">
   <rect height="122.31" width="502.2" x="36" y="402.93"/>
  </clipPath>
 </defs>
</svg>
