<?xml version="1.0" encoding="utf-8" standalone="no"?>
<!DOCTYPE svg PUBLIC "-//W3C//DTD SVG 1.1//EN"
  "http://www.w3.org/Graphics/SVG/1.1/DTD/svg11.dtd">
<!-- Created with matplotlib (https://matplotlib.org/) -->
<svg height="581.789375pt" version="1.1" viewBox="0 0 574.2 581.789375" width="574.2pt" xmlns="http://www.w3.org/2000/svg" xmlns:xlink="http://www.w3.org/1999/xlink">
 <defs>
  <style type="text/css">
*{stroke-linecap:butt;stroke-linejoin:round;}
  </style>
 </defs>
 <g id="figure_1">
  <g id="patch_1">
   <path d="M 0 581.789375 
L 574.2 581.789375 
L 574.2 0 
L 0 0 
z
" style="fill:none;"/>
  </g>
  <g id="axes_1">
   <g id="patch_2">
    <path d="M 36 402.93 
L 538.2 402.93 
L 538.2 36 
L 36 36 
z
" style="fill:none;"/>
   </g>
   <g id="PolyCollection_1">
    <defs>
     <path d="M 61.927054 -195.538011 
L 61.927054 -195.644454 
L 65.850364 -195.684592 
L 69.773675 -195.738551 
L 73.696985 -195.810588 
L 77.620296 -195.90609 
L 81.543606 -196.031819 
L 85.466917 -196.196181 
L 89.390227 -196.409542 
L 93.313538 -196.684556 
L 97.236848 -197.036536 
L 101.160159 -197.483822 
L 105.083469 -198.048171 
L 109.00678 -198.755125 
L 112.93009 -199.634346 
L 116.853401 -200.719905 
L 120.776711 -202.05048 
L 124.700021 -203.669441 
L 128.623332 -205.624785 
L 132.546642 -207.968886 
L 136.469953 -210.758031 
L 140.393263 -214.051693 
L 144.316574 -217.911538 
L 148.239884 -222.400126 
L 152.163195 -227.579303 
L 156.086505 -233.508303 
L 160.009816 -240.241551 
L 163.933126 -247.826246 
L 167.856437 -256.299741 
L 171.779747 -265.686829 
L 175.703058 -275.997018 
L 179.626368 -287.221907 
L 183.549678 -299.332795 
L 187.472989 -312.278654 
L 191.396299 -325.984595 
L 195.31961 -340.350968 
L 199.24292 -355.253198 
L 203.166231 -370.542459 
L 207.089541 -386.047249 
L 211.012852 -401.575892 
L 214.936162 -416.919951 
L 218.859473 -431.858503 
L 222.782783 -446.163166 
L 226.706094 -459.603723 
L 230.629404 -471.954184 
L 234.552715 -482.999034 
L 238.476025 -492.539457 
L 242.399336 -500.399272 
L 246.322646 -506.430336 
L 250.245956 -510.517185 
L 254.169267 -512.580712 
L 258.092577 -512.580712 
L 262.015888 -510.517185 
L 265.939198 -506.430336 
L 269.862509 -500.399272 
L 273.785819 -492.539457 
L 277.70913 -482.999034 
L 281.63244 -471.954184 
L 285.555751 -459.603723 
L 289.479061 -446.163166 
L 293.402372 -431.858503 
L 297.325682 -416.919951 
L 301.248993 -401.575892 
L 305.172303 -386.047249 
L 309.095613 -370.542459 
L 313.018924 -355.253198 
L 316.942234 -340.350968 
L 320.865545 -325.984595 
L 324.788855 -312.278654 
L 328.712166 -299.332795 
L 332.635476 -287.221907 
L 336.558787 -275.997018 
L 340.482097 -265.686829 
L 344.405408 -256.299741 
L 348.328718 -247.826246 
L 352.252029 -240.241551 
L 356.175339 -233.508303 
L 360.09865 -227.579303 
L 364.02196 -222.400126 
L 367.945271 -217.911538 
L 371.868581 -214.051693 
L 375.791891 -210.758031 
L 379.715202 -207.968886 
L 383.638512 -205.624785 
L 387.561823 -203.669441 
L 391.485133 -202.05048 
L 395.408444 -200.719905 
L 399.331754 -199.634346 
L 403.255065 -198.755125 
L 407.178375 -198.048171 
L 411.101686 -197.483822 
L 415.024996 -197.036536 
L 418.948307 -196.684556 
L 422.871617 -196.409542 
L 426.794928 -196.196181 
L 430.718238 -196.031819 
L 434.641548 -195.90609 
L 438.564859 -195.810588 
L 442.488169 -195.738551 
L 446.41148 -195.684592 
L 450.33479 -195.644454 
L 450.33479 -195.538011 
L 450.33479 -195.538011 
L 446.41148 -195.538011 
L 442.488169 -195.538011 
L 438.564859 -195.538011 
L 434.641548 -195.538011 
L 430.718238 -195.538011 
L 426.794928 -195.538011 
L 422.871617 -195.538011 
L 418.948307 -195.538011 
L 415.024996 -195.538011 
L 411.101686 -195.538011 
L 407.178375 -195.538011 
L 403.255065 -195.538011 
L 399.331754 -195.538011 
L 395.408444 -195.538011 
L 391.485133 -195.538011 
L 387.561823 -195.538011 
L 383.638512 -195.538011 
L 379.715202 -195.538011 
L 375.791891 -195.538011 
L 371.868581 -195.538011 
L 367.945271 -195.538011 
L 364.02196 -195.538011 
L 360.09865 -195.538011 
L 356.175339 -195.538011 
L 352.252029 -195.538011 
L 348.328718 -195.538011 
L 344.405408 -195.538011 
L 340.482097 -195.538011 
L 336.558787 -195.538011 
L 332.635476 -195.538011 
L 328.712166 -195.538011 
L 324.788855 -195.538011 
L 320.865545 -195.538011 
L 316.942234 -195.538011 
L 313.018924 -195.538011 
L 309.095613 -195.538011 
L 305.172303 -195.538011 
L 301.248993 -195.538011 
L 297.325682 -195.538011 
L 293.402372 -195.538011 
L 289.479061 -195.538011 
L 285.555751 -195.538011 
L 281.63244 -195.538011 
L 277.70913 -195.538011 
L 273.785819 -195.538011 
L 269.862509 -195.538011 
L 265.939198 -195.538011 
L 262.015888 -195.538011 
L 258.092577 -195.538011 
L 254.169267 -195.538011 
L 250.245956 -195.538011 
L 246.322646 -195.538011 
L 242.399336 -195.538011 
L 238.476025 -195.538011 
L 234.552715 -195.538011 
L 230.629404 -195.538011 
L 226.706094 -195.538011 
L 222.782783 -195.538011 
L 218.859473 -195.538011 
L 214.936162 -195.538011 
L 211.012852 -195.538011 
L 207.089541 -195.538011 
L 203.166231 -195.538011 
L 199.24292 -195.538011 
L 195.31961 -195.538011 
L 191.396299 -195.538011 
L 187.472989 -195.538011 
L 183.549678 -195.538011 
L 179.626368 -195.538011 
L 175.703058 -195.538011 
L 171.779747 -195.538011 
L 167.856437 -195.538011 
L 163.933126 -195.538011 
L 160.009816 -195.538011 
L 156.086505 -195.538011 
L 152.163195 -195.538011 
L 148.239884 -195.538011 
L 144.316574 -195.538011 
L 140.393263 -195.538011 
L 136.469953 -195.538011 
L 132.546642 -195.538011 
L 128.623332 -195.538011 
L 124.700021 -195.538011 
L 120.776711 -195.538011 
L 116.853401 -195.538011 
L 112.93009 -195.538011 
L 109.00678 -195.538011 
L 105.083469 -195.538011 
L 101.160159 -195.538011 
L 97.236848 -195.538011 
L 93.313538 -195.538011 
L 89.390227 -195.538011 
L 85.466917 -195.538011 
L 81.543606 -195.538011 
L 77.620296 -195.538011 
L 73.696985 -195.538011 
L 69.773675 -195.538011 
L 65.850364 -195.538011 
L 61.927054 -195.538011 
z
" id="ma6715afeed" style="stroke:#ff6384;stroke-opacity:0.5;"/>
    </defs>
    <g clip-path="url(#pc2ce534192)">
     <use style="fill:#ff6384;fill-opacity:0.5;stroke:#ff6384;stroke-opacity:0.5;" x="0" xlink:href="#ma6715afeed" y="581.789375"/>
    </g>
   </g>
   <g id="PolyCollection_2">
    <defs>
     <path d="M 71.488706 -195.538011 
L 71.488706 -195.631151 
L 75.972383 -195.666272 
L 80.45606 -195.713488 
L 84.939737 -195.776522 
L 89.423414 -195.860088 
L 93.907091 -195.970103 
L 98.390768 -196.113924 
L 102.874445 -196.300618 
L 107.358122 -196.541262 
L 111.841799 -196.849251 
L 116.325476 -197.240636 
L 120.809153 -197.734454 
L 125.29283 -198.353052 
L 129.776507 -199.122389 
L 134.260184 -200.072276 
L 138.743861 -201.236557 
L 143.227538 -202.653182 
L 147.711215 -204.364148 
L 152.194892 -206.415285 
L 156.678569 -208.855844 
L 161.162246 -211.737867 
L 165.645923 -215.115312 
L 170.1296 -219.042919 
L 174.613277 -223.574807 
L 179.096954 -228.762805 
L 183.580631 -234.654537 
L 188.064308 -241.291303 
L 192.547985 -248.705787 
L 197.031662 -256.919684 
L 201.515339 -265.941313 
L 205.999016 -275.763324 
L 210.482693 -286.360602 
L 214.96637 -297.688498 
L 219.450047 -309.681481 
L 223.933724 -322.252356 
L 228.417401 -335.292116 
L 232.901078 -348.670537 
L 237.384755 -362.237551 
L 241.868432 -375.825435 
L 246.352109 -389.251806 
L 250.835786 -402.32335 
L 255.319463 -414.840226 
L 259.80314 -426.600993 
L 264.286817 -437.407903 
L 268.770493 -447.072376 
L 273.25417 -455.420445 
L 277.737847 -462.297946 
L 282.221524 -467.575252 
L 286.705201 -471.151329 
L 291.188878 -472.956958 
L 295.672555 -472.956958 
L 300.156232 -471.151329 
L 304.639909 -467.575252 
L 309.123586 -462.297946 
L 313.607263 -455.420445 
L 318.09094 -447.072376 
L 322.574617 -437.407903 
L 327.058294 -426.600993 
L 331.541971 -414.840226 
L 336.025648 -402.32335 
L 340.509325 -389.251806 
L 344.993002 -375.825435 
L 349.476679 -362.237551 
L 353.960356 -348.670537 
L 358.444033 -335.292116 
L 362.92771 -322.252356 
L 367.411387 -309.681481 
L 371.895064 -297.688498 
L 376.378741 -286.360602 
L 380.862418 -275.763324 
L 385.346095 -265.941313 
L 389.829772 -256.919684 
L 394.313449 -248.705787 
L 398.797126 -241.291303 
L 403.280803 -234.654537 
L 407.76448 -228.762805 
L 412.248157 -223.574807 
L 416.731834 -219.042919 
L 421.215511 -215.115312 
L 425.699188 -211.737867 
L 430.182865 -208.855844 
L 434.666542 -206.415285 
L 439.150219 -204.364148 
L 443.633896 -202.653182 
L 448.117573 -201.236557 
L 452.60125 -200.072276 
L 457.084927 -199.122389 
L 461.568604 -198.353052 
L 466.052281 -197.734454 
L 470.535957 -197.240636 
L 475.019634 -196.849251 
L 479.503311 -196.541262 
L 483.986988 -196.300618 
L 488.470665 -196.113924 
L 492.954342 -195.970103 
L 497.438019 -195.860088 
L 501.921696 -195.776522 
L 506.405373 -195.713488 
L 510.88905 -195.666272 
L 515.372727 -195.631151 
L 515.372727 -195.538011 
L 515.372727 -195.538011 
L 510.88905 -195.538011 
L 506.405373 -195.538011 
L 501.921696 -195.538011 
L 497.438019 -195.538011 
L 492.954342 -195.538011 
L 488.470665 -195.538011 
L 483.986988 -195.538011 
L 479.503311 -195.538011 
L 475.019634 -195.538011 
L 470.535957 -195.538011 
L 466.052281 -195.538011 
L 461.568604 -195.538011 
L 457.084927 -195.538011 
L 452.60125 -195.538011 
L 448.117573 -195.538011 
L 443.633896 -195.538011 
L 439.150219 -195.538011 
L 434.666542 -195.538011 
L 430.182865 -195.538011 
L 425.699188 -195.538011 
L 421.215511 -195.538011 
L 416.731834 -195.538011 
L 412.248157 -195.538011 
L 407.76448 -195.538011 
L 403.280803 -195.538011 
L 398.797126 -195.538011 
L 394.313449 -195.538011 
L 389.829772 -195.538011 
L 385.346095 -195.538011 
L 380.862418 -195.538011 
L 376.378741 -195.538011 
L 371.895064 -195.538011 
L 367.411387 -195.538011 
L 362.92771 -195.538011 
L 358.444033 -195.538011 
L 353.960356 -195.538011 
L 349.476679 -195.538011 
L 344.993002 -195.538011 
L 340.509325 -195.538011 
L 336.025648 -195.538011 
L 331.541971 -195.538011 
L 327.058294 -195.538011 
L 322.574617 -195.538011 
L 318.09094 -195.538011 
L 313.607263 -195.538011 
L 309.123586 -195.538011 
L 304.639909 -195.538011 
L 300.156232 -195.538011 
L 295.672555 -195.538011 
L 291.188878 -195.538011 
L 286.705201 -195.538011 
L 282.221524 -195.538011 
L 277.737847 -195.538011 
L 273.25417 -195.538011 
L 268.770493 -195.538011 
L 264.286817 -195.538011 
L 259.80314 -195.538011 
L 255.319463 -195.538011 
L 250.835786 -195.538011 
L 246.352109 -195.538011 
L 241.868432 -195.538011 
L 237.384755 -195.538011 
L 232.901078 -195.538011 
L 228.417401 -195.538011 
L 223.933724 -195.538011 
L 219.450047 -195.538011 
L 214.96637 -195.538011 
L 210.482693 -195.538011 
L 205.999016 -195.538011 
L 201.515339 -195.538011 
L 197.031662 -195.538011 
L 192.547985 -195.538011 
L 188.064308 -195.538011 
L 183.580631 -195.538011 
L 179.096954 -195.538011 
L 174.613277 -195.538011 
L 170.1296 -195.538011 
L 165.645923 -195.538011 
L 161.162246 -195.538011 
L 156.678569 -195.538011 
L 152.194892 -195.538011 
L 147.711215 -195.538011 
L 143.227538 -195.538011 
L 138.743861 -195.538011 
L 134.260184 -195.538011 
L 129.776507 -195.538011 
L 125.29283 -195.538011 
L 120.809153 -195.538011 
L 116.325476 -195.538011 
L 111.841799 -195.538011 
L 107.358122 -195.538011 
L 102.874445 -195.538011 
L 98.390768 -195.538011 
L 93.907091 -195.538011 
L 89.423414 -195.538011 
L 84.939737 -195.538011 
L 80.45606 -195.538011 
L 75.972383 -195.538011 
L 71.488706 -195.538011 
z
" id="me5682e8888" style="stroke:#36a2eb;stroke-opacity:0.5;"/>
    </defs>
    <g clip-path="url(#pc2ce534192)">
     <use style="fill:#36a2eb;fill-opacity:0.5;stroke:#36a2eb;stroke-opacity:0.5;" x="0" xlink:href="#me5682e8888" y="581.789375"/>
    </g>
   </g>
   <g id="PolyCollection_3">
    <defs>
     <path d="M 58.827273 -195.538011 
L 58.827273 -195.650004 
L 62.556166 -195.692234 
L 66.285058 -195.749007 
L 70.013951 -195.8248 
L 73.742844 -195.925281 
L 77.471737 -196.057565 
L 81.20063 -196.230497 
L 84.929522 -196.454982 
L 88.658415 -196.744335 
L 92.387308 -197.114666 
L 96.116201 -197.585273 
L 99.845094 -198.179047 
L 103.573987 -198.922859 
L 107.302879 -199.847921 
L 111.031772 -200.990079 
L 114.760665 -202.390029 
L 118.489558 -204.093399 
L 122.218451 -206.150691 
L 125.947343 -208.617009 
L 129.676236 -211.551575 
L 133.405129 -215.016962 
L 137.134022 -219.078053 
L 140.862915 -223.800667 
L 144.591807 -229.249878 
L 148.3207 -235.488004 
L 152.049593 -242.572312 
L 155.778486 -250.552459 
L 159.507379 -259.467747 
L 163.236272 -269.344261 
L 166.965164 -280.192004 
L 170.694057 -292.002137 
L 174.42295 -304.744465 
L 178.151843 -318.365297 
L 181.880736 -332.785841 
L 185.609628 -347.901251 
L 189.338521 -363.580456 
L 193.067414 -379.666871 
L 196.796307 -395.980052 
L 200.5252 -412.31833 
L 204.254093 -428.4624 
L 207.982985 -444.179822 
L 211.711878 -459.230303 
L 215.440771 -473.371627 
L 219.169664 -486.366018 
L 222.898557 -497.986726 
L 226.627449 -508.02457 
L 230.356342 -516.294181 
L 234.085235 -522.639693 
L 237.814128 -526.939623 
L 241.543021 -529.110739 
L 245.271914 -529.110739 
L 249.000806 -526.939623 
L 252.729699 -522.639693 
L 256.458592 -516.294181 
L 260.187485 -508.02457 
L 263.916378 -497.986726 
L 267.64527 -486.366018 
L 271.374163 -473.371627 
L 275.103056 -459.230303 
L 278.831949 -444.179822 
L 282.560842 -428.4624 
L 286.289735 -412.31833 
L 290.018627 -395.980052 
L 293.74752 -379.666871 
L 297.476413 -363.580456 
L 301.205306 -347.901251 
L 304.934199 -332.785841 
L 308.663091 -318.365297 
L 312.391984 -304.744465 
L 316.120877 -292.002137 
L 319.84977 -280.192004 
L 323.578663 -269.344261 
L 327.307555 -259.467747 
L 331.036448 -250.552459 
L 334.765341 -242.572312 
L 338.494234 -235.488004 
L 342.223127 -229.249878 
L 345.95202 -223.800667 
L 349.680912 -219.078053 
L 353.409805 -215.016962 
L 357.138698 -211.551575 
L 360.867591 -208.617009 
L 364.596484 -206.150691 
L 368.325376 -204.093399 
L 372.054269 -202.390029 
L 375.783162 -200.990079 
L 379.512055 -199.847921 
L 383.240948 -198.922859 
L 386.969841 -198.179047 
L 390.698733 -197.585273 
L 394.427626 -197.114666 
L 398.156519 -196.744335 
L 401.885412 -196.454982 
L 405.614305 -196.230497 
L 409.343197 -196.057565 
L 413.07209 -195.925281 
L 416.800983 -195.8248 
L 420.529876 -195.749007 
L 424.258769 -195.692234 
L 427.987662 -195.650004 
L 427.987662 -195.538011 
L 427.987662 -195.538011 
L 424.258769 -195.538011 
L 420.529876 -195.538011 
L 416.800983 -195.538011 
L 413.07209 -195.538011 
L 409.343197 -195.538011 
L 405.614305 -195.538011 
L 401.885412 -195.538011 
L 398.156519 -195.538011 
L 394.427626 -195.538011 
L 390.698733 -195.538011 
L 386.969841 -195.538011 
L 383.240948 -195.538011 
L 379.512055 -195.538011 
L 375.783162 -195.538011 
L 372.054269 -195.538011 
L 368.325376 -195.538011 
L 364.596484 -195.538011 
L 360.867591 -195.538011 
L 357.138698 -195.538011 
L 353.409805 -195.538011 
L 349.680912 -195.538011 
L 345.95202 -195.538011 
L 342.223127 -195.538011 
L 338.494234 -195.538011 
L 334.765341 -195.538011 
L 331.036448 -195.538011 
L 327.307555 -195.538011 
L 323.578663 -195.538011 
L 319.84977 -195.538011 
L 316.120877 -195.538011 
L 312.391984 -195.538011 
L 308.663091 -195.538011 
L 304.934199 -195.538011 
L 301.205306 -195.538011 
L 297.476413 -195.538011 
L 293.74752 -195.538011 
L 290.018627 -195.538011 
L 286.289735 -195.538011 
L 282.560842 -195.538011 
L 278.831949 -195.538011 
L 275.103056 -195.538011 
L 271.374163 -195.538011 
L 267.64527 -195.538011 
L 263.916378 -195.538011 
L 260.187485 -195.538011 
L 256.458592 -195.538011 
L 252.729699 -195.538011 
L 249.000806 -195.538011 
L 245.271914 -195.538011 
L 241.543021 -195.538011 
L 237.814128 -195.538011 
L 234.085235 -195.538011 
L 230.356342 -195.538011 
L 226.627449 -195.538011 
L 222.898557 -195.538011 
L 219.169664 -195.538011 
L 215.440771 -195.538011 
L 211.711878 -195.538011 
L 207.982985 -195.538011 
L 204.254093 -195.538011 
L 200.5252 -195.538011 
L 196.796307 -195.538011 
L 193.067414 -195.538011 
L 189.338521 -195.538011 
L 185.609628 -195.538011 
L 181.880736 -195.538011 
L 178.151843 -195.538011 
L 174.42295 -195.538011 
L 170.694057 -195.538011 
L 166.965164 -195.538011 
L 163.236272 -195.538011 
L 159.507379 -195.538011 
L 155.778486 -195.538011 
L 152.049593 -195.538011 
L 148.3207 -195.538011 
L 144.591807 -195.538011 
L 140.862915 -195.538011 
L 137.134022 -195.538011 
L 133.405129 -195.538011 
L 129.676236 -195.538011 
L 125.947343 -195.538011 
L 122.218451 -195.538011 
L 118.489558 -195.538011 
L 114.760665 -195.538011 
L 111.031772 -195.538011 
L 107.302879 -195.538011 
L 103.573987 -195.538011 
L 99.845094 -195.538011 
L 96.116201 -195.538011 
L 92.387308 -195.538011 
L 88.658415 -195.538011 
L 84.929522 -195.538011 
L 81.20063 -195.538011 
L 77.471737 -195.538011 
L 73.742844 -195.538011 
L 70.013951 -195.538011 
L 66.285058 -195.538011 
L 62.556166 -195.538011 
L 58.827273 -195.538011 
z
" id="m7b2fca7d4a" style="stroke:#4bc0c0;stroke-opacity:0.5;"/>
    </defs>
    <g clip-path="url(#pc2ce534192)">
     <use style="fill:#4bc0c0;fill-opacity:0.5;stroke:#4bc0c0;stroke-opacity:0.5;" x="0" xlink:href="#m7b2fca7d4a" y="581.789375"/>
    </g>
   </g>
   <g id="line2d_1">
    <path clip-path="url(#pc2ce534192)" d="M 61.927054 386.144921 
L 65.850364 386.104783 
L 69.773675 386.050824 
L 73.696985 385.978787 
L 77.620296 385.883285 
L 81.543606 385.757556 
L 85.466917 385.593194 
L 89.390227 385.379833 
L 93.313538 385.104819 
L 97.236848 384.752839 
L 101.160159 384.305553 
L 105.083469 383.741204 
L 109.00678 383.03425 
L 112.93009 382.155029 
L 116.853401 381.06947 
L 120.776711 379.738895 
L 124.700021 378.119934 
L 128.623332 376.16459 
L 132.546642 373.820489 
L 136.469953 371.031344 
L 140.393263 367.737682 
L 144.316574 363.877837 
L 148.239884 359.389249 
L 152.163195 354.210072 
L 156.086505 348.281072 
L 160.009816 341.547824 
L 163.933126 333.963129 
L 167.856437 325.489634 
L 171.779747 316.102546 
L 175.703058 305.792357 
L 179.626368 294.567468 
L 183.549678 282.45658 
L 187.472989 269.510721 
L 191.396299 255.80478 
L 195.31961 241.438407 
L 199.24292 226.536177 
L 203.166231 211.246916 
L 207.089541 195.742126 
L 211.012852 180.213483 
L 214.936162 164.869424 
L 218.859473 149.930872 
L 222.782783 135.626209 
L 226.706094 122.185652 
L 230.629404 109.835191 
L 234.552715 98.790341 
L 238.476025 89.249918 
L 242.399336 81.390103 
L 246.322646 75.359039 
L 250.245956 71.27219 
L 254.169267 69.208663 
L 258.092577 69.208663 
L 262.015888 71.27219 
L 265.939198 75.359039 
L 269.862509 81.390103 
L 273.785819 89.249918 
L 277.70913 98.790341 
L 281.63244 109.835191 
L 285.555751 122.185652 
L 289.479061 135.626209 
L 293.402372 149.930872 
L 297.325682 164.869424 
L 301.248993 180.213483 
L 305.172303 195.742126 
L 309.095613 211.246916 
L 313.018924 226.536177 
L 316.942234 241.438407 
L 320.865545 255.80478 
L 324.788855 269.510721 
L 328.712166 282.45658 
L 332.635476 294.567468 
L 336.558787 305.792357 
L 340.482097 316.102546 
L 344.405408 325.489634 
L 348.328718 333.963129 
L 352.252029 341.547824 
L 356.175339 348.281072 
L 360.09865 354.210072 
L 364.02196 359.389249 
L 367.945271 363.877837 
L 371.868581 367.737682 
L 375.791891 371.031344 
L 379.715202 373.820489 
L 383.638512 376.16459 
L 387.561823 378.119934 
L 391.485133 379.738895 
L 395.408444 381.06947 
L 399.331754 382.155029 
L 403.255065 383.03425 
L 407.178375 383.741204 
L 411.101686 384.305553 
L 415.024996 384.752839 
L 418.948307 385.104819 
L 422.871617 385.379833 
L 426.794928 385.593194 
L 430.718238 385.757556 
L 434.641548 385.883285 
L 438.564859 385.978787 
L 442.488169 386.050824 
L 446.41148 386.104783 
L 450.33479 386.144921 
" style="fill:none;stroke:#ff6384;stroke-linecap:square;"/>
   </g>
   <g id="line2d_2">
    <path clip-path="url(#pc2ce534192)" d="M 71.488706 386.158224 
L 75.972383 386.123103 
L 80.45606 386.075887 
L 84.939737 386.012853 
L 89.423414 385.929287 
L 93.907091 385.819272 
L 98.390768 385.675451 
L 102.874445 385.488757 
L 107.358122 385.248113 
L 111.841799 384.940124 
L 116.325476 384.548739 
L 120.809153 384.054921 
L 125.29283 383.436323 
L 129.776507 382.666986 
L 134.260184 381.717099 
L 138.743861 380.552818 
L 143.227538 379.136193 
L 147.711215 377.425227 
L 152.194892 375.37409 
L 156.678569 372.933531 
L 161.162246 370.051508 
L 165.645923 366.674063 
L 170.1296 362.746456 
L 174.613277 358.214568 
L 179.096954 353.02657 
L 183.580631 347.134838 
L 188.064308 340.498072 
L 192.547985 333.083588 
L 197.031662 324.869691 
L 201.515339 315.848062 
L 205.999016 306.026051 
L 210.482693 295.428773 
L 214.96637 284.100877 
L 219.450047 272.107894 
L 223.933724 259.537019 
L 228.417401 246.497259 
L 232.901078 233.118838 
L 237.384755 219.551824 
L 241.868432 205.96394 
L 246.352109 192.537569 
L 250.835786 179.466025 
L 255.319463 166.949149 
L 259.80314 155.188382 
L 264.286817 144.381472 
L 268.770493 134.716999 
L 273.25417 126.36893 
L 277.737847 119.491429 
L 282.221524 114.214123 
L 286.705201 110.638046 
L 291.188878 108.832417 
L 295.672555 108.832417 
L 300.156232 110.638046 
L 304.639909 114.214123 
L 309.123586 119.491429 
L 313.607263 126.36893 
L 318.09094 134.716999 
L 322.574617 144.381472 
L 327.058294 155.188382 
L 331.541971 166.949149 
L 336.025648 179.466025 
L 340.509325 192.537569 
L 344.993002 205.96394 
L 349.476679 219.551824 
L 353.960356 233.118838 
L 358.444033 246.497259 
L 362.92771 259.537019 
L 367.411387 272.107894 
L 371.895064 284.100877 
L 376.378741 295.428773 
L 380.862418 306.026051 
L 385.346095 315.848062 
L 389.829772 324.869691 
L 394.313449 333.083588 
L 398.797126 340.498072 
L 403.280803 347.134838 
L 407.76448 353.02657 
L 412.248157 358.214568 
L 416.731834 362.746456 
L 421.215511 366.674063 
L 425.699188 370.051508 
L 430.182865 372.933531 
L 434.666542 375.37409 
L 439.150219 377.425227 
L 443.633896 379.136193 
L 448.117573 380.552818 
L 452.60125 381.717099 
L 457.084927 382.666986 
L 461.568604 383.436323 
L 466.052281 384.054921 
L 470.535957 384.548739 
L 475.019634 384.940124 
L 479.503311 385.248113 
L 483.986988 385.488757 
L 488.470665 385.675451 
L 492.954342 385.819272 
L 497.438019 385.929287 
L 501.921696 386.012853 
L 506.405373 386.075887 
L 510.88905 386.123103 
L 515.372727 386.158224 
" style="fill:none;stroke:#36a2eb;stroke-linecap:square;"/>
   </g>
   <g id="line2d_3">
    <path clip-path="url(#pc2ce534192)" d="M 58.827273 386.139371 
L 62.556166 386.097141 
L 66.285058 386.040368 
L 70.013951 385.964575 
L 73.742844 385.864094 
L 77.471737 385.73181 
L 81.20063 385.558878 
L 84.929522 385.334393 
L 88.658415 385.04504 
L 92.387308 384.674709 
L 96.116201 384.204102 
L 99.845094 383.610328 
L 103.573987 382.866516 
L 107.302879 381.941454 
L 111.031772 380.799296 
L 114.760665 379.399346 
L 118.489558 377.695976 
L 122.218451 375.638684 
L 125.947343 373.172366 
L 129.676236 370.2378 
L 133.405129 366.772413 
L 137.134022 362.711322 
L 140.862915 357.988708 
L 144.591807 352.539497 
L 148.3207 346.301371 
L 152.049593 339.217063 
L 155.778486 331.236916 
L 159.507379 322.321628 
L 163.236272 312.445114 
L 166.965164 301.597371 
L 170.694057 289.787238 
L 174.42295 277.04491 
L 178.151843 263.424078 
L 181.880736 249.003534 
L 185.609628 233.888124 
L 189.338521 218.208919 
L 193.067414 202.122504 
L 196.796307 185.809323 
L 200.5252 169.471045 
L 204.254093 153.326975 
L 207.982985 137.609553 
L 211.711878 122.559072 
L 215.440771 108.417748 
L 219.169664 95.423357 
L 222.898557 83.802649 
L 226.627449 73.764805 
L 230.356342 65.495194 
L 234.085235 59.149682 
L 237.814128 54.849752 
L 241.543021 52.678636 
L 245.271914 52.678636 
L 249.000806 54.849752 
L 252.729699 59.149682 
L 256.458592 65.495194 
L 260.187485 73.764805 
L 263.916378 83.802649 
L 267.64527 95.423357 
L 271.374163 108.417748 
L 275.103056 122.559072 
L 278.831949 137.609553 
L 282.560842 153.326975 
L 286.289735 169.471045 
L 290.018627 185.809323 
L 293.74752 202.122504 
L 297.476413 218.208919 
L 301.205306 233.888124 
L 304.934199 249.003534 
L 308.663091 263.424078 
L 312.391984 277.04491 
L 316.120877 289.787238 
L 319.84977 301.597371 
L 323.578663 312.445114 
L 327.307555 322.321628 
L 331.036448 331.236916 
L 334.765341 339.217063 
L 338.494234 346.301371 
L 342.223127 352.539497 
L 345.95202 357.988708 
L 349.680912 362.711322 
L 353.409805 366.772413 
L 357.138698 370.2378 
L 360.867591 373.172366 
L 364.596484 375.638684 
L 368.325376 377.695976 
L 372.054269 379.399346 
L 375.783162 380.799296 
L 379.512055 381.941454 
L 383.240948 382.866516 
L 386.969841 383.610328 
L 390.698733 384.204102 
L 394.427626 384.674709 
L 398.156519 385.04504 
L 401.885412 385.334393 
L 405.614305 385.558878 
L 409.343197 385.73181 
L 413.07209 385.864094 
L 416.800983 385.964575 
L 420.529876 386.040368 
L 424.258769 386.097141 
L 427.987662 386.139371 
" style="fill:none;stroke:#4bc0c0;stroke-linecap:square;"/>
   </g>
   <g id="patch_3">
    <path d="M 36 402.93 
L 538.2 402.93 
" style="fill:none;stroke:#000000;stroke-linecap:square;stroke-linejoin:miter;stroke-width:0.8;"/>
   </g>
   <g id="legend_1">
    <g id="patch_4">
     <path d="M 401.81375 109.626875 
L 528.4 109.626875 
Q 531.2 109.626875 531.2 106.826875 
L 531.2 45.8 
Q 531.2 43 528.4 43 
L 401.81375 43 
Q 399.01375 43 399.01375 45.8 
L 399.01375 106.826875 
Q 399.01375 109.626875 401.81375 109.626875 
z
" style="fill:#ffffff;opacity:0.8;stroke:#cccccc;stroke-linejoin:miter;"/>
    </g>
    <g id="patch_5">
     <path d="M 404.61375 59.237813 
L 432.61375 59.237813 
L 432.61375 49.437813 
L 404.61375 49.437813 
z
" style="fill:#ff6384;opacity:0.5;stroke:#ff6384;stroke-linejoin:miter;"/>
    </g>
    <g id="text_1">
     <!-- base -->
     <defs>
      <path d="M 48.6875 27.296875 
Q 48.6875 37.203125 44.609375 42.84375 
Q 40.53125 48.484375 33.40625 48.484375 
Q 26.265625 48.484375 22.1875 42.84375 
Q 18.109375 37.203125 18.109375 27.296875 
Q 18.109375 17.390625 22.1875 11.75 
Q 26.265625 6.109375 33.40625 6.109375 
Q 40.53125 6.109375 44.609375 11.75 
Q 48.6875 17.390625 48.6875 27.296875 
z
M 18.109375 46.390625 
Q 20.953125 51.265625 25.265625 53.625 
Q 29.59375 56 35.59375 56 
Q 45.5625 56 51.78125 48.09375 
Q 58.015625 40.1875 58.015625 27.296875 
Q 58.015625 14.40625 51.78125 6.484375 
Q 45.5625 -1.421875 35.59375 -1.421875 
Q 29.59375 -1.421875 25.265625 0.953125 
Q 20.953125 3.328125 18.109375 8.203125 
L 18.109375 0 
L 9.078125 0 
L 9.078125 75.984375 
L 18.109375 75.984375 
z
" id="DejaVuSans-98"/>
      <path d="M 34.28125 27.484375 
Q 23.390625 27.484375 19.1875 25 
Q 14.984375 22.515625 14.984375 16.5 
Q 14.984375 11.71875 18.140625 8.90625 
Q 21.296875 6.109375 26.703125 6.109375 
Q 34.1875 6.109375 38.703125 11.40625 
Q 43.21875 16.703125 43.21875 25.484375 
L 43.21875 27.484375 
z
M 52.203125 31.203125 
L 52.203125 0 
L 43.21875 0 
L 43.21875 8.296875 
Q 40.140625 3.328125 35.546875 0.953125 
Q 30.953125 -1.421875 24.3125 -1.421875 
Q 15.921875 -1.421875 10.953125 3.296875 
Q 6 8.015625 6 15.921875 
Q 6 25.140625 12.171875 29.828125 
Q 18.359375 34.515625 30.609375 34.515625 
L 43.21875 34.515625 
L 43.21875 35.40625 
Q 43.21875 41.609375 39.140625 45 
Q 35.0625 48.390625 27.6875 48.390625 
Q 23 48.390625 18.546875 47.265625 
Q 14.109375 46.140625 10.015625 43.890625 
L 10.015625 52.203125 
Q 14.9375 54.109375 19.578125 55.046875 
Q 24.21875 56 28.609375 56 
Q 40.484375 56 46.34375 49.84375 
Q 52.203125 43.703125 52.203125 31.203125 
z
" id="DejaVuSans-97"/>
      <path d="M 44.28125 53.078125 
L 44.28125 44.578125 
Q 40.484375 46.53125 36.375 47.5 
Q 32.28125 48.484375 27.875 48.484375 
Q 21.1875 48.484375 17.84375 46.4375 
Q 14.5 44.390625 14.5 40.28125 
Q 14.5 37.15625 16.890625 35.375 
Q 19.28125 33.59375 26.515625 31.984375 
L 29.59375 31.296875 
Q 39.15625 29.25 43.1875 25.515625 
Q 47.21875 21.78125 47.21875 15.09375 
Q 47.21875 7.46875 41.1875 3.015625 
Q 35.15625 -1.421875 24.609375 -1.421875 
Q 20.21875 -1.421875 15.453125 -0.5625 
Q 10.6875 0.296875 5.421875 2 
L 5.421875 11.28125 
Q 10.40625 8.6875 15.234375 7.390625 
Q 20.0625 6.109375 24.8125 6.109375 
Q 31.15625 6.109375 34.5625 8.28125 
Q 37.984375 10.453125 37.984375 14.40625 
Q 37.984375 18.0625 35.515625 20.015625 
Q 33.0625 21.96875 24.703125 23.78125 
L 21.578125 24.515625 
Q 13.234375 26.265625 9.515625 29.90625 
Q 5.8125 33.546875 5.8125 39.890625 
Q 5.8125 47.609375 11.28125 51.796875 
Q 16.75 56 26.8125 56 
Q 31.78125 56 36.171875 55.265625 
Q 40.578125 54.546875 44.28125 53.078125 
z
" id="DejaVuSans-115"/>
      <path d="M 56.203125 29.59375 
L 56.203125 25.203125 
L 14.890625 25.203125 
Q 15.484375 15.921875 20.484375 11.0625 
Q 25.484375 6.203125 34.421875 6.203125 
Q 39.59375 6.203125 44.453125 7.46875 
Q 49.3125 8.734375 54.109375 11.28125 
L 54.109375 2.78125 
Q 49.265625 0.734375 44.1875 -0.34375 
Q 39.109375 -1.421875 33.890625 -1.421875 
Q 20.796875 -1.421875 13.15625 6.1875 
Q 5.515625 13.8125 5.515625 26.8125 
Q 5.515625 40.234375 12.765625 48.109375 
Q 20.015625 56 32.328125 56 
Q 43.359375 56 49.78125 48.890625 
Q 56.203125 41.796875 56.203125 29.59375 
z
M 47.21875 32.234375 
Q 47.125 39.59375 43.09375 43.984375 
Q 39.0625 48.390625 32.421875 48.390625 
Q 24.90625 48.390625 20.390625 44.140625 
Q 15.875 39.890625 15.1875 32.171875 
z
" id="DejaVuSans-101"/>
     </defs>
     <g transform="translate(443.81375 59.237813)scale(0.14 -0.14)">
      <use xlink:href="#DejaVuSans-98"/>
      <use x="63.476562" xlink:href="#DejaVuSans-97"/>
      <use x="124.755859" xlink:href="#DejaVuSans-115"/>
      <use x="176.855469" xlink:href="#DejaVuSans-101"/>
     </g>
    </g>
    <g id="patch_6">
     <path d="M 404.61375 79.787188 
L 432.61375 79.787188 
L 432.61375 69.987188 
L 404.61375 69.987188 
z
" style="fill:#36a2eb;opacity:0.5;stroke:#36a2eb;stroke-linejoin:miter;"/>
    </g>
    <g id="text_2">
     <!-- osago_mid -->
     <defs>
      <path d="M 30.609375 48.390625 
Q 23.390625 48.390625 19.1875 42.75 
Q 14.984375 37.109375 14.984375 27.296875 
Q 14.984375 17.484375 19.15625 11.84375 
Q 23.34375 6.203125 30.609375 6.203125 
Q 37.796875 6.203125 41.984375 11.859375 
Q 46.1875 17.53125 46.1875 27.296875 
Q 46.1875 37.015625 41.984375 42.703125 
Q 37.796875 48.390625 30.609375 48.390625 
z
M 30.609375 56 
Q 42.328125 56 49.015625 48.375 
Q 55.71875 40.765625 55.71875 27.296875 
Q 55.71875 13.875 49.015625 6.21875 
Q 42.328125 -1.421875 30.609375 -1.421875 
Q 18.84375 -1.421875 12.171875 6.21875 
Q 5.515625 13.875 5.515625 27.296875 
Q 5.515625 40.765625 12.171875 48.375 
Q 18.84375 56 30.609375 56 
z
" id="DejaVuSans-111"/>
      <path d="M 45.40625 27.984375 
Q 45.40625 37.75 41.375 43.109375 
Q 37.359375 48.484375 30.078125 48.484375 
Q 22.859375 48.484375 18.828125 43.109375 
Q 14.796875 37.75 14.796875 27.984375 
Q 14.796875 18.265625 18.828125 12.890625 
Q 22.859375 7.515625 30.078125 7.515625 
Q 37.359375 7.515625 41.375 12.890625 
Q 45.40625 18.265625 45.40625 27.984375 
z
M 54.390625 6.78125 
Q 54.390625 -7.171875 48.1875 -13.984375 
Q 42 -20.796875 29.203125 -20.796875 
Q 24.46875 -20.796875 20.265625 -20.09375 
Q 16.0625 -19.390625 12.109375 -17.921875 
L 12.109375 -9.1875 
Q 16.0625 -11.328125 19.921875 -12.34375 
Q 23.78125 -13.375 27.78125 -13.375 
Q 36.625 -13.375 41.015625 -8.765625 
Q 45.40625 -4.15625 45.40625 5.171875 
L 45.40625 9.625 
Q 42.625 4.78125 38.28125 2.390625 
Q 33.9375 0 27.875 0 
Q 17.828125 0 11.671875 7.65625 
Q 5.515625 15.328125 5.515625 27.984375 
Q 5.515625 40.671875 11.671875 48.328125 
Q 17.828125 56 27.875 56 
Q 33.9375 56 38.28125 53.609375 
Q 42.625 51.21875 45.40625 46.390625 
L 45.40625 54.6875 
L 54.390625 54.6875 
z
" id="DejaVuSans-103"/>
      <path d="M 50.984375 -16.609375 
L 50.984375 -23.578125 
L -0.984375 -23.578125 
L -0.984375 -16.609375 
z
" id="DejaVuSans-95"/>
      <path d="M 52 44.1875 
Q 55.375 50.25 60.0625 53.125 
Q 64.75 56 71.09375 56 
Q 79.640625 56 84.28125 50.015625 
Q 88.921875 44.046875 88.921875 33.015625 
L 88.921875 0 
L 79.890625 0 
L 79.890625 32.71875 
Q 79.890625 40.578125 77.09375 44.375 
Q 74.3125 48.1875 68.609375 48.1875 
Q 61.625 48.1875 57.5625 43.546875 
Q 53.515625 38.921875 53.515625 30.90625 
L 53.515625 0 
L 44.484375 0 
L 44.484375 32.71875 
Q 44.484375 40.625 41.703125 44.40625 
Q 38.921875 48.1875 33.109375 48.1875 
Q 26.21875 48.1875 22.15625 43.53125 
Q 18.109375 38.875 18.109375 30.90625 
L 18.109375 0 
L 9.078125 0 
L 9.078125 54.6875 
L 18.109375 54.6875 
L 18.109375 46.1875 
Q 21.1875 51.21875 25.484375 53.609375 
Q 29.78125 56 35.6875 56 
Q 41.65625 56 45.828125 52.96875 
Q 50 49.953125 52 44.1875 
z
" id="DejaVuSans-109"/>
      <path d="M 9.421875 54.6875 
L 18.40625 54.6875 
L 18.40625 0 
L 9.421875 0 
z
M 9.421875 75.984375 
L 18.40625 75.984375 
L 18.40625 64.59375 
L 9.421875 64.59375 
z
" id="DejaVuSans-105"/>
      <path d="M 45.40625 46.390625 
L 45.40625 75.984375 
L 54.390625 75.984375 
L 54.390625 0 
L 45.40625 0 
L 45.40625 8.203125 
Q 42.578125 3.328125 38.25 0.953125 
Q 33.9375 -1.421875 27.875 -1.421875 
Q 17.96875 -1.421875 11.734375 6.484375 
Q 5.515625 14.40625 5.515625 27.296875 
Q 5.515625 40.1875 11.734375 48.09375 
Q 17.96875 56 27.875 56 
Q 33.9375 56 38.25 53.625 
Q 42.578125 51.265625 45.40625 46.390625 
z
M 14.796875 27.296875 
Q 14.796875 17.390625 18.875 11.75 
Q 22.953125 6.109375 30.078125 6.109375 
Q 37.203125 6.109375 41.296875 11.75 
Q 45.40625 17.390625 45.40625 27.296875 
Q 45.40625 37.203125 41.296875 42.84375 
Q 37.203125 48.484375 30.078125 48.484375 
Q 22.953125 48.484375 18.875 42.84375 
Q 14.796875 37.203125 14.796875 27.296875 
z
" id="DejaVuSans-100"/>
     </defs>
     <g transform="translate(443.81375 79.787188)scale(0.14 -0.14)">
      <use xlink:href="#DejaVuSans-111"/>
      <use x="61.181641" xlink:href="#DejaVuSans-115"/>
      <use x="113.28125" xlink:href="#DejaVuSans-97"/>
      <use x="174.560547" xlink:href="#DejaVuSans-103"/>
      <use x="238.037109" xlink:href="#DejaVuSans-111"/>
      <use x="299.21875" xlink:href="#DejaVuSans-95"/>
      <use x="349.21875" xlink:href="#DejaVuSans-109"/>
      <use x="446.630859" xlink:href="#DejaVuSans-105"/>
      <use x="474.414062" xlink:href="#DejaVuSans-100"/>
     </g>
    </g>
    <g id="patch_7">
     <path d="M 404.61375 100.725937 
L 432.61375 100.725937 
L 432.61375 90.925937 
L 404.61375 90.925937 
z
" style="fill:#4bc0c0;opacity:0.5;stroke:#4bc0c0;stroke-linejoin:miter;"/>
    </g>
    <g id="text_3">
     <!-- osago_right -->
     <defs>
      <path d="M 41.109375 46.296875 
Q 39.59375 47.171875 37.8125 47.578125 
Q 36.03125 48 33.890625 48 
Q 26.265625 48 22.1875 43.046875 
Q 18.109375 38.09375 18.109375 28.8125 
L 18.109375 0 
L 9.078125 0 
L 9.078125 54.6875 
L 18.109375 54.6875 
L 18.109375 46.1875 
Q 20.953125 51.171875 25.484375 53.578125 
Q 30.03125 56 36.53125 56 
Q 37.453125 56 38.578125 55.875 
Q 39.703125 55.765625 41.0625 55.515625 
z
" id="DejaVuSans-114"/>
      <path d="M 54.890625 33.015625 
L 54.890625 0 
L 45.90625 0 
L 45.90625 32.71875 
Q 45.90625 40.484375 42.875 44.328125 
Q 39.84375 48.1875 33.796875 48.1875 
Q 26.515625 48.1875 22.3125 43.546875 
Q 18.109375 38.921875 18.109375 30.90625 
L 18.109375 0 
L 9.078125 0 
L 9.078125 75.984375 
L 18.109375 75.984375 
L 18.109375 46.1875 
Q 21.34375 51.125 25.703125 53.5625 
Q 30.078125 56 35.796875 56 
Q 45.21875 56 50.046875 50.171875 
Q 54.890625 44.34375 54.890625 33.015625 
z
" id="DejaVuSans-104"/>
      <path d="M 18.3125 70.21875 
L 18.3125 54.6875 
L 36.8125 54.6875 
L 36.8125 47.703125 
L 18.3125 47.703125 
L 18.3125 18.015625 
Q 18.3125 11.328125 20.140625 9.421875 
Q 21.96875 7.515625 27.59375 7.515625 
L 36.8125 7.515625 
L 36.8125 0 
L 27.59375 0 
Q 17.1875 0 13.234375 3.875 
Q 9.28125 7.765625 9.28125 18.015625 
L 9.28125 47.703125 
L 2.6875 47.703125 
L 2.6875 54.6875 
L 9.28125 54.6875 
L 9.28125 70.21875 
z
" id="DejaVuSans-116"/>
     </defs>
     <g transform="translate(443.81375 100.725937)scale(0.14 -0.14)">
      <use xlink:href="#DejaVuSans-111"/>
      <use x="61.181641" xlink:href="#DejaVuSans-115"/>
      <use x="113.28125" xlink:href="#DejaVuSans-97"/>
      <use x="174.560547" xlink:href="#DejaVuSans-103"/>
      <use x="238.037109" xlink:href="#DejaVuSans-111"/>
      <use x="299.21875" xlink:href="#DejaVuSans-95"/>
      <use x="349.21875" xlink:href="#DejaVuSans-114"/>
      <use x="390.332031" xlink:href="#DejaVuSans-105"/>
      <use x="418.115234" xlink:href="#DejaVuSans-103"/>
      <use x="481.591797" xlink:href="#DejaVuSans-104"/>
      <use x="544.970703" xlink:href="#DejaVuSans-116"/>
     </g>
    </g>
   </g>
  </g>
  <g id="axes_2">
   <g id="patch_8">
    <path d="M 36 525.24 
L 538.2 525.24 
L 538.2 402.93 
L 36 402.93 
z
" style="fill:none;"/>
   </g>
   <g id="patch_9">
    <path clip-path="url(#p5eaeb1ba59)" d="M 160.971027 519.680455 
L 351.290818 519.680455 
L 351.290818 497.442273 
L 160.971027 497.442273 
z
" style="fill:#ff6384;opacity:0.5;"/>
   </g>
   <g id="patch_10">
    <path clip-path="url(#p5eaeb1ba59)" d="M 184.679132 475.204091 
L 402.182302 475.204091 
L 402.182302 452.965909 
L 184.679132 452.965909 
z
" style="fill:#36a2eb;opacity:0.5;"/>
   </g>
   <g id="patch_11">
    <path clip-path="url(#p5eaeb1ba59)" d="M 152.963172 430.727727 
L 333.851762 430.727727 
L 333.851762 408.489545 
L 152.963172 408.489545 
z
" style="fill:#4bc0c0;opacity:0.5;"/>
   </g>
   <g id="matplotlib.axis_1">
    <g id="xtick_1">
     <g id="line2d_4">
      <defs>
       <path d="M 0 0 
L 0 3.5 
" id="mac4d253b23" style="stroke:#000000;stroke-width:0.8;"/>
      </defs>
      <g>
       <use style="stroke:#000000;stroke-width:0.8;" x="91.689853" xlink:href="#mac4d253b23" y="525.24"/>
      </g>
     </g>
     <g id="text_4">
      <!-- 32 -->
      <defs>
       <path d="M 40.578125 39.3125 
Q 47.65625 37.796875 51.625 33 
Q 55.609375 28.21875 55.609375 21.1875 
Q 55.609375 10.40625 48.1875 4.484375 
Q 40.765625 -1.421875 27.09375 -1.421875 
Q 22.515625 -1.421875 17.65625 -0.515625 
Q 12.796875 0.390625 7.625 2.203125 
L 7.625 11.71875 
Q 11.71875 9.328125 16.59375 8.109375 
Q 21.484375 6.890625 26.8125 6.890625 
Q 36.078125 6.890625 40.9375 10.546875 
Q 45.796875 14.203125 45.796875 21.1875 
Q 45.796875 27.640625 41.28125 31.265625 
Q 36.765625 34.90625 28.71875 34.90625 
L 20.21875 34.90625 
L 20.21875 43.015625 
L 29.109375 43.015625 
Q 36.375 43.015625 40.234375 45.921875 
Q 44.09375 48.828125 44.09375 54.296875 
Q 44.09375 59.90625 40.109375 62.90625 
Q 36.140625 65.921875 28.71875 65.921875 
Q 24.65625 65.921875 20.015625 65.03125 
Q 15.375 64.15625 9.8125 62.3125 
L 9.8125 71.09375 
Q 15.4375 72.65625 20.34375 73.4375 
Q 25.25 74.21875 29.59375 74.21875 
Q 40.828125 74.21875 47.359375 69.109375 
Q 53.90625 64.015625 53.90625 55.328125 
Q 53.90625 49.265625 50.4375 45.09375 
Q 46.96875 40.921875 40.578125 39.3125 
z
" id="DejaVuSans-51"/>
       <path d="M 19.1875 8.296875 
L 53.609375 8.296875 
L 53.609375 0 
L 7.328125 0 
L 7.328125 8.296875 
Q 12.9375 14.109375 22.625 23.890625 
Q 32.328125 33.6875 34.8125 36.53125 
Q 39.546875 41.84375 41.421875 45.53125 
Q 43.3125 49.21875 43.3125 52.78125 
Q 43.3125 58.59375 39.234375 62.25 
Q 35.15625 65.921875 28.609375 65.921875 
Q 23.96875 65.921875 18.8125 64.3125 
Q 13.671875 62.703125 7.8125 59.421875 
L 7.8125 69.390625 
Q 13.765625 71.78125 18.9375 73 
Q 24.125 74.21875 28.421875 74.21875 
Q 39.75 74.21875 46.484375 68.546875 
Q 53.21875 62.890625 53.21875 53.421875 
Q 53.21875 48.921875 51.53125 44.890625 
Q 49.859375 40.875 45.40625 35.40625 
Q 44.1875 33.984375 37.640625 27.21875 
Q 31.109375 20.453125 19.1875 8.296875 
z
" id="DejaVuSans-50"/>
      </defs>
      <g transform="translate(82.782353 542.877813)scale(0.14 -0.14)">
       <use xlink:href="#DejaVuSans-51"/>
       <use x="63.623047" xlink:href="#DejaVuSans-50"/>
      </g>
     </g>
    </g>
    <g id="xtick_2">
     <g id="line2d_5">
      <g>
       <use style="stroke:#000000;stroke-width:0.8;" x="160.782739" xlink:href="#mac4d253b23" y="525.24"/>
      </g>
     </g>
     <g id="text_5">
      <!-- 34 -->
      <defs>
       <path d="M 37.796875 64.3125 
L 12.890625 25.390625 
L 37.796875 25.390625 
z
M 35.203125 72.90625 
L 47.609375 72.90625 
L 47.609375 25.390625 
L 58.015625 25.390625 
L 58.015625 17.1875 
L 47.609375 17.1875 
L 47.609375 0 
L 37.796875 0 
L 37.796875 17.1875 
L 4.890625 17.1875 
L 4.890625 26.703125 
z
" id="DejaVuSans-52"/>
      </defs>
      <g transform="translate(151.875239 542.877813)scale(0.14 -0.14)">
       <use xlink:href="#DejaVuSans-51"/>
       <use x="63.623047" xlink:href="#DejaVuSans-52"/>
      </g>
     </g>
    </g>
    <g id="xtick_3">
     <g id="line2d_6">
      <g>
       <use style="stroke:#000000;stroke-width:0.8;" x="229.875625" xlink:href="#mac4d253b23" y="525.24"/>
      </g>
     </g>
     <g id="text_6">
      <!-- 36 -->
      <defs>
       <path d="M 33.015625 40.375 
Q 26.375 40.375 22.484375 35.828125 
Q 18.609375 31.296875 18.609375 23.390625 
Q 18.609375 15.53125 22.484375 10.953125 
Q 26.375 6.390625 33.015625 6.390625 
Q 39.65625 6.390625 43.53125 10.953125 
Q 47.40625 15.53125 47.40625 23.390625 
Q 47.40625 31.296875 43.53125 35.828125 
Q 39.65625 40.375 33.015625 40.375 
z
M 52.59375 71.296875 
L 52.59375 62.3125 
Q 48.875 64.0625 45.09375 64.984375 
Q 41.3125 65.921875 37.59375 65.921875 
Q 27.828125 65.921875 22.671875 59.328125 
Q 17.53125 52.734375 16.796875 39.40625 
Q 19.671875 43.65625 24.015625 45.921875 
Q 28.375 48.1875 33.59375 48.1875 
Q 44.578125 48.1875 50.953125 41.515625 
Q 57.328125 34.859375 57.328125 23.390625 
Q 57.328125 12.15625 50.6875 5.359375 
Q 44.046875 -1.421875 33.015625 -1.421875 
Q 20.359375 -1.421875 13.671875 8.265625 
Q 6.984375 17.96875 6.984375 36.375 
Q 6.984375 53.65625 15.1875 63.9375 
Q 23.390625 74.21875 37.203125 74.21875 
Q 40.921875 74.21875 44.703125 73.484375 
Q 48.484375 72.75 52.59375 71.296875 
z
" id="DejaVuSans-54"/>
      </defs>
      <g transform="translate(220.968125 542.877813)scale(0.14 -0.14)">
       <use xlink:href="#DejaVuSans-51"/>
       <use x="63.623047" xlink:href="#DejaVuSans-54"/>
      </g>
     </g>
    </g>
    <g id="xtick_4">
     <g id="line2d_7">
      <g>
       <use style="stroke:#000000;stroke-width:0.8;" x="298.968512" xlink:href="#mac4d253b23" y="525.24"/>
      </g>
     </g>
     <g id="text_7">
      <!-- 38 -->
      <defs>
       <path d="M 31.78125 34.625 
Q 24.75 34.625 20.71875 30.859375 
Q 16.703125 27.09375 16.703125 20.515625 
Q 16.703125 13.921875 20.71875 10.15625 
Q 24.75 6.390625 31.78125 6.390625 
Q 38.8125 6.390625 42.859375 10.171875 
Q 46.921875 13.96875 46.921875 20.515625 
Q 46.921875 27.09375 42.890625 30.859375 
Q 38.875 34.625 31.78125 34.625 
z
M 21.921875 38.8125 
Q 15.578125 40.375 12.03125 44.71875 
Q 8.5 49.078125 8.5 55.328125 
Q 8.5 64.0625 14.71875 69.140625 
Q 20.953125 74.21875 31.78125 74.21875 
Q 42.671875 74.21875 48.875 69.140625 
Q 55.078125 64.0625 55.078125 55.328125 
Q 55.078125 49.078125 51.53125 44.71875 
Q 48 40.375 41.703125 38.8125 
Q 48.828125 37.15625 52.796875 32.3125 
Q 56.78125 27.484375 56.78125 20.515625 
Q 56.78125 9.90625 50.3125 4.234375 
Q 43.84375 -1.421875 31.78125 -1.421875 
Q 19.734375 -1.421875 13.25 4.234375 
Q 6.78125 9.90625 6.78125 20.515625 
Q 6.78125 27.484375 10.78125 32.3125 
Q 14.796875 37.15625 21.921875 38.8125 
z
M 18.3125 54.390625 
Q 18.3125 48.734375 21.84375 45.5625 
Q 25.390625 42.390625 31.78125 42.390625 
Q 38.140625 42.390625 41.71875 45.5625 
Q 45.3125 48.734375 45.3125 54.390625 
Q 45.3125 60.0625 41.71875 63.234375 
Q 38.140625 66.40625 31.78125 66.40625 
Q 25.390625 66.40625 21.84375 63.234375 
Q 18.3125 60.0625 18.3125 54.390625 
z
" id="DejaVuSans-56"/>
      </defs>
      <g transform="translate(290.061012 542.877813)scale(0.14 -0.14)">
       <use xlink:href="#DejaVuSans-51"/>
       <use x="63.623047" xlink:href="#DejaVuSans-56"/>
      </g>
     </g>
    </g>
    <g id="xtick_5">
     <g id="line2d_8">
      <g>
       <use style="stroke:#000000;stroke-width:0.8;" x="368.061398" xlink:href="#mac4d253b23" y="525.24"/>
      </g>
     </g>
     <g id="text_8">
      <!-- 40 -->
      <defs>
       <path d="M 31.78125 66.40625 
Q 24.171875 66.40625 20.328125 58.90625 
Q 16.5 51.421875 16.5 36.375 
Q 16.5 21.390625 20.328125 13.890625 
Q 24.171875 6.390625 31.78125 6.390625 
Q 39.453125 6.390625 43.28125 13.890625 
Q 47.125 21.390625 47.125 36.375 
Q 47.125 51.421875 43.28125 58.90625 
Q 39.453125 66.40625 31.78125 66.40625 
z
M 31.78125 74.21875 
Q 44.046875 74.21875 50.515625 64.515625 
Q 56.984375 54.828125 56.984375 36.375 
Q 56.984375 17.96875 50.515625 8.265625 
Q 44.046875 -1.421875 31.78125 -1.421875 
Q 19.53125 -1.421875 13.0625 8.265625 
Q 6.59375 17.96875 6.59375 36.375 
Q 6.59375 54.828125 13.0625 64.515625 
Q 19.53125 74.21875 31.78125 74.21875 
z
" id="DejaVuSans-48"/>
      </defs>
      <g transform="translate(359.153898 542.877813)scale(0.14 -0.14)">
       <use xlink:href="#DejaVuSans-52"/>
       <use x="63.623047" xlink:href="#DejaVuSans-48"/>
      </g>
     </g>
    </g>
    <g id="xtick_6">
     <g id="line2d_9">
      <g>
       <use style="stroke:#000000;stroke-width:0.8;" x="437.154284" xlink:href="#mac4d253b23" y="525.24"/>
      </g>
     </g>
     <g id="text_9">
      <!-- 42 -->
      <g transform="translate(428.246784 542.877813)scale(0.14 -0.14)">
       <use xlink:href="#DejaVuSans-52"/>
       <use x="63.623047" xlink:href="#DejaVuSans-50"/>
      </g>
     </g>
    </g>
    <g id="xtick_7">
     <g id="line2d_10">
      <g>
       <use style="stroke:#000000;stroke-width:0.8;" x="506.247171" xlink:href="#mac4d253b23" y="525.24"/>
      </g>
     </g>
     <g id="text_10">
      <!-- 44 -->
      <g transform="translate(497.339671 542.877813)scale(0.14 -0.14)">
       <use xlink:href="#DejaVuSans-52"/>
       <use x="63.623047" xlink:href="#DejaVuSans-52"/>
      </g>
     </g>
    </g>
   </g>
   <g id="line2d_11">
    <path clip-path="url(#p5eaeb1ba59)" d="M 256.130922 525.24 
L 256.130922 402.93 
" style="fill:none;stroke:#ff6384;stroke-dasharray:5.55,2.4;stroke-dashoffset:0;stroke-opacity:0.8;stroke-width:1.5;"/>
   </g>
   <g id="line2d_12">
    <path clip-path="url(#p5eaeb1ba59)" d="M 293.430717 525.24 
L 293.430717 402.93 
" style="fill:none;stroke:#36a2eb;stroke-dasharray:5.55,2.4;stroke-dashoffset:0;stroke-opacity:0.8;stroke-width:1.5;"/>
   </g>
   <g id="line2d_13">
    <path clip-path="url(#p5eaeb1ba59)" d="M 243.407467 525.24 
L 243.407467 402.93 
" style="fill:none;stroke:#4bc0c0;stroke-dasharray:5.55,2.4;stroke-dashoffset:0;stroke-opacity:0.8;stroke-width:1.5;"/>
   </g>
   <g id="patch_12">
    <path d="M 36 525.24 
L 538.2 525.24 
" style="fill:none;stroke:#000000;stroke-linecap:square;stroke-linejoin:miter;stroke-width:0.8;"/>
   </g>
  </g>
 </g>
 <defs>
  <clipPath id="pc2ce534192">
   <rect height="366.93" width="502.2" x="36" y="36"/>
  </clipPath>
  <clipPath id="p5eaeb1ba59">
   <rect height="122.31" width="502.2" x="36" y="402.93"/>
  </clipPath>
 </defs>
</svg>
