<?xml version="1.0" encoding="utf-8" standalone="no"?>
<!DOCTYPE svg PUBLIC "-//W3C//DTD SVG 1.1//EN"
  "http://www.w3.org/Graphics/SVG/1.1/DTD/svg11.dtd">
<!-- Created with matplotlib (https://matplotlib.org/) -->
<svg height="581.789375pt" version="1.1" viewBox="0 0 574.2 581.789375" width="574.2pt" xmlns="http://www.w3.org/2000/svg" xmlns:xlink="http://www.w3.org/1999/xlink">
 <defs>
  <style type="text/css">
*{stroke-linecap:butt;stroke-linejoin:round;}
  </style>
 </defs>
 <g id="figure_1">
  <g id="patch_1">
   <path d="M 0 581.789375 
L 574.2 581.789375 
L 574.2 0 
L 0 0 
z
" style="fill:none;"/>
  </g>
  <g id="axes_1">
   <g id="patch_2">
    <path d="M 36 402.93 
L 538.2 402.93 
L 538.2 36 
L 36 36 
z
" style="fill:none;"/>
   </g>
   <g id="PolyCollection_1">
    <defs>
     <path d="M 58.827273 -195.538011 
L 58.827273 -195.650004 
L 62.221104 -195.692234 
L 65.614936 -195.749007 
L 69.008767 -195.8248 
L 72.402599 -195.925281 
L 75.79643 -196.057565 
L 79.190261 -196.230497 
L 82.584093 -196.454982 
L 85.977924 -196.744335 
L 89.371756 -197.114666 
L 92.765587 -197.585273 
L 96.159419 -198.179047 
L 99.55325 -198.922859 
L 102.947082 -199.847921 
L 106.340913 -200.990079 
L 109.734745 -202.390029 
L 113.128576 -204.093399 
L 116.522408 -206.150691 
L 119.916239 -208.617009 
L 123.31007 -211.551575 
L 126.703902 -215.016962 
L 130.097733 -219.078053 
L 133.491565 -223.800667 
L 136.885396 -229.249878 
L 140.279228 -235.488004 
L 143.673059 -242.572312 
L 147.066891 -250.552459 
L 150.460722 -259.467747 
L 153.854554 -269.344261 
L 157.248385 -280.192004 
L 160.642217 -292.002137 
L 164.036048 -304.744465 
L 167.429879 -318.365297 
L 170.823711 -332.785841 
L 174.217542 -347.901251 
L 177.611374 -363.580456 
L 181.005205 -379.666871 
L 184.399037 -395.980052 
L 187.792868 -412.31833 
L 191.1867 -428.4624 
L 194.580531 -444.179822 
L 197.974363 -459.230303 
L 201.368194 -473.371627 
L 204.762025 -486.366018 
L 208.155857 -497.986726 
L 211.549688 -508.02457 
L 214.94352 -516.294181 
L 218.337351 -522.639693 
L 221.731183 -526.939623 
L 225.125014 -529.110739 
L 228.518846 -529.110739 
L 231.912677 -526.939623 
L 235.306509 -522.639693 
L 238.70034 -516.294181 
L 242.094172 -508.02457 
L 245.488003 -497.986726 
L 248.881834 -486.366018 
L 252.275666 -473.371627 
L 255.669497 -459.230303 
L 259.063329 -444.179822 
L 262.45716 -428.4624 
L 265.850992 -412.31833 
L 269.244823 -395.980052 
L 272.638655 -379.666871 
L 276.032486 -363.580456 
L 279.426318 -347.901251 
L 282.820149 -332.785841 
L 286.213981 -318.365297 
L 289.607812 -304.744465 
L 293.001643 -292.002137 
L 296.395475 -280.192004 
L 299.789306 -269.344261 
L 303.183138 -259.467747 
L 306.576969 -250.552459 
L 309.970801 -242.572312 
L 313.364632 -235.488004 
L 316.758464 -229.249878 
L 320.152295 -223.800667 
L 323.546127 -219.078053 
L 326.939958 -215.016962 
L 330.33379 -211.551575 
L 333.727621 -208.617009 
L 337.121452 -206.150691 
L 340.515284 -204.093399 
L 343.909115 -202.390029 
L 347.302947 -200.990079 
L 350.696778 -199.847921 
L 354.09061 -198.922859 
L 357.484441 -198.179047 
L 360.878273 -197.585273 
L 364.272104 -197.114666 
L 367.665936 -196.744335 
L 371.059767 -196.454982 
L 374.453598 -196.230497 
L 377.84743 -196.057565 
L 381.241261 -195.925281 
L 384.635093 -195.8248 
L 388.028924 -195.749007 
L 391.422756 -195.692234 
L 394.816587 -195.650004 
L 394.816587 -195.538011 
L 394.816587 -195.538011 
L 391.422756 -195.538011 
L 388.028924 -195.538011 
L 384.635093 -195.538011 
L 381.241261 -195.538011 
L 377.84743 -195.538011 
L 374.453598 -195.538011 
L 371.059767 -195.538011 
L 367.665936 -195.538011 
L 364.272104 -195.538011 
L 360.878273 -195.538011 
L 357.484441 -195.538011 
L 354.09061 -195.538011 
L 350.696778 -195.538011 
L 347.302947 -195.538011 
L 343.909115 -195.538011 
L 340.515284 -195.538011 
L 337.121452 -195.538011 
L 333.727621 -195.538011 
L 330.33379 -195.538011 
L 326.939958 -195.538011 
L 323.546127 -195.538011 
L 320.152295 -195.538011 
L 316.758464 -195.538011 
L 313.364632 -195.538011 
L 309.970801 -195.538011 
L 306.576969 -195.538011 
L 303.183138 -195.538011 
L 299.789306 -195.538011 
L 296.395475 -195.538011 
L 293.001643 -195.538011 
L 289.607812 -195.538011 
L 286.213981 -195.538011 
L 282.820149 -195.538011 
L 279.426318 -195.538011 
L 276.032486 -195.538011 
L 272.638655 -195.538011 
L 269.244823 -195.538011 
L 265.850992 -195.538011 
L 262.45716 -195.538011 
L 259.063329 -195.538011 
L 255.669497 -195.538011 
L 252.275666 -195.538011 
L 248.881834 -195.538011 
L 245.488003 -195.538011 
L 242.094172 -195.538011 
L 238.70034 -195.538011 
L 235.306509 -195.538011 
L 231.912677 -195.538011 
L 228.518846 -195.538011 
L 225.125014 -195.538011 
L 221.731183 -195.538011 
L 218.337351 -195.538011 
L 214.94352 -195.538011 
L 211.549688 -195.538011 
L 208.155857 -195.538011 
L 204.762025 -195.538011 
L 201.368194 -195.538011 
L 197.974363 -195.538011 
L 194.580531 -195.538011 
L 191.1867 -195.538011 
L 187.792868 -195.538011 
L 184.399037 -195.538011 
L 181.005205 -195.538011 
L 177.611374 -195.538011 
L 174.217542 -195.538011 
L 170.823711 -195.538011 
L 167.429879 -195.538011 
L 164.036048 -195.538011 
L 160.642217 -195.538011 
L 157.248385 -195.538011 
L 153.854554 -195.538011 
L 150.460722 -195.538011 
L 147.066891 -195.538011 
L 143.673059 -195.538011 
L 140.279228 -195.538011 
L 136.885396 -195.538011 
L 133.491565 -195.538011 
L 130.097733 -195.538011 
L 126.703902 -195.538011 
L 123.31007 -195.538011 
L 119.916239 -195.538011 
L 116.522408 -195.538011 
L 113.128576 -195.538011 
L 109.734745 -195.538011 
L 106.340913 -195.538011 
L 102.947082 -195.538011 
L 99.55325 -195.538011 
L 96.159419 -195.538011 
L 92.765587 -195.538011 
L 89.371756 -195.538011 
L 85.977924 -195.538011 
L 82.584093 -195.538011 
L 79.190261 -195.538011 
L 75.79643 -195.538011 
L 72.402599 -195.538011 
L 69.008767 -195.538011 
L 65.614936 -195.538011 
L 62.221104 -195.538011 
L 58.827273 -195.538011 
z
" id="mfbb8d26084" style="stroke:#ff6384;stroke-opacity:0.5;"/>
    </defs>
    <g clip-path="url(#pdf75be7348)">
     <use style="fill:#ff6384;fill-opacity:0.5;stroke:#ff6384;stroke-opacity:0.5;" x="0" xlink:href="#mfbb8d26084" y="581.789375"/>
    </g>
   </g>
   <g id="PolyCollection_2">
    <defs>
     <path d="M 92.005279 -195.538011 
L 92.005279 -195.62689 
L 96.281718 -195.660405 
L 100.558157 -195.70546 
L 104.834596 -195.76561 
L 109.111034 -195.845353 
L 113.387473 -195.950335 
L 117.663912 -196.087576 
L 121.940351 -196.26573 
L 126.21679 -196.495364 
L 130.493229 -196.789263 
L 134.769668 -197.162742 
L 139.046107 -197.633968 
L 143.322545 -198.224266 
L 147.598984 -198.958406 
L 151.875423 -199.864836 
L 156.151862 -200.975852 
L 160.428301 -202.327666 
L 164.70474 -203.960357 
L 168.981179 -205.917656 
L 173.257617 -208.246561 
L 177.534056 -210.996733 
L 181.810495 -214.219661 
L 186.086934 -217.967583 
L 190.363373 -222.292139 
L 194.639812 -227.242789 
L 198.916251 -232.864978 
L 203.19269 -239.198115 
L 207.469128 -246.27339 
L 211.745567 -254.111506 
L 216.022006 -262.720401 
L 220.298445 -272.09306 
L 224.574884 -282.205519 
L 228.851323 -293.015169 
L 233.127762 -304.45948 
L 237.404201 -316.455244 
L 241.680639 -328.898443 
L 245.957078 -341.664809 
L 250.233517 -354.611138 
L 254.509956 -367.577385 
L 258.786395 -380.389506 
L 263.062834 -392.863034 
L 267.339273 -404.807271 
L 271.615712 -416.029989 
L 275.89215 -426.342489 
L 280.168589 -435.564817 
L 284.445028 -443.530966 
L 288.721467 -450.093826 
L 292.997906 -455.129698 
L 297.274345 -458.542172 
L 301.550784 -460.265194 
L 305.827223 -460.265194 
L 310.103661 -458.542172 
L 314.3801 -455.129698 
L 318.656539 -450.093826 
L 322.932978 -443.530966 
L 327.209417 -435.564817 
L 331.485856 -426.342489 
L 335.762295 -416.029989 
L 340.038734 -404.807271 
L 344.315172 -392.863034 
L 348.591611 -380.389506 
L 352.86805 -367.577385 
L 357.144489 -354.611138 
L 361.420928 -341.664809 
L 365.697367 -328.898443 
L 369.973806 -316.455244 
L 374.250244 -304.45948 
L 378.526683 -293.015169 
L 382.803122 -282.205519 
L 387.079561 -272.09306 
L 391.356 -262.720401 
L 395.632439 -254.111506 
L 399.908878 -246.27339 
L 404.185317 -239.198115 
L 408.461755 -232.864978 
L 412.738194 -227.242789 
L 417.014633 -222.292139 
L 421.291072 -217.967583 
L 425.567511 -214.219661 
L 429.84395 -210.996733 
L 434.120389 -208.246561 
L 438.396828 -205.917656 
L 442.673266 -203.960357 
L 446.949705 -202.327666 
L 451.226144 -200.975852 
L 455.502583 -199.864836 
L 459.779022 -198.958406 
L 464.055461 -198.224266 
L 468.3319 -197.633968 
L 472.608339 -197.162742 
L 476.884777 -196.789263 
L 481.161216 -196.495364 
L 485.437655 -196.26573 
L 489.714094 -196.087576 
L 493.990533 -195.950335 
L 498.266972 -195.845353 
L 502.543411 -195.76561 
L 506.81985 -195.70546 
L 511.096288 -195.660405 
L 515.372727 -195.62689 
L 515.372727 -195.538011 
L 515.372727 -195.538011 
L 511.096288 -195.538011 
L 506.81985 -195.538011 
L 502.543411 -195.538011 
L 498.266972 -195.538011 
L 493.990533 -195.538011 
L 489.714094 -195.538011 
L 485.437655 -195.538011 
L 481.161216 -195.538011 
L 476.884777 -195.538011 
L 472.608339 -195.538011 
L 468.3319 -195.538011 
L 464.055461 -195.538011 
L 459.779022 -195.538011 
L 455.502583 -195.538011 
L 451.226144 -195.538011 
L 446.949705 -195.538011 
L 442.673266 -195.538011 
L 438.396828 -195.538011 
L 434.120389 -195.538011 
L 429.84395 -195.538011 
L 425.567511 -195.538011 
L 421.291072 -195.538011 
L 417.014633 -195.538011 
L 412.738194 -195.538011 
L 408.461755 -195.538011 
L 404.185317 -195.538011 
L 399.908878 -195.538011 
L 395.632439 -195.538011 
L 391.356 -195.538011 
L 387.079561 -195.538011 
L 382.803122 -195.538011 
L 378.526683 -195.538011 
L 374.250244 -195.538011 
L 369.973806 -195.538011 
L 365.697367 -195.538011 
L 361.420928 -195.538011 
L 357.144489 -195.538011 
L 352.86805 -195.538011 
L 348.591611 -195.538011 
L 344.315172 -195.538011 
L 340.038734 -195.538011 
L 335.762295 -195.538011 
L 331.485856 -195.538011 
L 327.209417 -195.538011 
L 322.932978 -195.538011 
L 318.656539 -195.538011 
L 314.3801 -195.538011 
L 310.103661 -195.538011 
L 305.827223 -195.538011 
L 301.550784 -195.538011 
L 297.274345 -195.538011 
L 292.997906 -195.538011 
L 288.721467 -195.538011 
L 284.445028 -195.538011 
L 280.168589 -195.538011 
L 275.89215 -195.538011 
L 271.615712 -195.538011 
L 267.339273 -195.538011 
L 263.062834 -195.538011 
L 258.786395 -195.538011 
L 254.509956 -195.538011 
L 250.233517 -195.538011 
L 245.957078 -195.538011 
L 241.680639 -195.538011 
L 237.404201 -195.538011 
L 233.127762 -195.538011 
L 228.851323 -195.538011 
L 224.574884 -195.538011 
L 220.298445 -195.538011 
L 216.022006 -195.538011 
L 211.745567 -195.538011 
L 207.469128 -195.538011 
L 203.19269 -195.538011 
L 198.916251 -195.538011 
L 194.639812 -195.538011 
L 190.363373 -195.538011 
L 186.086934 -195.538011 
L 181.810495 -195.538011 
L 177.534056 -195.538011 
L 173.257617 -195.538011 
L 168.981179 -195.538011 
L 164.70474 -195.538011 
L 160.428301 -195.538011 
L 156.151862 -195.538011 
L 151.875423 -195.538011 
L 147.598984 -195.538011 
L 143.322545 -195.538011 
L 139.046107 -195.538011 
L 134.769668 -195.538011 
L 130.493229 -195.538011 
L 126.21679 -195.538011 
L 121.940351 -195.538011 
L 117.663912 -195.538011 
L 113.387473 -195.538011 
L 109.111034 -195.538011 
L 104.834596 -195.538011 
L 100.558157 -195.538011 
L 96.281718 -195.538011 
L 92.005279 -195.538011 
z
" id="ma4338fa821" style="stroke:#36a2eb;stroke-opacity:0.5;"/>
    </defs>
    <g clip-path="url(#pdf75be7348)">
     <use style="fill:#36a2eb;fill-opacity:0.5;stroke:#36a2eb;stroke-opacity:0.5;" x="0" xlink:href="#ma4338fa821" y="581.789375"/>
    </g>
   </g>
   <g id="PolyCollection_3">
    <defs>
     <path d="M 159.629089 -195.538011 
L 159.629089 -195.645599 
L 163.161873 -195.686168 
L 166.694657 -195.740708 
L 170.227441 -195.81352 
L 173.760225 -195.910049 
L 177.293009 -196.03713 
L 180.825793 -196.20326 
L 184.358577 -196.418915 
L 187.891361 -196.696888 
L 191.424145 -197.052653 
L 194.956929 -197.504749 
L 198.489713 -198.075169 
L 202.022497 -198.789725 
L 205.555281 -199.678402 
L 209.088065 -200.775637 
L 212.620849 -202.120523 
L 216.153633 -203.756896 
L 219.686417 -205.73327 
L 223.219201 -208.102582 
L 226.751985 -210.921724 
L 230.284769 -214.25081 
L 233.817553 -218.152169 
L 237.350336 -222.689032 
L 240.88312 -227.923913 
L 244.415904 -233.916679 
L 247.948688 -240.722345 
L 251.481472 -248.388614 
L 255.014256 -256.953243 
L 258.54704 -266.441291 
L 262.079824 -276.862367 
L 265.612608 -288.207981 
L 269.145392 -300.449124 
L 272.678176 -313.534217 
L 276.21096 -327.387568 
L 279.743744 -341.908454 
L 283.276528 -356.97096 
L 286.809312 -372.424659 
L 290.342096 -388.096206 
L 293.87488 -403.791861 
L 297.407664 -419.300948 
L 300.940448 -434.400167 
L 304.473232 -448.858678 
L 308.006016 -462.443791 
L 311.5388 -474.927083 
L 315.071584 -486.090722 
L 318.604368 -495.733754 
L 322.137152 -503.678103 
L 325.669936 -509.774031 
L 329.20272 -513.904835 
L 332.735504 -515.990556 
L 336.268288 -515.990556 
L 339.801072 -513.904835 
L 343.333856 -509.774031 
L 346.86664 -503.678103 
L 350.399424 -495.733754 
L 353.932208 -486.090722 
L 357.464992 -474.927083 
L 360.997776 -462.443791 
L 364.53056 -448.858678 
L 368.063344 -434.400167 
L 371.596128 -419.300948 
L 375.128912 -403.791861 
L 378.661696 -388.096206 
L 382.19448 -372.424659 
L 385.727264 -356.97096 
L 389.260048 -341.908454 
L 392.792832 -327.387568 
L 396.325616 -313.534217 
L 399.8584 -300.449124 
L 403.391184 -288.207981 
L 406.923968 -276.862367 
L 410.456752 -266.441291 
L 413.989536 -256.953243 
L 417.52232 -248.388614 
L 421.055104 -240.722345 
L 424.587888 -233.916679 
L 428.120672 -227.923913 
L 431.653456 -222.689032 
L 435.18624 -218.152169 
L 438.719024 -214.25081 
L 442.251808 -210.921724 
L 445.784592 -208.102582 
L 449.317376 -205.73327 
L 452.85016 -203.756896 
L 456.382943 -202.120523 
L 459.915727 -200.775637 
L 463.448511 -199.678402 
L 466.981295 -198.789725 
L 470.514079 -198.075169 
L 474.046863 -197.504749 
L 477.579647 -197.052653 
L 481.112431 -196.696888 
L 484.645215 -196.418915 
L 488.177999 -196.20326 
L 491.710783 -196.03713 
L 495.243567 -195.910049 
L 498.776351 -195.81352 
L 502.309135 -195.740708 
L 505.841919 -195.686168 
L 509.374703 -195.645599 
L 509.374703 -195.538011 
L 509.374703 -195.538011 
L 505.841919 -195.538011 
L 502.309135 -195.538011 
L 498.776351 -195.538011 
L 495.243567 -195.538011 
L 491.710783 -195.538011 
L 488.177999 -195.538011 
L 484.645215 -195.538011 
L 481.112431 -195.538011 
L 477.579647 -195.538011 
L 474.046863 -195.538011 
L 470.514079 -195.538011 
L 466.981295 -195.538011 
L 463.448511 -195.538011 
L 459.915727 -195.538011 
L 456.382943 -195.538011 
L 452.85016 -195.538011 
L 449.317376 -195.538011 
L 445.784592 -195.538011 
L 442.251808 -195.538011 
L 438.719024 -195.538011 
L 435.18624 -195.538011 
L 431.653456 -195.538011 
L 428.120672 -195.538011 
L 424.587888 -195.538011 
L 421.055104 -195.538011 
L 417.52232 -195.538011 
L 413.989536 -195.538011 
L 410.456752 -195.538011 
L 406.923968 -195.538011 
L 403.391184 -195.538011 
L 399.8584 -195.538011 
L 396.325616 -195.538011 
L 392.792832 -195.538011 
L 389.260048 -195.538011 
L 385.727264 -195.538011 
L 382.19448 -195.538011 
L 378.661696 -195.538011 
L 375.128912 -195.538011 
L 371.596128 -195.538011 
L 368.063344 -195.538011 
L 364.53056 -195.538011 
L 360.997776 -195.538011 
L 357.464992 -195.538011 
L 353.932208 -195.538011 
L 350.399424 -195.538011 
L 346.86664 -195.538011 
L 343.333856 -195.538011 
L 339.801072 -195.538011 
L 336.268288 -195.538011 
L 332.735504 -195.538011 
L 329.20272 -195.538011 
L 325.669936 -195.538011 
L 322.137152 -195.538011 
L 318.604368 -195.538011 
L 315.071584 -195.538011 
L 311.5388 -195.538011 
L 308.006016 -195.538011 
L 304.473232 -195.538011 
L 300.940448 -195.538011 
L 297.407664 -195.538011 
L 293.87488 -195.538011 
L 290.342096 -195.538011 
L 286.809312 -195.538011 
L 283.276528 -195.538011 
L 279.743744 -195.538011 
L 276.21096 -195.538011 
L 272.678176 -195.538011 
L 269.145392 -195.538011 
L 265.612608 -195.538011 
L 262.079824 -195.538011 
L 258.54704 -195.538011 
L 255.014256 -195.538011 
L 251.481472 -195.538011 
L 247.948688 -195.538011 
L 244.415904 -195.538011 
L 240.88312 -195.538011 
L 237.350336 -195.538011 
L 233.817553 -195.538011 
L 230.284769 -195.538011 
L 226.751985 -195.538011 
L 223.219201 -195.538011 
L 219.686417 -195.538011 
L 216.153633 -195.538011 
L 212.620849 -195.538011 
L 209.088065 -195.538011 
L 205.555281 -195.538011 
L 202.022497 -195.538011 
L 198.489713 -195.538011 
L 194.956929 -195.538011 
L 191.424145 -195.538011 
L 187.891361 -195.538011 
L 184.358577 -195.538011 
L 180.825793 -195.538011 
L 177.293009 -195.538011 
L 173.760225 -195.538011 
L 170.227441 -195.538011 
L 166.694657 -195.538011 
L 163.161873 -195.538011 
L 159.629089 -195.538011 
z
" id="mc71be49163" style="stroke:#4bc0c0;stroke-opacity:0.5;"/>
    </defs>
    <g clip-path="url(#pdf75be7348)">
     <use style="fill:#4bc0c0;fill-opacity:0.5;stroke:#4bc0c0;stroke-opacity:0.5;" x="0" xlink:href="#mc71be49163" y="581.789375"/>
    </g>
   </g>
   <g id="line2d_1">
    <path clip-path="url(#pdf75be7348)" d="M 58.827273 386.139371 
L 62.221104 386.097141 
L 65.614936 386.040368 
L 69.008767 385.964575 
L 72.402599 385.864094 
L 75.79643 385.73181 
L 79.190261 385.558878 
L 82.584093 385.334393 
L 85.977924 385.04504 
L 89.371756 384.674709 
L 92.765587 384.204102 
L 96.159419 383.610328 
L 99.55325 382.866516 
L 102.947082 381.941454 
L 106.340913 380.799296 
L 109.734745 379.399346 
L 113.128576 377.695976 
L 116.522408 375.638684 
L 119.916239 373.172366 
L 123.31007 370.2378 
L 126.703902 366.772413 
L 130.097733 362.711322 
L 133.491565 357.988708 
L 136.885396 352.539497 
L 140.279228 346.301371 
L 143.673059 339.217063 
L 147.066891 331.236916 
L 150.460722 322.321628 
L 153.854554 312.445114 
L 157.248385 301.597371 
L 160.642217 289.787238 
L 164.036048 277.04491 
L 167.429879 263.424078 
L 170.823711 249.003534 
L 174.217542 233.888124 
L 177.611374 218.208919 
L 181.005205 202.122504 
L 184.399037 185.809323 
L 187.792868 169.471045 
L 191.1867 153.326975 
L 194.580531 137.609553 
L 197.974363 122.559072 
L 201.368194 108.417748 
L 204.762025 95.423357 
L 208.155857 83.802649 
L 211.549688 73.764805 
L 214.94352 65.495194 
L 218.337351 59.149682 
L 221.731183 54.849752 
L 225.125014 52.678636 
L 228.518846 52.678636 
L 231.912677 54.849752 
L 235.306509 59.149682 
L 238.70034 65.495194 
L 242.094172 73.764805 
L 245.488003 83.802649 
L 248.881834 95.423357 
L 252.275666 108.417748 
L 255.669497 122.559072 
L 259.063329 137.609553 
L 262.45716 153.326975 
L 265.850992 169.471045 
L 269.244823 185.809323 
L 272.638655 202.122504 
L 276.032486 218.208919 
L 279.426318 233.888124 
L 282.820149 249.003534 
L 286.213981 263.424078 
L 289.607812 277.04491 
L 293.001643 289.787238 
L 296.395475 301.597371 
L 299.789306 312.445114 
L 303.183138 322.321628 
L 306.576969 331.236916 
L 309.970801 339.217063 
L 313.364632 346.301371 
L 316.758464 352.539497 
L 320.152295 357.988708 
L 323.546127 362.711322 
L 326.939958 366.772413 
L 330.33379 370.2378 
L 333.727621 373.172366 
L 337.121452 375.638684 
L 340.515284 377.695976 
L 343.909115 379.399346 
L 347.302947 380.799296 
L 350.696778 381.941454 
L 354.09061 382.866516 
L 357.484441 383.610328 
L 360.878273 384.204102 
L 364.272104 384.674709 
L 367.665936 385.04504 
L 371.059767 385.334393 
L 374.453598 385.558878 
L 377.84743 385.73181 
L 381.241261 385.864094 
L 384.635093 385.964575 
L 388.028924 386.040368 
L 391.422756 386.097141 
L 394.816587 386.139371 
" style="fill:none;stroke:#ff6384;stroke-linecap:square;"/>
   </g>
   <g id="line2d_2">
    <path clip-path="url(#pdf75be7348)" d="M 92.005279 386.162485 
L 96.281718 386.12897 
L 100.558157 386.083915 
L 104.834596 386.023765 
L 109.111034 385.944022 
L 113.387473 385.83904 
L 117.663912 385.701799 
L 121.940351 385.523645 
L 126.21679 385.294011 
L 130.493229 385.000112 
L 134.769668 384.626633 
L 139.046107 384.155407 
L 143.322545 383.565109 
L 147.598984 382.830969 
L 151.875423 381.924539 
L 156.151862 380.813523 
L 160.428301 379.461709 
L 164.70474 377.829018 
L 168.981179 375.871719 
L 173.257617 373.542814 
L 177.534056 370.792642 
L 181.810495 367.569714 
L 186.086934 363.821792 
L 190.363373 359.497236 
L 194.639812 354.546586 
L 198.916251 348.924397 
L 203.19269 342.59126 
L 207.469128 335.515985 
L 211.745567 327.677869 
L 216.022006 319.068974 
L 220.298445 309.696315 
L 224.574884 299.583856 
L 228.851323 288.774206 
L 233.127762 277.329895 
L 237.404201 265.334131 
L 241.680639 252.890932 
L 245.957078 240.124566 
L 250.233517 227.178237 
L 254.509956 214.21199 
L 258.786395 201.399869 
L 263.062834 188.926341 
L 267.339273 176.982104 
L 271.615712 165.759386 
L 275.89215 155.446886 
L 280.168589 146.224558 
L 284.445028 138.258409 
L 288.721467 131.695549 
L 292.997906 126.659677 
L 297.274345 123.247203 
L 301.550784 121.524181 
L 305.827223 121.524181 
L 310.103661 123.247203 
L 314.3801 126.659677 
L 318.656539 131.695549 
L 322.932978 138.258409 
L 327.209417 146.224558 
L 331.485856 155.446886 
L 335.762295 165.759386 
L 340.038734 176.982104 
L 344.315172 188.926341 
L 348.591611 201.399869 
L 352.86805 214.21199 
L 357.144489 227.178237 
L 361.420928 240.124566 
L 365.697367 252.890932 
L 369.973806 265.334131 
L 374.250244 277.329895 
L 378.526683 288.774206 
L 382.803122 299.583856 
L 387.079561 309.696315 
L 391.356 319.068974 
L 395.632439 327.677869 
L 399.908878 335.515985 
L 404.185317 342.59126 
L 408.461755 348.924397 
L 412.738194 354.546586 
L 417.014633 359.497236 
L 421.291072 363.821792 
L 425.567511 367.569714 
L 429.84395 370.792642 
L 434.120389 373.542814 
L 438.396828 375.871719 
L 442.673266 377.829018 
L 446.949705 379.461709 
L 451.226144 380.813523 
L 455.502583 381.924539 
L 459.779022 382.830969 
L 464.055461 383.565109 
L 468.3319 384.155407 
L 472.608339 384.626633 
L 476.884777 385.000112 
L 481.161216 385.294011 
L 485.437655 385.523645 
L 489.714094 385.701799 
L 493.990533 385.83904 
L 498.266972 385.944022 
L 502.543411 386.023765 
L 506.81985 386.083915 
L 511.096288 386.12897 
L 515.372727 386.162485 
" style="fill:none;stroke:#36a2eb;stroke-linecap:square;"/>
   </g>
   <g id="line2d_3">
    <path clip-path="url(#pdf75be7348)" d="M 159.629089 386.143776 
L 163.161873 386.103207 
L 166.694657 386.048667 
L 170.227441 385.975855 
L 173.760225 385.879326 
L 177.293009 385.752245 
L 180.825793 385.586115 
L 184.358577 385.37046 
L 187.891361 385.092487 
L 191.424145 384.736722 
L 194.956929 384.284626 
L 198.489713 383.714206 
L 202.022497 382.99965 
L 205.555281 382.110973 
L 209.088065 381.013738 
L 212.620849 379.668852 
L 216.153633 378.032479 
L 219.686417 376.056105 
L 223.219201 373.686793 
L 226.751985 370.867651 
L 230.284769 367.538565 
L 233.817553 363.637206 
L 237.350336 359.100343 
L 240.88312 353.865462 
L 244.415904 347.872696 
L 247.948688 341.06703 
L 251.481472 333.400761 
L 255.014256 324.836132 
L 258.54704 315.348084 
L 262.079824 304.927008 
L 265.612608 293.581394 
L 269.145392 281.340251 
L 272.678176 268.255158 
L 276.21096 254.401807 
L 279.743744 239.880921 
L 283.276528 224.818415 
L 286.809312 209.364716 
L 290.342096 193.693169 
L 293.87488 177.997514 
L 297.407664 162.488427 
L 300.940448 147.389208 
L 304.473232 132.930697 
L 308.006016 119.345584 
L 311.5388 106.862292 
L 315.071584 95.698653 
L 318.604368 86.055621 
L 322.137152 78.111272 
L 325.669936 72.015344 
L 329.20272 67.88454 
L 332.735504 65.798819 
L 336.268288 65.798819 
L 339.801072 67.88454 
L 343.333856 72.015344 
L 346.86664 78.111272 
L 350.399424 86.055621 
L 353.932208 95.698653 
L 357.464992 106.862292 
L 360.997776 119.345584 
L 364.53056 132.930697 
L 368.063344 147.389208 
L 371.596128 162.488427 
L 375.128912 177.997514 
L 378.661696 193.693169 
L 382.19448 209.364716 
L 385.727264 224.818415 
L 389.260048 239.880921 
L 392.792832 254.401807 
L 396.325616 268.255158 
L 399.8584 281.340251 
L 403.391184 293.581394 
L 406.923968 304.927008 
L 410.456752 315.348084 
L 413.989536 324.836132 
L 417.52232 333.400761 
L 421.055104 341.06703 
L 424.587888 347.872696 
L 428.120672 353.865462 
L 431.653456 359.100343 
L 435.18624 363.637206 
L 438.719024 367.538565 
L 442.251808 370.867651 
L 445.784592 373.686793 
L 449.317376 376.056105 
L 452.85016 378.032479 
L 456.382943 379.668852 
L 459.915727 381.013738 
L 463.448511 382.110973 
L 466.981295 382.99965 
L 470.514079 383.714206 
L 474.046863 384.284626 
L 477.579647 384.736722 
L 481.112431 385.092487 
L 484.645215 385.37046 
L 488.177999 385.586115 
L 491.710783 385.752245 
L 495.243567 385.879326 
L 498.776351 385.975855 
L 502.309135 386.048667 
L 505.841919 386.103207 
L 509.374703 386.143776 
" style="fill:none;stroke:#4bc0c0;stroke-linecap:square;"/>
   </g>
   <g id="patch_3">
    <path d="M 36 402.93 
L 538.2 402.93 
" style="fill:none;stroke:#000000;stroke-linecap:square;stroke-linejoin:miter;stroke-width:0.8;"/>
   </g>
   <g id="legend_1">
    <g id="patch_4">
     <path d="M 401.81375 109.626875 
L 528.4 109.626875 
Q 531.2 109.626875 531.2 106.826875 
L 531.2 45.8 
Q 531.2 43 528.4 43 
L 401.81375 43 
Q 399.01375 43 399.01375 45.8 
L 399.01375 106.826875 
Q 399.01375 109.626875 401.81375 109.626875 
z
" style="fill:#ffffff;opacity:0.8;stroke:#cccccc;stroke-linejoin:miter;"/>
    </g>
    <g id="patch_5">
     <path d="M 404.61375 59.237813 
L 432.61375 59.237813 
L 432.61375 49.437813 
L 404.61375 49.437813 
z
" style="fill:#ff6384;opacity:0.5;stroke:#ff6384;stroke-linejoin:miter;"/>
    </g>
    <g id="text_1">
     <!-- base -->
     <defs>
      <path d="M 48.6875 27.296875 
Q 48.6875 37.203125 44.609375 42.84375 
Q 40.53125 48.484375 33.40625 48.484375 
Q 26.265625 48.484375 22.1875 42.84375 
Q 18.109375 37.203125 18.109375 27.296875 
Q 18.109375 17.390625 22.1875 11.75 
Q 26.265625 6.109375 33.40625 6.109375 
Q 40.53125 6.109375 44.609375 11.75 
Q 48.6875 17.390625 48.6875 27.296875 
z
M 18.109375 46.390625 
Q 20.953125 51.265625 25.265625 53.625 
Q 29.59375 56 35.59375 56 
Q 45.5625 56 51.78125 48.09375 
Q 58.015625 40.1875 58.015625 27.296875 
Q 58.015625 14.40625 51.78125 6.484375 
Q 45.5625 -1.421875 35.59375 -1.421875 
Q 29.59375 -1.421875 25.265625 0.953125 
Q 20.953125 3.328125 18.109375 8.203125 
L 18.109375 0 
L 9.078125 0 
L 9.078125 75.984375 
L 18.109375 75.984375 
z
" id="DejaVuSans-98"/>
      <path d="M 34.28125 27.484375 
Q 23.390625 27.484375 19.1875 25 
Q 14.984375 22.515625 14.984375 16.5 
Q 14.984375 11.71875 18.140625 8.90625 
Q 21.296875 6.109375 26.703125 6.109375 
Q 34.1875 6.109375 38.703125 11.40625 
Q 43.21875 16.703125 43.21875 25.484375 
L 43.21875 27.484375 
z
M 52.203125 31.203125 
L 52.203125 0 
L 43.21875 0 
L 43.21875 8.296875 
Q 40.140625 3.328125 35.546875 0.953125 
Q 30.953125 -1.421875 24.3125 -1.421875 
Q 15.921875 -1.421875 10.953125 3.296875 
Q 6 8.015625 6 15.921875 
Q 6 25.140625 12.171875 29.828125 
Q 18.359375 34.515625 30.609375 34.515625 
L 43.21875 34.515625 
L 43.21875 35.40625 
Q 43.21875 41.609375 39.140625 45 
Q 35.0625 48.390625 27.6875 48.390625 
Q 23 48.390625 18.546875 47.265625 
Q 14.109375 46.140625 10.015625 43.890625 
L 10.015625 52.203125 
Q 14.9375 54.109375 19.578125 55.046875 
Q 24.21875 56 28.609375 56 
Q 40.484375 56 46.34375 49.84375 
Q 52.203125 43.703125 52.203125 31.203125 
z
" id="DejaVuSans-97"/>
      <path d="M 44.28125 53.078125 
L 44.28125 44.578125 
Q 40.484375 46.53125 36.375 47.5 
Q 32.28125 48.484375 27.875 48.484375 
Q 21.1875 48.484375 17.84375 46.4375 
Q 14.5 44.390625 14.5 40.28125 
Q 14.5 37.15625 16.890625 35.375 
Q 19.28125 33.59375 26.515625 31.984375 
L 29.59375 31.296875 
Q 39.15625 29.25 43.1875 25.515625 
Q 47.21875 21.78125 47.21875 15.09375 
Q 47.21875 7.46875 41.1875 3.015625 
Q 35.15625 -1.421875 24.609375 -1.421875 
Q 20.21875 -1.421875 15.453125 -0.5625 
Q 10.6875 0.296875 5.421875 2 
L 5.421875 11.28125 
Q 10.40625 8.6875 15.234375 7.390625 
Q 20.0625 6.109375 24.8125 6.109375 
Q 31.15625 6.109375 34.5625 8.28125 
Q 37.984375 10.453125 37.984375 14.40625 
Q 37.984375 18.0625 35.515625 20.015625 
Q 33.0625 21.96875 24.703125 23.78125 
L 21.578125 24.515625 
Q 13.234375 26.265625 9.515625 29.90625 
Q 5.8125 33.546875 5.8125 39.890625 
Q 5.8125 47.609375 11.28125 51.796875 
Q 16.75 56 26.8125 56 
Q 31.78125 56 36.171875 55.265625 
Q 40.578125 54.546875 44.28125 53.078125 
z
" id="DejaVuSans-115"/>
      <path d="M 56.203125 29.59375 
L 56.203125 25.203125 
L 14.890625 25.203125 
Q 15.484375 15.921875 20.484375 11.0625 
Q 25.484375 6.203125 34.421875 6.203125 
Q 39.59375 6.203125 44.453125 7.46875 
Q 49.3125 8.734375 54.109375 11.28125 
L 54.109375 2.78125 
Q 49.265625 0.734375 44.1875 -0.34375 
Q 39.109375 -1.421875 33.890625 -1.421875 
Q 20.796875 -1.421875 13.15625 6.1875 
Q 5.515625 13.8125 5.515625 26.8125 
Q 5.515625 40.234375 12.765625 48.109375 
Q 20.015625 56 32.328125 56 
Q 43.359375 56 49.78125 48.890625 
Q 56.203125 41.796875 56.203125 29.59375 
z
M 47.21875 32.234375 
Q 47.125 39.59375 43.09375 43.984375 
Q 39.0625 48.390625 32.421875 48.390625 
Q 24.90625 48.390625 20.390625 44.140625 
Q 15.875 39.890625 15.1875 32.171875 
z
" id="DejaVuSans-101"/>
     </defs>
     <g transform="translate(443.81375 59.237813)scale(0.14 -0.14)">
      <use xlink:href="#DejaVuSans-98"/>
      <use x="63.476562" xlink:href="#DejaVuSans-97"/>
      <use x="124.755859" xlink:href="#DejaVuSans-115"/>
      <use x="176.855469" xlink:href="#DejaVuSans-101"/>
     </g>
    </g>
    <g id="patch_6">
     <path d="M 404.61375 79.787188 
L 432.61375 79.787188 
L 432.61375 69.987188 
L 404.61375 69.987188 
z
" style="fill:#36a2eb;opacity:0.5;stroke:#36a2eb;stroke-linejoin:miter;"/>
    </g>
    <g id="text_2">
     <!-- osago_mid -->
     <defs>
      <path d="M 30.609375 48.390625 
Q 23.390625 48.390625 19.1875 42.75 
Q 14.984375 37.109375 14.984375 27.296875 
Q 14.984375 17.484375 19.15625 11.84375 
Q 23.34375 6.203125 30.609375 6.203125 
Q 37.796875 6.203125 41.984375 11.859375 
Q 46.1875 17.53125 46.1875 27.296875 
Q 46.1875 37.015625 41.984375 42.703125 
Q 37.796875 48.390625 30.609375 48.390625 
z
M 30.609375 56 
Q 42.328125 56 49.015625 48.375 
Q 55.71875 40.765625 55.71875 27.296875 
Q 55.71875 13.875 49.015625 6.21875 
Q 42.328125 -1.421875 30.609375 -1.421875 
Q 18.84375 -1.421875 12.171875 6.21875 
Q 5.515625 13.875 5.515625 27.296875 
Q 5.515625 40.765625 12.171875 48.375 
Q 18.84375 56 30.609375 56 
z
" id="DejaVuSans-111"/>
      <path d="M 45.40625 27.984375 
Q 45.40625 37.75 41.375 43.109375 
Q 37.359375 48.484375 30.078125 48.484375 
Q 22.859375 48.484375 18.828125 43.109375 
Q 14.796875 37.75 14.796875 27.984375 
Q 14.796875 18.265625 18.828125 12.890625 
Q 22.859375 7.515625 30.078125 7.515625 
Q 37.359375 7.515625 41.375 12.890625 
Q 45.40625 18.265625 45.40625 27.984375 
z
M 54.390625 6.78125 
Q 54.390625 -7.171875 48.1875 -13.984375 
Q 42 -20.796875 29.203125 -20.796875 
Q 24.46875 -20.796875 20.265625 -20.09375 
Q 16.0625 -19.390625 12.109375 -17.921875 
L 12.109375 -9.1875 
Q 16.0625 -11.328125 19.921875 -12.34375 
Q 23.78125 -13.375 27.78125 -13.375 
Q 36.625 -13.375 41.015625 -8.765625 
Q 45.40625 -4.15625 45.40625 5.171875 
L 45.40625 9.625 
Q 42.625 4.78125 38.28125 2.390625 
Q 33.9375 0 27.875 0 
Q 17.828125 0 11.671875 7.65625 
Q 5.515625 15.328125 5.515625 27.984375 
Q 5.515625 40.671875 11.671875 48.328125 
Q 17.828125 56 27.875 56 
Q 33.9375 56 38.28125 53.609375 
Q 42.625 51.21875 45.40625 46.390625 
L 45.40625 54.6875 
L 54.390625 54.6875 
z
" id="DejaVuSans-103"/>
      <path d="M 50.984375 -16.609375 
L 50.984375 -23.578125 
L -0.984375 -23.578125 
L -0.984375 -16.609375 
z
" id="DejaVuSans-95"/>
      <path d="M 52 44.1875 
Q 55.375 50.25 60.0625 53.125 
Q 64.75 56 71.09375 56 
Q 79.640625 56 84.28125 50.015625 
Q 88.921875 44.046875 88.921875 33.015625 
L 88.921875 0 
L 79.890625 0 
L 79.890625 32.71875 
Q 79.890625 40.578125 77.09375 44.375 
Q 74.3125 48.1875 68.609375 48.1875 
Q 61.625 48.1875 57.5625 43.546875 
Q 53.515625 38.921875 53.515625 30.90625 
L 53.515625 0 
L 44.484375 0 
L 44.484375 32.71875 
Q 44.484375 40.625 41.703125 44.40625 
Q 38.921875 48.1875 33.109375 48.1875 
Q 26.21875 48.1875 22.15625 43.53125 
Q 18.109375 38.875 18.109375 30.90625 
L 18.109375 0 
L 9.078125 0 
L 9.078125 54.6875 
L 18.109375 54.6875 
L 18.109375 46.1875 
Q 21.1875 51.21875 25.484375 53.609375 
Q 29.78125 56 35.6875 56 
Q 41.65625 56 45.828125 52.96875 
Q 50 49.953125 52 44.1875 
z
" id="DejaVuSans-109"/>
      <path d="M 9.421875 54.6875 
L 18.40625 54.6875 
L 18.40625 0 
L 9.421875 0 
z
M 9.421875 75.984375 
L 18.40625 75.984375 
L 18.40625 64.59375 
L 9.421875 64.59375 
z
" id="DejaVuSans-105"/>
      <path d="M 45.40625 46.390625 
L 45.40625 75.984375 
L 54.390625 75.984375 
L 54.390625 0 
L 45.40625 0 
L 45.40625 8.203125 
Q 42.578125 3.328125 38.25 0.953125 
Q 33.9375 -1.421875 27.875 -1.421875 
Q 17.96875 -1.421875 11.734375 6.484375 
Q 5.515625 14.40625 5.515625 27.296875 
Q 5.515625 40.1875 11.734375 48.09375 
Q 17.96875 56 27.875 56 
Q 33.9375 56 38.25 53.625 
Q 42.578125 51.265625 45.40625 46.390625 
z
M 14.796875 27.296875 
Q 14.796875 17.390625 18.875 11.75 
Q 22.953125 6.109375 30.078125 6.109375 
Q 37.203125 6.109375 41.296875 11.75 
Q 45.40625 17.390625 45.40625 27.296875 
Q 45.40625 37.203125 41.296875 42.84375 
Q 37.203125 48.484375 30.078125 48.484375 
Q 22.953125 48.484375 18.875 42.84375 
Q 14.796875 37.203125 14.796875 27.296875 
z
" id="DejaVuSans-100"/>
     </defs>
     <g transform="translate(443.81375 79.787188)scale(0.14 -0.14)">
      <use xlink:href="#DejaVuSans-111"/>
      <use x="61.181641" xlink:href="#DejaVuSans-115"/>
      <use x="113.28125" xlink:href="#DejaVuSans-97"/>
      <use x="174.560547" xlink:href="#DejaVuSans-103"/>
      <use x="238.037109" xlink:href="#DejaVuSans-111"/>
      <use x="299.21875" xlink:href="#DejaVuSans-95"/>
      <use x="349.21875" xlink:href="#DejaVuSans-109"/>
      <use x="446.630859" xlink:href="#DejaVuSans-105"/>
      <use x="474.414062" xlink:href="#DejaVuSans-100"/>
     </g>
    </g>
    <g id="patch_7">
     <path d="M 404.61375 100.725937 
L 432.61375 100.725937 
L 432.61375 90.925937 
L 404.61375 90.925937 
z
" style="fill:#4bc0c0;opacity:0.5;stroke:#4bc0c0;stroke-linejoin:miter;"/>
    </g>
    <g id="text_3">
     <!-- osago_right -->
     <defs>
      <path d="M 41.109375 46.296875 
Q 39.59375 47.171875 37.8125 47.578125 
Q 36.03125 48 33.890625 48 
Q 26.265625 48 22.1875 43.046875 
Q 18.109375 38.09375 18.109375 28.8125 
L 18.109375 0 
L 9.078125 0 
L 9.078125 54.6875 
L 18.109375 54.6875 
L 18.109375 46.1875 
Q 20.953125 51.171875 25.484375 53.578125 
Q 30.03125 56 36.53125 56 
Q 37.453125 56 38.578125 55.875 
Q 39.703125 55.765625 41.0625 55.515625 
z
" id="DejaVuSans-114"/>
      <path d="M 54.890625 33.015625 
L 54.890625 0 
L 45.90625 0 
L 45.90625 32.71875 
Q 45.90625 40.484375 42.875 44.328125 
Q 39.84375 48.1875 33.796875 48.1875 
Q 26.515625 48.1875 22.3125 43.546875 
Q 18.109375 38.921875 18.109375 30.90625 
L 18.109375 0 
L 9.078125 0 
L 9.078125 75.984375 
L 18.109375 75.984375 
L 18.109375 46.1875 
Q 21.34375 51.125 25.703125 53.5625 
Q 30.078125 56 35.796875 56 
Q 45.21875 56 50.046875 50.171875 
Q 54.890625 44.34375 54.890625 33.015625 
z
" id="DejaVuSans-104"/>
      <path d="M 18.3125 70.21875 
L 18.3125 54.6875 
L 36.8125 54.6875 
L 36.8125 47.703125 
L 18.3125 47.703125 
L 18.3125 18.015625 
Q 18.3125 11.328125 20.140625 9.421875 
Q 21.96875 7.515625 27.59375 7.515625 
L 36.8125 7.515625 
L 36.8125 0 
L 27.59375 0 
Q 17.1875 0 13.234375 3.875 
Q 9.28125 7.765625 9.28125 18.015625 
L 9.28125 47.703125 
L 2.6875 47.703125 
L 2.6875 54.6875 
L 9.28125 54.6875 
L 9.28125 70.21875 
z
" id="DejaVuSans-116"/>
     </defs>
     <g transform="translate(443.81375 100.725937)scale(0.14 -0.14)">
      <use xlink:href="#DejaVuSans-111"/>
      <use x="61.181641" xlink:href="#DejaVuSans-115"/>
      <use x="113.28125" xlink:href="#DejaVuSans-97"/>
      <use x="174.560547" xlink:href="#DejaVuSans-103"/>
      <use x="238.037109" xlink:href="#DejaVuSans-111"/>
      <use x="299.21875" xlink:href="#DejaVuSans-95"/>
      <use x="349.21875" xlink:href="#DejaVuSans-114"/>
      <use x="390.332031" xlink:href="#DejaVuSans-105"/>
      <use x="418.115234" xlink:href="#DejaVuSans-103"/>
      <use x="481.591797" xlink:href="#DejaVuSans-104"/>
      <use x="544.970703" xlink:href="#DejaVuSans-116"/>
     </g>
    </g>
   </g>
  </g>
  <g id="axes_2">
   <g id="patch_8">
    <path d="M 36 525.24 
L 538.2 525.24 
L 538.2 402.93 
L 36 402.93 
z
" style="fill:none;"/>
   </g>
   <g id="patch_9">
    <path clip-path="url(#p7d3032f507)" d="M 144.504548 519.680455 
L 309.139312 519.680455 
L 309.139312 497.442273 
L 144.504548 497.442273 
z
" style="fill:#ff6384;opacity:0.5;"/>
   </g>
   <g id="patch_10">
    <path clip-path="url(#p7d3032f507)" d="M 199.963978 475.204091 
L 407.414028 475.204091 
L 407.414028 452.965909 
L 199.963978 452.965909 
z
" style="fill:#36a2eb;opacity:0.5;"/>
   </g>
   <g id="patch_11">
    <path clip-path="url(#p7d3032f507)" d="M 248.814221 430.727727 
L 420.189572 430.727727 
L 420.189572 408.489545 
L 248.814221 408.489545 
z
" style="fill:#4bc0c0;opacity:0.5;"/>
   </g>
   <g id="matplotlib.axis_1">
    <g id="xtick_1">
     <g id="line2d_4">
      <defs>
       <path d="M 0 0 
L 0 3.5 
" id="mf876ddfd59" style="stroke:#000000;stroke-width:0.8;"/>
      </defs>
      <g>
       <use style="stroke:#000000;stroke-width:0.8;" x="113.58484" xlink:href="#mf876ddfd59" y="525.24"/>
      </g>
     </g>
     <g id="text_4">
      <!-- 36 -->
      <defs>
       <path d="M 40.578125 39.3125 
Q 47.65625 37.796875 51.625 33 
Q 55.609375 28.21875 55.609375 21.1875 
Q 55.609375 10.40625 48.1875 4.484375 
Q 40.765625 -1.421875 27.09375 -1.421875 
Q 22.515625 -1.421875 17.65625 -0.515625 
Q 12.796875 0.390625 7.625 2.203125 
L 7.625 11.71875 
Q 11.71875 9.328125 16.59375 8.109375 
Q 21.484375 6.890625 26.8125 6.890625 
Q 36.078125 6.890625 40.9375 10.546875 
Q 45.796875 14.203125 45.796875 21.1875 
Q 45.796875 27.640625 41.28125 31.265625 
Q 36.765625 34.90625 28.71875 34.90625 
L 20.21875 34.90625 
L 20.21875 43.015625 
L 29.109375 43.015625 
Q 36.375 43.015625 40.234375 45.921875 
Q 44.09375 48.828125 44.09375 54.296875 
Q 44.09375 59.90625 40.109375 62.90625 
Q 36.140625 65.921875 28.71875 65.921875 
Q 24.65625 65.921875 20.015625 65.03125 
Q 15.375 64.15625 9.8125 62.3125 
L 9.8125 71.09375 
Q 15.4375 72.65625 20.34375 73.4375 
Q 25.25 74.21875 29.59375 74.21875 
Q 40.828125 74.21875 47.359375 69.109375 
Q 53.90625 64.015625 53.90625 55.328125 
Q 53.90625 49.265625 50.4375 45.09375 
Q 46.96875 40.921875 40.578125 39.3125 
z
" id="DejaVuSans-51"/>
       <path d="M 33.015625 40.375 
Q 26.375 40.375 22.484375 35.828125 
Q 18.609375 31.296875 18.609375 23.390625 
Q 18.609375 15.53125 22.484375 10.953125 
Q 26.375 6.390625 33.015625 6.390625 
Q 39.65625 6.390625 43.53125 10.953125 
Q 47.40625 15.53125 47.40625 23.390625 
Q 47.40625 31.296875 43.53125 35.828125 
Q 39.65625 40.375 33.015625 40.375 
z
M 52.59375 71.296875 
L 52.59375 62.3125 
Q 48.875 64.0625 45.09375 64.984375 
Q 41.3125 65.921875 37.59375 65.921875 
Q 27.828125 65.921875 22.671875 59.328125 
Q 17.53125 52.734375 16.796875 39.40625 
Q 19.671875 43.65625 24.015625 45.921875 
Q 28.375 48.1875 33.59375 48.1875 
Q 44.578125 48.1875 50.953125 41.515625 
Q 57.328125 34.859375 57.328125 23.390625 
Q 57.328125 12.15625 50.6875 5.359375 
Q 44.046875 -1.421875 33.015625 -1.421875 
Q 20.359375 -1.421875 13.671875 8.265625 
Q 6.984375 17.96875 6.984375 36.375 
Q 6.984375 53.65625 15.1875 63.9375 
Q 23.390625 74.21875 37.203125 74.21875 
Q 40.921875 74.21875 44.703125 73.484375 
Q 48.484375 72.75 52.59375 71.296875 
z
" id="DejaVuSans-54"/>
      </defs>
      <g transform="translate(104.67734 542.877813)scale(0.14 -0.14)">
       <use xlink:href="#DejaVuSans-51"/>
       <use x="63.623047" xlink:href="#DejaVuSans-54"/>
      </g>
     </g>
    </g>
    <g id="xtick_2">
     <g id="line2d_5">
      <g>
       <use style="stroke:#000000;stroke-width:0.8;" x="191.306855" xlink:href="#mf876ddfd59" y="525.24"/>
      </g>
     </g>
     <g id="text_5">
      <!-- 38 -->
      <defs>
       <path d="M 31.78125 34.625 
Q 24.75 34.625 20.71875 30.859375 
Q 16.703125 27.09375 16.703125 20.515625 
Q 16.703125 13.921875 20.71875 10.15625 
Q 24.75 6.390625 31.78125 6.390625 
Q 38.8125 6.390625 42.859375 10.171875 
Q 46.921875 13.96875 46.921875 20.515625 
Q 46.921875 27.09375 42.890625 30.859375 
Q 38.875 34.625 31.78125 34.625 
z
M 21.921875 38.8125 
Q 15.578125 40.375 12.03125 44.71875 
Q 8.5 49.078125 8.5 55.328125 
Q 8.5 64.0625 14.71875 69.140625 
Q 20.953125 74.21875 31.78125 74.21875 
Q 42.671875 74.21875 48.875 69.140625 
Q 55.078125 64.0625 55.078125 55.328125 
Q 55.078125 49.078125 51.53125 44.71875 
Q 48 40.375 41.703125 38.8125 
Q 48.828125 37.15625 52.796875 32.3125 
Q 56.78125 27.484375 56.78125 20.515625 
Q 56.78125 9.90625 50.3125 4.234375 
Q 43.84375 -1.421875 31.78125 -1.421875 
Q 19.734375 -1.421875 13.25 4.234375 
Q 6.78125 9.90625 6.78125 20.515625 
Q 6.78125 27.484375 10.78125 32.3125 
Q 14.796875 37.15625 21.921875 38.8125 
z
M 18.3125 54.390625 
Q 18.3125 48.734375 21.84375 45.5625 
Q 25.390625 42.390625 31.78125 42.390625 
Q 38.140625 42.390625 41.71875 45.5625 
Q 45.3125 48.734375 45.3125 54.390625 
Q 45.3125 60.0625 41.71875 63.234375 
Q 38.140625 66.40625 31.78125 66.40625 
Q 25.390625 66.40625 21.84375 63.234375 
Q 18.3125 60.0625 18.3125 54.390625 
z
" id="DejaVuSans-56"/>
      </defs>
      <g transform="translate(182.399355 542.877813)scale(0.14 -0.14)">
       <use xlink:href="#DejaVuSans-51"/>
       <use x="63.623047" xlink:href="#DejaVuSans-56"/>
      </g>
     </g>
    </g>
    <g id="xtick_3">
     <g id="line2d_6">
      <g>
       <use style="stroke:#000000;stroke-width:0.8;" x="269.02887" xlink:href="#mf876ddfd59" y="525.24"/>
      </g>
     </g>
     <g id="text_6">
      <!-- 40 -->
      <defs>
       <path d="M 37.796875 64.3125 
L 12.890625 25.390625 
L 37.796875 25.390625 
z
M 35.203125 72.90625 
L 47.609375 72.90625 
L 47.609375 25.390625 
L 58.015625 25.390625 
L 58.015625 17.1875 
L 47.609375 17.1875 
L 47.609375 0 
L 37.796875 0 
L 37.796875 17.1875 
L 4.890625 17.1875 
L 4.890625 26.703125 
z
" id="DejaVuSans-52"/>
       <path d="M 31.78125 66.40625 
Q 24.171875 66.40625 20.328125 58.90625 
Q 16.5 51.421875 16.5 36.375 
Q 16.5 21.390625 20.328125 13.890625 
Q 24.171875 6.390625 31.78125 6.390625 
Q 39.453125 6.390625 43.28125 13.890625 
Q 47.125 21.390625 47.125 36.375 
Q 47.125 51.421875 43.28125 58.90625 
Q 39.453125 66.40625 31.78125 66.40625 
z
M 31.78125 74.21875 
Q 44.046875 74.21875 50.515625 64.515625 
Q 56.984375 54.828125 56.984375 36.375 
Q 56.984375 17.96875 50.515625 8.265625 
Q 44.046875 -1.421875 31.78125 -1.421875 
Q 19.53125 -1.421875 13.0625 8.265625 
Q 6.59375 17.96875 6.59375 36.375 
Q 6.59375 54.828125 13.0625 64.515625 
Q 19.53125 74.21875 31.78125 74.21875 
z
" id="DejaVuSans-48"/>
      </defs>
      <g transform="translate(260.12137 542.877813)scale(0.14 -0.14)">
       <use xlink:href="#DejaVuSans-52"/>
       <use x="63.623047" xlink:href="#DejaVuSans-48"/>
      </g>
     </g>
    </g>
    <g id="xtick_4">
     <g id="line2d_7">
      <g>
       <use style="stroke:#000000;stroke-width:0.8;" x="346.750886" xlink:href="#mf876ddfd59" y="525.24"/>
      </g>
     </g>
     <g id="text_7">
      <!-- 42 -->
      <defs>
       <path d="M 19.1875 8.296875 
L 53.609375 8.296875 
L 53.609375 0 
L 7.328125 0 
L 7.328125 8.296875 
Q 12.9375 14.109375 22.625 23.890625 
Q 32.328125 33.6875 34.8125 36.53125 
Q 39.546875 41.84375 41.421875 45.53125 
Q 43.3125 49.21875 43.3125 52.78125 
Q 43.3125 58.59375 39.234375 62.25 
Q 35.15625 65.921875 28.609375 65.921875 
Q 23.96875 65.921875 18.8125 64.3125 
Q 13.671875 62.703125 7.8125 59.421875 
L 7.8125 69.390625 
Q 13.765625 71.78125 18.9375 73 
Q 24.125 74.21875 28.421875 74.21875 
Q 39.75 74.21875 46.484375 68.546875 
Q 53.21875 62.890625 53.21875 53.421875 
Q 53.21875 48.921875 51.53125 44.890625 
Q 49.859375 40.875 45.40625 35.40625 
Q 44.1875 33.984375 37.640625 27.21875 
Q 31.109375 20.453125 19.1875 8.296875 
z
" id="DejaVuSans-50"/>
      </defs>
      <g transform="translate(337.843386 542.877813)scale(0.14 -0.14)">
       <use xlink:href="#DejaVuSans-52"/>
       <use x="63.623047" xlink:href="#DejaVuSans-50"/>
      </g>
     </g>
    </g>
    <g id="xtick_5">
     <g id="line2d_8">
      <g>
       <use style="stroke:#000000;stroke-width:0.8;" x="424.472901" xlink:href="#mf876ddfd59" y="525.24"/>
      </g>
     </g>
     <g id="text_8">
      <!-- 44 -->
      <g transform="translate(415.565401 542.877813)scale(0.14 -0.14)">
       <use xlink:href="#DejaVuSans-52"/>
       <use x="63.623047" xlink:href="#DejaVuSans-52"/>
      </g>
     </g>
    </g>
    <g id="xtick_6">
     <g id="line2d_9">
      <g>
       <use style="stroke:#000000;stroke-width:0.8;" x="502.194916" xlink:href="#mf876ddfd59" y="525.24"/>
      </g>
     </g>
     <g id="text_9">
      <!-- 46 -->
      <g transform="translate(493.287416 542.877813)scale(0.14 -0.14)">
       <use xlink:href="#DejaVuSans-52"/>
       <use x="63.623047" xlink:href="#DejaVuSans-54"/>
      </g>
     </g>
    </g>
   </g>
   <g id="line2d_10">
    <path clip-path="url(#p7d3032f507)" d="M 226.82193 525.24 
L 226.82193 402.93 
" style="fill:none;stroke:#ff6384;stroke-dasharray:5.55,2.4;stroke-dashoffset:0;stroke-opacity:0.8;stroke-width:1.5;"/>
   </g>
   <g id="line2d_11">
    <path clip-path="url(#p7d3032f507)" d="M 303.689003 525.24 
L 303.689003 402.93 
" style="fill:none;stroke:#36a2eb;stroke-dasharray:5.55,2.4;stroke-dashoffset:0;stroke-opacity:0.8;stroke-width:1.5;"/>
   </g>
   <g id="line2d_12">
    <path clip-path="url(#p7d3032f507)" d="M 334.501896 525.24 
L 334.501896 402.93 
" style="fill:none;stroke:#4bc0c0;stroke-dasharray:5.55,2.4;stroke-dashoffset:0;stroke-opacity:0.8;stroke-width:1.5;"/>
   </g>
   <g id="patch_12">
    <path d="M 36 525.24 
L 538.2 525.24 
" style="fill:none;stroke:#000000;stroke-linecap:square;stroke-linejoin:miter;stroke-width:0.8;"/>
   </g>
  </g>
 </g>
 <defs>
  <clipPath id="pdf75be7348">
   <rect height="366.93" width="502.2" x="36" y="36"/>
  </clipPath>
  <clipPath id="p7d3032f507">
   <rect height="122.31" width="502.2" x="36" y="402.93"/>
  </clipPath>
 </defs>
</svg>
