<?xml version="1.0" encoding="utf-8" standalone="no"?>
<!DOCTYPE svg PUBLIC "-//W3C//DTD SVG 1.1//EN"
  "http://www.w3.org/Graphics/SVG/1.1/DTD/svg11.dtd">
<!-- Created with matplotlib (https://matplotlib.org/) -->
<svg height="581.789375pt" version="1.1" viewBox="0 0 574.2 581.789375" width="574.2pt" xmlns="http://www.w3.org/2000/svg" xmlns:xlink="http://www.w3.org/1999/xlink">
 <defs>
  <style type="text/css">
*{stroke-linecap:butt;stroke-linejoin:round;}
  </style>
 </defs>
 <g id="figure_1">
  <g id="patch_1">
   <path d="M 0 581.789375 
L 574.2 581.789375 
L 574.2 0 
L 0 0 
z
" style="fill:none;"/>
  </g>
  <g id="axes_1">
   <g id="patch_2">
    <path d="M 36 402.93 
L 538.2 402.93 
L 538.2 36 
L 36 36 
z
" style="fill:none;"/>
   </g>
   <g id="PolyCollection_1">
    <defs>
     <path d="M 103.64932 -195.538011 
L 103.64932 -195.64928 
L 107.808142 -195.691237 
L 111.966964 -195.747643 
L 116.125786 -195.822946 
L 120.284609 -195.922778 
L 124.443431 -196.054206 
L 128.602253 -196.22602 
L 132.761076 -196.449053 
L 136.919898 -196.736536 
L 141.07872 -197.104473 
L 145.237543 -197.572037 
L 149.396365 -198.161972 
L 153.555187 -198.900975 
L 157.714009 -199.820057 
L 161.872832 -200.954831 
L 166.031654 -202.345729 
L 170.190476 -204.038087 
L 174.349299 -206.082078 
L 178.508121 -208.532451 
L 182.666943 -211.448044 
L 186.825766 -214.891027 
L 190.984588 -218.925862 
L 195.14341 -223.617944 
L 199.302232 -229.031924 
L 203.461055 -235.229719 
L 207.619877 -242.268226 
L 211.778699 -250.19678 
L 215.937522 -259.054428 
L 220.096344 -268.867088 
L 224.255166 -279.644699 
L 228.413989 -291.378477 
L 232.572811 -304.038423 
L 236.731633 -317.571194 
L 240.890455 -331.898506 
L 245.049278 -346.916192 
L 249.2081 -362.494027 
L 253.366922 -378.47644 
L 257.525745 -394.684154 
L 261.684567 -410.916801 
L 265.843389 -426.956497 
L 270.002212 -442.572302 
L 274.161034 -457.525479 
L 278.319856 -471.575376 
L 282.478678 -484.485756 
L 286.637501 -496.031334 
L 290.796323 -506.004281 
L 294.955145 -514.220428 
L 299.113968 -520.524915 
L 303.27279 -524.797045 
L 307.431612 -526.954123 
L 311.590435 -526.954123 
L 315.749257 -524.797045 
L 319.908079 -520.524915 
L 324.066901 -514.220428 
L 328.225724 -506.004281 
L 332.384546 -496.031334 
L 336.543368 -484.485756 
L 340.702191 -471.575376 
L 344.861013 -457.525479 
L 349.019835 -442.572302 
L 353.178658 -426.956497 
L 357.33748 -410.916801 
L 361.496302 -394.684154 
L 365.655124 -378.47644 
L 369.813947 -362.494027 
L 373.972769 -346.916192 
L 378.131591 -331.898506 
L 382.290414 -317.571194 
L 386.449236 -304.038423 
L 390.608058 -291.378477 
L 394.766881 -279.644699 
L 398.925703 -268.867088 
L 403.084525 -259.054428 
L 407.243347 -250.19678 
L 411.40217 -242.268226 
L 415.560992 -235.229719 
L 419.719814 -229.031924 
L 423.878637 -223.617944 
L 428.037459 -218.925862 
L 432.196281 -214.891027 
L 436.355104 -211.448044 
L 440.513926 -208.532451 
L 444.672748 -206.082078 
L 448.83157 -204.038087 
L 452.990393 -202.345729 
L 457.149215 -200.954831 
L 461.308037 -199.820057 
L 465.46686 -198.900975 
L 469.625682 -198.161972 
L 473.784504 -197.572037 
L 477.943327 -197.104473 
L 482.102149 -196.736536 
L 486.260971 -196.449053 
L 490.419793 -196.22602 
L 494.578616 -196.054206 
L 498.737438 -195.922778 
L 502.89626 -195.822946 
L 507.055083 -195.747643 
L 511.213905 -195.691237 
L 515.372727 -195.64928 
L 515.372727 -195.538011 
L 515.372727 -195.538011 
L 511.213905 -195.538011 
L 507.055083 -195.538011 
L 502.89626 -195.538011 
L 498.737438 -195.538011 
L 494.578616 -195.538011 
L 490.419793 -195.538011 
L 486.260971 -195.538011 
L 482.102149 -195.538011 
L 477.943327 -195.538011 
L 473.784504 -195.538011 
L 469.625682 -195.538011 
L 465.46686 -195.538011 
L 461.308037 -195.538011 
L 457.149215 -195.538011 
L 452.990393 -195.538011 
L 448.83157 -195.538011 
L 444.672748 -195.538011 
L 440.513926 -195.538011 
L 436.355104 -195.538011 
L 432.196281 -195.538011 
L 428.037459 -195.538011 
L 423.878637 -195.538011 
L 419.719814 -195.538011 
L 415.560992 -195.538011 
L 411.40217 -195.538011 
L 407.243347 -195.538011 
L 403.084525 -195.538011 
L 398.925703 -195.538011 
L 394.766881 -195.538011 
L 390.608058 -195.538011 
L 386.449236 -195.538011 
L 382.290414 -195.538011 
L 378.131591 -195.538011 
L 373.972769 -195.538011 
L 369.813947 -195.538011 
L 365.655124 -195.538011 
L 361.496302 -195.538011 
L 357.33748 -195.538011 
L 353.178658 -195.538011 
L 349.019835 -195.538011 
L 344.861013 -195.538011 
L 340.702191 -195.538011 
L 336.543368 -195.538011 
L 332.384546 -195.538011 
L 328.225724 -195.538011 
L 324.066901 -195.538011 
L 319.908079 -195.538011 
L 315.749257 -195.538011 
L 311.590435 -195.538011 
L 307.431612 -195.538011 
L 303.27279 -195.538011 
L 299.113968 -195.538011 
L 294.955145 -195.538011 
L 290.796323 -195.538011 
L 286.637501 -195.538011 
L 282.478678 -195.538011 
L 278.319856 -195.538011 
L 274.161034 -195.538011 
L 270.002212 -195.538011 
L 265.843389 -195.538011 
L 261.684567 -195.538011 
L 257.525745 -195.538011 
L 253.366922 -195.538011 
L 249.2081 -195.538011 
L 245.049278 -195.538011 
L 240.890455 -195.538011 
L 236.731633 -195.538011 
L 232.572811 -195.538011 
L 228.413989 -195.538011 
L 224.255166 -195.538011 
L 220.096344 -195.538011 
L 215.937522 -195.538011 
L 211.778699 -195.538011 
L 207.619877 -195.538011 
L 203.461055 -195.538011 
L 199.302232 -195.538011 
L 195.14341 -195.538011 
L 190.984588 -195.538011 
L 186.825766 -195.538011 
L 182.666943 -195.538011 
L 178.508121 -195.538011 
L 174.349299 -195.538011 
L 170.190476 -195.538011 
L 166.031654 -195.538011 
L 161.872832 -195.538011 
L 157.714009 -195.538011 
L 153.555187 -195.538011 
L 149.396365 -195.538011 
L 145.237543 -195.538011 
L 141.07872 -195.538011 
L 136.919898 -195.538011 
L 132.761076 -195.538011 
L 128.602253 -195.538011 
L 124.443431 -195.538011 
L 120.284609 -195.538011 
L 116.125786 -195.538011 
L 111.966964 -195.538011 
L 107.808142 -195.538011 
L 103.64932 -195.538011 
z
" id="m227e58542b" style="stroke:#ff6384;stroke-opacity:0.5;"/>
    </defs>
    <g clip-path="url(#p74bfd9a4b5)">
     <use style="fill:#ff6384;fill-opacity:0.5;stroke:#ff6384;stroke-opacity:0.5;" x="0" xlink:href="#m227e58542b" y="581.789375"/>
    </g>
   </g>
   <g id="PolyCollection_2">
    <defs>
     <path d="M 58.827273 -195.538011 
L 58.827273 -195.650004 
L 62.959207 -195.692234 
L 67.091142 -195.749007 
L 71.223077 -195.8248 
L 75.355011 -195.925281 
L 79.486946 -196.057565 
L 83.618881 -196.230497 
L 87.750815 -196.454982 
L 91.88275 -196.744335 
L 96.014685 -197.114666 
L 100.146619 -197.585273 
L 104.278554 -198.179047 
L 108.410489 -198.922859 
L 112.542423 -199.847921 
L 116.674358 -200.990079 
L 120.806293 -202.390029 
L 124.938227 -204.093399 
L 129.070162 -206.150691 
L 133.202097 -208.617009 
L 137.334031 -211.551575 
L 141.465966 -215.016962 
L 145.597901 -219.078053 
L 149.729836 -223.800667 
L 153.86177 -229.249878 
L 157.993705 -235.488004 
L 162.12564 -242.572312 
L 166.257574 -250.552459 
L 170.389509 -259.467747 
L 174.521444 -269.344261 
L 178.653378 -280.192004 
L 182.785313 -292.002137 
L 186.917248 -304.744465 
L 191.049182 -318.365297 
L 195.181117 -332.785841 
L 199.313052 -347.901251 
L 203.444986 -363.580456 
L 207.576921 -379.666871 
L 211.708856 -395.980052 
L 215.84079 -412.31833 
L 219.972725 -428.4624 
L 224.10466 -444.179822 
L 228.236594 -459.230303 
L 232.368529 -473.371627 
L 236.500464 -486.366018 
L 240.632398 -497.986726 
L 244.764333 -508.02457 
L 248.896268 -516.294181 
L 253.028202 -522.639693 
L 257.160137 -526.939623 
L 261.292072 -529.110739 
L 265.424006 -529.110739 
L 269.555941 -526.939623 
L 273.687876 -522.639693 
L 277.81981 -516.294181 
L 281.951745 -508.02457 
L 286.08368 -497.986726 
L 290.215614 -486.366018 
L 294.347549 -473.371627 
L 298.479484 -459.230303 
L 302.611418 -444.179822 
L 306.743353 -428.4624 
L 310.875288 -412.31833 
L 315.007222 -395.980052 
L 319.139157 -379.666871 
L 323.271092 -363.580456 
L 327.403026 -347.901251 
L 331.534961 -332.785841 
L 335.666896 -318.365297 
L 339.79883 -304.744465 
L 343.930765 -292.002137 
L 348.0627 -280.192004 
L 352.194634 -269.344261 
L 356.326569 -259.467747 
L 360.458504 -250.552459 
L 364.590438 -242.572312 
L 368.722373 -235.488004 
L 372.854308 -229.249878 
L 376.986242 -223.800667 
L 381.118177 -219.078053 
L 385.250112 -215.016962 
L 389.382046 -211.551575 
L 393.513981 -208.617009 
L 397.645916 -206.150691 
L 401.777851 -204.093399 
L 405.909785 -202.390029 
L 410.04172 -200.990079 
L 414.173655 -199.847921 
L 418.305589 -198.922859 
L 422.437524 -198.179047 
L 426.569459 -197.585273 
L 430.701393 -197.114666 
L 434.833328 -196.744335 
L 438.965263 -196.454982 
L 443.097197 -196.230497 
L 447.229132 -196.057565 
L 451.361067 -195.925281 
L 455.493001 -195.8248 
L 459.624936 -195.749007 
L 463.756871 -195.692234 
L 467.888805 -195.650004 
L 467.888805 -195.538011 
L 467.888805 -195.538011 
L 463.756871 -195.538011 
L 459.624936 -195.538011 
L 455.493001 -195.538011 
L 451.361067 -195.538011 
L 447.229132 -195.538011 
L 443.097197 -195.538011 
L 438.965263 -195.538011 
L 434.833328 -195.538011 
L 430.701393 -195.538011 
L 426.569459 -195.538011 
L 422.437524 -195.538011 
L 418.305589 -195.538011 
L 414.173655 -195.538011 
L 410.04172 -195.538011 
L 405.909785 -195.538011 
L 401.777851 -195.538011 
L 397.645916 -195.538011 
L 393.513981 -195.538011 
L 389.382046 -195.538011 
L 385.250112 -195.538011 
L 381.118177 -195.538011 
L 376.986242 -195.538011 
L 372.854308 -195.538011 
L 368.722373 -195.538011 
L 364.590438 -195.538011 
L 360.458504 -195.538011 
L 356.326569 -195.538011 
L 352.194634 -195.538011 
L 348.0627 -195.538011 
L 343.930765 -195.538011 
L 339.79883 -195.538011 
L 335.666896 -195.538011 
L 331.534961 -195.538011 
L 327.403026 -195.538011 
L 323.271092 -195.538011 
L 319.139157 -195.538011 
L 315.007222 -195.538011 
L 310.875288 -195.538011 
L 306.743353 -195.538011 
L 302.611418 -195.538011 
L 298.479484 -195.538011 
L 294.347549 -195.538011 
L 290.215614 -195.538011 
L 286.08368 -195.538011 
L 281.951745 -195.538011 
L 277.81981 -195.538011 
L 273.687876 -195.538011 
L 269.555941 -195.538011 
L 265.424006 -195.538011 
L 261.292072 -195.538011 
L 257.160137 -195.538011 
L 253.028202 -195.538011 
L 248.896268 -195.538011 
L 244.764333 -195.538011 
L 240.632398 -195.538011 
L 236.500464 -195.538011 
L 232.368529 -195.538011 
L 228.236594 -195.538011 
L 224.10466 -195.538011 
L 219.972725 -195.538011 
L 215.84079 -195.538011 
L 211.708856 -195.538011 
L 207.576921 -195.538011 
L 203.444986 -195.538011 
L 199.313052 -195.538011 
L 195.181117 -195.538011 
L 191.049182 -195.538011 
L 186.917248 -195.538011 
L 182.785313 -195.538011 
L 178.653378 -195.538011 
L 174.521444 -195.538011 
L 170.389509 -195.538011 
L 166.257574 -195.538011 
L 162.12564 -195.538011 
L 157.993705 -195.538011 
L 153.86177 -195.538011 
L 149.729836 -195.538011 
L 145.597901 -195.538011 
L 141.465966 -195.538011 
L 137.334031 -195.538011 
L 133.202097 -195.538011 
L 129.070162 -195.538011 
L 124.938227 -195.538011 
L 120.806293 -195.538011 
L 116.674358 -195.538011 
L 112.542423 -195.538011 
L 108.410489 -195.538011 
L 104.278554 -195.538011 
L 100.146619 -195.538011 
L 96.014685 -195.538011 
L 91.88275 -195.538011 
L 87.750815 -195.538011 
L 83.618881 -195.538011 
L 79.486946 -195.538011 
L 75.355011 -195.538011 
L 71.223077 -195.538011 
L 67.091142 -195.538011 
L 62.959207 -195.538011 
L 58.827273 -195.538011 
z
" id="m2a5d2436da" style="stroke:#36a2eb;stroke-opacity:0.5;"/>
    </defs>
    <g clip-path="url(#p74bfd9a4b5)">
     <use style="fill:#36a2eb;fill-opacity:0.5;stroke:#36a2eb;stroke-opacity:0.5;" x="0" xlink:href="#m2a5d2436da" y="581.789375"/>
    </g>
   </g>
   <g id="line2d_1">
    <path clip-path="url(#p74bfd9a4b5)" d="M 103.64932 386.140095 
L 107.808142 386.098138 
L 111.966964 386.041732 
L 116.125786 385.966429 
L 120.284609 385.866597 
L 124.443431 385.735169 
L 128.602253 385.563355 
L 132.761076 385.340322 
L 136.919898 385.052839 
L 141.07872 384.684902 
L 145.237543 384.217338 
L 149.396365 383.627403 
L 153.555187 382.8884 
L 157.714009 381.969318 
L 161.872832 380.834544 
L 166.031654 379.443646 
L 170.190476 377.751288 
L 174.349299 375.707297 
L 178.508121 373.256924 
L 182.666943 370.341331 
L 186.825766 366.898348 
L 190.984588 362.863513 
L 195.14341 358.171431 
L 199.302232 352.757451 
L 203.461055 346.559656 
L 207.619877 339.521149 
L 211.778699 331.592595 
L 215.937522 322.734947 
L 220.096344 312.922287 
L 224.255166 302.144676 
L 228.413989 290.410898 
L 232.572811 277.750952 
L 236.731633 264.218181 
L 240.890455 249.890869 
L 245.049278 234.873183 
L 249.2081 219.295348 
L 253.366922 203.312935 
L 257.525745 187.105221 
L 261.684567 170.872574 
L 265.843389 154.832878 
L 270.002212 139.217073 
L 274.161034 124.263896 
L 278.319856 110.213999 
L 282.478678 97.303619 
L 286.637501 85.758041 
L 290.796323 75.785094 
L 294.955145 67.568947 
L 299.113968 61.26446 
L 303.27279 56.99233 
L 307.431612 54.835252 
L 311.590435 54.835252 
L 315.749257 56.99233 
L 319.908079 61.26446 
L 324.066901 67.568947 
L 328.225724 75.785094 
L 332.384546 85.758041 
L 336.543368 97.303619 
L 340.702191 110.213999 
L 344.861013 124.263896 
L 349.019835 139.217073 
L 353.178658 154.832878 
L 357.33748 170.872574 
L 361.496302 187.105221 
L 365.655124 203.312935 
L 369.813947 219.295348 
L 373.972769 234.873183 
L 378.131591 249.890869 
L 382.290414 264.218181 
L 386.449236 277.750952 
L 390.608058 290.410898 
L 394.766881 302.144676 
L 398.925703 312.922287 
L 403.084525 322.734947 
L 407.243347 331.592595 
L 411.40217 339.521149 
L 415.560992 346.559656 
L 419.719814 352.757451 
L 423.878637 358.171431 
L 428.037459 362.863513 
L 432.196281 366.898348 
L 436.355104 370.341331 
L 440.513926 373.256924 
L 444.672748 375.707297 
L 448.83157 377.751288 
L 452.990393 379.443646 
L 457.149215 380.834544 
L 461.308037 381.969318 
L 465.46686 382.8884 
L 469.625682 383.627403 
L 473.784504 384.217338 
L 477.943327 384.684902 
L 482.102149 385.052839 
L 486.260971 385.340322 
L 490.419793 385.563355 
L 494.578616 385.735169 
L 498.737438 385.866597 
L 502.89626 385.966429 
L 507.055083 386.041732 
L 511.213905 386.098138 
L 515.372727 386.140095 
" style="fill:none;stroke:#ff6384;stroke-linecap:square;"/>
   </g>
   <g id="line2d_2">
    <path clip-path="url(#p74bfd9a4b5)" d="M 58.827273 386.139371 
L 62.959207 386.097141 
L 67.091142 386.040368 
L 71.223077 385.964575 
L 75.355011 385.864094 
L 79.486946 385.73181 
L 83.618881 385.558878 
L 87.750815 385.334393 
L 91.88275 385.04504 
L 96.014685 384.674709 
L 100.146619 384.204102 
L 104.278554 383.610328 
L 108.410489 382.866516 
L 112.542423 381.941454 
L 116.674358 380.799296 
L 120.806293 379.399346 
L 124.938227 377.695976 
L 129.070162 375.638684 
L 133.202097 373.172366 
L 137.334031 370.2378 
L 141.465966 366.772413 
L 145.597901 362.711322 
L 149.729836 357.988708 
L 153.86177 352.539497 
L 157.993705 346.301371 
L 162.12564 339.217063 
L 166.257574 331.236916 
L 170.389509 322.321628 
L 174.521444 312.445114 
L 178.653378 301.597371 
L 182.785313 289.787238 
L 186.917248 277.04491 
L 191.049182 263.424078 
L 195.181117 249.003534 
L 199.313052 233.888124 
L 203.444986 218.208919 
L 207.576921 202.122504 
L 211.708856 185.809323 
L 215.84079 169.471045 
L 219.972725 153.326975 
L 224.10466 137.609553 
L 228.236594 122.559072 
L 232.368529 108.417748 
L 236.500464 95.423357 
L 240.632398 83.802649 
L 244.764333 73.764805 
L 248.896268 65.495194 
L 253.028202 59.149682 
L 257.160137 54.849752 
L 261.292072 52.678636 
L 265.424006 52.678636 
L 269.555941 54.849752 
L 273.687876 59.149682 
L 277.81981 65.495194 
L 281.951745 73.764805 
L 286.08368 83.802649 
L 290.215614 95.423357 
L 294.347549 108.417748 
L 298.479484 122.559072 
L 302.611418 137.609553 
L 306.743353 153.326975 
L 310.875288 169.471045 
L 315.007222 185.809323 
L 319.139157 202.122504 
L 323.271092 218.208919 
L 327.403026 233.888124 
L 331.534961 249.003534 
L 335.666896 263.424078 
L 339.79883 277.04491 
L 343.930765 289.787238 
L 348.0627 301.597371 
L 352.194634 312.445114 
L 356.326569 322.321628 
L 360.458504 331.236916 
L 364.590438 339.217063 
L 368.722373 346.301371 
L 372.854308 352.539497 
L 376.986242 357.988708 
L 381.118177 362.711322 
L 385.250112 366.772413 
L 389.382046 370.2378 
L 393.513981 373.172366 
L 397.645916 375.638684 
L 401.777851 377.695976 
L 405.909785 379.399346 
L 410.04172 380.799296 
L 414.173655 381.941454 
L 418.305589 382.866516 
L 422.437524 383.610328 
L 426.569459 384.204102 
L 430.701393 384.674709 
L 434.833328 385.04504 
L 438.965263 385.334393 
L 443.097197 385.558878 
L 447.229132 385.73181 
L 451.361067 385.864094 
L 455.493001 385.964575 
L 459.624936 386.040368 
L 463.756871 386.097141 
L 467.888805 386.139371 
" style="fill:none;stroke:#36a2eb;stroke-linecap:square;"/>
   </g>
   <g id="patch_3">
    <path d="M 36 402.93 
L 538.2 402.93 
" style="fill:none;stroke:#000000;stroke-linecap:square;stroke-linejoin:miter;stroke-width:0.8;"/>
   </g>
   <g id="legend_1">
    <g id="patch_4">
     <path d="M 410.290313 88.688125 
L 528.4 88.688125 
Q 531.2 88.688125 531.2 85.888125 
L 531.2 45.8 
Q 531.2 43 528.4 43 
L 410.290313 43 
Q 407.490313 43 407.490313 45.8 
L 407.490313 85.888125 
Q 407.490313 88.688125 410.290313 88.688125 
z
" style="fill:#ffffff;opacity:0.8;stroke:#cccccc;stroke-linejoin:miter;"/>
    </g>
    <g id="patch_5">
     <path d="M 413.090313 59.237813 
L 441.090313 59.237813 
L 441.090313 49.437813 
L 413.090313 49.437813 
z
" style="fill:#ff6384;opacity:0.5;stroke:#ff6384;stroke-linejoin:miter;"/>
    </g>
    <g id="text_1">
     <!-- base -->
     <defs>
      <path d="M 48.6875 27.296875 
Q 48.6875 37.203125 44.609375 42.84375 
Q 40.53125 48.484375 33.40625 48.484375 
Q 26.265625 48.484375 22.1875 42.84375 
Q 18.109375 37.203125 18.109375 27.296875 
Q 18.109375 17.390625 22.1875 11.75 
Q 26.265625 6.109375 33.40625 6.109375 
Q 40.53125 6.109375 44.609375 11.75 
Q 48.6875 17.390625 48.6875 27.296875 
z
M 18.109375 46.390625 
Q 20.953125 51.265625 25.265625 53.625 
Q 29.59375 56 35.59375 56 
Q 45.5625 56 51.78125 48.09375 
Q 58.015625 40.1875 58.015625 27.296875 
Q 58.015625 14.40625 51.78125 6.484375 
Q 45.5625 -1.421875 35.59375 -1.421875 
Q 29.59375 -1.421875 25.265625 0.953125 
Q 20.953125 3.328125 18.109375 8.203125 
L 18.109375 0 
L 9.078125 0 
L 9.078125 75.984375 
L 18.109375 75.984375 
z
" id="DejaVuSans-98"/>
      <path d="M 34.28125 27.484375 
Q 23.390625 27.484375 19.1875 25 
Q 14.984375 22.515625 14.984375 16.5 
Q 14.984375 11.71875 18.140625 8.90625 
Q 21.296875 6.109375 26.703125 6.109375 
Q 34.1875 6.109375 38.703125 11.40625 
Q 43.21875 16.703125 43.21875 25.484375 
L 43.21875 27.484375 
z
M 52.203125 31.203125 
L 52.203125 0 
L 43.21875 0 
L 43.21875 8.296875 
Q 40.140625 3.328125 35.546875 0.953125 
Q 30.953125 -1.421875 24.3125 -1.421875 
Q 15.921875 -1.421875 10.953125 3.296875 
Q 6 8.015625 6 15.921875 
Q 6 25.140625 12.171875 29.828125 
Q 18.359375 34.515625 30.609375 34.515625 
L 43.21875 34.515625 
L 43.21875 35.40625 
Q 43.21875 41.609375 39.140625 45 
Q 35.0625 48.390625 27.6875 48.390625 
Q 23 48.390625 18.546875 47.265625 
Q 14.109375 46.140625 10.015625 43.890625 
L 10.015625 52.203125 
Q 14.9375 54.109375 19.578125 55.046875 
Q 24.21875 56 28.609375 56 
Q 40.484375 56 46.34375 49.84375 
Q 52.203125 43.703125 52.203125 31.203125 
z
" id="DejaVuSans-97"/>
      <path d="M 44.28125 53.078125 
L 44.28125 44.578125 
Q 40.484375 46.53125 36.375 47.5 
Q 32.28125 48.484375 27.875 48.484375 
Q 21.1875 48.484375 17.84375 46.4375 
Q 14.5 44.390625 14.5 40.28125 
Q 14.5 37.15625 16.890625 35.375 
Q 19.28125 33.59375 26.515625 31.984375 
L 29.59375 31.296875 
Q 39.15625 29.25 43.1875 25.515625 
Q 47.21875 21.78125 47.21875 15.09375 
Q 47.21875 7.46875 41.1875 3.015625 
Q 35.15625 -1.421875 24.609375 -1.421875 
Q 20.21875 -1.421875 15.453125 -0.5625 
Q 10.6875 0.296875 5.421875 2 
L 5.421875 11.28125 
Q 10.40625 8.6875 15.234375 7.390625 
Q 20.0625 6.109375 24.8125 6.109375 
Q 31.15625 6.109375 34.5625 8.28125 
Q 37.984375 10.453125 37.984375 14.40625 
Q 37.984375 18.0625 35.515625 20.015625 
Q 33.0625 21.96875 24.703125 23.78125 
L 21.578125 24.515625 
Q 13.234375 26.265625 9.515625 29.90625 
Q 5.8125 33.546875 5.8125 39.890625 
Q 5.8125 47.609375 11.28125 51.796875 
Q 16.75 56 26.8125 56 
Q 31.78125 56 36.171875 55.265625 
Q 40.578125 54.546875 44.28125 53.078125 
z
" id="DejaVuSans-115"/>
      <path d="M 56.203125 29.59375 
L 56.203125 25.203125 
L 14.890625 25.203125 
Q 15.484375 15.921875 20.484375 11.0625 
Q 25.484375 6.203125 34.421875 6.203125 
Q 39.59375 6.203125 44.453125 7.46875 
Q 49.3125 8.734375 54.109375 11.28125 
L 54.109375 2.78125 
Q 49.265625 0.734375 44.1875 -0.34375 
Q 39.109375 -1.421875 33.890625 -1.421875 
Q 20.796875 -1.421875 13.15625 6.1875 
Q 5.515625 13.8125 5.515625 26.8125 
Q 5.515625 40.234375 12.765625 48.109375 
Q 20.015625 56 32.328125 56 
Q 43.359375 56 49.78125 48.890625 
Q 56.203125 41.796875 56.203125 29.59375 
z
M 47.21875 32.234375 
Q 47.125 39.59375 43.09375 43.984375 
Q 39.0625 48.390625 32.421875 48.390625 
Q 24.90625 48.390625 20.390625 44.140625 
Q 15.875 39.890625 15.1875 32.171875 
z
" id="DejaVuSans-101"/>
     </defs>
     <g transform="translate(452.290313 59.237813)scale(0.14 -0.14)">
      <use xlink:href="#DejaVuSans-98"/>
      <use x="63.476562" xlink:href="#DejaVuSans-97"/>
      <use x="124.755859" xlink:href="#DejaVuSans-115"/>
      <use x="176.855469" xlink:href="#DejaVuSans-101"/>
     </g>
    </g>
    <g id="patch_6">
     <path d="M 413.090313 79.787188 
L 441.090313 79.787188 
L 441.090313 69.987188 
L 413.090313 69.987188 
z
" style="fill:#36a2eb;opacity:0.5;stroke:#36a2eb;stroke-linejoin:miter;"/>
    </g>
    <g id="text_2">
     <!-- no_license -->
     <defs>
      <path d="M 54.890625 33.015625 
L 54.890625 0 
L 45.90625 0 
L 45.90625 32.71875 
Q 45.90625 40.484375 42.875 44.328125 
Q 39.84375 48.1875 33.796875 48.1875 
Q 26.515625 48.1875 22.3125 43.546875 
Q 18.109375 38.921875 18.109375 30.90625 
L 18.109375 0 
L 9.078125 0 
L 9.078125 54.6875 
L 18.109375 54.6875 
L 18.109375 46.1875 
Q 21.34375 51.125 25.703125 53.5625 
Q 30.078125 56 35.796875 56 
Q 45.21875 56 50.046875 50.171875 
Q 54.890625 44.34375 54.890625 33.015625 
z
" id="DejaVuSans-110"/>
      <path d="M 30.609375 48.390625 
Q 23.390625 48.390625 19.1875 42.75 
Q 14.984375 37.109375 14.984375 27.296875 
Q 14.984375 17.484375 19.15625 11.84375 
Q 23.34375 6.203125 30.609375 6.203125 
Q 37.796875 6.203125 41.984375 11.859375 
Q 46.1875 17.53125 46.1875 27.296875 
Q 46.1875 37.015625 41.984375 42.703125 
Q 37.796875 48.390625 30.609375 48.390625 
z
M 30.609375 56 
Q 42.328125 56 49.015625 48.375 
Q 55.71875 40.765625 55.71875 27.296875 
Q 55.71875 13.875 49.015625 6.21875 
Q 42.328125 -1.421875 30.609375 -1.421875 
Q 18.84375 -1.421875 12.171875 6.21875 
Q 5.515625 13.875 5.515625 27.296875 
Q 5.515625 40.765625 12.171875 48.375 
Q 18.84375 56 30.609375 56 
z
" id="DejaVuSans-111"/>
      <path d="M 50.984375 -16.609375 
L 50.984375 -23.578125 
L -0.984375 -23.578125 
L -0.984375 -16.609375 
z
" id="DejaVuSans-95"/>
      <path d="M 9.421875 75.984375 
L 18.40625 75.984375 
L 18.40625 0 
L 9.421875 0 
z
" id="DejaVuSans-108"/>
      <path d="M 9.421875 54.6875 
L 18.40625 54.6875 
L 18.40625 0 
L 9.421875 0 
z
M 9.421875 75.984375 
L 18.40625 75.984375 
L 18.40625 64.59375 
L 9.421875 64.59375 
z
" id="DejaVuSans-105"/>
      <path d="M 48.78125 52.59375 
L 48.78125 44.1875 
Q 44.96875 46.296875 41.140625 47.34375 
Q 37.3125 48.390625 33.40625 48.390625 
Q 24.65625 48.390625 19.8125 42.84375 
Q 14.984375 37.3125 14.984375 27.296875 
Q 14.984375 17.28125 19.8125 11.734375 
Q 24.65625 6.203125 33.40625 6.203125 
Q 37.3125 6.203125 41.140625 7.25 
Q 44.96875 8.296875 48.78125 10.40625 
L 48.78125 2.09375 
Q 45.015625 0.34375 40.984375 -0.53125 
Q 36.96875 -1.421875 32.421875 -1.421875 
Q 20.0625 -1.421875 12.78125 6.34375 
Q 5.515625 14.109375 5.515625 27.296875 
Q 5.515625 40.671875 12.859375 48.328125 
Q 20.21875 56 33.015625 56 
Q 37.15625 56 41.109375 55.140625 
Q 45.0625 54.296875 48.78125 52.59375 
z
" id="DejaVuSans-99"/>
     </defs>
     <g transform="translate(452.290313 79.787188)scale(0.14 -0.14)">
      <use xlink:href="#DejaVuSans-110"/>
      <use x="63.378906" xlink:href="#DejaVuSans-111"/>
      <use x="124.560547" xlink:href="#DejaVuSans-95"/>
      <use x="174.560547" xlink:href="#DejaVuSans-108"/>
      <use x="202.34375" xlink:href="#DejaVuSans-105"/>
      <use x="230.126953" xlink:href="#DejaVuSans-99"/>
      <use x="285.107422" xlink:href="#DejaVuSans-101"/>
      <use x="346.630859" xlink:href="#DejaVuSans-110"/>
      <use x="410.009766" xlink:href="#DejaVuSans-115"/>
      <use x="462.109375" xlink:href="#DejaVuSans-101"/>
     </g>
    </g>
   </g>
  </g>
  <g id="axes_2">
   <g id="patch_7">
    <path d="M 36 525.24 
L 538.2 525.24 
L 538.2 402.93 
L 36 402.93 
z
" style="fill:none;"/>
   </g>
   <g id="patch_8">
    <path clip-path="url(#p3e7f3dfa0e)" d="M 208.638789 519.680455 
L 410.383258 519.680455 
L 410.383258 482.616818 
L 208.638789 482.616818 
z
" style="fill:#ff6384;opacity:0.5;"/>
   </g>
   <g id="patch_9">
    <path clip-path="url(#p3e7f3dfa0e)" d="M 163.137964 445.553182 
L 363.578114 445.553182 
L 363.578114 408.489545 
L 163.137964 408.489545 
z
" style="fill:#36a2eb;opacity:0.5;"/>
   </g>
   <g id="matplotlib.axis_1">
    <g id="xtick_1">
     <g id="line2d_3">
      <defs>
       <path d="M 0 0 
L 0 3.5 
" id="m07da326ae8" style="stroke:#000000;stroke-width:0.8;"/>
      </defs>
      <g>
       <use style="stroke:#000000;stroke-width:0.8;" x="99.053414" xlink:href="#m07da326ae8" y="525.24"/>
      </g>
     </g>
     <g id="text_3">
      <!-- 5.0 -->
      <defs>
       <path d="M 10.796875 72.90625 
L 49.515625 72.90625 
L 49.515625 64.59375 
L 19.828125 64.59375 
L 19.828125 46.734375 
Q 21.96875 47.46875 24.109375 47.828125 
Q 26.265625 48.1875 28.421875 48.1875 
Q 40.625 48.1875 47.75 41.5 
Q 54.890625 34.8125 54.890625 23.390625 
Q 54.890625 11.625 47.5625 5.09375 
Q 40.234375 -1.421875 26.90625 -1.421875 
Q 22.3125 -1.421875 17.546875 -0.640625 
Q 12.796875 0.140625 7.71875 1.703125 
L 7.71875 11.625 
Q 12.109375 9.234375 16.796875 8.0625 
Q 21.484375 6.890625 26.703125 6.890625 
Q 35.15625 6.890625 40.078125 11.328125 
Q 45.015625 15.765625 45.015625 23.390625 
Q 45.015625 31 40.078125 35.4375 
Q 35.15625 39.890625 26.703125 39.890625 
Q 22.75 39.890625 18.8125 39.015625 
Q 14.890625 38.140625 10.796875 36.28125 
z
" id="DejaVuSans-53"/>
       <path d="M 10.6875 12.40625 
L 21 12.40625 
L 21 0 
L 10.6875 0 
z
" id="DejaVuSans-46"/>
       <path d="M 31.78125 66.40625 
Q 24.171875 66.40625 20.328125 58.90625 
Q 16.5 51.421875 16.5 36.375 
Q 16.5 21.390625 20.328125 13.890625 
Q 24.171875 6.390625 31.78125 6.390625 
Q 39.453125 6.390625 43.28125 13.890625 
Q 47.125 21.390625 47.125 36.375 
Q 47.125 51.421875 43.28125 58.90625 
Q 39.453125 66.40625 31.78125 66.40625 
z
M 31.78125 74.21875 
Q 44.046875 74.21875 50.515625 64.515625 
Q 56.984375 54.828125 56.984375 36.375 
Q 56.984375 17.96875 50.515625 8.265625 
Q 44.046875 -1.421875 31.78125 -1.421875 
Q 19.53125 -1.421875 13.0625 8.265625 
Q 6.59375 17.96875 6.59375 36.375 
Q 6.59375 54.828125 13.0625 64.515625 
Q 19.53125 74.21875 31.78125 74.21875 
z
" id="DejaVuSans-48"/>
      </defs>
      <g transform="translate(87.921227 542.877813)scale(0.14 -0.14)">
       <use xlink:href="#DejaVuSans-53"/>
       <use x="63.623047" xlink:href="#DejaVuSans-46"/>
       <use x="95.410156" xlink:href="#DejaVuSans-48"/>
      </g>
     </g>
    </g>
    <g id="xtick_2">
     <g id="line2d_4">
      <g>
       <use style="stroke:#000000;stroke-width:0.8;" x="191.359383" xlink:href="#m07da326ae8" y="525.24"/>
      </g>
     </g>
     <g id="text_4">
      <!-- 5.5 -->
      <g transform="translate(180.227196 542.877813)scale(0.14 -0.14)">
       <use xlink:href="#DejaVuSans-53"/>
       <use x="63.623047" xlink:href="#DejaVuSans-46"/>
       <use x="95.410156" xlink:href="#DejaVuSans-53"/>
      </g>
     </g>
    </g>
    <g id="xtick_3">
     <g id="line2d_5">
      <g>
       <use style="stroke:#000000;stroke-width:0.8;" x="283.665352" xlink:href="#m07da326ae8" y="525.24"/>
      </g>
     </g>
     <g id="text_5">
      <!-- 6.0 -->
      <defs>
       <path d="M 33.015625 40.375 
Q 26.375 40.375 22.484375 35.828125 
Q 18.609375 31.296875 18.609375 23.390625 
Q 18.609375 15.53125 22.484375 10.953125 
Q 26.375 6.390625 33.015625 6.390625 
Q 39.65625 6.390625 43.53125 10.953125 
Q 47.40625 15.53125 47.40625 23.390625 
Q 47.40625 31.296875 43.53125 35.828125 
Q 39.65625 40.375 33.015625 40.375 
z
M 52.59375 71.296875 
L 52.59375 62.3125 
Q 48.875 64.0625 45.09375 64.984375 
Q 41.3125 65.921875 37.59375 65.921875 
Q 27.828125 65.921875 22.671875 59.328125 
Q 17.53125 52.734375 16.796875 39.40625 
Q 19.671875 43.65625 24.015625 45.921875 
Q 28.375 48.1875 33.59375 48.1875 
Q 44.578125 48.1875 50.953125 41.515625 
Q 57.328125 34.859375 57.328125 23.390625 
Q 57.328125 12.15625 50.6875 5.359375 
Q 44.046875 -1.421875 33.015625 -1.421875 
Q 20.359375 -1.421875 13.671875 8.265625 
Q 6.984375 17.96875 6.984375 36.375 
Q 6.984375 53.65625 15.1875 63.9375 
Q 23.390625 74.21875 37.203125 74.21875 
Q 40.921875 74.21875 44.703125 73.484375 
Q 48.484375 72.75 52.59375 71.296875 
z
" id="DejaVuSans-54"/>
      </defs>
      <g transform="translate(272.533165 542.877813)scale(0.14 -0.14)">
       <use xlink:href="#DejaVuSans-54"/>
       <use x="63.623047" xlink:href="#DejaVuSans-46"/>
       <use x="95.410156" xlink:href="#DejaVuSans-48"/>
      </g>
     </g>
    </g>
    <g id="xtick_4">
     <g id="line2d_6">
      <g>
       <use style="stroke:#000000;stroke-width:0.8;" x="375.971321" xlink:href="#m07da326ae8" y="525.24"/>
      </g>
     </g>
     <g id="text_6">
      <!-- 6.5 -->
      <g transform="translate(364.839134 542.877813)scale(0.14 -0.14)">
       <use xlink:href="#DejaVuSans-54"/>
       <use x="63.623047" xlink:href="#DejaVuSans-46"/>
       <use x="95.410156" xlink:href="#DejaVuSans-53"/>
      </g>
     </g>
    </g>
    <g id="xtick_5">
     <g id="line2d_7">
      <g>
       <use style="stroke:#000000;stroke-width:0.8;" x="468.27729" xlink:href="#m07da326ae8" y="525.24"/>
      </g>
     </g>
     <g id="text_7">
      <!-- 7.0 -->
      <defs>
       <path d="M 8.203125 72.90625 
L 55.078125 72.90625 
L 55.078125 68.703125 
L 28.609375 0 
L 18.3125 0 
L 43.21875 64.59375 
L 8.203125 64.59375 
z
" id="DejaVuSans-55"/>
      </defs>
      <g transform="translate(457.145102 542.877813)scale(0.14 -0.14)">
       <use xlink:href="#DejaVuSans-55"/>
       <use x="63.623047" xlink:href="#DejaVuSans-46"/>
       <use x="95.410156" xlink:href="#DejaVuSans-48"/>
      </g>
     </g>
    </g>
   </g>
   <g id="line2d_8">
    <path clip-path="url(#p3e7f3dfa0e)" d="M 309.511023 525.24 
L 309.511023 402.93 
" style="fill:none;stroke:#ff6384;stroke-dasharray:5.55,2.4;stroke-dashoffset:0;stroke-opacity:0.8;stroke-width:1.5;"/>
   </g>
   <g id="line2d_9">
    <path clip-path="url(#p3e7f3dfa0e)" d="M 263.358039 525.24 
L 263.358039 402.93 
" style="fill:none;stroke:#36a2eb;stroke-dasharray:5.55,2.4;stroke-dashoffset:0;stroke-opacity:0.8;stroke-width:1.5;"/>
   </g>
   <g id="patch_10">
    <path d="M 36 525.24 
L 538.2 525.24 
" style="fill:none;stroke:#000000;stroke-linecap:square;stroke-linejoin:miter;stroke-width:0.8;"/>
   </g>
  </g>
 </g>
 <defs>
  <clipPath id="p74bfd9a4b5">
   <rect height="366.93" width="502.2" x="36" y="36"/>
  </clipPath>
  <clipPath id="p3e7f3dfa0e">
   <rect height="122.31" width="502.2" x="36" y="402.93"/>
  </clipPath>
 </defs>
</svg>
