<?xml version="1.0" encoding="utf-8" standalone="no"?>
<!DOCTYPE svg PUBLIC "-//W3C//DTD SVG 1.1//EN"
  "http://www.w3.org/Graphics/SVG/1.1/DTD/svg11.dtd">
<!-- Created with matplotlib (https://matplotlib.org/) -->
<svg height="581.789375pt" version="1.1" viewBox="0 0 574.2 581.789375" width="574.2pt" xmlns="http://www.w3.org/2000/svg" xmlns:xlink="http://www.w3.org/1999/xlink">
 <defs>
  <style type="text/css">
*{stroke-linecap:butt;stroke-linejoin:round;}
  </style>
 </defs>
 <g id="figure_1">
  <g id="patch_1">
   <path d="M 0 581.789375 
L 574.2 581.789375 
L 574.2 0 
L 0 0 
z
" style="fill:none;"/>
  </g>
  <g id="axes_1">
   <g id="patch_2">
    <path d="M 36 402.93 
L 538.2 402.93 
L 538.2 36 
L 36 36 
z
" style="fill:none;"/>
   </g>
   <g id="PolyCollection_1">
    <defs>
     <path d="M 108.323684 -195.538011 
L 108.323684 -195.649145 
L 112.43529 -195.691051 
L 116.546897 -195.747388 
L 120.658503 -195.8226 
L 124.77011 -195.922311 
L 128.881716 -196.053579 
L 132.993323 -196.225185 
L 137.104929 -196.447948 
L 141.216536 -196.735081 
L 145.328142 -197.102571 
L 149.439749 -197.569568 
L 153.551355 -198.158787 
L 157.662962 -198.896894 
L 161.774568 -199.81486 
L 165.886175 -200.948257 
L 169.997781 -202.337467 
L 174.109388 -204.027771 
L 178.220994 -206.069281 
L 182.332601 -208.516681 
L 186.444207 -211.428735 
L 190.555814 -214.86754 
L 194.66742 -218.897478 
L 198.779027 -223.583865 
L 202.890633 -228.991275 
L 207.00224 -235.181549 
L 211.113846 -242.211513 
L 215.225453 -250.130445 
L 219.337059 -258.977344 
L 223.448666 -268.778095 
L 227.560272 -279.542626 
L 231.671879 -291.262164 
L 235.783485 -303.906746 
L 239.895092 -317.423093 
L 244.006698 -331.733017 
L 248.118305 -346.732477 
L 252.229911 -362.291407 
L 256.341518 -378.254424 
L 260.453124 -394.442468 
L 264.564731 -410.655415 
L 268.676337 -426.675644 
L 272.787944 -442.272498 
L 276.89955 -457.207528 
L 281.011157 -471.240374 
L 285.122763 -484.135085 
L 289.23437 -495.666652 
L 293.345976 -505.627495 
L 297.457583 -513.833671 
L 301.569189 -520.130507 
L 305.680796 -524.397452 
L 309.792402 -526.551913 
L 313.904009 -526.551913 
L 318.015615 -524.397452 
L 322.127222 -520.130507 
L 326.238828 -513.833671 
L 330.350435 -505.627495 
L 334.462041 -495.666652 
L 338.573648 -484.135085 
L 342.685254 -471.240374 
L 346.796861 -457.207528 
L 350.908467 -442.272498 
L 355.020074 -426.675644 
L 359.13168 -410.655415 
L 363.243287 -394.442468 
L 367.354893 -378.254424 
L 371.4665 -362.291407 
L 375.578106 -346.732477 
L 379.689713 -331.733017 
L 383.801319 -317.423093 
L 387.912926 -303.906746 
L 392.024532 -291.262164 
L 396.136139 -279.542626 
L 400.247745 -268.778095 
L 404.359352 -258.977344 
L 408.470958 -250.130445 
L 412.582565 -242.211513 
L 416.694171 -235.181549 
L 420.805778 -228.991275 
L 424.917384 -223.583865 
L 429.028991 -218.897478 
L 433.140597 -214.86754 
L 437.252204 -211.428735 
L 441.36381 -208.516681 
L 445.475417 -206.069281 
L 449.587023 -204.027771 
L 453.69863 -202.337467 
L 457.810236 -200.948257 
L 461.921843 -199.81486 
L 466.033449 -198.896894 
L 470.145056 -198.158787 
L 474.256662 -197.569568 
L 478.368269 -197.102571 
L 482.479875 -196.735081 
L 486.591482 -196.447948 
L 490.703088 -196.225185 
L 494.814695 -196.053579 
L 498.926301 -195.922311 
L 503.037908 -195.8226 
L 507.149514 -195.747388 
L 511.261121 -195.691051 
L 515.372727 -195.649145 
L 515.372727 -195.538011 
L 515.372727 -195.538011 
L 511.261121 -195.538011 
L 507.149514 -195.538011 
L 503.037908 -195.538011 
L 498.926301 -195.538011 
L 494.814695 -195.538011 
L 490.703088 -195.538011 
L 486.591482 -195.538011 
L 482.479875 -195.538011 
L 478.368269 -195.538011 
L 474.256662 -195.538011 
L 470.145056 -195.538011 
L 466.033449 -195.538011 
L 461.921843 -195.538011 
L 457.810236 -195.538011 
L 453.69863 -195.538011 
L 449.587023 -195.538011 
L 445.475417 -195.538011 
L 441.36381 -195.538011 
L 437.252204 -195.538011 
L 433.140597 -195.538011 
L 429.028991 -195.538011 
L 424.917384 -195.538011 
L 420.805778 -195.538011 
L 416.694171 -195.538011 
L 412.582565 -195.538011 
L 408.470958 -195.538011 
L 404.359352 -195.538011 
L 400.247745 -195.538011 
L 396.136139 -195.538011 
L 392.024532 -195.538011 
L 387.912926 -195.538011 
L 383.801319 -195.538011 
L 379.689713 -195.538011 
L 375.578106 -195.538011 
L 371.4665 -195.538011 
L 367.354893 -195.538011 
L 363.243287 -195.538011 
L 359.13168 -195.538011 
L 355.020074 -195.538011 
L 350.908467 -195.538011 
L 346.796861 -195.538011 
L 342.685254 -195.538011 
L 338.573648 -195.538011 
L 334.462041 -195.538011 
L 330.350435 -195.538011 
L 326.238828 -195.538011 
L 322.127222 -195.538011 
L 318.015615 -195.538011 
L 313.904009 -195.538011 
L 309.792402 -195.538011 
L 305.680796 -195.538011 
L 301.569189 -195.538011 
L 297.457583 -195.538011 
L 293.345976 -195.538011 
L 289.23437 -195.538011 
L 285.122763 -195.538011 
L 281.011157 -195.538011 
L 276.89955 -195.538011 
L 272.787944 -195.538011 
L 268.676337 -195.538011 
L 264.564731 -195.538011 
L 260.453124 -195.538011 
L 256.341518 -195.538011 
L 252.229911 -195.538011 
L 248.118305 -195.538011 
L 244.006698 -195.538011 
L 239.895092 -195.538011 
L 235.783485 -195.538011 
L 231.671879 -195.538011 
L 227.560272 -195.538011 
L 223.448666 -195.538011 
L 219.337059 -195.538011 
L 215.225453 -195.538011 
L 211.113846 -195.538011 
L 207.00224 -195.538011 
L 202.890633 -195.538011 
L 198.779027 -195.538011 
L 194.66742 -195.538011 
L 190.555814 -195.538011 
L 186.444207 -195.538011 
L 182.332601 -195.538011 
L 178.220994 -195.538011 
L 174.109388 -195.538011 
L 169.997781 -195.538011 
L 165.886175 -195.538011 
L 161.774568 -195.538011 
L 157.662962 -195.538011 
L 153.551355 -195.538011 
L 149.439749 -195.538011 
L 145.328142 -195.538011 
L 141.216536 -195.538011 
L 137.104929 -195.538011 
L 132.993323 -195.538011 
L 128.881716 -195.538011 
L 124.77011 -195.538011 
L 120.658503 -195.538011 
L 116.546897 -195.538011 
L 112.43529 -195.538011 
L 108.323684 -195.538011 
z
" id="m033cefeca5" style="stroke:#ff6384;stroke-opacity:0.5;"/>
    </defs>
    <g clip-path="url(#pc31aef1221)">
     <use style="fill:#ff6384;fill-opacity:0.5;stroke:#ff6384;stroke-opacity:0.5;" x="0" xlink:href="#m033cefeca5" y="581.789375"/>
    </g>
   </g>
   <g id="PolyCollection_2">
    <defs>
     <path d="M 58.827273 -195.538011 
L 58.827273 -195.650004 
L 62.907339 -195.692234 
L 66.987406 -195.749007 
L 71.067472 -195.8248 
L 75.147539 -195.925281 
L 79.227605 -196.057565 
L 83.307672 -196.230497 
L 87.387738 -196.454982 
L 91.467805 -196.744335 
L 95.547871 -197.114666 
L 99.627938 -197.585273 
L 103.708004 -198.179047 
L 107.788071 -198.922859 
L 111.868137 -199.847921 
L 115.948204 -200.990079 
L 120.02827 -202.390029 
L 124.108337 -204.093399 
L 128.188403 -206.150691 
L 132.26847 -208.617009 
L 136.348536 -211.551575 
L 140.428603 -215.016962 
L 144.508669 -219.078053 
L 148.588736 -223.800667 
L 152.668802 -229.249878 
L 156.748869 -235.488004 
L 160.828935 -242.572312 
L 164.909002 -250.552459 
L 168.989068 -259.467747 
L 173.069135 -269.344261 
L 177.149201 -280.192004 
L 181.229268 -292.002137 
L 185.309334 -304.744465 
L 189.3894 -318.365297 
L 193.469467 -332.785841 
L 197.549533 -347.901251 
L 201.6296 -363.580456 
L 205.709666 -379.666871 
L 209.789733 -395.980052 
L 213.869799 -412.31833 
L 217.949866 -428.4624 
L 222.029932 -444.179822 
L 226.109999 -459.230303 
L 230.190065 -473.371627 
L 234.270132 -486.366018 
L 238.350198 -497.986726 
L 242.430265 -508.02457 
L 246.510331 -516.294181 
L 250.590398 -522.639693 
L 254.670464 -526.939623 
L 258.750531 -529.110739 
L 262.830597 -529.110739 
L 266.910664 -526.939623 
L 270.99073 -522.639693 
L 275.070797 -516.294181 
L 279.150863 -508.02457 
L 283.23093 -497.986726 
L 287.310996 -486.366018 
L 291.391063 -473.371627 
L 295.471129 -459.230303 
L 299.551196 -444.179822 
L 303.631262 -428.4624 
L 307.711329 -412.31833 
L 311.791395 -395.980052 
L 315.871462 -379.666871 
L 319.951528 -363.580456 
L 324.031595 -347.901251 
L 328.111661 -332.785841 
L 332.191728 -318.365297 
L 336.271794 -304.744465 
L 340.351861 -292.002137 
L 344.431927 -280.192004 
L 348.511994 -269.344261 
L 352.59206 -259.467747 
L 356.672127 -250.552459 
L 360.752193 -242.572312 
L 364.83226 -235.488004 
L 368.912326 -229.249878 
L 372.992393 -223.800667 
L 377.072459 -219.078053 
L 381.152526 -215.016962 
L 385.232592 -211.551575 
L 389.312659 -208.617009 
L 393.392725 -206.150691 
L 397.472792 -204.093399 
L 401.552858 -202.390029 
L 405.632925 -200.990079 
L 409.712991 -199.847921 
L 413.793058 -198.922859 
L 417.873124 -198.179047 
L 421.953191 -197.585273 
L 426.033257 -197.114666 
L 430.113324 -196.744335 
L 434.19339 -196.454982 
L 438.273457 -196.230497 
L 442.353523 -196.057565 
L 446.43359 -195.925281 
L 450.513656 -195.8248 
L 454.593723 -195.749007 
L 458.673789 -195.692234 
L 462.753856 -195.650004 
L 462.753856 -195.538011 
L 462.753856 -195.538011 
L 458.673789 -195.538011 
L 454.593723 -195.538011 
L 450.513656 -195.538011 
L 446.43359 -195.538011 
L 442.353523 -195.538011 
L 438.273457 -195.538011 
L 434.19339 -195.538011 
L 430.113324 -195.538011 
L 426.033257 -195.538011 
L 421.953191 -195.538011 
L 417.873124 -195.538011 
L 413.793058 -195.538011 
L 409.712991 -195.538011 
L 405.632925 -195.538011 
L 401.552858 -195.538011 
L 397.472792 -195.538011 
L 393.392725 -195.538011 
L 389.312659 -195.538011 
L 385.232592 -195.538011 
L 381.152526 -195.538011 
L 377.072459 -195.538011 
L 372.992393 -195.538011 
L 368.912326 -195.538011 
L 364.83226 -195.538011 
L 360.752193 -195.538011 
L 356.672127 -195.538011 
L 352.59206 -195.538011 
L 348.511994 -195.538011 
L 344.431927 -195.538011 
L 340.351861 -195.538011 
L 336.271794 -195.538011 
L 332.191728 -195.538011 
L 328.111661 -195.538011 
L 324.031595 -195.538011 
L 319.951528 -195.538011 
L 315.871462 -195.538011 
L 311.791395 -195.538011 
L 307.711329 -195.538011 
L 303.631262 -195.538011 
L 299.551196 -195.538011 
L 295.471129 -195.538011 
L 291.391063 -195.538011 
L 287.310996 -195.538011 
L 283.23093 -195.538011 
L 279.150863 -195.538011 
L 275.070797 -195.538011 
L 270.99073 -195.538011 
L 266.910664 -195.538011 
L 262.830597 -195.538011 
L 258.750531 -195.538011 
L 254.670464 -195.538011 
L 250.590398 -195.538011 
L 246.510331 -195.538011 
L 242.430265 -195.538011 
L 238.350198 -195.538011 
L 234.270132 -195.538011 
L 230.190065 -195.538011 
L 226.109999 -195.538011 
L 222.029932 -195.538011 
L 217.949866 -195.538011 
L 213.869799 -195.538011 
L 209.789733 -195.538011 
L 205.709666 -195.538011 
L 201.6296 -195.538011 
L 197.549533 -195.538011 
L 193.469467 -195.538011 
L 189.3894 -195.538011 
L 185.309334 -195.538011 
L 181.229268 -195.538011 
L 177.149201 -195.538011 
L 173.069135 -195.538011 
L 168.989068 -195.538011 
L 164.909002 -195.538011 
L 160.828935 -195.538011 
L 156.748869 -195.538011 
L 152.668802 -195.538011 
L 148.588736 -195.538011 
L 144.508669 -195.538011 
L 140.428603 -195.538011 
L 136.348536 -195.538011 
L 132.26847 -195.538011 
L 128.188403 -195.538011 
L 124.108337 -195.538011 
L 120.02827 -195.538011 
L 115.948204 -195.538011 
L 111.868137 -195.538011 
L 107.788071 -195.538011 
L 103.708004 -195.538011 
L 99.627938 -195.538011 
L 95.547871 -195.538011 
L 91.467805 -195.538011 
L 87.387738 -195.538011 
L 83.307672 -195.538011 
L 79.227605 -195.538011 
L 75.147539 -195.538011 
L 71.067472 -195.538011 
L 66.987406 -195.538011 
L 62.907339 -195.538011 
L 58.827273 -195.538011 
z
" id="m829575b7a4" style="stroke:#36a2eb;stroke-opacity:0.5;"/>
    </defs>
    <g clip-path="url(#pc31aef1221)">
     <use style="fill:#36a2eb;fill-opacity:0.5;stroke:#36a2eb;stroke-opacity:0.5;" x="0" xlink:href="#m829575b7a4" y="581.789375"/>
    </g>
   </g>
   <g id="line2d_1">
    <path clip-path="url(#pc31aef1221)" d="M 108.323684 386.14023 
L 112.43529 386.098324 
L 116.546897 386.041987 
L 120.658503 385.966775 
L 124.77011 385.867064 
L 128.881716 385.735796 
L 132.993323 385.56419 
L 137.104929 385.341427 
L 141.216536 385.054294 
L 145.328142 384.686804 
L 149.439749 384.219807 
L 153.551355 383.630588 
L 157.662962 382.892481 
L 161.774568 381.974515 
L 165.886175 380.841118 
L 169.997781 379.451908 
L 174.109388 377.761604 
L 178.220994 375.720094 
L 182.332601 373.272694 
L 186.444207 370.36064 
L 190.555814 366.921835 
L 194.66742 362.891897 
L 198.779027 358.20551 
L 202.890633 352.7981 
L 207.00224 346.607826 
L 211.113846 339.577862 
L 215.225453 331.65893 
L 219.337059 322.812031 
L 223.448666 313.01128 
L 227.560272 302.246749 
L 231.671879 290.527211 
L 235.783485 277.882629 
L 239.895092 264.366282 
L 244.006698 250.056358 
L 248.118305 235.056898 
L 252.229911 219.497968 
L 256.341518 203.534951 
L 260.453124 187.346907 
L 264.564731 171.13396 
L 268.676337 155.113731 
L 272.787944 139.516877 
L 276.89955 124.581847 
L 281.011157 110.549001 
L 285.122763 97.65429 
L 289.23437 86.122723 
L 293.345976 76.16188 
L 297.457583 67.955704 
L 301.569189 61.658868 
L 305.680796 57.391923 
L 309.792402 55.237462 
L 313.904009 55.237462 
L 318.015615 57.391923 
L 322.127222 61.658868 
L 326.238828 67.955704 
L 330.350435 76.16188 
L 334.462041 86.122723 
L 338.573648 97.65429 
L 342.685254 110.549001 
L 346.796861 124.581847 
L 350.908467 139.516877 
L 355.020074 155.113731 
L 359.13168 171.13396 
L 363.243287 187.346907 
L 367.354893 203.534951 
L 371.4665 219.497968 
L 375.578106 235.056898 
L 379.689713 250.056358 
L 383.801319 264.366282 
L 387.912926 277.882629 
L 392.024532 290.527211 
L 396.136139 302.246749 
L 400.247745 313.01128 
L 404.359352 322.812031 
L 408.470958 331.65893 
L 412.582565 339.577862 
L 416.694171 346.607826 
L 420.805778 352.7981 
L 424.917384 358.20551 
L 429.028991 362.891897 
L 433.140597 366.921835 
L 437.252204 370.36064 
L 441.36381 373.272694 
L 445.475417 375.720094 
L 449.587023 377.761604 
L 453.69863 379.451908 
L 457.810236 380.841118 
L 461.921843 381.974515 
L 466.033449 382.892481 
L 470.145056 383.630588 
L 474.256662 384.219807 
L 478.368269 384.686804 
L 482.479875 385.054294 
L 486.591482 385.341427 
L 490.703088 385.56419 
L 494.814695 385.735796 
L 498.926301 385.867064 
L 503.037908 385.966775 
L 507.149514 386.041987 
L 511.261121 386.098324 
L 515.372727 386.14023 
" style="fill:none;stroke:#ff6384;stroke-linecap:square;"/>
   </g>
   <g id="line2d_2">
    <path clip-path="url(#pc31aef1221)" d="M 58.827273 386.139371 
L 62.907339 386.097141 
L 66.987406 386.040368 
L 71.067472 385.964575 
L 75.147539 385.864094 
L 79.227605 385.73181 
L 83.307672 385.558878 
L 87.387738 385.334393 
L 91.467805 385.04504 
L 95.547871 384.674709 
L 99.627938 384.204102 
L 103.708004 383.610328 
L 107.788071 382.866516 
L 111.868137 381.941454 
L 115.948204 380.799296 
L 120.02827 379.399346 
L 124.108337 377.695976 
L 128.188403 375.638684 
L 132.26847 373.172366 
L 136.348536 370.2378 
L 140.428603 366.772413 
L 144.508669 362.711322 
L 148.588736 357.988708 
L 152.668802 352.539497 
L 156.748869 346.301371 
L 160.828935 339.217063 
L 164.909002 331.236916 
L 168.989068 322.321628 
L 173.069135 312.445114 
L 177.149201 301.597371 
L 181.229268 289.787238 
L 185.309334 277.04491 
L 189.3894 263.424078 
L 193.469467 249.003534 
L 197.549533 233.888124 
L 201.6296 218.208919 
L 205.709666 202.122504 
L 209.789733 185.809323 
L 213.869799 169.471045 
L 217.949866 153.326975 
L 222.029932 137.609553 
L 226.109999 122.559072 
L 230.190065 108.417748 
L 234.270132 95.423357 
L 238.350198 83.802649 
L 242.430265 73.764805 
L 246.510331 65.495194 
L 250.590398 59.149682 
L 254.670464 54.849752 
L 258.750531 52.678636 
L 262.830597 52.678636 
L 266.910664 54.849752 
L 270.99073 59.149682 
L 275.070797 65.495194 
L 279.150863 73.764805 
L 283.23093 83.802649 
L 287.310996 95.423357 
L 291.391063 108.417748 
L 295.471129 122.559072 
L 299.551196 137.609553 
L 303.631262 153.326975 
L 307.711329 169.471045 
L 311.791395 185.809323 
L 315.871462 202.122504 
L 319.951528 218.208919 
L 324.031595 233.888124 
L 328.111661 249.003534 
L 332.191728 263.424078 
L 336.271794 277.04491 
L 340.351861 289.787238 
L 344.431927 301.597371 
L 348.511994 312.445114 
L 352.59206 322.321628 
L 356.672127 331.236916 
L 360.752193 339.217063 
L 364.83226 346.301371 
L 368.912326 352.539497 
L 372.992393 357.988708 
L 377.072459 362.711322 
L 381.152526 366.772413 
L 385.232592 370.2378 
L 389.312659 373.172366 
L 393.392725 375.638684 
L 397.472792 377.695976 
L 401.552858 379.399346 
L 405.632925 380.799296 
L 409.712991 381.941454 
L 413.793058 382.866516 
L 417.873124 383.610328 
L 421.953191 384.204102 
L 426.033257 384.674709 
L 430.113324 385.04504 
L 434.19339 385.334393 
L 438.273457 385.558878 
L 442.353523 385.73181 
L 446.43359 385.864094 
L 450.513656 385.964575 
L 454.593723 386.040368 
L 458.673789 386.097141 
L 462.753856 386.139371 
" style="fill:none;stroke:#36a2eb;stroke-linecap:square;"/>
   </g>
   <g id="patch_3">
    <path d="M 36 402.93 
L 538.2 402.93 
" style="fill:none;stroke:#000000;stroke-linecap:square;stroke-linejoin:miter;stroke-width:0.8;"/>
   </g>
   <g id="legend_1">
    <g id="patch_4">
     <path d="M 410.290313 88.688125 
L 528.4 88.688125 
Q 531.2 88.688125 531.2 85.888125 
L 531.2 45.8 
Q 531.2 43 528.4 43 
L 410.290313 43 
Q 407.490313 43 407.490313 45.8 
L 407.490313 85.888125 
Q 407.490313 88.688125 410.290313 88.688125 
z
" style="fill:#ffffff;opacity:0.8;stroke:#cccccc;stroke-linejoin:miter;"/>
    </g>
    <g id="patch_5">
     <path d="M 413.090313 59.237813 
L 441.090313 59.237813 
L 441.090313 49.437813 
L 413.090313 49.437813 
z
" style="fill:#ff6384;opacity:0.5;stroke:#ff6384;stroke-linejoin:miter;"/>
    </g>
    <g id="text_1">
     <!-- base -->
     <defs>
      <path d="M 48.6875 27.296875 
Q 48.6875 37.203125 44.609375 42.84375 
Q 40.53125 48.484375 33.40625 48.484375 
Q 26.265625 48.484375 22.1875 42.84375 
Q 18.109375 37.203125 18.109375 27.296875 
Q 18.109375 17.390625 22.1875 11.75 
Q 26.265625 6.109375 33.40625 6.109375 
Q 40.53125 6.109375 44.609375 11.75 
Q 48.6875 17.390625 48.6875 27.296875 
z
M 18.109375 46.390625 
Q 20.953125 51.265625 25.265625 53.625 
Q 29.59375 56 35.59375 56 
Q 45.5625 56 51.78125 48.09375 
Q 58.015625 40.1875 58.015625 27.296875 
Q 58.015625 14.40625 51.78125 6.484375 
Q 45.5625 -1.421875 35.59375 -1.421875 
Q 29.59375 -1.421875 25.265625 0.953125 
Q 20.953125 3.328125 18.109375 8.203125 
L 18.109375 0 
L 9.078125 0 
L 9.078125 75.984375 
L 18.109375 75.984375 
z
" id="DejaVuSans-98"/>
      <path d="M 34.28125 27.484375 
Q 23.390625 27.484375 19.1875 25 
Q 14.984375 22.515625 14.984375 16.5 
Q 14.984375 11.71875 18.140625 8.90625 
Q 21.296875 6.109375 26.703125 6.109375 
Q 34.1875 6.109375 38.703125 11.40625 
Q 43.21875 16.703125 43.21875 25.484375 
L 43.21875 27.484375 
z
M 52.203125 31.203125 
L 52.203125 0 
L 43.21875 0 
L 43.21875 8.296875 
Q 40.140625 3.328125 35.546875 0.953125 
Q 30.953125 -1.421875 24.3125 -1.421875 
Q 15.921875 -1.421875 10.953125 3.296875 
Q 6 8.015625 6 15.921875 
Q 6 25.140625 12.171875 29.828125 
Q 18.359375 34.515625 30.609375 34.515625 
L 43.21875 34.515625 
L 43.21875 35.40625 
Q 43.21875 41.609375 39.140625 45 
Q 35.0625 48.390625 27.6875 48.390625 
Q 23 48.390625 18.546875 47.265625 
Q 14.109375 46.140625 10.015625 43.890625 
L 10.015625 52.203125 
Q 14.9375 54.109375 19.578125 55.046875 
Q 24.21875 56 28.609375 56 
Q 40.484375 56 46.34375 49.84375 
Q 52.203125 43.703125 52.203125 31.203125 
z
" id="DejaVuSans-97"/>
      <path d="M 44.28125 53.078125 
L 44.28125 44.578125 
Q 40.484375 46.53125 36.375 47.5 
Q 32.28125 48.484375 27.875 48.484375 
Q 21.1875 48.484375 17.84375 46.4375 
Q 14.5 44.390625 14.5 40.28125 
Q 14.5 37.15625 16.890625 35.375 
Q 19.28125 33.59375 26.515625 31.984375 
L 29.59375 31.296875 
Q 39.15625 29.25 43.1875 25.515625 
Q 47.21875 21.78125 47.21875 15.09375 
Q 47.21875 7.46875 41.1875 3.015625 
Q 35.15625 -1.421875 24.609375 -1.421875 
Q 20.21875 -1.421875 15.453125 -0.5625 
Q 10.6875 0.296875 5.421875 2 
L 5.421875 11.28125 
Q 10.40625 8.6875 15.234375 7.390625 
Q 20.0625 6.109375 24.8125 6.109375 
Q 31.15625 6.109375 34.5625 8.28125 
Q 37.984375 10.453125 37.984375 14.40625 
Q 37.984375 18.0625 35.515625 20.015625 
Q 33.0625 21.96875 24.703125 23.78125 
L 21.578125 24.515625 
Q 13.234375 26.265625 9.515625 29.90625 
Q 5.8125 33.546875 5.8125 39.890625 
Q 5.8125 47.609375 11.28125 51.796875 
Q 16.75 56 26.8125 56 
Q 31.78125 56 36.171875 55.265625 
Q 40.578125 54.546875 44.28125 53.078125 
z
" id="DejaVuSans-115"/>
      <path d="M 56.203125 29.59375 
L 56.203125 25.203125 
L 14.890625 25.203125 
Q 15.484375 15.921875 20.484375 11.0625 
Q 25.484375 6.203125 34.421875 6.203125 
Q 39.59375 6.203125 44.453125 7.46875 
Q 49.3125 8.734375 54.109375 11.28125 
L 54.109375 2.78125 
Q 49.265625 0.734375 44.1875 -0.34375 
Q 39.109375 -1.421875 33.890625 -1.421875 
Q 20.796875 -1.421875 13.15625 6.1875 
Q 5.515625 13.8125 5.515625 26.8125 
Q 5.515625 40.234375 12.765625 48.109375 
Q 20.015625 56 32.328125 56 
Q 43.359375 56 49.78125 48.890625 
Q 56.203125 41.796875 56.203125 29.59375 
z
M 47.21875 32.234375 
Q 47.125 39.59375 43.09375 43.984375 
Q 39.0625 48.390625 32.421875 48.390625 
Q 24.90625 48.390625 20.390625 44.140625 
Q 15.875 39.890625 15.1875 32.171875 
z
" id="DejaVuSans-101"/>
     </defs>
     <g transform="translate(452.290313 59.237813)scale(0.14 -0.14)">
      <use xlink:href="#DejaVuSans-98"/>
      <use x="63.476562" xlink:href="#DejaVuSans-97"/>
      <use x="124.755859" xlink:href="#DejaVuSans-115"/>
      <use x="176.855469" xlink:href="#DejaVuSans-101"/>
     </g>
    </g>
    <g id="patch_6">
     <path d="M 413.090313 79.787188 
L 441.090313 79.787188 
L 441.090313 69.987188 
L 413.090313 69.987188 
z
" style="fill:#36a2eb;opacity:0.5;stroke:#36a2eb;stroke-linejoin:miter;"/>
    </g>
    <g id="text_2">
     <!-- no_license -->
     <defs>
      <path d="M 54.890625 33.015625 
L 54.890625 0 
L 45.90625 0 
L 45.90625 32.71875 
Q 45.90625 40.484375 42.875 44.328125 
Q 39.84375 48.1875 33.796875 48.1875 
Q 26.515625 48.1875 22.3125 43.546875 
Q 18.109375 38.921875 18.109375 30.90625 
L 18.109375 0 
L 9.078125 0 
L 9.078125 54.6875 
L 18.109375 54.6875 
L 18.109375 46.1875 
Q 21.34375 51.125 25.703125 53.5625 
Q 30.078125 56 35.796875 56 
Q 45.21875 56 50.046875 50.171875 
Q 54.890625 44.34375 54.890625 33.015625 
z
" id="DejaVuSans-110"/>
      <path d="M 30.609375 48.390625 
Q 23.390625 48.390625 19.1875 42.75 
Q 14.984375 37.109375 14.984375 27.296875 
Q 14.984375 17.484375 19.15625 11.84375 
Q 23.34375 6.203125 30.609375 6.203125 
Q 37.796875 6.203125 41.984375 11.859375 
Q 46.1875 17.53125 46.1875 27.296875 
Q 46.1875 37.015625 41.984375 42.703125 
Q 37.796875 48.390625 30.609375 48.390625 
z
M 30.609375 56 
Q 42.328125 56 49.015625 48.375 
Q 55.71875 40.765625 55.71875 27.296875 
Q 55.71875 13.875 49.015625 6.21875 
Q 42.328125 -1.421875 30.609375 -1.421875 
Q 18.84375 -1.421875 12.171875 6.21875 
Q 5.515625 13.875 5.515625 27.296875 
Q 5.515625 40.765625 12.171875 48.375 
Q 18.84375 56 30.609375 56 
z
" id="DejaVuSans-111"/>
      <path d="M 50.984375 -16.609375 
L 50.984375 -23.578125 
L -0.984375 -23.578125 
L -0.984375 -16.609375 
z
" id="DejaVuSans-95"/>
      <path d="M 9.421875 75.984375 
L 18.40625 75.984375 
L 18.40625 0 
L 9.421875 0 
z
" id="DejaVuSans-108"/>
      <path d="M 9.421875 54.6875 
L 18.40625 54.6875 
L 18.40625 0 
L 9.421875 0 
z
M 9.421875 75.984375 
L 18.40625 75.984375 
L 18.40625 64.59375 
L 9.421875 64.59375 
z
" id="DejaVuSans-105"/>
      <path d="M 48.78125 52.59375 
L 48.78125 44.1875 
Q 44.96875 46.296875 41.140625 47.34375 
Q 37.3125 48.390625 33.40625 48.390625 
Q 24.65625 48.390625 19.8125 42.84375 
Q 14.984375 37.3125 14.984375 27.296875 
Q 14.984375 17.28125 19.8125 11.734375 
Q 24.65625 6.203125 33.40625 6.203125 
Q 37.3125 6.203125 41.140625 7.25 
Q 44.96875 8.296875 48.78125 10.40625 
L 48.78125 2.09375 
Q 45.015625 0.34375 40.984375 -0.53125 
Q 36.96875 -1.421875 32.421875 -1.421875 
Q 20.0625 -1.421875 12.78125 6.34375 
Q 5.515625 14.109375 5.515625 27.296875 
Q 5.515625 40.671875 12.859375 48.328125 
Q 20.21875 56 33.015625 56 
Q 37.15625 56 41.109375 55.140625 
Q 45.0625 54.296875 48.78125 52.59375 
z
" id="DejaVuSans-99"/>
     </defs>
     <g transform="translate(452.290313 79.787188)scale(0.14 -0.14)">
      <use xlink:href="#DejaVuSans-110"/>
      <use x="63.378906" xlink:href="#DejaVuSans-111"/>
      <use x="124.560547" xlink:href="#DejaVuSans-95"/>
      <use x="174.560547" xlink:href="#DejaVuSans-108"/>
      <use x="202.34375" xlink:href="#DejaVuSans-105"/>
      <use x="230.126953" xlink:href="#DejaVuSans-99"/>
      <use x="285.107422" xlink:href="#DejaVuSans-101"/>
      <use x="346.630859" xlink:href="#DejaVuSans-110"/>
      <use x="410.009766" xlink:href="#DejaVuSans-115"/>
      <use x="462.109375" xlink:href="#DejaVuSans-101"/>
     </g>
    </g>
   </g>
  </g>
  <g id="axes_2">
   <g id="patch_7">
    <path d="M 36 525.24 
L 538.2 525.24 
L 538.2 402.93 
L 36 402.93 
z
" style="fill:none;"/>
   </g>
   <g id="patch_8">
    <path clip-path="url(#p7deb0f3372)" d="M 212.12119 519.680455 
L 411.575221 519.680455 
L 411.575221 482.616818 
L 212.12119 482.616818 
z
" style="fill:#ff6384;opacity:0.5;"/>
   </g>
   <g id="patch_9">
    <path clip-path="url(#p7deb0f3372)" d="M 161.828551 445.553182 
L 359.752577 445.553182 
L 359.752577 408.489545 
L 161.828551 408.489545 
z
" style="fill:#36a2eb;opacity:0.5;"/>
   </g>
   <g id="matplotlib.axis_1">
    <g id="xtick_1">
     <g id="line2d_3">
      <defs>
       <path d="M 0 0 
L 0 3.5 
" id="m5664fdf14e" style="stroke:#000000;stroke-width:0.8;"/>
      </defs>
      <g>
       <use style="stroke:#000000;stroke-width:0.8;" x="100.323691" xlink:href="#m5664fdf14e" y="525.24"/>
      </g>
     </g>
     <g id="text_3">
      <!-- 5.0 -->
      <defs>
       <path d="M 10.796875 72.90625 
L 49.515625 72.90625 
L 49.515625 64.59375 
L 19.828125 64.59375 
L 19.828125 46.734375 
Q 21.96875 47.46875 24.109375 47.828125 
Q 26.265625 48.1875 28.421875 48.1875 
Q 40.625 48.1875 47.75 41.5 
Q 54.890625 34.8125 54.890625 23.390625 
Q 54.890625 11.625 47.5625 5.09375 
Q 40.234375 -1.421875 26.90625 -1.421875 
Q 22.3125 -1.421875 17.546875 -0.640625 
Q 12.796875 0.140625 7.71875 1.703125 
L 7.71875 11.625 
Q 12.109375 9.234375 16.796875 8.0625 
Q 21.484375 6.890625 26.703125 6.890625 
Q 35.15625 6.890625 40.078125 11.328125 
Q 45.015625 15.765625 45.015625 23.390625 
Q 45.015625 31 40.078125 35.4375 
Q 35.15625 39.890625 26.703125 39.890625 
Q 22.75 39.890625 18.8125 39.015625 
Q 14.890625 38.140625 10.796875 36.28125 
z
" id="DejaVuSans-53"/>
       <path d="M 10.6875 12.40625 
L 21 12.40625 
L 21 0 
L 10.6875 0 
z
" id="DejaVuSans-46"/>
       <path d="M 31.78125 66.40625 
Q 24.171875 66.40625 20.328125 58.90625 
Q 16.5 51.421875 16.5 36.375 
Q 16.5 21.390625 20.328125 13.890625 
Q 24.171875 6.390625 31.78125 6.390625 
Q 39.453125 6.390625 43.28125 13.890625 
Q 47.125 21.390625 47.125 36.375 
Q 47.125 51.421875 43.28125 58.90625 
Q 39.453125 66.40625 31.78125 66.40625 
z
M 31.78125 74.21875 
Q 44.046875 74.21875 50.515625 64.515625 
Q 56.984375 54.828125 56.984375 36.375 
Q 56.984375 17.96875 50.515625 8.265625 
Q 44.046875 -1.421875 31.78125 -1.421875 
Q 19.53125 -1.421875 13.0625 8.265625 
Q 6.59375 17.96875 6.59375 36.375 
Q 6.59375 54.828125 13.0625 64.515625 
Q 19.53125 74.21875 31.78125 74.21875 
z
" id="DejaVuSans-48"/>
      </defs>
      <g transform="translate(89.191503 542.877813)scale(0.14 -0.14)">
       <use xlink:href="#DejaVuSans-53"/>
       <use x="63.623047" xlink:href="#DejaVuSans-46"/>
       <use x="95.410156" xlink:href="#DejaVuSans-48"/>
      </g>
     </g>
    </g>
    <g id="xtick_2">
     <g id="line2d_4">
      <g>
       <use style="stroke:#000000;stroke-width:0.8;" x="191.498051" xlink:href="#m5664fdf14e" y="525.24"/>
      </g>
     </g>
     <g id="text_4">
      <!-- 5.5 -->
      <g transform="translate(180.365863 542.877813)scale(0.14 -0.14)">
       <use xlink:href="#DejaVuSans-53"/>
       <use x="63.623047" xlink:href="#DejaVuSans-46"/>
       <use x="95.410156" xlink:href="#DejaVuSans-53"/>
      </g>
     </g>
    </g>
    <g id="xtick_3">
     <g id="line2d_5">
      <g>
       <use style="stroke:#000000;stroke-width:0.8;" x="282.67241" xlink:href="#m5664fdf14e" y="525.24"/>
      </g>
     </g>
     <g id="text_5">
      <!-- 6.0 -->
      <defs>
       <path d="M 33.015625 40.375 
Q 26.375 40.375 22.484375 35.828125 
Q 18.609375 31.296875 18.609375 23.390625 
Q 18.609375 15.53125 22.484375 10.953125 
Q 26.375 6.390625 33.015625 6.390625 
Q 39.65625 6.390625 43.53125 10.953125 
Q 47.40625 15.53125 47.40625 23.390625 
Q 47.40625 31.296875 43.53125 35.828125 
Q 39.65625 40.375 33.015625 40.375 
z
M 52.59375 71.296875 
L 52.59375 62.3125 
Q 48.875 64.0625 45.09375 64.984375 
Q 41.3125 65.921875 37.59375 65.921875 
Q 27.828125 65.921875 22.671875 59.328125 
Q 17.53125 52.734375 16.796875 39.40625 
Q 19.671875 43.65625 24.015625 45.921875 
Q 28.375 48.1875 33.59375 48.1875 
Q 44.578125 48.1875 50.953125 41.515625 
Q 57.328125 34.859375 57.328125 23.390625 
Q 57.328125 12.15625 50.6875 5.359375 
Q 44.046875 -1.421875 33.015625 -1.421875 
Q 20.359375 -1.421875 13.671875 8.265625 
Q 6.984375 17.96875 6.984375 36.375 
Q 6.984375 53.65625 15.1875 63.9375 
Q 23.390625 74.21875 37.203125 74.21875 
Q 40.921875 74.21875 44.703125 73.484375 
Q 48.484375 72.75 52.59375 71.296875 
z
" id="DejaVuSans-54"/>
      </defs>
      <g transform="translate(271.540223 542.877813)scale(0.14 -0.14)">
       <use xlink:href="#DejaVuSans-54"/>
       <use x="63.623047" xlink:href="#DejaVuSans-46"/>
       <use x="95.410156" xlink:href="#DejaVuSans-48"/>
      </g>
     </g>
    </g>
    <g id="xtick_4">
     <g id="line2d_6">
      <g>
       <use style="stroke:#000000;stroke-width:0.8;" x="373.84677" xlink:href="#m5664fdf14e" y="525.24"/>
      </g>
     </g>
     <g id="text_6">
      <!-- 6.5 -->
      <g transform="translate(362.714583 542.877813)scale(0.14 -0.14)">
       <use xlink:href="#DejaVuSans-54"/>
       <use x="63.623047" xlink:href="#DejaVuSans-46"/>
       <use x="95.410156" xlink:href="#DejaVuSans-53"/>
      </g>
     </g>
    </g>
    <g id="xtick_5">
     <g id="line2d_7">
      <g>
       <use style="stroke:#000000;stroke-width:0.8;" x="465.02113" xlink:href="#m5664fdf14e" y="525.24"/>
      </g>
     </g>
     <g id="text_7">
      <!-- 7.0 -->
      <defs>
       <path d="M 8.203125 72.90625 
L 55.078125 72.90625 
L 55.078125 68.703125 
L 28.609375 0 
L 18.3125 0 
L 43.21875 64.59375 
L 8.203125 64.59375 
z
" id="DejaVuSans-55"/>
      </defs>
      <g transform="translate(453.888943 542.877813)scale(0.14 -0.14)">
       <use xlink:href="#DejaVuSans-55"/>
       <use x="63.623047" xlink:href="#DejaVuSans-46"/>
       <use x="95.410156" xlink:href="#DejaVuSans-48"/>
      </g>
     </g>
    </g>
   </g>
   <g id="line2d_8">
    <path clip-path="url(#p7deb0f3372)" d="M 311.848206 525.24 
L 311.848206 402.93 
" style="fill:none;stroke:#ff6384;stroke-dasharray:5.55,2.4;stroke-dashoffset:0;stroke-opacity:0.8;stroke-width:1.5;"/>
   </g>
   <g id="line2d_9">
    <path clip-path="url(#p7deb0f3372)" d="M 260.790564 525.24 
L 260.790564 402.93 
" style="fill:none;stroke:#36a2eb;stroke-dasharray:5.55,2.4;stroke-dashoffset:0;stroke-opacity:0.8;stroke-width:1.5;"/>
   </g>
   <g id="patch_10">
    <path d="M 36 525.24 
L 538.2 525.24 
" style="fill:none;stroke:#000000;stroke-linecap:square;stroke-linejoin:miter;stroke-width:0.8;"/>
   </g>
  </g>
 </g>
 <defs>
  <clipPath id="pc31aef1221">
   <rect height="366.93" width="502.2" x="36" y="36"/>
  </clipPath>
  <clipPath id="p7deb0f3372">
   <rect height="122.31" width="502.2" x="36" y="402.93"/>
  </clipPath>
 </defs>
</svg>
