<?xml version="1.0" encoding="utf-8" standalone="no"?>
<!DOCTYPE svg PUBLIC "-//W3C//DTD SVG 1.1//EN"
  "http://www.w3.org/Graphics/SVG/1.1/DTD/svg11.dtd">
<!-- Created with matplotlib (https://matplotlib.org/) -->
<svg height="581.789375pt" version="1.1" viewBox="0 0 574.2 581.789375" width="574.2pt" xmlns="http://www.w3.org/2000/svg" xmlns:xlink="http://www.w3.org/1999/xlink">
 <defs>
  <style type="text/css">
*{stroke-linecap:butt;stroke-linejoin:round;}
  </style>
 </defs>
 <g id="figure_1">
  <g id="patch_1">
   <path d="M 0 581.789375 
L 574.2 581.789375 
L 574.2 0 
L 0 0 
z
" style="fill:none;"/>
  </g>
  <g id="axes_1">
   <g id="patch_2">
    <path d="M 36 402.93 
L 538.2 402.93 
L 538.2 36 
L 36 36 
z
" style="fill:none;"/>
   </g>
   <g id="PolyCollection_1">
    <defs>
     <path d="M 128.962954 -195.538011 
L 128.962954 -195.650004 
L 132.861481 -195.692234 
L 136.760009 -195.749007 
L 140.658536 -195.8248 
L 144.557064 -195.925281 
L 148.455591 -196.057565 
L 152.354118 -196.230497 
L 156.252646 -196.454982 
L 160.151173 -196.744335 
L 164.049701 -197.114666 
L 167.948228 -197.585273 
L 171.846755 -198.179047 
L 175.745283 -198.922859 
L 179.64381 -199.847921 
L 183.542338 -200.990079 
L 187.440865 -202.390029 
L 191.339392 -204.093399 
L 195.23792 -206.150691 
L 199.136447 -208.617009 
L 203.034975 -211.551575 
L 206.933502 -215.016962 
L 210.83203 -219.078053 
L 214.730557 -223.800667 
L 218.629084 -229.249878 
L 222.527612 -235.488004 
L 226.426139 -242.572312 
L 230.324667 -250.552459 
L 234.223194 -259.467747 
L 238.121721 -269.344261 
L 242.020249 -280.192004 
L 245.918776 -292.002137 
L 249.817304 -304.744465 
L 253.715831 -318.365297 
L 257.614358 -332.785841 
L 261.512886 -347.901251 
L 265.411413 -363.580456 
L 269.309941 -379.666871 
L 273.208468 -395.980052 
L 277.106995 -412.31833 
L 281.005523 -428.4624 
L 284.90405 -444.179822 
L 288.802578 -459.230303 
L 292.701105 -473.371627 
L 296.599632 -486.366018 
L 300.49816 -497.986726 
L 304.396687 -508.02457 
L 308.295215 -516.294181 
L 312.193742 -522.639693 
L 316.09227 -526.939623 
L 319.990797 -529.110739 
L 323.889324 -529.110739 
L 327.787852 -526.939623 
L 331.686379 -522.639693 
L 335.584907 -516.294181 
L 339.483434 -508.02457 
L 343.381961 -497.986726 
L 347.280489 -486.366018 
L 351.179016 -473.371627 
L 355.077544 -459.230303 
L 358.976071 -444.179822 
L 362.874598 -428.4624 
L 366.773126 -412.31833 
L 370.671653 -395.980052 
L 374.570181 -379.666871 
L 378.468708 -363.580456 
L 382.367235 -347.901251 
L 386.265763 -332.785841 
L 390.16429 -318.365297 
L 394.062818 -304.744465 
L 397.961345 -292.002137 
L 401.859872 -280.192004 
L 405.7584 -269.344261 
L 409.656927 -259.467747 
L 413.555455 -250.552459 
L 417.453982 -242.572312 
L 421.35251 -235.488004 
L 425.251037 -229.249878 
L 429.149564 -223.800667 
L 433.048092 -219.078053 
L 436.946619 -215.016962 
L 440.845147 -211.551575 
L 444.743674 -208.617009 
L 448.642201 -206.150691 
L 452.540729 -204.093399 
L 456.439256 -202.390029 
L 460.337784 -200.990079 
L 464.236311 -199.847921 
L 468.134838 -198.922859 
L 472.033366 -198.179047 
L 475.931893 -197.585273 
L 479.830421 -197.114666 
L 483.728948 -196.744335 
L 487.627475 -196.454982 
L 491.526003 -196.230497 
L 495.42453 -196.057565 
L 499.323058 -195.925281 
L 503.221585 -195.8248 
L 507.120112 -195.749007 
L 511.01864 -195.692234 
L 514.917167 -195.650004 
L 514.917167 -195.538011 
L 514.917167 -195.538011 
L 511.01864 -195.538011 
L 507.120112 -195.538011 
L 503.221585 -195.538011 
L 499.323058 -195.538011 
L 495.42453 -195.538011 
L 491.526003 -195.538011 
L 487.627475 -195.538011 
L 483.728948 -195.538011 
L 479.830421 -195.538011 
L 475.931893 -195.538011 
L 472.033366 -195.538011 
L 468.134838 -195.538011 
L 464.236311 -195.538011 
L 460.337784 -195.538011 
L 456.439256 -195.538011 
L 452.540729 -195.538011 
L 448.642201 -195.538011 
L 444.743674 -195.538011 
L 440.845147 -195.538011 
L 436.946619 -195.538011 
L 433.048092 -195.538011 
L 429.149564 -195.538011 
L 425.251037 -195.538011 
L 421.35251 -195.538011 
L 417.453982 -195.538011 
L 413.555455 -195.538011 
L 409.656927 -195.538011 
L 405.7584 -195.538011 
L 401.859872 -195.538011 
L 397.961345 -195.538011 
L 394.062818 -195.538011 
L 390.16429 -195.538011 
L 386.265763 -195.538011 
L 382.367235 -195.538011 
L 378.468708 -195.538011 
L 374.570181 -195.538011 
L 370.671653 -195.538011 
L 366.773126 -195.538011 
L 362.874598 -195.538011 
L 358.976071 -195.538011 
L 355.077544 -195.538011 
L 351.179016 -195.538011 
L 347.280489 -195.538011 
L 343.381961 -195.538011 
L 339.483434 -195.538011 
L 335.584907 -195.538011 
L 331.686379 -195.538011 
L 327.787852 -195.538011 
L 323.889324 -195.538011 
L 319.990797 -195.538011 
L 316.09227 -195.538011 
L 312.193742 -195.538011 
L 308.295215 -195.538011 
L 304.396687 -195.538011 
L 300.49816 -195.538011 
L 296.599632 -195.538011 
L 292.701105 -195.538011 
L 288.802578 -195.538011 
L 284.90405 -195.538011 
L 281.005523 -195.538011 
L 277.106995 -195.538011 
L 273.208468 -195.538011 
L 269.309941 -195.538011 
L 265.411413 -195.538011 
L 261.512886 -195.538011 
L 257.614358 -195.538011 
L 253.715831 -195.538011 
L 249.817304 -195.538011 
L 245.918776 -195.538011 
L 242.020249 -195.538011 
L 238.121721 -195.538011 
L 234.223194 -195.538011 
L 230.324667 -195.538011 
L 226.426139 -195.538011 
L 222.527612 -195.538011 
L 218.629084 -195.538011 
L 214.730557 -195.538011 
L 210.83203 -195.538011 
L 206.933502 -195.538011 
L 203.034975 -195.538011 
L 199.136447 -195.538011 
L 195.23792 -195.538011 
L 191.339392 -195.538011 
L 187.440865 -195.538011 
L 183.542338 -195.538011 
L 179.64381 -195.538011 
L 175.745283 -195.538011 
L 171.846755 -195.538011 
L 167.948228 -195.538011 
L 164.049701 -195.538011 
L 160.151173 -195.538011 
L 156.252646 -195.538011 
L 152.354118 -195.538011 
L 148.455591 -195.538011 
L 144.557064 -195.538011 
L 140.658536 -195.538011 
L 136.760009 -195.538011 
L 132.861481 -195.538011 
L 128.962954 -195.538011 
z
" id="mefc2c70194" style="stroke:#ff6384;stroke-opacity:0.5;"/>
    </defs>
    <g clip-path="url(#pde86206908)">
     <use style="fill:#ff6384;fill-opacity:0.5;stroke:#ff6384;stroke-opacity:0.5;" x="0" xlink:href="#mefc2c70194" y="581.789375"/>
    </g>
   </g>
   <g id="PolyCollection_2">
    <defs>
     <path d="M 58.827273 -195.538011 
L 58.827273 -195.632688 
L 63.438843 -195.668388 
L 68.050413 -195.716383 
L 72.661983 -195.780456 
L 77.273554 -195.865402 
L 81.885124 -195.977231 
L 86.496694 -196.123425 
L 91.108264 -196.313199 
L 95.719835 -196.557813 
L 100.331405 -196.870883 
L 104.942975 -197.268725 
L 109.554545 -197.770689 
L 114.166116 -198.399493 
L 118.777686 -199.181521 
L 123.389256 -200.147078 
L 128.000826 -201.330567 
L 132.612397 -202.770562 
L 137.223967 -204.509754 
L 141.835537 -206.594729 
L 146.447107 -209.075551 
L 151.058678 -212.005119 
L 155.670248 -215.438282 
L 160.281818 -219.430684 
L 164.893388 -224.037335 
L 169.504959 -229.31092 
L 174.116529 -235.29985 
L 178.728099 -242.046103 
L 183.339669 -249.582905 
L 187.95124 -257.932309 
L 192.56281 -267.102769 
L 197.17438 -277.086816 
L 201.78595 -287.858919 
L 206.397521 -299.373693 
L 211.009091 -311.564527 
L 215.620661 -324.342786 
L 220.232231 -337.597666 
L 224.843802 -351.196793 
L 229.455372 -364.987624 
L 234.066942 -378.79967 
L 238.678512 -392.447538 
L 243.290083 -405.734725 
L 247.901653 -418.458095 
L 252.513223 -430.412882 
L 257.124793 -441.398075 
L 261.736364 -451.221985 
L 266.347934 -459.707773 
L 270.959504 -466.698734 
L 275.571074 -472.0631 
L 280.182645 -475.698173 
L 284.794215 -477.53359 
L 289.405785 -477.53359 
L 294.017355 -475.698173 
L 298.628926 -472.0631 
L 303.240496 -466.698734 
L 307.852066 -459.707773 
L 312.463636 -451.221985 
L 317.075207 -441.398075 
L 321.686777 -430.412882 
L 326.298347 -418.458095 
L 330.909917 -405.734725 
L 335.521488 -392.447538 
L 340.133058 -378.79967 
L 344.744628 -364.987624 
L 349.356198 -351.196793 
L 353.967769 -337.597666 
L 358.579339 -324.342786 
L 363.190909 -311.564527 
L 367.802479 -299.373693 
L 372.41405 -287.858919 
L 377.02562 -277.086816 
L 381.63719 -267.102769 
L 386.24876 -257.932309 
L 390.860331 -249.582905 
L 395.471901 -242.046103 
L 400.083471 -235.29985 
L 404.695041 -229.31092 
L 409.306612 -224.037335 
L 413.918182 -219.430684 
L 418.529752 -215.438282 
L 423.141322 -212.005119 
L 427.752893 -209.075551 
L 432.364463 -206.594729 
L 436.976033 -204.509754 
L 441.587603 -202.770562 
L 446.199174 -201.330567 
L 450.810744 -200.147078 
L 455.422314 -199.181521 
L 460.033884 -198.399493 
L 464.645455 -197.770689 
L 469.257025 -197.268725 
L 473.868595 -196.870883 
L 478.480165 -196.557813 
L 483.091736 -196.313199 
L 487.703306 -196.123425 
L 492.314876 -195.977231 
L 496.926446 -195.865402 
L 501.538017 -195.780456 
L 506.149587 -195.716383 
L 510.761157 -195.668388 
L 515.372727 -195.632688 
L 515.372727 -195.538011 
L 515.372727 -195.538011 
L 510.761157 -195.538011 
L 506.149587 -195.538011 
L 501.538017 -195.538011 
L 496.926446 -195.538011 
L 492.314876 -195.538011 
L 487.703306 -195.538011 
L 483.091736 -195.538011 
L 478.480165 -195.538011 
L 473.868595 -195.538011 
L 469.257025 -195.538011 
L 464.645455 -195.538011 
L 460.033884 -195.538011 
L 455.422314 -195.538011 
L 450.810744 -195.538011 
L 446.199174 -195.538011 
L 441.587603 -195.538011 
L 436.976033 -195.538011 
L 432.364463 -195.538011 
L 427.752893 -195.538011 
L 423.141322 -195.538011 
L 418.529752 -195.538011 
L 413.918182 -195.538011 
L 409.306612 -195.538011 
L 404.695041 -195.538011 
L 400.083471 -195.538011 
L 395.471901 -195.538011 
L 390.860331 -195.538011 
L 386.24876 -195.538011 
L 381.63719 -195.538011 
L 377.02562 -195.538011 
L 372.41405 -195.538011 
L 367.802479 -195.538011 
L 363.190909 -195.538011 
L 358.579339 -195.538011 
L 353.967769 -195.538011 
L 349.356198 -195.538011 
L 344.744628 -195.538011 
L 340.133058 -195.538011 
L 335.521488 -195.538011 
L 330.909917 -195.538011 
L 326.298347 -195.538011 
L 321.686777 -195.538011 
L 317.075207 -195.538011 
L 312.463636 -195.538011 
L 307.852066 -195.538011 
L 303.240496 -195.538011 
L 298.628926 -195.538011 
L 294.017355 -195.538011 
L 289.405785 -195.538011 
L 284.794215 -195.538011 
L 280.182645 -195.538011 
L 275.571074 -195.538011 
L 270.959504 -195.538011 
L 266.347934 -195.538011 
L 261.736364 -195.538011 
L 257.124793 -195.538011 
L 252.513223 -195.538011 
L 247.901653 -195.538011 
L 243.290083 -195.538011 
L 238.678512 -195.538011 
L 234.066942 -195.538011 
L 229.455372 -195.538011 
L 224.843802 -195.538011 
L 220.232231 -195.538011 
L 215.620661 -195.538011 
L 211.009091 -195.538011 
L 206.397521 -195.538011 
L 201.78595 -195.538011 
L 197.17438 -195.538011 
L 192.56281 -195.538011 
L 187.95124 -195.538011 
L 183.339669 -195.538011 
L 178.728099 -195.538011 
L 174.116529 -195.538011 
L 169.504959 -195.538011 
L 164.893388 -195.538011 
L 160.281818 -195.538011 
L 155.670248 -195.538011 
L 151.058678 -195.538011 
L 146.447107 -195.538011 
L 141.835537 -195.538011 
L 137.223967 -195.538011 
L 132.612397 -195.538011 
L 128.000826 -195.538011 
L 123.389256 -195.538011 
L 118.777686 -195.538011 
L 114.166116 -195.538011 
L 109.554545 -195.538011 
L 104.942975 -195.538011 
L 100.331405 -195.538011 
L 95.719835 -195.538011 
L 91.108264 -195.538011 
L 86.496694 -195.538011 
L 81.885124 -195.538011 
L 77.273554 -195.538011 
L 72.661983 -195.538011 
L 68.050413 -195.538011 
L 63.438843 -195.538011 
L 58.827273 -195.538011 
z
" id="m5b542b908e" style="stroke:#36a2eb;stroke-opacity:0.5;"/>
    </defs>
    <g clip-path="url(#pde86206908)">
     <use style="fill:#36a2eb;fill-opacity:0.5;stroke:#36a2eb;stroke-opacity:0.5;" x="0" xlink:href="#m5b542b908e" y="581.789375"/>
    </g>
   </g>
   <g id="line2d_1">
    <path clip-path="url(#pde86206908)" d="M 128.962954 386.139371 
L 132.861481 386.097141 
L 136.760009 386.040368 
L 140.658536 385.964575 
L 144.557064 385.864094 
L 148.455591 385.73181 
L 152.354118 385.558878 
L 156.252646 385.334393 
L 160.151173 385.04504 
L 164.049701 384.674709 
L 167.948228 384.204102 
L 171.846755 383.610328 
L 175.745283 382.866516 
L 179.64381 381.941454 
L 183.542338 380.799296 
L 187.440865 379.399346 
L 191.339392 377.695976 
L 195.23792 375.638684 
L 199.136447 373.172366 
L 203.034975 370.2378 
L 206.933502 366.772413 
L 210.83203 362.711322 
L 214.730557 357.988708 
L 218.629084 352.539497 
L 222.527612 346.301371 
L 226.426139 339.217063 
L 230.324667 331.236916 
L 234.223194 322.321628 
L 238.121721 312.445114 
L 242.020249 301.597371 
L 245.918776 289.787238 
L 249.817304 277.04491 
L 253.715831 263.424078 
L 257.614358 249.003534 
L 261.512886 233.888124 
L 265.411413 218.208919 
L 269.309941 202.122504 
L 273.208468 185.809323 
L 277.106995 169.471045 
L 281.005523 153.326975 
L 284.90405 137.609553 
L 288.802578 122.559072 
L 292.701105 108.417748 
L 296.599632 95.423357 
L 300.49816 83.802649 
L 304.396687 73.764805 
L 308.295215 65.495194 
L 312.193742 59.149682 
L 316.09227 54.849752 
L 319.990797 52.678636 
L 323.889324 52.678636 
L 327.787852 54.849752 
L 331.686379 59.149682 
L 335.584907 65.495194 
L 339.483434 73.764805 
L 343.381961 83.802649 
L 347.280489 95.423357 
L 351.179016 108.417748 
L 355.077544 122.559072 
L 358.976071 137.609553 
L 362.874598 153.326975 
L 366.773126 169.471045 
L 370.671653 185.809323 
L 374.570181 202.122504 
L 378.468708 218.208919 
L 382.367235 233.888124 
L 386.265763 249.003534 
L 390.16429 263.424078 
L 394.062818 277.04491 
L 397.961345 289.787238 
L 401.859872 301.597371 
L 405.7584 312.445114 
L 409.656927 322.321628 
L 413.555455 331.236916 
L 417.453982 339.217063 
L 421.35251 346.301371 
L 425.251037 352.539497 
L 429.149564 357.988708 
L 433.048092 362.711322 
L 436.946619 366.772413 
L 440.845147 370.2378 
L 444.743674 373.172366 
L 448.642201 375.638684 
L 452.540729 377.695976 
L 456.439256 379.399346 
L 460.337784 380.799296 
L 464.236311 381.941454 
L 468.134838 382.866516 
L 472.033366 383.610328 
L 475.931893 384.204102 
L 479.830421 384.674709 
L 483.728948 385.04504 
L 487.627475 385.334393 
L 491.526003 385.558878 
L 495.42453 385.73181 
L 499.323058 385.864094 
L 503.221585 385.964575 
L 507.120112 386.040368 
L 511.01864 386.097141 
L 514.917167 386.139371 
" style="fill:none;stroke:#ff6384;stroke-linecap:square;"/>
   </g>
   <g id="line2d_2">
    <path clip-path="url(#pde86206908)" d="M 58.827273 386.156687 
L 63.438843 386.120987 
L 68.050413 386.072992 
L 72.661983 386.008919 
L 77.273554 385.923973 
L 81.885124 385.812144 
L 86.496694 385.66595 
L 91.108264 385.476176 
L 95.719835 385.231562 
L 100.331405 384.918492 
L 104.942975 384.52065 
L 109.554545 384.018686 
L 114.166116 383.389882 
L 118.777686 382.607854 
L 123.389256 381.642297 
L 128.000826 380.458808 
L 132.612397 379.018813 
L 137.223967 377.279621 
L 141.835537 375.194646 
L 146.447107 372.713824 
L 151.058678 369.784256 
L 155.670248 366.351093 
L 160.281818 362.358691 
L 164.893388 357.75204 
L 169.504959 352.478455 
L 174.116529 346.489525 
L 178.728099 339.743272 
L 183.339669 332.20647 
L 187.95124 323.857066 
L 192.56281 314.686606 
L 197.17438 304.702559 
L 201.78595 293.930456 
L 206.397521 282.415682 
L 211.009091 270.224848 
L 215.620661 257.446589 
L 220.232231 244.191709 
L 224.843802 230.592582 
L 229.455372 216.801751 
L 234.066942 202.989705 
L 238.678512 189.341837 
L 243.290083 176.05465 
L 247.901653 163.33128 
L 252.513223 151.376493 
L 257.124793 140.3913 
L 261.736364 130.56739 
L 266.347934 122.081602 
L 270.959504 115.090641 
L 275.571074 109.726275 
L 280.182645 106.091202 
L 284.794215 104.255785 
L 289.405785 104.255785 
L 294.017355 106.091202 
L 298.628926 109.726275 
L 303.240496 115.090641 
L 307.852066 122.081602 
L 312.463636 130.56739 
L 317.075207 140.3913 
L 321.686777 151.376493 
L 326.298347 163.33128 
L 330.909917 176.05465 
L 335.521488 189.341837 
L 340.133058 202.989705 
L 344.744628 216.801751 
L 349.356198 230.592582 
L 353.967769 244.191709 
L 358.579339 257.446589 
L 363.190909 270.224848 
L 367.802479 282.415682 
L 372.41405 293.930456 
L 377.02562 304.702559 
L 381.63719 314.686606 
L 386.24876 323.857066 
L 390.860331 332.20647 
L 395.471901 339.743272 
L 400.083471 346.489525 
L 404.695041 352.478455 
L 409.306612 357.75204 
L 413.918182 362.358691 
L 418.529752 366.351093 
L 423.141322 369.784256 
L 427.752893 372.713824 
L 432.364463 375.194646 
L 436.976033 377.279621 
L 441.587603 379.018813 
L 446.199174 380.458808 
L 450.810744 381.642297 
L 455.422314 382.607854 
L 460.033884 383.389882 
L 464.645455 384.018686 
L 469.257025 384.52065 
L 473.868595 384.918492 
L 478.480165 385.231562 
L 483.091736 385.476176 
L 487.703306 385.66595 
L 492.314876 385.812144 
L 496.926446 385.923973 
L 501.538017 386.008919 
L 506.149587 386.072992 
L 510.761157 386.120987 
L 515.372727 386.156687 
" style="fill:none;stroke:#36a2eb;stroke-linecap:square;"/>
   </g>
   <g id="patch_3">
    <path d="M 36 402.93 
L 538.2 402.93 
" style="fill:none;stroke:#000000;stroke-linecap:square;stroke-linejoin:miter;stroke-width:0.8;"/>
   </g>
   <g id="legend_1">
    <g id="patch_4">
     <path d="M 410.290313 88.688125 
L 528.4 88.688125 
Q 531.2 88.688125 531.2 85.888125 
L 531.2 45.8 
Q 531.2 43 528.4 43 
L 410.290313 43 
Q 407.490313 43 407.490313 45.8 
L 407.490313 85.888125 
Q 407.490313 88.688125 410.290313 88.688125 
z
" style="fill:#ffffff;opacity:0.8;stroke:#cccccc;stroke-linejoin:miter;"/>
    </g>
    <g id="patch_5">
     <path d="M 413.090313 59.237813 
L 441.090313 59.237813 
L 441.090313 49.437813 
L 413.090313 49.437813 
z
" style="fill:#ff6384;opacity:0.5;stroke:#ff6384;stroke-linejoin:miter;"/>
    </g>
    <g id="text_1">
     <!-- base -->
     <defs>
      <path d="M 48.6875 27.296875 
Q 48.6875 37.203125 44.609375 42.84375 
Q 40.53125 48.484375 33.40625 48.484375 
Q 26.265625 48.484375 22.1875 42.84375 
Q 18.109375 37.203125 18.109375 27.296875 
Q 18.109375 17.390625 22.1875 11.75 
Q 26.265625 6.109375 33.40625 6.109375 
Q 40.53125 6.109375 44.609375 11.75 
Q 48.6875 17.390625 48.6875 27.296875 
z
M 18.109375 46.390625 
Q 20.953125 51.265625 25.265625 53.625 
Q 29.59375 56 35.59375 56 
Q 45.5625 56 51.78125 48.09375 
Q 58.015625 40.1875 58.015625 27.296875 
Q 58.015625 14.40625 51.78125 6.484375 
Q 45.5625 -1.421875 35.59375 -1.421875 
Q 29.59375 -1.421875 25.265625 0.953125 
Q 20.953125 3.328125 18.109375 8.203125 
L 18.109375 0 
L 9.078125 0 
L 9.078125 75.984375 
L 18.109375 75.984375 
z
" id="DejaVuSans-98"/>
      <path d="M 34.28125 27.484375 
Q 23.390625 27.484375 19.1875 25 
Q 14.984375 22.515625 14.984375 16.5 
Q 14.984375 11.71875 18.140625 8.90625 
Q 21.296875 6.109375 26.703125 6.109375 
Q 34.1875 6.109375 38.703125 11.40625 
Q 43.21875 16.703125 43.21875 25.484375 
L 43.21875 27.484375 
z
M 52.203125 31.203125 
L 52.203125 0 
L 43.21875 0 
L 43.21875 8.296875 
Q 40.140625 3.328125 35.546875 0.953125 
Q 30.953125 -1.421875 24.3125 -1.421875 
Q 15.921875 -1.421875 10.953125 3.296875 
Q 6 8.015625 6 15.921875 
Q 6 25.140625 12.171875 29.828125 
Q 18.359375 34.515625 30.609375 34.515625 
L 43.21875 34.515625 
L 43.21875 35.40625 
Q 43.21875 41.609375 39.140625 45 
Q 35.0625 48.390625 27.6875 48.390625 
Q 23 48.390625 18.546875 47.265625 
Q 14.109375 46.140625 10.015625 43.890625 
L 10.015625 52.203125 
Q 14.9375 54.109375 19.578125 55.046875 
Q 24.21875 56 28.609375 56 
Q 40.484375 56 46.34375 49.84375 
Q 52.203125 43.703125 52.203125 31.203125 
z
" id="DejaVuSans-97"/>
      <path d="M 44.28125 53.078125 
L 44.28125 44.578125 
Q 40.484375 46.53125 36.375 47.5 
Q 32.28125 48.484375 27.875 48.484375 
Q 21.1875 48.484375 17.84375 46.4375 
Q 14.5 44.390625 14.5 40.28125 
Q 14.5 37.15625 16.890625 35.375 
Q 19.28125 33.59375 26.515625 31.984375 
L 29.59375 31.296875 
Q 39.15625 29.25 43.1875 25.515625 
Q 47.21875 21.78125 47.21875 15.09375 
Q 47.21875 7.46875 41.1875 3.015625 
Q 35.15625 -1.421875 24.609375 -1.421875 
Q 20.21875 -1.421875 15.453125 -0.5625 
Q 10.6875 0.296875 5.421875 2 
L 5.421875 11.28125 
Q 10.40625 8.6875 15.234375 7.390625 
Q 20.0625 6.109375 24.8125 6.109375 
Q 31.15625 6.109375 34.5625 8.28125 
Q 37.984375 10.453125 37.984375 14.40625 
Q 37.984375 18.0625 35.515625 20.015625 
Q 33.0625 21.96875 24.703125 23.78125 
L 21.578125 24.515625 
Q 13.234375 26.265625 9.515625 29.90625 
Q 5.8125 33.546875 5.8125 39.890625 
Q 5.8125 47.609375 11.28125 51.796875 
Q 16.75 56 26.8125 56 
Q 31.78125 56 36.171875 55.265625 
Q 40.578125 54.546875 44.28125 53.078125 
z
" id="DejaVuSans-115"/>
      <path d="M 56.203125 29.59375 
L 56.203125 25.203125 
L 14.890625 25.203125 
Q 15.484375 15.921875 20.484375 11.0625 
Q 25.484375 6.203125 34.421875 6.203125 
Q 39.59375 6.203125 44.453125 7.46875 
Q 49.3125 8.734375 54.109375 11.28125 
L 54.109375 2.78125 
Q 49.265625 0.734375 44.1875 -0.34375 
Q 39.109375 -1.421875 33.890625 -1.421875 
Q 20.796875 -1.421875 13.15625 6.1875 
Q 5.515625 13.8125 5.515625 26.8125 
Q 5.515625 40.234375 12.765625 48.109375 
Q 20.015625 56 32.328125 56 
Q 43.359375 56 49.78125 48.890625 
Q 56.203125 41.796875 56.203125 29.59375 
z
M 47.21875 32.234375 
Q 47.125 39.59375 43.09375 43.984375 
Q 39.0625 48.390625 32.421875 48.390625 
Q 24.90625 48.390625 20.390625 44.140625 
Q 15.875 39.890625 15.1875 32.171875 
z
" id="DejaVuSans-101"/>
     </defs>
     <g transform="translate(452.290313 59.237813)scale(0.14 -0.14)">
      <use xlink:href="#DejaVuSans-98"/>
      <use x="63.476562" xlink:href="#DejaVuSans-97"/>
      <use x="124.755859" xlink:href="#DejaVuSans-115"/>
      <use x="176.855469" xlink:href="#DejaVuSans-101"/>
     </g>
    </g>
    <g id="patch_6">
     <path d="M 413.090313 79.787188 
L 441.090313 79.787188 
L 441.090313 69.987188 
L 413.090313 69.987188 
z
" style="fill:#36a2eb;opacity:0.5;stroke:#36a2eb;stroke-linejoin:miter;"/>
    </g>
    <g id="text_2">
     <!-- no_license -->
     <defs>
      <path d="M 54.890625 33.015625 
L 54.890625 0 
L 45.90625 0 
L 45.90625 32.71875 
Q 45.90625 40.484375 42.875 44.328125 
Q 39.84375 48.1875 33.796875 48.1875 
Q 26.515625 48.1875 22.3125 43.546875 
Q 18.109375 38.921875 18.109375 30.90625 
L 18.109375 0 
L 9.078125 0 
L 9.078125 54.6875 
L 18.109375 54.6875 
L 18.109375 46.1875 
Q 21.34375 51.125 25.703125 53.5625 
Q 30.078125 56 35.796875 56 
Q 45.21875 56 50.046875 50.171875 
Q 54.890625 44.34375 54.890625 33.015625 
z
" id="DejaVuSans-110"/>
      <path d="M 30.609375 48.390625 
Q 23.390625 48.390625 19.1875 42.75 
Q 14.984375 37.109375 14.984375 27.296875 
Q 14.984375 17.484375 19.15625 11.84375 
Q 23.34375 6.203125 30.609375 6.203125 
Q 37.796875 6.203125 41.984375 11.859375 
Q 46.1875 17.53125 46.1875 27.296875 
Q 46.1875 37.015625 41.984375 42.703125 
Q 37.796875 48.390625 30.609375 48.390625 
z
M 30.609375 56 
Q 42.328125 56 49.015625 48.375 
Q 55.71875 40.765625 55.71875 27.296875 
Q 55.71875 13.875 49.015625 6.21875 
Q 42.328125 -1.421875 30.609375 -1.421875 
Q 18.84375 -1.421875 12.171875 6.21875 
Q 5.515625 13.875 5.515625 27.296875 
Q 5.515625 40.765625 12.171875 48.375 
Q 18.84375 56 30.609375 56 
z
" id="DejaVuSans-111"/>
      <path d="M 50.984375 -16.609375 
L 50.984375 -23.578125 
L -0.984375 -23.578125 
L -0.984375 -16.609375 
z
" id="DejaVuSans-95"/>
      <path d="M 9.421875 75.984375 
L 18.40625 75.984375 
L 18.40625 0 
L 9.421875 0 
z
" id="DejaVuSans-108"/>
      <path d="M 9.421875 54.6875 
L 18.40625 54.6875 
L 18.40625 0 
L 9.421875 0 
z
M 9.421875 75.984375 
L 18.40625 75.984375 
L 18.40625 64.59375 
L 9.421875 64.59375 
z
" id="DejaVuSans-105"/>
      <path d="M 48.78125 52.59375 
L 48.78125 44.1875 
Q 44.96875 46.296875 41.140625 47.34375 
Q 37.3125 48.390625 33.40625 48.390625 
Q 24.65625 48.390625 19.8125 42.84375 
Q 14.984375 37.3125 14.984375 27.296875 
Q 14.984375 17.28125 19.8125 11.734375 
Q 24.65625 6.203125 33.40625 6.203125 
Q 37.3125 6.203125 41.140625 7.25 
Q 44.96875 8.296875 48.78125 10.40625 
L 48.78125 2.09375 
Q 45.015625 0.34375 40.984375 -0.53125 
Q 36.96875 -1.421875 32.421875 -1.421875 
Q 20.0625 -1.421875 12.78125 6.34375 
Q 5.515625 14.109375 5.515625 27.296875 
Q 5.515625 40.671875 12.859375 48.328125 
Q 20.21875 56 33.015625 56 
Q 37.15625 56 41.109375 55.140625 
Q 45.0625 54.296875 48.78125 52.59375 
z
" id="DejaVuSans-99"/>
     </defs>
     <g transform="translate(452.290313 79.787188)scale(0.14 -0.14)">
      <use xlink:href="#DejaVuSans-110"/>
      <use x="63.378906" xlink:href="#DejaVuSans-111"/>
      <use x="124.560547" xlink:href="#DejaVuSans-95"/>
      <use x="174.560547" xlink:href="#DejaVuSans-108"/>
      <use x="202.34375" xlink:href="#DejaVuSans-105"/>
      <use x="230.126953" xlink:href="#DejaVuSans-99"/>
      <use x="285.107422" xlink:href="#DejaVuSans-101"/>
      <use x="346.630859" xlink:href="#DejaVuSans-110"/>
      <use x="410.009766" xlink:href="#DejaVuSans-115"/>
      <use x="462.109375" xlink:href="#DejaVuSans-101"/>
     </g>
    </g>
   </g>
  </g>
  <g id="axes_2">
   <g id="patch_7">
    <path d="M 36 525.24 
L 538.2 525.24 
L 538.2 402.93 
L 36 402.93 
z
" style="fill:none;"/>
   </g>
   <g id="patch_8">
    <path clip-path="url(#pa6b714d9e4)" d="M 227.381278 519.680455 
L 416.498843 519.680455 
L 416.498843 482.616818 
L 227.381278 482.616818 
z
" style="fill:#ff6384;opacity:0.5;"/>
   </g>
   <g id="patch_9">
    <path clip-path="url(#pa6b714d9e4)" d="M 175.246364 445.553182 
L 398.953636 445.553182 
L 398.953636 408.489545 
L 175.246364 408.489545 
z
" style="fill:#36a2eb;opacity:0.5;"/>
   </g>
   <g id="matplotlib.axis_1">
    <g id="xtick_1">
     <g id="line2d_3">
      <defs>
       <path d="M 0 0 
L 0 3.5 
" id="mfc01d61ba3" style="stroke:#000000;stroke-width:0.8;"/>
      </defs>
      <g>
       <use style="stroke:#000000;stroke-width:0.8;" x="68.098986" xlink:href="#mfc01d61ba3" y="525.24"/>
      </g>
     </g>
     <g id="text_3">
      <!-- 32 -->
      <defs>
       <path d="M 40.578125 39.3125 
Q 47.65625 37.796875 51.625 33 
Q 55.609375 28.21875 55.609375 21.1875 
Q 55.609375 10.40625 48.1875 4.484375 
Q 40.765625 -1.421875 27.09375 -1.421875 
Q 22.515625 -1.421875 17.65625 -0.515625 
Q 12.796875 0.390625 7.625 2.203125 
L 7.625 11.71875 
Q 11.71875 9.328125 16.59375 8.109375 
Q 21.484375 6.890625 26.8125 6.890625 
Q 36.078125 6.890625 40.9375 10.546875 
Q 45.796875 14.203125 45.796875 21.1875 
Q 45.796875 27.640625 41.28125 31.265625 
Q 36.765625 34.90625 28.71875 34.90625 
L 20.21875 34.90625 
L 20.21875 43.015625 
L 29.109375 43.015625 
Q 36.375 43.015625 40.234375 45.921875 
Q 44.09375 48.828125 44.09375 54.296875 
Q 44.09375 59.90625 40.109375 62.90625 
Q 36.140625 65.921875 28.71875 65.921875 
Q 24.65625 65.921875 20.015625 65.03125 
Q 15.375 64.15625 9.8125 62.3125 
L 9.8125 71.09375 
Q 15.4375 72.65625 20.34375 73.4375 
Q 25.25 74.21875 29.59375 74.21875 
Q 40.828125 74.21875 47.359375 69.109375 
Q 53.90625 64.015625 53.90625 55.328125 
Q 53.90625 49.265625 50.4375 45.09375 
Q 46.96875 40.921875 40.578125 39.3125 
z
" id="DejaVuSans-51"/>
       <path d="M 19.1875 8.296875 
L 53.609375 8.296875 
L 53.609375 0 
L 7.328125 0 
L 7.328125 8.296875 
Q 12.9375 14.109375 22.625 23.890625 
Q 32.328125 33.6875 34.8125 36.53125 
Q 39.546875 41.84375 41.421875 45.53125 
Q 43.3125 49.21875 43.3125 52.78125 
Q 43.3125 58.59375 39.234375 62.25 
Q 35.15625 65.921875 28.609375 65.921875 
Q 23.96875 65.921875 18.8125 64.3125 
Q 13.671875 62.703125 7.8125 59.421875 
L 7.8125 69.390625 
Q 13.765625 71.78125 18.9375 73 
Q 24.125 74.21875 28.421875 74.21875 
Q 39.75 74.21875 46.484375 68.546875 
Q 53.21875 62.890625 53.21875 53.421875 
Q 53.21875 48.921875 51.53125 44.890625 
Q 49.859375 40.875 45.40625 35.40625 
Q 44.1875 33.984375 37.640625 27.21875 
Q 31.109375 20.453125 19.1875 8.296875 
z
" id="DejaVuSans-50"/>
      </defs>
      <g transform="translate(59.191486 542.877813)scale(0.14 -0.14)">
       <use xlink:href="#DejaVuSans-51"/>
       <use x="63.623047" xlink:href="#DejaVuSans-50"/>
      </g>
     </g>
    </g>
    <g id="xtick_2">
     <g id="line2d_4">
      <g>
       <use style="stroke:#000000;stroke-width:0.8;" x="156.954025" xlink:href="#mfc01d61ba3" y="525.24"/>
      </g>
     </g>
     <g id="text_4">
      <!-- 33 -->
      <g transform="translate(148.046525 542.877813)scale(0.14 -0.14)">
       <use xlink:href="#DejaVuSans-51"/>
       <use x="63.623047" xlink:href="#DejaVuSans-51"/>
      </g>
     </g>
    </g>
    <g id="xtick_3">
     <g id="line2d_5">
      <g>
       <use style="stroke:#000000;stroke-width:0.8;" x="245.809064" xlink:href="#mfc01d61ba3" y="525.24"/>
      </g>
     </g>
     <g id="text_5">
      <!-- 34 -->
      <defs>
       <path d="M 37.796875 64.3125 
L 12.890625 25.390625 
L 37.796875 25.390625 
z
M 35.203125 72.90625 
L 47.609375 72.90625 
L 47.609375 25.390625 
L 58.015625 25.390625 
L 58.015625 17.1875 
L 47.609375 17.1875 
L 47.609375 0 
L 37.796875 0 
L 37.796875 17.1875 
L 4.890625 17.1875 
L 4.890625 26.703125 
z
" id="DejaVuSans-52"/>
      </defs>
      <g transform="translate(236.901564 542.877813)scale(0.14 -0.14)">
       <use xlink:href="#DejaVuSans-51"/>
       <use x="63.623047" xlink:href="#DejaVuSans-52"/>
      </g>
     </g>
    </g>
    <g id="xtick_4">
     <g id="line2d_6">
      <g>
       <use style="stroke:#000000;stroke-width:0.8;" x="334.664102" xlink:href="#mfc01d61ba3" y="525.24"/>
      </g>
     </g>
     <g id="text_6">
      <!-- 35 -->
      <defs>
       <path d="M 10.796875 72.90625 
L 49.515625 72.90625 
L 49.515625 64.59375 
L 19.828125 64.59375 
L 19.828125 46.734375 
Q 21.96875 47.46875 24.109375 47.828125 
Q 26.265625 48.1875 28.421875 48.1875 
Q 40.625 48.1875 47.75 41.5 
Q 54.890625 34.8125 54.890625 23.390625 
Q 54.890625 11.625 47.5625 5.09375 
Q 40.234375 -1.421875 26.90625 -1.421875 
Q 22.3125 -1.421875 17.546875 -0.640625 
Q 12.796875 0.140625 7.71875 1.703125 
L 7.71875 11.625 
Q 12.109375 9.234375 16.796875 8.0625 
Q 21.484375 6.890625 26.703125 6.890625 
Q 35.15625 6.890625 40.078125 11.328125 
Q 45.015625 15.765625 45.015625 23.390625 
Q 45.015625 31 40.078125 35.4375 
Q 35.15625 39.890625 26.703125 39.890625 
Q 22.75 39.890625 18.8125 39.015625 
Q 14.890625 38.140625 10.796875 36.28125 
z
" id="DejaVuSans-53"/>
      </defs>
      <g transform="translate(325.756602 542.877813)scale(0.14 -0.14)">
       <use xlink:href="#DejaVuSans-51"/>
       <use x="63.623047" xlink:href="#DejaVuSans-53"/>
      </g>
     </g>
    </g>
    <g id="xtick_5">
     <g id="line2d_7">
      <g>
       <use style="stroke:#000000;stroke-width:0.8;" x="423.519141" xlink:href="#mfc01d61ba3" y="525.24"/>
      </g>
     </g>
     <g id="text_7">
      <!-- 36 -->
      <defs>
       <path d="M 33.015625 40.375 
Q 26.375 40.375 22.484375 35.828125 
Q 18.609375 31.296875 18.609375 23.390625 
Q 18.609375 15.53125 22.484375 10.953125 
Q 26.375 6.390625 33.015625 6.390625 
Q 39.65625 6.390625 43.53125 10.953125 
Q 47.40625 15.53125 47.40625 23.390625 
Q 47.40625 31.296875 43.53125 35.828125 
Q 39.65625 40.375 33.015625 40.375 
z
M 52.59375 71.296875 
L 52.59375 62.3125 
Q 48.875 64.0625 45.09375 64.984375 
Q 41.3125 65.921875 37.59375 65.921875 
Q 27.828125 65.921875 22.671875 59.328125 
Q 17.53125 52.734375 16.796875 39.40625 
Q 19.671875 43.65625 24.015625 45.921875 
Q 28.375 48.1875 33.59375 48.1875 
Q 44.578125 48.1875 50.953125 41.515625 
Q 57.328125 34.859375 57.328125 23.390625 
Q 57.328125 12.15625 50.6875 5.359375 
Q 44.046875 -1.421875 33.015625 -1.421875 
Q 20.359375 -1.421875 13.671875 8.265625 
Q 6.984375 17.96875 6.984375 36.375 
Q 6.984375 53.65625 15.1875 63.9375 
Q 23.390625 74.21875 37.203125 74.21875 
Q 40.921875 74.21875 44.703125 73.484375 
Q 48.484375 72.75 52.59375 71.296875 
z
" id="DejaVuSans-54"/>
      </defs>
      <g transform="translate(414.611641 542.877813)scale(0.14 -0.14)">
       <use xlink:href="#DejaVuSans-51"/>
       <use x="63.623047" xlink:href="#DejaVuSans-54"/>
      </g>
     </g>
    </g>
    <g id="xtick_6">
     <g id="line2d_8">
      <g>
       <use style="stroke:#000000;stroke-width:0.8;" x="512.374179" xlink:href="#mfc01d61ba3" y="525.24"/>
      </g>
     </g>
     <g id="text_8">
      <!-- 37 -->
      <defs>
       <path d="M 8.203125 72.90625 
L 55.078125 72.90625 
L 55.078125 68.703125 
L 28.609375 0 
L 18.3125 0 
L 43.21875 64.59375 
L 8.203125 64.59375 
z
" id="DejaVuSans-55"/>
      </defs>
      <g transform="translate(503.466679 542.877813)scale(0.14 -0.14)">
       <use xlink:href="#DejaVuSans-51"/>
       <use x="63.623047" xlink:href="#DejaVuSans-55"/>
      </g>
     </g>
    </g>
   </g>
   <g id="line2d_9">
    <path clip-path="url(#pa6b714d9e4)" d="M 321.940061 525.24 
L 321.940061 402.93 
" style="fill:none;stroke:#ff6384;stroke-dasharray:5.55,2.4;stroke-dashoffset:0;stroke-opacity:0.8;stroke-width:1.5;"/>
   </g>
   <g id="line2d_10">
    <path clip-path="url(#pa6b714d9e4)" d="M 287.1 525.24 
L 287.1 402.93 
" style="fill:none;stroke:#36a2eb;stroke-dasharray:5.55,2.4;stroke-dashoffset:0;stroke-opacity:0.8;stroke-width:1.5;"/>
   </g>
   <g id="patch_10">
    <path d="M 36 525.24 
L 538.2 525.24 
" style="fill:none;stroke:#000000;stroke-linecap:square;stroke-linejoin:miter;stroke-width:0.8;"/>
   </g>
  </g>
 </g>
 <defs>
  <clipPath id="pde86206908">
   <rect height="366.93" width="502.2" x="36" y="36"/>
  </clipPath>
  <clipPath id="pa6b714d9e4">
   <rect height="122.31" width="502.2" x="36" y="402.93"/>
  </clipPath>
 </defs>
</svg>
