<?xml version="1.0" encoding="utf-8" standalone="no"?>
<!DOCTYPE svg PUBLIC "-//W3C//DTD SVG 1.1//EN"
  "http://www.w3.org/Graphics/SVG/1.1/DTD/svg11.dtd">
<!-- Created with matplotlib (https://matplotlib.org/) -->
<svg height="581.789375pt" version="1.1" viewBox="0 0 574.2 581.789375" width="574.2pt" xmlns="http://www.w3.org/2000/svg" xmlns:xlink="http://www.w3.org/1999/xlink">
 <defs>
  <style type="text/css">
*{stroke-linecap:butt;stroke-linejoin:round;}
  </style>
 </defs>
 <g id="figure_1">
  <g id="patch_1">
   <path d="M 0 581.789375 
L 574.2 581.789375 
L 574.2 0 
L 0 0 
z
" style="fill:none;"/>
  </g>
  <g id="axes_1">
   <g id="patch_2">
    <path d="M 36 402.93 
L 538.2 402.93 
L 538.2 36 
L 36 36 
z
" style="fill:none;"/>
   </g>
   <g id="PolyCollection_1">
    <defs>
     <path d="M 102.005873 -195.538011 
L 102.005873 -195.649495 
L 106.181295 -195.691533 
L 110.356718 -195.748048 
L 114.532141 -195.823496 
L 118.707564 -195.923521 
L 122.882986 -196.055203 
L 127.058409 -196.22735 
L 131.233832 -196.450814 
L 135.409255 -196.738852 
L 139.584678 -197.1075 
L 143.7601 -197.575968 
L 147.935523 -198.167043 
L 152.110946 -198.907475 
L 156.286369 -199.828332 
L 160.461791 -200.9653 
L 164.637214 -202.358886 
L 168.812637 -204.054515 
L 172.98806 -206.102456 
L 177.163482 -208.557565 
L 181.338905 -211.478793 
L 185.514328 -214.92843 
L 189.689751 -218.971063 
L 193.865174 -223.672214 
L 198.040596 -229.096657 
L 202.216019 -235.306431 
L 206.391442 -242.358541 
L 210.566865 -250.302419 
L 214.742287 -259.177186 
L 218.91771 -269.008811 
L 223.093133 -279.807251 
L 227.268556 -291.563708 
L 231.443979 -304.248122 
L 235.619401 -317.807047 
L 239.794824 -332.16205 
L 243.970247 -347.20876 
L 248.14567 -362.816703 
L 252.321092 -378.830005 
L 256.496515 -395.069043 
L 260.671938 -411.333063 
L 264.847361 -427.403759 
L 269.022784 -443.049745 
L 273.198206 -458.031822 
L 277.373629 -472.108873 
L 281.549052 -485.044205 
L 285.724475 -496.612097 
L 289.899897 -506.604319 
L 294.07532 -514.836345 
L 298.250743 -521.153016 
L 302.426166 -525.433403 
L 306.601589 -527.594651 
L 310.777011 -527.594651 
L 314.952434 -525.433403 
L 319.127857 -521.153016 
L 323.30328 -514.836345 
L 327.478702 -506.604319 
L 331.654125 -496.612097 
L 335.829548 -485.044205 
L 340.004971 -472.108873 
L 344.180393 -458.031822 
L 348.355816 -443.049745 
L 352.531239 -427.403759 
L 356.706662 -411.333063 
L 360.882085 -395.069043 
L 365.057507 -378.830005 
L 369.23293 -362.816703 
L 373.408353 -347.20876 
L 377.583776 -332.16205 
L 381.759198 -317.807047 
L 385.934621 -304.248122 
L 390.110044 -291.563708 
L 394.285467 -279.807251 
L 398.46089 -269.008811 
L 402.636312 -259.177186 
L 406.811735 -250.302419 
L 410.987158 -242.358541 
L 415.162581 -235.306431 
L 419.338003 -229.096657 
L 423.513426 -223.672214 
L 427.688849 -218.971063 
L 431.864272 -214.92843 
L 436.039695 -211.478793 
L 440.215117 -208.557565 
L 444.39054 -206.102456 
L 448.565963 -204.054515 
L 452.741386 -202.358886 
L 456.916808 -200.9653 
L 461.092231 -199.828332 
L 465.267654 -198.907475 
L 469.443077 -198.167043 
L 473.6185 -197.575968 
L 477.793922 -197.1075 
L 481.969345 -196.738852 
L 486.144768 -196.450814 
L 490.320191 -196.22735 
L 494.495613 -196.055203 
L 498.671036 -195.923521 
L 502.846459 -195.823496 
L 507.021882 -195.748048 
L 511.197304 -195.691533 
L 515.372727 -195.649495 
L 515.372727 -195.538011 
L 515.372727 -195.538011 
L 511.197304 -195.538011 
L 507.021882 -195.538011 
L 502.846459 -195.538011 
L 498.671036 -195.538011 
L 494.495613 -195.538011 
L 490.320191 -195.538011 
L 486.144768 -195.538011 
L 481.969345 -195.538011 
L 477.793922 -195.538011 
L 473.6185 -195.538011 
L 469.443077 -195.538011 
L 465.267654 -195.538011 
L 461.092231 -195.538011 
L 456.916808 -195.538011 
L 452.741386 -195.538011 
L 448.565963 -195.538011 
L 444.39054 -195.538011 
L 440.215117 -195.538011 
L 436.039695 -195.538011 
L 431.864272 -195.538011 
L 427.688849 -195.538011 
L 423.513426 -195.538011 
L 419.338003 -195.538011 
L 415.162581 -195.538011 
L 410.987158 -195.538011 
L 406.811735 -195.538011 
L 402.636312 -195.538011 
L 398.46089 -195.538011 
L 394.285467 -195.538011 
L 390.110044 -195.538011 
L 385.934621 -195.538011 
L 381.759198 -195.538011 
L 377.583776 -195.538011 
L 373.408353 -195.538011 
L 369.23293 -195.538011 
L 365.057507 -195.538011 
L 360.882085 -195.538011 
L 356.706662 -195.538011 
L 352.531239 -195.538011 
L 348.355816 -195.538011 
L 344.180393 -195.538011 
L 340.004971 -195.538011 
L 335.829548 -195.538011 
L 331.654125 -195.538011 
L 327.478702 -195.538011 
L 323.30328 -195.538011 
L 319.127857 -195.538011 
L 314.952434 -195.538011 
L 310.777011 -195.538011 
L 306.601589 -195.538011 
L 302.426166 -195.538011 
L 298.250743 -195.538011 
L 294.07532 -195.538011 
L 289.899897 -195.538011 
L 285.724475 -195.538011 
L 281.549052 -195.538011 
L 277.373629 -195.538011 
L 273.198206 -195.538011 
L 269.022784 -195.538011 
L 264.847361 -195.538011 
L 260.671938 -195.538011 
L 256.496515 -195.538011 
L 252.321092 -195.538011 
L 248.14567 -195.538011 
L 243.970247 -195.538011 
L 239.794824 -195.538011 
L 235.619401 -195.538011 
L 231.443979 -195.538011 
L 227.268556 -195.538011 
L 223.093133 -195.538011 
L 218.91771 -195.538011 
L 214.742287 -195.538011 
L 210.566865 -195.538011 
L 206.391442 -195.538011 
L 202.216019 -195.538011 
L 198.040596 -195.538011 
L 193.865174 -195.538011 
L 189.689751 -195.538011 
L 185.514328 -195.538011 
L 181.338905 -195.538011 
L 177.163482 -195.538011 
L 172.98806 -195.538011 
L 168.812637 -195.538011 
L 164.637214 -195.538011 
L 160.461791 -195.538011 
L 156.286369 -195.538011 
L 152.110946 -195.538011 
L 147.935523 -195.538011 
L 143.7601 -195.538011 
L 139.584678 -195.538011 
L 135.409255 -195.538011 
L 131.233832 -195.538011 
L 127.058409 -195.538011 
L 122.882986 -195.538011 
L 118.707564 -195.538011 
L 114.532141 -195.538011 
L 110.356718 -195.538011 
L 106.181295 -195.538011 
L 102.005873 -195.538011 
z
" id="mc8462c462f" style="stroke:#ff6384;stroke-opacity:0.5;"/>
    </defs>
    <g clip-path="url(#p0c156f4a28)">
     <use style="fill:#ff6384;fill-opacity:0.5;stroke:#ff6384;stroke-opacity:0.5;" x="0" xlink:href="#mc8462c462f" y="581.789375"/>
    </g>
   </g>
   <g id="PolyCollection_2">
    <defs>
     <path d="M 58.827273 -195.538011 
L 58.827273 -195.650004 
L 62.983718 -195.692234 
L 67.140164 -195.749007 
L 71.296609 -195.8248 
L 75.453055 -195.925281 
L 79.6095 -196.057565 
L 83.765946 -196.230497 
L 87.922391 -196.454982 
L 92.078837 -196.744335 
L 96.235282 -197.114666 
L 100.391728 -197.585273 
L 104.548173 -198.179047 
L 108.704619 -198.922859 
L 112.861064 -199.847921 
L 117.017509 -200.990079 
L 121.173955 -202.390029 
L 125.3304 -204.093399 
L 129.486846 -206.150691 
L 133.643291 -208.617009 
L 137.799737 -211.551575 
L 141.956182 -215.016962 
L 146.112628 -219.078053 
L 150.269073 -223.800667 
L 154.425519 -229.249878 
L 158.581964 -235.488004 
L 162.73841 -242.572312 
L 166.894855 -250.552459 
L 171.051301 -259.467747 
L 175.207746 -269.344261 
L 179.364192 -280.192004 
L 183.520637 -292.002137 
L 187.677083 -304.744465 
L 191.833528 -318.365297 
L 195.989974 -332.785841 
L 200.146419 -347.901251 
L 204.302865 -363.580456 
L 208.45931 -379.666871 
L 212.615756 -395.980052 
L 216.772201 -412.31833 
L 220.928646 -428.4624 
L 225.085092 -444.179822 
L 229.241537 -459.230303 
L 233.397983 -473.371627 
L 237.554428 -486.366018 
L 241.710874 -497.986726 
L 245.867319 -508.02457 
L 250.023765 -516.294181 
L 254.18021 -522.639693 
L 258.336656 -526.939623 
L 262.493101 -529.110739 
L 266.649547 -529.110739 
L 270.805992 -526.939623 
L 274.962438 -522.639693 
L 279.118883 -516.294181 
L 283.275329 -508.02457 
L 287.431774 -497.986726 
L 291.58822 -486.366018 
L 295.744665 -473.371627 
L 299.901111 -459.230303 
L 304.057556 -444.179822 
L 308.214002 -428.4624 
L 312.370447 -412.31833 
L 316.526893 -395.980052 
L 320.683338 -379.666871 
L 324.839784 -363.580456 
L 328.996229 -347.901251 
L 333.152674 -332.785841 
L 337.30912 -318.365297 
L 341.465565 -304.744465 
L 345.622011 -292.002137 
L 349.778456 -280.192004 
L 353.934902 -269.344261 
L 358.091347 -259.467747 
L 362.247793 -250.552459 
L 366.404238 -242.572312 
L 370.560684 -235.488004 
L 374.717129 -229.249878 
L 378.873575 -223.800667 
L 383.03002 -219.078053 
L 387.186466 -215.016962 
L 391.342911 -211.551575 
L 395.499357 -208.617009 
L 399.655802 -206.150691 
L 403.812248 -204.093399 
L 407.968693 -202.390029 
L 412.125139 -200.990079 
L 416.281584 -199.847921 
L 420.43803 -198.922859 
L 424.594475 -198.179047 
L 428.750921 -197.585273 
L 432.907366 -197.114666 
L 437.063812 -196.744335 
L 441.220257 -196.454982 
L 445.376702 -196.230497 
L 449.533148 -196.057565 
L 453.689593 -195.925281 
L 457.846039 -195.8248 
L 462.002484 -195.749007 
L 466.15893 -195.692234 
L 470.315375 -195.650004 
L 470.315375 -195.538011 
L 470.315375 -195.538011 
L 466.15893 -195.538011 
L 462.002484 -195.538011 
L 457.846039 -195.538011 
L 453.689593 -195.538011 
L 449.533148 -195.538011 
L 445.376702 -195.538011 
L 441.220257 -195.538011 
L 437.063812 -195.538011 
L 432.907366 -195.538011 
L 428.750921 -195.538011 
L 424.594475 -195.538011 
L 420.43803 -195.538011 
L 416.281584 -195.538011 
L 412.125139 -195.538011 
L 407.968693 -195.538011 
L 403.812248 -195.538011 
L 399.655802 -195.538011 
L 395.499357 -195.538011 
L 391.342911 -195.538011 
L 387.186466 -195.538011 
L 383.03002 -195.538011 
L 378.873575 -195.538011 
L 374.717129 -195.538011 
L 370.560684 -195.538011 
L 366.404238 -195.538011 
L 362.247793 -195.538011 
L 358.091347 -195.538011 
L 353.934902 -195.538011 
L 349.778456 -195.538011 
L 345.622011 -195.538011 
L 341.465565 -195.538011 
L 337.30912 -195.538011 
L 333.152674 -195.538011 
L 328.996229 -195.538011 
L 324.839784 -195.538011 
L 320.683338 -195.538011 
L 316.526893 -195.538011 
L 312.370447 -195.538011 
L 308.214002 -195.538011 
L 304.057556 -195.538011 
L 299.901111 -195.538011 
L 295.744665 -195.538011 
L 291.58822 -195.538011 
L 287.431774 -195.538011 
L 283.275329 -195.538011 
L 279.118883 -195.538011 
L 274.962438 -195.538011 
L 270.805992 -195.538011 
L 266.649547 -195.538011 
L 262.493101 -195.538011 
L 258.336656 -195.538011 
L 254.18021 -195.538011 
L 250.023765 -195.538011 
L 245.867319 -195.538011 
L 241.710874 -195.538011 
L 237.554428 -195.538011 
L 233.397983 -195.538011 
L 229.241537 -195.538011 
L 225.085092 -195.538011 
L 220.928646 -195.538011 
L 216.772201 -195.538011 
L 212.615756 -195.538011 
L 208.45931 -195.538011 
L 204.302865 -195.538011 
L 200.146419 -195.538011 
L 195.989974 -195.538011 
L 191.833528 -195.538011 
L 187.677083 -195.538011 
L 183.520637 -195.538011 
L 179.364192 -195.538011 
L 175.207746 -195.538011 
L 171.051301 -195.538011 
L 166.894855 -195.538011 
L 162.73841 -195.538011 
L 158.581964 -195.538011 
L 154.425519 -195.538011 
L 150.269073 -195.538011 
L 146.112628 -195.538011 
L 141.956182 -195.538011 
L 137.799737 -195.538011 
L 133.643291 -195.538011 
L 129.486846 -195.538011 
L 125.3304 -195.538011 
L 121.173955 -195.538011 
L 117.017509 -195.538011 
L 112.861064 -195.538011 
L 108.704619 -195.538011 
L 104.548173 -195.538011 
L 100.391728 -195.538011 
L 96.235282 -195.538011 
L 92.078837 -195.538011 
L 87.922391 -195.538011 
L 83.765946 -195.538011 
L 79.6095 -195.538011 
L 75.453055 -195.538011 
L 71.296609 -195.538011 
L 67.140164 -195.538011 
L 62.983718 -195.538011 
L 58.827273 -195.538011 
z
" id="md7a87d659e" style="stroke:#36a2eb;stroke-opacity:0.5;"/>
    </defs>
    <g clip-path="url(#p0c156f4a28)">
     <use style="fill:#36a2eb;fill-opacity:0.5;stroke:#36a2eb;stroke-opacity:0.5;" x="0" xlink:href="#md7a87d659e" y="581.789375"/>
    </g>
   </g>
   <g id="line2d_1">
    <path clip-path="url(#p0c156f4a28)" d="M 102.005873 386.13988 
L 106.181295 386.097842 
L 110.356718 386.041327 
L 114.532141 385.965879 
L 118.707564 385.865854 
L 122.882986 385.734172 
L 127.058409 385.562025 
L 131.233832 385.338561 
L 135.409255 385.050523 
L 139.584678 384.681875 
L 143.7601 384.213407 
L 147.935523 383.622332 
L 152.110946 382.8819 
L 156.286369 381.961043 
L 160.461791 380.824075 
L 164.637214 379.430489 
L 168.812637 377.73486 
L 172.98806 375.686919 
L 177.163482 373.23181 
L 181.338905 370.310582 
L 185.514328 366.860945 
L 189.689751 362.818312 
L 193.865174 358.117161 
L 198.040596 352.692718 
L 202.216019 346.482944 
L 206.391442 339.430834 
L 210.566865 331.486956 
L 214.742287 322.612189 
L 218.91771 312.780564 
L 223.093133 301.982124 
L 227.268556 290.225667 
L 231.443979 277.541253 
L 235.619401 263.982328 
L 239.794824 249.627325 
L 243.970247 234.580615 
L 248.14567 218.972672 
L 252.321092 202.95937 
L 256.496515 186.720332 
L 260.671938 170.456312 
L 264.847361 154.385616 
L 269.022784 138.73963 
L 273.198206 123.757553 
L 277.373629 109.680502 
L 281.549052 96.74517 
L 285.724475 85.177278 
L 289.899897 75.185056 
L 294.07532 66.95303 
L 298.250743 60.636359 
L 302.426166 56.355972 
L 306.601589 54.194724 
L 310.777011 54.194724 
L 314.952434 56.355972 
L 319.127857 60.636359 
L 323.30328 66.95303 
L 327.478702 75.185056 
L 331.654125 85.177278 
L 335.829548 96.74517 
L 340.004971 109.680502 
L 344.180393 123.757553 
L 348.355816 138.73963 
L 352.531239 154.385616 
L 356.706662 170.456312 
L 360.882085 186.720332 
L 365.057507 202.95937 
L 369.23293 218.972672 
L 373.408353 234.580615 
L 377.583776 249.627325 
L 381.759198 263.982328 
L 385.934621 277.541253 
L 390.110044 290.225667 
L 394.285467 301.982124 
L 398.46089 312.780564 
L 402.636312 322.612189 
L 406.811735 331.486956 
L 410.987158 339.430834 
L 415.162581 346.482944 
L 419.338003 352.692718 
L 423.513426 358.117161 
L 427.688849 362.818312 
L 431.864272 366.860945 
L 436.039695 370.310582 
L 440.215117 373.23181 
L 444.39054 375.686919 
L 448.565963 377.73486 
L 452.741386 379.430489 
L 456.916808 380.824075 
L 461.092231 381.961043 
L 465.267654 382.8819 
L 469.443077 383.622332 
L 473.6185 384.213407 
L 477.793922 384.681875 
L 481.969345 385.050523 
L 486.144768 385.338561 
L 490.320191 385.562025 
L 494.495613 385.734172 
L 498.671036 385.865854 
L 502.846459 385.965879 
L 507.021882 386.041327 
L 511.197304 386.097842 
L 515.372727 386.13988 
" style="fill:none;stroke:#ff6384;stroke-linecap:square;"/>
   </g>
   <g id="line2d_2">
    <path clip-path="url(#p0c156f4a28)" d="M 58.827273 386.139371 
L 62.983718 386.097141 
L 67.140164 386.040368 
L 71.296609 385.964575 
L 75.453055 385.864094 
L 79.6095 385.73181 
L 83.765946 385.558878 
L 87.922391 385.334393 
L 92.078837 385.04504 
L 96.235282 384.674709 
L 100.391728 384.204102 
L 104.548173 383.610328 
L 108.704619 382.866516 
L 112.861064 381.941454 
L 117.017509 380.799296 
L 121.173955 379.399346 
L 125.3304 377.695976 
L 129.486846 375.638684 
L 133.643291 373.172366 
L 137.799737 370.2378 
L 141.956182 366.772413 
L 146.112628 362.711322 
L 150.269073 357.988708 
L 154.425519 352.539497 
L 158.581964 346.301371 
L 162.73841 339.217063 
L 166.894855 331.236916 
L 171.051301 322.321628 
L 175.207746 312.445114 
L 179.364192 301.597371 
L 183.520637 289.787238 
L 187.677083 277.04491 
L 191.833528 263.424078 
L 195.989974 249.003534 
L 200.146419 233.888124 
L 204.302865 218.208919 
L 208.45931 202.122504 
L 212.615756 185.809323 
L 216.772201 169.471045 
L 220.928646 153.326975 
L 225.085092 137.609553 
L 229.241537 122.559072 
L 233.397983 108.417748 
L 237.554428 95.423357 
L 241.710874 83.802649 
L 245.867319 73.764805 
L 250.023765 65.495194 
L 254.18021 59.149682 
L 258.336656 54.849752 
L 262.493101 52.678636 
L 266.649547 52.678636 
L 270.805992 54.849752 
L 274.962438 59.149682 
L 279.118883 65.495194 
L 283.275329 73.764805 
L 287.431774 83.802649 
L 291.58822 95.423357 
L 295.744665 108.417748 
L 299.901111 122.559072 
L 304.057556 137.609553 
L 308.214002 153.326975 
L 312.370447 169.471045 
L 316.526893 185.809323 
L 320.683338 202.122504 
L 324.839784 218.208919 
L 328.996229 233.888124 
L 333.152674 249.003534 
L 337.30912 263.424078 
L 341.465565 277.04491 
L 345.622011 289.787238 
L 349.778456 301.597371 
L 353.934902 312.445114 
L 358.091347 322.321628 
L 362.247793 331.236916 
L 366.404238 339.217063 
L 370.560684 346.301371 
L 374.717129 352.539497 
L 378.873575 357.988708 
L 383.03002 362.711322 
L 387.186466 366.772413 
L 391.342911 370.2378 
L 395.499357 373.172366 
L 399.655802 375.638684 
L 403.812248 377.695976 
L 407.968693 379.399346 
L 412.125139 380.799296 
L 416.281584 381.941454 
L 420.43803 382.866516 
L 424.594475 383.610328 
L 428.750921 384.204102 
L 432.907366 384.674709 
L 437.063812 385.04504 
L 441.220257 385.334393 
L 445.376702 385.558878 
L 449.533148 385.73181 
L 453.689593 385.864094 
L 457.846039 385.964575 
L 462.002484 386.040368 
L 466.15893 386.097141 
L 470.315375 386.139371 
" style="fill:none;stroke:#36a2eb;stroke-linecap:square;"/>
   </g>
   <g id="patch_3">
    <path d="M 36 402.93 
L 538.2 402.93 
" style="fill:none;stroke:#000000;stroke-linecap:square;stroke-linejoin:miter;stroke-width:0.8;"/>
   </g>
   <g id="legend_1">
    <g id="patch_4">
     <path d="M 410.290313 88.688125 
L 528.4 88.688125 
Q 531.2 88.688125 531.2 85.888125 
L 531.2 45.8 
Q 531.2 43 528.4 43 
L 410.290313 43 
Q 407.490313 43 407.490313 45.8 
L 407.490313 85.888125 
Q 407.490313 88.688125 410.290313 88.688125 
z
" style="fill:#ffffff;opacity:0.8;stroke:#cccccc;stroke-linejoin:miter;"/>
    </g>
    <g id="patch_5">
     <path d="M 413.090313 59.237813 
L 441.090313 59.237813 
L 441.090313 49.437813 
L 413.090313 49.437813 
z
" style="fill:#ff6384;opacity:0.5;stroke:#ff6384;stroke-linejoin:miter;"/>
    </g>
    <g id="text_1">
     <!-- base -->
     <defs>
      <path d="M 48.6875 27.296875 
Q 48.6875 37.203125 44.609375 42.84375 
Q 40.53125 48.484375 33.40625 48.484375 
Q 26.265625 48.484375 22.1875 42.84375 
Q 18.109375 37.203125 18.109375 27.296875 
Q 18.109375 17.390625 22.1875 11.75 
Q 26.265625 6.109375 33.40625 6.109375 
Q 40.53125 6.109375 44.609375 11.75 
Q 48.6875 17.390625 48.6875 27.296875 
z
M 18.109375 46.390625 
Q 20.953125 51.265625 25.265625 53.625 
Q 29.59375 56 35.59375 56 
Q 45.5625 56 51.78125 48.09375 
Q 58.015625 40.1875 58.015625 27.296875 
Q 58.015625 14.40625 51.78125 6.484375 
Q 45.5625 -1.421875 35.59375 -1.421875 
Q 29.59375 -1.421875 25.265625 0.953125 
Q 20.953125 3.328125 18.109375 8.203125 
L 18.109375 0 
L 9.078125 0 
L 9.078125 75.984375 
L 18.109375 75.984375 
z
" id="DejaVuSans-98"/>
      <path d="M 34.28125 27.484375 
Q 23.390625 27.484375 19.1875 25 
Q 14.984375 22.515625 14.984375 16.5 
Q 14.984375 11.71875 18.140625 8.90625 
Q 21.296875 6.109375 26.703125 6.109375 
Q 34.1875 6.109375 38.703125 11.40625 
Q 43.21875 16.703125 43.21875 25.484375 
L 43.21875 27.484375 
z
M 52.203125 31.203125 
L 52.203125 0 
L 43.21875 0 
L 43.21875 8.296875 
Q 40.140625 3.328125 35.546875 0.953125 
Q 30.953125 -1.421875 24.3125 -1.421875 
Q 15.921875 -1.421875 10.953125 3.296875 
Q 6 8.015625 6 15.921875 
Q 6 25.140625 12.171875 29.828125 
Q 18.359375 34.515625 30.609375 34.515625 
L 43.21875 34.515625 
L 43.21875 35.40625 
Q 43.21875 41.609375 39.140625 45 
Q 35.0625 48.390625 27.6875 48.390625 
Q 23 48.390625 18.546875 47.265625 
Q 14.109375 46.140625 10.015625 43.890625 
L 10.015625 52.203125 
Q 14.9375 54.109375 19.578125 55.046875 
Q 24.21875 56 28.609375 56 
Q 40.484375 56 46.34375 49.84375 
Q 52.203125 43.703125 52.203125 31.203125 
z
" id="DejaVuSans-97"/>
      <path d="M 44.28125 53.078125 
L 44.28125 44.578125 
Q 40.484375 46.53125 36.375 47.5 
Q 32.28125 48.484375 27.875 48.484375 
Q 21.1875 48.484375 17.84375 46.4375 
Q 14.5 44.390625 14.5 40.28125 
Q 14.5 37.15625 16.890625 35.375 
Q 19.28125 33.59375 26.515625 31.984375 
L 29.59375 31.296875 
Q 39.15625 29.25 43.1875 25.515625 
Q 47.21875 21.78125 47.21875 15.09375 
Q 47.21875 7.46875 41.1875 3.015625 
Q 35.15625 -1.421875 24.609375 -1.421875 
Q 20.21875 -1.421875 15.453125 -0.5625 
Q 10.6875 0.296875 5.421875 2 
L 5.421875 11.28125 
Q 10.40625 8.6875 15.234375 7.390625 
Q 20.0625 6.109375 24.8125 6.109375 
Q 31.15625 6.109375 34.5625 8.28125 
Q 37.984375 10.453125 37.984375 14.40625 
Q 37.984375 18.0625 35.515625 20.015625 
Q 33.0625 21.96875 24.703125 23.78125 
L 21.578125 24.515625 
Q 13.234375 26.265625 9.515625 29.90625 
Q 5.8125 33.546875 5.8125 39.890625 
Q 5.8125 47.609375 11.28125 51.796875 
Q 16.75 56 26.8125 56 
Q 31.78125 56 36.171875 55.265625 
Q 40.578125 54.546875 44.28125 53.078125 
z
" id="DejaVuSans-115"/>
      <path d="M 56.203125 29.59375 
L 56.203125 25.203125 
L 14.890625 25.203125 
Q 15.484375 15.921875 20.484375 11.0625 
Q 25.484375 6.203125 34.421875 6.203125 
Q 39.59375 6.203125 44.453125 7.46875 
Q 49.3125 8.734375 54.109375 11.28125 
L 54.109375 2.78125 
Q 49.265625 0.734375 44.1875 -0.34375 
Q 39.109375 -1.421875 33.890625 -1.421875 
Q 20.796875 -1.421875 13.15625 6.1875 
Q 5.515625 13.8125 5.515625 26.8125 
Q 5.515625 40.234375 12.765625 48.109375 
Q 20.015625 56 32.328125 56 
Q 43.359375 56 49.78125 48.890625 
Q 56.203125 41.796875 56.203125 29.59375 
z
M 47.21875 32.234375 
Q 47.125 39.59375 43.09375 43.984375 
Q 39.0625 48.390625 32.421875 48.390625 
Q 24.90625 48.390625 20.390625 44.140625 
Q 15.875 39.890625 15.1875 32.171875 
z
" id="DejaVuSans-101"/>
     </defs>
     <g transform="translate(452.290313 59.237813)scale(0.14 -0.14)">
      <use xlink:href="#DejaVuSans-98"/>
      <use x="63.476562" xlink:href="#DejaVuSans-97"/>
      <use x="124.755859" xlink:href="#DejaVuSans-115"/>
      <use x="176.855469" xlink:href="#DejaVuSans-101"/>
     </g>
    </g>
    <g id="patch_6">
     <path d="M 413.090313 79.787188 
L 441.090313 79.787188 
L 441.090313 69.987188 
L 413.090313 69.987188 
z
" style="fill:#36a2eb;opacity:0.5;stroke:#36a2eb;stroke-linejoin:miter;"/>
    </g>
    <g id="text_2">
     <!-- no_license -->
     <defs>
      <path d="M 54.890625 33.015625 
L 54.890625 0 
L 45.90625 0 
L 45.90625 32.71875 
Q 45.90625 40.484375 42.875 44.328125 
Q 39.84375 48.1875 33.796875 48.1875 
Q 26.515625 48.1875 22.3125 43.546875 
Q 18.109375 38.921875 18.109375 30.90625 
L 18.109375 0 
L 9.078125 0 
L 9.078125 54.6875 
L 18.109375 54.6875 
L 18.109375 46.1875 
Q 21.34375 51.125 25.703125 53.5625 
Q 30.078125 56 35.796875 56 
Q 45.21875 56 50.046875 50.171875 
Q 54.890625 44.34375 54.890625 33.015625 
z
" id="DejaVuSans-110"/>
      <path d="M 30.609375 48.390625 
Q 23.390625 48.390625 19.1875 42.75 
Q 14.984375 37.109375 14.984375 27.296875 
Q 14.984375 17.484375 19.15625 11.84375 
Q 23.34375 6.203125 30.609375 6.203125 
Q 37.796875 6.203125 41.984375 11.859375 
Q 46.1875 17.53125 46.1875 27.296875 
Q 46.1875 37.015625 41.984375 42.703125 
Q 37.796875 48.390625 30.609375 48.390625 
z
M 30.609375 56 
Q 42.328125 56 49.015625 48.375 
Q 55.71875 40.765625 55.71875 27.296875 
Q 55.71875 13.875 49.015625 6.21875 
Q 42.328125 -1.421875 30.609375 -1.421875 
Q 18.84375 -1.421875 12.171875 6.21875 
Q 5.515625 13.875 5.515625 27.296875 
Q 5.515625 40.765625 12.171875 48.375 
Q 18.84375 56 30.609375 56 
z
" id="DejaVuSans-111"/>
      <path d="M 50.984375 -16.609375 
L 50.984375 -23.578125 
L -0.984375 -23.578125 
L -0.984375 -16.609375 
z
" id="DejaVuSans-95"/>
      <path d="M 9.421875 75.984375 
L 18.40625 75.984375 
L 18.40625 0 
L 9.421875 0 
z
" id="DejaVuSans-108"/>
      <path d="M 9.421875 54.6875 
L 18.40625 54.6875 
L 18.40625 0 
L 9.421875 0 
z
M 9.421875 75.984375 
L 18.40625 75.984375 
L 18.40625 64.59375 
L 9.421875 64.59375 
z
" id="DejaVuSans-105"/>
      <path d="M 48.78125 52.59375 
L 48.78125 44.1875 
Q 44.96875 46.296875 41.140625 47.34375 
Q 37.3125 48.390625 33.40625 48.390625 
Q 24.65625 48.390625 19.8125 42.84375 
Q 14.984375 37.3125 14.984375 27.296875 
Q 14.984375 17.28125 19.8125 11.734375 
Q 24.65625 6.203125 33.40625 6.203125 
Q 37.3125 6.203125 41.140625 7.25 
Q 44.96875 8.296875 48.78125 10.40625 
L 48.78125 2.09375 
Q 45.015625 0.34375 40.984375 -0.53125 
Q 36.96875 -1.421875 32.421875 -1.421875 
Q 20.0625 -1.421875 12.78125 6.34375 
Q 5.515625 14.109375 5.515625 27.296875 
Q 5.515625 40.671875 12.859375 48.328125 
Q 20.21875 56 33.015625 56 
Q 37.15625 56 41.109375 55.140625 
Q 45.0625 54.296875 48.78125 52.59375 
z
" id="DejaVuSans-99"/>
     </defs>
     <g transform="translate(452.290313 79.787188)scale(0.14 -0.14)">
      <use xlink:href="#DejaVuSans-110"/>
      <use x="63.378906" xlink:href="#DejaVuSans-111"/>
      <use x="124.560547" xlink:href="#DejaVuSans-95"/>
      <use x="174.560547" xlink:href="#DejaVuSans-108"/>
      <use x="202.34375" xlink:href="#DejaVuSans-105"/>
      <use x="230.126953" xlink:href="#DejaVuSans-99"/>
      <use x="285.107422" xlink:href="#DejaVuSans-101"/>
      <use x="346.630859" xlink:href="#DejaVuSans-110"/>
      <use x="410.009766" xlink:href="#DejaVuSans-115"/>
      <use x="462.109375" xlink:href="#DejaVuSans-101"/>
     </g>
    </g>
   </g>
  </g>
  <g id="axes_2">
   <g id="patch_7">
    <path d="M 36 525.24 
L 538.2 525.24 
L 538.2 402.93 
L 36 402.93 
z
" style="fill:none;"/>
   </g>
   <g id="patch_8">
    <path clip-path="url(#pa08d7ad0e6)" d="M 207.414421 519.680455 
L 409.964179 519.680455 
L 409.964179 482.616818 
L 207.414421 482.616818 
z
" style="fill:#ff6384;opacity:0.5;"/>
   </g>
   <g id="patch_9">
    <path clip-path="url(#pa08d7ad0e6)" d="M 163.756739 445.553182 
L 365.385909 445.553182 
L 365.385909 408.489545 
L 163.756739 408.489545 
z
" style="fill:#36a2eb;opacity:0.5;"/>
   </g>
   <g id="matplotlib.axis_1">
    <g id="xtick_1">
     <g id="line2d_3">
      <defs>
       <path d="M 0 0 
L 0 3.5 
" id="me3e6115253" style="stroke:#000000;stroke-width:0.8;"/>
      </defs>
      <g>
       <use style="stroke:#000000;stroke-width:0.8;" x="116.334925" xlink:href="#me3e6115253" y="525.24"/>
      </g>
     </g>
     <g id="text_3">
      <!-- 6.5 -->
      <defs>
       <path d="M 33.015625 40.375 
Q 26.375 40.375 22.484375 35.828125 
Q 18.609375 31.296875 18.609375 23.390625 
Q 18.609375 15.53125 22.484375 10.953125 
Q 26.375 6.390625 33.015625 6.390625 
Q 39.65625 6.390625 43.53125 10.953125 
Q 47.40625 15.53125 47.40625 23.390625 
Q 47.40625 31.296875 43.53125 35.828125 
Q 39.65625 40.375 33.015625 40.375 
z
M 52.59375 71.296875 
L 52.59375 62.3125 
Q 48.875 64.0625 45.09375 64.984375 
Q 41.3125 65.921875 37.59375 65.921875 
Q 27.828125 65.921875 22.671875 59.328125 
Q 17.53125 52.734375 16.796875 39.40625 
Q 19.671875 43.65625 24.015625 45.921875 
Q 28.375 48.1875 33.59375 48.1875 
Q 44.578125 48.1875 50.953125 41.515625 
Q 57.328125 34.859375 57.328125 23.390625 
Q 57.328125 12.15625 50.6875 5.359375 
Q 44.046875 -1.421875 33.015625 -1.421875 
Q 20.359375 -1.421875 13.671875 8.265625 
Q 6.984375 17.96875 6.984375 36.375 
Q 6.984375 53.65625 15.1875 63.9375 
Q 23.390625 74.21875 37.203125 74.21875 
Q 40.921875 74.21875 44.703125 73.484375 
Q 48.484375 72.75 52.59375 71.296875 
z
" id="DejaVuSans-54"/>
       <path d="M 10.6875 12.40625 
L 21 12.40625 
L 21 0 
L 10.6875 0 
z
" id="DejaVuSans-46"/>
       <path d="M 10.796875 72.90625 
L 49.515625 72.90625 
L 49.515625 64.59375 
L 19.828125 64.59375 
L 19.828125 46.734375 
Q 21.96875 47.46875 24.109375 47.828125 
Q 26.265625 48.1875 28.421875 48.1875 
Q 40.625 48.1875 47.75 41.5 
Q 54.890625 34.8125 54.890625 23.390625 
Q 54.890625 11.625 47.5625 5.09375 
Q 40.234375 -1.421875 26.90625 -1.421875 
Q 22.3125 -1.421875 17.546875 -0.640625 
Q 12.796875 0.140625 7.71875 1.703125 
L 7.71875 11.625 
Q 12.109375 9.234375 16.796875 8.0625 
Q 21.484375 6.890625 26.703125 6.890625 
Q 35.15625 6.890625 40.078125 11.328125 
Q 45.015625 15.765625 45.015625 23.390625 
Q 45.015625 31 40.078125 35.4375 
Q 35.15625 39.890625 26.703125 39.890625 
Q 22.75 39.890625 18.8125 39.015625 
Q 14.890625 38.140625 10.796875 36.28125 
z
" id="DejaVuSans-53"/>
      </defs>
      <g transform="translate(105.202738 542.877813)scale(0.14 -0.14)">
       <use xlink:href="#DejaVuSans-54"/>
       <use x="63.623047" xlink:href="#DejaVuSans-46"/>
       <use x="95.410156" xlink:href="#DejaVuSans-53"/>
      </g>
     </g>
    </g>
    <g id="xtick_2">
     <g id="line2d_4">
      <g>
       <use style="stroke:#000000;stroke-width:0.8;" x="204.570877" xlink:href="#me3e6115253" y="525.24"/>
      </g>
     </g>
     <g id="text_4">
      <!-- 7.0 -->
      <defs>
       <path d="M 8.203125 72.90625 
L 55.078125 72.90625 
L 55.078125 68.703125 
L 28.609375 0 
L 18.3125 0 
L 43.21875 64.59375 
L 8.203125 64.59375 
z
" id="DejaVuSans-55"/>
       <path d="M 31.78125 66.40625 
Q 24.171875 66.40625 20.328125 58.90625 
Q 16.5 51.421875 16.5 36.375 
Q 16.5 21.390625 20.328125 13.890625 
Q 24.171875 6.390625 31.78125 6.390625 
Q 39.453125 6.390625 43.28125 13.890625 
Q 47.125 21.390625 47.125 36.375 
Q 47.125 51.421875 43.28125 58.90625 
Q 39.453125 66.40625 31.78125 66.40625 
z
M 31.78125 74.21875 
Q 44.046875 74.21875 50.515625 64.515625 
Q 56.984375 54.828125 56.984375 36.375 
Q 56.984375 17.96875 50.515625 8.265625 
Q 44.046875 -1.421875 31.78125 -1.421875 
Q 19.53125 -1.421875 13.0625 8.265625 
Q 6.59375 17.96875 6.59375 36.375 
Q 6.59375 54.828125 13.0625 64.515625 
Q 19.53125 74.21875 31.78125 74.21875 
z
" id="DejaVuSans-48"/>
      </defs>
      <g transform="translate(193.438689 542.877813)scale(0.14 -0.14)">
       <use xlink:href="#DejaVuSans-55"/>
       <use x="63.623047" xlink:href="#DejaVuSans-46"/>
       <use x="95.410156" xlink:href="#DejaVuSans-48"/>
      </g>
     </g>
    </g>
    <g id="xtick_3">
     <g id="line2d_5">
      <g>
       <use style="stroke:#000000;stroke-width:0.8;" x="292.806829" xlink:href="#me3e6115253" y="525.24"/>
      </g>
     </g>
     <g id="text_5">
      <!-- 7.5 -->
      <g transform="translate(281.674641 542.877813)scale(0.14 -0.14)">
       <use xlink:href="#DejaVuSans-55"/>
       <use x="63.623047" xlink:href="#DejaVuSans-46"/>
       <use x="95.410156" xlink:href="#DejaVuSans-53"/>
      </g>
     </g>
    </g>
    <g id="xtick_4">
     <g id="line2d_6">
      <g>
       <use style="stroke:#000000;stroke-width:0.8;" x="381.04278" xlink:href="#me3e6115253" y="525.24"/>
      </g>
     </g>
     <g id="text_6">
      <!-- 8.0 -->
      <defs>
       <path d="M 31.78125 34.625 
Q 24.75 34.625 20.71875 30.859375 
Q 16.703125 27.09375 16.703125 20.515625 
Q 16.703125 13.921875 20.71875 10.15625 
Q 24.75 6.390625 31.78125 6.390625 
Q 38.8125 6.390625 42.859375 10.171875 
Q 46.921875 13.96875 46.921875 20.515625 
Q 46.921875 27.09375 42.890625 30.859375 
Q 38.875 34.625 31.78125 34.625 
z
M 21.921875 38.8125 
Q 15.578125 40.375 12.03125 44.71875 
Q 8.5 49.078125 8.5 55.328125 
Q 8.5 64.0625 14.71875 69.140625 
Q 20.953125 74.21875 31.78125 74.21875 
Q 42.671875 74.21875 48.875 69.140625 
Q 55.078125 64.0625 55.078125 55.328125 
Q 55.078125 49.078125 51.53125 44.71875 
Q 48 40.375 41.703125 38.8125 
Q 48.828125 37.15625 52.796875 32.3125 
Q 56.78125 27.484375 56.78125 20.515625 
Q 56.78125 9.90625 50.3125 4.234375 
Q 43.84375 -1.421875 31.78125 -1.421875 
Q 19.734375 -1.421875 13.25 4.234375 
Q 6.78125 9.90625 6.78125 20.515625 
Q 6.78125 27.484375 10.78125 32.3125 
Q 14.796875 37.15625 21.921875 38.8125 
z
M 18.3125 54.390625 
Q 18.3125 48.734375 21.84375 45.5625 
Q 25.390625 42.390625 31.78125 42.390625 
Q 38.140625 42.390625 41.71875 45.5625 
Q 45.3125 48.734375 45.3125 54.390625 
Q 45.3125 60.0625 41.71875 63.234375 
Q 38.140625 66.40625 31.78125 66.40625 
Q 25.390625 66.40625 21.84375 63.234375 
Q 18.3125 60.0625 18.3125 54.390625 
z
" id="DejaVuSans-56"/>
      </defs>
      <g transform="translate(369.910593 542.877813)scale(0.14 -0.14)">
       <use xlink:href="#DejaVuSans-56"/>
       <use x="63.623047" xlink:href="#DejaVuSans-46"/>
       <use x="95.410156" xlink:href="#DejaVuSans-48"/>
      </g>
     </g>
    </g>
    <g id="xtick_5">
     <g id="line2d_7">
      <g>
       <use style="stroke:#000000;stroke-width:0.8;" x="469.278732" xlink:href="#me3e6115253" y="525.24"/>
      </g>
     </g>
     <g id="text_7">
      <!-- 8.5 -->
      <g transform="translate(458.146545 542.877813)scale(0.14 -0.14)">
       <use xlink:href="#DejaVuSans-56"/>
       <use x="63.623047" xlink:href="#DejaVuSans-46"/>
       <use x="95.410156" xlink:href="#DejaVuSans-53"/>
      </g>
     </g>
    </g>
   </g>
   <g id="line2d_8">
    <path clip-path="url(#pa08d7ad0e6)" d="M 308.6893 525.24 
L 308.6893 402.93 
" style="fill:none;stroke:#ff6384;stroke-dasharray:5.55,2.4;stroke-dashoffset:0;stroke-opacity:0.8;stroke-width:1.5;"/>
   </g>
   <g id="line2d_9">
    <path clip-path="url(#pa08d7ad0e6)" d="M 264.571324 525.24 
L 264.571324 402.93 
" style="fill:none;stroke:#36a2eb;stroke-dasharray:5.55,2.4;stroke-dashoffset:0;stroke-opacity:0.8;stroke-width:1.5;"/>
   </g>
   <g id="patch_10">
    <path d="M 36 525.24 
L 538.2 525.24 
" style="fill:none;stroke:#000000;stroke-linecap:square;stroke-linejoin:miter;stroke-width:0.8;"/>
   </g>
  </g>
 </g>
 <defs>
  <clipPath id="p0c156f4a28">
   <rect height="366.93" width="502.2" x="36" y="36"/>
  </clipPath>
  <clipPath id="pa08d7ad0e6">
   <rect height="122.31" width="502.2" x="36" y="402.93"/>
  </clipPath>
 </defs>
</svg>
