<?xml version="1.0" encoding="utf-8" standalone="no"?>
<!DOCTYPE svg PUBLIC "-//W3C//DTD SVG 1.1//EN"
  "http://www.w3.org/Graphics/SVG/1.1/DTD/svg11.dtd">
<!-- Created with matplotlib (https://matplotlib.org/) -->
<svg height="581.789375pt" version="1.1" viewBox="0 0 574.2 581.789375" width="574.2pt" xmlns="http://www.w3.org/2000/svg" xmlns:xlink="http://www.w3.org/1999/xlink">
 <defs>
  <style type="text/css">
*{stroke-linecap:butt;stroke-linejoin:round;}
  </style>
 </defs>
 <g id="figure_1">
  <g id="patch_1">
   <path d="M 0 581.789375 
L 574.2 581.789375 
L 574.2 0 
L 0 0 
z
" style="fill:none;"/>
  </g>
  <g id="axes_1">
   <g id="patch_2">
    <path d="M 36 402.93 
L 538.2 402.93 
L 538.2 36 
L 36 36 
z
" style="fill:none;"/>
   </g>
   <g id="PolyCollection_1">
    <defs>
     <path d="M 100.484132 -195.538011 
L 100.484132 -195.649545 
L 104.674926 -195.691603 
L 108.86572 -195.748143 
L 113.056514 -195.823625 
L 117.247308 -195.923696 
L 121.438102 -196.055437 
L 125.628896 -196.227661 
L 129.81969 -196.451227 
L 134.010483 -196.739396 
L 138.201277 -197.10821 
L 142.392071 -197.57689 
L 146.582865 -198.168232 
L 150.773659 -198.908999 
L 154.964453 -199.830273 
L 159.155247 -200.967755 
L 163.346041 -202.361972 
L 167.536835 -204.058368 
L 171.727628 -206.107235 
L 175.918422 -208.563455 
L 180.109216 -211.486004 
L 184.30001 -214.937202 
L 188.490804 -218.981664 
L 192.681598 -223.684941 
L 196.872392 -229.111839 
L 201.063186 -235.324422 
L 205.25398 -242.379722 
L 209.444773 -250.327193 
L 213.635567 -259.205975 
L 217.826361 -269.042048 
L 222.017155 -279.845373 
L 226.207949 -291.607148 
L 230.398743 -304.2973 
L 234.589537 -317.862359 
L 238.780331 -332.223855 
L 242.971125 -347.277372 
L 247.161918 -362.892376 
L 251.352712 -378.912922 
L 255.543506 -395.159306 
L 259.7343 -411.430684 
L 263.925094 -427.508649 
L 268.115888 -443.161713 
L 272.306682 -458.150568 
L 276.497476 -472.233987 
L 280.68827 -485.175171 
L 284.879063 -496.748296 
L 289.069857 -506.745038 
L 293.260651 -514.980788 
L 297.451445 -521.300317 
L 301.642239 -525.58264 
L 305.833033 -527.744865 
L 310.023827 -527.744865 
L 314.214621 -525.58264 
L 318.405415 -521.300317 
L 322.596208 -514.980788 
L 326.787002 -506.745038 
L 330.977796 -496.748296 
L 335.16859 -485.175171 
L 339.359384 -472.233987 
L 343.550178 -458.150568 
L 347.740972 -443.161713 
L 351.931766 -427.508649 
L 356.12256 -411.430684 
L 360.313353 -395.159306 
L 364.504147 -378.912922 
L 368.694941 -362.892376 
L 372.885735 -347.277372 
L 377.076529 -332.223855 
L 381.267323 -317.862359 
L 385.458117 -304.2973 
L 389.648911 -291.607148 
L 393.839705 -279.845373 
L 398.030498 -269.042048 
L 402.221292 -259.205975 
L 406.412086 -250.327193 
L 410.60288 -242.379722 
L 414.793674 -235.324422 
L 418.984468 -229.111839 
L 423.175262 -223.684941 
L 427.366056 -218.981664 
L 431.55685 -214.937202 
L 435.747643 -211.486004 
L 439.938437 -208.563455 
L 444.129231 -206.107235 
L 448.320025 -204.058368 
L 452.510819 -202.361972 
L 456.701613 -200.967755 
L 460.892407 -199.830273 
L 465.083201 -198.908999 
L 469.273994 -198.168232 
L 473.464788 -197.57689 
L 477.655582 -197.10821 
L 481.846376 -196.739396 
L 486.03717 -196.451227 
L 490.227964 -196.227661 
L 494.418758 -196.055437 
L 498.609552 -195.923696 
L 502.800346 -195.823625 
L 506.991139 -195.748143 
L 511.181933 -195.691603 
L 515.372727 -195.649545 
L 515.372727 -195.538011 
L 515.372727 -195.538011 
L 511.181933 -195.538011 
L 506.991139 -195.538011 
L 502.800346 -195.538011 
L 498.609552 -195.538011 
L 494.418758 -195.538011 
L 490.227964 -195.538011 
L 486.03717 -195.538011 
L 481.846376 -195.538011 
L 477.655582 -195.538011 
L 473.464788 -195.538011 
L 469.273994 -195.538011 
L 465.083201 -195.538011 
L 460.892407 -195.538011 
L 456.701613 -195.538011 
L 452.510819 -195.538011 
L 448.320025 -195.538011 
L 444.129231 -195.538011 
L 439.938437 -195.538011 
L 435.747643 -195.538011 
L 431.55685 -195.538011 
L 427.366056 -195.538011 
L 423.175262 -195.538011 
L 418.984468 -195.538011 
L 414.793674 -195.538011 
L 410.60288 -195.538011 
L 406.412086 -195.538011 
L 402.221292 -195.538011 
L 398.030498 -195.538011 
L 393.839705 -195.538011 
L 389.648911 -195.538011 
L 385.458117 -195.538011 
L 381.267323 -195.538011 
L 377.076529 -195.538011 
L 372.885735 -195.538011 
L 368.694941 -195.538011 
L 364.504147 -195.538011 
L 360.313353 -195.538011 
L 356.12256 -195.538011 
L 351.931766 -195.538011 
L 347.740972 -195.538011 
L 343.550178 -195.538011 
L 339.359384 -195.538011 
L 335.16859 -195.538011 
L 330.977796 -195.538011 
L 326.787002 -195.538011 
L 322.596208 -195.538011 
L 318.405415 -195.538011 
L 314.214621 -195.538011 
L 310.023827 -195.538011 
L 305.833033 -195.538011 
L 301.642239 -195.538011 
L 297.451445 -195.538011 
L 293.260651 -195.538011 
L 289.069857 -195.538011 
L 284.879063 -195.538011 
L 280.68827 -195.538011 
L 276.497476 -195.538011 
L 272.306682 -195.538011 
L 268.115888 -195.538011 
L 263.925094 -195.538011 
L 259.7343 -195.538011 
L 255.543506 -195.538011 
L 251.352712 -195.538011 
L 247.161918 -195.538011 
L 242.971125 -195.538011 
L 238.780331 -195.538011 
L 234.589537 -195.538011 
L 230.398743 -195.538011 
L 226.207949 -195.538011 
L 222.017155 -195.538011 
L 217.826361 -195.538011 
L 213.635567 -195.538011 
L 209.444773 -195.538011 
L 205.25398 -195.538011 
L 201.063186 -195.538011 
L 196.872392 -195.538011 
L 192.681598 -195.538011 
L 188.490804 -195.538011 
L 184.30001 -195.538011 
L 180.109216 -195.538011 
L 175.918422 -195.538011 
L 171.727628 -195.538011 
L 167.536835 -195.538011 
L 163.346041 -195.538011 
L 159.155247 -195.538011 
L 154.964453 -195.538011 
L 150.773659 -195.538011 
L 146.582865 -195.538011 
L 142.392071 -195.538011 
L 138.201277 -195.538011 
L 134.010483 -195.538011 
L 129.81969 -195.538011 
L 125.628896 -195.538011 
L 121.438102 -195.538011 
L 117.247308 -195.538011 
L 113.056514 -195.538011 
L 108.86572 -195.538011 
L 104.674926 -195.538011 
L 100.484132 -195.538011 
z
" id="m9fb4e2541d" style="stroke:#ff6384;stroke-opacity:0.5;"/>
    </defs>
    <g clip-path="url(#p6f140b9f11)">
     <use style="fill:#ff6384;fill-opacity:0.5;stroke:#ff6384;stroke-opacity:0.5;" x="0" xlink:href="#m9fb4e2541d" y="581.789375"/>
    </g>
   </g>
   <g id="PolyCollection_2">
    <defs>
     <path d="M 58.827273 -195.538011 
L 58.827273 -195.650004 
L 63.000907 -195.692234 
L 67.174541 -195.749007 
L 71.348175 -195.8248 
L 75.521808 -195.925281 
L 79.695442 -196.057565 
L 83.869076 -196.230497 
L 88.04271 -196.454982 
L 92.216344 -196.744335 
L 96.389978 -197.114666 
L 100.563612 -197.585273 
L 104.737246 -198.179047 
L 108.91088 -198.922859 
L 113.084514 -199.847921 
L 117.258148 -200.990079 
L 121.431782 -202.390029 
L 125.605416 -204.093399 
L 129.77905 -206.150691 
L 133.952683 -208.617009 
L 138.126317 -211.551575 
L 142.299951 -215.016962 
L 146.473585 -219.078053 
L 150.647219 -223.800667 
L 154.820853 -229.249878 
L 158.994487 -235.488004 
L 163.168121 -242.572312 
L 167.341755 -250.552459 
L 171.515389 -259.467747 
L 175.689023 -269.344261 
L 179.862657 -280.192004 
L 184.036291 -292.002137 
L 188.209925 -304.744465 
L 192.383559 -318.365297 
L 196.557192 -332.785841 
L 200.730826 -347.901251 
L 204.90446 -363.580456 
L 209.078094 -379.666871 
L 213.251728 -395.980052 
L 217.425362 -412.31833 
L 221.598996 -428.4624 
L 225.77263 -444.179822 
L 229.946264 -459.230303 
L 234.119898 -473.371627 
L 238.293532 -486.366018 
L 242.467166 -497.986726 
L 246.6408 -508.02457 
L 250.814434 -516.294181 
L 254.988068 -522.639693 
L 259.161701 -526.939623 
L 263.335335 -529.110739 
L 267.508969 -529.110739 
L 271.682603 -526.939623 
L 275.856237 -522.639693 
L 280.029871 -516.294181 
L 284.203505 -508.02457 
L 288.377139 -497.986726 
L 292.550773 -486.366018 
L 296.724407 -473.371627 
L 300.898041 -459.230303 
L 305.071675 -444.179822 
L 309.245309 -428.4624 
L 313.418943 -412.31833 
L 317.592576 -395.980052 
L 321.76621 -379.666871 
L 325.939844 -363.580456 
L 330.113478 -347.901251 
L 334.287112 -332.785841 
L 338.460746 -318.365297 
L 342.63438 -304.744465 
L 346.808014 -292.002137 
L 350.981648 -280.192004 
L 355.155282 -269.344261 
L 359.328916 -259.467747 
L 363.50255 -250.552459 
L 367.676184 -242.572312 
L 371.849818 -235.488004 
L 376.023452 -229.249878 
L 380.197085 -223.800667 
L 384.370719 -219.078053 
L 388.544353 -215.016962 
L 392.717987 -211.551575 
L 396.891621 -208.617009 
L 401.065255 -206.150691 
L 405.238889 -204.093399 
L 409.412523 -202.390029 
L 413.586157 -200.990079 
L 417.759791 -199.847921 
L 421.933425 -198.922859 
L 426.107059 -198.179047 
L 430.280693 -197.585273 
L 434.454327 -197.114666 
L 438.627961 -196.744335 
L 442.801594 -196.454982 
L 446.975228 -196.230497 
L 451.148862 -196.057565 
L 455.322496 -195.925281 
L 459.49613 -195.8248 
L 463.669764 -195.749007 
L 467.843398 -195.692234 
L 472.017032 -195.650004 
L 472.017032 -195.538011 
L 472.017032 -195.538011 
L 467.843398 -195.538011 
L 463.669764 -195.538011 
L 459.49613 -195.538011 
L 455.322496 -195.538011 
L 451.148862 -195.538011 
L 446.975228 -195.538011 
L 442.801594 -195.538011 
L 438.627961 -195.538011 
L 434.454327 -195.538011 
L 430.280693 -195.538011 
L 426.107059 -195.538011 
L 421.933425 -195.538011 
L 417.759791 -195.538011 
L 413.586157 -195.538011 
L 409.412523 -195.538011 
L 405.238889 -195.538011 
L 401.065255 -195.538011 
L 396.891621 -195.538011 
L 392.717987 -195.538011 
L 388.544353 -195.538011 
L 384.370719 -195.538011 
L 380.197085 -195.538011 
L 376.023452 -195.538011 
L 371.849818 -195.538011 
L 367.676184 -195.538011 
L 363.50255 -195.538011 
L 359.328916 -195.538011 
L 355.155282 -195.538011 
L 350.981648 -195.538011 
L 346.808014 -195.538011 
L 342.63438 -195.538011 
L 338.460746 -195.538011 
L 334.287112 -195.538011 
L 330.113478 -195.538011 
L 325.939844 -195.538011 
L 321.76621 -195.538011 
L 317.592576 -195.538011 
L 313.418943 -195.538011 
L 309.245309 -195.538011 
L 305.071675 -195.538011 
L 300.898041 -195.538011 
L 296.724407 -195.538011 
L 292.550773 -195.538011 
L 288.377139 -195.538011 
L 284.203505 -195.538011 
L 280.029871 -195.538011 
L 275.856237 -195.538011 
L 271.682603 -195.538011 
L 267.508969 -195.538011 
L 263.335335 -195.538011 
L 259.161701 -195.538011 
L 254.988068 -195.538011 
L 250.814434 -195.538011 
L 246.6408 -195.538011 
L 242.467166 -195.538011 
L 238.293532 -195.538011 
L 234.119898 -195.538011 
L 229.946264 -195.538011 
L 225.77263 -195.538011 
L 221.598996 -195.538011 
L 217.425362 -195.538011 
L 213.251728 -195.538011 
L 209.078094 -195.538011 
L 204.90446 -195.538011 
L 200.730826 -195.538011 
L 196.557192 -195.538011 
L 192.383559 -195.538011 
L 188.209925 -195.538011 
L 184.036291 -195.538011 
L 179.862657 -195.538011 
L 175.689023 -195.538011 
L 171.515389 -195.538011 
L 167.341755 -195.538011 
L 163.168121 -195.538011 
L 158.994487 -195.538011 
L 154.820853 -195.538011 
L 150.647219 -195.538011 
L 146.473585 -195.538011 
L 142.299951 -195.538011 
L 138.126317 -195.538011 
L 133.952683 -195.538011 
L 129.77905 -195.538011 
L 125.605416 -195.538011 
L 121.431782 -195.538011 
L 117.258148 -195.538011 
L 113.084514 -195.538011 
L 108.91088 -195.538011 
L 104.737246 -195.538011 
L 100.563612 -195.538011 
L 96.389978 -195.538011 
L 92.216344 -195.538011 
L 88.04271 -195.538011 
L 83.869076 -195.538011 
L 79.695442 -195.538011 
L 75.521808 -195.538011 
L 71.348175 -195.538011 
L 67.174541 -195.538011 
L 63.000907 -195.538011 
L 58.827273 -195.538011 
z
" id="m41316e105b" style="stroke:#36a2eb;stroke-opacity:0.5;"/>
    </defs>
    <g clip-path="url(#p6f140b9f11)">
     <use style="fill:#36a2eb;fill-opacity:0.5;stroke:#36a2eb;stroke-opacity:0.5;" x="0" xlink:href="#m41316e105b" y="581.789375"/>
    </g>
   </g>
   <g id="line2d_1">
    <path clip-path="url(#p6f140b9f11)" d="M 100.484132 386.13983 
L 104.674926 386.097772 
L 108.86572 386.041232 
L 113.056514 385.96575 
L 117.247308 385.865679 
L 121.438102 385.733938 
L 125.628896 385.561714 
L 129.81969 385.338148 
L 134.010483 385.049979 
L 138.201277 384.681165 
L 142.392071 384.212485 
L 146.582865 383.621143 
L 150.773659 382.880376 
L 154.964453 381.959102 
L 159.155247 380.82162 
L 163.346041 379.427403 
L 167.536835 377.731007 
L 171.727628 375.68214 
L 175.918422 373.22592 
L 180.109216 370.303371 
L 184.30001 366.852173 
L 188.490804 362.807711 
L 192.681598 358.104434 
L 196.872392 352.677536 
L 201.063186 346.464953 
L 205.25398 339.409653 
L 209.444773 331.462182 
L 213.635567 322.5834 
L 217.826361 312.747327 
L 222.017155 301.944002 
L 226.207949 290.182227 
L 230.398743 277.492075 
L 234.589537 263.927016 
L 238.780331 249.56552 
L 242.971125 234.512003 
L 247.161918 218.896999 
L 251.352712 202.876453 
L 255.543506 186.630069 
L 259.7343 170.358691 
L 263.925094 154.280726 
L 268.115888 138.627662 
L 272.306682 123.638807 
L 276.497476 109.555388 
L 280.68827 96.614204 
L 284.879063 85.041079 
L 289.069857 75.044337 
L 293.260651 66.808587 
L 297.451445 60.489058 
L 301.642239 56.206735 
L 305.833033 54.04451 
L 310.023827 54.04451 
L 314.214621 56.206735 
L 318.405415 60.489058 
L 322.596208 66.808587 
L 326.787002 75.044337 
L 330.977796 85.041079 
L 335.16859 96.614204 
L 339.359384 109.555388 
L 343.550178 123.638807 
L 347.740972 138.627662 
L 351.931766 154.280726 
L 356.12256 170.358691 
L 360.313353 186.630069 
L 364.504147 202.876453 
L 368.694941 218.896999 
L 372.885735 234.512003 
L 377.076529 249.56552 
L 381.267323 263.927016 
L 385.458117 277.492075 
L 389.648911 290.182227 
L 393.839705 301.944002 
L 398.030498 312.747327 
L 402.221292 322.5834 
L 406.412086 331.462182 
L 410.60288 339.409653 
L 414.793674 346.464953 
L 418.984468 352.677536 
L 423.175262 358.104434 
L 427.366056 362.807711 
L 431.55685 366.852173 
L 435.747643 370.303371 
L 439.938437 373.22592 
L 444.129231 375.68214 
L 448.320025 377.731007 
L 452.510819 379.427403 
L 456.701613 380.82162 
L 460.892407 381.959102 
L 465.083201 382.880376 
L 469.273994 383.621143 
L 473.464788 384.212485 
L 477.655582 384.681165 
L 481.846376 385.049979 
L 486.03717 385.338148 
L 490.227964 385.561714 
L 494.418758 385.733938 
L 498.609552 385.865679 
L 502.800346 385.96575 
L 506.991139 386.041232 
L 511.181933 386.097772 
L 515.372727 386.13983 
" style="fill:none;stroke:#ff6384;stroke-linecap:square;"/>
   </g>
   <g id="line2d_2">
    <path clip-path="url(#p6f140b9f11)" d="M 58.827273 386.139371 
L 63.000907 386.097141 
L 67.174541 386.040368 
L 71.348175 385.964575 
L 75.521808 385.864094 
L 79.695442 385.73181 
L 83.869076 385.558878 
L 88.04271 385.334393 
L 92.216344 385.04504 
L 96.389978 384.674709 
L 100.563612 384.204102 
L 104.737246 383.610328 
L 108.91088 382.866516 
L 113.084514 381.941454 
L 117.258148 380.799296 
L 121.431782 379.399346 
L 125.605416 377.695976 
L 129.77905 375.638684 
L 133.952683 373.172366 
L 138.126317 370.2378 
L 142.299951 366.772413 
L 146.473585 362.711322 
L 150.647219 357.988708 
L 154.820853 352.539497 
L 158.994487 346.301371 
L 163.168121 339.217063 
L 167.341755 331.236916 
L 171.515389 322.321628 
L 175.689023 312.445114 
L 179.862657 301.597371 
L 184.036291 289.787238 
L 188.209925 277.04491 
L 192.383559 263.424078 
L 196.557192 249.003534 
L 200.730826 233.888124 
L 204.90446 218.208919 
L 209.078094 202.122504 
L 213.251728 185.809323 
L 217.425362 169.471045 
L 221.598996 153.326975 
L 225.77263 137.609553 
L 229.946264 122.559072 
L 234.119898 108.417748 
L 238.293532 95.423357 
L 242.467166 83.802649 
L 246.6408 73.764805 
L 250.814434 65.495194 
L 254.988068 59.149682 
L 259.161701 54.849752 
L 263.335335 52.678636 
L 267.508969 52.678636 
L 271.682603 54.849752 
L 275.856237 59.149682 
L 280.029871 65.495194 
L 284.203505 73.764805 
L 288.377139 83.802649 
L 292.550773 95.423357 
L 296.724407 108.417748 
L 300.898041 122.559072 
L 305.071675 137.609553 
L 309.245309 153.326975 
L 313.418943 169.471045 
L 317.592576 185.809323 
L 321.76621 202.122504 
L 325.939844 218.208919 
L 330.113478 233.888124 
L 334.287112 249.003534 
L 338.460746 263.424078 
L 342.63438 277.04491 
L 346.808014 289.787238 
L 350.981648 301.597371 
L 355.155282 312.445114 
L 359.328916 322.321628 
L 363.50255 331.236916 
L 367.676184 339.217063 
L 371.849818 346.301371 
L 376.023452 352.539497 
L 380.197085 357.988708 
L 384.370719 362.711322 
L 388.544353 366.772413 
L 392.717987 370.2378 
L 396.891621 373.172366 
L 401.065255 375.638684 
L 405.238889 377.695976 
L 409.412523 379.399346 
L 413.586157 380.799296 
L 417.759791 381.941454 
L 421.933425 382.866516 
L 426.107059 383.610328 
L 430.280693 384.204102 
L 434.454327 384.674709 
L 438.627961 385.04504 
L 442.801594 385.334393 
L 446.975228 385.558878 
L 451.148862 385.73181 
L 455.322496 385.864094 
L 459.49613 385.964575 
L 463.669764 386.040368 
L 467.843398 386.097141 
L 472.017032 386.139371 
" style="fill:none;stroke:#36a2eb;stroke-linecap:square;"/>
   </g>
   <g id="patch_3">
    <path d="M 36 402.93 
L 538.2 402.93 
" style="fill:none;stroke:#000000;stroke-linecap:square;stroke-linejoin:miter;stroke-width:0.8;"/>
   </g>
   <g id="legend_1">
    <g id="patch_4">
     <path d="M 410.290313 88.688125 
L 528.4 88.688125 
Q 531.2 88.688125 531.2 85.888125 
L 531.2 45.8 
Q 531.2 43 528.4 43 
L 410.290313 43 
Q 407.490313 43 407.490313 45.8 
L 407.490313 85.888125 
Q 407.490313 88.688125 410.290313 88.688125 
z
" style="fill:#ffffff;opacity:0.8;stroke:#cccccc;stroke-linejoin:miter;"/>
    </g>
    <g id="patch_5">
     <path d="M 413.090313 59.237813 
L 441.090313 59.237813 
L 441.090313 49.437813 
L 413.090313 49.437813 
z
" style="fill:#ff6384;opacity:0.5;stroke:#ff6384;stroke-linejoin:miter;"/>
    </g>
    <g id="text_1">
     <!-- base -->
     <defs>
      <path d="M 48.6875 27.296875 
Q 48.6875 37.203125 44.609375 42.84375 
Q 40.53125 48.484375 33.40625 48.484375 
Q 26.265625 48.484375 22.1875 42.84375 
Q 18.109375 37.203125 18.109375 27.296875 
Q 18.109375 17.390625 22.1875 11.75 
Q 26.265625 6.109375 33.40625 6.109375 
Q 40.53125 6.109375 44.609375 11.75 
Q 48.6875 17.390625 48.6875 27.296875 
z
M 18.109375 46.390625 
Q 20.953125 51.265625 25.265625 53.625 
Q 29.59375 56 35.59375 56 
Q 45.5625 56 51.78125 48.09375 
Q 58.015625 40.1875 58.015625 27.296875 
Q 58.015625 14.40625 51.78125 6.484375 
Q 45.5625 -1.421875 35.59375 -1.421875 
Q 29.59375 -1.421875 25.265625 0.953125 
Q 20.953125 3.328125 18.109375 8.203125 
L 18.109375 0 
L 9.078125 0 
L 9.078125 75.984375 
L 18.109375 75.984375 
z
" id="DejaVuSans-98"/>
      <path d="M 34.28125 27.484375 
Q 23.390625 27.484375 19.1875 25 
Q 14.984375 22.515625 14.984375 16.5 
Q 14.984375 11.71875 18.140625 8.90625 
Q 21.296875 6.109375 26.703125 6.109375 
Q 34.1875 6.109375 38.703125 11.40625 
Q 43.21875 16.703125 43.21875 25.484375 
L 43.21875 27.484375 
z
M 52.203125 31.203125 
L 52.203125 0 
L 43.21875 0 
L 43.21875 8.296875 
Q 40.140625 3.328125 35.546875 0.953125 
Q 30.953125 -1.421875 24.3125 -1.421875 
Q 15.921875 -1.421875 10.953125 3.296875 
Q 6 8.015625 6 15.921875 
Q 6 25.140625 12.171875 29.828125 
Q 18.359375 34.515625 30.609375 34.515625 
L 43.21875 34.515625 
L 43.21875 35.40625 
Q 43.21875 41.609375 39.140625 45 
Q 35.0625 48.390625 27.6875 48.390625 
Q 23 48.390625 18.546875 47.265625 
Q 14.109375 46.140625 10.015625 43.890625 
L 10.015625 52.203125 
Q 14.9375 54.109375 19.578125 55.046875 
Q 24.21875 56 28.609375 56 
Q 40.484375 56 46.34375 49.84375 
Q 52.203125 43.703125 52.203125 31.203125 
z
" id="DejaVuSans-97"/>
      <path d="M 44.28125 53.078125 
L 44.28125 44.578125 
Q 40.484375 46.53125 36.375 47.5 
Q 32.28125 48.484375 27.875 48.484375 
Q 21.1875 48.484375 17.84375 46.4375 
Q 14.5 44.390625 14.5 40.28125 
Q 14.5 37.15625 16.890625 35.375 
Q 19.28125 33.59375 26.515625 31.984375 
L 29.59375 31.296875 
Q 39.15625 29.25 43.1875 25.515625 
Q 47.21875 21.78125 47.21875 15.09375 
Q 47.21875 7.46875 41.1875 3.015625 
Q 35.15625 -1.421875 24.609375 -1.421875 
Q 20.21875 -1.421875 15.453125 -0.5625 
Q 10.6875 0.296875 5.421875 2 
L 5.421875 11.28125 
Q 10.40625 8.6875 15.234375 7.390625 
Q 20.0625 6.109375 24.8125 6.109375 
Q 31.15625 6.109375 34.5625 8.28125 
Q 37.984375 10.453125 37.984375 14.40625 
Q 37.984375 18.0625 35.515625 20.015625 
Q 33.0625 21.96875 24.703125 23.78125 
L 21.578125 24.515625 
Q 13.234375 26.265625 9.515625 29.90625 
Q 5.8125 33.546875 5.8125 39.890625 
Q 5.8125 47.609375 11.28125 51.796875 
Q 16.75 56 26.8125 56 
Q 31.78125 56 36.171875 55.265625 
Q 40.578125 54.546875 44.28125 53.078125 
z
" id="DejaVuSans-115"/>
      <path d="M 56.203125 29.59375 
L 56.203125 25.203125 
L 14.890625 25.203125 
Q 15.484375 15.921875 20.484375 11.0625 
Q 25.484375 6.203125 34.421875 6.203125 
Q 39.59375 6.203125 44.453125 7.46875 
Q 49.3125 8.734375 54.109375 11.28125 
L 54.109375 2.78125 
Q 49.265625 0.734375 44.1875 -0.34375 
Q 39.109375 -1.421875 33.890625 -1.421875 
Q 20.796875 -1.421875 13.15625 6.1875 
Q 5.515625 13.8125 5.515625 26.8125 
Q 5.515625 40.234375 12.765625 48.109375 
Q 20.015625 56 32.328125 56 
Q 43.359375 56 49.78125 48.890625 
Q 56.203125 41.796875 56.203125 29.59375 
z
M 47.21875 32.234375 
Q 47.125 39.59375 43.09375 43.984375 
Q 39.0625 48.390625 32.421875 48.390625 
Q 24.90625 48.390625 20.390625 44.140625 
Q 15.875 39.890625 15.1875 32.171875 
z
" id="DejaVuSans-101"/>
     </defs>
     <g transform="translate(452.290313 59.237813)scale(0.14 -0.14)">
      <use xlink:href="#DejaVuSans-98"/>
      <use x="63.476562" xlink:href="#DejaVuSans-97"/>
      <use x="124.755859" xlink:href="#DejaVuSans-115"/>
      <use x="176.855469" xlink:href="#DejaVuSans-101"/>
     </g>
    </g>
    <g id="patch_6">
     <path d="M 413.090313 79.787188 
L 441.090313 79.787188 
L 441.090313 69.987188 
L 413.090313 69.987188 
z
" style="fill:#36a2eb;opacity:0.5;stroke:#36a2eb;stroke-linejoin:miter;"/>
    </g>
    <g id="text_2">
     <!-- no_license -->
     <defs>
      <path d="M 54.890625 33.015625 
L 54.890625 0 
L 45.90625 0 
L 45.90625 32.71875 
Q 45.90625 40.484375 42.875 44.328125 
Q 39.84375 48.1875 33.796875 48.1875 
Q 26.515625 48.1875 22.3125 43.546875 
Q 18.109375 38.921875 18.109375 30.90625 
L 18.109375 0 
L 9.078125 0 
L 9.078125 54.6875 
L 18.109375 54.6875 
L 18.109375 46.1875 
Q 21.34375 51.125 25.703125 53.5625 
Q 30.078125 56 35.796875 56 
Q 45.21875 56 50.046875 50.171875 
Q 54.890625 44.34375 54.890625 33.015625 
z
" id="DejaVuSans-110"/>
      <path d="M 30.609375 48.390625 
Q 23.390625 48.390625 19.1875 42.75 
Q 14.984375 37.109375 14.984375 27.296875 
Q 14.984375 17.484375 19.15625 11.84375 
Q 23.34375 6.203125 30.609375 6.203125 
Q 37.796875 6.203125 41.984375 11.859375 
Q 46.1875 17.53125 46.1875 27.296875 
Q 46.1875 37.015625 41.984375 42.703125 
Q 37.796875 48.390625 30.609375 48.390625 
z
M 30.609375 56 
Q 42.328125 56 49.015625 48.375 
Q 55.71875 40.765625 55.71875 27.296875 
Q 55.71875 13.875 49.015625 6.21875 
Q 42.328125 -1.421875 30.609375 -1.421875 
Q 18.84375 -1.421875 12.171875 6.21875 
Q 5.515625 13.875 5.515625 27.296875 
Q 5.515625 40.765625 12.171875 48.375 
Q 18.84375 56 30.609375 56 
z
" id="DejaVuSans-111"/>
      <path d="M 50.984375 -16.609375 
L 50.984375 -23.578125 
L -0.984375 -23.578125 
L -0.984375 -16.609375 
z
" id="DejaVuSans-95"/>
      <path d="M 9.421875 75.984375 
L 18.40625 75.984375 
L 18.40625 0 
L 9.421875 0 
z
" id="DejaVuSans-108"/>
      <path d="M 9.421875 54.6875 
L 18.40625 54.6875 
L 18.40625 0 
L 9.421875 0 
z
M 9.421875 75.984375 
L 18.40625 75.984375 
L 18.40625 64.59375 
L 9.421875 64.59375 
z
" id="DejaVuSans-105"/>
      <path d="M 48.78125 52.59375 
L 48.78125 44.1875 
Q 44.96875 46.296875 41.140625 47.34375 
Q 37.3125 48.390625 33.40625 48.390625 
Q 24.65625 48.390625 19.8125 42.84375 
Q 14.984375 37.3125 14.984375 27.296875 
Q 14.984375 17.28125 19.8125 11.734375 
Q 24.65625 6.203125 33.40625 6.203125 
Q 37.3125 6.203125 41.140625 7.25 
Q 44.96875 8.296875 48.78125 10.40625 
L 48.78125 2.09375 
Q 45.015625 0.34375 40.984375 -0.53125 
Q 36.96875 -1.421875 32.421875 -1.421875 
Q 20.0625 -1.421875 12.78125 6.34375 
Q 5.515625 14.109375 5.515625 27.296875 
Q 5.515625 40.671875 12.859375 48.328125 
Q 20.21875 56 33.015625 56 
Q 37.15625 56 41.109375 55.140625 
Q 45.0625 54.296875 48.78125 52.59375 
z
" id="DejaVuSans-99"/>
     </defs>
     <g transform="translate(452.290313 79.787188)scale(0.14 -0.14)">
      <use xlink:href="#DejaVuSans-110"/>
      <use x="63.378906" xlink:href="#DejaVuSans-111"/>
      <use x="124.560547" xlink:href="#DejaVuSans-95"/>
      <use x="174.560547" xlink:href="#DejaVuSans-108"/>
      <use x="202.34375" xlink:href="#DejaVuSans-105"/>
      <use x="230.126953" xlink:href="#DejaVuSans-99"/>
      <use x="285.107422" xlink:href="#DejaVuSans-101"/>
      <use x="346.630859" xlink:href="#DejaVuSans-110"/>
      <use x="410.009766" xlink:href="#DejaVuSans-115"/>
      <use x="462.109375" xlink:href="#DejaVuSans-101"/>
     </g>
    </g>
   </g>
  </g>
  <g id="axes_2">
   <g id="patch_7">
    <path d="M 36 525.24 
L 538.2 525.24 
L 538.2 402.93 
L 36 402.93 
z
" style="fill:none;"/>
   </g>
   <g id="patch_8">
    <path clip-path="url(#pff8ab55c6e)" d="M 206.280724 519.680455 
L 409.576136 519.680455 
L 409.576136 482.616818 
L 206.280724 482.616818 
z
" style="fill:#ff6384;opacity:0.5;"/>
   </g>
   <g id="patch_9">
    <path clip-path="url(#pff8ab55c6e)" d="M 164.190661 445.553182 
L 366.653643 445.553182 
L 366.653643 408.489545 
L 164.190661 408.489545 
z
" style="fill:#36a2eb;opacity:0.5;"/>
   </g>
   <g id="matplotlib.axis_1">
    <g id="xtick_1">
     <g id="line2d_3">
      <defs>
       <path d="M 0 0 
L 0 3.5 
" id="m5e4772169b" style="stroke:#000000;stroke-width:0.8;"/>
      </defs>
      <g>
       <use style="stroke:#000000;stroke-width:0.8;" x="114.879086" xlink:href="#m5e4772169b" y="525.24"/>
      </g>
     </g>
     <g id="text_3">
      <!-- 6.5 -->
      <defs>
       <path d="M 33.015625 40.375 
Q 26.375 40.375 22.484375 35.828125 
Q 18.609375 31.296875 18.609375 23.390625 
Q 18.609375 15.53125 22.484375 10.953125 
Q 26.375 6.390625 33.015625 6.390625 
Q 39.65625 6.390625 43.53125 10.953125 
Q 47.40625 15.53125 47.40625 23.390625 
Q 47.40625 31.296875 43.53125 35.828125 
Q 39.65625 40.375 33.015625 40.375 
z
M 52.59375 71.296875 
L 52.59375 62.3125 
Q 48.875 64.0625 45.09375 64.984375 
Q 41.3125 65.921875 37.59375 65.921875 
Q 27.828125 65.921875 22.671875 59.328125 
Q 17.53125 52.734375 16.796875 39.40625 
Q 19.671875 43.65625 24.015625 45.921875 
Q 28.375 48.1875 33.59375 48.1875 
Q 44.578125 48.1875 50.953125 41.515625 
Q 57.328125 34.859375 57.328125 23.390625 
Q 57.328125 12.15625 50.6875 5.359375 
Q 44.046875 -1.421875 33.015625 -1.421875 
Q 20.359375 -1.421875 13.671875 8.265625 
Q 6.984375 17.96875 6.984375 36.375 
Q 6.984375 53.65625 15.1875 63.9375 
Q 23.390625 74.21875 37.203125 74.21875 
Q 40.921875 74.21875 44.703125 73.484375 
Q 48.484375 72.75 52.59375 71.296875 
z
" id="DejaVuSans-54"/>
       <path d="M 10.6875 12.40625 
L 21 12.40625 
L 21 0 
L 10.6875 0 
z
" id="DejaVuSans-46"/>
       <path d="M 10.796875 72.90625 
L 49.515625 72.90625 
L 49.515625 64.59375 
L 19.828125 64.59375 
L 19.828125 46.734375 
Q 21.96875 47.46875 24.109375 47.828125 
Q 26.265625 48.1875 28.421875 48.1875 
Q 40.625 48.1875 47.75 41.5 
Q 54.890625 34.8125 54.890625 23.390625 
Q 54.890625 11.625 47.5625 5.09375 
Q 40.234375 -1.421875 26.90625 -1.421875 
Q 22.3125 -1.421875 17.546875 -0.640625 
Q 12.796875 0.140625 7.71875 1.703125 
L 7.71875 11.625 
Q 12.109375 9.234375 16.796875 8.0625 
Q 21.484375 6.890625 26.703125 6.890625 
Q 35.15625 6.890625 40.078125 11.328125 
Q 45.015625 15.765625 45.015625 23.390625 
Q 45.015625 31 40.078125 35.4375 
Q 35.15625 39.890625 26.703125 39.890625 
Q 22.75 39.890625 18.8125 39.015625 
Q 14.890625 38.140625 10.796875 36.28125 
z
" id="DejaVuSans-53"/>
      </defs>
      <g transform="translate(103.746899 542.877813)scale(0.14 -0.14)">
       <use xlink:href="#DejaVuSans-54"/>
       <use x="63.623047" xlink:href="#DejaVuSans-46"/>
       <use x="95.410156" xlink:href="#DejaVuSans-53"/>
      </g>
     </g>
    </g>
    <g id="xtick_2">
     <g id="line2d_4">
      <g>
       <use style="stroke:#000000;stroke-width:0.8;" x="203.433831" xlink:href="#m5e4772169b" y="525.24"/>
      </g>
     </g>
     <g id="text_4">
      <!-- 7.0 -->
      <defs>
       <path d="M 8.203125 72.90625 
L 55.078125 72.90625 
L 55.078125 68.703125 
L 28.609375 0 
L 18.3125 0 
L 43.21875 64.59375 
L 8.203125 64.59375 
z
" id="DejaVuSans-55"/>
       <path d="M 31.78125 66.40625 
Q 24.171875 66.40625 20.328125 58.90625 
Q 16.5 51.421875 16.5 36.375 
Q 16.5 21.390625 20.328125 13.890625 
Q 24.171875 6.390625 31.78125 6.390625 
Q 39.453125 6.390625 43.28125 13.890625 
Q 47.125 21.390625 47.125 36.375 
Q 47.125 51.421875 43.28125 58.90625 
Q 39.453125 66.40625 31.78125 66.40625 
z
M 31.78125 74.21875 
Q 44.046875 74.21875 50.515625 64.515625 
Q 56.984375 54.828125 56.984375 36.375 
Q 56.984375 17.96875 50.515625 8.265625 
Q 44.046875 -1.421875 31.78125 -1.421875 
Q 19.53125 -1.421875 13.0625 8.265625 
Q 6.59375 17.96875 6.59375 36.375 
Q 6.59375 54.828125 13.0625 64.515625 
Q 19.53125 74.21875 31.78125 74.21875 
z
" id="DejaVuSans-48"/>
      </defs>
      <g transform="translate(192.301644 542.877813)scale(0.14 -0.14)">
       <use xlink:href="#DejaVuSans-55"/>
       <use x="63.623047" xlink:href="#DejaVuSans-46"/>
       <use x="95.410156" xlink:href="#DejaVuSans-48"/>
      </g>
     </g>
    </g>
    <g id="xtick_3">
     <g id="line2d_5">
      <g>
       <use style="stroke:#000000;stroke-width:0.8;" x="291.988576" xlink:href="#m5e4772169b" y="525.24"/>
      </g>
     </g>
     <g id="text_5">
      <!-- 7.5 -->
      <g transform="translate(280.856388 542.877813)scale(0.14 -0.14)">
       <use xlink:href="#DejaVuSans-55"/>
       <use x="63.623047" xlink:href="#DejaVuSans-46"/>
       <use x="95.410156" xlink:href="#DejaVuSans-53"/>
      </g>
     </g>
    </g>
    <g id="xtick_4">
     <g id="line2d_6">
      <g>
       <use style="stroke:#000000;stroke-width:0.8;" x="380.54332" xlink:href="#m5e4772169b" y="525.24"/>
      </g>
     </g>
     <g id="text_6">
      <!-- 8.0 -->
      <defs>
       <path d="M 31.78125 34.625 
Q 24.75 34.625 20.71875 30.859375 
Q 16.703125 27.09375 16.703125 20.515625 
Q 16.703125 13.921875 20.71875 10.15625 
Q 24.75 6.390625 31.78125 6.390625 
Q 38.8125 6.390625 42.859375 10.171875 
Q 46.921875 13.96875 46.921875 20.515625 
Q 46.921875 27.09375 42.890625 30.859375 
Q 38.875 34.625 31.78125 34.625 
z
M 21.921875 38.8125 
Q 15.578125 40.375 12.03125 44.71875 
Q 8.5 49.078125 8.5 55.328125 
Q 8.5 64.0625 14.71875 69.140625 
Q 20.953125 74.21875 31.78125 74.21875 
Q 42.671875 74.21875 48.875 69.140625 
Q 55.078125 64.0625 55.078125 55.328125 
Q 55.078125 49.078125 51.53125 44.71875 
Q 48 40.375 41.703125 38.8125 
Q 48.828125 37.15625 52.796875 32.3125 
Q 56.78125 27.484375 56.78125 20.515625 
Q 56.78125 9.90625 50.3125 4.234375 
Q 43.84375 -1.421875 31.78125 -1.421875 
Q 19.734375 -1.421875 13.25 4.234375 
Q 6.78125 9.90625 6.78125 20.515625 
Q 6.78125 27.484375 10.78125 32.3125 
Q 14.796875 37.15625 21.921875 38.8125 
z
M 18.3125 54.390625 
Q 18.3125 48.734375 21.84375 45.5625 
Q 25.390625 42.390625 31.78125 42.390625 
Q 38.140625 42.390625 41.71875 45.5625 
Q 45.3125 48.734375 45.3125 54.390625 
Q 45.3125 60.0625 41.71875 63.234375 
Q 38.140625 66.40625 31.78125 66.40625 
Q 25.390625 66.40625 21.84375 63.234375 
Q 18.3125 60.0625 18.3125 54.390625 
z
" id="DejaVuSans-56"/>
      </defs>
      <g transform="translate(369.411133 542.877813)scale(0.14 -0.14)">
       <use xlink:href="#DejaVuSans-56"/>
       <use x="63.623047" xlink:href="#DejaVuSans-46"/>
       <use x="95.410156" xlink:href="#DejaVuSans-48"/>
      </g>
     </g>
    </g>
    <g id="xtick_5">
     <g id="line2d_7">
      <g>
       <use style="stroke:#000000;stroke-width:0.8;" x="469.098065" xlink:href="#m5e4772169b" y="525.24"/>
      </g>
     </g>
     <g id="text_7">
      <!-- 8.5 -->
      <g transform="translate(457.965878 542.877813)scale(0.14 -0.14)">
       <use xlink:href="#DejaVuSans-56"/>
       <use x="63.623047" xlink:href="#DejaVuSans-46"/>
       <use x="95.410156" xlink:href="#DejaVuSans-53"/>
      </g>
     </g>
    </g>
   </g>
   <g id="line2d_8">
    <path clip-path="url(#pff8ab55c6e)" d="M 307.92843 525.24 
L 307.92843 402.93 
" style="fill:none;stroke:#ff6384;stroke-dasharray:5.55,2.4;stroke-dashoffset:0;stroke-opacity:0.8;stroke-width:1.5;"/>
   </g>
   <g id="line2d_9">
    <path clip-path="url(#pff8ab55c6e)" d="M 265.422152 525.24 
L 265.422152 402.93 
" style="fill:none;stroke:#36a2eb;stroke-dasharray:5.55,2.4;stroke-dashoffset:0;stroke-opacity:0.8;stroke-width:1.5;"/>
   </g>
   <g id="patch_10">
    <path d="M 36 525.24 
L 538.2 525.24 
" style="fill:none;stroke:#000000;stroke-linecap:square;stroke-linejoin:miter;stroke-width:0.8;"/>
   </g>
  </g>
 </g>
 <defs>
  <clipPath id="p6f140b9f11">
   <rect height="366.93" width="502.2" x="36" y="36"/>
  </clipPath>
  <clipPath id="pff8ab55c6e">
   <rect height="122.31" width="502.2" x="36" y="402.93"/>
  </clipPath>
 </defs>
</svg>
