<?xml version="1.0" encoding="utf-8" standalone="no"?>
<!DOCTYPE svg PUBLIC "-//W3C//DTD SVG 1.1//EN"
  "http://www.w3.org/Graphics/SVG/1.1/DTD/svg11.dtd">
<!-- Created with matplotlib (https://matplotlib.org/) -->
<svg height="581.789375pt" version="1.1" viewBox="0 0 574.2 581.789375" width="574.2pt" xmlns="http://www.w3.org/2000/svg" xmlns:xlink="http://www.w3.org/1999/xlink">
 <defs>
  <style type="text/css">
*{stroke-linecap:butt;stroke-linejoin:round;}
  </style>
 </defs>
 <g id="figure_1">
  <g id="patch_1">
   <path d="M 0 581.789375 
L 574.2 581.789375 
L 574.2 0 
L 0 0 
z
" style="fill:none;"/>
  </g>
  <g id="axes_1">
   <g id="patch_2">
    <path d="M 36 402.93 
L 538.2 402.93 
L 538.2 36 
L 36 36 
z
" style="fill:none;"/>
   </g>
   <g id="PolyCollection_1">
    <defs>
     <path d="M 102.019545 -195.538011 
L 102.019545 -195.649506 
L 106.19483 -195.691549 
L 110.370114 -195.74807 
L 114.545399 -195.823526 
L 118.720684 -195.923561 
L 122.895968 -196.055257 
L 127.071253 -196.22742 
L 131.246538 -196.450908 
L 135.421822 -196.738976 
L 139.597107 -197.107661 
L 143.772392 -197.576177 
L 147.947676 -198.167313 
L 152.122961 -198.907821 
L 156.298246 -199.828773 
L 160.47353 -200.965857 
L 164.648815 -202.359586 
L 168.8241 -204.055389 
L 172.999384 -206.10354 
L 177.174669 -208.558901 
L 181.349954 -211.480429 
L 185.525238 -214.93042 
L 189.700523 -218.973468 
L 193.875808 -223.675101 
L 198.051092 -229.100101 
L 202.226377 -235.310512 
L 206.401662 -242.363346 
L 210.576946 -250.308038 
L 214.752231 -259.183716 
L 218.927516 -269.01635 
L 223.1028 -279.815899 
L 227.278085 -291.573562 
L 231.45337 -304.259277 
L 235.628654 -317.819594 
L 239.803939 -332.17607 
L 243.979224 -347.224324 
L 248.154508 -362.833868 
L 252.329793 -378.848814 
L 256.505078 -395.089518 
L 260.680362 -411.355207 
L 264.855647 -427.427552 
L 269.030932 -443.075143 
L 273.206216 -458.058757 
L 277.381501 -472.137253 
L 281.556786 -485.073913 
L 285.73207 -496.642992 
L 289.907355 -506.636239 
L 294.08264 -514.869109 
L 298.257924 -521.186429 
L 302.433209 -525.467255 
L 306.608494 -527.628725 
L 310.783778 -527.628725 
L 314.959063 -525.467255 
L 319.134348 -521.186429 
L 323.309632 -514.869109 
L 327.484917 -506.636239 
L 331.660202 -496.642992 
L 335.835486 -485.073913 
L 340.010771 -472.137253 
L 344.186056 -458.058757 
L 348.361341 -443.075143 
L 352.536625 -427.427552 
L 356.71191 -411.355207 
L 360.887195 -395.089518 
L 365.062479 -378.848814 
L 369.237764 -362.833868 
L 373.413049 -347.224324 
L 377.588333 -332.17607 
L 381.763618 -317.819594 
L 385.938903 -304.259277 
L 390.114187 -291.573562 
L 394.289472 -279.815899 
L 398.464757 -269.01635 
L 402.640041 -259.183716 
L 406.815326 -250.308038 
L 410.990611 -242.363346 
L 415.165895 -235.310512 
L 419.34118 -229.100101 
L 423.516465 -223.675101 
L 427.691749 -218.973468 
L 431.867034 -214.93042 
L 436.042319 -211.480429 
L 440.217603 -208.558901 
L 444.392888 -206.10354 
L 448.568173 -204.055389 
L 452.743457 -202.359586 
L 456.918742 -200.965857 
L 461.094027 -199.828773 
L 465.269311 -198.907821 
L 469.444596 -198.167313 
L 473.619881 -197.576177 
L 477.795165 -197.107661 
L 481.97045 -196.738976 
L 486.145735 -196.450908 
L 490.321019 -196.22742 
L 494.496304 -196.055257 
L 498.671589 -195.923561 
L 502.846873 -195.823526 
L 507.022158 -195.74807 
L 511.197443 -195.691549 
L 515.372727 -195.649506 
L 515.372727 -195.538011 
L 515.372727 -195.538011 
L 511.197443 -195.538011 
L 507.022158 -195.538011 
L 502.846873 -195.538011 
L 498.671589 -195.538011 
L 494.496304 -195.538011 
L 490.321019 -195.538011 
L 486.145735 -195.538011 
L 481.97045 -195.538011 
L 477.795165 -195.538011 
L 473.619881 -195.538011 
L 469.444596 -195.538011 
L 465.269311 -195.538011 
L 461.094027 -195.538011 
L 456.918742 -195.538011 
L 452.743457 -195.538011 
L 448.568173 -195.538011 
L 444.392888 -195.538011 
L 440.217603 -195.538011 
L 436.042319 -195.538011 
L 431.867034 -195.538011 
L 427.691749 -195.538011 
L 423.516465 -195.538011 
L 419.34118 -195.538011 
L 415.165895 -195.538011 
L 410.990611 -195.538011 
L 406.815326 -195.538011 
L 402.640041 -195.538011 
L 398.464757 -195.538011 
L 394.289472 -195.538011 
L 390.114187 -195.538011 
L 385.938903 -195.538011 
L 381.763618 -195.538011 
L 377.588333 -195.538011 
L 373.413049 -195.538011 
L 369.237764 -195.538011 
L 365.062479 -195.538011 
L 360.887195 -195.538011 
L 356.71191 -195.538011 
L 352.536625 -195.538011 
L 348.361341 -195.538011 
L 344.186056 -195.538011 
L 340.010771 -195.538011 
L 335.835486 -195.538011 
L 331.660202 -195.538011 
L 327.484917 -195.538011 
L 323.309632 -195.538011 
L 319.134348 -195.538011 
L 314.959063 -195.538011 
L 310.783778 -195.538011 
L 306.608494 -195.538011 
L 302.433209 -195.538011 
L 298.257924 -195.538011 
L 294.08264 -195.538011 
L 289.907355 -195.538011 
L 285.73207 -195.538011 
L 281.556786 -195.538011 
L 277.381501 -195.538011 
L 273.206216 -195.538011 
L 269.030932 -195.538011 
L 264.855647 -195.538011 
L 260.680362 -195.538011 
L 256.505078 -195.538011 
L 252.329793 -195.538011 
L 248.154508 -195.538011 
L 243.979224 -195.538011 
L 239.803939 -195.538011 
L 235.628654 -195.538011 
L 231.45337 -195.538011 
L 227.278085 -195.538011 
L 223.1028 -195.538011 
L 218.927516 -195.538011 
L 214.752231 -195.538011 
L 210.576946 -195.538011 
L 206.401662 -195.538011 
L 202.226377 -195.538011 
L 198.051092 -195.538011 
L 193.875808 -195.538011 
L 189.700523 -195.538011 
L 185.525238 -195.538011 
L 181.349954 -195.538011 
L 177.174669 -195.538011 
L 172.999384 -195.538011 
L 168.8241 -195.538011 
L 164.648815 -195.538011 
L 160.47353 -195.538011 
L 156.298246 -195.538011 
L 152.122961 -195.538011 
L 147.947676 -195.538011 
L 143.772392 -195.538011 
L 139.597107 -195.538011 
L 135.421822 -195.538011 
L 131.246538 -195.538011 
L 127.071253 -195.538011 
L 122.895968 -195.538011 
L 118.720684 -195.538011 
L 114.545399 -195.538011 
L 110.370114 -195.538011 
L 106.19483 -195.538011 
L 102.019545 -195.538011 
z
" id="mb992667973" style="stroke:#ff6384;stroke-opacity:0.5;"/>
    </defs>
    <g clip-path="url(#pe7b8f15e72)">
     <use style="fill:#ff6384;fill-opacity:0.5;stroke:#ff6384;stroke-opacity:0.5;" x="0" xlink:href="#mb992667973" y="581.789375"/>
    </g>
   </g>
   <g id="PolyCollection_2">
    <defs>
     <path d="M 58.827273 -195.538011 
L 58.827273 -195.650004 
L 62.984007 -195.692234 
L 67.140742 -195.749007 
L 71.297476 -195.8248 
L 75.454211 -195.925281 
L 79.610945 -196.057565 
L 83.76768 -196.230497 
L 87.924414 -196.454982 
L 92.081149 -196.744335 
L 96.237883 -197.114666 
L 100.394618 -197.585273 
L 104.551352 -198.179047 
L 108.708087 -198.922859 
L 112.864821 -199.847921 
L 117.021556 -200.990079 
L 121.17829 -202.390029 
L 125.335025 -204.093399 
L 129.491759 -206.150691 
L 133.648494 -208.617009 
L 137.805228 -211.551575 
L 141.961963 -215.016962 
L 146.118697 -219.078053 
L 150.275432 -223.800667 
L 154.432166 -229.249878 
L 158.588901 -235.488004 
L 162.745635 -242.572312 
L 166.90237 -250.552459 
L 171.059104 -259.467747 
L 175.215839 -269.344261 
L 179.372573 -280.192004 
L 183.529308 -292.002137 
L 187.686042 -304.744465 
L 191.842777 -318.365297 
L 195.999511 -332.785841 
L 200.156246 -347.901251 
L 204.31298 -363.580456 
L 208.469715 -379.666871 
L 212.626449 -395.980052 
L 216.783184 -412.31833 
L 220.939918 -428.4624 
L 225.096653 -444.179822 
L 229.253387 -459.230303 
L 233.410122 -473.371627 
L 237.566856 -486.366018 
L 241.723591 -497.986726 
L 245.880325 -508.02457 
L 250.03706 -516.294181 
L 254.193794 -522.639693 
L 258.350529 -526.939623 
L 262.507263 -529.110739 
L 266.663998 -529.110739 
L 270.820732 -526.939623 
L 274.977467 -522.639693 
L 279.134201 -516.294181 
L 283.290936 -508.02457 
L 287.44767 -497.986726 
L 291.604405 -486.366018 
L 295.761139 -473.371627 
L 299.917874 -459.230303 
L 304.074608 -444.179822 
L 308.231343 -428.4624 
L 312.388077 -412.31833 
L 316.544812 -395.980052 
L 320.701546 -379.666871 
L 324.858281 -363.580456 
L 329.015015 -347.901251 
L 333.17175 -332.785841 
L 337.328484 -318.365297 
L 341.485219 -304.744465 
L 345.641953 -292.002137 
L 349.798688 -280.192004 
L 353.955422 -269.344261 
L 358.112157 -259.467747 
L 362.268891 -250.552459 
L 366.425626 -242.572312 
L 370.58236 -235.488004 
L 374.739095 -229.249878 
L 378.895829 -223.800667 
L 383.052564 -219.078053 
L 387.209298 -215.016962 
L 391.366033 -211.551575 
L 395.522767 -208.617009 
L 399.679502 -206.150691 
L 403.836236 -204.093399 
L 407.992971 -202.390029 
L 412.149705 -200.990079 
L 416.30644 -199.847921 
L 420.463174 -198.922859 
L 424.619909 -198.179047 
L 428.776643 -197.585273 
L 432.933378 -197.114666 
L 437.090112 -196.744335 
L 441.246847 -196.454982 
L 445.403581 -196.230497 
L 449.560316 -196.057565 
L 453.71705 -195.925281 
L 457.873785 -195.8248 
L 462.030519 -195.749007 
L 466.187254 -195.692234 
L 470.343989 -195.650004 
L 470.343989 -195.538011 
L 470.343989 -195.538011 
L 466.187254 -195.538011 
L 462.030519 -195.538011 
L 457.873785 -195.538011 
L 453.71705 -195.538011 
L 449.560316 -195.538011 
L 445.403581 -195.538011 
L 441.246847 -195.538011 
L 437.090112 -195.538011 
L 432.933378 -195.538011 
L 428.776643 -195.538011 
L 424.619909 -195.538011 
L 420.463174 -195.538011 
L 416.30644 -195.538011 
L 412.149705 -195.538011 
L 407.992971 -195.538011 
L 403.836236 -195.538011 
L 399.679502 -195.538011 
L 395.522767 -195.538011 
L 391.366033 -195.538011 
L 387.209298 -195.538011 
L 383.052564 -195.538011 
L 378.895829 -195.538011 
L 374.739095 -195.538011 
L 370.58236 -195.538011 
L 366.425626 -195.538011 
L 362.268891 -195.538011 
L 358.112157 -195.538011 
L 353.955422 -195.538011 
L 349.798688 -195.538011 
L 345.641953 -195.538011 
L 341.485219 -195.538011 
L 337.328484 -195.538011 
L 333.17175 -195.538011 
L 329.015015 -195.538011 
L 324.858281 -195.538011 
L 320.701546 -195.538011 
L 316.544812 -195.538011 
L 312.388077 -195.538011 
L 308.231343 -195.538011 
L 304.074608 -195.538011 
L 299.917874 -195.538011 
L 295.761139 -195.538011 
L 291.604405 -195.538011 
L 287.44767 -195.538011 
L 283.290936 -195.538011 
L 279.134201 -195.538011 
L 274.977467 -195.538011 
L 270.820732 -195.538011 
L 266.663998 -195.538011 
L 262.507263 -195.538011 
L 258.350529 -195.538011 
L 254.193794 -195.538011 
L 250.03706 -195.538011 
L 245.880325 -195.538011 
L 241.723591 -195.538011 
L 237.566856 -195.538011 
L 233.410122 -195.538011 
L 229.253387 -195.538011 
L 225.096653 -195.538011 
L 220.939918 -195.538011 
L 216.783184 -195.538011 
L 212.626449 -195.538011 
L 208.469715 -195.538011 
L 204.31298 -195.538011 
L 200.156246 -195.538011 
L 195.999511 -195.538011 
L 191.842777 -195.538011 
L 187.686042 -195.538011 
L 183.529308 -195.538011 
L 179.372573 -195.538011 
L 175.215839 -195.538011 
L 171.059104 -195.538011 
L 166.90237 -195.538011 
L 162.745635 -195.538011 
L 158.588901 -195.538011 
L 154.432166 -195.538011 
L 150.275432 -195.538011 
L 146.118697 -195.538011 
L 141.961963 -195.538011 
L 137.805228 -195.538011 
L 133.648494 -195.538011 
L 129.491759 -195.538011 
L 125.335025 -195.538011 
L 121.17829 -195.538011 
L 117.021556 -195.538011 
L 112.864821 -195.538011 
L 108.708087 -195.538011 
L 104.551352 -195.538011 
L 100.394618 -195.538011 
L 96.237883 -195.538011 
L 92.081149 -195.538011 
L 87.924414 -195.538011 
L 83.76768 -195.538011 
L 79.610945 -195.538011 
L 75.454211 -195.538011 
L 71.297476 -195.538011 
L 67.140742 -195.538011 
L 62.984007 -195.538011 
L 58.827273 -195.538011 
z
" id="mb19e6e5041" style="stroke:#36a2eb;stroke-opacity:0.5;"/>
    </defs>
    <g clip-path="url(#pe7b8f15e72)">
     <use style="fill:#36a2eb;fill-opacity:0.5;stroke:#36a2eb;stroke-opacity:0.5;" x="0" xlink:href="#mb19e6e5041" y="581.789375"/>
    </g>
   </g>
   <g id="line2d_1">
    <path clip-path="url(#pe7b8f15e72)" d="M 102.019545 386.139869 
L 106.19483 386.097826 
L 110.370114 386.041305 
L 114.545399 385.965849 
L 118.720684 385.865814 
L 122.895968 385.734118 
L 127.071253 385.561955 
L 131.246538 385.338467 
L 135.421822 385.050399 
L 139.597107 384.681714 
L 143.772392 384.213198 
L 147.947676 383.622062 
L 152.122961 382.881554 
L 156.298246 381.960602 
L 160.47353 380.823518 
L 164.648815 379.429789 
L 168.8241 377.733986 
L 172.999384 375.685835 
L 177.174669 373.230474 
L 181.349954 370.308946 
L 185.525238 366.858955 
L 189.700523 362.815907 
L 193.875808 358.114274 
L 198.051092 352.689274 
L 202.226377 346.478863 
L 206.401662 339.426029 
L 210.576946 331.481337 
L 214.752231 322.605659 
L 218.927516 312.773025 
L 223.1028 301.973476 
L 227.278085 290.215813 
L 231.45337 277.530098 
L 235.628654 263.969781 
L 239.803939 249.613305 
L 243.979224 234.565051 
L 248.154508 218.955507 
L 252.329793 202.940561 
L 256.505078 186.699857 
L 260.680362 170.434168 
L 264.855647 154.361823 
L 269.030932 138.714232 
L 273.206216 123.730618 
L 277.381501 109.652122 
L 281.556786 96.715462 
L 285.73207 85.146383 
L 289.907355 75.153136 
L 294.08264 66.920266 
L 298.257924 60.602946 
L 302.433209 56.32212 
L 306.608494 54.16065 
L 310.783778 54.16065 
L 314.959063 56.32212 
L 319.134348 60.602946 
L 323.309632 66.920266 
L 327.484917 75.153136 
L 331.660202 85.146383 
L 335.835486 96.715462 
L 340.010771 109.652122 
L 344.186056 123.730618 
L 348.361341 138.714232 
L 352.536625 154.361823 
L 356.71191 170.434168 
L 360.887195 186.699857 
L 365.062479 202.940561 
L 369.237764 218.955507 
L 373.413049 234.565051 
L 377.588333 249.613305 
L 381.763618 263.969781 
L 385.938903 277.530098 
L 390.114187 290.215813 
L 394.289472 301.973476 
L 398.464757 312.773025 
L 402.640041 322.605659 
L 406.815326 331.481337 
L 410.990611 339.426029 
L 415.165895 346.478863 
L 419.34118 352.689274 
L 423.516465 358.114274 
L 427.691749 362.815907 
L 431.867034 366.858955 
L 436.042319 370.308946 
L 440.217603 373.230474 
L 444.392888 375.685835 
L 448.568173 377.733986 
L 452.743457 379.429789 
L 456.918742 380.823518 
L 461.094027 381.960602 
L 465.269311 382.881554 
L 469.444596 383.622062 
L 473.619881 384.213198 
L 477.795165 384.681714 
L 481.97045 385.050399 
L 486.145735 385.338467 
L 490.321019 385.561955 
L 494.496304 385.734118 
L 498.671589 385.865814 
L 502.846873 385.965849 
L 507.022158 386.041305 
L 511.197443 386.097826 
L 515.372727 386.139869 
" style="fill:none;stroke:#ff6384;stroke-linecap:square;"/>
   </g>
   <g id="line2d_2">
    <path clip-path="url(#pe7b8f15e72)" d="M 58.827273 386.139371 
L 62.984007 386.097141 
L 67.140742 386.040368 
L 71.297476 385.964575 
L 75.454211 385.864094 
L 79.610945 385.73181 
L 83.76768 385.558878 
L 87.924414 385.334393 
L 92.081149 385.04504 
L 96.237883 384.674709 
L 100.394618 384.204102 
L 104.551352 383.610328 
L 108.708087 382.866516 
L 112.864821 381.941454 
L 117.021556 380.799296 
L 121.17829 379.399346 
L 125.335025 377.695976 
L 129.491759 375.638684 
L 133.648494 373.172366 
L 137.805228 370.2378 
L 141.961963 366.772413 
L 146.118697 362.711322 
L 150.275432 357.988708 
L 154.432166 352.539497 
L 158.588901 346.301371 
L 162.745635 339.217063 
L 166.90237 331.236916 
L 171.059104 322.321628 
L 175.215839 312.445114 
L 179.372573 301.597371 
L 183.529308 289.787238 
L 187.686042 277.04491 
L 191.842777 263.424078 
L 195.999511 249.003534 
L 200.156246 233.888124 
L 204.31298 218.208919 
L 208.469715 202.122504 
L 212.626449 185.809323 
L 216.783184 169.471045 
L 220.939918 153.326975 
L 225.096653 137.609553 
L 229.253387 122.559072 
L 233.410122 108.417748 
L 237.566856 95.423357 
L 241.723591 83.802649 
L 245.880325 73.764805 
L 250.03706 65.495194 
L 254.193794 59.149682 
L 258.350529 54.849752 
L 262.507263 52.678636 
L 266.663998 52.678636 
L 270.820732 54.849752 
L 274.977467 59.149682 
L 279.134201 65.495194 
L 283.290936 73.764805 
L 287.44767 83.802649 
L 291.604405 95.423357 
L 295.761139 108.417748 
L 299.917874 122.559072 
L 304.074608 137.609553 
L 308.231343 153.326975 
L 312.388077 169.471045 
L 316.544812 185.809323 
L 320.701546 202.122504 
L 324.858281 218.208919 
L 329.015015 233.888124 
L 333.17175 249.003534 
L 337.328484 263.424078 
L 341.485219 277.04491 
L 345.641953 289.787238 
L 349.798688 301.597371 
L 353.955422 312.445114 
L 358.112157 322.321628 
L 362.268891 331.236916 
L 366.425626 339.217063 
L 370.58236 346.301371 
L 374.739095 352.539497 
L 378.895829 357.988708 
L 383.052564 362.711322 
L 387.209298 366.772413 
L 391.366033 370.2378 
L 395.522767 373.172366 
L 399.679502 375.638684 
L 403.836236 377.695976 
L 407.992971 379.399346 
L 412.149705 380.799296 
L 416.30644 381.941454 
L 420.463174 382.866516 
L 424.619909 383.610328 
L 428.776643 384.204102 
L 432.933378 384.674709 
L 437.090112 385.04504 
L 441.246847 385.334393 
L 445.403581 385.558878 
L 449.560316 385.73181 
L 453.71705 385.864094 
L 457.873785 385.964575 
L 462.030519 386.040368 
L 466.187254 386.097141 
L 470.343989 386.139371 
" style="fill:none;stroke:#36a2eb;stroke-linecap:square;"/>
   </g>
   <g id="patch_3">
    <path d="M 36 402.93 
L 538.2 402.93 
" style="fill:none;stroke:#000000;stroke-linecap:square;stroke-linejoin:miter;stroke-width:0.8;"/>
   </g>
   <g id="legend_1">
    <g id="patch_4">
     <path d="M 410.290313 88.688125 
L 528.4 88.688125 
Q 531.2 88.688125 531.2 85.888125 
L 531.2 45.8 
Q 531.2 43 528.4 43 
L 410.290313 43 
Q 407.490313 43 407.490313 45.8 
L 407.490313 85.888125 
Q 407.490313 88.688125 410.290313 88.688125 
z
" style="fill:#ffffff;opacity:0.8;stroke:#cccccc;stroke-linejoin:miter;"/>
    </g>
    <g id="patch_5">
     <path d="M 413.090313 59.237813 
L 441.090313 59.237813 
L 441.090313 49.437813 
L 413.090313 49.437813 
z
" style="fill:#ff6384;opacity:0.5;stroke:#ff6384;stroke-linejoin:miter;"/>
    </g>
    <g id="text_1">
     <!-- base -->
     <defs>
      <path d="M 48.6875 27.296875 
Q 48.6875 37.203125 44.609375 42.84375 
Q 40.53125 48.484375 33.40625 48.484375 
Q 26.265625 48.484375 22.1875 42.84375 
Q 18.109375 37.203125 18.109375 27.296875 
Q 18.109375 17.390625 22.1875 11.75 
Q 26.265625 6.109375 33.40625 6.109375 
Q 40.53125 6.109375 44.609375 11.75 
Q 48.6875 17.390625 48.6875 27.296875 
z
M 18.109375 46.390625 
Q 20.953125 51.265625 25.265625 53.625 
Q 29.59375 56 35.59375 56 
Q 45.5625 56 51.78125 48.09375 
Q 58.015625 40.1875 58.015625 27.296875 
Q 58.015625 14.40625 51.78125 6.484375 
Q 45.5625 -1.421875 35.59375 -1.421875 
Q 29.59375 -1.421875 25.265625 0.953125 
Q 20.953125 3.328125 18.109375 8.203125 
L 18.109375 0 
L 9.078125 0 
L 9.078125 75.984375 
L 18.109375 75.984375 
z
" id="DejaVuSans-98"/>
      <path d="M 34.28125 27.484375 
Q 23.390625 27.484375 19.1875 25 
Q 14.984375 22.515625 14.984375 16.5 
Q 14.984375 11.71875 18.140625 8.90625 
Q 21.296875 6.109375 26.703125 6.109375 
Q 34.1875 6.109375 38.703125 11.40625 
Q 43.21875 16.703125 43.21875 25.484375 
L 43.21875 27.484375 
z
M 52.203125 31.203125 
L 52.203125 0 
L 43.21875 0 
L 43.21875 8.296875 
Q 40.140625 3.328125 35.546875 0.953125 
Q 30.953125 -1.421875 24.3125 -1.421875 
Q 15.921875 -1.421875 10.953125 3.296875 
Q 6 8.015625 6 15.921875 
Q 6 25.140625 12.171875 29.828125 
Q 18.359375 34.515625 30.609375 34.515625 
L 43.21875 34.515625 
L 43.21875 35.40625 
Q 43.21875 41.609375 39.140625 45 
Q 35.0625 48.390625 27.6875 48.390625 
Q 23 48.390625 18.546875 47.265625 
Q 14.109375 46.140625 10.015625 43.890625 
L 10.015625 52.203125 
Q 14.9375 54.109375 19.578125 55.046875 
Q 24.21875 56 28.609375 56 
Q 40.484375 56 46.34375 49.84375 
Q 52.203125 43.703125 52.203125 31.203125 
z
" id="DejaVuSans-97"/>
      <path d="M 44.28125 53.078125 
L 44.28125 44.578125 
Q 40.484375 46.53125 36.375 47.5 
Q 32.28125 48.484375 27.875 48.484375 
Q 21.1875 48.484375 17.84375 46.4375 
Q 14.5 44.390625 14.5 40.28125 
Q 14.5 37.15625 16.890625 35.375 
Q 19.28125 33.59375 26.515625 31.984375 
L 29.59375 31.296875 
Q 39.15625 29.25 43.1875 25.515625 
Q 47.21875 21.78125 47.21875 15.09375 
Q 47.21875 7.46875 41.1875 3.015625 
Q 35.15625 -1.421875 24.609375 -1.421875 
Q 20.21875 -1.421875 15.453125 -0.5625 
Q 10.6875 0.296875 5.421875 2 
L 5.421875 11.28125 
Q 10.40625 8.6875 15.234375 7.390625 
Q 20.0625 6.109375 24.8125 6.109375 
Q 31.15625 6.109375 34.5625 8.28125 
Q 37.984375 10.453125 37.984375 14.40625 
Q 37.984375 18.0625 35.515625 20.015625 
Q 33.0625 21.96875 24.703125 23.78125 
L 21.578125 24.515625 
Q 13.234375 26.265625 9.515625 29.90625 
Q 5.8125 33.546875 5.8125 39.890625 
Q 5.8125 47.609375 11.28125 51.796875 
Q 16.75 56 26.8125 56 
Q 31.78125 56 36.171875 55.265625 
Q 40.578125 54.546875 44.28125 53.078125 
z
" id="DejaVuSans-115"/>
      <path d="M 56.203125 29.59375 
L 56.203125 25.203125 
L 14.890625 25.203125 
Q 15.484375 15.921875 20.484375 11.0625 
Q 25.484375 6.203125 34.421875 6.203125 
Q 39.59375 6.203125 44.453125 7.46875 
Q 49.3125 8.734375 54.109375 11.28125 
L 54.109375 2.78125 
Q 49.265625 0.734375 44.1875 -0.34375 
Q 39.109375 -1.421875 33.890625 -1.421875 
Q 20.796875 -1.421875 13.15625 6.1875 
Q 5.515625 13.8125 5.515625 26.8125 
Q 5.515625 40.234375 12.765625 48.109375 
Q 20.015625 56 32.328125 56 
Q 43.359375 56 49.78125 48.890625 
Q 56.203125 41.796875 56.203125 29.59375 
z
M 47.21875 32.234375 
Q 47.125 39.59375 43.09375 43.984375 
Q 39.0625 48.390625 32.421875 48.390625 
Q 24.90625 48.390625 20.390625 44.140625 
Q 15.875 39.890625 15.1875 32.171875 
z
" id="DejaVuSans-101"/>
     </defs>
     <g transform="translate(452.290313 59.237813)scale(0.14 -0.14)">
      <use xlink:href="#DejaVuSans-98"/>
      <use x="63.476562" xlink:href="#DejaVuSans-97"/>
      <use x="124.755859" xlink:href="#DejaVuSans-115"/>
      <use x="176.855469" xlink:href="#DejaVuSans-101"/>
     </g>
    </g>
    <g id="patch_6">
     <path d="M 413.090313 79.787188 
L 441.090313 79.787188 
L 441.090313 69.987188 
L 413.090313 69.987188 
z
" style="fill:#36a2eb;opacity:0.5;stroke:#36a2eb;stroke-linejoin:miter;"/>
    </g>
    <g id="text_2">
     <!-- no_license -->
     <defs>
      <path d="M 54.890625 33.015625 
L 54.890625 0 
L 45.90625 0 
L 45.90625 32.71875 
Q 45.90625 40.484375 42.875 44.328125 
Q 39.84375 48.1875 33.796875 48.1875 
Q 26.515625 48.1875 22.3125 43.546875 
Q 18.109375 38.921875 18.109375 30.90625 
L 18.109375 0 
L 9.078125 0 
L 9.078125 54.6875 
L 18.109375 54.6875 
L 18.109375 46.1875 
Q 21.34375 51.125 25.703125 53.5625 
Q 30.078125 56 35.796875 56 
Q 45.21875 56 50.046875 50.171875 
Q 54.890625 44.34375 54.890625 33.015625 
z
" id="DejaVuSans-110"/>
      <path d="M 30.609375 48.390625 
Q 23.390625 48.390625 19.1875 42.75 
Q 14.984375 37.109375 14.984375 27.296875 
Q 14.984375 17.484375 19.15625 11.84375 
Q 23.34375 6.203125 30.609375 6.203125 
Q 37.796875 6.203125 41.984375 11.859375 
Q 46.1875 17.53125 46.1875 27.296875 
Q 46.1875 37.015625 41.984375 42.703125 
Q 37.796875 48.390625 30.609375 48.390625 
z
M 30.609375 56 
Q 42.328125 56 49.015625 48.375 
Q 55.71875 40.765625 55.71875 27.296875 
Q 55.71875 13.875 49.015625 6.21875 
Q 42.328125 -1.421875 30.609375 -1.421875 
Q 18.84375 -1.421875 12.171875 6.21875 
Q 5.515625 13.875 5.515625 27.296875 
Q 5.515625 40.765625 12.171875 48.375 
Q 18.84375 56 30.609375 56 
z
" id="DejaVuSans-111"/>
      <path d="M 50.984375 -16.609375 
L 50.984375 -23.578125 
L -0.984375 -23.578125 
L -0.984375 -16.609375 
z
" id="DejaVuSans-95"/>
      <path d="M 9.421875 75.984375 
L 18.40625 75.984375 
L 18.40625 0 
L 9.421875 0 
z
" id="DejaVuSans-108"/>
      <path d="M 9.421875 54.6875 
L 18.40625 54.6875 
L 18.40625 0 
L 9.421875 0 
z
M 9.421875 75.984375 
L 18.40625 75.984375 
L 18.40625 64.59375 
L 9.421875 64.59375 
z
" id="DejaVuSans-105"/>
      <path d="M 48.78125 52.59375 
L 48.78125 44.1875 
Q 44.96875 46.296875 41.140625 47.34375 
Q 37.3125 48.390625 33.40625 48.390625 
Q 24.65625 48.390625 19.8125 42.84375 
Q 14.984375 37.3125 14.984375 27.296875 
Q 14.984375 17.28125 19.8125 11.734375 
Q 24.65625 6.203125 33.40625 6.203125 
Q 37.3125 6.203125 41.140625 7.25 
Q 44.96875 8.296875 48.78125 10.40625 
L 48.78125 2.09375 
Q 45.015625 0.34375 40.984375 -0.53125 
Q 36.96875 -1.421875 32.421875 -1.421875 
Q 20.0625 -1.421875 12.78125 6.34375 
Q 5.515625 14.109375 5.515625 27.296875 
Q 5.515625 40.671875 12.859375 48.328125 
Q 20.21875 56 33.015625 56 
Q 37.15625 56 41.109375 55.140625 
Q 45.0625 54.296875 48.78125 52.59375 
z
" id="DejaVuSans-99"/>
     </defs>
     <g transform="translate(452.290313 79.787188)scale(0.14 -0.14)">
      <use xlink:href="#DejaVuSans-110"/>
      <use x="63.378906" xlink:href="#DejaVuSans-111"/>
      <use x="124.560547" xlink:href="#DejaVuSans-95"/>
      <use x="174.560547" xlink:href="#DejaVuSans-108"/>
      <use x="202.34375" xlink:href="#DejaVuSans-105"/>
      <use x="230.126953" xlink:href="#DejaVuSans-99"/>
      <use x="285.107422" xlink:href="#DejaVuSans-101"/>
      <use x="346.630859" xlink:href="#DejaVuSans-110"/>
      <use x="410.009766" xlink:href="#DejaVuSans-115"/>
      <use x="462.109375" xlink:href="#DejaVuSans-101"/>
     </g>
    </g>
   </g>
  </g>
  <g id="axes_2">
   <g id="patch_7">
    <path d="M 36 525.24 
L 538.2 525.24 
L 538.2 402.93 
L 36 402.93 
z
" style="fill:none;"/>
   </g>
   <g id="patch_8">
    <path clip-path="url(#p717de88787)" d="M 207.424606 519.680455 
L 409.967666 519.680455 
L 409.967666 482.616818 
L 207.424606 482.616818 
z
" style="fill:#ff6384;opacity:0.5;"/>
   </g>
   <g id="patch_9">
    <path clip-path="url(#p717de88787)" d="M 163.764035 445.553182 
L 365.407226 445.553182 
L 365.407226 408.489545 
L 163.764035 408.489545 
z
" style="fill:#36a2eb;opacity:0.5;"/>
   </g>
   <g id="matplotlib.axis_1">
    <g id="xtick_1">
     <g id="line2d_3">
      <defs>
       <path d="M 0 0 
L 0 3.5 
" id="m5c016730a8" style="stroke:#000000;stroke-width:0.8;"/>
      </defs>
      <g>
       <use style="stroke:#000000;stroke-width:0.8;" x="116.374332" xlink:href="#m5c016730a8" y="525.24"/>
      </g>
     </g>
     <g id="text_3">
      <!-- 6.5 -->
      <defs>
       <path d="M 33.015625 40.375 
Q 26.375 40.375 22.484375 35.828125 
Q 18.609375 31.296875 18.609375 23.390625 
Q 18.609375 15.53125 22.484375 10.953125 
Q 26.375 6.390625 33.015625 6.390625 
Q 39.65625 6.390625 43.53125 10.953125 
Q 47.40625 15.53125 47.40625 23.390625 
Q 47.40625 31.296875 43.53125 35.828125 
Q 39.65625 40.375 33.015625 40.375 
z
M 52.59375 71.296875 
L 52.59375 62.3125 
Q 48.875 64.0625 45.09375 64.984375 
Q 41.3125 65.921875 37.59375 65.921875 
Q 27.828125 65.921875 22.671875 59.328125 
Q 17.53125 52.734375 16.796875 39.40625 
Q 19.671875 43.65625 24.015625 45.921875 
Q 28.375 48.1875 33.59375 48.1875 
Q 44.578125 48.1875 50.953125 41.515625 
Q 57.328125 34.859375 57.328125 23.390625 
Q 57.328125 12.15625 50.6875 5.359375 
Q 44.046875 -1.421875 33.015625 -1.421875 
Q 20.359375 -1.421875 13.671875 8.265625 
Q 6.984375 17.96875 6.984375 36.375 
Q 6.984375 53.65625 15.1875 63.9375 
Q 23.390625 74.21875 37.203125 74.21875 
Q 40.921875 74.21875 44.703125 73.484375 
Q 48.484375 72.75 52.59375 71.296875 
z
" id="DejaVuSans-54"/>
       <path d="M 10.6875 12.40625 
L 21 12.40625 
L 21 0 
L 10.6875 0 
z
" id="DejaVuSans-46"/>
       <path d="M 10.796875 72.90625 
L 49.515625 72.90625 
L 49.515625 64.59375 
L 19.828125 64.59375 
L 19.828125 46.734375 
Q 21.96875 47.46875 24.109375 47.828125 
Q 26.265625 48.1875 28.421875 48.1875 
Q 40.625 48.1875 47.75 41.5 
Q 54.890625 34.8125 54.890625 23.390625 
Q 54.890625 11.625 47.5625 5.09375 
Q 40.234375 -1.421875 26.90625 -1.421875 
Q 22.3125 -1.421875 17.546875 -0.640625 
Q 12.796875 0.140625 7.71875 1.703125 
L 7.71875 11.625 
Q 12.109375 9.234375 16.796875 8.0625 
Q 21.484375 6.890625 26.703125 6.890625 
Q 35.15625 6.890625 40.078125 11.328125 
Q 45.015625 15.765625 45.015625 23.390625 
Q 45.015625 31 40.078125 35.4375 
Q 35.15625 39.890625 26.703125 39.890625 
Q 22.75 39.890625 18.8125 39.015625 
Q 14.890625 38.140625 10.796875 36.28125 
z
" id="DejaVuSans-53"/>
      </defs>
      <g transform="translate(105.242145 542.877813)scale(0.14 -0.14)">
       <use xlink:href="#DejaVuSans-54"/>
       <use x="63.623047" xlink:href="#DejaVuSans-46"/>
       <use x="95.410156" xlink:href="#DejaVuSans-53"/>
      </g>
     </g>
    </g>
    <g id="xtick_2">
     <g id="line2d_4">
      <g>
       <use style="stroke:#000000;stroke-width:0.8;" x="204.595343" xlink:href="#m5c016730a8" y="525.24"/>
      </g>
     </g>
     <g id="text_4">
      <!-- 7.0 -->
      <defs>
       <path d="M 8.203125 72.90625 
L 55.078125 72.90625 
L 55.078125 68.703125 
L 28.609375 0 
L 18.3125 0 
L 43.21875 64.59375 
L 8.203125 64.59375 
z
" id="DejaVuSans-55"/>
       <path d="M 31.78125 66.40625 
Q 24.171875 66.40625 20.328125 58.90625 
Q 16.5 51.421875 16.5 36.375 
Q 16.5 21.390625 20.328125 13.890625 
Q 24.171875 6.390625 31.78125 6.390625 
Q 39.453125 6.390625 43.28125 13.890625 
Q 47.125 21.390625 47.125 36.375 
Q 47.125 51.421875 43.28125 58.90625 
Q 39.453125 66.40625 31.78125 66.40625 
z
M 31.78125 74.21875 
Q 44.046875 74.21875 50.515625 64.515625 
Q 56.984375 54.828125 56.984375 36.375 
Q 56.984375 17.96875 50.515625 8.265625 
Q 44.046875 -1.421875 31.78125 -1.421875 
Q 19.53125 -1.421875 13.0625 8.265625 
Q 6.59375 17.96875 6.59375 36.375 
Q 6.59375 54.828125 13.0625 64.515625 
Q 19.53125 74.21875 31.78125 74.21875 
z
" id="DejaVuSans-48"/>
      </defs>
      <g transform="translate(193.463156 542.877813)scale(0.14 -0.14)">
       <use xlink:href="#DejaVuSans-55"/>
       <use x="63.623047" xlink:href="#DejaVuSans-46"/>
       <use x="95.410156" xlink:href="#DejaVuSans-48"/>
      </g>
     </g>
    </g>
    <g id="xtick_3">
     <g id="line2d_5">
      <g>
       <use style="stroke:#000000;stroke-width:0.8;" x="292.816354" xlink:href="#m5c016730a8" y="525.24"/>
      </g>
     </g>
     <g id="text_5">
      <!-- 7.5 -->
      <g transform="translate(281.684167 542.877813)scale(0.14 -0.14)">
       <use xlink:href="#DejaVuSans-55"/>
       <use x="63.623047" xlink:href="#DejaVuSans-46"/>
       <use x="95.410156" xlink:href="#DejaVuSans-53"/>
      </g>
     </g>
    </g>
    <g id="xtick_4">
     <g id="line2d_6">
      <g>
       <use style="stroke:#000000;stroke-width:0.8;" x="381.037365" xlink:href="#m5c016730a8" y="525.24"/>
      </g>
     </g>
     <g id="text_6">
      <!-- 8.0 -->
      <defs>
       <path d="M 31.78125 34.625 
Q 24.75 34.625 20.71875 30.859375 
Q 16.703125 27.09375 16.703125 20.515625 
Q 16.703125 13.921875 20.71875 10.15625 
Q 24.75 6.390625 31.78125 6.390625 
Q 38.8125 6.390625 42.859375 10.171875 
Q 46.921875 13.96875 46.921875 20.515625 
Q 46.921875 27.09375 42.890625 30.859375 
Q 38.875 34.625 31.78125 34.625 
z
M 21.921875 38.8125 
Q 15.578125 40.375 12.03125 44.71875 
Q 8.5 49.078125 8.5 55.328125 
Q 8.5 64.0625 14.71875 69.140625 
Q 20.953125 74.21875 31.78125 74.21875 
Q 42.671875 74.21875 48.875 69.140625 
Q 55.078125 64.0625 55.078125 55.328125 
Q 55.078125 49.078125 51.53125 44.71875 
Q 48 40.375 41.703125 38.8125 
Q 48.828125 37.15625 52.796875 32.3125 
Q 56.78125 27.484375 56.78125 20.515625 
Q 56.78125 9.90625 50.3125 4.234375 
Q 43.84375 -1.421875 31.78125 -1.421875 
Q 19.734375 -1.421875 13.25 4.234375 
Q 6.78125 9.90625 6.78125 20.515625 
Q 6.78125 27.484375 10.78125 32.3125 
Q 14.796875 37.15625 21.921875 38.8125 
z
M 18.3125 54.390625 
Q 18.3125 48.734375 21.84375 45.5625 
Q 25.390625 42.390625 31.78125 42.390625 
Q 38.140625 42.390625 41.71875 45.5625 
Q 45.3125 48.734375 45.3125 54.390625 
Q 45.3125 60.0625 41.71875 63.234375 
Q 38.140625 66.40625 31.78125 66.40625 
Q 25.390625 66.40625 21.84375 63.234375 
Q 18.3125 60.0625 18.3125 54.390625 
z
" id="DejaVuSans-56"/>
      </defs>
      <g transform="translate(369.905178 542.877813)scale(0.14 -0.14)">
       <use xlink:href="#DejaVuSans-56"/>
       <use x="63.623047" xlink:href="#DejaVuSans-46"/>
       <use x="95.410156" xlink:href="#DejaVuSans-48"/>
      </g>
     </g>
    </g>
    <g id="xtick_5">
     <g id="line2d_7">
      <g>
       <use style="stroke:#000000;stroke-width:0.8;" x="469.258376" xlink:href="#m5c016730a8" y="525.24"/>
      </g>
     </g>
     <g id="text_7">
      <!-- 8.5 -->
      <g transform="translate(458.126189 542.877813)scale(0.14 -0.14)">
       <use xlink:href="#DejaVuSans-56"/>
       <use x="63.623047" xlink:href="#DejaVuSans-46"/>
       <use x="95.410156" xlink:href="#DejaVuSans-53"/>
      </g>
     </g>
    </g>
   </g>
   <g id="line2d_8">
    <path clip-path="url(#p717de88787)" d="M 308.696136 525.24 
L 308.696136 402.93 
" style="fill:none;stroke:#ff6384;stroke-dasharray:5.55,2.4;stroke-dashoffset:0;stroke-opacity:0.8;stroke-width:1.5;"/>
   </g>
   <g id="line2d_9">
    <path clip-path="url(#p717de88787)" d="M 264.585631 525.24 
L 264.585631 402.93 
" style="fill:none;stroke:#36a2eb;stroke-dasharray:5.55,2.4;stroke-dashoffset:0;stroke-opacity:0.8;stroke-width:1.5;"/>
   </g>
   <g id="patch_10">
    <path d="M 36 525.24 
L 538.2 525.24 
" style="fill:none;stroke:#000000;stroke-linecap:square;stroke-linejoin:miter;stroke-width:0.8;"/>
   </g>
  </g>
 </g>
 <defs>
  <clipPath id="pe7b8f15e72">
   <rect height="366.93" width="502.2" x="36" y="36"/>
  </clipPath>
  <clipPath id="p717de88787">
   <rect height="122.31" width="502.2" x="36" y="402.93"/>
  </clipPath>
 </defs>
</svg>
