<?xml version="1.0" encoding="utf-8" standalone="no"?>
<!DOCTYPE svg PUBLIC "-//W3C//DTD SVG 1.1//EN"
  "http://www.w3.org/Graphics/SVG/1.1/DTD/svg11.dtd">
<!-- Created with matplotlib (https://matplotlib.org/) -->
<svg height="581.789375pt" version="1.1" viewBox="0 0 574.2 581.789375" width="574.2pt" xmlns="http://www.w3.org/2000/svg" xmlns:xlink="http://www.w3.org/1999/xlink">
 <defs>
  <style type="text/css">
*{stroke-linecap:butt;stroke-linejoin:round;}
  </style>
 </defs>
 <g id="figure_1">
  <g id="patch_1">
   <path d="M 0 581.789375 
L 574.2 581.789375 
L 574.2 0 
L 0 0 
z
" style="fill:none;"/>
  </g>
  <g id="axes_1">
   <g id="patch_2">
    <path d="M 36 402.93 
L 538.2 402.93 
L 538.2 36 
L 36 36 
z
" style="fill:none;"/>
   </g>
   <g id="PolyCollection_1">
    <defs>
     <path d="M 100.494198 -195.538011 
L 100.494198 -195.649551 
L 104.68489 -195.691611 
L 108.875582 -195.748154 
L 113.066274 -195.823641 
L 117.256966 -195.923716 
L 121.447659 -196.055465 
L 125.638351 -196.227698 
L 129.829043 -196.451275 
L 134.019735 -196.739459 
L 138.210428 -197.108293 
L 142.40112 -197.576998 
L 146.591812 -198.168372 
L 150.782504 -198.909178 
L 154.973196 -199.830501 
L 159.163889 -200.968043 
L 163.354581 -202.362334 
L 167.545273 -204.05882 
L 171.735965 -206.107796 
L 175.926658 -208.564146 
L 180.11735 -211.486851 
L 184.308042 -214.938232 
L 188.498734 -218.982908 
L 192.689426 -223.686435 
L 196.880119 -229.11362 
L 201.070811 -235.326533 
L 205.261503 -242.382208 
L 209.452195 -250.330101 
L 213.642887 -259.209354 
L 217.83358 -269.045949 
L 222.024272 -279.849847 
L 226.214964 -291.612247 
L 230.405656 -304.303072 
L 234.596349 -317.868851 
L 238.787041 -332.23111 
L 242.977733 -347.285426 
L 247.168425 -362.901258 
L 251.359117 -378.922654 
L 255.54981 -395.169901 
L 259.740502 -411.442142 
L 263.931194 -427.520961 
L 268.121886 -443.174855 
L 272.312579 -458.164505 
L 276.503271 -472.248672 
L 280.693963 -485.190543 
L 284.884655 -496.764282 
L 289.075347 -506.761554 
L 293.26604 -514.997741 
L 297.456732 -521.317606 
L 301.647424 -525.600156 
L 305.838116 -527.762497 
L 310.028809 -527.762497 
L 314.219501 -525.600156 
L 318.410193 -521.317606 
L 322.600885 -514.997741 
L 326.791577 -506.761554 
L 330.98227 -496.764282 
L 335.172962 -485.190543 
L 339.363654 -472.248672 
L 343.554346 -458.164505 
L 347.745038 -443.174855 
L 351.935731 -427.520961 
L 356.126423 -411.442142 
L 360.317115 -395.169901 
L 364.507807 -378.922654 
L 368.6985 -362.901258 
L 372.889192 -347.285426 
L 377.079884 -332.23111 
L 381.270576 -317.868851 
L 385.461268 -304.303072 
L 389.651961 -291.612247 
L 393.842653 -279.849847 
L 398.033345 -269.045949 
L 402.224037 -259.209354 
L 406.41473 -250.330101 
L 410.605422 -242.382208 
L 414.796114 -235.326533 
L 418.986806 -229.11362 
L 423.177498 -223.686435 
L 427.368191 -218.982908 
L 431.558883 -214.938232 
L 435.749575 -211.486851 
L 439.940267 -208.564146 
L 444.13096 -206.107796 
L 448.321652 -204.05882 
L 452.512344 -202.362334 
L 456.703036 -200.968043 
L 460.893728 -199.830501 
L 465.084421 -198.909178 
L 469.275113 -198.168372 
L 473.465805 -197.576998 
L 477.656497 -197.108293 
L 481.84719 -196.739459 
L 486.037882 -196.451275 
L 490.228574 -196.227698 
L 494.419266 -196.055465 
L 498.609958 -195.923716 
L 502.800651 -195.823641 
L 506.991343 -195.748154 
L 511.182035 -195.691611 
L 515.372727 -195.649551 
L 515.372727 -195.538011 
L 515.372727 -195.538011 
L 511.182035 -195.538011 
L 506.991343 -195.538011 
L 502.800651 -195.538011 
L 498.609958 -195.538011 
L 494.419266 -195.538011 
L 490.228574 -195.538011 
L 486.037882 -195.538011 
L 481.84719 -195.538011 
L 477.656497 -195.538011 
L 473.465805 -195.538011 
L 469.275113 -195.538011 
L 465.084421 -195.538011 
L 460.893728 -195.538011 
L 456.703036 -195.538011 
L 452.512344 -195.538011 
L 448.321652 -195.538011 
L 444.13096 -195.538011 
L 439.940267 -195.538011 
L 435.749575 -195.538011 
L 431.558883 -195.538011 
L 427.368191 -195.538011 
L 423.177498 -195.538011 
L 418.986806 -195.538011 
L 414.796114 -195.538011 
L 410.605422 -195.538011 
L 406.41473 -195.538011 
L 402.224037 -195.538011 
L 398.033345 -195.538011 
L 393.842653 -195.538011 
L 389.651961 -195.538011 
L 385.461268 -195.538011 
L 381.270576 -195.538011 
L 377.079884 -195.538011 
L 372.889192 -195.538011 
L 368.6985 -195.538011 
L 364.507807 -195.538011 
L 360.317115 -195.538011 
L 356.126423 -195.538011 
L 351.935731 -195.538011 
L 347.745038 -195.538011 
L 343.554346 -195.538011 
L 339.363654 -195.538011 
L 335.172962 -195.538011 
L 330.98227 -195.538011 
L 326.791577 -195.538011 
L 322.600885 -195.538011 
L 318.410193 -195.538011 
L 314.219501 -195.538011 
L 310.028809 -195.538011 
L 305.838116 -195.538011 
L 301.647424 -195.538011 
L 297.456732 -195.538011 
L 293.26604 -195.538011 
L 289.075347 -195.538011 
L 284.884655 -195.538011 
L 280.693963 -195.538011 
L 276.503271 -195.538011 
L 272.312579 -195.538011 
L 268.121886 -195.538011 
L 263.931194 -195.538011 
L 259.740502 -195.538011 
L 255.54981 -195.538011 
L 251.359117 -195.538011 
L 247.168425 -195.538011 
L 242.977733 -195.538011 
L 238.787041 -195.538011 
L 234.596349 -195.538011 
L 230.405656 -195.538011 
L 226.214964 -195.538011 
L 222.024272 -195.538011 
L 217.83358 -195.538011 
L 213.642887 -195.538011 
L 209.452195 -195.538011 
L 205.261503 -195.538011 
L 201.070811 -195.538011 
L 196.880119 -195.538011 
L 192.689426 -195.538011 
L 188.498734 -195.538011 
L 184.308042 -195.538011 
L 180.11735 -195.538011 
L 175.926658 -195.538011 
L 171.735965 -195.538011 
L 167.545273 -195.538011 
L 163.354581 -195.538011 
L 159.163889 -195.538011 
L 154.973196 -195.538011 
L 150.782504 -195.538011 
L 146.591812 -195.538011 
L 142.40112 -195.538011 
L 138.210428 -195.538011 
L 134.019735 -195.538011 
L 129.829043 -195.538011 
L 125.638351 -195.538011 
L 121.447659 -195.538011 
L 117.256966 -195.538011 
L 113.066274 -195.538011 
L 108.875582 -195.538011 
L 104.68489 -195.538011 
L 100.494198 -195.538011 
z
" id="mb89b077b3c" style="stroke:#ff6384;stroke-opacity:0.5;"/>
    </defs>
    <g clip-path="url(#p4b93926ba7)">
     <use style="fill:#ff6384;fill-opacity:0.5;stroke:#ff6384;stroke-opacity:0.5;" x="0" xlink:href="#mb89b077b3c" y="581.789375"/>
    </g>
   </g>
   <g id="PolyCollection_2">
    <defs>
     <path d="M 58.827273 -195.538011 
L 58.827273 -195.650004 
L 63.001027 -195.692234 
L 67.174781 -195.749007 
L 71.348535 -195.8248 
L 75.522289 -195.925281 
L 79.696044 -196.057565 
L 83.869798 -196.230497 
L 88.043552 -196.454982 
L 92.217306 -196.744335 
L 96.39106 -197.114666 
L 100.564815 -197.585273 
L 104.738569 -198.179047 
L 108.912323 -198.922859 
L 113.086077 -199.847921 
L 117.259831 -200.990079 
L 121.433585 -202.390029 
L 125.60734 -204.093399 
L 129.781094 -206.150691 
L 133.954848 -208.617009 
L 138.128602 -211.551575 
L 142.302356 -215.016962 
L 146.476111 -219.078053 
L 150.649865 -223.800667 
L 154.823619 -229.249878 
L 158.997373 -235.488004 
L 163.171127 -242.572312 
L 167.344881 -250.552459 
L 171.518636 -259.467747 
L 175.69239 -269.344261 
L 179.866144 -280.192004 
L 184.039898 -292.002137 
L 188.213652 -304.744465 
L 192.387407 -318.365297 
L 196.561161 -332.785841 
L 200.734915 -347.901251 
L 204.908669 -363.580456 
L 209.082423 -379.666871 
L 213.256178 -395.980052 
L 217.429932 -412.31833 
L 221.603686 -428.4624 
L 225.77744 -444.179822 
L 229.951194 -459.230303 
L 234.124948 -473.371627 
L 238.298703 -486.366018 
L 242.472457 -497.986726 
L 246.646211 -508.02457 
L 250.819965 -516.294181 
L 254.993719 -522.639693 
L 259.167474 -526.939623 
L 263.341228 -529.110739 
L 267.514982 -529.110739 
L 271.688736 -526.939623 
L 275.86249 -522.639693 
L 280.036244 -516.294181 
L 284.209999 -508.02457 
L 288.383753 -497.986726 
L 292.557507 -486.366018 
L 296.731261 -473.371627 
L 300.905015 -459.230303 
L 305.07877 -444.179822 
L 309.252524 -428.4624 
L 313.426278 -412.31833 
L 317.600032 -395.980052 
L 321.773786 -379.666871 
L 325.94754 -363.580456 
L 330.121295 -347.901251 
L 334.295049 -332.785841 
L 338.468803 -318.365297 
L 342.642557 -304.744465 
L 346.816311 -292.002137 
L 350.990066 -280.192004 
L 355.16382 -269.344261 
L 359.337574 -259.467747 
L 363.511328 -250.552459 
L 367.685082 -242.572312 
L 371.858836 -235.488004 
L 376.032591 -229.249878 
L 380.206345 -223.800667 
L 384.380099 -219.078053 
L 388.553853 -215.016962 
L 392.727607 -211.551575 
L 396.901362 -208.617009 
L 401.075116 -206.150691 
L 405.24887 -204.093399 
L 409.422624 -202.390029 
L 413.596378 -200.990079 
L 417.770132 -199.847921 
L 421.943887 -198.922859 
L 426.117641 -198.179047 
L 430.291395 -197.585273 
L 434.465149 -197.114666 
L 438.638903 -196.744335 
L 442.812658 -196.454982 
L 446.986412 -196.230497 
L 451.160166 -196.057565 
L 455.33392 -195.925281 
L 459.507674 -195.8248 
L 463.681428 -195.749007 
L 467.855183 -195.692234 
L 472.028937 -195.650004 
L 472.028937 -195.538011 
L 472.028937 -195.538011 
L 467.855183 -195.538011 
L 463.681428 -195.538011 
L 459.507674 -195.538011 
L 455.33392 -195.538011 
L 451.160166 -195.538011 
L 446.986412 -195.538011 
L 442.812658 -195.538011 
L 438.638903 -195.538011 
L 434.465149 -195.538011 
L 430.291395 -195.538011 
L 426.117641 -195.538011 
L 421.943887 -195.538011 
L 417.770132 -195.538011 
L 413.596378 -195.538011 
L 409.422624 -195.538011 
L 405.24887 -195.538011 
L 401.075116 -195.538011 
L 396.901362 -195.538011 
L 392.727607 -195.538011 
L 388.553853 -195.538011 
L 384.380099 -195.538011 
L 380.206345 -195.538011 
L 376.032591 -195.538011 
L 371.858836 -195.538011 
L 367.685082 -195.538011 
L 363.511328 -195.538011 
L 359.337574 -195.538011 
L 355.16382 -195.538011 
L 350.990066 -195.538011 
L 346.816311 -195.538011 
L 342.642557 -195.538011 
L 338.468803 -195.538011 
L 334.295049 -195.538011 
L 330.121295 -195.538011 
L 325.94754 -195.538011 
L 321.773786 -195.538011 
L 317.600032 -195.538011 
L 313.426278 -195.538011 
L 309.252524 -195.538011 
L 305.07877 -195.538011 
L 300.905015 -195.538011 
L 296.731261 -195.538011 
L 292.557507 -195.538011 
L 288.383753 -195.538011 
L 284.209999 -195.538011 
L 280.036244 -195.538011 
L 275.86249 -195.538011 
L 271.688736 -195.538011 
L 267.514982 -195.538011 
L 263.341228 -195.538011 
L 259.167474 -195.538011 
L 254.993719 -195.538011 
L 250.819965 -195.538011 
L 246.646211 -195.538011 
L 242.472457 -195.538011 
L 238.298703 -195.538011 
L 234.124948 -195.538011 
L 229.951194 -195.538011 
L 225.77744 -195.538011 
L 221.603686 -195.538011 
L 217.429932 -195.538011 
L 213.256178 -195.538011 
L 209.082423 -195.538011 
L 204.908669 -195.538011 
L 200.734915 -195.538011 
L 196.561161 -195.538011 
L 192.387407 -195.538011 
L 188.213652 -195.538011 
L 184.039898 -195.538011 
L 179.866144 -195.538011 
L 175.69239 -195.538011 
L 171.518636 -195.538011 
L 167.344881 -195.538011 
L 163.171127 -195.538011 
L 158.997373 -195.538011 
L 154.823619 -195.538011 
L 150.649865 -195.538011 
L 146.476111 -195.538011 
L 142.302356 -195.538011 
L 138.128602 -195.538011 
L 133.954848 -195.538011 
L 129.781094 -195.538011 
L 125.60734 -195.538011 
L 121.433585 -195.538011 
L 117.259831 -195.538011 
L 113.086077 -195.538011 
L 108.912323 -195.538011 
L 104.738569 -195.538011 
L 100.564815 -195.538011 
L 96.39106 -195.538011 
L 92.217306 -195.538011 
L 88.043552 -195.538011 
L 83.869798 -195.538011 
L 79.696044 -195.538011 
L 75.522289 -195.538011 
L 71.348535 -195.538011 
L 67.174781 -195.538011 
L 63.001027 -195.538011 
L 58.827273 -195.538011 
z
" id="maaba5bbae0" style="stroke:#36a2eb;stroke-opacity:0.5;"/>
    </defs>
    <g clip-path="url(#p4b93926ba7)">
     <use style="fill:#36a2eb;fill-opacity:0.5;stroke:#36a2eb;stroke-opacity:0.5;" x="0" xlink:href="#maaba5bbae0" y="581.789375"/>
    </g>
   </g>
   <g id="line2d_1">
    <path clip-path="url(#p4b93926ba7)" d="M 100.494198 386.139824 
L 104.68489 386.097764 
L 108.875582 386.041221 
L 113.066274 385.965734 
L 117.256966 385.865659 
L 121.447659 385.73391 
L 125.638351 385.561677 
L 129.829043 385.3381 
L 134.019735 385.049916 
L 138.210428 384.681082 
L 142.40112 384.212377 
L 146.591812 383.621003 
L 150.782504 382.880197 
L 154.973196 381.958874 
L 159.163889 380.821332 
L 163.354581 379.427041 
L 167.545273 377.730555 
L 171.735965 375.681579 
L 175.926658 373.225229 
L 180.11735 370.302524 
L 184.308042 366.851143 
L 188.498734 362.806467 
L 192.689426 358.10294 
L 196.880119 352.675755 
L 201.070811 346.462842 
L 205.261503 339.407167 
L 209.452195 331.459274 
L 213.642887 322.580021 
L 217.83358 312.743426 
L 222.024272 301.939528 
L 226.214964 290.177128 
L 230.405656 277.486303 
L 234.596349 263.920524 
L 238.787041 249.558265 
L 242.977733 234.503949 
L 247.168425 218.888117 
L 251.359117 202.866721 
L 255.54981 186.619474 
L 259.740502 170.347233 
L 263.931194 154.268414 
L 268.121886 138.61452 
L 272.312579 123.62487 
L 276.503271 109.540703 
L 280.693963 96.598832 
L 284.884655 85.025093 
L 289.075347 75.027821 
L 293.26604 66.791634 
L 297.456732 60.471769 
L 301.647424 56.189219 
L 305.838116 54.026878 
L 310.028809 54.026878 
L 314.219501 56.189219 
L 318.410193 60.471769 
L 322.600885 66.791634 
L 326.791577 75.027821 
L 330.98227 85.025093 
L 335.172962 96.598832 
L 339.363654 109.540703 
L 343.554346 123.62487 
L 347.745038 138.61452 
L 351.935731 154.268414 
L 356.126423 170.347233 
L 360.317115 186.619474 
L 364.507807 202.866721 
L 368.6985 218.888117 
L 372.889192 234.503949 
L 377.079884 249.558265 
L 381.270576 263.920524 
L 385.461268 277.486303 
L 389.651961 290.177128 
L 393.842653 301.939528 
L 398.033345 312.743426 
L 402.224037 322.580021 
L 406.41473 331.459274 
L 410.605422 339.407167 
L 414.796114 346.462842 
L 418.986806 352.675755 
L 423.177498 358.10294 
L 427.368191 362.806467 
L 431.558883 366.851143 
L 435.749575 370.302524 
L 439.940267 373.225229 
L 444.13096 375.681579 
L 448.321652 377.730555 
L 452.512344 379.427041 
L 456.703036 380.821332 
L 460.893728 381.958874 
L 465.084421 382.880197 
L 469.275113 383.621003 
L 473.465805 384.212377 
L 477.656497 384.681082 
L 481.84719 385.049916 
L 486.037882 385.3381 
L 490.228574 385.561677 
L 494.419266 385.73391 
L 498.609958 385.865659 
L 502.800651 385.965734 
L 506.991343 386.041221 
L 511.182035 386.097764 
L 515.372727 386.139824 
" style="fill:none;stroke:#ff6384;stroke-linecap:square;"/>
   </g>
   <g id="line2d_2">
    <path clip-path="url(#p4b93926ba7)" d="M 58.827273 386.139371 
L 63.001027 386.097141 
L 67.174781 386.040368 
L 71.348535 385.964575 
L 75.522289 385.864094 
L 79.696044 385.73181 
L 83.869798 385.558878 
L 88.043552 385.334393 
L 92.217306 385.04504 
L 96.39106 384.674709 
L 100.564815 384.204102 
L 104.738569 383.610328 
L 108.912323 382.866516 
L 113.086077 381.941454 
L 117.259831 380.799296 
L 121.433585 379.399346 
L 125.60734 377.695976 
L 129.781094 375.638684 
L 133.954848 373.172366 
L 138.128602 370.2378 
L 142.302356 366.772413 
L 146.476111 362.711322 
L 150.649865 357.988708 
L 154.823619 352.539497 
L 158.997373 346.301371 
L 163.171127 339.217063 
L 167.344881 331.236916 
L 171.518636 322.321628 
L 175.69239 312.445114 
L 179.866144 301.597371 
L 184.039898 289.787238 
L 188.213652 277.04491 
L 192.387407 263.424078 
L 196.561161 249.003534 
L 200.734915 233.888124 
L 204.908669 218.208919 
L 209.082423 202.122504 
L 213.256178 185.809323 
L 217.429932 169.471045 
L 221.603686 153.326975 
L 225.77744 137.609553 
L 229.951194 122.559072 
L 234.124948 108.417748 
L 238.298703 95.423357 
L 242.472457 83.802649 
L 246.646211 73.764805 
L 250.819965 65.495194 
L 254.993719 59.149682 
L 259.167474 54.849752 
L 263.341228 52.678636 
L 267.514982 52.678636 
L 271.688736 54.849752 
L 275.86249 59.149682 
L 280.036244 65.495194 
L 284.209999 73.764805 
L 288.383753 83.802649 
L 292.557507 95.423357 
L 296.731261 108.417748 
L 300.905015 122.559072 
L 305.07877 137.609553 
L 309.252524 153.326975 
L 313.426278 169.471045 
L 317.600032 185.809323 
L 321.773786 202.122504 
L 325.94754 218.208919 
L 330.121295 233.888124 
L 334.295049 249.003534 
L 338.468803 263.424078 
L 342.642557 277.04491 
L 346.816311 289.787238 
L 350.990066 301.597371 
L 355.16382 312.445114 
L 359.337574 322.321628 
L 363.511328 331.236916 
L 367.685082 339.217063 
L 371.858836 346.301371 
L 376.032591 352.539497 
L 380.206345 357.988708 
L 384.380099 362.711322 
L 388.553853 366.772413 
L 392.727607 370.2378 
L 396.901362 373.172366 
L 401.075116 375.638684 
L 405.24887 377.695976 
L 409.422624 379.399346 
L 413.596378 380.799296 
L 417.770132 381.941454 
L 421.943887 382.866516 
L 426.117641 383.610328 
L 430.291395 384.204102 
L 434.465149 384.674709 
L 438.638903 385.04504 
L 442.812658 385.334393 
L 446.986412 385.558878 
L 451.160166 385.73181 
L 455.33392 385.864094 
L 459.507674 385.964575 
L 463.681428 386.040368 
L 467.855183 386.097141 
L 472.028937 386.139371 
" style="fill:none;stroke:#36a2eb;stroke-linecap:square;"/>
   </g>
   <g id="patch_3">
    <path d="M 36 402.93 
L 538.2 402.93 
" style="fill:none;stroke:#000000;stroke-linecap:square;stroke-linejoin:miter;stroke-width:0.8;"/>
   </g>
   <g id="legend_1">
    <g id="patch_4">
     <path d="M 410.290313 88.688125 
L 528.4 88.688125 
Q 531.2 88.688125 531.2 85.888125 
L 531.2 45.8 
Q 531.2 43 528.4 43 
L 410.290313 43 
Q 407.490313 43 407.490313 45.8 
L 407.490313 85.888125 
Q 407.490313 88.688125 410.290313 88.688125 
z
" style="fill:#ffffff;opacity:0.8;stroke:#cccccc;stroke-linejoin:miter;"/>
    </g>
    <g id="patch_5">
     <path d="M 413.090313 59.237813 
L 441.090313 59.237813 
L 441.090313 49.437813 
L 413.090313 49.437813 
z
" style="fill:#ff6384;opacity:0.5;stroke:#ff6384;stroke-linejoin:miter;"/>
    </g>
    <g id="text_1">
     <!-- base -->
     <defs>
      <path d="M 48.6875 27.296875 
Q 48.6875 37.203125 44.609375 42.84375 
Q 40.53125 48.484375 33.40625 48.484375 
Q 26.265625 48.484375 22.1875 42.84375 
Q 18.109375 37.203125 18.109375 27.296875 
Q 18.109375 17.390625 22.1875 11.75 
Q 26.265625 6.109375 33.40625 6.109375 
Q 40.53125 6.109375 44.609375 11.75 
Q 48.6875 17.390625 48.6875 27.296875 
z
M 18.109375 46.390625 
Q 20.953125 51.265625 25.265625 53.625 
Q 29.59375 56 35.59375 56 
Q 45.5625 56 51.78125 48.09375 
Q 58.015625 40.1875 58.015625 27.296875 
Q 58.015625 14.40625 51.78125 6.484375 
Q 45.5625 -1.421875 35.59375 -1.421875 
Q 29.59375 -1.421875 25.265625 0.953125 
Q 20.953125 3.328125 18.109375 8.203125 
L 18.109375 0 
L 9.078125 0 
L 9.078125 75.984375 
L 18.109375 75.984375 
z
" id="DejaVuSans-98"/>
      <path d="M 34.28125 27.484375 
Q 23.390625 27.484375 19.1875 25 
Q 14.984375 22.515625 14.984375 16.5 
Q 14.984375 11.71875 18.140625 8.90625 
Q 21.296875 6.109375 26.703125 6.109375 
Q 34.1875 6.109375 38.703125 11.40625 
Q 43.21875 16.703125 43.21875 25.484375 
L 43.21875 27.484375 
z
M 52.203125 31.203125 
L 52.203125 0 
L 43.21875 0 
L 43.21875 8.296875 
Q 40.140625 3.328125 35.546875 0.953125 
Q 30.953125 -1.421875 24.3125 -1.421875 
Q 15.921875 -1.421875 10.953125 3.296875 
Q 6 8.015625 6 15.921875 
Q 6 25.140625 12.171875 29.828125 
Q 18.359375 34.515625 30.609375 34.515625 
L 43.21875 34.515625 
L 43.21875 35.40625 
Q 43.21875 41.609375 39.140625 45 
Q 35.0625 48.390625 27.6875 48.390625 
Q 23 48.390625 18.546875 47.265625 
Q 14.109375 46.140625 10.015625 43.890625 
L 10.015625 52.203125 
Q 14.9375 54.109375 19.578125 55.046875 
Q 24.21875 56 28.609375 56 
Q 40.484375 56 46.34375 49.84375 
Q 52.203125 43.703125 52.203125 31.203125 
z
" id="DejaVuSans-97"/>
      <path d="M 44.28125 53.078125 
L 44.28125 44.578125 
Q 40.484375 46.53125 36.375 47.5 
Q 32.28125 48.484375 27.875 48.484375 
Q 21.1875 48.484375 17.84375 46.4375 
Q 14.5 44.390625 14.5 40.28125 
Q 14.5 37.15625 16.890625 35.375 
Q 19.28125 33.59375 26.515625 31.984375 
L 29.59375 31.296875 
Q 39.15625 29.25 43.1875 25.515625 
Q 47.21875 21.78125 47.21875 15.09375 
Q 47.21875 7.46875 41.1875 3.015625 
Q 35.15625 -1.421875 24.609375 -1.421875 
Q 20.21875 -1.421875 15.453125 -0.5625 
Q 10.6875 0.296875 5.421875 2 
L 5.421875 11.28125 
Q 10.40625 8.6875 15.234375 7.390625 
Q 20.0625 6.109375 24.8125 6.109375 
Q 31.15625 6.109375 34.5625 8.28125 
Q 37.984375 10.453125 37.984375 14.40625 
Q 37.984375 18.0625 35.515625 20.015625 
Q 33.0625 21.96875 24.703125 23.78125 
L 21.578125 24.515625 
Q 13.234375 26.265625 9.515625 29.90625 
Q 5.8125 33.546875 5.8125 39.890625 
Q 5.8125 47.609375 11.28125 51.796875 
Q 16.75 56 26.8125 56 
Q 31.78125 56 36.171875 55.265625 
Q 40.578125 54.546875 44.28125 53.078125 
z
" id="DejaVuSans-115"/>
      <path d="M 56.203125 29.59375 
L 56.203125 25.203125 
L 14.890625 25.203125 
Q 15.484375 15.921875 20.484375 11.0625 
Q 25.484375 6.203125 34.421875 6.203125 
Q 39.59375 6.203125 44.453125 7.46875 
Q 49.3125 8.734375 54.109375 11.28125 
L 54.109375 2.78125 
Q 49.265625 0.734375 44.1875 -0.34375 
Q 39.109375 -1.421875 33.890625 -1.421875 
Q 20.796875 -1.421875 13.15625 6.1875 
Q 5.515625 13.8125 5.515625 26.8125 
Q 5.515625 40.234375 12.765625 48.109375 
Q 20.015625 56 32.328125 56 
Q 43.359375 56 49.78125 48.890625 
Q 56.203125 41.796875 56.203125 29.59375 
z
M 47.21875 32.234375 
Q 47.125 39.59375 43.09375 43.984375 
Q 39.0625 48.390625 32.421875 48.390625 
Q 24.90625 48.390625 20.390625 44.140625 
Q 15.875 39.890625 15.1875 32.171875 
z
" id="DejaVuSans-101"/>
     </defs>
     <g transform="translate(452.290313 59.237813)scale(0.14 -0.14)">
      <use xlink:href="#DejaVuSans-98"/>
      <use x="63.476562" xlink:href="#DejaVuSans-97"/>
      <use x="124.755859" xlink:href="#DejaVuSans-115"/>
      <use x="176.855469" xlink:href="#DejaVuSans-101"/>
     </g>
    </g>
    <g id="patch_6">
     <path d="M 413.090313 79.787188 
L 441.090313 79.787188 
L 441.090313 69.987188 
L 413.090313 69.987188 
z
" style="fill:#36a2eb;opacity:0.5;stroke:#36a2eb;stroke-linejoin:miter;"/>
    </g>
    <g id="text_2">
     <!-- no_license -->
     <defs>
      <path d="M 54.890625 33.015625 
L 54.890625 0 
L 45.90625 0 
L 45.90625 32.71875 
Q 45.90625 40.484375 42.875 44.328125 
Q 39.84375 48.1875 33.796875 48.1875 
Q 26.515625 48.1875 22.3125 43.546875 
Q 18.109375 38.921875 18.109375 30.90625 
L 18.109375 0 
L 9.078125 0 
L 9.078125 54.6875 
L 18.109375 54.6875 
L 18.109375 46.1875 
Q 21.34375 51.125 25.703125 53.5625 
Q 30.078125 56 35.796875 56 
Q 45.21875 56 50.046875 50.171875 
Q 54.890625 44.34375 54.890625 33.015625 
z
" id="DejaVuSans-110"/>
      <path d="M 30.609375 48.390625 
Q 23.390625 48.390625 19.1875 42.75 
Q 14.984375 37.109375 14.984375 27.296875 
Q 14.984375 17.484375 19.15625 11.84375 
Q 23.34375 6.203125 30.609375 6.203125 
Q 37.796875 6.203125 41.984375 11.859375 
Q 46.1875 17.53125 46.1875 27.296875 
Q 46.1875 37.015625 41.984375 42.703125 
Q 37.796875 48.390625 30.609375 48.390625 
z
M 30.609375 56 
Q 42.328125 56 49.015625 48.375 
Q 55.71875 40.765625 55.71875 27.296875 
Q 55.71875 13.875 49.015625 6.21875 
Q 42.328125 -1.421875 30.609375 -1.421875 
Q 18.84375 -1.421875 12.171875 6.21875 
Q 5.515625 13.875 5.515625 27.296875 
Q 5.515625 40.765625 12.171875 48.375 
Q 18.84375 56 30.609375 56 
z
" id="DejaVuSans-111"/>
      <path d="M 50.984375 -16.609375 
L 50.984375 -23.578125 
L -0.984375 -23.578125 
L -0.984375 -16.609375 
z
" id="DejaVuSans-95"/>
      <path d="M 9.421875 75.984375 
L 18.40625 75.984375 
L 18.40625 0 
L 9.421875 0 
z
" id="DejaVuSans-108"/>
      <path d="M 9.421875 54.6875 
L 18.40625 54.6875 
L 18.40625 0 
L 9.421875 0 
z
M 9.421875 75.984375 
L 18.40625 75.984375 
L 18.40625 64.59375 
L 9.421875 64.59375 
z
" id="DejaVuSans-105"/>
      <path d="M 48.78125 52.59375 
L 48.78125 44.1875 
Q 44.96875 46.296875 41.140625 47.34375 
Q 37.3125 48.390625 33.40625 48.390625 
Q 24.65625 48.390625 19.8125 42.84375 
Q 14.984375 37.3125 14.984375 27.296875 
Q 14.984375 17.28125 19.8125 11.734375 
Q 24.65625 6.203125 33.40625 6.203125 
Q 37.3125 6.203125 41.140625 7.25 
Q 44.96875 8.296875 48.78125 10.40625 
L 48.78125 2.09375 
Q 45.015625 0.34375 40.984375 -0.53125 
Q 36.96875 -1.421875 32.421875 -1.421875 
Q 20.0625 -1.421875 12.78125 6.34375 
Q 5.515625 14.109375 5.515625 27.296875 
Q 5.515625 40.671875 12.859375 48.328125 
Q 20.21875 56 33.015625 56 
Q 37.15625 56 41.109375 55.140625 
Q 45.0625 54.296875 48.78125 52.59375 
z
" id="DejaVuSans-99"/>
     </defs>
     <g transform="translate(452.290313 79.787188)scale(0.14 -0.14)">
      <use xlink:href="#DejaVuSans-110"/>
      <use x="63.378906" xlink:href="#DejaVuSans-111"/>
      <use x="124.560547" xlink:href="#DejaVuSans-95"/>
      <use x="174.560547" xlink:href="#DejaVuSans-108"/>
      <use x="202.34375" xlink:href="#DejaVuSans-105"/>
      <use x="230.126953" xlink:href="#DejaVuSans-99"/>
      <use x="285.107422" xlink:href="#DejaVuSans-101"/>
      <use x="346.630859" xlink:href="#DejaVuSans-110"/>
      <use x="410.009766" xlink:href="#DejaVuSans-115"/>
      <use x="462.109375" xlink:href="#DejaVuSans-101"/>
     </g>
    </g>
   </g>
  </g>
  <g id="axes_2">
   <g id="patch_7">
    <path d="M 36 525.24 
L 538.2 525.24 
L 538.2 402.93 
L 36 402.93 
z
" style="fill:none;"/>
   </g>
   <g id="patch_8">
    <path clip-path="url(#p5213901697)" d="M 206.288223 519.680455 
L 409.578702 519.680455 
L 409.578702 482.616818 
L 206.288223 482.616818 
z
" style="fill:#ff6384;opacity:0.5;"/>
   </g>
   <g id="patch_9">
    <path clip-path="url(#p5213901697)" d="M 164.193697 445.553182 
L 366.662513 445.553182 
L 366.662513 408.489545 
L 164.193697 408.489545 
z
" style="fill:#36a2eb;opacity:0.5;"/>
   </g>
   <g id="matplotlib.axis_1">
    <g id="xtick_1">
     <g id="line2d_3">
      <defs>
       <path d="M 0 0 
L 0 3.5 
" id="m0bb03be324" style="stroke:#000000;stroke-width:0.8;"/>
      </defs>
      <g>
       <use style="stroke:#000000;stroke-width:0.8;" x="114.888297" xlink:href="#m0bb03be324" y="525.24"/>
      </g>
     </g>
     <g id="text_3">
      <!-- 6.5 -->
      <defs>
       <path d="M 33.015625 40.375 
Q 26.375 40.375 22.484375 35.828125 
Q 18.609375 31.296875 18.609375 23.390625 
Q 18.609375 15.53125 22.484375 10.953125 
Q 26.375 6.390625 33.015625 6.390625 
Q 39.65625 6.390625 43.53125 10.953125 
Q 47.40625 15.53125 47.40625 23.390625 
Q 47.40625 31.296875 43.53125 35.828125 
Q 39.65625 40.375 33.015625 40.375 
z
M 52.59375 71.296875 
L 52.59375 62.3125 
Q 48.875 64.0625 45.09375 64.984375 
Q 41.3125 65.921875 37.59375 65.921875 
Q 27.828125 65.921875 22.671875 59.328125 
Q 17.53125 52.734375 16.796875 39.40625 
Q 19.671875 43.65625 24.015625 45.921875 
Q 28.375 48.1875 33.59375 48.1875 
Q 44.578125 48.1875 50.953125 41.515625 
Q 57.328125 34.859375 57.328125 23.390625 
Q 57.328125 12.15625 50.6875 5.359375 
Q 44.046875 -1.421875 33.015625 -1.421875 
Q 20.359375 -1.421875 13.671875 8.265625 
Q 6.984375 17.96875 6.984375 36.375 
Q 6.984375 53.65625 15.1875 63.9375 
Q 23.390625 74.21875 37.203125 74.21875 
Q 40.921875 74.21875 44.703125 73.484375 
Q 48.484375 72.75 52.59375 71.296875 
z
" id="DejaVuSans-54"/>
       <path d="M 10.6875 12.40625 
L 21 12.40625 
L 21 0 
L 10.6875 0 
z
" id="DejaVuSans-46"/>
       <path d="M 10.796875 72.90625 
L 49.515625 72.90625 
L 49.515625 64.59375 
L 19.828125 64.59375 
L 19.828125 46.734375 
Q 21.96875 47.46875 24.109375 47.828125 
Q 26.265625 48.1875 28.421875 48.1875 
Q 40.625 48.1875 47.75 41.5 
Q 54.890625 34.8125 54.890625 23.390625 
Q 54.890625 11.625 47.5625 5.09375 
Q 40.234375 -1.421875 26.90625 -1.421875 
Q 22.3125 -1.421875 17.546875 -0.640625 
Q 12.796875 0.140625 7.71875 1.703125 
L 7.71875 11.625 
Q 12.109375 9.234375 16.796875 8.0625 
Q 21.484375 6.890625 26.703125 6.890625 
Q 35.15625 6.890625 40.078125 11.328125 
Q 45.015625 15.765625 45.015625 23.390625 
Q 45.015625 31 40.078125 35.4375 
Q 35.15625 39.890625 26.703125 39.890625 
Q 22.75 39.890625 18.8125 39.015625 
Q 14.890625 38.140625 10.796875 36.28125 
z
" id="DejaVuSans-53"/>
      </defs>
      <g transform="translate(103.756109 542.877813)scale(0.14 -0.14)">
       <use xlink:href="#DejaVuSans-54"/>
       <use x="63.623047" xlink:href="#DejaVuSans-46"/>
       <use x="95.410156" xlink:href="#DejaVuSans-53"/>
      </g>
     </g>
    </g>
    <g id="xtick_2">
     <g id="line2d_4">
      <g>
       <use style="stroke:#000000;stroke-width:0.8;" x="203.441125" xlink:href="#m0bb03be324" y="525.24"/>
      </g>
     </g>
     <g id="text_4">
      <!-- 7.0 -->
      <defs>
       <path d="M 8.203125 72.90625 
L 55.078125 72.90625 
L 55.078125 68.703125 
L 28.609375 0 
L 18.3125 0 
L 43.21875 64.59375 
L 8.203125 64.59375 
z
" id="DejaVuSans-55"/>
       <path d="M 31.78125 66.40625 
Q 24.171875 66.40625 20.328125 58.90625 
Q 16.5 51.421875 16.5 36.375 
Q 16.5 21.390625 20.328125 13.890625 
Q 24.171875 6.390625 31.78125 6.390625 
Q 39.453125 6.390625 43.28125 13.890625 
Q 47.125 21.390625 47.125 36.375 
Q 47.125 51.421875 43.28125 58.90625 
Q 39.453125 66.40625 31.78125 66.40625 
z
M 31.78125 74.21875 
Q 44.046875 74.21875 50.515625 64.515625 
Q 56.984375 54.828125 56.984375 36.375 
Q 56.984375 17.96875 50.515625 8.265625 
Q 44.046875 -1.421875 31.78125 -1.421875 
Q 19.53125 -1.421875 13.0625 8.265625 
Q 6.59375 17.96875 6.59375 36.375 
Q 6.59375 54.828125 13.0625 64.515625 
Q 19.53125 74.21875 31.78125 74.21875 
z
" id="DejaVuSans-48"/>
      </defs>
      <g transform="translate(192.308937 542.877813)scale(0.14 -0.14)">
       <use xlink:href="#DejaVuSans-55"/>
       <use x="63.623047" xlink:href="#DejaVuSans-46"/>
       <use x="95.410156" xlink:href="#DejaVuSans-48"/>
      </g>
     </g>
    </g>
    <g id="xtick_3">
     <g id="line2d_5">
      <g>
       <use style="stroke:#000000;stroke-width:0.8;" x="291.993953" xlink:href="#m0bb03be324" y="525.24"/>
      </g>
     </g>
     <g id="text_5">
      <!-- 7.5 -->
      <g transform="translate(280.861766 542.877813)scale(0.14 -0.14)">
       <use xlink:href="#DejaVuSans-55"/>
       <use x="63.623047" xlink:href="#DejaVuSans-46"/>
       <use x="95.410156" xlink:href="#DejaVuSans-53"/>
      </g>
     </g>
    </g>
    <g id="xtick_4">
     <g id="line2d_6">
      <g>
       <use style="stroke:#000000;stroke-width:0.8;" x="380.546782" xlink:href="#m0bb03be324" y="525.24"/>
      </g>
     </g>
     <g id="text_6">
      <!-- 8.0 -->
      <defs>
       <path d="M 31.78125 34.625 
Q 24.75 34.625 20.71875 30.859375 
Q 16.703125 27.09375 16.703125 20.515625 
Q 16.703125 13.921875 20.71875 10.15625 
Q 24.75 6.390625 31.78125 6.390625 
Q 38.8125 6.390625 42.859375 10.171875 
Q 46.921875 13.96875 46.921875 20.515625 
Q 46.921875 27.09375 42.890625 30.859375 
Q 38.875 34.625 31.78125 34.625 
z
M 21.921875 38.8125 
Q 15.578125 40.375 12.03125 44.71875 
Q 8.5 49.078125 8.5 55.328125 
Q 8.5 64.0625 14.71875 69.140625 
Q 20.953125 74.21875 31.78125 74.21875 
Q 42.671875 74.21875 48.875 69.140625 
Q 55.078125 64.0625 55.078125 55.328125 
Q 55.078125 49.078125 51.53125 44.71875 
Q 48 40.375 41.703125 38.8125 
Q 48.828125 37.15625 52.796875 32.3125 
Q 56.78125 27.484375 56.78125 20.515625 
Q 56.78125 9.90625 50.3125 4.234375 
Q 43.84375 -1.421875 31.78125 -1.421875 
Q 19.734375 -1.421875 13.25 4.234375 
Q 6.78125 9.90625 6.78125 20.515625 
Q 6.78125 27.484375 10.78125 32.3125 
Q 14.796875 37.15625 21.921875 38.8125 
z
M 18.3125 54.390625 
Q 18.3125 48.734375 21.84375 45.5625 
Q 25.390625 42.390625 31.78125 42.390625 
Q 38.140625 42.390625 41.71875 45.5625 
Q 45.3125 48.734375 45.3125 54.390625 
Q 45.3125 60.0625 41.71875 63.234375 
Q 38.140625 66.40625 31.78125 66.40625 
Q 25.390625 66.40625 21.84375 63.234375 
Q 18.3125 60.0625 18.3125 54.390625 
z
" id="DejaVuSans-56"/>
      </defs>
      <g transform="translate(369.414594 542.877813)scale(0.14 -0.14)">
       <use xlink:href="#DejaVuSans-56"/>
       <use x="63.623047" xlink:href="#DejaVuSans-46"/>
       <use x="95.410156" xlink:href="#DejaVuSans-48"/>
      </g>
     </g>
    </g>
    <g id="xtick_5">
     <g id="line2d_7">
      <g>
       <use style="stroke:#000000;stroke-width:0.8;" x="469.09961" xlink:href="#m0bb03be324" y="525.24"/>
      </g>
     </g>
     <g id="text_7">
      <!-- 8.5 -->
      <g transform="translate(457.967423 542.877813)scale(0.14 -0.14)">
       <use xlink:href="#DejaVuSans-56"/>
       <use x="63.623047" xlink:href="#DejaVuSans-46"/>
       <use x="95.410156" xlink:href="#DejaVuSans-53"/>
      </g>
     </g>
    </g>
   </g>
   <g id="line2d_8">
    <path clip-path="url(#p5213901697)" d="M 307.933462 525.24 
L 307.933462 402.93 
" style="fill:none;stroke:#ff6384;stroke-dasharray:5.55,2.4;stroke-dashoffset:0;stroke-opacity:0.8;stroke-width:1.5;"/>
   </g>
   <g id="line2d_9">
    <path clip-path="url(#p5213901697)" d="M 265.428105 525.24 
L 265.428105 402.93 
" style="fill:none;stroke:#36a2eb;stroke-dasharray:5.55,2.4;stroke-dashoffset:0;stroke-opacity:0.8;stroke-width:1.5;"/>
   </g>
   <g id="patch_10">
    <path d="M 36 525.24 
L 538.2 525.24 
" style="fill:none;stroke:#000000;stroke-linecap:square;stroke-linejoin:miter;stroke-width:0.8;"/>
   </g>
  </g>
 </g>
 <defs>
  <clipPath id="p4b93926ba7">
   <rect height="366.93" width="502.2" x="36" y="36"/>
  </clipPath>
  <clipPath id="p5213901697">
   <rect height="122.31" width="502.2" x="36" y="402.93"/>
  </clipPath>
 </defs>
</svg>
