<?xml version="1.0" encoding="utf-8" standalone="no"?>
<!DOCTYPE svg PUBLIC "-//W3C//DTD SVG 1.1//EN"
  "http://www.w3.org/Graphics/SVG/1.1/DTD/svg11.dtd">
<!-- Created with matplotlib (https://matplotlib.org/) -->
<svg height="581.789375pt" version="1.1" viewBox="0 0 574.2 581.789375" width="574.2pt" xmlns="http://www.w3.org/2000/svg" xmlns:xlink="http://www.w3.org/1999/xlink">
 <defs>
  <style type="text/css">
*{stroke-linecap:butt;stroke-linejoin:round;}
  </style>
 </defs>
 <g id="figure_1">
  <g id="patch_1">
   <path d="M 0 581.789375 
L 574.2 581.789375 
L 574.2 0 
L 0 0 
z
" style="fill:none;"/>
  </g>
  <g id="axes_1">
   <g id="patch_2">
    <path d="M 36 402.93 
L 538.2 402.93 
L 538.2 36 
L 36 36 
z
" style="fill:none;"/>
   </g>
   <g id="PolyCollection_1">
    <defs>
     <path d="M 105.226635 -195.538011 
L 105.226635 -195.649235 
L 109.369525 -195.691176 
L 113.512415 -195.747559 
L 117.655304 -195.822831 
L 121.798194 -195.922623 
L 125.941084 -196.053999 
L 130.083974 -196.225744 
L 134.226864 -196.448688 
L 138.369754 -196.736055 
L 142.512643 -197.103844 
L 146.655533 -197.571221 
L 150.798423 -198.160919 
L 154.941313 -198.899626 
L 159.084203 -199.818338 
L 163.227092 -200.952657 
L 167.369982 -202.342997 
L 171.512872 -204.034677 
L 175.655762 -206.077847 
L 179.798652 -208.527237 
L 183.941542 -211.44166 
L 188.084431 -214.883262 
L 192.227321 -218.916478 
L 196.370211 -223.606677 
L 200.513101 -229.018485 
L 204.655991 -235.213794 
L 208.79888 -242.249477 
L 212.94177 -250.17485 
L 217.08466 -259.028944 
L 221.22755 -268.837667 
L 225.37044 -279.610953 
L 229.51333 -291.340024 
L 233.656219 -303.994891 
L 237.799109 -317.522232 
L 241.941999 -331.843796 
L 246.084889 -346.855456 
L 250.227779 -362.427041 
L 254.370669 -378.403042 
L 258.513558 -394.604253 
L 262.656448 -410.830387 
L 266.799338 -426.863647 
L 270.942228 -442.473187 
L 275.085118 -457.420364 
L 279.228007 -471.464625 
L 283.370897 -484.369825 
L 287.513787 -495.91077 
L 291.656677 -505.879716 
L 295.799567 -514.092566 
L 299.942457 -520.394524 
L 304.085346 -524.66494 
L 308.228236 -526.821153 
L 312.371126 -526.821153 
L 316.514016 -524.66494 
L 320.656906 -520.394524 
L 324.799795 -514.092566 
L 328.942685 -505.879716 
L 333.085575 -495.91077 
L 337.228465 -484.369825 
L 341.371355 -471.464625 
L 345.514245 -457.420364 
L 349.657134 -442.473187 
L 353.800024 -426.863647 
L 357.942914 -410.830387 
L 362.085804 -394.604253 
L 366.228694 -378.403042 
L 370.371584 -362.427041 
L 374.514473 -346.855456 
L 378.657363 -331.843796 
L 382.800253 -317.522232 
L 386.943143 -303.994891 
L 391.086033 -291.340024 
L 395.228922 -279.610953 
L 399.371812 -268.837667 
L 403.514702 -259.028944 
L 407.657592 -250.17485 
L 411.800482 -242.249477 
L 415.943372 -235.213794 
L 420.086261 -229.018485 
L 424.229151 -223.606677 
L 428.372041 -218.916478 
L 432.514931 -214.883262 
L 436.657821 -211.44166 
L 440.80071 -208.527237 
L 444.9436 -206.077847 
L 449.08649 -204.034677 
L 453.22938 -202.342997 
L 457.37227 -200.952657 
L 461.51516 -199.818338 
L 465.658049 -198.899626 
L 469.800939 -198.160919 
L 473.943829 -197.571221 
L 478.086719 -197.103844 
L 482.229609 -196.736055 
L 486.372499 -196.448688 
L 490.515388 -196.225744 
L 494.658278 -196.053999 
L 498.801168 -195.922623 
L 502.944058 -195.822831 
L 507.086948 -195.747559 
L 511.229837 -195.691176 
L 515.372727 -195.649235 
L 515.372727 -195.538011 
L 515.372727 -195.538011 
L 511.229837 -195.538011 
L 507.086948 -195.538011 
L 502.944058 -195.538011 
L 498.801168 -195.538011 
L 494.658278 -195.538011 
L 490.515388 -195.538011 
L 486.372499 -195.538011 
L 482.229609 -195.538011 
L 478.086719 -195.538011 
L 473.943829 -195.538011 
L 469.800939 -195.538011 
L 465.658049 -195.538011 
L 461.51516 -195.538011 
L 457.37227 -195.538011 
L 453.22938 -195.538011 
L 449.08649 -195.538011 
L 444.9436 -195.538011 
L 440.80071 -195.538011 
L 436.657821 -195.538011 
L 432.514931 -195.538011 
L 428.372041 -195.538011 
L 424.229151 -195.538011 
L 420.086261 -195.538011 
L 415.943372 -195.538011 
L 411.800482 -195.538011 
L 407.657592 -195.538011 
L 403.514702 -195.538011 
L 399.371812 -195.538011 
L 395.228922 -195.538011 
L 391.086033 -195.538011 
L 386.943143 -195.538011 
L 382.800253 -195.538011 
L 378.657363 -195.538011 
L 374.514473 -195.538011 
L 370.371584 -195.538011 
L 366.228694 -195.538011 
L 362.085804 -195.538011 
L 357.942914 -195.538011 
L 353.800024 -195.538011 
L 349.657134 -195.538011 
L 345.514245 -195.538011 
L 341.371355 -195.538011 
L 337.228465 -195.538011 
L 333.085575 -195.538011 
L 328.942685 -195.538011 
L 324.799795 -195.538011 
L 320.656906 -195.538011 
L 316.514016 -195.538011 
L 312.371126 -195.538011 
L 308.228236 -195.538011 
L 304.085346 -195.538011 
L 299.942457 -195.538011 
L 295.799567 -195.538011 
L 291.656677 -195.538011 
L 287.513787 -195.538011 
L 283.370897 -195.538011 
L 279.228007 -195.538011 
L 275.085118 -195.538011 
L 270.942228 -195.538011 
L 266.799338 -195.538011 
L 262.656448 -195.538011 
L 258.513558 -195.538011 
L 254.370669 -195.538011 
L 250.227779 -195.538011 
L 246.084889 -195.538011 
L 241.941999 -195.538011 
L 237.799109 -195.538011 
L 233.656219 -195.538011 
L 229.51333 -195.538011 
L 225.37044 -195.538011 
L 221.22755 -195.538011 
L 217.08466 -195.538011 
L 212.94177 -195.538011 
L 208.79888 -195.538011 
L 204.655991 -195.538011 
L 200.513101 -195.538011 
L 196.370211 -195.538011 
L 192.227321 -195.538011 
L 188.084431 -195.538011 
L 183.941542 -195.538011 
L 179.798652 -195.538011 
L 175.655762 -195.538011 
L 171.512872 -195.538011 
L 167.369982 -195.538011 
L 163.227092 -195.538011 
L 159.084203 -195.538011 
L 154.941313 -195.538011 
L 150.798423 -195.538011 
L 146.655533 -195.538011 
L 142.512643 -195.538011 
L 138.369754 -195.538011 
L 134.226864 -195.538011 
L 130.083974 -195.538011 
L 125.941084 -195.538011 
L 121.798194 -195.538011 
L 117.655304 -195.538011 
L 113.512415 -195.538011 
L 109.369525 -195.538011 
L 105.226635 -195.538011 
z
" id="m59c1287f3e" style="stroke:#ff6384;stroke-opacity:0.5;"/>
    </defs>
    <g clip-path="url(#p0e6b5a2c7b)">
     <use style="fill:#ff6384;fill-opacity:0.5;stroke:#ff6384;stroke-opacity:0.5;" x="0" xlink:href="#m59c1287f3e" y="581.789375"/>
    </g>
   </g>
   <g id="PolyCollection_2">
    <defs>
     <path d="M 58.827273 -195.538011 
L 58.827273 -195.650004 
L 62.941726 -195.692234 
L 67.05618 -195.749007 
L 71.170634 -195.8248 
L 75.285088 -195.925281 
L 79.399541 -196.057565 
L 83.513995 -196.230497 
L 87.628449 -196.454982 
L 91.742903 -196.744335 
L 95.857356 -197.114666 
L 99.97181 -197.585273 
L 104.086264 -198.179047 
L 108.200718 -198.922859 
L 112.315171 -199.847921 
L 116.429625 -200.990079 
L 120.544079 -202.390029 
L 124.658533 -204.093399 
L 128.772986 -206.150691 
L 132.88744 -208.617009 
L 137.001894 -211.551575 
L 141.116348 -215.016962 
L 145.230801 -219.078053 
L 149.345255 -223.800667 
L 153.459709 -229.249878 
L 157.574162 -235.488004 
L 161.688616 -242.572312 
L 165.80307 -250.552459 
L 169.917524 -259.467747 
L 174.031977 -269.344261 
L 178.146431 -280.192004 
L 182.260885 -292.002137 
L 186.375339 -304.744465 
L 190.489792 -318.365297 
L 194.604246 -332.785841 
L 198.7187 -347.901251 
L 202.833154 -363.580456 
L 206.947607 -379.666871 
L 211.062061 -395.980052 
L 215.176515 -412.31833 
L 219.290969 -428.4624 
L 223.405422 -444.179822 
L 227.519876 -459.230303 
L 231.63433 -473.371627 
L 235.748784 -486.366018 
L 239.863237 -497.986726 
L 243.977691 -508.02457 
L 248.092145 -516.294181 
L 252.206598 -522.639693 
L 256.321052 -526.939623 
L 260.435506 -529.110739 
L 264.54996 -529.110739 
L 268.664413 -526.939623 
L 272.778867 -522.639693 
L 276.893321 -516.294181 
L 281.007775 -508.02457 
L 285.122228 -497.986726 
L 289.236682 -486.366018 
L 293.351136 -473.371627 
L 297.46559 -459.230303 
L 301.580043 -444.179822 
L 305.694497 -428.4624 
L 309.808951 -412.31833 
L 313.923405 -395.980052 
L 318.037858 -379.666871 
L 322.152312 -363.580456 
L 326.266766 -347.901251 
L 330.38122 -332.785841 
L 334.495673 -318.365297 
L 338.610127 -304.744465 
L 342.724581 -292.002137 
L 346.839034 -280.192004 
L 350.953488 -269.344261 
L 355.067942 -259.467747 
L 359.182396 -250.552459 
L 363.296849 -242.572312 
L 367.411303 -235.488004 
L 371.525757 -229.249878 
L 375.640211 -223.800667 
L 379.754664 -219.078053 
L 383.869118 -215.016962 
L 387.983572 -211.551575 
L 392.098026 -208.617009 
L 396.212479 -206.150691 
L 400.326933 -204.093399 
L 404.441387 -202.390029 
L 408.555841 -200.990079 
L 412.670294 -199.847921 
L 416.784748 -198.922859 
L 420.899202 -198.179047 
L 425.013656 -197.585273 
L 429.128109 -197.114666 
L 433.242563 -196.744335 
L 437.357017 -196.454982 
L 441.47147 -196.230497 
L 445.585924 -196.057565 
L 449.700378 -195.925281 
L 453.814832 -195.8248 
L 457.929285 -195.749007 
L 462.043739 -195.692234 
L 466.158193 -195.650004 
L 466.158193 -195.538011 
L 466.158193 -195.538011 
L 462.043739 -195.538011 
L 457.929285 -195.538011 
L 453.814832 -195.538011 
L 449.700378 -195.538011 
L 445.585924 -195.538011 
L 441.47147 -195.538011 
L 437.357017 -195.538011 
L 433.242563 -195.538011 
L 429.128109 -195.538011 
L 425.013656 -195.538011 
L 420.899202 -195.538011 
L 416.784748 -195.538011 
L 412.670294 -195.538011 
L 408.555841 -195.538011 
L 404.441387 -195.538011 
L 400.326933 -195.538011 
L 396.212479 -195.538011 
L 392.098026 -195.538011 
L 387.983572 -195.538011 
L 383.869118 -195.538011 
L 379.754664 -195.538011 
L 375.640211 -195.538011 
L 371.525757 -195.538011 
L 367.411303 -195.538011 
L 363.296849 -195.538011 
L 359.182396 -195.538011 
L 355.067942 -195.538011 
L 350.953488 -195.538011 
L 346.839034 -195.538011 
L 342.724581 -195.538011 
L 338.610127 -195.538011 
L 334.495673 -195.538011 
L 330.38122 -195.538011 
L 326.266766 -195.538011 
L 322.152312 -195.538011 
L 318.037858 -195.538011 
L 313.923405 -195.538011 
L 309.808951 -195.538011 
L 305.694497 -195.538011 
L 301.580043 -195.538011 
L 297.46559 -195.538011 
L 293.351136 -195.538011 
L 289.236682 -195.538011 
L 285.122228 -195.538011 
L 281.007775 -195.538011 
L 276.893321 -195.538011 
L 272.778867 -195.538011 
L 268.664413 -195.538011 
L 264.54996 -195.538011 
L 260.435506 -195.538011 
L 256.321052 -195.538011 
L 252.206598 -195.538011 
L 248.092145 -195.538011 
L 243.977691 -195.538011 
L 239.863237 -195.538011 
L 235.748784 -195.538011 
L 231.63433 -195.538011 
L 227.519876 -195.538011 
L 223.405422 -195.538011 
L 219.290969 -195.538011 
L 215.176515 -195.538011 
L 211.062061 -195.538011 
L 206.947607 -195.538011 
L 202.833154 -195.538011 
L 198.7187 -195.538011 
L 194.604246 -195.538011 
L 190.489792 -195.538011 
L 186.375339 -195.538011 
L 182.260885 -195.538011 
L 178.146431 -195.538011 
L 174.031977 -195.538011 
L 169.917524 -195.538011 
L 165.80307 -195.538011 
L 161.688616 -195.538011 
L 157.574162 -195.538011 
L 153.459709 -195.538011 
L 149.345255 -195.538011 
L 145.230801 -195.538011 
L 141.116348 -195.538011 
L 137.001894 -195.538011 
L 132.88744 -195.538011 
L 128.772986 -195.538011 
L 124.658533 -195.538011 
L 120.544079 -195.538011 
L 116.429625 -195.538011 
L 112.315171 -195.538011 
L 108.200718 -195.538011 
L 104.086264 -195.538011 
L 99.97181 -195.538011 
L 95.857356 -195.538011 
L 91.742903 -195.538011 
L 87.628449 -195.538011 
L 83.513995 -195.538011 
L 79.399541 -195.538011 
L 75.285088 -195.538011 
L 71.170634 -195.538011 
L 67.05618 -195.538011 
L 62.941726 -195.538011 
L 58.827273 -195.538011 
z
" id="maf838b3cc3" style="stroke:#36a2eb;stroke-opacity:0.5;"/>
    </defs>
    <g clip-path="url(#p0e6b5a2c7b)">
     <use style="fill:#36a2eb;fill-opacity:0.5;stroke:#36a2eb;stroke-opacity:0.5;" x="0" xlink:href="#maf838b3cc3" y="581.789375"/>
    </g>
   </g>
   <g id="line2d_1">
    <path clip-path="url(#p0e6b5a2c7b)" d="M 105.226635 386.14014 
L 109.369525 386.098199 
L 113.512415 386.041816 
L 117.655304 385.966544 
L 121.798194 385.866752 
L 125.941084 385.735376 
L 130.083974 385.563631 
L 134.226864 385.340687 
L 138.369754 385.05332 
L 142.512643 384.685531 
L 146.655533 384.218154 
L 150.798423 383.628456 
L 154.941313 382.889749 
L 159.084203 381.971037 
L 163.227092 380.836718 
L 167.369982 379.446378 
L 171.512872 377.754698 
L 175.655762 375.711528 
L 179.798652 373.262138 
L 183.941542 370.347715 
L 188.084431 366.906113 
L 192.227321 362.872897 
L 196.370211 358.182698 
L 200.513101 352.77089 
L 204.655991 346.575581 
L 208.79888 339.539898 
L 212.94177 331.614525 
L 217.08466 322.760431 
L 221.22755 312.951708 
L 225.37044 302.178422 
L 229.51333 290.449351 
L 233.656219 277.794484 
L 237.799109 264.267143 
L 241.941999 249.945579 
L 246.084889 234.933919 
L 250.227779 219.362334 
L 254.370669 203.386333 
L 258.513558 187.185122 
L 262.656448 170.958988 
L 266.799338 154.925728 
L 270.942228 139.316188 
L 275.085118 124.369011 
L 279.228007 110.32475 
L 283.370897 97.41955 
L 287.513787 85.878605 
L 291.656677 75.909659 
L 295.799567 67.696809 
L 299.942457 61.394851 
L 304.085346 57.124435 
L 308.228236 54.968222 
L 312.371126 54.968222 
L 316.514016 57.124435 
L 320.656906 61.394851 
L 324.799795 67.696809 
L 328.942685 75.909659 
L 333.085575 85.878605 
L 337.228465 97.41955 
L 341.371355 110.32475 
L 345.514245 124.369011 
L 349.657134 139.316188 
L 353.800024 154.925728 
L 357.942914 170.958988 
L 362.085804 187.185122 
L 366.228694 203.386333 
L 370.371584 219.362334 
L 374.514473 234.933919 
L 378.657363 249.945579 
L 382.800253 264.267143 
L 386.943143 277.794484 
L 391.086033 290.449351 
L 395.228922 302.178422 
L 399.371812 312.951708 
L 403.514702 322.760431 
L 407.657592 331.614525 
L 411.800482 339.539898 
L 415.943372 346.575581 
L 420.086261 352.77089 
L 424.229151 358.182698 
L 428.372041 362.872897 
L 432.514931 366.906113 
L 436.657821 370.347715 
L 440.80071 373.262138 
L 444.9436 375.711528 
L 449.08649 377.754698 
L 453.22938 379.446378 
L 457.37227 380.836718 
L 461.51516 381.971037 
L 465.658049 382.889749 
L 469.800939 383.628456 
L 473.943829 384.218154 
L 478.086719 384.685531 
L 482.229609 385.05332 
L 486.372499 385.340687 
L 490.515388 385.563631 
L 494.658278 385.735376 
L 498.801168 385.866752 
L 502.944058 385.966544 
L 507.086948 386.041816 
L 511.229837 386.098199 
L 515.372727 386.14014 
" style="fill:none;stroke:#ff6384;stroke-linecap:square;"/>
   </g>
   <g id="line2d_2">
    <path clip-path="url(#p0e6b5a2c7b)" d="M 58.827273 386.139371 
L 62.941726 386.097141 
L 67.05618 386.040368 
L 71.170634 385.964575 
L 75.285088 385.864094 
L 79.399541 385.73181 
L 83.513995 385.558878 
L 87.628449 385.334393 
L 91.742903 385.04504 
L 95.857356 384.674709 
L 99.97181 384.204102 
L 104.086264 383.610328 
L 108.200718 382.866516 
L 112.315171 381.941454 
L 116.429625 380.799296 
L 120.544079 379.399346 
L 124.658533 377.695976 
L 128.772986 375.638684 
L 132.88744 373.172366 
L 137.001894 370.2378 
L 141.116348 366.772413 
L 145.230801 362.711322 
L 149.345255 357.988708 
L 153.459709 352.539497 
L 157.574162 346.301371 
L 161.688616 339.217063 
L 165.80307 331.236916 
L 169.917524 322.321628 
L 174.031977 312.445114 
L 178.146431 301.597371 
L 182.260885 289.787238 
L 186.375339 277.04491 
L 190.489792 263.424078 
L 194.604246 249.003534 
L 198.7187 233.888124 
L 202.833154 218.208919 
L 206.947607 202.122504 
L 211.062061 185.809323 
L 215.176515 169.471045 
L 219.290969 153.326975 
L 223.405422 137.609553 
L 227.519876 122.559072 
L 231.63433 108.417748 
L 235.748784 95.423357 
L 239.863237 83.802649 
L 243.977691 73.764805 
L 248.092145 65.495194 
L 252.206598 59.149682 
L 256.321052 54.849752 
L 260.435506 52.678636 
L 264.54996 52.678636 
L 268.664413 54.849752 
L 272.778867 59.149682 
L 276.893321 65.495194 
L 281.007775 73.764805 
L 285.122228 83.802649 
L 289.236682 95.423357 
L 293.351136 108.417748 
L 297.46559 122.559072 
L 301.580043 137.609553 
L 305.694497 153.326975 
L 309.808951 169.471045 
L 313.923405 185.809323 
L 318.037858 202.122504 
L 322.152312 218.208919 
L 326.266766 233.888124 
L 330.38122 249.003534 
L 334.495673 263.424078 
L 338.610127 277.04491 
L 342.724581 289.787238 
L 346.839034 301.597371 
L 350.953488 312.445114 
L 355.067942 322.321628 
L 359.182396 331.236916 
L 363.296849 339.217063 
L 367.411303 346.301371 
L 371.525757 352.539497 
L 375.640211 357.988708 
L 379.754664 362.711322 
L 383.869118 366.772413 
L 387.983572 370.2378 
L 392.098026 373.172366 
L 396.212479 375.638684 
L 400.326933 377.695976 
L 404.441387 379.399346 
L 408.555841 380.799296 
L 412.670294 381.941454 
L 416.784748 382.866516 
L 420.899202 383.610328 
L 425.013656 384.204102 
L 429.128109 384.674709 
L 433.242563 385.04504 
L 437.357017 385.334393 
L 441.47147 385.558878 
L 445.585924 385.73181 
L 449.700378 385.864094 
L 453.814832 385.964575 
L 457.929285 386.040368 
L 462.043739 386.097141 
L 466.158193 386.139371 
" style="fill:none;stroke:#36a2eb;stroke-linecap:square;"/>
   </g>
   <g id="patch_3">
    <path d="M 36 402.93 
L 538.2 402.93 
" style="fill:none;stroke:#000000;stroke-linecap:square;stroke-linejoin:miter;stroke-width:0.8;"/>
   </g>
   <g id="legend_1">
    <g id="patch_4">
     <path d="M 410.290313 88.688125 
L 528.4 88.688125 
Q 531.2 88.688125 531.2 85.888125 
L 531.2 45.8 
Q 531.2 43 528.4 43 
L 410.290313 43 
Q 407.490313 43 407.490313 45.8 
L 407.490313 85.888125 
Q 407.490313 88.688125 410.290313 88.688125 
z
" style="fill:#ffffff;opacity:0.8;stroke:#cccccc;stroke-linejoin:miter;"/>
    </g>
    <g id="patch_5">
     <path d="M 413.090313 59.237813 
L 441.090313 59.237813 
L 441.090313 49.437813 
L 413.090313 49.437813 
z
" style="fill:#ff6384;opacity:0.5;stroke:#ff6384;stroke-linejoin:miter;"/>
    </g>
    <g id="text_1">
     <!-- base -->
     <defs>
      <path d="M 48.6875 27.296875 
Q 48.6875 37.203125 44.609375 42.84375 
Q 40.53125 48.484375 33.40625 48.484375 
Q 26.265625 48.484375 22.1875 42.84375 
Q 18.109375 37.203125 18.109375 27.296875 
Q 18.109375 17.390625 22.1875 11.75 
Q 26.265625 6.109375 33.40625 6.109375 
Q 40.53125 6.109375 44.609375 11.75 
Q 48.6875 17.390625 48.6875 27.296875 
z
M 18.109375 46.390625 
Q 20.953125 51.265625 25.265625 53.625 
Q 29.59375 56 35.59375 56 
Q 45.5625 56 51.78125 48.09375 
Q 58.015625 40.1875 58.015625 27.296875 
Q 58.015625 14.40625 51.78125 6.484375 
Q 45.5625 -1.421875 35.59375 -1.421875 
Q 29.59375 -1.421875 25.265625 0.953125 
Q 20.953125 3.328125 18.109375 8.203125 
L 18.109375 0 
L 9.078125 0 
L 9.078125 75.984375 
L 18.109375 75.984375 
z
" id="DejaVuSans-98"/>
      <path d="M 34.28125 27.484375 
Q 23.390625 27.484375 19.1875 25 
Q 14.984375 22.515625 14.984375 16.5 
Q 14.984375 11.71875 18.140625 8.90625 
Q 21.296875 6.109375 26.703125 6.109375 
Q 34.1875 6.109375 38.703125 11.40625 
Q 43.21875 16.703125 43.21875 25.484375 
L 43.21875 27.484375 
z
M 52.203125 31.203125 
L 52.203125 0 
L 43.21875 0 
L 43.21875 8.296875 
Q 40.140625 3.328125 35.546875 0.953125 
Q 30.953125 -1.421875 24.3125 -1.421875 
Q 15.921875 -1.421875 10.953125 3.296875 
Q 6 8.015625 6 15.921875 
Q 6 25.140625 12.171875 29.828125 
Q 18.359375 34.515625 30.609375 34.515625 
L 43.21875 34.515625 
L 43.21875 35.40625 
Q 43.21875 41.609375 39.140625 45 
Q 35.0625 48.390625 27.6875 48.390625 
Q 23 48.390625 18.546875 47.265625 
Q 14.109375 46.140625 10.015625 43.890625 
L 10.015625 52.203125 
Q 14.9375 54.109375 19.578125 55.046875 
Q 24.21875 56 28.609375 56 
Q 40.484375 56 46.34375 49.84375 
Q 52.203125 43.703125 52.203125 31.203125 
z
" id="DejaVuSans-97"/>
      <path d="M 44.28125 53.078125 
L 44.28125 44.578125 
Q 40.484375 46.53125 36.375 47.5 
Q 32.28125 48.484375 27.875 48.484375 
Q 21.1875 48.484375 17.84375 46.4375 
Q 14.5 44.390625 14.5 40.28125 
Q 14.5 37.15625 16.890625 35.375 
Q 19.28125 33.59375 26.515625 31.984375 
L 29.59375 31.296875 
Q 39.15625 29.25 43.1875 25.515625 
Q 47.21875 21.78125 47.21875 15.09375 
Q 47.21875 7.46875 41.1875 3.015625 
Q 35.15625 -1.421875 24.609375 -1.421875 
Q 20.21875 -1.421875 15.453125 -0.5625 
Q 10.6875 0.296875 5.421875 2 
L 5.421875 11.28125 
Q 10.40625 8.6875 15.234375 7.390625 
Q 20.0625 6.109375 24.8125 6.109375 
Q 31.15625 6.109375 34.5625 8.28125 
Q 37.984375 10.453125 37.984375 14.40625 
Q 37.984375 18.0625 35.515625 20.015625 
Q 33.0625 21.96875 24.703125 23.78125 
L 21.578125 24.515625 
Q 13.234375 26.265625 9.515625 29.90625 
Q 5.8125 33.546875 5.8125 39.890625 
Q 5.8125 47.609375 11.28125 51.796875 
Q 16.75 56 26.8125 56 
Q 31.78125 56 36.171875 55.265625 
Q 40.578125 54.546875 44.28125 53.078125 
z
" id="DejaVuSans-115"/>
      <path d="M 56.203125 29.59375 
L 56.203125 25.203125 
L 14.890625 25.203125 
Q 15.484375 15.921875 20.484375 11.0625 
Q 25.484375 6.203125 34.421875 6.203125 
Q 39.59375 6.203125 44.453125 7.46875 
Q 49.3125 8.734375 54.109375 11.28125 
L 54.109375 2.78125 
Q 49.265625 0.734375 44.1875 -0.34375 
Q 39.109375 -1.421875 33.890625 -1.421875 
Q 20.796875 -1.421875 13.15625 6.1875 
Q 5.515625 13.8125 5.515625 26.8125 
Q 5.515625 40.234375 12.765625 48.109375 
Q 20.015625 56 32.328125 56 
Q 43.359375 56 49.78125 48.890625 
Q 56.203125 41.796875 56.203125 29.59375 
z
M 47.21875 32.234375 
Q 47.125 39.59375 43.09375 43.984375 
Q 39.0625 48.390625 32.421875 48.390625 
Q 24.90625 48.390625 20.390625 44.140625 
Q 15.875 39.890625 15.1875 32.171875 
z
" id="DejaVuSans-101"/>
     </defs>
     <g transform="translate(452.290313 59.237813)scale(0.14 -0.14)">
      <use xlink:href="#DejaVuSans-98"/>
      <use x="63.476562" xlink:href="#DejaVuSans-97"/>
      <use x="124.755859" xlink:href="#DejaVuSans-115"/>
      <use x="176.855469" xlink:href="#DejaVuSans-101"/>
     </g>
    </g>
    <g id="patch_6">
     <path d="M 413.090313 79.787188 
L 441.090313 79.787188 
L 441.090313 69.987188 
L 413.090313 69.987188 
z
" style="fill:#36a2eb;opacity:0.5;stroke:#36a2eb;stroke-linejoin:miter;"/>
    </g>
    <g id="text_2">
     <!-- no_license -->
     <defs>
      <path d="M 54.890625 33.015625 
L 54.890625 0 
L 45.90625 0 
L 45.90625 32.71875 
Q 45.90625 40.484375 42.875 44.328125 
Q 39.84375 48.1875 33.796875 48.1875 
Q 26.515625 48.1875 22.3125 43.546875 
Q 18.109375 38.921875 18.109375 30.90625 
L 18.109375 0 
L 9.078125 0 
L 9.078125 54.6875 
L 18.109375 54.6875 
L 18.109375 46.1875 
Q 21.34375 51.125 25.703125 53.5625 
Q 30.078125 56 35.796875 56 
Q 45.21875 56 50.046875 50.171875 
Q 54.890625 44.34375 54.890625 33.015625 
z
" id="DejaVuSans-110"/>
      <path d="M 30.609375 48.390625 
Q 23.390625 48.390625 19.1875 42.75 
Q 14.984375 37.109375 14.984375 27.296875 
Q 14.984375 17.484375 19.15625 11.84375 
Q 23.34375 6.203125 30.609375 6.203125 
Q 37.796875 6.203125 41.984375 11.859375 
Q 46.1875 17.53125 46.1875 27.296875 
Q 46.1875 37.015625 41.984375 42.703125 
Q 37.796875 48.390625 30.609375 48.390625 
z
M 30.609375 56 
Q 42.328125 56 49.015625 48.375 
Q 55.71875 40.765625 55.71875 27.296875 
Q 55.71875 13.875 49.015625 6.21875 
Q 42.328125 -1.421875 30.609375 -1.421875 
Q 18.84375 -1.421875 12.171875 6.21875 
Q 5.515625 13.875 5.515625 27.296875 
Q 5.515625 40.765625 12.171875 48.375 
Q 18.84375 56 30.609375 56 
z
" id="DejaVuSans-111"/>
      <path d="M 50.984375 -16.609375 
L 50.984375 -23.578125 
L -0.984375 -23.578125 
L -0.984375 -16.609375 
z
" id="DejaVuSans-95"/>
      <path d="M 9.421875 75.984375 
L 18.40625 75.984375 
L 18.40625 0 
L 9.421875 0 
z
" id="DejaVuSans-108"/>
      <path d="M 9.421875 54.6875 
L 18.40625 54.6875 
L 18.40625 0 
L 9.421875 0 
z
M 9.421875 75.984375 
L 18.40625 75.984375 
L 18.40625 64.59375 
L 9.421875 64.59375 
z
" id="DejaVuSans-105"/>
      <path d="M 48.78125 52.59375 
L 48.78125 44.1875 
Q 44.96875 46.296875 41.140625 47.34375 
Q 37.3125 48.390625 33.40625 48.390625 
Q 24.65625 48.390625 19.8125 42.84375 
Q 14.984375 37.3125 14.984375 27.296875 
Q 14.984375 17.28125 19.8125 11.734375 
Q 24.65625 6.203125 33.40625 6.203125 
Q 37.3125 6.203125 41.140625 7.25 
Q 44.96875 8.296875 48.78125 10.40625 
L 48.78125 2.09375 
Q 45.015625 0.34375 40.984375 -0.53125 
Q 36.96875 -1.421875 32.421875 -1.421875 
Q 20.0625 -1.421875 12.78125 6.34375 
Q 5.515625 14.109375 5.515625 27.296875 
Q 5.515625 40.671875 12.859375 48.328125 
Q 20.21875 56 33.015625 56 
Q 37.15625 56 41.109375 55.140625 
Q 45.0625 54.296875 48.78125 52.59375 
z
" id="DejaVuSans-99"/>
     </defs>
     <g transform="translate(452.290313 79.787188)scale(0.14 -0.14)">
      <use xlink:href="#DejaVuSans-110"/>
      <use x="63.378906" xlink:href="#DejaVuSans-111"/>
      <use x="124.560547" xlink:href="#DejaVuSans-95"/>
      <use x="174.560547" xlink:href="#DejaVuSans-108"/>
      <use x="202.34375" xlink:href="#DejaVuSans-105"/>
      <use x="230.126953" xlink:href="#DejaVuSans-99"/>
      <use x="285.107422" xlink:href="#DejaVuSans-101"/>
      <use x="346.630859" xlink:href="#DejaVuSans-110"/>
      <use x="410.009766" xlink:href="#DejaVuSans-115"/>
      <use x="462.109375" xlink:href="#DejaVuSans-101"/>
     </g>
    </g>
   </g>
  </g>
  <g id="axes_2">
   <g id="patch_7">
    <path d="M 36 525.24 
L 538.2 525.24 
L 538.2 402.93 
L 36 402.93 
z
" style="fill:none;"/>
   </g>
   <g id="patch_8">
    <path clip-path="url(#p574c8eb905)" d="M 209.813888 519.680455 
L 410.785474 519.680455 
L 410.785474 482.616818 
L 209.813888 482.616818 
z
" style="fill:#ff6384;opacity:0.5;"/>
   </g>
   <g id="patch_9">
    <path clip-path="url(#p574c8eb905)" d="M 162.696657 445.553182 
L 362.288808 445.553182 
L 362.288808 408.489545 
L 162.696657 408.489545 
z
" style="fill:#36a2eb;opacity:0.5;"/>
   </g>
   <g id="matplotlib.axis_1">
    <g id="xtick_1">
     <g id="line2d_3">
      <defs>
       <path d="M 0 0 
L 0 3.5 
" id="m8e251f1479" style="stroke:#000000;stroke-width:0.8;"/>
      </defs>
      <g>
       <use style="stroke:#000000;stroke-width:0.8;" x="100.6846" xlink:href="#m8e251f1479" y="525.24"/>
      </g>
     </g>
     <g id="text_3">
      <!-- 5.0 -->
      <defs>
       <path d="M 10.796875 72.90625 
L 49.515625 72.90625 
L 49.515625 64.59375 
L 19.828125 64.59375 
L 19.828125 46.734375 
Q 21.96875 47.46875 24.109375 47.828125 
Q 26.265625 48.1875 28.421875 48.1875 
Q 40.625 48.1875 47.75 41.5 
Q 54.890625 34.8125 54.890625 23.390625 
Q 54.890625 11.625 47.5625 5.09375 
Q 40.234375 -1.421875 26.90625 -1.421875 
Q 22.3125 -1.421875 17.546875 -0.640625 
Q 12.796875 0.140625 7.71875 1.703125 
L 7.71875 11.625 
Q 12.109375 9.234375 16.796875 8.0625 
Q 21.484375 6.890625 26.703125 6.890625 
Q 35.15625 6.890625 40.078125 11.328125 
Q 45.015625 15.765625 45.015625 23.390625 
Q 45.015625 31 40.078125 35.4375 
Q 35.15625 39.890625 26.703125 39.890625 
Q 22.75 39.890625 18.8125 39.015625 
Q 14.890625 38.140625 10.796875 36.28125 
z
" id="DejaVuSans-53"/>
       <path d="M 10.6875 12.40625 
L 21 12.40625 
L 21 0 
L 10.6875 0 
z
" id="DejaVuSans-46"/>
       <path d="M 31.78125 66.40625 
Q 24.171875 66.40625 20.328125 58.90625 
Q 16.5 51.421875 16.5 36.375 
Q 16.5 21.390625 20.328125 13.890625 
Q 24.171875 6.390625 31.78125 6.390625 
Q 39.453125 6.390625 43.28125 13.890625 
Q 47.125 21.390625 47.125 36.375 
Q 47.125 51.421875 43.28125 58.90625 
Q 39.453125 66.40625 31.78125 66.40625 
z
M 31.78125 74.21875 
Q 44.046875 74.21875 50.515625 64.515625 
Q 56.984375 54.828125 56.984375 36.375 
Q 56.984375 17.96875 50.515625 8.265625 
Q 44.046875 -1.421875 31.78125 -1.421875 
Q 19.53125 -1.421875 13.0625 8.265625 
Q 6.59375 17.96875 6.59375 36.375 
Q 6.59375 54.828125 13.0625 64.515625 
Q 19.53125 74.21875 31.78125 74.21875 
z
" id="DejaVuSans-48"/>
      </defs>
      <g transform="translate(89.552413 542.877813)scale(0.14 -0.14)">
       <use xlink:href="#DejaVuSans-53"/>
       <use x="63.623047" xlink:href="#DejaVuSans-46"/>
       <use x="95.410156" xlink:href="#DejaVuSans-48"/>
      </g>
     </g>
    </g>
    <g id="xtick_2">
     <g id="line2d_4">
      <g>
       <use style="stroke:#000000;stroke-width:0.8;" x="192.621039" xlink:href="#m8e251f1479" y="525.24"/>
      </g>
     </g>
     <g id="text_4">
      <!-- 5.5 -->
      <g transform="translate(181.488852 542.877813)scale(0.14 -0.14)">
       <use xlink:href="#DejaVuSans-53"/>
       <use x="63.623047" xlink:href="#DejaVuSans-46"/>
       <use x="95.410156" xlink:href="#DejaVuSans-53"/>
      </g>
     </g>
    </g>
    <g id="xtick_3">
     <g id="line2d_5">
      <g>
       <use style="stroke:#000000;stroke-width:0.8;" x="284.557478" xlink:href="#m8e251f1479" y="525.24"/>
      </g>
     </g>
     <g id="text_5">
      <!-- 6.0 -->
      <defs>
       <path d="M 33.015625 40.375 
Q 26.375 40.375 22.484375 35.828125 
Q 18.609375 31.296875 18.609375 23.390625 
Q 18.609375 15.53125 22.484375 10.953125 
Q 26.375 6.390625 33.015625 6.390625 
Q 39.65625 6.390625 43.53125 10.953125 
Q 47.40625 15.53125 47.40625 23.390625 
Q 47.40625 31.296875 43.53125 35.828125 
Q 39.65625 40.375 33.015625 40.375 
z
M 52.59375 71.296875 
L 52.59375 62.3125 
Q 48.875 64.0625 45.09375 64.984375 
Q 41.3125 65.921875 37.59375 65.921875 
Q 27.828125 65.921875 22.671875 59.328125 
Q 17.53125 52.734375 16.796875 39.40625 
Q 19.671875 43.65625 24.015625 45.921875 
Q 28.375 48.1875 33.59375 48.1875 
Q 44.578125 48.1875 50.953125 41.515625 
Q 57.328125 34.859375 57.328125 23.390625 
Q 57.328125 12.15625 50.6875 5.359375 
Q 44.046875 -1.421875 33.015625 -1.421875 
Q 20.359375 -1.421875 13.671875 8.265625 
Q 6.984375 17.96875 6.984375 36.375 
Q 6.984375 53.65625 15.1875 63.9375 
Q 23.390625 74.21875 37.203125 74.21875 
Q 40.921875 74.21875 44.703125 73.484375 
Q 48.484375 72.75 52.59375 71.296875 
z
" id="DejaVuSans-54"/>
      </defs>
      <g transform="translate(273.425291 542.877813)scale(0.14 -0.14)">
       <use xlink:href="#DejaVuSans-54"/>
       <use x="63.623047" xlink:href="#DejaVuSans-46"/>
       <use x="95.410156" xlink:href="#DejaVuSans-48"/>
      </g>
     </g>
    </g>
    <g id="xtick_4">
     <g id="line2d_6">
      <g>
       <use style="stroke:#000000;stroke-width:0.8;" x="376.493917" xlink:href="#m8e251f1479" y="525.24"/>
      </g>
     </g>
     <g id="text_6">
      <!-- 6.5 -->
      <g transform="translate(365.36173 542.877813)scale(0.14 -0.14)">
       <use xlink:href="#DejaVuSans-54"/>
       <use x="63.623047" xlink:href="#DejaVuSans-46"/>
       <use x="95.410156" xlink:href="#DejaVuSans-53"/>
      </g>
     </g>
    </g>
    <g id="xtick_5">
     <g id="line2d_7">
      <g>
       <use style="stroke:#000000;stroke-width:0.8;" x="468.430356" xlink:href="#m8e251f1479" y="525.24"/>
      </g>
     </g>
     <g id="text_7">
      <!-- 7.0 -->
      <defs>
       <path d="M 8.203125 72.90625 
L 55.078125 72.90625 
L 55.078125 68.703125 
L 28.609375 0 
L 18.3125 0 
L 43.21875 64.59375 
L 8.203125 64.59375 
z
" id="DejaVuSans-55"/>
      </defs>
      <g transform="translate(457.298169 542.877813)scale(0.14 -0.14)">
       <use xlink:href="#DejaVuSans-55"/>
       <use x="63.623047" xlink:href="#DejaVuSans-46"/>
       <use x="95.410156" xlink:href="#DejaVuSans-48"/>
      </g>
     </g>
    </g>
   </g>
   <g id="line2d_8">
    <path clip-path="url(#p574c8eb905)" d="M 310.299681 525.24 
L 310.299681 402.93 
" style="fill:none;stroke:#ff6384;stroke-dasharray:5.55,2.4;stroke-dashoffset:0;stroke-opacity:0.8;stroke-width:1.5;"/>
   </g>
   <g id="line2d_9">
    <path clip-path="url(#p574c8eb905)" d="M 262.492733 525.24 
L 262.492733 402.93 
" style="fill:none;stroke:#36a2eb;stroke-dasharray:5.55,2.4;stroke-dashoffset:0;stroke-opacity:0.8;stroke-width:1.5;"/>
   </g>
   <g id="patch_10">
    <path d="M 36 525.24 
L 538.2 525.24 
" style="fill:none;stroke:#000000;stroke-linecap:square;stroke-linejoin:miter;stroke-width:0.8;"/>
   </g>
  </g>
 </g>
 <defs>
  <clipPath id="p0e6b5a2c7b">
   <rect height="366.93" width="502.2" x="36" y="36"/>
  </clipPath>
  <clipPath id="p574c8eb905">
   <rect height="122.31" width="502.2" x="36" y="402.93"/>
  </clipPath>
 </defs>
</svg>
