<?xml version="1.0" encoding="utf-8" standalone="no"?>
<!DOCTYPE svg PUBLIC "-//W3C//DTD SVG 1.1//EN"
  "http://www.w3.org/Graphics/SVG/1.1/DTD/svg11.dtd">
<!-- Created with matplotlib (https://matplotlib.org/) -->
<svg height="581.789375pt" version="1.1" viewBox="0 0 574.2 581.789375" width="574.2pt" xmlns="http://www.w3.org/2000/svg" xmlns:xlink="http://www.w3.org/1999/xlink">
 <defs>
  <style type="text/css">
*{stroke-linecap:butt;stroke-linejoin:round;}
  </style>
 </defs>
 <g id="figure_1">
  <g id="patch_1">
   <path d="M 0 581.789375 
L 574.2 581.789375 
L 574.2 0 
L 0 0 
z
" style="fill:none;"/>
  </g>
  <g id="axes_1">
   <g id="patch_2">
    <path d="M 36 402.93 
L 538.2 402.93 
L 538.2 36 
L 36 36 
z
" style="fill:none;"/>
   </g>
   <g id="PolyCollection_1">
    <defs>
     <path d="M 108.315023 -195.538011 
L 108.315023 -195.649129 
L 112.426717 -195.69103 
L 116.538411 -195.747359 
L 120.650105 -195.82256 
L 124.761799 -195.922256 
L 128.873493 -196.053506 
L 132.985187 -196.225088 
L 137.096881 -196.447819 
L 141.208575 -196.734912 
L 145.320269 -197.10235 
L 149.431963 -197.569281 
L 153.543657 -198.158417 
L 157.655351 -198.896419 
L 161.767045 -199.814255 
L 165.878739 -200.947492 
L 169.990433 -202.336505 
L 174.102126 -204.026571 
L 178.21382 -206.067792 
L 182.325514 -208.514845 
L 186.437208 -211.426488 
L 190.548902 -214.864806 
L 194.660596 -218.894175 
L 198.77229 -223.579899 
L 202.883984 -228.986544 
L 206.995678 -235.175943 
L 211.107372 -242.204913 
L 215.219066 -250.122725 
L 219.33076 -258.968373 
L 223.442454 -268.767738 
L 227.554148 -279.530746 
L 231.665842 -291.248627 
L 235.777536 -303.891421 
L 239.88923 -317.405857 
L 244.000924 -331.713758 
L 248.112618 -346.711096 
L 252.224312 -362.267826 
L 256.336006 -378.228585 
L 260.4477 -394.41434 
L 264.559394 -410.624994 
L 268.671088 -426.642958 
L 272.782782 -442.237606 
L 276.894476 -457.170524 
L 281.00617 -471.201386 
L 285.117864 -484.094274 
L 289.229558 -495.624209 
L 293.341252 -505.583644 
L 297.452946 -513.788659 
L 301.56464 -520.084605 
L 305.676334 -524.350946 
L 309.788028 -526.505103 
L 313.899722 -526.505103 
L 318.011416 -524.350946 
L 322.12311 -520.084605 
L 326.234804 -513.788659 
L 330.346498 -505.583644 
L 334.458192 -495.624209 
L 338.569886 -484.094274 
L 342.68158 -471.201386 
L 346.793274 -457.170524 
L 350.904968 -442.237606 
L 355.016662 -426.642958 
L 359.128356 -410.624994 
L 363.24005 -394.41434 
L 367.351744 -378.228585 
L 371.463438 -362.267826 
L 375.575132 -346.711096 
L 379.686826 -331.713758 
L 383.79852 -317.405857 
L 387.910214 -303.891421 
L 392.021908 -291.248627 
L 396.133602 -279.530746 
L 400.245296 -268.767738 
L 404.35699 -258.968373 
L 408.468684 -250.122725 
L 412.580378 -242.204913 
L 416.692072 -235.175943 
L 420.803766 -228.986544 
L 424.91546 -223.579899 
L 429.027154 -218.894175 
L 433.138848 -214.864806 
L 437.250542 -211.426488 
L 441.362236 -208.514845 
L 445.47393 -206.067792 
L 449.585624 -204.026571 
L 453.697317 -202.336505 
L 457.809011 -200.947492 
L 461.920705 -199.814255 
L 466.032399 -198.896419 
L 470.144093 -198.158417 
L 474.255787 -197.569281 
L 478.367481 -197.10235 
L 482.479175 -196.734912 
L 486.590869 -196.447819 
L 490.702563 -196.225088 
L 494.814257 -196.053506 
L 498.925951 -195.922256 
L 503.037645 -195.82256 
L 507.149339 -195.747359 
L 511.261033 -195.69103 
L 515.372727 -195.649129 
L 515.372727 -195.538011 
L 515.372727 -195.538011 
L 511.261033 -195.538011 
L 507.149339 -195.538011 
L 503.037645 -195.538011 
L 498.925951 -195.538011 
L 494.814257 -195.538011 
L 490.702563 -195.538011 
L 486.590869 -195.538011 
L 482.479175 -195.538011 
L 478.367481 -195.538011 
L 474.255787 -195.538011 
L 470.144093 -195.538011 
L 466.032399 -195.538011 
L 461.920705 -195.538011 
L 457.809011 -195.538011 
L 453.697317 -195.538011 
L 449.585624 -195.538011 
L 445.47393 -195.538011 
L 441.362236 -195.538011 
L 437.250542 -195.538011 
L 433.138848 -195.538011 
L 429.027154 -195.538011 
L 424.91546 -195.538011 
L 420.803766 -195.538011 
L 416.692072 -195.538011 
L 412.580378 -195.538011 
L 408.468684 -195.538011 
L 404.35699 -195.538011 
L 400.245296 -195.538011 
L 396.133602 -195.538011 
L 392.021908 -195.538011 
L 387.910214 -195.538011 
L 383.79852 -195.538011 
L 379.686826 -195.538011 
L 375.575132 -195.538011 
L 371.463438 -195.538011 
L 367.351744 -195.538011 
L 363.24005 -195.538011 
L 359.128356 -195.538011 
L 355.016662 -195.538011 
L 350.904968 -195.538011 
L 346.793274 -195.538011 
L 342.68158 -195.538011 
L 338.569886 -195.538011 
L 334.458192 -195.538011 
L 330.346498 -195.538011 
L 326.234804 -195.538011 
L 322.12311 -195.538011 
L 318.011416 -195.538011 
L 313.899722 -195.538011 
L 309.788028 -195.538011 
L 305.676334 -195.538011 
L 301.56464 -195.538011 
L 297.452946 -195.538011 
L 293.341252 -195.538011 
L 289.229558 -195.538011 
L 285.117864 -195.538011 
L 281.00617 -195.538011 
L 276.894476 -195.538011 
L 272.782782 -195.538011 
L 268.671088 -195.538011 
L 264.559394 -195.538011 
L 260.4477 -195.538011 
L 256.336006 -195.538011 
L 252.224312 -195.538011 
L 248.112618 -195.538011 
L 244.000924 -195.538011 
L 239.88923 -195.538011 
L 235.777536 -195.538011 
L 231.665842 -195.538011 
L 227.554148 -195.538011 
L 223.442454 -195.538011 
L 219.33076 -195.538011 
L 215.219066 -195.538011 
L 211.107372 -195.538011 
L 206.995678 -195.538011 
L 202.883984 -195.538011 
L 198.77229 -195.538011 
L 194.660596 -195.538011 
L 190.548902 -195.538011 
L 186.437208 -195.538011 
L 182.325514 -195.538011 
L 178.21382 -195.538011 
L 174.102126 -195.538011 
L 169.990433 -195.538011 
L 165.878739 -195.538011 
L 161.767045 -195.538011 
L 157.655351 -195.538011 
L 153.543657 -195.538011 
L 149.431963 -195.538011 
L 145.320269 -195.538011 
L 141.208575 -195.538011 
L 137.096881 -195.538011 
L 132.985187 -195.538011 
L 128.873493 -195.538011 
L 124.761799 -195.538011 
L 120.650105 -195.538011 
L 116.538411 -195.538011 
L 112.426717 -195.538011 
L 108.315023 -195.538011 
z
" id="m2b5b1186c1" style="stroke:#ff6384;stroke-opacity:0.5;"/>
    </defs>
    <g clip-path="url(#pe8a4e373cf)">
     <use style="fill:#ff6384;fill-opacity:0.5;stroke:#ff6384;stroke-opacity:0.5;" x="0" xlink:href="#m2b5b1186c1" y="581.789375"/>
    </g>
   </g>
   <g id="PolyCollection_2">
    <defs>
     <path d="M 58.827273 -195.538011 
L 58.827273 -195.650004 
L 62.906849 -195.692234 
L 66.986425 -195.749007 
L 71.066002 -195.8248 
L 75.145578 -195.925281 
L 79.225154 -196.057565 
L 83.304731 -196.230497 
L 87.384307 -196.454982 
L 91.463883 -196.744335 
L 95.54346 -197.114666 
L 99.623036 -197.585273 
L 103.702612 -198.179047 
L 107.782189 -198.922859 
L 111.861765 -199.847921 
L 115.941341 -200.990079 
L 120.020918 -202.390029 
L 124.100494 -204.093399 
L 128.18007 -206.150691 
L 132.259646 -208.617009 
L 136.339223 -211.551575 
L 140.418799 -215.016962 
L 144.498375 -219.078053 
L 148.577952 -223.800667 
L 152.657528 -229.249878 
L 156.737104 -235.488004 
L 160.816681 -242.572312 
L 164.896257 -250.552459 
L 168.975833 -259.467747 
L 173.05541 -269.344261 
L 177.134986 -280.192004 
L 181.214562 -292.002137 
L 185.294139 -304.744465 
L 189.373715 -318.365297 
L 193.453291 -332.785841 
L 197.532868 -347.901251 
L 201.612444 -363.580456 
L 205.69202 -379.666871 
L 209.771597 -395.980052 
L 213.851173 -412.31833 
L 217.930749 -428.4624 
L 222.010325 -444.179822 
L 226.089902 -459.230303 
L 230.169478 -473.371627 
L 234.249054 -486.366018 
L 238.328631 -497.986726 
L 242.408207 -508.02457 
L 246.487783 -516.294181 
L 250.56736 -522.639693 
L 254.646936 -526.939623 
L 258.726512 -529.110739 
L 262.806089 -529.110739 
L 266.885665 -526.939623 
L 270.965241 -522.639693 
L 275.044818 -516.294181 
L 279.124394 -508.02457 
L 283.20397 -497.986726 
L 287.283547 -486.366018 
L 291.363123 -473.371627 
L 295.442699 -459.230303 
L 299.522276 -444.179822 
L 303.601852 -428.4624 
L 307.681428 -412.31833 
L 311.761005 -395.980052 
L 315.840581 -379.666871 
L 319.920157 -363.580456 
L 323.999733 -347.901251 
L 328.07931 -332.785841 
L 332.158886 -318.365297 
L 336.238462 -304.744465 
L 340.318039 -292.002137 
L 344.397615 -280.192004 
L 348.477191 -269.344261 
L 352.556768 -259.467747 
L 356.636344 -250.552459 
L 360.71592 -242.572312 
L 364.795497 -235.488004 
L 368.875073 -229.249878 
L 372.954649 -223.800667 
L 377.034226 -219.078053 
L 381.113802 -215.016962 
L 385.193378 -211.551575 
L 389.272955 -208.617009 
L 393.352531 -206.150691 
L 397.432107 -204.093399 
L 401.511684 -202.390029 
L 405.59126 -200.990079 
L 409.670836 -199.847921 
L 413.750412 -198.922859 
L 417.829989 -198.179047 
L 421.909565 -197.585273 
L 425.989141 -197.114666 
L 430.068718 -196.744335 
L 434.148294 -196.454982 
L 438.22787 -196.230497 
L 442.307447 -196.057565 
L 446.387023 -195.925281 
L 450.466599 -195.8248 
L 454.546176 -195.749007 
L 458.625752 -195.692234 
L 462.705328 -195.650004 
L 462.705328 -195.538011 
L 462.705328 -195.538011 
L 458.625752 -195.538011 
L 454.546176 -195.538011 
L 450.466599 -195.538011 
L 446.387023 -195.538011 
L 442.307447 -195.538011 
L 438.22787 -195.538011 
L 434.148294 -195.538011 
L 430.068718 -195.538011 
L 425.989141 -195.538011 
L 421.909565 -195.538011 
L 417.829989 -195.538011 
L 413.750412 -195.538011 
L 409.670836 -195.538011 
L 405.59126 -195.538011 
L 401.511684 -195.538011 
L 397.432107 -195.538011 
L 393.352531 -195.538011 
L 389.272955 -195.538011 
L 385.193378 -195.538011 
L 381.113802 -195.538011 
L 377.034226 -195.538011 
L 372.954649 -195.538011 
L 368.875073 -195.538011 
L 364.795497 -195.538011 
L 360.71592 -195.538011 
L 356.636344 -195.538011 
L 352.556768 -195.538011 
L 348.477191 -195.538011 
L 344.397615 -195.538011 
L 340.318039 -195.538011 
L 336.238462 -195.538011 
L 332.158886 -195.538011 
L 328.07931 -195.538011 
L 323.999733 -195.538011 
L 319.920157 -195.538011 
L 315.840581 -195.538011 
L 311.761005 -195.538011 
L 307.681428 -195.538011 
L 303.601852 -195.538011 
L 299.522276 -195.538011 
L 295.442699 -195.538011 
L 291.363123 -195.538011 
L 287.283547 -195.538011 
L 283.20397 -195.538011 
L 279.124394 -195.538011 
L 275.044818 -195.538011 
L 270.965241 -195.538011 
L 266.885665 -195.538011 
L 262.806089 -195.538011 
L 258.726512 -195.538011 
L 254.646936 -195.538011 
L 250.56736 -195.538011 
L 246.487783 -195.538011 
L 242.408207 -195.538011 
L 238.328631 -195.538011 
L 234.249054 -195.538011 
L 230.169478 -195.538011 
L 226.089902 -195.538011 
L 222.010325 -195.538011 
L 217.930749 -195.538011 
L 213.851173 -195.538011 
L 209.771597 -195.538011 
L 205.69202 -195.538011 
L 201.612444 -195.538011 
L 197.532868 -195.538011 
L 193.453291 -195.538011 
L 189.373715 -195.538011 
L 185.294139 -195.538011 
L 181.214562 -195.538011 
L 177.134986 -195.538011 
L 173.05541 -195.538011 
L 168.975833 -195.538011 
L 164.896257 -195.538011 
L 160.816681 -195.538011 
L 156.737104 -195.538011 
L 152.657528 -195.538011 
L 148.577952 -195.538011 
L 144.498375 -195.538011 
L 140.418799 -195.538011 
L 136.339223 -195.538011 
L 132.259646 -195.538011 
L 128.18007 -195.538011 
L 124.100494 -195.538011 
L 120.020918 -195.538011 
L 115.941341 -195.538011 
L 111.861765 -195.538011 
L 107.782189 -195.538011 
L 103.702612 -195.538011 
L 99.623036 -195.538011 
L 95.54346 -195.538011 
L 91.463883 -195.538011 
L 87.384307 -195.538011 
L 83.304731 -195.538011 
L 79.225154 -195.538011 
L 75.145578 -195.538011 
L 71.066002 -195.538011 
L 66.986425 -195.538011 
L 62.906849 -195.538011 
L 58.827273 -195.538011 
z
" id="m327b56acfa" style="stroke:#36a2eb;stroke-opacity:0.5;"/>
    </defs>
    <g clip-path="url(#pe8a4e373cf)">
     <use style="fill:#36a2eb;fill-opacity:0.5;stroke:#36a2eb;stroke-opacity:0.5;" x="0" xlink:href="#m327b56acfa" y="581.789375"/>
    </g>
   </g>
   <g id="line2d_1">
    <path clip-path="url(#pe8a4e373cf)" d="M 108.315023 386.140246 
L 112.426717 386.098345 
L 116.538411 386.042016 
L 120.650105 385.966815 
L 124.761799 385.867119 
L 128.873493 385.735869 
L 132.985187 385.564287 
L 137.096881 385.341556 
L 141.208575 385.054463 
L 145.320269 384.687025 
L 149.431963 384.220094 
L 153.543657 383.630958 
L 157.655351 382.892956 
L 161.767045 381.97512 
L 165.878739 380.841883 
L 169.990433 379.45287 
L 174.102126 377.762804 
L 178.21382 375.721583 
L 182.325514 373.27453 
L 186.437208 370.362887 
L 190.548902 366.924569 
L 194.660596 362.8952 
L 198.77229 358.209476 
L 202.883984 352.802831 
L 206.995678 346.613432 
L 211.107372 339.584462 
L 215.219066 331.66665 
L 219.33076 322.821002 
L 223.442454 313.021637 
L 227.554148 302.258629 
L 231.665842 290.540748 
L 235.777536 277.897954 
L 239.88923 264.383518 
L 244.000924 250.075617 
L 248.112618 235.078279 
L 252.224312 219.521549 
L 256.336006 203.56079 
L 260.4477 187.375035 
L 264.559394 171.164381 
L 268.671088 155.146417 
L 272.782782 139.551769 
L 276.894476 124.618851 
L 281.00617 110.587989 
L 285.117864 97.695101 
L 289.229558 86.165166 
L 293.341252 76.205731 
L 297.452946 68.000716 
L 301.56464 61.70477 
L 305.676334 57.438429 
L 309.788028 55.284272 
L 313.899722 55.284272 
L 318.011416 57.438429 
L 322.12311 61.70477 
L 326.234804 68.000716 
L 330.346498 76.205731 
L 334.458192 86.165166 
L 338.569886 97.695101 
L 342.68158 110.587989 
L 346.793274 124.618851 
L 350.904968 139.551769 
L 355.016662 155.146417 
L 359.128356 171.164381 
L 363.24005 187.375035 
L 367.351744 203.56079 
L 371.463438 219.521549 
L 375.575132 235.078279 
L 379.686826 250.075617 
L 383.79852 264.383518 
L 387.910214 277.897954 
L 392.021908 290.540748 
L 396.133602 302.258629 
L 400.245296 313.021637 
L 404.35699 322.821002 
L 408.468684 331.66665 
L 412.580378 339.584462 
L 416.692072 346.613432 
L 420.803766 352.802831 
L 424.91546 358.209476 
L 429.027154 362.8952 
L 433.138848 366.924569 
L 437.250542 370.362887 
L 441.362236 373.27453 
L 445.47393 375.721583 
L 449.585624 377.762804 
L 453.697317 379.45287 
L 457.809011 380.841883 
L 461.920705 381.97512 
L 466.032399 382.892956 
L 470.144093 383.630958 
L 474.255787 384.220094 
L 478.367481 384.687025 
L 482.479175 385.054463 
L 486.590869 385.341556 
L 490.702563 385.564287 
L 494.814257 385.735869 
L 498.925951 385.867119 
L 503.037645 385.966815 
L 507.149339 386.042016 
L 511.261033 386.098345 
L 515.372727 386.140246 
" style="fill:none;stroke:#ff6384;stroke-linecap:square;"/>
   </g>
   <g id="line2d_2">
    <path clip-path="url(#pe8a4e373cf)" d="M 58.827273 386.139371 
L 62.906849 386.097141 
L 66.986425 386.040368 
L 71.066002 385.964575 
L 75.145578 385.864094 
L 79.225154 385.73181 
L 83.304731 385.558878 
L 87.384307 385.334393 
L 91.463883 385.04504 
L 95.54346 384.674709 
L 99.623036 384.204102 
L 103.702612 383.610328 
L 107.782189 382.866516 
L 111.861765 381.941454 
L 115.941341 380.799296 
L 120.020918 379.399346 
L 124.100494 377.695976 
L 128.18007 375.638684 
L 132.259646 373.172366 
L 136.339223 370.2378 
L 140.418799 366.772413 
L 144.498375 362.711322 
L 148.577952 357.988708 
L 152.657528 352.539497 
L 156.737104 346.301371 
L 160.816681 339.217063 
L 164.896257 331.236916 
L 168.975833 322.321628 
L 173.05541 312.445114 
L 177.134986 301.597371 
L 181.214562 289.787238 
L 185.294139 277.04491 
L 189.373715 263.424078 
L 193.453291 249.003534 
L 197.532868 233.888124 
L 201.612444 218.208919 
L 205.69202 202.122504 
L 209.771597 185.809323 
L 213.851173 169.471045 
L 217.930749 153.326975 
L 222.010325 137.609553 
L 226.089902 122.559072 
L 230.169478 108.417748 
L 234.249054 95.423357 
L 238.328631 83.802649 
L 242.408207 73.764805 
L 246.487783 65.495194 
L 250.56736 59.149682 
L 254.646936 54.849752 
L 258.726512 52.678636 
L 262.806089 52.678636 
L 266.885665 54.849752 
L 270.965241 59.149682 
L 275.044818 65.495194 
L 279.124394 73.764805 
L 283.20397 83.802649 
L 287.283547 95.423357 
L 291.363123 108.417748 
L 295.442699 122.559072 
L 299.522276 137.609553 
L 303.601852 153.326975 
L 307.681428 169.471045 
L 311.761005 185.809323 
L 315.840581 202.122504 
L 319.920157 218.208919 
L 323.999733 233.888124 
L 328.07931 249.003534 
L 332.158886 263.424078 
L 336.238462 277.04491 
L 340.318039 289.787238 
L 344.397615 301.597371 
L 348.477191 312.445114 
L 352.556768 322.321628 
L 356.636344 331.236916 
L 360.71592 339.217063 
L 364.795497 346.301371 
L 368.875073 352.539497 
L 372.954649 357.988708 
L 377.034226 362.711322 
L 381.113802 366.772413 
L 385.193378 370.2378 
L 389.272955 373.172366 
L 393.352531 375.638684 
L 397.432107 377.695976 
L 401.511684 379.399346 
L 405.59126 380.799296 
L 409.670836 381.941454 
L 413.750412 382.866516 
L 417.829989 383.610328 
L 421.909565 384.204102 
L 425.989141 384.674709 
L 430.068718 385.04504 
L 434.148294 385.334393 
L 438.22787 385.558878 
L 442.307447 385.73181 
L 446.387023 385.864094 
L 450.466599 385.964575 
L 454.546176 386.040368 
L 458.625752 386.097141 
L 462.705328 386.139371 
" style="fill:none;stroke:#36a2eb;stroke-linecap:square;"/>
   </g>
   <g id="patch_3">
    <path d="M 36 402.93 
L 538.2 402.93 
" style="fill:none;stroke:#000000;stroke-linecap:square;stroke-linejoin:miter;stroke-width:0.8;"/>
   </g>
   <g id="legend_1">
    <g id="patch_4">
     <path d="M 410.290313 88.688125 
L 528.4 88.688125 
Q 531.2 88.688125 531.2 85.888125 
L 531.2 45.8 
Q 531.2 43 528.4 43 
L 410.290313 43 
Q 407.490313 43 407.490313 45.8 
L 407.490313 85.888125 
Q 407.490313 88.688125 410.290313 88.688125 
z
" style="fill:#ffffff;opacity:0.8;stroke:#cccccc;stroke-linejoin:miter;"/>
    </g>
    <g id="patch_5">
     <path d="M 413.090313 59.237813 
L 441.090313 59.237813 
L 441.090313 49.437813 
L 413.090313 49.437813 
z
" style="fill:#ff6384;opacity:0.5;stroke:#ff6384;stroke-linejoin:miter;"/>
    </g>
    <g id="text_1">
     <!-- base -->
     <defs>
      <path d="M 48.6875 27.296875 
Q 48.6875 37.203125 44.609375 42.84375 
Q 40.53125 48.484375 33.40625 48.484375 
Q 26.265625 48.484375 22.1875 42.84375 
Q 18.109375 37.203125 18.109375 27.296875 
Q 18.109375 17.390625 22.1875 11.75 
Q 26.265625 6.109375 33.40625 6.109375 
Q 40.53125 6.109375 44.609375 11.75 
Q 48.6875 17.390625 48.6875 27.296875 
z
M 18.109375 46.390625 
Q 20.953125 51.265625 25.265625 53.625 
Q 29.59375 56 35.59375 56 
Q 45.5625 56 51.78125 48.09375 
Q 58.015625 40.1875 58.015625 27.296875 
Q 58.015625 14.40625 51.78125 6.484375 
Q 45.5625 -1.421875 35.59375 -1.421875 
Q 29.59375 -1.421875 25.265625 0.953125 
Q 20.953125 3.328125 18.109375 8.203125 
L 18.109375 0 
L 9.078125 0 
L 9.078125 75.984375 
L 18.109375 75.984375 
z
" id="DejaVuSans-98"/>
      <path d="M 34.28125 27.484375 
Q 23.390625 27.484375 19.1875 25 
Q 14.984375 22.515625 14.984375 16.5 
Q 14.984375 11.71875 18.140625 8.90625 
Q 21.296875 6.109375 26.703125 6.109375 
Q 34.1875 6.109375 38.703125 11.40625 
Q 43.21875 16.703125 43.21875 25.484375 
L 43.21875 27.484375 
z
M 52.203125 31.203125 
L 52.203125 0 
L 43.21875 0 
L 43.21875 8.296875 
Q 40.140625 3.328125 35.546875 0.953125 
Q 30.953125 -1.421875 24.3125 -1.421875 
Q 15.921875 -1.421875 10.953125 3.296875 
Q 6 8.015625 6 15.921875 
Q 6 25.140625 12.171875 29.828125 
Q 18.359375 34.515625 30.609375 34.515625 
L 43.21875 34.515625 
L 43.21875 35.40625 
Q 43.21875 41.609375 39.140625 45 
Q 35.0625 48.390625 27.6875 48.390625 
Q 23 48.390625 18.546875 47.265625 
Q 14.109375 46.140625 10.015625 43.890625 
L 10.015625 52.203125 
Q 14.9375 54.109375 19.578125 55.046875 
Q 24.21875 56 28.609375 56 
Q 40.484375 56 46.34375 49.84375 
Q 52.203125 43.703125 52.203125 31.203125 
z
" id="DejaVuSans-97"/>
      <path d="M 44.28125 53.078125 
L 44.28125 44.578125 
Q 40.484375 46.53125 36.375 47.5 
Q 32.28125 48.484375 27.875 48.484375 
Q 21.1875 48.484375 17.84375 46.4375 
Q 14.5 44.390625 14.5 40.28125 
Q 14.5 37.15625 16.890625 35.375 
Q 19.28125 33.59375 26.515625 31.984375 
L 29.59375 31.296875 
Q 39.15625 29.25 43.1875 25.515625 
Q 47.21875 21.78125 47.21875 15.09375 
Q 47.21875 7.46875 41.1875 3.015625 
Q 35.15625 -1.421875 24.609375 -1.421875 
Q 20.21875 -1.421875 15.453125 -0.5625 
Q 10.6875 0.296875 5.421875 2 
L 5.421875 11.28125 
Q 10.40625 8.6875 15.234375 7.390625 
Q 20.0625 6.109375 24.8125 6.109375 
Q 31.15625 6.109375 34.5625 8.28125 
Q 37.984375 10.453125 37.984375 14.40625 
Q 37.984375 18.0625 35.515625 20.015625 
Q 33.0625 21.96875 24.703125 23.78125 
L 21.578125 24.515625 
Q 13.234375 26.265625 9.515625 29.90625 
Q 5.8125 33.546875 5.8125 39.890625 
Q 5.8125 47.609375 11.28125 51.796875 
Q 16.75 56 26.8125 56 
Q 31.78125 56 36.171875 55.265625 
Q 40.578125 54.546875 44.28125 53.078125 
z
" id="DejaVuSans-115"/>
      <path d="M 56.203125 29.59375 
L 56.203125 25.203125 
L 14.890625 25.203125 
Q 15.484375 15.921875 20.484375 11.0625 
Q 25.484375 6.203125 34.421875 6.203125 
Q 39.59375 6.203125 44.453125 7.46875 
Q 49.3125 8.734375 54.109375 11.28125 
L 54.109375 2.78125 
Q 49.265625 0.734375 44.1875 -0.34375 
Q 39.109375 -1.421875 33.890625 -1.421875 
Q 20.796875 -1.421875 13.15625 6.1875 
Q 5.515625 13.8125 5.515625 26.8125 
Q 5.515625 40.234375 12.765625 48.109375 
Q 20.015625 56 32.328125 56 
Q 43.359375 56 49.78125 48.890625 
Q 56.203125 41.796875 56.203125 29.59375 
z
M 47.21875 32.234375 
Q 47.125 39.59375 43.09375 43.984375 
Q 39.0625 48.390625 32.421875 48.390625 
Q 24.90625 48.390625 20.390625 44.140625 
Q 15.875 39.890625 15.1875 32.171875 
z
" id="DejaVuSans-101"/>
     </defs>
     <g transform="translate(452.290313 59.237813)scale(0.14 -0.14)">
      <use xlink:href="#DejaVuSans-98"/>
      <use x="63.476562" xlink:href="#DejaVuSans-97"/>
      <use x="124.755859" xlink:href="#DejaVuSans-115"/>
      <use x="176.855469" xlink:href="#DejaVuSans-101"/>
     </g>
    </g>
    <g id="patch_6">
     <path d="M 413.090313 79.787188 
L 441.090313 79.787188 
L 441.090313 69.987188 
L 413.090313 69.987188 
z
" style="fill:#36a2eb;opacity:0.5;stroke:#36a2eb;stroke-linejoin:miter;"/>
    </g>
    <g id="text_2">
     <!-- no_license -->
     <defs>
      <path d="M 54.890625 33.015625 
L 54.890625 0 
L 45.90625 0 
L 45.90625 32.71875 
Q 45.90625 40.484375 42.875 44.328125 
Q 39.84375 48.1875 33.796875 48.1875 
Q 26.515625 48.1875 22.3125 43.546875 
Q 18.109375 38.921875 18.109375 30.90625 
L 18.109375 0 
L 9.078125 0 
L 9.078125 54.6875 
L 18.109375 54.6875 
L 18.109375 46.1875 
Q 21.34375 51.125 25.703125 53.5625 
Q 30.078125 56 35.796875 56 
Q 45.21875 56 50.046875 50.171875 
Q 54.890625 44.34375 54.890625 33.015625 
z
" id="DejaVuSans-110"/>
      <path d="M 30.609375 48.390625 
Q 23.390625 48.390625 19.1875 42.75 
Q 14.984375 37.109375 14.984375 27.296875 
Q 14.984375 17.484375 19.15625 11.84375 
Q 23.34375 6.203125 30.609375 6.203125 
Q 37.796875 6.203125 41.984375 11.859375 
Q 46.1875 17.53125 46.1875 27.296875 
Q 46.1875 37.015625 41.984375 42.703125 
Q 37.796875 48.390625 30.609375 48.390625 
z
M 30.609375 56 
Q 42.328125 56 49.015625 48.375 
Q 55.71875 40.765625 55.71875 27.296875 
Q 55.71875 13.875 49.015625 6.21875 
Q 42.328125 -1.421875 30.609375 -1.421875 
Q 18.84375 -1.421875 12.171875 6.21875 
Q 5.515625 13.875 5.515625 27.296875 
Q 5.515625 40.765625 12.171875 48.375 
Q 18.84375 56 30.609375 56 
z
" id="DejaVuSans-111"/>
      <path d="M 50.984375 -16.609375 
L 50.984375 -23.578125 
L -0.984375 -23.578125 
L -0.984375 -16.609375 
z
" id="DejaVuSans-95"/>
      <path d="M 9.421875 75.984375 
L 18.40625 75.984375 
L 18.40625 0 
L 9.421875 0 
z
" id="DejaVuSans-108"/>
      <path d="M 9.421875 54.6875 
L 18.40625 54.6875 
L 18.40625 0 
L 9.421875 0 
z
M 9.421875 75.984375 
L 18.40625 75.984375 
L 18.40625 64.59375 
L 9.421875 64.59375 
z
" id="DejaVuSans-105"/>
      <path d="M 48.78125 52.59375 
L 48.78125 44.1875 
Q 44.96875 46.296875 41.140625 47.34375 
Q 37.3125 48.390625 33.40625 48.390625 
Q 24.65625 48.390625 19.8125 42.84375 
Q 14.984375 37.3125 14.984375 27.296875 
Q 14.984375 17.28125 19.8125 11.734375 
Q 24.65625 6.203125 33.40625 6.203125 
Q 37.3125 6.203125 41.140625 7.25 
Q 44.96875 8.296875 48.78125 10.40625 
L 48.78125 2.09375 
Q 45.015625 0.34375 40.984375 -0.53125 
Q 36.96875 -1.421875 32.421875 -1.421875 
Q 20.0625 -1.421875 12.78125 6.34375 
Q 5.515625 14.109375 5.515625 27.296875 
Q 5.515625 40.671875 12.859375 48.328125 
Q 20.21875 56 33.015625 56 
Q 37.15625 56 41.109375 55.140625 
Q 45.0625 54.296875 48.78125 52.59375 
z
" id="DejaVuSans-99"/>
     </defs>
     <g transform="translate(452.290313 79.787188)scale(0.14 -0.14)">
      <use xlink:href="#DejaVuSans-110"/>
      <use x="63.378906" xlink:href="#DejaVuSans-111"/>
      <use x="124.560547" xlink:href="#DejaVuSans-95"/>
      <use x="174.560547" xlink:href="#DejaVuSans-108"/>
      <use x="202.34375" xlink:href="#DejaVuSans-105"/>
      <use x="230.126953" xlink:href="#DejaVuSans-99"/>
      <use x="285.107422" xlink:href="#DejaVuSans-101"/>
      <use x="346.630859" xlink:href="#DejaVuSans-110"/>
      <use x="410.009766" xlink:href="#DejaVuSans-115"/>
      <use x="462.109375" xlink:href="#DejaVuSans-101"/>
     </g>
    </g>
   </g>
  </g>
  <g id="axes_2">
   <g id="patch_7">
    <path d="M 36 525.24 
L 538.2 525.24 
L 538.2 402.93 
L 36 402.93 
z
" style="fill:none;"/>
   </g>
   <g id="patch_8">
    <path clip-path="url(#p2d60b25973)" d="M 212.114737 519.680455 
L 411.573013 519.680455 
L 411.573013 482.616818 
L 212.114737 482.616818 
z
" style="fill:#ff6384;opacity:0.5;"/>
   </g>
   <g id="patch_9">
    <path clip-path="url(#p2d60b25973)" d="M 161.816177 445.553182 
L 359.716424 445.553182 
L 359.716424 408.489545 
L 161.816177 408.489545 
z
" style="fill:#36a2eb;opacity:0.5;"/>
   </g>
   <g id="matplotlib.axis_1">
    <g id="xtick_1">
     <g id="line2d_3">
      <defs>
       <path d="M 0 0 
L 0 3.5 
" id="m5c27a48c51" style="stroke:#000000;stroke-width:0.8;"/>
      </defs>
      <g>
       <use style="stroke:#000000;stroke-width:0.8;" x="102.06098" xlink:href="#m5c27a48c51" y="525.24"/>
      </g>
     </g>
     <g id="text_3">
      <!-- 5.0 -->
      <defs>
       <path d="M 10.796875 72.90625 
L 49.515625 72.90625 
L 49.515625 64.59375 
L 19.828125 64.59375 
L 19.828125 46.734375 
Q 21.96875 47.46875 24.109375 47.828125 
Q 26.265625 48.1875 28.421875 48.1875 
Q 40.625 48.1875 47.75 41.5 
Q 54.890625 34.8125 54.890625 23.390625 
Q 54.890625 11.625 47.5625 5.09375 
Q 40.234375 -1.421875 26.90625 -1.421875 
Q 22.3125 -1.421875 17.546875 -0.640625 
Q 12.796875 0.140625 7.71875 1.703125 
L 7.71875 11.625 
Q 12.109375 9.234375 16.796875 8.0625 
Q 21.484375 6.890625 26.703125 6.890625 
Q 35.15625 6.890625 40.078125 11.328125 
Q 45.015625 15.765625 45.015625 23.390625 
Q 45.015625 31 40.078125 35.4375 
Q 35.15625 39.890625 26.703125 39.890625 
Q 22.75 39.890625 18.8125 39.015625 
Q 14.890625 38.140625 10.796875 36.28125 
z
" id="DejaVuSans-53"/>
       <path d="M 10.6875 12.40625 
L 21 12.40625 
L 21 0 
L 10.6875 0 
z
" id="DejaVuSans-46"/>
       <path d="M 31.78125 66.40625 
Q 24.171875 66.40625 20.328125 58.90625 
Q 16.5 51.421875 16.5 36.375 
Q 16.5 21.390625 20.328125 13.890625 
Q 24.171875 6.390625 31.78125 6.390625 
Q 39.453125 6.390625 43.28125 13.890625 
Q 47.125 21.390625 47.125 36.375 
Q 47.125 51.421875 43.28125 58.90625 
Q 39.453125 66.40625 31.78125 66.40625 
z
M 31.78125 74.21875 
Q 44.046875 74.21875 50.515625 64.515625 
Q 56.984375 54.828125 56.984375 36.375 
Q 56.984375 17.96875 50.515625 8.265625 
Q 44.046875 -1.421875 31.78125 -1.421875 
Q 19.53125 -1.421875 13.0625 8.265625 
Q 6.59375 17.96875 6.59375 36.375 
Q 6.59375 54.828125 13.0625 64.515625 
Q 19.53125 74.21875 31.78125 74.21875 
z
" id="DejaVuSans-48"/>
      </defs>
      <g transform="translate(90.928792 542.877813)scale(0.14 -0.14)">
       <use xlink:href="#DejaVuSans-53"/>
       <use x="63.623047" xlink:href="#DejaVuSans-46"/>
       <use x="95.410156" xlink:href="#DejaVuSans-48"/>
      </g>
     </g>
    </g>
    <g id="xtick_2">
     <g id="line2d_4">
      <g>
       <use style="stroke:#000000;stroke-width:0.8;" x="193.270934" xlink:href="#m5c27a48c51" y="525.24"/>
      </g>
     </g>
     <g id="text_4">
      <!-- 5.5 -->
      <g transform="translate(182.138747 542.877813)scale(0.14 -0.14)">
       <use xlink:href="#DejaVuSans-53"/>
       <use x="63.623047" xlink:href="#DejaVuSans-46"/>
       <use x="95.410156" xlink:href="#DejaVuSans-53"/>
      </g>
     </g>
    </g>
    <g id="xtick_3">
     <g id="line2d_5">
      <g>
       <use style="stroke:#000000;stroke-width:0.8;" x="284.480889" xlink:href="#m5c27a48c51" y="525.24"/>
      </g>
     </g>
     <g id="text_5">
      <!-- 6.0 -->
      <defs>
       <path d="M 33.015625 40.375 
Q 26.375 40.375 22.484375 35.828125 
Q 18.609375 31.296875 18.609375 23.390625 
Q 18.609375 15.53125 22.484375 10.953125 
Q 26.375 6.390625 33.015625 6.390625 
Q 39.65625 6.390625 43.53125 10.953125 
Q 47.40625 15.53125 47.40625 23.390625 
Q 47.40625 31.296875 43.53125 35.828125 
Q 39.65625 40.375 33.015625 40.375 
z
M 52.59375 71.296875 
L 52.59375 62.3125 
Q 48.875 64.0625 45.09375 64.984375 
Q 41.3125 65.921875 37.59375 65.921875 
Q 27.828125 65.921875 22.671875 59.328125 
Q 17.53125 52.734375 16.796875 39.40625 
Q 19.671875 43.65625 24.015625 45.921875 
Q 28.375 48.1875 33.59375 48.1875 
Q 44.578125 48.1875 50.953125 41.515625 
Q 57.328125 34.859375 57.328125 23.390625 
Q 57.328125 12.15625 50.6875 5.359375 
Q 44.046875 -1.421875 33.015625 -1.421875 
Q 20.359375 -1.421875 13.671875 8.265625 
Q 6.984375 17.96875 6.984375 36.375 
Q 6.984375 53.65625 15.1875 63.9375 
Q 23.390625 74.21875 37.203125 74.21875 
Q 40.921875 74.21875 44.703125 73.484375 
Q 48.484375 72.75 52.59375 71.296875 
z
" id="DejaVuSans-54"/>
      </defs>
      <g transform="translate(273.348701 542.877813)scale(0.14 -0.14)">
       <use xlink:href="#DejaVuSans-54"/>
       <use x="63.623047" xlink:href="#DejaVuSans-46"/>
       <use x="95.410156" xlink:href="#DejaVuSans-48"/>
      </g>
     </g>
    </g>
    <g id="xtick_4">
     <g id="line2d_6">
      <g>
       <use style="stroke:#000000;stroke-width:0.8;" x="375.690843" xlink:href="#m5c27a48c51" y="525.24"/>
      </g>
     </g>
     <g id="text_6">
      <!-- 6.5 -->
      <g transform="translate(364.558656 542.877813)scale(0.14 -0.14)">
       <use xlink:href="#DejaVuSans-54"/>
       <use x="63.623047" xlink:href="#DejaVuSans-46"/>
       <use x="95.410156" xlink:href="#DejaVuSans-53"/>
      </g>
     </g>
    </g>
    <g id="xtick_5">
     <g id="line2d_7">
      <g>
       <use style="stroke:#000000;stroke-width:0.8;" x="466.900798" xlink:href="#m5c27a48c51" y="525.24"/>
      </g>
     </g>
     <g id="text_7">
      <!-- 7.0 -->
      <defs>
       <path d="M 8.203125 72.90625 
L 55.078125 72.90625 
L 55.078125 68.703125 
L 28.609375 0 
L 18.3125 0 
L 43.21875 64.59375 
L 8.203125 64.59375 
z
" id="DejaVuSans-55"/>
      </defs>
      <g transform="translate(455.76861 542.877813)scale(0.14 -0.14)">
       <use xlink:href="#DejaVuSans-55"/>
       <use x="63.623047" xlink:href="#DejaVuSans-46"/>
       <use x="95.410156" xlink:href="#DejaVuSans-48"/>
      </g>
     </g>
    </g>
   </g>
   <g id="line2d_8">
    <path clip-path="url(#p2d60b25973)" d="M 311.843875 525.24 
L 311.843875 402.93 
" style="fill:none;stroke:#ff6384;stroke-dasharray:5.55,2.4;stroke-dashoffset:0;stroke-opacity:0.8;stroke-width:1.5;"/>
   </g>
   <g id="line2d_9">
    <path clip-path="url(#p2d60b25973)" d="M 260.766301 525.24 
L 260.766301 402.93 
" style="fill:none;stroke:#36a2eb;stroke-dasharray:5.55,2.4;stroke-dashoffset:0;stroke-opacity:0.8;stroke-width:1.5;"/>
   </g>
   <g id="patch_10">
    <path d="M 36 525.24 
L 538.2 525.24 
" style="fill:none;stroke:#000000;stroke-linecap:square;stroke-linejoin:miter;stroke-width:0.8;"/>
   </g>
  </g>
 </g>
 <defs>
  <clipPath id="pe8a4e373cf">
   <rect height="366.93" width="502.2" x="36" y="36"/>
  </clipPath>
  <clipPath id="p2d60b25973">
   <rect height="122.31" width="502.2" x="36" y="402.93"/>
  </clipPath>
 </defs>
</svg>
