<?xml version="1.0" encoding="utf-8" standalone="no"?>
<!DOCTYPE svg PUBLIC "-//W3C//DTD SVG 1.1//EN"
  "http://www.w3.org/Graphics/SVG/1.1/DTD/svg11.dtd">
<!-- Created with matplotlib (https://matplotlib.org/) -->
<svg height="581.789375pt" version="1.1" viewBox="0 0 574.2 581.789375" width="574.2pt" xmlns="http://www.w3.org/2000/svg" xmlns:xlink="http://www.w3.org/1999/xlink">
 <defs>
  <style type="text/css">
*{stroke-linecap:butt;stroke-linejoin:round;}
  </style>
 </defs>
 <g id="figure_1">
  <g id="patch_1">
   <path d="M 0 581.789375 
L 574.2 581.789375 
L 574.2 0 
L 0 0 
z
" style="fill:none;"/>
  </g>
  <g id="axes_1">
   <g id="patch_2">
    <path d="M 36 402.93 
L 538.2 402.93 
L 538.2 36 
L 36 36 
z
" style="fill:none;"/>
   </g>
   <g id="PolyCollection_1">
    <defs>
     <path d="M 108.355456 -195.538011 
L 108.355456 -195.649152 
L 112.466741 -195.691061 
L 116.578027 -195.747401 
L 120.689313 -195.822617 
L 124.800598 -195.922334 
L 128.911884 -196.053611 
L 133.023169 -196.225227 
L 137.134455 -196.448004 
L 141.24574 -196.735156 
L 145.357026 -197.102668 
L 149.468312 -197.569694 
L 153.579597 -198.15895 
L 157.690883 -198.897102 
L 161.802168 -199.815125 
L 165.913454 -200.948592 
L 170.024739 -202.337888 
L 174.136025 -204.028297 
L 178.247311 -206.069934 
L 182.358596 -208.517485 
L 186.469882 -211.429719 
L 190.581167 -214.868737 
L 194.692453 -218.898925 
L 198.803738 -223.585602 
L 202.915024 -228.993347 
L 207.02631 -235.184004 
L 211.137595 -242.214404 
L 215.248881 -250.133826 
L 219.360166 -258.981272 
L 223.471452 -268.782631 
L 227.582737 -279.547828 
L 231.694023 -291.268092 
L 235.805309 -303.913457 
L 239.916594 -317.430641 
L 244.02788 -331.741452 
L 248.139165 -346.74184 
L 252.250451 -362.301734 
L 256.361736 -378.265739 
L 260.473022 -394.454785 
L 264.584308 -410.668737 
L 268.695593 -426.689958 
L 272.806879 -442.287778 
L 276.918164 -457.223732 
L 281.02945 -471.257447 
L 285.140735 -484.152958 
L 289.252021 -495.685238 
L 293.363307 -505.646698 
L 297.474592 -513.853382 
L 301.585878 -520.150608 
L 305.697163 -524.417817 
L 309.808449 -526.572412 
L 313.919734 -526.572412 
L 318.03102 -524.417817 
L 322.142306 -520.150608 
L 326.253591 -513.853382 
L 330.364877 -505.646698 
L 334.476162 -495.685238 
L 338.587448 -484.152958 
L 342.698733 -471.257447 
L 346.810019 -457.223732 
L 350.921304 -442.287778 
L 355.03259 -426.689958 
L 359.143876 -410.668737 
L 363.255161 -394.454785 
L 367.366447 -378.265739 
L 371.477732 -362.301734 
L 375.589018 -346.74184 
L 379.700303 -331.741452 
L 383.811589 -317.430641 
L 387.922875 -303.913457 
L 392.03416 -291.268092 
L 396.145446 -279.547828 
L 400.256731 -268.782631 
L 404.368017 -258.981272 
L 408.479302 -250.133826 
L 412.590588 -242.214404 
L 416.701874 -235.184004 
L 420.813159 -228.993347 
L 424.924445 -223.585602 
L 429.03573 -218.898925 
L 433.147016 -214.868737 
L 437.258301 -211.429719 
L 441.369587 -208.517485 
L 445.480873 -206.069934 
L 449.592158 -204.028297 
L 453.703444 -202.337888 
L 457.814729 -200.948592 
L 461.926015 -199.815125 
L 466.0373 -198.897102 
L 470.148586 -198.15895 
L 474.259872 -197.569694 
L 478.371157 -197.102668 
L 482.482443 -196.735156 
L 486.593728 -196.448004 
L 490.705014 -196.225227 
L 494.816299 -196.053611 
L 498.927585 -195.922334 
L 503.038871 -195.822617 
L 507.150156 -195.747401 
L 511.261442 -195.691061 
L 515.372727 -195.649152 
L 515.372727 -195.538011 
L 515.372727 -195.538011 
L 511.261442 -195.538011 
L 507.150156 -195.538011 
L 503.038871 -195.538011 
L 498.927585 -195.538011 
L 494.816299 -195.538011 
L 490.705014 -195.538011 
L 486.593728 -195.538011 
L 482.482443 -195.538011 
L 478.371157 -195.538011 
L 474.259872 -195.538011 
L 470.148586 -195.538011 
L 466.0373 -195.538011 
L 461.926015 -195.538011 
L 457.814729 -195.538011 
L 453.703444 -195.538011 
L 449.592158 -195.538011 
L 445.480873 -195.538011 
L 441.369587 -195.538011 
L 437.258301 -195.538011 
L 433.147016 -195.538011 
L 429.03573 -195.538011 
L 424.924445 -195.538011 
L 420.813159 -195.538011 
L 416.701874 -195.538011 
L 412.590588 -195.538011 
L 408.479302 -195.538011 
L 404.368017 -195.538011 
L 400.256731 -195.538011 
L 396.145446 -195.538011 
L 392.03416 -195.538011 
L 387.922875 -195.538011 
L 383.811589 -195.538011 
L 379.700303 -195.538011 
L 375.589018 -195.538011 
L 371.477732 -195.538011 
L 367.366447 -195.538011 
L 363.255161 -195.538011 
L 359.143876 -195.538011 
L 355.03259 -195.538011 
L 350.921304 -195.538011 
L 346.810019 -195.538011 
L 342.698733 -195.538011 
L 338.587448 -195.538011 
L 334.476162 -195.538011 
L 330.364877 -195.538011 
L 326.253591 -195.538011 
L 322.142306 -195.538011 
L 318.03102 -195.538011 
L 313.919734 -195.538011 
L 309.808449 -195.538011 
L 305.697163 -195.538011 
L 301.585878 -195.538011 
L 297.474592 -195.538011 
L 293.363307 -195.538011 
L 289.252021 -195.538011 
L 285.140735 -195.538011 
L 281.02945 -195.538011 
L 276.918164 -195.538011 
L 272.806879 -195.538011 
L 268.695593 -195.538011 
L 264.584308 -195.538011 
L 260.473022 -195.538011 
L 256.361736 -195.538011 
L 252.250451 -195.538011 
L 248.139165 -195.538011 
L 244.02788 -195.538011 
L 239.916594 -195.538011 
L 235.805309 -195.538011 
L 231.694023 -195.538011 
L 227.582737 -195.538011 
L 223.471452 -195.538011 
L 219.360166 -195.538011 
L 215.248881 -195.538011 
L 211.137595 -195.538011 
L 207.02631 -195.538011 
L 202.915024 -195.538011 
L 198.803738 -195.538011 
L 194.692453 -195.538011 
L 190.581167 -195.538011 
L 186.469882 -195.538011 
L 182.358596 -195.538011 
L 178.247311 -195.538011 
L 174.136025 -195.538011 
L 170.024739 -195.538011 
L 165.913454 -195.538011 
L 161.802168 -195.538011 
L 157.690883 -195.538011 
L 153.579597 -195.538011 
L 149.468312 -195.538011 
L 145.357026 -195.538011 
L 141.24574 -195.538011 
L 137.134455 -195.538011 
L 133.023169 -195.538011 
L 128.911884 -195.538011 
L 124.800598 -195.538011 
L 120.689313 -195.538011 
L 116.578027 -195.538011 
L 112.466741 -195.538011 
L 108.355456 -195.538011 
z
" id="m79b0750ed3" style="stroke:#ff6384;stroke-opacity:0.5;"/>
    </defs>
    <g clip-path="url(#p97020d71f6)">
     <use style="fill:#ff6384;fill-opacity:0.5;stroke:#ff6384;stroke-opacity:0.5;" x="0" xlink:href="#m79b0750ed3" y="581.789375"/>
    </g>
   </g>
   <g id="PolyCollection_2">
    <defs>
     <path d="M 58.827273 -195.538011 
L 58.827273 -195.650004 
L 62.907273 -195.692234 
L 66.987274 -195.749007 
L 71.067275 -195.8248 
L 75.147275 -195.925281 
L 79.227276 -196.057565 
L 83.307277 -196.230497 
L 87.387277 -196.454982 
L 91.467278 -196.744335 
L 95.547279 -197.114666 
L 99.62728 -197.585273 
L 103.70728 -198.179047 
L 107.787281 -198.922859 
L 111.867282 -199.847921 
L 115.947282 -200.990079 
L 120.027283 -202.390029 
L 124.107284 -204.093399 
L 128.187284 -206.150691 
L 132.267285 -208.617009 
L 136.347286 -211.551575 
L 140.427286 -215.016962 
L 144.507287 -219.078053 
L 148.587288 -223.800667 
L 152.667288 -229.249878 
L 156.747289 -235.488004 
L 160.82729 -242.572312 
L 164.90729 -250.552459 
L 168.987291 -259.467747 
L 173.067292 -269.344261 
L 177.147292 -280.192004 
L 181.227293 -292.002137 
L 185.307294 -304.744465 
L 189.387294 -318.365297 
L 193.467295 -332.785841 
L 197.547296 -347.901251 
L 201.627296 -363.580456 
L 205.707297 -379.666871 
L 209.787298 -395.980052 
L 213.867298 -412.31833 
L 217.947299 -428.4624 
L 222.0273 -444.179822 
L 226.107301 -459.230303 
L 230.187301 -473.371627 
L 234.267302 -486.366018 
L 238.347303 -497.986726 
L 242.427303 -508.02457 
L 246.507304 -516.294181 
L 250.587305 -522.639693 
L 254.667305 -526.939623 
L 258.747306 -529.110739 
L 262.827307 -529.110739 
L 266.907307 -526.939623 
L 270.987308 -522.639693 
L 275.067309 -516.294181 
L 279.147309 -508.02457 
L 283.22731 -497.986726 
L 287.307311 -486.366018 
L 291.387311 -473.371627 
L 295.467312 -459.230303 
L 299.547313 -444.179822 
L 303.627313 -428.4624 
L 307.707314 -412.31833 
L 311.787315 -395.980052 
L 315.867315 -379.666871 
L 319.947316 -363.580456 
L 324.027317 -347.901251 
L 328.107317 -332.785841 
L 332.187318 -318.365297 
L 336.267319 -304.744465 
L 340.347319 -292.002137 
L 344.42732 -280.192004 
L 348.507321 -269.344261 
L 352.587322 -259.467747 
L 356.667322 -250.552459 
L 360.747323 -242.572312 
L 364.827324 -235.488004 
L 368.907324 -229.249878 
L 372.987325 -223.800667 
L 377.067326 -219.078053 
L 381.147326 -215.016962 
L 385.227327 -211.551575 
L 389.307328 -208.617009 
L 393.387328 -206.150691 
L 397.467329 -204.093399 
L 401.54733 -202.390029 
L 405.62733 -200.990079 
L 409.707331 -199.847921 
L 413.787332 -198.922859 
L 417.867332 -198.179047 
L 421.947333 -197.585273 
L 426.027334 -197.114666 
L 430.107334 -196.744335 
L 434.187335 -196.454982 
L 438.267336 -196.230497 
L 442.347336 -196.057565 
L 446.427337 -195.925281 
L 450.507338 -195.8248 
L 454.587338 -195.749007 
L 458.667339 -195.692234 
L 462.74734 -195.650004 
L 462.74734 -195.538011 
L 462.74734 -195.538011 
L 458.667339 -195.538011 
L 454.587338 -195.538011 
L 450.507338 -195.538011 
L 446.427337 -195.538011 
L 442.347336 -195.538011 
L 438.267336 -195.538011 
L 434.187335 -195.538011 
L 430.107334 -195.538011 
L 426.027334 -195.538011 
L 421.947333 -195.538011 
L 417.867332 -195.538011 
L 413.787332 -195.538011 
L 409.707331 -195.538011 
L 405.62733 -195.538011 
L 401.54733 -195.538011 
L 397.467329 -195.538011 
L 393.387328 -195.538011 
L 389.307328 -195.538011 
L 385.227327 -195.538011 
L 381.147326 -195.538011 
L 377.067326 -195.538011 
L 372.987325 -195.538011 
L 368.907324 -195.538011 
L 364.827324 -195.538011 
L 360.747323 -195.538011 
L 356.667322 -195.538011 
L 352.587322 -195.538011 
L 348.507321 -195.538011 
L 344.42732 -195.538011 
L 340.347319 -195.538011 
L 336.267319 -195.538011 
L 332.187318 -195.538011 
L 328.107317 -195.538011 
L 324.027317 -195.538011 
L 319.947316 -195.538011 
L 315.867315 -195.538011 
L 311.787315 -195.538011 
L 307.707314 -195.538011 
L 303.627313 -195.538011 
L 299.547313 -195.538011 
L 295.467312 -195.538011 
L 291.387311 -195.538011 
L 287.307311 -195.538011 
L 283.22731 -195.538011 
L 279.147309 -195.538011 
L 275.067309 -195.538011 
L 270.987308 -195.538011 
L 266.907307 -195.538011 
L 262.827307 -195.538011 
L 258.747306 -195.538011 
L 254.667305 -195.538011 
L 250.587305 -195.538011 
L 246.507304 -195.538011 
L 242.427303 -195.538011 
L 238.347303 -195.538011 
L 234.267302 -195.538011 
L 230.187301 -195.538011 
L 226.107301 -195.538011 
L 222.0273 -195.538011 
L 217.947299 -195.538011 
L 213.867298 -195.538011 
L 209.787298 -195.538011 
L 205.707297 -195.538011 
L 201.627296 -195.538011 
L 197.547296 -195.538011 
L 193.467295 -195.538011 
L 189.387294 -195.538011 
L 185.307294 -195.538011 
L 181.227293 -195.538011 
L 177.147292 -195.538011 
L 173.067292 -195.538011 
L 168.987291 -195.538011 
L 164.90729 -195.538011 
L 160.82729 -195.538011 
L 156.747289 -195.538011 
L 152.667288 -195.538011 
L 148.587288 -195.538011 
L 144.507287 -195.538011 
L 140.427286 -195.538011 
L 136.347286 -195.538011 
L 132.267285 -195.538011 
L 128.187284 -195.538011 
L 124.107284 -195.538011 
L 120.027283 -195.538011 
L 115.947282 -195.538011 
L 111.867282 -195.538011 
L 107.787281 -195.538011 
L 103.70728 -195.538011 
L 99.62728 -195.538011 
L 95.547279 -195.538011 
L 91.467278 -195.538011 
L 87.387277 -195.538011 
L 83.307277 -195.538011 
L 79.227276 -195.538011 
L 75.147275 -195.538011 
L 71.067275 -195.538011 
L 66.987274 -195.538011 
L 62.907273 -195.538011 
L 58.827273 -195.538011 
z
" id="m887075fd44" style="stroke:#36a2eb;stroke-opacity:0.5;"/>
    </defs>
    <g clip-path="url(#p97020d71f6)">
     <use style="fill:#36a2eb;fill-opacity:0.5;stroke:#36a2eb;stroke-opacity:0.5;" x="0" xlink:href="#m887075fd44" y="581.789375"/>
    </g>
   </g>
   <g id="line2d_1">
    <path clip-path="url(#p97020d71f6)" d="M 108.355456 386.140223 
L 112.466741 386.098314 
L 116.578027 386.041974 
L 120.689313 385.966758 
L 124.800598 385.867041 
L 128.911884 385.735764 
L 133.023169 385.564148 
L 137.134455 385.341371 
L 141.24574 385.054219 
L 145.357026 384.686707 
L 149.468312 384.219681 
L 153.579597 383.630425 
L 157.690883 382.892273 
L 161.802168 381.97425 
L 165.913454 380.840783 
L 170.024739 379.451487 
L 174.136025 377.761078 
L 178.247311 375.719441 
L 182.358596 373.27189 
L 186.469882 370.359656 
L 190.581167 366.920638 
L 194.692453 362.89045 
L 198.803738 358.203773 
L 202.915024 352.796028 
L 207.02631 346.605371 
L 211.137595 339.574971 
L 215.248881 331.655549 
L 219.360166 322.808103 
L 223.471452 313.006744 
L 227.582737 302.241547 
L 231.694023 290.521283 
L 235.805309 277.875918 
L 239.916594 264.358734 
L 244.02788 250.047923 
L 248.139165 235.047535 
L 252.250451 219.487641 
L 256.361736 203.523636 
L 260.473022 187.33459 
L 264.584308 171.120638 
L 268.695593 155.099417 
L 272.806879 139.501597 
L 276.918164 124.565643 
L 281.02945 110.531928 
L 285.140735 97.636417 
L 289.252021 86.104137 
L 293.363307 76.142677 
L 297.474592 67.935993 
L 301.585878 61.638767 
L 305.697163 57.371558 
L 309.808449 55.216963 
L 313.919734 55.216963 
L 318.03102 57.371558 
L 322.142306 61.638767 
L 326.253591 67.935993 
L 330.364877 76.142677 
L 334.476162 86.104137 
L 338.587448 97.636417 
L 342.698733 110.531928 
L 346.810019 124.565643 
L 350.921304 139.501597 
L 355.03259 155.099417 
L 359.143876 171.120638 
L 363.255161 187.33459 
L 367.366447 203.523636 
L 371.477732 219.487641 
L 375.589018 235.047535 
L 379.700303 250.047923 
L 383.811589 264.358734 
L 387.922875 277.875918 
L 392.03416 290.521283 
L 396.145446 302.241547 
L 400.256731 313.006744 
L 404.368017 322.808103 
L 408.479302 331.655549 
L 412.590588 339.574971 
L 416.701874 346.605371 
L 420.813159 352.796028 
L 424.924445 358.203773 
L 429.03573 362.89045 
L 433.147016 366.920638 
L 437.258301 370.359656 
L 441.369587 373.27189 
L 445.480873 375.719441 
L 449.592158 377.761078 
L 453.703444 379.451487 
L 457.814729 380.840783 
L 461.926015 381.97425 
L 466.0373 382.892273 
L 470.148586 383.630425 
L 474.259872 384.219681 
L 478.371157 384.686707 
L 482.482443 385.054219 
L 486.593728 385.341371 
L 490.705014 385.564148 
L 494.816299 385.735764 
L 498.927585 385.867041 
L 503.038871 385.966758 
L 507.150156 386.041974 
L 511.261442 386.098314 
L 515.372727 386.140223 
" style="fill:none;stroke:#ff6384;stroke-linecap:square;"/>
   </g>
   <g id="line2d_2">
    <path clip-path="url(#p97020d71f6)" d="M 58.827273 386.139371 
L 62.907273 386.097141 
L 66.987274 386.040368 
L 71.067275 385.964575 
L 75.147275 385.864094 
L 79.227276 385.73181 
L 83.307277 385.558878 
L 87.387277 385.334393 
L 91.467278 385.04504 
L 95.547279 384.674709 
L 99.62728 384.204102 
L 103.70728 383.610328 
L 107.787281 382.866516 
L 111.867282 381.941454 
L 115.947282 380.799296 
L 120.027283 379.399346 
L 124.107284 377.695976 
L 128.187284 375.638684 
L 132.267285 373.172366 
L 136.347286 370.2378 
L 140.427286 366.772413 
L 144.507287 362.711322 
L 148.587288 357.988708 
L 152.667288 352.539497 
L 156.747289 346.301371 
L 160.82729 339.217063 
L 164.90729 331.236916 
L 168.987291 322.321628 
L 173.067292 312.445114 
L 177.147292 301.597371 
L 181.227293 289.787238 
L 185.307294 277.04491 
L 189.387294 263.424078 
L 193.467295 249.003534 
L 197.547296 233.888124 
L 201.627296 218.208919 
L 205.707297 202.122504 
L 209.787298 185.809323 
L 213.867298 169.471045 
L 217.947299 153.326975 
L 222.0273 137.609553 
L 226.107301 122.559072 
L 230.187301 108.417748 
L 234.267302 95.423357 
L 238.347303 83.802649 
L 242.427303 73.764805 
L 246.507304 65.495194 
L 250.587305 59.149682 
L 254.667305 54.849752 
L 258.747306 52.678636 
L 262.827307 52.678636 
L 266.907307 54.849752 
L 270.987308 59.149682 
L 275.067309 65.495194 
L 279.147309 73.764805 
L 283.22731 83.802649 
L 287.307311 95.423357 
L 291.387311 108.417748 
L 295.467312 122.559072 
L 299.547313 137.609553 
L 303.627313 153.326975 
L 307.707314 169.471045 
L 311.787315 185.809323 
L 315.867315 202.122504 
L 319.947316 218.208919 
L 324.027317 233.888124 
L 328.107317 249.003534 
L 332.187318 263.424078 
L 336.267319 277.04491 
L 340.347319 289.787238 
L 344.42732 301.597371 
L 348.507321 312.445114 
L 352.587322 322.321628 
L 356.667322 331.236916 
L 360.747323 339.217063 
L 364.827324 346.301371 
L 368.907324 352.539497 
L 372.987325 357.988708 
L 377.067326 362.711322 
L 381.147326 366.772413 
L 385.227327 370.2378 
L 389.307328 373.172366 
L 393.387328 375.638684 
L 397.467329 377.695976 
L 401.54733 379.399346 
L 405.62733 380.799296 
L 409.707331 381.941454 
L 413.787332 382.866516 
L 417.867332 383.610328 
L 421.947333 384.204102 
L 426.027334 384.674709 
L 430.107334 385.04504 
L 434.187335 385.334393 
L 438.267336 385.558878 
L 442.347336 385.73181 
L 446.427337 385.864094 
L 450.507338 385.964575 
L 454.587338 386.040368 
L 458.667339 386.097141 
L 462.74734 386.139371 
" style="fill:none;stroke:#36a2eb;stroke-linecap:square;"/>
   </g>
   <g id="patch_3">
    <path d="M 36 402.93 
L 538.2 402.93 
" style="fill:none;stroke:#000000;stroke-linecap:square;stroke-linejoin:miter;stroke-width:0.8;"/>
   </g>
   <g id="legend_1">
    <g id="patch_4">
     <path d="M 410.290313 88.688125 
L 528.4 88.688125 
Q 531.2 88.688125 531.2 85.888125 
L 531.2 45.8 
Q 531.2 43 528.4 43 
L 410.290313 43 
Q 407.490313 43 407.490313 45.8 
L 407.490313 85.888125 
Q 407.490313 88.688125 410.290313 88.688125 
z
" style="fill:#ffffff;opacity:0.8;stroke:#cccccc;stroke-linejoin:miter;"/>
    </g>
    <g id="patch_5">
     <path d="M 413.090313 59.237813 
L 441.090313 59.237813 
L 441.090313 49.437813 
L 413.090313 49.437813 
z
" style="fill:#ff6384;opacity:0.5;stroke:#ff6384;stroke-linejoin:miter;"/>
    </g>
    <g id="text_1">
     <!-- base -->
     <defs>
      <path d="M 48.6875 27.296875 
Q 48.6875 37.203125 44.609375 42.84375 
Q 40.53125 48.484375 33.40625 48.484375 
Q 26.265625 48.484375 22.1875 42.84375 
Q 18.109375 37.203125 18.109375 27.296875 
Q 18.109375 17.390625 22.1875 11.75 
Q 26.265625 6.109375 33.40625 6.109375 
Q 40.53125 6.109375 44.609375 11.75 
Q 48.6875 17.390625 48.6875 27.296875 
z
M 18.109375 46.390625 
Q 20.953125 51.265625 25.265625 53.625 
Q 29.59375 56 35.59375 56 
Q 45.5625 56 51.78125 48.09375 
Q 58.015625 40.1875 58.015625 27.296875 
Q 58.015625 14.40625 51.78125 6.484375 
Q 45.5625 -1.421875 35.59375 -1.421875 
Q 29.59375 -1.421875 25.265625 0.953125 
Q 20.953125 3.328125 18.109375 8.203125 
L 18.109375 0 
L 9.078125 0 
L 9.078125 75.984375 
L 18.109375 75.984375 
z
" id="DejaVuSans-98"/>
      <path d="M 34.28125 27.484375 
Q 23.390625 27.484375 19.1875 25 
Q 14.984375 22.515625 14.984375 16.5 
Q 14.984375 11.71875 18.140625 8.90625 
Q 21.296875 6.109375 26.703125 6.109375 
Q 34.1875 6.109375 38.703125 11.40625 
Q 43.21875 16.703125 43.21875 25.484375 
L 43.21875 27.484375 
z
M 52.203125 31.203125 
L 52.203125 0 
L 43.21875 0 
L 43.21875 8.296875 
Q 40.140625 3.328125 35.546875 0.953125 
Q 30.953125 -1.421875 24.3125 -1.421875 
Q 15.921875 -1.421875 10.953125 3.296875 
Q 6 8.015625 6 15.921875 
Q 6 25.140625 12.171875 29.828125 
Q 18.359375 34.515625 30.609375 34.515625 
L 43.21875 34.515625 
L 43.21875 35.40625 
Q 43.21875 41.609375 39.140625 45 
Q 35.0625 48.390625 27.6875 48.390625 
Q 23 48.390625 18.546875 47.265625 
Q 14.109375 46.140625 10.015625 43.890625 
L 10.015625 52.203125 
Q 14.9375 54.109375 19.578125 55.046875 
Q 24.21875 56 28.609375 56 
Q 40.484375 56 46.34375 49.84375 
Q 52.203125 43.703125 52.203125 31.203125 
z
" id="DejaVuSans-97"/>
      <path d="M 44.28125 53.078125 
L 44.28125 44.578125 
Q 40.484375 46.53125 36.375 47.5 
Q 32.28125 48.484375 27.875 48.484375 
Q 21.1875 48.484375 17.84375 46.4375 
Q 14.5 44.390625 14.5 40.28125 
Q 14.5 37.15625 16.890625 35.375 
Q 19.28125 33.59375 26.515625 31.984375 
L 29.59375 31.296875 
Q 39.15625 29.25 43.1875 25.515625 
Q 47.21875 21.78125 47.21875 15.09375 
Q 47.21875 7.46875 41.1875 3.015625 
Q 35.15625 -1.421875 24.609375 -1.421875 
Q 20.21875 -1.421875 15.453125 -0.5625 
Q 10.6875 0.296875 5.421875 2 
L 5.421875 11.28125 
Q 10.40625 8.6875 15.234375 7.390625 
Q 20.0625 6.109375 24.8125 6.109375 
Q 31.15625 6.109375 34.5625 8.28125 
Q 37.984375 10.453125 37.984375 14.40625 
Q 37.984375 18.0625 35.515625 20.015625 
Q 33.0625 21.96875 24.703125 23.78125 
L 21.578125 24.515625 
Q 13.234375 26.265625 9.515625 29.90625 
Q 5.8125 33.546875 5.8125 39.890625 
Q 5.8125 47.609375 11.28125 51.796875 
Q 16.75 56 26.8125 56 
Q 31.78125 56 36.171875 55.265625 
Q 40.578125 54.546875 44.28125 53.078125 
z
" id="DejaVuSans-115"/>
      <path d="M 56.203125 29.59375 
L 56.203125 25.203125 
L 14.890625 25.203125 
Q 15.484375 15.921875 20.484375 11.0625 
Q 25.484375 6.203125 34.421875 6.203125 
Q 39.59375 6.203125 44.453125 7.46875 
Q 49.3125 8.734375 54.109375 11.28125 
L 54.109375 2.78125 
Q 49.265625 0.734375 44.1875 -0.34375 
Q 39.109375 -1.421875 33.890625 -1.421875 
Q 20.796875 -1.421875 13.15625 6.1875 
Q 5.515625 13.8125 5.515625 26.8125 
Q 5.515625 40.234375 12.765625 48.109375 
Q 20.015625 56 32.328125 56 
Q 43.359375 56 49.78125 48.890625 
Q 56.203125 41.796875 56.203125 29.59375 
z
M 47.21875 32.234375 
Q 47.125 39.59375 43.09375 43.984375 
Q 39.0625 48.390625 32.421875 48.390625 
Q 24.90625 48.390625 20.390625 44.140625 
Q 15.875 39.890625 15.1875 32.171875 
z
" id="DejaVuSans-101"/>
     </defs>
     <g transform="translate(452.290313 59.237813)scale(0.14 -0.14)">
      <use xlink:href="#DejaVuSans-98"/>
      <use x="63.476562" xlink:href="#DejaVuSans-97"/>
      <use x="124.755859" xlink:href="#DejaVuSans-115"/>
      <use x="176.855469" xlink:href="#DejaVuSans-101"/>
     </g>
    </g>
    <g id="patch_6">
     <path d="M 413.090313 79.787188 
L 441.090313 79.787188 
L 441.090313 69.987188 
L 413.090313 69.987188 
z
" style="fill:#36a2eb;opacity:0.5;stroke:#36a2eb;stroke-linejoin:miter;"/>
    </g>
    <g id="text_2">
     <!-- no_license -->
     <defs>
      <path d="M 54.890625 33.015625 
L 54.890625 0 
L 45.90625 0 
L 45.90625 32.71875 
Q 45.90625 40.484375 42.875 44.328125 
Q 39.84375 48.1875 33.796875 48.1875 
Q 26.515625 48.1875 22.3125 43.546875 
Q 18.109375 38.921875 18.109375 30.90625 
L 18.109375 0 
L 9.078125 0 
L 9.078125 54.6875 
L 18.109375 54.6875 
L 18.109375 46.1875 
Q 21.34375 51.125 25.703125 53.5625 
Q 30.078125 56 35.796875 56 
Q 45.21875 56 50.046875 50.171875 
Q 54.890625 44.34375 54.890625 33.015625 
z
" id="DejaVuSans-110"/>
      <path d="M 30.609375 48.390625 
Q 23.390625 48.390625 19.1875 42.75 
Q 14.984375 37.109375 14.984375 27.296875 
Q 14.984375 17.484375 19.15625 11.84375 
Q 23.34375 6.203125 30.609375 6.203125 
Q 37.796875 6.203125 41.984375 11.859375 
Q 46.1875 17.53125 46.1875 27.296875 
Q 46.1875 37.015625 41.984375 42.703125 
Q 37.796875 48.390625 30.609375 48.390625 
z
M 30.609375 56 
Q 42.328125 56 49.015625 48.375 
Q 55.71875 40.765625 55.71875 27.296875 
Q 55.71875 13.875 49.015625 6.21875 
Q 42.328125 -1.421875 30.609375 -1.421875 
Q 18.84375 -1.421875 12.171875 6.21875 
Q 5.515625 13.875 5.515625 27.296875 
Q 5.515625 40.765625 12.171875 48.375 
Q 18.84375 56 30.609375 56 
z
" id="DejaVuSans-111"/>
      <path d="M 50.984375 -16.609375 
L 50.984375 -23.578125 
L -0.984375 -23.578125 
L -0.984375 -16.609375 
z
" id="DejaVuSans-95"/>
      <path d="M 9.421875 75.984375 
L 18.40625 75.984375 
L 18.40625 0 
L 9.421875 0 
z
" id="DejaVuSans-108"/>
      <path d="M 9.421875 54.6875 
L 18.40625 54.6875 
L 18.40625 0 
L 9.421875 0 
z
M 9.421875 75.984375 
L 18.40625 75.984375 
L 18.40625 64.59375 
L 9.421875 64.59375 
z
" id="DejaVuSans-105"/>
      <path d="M 48.78125 52.59375 
L 48.78125 44.1875 
Q 44.96875 46.296875 41.140625 47.34375 
Q 37.3125 48.390625 33.40625 48.390625 
Q 24.65625 48.390625 19.8125 42.84375 
Q 14.984375 37.3125 14.984375 27.296875 
Q 14.984375 17.28125 19.8125 11.734375 
Q 24.65625 6.203125 33.40625 6.203125 
Q 37.3125 6.203125 41.140625 7.25 
Q 44.96875 8.296875 48.78125 10.40625 
L 48.78125 2.09375 
Q 45.015625 0.34375 40.984375 -0.53125 
Q 36.96875 -1.421875 32.421875 -1.421875 
Q 20.0625 -1.421875 12.78125 6.34375 
Q 5.515625 14.109375 5.515625 27.296875 
Q 5.515625 40.671875 12.859375 48.328125 
Q 20.21875 56 33.015625 56 
Q 37.15625 56 41.109375 55.140625 
Q 45.0625 54.296875 48.78125 52.59375 
z
" id="DejaVuSans-99"/>
     </defs>
     <g transform="translate(452.290313 79.787188)scale(0.14 -0.14)">
      <use xlink:href="#DejaVuSans-110"/>
      <use x="63.378906" xlink:href="#DejaVuSans-111"/>
      <use x="124.560547" xlink:href="#DejaVuSans-95"/>
      <use x="174.560547" xlink:href="#DejaVuSans-108"/>
      <use x="202.34375" xlink:href="#DejaVuSans-105"/>
      <use x="230.126953" xlink:href="#DejaVuSans-99"/>
      <use x="285.107422" xlink:href="#DejaVuSans-101"/>
      <use x="346.630859" xlink:href="#DejaVuSans-110"/>
      <use x="410.009766" xlink:href="#DejaVuSans-115"/>
      <use x="462.109375" xlink:href="#DejaVuSans-101"/>
     </g>
    </g>
   </g>
  </g>
  <g id="axes_2">
   <g id="patch_7">
    <path d="M 36 525.24 
L 538.2 525.24 
L 538.2 402.93 
L 36 402.93 
z
" style="fill:none;"/>
   </g>
   <g id="patch_8">
    <path clip-path="url(#pfbf48b0e37)" d="M 212.14486 519.680455 
L 411.583323 519.680455 
L 411.583323 482.616818 
L 212.14486 482.616818 
z
" style="fill:#ff6384;opacity:0.5;"/>
   </g>
   <g id="patch_9">
    <path clip-path="url(#pfbf48b0e37)" d="M 161.82689 445.553182 
L 359.747723 445.553182 
L 359.747723 408.489545 
L 161.82689 408.489545 
z
" style="fill:#36a2eb;opacity:0.5;"/>
   </g>
   <g id="matplotlib.axis_1">
    <g id="xtick_1">
     <g id="line2d_3">
      <defs>
       <path d="M 0 0 
L 0 3.5 
" id="mec456bc878" style="stroke:#000000;stroke-width:0.8;"/>
      </defs>
      <g>
       <use style="stroke:#000000;stroke-width:0.8;" x="102.084438" xlink:href="#mec456bc878" y="525.24"/>
      </g>
     </g>
     <g id="text_3">
      <!-- 5.0 -->
      <defs>
       <path d="M 10.796875 72.90625 
L 49.515625 72.90625 
L 49.515625 64.59375 
L 19.828125 64.59375 
L 19.828125 46.734375 
Q 21.96875 47.46875 24.109375 47.828125 
Q 26.265625 48.1875 28.421875 48.1875 
Q 40.625 48.1875 47.75 41.5 
Q 54.890625 34.8125 54.890625 23.390625 
Q 54.890625 11.625 47.5625 5.09375 
Q 40.234375 -1.421875 26.90625 -1.421875 
Q 22.3125 -1.421875 17.546875 -0.640625 
Q 12.796875 0.140625 7.71875 1.703125 
L 7.71875 11.625 
Q 12.109375 9.234375 16.796875 8.0625 
Q 21.484375 6.890625 26.703125 6.890625 
Q 35.15625 6.890625 40.078125 11.328125 
Q 45.015625 15.765625 45.015625 23.390625 
Q 45.015625 31 40.078125 35.4375 
Q 35.15625 39.890625 26.703125 39.890625 
Q 22.75 39.890625 18.8125 39.015625 
Q 14.890625 38.140625 10.796875 36.28125 
z
" id="DejaVuSans-53"/>
       <path d="M 10.6875 12.40625 
L 21 12.40625 
L 21 0 
L 10.6875 0 
z
" id="DejaVuSans-46"/>
       <path d="M 31.78125 66.40625 
Q 24.171875 66.40625 20.328125 58.90625 
Q 16.5 51.421875 16.5 36.375 
Q 16.5 21.390625 20.328125 13.890625 
Q 24.171875 6.390625 31.78125 6.390625 
Q 39.453125 6.390625 43.28125 13.890625 
Q 47.125 21.390625 47.125 36.375 
Q 47.125 51.421875 43.28125 58.90625 
Q 39.453125 66.40625 31.78125 66.40625 
z
M 31.78125 74.21875 
Q 44.046875 74.21875 50.515625 64.515625 
Q 56.984375 54.828125 56.984375 36.375 
Q 56.984375 17.96875 50.515625 8.265625 
Q 44.046875 -1.421875 31.78125 -1.421875 
Q 19.53125 -1.421875 13.0625 8.265625 
Q 6.59375 17.96875 6.59375 36.375 
Q 6.59375 54.828125 13.0625 64.515625 
Q 19.53125 74.21875 31.78125 74.21875 
z
" id="DejaVuSans-48"/>
      </defs>
      <g transform="translate(90.95225 542.877813)scale(0.14 -0.14)">
       <use xlink:href="#DejaVuSans-53"/>
       <use x="63.623047" xlink:href="#DejaVuSans-46"/>
       <use x="95.410156" xlink:href="#DejaVuSans-48"/>
      </g>
     </g>
    </g>
    <g id="xtick_2">
     <g id="line2d_4">
      <g>
       <use style="stroke:#000000;stroke-width:0.8;" x="193.292983" xlink:href="#mec456bc878" y="525.24"/>
      </g>
     </g>
     <g id="text_4">
      <!-- 5.5 -->
      <g transform="translate(182.160795 542.877813)scale(0.14 -0.14)">
       <use xlink:href="#DejaVuSans-53"/>
       <use x="63.623047" xlink:href="#DejaVuSans-46"/>
       <use x="95.410156" xlink:href="#DejaVuSans-53"/>
      </g>
     </g>
    </g>
    <g id="xtick_3">
     <g id="line2d_5">
      <g>
       <use style="stroke:#000000;stroke-width:0.8;" x="284.501528" xlink:href="#mec456bc878" y="525.24"/>
      </g>
     </g>
     <g id="text_5">
      <!-- 6.0 -->
      <defs>
       <path d="M 33.015625 40.375 
Q 26.375 40.375 22.484375 35.828125 
Q 18.609375 31.296875 18.609375 23.390625 
Q 18.609375 15.53125 22.484375 10.953125 
Q 26.375 6.390625 33.015625 6.390625 
Q 39.65625 6.390625 43.53125 10.953125 
Q 47.40625 15.53125 47.40625 23.390625 
Q 47.40625 31.296875 43.53125 35.828125 
Q 39.65625 40.375 33.015625 40.375 
z
M 52.59375 71.296875 
L 52.59375 62.3125 
Q 48.875 64.0625 45.09375 64.984375 
Q 41.3125 65.921875 37.59375 65.921875 
Q 27.828125 65.921875 22.671875 59.328125 
Q 17.53125 52.734375 16.796875 39.40625 
Q 19.671875 43.65625 24.015625 45.921875 
Q 28.375 48.1875 33.59375 48.1875 
Q 44.578125 48.1875 50.953125 41.515625 
Q 57.328125 34.859375 57.328125 23.390625 
Q 57.328125 12.15625 50.6875 5.359375 
Q 44.046875 -1.421875 33.015625 -1.421875 
Q 20.359375 -1.421875 13.671875 8.265625 
Q 6.984375 17.96875 6.984375 36.375 
Q 6.984375 53.65625 15.1875 63.9375 
Q 23.390625 74.21875 37.203125 74.21875 
Q 40.921875 74.21875 44.703125 73.484375 
Q 48.484375 72.75 52.59375 71.296875 
z
" id="DejaVuSans-54"/>
      </defs>
      <g transform="translate(273.369341 542.877813)scale(0.14 -0.14)">
       <use xlink:href="#DejaVuSans-54"/>
       <use x="63.623047" xlink:href="#DejaVuSans-46"/>
       <use x="95.410156" xlink:href="#DejaVuSans-48"/>
      </g>
     </g>
    </g>
    <g id="xtick_4">
     <g id="line2d_6">
      <g>
       <use style="stroke:#000000;stroke-width:0.8;" x="375.710073" xlink:href="#mec456bc878" y="525.24"/>
      </g>
     </g>
     <g id="text_6">
      <!-- 6.5 -->
      <g transform="translate(364.577886 542.877813)scale(0.14 -0.14)">
       <use xlink:href="#DejaVuSans-54"/>
       <use x="63.623047" xlink:href="#DejaVuSans-46"/>
       <use x="95.410156" xlink:href="#DejaVuSans-53"/>
      </g>
     </g>
    </g>
    <g id="xtick_5">
     <g id="line2d_7">
      <g>
       <use style="stroke:#000000;stroke-width:0.8;" x="466.918618" xlink:href="#mec456bc878" y="525.24"/>
      </g>
     </g>
     <g id="text_7">
      <!-- 7.0 -->
      <defs>
       <path d="M 8.203125 72.90625 
L 55.078125 72.90625 
L 55.078125 68.703125 
L 28.609375 0 
L 18.3125 0 
L 43.21875 64.59375 
L 8.203125 64.59375 
z
" id="DejaVuSans-55"/>
      </defs>
      <g transform="translate(455.786431 542.877813)scale(0.14 -0.14)">
       <use xlink:href="#DejaVuSans-55"/>
       <use x="63.623047" xlink:href="#DejaVuSans-46"/>
       <use x="95.410156" xlink:href="#DejaVuSans-48"/>
      </g>
     </g>
    </g>
   </g>
   <g id="line2d_8">
    <path clip-path="url(#pfbf48b0e37)" d="M 311.864092 525.24 
L 311.864092 402.93 
" style="fill:none;stroke:#ff6384;stroke-dasharray:5.55,2.4;stroke-dashoffset:0;stroke-opacity:0.8;stroke-width:1.5;"/>
   </g>
   <g id="line2d_9">
    <path clip-path="url(#pfbf48b0e37)" d="M 260.787306 525.24 
L 260.787306 402.93 
" style="fill:none;stroke:#36a2eb;stroke-dasharray:5.55,2.4;stroke-dashoffset:0;stroke-opacity:0.8;stroke-width:1.5;"/>
   </g>
   <g id="patch_10">
    <path d="M 36 525.24 
L 538.2 525.24 
" style="fill:none;stroke:#000000;stroke-linecap:square;stroke-linejoin:miter;stroke-width:0.8;"/>
   </g>
  </g>
 </g>
 <defs>
  <clipPath id="p97020d71f6">
   <rect height="366.93" width="502.2" x="36" y="36"/>
  </clipPath>
  <clipPath id="pfbf48b0e37">
   <rect height="122.31" width="502.2" x="36" y="402.93"/>
  </clipPath>
 </defs>
</svg>
