<?xml version="1.0" encoding="utf-8" standalone="no"?>
<!DOCTYPE svg PUBLIC "-//W3C//DTD SVG 1.1//EN"
  "http://www.w3.org/Graphics/SVG/1.1/DTD/svg11.dtd">
<!-- Created with matplotlib (https://matplotlib.org/) -->
<svg height="581.789375pt" version="1.1" viewBox="0 0 574.2 581.789375" width="574.2pt" xmlns="http://www.w3.org/2000/svg" xmlns:xlink="http://www.w3.org/1999/xlink">
 <defs>
  <style type="text/css">
*{stroke-linecap:butt;stroke-linejoin:round;}
  </style>
 </defs>
 <g id="figure_1">
  <g id="patch_1">
   <path d="M 0 581.789375 
L 574.2 581.789375 
L 574.2 0 
L 0 0 
z
" style="fill:none;"/>
  </g>
  <g id="axes_1">
   <g id="patch_2">
    <path d="M 36 402.93 
L 538.2 402.93 
L 538.2 36 
L 36 36 
z
" style="fill:none;"/>
   </g>
   <g id="PolyCollection_1">
    <defs>
     <path d="M 105.227169 -195.538011 
L 105.227169 -195.649233 
L 109.370054 -195.691173 
L 113.512938 -195.747555 
L 117.655822 -195.822826 
L 121.798707 -195.922616 
L 125.941591 -196.053988 
L 130.084476 -196.22573 
L 134.22736 -196.44867 
L 138.370245 -196.736031 
L 142.513129 -197.103813 
L 146.656013 -197.571181 
L 150.798898 -198.160867 
L 154.941782 -198.899559 
L 159.084667 -199.818254 
L 163.227551 -200.95255 
L 167.370436 -202.342862 
L 171.51332 -204.034508 
L 175.656204 -206.077638 
L 179.799089 -208.52698 
L 183.941973 -211.441345 
L 188.084858 -214.882878 
L 192.227742 -218.916014 
L 196.370627 -223.60612 
L 200.513511 -229.017821 
L 204.656395 -235.213007 
L 208.79928 -242.24855 
L 212.942164 -250.173765 
L 217.085049 -259.027684 
L 221.227933 -268.836212 
L 225.370817 -279.609285 
L 229.513702 -291.338123 
L 233.656586 -303.992738 
L 237.799471 -317.519811 
L 241.942355 -331.84109 
L 246.08524 -346.852452 
L 250.228124 -362.423729 
L 254.371008 -378.399412 
L 258.513893 -394.600301 
L 262.656777 -410.826114 
L 266.799662 -426.859056 
L 270.942546 -442.468286 
L 275.085431 -457.415166 
L 279.228315 -471.459148 
L 283.371199 -484.364092 
L 287.514084 -495.904808 
L 291.656968 -505.873556 
L 295.799853 -514.086243 
L 299.942737 -520.388076 
L 304.085622 -524.658407 
L 308.228506 -526.814577 
L 312.37139 -526.814577 
L 316.514275 -524.658407 
L 320.657159 -520.388076 
L 324.800044 -514.086243 
L 328.942928 -505.873556 
L 333.085813 -495.904808 
L 337.228697 -484.364092 
L 341.371581 -471.459148 
L 345.514466 -457.415166 
L 349.65735 -442.468286 
L 353.800235 -426.859056 
L 357.943119 -410.826114 
L 362.086004 -394.600301 
L 366.228888 -378.399412 
L 370.371772 -362.423729 
L 374.514657 -346.852452 
L 378.657541 -331.84109 
L 382.800426 -317.519811 
L 386.94331 -303.992738 
L 391.086195 -291.338123 
L 395.229079 -279.609285 
L 399.371963 -268.836212 
L 403.514848 -259.027684 
L 407.657732 -250.173765 
L 411.800617 -242.24855 
L 415.943501 -235.213007 
L 420.086385 -229.017821 
L 424.22927 -223.60612 
L 428.372154 -218.916014 
L 432.515039 -214.882878 
L 436.657923 -211.441345 
L 440.800808 -208.52698 
L 444.943692 -206.077638 
L 449.086576 -204.034508 
L 453.229461 -202.342862 
L 457.372345 -200.95255 
L 461.51523 -199.818254 
L 465.658114 -198.899559 
L 469.800999 -198.160867 
L 473.943883 -197.571181 
L 478.086767 -197.103813 
L 482.229652 -196.736031 
L 486.372536 -196.44867 
L 490.515421 -196.22573 
L 494.658305 -196.053988 
L 498.80119 -195.922616 
L 502.944074 -195.822826 
L 507.086958 -195.747555 
L 511.229843 -195.691173 
L 515.372727 -195.649233 
L 515.372727 -195.538011 
L 515.372727 -195.538011 
L 511.229843 -195.538011 
L 507.086958 -195.538011 
L 502.944074 -195.538011 
L 498.80119 -195.538011 
L 494.658305 -195.538011 
L 490.515421 -195.538011 
L 486.372536 -195.538011 
L 482.229652 -195.538011 
L 478.086767 -195.538011 
L 473.943883 -195.538011 
L 469.800999 -195.538011 
L 465.658114 -195.538011 
L 461.51523 -195.538011 
L 457.372345 -195.538011 
L 453.229461 -195.538011 
L 449.086576 -195.538011 
L 444.943692 -195.538011 
L 440.800808 -195.538011 
L 436.657923 -195.538011 
L 432.515039 -195.538011 
L 428.372154 -195.538011 
L 424.22927 -195.538011 
L 420.086385 -195.538011 
L 415.943501 -195.538011 
L 411.800617 -195.538011 
L 407.657732 -195.538011 
L 403.514848 -195.538011 
L 399.371963 -195.538011 
L 395.229079 -195.538011 
L 391.086195 -195.538011 
L 386.94331 -195.538011 
L 382.800426 -195.538011 
L 378.657541 -195.538011 
L 374.514657 -195.538011 
L 370.371772 -195.538011 
L 366.228888 -195.538011 
L 362.086004 -195.538011 
L 357.943119 -195.538011 
L 353.800235 -195.538011 
L 349.65735 -195.538011 
L 345.514466 -195.538011 
L 341.371581 -195.538011 
L 337.228697 -195.538011 
L 333.085813 -195.538011 
L 328.942928 -195.538011 
L 324.800044 -195.538011 
L 320.657159 -195.538011 
L 316.514275 -195.538011 
L 312.37139 -195.538011 
L 308.228506 -195.538011 
L 304.085622 -195.538011 
L 299.942737 -195.538011 
L 295.799853 -195.538011 
L 291.656968 -195.538011 
L 287.514084 -195.538011 
L 283.371199 -195.538011 
L 279.228315 -195.538011 
L 275.085431 -195.538011 
L 270.942546 -195.538011 
L 266.799662 -195.538011 
L 262.656777 -195.538011 
L 258.513893 -195.538011 
L 254.371008 -195.538011 
L 250.228124 -195.538011 
L 246.08524 -195.538011 
L 241.942355 -195.538011 
L 237.799471 -195.538011 
L 233.656586 -195.538011 
L 229.513702 -195.538011 
L 225.370817 -195.538011 
L 221.227933 -195.538011 
L 217.085049 -195.538011 
L 212.942164 -195.538011 
L 208.79928 -195.538011 
L 204.656395 -195.538011 
L 200.513511 -195.538011 
L 196.370627 -195.538011 
L 192.227742 -195.538011 
L 188.084858 -195.538011 
L 183.941973 -195.538011 
L 179.799089 -195.538011 
L 175.656204 -195.538011 
L 171.51332 -195.538011 
L 167.370436 -195.538011 
L 163.227551 -195.538011 
L 159.084667 -195.538011 
L 154.941782 -195.538011 
L 150.798898 -195.538011 
L 146.656013 -195.538011 
L 142.513129 -195.538011 
L 138.370245 -195.538011 
L 134.22736 -195.538011 
L 130.084476 -195.538011 
L 125.941591 -195.538011 
L 121.798707 -195.538011 
L 117.655822 -195.538011 
L 113.512938 -195.538011 
L 109.370054 -195.538011 
L 105.227169 -195.538011 
z
" id="m282698d8f5" style="stroke:#ff6384;stroke-opacity:0.5;"/>
    </defs>
    <g clip-path="url(#pe996a0f35b)">
     <use style="fill:#ff6384;fill-opacity:0.5;stroke:#ff6384;stroke-opacity:0.5;" x="0" xlink:href="#m282698d8f5" y="581.789375"/>
    </g>
   </g>
   <g id="PolyCollection_2">
    <defs>
     <path d="M 58.827273 -195.538011 
L 58.827273 -195.650004 
L 62.941639 -195.692234 
L 67.056006 -195.749007 
L 71.170373 -195.8248 
L 75.28474 -195.925281 
L 79.399106 -196.057565 
L 83.513473 -196.230497 
L 87.62784 -196.454982 
L 91.742206 -196.744335 
L 95.856573 -197.114666 
L 99.97094 -197.585273 
L 104.085307 -198.179047 
L 108.199673 -198.922859 
L 112.31404 -199.847921 
L 116.428407 -200.990079 
L 120.542773 -202.390029 
L 124.65714 -204.093399 
L 128.771507 -206.150691 
L 132.885874 -208.617009 
L 137.00024 -211.551575 
L 141.114607 -215.016962 
L 145.228974 -219.078053 
L 149.34334 -223.800667 
L 153.457707 -229.249878 
L 157.572074 -235.488004 
L 161.686441 -242.572312 
L 165.800807 -250.552459 
L 169.915174 -259.467747 
L 174.029541 -269.344261 
L 178.143907 -280.192004 
L 182.258274 -292.002137 
L 186.372641 -304.744465 
L 190.487008 -318.365297 
L 194.601374 -332.785841 
L 198.715741 -347.901251 
L 202.830108 -363.580456 
L 206.944474 -379.666871 
L 211.058841 -395.980052 
L 215.173208 -412.31833 
L 219.287575 -428.4624 
L 223.401941 -444.179822 
L 227.516308 -459.230303 
L 231.630675 -473.371627 
L 235.745041 -486.366018 
L 239.859408 -497.986726 
L 243.973775 -508.02457 
L 248.088142 -516.294181 
L 252.202508 -522.639693 
L 256.316875 -526.939623 
L 260.431242 -529.110739 
L 264.545608 -529.110739 
L 268.659975 -526.939623 
L 272.774342 -522.639693 
L 276.888709 -516.294181 
L 281.003075 -508.02457 
L 285.117442 -497.986726 
L 289.231809 -486.366018 
L 293.346175 -473.371627 
L 297.460542 -459.230303 
L 301.574909 -444.179822 
L 305.689276 -428.4624 
L 309.803642 -412.31833 
L 313.918009 -395.980052 
L 318.032376 -379.666871 
L 322.146742 -363.580456 
L 326.261109 -347.901251 
L 330.375476 -332.785841 
L 334.489843 -318.365297 
L 338.604209 -304.744465 
L 342.718576 -292.002137 
L 346.832943 -280.192004 
L 350.947309 -269.344261 
L 355.061676 -259.467747 
L 359.176043 -250.552459 
L 363.29041 -242.572312 
L 367.404776 -235.488004 
L 371.519143 -229.249878 
L 375.63351 -223.800667 
L 379.747876 -219.078053 
L 383.862243 -215.016962 
L 387.97661 -211.551575 
L 392.090977 -208.617009 
L 396.205343 -206.150691 
L 400.31971 -204.093399 
L 404.434077 -202.390029 
L 408.548443 -200.990079 
L 412.66281 -199.847921 
L 416.777177 -198.922859 
L 420.891544 -198.179047 
L 425.00591 -197.585273 
L 429.120277 -197.114666 
L 433.234644 -196.744335 
L 437.34901 -196.454982 
L 441.463377 -196.230497 
L 445.577744 -196.057565 
L 449.692111 -195.925281 
L 453.806477 -195.8248 
L 457.920844 -195.749007 
L 462.035211 -195.692234 
L 466.149577 -195.650004 
L 466.149577 -195.538011 
L 466.149577 -195.538011 
L 462.035211 -195.538011 
L 457.920844 -195.538011 
L 453.806477 -195.538011 
L 449.692111 -195.538011 
L 445.577744 -195.538011 
L 441.463377 -195.538011 
L 437.34901 -195.538011 
L 433.234644 -195.538011 
L 429.120277 -195.538011 
L 425.00591 -195.538011 
L 420.891544 -195.538011 
L 416.777177 -195.538011 
L 412.66281 -195.538011 
L 408.548443 -195.538011 
L 404.434077 -195.538011 
L 400.31971 -195.538011 
L 396.205343 -195.538011 
L 392.090977 -195.538011 
L 387.97661 -195.538011 
L 383.862243 -195.538011 
L 379.747876 -195.538011 
L 375.63351 -195.538011 
L 371.519143 -195.538011 
L 367.404776 -195.538011 
L 363.29041 -195.538011 
L 359.176043 -195.538011 
L 355.061676 -195.538011 
L 350.947309 -195.538011 
L 346.832943 -195.538011 
L 342.718576 -195.538011 
L 338.604209 -195.538011 
L 334.489843 -195.538011 
L 330.375476 -195.538011 
L 326.261109 -195.538011 
L 322.146742 -195.538011 
L 318.032376 -195.538011 
L 313.918009 -195.538011 
L 309.803642 -195.538011 
L 305.689276 -195.538011 
L 301.574909 -195.538011 
L 297.460542 -195.538011 
L 293.346175 -195.538011 
L 289.231809 -195.538011 
L 285.117442 -195.538011 
L 281.003075 -195.538011 
L 276.888709 -195.538011 
L 272.774342 -195.538011 
L 268.659975 -195.538011 
L 264.545608 -195.538011 
L 260.431242 -195.538011 
L 256.316875 -195.538011 
L 252.202508 -195.538011 
L 248.088142 -195.538011 
L 243.973775 -195.538011 
L 239.859408 -195.538011 
L 235.745041 -195.538011 
L 231.630675 -195.538011 
L 227.516308 -195.538011 
L 223.401941 -195.538011 
L 219.287575 -195.538011 
L 215.173208 -195.538011 
L 211.058841 -195.538011 
L 206.944474 -195.538011 
L 202.830108 -195.538011 
L 198.715741 -195.538011 
L 194.601374 -195.538011 
L 190.487008 -195.538011 
L 186.372641 -195.538011 
L 182.258274 -195.538011 
L 178.143907 -195.538011 
L 174.029541 -195.538011 
L 169.915174 -195.538011 
L 165.800807 -195.538011 
L 161.686441 -195.538011 
L 157.572074 -195.538011 
L 153.457707 -195.538011 
L 149.34334 -195.538011 
L 145.228974 -195.538011 
L 141.114607 -195.538011 
L 137.00024 -195.538011 
L 132.885874 -195.538011 
L 128.771507 -195.538011 
L 124.65714 -195.538011 
L 120.542773 -195.538011 
L 116.428407 -195.538011 
L 112.31404 -195.538011 
L 108.199673 -195.538011 
L 104.085307 -195.538011 
L 99.97094 -195.538011 
L 95.856573 -195.538011 
L 91.742206 -195.538011 
L 87.62784 -195.538011 
L 83.513473 -195.538011 
L 79.399106 -195.538011 
L 75.28474 -195.538011 
L 71.170373 -195.538011 
L 67.056006 -195.538011 
L 62.941639 -195.538011 
L 58.827273 -195.538011 
z
" id="mf7581fab95" style="stroke:#36a2eb;stroke-opacity:0.5;"/>
    </defs>
    <g clip-path="url(#pe996a0f35b)">
     <use style="fill:#36a2eb;fill-opacity:0.5;stroke:#36a2eb;stroke-opacity:0.5;" x="0" xlink:href="#mf7581fab95" y="581.789375"/>
    </g>
   </g>
   <g id="line2d_1">
    <path clip-path="url(#pe996a0f35b)" d="M 105.227169 386.140142 
L 109.370054 386.098202 
L 113.512938 386.04182 
L 117.655822 385.966549 
L 121.798707 385.866759 
L 125.941591 385.735387 
L 130.084476 385.563645 
L 134.22736 385.340705 
L 138.370245 385.053344 
L 142.513129 384.685562 
L 146.656013 384.218194 
L 150.798898 383.628508 
L 154.941782 382.889816 
L 159.084667 381.971121 
L 163.227551 380.836825 
L 167.370436 379.446513 
L 171.51332 377.754867 
L 175.656204 375.711737 
L 179.799089 373.262395 
L 183.941973 370.34803 
L 188.084858 366.906497 
L 192.227742 362.873361 
L 196.370627 358.183255 
L 200.513511 352.771554 
L 204.656395 346.576368 
L 208.79928 339.540825 
L 212.942164 331.61561 
L 217.085049 322.761691 
L 221.227933 312.953163 
L 225.370817 302.18009 
L 229.513702 290.451252 
L 233.656586 277.796637 
L 237.799471 264.269564 
L 241.942355 249.948285 
L 246.08524 234.936923 
L 250.228124 219.365646 
L 254.371008 203.389963 
L 258.513893 187.189074 
L 262.656777 170.963261 
L 266.799662 154.930319 
L 270.942546 139.321089 
L 275.085431 124.374209 
L 279.228315 110.330227 
L 283.371199 97.425283 
L 287.514084 85.884567 
L 291.656968 75.915819 
L 295.799853 67.703132 
L 299.942737 61.401299 
L 304.085622 57.130968 
L 308.228506 54.974798 
L 312.37139 54.974798 
L 316.514275 57.130968 
L 320.657159 61.401299 
L 324.800044 67.703132 
L 328.942928 75.915819 
L 333.085813 85.884567 
L 337.228697 97.425283 
L 341.371581 110.330227 
L 345.514466 124.374209 
L 349.65735 139.321089 
L 353.800235 154.930319 
L 357.943119 170.963261 
L 362.086004 187.189074 
L 366.228888 203.389963 
L 370.371772 219.365646 
L 374.514657 234.936923 
L 378.657541 249.948285 
L 382.800426 264.269564 
L 386.94331 277.796637 
L 391.086195 290.451252 
L 395.229079 302.18009 
L 399.371963 312.953163 
L 403.514848 322.761691 
L 407.657732 331.61561 
L 411.800617 339.540825 
L 415.943501 346.576368 
L 420.086385 352.771554 
L 424.22927 358.183255 
L 428.372154 362.873361 
L 432.515039 366.906497 
L 436.657923 370.34803 
L 440.800808 373.262395 
L 444.943692 375.711737 
L 449.086576 377.754867 
L 453.229461 379.446513 
L 457.372345 380.836825 
L 461.51523 381.971121 
L 465.658114 382.889816 
L 469.800999 383.628508 
L 473.943883 384.218194 
L 478.086767 384.685562 
L 482.229652 385.053344 
L 486.372536 385.340705 
L 490.515421 385.563645 
L 494.658305 385.735387 
L 498.80119 385.866759 
L 502.944074 385.966549 
L 507.086958 386.04182 
L 511.229843 386.098202 
L 515.372727 386.140142 
" style="fill:none;stroke:#ff6384;stroke-linecap:square;"/>
   </g>
   <g id="line2d_2">
    <path clip-path="url(#pe996a0f35b)" d="M 58.827273 386.139371 
L 62.941639 386.097141 
L 67.056006 386.040368 
L 71.170373 385.964575 
L 75.28474 385.864094 
L 79.399106 385.73181 
L 83.513473 385.558878 
L 87.62784 385.334393 
L 91.742206 385.04504 
L 95.856573 384.674709 
L 99.97094 384.204102 
L 104.085307 383.610328 
L 108.199673 382.866516 
L 112.31404 381.941454 
L 116.428407 380.799296 
L 120.542773 379.399346 
L 124.65714 377.695976 
L 128.771507 375.638684 
L 132.885874 373.172366 
L 137.00024 370.2378 
L 141.114607 366.772413 
L 145.228974 362.711322 
L 149.34334 357.988708 
L 153.457707 352.539497 
L 157.572074 346.301371 
L 161.686441 339.217063 
L 165.800807 331.236916 
L 169.915174 322.321628 
L 174.029541 312.445114 
L 178.143907 301.597371 
L 182.258274 289.787238 
L 186.372641 277.04491 
L 190.487008 263.424078 
L 194.601374 249.003534 
L 198.715741 233.888124 
L 202.830108 218.208919 
L 206.944474 202.122504 
L 211.058841 185.809323 
L 215.173208 169.471045 
L 219.287575 153.326975 
L 223.401941 137.609553 
L 227.516308 122.559072 
L 231.630675 108.417748 
L 235.745041 95.423357 
L 239.859408 83.802649 
L 243.973775 73.764805 
L 248.088142 65.495194 
L 252.202508 59.149682 
L 256.316875 54.849752 
L 260.431242 52.678636 
L 264.545608 52.678636 
L 268.659975 54.849752 
L 272.774342 59.149682 
L 276.888709 65.495194 
L 281.003075 73.764805 
L 285.117442 83.802649 
L 289.231809 95.423357 
L 293.346175 108.417748 
L 297.460542 122.559072 
L 301.574909 137.609553 
L 305.689276 153.326975 
L 309.803642 169.471045 
L 313.918009 185.809323 
L 318.032376 202.122504 
L 322.146742 218.208919 
L 326.261109 233.888124 
L 330.375476 249.003534 
L 334.489843 263.424078 
L 338.604209 277.04491 
L 342.718576 289.787238 
L 346.832943 301.597371 
L 350.947309 312.445114 
L 355.061676 322.321628 
L 359.176043 331.236916 
L 363.29041 339.217063 
L 367.404776 346.301371 
L 371.519143 352.539497 
L 375.63351 357.988708 
L 379.747876 362.711322 
L 383.862243 366.772413 
L 387.97661 370.2378 
L 392.090977 373.172366 
L 396.205343 375.638684 
L 400.31971 377.695976 
L 404.434077 379.399346 
L 408.548443 380.799296 
L 412.66281 381.941454 
L 416.777177 382.866516 
L 420.891544 383.610328 
L 425.00591 384.204102 
L 429.120277 384.674709 
L 433.234644 385.04504 
L 437.34901 385.334393 
L 441.463377 385.558878 
L 445.577744 385.73181 
L 449.692111 385.864094 
L 453.806477 385.964575 
L 457.920844 386.040368 
L 462.035211 386.097141 
L 466.149577 386.139371 
" style="fill:none;stroke:#36a2eb;stroke-linecap:square;"/>
   </g>
   <g id="patch_3">
    <path d="M 36 402.93 
L 538.2 402.93 
" style="fill:none;stroke:#000000;stroke-linecap:square;stroke-linejoin:miter;stroke-width:0.8;"/>
   </g>
   <g id="legend_1">
    <g id="patch_4">
     <path d="M 410.290313 88.688125 
L 528.4 88.688125 
Q 531.2 88.688125 531.2 85.888125 
L 531.2 45.8 
Q 531.2 43 528.4 43 
L 410.290313 43 
Q 407.490313 43 407.490313 45.8 
L 407.490313 85.888125 
Q 407.490313 88.688125 410.290313 88.688125 
z
" style="fill:#ffffff;opacity:0.8;stroke:#cccccc;stroke-linejoin:miter;"/>
    </g>
    <g id="patch_5">
     <path d="M 413.090313 59.237813 
L 441.090313 59.237813 
L 441.090313 49.437813 
L 413.090313 49.437813 
z
" style="fill:#ff6384;opacity:0.5;stroke:#ff6384;stroke-linejoin:miter;"/>
    </g>
    <g id="text_1">
     <!-- base -->
     <defs>
      <path d="M 48.6875 27.296875 
Q 48.6875 37.203125 44.609375 42.84375 
Q 40.53125 48.484375 33.40625 48.484375 
Q 26.265625 48.484375 22.1875 42.84375 
Q 18.109375 37.203125 18.109375 27.296875 
Q 18.109375 17.390625 22.1875 11.75 
Q 26.265625 6.109375 33.40625 6.109375 
Q 40.53125 6.109375 44.609375 11.75 
Q 48.6875 17.390625 48.6875 27.296875 
z
M 18.109375 46.390625 
Q 20.953125 51.265625 25.265625 53.625 
Q 29.59375 56 35.59375 56 
Q 45.5625 56 51.78125 48.09375 
Q 58.015625 40.1875 58.015625 27.296875 
Q 58.015625 14.40625 51.78125 6.484375 
Q 45.5625 -1.421875 35.59375 -1.421875 
Q 29.59375 -1.421875 25.265625 0.953125 
Q 20.953125 3.328125 18.109375 8.203125 
L 18.109375 0 
L 9.078125 0 
L 9.078125 75.984375 
L 18.109375 75.984375 
z
" id="DejaVuSans-98"/>
      <path d="M 34.28125 27.484375 
Q 23.390625 27.484375 19.1875 25 
Q 14.984375 22.515625 14.984375 16.5 
Q 14.984375 11.71875 18.140625 8.90625 
Q 21.296875 6.109375 26.703125 6.109375 
Q 34.1875 6.109375 38.703125 11.40625 
Q 43.21875 16.703125 43.21875 25.484375 
L 43.21875 27.484375 
z
M 52.203125 31.203125 
L 52.203125 0 
L 43.21875 0 
L 43.21875 8.296875 
Q 40.140625 3.328125 35.546875 0.953125 
Q 30.953125 -1.421875 24.3125 -1.421875 
Q 15.921875 -1.421875 10.953125 3.296875 
Q 6 8.015625 6 15.921875 
Q 6 25.140625 12.171875 29.828125 
Q 18.359375 34.515625 30.609375 34.515625 
L 43.21875 34.515625 
L 43.21875 35.40625 
Q 43.21875 41.609375 39.140625 45 
Q 35.0625 48.390625 27.6875 48.390625 
Q 23 48.390625 18.546875 47.265625 
Q 14.109375 46.140625 10.015625 43.890625 
L 10.015625 52.203125 
Q 14.9375 54.109375 19.578125 55.046875 
Q 24.21875 56 28.609375 56 
Q 40.484375 56 46.34375 49.84375 
Q 52.203125 43.703125 52.203125 31.203125 
z
" id="DejaVuSans-97"/>
      <path d="M 44.28125 53.078125 
L 44.28125 44.578125 
Q 40.484375 46.53125 36.375 47.5 
Q 32.28125 48.484375 27.875 48.484375 
Q 21.1875 48.484375 17.84375 46.4375 
Q 14.5 44.390625 14.5 40.28125 
Q 14.5 37.15625 16.890625 35.375 
Q 19.28125 33.59375 26.515625 31.984375 
L 29.59375 31.296875 
Q 39.15625 29.25 43.1875 25.515625 
Q 47.21875 21.78125 47.21875 15.09375 
Q 47.21875 7.46875 41.1875 3.015625 
Q 35.15625 -1.421875 24.609375 -1.421875 
Q 20.21875 -1.421875 15.453125 -0.5625 
Q 10.6875 0.296875 5.421875 2 
L 5.421875 11.28125 
Q 10.40625 8.6875 15.234375 7.390625 
Q 20.0625 6.109375 24.8125 6.109375 
Q 31.15625 6.109375 34.5625 8.28125 
Q 37.984375 10.453125 37.984375 14.40625 
Q 37.984375 18.0625 35.515625 20.015625 
Q 33.0625 21.96875 24.703125 23.78125 
L 21.578125 24.515625 
Q 13.234375 26.265625 9.515625 29.90625 
Q 5.8125 33.546875 5.8125 39.890625 
Q 5.8125 47.609375 11.28125 51.796875 
Q 16.75 56 26.8125 56 
Q 31.78125 56 36.171875 55.265625 
Q 40.578125 54.546875 44.28125 53.078125 
z
" id="DejaVuSans-115"/>
      <path d="M 56.203125 29.59375 
L 56.203125 25.203125 
L 14.890625 25.203125 
Q 15.484375 15.921875 20.484375 11.0625 
Q 25.484375 6.203125 34.421875 6.203125 
Q 39.59375 6.203125 44.453125 7.46875 
Q 49.3125 8.734375 54.109375 11.28125 
L 54.109375 2.78125 
Q 49.265625 0.734375 44.1875 -0.34375 
Q 39.109375 -1.421875 33.890625 -1.421875 
Q 20.796875 -1.421875 13.15625 6.1875 
Q 5.515625 13.8125 5.515625 26.8125 
Q 5.515625 40.234375 12.765625 48.109375 
Q 20.015625 56 32.328125 56 
Q 43.359375 56 49.78125 48.890625 
Q 56.203125 41.796875 56.203125 29.59375 
z
M 47.21875 32.234375 
Q 47.125 39.59375 43.09375 43.984375 
Q 39.0625 48.390625 32.421875 48.390625 
Q 24.90625 48.390625 20.390625 44.140625 
Q 15.875 39.890625 15.1875 32.171875 
z
" id="DejaVuSans-101"/>
     </defs>
     <g transform="translate(452.290313 59.237813)scale(0.14 -0.14)">
      <use xlink:href="#DejaVuSans-98"/>
      <use x="63.476562" xlink:href="#DejaVuSans-97"/>
      <use x="124.755859" xlink:href="#DejaVuSans-115"/>
      <use x="176.855469" xlink:href="#DejaVuSans-101"/>
     </g>
    </g>
    <g id="patch_6">
     <path d="M 413.090313 79.787188 
L 441.090313 79.787188 
L 441.090313 69.987188 
L 413.090313 69.987188 
z
" style="fill:#36a2eb;opacity:0.5;stroke:#36a2eb;stroke-linejoin:miter;"/>
    </g>
    <g id="text_2">
     <!-- no_license -->
     <defs>
      <path d="M 54.890625 33.015625 
L 54.890625 0 
L 45.90625 0 
L 45.90625 32.71875 
Q 45.90625 40.484375 42.875 44.328125 
Q 39.84375 48.1875 33.796875 48.1875 
Q 26.515625 48.1875 22.3125 43.546875 
Q 18.109375 38.921875 18.109375 30.90625 
L 18.109375 0 
L 9.078125 0 
L 9.078125 54.6875 
L 18.109375 54.6875 
L 18.109375 46.1875 
Q 21.34375 51.125 25.703125 53.5625 
Q 30.078125 56 35.796875 56 
Q 45.21875 56 50.046875 50.171875 
Q 54.890625 44.34375 54.890625 33.015625 
z
" id="DejaVuSans-110"/>
      <path d="M 30.609375 48.390625 
Q 23.390625 48.390625 19.1875 42.75 
Q 14.984375 37.109375 14.984375 27.296875 
Q 14.984375 17.484375 19.15625 11.84375 
Q 23.34375 6.203125 30.609375 6.203125 
Q 37.796875 6.203125 41.984375 11.859375 
Q 46.1875 17.53125 46.1875 27.296875 
Q 46.1875 37.015625 41.984375 42.703125 
Q 37.796875 48.390625 30.609375 48.390625 
z
M 30.609375 56 
Q 42.328125 56 49.015625 48.375 
Q 55.71875 40.765625 55.71875 27.296875 
Q 55.71875 13.875 49.015625 6.21875 
Q 42.328125 -1.421875 30.609375 -1.421875 
Q 18.84375 -1.421875 12.171875 6.21875 
Q 5.515625 13.875 5.515625 27.296875 
Q 5.515625 40.765625 12.171875 48.375 
Q 18.84375 56 30.609375 56 
z
" id="DejaVuSans-111"/>
      <path d="M 50.984375 -16.609375 
L 50.984375 -23.578125 
L -0.984375 -23.578125 
L -0.984375 -16.609375 
z
" id="DejaVuSans-95"/>
      <path d="M 9.421875 75.984375 
L 18.40625 75.984375 
L 18.40625 0 
L 9.421875 0 
z
" id="DejaVuSans-108"/>
      <path d="M 9.421875 54.6875 
L 18.40625 54.6875 
L 18.40625 0 
L 9.421875 0 
z
M 9.421875 75.984375 
L 18.40625 75.984375 
L 18.40625 64.59375 
L 9.421875 64.59375 
z
" id="DejaVuSans-105"/>
      <path d="M 48.78125 52.59375 
L 48.78125 44.1875 
Q 44.96875 46.296875 41.140625 47.34375 
Q 37.3125 48.390625 33.40625 48.390625 
Q 24.65625 48.390625 19.8125 42.84375 
Q 14.984375 37.3125 14.984375 27.296875 
Q 14.984375 17.28125 19.8125 11.734375 
Q 24.65625 6.203125 33.40625 6.203125 
Q 37.3125 6.203125 41.140625 7.25 
Q 44.96875 8.296875 48.78125 10.40625 
L 48.78125 2.09375 
Q 45.015625 0.34375 40.984375 -0.53125 
Q 36.96875 -1.421875 32.421875 -1.421875 
Q 20.0625 -1.421875 12.78125 6.34375 
Q 5.515625 14.109375 5.515625 27.296875 
Q 5.515625 40.671875 12.859375 48.328125 
Q 20.21875 56 33.015625 56 
Q 37.15625 56 41.109375 55.140625 
Q 45.0625 54.296875 48.78125 52.59375 
z
" id="DejaVuSans-99"/>
     </defs>
     <g transform="translate(452.290313 79.787188)scale(0.14 -0.14)">
      <use xlink:href="#DejaVuSans-110"/>
      <use x="63.378906" xlink:href="#DejaVuSans-111"/>
      <use x="124.560547" xlink:href="#DejaVuSans-95"/>
      <use x="174.560547" xlink:href="#DejaVuSans-108"/>
      <use x="202.34375" xlink:href="#DejaVuSans-105"/>
      <use x="230.126953" xlink:href="#DejaVuSans-99"/>
      <use x="285.107422" xlink:href="#DejaVuSans-101"/>
      <use x="346.630859" xlink:href="#DejaVuSans-110"/>
      <use x="410.009766" xlink:href="#DejaVuSans-115"/>
      <use x="462.109375" xlink:href="#DejaVuSans-101"/>
     </g>
    </g>
   </g>
  </g>
  <g id="axes_2">
   <g id="patch_7">
    <path d="M 36 525.24 
L 538.2 525.24 
L 538.2 402.93 
L 36 402.93 
z
" style="fill:none;"/>
   </g>
   <g id="patch_8">
    <path clip-path="url(#pb32c179ee1)" d="M 209.814286 519.680455 
L 410.78561 519.680455 
L 410.78561 482.616818 
L 209.814286 482.616818 
z
" style="fill:#ff6384;opacity:0.5;"/>
   </g>
   <g id="patch_9">
    <path clip-path="url(#pb32c179ee1)" d="M 162.69446 445.553182 
L 362.28239 445.553182 
L 362.28239 408.489545 
L 162.69446 408.489545 
z
" style="fill:#36a2eb;opacity:0.5;"/>
   </g>
   <g id="matplotlib.axis_1">
    <g id="xtick_1">
     <g id="line2d_3">
      <defs>
       <path d="M 0 0 
L 0 3.5 
" id="mfbf3a490ad" style="stroke:#000000;stroke-width:0.8;"/>
      </defs>
      <g>
       <use style="stroke:#000000;stroke-width:0.8;" x="100.664808" xlink:href="#mfbf3a490ad" y="525.24"/>
      </g>
     </g>
     <g id="text_3">
      <!-- 5.0 -->
      <defs>
       <path d="M 10.796875 72.90625 
L 49.515625 72.90625 
L 49.515625 64.59375 
L 19.828125 64.59375 
L 19.828125 46.734375 
Q 21.96875 47.46875 24.109375 47.828125 
Q 26.265625 48.1875 28.421875 48.1875 
Q 40.625 48.1875 47.75 41.5 
Q 54.890625 34.8125 54.890625 23.390625 
Q 54.890625 11.625 47.5625 5.09375 
Q 40.234375 -1.421875 26.90625 -1.421875 
Q 22.3125 -1.421875 17.546875 -0.640625 
Q 12.796875 0.140625 7.71875 1.703125 
L 7.71875 11.625 
Q 12.109375 9.234375 16.796875 8.0625 
Q 21.484375 6.890625 26.703125 6.890625 
Q 35.15625 6.890625 40.078125 11.328125 
Q 45.015625 15.765625 45.015625 23.390625 
Q 45.015625 31 40.078125 35.4375 
Q 35.15625 39.890625 26.703125 39.890625 
Q 22.75 39.890625 18.8125 39.015625 
Q 14.890625 38.140625 10.796875 36.28125 
z
" id="DejaVuSans-53"/>
       <path d="M 10.6875 12.40625 
L 21 12.40625 
L 21 0 
L 10.6875 0 
z
" id="DejaVuSans-46"/>
       <path d="M 31.78125 66.40625 
Q 24.171875 66.40625 20.328125 58.90625 
Q 16.5 51.421875 16.5 36.375 
Q 16.5 21.390625 20.328125 13.890625 
Q 24.171875 6.390625 31.78125 6.390625 
Q 39.453125 6.390625 43.28125 13.890625 
Q 47.125 21.390625 47.125 36.375 
Q 47.125 51.421875 43.28125 58.90625 
Q 39.453125 66.40625 31.78125 66.40625 
z
M 31.78125 74.21875 
Q 44.046875 74.21875 50.515625 64.515625 
Q 56.984375 54.828125 56.984375 36.375 
Q 56.984375 17.96875 50.515625 8.265625 
Q 44.046875 -1.421875 31.78125 -1.421875 
Q 19.53125 -1.421875 13.0625 8.265625 
Q 6.59375 17.96875 6.59375 36.375 
Q 6.59375 54.828125 13.0625 64.515625 
Q 19.53125 74.21875 31.78125 74.21875 
z
" id="DejaVuSans-48"/>
      </defs>
      <g transform="translate(89.532621 542.877813)scale(0.14 -0.14)">
       <use xlink:href="#DejaVuSans-53"/>
       <use x="63.623047" xlink:href="#DejaVuSans-46"/>
       <use x="95.410156" xlink:href="#DejaVuSans-48"/>
      </g>
     </g>
    </g>
    <g id="xtick_2">
     <g id="line2d_4">
      <g>
       <use style="stroke:#000000;stroke-width:0.8;" x="192.610045" xlink:href="#mfbf3a490ad" y="525.24"/>
      </g>
     </g>
     <g id="text_4">
      <!-- 5.5 -->
      <g transform="translate(181.477858 542.877813)scale(0.14 -0.14)">
       <use xlink:href="#DejaVuSans-53"/>
       <use x="63.623047" xlink:href="#DejaVuSans-46"/>
       <use x="95.410156" xlink:href="#DejaVuSans-53"/>
      </g>
     </g>
    </g>
    <g id="xtick_3">
     <g id="line2d_5">
      <g>
       <use style="stroke:#000000;stroke-width:0.8;" x="284.555282" xlink:href="#mfbf3a490ad" y="525.24"/>
      </g>
     </g>
     <g id="text_5">
      <!-- 6.0 -->
      <defs>
       <path d="M 33.015625 40.375 
Q 26.375 40.375 22.484375 35.828125 
Q 18.609375 31.296875 18.609375 23.390625 
Q 18.609375 15.53125 22.484375 10.953125 
Q 26.375 6.390625 33.015625 6.390625 
Q 39.65625 6.390625 43.53125 10.953125 
Q 47.40625 15.53125 47.40625 23.390625 
Q 47.40625 31.296875 43.53125 35.828125 
Q 39.65625 40.375 33.015625 40.375 
z
M 52.59375 71.296875 
L 52.59375 62.3125 
Q 48.875 64.0625 45.09375 64.984375 
Q 41.3125 65.921875 37.59375 65.921875 
Q 27.828125 65.921875 22.671875 59.328125 
Q 17.53125 52.734375 16.796875 39.40625 
Q 19.671875 43.65625 24.015625 45.921875 
Q 28.375 48.1875 33.59375 48.1875 
Q 44.578125 48.1875 50.953125 41.515625 
Q 57.328125 34.859375 57.328125 23.390625 
Q 57.328125 12.15625 50.6875 5.359375 
Q 44.046875 -1.421875 33.015625 -1.421875 
Q 20.359375 -1.421875 13.671875 8.265625 
Q 6.984375 17.96875 6.984375 36.375 
Q 6.984375 53.65625 15.1875 63.9375 
Q 23.390625 74.21875 37.203125 74.21875 
Q 40.921875 74.21875 44.703125 73.484375 
Q 48.484375 72.75 52.59375 71.296875 
z
" id="DejaVuSans-54"/>
      </defs>
      <g transform="translate(273.423094 542.877813)scale(0.14 -0.14)">
       <use xlink:href="#DejaVuSans-54"/>
       <use x="63.623047" xlink:href="#DejaVuSans-46"/>
       <use x="95.410156" xlink:href="#DejaVuSans-48"/>
      </g>
     </g>
    </g>
    <g id="xtick_4">
     <g id="line2d_6">
      <g>
       <use style="stroke:#000000;stroke-width:0.8;" x="376.500519" xlink:href="#mfbf3a490ad" y="525.24"/>
      </g>
     </g>
     <g id="text_6">
      <!-- 6.5 -->
      <g transform="translate(365.368331 542.877813)scale(0.14 -0.14)">
       <use xlink:href="#DejaVuSans-54"/>
       <use x="63.623047" xlink:href="#DejaVuSans-46"/>
       <use x="95.410156" xlink:href="#DejaVuSans-53"/>
      </g>
     </g>
    </g>
    <g id="xtick_5">
     <g id="line2d_7">
      <g>
       <use style="stroke:#000000;stroke-width:0.8;" x="468.445755" xlink:href="#mfbf3a490ad" y="525.24"/>
      </g>
     </g>
     <g id="text_7">
      <!-- 7.0 -->
      <defs>
       <path d="M 8.203125 72.90625 
L 55.078125 72.90625 
L 55.078125 68.703125 
L 28.609375 0 
L 18.3125 0 
L 43.21875 64.59375 
L 8.203125 64.59375 
z
" id="DejaVuSans-55"/>
      </defs>
      <g transform="translate(457.313568 542.877813)scale(0.14 -0.14)">
       <use xlink:href="#DejaVuSans-55"/>
       <use x="63.623047" xlink:href="#DejaVuSans-46"/>
       <use x="95.410156" xlink:href="#DejaVuSans-48"/>
      </g>
     </g>
    </g>
   </g>
   <g id="line2d_8">
    <path clip-path="url(#pb32c179ee1)" d="M 310.299948 525.24 
L 310.299948 402.93 
" style="fill:none;stroke:#ff6384;stroke-dasharray:5.55,2.4;stroke-dashoffset:0;stroke-opacity:0.8;stroke-width:1.5;"/>
   </g>
   <g id="line2d_9">
    <path clip-path="url(#pb32c179ee1)" d="M 262.488425 525.24 
L 262.488425 402.93 
" style="fill:none;stroke:#36a2eb;stroke-dasharray:5.55,2.4;stroke-dashoffset:0;stroke-opacity:0.8;stroke-width:1.5;"/>
   </g>
   <g id="patch_10">
    <path d="M 36 525.24 
L 538.2 525.24 
" style="fill:none;stroke:#000000;stroke-linecap:square;stroke-linejoin:miter;stroke-width:0.8;"/>
   </g>
  </g>
 </g>
 <defs>
  <clipPath id="pe996a0f35b">
   <rect height="366.93" width="502.2" x="36" y="36"/>
  </clipPath>
  <clipPath id="pb32c179ee1">
   <rect height="122.31" width="502.2" x="36" y="402.93"/>
  </clipPath>
 </defs>
</svg>
