<?xml version="1.0" encoding="utf-8" standalone="no"?>
<!DOCTYPE svg PUBLIC "-//W3C//DTD SVG 1.1//EN"
  "http://www.w3.org/Graphics/SVG/1.1/DTD/svg11.dtd">
<!-- Created with matplotlib (https://matplotlib.org/) -->
<svg height="581.789375pt" version="1.1" viewBox="0 0 574.2 581.789375" width="574.2pt" xmlns="http://www.w3.org/2000/svg" xmlns:xlink="http://www.w3.org/1999/xlink">
 <defs>
  <style type="text/css">
*{stroke-linecap:butt;stroke-linejoin:round;}
  </style>
 </defs>
 <g id="figure_1">
  <g id="patch_1">
   <path d="M 0 581.789375 
L 574.2 581.789375 
L 574.2 0 
L 0 0 
z
" style="fill:none;"/>
  </g>
  <g id="axes_1">
   <g id="patch_2">
    <path d="M 36 402.93 
L 538.2 402.93 
L 538.2 36 
L 36 36 
z
" style="fill:none;"/>
   </g>
   <g id="PolyCollection_1">
    <defs>
     <path d="M 87.938094 -195.538011 
L 87.938094 -195.649269 
L 92.255616 -195.691222 
L 96.573137 -195.747622 
L 100.890659 -195.822917 
L 105.20818 -195.922739 
L 109.525702 -196.054154 
L 113.843223 -196.225951 
L 118.160745 -196.448962 
L 122.478267 -196.736416 
L 126.795788 -197.104316 
L 131.11331 -197.571834 
L 135.430831 -198.16171 
L 139.748353 -198.90064 
L 144.065874 -199.81963 
L 148.383396 -200.954291 
L 152.700917 -202.34505 
L 157.018439 -204.03724 
L 161.33596 -206.081027 
L 165.653482 -208.531156 
L 169.971004 -211.446458 
L 174.288525 -214.889098 
L 178.606047 -218.92353 
L 182.923568 -223.615144 
L 187.24109 -229.028585 
L 191.558611 -235.225763 
L 195.876133 -242.263568 
L 200.193654 -250.191331 
L 204.511176 -259.048097 
L 208.828697 -268.859779 
L 213.146219 -279.636315 
L 217.463741 -291.368924 
L 221.781262 -304.027608 
L 226.098784 -317.559029 
L 230.416305 -331.884914 
L 234.733827 -346.901102 
L 239.051348 -362.477385 
L 243.36887 -378.458205 
L 247.686391 -394.664303 
L 252.003913 -410.895332 
L 256.321434 -426.933428 
L 260.638956 -442.547677 
L 264.956478 -457.499363 
L 269.273999 -471.54786 
L 273.591521 -484.456953 
L 277.909042 -496.00138 
L 282.226564 -505.973333 
L 286.544085 -514.188661 
L 290.861607 -520.492519 
L 295.179128 -524.764223 
L 299.49665 -526.921087 
L 303.814171 -526.921087 
L 308.131693 -524.764223 
L 312.449215 -520.492519 
L 316.766736 -514.188661 
L 321.084258 -505.973333 
L 325.401779 -496.00138 
L 329.719301 -484.456953 
L 334.036822 -471.54786 
L 338.354344 -457.499363 
L 342.671865 -442.547677 
L 346.989387 -426.933428 
L 351.306909 -410.895332 
L 355.62443 -394.664303 
L 359.941952 -378.458205 
L 364.259473 -362.477385 
L 368.576995 -346.901102 
L 372.894516 -331.884914 
L 377.212038 -317.559029 
L 381.529559 -304.027608 
L 385.847081 -291.368924 
L 390.164602 -279.636315 
L 394.482124 -268.859779 
L 398.799646 -259.048097 
L 403.117167 -250.191331 
L 407.434689 -242.263568 
L 411.75221 -235.225763 
L 416.069732 -229.028585 
L 420.387253 -223.615144 
L 424.704775 -218.92353 
L 429.022296 -214.889098 
L 433.339818 -211.446458 
L 437.657339 -208.531156 
L 441.974861 -206.081027 
L 446.292383 -204.03724 
L 450.609904 -202.34505 
L 454.927426 -200.954291 
L 459.244947 -199.81963 
L 463.562469 -198.90064 
L 467.87999 -198.16171 
L 472.197512 -197.571834 
L 476.515033 -197.104316 
L 480.832555 -196.736416 
L 485.150076 -196.448962 
L 489.467598 -196.225951 
L 493.78512 -196.054154 
L 498.102641 -195.922739 
L 502.420163 -195.822917 
L 506.737684 -195.747622 
L 511.055206 -195.691222 
L 515.372727 -195.649269 
L 515.372727 -195.538011 
L 515.372727 -195.538011 
L 511.055206 -195.538011 
L 506.737684 -195.538011 
L 502.420163 -195.538011 
L 498.102641 -195.538011 
L 493.78512 -195.538011 
L 489.467598 -195.538011 
L 485.150076 -195.538011 
L 480.832555 -195.538011 
L 476.515033 -195.538011 
L 472.197512 -195.538011 
L 467.87999 -195.538011 
L 463.562469 -195.538011 
L 459.244947 -195.538011 
L 454.927426 -195.538011 
L 450.609904 -195.538011 
L 446.292383 -195.538011 
L 441.974861 -195.538011 
L 437.657339 -195.538011 
L 433.339818 -195.538011 
L 429.022296 -195.538011 
L 424.704775 -195.538011 
L 420.387253 -195.538011 
L 416.069732 -195.538011 
L 411.75221 -195.538011 
L 407.434689 -195.538011 
L 403.117167 -195.538011 
L 398.799646 -195.538011 
L 394.482124 -195.538011 
L 390.164602 -195.538011 
L 385.847081 -195.538011 
L 381.529559 -195.538011 
L 377.212038 -195.538011 
L 372.894516 -195.538011 
L 368.576995 -195.538011 
L 364.259473 -195.538011 
L 359.941952 -195.538011 
L 355.62443 -195.538011 
L 351.306909 -195.538011 
L 346.989387 -195.538011 
L 342.671865 -195.538011 
L 338.354344 -195.538011 
L 334.036822 -195.538011 
L 329.719301 -195.538011 
L 325.401779 -195.538011 
L 321.084258 -195.538011 
L 316.766736 -195.538011 
L 312.449215 -195.538011 
L 308.131693 -195.538011 
L 303.814171 -195.538011 
L 299.49665 -195.538011 
L 295.179128 -195.538011 
L 290.861607 -195.538011 
L 286.544085 -195.538011 
L 282.226564 -195.538011 
L 277.909042 -195.538011 
L 273.591521 -195.538011 
L 269.273999 -195.538011 
L 264.956478 -195.538011 
L 260.638956 -195.538011 
L 256.321434 -195.538011 
L 252.003913 -195.538011 
L 247.686391 -195.538011 
L 243.36887 -195.538011 
L 239.051348 -195.538011 
L 234.733827 -195.538011 
L 230.416305 -195.538011 
L 226.098784 -195.538011 
L 221.781262 -195.538011 
L 217.463741 -195.538011 
L 213.146219 -195.538011 
L 208.828697 -195.538011 
L 204.511176 -195.538011 
L 200.193654 -195.538011 
L 195.876133 -195.538011 
L 191.558611 -195.538011 
L 187.24109 -195.538011 
L 182.923568 -195.538011 
L 178.606047 -195.538011 
L 174.288525 -195.538011 
L 169.971004 -195.538011 
L 165.653482 -195.538011 
L 161.33596 -195.538011 
L 157.018439 -195.538011 
L 152.700917 -195.538011 
L 148.383396 -195.538011 
L 144.065874 -195.538011 
L 139.748353 -195.538011 
L 135.430831 -195.538011 
L 131.11331 -195.538011 
L 126.795788 -195.538011 
L 122.478267 -195.538011 
L 118.160745 -195.538011 
L 113.843223 -195.538011 
L 109.525702 -195.538011 
L 105.20818 -195.538011 
L 100.890659 -195.538011 
L 96.573137 -195.538011 
L 92.255616 -195.538011 
L 87.938094 -195.538011 
z
" id="mc4b6fd69cc" style="stroke:#ff6384;stroke-opacity:0.5;"/>
    </defs>
    <g clip-path="url(#p190b4993e0)">
     <use style="fill:#ff6384;fill-opacity:0.5;stroke:#ff6384;stroke-opacity:0.5;" x="0" xlink:href="#mc4b6fd69cc" y="581.789375"/>
    </g>
   </g>
   <g id="PolyCollection_2">
    <defs>
     <path d="M 58.827273 -195.538011 
L 58.827273 -195.650004 
L 63.116453 -195.692234 
L 67.405633 -195.749007 
L 71.694814 -195.8248 
L 75.983994 -195.925281 
L 80.273174 -196.057565 
L 84.562355 -196.230497 
L 88.851535 -196.454982 
L 93.140715 -196.744335 
L 97.429895 -197.114666 
L 101.719076 -197.585273 
L 106.008256 -198.179047 
L 110.297436 -198.922859 
L 114.586617 -199.847921 
L 118.875797 -200.990079 
L 123.164977 -202.390029 
L 127.454158 -204.093399 
L 131.743338 -206.150691 
L 136.032518 -208.617009 
L 140.321698 -211.551575 
L 144.610879 -215.016962 
L 148.900059 -219.078053 
L 153.189239 -223.800667 
L 157.47842 -229.249878 
L 161.7676 -235.488004 
L 166.05678 -242.572312 
L 170.345961 -250.552459 
L 174.635141 -259.467747 
L 178.924321 -269.344261 
L 183.213501 -280.192004 
L 187.502682 -292.002137 
L 191.791862 -304.744465 
L 196.081042 -318.365297 
L 200.370223 -332.785841 
L 204.659403 -347.901251 
L 208.948583 -363.580456 
L 213.237764 -379.666871 
L 217.526944 -395.980052 
L 221.816124 -412.31833 
L 226.105304 -428.4624 
L 230.394485 -444.179822 
L 234.683665 -459.230303 
L 238.972845 -473.371627 
L 243.262026 -486.366018 
L 247.551206 -497.986726 
L 251.840386 -508.02457 
L 256.129567 -516.294181 
L 260.418747 -522.639693 
L 264.707927 -526.939623 
L 268.997107 -529.110739 
L 273.286288 -529.110739 
L 277.575468 -526.939623 
L 281.864648 -522.639693 
L 286.153829 -516.294181 
L 290.443009 -508.02457 
L 294.732189 -497.986726 
L 299.02137 -486.366018 
L 303.31055 -473.371627 
L 307.59973 -459.230303 
L 311.88891 -444.179822 
L 316.178091 -428.4624 
L 320.467271 -412.31833 
L 324.756451 -395.980052 
L 329.045632 -379.666871 
L 333.334812 -363.580456 
L 337.623992 -347.901251 
L 341.913172 -332.785841 
L 346.202353 -318.365297 
L 350.491533 -304.744465 
L 354.780713 -292.002137 
L 359.069894 -280.192004 
L 363.359074 -269.344261 
L 367.648254 -259.467747 
L 371.937435 -250.552459 
L 376.226615 -242.572312 
L 380.515795 -235.488004 
L 384.804975 -229.249878 
L 389.094156 -223.800667 
L 393.383336 -219.078053 
L 397.672516 -215.016962 
L 401.961697 -211.551575 
L 406.250877 -208.617009 
L 410.540057 -206.150691 
L 414.829238 -204.093399 
L 419.118418 -202.390029 
L 423.407598 -200.990079 
L 427.696778 -199.847921 
L 431.985959 -198.922859 
L 436.275139 -198.179047 
L 440.564319 -197.585273 
L 444.8535 -197.114666 
L 449.14268 -196.744335 
L 453.43186 -196.454982 
L 457.721041 -196.230497 
L 462.010221 -196.057565 
L 466.299401 -195.925281 
L 470.588581 -195.8248 
L 474.877762 -195.749007 
L 479.166942 -195.692234 
L 483.456122 -195.650004 
L 483.456122 -195.538011 
L 483.456122 -195.538011 
L 479.166942 -195.538011 
L 474.877762 -195.538011 
L 470.588581 -195.538011 
L 466.299401 -195.538011 
L 462.010221 -195.538011 
L 457.721041 -195.538011 
L 453.43186 -195.538011 
L 449.14268 -195.538011 
L 444.8535 -195.538011 
L 440.564319 -195.538011 
L 436.275139 -195.538011 
L 431.985959 -195.538011 
L 427.696778 -195.538011 
L 423.407598 -195.538011 
L 419.118418 -195.538011 
L 414.829238 -195.538011 
L 410.540057 -195.538011 
L 406.250877 -195.538011 
L 401.961697 -195.538011 
L 397.672516 -195.538011 
L 393.383336 -195.538011 
L 389.094156 -195.538011 
L 384.804975 -195.538011 
L 380.515795 -195.538011 
L 376.226615 -195.538011 
L 371.937435 -195.538011 
L 367.648254 -195.538011 
L 363.359074 -195.538011 
L 359.069894 -195.538011 
L 354.780713 -195.538011 
L 350.491533 -195.538011 
L 346.202353 -195.538011 
L 341.913172 -195.538011 
L 337.623992 -195.538011 
L 333.334812 -195.538011 
L 329.045632 -195.538011 
L 324.756451 -195.538011 
L 320.467271 -195.538011 
L 316.178091 -195.538011 
L 311.88891 -195.538011 
L 307.59973 -195.538011 
L 303.31055 -195.538011 
L 299.02137 -195.538011 
L 294.732189 -195.538011 
L 290.443009 -195.538011 
L 286.153829 -195.538011 
L 281.864648 -195.538011 
L 277.575468 -195.538011 
L 273.286288 -195.538011 
L 268.997107 -195.538011 
L 264.707927 -195.538011 
L 260.418747 -195.538011 
L 256.129567 -195.538011 
L 251.840386 -195.538011 
L 247.551206 -195.538011 
L 243.262026 -195.538011 
L 238.972845 -195.538011 
L 234.683665 -195.538011 
L 230.394485 -195.538011 
L 226.105304 -195.538011 
L 221.816124 -195.538011 
L 217.526944 -195.538011 
L 213.237764 -195.538011 
L 208.948583 -195.538011 
L 204.659403 -195.538011 
L 200.370223 -195.538011 
L 196.081042 -195.538011 
L 191.791862 -195.538011 
L 187.502682 -195.538011 
L 183.213501 -195.538011 
L 178.924321 -195.538011 
L 174.635141 -195.538011 
L 170.345961 -195.538011 
L 166.05678 -195.538011 
L 161.7676 -195.538011 
L 157.47842 -195.538011 
L 153.189239 -195.538011 
L 148.900059 -195.538011 
L 144.610879 -195.538011 
L 140.321698 -195.538011 
L 136.032518 -195.538011 
L 131.743338 -195.538011 
L 127.454158 -195.538011 
L 123.164977 -195.538011 
L 118.875797 -195.538011 
L 114.586617 -195.538011 
L 110.297436 -195.538011 
L 106.008256 -195.538011 
L 101.719076 -195.538011 
L 97.429895 -195.538011 
L 93.140715 -195.538011 
L 88.851535 -195.538011 
L 84.562355 -195.538011 
L 80.273174 -195.538011 
L 75.983994 -195.538011 
L 71.694814 -195.538011 
L 67.405633 -195.538011 
L 63.116453 -195.538011 
L 58.827273 -195.538011 
z
" id="mab815f18a7" style="stroke:#36a2eb;stroke-opacity:0.5;"/>
    </defs>
    <g clip-path="url(#p190b4993e0)">
     <use style="fill:#36a2eb;fill-opacity:0.5;stroke:#36a2eb;stroke-opacity:0.5;" x="0" xlink:href="#mab815f18a7" y="581.789375"/>
    </g>
   </g>
   <g id="line2d_1">
    <path clip-path="url(#p190b4993e0)" d="M 87.938094 386.140106 
L 92.255616 386.098153 
L 96.573137 386.041753 
L 100.890659 385.966458 
L 105.20818 385.866636 
L 109.525702 385.735221 
L 113.843223 385.563424 
L 118.160745 385.340413 
L 122.478267 385.052959 
L 126.795788 384.685059 
L 131.11331 384.217541 
L 135.430831 383.627665 
L 139.748353 382.888735 
L 144.065874 381.969745 
L 148.383396 380.835084 
L 152.700917 379.444325 
L 157.018439 377.752135 
L 161.33596 375.708348 
L 165.653482 373.258219 
L 169.971004 370.342917 
L 174.288525 366.900277 
L 178.606047 362.865845 
L 182.923568 358.174231 
L 187.24109 352.76079 
L 191.558611 346.563612 
L 195.876133 339.525807 
L 200.193654 331.598044 
L 204.511176 322.741278 
L 208.828697 312.929596 
L 213.146219 302.15306 
L 217.463741 290.420451 
L 221.781262 277.761767 
L 226.098784 264.230346 
L 230.416305 249.904461 
L 234.733827 234.888273 
L 239.051348 219.31199 
L 243.36887 203.33117 
L 247.686391 187.125072 
L 252.003913 170.894043 
L 256.321434 154.855947 
L 260.638956 139.241698 
L 264.956478 124.290012 
L 269.273999 110.241515 
L 273.591521 97.332422 
L 277.909042 85.787995 
L 282.226564 75.816042 
L 286.544085 67.600714 
L 290.861607 61.296856 
L 295.179128 57.025152 
L 299.49665 54.868288 
L 303.814171 54.868288 
L 308.131693 57.025152 
L 312.449215 61.296856 
L 316.766736 67.600714 
L 321.084258 75.816042 
L 325.401779 85.787995 
L 329.719301 97.332422 
L 334.036822 110.241515 
L 338.354344 124.290012 
L 342.671865 139.241698 
L 346.989387 154.855947 
L 351.306909 170.894043 
L 355.62443 187.125072 
L 359.941952 203.33117 
L 364.259473 219.31199 
L 368.576995 234.888273 
L 372.894516 249.904461 
L 377.212038 264.230346 
L 381.529559 277.761767 
L 385.847081 290.420451 
L 390.164602 302.15306 
L 394.482124 312.929596 
L 398.799646 322.741278 
L 403.117167 331.598044 
L 407.434689 339.525807 
L 411.75221 346.563612 
L 416.069732 352.76079 
L 420.387253 358.174231 
L 424.704775 362.865845 
L 429.022296 366.900277 
L 433.339818 370.342917 
L 437.657339 373.258219 
L 441.974861 375.708348 
L 446.292383 377.752135 
L 450.609904 379.444325 
L 454.927426 380.835084 
L 459.244947 381.969745 
L 463.562469 382.888735 
L 467.87999 383.627665 
L 472.197512 384.217541 
L 476.515033 384.685059 
L 480.832555 385.052959 
L 485.150076 385.340413 
L 489.467598 385.563424 
L 493.78512 385.735221 
L 498.102641 385.866636 
L 502.420163 385.966458 
L 506.737684 386.041753 
L 511.055206 386.098153 
L 515.372727 386.140106 
" style="fill:none;stroke:#ff6384;stroke-linecap:square;"/>
   </g>
   <g id="line2d_2">
    <path clip-path="url(#p190b4993e0)" d="M 58.827273 386.139371 
L 63.116453 386.097141 
L 67.405633 386.040368 
L 71.694814 385.964575 
L 75.983994 385.864094 
L 80.273174 385.73181 
L 84.562355 385.558878 
L 88.851535 385.334393 
L 93.140715 385.04504 
L 97.429895 384.674709 
L 101.719076 384.204102 
L 106.008256 383.610328 
L 110.297436 382.866516 
L 114.586617 381.941454 
L 118.875797 380.799296 
L 123.164977 379.399346 
L 127.454158 377.695976 
L 131.743338 375.638684 
L 136.032518 373.172366 
L 140.321698 370.2378 
L 144.610879 366.772413 
L 148.900059 362.711322 
L 153.189239 357.988708 
L 157.47842 352.539497 
L 161.7676 346.301371 
L 166.05678 339.217063 
L 170.345961 331.236916 
L 174.635141 322.321628 
L 178.924321 312.445114 
L 183.213501 301.597371 
L 187.502682 289.787238 
L 191.791862 277.04491 
L 196.081042 263.424078 
L 200.370223 249.003534 
L 204.659403 233.888124 
L 208.948583 218.208919 
L 213.237764 202.122504 
L 217.526944 185.809323 
L 221.816124 169.471045 
L 226.105304 153.326975 
L 230.394485 137.609553 
L 234.683665 122.559072 
L 238.972845 108.417748 
L 243.262026 95.423357 
L 247.551206 83.802649 
L 251.840386 73.764805 
L 256.129567 65.495194 
L 260.418747 59.149682 
L 264.707927 54.849752 
L 268.997107 52.678636 
L 273.286288 52.678636 
L 277.575468 54.849752 
L 281.864648 59.149682 
L 286.153829 65.495194 
L 290.443009 73.764805 
L 294.732189 83.802649 
L 299.02137 95.423357 
L 303.31055 108.417748 
L 307.59973 122.559072 
L 311.88891 137.609553 
L 316.178091 153.326975 
L 320.467271 169.471045 
L 324.756451 185.809323 
L 329.045632 202.122504 
L 333.334812 218.208919 
L 337.623992 233.888124 
L 341.913172 249.003534 
L 346.202353 263.424078 
L 350.491533 277.04491 
L 354.780713 289.787238 
L 359.069894 301.597371 
L 363.359074 312.445114 
L 367.648254 322.321628 
L 371.937435 331.236916 
L 376.226615 339.217063 
L 380.515795 346.301371 
L 384.804975 352.539497 
L 389.094156 357.988708 
L 393.383336 362.711322 
L 397.672516 366.772413 
L 401.961697 370.2378 
L 406.250877 373.172366 
L 410.540057 375.638684 
L 414.829238 377.695976 
L 419.118418 379.399346 
L 423.407598 380.799296 
L 427.696778 381.941454 
L 431.985959 382.866516 
L 436.275139 383.610328 
L 440.564319 384.204102 
L 444.8535 384.674709 
L 449.14268 385.04504 
L 453.43186 385.334393 
L 457.721041 385.558878 
L 462.010221 385.73181 
L 466.299401 385.864094 
L 470.588581 385.964575 
L 474.877762 386.040368 
L 479.166942 386.097141 
L 483.456122 386.139371 
" style="fill:none;stroke:#36a2eb;stroke-linecap:square;"/>
   </g>
   <g id="patch_3">
    <path d="M 36 402.93 
L 538.2 402.93 
" style="fill:none;stroke:#000000;stroke-linecap:square;stroke-linejoin:miter;stroke-width:0.8;"/>
   </g>
   <g id="legend_1">
    <g id="patch_4">
     <path d="M 410.290313 88.688125 
L 528.4 88.688125 
Q 531.2 88.688125 531.2 85.888125 
L 531.2 45.8 
Q 531.2 43 528.4 43 
L 410.290313 43 
Q 407.490313 43 407.490313 45.8 
L 407.490313 85.888125 
Q 407.490313 88.688125 410.290313 88.688125 
z
" style="fill:#ffffff;opacity:0.8;stroke:#cccccc;stroke-linejoin:miter;"/>
    </g>
    <g id="patch_5">
     <path d="M 413.090313 59.237813 
L 441.090313 59.237813 
L 441.090313 49.437813 
L 413.090313 49.437813 
z
" style="fill:#ff6384;opacity:0.5;stroke:#ff6384;stroke-linejoin:miter;"/>
    </g>
    <g id="text_1">
     <!-- base -->
     <defs>
      <path d="M 48.6875 27.296875 
Q 48.6875 37.203125 44.609375 42.84375 
Q 40.53125 48.484375 33.40625 48.484375 
Q 26.265625 48.484375 22.1875 42.84375 
Q 18.109375 37.203125 18.109375 27.296875 
Q 18.109375 17.390625 22.1875 11.75 
Q 26.265625 6.109375 33.40625 6.109375 
Q 40.53125 6.109375 44.609375 11.75 
Q 48.6875 17.390625 48.6875 27.296875 
z
M 18.109375 46.390625 
Q 20.953125 51.265625 25.265625 53.625 
Q 29.59375 56 35.59375 56 
Q 45.5625 56 51.78125 48.09375 
Q 58.015625 40.1875 58.015625 27.296875 
Q 58.015625 14.40625 51.78125 6.484375 
Q 45.5625 -1.421875 35.59375 -1.421875 
Q 29.59375 -1.421875 25.265625 0.953125 
Q 20.953125 3.328125 18.109375 8.203125 
L 18.109375 0 
L 9.078125 0 
L 9.078125 75.984375 
L 18.109375 75.984375 
z
" id="DejaVuSans-98"/>
      <path d="M 34.28125 27.484375 
Q 23.390625 27.484375 19.1875 25 
Q 14.984375 22.515625 14.984375 16.5 
Q 14.984375 11.71875 18.140625 8.90625 
Q 21.296875 6.109375 26.703125 6.109375 
Q 34.1875 6.109375 38.703125 11.40625 
Q 43.21875 16.703125 43.21875 25.484375 
L 43.21875 27.484375 
z
M 52.203125 31.203125 
L 52.203125 0 
L 43.21875 0 
L 43.21875 8.296875 
Q 40.140625 3.328125 35.546875 0.953125 
Q 30.953125 -1.421875 24.3125 -1.421875 
Q 15.921875 -1.421875 10.953125 3.296875 
Q 6 8.015625 6 15.921875 
Q 6 25.140625 12.171875 29.828125 
Q 18.359375 34.515625 30.609375 34.515625 
L 43.21875 34.515625 
L 43.21875 35.40625 
Q 43.21875 41.609375 39.140625 45 
Q 35.0625 48.390625 27.6875 48.390625 
Q 23 48.390625 18.546875 47.265625 
Q 14.109375 46.140625 10.015625 43.890625 
L 10.015625 52.203125 
Q 14.9375 54.109375 19.578125 55.046875 
Q 24.21875 56 28.609375 56 
Q 40.484375 56 46.34375 49.84375 
Q 52.203125 43.703125 52.203125 31.203125 
z
" id="DejaVuSans-97"/>
      <path d="M 44.28125 53.078125 
L 44.28125 44.578125 
Q 40.484375 46.53125 36.375 47.5 
Q 32.28125 48.484375 27.875 48.484375 
Q 21.1875 48.484375 17.84375 46.4375 
Q 14.5 44.390625 14.5 40.28125 
Q 14.5 37.15625 16.890625 35.375 
Q 19.28125 33.59375 26.515625 31.984375 
L 29.59375 31.296875 
Q 39.15625 29.25 43.1875 25.515625 
Q 47.21875 21.78125 47.21875 15.09375 
Q 47.21875 7.46875 41.1875 3.015625 
Q 35.15625 -1.421875 24.609375 -1.421875 
Q 20.21875 -1.421875 15.453125 -0.5625 
Q 10.6875 0.296875 5.421875 2 
L 5.421875 11.28125 
Q 10.40625 8.6875 15.234375 7.390625 
Q 20.0625 6.109375 24.8125 6.109375 
Q 31.15625 6.109375 34.5625 8.28125 
Q 37.984375 10.453125 37.984375 14.40625 
Q 37.984375 18.0625 35.515625 20.015625 
Q 33.0625 21.96875 24.703125 23.78125 
L 21.578125 24.515625 
Q 13.234375 26.265625 9.515625 29.90625 
Q 5.8125 33.546875 5.8125 39.890625 
Q 5.8125 47.609375 11.28125 51.796875 
Q 16.75 56 26.8125 56 
Q 31.78125 56 36.171875 55.265625 
Q 40.578125 54.546875 44.28125 53.078125 
z
" id="DejaVuSans-115"/>
      <path d="M 56.203125 29.59375 
L 56.203125 25.203125 
L 14.890625 25.203125 
Q 15.484375 15.921875 20.484375 11.0625 
Q 25.484375 6.203125 34.421875 6.203125 
Q 39.59375 6.203125 44.453125 7.46875 
Q 49.3125 8.734375 54.109375 11.28125 
L 54.109375 2.78125 
Q 49.265625 0.734375 44.1875 -0.34375 
Q 39.109375 -1.421875 33.890625 -1.421875 
Q 20.796875 -1.421875 13.15625 6.1875 
Q 5.515625 13.8125 5.515625 26.8125 
Q 5.515625 40.234375 12.765625 48.109375 
Q 20.015625 56 32.328125 56 
Q 43.359375 56 49.78125 48.890625 
Q 56.203125 41.796875 56.203125 29.59375 
z
M 47.21875 32.234375 
Q 47.125 39.59375 43.09375 43.984375 
Q 39.0625 48.390625 32.421875 48.390625 
Q 24.90625 48.390625 20.390625 44.140625 
Q 15.875 39.890625 15.1875 32.171875 
z
" id="DejaVuSans-101"/>
     </defs>
     <g transform="translate(452.290313 59.237813)scale(0.14 -0.14)">
      <use xlink:href="#DejaVuSans-98"/>
      <use x="63.476562" xlink:href="#DejaVuSans-97"/>
      <use x="124.755859" xlink:href="#DejaVuSans-115"/>
      <use x="176.855469" xlink:href="#DejaVuSans-101"/>
     </g>
    </g>
    <g id="patch_6">
     <path d="M 413.090313 79.787188 
L 441.090313 79.787188 
L 441.090313 69.987188 
L 413.090313 69.987188 
z
" style="fill:#36a2eb;opacity:0.5;stroke:#36a2eb;stroke-linejoin:miter;"/>
    </g>
    <g id="text_2">
     <!-- no_license -->
     <defs>
      <path d="M 54.890625 33.015625 
L 54.890625 0 
L 45.90625 0 
L 45.90625 32.71875 
Q 45.90625 40.484375 42.875 44.328125 
Q 39.84375 48.1875 33.796875 48.1875 
Q 26.515625 48.1875 22.3125 43.546875 
Q 18.109375 38.921875 18.109375 30.90625 
L 18.109375 0 
L 9.078125 0 
L 9.078125 54.6875 
L 18.109375 54.6875 
L 18.109375 46.1875 
Q 21.34375 51.125 25.703125 53.5625 
Q 30.078125 56 35.796875 56 
Q 45.21875 56 50.046875 50.171875 
Q 54.890625 44.34375 54.890625 33.015625 
z
" id="DejaVuSans-110"/>
      <path d="M 30.609375 48.390625 
Q 23.390625 48.390625 19.1875 42.75 
Q 14.984375 37.109375 14.984375 27.296875 
Q 14.984375 17.484375 19.15625 11.84375 
Q 23.34375 6.203125 30.609375 6.203125 
Q 37.796875 6.203125 41.984375 11.859375 
Q 46.1875 17.53125 46.1875 27.296875 
Q 46.1875 37.015625 41.984375 42.703125 
Q 37.796875 48.390625 30.609375 48.390625 
z
M 30.609375 56 
Q 42.328125 56 49.015625 48.375 
Q 55.71875 40.765625 55.71875 27.296875 
Q 55.71875 13.875 49.015625 6.21875 
Q 42.328125 -1.421875 30.609375 -1.421875 
Q 18.84375 -1.421875 12.171875 6.21875 
Q 5.515625 13.875 5.515625 27.296875 
Q 5.515625 40.765625 12.171875 48.375 
Q 18.84375 56 30.609375 56 
z
" id="DejaVuSans-111"/>
      <path d="M 50.984375 -16.609375 
L 50.984375 -23.578125 
L -0.984375 -23.578125 
L -0.984375 -16.609375 
z
" id="DejaVuSans-95"/>
      <path d="M 9.421875 75.984375 
L 18.40625 75.984375 
L 18.40625 0 
L 9.421875 0 
z
" id="DejaVuSans-108"/>
      <path d="M 9.421875 54.6875 
L 18.40625 54.6875 
L 18.40625 0 
L 9.421875 0 
z
M 9.421875 75.984375 
L 18.40625 75.984375 
L 18.40625 64.59375 
L 9.421875 64.59375 
z
" id="DejaVuSans-105"/>
      <path d="M 48.78125 52.59375 
L 48.78125 44.1875 
Q 44.96875 46.296875 41.140625 47.34375 
Q 37.3125 48.390625 33.40625 48.390625 
Q 24.65625 48.390625 19.8125 42.84375 
Q 14.984375 37.3125 14.984375 27.296875 
Q 14.984375 17.28125 19.8125 11.734375 
Q 24.65625 6.203125 33.40625 6.203125 
Q 37.3125 6.203125 41.140625 7.25 
Q 44.96875 8.296875 48.78125 10.40625 
L 48.78125 2.09375 
Q 45.015625 0.34375 40.984375 -0.53125 
Q 36.96875 -1.421875 32.421875 -1.421875 
Q 20.0625 -1.421875 12.78125 6.34375 
Q 5.515625 14.109375 5.515625 27.296875 
Q 5.515625 40.671875 12.859375 48.328125 
Q 20.21875 56 33.015625 56 
Q 37.15625 56 41.109375 55.140625 
Q 45.0625 54.296875 48.78125 52.59375 
z
" id="DejaVuSans-99"/>
     </defs>
     <g transform="translate(452.290313 79.787188)scale(0.14 -0.14)">
      <use xlink:href="#DejaVuSans-110"/>
      <use x="63.378906" xlink:href="#DejaVuSans-111"/>
      <use x="124.560547" xlink:href="#DejaVuSans-95"/>
      <use x="174.560547" xlink:href="#DejaVuSans-108"/>
      <use x="202.34375" xlink:href="#DejaVuSans-105"/>
      <use x="230.126953" xlink:href="#DejaVuSans-99"/>
      <use x="285.107422" xlink:href="#DejaVuSans-101"/>
      <use x="346.630859" xlink:href="#DejaVuSans-110"/>
      <use x="410.009766" xlink:href="#DejaVuSans-115"/>
      <use x="462.109375" xlink:href="#DejaVuSans-101"/>
     </g>
    </g>
   </g>
  </g>
  <g id="axes_2">
   <g id="patch_7">
    <path d="M 36 525.24 
L 538.2 525.24 
L 538.2 402.93 
L 36 402.93 
z
" style="fill:none;"/>
   </g>
   <g id="patch_8">
    <path clip-path="url(#p8bb4c6fabc)" d="M 196.933926 519.680455 
L 406.376896 519.680455 
L 406.376896 482.616818 
L 196.933926 482.616818 
z
" style="fill:#ff6384;opacity:0.5;"/>
   </g>
   <g id="patch_9">
    <path clip-path="url(#p8bb4c6fabc)" d="M 167.107629 445.553182 
L 375.175766 445.553182 
L 375.175766 408.489545 
L 167.107629 408.489545 
z
" style="fill:#36a2eb;opacity:0.5;"/>
   </g>
   <g id="matplotlib.axis_1">
    <g id="xtick_1">
     <g id="line2d_3">
      <defs>
       <path d="M 0 0 
L 0 3.5 
" id="m50d6e63418" style="stroke:#000000;stroke-width:0.8;"/>
      </defs>
      <g>
       <use style="stroke:#000000;stroke-width:0.8;" x="68.44346" xlink:href="#m50d6e63418" y="525.24"/>
      </g>
     </g>
     <g id="text_3">
      <!-- 2.5 -->
      <defs>
       <path d="M 19.1875 8.296875 
L 53.609375 8.296875 
L 53.609375 0 
L 7.328125 0 
L 7.328125 8.296875 
Q 12.9375 14.109375 22.625 23.890625 
Q 32.328125 33.6875 34.8125 36.53125 
Q 39.546875 41.84375 41.421875 45.53125 
Q 43.3125 49.21875 43.3125 52.78125 
Q 43.3125 58.59375 39.234375 62.25 
Q 35.15625 65.921875 28.609375 65.921875 
Q 23.96875 65.921875 18.8125 64.3125 
Q 13.671875 62.703125 7.8125 59.421875 
L 7.8125 69.390625 
Q 13.765625 71.78125 18.9375 73 
Q 24.125 74.21875 28.421875 74.21875 
Q 39.75 74.21875 46.484375 68.546875 
Q 53.21875 62.890625 53.21875 53.421875 
Q 53.21875 48.921875 51.53125 44.890625 
Q 49.859375 40.875 45.40625 35.40625 
Q 44.1875 33.984375 37.640625 27.21875 
Q 31.109375 20.453125 19.1875 8.296875 
z
" id="DejaVuSans-50"/>
       <path d="M 10.6875 12.40625 
L 21 12.40625 
L 21 0 
L 10.6875 0 
z
" id="DejaVuSans-46"/>
       <path d="M 10.796875 72.90625 
L 49.515625 72.90625 
L 49.515625 64.59375 
L 19.828125 64.59375 
L 19.828125 46.734375 
Q 21.96875 47.46875 24.109375 47.828125 
Q 26.265625 48.1875 28.421875 48.1875 
Q 40.625 48.1875 47.75 41.5 
Q 54.890625 34.8125 54.890625 23.390625 
Q 54.890625 11.625 47.5625 5.09375 
Q 40.234375 -1.421875 26.90625 -1.421875 
Q 22.3125 -1.421875 17.546875 -0.640625 
Q 12.796875 0.140625 7.71875 1.703125 
L 7.71875 11.625 
Q 12.109375 9.234375 16.796875 8.0625 
Q 21.484375 6.890625 26.703125 6.890625 
Q 35.15625 6.890625 40.078125 11.328125 
Q 45.015625 15.765625 45.015625 23.390625 
Q 45.015625 31 40.078125 35.4375 
Q 35.15625 39.890625 26.703125 39.890625 
Q 22.75 39.890625 18.8125 39.015625 
Q 14.890625 38.140625 10.796875 36.28125 
z
" id="DejaVuSans-53"/>
      </defs>
      <g transform="translate(57.311273 542.877813)scale(0.14 -0.14)">
       <use xlink:href="#DejaVuSans-50"/>
       <use x="63.623047" xlink:href="#DejaVuSans-46"/>
       <use x="95.410156" xlink:href="#DejaVuSans-53"/>
      </g>
     </g>
    </g>
    <g id="xtick_2">
     <g id="line2d_4">
      <g>
       <use style="stroke:#000000;stroke-width:0.8;" x="177.421007" xlink:href="#m50d6e63418" y="525.24"/>
      </g>
     </g>
     <g id="text_4">
      <!-- 3.0 -->
      <defs>
       <path d="M 40.578125 39.3125 
Q 47.65625 37.796875 51.625 33 
Q 55.609375 28.21875 55.609375 21.1875 
Q 55.609375 10.40625 48.1875 4.484375 
Q 40.765625 -1.421875 27.09375 -1.421875 
Q 22.515625 -1.421875 17.65625 -0.515625 
Q 12.796875 0.390625 7.625 2.203125 
L 7.625 11.71875 
Q 11.71875 9.328125 16.59375 8.109375 
Q 21.484375 6.890625 26.8125 6.890625 
Q 36.078125 6.890625 40.9375 10.546875 
Q 45.796875 14.203125 45.796875 21.1875 
Q 45.796875 27.640625 41.28125 31.265625 
Q 36.765625 34.90625 28.71875 34.90625 
L 20.21875 34.90625 
L 20.21875 43.015625 
L 29.109375 43.015625 
Q 36.375 43.015625 40.234375 45.921875 
Q 44.09375 48.828125 44.09375 54.296875 
Q 44.09375 59.90625 40.109375 62.90625 
Q 36.140625 65.921875 28.71875 65.921875 
Q 24.65625 65.921875 20.015625 65.03125 
Q 15.375 64.15625 9.8125 62.3125 
L 9.8125 71.09375 
Q 15.4375 72.65625 20.34375 73.4375 
Q 25.25 74.21875 29.59375 74.21875 
Q 40.828125 74.21875 47.359375 69.109375 
Q 53.90625 64.015625 53.90625 55.328125 
Q 53.90625 49.265625 50.4375 45.09375 
Q 46.96875 40.921875 40.578125 39.3125 
z
" id="DejaVuSans-51"/>
       <path d="M 31.78125 66.40625 
Q 24.171875 66.40625 20.328125 58.90625 
Q 16.5 51.421875 16.5 36.375 
Q 16.5 21.390625 20.328125 13.890625 
Q 24.171875 6.390625 31.78125 6.390625 
Q 39.453125 6.390625 43.28125 13.890625 
Q 47.125 21.390625 47.125 36.375 
Q 47.125 51.421875 43.28125 58.90625 
Q 39.453125 66.40625 31.78125 66.40625 
z
M 31.78125 74.21875 
Q 44.046875 74.21875 50.515625 64.515625 
Q 56.984375 54.828125 56.984375 36.375 
Q 56.984375 17.96875 50.515625 8.265625 
Q 44.046875 -1.421875 31.78125 -1.421875 
Q 19.53125 -1.421875 13.0625 8.265625 
Q 6.59375 17.96875 6.59375 36.375 
Q 6.59375 54.828125 13.0625 64.515625 
Q 19.53125 74.21875 31.78125 74.21875 
z
" id="DejaVuSans-48"/>
      </defs>
      <g transform="translate(166.28882 542.877813)scale(0.14 -0.14)">
       <use xlink:href="#DejaVuSans-51"/>
       <use x="63.623047" xlink:href="#DejaVuSans-46"/>
       <use x="95.410156" xlink:href="#DejaVuSans-48"/>
      </g>
     </g>
    </g>
    <g id="xtick_3">
     <g id="line2d_5">
      <g>
       <use style="stroke:#000000;stroke-width:0.8;" x="286.398554" xlink:href="#m50d6e63418" y="525.24"/>
      </g>
     </g>
     <g id="text_5">
      <!-- 3.5 -->
      <g transform="translate(275.266367 542.877813)scale(0.14 -0.14)">
       <use xlink:href="#DejaVuSans-51"/>
       <use x="63.623047" xlink:href="#DejaVuSans-46"/>
       <use x="95.410156" xlink:href="#DejaVuSans-53"/>
      </g>
     </g>
    </g>
    <g id="xtick_4">
     <g id="line2d_6">
      <g>
       <use style="stroke:#000000;stroke-width:0.8;" x="395.376101" xlink:href="#m50d6e63418" y="525.24"/>
      </g>
     </g>
     <g id="text_6">
      <!-- 4.0 -->
      <defs>
       <path d="M 37.796875 64.3125 
L 12.890625 25.390625 
L 37.796875 25.390625 
z
M 35.203125 72.90625 
L 47.609375 72.90625 
L 47.609375 25.390625 
L 58.015625 25.390625 
L 58.015625 17.1875 
L 47.609375 17.1875 
L 47.609375 0 
L 37.796875 0 
L 37.796875 17.1875 
L 4.890625 17.1875 
L 4.890625 26.703125 
z
" id="DejaVuSans-52"/>
      </defs>
      <g transform="translate(384.243914 542.877813)scale(0.14 -0.14)">
       <use xlink:href="#DejaVuSans-52"/>
       <use x="63.623047" xlink:href="#DejaVuSans-46"/>
       <use x="95.410156" xlink:href="#DejaVuSans-48"/>
      </g>
     </g>
    </g>
    <g id="xtick_5">
     <g id="line2d_7">
      <g>
       <use style="stroke:#000000;stroke-width:0.8;" x="504.353648" xlink:href="#m50d6e63418" y="525.24"/>
      </g>
     </g>
     <g id="text_7">
      <!-- 4.5 -->
      <g transform="translate(493.221461 542.877813)scale(0.14 -0.14)">
       <use xlink:href="#DejaVuSans-52"/>
       <use x="63.623047" xlink:href="#DejaVuSans-46"/>
       <use x="95.410156" xlink:href="#DejaVuSans-53"/>
      </g>
     </g>
    </g>
   </g>
   <g id="line2d_8">
    <path clip-path="url(#p8bb4c6fabc)" d="M 301.655411 525.24 
L 301.655411 402.93 
" style="fill:none;stroke:#ff6384;stroke-dasharray:5.55,2.4;stroke-dashoffset:0;stroke-opacity:0.8;stroke-width:1.5;"/>
   </g>
   <g id="line2d_9">
    <path clip-path="url(#p8bb4c6fabc)" d="M 271.141698 525.24 
L 271.141698 402.93 
" style="fill:none;stroke:#36a2eb;stroke-dasharray:5.55,2.4;stroke-dashoffset:0;stroke-opacity:0.8;stroke-width:1.5;"/>
   </g>
   <g id="patch_10">
    <path d="M 36 525.24 
L 538.2 525.24 
" style="fill:none;stroke:#000000;stroke-linecap:square;stroke-linejoin:miter;stroke-width:0.8;"/>
   </g>
  </g>
 </g>
 <defs>
  <clipPath id="p190b4993e0">
   <rect height="366.93" width="502.2" x="36" y="36"/>
  </clipPath>
  <clipPath id="p8bb4c6fabc">
   <rect height="122.31" width="502.2" x="36" y="402.93"/>
  </clipPath>
 </defs>
</svg>
