<?xml version="1.0" encoding="utf-8" standalone="no"?>
<!DOCTYPE svg PUBLIC "-//W3C//DTD SVG 1.1//EN"
  "http://www.w3.org/Graphics/SVG/1.1/DTD/svg11.dtd">
<!-- Created with matplotlib (https://matplotlib.org/) -->
<svg height="581.789375pt" version="1.1" viewBox="0 0 574.2 581.789375" width="574.2pt" xmlns="http://www.w3.org/2000/svg" xmlns:xlink="http://www.w3.org/1999/xlink">
 <defs>
  <style type="text/css">
*{stroke-linecap:butt;stroke-linejoin:round;}
  </style>
 </defs>
 <g id="figure_1">
  <g id="patch_1">
   <path d="M 0 581.789375 
L 574.2 581.789375 
L 574.2 0 
L 0 0 
z
" style="fill:none;"/>
  </g>
  <g id="axes_1">
   <g id="patch_2">
    <path d="M 36 402.93 
L 538.2 402.93 
L 538.2 36 
L 36 36 
z
" style="fill:none;"/>
   </g>
   <g id="PolyCollection_1">
    <defs>
     <path d="M 139.10434 -195.538011 
L 139.10434 -195.637201 
L 142.905031 -195.674604 
L 146.705722 -195.724886 
L 150.506413 -195.792014 
L 154.307103 -195.881009 
L 158.107794 -195.99817 
L 161.908485 -196.151333 
L 165.709176 -196.350155 
L 169.509866 -196.60643 
L 173.310557 -196.934425 
L 177.111248 -197.351232 
L 180.911939 -197.877127 
L 184.71263 -198.535907 
L 188.51332 -199.355217 
L 192.314011 -200.366805 
L 196.114702 -201.606714 
L 199.915393 -203.115357 
L 203.716083 -204.937462 
L 207.516774 -207.121834 
L 211.317465 -209.720923 
L 215.118156 -212.790151 
L 218.918847 -216.386983 
L 222.719537 -220.569714 
L 226.520228 -225.395977 
L 230.320919 -230.920968 
L 234.12161 -237.195406 
L 237.9223 -244.263272 
L 241.722991 -252.159374 
L 245.523682 -260.906817 
L 249.324373 -270.514458 
L 253.125064 -280.974472 
L 256.925754 -292.260111 
L 260.726445 -304.323826 
L 264.527136 -317.09583 
L 268.327827 -330.483264 
L 272.128517 -344.37004 
L 275.929208 -358.617475 
L 279.729899 -373.065753 
L 283.53059 -387.536258 
L 287.331281 -401.834757 
L 291.131971 -415.755381 
L 294.932662 -429.085309 
L 298.733353 -441.610013 
L 302.534044 -453.118901 
L 306.334734 -463.411144 
L 310.135425 -472.301473 
L 313.936116 -479.625712 
L 317.736807 -485.245812 
L 321.537498 -489.054179 
L 325.338188 -490.977095 
L 329.138879 -490.977095 
L 332.93957 -489.054179 
L 336.740261 -485.245812 
L 340.540951 -479.625712 
L 344.341642 -472.301473 
L 348.142333 -463.411144 
L 351.943024 -453.118901 
L 355.743715 -441.610013 
L 359.544405 -429.085309 
L 363.345096 -415.755381 
L 367.145787 -401.834757 
L 370.946478 -387.536258 
L 374.747168 -373.065753 
L 378.547859 -358.617475 
L 382.34855 -344.37004 
L 386.149241 -330.483264 
L 389.949932 -317.09583 
L 393.750622 -304.323826 
L 397.551313 -292.260111 
L 401.352004 -280.974472 
L 405.152695 -270.514458 
L 408.953385 -260.906817 
L 412.754076 -252.159374 
L 416.554767 -244.263272 
L 420.355458 -237.195406 
L 424.156149 -230.920968 
L 427.956839 -225.395977 
L 431.75753 -220.569714 
L 435.558221 -216.386983 
L 439.358912 -212.790151 
L 443.159602 -209.720923 
L 446.960293 -207.121834 
L 450.760984 -204.937462 
L 454.561675 -203.115357 
L 458.362366 -201.606714 
L 462.163056 -200.366805 
L 465.963747 -199.355217 
L 469.764438 -198.535907 
L 473.565129 -197.877127 
L 477.365819 -197.351232 
L 481.16651 -196.934425 
L 484.967201 -196.60643 
L 488.767892 -196.350155 
L 492.568583 -196.151333 
L 496.369273 -195.99817 
L 500.169964 -195.881009 
L 503.970655 -195.792014 
L 507.771346 -195.724886 
L 511.572036 -195.674604 
L 515.372727 -195.637201 
L 515.372727 -195.538011 
L 515.372727 -195.538011 
L 511.572036 -195.538011 
L 507.771346 -195.538011 
L 503.970655 -195.538011 
L 500.169964 -195.538011 
L 496.369273 -195.538011 
L 492.568583 -195.538011 
L 488.767892 -195.538011 
L 484.967201 -195.538011 
L 481.16651 -195.538011 
L 477.365819 -195.538011 
L 473.565129 -195.538011 
L 469.764438 -195.538011 
L 465.963747 -195.538011 
L 462.163056 -195.538011 
L 458.362366 -195.538011 
L 454.561675 -195.538011 
L 450.760984 -195.538011 
L 446.960293 -195.538011 
L 443.159602 -195.538011 
L 439.358912 -195.538011 
L 435.558221 -195.538011 
L 431.75753 -195.538011 
L 427.956839 -195.538011 
L 424.156149 -195.538011 
L 420.355458 -195.538011 
L 416.554767 -195.538011 
L 412.754076 -195.538011 
L 408.953385 -195.538011 
L 405.152695 -195.538011 
L 401.352004 -195.538011 
L 397.551313 -195.538011 
L 393.750622 -195.538011 
L 389.949932 -195.538011 
L 386.149241 -195.538011 
L 382.34855 -195.538011 
L 378.547859 -195.538011 
L 374.747168 -195.538011 
L 370.946478 -195.538011 
L 367.145787 -195.538011 
L 363.345096 -195.538011 
L 359.544405 -195.538011 
L 355.743715 -195.538011 
L 351.943024 -195.538011 
L 348.142333 -195.538011 
L 344.341642 -195.538011 
L 340.540951 -195.538011 
L 336.740261 -195.538011 
L 332.93957 -195.538011 
L 329.138879 -195.538011 
L 325.338188 -195.538011 
L 321.537498 -195.538011 
L 317.736807 -195.538011 
L 313.936116 -195.538011 
L 310.135425 -195.538011 
L 306.334734 -195.538011 
L 302.534044 -195.538011 
L 298.733353 -195.538011 
L 294.932662 -195.538011 
L 291.131971 -195.538011 
L 287.331281 -195.538011 
L 283.53059 -195.538011 
L 279.729899 -195.538011 
L 275.929208 -195.538011 
L 272.128517 -195.538011 
L 268.327827 -195.538011 
L 264.527136 -195.538011 
L 260.726445 -195.538011 
L 256.925754 -195.538011 
L 253.125064 -195.538011 
L 249.324373 -195.538011 
L 245.523682 -195.538011 
L 241.722991 -195.538011 
L 237.9223 -195.538011 
L 234.12161 -195.538011 
L 230.320919 -195.538011 
L 226.520228 -195.538011 
L 222.719537 -195.538011 
L 218.918847 -195.538011 
L 215.118156 -195.538011 
L 211.317465 -195.538011 
L 207.516774 -195.538011 
L 203.716083 -195.538011 
L 199.915393 -195.538011 
L 196.114702 -195.538011 
L 192.314011 -195.538011 
L 188.51332 -195.538011 
L 184.71263 -195.538011 
L 180.911939 -195.538011 
L 177.111248 -195.538011 
L 173.310557 -195.538011 
L 169.509866 -195.538011 
L 165.709176 -195.538011 
L 161.908485 -195.538011 
L 158.107794 -195.538011 
L 154.307103 -195.538011 
L 150.506413 -195.538011 
L 146.705722 -195.538011 
L 142.905031 -195.538011 
L 139.10434 -195.538011 
z
" id="m036f65d362" style="stroke:#ff6384;stroke-opacity:0.5;"/>
    </defs>
    <g clip-path="url(#pa1d9dc5430)">
     <use style="fill:#ff6384;fill-opacity:0.5;stroke:#ff6384;stroke-opacity:0.5;" x="0" xlink:href="#m036f65d362" y="581.789375"/>
    </g>
   </g>
   <g id="PolyCollection_2">
    <defs>
     <path d="M 58.827273 -195.538011 
L 58.827273 -195.650004 
L 62.193473 -195.692234 
L 65.559673 -195.749007 
L 68.925874 -195.8248 
L 72.292074 -195.925281 
L 75.658274 -196.057565 
L 79.024474 -196.230497 
L 82.390675 -196.454982 
L 85.756875 -196.744335 
L 89.123075 -197.114666 
L 92.489275 -197.585273 
L 95.855476 -198.179047 
L 99.221676 -198.922859 
L 102.587876 -199.847921 
L 105.954076 -200.990079 
L 109.320277 -202.390029 
L 112.686477 -204.093399 
L 116.052677 -206.150691 
L 119.418877 -208.617009 
L 122.785078 -211.551575 
L 126.151278 -215.016962 
L 129.517478 -219.078053 
L 132.883678 -223.800667 
L 136.249879 -229.249878 
L 139.616079 -235.488004 
L 142.982279 -242.572312 
L 146.34848 -250.552459 
L 149.71468 -259.467747 
L 153.08088 -269.344261 
L 156.44708 -280.192004 
L 159.813281 -292.002137 
L 163.179481 -304.744465 
L 166.545681 -318.365297 
L 169.911881 -332.785841 
L 173.278082 -347.901251 
L 176.644282 -363.580456 
L 180.010482 -379.666871 
L 183.376682 -395.980052 
L 186.742883 -412.31833 
L 190.109083 -428.4624 
L 193.475283 -444.179822 
L 196.841483 -459.230303 
L 200.207684 -473.371627 
L 203.573884 -486.366018 
L 206.940084 -497.986726 
L 210.306285 -508.02457 
L 213.672485 -516.294181 
L 217.038685 -522.639693 
L 220.404885 -526.939623 
L 223.771086 -529.110739 
L 227.137286 -529.110739 
L 230.503486 -526.939623 
L 233.869686 -522.639693 
L 237.235887 -516.294181 
L 240.602087 -508.02457 
L 243.968287 -497.986726 
L 247.334487 -486.366018 
L 250.700688 -473.371627 
L 254.066888 -459.230303 
L 257.433088 -444.179822 
L 260.799288 -428.4624 
L 264.165489 -412.31833 
L 267.531689 -395.980052 
L 270.897889 -379.666871 
L 274.264089 -363.580456 
L 277.63029 -347.901251 
L 280.99649 -332.785841 
L 284.36269 -318.365297 
L 287.728891 -304.744465 
L 291.095091 -292.002137 
L 294.461291 -280.192004 
L 297.827491 -269.344261 
L 301.193692 -259.467747 
L 304.559892 -250.552459 
L 307.926092 -242.572312 
L 311.292292 -235.488004 
L 314.658493 -229.249878 
L 318.024693 -223.800667 
L 321.390893 -219.078053 
L 324.757093 -215.016962 
L 328.123294 -211.551575 
L 331.489494 -208.617009 
L 334.855694 -206.150691 
L 338.221894 -204.093399 
L 341.588095 -202.390029 
L 344.954295 -200.990079 
L 348.320495 -199.847921 
L 351.686696 -198.922859 
L 355.052896 -198.179047 
L 358.419096 -197.585273 
L 361.785296 -197.114666 
L 365.151497 -196.744335 
L 368.517697 -196.454982 
L 371.883897 -196.230497 
L 375.250097 -196.057565 
L 378.616298 -195.925281 
L 381.982498 -195.8248 
L 385.348698 -195.749007 
L 388.714898 -195.692234 
L 392.081099 -195.650004 
L 392.081099 -195.538011 
L 392.081099 -195.538011 
L 388.714898 -195.538011 
L 385.348698 -195.538011 
L 381.982498 -195.538011 
L 378.616298 -195.538011 
L 375.250097 -195.538011 
L 371.883897 -195.538011 
L 368.517697 -195.538011 
L 365.151497 -195.538011 
L 361.785296 -195.538011 
L 358.419096 -195.538011 
L 355.052896 -195.538011 
L 351.686696 -195.538011 
L 348.320495 -195.538011 
L 344.954295 -195.538011 
L 341.588095 -195.538011 
L 338.221894 -195.538011 
L 334.855694 -195.538011 
L 331.489494 -195.538011 
L 328.123294 -195.538011 
L 324.757093 -195.538011 
L 321.390893 -195.538011 
L 318.024693 -195.538011 
L 314.658493 -195.538011 
L 311.292292 -195.538011 
L 307.926092 -195.538011 
L 304.559892 -195.538011 
L 301.193692 -195.538011 
L 297.827491 -195.538011 
L 294.461291 -195.538011 
L 291.095091 -195.538011 
L 287.728891 -195.538011 
L 284.36269 -195.538011 
L 280.99649 -195.538011 
L 277.63029 -195.538011 
L 274.264089 -195.538011 
L 270.897889 -195.538011 
L 267.531689 -195.538011 
L 264.165489 -195.538011 
L 260.799288 -195.538011 
L 257.433088 -195.538011 
L 254.066888 -195.538011 
L 250.700688 -195.538011 
L 247.334487 -195.538011 
L 243.968287 -195.538011 
L 240.602087 -195.538011 
L 237.235887 -195.538011 
L 233.869686 -195.538011 
L 230.503486 -195.538011 
L 227.137286 -195.538011 
L 223.771086 -195.538011 
L 220.404885 -195.538011 
L 217.038685 -195.538011 
L 213.672485 -195.538011 
L 210.306285 -195.538011 
L 206.940084 -195.538011 
L 203.573884 -195.538011 
L 200.207684 -195.538011 
L 196.841483 -195.538011 
L 193.475283 -195.538011 
L 190.109083 -195.538011 
L 186.742883 -195.538011 
L 183.376682 -195.538011 
L 180.010482 -195.538011 
L 176.644282 -195.538011 
L 173.278082 -195.538011 
L 169.911881 -195.538011 
L 166.545681 -195.538011 
L 163.179481 -195.538011 
L 159.813281 -195.538011 
L 156.44708 -195.538011 
L 153.08088 -195.538011 
L 149.71468 -195.538011 
L 146.34848 -195.538011 
L 142.982279 -195.538011 
L 139.616079 -195.538011 
L 136.249879 -195.538011 
L 132.883678 -195.538011 
L 129.517478 -195.538011 
L 126.151278 -195.538011 
L 122.785078 -195.538011 
L 119.418877 -195.538011 
L 116.052677 -195.538011 
L 112.686477 -195.538011 
L 109.320277 -195.538011 
L 105.954076 -195.538011 
L 102.587876 -195.538011 
L 99.221676 -195.538011 
L 95.855476 -195.538011 
L 92.489275 -195.538011 
L 89.123075 -195.538011 
L 85.756875 -195.538011 
L 82.390675 -195.538011 
L 79.024474 -195.538011 
L 75.658274 -195.538011 
L 72.292074 -195.538011 
L 68.925874 -195.538011 
L 65.559673 -195.538011 
L 62.193473 -195.538011 
L 58.827273 -195.538011 
z
" id="mbda6077956" style="stroke:#36a2eb;stroke-opacity:0.5;"/>
    </defs>
    <g clip-path="url(#pa1d9dc5430)">
     <use style="fill:#36a2eb;fill-opacity:0.5;stroke:#36a2eb;stroke-opacity:0.5;" x="0" xlink:href="#mbda6077956" y="581.789375"/>
    </g>
   </g>
   <g id="line2d_1">
    <path clip-path="url(#pa1d9dc5430)" d="M 139.10434 386.152174 
L 142.905031 386.114771 
L 146.705722 386.064489 
L 150.506413 385.997361 
L 154.307103 385.908366 
L 158.107794 385.791205 
L 161.908485 385.638042 
L 165.709176 385.43922 
L 169.509866 385.182945 
L 173.310557 384.85495 
L 177.111248 384.438143 
L 180.911939 383.912248 
L 184.71263 383.253468 
L 188.51332 382.434158 
L 192.314011 381.42257 
L 196.114702 380.182661 
L 199.915393 378.674018 
L 203.716083 376.851913 
L 207.516774 374.667541 
L 211.317465 372.068452 
L 215.118156 368.999224 
L 218.918847 365.402392 
L 222.719537 361.219661 
L 226.520228 356.393398 
L 230.320919 350.868407 
L 234.12161 344.593969 
L 237.9223 337.526103 
L 241.722991 329.630001 
L 245.523682 320.882558 
L 249.324373 311.274917 
L 253.125064 300.814903 
L 256.925754 289.529264 
L 260.726445 277.465549 
L 264.527136 264.693545 
L 268.327827 251.306111 
L 272.128517 237.419335 
L 275.929208 223.1719 
L 279.729899 208.723622 
L 283.53059 194.253117 
L 287.331281 179.954618 
L 291.131971 166.033994 
L 294.932662 152.704066 
L 298.733353 140.179362 
L 302.534044 128.670474 
L 306.334734 118.378231 
L 310.135425 109.487902 
L 313.936116 102.163663 
L 317.736807 96.543563 
L 321.537498 92.735196 
L 325.338188 90.81228 
L 329.138879 90.81228 
L 332.93957 92.735196 
L 336.740261 96.543563 
L 340.540951 102.163663 
L 344.341642 109.487902 
L 348.142333 118.378231 
L 351.943024 128.670474 
L 355.743715 140.179362 
L 359.544405 152.704066 
L 363.345096 166.033994 
L 367.145787 179.954618 
L 370.946478 194.253117 
L 374.747168 208.723622 
L 378.547859 223.1719 
L 382.34855 237.419335 
L 386.149241 251.306111 
L 389.949932 264.693545 
L 393.750622 277.465549 
L 397.551313 289.529264 
L 401.352004 300.814903 
L 405.152695 311.274917 
L 408.953385 320.882558 
L 412.754076 329.630001 
L 416.554767 337.526103 
L 420.355458 344.593969 
L 424.156149 350.868407 
L 427.956839 356.393398 
L 431.75753 361.219661 
L 435.558221 365.402392 
L 439.358912 368.999224 
L 443.159602 372.068452 
L 446.960293 374.667541 
L 450.760984 376.851913 
L 454.561675 378.674018 
L 458.362366 380.182661 
L 462.163056 381.42257 
L 465.963747 382.434158 
L 469.764438 383.253468 
L 473.565129 383.912248 
L 477.365819 384.438143 
L 481.16651 384.85495 
L 484.967201 385.182945 
L 488.767892 385.43922 
L 492.568583 385.638042 
L 496.369273 385.791205 
L 500.169964 385.908366 
L 503.970655 385.997361 
L 507.771346 386.064489 
L 511.572036 386.114771 
L 515.372727 386.152174 
" style="fill:none;stroke:#ff6384;stroke-linecap:square;"/>
   </g>
   <g id="line2d_2">
    <path clip-path="url(#pa1d9dc5430)" d="M 58.827273 386.139371 
L 62.193473 386.097141 
L 65.559673 386.040368 
L 68.925874 385.964575 
L 72.292074 385.864094 
L 75.658274 385.73181 
L 79.024474 385.558878 
L 82.390675 385.334393 
L 85.756875 385.04504 
L 89.123075 384.674709 
L 92.489275 384.204102 
L 95.855476 383.610328 
L 99.221676 382.866516 
L 102.587876 381.941454 
L 105.954076 380.799296 
L 109.320277 379.399346 
L 112.686477 377.695976 
L 116.052677 375.638684 
L 119.418877 373.172366 
L 122.785078 370.2378 
L 126.151278 366.772413 
L 129.517478 362.711322 
L 132.883678 357.988708 
L 136.249879 352.539497 
L 139.616079 346.301371 
L 142.982279 339.217063 
L 146.34848 331.236916 
L 149.71468 322.321628 
L 153.08088 312.445114 
L 156.44708 301.597371 
L 159.813281 289.787238 
L 163.179481 277.04491 
L 166.545681 263.424078 
L 169.911881 249.003534 
L 173.278082 233.888124 
L 176.644282 218.208919 
L 180.010482 202.122504 
L 183.376682 185.809323 
L 186.742883 169.471045 
L 190.109083 153.326975 
L 193.475283 137.609553 
L 196.841483 122.559072 
L 200.207684 108.417748 
L 203.573884 95.423357 
L 206.940084 83.802649 
L 210.306285 73.764805 
L 213.672485 65.495194 
L 217.038685 59.149682 
L 220.404885 54.849752 
L 223.771086 52.678636 
L 227.137286 52.678636 
L 230.503486 54.849752 
L 233.869686 59.149682 
L 237.235887 65.495194 
L 240.602087 73.764805 
L 243.968287 83.802649 
L 247.334487 95.423357 
L 250.700688 108.417748 
L 254.066888 122.559072 
L 257.433088 137.609553 
L 260.799288 153.326975 
L 264.165489 169.471045 
L 267.531689 185.809323 
L 270.897889 202.122504 
L 274.264089 218.208919 
L 277.63029 233.888124 
L 280.99649 249.003534 
L 284.36269 263.424078 
L 287.728891 277.04491 
L 291.095091 289.787238 
L 294.461291 301.597371 
L 297.827491 312.445114 
L 301.193692 322.321628 
L 304.559892 331.236916 
L 307.926092 339.217063 
L 311.292292 346.301371 
L 314.658493 352.539497 
L 318.024693 357.988708 
L 321.390893 362.711322 
L 324.757093 366.772413 
L 328.123294 370.2378 
L 331.489494 373.172366 
L 334.855694 375.638684 
L 338.221894 377.695976 
L 341.588095 379.399346 
L 344.954295 380.799296 
L 348.320495 381.941454 
L 351.686696 382.866516 
L 355.052896 383.610328 
L 358.419096 384.204102 
L 361.785296 384.674709 
L 365.151497 385.04504 
L 368.517697 385.334393 
L 371.883897 385.558878 
L 375.250097 385.73181 
L 378.616298 385.864094 
L 381.982498 385.964575 
L 385.348698 386.040368 
L 388.714898 386.097141 
L 392.081099 386.139371 
" style="fill:none;stroke:#36a2eb;stroke-linecap:square;"/>
   </g>
   <g id="patch_3">
    <path d="M 36 402.93 
L 538.2 402.93 
" style="fill:none;stroke:#000000;stroke-linecap:square;stroke-linejoin:miter;stroke-width:0.8;"/>
   </g>
   <g id="legend_1">
    <g id="patch_4">
     <path d="M 410.290313 88.688125 
L 528.4 88.688125 
Q 531.2 88.688125 531.2 85.888125 
L 531.2 45.8 
Q 531.2 43 528.4 43 
L 410.290313 43 
Q 407.490313 43 407.490313 45.8 
L 407.490313 85.888125 
Q 407.490313 88.688125 410.290313 88.688125 
z
" style="fill:#ffffff;opacity:0.8;stroke:#cccccc;stroke-linejoin:miter;"/>
    </g>
    <g id="patch_5">
     <path d="M 413.090313 59.237813 
L 441.090313 59.237813 
L 441.090313 49.437813 
L 413.090313 49.437813 
z
" style="fill:#ff6384;opacity:0.5;stroke:#ff6384;stroke-linejoin:miter;"/>
    </g>
    <g id="text_1">
     <!-- base -->
     <defs>
      <path d="M 48.6875 27.296875 
Q 48.6875 37.203125 44.609375 42.84375 
Q 40.53125 48.484375 33.40625 48.484375 
Q 26.265625 48.484375 22.1875 42.84375 
Q 18.109375 37.203125 18.109375 27.296875 
Q 18.109375 17.390625 22.1875 11.75 
Q 26.265625 6.109375 33.40625 6.109375 
Q 40.53125 6.109375 44.609375 11.75 
Q 48.6875 17.390625 48.6875 27.296875 
z
M 18.109375 46.390625 
Q 20.953125 51.265625 25.265625 53.625 
Q 29.59375 56 35.59375 56 
Q 45.5625 56 51.78125 48.09375 
Q 58.015625 40.1875 58.015625 27.296875 
Q 58.015625 14.40625 51.78125 6.484375 
Q 45.5625 -1.421875 35.59375 -1.421875 
Q 29.59375 -1.421875 25.265625 0.953125 
Q 20.953125 3.328125 18.109375 8.203125 
L 18.109375 0 
L 9.078125 0 
L 9.078125 75.984375 
L 18.109375 75.984375 
z
" id="DejaVuSans-98"/>
      <path d="M 34.28125 27.484375 
Q 23.390625 27.484375 19.1875 25 
Q 14.984375 22.515625 14.984375 16.5 
Q 14.984375 11.71875 18.140625 8.90625 
Q 21.296875 6.109375 26.703125 6.109375 
Q 34.1875 6.109375 38.703125 11.40625 
Q 43.21875 16.703125 43.21875 25.484375 
L 43.21875 27.484375 
z
M 52.203125 31.203125 
L 52.203125 0 
L 43.21875 0 
L 43.21875 8.296875 
Q 40.140625 3.328125 35.546875 0.953125 
Q 30.953125 -1.421875 24.3125 -1.421875 
Q 15.921875 -1.421875 10.953125 3.296875 
Q 6 8.015625 6 15.921875 
Q 6 25.140625 12.171875 29.828125 
Q 18.359375 34.515625 30.609375 34.515625 
L 43.21875 34.515625 
L 43.21875 35.40625 
Q 43.21875 41.609375 39.140625 45 
Q 35.0625 48.390625 27.6875 48.390625 
Q 23 48.390625 18.546875 47.265625 
Q 14.109375 46.140625 10.015625 43.890625 
L 10.015625 52.203125 
Q 14.9375 54.109375 19.578125 55.046875 
Q 24.21875 56 28.609375 56 
Q 40.484375 56 46.34375 49.84375 
Q 52.203125 43.703125 52.203125 31.203125 
z
" id="DejaVuSans-97"/>
      <path d="M 44.28125 53.078125 
L 44.28125 44.578125 
Q 40.484375 46.53125 36.375 47.5 
Q 32.28125 48.484375 27.875 48.484375 
Q 21.1875 48.484375 17.84375 46.4375 
Q 14.5 44.390625 14.5 40.28125 
Q 14.5 37.15625 16.890625 35.375 
Q 19.28125 33.59375 26.515625 31.984375 
L 29.59375 31.296875 
Q 39.15625 29.25 43.1875 25.515625 
Q 47.21875 21.78125 47.21875 15.09375 
Q 47.21875 7.46875 41.1875 3.015625 
Q 35.15625 -1.421875 24.609375 -1.421875 
Q 20.21875 -1.421875 15.453125 -0.5625 
Q 10.6875 0.296875 5.421875 2 
L 5.421875 11.28125 
Q 10.40625 8.6875 15.234375 7.390625 
Q 20.0625 6.109375 24.8125 6.109375 
Q 31.15625 6.109375 34.5625 8.28125 
Q 37.984375 10.453125 37.984375 14.40625 
Q 37.984375 18.0625 35.515625 20.015625 
Q 33.0625 21.96875 24.703125 23.78125 
L 21.578125 24.515625 
Q 13.234375 26.265625 9.515625 29.90625 
Q 5.8125 33.546875 5.8125 39.890625 
Q 5.8125 47.609375 11.28125 51.796875 
Q 16.75 56 26.8125 56 
Q 31.78125 56 36.171875 55.265625 
Q 40.578125 54.546875 44.28125 53.078125 
z
" id="DejaVuSans-115"/>
      <path d="M 56.203125 29.59375 
L 56.203125 25.203125 
L 14.890625 25.203125 
Q 15.484375 15.921875 20.484375 11.0625 
Q 25.484375 6.203125 34.421875 6.203125 
Q 39.59375 6.203125 44.453125 7.46875 
Q 49.3125 8.734375 54.109375 11.28125 
L 54.109375 2.78125 
Q 49.265625 0.734375 44.1875 -0.34375 
Q 39.109375 -1.421875 33.890625 -1.421875 
Q 20.796875 -1.421875 13.15625 6.1875 
Q 5.515625 13.8125 5.515625 26.8125 
Q 5.515625 40.234375 12.765625 48.109375 
Q 20.015625 56 32.328125 56 
Q 43.359375 56 49.78125 48.890625 
Q 56.203125 41.796875 56.203125 29.59375 
z
M 47.21875 32.234375 
Q 47.125 39.59375 43.09375 43.984375 
Q 39.0625 48.390625 32.421875 48.390625 
Q 24.90625 48.390625 20.390625 44.140625 
Q 15.875 39.890625 15.1875 32.171875 
z
" id="DejaVuSans-101"/>
     </defs>
     <g transform="translate(452.290313 59.237813)scale(0.14 -0.14)">
      <use xlink:href="#DejaVuSans-98"/>
      <use x="63.476562" xlink:href="#DejaVuSans-97"/>
      <use x="124.755859" xlink:href="#DejaVuSans-115"/>
      <use x="176.855469" xlink:href="#DejaVuSans-101"/>
     </g>
    </g>
    <g id="patch_6">
     <path d="M 413.090313 79.787188 
L 441.090313 79.787188 
L 441.090313 69.987188 
L 413.090313 69.987188 
z
" style="fill:#36a2eb;opacity:0.5;stroke:#36a2eb;stroke-linejoin:miter;"/>
    </g>
    <g id="text_2">
     <!-- no_license -->
     <defs>
      <path d="M 54.890625 33.015625 
L 54.890625 0 
L 45.90625 0 
L 45.90625 32.71875 
Q 45.90625 40.484375 42.875 44.328125 
Q 39.84375 48.1875 33.796875 48.1875 
Q 26.515625 48.1875 22.3125 43.546875 
Q 18.109375 38.921875 18.109375 30.90625 
L 18.109375 0 
L 9.078125 0 
L 9.078125 54.6875 
L 18.109375 54.6875 
L 18.109375 46.1875 
Q 21.34375 51.125 25.703125 53.5625 
Q 30.078125 56 35.796875 56 
Q 45.21875 56 50.046875 50.171875 
Q 54.890625 44.34375 54.890625 33.015625 
z
" id="DejaVuSans-110"/>
      <path d="M 30.609375 48.390625 
Q 23.390625 48.390625 19.1875 42.75 
Q 14.984375 37.109375 14.984375 27.296875 
Q 14.984375 17.484375 19.15625 11.84375 
Q 23.34375 6.203125 30.609375 6.203125 
Q 37.796875 6.203125 41.984375 11.859375 
Q 46.1875 17.53125 46.1875 27.296875 
Q 46.1875 37.015625 41.984375 42.703125 
Q 37.796875 48.390625 30.609375 48.390625 
z
M 30.609375 56 
Q 42.328125 56 49.015625 48.375 
Q 55.71875 40.765625 55.71875 27.296875 
Q 55.71875 13.875 49.015625 6.21875 
Q 42.328125 -1.421875 30.609375 -1.421875 
Q 18.84375 -1.421875 12.171875 6.21875 
Q 5.515625 13.875 5.515625 27.296875 
Q 5.515625 40.765625 12.171875 48.375 
Q 18.84375 56 30.609375 56 
z
" id="DejaVuSans-111"/>
      <path d="M 50.984375 -16.609375 
L 50.984375 -23.578125 
L -0.984375 -23.578125 
L -0.984375 -16.609375 
z
" id="DejaVuSans-95"/>
      <path d="M 9.421875 75.984375 
L 18.40625 75.984375 
L 18.40625 0 
L 9.421875 0 
z
" id="DejaVuSans-108"/>
      <path d="M 9.421875 54.6875 
L 18.40625 54.6875 
L 18.40625 0 
L 9.421875 0 
z
M 9.421875 75.984375 
L 18.40625 75.984375 
L 18.40625 64.59375 
L 9.421875 64.59375 
z
" id="DejaVuSans-105"/>
      <path d="M 48.78125 52.59375 
L 48.78125 44.1875 
Q 44.96875 46.296875 41.140625 47.34375 
Q 37.3125 48.390625 33.40625 48.390625 
Q 24.65625 48.390625 19.8125 42.84375 
Q 14.984375 37.3125 14.984375 27.296875 
Q 14.984375 17.28125 19.8125 11.734375 
Q 24.65625 6.203125 33.40625 6.203125 
Q 37.3125 6.203125 41.140625 7.25 
Q 44.96875 8.296875 48.78125 10.40625 
L 48.78125 2.09375 
Q 45.015625 0.34375 40.984375 -0.53125 
Q 36.96875 -1.421875 32.421875 -1.421875 
Q 20.0625 -1.421875 12.78125 6.34375 
Q 5.515625 14.109375 5.515625 27.296875 
Q 5.515625 40.671875 12.859375 48.328125 
Q 20.21875 56 33.015625 56 
Q 37.15625 56 41.109375 55.140625 
Q 45.0625 54.296875 48.78125 52.59375 
z
" id="DejaVuSans-99"/>
     </defs>
     <g transform="translate(452.290313 79.787188)scale(0.14 -0.14)">
      <use xlink:href="#DejaVuSans-110"/>
      <use x="63.378906" xlink:href="#DejaVuSans-111"/>
      <use x="124.560547" xlink:href="#DejaVuSans-95"/>
      <use x="174.560547" xlink:href="#DejaVuSans-108"/>
      <use x="202.34375" xlink:href="#DejaVuSans-105"/>
      <use x="230.126953" xlink:href="#DejaVuSans-99"/>
      <use x="285.107422" xlink:href="#DejaVuSans-101"/>
      <use x="346.630859" xlink:href="#DejaVuSans-110"/>
      <use x="410.009766" xlink:href="#DejaVuSans-115"/>
      <use x="462.109375" xlink:href="#DejaVuSans-101"/>
     </g>
    </g>
   </g>
  </g>
  <g id="axes_2">
   <g id="patch_7">
    <path d="M 36 525.24 
L 538.2 525.24 
L 538.2 402.93 
L 36 402.93 
z
" style="fill:none;"/>
   </g>
   <g id="patch_8">
    <path clip-path="url(#pb76c69968e)" d="M 235.052779 519.680455 
L 419.424289 519.680455 
L 419.424289 482.616818 
L 235.052779 482.616818 
z
" style="fill:#ff6384;opacity:0.5;"/>
   </g>
   <g id="patch_9">
    <path clip-path="url(#pb76c69968e)" d="M 143.806998 445.553182 
L 307.101373 445.553182 
L 307.101373 408.489545 
L 143.806998 408.489545 
z
" style="fill:#36a2eb;opacity:0.5;"/>
   </g>
   <g id="matplotlib.axis_1">
    <g id="xtick_1">
     <g id="line2d_3">
      <defs>
       <path d="M 0 0 
L 0 3.5 
" id="m8c9e740b8e" style="stroke:#000000;stroke-width:0.8;"/>
      </defs>
      <g>
       <use style="stroke:#000000;stroke-width:0.8;" x="96.776122" xlink:href="#m8c9e740b8e" y="525.24"/>
      </g>
     </g>
     <g id="text_3">
      <!-- 6.75 -->
      <defs>
       <path d="M 33.015625 40.375 
Q 26.375 40.375 22.484375 35.828125 
Q 18.609375 31.296875 18.609375 23.390625 
Q 18.609375 15.53125 22.484375 10.953125 
Q 26.375 6.390625 33.015625 6.390625 
Q 39.65625 6.390625 43.53125 10.953125 
Q 47.40625 15.53125 47.40625 23.390625 
Q 47.40625 31.296875 43.53125 35.828125 
Q 39.65625 40.375 33.015625 40.375 
z
M 52.59375 71.296875 
L 52.59375 62.3125 
Q 48.875 64.0625 45.09375 64.984375 
Q 41.3125 65.921875 37.59375 65.921875 
Q 27.828125 65.921875 22.671875 59.328125 
Q 17.53125 52.734375 16.796875 39.40625 
Q 19.671875 43.65625 24.015625 45.921875 
Q 28.375 48.1875 33.59375 48.1875 
Q 44.578125 48.1875 50.953125 41.515625 
Q 57.328125 34.859375 57.328125 23.390625 
Q 57.328125 12.15625 50.6875 5.359375 
Q 44.046875 -1.421875 33.015625 -1.421875 
Q 20.359375 -1.421875 13.671875 8.265625 
Q 6.984375 17.96875 6.984375 36.375 
Q 6.984375 53.65625 15.1875 63.9375 
Q 23.390625 74.21875 37.203125 74.21875 
Q 40.921875 74.21875 44.703125 73.484375 
Q 48.484375 72.75 52.59375 71.296875 
z
" id="DejaVuSans-54"/>
       <path d="M 10.6875 12.40625 
L 21 12.40625 
L 21 0 
L 10.6875 0 
z
" id="DejaVuSans-46"/>
       <path d="M 8.203125 72.90625 
L 55.078125 72.90625 
L 55.078125 68.703125 
L 28.609375 0 
L 18.3125 0 
L 43.21875 64.59375 
L 8.203125 64.59375 
z
" id="DejaVuSans-55"/>
       <path d="M 10.796875 72.90625 
L 49.515625 72.90625 
L 49.515625 64.59375 
L 19.828125 64.59375 
L 19.828125 46.734375 
Q 21.96875 47.46875 24.109375 47.828125 
Q 26.265625 48.1875 28.421875 48.1875 
Q 40.625 48.1875 47.75 41.5 
Q 54.890625 34.8125 54.890625 23.390625 
Q 54.890625 11.625 47.5625 5.09375 
Q 40.234375 -1.421875 26.90625 -1.421875 
Q 22.3125 -1.421875 17.546875 -0.640625 
Q 12.796875 0.140625 7.71875 1.703125 
L 7.71875 11.625 
Q 12.109375 9.234375 16.796875 8.0625 
Q 21.484375 6.890625 26.703125 6.890625 
Q 35.15625 6.890625 40.078125 11.328125 
Q 45.015625 15.765625 45.015625 23.390625 
Q 45.015625 31 40.078125 35.4375 
Q 35.15625 39.890625 26.703125 39.890625 
Q 22.75 39.890625 18.8125 39.015625 
Q 14.890625 38.140625 10.796875 36.28125 
z
" id="DejaVuSans-53"/>
      </defs>
      <g transform="translate(81.190185 542.877813)scale(0.14 -0.14)">
       <use xlink:href="#DejaVuSans-54"/>
       <use x="63.623047" xlink:href="#DejaVuSans-46"/>
       <use x="95.410156" xlink:href="#DejaVuSans-55"/>
       <use x="159.033203" xlink:href="#DejaVuSans-53"/>
      </g>
     </g>
    </g>
    <g id="xtick_2">
     <g id="line2d_4">
      <g>
       <use style="stroke:#000000;stroke-width:0.8;" x="161.115154" xlink:href="#m8c9e740b8e" y="525.24"/>
      </g>
     </g>
     <g id="text_4">
      <!-- 7.00 -->
      <defs>
       <path d="M 31.78125 66.40625 
Q 24.171875 66.40625 20.328125 58.90625 
Q 16.5 51.421875 16.5 36.375 
Q 16.5 21.390625 20.328125 13.890625 
Q 24.171875 6.390625 31.78125 6.390625 
Q 39.453125 6.390625 43.28125 13.890625 
Q 47.125 21.390625 47.125 36.375 
Q 47.125 51.421875 43.28125 58.90625 
Q 39.453125 66.40625 31.78125 66.40625 
z
M 31.78125 74.21875 
Q 44.046875 74.21875 50.515625 64.515625 
Q 56.984375 54.828125 56.984375 36.375 
Q 56.984375 17.96875 50.515625 8.265625 
Q 44.046875 -1.421875 31.78125 -1.421875 
Q 19.53125 -1.421875 13.0625 8.265625 
Q 6.59375 17.96875 6.59375 36.375 
Q 6.59375 54.828125 13.0625 64.515625 
Q 19.53125 74.21875 31.78125 74.21875 
z
" id="DejaVuSans-48"/>
      </defs>
      <g transform="translate(145.529217 542.877813)scale(0.14 -0.14)">
       <use xlink:href="#DejaVuSans-55"/>
       <use x="63.623047" xlink:href="#DejaVuSans-46"/>
       <use x="95.410156" xlink:href="#DejaVuSans-48"/>
       <use x="159.033203" xlink:href="#DejaVuSans-48"/>
      </g>
     </g>
    </g>
    <g id="xtick_3">
     <g id="line2d_5">
      <g>
       <use style="stroke:#000000;stroke-width:0.8;" x="225.454186" xlink:href="#m8c9e740b8e" y="525.24"/>
      </g>
     </g>
     <g id="text_5">
      <!-- 7.25 -->
      <defs>
       <path d="M 19.1875 8.296875 
L 53.609375 8.296875 
L 53.609375 0 
L 7.328125 0 
L 7.328125 8.296875 
Q 12.9375 14.109375 22.625 23.890625 
Q 32.328125 33.6875 34.8125 36.53125 
Q 39.546875 41.84375 41.421875 45.53125 
Q 43.3125 49.21875 43.3125 52.78125 
Q 43.3125 58.59375 39.234375 62.25 
Q 35.15625 65.921875 28.609375 65.921875 
Q 23.96875 65.921875 18.8125 64.3125 
Q 13.671875 62.703125 7.8125 59.421875 
L 7.8125 69.390625 
Q 13.765625 71.78125 18.9375 73 
Q 24.125 74.21875 28.421875 74.21875 
Q 39.75 74.21875 46.484375 68.546875 
Q 53.21875 62.890625 53.21875 53.421875 
Q 53.21875 48.921875 51.53125 44.890625 
Q 49.859375 40.875 45.40625 35.40625 
Q 44.1875 33.984375 37.640625 27.21875 
Q 31.109375 20.453125 19.1875 8.296875 
z
" id="DejaVuSans-50"/>
      </defs>
      <g transform="translate(209.868248 542.877813)scale(0.14 -0.14)">
       <use xlink:href="#DejaVuSans-55"/>
       <use x="63.623047" xlink:href="#DejaVuSans-46"/>
       <use x="95.410156" xlink:href="#DejaVuSans-50"/>
       <use x="159.033203" xlink:href="#DejaVuSans-53"/>
      </g>
     </g>
    </g>
    <g id="xtick_4">
     <g id="line2d_6">
      <g>
       <use style="stroke:#000000;stroke-width:0.8;" x="289.793217" xlink:href="#m8c9e740b8e" y="525.24"/>
      </g>
     </g>
     <g id="text_6">
      <!-- 7.50 -->
      <g transform="translate(274.20728 542.877813)scale(0.14 -0.14)">
       <use xlink:href="#DejaVuSans-55"/>
       <use x="63.623047" xlink:href="#DejaVuSans-46"/>
       <use x="95.410156" xlink:href="#DejaVuSans-53"/>
       <use x="159.033203" xlink:href="#DejaVuSans-48"/>
      </g>
     </g>
    </g>
    <g id="xtick_5">
     <g id="line2d_7">
      <g>
       <use style="stroke:#000000;stroke-width:0.8;" x="354.132249" xlink:href="#m8c9e740b8e" y="525.24"/>
      </g>
     </g>
     <g id="text_7">
      <!-- 7.75 -->
      <g transform="translate(338.546311 542.877813)scale(0.14 -0.14)">
       <use xlink:href="#DejaVuSans-55"/>
       <use x="63.623047" xlink:href="#DejaVuSans-46"/>
       <use x="95.410156" xlink:href="#DejaVuSans-55"/>
       <use x="159.033203" xlink:href="#DejaVuSans-53"/>
      </g>
     </g>
    </g>
    <g id="xtick_6">
     <g id="line2d_8">
      <g>
       <use style="stroke:#000000;stroke-width:0.8;" x="418.471281" xlink:href="#m8c9e740b8e" y="525.24"/>
      </g>
     </g>
     <g id="text_8">
      <!-- 8.00 -->
      <defs>
       <path d="M 31.78125 34.625 
Q 24.75 34.625 20.71875 30.859375 
Q 16.703125 27.09375 16.703125 20.515625 
Q 16.703125 13.921875 20.71875 10.15625 
Q 24.75 6.390625 31.78125 6.390625 
Q 38.8125 6.390625 42.859375 10.171875 
Q 46.921875 13.96875 46.921875 20.515625 
Q 46.921875 27.09375 42.890625 30.859375 
Q 38.875 34.625 31.78125 34.625 
z
M 21.921875 38.8125 
Q 15.578125 40.375 12.03125 44.71875 
Q 8.5 49.078125 8.5 55.328125 
Q 8.5 64.0625 14.71875 69.140625 
Q 20.953125 74.21875 31.78125 74.21875 
Q 42.671875 74.21875 48.875 69.140625 
Q 55.078125 64.0625 55.078125 55.328125 
Q 55.078125 49.078125 51.53125 44.71875 
Q 48 40.375 41.703125 38.8125 
Q 48.828125 37.15625 52.796875 32.3125 
Q 56.78125 27.484375 56.78125 20.515625 
Q 56.78125 9.90625 50.3125 4.234375 
Q 43.84375 -1.421875 31.78125 -1.421875 
Q 19.734375 -1.421875 13.25 4.234375 
Q 6.78125 9.90625 6.78125 20.515625 
Q 6.78125 27.484375 10.78125 32.3125 
Q 14.796875 37.15625 21.921875 38.8125 
z
M 18.3125 54.390625 
Q 18.3125 48.734375 21.84375 45.5625 
Q 25.390625 42.390625 31.78125 42.390625 
Q 38.140625 42.390625 41.71875 45.5625 
Q 45.3125 48.734375 45.3125 54.390625 
Q 45.3125 60.0625 41.71875 63.234375 
Q 38.140625 66.40625 31.78125 66.40625 
Q 25.390625 66.40625 21.84375 63.234375 
Q 18.3125 60.0625 18.3125 54.390625 
z
" id="DejaVuSans-56"/>
      </defs>
      <g transform="translate(402.885343 542.877813)scale(0.14 -0.14)">
       <use xlink:href="#DejaVuSans-56"/>
       <use x="63.623047" xlink:href="#DejaVuSans-46"/>
       <use x="95.410156" xlink:href="#DejaVuSans-48"/>
       <use x="159.033203" xlink:href="#DejaVuSans-48"/>
      </g>
     </g>
    </g>
    <g id="xtick_7">
     <g id="line2d_9">
      <g>
       <use style="stroke:#000000;stroke-width:0.8;" x="482.810312" xlink:href="#m8c9e740b8e" y="525.24"/>
      </g>
     </g>
     <g id="text_9">
      <!-- 8.25 -->
      <g transform="translate(467.224375 542.877813)scale(0.14 -0.14)">
       <use xlink:href="#DejaVuSans-56"/>
       <use x="63.623047" xlink:href="#DejaVuSans-46"/>
       <use x="95.410156" xlink:href="#DejaVuSans-50"/>
       <use x="159.033203" xlink:href="#DejaVuSans-53"/>
      </g>
     </g>
    </g>
   </g>
   <g id="line2d_10">
    <path clip-path="url(#pb76c69968e)" d="M 327.238534 525.24 
L 327.238534 402.93 
" style="fill:none;stroke:#ff6384;stroke-dasharray:5.55,2.4;stroke-dashoffset:0;stroke-opacity:0.8;stroke-width:1.5;"/>
   </g>
   <g id="line2d_11">
    <path clip-path="url(#pb76c69968e)" d="M 225.454186 525.24 
L 225.454186 402.93 
" style="fill:none;stroke:#36a2eb;stroke-dasharray:5.55,2.4;stroke-dashoffset:0;stroke-opacity:0.8;stroke-width:1.5;"/>
   </g>
   <g id="patch_10">
    <path d="M 36 525.24 
L 538.2 525.24 
" style="fill:none;stroke:#000000;stroke-linecap:square;stroke-linejoin:miter;stroke-width:0.8;"/>
   </g>
  </g>
 </g>
 <defs>
  <clipPath id="pa1d9dc5430">
   <rect height="366.93" width="502.2" x="36" y="36"/>
  </clipPath>
  <clipPath id="pb76c69968e">
   <rect height="122.31" width="502.2" x="36" y="402.93"/>
  </clipPath>
 </defs>
</svg>
