<?xml version="1.0" encoding="utf-8" standalone="no"?>
<!DOCTYPE svg PUBLIC "-//W3C//DTD SVG 1.1//EN"
  "http://www.w3.org/Graphics/SVG/1.1/DTD/svg11.dtd">
<!-- Created with matplotlib (https://matplotlib.org/) -->
<svg height="581.789375pt" version="1.1" viewBox="0 0 574.2 581.789375" width="574.2pt" xmlns="http://www.w3.org/2000/svg" xmlns:xlink="http://www.w3.org/1999/xlink">
 <defs>
  <style type="text/css">
*{stroke-linecap:butt;stroke-linejoin:round;}
  </style>
 </defs>
 <g id="figure_1">
  <g id="patch_1">
   <path d="M 0 581.789375 
L 574.2 581.789375 
L 574.2 0 
L 0 0 
z
" style="fill:none;"/>
  </g>
  <g id="axes_1">
   <g id="patch_2">
    <path d="M 36 402.93 
L 538.2 402.93 
L 538.2 36 
L 36 36 
z
" style="fill:none;"/>
   </g>
   <g id="PolyCollection_1">
    <defs>
     <path d="M 98.935058 -195.538011 
L 98.935058 -195.649567 
L 103.141499 -195.691633 
L 107.347941 -195.748184 
L 111.554382 -195.823682 
L 115.760823 -195.923772 
L 119.967264 -196.055539 
L 124.173705 -196.227797 
L 128.380146 -196.451407 
L 132.586587 -196.739632 
L 136.793028 -197.108519 
L 140.999469 -197.577292 
L 145.20591 -198.16875 
L 149.412352 -198.909663 
L 153.618793 -199.831118 
L 157.825234 -200.968824 
L 162.031675 -202.363315 
L 166.238116 -204.060045 
L 170.444557 -206.109316 
L 174.650998 -208.56602 
L 178.857439 -211.489144 
L 183.06388 -214.941022 
L 187.270321 -218.98628 
L 191.476763 -223.690483 
L 195.683204 -229.118449 
L 199.889645 -235.332256 
L 204.096086 -242.388945 
L 208.302527 -250.337981 
L 212.508968 -259.218511 
L 216.715409 -269.056521 
L 220.92185 -279.861973 
L 225.128291 -291.626064 
L 229.334732 -304.318714 
L 233.541174 -317.886445 
L 237.747615 -332.250769 
L 241.954056 -347.30725 
L 246.160497 -362.925328 
L 250.366938 -378.949029 
L 254.573379 -395.198612 
L 258.77982 -411.473193 
L 262.986261 -427.554324 
L 267.192702 -443.21047 
L 271.399143 -458.202276 
L 275.605585 -472.288469 
L 279.812026 -485.2322 
L 284.018467 -496.807604 
L 288.224908 -506.806314 
L 292.431349 -515.043686 
L 296.63779 -521.36446 
L 300.844231 -525.647626 
L 305.050672 -527.810277 
L 309.257113 -527.810277 
L 313.463554 -525.647626 
L 317.669996 -521.36446 
L 321.876437 -515.043686 
L 326.082878 -506.806314 
L 330.289319 -496.807604 
L 334.49576 -485.2322 
L 338.702201 -472.288469 
L 342.908642 -458.202276 
L 347.115083 -443.21047 
L 351.321524 -427.554324 
L 355.527965 -411.473193 
L 359.734407 -395.198612 
L 363.940848 -378.949029 
L 368.147289 -362.925328 
L 372.35373 -347.30725 
L 376.560171 -332.250769 
L 380.766612 -317.886445 
L 384.973053 -304.318714 
L 389.179494 -291.626064 
L 393.385935 -279.861973 
L 397.592376 -269.056521 
L 401.798818 -259.218511 
L 406.005259 -250.337981 
L 410.2117 -242.388945 
L 414.418141 -235.332256 
L 418.624582 -229.118449 
L 422.831023 -223.690483 
L 427.037464 -218.98628 
L 431.243905 -214.941022 
L 435.450346 -211.489144 
L 439.656787 -208.56602 
L 443.863229 -206.109316 
L 448.06967 -204.060045 
L 452.276111 -202.363315 
L 456.482552 -200.968824 
L 460.688993 -199.831118 
L 464.895434 -198.909663 
L 469.101875 -198.16875 
L 473.308316 -197.577292 
L 477.514757 -197.108519 
L 481.721198 -196.739632 
L 485.92764 -196.451407 
L 490.134081 -196.227797 
L 494.340522 -196.055539 
L 498.546963 -195.923772 
L 502.753404 -195.823682 
L 506.959845 -195.748184 
L 511.166286 -195.691633 
L 515.372727 -195.649567 
L 515.372727 -195.538011 
L 515.372727 -195.538011 
L 511.166286 -195.538011 
L 506.959845 -195.538011 
L 502.753404 -195.538011 
L 498.546963 -195.538011 
L 494.340522 -195.538011 
L 490.134081 -195.538011 
L 485.92764 -195.538011 
L 481.721198 -195.538011 
L 477.514757 -195.538011 
L 473.308316 -195.538011 
L 469.101875 -195.538011 
L 464.895434 -195.538011 
L 460.688993 -195.538011 
L 456.482552 -195.538011 
L 452.276111 -195.538011 
L 448.06967 -195.538011 
L 443.863229 -195.538011 
L 439.656787 -195.538011 
L 435.450346 -195.538011 
L 431.243905 -195.538011 
L 427.037464 -195.538011 
L 422.831023 -195.538011 
L 418.624582 -195.538011 
L 414.418141 -195.538011 
L 410.2117 -195.538011 
L 406.005259 -195.538011 
L 401.798818 -195.538011 
L 397.592376 -195.538011 
L 393.385935 -195.538011 
L 389.179494 -195.538011 
L 384.973053 -195.538011 
L 380.766612 -195.538011 
L 376.560171 -195.538011 
L 372.35373 -195.538011 
L 368.147289 -195.538011 
L 363.940848 -195.538011 
L 359.734407 -195.538011 
L 355.527965 -195.538011 
L 351.321524 -195.538011 
L 347.115083 -195.538011 
L 342.908642 -195.538011 
L 338.702201 -195.538011 
L 334.49576 -195.538011 
L 330.289319 -195.538011 
L 326.082878 -195.538011 
L 321.876437 -195.538011 
L 317.669996 -195.538011 
L 313.463554 -195.538011 
L 309.257113 -195.538011 
L 305.050672 -195.538011 
L 300.844231 -195.538011 
L 296.63779 -195.538011 
L 292.431349 -195.538011 
L 288.224908 -195.538011 
L 284.018467 -195.538011 
L 279.812026 -195.538011 
L 275.605585 -195.538011 
L 271.399143 -195.538011 
L 267.192702 -195.538011 
L 262.986261 -195.538011 
L 258.77982 -195.538011 
L 254.573379 -195.538011 
L 250.366938 -195.538011 
L 246.160497 -195.538011 
L 241.954056 -195.538011 
L 237.747615 -195.538011 
L 233.541174 -195.538011 
L 229.334732 -195.538011 
L 225.128291 -195.538011 
L 220.92185 -195.538011 
L 216.715409 -195.538011 
L 212.508968 -195.538011 
L 208.302527 -195.538011 
L 204.096086 -195.538011 
L 199.889645 -195.538011 
L 195.683204 -195.538011 
L 191.476763 -195.538011 
L 187.270321 -195.538011 
L 183.06388 -195.538011 
L 178.857439 -195.538011 
L 174.650998 -195.538011 
L 170.444557 -195.538011 
L 166.238116 -195.538011 
L 162.031675 -195.538011 
L 157.825234 -195.538011 
L 153.618793 -195.538011 
L 149.412352 -195.538011 
L 145.20591 -195.538011 
L 140.999469 -195.538011 
L 136.793028 -195.538011 
L 132.586587 -195.538011 
L 128.380146 -195.538011 
L 124.173705 -195.538011 
L 119.967264 -195.538011 
L 115.760823 -195.538011 
L 111.554382 -195.538011 
L 107.347941 -195.538011 
L 103.141499 -195.538011 
L 98.935058 -195.538011 
z
" id="m5e6d704c5a" style="stroke:#ff6384;stroke-opacity:0.5;"/>
    </defs>
    <g clip-path="url(#pa4cecb8698)">
     <use style="fill:#ff6384;fill-opacity:0.5;stroke:#ff6384;stroke-opacity:0.5;" x="0" xlink:href="#m5e6d704c5a" y="581.789375"/>
    </g>
   </g>
   <g id="PolyCollection_2">
    <defs>
     <path d="M 58.827273 -195.538011 
L 58.827273 -195.650004 
L 63.017315 -195.692234 
L 67.207357 -195.749007 
L 71.397399 -195.8248 
L 75.58744 -195.925281 
L 79.777482 -196.057565 
L 83.967524 -196.230497 
L 88.157566 -196.454982 
L 92.347608 -196.744335 
L 96.53765 -197.114666 
L 100.727692 -197.585273 
L 104.917734 -198.179047 
L 109.107776 -198.922859 
L 113.297818 -199.847921 
L 117.48786 -200.990079 
L 121.677902 -202.390029 
L 125.867944 -204.093399 
L 130.057986 -206.150691 
L 134.248028 -208.617009 
L 138.438069 -211.551575 
L 142.628111 -215.016962 
L 146.818153 -219.078053 
L 151.008195 -223.800667 
L 155.198237 -229.249878 
L 159.388279 -235.488004 
L 163.578321 -242.572312 
L 167.768363 -250.552459 
L 171.958405 -259.467747 
L 176.148447 -269.344261 
L 180.338489 -280.192004 
L 184.528531 -292.002137 
L 188.718573 -304.744465 
L 192.908615 -318.365297 
L 197.098656 -332.785841 
L 201.288698 -347.901251 
L 205.47874 -363.580456 
L 209.668782 -379.666871 
L 213.858824 -395.980052 
L 218.048866 -412.31833 
L 222.238908 -428.4624 
L 226.42895 -444.179822 
L 230.618992 -459.230303 
L 234.809034 -473.371627 
L 238.999076 -486.366018 
L 243.189118 -497.986726 
L 247.37916 -508.02457 
L 251.569202 -516.294181 
L 255.759244 -522.639693 
L 259.949285 -526.939623 
L 264.139327 -529.110739 
L 268.329369 -529.110739 
L 272.519411 -526.939623 
L 276.709453 -522.639693 
L 280.899495 -516.294181 
L 285.089537 -508.02457 
L 289.279579 -497.986726 
L 293.469621 -486.366018 
L 297.659663 -473.371627 
L 301.849705 -459.230303 
L 306.039747 -444.179822 
L 310.229789 -428.4624 
L 314.419831 -412.31833 
L 318.609873 -395.980052 
L 322.799914 -379.666871 
L 326.989956 -363.580456 
L 331.179998 -347.901251 
L 335.37004 -332.785841 
L 339.560082 -318.365297 
L 343.750124 -304.744465 
L 347.940166 -292.002137 
L 352.130208 -280.192004 
L 356.32025 -269.344261 
L 360.510292 -259.467747 
L 364.700334 -250.552459 
L 368.890376 -242.572312 
L 373.080418 -235.488004 
L 377.27046 -229.249878 
L 381.460501 -223.800667 
L 385.650543 -219.078053 
L 389.840585 -215.016962 
L 394.030627 -211.551575 
L 398.220669 -208.617009 
L 402.410711 -206.150691 
L 406.600753 -204.093399 
L 410.790795 -202.390029 
L 414.980837 -200.990079 
L 419.170879 -199.847921 
L 423.360921 -198.922859 
L 427.550963 -198.179047 
L 431.741005 -197.585273 
L 435.931047 -197.114666 
L 440.121089 -196.744335 
L 444.31113 -196.454982 
L 448.501172 -196.230497 
L 452.691214 -196.057565 
L 456.881256 -195.925281 
L 461.071298 -195.8248 
L 465.26134 -195.749007 
L 469.451382 -195.692234 
L 473.641424 -195.650004 
L 473.641424 -195.538011 
L 473.641424 -195.538011 
L 469.451382 -195.538011 
L 465.26134 -195.538011 
L 461.071298 -195.538011 
L 456.881256 -195.538011 
L 452.691214 -195.538011 
L 448.501172 -195.538011 
L 444.31113 -195.538011 
L 440.121089 -195.538011 
L 435.931047 -195.538011 
L 431.741005 -195.538011 
L 427.550963 -195.538011 
L 423.360921 -195.538011 
L 419.170879 -195.538011 
L 414.980837 -195.538011 
L 410.790795 -195.538011 
L 406.600753 -195.538011 
L 402.410711 -195.538011 
L 398.220669 -195.538011 
L 394.030627 -195.538011 
L 389.840585 -195.538011 
L 385.650543 -195.538011 
L 381.460501 -195.538011 
L 377.27046 -195.538011 
L 373.080418 -195.538011 
L 368.890376 -195.538011 
L 364.700334 -195.538011 
L 360.510292 -195.538011 
L 356.32025 -195.538011 
L 352.130208 -195.538011 
L 347.940166 -195.538011 
L 343.750124 -195.538011 
L 339.560082 -195.538011 
L 335.37004 -195.538011 
L 331.179998 -195.538011 
L 326.989956 -195.538011 
L 322.799914 -195.538011 
L 318.609873 -195.538011 
L 314.419831 -195.538011 
L 310.229789 -195.538011 
L 306.039747 -195.538011 
L 301.849705 -195.538011 
L 297.659663 -195.538011 
L 293.469621 -195.538011 
L 289.279579 -195.538011 
L 285.089537 -195.538011 
L 280.899495 -195.538011 
L 276.709453 -195.538011 
L 272.519411 -195.538011 
L 268.329369 -195.538011 
L 264.139327 -195.538011 
L 259.949285 -195.538011 
L 255.759244 -195.538011 
L 251.569202 -195.538011 
L 247.37916 -195.538011 
L 243.189118 -195.538011 
L 238.999076 -195.538011 
L 234.809034 -195.538011 
L 230.618992 -195.538011 
L 226.42895 -195.538011 
L 222.238908 -195.538011 
L 218.048866 -195.538011 
L 213.858824 -195.538011 
L 209.668782 -195.538011 
L 205.47874 -195.538011 
L 201.288698 -195.538011 
L 197.098656 -195.538011 
L 192.908615 -195.538011 
L 188.718573 -195.538011 
L 184.528531 -195.538011 
L 180.338489 -195.538011 
L 176.148447 -195.538011 
L 171.958405 -195.538011 
L 167.768363 -195.538011 
L 163.578321 -195.538011 
L 159.388279 -195.538011 
L 155.198237 -195.538011 
L 151.008195 -195.538011 
L 146.818153 -195.538011 
L 142.628111 -195.538011 
L 138.438069 -195.538011 
L 134.248028 -195.538011 
L 130.057986 -195.538011 
L 125.867944 -195.538011 
L 121.677902 -195.538011 
L 117.48786 -195.538011 
L 113.297818 -195.538011 
L 109.107776 -195.538011 
L 104.917734 -195.538011 
L 100.727692 -195.538011 
L 96.53765 -195.538011 
L 92.347608 -195.538011 
L 88.157566 -195.538011 
L 83.967524 -195.538011 
L 79.777482 -195.538011 
L 75.58744 -195.538011 
L 71.397399 -195.538011 
L 67.207357 -195.538011 
L 63.017315 -195.538011 
L 58.827273 -195.538011 
z
" id="m72ed91ac70" style="stroke:#36a2eb;stroke-opacity:0.5;"/>
    </defs>
    <g clip-path="url(#pa4cecb8698)">
     <use style="fill:#36a2eb;fill-opacity:0.5;stroke:#36a2eb;stroke-opacity:0.5;" x="0" xlink:href="#m72ed91ac70" y="581.789375"/>
    </g>
   </g>
   <g id="line2d_1">
    <path clip-path="url(#pa4cecb8698)" d="M 98.935058 386.139808 
L 103.141499 386.097742 
L 107.347941 386.041191 
L 111.554382 385.965693 
L 115.760823 385.865603 
L 119.967264 385.733836 
L 124.173705 385.561578 
L 128.380146 385.337968 
L 132.586587 385.049743 
L 136.793028 384.680856 
L 140.999469 384.212083 
L 145.20591 383.620625 
L 149.412352 382.879712 
L 153.618793 381.958257 
L 157.825234 380.820551 
L 162.031675 379.42606 
L 166.238116 377.72933 
L 170.444557 375.680059 
L 174.650998 373.223355 
L 178.857439 370.300231 
L 183.06388 366.848353 
L 187.270321 362.803095 
L 191.476763 358.098892 
L 195.683204 352.670926 
L 199.889645 346.457119 
L 204.096086 339.40043 
L 208.302527 331.451394 
L 212.508968 322.570864 
L 216.715409 312.732854 
L 220.92185 301.927402 
L 225.128291 290.163311 
L 229.334732 277.470661 
L 233.541174 263.90293 
L 237.747615 249.538606 
L 241.954056 234.482125 
L 246.160497 218.864047 
L 250.366938 202.840346 
L 254.573379 186.590763 
L 258.77982 170.316182 
L 262.986261 154.235051 
L 267.192702 138.578905 
L 271.399143 123.587099 
L 275.605585 109.500906 
L 279.812026 96.557175 
L 284.018467 84.981771 
L 288.224908 74.983061 
L 292.431349 66.745689 
L 296.63779 60.424915 
L 300.844231 56.141749 
L 305.050672 53.979098 
L 309.257113 53.979098 
L 313.463554 56.141749 
L 317.669996 60.424915 
L 321.876437 66.745689 
L 326.082878 74.983061 
L 330.289319 84.981771 
L 334.49576 96.557175 
L 338.702201 109.500906 
L 342.908642 123.587099 
L 347.115083 138.578905 
L 351.321524 154.235051 
L 355.527965 170.316182 
L 359.734407 186.590763 
L 363.940848 202.840346 
L 368.147289 218.864047 
L 372.35373 234.482125 
L 376.560171 249.538606 
L 380.766612 263.90293 
L 384.973053 277.470661 
L 389.179494 290.163311 
L 393.385935 301.927402 
L 397.592376 312.732854 
L 401.798818 322.570864 
L 406.005259 331.451394 
L 410.2117 339.40043 
L 414.418141 346.457119 
L 418.624582 352.670926 
L 422.831023 358.098892 
L 427.037464 362.803095 
L 431.243905 366.848353 
L 435.450346 370.300231 
L 439.656787 373.223355 
L 443.863229 375.680059 
L 448.06967 377.72933 
L 452.276111 379.42606 
L 456.482552 380.820551 
L 460.688993 381.958257 
L 464.895434 382.879712 
L 469.101875 383.620625 
L 473.308316 384.212083 
L 477.514757 384.680856 
L 481.721198 385.049743 
L 485.92764 385.337968 
L 490.134081 385.561578 
L 494.340522 385.733836 
L 498.546963 385.865603 
L 502.753404 385.965693 
L 506.959845 386.041191 
L 511.166286 386.097742 
L 515.372727 386.139808 
" style="fill:none;stroke:#ff6384;stroke-linecap:square;"/>
   </g>
   <g id="line2d_2">
    <path clip-path="url(#pa4cecb8698)" d="M 58.827273 386.139371 
L 63.017315 386.097141 
L 67.207357 386.040368 
L 71.397399 385.964575 
L 75.58744 385.864094 
L 79.777482 385.73181 
L 83.967524 385.558878 
L 88.157566 385.334393 
L 92.347608 385.04504 
L 96.53765 384.674709 
L 100.727692 384.204102 
L 104.917734 383.610328 
L 109.107776 382.866516 
L 113.297818 381.941454 
L 117.48786 380.799296 
L 121.677902 379.399346 
L 125.867944 377.695976 
L 130.057986 375.638684 
L 134.248028 373.172366 
L 138.438069 370.2378 
L 142.628111 366.772413 
L 146.818153 362.711322 
L 151.008195 357.988708 
L 155.198237 352.539497 
L 159.388279 346.301371 
L 163.578321 339.217063 
L 167.768363 331.236916 
L 171.958405 322.321628 
L 176.148447 312.445114 
L 180.338489 301.597371 
L 184.528531 289.787238 
L 188.718573 277.04491 
L 192.908615 263.424078 
L 197.098656 249.003534 
L 201.288698 233.888124 
L 205.47874 218.208919 
L 209.668782 202.122504 
L 213.858824 185.809323 
L 218.048866 169.471045 
L 222.238908 153.326975 
L 226.42895 137.609553 
L 230.618992 122.559072 
L 234.809034 108.417748 
L 238.999076 95.423357 
L 243.189118 83.802649 
L 247.37916 73.764805 
L 251.569202 65.495194 
L 255.759244 59.149682 
L 259.949285 54.849752 
L 264.139327 52.678636 
L 268.329369 52.678636 
L 272.519411 54.849752 
L 276.709453 59.149682 
L 280.899495 65.495194 
L 285.089537 73.764805 
L 289.279579 83.802649 
L 293.469621 95.423357 
L 297.659663 108.417748 
L 301.849705 122.559072 
L 306.039747 137.609553 
L 310.229789 153.326975 
L 314.419831 169.471045 
L 318.609873 185.809323 
L 322.799914 202.122504 
L 326.989956 218.208919 
L 331.179998 233.888124 
L 335.37004 249.003534 
L 339.560082 263.424078 
L 343.750124 277.04491 
L 347.940166 289.787238 
L 352.130208 301.597371 
L 356.32025 312.445114 
L 360.510292 322.321628 
L 364.700334 331.236916 
L 368.890376 339.217063 
L 373.080418 346.301371 
L 377.27046 352.539497 
L 381.460501 357.988708 
L 385.650543 362.711322 
L 389.840585 366.772413 
L 394.030627 370.2378 
L 398.220669 373.172366 
L 402.410711 375.638684 
L 406.600753 377.695976 
L 410.790795 379.399346 
L 414.980837 380.799296 
L 419.170879 381.941454 
L 423.360921 382.866516 
L 427.550963 383.610328 
L 431.741005 384.204102 
L 435.931047 384.674709 
L 440.121089 385.04504 
L 444.31113 385.334393 
L 448.501172 385.558878 
L 452.691214 385.73181 
L 456.881256 385.864094 
L 461.071298 385.964575 
L 465.26134 386.040368 
L 469.451382 386.097141 
L 473.641424 386.139371 
" style="fill:none;stroke:#36a2eb;stroke-linecap:square;"/>
   </g>
   <g id="patch_3">
    <path d="M 36 402.93 
L 538.2 402.93 
" style="fill:none;stroke:#000000;stroke-linecap:square;stroke-linejoin:miter;stroke-width:0.8;"/>
   </g>
   <g id="legend_1">
    <g id="patch_4">
     <path d="M 410.290313 88.688125 
L 528.4 88.688125 
Q 531.2 88.688125 531.2 85.888125 
L 531.2 45.8 
Q 531.2 43 528.4 43 
L 410.290313 43 
Q 407.490313 43 407.490313 45.8 
L 407.490313 85.888125 
Q 407.490313 88.688125 410.290313 88.688125 
z
" style="fill:#ffffff;opacity:0.8;stroke:#cccccc;stroke-linejoin:miter;"/>
    </g>
    <g id="patch_5">
     <path d="M 413.090313 59.237813 
L 441.090313 59.237813 
L 441.090313 49.437813 
L 413.090313 49.437813 
z
" style="fill:#ff6384;opacity:0.5;stroke:#ff6384;stroke-linejoin:miter;"/>
    </g>
    <g id="text_1">
     <!-- base -->
     <defs>
      <path d="M 48.6875 27.296875 
Q 48.6875 37.203125 44.609375 42.84375 
Q 40.53125 48.484375 33.40625 48.484375 
Q 26.265625 48.484375 22.1875 42.84375 
Q 18.109375 37.203125 18.109375 27.296875 
Q 18.109375 17.390625 22.1875 11.75 
Q 26.265625 6.109375 33.40625 6.109375 
Q 40.53125 6.109375 44.609375 11.75 
Q 48.6875 17.390625 48.6875 27.296875 
z
M 18.109375 46.390625 
Q 20.953125 51.265625 25.265625 53.625 
Q 29.59375 56 35.59375 56 
Q 45.5625 56 51.78125 48.09375 
Q 58.015625 40.1875 58.015625 27.296875 
Q 58.015625 14.40625 51.78125 6.484375 
Q 45.5625 -1.421875 35.59375 -1.421875 
Q 29.59375 -1.421875 25.265625 0.953125 
Q 20.953125 3.328125 18.109375 8.203125 
L 18.109375 0 
L 9.078125 0 
L 9.078125 75.984375 
L 18.109375 75.984375 
z
" id="DejaVuSans-98"/>
      <path d="M 34.28125 27.484375 
Q 23.390625 27.484375 19.1875 25 
Q 14.984375 22.515625 14.984375 16.5 
Q 14.984375 11.71875 18.140625 8.90625 
Q 21.296875 6.109375 26.703125 6.109375 
Q 34.1875 6.109375 38.703125 11.40625 
Q 43.21875 16.703125 43.21875 25.484375 
L 43.21875 27.484375 
z
M 52.203125 31.203125 
L 52.203125 0 
L 43.21875 0 
L 43.21875 8.296875 
Q 40.140625 3.328125 35.546875 0.953125 
Q 30.953125 -1.421875 24.3125 -1.421875 
Q 15.921875 -1.421875 10.953125 3.296875 
Q 6 8.015625 6 15.921875 
Q 6 25.140625 12.171875 29.828125 
Q 18.359375 34.515625 30.609375 34.515625 
L 43.21875 34.515625 
L 43.21875 35.40625 
Q 43.21875 41.609375 39.140625 45 
Q 35.0625 48.390625 27.6875 48.390625 
Q 23 48.390625 18.546875 47.265625 
Q 14.109375 46.140625 10.015625 43.890625 
L 10.015625 52.203125 
Q 14.9375 54.109375 19.578125 55.046875 
Q 24.21875 56 28.609375 56 
Q 40.484375 56 46.34375 49.84375 
Q 52.203125 43.703125 52.203125 31.203125 
z
" id="DejaVuSans-97"/>
      <path d="M 44.28125 53.078125 
L 44.28125 44.578125 
Q 40.484375 46.53125 36.375 47.5 
Q 32.28125 48.484375 27.875 48.484375 
Q 21.1875 48.484375 17.84375 46.4375 
Q 14.5 44.390625 14.5 40.28125 
Q 14.5 37.15625 16.890625 35.375 
Q 19.28125 33.59375 26.515625 31.984375 
L 29.59375 31.296875 
Q 39.15625 29.25 43.1875 25.515625 
Q 47.21875 21.78125 47.21875 15.09375 
Q 47.21875 7.46875 41.1875 3.015625 
Q 35.15625 -1.421875 24.609375 -1.421875 
Q 20.21875 -1.421875 15.453125 -0.5625 
Q 10.6875 0.296875 5.421875 2 
L 5.421875 11.28125 
Q 10.40625 8.6875 15.234375 7.390625 
Q 20.0625 6.109375 24.8125 6.109375 
Q 31.15625 6.109375 34.5625 8.28125 
Q 37.984375 10.453125 37.984375 14.40625 
Q 37.984375 18.0625 35.515625 20.015625 
Q 33.0625 21.96875 24.703125 23.78125 
L 21.578125 24.515625 
Q 13.234375 26.265625 9.515625 29.90625 
Q 5.8125 33.546875 5.8125 39.890625 
Q 5.8125 47.609375 11.28125 51.796875 
Q 16.75 56 26.8125 56 
Q 31.78125 56 36.171875 55.265625 
Q 40.578125 54.546875 44.28125 53.078125 
z
" id="DejaVuSans-115"/>
      <path d="M 56.203125 29.59375 
L 56.203125 25.203125 
L 14.890625 25.203125 
Q 15.484375 15.921875 20.484375 11.0625 
Q 25.484375 6.203125 34.421875 6.203125 
Q 39.59375 6.203125 44.453125 7.46875 
Q 49.3125 8.734375 54.109375 11.28125 
L 54.109375 2.78125 
Q 49.265625 0.734375 44.1875 -0.34375 
Q 39.109375 -1.421875 33.890625 -1.421875 
Q 20.796875 -1.421875 13.15625 6.1875 
Q 5.515625 13.8125 5.515625 26.8125 
Q 5.515625 40.234375 12.765625 48.109375 
Q 20.015625 56 32.328125 56 
Q 43.359375 56 49.78125 48.890625 
Q 56.203125 41.796875 56.203125 29.59375 
z
M 47.21875 32.234375 
Q 47.125 39.59375 43.09375 43.984375 
Q 39.0625 48.390625 32.421875 48.390625 
Q 24.90625 48.390625 20.390625 44.140625 
Q 15.875 39.890625 15.1875 32.171875 
z
" id="DejaVuSans-101"/>
     </defs>
     <g transform="translate(452.290313 59.237813)scale(0.14 -0.14)">
      <use xlink:href="#DejaVuSans-98"/>
      <use x="63.476562" xlink:href="#DejaVuSans-97"/>
      <use x="124.755859" xlink:href="#DejaVuSans-115"/>
      <use x="176.855469" xlink:href="#DejaVuSans-101"/>
     </g>
    </g>
    <g id="patch_6">
     <path d="M 413.090313 79.787188 
L 441.090313 79.787188 
L 441.090313 69.987188 
L 413.090313 69.987188 
z
" style="fill:#36a2eb;opacity:0.5;stroke:#36a2eb;stroke-linejoin:miter;"/>
    </g>
    <g id="text_2">
     <!-- no_license -->
     <defs>
      <path d="M 54.890625 33.015625 
L 54.890625 0 
L 45.90625 0 
L 45.90625 32.71875 
Q 45.90625 40.484375 42.875 44.328125 
Q 39.84375 48.1875 33.796875 48.1875 
Q 26.515625 48.1875 22.3125 43.546875 
Q 18.109375 38.921875 18.109375 30.90625 
L 18.109375 0 
L 9.078125 0 
L 9.078125 54.6875 
L 18.109375 54.6875 
L 18.109375 46.1875 
Q 21.34375 51.125 25.703125 53.5625 
Q 30.078125 56 35.796875 56 
Q 45.21875 56 50.046875 50.171875 
Q 54.890625 44.34375 54.890625 33.015625 
z
" id="DejaVuSans-110"/>
      <path d="M 30.609375 48.390625 
Q 23.390625 48.390625 19.1875 42.75 
Q 14.984375 37.109375 14.984375 27.296875 
Q 14.984375 17.484375 19.15625 11.84375 
Q 23.34375 6.203125 30.609375 6.203125 
Q 37.796875 6.203125 41.984375 11.859375 
Q 46.1875 17.53125 46.1875 27.296875 
Q 46.1875 37.015625 41.984375 42.703125 
Q 37.796875 48.390625 30.609375 48.390625 
z
M 30.609375 56 
Q 42.328125 56 49.015625 48.375 
Q 55.71875 40.765625 55.71875 27.296875 
Q 55.71875 13.875 49.015625 6.21875 
Q 42.328125 -1.421875 30.609375 -1.421875 
Q 18.84375 -1.421875 12.171875 6.21875 
Q 5.515625 13.875 5.515625 27.296875 
Q 5.515625 40.765625 12.171875 48.375 
Q 18.84375 56 30.609375 56 
z
" id="DejaVuSans-111"/>
      <path d="M 50.984375 -16.609375 
L 50.984375 -23.578125 
L -0.984375 -23.578125 
L -0.984375 -16.609375 
z
" id="DejaVuSans-95"/>
      <path d="M 9.421875 75.984375 
L 18.40625 75.984375 
L 18.40625 0 
L 9.421875 0 
z
" id="DejaVuSans-108"/>
      <path d="M 9.421875 54.6875 
L 18.40625 54.6875 
L 18.40625 0 
L 9.421875 0 
z
M 9.421875 75.984375 
L 18.40625 75.984375 
L 18.40625 64.59375 
L 9.421875 64.59375 
z
" id="DejaVuSans-105"/>
      <path d="M 48.78125 52.59375 
L 48.78125 44.1875 
Q 44.96875 46.296875 41.140625 47.34375 
Q 37.3125 48.390625 33.40625 48.390625 
Q 24.65625 48.390625 19.8125 42.84375 
Q 14.984375 37.3125 14.984375 27.296875 
Q 14.984375 17.28125 19.8125 11.734375 
Q 24.65625 6.203125 33.40625 6.203125 
Q 37.3125 6.203125 41.140625 7.25 
Q 44.96875 8.296875 48.78125 10.40625 
L 48.78125 2.09375 
Q 45.015625 0.34375 40.984375 -0.53125 
Q 36.96875 -1.421875 32.421875 -1.421875 
Q 20.0625 -1.421875 12.78125 6.34375 
Q 5.515625 14.109375 5.515625 27.296875 
Q 5.515625 40.671875 12.859375 48.328125 
Q 20.21875 56 33.015625 56 
Q 37.15625 56 41.109375 55.140625 
Q 45.0625 54.296875 48.78125 52.59375 
z
" id="DejaVuSans-99"/>
     </defs>
     <g transform="translate(452.290313 79.787188)scale(0.14 -0.14)">
      <use xlink:href="#DejaVuSans-110"/>
      <use x="63.378906" xlink:href="#DejaVuSans-111"/>
      <use x="124.560547" xlink:href="#DejaVuSans-95"/>
      <use x="174.560547" xlink:href="#DejaVuSans-108"/>
      <use x="202.34375" xlink:href="#DejaVuSans-105"/>
      <use x="230.126953" xlink:href="#DejaVuSans-99"/>
      <use x="285.107422" xlink:href="#DejaVuSans-101"/>
      <use x="346.630859" xlink:href="#DejaVuSans-110"/>
      <use x="410.009766" xlink:href="#DejaVuSans-115"/>
      <use x="462.109375" xlink:href="#DejaVuSans-101"/>
     </g>
    </g>
   </g>
  </g>
  <g id="axes_2">
   <g id="patch_7">
    <path d="M 36 525.24 
L 538.2 525.24 
L 538.2 402.93 
L 36 402.93 
z
" style="fill:none;"/>
   </g>
   <g id="patch_8">
    <path clip-path="url(#p97f4ff4839)" d="M 205.126664 519.680455 
L 409.181122 519.680455 
L 409.181122 482.616818 
L 205.126664 482.616818 
z
" style="fill:#ff6384;opacity:0.5;"/>
   </g>
   <g id="patch_9">
    <path clip-path="url(#p97f4ff4839)" d="M 164.604881 445.553182 
L 367.863815 445.553182 
L 367.863815 408.489545 
L 164.604881 408.489545 
z
" style="fill:#36a2eb;opacity:0.5;"/>
   </g>
   <g id="matplotlib.axis_1">
    <g id="xtick_1">
     <g id="line2d_3">
      <defs>
       <path d="M 0 0 
L 0 3.5 
" id="m298b05b102" style="stroke:#000000;stroke-width:0.8;"/>
      </defs>
      <g>
       <use style="stroke:#000000;stroke-width:0.8;" x="116.789056" xlink:href="#m298b05b102" y="525.24"/>
      </g>
     </g>
     <g id="text_3">
      <!-- 6.5 -->
      <defs>
       <path d="M 33.015625 40.375 
Q 26.375 40.375 22.484375 35.828125 
Q 18.609375 31.296875 18.609375 23.390625 
Q 18.609375 15.53125 22.484375 10.953125 
Q 26.375 6.390625 33.015625 6.390625 
Q 39.65625 6.390625 43.53125 10.953125 
Q 47.40625 15.53125 47.40625 23.390625 
Q 47.40625 31.296875 43.53125 35.828125 
Q 39.65625 40.375 33.015625 40.375 
z
M 52.59375 71.296875 
L 52.59375 62.3125 
Q 48.875 64.0625 45.09375 64.984375 
Q 41.3125 65.921875 37.59375 65.921875 
Q 27.828125 65.921875 22.671875 59.328125 
Q 17.53125 52.734375 16.796875 39.40625 
Q 19.671875 43.65625 24.015625 45.921875 
Q 28.375 48.1875 33.59375 48.1875 
Q 44.578125 48.1875 50.953125 41.515625 
Q 57.328125 34.859375 57.328125 23.390625 
Q 57.328125 12.15625 50.6875 5.359375 
Q 44.046875 -1.421875 33.015625 -1.421875 
Q 20.359375 -1.421875 13.671875 8.265625 
Q 6.984375 17.96875 6.984375 36.375 
Q 6.984375 53.65625 15.1875 63.9375 
Q 23.390625 74.21875 37.203125 74.21875 
Q 40.921875 74.21875 44.703125 73.484375 
Q 48.484375 72.75 52.59375 71.296875 
z
" id="DejaVuSans-54"/>
       <path d="M 10.6875 12.40625 
L 21 12.40625 
L 21 0 
L 10.6875 0 
z
" id="DejaVuSans-46"/>
       <path d="M 10.796875 72.90625 
L 49.515625 72.90625 
L 49.515625 64.59375 
L 19.828125 64.59375 
L 19.828125 46.734375 
Q 21.96875 47.46875 24.109375 47.828125 
Q 26.265625 48.1875 28.421875 48.1875 
Q 40.625 48.1875 47.75 41.5 
Q 54.890625 34.8125 54.890625 23.390625 
Q 54.890625 11.625 47.5625 5.09375 
Q 40.234375 -1.421875 26.90625 -1.421875 
Q 22.3125 -1.421875 17.546875 -0.640625 
Q 12.796875 0.140625 7.71875 1.703125 
L 7.71875 11.625 
Q 12.109375 9.234375 16.796875 8.0625 
Q 21.484375 6.890625 26.703125 6.890625 
Q 35.15625 6.890625 40.078125 11.328125 
Q 45.015625 15.765625 45.015625 23.390625 
Q 45.015625 31 40.078125 35.4375 
Q 35.15625 39.890625 26.703125 39.890625 
Q 22.75 39.890625 18.8125 39.015625 
Q 14.890625 38.140625 10.796875 36.28125 
z
" id="DejaVuSans-53"/>
      </defs>
      <g transform="translate(105.656868 542.877813)scale(0.14 -0.14)">
       <use xlink:href="#DejaVuSans-54"/>
       <use x="63.623047" xlink:href="#DejaVuSans-46"/>
       <use x="95.410156" xlink:href="#DejaVuSans-53"/>
      </g>
     </g>
    </g>
    <g id="xtick_2">
     <g id="line2d_4">
      <g>
       <use style="stroke:#000000;stroke-width:0.8;" x="205.744587" xlink:href="#m298b05b102" y="525.24"/>
      </g>
     </g>
     <g id="text_4">
      <!-- 7.0 -->
      <defs>
       <path d="M 8.203125 72.90625 
L 55.078125 72.90625 
L 55.078125 68.703125 
L 28.609375 0 
L 18.3125 0 
L 43.21875 64.59375 
L 8.203125 64.59375 
z
" id="DejaVuSans-55"/>
       <path d="M 31.78125 66.40625 
Q 24.171875 66.40625 20.328125 58.90625 
Q 16.5 51.421875 16.5 36.375 
Q 16.5 21.390625 20.328125 13.890625 
Q 24.171875 6.390625 31.78125 6.390625 
Q 39.453125 6.390625 43.28125 13.890625 
Q 47.125 21.390625 47.125 36.375 
Q 47.125 51.421875 43.28125 58.90625 
Q 39.453125 66.40625 31.78125 66.40625 
z
M 31.78125 74.21875 
Q 44.046875 74.21875 50.515625 64.515625 
Q 56.984375 54.828125 56.984375 36.375 
Q 56.984375 17.96875 50.515625 8.265625 
Q 44.046875 -1.421875 31.78125 -1.421875 
Q 19.53125 -1.421875 13.0625 8.265625 
Q 6.59375 17.96875 6.59375 36.375 
Q 6.59375 54.828125 13.0625 64.515625 
Q 19.53125 74.21875 31.78125 74.21875 
z
" id="DejaVuSans-48"/>
      </defs>
      <g transform="translate(194.6124 542.877813)scale(0.14 -0.14)">
       <use xlink:href="#DejaVuSans-55"/>
       <use x="63.623047" xlink:href="#DejaVuSans-46"/>
       <use x="95.410156" xlink:href="#DejaVuSans-48"/>
      </g>
     </g>
    </g>
    <g id="xtick_3">
     <g id="line2d_5">
      <g>
       <use style="stroke:#000000;stroke-width:0.8;" x="294.700118" xlink:href="#m298b05b102" y="525.24"/>
      </g>
     </g>
     <g id="text_5">
      <!-- 7.5 -->
      <g transform="translate(283.567931 542.877813)scale(0.14 -0.14)">
       <use xlink:href="#DejaVuSans-55"/>
       <use x="63.623047" xlink:href="#DejaVuSans-46"/>
       <use x="95.410156" xlink:href="#DejaVuSans-53"/>
      </g>
     </g>
    </g>
    <g id="xtick_4">
     <g id="line2d_6">
      <g>
       <use style="stroke:#000000;stroke-width:0.8;" x="383.65565" xlink:href="#m298b05b102" y="525.24"/>
      </g>
     </g>
     <g id="text_6">
      <!-- 8.0 -->
      <defs>
       <path d="M 31.78125 34.625 
Q 24.75 34.625 20.71875 30.859375 
Q 16.703125 27.09375 16.703125 20.515625 
Q 16.703125 13.921875 20.71875 10.15625 
Q 24.75 6.390625 31.78125 6.390625 
Q 38.8125 6.390625 42.859375 10.171875 
Q 46.921875 13.96875 46.921875 20.515625 
Q 46.921875 27.09375 42.890625 30.859375 
Q 38.875 34.625 31.78125 34.625 
z
M 21.921875 38.8125 
Q 15.578125 40.375 12.03125 44.71875 
Q 8.5 49.078125 8.5 55.328125 
Q 8.5 64.0625 14.71875 69.140625 
Q 20.953125 74.21875 31.78125 74.21875 
Q 42.671875 74.21875 48.875 69.140625 
Q 55.078125 64.0625 55.078125 55.328125 
Q 55.078125 49.078125 51.53125 44.71875 
Q 48 40.375 41.703125 38.8125 
Q 48.828125 37.15625 52.796875 32.3125 
Q 56.78125 27.484375 56.78125 20.515625 
Q 56.78125 9.90625 50.3125 4.234375 
Q 43.84375 -1.421875 31.78125 -1.421875 
Q 19.734375 -1.421875 13.25 4.234375 
Q 6.78125 9.90625 6.78125 20.515625 
Q 6.78125 27.484375 10.78125 32.3125 
Q 14.796875 37.15625 21.921875 38.8125 
z
M 18.3125 54.390625 
Q 18.3125 48.734375 21.84375 45.5625 
Q 25.390625 42.390625 31.78125 42.390625 
Q 38.140625 42.390625 41.71875 45.5625 
Q 45.3125 48.734375 45.3125 54.390625 
Q 45.3125 60.0625 41.71875 63.234375 
Q 38.140625 66.40625 31.78125 66.40625 
Q 25.390625 66.40625 21.84375 63.234375 
Q 18.3125 60.0625 18.3125 54.390625 
z
" id="DejaVuSans-56"/>
      </defs>
      <g transform="translate(372.523462 542.877813)scale(0.14 -0.14)">
       <use xlink:href="#DejaVuSans-56"/>
       <use x="63.623047" xlink:href="#DejaVuSans-46"/>
       <use x="95.410156" xlink:href="#DejaVuSans-48"/>
      </g>
     </g>
    </g>
    <g id="xtick_5">
     <g id="line2d_7">
      <g>
       <use style="stroke:#000000;stroke-width:0.8;" x="472.611181" xlink:href="#m298b05b102" y="525.24"/>
      </g>
     </g>
     <g id="text_7">
      <!-- 8.5 -->
      <g transform="translate(461.478994 542.877813)scale(0.14 -0.14)">
       <use xlink:href="#DejaVuSans-56"/>
       <use x="63.623047" xlink:href="#DejaVuSans-46"/>
       <use x="95.410156" xlink:href="#DejaVuSans-53"/>
      </g>
     </g>
    </g>
   </g>
   <g id="line2d_8">
    <path clip-path="url(#p97f4ff4839)" d="M 307.153893 525.24 
L 307.153893 402.93 
" style="fill:none;stroke:#ff6384;stroke-dasharray:5.55,2.4;stroke-dashoffset:0;stroke-opacity:0.8;stroke-width:1.5;"/>
   </g>
   <g id="line2d_9">
    <path clip-path="url(#p97f4ff4839)" d="M 266.234348 525.24 
L 266.234348 402.93 
" style="fill:none;stroke:#36a2eb;stroke-dasharray:5.55,2.4;stroke-dashoffset:0;stroke-opacity:0.8;stroke-width:1.5;"/>
   </g>
   <g id="patch_10">
    <path d="M 36 525.24 
L 538.2 525.24 
" style="fill:none;stroke:#000000;stroke-linecap:square;stroke-linejoin:miter;stroke-width:0.8;"/>
   </g>
  </g>
 </g>
 <defs>
  <clipPath id="pa4cecb8698">
   <rect height="366.93" width="502.2" x="36" y="36"/>
  </clipPath>
  <clipPath id="p97f4ff4839">
   <rect height="122.31" width="502.2" x="36" y="402.93"/>
  </clipPath>
 </defs>
</svg>
