<?xml version="1.0" encoding="utf-8" standalone="no"?>
<!DOCTYPE svg PUBLIC "-//W3C//DTD SVG 1.1//EN"
  "http://www.w3.org/Graphics/SVG/1.1/DTD/svg11.dtd">
<!-- Created with matplotlib (https://matplotlib.org/) -->
<svg height="581.789375pt" version="1.1" viewBox="0 0 574.2 581.789375" width="574.2pt" xmlns="http://www.w3.org/2000/svg" xmlns:xlink="http://www.w3.org/1999/xlink">
 <defs>
  <style type="text/css">
*{stroke-linecap:butt;stroke-linejoin:round;}
  </style>
 </defs>
 <g id="figure_1">
  <g id="patch_1">
   <path d="M 0 581.789375 
L 574.2 581.789375 
L 574.2 0 
L 0 0 
z
" style="fill:none;"/>
  </g>
  <g id="axes_1">
   <g id="patch_2">
    <path d="M 36 402.93 
L 538.2 402.93 
L 538.2 36 
L 36 36 
z
" style="fill:none;"/>
   </g>
   <g id="PolyCollection_1">
    <defs>
     <path d="M 102.038027 -195.538011 
L 102.038027 -195.649516 
L 106.213125 -195.691562 
L 110.388223 -195.748087 
L 114.563321 -195.82355 
L 118.738419 -195.923593 
L 122.913517 -196.0553 
L 127.088615 -196.227478 
L 131.263713 -196.450984 
L 135.438811 -196.739076 
L 139.613909 -197.107793 
L 143.789007 -197.576349 
L 147.964105 -198.167534 
L 152.139203 -198.908104 
L 156.314301 -199.829133 
L 160.489399 -200.966313 
L 164.664497 -202.360159 
L 168.839595 -204.056105 
L 173.014693 -206.104428 
L 177.189791 -208.559996 
L 181.364889 -211.481768 
L 185.539987 -214.93205 
L 189.715085 -218.975438 
L 193.890182 -223.677465 
L 198.06528 -229.102922 
L 202.240378 -235.313855 
L 206.415476 -242.367281 
L 210.590574 -250.312641 
L 214.765672 -259.189065 
L 218.94077 -269.022526 
L 223.115868 -279.822982 
L 227.290966 -291.581633 
L 231.466064 -304.268414 
L 235.641162 -317.829871 
L 239.81626 -332.187553 
L 243.991358 -347.237072 
L 248.166456 -362.847928 
L 252.341554 -378.86422 
L 256.516652 -395.106289 
L 260.69175 -411.373345 
L 264.866848 -427.44704 
L 269.041946 -443.095947 
L 273.217044 -458.08082 
L 277.392142 -472.1605 
L 281.56724 -485.098246 
L 285.742338 -496.668297 
L 289.917436 -506.662384 
L 294.092534 -514.895947 
L 298.267632 -521.213798 
L 302.44273 -525.494983 
L 306.617828 -527.656635 
L 310.792926 -527.656635 
L 314.968024 -525.494983 
L 319.143122 -521.213798 
L 323.31822 -514.895947 
L 327.493318 -506.662384 
L 331.668416 -496.668297 
L 335.843514 -485.098246 
L 340.018612 -472.1605 
L 344.19371 -458.08082 
L 348.368808 -443.095947 
L 352.543906 -427.44704 
L 356.719004 -411.373345 
L 360.894102 -395.106289 
L 365.0692 -378.86422 
L 369.244298 -362.847928 
L 373.419396 -347.237072 
L 377.594494 -332.187553 
L 381.769592 -317.829871 
L 385.94469 -304.268414 
L 390.119788 -291.581633 
L 394.294886 -279.822982 
L 398.469984 -269.022526 
L 402.645082 -259.189065 
L 406.82018 -250.312641 
L 410.995278 -242.367281 
L 415.170376 -235.313855 
L 419.345474 -229.102922 
L 423.520572 -223.677465 
L 427.69567 -218.975438 
L 431.870768 -214.93205 
L 436.045866 -211.481768 
L 440.220964 -208.559996 
L 444.396062 -206.104428 
L 448.57116 -204.056105 
L 452.746258 -202.360159 
L 456.921355 -200.966313 
L 461.096453 -199.829133 
L 465.271551 -198.908104 
L 469.446649 -198.167534 
L 473.621747 -197.576349 
L 477.796845 -197.107793 
L 481.971943 -196.739076 
L 486.147041 -196.450984 
L 490.322139 -196.227478 
L 494.497237 -196.0553 
L 498.672335 -195.923593 
L 502.847433 -195.82355 
L 507.022531 -195.748087 
L 511.197629 -195.691562 
L 515.372727 -195.649516 
L 515.372727 -195.538011 
L 515.372727 -195.538011 
L 511.197629 -195.538011 
L 507.022531 -195.538011 
L 502.847433 -195.538011 
L 498.672335 -195.538011 
L 494.497237 -195.538011 
L 490.322139 -195.538011 
L 486.147041 -195.538011 
L 481.971943 -195.538011 
L 477.796845 -195.538011 
L 473.621747 -195.538011 
L 469.446649 -195.538011 
L 465.271551 -195.538011 
L 461.096453 -195.538011 
L 456.921355 -195.538011 
L 452.746258 -195.538011 
L 448.57116 -195.538011 
L 444.396062 -195.538011 
L 440.220964 -195.538011 
L 436.045866 -195.538011 
L 431.870768 -195.538011 
L 427.69567 -195.538011 
L 423.520572 -195.538011 
L 419.345474 -195.538011 
L 415.170376 -195.538011 
L 410.995278 -195.538011 
L 406.82018 -195.538011 
L 402.645082 -195.538011 
L 398.469984 -195.538011 
L 394.294886 -195.538011 
L 390.119788 -195.538011 
L 385.94469 -195.538011 
L 381.769592 -195.538011 
L 377.594494 -195.538011 
L 373.419396 -195.538011 
L 369.244298 -195.538011 
L 365.0692 -195.538011 
L 360.894102 -195.538011 
L 356.719004 -195.538011 
L 352.543906 -195.538011 
L 348.368808 -195.538011 
L 344.19371 -195.538011 
L 340.018612 -195.538011 
L 335.843514 -195.538011 
L 331.668416 -195.538011 
L 327.493318 -195.538011 
L 323.31822 -195.538011 
L 319.143122 -195.538011 
L 314.968024 -195.538011 
L 310.792926 -195.538011 
L 306.617828 -195.538011 
L 302.44273 -195.538011 
L 298.267632 -195.538011 
L 294.092534 -195.538011 
L 289.917436 -195.538011 
L 285.742338 -195.538011 
L 281.56724 -195.538011 
L 277.392142 -195.538011 
L 273.217044 -195.538011 
L 269.041946 -195.538011 
L 264.866848 -195.538011 
L 260.69175 -195.538011 
L 256.516652 -195.538011 
L 252.341554 -195.538011 
L 248.166456 -195.538011 
L 243.991358 -195.538011 
L 239.81626 -195.538011 
L 235.641162 -195.538011 
L 231.466064 -195.538011 
L 227.290966 -195.538011 
L 223.115868 -195.538011 
L 218.94077 -195.538011 
L 214.765672 -195.538011 
L 210.590574 -195.538011 
L 206.415476 -195.538011 
L 202.240378 -195.538011 
L 198.06528 -195.538011 
L 193.890182 -195.538011 
L 189.715085 -195.538011 
L 185.539987 -195.538011 
L 181.364889 -195.538011 
L 177.189791 -195.538011 
L 173.014693 -195.538011 
L 168.839595 -195.538011 
L 164.664497 -195.538011 
L 160.489399 -195.538011 
L 156.314301 -195.538011 
L 152.139203 -195.538011 
L 147.964105 -195.538011 
L 143.789007 -195.538011 
L 139.613909 -195.538011 
L 135.438811 -195.538011 
L 131.263713 -195.538011 
L 127.088615 -195.538011 
L 122.913517 -195.538011 
L 118.738419 -195.538011 
L 114.563321 -195.538011 
L 110.388223 -195.538011 
L 106.213125 -195.538011 
L 102.038027 -195.538011 
z
" id="mb76ba4e64b" style="stroke:#ff6384;stroke-opacity:0.5;"/>
    </defs>
    <g clip-path="url(#pb9e4b0e958)">
     <use style="fill:#ff6384;fill-opacity:0.5;stroke:#ff6384;stroke-opacity:0.5;" x="0" xlink:href="#mb76ba4e64b" y="581.789375"/>
    </g>
   </g>
   <g id="PolyCollection_2">
    <defs>
     <path d="M 58.827273 -195.538011 
L 58.827273 -195.650004 
L 62.984171 -195.692234 
L 67.141069 -195.749007 
L 71.297967 -195.8248 
L 75.454865 -195.925281 
L 79.611763 -196.057565 
L 83.768661 -196.230497 
L 87.925559 -196.454982 
L 92.082457 -196.744335 
L 96.239355 -197.114666 
L 100.396252 -197.585273 
L 104.55315 -198.179047 
L 108.710048 -198.922859 
L 112.866946 -199.847921 
L 117.023844 -200.990079 
L 121.180742 -202.390029 
L 125.33764 -204.093399 
L 129.494538 -206.150691 
L 133.651436 -208.617009 
L 137.808334 -211.551575 
L 141.965232 -215.016962 
L 146.12213 -219.078053 
L 150.279028 -223.800667 
L 154.435926 -229.249878 
L 158.592824 -235.488004 
L 162.749722 -242.572312 
L 166.90662 -250.552459 
L 171.063518 -259.467747 
L 175.220416 -269.344261 
L 179.377314 -280.192004 
L 183.534212 -292.002137 
L 187.69111 -304.744465 
L 191.848008 -318.365297 
L 196.004906 -332.785841 
L 200.161804 -347.901251 
L 204.318702 -363.580456 
L 208.4756 -379.666871 
L 212.632498 -395.980052 
L 216.789396 -412.31833 
L 220.946294 -428.4624 
L 225.103192 -444.179822 
L 229.26009 -459.230303 
L 233.416988 -473.371627 
L 237.573886 -486.366018 
L 241.730784 -497.986726 
L 245.887682 -508.02457 
L 250.04458 -516.294181 
L 254.201478 -522.639693 
L 258.358376 -526.939623 
L 262.515273 -529.110739 
L 266.672171 -529.110739 
L 270.829069 -526.939623 
L 274.985967 -522.639693 
L 279.142865 -516.294181 
L 283.299763 -508.02457 
L 287.456661 -497.986726 
L 291.613559 -486.366018 
L 295.770457 -473.371627 
L 299.927355 -459.230303 
L 304.084253 -444.179822 
L 308.241151 -428.4624 
L 312.398049 -412.31833 
L 316.554947 -395.980052 
L 320.711845 -379.666871 
L 324.868743 -363.580456 
L 329.025641 -347.901251 
L 333.182539 -332.785841 
L 337.339437 -318.365297 
L 341.496335 -304.744465 
L 345.653233 -292.002137 
L 349.810131 -280.192004 
L 353.967029 -269.344261 
L 358.123927 -259.467747 
L 362.280825 -250.552459 
L 366.437723 -242.572312 
L 370.594621 -235.488004 
L 374.751519 -229.249878 
L 378.908417 -223.800667 
L 383.065315 -219.078053 
L 387.222213 -215.016962 
L 391.379111 -211.551575 
L 395.536009 -208.617009 
L 399.692907 -206.150691 
L 403.849805 -204.093399 
L 408.006703 -202.390029 
L 412.163601 -200.990079 
L 416.320499 -199.847921 
L 420.477397 -198.922859 
L 424.634295 -198.179047 
L 428.791192 -197.585273 
L 432.94809 -197.114666 
L 437.104988 -196.744335 
L 441.261886 -196.454982 
L 445.418784 -196.230497 
L 449.575682 -196.057565 
L 453.73258 -195.925281 
L 457.889478 -195.8248 
L 462.046376 -195.749007 
L 466.203274 -195.692234 
L 470.360172 -195.650004 
L 470.360172 -195.538011 
L 470.360172 -195.538011 
L 466.203274 -195.538011 
L 462.046376 -195.538011 
L 457.889478 -195.538011 
L 453.73258 -195.538011 
L 449.575682 -195.538011 
L 445.418784 -195.538011 
L 441.261886 -195.538011 
L 437.104988 -195.538011 
L 432.94809 -195.538011 
L 428.791192 -195.538011 
L 424.634295 -195.538011 
L 420.477397 -195.538011 
L 416.320499 -195.538011 
L 412.163601 -195.538011 
L 408.006703 -195.538011 
L 403.849805 -195.538011 
L 399.692907 -195.538011 
L 395.536009 -195.538011 
L 391.379111 -195.538011 
L 387.222213 -195.538011 
L 383.065315 -195.538011 
L 378.908417 -195.538011 
L 374.751519 -195.538011 
L 370.594621 -195.538011 
L 366.437723 -195.538011 
L 362.280825 -195.538011 
L 358.123927 -195.538011 
L 353.967029 -195.538011 
L 349.810131 -195.538011 
L 345.653233 -195.538011 
L 341.496335 -195.538011 
L 337.339437 -195.538011 
L 333.182539 -195.538011 
L 329.025641 -195.538011 
L 324.868743 -195.538011 
L 320.711845 -195.538011 
L 316.554947 -195.538011 
L 312.398049 -195.538011 
L 308.241151 -195.538011 
L 304.084253 -195.538011 
L 299.927355 -195.538011 
L 295.770457 -195.538011 
L 291.613559 -195.538011 
L 287.456661 -195.538011 
L 283.299763 -195.538011 
L 279.142865 -195.538011 
L 274.985967 -195.538011 
L 270.829069 -195.538011 
L 266.672171 -195.538011 
L 262.515273 -195.538011 
L 258.358376 -195.538011 
L 254.201478 -195.538011 
L 250.04458 -195.538011 
L 245.887682 -195.538011 
L 241.730784 -195.538011 
L 237.573886 -195.538011 
L 233.416988 -195.538011 
L 229.26009 -195.538011 
L 225.103192 -195.538011 
L 220.946294 -195.538011 
L 216.789396 -195.538011 
L 212.632498 -195.538011 
L 208.4756 -195.538011 
L 204.318702 -195.538011 
L 200.161804 -195.538011 
L 196.004906 -195.538011 
L 191.848008 -195.538011 
L 187.69111 -195.538011 
L 183.534212 -195.538011 
L 179.377314 -195.538011 
L 175.220416 -195.538011 
L 171.063518 -195.538011 
L 166.90662 -195.538011 
L 162.749722 -195.538011 
L 158.592824 -195.538011 
L 154.435926 -195.538011 
L 150.279028 -195.538011 
L 146.12213 -195.538011 
L 141.965232 -195.538011 
L 137.808334 -195.538011 
L 133.651436 -195.538011 
L 129.494538 -195.538011 
L 125.33764 -195.538011 
L 121.180742 -195.538011 
L 117.023844 -195.538011 
L 112.866946 -195.538011 
L 108.710048 -195.538011 
L 104.55315 -195.538011 
L 100.396252 -195.538011 
L 96.239355 -195.538011 
L 92.082457 -195.538011 
L 87.925559 -195.538011 
L 83.768661 -195.538011 
L 79.611763 -195.538011 
L 75.454865 -195.538011 
L 71.297967 -195.538011 
L 67.141069 -195.538011 
L 62.984171 -195.538011 
L 58.827273 -195.538011 
z
" id="me455a23f63" style="stroke:#36a2eb;stroke-opacity:0.5;"/>
    </defs>
    <g clip-path="url(#pb9e4b0e958)">
     <use style="fill:#36a2eb;fill-opacity:0.5;stroke:#36a2eb;stroke-opacity:0.5;" x="0" xlink:href="#me455a23f63" y="581.789375"/>
    </g>
   </g>
   <g id="line2d_1">
    <path clip-path="url(#pb9e4b0e958)" d="M 102.038027 386.139859 
L 106.213125 386.097813 
L 110.388223 386.041288 
L 114.563321 385.965825 
L 118.738419 385.865782 
L 122.913517 385.734075 
L 127.088615 385.561897 
L 131.263713 385.338391 
L 135.438811 385.050299 
L 139.613909 384.681582 
L 143.789007 384.213026 
L 147.964105 383.621841 
L 152.139203 382.881271 
L 156.314301 381.960242 
L 160.489399 380.823062 
L 164.664497 379.429216 
L 168.839595 377.73327 
L 173.014693 375.684947 
L 177.189791 373.229379 
L 181.364889 370.307607 
L 185.539987 366.857325 
L 189.715085 362.813937 
L 193.890182 358.11191 
L 198.06528 352.686453 
L 202.240378 346.47552 
L 206.415476 339.422094 
L 210.590574 331.476734 
L 214.765672 322.60031 
L 218.94077 312.766849 
L 223.115868 301.966393 
L 227.290966 290.207742 
L 231.466064 277.520961 
L 235.641162 263.959504 
L 239.81626 249.601822 
L 243.991358 234.552303 
L 248.166456 218.941447 
L 252.341554 202.925155 
L 256.516652 186.683086 
L 260.69175 170.41603 
L 264.866848 154.342335 
L 269.041946 138.693428 
L 273.217044 123.708555 
L 277.392142 109.628875 
L 281.56724 96.691129 
L 285.742338 85.121078 
L 289.917436 75.126991 
L 294.092534 66.893428 
L 298.267632 60.575577 
L 302.44273 56.294392 
L 306.617828 54.13274 
L 310.792926 54.13274 
L 314.968024 56.294392 
L 319.143122 60.575577 
L 323.31822 66.893428 
L 327.493318 75.126991 
L 331.668416 85.121078 
L 335.843514 96.691129 
L 340.018612 109.628875 
L 344.19371 123.708555 
L 348.368808 138.693428 
L 352.543906 154.342335 
L 356.719004 170.41603 
L 360.894102 186.683086 
L 365.0692 202.925155 
L 369.244298 218.941447 
L 373.419396 234.552303 
L 377.594494 249.601822 
L 381.769592 263.959504 
L 385.94469 277.520961 
L 390.119788 290.207742 
L 394.294886 301.966393 
L 398.469984 312.766849 
L 402.645082 322.60031 
L 406.82018 331.476734 
L 410.995278 339.422094 
L 415.170376 346.47552 
L 419.345474 352.686453 
L 423.520572 358.11191 
L 427.69567 362.813937 
L 431.870768 366.857325 
L 436.045866 370.307607 
L 440.220964 373.229379 
L 444.396062 375.684947 
L 448.57116 377.73327 
L 452.746258 379.429216 
L 456.921355 380.823062 
L 461.096453 381.960242 
L 465.271551 382.881271 
L 469.446649 383.621841 
L 473.621747 384.213026 
L 477.796845 384.681582 
L 481.971943 385.050299 
L 486.147041 385.338391 
L 490.322139 385.561897 
L 494.497237 385.734075 
L 498.672335 385.865782 
L 502.847433 385.965825 
L 507.022531 386.041288 
L 511.197629 386.097813 
L 515.372727 386.139859 
" style="fill:none;stroke:#ff6384;stroke-linecap:square;"/>
   </g>
   <g id="line2d_2">
    <path clip-path="url(#pb9e4b0e958)" d="M 58.827273 386.139371 
L 62.984171 386.097141 
L 67.141069 386.040368 
L 71.297967 385.964575 
L 75.454865 385.864094 
L 79.611763 385.73181 
L 83.768661 385.558878 
L 87.925559 385.334393 
L 92.082457 385.04504 
L 96.239355 384.674709 
L 100.396252 384.204102 
L 104.55315 383.610328 
L 108.710048 382.866516 
L 112.866946 381.941454 
L 117.023844 380.799296 
L 121.180742 379.399346 
L 125.33764 377.695976 
L 129.494538 375.638684 
L 133.651436 373.172366 
L 137.808334 370.2378 
L 141.965232 366.772413 
L 146.12213 362.711322 
L 150.279028 357.988708 
L 154.435926 352.539497 
L 158.592824 346.301371 
L 162.749722 339.217063 
L 166.90662 331.236916 
L 171.063518 322.321628 
L 175.220416 312.445114 
L 179.377314 301.597371 
L 183.534212 289.787238 
L 187.69111 277.04491 
L 191.848008 263.424078 
L 196.004906 249.003534 
L 200.161804 233.888124 
L 204.318702 218.208919 
L 208.4756 202.122504 
L 212.632498 185.809323 
L 216.789396 169.471045 
L 220.946294 153.326975 
L 225.103192 137.609553 
L 229.26009 122.559072 
L 233.416988 108.417748 
L 237.573886 95.423357 
L 241.730784 83.802649 
L 245.887682 73.764805 
L 250.04458 65.495194 
L 254.201478 59.149682 
L 258.358376 54.849752 
L 262.515273 52.678636 
L 266.672171 52.678636 
L 270.829069 54.849752 
L 274.985967 59.149682 
L 279.142865 65.495194 
L 283.299763 73.764805 
L 287.456661 83.802649 
L 291.613559 95.423357 
L 295.770457 108.417748 
L 299.927355 122.559072 
L 304.084253 137.609553 
L 308.241151 153.326975 
L 312.398049 169.471045 
L 316.554947 185.809323 
L 320.711845 202.122504 
L 324.868743 218.208919 
L 329.025641 233.888124 
L 333.182539 249.003534 
L 337.339437 263.424078 
L 341.496335 277.04491 
L 345.653233 289.787238 
L 349.810131 301.597371 
L 353.967029 312.445114 
L 358.123927 322.321628 
L 362.280825 331.236916 
L 366.437723 339.217063 
L 370.594621 346.301371 
L 374.751519 352.539497 
L 378.908417 357.988708 
L 383.065315 362.711322 
L 387.222213 366.772413 
L 391.379111 370.2378 
L 395.536009 373.172366 
L 399.692907 375.638684 
L 403.849805 377.695976 
L 408.006703 379.399346 
L 412.163601 380.799296 
L 416.320499 381.941454 
L 420.477397 382.866516 
L 424.634295 383.610328 
L 428.791192 384.204102 
L 432.94809 384.674709 
L 437.104988 385.04504 
L 441.261886 385.334393 
L 445.418784 385.558878 
L 449.575682 385.73181 
L 453.73258 385.864094 
L 457.889478 385.964575 
L 462.046376 386.040368 
L 466.203274 386.097141 
L 470.360172 386.139371 
" style="fill:none;stroke:#36a2eb;stroke-linecap:square;"/>
   </g>
   <g id="patch_3">
    <path d="M 36 402.93 
L 538.2 402.93 
" style="fill:none;stroke:#000000;stroke-linecap:square;stroke-linejoin:miter;stroke-width:0.8;"/>
   </g>
   <g id="legend_1">
    <g id="patch_4">
     <path d="M 410.290313 88.688125 
L 528.4 88.688125 
Q 531.2 88.688125 531.2 85.888125 
L 531.2 45.8 
Q 531.2 43 528.4 43 
L 410.290313 43 
Q 407.490313 43 407.490313 45.8 
L 407.490313 85.888125 
Q 407.490313 88.688125 410.290313 88.688125 
z
" style="fill:#ffffff;opacity:0.8;stroke:#cccccc;stroke-linejoin:miter;"/>
    </g>
    <g id="patch_5">
     <path d="M 413.090313 59.237813 
L 441.090313 59.237813 
L 441.090313 49.437813 
L 413.090313 49.437813 
z
" style="fill:#ff6384;opacity:0.5;stroke:#ff6384;stroke-linejoin:miter;"/>
    </g>
    <g id="text_1">
     <!-- base -->
     <defs>
      <path d="M 48.6875 27.296875 
Q 48.6875 37.203125 44.609375 42.84375 
Q 40.53125 48.484375 33.40625 48.484375 
Q 26.265625 48.484375 22.1875 42.84375 
Q 18.109375 37.203125 18.109375 27.296875 
Q 18.109375 17.390625 22.1875 11.75 
Q 26.265625 6.109375 33.40625 6.109375 
Q 40.53125 6.109375 44.609375 11.75 
Q 48.6875 17.390625 48.6875 27.296875 
z
M 18.109375 46.390625 
Q 20.953125 51.265625 25.265625 53.625 
Q 29.59375 56 35.59375 56 
Q 45.5625 56 51.78125 48.09375 
Q 58.015625 40.1875 58.015625 27.296875 
Q 58.015625 14.40625 51.78125 6.484375 
Q 45.5625 -1.421875 35.59375 -1.421875 
Q 29.59375 -1.421875 25.265625 0.953125 
Q 20.953125 3.328125 18.109375 8.203125 
L 18.109375 0 
L 9.078125 0 
L 9.078125 75.984375 
L 18.109375 75.984375 
z
" id="DejaVuSans-98"/>
      <path d="M 34.28125 27.484375 
Q 23.390625 27.484375 19.1875 25 
Q 14.984375 22.515625 14.984375 16.5 
Q 14.984375 11.71875 18.140625 8.90625 
Q 21.296875 6.109375 26.703125 6.109375 
Q 34.1875 6.109375 38.703125 11.40625 
Q 43.21875 16.703125 43.21875 25.484375 
L 43.21875 27.484375 
z
M 52.203125 31.203125 
L 52.203125 0 
L 43.21875 0 
L 43.21875 8.296875 
Q 40.140625 3.328125 35.546875 0.953125 
Q 30.953125 -1.421875 24.3125 -1.421875 
Q 15.921875 -1.421875 10.953125 3.296875 
Q 6 8.015625 6 15.921875 
Q 6 25.140625 12.171875 29.828125 
Q 18.359375 34.515625 30.609375 34.515625 
L 43.21875 34.515625 
L 43.21875 35.40625 
Q 43.21875 41.609375 39.140625 45 
Q 35.0625 48.390625 27.6875 48.390625 
Q 23 48.390625 18.546875 47.265625 
Q 14.109375 46.140625 10.015625 43.890625 
L 10.015625 52.203125 
Q 14.9375 54.109375 19.578125 55.046875 
Q 24.21875 56 28.609375 56 
Q 40.484375 56 46.34375 49.84375 
Q 52.203125 43.703125 52.203125 31.203125 
z
" id="DejaVuSans-97"/>
      <path d="M 44.28125 53.078125 
L 44.28125 44.578125 
Q 40.484375 46.53125 36.375 47.5 
Q 32.28125 48.484375 27.875 48.484375 
Q 21.1875 48.484375 17.84375 46.4375 
Q 14.5 44.390625 14.5 40.28125 
Q 14.5 37.15625 16.890625 35.375 
Q 19.28125 33.59375 26.515625 31.984375 
L 29.59375 31.296875 
Q 39.15625 29.25 43.1875 25.515625 
Q 47.21875 21.78125 47.21875 15.09375 
Q 47.21875 7.46875 41.1875 3.015625 
Q 35.15625 -1.421875 24.609375 -1.421875 
Q 20.21875 -1.421875 15.453125 -0.5625 
Q 10.6875 0.296875 5.421875 2 
L 5.421875 11.28125 
Q 10.40625 8.6875 15.234375 7.390625 
Q 20.0625 6.109375 24.8125 6.109375 
Q 31.15625 6.109375 34.5625 8.28125 
Q 37.984375 10.453125 37.984375 14.40625 
Q 37.984375 18.0625 35.515625 20.015625 
Q 33.0625 21.96875 24.703125 23.78125 
L 21.578125 24.515625 
Q 13.234375 26.265625 9.515625 29.90625 
Q 5.8125 33.546875 5.8125 39.890625 
Q 5.8125 47.609375 11.28125 51.796875 
Q 16.75 56 26.8125 56 
Q 31.78125 56 36.171875 55.265625 
Q 40.578125 54.546875 44.28125 53.078125 
z
" id="DejaVuSans-115"/>
      <path d="M 56.203125 29.59375 
L 56.203125 25.203125 
L 14.890625 25.203125 
Q 15.484375 15.921875 20.484375 11.0625 
Q 25.484375 6.203125 34.421875 6.203125 
Q 39.59375 6.203125 44.453125 7.46875 
Q 49.3125 8.734375 54.109375 11.28125 
L 54.109375 2.78125 
Q 49.265625 0.734375 44.1875 -0.34375 
Q 39.109375 -1.421875 33.890625 -1.421875 
Q 20.796875 -1.421875 13.15625 6.1875 
Q 5.515625 13.8125 5.515625 26.8125 
Q 5.515625 40.234375 12.765625 48.109375 
Q 20.015625 56 32.328125 56 
Q 43.359375 56 49.78125 48.890625 
Q 56.203125 41.796875 56.203125 29.59375 
z
M 47.21875 32.234375 
Q 47.125 39.59375 43.09375 43.984375 
Q 39.0625 48.390625 32.421875 48.390625 
Q 24.90625 48.390625 20.390625 44.140625 
Q 15.875 39.890625 15.1875 32.171875 
z
" id="DejaVuSans-101"/>
     </defs>
     <g transform="translate(452.290313 59.237813)scale(0.14 -0.14)">
      <use xlink:href="#DejaVuSans-98"/>
      <use x="63.476562" xlink:href="#DejaVuSans-97"/>
      <use x="124.755859" xlink:href="#DejaVuSans-115"/>
      <use x="176.855469" xlink:href="#DejaVuSans-101"/>
     </g>
    </g>
    <g id="patch_6">
     <path d="M 413.090313 79.787188 
L 441.090313 79.787188 
L 441.090313 69.987188 
L 413.090313 69.987188 
z
" style="fill:#36a2eb;opacity:0.5;stroke:#36a2eb;stroke-linejoin:miter;"/>
    </g>
    <g id="text_2">
     <!-- no_license -->
     <defs>
      <path d="M 54.890625 33.015625 
L 54.890625 0 
L 45.90625 0 
L 45.90625 32.71875 
Q 45.90625 40.484375 42.875 44.328125 
Q 39.84375 48.1875 33.796875 48.1875 
Q 26.515625 48.1875 22.3125 43.546875 
Q 18.109375 38.921875 18.109375 30.90625 
L 18.109375 0 
L 9.078125 0 
L 9.078125 54.6875 
L 18.109375 54.6875 
L 18.109375 46.1875 
Q 21.34375 51.125 25.703125 53.5625 
Q 30.078125 56 35.796875 56 
Q 45.21875 56 50.046875 50.171875 
Q 54.890625 44.34375 54.890625 33.015625 
z
" id="DejaVuSans-110"/>
      <path d="M 30.609375 48.390625 
Q 23.390625 48.390625 19.1875 42.75 
Q 14.984375 37.109375 14.984375 27.296875 
Q 14.984375 17.484375 19.15625 11.84375 
Q 23.34375 6.203125 30.609375 6.203125 
Q 37.796875 6.203125 41.984375 11.859375 
Q 46.1875 17.53125 46.1875 27.296875 
Q 46.1875 37.015625 41.984375 42.703125 
Q 37.796875 48.390625 30.609375 48.390625 
z
M 30.609375 56 
Q 42.328125 56 49.015625 48.375 
Q 55.71875 40.765625 55.71875 27.296875 
Q 55.71875 13.875 49.015625 6.21875 
Q 42.328125 -1.421875 30.609375 -1.421875 
Q 18.84375 -1.421875 12.171875 6.21875 
Q 5.515625 13.875 5.515625 27.296875 
Q 5.515625 40.765625 12.171875 48.375 
Q 18.84375 56 30.609375 56 
z
" id="DejaVuSans-111"/>
      <path d="M 50.984375 -16.609375 
L 50.984375 -23.578125 
L -0.984375 -23.578125 
L -0.984375 -16.609375 
z
" id="DejaVuSans-95"/>
      <path d="M 9.421875 75.984375 
L 18.40625 75.984375 
L 18.40625 0 
L 9.421875 0 
z
" id="DejaVuSans-108"/>
      <path d="M 9.421875 54.6875 
L 18.40625 54.6875 
L 18.40625 0 
L 9.421875 0 
z
M 9.421875 75.984375 
L 18.40625 75.984375 
L 18.40625 64.59375 
L 9.421875 64.59375 
z
" id="DejaVuSans-105"/>
      <path d="M 48.78125 52.59375 
L 48.78125 44.1875 
Q 44.96875 46.296875 41.140625 47.34375 
Q 37.3125 48.390625 33.40625 48.390625 
Q 24.65625 48.390625 19.8125 42.84375 
Q 14.984375 37.3125 14.984375 27.296875 
Q 14.984375 17.28125 19.8125 11.734375 
Q 24.65625 6.203125 33.40625 6.203125 
Q 37.3125 6.203125 41.140625 7.25 
Q 44.96875 8.296875 48.78125 10.40625 
L 48.78125 2.09375 
Q 45.015625 0.34375 40.984375 -0.53125 
Q 36.96875 -1.421875 32.421875 -1.421875 
Q 20.0625 -1.421875 12.78125 6.34375 
Q 5.515625 14.109375 5.515625 27.296875 
Q 5.515625 40.671875 12.859375 48.328125 
Q 20.21875 56 33.015625 56 
Q 37.15625 56 41.109375 55.140625 
Q 45.0625 54.296875 48.78125 52.59375 
z
" id="DejaVuSans-99"/>
     </defs>
     <g transform="translate(452.290313 79.787188)scale(0.14 -0.14)">
      <use xlink:href="#DejaVuSans-110"/>
      <use x="63.378906" xlink:href="#DejaVuSans-111"/>
      <use x="124.560547" xlink:href="#DejaVuSans-95"/>
      <use x="174.560547" xlink:href="#DejaVuSans-108"/>
      <use x="202.34375" xlink:href="#DejaVuSans-105"/>
      <use x="230.126953" xlink:href="#DejaVuSans-99"/>
      <use x="285.107422" xlink:href="#DejaVuSans-101"/>
      <use x="346.630859" xlink:href="#DejaVuSans-110"/>
      <use x="410.009766" xlink:href="#DejaVuSans-115"/>
      <use x="462.109375" xlink:href="#DejaVuSans-101"/>
     </g>
    </g>
   </g>
  </g>
  <g id="axes_2">
   <g id="patch_7">
    <path d="M 36 525.24 
L 538.2 525.24 
L 538.2 402.93 
L 36 402.93 
z
" style="fill:none;"/>
   </g>
   <g id="patch_8">
    <path clip-path="url(#p0b25f982fd)" d="M 207.438375 519.680455 
L 409.972379 519.680455 
L 409.972379 482.616818 
L 207.438375 482.616818 
z
" style="fill:#ff6384;opacity:0.5;"/>
   </g>
   <g id="patch_9">
    <path clip-path="url(#p0b25f982fd)" d="M 163.768162 445.553182 
L 365.419283 445.553182 
L 365.419283 408.489545 
L 163.768162 408.489545 
z
" style="fill:#36a2eb;opacity:0.5;"/>
   </g>
   <g id="matplotlib.axis_1">
    <g id="xtick_1">
     <g id="line2d_3">
      <defs>
       <path d="M 0 0 
L 0 3.5 
" id="m41598bc1df" style="stroke:#000000;stroke-width:0.8;"/>
      </defs>
      <g>
       <use style="stroke:#000000;stroke-width:0.8;" x="116.378563" xlink:href="#m41598bc1df" y="525.24"/>
      </g>
     </g>
     <g id="text_3">
      <!-- 6.5 -->
      <defs>
       <path d="M 33.015625 40.375 
Q 26.375 40.375 22.484375 35.828125 
Q 18.609375 31.296875 18.609375 23.390625 
Q 18.609375 15.53125 22.484375 10.953125 
Q 26.375 6.390625 33.015625 6.390625 
Q 39.65625 6.390625 43.53125 10.953125 
Q 47.40625 15.53125 47.40625 23.390625 
Q 47.40625 31.296875 43.53125 35.828125 
Q 39.65625 40.375 33.015625 40.375 
z
M 52.59375 71.296875 
L 52.59375 62.3125 
Q 48.875 64.0625 45.09375 64.984375 
Q 41.3125 65.921875 37.59375 65.921875 
Q 27.828125 65.921875 22.671875 59.328125 
Q 17.53125 52.734375 16.796875 39.40625 
Q 19.671875 43.65625 24.015625 45.921875 
Q 28.375 48.1875 33.59375 48.1875 
Q 44.578125 48.1875 50.953125 41.515625 
Q 57.328125 34.859375 57.328125 23.390625 
Q 57.328125 12.15625 50.6875 5.359375 
Q 44.046875 -1.421875 33.015625 -1.421875 
Q 20.359375 -1.421875 13.671875 8.265625 
Q 6.984375 17.96875 6.984375 36.375 
Q 6.984375 53.65625 15.1875 63.9375 
Q 23.390625 74.21875 37.203125 74.21875 
Q 40.921875 74.21875 44.703125 73.484375 
Q 48.484375 72.75 52.59375 71.296875 
z
" id="DejaVuSans-54"/>
       <path d="M 10.6875 12.40625 
L 21 12.40625 
L 21 0 
L 10.6875 0 
z
" id="DejaVuSans-46"/>
       <path d="M 10.796875 72.90625 
L 49.515625 72.90625 
L 49.515625 64.59375 
L 19.828125 64.59375 
L 19.828125 46.734375 
Q 21.96875 47.46875 24.109375 47.828125 
Q 26.265625 48.1875 28.421875 48.1875 
Q 40.625 48.1875 47.75 41.5 
Q 54.890625 34.8125 54.890625 23.390625 
Q 54.890625 11.625 47.5625 5.09375 
Q 40.234375 -1.421875 26.90625 -1.421875 
Q 22.3125 -1.421875 17.546875 -0.640625 
Q 12.796875 0.140625 7.71875 1.703125 
L 7.71875 11.625 
Q 12.109375 9.234375 16.796875 8.0625 
Q 21.484375 6.890625 26.703125 6.890625 
Q 35.15625 6.890625 40.078125 11.328125 
Q 45.015625 15.765625 45.015625 23.390625 
Q 45.015625 31 40.078125 35.4375 
Q 35.15625 39.890625 26.703125 39.890625 
Q 22.75 39.890625 18.8125 39.015625 
Q 14.890625 38.140625 10.796875 36.28125 
z
" id="DejaVuSans-53"/>
      </defs>
      <g transform="translate(105.246376 542.877813)scale(0.14 -0.14)">
       <use xlink:href="#DejaVuSans-54"/>
       <use x="63.623047" xlink:href="#DejaVuSans-46"/>
       <use x="95.410156" xlink:href="#DejaVuSans-53"/>
      </g>
     </g>
    </g>
    <g id="xtick_2">
     <g id="line2d_4">
      <g>
       <use style="stroke:#000000;stroke-width:0.8;" x="204.601872" xlink:href="#m41598bc1df" y="525.24"/>
      </g>
     </g>
     <g id="text_4">
      <!-- 7.0 -->
      <defs>
       <path d="M 8.203125 72.90625 
L 55.078125 72.90625 
L 55.078125 68.703125 
L 28.609375 0 
L 18.3125 0 
L 43.21875 64.59375 
L 8.203125 64.59375 
z
" id="DejaVuSans-55"/>
       <path d="M 31.78125 66.40625 
Q 24.171875 66.40625 20.328125 58.90625 
Q 16.5 51.421875 16.5 36.375 
Q 16.5 21.390625 20.328125 13.890625 
Q 24.171875 6.390625 31.78125 6.390625 
Q 39.453125 6.390625 43.28125 13.890625 
Q 47.125 21.390625 47.125 36.375 
Q 47.125 51.421875 43.28125 58.90625 
Q 39.453125 66.40625 31.78125 66.40625 
z
M 31.78125 74.21875 
Q 44.046875 74.21875 50.515625 64.515625 
Q 56.984375 54.828125 56.984375 36.375 
Q 56.984375 17.96875 50.515625 8.265625 
Q 44.046875 -1.421875 31.78125 -1.421875 
Q 19.53125 -1.421875 13.0625 8.265625 
Q 6.59375 17.96875 6.59375 36.375 
Q 6.59375 54.828125 13.0625 64.515625 
Q 19.53125 74.21875 31.78125 74.21875 
z
" id="DejaVuSans-48"/>
      </defs>
      <g transform="translate(193.469685 542.877813)scale(0.14 -0.14)">
       <use xlink:href="#DejaVuSans-55"/>
       <use x="63.623047" xlink:href="#DejaVuSans-46"/>
       <use x="95.410156" xlink:href="#DejaVuSans-48"/>
      </g>
     </g>
    </g>
    <g id="xtick_3">
     <g id="line2d_5">
      <g>
       <use style="stroke:#000000;stroke-width:0.8;" x="292.825181" xlink:href="#m41598bc1df" y="525.24"/>
      </g>
     </g>
     <g id="text_5">
      <!-- 7.5 -->
      <g transform="translate(281.692994 542.877813)scale(0.14 -0.14)">
       <use xlink:href="#DejaVuSans-55"/>
       <use x="63.623047" xlink:href="#DejaVuSans-46"/>
       <use x="95.410156" xlink:href="#DejaVuSans-53"/>
      </g>
     </g>
    </g>
    <g id="xtick_4">
     <g id="line2d_6">
      <g>
       <use style="stroke:#000000;stroke-width:0.8;" x="381.048491" xlink:href="#m41598bc1df" y="525.24"/>
      </g>
     </g>
     <g id="text_6">
      <!-- 8.0 -->
      <defs>
       <path d="M 31.78125 34.625 
Q 24.75 34.625 20.71875 30.859375 
Q 16.703125 27.09375 16.703125 20.515625 
Q 16.703125 13.921875 20.71875 10.15625 
Q 24.75 6.390625 31.78125 6.390625 
Q 38.8125 6.390625 42.859375 10.171875 
Q 46.921875 13.96875 46.921875 20.515625 
Q 46.921875 27.09375 42.890625 30.859375 
Q 38.875 34.625 31.78125 34.625 
z
M 21.921875 38.8125 
Q 15.578125 40.375 12.03125 44.71875 
Q 8.5 49.078125 8.5 55.328125 
Q 8.5 64.0625 14.71875 69.140625 
Q 20.953125 74.21875 31.78125 74.21875 
Q 42.671875 74.21875 48.875 69.140625 
Q 55.078125 64.0625 55.078125 55.328125 
Q 55.078125 49.078125 51.53125 44.71875 
Q 48 40.375 41.703125 38.8125 
Q 48.828125 37.15625 52.796875 32.3125 
Q 56.78125 27.484375 56.78125 20.515625 
Q 56.78125 9.90625 50.3125 4.234375 
Q 43.84375 -1.421875 31.78125 -1.421875 
Q 19.734375 -1.421875 13.25 4.234375 
Q 6.78125 9.90625 6.78125 20.515625 
Q 6.78125 27.484375 10.78125 32.3125 
Q 14.796875 37.15625 21.921875 38.8125 
z
M 18.3125 54.390625 
Q 18.3125 48.734375 21.84375 45.5625 
Q 25.390625 42.390625 31.78125 42.390625 
Q 38.140625 42.390625 41.71875 45.5625 
Q 45.3125 48.734375 45.3125 54.390625 
Q 45.3125 60.0625 41.71875 63.234375 
Q 38.140625 66.40625 31.78125 66.40625 
Q 25.390625 66.40625 21.84375 63.234375 
Q 18.3125 60.0625 18.3125 54.390625 
z
" id="DejaVuSans-56"/>
      </defs>
      <g transform="translate(369.916303 542.877813)scale(0.14 -0.14)">
       <use xlink:href="#DejaVuSans-56"/>
       <use x="63.623047" xlink:href="#DejaVuSans-46"/>
       <use x="95.410156" xlink:href="#DejaVuSans-48"/>
      </g>
     </g>
    </g>
    <g id="xtick_5">
     <g id="line2d_7">
      <g>
       <use style="stroke:#000000;stroke-width:0.8;" x="469.2718" xlink:href="#m41598bc1df" y="525.24"/>
      </g>
     </g>
     <g id="text_7">
      <!-- 8.5 -->
      <g transform="translate(458.139612 542.877813)scale(0.14 -0.14)">
       <use xlink:href="#DejaVuSans-56"/>
       <use x="63.623047" xlink:href="#DejaVuSans-46"/>
       <use x="95.410156" xlink:href="#DejaVuSans-53"/>
      </g>
     </g>
    </g>
   </g>
   <g id="line2d_8">
    <path clip-path="url(#p0b25f982fd)" d="M 308.705377 525.24 
L 308.705377 402.93 
" style="fill:none;stroke:#ff6384;stroke-dasharray:5.55,2.4;stroke-dashoffset:0;stroke-opacity:0.8;stroke-width:1.5;"/>
   </g>
   <g id="line2d_9">
    <path clip-path="url(#p0b25f982fd)" d="M 264.593722 525.24 
L 264.593722 402.93 
" style="fill:none;stroke:#36a2eb;stroke-dasharray:5.55,2.4;stroke-dashoffset:0;stroke-opacity:0.8;stroke-width:1.5;"/>
   </g>
   <g id="patch_10">
    <path d="M 36 525.24 
L 538.2 525.24 
" style="fill:none;stroke:#000000;stroke-linecap:square;stroke-linejoin:miter;stroke-width:0.8;"/>
   </g>
  </g>
 </g>
 <defs>
  <clipPath id="pb9e4b0e958">
   <rect height="366.93" width="502.2" x="36" y="36"/>
  </clipPath>
  <clipPath id="p0b25f982fd">
   <rect height="122.31" width="502.2" x="36" y="402.93"/>
  </clipPath>
 </defs>
</svg>
