<?xml version="1.0" encoding="utf-8" standalone="no"?>
<!DOCTYPE svg PUBLIC "-//W3C//DTD SVG 1.1//EN"
  "http://www.w3.org/Graphics/SVG/1.1/DTD/svg11.dtd">
<!-- Created with matplotlib (https://matplotlib.org/) -->
<svg height="581.789375pt" version="1.1" viewBox="0 0 574.2 581.789375" width="574.2pt" xmlns="http://www.w3.org/2000/svg" xmlns:xlink="http://www.w3.org/1999/xlink">
 <defs>
  <style type="text/css">
*{stroke-linecap:butt;stroke-linejoin:round;}
  </style>
 </defs>
 <g id="figure_1">
  <g id="patch_1">
   <path d="M 0 581.789375 
L 574.2 581.789375 
L 574.2 0 
L 0 0 
z
" style="fill:none;"/>
  </g>
  <g id="axes_1">
   <g id="patch_2">
    <path d="M 36 402.93 
L 538.2 402.93 
L 538.2 36 
L 36 36 
z
" style="fill:none;"/>
   </g>
   <g id="PolyCollection_1">
    <defs>
     <path d="M 102.071804 -195.538011 
L 102.071804 -195.649314 
L 106.246561 -195.691285 
L 110.421318 -195.747708 
L 114.596074 -195.823034 
L 118.770831 -195.922897 
L 122.945588 -196.054365 
L 127.120345 -196.226233 
L 131.295102 -196.449335 
L 135.469858 -196.736907 
L 139.644615 -197.104957 
L 143.819372 -197.572666 
L 147.994129 -198.162783 
L 152.168886 -198.902015 
L 156.343642 -199.821381 
L 160.518399 -200.956506 
L 164.693156 -202.347834 
L 168.867913 -204.040716 
L 173.04267 -206.085338 
L 177.217426 -208.536469 
L 181.392183 -211.452964 
L 185.56694 -214.897011 
L 189.741697 -218.933094 
L 193.916454 -223.626627 
L 198.09121 -229.042281 
L 202.265967 -235.241993 
L 206.440724 -242.282676 
L 210.615481 -250.213682 
L 214.790238 -259.07407 
L 218.964994 -268.889764 
L 223.139751 -279.670707 
L 227.314508 -291.408115 
L 231.489265 -304.071976 
L 235.664022 -317.608931 
L 239.838778 -331.940674 
L 244.013535 -346.963003 
L 248.188292 -362.545656 
L 252.363049 -378.533012 
L 256.537806 -394.745737 
L 260.712562 -410.983404 
L 264.887319 -427.02806 
L 269.062076 -442.648694 
L 273.236833 -457.606495 
L 277.41159 -471.660737 
L 281.586346 -484.575109 
L 285.761103 -496.124258 
L 289.93586 -506.100289 
L 294.110617 -514.318976 
L 298.285374 -520.625413 
L 302.46013 -524.898864 
L 306.634887 -527.05661 
L 310.809644 -527.05661 
L 314.984401 -524.898864 
L 319.159158 -520.625413 
L 323.333914 -514.318976 
L 327.508671 -506.100289 
L 331.683428 -496.124258 
L 335.858185 -484.575109 
L 340.032942 -471.660737 
L 344.207698 -457.606495 
L 348.382455 -442.648694 
L 352.557212 -427.02806 
L 356.731969 -410.983404 
L 360.906726 -394.745737 
L 365.081482 -378.533012 
L 369.256239 -362.545656 
L 373.430996 -346.963003 
L 377.605753 -331.940674 
L 381.78051 -317.608931 
L 385.955266 -304.071976 
L 390.130023 -291.408115 
L 394.30478 -279.670707 
L 398.479537 -268.889764 
L 402.654294 -259.07407 
L 406.82905 -250.213682 
L 411.003807 -242.282676 
L 415.178564 -235.241993 
L 419.353321 -229.042281 
L 423.528078 -223.626627 
L 427.702834 -218.933094 
L 431.877591 -214.897011 
L 436.052348 -211.452964 
L 440.227105 -208.536469 
L 444.401862 -206.085338 
L 448.576618 -204.040716 
L 452.751375 -202.347834 
L 456.926132 -200.956506 
L 461.100889 -199.821381 
L 465.275646 -198.902015 
L 469.450402 -198.162783 
L 473.625159 -197.572666 
L 477.799916 -197.104957 
L 481.974673 -196.736907 
L 486.14943 -196.449335 
L 490.324186 -196.226233 
L 494.498943 -196.054365 
L 498.6737 -195.922897 
L 502.848457 -195.823034 
L 507.023214 -195.747708 
L 511.19797 -195.691285 
L 515.372727 -195.649314 
L 515.372727 -195.538011 
L 515.372727 -195.538011 
L 511.19797 -195.538011 
L 507.023214 -195.538011 
L 502.848457 -195.538011 
L 498.6737 -195.538011 
L 494.498943 -195.538011 
L 490.324186 -195.538011 
L 486.14943 -195.538011 
L 481.974673 -195.538011 
L 477.799916 -195.538011 
L 473.625159 -195.538011 
L 469.450402 -195.538011 
L 465.275646 -195.538011 
L 461.100889 -195.538011 
L 456.926132 -195.538011 
L 452.751375 -195.538011 
L 448.576618 -195.538011 
L 444.401862 -195.538011 
L 440.227105 -195.538011 
L 436.052348 -195.538011 
L 431.877591 -195.538011 
L 427.702834 -195.538011 
L 423.528078 -195.538011 
L 419.353321 -195.538011 
L 415.178564 -195.538011 
L 411.003807 -195.538011 
L 406.82905 -195.538011 
L 402.654294 -195.538011 
L 398.479537 -195.538011 
L 394.30478 -195.538011 
L 390.130023 -195.538011 
L 385.955266 -195.538011 
L 381.78051 -195.538011 
L 377.605753 -195.538011 
L 373.430996 -195.538011 
L 369.256239 -195.538011 
L 365.081482 -195.538011 
L 360.906726 -195.538011 
L 356.731969 -195.538011 
L 352.557212 -195.538011 
L 348.382455 -195.538011 
L 344.207698 -195.538011 
L 340.032942 -195.538011 
L 335.858185 -195.538011 
L 331.683428 -195.538011 
L 327.508671 -195.538011 
L 323.333914 -195.538011 
L 319.159158 -195.538011 
L 314.984401 -195.538011 
L 310.809644 -195.538011 
L 306.634887 -195.538011 
L 302.46013 -195.538011 
L 298.285374 -195.538011 
L 294.110617 -195.538011 
L 289.93586 -195.538011 
L 285.761103 -195.538011 
L 281.586346 -195.538011 
L 277.41159 -195.538011 
L 273.236833 -195.538011 
L 269.062076 -195.538011 
L 264.887319 -195.538011 
L 260.712562 -195.538011 
L 256.537806 -195.538011 
L 252.363049 -195.538011 
L 248.188292 -195.538011 
L 244.013535 -195.538011 
L 239.838778 -195.538011 
L 235.664022 -195.538011 
L 231.489265 -195.538011 
L 227.314508 -195.538011 
L 223.139751 -195.538011 
L 218.964994 -195.538011 
L 214.790238 -195.538011 
L 210.615481 -195.538011 
L 206.440724 -195.538011 
L 202.265967 -195.538011 
L 198.09121 -195.538011 
L 193.916454 -195.538011 
L 189.741697 -195.538011 
L 185.56694 -195.538011 
L 181.392183 -195.538011 
L 177.217426 -195.538011 
L 173.04267 -195.538011 
L 168.867913 -195.538011 
L 164.693156 -195.538011 
L 160.518399 -195.538011 
L 156.343642 -195.538011 
L 152.168886 -195.538011 
L 147.994129 -195.538011 
L 143.819372 -195.538011 
L 139.644615 -195.538011 
L 135.469858 -195.538011 
L 131.295102 -195.538011 
L 127.120345 -195.538011 
L 122.945588 -195.538011 
L 118.770831 -195.538011 
L 114.596074 -195.538011 
L 110.421318 -195.538011 
L 106.246561 -195.538011 
L 102.071804 -195.538011 
z
" id="m908e1deb96" style="stroke:#ff6384;stroke-opacity:0.5;"/>
    </defs>
    <g clip-path="url(#p5252467e8c)">
     <use style="fill:#ff6384;fill-opacity:0.5;stroke:#ff6384;stroke-opacity:0.5;" x="0" xlink:href="#m908e1deb96" y="581.789375"/>
    </g>
   </g>
   <g id="PolyCollection_2">
    <defs>
     <path d="M 58.827273 -195.538011 
L 58.827273 -195.650004 
L 62.976322 -195.692234 
L 67.12537 -195.749007 
L 71.274419 -195.8248 
L 75.423468 -195.925281 
L 79.572517 -196.057565 
L 83.721565 -196.230497 
L 87.870614 -196.454982 
L 92.019663 -196.744335 
L 96.168712 -197.114666 
L 100.317761 -197.585273 
L 104.466809 -198.179047 
L 108.615858 -198.922859 
L 112.764907 -199.847921 
L 116.913956 -200.990079 
L 121.063005 -202.390029 
L 125.212053 -204.093399 
L 129.361102 -206.150691 
L 133.510151 -208.617009 
L 137.6592 -211.551575 
L 141.808249 -215.016962 
L 145.957297 -219.078053 
L 150.106346 -223.800667 
L 154.255395 -229.249878 
L 158.404444 -235.488004 
L 162.553493 -242.572312 
L 166.702541 -250.552459 
L 170.85159 -259.467747 
L 175.000639 -269.344261 
L 179.149688 -280.192004 
L 183.298737 -292.002137 
L 187.447785 -304.744465 
L 191.596834 -318.365297 
L 195.745883 -332.785841 
L 199.894932 -347.901251 
L 204.043981 -363.580456 
L 208.193029 -379.666871 
L 212.342078 -395.980052 
L 216.491127 -412.31833 
L 220.640176 -428.4624 
L 224.789225 -444.179822 
L 228.938273 -459.230303 
L 233.087322 -473.371627 
L 237.236371 -486.366018 
L 241.38542 -497.986726 
L 245.534468 -508.02457 
L 249.683517 -516.294181 
L 253.832566 -522.639693 
L 257.981615 -526.939623 
L 262.130664 -529.110739 
L 266.279712 -529.110739 
L 270.428761 -526.939623 
L 274.57781 -522.639693 
L 278.726859 -516.294181 
L 282.875908 -508.02457 
L 287.024956 -497.986726 
L 291.174005 -486.366018 
L 295.323054 -473.371627 
L 299.472103 -459.230303 
L 303.621152 -444.179822 
L 307.7702 -428.4624 
L 311.919249 -412.31833 
L 316.068298 -395.980052 
L 320.217347 -379.666871 
L 324.366396 -363.580456 
L 328.515444 -347.901251 
L 332.664493 -332.785841 
L 336.813542 -318.365297 
L 340.962591 -304.744465 
L 345.11164 -292.002137 
L 349.260688 -280.192004 
L 353.409737 -269.344261 
L 357.558786 -259.467747 
L 361.707835 -250.552459 
L 365.856884 -242.572312 
L 370.005932 -235.488004 
L 374.154981 -229.249878 
L 378.30403 -223.800667 
L 382.453079 -219.078053 
L 386.602127 -215.016962 
L 390.751176 -211.551575 
L 394.900225 -208.617009 
L 399.049274 -206.150691 
L 403.198323 -204.093399 
L 407.347371 -202.390029 
L 411.49642 -200.990079 
L 415.645469 -199.847921 
L 419.794518 -198.922859 
L 423.943567 -198.179047 
L 428.092615 -197.585273 
L 432.241664 -197.114666 
L 436.390713 -196.744335 
L 440.539762 -196.454982 
L 444.688811 -196.230497 
L 448.837859 -196.057565 
L 452.986908 -195.925281 
L 457.135957 -195.8248 
L 461.285006 -195.749007 
L 465.434055 -195.692234 
L 469.583103 -195.650004 
L 469.583103 -195.538011 
L 469.583103 -195.538011 
L 465.434055 -195.538011 
L 461.285006 -195.538011 
L 457.135957 -195.538011 
L 452.986908 -195.538011 
L 448.837859 -195.538011 
L 444.688811 -195.538011 
L 440.539762 -195.538011 
L 436.390713 -195.538011 
L 432.241664 -195.538011 
L 428.092615 -195.538011 
L 423.943567 -195.538011 
L 419.794518 -195.538011 
L 415.645469 -195.538011 
L 411.49642 -195.538011 
L 407.347371 -195.538011 
L 403.198323 -195.538011 
L 399.049274 -195.538011 
L 394.900225 -195.538011 
L 390.751176 -195.538011 
L 386.602127 -195.538011 
L 382.453079 -195.538011 
L 378.30403 -195.538011 
L 374.154981 -195.538011 
L 370.005932 -195.538011 
L 365.856884 -195.538011 
L 361.707835 -195.538011 
L 357.558786 -195.538011 
L 353.409737 -195.538011 
L 349.260688 -195.538011 
L 345.11164 -195.538011 
L 340.962591 -195.538011 
L 336.813542 -195.538011 
L 332.664493 -195.538011 
L 328.515444 -195.538011 
L 324.366396 -195.538011 
L 320.217347 -195.538011 
L 316.068298 -195.538011 
L 311.919249 -195.538011 
L 307.7702 -195.538011 
L 303.621152 -195.538011 
L 299.472103 -195.538011 
L 295.323054 -195.538011 
L 291.174005 -195.538011 
L 287.024956 -195.538011 
L 282.875908 -195.538011 
L 278.726859 -195.538011 
L 274.57781 -195.538011 
L 270.428761 -195.538011 
L 266.279712 -195.538011 
L 262.130664 -195.538011 
L 257.981615 -195.538011 
L 253.832566 -195.538011 
L 249.683517 -195.538011 
L 245.534468 -195.538011 
L 241.38542 -195.538011 
L 237.236371 -195.538011 
L 233.087322 -195.538011 
L 228.938273 -195.538011 
L 224.789225 -195.538011 
L 220.640176 -195.538011 
L 216.491127 -195.538011 
L 212.342078 -195.538011 
L 208.193029 -195.538011 
L 204.043981 -195.538011 
L 199.894932 -195.538011 
L 195.745883 -195.538011 
L 191.596834 -195.538011 
L 187.447785 -195.538011 
L 183.298737 -195.538011 
L 179.149688 -195.538011 
L 175.000639 -195.538011 
L 170.85159 -195.538011 
L 166.702541 -195.538011 
L 162.553493 -195.538011 
L 158.404444 -195.538011 
L 154.255395 -195.538011 
L 150.106346 -195.538011 
L 145.957297 -195.538011 
L 141.808249 -195.538011 
L 137.6592 -195.538011 
L 133.510151 -195.538011 
L 129.361102 -195.538011 
L 125.212053 -195.538011 
L 121.063005 -195.538011 
L 116.913956 -195.538011 
L 112.764907 -195.538011 
L 108.615858 -195.538011 
L 104.466809 -195.538011 
L 100.317761 -195.538011 
L 96.168712 -195.538011 
L 92.019663 -195.538011 
L 87.870614 -195.538011 
L 83.721565 -195.538011 
L 79.572517 -195.538011 
L 75.423468 -195.538011 
L 71.274419 -195.538011 
L 67.12537 -195.538011 
L 62.976322 -195.538011 
L 58.827273 -195.538011 
z
" id="m919e646b87" style="stroke:#36a2eb;stroke-opacity:0.5;"/>
    </defs>
    <g clip-path="url(#p5252467e8c)">
     <use style="fill:#36a2eb;fill-opacity:0.5;stroke:#36a2eb;stroke-opacity:0.5;" x="0" xlink:href="#m919e646b87" y="581.789375"/>
    </g>
   </g>
   <g id="line2d_1">
    <path clip-path="url(#p5252467e8c)" d="M 102.071804 386.140061 
L 106.246561 386.09809 
L 110.421318 386.041667 
L 114.596074 385.966341 
L 118.770831 385.866478 
L 122.945588 385.73501 
L 127.120345 385.563142 
L 131.295102 385.34004 
L 135.469858 385.052468 
L 139.644615 384.684418 
L 143.819372 384.216709 
L 147.994129 383.626592 
L 152.168886 382.88736 
L 156.343642 381.967994 
L 160.518399 380.832869 
L 164.693156 379.441541 
L 168.867913 377.748659 
L 173.04267 375.704037 
L 177.217426 373.252906 
L 181.392183 370.336411 
L 185.56694 366.892364 
L 189.741697 362.856281 
L 193.916454 358.162748 
L 198.09121 352.747094 
L 202.265967 346.547382 
L 206.440724 339.506699 
L 210.615481 331.575693 
L 214.790238 322.715305 
L 218.964994 312.899611 
L 223.139751 302.118668 
L 227.314508 290.38126 
L 231.489265 277.717399 
L 235.664022 264.180444 
L 239.838778 249.848701 
L 244.013535 234.826372 
L 248.188292 219.243719 
L 252.363049 203.256363 
L 256.537806 187.043638 
L 260.712562 170.805971 
L 264.887319 154.761315 
L 269.062076 139.140681 
L 273.236833 124.18288 
L 277.41159 110.128638 
L 281.586346 97.214266 
L 285.761103 85.665117 
L 289.93586 75.689086 
L 294.110617 67.470399 
L 298.285374 61.163962 
L 302.46013 56.890511 
L 306.634887 54.732765 
L 310.809644 54.732765 
L 314.984401 56.890511 
L 319.159158 61.163962 
L 323.333914 67.470399 
L 327.508671 75.689086 
L 331.683428 85.665117 
L 335.858185 97.214266 
L 340.032942 110.128638 
L 344.207698 124.18288 
L 348.382455 139.140681 
L 352.557212 154.761315 
L 356.731969 170.805971 
L 360.906726 187.043638 
L 365.081482 203.256363 
L 369.256239 219.243719 
L 373.430996 234.826372 
L 377.605753 249.848701 
L 381.78051 264.180444 
L 385.955266 277.717399 
L 390.130023 290.38126 
L 394.30478 302.118668 
L 398.479537 312.899611 
L 402.654294 322.715305 
L 406.82905 331.575693 
L 411.003807 339.506699 
L 415.178564 346.547382 
L 419.353321 352.747094 
L 423.528078 358.162748 
L 427.702834 362.856281 
L 431.877591 366.892364 
L 436.052348 370.336411 
L 440.227105 373.252906 
L 444.401862 375.704037 
L 448.576618 377.748659 
L 452.751375 379.441541 
L 456.926132 380.832869 
L 461.100889 381.967994 
L 465.275646 382.88736 
L 469.450402 383.626592 
L 473.625159 384.216709 
L 477.799916 384.684418 
L 481.974673 385.052468 
L 486.14943 385.34004 
L 490.324186 385.563142 
L 494.498943 385.73501 
L 498.6737 385.866478 
L 502.848457 385.966341 
L 507.023214 386.041667 
L 511.19797 386.09809 
L 515.372727 386.140061 
" style="fill:none;stroke:#ff6384;stroke-linecap:square;"/>
   </g>
   <g id="line2d_2">
    <path clip-path="url(#p5252467e8c)" d="M 58.827273 386.139371 
L 62.976322 386.097141 
L 67.12537 386.040368 
L 71.274419 385.964575 
L 75.423468 385.864094 
L 79.572517 385.73181 
L 83.721565 385.558878 
L 87.870614 385.334393 
L 92.019663 385.04504 
L 96.168712 384.674709 
L 100.317761 384.204102 
L 104.466809 383.610328 
L 108.615858 382.866516 
L 112.764907 381.941454 
L 116.913956 380.799296 
L 121.063005 379.399346 
L 125.212053 377.695976 
L 129.361102 375.638684 
L 133.510151 373.172366 
L 137.6592 370.2378 
L 141.808249 366.772413 
L 145.957297 362.711322 
L 150.106346 357.988708 
L 154.255395 352.539497 
L 158.404444 346.301371 
L 162.553493 339.217063 
L 166.702541 331.236916 
L 170.85159 322.321628 
L 175.000639 312.445114 
L 179.149688 301.597371 
L 183.298737 289.787238 
L 187.447785 277.04491 
L 191.596834 263.424078 
L 195.745883 249.003534 
L 199.894932 233.888124 
L 204.043981 218.208919 
L 208.193029 202.122504 
L 212.342078 185.809323 
L 216.491127 169.471045 
L 220.640176 153.326975 
L 224.789225 137.609553 
L 228.938273 122.559072 
L 233.087322 108.417748 
L 237.236371 95.423357 
L 241.38542 83.802649 
L 245.534468 73.764805 
L 249.683517 65.495194 
L 253.832566 59.149682 
L 257.981615 54.849752 
L 262.130664 52.678636 
L 266.279712 52.678636 
L 270.428761 54.849752 
L 274.57781 59.149682 
L 278.726859 65.495194 
L 282.875908 73.764805 
L 287.024956 83.802649 
L 291.174005 95.423357 
L 295.323054 108.417748 
L 299.472103 122.559072 
L 303.621152 137.609553 
L 307.7702 153.326975 
L 311.919249 169.471045 
L 316.068298 185.809323 
L 320.217347 202.122504 
L 324.366396 218.208919 
L 328.515444 233.888124 
L 332.664493 249.003534 
L 336.813542 263.424078 
L 340.962591 277.04491 
L 345.11164 289.787238 
L 349.260688 301.597371 
L 353.409737 312.445114 
L 357.558786 322.321628 
L 361.707835 331.236916 
L 365.856884 339.217063 
L 370.005932 346.301371 
L 374.154981 352.539497 
L 378.30403 357.988708 
L 382.453079 362.711322 
L 386.602127 366.772413 
L 390.751176 370.2378 
L 394.900225 373.172366 
L 399.049274 375.638684 
L 403.198323 377.695976 
L 407.347371 379.399346 
L 411.49642 380.799296 
L 415.645469 381.941454 
L 419.794518 382.866516 
L 423.943567 383.610328 
L 428.092615 384.204102 
L 432.241664 384.674709 
L 436.390713 385.04504 
L 440.539762 385.334393 
L 444.688811 385.558878 
L 448.837859 385.73181 
L 452.986908 385.864094 
L 457.135957 385.964575 
L 461.285006 386.040368 
L 465.434055 386.097141 
L 469.583103 386.139371 
" style="fill:none;stroke:#36a2eb;stroke-linecap:square;"/>
   </g>
   <g id="patch_3">
    <path d="M 36 402.93 
L 538.2 402.93 
" style="fill:none;stroke:#000000;stroke-linecap:square;stroke-linejoin:miter;stroke-width:0.8;"/>
   </g>
   <g id="legend_1">
    <g id="patch_4">
     <path d="M 410.290313 88.688125 
L 528.4 88.688125 
Q 531.2 88.688125 531.2 85.888125 
L 531.2 45.8 
Q 531.2 43 528.4 43 
L 410.290313 43 
Q 407.490313 43 407.490313 45.8 
L 407.490313 85.888125 
Q 407.490313 88.688125 410.290313 88.688125 
z
" style="fill:#ffffff;opacity:0.8;stroke:#cccccc;stroke-linejoin:miter;"/>
    </g>
    <g id="patch_5">
     <path d="M 413.090313 59.237813 
L 441.090313 59.237813 
L 441.090313 49.437813 
L 413.090313 49.437813 
z
" style="fill:#ff6384;opacity:0.5;stroke:#ff6384;stroke-linejoin:miter;"/>
    </g>
    <g id="text_1">
     <!-- base -->
     <defs>
      <path d="M 48.6875 27.296875 
Q 48.6875 37.203125 44.609375 42.84375 
Q 40.53125 48.484375 33.40625 48.484375 
Q 26.265625 48.484375 22.1875 42.84375 
Q 18.109375 37.203125 18.109375 27.296875 
Q 18.109375 17.390625 22.1875 11.75 
Q 26.265625 6.109375 33.40625 6.109375 
Q 40.53125 6.109375 44.609375 11.75 
Q 48.6875 17.390625 48.6875 27.296875 
z
M 18.109375 46.390625 
Q 20.953125 51.265625 25.265625 53.625 
Q 29.59375 56 35.59375 56 
Q 45.5625 56 51.78125 48.09375 
Q 58.015625 40.1875 58.015625 27.296875 
Q 58.015625 14.40625 51.78125 6.484375 
Q 45.5625 -1.421875 35.59375 -1.421875 
Q 29.59375 -1.421875 25.265625 0.953125 
Q 20.953125 3.328125 18.109375 8.203125 
L 18.109375 0 
L 9.078125 0 
L 9.078125 75.984375 
L 18.109375 75.984375 
z
" id="DejaVuSans-98"/>
      <path d="M 34.28125 27.484375 
Q 23.390625 27.484375 19.1875 25 
Q 14.984375 22.515625 14.984375 16.5 
Q 14.984375 11.71875 18.140625 8.90625 
Q 21.296875 6.109375 26.703125 6.109375 
Q 34.1875 6.109375 38.703125 11.40625 
Q 43.21875 16.703125 43.21875 25.484375 
L 43.21875 27.484375 
z
M 52.203125 31.203125 
L 52.203125 0 
L 43.21875 0 
L 43.21875 8.296875 
Q 40.140625 3.328125 35.546875 0.953125 
Q 30.953125 -1.421875 24.3125 -1.421875 
Q 15.921875 -1.421875 10.953125 3.296875 
Q 6 8.015625 6 15.921875 
Q 6 25.140625 12.171875 29.828125 
Q 18.359375 34.515625 30.609375 34.515625 
L 43.21875 34.515625 
L 43.21875 35.40625 
Q 43.21875 41.609375 39.140625 45 
Q 35.0625 48.390625 27.6875 48.390625 
Q 23 48.390625 18.546875 47.265625 
Q 14.109375 46.140625 10.015625 43.890625 
L 10.015625 52.203125 
Q 14.9375 54.109375 19.578125 55.046875 
Q 24.21875 56 28.609375 56 
Q 40.484375 56 46.34375 49.84375 
Q 52.203125 43.703125 52.203125 31.203125 
z
" id="DejaVuSans-97"/>
      <path d="M 44.28125 53.078125 
L 44.28125 44.578125 
Q 40.484375 46.53125 36.375 47.5 
Q 32.28125 48.484375 27.875 48.484375 
Q 21.1875 48.484375 17.84375 46.4375 
Q 14.5 44.390625 14.5 40.28125 
Q 14.5 37.15625 16.890625 35.375 
Q 19.28125 33.59375 26.515625 31.984375 
L 29.59375 31.296875 
Q 39.15625 29.25 43.1875 25.515625 
Q 47.21875 21.78125 47.21875 15.09375 
Q 47.21875 7.46875 41.1875 3.015625 
Q 35.15625 -1.421875 24.609375 -1.421875 
Q 20.21875 -1.421875 15.453125 -0.5625 
Q 10.6875 0.296875 5.421875 2 
L 5.421875 11.28125 
Q 10.40625 8.6875 15.234375 7.390625 
Q 20.0625 6.109375 24.8125 6.109375 
Q 31.15625 6.109375 34.5625 8.28125 
Q 37.984375 10.453125 37.984375 14.40625 
Q 37.984375 18.0625 35.515625 20.015625 
Q 33.0625 21.96875 24.703125 23.78125 
L 21.578125 24.515625 
Q 13.234375 26.265625 9.515625 29.90625 
Q 5.8125 33.546875 5.8125 39.890625 
Q 5.8125 47.609375 11.28125 51.796875 
Q 16.75 56 26.8125 56 
Q 31.78125 56 36.171875 55.265625 
Q 40.578125 54.546875 44.28125 53.078125 
z
" id="DejaVuSans-115"/>
      <path d="M 56.203125 29.59375 
L 56.203125 25.203125 
L 14.890625 25.203125 
Q 15.484375 15.921875 20.484375 11.0625 
Q 25.484375 6.203125 34.421875 6.203125 
Q 39.59375 6.203125 44.453125 7.46875 
Q 49.3125 8.734375 54.109375 11.28125 
L 54.109375 2.78125 
Q 49.265625 0.734375 44.1875 -0.34375 
Q 39.109375 -1.421875 33.890625 -1.421875 
Q 20.796875 -1.421875 13.15625 6.1875 
Q 5.515625 13.8125 5.515625 26.8125 
Q 5.515625 40.234375 12.765625 48.109375 
Q 20.015625 56 32.328125 56 
Q 43.359375 56 49.78125 48.890625 
Q 56.203125 41.796875 56.203125 29.59375 
z
M 47.21875 32.234375 
Q 47.125 39.59375 43.09375 43.984375 
Q 39.0625 48.390625 32.421875 48.390625 
Q 24.90625 48.390625 20.390625 44.140625 
Q 15.875 39.890625 15.1875 32.171875 
z
" id="DejaVuSans-101"/>
     </defs>
     <g transform="translate(452.290313 59.237813)scale(0.14 -0.14)">
      <use xlink:href="#DejaVuSans-98"/>
      <use x="63.476562" xlink:href="#DejaVuSans-97"/>
      <use x="124.755859" xlink:href="#DejaVuSans-115"/>
      <use x="176.855469" xlink:href="#DejaVuSans-101"/>
     </g>
    </g>
    <g id="patch_6">
     <path d="M 413.090313 79.787188 
L 441.090313 79.787188 
L 441.090313 69.987188 
L 413.090313 69.987188 
z
" style="fill:#36a2eb;opacity:0.5;stroke:#36a2eb;stroke-linejoin:miter;"/>
    </g>
    <g id="text_2">
     <!-- no_license -->
     <defs>
      <path d="M 54.890625 33.015625 
L 54.890625 0 
L 45.90625 0 
L 45.90625 32.71875 
Q 45.90625 40.484375 42.875 44.328125 
Q 39.84375 48.1875 33.796875 48.1875 
Q 26.515625 48.1875 22.3125 43.546875 
Q 18.109375 38.921875 18.109375 30.90625 
L 18.109375 0 
L 9.078125 0 
L 9.078125 54.6875 
L 18.109375 54.6875 
L 18.109375 46.1875 
Q 21.34375 51.125 25.703125 53.5625 
Q 30.078125 56 35.796875 56 
Q 45.21875 56 50.046875 50.171875 
Q 54.890625 44.34375 54.890625 33.015625 
z
" id="DejaVuSans-110"/>
      <path d="M 30.609375 48.390625 
Q 23.390625 48.390625 19.1875 42.75 
Q 14.984375 37.109375 14.984375 27.296875 
Q 14.984375 17.484375 19.15625 11.84375 
Q 23.34375 6.203125 30.609375 6.203125 
Q 37.796875 6.203125 41.984375 11.859375 
Q 46.1875 17.53125 46.1875 27.296875 
Q 46.1875 37.015625 41.984375 42.703125 
Q 37.796875 48.390625 30.609375 48.390625 
z
M 30.609375 56 
Q 42.328125 56 49.015625 48.375 
Q 55.71875 40.765625 55.71875 27.296875 
Q 55.71875 13.875 49.015625 6.21875 
Q 42.328125 -1.421875 30.609375 -1.421875 
Q 18.84375 -1.421875 12.171875 6.21875 
Q 5.515625 13.875 5.515625 27.296875 
Q 5.515625 40.765625 12.171875 48.375 
Q 18.84375 56 30.609375 56 
z
" id="DejaVuSans-111"/>
      <path d="M 50.984375 -16.609375 
L 50.984375 -23.578125 
L -0.984375 -23.578125 
L -0.984375 -16.609375 
z
" id="DejaVuSans-95"/>
      <path d="M 9.421875 75.984375 
L 18.40625 75.984375 
L 18.40625 0 
L 9.421875 0 
z
" id="DejaVuSans-108"/>
      <path d="M 9.421875 54.6875 
L 18.40625 54.6875 
L 18.40625 0 
L 9.421875 0 
z
M 9.421875 75.984375 
L 18.40625 75.984375 
L 18.40625 64.59375 
L 9.421875 64.59375 
z
" id="DejaVuSans-105"/>
      <path d="M 48.78125 52.59375 
L 48.78125 44.1875 
Q 44.96875 46.296875 41.140625 47.34375 
Q 37.3125 48.390625 33.40625 48.390625 
Q 24.65625 48.390625 19.8125 42.84375 
Q 14.984375 37.3125 14.984375 27.296875 
Q 14.984375 17.28125 19.8125 11.734375 
Q 24.65625 6.203125 33.40625 6.203125 
Q 37.3125 6.203125 41.140625 7.25 
Q 44.96875 8.296875 48.78125 10.40625 
L 48.78125 2.09375 
Q 45.015625 0.34375 40.984375 -0.53125 
Q 36.96875 -1.421875 32.421875 -1.421875 
Q 20.0625 -1.421875 12.78125 6.34375 
Q 5.515625 14.109375 5.515625 27.296875 
Q 5.515625 40.671875 12.859375 48.328125 
Q 20.21875 56 33.015625 56 
Q 37.15625 56 41.109375 55.140625 
Q 45.0625 54.296875 48.78125 52.59375 
z
" id="DejaVuSans-99"/>
     </defs>
     <g transform="translate(452.290313 79.787188)scale(0.14 -0.14)">
      <use xlink:href="#DejaVuSans-110"/>
      <use x="63.378906" xlink:href="#DejaVuSans-111"/>
      <use x="124.560547" xlink:href="#DejaVuSans-95"/>
      <use x="174.560547" xlink:href="#DejaVuSans-108"/>
      <use x="202.34375" xlink:href="#DejaVuSans-105"/>
      <use x="230.126953" xlink:href="#DejaVuSans-99"/>
      <use x="285.107422" xlink:href="#DejaVuSans-101"/>
      <use x="346.630859" xlink:href="#DejaVuSans-110"/>
      <use x="410.009766" xlink:href="#DejaVuSans-115"/>
      <use x="462.109375" xlink:href="#DejaVuSans-101"/>
     </g>
    </g>
   </g>
  </g>
  <g id="axes_2">
   <g id="patch_7">
    <path d="M 36 525.24 
L 538.2 525.24 
L 538.2 402.93 
L 36 402.93 
z
" style="fill:none;"/>
   </g>
   <g id="patch_8">
    <path clip-path="url(#p86ad8b87c7)" d="M 207.463539 519.680455 
L 409.980992 519.680455 
L 409.980992 482.616818 
L 207.463539 482.616818 
z
" style="fill:#ff6384;opacity:0.5;"/>
   </g>
   <g id="patch_9">
    <path clip-path="url(#p86ad8b87c7)" d="M 163.57001 445.553182 
L 364.840367 445.553182 
L 364.840367 408.489545 
L 163.57001 408.489545 
z
" style="fill:#36a2eb;opacity:0.5;"/>
   </g>
   <g id="matplotlib.axis_1">
    <g id="xtick_1">
     <g id="line2d_3">
      <defs>
       <path d="M 0 0 
L 0 3.5 
" id="md9142cc75e" style="stroke:#000000;stroke-width:0.8;"/>
      </defs>
      <g>
       <use style="stroke:#000000;stroke-width:0.8;" x="100.975903" xlink:href="#md9142cc75e" y="525.24"/>
      </g>
     </g>
     <g id="text_3">
      <!-- 5.0 -->
      <defs>
       <path d="M 10.796875 72.90625 
L 49.515625 72.90625 
L 49.515625 64.59375 
L 19.828125 64.59375 
L 19.828125 46.734375 
Q 21.96875 47.46875 24.109375 47.828125 
Q 26.265625 48.1875 28.421875 48.1875 
Q 40.625 48.1875 47.75 41.5 
Q 54.890625 34.8125 54.890625 23.390625 
Q 54.890625 11.625 47.5625 5.09375 
Q 40.234375 -1.421875 26.90625 -1.421875 
Q 22.3125 -1.421875 17.546875 -0.640625 
Q 12.796875 0.140625 7.71875 1.703125 
L 7.71875 11.625 
Q 12.109375 9.234375 16.796875 8.0625 
Q 21.484375 6.890625 26.703125 6.890625 
Q 35.15625 6.890625 40.078125 11.328125 
Q 45.015625 15.765625 45.015625 23.390625 
Q 45.015625 31 40.078125 35.4375 
Q 35.15625 39.890625 26.703125 39.890625 
Q 22.75 39.890625 18.8125 39.015625 
Q 14.890625 38.140625 10.796875 36.28125 
z
" id="DejaVuSans-53"/>
       <path d="M 10.6875 12.40625 
L 21 12.40625 
L 21 0 
L 10.6875 0 
z
" id="DejaVuSans-46"/>
       <path d="M 31.78125 66.40625 
Q 24.171875 66.40625 20.328125 58.90625 
Q 16.5 51.421875 16.5 36.375 
Q 16.5 21.390625 20.328125 13.890625 
Q 24.171875 6.390625 31.78125 6.390625 
Q 39.453125 6.390625 43.28125 13.890625 
Q 47.125 21.390625 47.125 36.375 
Q 47.125 51.421875 43.28125 58.90625 
Q 39.453125 66.40625 31.78125 66.40625 
z
M 31.78125 74.21875 
Q 44.046875 74.21875 50.515625 64.515625 
Q 56.984375 54.828125 56.984375 36.375 
Q 56.984375 17.96875 50.515625 8.265625 
Q 44.046875 -1.421875 31.78125 -1.421875 
Q 19.53125 -1.421875 13.0625 8.265625 
Q 6.59375 17.96875 6.59375 36.375 
Q 6.59375 54.828125 13.0625 64.515625 
Q 19.53125 74.21875 31.78125 74.21875 
z
" id="DejaVuSans-48"/>
      </defs>
      <g transform="translate(89.843716 542.877813)scale(0.14 -0.14)">
       <use xlink:href="#DejaVuSans-53"/>
       <use x="63.623047" xlink:href="#DejaVuSans-46"/>
       <use x="95.410156" xlink:href="#DejaVuSans-48"/>
      </g>
     </g>
    </g>
    <g id="xtick_2">
     <g id="line2d_4">
      <g>
       <use style="stroke:#000000;stroke-width:0.8;" x="193.719815" xlink:href="#md9142cc75e" y="525.24"/>
      </g>
     </g>
     <g id="text_4">
      <!-- 5.5 -->
      <g transform="translate(182.587628 542.877813)scale(0.14 -0.14)">
       <use xlink:href="#DejaVuSans-53"/>
       <use x="63.623047" xlink:href="#DejaVuSans-46"/>
       <use x="95.410156" xlink:href="#DejaVuSans-53"/>
      </g>
     </g>
    </g>
    <g id="xtick_3">
     <g id="line2d_5">
      <g>
       <use style="stroke:#000000;stroke-width:0.8;" x="286.463727" xlink:href="#md9142cc75e" y="525.24"/>
      </g>
     </g>
     <g id="text_5">
      <!-- 6.0 -->
      <defs>
       <path d="M 33.015625 40.375 
Q 26.375 40.375 22.484375 35.828125 
Q 18.609375 31.296875 18.609375 23.390625 
Q 18.609375 15.53125 22.484375 10.953125 
Q 26.375 6.390625 33.015625 6.390625 
Q 39.65625 6.390625 43.53125 10.953125 
Q 47.40625 15.53125 47.40625 23.390625 
Q 47.40625 31.296875 43.53125 35.828125 
Q 39.65625 40.375 33.015625 40.375 
z
M 52.59375 71.296875 
L 52.59375 62.3125 
Q 48.875 64.0625 45.09375 64.984375 
Q 41.3125 65.921875 37.59375 65.921875 
Q 27.828125 65.921875 22.671875 59.328125 
Q 17.53125 52.734375 16.796875 39.40625 
Q 19.671875 43.65625 24.015625 45.921875 
Q 28.375 48.1875 33.59375 48.1875 
Q 44.578125 48.1875 50.953125 41.515625 
Q 57.328125 34.859375 57.328125 23.390625 
Q 57.328125 12.15625 50.6875 5.359375 
Q 44.046875 -1.421875 33.015625 -1.421875 
Q 20.359375 -1.421875 13.671875 8.265625 
Q 6.984375 17.96875 6.984375 36.375 
Q 6.984375 53.65625 15.1875 63.9375 
Q 23.390625 74.21875 37.203125 74.21875 
Q 40.921875 74.21875 44.703125 73.484375 
Q 48.484375 72.75 52.59375 71.296875 
z
" id="DejaVuSans-54"/>
      </defs>
      <g transform="translate(275.331539 542.877813)scale(0.14 -0.14)">
       <use xlink:href="#DejaVuSans-54"/>
       <use x="63.623047" xlink:href="#DejaVuSans-46"/>
       <use x="95.410156" xlink:href="#DejaVuSans-48"/>
      </g>
     </g>
    </g>
    <g id="xtick_4">
     <g id="line2d_6">
      <g>
       <use style="stroke:#000000;stroke-width:0.8;" x="379.207639" xlink:href="#md9142cc75e" y="525.24"/>
      </g>
     </g>
     <g id="text_6">
      <!-- 6.5 -->
      <g transform="translate(368.075451 542.877813)scale(0.14 -0.14)">
       <use xlink:href="#DejaVuSans-54"/>
       <use x="63.623047" xlink:href="#DejaVuSans-46"/>
       <use x="95.410156" xlink:href="#DejaVuSans-53"/>
      </g>
     </g>
    </g>
    <g id="xtick_5">
     <g id="line2d_7">
      <g>
       <use style="stroke:#000000;stroke-width:0.8;" x="471.95155" xlink:href="#md9142cc75e" y="525.24"/>
      </g>
     </g>
     <g id="text_7">
      <!-- 7.0 -->
      <defs>
       <path d="M 8.203125 72.90625 
L 55.078125 72.90625 
L 55.078125 68.703125 
L 28.609375 0 
L 18.3125 0 
L 43.21875 64.59375 
L 8.203125 64.59375 
z
" id="DejaVuSans-55"/>
      </defs>
      <g transform="translate(460.819363 542.877813)scale(0.14 -0.14)">
       <use xlink:href="#DejaVuSans-55"/>
       <use x="63.623047" xlink:href="#DejaVuSans-46"/>
       <use x="95.410156" xlink:href="#DejaVuSans-48"/>
      </g>
     </g>
    </g>
   </g>
   <g id="line2d_8">
    <path clip-path="url(#p86ad8b87c7)" d="M 308.722266 525.24 
L 308.722266 402.93 
" style="fill:none;stroke:#ff6384;stroke-dasharray:5.55,2.4;stroke-dashoffset:0;stroke-opacity:0.8;stroke-width:1.5;"/>
   </g>
   <g id="line2d_9">
    <path clip-path="url(#p86ad8b87c7)" d="M 264.205188 525.24 
L 264.205188 402.93 
" style="fill:none;stroke:#36a2eb;stroke-dasharray:5.55,2.4;stroke-dashoffset:0;stroke-opacity:0.8;stroke-width:1.5;"/>
   </g>
   <g id="patch_10">
    <path d="M 36 525.24 
L 538.2 525.24 
" style="fill:none;stroke:#000000;stroke-linecap:square;stroke-linejoin:miter;stroke-width:0.8;"/>
   </g>
  </g>
 </g>
 <defs>
  <clipPath id="p5252467e8c">
   <rect height="366.93" width="502.2" x="36" y="36"/>
  </clipPath>
  <clipPath id="p86ad8b87c7">
   <rect height="122.31" width="502.2" x="36" y="402.93"/>
  </clipPath>
 </defs>
</svg>
