<?xml version="1.0" encoding="utf-8" standalone="no"?>
<!DOCTYPE svg PUBLIC "-//W3C//DTD SVG 1.1//EN"
  "http://www.w3.org/Graphics/SVG/1.1/DTD/svg11.dtd">
<!-- Created with matplotlib (https://matplotlib.org/) -->
<svg height="581.789375pt" version="1.1" viewBox="0 0 574.2 581.789375" width="574.2pt" xmlns="http://www.w3.org/2000/svg" xmlns:xlink="http://www.w3.org/1999/xlink">
 <defs>
  <style type="text/css">
*{stroke-linecap:butt;stroke-linejoin:round;}
  </style>
 </defs>
 <g id="figure_1">
  <g id="patch_1">
   <path d="M 0 581.789375 
L 574.2 581.789375 
L 574.2 0 
L 0 0 
z
" style="fill:none;"/>
  </g>
  <g id="axes_1">
   <g id="patch_2">
    <path d="M 36 402.93 
L 538.2 402.93 
L 538.2 36 
L 36 36 
z
" style="fill:none;"/>
   </g>
   <g id="PolyCollection_1">
    <defs>
     <path d="M 106.80975 -195.538011 
L 106.80975 -195.649205 
L 110.936649 -195.691134 
L 115.063548 -195.747502 
L 119.190447 -195.822754 
L 123.317345 -195.922518 
L 127.444244 -196.053858 
L 131.571143 -196.225556 
L 135.698042 -196.44844 
L 139.82494 -196.735729 
L 143.951839 -197.103417 
L 148.078738 -197.570667 
L 152.205637 -198.160204 
L 156.332536 -198.89871 
L 160.459434 -199.817172 
L 164.586333 -200.951182 
L 168.713232 -202.341143 
L 172.840131 -204.032361 
L 176.967029 -206.074975 
L 181.093928 -208.523698 
L 185.220827 -211.437326 
L 189.347726 -214.87799 
L 193.474624 -218.910107 
L 197.601523 -223.599028 
L 201.728422 -229.009362 
L 205.855321 -235.202982 
L 209.982219 -242.236747 
L 214.109118 -250.15996 
L 218.236017 -259.011642 
L 222.362916 -268.817692 
L 226.489814 -279.588043 
L 230.616713 -291.313917 
L 234.743612 -303.965335 
L 238.870511 -317.48899 
L 242.997409 -331.806651 
L 247.124308 -346.81422 
L 251.251207 -362.381562 
L 255.378106 -378.353209 
L 259.505004 -394.550005 
L 263.631903 -410.771718 
L 267.758802 -426.800609 
L 271.885701 -442.405895 
L 276.012599 -457.348999 
L 280.139498 -471.389432 
L 284.266397 -484.291115 
L 288.393296 -495.828916 
L 292.520194 -505.795145 
L 296.647093 -514.005757 
L 300.773992 -520.305997 
L 304.900891 -524.575249 
L 309.027789 -526.730875 
L 313.154688 -526.730875 
L 317.281587 -524.575249 
L 321.408486 -520.305997 
L 325.535384 -514.005757 
L 329.662283 -505.795145 
L 333.789182 -495.828916 
L 337.916081 -484.291115 
L 342.04298 -471.389432 
L 346.169878 -457.348999 
L 350.296777 -442.405895 
L 354.423676 -426.800609 
L 358.550575 -410.771718 
L 362.677473 -394.550005 
L 366.804372 -378.353209 
L 370.931271 -362.381562 
L 375.05817 -346.81422 
L 379.185068 -331.806651 
L 383.311967 -317.48899 
L 387.438866 -303.965335 
L 391.565765 -291.313917 
L 395.692663 -279.588043 
L 399.819562 -268.817692 
L 403.946461 -259.011642 
L 408.07336 -250.15996 
L 412.200258 -242.236747 
L 416.327157 -235.202982 
L 420.454056 -229.009362 
L 424.580955 -223.599028 
L 428.707853 -218.910107 
L 432.834752 -214.87799 
L 436.961651 -211.437326 
L 441.08855 -208.523698 
L 445.215448 -206.074975 
L 449.342347 -204.032361 
L 453.469246 -202.341143 
L 457.596145 -200.951182 
L 461.723043 -199.817172 
L 465.849942 -198.89871 
L 469.976841 -198.160204 
L 474.10374 -197.570667 
L 478.230638 -197.103417 
L 482.357537 -196.735729 
L 486.484436 -196.44844 
L 490.611335 -196.225556 
L 494.738233 -196.053858 
L 498.865132 -195.922518 
L 502.992031 -195.822754 
L 507.11893 -195.747502 
L 511.245829 -195.691134 
L 515.372727 -195.649205 
L 515.372727 -195.538011 
L 515.372727 -195.538011 
L 511.245829 -195.538011 
L 507.11893 -195.538011 
L 502.992031 -195.538011 
L 498.865132 -195.538011 
L 494.738233 -195.538011 
L 490.611335 -195.538011 
L 486.484436 -195.538011 
L 482.357537 -195.538011 
L 478.230638 -195.538011 
L 474.10374 -195.538011 
L 469.976841 -195.538011 
L 465.849942 -195.538011 
L 461.723043 -195.538011 
L 457.596145 -195.538011 
L 453.469246 -195.538011 
L 449.342347 -195.538011 
L 445.215448 -195.538011 
L 441.08855 -195.538011 
L 436.961651 -195.538011 
L 432.834752 -195.538011 
L 428.707853 -195.538011 
L 424.580955 -195.538011 
L 420.454056 -195.538011 
L 416.327157 -195.538011 
L 412.200258 -195.538011 
L 408.07336 -195.538011 
L 403.946461 -195.538011 
L 399.819562 -195.538011 
L 395.692663 -195.538011 
L 391.565765 -195.538011 
L 387.438866 -195.538011 
L 383.311967 -195.538011 
L 379.185068 -195.538011 
L 375.05817 -195.538011 
L 370.931271 -195.538011 
L 366.804372 -195.538011 
L 362.677473 -195.538011 
L 358.550575 -195.538011 
L 354.423676 -195.538011 
L 350.296777 -195.538011 
L 346.169878 -195.538011 
L 342.04298 -195.538011 
L 337.916081 -195.538011 
L 333.789182 -195.538011 
L 329.662283 -195.538011 
L 325.535384 -195.538011 
L 321.408486 -195.538011 
L 317.281587 -195.538011 
L 313.154688 -195.538011 
L 309.027789 -195.538011 
L 304.900891 -195.538011 
L 300.773992 -195.538011 
L 296.647093 -195.538011 
L 292.520194 -195.538011 
L 288.393296 -195.538011 
L 284.266397 -195.538011 
L 280.139498 -195.538011 
L 276.012599 -195.538011 
L 271.885701 -195.538011 
L 267.758802 -195.538011 
L 263.631903 -195.538011 
L 259.505004 -195.538011 
L 255.378106 -195.538011 
L 251.251207 -195.538011 
L 247.124308 -195.538011 
L 242.997409 -195.538011 
L 238.870511 -195.538011 
L 234.743612 -195.538011 
L 230.616713 -195.538011 
L 226.489814 -195.538011 
L 222.362916 -195.538011 
L 218.236017 -195.538011 
L 214.109118 -195.538011 
L 209.982219 -195.538011 
L 205.855321 -195.538011 
L 201.728422 -195.538011 
L 197.601523 -195.538011 
L 193.474624 -195.538011 
L 189.347726 -195.538011 
L 185.220827 -195.538011 
L 181.093928 -195.538011 
L 176.967029 -195.538011 
L 172.840131 -195.538011 
L 168.713232 -195.538011 
L 164.586333 -195.538011 
L 160.459434 -195.538011 
L 156.332536 -195.538011 
L 152.205637 -195.538011 
L 148.078738 -195.538011 
L 143.951839 -195.538011 
L 139.82494 -195.538011 
L 135.698042 -195.538011 
L 131.571143 -195.538011 
L 127.444244 -195.538011 
L 123.317345 -195.538011 
L 119.190447 -195.538011 
L 115.063548 -195.538011 
L 110.936649 -195.538011 
L 106.80975 -195.538011 
z
" id="md5f9c775e4" style="stroke:#ff6384;stroke-opacity:0.5;"/>
    </defs>
    <g clip-path="url(#p8a4b996b01)">
     <use style="fill:#ff6384;fill-opacity:0.5;stroke:#ff6384;stroke-opacity:0.5;" x="0" xlink:href="#md5f9c775e4" y="581.789375"/>
    </g>
   </g>
   <g id="PolyCollection_2">
    <defs>
     <path d="M 58.827273 -195.538011 
L 58.827273 -195.650004 
L 62.924728 -195.692234 
L 67.022184 -195.749007 
L 71.119639 -195.8248 
L 75.217095 -195.925281 
L 79.31455 -196.057565 
L 83.412006 -196.230497 
L 87.509461 -196.454982 
L 91.606917 -196.744335 
L 95.704373 -197.114666 
L 99.801828 -197.585273 
L 103.899284 -198.179047 
L 107.996739 -198.922859 
L 112.094195 -199.847921 
L 116.19165 -200.990079 
L 120.289106 -202.390029 
L 124.386561 -204.093399 
L 128.484017 -206.150691 
L 132.581472 -208.617009 
L 136.678928 -211.551575 
L 140.776383 -215.016962 
L 144.873839 -219.078053 
L 148.971294 -223.800667 
L 153.06875 -229.249878 
L 157.166205 -235.488004 
L 161.263661 -242.572312 
L 165.361117 -250.552459 
L 169.458572 -259.467747 
L 173.556028 -269.344261 
L 177.653483 -280.192004 
L 181.750939 -292.002137 
L 185.848394 -304.744465 
L 189.94585 -318.365297 
L 194.043305 -332.785841 
L 198.140761 -347.901251 
L 202.238216 -363.580456 
L 206.335672 -379.666871 
L 210.433127 -395.980052 
L 214.530583 -412.31833 
L 218.628038 -428.4624 
L 222.725494 -444.179822 
L 226.82295 -459.230303 
L 230.920405 -473.371627 
L 235.017861 -486.366018 
L 239.115316 -497.986726 
L 243.212772 -508.02457 
L 247.310227 -516.294181 
L 251.407683 -522.639693 
L 255.505138 -526.939623 
L 259.602594 -529.110739 
L 263.700049 -529.110739 
L 267.797505 -526.939623 
L 271.89496 -522.639693 
L 275.992416 -516.294181 
L 280.089871 -508.02457 
L 284.187327 -497.986726 
L 288.284783 -486.366018 
L 292.382238 -473.371627 
L 296.479694 -459.230303 
L 300.577149 -444.179822 
L 304.674605 -428.4624 
L 308.77206 -412.31833 
L 312.869516 -395.980052 
L 316.966971 -379.666871 
L 321.064427 -363.580456 
L 325.161882 -347.901251 
L 329.259338 -332.785841 
L 333.356793 -318.365297 
L 337.454249 -304.744465 
L 341.551704 -292.002137 
L 345.64916 -280.192004 
L 349.746615 -269.344261 
L 353.844071 -259.467747 
L 357.941527 -250.552459 
L 362.038982 -242.572312 
L 366.136438 -235.488004 
L 370.233893 -229.249878 
L 374.331349 -223.800667 
L 378.428804 -219.078053 
L 382.52626 -215.016962 
L 386.623715 -211.551575 
L 390.721171 -208.617009 
L 394.818626 -206.150691 
L 398.916082 -204.093399 
L 403.013537 -202.390029 
L 407.110993 -200.990079 
L 411.208448 -199.847921 
L 415.305904 -198.922859 
L 419.40336 -198.179047 
L 423.500815 -197.585273 
L 427.598271 -197.114666 
L 431.695726 -196.744335 
L 435.793182 -196.454982 
L 439.890637 -196.230497 
L 443.988093 -196.057565 
L 448.085548 -195.925281 
L 452.183004 -195.8248 
L 456.280459 -195.749007 
L 460.377915 -195.692234 
L 464.47537 -195.650004 
L 464.47537 -195.538011 
L 464.47537 -195.538011 
L 460.377915 -195.538011 
L 456.280459 -195.538011 
L 452.183004 -195.538011 
L 448.085548 -195.538011 
L 443.988093 -195.538011 
L 439.890637 -195.538011 
L 435.793182 -195.538011 
L 431.695726 -195.538011 
L 427.598271 -195.538011 
L 423.500815 -195.538011 
L 419.40336 -195.538011 
L 415.305904 -195.538011 
L 411.208448 -195.538011 
L 407.110993 -195.538011 
L 403.013537 -195.538011 
L 398.916082 -195.538011 
L 394.818626 -195.538011 
L 390.721171 -195.538011 
L 386.623715 -195.538011 
L 382.52626 -195.538011 
L 378.428804 -195.538011 
L 374.331349 -195.538011 
L 370.233893 -195.538011 
L 366.136438 -195.538011 
L 362.038982 -195.538011 
L 357.941527 -195.538011 
L 353.844071 -195.538011 
L 349.746615 -195.538011 
L 345.64916 -195.538011 
L 341.551704 -195.538011 
L 337.454249 -195.538011 
L 333.356793 -195.538011 
L 329.259338 -195.538011 
L 325.161882 -195.538011 
L 321.064427 -195.538011 
L 316.966971 -195.538011 
L 312.869516 -195.538011 
L 308.77206 -195.538011 
L 304.674605 -195.538011 
L 300.577149 -195.538011 
L 296.479694 -195.538011 
L 292.382238 -195.538011 
L 288.284783 -195.538011 
L 284.187327 -195.538011 
L 280.089871 -195.538011 
L 275.992416 -195.538011 
L 271.89496 -195.538011 
L 267.797505 -195.538011 
L 263.700049 -195.538011 
L 259.602594 -195.538011 
L 255.505138 -195.538011 
L 251.407683 -195.538011 
L 247.310227 -195.538011 
L 243.212772 -195.538011 
L 239.115316 -195.538011 
L 235.017861 -195.538011 
L 230.920405 -195.538011 
L 226.82295 -195.538011 
L 222.725494 -195.538011 
L 218.628038 -195.538011 
L 214.530583 -195.538011 
L 210.433127 -195.538011 
L 206.335672 -195.538011 
L 202.238216 -195.538011 
L 198.140761 -195.538011 
L 194.043305 -195.538011 
L 189.94585 -195.538011 
L 185.848394 -195.538011 
L 181.750939 -195.538011 
L 177.653483 -195.538011 
L 173.556028 -195.538011 
L 169.458572 -195.538011 
L 165.361117 -195.538011 
L 161.263661 -195.538011 
L 157.166205 -195.538011 
L 153.06875 -195.538011 
L 148.971294 -195.538011 
L 144.873839 -195.538011 
L 140.776383 -195.538011 
L 136.678928 -195.538011 
L 132.581472 -195.538011 
L 128.484017 -195.538011 
L 124.386561 -195.538011 
L 120.289106 -195.538011 
L 116.19165 -195.538011 
L 112.094195 -195.538011 
L 107.996739 -195.538011 
L 103.899284 -195.538011 
L 99.801828 -195.538011 
L 95.704373 -195.538011 
L 91.606917 -195.538011 
L 87.509461 -195.538011 
L 83.412006 -195.538011 
L 79.31455 -195.538011 
L 75.217095 -195.538011 
L 71.119639 -195.538011 
L 67.022184 -195.538011 
L 62.924728 -195.538011 
L 58.827273 -195.538011 
z
" id="m8eb68b3b05" style="stroke:#36a2eb;stroke-opacity:0.5;"/>
    </defs>
    <g clip-path="url(#p8a4b996b01)">
     <use style="fill:#36a2eb;fill-opacity:0.5;stroke:#36a2eb;stroke-opacity:0.5;" x="0" xlink:href="#m8eb68b3b05" y="581.789375"/>
    </g>
   </g>
   <g id="line2d_1">
    <path clip-path="url(#p8a4b996b01)" d="M 106.80975 386.14017 
L 110.936649 386.098241 
L 115.063548 386.041873 
L 119.190447 385.966621 
L 123.317345 385.866857 
L 127.444244 385.735517 
L 131.571143 385.563819 
L 135.698042 385.340935 
L 139.82494 385.053646 
L 143.951839 384.685958 
L 148.078738 384.218708 
L 152.205637 383.629171 
L 156.332536 382.890665 
L 160.459434 381.972203 
L 164.586333 380.838193 
L 168.713232 379.448232 
L 172.840131 377.757014 
L 176.967029 375.7144 
L 181.093928 373.265677 
L 185.220827 370.352049 
L 189.347726 366.911385 
L 193.474624 362.879268 
L 197.601523 358.190347 
L 201.728422 352.780013 
L 205.855321 346.586393 
L 209.982219 339.552628 
L 214.109118 331.629415 
L 218.236017 322.777733 
L 222.362916 312.971683 
L 226.489814 302.201332 
L 230.616713 290.475458 
L 234.743612 277.82404 
L 238.870511 264.300385 
L 242.997409 249.982724 
L 247.124308 234.975155 
L 251.251207 219.407813 
L 255.378106 203.436166 
L 259.505004 187.23937 
L 263.631903 171.017657 
L 267.758802 154.988766 
L 271.885701 139.38348 
L 276.012599 124.440376 
L 280.139498 110.399943 
L 284.266397 97.49826 
L 288.393296 85.960459 
L 292.520194 75.99423 
L 296.647093 67.783618 
L 300.773992 61.483378 
L 304.900891 57.214126 
L 309.027789 55.0585 
L 313.154688 55.0585 
L 317.281587 57.214126 
L 321.408486 61.483378 
L 325.535384 67.783618 
L 329.662283 75.99423 
L 333.789182 85.960459 
L 337.916081 97.49826 
L 342.04298 110.399943 
L 346.169878 124.440376 
L 350.296777 139.38348 
L 354.423676 154.988766 
L 358.550575 171.017657 
L 362.677473 187.23937 
L 366.804372 203.436166 
L 370.931271 219.407813 
L 375.05817 234.975155 
L 379.185068 249.982724 
L 383.311967 264.300385 
L 387.438866 277.82404 
L 391.565765 290.475458 
L 395.692663 302.201332 
L 399.819562 312.971683 
L 403.946461 322.777733 
L 408.07336 331.629415 
L 412.200258 339.552628 
L 416.327157 346.586393 
L 420.454056 352.780013 
L 424.580955 358.190347 
L 428.707853 362.879268 
L 432.834752 366.911385 
L 436.961651 370.352049 
L 441.08855 373.265677 
L 445.215448 375.7144 
L 449.342347 377.757014 
L 453.469246 379.448232 
L 457.596145 380.838193 
L 461.723043 381.972203 
L 465.849942 382.890665 
L 469.976841 383.629171 
L 474.10374 384.218708 
L 478.230638 384.685958 
L 482.357537 385.053646 
L 486.484436 385.340935 
L 490.611335 385.563819 
L 494.738233 385.735517 
L 498.865132 385.866857 
L 502.992031 385.966621 
L 507.11893 386.041873 
L 511.245829 386.098241 
L 515.372727 386.14017 
" style="fill:none;stroke:#ff6384;stroke-linecap:square;"/>
   </g>
   <g id="line2d_2">
    <path clip-path="url(#p8a4b996b01)" d="M 58.827273 386.139371 
L 62.924728 386.097141 
L 67.022184 386.040368 
L 71.119639 385.964575 
L 75.217095 385.864094 
L 79.31455 385.73181 
L 83.412006 385.558878 
L 87.509461 385.334393 
L 91.606917 385.04504 
L 95.704373 384.674709 
L 99.801828 384.204102 
L 103.899284 383.610328 
L 107.996739 382.866516 
L 112.094195 381.941454 
L 116.19165 380.799296 
L 120.289106 379.399346 
L 124.386561 377.695976 
L 128.484017 375.638684 
L 132.581472 373.172366 
L 136.678928 370.2378 
L 140.776383 366.772413 
L 144.873839 362.711322 
L 148.971294 357.988708 
L 153.06875 352.539497 
L 157.166205 346.301371 
L 161.263661 339.217063 
L 165.361117 331.236916 
L 169.458572 322.321628 
L 173.556028 312.445114 
L 177.653483 301.597371 
L 181.750939 289.787238 
L 185.848394 277.04491 
L 189.94585 263.424078 
L 194.043305 249.003534 
L 198.140761 233.888124 
L 202.238216 218.208919 
L 206.335672 202.122504 
L 210.433127 185.809323 
L 214.530583 169.471045 
L 218.628038 153.326975 
L 222.725494 137.609553 
L 226.82295 122.559072 
L 230.920405 108.417748 
L 235.017861 95.423357 
L 239.115316 83.802649 
L 243.212772 73.764805 
L 247.310227 65.495194 
L 251.407683 59.149682 
L 255.505138 54.849752 
L 259.602594 52.678636 
L 263.700049 52.678636 
L 267.797505 54.849752 
L 271.89496 59.149682 
L 275.992416 65.495194 
L 280.089871 73.764805 
L 284.187327 83.802649 
L 288.284783 95.423357 
L 292.382238 108.417748 
L 296.479694 122.559072 
L 300.577149 137.609553 
L 304.674605 153.326975 
L 308.77206 169.471045 
L 312.869516 185.809323 
L 316.966971 202.122504 
L 321.064427 218.208919 
L 325.161882 233.888124 
L 329.259338 249.003534 
L 333.356793 263.424078 
L 337.454249 277.04491 
L 341.551704 289.787238 
L 345.64916 301.597371 
L 349.746615 312.445114 
L 353.844071 322.321628 
L 357.941527 331.236916 
L 362.038982 339.217063 
L 366.136438 346.301371 
L 370.233893 352.539497 
L 374.331349 357.988708 
L 378.428804 362.711322 
L 382.52626 366.772413 
L 386.623715 370.2378 
L 390.721171 373.172366 
L 394.818626 375.638684 
L 398.916082 377.695976 
L 403.013537 379.399346 
L 407.110993 380.799296 
L 411.208448 381.941454 
L 415.305904 382.866516 
L 419.40336 383.610328 
L 423.500815 384.204102 
L 427.598271 384.674709 
L 431.695726 385.04504 
L 435.793182 385.334393 
L 439.890637 385.558878 
L 443.988093 385.73181 
L 448.085548 385.864094 
L 452.183004 385.964575 
L 456.280459 386.040368 
L 460.377915 386.097141 
L 464.47537 386.139371 
" style="fill:none;stroke:#36a2eb;stroke-linecap:square;"/>
   </g>
   <g id="patch_3">
    <path d="M 36 402.93 
L 538.2 402.93 
" style="fill:none;stroke:#000000;stroke-linecap:square;stroke-linejoin:miter;stroke-width:0.8;"/>
   </g>
   <g id="legend_1">
    <g id="patch_4">
     <path d="M 410.290313 88.688125 
L 528.4 88.688125 
Q 531.2 88.688125 531.2 85.888125 
L 531.2 45.8 
Q 531.2 43 528.4 43 
L 410.290313 43 
Q 407.490313 43 407.490313 45.8 
L 407.490313 85.888125 
Q 407.490313 88.688125 410.290313 88.688125 
z
" style="fill:#ffffff;opacity:0.8;stroke:#cccccc;stroke-linejoin:miter;"/>
    </g>
    <g id="patch_5">
     <path d="M 413.090313 59.237813 
L 441.090313 59.237813 
L 441.090313 49.437813 
L 413.090313 49.437813 
z
" style="fill:#ff6384;opacity:0.5;stroke:#ff6384;stroke-linejoin:miter;"/>
    </g>
    <g id="text_1">
     <!-- base -->
     <defs>
      <path d="M 48.6875 27.296875 
Q 48.6875 37.203125 44.609375 42.84375 
Q 40.53125 48.484375 33.40625 48.484375 
Q 26.265625 48.484375 22.1875 42.84375 
Q 18.109375 37.203125 18.109375 27.296875 
Q 18.109375 17.390625 22.1875 11.75 
Q 26.265625 6.109375 33.40625 6.109375 
Q 40.53125 6.109375 44.609375 11.75 
Q 48.6875 17.390625 48.6875 27.296875 
z
M 18.109375 46.390625 
Q 20.953125 51.265625 25.265625 53.625 
Q 29.59375 56 35.59375 56 
Q 45.5625 56 51.78125 48.09375 
Q 58.015625 40.1875 58.015625 27.296875 
Q 58.015625 14.40625 51.78125 6.484375 
Q 45.5625 -1.421875 35.59375 -1.421875 
Q 29.59375 -1.421875 25.265625 0.953125 
Q 20.953125 3.328125 18.109375 8.203125 
L 18.109375 0 
L 9.078125 0 
L 9.078125 75.984375 
L 18.109375 75.984375 
z
" id="DejaVuSans-98"/>
      <path d="M 34.28125 27.484375 
Q 23.390625 27.484375 19.1875 25 
Q 14.984375 22.515625 14.984375 16.5 
Q 14.984375 11.71875 18.140625 8.90625 
Q 21.296875 6.109375 26.703125 6.109375 
Q 34.1875 6.109375 38.703125 11.40625 
Q 43.21875 16.703125 43.21875 25.484375 
L 43.21875 27.484375 
z
M 52.203125 31.203125 
L 52.203125 0 
L 43.21875 0 
L 43.21875 8.296875 
Q 40.140625 3.328125 35.546875 0.953125 
Q 30.953125 -1.421875 24.3125 -1.421875 
Q 15.921875 -1.421875 10.953125 3.296875 
Q 6 8.015625 6 15.921875 
Q 6 25.140625 12.171875 29.828125 
Q 18.359375 34.515625 30.609375 34.515625 
L 43.21875 34.515625 
L 43.21875 35.40625 
Q 43.21875 41.609375 39.140625 45 
Q 35.0625 48.390625 27.6875 48.390625 
Q 23 48.390625 18.546875 47.265625 
Q 14.109375 46.140625 10.015625 43.890625 
L 10.015625 52.203125 
Q 14.9375 54.109375 19.578125 55.046875 
Q 24.21875 56 28.609375 56 
Q 40.484375 56 46.34375 49.84375 
Q 52.203125 43.703125 52.203125 31.203125 
z
" id="DejaVuSans-97"/>
      <path d="M 44.28125 53.078125 
L 44.28125 44.578125 
Q 40.484375 46.53125 36.375 47.5 
Q 32.28125 48.484375 27.875 48.484375 
Q 21.1875 48.484375 17.84375 46.4375 
Q 14.5 44.390625 14.5 40.28125 
Q 14.5 37.15625 16.890625 35.375 
Q 19.28125 33.59375 26.515625 31.984375 
L 29.59375 31.296875 
Q 39.15625 29.25 43.1875 25.515625 
Q 47.21875 21.78125 47.21875 15.09375 
Q 47.21875 7.46875 41.1875 3.015625 
Q 35.15625 -1.421875 24.609375 -1.421875 
Q 20.21875 -1.421875 15.453125 -0.5625 
Q 10.6875 0.296875 5.421875 2 
L 5.421875 11.28125 
Q 10.40625 8.6875 15.234375 7.390625 
Q 20.0625 6.109375 24.8125 6.109375 
Q 31.15625 6.109375 34.5625 8.28125 
Q 37.984375 10.453125 37.984375 14.40625 
Q 37.984375 18.0625 35.515625 20.015625 
Q 33.0625 21.96875 24.703125 23.78125 
L 21.578125 24.515625 
Q 13.234375 26.265625 9.515625 29.90625 
Q 5.8125 33.546875 5.8125 39.890625 
Q 5.8125 47.609375 11.28125 51.796875 
Q 16.75 56 26.8125 56 
Q 31.78125 56 36.171875 55.265625 
Q 40.578125 54.546875 44.28125 53.078125 
z
" id="DejaVuSans-115"/>
      <path d="M 56.203125 29.59375 
L 56.203125 25.203125 
L 14.890625 25.203125 
Q 15.484375 15.921875 20.484375 11.0625 
Q 25.484375 6.203125 34.421875 6.203125 
Q 39.59375 6.203125 44.453125 7.46875 
Q 49.3125 8.734375 54.109375 11.28125 
L 54.109375 2.78125 
Q 49.265625 0.734375 44.1875 -0.34375 
Q 39.109375 -1.421875 33.890625 -1.421875 
Q 20.796875 -1.421875 13.15625 6.1875 
Q 5.515625 13.8125 5.515625 26.8125 
Q 5.515625 40.234375 12.765625 48.109375 
Q 20.015625 56 32.328125 56 
Q 43.359375 56 49.78125 48.890625 
Q 56.203125 41.796875 56.203125 29.59375 
z
M 47.21875 32.234375 
Q 47.125 39.59375 43.09375 43.984375 
Q 39.0625 48.390625 32.421875 48.390625 
Q 24.90625 48.390625 20.390625 44.140625 
Q 15.875 39.890625 15.1875 32.171875 
z
" id="DejaVuSans-101"/>
     </defs>
     <g transform="translate(452.290313 59.237813)scale(0.14 -0.14)">
      <use xlink:href="#DejaVuSans-98"/>
      <use x="63.476562" xlink:href="#DejaVuSans-97"/>
      <use x="124.755859" xlink:href="#DejaVuSans-115"/>
      <use x="176.855469" xlink:href="#DejaVuSans-101"/>
     </g>
    </g>
    <g id="patch_6">
     <path d="M 413.090313 79.787188 
L 441.090313 79.787188 
L 441.090313 69.987188 
L 413.090313 69.987188 
z
" style="fill:#36a2eb;opacity:0.5;stroke:#36a2eb;stroke-linejoin:miter;"/>
    </g>
    <g id="text_2">
     <!-- no_license -->
     <defs>
      <path d="M 54.890625 33.015625 
L 54.890625 0 
L 45.90625 0 
L 45.90625 32.71875 
Q 45.90625 40.484375 42.875 44.328125 
Q 39.84375 48.1875 33.796875 48.1875 
Q 26.515625 48.1875 22.3125 43.546875 
Q 18.109375 38.921875 18.109375 30.90625 
L 18.109375 0 
L 9.078125 0 
L 9.078125 54.6875 
L 18.109375 54.6875 
L 18.109375 46.1875 
Q 21.34375 51.125 25.703125 53.5625 
Q 30.078125 56 35.796875 56 
Q 45.21875 56 50.046875 50.171875 
Q 54.890625 44.34375 54.890625 33.015625 
z
" id="DejaVuSans-110"/>
      <path d="M 30.609375 48.390625 
Q 23.390625 48.390625 19.1875 42.75 
Q 14.984375 37.109375 14.984375 27.296875 
Q 14.984375 17.484375 19.15625 11.84375 
Q 23.34375 6.203125 30.609375 6.203125 
Q 37.796875 6.203125 41.984375 11.859375 
Q 46.1875 17.53125 46.1875 27.296875 
Q 46.1875 37.015625 41.984375 42.703125 
Q 37.796875 48.390625 30.609375 48.390625 
z
M 30.609375 56 
Q 42.328125 56 49.015625 48.375 
Q 55.71875 40.765625 55.71875 27.296875 
Q 55.71875 13.875 49.015625 6.21875 
Q 42.328125 -1.421875 30.609375 -1.421875 
Q 18.84375 -1.421875 12.171875 6.21875 
Q 5.515625 13.875 5.515625 27.296875 
Q 5.515625 40.765625 12.171875 48.375 
Q 18.84375 56 30.609375 56 
z
" id="DejaVuSans-111"/>
      <path d="M 50.984375 -16.609375 
L 50.984375 -23.578125 
L -0.984375 -23.578125 
L -0.984375 -16.609375 
z
" id="DejaVuSans-95"/>
      <path d="M 9.421875 75.984375 
L 18.40625 75.984375 
L 18.40625 0 
L 9.421875 0 
z
" id="DejaVuSans-108"/>
      <path d="M 9.421875 54.6875 
L 18.40625 54.6875 
L 18.40625 0 
L 9.421875 0 
z
M 9.421875 75.984375 
L 18.40625 75.984375 
L 18.40625 64.59375 
L 9.421875 64.59375 
z
" id="DejaVuSans-105"/>
      <path d="M 48.78125 52.59375 
L 48.78125 44.1875 
Q 44.96875 46.296875 41.140625 47.34375 
Q 37.3125 48.390625 33.40625 48.390625 
Q 24.65625 48.390625 19.8125 42.84375 
Q 14.984375 37.3125 14.984375 27.296875 
Q 14.984375 17.28125 19.8125 11.734375 
Q 24.65625 6.203125 33.40625 6.203125 
Q 37.3125 6.203125 41.140625 7.25 
Q 44.96875 8.296875 48.78125 10.40625 
L 48.78125 2.09375 
Q 45.015625 0.34375 40.984375 -0.53125 
Q 36.96875 -1.421875 32.421875 -1.421875 
Q 20.0625 -1.421875 12.78125 6.34375 
Q 5.515625 14.109375 5.515625 27.296875 
Q 5.515625 40.671875 12.859375 48.328125 
Q 20.21875 56 33.015625 56 
Q 37.15625 56 41.109375 55.140625 
Q 45.0625 54.296875 48.78125 52.59375 
z
" id="DejaVuSans-99"/>
     </defs>
     <g transform="translate(452.290313 79.787188)scale(0.14 -0.14)">
      <use xlink:href="#DejaVuSans-110"/>
      <use x="63.378906" xlink:href="#DejaVuSans-111"/>
      <use x="124.560547" xlink:href="#DejaVuSans-95"/>
      <use x="174.560547" xlink:href="#DejaVuSans-108"/>
      <use x="202.34375" xlink:href="#DejaVuSans-105"/>
      <use x="230.126953" xlink:href="#DejaVuSans-99"/>
      <use x="285.107422" xlink:href="#DejaVuSans-101"/>
      <use x="346.630859" xlink:href="#DejaVuSans-110"/>
      <use x="410.009766" xlink:href="#DejaVuSans-115"/>
      <use x="462.109375" xlink:href="#DejaVuSans-101"/>
     </g>
    </g>
   </g>
  </g>
  <g id="axes_2">
   <g id="patch_7">
    <path d="M 36 525.24 
L 538.2 525.24 
L 538.2 402.93 
L 36 402.93 
z
" style="fill:none;"/>
   </g>
   <g id="patch_8">
    <path clip-path="url(#pbc6377c7c9)" d="M 210.99331 519.680455 
L 411.189168 519.680455 
L 411.189168 482.616818 
L 210.99331 482.616818 
z
" style="fill:#ff6384;opacity:0.5;"/>
   </g>
   <g id="patch_9">
    <path clip-path="url(#pbc6377c7c9)" d="M 162.267538 445.553182 
L 361.035105 445.553182 
L 361.035105 408.489545 
L 162.267538 408.489545 
z
" style="fill:#36a2eb;opacity:0.5;"/>
   </g>
   <g id="matplotlib.axis_1">
    <g id="xtick_1">
     <g id="line2d_3">
      <defs>
       <path d="M 0 0 
L 0 3.5 
" id="m9c2732c084" style="stroke:#000000;stroke-width:0.8;"/>
      </defs>
      <g>
       <use style="stroke:#000000;stroke-width:0.8;" x="100.513813" xlink:href="#m9c2732c084" y="525.24"/>
      </g>
     </g>
     <g id="text_3">
      <!-- 5.0 -->
      <defs>
       <path d="M 10.796875 72.90625 
L 49.515625 72.90625 
L 49.515625 64.59375 
L 19.828125 64.59375 
L 19.828125 46.734375 
Q 21.96875 47.46875 24.109375 47.828125 
Q 26.265625 48.1875 28.421875 48.1875 
Q 40.625 48.1875 47.75 41.5 
Q 54.890625 34.8125 54.890625 23.390625 
Q 54.890625 11.625 47.5625 5.09375 
Q 40.234375 -1.421875 26.90625 -1.421875 
Q 22.3125 -1.421875 17.546875 -0.640625 
Q 12.796875 0.140625 7.71875 1.703125 
L 7.71875 11.625 
Q 12.109375 9.234375 16.796875 8.0625 
Q 21.484375 6.890625 26.703125 6.890625 
Q 35.15625 6.890625 40.078125 11.328125 
Q 45.015625 15.765625 45.015625 23.390625 
Q 45.015625 31 40.078125 35.4375 
Q 35.15625 39.890625 26.703125 39.890625 
Q 22.75 39.890625 18.8125 39.015625 
Q 14.890625 38.140625 10.796875 36.28125 
z
" id="DejaVuSans-53"/>
       <path d="M 10.6875 12.40625 
L 21 12.40625 
L 21 0 
L 10.6875 0 
z
" id="DejaVuSans-46"/>
       <path d="M 31.78125 66.40625 
Q 24.171875 66.40625 20.328125 58.90625 
Q 16.5 51.421875 16.5 36.375 
Q 16.5 21.390625 20.328125 13.890625 
Q 24.171875 6.390625 31.78125 6.390625 
Q 39.453125 6.390625 43.28125 13.890625 
Q 47.125 21.390625 47.125 36.375 
Q 47.125 51.421875 43.28125 58.90625 
Q 39.453125 66.40625 31.78125 66.40625 
z
M 31.78125 74.21875 
Q 44.046875 74.21875 50.515625 64.515625 
Q 56.984375 54.828125 56.984375 36.375 
Q 56.984375 17.96875 50.515625 8.265625 
Q 44.046875 -1.421875 31.78125 -1.421875 
Q 19.53125 -1.421875 13.0625 8.265625 
Q 6.59375 17.96875 6.59375 36.375 
Q 6.59375 54.828125 13.0625 64.515625 
Q 19.53125 74.21875 31.78125 74.21875 
z
" id="DejaVuSans-48"/>
      </defs>
      <g transform="translate(89.381626 542.877813)scale(0.14 -0.14)">
       <use xlink:href="#DejaVuSans-53"/>
       <use x="63.623047" xlink:href="#DejaVuSans-46"/>
       <use x="95.410156" xlink:href="#DejaVuSans-48"/>
      </g>
     </g>
    </g>
    <g id="xtick_2">
     <g id="line2d_4">
      <g>
       <use style="stroke:#000000;stroke-width:0.8;" x="192.069216" xlink:href="#m9c2732c084" y="525.24"/>
      </g>
     </g>
     <g id="text_4">
      <!-- 5.5 -->
      <g transform="translate(180.937028 542.877813)scale(0.14 -0.14)">
       <use xlink:href="#DejaVuSans-53"/>
       <use x="63.623047" xlink:href="#DejaVuSans-46"/>
       <use x="95.410156" xlink:href="#DejaVuSans-53"/>
      </g>
     </g>
    </g>
    <g id="xtick_3">
     <g id="line2d_5">
      <g>
       <use style="stroke:#000000;stroke-width:0.8;" x="283.624618" xlink:href="#m9c2732c084" y="525.24"/>
      </g>
     </g>
     <g id="text_5">
      <!-- 6.0 -->
      <defs>
       <path d="M 33.015625 40.375 
Q 26.375 40.375 22.484375 35.828125 
Q 18.609375 31.296875 18.609375 23.390625 
Q 18.609375 15.53125 22.484375 10.953125 
Q 26.375 6.390625 33.015625 6.390625 
Q 39.65625 6.390625 43.53125 10.953125 
Q 47.40625 15.53125 47.40625 23.390625 
Q 47.40625 31.296875 43.53125 35.828125 
Q 39.65625 40.375 33.015625 40.375 
z
M 52.59375 71.296875 
L 52.59375 62.3125 
Q 48.875 64.0625 45.09375 64.984375 
Q 41.3125 65.921875 37.59375 65.921875 
Q 27.828125 65.921875 22.671875 59.328125 
Q 17.53125 52.734375 16.796875 39.40625 
Q 19.671875 43.65625 24.015625 45.921875 
Q 28.375 48.1875 33.59375 48.1875 
Q 44.578125 48.1875 50.953125 41.515625 
Q 57.328125 34.859375 57.328125 23.390625 
Q 57.328125 12.15625 50.6875 5.359375 
Q 44.046875 -1.421875 33.015625 -1.421875 
Q 20.359375 -1.421875 13.671875 8.265625 
Q 6.984375 17.96875 6.984375 36.375 
Q 6.984375 53.65625 15.1875 63.9375 
Q 23.390625 74.21875 37.203125 74.21875 
Q 40.921875 74.21875 44.703125 73.484375 
Q 48.484375 72.75 52.59375 71.296875 
z
" id="DejaVuSans-54"/>
      </defs>
      <g transform="translate(272.492431 542.877813)scale(0.14 -0.14)">
       <use xlink:href="#DejaVuSans-54"/>
       <use x="63.623047" xlink:href="#DejaVuSans-46"/>
       <use x="95.410156" xlink:href="#DejaVuSans-48"/>
      </g>
     </g>
    </g>
    <g id="xtick_4">
     <g id="line2d_6">
      <g>
       <use style="stroke:#000000;stroke-width:0.8;" x="375.180021" xlink:href="#m9c2732c084" y="525.24"/>
      </g>
     </g>
     <g id="text_6">
      <!-- 6.5 -->
      <g transform="translate(364.047833 542.877813)scale(0.14 -0.14)">
       <use xlink:href="#DejaVuSans-54"/>
       <use x="63.623047" xlink:href="#DejaVuSans-46"/>
       <use x="95.410156" xlink:href="#DejaVuSans-53"/>
      </g>
     </g>
    </g>
    <g id="xtick_5">
     <g id="line2d_7">
      <g>
       <use style="stroke:#000000;stroke-width:0.8;" x="466.735423" xlink:href="#m9c2732c084" y="525.24"/>
      </g>
     </g>
     <g id="text_7">
      <!-- 7.0 -->
      <defs>
       <path d="M 8.203125 72.90625 
L 55.078125 72.90625 
L 55.078125 68.703125 
L 28.609375 0 
L 18.3125 0 
L 43.21875 64.59375 
L 8.203125 64.59375 
z
" id="DejaVuSans-55"/>
      </defs>
      <g transform="translate(455.603235 542.877813)scale(0.14 -0.14)">
       <use xlink:href="#DejaVuSans-55"/>
       <use x="63.623047" xlink:href="#DejaVuSans-46"/>
       <use x="95.410156" xlink:href="#DejaVuSans-48"/>
      </g>
     </g>
    </g>
   </g>
   <g id="line2d_8">
    <path clip-path="url(#pbc6377c7c9)" d="M 311.091239 525.24 
L 311.091239 402.93 
" style="fill:none;stroke:#ff6384;stroke-dasharray:5.55,2.4;stroke-dashoffset:0;stroke-opacity:0.8;stroke-width:1.5;"/>
   </g>
   <g id="line2d_9">
    <path clip-path="url(#pbc6377c7c9)" d="M 261.651322 525.24 
L 261.651322 402.93 
" style="fill:none;stroke:#36a2eb;stroke-dasharray:5.55,2.4;stroke-dashoffset:0;stroke-opacity:0.8;stroke-width:1.5;"/>
   </g>
   <g id="patch_10">
    <path d="M 36 525.24 
L 538.2 525.24 
" style="fill:none;stroke:#000000;stroke-linecap:square;stroke-linejoin:miter;stroke-width:0.8;"/>
   </g>
  </g>
 </g>
 <defs>
  <clipPath id="p8a4b996b01">
   <rect height="366.93" width="502.2" x="36" y="36"/>
  </clipPath>
  <clipPath id="pbc6377c7c9">
   <rect height="122.31" width="502.2" x="36" y="402.93"/>
  </clipPath>
 </defs>
</svg>
