<?xml version="1.0" encoding="utf-8" standalone="no"?>
<!DOCTYPE svg PUBLIC "-//W3C//DTD SVG 1.1//EN"
  "http://www.w3.org/Graphics/SVG/1.1/DTD/svg11.dtd">
<!-- Created with matplotlib (https://matplotlib.org/) -->
<svg height="581.789375pt" version="1.1" viewBox="0 0 574.2 581.789375" width="574.2pt" xmlns="http://www.w3.org/2000/svg" xmlns:xlink="http://www.w3.org/1999/xlink">
 <defs>
  <style type="text/css">
*{stroke-linecap:butt;stroke-linejoin:round;}
  </style>
 </defs>
 <g id="figure_1">
  <g id="patch_1">
   <path d="M 0 581.789375 
L 574.2 581.789375 
L 574.2 0 
L 0 0 
z
" style="fill:none;"/>
  </g>
  <g id="axes_1">
   <g id="patch_2">
    <path d="M 36 402.93 
L 538.2 402.93 
L 538.2 36 
L 36 36 
z
" style="fill:none;"/>
   </g>
   <g id="PolyCollection_1">
    <defs>
     <path d="M 98.89064 -195.538011 
L 98.89064 -195.649555 
L 103.09753 -195.691616 
L 107.30442 -195.748161 
L 111.51131 -195.823649 
L 115.718199 -195.923728 
L 119.925089 -196.055481 
L 124.131979 -196.227719 
L 128.338869 -196.451304 
L 132.545758 -196.739496 
L 136.752648 -197.108342 
L 140.959538 -197.577061 
L 145.166428 -198.168453 
L 149.373318 -198.909282 
L 153.580207 -199.830633 
L 157.787097 -200.96821 
L 161.993987 -202.362544 
L 166.200877 -204.059082 
L 170.407766 -206.108122 
L 174.614656 -208.564548 
L 178.821546 -211.487342 
L 183.028436 -214.93883 
L 187.235325 -218.983631 
L 191.442215 -223.687302 
L 195.649105 -229.114655 
L 199.855995 -235.327759 
L 204.062884 -242.383651 
L 208.269774 -250.331789 
L 212.476664 -259.211316 
L 216.683554 -269.048214 
L 220.890444 -279.852445 
L 225.097333 -291.615207 
L 229.304223 -304.306423 
L 233.511113 -317.872621 
L 237.718003 -332.235322 
L 241.924892 -347.290102 
L 246.131782 -362.906415 
L 250.338672 -378.928305 
L 254.545562 -395.176053 
L 258.752451 -411.448795 
L 262.959341 -427.528109 
L 267.166231 -443.182486 
L 271.373121 -458.172598 
L 275.580011 -472.257199 
L 279.7869 -485.199468 
L 283.99379 -496.773564 
L 288.20068 -506.771145 
L 292.40757 -515.007585 
L 296.614459 -521.327645 
L 300.821349 -525.610327 
L 305.028239 -527.772734 
L 309.235129 -527.772734 
L 313.442018 -525.610327 
L 317.648908 -521.327645 
L 321.855798 -515.007585 
L 326.062688 -506.771145 
L 330.269578 -496.773564 
L 334.476467 -485.199468 
L 338.683357 -472.257199 
L 342.890247 -458.172598 
L 347.097137 -443.182486 
L 351.304026 -427.528109 
L 355.510916 -411.448795 
L 359.717806 -395.176053 
L 363.924696 -378.928305 
L 368.131585 -362.906415 
L 372.338475 -347.290102 
L 376.545365 -332.235322 
L 380.752255 -317.872621 
L 384.959144 -304.306423 
L 389.166034 -291.615207 
L 393.372924 -279.852445 
L 397.579814 -269.048214 
L 401.786704 -259.211316 
L 405.993593 -250.331789 
L 410.200483 -242.383651 
L 414.407373 -235.327759 
L 418.614263 -229.114655 
L 422.821152 -223.687302 
L 427.028042 -218.983631 
L 431.234932 -214.93883 
L 435.441822 -211.487342 
L 439.648711 -208.564548 
L 443.855601 -206.108122 
L 448.062491 -204.059082 
L 452.269381 -202.362544 
L 456.476271 -200.96821 
L 460.68316 -199.830633 
L 464.89005 -198.909282 
L 469.09694 -198.168453 
L 473.30383 -197.577061 
L 477.510719 -197.108342 
L 481.717609 -196.739496 
L 485.924499 -196.451304 
L 490.131389 -196.227719 
L 494.338278 -196.055481 
L 498.545168 -195.923728 
L 502.752058 -195.823649 
L 506.958948 -195.748161 
L 511.165838 -195.691616 
L 515.372727 -195.649555 
L 515.372727 -195.538011 
L 515.372727 -195.538011 
L 511.165838 -195.538011 
L 506.958948 -195.538011 
L 502.752058 -195.538011 
L 498.545168 -195.538011 
L 494.338278 -195.538011 
L 490.131389 -195.538011 
L 485.924499 -195.538011 
L 481.717609 -195.538011 
L 477.510719 -195.538011 
L 473.30383 -195.538011 
L 469.09694 -195.538011 
L 464.89005 -195.538011 
L 460.68316 -195.538011 
L 456.476271 -195.538011 
L 452.269381 -195.538011 
L 448.062491 -195.538011 
L 443.855601 -195.538011 
L 439.648711 -195.538011 
L 435.441822 -195.538011 
L 431.234932 -195.538011 
L 427.028042 -195.538011 
L 422.821152 -195.538011 
L 418.614263 -195.538011 
L 414.407373 -195.538011 
L 410.200483 -195.538011 
L 405.993593 -195.538011 
L 401.786704 -195.538011 
L 397.579814 -195.538011 
L 393.372924 -195.538011 
L 389.166034 -195.538011 
L 384.959144 -195.538011 
L 380.752255 -195.538011 
L 376.545365 -195.538011 
L 372.338475 -195.538011 
L 368.131585 -195.538011 
L 363.924696 -195.538011 
L 359.717806 -195.538011 
L 355.510916 -195.538011 
L 351.304026 -195.538011 
L 347.097137 -195.538011 
L 342.890247 -195.538011 
L 338.683357 -195.538011 
L 334.476467 -195.538011 
L 330.269578 -195.538011 
L 326.062688 -195.538011 
L 321.855798 -195.538011 
L 317.648908 -195.538011 
L 313.442018 -195.538011 
L 309.235129 -195.538011 
L 305.028239 -195.538011 
L 300.821349 -195.538011 
L 296.614459 -195.538011 
L 292.40757 -195.538011 
L 288.20068 -195.538011 
L 283.99379 -195.538011 
L 279.7869 -195.538011 
L 275.580011 -195.538011 
L 271.373121 -195.538011 
L 267.166231 -195.538011 
L 262.959341 -195.538011 
L 258.752451 -195.538011 
L 254.545562 -195.538011 
L 250.338672 -195.538011 
L 246.131782 -195.538011 
L 241.924892 -195.538011 
L 237.718003 -195.538011 
L 233.511113 -195.538011 
L 229.304223 -195.538011 
L 225.097333 -195.538011 
L 220.890444 -195.538011 
L 216.683554 -195.538011 
L 212.476664 -195.538011 
L 208.269774 -195.538011 
L 204.062884 -195.538011 
L 199.855995 -195.538011 
L 195.649105 -195.538011 
L 191.442215 -195.538011 
L 187.235325 -195.538011 
L 183.028436 -195.538011 
L 178.821546 -195.538011 
L 174.614656 -195.538011 
L 170.407766 -195.538011 
L 166.200877 -195.538011 
L 161.993987 -195.538011 
L 157.787097 -195.538011 
L 153.580207 -195.538011 
L 149.373318 -195.538011 
L 145.166428 -195.538011 
L 140.959538 -195.538011 
L 136.752648 -195.538011 
L 132.545758 -195.538011 
L 128.338869 -195.538011 
L 124.131979 -195.538011 
L 119.925089 -195.538011 
L 115.718199 -195.538011 
L 111.51131 -195.538011 
L 107.30442 -195.538011 
L 103.09753 -195.538011 
L 98.89064 -195.538011 
z
" id="m14fe755d3d" style="stroke:#ff6384;stroke-opacity:0.5;"/>
    </defs>
    <g clip-path="url(#p791c1c5be4)">
     <use style="fill:#ff6384;fill-opacity:0.5;stroke:#ff6384;stroke-opacity:0.5;" x="0" xlink:href="#m14fe755d3d" y="581.789375"/>
    </g>
   </g>
   <g id="PolyCollection_2">
    <defs>
     <path d="M 58.827273 -195.538011 
L 58.827273 -195.650004 
L 63.017288 -195.692234 
L 67.207303 -195.749007 
L 71.397319 -195.8248 
L 75.587334 -195.925281 
L 79.77735 -196.057565 
L 83.967365 -196.230497 
L 88.15738 -196.454982 
L 92.347396 -196.744335 
L 96.537411 -197.114666 
L 100.727426 -197.585273 
L 104.917442 -198.179047 
L 109.107457 -198.922859 
L 113.297473 -199.847921 
L 117.487488 -200.990079 
L 121.677503 -202.390029 
L 125.867519 -204.093399 
L 130.057534 -206.150691 
L 134.247549 -208.617009 
L 138.437565 -211.551575 
L 142.62758 -215.016962 
L 146.817596 -219.078053 
L 151.007611 -223.800667 
L 155.197626 -229.249878 
L 159.387642 -235.488004 
L 163.577657 -242.572312 
L 167.767672 -250.552459 
L 171.957688 -259.467747 
L 176.147703 -269.344261 
L 180.337719 -280.192004 
L 184.527734 -292.002137 
L 188.717749 -304.744465 
L 192.907765 -318.365297 
L 197.09778 -332.785841 
L 201.287795 -347.901251 
L 205.477811 -363.580456 
L 209.667826 -379.666871 
L 213.857842 -395.980052 
L 218.047857 -412.31833 
L 222.237872 -428.4624 
L 226.427888 -444.179822 
L 230.617903 -459.230303 
L 234.807918 -473.371627 
L 238.997934 -486.366018 
L 243.187949 -497.986726 
L 247.377965 -508.02457 
L 251.56798 -516.294181 
L 255.757995 -522.639693 
L 259.948011 -526.939623 
L 264.138026 -529.110739 
L 268.328041 -529.110739 
L 272.518057 -526.939623 
L 276.708072 -522.639693 
L 280.898087 -516.294181 
L 285.088103 -508.02457 
L 289.278118 -497.986726 
L 293.468134 -486.366018 
L 297.658149 -473.371627 
L 301.848164 -459.230303 
L 306.03818 -444.179822 
L 310.228195 -428.4624 
L 314.41821 -412.31833 
L 318.608226 -395.980052 
L 322.798241 -379.666871 
L 326.988257 -363.580456 
L 331.178272 -347.901251 
L 335.368287 -332.785841 
L 339.558303 -318.365297 
L 343.748318 -304.744465 
L 347.938333 -292.002137 
L 352.128349 -280.192004 
L 356.318364 -269.344261 
L 360.50838 -259.467747 
L 364.698395 -250.552459 
L 368.88841 -242.572312 
L 373.078426 -235.488004 
L 377.268441 -229.249878 
L 381.458456 -223.800667 
L 385.648472 -219.078053 
L 389.838487 -215.016962 
L 394.028503 -211.551575 
L 398.218518 -208.617009 
L 402.408533 -206.150691 
L 406.598549 -204.093399 
L 410.788564 -202.390029 
L 414.978579 -200.990079 
L 419.168595 -199.847921 
L 423.35861 -198.922859 
L 427.548626 -198.179047 
L 431.738641 -197.585273 
L 435.928656 -197.114666 
L 440.118672 -196.744335 
L 444.308687 -196.454982 
L 448.498702 -196.230497 
L 452.688718 -196.057565 
L 456.878733 -195.925281 
L 461.068749 -195.8248 
L 465.258764 -195.749007 
L 469.448779 -195.692234 
L 473.638795 -195.650004 
L 473.638795 -195.538011 
L 473.638795 -195.538011 
L 469.448779 -195.538011 
L 465.258764 -195.538011 
L 461.068749 -195.538011 
L 456.878733 -195.538011 
L 452.688718 -195.538011 
L 448.498702 -195.538011 
L 444.308687 -195.538011 
L 440.118672 -195.538011 
L 435.928656 -195.538011 
L 431.738641 -195.538011 
L 427.548626 -195.538011 
L 423.35861 -195.538011 
L 419.168595 -195.538011 
L 414.978579 -195.538011 
L 410.788564 -195.538011 
L 406.598549 -195.538011 
L 402.408533 -195.538011 
L 398.218518 -195.538011 
L 394.028503 -195.538011 
L 389.838487 -195.538011 
L 385.648472 -195.538011 
L 381.458456 -195.538011 
L 377.268441 -195.538011 
L 373.078426 -195.538011 
L 368.88841 -195.538011 
L 364.698395 -195.538011 
L 360.50838 -195.538011 
L 356.318364 -195.538011 
L 352.128349 -195.538011 
L 347.938333 -195.538011 
L 343.748318 -195.538011 
L 339.558303 -195.538011 
L 335.368287 -195.538011 
L 331.178272 -195.538011 
L 326.988257 -195.538011 
L 322.798241 -195.538011 
L 318.608226 -195.538011 
L 314.41821 -195.538011 
L 310.228195 -195.538011 
L 306.03818 -195.538011 
L 301.848164 -195.538011 
L 297.658149 -195.538011 
L 293.468134 -195.538011 
L 289.278118 -195.538011 
L 285.088103 -195.538011 
L 280.898087 -195.538011 
L 276.708072 -195.538011 
L 272.518057 -195.538011 
L 268.328041 -195.538011 
L 264.138026 -195.538011 
L 259.948011 -195.538011 
L 255.757995 -195.538011 
L 251.56798 -195.538011 
L 247.377965 -195.538011 
L 243.187949 -195.538011 
L 238.997934 -195.538011 
L 234.807918 -195.538011 
L 230.617903 -195.538011 
L 226.427888 -195.538011 
L 222.237872 -195.538011 
L 218.047857 -195.538011 
L 213.857842 -195.538011 
L 209.667826 -195.538011 
L 205.477811 -195.538011 
L 201.287795 -195.538011 
L 197.09778 -195.538011 
L 192.907765 -195.538011 
L 188.717749 -195.538011 
L 184.527734 -195.538011 
L 180.337719 -195.538011 
L 176.147703 -195.538011 
L 171.957688 -195.538011 
L 167.767672 -195.538011 
L 163.577657 -195.538011 
L 159.387642 -195.538011 
L 155.197626 -195.538011 
L 151.007611 -195.538011 
L 146.817596 -195.538011 
L 142.62758 -195.538011 
L 138.437565 -195.538011 
L 134.247549 -195.538011 
L 130.057534 -195.538011 
L 125.867519 -195.538011 
L 121.677503 -195.538011 
L 117.487488 -195.538011 
L 113.297473 -195.538011 
L 109.107457 -195.538011 
L 104.917442 -195.538011 
L 100.727426 -195.538011 
L 96.537411 -195.538011 
L 92.347396 -195.538011 
L 88.15738 -195.538011 
L 83.967365 -195.538011 
L 79.77735 -195.538011 
L 75.587334 -195.538011 
L 71.397319 -195.538011 
L 67.207303 -195.538011 
L 63.017288 -195.538011 
L 58.827273 -195.538011 
z
" id="mcec20e7fa0" style="stroke:#36a2eb;stroke-opacity:0.5;"/>
    </defs>
    <g clip-path="url(#p791c1c5be4)">
     <use style="fill:#36a2eb;fill-opacity:0.5;stroke:#36a2eb;stroke-opacity:0.5;" x="0" xlink:href="#mcec20e7fa0" y="581.789375"/>
    </g>
   </g>
   <g id="line2d_1">
    <path clip-path="url(#p791c1c5be4)" d="M 98.89064 386.13982 
L 103.09753 386.097759 
L 107.30442 386.041214 
L 111.51131 385.965726 
L 115.718199 385.865647 
L 119.925089 385.733894 
L 124.131979 385.561656 
L 128.338869 385.338071 
L 132.545758 385.049879 
L 136.752648 384.681033 
L 140.959538 384.212314 
L 145.166428 383.620922 
L 149.373318 382.880093 
L 153.580207 381.958742 
L 157.787097 380.821165 
L 161.993987 379.426831 
L 166.200877 377.730293 
L 170.407766 375.681253 
L 174.614656 373.224827 
L 178.821546 370.302033 
L 183.028436 366.850545 
L 187.235325 362.805744 
L 191.442215 358.102073 
L 195.649105 352.67472 
L 199.855995 346.461616 
L 204.062884 339.405724 
L 208.269774 331.457586 
L 212.476664 322.578059 
L 216.683554 312.741161 
L 220.890444 301.93693 
L 225.097333 290.174168 
L 229.304223 277.482952 
L 233.511113 263.916754 
L 237.718003 249.554053 
L 241.924892 234.499273 
L 246.131782 218.88296 
L 250.338672 202.86107 
L 254.545562 186.613322 
L 258.752451 170.34058 
L 262.959341 154.261266 
L 267.166231 138.606889 
L 271.373121 123.616777 
L 275.580011 109.532176 
L 279.7869 96.589907 
L 283.99379 85.015811 
L 288.20068 75.01823 
L 292.40757 66.78179 
L 296.614459 60.46173 
L 300.821349 56.179048 
L 305.028239 54.016641 
L 309.235129 54.016641 
L 313.442018 56.179048 
L 317.648908 60.46173 
L 321.855798 66.78179 
L 326.062688 75.01823 
L 330.269578 85.015811 
L 334.476467 96.589907 
L 338.683357 109.532176 
L 342.890247 123.616777 
L 347.097137 138.606889 
L 351.304026 154.261266 
L 355.510916 170.34058 
L 359.717806 186.613322 
L 363.924696 202.86107 
L 368.131585 218.88296 
L 372.338475 234.499273 
L 376.545365 249.554053 
L 380.752255 263.916754 
L 384.959144 277.482952 
L 389.166034 290.174168 
L 393.372924 301.93693 
L 397.579814 312.741161 
L 401.786704 322.578059 
L 405.993593 331.457586 
L 410.200483 339.405724 
L 414.407373 346.461616 
L 418.614263 352.67472 
L 422.821152 358.102073 
L 427.028042 362.805744 
L 431.234932 366.850545 
L 435.441822 370.302033 
L 439.648711 373.224827 
L 443.855601 375.681253 
L 448.062491 377.730293 
L 452.269381 379.426831 
L 456.476271 380.821165 
L 460.68316 381.958742 
L 464.89005 382.880093 
L 469.09694 383.620922 
L 473.30383 384.212314 
L 477.510719 384.681033 
L 481.717609 385.049879 
L 485.924499 385.338071 
L 490.131389 385.561656 
L 494.338278 385.733894 
L 498.545168 385.865647 
L 502.752058 385.965726 
L 506.958948 386.041214 
L 511.165838 386.097759 
L 515.372727 386.13982 
" style="fill:none;stroke:#ff6384;stroke-linecap:square;"/>
   </g>
   <g id="line2d_2">
    <path clip-path="url(#p791c1c5be4)" d="M 58.827273 386.139371 
L 63.017288 386.097141 
L 67.207303 386.040368 
L 71.397319 385.964575 
L 75.587334 385.864094 
L 79.77735 385.73181 
L 83.967365 385.558878 
L 88.15738 385.334393 
L 92.347396 385.04504 
L 96.537411 384.674709 
L 100.727426 384.204102 
L 104.917442 383.610328 
L 109.107457 382.866516 
L 113.297473 381.941454 
L 117.487488 380.799296 
L 121.677503 379.399346 
L 125.867519 377.695976 
L 130.057534 375.638684 
L 134.247549 373.172366 
L 138.437565 370.2378 
L 142.62758 366.772413 
L 146.817596 362.711322 
L 151.007611 357.988708 
L 155.197626 352.539497 
L 159.387642 346.301371 
L 163.577657 339.217063 
L 167.767672 331.236916 
L 171.957688 322.321628 
L 176.147703 312.445114 
L 180.337719 301.597371 
L 184.527734 289.787238 
L 188.717749 277.04491 
L 192.907765 263.424078 
L 197.09778 249.003534 
L 201.287795 233.888124 
L 205.477811 218.208919 
L 209.667826 202.122504 
L 213.857842 185.809323 
L 218.047857 169.471045 
L 222.237872 153.326975 
L 226.427888 137.609553 
L 230.617903 122.559072 
L 234.807918 108.417748 
L 238.997934 95.423357 
L 243.187949 83.802649 
L 247.377965 73.764805 
L 251.56798 65.495194 
L 255.757995 59.149682 
L 259.948011 54.849752 
L 264.138026 52.678636 
L 268.328041 52.678636 
L 272.518057 54.849752 
L 276.708072 59.149682 
L 280.898087 65.495194 
L 285.088103 73.764805 
L 289.278118 83.802649 
L 293.468134 95.423357 
L 297.658149 108.417748 
L 301.848164 122.559072 
L 306.03818 137.609553 
L 310.228195 153.326975 
L 314.41821 169.471045 
L 318.608226 185.809323 
L 322.798241 202.122504 
L 326.988257 218.208919 
L 331.178272 233.888124 
L 335.368287 249.003534 
L 339.558303 263.424078 
L 343.748318 277.04491 
L 347.938333 289.787238 
L 352.128349 301.597371 
L 356.318364 312.445114 
L 360.50838 322.321628 
L 364.698395 331.236916 
L 368.88841 339.217063 
L 373.078426 346.301371 
L 377.268441 352.539497 
L 381.458456 357.988708 
L 385.648472 362.711322 
L 389.838487 366.772413 
L 394.028503 370.2378 
L 398.218518 373.172366 
L 402.408533 375.638684 
L 406.598549 377.695976 
L 410.788564 379.399346 
L 414.978579 380.799296 
L 419.168595 381.941454 
L 423.35861 382.866516 
L 427.548626 383.610328 
L 431.738641 384.204102 
L 435.928656 384.674709 
L 440.118672 385.04504 
L 444.308687 385.334393 
L 448.498702 385.558878 
L 452.688718 385.73181 
L 456.878733 385.864094 
L 461.068749 385.964575 
L 465.258764 386.040368 
L 469.448779 386.097141 
L 473.638795 386.139371 
" style="fill:none;stroke:#36a2eb;stroke-linecap:square;"/>
   </g>
   <g id="patch_3">
    <path d="M 36 402.93 
L 538.2 402.93 
" style="fill:none;stroke:#000000;stroke-linecap:square;stroke-linejoin:miter;stroke-width:0.8;"/>
   </g>
   <g id="legend_1">
    <g id="patch_4">
     <path d="M 410.290313 88.688125 
L 528.4 88.688125 
Q 531.2 88.688125 531.2 85.888125 
L 531.2 45.8 
Q 531.2 43 528.4 43 
L 410.290313 43 
Q 407.490313 43 407.490313 45.8 
L 407.490313 85.888125 
Q 407.490313 88.688125 410.290313 88.688125 
z
" style="fill:#ffffff;opacity:0.8;stroke:#cccccc;stroke-linejoin:miter;"/>
    </g>
    <g id="patch_5">
     <path d="M 413.090313 59.237813 
L 441.090313 59.237813 
L 441.090313 49.437813 
L 413.090313 49.437813 
z
" style="fill:#ff6384;opacity:0.5;stroke:#ff6384;stroke-linejoin:miter;"/>
    </g>
    <g id="text_1">
     <!-- base -->
     <defs>
      <path d="M 48.6875 27.296875 
Q 48.6875 37.203125 44.609375 42.84375 
Q 40.53125 48.484375 33.40625 48.484375 
Q 26.265625 48.484375 22.1875 42.84375 
Q 18.109375 37.203125 18.109375 27.296875 
Q 18.109375 17.390625 22.1875 11.75 
Q 26.265625 6.109375 33.40625 6.109375 
Q 40.53125 6.109375 44.609375 11.75 
Q 48.6875 17.390625 48.6875 27.296875 
z
M 18.109375 46.390625 
Q 20.953125 51.265625 25.265625 53.625 
Q 29.59375 56 35.59375 56 
Q 45.5625 56 51.78125 48.09375 
Q 58.015625 40.1875 58.015625 27.296875 
Q 58.015625 14.40625 51.78125 6.484375 
Q 45.5625 -1.421875 35.59375 -1.421875 
Q 29.59375 -1.421875 25.265625 0.953125 
Q 20.953125 3.328125 18.109375 8.203125 
L 18.109375 0 
L 9.078125 0 
L 9.078125 75.984375 
L 18.109375 75.984375 
z
" id="DejaVuSans-98"/>
      <path d="M 34.28125 27.484375 
Q 23.390625 27.484375 19.1875 25 
Q 14.984375 22.515625 14.984375 16.5 
Q 14.984375 11.71875 18.140625 8.90625 
Q 21.296875 6.109375 26.703125 6.109375 
Q 34.1875 6.109375 38.703125 11.40625 
Q 43.21875 16.703125 43.21875 25.484375 
L 43.21875 27.484375 
z
M 52.203125 31.203125 
L 52.203125 0 
L 43.21875 0 
L 43.21875 8.296875 
Q 40.140625 3.328125 35.546875 0.953125 
Q 30.953125 -1.421875 24.3125 -1.421875 
Q 15.921875 -1.421875 10.953125 3.296875 
Q 6 8.015625 6 15.921875 
Q 6 25.140625 12.171875 29.828125 
Q 18.359375 34.515625 30.609375 34.515625 
L 43.21875 34.515625 
L 43.21875 35.40625 
Q 43.21875 41.609375 39.140625 45 
Q 35.0625 48.390625 27.6875 48.390625 
Q 23 48.390625 18.546875 47.265625 
Q 14.109375 46.140625 10.015625 43.890625 
L 10.015625 52.203125 
Q 14.9375 54.109375 19.578125 55.046875 
Q 24.21875 56 28.609375 56 
Q 40.484375 56 46.34375 49.84375 
Q 52.203125 43.703125 52.203125 31.203125 
z
" id="DejaVuSans-97"/>
      <path d="M 44.28125 53.078125 
L 44.28125 44.578125 
Q 40.484375 46.53125 36.375 47.5 
Q 32.28125 48.484375 27.875 48.484375 
Q 21.1875 48.484375 17.84375 46.4375 
Q 14.5 44.390625 14.5 40.28125 
Q 14.5 37.15625 16.890625 35.375 
Q 19.28125 33.59375 26.515625 31.984375 
L 29.59375 31.296875 
Q 39.15625 29.25 43.1875 25.515625 
Q 47.21875 21.78125 47.21875 15.09375 
Q 47.21875 7.46875 41.1875 3.015625 
Q 35.15625 -1.421875 24.609375 -1.421875 
Q 20.21875 -1.421875 15.453125 -0.5625 
Q 10.6875 0.296875 5.421875 2 
L 5.421875 11.28125 
Q 10.40625 8.6875 15.234375 7.390625 
Q 20.0625 6.109375 24.8125 6.109375 
Q 31.15625 6.109375 34.5625 8.28125 
Q 37.984375 10.453125 37.984375 14.40625 
Q 37.984375 18.0625 35.515625 20.015625 
Q 33.0625 21.96875 24.703125 23.78125 
L 21.578125 24.515625 
Q 13.234375 26.265625 9.515625 29.90625 
Q 5.8125 33.546875 5.8125 39.890625 
Q 5.8125 47.609375 11.28125 51.796875 
Q 16.75 56 26.8125 56 
Q 31.78125 56 36.171875 55.265625 
Q 40.578125 54.546875 44.28125 53.078125 
z
" id="DejaVuSans-115"/>
      <path d="M 56.203125 29.59375 
L 56.203125 25.203125 
L 14.890625 25.203125 
Q 15.484375 15.921875 20.484375 11.0625 
Q 25.484375 6.203125 34.421875 6.203125 
Q 39.59375 6.203125 44.453125 7.46875 
Q 49.3125 8.734375 54.109375 11.28125 
L 54.109375 2.78125 
Q 49.265625 0.734375 44.1875 -0.34375 
Q 39.109375 -1.421875 33.890625 -1.421875 
Q 20.796875 -1.421875 13.15625 6.1875 
Q 5.515625 13.8125 5.515625 26.8125 
Q 5.515625 40.234375 12.765625 48.109375 
Q 20.015625 56 32.328125 56 
Q 43.359375 56 49.78125 48.890625 
Q 56.203125 41.796875 56.203125 29.59375 
z
M 47.21875 32.234375 
Q 47.125 39.59375 43.09375 43.984375 
Q 39.0625 48.390625 32.421875 48.390625 
Q 24.90625 48.390625 20.390625 44.140625 
Q 15.875 39.890625 15.1875 32.171875 
z
" id="DejaVuSans-101"/>
     </defs>
     <g transform="translate(452.290313 59.237813)scale(0.14 -0.14)">
      <use xlink:href="#DejaVuSans-98"/>
      <use x="63.476562" xlink:href="#DejaVuSans-97"/>
      <use x="124.755859" xlink:href="#DejaVuSans-115"/>
      <use x="176.855469" xlink:href="#DejaVuSans-101"/>
     </g>
    </g>
    <g id="patch_6">
     <path d="M 413.090313 79.787188 
L 441.090313 79.787188 
L 441.090313 69.987188 
L 413.090313 69.987188 
z
" style="fill:#36a2eb;opacity:0.5;stroke:#36a2eb;stroke-linejoin:miter;"/>
    </g>
    <g id="text_2">
     <!-- no_license -->
     <defs>
      <path d="M 54.890625 33.015625 
L 54.890625 0 
L 45.90625 0 
L 45.90625 32.71875 
Q 45.90625 40.484375 42.875 44.328125 
Q 39.84375 48.1875 33.796875 48.1875 
Q 26.515625 48.1875 22.3125 43.546875 
Q 18.109375 38.921875 18.109375 30.90625 
L 18.109375 0 
L 9.078125 0 
L 9.078125 54.6875 
L 18.109375 54.6875 
L 18.109375 46.1875 
Q 21.34375 51.125 25.703125 53.5625 
Q 30.078125 56 35.796875 56 
Q 45.21875 56 50.046875 50.171875 
Q 54.890625 44.34375 54.890625 33.015625 
z
" id="DejaVuSans-110"/>
      <path d="M 30.609375 48.390625 
Q 23.390625 48.390625 19.1875 42.75 
Q 14.984375 37.109375 14.984375 27.296875 
Q 14.984375 17.484375 19.15625 11.84375 
Q 23.34375 6.203125 30.609375 6.203125 
Q 37.796875 6.203125 41.984375 11.859375 
Q 46.1875 17.53125 46.1875 27.296875 
Q 46.1875 37.015625 41.984375 42.703125 
Q 37.796875 48.390625 30.609375 48.390625 
z
M 30.609375 56 
Q 42.328125 56 49.015625 48.375 
Q 55.71875 40.765625 55.71875 27.296875 
Q 55.71875 13.875 49.015625 6.21875 
Q 42.328125 -1.421875 30.609375 -1.421875 
Q 18.84375 -1.421875 12.171875 6.21875 
Q 5.515625 13.875 5.515625 27.296875 
Q 5.515625 40.765625 12.171875 48.375 
Q 18.84375 56 30.609375 56 
z
" id="DejaVuSans-111"/>
      <path d="M 50.984375 -16.609375 
L 50.984375 -23.578125 
L -0.984375 -23.578125 
L -0.984375 -16.609375 
z
" id="DejaVuSans-95"/>
      <path d="M 9.421875 75.984375 
L 18.40625 75.984375 
L 18.40625 0 
L 9.421875 0 
z
" id="DejaVuSans-108"/>
      <path d="M 9.421875 54.6875 
L 18.40625 54.6875 
L 18.40625 0 
L 9.421875 0 
z
M 9.421875 75.984375 
L 18.40625 75.984375 
L 18.40625 64.59375 
L 9.421875 64.59375 
z
" id="DejaVuSans-105"/>
      <path d="M 48.78125 52.59375 
L 48.78125 44.1875 
Q 44.96875 46.296875 41.140625 47.34375 
Q 37.3125 48.390625 33.40625 48.390625 
Q 24.65625 48.390625 19.8125 42.84375 
Q 14.984375 37.3125 14.984375 27.296875 
Q 14.984375 17.28125 19.8125 11.734375 
Q 24.65625 6.203125 33.40625 6.203125 
Q 37.3125 6.203125 41.140625 7.25 
Q 44.96875 8.296875 48.78125 10.40625 
L 48.78125 2.09375 
Q 45.015625 0.34375 40.984375 -0.53125 
Q 36.96875 -1.421875 32.421875 -1.421875 
Q 20.0625 -1.421875 12.78125 6.34375 
Q 5.515625 14.109375 5.515625 27.296875 
Q 5.515625 40.671875 12.859375 48.328125 
Q 20.21875 56 33.015625 56 
Q 37.15625 56 41.109375 55.140625 
Q 45.0625 54.296875 48.78125 52.59375 
z
" id="DejaVuSans-99"/>
     </defs>
     <g transform="translate(452.290313 79.787188)scale(0.14 -0.14)">
      <use xlink:href="#DejaVuSans-110"/>
      <use x="63.378906" xlink:href="#DejaVuSans-111"/>
      <use x="124.560547" xlink:href="#DejaVuSans-95"/>
      <use x="174.560547" xlink:href="#DejaVuSans-108"/>
      <use x="202.34375" xlink:href="#DejaVuSans-105"/>
      <use x="230.126953" xlink:href="#DejaVuSans-99"/>
      <use x="285.107422" xlink:href="#DejaVuSans-101"/>
      <use x="346.630859" xlink:href="#DejaVuSans-110"/>
      <use x="410.009766" xlink:href="#DejaVuSans-115"/>
      <use x="462.109375" xlink:href="#DejaVuSans-101"/>
     </g>
    </g>
   </g>
  </g>
  <g id="axes_2">
   <g id="patch_7">
    <path d="M 36 525.24 
L 538.2 525.24 
L 538.2 402.93 
L 36 402.93 
z
" style="fill:none;"/>
   </g>
   <g id="patch_8">
    <path clip-path="url(#p3877242991)" d="M 205.093572 519.680455 
L 409.169795 519.680455 
L 409.169795 482.616818 
L 205.093572 482.616818 
z
" style="fill:#ff6384;opacity:0.5;"/>
   </g>
   <g id="patch_9">
    <path clip-path="url(#p3877242991)" d="M 164.604211 445.553182 
L 367.861857 445.553182 
L 367.861857 408.489545 
L 164.604211 408.489545 
z
" style="fill:#36a2eb;opacity:0.5;"/>
   </g>
   <g id="matplotlib.axis_1">
    <g id="xtick_1">
     <g id="line2d_3">
      <defs>
       <path d="M 0 0 
L 0 3.5 
" id="md8d10db749" style="stroke:#000000;stroke-width:0.8;"/>
      </defs>
      <g>
       <use style="stroke:#000000;stroke-width:0.8;" x="115.085849" xlink:href="#md8d10db749" y="525.24"/>
      </g>
     </g>
     <g id="text_3">
      <!-- 6.5 -->
      <defs>
       <path d="M 33.015625 40.375 
Q 26.375 40.375 22.484375 35.828125 
Q 18.609375 31.296875 18.609375 23.390625 
Q 18.609375 15.53125 22.484375 10.953125 
Q 26.375 6.390625 33.015625 6.390625 
Q 39.65625 6.390625 43.53125 10.953125 
Q 47.40625 15.53125 47.40625 23.390625 
Q 47.40625 31.296875 43.53125 35.828125 
Q 39.65625 40.375 33.015625 40.375 
z
M 52.59375 71.296875 
L 52.59375 62.3125 
Q 48.875 64.0625 45.09375 64.984375 
Q 41.3125 65.921875 37.59375 65.921875 
Q 27.828125 65.921875 22.671875 59.328125 
Q 17.53125 52.734375 16.796875 39.40625 
Q 19.671875 43.65625 24.015625 45.921875 
Q 28.375 48.1875 33.59375 48.1875 
Q 44.578125 48.1875 50.953125 41.515625 
Q 57.328125 34.859375 57.328125 23.390625 
Q 57.328125 12.15625 50.6875 5.359375 
Q 44.046875 -1.421875 33.015625 -1.421875 
Q 20.359375 -1.421875 13.671875 8.265625 
Q 6.984375 17.96875 6.984375 36.375 
Q 6.984375 53.65625 15.1875 63.9375 
Q 23.390625 74.21875 37.203125 74.21875 
Q 40.921875 74.21875 44.703125 73.484375 
Q 48.484375 72.75 52.59375 71.296875 
z
" id="DejaVuSans-54"/>
       <path d="M 10.6875 12.40625 
L 21 12.40625 
L 21 0 
L 10.6875 0 
z
" id="DejaVuSans-46"/>
       <path d="M 10.796875 72.90625 
L 49.515625 72.90625 
L 49.515625 64.59375 
L 19.828125 64.59375 
L 19.828125 46.734375 
Q 21.96875 47.46875 24.109375 47.828125 
Q 26.265625 48.1875 28.421875 48.1875 
Q 40.625 48.1875 47.75 41.5 
Q 54.890625 34.8125 54.890625 23.390625 
Q 54.890625 11.625 47.5625 5.09375 
Q 40.234375 -1.421875 26.90625 -1.421875 
Q 22.3125 -1.421875 17.546875 -0.640625 
Q 12.796875 0.140625 7.71875 1.703125 
L 7.71875 11.625 
Q 12.109375 9.234375 16.796875 8.0625 
Q 21.484375 6.890625 26.703125 6.890625 
Q 35.15625 6.890625 40.078125 11.328125 
Q 45.015625 15.765625 45.015625 23.390625 
Q 45.015625 31 40.078125 35.4375 
Q 35.15625 39.890625 26.703125 39.890625 
Q 22.75 39.890625 18.8125 39.015625 
Q 14.890625 38.140625 10.796875 36.28125 
z
" id="DejaVuSans-53"/>
      </defs>
      <g transform="translate(103.953661 542.877813)scale(0.14 -0.14)">
       <use xlink:href="#DejaVuSans-54"/>
       <use x="63.623047" xlink:href="#DejaVuSans-46"/>
       <use x="95.410156" xlink:href="#DejaVuSans-53"/>
      </g>
     </g>
    </g>
    <g id="xtick_2">
     <g id="line2d_4">
      <g>
       <use style="stroke:#000000;stroke-width:0.8;" x="203.995957" xlink:href="#md8d10db749" y="525.24"/>
      </g>
     </g>
     <g id="text_4">
      <!-- 7.0 -->
      <defs>
       <path d="M 8.203125 72.90625 
L 55.078125 72.90625 
L 55.078125 68.703125 
L 28.609375 0 
L 18.3125 0 
L 43.21875 64.59375 
L 8.203125 64.59375 
z
" id="DejaVuSans-55"/>
       <path d="M 31.78125 66.40625 
Q 24.171875 66.40625 20.328125 58.90625 
Q 16.5 51.421875 16.5 36.375 
Q 16.5 21.390625 20.328125 13.890625 
Q 24.171875 6.390625 31.78125 6.390625 
Q 39.453125 6.390625 43.28125 13.890625 
Q 47.125 21.390625 47.125 36.375 
Q 47.125 51.421875 43.28125 58.90625 
Q 39.453125 66.40625 31.78125 66.40625 
z
M 31.78125 74.21875 
Q 44.046875 74.21875 50.515625 64.515625 
Q 56.984375 54.828125 56.984375 36.375 
Q 56.984375 17.96875 50.515625 8.265625 
Q 44.046875 -1.421875 31.78125 -1.421875 
Q 19.53125 -1.421875 13.0625 8.265625 
Q 6.59375 17.96875 6.59375 36.375 
Q 6.59375 54.828125 13.0625 64.515625 
Q 19.53125 74.21875 31.78125 74.21875 
z
" id="DejaVuSans-48"/>
      </defs>
      <g transform="translate(192.86377 542.877813)scale(0.14 -0.14)">
       <use xlink:href="#DejaVuSans-55"/>
       <use x="63.623047" xlink:href="#DejaVuSans-46"/>
       <use x="95.410156" xlink:href="#DejaVuSans-48"/>
      </g>
     </g>
    </g>
    <g id="xtick_3">
     <g id="line2d_5">
      <g>
       <use style="stroke:#000000;stroke-width:0.8;" x="292.906066" xlink:href="#md8d10db749" y="525.24"/>
      </g>
     </g>
     <g id="text_5">
      <!-- 7.5 -->
      <g transform="translate(281.773879 542.877813)scale(0.14 -0.14)">
       <use xlink:href="#DejaVuSans-55"/>
       <use x="63.623047" xlink:href="#DejaVuSans-46"/>
       <use x="95.410156" xlink:href="#DejaVuSans-53"/>
      </g>
     </g>
    </g>
    <g id="xtick_4">
     <g id="line2d_6">
      <g>
       <use style="stroke:#000000;stroke-width:0.8;" x="381.816175" xlink:href="#md8d10db749" y="525.24"/>
      </g>
     </g>
     <g id="text_6">
      <!-- 8.0 -->
      <defs>
       <path d="M 31.78125 34.625 
Q 24.75 34.625 20.71875 30.859375 
Q 16.703125 27.09375 16.703125 20.515625 
Q 16.703125 13.921875 20.71875 10.15625 
Q 24.75 6.390625 31.78125 6.390625 
Q 38.8125 6.390625 42.859375 10.171875 
Q 46.921875 13.96875 46.921875 20.515625 
Q 46.921875 27.09375 42.890625 30.859375 
Q 38.875 34.625 31.78125 34.625 
z
M 21.921875 38.8125 
Q 15.578125 40.375 12.03125 44.71875 
Q 8.5 49.078125 8.5 55.328125 
Q 8.5 64.0625 14.71875 69.140625 
Q 20.953125 74.21875 31.78125 74.21875 
Q 42.671875 74.21875 48.875 69.140625 
Q 55.078125 64.0625 55.078125 55.328125 
Q 55.078125 49.078125 51.53125 44.71875 
Q 48 40.375 41.703125 38.8125 
Q 48.828125 37.15625 52.796875 32.3125 
Q 56.78125 27.484375 56.78125 20.515625 
Q 56.78125 9.90625 50.3125 4.234375 
Q 43.84375 -1.421875 31.78125 -1.421875 
Q 19.734375 -1.421875 13.25 4.234375 
Q 6.78125 9.90625 6.78125 20.515625 
Q 6.78125 27.484375 10.78125 32.3125 
Q 14.796875 37.15625 21.921875 38.8125 
z
M 18.3125 54.390625 
Q 18.3125 48.734375 21.84375 45.5625 
Q 25.390625 42.390625 31.78125 42.390625 
Q 38.140625 42.390625 41.71875 45.5625 
Q 45.3125 48.734375 45.3125 54.390625 
Q 45.3125 60.0625 41.71875 63.234375 
Q 38.140625 66.40625 31.78125 66.40625 
Q 25.390625 66.40625 21.84375 63.234375 
Q 18.3125 60.0625 18.3125 54.390625 
z
" id="DejaVuSans-56"/>
      </defs>
      <g transform="translate(370.683988 542.877813)scale(0.14 -0.14)">
       <use xlink:href="#DejaVuSans-56"/>
       <use x="63.623047" xlink:href="#DejaVuSans-46"/>
       <use x="95.410156" xlink:href="#DejaVuSans-48"/>
      </g>
     </g>
    </g>
    <g id="xtick_5">
     <g id="line2d_7">
      <g>
       <use style="stroke:#000000;stroke-width:0.8;" x="470.726284" xlink:href="#md8d10db749" y="525.24"/>
      </g>
     </g>
     <g id="text_7">
      <!-- 8.5 -->
      <g transform="translate(459.594097 542.877813)scale(0.14 -0.14)">
       <use xlink:href="#DejaVuSans-56"/>
       <use x="63.623047" xlink:href="#DejaVuSans-46"/>
       <use x="95.410156" xlink:href="#DejaVuSans-53"/>
      </g>
     </g>
    </g>
   </g>
   <g id="line2d_8">
    <path clip-path="url(#p3877242991)" d="M 307.131684 525.24 
L 307.131684 402.93 
" style="fill:none;stroke:#ff6384;stroke-dasharray:5.55,2.4;stroke-dashoffset:0;stroke-opacity:0.8;stroke-width:1.5;"/>
   </g>
   <g id="line2d_9">
    <path clip-path="url(#p3877242991)" d="M 266.233034 525.24 
L 266.233034 402.93 
" style="fill:none;stroke:#36a2eb;stroke-dasharray:5.55,2.4;stroke-dashoffset:0;stroke-opacity:0.8;stroke-width:1.5;"/>
   </g>
   <g id="patch_10">
    <path d="M 36 525.24 
L 538.2 525.24 
" style="fill:none;stroke:#000000;stroke-linecap:square;stroke-linejoin:miter;stroke-width:0.8;"/>
   </g>
  </g>
 </g>
 <defs>
  <clipPath id="p791c1c5be4">
   <rect height="366.93" width="502.2" x="36" y="36"/>
  </clipPath>
  <clipPath id="p3877242991">
   <rect height="122.31" width="502.2" x="36" y="402.93"/>
  </clipPath>
 </defs>
</svg>
