<?xml version="1.0" encoding="utf-8" standalone="no"?>
<!DOCTYPE svg PUBLIC "-//W3C//DTD SVG 1.1//EN"
  "http://www.w3.org/Graphics/SVG/1.1/DTD/svg11.dtd">
<!-- Created with matplotlib (https://matplotlib.org/) -->
<svg height="581.789375pt" version="1.1" viewBox="0 0 574.2 581.789375" width="574.2pt" xmlns="http://www.w3.org/2000/svg" xmlns:xlink="http://www.w3.org/1999/xlink">
 <defs>
  <style type="text/css">
*{stroke-linecap:butt;stroke-linejoin:round;}
  </style>
 </defs>
 <g id="figure_1">
  <g id="patch_1">
   <path d="M 0 581.789375 
L 574.2 581.789375 
L 574.2 0 
L 0 0 
z
" style="fill:none;"/>
  </g>
  <g id="axes_1">
   <g id="patch_2">
    <path d="M 36 402.93 
L 538.2 402.93 
L 538.2 36 
L 36 36 
z
" style="fill:none;"/>
   </g>
   <g id="PolyCollection_1">
    <defs>
     <path d="M 105.247564 -195.538011 
L 105.247564 -195.649247 
L 109.390242 -195.691192 
L 113.532921 -195.747581 
L 117.675599 -195.822861 
L 121.818278 -195.922664 
L 125.960956 -196.054053 
L 130.103634 -196.225817 
L 134.246313 -196.448784 
L 138.388991 -196.736182 
L 142.53167 -197.10401 
L 146.674348 -197.571436 
L 150.817026 -198.161196 
L 154.959705 -198.899982 
L 159.102383 -199.818791 
L 163.245062 -200.95323 
L 167.38774 -202.343717 
L 171.530419 -204.035575 
L 175.673097 -206.078962 
L 179.815775 -208.528611 
L 183.958454 -211.443342 
L 188.101132 -214.885308 
L 192.243811 -218.918951 
L 196.386489 -223.609646 
L 200.529168 -229.022027 
L 204.671846 -235.217991 
L 208.814524 -242.254418 
L 212.957203 -250.180629 
L 217.099881 -259.03566 
L 221.24256 -268.845421 
L 225.385238 -279.619846 
L 229.527916 -291.350158 
L 233.670595 -304.006363 
L 237.813273 -317.535135 
L 241.955952 -331.858214 
L 246.09863 -346.871462 
L 250.241309 -362.444694 
L 254.383987 -378.422385 
L 258.526665 -394.625309 
L 262.669344 -410.85316 
L 266.812022 -426.888116 
L 270.954701 -442.499307 
L 275.097379 -457.448066 
L 279.240057 -471.493811 
L 283.382736 -484.400376 
L 287.525414 -495.942543 
L 291.668093 -505.912543 
L 295.810771 -514.126262 
L 299.95345 -520.428886 
L 304.096128 -524.699753 
L 308.238806 -526.856195 
L 312.381485 -526.856195 
L 316.524163 -524.699753 
L 320.666842 -520.428886 
L 324.80952 -514.126262 
L 328.952198 -505.912543 
L 333.094877 -495.942543 
L 337.237555 -484.400376 
L 341.380234 -471.493811 
L 345.522912 -457.448066 
L 349.665591 -442.499307 
L 353.808269 -426.888116 
L 357.950947 -410.85316 
L 362.093626 -394.625309 
L 366.236304 -378.422385 
L 370.378983 -362.444694 
L 374.521661 -346.871462 
L 378.664339 -331.858214 
L 382.807018 -317.535135 
L 386.949696 -304.006363 
L 391.092375 -291.350158 
L 395.235053 -279.619846 
L 399.377732 -268.845421 
L 403.52041 -259.03566 
L 407.663088 -250.180629 
L 411.805767 -242.254418 
L 415.948445 -235.217991 
L 420.091124 -229.022027 
L 424.233802 -223.609646 
L 428.37648 -218.918951 
L 432.519159 -214.885308 
L 436.661837 -211.443342 
L 440.804516 -208.528611 
L 444.947194 -206.078962 
L 449.089873 -204.035575 
L 453.232551 -202.343717 
L 457.375229 -200.95323 
L 461.517908 -199.818791 
L 465.660586 -198.899982 
L 469.803265 -198.161196 
L 473.945943 -197.571436 
L 478.088622 -197.10401 
L 482.2313 -196.736182 
L 486.373978 -196.448784 
L 490.516657 -196.225817 
L 494.659335 -196.054053 
L 498.802014 -195.922664 
L 502.944692 -195.822861 
L 507.08737 -195.747581 
L 511.230049 -195.691192 
L 515.372727 -195.649247 
L 515.372727 -195.538011 
L 515.372727 -195.538011 
L 511.230049 -195.538011 
L 507.08737 -195.538011 
L 502.944692 -195.538011 
L 498.802014 -195.538011 
L 494.659335 -195.538011 
L 490.516657 -195.538011 
L 486.373978 -195.538011 
L 482.2313 -195.538011 
L 478.088622 -195.538011 
L 473.945943 -195.538011 
L 469.803265 -195.538011 
L 465.660586 -195.538011 
L 461.517908 -195.538011 
L 457.375229 -195.538011 
L 453.232551 -195.538011 
L 449.089873 -195.538011 
L 444.947194 -195.538011 
L 440.804516 -195.538011 
L 436.661837 -195.538011 
L 432.519159 -195.538011 
L 428.37648 -195.538011 
L 424.233802 -195.538011 
L 420.091124 -195.538011 
L 415.948445 -195.538011 
L 411.805767 -195.538011 
L 407.663088 -195.538011 
L 403.52041 -195.538011 
L 399.377732 -195.538011 
L 395.235053 -195.538011 
L 391.092375 -195.538011 
L 386.949696 -195.538011 
L 382.807018 -195.538011 
L 378.664339 -195.538011 
L 374.521661 -195.538011 
L 370.378983 -195.538011 
L 366.236304 -195.538011 
L 362.093626 -195.538011 
L 357.950947 -195.538011 
L 353.808269 -195.538011 
L 349.665591 -195.538011 
L 345.522912 -195.538011 
L 341.380234 -195.538011 
L 337.237555 -195.538011 
L 333.094877 -195.538011 
L 328.952198 -195.538011 
L 324.80952 -195.538011 
L 320.666842 -195.538011 
L 316.524163 -195.538011 
L 312.381485 -195.538011 
L 308.238806 -195.538011 
L 304.096128 -195.538011 
L 299.95345 -195.538011 
L 295.810771 -195.538011 
L 291.668093 -195.538011 
L 287.525414 -195.538011 
L 283.382736 -195.538011 
L 279.240057 -195.538011 
L 275.097379 -195.538011 
L 270.954701 -195.538011 
L 266.812022 -195.538011 
L 262.669344 -195.538011 
L 258.526665 -195.538011 
L 254.383987 -195.538011 
L 250.241309 -195.538011 
L 246.09863 -195.538011 
L 241.955952 -195.538011 
L 237.813273 -195.538011 
L 233.670595 -195.538011 
L 229.527916 -195.538011 
L 225.385238 -195.538011 
L 221.24256 -195.538011 
L 217.099881 -195.538011 
L 212.957203 -195.538011 
L 208.814524 -195.538011 
L 204.671846 -195.538011 
L 200.529168 -195.538011 
L 196.386489 -195.538011 
L 192.243811 -195.538011 
L 188.101132 -195.538011 
L 183.958454 -195.538011 
L 179.815775 -195.538011 
L 175.673097 -195.538011 
L 171.530419 -195.538011 
L 167.38774 -195.538011 
L 163.245062 -195.538011 
L 159.102383 -195.538011 
L 154.959705 -195.538011 
L 150.817026 -195.538011 
L 146.674348 -195.538011 
L 142.53167 -195.538011 
L 138.388991 -195.538011 
L 134.246313 -195.538011 
L 130.103634 -195.538011 
L 125.960956 -195.538011 
L 121.818278 -195.538011 
L 117.675599 -195.538011 
L 113.532921 -195.538011 
L 109.390242 -195.538011 
L 105.247564 -195.538011 
z
" id="md662f431db" style="stroke:#ff6384;stroke-opacity:0.5;"/>
    </defs>
    <g clip-path="url(#pcb92173ed6)">
     <use style="fill:#ff6384;fill-opacity:0.5;stroke:#ff6384;stroke-opacity:0.5;" x="0" xlink:href="#md662f431db" y="581.789375"/>
    </g>
   </g>
   <g id="PolyCollection_2">
    <defs>
     <path d="M 58.827273 -195.538011 
L 58.827273 -195.650004 
L 62.941952 -195.692234 
L 67.056631 -195.749007 
L 71.17131 -195.8248 
L 75.285989 -195.925281 
L 79.400668 -196.057565 
L 83.515347 -196.230497 
L 87.630026 -196.454982 
L 91.744705 -196.744335 
L 95.859384 -197.114666 
L 99.974063 -197.585273 
L 104.088741 -198.179047 
L 108.20342 -198.922859 
L 112.318099 -199.847921 
L 116.432778 -200.990079 
L 120.547457 -202.390029 
L 124.662136 -204.093399 
L 128.776815 -206.150691 
L 132.891494 -208.617009 
L 137.006173 -211.551575 
L 141.120852 -215.016962 
L 145.235531 -219.078053 
L 149.35021 -223.800667 
L 153.464889 -229.249878 
L 157.579568 -235.488004 
L 161.694247 -242.572312 
L 165.808926 -250.552459 
L 169.923605 -259.467747 
L 174.038284 -269.344261 
L 178.152963 -280.192004 
L 182.267642 -292.002137 
L 186.382321 -304.744465 
L 190.497 -318.365297 
L 194.611679 -332.785841 
L 198.726358 -347.901251 
L 202.841037 -363.580456 
L 206.955716 -379.666871 
L 211.070395 -395.980052 
L 215.185074 -412.31833 
L 219.299753 -428.4624 
L 223.414432 -444.179822 
L 227.529111 -459.230303 
L 231.64379 -473.371627 
L 235.758469 -486.366018 
L 239.873148 -497.986726 
L 243.987827 -508.02457 
L 248.102506 -516.294181 
L 252.217185 -522.639693 
L 256.331864 -526.939623 
L 260.446543 -529.110739 
L 264.561222 -529.110739 
L 268.675901 -526.939623 
L 272.79058 -522.639693 
L 276.905259 -516.294181 
L 281.019938 -508.02457 
L 285.134617 -497.986726 
L 289.249295 -486.366018 
L 293.363974 -473.371627 
L 297.478653 -459.230303 
L 301.593332 -444.179822 
L 305.708011 -428.4624 
L 309.82269 -412.31833 
L 313.937369 -395.980052 
L 318.052048 -379.666871 
L 322.166727 -363.580456 
L 326.281406 -347.901251 
L 330.396085 -332.785841 
L 334.510764 -318.365297 
L 338.625443 -304.744465 
L 342.740122 -292.002137 
L 346.854801 -280.192004 
L 350.96948 -269.344261 
L 355.084159 -259.467747 
L 359.198838 -250.552459 
L 363.313517 -242.572312 
L 367.428196 -235.488004 
L 371.542875 -229.249878 
L 375.657554 -223.800667 
L 379.772233 -219.078053 
L 383.886912 -215.016962 
L 388.001591 -211.551575 
L 392.11627 -208.617009 
L 396.230949 -206.150691 
L 400.345628 -204.093399 
L 404.460307 -202.390029 
L 408.574986 -200.990079 
L 412.689665 -199.847921 
L 416.804344 -198.922859 
L 420.919023 -198.179047 
L 425.033702 -197.585273 
L 429.148381 -197.114666 
L 433.26306 -196.744335 
L 437.377739 -196.454982 
L 441.492418 -196.230497 
L 445.607097 -196.057565 
L 449.721776 -195.925281 
L 453.836455 -195.8248 
L 457.951134 -195.749007 
L 462.065813 -195.692234 
L 466.180492 -195.650004 
L 466.180492 -195.538011 
L 466.180492 -195.538011 
L 462.065813 -195.538011 
L 457.951134 -195.538011 
L 453.836455 -195.538011 
L 449.721776 -195.538011 
L 445.607097 -195.538011 
L 441.492418 -195.538011 
L 437.377739 -195.538011 
L 433.26306 -195.538011 
L 429.148381 -195.538011 
L 425.033702 -195.538011 
L 420.919023 -195.538011 
L 416.804344 -195.538011 
L 412.689665 -195.538011 
L 408.574986 -195.538011 
L 404.460307 -195.538011 
L 400.345628 -195.538011 
L 396.230949 -195.538011 
L 392.11627 -195.538011 
L 388.001591 -195.538011 
L 383.886912 -195.538011 
L 379.772233 -195.538011 
L 375.657554 -195.538011 
L 371.542875 -195.538011 
L 367.428196 -195.538011 
L 363.313517 -195.538011 
L 359.198838 -195.538011 
L 355.084159 -195.538011 
L 350.96948 -195.538011 
L 346.854801 -195.538011 
L 342.740122 -195.538011 
L 338.625443 -195.538011 
L 334.510764 -195.538011 
L 330.396085 -195.538011 
L 326.281406 -195.538011 
L 322.166727 -195.538011 
L 318.052048 -195.538011 
L 313.937369 -195.538011 
L 309.82269 -195.538011 
L 305.708011 -195.538011 
L 301.593332 -195.538011 
L 297.478653 -195.538011 
L 293.363974 -195.538011 
L 289.249295 -195.538011 
L 285.134617 -195.538011 
L 281.019938 -195.538011 
L 276.905259 -195.538011 
L 272.79058 -195.538011 
L 268.675901 -195.538011 
L 264.561222 -195.538011 
L 260.446543 -195.538011 
L 256.331864 -195.538011 
L 252.217185 -195.538011 
L 248.102506 -195.538011 
L 243.987827 -195.538011 
L 239.873148 -195.538011 
L 235.758469 -195.538011 
L 231.64379 -195.538011 
L 227.529111 -195.538011 
L 223.414432 -195.538011 
L 219.299753 -195.538011 
L 215.185074 -195.538011 
L 211.070395 -195.538011 
L 206.955716 -195.538011 
L 202.841037 -195.538011 
L 198.726358 -195.538011 
L 194.611679 -195.538011 
L 190.497 -195.538011 
L 186.382321 -195.538011 
L 182.267642 -195.538011 
L 178.152963 -195.538011 
L 174.038284 -195.538011 
L 169.923605 -195.538011 
L 165.808926 -195.538011 
L 161.694247 -195.538011 
L 157.579568 -195.538011 
L 153.464889 -195.538011 
L 149.35021 -195.538011 
L 145.235531 -195.538011 
L 141.120852 -195.538011 
L 137.006173 -195.538011 
L 132.891494 -195.538011 
L 128.776815 -195.538011 
L 124.662136 -195.538011 
L 120.547457 -195.538011 
L 116.432778 -195.538011 
L 112.318099 -195.538011 
L 108.20342 -195.538011 
L 104.088741 -195.538011 
L 99.974063 -195.538011 
L 95.859384 -195.538011 
L 91.744705 -195.538011 
L 87.630026 -195.538011 
L 83.515347 -195.538011 
L 79.400668 -195.538011 
L 75.285989 -195.538011 
L 71.17131 -195.538011 
L 67.056631 -195.538011 
L 62.941952 -195.538011 
L 58.827273 -195.538011 
z
" id="m9ff5e9ee84" style="stroke:#36a2eb;stroke-opacity:0.5;"/>
    </defs>
    <g clip-path="url(#pcb92173ed6)">
     <use style="fill:#36a2eb;fill-opacity:0.5;stroke:#36a2eb;stroke-opacity:0.5;" x="0" xlink:href="#m9ff5e9ee84" y="581.789375"/>
    </g>
   </g>
   <g id="line2d_1">
    <path clip-path="url(#pcb92173ed6)" d="M 105.247564 386.140128 
L 109.390242 386.098183 
L 113.532921 386.041794 
L 117.675599 385.966514 
L 121.818278 385.866711 
L 125.960956 385.735322 
L 130.103634 385.563558 
L 134.246313 385.340591 
L 138.388991 385.053193 
L 142.53167 384.685365 
L 146.674348 384.217939 
L 150.817026 383.628179 
L 154.959705 382.889393 
L 159.102383 381.970584 
L 163.245062 380.836145 
L 167.38774 379.445658 
L 171.530419 377.7538 
L 175.673097 375.710413 
L 179.815775 373.260764 
L 183.958454 370.346033 
L 188.101132 366.904067 
L 192.243811 362.870424 
L 196.386489 358.179729 
L 200.529168 352.767348 
L 204.671846 346.571384 
L 208.814524 339.534957 
L 212.957203 331.608746 
L 217.099881 322.753715 
L 221.24256 312.943954 
L 225.385238 302.169529 
L 229.527916 290.439217 
L 233.670595 277.783012 
L 237.813273 264.25424 
L 241.955952 249.931161 
L 246.09863 234.917913 
L 250.241309 219.344681 
L 254.383987 203.36699 
L 258.526665 187.164066 
L 262.669344 170.936215 
L 266.812022 154.901259 
L 270.954701 139.290068 
L 275.097379 124.341309 
L 279.240057 110.295564 
L 283.382736 97.388999 
L 287.525414 85.846832 
L 291.668093 75.876832 
L 295.810771 67.663113 
L 299.95345 61.360489 
L 304.096128 57.089622 
L 308.238806 54.93318 
L 312.381485 54.93318 
L 316.524163 57.089622 
L 320.666842 61.360489 
L 324.80952 67.663113 
L 328.952198 75.876832 
L 333.094877 85.846832 
L 337.237555 97.388999 
L 341.380234 110.295564 
L 345.522912 124.341309 
L 349.665591 139.290068 
L 353.808269 154.901259 
L 357.950947 170.936215 
L 362.093626 187.164066 
L 366.236304 203.36699 
L 370.378983 219.344681 
L 374.521661 234.917913 
L 378.664339 249.931161 
L 382.807018 264.25424 
L 386.949696 277.783012 
L 391.092375 290.439217 
L 395.235053 302.169529 
L 399.377732 312.943954 
L 403.52041 322.753715 
L 407.663088 331.608746 
L 411.805767 339.534957 
L 415.948445 346.571384 
L 420.091124 352.767348 
L 424.233802 358.179729 
L 428.37648 362.870424 
L 432.519159 366.904067 
L 436.661837 370.346033 
L 440.804516 373.260764 
L 444.947194 375.710413 
L 449.089873 377.7538 
L 453.232551 379.445658 
L 457.375229 380.836145 
L 461.517908 381.970584 
L 465.660586 382.889393 
L 469.803265 383.628179 
L 473.945943 384.217939 
L 478.088622 384.685365 
L 482.2313 385.053193 
L 486.373978 385.340591 
L 490.516657 385.563558 
L 494.659335 385.735322 
L 498.802014 385.866711 
L 502.944692 385.966514 
L 507.08737 386.041794 
L 511.230049 386.098183 
L 515.372727 386.140128 
" style="fill:none;stroke:#ff6384;stroke-linecap:square;"/>
   </g>
   <g id="line2d_2">
    <path clip-path="url(#pcb92173ed6)" d="M 58.827273 386.139371 
L 62.941952 386.097141 
L 67.056631 386.040368 
L 71.17131 385.964575 
L 75.285989 385.864094 
L 79.400668 385.73181 
L 83.515347 385.558878 
L 87.630026 385.334393 
L 91.744705 385.04504 
L 95.859384 384.674709 
L 99.974063 384.204102 
L 104.088741 383.610328 
L 108.20342 382.866516 
L 112.318099 381.941454 
L 116.432778 380.799296 
L 120.547457 379.399346 
L 124.662136 377.695976 
L 128.776815 375.638684 
L 132.891494 373.172366 
L 137.006173 370.2378 
L 141.120852 366.772413 
L 145.235531 362.711322 
L 149.35021 357.988708 
L 153.464889 352.539497 
L 157.579568 346.301371 
L 161.694247 339.217063 
L 165.808926 331.236916 
L 169.923605 322.321628 
L 174.038284 312.445114 
L 178.152963 301.597371 
L 182.267642 289.787238 
L 186.382321 277.04491 
L 190.497 263.424078 
L 194.611679 249.003534 
L 198.726358 233.888124 
L 202.841037 218.208919 
L 206.955716 202.122504 
L 211.070395 185.809323 
L 215.185074 169.471045 
L 219.299753 153.326975 
L 223.414432 137.609553 
L 227.529111 122.559072 
L 231.64379 108.417748 
L 235.758469 95.423357 
L 239.873148 83.802649 
L 243.987827 73.764805 
L 248.102506 65.495194 
L 252.217185 59.149682 
L 256.331864 54.849752 
L 260.446543 52.678636 
L 264.561222 52.678636 
L 268.675901 54.849752 
L 272.79058 59.149682 
L 276.905259 65.495194 
L 281.019938 73.764805 
L 285.134617 83.802649 
L 289.249295 95.423357 
L 293.363974 108.417748 
L 297.478653 122.559072 
L 301.593332 137.609553 
L 305.708011 153.326975 
L 309.82269 169.471045 
L 313.937369 185.809323 
L 318.052048 202.122504 
L 322.166727 218.208919 
L 326.281406 233.888124 
L 330.396085 249.003534 
L 334.510764 263.424078 
L 338.625443 277.04491 
L 342.740122 289.787238 
L 346.854801 301.597371 
L 350.96948 312.445114 
L 355.084159 322.321628 
L 359.198838 331.236916 
L 363.313517 339.217063 
L 367.428196 346.301371 
L 371.542875 352.539497 
L 375.657554 357.988708 
L 379.772233 362.711322 
L 383.886912 366.772413 
L 388.001591 370.2378 
L 392.11627 373.172366 
L 396.230949 375.638684 
L 400.345628 377.695976 
L 404.460307 379.399346 
L 408.574986 380.799296 
L 412.689665 381.941454 
L 416.804344 382.866516 
L 420.919023 383.610328 
L 425.033702 384.204102 
L 429.148381 384.674709 
L 433.26306 385.04504 
L 437.377739 385.334393 
L 441.492418 385.558878 
L 445.607097 385.73181 
L 449.721776 385.864094 
L 453.836455 385.964575 
L 457.951134 386.040368 
L 462.065813 386.097141 
L 466.180492 386.139371 
" style="fill:none;stroke:#36a2eb;stroke-linecap:square;"/>
   </g>
   <g id="patch_3">
    <path d="M 36 402.93 
L 538.2 402.93 
" style="fill:none;stroke:#000000;stroke-linecap:square;stroke-linejoin:miter;stroke-width:0.8;"/>
   </g>
   <g id="legend_1">
    <g id="patch_4">
     <path d="M 410.290313 88.688125 
L 528.4 88.688125 
Q 531.2 88.688125 531.2 85.888125 
L 531.2 45.8 
Q 531.2 43 528.4 43 
L 410.290313 43 
Q 407.490313 43 407.490313 45.8 
L 407.490313 85.888125 
Q 407.490313 88.688125 410.290313 88.688125 
z
" style="fill:#ffffff;opacity:0.8;stroke:#cccccc;stroke-linejoin:miter;"/>
    </g>
    <g id="patch_5">
     <path d="M 413.090313 59.237813 
L 441.090313 59.237813 
L 441.090313 49.437813 
L 413.090313 49.437813 
z
" style="fill:#ff6384;opacity:0.5;stroke:#ff6384;stroke-linejoin:miter;"/>
    </g>
    <g id="text_1">
     <!-- base -->
     <defs>
      <path d="M 48.6875 27.296875 
Q 48.6875 37.203125 44.609375 42.84375 
Q 40.53125 48.484375 33.40625 48.484375 
Q 26.265625 48.484375 22.1875 42.84375 
Q 18.109375 37.203125 18.109375 27.296875 
Q 18.109375 17.390625 22.1875 11.75 
Q 26.265625 6.109375 33.40625 6.109375 
Q 40.53125 6.109375 44.609375 11.75 
Q 48.6875 17.390625 48.6875 27.296875 
z
M 18.109375 46.390625 
Q 20.953125 51.265625 25.265625 53.625 
Q 29.59375 56 35.59375 56 
Q 45.5625 56 51.78125 48.09375 
Q 58.015625 40.1875 58.015625 27.296875 
Q 58.015625 14.40625 51.78125 6.484375 
Q 45.5625 -1.421875 35.59375 -1.421875 
Q 29.59375 -1.421875 25.265625 0.953125 
Q 20.953125 3.328125 18.109375 8.203125 
L 18.109375 0 
L 9.078125 0 
L 9.078125 75.984375 
L 18.109375 75.984375 
z
" id="DejaVuSans-98"/>
      <path d="M 34.28125 27.484375 
Q 23.390625 27.484375 19.1875 25 
Q 14.984375 22.515625 14.984375 16.5 
Q 14.984375 11.71875 18.140625 8.90625 
Q 21.296875 6.109375 26.703125 6.109375 
Q 34.1875 6.109375 38.703125 11.40625 
Q 43.21875 16.703125 43.21875 25.484375 
L 43.21875 27.484375 
z
M 52.203125 31.203125 
L 52.203125 0 
L 43.21875 0 
L 43.21875 8.296875 
Q 40.140625 3.328125 35.546875 0.953125 
Q 30.953125 -1.421875 24.3125 -1.421875 
Q 15.921875 -1.421875 10.953125 3.296875 
Q 6 8.015625 6 15.921875 
Q 6 25.140625 12.171875 29.828125 
Q 18.359375 34.515625 30.609375 34.515625 
L 43.21875 34.515625 
L 43.21875 35.40625 
Q 43.21875 41.609375 39.140625 45 
Q 35.0625 48.390625 27.6875 48.390625 
Q 23 48.390625 18.546875 47.265625 
Q 14.109375 46.140625 10.015625 43.890625 
L 10.015625 52.203125 
Q 14.9375 54.109375 19.578125 55.046875 
Q 24.21875 56 28.609375 56 
Q 40.484375 56 46.34375 49.84375 
Q 52.203125 43.703125 52.203125 31.203125 
z
" id="DejaVuSans-97"/>
      <path d="M 44.28125 53.078125 
L 44.28125 44.578125 
Q 40.484375 46.53125 36.375 47.5 
Q 32.28125 48.484375 27.875 48.484375 
Q 21.1875 48.484375 17.84375 46.4375 
Q 14.5 44.390625 14.5 40.28125 
Q 14.5 37.15625 16.890625 35.375 
Q 19.28125 33.59375 26.515625 31.984375 
L 29.59375 31.296875 
Q 39.15625 29.25 43.1875 25.515625 
Q 47.21875 21.78125 47.21875 15.09375 
Q 47.21875 7.46875 41.1875 3.015625 
Q 35.15625 -1.421875 24.609375 -1.421875 
Q 20.21875 -1.421875 15.453125 -0.5625 
Q 10.6875 0.296875 5.421875 2 
L 5.421875 11.28125 
Q 10.40625 8.6875 15.234375 7.390625 
Q 20.0625 6.109375 24.8125 6.109375 
Q 31.15625 6.109375 34.5625 8.28125 
Q 37.984375 10.453125 37.984375 14.40625 
Q 37.984375 18.0625 35.515625 20.015625 
Q 33.0625 21.96875 24.703125 23.78125 
L 21.578125 24.515625 
Q 13.234375 26.265625 9.515625 29.90625 
Q 5.8125 33.546875 5.8125 39.890625 
Q 5.8125 47.609375 11.28125 51.796875 
Q 16.75 56 26.8125 56 
Q 31.78125 56 36.171875 55.265625 
Q 40.578125 54.546875 44.28125 53.078125 
z
" id="DejaVuSans-115"/>
      <path d="M 56.203125 29.59375 
L 56.203125 25.203125 
L 14.890625 25.203125 
Q 15.484375 15.921875 20.484375 11.0625 
Q 25.484375 6.203125 34.421875 6.203125 
Q 39.59375 6.203125 44.453125 7.46875 
Q 49.3125 8.734375 54.109375 11.28125 
L 54.109375 2.78125 
Q 49.265625 0.734375 44.1875 -0.34375 
Q 39.109375 -1.421875 33.890625 -1.421875 
Q 20.796875 -1.421875 13.15625 6.1875 
Q 5.515625 13.8125 5.515625 26.8125 
Q 5.515625 40.234375 12.765625 48.109375 
Q 20.015625 56 32.328125 56 
Q 43.359375 56 49.78125 48.890625 
Q 56.203125 41.796875 56.203125 29.59375 
z
M 47.21875 32.234375 
Q 47.125 39.59375 43.09375 43.984375 
Q 39.0625 48.390625 32.421875 48.390625 
Q 24.90625 48.390625 20.390625 44.140625 
Q 15.875 39.890625 15.1875 32.171875 
z
" id="DejaVuSans-101"/>
     </defs>
     <g transform="translate(452.290313 59.237813)scale(0.14 -0.14)">
      <use xlink:href="#DejaVuSans-98"/>
      <use x="63.476562" xlink:href="#DejaVuSans-97"/>
      <use x="124.755859" xlink:href="#DejaVuSans-115"/>
      <use x="176.855469" xlink:href="#DejaVuSans-101"/>
     </g>
    </g>
    <g id="patch_6">
     <path d="M 413.090313 79.787188 
L 441.090313 79.787188 
L 441.090313 69.987188 
L 413.090313 69.987188 
z
" style="fill:#36a2eb;opacity:0.5;stroke:#36a2eb;stroke-linejoin:miter;"/>
    </g>
    <g id="text_2">
     <!-- no_license -->
     <defs>
      <path d="M 54.890625 33.015625 
L 54.890625 0 
L 45.90625 0 
L 45.90625 32.71875 
Q 45.90625 40.484375 42.875 44.328125 
Q 39.84375 48.1875 33.796875 48.1875 
Q 26.515625 48.1875 22.3125 43.546875 
Q 18.109375 38.921875 18.109375 30.90625 
L 18.109375 0 
L 9.078125 0 
L 9.078125 54.6875 
L 18.109375 54.6875 
L 18.109375 46.1875 
Q 21.34375 51.125 25.703125 53.5625 
Q 30.078125 56 35.796875 56 
Q 45.21875 56 50.046875 50.171875 
Q 54.890625 44.34375 54.890625 33.015625 
z
" id="DejaVuSans-110"/>
      <path d="M 30.609375 48.390625 
Q 23.390625 48.390625 19.1875 42.75 
Q 14.984375 37.109375 14.984375 27.296875 
Q 14.984375 17.484375 19.15625 11.84375 
Q 23.34375 6.203125 30.609375 6.203125 
Q 37.796875 6.203125 41.984375 11.859375 
Q 46.1875 17.53125 46.1875 27.296875 
Q 46.1875 37.015625 41.984375 42.703125 
Q 37.796875 48.390625 30.609375 48.390625 
z
M 30.609375 56 
Q 42.328125 56 49.015625 48.375 
Q 55.71875 40.765625 55.71875 27.296875 
Q 55.71875 13.875 49.015625 6.21875 
Q 42.328125 -1.421875 30.609375 -1.421875 
Q 18.84375 -1.421875 12.171875 6.21875 
Q 5.515625 13.875 5.515625 27.296875 
Q 5.515625 40.765625 12.171875 48.375 
Q 18.84375 56 30.609375 56 
z
" id="DejaVuSans-111"/>
      <path d="M 50.984375 -16.609375 
L 50.984375 -23.578125 
L -0.984375 -23.578125 
L -0.984375 -16.609375 
z
" id="DejaVuSans-95"/>
      <path d="M 9.421875 75.984375 
L 18.40625 75.984375 
L 18.40625 0 
L 9.421875 0 
z
" id="DejaVuSans-108"/>
      <path d="M 9.421875 54.6875 
L 18.40625 54.6875 
L 18.40625 0 
L 9.421875 0 
z
M 9.421875 75.984375 
L 18.40625 75.984375 
L 18.40625 64.59375 
L 9.421875 64.59375 
z
" id="DejaVuSans-105"/>
      <path d="M 48.78125 52.59375 
L 48.78125 44.1875 
Q 44.96875 46.296875 41.140625 47.34375 
Q 37.3125 48.390625 33.40625 48.390625 
Q 24.65625 48.390625 19.8125 42.84375 
Q 14.984375 37.3125 14.984375 27.296875 
Q 14.984375 17.28125 19.8125 11.734375 
Q 24.65625 6.203125 33.40625 6.203125 
Q 37.3125 6.203125 41.140625 7.25 
Q 44.96875 8.296875 48.78125 10.40625 
L 48.78125 2.09375 
Q 45.015625 0.34375 40.984375 -0.53125 
Q 36.96875 -1.421875 32.421875 -1.421875 
Q 20.0625 -1.421875 12.78125 6.34375 
Q 5.515625 14.109375 5.515625 27.296875 
Q 5.515625 40.671875 12.859375 48.328125 
Q 20.21875 56 33.015625 56 
Q 37.15625 56 41.109375 55.140625 
Q 45.0625 54.296875 48.78125 52.59375 
z
" id="DejaVuSans-99"/>
     </defs>
     <g transform="translate(452.290313 79.787188)scale(0.14 -0.14)">
      <use xlink:href="#DejaVuSans-110"/>
      <use x="63.378906" xlink:href="#DejaVuSans-111"/>
      <use x="124.560547" xlink:href="#DejaVuSans-95"/>
      <use x="174.560547" xlink:href="#DejaVuSans-108"/>
      <use x="202.34375" xlink:href="#DejaVuSans-105"/>
      <use x="230.126953" xlink:href="#DejaVuSans-99"/>
      <use x="285.107422" xlink:href="#DejaVuSans-101"/>
      <use x="346.630859" xlink:href="#DejaVuSans-110"/>
      <use x="410.009766" xlink:href="#DejaVuSans-115"/>
      <use x="462.109375" xlink:href="#DejaVuSans-101"/>
     </g>
    </g>
   </g>
  </g>
  <g id="axes_2">
   <g id="patch_7">
    <path d="M 36 525.24 
L 538.2 525.24 
L 538.2 402.93 
L 36 402.93 
z
" style="fill:none;"/>
   </g>
   <g id="patch_8">
    <path clip-path="url(#p673345fa01)" d="M 209.829481 519.680455 
L 410.790811 519.680455 
L 410.790811 482.616818 
L 209.829481 482.616818 
z
" style="fill:#ff6384;opacity:0.5;"/>
   </g>
   <g id="patch_9">
    <path clip-path="url(#p673345fa01)" d="M 162.702344 445.553182 
L 362.305421 445.553182 
L 362.305421 408.489545 
L 162.702344 408.489545 
z
" style="fill:#36a2eb;opacity:0.5;"/>
   </g>
   <g id="matplotlib.axis_1">
    <g id="xtick_1">
     <g id="line2d_3">
      <defs>
       <path d="M 0 0 
L 0 3.5 
" id="m27f68c0c51" style="stroke:#000000;stroke-width:0.8;"/>
      </defs>
      <g>
       <use style="stroke:#000000;stroke-width:0.8;" x="100.698067" xlink:href="#m27f68c0c51" y="525.24"/>
      </g>
     </g>
     <g id="text_3">
      <!-- 5.0 -->
      <defs>
       <path d="M 10.796875 72.90625 
L 49.515625 72.90625 
L 49.515625 64.59375 
L 19.828125 64.59375 
L 19.828125 46.734375 
Q 21.96875 47.46875 24.109375 47.828125 
Q 26.265625 48.1875 28.421875 48.1875 
Q 40.625 48.1875 47.75 41.5 
Q 54.890625 34.8125 54.890625 23.390625 
Q 54.890625 11.625 47.5625 5.09375 
Q 40.234375 -1.421875 26.90625 -1.421875 
Q 22.3125 -1.421875 17.546875 -0.640625 
Q 12.796875 0.140625 7.71875 1.703125 
L 7.71875 11.625 
Q 12.109375 9.234375 16.796875 8.0625 
Q 21.484375 6.890625 26.703125 6.890625 
Q 35.15625 6.890625 40.078125 11.328125 
Q 45.015625 15.765625 45.015625 23.390625 
Q 45.015625 31 40.078125 35.4375 
Q 35.15625 39.890625 26.703125 39.890625 
Q 22.75 39.890625 18.8125 39.015625 
Q 14.890625 38.140625 10.796875 36.28125 
z
" id="DejaVuSans-53"/>
       <path d="M 10.6875 12.40625 
L 21 12.40625 
L 21 0 
L 10.6875 0 
z
" id="DejaVuSans-46"/>
       <path d="M 31.78125 66.40625 
Q 24.171875 66.40625 20.328125 58.90625 
Q 16.5 51.421875 16.5 36.375 
Q 16.5 21.390625 20.328125 13.890625 
Q 24.171875 6.390625 31.78125 6.390625 
Q 39.453125 6.390625 43.28125 13.890625 
Q 47.125 21.390625 47.125 36.375 
Q 47.125 51.421875 43.28125 58.90625 
Q 39.453125 66.40625 31.78125 66.40625 
z
M 31.78125 74.21875 
Q 44.046875 74.21875 50.515625 64.515625 
Q 56.984375 54.828125 56.984375 36.375 
Q 56.984375 17.96875 50.515625 8.265625 
Q 44.046875 -1.421875 31.78125 -1.421875 
Q 19.53125 -1.421875 13.0625 8.265625 
Q 6.59375 17.96875 6.59375 36.375 
Q 6.59375 54.828125 13.0625 64.515625 
Q 19.53125 74.21875 31.78125 74.21875 
z
" id="DejaVuSans-48"/>
      </defs>
      <g transform="translate(89.56588 542.877813)scale(0.14 -0.14)">
       <use xlink:href="#DejaVuSans-53"/>
       <use x="63.623047" xlink:href="#DejaVuSans-46"/>
       <use x="95.410156" xlink:href="#DejaVuSans-48"/>
      </g>
     </g>
    </g>
    <g id="xtick_2">
     <g id="line2d_4">
      <g>
       <use style="stroke:#000000;stroke-width:0.8;" x="192.633189" xlink:href="#m27f68c0c51" y="525.24"/>
      </g>
     </g>
     <g id="text_4">
      <!-- 5.5 -->
      <g transform="translate(181.501002 542.877813)scale(0.14 -0.14)">
       <use xlink:href="#DejaVuSans-53"/>
       <use x="63.623047" xlink:href="#DejaVuSans-46"/>
       <use x="95.410156" xlink:href="#DejaVuSans-53"/>
      </g>
     </g>
    </g>
    <g id="xtick_3">
     <g id="line2d_5">
      <g>
       <use style="stroke:#000000;stroke-width:0.8;" x="284.568311" xlink:href="#m27f68c0c51" y="525.24"/>
      </g>
     </g>
     <g id="text_5">
      <!-- 6.0 -->
      <defs>
       <path d="M 33.015625 40.375 
Q 26.375 40.375 22.484375 35.828125 
Q 18.609375 31.296875 18.609375 23.390625 
Q 18.609375 15.53125 22.484375 10.953125 
Q 26.375 6.390625 33.015625 6.390625 
Q 39.65625 6.390625 43.53125 10.953125 
Q 47.40625 15.53125 47.40625 23.390625 
Q 47.40625 31.296875 43.53125 35.828125 
Q 39.65625 40.375 33.015625 40.375 
z
M 52.59375 71.296875 
L 52.59375 62.3125 
Q 48.875 64.0625 45.09375 64.984375 
Q 41.3125 65.921875 37.59375 65.921875 
Q 27.828125 65.921875 22.671875 59.328125 
Q 17.53125 52.734375 16.796875 39.40625 
Q 19.671875 43.65625 24.015625 45.921875 
Q 28.375 48.1875 33.59375 48.1875 
Q 44.578125 48.1875 50.953125 41.515625 
Q 57.328125 34.859375 57.328125 23.390625 
Q 57.328125 12.15625 50.6875 5.359375 
Q 44.046875 -1.421875 33.015625 -1.421875 
Q 20.359375 -1.421875 13.671875 8.265625 
Q 6.984375 17.96875 6.984375 36.375 
Q 6.984375 53.65625 15.1875 63.9375 
Q 23.390625 74.21875 37.203125 74.21875 
Q 40.921875 74.21875 44.703125 73.484375 
Q 48.484375 72.75 52.59375 71.296875 
z
" id="DejaVuSans-54"/>
      </defs>
      <g transform="translate(273.436124 542.877813)scale(0.14 -0.14)">
       <use xlink:href="#DejaVuSans-54"/>
       <use x="63.623047" xlink:href="#DejaVuSans-46"/>
       <use x="95.410156" xlink:href="#DejaVuSans-48"/>
      </g>
     </g>
    </g>
    <g id="xtick_4">
     <g id="line2d_6">
      <g>
       <use style="stroke:#000000;stroke-width:0.8;" x="376.503433" xlink:href="#m27f68c0c51" y="525.24"/>
      </g>
     </g>
     <g id="text_6">
      <!-- 6.5 -->
      <g transform="translate(365.371246 542.877813)scale(0.14 -0.14)">
       <use xlink:href="#DejaVuSans-54"/>
       <use x="63.623047" xlink:href="#DejaVuSans-46"/>
       <use x="95.410156" xlink:href="#DejaVuSans-53"/>
      </g>
     </g>
    </g>
    <g id="xtick_5">
     <g id="line2d_7">
      <g>
       <use style="stroke:#000000;stroke-width:0.8;" x="468.438555" xlink:href="#m27f68c0c51" y="525.24"/>
      </g>
     </g>
     <g id="text_7">
      <!-- 7.0 -->
      <defs>
       <path d="M 8.203125 72.90625 
L 55.078125 72.90625 
L 55.078125 68.703125 
L 28.609375 0 
L 18.3125 0 
L 43.21875 64.59375 
L 8.203125 64.59375 
z
" id="DejaVuSans-55"/>
      </defs>
      <g transform="translate(457.306368 542.877813)scale(0.14 -0.14)">
       <use xlink:href="#DejaVuSans-55"/>
       <use x="63.623047" xlink:href="#DejaVuSans-46"/>
       <use x="95.410156" xlink:href="#DejaVuSans-48"/>
      </g>
     </g>
    </g>
   </g>
   <g id="line2d_8">
    <path clip-path="url(#p673345fa01)" d="M 310.310146 525.24 
L 310.310146 402.93 
" style="fill:none;stroke:#ff6384;stroke-dasharray:5.55,2.4;stroke-dashoffset:0;stroke-opacity:0.8;stroke-width:1.5;"/>
   </g>
   <g id="line2d_9">
    <path clip-path="url(#p673345fa01)" d="M 262.503882 525.24 
L 262.503882 402.93 
" style="fill:none;stroke:#36a2eb;stroke-dasharray:5.55,2.4;stroke-dashoffset:0;stroke-opacity:0.8;stroke-width:1.5;"/>
   </g>
   <g id="patch_10">
    <path d="M 36 525.24 
L 538.2 525.24 
" style="fill:none;stroke:#000000;stroke-linecap:square;stroke-linejoin:miter;stroke-width:0.8;"/>
   </g>
  </g>
 </g>
 <defs>
  <clipPath id="pcb92173ed6">
   <rect height="366.93" width="502.2" x="36" y="36"/>
  </clipPath>
  <clipPath id="p673345fa01">
   <rect height="122.31" width="502.2" x="36" y="402.93"/>
  </clipPath>
 </defs>
</svg>
