<?xml version="1.0" encoding="utf-8" standalone="no"?>
<!DOCTYPE svg PUBLIC "-//W3C//DTD SVG 1.1//EN"
  "http://www.w3.org/Graphics/SVG/1.1/DTD/svg11.dtd">
<!-- Created with matplotlib (https://matplotlib.org/) -->
<svg height="581.789375pt" version="1.1" viewBox="0 0 574.2 581.789375" width="574.2pt" xmlns="http://www.w3.org/2000/svg" xmlns:xlink="http://www.w3.org/1999/xlink">
 <defs>
  <style type="text/css">
*{stroke-linecap:butt;stroke-linejoin:round;}
  </style>
 </defs>
 <g id="figure_1">
  <g id="patch_1">
   <path d="M 0 581.789375 
L 574.2 581.789375 
L 574.2 0 
L 0 0 
z
" style="fill:none;"/>
  </g>
  <g id="axes_1">
   <g id="patch_2">
    <path d="M 36 402.93 
L 538.2 402.93 
L 538.2 36 
L 36 36 
z
" style="fill:none;"/>
   </g>
   <g id="PolyCollection_1">
    <defs>
     <path d="M 103.541465 -195.538011 
L 103.541465 -195.649468 
L 107.701376 -195.691497 
L 111.861288 -195.747998 
L 116.0212 -195.823428 
L 120.181112 -195.923429 
L 124.341023 -196.05508 
L 128.500935 -196.227185 
L 132.660847 -196.450596 
L 136.820759 -196.738566 
L 140.98067 -197.107126 
L 145.140582 -197.575482 
L 149.300494 -198.166416 
L 153.460406 -198.906672 
L 157.620317 -199.82731 
L 161.780229 -200.964006 
L 165.940141 -202.35726 
L 170.100053 -204.052485 
L 174.259964 -206.099937 
L 178.419876 -208.554461 
L 182.579788 -211.474992 
L 186.7397 -214.923807 
L 190.899611 -218.965477 
L 195.059523 -223.665506 
L 199.219435 -229.088656 
L 203.379346 -235.29695 
L 207.539258 -242.347378 
L 211.69917 -250.289362 
L 215.859082 -259.162013 
L 220.018993 -268.991294 
L 224.178905 -279.78716 
L 228.338817 -291.540814 
L 232.498729 -304.222203 
L 236.65864 -317.777896 
L 240.818552 -332.129476 
L 244.978464 -347.172599 
L 249.138376 -362.77682 
L 253.298287 -378.786305 
L 257.458199 -395.021471 
L 261.618111 -411.281614 
L 265.778023 -427.348478 
L 269.937934 -442.990733 
L 274.097846 -457.969238 
L 278.257758 -472.042933 
L 282.41767 -484.975181 
L 286.577581 -496.540315 
L 290.737493 -506.530154 
L 294.897405 -514.760218 
L 299.057317 -521.075384 
L 303.217228 -525.35475 
L 307.37714 -527.515482 
L 311.537052 -527.515482 
L 315.696964 -525.35475 
L 319.856875 -521.075384 
L 324.016787 -514.760218 
L 328.176699 -506.530154 
L 332.336611 -496.540315 
L 336.496522 -484.975181 
L 340.656434 -472.042933 
L 344.816346 -457.969238 
L 348.976258 -442.990733 
L 353.136169 -427.348478 
L 357.296081 -411.281614 
L 361.455993 -395.021471 
L 365.615904 -378.786305 
L 369.775816 -362.77682 
L 373.935728 -347.172599 
L 378.09564 -332.129476 
L 382.255551 -317.777896 
L 386.415463 -304.222203 
L 390.575375 -291.540814 
L 394.735287 -279.78716 
L 398.895198 -268.991294 
L 403.05511 -259.162013 
L 407.215022 -250.289362 
L 411.374934 -242.347378 
L 415.534845 -235.29695 
L 419.694757 -229.088656 
L 423.854669 -223.665506 
L 428.014581 -218.965477 
L 432.174492 -214.923807 
L 436.334404 -211.474992 
L 440.494316 -208.554461 
L 444.654228 -206.099937 
L 448.814139 -204.052485 
L 452.974051 -202.35726 
L 457.133963 -200.964006 
L 461.293875 -199.82731 
L 465.453786 -198.906672 
L 469.613698 -198.166416 
L 473.77361 -197.575482 
L 477.933522 -197.107126 
L 482.093433 -196.738566 
L 486.253345 -196.450596 
L 490.413257 -196.227185 
L 494.573169 -196.05508 
L 498.73308 -195.923429 
L 502.892992 -195.823428 
L 507.052904 -195.747998 
L 511.212816 -195.691497 
L 515.372727 -195.649468 
L 515.372727 -195.538011 
L 515.372727 -195.538011 
L 511.212816 -195.538011 
L 507.052904 -195.538011 
L 502.892992 -195.538011 
L 498.73308 -195.538011 
L 494.573169 -195.538011 
L 490.413257 -195.538011 
L 486.253345 -195.538011 
L 482.093433 -195.538011 
L 477.933522 -195.538011 
L 473.77361 -195.538011 
L 469.613698 -195.538011 
L 465.453786 -195.538011 
L 461.293875 -195.538011 
L 457.133963 -195.538011 
L 452.974051 -195.538011 
L 448.814139 -195.538011 
L 444.654228 -195.538011 
L 440.494316 -195.538011 
L 436.334404 -195.538011 
L 432.174492 -195.538011 
L 428.014581 -195.538011 
L 423.854669 -195.538011 
L 419.694757 -195.538011 
L 415.534845 -195.538011 
L 411.374934 -195.538011 
L 407.215022 -195.538011 
L 403.05511 -195.538011 
L 398.895198 -195.538011 
L 394.735287 -195.538011 
L 390.575375 -195.538011 
L 386.415463 -195.538011 
L 382.255551 -195.538011 
L 378.09564 -195.538011 
L 373.935728 -195.538011 
L 369.775816 -195.538011 
L 365.615904 -195.538011 
L 361.455993 -195.538011 
L 357.296081 -195.538011 
L 353.136169 -195.538011 
L 348.976258 -195.538011 
L 344.816346 -195.538011 
L 340.656434 -195.538011 
L 336.496522 -195.538011 
L 332.336611 -195.538011 
L 328.176699 -195.538011 
L 324.016787 -195.538011 
L 319.856875 -195.538011 
L 315.696964 -195.538011 
L 311.537052 -195.538011 
L 307.37714 -195.538011 
L 303.217228 -195.538011 
L 299.057317 -195.538011 
L 294.897405 -195.538011 
L 290.737493 -195.538011 
L 286.577581 -195.538011 
L 282.41767 -195.538011 
L 278.257758 -195.538011 
L 274.097846 -195.538011 
L 269.937934 -195.538011 
L 265.778023 -195.538011 
L 261.618111 -195.538011 
L 257.458199 -195.538011 
L 253.298287 -195.538011 
L 249.138376 -195.538011 
L 244.978464 -195.538011 
L 240.818552 -195.538011 
L 236.65864 -195.538011 
L 232.498729 -195.538011 
L 228.338817 -195.538011 
L 224.178905 -195.538011 
L 220.018993 -195.538011 
L 215.859082 -195.538011 
L 211.69917 -195.538011 
L 207.539258 -195.538011 
L 203.379346 -195.538011 
L 199.219435 -195.538011 
L 195.059523 -195.538011 
L 190.899611 -195.538011 
L 186.7397 -195.538011 
L 182.579788 -195.538011 
L 178.419876 -195.538011 
L 174.259964 -195.538011 
L 170.100053 -195.538011 
L 165.940141 -195.538011 
L 161.780229 -195.538011 
L 157.620317 -195.538011 
L 153.460406 -195.538011 
L 149.300494 -195.538011 
L 145.140582 -195.538011 
L 140.98067 -195.538011 
L 136.820759 -195.538011 
L 132.660847 -195.538011 
L 128.500935 -195.538011 
L 124.341023 -195.538011 
L 120.181112 -195.538011 
L 116.0212 -195.538011 
L 111.861288 -195.538011 
L 107.701376 -195.538011 
L 103.541465 -195.538011 
z
" id="m952bf39ba8" style="stroke:#ff6384;stroke-opacity:0.5;"/>
    </defs>
    <g clip-path="url(#p16b5ab202d)">
     <use style="fill:#ff6384;fill-opacity:0.5;stroke:#ff6384;stroke-opacity:0.5;" x="0" xlink:href="#m952bf39ba8" y="581.789375"/>
    </g>
   </g>
   <g id="PolyCollection_2">
    <defs>
     <path d="M 58.827273 -195.538011 
L 58.827273 -195.650004 
L 62.96729 -195.692234 
L 67.107308 -195.749007 
L 71.247326 -195.8248 
L 75.387343 -195.925281 
L 79.527361 -196.057565 
L 83.667379 -196.230497 
L 87.807396 -196.454982 
L 91.947414 -196.744335 
L 96.087432 -197.114666 
L 100.227449 -197.585273 
L 104.367467 -198.179047 
L 108.507485 -198.922859 
L 112.647502 -199.847921 
L 116.78752 -200.990079 
L 120.927538 -202.390029 
L 125.067555 -204.093399 
L 129.207573 -206.150691 
L 133.34759 -208.617009 
L 137.487608 -211.551575 
L 141.627626 -215.016962 
L 145.767643 -219.078053 
L 149.907661 -223.800667 
L 154.047679 -229.249878 
L 158.187696 -235.488004 
L 162.327714 -242.572312 
L 166.467732 -250.552459 
L 170.607749 -259.467747 
L 174.747767 -269.344261 
L 178.887785 -280.192004 
L 183.027802 -292.002137 
L 187.16782 -304.744465 
L 191.307838 -318.365297 
L 195.447855 -332.785841 
L 199.587873 -347.901251 
L 203.727891 -363.580456 
L 207.867908 -379.666871 
L 212.007926 -395.980052 
L 216.147944 -412.31833 
L 220.287961 -428.4624 
L 224.427979 -444.179822 
L 228.567996 -459.230303 
L 232.708014 -473.371627 
L 236.848032 -486.366018 
L 240.988049 -497.986726 
L 245.128067 -508.02457 
L 249.268085 -516.294181 
L 253.408102 -522.639693 
L 257.54812 -526.939623 
L 261.688138 -529.110739 
L 265.828155 -529.110739 
L 269.968173 -526.939623 
L 274.108191 -522.639693 
L 278.248208 -516.294181 
L 282.388226 -508.02457 
L 286.528244 -497.986726 
L 290.668261 -486.366018 
L 294.808279 -473.371627 
L 298.948297 -459.230303 
L 303.088314 -444.179822 
L 307.228332 -428.4624 
L 311.36835 -412.31833 
L 315.508367 -395.980052 
L 319.648385 -379.666871 
L 323.788403 -363.580456 
L 327.92842 -347.901251 
L 332.068438 -332.785841 
L 336.208455 -318.365297 
L 340.348473 -304.744465 
L 344.488491 -292.002137 
L 348.628508 -280.192004 
L 352.768526 -269.344261 
L 356.908544 -259.467747 
L 361.048561 -250.552459 
L 365.188579 -242.572312 
L 369.328597 -235.488004 
L 373.468614 -229.249878 
L 377.608632 -223.800667 
L 381.74865 -219.078053 
L 385.888667 -215.016962 
L 390.028685 -211.551575 
L 394.168703 -208.617009 
L 398.30872 -206.150691 
L 402.448738 -204.093399 
L 406.588756 -202.390029 
L 410.728773 -200.990079 
L 414.868791 -199.847921 
L 419.008809 -198.922859 
L 423.148826 -198.179047 
L 427.288844 -197.585273 
L 431.428861 -197.114666 
L 435.568879 -196.744335 
L 439.708897 -196.454982 
L 443.848914 -196.230497 
L 447.988932 -196.057565 
L 452.12895 -195.925281 
L 456.268967 -195.8248 
L 460.408985 -195.749007 
L 464.549003 -195.692234 
L 468.68902 -195.650004 
L 468.68902 -195.538011 
L 468.68902 -195.538011 
L 464.549003 -195.538011 
L 460.408985 -195.538011 
L 456.268967 -195.538011 
L 452.12895 -195.538011 
L 447.988932 -195.538011 
L 443.848914 -195.538011 
L 439.708897 -195.538011 
L 435.568879 -195.538011 
L 431.428861 -195.538011 
L 427.288844 -195.538011 
L 423.148826 -195.538011 
L 419.008809 -195.538011 
L 414.868791 -195.538011 
L 410.728773 -195.538011 
L 406.588756 -195.538011 
L 402.448738 -195.538011 
L 398.30872 -195.538011 
L 394.168703 -195.538011 
L 390.028685 -195.538011 
L 385.888667 -195.538011 
L 381.74865 -195.538011 
L 377.608632 -195.538011 
L 373.468614 -195.538011 
L 369.328597 -195.538011 
L 365.188579 -195.538011 
L 361.048561 -195.538011 
L 356.908544 -195.538011 
L 352.768526 -195.538011 
L 348.628508 -195.538011 
L 344.488491 -195.538011 
L 340.348473 -195.538011 
L 336.208455 -195.538011 
L 332.068438 -195.538011 
L 327.92842 -195.538011 
L 323.788403 -195.538011 
L 319.648385 -195.538011 
L 315.508367 -195.538011 
L 311.36835 -195.538011 
L 307.228332 -195.538011 
L 303.088314 -195.538011 
L 298.948297 -195.538011 
L 294.808279 -195.538011 
L 290.668261 -195.538011 
L 286.528244 -195.538011 
L 282.388226 -195.538011 
L 278.248208 -195.538011 
L 274.108191 -195.538011 
L 269.968173 -195.538011 
L 265.828155 -195.538011 
L 261.688138 -195.538011 
L 257.54812 -195.538011 
L 253.408102 -195.538011 
L 249.268085 -195.538011 
L 245.128067 -195.538011 
L 240.988049 -195.538011 
L 236.848032 -195.538011 
L 232.708014 -195.538011 
L 228.567996 -195.538011 
L 224.427979 -195.538011 
L 220.287961 -195.538011 
L 216.147944 -195.538011 
L 212.007926 -195.538011 
L 207.867908 -195.538011 
L 203.727891 -195.538011 
L 199.587873 -195.538011 
L 195.447855 -195.538011 
L 191.307838 -195.538011 
L 187.16782 -195.538011 
L 183.027802 -195.538011 
L 178.887785 -195.538011 
L 174.747767 -195.538011 
L 170.607749 -195.538011 
L 166.467732 -195.538011 
L 162.327714 -195.538011 
L 158.187696 -195.538011 
L 154.047679 -195.538011 
L 149.907661 -195.538011 
L 145.767643 -195.538011 
L 141.627626 -195.538011 
L 137.487608 -195.538011 
L 133.34759 -195.538011 
L 129.207573 -195.538011 
L 125.067555 -195.538011 
L 120.927538 -195.538011 
L 116.78752 -195.538011 
L 112.647502 -195.538011 
L 108.507485 -195.538011 
L 104.367467 -195.538011 
L 100.227449 -195.538011 
L 96.087432 -195.538011 
L 91.947414 -195.538011 
L 87.807396 -195.538011 
L 83.667379 -195.538011 
L 79.527361 -195.538011 
L 75.387343 -195.538011 
L 71.247326 -195.538011 
L 67.107308 -195.538011 
L 62.96729 -195.538011 
L 58.827273 -195.538011 
z
" id="me8a2d0c101" style="stroke:#36a2eb;stroke-opacity:0.5;"/>
    </defs>
    <g clip-path="url(#p16b5ab202d)">
     <use style="fill:#36a2eb;fill-opacity:0.5;stroke:#36a2eb;stroke-opacity:0.5;" x="0" xlink:href="#me8a2d0c101" y="581.789375"/>
    </g>
   </g>
   <g id="line2d_1">
    <path clip-path="url(#p16b5ab202d)" d="M 103.541465 386.139907 
L 107.701376 386.097878 
L 111.861288 386.041377 
L 116.0212 385.965947 
L 120.181112 385.865946 
L 124.341023 385.734295 
L 128.500935 385.56219 
L 132.660847 385.338779 
L 136.820759 385.050809 
L 140.98067 384.682249 
L 145.140582 384.213893 
L 149.300494 383.622959 
L 153.460406 382.882703 
L 157.620317 381.962065 
L 161.780229 380.825369 
L 165.940141 379.432115 
L 170.100053 377.73689 
L 174.259964 375.689438 
L 178.419876 373.234914 
L 182.579788 370.314383 
L 186.7397 366.865568 
L 190.899611 362.823898 
L 195.059523 358.123869 
L 199.219435 352.700719 
L 203.379346 346.492425 
L 207.539258 339.441997 
L 211.69917 331.500013 
L 215.859082 322.627362 
L 220.018993 312.798081 
L 224.178905 302.002215 
L 228.338817 290.248561 
L 232.498729 277.567172 
L 236.65864 264.011479 
L 240.818552 249.659899 
L 244.978464 234.616776 
L 249.138376 219.012555 
L 253.298287 203.00307 
L 257.458199 186.767904 
L 261.618111 170.507761 
L 265.778023 154.440897 
L 269.937934 138.798642 
L 274.097846 123.820137 
L 278.257758 109.746442 
L 282.41767 96.814194 
L 286.577581 85.24906 
L 290.737493 75.259221 
L 294.897405 67.029157 
L 299.057317 60.713991 
L 303.217228 56.434625 
L 307.37714 54.273893 
L 311.537052 54.273893 
L 315.696964 56.434625 
L 319.856875 60.713991 
L 324.016787 67.029157 
L 328.176699 75.259221 
L 332.336611 85.24906 
L 336.496522 96.814194 
L 340.656434 109.746442 
L 344.816346 123.820137 
L 348.976258 138.798642 
L 353.136169 154.440897 
L 357.296081 170.507761 
L 361.455993 186.767904 
L 365.615904 203.00307 
L 369.775816 219.012555 
L 373.935728 234.616776 
L 378.09564 249.659899 
L 382.255551 264.011479 
L 386.415463 277.567172 
L 390.575375 290.248561 
L 394.735287 302.002215 
L 398.895198 312.798081 
L 403.05511 322.627362 
L 407.215022 331.500013 
L 411.374934 339.441997 
L 415.534845 346.492425 
L 419.694757 352.700719 
L 423.854669 358.123869 
L 428.014581 362.823898 
L 432.174492 366.865568 
L 436.334404 370.314383 
L 440.494316 373.234914 
L 444.654228 375.689438 
L 448.814139 377.73689 
L 452.974051 379.432115 
L 457.133963 380.825369 
L 461.293875 381.962065 
L 465.453786 382.882703 
L 469.613698 383.622959 
L 473.77361 384.213893 
L 477.933522 384.682249 
L 482.093433 385.050809 
L 486.253345 385.338779 
L 490.413257 385.56219 
L 494.573169 385.734295 
L 498.73308 385.865946 
L 502.892992 385.965947 
L 507.052904 386.041377 
L 511.212816 386.097878 
L 515.372727 386.139907 
" style="fill:none;stroke:#ff6384;stroke-linecap:square;"/>
   </g>
   <g id="line2d_2">
    <path clip-path="url(#p16b5ab202d)" d="M 58.827273 386.139371 
L 62.96729 386.097141 
L 67.107308 386.040368 
L 71.247326 385.964575 
L 75.387343 385.864094 
L 79.527361 385.73181 
L 83.667379 385.558878 
L 87.807396 385.334393 
L 91.947414 385.04504 
L 96.087432 384.674709 
L 100.227449 384.204102 
L 104.367467 383.610328 
L 108.507485 382.866516 
L 112.647502 381.941454 
L 116.78752 380.799296 
L 120.927538 379.399346 
L 125.067555 377.695976 
L 129.207573 375.638684 
L 133.34759 373.172366 
L 137.487608 370.2378 
L 141.627626 366.772413 
L 145.767643 362.711322 
L 149.907661 357.988708 
L 154.047679 352.539497 
L 158.187696 346.301371 
L 162.327714 339.217063 
L 166.467732 331.236916 
L 170.607749 322.321628 
L 174.747767 312.445114 
L 178.887785 301.597371 
L 183.027802 289.787238 
L 187.16782 277.04491 
L 191.307838 263.424078 
L 195.447855 249.003534 
L 199.587873 233.888124 
L 203.727891 218.208919 
L 207.867908 202.122504 
L 212.007926 185.809323 
L 216.147944 169.471045 
L 220.287961 153.326975 
L 224.427979 137.609553 
L 228.567996 122.559072 
L 232.708014 108.417748 
L 236.848032 95.423357 
L 240.988049 83.802649 
L 245.128067 73.764805 
L 249.268085 65.495194 
L 253.408102 59.149682 
L 257.54812 54.849752 
L 261.688138 52.678636 
L 265.828155 52.678636 
L 269.968173 54.849752 
L 274.108191 59.149682 
L 278.248208 65.495194 
L 282.388226 73.764805 
L 286.528244 83.802649 
L 290.668261 95.423357 
L 294.808279 108.417748 
L 298.948297 122.559072 
L 303.088314 137.609553 
L 307.228332 153.326975 
L 311.36835 169.471045 
L 315.508367 185.809323 
L 319.648385 202.122504 
L 323.788403 218.208919 
L 327.92842 233.888124 
L 332.068438 249.003534 
L 336.208455 263.424078 
L 340.348473 277.04491 
L 344.488491 289.787238 
L 348.628508 301.597371 
L 352.768526 312.445114 
L 356.908544 322.321628 
L 361.048561 331.236916 
L 365.188579 339.217063 
L 369.328597 346.301371 
L 373.468614 352.539497 
L 377.608632 357.988708 
L 381.74865 362.711322 
L 385.888667 366.772413 
L 390.028685 370.2378 
L 394.168703 373.172366 
L 398.30872 375.638684 
L 402.448738 377.695976 
L 406.588756 379.399346 
L 410.728773 380.799296 
L 414.868791 381.941454 
L 419.008809 382.866516 
L 423.148826 383.610328 
L 427.288844 384.204102 
L 431.428861 384.674709 
L 435.568879 385.04504 
L 439.708897 385.334393 
L 443.848914 385.558878 
L 447.988932 385.73181 
L 452.12895 385.864094 
L 456.268967 385.964575 
L 460.408985 386.040368 
L 464.549003 386.097141 
L 468.68902 386.139371 
" style="fill:none;stroke:#36a2eb;stroke-linecap:square;"/>
   </g>
   <g id="patch_3">
    <path d="M 36 402.93 
L 538.2 402.93 
" style="fill:none;stroke:#000000;stroke-linecap:square;stroke-linejoin:miter;stroke-width:0.8;"/>
   </g>
   <g id="legend_1">
    <g id="patch_4">
     <path d="M 410.290313 88.688125 
L 528.4 88.688125 
Q 531.2 88.688125 531.2 85.888125 
L 531.2 45.8 
Q 531.2 43 528.4 43 
L 410.290313 43 
Q 407.490313 43 407.490313 45.8 
L 407.490313 85.888125 
Q 407.490313 88.688125 410.290313 88.688125 
z
" style="fill:#ffffff;opacity:0.8;stroke:#cccccc;stroke-linejoin:miter;"/>
    </g>
    <g id="patch_5">
     <path d="M 413.090313 59.237813 
L 441.090313 59.237813 
L 441.090313 49.437813 
L 413.090313 49.437813 
z
" style="fill:#ff6384;opacity:0.5;stroke:#ff6384;stroke-linejoin:miter;"/>
    </g>
    <g id="text_1">
     <!-- base -->
     <defs>
      <path d="M 48.6875 27.296875 
Q 48.6875 37.203125 44.609375 42.84375 
Q 40.53125 48.484375 33.40625 48.484375 
Q 26.265625 48.484375 22.1875 42.84375 
Q 18.109375 37.203125 18.109375 27.296875 
Q 18.109375 17.390625 22.1875 11.75 
Q 26.265625 6.109375 33.40625 6.109375 
Q 40.53125 6.109375 44.609375 11.75 
Q 48.6875 17.390625 48.6875 27.296875 
z
M 18.109375 46.390625 
Q 20.953125 51.265625 25.265625 53.625 
Q 29.59375 56 35.59375 56 
Q 45.5625 56 51.78125 48.09375 
Q 58.015625 40.1875 58.015625 27.296875 
Q 58.015625 14.40625 51.78125 6.484375 
Q 45.5625 -1.421875 35.59375 -1.421875 
Q 29.59375 -1.421875 25.265625 0.953125 
Q 20.953125 3.328125 18.109375 8.203125 
L 18.109375 0 
L 9.078125 0 
L 9.078125 75.984375 
L 18.109375 75.984375 
z
" id="DejaVuSans-98"/>
      <path d="M 34.28125 27.484375 
Q 23.390625 27.484375 19.1875 25 
Q 14.984375 22.515625 14.984375 16.5 
Q 14.984375 11.71875 18.140625 8.90625 
Q 21.296875 6.109375 26.703125 6.109375 
Q 34.1875 6.109375 38.703125 11.40625 
Q 43.21875 16.703125 43.21875 25.484375 
L 43.21875 27.484375 
z
M 52.203125 31.203125 
L 52.203125 0 
L 43.21875 0 
L 43.21875 8.296875 
Q 40.140625 3.328125 35.546875 0.953125 
Q 30.953125 -1.421875 24.3125 -1.421875 
Q 15.921875 -1.421875 10.953125 3.296875 
Q 6 8.015625 6 15.921875 
Q 6 25.140625 12.171875 29.828125 
Q 18.359375 34.515625 30.609375 34.515625 
L 43.21875 34.515625 
L 43.21875 35.40625 
Q 43.21875 41.609375 39.140625 45 
Q 35.0625 48.390625 27.6875 48.390625 
Q 23 48.390625 18.546875 47.265625 
Q 14.109375 46.140625 10.015625 43.890625 
L 10.015625 52.203125 
Q 14.9375 54.109375 19.578125 55.046875 
Q 24.21875 56 28.609375 56 
Q 40.484375 56 46.34375 49.84375 
Q 52.203125 43.703125 52.203125 31.203125 
z
" id="DejaVuSans-97"/>
      <path d="M 44.28125 53.078125 
L 44.28125 44.578125 
Q 40.484375 46.53125 36.375 47.5 
Q 32.28125 48.484375 27.875 48.484375 
Q 21.1875 48.484375 17.84375 46.4375 
Q 14.5 44.390625 14.5 40.28125 
Q 14.5 37.15625 16.890625 35.375 
Q 19.28125 33.59375 26.515625 31.984375 
L 29.59375 31.296875 
Q 39.15625 29.25 43.1875 25.515625 
Q 47.21875 21.78125 47.21875 15.09375 
Q 47.21875 7.46875 41.1875 3.015625 
Q 35.15625 -1.421875 24.609375 -1.421875 
Q 20.21875 -1.421875 15.453125 -0.5625 
Q 10.6875 0.296875 5.421875 2 
L 5.421875 11.28125 
Q 10.40625 8.6875 15.234375 7.390625 
Q 20.0625 6.109375 24.8125 6.109375 
Q 31.15625 6.109375 34.5625 8.28125 
Q 37.984375 10.453125 37.984375 14.40625 
Q 37.984375 18.0625 35.515625 20.015625 
Q 33.0625 21.96875 24.703125 23.78125 
L 21.578125 24.515625 
Q 13.234375 26.265625 9.515625 29.90625 
Q 5.8125 33.546875 5.8125 39.890625 
Q 5.8125 47.609375 11.28125 51.796875 
Q 16.75 56 26.8125 56 
Q 31.78125 56 36.171875 55.265625 
Q 40.578125 54.546875 44.28125 53.078125 
z
" id="DejaVuSans-115"/>
      <path d="M 56.203125 29.59375 
L 56.203125 25.203125 
L 14.890625 25.203125 
Q 15.484375 15.921875 20.484375 11.0625 
Q 25.484375 6.203125 34.421875 6.203125 
Q 39.59375 6.203125 44.453125 7.46875 
Q 49.3125 8.734375 54.109375 11.28125 
L 54.109375 2.78125 
Q 49.265625 0.734375 44.1875 -0.34375 
Q 39.109375 -1.421875 33.890625 -1.421875 
Q 20.796875 -1.421875 13.15625 6.1875 
Q 5.515625 13.8125 5.515625 26.8125 
Q 5.515625 40.234375 12.765625 48.109375 
Q 20.015625 56 32.328125 56 
Q 43.359375 56 49.78125 48.890625 
Q 56.203125 41.796875 56.203125 29.59375 
z
M 47.21875 32.234375 
Q 47.125 39.59375 43.09375 43.984375 
Q 39.0625 48.390625 32.421875 48.390625 
Q 24.90625 48.390625 20.390625 44.140625 
Q 15.875 39.890625 15.1875 32.171875 
z
" id="DejaVuSans-101"/>
     </defs>
     <g transform="translate(452.290313 59.237813)scale(0.14 -0.14)">
      <use xlink:href="#DejaVuSans-98"/>
      <use x="63.476562" xlink:href="#DejaVuSans-97"/>
      <use x="124.755859" xlink:href="#DejaVuSans-115"/>
      <use x="176.855469" xlink:href="#DejaVuSans-101"/>
     </g>
    </g>
    <g id="patch_6">
     <path d="M 413.090313 79.787188 
L 441.090313 79.787188 
L 441.090313 69.987188 
L 413.090313 69.987188 
z
" style="fill:#36a2eb;opacity:0.5;stroke:#36a2eb;stroke-linejoin:miter;"/>
    </g>
    <g id="text_2">
     <!-- no_license -->
     <defs>
      <path d="M 54.890625 33.015625 
L 54.890625 0 
L 45.90625 0 
L 45.90625 32.71875 
Q 45.90625 40.484375 42.875 44.328125 
Q 39.84375 48.1875 33.796875 48.1875 
Q 26.515625 48.1875 22.3125 43.546875 
Q 18.109375 38.921875 18.109375 30.90625 
L 18.109375 0 
L 9.078125 0 
L 9.078125 54.6875 
L 18.109375 54.6875 
L 18.109375 46.1875 
Q 21.34375 51.125 25.703125 53.5625 
Q 30.078125 56 35.796875 56 
Q 45.21875 56 50.046875 50.171875 
Q 54.890625 44.34375 54.890625 33.015625 
z
" id="DejaVuSans-110"/>
      <path d="M 30.609375 48.390625 
Q 23.390625 48.390625 19.1875 42.75 
Q 14.984375 37.109375 14.984375 27.296875 
Q 14.984375 17.484375 19.15625 11.84375 
Q 23.34375 6.203125 30.609375 6.203125 
Q 37.796875 6.203125 41.984375 11.859375 
Q 46.1875 17.53125 46.1875 27.296875 
Q 46.1875 37.015625 41.984375 42.703125 
Q 37.796875 48.390625 30.609375 48.390625 
z
M 30.609375 56 
Q 42.328125 56 49.015625 48.375 
Q 55.71875 40.765625 55.71875 27.296875 
Q 55.71875 13.875 49.015625 6.21875 
Q 42.328125 -1.421875 30.609375 -1.421875 
Q 18.84375 -1.421875 12.171875 6.21875 
Q 5.515625 13.875 5.515625 27.296875 
Q 5.515625 40.765625 12.171875 48.375 
Q 18.84375 56 30.609375 56 
z
" id="DejaVuSans-111"/>
      <path d="M 50.984375 -16.609375 
L 50.984375 -23.578125 
L -0.984375 -23.578125 
L -0.984375 -16.609375 
z
" id="DejaVuSans-95"/>
      <path d="M 9.421875 75.984375 
L 18.40625 75.984375 
L 18.40625 0 
L 9.421875 0 
z
" id="DejaVuSans-108"/>
      <path d="M 9.421875 54.6875 
L 18.40625 54.6875 
L 18.40625 0 
L 9.421875 0 
z
M 9.421875 75.984375 
L 18.40625 75.984375 
L 18.40625 64.59375 
L 9.421875 64.59375 
z
" id="DejaVuSans-105"/>
      <path d="M 48.78125 52.59375 
L 48.78125 44.1875 
Q 44.96875 46.296875 41.140625 47.34375 
Q 37.3125 48.390625 33.40625 48.390625 
Q 24.65625 48.390625 19.8125 42.84375 
Q 14.984375 37.3125 14.984375 27.296875 
Q 14.984375 17.28125 19.8125 11.734375 
Q 24.65625 6.203125 33.40625 6.203125 
Q 37.3125 6.203125 41.140625 7.25 
Q 44.96875 8.296875 48.78125 10.40625 
L 48.78125 2.09375 
Q 45.015625 0.34375 40.984375 -0.53125 
Q 36.96875 -1.421875 32.421875 -1.421875 
Q 20.0625 -1.421875 12.78125 6.34375 
Q 5.515625 14.109375 5.515625 27.296875 
Q 5.515625 40.671875 12.859375 48.328125 
Q 20.21875 56 33.015625 56 
Q 37.15625 56 41.109375 55.140625 
Q 45.0625 54.296875 48.78125 52.59375 
z
" id="DejaVuSans-99"/>
     </defs>
     <g transform="translate(452.290313 79.787188)scale(0.14 -0.14)">
      <use xlink:href="#DejaVuSans-110"/>
      <use x="63.378906" xlink:href="#DejaVuSans-111"/>
      <use x="124.560547" xlink:href="#DejaVuSans-95"/>
      <use x="174.560547" xlink:href="#DejaVuSans-108"/>
      <use x="202.34375" xlink:href="#DejaVuSans-105"/>
      <use x="230.126953" xlink:href="#DejaVuSans-99"/>
      <use x="285.107422" xlink:href="#DejaVuSans-101"/>
      <use x="346.630859" xlink:href="#DejaVuSans-110"/>
      <use x="410.009766" xlink:href="#DejaVuSans-115"/>
      <use x="462.109375" xlink:href="#DejaVuSans-101"/>
     </g>
    </g>
   </g>
  </g>
  <g id="axes_2">
   <g id="patch_7">
    <path d="M 36 525.24 
L 538.2 525.24 
L 538.2 402.93 
L 36 402.93 
z
" style="fill:none;"/>
   </g>
   <g id="patch_8">
    <path clip-path="url(#p6fceae2e94)" d="M 208.558437 519.680455 
L 410.355755 519.680455 
L 410.355755 482.616818 
L 208.558437 482.616818 
z
" style="fill:#ff6384;opacity:0.5;"/>
   </g>
   <g id="patch_9">
    <path clip-path="url(#p6fceae2e94)" d="M 163.342018 445.553182 
L 364.174275 445.553182 
L 364.174275 408.489545 
L 163.342018 408.489545 
z
" style="fill:#36a2eb;opacity:0.5;"/>
   </g>
   <g id="matplotlib.axis_1">
    <g id="xtick_1">
     <g id="line2d_3">
      <defs>
       <path d="M 0 0 
L 0 3.5 
" id="m97828abb00" style="stroke:#000000;stroke-width:0.8;"/>
      </defs>
      <g>
       <use style="stroke:#000000;stroke-width:0.8;" x="117.873039" xlink:href="#m97828abb00" y="525.24"/>
      </g>
     </g>
     <g id="text_3">
      <!-- 6.5 -->
      <defs>
       <path d="M 33.015625 40.375 
Q 26.375 40.375 22.484375 35.828125 
Q 18.609375 31.296875 18.609375 23.390625 
Q 18.609375 15.53125 22.484375 10.953125 
Q 26.375 6.390625 33.015625 6.390625 
Q 39.65625 6.390625 43.53125 10.953125 
Q 47.40625 15.53125 47.40625 23.390625 
Q 47.40625 31.296875 43.53125 35.828125 
Q 39.65625 40.375 33.015625 40.375 
z
M 52.59375 71.296875 
L 52.59375 62.3125 
Q 48.875 64.0625 45.09375 64.984375 
Q 41.3125 65.921875 37.59375 65.921875 
Q 27.828125 65.921875 22.671875 59.328125 
Q 17.53125 52.734375 16.796875 39.40625 
Q 19.671875 43.65625 24.015625 45.921875 
Q 28.375 48.1875 33.59375 48.1875 
Q 44.578125 48.1875 50.953125 41.515625 
Q 57.328125 34.859375 57.328125 23.390625 
Q 57.328125 12.15625 50.6875 5.359375 
Q 44.046875 -1.421875 33.015625 -1.421875 
Q 20.359375 -1.421875 13.671875 8.265625 
Q 6.984375 17.96875 6.984375 36.375 
Q 6.984375 53.65625 15.1875 63.9375 
Q 23.390625 74.21875 37.203125 74.21875 
Q 40.921875 74.21875 44.703125 73.484375 
Q 48.484375 72.75 52.59375 71.296875 
z
" id="DejaVuSans-54"/>
       <path d="M 10.6875 12.40625 
L 21 12.40625 
L 21 0 
L 10.6875 0 
z
" id="DejaVuSans-46"/>
       <path d="M 10.796875 72.90625 
L 49.515625 72.90625 
L 49.515625 64.59375 
L 19.828125 64.59375 
L 19.828125 46.734375 
Q 21.96875 47.46875 24.109375 47.828125 
Q 26.265625 48.1875 28.421875 48.1875 
Q 40.625 48.1875 47.75 41.5 
Q 54.890625 34.8125 54.890625 23.390625 
Q 54.890625 11.625 47.5625 5.09375 
Q 40.234375 -1.421875 26.90625 -1.421875 
Q 22.3125 -1.421875 17.546875 -0.640625 
Q 12.796875 0.140625 7.71875 1.703125 
L 7.71875 11.625 
Q 12.109375 9.234375 16.796875 8.0625 
Q 21.484375 6.890625 26.703125 6.890625 
Q 35.15625 6.890625 40.078125 11.328125 
Q 45.015625 15.765625 45.015625 23.390625 
Q 45.015625 31 40.078125 35.4375 
Q 35.15625 39.890625 26.703125 39.890625 
Q 22.75 39.890625 18.8125 39.015625 
Q 14.890625 38.140625 10.796875 36.28125 
z
" id="DejaVuSans-53"/>
      </defs>
      <g transform="translate(106.740851 542.877813)scale(0.14 -0.14)">
       <use xlink:href="#DejaVuSans-54"/>
       <use x="63.623047" xlink:href="#DejaVuSans-46"/>
       <use x="95.410156" xlink:href="#DejaVuSans-53"/>
      </g>
     </g>
    </g>
    <g id="xtick_2">
     <g id="line2d_4">
      <g>
       <use style="stroke:#000000;stroke-width:0.8;" x="205.755634" xlink:href="#m97828abb00" y="525.24"/>
      </g>
     </g>
     <g id="text_4">
      <!-- 7.0 -->
      <defs>
       <path d="M 8.203125 72.90625 
L 55.078125 72.90625 
L 55.078125 68.703125 
L 28.609375 0 
L 18.3125 0 
L 43.21875 64.59375 
L 8.203125 64.59375 
z
" id="DejaVuSans-55"/>
       <path d="M 31.78125 66.40625 
Q 24.171875 66.40625 20.328125 58.90625 
Q 16.5 51.421875 16.5 36.375 
Q 16.5 21.390625 20.328125 13.890625 
Q 24.171875 6.390625 31.78125 6.390625 
Q 39.453125 6.390625 43.28125 13.890625 
Q 47.125 21.390625 47.125 36.375 
Q 47.125 51.421875 43.28125 58.90625 
Q 39.453125 66.40625 31.78125 66.40625 
z
M 31.78125 74.21875 
Q 44.046875 74.21875 50.515625 64.515625 
Q 56.984375 54.828125 56.984375 36.375 
Q 56.984375 17.96875 50.515625 8.265625 
Q 44.046875 -1.421875 31.78125 -1.421875 
Q 19.53125 -1.421875 13.0625 8.265625 
Q 6.59375 17.96875 6.59375 36.375 
Q 6.59375 54.828125 13.0625 64.515625 
Q 19.53125 74.21875 31.78125 74.21875 
z
" id="DejaVuSans-48"/>
      </defs>
      <g transform="translate(194.623446 542.877813)scale(0.14 -0.14)">
       <use xlink:href="#DejaVuSans-55"/>
       <use x="63.623047" xlink:href="#DejaVuSans-46"/>
       <use x="95.410156" xlink:href="#DejaVuSans-48"/>
      </g>
     </g>
    </g>
    <g id="xtick_3">
     <g id="line2d_5">
      <g>
       <use style="stroke:#000000;stroke-width:0.8;" x="293.638229" xlink:href="#m97828abb00" y="525.24"/>
      </g>
     </g>
     <g id="text_5">
      <!-- 7.5 -->
      <g transform="translate(282.506041 542.877813)scale(0.14 -0.14)">
       <use xlink:href="#DejaVuSans-55"/>
       <use x="63.623047" xlink:href="#DejaVuSans-46"/>
       <use x="95.410156" xlink:href="#DejaVuSans-53"/>
      </g>
     </g>
    </g>
    <g id="xtick_4">
     <g id="line2d_6">
      <g>
       <use style="stroke:#000000;stroke-width:0.8;" x="381.520824" xlink:href="#m97828abb00" y="525.24"/>
      </g>
     </g>
     <g id="text_6">
      <!-- 8.0 -->
      <defs>
       <path d="M 31.78125 34.625 
Q 24.75 34.625 20.71875 30.859375 
Q 16.703125 27.09375 16.703125 20.515625 
Q 16.703125 13.921875 20.71875 10.15625 
Q 24.75 6.390625 31.78125 6.390625 
Q 38.8125 6.390625 42.859375 10.171875 
Q 46.921875 13.96875 46.921875 20.515625 
Q 46.921875 27.09375 42.890625 30.859375 
Q 38.875 34.625 31.78125 34.625 
z
M 21.921875 38.8125 
Q 15.578125 40.375 12.03125 44.71875 
Q 8.5 49.078125 8.5 55.328125 
Q 8.5 64.0625 14.71875 69.140625 
Q 20.953125 74.21875 31.78125 74.21875 
Q 42.671875 74.21875 48.875 69.140625 
Q 55.078125 64.0625 55.078125 55.328125 
Q 55.078125 49.078125 51.53125 44.71875 
Q 48 40.375 41.703125 38.8125 
Q 48.828125 37.15625 52.796875 32.3125 
Q 56.78125 27.484375 56.78125 20.515625 
Q 56.78125 9.90625 50.3125 4.234375 
Q 43.84375 -1.421875 31.78125 -1.421875 
Q 19.734375 -1.421875 13.25 4.234375 
Q 6.78125 9.90625 6.78125 20.515625 
Q 6.78125 27.484375 10.78125 32.3125 
Q 14.796875 37.15625 21.921875 38.8125 
z
M 18.3125 54.390625 
Q 18.3125 48.734375 21.84375 45.5625 
Q 25.390625 42.390625 31.78125 42.390625 
Q 38.140625 42.390625 41.71875 45.5625 
Q 45.3125 48.734375 45.3125 54.390625 
Q 45.3125 60.0625 41.71875 63.234375 
Q 38.140625 66.40625 31.78125 66.40625 
Q 25.390625 66.40625 21.84375 63.234375 
Q 18.3125 60.0625 18.3125 54.390625 
z
" id="DejaVuSans-56"/>
      </defs>
      <g transform="translate(370.388636 542.877813)scale(0.14 -0.14)">
       <use xlink:href="#DejaVuSans-56"/>
       <use x="63.623047" xlink:href="#DejaVuSans-46"/>
       <use x="95.410156" xlink:href="#DejaVuSans-48"/>
      </g>
     </g>
    </g>
    <g id="xtick_5">
     <g id="line2d_7">
      <g>
       <use style="stroke:#000000;stroke-width:0.8;" x="469.403419" xlink:href="#m97828abb00" y="525.24"/>
      </g>
     </g>
     <g id="text_7">
      <!-- 8.5 -->
      <g transform="translate(458.271231 542.877813)scale(0.14 -0.14)">
       <use xlink:href="#DejaVuSans-56"/>
       <use x="63.623047" xlink:href="#DejaVuSans-46"/>
       <use x="95.410156" xlink:href="#DejaVuSans-53"/>
      </g>
     </g>
    </g>
   </g>
   <g id="line2d_8">
    <path clip-path="url(#p6fceae2e94)" d="M 309.457096 525.24 
L 309.457096 402.93 
" style="fill:none;stroke:#ff6384;stroke-dasharray:5.55,2.4;stroke-dashoffset:0;stroke-opacity:0.8;stroke-width:1.5;"/>
   </g>
   <g id="line2d_9">
    <path clip-path="url(#p6fceae2e94)" d="M 263.758147 525.24 
L 263.758147 402.93 
" style="fill:none;stroke:#36a2eb;stroke-dasharray:5.55,2.4;stroke-dashoffset:0;stroke-opacity:0.8;stroke-width:1.5;"/>
   </g>
   <g id="patch_10">
    <path d="M 36 525.24 
L 538.2 525.24 
" style="fill:none;stroke:#000000;stroke-linecap:square;stroke-linejoin:miter;stroke-width:0.8;"/>
   </g>
  </g>
 </g>
 <defs>
  <clipPath id="p16b5ab202d">
   <rect height="366.93" width="502.2" x="36" y="36"/>
  </clipPath>
  <clipPath id="p6fceae2e94">
   <rect height="122.31" width="502.2" x="36" y="402.93"/>
  </clipPath>
 </defs>
</svg>
