<?xml version="1.0" encoding="utf-8" standalone="no"?>
<!DOCTYPE svg PUBLIC "-//W3C//DTD SVG 1.1//EN"
  "http://www.w3.org/Graphics/SVG/1.1/DTD/svg11.dtd">
<!-- Created with matplotlib (https://matplotlib.org/) -->
<svg height="581.789375pt" version="1.1" viewBox="0 0 574.2 581.789375" width="574.2pt" xmlns="http://www.w3.org/2000/svg" xmlns:xlink="http://www.w3.org/1999/xlink">
 <defs>
  <style type="text/css">
*{stroke-linecap:butt;stroke-linejoin:round;}
  </style>
 </defs>
 <g id="figure_1">
  <g id="patch_1">
   <path d="M 0 581.789375 
L 574.2 581.789375 
L 574.2 0 
L 0 0 
z
" style="fill:none;"/>
  </g>
  <g id="axes_1">
   <g id="patch_2">
    <path d="M 36 402.93 
L 538.2 402.93 
L 538.2 36 
L 36 36 
z
" style="fill:none;"/>
   </g>
   <g id="PolyCollection_1">
    <defs>
     <path d="M 100.445439 -195.538011 
L 100.445439 -195.649527 
L 104.636624 -195.691578 
L 108.827809 -195.748109 
L 113.018994 -195.823579 
L 117.210178 -195.923633 
L 121.401363 -196.055354 
L 125.592548 -196.22755 
L 129.783732 -196.451079 
L 133.974917 -196.739201 
L 138.166102 -197.107956 
L 142.357287 -197.57656 
L 146.548471 -198.167807 
L 150.739656 -198.908454 
L 154.930841 -199.829579 
L 159.122026 -200.966876 
L 163.31321 -202.360867 
L 167.504395 -204.056989 
L 171.69558 -206.105525 
L 175.886764 -208.561347 
L 180.077949 -211.483423 
L 184.269134 -214.934062 
L 188.460319 -218.97787 
L 192.651503 -223.680385 
L 196.842688 -229.106405 
L 201.033873 -235.317982 
L 205.225058 -242.37214 
L 209.416242 -250.318325 
L 213.607427 -259.19567 
L 217.798612 -269.030151 
L 221.989796 -279.831728 
L 226.180981 -291.591599 
L 230.372166 -304.279697 
L 234.563351 -317.842561 
L 238.754535 -332.201733 
L 242.94572 -347.252813 
L 247.136905 -362.86529 
L 251.328089 -378.883243 
L 255.519274 -395.126998 
L 259.710459 -411.395742 
L 263.901644 -427.471105 
L 268.092828 -443.121635 
L 272.284013 -458.108064 
L 276.475198 -472.189204 
L 280.666383 -485.128293 
L 284.857567 -496.699545 
L 289.048752 -506.694669 
L 293.239937 -514.929086 
L 297.431121 -521.247592 
L 301.622306 -525.529222 
L 305.813491 -527.691098 
L 310.004676 -527.691098 
L 314.19586 -525.529222 
L 318.387045 -521.247592 
L 322.57823 -514.929086 
L 326.769415 -506.694669 
L 330.960599 -496.699545 
L 335.151784 -485.128293 
L 339.342969 -472.189204 
L 343.534153 -458.108064 
L 347.725338 -443.121635 
L 351.916523 -427.471105 
L 356.107708 -411.395742 
L 360.298892 -395.126998 
L 364.490077 -378.883243 
L 368.681262 -362.86529 
L 372.872447 -347.252813 
L 377.063631 -332.201733 
L 381.254816 -317.842561 
L 385.446001 -304.279697 
L 389.637185 -291.591599 
L 393.82837 -279.831728 
L 398.019555 -269.030151 
L 402.21074 -259.19567 
L 406.401924 -250.318325 
L 410.593109 -242.37214 
L 414.784294 -235.317982 
L 418.975479 -229.106405 
L 423.166663 -223.680385 
L 427.357848 -218.97787 
L 431.549033 -214.934062 
L 435.740217 -211.483423 
L 439.931402 -208.561347 
L 444.122587 -206.105525 
L 448.313772 -204.056989 
L 452.504956 -202.360867 
L 456.696141 -200.966876 
L 460.887326 -199.829579 
L 465.078511 -198.908454 
L 469.269695 -198.167807 
L 473.46088 -197.57656 
L 477.652065 -197.107956 
L 481.843249 -196.739201 
L 486.034434 -196.451079 
L 490.225619 -196.22755 
L 494.416804 -196.055354 
L 498.607988 -195.923633 
L 502.799173 -195.823579 
L 506.990358 -195.748109 
L 511.181543 -195.691578 
L 515.372727 -195.649527 
L 515.372727 -195.538011 
L 515.372727 -195.538011 
L 511.181543 -195.538011 
L 506.990358 -195.538011 
L 502.799173 -195.538011 
L 498.607988 -195.538011 
L 494.416804 -195.538011 
L 490.225619 -195.538011 
L 486.034434 -195.538011 
L 481.843249 -195.538011 
L 477.652065 -195.538011 
L 473.46088 -195.538011 
L 469.269695 -195.538011 
L 465.078511 -195.538011 
L 460.887326 -195.538011 
L 456.696141 -195.538011 
L 452.504956 -195.538011 
L 448.313772 -195.538011 
L 444.122587 -195.538011 
L 439.931402 -195.538011 
L 435.740217 -195.538011 
L 431.549033 -195.538011 
L 427.357848 -195.538011 
L 423.166663 -195.538011 
L 418.975479 -195.538011 
L 414.784294 -195.538011 
L 410.593109 -195.538011 
L 406.401924 -195.538011 
L 402.21074 -195.538011 
L 398.019555 -195.538011 
L 393.82837 -195.538011 
L 389.637185 -195.538011 
L 385.446001 -195.538011 
L 381.254816 -195.538011 
L 377.063631 -195.538011 
L 372.872447 -195.538011 
L 368.681262 -195.538011 
L 364.490077 -195.538011 
L 360.298892 -195.538011 
L 356.107708 -195.538011 
L 351.916523 -195.538011 
L 347.725338 -195.538011 
L 343.534153 -195.538011 
L 339.342969 -195.538011 
L 335.151784 -195.538011 
L 330.960599 -195.538011 
L 326.769415 -195.538011 
L 322.57823 -195.538011 
L 318.387045 -195.538011 
L 314.19586 -195.538011 
L 310.004676 -195.538011 
L 305.813491 -195.538011 
L 301.622306 -195.538011 
L 297.431121 -195.538011 
L 293.239937 -195.538011 
L 289.048752 -195.538011 
L 284.857567 -195.538011 
L 280.666383 -195.538011 
L 276.475198 -195.538011 
L 272.284013 -195.538011 
L 268.092828 -195.538011 
L 263.901644 -195.538011 
L 259.710459 -195.538011 
L 255.519274 -195.538011 
L 251.328089 -195.538011 
L 247.136905 -195.538011 
L 242.94572 -195.538011 
L 238.754535 -195.538011 
L 234.563351 -195.538011 
L 230.372166 -195.538011 
L 226.180981 -195.538011 
L 221.989796 -195.538011 
L 217.798612 -195.538011 
L 213.607427 -195.538011 
L 209.416242 -195.538011 
L 205.225058 -195.538011 
L 201.033873 -195.538011 
L 196.842688 -195.538011 
L 192.651503 -195.538011 
L 188.460319 -195.538011 
L 184.269134 -195.538011 
L 180.077949 -195.538011 
L 175.886764 -195.538011 
L 171.69558 -195.538011 
L 167.504395 -195.538011 
L 163.31321 -195.538011 
L 159.122026 -195.538011 
L 154.930841 -195.538011 
L 150.739656 -195.538011 
L 146.548471 -195.538011 
L 142.357287 -195.538011 
L 138.166102 -195.538011 
L 133.974917 -195.538011 
L 129.783732 -195.538011 
L 125.592548 -195.538011 
L 121.401363 -195.538011 
L 117.210178 -195.538011 
L 113.018994 -195.538011 
L 108.827809 -195.538011 
L 104.636624 -195.538011 
L 100.445439 -195.538011 
z
" id="mcc9912aeb0" style="stroke:#ff6384;stroke-opacity:0.5;"/>
    </defs>
    <g clip-path="url(#p9f17624769)">
     <use style="fill:#ff6384;fill-opacity:0.5;stroke:#ff6384;stroke-opacity:0.5;" x="0" xlink:href="#mcc9912aeb0" y="581.789375"/>
    </g>
   </g>
   <g id="PolyCollection_2">
    <defs>
     <path d="M 58.827273 -195.538011 
L 58.827273 -195.650004 
L 63.00062 -195.692234 
L 67.173968 -195.749007 
L 71.347316 -195.8248 
L 75.520663 -195.925281 
L 79.694011 -196.057565 
L 83.867358 -196.230497 
L 88.040706 -196.454982 
L 92.214054 -196.744335 
L 96.387401 -197.114666 
L 100.560749 -197.585273 
L 104.734096 -198.179047 
L 108.907444 -198.922859 
L 113.080792 -199.847921 
L 117.254139 -200.990079 
L 121.427487 -202.390029 
L 125.600834 -204.093399 
L 129.774182 -206.150691 
L 133.94753 -208.617009 
L 138.120877 -211.551575 
L 142.294225 -215.016962 
L 146.467572 -219.078053 
L 150.64092 -223.800667 
L 154.814268 -229.249878 
L 158.987615 -235.488004 
L 163.160963 -242.572312 
L 167.33431 -250.552459 
L 171.507658 -259.467747 
L 175.681006 -269.344261 
L 179.854353 -280.192004 
L 184.027701 -292.002137 
L 188.201048 -304.744465 
L 192.374396 -318.365297 
L 196.547744 -332.785841 
L 200.721091 -347.901251 
L 204.894439 -363.580456 
L 209.067786 -379.666871 
L 213.241134 -395.980052 
L 217.414482 -412.31833 
L 221.587829 -428.4624 
L 225.761177 -444.179822 
L 229.934525 -459.230303 
L 234.107872 -473.371627 
L 238.28122 -486.366018 
L 242.454567 -497.986726 
L 246.627915 -508.02457 
L 250.801263 -516.294181 
L 254.97461 -522.639693 
L 259.147958 -526.939623 
L 263.321305 -529.110739 
L 267.494653 -529.110739 
L 271.668001 -526.939623 
L 275.841348 -522.639693 
L 280.014696 -516.294181 
L 284.188043 -508.02457 
L 288.361391 -497.986726 
L 292.534739 -486.366018 
L 296.708086 -473.371627 
L 300.881434 -459.230303 
L 305.054781 -444.179822 
L 309.228129 -428.4624 
L 313.401477 -412.31833 
L 317.574824 -395.980052 
L 321.748172 -379.666871 
L 325.921519 -363.580456 
L 330.094867 -347.901251 
L 334.268215 -332.785841 
L 338.441562 -318.365297 
L 342.61491 -304.744465 
L 346.788257 -292.002137 
L 350.961605 -280.192004 
L 355.134953 -269.344261 
L 359.3083 -259.467747 
L 363.481648 -250.552459 
L 367.654995 -242.572312 
L 371.828343 -235.488004 
L 376.001691 -229.249878 
L 380.175038 -223.800667 
L 384.348386 -219.078053 
L 388.521733 -215.016962 
L 392.695081 -211.551575 
L 396.868429 -208.617009 
L 401.041776 -206.150691 
L 405.215124 -204.093399 
L 409.388471 -202.390029 
L 413.561819 -200.990079 
L 417.735167 -199.847921 
L 421.908514 -198.922859 
L 426.081862 -198.179047 
L 430.25521 -197.585273 
L 434.428557 -197.114666 
L 438.601905 -196.744335 
L 442.775252 -196.454982 
L 446.9486 -196.230497 
L 451.121948 -196.057565 
L 455.295295 -195.925281 
L 459.468643 -195.8248 
L 463.64199 -195.749007 
L 467.815338 -195.692234 
L 471.988686 -195.650004 
L 471.988686 -195.538011 
L 471.988686 -195.538011 
L 467.815338 -195.538011 
L 463.64199 -195.538011 
L 459.468643 -195.538011 
L 455.295295 -195.538011 
L 451.121948 -195.538011 
L 446.9486 -195.538011 
L 442.775252 -195.538011 
L 438.601905 -195.538011 
L 434.428557 -195.538011 
L 430.25521 -195.538011 
L 426.081862 -195.538011 
L 421.908514 -195.538011 
L 417.735167 -195.538011 
L 413.561819 -195.538011 
L 409.388471 -195.538011 
L 405.215124 -195.538011 
L 401.041776 -195.538011 
L 396.868429 -195.538011 
L 392.695081 -195.538011 
L 388.521733 -195.538011 
L 384.348386 -195.538011 
L 380.175038 -195.538011 
L 376.001691 -195.538011 
L 371.828343 -195.538011 
L 367.654995 -195.538011 
L 363.481648 -195.538011 
L 359.3083 -195.538011 
L 355.134953 -195.538011 
L 350.961605 -195.538011 
L 346.788257 -195.538011 
L 342.61491 -195.538011 
L 338.441562 -195.538011 
L 334.268215 -195.538011 
L 330.094867 -195.538011 
L 325.921519 -195.538011 
L 321.748172 -195.538011 
L 317.574824 -195.538011 
L 313.401477 -195.538011 
L 309.228129 -195.538011 
L 305.054781 -195.538011 
L 300.881434 -195.538011 
L 296.708086 -195.538011 
L 292.534739 -195.538011 
L 288.361391 -195.538011 
L 284.188043 -195.538011 
L 280.014696 -195.538011 
L 275.841348 -195.538011 
L 271.668001 -195.538011 
L 267.494653 -195.538011 
L 263.321305 -195.538011 
L 259.147958 -195.538011 
L 254.97461 -195.538011 
L 250.801263 -195.538011 
L 246.627915 -195.538011 
L 242.454567 -195.538011 
L 238.28122 -195.538011 
L 234.107872 -195.538011 
L 229.934525 -195.538011 
L 225.761177 -195.538011 
L 221.587829 -195.538011 
L 217.414482 -195.538011 
L 213.241134 -195.538011 
L 209.067786 -195.538011 
L 204.894439 -195.538011 
L 200.721091 -195.538011 
L 196.547744 -195.538011 
L 192.374396 -195.538011 
L 188.201048 -195.538011 
L 184.027701 -195.538011 
L 179.854353 -195.538011 
L 175.681006 -195.538011 
L 171.507658 -195.538011 
L 167.33431 -195.538011 
L 163.160963 -195.538011 
L 158.987615 -195.538011 
L 154.814268 -195.538011 
L 150.64092 -195.538011 
L 146.467572 -195.538011 
L 142.294225 -195.538011 
L 138.120877 -195.538011 
L 133.94753 -195.538011 
L 129.774182 -195.538011 
L 125.600834 -195.538011 
L 121.427487 -195.538011 
L 117.254139 -195.538011 
L 113.080792 -195.538011 
L 108.907444 -195.538011 
L 104.734096 -195.538011 
L 100.560749 -195.538011 
L 96.387401 -195.538011 
L 92.214054 -195.538011 
L 88.040706 -195.538011 
L 83.867358 -195.538011 
L 79.694011 -195.538011 
L 75.520663 -195.538011 
L 71.347316 -195.538011 
L 67.173968 -195.538011 
L 63.00062 -195.538011 
L 58.827273 -195.538011 
z
" id="m2b0a22d838" style="stroke:#36a2eb;stroke-opacity:0.5;"/>
    </defs>
    <g clip-path="url(#p9f17624769)">
     <use style="fill:#36a2eb;fill-opacity:0.5;stroke:#36a2eb;stroke-opacity:0.5;" x="0" xlink:href="#m2b0a22d838" y="581.789375"/>
    </g>
   </g>
   <g id="line2d_1">
    <path clip-path="url(#p9f17624769)" d="M 100.445439 386.139848 
L 104.636624 386.097797 
L 108.827809 386.041266 
L 113.018994 385.965796 
L 117.210178 385.865742 
L 121.401363 385.734021 
L 125.592548 385.561825 
L 129.783732 385.338296 
L 133.974917 385.050174 
L 138.166102 384.681419 
L 142.357287 384.212815 
L 146.548471 383.621568 
L 150.739656 382.880921 
L 154.930841 381.959796 
L 159.122026 380.822499 
L 163.31321 379.428508 
L 167.504395 377.732386 
L 171.69558 375.68385 
L 175.886764 373.228028 
L 180.077949 370.305952 
L 184.269134 366.855313 
L 188.460319 362.811505 
L 192.651503 358.10899 
L 196.842688 352.68297 
L 201.033873 346.471393 
L 205.225058 339.417235 
L 209.416242 331.47105 
L 213.607427 322.593705 
L 217.798612 312.759224 
L 221.989796 301.957647 
L 226.180981 290.197776 
L 230.372166 277.509678 
L 234.563351 263.946814 
L 238.754535 249.587642 
L 242.94572 234.536562 
L 247.136905 218.924085 
L 251.328089 202.906132 
L 255.519274 186.662377 
L 259.710459 170.393633 
L 263.901644 154.31827 
L 268.092828 138.66774 
L 272.284013 123.681311 
L 276.475198 109.600171 
L 280.666383 96.661082 
L 284.857567 85.08983 
L 289.048752 75.094706 
L 293.239937 66.860289 
L 297.431121 60.541783 
L 301.622306 56.260153 
L 305.813491 54.098277 
L 310.004676 54.098277 
L 314.19586 56.260153 
L 318.387045 60.541783 
L 322.57823 66.860289 
L 326.769415 75.094706 
L 330.960599 85.08983 
L 335.151784 96.661082 
L 339.342969 109.600171 
L 343.534153 123.681311 
L 347.725338 138.66774 
L 351.916523 154.31827 
L 356.107708 170.393633 
L 360.298892 186.662377 
L 364.490077 202.906132 
L 368.681262 218.924085 
L 372.872447 234.536562 
L 377.063631 249.587642 
L 381.254816 263.946814 
L 385.446001 277.509678 
L 389.637185 290.197776 
L 393.82837 301.957647 
L 398.019555 312.759224 
L 402.21074 322.593705 
L 406.401924 331.47105 
L 410.593109 339.417235 
L 414.784294 346.471393 
L 418.975479 352.68297 
L 423.166663 358.10899 
L 427.357848 362.811505 
L 431.549033 366.855313 
L 435.740217 370.305952 
L 439.931402 373.228028 
L 444.122587 375.68385 
L 448.313772 377.732386 
L 452.504956 379.428508 
L 456.696141 380.822499 
L 460.887326 381.959796 
L 465.078511 382.880921 
L 469.269695 383.621568 
L 473.46088 384.212815 
L 477.652065 384.681419 
L 481.843249 385.050174 
L 486.034434 385.338296 
L 490.225619 385.561825 
L 494.416804 385.734021 
L 498.607988 385.865742 
L 502.799173 385.965796 
L 506.990358 386.041266 
L 511.181543 386.097797 
L 515.372727 386.139848 
" style="fill:none;stroke:#ff6384;stroke-linecap:square;"/>
   </g>
   <g id="line2d_2">
    <path clip-path="url(#p9f17624769)" d="M 58.827273 386.139371 
L 63.00062 386.097141 
L 67.173968 386.040368 
L 71.347316 385.964575 
L 75.520663 385.864094 
L 79.694011 385.73181 
L 83.867358 385.558878 
L 88.040706 385.334393 
L 92.214054 385.04504 
L 96.387401 384.674709 
L 100.560749 384.204102 
L 104.734096 383.610328 
L 108.907444 382.866516 
L 113.080792 381.941454 
L 117.254139 380.799296 
L 121.427487 379.399346 
L 125.600834 377.695976 
L 129.774182 375.638684 
L 133.94753 373.172366 
L 138.120877 370.2378 
L 142.294225 366.772413 
L 146.467572 362.711322 
L 150.64092 357.988708 
L 154.814268 352.539497 
L 158.987615 346.301371 
L 163.160963 339.217063 
L 167.33431 331.236916 
L 171.507658 322.321628 
L 175.681006 312.445114 
L 179.854353 301.597371 
L 184.027701 289.787238 
L 188.201048 277.04491 
L 192.374396 263.424078 
L 196.547744 249.003534 
L 200.721091 233.888124 
L 204.894439 218.208919 
L 209.067786 202.122504 
L 213.241134 185.809323 
L 217.414482 169.471045 
L 221.587829 153.326975 
L 225.761177 137.609553 
L 229.934525 122.559072 
L 234.107872 108.417748 
L 238.28122 95.423357 
L 242.454567 83.802649 
L 246.627915 73.764805 
L 250.801263 65.495194 
L 254.97461 59.149682 
L 259.147958 54.849752 
L 263.321305 52.678636 
L 267.494653 52.678636 
L 271.668001 54.849752 
L 275.841348 59.149682 
L 280.014696 65.495194 
L 284.188043 73.764805 
L 288.361391 83.802649 
L 292.534739 95.423357 
L 296.708086 108.417748 
L 300.881434 122.559072 
L 305.054781 137.609553 
L 309.228129 153.326975 
L 313.401477 169.471045 
L 317.574824 185.809323 
L 321.748172 202.122504 
L 325.921519 218.208919 
L 330.094867 233.888124 
L 334.268215 249.003534 
L 338.441562 263.424078 
L 342.61491 277.04491 
L 346.788257 289.787238 
L 350.961605 301.597371 
L 355.134953 312.445114 
L 359.3083 322.321628 
L 363.481648 331.236916 
L 367.654995 339.217063 
L 371.828343 346.301371 
L 376.001691 352.539497 
L 380.175038 357.988708 
L 384.348386 362.711322 
L 388.521733 366.772413 
L 392.695081 370.2378 
L 396.868429 373.172366 
L 401.041776 375.638684 
L 405.215124 377.695976 
L 409.388471 379.399346 
L 413.561819 380.799296 
L 417.735167 381.941454 
L 421.908514 382.866516 
L 426.081862 383.610328 
L 430.25521 384.204102 
L 434.428557 384.674709 
L 438.601905 385.04504 
L 442.775252 385.334393 
L 446.9486 385.558878 
L 451.121948 385.73181 
L 455.295295 385.864094 
L 459.468643 385.964575 
L 463.64199 386.040368 
L 467.815338 386.097141 
L 471.988686 386.139371 
" style="fill:none;stroke:#36a2eb;stroke-linecap:square;"/>
   </g>
   <g id="patch_3">
    <path d="M 36 402.93 
L 538.2 402.93 
" style="fill:none;stroke:#000000;stroke-linecap:square;stroke-linejoin:miter;stroke-width:0.8;"/>
   </g>
   <g id="legend_1">
    <g id="patch_4">
     <path d="M 410.290313 88.688125 
L 528.4 88.688125 
Q 531.2 88.688125 531.2 85.888125 
L 531.2 45.8 
Q 531.2 43 528.4 43 
L 410.290313 43 
Q 407.490313 43 407.490313 45.8 
L 407.490313 85.888125 
Q 407.490313 88.688125 410.290313 88.688125 
z
" style="fill:#ffffff;opacity:0.8;stroke:#cccccc;stroke-linejoin:miter;"/>
    </g>
    <g id="patch_5">
     <path d="M 413.090313 59.237813 
L 441.090313 59.237813 
L 441.090313 49.437813 
L 413.090313 49.437813 
z
" style="fill:#ff6384;opacity:0.5;stroke:#ff6384;stroke-linejoin:miter;"/>
    </g>
    <g id="text_1">
     <!-- base -->
     <defs>
      <path d="M 48.6875 27.296875 
Q 48.6875 37.203125 44.609375 42.84375 
Q 40.53125 48.484375 33.40625 48.484375 
Q 26.265625 48.484375 22.1875 42.84375 
Q 18.109375 37.203125 18.109375 27.296875 
Q 18.109375 17.390625 22.1875 11.75 
Q 26.265625 6.109375 33.40625 6.109375 
Q 40.53125 6.109375 44.609375 11.75 
Q 48.6875 17.390625 48.6875 27.296875 
z
M 18.109375 46.390625 
Q 20.953125 51.265625 25.265625 53.625 
Q 29.59375 56 35.59375 56 
Q 45.5625 56 51.78125 48.09375 
Q 58.015625 40.1875 58.015625 27.296875 
Q 58.015625 14.40625 51.78125 6.484375 
Q 45.5625 -1.421875 35.59375 -1.421875 
Q 29.59375 -1.421875 25.265625 0.953125 
Q 20.953125 3.328125 18.109375 8.203125 
L 18.109375 0 
L 9.078125 0 
L 9.078125 75.984375 
L 18.109375 75.984375 
z
" id="DejaVuSans-98"/>
      <path d="M 34.28125 27.484375 
Q 23.390625 27.484375 19.1875 25 
Q 14.984375 22.515625 14.984375 16.5 
Q 14.984375 11.71875 18.140625 8.90625 
Q 21.296875 6.109375 26.703125 6.109375 
Q 34.1875 6.109375 38.703125 11.40625 
Q 43.21875 16.703125 43.21875 25.484375 
L 43.21875 27.484375 
z
M 52.203125 31.203125 
L 52.203125 0 
L 43.21875 0 
L 43.21875 8.296875 
Q 40.140625 3.328125 35.546875 0.953125 
Q 30.953125 -1.421875 24.3125 -1.421875 
Q 15.921875 -1.421875 10.953125 3.296875 
Q 6 8.015625 6 15.921875 
Q 6 25.140625 12.171875 29.828125 
Q 18.359375 34.515625 30.609375 34.515625 
L 43.21875 34.515625 
L 43.21875 35.40625 
Q 43.21875 41.609375 39.140625 45 
Q 35.0625 48.390625 27.6875 48.390625 
Q 23 48.390625 18.546875 47.265625 
Q 14.109375 46.140625 10.015625 43.890625 
L 10.015625 52.203125 
Q 14.9375 54.109375 19.578125 55.046875 
Q 24.21875 56 28.609375 56 
Q 40.484375 56 46.34375 49.84375 
Q 52.203125 43.703125 52.203125 31.203125 
z
" id="DejaVuSans-97"/>
      <path d="M 44.28125 53.078125 
L 44.28125 44.578125 
Q 40.484375 46.53125 36.375 47.5 
Q 32.28125 48.484375 27.875 48.484375 
Q 21.1875 48.484375 17.84375 46.4375 
Q 14.5 44.390625 14.5 40.28125 
Q 14.5 37.15625 16.890625 35.375 
Q 19.28125 33.59375 26.515625 31.984375 
L 29.59375 31.296875 
Q 39.15625 29.25 43.1875 25.515625 
Q 47.21875 21.78125 47.21875 15.09375 
Q 47.21875 7.46875 41.1875 3.015625 
Q 35.15625 -1.421875 24.609375 -1.421875 
Q 20.21875 -1.421875 15.453125 -0.5625 
Q 10.6875 0.296875 5.421875 2 
L 5.421875 11.28125 
Q 10.40625 8.6875 15.234375 7.390625 
Q 20.0625 6.109375 24.8125 6.109375 
Q 31.15625 6.109375 34.5625 8.28125 
Q 37.984375 10.453125 37.984375 14.40625 
Q 37.984375 18.0625 35.515625 20.015625 
Q 33.0625 21.96875 24.703125 23.78125 
L 21.578125 24.515625 
Q 13.234375 26.265625 9.515625 29.90625 
Q 5.8125 33.546875 5.8125 39.890625 
Q 5.8125 47.609375 11.28125 51.796875 
Q 16.75 56 26.8125 56 
Q 31.78125 56 36.171875 55.265625 
Q 40.578125 54.546875 44.28125 53.078125 
z
" id="DejaVuSans-115"/>
      <path d="M 56.203125 29.59375 
L 56.203125 25.203125 
L 14.890625 25.203125 
Q 15.484375 15.921875 20.484375 11.0625 
Q 25.484375 6.203125 34.421875 6.203125 
Q 39.59375 6.203125 44.453125 7.46875 
Q 49.3125 8.734375 54.109375 11.28125 
L 54.109375 2.78125 
Q 49.265625 0.734375 44.1875 -0.34375 
Q 39.109375 -1.421875 33.890625 -1.421875 
Q 20.796875 -1.421875 13.15625 6.1875 
Q 5.515625 13.8125 5.515625 26.8125 
Q 5.515625 40.234375 12.765625 48.109375 
Q 20.015625 56 32.328125 56 
Q 43.359375 56 49.78125 48.890625 
Q 56.203125 41.796875 56.203125 29.59375 
z
M 47.21875 32.234375 
Q 47.125 39.59375 43.09375 43.984375 
Q 39.0625 48.390625 32.421875 48.390625 
Q 24.90625 48.390625 20.390625 44.140625 
Q 15.875 39.890625 15.1875 32.171875 
z
" id="DejaVuSans-101"/>
     </defs>
     <g transform="translate(452.290313 59.237813)scale(0.14 -0.14)">
      <use xlink:href="#DejaVuSans-98"/>
      <use x="63.476562" xlink:href="#DejaVuSans-97"/>
      <use x="124.755859" xlink:href="#DejaVuSans-115"/>
      <use x="176.855469" xlink:href="#DejaVuSans-101"/>
     </g>
    </g>
    <g id="patch_6">
     <path d="M 413.090313 79.787188 
L 441.090313 79.787188 
L 441.090313 69.987188 
L 413.090313 69.987188 
z
" style="fill:#36a2eb;opacity:0.5;stroke:#36a2eb;stroke-linejoin:miter;"/>
    </g>
    <g id="text_2">
     <!-- no_license -->
     <defs>
      <path d="M 54.890625 33.015625 
L 54.890625 0 
L 45.90625 0 
L 45.90625 32.71875 
Q 45.90625 40.484375 42.875 44.328125 
Q 39.84375 48.1875 33.796875 48.1875 
Q 26.515625 48.1875 22.3125 43.546875 
Q 18.109375 38.921875 18.109375 30.90625 
L 18.109375 0 
L 9.078125 0 
L 9.078125 54.6875 
L 18.109375 54.6875 
L 18.109375 46.1875 
Q 21.34375 51.125 25.703125 53.5625 
Q 30.078125 56 35.796875 56 
Q 45.21875 56 50.046875 50.171875 
Q 54.890625 44.34375 54.890625 33.015625 
z
" id="DejaVuSans-110"/>
      <path d="M 30.609375 48.390625 
Q 23.390625 48.390625 19.1875 42.75 
Q 14.984375 37.109375 14.984375 27.296875 
Q 14.984375 17.484375 19.15625 11.84375 
Q 23.34375 6.203125 30.609375 6.203125 
Q 37.796875 6.203125 41.984375 11.859375 
Q 46.1875 17.53125 46.1875 27.296875 
Q 46.1875 37.015625 41.984375 42.703125 
Q 37.796875 48.390625 30.609375 48.390625 
z
M 30.609375 56 
Q 42.328125 56 49.015625 48.375 
Q 55.71875 40.765625 55.71875 27.296875 
Q 55.71875 13.875 49.015625 6.21875 
Q 42.328125 -1.421875 30.609375 -1.421875 
Q 18.84375 -1.421875 12.171875 6.21875 
Q 5.515625 13.875 5.515625 27.296875 
Q 5.515625 40.765625 12.171875 48.375 
Q 18.84375 56 30.609375 56 
z
" id="DejaVuSans-111"/>
      <path d="M 50.984375 -16.609375 
L 50.984375 -23.578125 
L -0.984375 -23.578125 
L -0.984375 -16.609375 
z
" id="DejaVuSans-95"/>
      <path d="M 9.421875 75.984375 
L 18.40625 75.984375 
L 18.40625 0 
L 9.421875 0 
z
" id="DejaVuSans-108"/>
      <path d="M 9.421875 54.6875 
L 18.40625 54.6875 
L 18.40625 0 
L 9.421875 0 
z
M 9.421875 75.984375 
L 18.40625 75.984375 
L 18.40625 64.59375 
L 9.421875 64.59375 
z
" id="DejaVuSans-105"/>
      <path d="M 48.78125 52.59375 
L 48.78125 44.1875 
Q 44.96875 46.296875 41.140625 47.34375 
Q 37.3125 48.390625 33.40625 48.390625 
Q 24.65625 48.390625 19.8125 42.84375 
Q 14.984375 37.3125 14.984375 27.296875 
Q 14.984375 17.28125 19.8125 11.734375 
Q 24.65625 6.203125 33.40625 6.203125 
Q 37.3125 6.203125 41.140625 7.25 
Q 44.96875 8.296875 48.78125 10.40625 
L 48.78125 2.09375 
Q 45.015625 0.34375 40.984375 -0.53125 
Q 36.96875 -1.421875 32.421875 -1.421875 
Q 20.0625 -1.421875 12.78125 6.34375 
Q 5.515625 14.109375 5.515625 27.296875 
Q 5.515625 40.671875 12.859375 48.328125 
Q 20.21875 56 33.015625 56 
Q 37.15625 56 41.109375 55.140625 
Q 45.0625 54.296875 48.78125 52.59375 
z
" id="DejaVuSans-99"/>
     </defs>
     <g transform="translate(452.290313 79.787188)scale(0.14 -0.14)">
      <use xlink:href="#DejaVuSans-110"/>
      <use x="63.378906" xlink:href="#DejaVuSans-111"/>
      <use x="124.560547" xlink:href="#DejaVuSans-95"/>
      <use x="174.560547" xlink:href="#DejaVuSans-108"/>
      <use x="202.34375" xlink:href="#DejaVuSans-105"/>
      <use x="230.126953" xlink:href="#DejaVuSans-99"/>
      <use x="285.107422" xlink:href="#DejaVuSans-101"/>
      <use x="346.630859" xlink:href="#DejaVuSans-110"/>
      <use x="410.009766" xlink:href="#DejaVuSans-115"/>
      <use x="462.109375" xlink:href="#DejaVuSans-101"/>
     </g>
    </g>
   </g>
  </g>
  <g id="axes_2">
   <g id="patch_7">
    <path d="M 36 525.24 
L 538.2 525.24 
L 538.2 402.93 
L 36 402.93 
z
" style="fill:none;"/>
   </g>
   <g id="patch_8">
    <path clip-path="url(#pc5175308ca)" d="M 206.251898 519.680455 
L 409.566269 519.680455 
L 409.566269 482.616818 
L 206.251898 482.616818 
z
" style="fill:#ff6384;opacity:0.5;"/>
   </g>
   <g id="patch_9">
    <path clip-path="url(#pc5175308ca)" d="M 164.183433 445.553182 
L 366.632525 445.553182 
L 366.632525 408.489545 
L 164.183433 408.489545 
z
" style="fill:#36a2eb;opacity:0.5;"/>
   </g>
   <g id="matplotlib.axis_1">
    <g id="xtick_1">
     <g id="line2d_3">
      <defs>
       <path d="M 0 0 
L 0 3.5 
" id="m0a5d98f2f4" style="stroke:#000000;stroke-width:0.8;"/>
      </defs>
      <g>
       <use style="stroke:#000000;stroke-width:0.8;" x="114.883235" xlink:href="#m0a5d98f2f4" y="525.24"/>
      </g>
     </g>
     <g id="text_3">
      <!-- 6.5 -->
      <defs>
       <path d="M 33.015625 40.375 
Q 26.375 40.375 22.484375 35.828125 
Q 18.609375 31.296875 18.609375 23.390625 
Q 18.609375 15.53125 22.484375 10.953125 
Q 26.375 6.390625 33.015625 6.390625 
Q 39.65625 6.390625 43.53125 10.953125 
Q 47.40625 15.53125 47.40625 23.390625 
Q 47.40625 31.296875 43.53125 35.828125 
Q 39.65625 40.375 33.015625 40.375 
z
M 52.59375 71.296875 
L 52.59375 62.3125 
Q 48.875 64.0625 45.09375 64.984375 
Q 41.3125 65.921875 37.59375 65.921875 
Q 27.828125 65.921875 22.671875 59.328125 
Q 17.53125 52.734375 16.796875 39.40625 
Q 19.671875 43.65625 24.015625 45.921875 
Q 28.375 48.1875 33.59375 48.1875 
Q 44.578125 48.1875 50.953125 41.515625 
Q 57.328125 34.859375 57.328125 23.390625 
Q 57.328125 12.15625 50.6875 5.359375 
Q 44.046875 -1.421875 33.015625 -1.421875 
Q 20.359375 -1.421875 13.671875 8.265625 
Q 6.984375 17.96875 6.984375 36.375 
Q 6.984375 53.65625 15.1875 63.9375 
Q 23.390625 74.21875 37.203125 74.21875 
Q 40.921875 74.21875 44.703125 73.484375 
Q 48.484375 72.75 52.59375 71.296875 
z
" id="DejaVuSans-54"/>
       <path d="M 10.6875 12.40625 
L 21 12.40625 
L 21 0 
L 10.6875 0 
z
" id="DejaVuSans-46"/>
       <path d="M 10.796875 72.90625 
L 49.515625 72.90625 
L 49.515625 64.59375 
L 19.828125 64.59375 
L 19.828125 46.734375 
Q 21.96875 47.46875 24.109375 47.828125 
Q 26.265625 48.1875 28.421875 48.1875 
Q 40.625 48.1875 47.75 41.5 
Q 54.890625 34.8125 54.890625 23.390625 
Q 54.890625 11.625 47.5625 5.09375 
Q 40.234375 -1.421875 26.90625 -1.421875 
Q 22.3125 -1.421875 17.546875 -0.640625 
Q 12.796875 0.140625 7.71875 1.703125 
L 7.71875 11.625 
Q 12.109375 9.234375 16.796875 8.0625 
Q 21.484375 6.890625 26.703125 6.890625 
Q 35.15625 6.890625 40.078125 11.328125 
Q 45.015625 15.765625 45.015625 23.390625 
Q 45.015625 31 40.078125 35.4375 
Q 35.15625 39.890625 26.703125 39.890625 
Q 22.75 39.890625 18.8125 39.015625 
Q 14.890625 38.140625 10.796875 36.28125 
z
" id="DejaVuSans-53"/>
      </defs>
      <g transform="translate(103.751048 542.877813)scale(0.14 -0.14)">
       <use xlink:href="#DejaVuSans-54"/>
       <use x="63.623047" xlink:href="#DejaVuSans-46"/>
       <use x="95.410156" xlink:href="#DejaVuSans-53"/>
      </g>
     </g>
    </g>
    <g id="xtick_2">
     <g id="line2d_4">
      <g>
       <use style="stroke:#000000;stroke-width:0.8;" x="203.427202" xlink:href="#m0a5d98f2f4" y="525.24"/>
      </g>
     </g>
     <g id="text_4">
      <!-- 7.0 -->
      <defs>
       <path d="M 8.203125 72.90625 
L 55.078125 72.90625 
L 55.078125 68.703125 
L 28.609375 0 
L 18.3125 0 
L 43.21875 64.59375 
L 8.203125 64.59375 
z
" id="DejaVuSans-55"/>
       <path d="M 31.78125 66.40625 
Q 24.171875 66.40625 20.328125 58.90625 
Q 16.5 51.421875 16.5 36.375 
Q 16.5 21.390625 20.328125 13.890625 
Q 24.171875 6.390625 31.78125 6.390625 
Q 39.453125 6.390625 43.28125 13.890625 
Q 47.125 21.390625 47.125 36.375 
Q 47.125 51.421875 43.28125 58.90625 
Q 39.453125 66.40625 31.78125 66.40625 
z
M 31.78125 74.21875 
Q 44.046875 74.21875 50.515625 64.515625 
Q 56.984375 54.828125 56.984375 36.375 
Q 56.984375 17.96875 50.515625 8.265625 
Q 44.046875 -1.421875 31.78125 -1.421875 
Q 19.53125 -1.421875 13.0625 8.265625 
Q 6.59375 17.96875 6.59375 36.375 
Q 6.59375 54.828125 13.0625 64.515625 
Q 19.53125 74.21875 31.78125 74.21875 
z
" id="DejaVuSans-48"/>
      </defs>
      <g transform="translate(192.295015 542.877813)scale(0.14 -0.14)">
       <use xlink:href="#DejaVuSans-55"/>
       <use x="63.623047" xlink:href="#DejaVuSans-46"/>
       <use x="95.410156" xlink:href="#DejaVuSans-48"/>
      </g>
     </g>
    </g>
    <g id="xtick_3">
     <g id="line2d_5">
      <g>
       <use style="stroke:#000000;stroke-width:0.8;" x="291.971169" xlink:href="#m0a5d98f2f4" y="525.24"/>
      </g>
     </g>
     <g id="text_5">
      <!-- 7.5 -->
      <g transform="translate(280.838982 542.877813)scale(0.14 -0.14)">
       <use xlink:href="#DejaVuSans-55"/>
       <use x="63.623047" xlink:href="#DejaVuSans-46"/>
       <use x="95.410156" xlink:href="#DejaVuSans-53"/>
      </g>
     </g>
    </g>
    <g id="xtick_4">
     <g id="line2d_6">
      <g>
       <use style="stroke:#000000;stroke-width:0.8;" x="380.515136" xlink:href="#m0a5d98f2f4" y="525.24"/>
      </g>
     </g>
     <g id="text_6">
      <!-- 8.0 -->
      <defs>
       <path d="M 31.78125 34.625 
Q 24.75 34.625 20.71875 30.859375 
Q 16.703125 27.09375 16.703125 20.515625 
Q 16.703125 13.921875 20.71875 10.15625 
Q 24.75 6.390625 31.78125 6.390625 
Q 38.8125 6.390625 42.859375 10.171875 
Q 46.921875 13.96875 46.921875 20.515625 
Q 46.921875 27.09375 42.890625 30.859375 
Q 38.875 34.625 31.78125 34.625 
z
M 21.921875 38.8125 
Q 15.578125 40.375 12.03125 44.71875 
Q 8.5 49.078125 8.5 55.328125 
Q 8.5 64.0625 14.71875 69.140625 
Q 20.953125 74.21875 31.78125 74.21875 
Q 42.671875 74.21875 48.875 69.140625 
Q 55.078125 64.0625 55.078125 55.328125 
Q 55.078125 49.078125 51.53125 44.71875 
Q 48 40.375 41.703125 38.8125 
Q 48.828125 37.15625 52.796875 32.3125 
Q 56.78125 27.484375 56.78125 20.515625 
Q 56.78125 9.90625 50.3125 4.234375 
Q 43.84375 -1.421875 31.78125 -1.421875 
Q 19.734375 -1.421875 13.25 4.234375 
Q 6.78125 9.90625 6.78125 20.515625 
Q 6.78125 27.484375 10.78125 32.3125 
Q 14.796875 37.15625 21.921875 38.8125 
z
M 18.3125 54.390625 
Q 18.3125 48.734375 21.84375 45.5625 
Q 25.390625 42.390625 31.78125 42.390625 
Q 38.140625 42.390625 41.71875 45.5625 
Q 45.3125 48.734375 45.3125 54.390625 
Q 45.3125 60.0625 41.71875 63.234375 
Q 38.140625 66.40625 31.78125 66.40625 
Q 25.390625 66.40625 21.84375 63.234375 
Q 18.3125 60.0625 18.3125 54.390625 
z
" id="DejaVuSans-56"/>
      </defs>
      <g transform="translate(369.382949 542.877813)scale(0.14 -0.14)">
       <use xlink:href="#DejaVuSans-56"/>
       <use x="63.623047" xlink:href="#DejaVuSans-46"/>
       <use x="95.410156" xlink:href="#DejaVuSans-48"/>
      </g>
     </g>
    </g>
    <g id="xtick_5">
     <g id="line2d_7">
      <g>
       <use style="stroke:#000000;stroke-width:0.8;" x="469.059103" xlink:href="#m0a5d98f2f4" y="525.24"/>
      </g>
     </g>
     <g id="text_7">
      <!-- 8.5 -->
      <g transform="translate(457.926916 542.877813)scale(0.14 -0.14)">
       <use xlink:href="#DejaVuSans-56"/>
       <use x="63.623047" xlink:href="#DejaVuSans-46"/>
       <use x="95.410156" xlink:href="#DejaVuSans-53"/>
      </g>
     </g>
    </g>
   </g>
   <g id="line2d_8">
    <path clip-path="url(#pc5175308ca)" d="M 307.909083 525.24 
L 307.909083 402.93 
" style="fill:none;stroke:#ff6384;stroke-dasharray:5.55,2.4;stroke-dashoffset:0;stroke-opacity:0.8;stroke-width:1.5;"/>
   </g>
   <g id="line2d_9">
    <path clip-path="url(#pc5175308ca)" d="M 265.407979 525.24 
L 265.407979 402.93 
" style="fill:none;stroke:#36a2eb;stroke-dasharray:5.55,2.4;stroke-dashoffset:0;stroke-opacity:0.8;stroke-width:1.5;"/>
   </g>
   <g id="patch_10">
    <path d="M 36 525.24 
L 538.2 525.24 
" style="fill:none;stroke:#000000;stroke-linecap:square;stroke-linejoin:miter;stroke-width:0.8;"/>
   </g>
  </g>
 </g>
 <defs>
  <clipPath id="p9f17624769">
   <rect height="366.93" width="502.2" x="36" y="36"/>
  </clipPath>
  <clipPath id="pc5175308ca">
   <rect height="122.31" width="502.2" x="36" y="402.93"/>
  </clipPath>
 </defs>
</svg>
