<?xml version="1.0" encoding="utf-8" standalone="no"?>
<!DOCTYPE svg PUBLIC "-//W3C//DTD SVG 1.1//EN"
  "http://www.w3.org/Graphics/SVG/1.1/DTD/svg11.dtd">
<!-- Created with matplotlib (https://matplotlib.org/) -->
<svg height="581.789375pt" version="1.1" viewBox="0 0 574.2 581.789375" width="574.2pt" xmlns="http://www.w3.org/2000/svg" xmlns:xlink="http://www.w3.org/1999/xlink">
 <defs>
  <style type="text/css">
*{stroke-linecap:butt;stroke-linejoin:round;}
  </style>
 </defs>
 <g id="figure_1">
  <g id="patch_1">
   <path d="M 0 581.789375 
L 574.2 581.789375 
L 574.2 0 
L 0 0 
z
" style="fill:none;"/>
  </g>
  <g id="axes_1">
   <g id="patch_2">
    <path d="M 36 402.93 
L 538.2 402.93 
L 538.2 36 
L 36 36 
z
" style="fill:none;"/>
   </g>
   <g id="PolyCollection_1">
    <defs>
     <path d="M 58.827273 -195.538011 
L 58.827273 -195.644625 
L 63.327895 -195.684828 
L 67.828517 -195.738874 
L 72.329139 -195.811027 
L 76.829761 -195.906683 
L 81.330383 -196.032613 
L 85.831005 -196.19724 
L 90.331627 -196.410944 
L 94.832249 -196.686401 
L 99.332871 -197.038946 
L 103.833493 -197.486952 
L 108.334115 -198.05221 
L 112.834737 -198.7603 
L 117.335359 -199.640936 
L 121.835981 -200.728241 
L 126.336603 -202.060957 
L 130.837225 -203.682523 
L 135.337847 -205.641012 
L 139.838469 -207.988885 
L 144.339091 -210.782516 
L 148.839713 -214.081477 
L 153.340335 -217.947532 
L 157.840957 -222.443341 
L 162.341579 -227.63085 
L 166.842201 -233.569388 
L 171.342823 -240.313469 
L 175.843445 -247.910366 
L 180.344067 -256.397493 
L 184.844689 -265.799682 
L 189.345311 -276.126458 
L 193.845933 -287.369405 
L 198.346555 -299.499776 
L 202.847177 -312.466462 
L 207.347799 -326.194453 
L 211.848422 -340.583938 
L 216.349044 -355.510142 
L 220.849666 -370.824 
L 225.350288 -386.353733 
L 229.85091 -401.907358 
L 234.351532 -417.276102 
L 238.852154 -432.238687 
L 243.352776 -446.566362 
L 247.853398 -460.028543 
L 252.35402 -472.398873 
L 256.854642 -483.461491 
L 261.355264 -493.017263 
L 265.855886 -500.889722 
L 270.356508 -506.930489 
L 274.85713 -511.023912 
L 279.357752 -513.090759 
L 283.858374 -513.090759 
L 288.358996 -511.023912 
L 292.859618 -506.930489 
L 297.36024 -500.889722 
L 301.860862 -493.017263 
L 306.361484 -483.461491 
L 310.862106 -472.398873 
L 315.362728 -460.028543 
L 319.86335 -446.566362 
L 324.363972 -432.238687 
L 328.864594 -417.276102 
L 333.365216 -401.907358 
L 337.865838 -386.353733 
L 342.36646 -370.824 
L 346.867082 -355.510142 
L 351.367704 -340.583938 
L 355.868326 -326.194453 
L 360.368948 -312.466462 
L 364.86957 -299.499776 
L 369.370192 -287.369405 
L 373.870814 -276.126458 
L 378.371436 -265.799682 
L 382.872058 -256.397493 
L 387.37268 -247.910366 
L 391.873302 -240.313469 
L 396.373924 -233.569388 
L 400.874547 -227.63085 
L 405.375169 -222.443341 
L 409.875791 -217.947532 
L 414.376413 -214.081477 
L 418.877035 -210.782516 
L 423.377657 -207.988885 
L 427.878279 -205.641012 
L 432.378901 -203.682523 
L 436.879523 -202.060957 
L 441.380145 -200.728241 
L 445.880767 -199.640936 
L 450.381389 -198.7603 
L 454.882011 -198.05221 
L 459.382633 -197.486952 
L 463.883255 -197.038946 
L 468.383877 -196.686401 
L 472.884499 -196.410944 
L 477.385121 -196.19724 
L 481.885743 -196.032613 
L 486.386365 -195.906683 
L 490.886987 -195.811027 
L 495.387609 -195.738874 
L 499.888231 -195.684828 
L 504.388853 -195.644625 
L 504.388853 -195.538011 
L 504.388853 -195.538011 
L 499.888231 -195.538011 
L 495.387609 -195.538011 
L 490.886987 -195.538011 
L 486.386365 -195.538011 
L 481.885743 -195.538011 
L 477.385121 -195.538011 
L 472.884499 -195.538011 
L 468.383877 -195.538011 
L 463.883255 -195.538011 
L 459.382633 -195.538011 
L 454.882011 -195.538011 
L 450.381389 -195.538011 
L 445.880767 -195.538011 
L 441.380145 -195.538011 
L 436.879523 -195.538011 
L 432.378901 -195.538011 
L 427.878279 -195.538011 
L 423.377657 -195.538011 
L 418.877035 -195.538011 
L 414.376413 -195.538011 
L 409.875791 -195.538011 
L 405.375169 -195.538011 
L 400.874547 -195.538011 
L 396.373924 -195.538011 
L 391.873302 -195.538011 
L 387.37268 -195.538011 
L 382.872058 -195.538011 
L 378.371436 -195.538011 
L 373.870814 -195.538011 
L 369.370192 -195.538011 
L 364.86957 -195.538011 
L 360.368948 -195.538011 
L 355.868326 -195.538011 
L 351.367704 -195.538011 
L 346.867082 -195.538011 
L 342.36646 -195.538011 
L 337.865838 -195.538011 
L 333.365216 -195.538011 
L 328.864594 -195.538011 
L 324.363972 -195.538011 
L 319.86335 -195.538011 
L 315.362728 -195.538011 
L 310.862106 -195.538011 
L 306.361484 -195.538011 
L 301.860862 -195.538011 
L 297.36024 -195.538011 
L 292.859618 -195.538011 
L 288.358996 -195.538011 
L 283.858374 -195.538011 
L 279.357752 -195.538011 
L 274.85713 -195.538011 
L 270.356508 -195.538011 
L 265.855886 -195.538011 
L 261.355264 -195.538011 
L 256.854642 -195.538011 
L 252.35402 -195.538011 
L 247.853398 -195.538011 
L 243.352776 -195.538011 
L 238.852154 -195.538011 
L 234.351532 -195.538011 
L 229.85091 -195.538011 
L 225.350288 -195.538011 
L 220.849666 -195.538011 
L 216.349044 -195.538011 
L 211.848422 -195.538011 
L 207.347799 -195.538011 
L 202.847177 -195.538011 
L 198.346555 -195.538011 
L 193.845933 -195.538011 
L 189.345311 -195.538011 
L 184.844689 -195.538011 
L 180.344067 -195.538011 
L 175.843445 -195.538011 
L 171.342823 -195.538011 
L 166.842201 -195.538011 
L 162.341579 -195.538011 
L 157.840957 -195.538011 
L 153.340335 -195.538011 
L 148.839713 -195.538011 
L 144.339091 -195.538011 
L 139.838469 -195.538011 
L 135.337847 -195.538011 
L 130.837225 -195.538011 
L 126.336603 -195.538011 
L 121.835981 -195.538011 
L 117.335359 -195.538011 
L 112.834737 -195.538011 
L 108.334115 -195.538011 
L 103.833493 -195.538011 
L 99.332871 -195.538011 
L 94.832249 -195.538011 
L 90.331627 -195.538011 
L 85.831005 -195.538011 
L 81.330383 -195.538011 
L 76.829761 -195.538011 
L 72.329139 -195.538011 
L 67.828517 -195.538011 
L 63.327895 -195.538011 
L 58.827273 -195.538011 
z
" id="mf1663f7413" style="stroke:#ff6384;stroke-opacity:0.5;"/>
    </defs>
    <g clip-path="url(#pc150ffc106)">
     <use style="fill:#ff6384;fill-opacity:0.5;stroke:#ff6384;stroke-opacity:0.5;" x="0" xlink:href="#mf1663f7413" y="581.789375"/>
    </g>
   </g>
   <g id="PolyCollection_2">
    <defs>
     <path d="M 91.209441 -195.538011 
L 91.209441 -195.650004 
L 95.493919 -195.692234 
L 99.778397 -195.749007 
L 104.062874 -195.8248 
L 108.347352 -195.925281 
L 112.63183 -196.057565 
L 116.916307 -196.230497 
L 121.200785 -196.454982 
L 125.485263 -196.744335 
L 129.76974 -197.114666 
L 134.054218 -197.585273 
L 138.338695 -198.179047 
L 142.623173 -198.922859 
L 146.907651 -199.847921 
L 151.192128 -200.990079 
L 155.476606 -202.390029 
L 159.761084 -204.093399 
L 164.045561 -206.150691 
L 168.330039 -208.617009 
L 172.614517 -211.551575 
L 176.898994 -215.016962 
L 181.183472 -219.078053 
L 185.467949 -223.800667 
L 189.752427 -229.249878 
L 194.036905 -235.488004 
L 198.321382 -242.572312 
L 202.60586 -250.552459 
L 206.890338 -259.467747 
L 211.174815 -269.344261 
L 215.459293 -280.192004 
L 219.74377 -292.002137 
L 224.028248 -304.744465 
L 228.312726 -318.365297 
L 232.597203 -332.785841 
L 236.881681 -347.901251 
L 241.166159 -363.580456 
L 245.450636 -379.666871 
L 249.735114 -395.980052 
L 254.019592 -412.31833 
L 258.304069 -428.4624 
L 262.588547 -444.179822 
L 266.873024 -459.230303 
L 271.157502 -473.371627 
L 275.44198 -486.366018 
L 279.726457 -497.986726 
L 284.010935 -508.02457 
L 288.295413 -516.294181 
L 292.57989 -522.639693 
L 296.864368 -526.939623 
L 301.148846 -529.110739 
L 305.433323 -529.110739 
L 309.717801 -526.939623 
L 314.002278 -522.639693 
L 318.286756 -516.294181 
L 322.571234 -508.02457 
L 326.855711 -497.986726 
L 331.140189 -486.366018 
L 335.424667 -473.371627 
L 339.709144 -459.230303 
L 343.993622 -444.179822 
L 348.2781 -428.4624 
L 352.562577 -412.31833 
L 356.847055 -395.980052 
L 361.131532 -379.666871 
L 365.41601 -363.580456 
L 369.700488 -347.901251 
L 373.984965 -332.785841 
L 378.269443 -318.365297 
L 382.553921 -304.744465 
L 386.838398 -292.002137 
L 391.122876 -280.192004 
L 395.407354 -269.344261 
L 399.691831 -259.467747 
L 403.976309 -250.552459 
L 408.260786 -242.572312 
L 412.545264 -235.488004 
L 416.829742 -229.249878 
L 421.114219 -223.800667 
L 425.398697 -219.078053 
L 429.683175 -215.016962 
L 433.967652 -211.551575 
L 438.25213 -208.617009 
L 442.536607 -206.150691 
L 446.821085 -204.093399 
L 451.105563 -202.390029 
L 455.39004 -200.990079 
L 459.674518 -199.847921 
L 463.958996 -198.922859 
L 468.243473 -198.179047 
L 472.527951 -197.585273 
L 476.812429 -197.114666 
L 481.096906 -196.744335 
L 485.381384 -196.454982 
L 489.665861 -196.230497 
L 493.950339 -196.057565 
L 498.234817 -195.925281 
L 502.519294 -195.8248 
L 506.803772 -195.749007 
L 511.08825 -195.692234 
L 515.372727 -195.650004 
L 515.372727 -195.538011 
L 515.372727 -195.538011 
L 511.08825 -195.538011 
L 506.803772 -195.538011 
L 502.519294 -195.538011 
L 498.234817 -195.538011 
L 493.950339 -195.538011 
L 489.665861 -195.538011 
L 485.381384 -195.538011 
L 481.096906 -195.538011 
L 476.812429 -195.538011 
L 472.527951 -195.538011 
L 468.243473 -195.538011 
L 463.958996 -195.538011 
L 459.674518 -195.538011 
L 455.39004 -195.538011 
L 451.105563 -195.538011 
L 446.821085 -195.538011 
L 442.536607 -195.538011 
L 438.25213 -195.538011 
L 433.967652 -195.538011 
L 429.683175 -195.538011 
L 425.398697 -195.538011 
L 421.114219 -195.538011 
L 416.829742 -195.538011 
L 412.545264 -195.538011 
L 408.260786 -195.538011 
L 403.976309 -195.538011 
L 399.691831 -195.538011 
L 395.407354 -195.538011 
L 391.122876 -195.538011 
L 386.838398 -195.538011 
L 382.553921 -195.538011 
L 378.269443 -195.538011 
L 373.984965 -195.538011 
L 369.700488 -195.538011 
L 365.41601 -195.538011 
L 361.131532 -195.538011 
L 356.847055 -195.538011 
L 352.562577 -195.538011 
L 348.2781 -195.538011 
L 343.993622 -195.538011 
L 339.709144 -195.538011 
L 335.424667 -195.538011 
L 331.140189 -195.538011 
L 326.855711 -195.538011 
L 322.571234 -195.538011 
L 318.286756 -195.538011 
L 314.002278 -195.538011 
L 309.717801 -195.538011 
L 305.433323 -195.538011 
L 301.148846 -195.538011 
L 296.864368 -195.538011 
L 292.57989 -195.538011 
L 288.295413 -195.538011 
L 284.010935 -195.538011 
L 279.726457 -195.538011 
L 275.44198 -195.538011 
L 271.157502 -195.538011 
L 266.873024 -195.538011 
L 262.588547 -195.538011 
L 258.304069 -195.538011 
L 254.019592 -195.538011 
L 249.735114 -195.538011 
L 245.450636 -195.538011 
L 241.166159 -195.538011 
L 236.881681 -195.538011 
L 232.597203 -195.538011 
L 228.312726 -195.538011 
L 224.028248 -195.538011 
L 219.74377 -195.538011 
L 215.459293 -195.538011 
L 211.174815 -195.538011 
L 206.890338 -195.538011 
L 202.60586 -195.538011 
L 198.321382 -195.538011 
L 194.036905 -195.538011 
L 189.752427 -195.538011 
L 185.467949 -195.538011 
L 181.183472 -195.538011 
L 176.898994 -195.538011 
L 172.614517 -195.538011 
L 168.330039 -195.538011 
L 164.045561 -195.538011 
L 159.761084 -195.538011 
L 155.476606 -195.538011 
L 151.192128 -195.538011 
L 146.907651 -195.538011 
L 142.623173 -195.538011 
L 138.338695 -195.538011 
L 134.054218 -195.538011 
L 129.76974 -195.538011 
L 125.485263 -195.538011 
L 121.200785 -195.538011 
L 116.916307 -195.538011 
L 112.63183 -195.538011 
L 108.347352 -195.538011 
L 104.062874 -195.538011 
L 99.778397 -195.538011 
L 95.493919 -195.538011 
L 91.209441 -195.538011 
z
" id="mb3b14dabea" style="stroke:#36a2eb;stroke-opacity:0.5;"/>
    </defs>
    <g clip-path="url(#pc150ffc106)">
     <use style="fill:#36a2eb;fill-opacity:0.5;stroke:#36a2eb;stroke-opacity:0.5;" x="0" xlink:href="#mb3b14dabea" y="581.789375"/>
    </g>
   </g>
   <g id="line2d_1">
    <path clip-path="url(#pc150ffc106)" d="M 58.827273 386.14475 
L 63.327895 386.104547 
L 67.828517 386.050501 
L 72.329139 385.978348 
L 76.829761 385.882692 
L 81.330383 385.756762 
L 85.831005 385.592135 
L 90.331627 385.378431 
L 94.832249 385.102974 
L 99.332871 384.750429 
L 103.833493 384.302423 
L 108.334115 383.737165 
L 112.834737 383.029075 
L 117.335359 382.148439 
L 121.835981 381.061134 
L 126.336603 379.728418 
L 130.837225 378.106852 
L 135.337847 376.148363 
L 139.838469 373.80049 
L 144.339091 371.006859 
L 148.839713 367.707898 
L 153.340335 363.841843 
L 157.840957 359.346034 
L 162.341579 354.158525 
L 166.842201 348.219987 
L 171.342823 341.475906 
L 175.843445 333.879009 
L 180.344067 325.391882 
L 184.844689 315.989693 
L 189.345311 305.662917 
L 193.845933 294.41997 
L 198.346555 282.289599 
L 202.847177 269.322913 
L 207.347799 255.594922 
L 211.848422 241.205437 
L 216.349044 226.279233 
L 220.849666 210.965375 
L 225.350288 195.435642 
L 229.85091 179.882017 
L 234.351532 164.513273 
L 238.852154 149.550688 
L 243.352776 135.223013 
L 247.853398 121.760832 
L 252.35402 109.390502 
L 256.854642 98.327884 
L 261.355264 88.772112 
L 265.855886 80.899653 
L 270.356508 74.858886 
L 274.85713 70.765463 
L 279.357752 68.698616 
L 283.858374 68.698616 
L 288.358996 70.765463 
L 292.859618 74.858886 
L 297.36024 80.899653 
L 301.860862 88.772112 
L 306.361484 98.327884 
L 310.862106 109.390502 
L 315.362728 121.760832 
L 319.86335 135.223013 
L 324.363972 149.550688 
L 328.864594 164.513273 
L 333.365216 179.882017 
L 337.865838 195.435642 
L 342.36646 210.965375 
L 346.867082 226.279233 
L 351.367704 241.205437 
L 355.868326 255.594922 
L 360.368948 269.322913 
L 364.86957 282.289599 
L 369.370192 294.41997 
L 373.870814 305.662917 
L 378.371436 315.989693 
L 382.872058 325.391882 
L 387.37268 333.879009 
L 391.873302 341.475906 
L 396.373924 348.219987 
L 400.874547 354.158525 
L 405.375169 359.346034 
L 409.875791 363.841843 
L 414.376413 367.707898 
L 418.877035 371.006859 
L 423.377657 373.80049 
L 427.878279 376.148363 
L 432.378901 378.106852 
L 436.879523 379.728418 
L 441.380145 381.061134 
L 445.880767 382.148439 
L 450.381389 383.029075 
L 454.882011 383.737165 
L 459.382633 384.302423 
L 463.883255 384.750429 
L 468.383877 385.102974 
L 472.884499 385.378431 
L 477.385121 385.592135 
L 481.885743 385.756762 
L 486.386365 385.882692 
L 490.886987 385.978348 
L 495.387609 386.050501 
L 499.888231 386.104547 
L 504.388853 386.14475 
" style="fill:none;stroke:#ff6384;stroke-linecap:square;"/>
   </g>
   <g id="line2d_2">
    <path clip-path="url(#pc150ffc106)" d="M 91.209441 386.139371 
L 95.493919 386.097141 
L 99.778397 386.040368 
L 104.062874 385.964575 
L 108.347352 385.864094 
L 112.63183 385.73181 
L 116.916307 385.558878 
L 121.200785 385.334393 
L 125.485263 385.04504 
L 129.76974 384.674709 
L 134.054218 384.204102 
L 138.338695 383.610328 
L 142.623173 382.866516 
L 146.907651 381.941454 
L 151.192128 380.799296 
L 155.476606 379.399346 
L 159.761084 377.695976 
L 164.045561 375.638684 
L 168.330039 373.172366 
L 172.614517 370.2378 
L 176.898994 366.772413 
L 181.183472 362.711322 
L 185.467949 357.988708 
L 189.752427 352.539497 
L 194.036905 346.301371 
L 198.321382 339.217063 
L 202.60586 331.236916 
L 206.890338 322.321628 
L 211.174815 312.445114 
L 215.459293 301.597371 
L 219.74377 289.787238 
L 224.028248 277.04491 
L 228.312726 263.424078 
L 232.597203 249.003534 
L 236.881681 233.888124 
L 241.166159 218.208919 
L 245.450636 202.122504 
L 249.735114 185.809323 
L 254.019592 169.471045 
L 258.304069 153.326975 
L 262.588547 137.609553 
L 266.873024 122.559072 
L 271.157502 108.417748 
L 275.44198 95.423357 
L 279.726457 83.802649 
L 284.010935 73.764805 
L 288.295413 65.495194 
L 292.57989 59.149682 
L 296.864368 54.849752 
L 301.148846 52.678636 
L 305.433323 52.678636 
L 309.717801 54.849752 
L 314.002278 59.149682 
L 318.286756 65.495194 
L 322.571234 73.764805 
L 326.855711 83.802649 
L 331.140189 95.423357 
L 335.424667 108.417748 
L 339.709144 122.559072 
L 343.993622 137.609553 
L 348.2781 153.326975 
L 352.562577 169.471045 
L 356.847055 185.809323 
L 361.131532 202.122504 
L 365.41601 218.208919 
L 369.700488 233.888124 
L 373.984965 249.003534 
L 378.269443 263.424078 
L 382.553921 277.04491 
L 386.838398 289.787238 
L 391.122876 301.597371 
L 395.407354 312.445114 
L 399.691831 322.321628 
L 403.976309 331.236916 
L 408.260786 339.217063 
L 412.545264 346.301371 
L 416.829742 352.539497 
L 421.114219 357.988708 
L 425.398697 362.711322 
L 429.683175 366.772413 
L 433.967652 370.2378 
L 438.25213 373.172366 
L 442.536607 375.638684 
L 446.821085 377.695976 
L 451.105563 379.399346 
L 455.39004 380.799296 
L 459.674518 381.941454 
L 463.958996 382.866516 
L 468.243473 383.610328 
L 472.527951 384.204102 
L 476.812429 384.674709 
L 481.096906 385.04504 
L 485.381384 385.334393 
L 489.665861 385.558878 
L 493.950339 385.73181 
L 498.234817 385.864094 
L 502.519294 385.964575 
L 506.803772 386.040368 
L 511.08825 386.097141 
L 515.372727 386.139371 
" style="fill:none;stroke:#36a2eb;stroke-linecap:square;"/>
   </g>
   <g id="patch_3">
    <path d="M 36 402.93 
L 538.2 402.93 
" style="fill:none;stroke:#000000;stroke-linecap:square;stroke-linejoin:miter;stroke-width:0.8;"/>
   </g>
   <g id="legend_1">
    <g id="patch_4">
     <path d="M 414.919063 88.29875 
L 528.4 88.29875 
Q 531.2 88.29875 531.2 85.49875 
L 531.2 45.8 
Q 531.2 43 528.4 43 
L 414.919063 43 
Q 412.119063 43 412.119063 45.8 
L 412.119063 85.49875 
Q 412.119063 88.29875 414.919063 88.29875 
z
" style="fill:#ffffff;opacity:0.8;stroke:#cccccc;stroke-linejoin:miter;"/>
    </g>
    <g id="patch_5">
     <path d="M 417.719063 59.237813 
L 445.719063 59.237813 
L 445.719063 49.437813 
L 417.719063 49.437813 
z
" style="fill:#ff6384;opacity:0.5;stroke:#ff6384;stroke-linejoin:miter;"/>
    </g>
    <g id="text_1">
     <!-- sidemenu -->
     <defs>
      <path d="M 44.28125 53.078125 
L 44.28125 44.578125 
Q 40.484375 46.53125 36.375 47.5 
Q 32.28125 48.484375 27.875 48.484375 
Q 21.1875 48.484375 17.84375 46.4375 
Q 14.5 44.390625 14.5 40.28125 
Q 14.5 37.15625 16.890625 35.375 
Q 19.28125 33.59375 26.515625 31.984375 
L 29.59375 31.296875 
Q 39.15625 29.25 43.1875 25.515625 
Q 47.21875 21.78125 47.21875 15.09375 
Q 47.21875 7.46875 41.1875 3.015625 
Q 35.15625 -1.421875 24.609375 -1.421875 
Q 20.21875 -1.421875 15.453125 -0.5625 
Q 10.6875 0.296875 5.421875 2 
L 5.421875 11.28125 
Q 10.40625 8.6875 15.234375 7.390625 
Q 20.0625 6.109375 24.8125 6.109375 
Q 31.15625 6.109375 34.5625 8.28125 
Q 37.984375 10.453125 37.984375 14.40625 
Q 37.984375 18.0625 35.515625 20.015625 
Q 33.0625 21.96875 24.703125 23.78125 
L 21.578125 24.515625 
Q 13.234375 26.265625 9.515625 29.90625 
Q 5.8125 33.546875 5.8125 39.890625 
Q 5.8125 47.609375 11.28125 51.796875 
Q 16.75 56 26.8125 56 
Q 31.78125 56 36.171875 55.265625 
Q 40.578125 54.546875 44.28125 53.078125 
z
" id="DejaVuSans-115"/>
      <path d="M 9.421875 54.6875 
L 18.40625 54.6875 
L 18.40625 0 
L 9.421875 0 
z
M 9.421875 75.984375 
L 18.40625 75.984375 
L 18.40625 64.59375 
L 9.421875 64.59375 
z
" id="DejaVuSans-105"/>
      <path d="M 45.40625 46.390625 
L 45.40625 75.984375 
L 54.390625 75.984375 
L 54.390625 0 
L 45.40625 0 
L 45.40625 8.203125 
Q 42.578125 3.328125 38.25 0.953125 
Q 33.9375 -1.421875 27.875 -1.421875 
Q 17.96875 -1.421875 11.734375 6.484375 
Q 5.515625 14.40625 5.515625 27.296875 
Q 5.515625 40.1875 11.734375 48.09375 
Q 17.96875 56 27.875 56 
Q 33.9375 56 38.25 53.625 
Q 42.578125 51.265625 45.40625 46.390625 
z
M 14.796875 27.296875 
Q 14.796875 17.390625 18.875 11.75 
Q 22.953125 6.109375 30.078125 6.109375 
Q 37.203125 6.109375 41.296875 11.75 
Q 45.40625 17.390625 45.40625 27.296875 
Q 45.40625 37.203125 41.296875 42.84375 
Q 37.203125 48.484375 30.078125 48.484375 
Q 22.953125 48.484375 18.875 42.84375 
Q 14.796875 37.203125 14.796875 27.296875 
z
" id="DejaVuSans-100"/>
      <path d="M 56.203125 29.59375 
L 56.203125 25.203125 
L 14.890625 25.203125 
Q 15.484375 15.921875 20.484375 11.0625 
Q 25.484375 6.203125 34.421875 6.203125 
Q 39.59375 6.203125 44.453125 7.46875 
Q 49.3125 8.734375 54.109375 11.28125 
L 54.109375 2.78125 
Q 49.265625 0.734375 44.1875 -0.34375 
Q 39.109375 -1.421875 33.890625 -1.421875 
Q 20.796875 -1.421875 13.15625 6.1875 
Q 5.515625 13.8125 5.515625 26.8125 
Q 5.515625 40.234375 12.765625 48.109375 
Q 20.015625 56 32.328125 56 
Q 43.359375 56 49.78125 48.890625 
Q 56.203125 41.796875 56.203125 29.59375 
z
M 47.21875 32.234375 
Q 47.125 39.59375 43.09375 43.984375 
Q 39.0625 48.390625 32.421875 48.390625 
Q 24.90625 48.390625 20.390625 44.140625 
Q 15.875 39.890625 15.1875 32.171875 
z
" id="DejaVuSans-101"/>
      <path d="M 52 44.1875 
Q 55.375 50.25 60.0625 53.125 
Q 64.75 56 71.09375 56 
Q 79.640625 56 84.28125 50.015625 
Q 88.921875 44.046875 88.921875 33.015625 
L 88.921875 0 
L 79.890625 0 
L 79.890625 32.71875 
Q 79.890625 40.578125 77.09375 44.375 
Q 74.3125 48.1875 68.609375 48.1875 
Q 61.625 48.1875 57.5625 43.546875 
Q 53.515625 38.921875 53.515625 30.90625 
L 53.515625 0 
L 44.484375 0 
L 44.484375 32.71875 
Q 44.484375 40.625 41.703125 44.40625 
Q 38.921875 48.1875 33.109375 48.1875 
Q 26.21875 48.1875 22.15625 43.53125 
Q 18.109375 38.875 18.109375 30.90625 
L 18.109375 0 
L 9.078125 0 
L 9.078125 54.6875 
L 18.109375 54.6875 
L 18.109375 46.1875 
Q 21.1875 51.21875 25.484375 53.609375 
Q 29.78125 56 35.6875 56 
Q 41.65625 56 45.828125 52.96875 
Q 50 49.953125 52 44.1875 
z
" id="DejaVuSans-109"/>
      <path d="M 54.890625 33.015625 
L 54.890625 0 
L 45.90625 0 
L 45.90625 32.71875 
Q 45.90625 40.484375 42.875 44.328125 
Q 39.84375 48.1875 33.796875 48.1875 
Q 26.515625 48.1875 22.3125 43.546875 
Q 18.109375 38.921875 18.109375 30.90625 
L 18.109375 0 
L 9.078125 0 
L 9.078125 54.6875 
L 18.109375 54.6875 
L 18.109375 46.1875 
Q 21.34375 51.125 25.703125 53.5625 
Q 30.078125 56 35.796875 56 
Q 45.21875 56 50.046875 50.171875 
Q 54.890625 44.34375 54.890625 33.015625 
z
" id="DejaVuSans-110"/>
      <path d="M 8.5 21.578125 
L 8.5 54.6875 
L 17.484375 54.6875 
L 17.484375 21.921875 
Q 17.484375 14.15625 20.5 10.265625 
Q 23.53125 6.390625 29.59375 6.390625 
Q 36.859375 6.390625 41.078125 11.03125 
Q 45.3125 15.671875 45.3125 23.6875 
L 45.3125 54.6875 
L 54.296875 54.6875 
L 54.296875 0 
L 45.3125 0 
L 45.3125 8.40625 
Q 42.046875 3.421875 37.71875 1 
Q 33.40625 -1.421875 27.6875 -1.421875 
Q 18.265625 -1.421875 13.375 4.4375 
Q 8.5 10.296875 8.5 21.578125 
z
M 31.109375 56 
z
" id="DejaVuSans-117"/>
     </defs>
     <g transform="translate(456.919063 59.237813)scale(0.14 -0.14)">
      <use xlink:href="#DejaVuSans-115"/>
      <use x="52.099609" xlink:href="#DejaVuSans-105"/>
      <use x="79.882812" xlink:href="#DejaVuSans-100"/>
      <use x="143.359375" xlink:href="#DejaVuSans-101"/>
      <use x="204.882812" xlink:href="#DejaVuSans-109"/>
      <use x="302.294922" xlink:href="#DejaVuSans-101"/>
      <use x="363.818359" xlink:href="#DejaVuSans-110"/>
      <use x="427.197266" xlink:href="#DejaVuSans-117"/>
     </g>
    </g>
    <g id="patch_6">
     <path d="M 417.719063 79.787188 
L 445.719063 79.787188 
L 445.719063 69.987188 
L 417.719063 69.987188 
z
" style="fill:#36a2eb;opacity:0.5;stroke:#36a2eb;stroke-linejoin:miter;"/>
    </g>
    <g id="text_2">
     <!-- tabbar -->
     <defs>
      <path d="M 18.3125 70.21875 
L 18.3125 54.6875 
L 36.8125 54.6875 
L 36.8125 47.703125 
L 18.3125 47.703125 
L 18.3125 18.015625 
Q 18.3125 11.328125 20.140625 9.421875 
Q 21.96875 7.515625 27.59375 7.515625 
L 36.8125 7.515625 
L 36.8125 0 
L 27.59375 0 
Q 17.1875 0 13.234375 3.875 
Q 9.28125 7.765625 9.28125 18.015625 
L 9.28125 47.703125 
L 2.6875 47.703125 
L 2.6875 54.6875 
L 9.28125 54.6875 
L 9.28125 70.21875 
z
" id="DejaVuSans-116"/>
      <path d="M 34.28125 27.484375 
Q 23.390625 27.484375 19.1875 25 
Q 14.984375 22.515625 14.984375 16.5 
Q 14.984375 11.71875 18.140625 8.90625 
Q 21.296875 6.109375 26.703125 6.109375 
Q 34.1875 6.109375 38.703125 11.40625 
Q 43.21875 16.703125 43.21875 25.484375 
L 43.21875 27.484375 
z
M 52.203125 31.203125 
L 52.203125 0 
L 43.21875 0 
L 43.21875 8.296875 
Q 40.140625 3.328125 35.546875 0.953125 
Q 30.953125 -1.421875 24.3125 -1.421875 
Q 15.921875 -1.421875 10.953125 3.296875 
Q 6 8.015625 6 15.921875 
Q 6 25.140625 12.171875 29.828125 
Q 18.359375 34.515625 30.609375 34.515625 
L 43.21875 34.515625 
L 43.21875 35.40625 
Q 43.21875 41.609375 39.140625 45 
Q 35.0625 48.390625 27.6875 48.390625 
Q 23 48.390625 18.546875 47.265625 
Q 14.109375 46.140625 10.015625 43.890625 
L 10.015625 52.203125 
Q 14.9375 54.109375 19.578125 55.046875 
Q 24.21875 56 28.609375 56 
Q 40.484375 56 46.34375 49.84375 
Q 52.203125 43.703125 52.203125 31.203125 
z
" id="DejaVuSans-97"/>
      <path d="M 48.6875 27.296875 
Q 48.6875 37.203125 44.609375 42.84375 
Q 40.53125 48.484375 33.40625 48.484375 
Q 26.265625 48.484375 22.1875 42.84375 
Q 18.109375 37.203125 18.109375 27.296875 
Q 18.109375 17.390625 22.1875 11.75 
Q 26.265625 6.109375 33.40625 6.109375 
Q 40.53125 6.109375 44.609375 11.75 
Q 48.6875 17.390625 48.6875 27.296875 
z
M 18.109375 46.390625 
Q 20.953125 51.265625 25.265625 53.625 
Q 29.59375 56 35.59375 56 
Q 45.5625 56 51.78125 48.09375 
Q 58.015625 40.1875 58.015625 27.296875 
Q 58.015625 14.40625 51.78125 6.484375 
Q 45.5625 -1.421875 35.59375 -1.421875 
Q 29.59375 -1.421875 25.265625 0.953125 
Q 20.953125 3.328125 18.109375 8.203125 
L 18.109375 0 
L 9.078125 0 
L 9.078125 75.984375 
L 18.109375 75.984375 
z
" id="DejaVuSans-98"/>
      <path d="M 41.109375 46.296875 
Q 39.59375 47.171875 37.8125 47.578125 
Q 36.03125 48 33.890625 48 
Q 26.265625 48 22.1875 43.046875 
Q 18.109375 38.09375 18.109375 28.8125 
L 18.109375 0 
L 9.078125 0 
L 9.078125 54.6875 
L 18.109375 54.6875 
L 18.109375 46.1875 
Q 20.953125 51.171875 25.484375 53.578125 
Q 30.03125 56 36.53125 56 
Q 37.453125 56 38.578125 55.875 
Q 39.703125 55.765625 41.0625 55.515625 
z
" id="DejaVuSans-114"/>
     </defs>
     <g transform="translate(456.919063 79.787188)scale(0.14 -0.14)">
      <use xlink:href="#DejaVuSans-116"/>
      <use x="39.208984" xlink:href="#DejaVuSans-97"/>
      <use x="100.488281" xlink:href="#DejaVuSans-98"/>
      <use x="163.964844" xlink:href="#DejaVuSans-98"/>
      <use x="227.441406" xlink:href="#DejaVuSans-97"/>
      <use x="288.720703" xlink:href="#DejaVuSans-114"/>
     </g>
    </g>
   </g>
  </g>
  <g id="axes_2">
   <g id="patch_7">
    <path d="M 36 525.24 
L 538.2 525.24 
L 538.2 402.93 
L 36 402.93 
z
" style="fill:none;"/>
   </g>
   <g id="patch_8">
    <path clip-path="url(#p3eddaaa5a9)" d="M 172.445476 519.680455 
L 390.77065 519.680455 
L 390.77065 482.616818 
L 172.445476 482.616818 
z
" style="fill:#ff6384;opacity:0.5;"/>
   </g>
   <g id="patch_9">
    <path clip-path="url(#p3eddaaa5a9)" d="M 199.371079 445.553182 
L 407.211089 445.553182 
L 407.211089 408.489545 
L 199.371079 408.489545 
z
" style="fill:#36a2eb;opacity:0.5;"/>
   </g>
   <g id="matplotlib.axis_1">
    <g id="xtick_1">
     <g id="line2d_3">
      <defs>
       <path d="M 0 0 
L 0 3.5 
" id="m362dc95762" style="stroke:#000000;stroke-width:0.8;"/>
      </defs>
      <g>
       <use style="stroke:#000000;stroke-width:0.8;" x="72.908981" xlink:href="#m362dc95762" y="525.24"/>
      </g>
     </g>
     <g id="text_3">
      <!-- 4.25 -->
      <defs>
       <path d="M 37.796875 64.3125 
L 12.890625 25.390625 
L 37.796875 25.390625 
z
M 35.203125 72.90625 
L 47.609375 72.90625 
L 47.609375 25.390625 
L 58.015625 25.390625 
L 58.015625 17.1875 
L 47.609375 17.1875 
L 47.609375 0 
L 37.796875 0 
L 37.796875 17.1875 
L 4.890625 17.1875 
L 4.890625 26.703125 
z
" id="DejaVuSans-52"/>
       <path d="M 10.6875 12.40625 
L 21 12.40625 
L 21 0 
L 10.6875 0 
z
" id="DejaVuSans-46"/>
       <path d="M 19.1875 8.296875 
L 53.609375 8.296875 
L 53.609375 0 
L 7.328125 0 
L 7.328125 8.296875 
Q 12.9375 14.109375 22.625 23.890625 
Q 32.328125 33.6875 34.8125 36.53125 
Q 39.546875 41.84375 41.421875 45.53125 
Q 43.3125 49.21875 43.3125 52.78125 
Q 43.3125 58.59375 39.234375 62.25 
Q 35.15625 65.921875 28.609375 65.921875 
Q 23.96875 65.921875 18.8125 64.3125 
Q 13.671875 62.703125 7.8125 59.421875 
L 7.8125 69.390625 
Q 13.765625 71.78125 18.9375 73 
Q 24.125 74.21875 28.421875 74.21875 
Q 39.75 74.21875 46.484375 68.546875 
Q 53.21875 62.890625 53.21875 53.421875 
Q 53.21875 48.921875 51.53125 44.890625 
Q 49.859375 40.875 45.40625 35.40625 
Q 44.1875 33.984375 37.640625 27.21875 
Q 31.109375 20.453125 19.1875 8.296875 
z
" id="DejaVuSans-50"/>
       <path d="M 10.796875 72.90625 
L 49.515625 72.90625 
L 49.515625 64.59375 
L 19.828125 64.59375 
L 19.828125 46.734375 
Q 21.96875 47.46875 24.109375 47.828125 
Q 26.265625 48.1875 28.421875 48.1875 
Q 40.625 48.1875 47.75 41.5 
Q 54.890625 34.8125 54.890625 23.390625 
Q 54.890625 11.625 47.5625 5.09375 
Q 40.234375 -1.421875 26.90625 -1.421875 
Q 22.3125 -1.421875 17.546875 -0.640625 
Q 12.796875 0.140625 7.71875 1.703125 
L 7.71875 11.625 
Q 12.109375 9.234375 16.796875 8.0625 
Q 21.484375 6.890625 26.703125 6.890625 
Q 35.15625 6.890625 40.078125 11.328125 
Q 45.015625 15.765625 45.015625 23.390625 
Q 45.015625 31 40.078125 35.4375 
Q 35.15625 39.890625 26.703125 39.890625 
Q 22.75 39.890625 18.8125 39.015625 
Q 14.890625 38.140625 10.796875 36.28125 
z
" id="DejaVuSans-53"/>
      </defs>
      <g transform="translate(57.323044 542.877813)scale(0.14 -0.14)">
       <use xlink:href="#DejaVuSans-52"/>
       <use x="63.623047" xlink:href="#DejaVuSans-46"/>
       <use x="95.410156" xlink:href="#DejaVuSans-50"/>
       <use x="159.033203" xlink:href="#DejaVuSans-53"/>
      </g>
     </g>
    </g>
    <g id="xtick_2">
     <g id="line2d_4">
      <g>
       <use style="stroke:#000000;stroke-width:0.8;" x="140.668423" xlink:href="#m362dc95762" y="525.24"/>
      </g>
     </g>
     <g id="text_4">
      <!-- 4.50 -->
      <defs>
       <path d="M 31.78125 66.40625 
Q 24.171875 66.40625 20.328125 58.90625 
Q 16.5 51.421875 16.5 36.375 
Q 16.5 21.390625 20.328125 13.890625 
Q 24.171875 6.390625 31.78125 6.390625 
Q 39.453125 6.390625 43.28125 13.890625 
Q 47.125 21.390625 47.125 36.375 
Q 47.125 51.421875 43.28125 58.90625 
Q 39.453125 66.40625 31.78125 66.40625 
z
M 31.78125 74.21875 
Q 44.046875 74.21875 50.515625 64.515625 
Q 56.984375 54.828125 56.984375 36.375 
Q 56.984375 17.96875 50.515625 8.265625 
Q 44.046875 -1.421875 31.78125 -1.421875 
Q 19.53125 -1.421875 13.0625 8.265625 
Q 6.59375 17.96875 6.59375 36.375 
Q 6.59375 54.828125 13.0625 64.515625 
Q 19.53125 74.21875 31.78125 74.21875 
z
" id="DejaVuSans-48"/>
      </defs>
      <g transform="translate(125.082486 542.877813)scale(0.14 -0.14)">
       <use xlink:href="#DejaVuSans-52"/>
       <use x="63.623047" xlink:href="#DejaVuSans-46"/>
       <use x="95.410156" xlink:href="#DejaVuSans-53"/>
       <use x="159.033203" xlink:href="#DejaVuSans-48"/>
      </g>
     </g>
    </g>
    <g id="xtick_3">
     <g id="line2d_5">
      <g>
       <use style="stroke:#000000;stroke-width:0.8;" x="208.427865" xlink:href="#m362dc95762" y="525.24"/>
      </g>
     </g>
     <g id="text_5">
      <!-- 4.75 -->
      <defs>
       <path d="M 8.203125 72.90625 
L 55.078125 72.90625 
L 55.078125 68.703125 
L 28.609375 0 
L 18.3125 0 
L 43.21875 64.59375 
L 8.203125 64.59375 
z
" id="DejaVuSans-55"/>
      </defs>
      <g transform="translate(192.841928 542.877813)scale(0.14 -0.14)">
       <use xlink:href="#DejaVuSans-52"/>
       <use x="63.623047" xlink:href="#DejaVuSans-46"/>
       <use x="95.410156" xlink:href="#DejaVuSans-55"/>
       <use x="159.033203" xlink:href="#DejaVuSans-53"/>
      </g>
     </g>
    </g>
    <g id="xtick_4">
     <g id="line2d_6">
      <g>
       <use style="stroke:#000000;stroke-width:0.8;" x="276.187308" xlink:href="#m362dc95762" y="525.24"/>
      </g>
     </g>
     <g id="text_6">
      <!-- 5.00 -->
      <g transform="translate(260.60137 542.877813)scale(0.14 -0.14)">
       <use xlink:href="#DejaVuSans-53"/>
       <use x="63.623047" xlink:href="#DejaVuSans-46"/>
       <use x="95.410156" xlink:href="#DejaVuSans-48"/>
       <use x="159.033203" xlink:href="#DejaVuSans-48"/>
      </g>
     </g>
    </g>
    <g id="xtick_5">
     <g id="line2d_7">
      <g>
       <use style="stroke:#000000;stroke-width:0.8;" x="343.94675" xlink:href="#m362dc95762" y="525.24"/>
      </g>
     </g>
     <g id="text_7">
      <!-- 5.25 -->
      <g transform="translate(328.360812 542.877813)scale(0.14 -0.14)">
       <use xlink:href="#DejaVuSans-53"/>
       <use x="63.623047" xlink:href="#DejaVuSans-46"/>
       <use x="95.410156" xlink:href="#DejaVuSans-50"/>
       <use x="159.033203" xlink:href="#DejaVuSans-53"/>
      </g>
     </g>
    </g>
    <g id="xtick_6">
     <g id="line2d_8">
      <g>
       <use style="stroke:#000000;stroke-width:0.8;" x="411.706192" xlink:href="#m362dc95762" y="525.24"/>
      </g>
     </g>
     <g id="text_8">
      <!-- 5.50 -->
      <g transform="translate(396.120254 542.877813)scale(0.14 -0.14)">
       <use xlink:href="#DejaVuSans-53"/>
       <use x="63.623047" xlink:href="#DejaVuSans-46"/>
       <use x="95.410156" xlink:href="#DejaVuSans-53"/>
       <use x="159.033203" xlink:href="#DejaVuSans-48"/>
      </g>
     </g>
    </g>
    <g id="xtick_7">
     <g id="line2d_9">
      <g>
       <use style="stroke:#000000;stroke-width:0.8;" x="479.465634" xlink:href="#m362dc95762" y="525.24"/>
      </g>
     </g>
     <g id="text_9">
      <!-- 5.75 -->
      <g transform="translate(463.879696 542.877813)scale(0.14 -0.14)">
       <use xlink:href="#DejaVuSans-53"/>
       <use x="63.623047" xlink:href="#DejaVuSans-46"/>
       <use x="95.410156" xlink:href="#DejaVuSans-55"/>
       <use x="159.033203" xlink:href="#DejaVuSans-53"/>
      </g>
     </g>
    </g>
   </g>
   <g id="line2d_10">
    <path clip-path="url(#p3eddaaa5a9)" d="M 281.608063 525.24 
L 281.608063 402.93 
" style="fill:none;stroke:#ff6384;stroke-dasharray:5.55,2.4;stroke-dashoffset:0;stroke-opacity:0.8;stroke-width:1.5;"/>
   </g>
   <g id="line2d_11">
    <path clip-path="url(#p3eddaaa5a9)" d="M 303.291084 525.24 
L 303.291084 402.93 
" style="fill:none;stroke:#36a2eb;stroke-dasharray:5.55,2.4;stroke-dashoffset:0;stroke-opacity:0.8;stroke-width:1.5;"/>
   </g>
   <g id="patch_10">
    <path d="M 36 525.24 
L 538.2 525.24 
" style="fill:none;stroke:#000000;stroke-linecap:square;stroke-linejoin:miter;stroke-width:0.8;"/>
   </g>
  </g>
 </g>
 <defs>
  <clipPath id="pc150ffc106">
   <rect height="366.93" width="502.2" x="36" y="36"/>
  </clipPath>
  <clipPath id="p3eddaaa5a9">
   <rect height="122.31" width="502.2" x="36" y="402.93"/>
  </clipPath>
 </defs>
</svg>
