<?xml version="1.0" encoding="utf-8" standalone="no"?>
<!DOCTYPE svg PUBLIC "-//W3C//DTD SVG 1.1//EN"
  "http://www.w3.org/Graphics/SVG/1.1/DTD/svg11.dtd">
<!-- Created with matplotlib (https://matplotlib.org/) -->
<svg height="581.789375pt" version="1.1" viewBox="0 0 574.2 581.789375" width="574.2pt" xmlns="http://www.w3.org/2000/svg" xmlns:xlink="http://www.w3.org/1999/xlink">
 <defs>
  <style type="text/css">
*{stroke-linecap:butt;stroke-linejoin:round;}
  </style>
 </defs>
 <g id="figure_1">
  <g id="patch_1">
   <path d="M 0 581.789375 
L 574.2 581.789375 
L 574.2 0 
L 0 0 
z
" style="fill:none;"/>
  </g>
  <g id="axes_1">
   <g id="patch_2">
    <path d="M 36 402.93 
L 538.2 402.93 
L 538.2 36 
L 36 36 
z
" style="fill:none;"/>
   </g>
   <g id="PolyCollection_1">
    <defs>
     <path d="M 58.827273 -195.538011 
L 58.827273 -195.63204 
L 63.438843 -195.667496 
L 68.050413 -195.715162 
L 72.661983 -195.778797 
L 77.273554 -195.863161 
L 81.885124 -195.974225 
L 86.496694 -196.119418 
L 91.108264 -196.307894 
L 95.719835 -196.550833 
L 100.331405 -196.861761 
L 104.942975 -197.25688 
L 109.554545 -197.755409 
L 114.166116 -198.379909 
L 118.777686 -199.156585 
L 123.389256 -200.115535 
L 128.000826 -201.290924 
L 132.612397 -202.721063 
L 137.223967 -204.448353 
L 141.835537 -206.519059 
L 146.447107 -208.982902 
L 151.058678 -211.892421 
L 155.670248 -215.302088 
L 160.281818 -219.267167 
L 164.893388 -223.842291 
L 169.504959 -229.079784 
L 174.116529 -235.027727 
L 178.728099 -241.72781 
L 183.339669 -249.213032 
L 187.95124 -257.505293 
L 192.56281 -266.612993 
L 197.17438 -276.52871 
L 201.78595 -287.227091 
L 206.397521 -298.66306 
L 211.009091 -310.770462 
L 215.620661 -323.461268 
L 220.232231 -336.625434 
L 224.843802 -350.131491 
L 229.455372 -363.82794 
L 234.066942 -377.545459 
L 238.678512 -391.099923 
L 243.290083 -404.296176 
L 247.901653 -416.932469 
L 252.513223 -428.805439 
L 257.124793 -439.715452 
L 261.736364 -449.472128 
L 266.347934 -457.899841 
L 270.959504 -464.842957 
L 275.571074 -470.170611 
L 280.182645 -473.780806 
L 284.794215 -475.603661 
L 289.405785 -475.603661 
L 294.017355 -473.780806 
L 298.628926 -470.170611 
L 303.240496 -464.842957 
L 307.852066 -457.899841 
L 312.463636 -449.472128 
L 317.075207 -439.715452 
L 321.686777 -428.805439 
L 326.298347 -416.932469 
L 330.909917 -404.296176 
L 335.521488 -391.099923 
L 340.133058 -377.545459 
L 344.744628 -363.82794 
L 349.356198 -350.131491 
L 353.967769 -336.625434 
L 358.579339 -323.461268 
L 363.190909 -310.770462 
L 367.802479 -298.66306 
L 372.41405 -287.227091 
L 377.02562 -276.52871 
L 381.63719 -266.612993 
L 386.24876 -257.505293 
L 390.860331 -249.213032 
L 395.471901 -241.72781 
L 400.083471 -235.027727 
L 404.695041 -229.079784 
L 409.306612 -223.842291 
L 413.918182 -219.267167 
L 418.529752 -215.302088 
L 423.141322 -211.892421 
L 427.752893 -208.982902 
L 432.364463 -206.519059 
L 436.976033 -204.448353 
L 441.587603 -202.721063 
L 446.199174 -201.290924 
L 450.810744 -200.115535 
L 455.422314 -199.156585 
L 460.033884 -198.379909 
L 464.645455 -197.755409 
L 469.257025 -197.25688 
L 473.868595 -196.861761 
L 478.480165 -196.550833 
L 483.091736 -196.307894 
L 487.703306 -196.119418 
L 492.314876 -195.974225 
L 496.926446 -195.863161 
L 501.538017 -195.778797 
L 506.149587 -195.715162 
L 510.761157 -195.667496 
L 515.372727 -195.63204 
L 515.372727 -195.538011 
L 515.372727 -195.538011 
L 510.761157 -195.538011 
L 506.149587 -195.538011 
L 501.538017 -195.538011 
L 496.926446 -195.538011 
L 492.314876 -195.538011 
L 487.703306 -195.538011 
L 483.091736 -195.538011 
L 478.480165 -195.538011 
L 473.868595 -195.538011 
L 469.257025 -195.538011 
L 464.645455 -195.538011 
L 460.033884 -195.538011 
L 455.422314 -195.538011 
L 450.810744 -195.538011 
L 446.199174 -195.538011 
L 441.587603 -195.538011 
L 436.976033 -195.538011 
L 432.364463 -195.538011 
L 427.752893 -195.538011 
L 423.141322 -195.538011 
L 418.529752 -195.538011 
L 413.918182 -195.538011 
L 409.306612 -195.538011 
L 404.695041 -195.538011 
L 400.083471 -195.538011 
L 395.471901 -195.538011 
L 390.860331 -195.538011 
L 386.24876 -195.538011 
L 381.63719 -195.538011 
L 377.02562 -195.538011 
L 372.41405 -195.538011 
L 367.802479 -195.538011 
L 363.190909 -195.538011 
L 358.579339 -195.538011 
L 353.967769 -195.538011 
L 349.356198 -195.538011 
L 344.744628 -195.538011 
L 340.133058 -195.538011 
L 335.521488 -195.538011 
L 330.909917 -195.538011 
L 326.298347 -195.538011 
L 321.686777 -195.538011 
L 317.075207 -195.538011 
L 312.463636 -195.538011 
L 307.852066 -195.538011 
L 303.240496 -195.538011 
L 298.628926 -195.538011 
L 294.017355 -195.538011 
L 289.405785 -195.538011 
L 284.794215 -195.538011 
L 280.182645 -195.538011 
L 275.571074 -195.538011 
L 270.959504 -195.538011 
L 266.347934 -195.538011 
L 261.736364 -195.538011 
L 257.124793 -195.538011 
L 252.513223 -195.538011 
L 247.901653 -195.538011 
L 243.290083 -195.538011 
L 238.678512 -195.538011 
L 234.066942 -195.538011 
L 229.455372 -195.538011 
L 224.843802 -195.538011 
L 220.232231 -195.538011 
L 215.620661 -195.538011 
L 211.009091 -195.538011 
L 206.397521 -195.538011 
L 201.78595 -195.538011 
L 197.17438 -195.538011 
L 192.56281 -195.538011 
L 187.95124 -195.538011 
L 183.339669 -195.538011 
L 178.728099 -195.538011 
L 174.116529 -195.538011 
L 169.504959 -195.538011 
L 164.893388 -195.538011 
L 160.281818 -195.538011 
L 155.670248 -195.538011 
L 151.058678 -195.538011 
L 146.447107 -195.538011 
L 141.835537 -195.538011 
L 137.223967 -195.538011 
L 132.612397 -195.538011 
L 128.000826 -195.538011 
L 123.389256 -195.538011 
L 118.777686 -195.538011 
L 114.166116 -195.538011 
L 109.554545 -195.538011 
L 104.942975 -195.538011 
L 100.331405 -195.538011 
L 95.719835 -195.538011 
L 91.108264 -195.538011 
L 86.496694 -195.538011 
L 81.885124 -195.538011 
L 77.273554 -195.538011 
L 72.661983 -195.538011 
L 68.050413 -195.538011 
L 63.438843 -195.538011 
L 58.827273 -195.538011 
z
" id="mec34db7732" style="stroke:#ff6384;stroke-opacity:0.5;"/>
    </defs>
    <g clip-path="url(#p2dd1300225)">
     <use style="fill:#ff6384;fill-opacity:0.5;stroke:#ff6384;stroke-opacity:0.5;" x="0" xlink:href="#mec34db7732" y="581.789375"/>
    </g>
   </g>
   <g id="PolyCollection_2">
    <defs>
     <path d="M 85.725508 -195.538011 
L 85.725508 -195.650004 
L 89.597355 -195.692234 
L 93.469202 -195.749007 
L 97.341048 -195.8248 
L 101.212895 -195.925281 
L 105.084741 -196.057565 
L 108.956588 -196.230497 
L 112.828434 -196.454982 
L 116.700281 -196.744335 
L 120.572128 -197.114666 
L 124.443974 -197.585273 
L 128.315821 -198.179047 
L 132.187667 -198.922859 
L 136.059514 -199.847921 
L 139.93136 -200.990079 
L 143.803207 -202.390029 
L 147.675053 -204.093399 
L 151.5469 -206.150691 
L 155.418747 -208.617009 
L 159.290593 -211.551575 
L 163.16244 -215.016962 
L 167.034286 -219.078053 
L 170.906133 -223.800667 
L 174.777979 -229.249878 
L 178.649826 -235.488004 
L 182.521673 -242.572312 
L 186.393519 -250.552459 
L 190.265366 -259.467747 
L 194.137212 -269.344261 
L 198.009059 -280.192004 
L 201.880905 -292.002137 
L 205.752752 -304.744465 
L 209.624599 -318.365297 
L 213.496445 -332.785841 
L 217.368292 -347.901251 
L 221.240138 -363.580456 
L 225.111985 -379.666871 
L 228.983831 -395.980052 
L 232.855678 -412.31833 
L 236.727525 -428.4624 
L 240.599371 -444.179822 
L 244.471218 -459.230303 
L 248.343064 -473.371627 
L 252.214911 -486.366018 
L 256.086757 -497.986726 
L 259.958604 -508.02457 
L 263.830451 -516.294181 
L 267.702297 -522.639693 
L 271.574144 -526.939623 
L 275.44599 -529.110739 
L 279.317837 -529.110739 
L 283.189683 -526.939623 
L 287.06153 -522.639693 
L 290.933377 -516.294181 
L 294.805223 -508.02457 
L 298.67707 -497.986726 
L 302.548916 -486.366018 
L 306.420763 -473.371627 
L 310.292609 -459.230303 
L 314.164456 -444.179822 
L 318.036302 -428.4624 
L 321.908149 -412.31833 
L 325.779996 -395.980052 
L 329.651842 -379.666871 
L 333.523689 -363.580456 
L 337.395535 -347.901251 
L 341.267382 -332.785841 
L 345.139228 -318.365297 
L 349.011075 -304.744465 
L 352.882922 -292.002137 
L 356.754768 -280.192004 
L 360.626615 -269.344261 
L 364.498461 -259.467747 
L 368.370308 -250.552459 
L 372.242154 -242.572312 
L 376.114001 -235.488004 
L 379.985848 -229.249878 
L 383.857694 -223.800667 
L 387.729541 -219.078053 
L 391.601387 -215.016962 
L 395.473234 -211.551575 
L 399.34508 -208.617009 
L 403.216927 -206.150691 
L 407.088774 -204.093399 
L 410.96062 -202.390029 
L 414.832467 -200.990079 
L 418.704313 -199.847921 
L 422.57616 -198.922859 
L 426.448006 -198.179047 
L 430.319853 -197.585273 
L 434.1917 -197.114666 
L 438.063546 -196.744335 
L 441.935393 -196.454982 
L 445.807239 -196.230497 
L 449.679086 -196.057565 
L 453.550932 -195.925281 
L 457.422779 -195.8248 
L 461.294625 -195.749007 
L 465.166472 -195.692234 
L 469.038319 -195.650004 
L 469.038319 -195.538011 
L 469.038319 -195.538011 
L 465.166472 -195.538011 
L 461.294625 -195.538011 
L 457.422779 -195.538011 
L 453.550932 -195.538011 
L 449.679086 -195.538011 
L 445.807239 -195.538011 
L 441.935393 -195.538011 
L 438.063546 -195.538011 
L 434.1917 -195.538011 
L 430.319853 -195.538011 
L 426.448006 -195.538011 
L 422.57616 -195.538011 
L 418.704313 -195.538011 
L 414.832467 -195.538011 
L 410.96062 -195.538011 
L 407.088774 -195.538011 
L 403.216927 -195.538011 
L 399.34508 -195.538011 
L 395.473234 -195.538011 
L 391.601387 -195.538011 
L 387.729541 -195.538011 
L 383.857694 -195.538011 
L 379.985848 -195.538011 
L 376.114001 -195.538011 
L 372.242154 -195.538011 
L 368.370308 -195.538011 
L 364.498461 -195.538011 
L 360.626615 -195.538011 
L 356.754768 -195.538011 
L 352.882922 -195.538011 
L 349.011075 -195.538011 
L 345.139228 -195.538011 
L 341.267382 -195.538011 
L 337.395535 -195.538011 
L 333.523689 -195.538011 
L 329.651842 -195.538011 
L 325.779996 -195.538011 
L 321.908149 -195.538011 
L 318.036302 -195.538011 
L 314.164456 -195.538011 
L 310.292609 -195.538011 
L 306.420763 -195.538011 
L 302.548916 -195.538011 
L 298.67707 -195.538011 
L 294.805223 -195.538011 
L 290.933377 -195.538011 
L 287.06153 -195.538011 
L 283.189683 -195.538011 
L 279.317837 -195.538011 
L 275.44599 -195.538011 
L 271.574144 -195.538011 
L 267.702297 -195.538011 
L 263.830451 -195.538011 
L 259.958604 -195.538011 
L 256.086757 -195.538011 
L 252.214911 -195.538011 
L 248.343064 -195.538011 
L 244.471218 -195.538011 
L 240.599371 -195.538011 
L 236.727525 -195.538011 
L 232.855678 -195.538011 
L 228.983831 -195.538011 
L 225.111985 -195.538011 
L 221.240138 -195.538011 
L 217.368292 -195.538011 
L 213.496445 -195.538011 
L 209.624599 -195.538011 
L 205.752752 -195.538011 
L 201.880905 -195.538011 
L 198.009059 -195.538011 
L 194.137212 -195.538011 
L 190.265366 -195.538011 
L 186.393519 -195.538011 
L 182.521673 -195.538011 
L 178.649826 -195.538011 
L 174.777979 -195.538011 
L 170.906133 -195.538011 
L 167.034286 -195.538011 
L 163.16244 -195.538011 
L 159.290593 -195.538011 
L 155.418747 -195.538011 
L 151.5469 -195.538011 
L 147.675053 -195.538011 
L 143.803207 -195.538011 
L 139.93136 -195.538011 
L 136.059514 -195.538011 
L 132.187667 -195.538011 
L 128.315821 -195.538011 
L 124.443974 -195.538011 
L 120.572128 -195.538011 
L 116.700281 -195.538011 
L 112.828434 -195.538011 
L 108.956588 -195.538011 
L 105.084741 -195.538011 
L 101.212895 -195.538011 
L 97.341048 -195.538011 
L 93.469202 -195.538011 
L 89.597355 -195.538011 
L 85.725508 -195.538011 
z
" id="m4161a61b19" style="stroke:#36a2eb;stroke-opacity:0.5;"/>
    </defs>
    <g clip-path="url(#p2dd1300225)">
     <use style="fill:#36a2eb;fill-opacity:0.5;stroke:#36a2eb;stroke-opacity:0.5;" x="0" xlink:href="#m4161a61b19" y="581.789375"/>
    </g>
   </g>
   <g id="line2d_1">
    <path clip-path="url(#p2dd1300225)" d="M 58.827273 386.157335 
L 63.438843 386.121879 
L 68.050413 386.074213 
L 72.661983 386.010578 
L 77.273554 385.926214 
L 81.885124 385.81515 
L 86.496694 385.669957 
L 91.108264 385.481481 
L 95.719835 385.238542 
L 100.331405 384.927614 
L 104.942975 384.532495 
L 109.554545 384.033966 
L 114.166116 383.409466 
L 118.777686 382.63279 
L 123.389256 381.67384 
L 128.000826 380.498451 
L 132.612397 379.068312 
L 137.223967 377.341022 
L 141.835537 375.270316 
L 146.447107 372.806473 
L 151.058678 369.896954 
L 155.670248 366.487287 
L 160.281818 362.522208 
L 164.893388 357.947084 
L 169.504959 352.709591 
L 174.116529 346.761648 
L 178.728099 340.061565 
L 183.339669 332.576343 
L 187.95124 324.284082 
L 192.56281 315.176382 
L 197.17438 305.260665 
L 201.78595 294.562284 
L 206.397521 283.126315 
L 211.009091 271.018913 
L 215.620661 258.328107 
L 220.232231 245.163941 
L 224.843802 231.657884 
L 229.455372 217.961435 
L 234.066942 204.243916 
L 238.678512 190.689452 
L 243.290083 177.493199 
L 247.901653 164.856906 
L 252.513223 152.983936 
L 257.124793 142.073923 
L 261.736364 132.317247 
L 266.347934 123.889534 
L 270.959504 116.946418 
L 275.571074 111.618764 
L 280.182645 108.008569 
L 284.794215 106.185714 
L 289.405785 106.185714 
L 294.017355 108.008569 
L 298.628926 111.618764 
L 303.240496 116.946418 
L 307.852066 123.889534 
L 312.463636 132.317247 
L 317.075207 142.073923 
L 321.686777 152.983936 
L 326.298347 164.856906 
L 330.909917 177.493199 
L 335.521488 190.689452 
L 340.133058 204.243916 
L 344.744628 217.961435 
L 349.356198 231.657884 
L 353.967769 245.163941 
L 358.579339 258.328107 
L 363.190909 271.018913 
L 367.802479 283.126315 
L 372.41405 294.562284 
L 377.02562 305.260665 
L 381.63719 315.176382 
L 386.24876 324.284082 
L 390.860331 332.576343 
L 395.471901 340.061565 
L 400.083471 346.761648 
L 404.695041 352.709591 
L 409.306612 357.947084 
L 413.918182 362.522208 
L 418.529752 366.487287 
L 423.141322 369.896954 
L 427.752893 372.806473 
L 432.364463 375.270316 
L 436.976033 377.341022 
L 441.587603 379.068312 
L 446.199174 380.498451 
L 450.810744 381.67384 
L 455.422314 382.63279 
L 460.033884 383.409466 
L 464.645455 384.033966 
L 469.257025 384.532495 
L 473.868595 384.927614 
L 478.480165 385.238542 
L 483.091736 385.481481 
L 487.703306 385.669957 
L 492.314876 385.81515 
L 496.926446 385.926214 
L 501.538017 386.010578 
L 506.149587 386.074213 
L 510.761157 386.121879 
L 515.372727 386.157335 
" style="fill:none;stroke:#ff6384;stroke-linecap:square;"/>
   </g>
   <g id="line2d_2">
    <path clip-path="url(#p2dd1300225)" d="M 85.725508 386.139371 
L 89.597355 386.097141 
L 93.469202 386.040368 
L 97.341048 385.964575 
L 101.212895 385.864094 
L 105.084741 385.73181 
L 108.956588 385.558878 
L 112.828434 385.334393 
L 116.700281 385.04504 
L 120.572128 384.674709 
L 124.443974 384.204102 
L 128.315821 383.610328 
L 132.187667 382.866516 
L 136.059514 381.941454 
L 139.93136 380.799296 
L 143.803207 379.399346 
L 147.675053 377.695976 
L 151.5469 375.638684 
L 155.418747 373.172366 
L 159.290593 370.2378 
L 163.16244 366.772413 
L 167.034286 362.711322 
L 170.906133 357.988708 
L 174.777979 352.539497 
L 178.649826 346.301371 
L 182.521673 339.217063 
L 186.393519 331.236916 
L 190.265366 322.321628 
L 194.137212 312.445114 
L 198.009059 301.597371 
L 201.880905 289.787238 
L 205.752752 277.04491 
L 209.624599 263.424078 
L 213.496445 249.003534 
L 217.368292 233.888124 
L 221.240138 218.208919 
L 225.111985 202.122504 
L 228.983831 185.809323 
L 232.855678 169.471045 
L 236.727525 153.326975 
L 240.599371 137.609553 
L 244.471218 122.559072 
L 248.343064 108.417748 
L 252.214911 95.423357 
L 256.086757 83.802649 
L 259.958604 73.764805 
L 263.830451 65.495194 
L 267.702297 59.149682 
L 271.574144 54.849752 
L 275.44599 52.678636 
L 279.317837 52.678636 
L 283.189683 54.849752 
L 287.06153 59.149682 
L 290.933377 65.495194 
L 294.805223 73.764805 
L 298.67707 83.802649 
L 302.548916 95.423357 
L 306.420763 108.417748 
L 310.292609 122.559072 
L 314.164456 137.609553 
L 318.036302 153.326975 
L 321.908149 169.471045 
L 325.779996 185.809323 
L 329.651842 202.122504 
L 333.523689 218.208919 
L 337.395535 233.888124 
L 341.267382 249.003534 
L 345.139228 263.424078 
L 349.011075 277.04491 
L 352.882922 289.787238 
L 356.754768 301.597371 
L 360.626615 312.445114 
L 364.498461 322.321628 
L 368.370308 331.236916 
L 372.242154 339.217063 
L 376.114001 346.301371 
L 379.985848 352.539497 
L 383.857694 357.988708 
L 387.729541 362.711322 
L 391.601387 366.772413 
L 395.473234 370.2378 
L 399.34508 373.172366 
L 403.216927 375.638684 
L 407.088774 377.695976 
L 410.96062 379.399346 
L 414.832467 380.799296 
L 418.704313 381.941454 
L 422.57616 382.866516 
L 426.448006 383.610328 
L 430.319853 384.204102 
L 434.1917 384.674709 
L 438.063546 385.04504 
L 441.935393 385.334393 
L 445.807239 385.558878 
L 449.679086 385.73181 
L 453.550932 385.864094 
L 457.422779 385.964575 
L 461.294625 386.040368 
L 465.166472 386.097141 
L 469.038319 386.139371 
" style="fill:none;stroke:#36a2eb;stroke-linecap:square;"/>
   </g>
   <g id="patch_3">
    <path d="M 36 402.93 
L 538.2 402.93 
" style="fill:none;stroke:#000000;stroke-linecap:square;stroke-linejoin:miter;stroke-width:0.8;"/>
   </g>
   <g id="legend_1">
    <g id="patch_4">
     <path d="M 414.919063 88.29875 
L 528.4 88.29875 
Q 531.2 88.29875 531.2 85.49875 
L 531.2 45.8 
Q 531.2 43 528.4 43 
L 414.919063 43 
Q 412.119063 43 412.119063 45.8 
L 412.119063 85.49875 
Q 412.119063 88.29875 414.919063 88.29875 
z
" style="fill:#ffffff;opacity:0.8;stroke:#cccccc;stroke-linejoin:miter;"/>
    </g>
    <g id="patch_5">
     <path d="M 417.719063 59.237813 
L 445.719063 59.237813 
L 445.719063 49.437813 
L 417.719063 49.437813 
z
" style="fill:#ff6384;opacity:0.5;stroke:#ff6384;stroke-linejoin:miter;"/>
    </g>
    <g id="text_1">
     <!-- sidemenu -->
     <defs>
      <path d="M 44.28125 53.078125 
L 44.28125 44.578125 
Q 40.484375 46.53125 36.375 47.5 
Q 32.28125 48.484375 27.875 48.484375 
Q 21.1875 48.484375 17.84375 46.4375 
Q 14.5 44.390625 14.5 40.28125 
Q 14.5 37.15625 16.890625 35.375 
Q 19.28125 33.59375 26.515625 31.984375 
L 29.59375 31.296875 
Q 39.15625 29.25 43.1875 25.515625 
Q 47.21875 21.78125 47.21875 15.09375 
Q 47.21875 7.46875 41.1875 3.015625 
Q 35.15625 -1.421875 24.609375 -1.421875 
Q 20.21875 -1.421875 15.453125 -0.5625 
Q 10.6875 0.296875 5.421875 2 
L 5.421875 11.28125 
Q 10.40625 8.6875 15.234375 7.390625 
Q 20.0625 6.109375 24.8125 6.109375 
Q 31.15625 6.109375 34.5625 8.28125 
Q 37.984375 10.453125 37.984375 14.40625 
Q 37.984375 18.0625 35.515625 20.015625 
Q 33.0625 21.96875 24.703125 23.78125 
L 21.578125 24.515625 
Q 13.234375 26.265625 9.515625 29.90625 
Q 5.8125 33.546875 5.8125 39.890625 
Q 5.8125 47.609375 11.28125 51.796875 
Q 16.75 56 26.8125 56 
Q 31.78125 56 36.171875 55.265625 
Q 40.578125 54.546875 44.28125 53.078125 
z
" id="DejaVuSans-115"/>
      <path d="M 9.421875 54.6875 
L 18.40625 54.6875 
L 18.40625 0 
L 9.421875 0 
z
M 9.421875 75.984375 
L 18.40625 75.984375 
L 18.40625 64.59375 
L 9.421875 64.59375 
z
" id="DejaVuSans-105"/>
      <path d="M 45.40625 46.390625 
L 45.40625 75.984375 
L 54.390625 75.984375 
L 54.390625 0 
L 45.40625 0 
L 45.40625 8.203125 
Q 42.578125 3.328125 38.25 0.953125 
Q 33.9375 -1.421875 27.875 -1.421875 
Q 17.96875 -1.421875 11.734375 6.484375 
Q 5.515625 14.40625 5.515625 27.296875 
Q 5.515625 40.1875 11.734375 48.09375 
Q 17.96875 56 27.875 56 
Q 33.9375 56 38.25 53.625 
Q 42.578125 51.265625 45.40625 46.390625 
z
M 14.796875 27.296875 
Q 14.796875 17.390625 18.875 11.75 
Q 22.953125 6.109375 30.078125 6.109375 
Q 37.203125 6.109375 41.296875 11.75 
Q 45.40625 17.390625 45.40625 27.296875 
Q 45.40625 37.203125 41.296875 42.84375 
Q 37.203125 48.484375 30.078125 48.484375 
Q 22.953125 48.484375 18.875 42.84375 
Q 14.796875 37.203125 14.796875 27.296875 
z
" id="DejaVuSans-100"/>
      <path d="M 56.203125 29.59375 
L 56.203125 25.203125 
L 14.890625 25.203125 
Q 15.484375 15.921875 20.484375 11.0625 
Q 25.484375 6.203125 34.421875 6.203125 
Q 39.59375 6.203125 44.453125 7.46875 
Q 49.3125 8.734375 54.109375 11.28125 
L 54.109375 2.78125 
Q 49.265625 0.734375 44.1875 -0.34375 
Q 39.109375 -1.421875 33.890625 -1.421875 
Q 20.796875 -1.421875 13.15625 6.1875 
Q 5.515625 13.8125 5.515625 26.8125 
Q 5.515625 40.234375 12.765625 48.109375 
Q 20.015625 56 32.328125 56 
Q 43.359375 56 49.78125 48.890625 
Q 56.203125 41.796875 56.203125 29.59375 
z
M 47.21875 32.234375 
Q 47.125 39.59375 43.09375 43.984375 
Q 39.0625 48.390625 32.421875 48.390625 
Q 24.90625 48.390625 20.390625 44.140625 
Q 15.875 39.890625 15.1875 32.171875 
z
" id="DejaVuSans-101"/>
      <path d="M 52 44.1875 
Q 55.375 50.25 60.0625 53.125 
Q 64.75 56 71.09375 56 
Q 79.640625 56 84.28125 50.015625 
Q 88.921875 44.046875 88.921875 33.015625 
L 88.921875 0 
L 79.890625 0 
L 79.890625 32.71875 
Q 79.890625 40.578125 77.09375 44.375 
Q 74.3125 48.1875 68.609375 48.1875 
Q 61.625 48.1875 57.5625 43.546875 
Q 53.515625 38.921875 53.515625 30.90625 
L 53.515625 0 
L 44.484375 0 
L 44.484375 32.71875 
Q 44.484375 40.625 41.703125 44.40625 
Q 38.921875 48.1875 33.109375 48.1875 
Q 26.21875 48.1875 22.15625 43.53125 
Q 18.109375 38.875 18.109375 30.90625 
L 18.109375 0 
L 9.078125 0 
L 9.078125 54.6875 
L 18.109375 54.6875 
L 18.109375 46.1875 
Q 21.1875 51.21875 25.484375 53.609375 
Q 29.78125 56 35.6875 56 
Q 41.65625 56 45.828125 52.96875 
Q 50 49.953125 52 44.1875 
z
" id="DejaVuSans-109"/>
      <path d="M 54.890625 33.015625 
L 54.890625 0 
L 45.90625 0 
L 45.90625 32.71875 
Q 45.90625 40.484375 42.875 44.328125 
Q 39.84375 48.1875 33.796875 48.1875 
Q 26.515625 48.1875 22.3125 43.546875 
Q 18.109375 38.921875 18.109375 30.90625 
L 18.109375 0 
L 9.078125 0 
L 9.078125 54.6875 
L 18.109375 54.6875 
L 18.109375 46.1875 
Q 21.34375 51.125 25.703125 53.5625 
Q 30.078125 56 35.796875 56 
Q 45.21875 56 50.046875 50.171875 
Q 54.890625 44.34375 54.890625 33.015625 
z
" id="DejaVuSans-110"/>
      <path d="M 8.5 21.578125 
L 8.5 54.6875 
L 17.484375 54.6875 
L 17.484375 21.921875 
Q 17.484375 14.15625 20.5 10.265625 
Q 23.53125 6.390625 29.59375 6.390625 
Q 36.859375 6.390625 41.078125 11.03125 
Q 45.3125 15.671875 45.3125 23.6875 
L 45.3125 54.6875 
L 54.296875 54.6875 
L 54.296875 0 
L 45.3125 0 
L 45.3125 8.40625 
Q 42.046875 3.421875 37.71875 1 
Q 33.40625 -1.421875 27.6875 -1.421875 
Q 18.265625 -1.421875 13.375 4.4375 
Q 8.5 10.296875 8.5 21.578125 
z
M 31.109375 56 
z
" id="DejaVuSans-117"/>
     </defs>
     <g transform="translate(456.919063 59.237813)scale(0.14 -0.14)">
      <use xlink:href="#DejaVuSans-115"/>
      <use x="52.099609" xlink:href="#DejaVuSans-105"/>
      <use x="79.882812" xlink:href="#DejaVuSans-100"/>
      <use x="143.359375" xlink:href="#DejaVuSans-101"/>
      <use x="204.882812" xlink:href="#DejaVuSans-109"/>
      <use x="302.294922" xlink:href="#DejaVuSans-101"/>
      <use x="363.818359" xlink:href="#DejaVuSans-110"/>
      <use x="427.197266" xlink:href="#DejaVuSans-117"/>
     </g>
    </g>
    <g id="patch_6">
     <path d="M 417.719063 79.787188 
L 445.719063 79.787188 
L 445.719063 69.987188 
L 417.719063 69.987188 
z
" style="fill:#36a2eb;opacity:0.5;stroke:#36a2eb;stroke-linejoin:miter;"/>
    </g>
    <g id="text_2">
     <!-- tabbar -->
     <defs>
      <path d="M 18.3125 70.21875 
L 18.3125 54.6875 
L 36.8125 54.6875 
L 36.8125 47.703125 
L 18.3125 47.703125 
L 18.3125 18.015625 
Q 18.3125 11.328125 20.140625 9.421875 
Q 21.96875 7.515625 27.59375 7.515625 
L 36.8125 7.515625 
L 36.8125 0 
L 27.59375 0 
Q 17.1875 0 13.234375 3.875 
Q 9.28125 7.765625 9.28125 18.015625 
L 9.28125 47.703125 
L 2.6875 47.703125 
L 2.6875 54.6875 
L 9.28125 54.6875 
L 9.28125 70.21875 
z
" id="DejaVuSans-116"/>
      <path d="M 34.28125 27.484375 
Q 23.390625 27.484375 19.1875 25 
Q 14.984375 22.515625 14.984375 16.5 
Q 14.984375 11.71875 18.140625 8.90625 
Q 21.296875 6.109375 26.703125 6.109375 
Q 34.1875 6.109375 38.703125 11.40625 
Q 43.21875 16.703125 43.21875 25.484375 
L 43.21875 27.484375 
z
M 52.203125 31.203125 
L 52.203125 0 
L 43.21875 0 
L 43.21875 8.296875 
Q 40.140625 3.328125 35.546875 0.953125 
Q 30.953125 -1.421875 24.3125 -1.421875 
Q 15.921875 -1.421875 10.953125 3.296875 
Q 6 8.015625 6 15.921875 
Q 6 25.140625 12.171875 29.828125 
Q 18.359375 34.515625 30.609375 34.515625 
L 43.21875 34.515625 
L 43.21875 35.40625 
Q 43.21875 41.609375 39.140625 45 
Q 35.0625 48.390625 27.6875 48.390625 
Q 23 48.390625 18.546875 47.265625 
Q 14.109375 46.140625 10.015625 43.890625 
L 10.015625 52.203125 
Q 14.9375 54.109375 19.578125 55.046875 
Q 24.21875 56 28.609375 56 
Q 40.484375 56 46.34375 49.84375 
Q 52.203125 43.703125 52.203125 31.203125 
z
" id="DejaVuSans-97"/>
      <path d="M 48.6875 27.296875 
Q 48.6875 37.203125 44.609375 42.84375 
Q 40.53125 48.484375 33.40625 48.484375 
Q 26.265625 48.484375 22.1875 42.84375 
Q 18.109375 37.203125 18.109375 27.296875 
Q 18.109375 17.390625 22.1875 11.75 
Q 26.265625 6.109375 33.40625 6.109375 
Q 40.53125 6.109375 44.609375 11.75 
Q 48.6875 17.390625 48.6875 27.296875 
z
M 18.109375 46.390625 
Q 20.953125 51.265625 25.265625 53.625 
Q 29.59375 56 35.59375 56 
Q 45.5625 56 51.78125 48.09375 
Q 58.015625 40.1875 58.015625 27.296875 
Q 58.015625 14.40625 51.78125 6.484375 
Q 45.5625 -1.421875 35.59375 -1.421875 
Q 29.59375 -1.421875 25.265625 0.953125 
Q 20.953125 3.328125 18.109375 8.203125 
L 18.109375 0 
L 9.078125 0 
L 9.078125 75.984375 
L 18.109375 75.984375 
z
" id="DejaVuSans-98"/>
      <path d="M 41.109375 46.296875 
Q 39.59375 47.171875 37.8125 47.578125 
Q 36.03125 48 33.890625 48 
Q 26.265625 48 22.1875 43.046875 
Q 18.109375 38.09375 18.109375 28.8125 
L 18.109375 0 
L 9.078125 0 
L 9.078125 54.6875 
L 18.109375 54.6875 
L 18.109375 46.1875 
Q 20.953125 51.171875 25.484375 53.578125 
Q 30.03125 56 36.53125 56 
Q 37.453125 56 38.578125 55.875 
Q 39.703125 55.765625 41.0625 55.515625 
z
" id="DejaVuSans-114"/>
     </defs>
     <g transform="translate(456.919063 79.787188)scale(0.14 -0.14)">
      <use xlink:href="#DejaVuSans-116"/>
      <use x="39.208984" xlink:href="#DejaVuSans-97"/>
      <use x="100.488281" xlink:href="#DejaVuSans-98"/>
      <use x="163.964844" xlink:href="#DejaVuSans-98"/>
      <use x="227.441406" xlink:href="#DejaVuSans-97"/>
      <use x="288.720703" xlink:href="#DejaVuSans-114"/>
     </g>
    </g>
   </g>
  </g>
  <g id="axes_2">
   <g id="patch_7">
    <path d="M 36 525.24 
L 538.2 525.24 
L 538.2 402.93 
L 36 402.93 
z
" style="fill:none;"/>
   </g>
   <g id="patch_8">
    <path clip-path="url(#p5581aeac68)" d="M 175.246364 519.680455 
L 398.953636 519.680455 
L 398.953636 482.616818 
L 175.246364 482.616818 
z
" style="fill:#ff6384;opacity:0.5;"/>
   </g>
   <g id="patch_9">
    <path clip-path="url(#p5581aeac68)" d="M 183.470275 445.553182 
L 371.293552 445.553182 
L 371.293552 408.489545 
L 183.470275 408.489545 
z
" style="fill:#36a2eb;opacity:0.5;"/>
   </g>
   <g id="matplotlib.axis_1">
    <g id="xtick_1">
     <g id="line2d_3">
      <defs>
       <path d="M 0 0 
L 0 3.5 
" id="mda565a4702" style="stroke:#000000;stroke-width:0.8;"/>
      </defs>
      <g>
       <use style="stroke:#000000;stroke-width:0.8;" x="51.89308" xlink:href="#mda565a4702" y="525.24"/>
      </g>
     </g>
     <g id="text_3">
      <!-- 3.7 -->
      <defs>
       <path d="M 40.578125 39.3125 
Q 47.65625 37.796875 51.625 33 
Q 55.609375 28.21875 55.609375 21.1875 
Q 55.609375 10.40625 48.1875 4.484375 
Q 40.765625 -1.421875 27.09375 -1.421875 
Q 22.515625 -1.421875 17.65625 -0.515625 
Q 12.796875 0.390625 7.625 2.203125 
L 7.625 11.71875 
Q 11.71875 9.328125 16.59375 8.109375 
Q 21.484375 6.890625 26.8125 6.890625 
Q 36.078125 6.890625 40.9375 10.546875 
Q 45.796875 14.203125 45.796875 21.1875 
Q 45.796875 27.640625 41.28125 31.265625 
Q 36.765625 34.90625 28.71875 34.90625 
L 20.21875 34.90625 
L 20.21875 43.015625 
L 29.109375 43.015625 
Q 36.375 43.015625 40.234375 45.921875 
Q 44.09375 48.828125 44.09375 54.296875 
Q 44.09375 59.90625 40.109375 62.90625 
Q 36.140625 65.921875 28.71875 65.921875 
Q 24.65625 65.921875 20.015625 65.03125 
Q 15.375 64.15625 9.8125 62.3125 
L 9.8125 71.09375 
Q 15.4375 72.65625 20.34375 73.4375 
Q 25.25 74.21875 29.59375 74.21875 
Q 40.828125 74.21875 47.359375 69.109375 
Q 53.90625 64.015625 53.90625 55.328125 
Q 53.90625 49.265625 50.4375 45.09375 
Q 46.96875 40.921875 40.578125 39.3125 
z
" id="DejaVuSans-51"/>
       <path d="M 10.6875 12.40625 
L 21 12.40625 
L 21 0 
L 10.6875 0 
z
" id="DejaVuSans-46"/>
       <path d="M 8.203125 72.90625 
L 55.078125 72.90625 
L 55.078125 68.703125 
L 28.609375 0 
L 18.3125 0 
L 43.21875 64.59375 
L 8.203125 64.59375 
z
" id="DejaVuSans-55"/>
      </defs>
      <g transform="translate(40.760892 542.877813)scale(0.14 -0.14)">
       <use xlink:href="#DejaVuSans-51"/>
       <use x="63.623047" xlink:href="#DejaVuSans-46"/>
       <use x="95.410156" xlink:href="#DejaVuSans-55"/>
      </g>
     </g>
    </g>
    <g id="xtick_2">
     <g id="line2d_4">
      <g>
       <use style="stroke:#000000;stroke-width:0.8;" x="124.961399" xlink:href="#mda565a4702" y="525.24"/>
      </g>
     </g>
     <g id="text_4">
      <!-- 3.8 -->
      <defs>
       <path d="M 31.78125 34.625 
Q 24.75 34.625 20.71875 30.859375 
Q 16.703125 27.09375 16.703125 20.515625 
Q 16.703125 13.921875 20.71875 10.15625 
Q 24.75 6.390625 31.78125 6.390625 
Q 38.8125 6.390625 42.859375 10.171875 
Q 46.921875 13.96875 46.921875 20.515625 
Q 46.921875 27.09375 42.890625 30.859375 
Q 38.875 34.625 31.78125 34.625 
z
M 21.921875 38.8125 
Q 15.578125 40.375 12.03125 44.71875 
Q 8.5 49.078125 8.5 55.328125 
Q 8.5 64.0625 14.71875 69.140625 
Q 20.953125 74.21875 31.78125 74.21875 
Q 42.671875 74.21875 48.875 69.140625 
Q 55.078125 64.0625 55.078125 55.328125 
Q 55.078125 49.078125 51.53125 44.71875 
Q 48 40.375 41.703125 38.8125 
Q 48.828125 37.15625 52.796875 32.3125 
Q 56.78125 27.484375 56.78125 20.515625 
Q 56.78125 9.90625 50.3125 4.234375 
Q 43.84375 -1.421875 31.78125 -1.421875 
Q 19.734375 -1.421875 13.25 4.234375 
Q 6.78125 9.90625 6.78125 20.515625 
Q 6.78125 27.484375 10.78125 32.3125 
Q 14.796875 37.15625 21.921875 38.8125 
z
M 18.3125 54.390625 
Q 18.3125 48.734375 21.84375 45.5625 
Q 25.390625 42.390625 31.78125 42.390625 
Q 38.140625 42.390625 41.71875 45.5625 
Q 45.3125 48.734375 45.3125 54.390625 
Q 45.3125 60.0625 41.71875 63.234375 
Q 38.140625 66.40625 31.78125 66.40625 
Q 25.390625 66.40625 21.84375 63.234375 
Q 18.3125 60.0625 18.3125 54.390625 
z
" id="DejaVuSans-56"/>
      </defs>
      <g transform="translate(113.829212 542.877813)scale(0.14 -0.14)">
       <use xlink:href="#DejaVuSans-51"/>
       <use x="63.623047" xlink:href="#DejaVuSans-46"/>
       <use x="95.410156" xlink:href="#DejaVuSans-56"/>
      </g>
     </g>
    </g>
    <g id="xtick_3">
     <g id="line2d_5">
      <g>
       <use style="stroke:#000000;stroke-width:0.8;" x="198.029719" xlink:href="#mda565a4702" y="525.24"/>
      </g>
     </g>
     <g id="text_5">
      <!-- 3.9 -->
      <defs>
       <path d="M 10.984375 1.515625 
L 10.984375 10.5 
Q 14.703125 8.734375 18.5 7.8125 
Q 22.3125 6.890625 25.984375 6.890625 
Q 35.75 6.890625 40.890625 13.453125 
Q 46.046875 20.015625 46.78125 33.40625 
Q 43.953125 29.203125 39.59375 26.953125 
Q 35.25 24.703125 29.984375 24.703125 
Q 19.046875 24.703125 12.671875 31.3125 
Q 6.296875 37.9375 6.296875 49.421875 
Q 6.296875 60.640625 12.9375 67.421875 
Q 19.578125 74.21875 30.609375 74.21875 
Q 43.265625 74.21875 49.921875 64.515625 
Q 56.59375 54.828125 56.59375 36.375 
Q 56.59375 19.140625 48.40625 8.859375 
Q 40.234375 -1.421875 26.421875 -1.421875 
Q 22.703125 -1.421875 18.890625 -0.6875 
Q 15.09375 0.046875 10.984375 1.515625 
z
M 30.609375 32.421875 
Q 37.25 32.421875 41.125 36.953125 
Q 45.015625 41.5 45.015625 49.421875 
Q 45.015625 57.28125 41.125 61.84375 
Q 37.25 66.40625 30.609375 66.40625 
Q 23.96875 66.40625 20.09375 61.84375 
Q 16.21875 57.28125 16.21875 49.421875 
Q 16.21875 41.5 20.09375 36.953125 
Q 23.96875 32.421875 30.609375 32.421875 
z
" id="DejaVuSans-57"/>
      </defs>
      <g transform="translate(186.897531 542.877813)scale(0.14 -0.14)">
       <use xlink:href="#DejaVuSans-51"/>
       <use x="63.623047" xlink:href="#DejaVuSans-46"/>
       <use x="95.410156" xlink:href="#DejaVuSans-57"/>
      </g>
     </g>
    </g>
    <g id="xtick_4">
     <g id="line2d_6">
      <g>
       <use style="stroke:#000000;stroke-width:0.8;" x="271.098038" xlink:href="#mda565a4702" y="525.24"/>
      </g>
     </g>
     <g id="text_6">
      <!-- 4.0 -->
      <defs>
       <path d="M 37.796875 64.3125 
L 12.890625 25.390625 
L 37.796875 25.390625 
z
M 35.203125 72.90625 
L 47.609375 72.90625 
L 47.609375 25.390625 
L 58.015625 25.390625 
L 58.015625 17.1875 
L 47.609375 17.1875 
L 47.609375 0 
L 37.796875 0 
L 37.796875 17.1875 
L 4.890625 17.1875 
L 4.890625 26.703125 
z
" id="DejaVuSans-52"/>
       <path d="M 31.78125 66.40625 
Q 24.171875 66.40625 20.328125 58.90625 
Q 16.5 51.421875 16.5 36.375 
Q 16.5 21.390625 20.328125 13.890625 
Q 24.171875 6.390625 31.78125 6.390625 
Q 39.453125 6.390625 43.28125 13.890625 
Q 47.125 21.390625 47.125 36.375 
Q 47.125 51.421875 43.28125 58.90625 
Q 39.453125 66.40625 31.78125 66.40625 
z
M 31.78125 74.21875 
Q 44.046875 74.21875 50.515625 64.515625 
Q 56.984375 54.828125 56.984375 36.375 
Q 56.984375 17.96875 50.515625 8.265625 
Q 44.046875 -1.421875 31.78125 -1.421875 
Q 19.53125 -1.421875 13.0625 8.265625 
Q 6.59375 17.96875 6.59375 36.375 
Q 6.59375 54.828125 13.0625 64.515625 
Q 19.53125 74.21875 31.78125 74.21875 
z
" id="DejaVuSans-48"/>
      </defs>
      <g transform="translate(259.965851 542.877813)scale(0.14 -0.14)">
       <use xlink:href="#DejaVuSans-52"/>
       <use x="63.623047" xlink:href="#DejaVuSans-46"/>
       <use x="95.410156" xlink:href="#DejaVuSans-48"/>
      </g>
     </g>
    </g>
    <g id="xtick_5">
     <g id="line2d_7">
      <g>
       <use style="stroke:#000000;stroke-width:0.8;" x="344.166357" xlink:href="#mda565a4702" y="525.24"/>
      </g>
     </g>
     <g id="text_7">
      <!-- 4.1 -->
      <defs>
       <path d="M 12.40625 8.296875 
L 28.515625 8.296875 
L 28.515625 63.921875 
L 10.984375 60.40625 
L 10.984375 69.390625 
L 28.421875 72.90625 
L 38.28125 72.90625 
L 38.28125 8.296875 
L 54.390625 8.296875 
L 54.390625 0 
L 12.40625 0 
z
" id="DejaVuSans-49"/>
      </defs>
      <g transform="translate(333.03417 542.877813)scale(0.14 -0.14)">
       <use xlink:href="#DejaVuSans-52"/>
       <use x="63.623047" xlink:href="#DejaVuSans-46"/>
       <use x="95.410156" xlink:href="#DejaVuSans-49"/>
      </g>
     </g>
    </g>
    <g id="xtick_6">
     <g id="line2d_8">
      <g>
       <use style="stroke:#000000;stroke-width:0.8;" x="417.234677" xlink:href="#mda565a4702" y="525.24"/>
      </g>
     </g>
     <g id="text_8">
      <!-- 4.2 -->
      <defs>
       <path d="M 19.1875 8.296875 
L 53.609375 8.296875 
L 53.609375 0 
L 7.328125 0 
L 7.328125 8.296875 
Q 12.9375 14.109375 22.625 23.890625 
Q 32.328125 33.6875 34.8125 36.53125 
Q 39.546875 41.84375 41.421875 45.53125 
Q 43.3125 49.21875 43.3125 52.78125 
Q 43.3125 58.59375 39.234375 62.25 
Q 35.15625 65.921875 28.609375 65.921875 
Q 23.96875 65.921875 18.8125 64.3125 
Q 13.671875 62.703125 7.8125 59.421875 
L 7.8125 69.390625 
Q 13.765625 71.78125 18.9375 73 
Q 24.125 74.21875 28.421875 74.21875 
Q 39.75 74.21875 46.484375 68.546875 
Q 53.21875 62.890625 53.21875 53.421875 
Q 53.21875 48.921875 51.53125 44.890625 
Q 49.859375 40.875 45.40625 35.40625 
Q 44.1875 33.984375 37.640625 27.21875 
Q 31.109375 20.453125 19.1875 8.296875 
z
" id="DejaVuSans-50"/>
      </defs>
      <g transform="translate(406.102489 542.877813)scale(0.14 -0.14)">
       <use xlink:href="#DejaVuSans-52"/>
       <use x="63.623047" xlink:href="#DejaVuSans-46"/>
       <use x="95.410156" xlink:href="#DejaVuSans-50"/>
      </g>
     </g>
    </g>
    <g id="xtick_7">
     <g id="line2d_9">
      <g>
       <use style="stroke:#000000;stroke-width:0.8;" x="490.302996" xlink:href="#mda565a4702" y="525.24"/>
      </g>
     </g>
     <g id="text_9">
      <!-- 4.3 -->
      <g transform="translate(479.170809 542.877813)scale(0.14 -0.14)">
       <use xlink:href="#DejaVuSans-52"/>
       <use x="63.623047" xlink:href="#DejaVuSans-46"/>
       <use x="95.410156" xlink:href="#DejaVuSans-51"/>
      </g>
     </g>
    </g>
   </g>
   <g id="line2d_10">
    <path clip-path="url(#p5581aeac68)" d="M 287.1 525.24 
L 287.1 402.93 
" style="fill:none;stroke:#ff6384;stroke-dasharray:5.55,2.4;stroke-dashoffset:0;stroke-opacity:0.8;stroke-width:1.5;"/>
   </g>
   <g id="line2d_11">
    <path clip-path="url(#p5581aeac68)" d="M 277.381914 525.24 
L 277.381914 402.93 
" style="fill:none;stroke:#36a2eb;stroke-dasharray:5.55,2.4;stroke-dashoffset:0;stroke-opacity:0.8;stroke-width:1.5;"/>
   </g>
   <g id="patch_10">
    <path d="M 36 525.24 
L 538.2 525.24 
" style="fill:none;stroke:#000000;stroke-linecap:square;stroke-linejoin:miter;stroke-width:0.8;"/>
   </g>
  </g>
 </g>
 <defs>
  <clipPath id="p2dd1300225">
   <rect height="366.93" width="502.2" x="36" y="36"/>
  </clipPath>
  <clipPath id="p5581aeac68">
   <rect height="122.31" width="502.2" x="36" y="402.93"/>
  </clipPath>
 </defs>
</svg>
