<?xml version="1.0" encoding="utf-8" standalone="no"?>
<!DOCTYPE svg PUBLIC "-//W3C//DTD SVG 1.1//EN"
  "http://www.w3.org/Graphics/SVG/1.1/DTD/svg11.dtd">
<!-- Created with matplotlib (https://matplotlib.org/) -->
<svg height="581.789375pt" version="1.1" viewBox="0 0 574.2 581.789375" width="574.2pt" xmlns="http://www.w3.org/2000/svg" xmlns:xlink="http://www.w3.org/1999/xlink">
 <defs>
  <style type="text/css">
*{stroke-linecap:butt;stroke-linejoin:round;}
  </style>
 </defs>
 <g id="figure_1">
  <g id="patch_1">
   <path d="M 0 581.789375 
L 574.2 581.789375 
L 574.2 0 
L 0 0 
z
" style="fill:none;"/>
  </g>
  <g id="axes_1">
   <g id="patch_2">
    <path d="M 36 402.93 
L 538.2 402.93 
L 538.2 36 
L 36 36 
z
" style="fill:none;"/>
   </g>
   <g id="PolyCollection_1">
    <defs>
     <path d="M 58.827273 -195.538011 
L 58.827273 -195.644687 
L 63.300046 -195.684913 
L 67.772819 -195.73899 
L 72.245592 -195.811185 
L 76.718364 -195.906896 
L 81.191137 -196.032899 
L 85.66391 -196.197622 
L 90.136683 -196.411449 
L 94.609456 -196.687066 
L 99.082229 -197.039815 
L 103.555002 -197.488081 
L 108.027775 -198.053665 
L 112.500548 -198.762166 
L 116.973321 -199.643311 
L 121.446094 -200.731246 
L 125.918867 -202.064733 
L 130.39164 -203.687238 
L 134.864413 -205.646861 
L 139.337185 -207.996092 
L 143.809958 -210.791341 
L 148.282731 -214.092211 
L 152.755504 -217.960504 
L 157.228277 -222.458916 
L 161.70105 -227.649428 
L 166.173823 -233.591404 
L 170.646596 -240.339389 
L 175.119369 -247.940683 
L 179.592142 -256.432723 
L 184.064915 -265.840356 
L 188.537688 -276.173109 
L 193.010461 -287.422565 
L 197.483234 -299.559958 
L 201.956007 -312.53415 
L 206.428779 -326.270088 
L 210.901552 -340.667903 
L 215.374325 -355.602748 
L 219.847098 -370.925471 
L 224.319871 -386.464194 
L 228.792644 -402.026822 
L 233.265417 -417.404463 
L 237.73819 -432.37571 
L 242.210963 -446.711679 
L 246.683736 -460.181653 
L 251.156509 -472.559144 
L 255.629282 -483.628166 
L 260.102055 -493.18947 
L 264.574828 -501.066486 
L 269.0476 -507.110749 
L 273.520373 -511.206543 
L 277.993146 -513.274586 
L 282.465919 -513.274586 
L 286.938692 -511.206543 
L 291.411465 -507.110749 
L 295.884238 -501.066486 
L 300.357011 -493.18947 
L 304.829784 -483.628166 
L 309.302557 -472.559144 
L 313.77533 -460.181653 
L 318.248103 -446.711679 
L 322.720876 -432.37571 
L 327.193649 -417.404463 
L 331.666422 -402.026822 
L 336.139194 -386.464194 
L 340.611967 -370.925471 
L 345.08474 -355.602748 
L 349.557513 -340.667903 
L 354.030286 -326.270088 
L 358.503059 -312.53415 
L 362.975832 -299.559958 
L 367.448605 -287.422565 
L 371.921378 -276.173109 
L 376.394151 -265.840356 
L 380.866924 -256.432723 
L 385.339697 -247.940683 
L 389.81247 -240.339389 
L 394.285243 -233.591404 
L 398.758015 -227.649428 
L 403.230788 -222.458916 
L 407.703561 -217.960504 
L 412.176334 -214.092211 
L 416.649107 -210.791341 
L 421.12188 -207.996092 
L 425.594653 -205.646861 
L 430.067426 -203.687238 
L 434.540199 -202.064733 
L 439.012972 -200.731246 
L 443.485745 -199.643311 
L 447.958518 -198.762166 
L 452.431291 -198.053665 
L 456.904064 -197.488081 
L 461.376837 -197.039815 
L 465.849609 -196.687066 
L 470.322382 -196.411449 
L 474.795155 -196.197622 
L 479.267928 -196.032899 
L 483.740701 -195.906896 
L 488.213474 -195.811185 
L 492.686247 -195.73899 
L 497.15902 -195.684913 
L 501.631793 -195.644687 
L 501.631793 -195.538011 
L 501.631793 -195.538011 
L 497.15902 -195.538011 
L 492.686247 -195.538011 
L 488.213474 -195.538011 
L 483.740701 -195.538011 
L 479.267928 -195.538011 
L 474.795155 -195.538011 
L 470.322382 -195.538011 
L 465.849609 -195.538011 
L 461.376837 -195.538011 
L 456.904064 -195.538011 
L 452.431291 -195.538011 
L 447.958518 -195.538011 
L 443.485745 -195.538011 
L 439.012972 -195.538011 
L 434.540199 -195.538011 
L 430.067426 -195.538011 
L 425.594653 -195.538011 
L 421.12188 -195.538011 
L 416.649107 -195.538011 
L 412.176334 -195.538011 
L 407.703561 -195.538011 
L 403.230788 -195.538011 
L 398.758015 -195.538011 
L 394.285243 -195.538011 
L 389.81247 -195.538011 
L 385.339697 -195.538011 
L 380.866924 -195.538011 
L 376.394151 -195.538011 
L 371.921378 -195.538011 
L 367.448605 -195.538011 
L 362.975832 -195.538011 
L 358.503059 -195.538011 
L 354.030286 -195.538011 
L 349.557513 -195.538011 
L 345.08474 -195.538011 
L 340.611967 -195.538011 
L 336.139194 -195.538011 
L 331.666422 -195.538011 
L 327.193649 -195.538011 
L 322.720876 -195.538011 
L 318.248103 -195.538011 
L 313.77533 -195.538011 
L 309.302557 -195.538011 
L 304.829784 -195.538011 
L 300.357011 -195.538011 
L 295.884238 -195.538011 
L 291.411465 -195.538011 
L 286.938692 -195.538011 
L 282.465919 -195.538011 
L 277.993146 -195.538011 
L 273.520373 -195.538011 
L 269.0476 -195.538011 
L 264.574828 -195.538011 
L 260.102055 -195.538011 
L 255.629282 -195.538011 
L 251.156509 -195.538011 
L 246.683736 -195.538011 
L 242.210963 -195.538011 
L 237.73819 -195.538011 
L 233.265417 -195.538011 
L 228.792644 -195.538011 
L 224.319871 -195.538011 
L 219.847098 -195.538011 
L 215.374325 -195.538011 
L 210.901552 -195.538011 
L 206.428779 -195.538011 
L 201.956007 -195.538011 
L 197.483234 -195.538011 
L 193.010461 -195.538011 
L 188.537688 -195.538011 
L 184.064915 -195.538011 
L 179.592142 -195.538011 
L 175.119369 -195.538011 
L 170.646596 -195.538011 
L 166.173823 -195.538011 
L 161.70105 -195.538011 
L 157.228277 -195.538011 
L 152.755504 -195.538011 
L 148.282731 -195.538011 
L 143.809958 -195.538011 
L 139.337185 -195.538011 
L 134.864413 -195.538011 
L 130.39164 -195.538011 
L 125.918867 -195.538011 
L 121.446094 -195.538011 
L 116.973321 -195.538011 
L 112.500548 -195.538011 
L 108.027775 -195.538011 
L 103.555002 -195.538011 
L 99.082229 -195.538011 
L 94.609456 -195.538011 
L 90.136683 -195.538011 
L 85.66391 -195.538011 
L 81.191137 -195.538011 
L 76.718364 -195.538011 
L 72.245592 -195.538011 
L 67.772819 -195.538011 
L 63.300046 -195.538011 
L 58.827273 -195.538011 
z
" id="m3f96a18850" style="stroke:#ff6384;stroke-opacity:0.5;"/>
    </defs>
    <g clip-path="url(#pb81d2faa00)">
     <use style="fill:#ff6384;fill-opacity:0.5;stroke:#ff6384;stroke-opacity:0.5;" x="0" xlink:href="#m3f96a18850" y="581.789375"/>
    </g>
   </g>
   <g id="PolyCollection_2">
    <defs>
     <path d="M 93.590069 -195.538011 
L 93.590069 -195.650004 
L 97.8505 -195.692234 
L 102.110931 -195.749007 
L 106.371362 -195.8248 
L 110.631793 -195.925281 
L 114.892224 -196.057565 
L 119.152655 -196.230497 
L 123.413086 -196.454982 
L 127.673517 -196.744335 
L 131.933947 -197.114666 
L 136.194378 -197.585273 
L 140.454809 -198.179047 
L 144.71524 -198.922859 
L 148.975671 -199.847921 
L 153.236102 -200.990079 
L 157.496533 -202.390029 
L 161.756964 -204.093399 
L 166.017395 -206.150691 
L 170.277825 -208.617009 
L 174.538256 -211.551575 
L 178.798687 -215.016962 
L 183.059118 -219.078053 
L 187.319549 -223.800667 
L 191.57998 -229.249878 
L 195.840411 -235.488004 
L 200.100842 -242.572312 
L 204.361273 -250.552459 
L 208.621703 -259.467747 
L 212.882134 -269.344261 
L 217.142565 -280.192004 
L 221.402996 -292.002137 
L 225.663427 -304.744465 
L 229.923858 -318.365297 
L 234.184289 -332.785841 
L 238.44472 -347.901251 
L 242.705151 -363.580456 
L 246.965581 -379.666871 
L 251.226012 -395.980052 
L 255.486443 -412.31833 
L 259.746874 -428.4624 
L 264.007305 -444.179822 
L 268.267736 -459.230303 
L 272.528167 -473.371627 
L 276.788598 -486.366018 
L 281.049029 -497.986726 
L 285.309459 -508.02457 
L 289.56989 -516.294181 
L 293.830321 -522.639693 
L 298.090752 -526.939623 
L 302.351183 -529.110739 
L 306.611614 -529.110739 
L 310.872045 -526.939623 
L 315.132476 -522.639693 
L 319.392906 -516.294181 
L 323.653337 -508.02457 
L 327.913768 -497.986726 
L 332.174199 -486.366018 
L 336.43463 -473.371627 
L 340.695061 -459.230303 
L 344.955492 -444.179822 
L 349.215923 -428.4624 
L 353.476354 -412.31833 
L 357.736784 -395.980052 
L 361.997215 -379.666871 
L 366.257646 -363.580456 
L 370.518077 -347.901251 
L 374.778508 -332.785841 
L 379.038939 -318.365297 
L 383.29937 -304.744465 
L 387.559801 -292.002137 
L 391.820232 -280.192004 
L 396.080662 -269.344261 
L 400.341093 -259.467747 
L 404.601524 -250.552459 
L 408.861955 -242.572312 
L 413.122386 -235.488004 
L 417.382817 -229.249878 
L 421.643248 -223.800667 
L 425.903679 -219.078053 
L 430.16411 -215.016962 
L 434.42454 -211.551575 
L 438.684971 -208.617009 
L 442.945402 -206.150691 
L 447.205833 -204.093399 
L 451.466264 -202.390029 
L 455.726695 -200.990079 
L 459.987126 -199.847921 
L 464.247557 -198.922859 
L 468.507988 -198.179047 
L 472.768418 -197.585273 
L 477.028849 -197.114666 
L 481.28928 -196.744335 
L 485.549711 -196.454982 
L 489.810142 -196.230497 
L 494.070573 -196.057565 
L 498.331004 -195.925281 
L 502.591435 -195.8248 
L 506.851865 -195.749007 
L 511.112296 -195.692234 
L 515.372727 -195.650004 
L 515.372727 -195.538011 
L 515.372727 -195.538011 
L 511.112296 -195.538011 
L 506.851865 -195.538011 
L 502.591435 -195.538011 
L 498.331004 -195.538011 
L 494.070573 -195.538011 
L 489.810142 -195.538011 
L 485.549711 -195.538011 
L 481.28928 -195.538011 
L 477.028849 -195.538011 
L 472.768418 -195.538011 
L 468.507988 -195.538011 
L 464.247557 -195.538011 
L 459.987126 -195.538011 
L 455.726695 -195.538011 
L 451.466264 -195.538011 
L 447.205833 -195.538011 
L 442.945402 -195.538011 
L 438.684971 -195.538011 
L 434.42454 -195.538011 
L 430.16411 -195.538011 
L 425.903679 -195.538011 
L 421.643248 -195.538011 
L 417.382817 -195.538011 
L 413.122386 -195.538011 
L 408.861955 -195.538011 
L 404.601524 -195.538011 
L 400.341093 -195.538011 
L 396.080662 -195.538011 
L 391.820232 -195.538011 
L 387.559801 -195.538011 
L 383.29937 -195.538011 
L 379.038939 -195.538011 
L 374.778508 -195.538011 
L 370.518077 -195.538011 
L 366.257646 -195.538011 
L 361.997215 -195.538011 
L 357.736784 -195.538011 
L 353.476354 -195.538011 
L 349.215923 -195.538011 
L 344.955492 -195.538011 
L 340.695061 -195.538011 
L 336.43463 -195.538011 
L 332.174199 -195.538011 
L 327.913768 -195.538011 
L 323.653337 -195.538011 
L 319.392906 -195.538011 
L 315.132476 -195.538011 
L 310.872045 -195.538011 
L 306.611614 -195.538011 
L 302.351183 -195.538011 
L 298.090752 -195.538011 
L 293.830321 -195.538011 
L 289.56989 -195.538011 
L 285.309459 -195.538011 
L 281.049029 -195.538011 
L 276.788598 -195.538011 
L 272.528167 -195.538011 
L 268.267736 -195.538011 
L 264.007305 -195.538011 
L 259.746874 -195.538011 
L 255.486443 -195.538011 
L 251.226012 -195.538011 
L 246.965581 -195.538011 
L 242.705151 -195.538011 
L 238.44472 -195.538011 
L 234.184289 -195.538011 
L 229.923858 -195.538011 
L 225.663427 -195.538011 
L 221.402996 -195.538011 
L 217.142565 -195.538011 
L 212.882134 -195.538011 
L 208.621703 -195.538011 
L 204.361273 -195.538011 
L 200.100842 -195.538011 
L 195.840411 -195.538011 
L 191.57998 -195.538011 
L 187.319549 -195.538011 
L 183.059118 -195.538011 
L 178.798687 -195.538011 
L 174.538256 -195.538011 
L 170.277825 -195.538011 
L 166.017395 -195.538011 
L 161.756964 -195.538011 
L 157.496533 -195.538011 
L 153.236102 -195.538011 
L 148.975671 -195.538011 
L 144.71524 -195.538011 
L 140.454809 -195.538011 
L 136.194378 -195.538011 
L 131.933947 -195.538011 
L 127.673517 -195.538011 
L 123.413086 -195.538011 
L 119.152655 -195.538011 
L 114.892224 -195.538011 
L 110.631793 -195.538011 
L 106.371362 -195.538011 
L 102.110931 -195.538011 
L 97.8505 -195.538011 
L 93.590069 -195.538011 
z
" id="maee630f9c5" style="stroke:#36a2eb;stroke-opacity:0.5;"/>
    </defs>
    <g clip-path="url(#pb81d2faa00)">
     <use style="fill:#36a2eb;fill-opacity:0.5;stroke:#36a2eb;stroke-opacity:0.5;" x="0" xlink:href="#maee630f9c5" y="581.789375"/>
    </g>
   </g>
   <g id="line2d_1">
    <path clip-path="url(#pb81d2faa00)" d="M 58.827273 386.144688 
L 63.300046 386.104462 
L 67.772819 386.050385 
L 72.245592 385.97819 
L 76.718364 385.882479 
L 81.191137 385.756476 
L 85.66391 385.591753 
L 90.136683 385.377926 
L 94.609456 385.102309 
L 99.082229 384.74956 
L 103.555002 384.301294 
L 108.027775 383.73571 
L 112.500548 383.027209 
L 116.973321 382.146064 
L 121.446094 381.058129 
L 125.918867 379.724642 
L 130.39164 378.102137 
L 134.864413 376.142514 
L 139.337185 373.793283 
L 143.809958 370.998034 
L 148.282731 367.697164 
L 152.755504 363.828871 
L 157.228277 359.330459 
L 161.70105 354.139947 
L 166.173823 348.197971 
L 170.646596 341.449986 
L 175.119369 333.848692 
L 179.592142 325.356652 
L 184.064915 315.949019 
L 188.537688 305.616266 
L 193.010461 294.36681 
L 197.483234 282.229417 
L 201.956007 269.255225 
L 206.428779 255.519287 
L 210.901552 241.121472 
L 215.374325 226.186627 
L 219.847098 210.863904 
L 224.319871 195.325181 
L 228.792644 179.762553 
L 233.265417 164.384912 
L 237.73819 149.413665 
L 242.210963 135.077696 
L 246.683736 121.607722 
L 251.156509 109.230231 
L 255.629282 98.161209 
L 260.102055 88.599905 
L 264.574828 80.722889 
L 269.0476 74.678626 
L 273.520373 70.582832 
L 277.993146 68.514789 
L 282.465919 68.514789 
L 286.938692 70.582832 
L 291.411465 74.678626 
L 295.884238 80.722889 
L 300.357011 88.599905 
L 304.829784 98.161209 
L 309.302557 109.230231 
L 313.77533 121.607722 
L 318.248103 135.077696 
L 322.720876 149.413665 
L 327.193649 164.384912 
L 331.666422 179.762553 
L 336.139194 195.325181 
L 340.611967 210.863904 
L 345.08474 226.186627 
L 349.557513 241.121472 
L 354.030286 255.519287 
L 358.503059 269.255225 
L 362.975832 282.229417 
L 367.448605 294.36681 
L 371.921378 305.616266 
L 376.394151 315.949019 
L 380.866924 325.356652 
L 385.339697 333.848692 
L 389.81247 341.449986 
L 394.285243 348.197971 
L 398.758015 354.139947 
L 403.230788 359.330459 
L 407.703561 363.828871 
L 412.176334 367.697164 
L 416.649107 370.998034 
L 421.12188 373.793283 
L 425.594653 376.142514 
L 430.067426 378.102137 
L 434.540199 379.724642 
L 439.012972 381.058129 
L 443.485745 382.146064 
L 447.958518 383.027209 
L 452.431291 383.73571 
L 456.904064 384.301294 
L 461.376837 384.74956 
L 465.849609 385.102309 
L 470.322382 385.377926 
L 474.795155 385.591753 
L 479.267928 385.756476 
L 483.740701 385.882479 
L 488.213474 385.97819 
L 492.686247 386.050385 
L 497.15902 386.104462 
L 501.631793 386.144688 
" style="fill:none;stroke:#ff6384;stroke-linecap:square;"/>
   </g>
   <g id="line2d_2">
    <path clip-path="url(#pb81d2faa00)" d="M 93.590069 386.139371 
L 97.8505 386.097141 
L 102.110931 386.040368 
L 106.371362 385.964575 
L 110.631793 385.864094 
L 114.892224 385.73181 
L 119.152655 385.558878 
L 123.413086 385.334393 
L 127.673517 385.04504 
L 131.933947 384.674709 
L 136.194378 384.204102 
L 140.454809 383.610328 
L 144.71524 382.866516 
L 148.975671 381.941454 
L 153.236102 380.799296 
L 157.496533 379.399346 
L 161.756964 377.695976 
L 166.017395 375.638684 
L 170.277825 373.172366 
L 174.538256 370.2378 
L 178.798687 366.772413 
L 183.059118 362.711322 
L 187.319549 357.988708 
L 191.57998 352.539497 
L 195.840411 346.301371 
L 200.100842 339.217063 
L 204.361273 331.236916 
L 208.621703 322.321628 
L 212.882134 312.445114 
L 217.142565 301.597371 
L 221.402996 289.787238 
L 225.663427 277.04491 
L 229.923858 263.424078 
L 234.184289 249.003534 
L 238.44472 233.888124 
L 242.705151 218.208919 
L 246.965581 202.122504 
L 251.226012 185.809323 
L 255.486443 169.471045 
L 259.746874 153.326975 
L 264.007305 137.609553 
L 268.267736 122.559072 
L 272.528167 108.417748 
L 276.788598 95.423357 
L 281.049029 83.802649 
L 285.309459 73.764805 
L 289.56989 65.495194 
L 293.830321 59.149682 
L 298.090752 54.849752 
L 302.351183 52.678636 
L 306.611614 52.678636 
L 310.872045 54.849752 
L 315.132476 59.149682 
L 319.392906 65.495194 
L 323.653337 73.764805 
L 327.913768 83.802649 
L 332.174199 95.423357 
L 336.43463 108.417748 
L 340.695061 122.559072 
L 344.955492 137.609553 
L 349.215923 153.326975 
L 353.476354 169.471045 
L 357.736784 185.809323 
L 361.997215 202.122504 
L 366.257646 218.208919 
L 370.518077 233.888124 
L 374.778508 249.003534 
L 379.038939 263.424078 
L 383.29937 277.04491 
L 387.559801 289.787238 
L 391.820232 301.597371 
L 396.080662 312.445114 
L 400.341093 322.321628 
L 404.601524 331.236916 
L 408.861955 339.217063 
L 413.122386 346.301371 
L 417.382817 352.539497 
L 421.643248 357.988708 
L 425.903679 362.711322 
L 430.16411 366.772413 
L 434.42454 370.2378 
L 438.684971 373.172366 
L 442.945402 375.638684 
L 447.205833 377.695976 
L 451.466264 379.399346 
L 455.726695 380.799296 
L 459.987126 381.941454 
L 464.247557 382.866516 
L 468.507988 383.610328 
L 472.768418 384.204102 
L 477.028849 384.674709 
L 481.28928 385.04504 
L 485.549711 385.334393 
L 489.810142 385.558878 
L 494.070573 385.73181 
L 498.331004 385.864094 
L 502.591435 385.964575 
L 506.851865 386.040368 
L 511.112296 386.097141 
L 515.372727 386.139371 
" style="fill:none;stroke:#36a2eb;stroke-linecap:square;"/>
   </g>
   <g id="patch_3">
    <path d="M 36 402.93 
L 538.2 402.93 
" style="fill:none;stroke:#000000;stroke-linecap:square;stroke-linejoin:miter;stroke-width:0.8;"/>
   </g>
   <g id="legend_1">
    <g id="patch_4">
     <path d="M 414.919063 88.29875 
L 528.4 88.29875 
Q 531.2 88.29875 531.2 85.49875 
L 531.2 45.8 
Q 531.2 43 528.4 43 
L 414.919063 43 
Q 412.119063 43 412.119063 45.8 
L 412.119063 85.49875 
Q 412.119063 88.29875 414.919063 88.29875 
z
" style="fill:#ffffff;opacity:0.8;stroke:#cccccc;stroke-linejoin:miter;"/>
    </g>
    <g id="patch_5">
     <path d="M 417.719063 59.237813 
L 445.719063 59.237813 
L 445.719063 49.437813 
L 417.719063 49.437813 
z
" style="fill:#ff6384;opacity:0.5;stroke:#ff6384;stroke-linejoin:miter;"/>
    </g>
    <g id="text_1">
     <!-- sidemenu -->
     <defs>
      <path d="M 44.28125 53.078125 
L 44.28125 44.578125 
Q 40.484375 46.53125 36.375 47.5 
Q 32.28125 48.484375 27.875 48.484375 
Q 21.1875 48.484375 17.84375 46.4375 
Q 14.5 44.390625 14.5 40.28125 
Q 14.5 37.15625 16.890625 35.375 
Q 19.28125 33.59375 26.515625 31.984375 
L 29.59375 31.296875 
Q 39.15625 29.25 43.1875 25.515625 
Q 47.21875 21.78125 47.21875 15.09375 
Q 47.21875 7.46875 41.1875 3.015625 
Q 35.15625 -1.421875 24.609375 -1.421875 
Q 20.21875 -1.421875 15.453125 -0.5625 
Q 10.6875 0.296875 5.421875 2 
L 5.421875 11.28125 
Q 10.40625 8.6875 15.234375 7.390625 
Q 20.0625 6.109375 24.8125 6.109375 
Q 31.15625 6.109375 34.5625 8.28125 
Q 37.984375 10.453125 37.984375 14.40625 
Q 37.984375 18.0625 35.515625 20.015625 
Q 33.0625 21.96875 24.703125 23.78125 
L 21.578125 24.515625 
Q 13.234375 26.265625 9.515625 29.90625 
Q 5.8125 33.546875 5.8125 39.890625 
Q 5.8125 47.609375 11.28125 51.796875 
Q 16.75 56 26.8125 56 
Q 31.78125 56 36.171875 55.265625 
Q 40.578125 54.546875 44.28125 53.078125 
z
" id="DejaVuSans-115"/>
      <path d="M 9.421875 54.6875 
L 18.40625 54.6875 
L 18.40625 0 
L 9.421875 0 
z
M 9.421875 75.984375 
L 18.40625 75.984375 
L 18.40625 64.59375 
L 9.421875 64.59375 
z
" id="DejaVuSans-105"/>
      <path d="M 45.40625 46.390625 
L 45.40625 75.984375 
L 54.390625 75.984375 
L 54.390625 0 
L 45.40625 0 
L 45.40625 8.203125 
Q 42.578125 3.328125 38.25 0.953125 
Q 33.9375 -1.421875 27.875 -1.421875 
Q 17.96875 -1.421875 11.734375 6.484375 
Q 5.515625 14.40625 5.515625 27.296875 
Q 5.515625 40.1875 11.734375 48.09375 
Q 17.96875 56 27.875 56 
Q 33.9375 56 38.25 53.625 
Q 42.578125 51.265625 45.40625 46.390625 
z
M 14.796875 27.296875 
Q 14.796875 17.390625 18.875 11.75 
Q 22.953125 6.109375 30.078125 6.109375 
Q 37.203125 6.109375 41.296875 11.75 
Q 45.40625 17.390625 45.40625 27.296875 
Q 45.40625 37.203125 41.296875 42.84375 
Q 37.203125 48.484375 30.078125 48.484375 
Q 22.953125 48.484375 18.875 42.84375 
Q 14.796875 37.203125 14.796875 27.296875 
z
" id="DejaVuSans-100"/>
      <path d="M 56.203125 29.59375 
L 56.203125 25.203125 
L 14.890625 25.203125 
Q 15.484375 15.921875 20.484375 11.0625 
Q 25.484375 6.203125 34.421875 6.203125 
Q 39.59375 6.203125 44.453125 7.46875 
Q 49.3125 8.734375 54.109375 11.28125 
L 54.109375 2.78125 
Q 49.265625 0.734375 44.1875 -0.34375 
Q 39.109375 -1.421875 33.890625 -1.421875 
Q 20.796875 -1.421875 13.15625 6.1875 
Q 5.515625 13.8125 5.515625 26.8125 
Q 5.515625 40.234375 12.765625 48.109375 
Q 20.015625 56 32.328125 56 
Q 43.359375 56 49.78125 48.890625 
Q 56.203125 41.796875 56.203125 29.59375 
z
M 47.21875 32.234375 
Q 47.125 39.59375 43.09375 43.984375 
Q 39.0625 48.390625 32.421875 48.390625 
Q 24.90625 48.390625 20.390625 44.140625 
Q 15.875 39.890625 15.1875 32.171875 
z
" id="DejaVuSans-101"/>
      <path d="M 52 44.1875 
Q 55.375 50.25 60.0625 53.125 
Q 64.75 56 71.09375 56 
Q 79.640625 56 84.28125 50.015625 
Q 88.921875 44.046875 88.921875 33.015625 
L 88.921875 0 
L 79.890625 0 
L 79.890625 32.71875 
Q 79.890625 40.578125 77.09375 44.375 
Q 74.3125 48.1875 68.609375 48.1875 
Q 61.625 48.1875 57.5625 43.546875 
Q 53.515625 38.921875 53.515625 30.90625 
L 53.515625 0 
L 44.484375 0 
L 44.484375 32.71875 
Q 44.484375 40.625 41.703125 44.40625 
Q 38.921875 48.1875 33.109375 48.1875 
Q 26.21875 48.1875 22.15625 43.53125 
Q 18.109375 38.875 18.109375 30.90625 
L 18.109375 0 
L 9.078125 0 
L 9.078125 54.6875 
L 18.109375 54.6875 
L 18.109375 46.1875 
Q 21.1875 51.21875 25.484375 53.609375 
Q 29.78125 56 35.6875 56 
Q 41.65625 56 45.828125 52.96875 
Q 50 49.953125 52 44.1875 
z
" id="DejaVuSans-109"/>
      <path d="M 54.890625 33.015625 
L 54.890625 0 
L 45.90625 0 
L 45.90625 32.71875 
Q 45.90625 40.484375 42.875 44.328125 
Q 39.84375 48.1875 33.796875 48.1875 
Q 26.515625 48.1875 22.3125 43.546875 
Q 18.109375 38.921875 18.109375 30.90625 
L 18.109375 0 
L 9.078125 0 
L 9.078125 54.6875 
L 18.109375 54.6875 
L 18.109375 46.1875 
Q 21.34375 51.125 25.703125 53.5625 
Q 30.078125 56 35.796875 56 
Q 45.21875 56 50.046875 50.171875 
Q 54.890625 44.34375 54.890625 33.015625 
z
" id="DejaVuSans-110"/>
      <path d="M 8.5 21.578125 
L 8.5 54.6875 
L 17.484375 54.6875 
L 17.484375 21.921875 
Q 17.484375 14.15625 20.5 10.265625 
Q 23.53125 6.390625 29.59375 6.390625 
Q 36.859375 6.390625 41.078125 11.03125 
Q 45.3125 15.671875 45.3125 23.6875 
L 45.3125 54.6875 
L 54.296875 54.6875 
L 54.296875 0 
L 45.3125 0 
L 45.3125 8.40625 
Q 42.046875 3.421875 37.71875 1 
Q 33.40625 -1.421875 27.6875 -1.421875 
Q 18.265625 -1.421875 13.375 4.4375 
Q 8.5 10.296875 8.5 21.578125 
z
M 31.109375 56 
z
" id="DejaVuSans-117"/>
     </defs>
     <g transform="translate(456.919063 59.237813)scale(0.14 -0.14)">
      <use xlink:href="#DejaVuSans-115"/>
      <use x="52.099609" xlink:href="#DejaVuSans-105"/>
      <use x="79.882812" xlink:href="#DejaVuSans-100"/>
      <use x="143.359375" xlink:href="#DejaVuSans-101"/>
      <use x="204.882812" xlink:href="#DejaVuSans-109"/>
      <use x="302.294922" xlink:href="#DejaVuSans-101"/>
      <use x="363.818359" xlink:href="#DejaVuSans-110"/>
      <use x="427.197266" xlink:href="#DejaVuSans-117"/>
     </g>
    </g>
    <g id="patch_6">
     <path d="M 417.719063 79.787188 
L 445.719063 79.787188 
L 445.719063 69.987188 
L 417.719063 69.987188 
z
" style="fill:#36a2eb;opacity:0.5;stroke:#36a2eb;stroke-linejoin:miter;"/>
    </g>
    <g id="text_2">
     <!-- tabbar -->
     <defs>
      <path d="M 18.3125 70.21875 
L 18.3125 54.6875 
L 36.8125 54.6875 
L 36.8125 47.703125 
L 18.3125 47.703125 
L 18.3125 18.015625 
Q 18.3125 11.328125 20.140625 9.421875 
Q 21.96875 7.515625 27.59375 7.515625 
L 36.8125 7.515625 
L 36.8125 0 
L 27.59375 0 
Q 17.1875 0 13.234375 3.875 
Q 9.28125 7.765625 9.28125 18.015625 
L 9.28125 47.703125 
L 2.6875 47.703125 
L 2.6875 54.6875 
L 9.28125 54.6875 
L 9.28125 70.21875 
z
" id="DejaVuSans-116"/>
      <path d="M 34.28125 27.484375 
Q 23.390625 27.484375 19.1875 25 
Q 14.984375 22.515625 14.984375 16.5 
Q 14.984375 11.71875 18.140625 8.90625 
Q 21.296875 6.109375 26.703125 6.109375 
Q 34.1875 6.109375 38.703125 11.40625 
Q 43.21875 16.703125 43.21875 25.484375 
L 43.21875 27.484375 
z
M 52.203125 31.203125 
L 52.203125 0 
L 43.21875 0 
L 43.21875 8.296875 
Q 40.140625 3.328125 35.546875 0.953125 
Q 30.953125 -1.421875 24.3125 -1.421875 
Q 15.921875 -1.421875 10.953125 3.296875 
Q 6 8.015625 6 15.921875 
Q 6 25.140625 12.171875 29.828125 
Q 18.359375 34.515625 30.609375 34.515625 
L 43.21875 34.515625 
L 43.21875 35.40625 
Q 43.21875 41.609375 39.140625 45 
Q 35.0625 48.390625 27.6875 48.390625 
Q 23 48.390625 18.546875 47.265625 
Q 14.109375 46.140625 10.015625 43.890625 
L 10.015625 52.203125 
Q 14.9375 54.109375 19.578125 55.046875 
Q 24.21875 56 28.609375 56 
Q 40.484375 56 46.34375 49.84375 
Q 52.203125 43.703125 52.203125 31.203125 
z
" id="DejaVuSans-97"/>
      <path d="M 48.6875 27.296875 
Q 48.6875 37.203125 44.609375 42.84375 
Q 40.53125 48.484375 33.40625 48.484375 
Q 26.265625 48.484375 22.1875 42.84375 
Q 18.109375 37.203125 18.109375 27.296875 
Q 18.109375 17.390625 22.1875 11.75 
Q 26.265625 6.109375 33.40625 6.109375 
Q 40.53125 6.109375 44.609375 11.75 
Q 48.6875 17.390625 48.6875 27.296875 
z
M 18.109375 46.390625 
Q 20.953125 51.265625 25.265625 53.625 
Q 29.59375 56 35.59375 56 
Q 45.5625 56 51.78125 48.09375 
Q 58.015625 40.1875 58.015625 27.296875 
Q 58.015625 14.40625 51.78125 6.484375 
Q 45.5625 -1.421875 35.59375 -1.421875 
Q 29.59375 -1.421875 25.265625 0.953125 
Q 20.953125 3.328125 18.109375 8.203125 
L 18.109375 0 
L 9.078125 0 
L 9.078125 75.984375 
L 18.109375 75.984375 
z
" id="DejaVuSans-98"/>
      <path d="M 41.109375 46.296875 
Q 39.59375 47.171875 37.8125 47.578125 
Q 36.03125 48 33.890625 48 
Q 26.265625 48 22.1875 43.046875 
Q 18.109375 38.09375 18.109375 28.8125 
L 18.109375 0 
L 9.078125 0 
L 9.078125 54.6875 
L 18.109375 54.6875 
L 18.109375 46.1875 
Q 20.953125 51.171875 25.484375 53.578125 
Q 30.03125 56 36.53125 56 
Q 37.453125 56 38.578125 55.875 
Q 39.703125 55.765625 41.0625 55.515625 
z
" id="DejaVuSans-114"/>
     </defs>
     <g transform="translate(456.919063 79.787188)scale(0.14 -0.14)">
      <use xlink:href="#DejaVuSans-116"/>
      <use x="39.208984" xlink:href="#DejaVuSans-97"/>
      <use x="100.488281" xlink:href="#DejaVuSans-98"/>
      <use x="163.964844" xlink:href="#DejaVuSans-98"/>
      <use x="227.441406" xlink:href="#DejaVuSans-97"/>
      <use x="288.720703" xlink:href="#DejaVuSans-114"/>
     </g>
    </g>
   </g>
  </g>
  <g id="axes_2">
   <g id="patch_7">
    <path d="M 36 525.24 
L 538.2 525.24 
L 538.2 402.93 
L 36 402.93 
z
" style="fill:none;"/>
   </g>
   <g id="patch_8">
    <path clip-path="url(#p7070e413d3)" d="M 171.742425 519.680455 
L 388.71664 519.680455 
L 388.71664 482.616818 
L 171.742425 482.616818 
z
" style="fill:#ff6384;opacity:0.5;"/>
   </g>
   <g id="patch_9">
    <path clip-path="url(#p7070e413d3)" d="M 201.144647 445.553182 
L 407.81815 445.553182 
L 407.81815 408.489545 
L 201.144647 408.489545 
z
" style="fill:#36a2eb;opacity:0.5;"/>
   </g>
   <g id="matplotlib.axis_1">
    <g id="xtick_1">
     <g id="line2d_3">
      <defs>
       <path d="M 0 0 
L 0 3.5 
" id="m6f26b2971a" style="stroke:#000000;stroke-width:0.8;"/>
      </defs>
      <g>
       <use style="stroke:#000000;stroke-width:0.8;" x="75.436001" xlink:href="#m6f26b2971a" y="525.24"/>
      </g>
     </g>
     <g id="text_3">
      <!-- 4.25 -->
      <defs>
       <path d="M 37.796875 64.3125 
L 12.890625 25.390625 
L 37.796875 25.390625 
z
M 35.203125 72.90625 
L 47.609375 72.90625 
L 47.609375 25.390625 
L 58.015625 25.390625 
L 58.015625 17.1875 
L 47.609375 17.1875 
L 47.609375 0 
L 37.796875 0 
L 37.796875 17.1875 
L 4.890625 17.1875 
L 4.890625 26.703125 
z
" id="DejaVuSans-52"/>
       <path d="M 10.6875 12.40625 
L 21 12.40625 
L 21 0 
L 10.6875 0 
z
" id="DejaVuSans-46"/>
       <path d="M 19.1875 8.296875 
L 53.609375 8.296875 
L 53.609375 0 
L 7.328125 0 
L 7.328125 8.296875 
Q 12.9375 14.109375 22.625 23.890625 
Q 32.328125 33.6875 34.8125 36.53125 
Q 39.546875 41.84375 41.421875 45.53125 
Q 43.3125 49.21875 43.3125 52.78125 
Q 43.3125 58.59375 39.234375 62.25 
Q 35.15625 65.921875 28.609375 65.921875 
Q 23.96875 65.921875 18.8125 64.3125 
Q 13.671875 62.703125 7.8125 59.421875 
L 7.8125 69.390625 
Q 13.765625 71.78125 18.9375 73 
Q 24.125 74.21875 28.421875 74.21875 
Q 39.75 74.21875 46.484375 68.546875 
Q 53.21875 62.890625 53.21875 53.421875 
Q 53.21875 48.921875 51.53125 44.890625 
Q 49.859375 40.875 45.40625 35.40625 
Q 44.1875 33.984375 37.640625 27.21875 
Q 31.109375 20.453125 19.1875 8.296875 
z
" id="DejaVuSans-50"/>
       <path d="M 10.796875 72.90625 
L 49.515625 72.90625 
L 49.515625 64.59375 
L 19.828125 64.59375 
L 19.828125 46.734375 
Q 21.96875 47.46875 24.109375 47.828125 
Q 26.265625 48.1875 28.421875 48.1875 
Q 40.625 48.1875 47.75 41.5 
Q 54.890625 34.8125 54.890625 23.390625 
Q 54.890625 11.625 47.5625 5.09375 
Q 40.234375 -1.421875 26.90625 -1.421875 
Q 22.3125 -1.421875 17.546875 -0.640625 
Q 12.796875 0.140625 7.71875 1.703125 
L 7.71875 11.625 
Q 12.109375 9.234375 16.796875 8.0625 
Q 21.484375 6.890625 26.703125 6.890625 
Q 35.15625 6.890625 40.078125 11.328125 
Q 45.015625 15.765625 45.015625 23.390625 
Q 45.015625 31 40.078125 35.4375 
Q 35.15625 39.890625 26.703125 39.890625 
Q 22.75 39.890625 18.8125 39.015625 
Q 14.890625 38.140625 10.796875 36.28125 
z
" id="DejaVuSans-53"/>
      </defs>
      <g transform="translate(59.850064 542.877813)scale(0.14 -0.14)">
       <use xlink:href="#DejaVuSans-52"/>
       <use x="63.623047" xlink:href="#DejaVuSans-46"/>
       <use x="95.410156" xlink:href="#DejaVuSans-50"/>
       <use x="159.033203" xlink:href="#DejaVuSans-53"/>
      </g>
     </g>
    </g>
    <g id="xtick_2">
     <g id="line2d_4">
      <g>
       <use style="stroke:#000000;stroke-width:0.8;" x="142.802295" xlink:href="#m6f26b2971a" y="525.24"/>
      </g>
     </g>
     <g id="text_4">
      <!-- 4.50 -->
      <defs>
       <path d="M 31.78125 66.40625 
Q 24.171875 66.40625 20.328125 58.90625 
Q 16.5 51.421875 16.5 36.375 
Q 16.5 21.390625 20.328125 13.890625 
Q 24.171875 6.390625 31.78125 6.390625 
Q 39.453125 6.390625 43.28125 13.890625 
Q 47.125 21.390625 47.125 36.375 
Q 47.125 51.421875 43.28125 58.90625 
Q 39.453125 66.40625 31.78125 66.40625 
z
M 31.78125 74.21875 
Q 44.046875 74.21875 50.515625 64.515625 
Q 56.984375 54.828125 56.984375 36.375 
Q 56.984375 17.96875 50.515625 8.265625 
Q 44.046875 -1.421875 31.78125 -1.421875 
Q 19.53125 -1.421875 13.0625 8.265625 
Q 6.59375 17.96875 6.59375 36.375 
Q 6.59375 54.828125 13.0625 64.515625 
Q 19.53125 74.21875 31.78125 74.21875 
z
" id="DejaVuSans-48"/>
      </defs>
      <g transform="translate(127.216357 542.877813)scale(0.14 -0.14)">
       <use xlink:href="#DejaVuSans-52"/>
       <use x="63.623047" xlink:href="#DejaVuSans-46"/>
       <use x="95.410156" xlink:href="#DejaVuSans-53"/>
       <use x="159.033203" xlink:href="#DejaVuSans-48"/>
      </g>
     </g>
    </g>
    <g id="xtick_3">
     <g id="line2d_5">
      <g>
       <use style="stroke:#000000;stroke-width:0.8;" x="210.168588" xlink:href="#m6f26b2971a" y="525.24"/>
      </g>
     </g>
     <g id="text_5">
      <!-- 4.75 -->
      <defs>
       <path d="M 8.203125 72.90625 
L 55.078125 72.90625 
L 55.078125 68.703125 
L 28.609375 0 
L 18.3125 0 
L 43.21875 64.59375 
L 8.203125 64.59375 
z
" id="DejaVuSans-55"/>
      </defs>
      <g transform="translate(194.58265 542.877813)scale(0.14 -0.14)">
       <use xlink:href="#DejaVuSans-52"/>
       <use x="63.623047" xlink:href="#DejaVuSans-46"/>
       <use x="95.410156" xlink:href="#DejaVuSans-55"/>
       <use x="159.033203" xlink:href="#DejaVuSans-53"/>
      </g>
     </g>
    </g>
    <g id="xtick_4">
     <g id="line2d_6">
      <g>
       <use style="stroke:#000000;stroke-width:0.8;" x="277.534881" xlink:href="#m6f26b2971a" y="525.24"/>
      </g>
     </g>
     <g id="text_6">
      <!-- 5.00 -->
      <g transform="translate(261.948944 542.877813)scale(0.14 -0.14)">
       <use xlink:href="#DejaVuSans-53"/>
       <use x="63.623047" xlink:href="#DejaVuSans-46"/>
       <use x="95.410156" xlink:href="#DejaVuSans-48"/>
       <use x="159.033203" xlink:href="#DejaVuSans-48"/>
      </g>
     </g>
    </g>
    <g id="xtick_5">
     <g id="line2d_7">
      <g>
       <use style="stroke:#000000;stroke-width:0.8;" x="344.901174" xlink:href="#m6f26b2971a" y="525.24"/>
      </g>
     </g>
     <g id="text_7">
      <!-- 5.25 -->
      <g transform="translate(329.315237 542.877813)scale(0.14 -0.14)">
       <use xlink:href="#DejaVuSans-53"/>
       <use x="63.623047" xlink:href="#DejaVuSans-46"/>
       <use x="95.410156" xlink:href="#DejaVuSans-50"/>
       <use x="159.033203" xlink:href="#DejaVuSans-53"/>
      </g>
     </g>
    </g>
    <g id="xtick_6">
     <g id="line2d_8">
      <g>
       <use style="stroke:#000000;stroke-width:0.8;" x="412.267468" xlink:href="#m6f26b2971a" y="525.24"/>
      </g>
     </g>
     <g id="text_8">
      <!-- 5.50 -->
      <g transform="translate(396.68153 542.877813)scale(0.14 -0.14)">
       <use xlink:href="#DejaVuSans-53"/>
       <use x="63.623047" xlink:href="#DejaVuSans-46"/>
       <use x="95.410156" xlink:href="#DejaVuSans-53"/>
       <use x="159.033203" xlink:href="#DejaVuSans-48"/>
      </g>
     </g>
    </g>
    <g id="xtick_7">
     <g id="line2d_9">
      <g>
       <use style="stroke:#000000;stroke-width:0.8;" x="479.633761" xlink:href="#m6f26b2971a" y="525.24"/>
      </g>
     </g>
     <g id="text_9">
      <!-- 5.75 -->
      <g transform="translate(464.047823 542.877813)scale(0.14 -0.14)">
       <use xlink:href="#DejaVuSans-53"/>
       <use x="63.623047" xlink:href="#DejaVuSans-46"/>
       <use x="95.410156" xlink:href="#DejaVuSans-55"/>
       <use x="159.033203" xlink:href="#DejaVuSans-53"/>
      </g>
     </g>
    </g>
   </g>
   <g id="line2d_10">
    <path clip-path="url(#p7070e413d3)" d="M 280.229533 525.24 
L 280.229533 402.93 
" style="fill:none;stroke:#ff6384;stroke-dasharray:5.55,2.4;stroke-dashoffset:0;stroke-opacity:0.8;stroke-width:1.5;"/>
   </g>
   <g id="line2d_11">
    <path clip-path="url(#p7070e413d3)" d="M 304.481398 525.24 
L 304.481398 402.93 
" style="fill:none;stroke:#36a2eb;stroke-dasharray:5.55,2.4;stroke-dashoffset:0;stroke-opacity:0.8;stroke-width:1.5;"/>
   </g>
   <g id="patch_10">
    <path d="M 36 525.24 
L 538.2 525.24 
" style="fill:none;stroke:#000000;stroke-linecap:square;stroke-linejoin:miter;stroke-width:0.8;"/>
   </g>
  </g>
 </g>
 <defs>
  <clipPath id="pb81d2faa00">
   <rect height="366.93" width="502.2" x="36" y="36"/>
  </clipPath>
  <clipPath id="p7070e413d3">
   <rect height="122.31" width="502.2" x="36" y="402.93"/>
  </clipPath>
 </defs>
</svg>
