<?xml version="1.0" encoding="utf-8" standalone="no"?>
<!DOCTYPE svg PUBLIC "-//W3C//DTD SVG 1.1//EN"
  "http://www.w3.org/Graphics/SVG/1.1/DTD/svg11.dtd">
<!-- Created with matplotlib (https://matplotlib.org/) -->
<svg height="581.789375pt" version="1.1" viewBox="0 0 574.2 581.789375" width="574.2pt" xmlns="http://www.w3.org/2000/svg" xmlns:xlink="http://www.w3.org/1999/xlink">
 <defs>
  <style type="text/css">
*{stroke-linecap:butt;stroke-linejoin:round;}
  </style>
 </defs>
 <g id="figure_1">
  <g id="patch_1">
   <path d="M 0 581.789375 
L 574.2 581.789375 
L 574.2 0 
L 0 0 
z
" style="fill:none;"/>
  </g>
  <g id="axes_1">
   <g id="patch_2">
    <path d="M 36 402.93 
L 538.2 402.93 
L 538.2 36 
L 36 36 
z
" style="fill:none;"/>
   </g>
   <g id="PolyCollection_1">
    <defs>
     <path d="M 58.827273 -195.538011 
L 58.827273 -195.644392 
L 63.336555 -195.684507 
L 67.845838 -195.738435 
L 72.355121 -195.81043 
L 76.864403 -195.905877 
L 81.373686 -196.031532 
L 85.882969 -196.195799 
L 90.392251 -196.409036 
L 94.901534 -196.683891 
L 99.410817 -197.035666 
L 103.920099 -197.482692 
L 108.429382 -198.046714 
L 112.938664 -198.753257 
L 117.447947 -199.631967 
L 121.95723 -200.716896 
L 126.466512 -202.046699 
L 130.975795 -203.66472 
L 135.485078 -205.618928 
L 139.99436 -207.961669 
L 144.503643 -210.749193 
L 149.012926 -214.040943 
L 153.522208 -217.898548 
L 158.031491 -222.384529 
L 162.540774 -227.560699 
L 167.050056 -233.486256 
L 171.559339 -240.215595 
L 176.068622 -247.795886 
L 180.577904 -256.264461 
L 185.087187 -265.646099 
L 189.596469 -275.950302 
L 194.105752 -287.168673 
L 198.615035 -299.272529 
L 203.124317 -312.210871 
L 207.6336 -325.908854 
L 212.142883 -340.266886 
L 216.652165 -355.160463 
L 221.161448 -370.440847 
L 225.670731 -385.936634 
L 230.180013 -401.45626 
L 234.689296 -416.79141 
L 239.198579 -431.721289 
L 243.707861 -446.017646 
L 248.217144 -459.4504 
L 252.726426 -471.79369 
L 257.235709 -482.832127 
L 261.744992 -492.36701 
L 266.254274 -500.222262 
L 270.763557 -506.249824 
L 275.27284 -510.3343 
L 279.782122 -512.396628 
L 284.291405 -512.396628 
L 288.800688 -510.3343 
L 293.30997 -506.249824 
L 297.819253 -500.222262 
L 302.328536 -492.36701 
L 306.837818 -482.832127 
L 311.347101 -471.79369 
L 315.856384 -459.4504 
L 320.365666 -446.017646 
L 324.874949 -431.721289 
L 329.384231 -416.79141 
L 333.893514 -401.45626 
L 338.402797 -385.936634 
L 342.912079 -370.440847 
L 347.421362 -355.160463 
L 351.930645 -340.266886 
L 356.439927 -325.908854 
L 360.94921 -312.210871 
L 365.458493 -299.272529 
L 369.967775 -287.168673 
L 374.477058 -275.950302 
L 378.986341 -265.646099 
L 383.495623 -256.264461 
L 388.004906 -247.795886 
L 392.514189 -240.215595 
L 397.023471 -233.486256 
L 401.532754 -227.560699 
L 406.042036 -222.384529 
L 410.551319 -217.898548 
L 415.060602 -214.040943 
L 419.569884 -210.749193 
L 424.079167 -207.961669 
L 428.58845 -205.618928 
L 433.097732 -203.66472 
L 437.607015 -202.046699 
L 442.116298 -200.716896 
L 446.62558 -199.631967 
L 451.134863 -198.753257 
L 455.644146 -198.046714 
L 460.153428 -197.482692 
L 464.662711 -197.035666 
L 469.171993 -196.683891 
L 473.681276 -196.409036 
L 478.190559 -196.195799 
L 482.699841 -196.031532 
L 487.209124 -195.905877 
L 491.718407 -195.81043 
L 496.227689 -195.738435 
L 500.736972 -195.684507 
L 505.246255 -195.644392 
L 505.246255 -195.538011 
L 505.246255 -195.538011 
L 500.736972 -195.538011 
L 496.227689 -195.538011 
L 491.718407 -195.538011 
L 487.209124 -195.538011 
L 482.699841 -195.538011 
L 478.190559 -195.538011 
L 473.681276 -195.538011 
L 469.171993 -195.538011 
L 464.662711 -195.538011 
L 460.153428 -195.538011 
L 455.644146 -195.538011 
L 451.134863 -195.538011 
L 446.62558 -195.538011 
L 442.116298 -195.538011 
L 437.607015 -195.538011 
L 433.097732 -195.538011 
L 428.58845 -195.538011 
L 424.079167 -195.538011 
L 419.569884 -195.538011 
L 415.060602 -195.538011 
L 410.551319 -195.538011 
L 406.042036 -195.538011 
L 401.532754 -195.538011 
L 397.023471 -195.538011 
L 392.514189 -195.538011 
L 388.004906 -195.538011 
L 383.495623 -195.538011 
L 378.986341 -195.538011 
L 374.477058 -195.538011 
L 369.967775 -195.538011 
L 365.458493 -195.538011 
L 360.94921 -195.538011 
L 356.439927 -195.538011 
L 351.930645 -195.538011 
L 347.421362 -195.538011 
L 342.912079 -195.538011 
L 338.402797 -195.538011 
L 333.893514 -195.538011 
L 329.384231 -195.538011 
L 324.874949 -195.538011 
L 320.365666 -195.538011 
L 315.856384 -195.538011 
L 311.347101 -195.538011 
L 306.837818 -195.538011 
L 302.328536 -195.538011 
L 297.819253 -195.538011 
L 293.30997 -195.538011 
L 288.800688 -195.538011 
L 284.291405 -195.538011 
L 279.782122 -195.538011 
L 275.27284 -195.538011 
L 270.763557 -195.538011 
L 266.254274 -195.538011 
L 261.744992 -195.538011 
L 257.235709 -195.538011 
L 252.726426 -195.538011 
L 248.217144 -195.538011 
L 243.707861 -195.538011 
L 239.198579 -195.538011 
L 234.689296 -195.538011 
L 230.180013 -195.538011 
L 225.670731 -195.538011 
L 221.161448 -195.538011 
L 216.652165 -195.538011 
L 212.142883 -195.538011 
L 207.6336 -195.538011 
L 203.124317 -195.538011 
L 198.615035 -195.538011 
L 194.105752 -195.538011 
L 189.596469 -195.538011 
L 185.087187 -195.538011 
L 180.577904 -195.538011 
L 176.068622 -195.538011 
L 171.559339 -195.538011 
L 167.050056 -195.538011 
L 162.540774 -195.538011 
L 158.031491 -195.538011 
L 153.522208 -195.538011 
L 149.012926 -195.538011 
L 144.503643 -195.538011 
L 139.99436 -195.538011 
L 135.485078 -195.538011 
L 130.975795 -195.538011 
L 126.466512 -195.538011 
L 121.95723 -195.538011 
L 117.447947 -195.538011 
L 112.938664 -195.538011 
L 108.429382 -195.538011 
L 103.920099 -195.538011 
L 99.410817 -195.538011 
L 94.901534 -195.538011 
L 90.392251 -195.538011 
L 85.882969 -195.538011 
L 81.373686 -195.538011 
L 76.864403 -195.538011 
L 72.355121 -195.538011 
L 67.845838 -195.538011 
L 63.336555 -195.538011 
L 58.827273 -195.538011 
z
" id="md51b71bd91" style="stroke:#ff6384;stroke-opacity:0.5;"/>
    </defs>
    <g clip-path="url(#p1ae2b8a971)">
     <use style="fill:#ff6384;fill-opacity:0.5;stroke:#ff6384;stroke-opacity:0.5;" x="0" xlink:href="#md51b71bd91" y="581.789375"/>
    </g>
   </g>
   <g id="PolyCollection_2">
    <defs>
     <path d="M 91.322169 -195.538011 
L 91.322169 -195.650004 
L 95.605508 -195.692234 
L 99.888847 -195.749007 
L 104.172186 -195.8248 
L 108.455525 -195.925281 
L 112.738864 -196.057565 
L 117.022203 -196.230497 
L 121.305542 -196.454982 
L 125.588881 -196.744335 
L 129.87222 -197.114666 
L 134.155559 -197.585273 
L 138.438898 -198.179047 
L 142.722237 -198.922859 
L 147.005576 -199.847921 
L 151.288915 -200.990079 
L 155.572254 -202.390029 
L 159.855592 -204.093399 
L 164.138931 -206.150691 
L 168.42227 -208.617009 
L 172.705609 -211.551575 
L 176.988948 -215.016962 
L 181.272287 -219.078053 
L 185.555626 -223.800667 
L 189.838965 -229.249878 
L 194.122304 -235.488004 
L 198.405643 -242.572312 
L 202.688982 -250.552459 
L 206.972321 -259.467747 
L 211.25566 -269.344261 
L 215.538999 -280.192004 
L 219.822338 -292.002137 
L 224.105677 -304.744465 
L 228.389016 -318.365297 
L 232.672355 -332.785841 
L 236.955694 -347.901251 
L 241.239033 -363.580456 
L 245.522372 -379.666871 
L 249.805711 -395.980052 
L 254.08905 -412.31833 
L 258.372389 -428.4624 
L 262.655728 -444.179822 
L 266.939067 -459.230303 
L 271.222406 -473.371627 
L 275.505745 -486.366018 
L 279.789084 -497.986726 
L 284.072423 -508.02457 
L 288.355762 -516.294181 
L 292.639101 -522.639693 
L 296.92244 -526.939623 
L 301.205779 -529.110739 
L 305.489118 -529.110739 
L 309.772457 -526.939623 
L 314.055796 -522.639693 
L 318.339135 -516.294181 
L 322.622473 -508.02457 
L 326.905812 -497.986726 
L 331.189151 -486.366018 
L 335.47249 -473.371627 
L 339.755829 -459.230303 
L 344.039168 -444.179822 
L 348.322507 -428.4624 
L 352.605846 -412.31833 
L 356.889185 -395.980052 
L 361.172524 -379.666871 
L 365.455863 -363.580456 
L 369.739202 -347.901251 
L 374.022541 -332.785841 
L 378.30588 -318.365297 
L 382.589219 -304.744465 
L 386.872558 -292.002137 
L 391.155897 -280.192004 
L 395.439236 -269.344261 
L 399.722575 -259.467747 
L 404.005914 -250.552459 
L 408.289253 -242.572312 
L 412.572592 -235.488004 
L 416.855931 -229.249878 
L 421.13927 -223.800667 
L 425.422609 -219.078053 
L 429.705948 -215.016962 
L 433.989287 -211.551575 
L 438.272626 -208.617009 
L 442.555965 -206.150691 
L 446.839304 -204.093399 
L 451.122643 -202.390029 
L 455.405982 -200.990079 
L 459.689321 -199.847921 
L 463.97266 -198.922859 
L 468.255999 -198.179047 
L 472.539338 -197.585273 
L 476.822677 -197.114666 
L 481.106015 -196.744335 
L 485.389354 -196.454982 
L 489.672693 -196.230497 
L 493.956032 -196.057565 
L 498.239371 -195.925281 
L 502.52271 -195.8248 
L 506.806049 -195.749007 
L 511.089388 -195.692234 
L 515.372727 -195.650004 
L 515.372727 -195.538011 
L 515.372727 -195.538011 
L 511.089388 -195.538011 
L 506.806049 -195.538011 
L 502.52271 -195.538011 
L 498.239371 -195.538011 
L 493.956032 -195.538011 
L 489.672693 -195.538011 
L 485.389354 -195.538011 
L 481.106015 -195.538011 
L 476.822677 -195.538011 
L 472.539338 -195.538011 
L 468.255999 -195.538011 
L 463.97266 -195.538011 
L 459.689321 -195.538011 
L 455.405982 -195.538011 
L 451.122643 -195.538011 
L 446.839304 -195.538011 
L 442.555965 -195.538011 
L 438.272626 -195.538011 
L 433.989287 -195.538011 
L 429.705948 -195.538011 
L 425.422609 -195.538011 
L 421.13927 -195.538011 
L 416.855931 -195.538011 
L 412.572592 -195.538011 
L 408.289253 -195.538011 
L 404.005914 -195.538011 
L 399.722575 -195.538011 
L 395.439236 -195.538011 
L 391.155897 -195.538011 
L 386.872558 -195.538011 
L 382.589219 -195.538011 
L 378.30588 -195.538011 
L 374.022541 -195.538011 
L 369.739202 -195.538011 
L 365.455863 -195.538011 
L 361.172524 -195.538011 
L 356.889185 -195.538011 
L 352.605846 -195.538011 
L 348.322507 -195.538011 
L 344.039168 -195.538011 
L 339.755829 -195.538011 
L 335.47249 -195.538011 
L 331.189151 -195.538011 
L 326.905812 -195.538011 
L 322.622473 -195.538011 
L 318.339135 -195.538011 
L 314.055796 -195.538011 
L 309.772457 -195.538011 
L 305.489118 -195.538011 
L 301.205779 -195.538011 
L 296.92244 -195.538011 
L 292.639101 -195.538011 
L 288.355762 -195.538011 
L 284.072423 -195.538011 
L 279.789084 -195.538011 
L 275.505745 -195.538011 
L 271.222406 -195.538011 
L 266.939067 -195.538011 
L 262.655728 -195.538011 
L 258.372389 -195.538011 
L 254.08905 -195.538011 
L 249.805711 -195.538011 
L 245.522372 -195.538011 
L 241.239033 -195.538011 
L 236.955694 -195.538011 
L 232.672355 -195.538011 
L 228.389016 -195.538011 
L 224.105677 -195.538011 
L 219.822338 -195.538011 
L 215.538999 -195.538011 
L 211.25566 -195.538011 
L 206.972321 -195.538011 
L 202.688982 -195.538011 
L 198.405643 -195.538011 
L 194.122304 -195.538011 
L 189.838965 -195.538011 
L 185.555626 -195.538011 
L 181.272287 -195.538011 
L 176.988948 -195.538011 
L 172.705609 -195.538011 
L 168.42227 -195.538011 
L 164.138931 -195.538011 
L 159.855592 -195.538011 
L 155.572254 -195.538011 
L 151.288915 -195.538011 
L 147.005576 -195.538011 
L 142.722237 -195.538011 
L 138.438898 -195.538011 
L 134.155559 -195.538011 
L 129.87222 -195.538011 
L 125.588881 -195.538011 
L 121.305542 -195.538011 
L 117.022203 -195.538011 
L 112.738864 -195.538011 
L 108.455525 -195.538011 
L 104.172186 -195.538011 
L 99.888847 -195.538011 
L 95.605508 -195.538011 
L 91.322169 -195.538011 
z
" id="mdb7f0a641b" style="stroke:#36a2eb;stroke-opacity:0.5;"/>
    </defs>
    <g clip-path="url(#p1ae2b8a971)">
     <use style="fill:#36a2eb;fill-opacity:0.5;stroke:#36a2eb;stroke-opacity:0.5;" x="0" xlink:href="#mdb7f0a641b" y="581.789375"/>
    </g>
   </g>
   <g id="line2d_1">
    <path clip-path="url(#p1ae2b8a971)" d="M 58.827273 386.144983 
L 63.336555 386.104868 
L 67.845838 386.05094 
L 72.355121 385.978945 
L 76.864403 385.883498 
L 81.373686 385.757843 
L 85.882969 385.593576 
L 90.392251 385.380339 
L 94.901534 385.105484 
L 99.410817 384.753709 
L 103.920099 384.306683 
L 108.429382 383.742661 
L 112.938664 383.036118 
L 117.447947 382.157408 
L 121.95723 381.072479 
L 126.466512 379.742676 
L 130.975795 378.124655 
L 135.485078 376.170447 
L 139.99436 373.827706 
L 144.503643 371.040182 
L 149.012926 367.748432 
L 153.522208 363.890827 
L 158.031491 359.404846 
L 162.540774 354.228676 
L 167.050056 348.303119 
L 171.559339 341.57378 
L 176.068622 333.993489 
L 180.577904 325.524914 
L 185.087187 316.143276 
L 189.596469 305.839073 
L 194.105752 294.620702 
L 198.615035 282.516846 
L 203.124317 269.578504 
L 207.6336 255.880521 
L 212.142883 241.522489 
L 216.652165 226.628912 
L 221.161448 211.348528 
L 225.670731 195.852741 
L 230.180013 180.333115 
L 234.689296 164.997965 
L 239.198579 150.068086 
L 243.707861 135.771729 
L 248.217144 122.338975 
L 252.726426 109.995685 
L 257.235709 98.957248 
L 261.744992 89.422365 
L 266.254274 81.567113 
L 270.763557 75.539551 
L 275.27284 71.455075 
L 279.782122 69.392747 
L 284.291405 69.392747 
L 288.800688 71.455075 
L 293.30997 75.539551 
L 297.819253 81.567113 
L 302.328536 89.422365 
L 306.837818 98.957248 
L 311.347101 109.995685 
L 315.856384 122.338975 
L 320.365666 135.771729 
L 324.874949 150.068086 
L 329.384231 164.997965 
L 333.893514 180.333115 
L 338.402797 195.852741 
L 342.912079 211.348528 
L 347.421362 226.628912 
L 351.930645 241.522489 
L 356.439927 255.880521 
L 360.94921 269.578504 
L 365.458493 282.516846 
L 369.967775 294.620702 
L 374.477058 305.839073 
L 378.986341 316.143276 
L 383.495623 325.524914 
L 388.004906 333.993489 
L 392.514189 341.57378 
L 397.023471 348.303119 
L 401.532754 354.228676 
L 406.042036 359.404846 
L 410.551319 363.890827 
L 415.060602 367.748432 
L 419.569884 371.040182 
L 424.079167 373.827706 
L 428.58845 376.170447 
L 433.097732 378.124655 
L 437.607015 379.742676 
L 442.116298 381.072479 
L 446.62558 382.157408 
L 451.134863 383.036118 
L 455.644146 383.742661 
L 460.153428 384.306683 
L 464.662711 384.753709 
L 469.171993 385.105484 
L 473.681276 385.380339 
L 478.190559 385.593576 
L 482.699841 385.757843 
L 487.209124 385.883498 
L 491.718407 385.978945 
L 496.227689 386.05094 
L 500.736972 386.104868 
L 505.246255 386.144983 
" style="fill:none;stroke:#ff6384;stroke-linecap:square;"/>
   </g>
   <g id="line2d_2">
    <path clip-path="url(#p1ae2b8a971)" d="M 91.322169 386.139371 
L 95.605508 386.097141 
L 99.888847 386.040368 
L 104.172186 385.964575 
L 108.455525 385.864094 
L 112.738864 385.73181 
L 117.022203 385.558878 
L 121.305542 385.334393 
L 125.588881 385.04504 
L 129.87222 384.674709 
L 134.155559 384.204102 
L 138.438898 383.610328 
L 142.722237 382.866516 
L 147.005576 381.941454 
L 151.288915 380.799296 
L 155.572254 379.399346 
L 159.855592 377.695976 
L 164.138931 375.638684 
L 168.42227 373.172366 
L 172.705609 370.2378 
L 176.988948 366.772413 
L 181.272287 362.711322 
L 185.555626 357.988708 
L 189.838965 352.539497 
L 194.122304 346.301371 
L 198.405643 339.217063 
L 202.688982 331.236916 
L 206.972321 322.321628 
L 211.25566 312.445114 
L 215.538999 301.597371 
L 219.822338 289.787238 
L 224.105677 277.04491 
L 228.389016 263.424078 
L 232.672355 249.003534 
L 236.955694 233.888124 
L 241.239033 218.208919 
L 245.522372 202.122504 
L 249.805711 185.809323 
L 254.08905 169.471045 
L 258.372389 153.326975 
L 262.655728 137.609553 
L 266.939067 122.559072 
L 271.222406 108.417748 
L 275.505745 95.423357 
L 279.789084 83.802649 
L 284.072423 73.764805 
L 288.355762 65.495194 
L 292.639101 59.149682 
L 296.92244 54.849752 
L 301.205779 52.678636 
L 305.489118 52.678636 
L 309.772457 54.849752 
L 314.055796 59.149682 
L 318.339135 65.495194 
L 322.622473 73.764805 
L 326.905812 83.802649 
L 331.189151 95.423357 
L 335.47249 108.417748 
L 339.755829 122.559072 
L 344.039168 137.609553 
L 348.322507 153.326975 
L 352.605846 169.471045 
L 356.889185 185.809323 
L 361.172524 202.122504 
L 365.455863 218.208919 
L 369.739202 233.888124 
L 374.022541 249.003534 
L 378.30588 263.424078 
L 382.589219 277.04491 
L 386.872558 289.787238 
L 391.155897 301.597371 
L 395.439236 312.445114 
L 399.722575 322.321628 
L 404.005914 331.236916 
L 408.289253 339.217063 
L 412.572592 346.301371 
L 416.855931 352.539497 
L 421.13927 357.988708 
L 425.422609 362.711322 
L 429.705948 366.772413 
L 433.989287 370.2378 
L 438.272626 373.172366 
L 442.555965 375.638684 
L 446.839304 377.695976 
L 451.122643 379.399346 
L 455.405982 380.799296 
L 459.689321 381.941454 
L 463.97266 382.866516 
L 468.255999 383.610328 
L 472.539338 384.204102 
L 476.822677 384.674709 
L 481.106015 385.04504 
L 485.389354 385.334393 
L 489.672693 385.558878 
L 493.956032 385.73181 
L 498.239371 385.864094 
L 502.52271 385.964575 
L 506.806049 386.040368 
L 511.089388 386.097141 
L 515.372727 386.139371 
" style="fill:none;stroke:#36a2eb;stroke-linecap:square;"/>
   </g>
   <g id="patch_3">
    <path d="M 36 402.93 
L 538.2 402.93 
" style="fill:none;stroke:#000000;stroke-linecap:square;stroke-linejoin:miter;stroke-width:0.8;"/>
   </g>
   <g id="legend_1">
    <g id="patch_4">
     <path d="M 414.919063 88.29875 
L 528.4 88.29875 
Q 531.2 88.29875 531.2 85.49875 
L 531.2 45.8 
Q 531.2 43 528.4 43 
L 414.919063 43 
Q 412.119063 43 412.119063 45.8 
L 412.119063 85.49875 
Q 412.119063 88.29875 414.919063 88.29875 
z
" style="fill:#ffffff;opacity:0.8;stroke:#cccccc;stroke-linejoin:miter;"/>
    </g>
    <g id="patch_5">
     <path d="M 417.719063 59.237813 
L 445.719063 59.237813 
L 445.719063 49.437813 
L 417.719063 49.437813 
z
" style="fill:#ff6384;opacity:0.5;stroke:#ff6384;stroke-linejoin:miter;"/>
    </g>
    <g id="text_1">
     <!-- sidemenu -->
     <defs>
      <path d="M 44.28125 53.078125 
L 44.28125 44.578125 
Q 40.484375 46.53125 36.375 47.5 
Q 32.28125 48.484375 27.875 48.484375 
Q 21.1875 48.484375 17.84375 46.4375 
Q 14.5 44.390625 14.5 40.28125 
Q 14.5 37.15625 16.890625 35.375 
Q 19.28125 33.59375 26.515625 31.984375 
L 29.59375 31.296875 
Q 39.15625 29.25 43.1875 25.515625 
Q 47.21875 21.78125 47.21875 15.09375 
Q 47.21875 7.46875 41.1875 3.015625 
Q 35.15625 -1.421875 24.609375 -1.421875 
Q 20.21875 -1.421875 15.453125 -0.5625 
Q 10.6875 0.296875 5.421875 2 
L 5.421875 11.28125 
Q 10.40625 8.6875 15.234375 7.390625 
Q 20.0625 6.109375 24.8125 6.109375 
Q 31.15625 6.109375 34.5625 8.28125 
Q 37.984375 10.453125 37.984375 14.40625 
Q 37.984375 18.0625 35.515625 20.015625 
Q 33.0625 21.96875 24.703125 23.78125 
L 21.578125 24.515625 
Q 13.234375 26.265625 9.515625 29.90625 
Q 5.8125 33.546875 5.8125 39.890625 
Q 5.8125 47.609375 11.28125 51.796875 
Q 16.75 56 26.8125 56 
Q 31.78125 56 36.171875 55.265625 
Q 40.578125 54.546875 44.28125 53.078125 
z
" id="DejaVuSans-115"/>
      <path d="M 9.421875 54.6875 
L 18.40625 54.6875 
L 18.40625 0 
L 9.421875 0 
z
M 9.421875 75.984375 
L 18.40625 75.984375 
L 18.40625 64.59375 
L 9.421875 64.59375 
z
" id="DejaVuSans-105"/>
      <path d="M 45.40625 46.390625 
L 45.40625 75.984375 
L 54.390625 75.984375 
L 54.390625 0 
L 45.40625 0 
L 45.40625 8.203125 
Q 42.578125 3.328125 38.25 0.953125 
Q 33.9375 -1.421875 27.875 -1.421875 
Q 17.96875 -1.421875 11.734375 6.484375 
Q 5.515625 14.40625 5.515625 27.296875 
Q 5.515625 40.1875 11.734375 48.09375 
Q 17.96875 56 27.875 56 
Q 33.9375 56 38.25 53.625 
Q 42.578125 51.265625 45.40625 46.390625 
z
M 14.796875 27.296875 
Q 14.796875 17.390625 18.875 11.75 
Q 22.953125 6.109375 30.078125 6.109375 
Q 37.203125 6.109375 41.296875 11.75 
Q 45.40625 17.390625 45.40625 27.296875 
Q 45.40625 37.203125 41.296875 42.84375 
Q 37.203125 48.484375 30.078125 48.484375 
Q 22.953125 48.484375 18.875 42.84375 
Q 14.796875 37.203125 14.796875 27.296875 
z
" id="DejaVuSans-100"/>
      <path d="M 56.203125 29.59375 
L 56.203125 25.203125 
L 14.890625 25.203125 
Q 15.484375 15.921875 20.484375 11.0625 
Q 25.484375 6.203125 34.421875 6.203125 
Q 39.59375 6.203125 44.453125 7.46875 
Q 49.3125 8.734375 54.109375 11.28125 
L 54.109375 2.78125 
Q 49.265625 0.734375 44.1875 -0.34375 
Q 39.109375 -1.421875 33.890625 -1.421875 
Q 20.796875 -1.421875 13.15625 6.1875 
Q 5.515625 13.8125 5.515625 26.8125 
Q 5.515625 40.234375 12.765625 48.109375 
Q 20.015625 56 32.328125 56 
Q 43.359375 56 49.78125 48.890625 
Q 56.203125 41.796875 56.203125 29.59375 
z
M 47.21875 32.234375 
Q 47.125 39.59375 43.09375 43.984375 
Q 39.0625 48.390625 32.421875 48.390625 
Q 24.90625 48.390625 20.390625 44.140625 
Q 15.875 39.890625 15.1875 32.171875 
z
" id="DejaVuSans-101"/>
      <path d="M 52 44.1875 
Q 55.375 50.25 60.0625 53.125 
Q 64.75 56 71.09375 56 
Q 79.640625 56 84.28125 50.015625 
Q 88.921875 44.046875 88.921875 33.015625 
L 88.921875 0 
L 79.890625 0 
L 79.890625 32.71875 
Q 79.890625 40.578125 77.09375 44.375 
Q 74.3125 48.1875 68.609375 48.1875 
Q 61.625 48.1875 57.5625 43.546875 
Q 53.515625 38.921875 53.515625 30.90625 
L 53.515625 0 
L 44.484375 0 
L 44.484375 32.71875 
Q 44.484375 40.625 41.703125 44.40625 
Q 38.921875 48.1875 33.109375 48.1875 
Q 26.21875 48.1875 22.15625 43.53125 
Q 18.109375 38.875 18.109375 30.90625 
L 18.109375 0 
L 9.078125 0 
L 9.078125 54.6875 
L 18.109375 54.6875 
L 18.109375 46.1875 
Q 21.1875 51.21875 25.484375 53.609375 
Q 29.78125 56 35.6875 56 
Q 41.65625 56 45.828125 52.96875 
Q 50 49.953125 52 44.1875 
z
" id="DejaVuSans-109"/>
      <path d="M 54.890625 33.015625 
L 54.890625 0 
L 45.90625 0 
L 45.90625 32.71875 
Q 45.90625 40.484375 42.875 44.328125 
Q 39.84375 48.1875 33.796875 48.1875 
Q 26.515625 48.1875 22.3125 43.546875 
Q 18.109375 38.921875 18.109375 30.90625 
L 18.109375 0 
L 9.078125 0 
L 9.078125 54.6875 
L 18.109375 54.6875 
L 18.109375 46.1875 
Q 21.34375 51.125 25.703125 53.5625 
Q 30.078125 56 35.796875 56 
Q 45.21875 56 50.046875 50.171875 
Q 54.890625 44.34375 54.890625 33.015625 
z
" id="DejaVuSans-110"/>
      <path d="M 8.5 21.578125 
L 8.5 54.6875 
L 17.484375 54.6875 
L 17.484375 21.921875 
Q 17.484375 14.15625 20.5 10.265625 
Q 23.53125 6.390625 29.59375 6.390625 
Q 36.859375 6.390625 41.078125 11.03125 
Q 45.3125 15.671875 45.3125 23.6875 
L 45.3125 54.6875 
L 54.296875 54.6875 
L 54.296875 0 
L 45.3125 0 
L 45.3125 8.40625 
Q 42.046875 3.421875 37.71875 1 
Q 33.40625 -1.421875 27.6875 -1.421875 
Q 18.265625 -1.421875 13.375 4.4375 
Q 8.5 10.296875 8.5 21.578125 
z
M 31.109375 56 
z
" id="DejaVuSans-117"/>
     </defs>
     <g transform="translate(456.919063 59.237813)scale(0.14 -0.14)">
      <use xlink:href="#DejaVuSans-115"/>
      <use x="52.099609" xlink:href="#DejaVuSans-105"/>
      <use x="79.882812" xlink:href="#DejaVuSans-100"/>
      <use x="143.359375" xlink:href="#DejaVuSans-101"/>
      <use x="204.882812" xlink:href="#DejaVuSans-109"/>
      <use x="302.294922" xlink:href="#DejaVuSans-101"/>
      <use x="363.818359" xlink:href="#DejaVuSans-110"/>
      <use x="427.197266" xlink:href="#DejaVuSans-117"/>
     </g>
    </g>
    <g id="patch_6">
     <path d="M 417.719063 79.787188 
L 445.719063 79.787188 
L 445.719063 69.987188 
L 417.719063 69.987188 
z
" style="fill:#36a2eb;opacity:0.5;stroke:#36a2eb;stroke-linejoin:miter;"/>
    </g>
    <g id="text_2">
     <!-- tabbar -->
     <defs>
      <path d="M 18.3125 70.21875 
L 18.3125 54.6875 
L 36.8125 54.6875 
L 36.8125 47.703125 
L 18.3125 47.703125 
L 18.3125 18.015625 
Q 18.3125 11.328125 20.140625 9.421875 
Q 21.96875 7.515625 27.59375 7.515625 
L 36.8125 7.515625 
L 36.8125 0 
L 27.59375 0 
Q 17.1875 0 13.234375 3.875 
Q 9.28125 7.765625 9.28125 18.015625 
L 9.28125 47.703125 
L 2.6875 47.703125 
L 2.6875 54.6875 
L 9.28125 54.6875 
L 9.28125 70.21875 
z
" id="DejaVuSans-116"/>
      <path d="M 34.28125 27.484375 
Q 23.390625 27.484375 19.1875 25 
Q 14.984375 22.515625 14.984375 16.5 
Q 14.984375 11.71875 18.140625 8.90625 
Q 21.296875 6.109375 26.703125 6.109375 
Q 34.1875 6.109375 38.703125 11.40625 
Q 43.21875 16.703125 43.21875 25.484375 
L 43.21875 27.484375 
z
M 52.203125 31.203125 
L 52.203125 0 
L 43.21875 0 
L 43.21875 8.296875 
Q 40.140625 3.328125 35.546875 0.953125 
Q 30.953125 -1.421875 24.3125 -1.421875 
Q 15.921875 -1.421875 10.953125 3.296875 
Q 6 8.015625 6 15.921875 
Q 6 25.140625 12.171875 29.828125 
Q 18.359375 34.515625 30.609375 34.515625 
L 43.21875 34.515625 
L 43.21875 35.40625 
Q 43.21875 41.609375 39.140625 45 
Q 35.0625 48.390625 27.6875 48.390625 
Q 23 48.390625 18.546875 47.265625 
Q 14.109375 46.140625 10.015625 43.890625 
L 10.015625 52.203125 
Q 14.9375 54.109375 19.578125 55.046875 
Q 24.21875 56 28.609375 56 
Q 40.484375 56 46.34375 49.84375 
Q 52.203125 43.703125 52.203125 31.203125 
z
" id="DejaVuSans-97"/>
      <path d="M 48.6875 27.296875 
Q 48.6875 37.203125 44.609375 42.84375 
Q 40.53125 48.484375 33.40625 48.484375 
Q 26.265625 48.484375 22.1875 42.84375 
Q 18.109375 37.203125 18.109375 27.296875 
Q 18.109375 17.390625 22.1875 11.75 
Q 26.265625 6.109375 33.40625 6.109375 
Q 40.53125 6.109375 44.609375 11.75 
Q 48.6875 17.390625 48.6875 27.296875 
z
M 18.109375 46.390625 
Q 20.953125 51.265625 25.265625 53.625 
Q 29.59375 56 35.59375 56 
Q 45.5625 56 51.78125 48.09375 
Q 58.015625 40.1875 58.015625 27.296875 
Q 58.015625 14.40625 51.78125 6.484375 
Q 45.5625 -1.421875 35.59375 -1.421875 
Q 29.59375 -1.421875 25.265625 0.953125 
Q 20.953125 3.328125 18.109375 8.203125 
L 18.109375 0 
L 9.078125 0 
L 9.078125 75.984375 
L 18.109375 75.984375 
z
" id="DejaVuSans-98"/>
      <path d="M 41.109375 46.296875 
Q 39.59375 47.171875 37.8125 47.578125 
Q 36.03125 48 33.890625 48 
Q 26.265625 48 22.1875 43.046875 
Q 18.109375 38.09375 18.109375 28.8125 
L 18.109375 0 
L 9.078125 0 
L 9.078125 54.6875 
L 18.109375 54.6875 
L 18.109375 46.1875 
Q 20.953125 51.171875 25.484375 53.578125 
Q 30.03125 56 36.53125 56 
Q 37.453125 56 38.578125 55.875 
Q 39.703125 55.765625 41.0625 55.515625 
z
" id="DejaVuSans-114"/>
     </defs>
     <g transform="translate(456.919063 79.787188)scale(0.14 -0.14)">
      <use xlink:href="#DejaVuSans-116"/>
      <use x="39.208984" xlink:href="#DejaVuSans-97"/>
      <use x="100.488281" xlink:href="#DejaVuSans-98"/>
      <use x="163.964844" xlink:href="#DejaVuSans-98"/>
      <use x="227.441406" xlink:href="#DejaVuSans-97"/>
      <use x="288.720703" xlink:href="#DejaVuSans-114"/>
     </g>
    </g>
   </g>
  </g>
  <g id="axes_2">
   <g id="patch_7">
    <path d="M 36 525.24 
L 538.2 525.24 
L 538.2 402.93 
L 36 402.93 
z
" style="fill:none;"/>
   </g>
   <g id="patch_8">
    <path clip-path="url(#p8d73e96e49)" d="M 172.664113 519.680455 
L 391.409414 519.680455 
L 391.409414 482.616818 
L 172.664113 482.616818 
z
" style="fill:#ff6384;opacity:0.5;"/>
   </g>
   <g id="patch_9">
    <path clip-path="url(#p8d73e96e49)" d="M 199.455061 445.553182 
L 407.239835 445.553182 
L 407.239835 408.489545 
L 199.455061 408.489545 
z
" style="fill:#36a2eb;opacity:0.5;"/>
   </g>
   <g id="matplotlib.axis_1">
    <g id="xtick_1">
     <g id="line2d_3">
      <defs>
       <path d="M 0 0 
L 0 3.5 
" id="m90b62bdb80" style="stroke:#000000;stroke-width:0.8;"/>
      </defs>
      <g>
       <use style="stroke:#000000;stroke-width:0.8;" x="122.206631" xlink:href="#m90b62bdb80" y="525.24"/>
      </g>
     </g>
     <g id="text_3">
      <!-- 14.0 -->
      <defs>
       <path d="M 12.40625 8.296875 
L 28.515625 8.296875 
L 28.515625 63.921875 
L 10.984375 60.40625 
L 10.984375 69.390625 
L 28.421875 72.90625 
L 38.28125 72.90625 
L 38.28125 8.296875 
L 54.390625 8.296875 
L 54.390625 0 
L 12.40625 0 
z
" id="DejaVuSans-49"/>
       <path d="M 37.796875 64.3125 
L 12.890625 25.390625 
L 37.796875 25.390625 
z
M 35.203125 72.90625 
L 47.609375 72.90625 
L 47.609375 25.390625 
L 58.015625 25.390625 
L 58.015625 17.1875 
L 47.609375 17.1875 
L 47.609375 0 
L 37.796875 0 
L 37.796875 17.1875 
L 4.890625 17.1875 
L 4.890625 26.703125 
z
" id="DejaVuSans-52"/>
       <path d="M 10.6875 12.40625 
L 21 12.40625 
L 21 0 
L 10.6875 0 
z
" id="DejaVuSans-46"/>
       <path d="M 31.78125 66.40625 
Q 24.171875 66.40625 20.328125 58.90625 
Q 16.5 51.421875 16.5 36.375 
Q 16.5 21.390625 20.328125 13.890625 
Q 24.171875 6.390625 31.78125 6.390625 
Q 39.453125 6.390625 43.28125 13.890625 
Q 47.125 21.390625 47.125 36.375 
Q 47.125 51.421875 43.28125 58.90625 
Q 39.453125 66.40625 31.78125 66.40625 
z
M 31.78125 74.21875 
Q 44.046875 74.21875 50.515625 64.515625 
Q 56.984375 54.828125 56.984375 36.375 
Q 56.984375 17.96875 50.515625 8.265625 
Q 44.046875 -1.421875 31.78125 -1.421875 
Q 19.53125 -1.421875 13.0625 8.265625 
Q 6.59375 17.96875 6.59375 36.375 
Q 6.59375 54.828125 13.0625 64.515625 
Q 19.53125 74.21875 31.78125 74.21875 
z
" id="DejaVuSans-48"/>
      </defs>
      <g transform="translate(106.620693 542.877813)scale(0.14 -0.14)">
       <use xlink:href="#DejaVuSans-49"/>
       <use x="63.623047" xlink:href="#DejaVuSans-52"/>
       <use x="127.246094" xlink:href="#DejaVuSans-46"/>
       <use x="159.033203" xlink:href="#DejaVuSans-48"/>
      </g>
     </g>
    </g>
    <g id="xtick_2">
     <g id="line2d_4">
      <g>
       <use style="stroke:#000000;stroke-width:0.8;" x="228.760053" xlink:href="#m90b62bdb80" y="525.24"/>
      </g>
     </g>
     <g id="text_4">
      <!-- 14.5 -->
      <defs>
       <path d="M 10.796875 72.90625 
L 49.515625 72.90625 
L 49.515625 64.59375 
L 19.828125 64.59375 
L 19.828125 46.734375 
Q 21.96875 47.46875 24.109375 47.828125 
Q 26.265625 48.1875 28.421875 48.1875 
Q 40.625 48.1875 47.75 41.5 
Q 54.890625 34.8125 54.890625 23.390625 
Q 54.890625 11.625 47.5625 5.09375 
Q 40.234375 -1.421875 26.90625 -1.421875 
Q 22.3125 -1.421875 17.546875 -0.640625 
Q 12.796875 0.140625 7.71875 1.703125 
L 7.71875 11.625 
Q 12.109375 9.234375 16.796875 8.0625 
Q 21.484375 6.890625 26.703125 6.890625 
Q 35.15625 6.890625 40.078125 11.328125 
Q 45.015625 15.765625 45.015625 23.390625 
Q 45.015625 31 40.078125 35.4375 
Q 35.15625 39.890625 26.703125 39.890625 
Q 22.75 39.890625 18.8125 39.015625 
Q 14.890625 38.140625 10.796875 36.28125 
z
" id="DejaVuSans-53"/>
      </defs>
      <g transform="translate(213.174115 542.877813)scale(0.14 -0.14)">
       <use xlink:href="#DejaVuSans-49"/>
       <use x="63.623047" xlink:href="#DejaVuSans-52"/>
       <use x="127.246094" xlink:href="#DejaVuSans-46"/>
       <use x="159.033203" xlink:href="#DejaVuSans-53"/>
      </g>
     </g>
    </g>
    <g id="xtick_3">
     <g id="line2d_5">
      <g>
       <use style="stroke:#000000;stroke-width:0.8;" x="335.313475" xlink:href="#m90b62bdb80" y="525.24"/>
      </g>
     </g>
     <g id="text_5">
      <!-- 15.0 -->
      <g transform="translate(319.727537 542.877813)scale(0.14 -0.14)">
       <use xlink:href="#DejaVuSans-49"/>
       <use x="63.623047" xlink:href="#DejaVuSans-53"/>
       <use x="127.246094" xlink:href="#DejaVuSans-46"/>
       <use x="159.033203" xlink:href="#DejaVuSans-48"/>
      </g>
     </g>
    </g>
    <g id="xtick_4">
     <g id="line2d_6">
      <g>
       <use style="stroke:#000000;stroke-width:0.8;" x="441.866897" xlink:href="#m90b62bdb80" y="525.24"/>
      </g>
     </g>
     <g id="text_6">
      <!-- 15.5 -->
      <g transform="translate(426.280959 542.877813)scale(0.14 -0.14)">
       <use xlink:href="#DejaVuSans-49"/>
       <use x="63.623047" xlink:href="#DejaVuSans-53"/>
       <use x="127.246094" xlink:href="#DejaVuSans-46"/>
       <use x="159.033203" xlink:href="#DejaVuSans-53"/>
      </g>
     </g>
    </g>
   </g>
   <g id="line2d_7">
    <path clip-path="url(#p8d73e96e49)" d="M 282.036764 525.24 
L 282.036764 402.93 
" style="fill:none;stroke:#ff6384;stroke-dasharray:5.55,2.4;stroke-dashoffset:0;stroke-opacity:0.8;stroke-width:1.5;"/>
   </g>
   <g id="line2d_8">
    <path clip-path="url(#p8d73e96e49)" d="M 303.347448 525.24 
L 303.347448 402.93 
" style="fill:none;stroke:#36a2eb;stroke-dasharray:5.55,2.4;stroke-dashoffset:0;stroke-opacity:0.8;stroke-width:1.5;"/>
   </g>
   <g id="patch_10">
    <path d="M 36 525.24 
L 538.2 525.24 
" style="fill:none;stroke:#000000;stroke-linecap:square;stroke-linejoin:miter;stroke-width:0.8;"/>
   </g>
  </g>
 </g>
 <defs>
  <clipPath id="p1ae2b8a971">
   <rect height="366.93" width="502.2" x="36" y="36"/>
  </clipPath>
  <clipPath id="p8d73e96e49">
   <rect height="122.31" width="502.2" x="36" y="402.93"/>
  </clipPath>
 </defs>
</svg>
