<?xml version="1.0" encoding="utf-8" standalone="no"?>
<!DOCTYPE svg PUBLIC "-//W3C//DTD SVG 1.1//EN"
  "http://www.w3.org/Graphics/SVG/1.1/DTD/svg11.dtd">
<!-- Created with matplotlib (https://matplotlib.org/) -->
<svg height="581.789375pt" version="1.1" viewBox="0 0 574.2 581.789375" width="574.2pt" xmlns="http://www.w3.org/2000/svg" xmlns:xlink="http://www.w3.org/1999/xlink">
 <defs>
  <style type="text/css">
*{stroke-linecap:butt;stroke-linejoin:round;}
  </style>
 </defs>
 <g id="figure_1">
  <g id="patch_1">
   <path d="M 0 581.789375 
L 574.2 581.789375 
L 574.2 0 
L 0 0 
z
" style="fill:none;"/>
  </g>
  <g id="axes_1">
   <g id="patch_2">
    <path d="M 36 402.93 
L 538.2 402.93 
L 538.2 36 
L 36 36 
z
" style="fill:none;"/>
   </g>
   <g id="PolyCollection_1">
    <defs>
     <path d="M 58.827273 -195.538011 
L 58.827273 -195.644603 
L 63.355291 -195.684798 
L 67.88331 -195.738832 
L 72.411328 -195.81097 
L 76.939347 -195.906607 
L 81.467365 -196.032511 
L 85.995384 -196.197104 
L 90.523402 -196.410764 
L 95.051421 -196.686165 
L 99.579439 -197.038638 
L 104.107458 -197.486551 
L 108.635476 -198.051692 
L 113.163495 -198.759637 
L 117.691513 -199.640091 
L 122.219532 -200.727173 
L 126.74755 -202.059615 
L 131.275569 -203.680847 
L 135.803587 -205.638933 
L 140.331606 -207.986323 
L 144.859624 -210.779379 
L 149.387643 -214.077661 
L 153.915661 -217.942921 
L 158.44368 -222.437804 
L 162.971698 -227.624247 
L 167.499717 -233.561562 
L 172.027736 -240.304255 
L 176.555754 -247.899589 
L 181.083773 -256.38497 
L 185.611791 -265.785225 
L 190.13981 -276.109875 
L 194.667828 -287.350509 
L 199.195847 -299.478384 
L 203.723865 -312.442401 
L 208.251884 -326.167568 
L 212.779902 -340.554092 
L 217.307921 -355.477225 
L 221.835939 -370.787931 
L 226.363958 -386.314469 
L 230.891976 -401.864893 
L 235.419995 -417.230475 
L 239.948013 -432.189982 
L 244.476032 -446.514709 
L 249.00405 -459.974119 
L 253.532069 -472.341903 
L 258.060087 -483.402245 
L 262.588106 -492.956051 
L 267.116124 -500.82689 
L 271.644143 -506.866414 
L 276.172161 -510.958995 
L 280.70018 -513.025416 
L 285.228198 -513.025416 
L 289.756217 -510.958995 
L 294.284235 -506.866414 
L 298.812254 -500.82689 
L 303.340272 -492.956051 
L 307.868291 -483.402245 
L 312.396309 -472.341903 
L 316.924328 -459.974119 
L 321.452346 -446.514709 
L 325.980365 -432.189982 
L 330.508383 -417.230475 
L 335.036402 -401.864893 
L 339.56442 -386.314469 
L 344.092439 -370.787931 
L 348.620457 -355.477225 
L 353.148476 -340.554092 
L 357.676494 -326.167568 
L 362.204513 -312.442401 
L 366.732532 -299.478384 
L 371.26055 -287.350509 
L 375.788569 -276.109875 
L 380.316587 -265.785225 
L 384.844606 -256.38497 
L 389.372624 -247.899589 
L 393.900643 -240.304255 
L 398.428661 -233.561562 
L 402.95668 -227.624247 
L 407.484698 -222.437804 
L 412.012717 -217.942921 
L 416.540735 -214.077661 
L 421.068754 -210.779379 
L 425.596772 -207.986323 
L 430.124791 -205.638933 
L 434.652809 -203.680847 
L 439.180828 -202.059615 
L 443.708846 -200.727173 
L 448.236865 -199.640091 
L 452.764883 -198.759637 
L 457.292902 -198.051692 
L 461.82092 -197.486551 
L 466.348939 -197.038638 
L 470.876957 -196.686165 
L 475.404976 -196.410764 
L 479.932994 -196.197104 
L 484.461013 -196.032511 
L 488.989031 -195.906607 
L 493.51705 -195.81097 
L 498.045068 -195.738832 
L 502.573087 -195.684798 
L 507.101105 -195.644603 
L 507.101105 -195.538011 
L 507.101105 -195.538011 
L 502.573087 -195.538011 
L 498.045068 -195.538011 
L 493.51705 -195.538011 
L 488.989031 -195.538011 
L 484.461013 -195.538011 
L 479.932994 -195.538011 
L 475.404976 -195.538011 
L 470.876957 -195.538011 
L 466.348939 -195.538011 
L 461.82092 -195.538011 
L 457.292902 -195.538011 
L 452.764883 -195.538011 
L 448.236865 -195.538011 
L 443.708846 -195.538011 
L 439.180828 -195.538011 
L 434.652809 -195.538011 
L 430.124791 -195.538011 
L 425.596772 -195.538011 
L 421.068754 -195.538011 
L 416.540735 -195.538011 
L 412.012717 -195.538011 
L 407.484698 -195.538011 
L 402.95668 -195.538011 
L 398.428661 -195.538011 
L 393.900643 -195.538011 
L 389.372624 -195.538011 
L 384.844606 -195.538011 
L 380.316587 -195.538011 
L 375.788569 -195.538011 
L 371.26055 -195.538011 
L 366.732532 -195.538011 
L 362.204513 -195.538011 
L 357.676494 -195.538011 
L 353.148476 -195.538011 
L 348.620457 -195.538011 
L 344.092439 -195.538011 
L 339.56442 -195.538011 
L 335.036402 -195.538011 
L 330.508383 -195.538011 
L 325.980365 -195.538011 
L 321.452346 -195.538011 
L 316.924328 -195.538011 
L 312.396309 -195.538011 
L 307.868291 -195.538011 
L 303.340272 -195.538011 
L 298.812254 -195.538011 
L 294.284235 -195.538011 
L 289.756217 -195.538011 
L 285.228198 -195.538011 
L 280.70018 -195.538011 
L 276.172161 -195.538011 
L 271.644143 -195.538011 
L 267.116124 -195.538011 
L 262.588106 -195.538011 
L 258.060087 -195.538011 
L 253.532069 -195.538011 
L 249.00405 -195.538011 
L 244.476032 -195.538011 
L 239.948013 -195.538011 
L 235.419995 -195.538011 
L 230.891976 -195.538011 
L 226.363958 -195.538011 
L 221.835939 -195.538011 
L 217.307921 -195.538011 
L 212.779902 -195.538011 
L 208.251884 -195.538011 
L 203.723865 -195.538011 
L 199.195847 -195.538011 
L 194.667828 -195.538011 
L 190.13981 -195.538011 
L 185.611791 -195.538011 
L 181.083773 -195.538011 
L 176.555754 -195.538011 
L 172.027736 -195.538011 
L 167.499717 -195.538011 
L 162.971698 -195.538011 
L 158.44368 -195.538011 
L 153.915661 -195.538011 
L 149.387643 -195.538011 
L 144.859624 -195.538011 
L 140.331606 -195.538011 
L 135.803587 -195.538011 
L 131.275569 -195.538011 
L 126.74755 -195.538011 
L 122.219532 -195.538011 
L 117.691513 -195.538011 
L 113.163495 -195.538011 
L 108.635476 -195.538011 
L 104.107458 -195.538011 
L 99.579439 -195.538011 
L 95.051421 -195.538011 
L 90.523402 -195.538011 
L 85.995384 -195.538011 
L 81.467365 -195.538011 
L 76.939347 -195.538011 
L 72.411328 -195.538011 
L 67.88331 -195.538011 
L 63.355291 -195.538011 
L 58.827273 -195.538011 
z
" id="m1615926e6d" style="stroke:#ff6384;stroke-opacity:0.5;"/>
    </defs>
    <g clip-path="url(#pf5ddef5bdf)">
     <use style="fill:#ff6384;fill-opacity:0.5;stroke:#ff6384;stroke-opacity:0.5;" x="0" xlink:href="#m1615926e6d" y="581.789375"/>
    </g>
   </g>
   <g id="PolyCollection_2">
    <defs>
     <path d="M 88.715257 -195.538011 
L 88.715257 -195.650004 
L 93.024929 -195.692234 
L 97.3346 -195.749007 
L 101.644272 -195.8248 
L 105.953943 -195.925281 
L 110.263614 -196.057565 
L 114.573286 -196.230497 
L 118.882957 -196.454982 
L 123.192629 -196.744335 
L 127.5023 -197.114666 
L 131.811971 -197.585273 
L 136.121643 -198.179047 
L 140.431314 -198.922859 
L 144.740986 -199.847921 
L 149.050657 -200.990079 
L 153.360329 -202.390029 
L 157.67 -204.093399 
L 161.979671 -206.150691 
L 166.289343 -208.617009 
L 170.599014 -211.551575 
L 174.908686 -215.016962 
L 179.218357 -219.078053 
L 183.528028 -223.800667 
L 187.8377 -229.249878 
L 192.147371 -235.488004 
L 196.457043 -242.572312 
L 200.766714 -250.552459 
L 205.076385 -259.467747 
L 209.386057 -269.344261 
L 213.695728 -280.192004 
L 218.0054 -292.002137 
L 222.315071 -304.744465 
L 226.624743 -318.365297 
L 230.934414 -332.785841 
L 235.244085 -347.901251 
L 239.553757 -363.580456 
L 243.863428 -379.666871 
L 248.1731 -395.980052 
L 252.482771 -412.31833 
L 256.792442 -428.4624 
L 261.102114 -444.179822 
L 265.411785 -459.230303 
L 269.721457 -473.371627 
L 274.031128 -486.366018 
L 278.3408 -497.986726 
L 282.650471 -508.02457 
L 286.960142 -516.294181 
L 291.269814 -522.639693 
L 295.579485 -526.939623 
L 299.889157 -529.110739 
L 304.198828 -529.110739 
L 308.508499 -526.939623 
L 312.818171 -522.639693 
L 317.127842 -516.294181 
L 321.437514 -508.02457 
L 325.747185 -497.986726 
L 330.056856 -486.366018 
L 334.366528 -473.371627 
L 338.676199 -459.230303 
L 342.985871 -444.179822 
L 347.295542 -428.4624 
L 351.605214 -412.31833 
L 355.914885 -395.980052 
L 360.224556 -379.666871 
L 364.534228 -363.580456 
L 368.843899 -347.901251 
L 373.153571 -332.785841 
L 377.463242 -318.365297 
L 381.772913 -304.744465 
L 386.082585 -292.002137 
L 390.392256 -280.192004 
L 394.701928 -269.344261 
L 399.011599 -259.467747 
L 403.321271 -250.552459 
L 407.630942 -242.572312 
L 411.940613 -235.488004 
L 416.250285 -229.249878 
L 420.559956 -223.800667 
L 424.869628 -219.078053 
L 429.179299 -215.016962 
L 433.48897 -211.551575 
L 437.798642 -208.617009 
L 442.108313 -206.150691 
L 446.417985 -204.093399 
L 450.727656 -202.390029 
L 455.037327 -200.990079 
L 459.346999 -199.847921 
L 463.65667 -198.922859 
L 467.966342 -198.179047 
L 472.276013 -197.585273 
L 476.585685 -197.114666 
L 480.895356 -196.744335 
L 485.205027 -196.454982 
L 489.514699 -196.230497 
L 493.82437 -196.057565 
L 498.134042 -195.925281 
L 502.443713 -195.8248 
L 506.753384 -195.749007 
L 511.063056 -195.692234 
L 515.372727 -195.650004 
L 515.372727 -195.538011 
L 515.372727 -195.538011 
L 511.063056 -195.538011 
L 506.753384 -195.538011 
L 502.443713 -195.538011 
L 498.134042 -195.538011 
L 493.82437 -195.538011 
L 489.514699 -195.538011 
L 485.205027 -195.538011 
L 480.895356 -195.538011 
L 476.585685 -195.538011 
L 472.276013 -195.538011 
L 467.966342 -195.538011 
L 463.65667 -195.538011 
L 459.346999 -195.538011 
L 455.037327 -195.538011 
L 450.727656 -195.538011 
L 446.417985 -195.538011 
L 442.108313 -195.538011 
L 437.798642 -195.538011 
L 433.48897 -195.538011 
L 429.179299 -195.538011 
L 424.869628 -195.538011 
L 420.559956 -195.538011 
L 416.250285 -195.538011 
L 411.940613 -195.538011 
L 407.630942 -195.538011 
L 403.321271 -195.538011 
L 399.011599 -195.538011 
L 394.701928 -195.538011 
L 390.392256 -195.538011 
L 386.082585 -195.538011 
L 381.772913 -195.538011 
L 377.463242 -195.538011 
L 373.153571 -195.538011 
L 368.843899 -195.538011 
L 364.534228 -195.538011 
L 360.224556 -195.538011 
L 355.914885 -195.538011 
L 351.605214 -195.538011 
L 347.295542 -195.538011 
L 342.985871 -195.538011 
L 338.676199 -195.538011 
L 334.366528 -195.538011 
L 330.056856 -195.538011 
L 325.747185 -195.538011 
L 321.437514 -195.538011 
L 317.127842 -195.538011 
L 312.818171 -195.538011 
L 308.508499 -195.538011 
L 304.198828 -195.538011 
L 299.889157 -195.538011 
L 295.579485 -195.538011 
L 291.269814 -195.538011 
L 286.960142 -195.538011 
L 282.650471 -195.538011 
L 278.3408 -195.538011 
L 274.031128 -195.538011 
L 269.721457 -195.538011 
L 265.411785 -195.538011 
L 261.102114 -195.538011 
L 256.792442 -195.538011 
L 252.482771 -195.538011 
L 248.1731 -195.538011 
L 243.863428 -195.538011 
L 239.553757 -195.538011 
L 235.244085 -195.538011 
L 230.934414 -195.538011 
L 226.624743 -195.538011 
L 222.315071 -195.538011 
L 218.0054 -195.538011 
L 213.695728 -195.538011 
L 209.386057 -195.538011 
L 205.076385 -195.538011 
L 200.766714 -195.538011 
L 196.457043 -195.538011 
L 192.147371 -195.538011 
L 187.8377 -195.538011 
L 183.528028 -195.538011 
L 179.218357 -195.538011 
L 174.908686 -195.538011 
L 170.599014 -195.538011 
L 166.289343 -195.538011 
L 161.979671 -195.538011 
L 157.67 -195.538011 
L 153.360329 -195.538011 
L 149.050657 -195.538011 
L 144.740986 -195.538011 
L 140.431314 -195.538011 
L 136.121643 -195.538011 
L 131.811971 -195.538011 
L 127.5023 -195.538011 
L 123.192629 -195.538011 
L 118.882957 -195.538011 
L 114.573286 -195.538011 
L 110.263614 -195.538011 
L 105.953943 -195.538011 
L 101.644272 -195.538011 
L 97.3346 -195.538011 
L 93.024929 -195.538011 
L 88.715257 -195.538011 
z
" id="m065f81a086" style="stroke:#36a2eb;stroke-opacity:0.5;"/>
    </defs>
    <g clip-path="url(#pf5ddef5bdf)">
     <use style="fill:#36a2eb;fill-opacity:0.5;stroke:#36a2eb;stroke-opacity:0.5;" x="0" xlink:href="#m065f81a086" y="581.789375"/>
    </g>
   </g>
   <g id="line2d_1">
    <path clip-path="url(#pf5ddef5bdf)" d="M 58.827273 386.144772 
L 63.355291 386.104577 
L 67.88331 386.050543 
L 72.411328 385.978405 
L 76.939347 385.882768 
L 81.467365 385.756864 
L 85.995384 385.592271 
L 90.523402 385.378611 
L 95.051421 385.10321 
L 99.579439 384.750737 
L 104.107458 384.302824 
L 108.635476 383.737683 
L 113.163495 383.029738 
L 117.691513 382.149284 
L 122.219532 381.062202 
L 126.74755 379.72976 
L 131.275569 378.108528 
L 135.803587 376.150442 
L 140.331606 373.803052 
L 144.859624 371.009996 
L 149.387643 367.711714 
L 153.915661 363.846454 
L 158.44368 359.351571 
L 162.971698 354.165128 
L 167.499717 348.227813 
L 172.027736 341.48512 
L 176.555754 333.889786 
L 181.083773 325.404405 
L 185.611791 316.00415 
L 190.13981 305.6795 
L 194.667828 294.438866 
L 199.195847 282.310991 
L 203.723865 269.346974 
L 208.251884 255.621807 
L 212.779902 241.235283 
L 217.307921 226.31215 
L 221.835939 211.001444 
L 226.363958 195.474906 
L 230.891976 179.924482 
L 235.419995 164.5589 
L 239.948013 149.599393 
L 244.476032 135.274666 
L 249.00405 121.815256 
L 253.532069 109.447472 
L 258.060087 98.38713 
L 262.588106 88.833324 
L 267.116124 80.962485 
L 271.644143 74.922961 
L 276.172161 70.83038 
L 280.70018 68.763959 
L 285.228198 68.763959 
L 289.756217 70.83038 
L 294.284235 74.922961 
L 298.812254 80.962485 
L 303.340272 88.833324 
L 307.868291 98.38713 
L 312.396309 109.447472 
L 316.924328 121.815256 
L 321.452346 135.274666 
L 325.980365 149.599393 
L 330.508383 164.5589 
L 335.036402 179.924482 
L 339.56442 195.474906 
L 344.092439 211.001444 
L 348.620457 226.31215 
L 353.148476 241.235283 
L 357.676494 255.621807 
L 362.204513 269.346974 
L 366.732532 282.310991 
L 371.26055 294.438866 
L 375.788569 305.6795 
L 380.316587 316.00415 
L 384.844606 325.404405 
L 389.372624 333.889786 
L 393.900643 341.48512 
L 398.428661 348.227813 
L 402.95668 354.165128 
L 407.484698 359.351571 
L 412.012717 363.846454 
L 416.540735 367.711714 
L 421.068754 371.009996 
L 425.596772 373.803052 
L 430.124791 376.150442 
L 434.652809 378.108528 
L 439.180828 379.72976 
L 443.708846 381.062202 
L 448.236865 382.149284 
L 452.764883 383.029738 
L 457.292902 383.737683 
L 461.82092 384.302824 
L 466.348939 384.750737 
L 470.876957 385.10321 
L 475.404976 385.378611 
L 479.932994 385.592271 
L 484.461013 385.756864 
L 488.989031 385.882768 
L 493.51705 385.978405 
L 498.045068 386.050543 
L 502.573087 386.104577 
L 507.101105 386.144772 
" style="fill:none;stroke:#ff6384;stroke-linecap:square;"/>
   </g>
   <g id="line2d_2">
    <path clip-path="url(#pf5ddef5bdf)" d="M 88.715257 386.139371 
L 93.024929 386.097141 
L 97.3346 386.040368 
L 101.644272 385.964575 
L 105.953943 385.864094 
L 110.263614 385.73181 
L 114.573286 385.558878 
L 118.882957 385.334393 
L 123.192629 385.04504 
L 127.5023 384.674709 
L 131.811971 384.204102 
L 136.121643 383.610328 
L 140.431314 382.866516 
L 144.740986 381.941454 
L 149.050657 380.799296 
L 153.360329 379.399346 
L 157.67 377.695976 
L 161.979671 375.638684 
L 166.289343 373.172366 
L 170.599014 370.2378 
L 174.908686 366.772413 
L 179.218357 362.711322 
L 183.528028 357.988708 
L 187.8377 352.539497 
L 192.147371 346.301371 
L 196.457043 339.217063 
L 200.766714 331.236916 
L 205.076385 322.321628 
L 209.386057 312.445114 
L 213.695728 301.597371 
L 218.0054 289.787238 
L 222.315071 277.04491 
L 226.624743 263.424078 
L 230.934414 249.003534 
L 235.244085 233.888124 
L 239.553757 218.208919 
L 243.863428 202.122504 
L 248.1731 185.809323 
L 252.482771 169.471045 
L 256.792442 153.326975 
L 261.102114 137.609553 
L 265.411785 122.559072 
L 269.721457 108.417748 
L 274.031128 95.423357 
L 278.3408 83.802649 
L 282.650471 73.764805 
L 286.960142 65.495194 
L 291.269814 59.149682 
L 295.579485 54.849752 
L 299.889157 52.678636 
L 304.198828 52.678636 
L 308.508499 54.849752 
L 312.818171 59.149682 
L 317.127842 65.495194 
L 321.437514 73.764805 
L 325.747185 83.802649 
L 330.056856 95.423357 
L 334.366528 108.417748 
L 338.676199 122.559072 
L 342.985871 137.609553 
L 347.295542 153.326975 
L 351.605214 169.471045 
L 355.914885 185.809323 
L 360.224556 202.122504 
L 364.534228 218.208919 
L 368.843899 233.888124 
L 373.153571 249.003534 
L 377.463242 263.424078 
L 381.772913 277.04491 
L 386.082585 289.787238 
L 390.392256 301.597371 
L 394.701928 312.445114 
L 399.011599 322.321628 
L 403.321271 331.236916 
L 407.630942 339.217063 
L 411.940613 346.301371 
L 416.250285 352.539497 
L 420.559956 357.988708 
L 424.869628 362.711322 
L 429.179299 366.772413 
L 433.48897 370.2378 
L 437.798642 373.172366 
L 442.108313 375.638684 
L 446.417985 377.695976 
L 450.727656 379.399346 
L 455.037327 380.799296 
L 459.346999 381.941454 
L 463.65667 382.866516 
L 467.966342 383.610328 
L 472.276013 384.204102 
L 476.585685 384.674709 
L 480.895356 385.04504 
L 485.205027 385.334393 
L 489.514699 385.558878 
L 493.82437 385.73181 
L 498.134042 385.864094 
L 502.443713 385.964575 
L 506.753384 386.040368 
L 511.063056 386.097141 
L 515.372727 386.139371 
" style="fill:none;stroke:#36a2eb;stroke-linecap:square;"/>
   </g>
   <g id="patch_3">
    <path d="M 36 402.93 
L 538.2 402.93 
" style="fill:none;stroke:#000000;stroke-linecap:square;stroke-linejoin:miter;stroke-width:0.8;"/>
   </g>
   <g id="legend_1">
    <g id="patch_4">
     <path d="M 414.919063 88.29875 
L 528.4 88.29875 
Q 531.2 88.29875 531.2 85.49875 
L 531.2 45.8 
Q 531.2 43 528.4 43 
L 414.919063 43 
Q 412.119063 43 412.119063 45.8 
L 412.119063 85.49875 
Q 412.119063 88.29875 414.919063 88.29875 
z
" style="fill:#ffffff;opacity:0.8;stroke:#cccccc;stroke-linejoin:miter;"/>
    </g>
    <g id="patch_5">
     <path d="M 417.719063 59.237813 
L 445.719063 59.237813 
L 445.719063 49.437813 
L 417.719063 49.437813 
z
" style="fill:#ff6384;opacity:0.5;stroke:#ff6384;stroke-linejoin:miter;"/>
    </g>
    <g id="text_1">
     <!-- sidemenu -->
     <defs>
      <path d="M 44.28125 53.078125 
L 44.28125 44.578125 
Q 40.484375 46.53125 36.375 47.5 
Q 32.28125 48.484375 27.875 48.484375 
Q 21.1875 48.484375 17.84375 46.4375 
Q 14.5 44.390625 14.5 40.28125 
Q 14.5 37.15625 16.890625 35.375 
Q 19.28125 33.59375 26.515625 31.984375 
L 29.59375 31.296875 
Q 39.15625 29.25 43.1875 25.515625 
Q 47.21875 21.78125 47.21875 15.09375 
Q 47.21875 7.46875 41.1875 3.015625 
Q 35.15625 -1.421875 24.609375 -1.421875 
Q 20.21875 -1.421875 15.453125 -0.5625 
Q 10.6875 0.296875 5.421875 2 
L 5.421875 11.28125 
Q 10.40625 8.6875 15.234375 7.390625 
Q 20.0625 6.109375 24.8125 6.109375 
Q 31.15625 6.109375 34.5625 8.28125 
Q 37.984375 10.453125 37.984375 14.40625 
Q 37.984375 18.0625 35.515625 20.015625 
Q 33.0625 21.96875 24.703125 23.78125 
L 21.578125 24.515625 
Q 13.234375 26.265625 9.515625 29.90625 
Q 5.8125 33.546875 5.8125 39.890625 
Q 5.8125 47.609375 11.28125 51.796875 
Q 16.75 56 26.8125 56 
Q 31.78125 56 36.171875 55.265625 
Q 40.578125 54.546875 44.28125 53.078125 
z
" id="DejaVuSans-115"/>
      <path d="M 9.421875 54.6875 
L 18.40625 54.6875 
L 18.40625 0 
L 9.421875 0 
z
M 9.421875 75.984375 
L 18.40625 75.984375 
L 18.40625 64.59375 
L 9.421875 64.59375 
z
" id="DejaVuSans-105"/>
      <path d="M 45.40625 46.390625 
L 45.40625 75.984375 
L 54.390625 75.984375 
L 54.390625 0 
L 45.40625 0 
L 45.40625 8.203125 
Q 42.578125 3.328125 38.25 0.953125 
Q 33.9375 -1.421875 27.875 -1.421875 
Q 17.96875 -1.421875 11.734375 6.484375 
Q 5.515625 14.40625 5.515625 27.296875 
Q 5.515625 40.1875 11.734375 48.09375 
Q 17.96875 56 27.875 56 
Q 33.9375 56 38.25 53.625 
Q 42.578125 51.265625 45.40625 46.390625 
z
M 14.796875 27.296875 
Q 14.796875 17.390625 18.875 11.75 
Q 22.953125 6.109375 30.078125 6.109375 
Q 37.203125 6.109375 41.296875 11.75 
Q 45.40625 17.390625 45.40625 27.296875 
Q 45.40625 37.203125 41.296875 42.84375 
Q 37.203125 48.484375 30.078125 48.484375 
Q 22.953125 48.484375 18.875 42.84375 
Q 14.796875 37.203125 14.796875 27.296875 
z
" id="DejaVuSans-100"/>
      <path d="M 56.203125 29.59375 
L 56.203125 25.203125 
L 14.890625 25.203125 
Q 15.484375 15.921875 20.484375 11.0625 
Q 25.484375 6.203125 34.421875 6.203125 
Q 39.59375 6.203125 44.453125 7.46875 
Q 49.3125 8.734375 54.109375 11.28125 
L 54.109375 2.78125 
Q 49.265625 0.734375 44.1875 -0.34375 
Q 39.109375 -1.421875 33.890625 -1.421875 
Q 20.796875 -1.421875 13.15625 6.1875 
Q 5.515625 13.8125 5.515625 26.8125 
Q 5.515625 40.234375 12.765625 48.109375 
Q 20.015625 56 32.328125 56 
Q 43.359375 56 49.78125 48.890625 
Q 56.203125 41.796875 56.203125 29.59375 
z
M 47.21875 32.234375 
Q 47.125 39.59375 43.09375 43.984375 
Q 39.0625 48.390625 32.421875 48.390625 
Q 24.90625 48.390625 20.390625 44.140625 
Q 15.875 39.890625 15.1875 32.171875 
z
" id="DejaVuSans-101"/>
      <path d="M 52 44.1875 
Q 55.375 50.25 60.0625 53.125 
Q 64.75 56 71.09375 56 
Q 79.640625 56 84.28125 50.015625 
Q 88.921875 44.046875 88.921875 33.015625 
L 88.921875 0 
L 79.890625 0 
L 79.890625 32.71875 
Q 79.890625 40.578125 77.09375 44.375 
Q 74.3125 48.1875 68.609375 48.1875 
Q 61.625 48.1875 57.5625 43.546875 
Q 53.515625 38.921875 53.515625 30.90625 
L 53.515625 0 
L 44.484375 0 
L 44.484375 32.71875 
Q 44.484375 40.625 41.703125 44.40625 
Q 38.921875 48.1875 33.109375 48.1875 
Q 26.21875 48.1875 22.15625 43.53125 
Q 18.109375 38.875 18.109375 30.90625 
L 18.109375 0 
L 9.078125 0 
L 9.078125 54.6875 
L 18.109375 54.6875 
L 18.109375 46.1875 
Q 21.1875 51.21875 25.484375 53.609375 
Q 29.78125 56 35.6875 56 
Q 41.65625 56 45.828125 52.96875 
Q 50 49.953125 52 44.1875 
z
" id="DejaVuSans-109"/>
      <path d="M 54.890625 33.015625 
L 54.890625 0 
L 45.90625 0 
L 45.90625 32.71875 
Q 45.90625 40.484375 42.875 44.328125 
Q 39.84375 48.1875 33.796875 48.1875 
Q 26.515625 48.1875 22.3125 43.546875 
Q 18.109375 38.921875 18.109375 30.90625 
L 18.109375 0 
L 9.078125 0 
L 9.078125 54.6875 
L 18.109375 54.6875 
L 18.109375 46.1875 
Q 21.34375 51.125 25.703125 53.5625 
Q 30.078125 56 35.796875 56 
Q 45.21875 56 50.046875 50.171875 
Q 54.890625 44.34375 54.890625 33.015625 
z
" id="DejaVuSans-110"/>
      <path d="M 8.5 21.578125 
L 8.5 54.6875 
L 17.484375 54.6875 
L 17.484375 21.921875 
Q 17.484375 14.15625 20.5 10.265625 
Q 23.53125 6.390625 29.59375 6.390625 
Q 36.859375 6.390625 41.078125 11.03125 
Q 45.3125 15.671875 45.3125 23.6875 
L 45.3125 54.6875 
L 54.296875 54.6875 
L 54.296875 0 
L 45.3125 0 
L 45.3125 8.40625 
Q 42.046875 3.421875 37.71875 1 
Q 33.40625 -1.421875 27.6875 -1.421875 
Q 18.265625 -1.421875 13.375 4.4375 
Q 8.5 10.296875 8.5 21.578125 
z
M 31.109375 56 
z
" id="DejaVuSans-117"/>
     </defs>
     <g transform="translate(456.919063 59.237813)scale(0.14 -0.14)">
      <use xlink:href="#DejaVuSans-115"/>
      <use x="52.099609" xlink:href="#DejaVuSans-105"/>
      <use x="79.882812" xlink:href="#DejaVuSans-100"/>
      <use x="143.359375" xlink:href="#DejaVuSans-101"/>
      <use x="204.882812" xlink:href="#DejaVuSans-109"/>
      <use x="302.294922" xlink:href="#DejaVuSans-101"/>
      <use x="363.818359" xlink:href="#DejaVuSans-110"/>
      <use x="427.197266" xlink:href="#DejaVuSans-117"/>
     </g>
    </g>
    <g id="patch_6">
     <path d="M 417.719063 79.787188 
L 445.719063 79.787188 
L 445.719063 69.987188 
L 417.719063 69.987188 
z
" style="fill:#36a2eb;opacity:0.5;stroke:#36a2eb;stroke-linejoin:miter;"/>
    </g>
    <g id="text_2">
     <!-- tabbar -->
     <defs>
      <path d="M 18.3125 70.21875 
L 18.3125 54.6875 
L 36.8125 54.6875 
L 36.8125 47.703125 
L 18.3125 47.703125 
L 18.3125 18.015625 
Q 18.3125 11.328125 20.140625 9.421875 
Q 21.96875 7.515625 27.59375 7.515625 
L 36.8125 7.515625 
L 36.8125 0 
L 27.59375 0 
Q 17.1875 0 13.234375 3.875 
Q 9.28125 7.765625 9.28125 18.015625 
L 9.28125 47.703125 
L 2.6875 47.703125 
L 2.6875 54.6875 
L 9.28125 54.6875 
L 9.28125 70.21875 
z
" id="DejaVuSans-116"/>
      <path d="M 34.28125 27.484375 
Q 23.390625 27.484375 19.1875 25 
Q 14.984375 22.515625 14.984375 16.5 
Q 14.984375 11.71875 18.140625 8.90625 
Q 21.296875 6.109375 26.703125 6.109375 
Q 34.1875 6.109375 38.703125 11.40625 
Q 43.21875 16.703125 43.21875 25.484375 
L 43.21875 27.484375 
z
M 52.203125 31.203125 
L 52.203125 0 
L 43.21875 0 
L 43.21875 8.296875 
Q 40.140625 3.328125 35.546875 0.953125 
Q 30.953125 -1.421875 24.3125 -1.421875 
Q 15.921875 -1.421875 10.953125 3.296875 
Q 6 8.015625 6 15.921875 
Q 6 25.140625 12.171875 29.828125 
Q 18.359375 34.515625 30.609375 34.515625 
L 43.21875 34.515625 
L 43.21875 35.40625 
Q 43.21875 41.609375 39.140625 45 
Q 35.0625 48.390625 27.6875 48.390625 
Q 23 48.390625 18.546875 47.265625 
Q 14.109375 46.140625 10.015625 43.890625 
L 10.015625 52.203125 
Q 14.9375 54.109375 19.578125 55.046875 
Q 24.21875 56 28.609375 56 
Q 40.484375 56 46.34375 49.84375 
Q 52.203125 43.703125 52.203125 31.203125 
z
" id="DejaVuSans-97"/>
      <path d="M 48.6875 27.296875 
Q 48.6875 37.203125 44.609375 42.84375 
Q 40.53125 48.484375 33.40625 48.484375 
Q 26.265625 48.484375 22.1875 42.84375 
Q 18.109375 37.203125 18.109375 27.296875 
Q 18.109375 17.390625 22.1875 11.75 
Q 26.265625 6.109375 33.40625 6.109375 
Q 40.53125 6.109375 44.609375 11.75 
Q 48.6875 17.390625 48.6875 27.296875 
z
M 18.109375 46.390625 
Q 20.953125 51.265625 25.265625 53.625 
Q 29.59375 56 35.59375 56 
Q 45.5625 56 51.78125 48.09375 
Q 58.015625 40.1875 58.015625 27.296875 
Q 58.015625 14.40625 51.78125 6.484375 
Q 45.5625 -1.421875 35.59375 -1.421875 
Q 29.59375 -1.421875 25.265625 0.953125 
Q 20.953125 3.328125 18.109375 8.203125 
L 18.109375 0 
L 9.078125 0 
L 9.078125 75.984375 
L 18.109375 75.984375 
z
" id="DejaVuSans-98"/>
      <path d="M 41.109375 46.296875 
Q 39.59375 47.171875 37.8125 47.578125 
Q 36.03125 48 33.890625 48 
Q 26.265625 48 22.1875 43.046875 
Q 18.109375 38.09375 18.109375 28.8125 
L 18.109375 0 
L 9.078125 0 
L 9.078125 54.6875 
L 18.109375 54.6875 
L 18.109375 46.1875 
Q 20.953125 51.171875 25.484375 53.578125 
Q 30.03125 56 36.53125 56 
Q 37.453125 56 38.578125 55.875 
Q 39.703125 55.765625 41.0625 55.515625 
z
" id="DejaVuSans-114"/>
     </defs>
     <g transform="translate(456.919063 79.787188)scale(0.14 -0.14)">
      <use xlink:href="#DejaVuSans-116"/>
      <use x="39.208984" xlink:href="#DejaVuSans-97"/>
      <use x="100.488281" xlink:href="#DejaVuSans-98"/>
      <use x="163.964844" xlink:href="#DejaVuSans-98"/>
      <use x="227.441406" xlink:href="#DejaVuSans-97"/>
      <use x="288.720703" xlink:href="#DejaVuSans-114"/>
     </g>
    </g>
   </g>
  </g>
  <g id="axes_2">
   <g id="patch_7">
    <path d="M 36 525.24 
L 538.2 525.24 
L 538.2 402.93 
L 36 402.93 
z
" style="fill:none;"/>
   </g>
   <g id="patch_8">
    <path clip-path="url(#pfe5a74022f)" d="M 173.1371 519.680455 
L 392.791278 519.680455 
L 392.791278 482.616818 
L 173.1371 482.616818 
z
" style="fill:#ff6384;opacity:0.5;"/>
   </g>
   <g id="patch_9">
    <path clip-path="url(#pfe5a74022f)" d="M 197.512912 445.553182 
L 406.575072 445.553182 
L 406.575072 408.489545 
L 197.512912 408.489545 
z
" style="fill:#36a2eb;opacity:0.5;"/>
   </g>
   <g id="matplotlib.axis_1">
    <g id="xtick_1">
     <g id="line2d_3">
      <defs>
       <path d="M 0 0 
L 0 3.5 
" id="m58b1022b15" style="stroke:#000000;stroke-width:0.8;"/>
      </defs>
      <g>
       <use style="stroke:#000000;stroke-width:0.8;" x="70.360667" xlink:href="#m58b1022b15" y="525.24"/>
      </g>
     </g>
     <g id="text_3">
      <!-- 4.25 -->
      <defs>
       <path d="M 37.796875 64.3125 
L 12.890625 25.390625 
L 37.796875 25.390625 
z
M 35.203125 72.90625 
L 47.609375 72.90625 
L 47.609375 25.390625 
L 58.015625 25.390625 
L 58.015625 17.1875 
L 47.609375 17.1875 
L 47.609375 0 
L 37.796875 0 
L 37.796875 17.1875 
L 4.890625 17.1875 
L 4.890625 26.703125 
z
" id="DejaVuSans-52"/>
       <path d="M 10.6875 12.40625 
L 21 12.40625 
L 21 0 
L 10.6875 0 
z
" id="DejaVuSans-46"/>
       <path d="M 19.1875 8.296875 
L 53.609375 8.296875 
L 53.609375 0 
L 7.328125 0 
L 7.328125 8.296875 
Q 12.9375 14.109375 22.625 23.890625 
Q 32.328125 33.6875 34.8125 36.53125 
Q 39.546875 41.84375 41.421875 45.53125 
Q 43.3125 49.21875 43.3125 52.78125 
Q 43.3125 58.59375 39.234375 62.25 
Q 35.15625 65.921875 28.609375 65.921875 
Q 23.96875 65.921875 18.8125 64.3125 
Q 13.671875 62.703125 7.8125 59.421875 
L 7.8125 69.390625 
Q 13.765625 71.78125 18.9375 73 
Q 24.125 74.21875 28.421875 74.21875 
Q 39.75 74.21875 46.484375 68.546875 
Q 53.21875 62.890625 53.21875 53.421875 
Q 53.21875 48.921875 51.53125 44.890625 
Q 49.859375 40.875 45.40625 35.40625 
Q 44.1875 33.984375 37.640625 27.21875 
Q 31.109375 20.453125 19.1875 8.296875 
z
" id="DejaVuSans-50"/>
       <path d="M 10.796875 72.90625 
L 49.515625 72.90625 
L 49.515625 64.59375 
L 19.828125 64.59375 
L 19.828125 46.734375 
Q 21.96875 47.46875 24.109375 47.828125 
Q 26.265625 48.1875 28.421875 48.1875 
Q 40.625 48.1875 47.75 41.5 
Q 54.890625 34.8125 54.890625 23.390625 
Q 54.890625 11.625 47.5625 5.09375 
Q 40.234375 -1.421875 26.90625 -1.421875 
Q 22.3125 -1.421875 17.546875 -0.640625 
Q 12.796875 0.140625 7.71875 1.703125 
L 7.71875 11.625 
Q 12.109375 9.234375 16.796875 8.0625 
Q 21.484375 6.890625 26.703125 6.890625 
Q 35.15625 6.890625 40.078125 11.328125 
Q 45.015625 15.765625 45.015625 23.390625 
Q 45.015625 31 40.078125 35.4375 
Q 35.15625 39.890625 26.703125 39.890625 
Q 22.75 39.890625 18.8125 39.015625 
Q 14.890625 38.140625 10.796875 36.28125 
z
" id="DejaVuSans-53"/>
      </defs>
      <g transform="translate(54.77473 542.877813)scale(0.14 -0.14)">
       <use xlink:href="#DejaVuSans-52"/>
       <use x="63.623047" xlink:href="#DejaVuSans-46"/>
       <use x="95.410156" xlink:href="#DejaVuSans-50"/>
       <use x="159.033203" xlink:href="#DejaVuSans-53"/>
      </g>
     </g>
    </g>
    <g id="xtick_2">
     <g id="line2d_4">
      <g>
       <use style="stroke:#000000;stroke-width:0.8;" x="138.502822" xlink:href="#m58b1022b15" y="525.24"/>
      </g>
     </g>
     <g id="text_4">
      <!-- 4.50 -->
      <defs>
       <path d="M 31.78125 66.40625 
Q 24.171875 66.40625 20.328125 58.90625 
Q 16.5 51.421875 16.5 36.375 
Q 16.5 21.390625 20.328125 13.890625 
Q 24.171875 6.390625 31.78125 6.390625 
Q 39.453125 6.390625 43.28125 13.890625 
Q 47.125 21.390625 47.125 36.375 
Q 47.125 51.421875 43.28125 58.90625 
Q 39.453125 66.40625 31.78125 66.40625 
z
M 31.78125 74.21875 
Q 44.046875 74.21875 50.515625 64.515625 
Q 56.984375 54.828125 56.984375 36.375 
Q 56.984375 17.96875 50.515625 8.265625 
Q 44.046875 -1.421875 31.78125 -1.421875 
Q 19.53125 -1.421875 13.0625 8.265625 
Q 6.59375 17.96875 6.59375 36.375 
Q 6.59375 54.828125 13.0625 64.515625 
Q 19.53125 74.21875 31.78125 74.21875 
z
" id="DejaVuSans-48"/>
      </defs>
      <g transform="translate(122.916884 542.877813)scale(0.14 -0.14)">
       <use xlink:href="#DejaVuSans-52"/>
       <use x="63.623047" xlink:href="#DejaVuSans-46"/>
       <use x="95.410156" xlink:href="#DejaVuSans-53"/>
       <use x="159.033203" xlink:href="#DejaVuSans-48"/>
      </g>
     </g>
    </g>
    <g id="xtick_3">
     <g id="line2d_5">
      <g>
       <use style="stroke:#000000;stroke-width:0.8;" x="206.644976" xlink:href="#m58b1022b15" y="525.24"/>
      </g>
     </g>
     <g id="text_5">
      <!-- 4.75 -->
      <defs>
       <path d="M 8.203125 72.90625 
L 55.078125 72.90625 
L 55.078125 68.703125 
L 28.609375 0 
L 18.3125 0 
L 43.21875 64.59375 
L 8.203125 64.59375 
z
" id="DejaVuSans-55"/>
      </defs>
      <g transform="translate(191.059039 542.877813)scale(0.14 -0.14)">
       <use xlink:href="#DejaVuSans-52"/>
       <use x="63.623047" xlink:href="#DejaVuSans-46"/>
       <use x="95.410156" xlink:href="#DejaVuSans-55"/>
       <use x="159.033203" xlink:href="#DejaVuSans-53"/>
      </g>
     </g>
    </g>
    <g id="xtick_4">
     <g id="line2d_6">
      <g>
       <use style="stroke:#000000;stroke-width:0.8;" x="274.787131" xlink:href="#m58b1022b15" y="525.24"/>
      </g>
     </g>
     <g id="text_6">
      <!-- 5.00 -->
      <g transform="translate(259.201193 542.877813)scale(0.14 -0.14)">
       <use xlink:href="#DejaVuSans-53"/>
       <use x="63.623047" xlink:href="#DejaVuSans-46"/>
       <use x="95.410156" xlink:href="#DejaVuSans-48"/>
       <use x="159.033203" xlink:href="#DejaVuSans-48"/>
      </g>
     </g>
    </g>
    <g id="xtick_5">
     <g id="line2d_7">
      <g>
       <use style="stroke:#000000;stroke-width:0.8;" x="342.929285" xlink:href="#m58b1022b15" y="525.24"/>
      </g>
     </g>
     <g id="text_7">
      <!-- 5.25 -->
      <g transform="translate(327.343347 542.877813)scale(0.14 -0.14)">
       <use xlink:href="#DejaVuSans-53"/>
       <use x="63.623047" xlink:href="#DejaVuSans-46"/>
       <use x="95.410156" xlink:href="#DejaVuSans-50"/>
       <use x="159.033203" xlink:href="#DejaVuSans-53"/>
      </g>
     </g>
    </g>
    <g id="xtick_6">
     <g id="line2d_8">
      <g>
       <use style="stroke:#000000;stroke-width:0.8;" x="411.071439" xlink:href="#m58b1022b15" y="525.24"/>
      </g>
     </g>
     <g id="text_8">
      <!-- 5.50 -->
      <g transform="translate(395.485502 542.877813)scale(0.14 -0.14)">
       <use xlink:href="#DejaVuSans-53"/>
       <use x="63.623047" xlink:href="#DejaVuSans-46"/>
       <use x="95.410156" xlink:href="#DejaVuSans-53"/>
       <use x="159.033203" xlink:href="#DejaVuSans-48"/>
      </g>
     </g>
    </g>
    <g id="xtick_7">
     <g id="line2d_9">
      <g>
       <use style="stroke:#000000;stroke-width:0.8;" x="479.213594" xlink:href="#m58b1022b15" y="525.24"/>
      </g>
     </g>
     <g id="text_9">
      <!-- 5.75 -->
      <g transform="translate(463.627656 542.877813)scale(0.14 -0.14)">
       <use xlink:href="#DejaVuSans-53"/>
       <use x="63.623047" xlink:href="#DejaVuSans-46"/>
       <use x="95.410156" xlink:href="#DejaVuSans-55"/>
       <use x="159.033203" xlink:href="#DejaVuSans-53"/>
      </g>
     </g>
    </g>
   </g>
   <g id="line2d_10">
    <path clip-path="url(#pfe5a74022f)" d="M 282.964189 525.24 
L 282.964189 402.93 
" style="fill:none;stroke:#ff6384;stroke-dasharray:5.55,2.4;stroke-dashoffset:0;stroke-opacity:0.8;stroke-width:1.5;"/>
   </g>
   <g id="line2d_11">
    <path clip-path="url(#pfe5a74022f)" d="M 302.043992 525.24 
L 302.043992 402.93 
" style="fill:none;stroke:#36a2eb;stroke-dasharray:5.55,2.4;stroke-dashoffset:0;stroke-opacity:0.8;stroke-width:1.5;"/>
   </g>
   <g id="patch_10">
    <path d="M 36 525.24 
L 538.2 525.24 
" style="fill:none;stroke:#000000;stroke-linecap:square;stroke-linejoin:miter;stroke-width:0.8;"/>
   </g>
  </g>
 </g>
 <defs>
  <clipPath id="pf5ddef5bdf">
   <rect height="366.93" width="502.2" x="36" y="36"/>
  </clipPath>
  <clipPath id="pfe5a74022f">
   <rect height="122.31" width="502.2" x="36" y="402.93"/>
  </clipPath>
 </defs>
</svg>
