<?xml version="1.0" encoding="utf-8" standalone="no"?>
<!DOCTYPE svg PUBLIC "-//W3C//DTD SVG 1.1//EN"
  "http://www.w3.org/Graphics/SVG/1.1/DTD/svg11.dtd">
<!-- Created with matplotlib (https://matplotlib.org/) -->
<svg height="581.789375pt" version="1.1" viewBox="0 0 574.2 581.789375" width="574.2pt" xmlns="http://www.w3.org/2000/svg" xmlns:xlink="http://www.w3.org/1999/xlink">
 <defs>
  <style type="text/css">
*{stroke-linecap:butt;stroke-linejoin:round;}
  </style>
 </defs>
 <g id="figure_1">
  <g id="patch_1">
   <path d="M 0 581.789375 
L 574.2 581.789375 
L 574.2 0 
L 0 0 
z
" style="fill:none;"/>
  </g>
  <g id="axes_1">
   <g id="patch_2">
    <path d="M 36 402.93 
L 538.2 402.93 
L 538.2 36 
L 36 36 
z
" style="fill:none;"/>
   </g>
   <g id="PolyCollection_1">
    <defs>
     <path d="M 58.827273 -195.538011 
L 58.827273 -195.64463 
L 63.327816 -195.684835 
L 67.828359 -195.738883 
L 72.328903 -195.81104 
L 76.829446 -195.9067 
L 81.329989 -196.032636 
L 85.830532 -196.197271 
L 90.331076 -196.410985 
L 94.831619 -196.686455 
L 99.332162 -197.039017 
L 103.832705 -197.487044 
L 108.333249 -198.052328 
L 112.833792 -198.760452 
L 117.334335 -199.641129 
L 121.834879 -200.728486 
L 126.335422 -202.061265 
L 130.835965 -203.682908 
L 135.336508 -205.641489 
L 139.837052 -207.989473 
L 144.337595 -210.783236 
L 148.838138 -214.082353 
L 153.338681 -217.94859 
L 157.839225 -222.444611 
L 162.339768 -227.632366 
L 166.840311 -233.571184 
L 171.340855 -240.315583 
L 175.841398 -247.912839 
L 180.341941 -256.400367 
L 184.842484 -265.803001 
L 189.343028 -276.130264 
L 193.843571 -287.373742 
L 198.344114 -299.504686 
L 202.844657 -312.471984 
L 207.345201 -326.200623 
L 211.845744 -340.590788 
L 216.346287 -355.517697 
L 220.846831 -370.832278 
L 225.347374 -386.362745 
L 229.847917 -401.917104 
L 234.34846 -417.286574 
L 238.849004 -432.249866 
L 243.349547 -446.578218 
L 247.85009 -460.041034 
L 252.350633 -472.411948 
L 256.851177 -483.475089 
L 261.35172 -493.031312 
L 265.852263 -500.904143 
L 270.352807 -506.945195 
L 274.85335 -511.038812 
L 279.353893 -513.105756 
L 283.854436 -513.105756 
L 288.35498 -511.038812 
L 292.855523 -506.945195 
L 297.356066 -500.904143 
L 301.856609 -493.031312 
L 306.357153 -483.475089 
L 310.857696 -472.411948 
L 315.358239 -460.041034 
L 319.858783 -446.578218 
L 324.359326 -432.249866 
L 328.859869 -417.286574 
L 333.360412 -401.917104 
L 337.860956 -386.362745 
L 342.361499 -370.832278 
L 346.862042 -355.517697 
L 351.362585 -340.590788 
L 355.863129 -326.200623 
L 360.363672 -312.471984 
L 364.864215 -299.504686 
L 369.364759 -287.373742 
L 373.865302 -276.130264 
L 378.365845 -265.803001 
L 382.866388 -256.400367 
L 387.366932 -247.912839 
L 391.867475 -240.315583 
L 396.368018 -233.571184 
L 400.868561 -227.632366 
L 405.369105 -222.444611 
L 409.869648 -217.94859 
L 414.370191 -214.082353 
L 418.870735 -210.783236 
L 423.371278 -207.989473 
L 427.871821 -205.641489 
L 432.372364 -203.682908 
L 436.872908 -202.061265 
L 441.373451 -200.728486 
L 445.873994 -199.641129 
L 450.374537 -198.760452 
L 454.875081 -198.052328 
L 459.375624 -197.487044 
L 463.876167 -197.039017 
L 468.376711 -196.686455 
L 472.877254 -196.410985 
L 477.377797 -196.197271 
L 481.87834 -196.032636 
L 486.378884 -195.9067 
L 490.879427 -195.81104 
L 495.37997 -195.738883 
L 499.880513 -195.684835 
L 504.381057 -195.64463 
L 504.381057 -195.538011 
L 504.381057 -195.538011 
L 499.880513 -195.538011 
L 495.37997 -195.538011 
L 490.879427 -195.538011 
L 486.378884 -195.538011 
L 481.87834 -195.538011 
L 477.377797 -195.538011 
L 472.877254 -195.538011 
L 468.376711 -195.538011 
L 463.876167 -195.538011 
L 459.375624 -195.538011 
L 454.875081 -195.538011 
L 450.374537 -195.538011 
L 445.873994 -195.538011 
L 441.373451 -195.538011 
L 436.872908 -195.538011 
L 432.372364 -195.538011 
L 427.871821 -195.538011 
L 423.371278 -195.538011 
L 418.870735 -195.538011 
L 414.370191 -195.538011 
L 409.869648 -195.538011 
L 405.369105 -195.538011 
L 400.868561 -195.538011 
L 396.368018 -195.538011 
L 391.867475 -195.538011 
L 387.366932 -195.538011 
L 382.866388 -195.538011 
L 378.365845 -195.538011 
L 373.865302 -195.538011 
L 369.364759 -195.538011 
L 364.864215 -195.538011 
L 360.363672 -195.538011 
L 355.863129 -195.538011 
L 351.362585 -195.538011 
L 346.862042 -195.538011 
L 342.361499 -195.538011 
L 337.860956 -195.538011 
L 333.360412 -195.538011 
L 328.859869 -195.538011 
L 324.359326 -195.538011 
L 319.858783 -195.538011 
L 315.358239 -195.538011 
L 310.857696 -195.538011 
L 306.357153 -195.538011 
L 301.856609 -195.538011 
L 297.356066 -195.538011 
L 292.855523 -195.538011 
L 288.35498 -195.538011 
L 283.854436 -195.538011 
L 279.353893 -195.538011 
L 274.85335 -195.538011 
L 270.352807 -195.538011 
L 265.852263 -195.538011 
L 261.35172 -195.538011 
L 256.851177 -195.538011 
L 252.350633 -195.538011 
L 247.85009 -195.538011 
L 243.349547 -195.538011 
L 238.849004 -195.538011 
L 234.34846 -195.538011 
L 229.847917 -195.538011 
L 225.347374 -195.538011 
L 220.846831 -195.538011 
L 216.346287 -195.538011 
L 211.845744 -195.538011 
L 207.345201 -195.538011 
L 202.844657 -195.538011 
L 198.344114 -195.538011 
L 193.843571 -195.538011 
L 189.343028 -195.538011 
L 184.842484 -195.538011 
L 180.341941 -195.538011 
L 175.841398 -195.538011 
L 171.340855 -195.538011 
L 166.840311 -195.538011 
L 162.339768 -195.538011 
L 157.839225 -195.538011 
L 153.338681 -195.538011 
L 148.838138 -195.538011 
L 144.337595 -195.538011 
L 139.837052 -195.538011 
L 135.336508 -195.538011 
L 130.835965 -195.538011 
L 126.335422 -195.538011 
L 121.834879 -195.538011 
L 117.334335 -195.538011 
L 112.833792 -195.538011 
L 108.333249 -195.538011 
L 103.832705 -195.538011 
L 99.332162 -195.538011 
L 94.831619 -195.538011 
L 90.331076 -195.538011 
L 85.830532 -195.538011 
L 81.329989 -195.538011 
L 76.829446 -195.538011 
L 72.328903 -195.538011 
L 67.828359 -195.538011 
L 63.327816 -195.538011 
L 58.827273 -195.538011 
z
" id="me49046f1b4" style="stroke:#ff6384;stroke-opacity:0.5;"/>
    </defs>
    <g clip-path="url(#pafd15b266d)">
     <use style="fill:#ff6384;fill-opacity:0.5;stroke:#ff6384;stroke-opacity:0.5;" x="0" xlink:href="#me49046f1b4" y="581.789375"/>
    </g>
   </g>
   <g id="PolyCollection_2">
    <defs>
     <path d="M 91.196832 -195.538011 
L 91.196832 -195.650004 
L 95.481437 -195.692234 
L 99.766042 -195.749007 
L 104.050647 -195.8248 
L 108.335252 -195.925281 
L 112.619857 -196.057565 
L 116.904462 -196.230497 
L 121.189067 -196.454982 
L 125.473672 -196.744335 
L 129.758277 -197.114666 
L 134.042882 -197.585273 
L 138.327487 -198.179047 
L 142.612092 -198.922859 
L 146.896697 -199.847921 
L 151.181302 -200.990079 
L 155.465907 -202.390029 
L 159.750512 -204.093399 
L 164.035117 -206.150691 
L 168.319722 -208.617009 
L 172.604327 -211.551575 
L 176.888932 -215.016962 
L 181.173537 -219.078053 
L 185.458142 -223.800667 
L 189.742747 -229.249878 
L 194.027352 -235.488004 
L 198.311957 -242.572312 
L 202.596562 -250.552459 
L 206.881167 -259.467747 
L 211.165772 -269.344261 
L 215.450377 -280.192004 
L 219.734982 -292.002137 
L 224.019587 -304.744465 
L 228.304192 -318.365297 
L 232.588797 -332.785841 
L 236.873402 -347.901251 
L 241.158007 -363.580456 
L 245.442612 -379.666871 
L 249.727217 -395.980052 
L 254.011822 -412.31833 
L 258.296427 -428.4624 
L 262.581032 -444.179822 
L 266.865637 -459.230303 
L 271.150242 -473.371627 
L 275.434847 -486.366018 
L 279.719452 -497.986726 
L 284.004057 -508.02457 
L 288.288662 -516.294181 
L 292.573267 -522.639693 
L 296.857872 -526.939623 
L 301.142477 -529.110739 
L 305.427082 -529.110739 
L 309.711687 -526.939623 
L 313.996292 -522.639693 
L 318.280897 -516.294181 
L 322.565502 -508.02457 
L 326.850107 -497.986726 
L 331.134712 -486.366018 
L 335.419317 -473.371627 
L 339.703922 -459.230303 
L 343.988527 -444.179822 
L 348.273132 -428.4624 
L 352.557737 -412.31833 
L 356.842342 -395.980052 
L 361.126947 -379.666871 
L 365.411552 -363.580456 
L 369.696157 -347.901251 
L 373.980762 -332.785841 
L 378.265367 -318.365297 
L 382.549972 -304.744465 
L 386.834577 -292.002137 
L 391.119182 -280.192004 
L 395.403787 -269.344261 
L 399.688392 -259.467747 
L 403.972997 -250.552459 
L 408.257602 -242.572312 
L 412.542207 -235.488004 
L 416.826812 -229.249878 
L 421.111417 -223.800667 
L 425.396022 -219.078053 
L 429.680627 -215.016962 
L 433.965232 -211.551575 
L 438.249837 -208.617009 
L 442.534442 -206.150691 
L 446.819047 -204.093399 
L 451.103652 -202.390029 
L 455.388257 -200.990079 
L 459.672862 -199.847921 
L 463.957467 -198.922859 
L 468.242072 -198.179047 
L 472.526677 -197.585273 
L 476.811282 -197.114666 
L 481.095887 -196.744335 
L 485.380492 -196.454982 
L 489.665097 -196.230497 
L 493.949702 -196.057565 
L 498.234307 -195.925281 
L 502.518912 -195.8248 
L 506.803517 -195.749007 
L 511.088122 -195.692234 
L 515.372727 -195.650004 
L 515.372727 -195.538011 
L 515.372727 -195.538011 
L 511.088122 -195.538011 
L 506.803517 -195.538011 
L 502.518912 -195.538011 
L 498.234307 -195.538011 
L 493.949702 -195.538011 
L 489.665097 -195.538011 
L 485.380492 -195.538011 
L 481.095887 -195.538011 
L 476.811282 -195.538011 
L 472.526677 -195.538011 
L 468.242072 -195.538011 
L 463.957467 -195.538011 
L 459.672862 -195.538011 
L 455.388257 -195.538011 
L 451.103652 -195.538011 
L 446.819047 -195.538011 
L 442.534442 -195.538011 
L 438.249837 -195.538011 
L 433.965232 -195.538011 
L 429.680627 -195.538011 
L 425.396022 -195.538011 
L 421.111417 -195.538011 
L 416.826812 -195.538011 
L 412.542207 -195.538011 
L 408.257602 -195.538011 
L 403.972997 -195.538011 
L 399.688392 -195.538011 
L 395.403787 -195.538011 
L 391.119182 -195.538011 
L 386.834577 -195.538011 
L 382.549972 -195.538011 
L 378.265367 -195.538011 
L 373.980762 -195.538011 
L 369.696157 -195.538011 
L 365.411552 -195.538011 
L 361.126947 -195.538011 
L 356.842342 -195.538011 
L 352.557737 -195.538011 
L 348.273132 -195.538011 
L 343.988527 -195.538011 
L 339.703922 -195.538011 
L 335.419317 -195.538011 
L 331.134712 -195.538011 
L 326.850107 -195.538011 
L 322.565502 -195.538011 
L 318.280897 -195.538011 
L 313.996292 -195.538011 
L 309.711687 -195.538011 
L 305.427082 -195.538011 
L 301.142477 -195.538011 
L 296.857872 -195.538011 
L 292.573267 -195.538011 
L 288.288662 -195.538011 
L 284.004057 -195.538011 
L 279.719452 -195.538011 
L 275.434847 -195.538011 
L 271.150242 -195.538011 
L 266.865637 -195.538011 
L 262.581032 -195.538011 
L 258.296427 -195.538011 
L 254.011822 -195.538011 
L 249.727217 -195.538011 
L 245.442612 -195.538011 
L 241.158007 -195.538011 
L 236.873402 -195.538011 
L 232.588797 -195.538011 
L 228.304192 -195.538011 
L 224.019587 -195.538011 
L 219.734982 -195.538011 
L 215.450377 -195.538011 
L 211.165772 -195.538011 
L 206.881167 -195.538011 
L 202.596562 -195.538011 
L 198.311957 -195.538011 
L 194.027352 -195.538011 
L 189.742747 -195.538011 
L 185.458142 -195.538011 
L 181.173537 -195.538011 
L 176.888932 -195.538011 
L 172.604327 -195.538011 
L 168.319722 -195.538011 
L 164.035117 -195.538011 
L 159.750512 -195.538011 
L 155.465907 -195.538011 
L 151.181302 -195.538011 
L 146.896697 -195.538011 
L 142.612092 -195.538011 
L 138.327487 -195.538011 
L 134.042882 -195.538011 
L 129.758277 -195.538011 
L 125.473672 -195.538011 
L 121.189067 -195.538011 
L 116.904462 -195.538011 
L 112.619857 -195.538011 
L 108.335252 -195.538011 
L 104.050647 -195.538011 
L 99.766042 -195.538011 
L 95.481437 -195.538011 
L 91.196832 -195.538011 
z
" id="m062c47e680" style="stroke:#36a2eb;stroke-opacity:0.5;"/>
    </defs>
    <g clip-path="url(#pafd15b266d)">
     <use style="fill:#36a2eb;fill-opacity:0.5;stroke:#36a2eb;stroke-opacity:0.5;" x="0" xlink:href="#m062c47e680" y="581.789375"/>
    </g>
   </g>
   <g id="line2d_1">
    <path clip-path="url(#pafd15b266d)" d="M 58.827273 386.144745 
L 63.327816 386.10454 
L 67.828359 386.050492 
L 72.328903 385.978335 
L 76.829446 385.882675 
L 81.329989 385.756739 
L 85.830532 385.592104 
L 90.331076 385.37839 
L 94.831619 385.10292 
L 99.332162 384.750358 
L 103.832705 384.302331 
L 108.333249 383.737047 
L 112.833792 383.028923 
L 117.334335 382.148246 
L 121.834879 381.060889 
L 126.335422 379.72811 
L 130.835965 378.106467 
L 135.336508 376.147886 
L 139.837052 373.799902 
L 144.337595 371.006139 
L 148.838138 367.707022 
L 153.338681 363.840785 
L 157.839225 359.344764 
L 162.339768 354.157009 
L 166.840311 348.218191 
L 171.340855 341.473792 
L 175.841398 333.876536 
L 180.341941 325.389008 
L 184.842484 315.986374 
L 189.343028 305.659111 
L 193.843571 294.415633 
L 198.344114 282.284689 
L 202.844657 269.317391 
L 207.345201 255.588752 
L 211.845744 241.198587 
L 216.346287 226.271678 
L 220.846831 210.957097 
L 225.347374 195.42663 
L 229.847917 179.872271 
L 234.34846 164.502801 
L 238.849004 149.539509 
L 243.349547 135.211157 
L 247.85009 121.748341 
L 252.350633 109.377427 
L 256.851177 98.314286 
L 261.35172 88.758063 
L 265.852263 80.885232 
L 270.352807 74.84418 
L 274.85335 70.750563 
L 279.353893 68.683619 
L 283.854436 68.683619 
L 288.35498 70.750563 
L 292.855523 74.84418 
L 297.356066 80.885232 
L 301.856609 88.758063 
L 306.357153 98.314286 
L 310.857696 109.377427 
L 315.358239 121.748341 
L 319.858783 135.211157 
L 324.359326 149.539509 
L 328.859869 164.502801 
L 333.360412 179.872271 
L 337.860956 195.42663 
L 342.361499 210.957097 
L 346.862042 226.271678 
L 351.362585 241.198587 
L 355.863129 255.588752 
L 360.363672 269.317391 
L 364.864215 282.284689 
L 369.364759 294.415633 
L 373.865302 305.659111 
L 378.365845 315.986374 
L 382.866388 325.389008 
L 387.366932 333.876536 
L 391.867475 341.473792 
L 396.368018 348.218191 
L 400.868561 354.157009 
L 405.369105 359.344764 
L 409.869648 363.840785 
L 414.370191 367.707022 
L 418.870735 371.006139 
L 423.371278 373.799902 
L 427.871821 376.147886 
L 432.372364 378.106467 
L 436.872908 379.72811 
L 441.373451 381.060889 
L 445.873994 382.148246 
L 450.374537 383.028923 
L 454.875081 383.737047 
L 459.375624 384.302331 
L 463.876167 384.750358 
L 468.376711 385.10292 
L 472.877254 385.37839 
L 477.377797 385.592104 
L 481.87834 385.756739 
L 486.378884 385.882675 
L 490.879427 385.978335 
L 495.37997 386.050492 
L 499.880513 386.10454 
L 504.381057 386.144745 
" style="fill:none;stroke:#ff6384;stroke-linecap:square;"/>
   </g>
   <g id="line2d_2">
    <path clip-path="url(#pafd15b266d)" d="M 91.196832 386.139371 
L 95.481437 386.097141 
L 99.766042 386.040368 
L 104.050647 385.964575 
L 108.335252 385.864094 
L 112.619857 385.73181 
L 116.904462 385.558878 
L 121.189067 385.334393 
L 125.473672 385.04504 
L 129.758277 384.674709 
L 134.042882 384.204102 
L 138.327487 383.610328 
L 142.612092 382.866516 
L 146.896697 381.941454 
L 151.181302 380.799296 
L 155.465907 379.399346 
L 159.750512 377.695976 
L 164.035117 375.638684 
L 168.319722 373.172366 
L 172.604327 370.2378 
L 176.888932 366.772413 
L 181.173537 362.711322 
L 185.458142 357.988708 
L 189.742747 352.539497 
L 194.027352 346.301371 
L 198.311957 339.217063 
L 202.596562 331.236916 
L 206.881167 322.321628 
L 211.165772 312.445114 
L 215.450377 301.597371 
L 219.734982 289.787238 
L 224.019587 277.04491 
L 228.304192 263.424078 
L 232.588797 249.003534 
L 236.873402 233.888124 
L 241.158007 218.208919 
L 245.442612 202.122504 
L 249.727217 185.809323 
L 254.011822 169.471045 
L 258.296427 153.326975 
L 262.581032 137.609553 
L 266.865637 122.559072 
L 271.150242 108.417748 
L 275.434847 95.423357 
L 279.719452 83.802649 
L 284.004057 73.764805 
L 288.288662 65.495194 
L 292.573267 59.149682 
L 296.857872 54.849752 
L 301.142477 52.678636 
L 305.427082 52.678636 
L 309.711687 54.849752 
L 313.996292 59.149682 
L 318.280897 65.495194 
L 322.565502 73.764805 
L 326.850107 83.802649 
L 331.134712 95.423357 
L 335.419317 108.417748 
L 339.703922 122.559072 
L 343.988527 137.609553 
L 348.273132 153.326975 
L 352.557737 169.471045 
L 356.842342 185.809323 
L 361.126947 202.122504 
L 365.411552 218.208919 
L 369.696157 233.888124 
L 373.980762 249.003534 
L 378.265367 263.424078 
L 382.549972 277.04491 
L 386.834577 289.787238 
L 391.119182 301.597371 
L 395.403787 312.445114 
L 399.688392 322.321628 
L 403.972997 331.236916 
L 408.257602 339.217063 
L 412.542207 346.301371 
L 416.826812 352.539497 
L 421.111417 357.988708 
L 425.396022 362.711322 
L 429.680627 366.772413 
L 433.965232 370.2378 
L 438.249837 373.172366 
L 442.534442 375.638684 
L 446.819047 377.695976 
L 451.103652 379.399346 
L 455.388257 380.799296 
L 459.672862 381.941454 
L 463.957467 382.866516 
L 468.242072 383.610328 
L 472.526677 384.204102 
L 476.811282 384.674709 
L 481.095887 385.04504 
L 485.380492 385.334393 
L 489.665097 385.558878 
L 493.949702 385.73181 
L 498.234307 385.864094 
L 502.518912 385.964575 
L 506.803517 386.040368 
L 511.088122 386.097141 
L 515.372727 386.139371 
" style="fill:none;stroke:#36a2eb;stroke-linecap:square;"/>
   </g>
   <g id="patch_3">
    <path d="M 36 402.93 
L 538.2 402.93 
" style="fill:none;stroke:#000000;stroke-linecap:square;stroke-linejoin:miter;stroke-width:0.8;"/>
   </g>
   <g id="legend_1">
    <g id="patch_4">
     <path d="M 414.919063 88.29875 
L 528.4 88.29875 
Q 531.2 88.29875 531.2 85.49875 
L 531.2 45.8 
Q 531.2 43 528.4 43 
L 414.919063 43 
Q 412.119063 43 412.119063 45.8 
L 412.119063 85.49875 
Q 412.119063 88.29875 414.919063 88.29875 
z
" style="fill:#ffffff;opacity:0.8;stroke:#cccccc;stroke-linejoin:miter;"/>
    </g>
    <g id="patch_5">
     <path d="M 417.719063 59.237813 
L 445.719063 59.237813 
L 445.719063 49.437813 
L 417.719063 49.437813 
z
" style="fill:#ff6384;opacity:0.5;stroke:#ff6384;stroke-linejoin:miter;"/>
    </g>
    <g id="text_1">
     <!-- sidemenu -->
     <defs>
      <path d="M 44.28125 53.078125 
L 44.28125 44.578125 
Q 40.484375 46.53125 36.375 47.5 
Q 32.28125 48.484375 27.875 48.484375 
Q 21.1875 48.484375 17.84375 46.4375 
Q 14.5 44.390625 14.5 40.28125 
Q 14.5 37.15625 16.890625 35.375 
Q 19.28125 33.59375 26.515625 31.984375 
L 29.59375 31.296875 
Q 39.15625 29.25 43.1875 25.515625 
Q 47.21875 21.78125 47.21875 15.09375 
Q 47.21875 7.46875 41.1875 3.015625 
Q 35.15625 -1.421875 24.609375 -1.421875 
Q 20.21875 -1.421875 15.453125 -0.5625 
Q 10.6875 0.296875 5.421875 2 
L 5.421875 11.28125 
Q 10.40625 8.6875 15.234375 7.390625 
Q 20.0625 6.109375 24.8125 6.109375 
Q 31.15625 6.109375 34.5625 8.28125 
Q 37.984375 10.453125 37.984375 14.40625 
Q 37.984375 18.0625 35.515625 20.015625 
Q 33.0625 21.96875 24.703125 23.78125 
L 21.578125 24.515625 
Q 13.234375 26.265625 9.515625 29.90625 
Q 5.8125 33.546875 5.8125 39.890625 
Q 5.8125 47.609375 11.28125 51.796875 
Q 16.75 56 26.8125 56 
Q 31.78125 56 36.171875 55.265625 
Q 40.578125 54.546875 44.28125 53.078125 
z
" id="DejaVuSans-115"/>
      <path d="M 9.421875 54.6875 
L 18.40625 54.6875 
L 18.40625 0 
L 9.421875 0 
z
M 9.421875 75.984375 
L 18.40625 75.984375 
L 18.40625 64.59375 
L 9.421875 64.59375 
z
" id="DejaVuSans-105"/>
      <path d="M 45.40625 46.390625 
L 45.40625 75.984375 
L 54.390625 75.984375 
L 54.390625 0 
L 45.40625 0 
L 45.40625 8.203125 
Q 42.578125 3.328125 38.25 0.953125 
Q 33.9375 -1.421875 27.875 -1.421875 
Q 17.96875 -1.421875 11.734375 6.484375 
Q 5.515625 14.40625 5.515625 27.296875 
Q 5.515625 40.1875 11.734375 48.09375 
Q 17.96875 56 27.875 56 
Q 33.9375 56 38.25 53.625 
Q 42.578125 51.265625 45.40625 46.390625 
z
M 14.796875 27.296875 
Q 14.796875 17.390625 18.875 11.75 
Q 22.953125 6.109375 30.078125 6.109375 
Q 37.203125 6.109375 41.296875 11.75 
Q 45.40625 17.390625 45.40625 27.296875 
Q 45.40625 37.203125 41.296875 42.84375 
Q 37.203125 48.484375 30.078125 48.484375 
Q 22.953125 48.484375 18.875 42.84375 
Q 14.796875 37.203125 14.796875 27.296875 
z
" id="DejaVuSans-100"/>
      <path d="M 56.203125 29.59375 
L 56.203125 25.203125 
L 14.890625 25.203125 
Q 15.484375 15.921875 20.484375 11.0625 
Q 25.484375 6.203125 34.421875 6.203125 
Q 39.59375 6.203125 44.453125 7.46875 
Q 49.3125 8.734375 54.109375 11.28125 
L 54.109375 2.78125 
Q 49.265625 0.734375 44.1875 -0.34375 
Q 39.109375 -1.421875 33.890625 -1.421875 
Q 20.796875 -1.421875 13.15625 6.1875 
Q 5.515625 13.8125 5.515625 26.8125 
Q 5.515625 40.234375 12.765625 48.109375 
Q 20.015625 56 32.328125 56 
Q 43.359375 56 49.78125 48.890625 
Q 56.203125 41.796875 56.203125 29.59375 
z
M 47.21875 32.234375 
Q 47.125 39.59375 43.09375 43.984375 
Q 39.0625 48.390625 32.421875 48.390625 
Q 24.90625 48.390625 20.390625 44.140625 
Q 15.875 39.890625 15.1875 32.171875 
z
" id="DejaVuSans-101"/>
      <path d="M 52 44.1875 
Q 55.375 50.25 60.0625 53.125 
Q 64.75 56 71.09375 56 
Q 79.640625 56 84.28125 50.015625 
Q 88.921875 44.046875 88.921875 33.015625 
L 88.921875 0 
L 79.890625 0 
L 79.890625 32.71875 
Q 79.890625 40.578125 77.09375 44.375 
Q 74.3125 48.1875 68.609375 48.1875 
Q 61.625 48.1875 57.5625 43.546875 
Q 53.515625 38.921875 53.515625 30.90625 
L 53.515625 0 
L 44.484375 0 
L 44.484375 32.71875 
Q 44.484375 40.625 41.703125 44.40625 
Q 38.921875 48.1875 33.109375 48.1875 
Q 26.21875 48.1875 22.15625 43.53125 
Q 18.109375 38.875 18.109375 30.90625 
L 18.109375 0 
L 9.078125 0 
L 9.078125 54.6875 
L 18.109375 54.6875 
L 18.109375 46.1875 
Q 21.1875 51.21875 25.484375 53.609375 
Q 29.78125 56 35.6875 56 
Q 41.65625 56 45.828125 52.96875 
Q 50 49.953125 52 44.1875 
z
" id="DejaVuSans-109"/>
      <path d="M 54.890625 33.015625 
L 54.890625 0 
L 45.90625 0 
L 45.90625 32.71875 
Q 45.90625 40.484375 42.875 44.328125 
Q 39.84375 48.1875 33.796875 48.1875 
Q 26.515625 48.1875 22.3125 43.546875 
Q 18.109375 38.921875 18.109375 30.90625 
L 18.109375 0 
L 9.078125 0 
L 9.078125 54.6875 
L 18.109375 54.6875 
L 18.109375 46.1875 
Q 21.34375 51.125 25.703125 53.5625 
Q 30.078125 56 35.796875 56 
Q 45.21875 56 50.046875 50.171875 
Q 54.890625 44.34375 54.890625 33.015625 
z
" id="DejaVuSans-110"/>
      <path d="M 8.5 21.578125 
L 8.5 54.6875 
L 17.484375 54.6875 
L 17.484375 21.921875 
Q 17.484375 14.15625 20.5 10.265625 
Q 23.53125 6.390625 29.59375 6.390625 
Q 36.859375 6.390625 41.078125 11.03125 
Q 45.3125 15.671875 45.3125 23.6875 
L 45.3125 54.6875 
L 54.296875 54.6875 
L 54.296875 0 
L 45.3125 0 
L 45.3125 8.40625 
Q 42.046875 3.421875 37.71875 1 
Q 33.40625 -1.421875 27.6875 -1.421875 
Q 18.265625 -1.421875 13.375 4.4375 
Q 8.5 10.296875 8.5 21.578125 
z
M 31.109375 56 
z
" id="DejaVuSans-117"/>
     </defs>
     <g transform="translate(456.919063 59.237813)scale(0.14 -0.14)">
      <use xlink:href="#DejaVuSans-115"/>
      <use x="52.099609" xlink:href="#DejaVuSans-105"/>
      <use x="79.882812" xlink:href="#DejaVuSans-100"/>
      <use x="143.359375" xlink:href="#DejaVuSans-101"/>
      <use x="204.882812" xlink:href="#DejaVuSans-109"/>
      <use x="302.294922" xlink:href="#DejaVuSans-101"/>
      <use x="363.818359" xlink:href="#DejaVuSans-110"/>
      <use x="427.197266" xlink:href="#DejaVuSans-117"/>
     </g>
    </g>
    <g id="patch_6">
     <path d="M 417.719063 79.787188 
L 445.719063 79.787188 
L 445.719063 69.987188 
L 417.719063 69.987188 
z
" style="fill:#36a2eb;opacity:0.5;stroke:#36a2eb;stroke-linejoin:miter;"/>
    </g>
    <g id="text_2">
     <!-- tabbar -->
     <defs>
      <path d="M 18.3125 70.21875 
L 18.3125 54.6875 
L 36.8125 54.6875 
L 36.8125 47.703125 
L 18.3125 47.703125 
L 18.3125 18.015625 
Q 18.3125 11.328125 20.140625 9.421875 
Q 21.96875 7.515625 27.59375 7.515625 
L 36.8125 7.515625 
L 36.8125 0 
L 27.59375 0 
Q 17.1875 0 13.234375 3.875 
Q 9.28125 7.765625 9.28125 18.015625 
L 9.28125 47.703125 
L 2.6875 47.703125 
L 2.6875 54.6875 
L 9.28125 54.6875 
L 9.28125 70.21875 
z
" id="DejaVuSans-116"/>
      <path d="M 34.28125 27.484375 
Q 23.390625 27.484375 19.1875 25 
Q 14.984375 22.515625 14.984375 16.5 
Q 14.984375 11.71875 18.140625 8.90625 
Q 21.296875 6.109375 26.703125 6.109375 
Q 34.1875 6.109375 38.703125 11.40625 
Q 43.21875 16.703125 43.21875 25.484375 
L 43.21875 27.484375 
z
M 52.203125 31.203125 
L 52.203125 0 
L 43.21875 0 
L 43.21875 8.296875 
Q 40.140625 3.328125 35.546875 0.953125 
Q 30.953125 -1.421875 24.3125 -1.421875 
Q 15.921875 -1.421875 10.953125 3.296875 
Q 6 8.015625 6 15.921875 
Q 6 25.140625 12.171875 29.828125 
Q 18.359375 34.515625 30.609375 34.515625 
L 43.21875 34.515625 
L 43.21875 35.40625 
Q 43.21875 41.609375 39.140625 45 
Q 35.0625 48.390625 27.6875 48.390625 
Q 23 48.390625 18.546875 47.265625 
Q 14.109375 46.140625 10.015625 43.890625 
L 10.015625 52.203125 
Q 14.9375 54.109375 19.578125 55.046875 
Q 24.21875 56 28.609375 56 
Q 40.484375 56 46.34375 49.84375 
Q 52.203125 43.703125 52.203125 31.203125 
z
" id="DejaVuSans-97"/>
      <path d="M 48.6875 27.296875 
Q 48.6875 37.203125 44.609375 42.84375 
Q 40.53125 48.484375 33.40625 48.484375 
Q 26.265625 48.484375 22.1875 42.84375 
Q 18.109375 37.203125 18.109375 27.296875 
Q 18.109375 17.390625 22.1875 11.75 
Q 26.265625 6.109375 33.40625 6.109375 
Q 40.53125 6.109375 44.609375 11.75 
Q 48.6875 17.390625 48.6875 27.296875 
z
M 18.109375 46.390625 
Q 20.953125 51.265625 25.265625 53.625 
Q 29.59375 56 35.59375 56 
Q 45.5625 56 51.78125 48.09375 
Q 58.015625 40.1875 58.015625 27.296875 
Q 58.015625 14.40625 51.78125 6.484375 
Q 45.5625 -1.421875 35.59375 -1.421875 
Q 29.59375 -1.421875 25.265625 0.953125 
Q 20.953125 3.328125 18.109375 8.203125 
L 18.109375 0 
L 9.078125 0 
L 9.078125 75.984375 
L 18.109375 75.984375 
z
" id="DejaVuSans-98"/>
      <path d="M 41.109375 46.296875 
Q 39.59375 47.171875 37.8125 47.578125 
Q 36.03125 48 33.890625 48 
Q 26.265625 48 22.1875 43.046875 
Q 18.109375 38.09375 18.109375 28.8125 
L 18.109375 0 
L 9.078125 0 
L 9.078125 54.6875 
L 18.109375 54.6875 
L 18.109375 46.1875 
Q 20.953125 51.171875 25.484375 53.578125 
Q 30.03125 56 36.53125 56 
Q 37.453125 56 38.578125 55.875 
Q 39.703125 55.765625 41.0625 55.515625 
z
" id="DejaVuSans-114"/>
     </defs>
     <g transform="translate(456.919063 79.787188)scale(0.14 -0.14)">
      <use xlink:href="#DejaVuSans-116"/>
      <use x="39.208984" xlink:href="#DejaVuSans-97"/>
      <use x="100.488281" xlink:href="#DejaVuSans-98"/>
      <use x="163.964844" xlink:href="#DejaVuSans-98"/>
      <use x="227.441406" xlink:href="#DejaVuSans-97"/>
      <use x="288.720703" xlink:href="#DejaVuSans-114"/>
     </g>
    </g>
   </g>
  </g>
  <g id="axes_2">
   <g id="patch_7">
    <path d="M 36 525.24 
L 538.2 525.24 
L 538.2 402.93 
L 36 402.93 
z
" style="fill:none;"/>
   </g>
   <g id="patch_8">
    <path clip-path="url(#p0f348f3c06)" d="M 172.443488 519.680455 
L 390.764842 519.680455 
L 390.764842 482.616818 
L 172.443488 482.616818 
z
" style="fill:#ff6384;opacity:0.5;"/>
   </g>
   <g id="patch_9">
    <path clip-path="url(#p0f348f3c06)" d="M 199.361685 445.553182 
L 407.207874 445.553182 
L 407.207874 408.489545 
L 199.361685 408.489545 
z
" style="fill:#36a2eb;opacity:0.5;"/>
   </g>
   <g id="matplotlib.axis_1">
    <g id="xtick_1">
     <g id="line2d_3">
      <defs>
       <path d="M 0 0 
L 0 3.5 
" id="m2cdc654f4e" style="stroke:#000000;stroke-width:0.8;"/>
      </defs>
      <g>
       <use style="stroke:#000000;stroke-width:0.8;" x="72.928248" xlink:href="#m2cdc654f4e" y="525.24"/>
      </g>
     </g>
     <g id="text_3">
      <!-- 4.25 -->
      <defs>
       <path d="M 37.796875 64.3125 
L 12.890625 25.390625 
L 37.796875 25.390625 
z
M 35.203125 72.90625 
L 47.609375 72.90625 
L 47.609375 25.390625 
L 58.015625 25.390625 
L 58.015625 17.1875 
L 47.609375 17.1875 
L 47.609375 0 
L 37.796875 0 
L 37.796875 17.1875 
L 4.890625 17.1875 
L 4.890625 26.703125 
z
" id="DejaVuSans-52"/>
       <path d="M 10.6875 12.40625 
L 21 12.40625 
L 21 0 
L 10.6875 0 
z
" id="DejaVuSans-46"/>
       <path d="M 19.1875 8.296875 
L 53.609375 8.296875 
L 53.609375 0 
L 7.328125 0 
L 7.328125 8.296875 
Q 12.9375 14.109375 22.625 23.890625 
Q 32.328125 33.6875 34.8125 36.53125 
Q 39.546875 41.84375 41.421875 45.53125 
Q 43.3125 49.21875 43.3125 52.78125 
Q 43.3125 58.59375 39.234375 62.25 
Q 35.15625 65.921875 28.609375 65.921875 
Q 23.96875 65.921875 18.8125 64.3125 
Q 13.671875 62.703125 7.8125 59.421875 
L 7.8125 69.390625 
Q 13.765625 71.78125 18.9375 73 
Q 24.125 74.21875 28.421875 74.21875 
Q 39.75 74.21875 46.484375 68.546875 
Q 53.21875 62.890625 53.21875 53.421875 
Q 53.21875 48.921875 51.53125 44.890625 
Q 49.859375 40.875 45.40625 35.40625 
Q 44.1875 33.984375 37.640625 27.21875 
Q 31.109375 20.453125 19.1875 8.296875 
z
" id="DejaVuSans-50"/>
       <path d="M 10.796875 72.90625 
L 49.515625 72.90625 
L 49.515625 64.59375 
L 19.828125 64.59375 
L 19.828125 46.734375 
Q 21.96875 47.46875 24.109375 47.828125 
Q 26.265625 48.1875 28.421875 48.1875 
Q 40.625 48.1875 47.75 41.5 
Q 54.890625 34.8125 54.890625 23.390625 
Q 54.890625 11.625 47.5625 5.09375 
Q 40.234375 -1.421875 26.90625 -1.421875 
Q 22.3125 -1.421875 17.546875 -0.640625 
Q 12.796875 0.140625 7.71875 1.703125 
L 7.71875 11.625 
Q 12.109375 9.234375 16.796875 8.0625 
Q 21.484375 6.890625 26.703125 6.890625 
Q 35.15625 6.890625 40.078125 11.328125 
Q 45.015625 15.765625 45.015625 23.390625 
Q 45.015625 31 40.078125 35.4375 
Q 35.15625 39.890625 26.703125 39.890625 
Q 22.75 39.890625 18.8125 39.015625 
Q 14.890625 38.140625 10.796875 36.28125 
z
" id="DejaVuSans-53"/>
      </defs>
      <g transform="translate(57.34231 542.877813)scale(0.14 -0.14)">
       <use xlink:href="#DejaVuSans-52"/>
       <use x="63.623047" xlink:href="#DejaVuSans-46"/>
       <use x="95.410156" xlink:href="#DejaVuSans-50"/>
       <use x="159.033203" xlink:href="#DejaVuSans-53"/>
      </g>
     </g>
    </g>
    <g id="xtick_2">
     <g id="line2d_4">
      <g>
       <use style="stroke:#000000;stroke-width:0.8;" x="140.680169" xlink:href="#m2cdc654f4e" y="525.24"/>
      </g>
     </g>
     <g id="text_4">
      <!-- 4.50 -->
      <defs>
       <path d="M 31.78125 66.40625 
Q 24.171875 66.40625 20.328125 58.90625 
Q 16.5 51.421875 16.5 36.375 
Q 16.5 21.390625 20.328125 13.890625 
Q 24.171875 6.390625 31.78125 6.390625 
Q 39.453125 6.390625 43.28125 13.890625 
Q 47.125 21.390625 47.125 36.375 
Q 47.125 51.421875 43.28125 58.90625 
Q 39.453125 66.40625 31.78125 66.40625 
z
M 31.78125 74.21875 
Q 44.046875 74.21875 50.515625 64.515625 
Q 56.984375 54.828125 56.984375 36.375 
Q 56.984375 17.96875 50.515625 8.265625 
Q 44.046875 -1.421875 31.78125 -1.421875 
Q 19.53125 -1.421875 13.0625 8.265625 
Q 6.59375 17.96875 6.59375 36.375 
Q 6.59375 54.828125 13.0625 64.515625 
Q 19.53125 74.21875 31.78125 74.21875 
z
" id="DejaVuSans-48"/>
      </defs>
      <g transform="translate(125.094231 542.877813)scale(0.14 -0.14)">
       <use xlink:href="#DejaVuSans-52"/>
       <use x="63.623047" xlink:href="#DejaVuSans-46"/>
       <use x="95.410156" xlink:href="#DejaVuSans-53"/>
       <use x="159.033203" xlink:href="#DejaVuSans-48"/>
      </g>
     </g>
    </g>
    <g id="xtick_3">
     <g id="line2d_5">
      <g>
       <use style="stroke:#000000;stroke-width:0.8;" x="208.43209" xlink:href="#m2cdc654f4e" y="525.24"/>
      </g>
     </g>
     <g id="text_5">
      <!-- 4.75 -->
      <defs>
       <path d="M 8.203125 72.90625 
L 55.078125 72.90625 
L 55.078125 68.703125 
L 28.609375 0 
L 18.3125 0 
L 43.21875 64.59375 
L 8.203125 64.59375 
z
" id="DejaVuSans-55"/>
      </defs>
      <g transform="translate(192.846153 542.877813)scale(0.14 -0.14)">
       <use xlink:href="#DejaVuSans-52"/>
       <use x="63.623047" xlink:href="#DejaVuSans-46"/>
       <use x="95.410156" xlink:href="#DejaVuSans-55"/>
       <use x="159.033203" xlink:href="#DejaVuSans-53"/>
      </g>
     </g>
    </g>
    <g id="xtick_4">
     <g id="line2d_6">
      <g>
       <use style="stroke:#000000;stroke-width:0.8;" x="276.184011" xlink:href="#m2cdc654f4e" y="525.24"/>
      </g>
     </g>
     <g id="text_6">
      <!-- 5.00 -->
      <g transform="translate(260.598074 542.877813)scale(0.14 -0.14)">
       <use xlink:href="#DejaVuSans-53"/>
       <use x="63.623047" xlink:href="#DejaVuSans-46"/>
       <use x="95.410156" xlink:href="#DejaVuSans-48"/>
       <use x="159.033203" xlink:href="#DejaVuSans-48"/>
      </g>
     </g>
    </g>
    <g id="xtick_5">
     <g id="line2d_7">
      <g>
       <use style="stroke:#000000;stroke-width:0.8;" x="343.935932" xlink:href="#m2cdc654f4e" y="525.24"/>
      </g>
     </g>
     <g id="text_7">
      <!-- 5.25 -->
      <g transform="translate(328.349995 542.877813)scale(0.14 -0.14)">
       <use xlink:href="#DejaVuSans-53"/>
       <use x="63.623047" xlink:href="#DejaVuSans-46"/>
       <use x="95.410156" xlink:href="#DejaVuSans-50"/>
       <use x="159.033203" xlink:href="#DejaVuSans-53"/>
      </g>
     </g>
    </g>
    <g id="xtick_6">
     <g id="line2d_8">
      <g>
       <use style="stroke:#000000;stroke-width:0.8;" x="411.687853" xlink:href="#m2cdc654f4e" y="525.24"/>
      </g>
     </g>
     <g id="text_8">
      <!-- 5.50 -->
      <g transform="translate(396.101916 542.877813)scale(0.14 -0.14)">
       <use xlink:href="#DejaVuSans-53"/>
       <use x="63.623047" xlink:href="#DejaVuSans-46"/>
       <use x="95.410156" xlink:href="#DejaVuSans-53"/>
       <use x="159.033203" xlink:href="#DejaVuSans-48"/>
      </g>
     </g>
    </g>
    <g id="xtick_7">
     <g id="line2d_9">
      <g>
       <use style="stroke:#000000;stroke-width:0.8;" x="479.439774" xlink:href="#m2cdc654f4e" y="525.24"/>
      </g>
     </g>
     <g id="text_9">
      <!-- 5.75 -->
      <g transform="translate(463.853837 542.877813)scale(0.14 -0.14)">
       <use xlink:href="#DejaVuSans-53"/>
       <use x="63.623047" xlink:href="#DejaVuSans-46"/>
       <use x="95.410156" xlink:href="#DejaVuSans-55"/>
       <use x="159.033203" xlink:href="#DejaVuSans-53"/>
      </g>
     </g>
    </g>
   </g>
   <g id="line2d_10">
    <path clip-path="url(#p0f348f3c06)" d="M 281.604165 525.24 
L 281.604165 402.93 
" style="fill:none;stroke:#ff6384;stroke-dasharray:5.55,2.4;stroke-dashoffset:0;stroke-opacity:0.8;stroke-width:1.5;"/>
   </g>
   <g id="line2d_11">
    <path clip-path="url(#p0f348f3c06)" d="M 303.284779 525.24 
L 303.284779 402.93 
" style="fill:none;stroke:#36a2eb;stroke-dasharray:5.55,2.4;stroke-dashoffset:0;stroke-opacity:0.8;stroke-width:1.5;"/>
   </g>
   <g id="patch_10">
    <path d="M 36 525.24 
L 538.2 525.24 
" style="fill:none;stroke:#000000;stroke-linecap:square;stroke-linejoin:miter;stroke-width:0.8;"/>
   </g>
  </g>
 </g>
 <defs>
  <clipPath id="pafd15b266d">
   <rect height="366.93" width="502.2" x="36" y="36"/>
  </clipPath>
  <clipPath id="p0f348f3c06">
   <rect height="122.31" width="502.2" x="36" y="402.93"/>
  </clipPath>
 </defs>
</svg>
