<?xml version="1.0" encoding="utf-8" standalone="no"?>
<!DOCTYPE svg PUBLIC "-//W3C//DTD SVG 1.1//EN"
  "http://www.w3.org/Graphics/SVG/1.1/DTD/svg11.dtd">
<!-- Created with matplotlib (https://matplotlib.org/) -->
<svg height="581.789375pt" version="1.1" viewBox="0 0 574.2 581.789375" width="574.2pt" xmlns="http://www.w3.org/2000/svg" xmlns:xlink="http://www.w3.org/1999/xlink">
 <defs>
  <style type="text/css">
*{stroke-linecap:butt;stroke-linejoin:round;}
  </style>
 </defs>
 <g id="figure_1">
  <g id="patch_1">
   <path d="M 0 581.789375 
L 574.2 581.789375 
L 574.2 0 
L 0 0 
z
" style="fill:none;"/>
  </g>
  <g id="axes_1">
   <g id="patch_2">
    <path d="M 36 402.93 
L 538.2 402.93 
L 538.2 36 
L 36 36 
z
" style="fill:none;"/>
   </g>
   <g id="PolyCollection_1">
    <defs>
     <path d="M 58.827273 -195.538011 
L 58.827273 -195.644654 
L 63.327319 -195.684868 
L 67.827364 -195.738928 
L 72.32741 -195.811101 
L 76.827456 -195.906783 
L 81.327502 -196.032747 
L 85.827548 -196.197419 
L 90.327593 -196.411181 
L 94.827639 -196.686713 
L 99.327685 -197.039354 
L 103.827731 -197.487482 
L 108.327777 -198.052893 
L 112.827823 -198.761176 
L 117.327868 -199.64205 
L 121.827914 -200.729651 
L 126.32796 -202.062729 
L 130.828006 -203.684735 
L 135.328052 -205.643756 
L 139.828097 -207.992267 
L 144.328143 -210.786657 
L 148.828189 -214.086514 
L 153.328235 -217.953619 
L 157.828281 -222.450649 
L 162.328327 -227.639568 
L 166.828372 -233.579718 
L 171.328418 -240.325631 
L 175.828464 -247.924591 
L 180.32851 -256.414023 
L 184.828556 -265.818767 
L 189.328602 -276.148348 
L 193.828647 -287.394348 
L 198.328693 -299.528015 
L 202.828739 -312.498222 
L 207.328785 -326.229942 
L 211.828831 -340.623336 
L 216.328876 -355.553594 
L 220.828922 -370.871612 
L 225.328968 -386.405564 
L 229.829014 -401.963413 
L 234.32906 -417.336331 
L 238.829106 -432.302981 
L 243.329151 -446.634548 
L 247.829197 -460.100385 
L 252.329243 -472.474075 
L 256.829289 -483.539698 
L 261.329335 -493.098065 
L 265.82938 -500.972663 
L 270.329426 -507.01507 
L 274.829472 -511.109606 
L 279.329518 -513.177014 
L 283.829564 -513.177014 
L 288.32961 -511.109606 
L 292.829655 -507.01507 
L 297.329701 -500.972663 
L 301.829747 -493.098065 
L 306.329793 -483.539698 
L 310.829839 -472.474075 
L 315.329884 -460.100385 
L 319.82993 -446.634548 
L 324.329976 -432.302981 
L 328.830022 -417.336331 
L 333.330068 -401.963413 
L 337.830114 -386.405564 
L 342.330159 -370.871612 
L 346.830205 -355.553594 
L 351.330251 -340.623336 
L 355.830297 -326.229942 
L 360.330343 -312.498222 
L 364.830388 -299.528015 
L 369.330434 -287.394348 
L 373.83048 -276.148348 
L 378.330526 -265.818767 
L 382.830572 -256.414023 
L 387.330618 -247.924591 
L 391.830663 -240.325631 
L 396.330709 -233.579718 
L 400.830755 -227.639568 
L 405.330801 -222.450649 
L 409.830847 -217.953619 
L 414.330893 -214.086514 
L 418.830938 -210.786657 
L 423.330984 -207.992267 
L 427.83103 -205.643756 
L 432.331076 -203.684735 
L 436.831122 -202.062729 
L 441.331167 -200.729651 
L 445.831213 -199.64205 
L 450.331259 -198.761176 
L 454.831305 -198.052893 
L 459.331351 -197.487482 
L 463.831397 -197.039354 
L 468.331442 -196.686713 
L 472.831488 -196.411181 
L 477.331534 -196.197419 
L 481.83158 -196.032747 
L 486.331626 -195.906783 
L 490.831671 -195.811101 
L 495.331717 -195.738928 
L 499.831763 -195.684868 
L 504.331809 -195.644654 
L 504.331809 -195.538011 
L 504.331809 -195.538011 
L 499.831763 -195.538011 
L 495.331717 -195.538011 
L 490.831671 -195.538011 
L 486.331626 -195.538011 
L 481.83158 -195.538011 
L 477.331534 -195.538011 
L 472.831488 -195.538011 
L 468.331442 -195.538011 
L 463.831397 -195.538011 
L 459.331351 -195.538011 
L 454.831305 -195.538011 
L 450.331259 -195.538011 
L 445.831213 -195.538011 
L 441.331167 -195.538011 
L 436.831122 -195.538011 
L 432.331076 -195.538011 
L 427.83103 -195.538011 
L 423.330984 -195.538011 
L 418.830938 -195.538011 
L 414.330893 -195.538011 
L 409.830847 -195.538011 
L 405.330801 -195.538011 
L 400.830755 -195.538011 
L 396.330709 -195.538011 
L 391.830663 -195.538011 
L 387.330618 -195.538011 
L 382.830572 -195.538011 
L 378.330526 -195.538011 
L 373.83048 -195.538011 
L 369.330434 -195.538011 
L 364.830388 -195.538011 
L 360.330343 -195.538011 
L 355.830297 -195.538011 
L 351.330251 -195.538011 
L 346.830205 -195.538011 
L 342.330159 -195.538011 
L 337.830114 -195.538011 
L 333.330068 -195.538011 
L 328.830022 -195.538011 
L 324.329976 -195.538011 
L 319.82993 -195.538011 
L 315.329884 -195.538011 
L 310.829839 -195.538011 
L 306.329793 -195.538011 
L 301.829747 -195.538011 
L 297.329701 -195.538011 
L 292.829655 -195.538011 
L 288.32961 -195.538011 
L 283.829564 -195.538011 
L 279.329518 -195.538011 
L 274.829472 -195.538011 
L 270.329426 -195.538011 
L 265.82938 -195.538011 
L 261.329335 -195.538011 
L 256.829289 -195.538011 
L 252.329243 -195.538011 
L 247.829197 -195.538011 
L 243.329151 -195.538011 
L 238.829106 -195.538011 
L 234.32906 -195.538011 
L 229.829014 -195.538011 
L 225.328968 -195.538011 
L 220.828922 -195.538011 
L 216.328876 -195.538011 
L 211.828831 -195.538011 
L 207.328785 -195.538011 
L 202.828739 -195.538011 
L 198.328693 -195.538011 
L 193.828647 -195.538011 
L 189.328602 -195.538011 
L 184.828556 -195.538011 
L 180.32851 -195.538011 
L 175.828464 -195.538011 
L 171.328418 -195.538011 
L 166.828372 -195.538011 
L 162.328327 -195.538011 
L 157.828281 -195.538011 
L 153.328235 -195.538011 
L 148.828189 -195.538011 
L 144.328143 -195.538011 
L 139.828097 -195.538011 
L 135.328052 -195.538011 
L 130.828006 -195.538011 
L 126.32796 -195.538011 
L 121.827914 -195.538011 
L 117.327868 -195.538011 
L 112.827823 -195.538011 
L 108.327777 -195.538011 
L 103.827731 -195.538011 
L 99.327685 -195.538011 
L 94.827639 -195.538011 
L 90.327593 -195.538011 
L 85.827548 -195.538011 
L 81.327502 -195.538011 
L 76.827456 -195.538011 
L 72.32741 -195.538011 
L 67.827364 -195.538011 
L 63.327319 -195.538011 
L 58.827273 -195.538011 
z
" id="md72093dcd0" style="stroke:#ff6384;stroke-opacity:0.5;"/>
    </defs>
    <g clip-path="url(#pc357e1b238)">
     <use style="fill:#ff6384;fill-opacity:0.5;stroke:#ff6384;stroke-opacity:0.5;" x="0" xlink:href="#md72093dcd0" y="581.789375"/>
    </g>
   </g>
   <g id="PolyCollection_2">
    <defs>
     <path d="M 91.148548 -195.538011 
L 91.148548 -195.650004 
L 95.43364 -195.692234 
L 99.718733 -195.749007 
L 104.003826 -195.8248 
L 108.288919 -195.925281 
L 112.574011 -196.057565 
L 116.859104 -196.230497 
L 121.144197 -196.454982 
L 125.42929 -196.744335 
L 129.714382 -197.114666 
L 133.999475 -197.585273 
L 138.284568 -198.179047 
L 142.56966 -198.922859 
L 146.854753 -199.847921 
L 151.139846 -200.990079 
L 155.424939 -202.390029 
L 159.710031 -204.093399 
L 163.995124 -206.150691 
L 168.280217 -208.617009 
L 172.565309 -211.551575 
L 176.850402 -215.016962 
L 181.135495 -219.078053 
L 185.420588 -223.800667 
L 189.70568 -229.249878 
L 193.990773 -235.488004 
L 198.275866 -242.572312 
L 202.560959 -250.552459 
L 206.846051 -259.467747 
L 211.131144 -269.344261 
L 215.416237 -280.192004 
L 219.701329 -292.002137 
L 223.986422 -304.744465 
L 228.271515 -318.365297 
L 232.556608 -332.785841 
L 236.8417 -347.901251 
L 241.126793 -363.580456 
L 245.411886 -379.666871 
L 249.696978 -395.980052 
L 253.982071 -412.31833 
L 258.267164 -428.4624 
L 262.552257 -444.179822 
L 266.837349 -459.230303 
L 271.122442 -473.371627 
L 275.407535 -486.366018 
L 279.692628 -497.986726 
L 283.97772 -508.02457 
L 288.262813 -516.294181 
L 292.547906 -522.639693 
L 296.832998 -526.939623 
L 301.118091 -529.110739 
L 305.403184 -529.110739 
L 309.688277 -526.939623 
L 313.973369 -522.639693 
L 318.258462 -516.294181 
L 322.543555 -508.02457 
L 326.828647 -497.986726 
L 331.11374 -486.366018 
L 335.398833 -473.371627 
L 339.683926 -459.230303 
L 343.969018 -444.179822 
L 348.254111 -428.4624 
L 352.539204 -412.31833 
L 356.824297 -395.980052 
L 361.109389 -379.666871 
L 365.394482 -363.580456 
L 369.679575 -347.901251 
L 373.964667 -332.785841 
L 378.24976 -318.365297 
L 382.534853 -304.744465 
L 386.819946 -292.002137 
L 391.105038 -280.192004 
L 395.390131 -269.344261 
L 399.675224 -259.467747 
L 403.960316 -250.552459 
L 408.245409 -242.572312 
L 412.530502 -235.488004 
L 416.815595 -229.249878 
L 421.100687 -223.800667 
L 425.38578 -219.078053 
L 429.670873 -215.016962 
L 433.955966 -211.551575 
L 438.241058 -208.617009 
L 442.526151 -206.150691 
L 446.811244 -204.093399 
L 451.096336 -202.390029 
L 455.381429 -200.990079 
L 459.666522 -199.847921 
L 463.951615 -198.922859 
L 468.236707 -198.179047 
L 472.5218 -197.585273 
L 476.806893 -197.114666 
L 481.091985 -196.744335 
L 485.377078 -196.454982 
L 489.662171 -196.230497 
L 493.947264 -196.057565 
L 498.232356 -195.925281 
L 502.517449 -195.8248 
L 506.802542 -195.749007 
L 511.087635 -195.692234 
L 515.372727 -195.650004 
L 515.372727 -195.538011 
L 515.372727 -195.538011 
L 511.087635 -195.538011 
L 506.802542 -195.538011 
L 502.517449 -195.538011 
L 498.232356 -195.538011 
L 493.947264 -195.538011 
L 489.662171 -195.538011 
L 485.377078 -195.538011 
L 481.091985 -195.538011 
L 476.806893 -195.538011 
L 472.5218 -195.538011 
L 468.236707 -195.538011 
L 463.951615 -195.538011 
L 459.666522 -195.538011 
L 455.381429 -195.538011 
L 451.096336 -195.538011 
L 446.811244 -195.538011 
L 442.526151 -195.538011 
L 438.241058 -195.538011 
L 433.955966 -195.538011 
L 429.670873 -195.538011 
L 425.38578 -195.538011 
L 421.100687 -195.538011 
L 416.815595 -195.538011 
L 412.530502 -195.538011 
L 408.245409 -195.538011 
L 403.960316 -195.538011 
L 399.675224 -195.538011 
L 395.390131 -195.538011 
L 391.105038 -195.538011 
L 386.819946 -195.538011 
L 382.534853 -195.538011 
L 378.24976 -195.538011 
L 373.964667 -195.538011 
L 369.679575 -195.538011 
L 365.394482 -195.538011 
L 361.109389 -195.538011 
L 356.824297 -195.538011 
L 352.539204 -195.538011 
L 348.254111 -195.538011 
L 343.969018 -195.538011 
L 339.683926 -195.538011 
L 335.398833 -195.538011 
L 331.11374 -195.538011 
L 326.828647 -195.538011 
L 322.543555 -195.538011 
L 318.258462 -195.538011 
L 313.973369 -195.538011 
L 309.688277 -195.538011 
L 305.403184 -195.538011 
L 301.118091 -195.538011 
L 296.832998 -195.538011 
L 292.547906 -195.538011 
L 288.262813 -195.538011 
L 283.97772 -195.538011 
L 279.692628 -195.538011 
L 275.407535 -195.538011 
L 271.122442 -195.538011 
L 266.837349 -195.538011 
L 262.552257 -195.538011 
L 258.267164 -195.538011 
L 253.982071 -195.538011 
L 249.696978 -195.538011 
L 245.411886 -195.538011 
L 241.126793 -195.538011 
L 236.8417 -195.538011 
L 232.556608 -195.538011 
L 228.271515 -195.538011 
L 223.986422 -195.538011 
L 219.701329 -195.538011 
L 215.416237 -195.538011 
L 211.131144 -195.538011 
L 206.846051 -195.538011 
L 202.560959 -195.538011 
L 198.275866 -195.538011 
L 193.990773 -195.538011 
L 189.70568 -195.538011 
L 185.420588 -195.538011 
L 181.135495 -195.538011 
L 176.850402 -195.538011 
L 172.565309 -195.538011 
L 168.280217 -195.538011 
L 163.995124 -195.538011 
L 159.710031 -195.538011 
L 155.424939 -195.538011 
L 151.139846 -195.538011 
L 146.854753 -195.538011 
L 142.56966 -195.538011 
L 138.284568 -195.538011 
L 133.999475 -195.538011 
L 129.714382 -195.538011 
L 125.42929 -195.538011 
L 121.144197 -195.538011 
L 116.859104 -195.538011 
L 112.574011 -195.538011 
L 108.288919 -195.538011 
L 104.003826 -195.538011 
L 99.718733 -195.538011 
L 95.43364 -195.538011 
L 91.148548 -195.538011 
z
" id="me01ce0b2b3" style="stroke:#36a2eb;stroke-opacity:0.5;"/>
    </defs>
    <g clip-path="url(#pc357e1b238)">
     <use style="fill:#36a2eb;fill-opacity:0.5;stroke:#36a2eb;stroke-opacity:0.5;" x="0" xlink:href="#me01ce0b2b3" y="581.789375"/>
    </g>
   </g>
   <g id="line2d_1">
    <path clip-path="url(#pc357e1b238)" d="M 58.827273 386.144721 
L 63.327319 386.104507 
L 67.827364 386.050447 
L 72.32741 385.978274 
L 76.827456 385.882592 
L 81.327502 385.756628 
L 85.827548 385.591956 
L 90.327593 385.378194 
L 94.827639 385.102662 
L 99.327685 384.750021 
L 103.827731 384.301893 
L 108.327777 383.736482 
L 112.827823 383.028199 
L 117.327868 382.147325 
L 121.827914 381.059724 
L 126.32796 379.726646 
L 130.828006 378.10464 
L 135.328052 376.145619 
L 139.828097 373.797108 
L 144.328143 371.002718 
L 148.828189 367.702861 
L 153.328235 363.835756 
L 157.828281 359.338726 
L 162.328327 354.149807 
L 166.828372 348.209657 
L 171.328418 341.463744 
L 175.828464 333.864784 
L 180.32851 325.375352 
L 184.828556 315.970608 
L 189.328602 305.641027 
L 193.828647 294.395027 
L 198.328693 282.26136 
L 202.828739 269.291153 
L 207.328785 255.559433 
L 211.828831 241.166039 
L 216.328876 226.235781 
L 220.828922 210.917763 
L 225.328968 195.383811 
L 229.829014 179.825962 
L 234.32906 164.453044 
L 238.829106 149.486394 
L 243.329151 135.154827 
L 247.829197 121.68899 
L 252.329243 109.3153 
L 256.829289 98.249677 
L 261.329335 88.69131 
L 265.82938 80.816712 
L 270.329426 74.774305 
L 274.829472 70.679769 
L 279.329518 68.612361 
L 283.829564 68.612361 
L 288.32961 70.679769 
L 292.829655 74.774305 
L 297.329701 80.816712 
L 301.829747 88.69131 
L 306.329793 98.249677 
L 310.829839 109.3153 
L 315.329884 121.68899 
L 319.82993 135.154827 
L 324.329976 149.486394 
L 328.830022 164.453044 
L 333.330068 179.825962 
L 337.830114 195.383811 
L 342.330159 210.917763 
L 346.830205 226.235781 
L 351.330251 241.166039 
L 355.830297 255.559433 
L 360.330343 269.291153 
L 364.830388 282.26136 
L 369.330434 294.395027 
L 373.83048 305.641027 
L 378.330526 315.970608 
L 382.830572 325.375352 
L 387.330618 333.864784 
L 391.830663 341.463744 
L 396.330709 348.209657 
L 400.830755 354.149807 
L 405.330801 359.338726 
L 409.830847 363.835756 
L 414.330893 367.702861 
L 418.830938 371.002718 
L 423.330984 373.797108 
L 427.83103 376.145619 
L 432.331076 378.10464 
L 436.831122 379.726646 
L 441.331167 381.059724 
L 445.831213 382.147325 
L 450.331259 383.028199 
L 454.831305 383.736482 
L 459.331351 384.301893 
L 463.831397 384.750021 
L 468.331442 385.102662 
L 472.831488 385.378194 
L 477.331534 385.591956 
L 481.83158 385.756628 
L 486.331626 385.882592 
L 490.831671 385.978274 
L 495.331717 386.050447 
L 499.831763 386.104507 
L 504.331809 386.144721 
" style="fill:none;stroke:#ff6384;stroke-linecap:square;"/>
   </g>
   <g id="line2d_2">
    <path clip-path="url(#pc357e1b238)" d="M 91.148548 386.139371 
L 95.43364 386.097141 
L 99.718733 386.040368 
L 104.003826 385.964575 
L 108.288919 385.864094 
L 112.574011 385.73181 
L 116.859104 385.558878 
L 121.144197 385.334393 
L 125.42929 385.04504 
L 129.714382 384.674709 
L 133.999475 384.204102 
L 138.284568 383.610328 
L 142.56966 382.866516 
L 146.854753 381.941454 
L 151.139846 380.799296 
L 155.424939 379.399346 
L 159.710031 377.695976 
L 163.995124 375.638684 
L 168.280217 373.172366 
L 172.565309 370.2378 
L 176.850402 366.772413 
L 181.135495 362.711322 
L 185.420588 357.988708 
L 189.70568 352.539497 
L 193.990773 346.301371 
L 198.275866 339.217063 
L 202.560959 331.236916 
L 206.846051 322.321628 
L 211.131144 312.445114 
L 215.416237 301.597371 
L 219.701329 289.787238 
L 223.986422 277.04491 
L 228.271515 263.424078 
L 232.556608 249.003534 
L 236.8417 233.888124 
L 241.126793 218.208919 
L 245.411886 202.122504 
L 249.696978 185.809323 
L 253.982071 169.471045 
L 258.267164 153.326975 
L 262.552257 137.609553 
L 266.837349 122.559072 
L 271.122442 108.417748 
L 275.407535 95.423357 
L 279.692628 83.802649 
L 283.97772 73.764805 
L 288.262813 65.495194 
L 292.547906 59.149682 
L 296.832998 54.849752 
L 301.118091 52.678636 
L 305.403184 52.678636 
L 309.688277 54.849752 
L 313.973369 59.149682 
L 318.258462 65.495194 
L 322.543555 73.764805 
L 326.828647 83.802649 
L 331.11374 95.423357 
L 335.398833 108.417748 
L 339.683926 122.559072 
L 343.969018 137.609553 
L 348.254111 153.326975 
L 352.539204 169.471045 
L 356.824297 185.809323 
L 361.109389 202.122504 
L 365.394482 218.208919 
L 369.679575 233.888124 
L 373.964667 249.003534 
L 378.24976 263.424078 
L 382.534853 277.04491 
L 386.819946 289.787238 
L 391.105038 301.597371 
L 395.390131 312.445114 
L 399.675224 322.321628 
L 403.960316 331.236916 
L 408.245409 339.217063 
L 412.530502 346.301371 
L 416.815595 352.539497 
L 421.100687 357.988708 
L 425.38578 362.711322 
L 429.670873 366.772413 
L 433.955966 370.2378 
L 438.241058 373.172366 
L 442.526151 375.638684 
L 446.811244 377.695976 
L 451.096336 379.399346 
L 455.381429 380.799296 
L 459.666522 381.941454 
L 463.951615 382.866516 
L 468.236707 383.610328 
L 472.5218 384.204102 
L 476.806893 384.674709 
L 481.091985 385.04504 
L 485.377078 385.334393 
L 489.662171 385.558878 
L 493.947264 385.73181 
L 498.232356 385.864094 
L 502.517449 385.964575 
L 506.802542 386.040368 
L 511.087635 386.097141 
L 515.372727 386.139371 
" style="fill:none;stroke:#36a2eb;stroke-linecap:square;"/>
   </g>
   <g id="patch_3">
    <path d="M 36 402.93 
L 538.2 402.93 
" style="fill:none;stroke:#000000;stroke-linecap:square;stroke-linejoin:miter;stroke-width:0.8;"/>
   </g>
   <g id="legend_1">
    <g id="patch_4">
     <path d="M 414.919063 88.29875 
L 528.4 88.29875 
Q 531.2 88.29875 531.2 85.49875 
L 531.2 45.8 
Q 531.2 43 528.4 43 
L 414.919063 43 
Q 412.119063 43 412.119063 45.8 
L 412.119063 85.49875 
Q 412.119063 88.29875 414.919063 88.29875 
z
" style="fill:#ffffff;opacity:0.8;stroke:#cccccc;stroke-linejoin:miter;"/>
    </g>
    <g id="patch_5">
     <path d="M 417.719063 59.237813 
L 445.719063 59.237813 
L 445.719063 49.437813 
L 417.719063 49.437813 
z
" style="fill:#ff6384;opacity:0.5;stroke:#ff6384;stroke-linejoin:miter;"/>
    </g>
    <g id="text_1">
     <!-- sidemenu -->
     <defs>
      <path d="M 44.28125 53.078125 
L 44.28125 44.578125 
Q 40.484375 46.53125 36.375 47.5 
Q 32.28125 48.484375 27.875 48.484375 
Q 21.1875 48.484375 17.84375 46.4375 
Q 14.5 44.390625 14.5 40.28125 
Q 14.5 37.15625 16.890625 35.375 
Q 19.28125 33.59375 26.515625 31.984375 
L 29.59375 31.296875 
Q 39.15625 29.25 43.1875 25.515625 
Q 47.21875 21.78125 47.21875 15.09375 
Q 47.21875 7.46875 41.1875 3.015625 
Q 35.15625 -1.421875 24.609375 -1.421875 
Q 20.21875 -1.421875 15.453125 -0.5625 
Q 10.6875 0.296875 5.421875 2 
L 5.421875 11.28125 
Q 10.40625 8.6875 15.234375 7.390625 
Q 20.0625 6.109375 24.8125 6.109375 
Q 31.15625 6.109375 34.5625 8.28125 
Q 37.984375 10.453125 37.984375 14.40625 
Q 37.984375 18.0625 35.515625 20.015625 
Q 33.0625 21.96875 24.703125 23.78125 
L 21.578125 24.515625 
Q 13.234375 26.265625 9.515625 29.90625 
Q 5.8125 33.546875 5.8125 39.890625 
Q 5.8125 47.609375 11.28125 51.796875 
Q 16.75 56 26.8125 56 
Q 31.78125 56 36.171875 55.265625 
Q 40.578125 54.546875 44.28125 53.078125 
z
" id="DejaVuSans-115"/>
      <path d="M 9.421875 54.6875 
L 18.40625 54.6875 
L 18.40625 0 
L 9.421875 0 
z
M 9.421875 75.984375 
L 18.40625 75.984375 
L 18.40625 64.59375 
L 9.421875 64.59375 
z
" id="DejaVuSans-105"/>
      <path d="M 45.40625 46.390625 
L 45.40625 75.984375 
L 54.390625 75.984375 
L 54.390625 0 
L 45.40625 0 
L 45.40625 8.203125 
Q 42.578125 3.328125 38.25 0.953125 
Q 33.9375 -1.421875 27.875 -1.421875 
Q 17.96875 -1.421875 11.734375 6.484375 
Q 5.515625 14.40625 5.515625 27.296875 
Q 5.515625 40.1875 11.734375 48.09375 
Q 17.96875 56 27.875 56 
Q 33.9375 56 38.25 53.625 
Q 42.578125 51.265625 45.40625 46.390625 
z
M 14.796875 27.296875 
Q 14.796875 17.390625 18.875 11.75 
Q 22.953125 6.109375 30.078125 6.109375 
Q 37.203125 6.109375 41.296875 11.75 
Q 45.40625 17.390625 45.40625 27.296875 
Q 45.40625 37.203125 41.296875 42.84375 
Q 37.203125 48.484375 30.078125 48.484375 
Q 22.953125 48.484375 18.875 42.84375 
Q 14.796875 37.203125 14.796875 27.296875 
z
" id="DejaVuSans-100"/>
      <path d="M 56.203125 29.59375 
L 56.203125 25.203125 
L 14.890625 25.203125 
Q 15.484375 15.921875 20.484375 11.0625 
Q 25.484375 6.203125 34.421875 6.203125 
Q 39.59375 6.203125 44.453125 7.46875 
Q 49.3125 8.734375 54.109375 11.28125 
L 54.109375 2.78125 
Q 49.265625 0.734375 44.1875 -0.34375 
Q 39.109375 -1.421875 33.890625 -1.421875 
Q 20.796875 -1.421875 13.15625 6.1875 
Q 5.515625 13.8125 5.515625 26.8125 
Q 5.515625 40.234375 12.765625 48.109375 
Q 20.015625 56 32.328125 56 
Q 43.359375 56 49.78125 48.890625 
Q 56.203125 41.796875 56.203125 29.59375 
z
M 47.21875 32.234375 
Q 47.125 39.59375 43.09375 43.984375 
Q 39.0625 48.390625 32.421875 48.390625 
Q 24.90625 48.390625 20.390625 44.140625 
Q 15.875 39.890625 15.1875 32.171875 
z
" id="DejaVuSans-101"/>
      <path d="M 52 44.1875 
Q 55.375 50.25 60.0625 53.125 
Q 64.75 56 71.09375 56 
Q 79.640625 56 84.28125 50.015625 
Q 88.921875 44.046875 88.921875 33.015625 
L 88.921875 0 
L 79.890625 0 
L 79.890625 32.71875 
Q 79.890625 40.578125 77.09375 44.375 
Q 74.3125 48.1875 68.609375 48.1875 
Q 61.625 48.1875 57.5625 43.546875 
Q 53.515625 38.921875 53.515625 30.90625 
L 53.515625 0 
L 44.484375 0 
L 44.484375 32.71875 
Q 44.484375 40.625 41.703125 44.40625 
Q 38.921875 48.1875 33.109375 48.1875 
Q 26.21875 48.1875 22.15625 43.53125 
Q 18.109375 38.875 18.109375 30.90625 
L 18.109375 0 
L 9.078125 0 
L 9.078125 54.6875 
L 18.109375 54.6875 
L 18.109375 46.1875 
Q 21.1875 51.21875 25.484375 53.609375 
Q 29.78125 56 35.6875 56 
Q 41.65625 56 45.828125 52.96875 
Q 50 49.953125 52 44.1875 
z
" id="DejaVuSans-109"/>
      <path d="M 54.890625 33.015625 
L 54.890625 0 
L 45.90625 0 
L 45.90625 32.71875 
Q 45.90625 40.484375 42.875 44.328125 
Q 39.84375 48.1875 33.796875 48.1875 
Q 26.515625 48.1875 22.3125 43.546875 
Q 18.109375 38.921875 18.109375 30.90625 
L 18.109375 0 
L 9.078125 0 
L 9.078125 54.6875 
L 18.109375 54.6875 
L 18.109375 46.1875 
Q 21.34375 51.125 25.703125 53.5625 
Q 30.078125 56 35.796875 56 
Q 45.21875 56 50.046875 50.171875 
Q 54.890625 44.34375 54.890625 33.015625 
z
" id="DejaVuSans-110"/>
      <path d="M 8.5 21.578125 
L 8.5 54.6875 
L 17.484375 54.6875 
L 17.484375 21.921875 
Q 17.484375 14.15625 20.5 10.265625 
Q 23.53125 6.390625 29.59375 6.390625 
Q 36.859375 6.390625 41.078125 11.03125 
Q 45.3125 15.671875 45.3125 23.6875 
L 45.3125 54.6875 
L 54.296875 54.6875 
L 54.296875 0 
L 45.3125 0 
L 45.3125 8.40625 
Q 42.046875 3.421875 37.71875 1 
Q 33.40625 -1.421875 27.6875 -1.421875 
Q 18.265625 -1.421875 13.375 4.4375 
Q 8.5 10.296875 8.5 21.578125 
z
M 31.109375 56 
z
" id="DejaVuSans-117"/>
     </defs>
     <g transform="translate(456.919063 59.237813)scale(0.14 -0.14)">
      <use xlink:href="#DejaVuSans-115"/>
      <use x="52.099609" xlink:href="#DejaVuSans-105"/>
      <use x="79.882812" xlink:href="#DejaVuSans-100"/>
      <use x="143.359375" xlink:href="#DejaVuSans-101"/>
      <use x="204.882812" xlink:href="#DejaVuSans-109"/>
      <use x="302.294922" xlink:href="#DejaVuSans-101"/>
      <use x="363.818359" xlink:href="#DejaVuSans-110"/>
      <use x="427.197266" xlink:href="#DejaVuSans-117"/>
     </g>
    </g>
    <g id="patch_6">
     <path d="M 417.719063 79.787188 
L 445.719063 79.787188 
L 445.719063 69.987188 
L 417.719063 69.987188 
z
" style="fill:#36a2eb;opacity:0.5;stroke:#36a2eb;stroke-linejoin:miter;"/>
    </g>
    <g id="text_2">
     <!-- tabbar -->
     <defs>
      <path d="M 18.3125 70.21875 
L 18.3125 54.6875 
L 36.8125 54.6875 
L 36.8125 47.703125 
L 18.3125 47.703125 
L 18.3125 18.015625 
Q 18.3125 11.328125 20.140625 9.421875 
Q 21.96875 7.515625 27.59375 7.515625 
L 36.8125 7.515625 
L 36.8125 0 
L 27.59375 0 
Q 17.1875 0 13.234375 3.875 
Q 9.28125 7.765625 9.28125 18.015625 
L 9.28125 47.703125 
L 2.6875 47.703125 
L 2.6875 54.6875 
L 9.28125 54.6875 
L 9.28125 70.21875 
z
" id="DejaVuSans-116"/>
      <path d="M 34.28125 27.484375 
Q 23.390625 27.484375 19.1875 25 
Q 14.984375 22.515625 14.984375 16.5 
Q 14.984375 11.71875 18.140625 8.90625 
Q 21.296875 6.109375 26.703125 6.109375 
Q 34.1875 6.109375 38.703125 11.40625 
Q 43.21875 16.703125 43.21875 25.484375 
L 43.21875 27.484375 
z
M 52.203125 31.203125 
L 52.203125 0 
L 43.21875 0 
L 43.21875 8.296875 
Q 40.140625 3.328125 35.546875 0.953125 
Q 30.953125 -1.421875 24.3125 -1.421875 
Q 15.921875 -1.421875 10.953125 3.296875 
Q 6 8.015625 6 15.921875 
Q 6 25.140625 12.171875 29.828125 
Q 18.359375 34.515625 30.609375 34.515625 
L 43.21875 34.515625 
L 43.21875 35.40625 
Q 43.21875 41.609375 39.140625 45 
Q 35.0625 48.390625 27.6875 48.390625 
Q 23 48.390625 18.546875 47.265625 
Q 14.109375 46.140625 10.015625 43.890625 
L 10.015625 52.203125 
Q 14.9375 54.109375 19.578125 55.046875 
Q 24.21875 56 28.609375 56 
Q 40.484375 56 46.34375 49.84375 
Q 52.203125 43.703125 52.203125 31.203125 
z
" id="DejaVuSans-97"/>
      <path d="M 48.6875 27.296875 
Q 48.6875 37.203125 44.609375 42.84375 
Q 40.53125 48.484375 33.40625 48.484375 
Q 26.265625 48.484375 22.1875 42.84375 
Q 18.109375 37.203125 18.109375 27.296875 
Q 18.109375 17.390625 22.1875 11.75 
Q 26.265625 6.109375 33.40625 6.109375 
Q 40.53125 6.109375 44.609375 11.75 
Q 48.6875 17.390625 48.6875 27.296875 
z
M 18.109375 46.390625 
Q 20.953125 51.265625 25.265625 53.625 
Q 29.59375 56 35.59375 56 
Q 45.5625 56 51.78125 48.09375 
Q 58.015625 40.1875 58.015625 27.296875 
Q 58.015625 14.40625 51.78125 6.484375 
Q 45.5625 -1.421875 35.59375 -1.421875 
Q 29.59375 -1.421875 25.265625 0.953125 
Q 20.953125 3.328125 18.109375 8.203125 
L 18.109375 0 
L 9.078125 0 
L 9.078125 75.984375 
L 18.109375 75.984375 
z
" id="DejaVuSans-98"/>
      <path d="M 41.109375 46.296875 
Q 39.59375 47.171875 37.8125 47.578125 
Q 36.03125 48 33.890625 48 
Q 26.265625 48 22.1875 43.046875 
Q 18.109375 38.09375 18.109375 28.8125 
L 18.109375 0 
L 9.078125 0 
L 9.078125 54.6875 
L 18.109375 54.6875 
L 18.109375 46.1875 
Q 20.953125 51.171875 25.484375 53.578125 
Q 30.03125 56 36.53125 56 
Q 37.453125 56 38.578125 55.875 
Q 39.703125 55.765625 41.0625 55.515625 
z
" id="DejaVuSans-114"/>
     </defs>
     <g transform="translate(456.919063 79.787188)scale(0.14 -0.14)">
      <use xlink:href="#DejaVuSans-116"/>
      <use x="39.208984" xlink:href="#DejaVuSans-97"/>
      <use x="100.488281" xlink:href="#DejaVuSans-98"/>
      <use x="163.964844" xlink:href="#DejaVuSans-98"/>
      <use x="227.441406" xlink:href="#DejaVuSans-97"/>
      <use x="288.720703" xlink:href="#DejaVuSans-114"/>
     </g>
    </g>
   </g>
  </g>
  <g id="axes_2">
   <g id="patch_7">
    <path d="M 36 525.24 
L 538.2 525.24 
L 538.2 402.93 
L 36 402.93 
z
" style="fill:none;"/>
   </g>
   <g id="patch_8">
    <path clip-path="url(#p34c7dce266)" d="M 172.430929 519.680455 
L 390.728152 519.680455 
L 390.728152 482.616818 
L 172.430929 482.616818 
z
" style="fill:#ff6384;opacity:0.5;"/>
   </g>
   <g id="patch_9">
    <path clip-path="url(#p34c7dce266)" d="M 199.325714 445.553182 
L 407.195561 445.553182 
L 407.195561 408.489545 
L 199.325714 408.489545 
z
" style="fill:#36a2eb;opacity:0.5;"/>
   </g>
   <g id="matplotlib.axis_1">
    <g id="xtick_1">
     <g id="line2d_3">
      <defs>
       <path d="M 0 0 
L 0 3.5 
" id="mc86a639872" style="stroke:#000000;stroke-width:0.8;"/>
      </defs>
      <g>
       <use style="stroke:#000000;stroke-width:0.8;" x="72.898985" xlink:href="#mc86a639872" y="525.24"/>
      </g>
     </g>
     <g id="text_3">
      <!-- 4.25 -->
      <defs>
       <path d="M 37.796875 64.3125 
L 12.890625 25.390625 
L 37.796875 25.390625 
z
M 35.203125 72.90625 
L 47.609375 72.90625 
L 47.609375 25.390625 
L 58.015625 25.390625 
L 58.015625 17.1875 
L 47.609375 17.1875 
L 47.609375 0 
L 37.796875 0 
L 37.796875 17.1875 
L 4.890625 17.1875 
L 4.890625 26.703125 
z
" id="DejaVuSans-52"/>
       <path d="M 10.6875 12.40625 
L 21 12.40625 
L 21 0 
L 10.6875 0 
z
" id="DejaVuSans-46"/>
       <path d="M 19.1875 8.296875 
L 53.609375 8.296875 
L 53.609375 0 
L 7.328125 0 
L 7.328125 8.296875 
Q 12.9375 14.109375 22.625 23.890625 
Q 32.328125 33.6875 34.8125 36.53125 
Q 39.546875 41.84375 41.421875 45.53125 
Q 43.3125 49.21875 43.3125 52.78125 
Q 43.3125 58.59375 39.234375 62.25 
Q 35.15625 65.921875 28.609375 65.921875 
Q 23.96875 65.921875 18.8125 64.3125 
Q 13.671875 62.703125 7.8125 59.421875 
L 7.8125 69.390625 
Q 13.765625 71.78125 18.9375 73 
Q 24.125 74.21875 28.421875 74.21875 
Q 39.75 74.21875 46.484375 68.546875 
Q 53.21875 62.890625 53.21875 53.421875 
Q 53.21875 48.921875 51.53125 44.890625 
Q 49.859375 40.875 45.40625 35.40625 
Q 44.1875 33.984375 37.640625 27.21875 
Q 31.109375 20.453125 19.1875 8.296875 
z
" id="DejaVuSans-50"/>
       <path d="M 10.796875 72.90625 
L 49.515625 72.90625 
L 49.515625 64.59375 
L 19.828125 64.59375 
L 19.828125 46.734375 
Q 21.96875 47.46875 24.109375 47.828125 
Q 26.265625 48.1875 28.421875 48.1875 
Q 40.625 48.1875 47.75 41.5 
Q 54.890625 34.8125 54.890625 23.390625 
Q 54.890625 11.625 47.5625 5.09375 
Q 40.234375 -1.421875 26.90625 -1.421875 
Q 22.3125 -1.421875 17.546875 -0.640625 
Q 12.796875 0.140625 7.71875 1.703125 
L 7.71875 11.625 
Q 12.109375 9.234375 16.796875 8.0625 
Q 21.484375 6.890625 26.703125 6.890625 
Q 35.15625 6.890625 40.078125 11.328125 
Q 45.015625 15.765625 45.015625 23.390625 
Q 45.015625 31 40.078125 35.4375 
Q 35.15625 39.890625 26.703125 39.890625 
Q 22.75 39.890625 18.8125 39.015625 
Q 14.890625 38.140625 10.796875 36.28125 
z
" id="DejaVuSans-53"/>
      </defs>
      <g transform="translate(57.313048 542.877813)scale(0.14 -0.14)">
       <use xlink:href="#DejaVuSans-52"/>
       <use x="63.623047" xlink:href="#DejaVuSans-46"/>
       <use x="95.410156" xlink:href="#DejaVuSans-50"/>
       <use x="159.033203" xlink:href="#DejaVuSans-53"/>
      </g>
     </g>
    </g>
    <g id="xtick_2">
     <g id="line2d_4">
      <g>
       <use style="stroke:#000000;stroke-width:0.8;" x="140.652412" xlink:href="#mc86a639872" y="525.24"/>
      </g>
     </g>
     <g id="text_4">
      <!-- 4.50 -->
      <defs>
       <path d="M 31.78125 66.40625 
Q 24.171875 66.40625 20.328125 58.90625 
Q 16.5 51.421875 16.5 36.375 
Q 16.5 21.390625 20.328125 13.890625 
Q 24.171875 6.390625 31.78125 6.390625 
Q 39.453125 6.390625 43.28125 13.890625 
Q 47.125 21.390625 47.125 36.375 
Q 47.125 51.421875 43.28125 58.90625 
Q 39.453125 66.40625 31.78125 66.40625 
z
M 31.78125 74.21875 
Q 44.046875 74.21875 50.515625 64.515625 
Q 56.984375 54.828125 56.984375 36.375 
Q 56.984375 17.96875 50.515625 8.265625 
Q 44.046875 -1.421875 31.78125 -1.421875 
Q 19.53125 -1.421875 13.0625 8.265625 
Q 6.59375 17.96875 6.59375 36.375 
Q 6.59375 54.828125 13.0625 64.515625 
Q 19.53125 74.21875 31.78125 74.21875 
z
" id="DejaVuSans-48"/>
      </defs>
      <g transform="translate(125.066475 542.877813)scale(0.14 -0.14)">
       <use xlink:href="#DejaVuSans-52"/>
       <use x="63.623047" xlink:href="#DejaVuSans-46"/>
       <use x="95.410156" xlink:href="#DejaVuSans-53"/>
       <use x="159.033203" xlink:href="#DejaVuSans-48"/>
      </g>
     </g>
    </g>
    <g id="xtick_3">
     <g id="line2d_5">
      <g>
       <use style="stroke:#000000;stroke-width:0.8;" x="208.40584" xlink:href="#mc86a639872" y="525.24"/>
      </g>
     </g>
     <g id="text_5">
      <!-- 4.75 -->
      <defs>
       <path d="M 8.203125 72.90625 
L 55.078125 72.90625 
L 55.078125 68.703125 
L 28.609375 0 
L 18.3125 0 
L 43.21875 64.59375 
L 8.203125 64.59375 
z
" id="DejaVuSans-55"/>
      </defs>
      <g transform="translate(192.819902 542.877813)scale(0.14 -0.14)">
       <use xlink:href="#DejaVuSans-52"/>
       <use x="63.623047" xlink:href="#DejaVuSans-46"/>
       <use x="95.410156" xlink:href="#DejaVuSans-55"/>
       <use x="159.033203" xlink:href="#DejaVuSans-53"/>
      </g>
     </g>
    </g>
    <g id="xtick_4">
     <g id="line2d_6">
      <g>
       <use style="stroke:#000000;stroke-width:0.8;" x="276.159267" xlink:href="#mc86a639872" y="525.24"/>
      </g>
     </g>
     <g id="text_6">
      <!-- 5.00 -->
      <g transform="translate(260.573329 542.877813)scale(0.14 -0.14)">
       <use xlink:href="#DejaVuSans-53"/>
       <use x="63.623047" xlink:href="#DejaVuSans-46"/>
       <use x="95.410156" xlink:href="#DejaVuSans-48"/>
       <use x="159.033203" xlink:href="#DejaVuSans-48"/>
      </g>
     </g>
    </g>
    <g id="xtick_5">
     <g id="line2d_7">
      <g>
       <use style="stroke:#000000;stroke-width:0.8;" x="343.912694" xlink:href="#mc86a639872" y="525.24"/>
      </g>
     </g>
     <g id="text_7">
      <!-- 5.25 -->
      <g transform="translate(328.326756 542.877813)scale(0.14 -0.14)">
       <use xlink:href="#DejaVuSans-53"/>
       <use x="63.623047" xlink:href="#DejaVuSans-46"/>
       <use x="95.410156" xlink:href="#DejaVuSans-50"/>
       <use x="159.033203" xlink:href="#DejaVuSans-53"/>
      </g>
     </g>
    </g>
    <g id="xtick_6">
     <g id="line2d_8">
      <g>
       <use style="stroke:#000000;stroke-width:0.8;" x="411.666121" xlink:href="#mc86a639872" y="525.24"/>
      </g>
     </g>
     <g id="text_8">
      <!-- 5.50 -->
      <g transform="translate(396.080183 542.877813)scale(0.14 -0.14)">
       <use xlink:href="#DejaVuSans-53"/>
       <use x="63.623047" xlink:href="#DejaVuSans-46"/>
       <use x="95.410156" xlink:href="#DejaVuSans-53"/>
       <use x="159.033203" xlink:href="#DejaVuSans-48"/>
      </g>
     </g>
    </g>
    <g id="xtick_7">
     <g id="line2d_9">
      <g>
       <use style="stroke:#000000;stroke-width:0.8;" x="479.419548" xlink:href="#mc86a639872" y="525.24"/>
      </g>
     </g>
     <g id="text_9">
      <!-- 5.75 -->
      <g transform="translate(463.833611 542.877813)scale(0.14 -0.14)">
       <use xlink:href="#DejaVuSans-53"/>
       <use x="63.623047" xlink:href="#DejaVuSans-46"/>
       <use x="95.410156" xlink:href="#DejaVuSans-55"/>
       <use x="159.033203" xlink:href="#DejaVuSans-53"/>
      </g>
     </g>
    </g>
   </g>
   <g id="line2d_10">
    <path clip-path="url(#p34c7dce266)" d="M 281.579541 525.24 
L 281.579541 402.93 
" style="fill:none;stroke:#ff6384;stroke-dasharray:5.55,2.4;stroke-dashoffset:0;stroke-opacity:0.8;stroke-width:1.5;"/>
   </g>
   <g id="line2d_11">
    <path clip-path="url(#p34c7dce266)" d="M 303.260638 525.24 
L 303.260638 402.93 
" style="fill:none;stroke:#36a2eb;stroke-dasharray:5.55,2.4;stroke-dashoffset:0;stroke-opacity:0.8;stroke-width:1.5;"/>
   </g>
   <g id="patch_10">
    <path d="M 36 525.24 
L 538.2 525.24 
" style="fill:none;stroke:#000000;stroke-linecap:square;stroke-linejoin:miter;stroke-width:0.8;"/>
   </g>
  </g>
 </g>
 <defs>
  <clipPath id="pc357e1b238">
   <rect height="366.93" width="502.2" x="36" y="36"/>
  </clipPath>
  <clipPath id="p34c7dce266">
   <rect height="122.31" width="502.2" x="36" y="402.93"/>
  </clipPath>
 </defs>
</svg>
