<?xml version="1.0" encoding="utf-8" standalone="no"?>
<!DOCTYPE svg PUBLIC "-//W3C//DTD SVG 1.1//EN"
  "http://www.w3.org/Graphics/SVG/1.1/DTD/svg11.dtd">
<!-- Created with matplotlib (https://matplotlib.org/) -->
<svg height="581.789375pt" version="1.1" viewBox="0 0 574.2 581.789375" width="574.2pt" xmlns="http://www.w3.org/2000/svg" xmlns:xlink="http://www.w3.org/1999/xlink">
 <defs>
  <style type="text/css">
*{stroke-linecap:butt;stroke-linejoin:round;}
  </style>
 </defs>
 <g id="figure_1">
  <g id="patch_1">
   <path d="M 0 581.789375 
L 574.2 581.789375 
L 574.2 0 
L 0 0 
z
" style="fill:none;"/>
  </g>
  <g id="axes_1">
   <g id="patch_2">
    <path d="M 36 402.93 
L 538.2 402.93 
L 538.2 36 
L 36 36 
z
" style="fill:none;"/>
   </g>
   <g id="PolyCollection_1">
    <defs>
     <path d="M 58.827273 -195.538011 
L 58.827273 -195.644947 
L 63.244729 -195.685271 
L 67.662186 -195.73948 
L 72.079642 -195.811851 
L 76.497099 -195.907796 
L 80.914556 -196.034106 
L 85.332012 -196.19923 
L 89.749469 -196.413579 
L 94.166925 -196.689868 
L 98.584382 -197.043478 
L 103.001839 -197.492836 
L 107.419295 -198.0598 
L 111.836752 -198.770029 
L 116.254208 -199.653323 
L 120.671665 -200.743911 
L 125.089121 -202.080651 
L 129.506578 -203.707112 
L 133.924035 -205.671514 
L 138.341491 -208.026475 
L 142.758948 -210.828541 
L 147.176404 -214.137461 
L 151.593861 -218.015188 
L 156.011317 -222.52457 
L 160.428774 -227.727742 
L 164.846231 -233.684208 
L 169.263687 -240.44865 
L 173.681144 -248.068483 
L 178.0986 -256.581233 
L 182.516057 -266.011809 
L 186.933513 -276.369762 
L 191.35097 -287.646652 
L 195.768427 -299.813646 
L 200.185883 -312.81948 
L 204.60334 -326.588917 
L 209.020796 -341.021845 
L 213.438253 -355.993113 
L 217.85571 -371.353204 
L 222.273166 -386.929824 
L 226.690623 -402.530406 
L 231.108079 -417.94555 
L 235.525536 -432.953309 
L 239.942992 -447.32424 
L 244.360449 -460.827064 
L 248.777906 -473.234741 
L 253.195362 -484.330759 
L 257.612819 -493.91538 
L 262.030275 -501.811607 
L 266.447732 -507.870611 
L 270.865188 -511.976393 
L 275.282645 -514.04948 
L 279.700102 -514.04948 
L 284.117558 -511.976393 
L 288.535015 -507.870611 
L 292.952471 -501.811607 
L 297.369928 -493.91538 
L 301.787385 -484.330759 
L 306.204841 -473.234741 
L 310.622298 -460.827064 
L 315.039754 -447.32424 
L 319.457211 -432.953309 
L 323.874667 -417.94555 
L 328.292124 -402.530406 
L 332.709581 -386.929824 
L 337.127037 -371.353204 
L 341.544494 -355.993113 
L 345.96195 -341.021845 
L 350.379407 -326.588917 
L 354.796863 -312.81948 
L 359.21432 -299.813646 
L 363.631777 -287.646652 
L 368.049233 -276.369762 
L 372.46669 -266.011809 
L 376.884146 -256.581233 
L 381.301603 -248.068483 
L 385.71906 -240.44865 
L 390.136516 -233.684208 
L 394.553973 -227.727742 
L 398.971429 -222.52457 
L 403.388886 -218.015188 
L 407.806342 -214.137461 
L 412.223799 -210.828541 
L 416.641256 -208.026475 
L 421.058712 -205.671514 
L 425.476169 -203.707112 
L 429.893625 -202.080651 
L 434.311082 -200.743911 
L 438.728538 -199.653323 
L 443.145995 -198.770029 
L 447.563452 -198.0598 
L 451.980908 -197.492836 
L 456.398365 -197.043478 
L 460.815821 -196.689868 
L 465.233278 -196.413579 
L 469.650735 -196.19923 
L 474.068191 -196.034106 
L 478.485648 -195.907796 
L 482.903104 -195.811851 
L 487.320561 -195.73948 
L 491.738017 -195.685271 
L 496.155474 -195.644947 
L 496.155474 -195.538011 
L 496.155474 -195.538011 
L 491.738017 -195.538011 
L 487.320561 -195.538011 
L 482.903104 -195.538011 
L 478.485648 -195.538011 
L 474.068191 -195.538011 
L 469.650735 -195.538011 
L 465.233278 -195.538011 
L 460.815821 -195.538011 
L 456.398365 -195.538011 
L 451.980908 -195.538011 
L 447.563452 -195.538011 
L 443.145995 -195.538011 
L 438.728538 -195.538011 
L 434.311082 -195.538011 
L 429.893625 -195.538011 
L 425.476169 -195.538011 
L 421.058712 -195.538011 
L 416.641256 -195.538011 
L 412.223799 -195.538011 
L 407.806342 -195.538011 
L 403.388886 -195.538011 
L 398.971429 -195.538011 
L 394.553973 -195.538011 
L 390.136516 -195.538011 
L 385.71906 -195.538011 
L 381.301603 -195.538011 
L 376.884146 -195.538011 
L 372.46669 -195.538011 
L 368.049233 -195.538011 
L 363.631777 -195.538011 
L 359.21432 -195.538011 
L 354.796863 -195.538011 
L 350.379407 -195.538011 
L 345.96195 -195.538011 
L 341.544494 -195.538011 
L 337.127037 -195.538011 
L 332.709581 -195.538011 
L 328.292124 -195.538011 
L 323.874667 -195.538011 
L 319.457211 -195.538011 
L 315.039754 -195.538011 
L 310.622298 -195.538011 
L 306.204841 -195.538011 
L 301.787385 -195.538011 
L 297.369928 -195.538011 
L 292.952471 -195.538011 
L 288.535015 -195.538011 
L 284.117558 -195.538011 
L 279.700102 -195.538011 
L 275.282645 -195.538011 
L 270.865188 -195.538011 
L 266.447732 -195.538011 
L 262.030275 -195.538011 
L 257.612819 -195.538011 
L 253.195362 -195.538011 
L 248.777906 -195.538011 
L 244.360449 -195.538011 
L 239.942992 -195.538011 
L 235.525536 -195.538011 
L 231.108079 -195.538011 
L 226.690623 -195.538011 
L 222.273166 -195.538011 
L 217.85571 -195.538011 
L 213.438253 -195.538011 
L 209.020796 -195.538011 
L 204.60334 -195.538011 
L 200.185883 -195.538011 
L 195.768427 -195.538011 
L 191.35097 -195.538011 
L 186.933513 -195.538011 
L 182.516057 -195.538011 
L 178.0986 -195.538011 
L 173.681144 -195.538011 
L 169.263687 -195.538011 
L 164.846231 -195.538011 
L 160.428774 -195.538011 
L 156.011317 -195.538011 
L 151.593861 -195.538011 
L 147.176404 -195.538011 
L 142.758948 -195.538011 
L 138.341491 -195.538011 
L 133.924035 -195.538011 
L 129.506578 -195.538011 
L 125.089121 -195.538011 
L 120.671665 -195.538011 
L 116.254208 -195.538011 
L 111.836752 -195.538011 
L 107.419295 -195.538011 
L 103.001839 -195.538011 
L 98.584382 -195.538011 
L 94.166925 -195.538011 
L 89.749469 -195.538011 
L 85.332012 -195.538011 
L 80.914556 -195.538011 
L 76.497099 -195.538011 
L 72.079642 -195.538011 
L 67.662186 -195.538011 
L 63.244729 -195.538011 
L 58.827273 -195.538011 
z
" id="me01a104040" style="stroke:#ff6384;stroke-opacity:0.5;"/>
    </defs>
    <g clip-path="url(#p4332354724)">
     <use style="fill:#ff6384;fill-opacity:0.5;stroke:#ff6384;stroke-opacity:0.5;" x="0" xlink:href="#me01a104040" y="581.789375"/>
    </g>
   </g>
   <g id="PolyCollection_2">
    <defs>
     <path d="M 97.790484 -195.538011 
L 97.790484 -195.650004 
L 102.008487 -195.692234 
L 106.226489 -195.749007 
L 110.444492 -195.8248 
L 114.662494 -195.925281 
L 118.880496 -196.057565 
L 123.098499 -196.230497 
L 127.316501 -196.454982 
L 131.534504 -196.744335 
L 135.752506 -197.114666 
L 139.970509 -197.585273 
L 144.188511 -198.179047 
L 148.406514 -198.922859 
L 152.624516 -199.847921 
L 156.842519 -200.990079 
L 161.060521 -202.390029 
L 165.278523 -204.093399 
L 169.496526 -206.150691 
L 173.714528 -208.617009 
L 177.932531 -211.551575 
L 182.150533 -215.016962 
L 186.368536 -219.078053 
L 190.586538 -223.800667 
L 194.804541 -229.249878 
L 199.022543 -235.488004 
L 203.240546 -242.572312 
L 207.458548 -250.552459 
L 211.67655 -259.467747 
L 215.894553 -269.344261 
L 220.112555 -280.192004 
L 224.330558 -292.002137 
L 228.54856 -304.744465 
L 232.766563 -318.365297 
L 236.984565 -332.785841 
L 241.202568 -347.901251 
L 245.42057 -363.580456 
L 249.638573 -379.666871 
L 253.856575 -395.980052 
L 258.074577 -412.31833 
L 262.29258 -428.4624 
L 266.510582 -444.179822 
L 270.728585 -459.230303 
L 274.946587 -473.371627 
L 279.16459 -486.366018 
L 283.382592 -497.986726 
L 287.600595 -508.02457 
L 291.818597 -516.294181 
L 296.0366 -522.639693 
L 300.254602 -526.939623 
L 304.472604 -529.110739 
L 308.690607 -529.110739 
L 312.908609 -526.939623 
L 317.126612 -522.639693 
L 321.344614 -516.294181 
L 325.562617 -508.02457 
L 329.780619 -497.986726 
L 333.998622 -486.366018 
L 338.216624 -473.371627 
L 342.434627 -459.230303 
L 346.652629 -444.179822 
L 350.870632 -428.4624 
L 355.088634 -412.31833 
L 359.306636 -395.980052 
L 363.524639 -379.666871 
L 367.742641 -363.580456 
L 371.960644 -347.901251 
L 376.178646 -332.785841 
L 380.396649 -318.365297 
L 384.614651 -304.744465 
L 388.832654 -292.002137 
L 393.050656 -280.192004 
L 397.268659 -269.344261 
L 401.486661 -259.467747 
L 405.704663 -250.552459 
L 409.922666 -242.572312 
L 414.140668 -235.488004 
L 418.358671 -229.249878 
L 422.576673 -223.800667 
L 426.794676 -219.078053 
L 431.012678 -215.016962 
L 435.230681 -211.551575 
L 439.448683 -208.617009 
L 443.666686 -206.150691 
L 447.884688 -204.093399 
L 452.10269 -202.390029 
L 456.320693 -200.990079 
L 460.538695 -199.847921 
L 464.756698 -198.922859 
L 468.9747 -198.179047 
L 473.192703 -197.585273 
L 477.410705 -197.114666 
L 481.628708 -196.744335 
L 485.84671 -196.454982 
L 490.064713 -196.230497 
L 494.282715 -196.057565 
L 498.500717 -195.925281 
L 502.71872 -195.8248 
L 506.936722 -195.749007 
L 511.154725 -195.692234 
L 515.372727 -195.650004 
L 515.372727 -195.538011 
L 515.372727 -195.538011 
L 511.154725 -195.538011 
L 506.936722 -195.538011 
L 502.71872 -195.538011 
L 498.500717 -195.538011 
L 494.282715 -195.538011 
L 490.064713 -195.538011 
L 485.84671 -195.538011 
L 481.628708 -195.538011 
L 477.410705 -195.538011 
L 473.192703 -195.538011 
L 468.9747 -195.538011 
L 464.756698 -195.538011 
L 460.538695 -195.538011 
L 456.320693 -195.538011 
L 452.10269 -195.538011 
L 447.884688 -195.538011 
L 443.666686 -195.538011 
L 439.448683 -195.538011 
L 435.230681 -195.538011 
L 431.012678 -195.538011 
L 426.794676 -195.538011 
L 422.576673 -195.538011 
L 418.358671 -195.538011 
L 414.140668 -195.538011 
L 409.922666 -195.538011 
L 405.704663 -195.538011 
L 401.486661 -195.538011 
L 397.268659 -195.538011 
L 393.050656 -195.538011 
L 388.832654 -195.538011 
L 384.614651 -195.538011 
L 380.396649 -195.538011 
L 376.178646 -195.538011 
L 371.960644 -195.538011 
L 367.742641 -195.538011 
L 363.524639 -195.538011 
L 359.306636 -195.538011 
L 355.088634 -195.538011 
L 350.870632 -195.538011 
L 346.652629 -195.538011 
L 342.434627 -195.538011 
L 338.216624 -195.538011 
L 333.998622 -195.538011 
L 329.780619 -195.538011 
L 325.562617 -195.538011 
L 321.344614 -195.538011 
L 317.126612 -195.538011 
L 312.908609 -195.538011 
L 308.690607 -195.538011 
L 304.472604 -195.538011 
L 300.254602 -195.538011 
L 296.0366 -195.538011 
L 291.818597 -195.538011 
L 287.600595 -195.538011 
L 283.382592 -195.538011 
L 279.16459 -195.538011 
L 274.946587 -195.538011 
L 270.728585 -195.538011 
L 266.510582 -195.538011 
L 262.29258 -195.538011 
L 258.074577 -195.538011 
L 253.856575 -195.538011 
L 249.638573 -195.538011 
L 245.42057 -195.538011 
L 241.202568 -195.538011 
L 236.984565 -195.538011 
L 232.766563 -195.538011 
L 228.54856 -195.538011 
L 224.330558 -195.538011 
L 220.112555 -195.538011 
L 215.894553 -195.538011 
L 211.67655 -195.538011 
L 207.458548 -195.538011 
L 203.240546 -195.538011 
L 199.022543 -195.538011 
L 194.804541 -195.538011 
L 190.586538 -195.538011 
L 186.368536 -195.538011 
L 182.150533 -195.538011 
L 177.932531 -195.538011 
L 173.714528 -195.538011 
L 169.496526 -195.538011 
L 165.278523 -195.538011 
L 161.060521 -195.538011 
L 156.842519 -195.538011 
L 152.624516 -195.538011 
L 148.406514 -195.538011 
L 144.188511 -195.538011 
L 139.970509 -195.538011 
L 135.752506 -195.538011 
L 131.534504 -195.538011 
L 127.316501 -195.538011 
L 123.098499 -195.538011 
L 118.880496 -195.538011 
L 114.662494 -195.538011 
L 110.444492 -195.538011 
L 106.226489 -195.538011 
L 102.008487 -195.538011 
L 97.790484 -195.538011 
z
" id="m4021462659" style="stroke:#36a2eb;stroke-opacity:0.5;"/>
    </defs>
    <g clip-path="url(#p4332354724)">
     <use style="fill:#36a2eb;fill-opacity:0.5;stroke:#36a2eb;stroke-opacity:0.5;" x="0" xlink:href="#m4021462659" y="581.789375"/>
    </g>
   </g>
   <g id="line2d_1">
    <path clip-path="url(#p4332354724)" d="M 58.827273 386.144428 
L 63.244729 386.104104 
L 67.662186 386.049895 
L 72.079642 385.977524 
L 76.497099 385.881579 
L 80.914556 385.755269 
L 85.332012 385.590145 
L 89.749469 385.375796 
L 94.166925 385.099507 
L 98.584382 384.745897 
L 103.001839 384.296539 
L 107.419295 383.729575 
L 111.836752 383.019346 
L 116.254208 382.136052 
L 120.671665 381.045464 
L 125.089121 379.708724 
L 129.506578 378.082263 
L 133.924035 376.117861 
L 138.341491 373.7629 
L 142.758948 370.960834 
L 147.176404 367.651914 
L 151.593861 363.774187 
L 156.011317 359.264805 
L 160.428774 354.061633 
L 164.846231 348.105167 
L 169.263687 341.340725 
L 173.681144 333.720892 
L 178.0986 325.208142 
L 182.516057 315.777566 
L 186.933513 305.419613 
L 191.35097 294.142723 
L 195.768427 281.975729 
L 200.185883 268.969895 
L 204.60334 255.200458 
L 209.020796 240.76753 
L 213.438253 225.796262 
L 217.85571 210.436171 
L 222.273166 194.859551 
L 226.690623 179.258969 
L 231.108079 163.843825 
L 235.525536 148.836066 
L 239.942992 134.465135 
L 244.360449 120.962311 
L 248.777906 108.554634 
L 253.195362 97.458616 
L 257.612819 87.873995 
L 262.030275 79.977768 
L 266.447732 73.918764 
L 270.865188 69.812982 
L 275.282645 67.739895 
L 279.700102 67.739895 
L 284.117558 69.812982 
L 288.535015 73.918764 
L 292.952471 79.977768 
L 297.369928 87.873995 
L 301.787385 97.458616 
L 306.204841 108.554634 
L 310.622298 120.962311 
L 315.039754 134.465135 
L 319.457211 148.836066 
L 323.874667 163.843825 
L 328.292124 179.258969 
L 332.709581 194.859551 
L 337.127037 210.436171 
L 341.544494 225.796262 
L 345.96195 240.76753 
L 350.379407 255.200458 
L 354.796863 268.969895 
L 359.21432 281.975729 
L 363.631777 294.142723 
L 368.049233 305.419613 
L 372.46669 315.777566 
L 376.884146 325.208142 
L 381.301603 333.720892 
L 385.71906 341.340725 
L 390.136516 348.105167 
L 394.553973 354.061633 
L 398.971429 359.264805 
L 403.388886 363.774187 
L 407.806342 367.651914 
L 412.223799 370.960834 
L 416.641256 373.7629 
L 421.058712 376.117861 
L 425.476169 378.082263 
L 429.893625 379.708724 
L 434.311082 381.045464 
L 438.728538 382.136052 
L 443.145995 383.019346 
L 447.563452 383.729575 
L 451.980908 384.296539 
L 456.398365 384.745897 
L 460.815821 385.099507 
L 465.233278 385.375796 
L 469.650735 385.590145 
L 474.068191 385.755269 
L 478.485648 385.881579 
L 482.903104 385.977524 
L 487.320561 386.049895 
L 491.738017 386.104104 
L 496.155474 386.144428 
" style="fill:none;stroke:#ff6384;stroke-linecap:square;"/>
   </g>
   <g id="line2d_2">
    <path clip-path="url(#p4332354724)" d="M 97.790484 386.139371 
L 102.008487 386.097141 
L 106.226489 386.040368 
L 110.444492 385.964575 
L 114.662494 385.864094 
L 118.880496 385.73181 
L 123.098499 385.558878 
L 127.316501 385.334393 
L 131.534504 385.04504 
L 135.752506 384.674709 
L 139.970509 384.204102 
L 144.188511 383.610328 
L 148.406514 382.866516 
L 152.624516 381.941454 
L 156.842519 380.799296 
L 161.060521 379.399346 
L 165.278523 377.695976 
L 169.496526 375.638684 
L 173.714528 373.172366 
L 177.932531 370.2378 
L 182.150533 366.772413 
L 186.368536 362.711322 
L 190.586538 357.988708 
L 194.804541 352.539497 
L 199.022543 346.301371 
L 203.240546 339.217063 
L 207.458548 331.236916 
L 211.67655 322.321628 
L 215.894553 312.445114 
L 220.112555 301.597371 
L 224.330558 289.787238 
L 228.54856 277.04491 
L 232.766563 263.424078 
L 236.984565 249.003534 
L 241.202568 233.888124 
L 245.42057 218.208919 
L 249.638573 202.122504 
L 253.856575 185.809323 
L 258.074577 169.471045 
L 262.29258 153.326975 
L 266.510582 137.609553 
L 270.728585 122.559072 
L 274.946587 108.417748 
L 279.16459 95.423357 
L 283.382592 83.802649 
L 287.600595 73.764805 
L 291.818597 65.495194 
L 296.0366 59.149682 
L 300.254602 54.849752 
L 304.472604 52.678636 
L 308.690607 52.678636 
L 312.908609 54.849752 
L 317.126612 59.149682 
L 321.344614 65.495194 
L 325.562617 73.764805 
L 329.780619 83.802649 
L 333.998622 95.423357 
L 338.216624 108.417748 
L 342.434627 122.559072 
L 346.652629 137.609553 
L 350.870632 153.326975 
L 355.088634 169.471045 
L 359.306636 185.809323 
L 363.524639 202.122504 
L 367.742641 218.208919 
L 371.960644 233.888124 
L 376.178646 249.003534 
L 380.396649 263.424078 
L 384.614651 277.04491 
L 388.832654 289.787238 
L 393.050656 301.597371 
L 397.268659 312.445114 
L 401.486661 322.321628 
L 405.704663 331.236916 
L 409.922666 339.217063 
L 414.140668 346.301371 
L 418.358671 352.539497 
L 422.576673 357.988708 
L 426.794676 362.711322 
L 431.012678 366.772413 
L 435.230681 370.2378 
L 439.448683 373.172366 
L 443.666686 375.638684 
L 447.884688 377.695976 
L 452.10269 379.399346 
L 456.320693 380.799296 
L 460.538695 381.941454 
L 464.756698 382.866516 
L 468.9747 383.610328 
L 473.192703 384.204102 
L 477.410705 384.674709 
L 481.628708 385.04504 
L 485.84671 385.334393 
L 490.064713 385.558878 
L 494.282715 385.73181 
L 498.500717 385.864094 
L 502.71872 385.964575 
L 506.936722 386.040368 
L 511.154725 386.097141 
L 515.372727 386.139371 
" style="fill:none;stroke:#36a2eb;stroke-linecap:square;"/>
   </g>
   <g id="patch_3">
    <path d="M 36 402.93 
L 538.2 402.93 
" style="fill:none;stroke:#000000;stroke-linecap:square;stroke-linejoin:miter;stroke-width:0.8;"/>
   </g>
   <g id="legend_1">
    <g id="patch_4">
     <path d="M 414.919063 88.29875 
L 528.4 88.29875 
Q 531.2 88.29875 531.2 85.49875 
L 531.2 45.8 
Q 531.2 43 528.4 43 
L 414.919063 43 
Q 412.119063 43 412.119063 45.8 
L 412.119063 85.49875 
Q 412.119063 88.29875 414.919063 88.29875 
z
" style="fill:#ffffff;opacity:0.8;stroke:#cccccc;stroke-linejoin:miter;"/>
    </g>
    <g id="patch_5">
     <path d="M 417.719063 59.237813 
L 445.719063 59.237813 
L 445.719063 49.437813 
L 417.719063 49.437813 
z
" style="fill:#ff6384;opacity:0.5;stroke:#ff6384;stroke-linejoin:miter;"/>
    </g>
    <g id="text_1">
     <!-- sidemenu -->
     <defs>
      <path d="M 44.28125 53.078125 
L 44.28125 44.578125 
Q 40.484375 46.53125 36.375 47.5 
Q 32.28125 48.484375 27.875 48.484375 
Q 21.1875 48.484375 17.84375 46.4375 
Q 14.5 44.390625 14.5 40.28125 
Q 14.5 37.15625 16.890625 35.375 
Q 19.28125 33.59375 26.515625 31.984375 
L 29.59375 31.296875 
Q 39.15625 29.25 43.1875 25.515625 
Q 47.21875 21.78125 47.21875 15.09375 
Q 47.21875 7.46875 41.1875 3.015625 
Q 35.15625 -1.421875 24.609375 -1.421875 
Q 20.21875 -1.421875 15.453125 -0.5625 
Q 10.6875 0.296875 5.421875 2 
L 5.421875 11.28125 
Q 10.40625 8.6875 15.234375 7.390625 
Q 20.0625 6.109375 24.8125 6.109375 
Q 31.15625 6.109375 34.5625 8.28125 
Q 37.984375 10.453125 37.984375 14.40625 
Q 37.984375 18.0625 35.515625 20.015625 
Q 33.0625 21.96875 24.703125 23.78125 
L 21.578125 24.515625 
Q 13.234375 26.265625 9.515625 29.90625 
Q 5.8125 33.546875 5.8125 39.890625 
Q 5.8125 47.609375 11.28125 51.796875 
Q 16.75 56 26.8125 56 
Q 31.78125 56 36.171875 55.265625 
Q 40.578125 54.546875 44.28125 53.078125 
z
" id="DejaVuSans-115"/>
      <path d="M 9.421875 54.6875 
L 18.40625 54.6875 
L 18.40625 0 
L 9.421875 0 
z
M 9.421875 75.984375 
L 18.40625 75.984375 
L 18.40625 64.59375 
L 9.421875 64.59375 
z
" id="DejaVuSans-105"/>
      <path d="M 45.40625 46.390625 
L 45.40625 75.984375 
L 54.390625 75.984375 
L 54.390625 0 
L 45.40625 0 
L 45.40625 8.203125 
Q 42.578125 3.328125 38.25 0.953125 
Q 33.9375 -1.421875 27.875 -1.421875 
Q 17.96875 -1.421875 11.734375 6.484375 
Q 5.515625 14.40625 5.515625 27.296875 
Q 5.515625 40.1875 11.734375 48.09375 
Q 17.96875 56 27.875 56 
Q 33.9375 56 38.25 53.625 
Q 42.578125 51.265625 45.40625 46.390625 
z
M 14.796875 27.296875 
Q 14.796875 17.390625 18.875 11.75 
Q 22.953125 6.109375 30.078125 6.109375 
Q 37.203125 6.109375 41.296875 11.75 
Q 45.40625 17.390625 45.40625 27.296875 
Q 45.40625 37.203125 41.296875 42.84375 
Q 37.203125 48.484375 30.078125 48.484375 
Q 22.953125 48.484375 18.875 42.84375 
Q 14.796875 37.203125 14.796875 27.296875 
z
" id="DejaVuSans-100"/>
      <path d="M 56.203125 29.59375 
L 56.203125 25.203125 
L 14.890625 25.203125 
Q 15.484375 15.921875 20.484375 11.0625 
Q 25.484375 6.203125 34.421875 6.203125 
Q 39.59375 6.203125 44.453125 7.46875 
Q 49.3125 8.734375 54.109375 11.28125 
L 54.109375 2.78125 
Q 49.265625 0.734375 44.1875 -0.34375 
Q 39.109375 -1.421875 33.890625 -1.421875 
Q 20.796875 -1.421875 13.15625 6.1875 
Q 5.515625 13.8125 5.515625 26.8125 
Q 5.515625 40.234375 12.765625 48.109375 
Q 20.015625 56 32.328125 56 
Q 43.359375 56 49.78125 48.890625 
Q 56.203125 41.796875 56.203125 29.59375 
z
M 47.21875 32.234375 
Q 47.125 39.59375 43.09375 43.984375 
Q 39.0625 48.390625 32.421875 48.390625 
Q 24.90625 48.390625 20.390625 44.140625 
Q 15.875 39.890625 15.1875 32.171875 
z
" id="DejaVuSans-101"/>
      <path d="M 52 44.1875 
Q 55.375 50.25 60.0625 53.125 
Q 64.75 56 71.09375 56 
Q 79.640625 56 84.28125 50.015625 
Q 88.921875 44.046875 88.921875 33.015625 
L 88.921875 0 
L 79.890625 0 
L 79.890625 32.71875 
Q 79.890625 40.578125 77.09375 44.375 
Q 74.3125 48.1875 68.609375 48.1875 
Q 61.625 48.1875 57.5625 43.546875 
Q 53.515625 38.921875 53.515625 30.90625 
L 53.515625 0 
L 44.484375 0 
L 44.484375 32.71875 
Q 44.484375 40.625 41.703125 44.40625 
Q 38.921875 48.1875 33.109375 48.1875 
Q 26.21875 48.1875 22.15625 43.53125 
Q 18.109375 38.875 18.109375 30.90625 
L 18.109375 0 
L 9.078125 0 
L 9.078125 54.6875 
L 18.109375 54.6875 
L 18.109375 46.1875 
Q 21.1875 51.21875 25.484375 53.609375 
Q 29.78125 56 35.6875 56 
Q 41.65625 56 45.828125 52.96875 
Q 50 49.953125 52 44.1875 
z
" id="DejaVuSans-109"/>
      <path d="M 54.890625 33.015625 
L 54.890625 0 
L 45.90625 0 
L 45.90625 32.71875 
Q 45.90625 40.484375 42.875 44.328125 
Q 39.84375 48.1875 33.796875 48.1875 
Q 26.515625 48.1875 22.3125 43.546875 
Q 18.109375 38.921875 18.109375 30.90625 
L 18.109375 0 
L 9.078125 0 
L 9.078125 54.6875 
L 18.109375 54.6875 
L 18.109375 46.1875 
Q 21.34375 51.125 25.703125 53.5625 
Q 30.078125 56 35.796875 56 
Q 45.21875 56 50.046875 50.171875 
Q 54.890625 44.34375 54.890625 33.015625 
z
" id="DejaVuSans-110"/>
      <path d="M 8.5 21.578125 
L 8.5 54.6875 
L 17.484375 54.6875 
L 17.484375 21.921875 
Q 17.484375 14.15625 20.5 10.265625 
Q 23.53125 6.390625 29.59375 6.390625 
Q 36.859375 6.390625 41.078125 11.03125 
Q 45.3125 15.671875 45.3125 23.6875 
L 45.3125 54.6875 
L 54.296875 54.6875 
L 54.296875 0 
L 45.3125 0 
L 45.3125 8.40625 
Q 42.046875 3.421875 37.71875 1 
Q 33.40625 -1.421875 27.6875 -1.421875 
Q 18.265625 -1.421875 13.375 4.4375 
Q 8.5 10.296875 8.5 21.578125 
z
M 31.109375 56 
z
" id="DejaVuSans-117"/>
     </defs>
     <g transform="translate(456.919063 59.237813)scale(0.14 -0.14)">
      <use xlink:href="#DejaVuSans-115"/>
      <use x="52.099609" xlink:href="#DejaVuSans-105"/>
      <use x="79.882812" xlink:href="#DejaVuSans-100"/>
      <use x="143.359375" xlink:href="#DejaVuSans-101"/>
      <use x="204.882812" xlink:href="#DejaVuSans-109"/>
      <use x="302.294922" xlink:href="#DejaVuSans-101"/>
      <use x="363.818359" xlink:href="#DejaVuSans-110"/>
      <use x="427.197266" xlink:href="#DejaVuSans-117"/>
     </g>
    </g>
    <g id="patch_6">
     <path d="M 417.719063 79.787188 
L 445.719063 79.787188 
L 445.719063 69.987188 
L 417.719063 69.987188 
z
" style="fill:#36a2eb;opacity:0.5;stroke:#36a2eb;stroke-linejoin:miter;"/>
    </g>
    <g id="text_2">
     <!-- tabbar -->
     <defs>
      <path d="M 18.3125 70.21875 
L 18.3125 54.6875 
L 36.8125 54.6875 
L 36.8125 47.703125 
L 18.3125 47.703125 
L 18.3125 18.015625 
Q 18.3125 11.328125 20.140625 9.421875 
Q 21.96875 7.515625 27.59375 7.515625 
L 36.8125 7.515625 
L 36.8125 0 
L 27.59375 0 
Q 17.1875 0 13.234375 3.875 
Q 9.28125 7.765625 9.28125 18.015625 
L 9.28125 47.703125 
L 2.6875 47.703125 
L 2.6875 54.6875 
L 9.28125 54.6875 
L 9.28125 70.21875 
z
" id="DejaVuSans-116"/>
      <path d="M 34.28125 27.484375 
Q 23.390625 27.484375 19.1875 25 
Q 14.984375 22.515625 14.984375 16.5 
Q 14.984375 11.71875 18.140625 8.90625 
Q 21.296875 6.109375 26.703125 6.109375 
Q 34.1875 6.109375 38.703125 11.40625 
Q 43.21875 16.703125 43.21875 25.484375 
L 43.21875 27.484375 
z
M 52.203125 31.203125 
L 52.203125 0 
L 43.21875 0 
L 43.21875 8.296875 
Q 40.140625 3.328125 35.546875 0.953125 
Q 30.953125 -1.421875 24.3125 -1.421875 
Q 15.921875 -1.421875 10.953125 3.296875 
Q 6 8.015625 6 15.921875 
Q 6 25.140625 12.171875 29.828125 
Q 18.359375 34.515625 30.609375 34.515625 
L 43.21875 34.515625 
L 43.21875 35.40625 
Q 43.21875 41.609375 39.140625 45 
Q 35.0625 48.390625 27.6875 48.390625 
Q 23 48.390625 18.546875 47.265625 
Q 14.109375 46.140625 10.015625 43.890625 
L 10.015625 52.203125 
Q 14.9375 54.109375 19.578125 55.046875 
Q 24.21875 56 28.609375 56 
Q 40.484375 56 46.34375 49.84375 
Q 52.203125 43.703125 52.203125 31.203125 
z
" id="DejaVuSans-97"/>
      <path d="M 48.6875 27.296875 
Q 48.6875 37.203125 44.609375 42.84375 
Q 40.53125 48.484375 33.40625 48.484375 
Q 26.265625 48.484375 22.1875 42.84375 
Q 18.109375 37.203125 18.109375 27.296875 
Q 18.109375 17.390625 22.1875 11.75 
Q 26.265625 6.109375 33.40625 6.109375 
Q 40.53125 6.109375 44.609375 11.75 
Q 48.6875 17.390625 48.6875 27.296875 
z
M 18.109375 46.390625 
Q 20.953125 51.265625 25.265625 53.625 
Q 29.59375 56 35.59375 56 
Q 45.5625 56 51.78125 48.09375 
Q 58.015625 40.1875 58.015625 27.296875 
Q 58.015625 14.40625 51.78125 6.484375 
Q 45.5625 -1.421875 35.59375 -1.421875 
Q 29.59375 -1.421875 25.265625 0.953125 
Q 20.953125 3.328125 18.109375 8.203125 
L 18.109375 0 
L 9.078125 0 
L 9.078125 75.984375 
L 18.109375 75.984375 
z
" id="DejaVuSans-98"/>
      <path d="M 41.109375 46.296875 
Q 39.59375 47.171875 37.8125 47.578125 
Q 36.03125 48 33.890625 48 
Q 26.265625 48 22.1875 43.046875 
Q 18.109375 38.09375 18.109375 28.8125 
L 18.109375 0 
L 9.078125 0 
L 9.078125 54.6875 
L 18.109375 54.6875 
L 18.109375 46.1875 
Q 20.953125 51.171875 25.484375 53.578125 
Q 30.03125 56 36.53125 56 
Q 37.453125 56 38.578125 55.875 
Q 39.703125 55.765625 41.0625 55.515625 
z
" id="DejaVuSans-114"/>
     </defs>
     <g transform="translate(456.919063 79.787188)scale(0.14 -0.14)">
      <use xlink:href="#DejaVuSans-116"/>
      <use x="39.208984" xlink:href="#DejaVuSans-97"/>
      <use x="100.488281" xlink:href="#DejaVuSans-98"/>
      <use x="163.964844" xlink:href="#DejaVuSans-98"/>
      <use x="227.441406" xlink:href="#DejaVuSans-97"/>
      <use x="288.720703" xlink:href="#DejaVuSans-114"/>
     </g>
    </g>
   </g>
  </g>
  <g id="axes_2">
   <g id="patch_7">
    <path d="M 36 525.24 
L 538.2 525.24 
L 538.2 402.93 
L 36 402.93 
z
" style="fill:none;"/>
   </g>
   <g id="patch_8">
    <path clip-path="url(#pa5e6b74fc7)" d="M 170.345964 519.680455 
L 384.636783 519.680455 
L 384.636783 482.616818 
L 170.345964 482.616818 
z
" style="fill:#ff6384;opacity:0.5;"/>
   </g>
   <g id="patch_9">
    <path clip-path="url(#pa5e6b74fc7)" d="M 204.273956 445.553182 
L 408.889255 445.553182 
L 408.889255 408.489545 
L 204.273956 408.489545 
z
" style="fill:#36a2eb;opacity:0.5;"/>
   </g>
   <g id="matplotlib.axis_1">
    <g id="xtick_1">
     <g id="line2d_3">
      <defs>
       <path d="M 0 0 
L 0 3.5 
" id="m9bb7588f98" style="stroke:#000000;stroke-width:0.8;"/>
      </defs>
      <g>
       <use style="stroke:#000000;stroke-width:0.8;" x="88.404863" xlink:href="#m9bb7588f98" y="525.24"/>
      </g>
     </g>
     <g id="text_3">
      <!-- 2.8 -->
      <defs>
       <path d="M 19.1875 8.296875 
L 53.609375 8.296875 
L 53.609375 0 
L 7.328125 0 
L 7.328125 8.296875 
Q 12.9375 14.109375 22.625 23.890625 
Q 32.328125 33.6875 34.8125 36.53125 
Q 39.546875 41.84375 41.421875 45.53125 
Q 43.3125 49.21875 43.3125 52.78125 
Q 43.3125 58.59375 39.234375 62.25 
Q 35.15625 65.921875 28.609375 65.921875 
Q 23.96875 65.921875 18.8125 64.3125 
Q 13.671875 62.703125 7.8125 59.421875 
L 7.8125 69.390625 
Q 13.765625 71.78125 18.9375 73 
Q 24.125 74.21875 28.421875 74.21875 
Q 39.75 74.21875 46.484375 68.546875 
Q 53.21875 62.890625 53.21875 53.421875 
Q 53.21875 48.921875 51.53125 44.890625 
Q 49.859375 40.875 45.40625 35.40625 
Q 44.1875 33.984375 37.640625 27.21875 
Q 31.109375 20.453125 19.1875 8.296875 
z
" id="DejaVuSans-50"/>
       <path d="M 10.6875 12.40625 
L 21 12.40625 
L 21 0 
L 10.6875 0 
z
" id="DejaVuSans-46"/>
       <path d="M 31.78125 34.625 
Q 24.75 34.625 20.71875 30.859375 
Q 16.703125 27.09375 16.703125 20.515625 
Q 16.703125 13.921875 20.71875 10.15625 
Q 24.75 6.390625 31.78125 6.390625 
Q 38.8125 6.390625 42.859375 10.171875 
Q 46.921875 13.96875 46.921875 20.515625 
Q 46.921875 27.09375 42.890625 30.859375 
Q 38.875 34.625 31.78125 34.625 
z
M 21.921875 38.8125 
Q 15.578125 40.375 12.03125 44.71875 
Q 8.5 49.078125 8.5 55.328125 
Q 8.5 64.0625 14.71875 69.140625 
Q 20.953125 74.21875 31.78125 74.21875 
Q 42.671875 74.21875 48.875 69.140625 
Q 55.078125 64.0625 55.078125 55.328125 
Q 55.078125 49.078125 51.53125 44.71875 
Q 48 40.375 41.703125 38.8125 
Q 48.828125 37.15625 52.796875 32.3125 
Q 56.78125 27.484375 56.78125 20.515625 
Q 56.78125 9.90625 50.3125 4.234375 
Q 43.84375 -1.421875 31.78125 -1.421875 
Q 19.734375 -1.421875 13.25 4.234375 
Q 6.78125 9.90625 6.78125 20.515625 
Q 6.78125 27.484375 10.78125 32.3125 
Q 14.796875 37.15625 21.921875 38.8125 
z
M 18.3125 54.390625 
Q 18.3125 48.734375 21.84375 45.5625 
Q 25.390625 42.390625 31.78125 42.390625 
Q 38.140625 42.390625 41.71875 45.5625 
Q 45.3125 48.734375 45.3125 54.390625 
Q 45.3125 60.0625 41.71875 63.234375 
Q 38.140625 66.40625 31.78125 66.40625 
Q 25.390625 66.40625 21.84375 63.234375 
Q 18.3125 60.0625 18.3125 54.390625 
z
" id="DejaVuSans-56"/>
      </defs>
      <g transform="translate(77.272675 542.877813)scale(0.14 -0.14)">
       <use xlink:href="#DejaVuSans-50"/>
       <use x="63.623047" xlink:href="#DejaVuSans-46"/>
       <use x="95.410156" xlink:href="#DejaVuSans-56"/>
      </g>
     </g>
    </g>
    <g id="xtick_2">
     <g id="line2d_4">
      <g>
       <use style="stroke:#000000;stroke-width:0.8;" x="146.585328" xlink:href="#m9bb7588f98" y="525.24"/>
      </g>
     </g>
     <g id="text_4">
      <!-- 3.0 -->
      <defs>
       <path d="M 40.578125 39.3125 
Q 47.65625 37.796875 51.625 33 
Q 55.609375 28.21875 55.609375 21.1875 
Q 55.609375 10.40625 48.1875 4.484375 
Q 40.765625 -1.421875 27.09375 -1.421875 
Q 22.515625 -1.421875 17.65625 -0.515625 
Q 12.796875 0.390625 7.625 2.203125 
L 7.625 11.71875 
Q 11.71875 9.328125 16.59375 8.109375 
Q 21.484375 6.890625 26.8125 6.890625 
Q 36.078125 6.890625 40.9375 10.546875 
Q 45.796875 14.203125 45.796875 21.1875 
Q 45.796875 27.640625 41.28125 31.265625 
Q 36.765625 34.90625 28.71875 34.90625 
L 20.21875 34.90625 
L 20.21875 43.015625 
L 29.109375 43.015625 
Q 36.375 43.015625 40.234375 45.921875 
Q 44.09375 48.828125 44.09375 54.296875 
Q 44.09375 59.90625 40.109375 62.90625 
Q 36.140625 65.921875 28.71875 65.921875 
Q 24.65625 65.921875 20.015625 65.03125 
Q 15.375 64.15625 9.8125 62.3125 
L 9.8125 71.09375 
Q 15.4375 72.65625 20.34375 73.4375 
Q 25.25 74.21875 29.59375 74.21875 
Q 40.828125 74.21875 47.359375 69.109375 
Q 53.90625 64.015625 53.90625 55.328125 
Q 53.90625 49.265625 50.4375 45.09375 
Q 46.96875 40.921875 40.578125 39.3125 
z
" id="DejaVuSans-51"/>
       <path d="M 31.78125 66.40625 
Q 24.171875 66.40625 20.328125 58.90625 
Q 16.5 51.421875 16.5 36.375 
Q 16.5 21.390625 20.328125 13.890625 
Q 24.171875 6.390625 31.78125 6.390625 
Q 39.453125 6.390625 43.28125 13.890625 
Q 47.125 21.390625 47.125 36.375 
Q 47.125 51.421875 43.28125 58.90625 
Q 39.453125 66.40625 31.78125 66.40625 
z
M 31.78125 74.21875 
Q 44.046875 74.21875 50.515625 64.515625 
Q 56.984375 54.828125 56.984375 36.375 
Q 56.984375 17.96875 50.515625 8.265625 
Q 44.046875 -1.421875 31.78125 -1.421875 
Q 19.53125 -1.421875 13.0625 8.265625 
Q 6.59375 17.96875 6.59375 36.375 
Q 6.59375 54.828125 13.0625 64.515625 
Q 19.53125 74.21875 31.78125 74.21875 
z
" id="DejaVuSans-48"/>
      </defs>
      <g transform="translate(135.45314 542.877813)scale(0.14 -0.14)">
       <use xlink:href="#DejaVuSans-51"/>
       <use x="63.623047" xlink:href="#DejaVuSans-46"/>
       <use x="95.410156" xlink:href="#DejaVuSans-48"/>
      </g>
     </g>
    </g>
    <g id="xtick_3">
     <g id="line2d_5">
      <g>
       <use style="stroke:#000000;stroke-width:0.8;" x="204.765792" xlink:href="#m9bb7588f98" y="525.24"/>
      </g>
     </g>
     <g id="text_5">
      <!-- 3.2 -->
      <g transform="translate(193.633605 542.877813)scale(0.14 -0.14)">
       <use xlink:href="#DejaVuSans-51"/>
       <use x="63.623047" xlink:href="#DejaVuSans-46"/>
       <use x="95.410156" xlink:href="#DejaVuSans-50"/>
      </g>
     </g>
    </g>
    <g id="xtick_4">
     <g id="line2d_6">
      <g>
       <use style="stroke:#000000;stroke-width:0.8;" x="262.946257" xlink:href="#m9bb7588f98" y="525.24"/>
      </g>
     </g>
     <g id="text_6">
      <!-- 3.4 -->
      <defs>
       <path d="M 37.796875 64.3125 
L 12.890625 25.390625 
L 37.796875 25.390625 
z
M 35.203125 72.90625 
L 47.609375 72.90625 
L 47.609375 25.390625 
L 58.015625 25.390625 
L 58.015625 17.1875 
L 47.609375 17.1875 
L 47.609375 0 
L 37.796875 0 
L 37.796875 17.1875 
L 4.890625 17.1875 
L 4.890625 26.703125 
z
" id="DejaVuSans-52"/>
      </defs>
      <g transform="translate(251.81407 542.877813)scale(0.14 -0.14)">
       <use xlink:href="#DejaVuSans-51"/>
       <use x="63.623047" xlink:href="#DejaVuSans-46"/>
       <use x="95.410156" xlink:href="#DejaVuSans-52"/>
      </g>
     </g>
    </g>
    <g id="xtick_5">
     <g id="line2d_7">
      <g>
       <use style="stroke:#000000;stroke-width:0.8;" x="321.126722" xlink:href="#m9bb7588f98" y="525.24"/>
      </g>
     </g>
     <g id="text_7">
      <!-- 3.6 -->
      <defs>
       <path d="M 33.015625 40.375 
Q 26.375 40.375 22.484375 35.828125 
Q 18.609375 31.296875 18.609375 23.390625 
Q 18.609375 15.53125 22.484375 10.953125 
Q 26.375 6.390625 33.015625 6.390625 
Q 39.65625 6.390625 43.53125 10.953125 
Q 47.40625 15.53125 47.40625 23.390625 
Q 47.40625 31.296875 43.53125 35.828125 
Q 39.65625 40.375 33.015625 40.375 
z
M 52.59375 71.296875 
L 52.59375 62.3125 
Q 48.875 64.0625 45.09375 64.984375 
Q 41.3125 65.921875 37.59375 65.921875 
Q 27.828125 65.921875 22.671875 59.328125 
Q 17.53125 52.734375 16.796875 39.40625 
Q 19.671875 43.65625 24.015625 45.921875 
Q 28.375 48.1875 33.59375 48.1875 
Q 44.578125 48.1875 50.953125 41.515625 
Q 57.328125 34.859375 57.328125 23.390625 
Q 57.328125 12.15625 50.6875 5.359375 
Q 44.046875 -1.421875 33.015625 -1.421875 
Q 20.359375 -1.421875 13.671875 8.265625 
Q 6.984375 17.96875 6.984375 36.375 
Q 6.984375 53.65625 15.1875 63.9375 
Q 23.390625 74.21875 37.203125 74.21875 
Q 40.921875 74.21875 44.703125 73.484375 
Q 48.484375 72.75 52.59375 71.296875 
z
" id="DejaVuSans-54"/>
      </defs>
      <g transform="translate(309.994534 542.877813)scale(0.14 -0.14)">
       <use xlink:href="#DejaVuSans-51"/>
       <use x="63.623047" xlink:href="#DejaVuSans-46"/>
       <use x="95.410156" xlink:href="#DejaVuSans-54"/>
      </g>
     </g>
    </g>
    <g id="xtick_6">
     <g id="line2d_8">
      <g>
       <use style="stroke:#000000;stroke-width:0.8;" x="379.307187" xlink:href="#m9bb7588f98" y="525.24"/>
      </g>
     </g>
     <g id="text_8">
      <!-- 3.8 -->
      <g transform="translate(368.174999 542.877813)scale(0.14 -0.14)">
       <use xlink:href="#DejaVuSans-51"/>
       <use x="63.623047" xlink:href="#DejaVuSans-46"/>
       <use x="95.410156" xlink:href="#DejaVuSans-56"/>
      </g>
     </g>
    </g>
    <g id="xtick_7">
     <g id="line2d_9">
      <g>
       <use style="stroke:#000000;stroke-width:0.8;" x="437.487651" xlink:href="#m9bb7588f98" y="525.24"/>
      </g>
     </g>
     <g id="text_9">
      <!-- 4.0 -->
      <g transform="translate(426.355464 542.877813)scale(0.14 -0.14)">
       <use xlink:href="#DejaVuSans-52"/>
       <use x="63.623047" xlink:href="#DejaVuSans-46"/>
       <use x="95.410156" xlink:href="#DejaVuSans-48"/>
      </g>
     </g>
    </g>
    <g id="xtick_8">
     <g id="line2d_10">
      <g>
       <use style="stroke:#000000;stroke-width:0.8;" x="495.668116" xlink:href="#m9bb7588f98" y="525.24"/>
      </g>
     </g>
     <g id="text_10">
      <!-- 4.2 -->
      <g transform="translate(484.535929 542.877813)scale(0.14 -0.14)">
       <use xlink:href="#DejaVuSans-52"/>
       <use x="63.623047" xlink:href="#DejaVuSans-46"/>
       <use x="95.410156" xlink:href="#DejaVuSans-50"/>
      </g>
     </g>
    </g>
   </g>
   <g id="line2d_11">
    <path clip-path="url(#pa5e6b74fc7)" d="M 277.491373 525.24 
L 277.491373 402.93 
" style="fill:none;stroke:#ff6384;stroke-dasharray:5.55,2.4;stroke-dashoffset:0;stroke-opacity:0.8;stroke-width:1.5;"/>
   </g>
   <g id="line2d_12">
    <path clip-path="url(#pa5e6b74fc7)" d="M 306.581606 525.24 
L 306.581606 402.93 
" style="fill:none;stroke:#36a2eb;stroke-dasharray:5.55,2.4;stroke-dashoffset:0;stroke-opacity:0.8;stroke-width:1.5;"/>
   </g>
   <g id="patch_10">
    <path d="M 36 525.24 
L 538.2 525.24 
" style="fill:none;stroke:#000000;stroke-linecap:square;stroke-linejoin:miter;stroke-width:0.8;"/>
   </g>
  </g>
 </g>
 <defs>
  <clipPath id="p4332354724">
   <rect height="366.93" width="502.2" x="36" y="36"/>
  </clipPath>
  <clipPath id="pa5e6b74fc7">
   <rect height="122.31" width="502.2" x="36" y="402.93"/>
  </clipPath>
 </defs>
</svg>
