<?xml version="1.0" encoding="utf-8" standalone="no"?>
<!DOCTYPE svg PUBLIC "-//W3C//DTD SVG 1.1//EN"
  "http://www.w3.org/Graphics/SVG/1.1/DTD/svg11.dtd">
<!-- Created with matplotlib (https://matplotlib.org/) -->
<svg height="581.789375pt" version="1.1" viewBox="0 0 574.2 581.789375" width="574.2pt" xmlns="http://www.w3.org/2000/svg" xmlns:xlink="http://www.w3.org/1999/xlink">
 <defs>
  <style type="text/css">
*{stroke-linecap:butt;stroke-linejoin:round;}
  </style>
 </defs>
 <g id="figure_1">
  <g id="patch_1">
   <path d="M 0 581.789375 
L 574.2 581.789375 
L 574.2 0 
L 0 0 
z
" style="fill:none;"/>
  </g>
  <g id="axes_1">
   <g id="patch_2">
    <path d="M 36 402.93 
L 538.2 402.93 
L 538.2 36 
L 36 36 
z
" style="fill:none;"/>
   </g>
   <g id="PolyCollection_1">
    <defs>
     <path d="M 58.827273 -195.538011 
L 58.827273 -195.644592 
L 63.355516 -195.684782 
L 67.88376 -195.738811 
L 72.412003 -195.810941 
L 76.940247 -195.906567 
L 81.46849 -196.032458 
L 85.996734 -196.197034 
L 90.524977 -196.41067 
L 95.053221 -196.686041 
L 99.581465 -197.038476 
L 104.109708 -197.486342 
L 108.637952 -198.051422 
L 113.166195 -198.759291 
L 117.694439 -199.639651 
L 122.222682 -200.726616 
L 126.750926 -202.058914 
L 131.279169 -203.679972 
L 135.807413 -205.637848 
L 140.335656 -207.984985 
L 144.8639 -210.777742 
L 149.392143 -214.075669 
L 153.920387 -217.940514 
L 158.448631 -222.434914 
L 162.976874 -227.620799 
L 167.505118 -233.557477 
L 172.033361 -240.299446 
L 176.561605 -247.893964 
L 181.089848 -256.378432 
L 185.618092 -265.777678 
L 190.146335 -276.101219 
L 194.674579 -287.340644 
L 199.202822 -299.467217 
L 203.731066 -312.429842 
L 208.259309 -326.153533 
L 212.787553 -340.538512 
L 217.315797 -355.460041 
L 221.84404 -370.769103 
L 226.372284 -386.293973 
L 230.900527 -401.842726 
L 235.428771 -417.206657 
L 239.957014 -432.164556 
L 244.485258 -446.487744 
L 249.013501 -459.945709 
L 253.541745 -472.312164 
L 258.069988 -483.371318 
L 262.598232 -492.924097 
L 267.126475 -500.794091 
L 271.654719 -506.832965 
L 276.182963 -510.925107 
L 280.711206 -512.991306 
L 285.23945 -512.991306 
L 289.767693 -510.925107 
L 294.295937 -506.832965 
L 298.82418 -500.794091 
L 303.352424 -492.924097 
L 307.880667 -483.371318 
L 312.408911 -472.312164 
L 316.937154 -459.945709 
L 321.465398 -446.487744 
L 325.993641 -432.164556 
L 330.521885 -417.206657 
L 335.050129 -401.842726 
L 339.578372 -386.293973 
L 344.106616 -370.769103 
L 348.634859 -355.460041 
L 353.163103 -340.538512 
L 357.691346 -326.153533 
L 362.21959 -312.429842 
L 366.747833 -299.467217 
L 371.276077 -287.340644 
L 375.80432 -276.101219 
L 380.332564 -265.777678 
L 384.860807 -256.378432 
L 389.389051 -247.893964 
L 393.917295 -240.299446 
L 398.445538 -233.557477 
L 402.973782 -227.620799 
L 407.502025 -222.434914 
L 412.030269 -217.940514 
L 416.558512 -214.075669 
L 421.086756 -210.777742 
L 425.614999 -207.984985 
L 430.143243 -205.637848 
L 434.671486 -203.679972 
L 439.19973 -202.058914 
L 443.727973 -200.726616 
L 448.256217 -199.639651 
L 452.784461 -198.759291 
L 457.312704 -198.051422 
L 461.840948 -197.486342 
L 466.369191 -197.038476 
L 470.897435 -196.686041 
L 475.425678 -196.41067 
L 479.953922 -196.197034 
L 484.482165 -196.032458 
L 489.010409 -195.906567 
L 493.538652 -195.810941 
L 498.066896 -195.738811 
L 502.595139 -195.684782 
L 507.123383 -195.644592 
L 507.123383 -195.538011 
L 507.123383 -195.538011 
L 502.595139 -195.538011 
L 498.066896 -195.538011 
L 493.538652 -195.538011 
L 489.010409 -195.538011 
L 484.482165 -195.538011 
L 479.953922 -195.538011 
L 475.425678 -195.538011 
L 470.897435 -195.538011 
L 466.369191 -195.538011 
L 461.840948 -195.538011 
L 457.312704 -195.538011 
L 452.784461 -195.538011 
L 448.256217 -195.538011 
L 443.727973 -195.538011 
L 439.19973 -195.538011 
L 434.671486 -195.538011 
L 430.143243 -195.538011 
L 425.614999 -195.538011 
L 421.086756 -195.538011 
L 416.558512 -195.538011 
L 412.030269 -195.538011 
L 407.502025 -195.538011 
L 402.973782 -195.538011 
L 398.445538 -195.538011 
L 393.917295 -195.538011 
L 389.389051 -195.538011 
L 384.860807 -195.538011 
L 380.332564 -195.538011 
L 375.80432 -195.538011 
L 371.276077 -195.538011 
L 366.747833 -195.538011 
L 362.21959 -195.538011 
L 357.691346 -195.538011 
L 353.163103 -195.538011 
L 348.634859 -195.538011 
L 344.106616 -195.538011 
L 339.578372 -195.538011 
L 335.050129 -195.538011 
L 330.521885 -195.538011 
L 325.993641 -195.538011 
L 321.465398 -195.538011 
L 316.937154 -195.538011 
L 312.408911 -195.538011 
L 307.880667 -195.538011 
L 303.352424 -195.538011 
L 298.82418 -195.538011 
L 294.295937 -195.538011 
L 289.767693 -195.538011 
L 285.23945 -195.538011 
L 280.711206 -195.538011 
L 276.182963 -195.538011 
L 271.654719 -195.538011 
L 267.126475 -195.538011 
L 262.598232 -195.538011 
L 258.069988 -195.538011 
L 253.541745 -195.538011 
L 249.013501 -195.538011 
L 244.485258 -195.538011 
L 239.957014 -195.538011 
L 235.428771 -195.538011 
L 230.900527 -195.538011 
L 226.372284 -195.538011 
L 221.84404 -195.538011 
L 217.315797 -195.538011 
L 212.787553 -195.538011 
L 208.259309 -195.538011 
L 203.731066 -195.538011 
L 199.202822 -195.538011 
L 194.674579 -195.538011 
L 190.146335 -195.538011 
L 185.618092 -195.538011 
L 181.089848 -195.538011 
L 176.561605 -195.538011 
L 172.033361 -195.538011 
L 167.505118 -195.538011 
L 162.976874 -195.538011 
L 158.448631 -195.538011 
L 153.920387 -195.538011 
L 149.392143 -195.538011 
L 144.8639 -195.538011 
L 140.335656 -195.538011 
L 135.807413 -195.538011 
L 131.279169 -195.538011 
L 126.750926 -195.538011 
L 122.222682 -195.538011 
L 117.694439 -195.538011 
L 113.166195 -195.538011 
L 108.637952 -195.538011 
L 104.109708 -195.538011 
L 99.581465 -195.538011 
L 95.053221 -195.538011 
L 90.524977 -195.538011 
L 85.996734 -195.538011 
L 81.46849 -195.538011 
L 76.940247 -195.538011 
L 72.412003 -195.538011 
L 67.88376 -195.538011 
L 63.355516 -195.538011 
L 58.827273 -195.538011 
z
" id="md12d2cf07e" style="stroke:#ff6384;stroke-opacity:0.5;"/>
    </defs>
    <g clip-path="url(#p0ce8b613a2)">
     <use style="fill:#ff6384;fill-opacity:0.5;stroke:#ff6384;stroke-opacity:0.5;" x="0" xlink:href="#md12d2cf07e" y="581.789375"/>
    </g>
   </g>
   <g id="PolyCollection_2">
    <defs>
     <path d="M 88.739895 -195.538011 
L 88.739895 -195.650004 
L 93.049318 -195.692234 
L 97.35874 -195.749007 
L 101.668163 -195.8248 
L 105.977585 -195.925281 
L 110.287008 -196.057565 
L 114.59643 -196.230497 
L 118.905853 -196.454982 
L 123.215275 -196.744335 
L 127.524698 -197.114666 
L 131.834121 -197.585273 
L 136.143543 -198.179047 
L 140.452966 -198.922859 
L 144.762388 -199.847921 
L 149.071811 -200.990079 
L 153.381233 -202.390029 
L 157.690656 -204.093399 
L 162.000078 -206.150691 
L 166.309501 -208.617009 
L 170.618923 -211.551575 
L 174.928346 -215.016962 
L 179.237769 -219.078053 
L 183.547191 -223.800667 
L 187.856614 -229.249878 
L 192.166036 -235.488004 
L 196.475459 -242.572312 
L 200.784881 -250.552459 
L 205.094304 -259.467747 
L 209.403726 -269.344261 
L 213.713149 -280.192004 
L 218.022572 -292.002137 
L 222.331994 -304.744465 
L 226.641417 -318.365297 
L 230.950839 -332.785841 
L 235.260262 -347.901251 
L 239.569684 -363.580456 
L 243.879107 -379.666871 
L 248.188529 -395.980052 
L 252.497952 -412.31833 
L 256.807374 -428.4624 
L 261.116797 -444.179822 
L 265.42622 -459.230303 
L 269.735642 -473.371627 
L 274.045065 -486.366018 
L 278.354487 -497.986726 
L 282.66391 -508.02457 
L 286.973332 -516.294181 
L 291.282755 -522.639693 
L 295.592177 -526.939623 
L 299.9016 -529.110739 
L 304.211022 -529.110739 
L 308.520445 -526.939623 
L 312.829868 -522.639693 
L 317.13929 -516.294181 
L 321.448713 -508.02457 
L 325.758135 -497.986726 
L 330.067558 -486.366018 
L 334.37698 -473.371627 
L 338.686403 -459.230303 
L 342.995825 -444.179822 
L 347.305248 -428.4624 
L 351.61467 -412.31833 
L 355.924093 -395.980052 
L 360.233516 -379.666871 
L 364.542938 -363.580456 
L 368.852361 -347.901251 
L 373.161783 -332.785841 
L 377.471206 -318.365297 
L 381.780628 -304.744465 
L 386.090051 -292.002137 
L 390.399473 -280.192004 
L 394.708896 -269.344261 
L 399.018318 -259.467747 
L 403.327741 -250.552459 
L 407.637164 -242.572312 
L 411.946586 -235.488004 
L 416.256009 -229.249878 
L 420.565431 -223.800667 
L 424.874854 -219.078053 
L 429.184276 -215.016962 
L 433.493699 -211.551575 
L 437.803121 -208.617009 
L 442.112544 -206.150691 
L 446.421967 -204.093399 
L 450.731389 -202.390029 
L 455.040812 -200.990079 
L 459.350234 -199.847921 
L 463.659657 -198.922859 
L 467.969079 -198.179047 
L 472.278502 -197.585273 
L 476.587924 -197.114666 
L 480.897347 -196.744335 
L 485.206769 -196.454982 
L 489.516192 -196.230497 
L 493.825615 -196.057565 
L 498.135037 -195.925281 
L 502.44446 -195.8248 
L 506.753882 -195.749007 
L 511.063305 -195.692234 
L 515.372727 -195.650004 
L 515.372727 -195.538011 
L 515.372727 -195.538011 
L 511.063305 -195.538011 
L 506.753882 -195.538011 
L 502.44446 -195.538011 
L 498.135037 -195.538011 
L 493.825615 -195.538011 
L 489.516192 -195.538011 
L 485.206769 -195.538011 
L 480.897347 -195.538011 
L 476.587924 -195.538011 
L 472.278502 -195.538011 
L 467.969079 -195.538011 
L 463.659657 -195.538011 
L 459.350234 -195.538011 
L 455.040812 -195.538011 
L 450.731389 -195.538011 
L 446.421967 -195.538011 
L 442.112544 -195.538011 
L 437.803121 -195.538011 
L 433.493699 -195.538011 
L 429.184276 -195.538011 
L 424.874854 -195.538011 
L 420.565431 -195.538011 
L 416.256009 -195.538011 
L 411.946586 -195.538011 
L 407.637164 -195.538011 
L 403.327741 -195.538011 
L 399.018318 -195.538011 
L 394.708896 -195.538011 
L 390.399473 -195.538011 
L 386.090051 -195.538011 
L 381.780628 -195.538011 
L 377.471206 -195.538011 
L 373.161783 -195.538011 
L 368.852361 -195.538011 
L 364.542938 -195.538011 
L 360.233516 -195.538011 
L 355.924093 -195.538011 
L 351.61467 -195.538011 
L 347.305248 -195.538011 
L 342.995825 -195.538011 
L 338.686403 -195.538011 
L 334.37698 -195.538011 
L 330.067558 -195.538011 
L 325.758135 -195.538011 
L 321.448713 -195.538011 
L 317.13929 -195.538011 
L 312.829868 -195.538011 
L 308.520445 -195.538011 
L 304.211022 -195.538011 
L 299.9016 -195.538011 
L 295.592177 -195.538011 
L 291.282755 -195.538011 
L 286.973332 -195.538011 
L 282.66391 -195.538011 
L 278.354487 -195.538011 
L 274.045065 -195.538011 
L 269.735642 -195.538011 
L 265.42622 -195.538011 
L 261.116797 -195.538011 
L 256.807374 -195.538011 
L 252.497952 -195.538011 
L 248.188529 -195.538011 
L 243.879107 -195.538011 
L 239.569684 -195.538011 
L 235.260262 -195.538011 
L 230.950839 -195.538011 
L 226.641417 -195.538011 
L 222.331994 -195.538011 
L 218.022572 -195.538011 
L 213.713149 -195.538011 
L 209.403726 -195.538011 
L 205.094304 -195.538011 
L 200.784881 -195.538011 
L 196.475459 -195.538011 
L 192.166036 -195.538011 
L 187.856614 -195.538011 
L 183.547191 -195.538011 
L 179.237769 -195.538011 
L 174.928346 -195.538011 
L 170.618923 -195.538011 
L 166.309501 -195.538011 
L 162.000078 -195.538011 
L 157.690656 -195.538011 
L 153.381233 -195.538011 
L 149.071811 -195.538011 
L 144.762388 -195.538011 
L 140.452966 -195.538011 
L 136.143543 -195.538011 
L 131.834121 -195.538011 
L 127.524698 -195.538011 
L 123.215275 -195.538011 
L 118.905853 -195.538011 
L 114.59643 -195.538011 
L 110.287008 -195.538011 
L 105.977585 -195.538011 
L 101.668163 -195.538011 
L 97.35874 -195.538011 
L 93.049318 -195.538011 
L 88.739895 -195.538011 
z
" id="m73d1c7e8e7" style="stroke:#36a2eb;stroke-opacity:0.5;"/>
    </defs>
    <g clip-path="url(#p0ce8b613a2)">
     <use style="fill:#36a2eb;fill-opacity:0.5;stroke:#36a2eb;stroke-opacity:0.5;" x="0" xlink:href="#m73d1c7e8e7" y="581.789375"/>
    </g>
   </g>
   <g id="line2d_1">
    <path clip-path="url(#p0ce8b613a2)" d="M 58.827273 386.144783 
L 63.355516 386.104593 
L 67.88376 386.050564 
L 72.412003 385.978434 
L 76.940247 385.882808 
L 81.46849 385.756917 
L 85.996734 385.592341 
L 90.524977 385.378705 
L 95.053221 385.103334 
L 99.581465 384.750899 
L 104.109708 384.303033 
L 108.637952 383.737953 
L 113.166195 383.030084 
L 117.694439 382.149724 
L 122.222682 381.062759 
L 126.750926 379.730461 
L 131.279169 378.109403 
L 135.807413 376.151527 
L 140.335656 373.80439 
L 144.8639 371.011633 
L 149.392143 367.713706 
L 153.920387 363.848861 
L 158.448631 359.354461 
L 162.976874 354.168576 
L 167.505118 348.231898 
L 172.033361 341.489929 
L 176.561605 333.895411 
L 181.089848 325.410943 
L 185.618092 316.011697 
L 190.146335 305.688156 
L 194.674579 294.448731 
L 199.202822 282.322158 
L 203.731066 269.359533 
L 208.259309 255.635842 
L 212.787553 241.250863 
L 217.315797 226.329334 
L 221.84404 211.020272 
L 226.372284 195.495402 
L 230.900527 179.946649 
L 235.428771 164.582718 
L 239.957014 149.624819 
L 244.485258 135.301631 
L 249.013501 121.843666 
L 253.541745 109.477211 
L 258.069988 98.418057 
L 262.598232 88.865278 
L 267.126475 80.995284 
L 271.654719 74.95641 
L 276.182963 70.864268 
L 280.711206 68.798069 
L 285.23945 68.798069 
L 289.767693 70.864268 
L 294.295937 74.95641 
L 298.82418 80.995284 
L 303.352424 88.865278 
L 307.880667 98.418057 
L 312.408911 109.477211 
L 316.937154 121.843666 
L 321.465398 135.301631 
L 325.993641 149.624819 
L 330.521885 164.582718 
L 335.050129 179.946649 
L 339.578372 195.495402 
L 344.106616 211.020272 
L 348.634859 226.329334 
L 353.163103 241.250863 
L 357.691346 255.635842 
L 362.21959 269.359533 
L 366.747833 282.322158 
L 371.276077 294.448731 
L 375.80432 305.688156 
L 380.332564 316.011697 
L 384.860807 325.410943 
L 389.389051 333.895411 
L 393.917295 341.489929 
L 398.445538 348.231898 
L 402.973782 354.168576 
L 407.502025 359.354461 
L 412.030269 363.848861 
L 416.558512 367.713706 
L 421.086756 371.011633 
L 425.614999 373.80439 
L 430.143243 376.151527 
L 434.671486 378.109403 
L 439.19973 379.730461 
L 443.727973 381.062759 
L 448.256217 382.149724 
L 452.784461 383.030084 
L 457.312704 383.737953 
L 461.840948 384.303033 
L 466.369191 384.750899 
L 470.897435 385.103334 
L 475.425678 385.378705 
L 479.953922 385.592341 
L 484.482165 385.756917 
L 489.010409 385.882808 
L 493.538652 385.978434 
L 498.066896 386.050564 
L 502.595139 386.104593 
L 507.123383 386.144783 
" style="fill:none;stroke:#ff6384;stroke-linecap:square;"/>
   </g>
   <g id="line2d_2">
    <path clip-path="url(#p0ce8b613a2)" d="M 88.739895 386.139371 
L 93.049318 386.097141 
L 97.35874 386.040368 
L 101.668163 385.964575 
L 105.977585 385.864094 
L 110.287008 385.73181 
L 114.59643 385.558878 
L 118.905853 385.334393 
L 123.215275 385.04504 
L 127.524698 384.674709 
L 131.834121 384.204102 
L 136.143543 383.610328 
L 140.452966 382.866516 
L 144.762388 381.941454 
L 149.071811 380.799296 
L 153.381233 379.399346 
L 157.690656 377.695976 
L 162.000078 375.638684 
L 166.309501 373.172366 
L 170.618923 370.2378 
L 174.928346 366.772413 
L 179.237769 362.711322 
L 183.547191 357.988708 
L 187.856614 352.539497 
L 192.166036 346.301371 
L 196.475459 339.217063 
L 200.784881 331.236916 
L 205.094304 322.321628 
L 209.403726 312.445114 
L 213.713149 301.597371 
L 218.022572 289.787238 
L 222.331994 277.04491 
L 226.641417 263.424078 
L 230.950839 249.003534 
L 235.260262 233.888124 
L 239.569684 218.208919 
L 243.879107 202.122504 
L 248.188529 185.809323 
L 252.497952 169.471045 
L 256.807374 153.326975 
L 261.116797 137.609553 
L 265.42622 122.559072 
L 269.735642 108.417748 
L 274.045065 95.423357 
L 278.354487 83.802649 
L 282.66391 73.764805 
L 286.973332 65.495194 
L 291.282755 59.149682 
L 295.592177 54.849752 
L 299.9016 52.678636 
L 304.211022 52.678636 
L 308.520445 54.849752 
L 312.829868 59.149682 
L 317.13929 65.495194 
L 321.448713 73.764805 
L 325.758135 83.802649 
L 330.067558 95.423357 
L 334.37698 108.417748 
L 338.686403 122.559072 
L 342.995825 137.609553 
L 347.305248 153.326975 
L 351.61467 169.471045 
L 355.924093 185.809323 
L 360.233516 202.122504 
L 364.542938 218.208919 
L 368.852361 233.888124 
L 373.161783 249.003534 
L 377.471206 263.424078 
L 381.780628 277.04491 
L 386.090051 289.787238 
L 390.399473 301.597371 
L 394.708896 312.445114 
L 399.018318 322.321628 
L 403.327741 331.236916 
L 407.637164 339.217063 
L 411.946586 346.301371 
L 416.256009 352.539497 
L 420.565431 357.988708 
L 424.874854 362.711322 
L 429.184276 366.772413 
L 433.493699 370.2378 
L 437.803121 373.172366 
L 442.112544 375.638684 
L 446.421967 377.695976 
L 450.731389 379.399346 
L 455.040812 380.799296 
L 459.350234 381.941454 
L 463.659657 382.866516 
L 467.969079 383.610328 
L 472.278502 384.204102 
L 476.587924 384.674709 
L 480.897347 385.04504 
L 485.206769 385.334393 
L 489.516192 385.558878 
L 493.825615 385.73181 
L 498.135037 385.864094 
L 502.44446 385.964575 
L 506.753882 386.040368 
L 511.063305 386.097141 
L 515.372727 386.139371 
" style="fill:none;stroke:#36a2eb;stroke-linecap:square;"/>
   </g>
   <g id="patch_3">
    <path d="M 36 402.93 
L 538.2 402.93 
" style="fill:none;stroke:#000000;stroke-linecap:square;stroke-linejoin:miter;stroke-width:0.8;"/>
   </g>
   <g id="legend_1">
    <g id="patch_4">
     <path d="M 414.919063 88.29875 
L 528.4 88.29875 
Q 531.2 88.29875 531.2 85.49875 
L 531.2 45.8 
Q 531.2 43 528.4 43 
L 414.919063 43 
Q 412.119063 43 412.119063 45.8 
L 412.119063 85.49875 
Q 412.119063 88.29875 414.919063 88.29875 
z
" style="fill:#ffffff;opacity:0.8;stroke:#cccccc;stroke-linejoin:miter;"/>
    </g>
    <g id="patch_5">
     <path d="M 417.719063 59.237813 
L 445.719063 59.237813 
L 445.719063 49.437813 
L 417.719063 49.437813 
z
" style="fill:#ff6384;opacity:0.5;stroke:#ff6384;stroke-linejoin:miter;"/>
    </g>
    <g id="text_1">
     <!-- sidemenu -->
     <defs>
      <path d="M 44.28125 53.078125 
L 44.28125 44.578125 
Q 40.484375 46.53125 36.375 47.5 
Q 32.28125 48.484375 27.875 48.484375 
Q 21.1875 48.484375 17.84375 46.4375 
Q 14.5 44.390625 14.5 40.28125 
Q 14.5 37.15625 16.890625 35.375 
Q 19.28125 33.59375 26.515625 31.984375 
L 29.59375 31.296875 
Q 39.15625 29.25 43.1875 25.515625 
Q 47.21875 21.78125 47.21875 15.09375 
Q 47.21875 7.46875 41.1875 3.015625 
Q 35.15625 -1.421875 24.609375 -1.421875 
Q 20.21875 -1.421875 15.453125 -0.5625 
Q 10.6875 0.296875 5.421875 2 
L 5.421875 11.28125 
Q 10.40625 8.6875 15.234375 7.390625 
Q 20.0625 6.109375 24.8125 6.109375 
Q 31.15625 6.109375 34.5625 8.28125 
Q 37.984375 10.453125 37.984375 14.40625 
Q 37.984375 18.0625 35.515625 20.015625 
Q 33.0625 21.96875 24.703125 23.78125 
L 21.578125 24.515625 
Q 13.234375 26.265625 9.515625 29.90625 
Q 5.8125 33.546875 5.8125 39.890625 
Q 5.8125 47.609375 11.28125 51.796875 
Q 16.75 56 26.8125 56 
Q 31.78125 56 36.171875 55.265625 
Q 40.578125 54.546875 44.28125 53.078125 
z
" id="DejaVuSans-115"/>
      <path d="M 9.421875 54.6875 
L 18.40625 54.6875 
L 18.40625 0 
L 9.421875 0 
z
M 9.421875 75.984375 
L 18.40625 75.984375 
L 18.40625 64.59375 
L 9.421875 64.59375 
z
" id="DejaVuSans-105"/>
      <path d="M 45.40625 46.390625 
L 45.40625 75.984375 
L 54.390625 75.984375 
L 54.390625 0 
L 45.40625 0 
L 45.40625 8.203125 
Q 42.578125 3.328125 38.25 0.953125 
Q 33.9375 -1.421875 27.875 -1.421875 
Q 17.96875 -1.421875 11.734375 6.484375 
Q 5.515625 14.40625 5.515625 27.296875 
Q 5.515625 40.1875 11.734375 48.09375 
Q 17.96875 56 27.875 56 
Q 33.9375 56 38.25 53.625 
Q 42.578125 51.265625 45.40625 46.390625 
z
M 14.796875 27.296875 
Q 14.796875 17.390625 18.875 11.75 
Q 22.953125 6.109375 30.078125 6.109375 
Q 37.203125 6.109375 41.296875 11.75 
Q 45.40625 17.390625 45.40625 27.296875 
Q 45.40625 37.203125 41.296875 42.84375 
Q 37.203125 48.484375 30.078125 48.484375 
Q 22.953125 48.484375 18.875 42.84375 
Q 14.796875 37.203125 14.796875 27.296875 
z
" id="DejaVuSans-100"/>
      <path d="M 56.203125 29.59375 
L 56.203125 25.203125 
L 14.890625 25.203125 
Q 15.484375 15.921875 20.484375 11.0625 
Q 25.484375 6.203125 34.421875 6.203125 
Q 39.59375 6.203125 44.453125 7.46875 
Q 49.3125 8.734375 54.109375 11.28125 
L 54.109375 2.78125 
Q 49.265625 0.734375 44.1875 -0.34375 
Q 39.109375 -1.421875 33.890625 -1.421875 
Q 20.796875 -1.421875 13.15625 6.1875 
Q 5.515625 13.8125 5.515625 26.8125 
Q 5.515625 40.234375 12.765625 48.109375 
Q 20.015625 56 32.328125 56 
Q 43.359375 56 49.78125 48.890625 
Q 56.203125 41.796875 56.203125 29.59375 
z
M 47.21875 32.234375 
Q 47.125 39.59375 43.09375 43.984375 
Q 39.0625 48.390625 32.421875 48.390625 
Q 24.90625 48.390625 20.390625 44.140625 
Q 15.875 39.890625 15.1875 32.171875 
z
" id="DejaVuSans-101"/>
      <path d="M 52 44.1875 
Q 55.375 50.25 60.0625 53.125 
Q 64.75 56 71.09375 56 
Q 79.640625 56 84.28125 50.015625 
Q 88.921875 44.046875 88.921875 33.015625 
L 88.921875 0 
L 79.890625 0 
L 79.890625 32.71875 
Q 79.890625 40.578125 77.09375 44.375 
Q 74.3125 48.1875 68.609375 48.1875 
Q 61.625 48.1875 57.5625 43.546875 
Q 53.515625 38.921875 53.515625 30.90625 
L 53.515625 0 
L 44.484375 0 
L 44.484375 32.71875 
Q 44.484375 40.625 41.703125 44.40625 
Q 38.921875 48.1875 33.109375 48.1875 
Q 26.21875 48.1875 22.15625 43.53125 
Q 18.109375 38.875 18.109375 30.90625 
L 18.109375 0 
L 9.078125 0 
L 9.078125 54.6875 
L 18.109375 54.6875 
L 18.109375 46.1875 
Q 21.1875 51.21875 25.484375 53.609375 
Q 29.78125 56 35.6875 56 
Q 41.65625 56 45.828125 52.96875 
Q 50 49.953125 52 44.1875 
z
" id="DejaVuSans-109"/>
      <path d="M 54.890625 33.015625 
L 54.890625 0 
L 45.90625 0 
L 45.90625 32.71875 
Q 45.90625 40.484375 42.875 44.328125 
Q 39.84375 48.1875 33.796875 48.1875 
Q 26.515625 48.1875 22.3125 43.546875 
Q 18.109375 38.921875 18.109375 30.90625 
L 18.109375 0 
L 9.078125 0 
L 9.078125 54.6875 
L 18.109375 54.6875 
L 18.109375 46.1875 
Q 21.34375 51.125 25.703125 53.5625 
Q 30.078125 56 35.796875 56 
Q 45.21875 56 50.046875 50.171875 
Q 54.890625 44.34375 54.890625 33.015625 
z
" id="DejaVuSans-110"/>
      <path d="M 8.5 21.578125 
L 8.5 54.6875 
L 17.484375 54.6875 
L 17.484375 21.921875 
Q 17.484375 14.15625 20.5 10.265625 
Q 23.53125 6.390625 29.59375 6.390625 
Q 36.859375 6.390625 41.078125 11.03125 
Q 45.3125 15.671875 45.3125 23.6875 
L 45.3125 54.6875 
L 54.296875 54.6875 
L 54.296875 0 
L 45.3125 0 
L 45.3125 8.40625 
Q 42.046875 3.421875 37.71875 1 
Q 33.40625 -1.421875 27.6875 -1.421875 
Q 18.265625 -1.421875 13.375 4.4375 
Q 8.5 10.296875 8.5 21.578125 
z
M 31.109375 56 
z
" id="DejaVuSans-117"/>
     </defs>
     <g transform="translate(456.919063 59.237813)scale(0.14 -0.14)">
      <use xlink:href="#DejaVuSans-115"/>
      <use x="52.099609" xlink:href="#DejaVuSans-105"/>
      <use x="79.882812" xlink:href="#DejaVuSans-100"/>
      <use x="143.359375" xlink:href="#DejaVuSans-101"/>
      <use x="204.882812" xlink:href="#DejaVuSans-109"/>
      <use x="302.294922" xlink:href="#DejaVuSans-101"/>
      <use x="363.818359" xlink:href="#DejaVuSans-110"/>
      <use x="427.197266" xlink:href="#DejaVuSans-117"/>
     </g>
    </g>
    <g id="patch_6">
     <path d="M 417.719063 79.787188 
L 445.719063 79.787188 
L 445.719063 69.987188 
L 417.719063 69.987188 
z
" style="fill:#36a2eb;opacity:0.5;stroke:#36a2eb;stroke-linejoin:miter;"/>
    </g>
    <g id="text_2">
     <!-- tabbar -->
     <defs>
      <path d="M 18.3125 70.21875 
L 18.3125 54.6875 
L 36.8125 54.6875 
L 36.8125 47.703125 
L 18.3125 47.703125 
L 18.3125 18.015625 
Q 18.3125 11.328125 20.140625 9.421875 
Q 21.96875 7.515625 27.59375 7.515625 
L 36.8125 7.515625 
L 36.8125 0 
L 27.59375 0 
Q 17.1875 0 13.234375 3.875 
Q 9.28125 7.765625 9.28125 18.015625 
L 9.28125 47.703125 
L 2.6875 47.703125 
L 2.6875 54.6875 
L 9.28125 54.6875 
L 9.28125 70.21875 
z
" id="DejaVuSans-116"/>
      <path d="M 34.28125 27.484375 
Q 23.390625 27.484375 19.1875 25 
Q 14.984375 22.515625 14.984375 16.5 
Q 14.984375 11.71875 18.140625 8.90625 
Q 21.296875 6.109375 26.703125 6.109375 
Q 34.1875 6.109375 38.703125 11.40625 
Q 43.21875 16.703125 43.21875 25.484375 
L 43.21875 27.484375 
z
M 52.203125 31.203125 
L 52.203125 0 
L 43.21875 0 
L 43.21875 8.296875 
Q 40.140625 3.328125 35.546875 0.953125 
Q 30.953125 -1.421875 24.3125 -1.421875 
Q 15.921875 -1.421875 10.953125 3.296875 
Q 6 8.015625 6 15.921875 
Q 6 25.140625 12.171875 29.828125 
Q 18.359375 34.515625 30.609375 34.515625 
L 43.21875 34.515625 
L 43.21875 35.40625 
Q 43.21875 41.609375 39.140625 45 
Q 35.0625 48.390625 27.6875 48.390625 
Q 23 48.390625 18.546875 47.265625 
Q 14.109375 46.140625 10.015625 43.890625 
L 10.015625 52.203125 
Q 14.9375 54.109375 19.578125 55.046875 
Q 24.21875 56 28.609375 56 
Q 40.484375 56 46.34375 49.84375 
Q 52.203125 43.703125 52.203125 31.203125 
z
" id="DejaVuSans-97"/>
      <path d="M 48.6875 27.296875 
Q 48.6875 37.203125 44.609375 42.84375 
Q 40.53125 48.484375 33.40625 48.484375 
Q 26.265625 48.484375 22.1875 42.84375 
Q 18.109375 37.203125 18.109375 27.296875 
Q 18.109375 17.390625 22.1875 11.75 
Q 26.265625 6.109375 33.40625 6.109375 
Q 40.53125 6.109375 44.609375 11.75 
Q 48.6875 17.390625 48.6875 27.296875 
z
M 18.109375 46.390625 
Q 20.953125 51.265625 25.265625 53.625 
Q 29.59375 56 35.59375 56 
Q 45.5625 56 51.78125 48.09375 
Q 58.015625 40.1875 58.015625 27.296875 
Q 58.015625 14.40625 51.78125 6.484375 
Q 45.5625 -1.421875 35.59375 -1.421875 
Q 29.59375 -1.421875 25.265625 0.953125 
Q 20.953125 3.328125 18.109375 8.203125 
L 18.109375 0 
L 9.078125 0 
L 9.078125 75.984375 
L 18.109375 75.984375 
z
" id="DejaVuSans-98"/>
      <path d="M 41.109375 46.296875 
Q 39.59375 47.171875 37.8125 47.578125 
Q 36.03125 48 33.890625 48 
Q 26.265625 48 22.1875 43.046875 
Q 18.109375 38.09375 18.109375 28.8125 
L 18.109375 0 
L 9.078125 0 
L 9.078125 54.6875 
L 18.109375 54.6875 
L 18.109375 46.1875 
Q 20.953125 51.171875 25.484375 53.578125 
Q 30.03125 56 36.53125 56 
Q 37.453125 56 38.578125 55.875 
Q 39.703125 55.765625 41.0625 55.515625 
z
" id="DejaVuSans-114"/>
     </defs>
     <g transform="translate(456.919063 79.787188)scale(0.14 -0.14)">
      <use xlink:href="#DejaVuSans-116"/>
      <use x="39.208984" xlink:href="#DejaVuSans-97"/>
      <use x="100.488281" xlink:href="#DejaVuSans-98"/>
      <use x="163.964844" xlink:href="#DejaVuSans-98"/>
      <use x="227.441406" xlink:href="#DejaVuSans-97"/>
      <use x="288.720703" xlink:href="#DejaVuSans-114"/>
     </g>
    </g>
   </g>
  </g>
  <g id="axes_2">
   <g id="patch_7">
    <path d="M 36 525.24 
L 538.2 525.24 
L 538.2 402.93 
L 36 402.93 
z
" style="fill:none;"/>
   </g>
   <g id="patch_8">
    <path clip-path="url(#pfc37987865)" d="M 173.142781 519.680455 
L 392.807875 519.680455 
L 392.807875 482.616818 
L 173.142781 482.616818 
z
" style="fill:#ff6384;opacity:0.5;"/>
   </g>
   <g id="patch_9">
    <path clip-path="url(#pfc37987865)" d="M 197.531267 445.553182 
L 406.581355 445.553182 
L 406.581355 408.489545 
L 197.531267 408.489545 
z
" style="fill:#36a2eb;opacity:0.5;"/>
   </g>
   <g id="matplotlib.axis_1">
    <g id="xtick_1">
     <g id="line2d_3">
      <defs>
       <path d="M 0 0 
L 0 3.5 
" id="ma119e6ae09" style="stroke:#000000;stroke-width:0.8;"/>
      </defs>
      <g>
       <use style="stroke:#000000;stroke-width:0.8;" x="70.358657" xlink:href="#ma119e6ae09" y="525.24"/>
      </g>
     </g>
     <g id="text_3">
      <!-- 4.25 -->
      <defs>
       <path d="M 37.796875 64.3125 
L 12.890625 25.390625 
L 37.796875 25.390625 
z
M 35.203125 72.90625 
L 47.609375 72.90625 
L 47.609375 25.390625 
L 58.015625 25.390625 
L 58.015625 17.1875 
L 47.609375 17.1875 
L 47.609375 0 
L 37.796875 0 
L 37.796875 17.1875 
L 4.890625 17.1875 
L 4.890625 26.703125 
z
" id="DejaVuSans-52"/>
       <path d="M 10.6875 12.40625 
L 21 12.40625 
L 21 0 
L 10.6875 0 
z
" id="DejaVuSans-46"/>
       <path d="M 19.1875 8.296875 
L 53.609375 8.296875 
L 53.609375 0 
L 7.328125 0 
L 7.328125 8.296875 
Q 12.9375 14.109375 22.625 23.890625 
Q 32.328125 33.6875 34.8125 36.53125 
Q 39.546875 41.84375 41.421875 45.53125 
Q 43.3125 49.21875 43.3125 52.78125 
Q 43.3125 58.59375 39.234375 62.25 
Q 35.15625 65.921875 28.609375 65.921875 
Q 23.96875 65.921875 18.8125 64.3125 
Q 13.671875 62.703125 7.8125 59.421875 
L 7.8125 69.390625 
Q 13.765625 71.78125 18.9375 73 
Q 24.125 74.21875 28.421875 74.21875 
Q 39.75 74.21875 46.484375 68.546875 
Q 53.21875 62.890625 53.21875 53.421875 
Q 53.21875 48.921875 51.53125 44.890625 
Q 49.859375 40.875 45.40625 35.40625 
Q 44.1875 33.984375 37.640625 27.21875 
Q 31.109375 20.453125 19.1875 8.296875 
z
" id="DejaVuSans-50"/>
       <path d="M 10.796875 72.90625 
L 49.515625 72.90625 
L 49.515625 64.59375 
L 19.828125 64.59375 
L 19.828125 46.734375 
Q 21.96875 47.46875 24.109375 47.828125 
Q 26.265625 48.1875 28.421875 48.1875 
Q 40.625 48.1875 47.75 41.5 
Q 54.890625 34.8125 54.890625 23.390625 
Q 54.890625 11.625 47.5625 5.09375 
Q 40.234375 -1.421875 26.90625 -1.421875 
Q 22.3125 -1.421875 17.546875 -0.640625 
Q 12.796875 0.140625 7.71875 1.703125 
L 7.71875 11.625 
Q 12.109375 9.234375 16.796875 8.0625 
Q 21.484375 6.890625 26.703125 6.890625 
Q 35.15625 6.890625 40.078125 11.328125 
Q 45.015625 15.765625 45.015625 23.390625 
Q 45.015625 31 40.078125 35.4375 
Q 35.15625 39.890625 26.703125 39.890625 
Q 22.75 39.890625 18.8125 39.015625 
Q 14.890625 38.140625 10.796875 36.28125 
z
" id="DejaVuSans-53"/>
      </defs>
      <g transform="translate(54.772719 542.877813)scale(0.14 -0.14)">
       <use xlink:href="#DejaVuSans-52"/>
       <use x="63.623047" xlink:href="#DejaVuSans-46"/>
       <use x="95.410156" xlink:href="#DejaVuSans-50"/>
       <use x="159.033203" xlink:href="#DejaVuSans-53"/>
      </g>
     </g>
    </g>
    <g id="xtick_2">
     <g id="line2d_4">
      <g>
       <use style="stroke:#000000;stroke-width:0.8;" x="138.505026" xlink:href="#ma119e6ae09" y="525.24"/>
      </g>
     </g>
     <g id="text_4">
      <!-- 4.50 -->
      <defs>
       <path d="M 31.78125 66.40625 
Q 24.171875 66.40625 20.328125 58.90625 
Q 16.5 51.421875 16.5 36.375 
Q 16.5 21.390625 20.328125 13.890625 
Q 24.171875 6.390625 31.78125 6.390625 
Q 39.453125 6.390625 43.28125 13.890625 
Q 47.125 21.390625 47.125 36.375 
Q 47.125 51.421875 43.28125 58.90625 
Q 39.453125 66.40625 31.78125 66.40625 
z
M 31.78125 74.21875 
Q 44.046875 74.21875 50.515625 64.515625 
Q 56.984375 54.828125 56.984375 36.375 
Q 56.984375 17.96875 50.515625 8.265625 
Q 44.046875 -1.421875 31.78125 -1.421875 
Q 19.53125 -1.421875 13.0625 8.265625 
Q 6.59375 17.96875 6.59375 36.375 
Q 6.59375 54.828125 13.0625 64.515625 
Q 19.53125 74.21875 31.78125 74.21875 
z
" id="DejaVuSans-48"/>
      </defs>
      <g transform="translate(122.919088 542.877813)scale(0.14 -0.14)">
       <use xlink:href="#DejaVuSans-52"/>
       <use x="63.623047" xlink:href="#DejaVuSans-46"/>
       <use x="95.410156" xlink:href="#DejaVuSans-53"/>
       <use x="159.033203" xlink:href="#DejaVuSans-48"/>
      </g>
     </g>
    </g>
    <g id="xtick_3">
     <g id="line2d_5">
      <g>
       <use style="stroke:#000000;stroke-width:0.8;" x="206.651395" xlink:href="#ma119e6ae09" y="525.24"/>
      </g>
     </g>
     <g id="text_5">
      <!-- 4.75 -->
      <defs>
       <path d="M 8.203125 72.90625 
L 55.078125 72.90625 
L 55.078125 68.703125 
L 28.609375 0 
L 18.3125 0 
L 43.21875 64.59375 
L 8.203125 64.59375 
z
" id="DejaVuSans-55"/>
      </defs>
      <g transform="translate(191.065457 542.877813)scale(0.14 -0.14)">
       <use xlink:href="#DejaVuSans-52"/>
       <use x="63.623047" xlink:href="#DejaVuSans-46"/>
       <use x="95.410156" xlink:href="#DejaVuSans-55"/>
       <use x="159.033203" xlink:href="#DejaVuSans-53"/>
      </g>
     </g>
    </g>
    <g id="xtick_4">
     <g id="line2d_6">
      <g>
       <use style="stroke:#000000;stroke-width:0.8;" x="274.797764" xlink:href="#ma119e6ae09" y="525.24"/>
      </g>
     </g>
     <g id="text_6">
      <!-- 5.00 -->
      <g transform="translate(259.211826 542.877813)scale(0.14 -0.14)">
       <use xlink:href="#DejaVuSans-53"/>
       <use x="63.623047" xlink:href="#DejaVuSans-46"/>
       <use x="95.410156" xlink:href="#DejaVuSans-48"/>
       <use x="159.033203" xlink:href="#DejaVuSans-48"/>
      </g>
     </g>
    </g>
    <g id="xtick_5">
     <g id="line2d_7">
      <g>
       <use style="stroke:#000000;stroke-width:0.8;" x="342.944133" xlink:href="#ma119e6ae09" y="525.24"/>
      </g>
     </g>
     <g id="text_7">
      <!-- 5.25 -->
      <g transform="translate(327.358195 542.877813)scale(0.14 -0.14)">
       <use xlink:href="#DejaVuSans-53"/>
       <use x="63.623047" xlink:href="#DejaVuSans-46"/>
       <use x="95.410156" xlink:href="#DejaVuSans-50"/>
       <use x="159.033203" xlink:href="#DejaVuSans-53"/>
      </g>
     </g>
    </g>
    <g id="xtick_6">
     <g id="line2d_8">
      <g>
       <use style="stroke:#000000;stroke-width:0.8;" x="411.090502" xlink:href="#ma119e6ae09" y="525.24"/>
      </g>
     </g>
     <g id="text_8">
      <!-- 5.50 -->
      <g transform="translate(395.504564 542.877813)scale(0.14 -0.14)">
       <use xlink:href="#DejaVuSans-53"/>
       <use x="63.623047" xlink:href="#DejaVuSans-46"/>
       <use x="95.410156" xlink:href="#DejaVuSans-53"/>
       <use x="159.033203" xlink:href="#DejaVuSans-48"/>
      </g>
     </g>
    </g>
    <g id="xtick_7">
     <g id="line2d_9">
      <g>
       <use style="stroke:#000000;stroke-width:0.8;" x="479.236871" xlink:href="#ma119e6ae09" y="525.24"/>
      </g>
     </g>
     <g id="text_9">
      <!-- 5.75 -->
      <g transform="translate(463.650933 542.877813)scale(0.14 -0.14)">
       <use xlink:href="#DejaVuSans-53"/>
       <use x="63.623047" xlink:href="#DejaVuSans-46"/>
       <use x="95.410156" xlink:href="#DejaVuSans-55"/>
       <use x="159.033203" xlink:href="#DejaVuSans-53"/>
      </g>
     </g>
    </g>
   </g>
   <g id="line2d_10">
    <path clip-path="url(#pfc37987865)" d="M 282.975328 525.24 
L 282.975328 402.93 
" style="fill:none;stroke:#ff6384;stroke-dasharray:5.55,2.4;stroke-dashoffset:0;stroke-opacity:0.8;stroke-width:1.5;"/>
   </g>
   <g id="line2d_11">
    <path clip-path="url(#pfc37987865)" d="M 302.056311 525.24 
L 302.056311 402.93 
" style="fill:none;stroke:#36a2eb;stroke-dasharray:5.55,2.4;stroke-dashoffset:0;stroke-opacity:0.8;stroke-width:1.5;"/>
   </g>
   <g id="patch_10">
    <path d="M 36 525.24 
L 538.2 525.24 
" style="fill:none;stroke:#000000;stroke-linecap:square;stroke-linejoin:miter;stroke-width:0.8;"/>
   </g>
  </g>
 </g>
 <defs>
  <clipPath id="p0ce8b613a2">
   <rect height="366.93" width="502.2" x="36" y="36"/>
  </clipPath>
  <clipPath id="pfc37987865">
   <rect height="122.31" width="502.2" x="36" y="402.93"/>
  </clipPath>
 </defs>
</svg>
