<?xml version="1.0" encoding="utf-8" standalone="no"?>
<!DOCTYPE svg PUBLIC "-//W3C//DTD SVG 1.1//EN"
  "http://www.w3.org/Graphics/SVG/1.1/DTD/svg11.dtd">
<!-- Created with matplotlib (https://matplotlib.org/) -->
<svg height="581.789375pt" version="1.1" viewBox="0 0 574.2 581.789375" width="574.2pt" xmlns="http://www.w3.org/2000/svg" xmlns:xlink="http://www.w3.org/1999/xlink">
 <defs>
  <style type="text/css">
*{stroke-linecap:butt;stroke-linejoin:round;}
  </style>
 </defs>
 <g id="figure_1">
  <g id="patch_1">
   <path d="M -0 581.789375 
L 574.2 581.789375 
L 574.2 0 
L -0 0 
z
" style="fill:none;"/>
  </g>
  <g id="axes_1">
   <g id="patch_2">
    <path d="M 36 402.93 
L 538.2 402.93 
L 538.2 36 
L 36 36 
z
" style="fill:none;"/>
   </g>
   <g id="PolyCollection_1">
    <defs>
     <path d="M 58.827273 -195.538011 
L 58.827273 -195.628768 
L 63.438843 -195.662991 
L 68.050413 -195.708998 
L 72.661983 -195.770419 
L 77.273554 -195.851847 
L 81.885124 -195.959047 
L 86.496694 -196.099188 
L 91.108264 -196.281106 
L 95.719835 -196.515592 
L 100.331405 -196.815701 
L 104.942975 -197.197072 
L 109.554545 -197.678255 
L 114.166116 -198.281026 
L 118.777686 -199.030678 
L 123.389256 -199.95626 
L 128.000826 -201.090752 
L 132.612397 -202.47113 
L 137.223967 -204.138319 
L 141.835537 -206.136975 
L 146.447107 -208.515089 
L 151.058678 -211.323372 
L 155.670248 -214.6144 
L 160.281818 -218.441514 
L 164.893388 -222.857448 
L 169.504959 -227.912703 
L 174.116529 -233.653687 
L 178.728099 -240.120642 
L 183.339669 -247.345417 
L 187.95124 -255.34915 
L 192.56281 -264.139949 
L 197.17438 -273.71065 
L 201.78595 -284.036783 
L 206.397521 -295.074838 
L 211.009091 -306.760965 
L 215.620661 -319.010197 
L 220.232231 -331.716317 
L 224.843802 -344.752433 
L 229.455372 -357.972316 
L 234.066942 -371.212536 
L 238.678512 -384.295374 
L 243.290083 -397.032465 
L 247.901653 -409.22908 
L 252.513223 -420.688932 
L 257.124793 -431.219332 
L 261.736364 -440.636527 
L 266.347934 -448.770998 
L 270.959504 -455.47253 
L 275.571074 -460.614808 
L 280.182645 -464.099387 
L 284.794215 -465.858817 
L 289.405785 -465.858817 
L 294.017355 -464.099387 
L 298.628926 -460.614808 
L 303.240496 -455.47253 
L 307.852066 -448.770998 
L 312.463636 -440.636527 
L 317.075207 -431.219332 
L 321.686777 -420.688932 
L 326.298347 -409.22908 
L 330.909917 -397.032465 
L 335.521488 -384.295374 
L 340.133058 -371.212536 
L 344.744628 -357.972316 
L 349.356198 -344.752433 
L 353.967769 -331.716317 
L 358.579339 -319.010197 
L 363.190909 -306.760965 
L 367.802479 -295.074838 
L 372.41405 -284.036783 
L 377.02562 -273.71065 
L 381.63719 -264.139949 
L 386.24876 -255.34915 
L 390.860331 -247.345417 
L 395.471901 -240.120642 
L 400.083471 -233.653687 
L 404.695041 -227.912703 
L 409.306612 -222.857448 
L 413.918182 -218.441514 
L 418.529752 -214.6144 
L 423.141322 -211.323372 
L 427.752893 -208.515089 
L 432.364463 -206.136975 
L 436.976033 -204.138319 
L 441.587603 -202.47113 
L 446.199174 -201.090752 
L 450.810744 -199.95626 
L 455.422314 -199.030678 
L 460.033884 -198.281026 
L 464.645455 -197.678255 
L 469.257025 -197.197072 
L 473.868595 -196.815701 
L 478.480165 -196.515592 
L 483.091736 -196.281106 
L 487.703306 -196.099188 
L 492.314876 -195.959047 
L 496.926446 -195.851847 
L 501.538017 -195.770419 
L 506.149587 -195.708998 
L 510.761157 -195.662991 
L 515.372727 -195.628768 
L 515.372727 -195.538011 
L 515.372727 -195.538011 
L 510.761157 -195.538011 
L 506.149587 -195.538011 
L 501.538017 -195.538011 
L 496.926446 -195.538011 
L 492.314876 -195.538011 
L 487.703306 -195.538011 
L 483.091736 -195.538011 
L 478.480165 -195.538011 
L 473.868595 -195.538011 
L 469.257025 -195.538011 
L 464.645455 -195.538011 
L 460.033884 -195.538011 
L 455.422314 -195.538011 
L 450.810744 -195.538011 
L 446.199174 -195.538011 
L 441.587603 -195.538011 
L 436.976033 -195.538011 
L 432.364463 -195.538011 
L 427.752893 -195.538011 
L 423.141322 -195.538011 
L 418.529752 -195.538011 
L 413.918182 -195.538011 
L 409.306612 -195.538011 
L 404.695041 -195.538011 
L 400.083471 -195.538011 
L 395.471901 -195.538011 
L 390.860331 -195.538011 
L 386.24876 -195.538011 
L 381.63719 -195.538011 
L 377.02562 -195.538011 
L 372.41405 -195.538011 
L 367.802479 -195.538011 
L 363.190909 -195.538011 
L 358.579339 -195.538011 
L 353.967769 -195.538011 
L 349.356198 -195.538011 
L 344.744628 -195.538011 
L 340.133058 -195.538011 
L 335.521488 -195.538011 
L 330.909917 -195.538011 
L 326.298347 -195.538011 
L 321.686777 -195.538011 
L 317.075207 -195.538011 
L 312.463636 -195.538011 
L 307.852066 -195.538011 
L 303.240496 -195.538011 
L 298.628926 -195.538011 
L 294.017355 -195.538011 
L 289.405785 -195.538011 
L 284.794215 -195.538011 
L 280.182645 -195.538011 
L 275.571074 -195.538011 
L 270.959504 -195.538011 
L 266.347934 -195.538011 
L 261.736364 -195.538011 
L 257.124793 -195.538011 
L 252.513223 -195.538011 
L 247.901653 -195.538011 
L 243.290083 -195.538011 
L 238.678512 -195.538011 
L 234.066942 -195.538011 
L 229.455372 -195.538011 
L 224.843802 -195.538011 
L 220.232231 -195.538011 
L 215.620661 -195.538011 
L 211.009091 -195.538011 
L 206.397521 -195.538011 
L 201.78595 -195.538011 
L 197.17438 -195.538011 
L 192.56281 -195.538011 
L 187.95124 -195.538011 
L 183.339669 -195.538011 
L 178.728099 -195.538011 
L 174.116529 -195.538011 
L 169.504959 -195.538011 
L 164.893388 -195.538011 
L 160.281818 -195.538011 
L 155.670248 -195.538011 
L 151.058678 -195.538011 
L 146.447107 -195.538011 
L 141.835537 -195.538011 
L 137.223967 -195.538011 
L 132.612397 -195.538011 
L 128.000826 -195.538011 
L 123.389256 -195.538011 
L 118.777686 -195.538011 
L 114.166116 -195.538011 
L 109.554545 -195.538011 
L 104.942975 -195.538011 
L 100.331405 -195.538011 
L 95.719835 -195.538011 
L 91.108264 -195.538011 
L 86.496694 -195.538011 
L 81.885124 -195.538011 
L 77.273554 -195.538011 
L 72.661983 -195.538011 
L 68.050413 -195.538011 
L 63.438843 -195.538011 
L 58.827273 -195.538011 
z
" id="m2beedf9264" style="stroke:#ff6384;stroke-opacity:0.5;"/>
    </defs>
    <g clip-path="url(#pc809f98463)">
     <use style="fill:#ff6384;fill-opacity:0.5;stroke:#ff6384;stroke-opacity:0.5;" x="0" xlink:href="#m2beedf9264" y="581.789375"/>
    </g>
   </g>
   <g id="PolyCollection_2">
    <defs>
     <path d="M 105.249647 -195.538011 
L 105.249647 -195.650004 
L 108.986773 -195.692234 
L 112.723899 -195.749007 
L 116.461026 -195.8248 
L 120.198152 -195.925281 
L 123.935278 -196.057565 
L 127.672404 -196.230497 
L 131.409531 -196.454982 
L 135.146657 -196.744335 
L 138.883783 -197.114666 
L 142.620909 -197.585273 
L 146.358035 -198.179047 
L 150.095162 -198.922859 
L 153.832288 -199.847921 
L 157.569414 -200.990079 
L 161.30654 -202.390029 
L 165.043666 -204.093399 
L 168.780793 -206.150691 
L 172.517919 -208.617009 
L 176.255045 -211.551575 
L 179.992171 -215.016962 
L 183.729298 -219.078053 
L 187.466424 -223.800667 
L 191.20355 -229.249878 
L 194.940676 -235.488004 
L 198.677802 -242.572312 
L 202.414929 -250.552459 
L 206.152055 -259.467747 
L 209.889181 -269.344261 
L 213.626307 -280.192004 
L 217.363433 -292.002137 
L 221.10056 -304.744465 
L 224.837686 -318.365297 
L 228.574812 -332.785841 
L 232.311938 -347.901251 
L 236.049065 -363.580456 
L 239.786191 -379.666871 
L 243.523317 -395.980052 
L 247.260443 -412.31833 
L 250.997569 -428.4624 
L 254.734696 -444.179822 
L 258.471822 -459.230303 
L 262.208948 -473.371627 
L 265.946074 -486.366018 
L 269.6832 -497.986726 
L 273.420327 -508.02457 
L 277.157453 -516.294181 
L 280.894579 -522.639693 
L 284.631705 -526.939623 
L 288.368832 -529.110739 
L 292.105958 -529.110739 
L 295.843084 -526.939623 
L 299.58021 -522.639693 
L 303.317336 -516.294181 
L 307.054463 -508.02457 
L 310.791589 -497.986726 
L 314.528715 -486.366018 
L 318.265841 -473.371627 
L 322.002967 -459.230303 
L 325.740094 -444.179822 
L 329.47722 -428.4624 
L 333.214346 -412.31833 
L 336.951472 -395.980052 
L 340.688599 -379.666871 
L 344.425725 -363.580456 
L 348.162851 -347.901251 
L 351.899977 -332.785841 
L 355.637103 -318.365297 
L 359.37423 -304.744465 
L 363.111356 -292.002137 
L 366.848482 -280.192004 
L 370.585608 -269.344261 
L 374.322734 -259.467747 
L 378.059861 -250.552459 
L 381.796987 -242.572312 
L 385.534113 -235.488004 
L 389.271239 -229.249878 
L 393.008366 -223.800667 
L 396.745492 -219.078053 
L 400.482618 -215.016962 
L 404.219744 -211.551575 
L 407.95687 -208.617009 
L 411.693997 -206.150691 
L 415.431123 -204.093399 
L 419.168249 -202.390029 
L 422.905375 -200.990079 
L 426.642501 -199.847921 
L 430.379628 -198.922859 
L 434.116754 -198.179047 
L 437.85388 -197.585273 
L 441.591006 -197.114666 
L 445.328133 -196.744335 
L 449.065259 -196.454982 
L 452.802385 -196.230497 
L 456.539511 -196.057565 
L 460.276637 -195.925281 
L 464.013764 -195.8248 
L 467.75089 -195.749007 
L 471.488016 -195.692234 
L 475.225142 -195.650004 
L 475.225142 -195.538011 
L 475.225142 -195.538011 
L 471.488016 -195.538011 
L 467.75089 -195.538011 
L 464.013764 -195.538011 
L 460.276637 -195.538011 
L 456.539511 -195.538011 
L 452.802385 -195.538011 
L 449.065259 -195.538011 
L 445.328133 -195.538011 
L 441.591006 -195.538011 
L 437.85388 -195.538011 
L 434.116754 -195.538011 
L 430.379628 -195.538011 
L 426.642501 -195.538011 
L 422.905375 -195.538011 
L 419.168249 -195.538011 
L 415.431123 -195.538011 
L 411.693997 -195.538011 
L 407.95687 -195.538011 
L 404.219744 -195.538011 
L 400.482618 -195.538011 
L 396.745492 -195.538011 
L 393.008366 -195.538011 
L 389.271239 -195.538011 
L 385.534113 -195.538011 
L 381.796987 -195.538011 
L 378.059861 -195.538011 
L 374.322734 -195.538011 
L 370.585608 -195.538011 
L 366.848482 -195.538011 
L 363.111356 -195.538011 
L 359.37423 -195.538011 
L 355.637103 -195.538011 
L 351.899977 -195.538011 
L 348.162851 -195.538011 
L 344.425725 -195.538011 
L 340.688599 -195.538011 
L 336.951472 -195.538011 
L 333.214346 -195.538011 
L 329.47722 -195.538011 
L 325.740094 -195.538011 
L 322.002967 -195.538011 
L 318.265841 -195.538011 
L 314.528715 -195.538011 
L 310.791589 -195.538011 
L 307.054463 -195.538011 
L 303.317336 -195.538011 
L 299.58021 -195.538011 
L 295.843084 -195.538011 
L 292.105958 -195.538011 
L 288.368832 -195.538011 
L 284.631705 -195.538011 
L 280.894579 -195.538011 
L 277.157453 -195.538011 
L 273.420327 -195.538011 
L 269.6832 -195.538011 
L 265.946074 -195.538011 
L 262.208948 -195.538011 
L 258.471822 -195.538011 
L 254.734696 -195.538011 
L 250.997569 -195.538011 
L 247.260443 -195.538011 
L 243.523317 -195.538011 
L 239.786191 -195.538011 
L 236.049065 -195.538011 
L 232.311938 -195.538011 
L 228.574812 -195.538011 
L 224.837686 -195.538011 
L 221.10056 -195.538011 
L 217.363433 -195.538011 
L 213.626307 -195.538011 
L 209.889181 -195.538011 
L 206.152055 -195.538011 
L 202.414929 -195.538011 
L 198.677802 -195.538011 
L 194.940676 -195.538011 
L 191.20355 -195.538011 
L 187.466424 -195.538011 
L 183.729298 -195.538011 
L 179.992171 -195.538011 
L 176.255045 -195.538011 
L 172.517919 -195.538011 
L 168.780793 -195.538011 
L 165.043666 -195.538011 
L 161.30654 -195.538011 
L 157.569414 -195.538011 
L 153.832288 -195.538011 
L 150.095162 -195.538011 
L 146.358035 -195.538011 
L 142.620909 -195.538011 
L 138.883783 -195.538011 
L 135.146657 -195.538011 
L 131.409531 -195.538011 
L 127.672404 -195.538011 
L 123.935278 -195.538011 
L 120.198152 -195.538011 
L 116.461026 -195.538011 
L 112.723899 -195.538011 
L 108.986773 -195.538011 
L 105.249647 -195.538011 
z
" id="m33126b56b8" style="stroke:#36a2eb;stroke-opacity:0.5;"/>
    </defs>
    <g clip-path="url(#pc809f98463)">
     <use style="fill:#36a2eb;fill-opacity:0.5;stroke:#36a2eb;stroke-opacity:0.5;" x="0" xlink:href="#m33126b56b8" y="581.789375"/>
    </g>
   </g>
   <g id="line2d_1">
    <path clip-path="url(#pc809f98463)" d="M 58.827273 386.160607 
L 63.438843 386.126384 
L 68.050413 386.080377 
L 72.661983 386.018956 
L 77.273554 385.937528 
L 81.885124 385.830328 
L 86.496694 385.690187 
L 91.108264 385.508269 
L 95.719835 385.273783 
L 100.331405 384.973674 
L 104.942975 384.592303 
L 109.554545 384.11112 
L 114.166116 383.508349 
L 118.777686 382.758697 
L 123.389256 381.833115 
L 128.000826 380.698623 
L 132.612397 379.318245 
L 137.223967 377.651056 
L 141.835537 375.6524 
L 146.447107 373.274286 
L 151.058678 370.466003 
L 155.670248 367.174975 
L 160.281818 363.347861 
L 164.893388 358.931927 
L 169.504959 353.876672 
L 174.116529 348.135688 
L 178.728099 341.668733 
L 183.339669 334.443958 
L 187.95124 326.440225 
L 192.56281 317.649426 
L 197.17438 308.078725 
L 201.78595 297.752592 
L 206.397521 286.714537 
L 211.009091 275.02841 
L 215.620661 262.779178 
L 220.232231 250.073058 
L 224.843802 237.036942 
L 229.455372 223.817059 
L 234.066942 210.576839 
L 238.678512 197.494001 
L 243.290083 184.75691 
L 247.901653 172.560295 
L 252.513223 161.100443 
L 257.124793 150.570043 
L 261.736364 141.152848 
L 266.347934 133.018377 
L 270.959504 126.316845 
L 275.571074 121.174567 
L 280.182645 117.689988 
L 284.794215 115.930558 
L 289.405785 115.930558 
L 294.017355 117.689988 
L 298.628926 121.174567 
L 303.240496 126.316845 
L 307.852066 133.018377 
L 312.463636 141.152848 
L 317.075207 150.570043 
L 321.686777 161.100443 
L 326.298347 172.560295 
L 330.909917 184.75691 
L 335.521488 197.494001 
L 340.133058 210.576839 
L 344.744628 223.817059 
L 349.356198 237.036942 
L 353.967769 250.073058 
L 358.579339 262.779178 
L 363.190909 275.02841 
L 367.802479 286.714537 
L 372.41405 297.752592 
L 377.02562 308.078725 
L 381.63719 317.649426 
L 386.24876 326.440225 
L 390.860331 334.443958 
L 395.471901 341.668733 
L 400.083471 348.135688 
L 404.695041 353.876672 
L 409.306612 358.931927 
L 413.918182 363.347861 
L 418.529752 367.174975 
L 423.141322 370.466003 
L 427.752893 373.274286 
L 432.364463 375.6524 
L 436.976033 377.651056 
L 441.587603 379.318245 
L 446.199174 380.698623 
L 450.810744 381.833115 
L 455.422314 382.758697 
L 460.033884 383.508349 
L 464.645455 384.11112 
L 469.257025 384.592303 
L 473.868595 384.973674 
L 478.480165 385.273783 
L 483.091736 385.508269 
L 487.703306 385.690187 
L 492.314876 385.830328 
L 496.926446 385.937528 
L 501.538017 386.018956 
L 506.149587 386.080377 
L 510.761157 386.126384 
L 515.372727 386.160607 
" style="fill:none;stroke:#ff6384;stroke-linecap:square;"/>
   </g>
   <g id="line2d_2">
    <path clip-path="url(#pc809f98463)" d="M 105.249647 386.139371 
L 108.986773 386.097141 
L 112.723899 386.040368 
L 116.461026 385.964575 
L 120.198152 385.864094 
L 123.935278 385.73181 
L 127.672404 385.558878 
L 131.409531 385.334393 
L 135.146657 385.04504 
L 138.883783 384.674709 
L 142.620909 384.204102 
L 146.358035 383.610328 
L 150.095162 382.866516 
L 153.832288 381.941454 
L 157.569414 380.799296 
L 161.30654 379.399346 
L 165.043666 377.695976 
L 168.780793 375.638684 
L 172.517919 373.172366 
L 176.255045 370.2378 
L 179.992171 366.772413 
L 183.729298 362.711322 
L 187.466424 357.988708 
L 191.20355 352.539497 
L 194.940676 346.301371 
L 198.677802 339.217063 
L 202.414929 331.236916 
L 206.152055 322.321628 
L 209.889181 312.445114 
L 213.626307 301.597371 
L 217.363433 289.787238 
L 221.10056 277.04491 
L 224.837686 263.424078 
L 228.574812 249.003534 
L 232.311938 233.888124 
L 236.049065 218.208919 
L 239.786191 202.122504 
L 243.523317 185.809323 
L 247.260443 169.471045 
L 250.997569 153.326975 
L 254.734696 137.609553 
L 258.471822 122.559072 
L 262.208948 108.417748 
L 265.946074 95.423357 
L 269.6832 83.802649 
L 273.420327 73.764805 
L 277.157453 65.495194 
L 280.894579 59.149682 
L 284.631705 54.849752 
L 288.368832 52.678636 
L 292.105958 52.678636 
L 295.843084 54.849752 
L 299.58021 59.149682 
L 303.317336 65.495194 
L 307.054463 73.764805 
L 310.791589 83.802649 
L 314.528715 95.423357 
L 318.265841 108.417748 
L 322.002967 122.559072 
L 325.740094 137.609553 
L 329.47722 153.326975 
L 333.214346 169.471045 
L 336.951472 185.809323 
L 340.688599 202.122504 
L 344.425725 218.208919 
L 348.162851 233.888124 
L 351.899977 249.003534 
L 355.637103 263.424078 
L 359.37423 277.04491 
L 363.111356 289.787238 
L 366.848482 301.597371 
L 370.585608 312.445114 
L 374.322734 322.321628 
L 378.059861 331.236916 
L 381.796987 339.217063 
L 385.534113 346.301371 
L 389.271239 352.539497 
L 393.008366 357.988708 
L 396.745492 362.711322 
L 400.482618 366.772413 
L 404.219744 370.2378 
L 407.95687 373.172366 
L 411.693997 375.638684 
L 415.431123 377.695976 
L 419.168249 379.399346 
L 422.905375 380.799296 
L 426.642501 381.941454 
L 430.379628 382.866516 
L 434.116754 383.610328 
L 437.85388 384.204102 
L 441.591006 384.674709 
L 445.328133 385.04504 
L 449.065259 385.334393 
L 452.802385 385.558878 
L 456.539511 385.73181 
L 460.276637 385.864094 
L 464.013764 385.964575 
L 467.75089 386.040368 
L 471.488016 386.097141 
L 475.225142 386.139371 
" style="fill:none;stroke:#36a2eb;stroke-linecap:square;"/>
   </g>
   <g id="patch_3">
    <path d="M 36 402.93 
L 538.2 402.93 
" style="fill:none;stroke:#000000;stroke-linecap:square;stroke-linejoin:miter;stroke-width:0.8;"/>
   </g>
   <g id="legend_1">
    <g id="patch_4">
     <path d="M 414.919063 88.29875 
L 528.4 88.29875 
Q 531.2 88.29875 531.2 85.49875 
L 531.2 45.8 
Q 531.2 43 528.4 43 
L 414.919063 43 
Q 412.119063 43 412.119063 45.8 
L 412.119063 85.49875 
Q 412.119063 88.29875 414.919063 88.29875 
z
" style="fill:#ffffff;opacity:0.8;stroke:#cccccc;stroke-linejoin:miter;"/>
    </g>
    <g id="patch_5">
     <path d="M 417.719063 59.237813 
L 445.719063 59.237813 
L 445.719063 49.437813 
L 417.719063 49.437813 
z
" style="fill:#ff6384;opacity:0.5;stroke:#ff6384;stroke-linejoin:miter;"/>
    </g>
    <g id="text_1">
     <!-- sidemenu -->
     <defs>
      <path d="M 44.28125 53.078125 
L 44.28125 44.578125 
Q 40.484375 46.53125 36.375 47.5 
Q 32.28125 48.484375 27.875 48.484375 
Q 21.1875 48.484375 17.84375 46.4375 
Q 14.5 44.390625 14.5 40.28125 
Q 14.5 37.15625 16.890625 35.375 
Q 19.28125 33.59375 26.515625 31.984375 
L 29.59375 31.296875 
Q 39.15625 29.25 43.1875 25.515625 
Q 47.21875 21.78125 47.21875 15.09375 
Q 47.21875 7.46875 41.1875 3.015625 
Q 35.15625 -1.421875 24.609375 -1.421875 
Q 20.21875 -1.421875 15.453125 -0.5625 
Q 10.6875 0.296875 5.421875 2 
L 5.421875 11.28125 
Q 10.40625 8.6875 15.234375 7.390625 
Q 20.0625 6.109375 24.8125 6.109375 
Q 31.15625 6.109375 34.5625 8.28125 
Q 37.984375 10.453125 37.984375 14.40625 
Q 37.984375 18.0625 35.515625 20.015625 
Q 33.0625 21.96875 24.703125 23.78125 
L 21.578125 24.515625 
Q 13.234375 26.265625 9.515625 29.90625 
Q 5.8125 33.546875 5.8125 39.890625 
Q 5.8125 47.609375 11.28125 51.796875 
Q 16.75 56 26.8125 56 
Q 31.78125 56 36.171875 55.265625 
Q 40.578125 54.546875 44.28125 53.078125 
z
" id="DejaVuSans-115"/>
      <path d="M 9.421875 54.6875 
L 18.40625 54.6875 
L 18.40625 0 
L 9.421875 0 
z
M 9.421875 75.984375 
L 18.40625 75.984375 
L 18.40625 64.59375 
L 9.421875 64.59375 
z
" id="DejaVuSans-105"/>
      <path d="M 45.40625 46.390625 
L 45.40625 75.984375 
L 54.390625 75.984375 
L 54.390625 0 
L 45.40625 0 
L 45.40625 8.203125 
Q 42.578125 3.328125 38.25 0.953125 
Q 33.9375 -1.421875 27.875 -1.421875 
Q 17.96875 -1.421875 11.734375 6.484375 
Q 5.515625 14.40625 5.515625 27.296875 
Q 5.515625 40.1875 11.734375 48.09375 
Q 17.96875 56 27.875 56 
Q 33.9375 56 38.25 53.625 
Q 42.578125 51.265625 45.40625 46.390625 
z
M 14.796875 27.296875 
Q 14.796875 17.390625 18.875 11.75 
Q 22.953125 6.109375 30.078125 6.109375 
Q 37.203125 6.109375 41.296875 11.75 
Q 45.40625 17.390625 45.40625 27.296875 
Q 45.40625 37.203125 41.296875 42.84375 
Q 37.203125 48.484375 30.078125 48.484375 
Q 22.953125 48.484375 18.875 42.84375 
Q 14.796875 37.203125 14.796875 27.296875 
z
" id="DejaVuSans-100"/>
      <path d="M 56.203125 29.59375 
L 56.203125 25.203125 
L 14.890625 25.203125 
Q 15.484375 15.921875 20.484375 11.0625 
Q 25.484375 6.203125 34.421875 6.203125 
Q 39.59375 6.203125 44.453125 7.46875 
Q 49.3125 8.734375 54.109375 11.28125 
L 54.109375 2.78125 
Q 49.265625 0.734375 44.1875 -0.34375 
Q 39.109375 -1.421875 33.890625 -1.421875 
Q 20.796875 -1.421875 13.15625 6.1875 
Q 5.515625 13.8125 5.515625 26.8125 
Q 5.515625 40.234375 12.765625 48.109375 
Q 20.015625 56 32.328125 56 
Q 43.359375 56 49.78125 48.890625 
Q 56.203125 41.796875 56.203125 29.59375 
z
M 47.21875 32.234375 
Q 47.125 39.59375 43.09375 43.984375 
Q 39.0625 48.390625 32.421875 48.390625 
Q 24.90625 48.390625 20.390625 44.140625 
Q 15.875 39.890625 15.1875 32.171875 
z
" id="DejaVuSans-101"/>
      <path d="M 52 44.1875 
Q 55.375 50.25 60.0625 53.125 
Q 64.75 56 71.09375 56 
Q 79.640625 56 84.28125 50.015625 
Q 88.921875 44.046875 88.921875 33.015625 
L 88.921875 0 
L 79.890625 0 
L 79.890625 32.71875 
Q 79.890625 40.578125 77.09375 44.375 
Q 74.3125 48.1875 68.609375 48.1875 
Q 61.625 48.1875 57.5625 43.546875 
Q 53.515625 38.921875 53.515625 30.90625 
L 53.515625 0 
L 44.484375 0 
L 44.484375 32.71875 
Q 44.484375 40.625 41.703125 44.40625 
Q 38.921875 48.1875 33.109375 48.1875 
Q 26.21875 48.1875 22.15625 43.53125 
Q 18.109375 38.875 18.109375 30.90625 
L 18.109375 0 
L 9.078125 0 
L 9.078125 54.6875 
L 18.109375 54.6875 
L 18.109375 46.1875 
Q 21.1875 51.21875 25.484375 53.609375 
Q 29.78125 56 35.6875 56 
Q 41.65625 56 45.828125 52.96875 
Q 50 49.953125 52 44.1875 
z
" id="DejaVuSans-109"/>
      <path d="M 54.890625 33.015625 
L 54.890625 0 
L 45.90625 0 
L 45.90625 32.71875 
Q 45.90625 40.484375 42.875 44.328125 
Q 39.84375 48.1875 33.796875 48.1875 
Q 26.515625 48.1875 22.3125 43.546875 
Q 18.109375 38.921875 18.109375 30.90625 
L 18.109375 0 
L 9.078125 0 
L 9.078125 54.6875 
L 18.109375 54.6875 
L 18.109375 46.1875 
Q 21.34375 51.125 25.703125 53.5625 
Q 30.078125 56 35.796875 56 
Q 45.21875 56 50.046875 50.171875 
Q 54.890625 44.34375 54.890625 33.015625 
z
" id="DejaVuSans-110"/>
      <path d="M 8.5 21.578125 
L 8.5 54.6875 
L 17.484375 54.6875 
L 17.484375 21.921875 
Q 17.484375 14.15625 20.5 10.265625 
Q 23.53125 6.390625 29.59375 6.390625 
Q 36.859375 6.390625 41.078125 11.03125 
Q 45.3125 15.671875 45.3125 23.6875 
L 45.3125 54.6875 
L 54.296875 54.6875 
L 54.296875 0 
L 45.3125 0 
L 45.3125 8.40625 
Q 42.046875 3.421875 37.71875 1 
Q 33.40625 -1.421875 27.6875 -1.421875 
Q 18.265625 -1.421875 13.375 4.4375 
Q 8.5 10.296875 8.5 21.578125 
z
M 31.109375 56 
z
" id="DejaVuSans-117"/>
     </defs>
     <g transform="translate(456.919063 59.237813)scale(0.14 -0.14)">
      <use xlink:href="#DejaVuSans-115"/>
      <use x="52.099609" xlink:href="#DejaVuSans-105"/>
      <use x="79.882812" xlink:href="#DejaVuSans-100"/>
      <use x="143.359375" xlink:href="#DejaVuSans-101"/>
      <use x="204.882812" xlink:href="#DejaVuSans-109"/>
      <use x="302.294922" xlink:href="#DejaVuSans-101"/>
      <use x="363.818359" xlink:href="#DejaVuSans-110"/>
      <use x="427.197266" xlink:href="#DejaVuSans-117"/>
     </g>
    </g>
    <g id="patch_6">
     <path d="M 417.719063 79.787188 
L 445.719063 79.787188 
L 445.719063 69.987188 
L 417.719063 69.987188 
z
" style="fill:#36a2eb;opacity:0.5;stroke:#36a2eb;stroke-linejoin:miter;"/>
    </g>
    <g id="text_2">
     <!-- tabbar -->
     <defs>
      <path d="M 18.3125 70.21875 
L 18.3125 54.6875 
L 36.8125 54.6875 
L 36.8125 47.703125 
L 18.3125 47.703125 
L 18.3125 18.015625 
Q 18.3125 11.328125 20.140625 9.421875 
Q 21.96875 7.515625 27.59375 7.515625 
L 36.8125 7.515625 
L 36.8125 0 
L 27.59375 0 
Q 17.1875 0 13.234375 3.875 
Q 9.28125 7.765625 9.28125 18.015625 
L 9.28125 47.703125 
L 2.6875 47.703125 
L 2.6875 54.6875 
L 9.28125 54.6875 
L 9.28125 70.21875 
z
" id="DejaVuSans-116"/>
      <path d="M 34.28125 27.484375 
Q 23.390625 27.484375 19.1875 25 
Q 14.984375 22.515625 14.984375 16.5 
Q 14.984375 11.71875 18.140625 8.90625 
Q 21.296875 6.109375 26.703125 6.109375 
Q 34.1875 6.109375 38.703125 11.40625 
Q 43.21875 16.703125 43.21875 25.484375 
L 43.21875 27.484375 
z
M 52.203125 31.203125 
L 52.203125 0 
L 43.21875 0 
L 43.21875 8.296875 
Q 40.140625 3.328125 35.546875 0.953125 
Q 30.953125 -1.421875 24.3125 -1.421875 
Q 15.921875 -1.421875 10.953125 3.296875 
Q 6 8.015625 6 15.921875 
Q 6 25.140625 12.171875 29.828125 
Q 18.359375 34.515625 30.609375 34.515625 
L 43.21875 34.515625 
L 43.21875 35.40625 
Q 43.21875 41.609375 39.140625 45 
Q 35.0625 48.390625 27.6875 48.390625 
Q 23 48.390625 18.546875 47.265625 
Q 14.109375 46.140625 10.015625 43.890625 
L 10.015625 52.203125 
Q 14.9375 54.109375 19.578125 55.046875 
Q 24.21875 56 28.609375 56 
Q 40.484375 56 46.34375 49.84375 
Q 52.203125 43.703125 52.203125 31.203125 
z
" id="DejaVuSans-97"/>
      <path d="M 48.6875 27.296875 
Q 48.6875 37.203125 44.609375 42.84375 
Q 40.53125 48.484375 33.40625 48.484375 
Q 26.265625 48.484375 22.1875 42.84375 
Q 18.109375 37.203125 18.109375 27.296875 
Q 18.109375 17.390625 22.1875 11.75 
Q 26.265625 6.109375 33.40625 6.109375 
Q 40.53125 6.109375 44.609375 11.75 
Q 48.6875 17.390625 48.6875 27.296875 
z
M 18.109375 46.390625 
Q 20.953125 51.265625 25.265625 53.625 
Q 29.59375 56 35.59375 56 
Q 45.5625 56 51.78125 48.09375 
Q 58.015625 40.1875 58.015625 27.296875 
Q 58.015625 14.40625 51.78125 6.484375 
Q 45.5625 -1.421875 35.59375 -1.421875 
Q 29.59375 -1.421875 25.265625 0.953125 
Q 20.953125 3.328125 18.109375 8.203125 
L 18.109375 0 
L 9.078125 0 
L 9.078125 75.984375 
L 18.109375 75.984375 
z
" id="DejaVuSans-98"/>
      <path d="M 41.109375 46.296875 
Q 39.59375 47.171875 37.8125 47.578125 
Q 36.03125 48 33.890625 48 
Q 26.265625 48 22.1875 43.046875 
Q 18.109375 38.09375 18.109375 28.8125 
L 18.109375 0 
L 9.078125 0 
L 9.078125 54.6875 
L 18.109375 54.6875 
L 18.109375 46.1875 
Q 20.953125 51.171875 25.484375 53.578125 
Q 30.03125 56 36.53125 56 
Q 37.453125 56 38.578125 55.875 
Q 39.703125 55.765625 41.0625 55.515625 
z
" id="DejaVuSans-114"/>
     </defs>
     <g transform="translate(456.919063 79.787188)scale(0.14 -0.14)">
      <use xlink:href="#DejaVuSans-116"/>
      <use x="39.208984" xlink:href="#DejaVuSans-97"/>
      <use x="100.488281" xlink:href="#DejaVuSans-98"/>
      <use x="163.964844" xlink:href="#DejaVuSans-98"/>
      <use x="227.441406" xlink:href="#DejaVuSans-97"/>
      <use x="288.720703" xlink:href="#DejaVuSans-114"/>
     </g>
    </g>
   </g>
  </g>
  <g id="axes_2">
   <g id="patch_7">
    <path d="M 36 525.24 
L 538.2 525.24 
L 538.2 402.93 
L 36 402.93 
z
" style="fill:none;"/>
   </g>
   <g id="patch_8">
    <path clip-path="url(#p54e929964c)" d="M 175.246364 519.680455 
L 398.953636 519.680455 
L 398.953636 482.616818 
L 175.246364 482.616818 
z
" style="fill:#ff6384;opacity:0.5;"/>
   </g>
   <g id="patch_9">
    <path clip-path="url(#p54e929964c)" d="M 199.593398 445.553182 
L 380.881391 445.553182 
L 380.881391 408.489545 
L 199.593398 408.489545 
z
" style="fill:#36a2eb;opacity:0.5;"/>
   </g>
   <g id="matplotlib.axis_1">
    <g id="xtick_1">
     <g id="line2d_3">
      <defs>
       <path d="M 0 0 
L 0 3.5 
" id="m6f29bd4048" style="stroke:#000000;stroke-width:0.8;"/>
      </defs>
      <g>
       <use style="stroke:#000000;stroke-width:0.8;" x="73.478286" xlink:href="#m6f29bd4048" y="525.24"/>
      </g>
     </g>
     <g id="text_3">
      <!-- 3.7 -->
      <defs>
       <path d="M 40.578125 39.3125 
Q 47.65625 37.796875 51.625 33 
Q 55.609375 28.21875 55.609375 21.1875 
Q 55.609375 10.40625 48.1875 4.484375 
Q 40.765625 -1.421875 27.09375 -1.421875 
Q 22.515625 -1.421875 17.65625 -0.515625 
Q 12.796875 0.390625 7.625 2.203125 
L 7.625 11.71875 
Q 11.71875 9.328125 16.59375 8.109375 
Q 21.484375 6.890625 26.8125 6.890625 
Q 36.078125 6.890625 40.9375 10.546875 
Q 45.796875 14.203125 45.796875 21.1875 
Q 45.796875 27.640625 41.28125 31.265625 
Q 36.765625 34.90625 28.71875 34.90625 
L 20.21875 34.90625 
L 20.21875 43.015625 
L 29.109375 43.015625 
Q 36.375 43.015625 40.234375 45.921875 
Q 44.09375 48.828125 44.09375 54.296875 
Q 44.09375 59.90625 40.109375 62.90625 
Q 36.140625 65.921875 28.71875 65.921875 
Q 24.65625 65.921875 20.015625 65.03125 
Q 15.375 64.15625 9.8125 62.3125 
L 9.8125 71.09375 
Q 15.4375 72.65625 20.34375 73.4375 
Q 25.25 74.21875 29.59375 74.21875 
Q 40.828125 74.21875 47.359375 69.109375 
Q 53.90625 64.015625 53.90625 55.328125 
Q 53.90625 49.265625 50.4375 45.09375 
Q 46.96875 40.921875 40.578125 39.3125 
z
" id="DejaVuSans-51"/>
       <path d="M 10.6875 12.40625 
L 21 12.40625 
L 21 0 
L 10.6875 0 
z
" id="DejaVuSans-46"/>
       <path d="M 8.203125 72.90625 
L 55.078125 72.90625 
L 55.078125 68.703125 
L 28.609375 0 
L 18.3125 0 
L 43.21875 64.59375 
L 8.203125 64.59375 
z
" id="DejaVuSans-55"/>
      </defs>
      <g transform="translate(62.346098 542.877813)scale(0.14 -0.14)">
       <use xlink:href="#DejaVuSans-51"/>
       <use x="63.623047" xlink:href="#DejaVuSans-46"/>
       <use x="95.410156" xlink:href="#DejaVuSans-55"/>
      </g>
     </g>
    </g>
    <g id="xtick_2">
     <g id="line2d_4">
      <g>
       <use style="stroke:#000000;stroke-width:0.8;" x="143.198166" xlink:href="#m6f29bd4048" y="525.24"/>
      </g>
     </g>
     <g id="text_4">
      <!-- 3.8 -->
      <defs>
       <path d="M 31.78125 34.625 
Q 24.75 34.625 20.71875 30.859375 
Q 16.703125 27.09375 16.703125 20.515625 
Q 16.703125 13.921875 20.71875 10.15625 
Q 24.75 6.390625 31.78125 6.390625 
Q 38.8125 6.390625 42.859375 10.171875 
Q 46.921875 13.96875 46.921875 20.515625 
Q 46.921875 27.09375 42.890625 30.859375 
Q 38.875 34.625 31.78125 34.625 
z
M 21.921875 38.8125 
Q 15.578125 40.375 12.03125 44.71875 
Q 8.5 49.078125 8.5 55.328125 
Q 8.5 64.0625 14.71875 69.140625 
Q 20.953125 74.21875 31.78125 74.21875 
Q 42.671875 74.21875 48.875 69.140625 
Q 55.078125 64.0625 55.078125 55.328125 
Q 55.078125 49.078125 51.53125 44.71875 
Q 48 40.375 41.703125 38.8125 
Q 48.828125 37.15625 52.796875 32.3125 
Q 56.78125 27.484375 56.78125 20.515625 
Q 56.78125 9.90625 50.3125 4.234375 
Q 43.84375 -1.421875 31.78125 -1.421875 
Q 19.734375 -1.421875 13.25 4.234375 
Q 6.78125 9.90625 6.78125 20.515625 
Q 6.78125 27.484375 10.78125 32.3125 
Q 14.796875 37.15625 21.921875 38.8125 
z
M 18.3125 54.390625 
Q 18.3125 48.734375 21.84375 45.5625 
Q 25.390625 42.390625 31.78125 42.390625 
Q 38.140625 42.390625 41.71875 45.5625 
Q 45.3125 48.734375 45.3125 54.390625 
Q 45.3125 60.0625 41.71875 63.234375 
Q 38.140625 66.40625 31.78125 66.40625 
Q 25.390625 66.40625 21.84375 63.234375 
Q 18.3125 60.0625 18.3125 54.390625 
z
" id="DejaVuSans-56"/>
      </defs>
      <g transform="translate(132.065979 542.877813)scale(0.14 -0.14)">
       <use xlink:href="#DejaVuSans-51"/>
       <use x="63.623047" xlink:href="#DejaVuSans-46"/>
       <use x="95.410156" xlink:href="#DejaVuSans-56"/>
      </g>
     </g>
    </g>
    <g id="xtick_3">
     <g id="line2d_5">
      <g>
       <use style="stroke:#000000;stroke-width:0.8;" x="212.918047" xlink:href="#m6f29bd4048" y="525.24"/>
      </g>
     </g>
     <g id="text_5">
      <!-- 3.9 -->
      <defs>
       <path d="M 10.984375 1.515625 
L 10.984375 10.5 
Q 14.703125 8.734375 18.5 7.8125 
Q 22.3125 6.890625 25.984375 6.890625 
Q 35.75 6.890625 40.890625 13.453125 
Q 46.046875 20.015625 46.78125 33.40625 
Q 43.953125 29.203125 39.59375 26.953125 
Q 35.25 24.703125 29.984375 24.703125 
Q 19.046875 24.703125 12.671875 31.3125 
Q 6.296875 37.9375 6.296875 49.421875 
Q 6.296875 60.640625 12.9375 67.421875 
Q 19.578125 74.21875 30.609375 74.21875 
Q 43.265625 74.21875 49.921875 64.515625 
Q 56.59375 54.828125 56.59375 36.375 
Q 56.59375 19.140625 48.40625 8.859375 
Q 40.234375 -1.421875 26.421875 -1.421875 
Q 22.703125 -1.421875 18.890625 -0.6875 
Q 15.09375 0.046875 10.984375 1.515625 
z
M 30.609375 32.421875 
Q 37.25 32.421875 41.125 36.953125 
Q 45.015625 41.5 45.015625 49.421875 
Q 45.015625 57.28125 41.125 61.84375 
Q 37.25 66.40625 30.609375 66.40625 
Q 23.96875 66.40625 20.09375 61.84375 
Q 16.21875 57.28125 16.21875 49.421875 
Q 16.21875 41.5 20.09375 36.953125 
Q 23.96875 32.421875 30.609375 32.421875 
z
" id="DejaVuSans-57"/>
      </defs>
      <g transform="translate(201.78586 542.877813)scale(0.14 -0.14)">
       <use xlink:href="#DejaVuSans-51"/>
       <use x="63.623047" xlink:href="#DejaVuSans-46"/>
       <use x="95.410156" xlink:href="#DejaVuSans-57"/>
      </g>
     </g>
    </g>
    <g id="xtick_4">
     <g id="line2d_6">
      <g>
       <use style="stroke:#000000;stroke-width:0.8;" x="282.637928" xlink:href="#m6f29bd4048" y="525.24"/>
      </g>
     </g>
     <g id="text_6">
      <!-- 4.0 -->
      <defs>
       <path d="M 37.796875 64.3125 
L 12.890625 25.390625 
L 37.796875 25.390625 
z
M 35.203125 72.90625 
L 47.609375 72.90625 
L 47.609375 25.390625 
L 58.015625 25.390625 
L 58.015625 17.1875 
L 47.609375 17.1875 
L 47.609375 0 
L 37.796875 0 
L 37.796875 17.1875 
L 4.890625 17.1875 
L 4.890625 26.703125 
z
" id="DejaVuSans-52"/>
       <path d="M 31.78125 66.40625 
Q 24.171875 66.40625 20.328125 58.90625 
Q 16.5 51.421875 16.5 36.375 
Q 16.5 21.390625 20.328125 13.890625 
Q 24.171875 6.390625 31.78125 6.390625 
Q 39.453125 6.390625 43.28125 13.890625 
Q 47.125 21.390625 47.125 36.375 
Q 47.125 51.421875 43.28125 58.90625 
Q 39.453125 66.40625 31.78125 66.40625 
z
M 31.78125 74.21875 
Q 44.046875 74.21875 50.515625 64.515625 
Q 56.984375 54.828125 56.984375 36.375 
Q 56.984375 17.96875 50.515625 8.265625 
Q 44.046875 -1.421875 31.78125 -1.421875 
Q 19.53125 -1.421875 13.0625 8.265625 
Q 6.59375 17.96875 6.59375 36.375 
Q 6.59375 54.828125 13.0625 64.515625 
Q 19.53125 74.21875 31.78125 74.21875 
z
" id="DejaVuSans-48"/>
      </defs>
      <g transform="translate(271.50574 542.877813)scale(0.14 -0.14)">
       <use xlink:href="#DejaVuSans-52"/>
       <use x="63.623047" xlink:href="#DejaVuSans-46"/>
       <use x="95.410156" xlink:href="#DejaVuSans-48"/>
      </g>
     </g>
    </g>
    <g id="xtick_5">
     <g id="line2d_7">
      <g>
       <use style="stroke:#000000;stroke-width:0.8;" x="352.357808" xlink:href="#m6f29bd4048" y="525.24"/>
      </g>
     </g>
     <g id="text_7">
      <!-- 4.1 -->
      <defs>
       <path d="M 12.40625 8.296875 
L 28.515625 8.296875 
L 28.515625 63.921875 
L 10.984375 60.40625 
L 10.984375 69.390625 
L 28.421875 72.90625 
L 38.28125 72.90625 
L 38.28125 8.296875 
L 54.390625 8.296875 
L 54.390625 0 
L 12.40625 0 
z
" id="DejaVuSans-49"/>
      </defs>
      <g transform="translate(341.225621 542.877813)scale(0.14 -0.14)">
       <use xlink:href="#DejaVuSans-52"/>
       <use x="63.623047" xlink:href="#DejaVuSans-46"/>
       <use x="95.410156" xlink:href="#DejaVuSans-49"/>
      </g>
     </g>
    </g>
    <g id="xtick_6">
     <g id="line2d_8">
      <g>
       <use style="stroke:#000000;stroke-width:0.8;" x="422.077689" xlink:href="#m6f29bd4048" y="525.24"/>
      </g>
     </g>
     <g id="text_8">
      <!-- 4.2 -->
      <defs>
       <path d="M 19.1875 8.296875 
L 53.609375 8.296875 
L 53.609375 0 
L 7.328125 0 
L 7.328125 8.296875 
Q 12.9375 14.109375 22.625 23.890625 
Q 32.328125 33.6875 34.8125 36.53125 
Q 39.546875 41.84375 41.421875 45.53125 
Q 43.3125 49.21875 43.3125 52.78125 
Q 43.3125 58.59375 39.234375 62.25 
Q 35.15625 65.921875 28.609375 65.921875 
Q 23.96875 65.921875 18.8125 64.3125 
Q 13.671875 62.703125 7.8125 59.421875 
L 7.8125 69.390625 
Q 13.765625 71.78125 18.9375 73 
Q 24.125 74.21875 28.421875 74.21875 
Q 39.75 74.21875 46.484375 68.546875 
Q 53.21875 62.890625 53.21875 53.421875 
Q 53.21875 48.921875 51.53125 44.890625 
Q 49.859375 40.875 45.40625 35.40625 
Q 44.1875 33.984375 37.640625 27.21875 
Q 31.109375 20.453125 19.1875 8.296875 
z
" id="DejaVuSans-50"/>
      </defs>
      <g transform="translate(410.945501 542.877813)scale(0.14 -0.14)">
       <use xlink:href="#DejaVuSans-52"/>
       <use x="63.623047" xlink:href="#DejaVuSans-46"/>
       <use x="95.410156" xlink:href="#DejaVuSans-50"/>
      </g>
     </g>
    </g>
    <g id="xtick_7">
     <g id="line2d_9">
      <g>
       <use style="stroke:#000000;stroke-width:0.8;" x="491.79757" xlink:href="#m6f29bd4048" y="525.24"/>
      </g>
     </g>
     <g id="text_9">
      <!-- 4.3 -->
      <g transform="translate(480.665382 542.877813)scale(0.14 -0.14)">
       <use xlink:href="#DejaVuSans-52"/>
       <use x="63.623047" xlink:href="#DejaVuSans-46"/>
       <use x="95.410156" xlink:href="#DejaVuSans-51"/>
      </g>
     </g>
    </g>
   </g>
   <g id="line2d_10">
    <path clip-path="url(#p54e929964c)" d="M 287.1 525.24 
L 287.1 402.93 
" style="fill:none;stroke:#ff6384;stroke-dasharray:5.55,2.4;stroke-dashoffset:0;stroke-opacity:0.8;stroke-width:1.5;"/>
   </g>
   <g id="line2d_11">
    <path clip-path="url(#p54e929964c)" d="M 290.237395 525.24 
L 290.237395 402.93 
" style="fill:none;stroke:#36a2eb;stroke-dasharray:5.55,2.4;stroke-dashoffset:0;stroke-opacity:0.8;stroke-width:1.5;"/>
   </g>
   <g id="patch_10">
    <path d="M 36 525.24 
L 538.2 525.24 
" style="fill:none;stroke:#000000;stroke-linecap:square;stroke-linejoin:miter;stroke-width:0.8;"/>
   </g>
  </g>
 </g>
 <defs>
  <clipPath id="pc809f98463">
   <rect height="366.93" width="502.2" x="36" y="36"/>
  </clipPath>
  <clipPath id="p54e929964c">
   <rect height="122.31" width="502.2" x="36" y="402.93"/>
  </clipPath>
 </defs>
</svg>
