<?xml version="1.0" encoding="utf-8" standalone="no"?>
<!DOCTYPE svg PUBLIC "-//W3C//DTD SVG 1.1//EN"
  "http://www.w3.org/Graphics/SVG/1.1/DTD/svg11.dtd">
<!-- Created with matplotlib (https://matplotlib.org/) -->
<svg height="581.789375pt" version="1.1" viewBox="0 0 574.2 581.789375" width="574.2pt" xmlns="http://www.w3.org/2000/svg" xmlns:xlink="http://www.w3.org/1999/xlink">
 <defs>
  <style type="text/css">
*{stroke-linecap:butt;stroke-linejoin:round;}
  </style>
 </defs>
 <g id="figure_1">
  <g id="patch_1">
   <path d="M 0 581.789375 
L 574.2 581.789375 
L 574.2 0 
L 0 0 
z
" style="fill:none;"/>
  </g>
  <g id="axes_1">
   <g id="patch_2">
    <path d="M 36 402.93 
L 538.2 402.93 
L 538.2 36 
L 36 36 
z
" style="fill:none;"/>
   </g>
   <g id="PolyCollection_1">
    <defs>
     <path d="M 58.827273 -195.538011 
L 58.827273 -195.644558 
L 63.383552 -195.684735 
L 67.939831 -195.738747 
L 72.49611 -195.810854 
L 77.05239 -195.90645 
L 81.608669 -196.032301 
L 86.164948 -196.196823 
L 90.721227 -196.410392 
L 95.277506 -196.685675 
L 99.833786 -197.037998 
L 104.390065 -197.485721 
L 108.946344 -198.050621 
L 113.502623 -198.758264 
L 118.058903 -199.638343 
L 122.615182 -200.724962 
L 127.171461 -202.056836 
L 131.72774 -203.677377 
L 136.284019 -205.634629 
L 140.840299 -207.981018 
L 145.396578 -210.772885 
L 149.952857 -214.069761 
L 154.509136 -217.933374 
L 159.065416 -222.426342 
L 163.621695 -227.610574 
L 168.177974 -233.54536 
L 172.734253 -240.28518 
L 177.290532 -247.877277 
L 181.846812 -256.359042 
L 186.403091 -265.755291 
L 190.95937 -276.075542 
L 195.515649 -287.311386 
L 200.071929 -299.434093 
L 204.628208 -312.392587 
L 209.184487 -326.111904 
L 213.740766 -340.492298 
L 218.297045 -355.409072 
L 222.853325 -370.713254 
L 227.409604 -386.233176 
L 231.965883 -401.776974 
L 236.522162 -417.136008 
L 241.078442 -432.08914 
L 245.634721 -446.407763 
L 250.191 -459.861438 
L 254.747279 -472.223952 
L 259.303558 -483.279582 
L 263.859838 -492.829316 
L 268.416117 -500.696802 
L 272.972396 -506.733751 
L 277.528675 -510.824589 
L 282.084954 -512.89013 
L 286.641234 -512.89013 
L 291.197513 -510.824589 
L 295.753792 -506.733751 
L 300.310071 -500.696802 
L 304.866351 -492.829316 
L 309.42263 -483.279582 
L 313.978909 -472.223952 
L 318.535188 -459.861438 
L 323.091467 -446.407763 
L 327.647747 -432.08914 
L 332.204026 -417.136008 
L 336.760305 -401.776974 
L 341.316584 -386.233176 
L 345.872864 -370.713254 
L 350.429143 -355.409072 
L 354.985422 -340.492298 
L 359.541701 -326.111904 
L 364.09798 -312.392587 
L 368.65426 -299.434093 
L 373.210539 -287.311386 
L 377.766818 -276.075542 
L 382.323097 -265.755291 
L 386.879377 -256.359042 
L 391.435656 -247.877277 
L 395.991935 -240.28518 
L 400.548214 -233.54536 
L 405.104493 -227.610574 
L 409.660773 -222.426342 
L 414.217052 -217.933374 
L 418.773331 -214.069761 
L 423.32961 -210.772885 
L 427.88589 -207.981018 
L 432.442169 -205.634629 
L 436.998448 -203.677377 
L 441.554727 -202.056836 
L 446.111006 -200.724962 
L 450.667286 -199.638343 
L 455.223565 -198.758264 
L 459.779844 -198.050621 
L 464.336123 -197.485721 
L 468.892403 -197.037998 
L 473.448682 -196.685675 
L 478.004961 -196.410392 
L 482.56124 -196.196823 
L 487.117519 -196.032301 
L 491.673799 -195.90645 
L 496.230078 -195.810854 
L 500.786357 -195.738747 
L 505.342636 -195.684735 
L 509.898915 -195.644558 
L 509.898915 -195.538011 
L 509.898915 -195.538011 
L 505.342636 -195.538011 
L 500.786357 -195.538011 
L 496.230078 -195.538011 
L 491.673799 -195.538011 
L 487.117519 -195.538011 
L 482.56124 -195.538011 
L 478.004961 -195.538011 
L 473.448682 -195.538011 
L 468.892403 -195.538011 
L 464.336123 -195.538011 
L 459.779844 -195.538011 
L 455.223565 -195.538011 
L 450.667286 -195.538011 
L 446.111006 -195.538011 
L 441.554727 -195.538011 
L 436.998448 -195.538011 
L 432.442169 -195.538011 
L 427.88589 -195.538011 
L 423.32961 -195.538011 
L 418.773331 -195.538011 
L 414.217052 -195.538011 
L 409.660773 -195.538011 
L 405.104493 -195.538011 
L 400.548214 -195.538011 
L 395.991935 -195.538011 
L 391.435656 -195.538011 
L 386.879377 -195.538011 
L 382.323097 -195.538011 
L 377.766818 -195.538011 
L 373.210539 -195.538011 
L 368.65426 -195.538011 
L 364.09798 -195.538011 
L 359.541701 -195.538011 
L 354.985422 -195.538011 
L 350.429143 -195.538011 
L 345.872864 -195.538011 
L 341.316584 -195.538011 
L 336.760305 -195.538011 
L 332.204026 -195.538011 
L 327.647747 -195.538011 
L 323.091467 -195.538011 
L 318.535188 -195.538011 
L 313.978909 -195.538011 
L 309.42263 -195.538011 
L 304.866351 -195.538011 
L 300.310071 -195.538011 
L 295.753792 -195.538011 
L 291.197513 -195.538011 
L 286.641234 -195.538011 
L 282.084954 -195.538011 
L 277.528675 -195.538011 
L 272.972396 -195.538011 
L 268.416117 -195.538011 
L 263.859838 -195.538011 
L 259.303558 -195.538011 
L 254.747279 -195.538011 
L 250.191 -195.538011 
L 245.634721 -195.538011 
L 241.078442 -195.538011 
L 236.522162 -195.538011 
L 231.965883 -195.538011 
L 227.409604 -195.538011 
L 222.853325 -195.538011 
L 218.297045 -195.538011 
L 213.740766 -195.538011 
L 209.184487 -195.538011 
L 204.628208 -195.538011 
L 200.071929 -195.538011 
L 195.515649 -195.538011 
L 190.95937 -195.538011 
L 186.403091 -195.538011 
L 181.846812 -195.538011 
L 177.290532 -195.538011 
L 172.734253 -195.538011 
L 168.177974 -195.538011 
L 163.621695 -195.538011 
L 159.065416 -195.538011 
L 154.509136 -195.538011 
L 149.952857 -195.538011 
L 145.396578 -195.538011 
L 140.840299 -195.538011 
L 136.284019 -195.538011 
L 131.72774 -195.538011 
L 127.171461 -195.538011 
L 122.615182 -195.538011 
L 118.058903 -195.538011 
L 113.502623 -195.538011 
L 108.946344 -195.538011 
L 104.390065 -195.538011 
L 99.833786 -195.538011 
L 95.277506 -195.538011 
L 90.721227 -195.538011 
L 86.164948 -195.538011 
L 81.608669 -195.538011 
L 77.05239 -195.538011 
L 72.49611 -195.538011 
L 67.939831 -195.538011 
L 63.383552 -195.538011 
L 58.827273 -195.538011 
z
" id="mf3b8a145d3" style="stroke:#ff6384;stroke-opacity:0.5;"/>
    </defs>
    <g clip-path="url(#p7b155aae91)">
     <use style="fill:#ff6384;fill-opacity:0.5;stroke:#ff6384;stroke-opacity:0.5;" x="0" xlink:href="#mf3b8a145d3" y="581.789375"/>
    </g>
   </g>
   <g id="PolyCollection_2">
    <defs>
     <path d="M 86.235302 -195.538011 
L 86.235302 -195.650004 
L 90.570023 -195.692234 
L 94.904745 -195.749007 
L 99.239466 -195.8248 
L 103.574188 -195.925281 
L 107.908909 -196.057565 
L 112.243631 -196.230497 
L 116.578352 -196.454982 
L 120.913074 -196.744335 
L 125.247795 -197.114666 
L 129.582517 -197.585273 
L 133.917238 -198.179047 
L 138.25196 -198.922859 
L 142.586681 -199.847921 
L 146.921403 -200.990079 
L 151.256124 -202.390029 
L 155.590845 -204.093399 
L 159.925567 -206.150691 
L 164.260288 -208.617009 
L 168.59501 -211.551575 
L 172.929731 -215.016962 
L 177.264453 -219.078053 
L 181.599174 -223.800667 
L 185.933896 -229.249878 
L 190.268617 -235.488004 
L 194.603339 -242.572312 
L 198.93806 -250.552459 
L 203.272782 -259.467747 
L 207.607503 -269.344261 
L 211.942225 -280.192004 
L 216.276946 -292.002137 
L 220.611667 -304.744465 
L 224.946389 -318.365297 
L 229.28111 -332.785841 
L 233.615832 -347.901251 
L 237.950553 -363.580456 
L 242.285275 -379.666871 
L 246.619996 -395.980052 
L 250.954718 -412.31833 
L 255.289439 -428.4624 
L 259.624161 -444.179822 
L 263.958882 -459.230303 
L 268.293604 -473.371627 
L 272.628325 -486.366018 
L 276.963047 -497.986726 
L 281.297768 -508.02457 
L 285.632489 -516.294181 
L 289.967211 -522.639693 
L 294.301932 -526.939623 
L 298.636654 -529.110739 
L 302.971375 -529.110739 
L 307.306097 -526.939623 
L 311.640818 -522.639693 
L 315.97554 -516.294181 
L 320.310261 -508.02457 
L 324.644983 -497.986726 
L 328.979704 -486.366018 
L 333.314426 -473.371627 
L 337.649147 -459.230303 
L 341.983869 -444.179822 
L 346.31859 -428.4624 
L 350.653312 -412.31833 
L 354.988033 -395.980052 
L 359.322754 -379.666871 
L 363.657476 -363.580456 
L 367.992197 -347.901251 
L 372.326919 -332.785841 
L 376.66164 -318.365297 
L 380.996362 -304.744465 
L 385.331083 -292.002137 
L 389.665805 -280.192004 
L 394.000526 -269.344261 
L 398.335248 -259.467747 
L 402.669969 -250.552459 
L 407.004691 -242.572312 
L 411.339412 -235.488004 
L 415.674134 -229.249878 
L 420.008855 -223.800667 
L 424.343576 -219.078053 
L 428.678298 -215.016962 
L 433.013019 -211.551575 
L 437.347741 -208.617009 
L 441.682462 -206.150691 
L 446.017184 -204.093399 
L 450.351905 -202.390029 
L 454.686627 -200.990079 
L 459.021348 -199.847921 
L 463.35607 -198.922859 
L 467.690791 -198.179047 
L 472.025513 -197.585273 
L 476.360234 -197.114666 
L 480.694956 -196.744335 
L 485.029677 -196.454982 
L 489.364398 -196.230497 
L 493.69912 -196.057565 
L 498.033841 -195.925281 
L 502.368563 -195.8248 
L 506.703284 -195.749007 
L 511.038006 -195.692234 
L 515.372727 -195.650004 
L 515.372727 -195.538011 
L 515.372727 -195.538011 
L 511.038006 -195.538011 
L 506.703284 -195.538011 
L 502.368563 -195.538011 
L 498.033841 -195.538011 
L 493.69912 -195.538011 
L 489.364398 -195.538011 
L 485.029677 -195.538011 
L 480.694956 -195.538011 
L 476.360234 -195.538011 
L 472.025513 -195.538011 
L 467.690791 -195.538011 
L 463.35607 -195.538011 
L 459.021348 -195.538011 
L 454.686627 -195.538011 
L 450.351905 -195.538011 
L 446.017184 -195.538011 
L 441.682462 -195.538011 
L 437.347741 -195.538011 
L 433.013019 -195.538011 
L 428.678298 -195.538011 
L 424.343576 -195.538011 
L 420.008855 -195.538011 
L 415.674134 -195.538011 
L 411.339412 -195.538011 
L 407.004691 -195.538011 
L 402.669969 -195.538011 
L 398.335248 -195.538011 
L 394.000526 -195.538011 
L 389.665805 -195.538011 
L 385.331083 -195.538011 
L 380.996362 -195.538011 
L 376.66164 -195.538011 
L 372.326919 -195.538011 
L 367.992197 -195.538011 
L 363.657476 -195.538011 
L 359.322754 -195.538011 
L 354.988033 -195.538011 
L 350.653312 -195.538011 
L 346.31859 -195.538011 
L 341.983869 -195.538011 
L 337.649147 -195.538011 
L 333.314426 -195.538011 
L 328.979704 -195.538011 
L 324.644983 -195.538011 
L 320.310261 -195.538011 
L 315.97554 -195.538011 
L 311.640818 -195.538011 
L 307.306097 -195.538011 
L 302.971375 -195.538011 
L 298.636654 -195.538011 
L 294.301932 -195.538011 
L 289.967211 -195.538011 
L 285.632489 -195.538011 
L 281.297768 -195.538011 
L 276.963047 -195.538011 
L 272.628325 -195.538011 
L 268.293604 -195.538011 
L 263.958882 -195.538011 
L 259.624161 -195.538011 
L 255.289439 -195.538011 
L 250.954718 -195.538011 
L 246.619996 -195.538011 
L 242.285275 -195.538011 
L 237.950553 -195.538011 
L 233.615832 -195.538011 
L 229.28111 -195.538011 
L 224.946389 -195.538011 
L 220.611667 -195.538011 
L 216.276946 -195.538011 
L 211.942225 -195.538011 
L 207.607503 -195.538011 
L 203.272782 -195.538011 
L 198.93806 -195.538011 
L 194.603339 -195.538011 
L 190.268617 -195.538011 
L 185.933896 -195.538011 
L 181.599174 -195.538011 
L 177.264453 -195.538011 
L 172.929731 -195.538011 
L 168.59501 -195.538011 
L 164.260288 -195.538011 
L 159.925567 -195.538011 
L 155.590845 -195.538011 
L 151.256124 -195.538011 
L 146.921403 -195.538011 
L 142.586681 -195.538011 
L 138.25196 -195.538011 
L 133.917238 -195.538011 
L 129.582517 -195.538011 
L 125.247795 -195.538011 
L 120.913074 -195.538011 
L 116.578352 -195.538011 
L 112.243631 -195.538011 
L 107.908909 -195.538011 
L 103.574188 -195.538011 
L 99.239466 -195.538011 
L 94.904745 -195.538011 
L 90.570023 -195.538011 
L 86.235302 -195.538011 
z
" id="mca4c7bf247" style="stroke:#36a2eb;stroke-opacity:0.5;"/>
    </defs>
    <g clip-path="url(#p7b155aae91)">
     <use style="fill:#36a2eb;fill-opacity:0.5;stroke:#36a2eb;stroke-opacity:0.5;" x="0" xlink:href="#mca4c7bf247" y="581.789375"/>
    </g>
   </g>
   <g id="line2d_1">
    <path clip-path="url(#p7b155aae91)" d="M 58.827273 386.144817 
L 63.383552 386.10464 
L 67.939831 386.050628 
L 72.49611 385.978521 
L 77.05239 385.882925 
L 81.608669 385.757074 
L 86.164948 385.592552 
L 90.721227 385.378983 
L 95.277506 385.1037 
L 99.833786 384.751377 
L 104.390065 384.303654 
L 108.946344 383.738754 
L 113.502623 383.031111 
L 118.058903 382.151032 
L 122.615182 381.064413 
L 127.171461 379.732539 
L 131.72774 378.111998 
L 136.284019 376.154746 
L 140.840299 373.808357 
L 145.396578 371.01649 
L 149.952857 367.719614 
L 154.509136 363.856001 
L 159.065416 359.363033 
L 163.621695 354.178801 
L 168.177974 348.244015 
L 172.734253 341.504195 
L 177.290532 333.912098 
L 181.846812 325.430333 
L 186.403091 316.034084 
L 190.95937 305.713833 
L 195.515649 294.477989 
L 200.071929 282.355282 
L 204.628208 269.396788 
L 209.184487 255.677471 
L 213.740766 241.297077 
L 218.297045 226.380303 
L 222.853325 211.076121 
L 227.409604 195.556199 
L 231.965883 180.012401 
L 236.522162 164.653367 
L 241.078442 149.700235 
L 245.634721 135.381612 
L 250.191 121.927937 
L 254.747279 109.565423 
L 259.303558 98.509793 
L 263.859838 88.960059 
L 268.416117 81.092573 
L 272.972396 75.055624 
L 277.528675 70.964786 
L 282.084954 68.899245 
L 286.641234 68.899245 
L 291.197513 70.964786 
L 295.753792 75.055624 
L 300.310071 81.092573 
L 304.866351 88.960059 
L 309.42263 98.509793 
L 313.978909 109.565423 
L 318.535188 121.927937 
L 323.091467 135.381612 
L 327.647747 149.700235 
L 332.204026 164.653367 
L 336.760305 180.012401 
L 341.316584 195.556199 
L 345.872864 211.076121 
L 350.429143 226.380303 
L 354.985422 241.297077 
L 359.541701 255.677471 
L 364.09798 269.396788 
L 368.65426 282.355282 
L 373.210539 294.477989 
L 377.766818 305.713833 
L 382.323097 316.034084 
L 386.879377 325.430333 
L 391.435656 333.912098 
L 395.991935 341.504195 
L 400.548214 348.244015 
L 405.104493 354.178801 
L 409.660773 359.363033 
L 414.217052 363.856001 
L 418.773331 367.719614 
L 423.32961 371.01649 
L 427.88589 373.808357 
L 432.442169 376.154746 
L 436.998448 378.111998 
L 441.554727 379.732539 
L 446.111006 381.064413 
L 450.667286 382.151032 
L 455.223565 383.031111 
L 459.779844 383.738754 
L 464.336123 384.303654 
L 468.892403 384.751377 
L 473.448682 385.1037 
L 478.004961 385.378983 
L 482.56124 385.592552 
L 487.117519 385.757074 
L 491.673799 385.882925 
L 496.230078 385.978521 
L 500.786357 386.050628 
L 505.342636 386.10464 
L 509.898915 386.144817 
" style="fill:none;stroke:#ff6384;stroke-linecap:square;"/>
   </g>
   <g id="line2d_2">
    <path clip-path="url(#p7b155aae91)" d="M 86.235302 386.139371 
L 90.570023 386.097141 
L 94.904745 386.040368 
L 99.239466 385.964575 
L 103.574188 385.864094 
L 107.908909 385.73181 
L 112.243631 385.558878 
L 116.578352 385.334393 
L 120.913074 385.04504 
L 125.247795 384.674709 
L 129.582517 384.204102 
L 133.917238 383.610328 
L 138.25196 382.866516 
L 142.586681 381.941454 
L 146.921403 380.799296 
L 151.256124 379.399346 
L 155.590845 377.695976 
L 159.925567 375.638684 
L 164.260288 373.172366 
L 168.59501 370.2378 
L 172.929731 366.772413 
L 177.264453 362.711322 
L 181.599174 357.988708 
L 185.933896 352.539497 
L 190.268617 346.301371 
L 194.603339 339.217063 
L 198.93806 331.236916 
L 203.272782 322.321628 
L 207.607503 312.445114 
L 211.942225 301.597371 
L 216.276946 289.787238 
L 220.611667 277.04491 
L 224.946389 263.424078 
L 229.28111 249.003534 
L 233.615832 233.888124 
L 237.950553 218.208919 
L 242.285275 202.122504 
L 246.619996 185.809323 
L 250.954718 169.471045 
L 255.289439 153.326975 
L 259.624161 137.609553 
L 263.958882 122.559072 
L 268.293604 108.417748 
L 272.628325 95.423357 
L 276.963047 83.802649 
L 281.297768 73.764805 
L 285.632489 65.495194 
L 289.967211 59.149682 
L 294.301932 54.849752 
L 298.636654 52.678636 
L 302.971375 52.678636 
L 307.306097 54.849752 
L 311.640818 59.149682 
L 315.97554 65.495194 
L 320.310261 73.764805 
L 324.644983 83.802649 
L 328.979704 95.423357 
L 333.314426 108.417748 
L 337.649147 122.559072 
L 341.983869 137.609553 
L 346.31859 153.326975 
L 350.653312 169.471045 
L 354.988033 185.809323 
L 359.322754 202.122504 
L 363.657476 218.208919 
L 367.992197 233.888124 
L 372.326919 249.003534 
L 376.66164 263.424078 
L 380.996362 277.04491 
L 385.331083 289.787238 
L 389.665805 301.597371 
L 394.000526 312.445114 
L 398.335248 322.321628 
L 402.669969 331.236916 
L 407.004691 339.217063 
L 411.339412 346.301371 
L 415.674134 352.539497 
L 420.008855 357.988708 
L 424.343576 362.711322 
L 428.678298 366.772413 
L 433.013019 370.2378 
L 437.347741 373.172366 
L 441.682462 375.638684 
L 446.017184 377.695976 
L 450.351905 379.399346 
L 454.686627 380.799296 
L 459.021348 381.941454 
L 463.35607 382.866516 
L 467.690791 383.610328 
L 472.025513 384.204102 
L 476.360234 384.674709 
L 480.694956 385.04504 
L 485.029677 385.334393 
L 489.364398 385.558878 
L 493.69912 385.73181 
L 498.033841 385.864094 
L 502.368563 385.964575 
L 506.703284 386.040368 
L 511.038006 386.097141 
L 515.372727 386.139371 
" style="fill:none;stroke:#36a2eb;stroke-linecap:square;"/>
   </g>
   <g id="patch_3">
    <path d="M 36 402.93 
L 538.2 402.93 
" style="fill:none;stroke:#000000;stroke-linecap:square;stroke-linejoin:miter;stroke-width:0.8;"/>
   </g>
   <g id="legend_1">
    <g id="patch_4">
     <path d="M 414.919063 88.29875 
L 528.4 88.29875 
Q 531.2 88.29875 531.2 85.49875 
L 531.2 45.8 
Q 531.2 43 528.4 43 
L 414.919063 43 
Q 412.119063 43 412.119063 45.8 
L 412.119063 85.49875 
Q 412.119063 88.29875 414.919063 88.29875 
z
" style="fill:#ffffff;opacity:0.8;stroke:#cccccc;stroke-linejoin:miter;"/>
    </g>
    <g id="patch_5">
     <path d="M 417.719063 59.237813 
L 445.719063 59.237813 
L 445.719063 49.437813 
L 417.719063 49.437813 
z
" style="fill:#ff6384;opacity:0.5;stroke:#ff6384;stroke-linejoin:miter;"/>
    </g>
    <g id="text_1">
     <!-- sidemenu -->
     <defs>
      <path d="M 44.28125 53.078125 
L 44.28125 44.578125 
Q 40.484375 46.53125 36.375 47.5 
Q 32.28125 48.484375 27.875 48.484375 
Q 21.1875 48.484375 17.84375 46.4375 
Q 14.5 44.390625 14.5 40.28125 
Q 14.5 37.15625 16.890625 35.375 
Q 19.28125 33.59375 26.515625 31.984375 
L 29.59375 31.296875 
Q 39.15625 29.25 43.1875 25.515625 
Q 47.21875 21.78125 47.21875 15.09375 
Q 47.21875 7.46875 41.1875 3.015625 
Q 35.15625 -1.421875 24.609375 -1.421875 
Q 20.21875 -1.421875 15.453125 -0.5625 
Q 10.6875 0.296875 5.421875 2 
L 5.421875 11.28125 
Q 10.40625 8.6875 15.234375 7.390625 
Q 20.0625 6.109375 24.8125 6.109375 
Q 31.15625 6.109375 34.5625 8.28125 
Q 37.984375 10.453125 37.984375 14.40625 
Q 37.984375 18.0625 35.515625 20.015625 
Q 33.0625 21.96875 24.703125 23.78125 
L 21.578125 24.515625 
Q 13.234375 26.265625 9.515625 29.90625 
Q 5.8125 33.546875 5.8125 39.890625 
Q 5.8125 47.609375 11.28125 51.796875 
Q 16.75 56 26.8125 56 
Q 31.78125 56 36.171875 55.265625 
Q 40.578125 54.546875 44.28125 53.078125 
z
" id="DejaVuSans-115"/>
      <path d="M 9.421875 54.6875 
L 18.40625 54.6875 
L 18.40625 0 
L 9.421875 0 
z
M 9.421875 75.984375 
L 18.40625 75.984375 
L 18.40625 64.59375 
L 9.421875 64.59375 
z
" id="DejaVuSans-105"/>
      <path d="M 45.40625 46.390625 
L 45.40625 75.984375 
L 54.390625 75.984375 
L 54.390625 0 
L 45.40625 0 
L 45.40625 8.203125 
Q 42.578125 3.328125 38.25 0.953125 
Q 33.9375 -1.421875 27.875 -1.421875 
Q 17.96875 -1.421875 11.734375 6.484375 
Q 5.515625 14.40625 5.515625 27.296875 
Q 5.515625 40.1875 11.734375 48.09375 
Q 17.96875 56 27.875 56 
Q 33.9375 56 38.25 53.625 
Q 42.578125 51.265625 45.40625 46.390625 
z
M 14.796875 27.296875 
Q 14.796875 17.390625 18.875 11.75 
Q 22.953125 6.109375 30.078125 6.109375 
Q 37.203125 6.109375 41.296875 11.75 
Q 45.40625 17.390625 45.40625 27.296875 
Q 45.40625 37.203125 41.296875 42.84375 
Q 37.203125 48.484375 30.078125 48.484375 
Q 22.953125 48.484375 18.875 42.84375 
Q 14.796875 37.203125 14.796875 27.296875 
z
" id="DejaVuSans-100"/>
      <path d="M 56.203125 29.59375 
L 56.203125 25.203125 
L 14.890625 25.203125 
Q 15.484375 15.921875 20.484375 11.0625 
Q 25.484375 6.203125 34.421875 6.203125 
Q 39.59375 6.203125 44.453125 7.46875 
Q 49.3125 8.734375 54.109375 11.28125 
L 54.109375 2.78125 
Q 49.265625 0.734375 44.1875 -0.34375 
Q 39.109375 -1.421875 33.890625 -1.421875 
Q 20.796875 -1.421875 13.15625 6.1875 
Q 5.515625 13.8125 5.515625 26.8125 
Q 5.515625 40.234375 12.765625 48.109375 
Q 20.015625 56 32.328125 56 
Q 43.359375 56 49.78125 48.890625 
Q 56.203125 41.796875 56.203125 29.59375 
z
M 47.21875 32.234375 
Q 47.125 39.59375 43.09375 43.984375 
Q 39.0625 48.390625 32.421875 48.390625 
Q 24.90625 48.390625 20.390625 44.140625 
Q 15.875 39.890625 15.1875 32.171875 
z
" id="DejaVuSans-101"/>
      <path d="M 52 44.1875 
Q 55.375 50.25 60.0625 53.125 
Q 64.75 56 71.09375 56 
Q 79.640625 56 84.28125 50.015625 
Q 88.921875 44.046875 88.921875 33.015625 
L 88.921875 0 
L 79.890625 0 
L 79.890625 32.71875 
Q 79.890625 40.578125 77.09375 44.375 
Q 74.3125 48.1875 68.609375 48.1875 
Q 61.625 48.1875 57.5625 43.546875 
Q 53.515625 38.921875 53.515625 30.90625 
L 53.515625 0 
L 44.484375 0 
L 44.484375 32.71875 
Q 44.484375 40.625 41.703125 44.40625 
Q 38.921875 48.1875 33.109375 48.1875 
Q 26.21875 48.1875 22.15625 43.53125 
Q 18.109375 38.875 18.109375 30.90625 
L 18.109375 0 
L 9.078125 0 
L 9.078125 54.6875 
L 18.109375 54.6875 
L 18.109375 46.1875 
Q 21.1875 51.21875 25.484375 53.609375 
Q 29.78125 56 35.6875 56 
Q 41.65625 56 45.828125 52.96875 
Q 50 49.953125 52 44.1875 
z
" id="DejaVuSans-109"/>
      <path d="M 54.890625 33.015625 
L 54.890625 0 
L 45.90625 0 
L 45.90625 32.71875 
Q 45.90625 40.484375 42.875 44.328125 
Q 39.84375 48.1875 33.796875 48.1875 
Q 26.515625 48.1875 22.3125 43.546875 
Q 18.109375 38.921875 18.109375 30.90625 
L 18.109375 0 
L 9.078125 0 
L 9.078125 54.6875 
L 18.109375 54.6875 
L 18.109375 46.1875 
Q 21.34375 51.125 25.703125 53.5625 
Q 30.078125 56 35.796875 56 
Q 45.21875 56 50.046875 50.171875 
Q 54.890625 44.34375 54.890625 33.015625 
z
" id="DejaVuSans-110"/>
      <path d="M 8.5 21.578125 
L 8.5 54.6875 
L 17.484375 54.6875 
L 17.484375 21.921875 
Q 17.484375 14.15625 20.5 10.265625 
Q 23.53125 6.390625 29.59375 6.390625 
Q 36.859375 6.390625 41.078125 11.03125 
Q 45.3125 15.671875 45.3125 23.6875 
L 45.3125 54.6875 
L 54.296875 54.6875 
L 54.296875 0 
L 45.3125 0 
L 45.3125 8.40625 
Q 42.046875 3.421875 37.71875 1 
Q 33.40625 -1.421875 27.6875 -1.421875 
Q 18.265625 -1.421875 13.375 4.4375 
Q 8.5 10.296875 8.5 21.578125 
z
M 31.109375 56 
z
" id="DejaVuSans-117"/>
     </defs>
     <g transform="translate(456.919063 59.237813)scale(0.14 -0.14)">
      <use xlink:href="#DejaVuSans-115"/>
      <use x="52.099609" xlink:href="#DejaVuSans-105"/>
      <use x="79.882812" xlink:href="#DejaVuSans-100"/>
      <use x="143.359375" xlink:href="#DejaVuSans-101"/>
      <use x="204.882812" xlink:href="#DejaVuSans-109"/>
      <use x="302.294922" xlink:href="#DejaVuSans-101"/>
      <use x="363.818359" xlink:href="#DejaVuSans-110"/>
      <use x="427.197266" xlink:href="#DejaVuSans-117"/>
     </g>
    </g>
    <g id="patch_6">
     <path d="M 417.719063 79.787188 
L 445.719063 79.787188 
L 445.719063 69.987188 
L 417.719063 69.987188 
z
" style="fill:#36a2eb;opacity:0.5;stroke:#36a2eb;stroke-linejoin:miter;"/>
    </g>
    <g id="text_2">
     <!-- tabbar -->
     <defs>
      <path d="M 18.3125 70.21875 
L 18.3125 54.6875 
L 36.8125 54.6875 
L 36.8125 47.703125 
L 18.3125 47.703125 
L 18.3125 18.015625 
Q 18.3125 11.328125 20.140625 9.421875 
Q 21.96875 7.515625 27.59375 7.515625 
L 36.8125 7.515625 
L 36.8125 0 
L 27.59375 0 
Q 17.1875 0 13.234375 3.875 
Q 9.28125 7.765625 9.28125 18.015625 
L 9.28125 47.703125 
L 2.6875 47.703125 
L 2.6875 54.6875 
L 9.28125 54.6875 
L 9.28125 70.21875 
z
" id="DejaVuSans-116"/>
      <path d="M 34.28125 27.484375 
Q 23.390625 27.484375 19.1875 25 
Q 14.984375 22.515625 14.984375 16.5 
Q 14.984375 11.71875 18.140625 8.90625 
Q 21.296875 6.109375 26.703125 6.109375 
Q 34.1875 6.109375 38.703125 11.40625 
Q 43.21875 16.703125 43.21875 25.484375 
L 43.21875 27.484375 
z
M 52.203125 31.203125 
L 52.203125 0 
L 43.21875 0 
L 43.21875 8.296875 
Q 40.140625 3.328125 35.546875 0.953125 
Q 30.953125 -1.421875 24.3125 -1.421875 
Q 15.921875 -1.421875 10.953125 3.296875 
Q 6 8.015625 6 15.921875 
Q 6 25.140625 12.171875 29.828125 
Q 18.359375 34.515625 30.609375 34.515625 
L 43.21875 34.515625 
L 43.21875 35.40625 
Q 43.21875 41.609375 39.140625 45 
Q 35.0625 48.390625 27.6875 48.390625 
Q 23 48.390625 18.546875 47.265625 
Q 14.109375 46.140625 10.015625 43.890625 
L 10.015625 52.203125 
Q 14.9375 54.109375 19.578125 55.046875 
Q 24.21875 56 28.609375 56 
Q 40.484375 56 46.34375 49.84375 
Q 52.203125 43.703125 52.203125 31.203125 
z
" id="DejaVuSans-97"/>
      <path d="M 48.6875 27.296875 
Q 48.6875 37.203125 44.609375 42.84375 
Q 40.53125 48.484375 33.40625 48.484375 
Q 26.265625 48.484375 22.1875 42.84375 
Q 18.109375 37.203125 18.109375 27.296875 
Q 18.109375 17.390625 22.1875 11.75 
Q 26.265625 6.109375 33.40625 6.109375 
Q 40.53125 6.109375 44.609375 11.75 
Q 48.6875 17.390625 48.6875 27.296875 
z
M 18.109375 46.390625 
Q 20.953125 51.265625 25.265625 53.625 
Q 29.59375 56 35.59375 56 
Q 45.5625 56 51.78125 48.09375 
Q 58.015625 40.1875 58.015625 27.296875 
Q 58.015625 14.40625 51.78125 6.484375 
Q 45.5625 -1.421875 35.59375 -1.421875 
Q 29.59375 -1.421875 25.265625 0.953125 
Q 20.953125 3.328125 18.109375 8.203125 
L 18.109375 0 
L 9.078125 0 
L 9.078125 75.984375 
L 18.109375 75.984375 
z
" id="DejaVuSans-98"/>
      <path d="M 41.109375 46.296875 
Q 39.59375 47.171875 37.8125 47.578125 
Q 36.03125 48 33.890625 48 
Q 26.265625 48 22.1875 43.046875 
Q 18.109375 38.09375 18.109375 28.8125 
L 18.109375 0 
L 9.078125 0 
L 9.078125 54.6875 
L 18.109375 54.6875 
L 18.109375 46.1875 
Q 20.953125 51.171875 25.484375 53.578125 
Q 30.03125 56 36.53125 56 
Q 37.453125 56 38.578125 55.875 
Q 39.703125 55.765625 41.0625 55.515625 
z
" id="DejaVuSans-114"/>
     </defs>
     <g transform="translate(456.919063 79.787188)scale(0.14 -0.14)">
      <use xlink:href="#DejaVuSans-116"/>
      <use x="39.208984" xlink:href="#DejaVuSans-97"/>
      <use x="100.488281" xlink:href="#DejaVuSans-98"/>
      <use x="163.964844" xlink:href="#DejaVuSans-98"/>
      <use x="227.441406" xlink:href="#DejaVuSans-97"/>
      <use x="288.720703" xlink:href="#DejaVuSans-114"/>
     </g>
    </g>
   </g>
  </g>
  <g id="axes_2">
   <g id="patch_7">
    <path d="M 36 525.24 
L 538.2 525.24 
L 538.2 402.93 
L 36 402.93 
z
" style="fill:none;"/>
   </g>
   <g id="patch_8">
    <path clip-path="url(#p2a82e29703)" d="M 173.850542 519.680455 
L 394.875647 519.680455 
L 394.875647 482.616818 
L 173.850542 482.616818 
z
" style="fill:#ff6384;opacity:0.5;"/>
   </g>
   <g id="patch_9">
    <path clip-path="url(#p2a82e29703)" d="M 195.665345 445.553182 
L 405.942684 445.553182 
L 405.942684 408.489545 
L 195.665345 408.489545 
z
" style="fill:#36a2eb;opacity:0.5;"/>
   </g>
   <g id="matplotlib.axis_1">
    <g id="xtick_1">
     <g id="line2d_3">
      <defs>
       <path d="M 0 0 
L 0 3.5 
" id="m090851a210" style="stroke:#000000;stroke-width:0.8;"/>
      </defs>
      <g>
       <use style="stroke:#000000;stroke-width:0.8;" x="65.15082" xlink:href="#m090851a210" y="525.24"/>
      </g>
     </g>
     <g id="text_3">
      <!-- 4.25 -->
      <defs>
       <path d="M 37.796875 64.3125 
L 12.890625 25.390625 
L 37.796875 25.390625 
z
M 35.203125 72.90625 
L 47.609375 72.90625 
L 47.609375 25.390625 
L 58.015625 25.390625 
L 58.015625 17.1875 
L 47.609375 17.1875 
L 47.609375 0 
L 37.796875 0 
L 37.796875 17.1875 
L 4.890625 17.1875 
L 4.890625 26.703125 
z
" id="DejaVuSans-52"/>
       <path d="M 10.6875 12.40625 
L 21 12.40625 
L 21 0 
L 10.6875 0 
z
" id="DejaVuSans-46"/>
       <path d="M 19.1875 8.296875 
L 53.609375 8.296875 
L 53.609375 0 
L 7.328125 0 
L 7.328125 8.296875 
Q 12.9375 14.109375 22.625 23.890625 
Q 32.328125 33.6875 34.8125 36.53125 
Q 39.546875 41.84375 41.421875 45.53125 
Q 43.3125 49.21875 43.3125 52.78125 
Q 43.3125 58.59375 39.234375 62.25 
Q 35.15625 65.921875 28.609375 65.921875 
Q 23.96875 65.921875 18.8125 64.3125 
Q 13.671875 62.703125 7.8125 59.421875 
L 7.8125 69.390625 
Q 13.765625 71.78125 18.9375 73 
Q 24.125 74.21875 28.421875 74.21875 
Q 39.75 74.21875 46.484375 68.546875 
Q 53.21875 62.890625 53.21875 53.421875 
Q 53.21875 48.921875 51.53125 44.890625 
Q 49.859375 40.875 45.40625 35.40625 
Q 44.1875 33.984375 37.640625 27.21875 
Q 31.109375 20.453125 19.1875 8.296875 
z
" id="DejaVuSans-50"/>
       <path d="M 10.796875 72.90625 
L 49.515625 72.90625 
L 49.515625 64.59375 
L 19.828125 64.59375 
L 19.828125 46.734375 
Q 21.96875 47.46875 24.109375 47.828125 
Q 26.265625 48.1875 28.421875 48.1875 
Q 40.625 48.1875 47.75 41.5 
Q 54.890625 34.8125 54.890625 23.390625 
Q 54.890625 11.625 47.5625 5.09375 
Q 40.234375 -1.421875 26.90625 -1.421875 
Q 22.3125 -1.421875 17.546875 -0.640625 
Q 12.796875 0.140625 7.71875 1.703125 
L 7.71875 11.625 
Q 12.109375 9.234375 16.796875 8.0625 
Q 21.484375 6.890625 26.703125 6.890625 
Q 35.15625 6.890625 40.078125 11.328125 
Q 45.015625 15.765625 45.015625 23.390625 
Q 45.015625 31 40.078125 35.4375 
Q 35.15625 39.890625 26.703125 39.890625 
Q 22.75 39.890625 18.8125 39.015625 
Q 14.890625 38.140625 10.796875 36.28125 
z
" id="DejaVuSans-53"/>
      </defs>
      <g transform="translate(49.564883 542.877813)scale(0.14 -0.14)">
       <use xlink:href="#DejaVuSans-52"/>
       <use x="63.623047" xlink:href="#DejaVuSans-46"/>
       <use x="95.410156" xlink:href="#DejaVuSans-50"/>
       <use x="159.033203" xlink:href="#DejaVuSans-53"/>
      </g>
     </g>
    </g>
    <g id="xtick_2">
     <g id="line2d_4">
      <g>
       <use style="stroke:#000000;stroke-width:0.8;" x="133.654656" xlink:href="#m090851a210" y="525.24"/>
      </g>
     </g>
     <g id="text_4">
      <!-- 4.50 -->
      <defs>
       <path d="M 31.78125 66.40625 
Q 24.171875 66.40625 20.328125 58.90625 
Q 16.5 51.421875 16.5 36.375 
Q 16.5 21.390625 20.328125 13.890625 
Q 24.171875 6.390625 31.78125 6.390625 
Q 39.453125 6.390625 43.28125 13.890625 
Q 47.125 21.390625 47.125 36.375 
Q 47.125 51.421875 43.28125 58.90625 
Q 39.453125 66.40625 31.78125 66.40625 
z
M 31.78125 74.21875 
Q 44.046875 74.21875 50.515625 64.515625 
Q 56.984375 54.828125 56.984375 36.375 
Q 56.984375 17.96875 50.515625 8.265625 
Q 44.046875 -1.421875 31.78125 -1.421875 
Q 19.53125 -1.421875 13.0625 8.265625 
Q 6.59375 17.96875 6.59375 36.375 
Q 6.59375 54.828125 13.0625 64.515625 
Q 19.53125 74.21875 31.78125 74.21875 
z
" id="DejaVuSans-48"/>
      </defs>
      <g transform="translate(118.068718 542.877813)scale(0.14 -0.14)">
       <use xlink:href="#DejaVuSans-52"/>
       <use x="63.623047" xlink:href="#DejaVuSans-46"/>
       <use x="95.410156" xlink:href="#DejaVuSans-53"/>
       <use x="159.033203" xlink:href="#DejaVuSans-48"/>
      </g>
     </g>
    </g>
    <g id="xtick_3">
     <g id="line2d_5">
      <g>
       <use style="stroke:#000000;stroke-width:0.8;" x="202.158491" xlink:href="#m090851a210" y="525.24"/>
      </g>
     </g>
     <g id="text_5">
      <!-- 4.75 -->
      <defs>
       <path d="M 8.203125 72.90625 
L 55.078125 72.90625 
L 55.078125 68.703125 
L 28.609375 0 
L 18.3125 0 
L 43.21875 64.59375 
L 8.203125 64.59375 
z
" id="DejaVuSans-55"/>
      </defs>
      <g transform="translate(186.572554 542.877813)scale(0.14 -0.14)">
       <use xlink:href="#DejaVuSans-52"/>
       <use x="63.623047" xlink:href="#DejaVuSans-46"/>
       <use x="95.410156" xlink:href="#DejaVuSans-55"/>
       <use x="159.033203" xlink:href="#DejaVuSans-53"/>
      </g>
     </g>
    </g>
    <g id="xtick_4">
     <g id="line2d_6">
      <g>
       <use style="stroke:#000000;stroke-width:0.8;" x="270.662327" xlink:href="#m090851a210" y="525.24"/>
      </g>
     </g>
     <g id="text_6">
      <!-- 5.00 -->
      <g transform="translate(255.07639 542.877813)scale(0.14 -0.14)">
       <use xlink:href="#DejaVuSans-53"/>
       <use x="63.623047" xlink:href="#DejaVuSans-46"/>
       <use x="95.410156" xlink:href="#DejaVuSans-48"/>
       <use x="159.033203" xlink:href="#DejaVuSans-48"/>
      </g>
     </g>
    </g>
    <g id="xtick_5">
     <g id="line2d_7">
      <g>
       <use style="stroke:#000000;stroke-width:0.8;" x="339.166163" xlink:href="#m090851a210" y="525.24"/>
      </g>
     </g>
     <g id="text_7">
      <!-- 5.25 -->
      <g transform="translate(323.580225 542.877813)scale(0.14 -0.14)">
       <use xlink:href="#DejaVuSans-53"/>
       <use x="63.623047" xlink:href="#DejaVuSans-46"/>
       <use x="95.410156" xlink:href="#DejaVuSans-50"/>
       <use x="159.033203" xlink:href="#DejaVuSans-53"/>
      </g>
     </g>
    </g>
    <g id="xtick_6">
     <g id="line2d_8">
      <g>
       <use style="stroke:#000000;stroke-width:0.8;" x="407.669998" xlink:href="#m090851a210" y="525.24"/>
      </g>
     </g>
     <g id="text_8">
      <!-- 5.50 -->
      <g transform="translate(392.084061 542.877813)scale(0.14 -0.14)">
       <use xlink:href="#DejaVuSans-53"/>
       <use x="63.623047" xlink:href="#DejaVuSans-46"/>
       <use x="95.410156" xlink:href="#DejaVuSans-53"/>
       <use x="159.033203" xlink:href="#DejaVuSans-48"/>
      </g>
     </g>
    </g>
    <g id="xtick_7">
     <g id="line2d_9">
      <g>
       <use style="stroke:#000000;stroke-width:0.8;" x="476.173834" xlink:href="#m090851a210" y="525.24"/>
      </g>
     </g>
     <g id="text_9">
      <!-- 5.75 -->
      <g transform="translate(460.587896 542.877813)scale(0.14 -0.14)">
       <use xlink:href="#DejaVuSans-53"/>
       <use x="63.623047" xlink:href="#DejaVuSans-46"/>
       <use x="95.410156" xlink:href="#DejaVuSans-55"/>
       <use x="159.033203" xlink:href="#DejaVuSans-53"/>
      </g>
     </g>
    </g>
   </g>
   <g id="line2d_10">
    <path clip-path="url(#p2a82e29703)" d="M 284.363094 525.24 
L 284.363094 402.93 
" style="fill:none;stroke:#ff6384;stroke-dasharray:5.55,2.4;stroke-dashoffset:0;stroke-opacity:0.8;stroke-width:1.5;"/>
   </g>
   <g id="line2d_11">
    <path clip-path="url(#p2a82e29703)" d="M 300.804015 525.24 
L 300.804015 402.93 
" style="fill:none;stroke:#36a2eb;stroke-dasharray:5.55,2.4;stroke-dashoffset:0;stroke-opacity:0.8;stroke-width:1.5;"/>
   </g>
   <g id="patch_10">
    <path d="M 36 525.24 
L 538.2 525.24 
" style="fill:none;stroke:#000000;stroke-linecap:square;stroke-linejoin:miter;stroke-width:0.8;"/>
   </g>
  </g>
 </g>
 <defs>
  <clipPath id="p7b155aae91">
   <rect height="366.93" width="502.2" x="36" y="36"/>
  </clipPath>
  <clipPath id="p2a82e29703">
   <rect height="122.31" width="502.2" x="36" y="402.93"/>
  </clipPath>
 </defs>
</svg>
