<?xml version="1.0" encoding="utf-8" standalone="no"?>
<!DOCTYPE svg PUBLIC "-//W3C//DTD SVG 1.1//EN"
  "http://www.w3.org/Graphics/SVG/1.1/DTD/svg11.dtd">
<!-- Created with matplotlib (https://matplotlib.org/) -->
<svg height="581.789375pt" version="1.1" viewBox="0 0 582.701758 581.789375" width="582.701758pt" xmlns="http://www.w3.org/2000/svg" xmlns:xlink="http://www.w3.org/1999/xlink">
 <defs>
  <style type="text/css">
*{stroke-linecap:butt;stroke-linejoin:round;}
  </style>
 </defs>
 <g id="figure_1">
  <g id="patch_1">
   <path d="M 0 581.789375 
L 582.701758 581.789375 
L 582.701758 0 
L 0 0 
z
" style="fill:none;"/>
  </g>
  <g id="axes_1">
   <g id="patch_2">
    <path d="M 42.103685 402.93 
L 544.303685 402.93 
L 544.303685 36 
L 42.103685 36 
z
" style="fill:none;"/>
   </g>
   <g id="PolyCollection_1">
    <defs>
     <path d="M 112.90822 -195.538011 
L 112.90822 -195.611564 
L 117.035171 -195.6393 
L 121.162123 -195.676586 
L 125.289074 -195.726364 
L 129.416026 -195.792357 
L 133.542977 -195.879237 
L 137.669929 -195.992813 
L 141.79688 -196.140247 
L 145.923831 -196.330285 
L 150.050783 -196.573506 
L 154.177734 -196.882585 
L 158.304686 -197.272556 
L 162.431637 -197.761067 
L 166.558589 -198.368617 
L 170.68554 -199.118748 
L 174.812492 -200.038188 
L 178.939443 -201.156906 
L 183.066394 -202.508066 
L 187.193346 -204.127862 
L 191.320297 -206.055187 
L 195.447249 -208.331139 
L 199.5742 -210.998328 
L 203.701152 -214.099984 
L 207.828103 -217.678844 
L 211.955055 -221.775838 
L 216.082006 -226.428576 
L 220.208957 -231.669672 
L 224.335909 -237.524936 
L 228.46286 -244.011502 
L 232.589812 -251.135939 
L 236.716763 -258.892442 
L 240.843715 -267.261179 
L 244.970666 -276.206889 
L 249.097617 -285.677823 
L 253.224569 -295.605121 
L 257.35152 -305.902702 
L 261.478472 -316.467725 
L 265.605423 -327.18168 
L 269.732375 -337.912117 
L 273.859326 -348.515006 
L 277.986278 -358.837686 
L 282.113229 -368.722342 
L 286.24018 -378.009893 
L 290.367132 -386.544177 
L 294.494083 -394.176272 
L 298.621035 -400.768794 
L 302.747986 -406.2 
L 306.874938 -410.367521 
L 311.001889 -413.191572 
L 315.12884 -414.617488 
L 319.255792 -414.617488 
L 323.382743 -413.191572 
L 327.509695 -410.367521 
L 331.636646 -406.2 
L 335.763598 -400.768794 
L 339.890549 -394.176272 
L 344.017501 -386.544177 
L 348.144452 -378.009893 
L 352.271403 -368.722342 
L 356.398355 -358.837686 
L 360.525306 -348.515006 
L 364.652258 -337.912117 
L 368.779209 -327.18168 
L 372.906161 -316.467725 
L 377.033112 -305.902702 
L 381.160064 -295.605121 
L 385.287015 -285.677823 
L 389.413966 -276.206889 
L 393.540918 -267.261179 
L 397.667869 -258.892442 
L 401.794821 -251.135939 
L 405.921772 -244.011502 
L 410.048724 -237.524936 
L 414.175675 -231.669672 
L 418.302626 -226.428576 
L 422.429578 -221.775838 
L 426.556529 -217.678844 
L 430.683481 -214.099984 
L 434.810432 -210.998328 
L 438.937384 -208.331139 
L 443.064335 -206.055187 
L 447.191287 -204.127862 
L 451.318238 -202.508066 
L 455.445189 -201.156906 
L 459.572141 -200.038188 
L 463.699092 -199.118748 
L 467.826044 -198.368617 
L 471.952995 -197.761067 
L 476.079947 -197.272556 
L 480.206898 -196.882585 
L 484.333849 -196.573506 
L 488.460801 -196.330285 
L 492.587752 -196.140247 
L 496.714704 -195.992813 
L 500.841655 -195.879237 
L 504.968607 -195.792357 
L 509.095558 -195.726364 
L 513.22251 -195.676586 
L 517.349461 -195.6393 
L 521.476412 -195.611564 
L 521.476412 -195.538011 
L 521.476412 -195.538011 
L 517.349461 -195.538011 
L 513.22251 -195.538011 
L 509.095558 -195.538011 
L 504.968607 -195.538011 
L 500.841655 -195.538011 
L 496.714704 -195.538011 
L 492.587752 -195.538011 
L 488.460801 -195.538011 
L 484.333849 -195.538011 
L 480.206898 -195.538011 
L 476.079947 -195.538011 
L 471.952995 -195.538011 
L 467.826044 -195.538011 
L 463.699092 -195.538011 
L 459.572141 -195.538011 
L 455.445189 -195.538011 
L 451.318238 -195.538011 
L 447.191287 -195.538011 
L 443.064335 -195.538011 
L 438.937384 -195.538011 
L 434.810432 -195.538011 
L 430.683481 -195.538011 
L 426.556529 -195.538011 
L 422.429578 -195.538011 
L 418.302626 -195.538011 
L 414.175675 -195.538011 
L 410.048724 -195.538011 
L 405.921772 -195.538011 
L 401.794821 -195.538011 
L 397.667869 -195.538011 
L 393.540918 -195.538011 
L 389.413966 -195.538011 
L 385.287015 -195.538011 
L 381.160064 -195.538011 
L 377.033112 -195.538011 
L 372.906161 -195.538011 
L 368.779209 -195.538011 
L 364.652258 -195.538011 
L 360.525306 -195.538011 
L 356.398355 -195.538011 
L 352.271403 -195.538011 
L 348.144452 -195.538011 
L 344.017501 -195.538011 
L 339.890549 -195.538011 
L 335.763598 -195.538011 
L 331.636646 -195.538011 
L 327.509695 -195.538011 
L 323.382743 -195.538011 
L 319.255792 -195.538011 
L 315.12884 -195.538011 
L 311.001889 -195.538011 
L 306.874938 -195.538011 
L 302.747986 -195.538011 
L 298.621035 -195.538011 
L 294.494083 -195.538011 
L 290.367132 -195.538011 
L 286.24018 -195.538011 
L 282.113229 -195.538011 
L 277.986278 -195.538011 
L 273.859326 -195.538011 
L 269.732375 -195.538011 
L 265.605423 -195.538011 
L 261.478472 -195.538011 
L 257.35152 -195.538011 
L 253.224569 -195.538011 
L 249.097617 -195.538011 
L 244.970666 -195.538011 
L 240.843715 -195.538011 
L 236.716763 -195.538011 
L 232.589812 -195.538011 
L 228.46286 -195.538011 
L 224.335909 -195.538011 
L 220.208957 -195.538011 
L 216.082006 -195.538011 
L 211.955055 -195.538011 
L 207.828103 -195.538011 
L 203.701152 -195.538011 
L 199.5742 -195.538011 
L 195.447249 -195.538011 
L 191.320297 -195.538011 
L 187.193346 -195.538011 
L 183.066394 -195.538011 
L 178.939443 -195.538011 
L 174.812492 -195.538011 
L 170.68554 -195.538011 
L 166.558589 -195.538011 
L 162.431637 -195.538011 
L 158.304686 -195.538011 
L 154.177734 -195.538011 
L 150.050783 -195.538011 
L 145.923831 -195.538011 
L 141.79688 -195.538011 
L 137.669929 -195.538011 
L 133.542977 -195.538011 
L 129.416026 -195.538011 
L 125.289074 -195.538011 
L 121.162123 -195.538011 
L 117.035171 -195.538011 
L 112.90822 -195.538011 
z
" id="mcd27c3f59d" style="stroke:#ff6384;stroke-opacity:0.5;"/>
    </defs>
    <g clip-path="url(#p771e7c7d3d)">
     <use style="fill:#ff6384;fill-opacity:0.5;stroke:#ff6384;stroke-opacity:0.5;" x="0" xlink:href="#mcd27c3f59d" y="581.789375"/>
    </g>
   </g>
   <g id="PolyCollection_2">
    <defs>
     <path d="M 64.930958 -195.538011 
L 64.930958 -195.650004 
L 67.641402 -195.692234 
L 70.351847 -195.749007 
L 73.062291 -195.8248 
L 75.772736 -195.925281 
L 78.48318 -196.057565 
L 81.193625 -196.230497 
L 83.904069 -196.454982 
L 86.614514 -196.744335 
L 89.324958 -197.114666 
L 92.035403 -197.585273 
L 94.745847 -198.179047 
L 97.456292 -198.922859 
L 100.166736 -199.847921 
L 102.877181 -200.990079 
L 105.587625 -202.390029 
L 108.29807 -204.093399 
L 111.008514 -206.150691 
L 113.718959 -208.617009 
L 116.429403 -211.551575 
L 119.139848 -215.016962 
L 121.850292 -219.078053 
L 124.560737 -223.800667 
L 127.271181 -229.249878 
L 129.981626 -235.488004 
L 132.69207 -242.572312 
L 135.402515 -250.552459 
L 138.112959 -259.467747 
L 140.823404 -269.344261 
L 143.533848 -280.192004 
L 146.244293 -292.002137 
L 148.954737 -304.744465 
L 151.665182 -318.365297 
L 154.375626 -332.785841 
L 157.086071 -347.901251 
L 159.796515 -363.580456 
L 162.50696 -379.666871 
L 165.217404 -395.980052 
L 167.927849 -412.31833 
L 170.638293 -428.4624 
L 173.348738 -444.179822 
L 176.059182 -459.230303 
L 178.769627 -473.371627 
L 181.480071 -486.366018 
L 184.190516 -497.986726 
L 186.90096 -508.02457 
L 189.611405 -516.294181 
L 192.321849 -522.639693 
L 195.032294 -526.939623 
L 197.742738 -529.110739 
L 200.453183 -529.110739 
L 203.163627 -526.939623 
L 205.874072 -522.639693 
L 208.584516 -516.294181 
L 211.294961 -508.02457 
L 214.005405 -497.986726 
L 216.71585 -486.366018 
L 219.426294 -473.371627 
L 222.136739 -459.230303 
L 224.847183 -444.179822 
L 227.557628 -428.4624 
L 230.268072 -412.31833 
L 232.978517 -395.980052 
L 235.688961 -379.666871 
L 238.399406 -363.580456 
L 241.10985 -347.901251 
L 243.820295 -332.785841 
L 246.530739 -318.365297 
L 249.241184 -304.744465 
L 251.951628 -292.002137 
L 254.662073 -280.192004 
L 257.372517 -269.344261 
L 260.082962 -259.467747 
L 262.793406 -250.552459 
L 265.503851 -242.572312 
L 268.214295 -235.488004 
L 270.92474 -229.249878 
L 273.635184 -223.800667 
L 276.345629 -219.078053 
L 279.056073 -215.016962 
L 281.766518 -211.551575 
L 284.476962 -208.617009 
L 287.187407 -206.150691 
L 289.897851 -204.093399 
L 292.608296 -202.390029 
L 295.31874 -200.990079 
L 298.029185 -199.847921 
L 300.739629 -198.922859 
L 303.450074 -198.179047 
L 306.160518 -197.585273 
L 308.870963 -197.114666 
L 311.581407 -196.744335 
L 314.291852 -196.454982 
L 317.002296 -196.230497 
L 319.712741 -196.057565 
L 322.423185 -195.925281 
L 325.13363 -195.8248 
L 327.844074 -195.749007 
L 330.554519 -195.692234 
L 333.264963 -195.650004 
L 333.264963 -195.538011 
L 333.264963 -195.538011 
L 330.554519 -195.538011 
L 327.844074 -195.538011 
L 325.13363 -195.538011 
L 322.423185 -195.538011 
L 319.712741 -195.538011 
L 317.002296 -195.538011 
L 314.291852 -195.538011 
L 311.581407 -195.538011 
L 308.870963 -195.538011 
L 306.160518 -195.538011 
L 303.450074 -195.538011 
L 300.739629 -195.538011 
L 298.029185 -195.538011 
L 295.31874 -195.538011 
L 292.608296 -195.538011 
L 289.897851 -195.538011 
L 287.187407 -195.538011 
L 284.476962 -195.538011 
L 281.766518 -195.538011 
L 279.056073 -195.538011 
L 276.345629 -195.538011 
L 273.635184 -195.538011 
L 270.92474 -195.538011 
L 268.214295 -195.538011 
L 265.503851 -195.538011 
L 262.793406 -195.538011 
L 260.082962 -195.538011 
L 257.372517 -195.538011 
L 254.662073 -195.538011 
L 251.951628 -195.538011 
L 249.241184 -195.538011 
L 246.530739 -195.538011 
L 243.820295 -195.538011 
L 241.10985 -195.538011 
L 238.399406 -195.538011 
L 235.688961 -195.538011 
L 232.978517 -195.538011 
L 230.268072 -195.538011 
L 227.557628 -195.538011 
L 224.847183 -195.538011 
L 222.136739 -195.538011 
L 219.426294 -195.538011 
L 216.71585 -195.538011 
L 214.005405 -195.538011 
L 211.294961 -195.538011 
L 208.584516 -195.538011 
L 205.874072 -195.538011 
L 203.163627 -195.538011 
L 200.453183 -195.538011 
L 197.742738 -195.538011 
L 195.032294 -195.538011 
L 192.321849 -195.538011 
L 189.611405 -195.538011 
L 186.90096 -195.538011 
L 184.190516 -195.538011 
L 181.480071 -195.538011 
L 178.769627 -195.538011 
L 176.059182 -195.538011 
L 173.348738 -195.538011 
L 170.638293 -195.538011 
L 167.927849 -195.538011 
L 165.217404 -195.538011 
L 162.50696 -195.538011 
L 159.796515 -195.538011 
L 157.086071 -195.538011 
L 154.375626 -195.538011 
L 151.665182 -195.538011 
L 148.954737 -195.538011 
L 146.244293 -195.538011 
L 143.533848 -195.538011 
L 140.823404 -195.538011 
L 138.112959 -195.538011 
L 135.402515 -195.538011 
L 132.69207 -195.538011 
L 129.981626 -195.538011 
L 127.271181 -195.538011 
L 124.560737 -195.538011 
L 121.850292 -195.538011 
L 119.139848 -195.538011 
L 116.429403 -195.538011 
L 113.718959 -195.538011 
L 111.008514 -195.538011 
L 108.29807 -195.538011 
L 105.587625 -195.538011 
L 102.877181 -195.538011 
L 100.166736 -195.538011 
L 97.456292 -195.538011 
L 94.745847 -195.538011 
L 92.035403 -195.538011 
L 89.324958 -195.538011 
L 86.614514 -195.538011 
L 83.904069 -195.538011 
L 81.193625 -195.538011 
L 78.48318 -195.538011 
L 75.772736 -195.538011 
L 73.062291 -195.538011 
L 70.351847 -195.538011 
L 67.641402 -195.538011 
L 64.930958 -195.538011 
z
" id="m58d2397420" style="stroke:#36a2eb;stroke-opacity:0.5;"/>
    </defs>
    <g clip-path="url(#p771e7c7d3d)">
     <use style="fill:#36a2eb;fill-opacity:0.5;stroke:#36a2eb;stroke-opacity:0.5;" x="0" xlink:href="#m58d2397420" y="581.789375"/>
    </g>
   </g>
   <g id="line2d_1">
    <path clip-path="url(#p771e7c7d3d)" d="M 112.90822 386.177811 
L 117.035171 386.150075 
L 121.162123 386.112789 
L 125.289074 386.063011 
L 129.416026 385.997018 
L 133.542977 385.910138 
L 137.669929 385.796562 
L 141.79688 385.649128 
L 145.923831 385.45909 
L 150.050783 385.215869 
L 154.177734 384.90679 
L 158.304686 384.516819 
L 162.431637 384.028308 
L 166.558589 383.420758 
L 170.68554 382.670627 
L 174.812492 381.751187 
L 178.939443 380.632469 
L 183.066394 379.281309 
L 187.193346 377.661513 
L 191.320297 375.734188 
L 195.447249 373.458236 
L 199.5742 370.791047 
L 203.701152 367.689391 
L 207.828103 364.110531 
L 211.955055 360.013537 
L 216.082006 355.360799 
L 220.208957 350.119703 
L 224.335909 344.264439 
L 228.46286 337.777873 
L 232.589812 330.653436 
L 236.716763 322.896933 
L 240.843715 314.528196 
L 244.970666 305.582486 
L 249.097617 296.111552 
L 253.224569 286.184254 
L 257.35152 275.886673 
L 261.478472 265.32165 
L 265.605423 254.607695 
L 269.732375 243.877258 
L 273.859326 233.274369 
L 277.986278 222.951689 
L 282.113229 213.067033 
L 286.24018 203.779482 
L 290.367132 195.245198 
L 294.494083 187.613103 
L 298.621035 181.020581 
L 302.747986 175.589375 
L 306.874938 171.421854 
L 311.001889 168.597803 
L 315.12884 167.171887 
L 319.255792 167.171887 
L 323.382743 168.597803 
L 327.509695 171.421854 
L 331.636646 175.589375 
L 335.763598 181.020581 
L 339.890549 187.613103 
L 344.017501 195.245198 
L 348.144452 203.779482 
L 352.271403 213.067033 
L 356.398355 222.951689 
L 360.525306 233.274369 
L 364.652258 243.877258 
L 368.779209 254.607695 
L 372.906161 265.32165 
L 377.033112 275.886673 
L 381.160064 286.184254 
L 385.287015 296.111552 
L 389.413966 305.582486 
L 393.540918 314.528196 
L 397.667869 322.896933 
L 401.794821 330.653436 
L 405.921772 337.777873 
L 410.048724 344.264439 
L 414.175675 350.119703 
L 418.302626 355.360799 
L 422.429578 360.013537 
L 426.556529 364.110531 
L 430.683481 367.689391 
L 434.810432 370.791047 
L 438.937384 373.458236 
L 443.064335 375.734188 
L 447.191287 377.661513 
L 451.318238 379.281309 
L 455.445189 380.632469 
L 459.572141 381.751187 
L 463.699092 382.670627 
L 467.826044 383.420758 
L 471.952995 384.028308 
L 476.079947 384.516819 
L 480.206898 384.90679 
L 484.333849 385.215869 
L 488.460801 385.45909 
L 492.587752 385.649128 
L 496.714704 385.796562 
L 500.841655 385.910138 
L 504.968607 385.997018 
L 509.095558 386.063011 
L 513.22251 386.112789 
L 517.349461 386.150075 
L 521.476412 386.177811 
" style="fill:none;stroke:#ff6384;stroke-linecap:square;"/>
   </g>
   <g id="line2d_2">
    <path clip-path="url(#p771e7c7d3d)" d="M 64.930958 386.139371 
L 67.641402 386.097141 
L 70.351847 386.040368 
L 73.062291 385.964575 
L 75.772736 385.864094 
L 78.48318 385.73181 
L 81.193625 385.558878 
L 83.904069 385.334393 
L 86.614514 385.04504 
L 89.324958 384.674709 
L 92.035403 384.204102 
L 94.745847 383.610328 
L 97.456292 382.866516 
L 100.166736 381.941454 
L 102.877181 380.799296 
L 105.587625 379.399346 
L 108.29807 377.695976 
L 111.008514 375.638684 
L 113.718959 373.172366 
L 116.429403 370.2378 
L 119.139848 366.772413 
L 121.850292 362.711322 
L 124.560737 357.988708 
L 127.271181 352.539497 
L 129.981626 346.301371 
L 132.69207 339.217063 
L 135.402515 331.236916 
L 138.112959 322.321628 
L 140.823404 312.445114 
L 143.533848 301.597371 
L 146.244293 289.787238 
L 148.954737 277.04491 
L 151.665182 263.424078 
L 154.375626 249.003534 
L 157.086071 233.888124 
L 159.796515 218.208919 
L 162.50696 202.122504 
L 165.217404 185.809323 
L 167.927849 169.471045 
L 170.638293 153.326975 
L 173.348738 137.609553 
L 176.059182 122.559072 
L 178.769627 108.417748 
L 181.480071 95.423357 
L 184.190516 83.802649 
L 186.90096 73.764805 
L 189.611405 65.495194 
L 192.321849 59.149682 
L 195.032294 54.849752 
L 197.742738 52.678636 
L 200.453183 52.678636 
L 203.163627 54.849752 
L 205.874072 59.149682 
L 208.584516 65.495194 
L 211.294961 73.764805 
L 214.005405 83.802649 
L 216.71585 95.423357 
L 219.426294 108.417748 
L 222.136739 122.559072 
L 224.847183 137.609553 
L 227.557628 153.326975 
L 230.268072 169.471045 
L 232.978517 185.809323 
L 235.688961 202.122504 
L 238.399406 218.208919 
L 241.10985 233.888124 
L 243.820295 249.003534 
L 246.530739 263.424078 
L 249.241184 277.04491 
L 251.951628 289.787238 
L 254.662073 301.597371 
L 257.372517 312.445114 
L 260.082962 322.321628 
L 262.793406 331.236916 
L 265.503851 339.217063 
L 268.214295 346.301371 
L 270.92474 352.539497 
L 273.635184 357.988708 
L 276.345629 362.711322 
L 279.056073 366.772413 
L 281.766518 370.2378 
L 284.476962 373.172366 
L 287.187407 375.638684 
L 289.897851 377.695976 
L 292.608296 379.399346 
L 295.31874 380.799296 
L 298.029185 381.941454 
L 300.739629 382.866516 
L 303.450074 383.610328 
L 306.160518 384.204102 
L 308.870963 384.674709 
L 311.581407 385.04504 
L 314.291852 385.334393 
L 317.002296 385.558878 
L 319.712741 385.73181 
L 322.423185 385.864094 
L 325.13363 385.964575 
L 327.844074 386.040368 
L 330.554519 386.097141 
L 333.264963 386.139371 
" style="fill:none;stroke:#36a2eb;stroke-linecap:square;"/>
   </g>
   <g id="patch_3">
    <path d="M 42.103685 402.93 
L 544.303685 402.93 
" style="fill:none;stroke:#000000;stroke-linecap:square;stroke-linejoin:miter;stroke-width:0.8;"/>
   </g>
   <g id="legend_1">
    <g id="patch_4">
     <path d="M 456.328998 88.29875 
L 534.503685 88.29875 
Q 537.303685 88.29875 537.303685 85.49875 
L 537.303685 45.8 
Q 537.303685 43 534.503685 43 
L 456.328998 43 
Q 453.528998 43 453.528998 45.8 
L 453.528998 85.49875 
Q 453.528998 88.29875 456.328998 88.29875 
z
" style="fill:#ffffff;opacity:0.8;stroke:#cccccc;stroke-linejoin:miter;"/>
    </g>
    <g id="patch_5">
     <path d="M 459.128998 59.237813 
L 487.128998 59.237813 
L 487.128998 49.437813 
L 459.128998 49.437813 
z
" style="fill:#ff6384;opacity:0.5;stroke:#ff6384;stroke-linejoin:miter;"/>
    </g>
    <g id="text_1">
     <!-- base -->
     <defs>
      <path d="M 48.6875 27.296875 
Q 48.6875 37.203125 44.609375 42.84375 
Q 40.53125 48.484375 33.40625 48.484375 
Q 26.265625 48.484375 22.1875 42.84375 
Q 18.109375 37.203125 18.109375 27.296875 
Q 18.109375 17.390625 22.1875 11.75 
Q 26.265625 6.109375 33.40625 6.109375 
Q 40.53125 6.109375 44.609375 11.75 
Q 48.6875 17.390625 48.6875 27.296875 
z
M 18.109375 46.390625 
Q 20.953125 51.265625 25.265625 53.625 
Q 29.59375 56 35.59375 56 
Q 45.5625 56 51.78125 48.09375 
Q 58.015625 40.1875 58.015625 27.296875 
Q 58.015625 14.40625 51.78125 6.484375 
Q 45.5625 -1.421875 35.59375 -1.421875 
Q 29.59375 -1.421875 25.265625 0.953125 
Q 20.953125 3.328125 18.109375 8.203125 
L 18.109375 0 
L 9.078125 0 
L 9.078125 75.984375 
L 18.109375 75.984375 
z
" id="DejaVuSans-98"/>
      <path d="M 34.28125 27.484375 
Q 23.390625 27.484375 19.1875 25 
Q 14.984375 22.515625 14.984375 16.5 
Q 14.984375 11.71875 18.140625 8.90625 
Q 21.296875 6.109375 26.703125 6.109375 
Q 34.1875 6.109375 38.703125 11.40625 
Q 43.21875 16.703125 43.21875 25.484375 
L 43.21875 27.484375 
z
M 52.203125 31.203125 
L 52.203125 0 
L 43.21875 0 
L 43.21875 8.296875 
Q 40.140625 3.328125 35.546875 0.953125 
Q 30.953125 -1.421875 24.3125 -1.421875 
Q 15.921875 -1.421875 10.953125 3.296875 
Q 6 8.015625 6 15.921875 
Q 6 25.140625 12.171875 29.828125 
Q 18.359375 34.515625 30.609375 34.515625 
L 43.21875 34.515625 
L 43.21875 35.40625 
Q 43.21875 41.609375 39.140625 45 
Q 35.0625 48.390625 27.6875 48.390625 
Q 23 48.390625 18.546875 47.265625 
Q 14.109375 46.140625 10.015625 43.890625 
L 10.015625 52.203125 
Q 14.9375 54.109375 19.578125 55.046875 
Q 24.21875 56 28.609375 56 
Q 40.484375 56 46.34375 49.84375 
Q 52.203125 43.703125 52.203125 31.203125 
z
" id="DejaVuSans-97"/>
      <path d="M 44.28125 53.078125 
L 44.28125 44.578125 
Q 40.484375 46.53125 36.375 47.5 
Q 32.28125 48.484375 27.875 48.484375 
Q 21.1875 48.484375 17.84375 46.4375 
Q 14.5 44.390625 14.5 40.28125 
Q 14.5 37.15625 16.890625 35.375 
Q 19.28125 33.59375 26.515625 31.984375 
L 29.59375 31.296875 
Q 39.15625 29.25 43.1875 25.515625 
Q 47.21875 21.78125 47.21875 15.09375 
Q 47.21875 7.46875 41.1875 3.015625 
Q 35.15625 -1.421875 24.609375 -1.421875 
Q 20.21875 -1.421875 15.453125 -0.5625 
Q 10.6875 0.296875 5.421875 2 
L 5.421875 11.28125 
Q 10.40625 8.6875 15.234375 7.390625 
Q 20.0625 6.109375 24.8125 6.109375 
Q 31.15625 6.109375 34.5625 8.28125 
Q 37.984375 10.453125 37.984375 14.40625 
Q 37.984375 18.0625 35.515625 20.015625 
Q 33.0625 21.96875 24.703125 23.78125 
L 21.578125 24.515625 
Q 13.234375 26.265625 9.515625 29.90625 
Q 5.8125 33.546875 5.8125 39.890625 
Q 5.8125 47.609375 11.28125 51.796875 
Q 16.75 56 26.8125 56 
Q 31.78125 56 36.171875 55.265625 
Q 40.578125 54.546875 44.28125 53.078125 
z
" id="DejaVuSans-115"/>
      <path d="M 56.203125 29.59375 
L 56.203125 25.203125 
L 14.890625 25.203125 
Q 15.484375 15.921875 20.484375 11.0625 
Q 25.484375 6.203125 34.421875 6.203125 
Q 39.59375 6.203125 44.453125 7.46875 
Q 49.3125 8.734375 54.109375 11.28125 
L 54.109375 2.78125 
Q 49.265625 0.734375 44.1875 -0.34375 
Q 39.109375 -1.421875 33.890625 -1.421875 
Q 20.796875 -1.421875 13.15625 6.1875 
Q 5.515625 13.8125 5.515625 26.8125 
Q 5.515625 40.234375 12.765625 48.109375 
Q 20.015625 56 32.328125 56 
Q 43.359375 56 49.78125 48.890625 
Q 56.203125 41.796875 56.203125 29.59375 
z
M 47.21875 32.234375 
Q 47.125 39.59375 43.09375 43.984375 
Q 39.0625 48.390625 32.421875 48.390625 
Q 24.90625 48.390625 20.390625 44.140625 
Q 15.875 39.890625 15.1875 32.171875 
z
" id="DejaVuSans-101"/>
     </defs>
     <g transform="translate(498.328998 59.237813)scale(0.14 -0.14)">
      <use xlink:href="#DejaVuSans-98"/>
      <use x="63.476562" xlink:href="#DejaVuSans-97"/>
      <use x="124.755859" xlink:href="#DejaVuSans-115"/>
      <use x="176.855469" xlink:href="#DejaVuSans-101"/>
     </g>
    </g>
    <g id="patch_6">
     <path d="M 459.128998 79.787188 
L 487.128998 79.787188 
L 487.128998 69.987188 
L 459.128998 69.987188 
z
" style="fill:#36a2eb;opacity:0.5;stroke:#36a2eb;stroke-linejoin:miter;"/>
    </g>
    <g id="text_2">
     <!-- new -->
     <defs>
      <path d="M 54.890625 33.015625 
L 54.890625 0 
L 45.90625 0 
L 45.90625 32.71875 
Q 45.90625 40.484375 42.875 44.328125 
Q 39.84375 48.1875 33.796875 48.1875 
Q 26.515625 48.1875 22.3125 43.546875 
Q 18.109375 38.921875 18.109375 30.90625 
L 18.109375 0 
L 9.078125 0 
L 9.078125 54.6875 
L 18.109375 54.6875 
L 18.109375 46.1875 
Q 21.34375 51.125 25.703125 53.5625 
Q 30.078125 56 35.796875 56 
Q 45.21875 56 50.046875 50.171875 
Q 54.890625 44.34375 54.890625 33.015625 
z
" id="DejaVuSans-110"/>
      <path d="M 4.203125 54.6875 
L 13.1875 54.6875 
L 24.421875 12.015625 
L 35.59375 54.6875 
L 46.1875 54.6875 
L 57.421875 12.015625 
L 68.609375 54.6875 
L 77.59375 54.6875 
L 63.28125 0 
L 52.6875 0 
L 40.921875 44.828125 
L 29.109375 0 
L 18.5 0 
z
" id="DejaVuSans-119"/>
     </defs>
     <g transform="translate(498.328998 79.787188)scale(0.14 -0.14)">
      <use xlink:href="#DejaVuSans-110"/>
      <use x="63.378906" xlink:href="#DejaVuSans-101"/>
      <use x="124.902344" xlink:href="#DejaVuSans-119"/>
     </g>
    </g>
   </g>
  </g>
  <g id="axes_2">
   <g id="patch_7">
    <path d="M 42.103685 525.24 
L 544.303685 525.24 
L 544.303685 402.93 
L 42.103685 402.93 
z
" style="fill:none;"/>
   </g>
   <g id="patch_8">
    <path clip-path="url(#p22b74cf107)" d="M 217.093109 519.680455 
L 417.291523 519.680455 
L 417.291523 482.616818 
L 217.093109 482.616818 
z
" style="fill:#ff6384;opacity:0.5;"/>
   </g>
   <g id="patch_9">
    <path clip-path="url(#p22b74cf107)" d="M 133.356129 445.553182 
L 264.839792 445.553182 
L 264.839792 408.489545 
L 133.356129 408.489545 
z
" style="fill:#36a2eb;opacity:0.5;"/>
   </g>
   <g id="matplotlib.axis_1">
    <g id="xtick_1">
     <g id="line2d_3">
      <defs>
       <path d="M 0 0 
L 0 3.5 
" id="m722fbea253" style="stroke:#000000;stroke-width:0.8;"/>
      </defs>
      <g>
       <use style="stroke:#000000;stroke-width:0.8;" x="46.319531" xlink:href="#m722fbea253" y="525.24"/>
      </g>
     </g>
     <g id="text_3">
      <!-- −5 -->
      <defs>
       <path d="M 10.59375 35.5 
L 73.1875 35.5 
L 73.1875 27.203125 
L 10.59375 27.203125 
z
" id="DejaVuSans-8722"/>
       <path d="M 10.796875 72.90625 
L 49.515625 72.90625 
L 49.515625 64.59375 
L 19.828125 64.59375 
L 19.828125 46.734375 
Q 21.96875 47.46875 24.109375 47.828125 
Q 26.265625 48.1875 28.421875 48.1875 
Q 40.625 48.1875 47.75 41.5 
Q 54.890625 34.8125 54.890625 23.390625 
Q 54.890625 11.625 47.5625 5.09375 
Q 40.234375 -1.421875 26.90625 -1.421875 
Q 22.3125 -1.421875 17.546875 -0.640625 
Q 12.796875 0.140625 7.71875 1.703125 
L 7.71875 11.625 
Q 12.109375 9.234375 16.796875 8.0625 
Q 21.484375 6.890625 26.703125 6.890625 
Q 35.15625 6.890625 40.078125 11.328125 
Q 45.015625 15.765625 45.015625 23.390625 
Q 45.015625 31 40.078125 35.4375 
Q 35.15625 39.890625 26.703125 39.890625 
Q 22.75 39.890625 18.8125 39.015625 
Q 14.890625 38.140625 10.796875 36.28125 
z
" id="DejaVuSans-53"/>
      </defs>
      <g transform="translate(36 542.877813)scale(0.14 -0.14)">
       <use xlink:href="#DejaVuSans-8722"/>
       <use x="83.789062" xlink:href="#DejaVuSans-53"/>
      </g>
     </g>
    </g>
    <g id="xtick_2">
     <g id="line2d_4">
      <g>
       <use style="stroke:#000000;stroke-width:0.8;" x="116.530206" xlink:href="#m722fbea253" y="525.24"/>
      </g>
     </g>
     <g id="text_4">
      <!-- 0 -->
      <defs>
       <path d="M 31.78125 66.40625 
Q 24.171875 66.40625 20.328125 58.90625 
Q 16.5 51.421875 16.5 36.375 
Q 16.5 21.390625 20.328125 13.890625 
Q 24.171875 6.390625 31.78125 6.390625 
Q 39.453125 6.390625 43.28125 13.890625 
Q 47.125 21.390625 47.125 36.375 
Q 47.125 51.421875 43.28125 58.90625 
Q 39.453125 66.40625 31.78125 66.40625 
z
M 31.78125 74.21875 
Q 44.046875 74.21875 50.515625 64.515625 
Q 56.984375 54.828125 56.984375 36.375 
Q 56.984375 17.96875 50.515625 8.265625 
Q 44.046875 -1.421875 31.78125 -1.421875 
Q 19.53125 -1.421875 13.0625 8.265625 
Q 6.59375 17.96875 6.59375 36.375 
Q 6.59375 54.828125 13.0625 64.515625 
Q 19.53125 74.21875 31.78125 74.21875 
z
" id="DejaVuSans-48"/>
      </defs>
      <g transform="translate(112.076456 542.877813)scale(0.14 -0.14)">
       <use xlink:href="#DejaVuSans-48"/>
      </g>
     </g>
    </g>
    <g id="xtick_3">
     <g id="line2d_5">
      <g>
       <use style="stroke:#000000;stroke-width:0.8;" x="186.740882" xlink:href="#m722fbea253" y="525.24"/>
      </g>
     </g>
     <g id="text_5">
      <!-- 5 -->
      <g transform="translate(182.287132 542.877813)scale(0.14 -0.14)">
       <use xlink:href="#DejaVuSans-53"/>
      </g>
     </g>
    </g>
    <g id="xtick_4">
     <g id="line2d_6">
      <g>
       <use style="stroke:#000000;stroke-width:0.8;" x="256.951557" xlink:href="#m722fbea253" y="525.24"/>
      </g>
     </g>
     <g id="text_6">
      <!-- 10 -->
      <defs>
       <path d="M 12.40625 8.296875 
L 28.515625 8.296875 
L 28.515625 63.921875 
L 10.984375 60.40625 
L 10.984375 69.390625 
L 28.421875 72.90625 
L 38.28125 72.90625 
L 38.28125 8.296875 
L 54.390625 8.296875 
L 54.390625 0 
L 12.40625 0 
z
" id="DejaVuSans-49"/>
      </defs>
      <g transform="translate(248.044057 542.877813)scale(0.14 -0.14)">
       <use xlink:href="#DejaVuSans-49"/>
       <use x="63.623047" xlink:href="#DejaVuSans-48"/>
      </g>
     </g>
    </g>
    <g id="xtick_5">
     <g id="line2d_7">
      <g>
       <use style="stroke:#000000;stroke-width:0.8;" x="327.162232" xlink:href="#m722fbea253" y="525.24"/>
      </g>
     </g>
     <g id="text_7">
      <!-- 15 -->
      <g transform="translate(318.254732 542.877813)scale(0.14 -0.14)">
       <use xlink:href="#DejaVuSans-49"/>
       <use x="63.623047" xlink:href="#DejaVuSans-53"/>
      </g>
     </g>
    </g>
    <g id="xtick_6">
     <g id="line2d_8">
      <g>
       <use style="stroke:#000000;stroke-width:0.8;" x="397.372907" xlink:href="#m722fbea253" y="525.24"/>
      </g>
     </g>
     <g id="text_8">
      <!-- 20 -->
      <defs>
       <path d="M 19.1875 8.296875 
L 53.609375 8.296875 
L 53.609375 0 
L 7.328125 0 
L 7.328125 8.296875 
Q 12.9375 14.109375 22.625 23.890625 
Q 32.328125 33.6875 34.8125 36.53125 
Q 39.546875 41.84375 41.421875 45.53125 
Q 43.3125 49.21875 43.3125 52.78125 
Q 43.3125 58.59375 39.234375 62.25 
Q 35.15625 65.921875 28.609375 65.921875 
Q 23.96875 65.921875 18.8125 64.3125 
Q 13.671875 62.703125 7.8125 59.421875 
L 7.8125 69.390625 
Q 13.765625 71.78125 18.9375 73 
Q 24.125 74.21875 28.421875 74.21875 
Q 39.75 74.21875 46.484375 68.546875 
Q 53.21875 62.890625 53.21875 53.421875 
Q 53.21875 48.921875 51.53125 44.890625 
Q 49.859375 40.875 45.40625 35.40625 
Q 44.1875 33.984375 37.640625 27.21875 
Q 31.109375 20.453125 19.1875 8.296875 
z
" id="DejaVuSans-50"/>
      </defs>
      <g transform="translate(388.465407 542.877813)scale(0.14 -0.14)">
       <use xlink:href="#DejaVuSans-50"/>
       <use x="63.623047" xlink:href="#DejaVuSans-48"/>
      </g>
     </g>
    </g>
    <g id="xtick_7">
     <g id="line2d_9">
      <g>
       <use style="stroke:#000000;stroke-width:0.8;" x="467.583583" xlink:href="#m722fbea253" y="525.24"/>
      </g>
     </g>
     <g id="text_9">
      <!-- 25 -->
      <g transform="translate(458.676083 542.877813)scale(0.14 -0.14)">
       <use xlink:href="#DejaVuSans-50"/>
       <use x="63.623047" xlink:href="#DejaVuSans-53"/>
      </g>
     </g>
    </g>
    <g id="xtick_8">
     <g id="line2d_10">
      <g>
       <use style="stroke:#000000;stroke-width:0.8;" x="537.794258" xlink:href="#m722fbea253" y="525.24"/>
      </g>
     </g>
     <g id="text_10">
      <!-- 30 -->
      <defs>
       <path d="M 40.578125 39.3125 
Q 47.65625 37.796875 51.625 33 
Q 55.609375 28.21875 55.609375 21.1875 
Q 55.609375 10.40625 48.1875 4.484375 
Q 40.765625 -1.421875 27.09375 -1.421875 
Q 22.515625 -1.421875 17.65625 -0.515625 
Q 12.796875 0.390625 7.625 2.203125 
L 7.625 11.71875 
Q 11.71875 9.328125 16.59375 8.109375 
Q 21.484375 6.890625 26.8125 6.890625 
Q 36.078125 6.890625 40.9375 10.546875 
Q 45.796875 14.203125 45.796875 21.1875 
Q 45.796875 27.640625 41.28125 31.265625 
Q 36.765625 34.90625 28.71875 34.90625 
L 20.21875 34.90625 
L 20.21875 43.015625 
L 29.109375 43.015625 
Q 36.375 43.015625 40.234375 45.921875 
Q 44.09375 48.828125 44.09375 54.296875 
Q 44.09375 59.90625 40.109375 62.90625 
Q 36.140625 65.921875 28.71875 65.921875 
Q 24.65625 65.921875 20.015625 65.03125 
Q 15.375 64.15625 9.8125 62.3125 
L 9.8125 71.09375 
Q 15.4375 72.65625 20.34375 73.4375 
Q 25.25 74.21875 29.59375 74.21875 
Q 40.828125 74.21875 47.359375 69.109375 
Q 53.90625 64.015625 53.90625 55.328125 
Q 53.90625 49.265625 50.4375 45.09375 
Q 46.96875 40.921875 40.578125 39.3125 
z
" id="DejaVuSans-51"/>
      </defs>
      <g transform="translate(528.886758 542.877813)scale(0.14 -0.14)">
       <use xlink:href="#DejaVuSans-51"/>
       <use x="63.623047" xlink:href="#DejaVuSans-48"/>
      </g>
     </g>
    </g>
   </g>
   <g id="line2d_11">
    <path clip-path="url(#p22b74cf107)" d="M 317.192316 525.24 
L 317.192316 402.93 
" style="fill:none;stroke:#ff6384;stroke-dasharray:5.55,2.4;stroke-dashoffset:0;stroke-opacity:0.8;stroke-width:1.5;"/>
   </g>
   <g id="line2d_12">
    <path clip-path="url(#p22b74cf107)" d="M 199.097961 525.24 
L 199.097961 402.93 
" style="fill:none;stroke:#36a2eb;stroke-dasharray:5.55,2.4;stroke-dashoffset:0;stroke-opacity:0.8;stroke-width:1.5;"/>
   </g>
   <g id="patch_10">
    <path d="M 42.103685 525.24 
L 544.303685 525.24 
" style="fill:none;stroke:#000000;stroke-linecap:square;stroke-linejoin:miter;stroke-width:0.8;"/>
   </g>
  </g>
 </g>
 <defs>
  <clipPath id="p771e7c7d3d">
   <rect height="366.93" width="502.2" x="42.103685" y="36"/>
  </clipPath>
  <clipPath id="p22b74cf107">
   <rect height="122.31" width="502.2" x="42.103685" y="402.93"/>
  </clipPath>
 </defs>
</svg>
