<?xml version="1.0" encoding="utf-8" standalone="no"?>
<!DOCTYPE svg PUBLIC "-//W3C//DTD SVG 1.1//EN"
  "http://www.w3.org/Graphics/SVG/1.1/DTD/svg11.dtd">
<!-- Created with matplotlib (https://matplotlib.org/) -->
<svg height="581.789375pt" version="1.1" viewBox="0 0 574.2 581.789375" width="574.2pt" xmlns="http://www.w3.org/2000/svg" xmlns:xlink="http://www.w3.org/1999/xlink">
 <defs>
  <style type="text/css">
*{stroke-linecap:butt;stroke-linejoin:round;}
  </style>
 </defs>
 <g id="figure_1">
  <g id="patch_1">
   <path d="M 0 581.789375 
L 574.2 581.789375 
L 574.2 0 
L 0 0 
z
" style="fill:none;"/>
  </g>
  <g id="axes_1">
   <g id="patch_2">
    <path d="M 36 402.93 
L 538.2 402.93 
L 538.2 36 
L 36 36 
z
" style="fill:none;"/>
   </g>
   <g id="PolyCollection_1">
    <defs>
     <path d="M 72.829807 -195.538011 
L 72.829807 -195.623172 
L 77.299938 -195.655285 
L 81.770068 -195.698456 
L 86.240199 -195.75609 
L 90.710329 -195.832497 
L 95.18046 -195.933088 
L 99.65059 -196.064588 
L 104.120721 -196.235289 
L 108.590851 -196.455318 
L 113.060982 -196.736923 
L 117.531112 -197.09478 
L 122.001243 -197.546295 
L 126.471373 -198.111901 
L 130.941504 -198.815332 
L 135.411634 -199.683847 
L 139.881765 -200.748389 
L 144.351895 -202.043658 
L 148.822026 -203.608054 
L 153.292156 -205.48348 
L 157.762287 -207.714968 
L 162.232417 -210.350102 
L 166.702548 -213.438217 
L 171.172678 -217.029365 
L 175.642809 -221.173027 
L 180.112939 -225.916593 
L 184.58307 -231.303609 
L 189.0532 -237.371834 
L 193.523331 -244.151155 
L 197.993461 -251.661406 
L 202.463592 -259.910195 
L 206.933722 -268.8908 
L 211.403853 -278.58026 
L 215.873983 -288.937748 
L 220.344114 -299.903349 
L 224.814244 -311.397336 
L 229.284375 -323.320042 
L 233.754505 -335.552397 
L 238.224636 -347.957188 
L 242.694766 -360.381063 
L 247.164897 -372.657259 
L 251.635027 -384.609026 
L 256.105158 -396.053641 
L 260.575288 -406.806918 
L 265.045419 -416.688051 
L 269.515549 -425.524615 
L 273.98568 -433.157543 
L 278.45581 -439.445882 
L 282.925941 -444.271106 
L 287.396071 -447.540838 
L 291.866202 -449.191787 
L 296.336332 -449.191787 
L 300.806463 -447.540838 
L 305.276593 -444.271106 
L 309.746724 -439.445882 
L 314.216854 -433.157543 
L 318.686985 -425.524615 
L 323.157115 -416.688051 
L 327.627246 -406.806918 
L 332.097376 -396.053641 
L 336.567507 -384.609026 
L 341.037637 -372.657259 
L 345.507768 -360.381063 
L 349.977899 -347.957188 
L 354.448029 -335.552397 
L 358.91816 -323.320042 
L 363.38829 -311.397336 
L 367.858421 -299.903349 
L 372.328551 -288.937748 
L 376.798682 -278.58026 
L 381.268812 -268.8908 
L 385.738943 -259.910195 
L 390.209073 -251.661406 
L 394.679204 -244.151155 
L 399.149334 -237.371834 
L 403.619465 -231.303609 
L 408.089595 -225.916593 
L 412.559726 -221.173027 
L 417.029856 -217.029365 
L 421.499987 -213.438217 
L 425.970117 -210.350102 
L 430.440248 -207.714968 
L 434.910378 -205.48348 
L 439.380509 -203.608054 
L 443.850639 -202.043658 
L 448.32077 -200.748389 
L 452.7909 -199.683847 
L 457.261031 -198.815332 
L 461.731161 -198.111901 
L 466.201292 -197.546295 
L 470.671422 -197.09478 
L 475.141553 -196.736923 
L 479.611683 -196.455318 
L 484.081814 -196.235289 
L 488.551944 -196.064588 
L 493.022075 -195.933088 
L 497.492205 -195.832497 
L 501.962336 -195.75609 
L 506.432466 -195.698456 
L 510.902597 -195.655285 
L 515.372727 -195.623172 
L 515.372727 -195.538011 
L 515.372727 -195.538011 
L 510.902597 -195.538011 
L 506.432466 -195.538011 
L 501.962336 -195.538011 
L 497.492205 -195.538011 
L 493.022075 -195.538011 
L 488.551944 -195.538011 
L 484.081814 -195.538011 
L 479.611683 -195.538011 
L 475.141553 -195.538011 
L 470.671422 -195.538011 
L 466.201292 -195.538011 
L 461.731161 -195.538011 
L 457.261031 -195.538011 
L 452.7909 -195.538011 
L 448.32077 -195.538011 
L 443.850639 -195.538011 
L 439.380509 -195.538011 
L 434.910378 -195.538011 
L 430.440248 -195.538011 
L 425.970117 -195.538011 
L 421.499987 -195.538011 
L 417.029856 -195.538011 
L 412.559726 -195.538011 
L 408.089595 -195.538011 
L 403.619465 -195.538011 
L 399.149334 -195.538011 
L 394.679204 -195.538011 
L 390.209073 -195.538011 
L 385.738943 -195.538011 
L 381.268812 -195.538011 
L 376.798682 -195.538011 
L 372.328551 -195.538011 
L 367.858421 -195.538011 
L 363.38829 -195.538011 
L 358.91816 -195.538011 
L 354.448029 -195.538011 
L 349.977899 -195.538011 
L 345.507768 -195.538011 
L 341.037637 -195.538011 
L 336.567507 -195.538011 
L 332.097376 -195.538011 
L 327.627246 -195.538011 
L 323.157115 -195.538011 
L 318.686985 -195.538011 
L 314.216854 -195.538011 
L 309.746724 -195.538011 
L 305.276593 -195.538011 
L 300.806463 -195.538011 
L 296.336332 -195.538011 
L 291.866202 -195.538011 
L 287.396071 -195.538011 
L 282.925941 -195.538011 
L 278.45581 -195.538011 
L 273.98568 -195.538011 
L 269.515549 -195.538011 
L 265.045419 -195.538011 
L 260.575288 -195.538011 
L 256.105158 -195.538011 
L 251.635027 -195.538011 
L 247.164897 -195.538011 
L 242.694766 -195.538011 
L 238.224636 -195.538011 
L 233.754505 -195.538011 
L 229.284375 -195.538011 
L 224.814244 -195.538011 
L 220.344114 -195.538011 
L 215.873983 -195.538011 
L 211.403853 -195.538011 
L 206.933722 -195.538011 
L 202.463592 -195.538011 
L 197.993461 -195.538011 
L 193.523331 -195.538011 
L 189.0532 -195.538011 
L 184.58307 -195.538011 
L 180.112939 -195.538011 
L 175.642809 -195.538011 
L 171.172678 -195.538011 
L 166.702548 -195.538011 
L 162.232417 -195.538011 
L 157.762287 -195.538011 
L 153.292156 -195.538011 
L 148.822026 -195.538011 
L 144.351895 -195.538011 
L 139.881765 -195.538011 
L 135.411634 -195.538011 
L 130.941504 -195.538011 
L 126.471373 -195.538011 
L 122.001243 -195.538011 
L 117.531112 -195.538011 
L 113.060982 -195.538011 
L 108.590851 -195.538011 
L 104.120721 -195.538011 
L 99.65059 -195.538011 
L 95.18046 -195.538011 
L 90.710329 -195.538011 
L 86.240199 -195.538011 
L 81.770068 -195.538011 
L 77.299938 -195.538011 
L 72.829807 -195.538011 
z
" id="m3163183714" style="stroke:#ff6384;stroke-opacity:0.5;"/>
    </defs>
    <g clip-path="url(#p954b2e7276)">
     <use style="fill:#ff6384;fill-opacity:0.5;stroke:#ff6384;stroke-opacity:0.5;" x="0" xlink:href="#m3163183714" y="581.789375"/>
    </g>
   </g>
   <g id="PolyCollection_2">
    <defs>
     <path d="M 58.827273 -195.538011 
L 58.827273 -195.650004 
L 62.226428 -195.692234 
L 65.625583 -195.749007 
L 69.024738 -195.8248 
L 72.423894 -195.925281 
L 75.823049 -196.057565 
L 79.222204 -196.230497 
L 82.621359 -196.454982 
L 86.020515 -196.744335 
L 89.41967 -197.114666 
L 92.818825 -197.585273 
L 96.21798 -198.179047 
L 99.617136 -198.922859 
L 103.016291 -199.847921 
L 106.415446 -200.990079 
L 109.814601 -202.390029 
L 113.213756 -204.093399 
L 116.612912 -206.150691 
L 120.012067 -208.617009 
L 123.411222 -211.551575 
L 126.810377 -215.016962 
L 130.209533 -219.078053 
L 133.608688 -223.800667 
L 137.007843 -229.249878 
L 140.406998 -235.488004 
L 143.806154 -242.572312 
L 147.205309 -250.552459 
L 150.604464 -259.467747 
L 154.003619 -269.344261 
L 157.402774 -280.192004 
L 160.80193 -292.002137 
L 164.201085 -304.744465 
L 167.60024 -318.365297 
L 170.999395 -332.785841 
L 174.398551 -347.901251 
L 177.797706 -363.580456 
L 181.196861 -379.666871 
L 184.596016 -395.980052 
L 187.995172 -412.31833 
L 191.394327 -428.4624 
L 194.793482 -444.179822 
L 198.192637 -459.230303 
L 201.591792 -473.371627 
L 204.990948 -486.366018 
L 208.390103 -497.986726 
L 211.789258 -508.02457 
L 215.188413 -516.294181 
L 218.587569 -522.639693 
L 221.986724 -526.939623 
L 225.385879 -529.110739 
L 228.785034 -529.110739 
L 232.18419 -526.939623 
L 235.583345 -522.639693 
L 238.9825 -516.294181 
L 242.381655 -508.02457 
L 245.78081 -497.986726 
L 249.179966 -486.366018 
L 252.579121 -473.371627 
L 255.978276 -459.230303 
L 259.377431 -444.179822 
L 262.776587 -428.4624 
L 266.175742 -412.31833 
L 269.574897 -395.980052 
L 272.974052 -379.666871 
L 276.373208 -363.580456 
L 279.772363 -347.901251 
L 283.171518 -332.785841 
L 286.570673 -318.365297 
L 289.969828 -304.744465 
L 293.368984 -292.002137 
L 296.768139 -280.192004 
L 300.167294 -269.344261 
L 303.566449 -259.467747 
L 306.965605 -250.552459 
L 310.36476 -242.572312 
L 313.763915 -235.488004 
L 317.16307 -229.249878 
L 320.562226 -223.800667 
L 323.961381 -219.078053 
L 327.360536 -215.016962 
L 330.759691 -211.551575 
L 334.158846 -208.617009 
L 337.558002 -206.150691 
L 340.957157 -204.093399 
L 344.356312 -202.390029 
L 347.755467 -200.990079 
L 351.154623 -199.847921 
L 354.553778 -198.922859 
L 357.952933 -198.179047 
L 361.352088 -197.585273 
L 364.751244 -197.114666 
L 368.150399 -196.744335 
L 371.549554 -196.454982 
L 374.948709 -196.230497 
L 378.347864 -196.057565 
L 381.74702 -195.925281 
L 385.146175 -195.8248 
L 388.54533 -195.749007 
L 391.944485 -195.692234 
L 395.343641 -195.650004 
L 395.343641 -195.538011 
L 395.343641 -195.538011 
L 391.944485 -195.538011 
L 388.54533 -195.538011 
L 385.146175 -195.538011 
L 381.74702 -195.538011 
L 378.347864 -195.538011 
L 374.948709 -195.538011 
L 371.549554 -195.538011 
L 368.150399 -195.538011 
L 364.751244 -195.538011 
L 361.352088 -195.538011 
L 357.952933 -195.538011 
L 354.553778 -195.538011 
L 351.154623 -195.538011 
L 347.755467 -195.538011 
L 344.356312 -195.538011 
L 340.957157 -195.538011 
L 337.558002 -195.538011 
L 334.158846 -195.538011 
L 330.759691 -195.538011 
L 327.360536 -195.538011 
L 323.961381 -195.538011 
L 320.562226 -195.538011 
L 317.16307 -195.538011 
L 313.763915 -195.538011 
L 310.36476 -195.538011 
L 306.965605 -195.538011 
L 303.566449 -195.538011 
L 300.167294 -195.538011 
L 296.768139 -195.538011 
L 293.368984 -195.538011 
L 289.969828 -195.538011 
L 286.570673 -195.538011 
L 283.171518 -195.538011 
L 279.772363 -195.538011 
L 276.373208 -195.538011 
L 272.974052 -195.538011 
L 269.574897 -195.538011 
L 266.175742 -195.538011 
L 262.776587 -195.538011 
L 259.377431 -195.538011 
L 255.978276 -195.538011 
L 252.579121 -195.538011 
L 249.179966 -195.538011 
L 245.78081 -195.538011 
L 242.381655 -195.538011 
L 238.9825 -195.538011 
L 235.583345 -195.538011 
L 232.18419 -195.538011 
L 228.785034 -195.538011 
L 225.385879 -195.538011 
L 221.986724 -195.538011 
L 218.587569 -195.538011 
L 215.188413 -195.538011 
L 211.789258 -195.538011 
L 208.390103 -195.538011 
L 204.990948 -195.538011 
L 201.591792 -195.538011 
L 198.192637 -195.538011 
L 194.793482 -195.538011 
L 191.394327 -195.538011 
L 187.995172 -195.538011 
L 184.596016 -195.538011 
L 181.196861 -195.538011 
L 177.797706 -195.538011 
L 174.398551 -195.538011 
L 170.999395 -195.538011 
L 167.60024 -195.538011 
L 164.201085 -195.538011 
L 160.80193 -195.538011 
L 157.402774 -195.538011 
L 154.003619 -195.538011 
L 150.604464 -195.538011 
L 147.205309 -195.538011 
L 143.806154 -195.538011 
L 140.406998 -195.538011 
L 137.007843 -195.538011 
L 133.608688 -195.538011 
L 130.209533 -195.538011 
L 126.810377 -195.538011 
L 123.411222 -195.538011 
L 120.012067 -195.538011 
L 116.612912 -195.538011 
L 113.213756 -195.538011 
L 109.814601 -195.538011 
L 106.415446 -195.538011 
L 103.016291 -195.538011 
L 99.617136 -195.538011 
L 96.21798 -195.538011 
L 92.818825 -195.538011 
L 89.41967 -195.538011 
L 86.020515 -195.538011 
L 82.621359 -195.538011 
L 79.222204 -195.538011 
L 75.823049 -195.538011 
L 72.423894 -195.538011 
L 69.024738 -195.538011 
L 65.625583 -195.538011 
L 62.226428 -195.538011 
L 58.827273 -195.538011 
z
" id="m84c30f423c" style="stroke:#36a2eb;stroke-opacity:0.5;"/>
    </defs>
    <g clip-path="url(#p954b2e7276)">
     <use style="fill:#36a2eb;fill-opacity:0.5;stroke:#36a2eb;stroke-opacity:0.5;" x="0" xlink:href="#m84c30f423c" y="581.789375"/>
    </g>
   </g>
   <g id="line2d_1">
    <path clip-path="url(#p954b2e7276)" d="M 72.829807 386.166203 
L 77.299938 386.13409 
L 81.770068 386.090919 
L 86.240199 386.033285 
L 90.710329 385.956878 
L 95.18046 385.856287 
L 99.65059 385.724787 
L 104.120721 385.554086 
L 108.590851 385.334057 
L 113.060982 385.052452 
L 117.531112 384.694595 
L 122.001243 384.24308 
L 126.471373 383.677474 
L 130.941504 382.974043 
L 135.411634 382.105528 
L 139.881765 381.040986 
L 144.351895 379.745717 
L 148.822026 378.181321 
L 153.292156 376.305895 
L 157.762287 374.074407 
L 162.232417 371.439273 
L 166.702548 368.351158 
L 171.172678 364.76001 
L 175.642809 360.616348 
L 180.112939 355.872782 
L 184.58307 350.485766 
L 189.0532 344.417541 
L 193.523331 337.63822 
L 197.993461 330.127969 
L 202.463592 321.87918 
L 206.933722 312.898575 
L 211.403853 303.209115 
L 215.873983 292.851627 
L 220.344114 281.886026 
L 224.814244 270.392039 
L 229.284375 258.469333 
L 233.754505 246.236978 
L 238.224636 233.832187 
L 242.694766 221.408312 
L 247.164897 209.132116 
L 251.635027 197.180349 
L 256.105158 185.735734 
L 260.575288 174.982457 
L 265.045419 165.101324 
L 269.515549 156.26476 
L 273.98568 148.631832 
L 278.45581 142.343493 
L 282.925941 137.518269 
L 287.396071 134.248537 
L 291.866202 132.597588 
L 296.336332 132.597588 
L 300.806463 134.248537 
L 305.276593 137.518269 
L 309.746724 142.343493 
L 314.216854 148.631832 
L 318.686985 156.26476 
L 323.157115 165.101324 
L 327.627246 174.982457 
L 332.097376 185.735734 
L 336.567507 197.180349 
L 341.037637 209.132116 
L 345.507768 221.408312 
L 349.977899 233.832187 
L 354.448029 246.236978 
L 358.91816 258.469333 
L 363.38829 270.392039 
L 367.858421 281.886026 
L 372.328551 292.851627 
L 376.798682 303.209115 
L 381.268812 312.898575 
L 385.738943 321.87918 
L 390.209073 330.127969 
L 394.679204 337.63822 
L 399.149334 344.417541 
L 403.619465 350.485766 
L 408.089595 355.872782 
L 412.559726 360.616348 
L 417.029856 364.76001 
L 421.499987 368.351158 
L 425.970117 371.439273 
L 430.440248 374.074407 
L 434.910378 376.305895 
L 439.380509 378.181321 
L 443.850639 379.745717 
L 448.32077 381.040986 
L 452.7909 382.105528 
L 457.261031 382.974043 
L 461.731161 383.677474 
L 466.201292 384.24308 
L 470.671422 384.694595 
L 475.141553 385.052452 
L 479.611683 385.334057 
L 484.081814 385.554086 
L 488.551944 385.724787 
L 493.022075 385.856287 
L 497.492205 385.956878 
L 501.962336 386.033285 
L 506.432466 386.090919 
L 510.902597 386.13409 
L 515.372727 386.166203 
" style="fill:none;stroke:#ff6384;stroke-linecap:square;"/>
   </g>
   <g id="line2d_2">
    <path clip-path="url(#p954b2e7276)" d="M 58.827273 386.139371 
L 62.226428 386.097141 
L 65.625583 386.040368 
L 69.024738 385.964575 
L 72.423894 385.864094 
L 75.823049 385.73181 
L 79.222204 385.558878 
L 82.621359 385.334393 
L 86.020515 385.04504 
L 89.41967 384.674709 
L 92.818825 384.204102 
L 96.21798 383.610328 
L 99.617136 382.866516 
L 103.016291 381.941454 
L 106.415446 380.799296 
L 109.814601 379.399346 
L 113.213756 377.695976 
L 116.612912 375.638684 
L 120.012067 373.172366 
L 123.411222 370.2378 
L 126.810377 366.772413 
L 130.209533 362.711322 
L 133.608688 357.988708 
L 137.007843 352.539497 
L 140.406998 346.301371 
L 143.806154 339.217063 
L 147.205309 331.236916 
L 150.604464 322.321628 
L 154.003619 312.445114 
L 157.402774 301.597371 
L 160.80193 289.787238 
L 164.201085 277.04491 
L 167.60024 263.424078 
L 170.999395 249.003534 
L 174.398551 233.888124 
L 177.797706 218.208919 
L 181.196861 202.122504 
L 184.596016 185.809323 
L 187.995172 169.471045 
L 191.394327 153.326975 
L 194.793482 137.609553 
L 198.192637 122.559072 
L 201.591792 108.417748 
L 204.990948 95.423357 
L 208.390103 83.802649 
L 211.789258 73.764805 
L 215.188413 65.495194 
L 218.587569 59.149682 
L 221.986724 54.849752 
L 225.385879 52.678636 
L 228.785034 52.678636 
L 232.18419 54.849752 
L 235.583345 59.149682 
L 238.9825 65.495194 
L 242.381655 73.764805 
L 245.78081 83.802649 
L 249.179966 95.423357 
L 252.579121 108.417748 
L 255.978276 122.559072 
L 259.377431 137.609553 
L 262.776587 153.326975 
L 266.175742 169.471045 
L 269.574897 185.809323 
L 272.974052 202.122504 
L 276.373208 218.208919 
L 279.772363 233.888124 
L 283.171518 249.003534 
L 286.570673 263.424078 
L 289.969828 277.04491 
L 293.368984 289.787238 
L 296.768139 301.597371 
L 300.167294 312.445114 
L 303.566449 322.321628 
L 306.965605 331.236916 
L 310.36476 339.217063 
L 313.763915 346.301371 
L 317.16307 352.539497 
L 320.562226 357.988708 
L 323.961381 362.711322 
L 327.360536 366.772413 
L 330.759691 370.2378 
L 334.158846 373.172366 
L 337.558002 375.638684 
L 340.957157 377.695976 
L 344.356312 379.399346 
L 347.755467 380.799296 
L 351.154623 381.941454 
L 354.553778 382.866516 
L 357.952933 383.610328 
L 361.352088 384.204102 
L 364.751244 384.674709 
L 368.150399 385.04504 
L 371.549554 385.334393 
L 374.948709 385.558878 
L 378.347864 385.73181 
L 381.74702 385.864094 
L 385.146175 385.964575 
L 388.54533 386.040368 
L 391.944485 386.097141 
L 395.343641 386.139371 
" style="fill:none;stroke:#36a2eb;stroke-linecap:square;"/>
   </g>
   <g id="patch_3">
    <path d="M 36 402.93 
L 538.2 402.93 
" style="fill:none;stroke:#000000;stroke-linecap:square;stroke-linejoin:miter;stroke-width:0.8;"/>
   </g>
   <g id="legend_1">
    <g id="patch_4">
     <path d="M 450.225313 88.29875 
L 528.4 88.29875 
Q 531.2 88.29875 531.2 85.49875 
L 531.2 45.8 
Q 531.2 43 528.4 43 
L 450.225313 43 
Q 447.425313 43 447.425313 45.8 
L 447.425313 85.49875 
Q 447.425313 88.29875 450.225313 88.29875 
z
" style="fill:#ffffff;opacity:0.8;stroke:#cccccc;stroke-linejoin:miter;"/>
    </g>
    <g id="patch_5">
     <path d="M 453.025313 59.237813 
L 481.025313 59.237813 
L 481.025313 49.437813 
L 453.025313 49.437813 
z
" style="fill:#ff6384;opacity:0.5;stroke:#ff6384;stroke-linejoin:miter;"/>
    </g>
    <g id="text_1">
     <!-- base -->
     <defs>
      <path d="M 48.6875 27.296875 
Q 48.6875 37.203125 44.609375 42.84375 
Q 40.53125 48.484375 33.40625 48.484375 
Q 26.265625 48.484375 22.1875 42.84375 
Q 18.109375 37.203125 18.109375 27.296875 
Q 18.109375 17.390625 22.1875 11.75 
Q 26.265625 6.109375 33.40625 6.109375 
Q 40.53125 6.109375 44.609375 11.75 
Q 48.6875 17.390625 48.6875 27.296875 
z
M 18.109375 46.390625 
Q 20.953125 51.265625 25.265625 53.625 
Q 29.59375 56 35.59375 56 
Q 45.5625 56 51.78125 48.09375 
Q 58.015625 40.1875 58.015625 27.296875 
Q 58.015625 14.40625 51.78125 6.484375 
Q 45.5625 -1.421875 35.59375 -1.421875 
Q 29.59375 -1.421875 25.265625 0.953125 
Q 20.953125 3.328125 18.109375 8.203125 
L 18.109375 0 
L 9.078125 0 
L 9.078125 75.984375 
L 18.109375 75.984375 
z
" id="DejaVuSans-98"/>
      <path d="M 34.28125 27.484375 
Q 23.390625 27.484375 19.1875 25 
Q 14.984375 22.515625 14.984375 16.5 
Q 14.984375 11.71875 18.140625 8.90625 
Q 21.296875 6.109375 26.703125 6.109375 
Q 34.1875 6.109375 38.703125 11.40625 
Q 43.21875 16.703125 43.21875 25.484375 
L 43.21875 27.484375 
z
M 52.203125 31.203125 
L 52.203125 0 
L 43.21875 0 
L 43.21875 8.296875 
Q 40.140625 3.328125 35.546875 0.953125 
Q 30.953125 -1.421875 24.3125 -1.421875 
Q 15.921875 -1.421875 10.953125 3.296875 
Q 6 8.015625 6 15.921875 
Q 6 25.140625 12.171875 29.828125 
Q 18.359375 34.515625 30.609375 34.515625 
L 43.21875 34.515625 
L 43.21875 35.40625 
Q 43.21875 41.609375 39.140625 45 
Q 35.0625 48.390625 27.6875 48.390625 
Q 23 48.390625 18.546875 47.265625 
Q 14.109375 46.140625 10.015625 43.890625 
L 10.015625 52.203125 
Q 14.9375 54.109375 19.578125 55.046875 
Q 24.21875 56 28.609375 56 
Q 40.484375 56 46.34375 49.84375 
Q 52.203125 43.703125 52.203125 31.203125 
z
" id="DejaVuSans-97"/>
      <path d="M 44.28125 53.078125 
L 44.28125 44.578125 
Q 40.484375 46.53125 36.375 47.5 
Q 32.28125 48.484375 27.875 48.484375 
Q 21.1875 48.484375 17.84375 46.4375 
Q 14.5 44.390625 14.5 40.28125 
Q 14.5 37.15625 16.890625 35.375 
Q 19.28125 33.59375 26.515625 31.984375 
L 29.59375 31.296875 
Q 39.15625 29.25 43.1875 25.515625 
Q 47.21875 21.78125 47.21875 15.09375 
Q 47.21875 7.46875 41.1875 3.015625 
Q 35.15625 -1.421875 24.609375 -1.421875 
Q 20.21875 -1.421875 15.453125 -0.5625 
Q 10.6875 0.296875 5.421875 2 
L 5.421875 11.28125 
Q 10.40625 8.6875 15.234375 7.390625 
Q 20.0625 6.109375 24.8125 6.109375 
Q 31.15625 6.109375 34.5625 8.28125 
Q 37.984375 10.453125 37.984375 14.40625 
Q 37.984375 18.0625 35.515625 20.015625 
Q 33.0625 21.96875 24.703125 23.78125 
L 21.578125 24.515625 
Q 13.234375 26.265625 9.515625 29.90625 
Q 5.8125 33.546875 5.8125 39.890625 
Q 5.8125 47.609375 11.28125 51.796875 
Q 16.75 56 26.8125 56 
Q 31.78125 56 36.171875 55.265625 
Q 40.578125 54.546875 44.28125 53.078125 
z
" id="DejaVuSans-115"/>
      <path d="M 56.203125 29.59375 
L 56.203125 25.203125 
L 14.890625 25.203125 
Q 15.484375 15.921875 20.484375 11.0625 
Q 25.484375 6.203125 34.421875 6.203125 
Q 39.59375 6.203125 44.453125 7.46875 
Q 49.3125 8.734375 54.109375 11.28125 
L 54.109375 2.78125 
Q 49.265625 0.734375 44.1875 -0.34375 
Q 39.109375 -1.421875 33.890625 -1.421875 
Q 20.796875 -1.421875 13.15625 6.1875 
Q 5.515625 13.8125 5.515625 26.8125 
Q 5.515625 40.234375 12.765625 48.109375 
Q 20.015625 56 32.328125 56 
Q 43.359375 56 49.78125 48.890625 
Q 56.203125 41.796875 56.203125 29.59375 
z
M 47.21875 32.234375 
Q 47.125 39.59375 43.09375 43.984375 
Q 39.0625 48.390625 32.421875 48.390625 
Q 24.90625 48.390625 20.390625 44.140625 
Q 15.875 39.890625 15.1875 32.171875 
z
" id="DejaVuSans-101"/>
     </defs>
     <g transform="translate(492.225313 59.237813)scale(0.14 -0.14)">
      <use xlink:href="#DejaVuSans-98"/>
      <use x="63.476562" xlink:href="#DejaVuSans-97"/>
      <use x="124.755859" xlink:href="#DejaVuSans-115"/>
      <use x="176.855469" xlink:href="#DejaVuSans-101"/>
     </g>
    </g>
    <g id="patch_6">
     <path d="M 453.025313 79.787188 
L 481.025313 79.787188 
L 481.025313 69.987188 
L 453.025313 69.987188 
z
" style="fill:#36a2eb;opacity:0.5;stroke:#36a2eb;stroke-linejoin:miter;"/>
    </g>
    <g id="text_2">
     <!-- new -->
     <defs>
      <path d="M 54.890625 33.015625 
L 54.890625 0 
L 45.90625 0 
L 45.90625 32.71875 
Q 45.90625 40.484375 42.875 44.328125 
Q 39.84375 48.1875 33.796875 48.1875 
Q 26.515625 48.1875 22.3125 43.546875 
Q 18.109375 38.921875 18.109375 30.90625 
L 18.109375 0 
L 9.078125 0 
L 9.078125 54.6875 
L 18.109375 54.6875 
L 18.109375 46.1875 
Q 21.34375 51.125 25.703125 53.5625 
Q 30.078125 56 35.796875 56 
Q 45.21875 56 50.046875 50.171875 
Q 54.890625 44.34375 54.890625 33.015625 
z
" id="DejaVuSans-110"/>
      <path d="M 4.203125 54.6875 
L 13.1875 54.6875 
L 24.421875 12.015625 
L 35.59375 54.6875 
L 46.1875 54.6875 
L 57.421875 12.015625 
L 68.609375 54.6875 
L 77.59375 54.6875 
L 63.28125 0 
L 52.6875 0 
L 40.921875 44.828125 
L 29.109375 0 
L 18.5 0 
z
" id="DejaVuSans-119"/>
     </defs>
     <g transform="translate(492.225313 79.787188)scale(0.14 -0.14)">
      <use xlink:href="#DejaVuSans-110"/>
      <use x="63.378906" xlink:href="#DejaVuSans-101"/>
      <use x="124.902344" xlink:href="#DejaVuSans-119"/>
     </g>
    </g>
   </g>
  </g>
  <g id="axes_2">
   <g id="patch_7">
    <path d="M 36 525.24 
L 538.2 525.24 
L 538.2 402.93 
L 36 402.93 
z
" style="fill:none;"/>
   </g>
   <g id="patch_8">
    <path clip-path="url(#pa615a1f13a)" d="M 185.678252 519.680455 
L 402.524283 519.680455 
L 402.524283 482.616818 
L 185.678252 482.616818 
z
" style="fill:#ff6384;opacity:0.5;"/>
   </g>
   <g id="patch_9">
    <path clip-path="url(#pa615a1f13a)" d="M 144.638947 445.553182 
L 309.531967 445.553182 
L 309.531967 408.489545 
L 144.638947 408.489545 
z
" style="fill:#36a2eb;opacity:0.5;"/>
   </g>
   <g id="matplotlib.axis_1">
    <g id="xtick_1">
     <g id="line2d_3">
      <defs>
       <path d="M 0 0 
L 0 3.5 
" id="mc90a7f03f3" style="stroke:#000000;stroke-width:0.8;"/>
      </defs>
      <g>
       <use style="stroke:#000000;stroke-width:0.8;" x="117.68821" xlink:href="#mc90a7f03f3" y="525.24"/>
      </g>
     </g>
     <g id="text_3">
      <!-- 18 -->
      <defs>
       <path d="M 12.40625 8.296875 
L 28.515625 8.296875 
L 28.515625 63.921875 
L 10.984375 60.40625 
L 10.984375 69.390625 
L 28.421875 72.90625 
L 38.28125 72.90625 
L 38.28125 8.296875 
L 54.390625 8.296875 
L 54.390625 0 
L 12.40625 0 
z
" id="DejaVuSans-49"/>
       <path d="M 31.78125 34.625 
Q 24.75 34.625 20.71875 30.859375 
Q 16.703125 27.09375 16.703125 20.515625 
Q 16.703125 13.921875 20.71875 10.15625 
Q 24.75 6.390625 31.78125 6.390625 
Q 38.8125 6.390625 42.859375 10.171875 
Q 46.921875 13.96875 46.921875 20.515625 
Q 46.921875 27.09375 42.890625 30.859375 
Q 38.875 34.625 31.78125 34.625 
z
M 21.921875 38.8125 
Q 15.578125 40.375 12.03125 44.71875 
Q 8.5 49.078125 8.5 55.328125 
Q 8.5 64.0625 14.71875 69.140625 
Q 20.953125 74.21875 31.78125 74.21875 
Q 42.671875 74.21875 48.875 69.140625 
Q 55.078125 64.0625 55.078125 55.328125 
Q 55.078125 49.078125 51.53125 44.71875 
Q 48 40.375 41.703125 38.8125 
Q 48.828125 37.15625 52.796875 32.3125 
Q 56.78125 27.484375 56.78125 20.515625 
Q 56.78125 9.90625 50.3125 4.234375 
Q 43.84375 -1.421875 31.78125 -1.421875 
Q 19.734375 -1.421875 13.25 4.234375 
Q 6.78125 9.90625 6.78125 20.515625 
Q 6.78125 27.484375 10.78125 32.3125 
Q 14.796875 37.15625 21.921875 38.8125 
z
M 18.3125 54.390625 
Q 18.3125 48.734375 21.84375 45.5625 
Q 25.390625 42.390625 31.78125 42.390625 
Q 38.140625 42.390625 41.71875 45.5625 
Q 45.3125 48.734375 45.3125 54.390625 
Q 45.3125 60.0625 41.71875 63.234375 
Q 38.140625 66.40625 31.78125 66.40625 
Q 25.390625 66.40625 21.84375 63.234375 
Q 18.3125 60.0625 18.3125 54.390625 
z
" id="DejaVuSans-56"/>
      </defs>
      <g transform="translate(108.78071 542.877813)scale(0.14 -0.14)">
       <use xlink:href="#DejaVuSans-49"/>
       <use x="63.623047" xlink:href="#DejaVuSans-56"/>
      </g>
     </g>
    </g>
    <g id="xtick_2">
     <g id="line2d_4">
      <g>
       <use style="stroke:#000000;stroke-width:0.8;" x="205.090636" xlink:href="#mc90a7f03f3" y="525.24"/>
      </g>
     </g>
     <g id="text_4">
      <!-- 20 -->
      <defs>
       <path d="M 19.1875 8.296875 
L 53.609375 8.296875 
L 53.609375 0 
L 7.328125 0 
L 7.328125 8.296875 
Q 12.9375 14.109375 22.625 23.890625 
Q 32.328125 33.6875 34.8125 36.53125 
Q 39.546875 41.84375 41.421875 45.53125 
Q 43.3125 49.21875 43.3125 52.78125 
Q 43.3125 58.59375 39.234375 62.25 
Q 35.15625 65.921875 28.609375 65.921875 
Q 23.96875 65.921875 18.8125 64.3125 
Q 13.671875 62.703125 7.8125 59.421875 
L 7.8125 69.390625 
Q 13.765625 71.78125 18.9375 73 
Q 24.125 74.21875 28.421875 74.21875 
Q 39.75 74.21875 46.484375 68.546875 
Q 53.21875 62.890625 53.21875 53.421875 
Q 53.21875 48.921875 51.53125 44.890625 
Q 49.859375 40.875 45.40625 35.40625 
Q 44.1875 33.984375 37.640625 27.21875 
Q 31.109375 20.453125 19.1875 8.296875 
z
" id="DejaVuSans-50"/>
       <path d="M 31.78125 66.40625 
Q 24.171875 66.40625 20.328125 58.90625 
Q 16.5 51.421875 16.5 36.375 
Q 16.5 21.390625 20.328125 13.890625 
Q 24.171875 6.390625 31.78125 6.390625 
Q 39.453125 6.390625 43.28125 13.890625 
Q 47.125 21.390625 47.125 36.375 
Q 47.125 51.421875 43.28125 58.90625 
Q 39.453125 66.40625 31.78125 66.40625 
z
M 31.78125 74.21875 
Q 44.046875 74.21875 50.515625 64.515625 
Q 56.984375 54.828125 56.984375 36.375 
Q 56.984375 17.96875 50.515625 8.265625 
Q 44.046875 -1.421875 31.78125 -1.421875 
Q 19.53125 -1.421875 13.0625 8.265625 
Q 6.59375 17.96875 6.59375 36.375 
Q 6.59375 54.828125 13.0625 64.515625 
Q 19.53125 74.21875 31.78125 74.21875 
z
" id="DejaVuSans-48"/>
      </defs>
      <g transform="translate(196.183136 542.877813)scale(0.14 -0.14)">
       <use xlink:href="#DejaVuSans-50"/>
       <use x="63.623047" xlink:href="#DejaVuSans-48"/>
      </g>
     </g>
    </g>
    <g id="xtick_3">
     <g id="line2d_5">
      <g>
       <use style="stroke:#000000;stroke-width:0.8;" x="292.493063" xlink:href="#mc90a7f03f3" y="525.24"/>
      </g>
     </g>
     <g id="text_5">
      <!-- 22 -->
      <g transform="translate(283.585563 542.877813)scale(0.14 -0.14)">
       <use xlink:href="#DejaVuSans-50"/>
       <use x="63.623047" xlink:href="#DejaVuSans-50"/>
      </g>
     </g>
    </g>
    <g id="xtick_4">
     <g id="line2d_6">
      <g>
       <use style="stroke:#000000;stroke-width:0.8;" x="379.895489" xlink:href="#mc90a7f03f3" y="525.24"/>
      </g>
     </g>
     <g id="text_6">
      <!-- 24 -->
      <defs>
       <path d="M 37.796875 64.3125 
L 12.890625 25.390625 
L 37.796875 25.390625 
z
M 35.203125 72.90625 
L 47.609375 72.90625 
L 47.609375 25.390625 
L 58.015625 25.390625 
L 58.015625 17.1875 
L 47.609375 17.1875 
L 47.609375 0 
L 37.796875 0 
L 37.796875 17.1875 
L 4.890625 17.1875 
L 4.890625 26.703125 
z
" id="DejaVuSans-52"/>
      </defs>
      <g transform="translate(370.987989 542.877813)scale(0.14 -0.14)">
       <use xlink:href="#DejaVuSans-50"/>
       <use x="63.623047" xlink:href="#DejaVuSans-52"/>
      </g>
     </g>
    </g>
    <g id="xtick_5">
     <g id="line2d_7">
      <g>
       <use style="stroke:#000000;stroke-width:0.8;" x="467.297915" xlink:href="#mc90a7f03f3" y="525.24"/>
      </g>
     </g>
     <g id="text_7">
      <!-- 26 -->
      <defs>
       <path d="M 33.015625 40.375 
Q 26.375 40.375 22.484375 35.828125 
Q 18.609375 31.296875 18.609375 23.390625 
Q 18.609375 15.53125 22.484375 10.953125 
Q 26.375 6.390625 33.015625 6.390625 
Q 39.65625 6.390625 43.53125 10.953125 
Q 47.40625 15.53125 47.40625 23.390625 
Q 47.40625 31.296875 43.53125 35.828125 
Q 39.65625 40.375 33.015625 40.375 
z
M 52.59375 71.296875 
L 52.59375 62.3125 
Q 48.875 64.0625 45.09375 64.984375 
Q 41.3125 65.921875 37.59375 65.921875 
Q 27.828125 65.921875 22.671875 59.328125 
Q 17.53125 52.734375 16.796875 39.40625 
Q 19.671875 43.65625 24.015625 45.921875 
Q 28.375 48.1875 33.59375 48.1875 
Q 44.578125 48.1875 50.953125 41.515625 
Q 57.328125 34.859375 57.328125 23.390625 
Q 57.328125 12.15625 50.6875 5.359375 
Q 44.046875 -1.421875 33.015625 -1.421875 
Q 20.359375 -1.421875 13.671875 8.265625 
Q 6.984375 17.96875 6.984375 36.375 
Q 6.984375 53.65625 15.1875 63.9375 
Q 23.390625 74.21875 37.203125 74.21875 
Q 40.921875 74.21875 44.703125 73.484375 
Q 48.484375 72.75 52.59375 71.296875 
z
" id="DejaVuSans-54"/>
      </defs>
      <g transform="translate(458.390415 542.877813)scale(0.14 -0.14)">
       <use xlink:href="#DejaVuSans-50"/>
       <use x="63.623047" xlink:href="#DejaVuSans-54"/>
      </g>
     </g>
    </g>
   </g>
   <g id="line2d_8">
    <path clip-path="url(#pa615a1f13a)" d="M 294.101267 525.24 
L 294.101267 402.93 
" style="fill:none;stroke:#ff6384;stroke-dasharray:5.55,2.4;stroke-dashoffset:0;stroke-opacity:0.8;stroke-width:1.5;"/>
   </g>
   <g id="line2d_9">
    <path clip-path="url(#pa615a1f13a)" d="M 227.085457 525.24 
L 227.085457 402.93 
" style="fill:none;stroke:#36a2eb;stroke-dasharray:5.55,2.4;stroke-dashoffset:0;stroke-opacity:0.8;stroke-width:1.5;"/>
   </g>
   <g id="patch_10">
    <path d="M 36 525.24 
L 538.2 525.24 
" style="fill:none;stroke:#000000;stroke-linecap:square;stroke-linejoin:miter;stroke-width:0.8;"/>
   </g>
  </g>
 </g>
 <defs>
  <clipPath id="p954b2e7276">
   <rect height="366.93" width="502.2" x="36" y="36"/>
  </clipPath>
  <clipPath id="pa615a1f13a">
   <rect height="122.31" width="502.2" x="36" y="402.93"/>
  </clipPath>
 </defs>
</svg>
