<?xml version="1.0" encoding="utf-8" standalone="no"?>
<!DOCTYPE svg PUBLIC "-//W3C//DTD SVG 1.1//EN"
  "http://www.w3.org/Graphics/SVG/1.1/DTD/svg11.dtd">
<!-- Created with matplotlib (https://matplotlib.org/) -->
<svg height="581.789375pt" version="1.1" viewBox="0 0 574.2 581.789375" width="574.2pt" xmlns="http://www.w3.org/2000/svg" xmlns:xlink="http://www.w3.org/1999/xlink">
 <defs>
  <style type="text/css">
*{stroke-linecap:butt;stroke-linejoin:round;}
  </style>
 </defs>
 <g id="figure_1">
  <g id="patch_1">
   <path d="M 0 581.789375 
L 574.2 581.789375 
L 574.2 0 
L 0 0 
z
" style="fill:none;"/>
  </g>
  <g id="axes_1">
   <g id="patch_2">
    <path d="M 36 402.93 
L 538.2 402.93 
L 538.2 36 
L 36 36 
z
" style="fill:none;"/>
   </g>
   <g id="PolyCollection_1">
    <defs>
     <path d="M 87.086184 -195.538011 
L 87.086184 -195.629424 
L 91.412311 -195.663895 
L 95.738437 -195.710235 
L 100.064564 -195.7721 
L 104.390691 -195.854117 
L 108.716818 -195.962092 
L 113.042944 -196.103247 
L 117.369071 -196.28648 
L 121.695198 -196.522663 
L 126.021324 -196.824942 
L 130.347451 -197.209071 
L 134.673578 -197.693734 
L 138.999704 -198.300864 
L 143.325831 -199.055938 
L 147.651958 -199.988215 
L 151.978085 -201.130912 
L 156.304211 -202.521273 
L 160.630338 -204.20052 
L 164.956465 -206.213631 
L 169.282591 -208.608945 
L 173.608718 -211.437538 
L 177.934845 -214.752369 
L 182.260971 -218.607162 
L 186.587098 -223.055033 
L 190.913225 -228.14685 
L 195.239352 -233.929356 
L 199.565478 -240.443083 
L 203.891605 -247.72011 
L 208.217732 -255.78173 
L 212.543858 -264.636107 
L 216.869985 -274.276027 
L 221.196112 -284.676843 
L 225.522238 -295.79473 
L 229.848365 -307.565376 
L 234.174492 -319.903199 
L 238.500619 -332.701216 
L 242.826745 -345.831614 
L 247.152872 -359.147109 
L 251.478999 -372.483088 
L 255.805125 -385.660547 
L 260.131252 -398.489757 
L 264.457379 -410.774584 
L 268.783505 -422.317318 
L 273.109632 -432.923879 
L 277.435759 -442.409182 
L 281.761886 -450.602486 
L 286.088012 -457.352485 
L 290.414139 -462.531955 
L 294.740266 -466.041736 
L 299.066392 -467.81389 
L 303.392519 -467.81389 
L 307.718646 -466.041736 
L 312.044772 -462.531955 
L 316.370899 -457.352485 
L 320.697026 -450.602486 
L 325.023153 -442.409182 
L 329.349279 -432.923879 
L 333.675406 -422.317318 
L 338.001533 -410.774584 
L 342.327659 -398.489757 
L 346.653786 -385.660547 
L 350.979913 -372.483088 
L 355.306039 -359.147109 
L 359.632166 -345.831614 
L 363.958293 -332.701216 
L 368.28442 -319.903199 
L 372.610546 -307.565376 
L 376.936673 -295.79473 
L 381.2628 -284.676843 
L 385.588926 -274.276027 
L 389.915053 -264.636107 
L 394.24118 -255.78173 
L 398.567306 -247.72011 
L 402.893433 -240.443083 
L 407.21956 -233.929356 
L 411.545686 -228.14685 
L 415.871813 -223.055033 
L 420.19794 -218.607162 
L 424.524067 -214.752369 
L 428.850193 -211.437538 
L 433.17632 -208.608945 
L 437.502447 -206.213631 
L 441.828573 -204.20052 
L 446.1547 -202.521273 
L 450.480827 -201.130912 
L 454.806953 -199.988215 
L 459.13308 -199.055938 
L 463.459207 -198.300864 
L 467.785334 -197.693734 
L 472.11146 -197.209071 
L 476.437587 -196.824942 
L 480.763714 -196.522663 
L 485.08984 -196.28648 
L 489.415967 -196.103247 
L 493.742094 -195.962092 
L 498.06822 -195.854117 
L 502.394347 -195.7721 
L 506.720474 -195.710235 
L 511.046601 -195.663895 
L 515.372727 -195.629424 
L 515.372727 -195.538011 
L 515.372727 -195.538011 
L 511.046601 -195.538011 
L 506.720474 -195.538011 
L 502.394347 -195.538011 
L 498.06822 -195.538011 
L 493.742094 -195.538011 
L 489.415967 -195.538011 
L 485.08984 -195.538011 
L 480.763714 -195.538011 
L 476.437587 -195.538011 
L 472.11146 -195.538011 
L 467.785334 -195.538011 
L 463.459207 -195.538011 
L 459.13308 -195.538011 
L 454.806953 -195.538011 
L 450.480827 -195.538011 
L 446.1547 -195.538011 
L 441.828573 -195.538011 
L 437.502447 -195.538011 
L 433.17632 -195.538011 
L 428.850193 -195.538011 
L 424.524067 -195.538011 
L 420.19794 -195.538011 
L 415.871813 -195.538011 
L 411.545686 -195.538011 
L 407.21956 -195.538011 
L 402.893433 -195.538011 
L 398.567306 -195.538011 
L 394.24118 -195.538011 
L 389.915053 -195.538011 
L 385.588926 -195.538011 
L 381.2628 -195.538011 
L 376.936673 -195.538011 
L 372.610546 -195.538011 
L 368.28442 -195.538011 
L 363.958293 -195.538011 
L 359.632166 -195.538011 
L 355.306039 -195.538011 
L 350.979913 -195.538011 
L 346.653786 -195.538011 
L 342.327659 -195.538011 
L 338.001533 -195.538011 
L 333.675406 -195.538011 
L 329.349279 -195.538011 
L 325.023153 -195.538011 
L 320.697026 -195.538011 
L 316.370899 -195.538011 
L 312.044772 -195.538011 
L 307.718646 -195.538011 
L 303.392519 -195.538011 
L 299.066392 -195.538011 
L 294.740266 -195.538011 
L 290.414139 -195.538011 
L 286.088012 -195.538011 
L 281.761886 -195.538011 
L 277.435759 -195.538011 
L 273.109632 -195.538011 
L 268.783505 -195.538011 
L 264.457379 -195.538011 
L 260.131252 -195.538011 
L 255.805125 -195.538011 
L 251.478999 -195.538011 
L 247.152872 -195.538011 
L 242.826745 -195.538011 
L 238.500619 -195.538011 
L 234.174492 -195.538011 
L 229.848365 -195.538011 
L 225.522238 -195.538011 
L 221.196112 -195.538011 
L 216.869985 -195.538011 
L 212.543858 -195.538011 
L 208.217732 -195.538011 
L 203.891605 -195.538011 
L 199.565478 -195.538011 
L 195.239352 -195.538011 
L 190.913225 -195.538011 
L 186.587098 -195.538011 
L 182.260971 -195.538011 
L 177.934845 -195.538011 
L 173.608718 -195.538011 
L 169.282591 -195.538011 
L 164.956465 -195.538011 
L 160.630338 -195.538011 
L 156.304211 -195.538011 
L 151.978085 -195.538011 
L 147.651958 -195.538011 
L 143.325831 -195.538011 
L 138.999704 -195.538011 
L 134.673578 -195.538011 
L 130.347451 -195.538011 
L 126.021324 -195.538011 
L 121.695198 -195.538011 
L 117.369071 -195.538011 
L 113.042944 -195.538011 
L 108.716818 -195.538011 
L 104.390691 -195.538011 
L 100.064564 -195.538011 
L 95.738437 -195.538011 
L 91.412311 -195.538011 
L 87.086184 -195.538011 
z
" id="mc350044909" style="stroke:#ff6384;stroke-opacity:0.5;"/>
    </defs>
    <g clip-path="url(#pe2823bc07e)">
     <use style="fill:#ff6384;fill-opacity:0.5;stroke:#ff6384;stroke-opacity:0.5;" x="0" xlink:href="#mc350044909" y="581.789375"/>
    </g>
   </g>
   <g id="PolyCollection_2">
    <defs>
     <path d="M 58.827273 -195.538011 
L 58.827273 -195.650004 
L 62.358437 -195.692234 
L 65.8896 -195.749007 
L 69.420764 -195.8248 
L 72.951928 -195.925281 
L 76.483092 -196.057565 
L 80.014256 -196.230497 
L 83.54542 -196.454982 
L 87.076583 -196.744335 
L 90.607747 -197.114666 
L 94.138911 -197.585273 
L 97.670075 -198.179047 
L 101.201239 -198.922859 
L 104.732403 -199.847921 
L 108.263566 -200.990079 
L 111.79473 -202.390029 
L 115.325894 -204.093399 
L 118.857058 -206.150691 
L 122.388222 -208.617009 
L 125.919386 -211.551575 
L 129.450549 -215.016962 
L 132.981713 -219.078053 
L 136.512877 -223.800667 
L 140.044041 -229.249878 
L 143.575205 -235.488004 
L 147.106369 -242.572312 
L 150.637532 -250.552459 
L 154.168696 -259.467747 
L 157.69986 -269.344261 
L 161.231024 -280.192004 
L 164.762188 -292.002137 
L 168.293352 -304.744465 
L 171.824515 -318.365297 
L 175.355679 -332.785841 
L 178.886843 -347.901251 
L 182.418007 -363.580456 
L 185.949171 -379.666871 
L 189.480335 -395.980052 
L 193.011498 -412.31833 
L 196.542662 -428.4624 
L 200.073826 -444.179822 
L 203.60499 -459.230303 
L 207.136154 -473.371627 
L 210.667318 -486.366018 
L 214.198481 -497.986726 
L 217.729645 -508.02457 
L 221.260809 -516.294181 
L 224.791973 -522.639693 
L 228.323137 -526.939623 
L 231.854301 -529.110739 
L 235.385464 -529.110739 
L 238.916628 -526.939623 
L 242.447792 -522.639693 
L 245.978956 -516.294181 
L 249.51012 -508.02457 
L 253.041283 -497.986726 
L 256.572447 -486.366018 
L 260.103611 -473.371627 
L 263.634775 -459.230303 
L 267.165939 -444.179822 
L 270.697103 -428.4624 
L 274.228266 -412.31833 
L 277.75943 -395.980052 
L 281.290594 -379.666871 
L 284.821758 -363.580456 
L 288.352922 -347.901251 
L 291.884086 -332.785841 
L 295.415249 -318.365297 
L 298.946413 -304.744465 
L 302.477577 -292.002137 
L 306.008741 -280.192004 
L 309.539905 -269.344261 
L 313.071069 -259.467747 
L 316.602232 -250.552459 
L 320.133396 -242.572312 
L 323.66456 -235.488004 
L 327.195724 -229.249878 
L 330.726888 -223.800667 
L 334.258052 -219.078053 
L 337.789215 -215.016962 
L 341.320379 -211.551575 
L 344.851543 -208.617009 
L 348.382707 -206.150691 
L 351.913871 -204.093399 
L 355.445035 -202.390029 
L 358.976198 -200.990079 
L 362.507362 -199.847921 
L 366.038526 -198.922859 
L 369.56969 -198.179047 
L 373.100854 -197.585273 
L 376.632018 -197.114666 
L 380.163181 -196.744335 
L 383.694345 -196.454982 
L 387.225509 -196.230497 
L 390.756673 -196.057565 
L 394.287837 -195.925281 
L 397.819001 -195.8248 
L 401.350164 -195.749007 
L 404.881328 -195.692234 
L 408.412492 -195.650004 
L 408.412492 -195.538011 
L 408.412492 -195.538011 
L 404.881328 -195.538011 
L 401.350164 -195.538011 
L 397.819001 -195.538011 
L 394.287837 -195.538011 
L 390.756673 -195.538011 
L 387.225509 -195.538011 
L 383.694345 -195.538011 
L 380.163181 -195.538011 
L 376.632018 -195.538011 
L 373.100854 -195.538011 
L 369.56969 -195.538011 
L 366.038526 -195.538011 
L 362.507362 -195.538011 
L 358.976198 -195.538011 
L 355.445035 -195.538011 
L 351.913871 -195.538011 
L 348.382707 -195.538011 
L 344.851543 -195.538011 
L 341.320379 -195.538011 
L 337.789215 -195.538011 
L 334.258052 -195.538011 
L 330.726888 -195.538011 
L 327.195724 -195.538011 
L 323.66456 -195.538011 
L 320.133396 -195.538011 
L 316.602232 -195.538011 
L 313.071069 -195.538011 
L 309.539905 -195.538011 
L 306.008741 -195.538011 
L 302.477577 -195.538011 
L 298.946413 -195.538011 
L 295.415249 -195.538011 
L 291.884086 -195.538011 
L 288.352922 -195.538011 
L 284.821758 -195.538011 
L 281.290594 -195.538011 
L 277.75943 -195.538011 
L 274.228266 -195.538011 
L 270.697103 -195.538011 
L 267.165939 -195.538011 
L 263.634775 -195.538011 
L 260.103611 -195.538011 
L 256.572447 -195.538011 
L 253.041283 -195.538011 
L 249.51012 -195.538011 
L 245.978956 -195.538011 
L 242.447792 -195.538011 
L 238.916628 -195.538011 
L 235.385464 -195.538011 
L 231.854301 -195.538011 
L 228.323137 -195.538011 
L 224.791973 -195.538011 
L 221.260809 -195.538011 
L 217.729645 -195.538011 
L 214.198481 -195.538011 
L 210.667318 -195.538011 
L 207.136154 -195.538011 
L 203.60499 -195.538011 
L 200.073826 -195.538011 
L 196.542662 -195.538011 
L 193.011498 -195.538011 
L 189.480335 -195.538011 
L 185.949171 -195.538011 
L 182.418007 -195.538011 
L 178.886843 -195.538011 
L 175.355679 -195.538011 
L 171.824515 -195.538011 
L 168.293352 -195.538011 
L 164.762188 -195.538011 
L 161.231024 -195.538011 
L 157.69986 -195.538011 
L 154.168696 -195.538011 
L 150.637532 -195.538011 
L 147.106369 -195.538011 
L 143.575205 -195.538011 
L 140.044041 -195.538011 
L 136.512877 -195.538011 
L 132.981713 -195.538011 
L 129.450549 -195.538011 
L 125.919386 -195.538011 
L 122.388222 -195.538011 
L 118.857058 -195.538011 
L 115.325894 -195.538011 
L 111.79473 -195.538011 
L 108.263566 -195.538011 
L 104.732403 -195.538011 
L 101.201239 -195.538011 
L 97.670075 -195.538011 
L 94.138911 -195.538011 
L 90.607747 -195.538011 
L 87.076583 -195.538011 
L 83.54542 -195.538011 
L 80.014256 -195.538011 
L 76.483092 -195.538011 
L 72.951928 -195.538011 
L 69.420764 -195.538011 
L 65.8896 -195.538011 
L 62.358437 -195.538011 
L 58.827273 -195.538011 
z
" id="mc56ba42ff7" style="stroke:#36a2eb;stroke-opacity:0.5;"/>
    </defs>
    <g clip-path="url(#pe2823bc07e)">
     <use style="fill:#36a2eb;fill-opacity:0.5;stroke:#36a2eb;stroke-opacity:0.5;" x="0" xlink:href="#mc56ba42ff7" y="581.789375"/>
    </g>
   </g>
   <g id="line2d_1">
    <path clip-path="url(#pe2823bc07e)" d="M 87.086184 386.159951 
L 91.412311 386.12548 
L 95.738437 386.07914 
L 100.064564 386.017275 
L 104.390691 385.935258 
L 108.716818 385.827283 
L 113.042944 385.686128 
L 117.369071 385.502895 
L 121.695198 385.266712 
L 126.021324 384.964433 
L 130.347451 384.580304 
L 134.673578 384.095641 
L 138.999704 383.488511 
L 143.325831 382.733437 
L 147.651958 381.80116 
L 151.978085 380.658463 
L 156.304211 379.268102 
L 160.630338 377.588855 
L 164.956465 375.575744 
L 169.282591 373.18043 
L 173.608718 370.351837 
L 177.934845 367.037006 
L 182.260971 363.182213 
L 186.587098 358.734342 
L 190.913225 353.642525 
L 195.239352 347.860019 
L 199.565478 341.346292 
L 203.891605 334.069265 
L 208.217732 326.007645 
L 212.543858 317.153268 
L 216.869985 307.513348 
L 221.196112 297.112532 
L 225.522238 285.994645 
L 229.848365 274.223999 
L 234.174492 261.886176 
L 238.500619 249.088159 
L 242.826745 235.957761 
L 247.152872 222.642266 
L 251.478999 209.306287 
L 255.805125 196.128828 
L 260.131252 183.299618 
L 264.457379 171.014791 
L 268.783505 159.472057 
L 273.109632 148.865496 
L 277.435759 139.380193 
L 281.761886 131.186889 
L 286.088012 124.43689 
L 290.414139 119.25742 
L 294.740266 115.747639 
L 299.066392 113.975485 
L 303.392519 113.975485 
L 307.718646 115.747639 
L 312.044772 119.25742 
L 316.370899 124.43689 
L 320.697026 131.186889 
L 325.023153 139.380193 
L 329.349279 148.865496 
L 333.675406 159.472057 
L 338.001533 171.014791 
L 342.327659 183.299618 
L 346.653786 196.128828 
L 350.979913 209.306287 
L 355.306039 222.642266 
L 359.632166 235.957761 
L 363.958293 249.088159 
L 368.28442 261.886176 
L 372.610546 274.223999 
L 376.936673 285.994645 
L 381.2628 297.112532 
L 385.588926 307.513348 
L 389.915053 317.153268 
L 394.24118 326.007645 
L 398.567306 334.069265 
L 402.893433 341.346292 
L 407.21956 347.860019 
L 411.545686 353.642525 
L 415.871813 358.734342 
L 420.19794 363.182213 
L 424.524067 367.037006 
L 428.850193 370.351837 
L 433.17632 373.18043 
L 437.502447 375.575744 
L 441.828573 377.588855 
L 446.1547 379.268102 
L 450.480827 380.658463 
L 454.806953 381.80116 
L 459.13308 382.733437 
L 463.459207 383.488511 
L 467.785334 384.095641 
L 472.11146 384.580304 
L 476.437587 384.964433 
L 480.763714 385.266712 
L 485.08984 385.502895 
L 489.415967 385.686128 
L 493.742094 385.827283 
L 498.06822 385.935258 
L 502.394347 386.017275 
L 506.720474 386.07914 
L 511.046601 386.12548 
L 515.372727 386.159951 
" style="fill:none;stroke:#ff6384;stroke-linecap:square;"/>
   </g>
   <g id="line2d_2">
    <path clip-path="url(#pe2823bc07e)" d="M 58.827273 386.139371 
L 62.358437 386.097141 
L 65.8896 386.040368 
L 69.420764 385.964575 
L 72.951928 385.864094 
L 76.483092 385.73181 
L 80.014256 385.558878 
L 83.54542 385.334393 
L 87.076583 385.04504 
L 90.607747 384.674709 
L 94.138911 384.204102 
L 97.670075 383.610328 
L 101.201239 382.866516 
L 104.732403 381.941454 
L 108.263566 380.799296 
L 111.79473 379.399346 
L 115.325894 377.695976 
L 118.857058 375.638684 
L 122.388222 373.172366 
L 125.919386 370.2378 
L 129.450549 366.772413 
L 132.981713 362.711322 
L 136.512877 357.988708 
L 140.044041 352.539497 
L 143.575205 346.301371 
L 147.106369 339.217063 
L 150.637532 331.236916 
L 154.168696 322.321628 
L 157.69986 312.445114 
L 161.231024 301.597371 
L 164.762188 289.787238 
L 168.293352 277.04491 
L 171.824515 263.424078 
L 175.355679 249.003534 
L 178.886843 233.888124 
L 182.418007 218.208919 
L 185.949171 202.122504 
L 189.480335 185.809323 
L 193.011498 169.471045 
L 196.542662 153.326975 
L 200.073826 137.609553 
L 203.60499 122.559072 
L 207.136154 108.417748 
L 210.667318 95.423357 
L 214.198481 83.802649 
L 217.729645 73.764805 
L 221.260809 65.495194 
L 224.791973 59.149682 
L 228.323137 54.849752 
L 231.854301 52.678636 
L 235.385464 52.678636 
L 238.916628 54.849752 
L 242.447792 59.149682 
L 245.978956 65.495194 
L 249.51012 73.764805 
L 253.041283 83.802649 
L 256.572447 95.423357 
L 260.103611 108.417748 
L 263.634775 122.559072 
L 267.165939 137.609553 
L 270.697103 153.326975 
L 274.228266 169.471045 
L 277.75943 185.809323 
L 281.290594 202.122504 
L 284.821758 218.208919 
L 288.352922 233.888124 
L 291.884086 249.003534 
L 295.415249 263.424078 
L 298.946413 277.04491 
L 302.477577 289.787238 
L 306.008741 301.597371 
L 309.539905 312.445114 
L 313.071069 322.321628 
L 316.602232 331.236916 
L 320.133396 339.217063 
L 323.66456 346.301371 
L 327.195724 352.539497 
L 330.726888 357.988708 
L 334.258052 362.711322 
L 337.789215 366.772413 
L 341.320379 370.2378 
L 344.851543 373.172366 
L 348.382707 375.638684 
L 351.913871 377.695976 
L 355.445035 379.399346 
L 358.976198 380.799296 
L 362.507362 381.941454 
L 366.038526 382.866516 
L 369.56969 383.610328 
L 373.100854 384.204102 
L 376.632018 384.674709 
L 380.163181 385.04504 
L 383.694345 385.334393 
L 387.225509 385.558878 
L 390.756673 385.73181 
L 394.287837 385.864094 
L 397.819001 385.964575 
L 401.350164 386.040368 
L 404.881328 386.097141 
L 408.412492 386.139371 
" style="fill:none;stroke:#36a2eb;stroke-linecap:square;"/>
   </g>
   <g id="patch_3">
    <path d="M 36 402.93 
L 538.2 402.93 
" style="fill:none;stroke:#000000;stroke-linecap:square;stroke-linejoin:miter;stroke-width:0.8;"/>
   </g>
   <g id="legend_1">
    <g id="patch_4">
     <path d="M 450.225313 88.29875 
L 528.4 88.29875 
Q 531.2 88.29875 531.2 85.49875 
L 531.2 45.8 
Q 531.2 43 528.4 43 
L 450.225313 43 
Q 447.425313 43 447.425313 45.8 
L 447.425313 85.49875 
Q 447.425313 88.29875 450.225313 88.29875 
z
" style="fill:#ffffff;opacity:0.8;stroke:#cccccc;stroke-linejoin:miter;"/>
    </g>
    <g id="patch_5">
     <path d="M 453.025313 59.237813 
L 481.025313 59.237813 
L 481.025313 49.437813 
L 453.025313 49.437813 
z
" style="fill:#ff6384;opacity:0.5;stroke:#ff6384;stroke-linejoin:miter;"/>
    </g>
    <g id="text_1">
     <!-- base -->
     <defs>
      <path d="M 48.6875 27.296875 
Q 48.6875 37.203125 44.609375 42.84375 
Q 40.53125 48.484375 33.40625 48.484375 
Q 26.265625 48.484375 22.1875 42.84375 
Q 18.109375 37.203125 18.109375 27.296875 
Q 18.109375 17.390625 22.1875 11.75 
Q 26.265625 6.109375 33.40625 6.109375 
Q 40.53125 6.109375 44.609375 11.75 
Q 48.6875 17.390625 48.6875 27.296875 
z
M 18.109375 46.390625 
Q 20.953125 51.265625 25.265625 53.625 
Q 29.59375 56 35.59375 56 
Q 45.5625 56 51.78125 48.09375 
Q 58.015625 40.1875 58.015625 27.296875 
Q 58.015625 14.40625 51.78125 6.484375 
Q 45.5625 -1.421875 35.59375 -1.421875 
Q 29.59375 -1.421875 25.265625 0.953125 
Q 20.953125 3.328125 18.109375 8.203125 
L 18.109375 0 
L 9.078125 0 
L 9.078125 75.984375 
L 18.109375 75.984375 
z
" id="DejaVuSans-98"/>
      <path d="M 34.28125 27.484375 
Q 23.390625 27.484375 19.1875 25 
Q 14.984375 22.515625 14.984375 16.5 
Q 14.984375 11.71875 18.140625 8.90625 
Q 21.296875 6.109375 26.703125 6.109375 
Q 34.1875 6.109375 38.703125 11.40625 
Q 43.21875 16.703125 43.21875 25.484375 
L 43.21875 27.484375 
z
M 52.203125 31.203125 
L 52.203125 0 
L 43.21875 0 
L 43.21875 8.296875 
Q 40.140625 3.328125 35.546875 0.953125 
Q 30.953125 -1.421875 24.3125 -1.421875 
Q 15.921875 -1.421875 10.953125 3.296875 
Q 6 8.015625 6 15.921875 
Q 6 25.140625 12.171875 29.828125 
Q 18.359375 34.515625 30.609375 34.515625 
L 43.21875 34.515625 
L 43.21875 35.40625 
Q 43.21875 41.609375 39.140625 45 
Q 35.0625 48.390625 27.6875 48.390625 
Q 23 48.390625 18.546875 47.265625 
Q 14.109375 46.140625 10.015625 43.890625 
L 10.015625 52.203125 
Q 14.9375 54.109375 19.578125 55.046875 
Q 24.21875 56 28.609375 56 
Q 40.484375 56 46.34375 49.84375 
Q 52.203125 43.703125 52.203125 31.203125 
z
" id="DejaVuSans-97"/>
      <path d="M 44.28125 53.078125 
L 44.28125 44.578125 
Q 40.484375 46.53125 36.375 47.5 
Q 32.28125 48.484375 27.875 48.484375 
Q 21.1875 48.484375 17.84375 46.4375 
Q 14.5 44.390625 14.5 40.28125 
Q 14.5 37.15625 16.890625 35.375 
Q 19.28125 33.59375 26.515625 31.984375 
L 29.59375 31.296875 
Q 39.15625 29.25 43.1875 25.515625 
Q 47.21875 21.78125 47.21875 15.09375 
Q 47.21875 7.46875 41.1875 3.015625 
Q 35.15625 -1.421875 24.609375 -1.421875 
Q 20.21875 -1.421875 15.453125 -0.5625 
Q 10.6875 0.296875 5.421875 2 
L 5.421875 11.28125 
Q 10.40625 8.6875 15.234375 7.390625 
Q 20.0625 6.109375 24.8125 6.109375 
Q 31.15625 6.109375 34.5625 8.28125 
Q 37.984375 10.453125 37.984375 14.40625 
Q 37.984375 18.0625 35.515625 20.015625 
Q 33.0625 21.96875 24.703125 23.78125 
L 21.578125 24.515625 
Q 13.234375 26.265625 9.515625 29.90625 
Q 5.8125 33.546875 5.8125 39.890625 
Q 5.8125 47.609375 11.28125 51.796875 
Q 16.75 56 26.8125 56 
Q 31.78125 56 36.171875 55.265625 
Q 40.578125 54.546875 44.28125 53.078125 
z
" id="DejaVuSans-115"/>
      <path d="M 56.203125 29.59375 
L 56.203125 25.203125 
L 14.890625 25.203125 
Q 15.484375 15.921875 20.484375 11.0625 
Q 25.484375 6.203125 34.421875 6.203125 
Q 39.59375 6.203125 44.453125 7.46875 
Q 49.3125 8.734375 54.109375 11.28125 
L 54.109375 2.78125 
Q 49.265625 0.734375 44.1875 -0.34375 
Q 39.109375 -1.421875 33.890625 -1.421875 
Q 20.796875 -1.421875 13.15625 6.1875 
Q 5.515625 13.8125 5.515625 26.8125 
Q 5.515625 40.234375 12.765625 48.109375 
Q 20.015625 56 32.328125 56 
Q 43.359375 56 49.78125 48.890625 
Q 56.203125 41.796875 56.203125 29.59375 
z
M 47.21875 32.234375 
Q 47.125 39.59375 43.09375 43.984375 
Q 39.0625 48.390625 32.421875 48.390625 
Q 24.90625 48.390625 20.390625 44.140625 
Q 15.875 39.890625 15.1875 32.171875 
z
" id="DejaVuSans-101"/>
     </defs>
     <g transform="translate(492.225313 59.237813)scale(0.14 -0.14)">
      <use xlink:href="#DejaVuSans-98"/>
      <use x="63.476562" xlink:href="#DejaVuSans-97"/>
      <use x="124.755859" xlink:href="#DejaVuSans-115"/>
      <use x="176.855469" xlink:href="#DejaVuSans-101"/>
     </g>
    </g>
    <g id="patch_6">
     <path d="M 453.025313 79.787188 
L 481.025313 79.787188 
L 481.025313 69.987188 
L 453.025313 69.987188 
z
" style="fill:#36a2eb;opacity:0.5;stroke:#36a2eb;stroke-linejoin:miter;"/>
    </g>
    <g id="text_2">
     <!-- new -->
     <defs>
      <path d="M 54.890625 33.015625 
L 54.890625 0 
L 45.90625 0 
L 45.90625 32.71875 
Q 45.90625 40.484375 42.875 44.328125 
Q 39.84375 48.1875 33.796875 48.1875 
Q 26.515625 48.1875 22.3125 43.546875 
Q 18.109375 38.921875 18.109375 30.90625 
L 18.109375 0 
L 9.078125 0 
L 9.078125 54.6875 
L 18.109375 54.6875 
L 18.109375 46.1875 
Q 21.34375 51.125 25.703125 53.5625 
Q 30.078125 56 35.796875 56 
Q 45.21875 56 50.046875 50.171875 
Q 54.890625 44.34375 54.890625 33.015625 
z
" id="DejaVuSans-110"/>
      <path d="M 4.203125 54.6875 
L 13.1875 54.6875 
L 24.421875 12.015625 
L 35.59375 54.6875 
L 46.1875 54.6875 
L 57.421875 12.015625 
L 68.609375 54.6875 
L 77.59375 54.6875 
L 63.28125 0 
L 52.6875 0 
L 40.921875 44.828125 
L 29.109375 0 
L 18.5 0 
z
" id="DejaVuSans-119"/>
     </defs>
     <g transform="translate(492.225313 79.787188)scale(0.14 -0.14)">
      <use xlink:href="#DejaVuSans-110"/>
      <use x="63.378906" xlink:href="#DejaVuSans-101"/>
      <use x="124.902344" xlink:href="#DejaVuSans-119"/>
     </g>
    </g>
   </g>
  </g>
  <g id="axes_2">
   <g id="patch_7">
    <path d="M 36 525.24 
L 538.2 525.24 
L 538.2 402.93 
L 36 402.93 
z
" style="fill:none;"/>
   </g>
   <g id="patch_8">
    <path clip-path="url(#pa88270555c)" d="M 196.299253 519.680455 
L 406.159659 519.680455 
L 406.159659 482.616818 
L 196.299253 482.616818 
z
" style="fill:#ff6384;opacity:0.5;"/>
   </g>
   <g id="patch_9">
    <path clip-path="url(#pa88270555c)" d="M 147.971504 445.553182 
L 319.268261 445.553182 
L 319.268261 408.489545 
L 147.971504 408.489545 
z
" style="fill:#36a2eb;opacity:0.5;"/>
   </g>
   <g id="matplotlib.axis_1">
    <g id="xtick_1">
     <g id="line2d_3">
      <defs>
       <path d="M 0 0 
L 0 3.5 
" id="mbe97fa5c4f" style="stroke:#000000;stroke-width:0.8;"/>
      </defs>
      <g>
       <use style="stroke:#000000;stroke-width:0.8;" x="55.239056" xlink:href="#mbe97fa5c4f" y="525.24"/>
      </g>
     </g>
     <g id="text_3">
      <!-- 16 -->
      <defs>
       <path d="M 12.40625 8.296875 
L 28.515625 8.296875 
L 28.515625 63.921875 
L 10.984375 60.40625 
L 10.984375 69.390625 
L 28.421875 72.90625 
L 38.28125 72.90625 
L 38.28125 8.296875 
L 54.390625 8.296875 
L 54.390625 0 
L 12.40625 0 
z
" id="DejaVuSans-49"/>
       <path d="M 33.015625 40.375 
Q 26.375 40.375 22.484375 35.828125 
Q 18.609375 31.296875 18.609375 23.390625 
Q 18.609375 15.53125 22.484375 10.953125 
Q 26.375 6.390625 33.015625 6.390625 
Q 39.65625 6.390625 43.53125 10.953125 
Q 47.40625 15.53125 47.40625 23.390625 
Q 47.40625 31.296875 43.53125 35.828125 
Q 39.65625 40.375 33.015625 40.375 
z
M 52.59375 71.296875 
L 52.59375 62.3125 
Q 48.875 64.0625 45.09375 64.984375 
Q 41.3125 65.921875 37.59375 65.921875 
Q 27.828125 65.921875 22.671875 59.328125 
Q 17.53125 52.734375 16.796875 39.40625 
Q 19.671875 43.65625 24.015625 45.921875 
Q 28.375 48.1875 33.59375 48.1875 
Q 44.578125 48.1875 50.953125 41.515625 
Q 57.328125 34.859375 57.328125 23.390625 
Q 57.328125 12.15625 50.6875 5.359375 
Q 44.046875 -1.421875 33.015625 -1.421875 
Q 20.359375 -1.421875 13.671875 8.265625 
Q 6.984375 17.96875 6.984375 36.375 
Q 6.984375 53.65625 15.1875 63.9375 
Q 23.390625 74.21875 37.203125 74.21875 
Q 40.921875 74.21875 44.703125 73.484375 
Q 48.484375 72.75 52.59375 71.296875 
z
" id="DejaVuSans-54"/>
      </defs>
      <g transform="translate(46.331556 542.877813)scale(0.14 -0.14)">
       <use xlink:href="#DejaVuSans-49"/>
       <use x="63.623047" xlink:href="#DejaVuSans-54"/>
      </g>
     </g>
    </g>
    <g id="xtick_2">
     <g id="line2d_4">
      <g>
       <use style="stroke:#000000;stroke-width:0.8;" x="134.166879" xlink:href="#mbe97fa5c4f" y="525.24"/>
      </g>
     </g>
     <g id="text_4">
      <!-- 18 -->
      <defs>
       <path d="M 31.78125 34.625 
Q 24.75 34.625 20.71875 30.859375 
Q 16.703125 27.09375 16.703125 20.515625 
Q 16.703125 13.921875 20.71875 10.15625 
Q 24.75 6.390625 31.78125 6.390625 
Q 38.8125 6.390625 42.859375 10.171875 
Q 46.921875 13.96875 46.921875 20.515625 
Q 46.921875 27.09375 42.890625 30.859375 
Q 38.875 34.625 31.78125 34.625 
z
M 21.921875 38.8125 
Q 15.578125 40.375 12.03125 44.71875 
Q 8.5 49.078125 8.5 55.328125 
Q 8.5 64.0625 14.71875 69.140625 
Q 20.953125 74.21875 31.78125 74.21875 
Q 42.671875 74.21875 48.875 69.140625 
Q 55.078125 64.0625 55.078125 55.328125 
Q 55.078125 49.078125 51.53125 44.71875 
Q 48 40.375 41.703125 38.8125 
Q 48.828125 37.15625 52.796875 32.3125 
Q 56.78125 27.484375 56.78125 20.515625 
Q 56.78125 9.90625 50.3125 4.234375 
Q 43.84375 -1.421875 31.78125 -1.421875 
Q 19.734375 -1.421875 13.25 4.234375 
Q 6.78125 9.90625 6.78125 20.515625 
Q 6.78125 27.484375 10.78125 32.3125 
Q 14.796875 37.15625 21.921875 38.8125 
z
M 18.3125 54.390625 
Q 18.3125 48.734375 21.84375 45.5625 
Q 25.390625 42.390625 31.78125 42.390625 
Q 38.140625 42.390625 41.71875 45.5625 
Q 45.3125 48.734375 45.3125 54.390625 
Q 45.3125 60.0625 41.71875 63.234375 
Q 38.140625 66.40625 31.78125 66.40625 
Q 25.390625 66.40625 21.84375 63.234375 
Q 18.3125 60.0625 18.3125 54.390625 
z
" id="DejaVuSans-56"/>
      </defs>
      <g transform="translate(125.259379 542.877813)scale(0.14 -0.14)">
       <use xlink:href="#DejaVuSans-49"/>
       <use x="63.623047" xlink:href="#DejaVuSans-56"/>
      </g>
     </g>
    </g>
    <g id="xtick_3">
     <g id="line2d_5">
      <g>
       <use style="stroke:#000000;stroke-width:0.8;" x="213.094702" xlink:href="#mbe97fa5c4f" y="525.24"/>
      </g>
     </g>
     <g id="text_5">
      <!-- 20 -->
      <defs>
       <path d="M 19.1875 8.296875 
L 53.609375 8.296875 
L 53.609375 0 
L 7.328125 0 
L 7.328125 8.296875 
Q 12.9375 14.109375 22.625 23.890625 
Q 32.328125 33.6875 34.8125 36.53125 
Q 39.546875 41.84375 41.421875 45.53125 
Q 43.3125 49.21875 43.3125 52.78125 
Q 43.3125 58.59375 39.234375 62.25 
Q 35.15625 65.921875 28.609375 65.921875 
Q 23.96875 65.921875 18.8125 64.3125 
Q 13.671875 62.703125 7.8125 59.421875 
L 7.8125 69.390625 
Q 13.765625 71.78125 18.9375 73 
Q 24.125 74.21875 28.421875 74.21875 
Q 39.75 74.21875 46.484375 68.546875 
Q 53.21875 62.890625 53.21875 53.421875 
Q 53.21875 48.921875 51.53125 44.890625 
Q 49.859375 40.875 45.40625 35.40625 
Q 44.1875 33.984375 37.640625 27.21875 
Q 31.109375 20.453125 19.1875 8.296875 
z
" id="DejaVuSans-50"/>
       <path d="M 31.78125 66.40625 
Q 24.171875 66.40625 20.328125 58.90625 
Q 16.5 51.421875 16.5 36.375 
Q 16.5 21.390625 20.328125 13.890625 
Q 24.171875 6.390625 31.78125 6.390625 
Q 39.453125 6.390625 43.28125 13.890625 
Q 47.125 21.390625 47.125 36.375 
Q 47.125 51.421875 43.28125 58.90625 
Q 39.453125 66.40625 31.78125 66.40625 
z
M 31.78125 74.21875 
Q 44.046875 74.21875 50.515625 64.515625 
Q 56.984375 54.828125 56.984375 36.375 
Q 56.984375 17.96875 50.515625 8.265625 
Q 44.046875 -1.421875 31.78125 -1.421875 
Q 19.53125 -1.421875 13.0625 8.265625 
Q 6.59375 17.96875 6.59375 36.375 
Q 6.59375 54.828125 13.0625 64.515625 
Q 19.53125 74.21875 31.78125 74.21875 
z
" id="DejaVuSans-48"/>
      </defs>
      <g transform="translate(204.187202 542.877813)scale(0.14 -0.14)">
       <use xlink:href="#DejaVuSans-50"/>
       <use x="63.623047" xlink:href="#DejaVuSans-48"/>
      </g>
     </g>
    </g>
    <g id="xtick_4">
     <g id="line2d_6">
      <g>
       <use style="stroke:#000000;stroke-width:0.8;" x="292.022525" xlink:href="#mbe97fa5c4f" y="525.24"/>
      </g>
     </g>
     <g id="text_6">
      <!-- 22 -->
      <g transform="translate(283.115025 542.877813)scale(0.14 -0.14)">
       <use xlink:href="#DejaVuSans-50"/>
       <use x="63.623047" xlink:href="#DejaVuSans-50"/>
      </g>
     </g>
    </g>
    <g id="xtick_5">
     <g id="line2d_7">
      <g>
       <use style="stroke:#000000;stroke-width:0.8;" x="370.950348" xlink:href="#mbe97fa5c4f" y="525.24"/>
      </g>
     </g>
     <g id="text_7">
      <!-- 24 -->
      <defs>
       <path d="M 37.796875 64.3125 
L 12.890625 25.390625 
L 37.796875 25.390625 
z
M 35.203125 72.90625 
L 47.609375 72.90625 
L 47.609375 25.390625 
L 58.015625 25.390625 
L 58.015625 17.1875 
L 47.609375 17.1875 
L 47.609375 0 
L 37.796875 0 
L 37.796875 17.1875 
L 4.890625 17.1875 
L 4.890625 26.703125 
z
" id="DejaVuSans-52"/>
      </defs>
      <g transform="translate(362.042848 542.877813)scale(0.14 -0.14)">
       <use xlink:href="#DejaVuSans-50"/>
       <use x="63.623047" xlink:href="#DejaVuSans-52"/>
      </g>
     </g>
    </g>
    <g id="xtick_6">
     <g id="line2d_8">
      <g>
       <use style="stroke:#000000;stroke-width:0.8;" x="449.878171" xlink:href="#mbe97fa5c4f" y="525.24"/>
      </g>
     </g>
     <g id="text_8">
      <!-- 26 -->
      <g transform="translate(440.970671 542.877813)scale(0.14 -0.14)">
       <use xlink:href="#DejaVuSans-50"/>
       <use x="63.623047" xlink:href="#DejaVuSans-54"/>
      </g>
     </g>
    </g>
    <g id="xtick_7">
     <g id="line2d_9">
      <g>
       <use style="stroke:#000000;stroke-width:0.8;" x="528.805994" xlink:href="#mbe97fa5c4f" y="525.24"/>
      </g>
     </g>
     <g id="text_9">
      <!-- 28 -->
      <g transform="translate(519.898494 542.877813)scale(0.14 -0.14)">
       <use xlink:href="#DejaVuSans-50"/>
       <use x="63.623047" xlink:href="#DejaVuSans-56"/>
      </g>
     </g>
    </g>
   </g>
   <g id="line2d_10">
    <path clip-path="url(#pa88270555c)" d="M 301.229456 525.24 
L 301.229456 402.93 
" style="fill:none;stroke:#ff6384;stroke-dasharray:5.55,2.4;stroke-dashoffset:0;stroke-opacity:0.8;stroke-width:1.5;"/>
   </g>
   <g id="line2d_11">
    <path clip-path="url(#pa88270555c)" d="M 233.619882 525.24 
L 233.619882 402.93 
" style="fill:none;stroke:#36a2eb;stroke-dasharray:5.55,2.4;stroke-dashoffset:0;stroke-opacity:0.8;stroke-width:1.5;"/>
   </g>
   <g id="patch_10">
    <path d="M 36 525.24 
L 538.2 525.24 
" style="fill:none;stroke:#000000;stroke-linecap:square;stroke-linejoin:miter;stroke-width:0.8;"/>
   </g>
  </g>
 </g>
 <defs>
  <clipPath id="pe2823bc07e">
   <rect height="366.93" width="502.2" x="36" y="36"/>
  </clipPath>
  <clipPath id="pa88270555c">
   <rect height="122.31" width="502.2" x="36" y="402.93"/>
  </clipPath>
 </defs>
</svg>
