<?xml version="1.0" encoding="utf-8" standalone="no"?>
<!DOCTYPE svg PUBLIC "-//W3C//DTD SVG 1.1//EN"
  "http://www.w3.org/Graphics/SVG/1.1/DTD/svg11.dtd">
<!-- Created with matplotlib (https://matplotlib.org/) -->
<svg height="581.789375pt" version="1.1" viewBox="0 0 574.2 581.789375" width="574.2pt" xmlns="http://www.w3.org/2000/svg" xmlns:xlink="http://www.w3.org/1999/xlink">
 <defs>
  <style type="text/css">
*{stroke-linecap:butt;stroke-linejoin:round;}
  </style>
 </defs>
 <g id="figure_1">
  <g id="patch_1">
   <path d="M 0 581.789375 
L 574.2 581.789375 
L 574.2 0 
L 0 0 
z
" style="fill:none;"/>
  </g>
  <g id="axes_1">
   <g id="patch_2">
    <path d="M 36 402.93 
L 538.2 402.93 
L 538.2 36 
L 36 36 
z
" style="fill:none;"/>
   </g>
   <g id="PolyCollection_1">
    <defs>
     <path d="M 58.827273 -195.538011 
L 58.827273 -195.645897 
L 62.994109 -195.686579 
L 67.160946 -195.74127 
L 71.327782 -195.814283 
L 75.494619 -195.91108 
L 79.661455 -196.038513 
L 83.828292 -196.205103 
L 87.995128 -196.421356 
L 92.161965 -196.700099 
L 96.328801 -197.056849 
L 100.495637 -197.510199 
L 104.662474 -198.082199 
L 108.82931 -198.798735 
L 112.996147 -199.689874 
L 117.162983 -200.790149 
L 121.32982 -202.138762 
L 125.496656 -203.779669 
L 129.663493 -205.761519 
L 133.830329 -208.137396 
L 137.997166 -210.964349 
L 142.164002 -214.302659 
L 146.330839 -218.214828 
L 150.497675 -222.764261 
L 154.664512 -228.013647 
L 158.831348 -234.023018 
L 162.998185 -240.84754 
L 167.165021 -248.535052 
L 171.331858 -257.123411 
L 175.498694 -266.637748 
L 179.665531 -277.087699 
L 183.832367 -288.464749 
L 187.999203 -300.739809 
L 192.16604 -313.861159 
L 196.332876 -327.752894 
L 200.499713 -342.314014 
L 204.666549 -357.418254 
L 208.833386 -372.914773 
L 213.000222 -388.629741 
L 217.167059 -404.368886 
L 221.333895 -419.920945 
L 225.500732 -435.062001 
L 229.667568 -449.560573 
L 233.834405 -463.183328 
L 238.001241 -475.701208 
L 242.168078 -486.895779 
L 246.334914 -496.56553 
L 250.501751 -504.53189 
L 254.668587 -510.644709 
L 258.835424 -514.786959 
L 263.00226 -516.878458 
L 267.169097 -516.878458 
L 271.335933 -514.786959 
L 275.502769 -510.644709 
L 279.669606 -504.53189 
L 283.836442 -496.56553 
L 288.003279 -486.895779 
L 292.170115 -475.701208 
L 296.336952 -463.183328 
L 300.503788 -449.560573 
L 304.670625 -435.062001 
L 308.837461 -419.920945 
L 313.004298 -404.368886 
L 317.171134 -388.629741 
L 321.337971 -372.914773 
L 325.504807 -357.418254 
L 329.671644 -342.314014 
L 333.83848 -327.752894 
L 338.005317 -313.861159 
L 342.172153 -300.739809 
L 346.33899 -288.464749 
L 350.505826 -277.087699 
L 354.672663 -266.637748 
L 358.839499 -257.123411 
L 363.006335 -248.535052 
L 367.173172 -240.84754 
L 371.340008 -234.023018 
L 375.506845 -228.013647 
L 379.673681 -222.764261 
L 383.840518 -218.214828 
L 388.007354 -214.302659 
L 392.174191 -210.964349 
L 396.341027 -208.137396 
L 400.507864 -205.761519 
L 404.6747 -203.779669 
L 408.841537 -202.138762 
L 413.008373 -200.790149 
L 417.17521 -199.689874 
L 421.342046 -198.798735 
L 425.508883 -198.082199 
L 429.675719 -197.510199 
L 433.842556 -197.056849 
L 438.009392 -196.700099 
L 442.176229 -196.421356 
L 446.343065 -196.205103 
L 450.509901 -196.038513 
L 454.676738 -195.91108 
L 458.843574 -195.814283 
L 463.010411 -195.74127 
L 467.177247 -195.686579 
L 471.344084 -195.645897 
L 471.344084 -195.538011 
L 471.344084 -195.538011 
L 467.177247 -195.538011 
L 463.010411 -195.538011 
L 458.843574 -195.538011 
L 454.676738 -195.538011 
L 450.509901 -195.538011 
L 446.343065 -195.538011 
L 442.176229 -195.538011 
L 438.009392 -195.538011 
L 433.842556 -195.538011 
L 429.675719 -195.538011 
L 425.508883 -195.538011 
L 421.342046 -195.538011 
L 417.17521 -195.538011 
L 413.008373 -195.538011 
L 408.841537 -195.538011 
L 404.6747 -195.538011 
L 400.507864 -195.538011 
L 396.341027 -195.538011 
L 392.174191 -195.538011 
L 388.007354 -195.538011 
L 383.840518 -195.538011 
L 379.673681 -195.538011 
L 375.506845 -195.538011 
L 371.340008 -195.538011 
L 367.173172 -195.538011 
L 363.006335 -195.538011 
L 358.839499 -195.538011 
L 354.672663 -195.538011 
L 350.505826 -195.538011 
L 346.33899 -195.538011 
L 342.172153 -195.538011 
L 338.005317 -195.538011 
L 333.83848 -195.538011 
L 329.671644 -195.538011 
L 325.504807 -195.538011 
L 321.337971 -195.538011 
L 317.171134 -195.538011 
L 313.004298 -195.538011 
L 308.837461 -195.538011 
L 304.670625 -195.538011 
L 300.503788 -195.538011 
L 296.336952 -195.538011 
L 292.170115 -195.538011 
L 288.003279 -195.538011 
L 283.836442 -195.538011 
L 279.669606 -195.538011 
L 275.502769 -195.538011 
L 271.335933 -195.538011 
L 267.169097 -195.538011 
L 263.00226 -195.538011 
L 258.835424 -195.538011 
L 254.668587 -195.538011 
L 250.501751 -195.538011 
L 246.334914 -195.538011 
L 242.168078 -195.538011 
L 238.001241 -195.538011 
L 233.834405 -195.538011 
L 229.667568 -195.538011 
L 225.500732 -195.538011 
L 221.333895 -195.538011 
L 217.167059 -195.538011 
L 213.000222 -195.538011 
L 208.833386 -195.538011 
L 204.666549 -195.538011 
L 200.499713 -195.538011 
L 196.332876 -195.538011 
L 192.16604 -195.538011 
L 187.999203 -195.538011 
L 183.832367 -195.538011 
L 179.665531 -195.538011 
L 175.498694 -195.538011 
L 171.331858 -195.538011 
L 167.165021 -195.538011 
L 162.998185 -195.538011 
L 158.831348 -195.538011 
L 154.664512 -195.538011 
L 150.497675 -195.538011 
L 146.330839 -195.538011 
L 142.164002 -195.538011 
L 137.997166 -195.538011 
L 133.830329 -195.538011 
L 129.663493 -195.538011 
L 125.496656 -195.538011 
L 121.32982 -195.538011 
L 117.162983 -195.538011 
L 112.996147 -195.538011 
L 108.82931 -195.538011 
L 104.662474 -195.538011 
L 100.495637 -195.538011 
L 96.328801 -195.538011 
L 92.161965 -195.538011 
L 87.995128 -195.538011 
L 83.828292 -195.538011 
L 79.661455 -195.538011 
L 75.494619 -195.538011 
L 71.327782 -195.538011 
L 67.160946 -195.538011 
L 62.994109 -195.538011 
L 58.827273 -195.538011 
z
" id="mf4fce1b5a7" style="stroke:#ff6384;stroke-opacity:0.5;"/>
    </defs>
    <g clip-path="url(#p11d2638ebf)">
     <use style="fill:#ff6384;fill-opacity:0.5;stroke:#ff6384;stroke-opacity:0.5;" x="0" xlink:href="#mf4fce1b5a7" y="581.789375"/>
    </g>
   </g>
   <g id="PolyCollection_2">
    <defs>
     <path d="M 117.983116 -195.538011 
L 117.983116 -195.650004 
L 121.997152 -195.692234 
L 126.011189 -195.749007 
L 130.025225 -195.8248 
L 134.039262 -195.925281 
L 138.053298 -196.057565 
L 142.067335 -196.230497 
L 146.081371 -196.454982 
L 150.095408 -196.744335 
L 154.109444 -197.114666 
L 158.123481 -197.585273 
L 162.137517 -198.179047 
L 166.151554 -198.922859 
L 170.16559 -199.847921 
L 174.179627 -200.990079 
L 178.193663 -202.390029 
L 182.2077 -204.093399 
L 186.221736 -206.150691 
L 190.235773 -208.617009 
L 194.249809 -211.551575 
L 198.263845 -215.016962 
L 202.277882 -219.078053 
L 206.291918 -223.800667 
L 210.305955 -229.249878 
L 214.319991 -235.488004 
L 218.334028 -242.572312 
L 222.348064 -250.552459 
L 226.362101 -259.467747 
L 230.376137 -269.344261 
L 234.390174 -280.192004 
L 238.40421 -292.002137 
L 242.418247 -304.744465 
L 246.432283 -318.365297 
L 250.44632 -332.785841 
L 254.460356 -347.901251 
L 258.474393 -363.580456 
L 262.488429 -379.666871 
L 266.502466 -395.980052 
L 270.516502 -412.31833 
L 274.530539 -428.4624 
L 278.544575 -444.179822 
L 282.558612 -459.230303 
L 286.572648 -473.371627 
L 290.586684 -486.366018 
L 294.600721 -497.986726 
L 298.614757 -508.02457 
L 302.628794 -516.294181 
L 306.64283 -522.639693 
L 310.656867 -526.939623 
L 314.670903 -529.110739 
L 318.68494 -529.110739 
L 322.698976 -526.939623 
L 326.713013 -522.639693 
L 330.727049 -516.294181 
L 334.741086 -508.02457 
L 338.755122 -497.986726 
L 342.769159 -486.366018 
L 346.783195 -473.371627 
L 350.797232 -459.230303 
L 354.811268 -444.179822 
L 358.825305 -428.4624 
L 362.839341 -412.31833 
L 366.853378 -395.980052 
L 370.867414 -379.666871 
L 374.881451 -363.580456 
L 378.895487 -347.901251 
L 382.909523 -332.785841 
L 386.92356 -318.365297 
L 390.937596 -304.744465 
L 394.951633 -292.002137 
L 398.965669 -280.192004 
L 402.979706 -269.344261 
L 406.993742 -259.467747 
L 411.007779 -250.552459 
L 415.021815 -242.572312 
L 419.035852 -235.488004 
L 423.049888 -229.249878 
L 427.063925 -223.800667 
L 431.077961 -219.078053 
L 435.091998 -215.016962 
L 439.106034 -211.551575 
L 443.120071 -208.617009 
L 447.134107 -206.150691 
L 451.148144 -204.093399 
L 455.16218 -202.390029 
L 459.176217 -200.990079 
L 463.190253 -199.847921 
L 467.20429 -198.922859 
L 471.218326 -198.179047 
L 475.232362 -197.585273 
L 479.246399 -197.114666 
L 483.260435 -196.744335 
L 487.274472 -196.454982 
L 491.288508 -196.230497 
L 495.302545 -196.057565 
L 499.316581 -195.925281 
L 503.330618 -195.8248 
L 507.344654 -195.749007 
L 511.358691 -195.692234 
L 515.372727 -195.650004 
L 515.372727 -195.538011 
L 515.372727 -195.538011 
L 511.358691 -195.538011 
L 507.344654 -195.538011 
L 503.330618 -195.538011 
L 499.316581 -195.538011 
L 495.302545 -195.538011 
L 491.288508 -195.538011 
L 487.274472 -195.538011 
L 483.260435 -195.538011 
L 479.246399 -195.538011 
L 475.232362 -195.538011 
L 471.218326 -195.538011 
L 467.20429 -195.538011 
L 463.190253 -195.538011 
L 459.176217 -195.538011 
L 455.16218 -195.538011 
L 451.148144 -195.538011 
L 447.134107 -195.538011 
L 443.120071 -195.538011 
L 439.106034 -195.538011 
L 435.091998 -195.538011 
L 431.077961 -195.538011 
L 427.063925 -195.538011 
L 423.049888 -195.538011 
L 419.035852 -195.538011 
L 415.021815 -195.538011 
L 411.007779 -195.538011 
L 406.993742 -195.538011 
L 402.979706 -195.538011 
L 398.965669 -195.538011 
L 394.951633 -195.538011 
L 390.937596 -195.538011 
L 386.92356 -195.538011 
L 382.909523 -195.538011 
L 378.895487 -195.538011 
L 374.881451 -195.538011 
L 370.867414 -195.538011 
L 366.853378 -195.538011 
L 362.839341 -195.538011 
L 358.825305 -195.538011 
L 354.811268 -195.538011 
L 350.797232 -195.538011 
L 346.783195 -195.538011 
L 342.769159 -195.538011 
L 338.755122 -195.538011 
L 334.741086 -195.538011 
L 330.727049 -195.538011 
L 326.713013 -195.538011 
L 322.698976 -195.538011 
L 318.68494 -195.538011 
L 314.670903 -195.538011 
L 310.656867 -195.538011 
L 306.64283 -195.538011 
L 302.628794 -195.538011 
L 298.614757 -195.538011 
L 294.600721 -195.538011 
L 290.586684 -195.538011 
L 286.572648 -195.538011 
L 282.558612 -195.538011 
L 278.544575 -195.538011 
L 274.530539 -195.538011 
L 270.516502 -195.538011 
L 266.502466 -195.538011 
L 262.488429 -195.538011 
L 258.474393 -195.538011 
L 254.460356 -195.538011 
L 250.44632 -195.538011 
L 246.432283 -195.538011 
L 242.418247 -195.538011 
L 238.40421 -195.538011 
L 234.390174 -195.538011 
L 230.376137 -195.538011 
L 226.362101 -195.538011 
L 222.348064 -195.538011 
L 218.334028 -195.538011 
L 214.319991 -195.538011 
L 210.305955 -195.538011 
L 206.291918 -195.538011 
L 202.277882 -195.538011 
L 198.263845 -195.538011 
L 194.249809 -195.538011 
L 190.235773 -195.538011 
L 186.221736 -195.538011 
L 182.2077 -195.538011 
L 178.193663 -195.538011 
L 174.179627 -195.538011 
L 170.16559 -195.538011 
L 166.151554 -195.538011 
L 162.137517 -195.538011 
L 158.123481 -195.538011 
L 154.109444 -195.538011 
L 150.095408 -195.538011 
L 146.081371 -195.538011 
L 142.067335 -195.538011 
L 138.053298 -195.538011 
L 134.039262 -195.538011 
L 130.025225 -195.538011 
L 126.011189 -195.538011 
L 121.997152 -195.538011 
L 117.983116 -195.538011 
z
" id="m3e7d376971" style="stroke:#36a2eb;stroke-opacity:0.5;"/>
    </defs>
    <g clip-path="url(#p11d2638ebf)">
     <use style="fill:#36a2eb;fill-opacity:0.5;stroke:#36a2eb;stroke-opacity:0.5;" x="0" xlink:href="#m3e7d376971" y="581.789375"/>
    </g>
   </g>
   <g id="line2d_1">
    <path clip-path="url(#p11d2638ebf)" d="M 58.827273 386.143478 
L 62.994109 386.102796 
L 67.160946 386.048105 
L 71.327782 385.975092 
L 75.494619 385.878295 
L 79.661455 385.750862 
L 83.828292 385.584272 
L 87.995128 385.368019 
L 92.161965 385.089276 
L 96.328801 384.732526 
L 100.495637 384.279176 
L 104.662474 383.707176 
L 108.82931 382.99064 
L 112.996147 382.099501 
L 117.162983 380.999226 
L 121.32982 379.650613 
L 125.496656 378.009706 
L 129.663493 376.027856 
L 133.830329 373.651979 
L 137.997166 370.825026 
L 142.164002 367.486716 
L 146.330839 363.574547 
L 150.497675 359.025114 
L 154.664512 353.775728 
L 158.831348 347.766357 
L 162.998185 340.941835 
L 167.165021 333.254323 
L 171.331858 324.665964 
L 175.498694 315.151627 
L 179.665531 304.701676 
L 183.832367 293.324626 
L 187.999203 281.049566 
L 192.16604 267.928216 
L 196.332876 254.036481 
L 200.499713 239.475361 
L 204.666549 224.371121 
L 208.833386 208.874602 
L 213.000222 193.159634 
L 217.167059 177.420489 
L 221.333895 161.86843 
L 225.500732 146.727374 
L 229.667568 132.228802 
L 233.834405 118.606047 
L 238.001241 106.088167 
L 242.168078 94.893596 
L 246.334914 85.223845 
L 250.501751 77.257485 
L 254.668587 71.144666 
L 258.835424 67.002416 
L 263.00226 64.910917 
L 267.169097 64.910917 
L 271.335933 67.002416 
L 275.502769 71.144666 
L 279.669606 77.257485 
L 283.836442 85.223845 
L 288.003279 94.893596 
L 292.170115 106.088167 
L 296.336952 118.606047 
L 300.503788 132.228802 
L 304.670625 146.727374 
L 308.837461 161.86843 
L 313.004298 177.420489 
L 317.171134 193.159634 
L 321.337971 208.874602 
L 325.504807 224.371121 
L 329.671644 239.475361 
L 333.83848 254.036481 
L 338.005317 267.928216 
L 342.172153 281.049566 
L 346.33899 293.324626 
L 350.505826 304.701676 
L 354.672663 315.151627 
L 358.839499 324.665964 
L 363.006335 333.254323 
L 367.173172 340.941835 
L 371.340008 347.766357 
L 375.506845 353.775728 
L 379.673681 359.025114 
L 383.840518 363.574547 
L 388.007354 367.486716 
L 392.174191 370.825026 
L 396.341027 373.651979 
L 400.507864 376.027856 
L 404.6747 378.009706 
L 408.841537 379.650613 
L 413.008373 380.999226 
L 417.17521 382.099501 
L 421.342046 382.99064 
L 425.508883 383.707176 
L 429.675719 384.279176 
L 433.842556 384.732526 
L 438.009392 385.089276 
L 442.176229 385.368019 
L 446.343065 385.584272 
L 450.509901 385.750862 
L 454.676738 385.878295 
L 458.843574 385.975092 
L 463.010411 386.048105 
L 467.177247 386.102796 
L 471.344084 386.143478 
" style="fill:none;stroke:#ff6384;stroke-linecap:square;"/>
   </g>
   <g id="line2d_2">
    <path clip-path="url(#p11d2638ebf)" d="M 117.983116 386.139371 
L 121.997152 386.097141 
L 126.011189 386.040368 
L 130.025225 385.964575 
L 134.039262 385.864094 
L 138.053298 385.73181 
L 142.067335 385.558878 
L 146.081371 385.334393 
L 150.095408 385.04504 
L 154.109444 384.674709 
L 158.123481 384.204102 
L 162.137517 383.610328 
L 166.151554 382.866516 
L 170.16559 381.941454 
L 174.179627 380.799296 
L 178.193663 379.399346 
L 182.2077 377.695976 
L 186.221736 375.638684 
L 190.235773 373.172366 
L 194.249809 370.2378 
L 198.263845 366.772413 
L 202.277882 362.711322 
L 206.291918 357.988708 
L 210.305955 352.539497 
L 214.319991 346.301371 
L 218.334028 339.217063 
L 222.348064 331.236916 
L 226.362101 322.321628 
L 230.376137 312.445114 
L 234.390174 301.597371 
L 238.40421 289.787238 
L 242.418247 277.04491 
L 246.432283 263.424078 
L 250.44632 249.003534 
L 254.460356 233.888124 
L 258.474393 218.208919 
L 262.488429 202.122504 
L 266.502466 185.809323 
L 270.516502 169.471045 
L 274.530539 153.326975 
L 278.544575 137.609553 
L 282.558612 122.559072 
L 286.572648 108.417748 
L 290.586684 95.423357 
L 294.600721 83.802649 
L 298.614757 73.764805 
L 302.628794 65.495194 
L 306.64283 59.149682 
L 310.656867 54.849752 
L 314.670903 52.678636 
L 318.68494 52.678636 
L 322.698976 54.849752 
L 326.713013 59.149682 
L 330.727049 65.495194 
L 334.741086 73.764805 
L 338.755122 83.802649 
L 342.769159 95.423357 
L 346.783195 108.417748 
L 350.797232 122.559072 
L 354.811268 137.609553 
L 358.825305 153.326975 
L 362.839341 169.471045 
L 366.853378 185.809323 
L 370.867414 202.122504 
L 374.881451 218.208919 
L 378.895487 233.888124 
L 382.909523 249.003534 
L 386.92356 263.424078 
L 390.937596 277.04491 
L 394.951633 289.787238 
L 398.965669 301.597371 
L 402.979706 312.445114 
L 406.993742 322.321628 
L 411.007779 331.236916 
L 415.021815 339.217063 
L 419.035852 346.301371 
L 423.049888 352.539497 
L 427.063925 357.988708 
L 431.077961 362.711322 
L 435.091998 366.772413 
L 439.106034 370.2378 
L 443.120071 373.172366 
L 447.134107 375.638684 
L 451.148144 377.695976 
L 455.16218 379.399346 
L 459.176217 380.799296 
L 463.190253 381.941454 
L 467.20429 382.866516 
L 471.218326 383.610328 
L 475.232362 384.204102 
L 479.246399 384.674709 
L 483.260435 385.04504 
L 487.274472 385.334393 
L 491.288508 385.558878 
L 495.302545 385.73181 
L 499.316581 385.864094 
L 503.330618 385.964575 
L 507.344654 386.040368 
L 511.358691 386.097141 
L 515.372727 386.139371 
" style="fill:none;stroke:#36a2eb;stroke-linecap:square;"/>
   </g>
   <g id="patch_3">
    <path d="M 36 402.93 
L 538.2 402.93 
" style="fill:none;stroke:#000000;stroke-linecap:square;stroke-linejoin:miter;stroke-width:0.8;"/>
   </g>
   <g id="legend_1">
    <g id="patch_4">
     <path d="M 450.225313 88.29875 
L 528.4 88.29875 
Q 531.2 88.29875 531.2 85.49875 
L 531.2 45.8 
Q 531.2 43 528.4 43 
L 450.225313 43 
Q 447.425313 43 447.425313 45.8 
L 447.425313 85.49875 
Q 447.425313 88.29875 450.225313 88.29875 
z
" style="fill:#ffffff;opacity:0.8;stroke:#cccccc;stroke-linejoin:miter;"/>
    </g>
    <g id="patch_5">
     <path d="M 453.025313 59.237813 
L 481.025313 59.237813 
L 481.025313 49.437813 
L 453.025313 49.437813 
z
" style="fill:#ff6384;opacity:0.5;stroke:#ff6384;stroke-linejoin:miter;"/>
    </g>
    <g id="text_1">
     <!-- base -->
     <defs>
      <path d="M 48.6875 27.296875 
Q 48.6875 37.203125 44.609375 42.84375 
Q 40.53125 48.484375 33.40625 48.484375 
Q 26.265625 48.484375 22.1875 42.84375 
Q 18.109375 37.203125 18.109375 27.296875 
Q 18.109375 17.390625 22.1875 11.75 
Q 26.265625 6.109375 33.40625 6.109375 
Q 40.53125 6.109375 44.609375 11.75 
Q 48.6875 17.390625 48.6875 27.296875 
z
M 18.109375 46.390625 
Q 20.953125 51.265625 25.265625 53.625 
Q 29.59375 56 35.59375 56 
Q 45.5625 56 51.78125 48.09375 
Q 58.015625 40.1875 58.015625 27.296875 
Q 58.015625 14.40625 51.78125 6.484375 
Q 45.5625 -1.421875 35.59375 -1.421875 
Q 29.59375 -1.421875 25.265625 0.953125 
Q 20.953125 3.328125 18.109375 8.203125 
L 18.109375 0 
L 9.078125 0 
L 9.078125 75.984375 
L 18.109375 75.984375 
z
" id="DejaVuSans-98"/>
      <path d="M 34.28125 27.484375 
Q 23.390625 27.484375 19.1875 25 
Q 14.984375 22.515625 14.984375 16.5 
Q 14.984375 11.71875 18.140625 8.90625 
Q 21.296875 6.109375 26.703125 6.109375 
Q 34.1875 6.109375 38.703125 11.40625 
Q 43.21875 16.703125 43.21875 25.484375 
L 43.21875 27.484375 
z
M 52.203125 31.203125 
L 52.203125 0 
L 43.21875 0 
L 43.21875 8.296875 
Q 40.140625 3.328125 35.546875 0.953125 
Q 30.953125 -1.421875 24.3125 -1.421875 
Q 15.921875 -1.421875 10.953125 3.296875 
Q 6 8.015625 6 15.921875 
Q 6 25.140625 12.171875 29.828125 
Q 18.359375 34.515625 30.609375 34.515625 
L 43.21875 34.515625 
L 43.21875 35.40625 
Q 43.21875 41.609375 39.140625 45 
Q 35.0625 48.390625 27.6875 48.390625 
Q 23 48.390625 18.546875 47.265625 
Q 14.109375 46.140625 10.015625 43.890625 
L 10.015625 52.203125 
Q 14.9375 54.109375 19.578125 55.046875 
Q 24.21875 56 28.609375 56 
Q 40.484375 56 46.34375 49.84375 
Q 52.203125 43.703125 52.203125 31.203125 
z
" id="DejaVuSans-97"/>
      <path d="M 44.28125 53.078125 
L 44.28125 44.578125 
Q 40.484375 46.53125 36.375 47.5 
Q 32.28125 48.484375 27.875 48.484375 
Q 21.1875 48.484375 17.84375 46.4375 
Q 14.5 44.390625 14.5 40.28125 
Q 14.5 37.15625 16.890625 35.375 
Q 19.28125 33.59375 26.515625 31.984375 
L 29.59375 31.296875 
Q 39.15625 29.25 43.1875 25.515625 
Q 47.21875 21.78125 47.21875 15.09375 
Q 47.21875 7.46875 41.1875 3.015625 
Q 35.15625 -1.421875 24.609375 -1.421875 
Q 20.21875 -1.421875 15.453125 -0.5625 
Q 10.6875 0.296875 5.421875 2 
L 5.421875 11.28125 
Q 10.40625 8.6875 15.234375 7.390625 
Q 20.0625 6.109375 24.8125 6.109375 
Q 31.15625 6.109375 34.5625 8.28125 
Q 37.984375 10.453125 37.984375 14.40625 
Q 37.984375 18.0625 35.515625 20.015625 
Q 33.0625 21.96875 24.703125 23.78125 
L 21.578125 24.515625 
Q 13.234375 26.265625 9.515625 29.90625 
Q 5.8125 33.546875 5.8125 39.890625 
Q 5.8125 47.609375 11.28125 51.796875 
Q 16.75 56 26.8125 56 
Q 31.78125 56 36.171875 55.265625 
Q 40.578125 54.546875 44.28125 53.078125 
z
" id="DejaVuSans-115"/>
      <path d="M 56.203125 29.59375 
L 56.203125 25.203125 
L 14.890625 25.203125 
Q 15.484375 15.921875 20.484375 11.0625 
Q 25.484375 6.203125 34.421875 6.203125 
Q 39.59375 6.203125 44.453125 7.46875 
Q 49.3125 8.734375 54.109375 11.28125 
L 54.109375 2.78125 
Q 49.265625 0.734375 44.1875 -0.34375 
Q 39.109375 -1.421875 33.890625 -1.421875 
Q 20.796875 -1.421875 13.15625 6.1875 
Q 5.515625 13.8125 5.515625 26.8125 
Q 5.515625 40.234375 12.765625 48.109375 
Q 20.015625 56 32.328125 56 
Q 43.359375 56 49.78125 48.890625 
Q 56.203125 41.796875 56.203125 29.59375 
z
M 47.21875 32.234375 
Q 47.125 39.59375 43.09375 43.984375 
Q 39.0625 48.390625 32.421875 48.390625 
Q 24.90625 48.390625 20.390625 44.140625 
Q 15.875 39.890625 15.1875 32.171875 
z
" id="DejaVuSans-101"/>
     </defs>
     <g transform="translate(492.225313 59.237813)scale(0.14 -0.14)">
      <use xlink:href="#DejaVuSans-98"/>
      <use x="63.476562" xlink:href="#DejaVuSans-97"/>
      <use x="124.755859" xlink:href="#DejaVuSans-115"/>
      <use x="176.855469" xlink:href="#DejaVuSans-101"/>
     </g>
    </g>
    <g id="patch_6">
     <path d="M 453.025313 79.787188 
L 481.025313 79.787188 
L 481.025313 69.987188 
L 453.025313 69.987188 
z
" style="fill:#36a2eb;opacity:0.5;stroke:#36a2eb;stroke-linejoin:miter;"/>
    </g>
    <g id="text_2">
     <!-- new -->
     <defs>
      <path d="M 54.890625 33.015625 
L 54.890625 0 
L 45.90625 0 
L 45.90625 32.71875 
Q 45.90625 40.484375 42.875 44.328125 
Q 39.84375 48.1875 33.796875 48.1875 
Q 26.515625 48.1875 22.3125 43.546875 
Q 18.109375 38.921875 18.109375 30.90625 
L 18.109375 0 
L 9.078125 0 
L 9.078125 54.6875 
L 18.109375 54.6875 
L 18.109375 46.1875 
Q 21.34375 51.125 25.703125 53.5625 
Q 30.078125 56 35.796875 56 
Q 45.21875 56 50.046875 50.171875 
Q 54.890625 44.34375 54.890625 33.015625 
z
" id="DejaVuSans-110"/>
      <path d="M 4.203125 54.6875 
L 13.1875 54.6875 
L 24.421875 12.015625 
L 35.59375 54.6875 
L 46.1875 54.6875 
L 57.421875 12.015625 
L 68.609375 54.6875 
L 77.59375 54.6875 
L 63.28125 0 
L 52.6875 0 
L 40.921875 44.828125 
L 29.109375 0 
L 18.5 0 
z
" id="DejaVuSans-119"/>
     </defs>
     <g transform="translate(492.225313 79.787188)scale(0.14 -0.14)">
      <use xlink:href="#DejaVuSans-110"/>
      <use x="63.378906" xlink:href="#DejaVuSans-101"/>
      <use x="124.902344" xlink:href="#DejaVuSans-119"/>
     </g>
    </g>
   </g>
  </g>
  <g id="axes_2">
   <g id="patch_7">
    <path d="M 36 525.24 
L 538.2 525.24 
L 538.2 402.93 
L 36 402.93 
z
" style="fill:none;"/>
   </g>
   <g id="patch_8">
    <path clip-path="url(#pb05da024bb)" d="M 164.01906 519.680455 
L 366.152297 519.680455 
L 366.152297 482.616818 
L 164.01906 482.616818 
z
" style="fill:#ff6384;opacity:0.5;"/>
   </g>
   <g id="patch_9">
    <path clip-path="url(#pb05da024bb)" d="M 219.317467 445.553182 
L 414.038376 445.553182 
L 414.038376 408.489545 
L 219.317467 408.489545 
z
" style="fill:#36a2eb;opacity:0.5;"/>
   </g>
   <g id="matplotlib.axis_1">
    <g id="xtick_1">
     <g id="line2d_3">
      <defs>
       <path d="M 0 0 
L 0 3.5 
" id="m2c16bc8f94" style="stroke:#000000;stroke-width:0.8;"/>
      </defs>
      <g>
       <use style="stroke:#000000;stroke-width:0.8;" x="65.915623" xlink:href="#m2c16bc8f94" y="525.24"/>
      </g>
     </g>
     <g id="text_3">
      <!-- 10.5 -->
      <defs>
       <path d="M 12.40625 8.296875 
L 28.515625 8.296875 
L 28.515625 63.921875 
L 10.984375 60.40625 
L 10.984375 69.390625 
L 28.421875 72.90625 
L 38.28125 72.90625 
L 38.28125 8.296875 
L 54.390625 8.296875 
L 54.390625 0 
L 12.40625 0 
z
" id="DejaVuSans-49"/>
       <path d="M 31.78125 66.40625 
Q 24.171875 66.40625 20.328125 58.90625 
Q 16.5 51.421875 16.5 36.375 
Q 16.5 21.390625 20.328125 13.890625 
Q 24.171875 6.390625 31.78125 6.390625 
Q 39.453125 6.390625 43.28125 13.890625 
Q 47.125 21.390625 47.125 36.375 
Q 47.125 51.421875 43.28125 58.90625 
Q 39.453125 66.40625 31.78125 66.40625 
z
M 31.78125 74.21875 
Q 44.046875 74.21875 50.515625 64.515625 
Q 56.984375 54.828125 56.984375 36.375 
Q 56.984375 17.96875 50.515625 8.265625 
Q 44.046875 -1.421875 31.78125 -1.421875 
Q 19.53125 -1.421875 13.0625 8.265625 
Q 6.59375 17.96875 6.59375 36.375 
Q 6.59375 54.828125 13.0625 64.515625 
Q 19.53125 74.21875 31.78125 74.21875 
z
" id="DejaVuSans-48"/>
       <path d="M 10.6875 12.40625 
L 21 12.40625 
L 21 0 
L 10.6875 0 
z
" id="DejaVuSans-46"/>
       <path d="M 10.796875 72.90625 
L 49.515625 72.90625 
L 49.515625 64.59375 
L 19.828125 64.59375 
L 19.828125 46.734375 
Q 21.96875 47.46875 24.109375 47.828125 
Q 26.265625 48.1875 28.421875 48.1875 
Q 40.625 48.1875 47.75 41.5 
Q 54.890625 34.8125 54.890625 23.390625 
Q 54.890625 11.625 47.5625 5.09375 
Q 40.234375 -1.421875 26.90625 -1.421875 
Q 22.3125 -1.421875 17.546875 -0.640625 
Q 12.796875 0.140625 7.71875 1.703125 
L 7.71875 11.625 
Q 12.109375 9.234375 16.796875 8.0625 
Q 21.484375 6.890625 26.703125 6.890625 
Q 35.15625 6.890625 40.078125 11.328125 
Q 45.015625 15.765625 45.015625 23.390625 
Q 45.015625 31 40.078125 35.4375 
Q 35.15625 39.890625 26.703125 39.890625 
Q 22.75 39.890625 18.8125 39.015625 
Q 14.890625 38.140625 10.796875 36.28125 
z
" id="DejaVuSans-53"/>
      </defs>
      <g transform="translate(50.329685 542.877813)scale(0.14 -0.14)">
       <use xlink:href="#DejaVuSans-49"/>
       <use x="63.623047" xlink:href="#DejaVuSans-48"/>
       <use x="127.246094" xlink:href="#DejaVuSans-46"/>
       <use x="159.033203" xlink:href="#DejaVuSans-53"/>
      </g>
     </g>
    </g>
    <g id="xtick_2">
     <g id="line2d_4">
      <g>
       <use style="stroke:#000000;stroke-width:0.8;" x="125.906603" xlink:href="#m2c16bc8f94" y="525.24"/>
      </g>
     </g>
     <g id="text_4">
      <!-- 11.0 -->
      <g transform="translate(110.320666 542.877813)scale(0.14 -0.14)">
       <use xlink:href="#DejaVuSans-49"/>
       <use x="63.623047" xlink:href="#DejaVuSans-49"/>
       <use x="127.246094" xlink:href="#DejaVuSans-46"/>
       <use x="159.033203" xlink:href="#DejaVuSans-48"/>
      </g>
     </g>
    </g>
    <g id="xtick_3">
     <g id="line2d_5">
      <g>
       <use style="stroke:#000000;stroke-width:0.8;" x="185.897584" xlink:href="#m2c16bc8f94" y="525.24"/>
      </g>
     </g>
     <g id="text_5">
      <!-- 11.5 -->
      <g transform="translate(170.311646 542.877813)scale(0.14 -0.14)">
       <use xlink:href="#DejaVuSans-49"/>
       <use x="63.623047" xlink:href="#DejaVuSans-49"/>
       <use x="127.246094" xlink:href="#DejaVuSans-46"/>
       <use x="159.033203" xlink:href="#DejaVuSans-53"/>
      </g>
     </g>
    </g>
    <g id="xtick_4">
     <g id="line2d_6">
      <g>
       <use style="stroke:#000000;stroke-width:0.8;" x="245.888565" xlink:href="#m2c16bc8f94" y="525.24"/>
      </g>
     </g>
     <g id="text_6">
      <!-- 12.0 -->
      <defs>
       <path d="M 19.1875 8.296875 
L 53.609375 8.296875 
L 53.609375 0 
L 7.328125 0 
L 7.328125 8.296875 
Q 12.9375 14.109375 22.625 23.890625 
Q 32.328125 33.6875 34.8125 36.53125 
Q 39.546875 41.84375 41.421875 45.53125 
Q 43.3125 49.21875 43.3125 52.78125 
Q 43.3125 58.59375 39.234375 62.25 
Q 35.15625 65.921875 28.609375 65.921875 
Q 23.96875 65.921875 18.8125 64.3125 
Q 13.671875 62.703125 7.8125 59.421875 
L 7.8125 69.390625 
Q 13.765625 71.78125 18.9375 73 
Q 24.125 74.21875 28.421875 74.21875 
Q 39.75 74.21875 46.484375 68.546875 
Q 53.21875 62.890625 53.21875 53.421875 
Q 53.21875 48.921875 51.53125 44.890625 
Q 49.859375 40.875 45.40625 35.40625 
Q 44.1875 33.984375 37.640625 27.21875 
Q 31.109375 20.453125 19.1875 8.296875 
z
" id="DejaVuSans-50"/>
      </defs>
      <g transform="translate(230.302627 542.877813)scale(0.14 -0.14)">
       <use xlink:href="#DejaVuSans-49"/>
       <use x="63.623047" xlink:href="#DejaVuSans-50"/>
       <use x="127.246094" xlink:href="#DejaVuSans-46"/>
       <use x="159.033203" xlink:href="#DejaVuSans-48"/>
      </g>
     </g>
    </g>
    <g id="xtick_5">
     <g id="line2d_7">
      <g>
       <use style="stroke:#000000;stroke-width:0.8;" x="305.879545" xlink:href="#m2c16bc8f94" y="525.24"/>
      </g>
     </g>
     <g id="text_7">
      <!-- 12.5 -->
      <g transform="translate(290.293608 542.877813)scale(0.14 -0.14)">
       <use xlink:href="#DejaVuSans-49"/>
       <use x="63.623047" xlink:href="#DejaVuSans-50"/>
       <use x="127.246094" xlink:href="#DejaVuSans-46"/>
       <use x="159.033203" xlink:href="#DejaVuSans-53"/>
      </g>
     </g>
    </g>
    <g id="xtick_6">
     <g id="line2d_8">
      <g>
       <use style="stroke:#000000;stroke-width:0.8;" x="365.870526" xlink:href="#m2c16bc8f94" y="525.24"/>
      </g>
     </g>
     <g id="text_8">
      <!-- 13.0 -->
      <defs>
       <path d="M 40.578125 39.3125 
Q 47.65625 37.796875 51.625 33 
Q 55.609375 28.21875 55.609375 21.1875 
Q 55.609375 10.40625 48.1875 4.484375 
Q 40.765625 -1.421875 27.09375 -1.421875 
Q 22.515625 -1.421875 17.65625 -0.515625 
Q 12.796875 0.390625 7.625 2.203125 
L 7.625 11.71875 
Q 11.71875 9.328125 16.59375 8.109375 
Q 21.484375 6.890625 26.8125 6.890625 
Q 36.078125 6.890625 40.9375 10.546875 
Q 45.796875 14.203125 45.796875 21.1875 
Q 45.796875 27.640625 41.28125 31.265625 
Q 36.765625 34.90625 28.71875 34.90625 
L 20.21875 34.90625 
L 20.21875 43.015625 
L 29.109375 43.015625 
Q 36.375 43.015625 40.234375 45.921875 
Q 44.09375 48.828125 44.09375 54.296875 
Q 44.09375 59.90625 40.109375 62.90625 
Q 36.140625 65.921875 28.71875 65.921875 
Q 24.65625 65.921875 20.015625 65.03125 
Q 15.375 64.15625 9.8125 62.3125 
L 9.8125 71.09375 
Q 15.4375 72.65625 20.34375 73.4375 
Q 25.25 74.21875 29.59375 74.21875 
Q 40.828125 74.21875 47.359375 69.109375 
Q 53.90625 64.015625 53.90625 55.328125 
Q 53.90625 49.265625 50.4375 45.09375 
Q 46.96875 40.921875 40.578125 39.3125 
z
" id="DejaVuSans-51"/>
      </defs>
      <g transform="translate(350.284588 542.877813)scale(0.14 -0.14)">
       <use xlink:href="#DejaVuSans-49"/>
       <use x="63.623047" xlink:href="#DejaVuSans-51"/>
       <use x="127.246094" xlink:href="#DejaVuSans-46"/>
       <use x="159.033203" xlink:href="#DejaVuSans-48"/>
      </g>
     </g>
    </g>
    <g id="xtick_7">
     <g id="line2d_9">
      <g>
       <use style="stroke:#000000;stroke-width:0.8;" x="425.861506" xlink:href="#m2c16bc8f94" y="525.24"/>
      </g>
     </g>
     <g id="text_9">
      <!-- 13.5 -->
      <g transform="translate(410.275569 542.877813)scale(0.14 -0.14)">
       <use xlink:href="#DejaVuSans-49"/>
       <use x="63.623047" xlink:href="#DejaVuSans-51"/>
       <use x="127.246094" xlink:href="#DejaVuSans-46"/>
       <use x="159.033203" xlink:href="#DejaVuSans-53"/>
      </g>
     </g>
    </g>
    <g id="xtick_8">
     <g id="line2d_10">
      <g>
       <use style="stroke:#000000;stroke-width:0.8;" x="485.852487" xlink:href="#m2c16bc8f94" y="525.24"/>
      </g>
     </g>
     <g id="text_10">
      <!-- 14.0 -->
      <defs>
       <path d="M 37.796875 64.3125 
L 12.890625 25.390625 
L 37.796875 25.390625 
z
M 35.203125 72.90625 
L 47.609375 72.90625 
L 47.609375 25.390625 
L 58.015625 25.390625 
L 58.015625 17.1875 
L 47.609375 17.1875 
L 47.609375 0 
L 37.796875 0 
L 37.796875 17.1875 
L 4.890625 17.1875 
L 4.890625 26.703125 
z
" id="DejaVuSans-52"/>
      </defs>
      <g transform="translate(470.266549 542.877813)scale(0.14 -0.14)">
       <use xlink:href="#DejaVuSans-49"/>
       <use x="63.623047" xlink:href="#DejaVuSans-52"/>
       <use x="127.246094" xlink:href="#DejaVuSans-46"/>
       <use x="159.033203" xlink:href="#DejaVuSans-48"/>
      </g>
     </g>
    </g>
   </g>
   <g id="line2d_11">
    <path clip-path="url(#pb05da024bb)" d="M 265.085678 525.24 
L 265.085678 402.93 
" style="fill:none;stroke:#ff6384;stroke-dasharray:5.55,2.4;stroke-dashoffset:0;stroke-opacity:0.8;stroke-width:1.5;"/>
   </g>
   <g id="line2d_12">
    <path clip-path="url(#pb05da024bb)" d="M 316.677922 525.24 
L 316.677922 402.93 
" style="fill:none;stroke:#36a2eb;stroke-dasharray:5.55,2.4;stroke-dashoffset:0;stroke-opacity:0.8;stroke-width:1.5;"/>
   </g>
   <g id="patch_10">
    <path d="M 36 525.24 
L 538.2 525.24 
" style="fill:none;stroke:#000000;stroke-linecap:square;stroke-linejoin:miter;stroke-width:0.8;"/>
   </g>
  </g>
 </g>
 <defs>
  <clipPath id="p11d2638ebf">
   <rect height="366.93" width="502.2" x="36" y="36"/>
  </clipPath>
  <clipPath id="pb05da024bb">
   <rect height="122.31" width="502.2" x="36" y="402.93"/>
  </clipPath>
 </defs>
</svg>
