<?xml version="1.0" encoding="utf-8" standalone="no"?>
<!DOCTYPE svg PUBLIC "-//W3C//DTD SVG 1.1//EN"
  "http://www.w3.org/Graphics/SVG/1.1/DTD/svg11.dtd">
<!-- Created with matplotlib (https://matplotlib.org/) -->
<svg height="581.789375pt" version="1.1" viewBox="0 0 574.2 581.789375" width="574.2pt" xmlns="http://www.w3.org/2000/svg" xmlns:xlink="http://www.w3.org/1999/xlink">
 <defs>
  <style type="text/css">
*{stroke-linecap:butt;stroke-linejoin:round;}
  </style>
 </defs>
 <g id="figure_1">
  <g id="patch_1">
   <path d="M 0 581.789375 
L 574.2 581.789375 
L 574.2 0 
L 0 0 
z
" style="fill:none;"/>
  </g>
  <g id="axes_1">
   <g id="patch_2">
    <path d="M 36 402.93 
L 538.2 402.93 
L 538.2 36 
L 36 36 
z
" style="fill:none;"/>
   </g>
   <g id="PolyCollection_1">
    <defs>
     <path d="M 145.208182 -195.538011 
L 145.208182 -195.643282 
L 148.947218 -195.682978 
L 152.686253 -195.736343 
L 156.425289 -195.807586 
L 160.164325 -195.902037 
L 163.903361 -196.02638 
L 167.642397 -196.188933 
L 171.381433 -196.399944 
L 175.120468 -196.67193 
L 178.859504 -197.020033 
L 182.59854 -197.462393 
L 186.337576 -198.020528 
L 190.076612 -198.719695 
L 193.815647 -199.589234 
L 197.554683 -200.662838 
L 201.293719 -201.97876 
L 205.032755 -203.579892 
L 208.771791 -205.513702 
L 212.510826 -207.831988 
L 216.249862 -210.590416 
L 219.988898 -213.847806 
L 223.727934 -217.665144 
L 227.46697 -222.1043 
L 231.206006 -227.226441 
L 234.945041 -233.090146 
L 238.684077 -239.749243 
L 242.423113 -247.25041 
L 246.162149 -255.630588 
L 249.901185 -264.914299 
L 253.64022 -275.110944 
L 257.379256 -286.212216 
L 261.118292 -298.18973 
L 264.857328 -310.99302 
L 268.596364 -324.548021 
L 272.335399 -338.756181 
L 276.074435 -353.494297 
L 279.813471 -368.615181 
L 283.552507 -383.949221 
L 287.291543 -399.306851 
L 291.030579 -414.48193 
L 294.769614 -429.255968 
L 298.50865 -443.403097 
L 302.247686 -456.695638 
L 305.986722 -468.910086 
L 309.725758 -479.833302 
L 313.464793 -489.268659 
L 317.203829 -497.041916 
L 320.942865 -503.006561 
L 324.681901 -507.048403 
L 328.420937 -509.089205 
L 332.159972 -509.089205 
L 335.899008 -507.048403 
L 339.638044 -503.006561 
L 343.37708 -497.041916 
L 347.116116 -489.268659 
L 350.855152 -479.833302 
L 354.594187 -468.910086 
L 358.333223 -456.695638 
L 362.072259 -443.403097 
L 365.811295 -429.255968 
L 369.550331 -414.48193 
L 373.289366 -399.306851 
L 377.028402 -383.949221 
L 380.767438 -368.615181 
L 384.506474 -353.494297 
L 388.24551 -338.756181 
L 391.984545 -324.548021 
L 395.723581 -310.99302 
L 399.462617 -298.18973 
L 403.201653 -286.212216 
L 406.940689 -275.110944 
L 410.679725 -264.914299 
L 414.41876 -255.630588 
L 418.157796 -247.25041 
L 421.896832 -239.749243 
L 425.635868 -233.090146 
L 429.374904 -227.226441 
L 433.113939 -222.1043 
L 436.852975 -217.665144 
L 440.592011 -213.847806 
L 444.331047 -210.590416 
L 448.070083 -207.831988 
L 451.809118 -205.513702 
L 455.548154 -203.579892 
L 459.28719 -201.97876 
L 463.026226 -200.662838 
L 466.765262 -199.589234 
L 470.504298 -198.719695 
L 474.243333 -198.020528 
L 477.982369 -197.462393 
L 481.721405 -197.020033 
L 485.460441 -196.67193 
L 489.199477 -196.399944 
L 492.938512 -196.188933 
L 496.677548 -196.02638 
L 500.416584 -195.902037 
L 504.15562 -195.807586 
L 507.894656 -195.736343 
L 511.633691 -195.682978 
L 515.372727 -195.643282 
L 515.372727 -195.538011 
L 515.372727 -195.538011 
L 511.633691 -195.538011 
L 507.894656 -195.538011 
L 504.15562 -195.538011 
L 500.416584 -195.538011 
L 496.677548 -195.538011 
L 492.938512 -195.538011 
L 489.199477 -195.538011 
L 485.460441 -195.538011 
L 481.721405 -195.538011 
L 477.982369 -195.538011 
L 474.243333 -195.538011 
L 470.504298 -195.538011 
L 466.765262 -195.538011 
L 463.026226 -195.538011 
L 459.28719 -195.538011 
L 455.548154 -195.538011 
L 451.809118 -195.538011 
L 448.070083 -195.538011 
L 444.331047 -195.538011 
L 440.592011 -195.538011 
L 436.852975 -195.538011 
L 433.113939 -195.538011 
L 429.374904 -195.538011 
L 425.635868 -195.538011 
L 421.896832 -195.538011 
L 418.157796 -195.538011 
L 414.41876 -195.538011 
L 410.679725 -195.538011 
L 406.940689 -195.538011 
L 403.201653 -195.538011 
L 399.462617 -195.538011 
L 395.723581 -195.538011 
L 391.984545 -195.538011 
L 388.24551 -195.538011 
L 384.506474 -195.538011 
L 380.767438 -195.538011 
L 377.028402 -195.538011 
L 373.289366 -195.538011 
L 369.550331 -195.538011 
L 365.811295 -195.538011 
L 362.072259 -195.538011 
L 358.333223 -195.538011 
L 354.594187 -195.538011 
L 350.855152 -195.538011 
L 347.116116 -195.538011 
L 343.37708 -195.538011 
L 339.638044 -195.538011 
L 335.899008 -195.538011 
L 332.159972 -195.538011 
L 328.420937 -195.538011 
L 324.681901 -195.538011 
L 320.942865 -195.538011 
L 317.203829 -195.538011 
L 313.464793 -195.538011 
L 309.725758 -195.538011 
L 305.986722 -195.538011 
L 302.247686 -195.538011 
L 298.50865 -195.538011 
L 294.769614 -195.538011 
L 291.030579 -195.538011 
L 287.291543 -195.538011 
L 283.552507 -195.538011 
L 279.813471 -195.538011 
L 276.074435 -195.538011 
L 272.335399 -195.538011 
L 268.596364 -195.538011 
L 264.857328 -195.538011 
L 261.118292 -195.538011 
L 257.379256 -195.538011 
L 253.64022 -195.538011 
L 249.901185 -195.538011 
L 246.162149 -195.538011 
L 242.423113 -195.538011 
L 238.684077 -195.538011 
L 234.945041 -195.538011 
L 231.206006 -195.538011 
L 227.46697 -195.538011 
L 223.727934 -195.538011 
L 219.988898 -195.538011 
L 216.249862 -195.538011 
L 212.510826 -195.538011 
L 208.771791 -195.538011 
L 205.032755 -195.538011 
L 201.293719 -195.538011 
L 197.554683 -195.538011 
L 193.815647 -195.538011 
L 190.076612 -195.538011 
L 186.337576 -195.538011 
L 182.59854 -195.538011 
L 178.859504 -195.538011 
L 175.120468 -195.538011 
L 171.381433 -195.538011 
L 167.642397 -195.538011 
L 163.903361 -195.538011 
L 160.164325 -195.538011 
L 156.425289 -195.538011 
L 152.686253 -195.538011 
L 148.947218 -195.538011 
L 145.208182 -195.538011 
z
" id="m1be8b5633a" style="stroke:#ff6384;stroke-opacity:0.5;"/>
    </defs>
    <g clip-path="url(#p9d2e671e44)">
     <use style="fill:#ff6384;fill-opacity:0.5;stroke:#ff6384;stroke-opacity:0.5;" x="0" xlink:href="#m1be8b5633a" y="581.789375"/>
    </g>
   </g>
   <g id="PolyCollection_2">
    <defs>
     <path d="M 58.827273 -195.538011 
L 58.827273 -195.650004 
L 62.341886 -195.692234 
L 65.856499 -195.749007 
L 69.371113 -195.8248 
L 72.885726 -195.925281 
L 76.400339 -196.057565 
L 79.914952 -196.230497 
L 83.429566 -196.454982 
L 86.944179 -196.744335 
L 90.458792 -197.114666 
L 93.973406 -197.585273 
L 97.488019 -198.179047 
L 101.002632 -198.922859 
L 104.517246 -199.847921 
L 108.031859 -200.990079 
L 111.546472 -202.390029 
L 115.061085 -204.093399 
L 118.575699 -206.150691 
L 122.090312 -208.617009 
L 125.604925 -211.551575 
L 129.119539 -215.016962 
L 132.634152 -219.078053 
L 136.148765 -223.800667 
L 139.663378 -229.249878 
L 143.177992 -235.488004 
L 146.692605 -242.572312 
L 150.207218 -250.552459 
L 153.721832 -259.467747 
L 157.236445 -269.344261 
L 160.751058 -280.192004 
L 164.265671 -292.002137 
L 167.780285 -304.744465 
L 171.294898 -318.365297 
L 174.809511 -332.785841 
L 178.324125 -347.901251 
L 181.838738 -363.580456 
L 185.353351 -379.666871 
L 188.867964 -395.980052 
L 192.382578 -412.31833 
L 195.897191 -428.4624 
L 199.411804 -444.179822 
L 202.926418 -459.230303 
L 206.441031 -473.371627 
L 209.955644 -486.366018 
L 213.470257 -497.986726 
L 216.984871 -508.02457 
L 220.499484 -516.294181 
L 224.014097 -522.639693 
L 227.528711 -526.939623 
L 231.043324 -529.110739 
L 234.557937 -529.110739 
L 238.072551 -526.939623 
L 241.587164 -522.639693 
L 245.101777 -516.294181 
L 248.61639 -508.02457 
L 252.131004 -497.986726 
L 255.645617 -486.366018 
L 259.16023 -473.371627 
L 262.674844 -459.230303 
L 266.189457 -444.179822 
L 269.70407 -428.4624 
L 273.218683 -412.31833 
L 276.733297 -395.980052 
L 280.24791 -379.666871 
L 283.762523 -363.580456 
L 287.277137 -347.901251 
L 290.79175 -332.785841 
L 294.306363 -318.365297 
L 297.820976 -304.744465 
L 301.33559 -292.002137 
L 304.850203 -280.192004 
L 308.364816 -269.344261 
L 311.87943 -259.467747 
L 315.394043 -250.552459 
L 318.908656 -242.572312 
L 322.423269 -235.488004 
L 325.937883 -229.249878 
L 329.452496 -223.800667 
L 332.967109 -219.078053 
L 336.481723 -215.016962 
L 339.996336 -211.551575 
L 343.510949 -208.617009 
L 347.025563 -206.150691 
L 350.540176 -204.093399 
L 354.054789 -202.390029 
L 357.569402 -200.990079 
L 361.084016 -199.847921 
L 364.598629 -198.922859 
L 368.113242 -198.179047 
L 371.627856 -197.585273 
L 375.142469 -197.114666 
L 378.657082 -196.744335 
L 382.171695 -196.454982 
L 385.686309 -196.230497 
L 389.200922 -196.057565 
L 392.715535 -195.925281 
L 396.230149 -195.8248 
L 399.744762 -195.749007 
L 403.259375 -195.692234 
L 406.773988 -195.650004 
L 406.773988 -195.538011 
L 406.773988 -195.538011 
L 403.259375 -195.538011 
L 399.744762 -195.538011 
L 396.230149 -195.538011 
L 392.715535 -195.538011 
L 389.200922 -195.538011 
L 385.686309 -195.538011 
L 382.171695 -195.538011 
L 378.657082 -195.538011 
L 375.142469 -195.538011 
L 371.627856 -195.538011 
L 368.113242 -195.538011 
L 364.598629 -195.538011 
L 361.084016 -195.538011 
L 357.569402 -195.538011 
L 354.054789 -195.538011 
L 350.540176 -195.538011 
L 347.025563 -195.538011 
L 343.510949 -195.538011 
L 339.996336 -195.538011 
L 336.481723 -195.538011 
L 332.967109 -195.538011 
L 329.452496 -195.538011 
L 325.937883 -195.538011 
L 322.423269 -195.538011 
L 318.908656 -195.538011 
L 315.394043 -195.538011 
L 311.87943 -195.538011 
L 308.364816 -195.538011 
L 304.850203 -195.538011 
L 301.33559 -195.538011 
L 297.820976 -195.538011 
L 294.306363 -195.538011 
L 290.79175 -195.538011 
L 287.277137 -195.538011 
L 283.762523 -195.538011 
L 280.24791 -195.538011 
L 276.733297 -195.538011 
L 273.218683 -195.538011 
L 269.70407 -195.538011 
L 266.189457 -195.538011 
L 262.674844 -195.538011 
L 259.16023 -195.538011 
L 255.645617 -195.538011 
L 252.131004 -195.538011 
L 248.61639 -195.538011 
L 245.101777 -195.538011 
L 241.587164 -195.538011 
L 238.072551 -195.538011 
L 234.557937 -195.538011 
L 231.043324 -195.538011 
L 227.528711 -195.538011 
L 224.014097 -195.538011 
L 220.499484 -195.538011 
L 216.984871 -195.538011 
L 213.470257 -195.538011 
L 209.955644 -195.538011 
L 206.441031 -195.538011 
L 202.926418 -195.538011 
L 199.411804 -195.538011 
L 195.897191 -195.538011 
L 192.382578 -195.538011 
L 188.867964 -195.538011 
L 185.353351 -195.538011 
L 181.838738 -195.538011 
L 178.324125 -195.538011 
L 174.809511 -195.538011 
L 171.294898 -195.538011 
L 167.780285 -195.538011 
L 164.265671 -195.538011 
L 160.751058 -195.538011 
L 157.236445 -195.538011 
L 153.721832 -195.538011 
L 150.207218 -195.538011 
L 146.692605 -195.538011 
L 143.177992 -195.538011 
L 139.663378 -195.538011 
L 136.148765 -195.538011 
L 132.634152 -195.538011 
L 129.119539 -195.538011 
L 125.604925 -195.538011 
L 122.090312 -195.538011 
L 118.575699 -195.538011 
L 115.061085 -195.538011 
L 111.546472 -195.538011 
L 108.031859 -195.538011 
L 104.517246 -195.538011 
L 101.002632 -195.538011 
L 97.488019 -195.538011 
L 93.973406 -195.538011 
L 90.458792 -195.538011 
L 86.944179 -195.538011 
L 83.429566 -195.538011 
L 79.914952 -195.538011 
L 76.400339 -195.538011 
L 72.885726 -195.538011 
L 69.371113 -195.538011 
L 65.856499 -195.538011 
L 62.341886 -195.538011 
L 58.827273 -195.538011 
z
" id="m5d243f84bc" style="stroke:#36a2eb;stroke-opacity:0.5;"/>
    </defs>
    <g clip-path="url(#p9d2e671e44)">
     <use style="fill:#36a2eb;fill-opacity:0.5;stroke:#36a2eb;stroke-opacity:0.5;" x="0" xlink:href="#m5d243f84bc" y="581.789375"/>
    </g>
   </g>
   <g id="PolyCollection_3">
    <defs>
     <path d="M 123.835406 -195.538011 
L 123.835406 -195.644047 
L 127.547458 -195.684031 
L 131.25951 -195.737784 
L 134.971562 -195.809546 
L 138.683614 -195.904683 
L 142.395666 -196.029931 
L 146.107718 -196.193665 
L 149.81977 -196.406209 
L 153.531822 -196.680172 
L 157.243874 -197.030806 
L 160.955926 -197.476382 
L 164.667978 -198.038574 
L 168.38003 -198.742824 
L 172.092082 -199.618683 
L 175.804134 -200.700092 
L 179.516186 -202.02558 
L 183.228239 -203.63835 
L 186.940291 -205.586218 
L 190.652343 -207.921356 
L 194.364395 -210.699836 
L 198.076447 -213.980905 
L 201.788499 -217.825992 
L 205.500551 -222.297417 
L 209.212603 -227.456792 
L 212.924655 -233.363121 
L 216.636707 -240.070625 
L 220.348759 -247.626319 
L 224.060811 -256.067416 
L 227.772863 -265.418612 
L 231.484915 -275.689379 
L 235.196967 -286.871349 
L 238.909019 -298.93593 
L 242.621071 -311.832289 
L 246.333123 -325.485825 
L 250.045175 -339.797268 
L 253.757227 -354.642518 
L 257.469279 -369.87332 
L 261.181331 -385.318827 
L 264.893383 -400.788095 
L 268.605435 -416.073485 
L 272.317487 -430.954919 
L 276.029539 -445.204887 
L 279.741591 -458.594054 
L 283.453643 -470.897292 
L 287.165695 -481.899912 
L 290.877747 -491.403857 
L 294.589799 -499.233619 
L 298.301851 -505.241623 
L 302.013903 -509.312845 
L 305.725955 -511.368482 
L 309.438008 -511.368482 
L 313.15006 -509.312845 
L 316.862112 -505.241623 
L 320.574164 -499.233619 
L 324.286216 -491.403857 
L 327.998268 -481.899912 
L 331.71032 -470.897292 
L 335.422372 -458.594054 
L 339.134424 -445.204887 
L 342.846476 -430.954919 
L 346.558528 -416.073485 
L 350.27058 -400.788095 
L 353.982632 -385.318827 
L 357.694684 -369.87332 
L 361.406736 -354.642518 
L 365.118788 -339.797268 
L 368.83084 -325.485825 
L 372.542892 -311.832289 
L 376.254944 -298.93593 
L 379.966996 -286.871349 
L 383.679048 -275.689379 
L 387.3911 -265.418612 
L 391.103152 -256.067416 
L 394.815204 -247.626319 
L 398.527256 -240.070625 
L 402.239308 -233.363121 
L 405.95136 -227.456792 
L 409.663412 -222.297417 
L 413.375464 -217.825992 
L 417.087516 -213.980905 
L 420.799568 -210.699836 
L 424.51162 -207.921356 
L 428.223672 -205.586218 
L 431.935724 -203.63835 
L 435.647777 -202.02558 
L 439.359829 -200.700092 
L 443.071881 -199.618683 
L 446.783933 -198.742824 
L 450.495985 -198.038574 
L 454.208037 -197.476382 
L 457.920089 -197.030806 
L 461.632141 -196.680172 
L 465.344193 -196.406209 
L 469.056245 -196.193665 
L 472.768297 -196.029931 
L 476.480349 -195.904683 
L 480.192401 -195.809546 
L 483.904453 -195.737784 
L 487.616505 -195.684031 
L 491.328557 -195.644047 
L 491.328557 -195.538011 
L 491.328557 -195.538011 
L 487.616505 -195.538011 
L 483.904453 -195.538011 
L 480.192401 -195.538011 
L 476.480349 -195.538011 
L 472.768297 -195.538011 
L 469.056245 -195.538011 
L 465.344193 -195.538011 
L 461.632141 -195.538011 
L 457.920089 -195.538011 
L 454.208037 -195.538011 
L 450.495985 -195.538011 
L 446.783933 -195.538011 
L 443.071881 -195.538011 
L 439.359829 -195.538011 
L 435.647777 -195.538011 
L 431.935724 -195.538011 
L 428.223672 -195.538011 
L 424.51162 -195.538011 
L 420.799568 -195.538011 
L 417.087516 -195.538011 
L 413.375464 -195.538011 
L 409.663412 -195.538011 
L 405.95136 -195.538011 
L 402.239308 -195.538011 
L 398.527256 -195.538011 
L 394.815204 -195.538011 
L 391.103152 -195.538011 
L 387.3911 -195.538011 
L 383.679048 -195.538011 
L 379.966996 -195.538011 
L 376.254944 -195.538011 
L 372.542892 -195.538011 
L 368.83084 -195.538011 
L 365.118788 -195.538011 
L 361.406736 -195.538011 
L 357.694684 -195.538011 
L 353.982632 -195.538011 
L 350.27058 -195.538011 
L 346.558528 -195.538011 
L 342.846476 -195.538011 
L 339.134424 -195.538011 
L 335.422372 -195.538011 
L 331.71032 -195.538011 
L 327.998268 -195.538011 
L 324.286216 -195.538011 
L 320.574164 -195.538011 
L 316.862112 -195.538011 
L 313.15006 -195.538011 
L 309.438008 -195.538011 
L 305.725955 -195.538011 
L 302.013903 -195.538011 
L 298.301851 -195.538011 
L 294.589799 -195.538011 
L 290.877747 -195.538011 
L 287.165695 -195.538011 
L 283.453643 -195.538011 
L 279.741591 -195.538011 
L 276.029539 -195.538011 
L 272.317487 -195.538011 
L 268.605435 -195.538011 
L 264.893383 -195.538011 
L 261.181331 -195.538011 
L 257.469279 -195.538011 
L 253.757227 -195.538011 
L 250.045175 -195.538011 
L 246.333123 -195.538011 
L 242.621071 -195.538011 
L 238.909019 -195.538011 
L 235.196967 -195.538011 
L 231.484915 -195.538011 
L 227.772863 -195.538011 
L 224.060811 -195.538011 
L 220.348759 -195.538011 
L 216.636707 -195.538011 
L 212.924655 -195.538011 
L 209.212603 -195.538011 
L 205.500551 -195.538011 
L 201.788499 -195.538011 
L 198.076447 -195.538011 
L 194.364395 -195.538011 
L 190.652343 -195.538011 
L 186.940291 -195.538011 
L 183.228239 -195.538011 
L 179.516186 -195.538011 
L 175.804134 -195.538011 
L 172.092082 -195.538011 
L 168.38003 -195.538011 
L 164.667978 -195.538011 
L 160.955926 -195.538011 
L 157.243874 -195.538011 
L 153.531822 -195.538011 
L 149.81977 -195.538011 
L 146.107718 -195.538011 
L 142.395666 -195.538011 
L 138.683614 -195.538011 
L 134.971562 -195.538011 
L 131.25951 -195.538011 
L 127.547458 -195.538011 
L 123.835406 -195.538011 
z
" id="m3fb2524b53" style="stroke:#4bc0c0;stroke-opacity:0.5;"/>
    </defs>
    <g clip-path="url(#p9d2e671e44)">
     <use style="fill:#4bc0c0;fill-opacity:0.5;stroke:#4bc0c0;stroke-opacity:0.5;" x="0" xlink:href="#m3fb2524b53" y="581.789375"/>
    </g>
   </g>
   <g id="line2d_1">
    <path clip-path="url(#p9d2e671e44)" d="M 145.208182 386.146093 
L 148.947218 386.106397 
L 152.686253 386.053032 
L 156.425289 385.981789 
L 160.164325 385.887338 
L 163.903361 385.762995 
L 167.642397 385.600442 
L 171.381433 385.389431 
L 175.120468 385.117445 
L 178.859504 384.769342 
L 182.59854 384.326982 
L 186.337576 383.768847 
L 190.076612 383.06968 
L 193.815647 382.200141 
L 197.554683 381.126537 
L 201.293719 379.810615 
L 205.032755 378.209483 
L 208.771791 376.275673 
L 212.510826 373.957387 
L 216.249862 371.198959 
L 219.988898 367.941569 
L 223.727934 364.124231 
L 227.46697 359.685075 
L 231.206006 354.562934 
L 234.945041 348.699229 
L 238.684077 342.040132 
L 242.423113 334.538965 
L 246.162149 326.158787 
L 249.901185 316.875076 
L 253.64022 306.678431 
L 257.379256 295.577159 
L 261.118292 283.599645 
L 264.857328 270.796355 
L 268.596364 257.241354 
L 272.335399 243.033194 
L 276.074435 228.295078 
L 279.813471 213.174194 
L 283.552507 197.840154 
L 287.291543 182.482524 
L 291.030579 167.307445 
L 294.769614 152.533407 
L 298.50865 138.386278 
L 302.247686 125.093737 
L 305.986722 112.879289 
L 309.725758 101.956073 
L 313.464793 92.520716 
L 317.203829 84.747459 
L 320.942865 78.782814 
L 324.681901 74.740972 
L 328.420937 72.70017 
L 332.159972 72.70017 
L 335.899008 74.740972 
L 339.638044 78.782814 
L 343.37708 84.747459 
L 347.116116 92.520716 
L 350.855152 101.956073 
L 354.594187 112.879289 
L 358.333223 125.093737 
L 362.072259 138.386278 
L 365.811295 152.533407 
L 369.550331 167.307445 
L 373.289366 182.482524 
L 377.028402 197.840154 
L 380.767438 213.174194 
L 384.506474 228.295078 
L 388.24551 243.033194 
L 391.984545 257.241354 
L 395.723581 270.796355 
L 399.462617 283.599645 
L 403.201653 295.577159 
L 406.940689 306.678431 
L 410.679725 316.875076 
L 414.41876 326.158787 
L 418.157796 334.538965 
L 421.896832 342.040132 
L 425.635868 348.699229 
L 429.374904 354.562934 
L 433.113939 359.685075 
L 436.852975 364.124231 
L 440.592011 367.941569 
L 444.331047 371.198959 
L 448.070083 373.957387 
L 451.809118 376.275673 
L 455.548154 378.209483 
L 459.28719 379.810615 
L 463.026226 381.126537 
L 466.765262 382.200141 
L 470.504298 383.06968 
L 474.243333 383.768847 
L 477.982369 384.326982 
L 481.721405 384.769342 
L 485.460441 385.117445 
L 489.199477 385.389431 
L 492.938512 385.600442 
L 496.677548 385.762995 
L 500.416584 385.887338 
L 504.15562 385.981789 
L 507.894656 386.053032 
L 511.633691 386.106397 
L 515.372727 386.146093 
" style="fill:none;stroke:#ff6384;stroke-linecap:square;"/>
   </g>
   <g id="line2d_2">
    <path clip-path="url(#p9d2e671e44)" d="M 58.827273 386.139371 
L 62.341886 386.097141 
L 65.856499 386.040368 
L 69.371113 385.964575 
L 72.885726 385.864094 
L 76.400339 385.73181 
L 79.914952 385.558878 
L 83.429566 385.334393 
L 86.944179 385.04504 
L 90.458792 384.674709 
L 93.973406 384.204102 
L 97.488019 383.610328 
L 101.002632 382.866516 
L 104.517246 381.941454 
L 108.031859 380.799296 
L 111.546472 379.399346 
L 115.061085 377.695976 
L 118.575699 375.638684 
L 122.090312 373.172366 
L 125.604925 370.2378 
L 129.119539 366.772413 
L 132.634152 362.711322 
L 136.148765 357.988708 
L 139.663378 352.539497 
L 143.177992 346.301371 
L 146.692605 339.217063 
L 150.207218 331.236916 
L 153.721832 322.321628 
L 157.236445 312.445114 
L 160.751058 301.597371 
L 164.265671 289.787238 
L 167.780285 277.04491 
L 171.294898 263.424078 
L 174.809511 249.003534 
L 178.324125 233.888124 
L 181.838738 218.208919 
L 185.353351 202.122504 
L 188.867964 185.809323 
L 192.382578 169.471045 
L 195.897191 153.326975 
L 199.411804 137.609553 
L 202.926418 122.559072 
L 206.441031 108.417748 
L 209.955644 95.423357 
L 213.470257 83.802649 
L 216.984871 73.764805 
L 220.499484 65.495194 
L 224.014097 59.149682 
L 227.528711 54.849752 
L 231.043324 52.678636 
L 234.557937 52.678636 
L 238.072551 54.849752 
L 241.587164 59.149682 
L 245.101777 65.495194 
L 248.61639 73.764805 
L 252.131004 83.802649 
L 255.645617 95.423357 
L 259.16023 108.417748 
L 262.674844 122.559072 
L 266.189457 137.609553 
L 269.70407 153.326975 
L 273.218683 169.471045 
L 276.733297 185.809323 
L 280.24791 202.122504 
L 283.762523 218.208919 
L 287.277137 233.888124 
L 290.79175 249.003534 
L 294.306363 263.424078 
L 297.820976 277.04491 
L 301.33559 289.787238 
L 304.850203 301.597371 
L 308.364816 312.445114 
L 311.87943 322.321628 
L 315.394043 331.236916 
L 318.908656 339.217063 
L 322.423269 346.301371 
L 325.937883 352.539497 
L 329.452496 357.988708 
L 332.967109 362.711322 
L 336.481723 366.772413 
L 339.996336 370.2378 
L 343.510949 373.172366 
L 347.025563 375.638684 
L 350.540176 377.695976 
L 354.054789 379.399346 
L 357.569402 380.799296 
L 361.084016 381.941454 
L 364.598629 382.866516 
L 368.113242 383.610328 
L 371.627856 384.204102 
L 375.142469 384.674709 
L 378.657082 385.04504 
L 382.171695 385.334393 
L 385.686309 385.558878 
L 389.200922 385.73181 
L 392.715535 385.864094 
L 396.230149 385.964575 
L 399.744762 386.040368 
L 403.259375 386.097141 
L 406.773988 386.139371 
" style="fill:none;stroke:#36a2eb;stroke-linecap:square;"/>
   </g>
   <g id="line2d_3">
    <path clip-path="url(#p9d2e671e44)" d="M 123.835406 386.145328 
L 127.547458 386.105344 
L 131.25951 386.051591 
L 134.971562 385.979829 
L 138.683614 385.884692 
L 142.395666 385.759444 
L 146.107718 385.59571 
L 149.81977 385.383166 
L 153.531822 385.109203 
L 157.243874 384.758569 
L 160.955926 384.312993 
L 164.667978 383.750801 
L 168.38003 383.046551 
L 172.092082 382.170692 
L 175.804134 381.089283 
L 179.516186 379.763795 
L 183.228239 378.151025 
L 186.940291 376.203157 
L 190.652343 373.868019 
L 194.364395 371.089539 
L 198.076447 367.80847 
L 201.788499 363.963383 
L 205.500551 359.491958 
L 209.212603 354.332583 
L 212.924655 348.426254 
L 216.636707 341.71875 
L 220.348759 334.163056 
L 224.060811 325.721959 
L 227.772863 316.370763 
L 231.484915 306.099996 
L 235.196967 294.918026 
L 238.909019 282.853445 
L 242.621071 269.957086 
L 246.333123 256.30355 
L 250.045175 241.992107 
L 253.757227 227.146857 
L 257.469279 211.916055 
L 261.181331 196.470548 
L 264.893383 181.00128 
L 268.605435 165.71589 
L 272.317487 150.834456 
L 276.029539 136.584488 
L 279.741591 123.195321 
L 283.453643 110.892083 
L 287.165695 99.889463 
L 290.877747 90.385518 
L 294.589799 82.555756 
L 298.301851 76.547752 
L 302.013903 72.47653 
L 305.725955 70.420893 
L 309.438008 70.420893 
L 313.15006 72.47653 
L 316.862112 76.547752 
L 320.574164 82.555756 
L 324.286216 90.385518 
L 327.998268 99.889463 
L 331.71032 110.892083 
L 335.422372 123.195321 
L 339.134424 136.584488 
L 342.846476 150.834456 
L 346.558528 165.71589 
L 350.27058 181.00128 
L 353.982632 196.470548 
L 357.694684 211.916055 
L 361.406736 227.146857 
L 365.118788 241.992107 
L 368.83084 256.30355 
L 372.542892 269.957086 
L 376.254944 282.853445 
L 379.966996 294.918026 
L 383.679048 306.099996 
L 387.3911 316.370763 
L 391.103152 325.721959 
L 394.815204 334.163056 
L 398.527256 341.71875 
L 402.239308 348.426254 
L 405.95136 354.332583 
L 409.663412 359.491958 
L 413.375464 363.963383 
L 417.087516 367.80847 
L 420.799568 371.089539 
L 424.51162 373.868019 
L 428.223672 376.203157 
L 431.935724 378.151025 
L 435.647777 379.763795 
L 439.359829 381.089283 
L 443.071881 382.170692 
L 446.783933 383.046551 
L 450.495985 383.750801 
L 454.208037 384.312993 
L 457.920089 384.758569 
L 461.632141 385.109203 
L 465.344193 385.383166 
L 469.056245 385.59571 
L 472.768297 385.759444 
L 476.480349 385.884692 
L 480.192401 385.979829 
L 483.904453 386.051591 
L 487.616505 386.105344 
L 491.328557 386.145328 
" style="fill:none;stroke:#4bc0c0;stroke-linecap:square;"/>
   </g>
   <g id="patch_3">
    <path d="M 36 402.93 
L 538.2 402.93 
" style="fill:none;stroke:#000000;stroke-linecap:square;stroke-linejoin:miter;stroke-width:0.8;"/>
   </g>
   <g id="legend_1">
    <g id="patch_4">
     <path d="M 415.601563 109.626875 
L 528.4 109.626875 
Q 531.2 109.626875 531.2 106.826875 
L 531.2 45.8 
Q 531.2 43 528.4 43 
L 415.601563 43 
Q 412.801563 43 412.801563 45.8 
L 412.801563 106.826875 
Q 412.801563 109.626875 415.601563 109.626875 
z
" style="fill:#ffffff;opacity:0.8;stroke:#cccccc;stroke-linejoin:miter;"/>
    </g>
    <g id="patch_5">
     <path d="M 418.401563 59.237813 
L 446.401563 59.237813 
L 446.401563 49.437813 
L 418.401563 49.437813 
z
" style="fill:#ff6384;opacity:0.5;stroke:#ff6384;stroke-linejoin:miter;"/>
    </g>
    <g id="text_1">
     <!-- base -->
     <defs>
      <path d="M 48.6875 27.296875 
Q 48.6875 37.203125 44.609375 42.84375 
Q 40.53125 48.484375 33.40625 48.484375 
Q 26.265625 48.484375 22.1875 42.84375 
Q 18.109375 37.203125 18.109375 27.296875 
Q 18.109375 17.390625 22.1875 11.75 
Q 26.265625 6.109375 33.40625 6.109375 
Q 40.53125 6.109375 44.609375 11.75 
Q 48.6875 17.390625 48.6875 27.296875 
z
M 18.109375 46.390625 
Q 20.953125 51.265625 25.265625 53.625 
Q 29.59375 56 35.59375 56 
Q 45.5625 56 51.78125 48.09375 
Q 58.015625 40.1875 58.015625 27.296875 
Q 58.015625 14.40625 51.78125 6.484375 
Q 45.5625 -1.421875 35.59375 -1.421875 
Q 29.59375 -1.421875 25.265625 0.953125 
Q 20.953125 3.328125 18.109375 8.203125 
L 18.109375 0 
L 9.078125 0 
L 9.078125 75.984375 
L 18.109375 75.984375 
z
" id="DejaVuSans-98"/>
      <path d="M 34.28125 27.484375 
Q 23.390625 27.484375 19.1875 25 
Q 14.984375 22.515625 14.984375 16.5 
Q 14.984375 11.71875 18.140625 8.90625 
Q 21.296875 6.109375 26.703125 6.109375 
Q 34.1875 6.109375 38.703125 11.40625 
Q 43.21875 16.703125 43.21875 25.484375 
L 43.21875 27.484375 
z
M 52.203125 31.203125 
L 52.203125 0 
L 43.21875 0 
L 43.21875 8.296875 
Q 40.140625 3.328125 35.546875 0.953125 
Q 30.953125 -1.421875 24.3125 -1.421875 
Q 15.921875 -1.421875 10.953125 3.296875 
Q 6 8.015625 6 15.921875 
Q 6 25.140625 12.171875 29.828125 
Q 18.359375 34.515625 30.609375 34.515625 
L 43.21875 34.515625 
L 43.21875 35.40625 
Q 43.21875 41.609375 39.140625 45 
Q 35.0625 48.390625 27.6875 48.390625 
Q 23 48.390625 18.546875 47.265625 
Q 14.109375 46.140625 10.015625 43.890625 
L 10.015625 52.203125 
Q 14.9375 54.109375 19.578125 55.046875 
Q 24.21875 56 28.609375 56 
Q 40.484375 56 46.34375 49.84375 
Q 52.203125 43.703125 52.203125 31.203125 
z
" id="DejaVuSans-97"/>
      <path d="M 44.28125 53.078125 
L 44.28125 44.578125 
Q 40.484375 46.53125 36.375 47.5 
Q 32.28125 48.484375 27.875 48.484375 
Q 21.1875 48.484375 17.84375 46.4375 
Q 14.5 44.390625 14.5 40.28125 
Q 14.5 37.15625 16.890625 35.375 
Q 19.28125 33.59375 26.515625 31.984375 
L 29.59375 31.296875 
Q 39.15625 29.25 43.1875 25.515625 
Q 47.21875 21.78125 47.21875 15.09375 
Q 47.21875 7.46875 41.1875 3.015625 
Q 35.15625 -1.421875 24.609375 -1.421875 
Q 20.21875 -1.421875 15.453125 -0.5625 
Q 10.6875 0.296875 5.421875 2 
L 5.421875 11.28125 
Q 10.40625 8.6875 15.234375 7.390625 
Q 20.0625 6.109375 24.8125 6.109375 
Q 31.15625 6.109375 34.5625 8.28125 
Q 37.984375 10.453125 37.984375 14.40625 
Q 37.984375 18.0625 35.515625 20.015625 
Q 33.0625 21.96875 24.703125 23.78125 
L 21.578125 24.515625 
Q 13.234375 26.265625 9.515625 29.90625 
Q 5.8125 33.546875 5.8125 39.890625 
Q 5.8125 47.609375 11.28125 51.796875 
Q 16.75 56 26.8125 56 
Q 31.78125 56 36.171875 55.265625 
Q 40.578125 54.546875 44.28125 53.078125 
z
" id="DejaVuSans-115"/>
      <path d="M 56.203125 29.59375 
L 56.203125 25.203125 
L 14.890625 25.203125 
Q 15.484375 15.921875 20.484375 11.0625 
Q 25.484375 6.203125 34.421875 6.203125 
Q 39.59375 6.203125 44.453125 7.46875 
Q 49.3125 8.734375 54.109375 11.28125 
L 54.109375 2.78125 
Q 49.265625 0.734375 44.1875 -0.34375 
Q 39.109375 -1.421875 33.890625 -1.421875 
Q 20.796875 -1.421875 13.15625 6.1875 
Q 5.515625 13.8125 5.515625 26.8125 
Q 5.515625 40.234375 12.765625 48.109375 
Q 20.015625 56 32.328125 56 
Q 43.359375 56 49.78125 48.890625 
Q 56.203125 41.796875 56.203125 29.59375 
z
M 47.21875 32.234375 
Q 47.125 39.59375 43.09375 43.984375 
Q 39.0625 48.390625 32.421875 48.390625 
Q 24.90625 48.390625 20.390625 44.140625 
Q 15.875 39.890625 15.1875 32.171875 
z
" id="DejaVuSans-101"/>
     </defs>
     <g transform="translate(457.601563 59.237813)scale(0.14 -0.14)">
      <use xlink:href="#DejaVuSans-98"/>
      <use x="63.476562" xlink:href="#DejaVuSans-97"/>
      <use x="124.755859" xlink:href="#DejaVuSans-115"/>
      <use x="176.855469" xlink:href="#DejaVuSans-101"/>
     </g>
    </g>
    <g id="patch_6">
     <path d="M 418.401563 79.787188 
L 446.401563 79.787188 
L 446.401563 69.987188 
L 418.401563 69.987188 
z
" style="fill:#36a2eb;opacity:0.5;stroke:#36a2eb;stroke-linejoin:miter;"/>
    </g>
    <g id="text_2">
     <!-- fifth_mid -->
     <defs>
      <path d="M 37.109375 75.984375 
L 37.109375 68.5 
L 28.515625 68.5 
Q 23.6875 68.5 21.796875 66.546875 
Q 19.921875 64.59375 19.921875 59.515625 
L 19.921875 54.6875 
L 34.71875 54.6875 
L 34.71875 47.703125 
L 19.921875 47.703125 
L 19.921875 0 
L 10.890625 0 
L 10.890625 47.703125 
L 2.296875 47.703125 
L 2.296875 54.6875 
L 10.890625 54.6875 
L 10.890625 58.5 
Q 10.890625 67.625 15.140625 71.796875 
Q 19.390625 75.984375 28.609375 75.984375 
z
" id="DejaVuSans-102"/>
      <path d="M 9.421875 54.6875 
L 18.40625 54.6875 
L 18.40625 0 
L 9.421875 0 
z
M 9.421875 75.984375 
L 18.40625 75.984375 
L 18.40625 64.59375 
L 9.421875 64.59375 
z
" id="DejaVuSans-105"/>
      <path d="M 18.3125 70.21875 
L 18.3125 54.6875 
L 36.8125 54.6875 
L 36.8125 47.703125 
L 18.3125 47.703125 
L 18.3125 18.015625 
Q 18.3125 11.328125 20.140625 9.421875 
Q 21.96875 7.515625 27.59375 7.515625 
L 36.8125 7.515625 
L 36.8125 0 
L 27.59375 0 
Q 17.1875 0 13.234375 3.875 
Q 9.28125 7.765625 9.28125 18.015625 
L 9.28125 47.703125 
L 2.6875 47.703125 
L 2.6875 54.6875 
L 9.28125 54.6875 
L 9.28125 70.21875 
z
" id="DejaVuSans-116"/>
      <path d="M 54.890625 33.015625 
L 54.890625 0 
L 45.90625 0 
L 45.90625 32.71875 
Q 45.90625 40.484375 42.875 44.328125 
Q 39.84375 48.1875 33.796875 48.1875 
Q 26.515625 48.1875 22.3125 43.546875 
Q 18.109375 38.921875 18.109375 30.90625 
L 18.109375 0 
L 9.078125 0 
L 9.078125 75.984375 
L 18.109375 75.984375 
L 18.109375 46.1875 
Q 21.34375 51.125 25.703125 53.5625 
Q 30.078125 56 35.796875 56 
Q 45.21875 56 50.046875 50.171875 
Q 54.890625 44.34375 54.890625 33.015625 
z
" id="DejaVuSans-104"/>
      <path d="M 50.984375 -16.609375 
L 50.984375 -23.578125 
L -0.984375 -23.578125 
L -0.984375 -16.609375 
z
" id="DejaVuSans-95"/>
      <path d="M 52 44.1875 
Q 55.375 50.25 60.0625 53.125 
Q 64.75 56 71.09375 56 
Q 79.640625 56 84.28125 50.015625 
Q 88.921875 44.046875 88.921875 33.015625 
L 88.921875 0 
L 79.890625 0 
L 79.890625 32.71875 
Q 79.890625 40.578125 77.09375 44.375 
Q 74.3125 48.1875 68.609375 48.1875 
Q 61.625 48.1875 57.5625 43.546875 
Q 53.515625 38.921875 53.515625 30.90625 
L 53.515625 0 
L 44.484375 0 
L 44.484375 32.71875 
Q 44.484375 40.625 41.703125 44.40625 
Q 38.921875 48.1875 33.109375 48.1875 
Q 26.21875 48.1875 22.15625 43.53125 
Q 18.109375 38.875 18.109375 30.90625 
L 18.109375 0 
L 9.078125 0 
L 9.078125 54.6875 
L 18.109375 54.6875 
L 18.109375 46.1875 
Q 21.1875 51.21875 25.484375 53.609375 
Q 29.78125 56 35.6875 56 
Q 41.65625 56 45.828125 52.96875 
Q 50 49.953125 52 44.1875 
z
" id="DejaVuSans-109"/>
      <path d="M 45.40625 46.390625 
L 45.40625 75.984375 
L 54.390625 75.984375 
L 54.390625 0 
L 45.40625 0 
L 45.40625 8.203125 
Q 42.578125 3.328125 38.25 0.953125 
Q 33.9375 -1.421875 27.875 -1.421875 
Q 17.96875 -1.421875 11.734375 6.484375 
Q 5.515625 14.40625 5.515625 27.296875 
Q 5.515625 40.1875 11.734375 48.09375 
Q 17.96875 56 27.875 56 
Q 33.9375 56 38.25 53.625 
Q 42.578125 51.265625 45.40625 46.390625 
z
M 14.796875 27.296875 
Q 14.796875 17.390625 18.875 11.75 
Q 22.953125 6.109375 30.078125 6.109375 
Q 37.203125 6.109375 41.296875 11.75 
Q 45.40625 17.390625 45.40625 27.296875 
Q 45.40625 37.203125 41.296875 42.84375 
Q 37.203125 48.484375 30.078125 48.484375 
Q 22.953125 48.484375 18.875 42.84375 
Q 14.796875 37.203125 14.796875 27.296875 
z
" id="DejaVuSans-100"/>
     </defs>
     <g transform="translate(457.601563 79.787188)scale(0.14 -0.14)">
      <use xlink:href="#DejaVuSans-102"/>
      <use x="35.205078" xlink:href="#DejaVuSans-105"/>
      <use x="62.988281" xlink:href="#DejaVuSans-102"/>
      <use x="98.177734" xlink:href="#DejaVuSans-116"/>
      <use x="137.386719" xlink:href="#DejaVuSans-104"/>
      <use x="200.765625" xlink:href="#DejaVuSans-95"/>
      <use x="250.765625" xlink:href="#DejaVuSans-109"/>
      <use x="348.177734" xlink:href="#DejaVuSans-105"/>
      <use x="375.960938" xlink:href="#DejaVuSans-100"/>
     </g>
    </g>
    <g id="patch_7">
     <path d="M 418.401563 100.725937 
L 446.401563 100.725937 
L 446.401563 90.925937 
L 418.401563 90.925937 
z
" style="fill:#4bc0c0;opacity:0.5;stroke:#4bc0c0;stroke-linejoin:miter;"/>
    </g>
    <g id="text_3">
     <!-- fifth_right -->
     <defs>
      <path d="M 41.109375 46.296875 
Q 39.59375 47.171875 37.8125 47.578125 
Q 36.03125 48 33.890625 48 
Q 26.265625 48 22.1875 43.046875 
Q 18.109375 38.09375 18.109375 28.8125 
L 18.109375 0 
L 9.078125 0 
L 9.078125 54.6875 
L 18.109375 54.6875 
L 18.109375 46.1875 
Q 20.953125 51.171875 25.484375 53.578125 
Q 30.03125 56 36.53125 56 
Q 37.453125 56 38.578125 55.875 
Q 39.703125 55.765625 41.0625 55.515625 
z
" id="DejaVuSans-114"/>
      <path d="M 45.40625 27.984375 
Q 45.40625 37.75 41.375 43.109375 
Q 37.359375 48.484375 30.078125 48.484375 
Q 22.859375 48.484375 18.828125 43.109375 
Q 14.796875 37.75 14.796875 27.984375 
Q 14.796875 18.265625 18.828125 12.890625 
Q 22.859375 7.515625 30.078125 7.515625 
Q 37.359375 7.515625 41.375 12.890625 
Q 45.40625 18.265625 45.40625 27.984375 
z
M 54.390625 6.78125 
Q 54.390625 -7.171875 48.1875 -13.984375 
Q 42 -20.796875 29.203125 -20.796875 
Q 24.46875 -20.796875 20.265625 -20.09375 
Q 16.0625 -19.390625 12.109375 -17.921875 
L 12.109375 -9.1875 
Q 16.0625 -11.328125 19.921875 -12.34375 
Q 23.78125 -13.375 27.78125 -13.375 
Q 36.625 -13.375 41.015625 -8.765625 
Q 45.40625 -4.15625 45.40625 5.171875 
L 45.40625 9.625 
Q 42.625 4.78125 38.28125 2.390625 
Q 33.9375 0 27.875 0 
Q 17.828125 0 11.671875 7.65625 
Q 5.515625 15.328125 5.515625 27.984375 
Q 5.515625 40.671875 11.671875 48.328125 
Q 17.828125 56 27.875 56 
Q 33.9375 56 38.28125 53.609375 
Q 42.625 51.21875 45.40625 46.390625 
L 45.40625 54.6875 
L 54.390625 54.6875 
z
" id="DejaVuSans-103"/>
     </defs>
     <g transform="translate(457.601563 100.725937)scale(0.14 -0.14)">
      <use xlink:href="#DejaVuSans-102"/>
      <use x="35.205078" xlink:href="#DejaVuSans-105"/>
      <use x="62.988281" xlink:href="#DejaVuSans-102"/>
      <use x="98.177734" xlink:href="#DejaVuSans-116"/>
      <use x="137.386719" xlink:href="#DejaVuSans-104"/>
      <use x="200.765625" xlink:href="#DejaVuSans-95"/>
      <use x="250.765625" xlink:href="#DejaVuSans-114"/>
      <use x="291.878906" xlink:href="#DejaVuSans-105"/>
      <use x="319.662109" xlink:href="#DejaVuSans-103"/>
      <use x="383.138672" xlink:href="#DejaVuSans-104"/>
      <use x="446.517578" xlink:href="#DejaVuSans-116"/>
     </g>
    </g>
   </g>
  </g>
  <g id="axes_2">
   <g id="patch_8">
    <path d="M 36 525.24 
L 538.2 525.24 
L 538.2 402.93 
L 36 402.93 
z
" style="fill:none;"/>
   </g>
   <g id="patch_9">
    <path clip-path="url(#pb02781ca14)" d="M 239.600141 519.680455 
L 420.980768 519.680455 
L 420.980768 497.442273 
L 239.600141 497.442273 
z
" style="fill:#ff6384;opacity:0.5;"/>
   </g>
   <g id="patch_10">
    <path clip-path="url(#pb02781ca14)" d="M 147.553685 475.204091 
L 318.047576 475.204091 
L 318.047576 452.965909 
L 147.553685 452.965909 
z
" style="fill:#36a2eb;opacity:0.5;"/>
   </g>
   <g id="patch_11">
    <path clip-path="url(#pb02781ca14)" d="M 217.54616 430.727727 
L 397.617803 430.727727 
L 397.617803 408.489545 
L 217.54616 408.489545 
z
" style="fill:#4bc0c0;opacity:0.5;"/>
   </g>
   <g id="matplotlib.axis_1">
    <g id="xtick_1">
     <g id="line2d_4">
      <defs>
       <path d="M 0 0 
L 0 3.5 
" id="mef87b17203" style="stroke:#000000;stroke-width:0.8;"/>
      </defs>
      <g>
       <use style="stroke:#000000;stroke-width:0.8;" x="83.629454" xlink:href="#mef87b17203" y="525.24"/>
      </g>
     </g>
     <g id="text_4">
      <!-- 6 -->
      <defs>
       <path d="M 33.015625 40.375 
Q 26.375 40.375 22.484375 35.828125 
Q 18.609375 31.296875 18.609375 23.390625 
Q 18.609375 15.53125 22.484375 10.953125 
Q 26.375 6.390625 33.015625 6.390625 
Q 39.65625 6.390625 43.53125 10.953125 
Q 47.40625 15.53125 47.40625 23.390625 
Q 47.40625 31.296875 43.53125 35.828125 
Q 39.65625 40.375 33.015625 40.375 
z
M 52.59375 71.296875 
L 52.59375 62.3125 
Q 48.875 64.0625 45.09375 64.984375 
Q 41.3125 65.921875 37.59375 65.921875 
Q 27.828125 65.921875 22.671875 59.328125 
Q 17.53125 52.734375 16.796875 39.40625 
Q 19.671875 43.65625 24.015625 45.921875 
Q 28.375 48.1875 33.59375 48.1875 
Q 44.578125 48.1875 50.953125 41.515625 
Q 57.328125 34.859375 57.328125 23.390625 
Q 57.328125 12.15625 50.6875 5.359375 
Q 44.046875 -1.421875 33.015625 -1.421875 
Q 20.359375 -1.421875 13.671875 8.265625 
Q 6.984375 17.96875 6.984375 36.375 
Q 6.984375 53.65625 15.1875 63.9375 
Q 23.390625 74.21875 37.203125 74.21875 
Q 40.921875 74.21875 44.703125 73.484375 
Q 48.484375 72.75 52.59375 71.296875 
z
" id="DejaVuSans-54"/>
      </defs>
      <g transform="translate(79.175704 542.877813)scale(0.14 -0.14)">
       <use xlink:href="#DejaVuSans-54"/>
      </g>
     </g>
    </g>
    <g id="xtick_2">
     <g id="line2d_5">
      <g>
       <use style="stroke:#000000;stroke-width:0.8;" x="161.934534" xlink:href="#mef87b17203" y="525.24"/>
      </g>
     </g>
     <g id="text_5">
      <!-- 8 -->
      <defs>
       <path d="M 31.78125 34.625 
Q 24.75 34.625 20.71875 30.859375 
Q 16.703125 27.09375 16.703125 20.515625 
Q 16.703125 13.921875 20.71875 10.15625 
Q 24.75 6.390625 31.78125 6.390625 
Q 38.8125 6.390625 42.859375 10.171875 
Q 46.921875 13.96875 46.921875 20.515625 
Q 46.921875 27.09375 42.890625 30.859375 
Q 38.875 34.625 31.78125 34.625 
z
M 21.921875 38.8125 
Q 15.578125 40.375 12.03125 44.71875 
Q 8.5 49.078125 8.5 55.328125 
Q 8.5 64.0625 14.71875 69.140625 
Q 20.953125 74.21875 31.78125 74.21875 
Q 42.671875 74.21875 48.875 69.140625 
Q 55.078125 64.0625 55.078125 55.328125 
Q 55.078125 49.078125 51.53125 44.71875 
Q 48 40.375 41.703125 38.8125 
Q 48.828125 37.15625 52.796875 32.3125 
Q 56.78125 27.484375 56.78125 20.515625 
Q 56.78125 9.90625 50.3125 4.234375 
Q 43.84375 -1.421875 31.78125 -1.421875 
Q 19.734375 -1.421875 13.25 4.234375 
Q 6.78125 9.90625 6.78125 20.515625 
Q 6.78125 27.484375 10.78125 32.3125 
Q 14.796875 37.15625 21.921875 38.8125 
z
M 18.3125 54.390625 
Q 18.3125 48.734375 21.84375 45.5625 
Q 25.390625 42.390625 31.78125 42.390625 
Q 38.140625 42.390625 41.71875 45.5625 
Q 45.3125 48.734375 45.3125 54.390625 
Q 45.3125 60.0625 41.71875 63.234375 
Q 38.140625 66.40625 31.78125 66.40625 
Q 25.390625 66.40625 21.84375 63.234375 
Q 18.3125 60.0625 18.3125 54.390625 
z
" id="DejaVuSans-56"/>
      </defs>
      <g transform="translate(157.480784 542.877813)scale(0.14 -0.14)">
       <use xlink:href="#DejaVuSans-56"/>
      </g>
     </g>
    </g>
    <g id="xtick_3">
     <g id="line2d_6">
      <g>
       <use style="stroke:#000000;stroke-width:0.8;" x="240.239613" xlink:href="#mef87b17203" y="525.24"/>
      </g>
     </g>
     <g id="text_6">
      <!-- 10 -->
      <defs>
       <path d="M 12.40625 8.296875 
L 28.515625 8.296875 
L 28.515625 63.921875 
L 10.984375 60.40625 
L 10.984375 69.390625 
L 28.421875 72.90625 
L 38.28125 72.90625 
L 38.28125 8.296875 
L 54.390625 8.296875 
L 54.390625 0 
L 12.40625 0 
z
" id="DejaVuSans-49"/>
       <path d="M 31.78125 66.40625 
Q 24.171875 66.40625 20.328125 58.90625 
Q 16.5 51.421875 16.5 36.375 
Q 16.5 21.390625 20.328125 13.890625 
Q 24.171875 6.390625 31.78125 6.390625 
Q 39.453125 6.390625 43.28125 13.890625 
Q 47.125 21.390625 47.125 36.375 
Q 47.125 51.421875 43.28125 58.90625 
Q 39.453125 66.40625 31.78125 66.40625 
z
M 31.78125 74.21875 
Q 44.046875 74.21875 50.515625 64.515625 
Q 56.984375 54.828125 56.984375 36.375 
Q 56.984375 17.96875 50.515625 8.265625 
Q 44.046875 -1.421875 31.78125 -1.421875 
Q 19.53125 -1.421875 13.0625 8.265625 
Q 6.59375 17.96875 6.59375 36.375 
Q 6.59375 54.828125 13.0625 64.515625 
Q 19.53125 74.21875 31.78125 74.21875 
z
" id="DejaVuSans-48"/>
      </defs>
      <g transform="translate(231.332113 542.877813)scale(0.14 -0.14)">
       <use xlink:href="#DejaVuSans-49"/>
       <use x="63.623047" xlink:href="#DejaVuSans-48"/>
      </g>
     </g>
    </g>
    <g id="xtick_4">
     <g id="line2d_7">
      <g>
       <use style="stroke:#000000;stroke-width:0.8;" x="318.544693" xlink:href="#mef87b17203" y="525.24"/>
      </g>
     </g>
     <g id="text_7">
      <!-- 12 -->
      <defs>
       <path d="M 19.1875 8.296875 
L 53.609375 8.296875 
L 53.609375 0 
L 7.328125 0 
L 7.328125 8.296875 
Q 12.9375 14.109375 22.625 23.890625 
Q 32.328125 33.6875 34.8125 36.53125 
Q 39.546875 41.84375 41.421875 45.53125 
Q 43.3125 49.21875 43.3125 52.78125 
Q 43.3125 58.59375 39.234375 62.25 
Q 35.15625 65.921875 28.609375 65.921875 
Q 23.96875 65.921875 18.8125 64.3125 
Q 13.671875 62.703125 7.8125 59.421875 
L 7.8125 69.390625 
Q 13.765625 71.78125 18.9375 73 
Q 24.125 74.21875 28.421875 74.21875 
Q 39.75 74.21875 46.484375 68.546875 
Q 53.21875 62.890625 53.21875 53.421875 
Q 53.21875 48.921875 51.53125 44.890625 
Q 49.859375 40.875 45.40625 35.40625 
Q 44.1875 33.984375 37.640625 27.21875 
Q 31.109375 20.453125 19.1875 8.296875 
z
" id="DejaVuSans-50"/>
      </defs>
      <g transform="translate(309.637193 542.877813)scale(0.14 -0.14)">
       <use xlink:href="#DejaVuSans-49"/>
       <use x="63.623047" xlink:href="#DejaVuSans-50"/>
      </g>
     </g>
    </g>
    <g id="xtick_5">
     <g id="line2d_8">
      <g>
       <use style="stroke:#000000;stroke-width:0.8;" x="396.849772" xlink:href="#mef87b17203" y="525.24"/>
      </g>
     </g>
     <g id="text_8">
      <!-- 14 -->
      <defs>
       <path d="M 37.796875 64.3125 
L 12.890625 25.390625 
L 37.796875 25.390625 
z
M 35.203125 72.90625 
L 47.609375 72.90625 
L 47.609375 25.390625 
L 58.015625 25.390625 
L 58.015625 17.1875 
L 47.609375 17.1875 
L 47.609375 0 
L 37.796875 0 
L 37.796875 17.1875 
L 4.890625 17.1875 
L 4.890625 26.703125 
z
" id="DejaVuSans-52"/>
      </defs>
      <g transform="translate(387.942272 542.877813)scale(0.14 -0.14)">
       <use xlink:href="#DejaVuSans-49"/>
       <use x="63.623047" xlink:href="#DejaVuSans-52"/>
      </g>
     </g>
    </g>
    <g id="xtick_6">
     <g id="line2d_9">
      <g>
       <use style="stroke:#000000;stroke-width:0.8;" x="475.154852" xlink:href="#mef87b17203" y="525.24"/>
      </g>
     </g>
     <g id="text_9">
      <!-- 16 -->
      <g transform="translate(466.247352 542.877813)scale(0.14 -0.14)">
       <use xlink:href="#DejaVuSans-49"/>
       <use x="63.623047" xlink:href="#DejaVuSans-54"/>
      </g>
     </g>
    </g>
   </g>
   <g id="line2d_10">
    <path clip-path="url(#pb02781ca14)" d="M 330.290455 525.24 
L 330.290455 402.93 
" style="fill:none;stroke:#ff6384;stroke-dasharray:5.55,2.4;stroke-dashoffset:0;stroke-opacity:0.8;stroke-width:1.5;"/>
   </g>
   <g id="line2d_11">
    <path clip-path="url(#pb02781ca14)" d="M 232.800631 525.24 
L 232.800631 402.93 
" style="fill:none;stroke:#36a2eb;stroke-dasharray:5.55,2.4;stroke-dashoffset:0;stroke-opacity:0.8;stroke-width:1.5;"/>
   </g>
   <g id="line2d_12">
    <path clip-path="url(#pb02781ca14)" d="M 307.581982 525.24 
L 307.581982 402.93 
" style="fill:none;stroke:#4bc0c0;stroke-dasharray:5.55,2.4;stroke-dashoffset:0;stroke-opacity:0.8;stroke-width:1.5;"/>
   </g>
   <g id="patch_12">
    <path d="M 36 525.24 
L 538.2 525.24 
" style="fill:none;stroke:#000000;stroke-linecap:square;stroke-linejoin:miter;stroke-width:0.8;"/>
   </g>
  </g>
 </g>
 <defs>
  <clipPath id="p9d2e671e44">
   <rect height="366.93" width="502.2" x="36" y="36"/>
  </clipPath>
  <clipPath id="pb02781ca14">
   <rect height="122.31" width="502.2" x="36" y="402.93"/>
  </clipPath>
 </defs>
</svg>
