<?xml version="1.0" encoding="utf-8" standalone="no"?>
<!DOCTYPE svg PUBLIC "-//W3C//DTD SVG 1.1//EN"
  "http://www.w3.org/Graphics/SVG/1.1/DTD/svg11.dtd">
<!-- Created with matplotlib (https://matplotlib.org/) -->
<svg height="581.789375pt" version="1.1" viewBox="0 0 574.2 581.789375" width="574.2pt" xmlns="http://www.w3.org/2000/svg" xmlns:xlink="http://www.w3.org/1999/xlink">
 <defs>
  <style type="text/css">
*{stroke-linecap:butt;stroke-linejoin:round;}
  </style>
 </defs>
 <g id="figure_1">
  <g id="patch_1">
   <path d="M 0 581.789375 
L 574.2 581.789375 
L 574.2 0 
L 0 0 
z
" style="fill:none;"/>
  </g>
  <g id="axes_1">
   <g id="patch_2">
    <path d="M 36 402.93 
L 538.2 402.93 
L 538.2 36 
L 36 36 
z
" style="fill:none;"/>
   </g>
   <g id="PolyCollection_1">
    <defs>
     <path d="M 67.598712 -195.538011 
L 67.598712 -195.6097 
L 72.121682 -195.636732 
L 76.644652 -195.673073 
L 81.167621 -195.721589 
L 85.690591 -195.785909 
L 90.213561 -195.870586 
L 94.736531 -195.981283 
L 99.259501 -196.12498 
L 103.782471 -196.3102 
L 108.305441 -196.547255 
L 112.82841 -196.848498 
L 117.35138 -197.228583 
L 121.87435 -197.70471 
L 126.39732 -198.296857 
L 130.92029 -199.027972 
L 135.44326 -199.924104 
L 139.96623 -201.01446 
L 144.489199 -202.331367 
L 149.012169 -203.910099 
L 153.535139 -205.788564 
L 158.058109 -208.006817 
L 162.581079 -210.60639 
L 167.104049 -213.629416 
L 171.627019 -217.117547 
L 176.149988 -221.110678 
L 180.672958 -225.645463 
L 185.195928 -230.75369 
L 189.718898 -236.460517 
L 194.241868 -242.78264 
L 198.764838 -249.726464 
L 203.287807 -257.286331 
L 207.810777 -265.44291 
L 212.333747 -274.161835 
L 216.856717 -283.392669 
L 221.379687 -293.068299 
L 225.902657 -303.104823 
L 230.425627 -313.40201 
L 234.948596 -323.844353 
L 239.471566 -334.302761 
L 243.994536 -344.636853 
L 248.517506 -354.697841 
L 253.040476 -364.331909 
L 257.563446 -373.384009 
L 262.086416 -381.701939 
L 266.609385 -389.140551 
L 271.132355 -395.565945 
L 275.655325 -400.859463 
L 280.178295 -404.921332 
L 284.701265 -407.67379 
L 289.224235 -409.063558 
L 293.747205 -409.063558 
L 298.270174 -407.67379 
L 302.793144 -404.921332 
L 307.316114 -400.859463 
L 311.839084 -395.565945 
L 316.362054 -389.140551 
L 320.885024 -381.701939 
L 325.407993 -373.384009 
L 329.930963 -364.331909 
L 334.453933 -354.697841 
L 338.976903 -344.636853 
L 343.499873 -334.302761 
L 348.022843 -323.844353 
L 352.545813 -313.40201 
L 357.068782 -303.104823 
L 361.591752 -293.068299 
L 366.114722 -283.392669 
L 370.637692 -274.161835 
L 375.160662 -265.44291 
L 379.683632 -257.286331 
L 384.206602 -249.726464 
L 388.729571 -242.78264 
L 393.252541 -236.460517 
L 397.775511 -230.75369 
L 402.298481 -225.645463 
L 406.821451 -221.110678 
L 411.344421 -217.117547 
L 415.867391 -213.629416 
L 420.39036 -210.60639 
L 424.91333 -208.006817 
L 429.4363 -205.788564 
L 433.95927 -203.910099 
L 438.48224 -202.331367 
L 443.00521 -201.01446 
L 447.528179 -199.924104 
L 452.051149 -199.027972 
L 456.574119 -198.296857 
L 461.097089 -197.70471 
L 465.620059 -197.228583 
L 470.143029 -196.848498 
L 474.665999 -196.547255 
L 479.188968 -196.3102 
L 483.711938 -196.12498 
L 488.234908 -195.981283 
L 492.757878 -195.870586 
L 497.280848 -195.785909 
L 501.803818 -195.721589 
L 506.326788 -195.673073 
L 510.849757 -195.636732 
L 515.372727 -195.6097 
L 515.372727 -195.538011 
L 515.372727 -195.538011 
L 510.849757 -195.538011 
L 506.326788 -195.538011 
L 501.803818 -195.538011 
L 497.280848 -195.538011 
L 492.757878 -195.538011 
L 488.234908 -195.538011 
L 483.711938 -195.538011 
L 479.188968 -195.538011 
L 474.665999 -195.538011 
L 470.143029 -195.538011 
L 465.620059 -195.538011 
L 461.097089 -195.538011 
L 456.574119 -195.538011 
L 452.051149 -195.538011 
L 447.528179 -195.538011 
L 443.00521 -195.538011 
L 438.48224 -195.538011 
L 433.95927 -195.538011 
L 429.4363 -195.538011 
L 424.91333 -195.538011 
L 420.39036 -195.538011 
L 415.867391 -195.538011 
L 411.344421 -195.538011 
L 406.821451 -195.538011 
L 402.298481 -195.538011 
L 397.775511 -195.538011 
L 393.252541 -195.538011 
L 388.729571 -195.538011 
L 384.206602 -195.538011 
L 379.683632 -195.538011 
L 375.160662 -195.538011 
L 370.637692 -195.538011 
L 366.114722 -195.538011 
L 361.591752 -195.538011 
L 357.068782 -195.538011 
L 352.545813 -195.538011 
L 348.022843 -195.538011 
L 343.499873 -195.538011 
L 338.976903 -195.538011 
L 334.453933 -195.538011 
L 329.930963 -195.538011 
L 325.407993 -195.538011 
L 320.885024 -195.538011 
L 316.362054 -195.538011 
L 311.839084 -195.538011 
L 307.316114 -195.538011 
L 302.793144 -195.538011 
L 298.270174 -195.538011 
L 293.747205 -195.538011 
L 289.224235 -195.538011 
L 284.701265 -195.538011 
L 280.178295 -195.538011 
L 275.655325 -195.538011 
L 271.132355 -195.538011 
L 266.609385 -195.538011 
L 262.086416 -195.538011 
L 257.563446 -195.538011 
L 253.040476 -195.538011 
L 248.517506 -195.538011 
L 243.994536 -195.538011 
L 239.471566 -195.538011 
L 234.948596 -195.538011 
L 230.425627 -195.538011 
L 225.902657 -195.538011 
L 221.379687 -195.538011 
L 216.856717 -195.538011 
L 212.333747 -195.538011 
L 207.810777 -195.538011 
L 203.287807 -195.538011 
L 198.764838 -195.538011 
L 194.241868 -195.538011 
L 189.718898 -195.538011 
L 185.195928 -195.538011 
L 180.672958 -195.538011 
L 176.149988 -195.538011 
L 171.627019 -195.538011 
L 167.104049 -195.538011 
L 162.581079 -195.538011 
L 158.058109 -195.538011 
L 153.535139 -195.538011 
L 149.012169 -195.538011 
L 144.489199 -195.538011 
L 139.96623 -195.538011 
L 135.44326 -195.538011 
L 130.92029 -195.538011 
L 126.39732 -195.538011 
L 121.87435 -195.538011 
L 117.35138 -195.538011 
L 112.82841 -195.538011 
L 108.305441 -195.538011 
L 103.782471 -195.538011 
L 99.259501 -195.538011 
L 94.736531 -195.538011 
L 90.213561 -195.538011 
L 85.690591 -195.538011 
L 81.167621 -195.538011 
L 76.644652 -195.538011 
L 72.121682 -195.538011 
L 67.598712 -195.538011 
z
" id="maeaa16cec2" style="stroke:#ff6384;stroke-opacity:0.5;"/>
    </defs>
    <g clip-path="url(#p1a072e426b)">
     <use style="fill:#ff6384;fill-opacity:0.5;stroke:#ff6384;stroke-opacity:0.5;" x="0" xlink:href="#maeaa16cec2" y="581.789375"/>
    </g>
   </g>
   <g id="PolyCollection_2">
    <defs>
     <path d="M 58.827273 -195.538011 
L 58.827273 -195.649646 
L 61.731797 -195.691741 
L 64.636321 -195.748332 
L 67.540845 -195.823882 
L 70.445369 -195.924042 
L 73.349893 -196.055902 
L 76.254417 -196.228281 
L 79.158941 -196.452047 
L 82.063465 -196.740475 
L 84.967989 -197.109621 
L 87.872513 -197.578722 
L 90.777037 -198.170595 
L 93.681561 -198.912028 
L 96.586085 -199.834129 
L 99.490609 -200.972633 
L 102.395133 -202.368102 
L 105.299657 -204.066022 
L 108.204181 -206.11673 
L 111.108705 -208.575156 
L 114.013229 -211.500331 
L 116.917753 -214.954629 
L 119.822277 -219.002725 
L 122.726801 -223.710227 
L 125.631325 -229.142 
L 128.535849 -235.360164 
L 131.440373 -242.421802 
L 134.344897 -250.376413 
L 137.249422 -259.263171 
L 140.153946 -269.10808 
L 143.05847 -279.92111 
L 145.962994 -291.693451 
L 148.867518 -304.395004 
L 151.772042 -317.972249 
L 154.676566 -332.346647 
L 157.58109 -347.413687 
L 160.485614 -363.042718 
L 163.390138 -379.077657 
L 166.294662 -395.338636 
L 169.199186 -411.624631 
L 172.10371 -427.71704 
L 175.008234 -443.384166 
L 177.912758 -458.386485 
L 180.817282 -472.482557 
L 183.721806 -485.435366 
L 186.62633 -497.018888 
L 189.530854 -507.02461 
L 192.435378 -515.267759 
L 195.339902 -521.592965 
L 198.244426 -525.879135 
L 201.14895 -528.043303 
L 204.053474 -528.043303 
L 206.957998 -525.879135 
L 209.862522 -521.592965 
L 212.767046 -515.267759 
L 215.67157 -507.02461 
L 218.576094 -497.018888 
L 221.480618 -485.435366 
L 224.385142 -472.482557 
L 227.289666 -458.386485 
L 230.19419 -443.384166 
L 233.098714 -427.71704 
L 236.003239 -411.624631 
L 238.907763 -395.338636 
L 241.812287 -379.077657 
L 244.716811 -363.042718 
L 247.621335 -347.413687 
L 250.525859 -332.346647 
L 253.430383 -317.972249 
L 256.334907 -304.395004 
L 259.239431 -291.693451 
L 262.143955 -279.92111 
L 265.048479 -269.10808 
L 267.953003 -259.263171 
L 270.857527 -250.376413 
L 273.762051 -242.421802 
L 276.666575 -235.360164 
L 279.571099 -229.142 
L 282.475623 -223.710227 
L 285.380147 -219.002725 
L 288.284671 -214.954629 
L 291.189195 -211.500331 
L 294.093719 -208.575156 
L 296.998243 -206.11673 
L 299.902767 -204.066022 
L 302.807291 -202.368102 
L 305.711815 -200.972633 
L 308.616339 -199.834129 
L 311.520863 -198.912028 
L 314.425387 -198.170595 
L 317.329911 -197.578722 
L 320.234435 -197.109621 
L 323.138959 -196.740475 
L 326.043483 -196.452047 
L 328.948007 -196.228281 
L 331.852531 -196.055902 
L 334.757056 -195.924042 
L 337.66158 -195.823882 
L 340.566104 -195.748332 
L 343.470628 -195.691741 
L 346.375152 -195.649646 
L 346.375152 -195.538011 
L 346.375152 -195.538011 
L 343.470628 -195.538011 
L 340.566104 -195.538011 
L 337.66158 -195.538011 
L 334.757056 -195.538011 
L 331.852531 -195.538011 
L 328.948007 -195.538011 
L 326.043483 -195.538011 
L 323.138959 -195.538011 
L 320.234435 -195.538011 
L 317.329911 -195.538011 
L 314.425387 -195.538011 
L 311.520863 -195.538011 
L 308.616339 -195.538011 
L 305.711815 -195.538011 
L 302.807291 -195.538011 
L 299.902767 -195.538011 
L 296.998243 -195.538011 
L 294.093719 -195.538011 
L 291.189195 -195.538011 
L 288.284671 -195.538011 
L 285.380147 -195.538011 
L 282.475623 -195.538011 
L 279.571099 -195.538011 
L 276.666575 -195.538011 
L 273.762051 -195.538011 
L 270.857527 -195.538011 
L 267.953003 -195.538011 
L 265.048479 -195.538011 
L 262.143955 -195.538011 
L 259.239431 -195.538011 
L 256.334907 -195.538011 
L 253.430383 -195.538011 
L 250.525859 -195.538011 
L 247.621335 -195.538011 
L 244.716811 -195.538011 
L 241.812287 -195.538011 
L 238.907763 -195.538011 
L 236.003239 -195.538011 
L 233.098714 -195.538011 
L 230.19419 -195.538011 
L 227.289666 -195.538011 
L 224.385142 -195.538011 
L 221.480618 -195.538011 
L 218.576094 -195.538011 
L 215.67157 -195.538011 
L 212.767046 -195.538011 
L 209.862522 -195.538011 
L 206.957998 -195.538011 
L 204.053474 -195.538011 
L 201.14895 -195.538011 
L 198.244426 -195.538011 
L 195.339902 -195.538011 
L 192.435378 -195.538011 
L 189.530854 -195.538011 
L 186.62633 -195.538011 
L 183.721806 -195.538011 
L 180.817282 -195.538011 
L 177.912758 -195.538011 
L 175.008234 -195.538011 
L 172.10371 -195.538011 
L 169.199186 -195.538011 
L 166.294662 -195.538011 
L 163.390138 -195.538011 
L 160.485614 -195.538011 
L 157.58109 -195.538011 
L 154.676566 -195.538011 
L 151.772042 -195.538011 
L 148.867518 -195.538011 
L 145.962994 -195.538011 
L 143.05847 -195.538011 
L 140.153946 -195.538011 
L 137.249422 -195.538011 
L 134.344897 -195.538011 
L 131.440373 -195.538011 
L 128.535849 -195.538011 
L 125.631325 -195.538011 
L 122.726801 -195.538011 
L 119.822277 -195.538011 
L 116.917753 -195.538011 
L 114.013229 -195.538011 
L 111.108705 -195.538011 
L 108.204181 -195.538011 
L 105.299657 -195.538011 
L 102.395133 -195.538011 
L 99.490609 -195.538011 
L 96.586085 -195.538011 
L 93.681561 -195.538011 
L 90.777037 -195.538011 
L 87.872513 -195.538011 
L 84.967989 -195.538011 
L 82.063465 -195.538011 
L 79.158941 -195.538011 
L 76.254417 -195.538011 
L 73.349893 -195.538011 
L 70.445369 -195.538011 
L 67.540845 -195.538011 
L 64.636321 -195.538011 
L 61.731797 -195.538011 
L 58.827273 -195.538011 
z
" id="m40150edc91" style="stroke:#36a2eb;stroke-opacity:0.5;"/>
    </defs>
    <g clip-path="url(#p1a072e426b)">
     <use style="fill:#36a2eb;fill-opacity:0.5;stroke:#36a2eb;stroke-opacity:0.5;" x="0" xlink:href="#m40150edc91" y="581.789375"/>
    </g>
   </g>
   <g id="PolyCollection_3">
    <defs>
     <path d="M 104.105459 -195.538011 
L 104.105459 -195.650004 
L 107.000688 -195.692234 
L 109.895918 -195.749007 
L 112.791147 -195.8248 
L 115.686377 -195.925281 
L 118.581606 -196.057565 
L 121.476836 -196.230497 
L 124.372065 -196.454982 
L 127.267295 -196.744335 
L 130.162524 -197.114666 
L 133.057754 -197.585273 
L 135.952984 -198.179047 
L 138.848213 -198.922859 
L 141.743443 -199.847921 
L 144.638672 -200.990079 
L 147.533902 -202.390029 
L 150.429131 -204.093399 
L 153.324361 -206.150691 
L 156.21959 -208.617009 
L 159.11482 -211.551575 
L 162.010049 -215.016962 
L 164.905279 -219.078053 
L 167.800508 -223.800667 
L 170.695738 -229.249878 
L 173.590967 -235.488004 
L 176.486197 -242.572312 
L 179.381426 -250.552459 
L 182.276656 -259.467747 
L 185.171886 -269.344261 
L 188.067115 -280.192004 
L 190.962345 -292.002137 
L 193.857574 -304.744465 
L 196.752804 -318.365297 
L 199.648033 -332.785841 
L 202.543263 -347.901251 
L 205.438492 -363.580456 
L 208.333722 -379.666871 
L 211.228951 -395.980052 
L 214.124181 -412.31833 
L 217.01941 -428.4624 
L 219.91464 -444.179822 
L 222.809869 -459.230303 
L 225.705099 -473.371627 
L 228.600328 -486.366018 
L 231.495558 -497.986726 
L 234.390787 -508.02457 
L 237.286017 -516.294181 
L 240.181247 -522.639693 
L 243.076476 -526.939623 
L 245.971706 -529.110739 
L 248.866935 -529.110739 
L 251.762165 -526.939623 
L 254.657394 -522.639693 
L 257.552624 -516.294181 
L 260.447853 -508.02457 
L 263.343083 -497.986726 
L 266.238312 -486.366018 
L 269.133542 -473.371627 
L 272.028771 -459.230303 
L 274.924001 -444.179822 
L 277.81923 -428.4624 
L 280.71446 -412.31833 
L 283.609689 -395.980052 
L 286.504919 -379.666871 
L 289.400149 -363.580456 
L 292.295378 -347.901251 
L 295.190608 -332.785841 
L 298.085837 -318.365297 
L 300.981067 -304.744465 
L 303.876296 -292.002137 
L 306.771526 -280.192004 
L 309.666755 -269.344261 
L 312.561985 -259.467747 
L 315.457214 -250.552459 
L 318.352444 -242.572312 
L 321.247673 -235.488004 
L 324.142903 -229.249878 
L 327.038132 -223.800667 
L 329.933362 -219.078053 
L 332.828591 -215.016962 
L 335.723821 -211.551575 
L 338.619051 -208.617009 
L 341.51428 -206.150691 
L 344.40951 -204.093399 
L 347.304739 -202.390029 
L 350.199969 -200.990079 
L 353.095198 -199.847921 
L 355.990428 -198.922859 
L 358.885657 -198.179047 
L 361.780887 -197.585273 
L 364.676116 -197.114666 
L 367.571346 -196.744335 
L 370.466575 -196.454982 
L 373.361805 -196.230497 
L 376.257034 -196.057565 
L 379.152264 -195.925281 
L 382.047493 -195.8248 
L 384.942723 -195.749007 
L 387.837953 -195.692234 
L 390.733182 -195.650004 
L 390.733182 -195.538011 
L 390.733182 -195.538011 
L 387.837953 -195.538011 
L 384.942723 -195.538011 
L 382.047493 -195.538011 
L 379.152264 -195.538011 
L 376.257034 -195.538011 
L 373.361805 -195.538011 
L 370.466575 -195.538011 
L 367.571346 -195.538011 
L 364.676116 -195.538011 
L 361.780887 -195.538011 
L 358.885657 -195.538011 
L 355.990428 -195.538011 
L 353.095198 -195.538011 
L 350.199969 -195.538011 
L 347.304739 -195.538011 
L 344.40951 -195.538011 
L 341.51428 -195.538011 
L 338.619051 -195.538011 
L 335.723821 -195.538011 
L 332.828591 -195.538011 
L 329.933362 -195.538011 
L 327.038132 -195.538011 
L 324.142903 -195.538011 
L 321.247673 -195.538011 
L 318.352444 -195.538011 
L 315.457214 -195.538011 
L 312.561985 -195.538011 
L 309.666755 -195.538011 
L 306.771526 -195.538011 
L 303.876296 -195.538011 
L 300.981067 -195.538011 
L 298.085837 -195.538011 
L 295.190608 -195.538011 
L 292.295378 -195.538011 
L 289.400149 -195.538011 
L 286.504919 -195.538011 
L 283.609689 -195.538011 
L 280.71446 -195.538011 
L 277.81923 -195.538011 
L 274.924001 -195.538011 
L 272.028771 -195.538011 
L 269.133542 -195.538011 
L 266.238312 -195.538011 
L 263.343083 -195.538011 
L 260.447853 -195.538011 
L 257.552624 -195.538011 
L 254.657394 -195.538011 
L 251.762165 -195.538011 
L 248.866935 -195.538011 
L 245.971706 -195.538011 
L 243.076476 -195.538011 
L 240.181247 -195.538011 
L 237.286017 -195.538011 
L 234.390787 -195.538011 
L 231.495558 -195.538011 
L 228.600328 -195.538011 
L 225.705099 -195.538011 
L 222.809869 -195.538011 
L 219.91464 -195.538011 
L 217.01941 -195.538011 
L 214.124181 -195.538011 
L 211.228951 -195.538011 
L 208.333722 -195.538011 
L 205.438492 -195.538011 
L 202.543263 -195.538011 
L 199.648033 -195.538011 
L 196.752804 -195.538011 
L 193.857574 -195.538011 
L 190.962345 -195.538011 
L 188.067115 -195.538011 
L 185.171886 -195.538011 
L 182.276656 -195.538011 
L 179.381426 -195.538011 
L 176.486197 -195.538011 
L 173.590967 -195.538011 
L 170.695738 -195.538011 
L 167.800508 -195.538011 
L 164.905279 -195.538011 
L 162.010049 -195.538011 
L 159.11482 -195.538011 
L 156.21959 -195.538011 
L 153.324361 -195.538011 
L 150.429131 -195.538011 
L 147.533902 -195.538011 
L 144.638672 -195.538011 
L 141.743443 -195.538011 
L 138.848213 -195.538011 
L 135.952984 -195.538011 
L 133.057754 -195.538011 
L 130.162524 -195.538011 
L 127.267295 -195.538011 
L 124.372065 -195.538011 
L 121.476836 -195.538011 
L 118.581606 -195.538011 
L 115.686377 -195.538011 
L 112.791147 -195.538011 
L 109.895918 -195.538011 
L 107.000688 -195.538011 
L 104.105459 -195.538011 
z
" id="m1766d35a1f" style="stroke:#4bc0c0;stroke-opacity:0.5;"/>
    </defs>
    <g clip-path="url(#p1a072e426b)">
     <use style="fill:#4bc0c0;fill-opacity:0.5;stroke:#4bc0c0;stroke-opacity:0.5;" x="0" xlink:href="#m1766d35a1f" y="581.789375"/>
    </g>
   </g>
   <g id="line2d_1">
    <path clip-path="url(#p1a072e426b)" d="M 67.598712 386.179675 
L 72.121682 386.152643 
L 76.644652 386.116302 
L 81.167621 386.067786 
L 85.690591 386.003466 
L 90.213561 385.918789 
L 94.736531 385.808092 
L 99.259501 385.664395 
L 103.782471 385.479175 
L 108.305441 385.24212 
L 112.82841 384.940877 
L 117.35138 384.560792 
L 121.87435 384.084665 
L 126.39732 383.492518 
L 130.92029 382.761403 
L 135.44326 381.865271 
L 139.96623 380.774915 
L 144.489199 379.458008 
L 149.012169 377.879276 
L 153.535139 376.000811 
L 158.058109 373.782558 
L 162.581079 371.182985 
L 167.104049 368.159959 
L 171.627019 364.671828 
L 176.149988 360.678697 
L 180.672958 356.143912 
L 185.195928 351.035685 
L 189.718898 345.328858 
L 194.241868 339.006735 
L 198.764838 332.062911 
L 203.287807 324.503044 
L 207.810777 316.346465 
L 212.333747 307.62754 
L 216.856717 298.396706 
L 221.379687 288.721076 
L 225.902657 278.684552 
L 230.425627 268.387365 
L 234.948596 257.945022 
L 239.471566 247.486614 
L 243.994536 237.152522 
L 248.517506 227.091534 
L 253.040476 217.457466 
L 257.563446 208.405366 
L 262.086416 200.087436 
L 266.609385 192.648824 
L 271.132355 186.22343 
L 275.655325 180.929912 
L 280.178295 176.868043 
L 284.701265 174.115585 
L 289.224235 172.725817 
L 293.747205 172.725817 
L 298.270174 174.115585 
L 302.793144 176.868043 
L 307.316114 180.929912 
L 311.839084 186.22343 
L 316.362054 192.648824 
L 320.885024 200.087436 
L 325.407993 208.405366 
L 329.930963 217.457466 
L 334.453933 227.091534 
L 338.976903 237.152522 
L 343.499873 247.486614 
L 348.022843 257.945022 
L 352.545813 268.387365 
L 357.068782 278.684552 
L 361.591752 288.721076 
L 366.114722 298.396706 
L 370.637692 307.62754 
L 375.160662 316.346465 
L 379.683632 324.503044 
L 384.206602 332.062911 
L 388.729571 339.006735 
L 393.252541 345.328858 
L 397.775511 351.035685 
L 402.298481 356.143912 
L 406.821451 360.678697 
L 411.344421 364.671828 
L 415.867391 368.159959 
L 420.39036 371.182985 
L 424.91333 373.782558 
L 429.4363 376.000811 
L 433.95927 377.879276 
L 438.48224 379.458008 
L 443.00521 380.774915 
L 447.528179 381.865271 
L 452.051149 382.761403 
L 456.574119 383.492518 
L 461.097089 384.084665 
L 465.620059 384.560792 
L 470.143029 384.940877 
L 474.665999 385.24212 
L 479.188968 385.479175 
L 483.711938 385.664395 
L 488.234908 385.808092 
L 492.757878 385.918789 
L 497.280848 386.003466 
L 501.803818 386.067786 
L 506.326788 386.116302 
L 510.849757 386.152643 
L 515.372727 386.179675 
" style="fill:none;stroke:#ff6384;stroke-linecap:square;"/>
   </g>
   <g id="line2d_2">
    <path clip-path="url(#p1a072e426b)" d="M 58.827273 386.139729 
L 61.731797 386.097634 
L 64.636321 386.041043 
L 67.540845 385.965493 
L 70.445369 385.865333 
L 73.349893 385.733473 
L 76.254417 385.561094 
L 79.158941 385.337328 
L 82.063465 385.0489 
L 84.967989 384.679754 
L 87.872513 384.210653 
L 90.777037 383.61878 
L 93.681561 382.877347 
L 96.586085 381.955246 
L 99.490609 380.816742 
L 102.395133 379.421273 
L 105.299657 377.723353 
L 108.204181 375.672645 
L 111.108705 373.214219 
L 114.013229 370.289044 
L 116.917753 366.834746 
L 119.822277 362.78665 
L 122.726801 358.079148 
L 125.631325 352.647375 
L 128.535849 346.429211 
L 131.440373 339.367573 
L 134.344897 331.412962 
L 137.249422 322.526204 
L 140.153946 312.681295 
L 143.05847 301.868265 
L 145.962994 290.095924 
L 148.867518 277.394371 
L 151.772042 263.817126 
L 154.676566 249.442728 
L 157.58109 234.375688 
L 160.485614 218.746657 
L 163.390138 202.711718 
L 166.294662 186.450739 
L 169.199186 170.164744 
L 172.10371 154.072335 
L 175.008234 138.405209 
L 177.912758 123.40289 
L 180.817282 109.306818 
L 183.721806 96.354009 
L 186.62633 84.770487 
L 189.530854 74.764765 
L 192.435378 66.521616 
L 195.339902 60.19641 
L 198.244426 55.91024 
L 201.14895 53.746072 
L 204.053474 53.746072 
L 206.957998 55.91024 
L 209.862522 60.19641 
L 212.767046 66.521616 
L 215.67157 74.764765 
L 218.576094 84.770487 
L 221.480618 96.354009 
L 224.385142 109.306818 
L 227.289666 123.40289 
L 230.19419 138.405209 
L 233.098714 154.072335 
L 236.003239 170.164744 
L 238.907763 186.450739 
L 241.812287 202.711718 
L 244.716811 218.746657 
L 247.621335 234.375688 
L 250.525859 249.442728 
L 253.430383 263.817126 
L 256.334907 277.394371 
L 259.239431 290.095924 
L 262.143955 301.868265 
L 265.048479 312.681295 
L 267.953003 322.526204 
L 270.857527 331.412962 
L 273.762051 339.367573 
L 276.666575 346.429211 
L 279.571099 352.647375 
L 282.475623 358.079148 
L 285.380147 362.78665 
L 288.284671 366.834746 
L 291.189195 370.289044 
L 294.093719 373.214219 
L 296.998243 375.672645 
L 299.902767 377.723353 
L 302.807291 379.421273 
L 305.711815 380.816742 
L 308.616339 381.955246 
L 311.520863 382.877347 
L 314.425387 383.61878 
L 317.329911 384.210653 
L 320.234435 384.679754 
L 323.138959 385.0489 
L 326.043483 385.337328 
L 328.948007 385.561094 
L 331.852531 385.733473 
L 334.757056 385.865333 
L 337.66158 385.965493 
L 340.566104 386.041043 
L 343.470628 386.097634 
L 346.375152 386.139729 
" style="fill:none;stroke:#36a2eb;stroke-linecap:square;"/>
   </g>
   <g id="line2d_3">
    <path clip-path="url(#p1a072e426b)" d="M 104.105459 386.139371 
L 107.000688 386.097141 
L 109.895918 386.040368 
L 112.791147 385.964575 
L 115.686377 385.864094 
L 118.581606 385.73181 
L 121.476836 385.558878 
L 124.372065 385.334393 
L 127.267295 385.04504 
L 130.162524 384.674709 
L 133.057754 384.204102 
L 135.952984 383.610328 
L 138.848213 382.866516 
L 141.743443 381.941454 
L 144.638672 380.799296 
L 147.533902 379.399346 
L 150.429131 377.695976 
L 153.324361 375.638684 
L 156.21959 373.172366 
L 159.11482 370.2378 
L 162.010049 366.772413 
L 164.905279 362.711322 
L 167.800508 357.988708 
L 170.695738 352.539497 
L 173.590967 346.301371 
L 176.486197 339.217063 
L 179.381426 331.236916 
L 182.276656 322.321628 
L 185.171886 312.445114 
L 188.067115 301.597371 
L 190.962345 289.787238 
L 193.857574 277.04491 
L 196.752804 263.424078 
L 199.648033 249.003534 
L 202.543263 233.888124 
L 205.438492 218.208919 
L 208.333722 202.122504 
L 211.228951 185.809323 
L 214.124181 169.471045 
L 217.01941 153.326975 
L 219.91464 137.609553 
L 222.809869 122.559072 
L 225.705099 108.417748 
L 228.600328 95.423357 
L 231.495558 83.802649 
L 234.390787 73.764805 
L 237.286017 65.495194 
L 240.181247 59.149682 
L 243.076476 54.849752 
L 245.971706 52.678636 
L 248.866935 52.678636 
L 251.762165 54.849752 
L 254.657394 59.149682 
L 257.552624 65.495194 
L 260.447853 73.764805 
L 263.343083 83.802649 
L 266.238312 95.423357 
L 269.133542 108.417748 
L 272.028771 122.559072 
L 274.924001 137.609553 
L 277.81923 153.326975 
L 280.71446 169.471045 
L 283.609689 185.809323 
L 286.504919 202.122504 
L 289.400149 218.208919 
L 292.295378 233.888124 
L 295.190608 249.003534 
L 298.085837 263.424078 
L 300.981067 277.04491 
L 303.876296 289.787238 
L 306.771526 301.597371 
L 309.666755 312.445114 
L 312.561985 322.321628 
L 315.457214 331.236916 
L 318.352444 339.217063 
L 321.247673 346.301371 
L 324.142903 352.539497 
L 327.038132 357.988708 
L 329.933362 362.711322 
L 332.828591 366.772413 
L 335.723821 370.2378 
L 338.619051 373.172366 
L 341.51428 375.638684 
L 344.40951 377.695976 
L 347.304739 379.399346 
L 350.199969 380.799296 
L 353.095198 381.941454 
L 355.990428 382.866516 
L 358.885657 383.610328 
L 361.780887 384.204102 
L 364.676116 384.674709 
L 367.571346 385.04504 
L 370.466575 385.334393 
L 373.361805 385.558878 
L 376.257034 385.73181 
L 379.152264 385.864094 
L 382.047493 385.964575 
L 384.942723 386.040368 
L 387.837953 386.097141 
L 390.733182 386.139371 
" style="fill:none;stroke:#4bc0c0;stroke-linecap:square;"/>
   </g>
   <g id="patch_3">
    <path d="M 36 402.93 
L 538.2 402.93 
" style="fill:none;stroke:#000000;stroke-linecap:square;stroke-linejoin:miter;stroke-width:0.8;"/>
   </g>
   <g id="legend_1">
    <g id="patch_4">
     <path d="M 415.601563 109.626875 
L 528.4 109.626875 
Q 531.2 109.626875 531.2 106.826875 
L 531.2 45.8 
Q 531.2 43 528.4 43 
L 415.601563 43 
Q 412.801563 43 412.801563 45.8 
L 412.801563 106.826875 
Q 412.801563 109.626875 415.601563 109.626875 
z
" style="fill:#ffffff;opacity:0.8;stroke:#cccccc;stroke-linejoin:miter;"/>
    </g>
    <g id="patch_5">
     <path d="M 418.401563 59.237813 
L 446.401563 59.237813 
L 446.401563 49.437813 
L 418.401563 49.437813 
z
" style="fill:#ff6384;opacity:0.5;stroke:#ff6384;stroke-linejoin:miter;"/>
    </g>
    <g id="text_1">
     <!-- base -->
     <defs>
      <path d="M 48.6875 27.296875 
Q 48.6875 37.203125 44.609375 42.84375 
Q 40.53125 48.484375 33.40625 48.484375 
Q 26.265625 48.484375 22.1875 42.84375 
Q 18.109375 37.203125 18.109375 27.296875 
Q 18.109375 17.390625 22.1875 11.75 
Q 26.265625 6.109375 33.40625 6.109375 
Q 40.53125 6.109375 44.609375 11.75 
Q 48.6875 17.390625 48.6875 27.296875 
z
M 18.109375 46.390625 
Q 20.953125 51.265625 25.265625 53.625 
Q 29.59375 56 35.59375 56 
Q 45.5625 56 51.78125 48.09375 
Q 58.015625 40.1875 58.015625 27.296875 
Q 58.015625 14.40625 51.78125 6.484375 
Q 45.5625 -1.421875 35.59375 -1.421875 
Q 29.59375 -1.421875 25.265625 0.953125 
Q 20.953125 3.328125 18.109375 8.203125 
L 18.109375 0 
L 9.078125 0 
L 9.078125 75.984375 
L 18.109375 75.984375 
z
" id="DejaVuSans-98"/>
      <path d="M 34.28125 27.484375 
Q 23.390625 27.484375 19.1875 25 
Q 14.984375 22.515625 14.984375 16.5 
Q 14.984375 11.71875 18.140625 8.90625 
Q 21.296875 6.109375 26.703125 6.109375 
Q 34.1875 6.109375 38.703125 11.40625 
Q 43.21875 16.703125 43.21875 25.484375 
L 43.21875 27.484375 
z
M 52.203125 31.203125 
L 52.203125 0 
L 43.21875 0 
L 43.21875 8.296875 
Q 40.140625 3.328125 35.546875 0.953125 
Q 30.953125 -1.421875 24.3125 -1.421875 
Q 15.921875 -1.421875 10.953125 3.296875 
Q 6 8.015625 6 15.921875 
Q 6 25.140625 12.171875 29.828125 
Q 18.359375 34.515625 30.609375 34.515625 
L 43.21875 34.515625 
L 43.21875 35.40625 
Q 43.21875 41.609375 39.140625 45 
Q 35.0625 48.390625 27.6875 48.390625 
Q 23 48.390625 18.546875 47.265625 
Q 14.109375 46.140625 10.015625 43.890625 
L 10.015625 52.203125 
Q 14.9375 54.109375 19.578125 55.046875 
Q 24.21875 56 28.609375 56 
Q 40.484375 56 46.34375 49.84375 
Q 52.203125 43.703125 52.203125 31.203125 
z
" id="DejaVuSans-97"/>
      <path d="M 44.28125 53.078125 
L 44.28125 44.578125 
Q 40.484375 46.53125 36.375 47.5 
Q 32.28125 48.484375 27.875 48.484375 
Q 21.1875 48.484375 17.84375 46.4375 
Q 14.5 44.390625 14.5 40.28125 
Q 14.5 37.15625 16.890625 35.375 
Q 19.28125 33.59375 26.515625 31.984375 
L 29.59375 31.296875 
Q 39.15625 29.25 43.1875 25.515625 
Q 47.21875 21.78125 47.21875 15.09375 
Q 47.21875 7.46875 41.1875 3.015625 
Q 35.15625 -1.421875 24.609375 -1.421875 
Q 20.21875 -1.421875 15.453125 -0.5625 
Q 10.6875 0.296875 5.421875 2 
L 5.421875 11.28125 
Q 10.40625 8.6875 15.234375 7.390625 
Q 20.0625 6.109375 24.8125 6.109375 
Q 31.15625 6.109375 34.5625 8.28125 
Q 37.984375 10.453125 37.984375 14.40625 
Q 37.984375 18.0625 35.515625 20.015625 
Q 33.0625 21.96875 24.703125 23.78125 
L 21.578125 24.515625 
Q 13.234375 26.265625 9.515625 29.90625 
Q 5.8125 33.546875 5.8125 39.890625 
Q 5.8125 47.609375 11.28125 51.796875 
Q 16.75 56 26.8125 56 
Q 31.78125 56 36.171875 55.265625 
Q 40.578125 54.546875 44.28125 53.078125 
z
" id="DejaVuSans-115"/>
      <path d="M 56.203125 29.59375 
L 56.203125 25.203125 
L 14.890625 25.203125 
Q 15.484375 15.921875 20.484375 11.0625 
Q 25.484375 6.203125 34.421875 6.203125 
Q 39.59375 6.203125 44.453125 7.46875 
Q 49.3125 8.734375 54.109375 11.28125 
L 54.109375 2.78125 
Q 49.265625 0.734375 44.1875 -0.34375 
Q 39.109375 -1.421875 33.890625 -1.421875 
Q 20.796875 -1.421875 13.15625 6.1875 
Q 5.515625 13.8125 5.515625 26.8125 
Q 5.515625 40.234375 12.765625 48.109375 
Q 20.015625 56 32.328125 56 
Q 43.359375 56 49.78125 48.890625 
Q 56.203125 41.796875 56.203125 29.59375 
z
M 47.21875 32.234375 
Q 47.125 39.59375 43.09375 43.984375 
Q 39.0625 48.390625 32.421875 48.390625 
Q 24.90625 48.390625 20.390625 44.140625 
Q 15.875 39.890625 15.1875 32.171875 
z
" id="DejaVuSans-101"/>
     </defs>
     <g transform="translate(457.601563 59.237813)scale(0.14 -0.14)">
      <use xlink:href="#DejaVuSans-98"/>
      <use x="63.476562" xlink:href="#DejaVuSans-97"/>
      <use x="124.755859" xlink:href="#DejaVuSans-115"/>
      <use x="176.855469" xlink:href="#DejaVuSans-101"/>
     </g>
    </g>
    <g id="patch_6">
     <path d="M 418.401563 79.787188 
L 446.401563 79.787188 
L 446.401563 69.987188 
L 418.401563 69.987188 
z
" style="fill:#36a2eb;opacity:0.5;stroke:#36a2eb;stroke-linejoin:miter;"/>
    </g>
    <g id="text_2">
     <!-- fifth_mid -->
     <defs>
      <path d="M 37.109375 75.984375 
L 37.109375 68.5 
L 28.515625 68.5 
Q 23.6875 68.5 21.796875 66.546875 
Q 19.921875 64.59375 19.921875 59.515625 
L 19.921875 54.6875 
L 34.71875 54.6875 
L 34.71875 47.703125 
L 19.921875 47.703125 
L 19.921875 0 
L 10.890625 0 
L 10.890625 47.703125 
L 2.296875 47.703125 
L 2.296875 54.6875 
L 10.890625 54.6875 
L 10.890625 58.5 
Q 10.890625 67.625 15.140625 71.796875 
Q 19.390625 75.984375 28.609375 75.984375 
z
" id="DejaVuSans-102"/>
      <path d="M 9.421875 54.6875 
L 18.40625 54.6875 
L 18.40625 0 
L 9.421875 0 
z
M 9.421875 75.984375 
L 18.40625 75.984375 
L 18.40625 64.59375 
L 9.421875 64.59375 
z
" id="DejaVuSans-105"/>
      <path d="M 18.3125 70.21875 
L 18.3125 54.6875 
L 36.8125 54.6875 
L 36.8125 47.703125 
L 18.3125 47.703125 
L 18.3125 18.015625 
Q 18.3125 11.328125 20.140625 9.421875 
Q 21.96875 7.515625 27.59375 7.515625 
L 36.8125 7.515625 
L 36.8125 0 
L 27.59375 0 
Q 17.1875 0 13.234375 3.875 
Q 9.28125 7.765625 9.28125 18.015625 
L 9.28125 47.703125 
L 2.6875 47.703125 
L 2.6875 54.6875 
L 9.28125 54.6875 
L 9.28125 70.21875 
z
" id="DejaVuSans-116"/>
      <path d="M 54.890625 33.015625 
L 54.890625 0 
L 45.90625 0 
L 45.90625 32.71875 
Q 45.90625 40.484375 42.875 44.328125 
Q 39.84375 48.1875 33.796875 48.1875 
Q 26.515625 48.1875 22.3125 43.546875 
Q 18.109375 38.921875 18.109375 30.90625 
L 18.109375 0 
L 9.078125 0 
L 9.078125 75.984375 
L 18.109375 75.984375 
L 18.109375 46.1875 
Q 21.34375 51.125 25.703125 53.5625 
Q 30.078125 56 35.796875 56 
Q 45.21875 56 50.046875 50.171875 
Q 54.890625 44.34375 54.890625 33.015625 
z
" id="DejaVuSans-104"/>
      <path d="M 50.984375 -16.609375 
L 50.984375 -23.578125 
L -0.984375 -23.578125 
L -0.984375 -16.609375 
z
" id="DejaVuSans-95"/>
      <path d="M 52 44.1875 
Q 55.375 50.25 60.0625 53.125 
Q 64.75 56 71.09375 56 
Q 79.640625 56 84.28125 50.015625 
Q 88.921875 44.046875 88.921875 33.015625 
L 88.921875 0 
L 79.890625 0 
L 79.890625 32.71875 
Q 79.890625 40.578125 77.09375 44.375 
Q 74.3125 48.1875 68.609375 48.1875 
Q 61.625 48.1875 57.5625 43.546875 
Q 53.515625 38.921875 53.515625 30.90625 
L 53.515625 0 
L 44.484375 0 
L 44.484375 32.71875 
Q 44.484375 40.625 41.703125 44.40625 
Q 38.921875 48.1875 33.109375 48.1875 
Q 26.21875 48.1875 22.15625 43.53125 
Q 18.109375 38.875 18.109375 30.90625 
L 18.109375 0 
L 9.078125 0 
L 9.078125 54.6875 
L 18.109375 54.6875 
L 18.109375 46.1875 
Q 21.1875 51.21875 25.484375 53.609375 
Q 29.78125 56 35.6875 56 
Q 41.65625 56 45.828125 52.96875 
Q 50 49.953125 52 44.1875 
z
" id="DejaVuSans-109"/>
      <path d="M 45.40625 46.390625 
L 45.40625 75.984375 
L 54.390625 75.984375 
L 54.390625 0 
L 45.40625 0 
L 45.40625 8.203125 
Q 42.578125 3.328125 38.25 0.953125 
Q 33.9375 -1.421875 27.875 -1.421875 
Q 17.96875 -1.421875 11.734375 6.484375 
Q 5.515625 14.40625 5.515625 27.296875 
Q 5.515625 40.1875 11.734375 48.09375 
Q 17.96875 56 27.875 56 
Q 33.9375 56 38.25 53.625 
Q 42.578125 51.265625 45.40625 46.390625 
z
M 14.796875 27.296875 
Q 14.796875 17.390625 18.875 11.75 
Q 22.953125 6.109375 30.078125 6.109375 
Q 37.203125 6.109375 41.296875 11.75 
Q 45.40625 17.390625 45.40625 27.296875 
Q 45.40625 37.203125 41.296875 42.84375 
Q 37.203125 48.484375 30.078125 48.484375 
Q 22.953125 48.484375 18.875 42.84375 
Q 14.796875 37.203125 14.796875 27.296875 
z
" id="DejaVuSans-100"/>
     </defs>
     <g transform="translate(457.601563 79.787188)scale(0.14 -0.14)">
      <use xlink:href="#DejaVuSans-102"/>
      <use x="35.205078" xlink:href="#DejaVuSans-105"/>
      <use x="62.988281" xlink:href="#DejaVuSans-102"/>
      <use x="98.177734" xlink:href="#DejaVuSans-116"/>
      <use x="137.386719" xlink:href="#DejaVuSans-104"/>
      <use x="200.765625" xlink:href="#DejaVuSans-95"/>
      <use x="250.765625" xlink:href="#DejaVuSans-109"/>
      <use x="348.177734" xlink:href="#DejaVuSans-105"/>
      <use x="375.960938" xlink:href="#DejaVuSans-100"/>
     </g>
    </g>
    <g id="patch_7">
     <path d="M 418.401563 100.725937 
L 446.401563 100.725937 
L 446.401563 90.925937 
L 418.401563 90.925937 
z
" style="fill:#4bc0c0;opacity:0.5;stroke:#4bc0c0;stroke-linejoin:miter;"/>
    </g>
    <g id="text_3">
     <!-- fifth_right -->
     <defs>
      <path d="M 41.109375 46.296875 
Q 39.59375 47.171875 37.8125 47.578125 
Q 36.03125 48 33.890625 48 
Q 26.265625 48 22.1875 43.046875 
Q 18.109375 38.09375 18.109375 28.8125 
L 18.109375 0 
L 9.078125 0 
L 9.078125 54.6875 
L 18.109375 54.6875 
L 18.109375 46.1875 
Q 20.953125 51.171875 25.484375 53.578125 
Q 30.03125 56 36.53125 56 
Q 37.453125 56 38.578125 55.875 
Q 39.703125 55.765625 41.0625 55.515625 
z
" id="DejaVuSans-114"/>
      <path d="M 45.40625 27.984375 
Q 45.40625 37.75 41.375 43.109375 
Q 37.359375 48.484375 30.078125 48.484375 
Q 22.859375 48.484375 18.828125 43.109375 
Q 14.796875 37.75 14.796875 27.984375 
Q 14.796875 18.265625 18.828125 12.890625 
Q 22.859375 7.515625 30.078125 7.515625 
Q 37.359375 7.515625 41.375 12.890625 
Q 45.40625 18.265625 45.40625 27.984375 
z
M 54.390625 6.78125 
Q 54.390625 -7.171875 48.1875 -13.984375 
Q 42 -20.796875 29.203125 -20.796875 
Q 24.46875 -20.796875 20.265625 -20.09375 
Q 16.0625 -19.390625 12.109375 -17.921875 
L 12.109375 -9.1875 
Q 16.0625 -11.328125 19.921875 -12.34375 
Q 23.78125 -13.375 27.78125 -13.375 
Q 36.625 -13.375 41.015625 -8.765625 
Q 45.40625 -4.15625 45.40625 5.171875 
L 45.40625 9.625 
Q 42.625 4.78125 38.28125 2.390625 
Q 33.9375 0 27.875 0 
Q 17.828125 0 11.671875 7.65625 
Q 5.515625 15.328125 5.515625 27.984375 
Q 5.515625 40.671875 11.671875 48.328125 
Q 17.828125 56 27.875 56 
Q 33.9375 56 38.28125 53.609375 
Q 42.625 51.21875 45.40625 46.390625 
L 45.40625 54.6875 
L 54.390625 54.6875 
z
" id="DejaVuSans-103"/>
     </defs>
     <g transform="translate(457.601563 100.725937)scale(0.14 -0.14)">
      <use xlink:href="#DejaVuSans-102"/>
      <use x="35.205078" xlink:href="#DejaVuSans-105"/>
      <use x="62.988281" xlink:href="#DejaVuSans-102"/>
      <use x="98.177734" xlink:href="#DejaVuSans-116"/>
      <use x="137.386719" xlink:href="#DejaVuSans-104"/>
      <use x="200.765625" xlink:href="#DejaVuSans-95"/>
      <use x="250.765625" xlink:href="#DejaVuSans-114"/>
      <use x="291.878906" xlink:href="#DejaVuSans-105"/>
      <use x="319.662109" xlink:href="#DejaVuSans-103"/>
      <use x="383.138672" xlink:href="#DejaVuSans-104"/>
      <use x="446.517578" xlink:href="#DejaVuSans-116"/>
     </g>
    </g>
   </g>
  </g>
  <g id="axes_2">
   <g id="patch_8">
    <path d="M 36 525.24 
L 538.2 525.24 
L 538.2 402.93 
L 36 402.93 
z
" style="fill:none;"/>
   </g>
   <g id="patch_9">
    <path clip-path="url(#pf970308a34)" d="M 181.781086 519.680455 
L 401.190353 519.680455 
L 401.190353 497.442273 
L 181.781086 497.442273 
z
" style="fill:#ff6384;opacity:0.5;"/>
   </g>
   <g id="patch_10">
    <path clip-path="url(#pf970308a34)" d="M 132.151982 475.204091 
L 273.050443 475.204091 
L 273.050443 452.965909 
L 132.151982 452.965909 
z
" style="fill:#36a2eb;opacity:0.5;"/>
   </g>
   <g id="patch_11">
    <path clip-path="url(#pf970308a34)" d="M 177.195528 430.727727 
L 317.643113 430.727727 
L 317.643113 408.489545 
L 177.195528 408.489545 
z
" style="fill:#4bc0c0;opacity:0.5;"/>
   </g>
   <g id="matplotlib.axis_1">
    <g id="xtick_1">
     <g id="line2d_4">
      <defs>
       <path d="M 0 0 
L 0 3.5 
" id="m22ee72960a" style="stroke:#000000;stroke-width:0.8;"/>
      </defs>
      <g>
       <use style="stroke:#000000;stroke-width:0.8;" x="119.669427" xlink:href="#m22ee72960a" y="525.24"/>
      </g>
     </g>
     <g id="text_4">
      <!-- 5.0 -->
      <defs>
       <path d="M 10.796875 72.90625 
L 49.515625 72.90625 
L 49.515625 64.59375 
L 19.828125 64.59375 
L 19.828125 46.734375 
Q 21.96875 47.46875 24.109375 47.828125 
Q 26.265625 48.1875 28.421875 48.1875 
Q 40.625 48.1875 47.75 41.5 
Q 54.890625 34.8125 54.890625 23.390625 
Q 54.890625 11.625 47.5625 5.09375 
Q 40.234375 -1.421875 26.90625 -1.421875 
Q 22.3125 -1.421875 17.546875 -0.640625 
Q 12.796875 0.140625 7.71875 1.703125 
L 7.71875 11.625 
Q 12.109375 9.234375 16.796875 8.0625 
Q 21.484375 6.890625 26.703125 6.890625 
Q 35.15625 6.890625 40.078125 11.328125 
Q 45.015625 15.765625 45.015625 23.390625 
Q 45.015625 31 40.078125 35.4375 
Q 35.15625 39.890625 26.703125 39.890625 
Q 22.75 39.890625 18.8125 39.015625 
Q 14.890625 38.140625 10.796875 36.28125 
z
" id="DejaVuSans-53"/>
       <path d="M 10.6875 12.40625 
L 21 12.40625 
L 21 0 
L 10.6875 0 
z
" id="DejaVuSans-46"/>
       <path d="M 31.78125 66.40625 
Q 24.171875 66.40625 20.328125 58.90625 
Q 16.5 51.421875 16.5 36.375 
Q 16.5 21.390625 20.328125 13.890625 
Q 24.171875 6.390625 31.78125 6.390625 
Q 39.453125 6.390625 43.28125 13.890625 
Q 47.125 21.390625 47.125 36.375 
Q 47.125 51.421875 43.28125 58.90625 
Q 39.453125 66.40625 31.78125 66.40625 
z
M 31.78125 74.21875 
Q 44.046875 74.21875 50.515625 64.515625 
Q 56.984375 54.828125 56.984375 36.375 
Q 56.984375 17.96875 50.515625 8.265625 
Q 44.046875 -1.421875 31.78125 -1.421875 
Q 19.53125 -1.421875 13.0625 8.265625 
Q 6.59375 17.96875 6.59375 36.375 
Q 6.59375 54.828125 13.0625 64.515625 
Q 19.53125 74.21875 31.78125 74.21875 
z
" id="DejaVuSans-48"/>
      </defs>
      <g transform="translate(108.53724 542.877813)scale(0.14 -0.14)">
       <use xlink:href="#DejaVuSans-53"/>
       <use x="63.623047" xlink:href="#DejaVuSans-46"/>
       <use x="95.410156" xlink:href="#DejaVuSans-48"/>
      </g>
     </g>
    </g>
    <g id="xtick_2">
     <g id="line2d_5">
      <g>
       <use style="stroke:#000000;stroke-width:0.8;" x="221.251721" xlink:href="#m22ee72960a" y="525.24"/>
      </g>
     </g>
     <g id="text_5">
      <!-- 5.5 -->
      <g transform="translate(210.119534 542.877813)scale(0.14 -0.14)">
       <use xlink:href="#DejaVuSans-53"/>
       <use x="63.623047" xlink:href="#DejaVuSans-46"/>
       <use x="95.410156" xlink:href="#DejaVuSans-53"/>
      </g>
     </g>
    </g>
    <g id="xtick_3">
     <g id="line2d_6">
      <g>
       <use style="stroke:#000000;stroke-width:0.8;" x="322.834016" xlink:href="#m22ee72960a" y="525.24"/>
      </g>
     </g>
     <g id="text_6">
      <!-- 6.0 -->
      <defs>
       <path d="M 33.015625 40.375 
Q 26.375 40.375 22.484375 35.828125 
Q 18.609375 31.296875 18.609375 23.390625 
Q 18.609375 15.53125 22.484375 10.953125 
Q 26.375 6.390625 33.015625 6.390625 
Q 39.65625 6.390625 43.53125 10.953125 
Q 47.40625 15.53125 47.40625 23.390625 
Q 47.40625 31.296875 43.53125 35.828125 
Q 39.65625 40.375 33.015625 40.375 
z
M 52.59375 71.296875 
L 52.59375 62.3125 
Q 48.875 64.0625 45.09375 64.984375 
Q 41.3125 65.921875 37.59375 65.921875 
Q 27.828125 65.921875 22.671875 59.328125 
Q 17.53125 52.734375 16.796875 39.40625 
Q 19.671875 43.65625 24.015625 45.921875 
Q 28.375 48.1875 33.59375 48.1875 
Q 44.578125 48.1875 50.953125 41.515625 
Q 57.328125 34.859375 57.328125 23.390625 
Q 57.328125 12.15625 50.6875 5.359375 
Q 44.046875 -1.421875 33.015625 -1.421875 
Q 20.359375 -1.421875 13.671875 8.265625 
Q 6.984375 17.96875 6.984375 36.375 
Q 6.984375 53.65625 15.1875 63.9375 
Q 23.390625 74.21875 37.203125 74.21875 
Q 40.921875 74.21875 44.703125 73.484375 
Q 48.484375 72.75 52.59375 71.296875 
z
" id="DejaVuSans-54"/>
      </defs>
      <g transform="translate(311.701828 542.877813)scale(0.14 -0.14)">
       <use xlink:href="#DejaVuSans-54"/>
       <use x="63.623047" xlink:href="#DejaVuSans-46"/>
       <use x="95.410156" xlink:href="#DejaVuSans-48"/>
      </g>
     </g>
    </g>
    <g id="xtick_4">
     <g id="line2d_7">
      <g>
       <use style="stroke:#000000;stroke-width:0.8;" x="424.41631" xlink:href="#m22ee72960a" y="525.24"/>
      </g>
     </g>
     <g id="text_7">
      <!-- 6.5 -->
      <g transform="translate(413.284122 542.877813)scale(0.14 -0.14)">
       <use xlink:href="#DejaVuSans-54"/>
       <use x="63.623047" xlink:href="#DejaVuSans-46"/>
       <use x="95.410156" xlink:href="#DejaVuSans-53"/>
      </g>
     </g>
    </g>
    <g id="xtick_5">
     <g id="line2d_8">
      <g>
       <use style="stroke:#000000;stroke-width:0.8;" x="525.998604" xlink:href="#m22ee72960a" y="525.24"/>
      </g>
     </g>
     <g id="text_8">
      <!-- 7.0 -->
      <defs>
       <path d="M 8.203125 72.90625 
L 55.078125 72.90625 
L 55.078125 68.703125 
L 28.609375 0 
L 18.3125 0 
L 43.21875 64.59375 
L 8.203125 64.59375 
z
" id="DejaVuSans-55"/>
      </defs>
      <g transform="translate(514.866416 542.877813)scale(0.14 -0.14)">
       <use xlink:href="#DejaVuSans-55"/>
       <use x="63.623047" xlink:href="#DejaVuSans-46"/>
       <use x="95.410156" xlink:href="#DejaVuSans-48"/>
      </g>
     </g>
    </g>
   </g>
   <g id="line2d_9">
    <path clip-path="url(#pf970308a34)" d="M 291.48572 525.24 
L 291.48572 402.93 
" style="fill:none;stroke:#ff6384;stroke-dasharray:5.55,2.4;stroke-dashoffset:0;stroke-opacity:0.8;stroke-width:1.5;"/>
   </g>
   <g id="line2d_10">
    <path clip-path="url(#pf970308a34)" d="M 202.601212 525.24 
L 202.601212 402.93 
" style="fill:none;stroke:#36a2eb;stroke-dasharray:5.55,2.4;stroke-dashoffset:0;stroke-opacity:0.8;stroke-width:1.5;"/>
   </g>
   <g id="line2d_11">
    <path clip-path="url(#pf970308a34)" d="M 247.41932 525.24 
L 247.41932 402.93 
" style="fill:none;stroke:#4bc0c0;stroke-dasharray:5.55,2.4;stroke-dashoffset:0;stroke-opacity:0.8;stroke-width:1.5;"/>
   </g>
   <g id="patch_12">
    <path d="M 36 525.24 
L 538.2 525.24 
" style="fill:none;stroke:#000000;stroke-linecap:square;stroke-linejoin:miter;stroke-width:0.8;"/>
   </g>
  </g>
 </g>
 <defs>
  <clipPath id="p1a072e426b">
   <rect height="366.93" width="502.2" x="36" y="36"/>
  </clipPath>
  <clipPath id="pf970308a34">
   <rect height="122.31" width="502.2" x="36" y="402.93"/>
  </clipPath>
 </defs>
</svg>
