<?xml version="1.0" encoding="utf-8" standalone="no"?>
<!DOCTYPE svg PUBLIC "-//W3C//DTD SVG 1.1//EN"
  "http://www.w3.org/Graphics/SVG/1.1/DTD/svg11.dtd">
<!-- Created with matplotlib (https://matplotlib.org/) -->
<svg height="581.789375pt" version="1.1" viewBox="0 0 574.2 581.789375" width="574.2pt" xmlns="http://www.w3.org/2000/svg" xmlns:xlink="http://www.w3.org/1999/xlink">
 <defs>
  <style type="text/css">
*{stroke-linecap:butt;stroke-linejoin:round;}
  </style>
 </defs>
 <g id="figure_1">
  <g id="patch_1">
   <path d="M 0 581.789375 
L 574.2 581.789375 
L 574.2 0 
L 0 0 
z
" style="fill:none;"/>
  </g>
  <g id="axes_1">
   <g id="patch_2">
    <path d="M 36 402.93 
L 538.2 402.93 
L 538.2 36 
L 36 36 
z
" style="fill:none;"/>
   </g>
   <g id="PolyCollection_1">
    <defs>
     <path d="M 83.789672 -195.538011 
L 83.789672 -195.649758 
L 87.982819 -195.691896 
L 92.175966 -195.748544 
L 96.369113 -195.824171 
L 100.562259 -195.924432 
L 104.755406 -196.056426 
L 108.948553 -196.228979 
L 113.1417 -196.452971 
L 117.334847 -196.74169 
L 121.527994 -197.111209 
L 125.72114 -197.580784 
L 129.914287 -198.173256 
L 134.107434 -198.915437 
L 138.300581 -199.838471 
L 142.493728 -200.978125 
L 146.686874 -202.375004 
L 150.880021 -204.07464 
L 155.073168 -206.127421 
L 159.266315 -208.588332 
L 163.459462 -211.516462 
L 167.652609 -214.974252 
L 171.845755 -219.026438 
L 176.038902 -223.738697 
L 180.232049 -229.175959 
L 184.425196 -235.400408 
L 188.618343 -242.469182 
L 192.81149 -250.431832 
L 197.004636 -259.327571 
L 201.197783 -269.182429 
L 205.39093 -280.006387 
L 209.584077 -291.790625 
L 213.777224 -304.505013 
L 217.970371 -318.09598 
L 222.163517 -332.484905 
L 226.356664 -347.567171 
L 230.549811 -363.211997 
L 234.742958 -379.26314 
L 238.936105 -395.540553 
L 243.129251 -411.843006 
L 247.322398 -427.951678 
L 251.515545 -443.634637 
L 255.708692 -458.652118 
L 259.901839 -472.762435 
L 264.094986 -485.728334 
L 268.288132 -497.323562 
L 272.481279 -507.339396 
L 276.674426 -515.590875 
L 280.867573 -521.922474 
L 285.06072 -526.212975 
L 289.253867 -528.37933 
L 293.447013 -528.37933 
L 297.64016 -526.212975 
L 301.833307 -521.922474 
L 306.026454 -515.590875 
L 310.219601 -507.339396 
L 314.412748 -497.323562 
L 318.605894 -485.728334 
L 322.799041 -472.762435 
L 326.992188 -458.652118 
L 331.185335 -443.634637 
L 335.378482 -427.951678 
L 339.571628 -411.843006 
L 343.764775 -395.540553 
L 347.957922 -379.26314 
L 352.151069 -363.211997 
L 356.344216 -347.567171 
L 360.537363 -332.484905 
L 364.730509 -318.09598 
L 368.923656 -304.505013 
L 373.116803 -291.790625 
L 377.30995 -280.006387 
L 381.503097 -269.182429 
L 385.696244 -259.327571 
L 389.88939 -250.431832 
L 394.082537 -242.469182 
L 398.275684 -235.400408 
L 402.468831 -229.175959 
L 406.661978 -223.738697 
L 410.855125 -219.026438 
L 415.048271 -214.974252 
L 419.241418 -211.516462 
L 423.434565 -208.588332 
L 427.627712 -206.127421 
L 431.820859 -204.07464 
L 436.014005 -202.375004 
L 440.207152 -200.978125 
L 444.400299 -199.838471 
L 448.593446 -198.915437 
L 452.786593 -198.173256 
L 456.97974 -197.580784 
L 461.172886 -197.111209 
L 465.366033 -196.74169 
L 469.55918 -196.452971 
L 473.752327 -196.228979 
L 477.945474 -196.056426 
L 482.138621 -195.924432 
L 486.331767 -195.824171 
L 490.524914 -195.748544 
L 494.718061 -195.691896 
L 498.911208 -195.649758 
L 498.911208 -195.538011 
L 498.911208 -195.538011 
L 494.718061 -195.538011 
L 490.524914 -195.538011 
L 486.331767 -195.538011 
L 482.138621 -195.538011 
L 477.945474 -195.538011 
L 473.752327 -195.538011 
L 469.55918 -195.538011 
L 465.366033 -195.538011 
L 461.172886 -195.538011 
L 456.97974 -195.538011 
L 452.786593 -195.538011 
L 448.593446 -195.538011 
L 444.400299 -195.538011 
L 440.207152 -195.538011 
L 436.014005 -195.538011 
L 431.820859 -195.538011 
L 427.627712 -195.538011 
L 423.434565 -195.538011 
L 419.241418 -195.538011 
L 415.048271 -195.538011 
L 410.855125 -195.538011 
L 406.661978 -195.538011 
L 402.468831 -195.538011 
L 398.275684 -195.538011 
L 394.082537 -195.538011 
L 389.88939 -195.538011 
L 385.696244 -195.538011 
L 381.503097 -195.538011 
L 377.30995 -195.538011 
L 373.116803 -195.538011 
L 368.923656 -195.538011 
L 364.730509 -195.538011 
L 360.537363 -195.538011 
L 356.344216 -195.538011 
L 352.151069 -195.538011 
L 347.957922 -195.538011 
L 343.764775 -195.538011 
L 339.571628 -195.538011 
L 335.378482 -195.538011 
L 331.185335 -195.538011 
L 326.992188 -195.538011 
L 322.799041 -195.538011 
L 318.605894 -195.538011 
L 314.412748 -195.538011 
L 310.219601 -195.538011 
L 306.026454 -195.538011 
L 301.833307 -195.538011 
L 297.64016 -195.538011 
L 293.447013 -195.538011 
L 289.253867 -195.538011 
L 285.06072 -195.538011 
L 280.867573 -195.538011 
L 276.674426 -195.538011 
L 272.481279 -195.538011 
L 268.288132 -195.538011 
L 264.094986 -195.538011 
L 259.901839 -195.538011 
L 255.708692 -195.538011 
L 251.515545 -195.538011 
L 247.322398 -195.538011 
L 243.129251 -195.538011 
L 238.936105 -195.538011 
L 234.742958 -195.538011 
L 230.549811 -195.538011 
L 226.356664 -195.538011 
L 222.163517 -195.538011 
L 217.970371 -195.538011 
L 213.777224 -195.538011 
L 209.584077 -195.538011 
L 205.39093 -195.538011 
L 201.197783 -195.538011 
L 197.004636 -195.538011 
L 192.81149 -195.538011 
L 188.618343 -195.538011 
L 184.425196 -195.538011 
L 180.232049 -195.538011 
L 176.038902 -195.538011 
L 171.845755 -195.538011 
L 167.652609 -195.538011 
L 163.459462 -195.538011 
L 159.266315 -195.538011 
L 155.073168 -195.538011 
L 150.880021 -195.538011 
L 146.686874 -195.538011 
L 142.493728 -195.538011 
L 138.300581 -195.538011 
L 134.107434 -195.538011 
L 129.914287 -195.538011 
L 125.72114 -195.538011 
L 121.527994 -195.538011 
L 117.334847 -195.538011 
L 113.1417 -195.538011 
L 108.948553 -195.538011 
L 104.755406 -195.538011 
L 100.562259 -195.538011 
L 96.369113 -195.538011 
L 92.175966 -195.538011 
L 87.982819 -195.538011 
L 83.789672 -195.538011 
z
" id="m2f33727c9b" style="stroke:#ff6384;stroke-opacity:0.5;"/>
    </defs>
    <g clip-path="url(#p390de6b897)">
     <use style="fill:#ff6384;fill-opacity:0.5;stroke:#ff6384;stroke-opacity:0.5;" x="0" xlink:href="#m2f33727c9b" y="581.789375"/>
    </g>
   </g>
   <g id="PolyCollection_2">
    <defs>
     <path d="M 58.827273 -195.538011 
L 58.827273 -195.650004 
L 63.011225 -195.692234 
L 67.195178 -195.749007 
L 71.379131 -195.8248 
L 75.563084 -195.925281 
L 79.747036 -196.057565 
L 83.930989 -196.230497 
L 88.114942 -196.454982 
L 92.298894 -196.744335 
L 96.482847 -197.114666 
L 100.6668 -197.585273 
L 104.850753 -198.179047 
L 109.034705 -198.922859 
L 113.218658 -199.847921 
L 117.402611 -200.990079 
L 121.586564 -202.390029 
L 125.770516 -204.093399 
L 129.954469 -206.150691 
L 134.138422 -208.617009 
L 138.322374 -211.551575 
L 142.506327 -215.016962 
L 146.69028 -219.078053 
L 150.874233 -223.800667 
L 155.058185 -229.249878 
L 159.242138 -235.488004 
L 163.426091 -242.572312 
L 167.610043 -250.552459 
L 171.793996 -259.467747 
L 175.977949 -269.344261 
L 180.161902 -280.192004 
L 184.345854 -292.002137 
L 188.529807 -304.744465 
L 192.71376 -318.365297 
L 196.897712 -332.785841 
L 201.081665 -347.901251 
L 205.265618 -363.580456 
L 209.449571 -379.666871 
L 213.633523 -395.980052 
L 217.817476 -412.31833 
L 222.001429 -428.4624 
L 226.185381 -444.179822 
L 230.369334 -459.230303 
L 234.553287 -473.371627 
L 238.73724 -486.366018 
L 242.921192 -497.986726 
L 247.105145 -508.02457 
L 251.289098 -516.294181 
L 255.473051 -522.639693 
L 259.657003 -526.939623 
L 263.840956 -529.110739 
L 268.024909 -529.110739 
L 272.208861 -526.939623 
L 276.392814 -522.639693 
L 280.576767 -516.294181 
L 284.76072 -508.02457 
L 288.944672 -497.986726 
L 293.128625 -486.366018 
L 297.312578 -473.371627 
L 301.49653 -459.230303 
L 305.680483 -444.179822 
L 309.864436 -428.4624 
L 314.048389 -412.31833 
L 318.232341 -395.980052 
L 322.416294 -379.666871 
L 326.600247 -363.580456 
L 330.784199 -347.901251 
L 334.968152 -332.785841 
L 339.152105 -318.365297 
L 343.336058 -304.744465 
L 347.52001 -292.002137 
L 351.703963 -280.192004 
L 355.887916 -269.344261 
L 360.071869 -259.467747 
L 364.255821 -250.552459 
L 368.439774 -242.572312 
L 372.623727 -235.488004 
L 376.807679 -229.249878 
L 380.991632 -223.800667 
L 385.175585 -219.078053 
L 389.359538 -215.016962 
L 393.54349 -211.551575 
L 397.727443 -208.617009 
L 401.911396 -206.150691 
L 406.095348 -204.093399 
L 410.279301 -202.390029 
L 414.463254 -200.990079 
L 418.647207 -199.847921 
L 422.831159 -198.922859 
L 427.015112 -198.179047 
L 431.199065 -197.585273 
L 435.383017 -197.114666 
L 439.56697 -196.744335 
L 443.750923 -196.454982 
L 447.934876 -196.230497 
L 452.118828 -196.057565 
L 456.302781 -195.925281 
L 460.486734 -195.8248 
L 464.670686 -195.749007 
L 468.854639 -195.692234 
L 473.038592 -195.650004 
L 473.038592 -195.538011 
L 473.038592 -195.538011 
L 468.854639 -195.538011 
L 464.670686 -195.538011 
L 460.486734 -195.538011 
L 456.302781 -195.538011 
L 452.118828 -195.538011 
L 447.934876 -195.538011 
L 443.750923 -195.538011 
L 439.56697 -195.538011 
L 435.383017 -195.538011 
L 431.199065 -195.538011 
L 427.015112 -195.538011 
L 422.831159 -195.538011 
L 418.647207 -195.538011 
L 414.463254 -195.538011 
L 410.279301 -195.538011 
L 406.095348 -195.538011 
L 401.911396 -195.538011 
L 397.727443 -195.538011 
L 393.54349 -195.538011 
L 389.359538 -195.538011 
L 385.175585 -195.538011 
L 380.991632 -195.538011 
L 376.807679 -195.538011 
L 372.623727 -195.538011 
L 368.439774 -195.538011 
L 364.255821 -195.538011 
L 360.071869 -195.538011 
L 355.887916 -195.538011 
L 351.703963 -195.538011 
L 347.52001 -195.538011 
L 343.336058 -195.538011 
L 339.152105 -195.538011 
L 334.968152 -195.538011 
L 330.784199 -195.538011 
L 326.600247 -195.538011 
L 322.416294 -195.538011 
L 318.232341 -195.538011 
L 314.048389 -195.538011 
L 309.864436 -195.538011 
L 305.680483 -195.538011 
L 301.49653 -195.538011 
L 297.312578 -195.538011 
L 293.128625 -195.538011 
L 288.944672 -195.538011 
L 284.76072 -195.538011 
L 280.576767 -195.538011 
L 276.392814 -195.538011 
L 272.208861 -195.538011 
L 268.024909 -195.538011 
L 263.840956 -195.538011 
L 259.657003 -195.538011 
L 255.473051 -195.538011 
L 251.289098 -195.538011 
L 247.105145 -195.538011 
L 242.921192 -195.538011 
L 238.73724 -195.538011 
L 234.553287 -195.538011 
L 230.369334 -195.538011 
L 226.185381 -195.538011 
L 222.001429 -195.538011 
L 217.817476 -195.538011 
L 213.633523 -195.538011 
L 209.449571 -195.538011 
L 205.265618 -195.538011 
L 201.081665 -195.538011 
L 196.897712 -195.538011 
L 192.71376 -195.538011 
L 188.529807 -195.538011 
L 184.345854 -195.538011 
L 180.161902 -195.538011 
L 175.977949 -195.538011 
L 171.793996 -195.538011 
L 167.610043 -195.538011 
L 163.426091 -195.538011 
L 159.242138 -195.538011 
L 155.058185 -195.538011 
L 150.874233 -195.538011 
L 146.69028 -195.538011 
L 142.506327 -195.538011 
L 138.322374 -195.538011 
L 134.138422 -195.538011 
L 129.954469 -195.538011 
L 125.770516 -195.538011 
L 121.586564 -195.538011 
L 117.402611 -195.538011 
L 113.218658 -195.538011 
L 109.034705 -195.538011 
L 104.850753 -195.538011 
L 100.6668 -195.538011 
L 96.482847 -195.538011 
L 92.298894 -195.538011 
L 88.114942 -195.538011 
L 83.930989 -195.538011 
L 79.747036 -195.538011 
L 75.563084 -195.538011 
L 71.379131 -195.538011 
L 67.195178 -195.538011 
L 63.011225 -195.538011 
L 58.827273 -195.538011 
z
" id="m9b7bdf2051" style="stroke:#36a2eb;stroke-opacity:0.5;"/>
    </defs>
    <g clip-path="url(#p390de6b897)">
     <use style="fill:#36a2eb;fill-opacity:0.5;stroke:#36a2eb;stroke-opacity:0.5;" x="0" xlink:href="#m9b7bdf2051" y="581.789375"/>
    </g>
   </g>
   <g id="PolyCollection_3">
    <defs>
     <path d="M 99.100037 -195.538011 
L 99.100037 -195.649449 
L 103.304812 -195.691471 
L 107.509587 -195.747962 
L 111.714361 -195.82338 
L 115.919136 -195.923364 
L 120.123911 -196.054992 
L 124.328685 -196.227068 
L 128.53346 -196.450441 
L 132.738234 -196.738361 
L 136.943009 -197.106858 
L 141.147784 -197.575135 
L 145.352558 -198.165968 
L 149.557333 -198.906097 
L 153.762108 -199.826578 
L 157.966882 -200.963081 
L 162.171657 -202.356098 
L 166.376432 -204.051033 
L 170.581206 -206.098137 
L 174.785981 -208.552243 
L 178.990756 -211.472276 
L 183.19553 -214.920503 
L 187.400305 -218.961483 
L 191.60508 -223.660711 
L 195.809854 -229.082938 
L 200.014629 -235.290173 
L 204.219403 -242.339399 
L 208.424178 -250.280029 
L 212.628953 -259.151168 
L 216.833727 -268.978774 
L 221.038502 -279.772799 
L 225.243277 -291.52445 
L 229.448051 -304.203678 
L 233.652826 -317.75706 
L 237.857601 -332.106194 
L 242.062375 -347.146752 
L 246.26715 -362.748314 
L 250.471925 -378.75507 
L 254.676699 -394.987469 
L 258.881474 -411.24484 
L 263.086248 -427.308965 
L 267.291023 -442.948554 
L 271.495798 -457.924506 
L 275.700572 -471.995802 
L 279.905347 -484.925846 
L 284.110122 -496.489009 
L 288.314896 -506.477145 
L 292.519671 -514.705806 
L 296.724446 -521.019895 
L 300.92922 -525.298532 
L 305.133995 -527.458896 
L 309.33877 -527.458896 
L 313.543544 -525.298532 
L 317.748319 -521.019895 
L 321.953094 -514.705806 
L 326.157868 -506.477145 
L 330.362643 -496.489009 
L 334.567417 -484.925846 
L 338.772192 -471.995802 
L 342.976967 -457.924506 
L 347.181741 -442.948554 
L 351.386516 -427.308965 
L 355.591291 -411.24484 
L 359.796065 -394.987469 
L 364.00084 -378.75507 
L 368.205615 -362.748314 
L 372.410389 -347.146752 
L 376.615164 -332.106194 
L 380.819939 -317.75706 
L 385.024713 -304.203678 
L 389.229488 -291.52445 
L 393.434263 -279.772799 
L 397.639037 -268.978774 
L 401.843812 -259.151168 
L 406.048586 -250.280029 
L 410.253361 -242.339399 
L 414.458136 -235.290173 
L 418.66291 -229.082938 
L 422.867685 -223.660711 
L 427.07246 -218.961483 
L 431.277234 -214.920503 
L 435.482009 -211.472276 
L 439.686784 -208.552243 
L 443.891558 -206.098137 
L 448.096333 -204.051033 
L 452.301108 -202.356098 
L 456.505882 -200.963081 
L 460.710657 -199.826578 
L 464.915432 -198.906097 
L 469.120206 -198.165968 
L 473.324981 -197.575135 
L 477.529755 -197.106858 
L 481.73453 -196.738361 
L 485.939305 -196.450441 
L 490.144079 -196.227068 
L 494.348854 -196.054992 
L 498.553629 -195.923364 
L 502.758403 -195.82338 
L 506.963178 -195.747962 
L 511.167953 -195.691471 
L 515.372727 -195.649449 
L 515.372727 -195.538011 
L 515.372727 -195.538011 
L 511.167953 -195.538011 
L 506.963178 -195.538011 
L 502.758403 -195.538011 
L 498.553629 -195.538011 
L 494.348854 -195.538011 
L 490.144079 -195.538011 
L 485.939305 -195.538011 
L 481.73453 -195.538011 
L 477.529755 -195.538011 
L 473.324981 -195.538011 
L 469.120206 -195.538011 
L 464.915432 -195.538011 
L 460.710657 -195.538011 
L 456.505882 -195.538011 
L 452.301108 -195.538011 
L 448.096333 -195.538011 
L 443.891558 -195.538011 
L 439.686784 -195.538011 
L 435.482009 -195.538011 
L 431.277234 -195.538011 
L 427.07246 -195.538011 
L 422.867685 -195.538011 
L 418.66291 -195.538011 
L 414.458136 -195.538011 
L 410.253361 -195.538011 
L 406.048586 -195.538011 
L 401.843812 -195.538011 
L 397.639037 -195.538011 
L 393.434263 -195.538011 
L 389.229488 -195.538011 
L 385.024713 -195.538011 
L 380.819939 -195.538011 
L 376.615164 -195.538011 
L 372.410389 -195.538011 
L 368.205615 -195.538011 
L 364.00084 -195.538011 
L 359.796065 -195.538011 
L 355.591291 -195.538011 
L 351.386516 -195.538011 
L 347.181741 -195.538011 
L 342.976967 -195.538011 
L 338.772192 -195.538011 
L 334.567417 -195.538011 
L 330.362643 -195.538011 
L 326.157868 -195.538011 
L 321.953094 -195.538011 
L 317.748319 -195.538011 
L 313.543544 -195.538011 
L 309.33877 -195.538011 
L 305.133995 -195.538011 
L 300.92922 -195.538011 
L 296.724446 -195.538011 
L 292.519671 -195.538011 
L 288.314896 -195.538011 
L 284.110122 -195.538011 
L 279.905347 -195.538011 
L 275.700572 -195.538011 
L 271.495798 -195.538011 
L 267.291023 -195.538011 
L 263.086248 -195.538011 
L 258.881474 -195.538011 
L 254.676699 -195.538011 
L 250.471925 -195.538011 
L 246.26715 -195.538011 
L 242.062375 -195.538011 
L 237.857601 -195.538011 
L 233.652826 -195.538011 
L 229.448051 -195.538011 
L 225.243277 -195.538011 
L 221.038502 -195.538011 
L 216.833727 -195.538011 
L 212.628953 -195.538011 
L 208.424178 -195.538011 
L 204.219403 -195.538011 
L 200.014629 -195.538011 
L 195.809854 -195.538011 
L 191.60508 -195.538011 
L 187.400305 -195.538011 
L 183.19553 -195.538011 
L 178.990756 -195.538011 
L 174.785981 -195.538011 
L 170.581206 -195.538011 
L 166.376432 -195.538011 
L 162.171657 -195.538011 
L 157.966882 -195.538011 
L 153.762108 -195.538011 
L 149.557333 -195.538011 
L 145.352558 -195.538011 
L 141.147784 -195.538011 
L 136.943009 -195.538011 
L 132.738234 -195.538011 
L 128.53346 -195.538011 
L 124.328685 -195.538011 
L 120.123911 -195.538011 
L 115.919136 -195.538011 
L 111.714361 -195.538011 
L 107.509587 -195.538011 
L 103.304812 -195.538011 
L 99.100037 -195.538011 
z
" id="m084e0e3169" style="stroke:#4bc0c0;stroke-opacity:0.5;"/>
    </defs>
    <g clip-path="url(#p390de6b897)">
     <use style="fill:#4bc0c0;fill-opacity:0.5;stroke:#4bc0c0;stroke-opacity:0.5;" x="0" xlink:href="#m084e0e3169" y="581.789375"/>
    </g>
   </g>
   <g id="line2d_1">
    <path clip-path="url(#p390de6b897)" d="M 83.789672 386.139617 
L 87.982819 386.097479 
L 92.175966 386.040831 
L 96.369113 385.965204 
L 100.562259 385.864943 
L 104.755406 385.732949 
L 108.948553 385.560396 
L 113.1417 385.336404 
L 117.334847 385.047685 
L 121.527994 384.678166 
L 125.72114 384.208591 
L 129.914287 383.616119 
L 134.107434 382.873938 
L 138.300581 381.950904 
L 142.493728 380.81125 
L 146.686874 379.414371 
L 150.880021 377.714735 
L 155.073168 375.661954 
L 159.266315 373.201043 
L 163.459462 370.272913 
L 167.652609 366.815123 
L 171.845755 362.762937 
L 176.038902 358.050678 
L 180.232049 352.613416 
L 184.425196 346.388967 
L 188.618343 339.320193 
L 192.81149 331.357543 
L 197.004636 322.461804 
L 201.197783 312.606946 
L 205.39093 301.782988 
L 209.584077 289.99875 
L 213.777224 277.284362 
L 217.970371 263.693395 
L 222.163517 249.30447 
L 226.356664 234.222204 
L 230.549811 218.577378 
L 234.742958 202.526235 
L 238.936105 186.248822 
L 243.129251 169.946369 
L 247.322398 153.837697 
L 251.515545 138.154738 
L 255.708692 123.137257 
L 259.901839 109.02694 
L 264.094986 96.061041 
L 268.288132 84.465813 
L 272.481279 74.449979 
L 276.674426 66.1985 
L 280.867573 59.866901 
L 285.06072 55.5764 
L 289.253867 53.410045 
L 293.447013 53.410045 
L 297.64016 55.5764 
L 301.833307 59.866901 
L 306.026454 66.1985 
L 310.219601 74.449979 
L 314.412748 84.465813 
L 318.605894 96.061041 
L 322.799041 109.02694 
L 326.992188 123.137257 
L 331.185335 138.154738 
L 335.378482 153.837697 
L 339.571628 169.946369 
L 343.764775 186.248822 
L 347.957922 202.526235 
L 352.151069 218.577378 
L 356.344216 234.222204 
L 360.537363 249.30447 
L 364.730509 263.693395 
L 368.923656 277.284362 
L 373.116803 289.99875 
L 377.30995 301.782988 
L 381.503097 312.606946 
L 385.696244 322.461804 
L 389.88939 331.357543 
L 394.082537 339.320193 
L 398.275684 346.388967 
L 402.468831 352.613416 
L 406.661978 358.050678 
L 410.855125 362.762937 
L 415.048271 366.815123 
L 419.241418 370.272913 
L 423.434565 373.201043 
L 427.627712 375.661954 
L 431.820859 377.714735 
L 436.014005 379.414371 
L 440.207152 380.81125 
L 444.400299 381.950904 
L 448.593446 382.873938 
L 452.786593 383.616119 
L 456.97974 384.208591 
L 461.172886 384.678166 
L 465.366033 385.047685 
L 469.55918 385.336404 
L 473.752327 385.560396 
L 477.945474 385.732949 
L 482.138621 385.864943 
L 486.331767 385.965204 
L 490.524914 386.040831 
L 494.718061 386.097479 
L 498.911208 386.139617 
" style="fill:none;stroke:#ff6384;stroke-linecap:square;"/>
   </g>
   <g id="line2d_2">
    <path clip-path="url(#p390de6b897)" d="M 58.827273 386.139371 
L 63.011225 386.097141 
L 67.195178 386.040368 
L 71.379131 385.964575 
L 75.563084 385.864094 
L 79.747036 385.73181 
L 83.930989 385.558878 
L 88.114942 385.334393 
L 92.298894 385.04504 
L 96.482847 384.674709 
L 100.6668 384.204102 
L 104.850753 383.610328 
L 109.034705 382.866516 
L 113.218658 381.941454 
L 117.402611 380.799296 
L 121.586564 379.399346 
L 125.770516 377.695976 
L 129.954469 375.638684 
L 134.138422 373.172366 
L 138.322374 370.2378 
L 142.506327 366.772413 
L 146.69028 362.711322 
L 150.874233 357.988708 
L 155.058185 352.539497 
L 159.242138 346.301371 
L 163.426091 339.217063 
L 167.610043 331.236916 
L 171.793996 322.321628 
L 175.977949 312.445114 
L 180.161902 301.597371 
L 184.345854 289.787238 
L 188.529807 277.04491 
L 192.71376 263.424078 
L 196.897712 249.003534 
L 201.081665 233.888124 
L 205.265618 218.208919 
L 209.449571 202.122504 
L 213.633523 185.809323 
L 217.817476 169.471045 
L 222.001429 153.326975 
L 226.185381 137.609553 
L 230.369334 122.559072 
L 234.553287 108.417748 
L 238.73724 95.423357 
L 242.921192 83.802649 
L 247.105145 73.764805 
L 251.289098 65.495194 
L 255.473051 59.149682 
L 259.657003 54.849752 
L 263.840956 52.678636 
L 268.024909 52.678636 
L 272.208861 54.849752 
L 276.392814 59.149682 
L 280.576767 65.495194 
L 284.76072 73.764805 
L 288.944672 83.802649 
L 293.128625 95.423357 
L 297.312578 108.417748 
L 301.49653 122.559072 
L 305.680483 137.609553 
L 309.864436 153.326975 
L 314.048389 169.471045 
L 318.232341 185.809323 
L 322.416294 202.122504 
L 326.600247 218.208919 
L 330.784199 233.888124 
L 334.968152 249.003534 
L 339.152105 263.424078 
L 343.336058 277.04491 
L 347.52001 289.787238 
L 351.703963 301.597371 
L 355.887916 312.445114 
L 360.071869 322.321628 
L 364.255821 331.236916 
L 368.439774 339.217063 
L 372.623727 346.301371 
L 376.807679 352.539497 
L 380.991632 357.988708 
L 385.175585 362.711322 
L 389.359538 366.772413 
L 393.54349 370.2378 
L 397.727443 373.172366 
L 401.911396 375.638684 
L 406.095348 377.695976 
L 410.279301 379.399346 
L 414.463254 380.799296 
L 418.647207 381.941454 
L 422.831159 382.866516 
L 427.015112 383.610328 
L 431.199065 384.204102 
L 435.383017 384.674709 
L 439.56697 385.04504 
L 443.750923 385.334393 
L 447.934876 385.558878 
L 452.118828 385.73181 
L 456.302781 385.864094 
L 460.486734 385.964575 
L 464.670686 386.040368 
L 468.854639 386.097141 
L 473.038592 386.139371 
" style="fill:none;stroke:#36a2eb;stroke-linecap:square;"/>
   </g>
   <g id="line2d_3">
    <path clip-path="url(#p390de6b897)" d="M 99.100037 386.139926 
L 103.304812 386.097904 
L 107.509587 386.041413 
L 111.714361 385.965995 
L 115.919136 385.866011 
L 120.123911 385.734383 
L 124.328685 385.562307 
L 128.53346 385.338934 
L 132.738234 385.051014 
L 136.943009 384.682517 
L 141.147784 384.21424 
L 145.352558 383.623407 
L 149.557333 382.883278 
L 153.762108 381.962797 
L 157.966882 380.826294 
L 162.171657 379.433277 
L 166.376432 377.738342 
L 170.581206 375.691238 
L 174.785981 373.237132 
L 178.990756 370.317099 
L 183.19553 366.868872 
L 187.400305 362.827892 
L 191.60508 358.128664 
L 195.809854 352.706437 
L 200.014629 346.499202 
L 204.219403 339.449976 
L 208.424178 331.509346 
L 212.628953 322.638207 
L 216.833727 312.810601 
L 221.038502 302.016576 
L 225.243277 290.264925 
L 229.448051 277.585697 
L 233.652826 264.032315 
L 237.857601 249.683181 
L 242.062375 234.642623 
L 246.26715 219.041061 
L 250.471925 203.034305 
L 254.676699 186.801906 
L 258.881474 170.544535 
L 263.086248 154.48041 
L 267.291023 138.840821 
L 271.495798 123.864869 
L 275.700572 109.793573 
L 279.905347 96.863529 
L 284.110122 85.300366 
L 288.314896 75.31223 
L 292.519671 67.083569 
L 296.724446 60.76948 
L 300.92922 56.490843 
L 305.133995 54.330479 
L 309.33877 54.330479 
L 313.543544 56.490843 
L 317.748319 60.76948 
L 321.953094 67.083569 
L 326.157868 75.31223 
L 330.362643 85.300366 
L 334.567417 96.863529 
L 338.772192 109.793573 
L 342.976967 123.864869 
L 347.181741 138.840821 
L 351.386516 154.48041 
L 355.591291 170.544535 
L 359.796065 186.801906 
L 364.00084 203.034305 
L 368.205615 219.041061 
L 372.410389 234.642623 
L 376.615164 249.683181 
L 380.819939 264.032315 
L 385.024713 277.585697 
L 389.229488 290.264925 
L 393.434263 302.016576 
L 397.639037 312.810601 
L 401.843812 322.638207 
L 406.048586 331.509346 
L 410.253361 339.449976 
L 414.458136 346.499202 
L 418.66291 352.706437 
L 422.867685 358.128664 
L 427.07246 362.827892 
L 431.277234 366.868872 
L 435.482009 370.317099 
L 439.686784 373.237132 
L 443.891558 375.691238 
L 448.096333 377.738342 
L 452.301108 379.433277 
L 456.505882 380.826294 
L 460.710657 381.962797 
L 464.915432 382.883278 
L 469.120206 383.623407 
L 473.324981 384.21424 
L 477.529755 384.682517 
L 481.73453 385.051014 
L 485.939305 385.338934 
L 490.144079 385.562307 
L 494.348854 385.734383 
L 498.553629 385.866011 
L 502.758403 385.965995 
L 506.963178 386.041413 
L 511.167953 386.097904 
L 515.372727 386.139926 
" style="fill:none;stroke:#4bc0c0;stroke-linecap:square;"/>
   </g>
   <g id="patch_3">
    <path d="M 36 402.93 
L 538.2 402.93 
" style="fill:none;stroke:#000000;stroke-linecap:square;stroke-linejoin:miter;stroke-width:0.8;"/>
   </g>
   <g id="legend_1">
    <g id="patch_4">
     <path d="M 415.601563 109.626875 
L 528.4 109.626875 
Q 531.2 109.626875 531.2 106.826875 
L 531.2 45.8 
Q 531.2 43 528.4 43 
L 415.601563 43 
Q 412.801563 43 412.801563 45.8 
L 412.801563 106.826875 
Q 412.801563 109.626875 415.601563 109.626875 
z
" style="fill:#ffffff;opacity:0.8;stroke:#cccccc;stroke-linejoin:miter;"/>
    </g>
    <g id="patch_5">
     <path d="M 418.401563 59.237813 
L 446.401563 59.237813 
L 446.401563 49.437813 
L 418.401563 49.437813 
z
" style="fill:#ff6384;opacity:0.5;stroke:#ff6384;stroke-linejoin:miter;"/>
    </g>
    <g id="text_1">
     <!-- base -->
     <defs>
      <path d="M 48.6875 27.296875 
Q 48.6875 37.203125 44.609375 42.84375 
Q 40.53125 48.484375 33.40625 48.484375 
Q 26.265625 48.484375 22.1875 42.84375 
Q 18.109375 37.203125 18.109375 27.296875 
Q 18.109375 17.390625 22.1875 11.75 
Q 26.265625 6.109375 33.40625 6.109375 
Q 40.53125 6.109375 44.609375 11.75 
Q 48.6875 17.390625 48.6875 27.296875 
z
M 18.109375 46.390625 
Q 20.953125 51.265625 25.265625 53.625 
Q 29.59375 56 35.59375 56 
Q 45.5625 56 51.78125 48.09375 
Q 58.015625 40.1875 58.015625 27.296875 
Q 58.015625 14.40625 51.78125 6.484375 
Q 45.5625 -1.421875 35.59375 -1.421875 
Q 29.59375 -1.421875 25.265625 0.953125 
Q 20.953125 3.328125 18.109375 8.203125 
L 18.109375 0 
L 9.078125 0 
L 9.078125 75.984375 
L 18.109375 75.984375 
z
" id="DejaVuSans-98"/>
      <path d="M 34.28125 27.484375 
Q 23.390625 27.484375 19.1875 25 
Q 14.984375 22.515625 14.984375 16.5 
Q 14.984375 11.71875 18.140625 8.90625 
Q 21.296875 6.109375 26.703125 6.109375 
Q 34.1875 6.109375 38.703125 11.40625 
Q 43.21875 16.703125 43.21875 25.484375 
L 43.21875 27.484375 
z
M 52.203125 31.203125 
L 52.203125 0 
L 43.21875 0 
L 43.21875 8.296875 
Q 40.140625 3.328125 35.546875 0.953125 
Q 30.953125 -1.421875 24.3125 -1.421875 
Q 15.921875 -1.421875 10.953125 3.296875 
Q 6 8.015625 6 15.921875 
Q 6 25.140625 12.171875 29.828125 
Q 18.359375 34.515625 30.609375 34.515625 
L 43.21875 34.515625 
L 43.21875 35.40625 
Q 43.21875 41.609375 39.140625 45 
Q 35.0625 48.390625 27.6875 48.390625 
Q 23 48.390625 18.546875 47.265625 
Q 14.109375 46.140625 10.015625 43.890625 
L 10.015625 52.203125 
Q 14.9375 54.109375 19.578125 55.046875 
Q 24.21875 56 28.609375 56 
Q 40.484375 56 46.34375 49.84375 
Q 52.203125 43.703125 52.203125 31.203125 
z
" id="DejaVuSans-97"/>
      <path d="M 44.28125 53.078125 
L 44.28125 44.578125 
Q 40.484375 46.53125 36.375 47.5 
Q 32.28125 48.484375 27.875 48.484375 
Q 21.1875 48.484375 17.84375 46.4375 
Q 14.5 44.390625 14.5 40.28125 
Q 14.5 37.15625 16.890625 35.375 
Q 19.28125 33.59375 26.515625 31.984375 
L 29.59375 31.296875 
Q 39.15625 29.25 43.1875 25.515625 
Q 47.21875 21.78125 47.21875 15.09375 
Q 47.21875 7.46875 41.1875 3.015625 
Q 35.15625 -1.421875 24.609375 -1.421875 
Q 20.21875 -1.421875 15.453125 -0.5625 
Q 10.6875 0.296875 5.421875 2 
L 5.421875 11.28125 
Q 10.40625 8.6875 15.234375 7.390625 
Q 20.0625 6.109375 24.8125 6.109375 
Q 31.15625 6.109375 34.5625 8.28125 
Q 37.984375 10.453125 37.984375 14.40625 
Q 37.984375 18.0625 35.515625 20.015625 
Q 33.0625 21.96875 24.703125 23.78125 
L 21.578125 24.515625 
Q 13.234375 26.265625 9.515625 29.90625 
Q 5.8125 33.546875 5.8125 39.890625 
Q 5.8125 47.609375 11.28125 51.796875 
Q 16.75 56 26.8125 56 
Q 31.78125 56 36.171875 55.265625 
Q 40.578125 54.546875 44.28125 53.078125 
z
" id="DejaVuSans-115"/>
      <path d="M 56.203125 29.59375 
L 56.203125 25.203125 
L 14.890625 25.203125 
Q 15.484375 15.921875 20.484375 11.0625 
Q 25.484375 6.203125 34.421875 6.203125 
Q 39.59375 6.203125 44.453125 7.46875 
Q 49.3125 8.734375 54.109375 11.28125 
L 54.109375 2.78125 
Q 49.265625 0.734375 44.1875 -0.34375 
Q 39.109375 -1.421875 33.890625 -1.421875 
Q 20.796875 -1.421875 13.15625 6.1875 
Q 5.515625 13.8125 5.515625 26.8125 
Q 5.515625 40.234375 12.765625 48.109375 
Q 20.015625 56 32.328125 56 
Q 43.359375 56 49.78125 48.890625 
Q 56.203125 41.796875 56.203125 29.59375 
z
M 47.21875 32.234375 
Q 47.125 39.59375 43.09375 43.984375 
Q 39.0625 48.390625 32.421875 48.390625 
Q 24.90625 48.390625 20.390625 44.140625 
Q 15.875 39.890625 15.1875 32.171875 
z
" id="DejaVuSans-101"/>
     </defs>
     <g transform="translate(457.601563 59.237813)scale(0.14 -0.14)">
      <use xlink:href="#DejaVuSans-98"/>
      <use x="63.476562" xlink:href="#DejaVuSans-97"/>
      <use x="124.755859" xlink:href="#DejaVuSans-115"/>
      <use x="176.855469" xlink:href="#DejaVuSans-101"/>
     </g>
    </g>
    <g id="patch_6">
     <path d="M 418.401563 79.787188 
L 446.401563 79.787188 
L 446.401563 69.987188 
L 418.401563 69.987188 
z
" style="fill:#36a2eb;opacity:0.5;stroke:#36a2eb;stroke-linejoin:miter;"/>
    </g>
    <g id="text_2">
     <!-- fifth_mid -->
     <defs>
      <path d="M 37.109375 75.984375 
L 37.109375 68.5 
L 28.515625 68.5 
Q 23.6875 68.5 21.796875 66.546875 
Q 19.921875 64.59375 19.921875 59.515625 
L 19.921875 54.6875 
L 34.71875 54.6875 
L 34.71875 47.703125 
L 19.921875 47.703125 
L 19.921875 0 
L 10.890625 0 
L 10.890625 47.703125 
L 2.296875 47.703125 
L 2.296875 54.6875 
L 10.890625 54.6875 
L 10.890625 58.5 
Q 10.890625 67.625 15.140625 71.796875 
Q 19.390625 75.984375 28.609375 75.984375 
z
" id="DejaVuSans-102"/>
      <path d="M 9.421875 54.6875 
L 18.40625 54.6875 
L 18.40625 0 
L 9.421875 0 
z
M 9.421875 75.984375 
L 18.40625 75.984375 
L 18.40625 64.59375 
L 9.421875 64.59375 
z
" id="DejaVuSans-105"/>
      <path d="M 18.3125 70.21875 
L 18.3125 54.6875 
L 36.8125 54.6875 
L 36.8125 47.703125 
L 18.3125 47.703125 
L 18.3125 18.015625 
Q 18.3125 11.328125 20.140625 9.421875 
Q 21.96875 7.515625 27.59375 7.515625 
L 36.8125 7.515625 
L 36.8125 0 
L 27.59375 0 
Q 17.1875 0 13.234375 3.875 
Q 9.28125 7.765625 9.28125 18.015625 
L 9.28125 47.703125 
L 2.6875 47.703125 
L 2.6875 54.6875 
L 9.28125 54.6875 
L 9.28125 70.21875 
z
" id="DejaVuSans-116"/>
      <path d="M 54.890625 33.015625 
L 54.890625 0 
L 45.90625 0 
L 45.90625 32.71875 
Q 45.90625 40.484375 42.875 44.328125 
Q 39.84375 48.1875 33.796875 48.1875 
Q 26.515625 48.1875 22.3125 43.546875 
Q 18.109375 38.921875 18.109375 30.90625 
L 18.109375 0 
L 9.078125 0 
L 9.078125 75.984375 
L 18.109375 75.984375 
L 18.109375 46.1875 
Q 21.34375 51.125 25.703125 53.5625 
Q 30.078125 56 35.796875 56 
Q 45.21875 56 50.046875 50.171875 
Q 54.890625 44.34375 54.890625 33.015625 
z
" id="DejaVuSans-104"/>
      <path d="M 50.984375 -16.609375 
L 50.984375 -23.578125 
L -0.984375 -23.578125 
L -0.984375 -16.609375 
z
" id="DejaVuSans-95"/>
      <path d="M 52 44.1875 
Q 55.375 50.25 60.0625 53.125 
Q 64.75 56 71.09375 56 
Q 79.640625 56 84.28125 50.015625 
Q 88.921875 44.046875 88.921875 33.015625 
L 88.921875 0 
L 79.890625 0 
L 79.890625 32.71875 
Q 79.890625 40.578125 77.09375 44.375 
Q 74.3125 48.1875 68.609375 48.1875 
Q 61.625 48.1875 57.5625 43.546875 
Q 53.515625 38.921875 53.515625 30.90625 
L 53.515625 0 
L 44.484375 0 
L 44.484375 32.71875 
Q 44.484375 40.625 41.703125 44.40625 
Q 38.921875 48.1875 33.109375 48.1875 
Q 26.21875 48.1875 22.15625 43.53125 
Q 18.109375 38.875 18.109375 30.90625 
L 18.109375 0 
L 9.078125 0 
L 9.078125 54.6875 
L 18.109375 54.6875 
L 18.109375 46.1875 
Q 21.1875 51.21875 25.484375 53.609375 
Q 29.78125 56 35.6875 56 
Q 41.65625 56 45.828125 52.96875 
Q 50 49.953125 52 44.1875 
z
" id="DejaVuSans-109"/>
      <path d="M 45.40625 46.390625 
L 45.40625 75.984375 
L 54.390625 75.984375 
L 54.390625 0 
L 45.40625 0 
L 45.40625 8.203125 
Q 42.578125 3.328125 38.25 0.953125 
Q 33.9375 -1.421875 27.875 -1.421875 
Q 17.96875 -1.421875 11.734375 6.484375 
Q 5.515625 14.40625 5.515625 27.296875 
Q 5.515625 40.1875 11.734375 48.09375 
Q 17.96875 56 27.875 56 
Q 33.9375 56 38.25 53.625 
Q 42.578125 51.265625 45.40625 46.390625 
z
M 14.796875 27.296875 
Q 14.796875 17.390625 18.875 11.75 
Q 22.953125 6.109375 30.078125 6.109375 
Q 37.203125 6.109375 41.296875 11.75 
Q 45.40625 17.390625 45.40625 27.296875 
Q 45.40625 37.203125 41.296875 42.84375 
Q 37.203125 48.484375 30.078125 48.484375 
Q 22.953125 48.484375 18.875 42.84375 
Q 14.796875 37.203125 14.796875 27.296875 
z
" id="DejaVuSans-100"/>
     </defs>
     <g transform="translate(457.601563 79.787188)scale(0.14 -0.14)">
      <use xlink:href="#DejaVuSans-102"/>
      <use x="35.205078" xlink:href="#DejaVuSans-105"/>
      <use x="62.988281" xlink:href="#DejaVuSans-102"/>
      <use x="98.177734" xlink:href="#DejaVuSans-116"/>
      <use x="137.386719" xlink:href="#DejaVuSans-104"/>
      <use x="200.765625" xlink:href="#DejaVuSans-95"/>
      <use x="250.765625" xlink:href="#DejaVuSans-109"/>
      <use x="348.177734" xlink:href="#DejaVuSans-105"/>
      <use x="375.960938" xlink:href="#DejaVuSans-100"/>
     </g>
    </g>
    <g id="patch_7">
     <path d="M 418.401563 100.725937 
L 446.401563 100.725937 
L 446.401563 90.925937 
L 418.401563 90.925937 
z
" style="fill:#4bc0c0;opacity:0.5;stroke:#4bc0c0;stroke-linejoin:miter;"/>
    </g>
    <g id="text_3">
     <!-- fifth_right -->
     <defs>
      <path d="M 41.109375 46.296875 
Q 39.59375 47.171875 37.8125 47.578125 
Q 36.03125 48 33.890625 48 
Q 26.265625 48 22.1875 43.046875 
Q 18.109375 38.09375 18.109375 28.8125 
L 18.109375 0 
L 9.078125 0 
L 9.078125 54.6875 
L 18.109375 54.6875 
L 18.109375 46.1875 
Q 20.953125 51.171875 25.484375 53.578125 
Q 30.03125 56 36.53125 56 
Q 37.453125 56 38.578125 55.875 
Q 39.703125 55.765625 41.0625 55.515625 
z
" id="DejaVuSans-114"/>
      <path d="M 45.40625 27.984375 
Q 45.40625 37.75 41.375 43.109375 
Q 37.359375 48.484375 30.078125 48.484375 
Q 22.859375 48.484375 18.828125 43.109375 
Q 14.796875 37.75 14.796875 27.984375 
Q 14.796875 18.265625 18.828125 12.890625 
Q 22.859375 7.515625 30.078125 7.515625 
Q 37.359375 7.515625 41.375 12.890625 
Q 45.40625 18.265625 45.40625 27.984375 
z
M 54.390625 6.78125 
Q 54.390625 -7.171875 48.1875 -13.984375 
Q 42 -20.796875 29.203125 -20.796875 
Q 24.46875 -20.796875 20.265625 -20.09375 
Q 16.0625 -19.390625 12.109375 -17.921875 
L 12.109375 -9.1875 
Q 16.0625 -11.328125 19.921875 -12.34375 
Q 23.78125 -13.375 27.78125 -13.375 
Q 36.625 -13.375 41.015625 -8.765625 
Q 45.40625 -4.15625 45.40625 5.171875 
L 45.40625 9.625 
Q 42.625 4.78125 38.28125 2.390625 
Q 33.9375 0 27.875 0 
Q 17.828125 0 11.671875 7.65625 
Q 5.515625 15.328125 5.515625 27.984375 
Q 5.515625 40.671875 11.671875 48.328125 
Q 17.828125 56 27.875 56 
Q 33.9375 56 38.28125 53.609375 
Q 42.625 51.21875 45.40625 46.390625 
L 45.40625 54.6875 
L 54.390625 54.6875 
z
" id="DejaVuSans-103"/>
     </defs>
     <g transform="translate(457.601563 100.725937)scale(0.14 -0.14)">
      <use xlink:href="#DejaVuSans-102"/>
      <use x="35.205078" xlink:href="#DejaVuSans-105"/>
      <use x="62.988281" xlink:href="#DejaVuSans-102"/>
      <use x="98.177734" xlink:href="#DejaVuSans-116"/>
      <use x="137.386719" xlink:href="#DejaVuSans-104"/>
      <use x="200.765625" xlink:href="#DejaVuSans-95"/>
      <use x="250.765625" xlink:href="#DejaVuSans-114"/>
      <use x="291.878906" xlink:href="#DejaVuSans-105"/>
      <use x="319.662109" xlink:href="#DejaVuSans-103"/>
      <use x="383.138672" xlink:href="#DejaVuSans-104"/>
      <use x="446.517578" xlink:href="#DejaVuSans-116"/>
     </g>
    </g>
   </g>
  </g>
  <g id="axes_2">
   <g id="patch_8">
    <path d="M 36 525.24 
L 538.2 525.24 
L 538.2 402.93 
L 36 402.93 
z
" style="fill:none;"/>
   </g>
   <g id="patch_9">
    <path clip-path="url(#p9f0d2db6ed)" d="M 189.645664 519.680455 
L 393.055216 519.680455 
L 393.055216 497.442273 
L 189.645664 497.442273 
z
" style="fill:#ff6384;opacity:0.5;"/>
   </g>
   <g id="patch_10">
    <path clip-path="url(#p9f0d2db6ed)" d="M 164.451159 475.204091 
L 367.414706 475.204091 
L 367.414706 452.965909 
L 164.451159 452.965909 
z
" style="fill:#36a2eb;opacity:0.5;"/>
   </g>
   <g id="patch_11">
    <path clip-path="url(#p9f0d2db6ed)" d="M 205.249573 430.727727 
L 409.223191 430.727727 
L 409.223191 408.489545 
L 205.249573 408.489545 
z
" style="fill:#4bc0c0;opacity:0.5;"/>
   </g>
   <g id="matplotlib.axis_1">
    <g id="xtick_1">
     <g id="line2d_4">
      <defs>
       <path d="M 0 0 
L 0 3.5 
" id="md52e70b0b6" style="stroke:#000000;stroke-width:0.8;"/>
      </defs>
      <g>
       <use style="stroke:#000000;stroke-width:0.8;" x="92.776161" xlink:href="#md52e70b0b6" y="525.24"/>
      </g>
     </g>
     <g id="text_4">
      <!-- 8.5 -->
      <defs>
       <path d="M 31.78125 34.625 
Q 24.75 34.625 20.71875 30.859375 
Q 16.703125 27.09375 16.703125 20.515625 
Q 16.703125 13.921875 20.71875 10.15625 
Q 24.75 6.390625 31.78125 6.390625 
Q 38.8125 6.390625 42.859375 10.171875 
Q 46.921875 13.96875 46.921875 20.515625 
Q 46.921875 27.09375 42.890625 30.859375 
Q 38.875 34.625 31.78125 34.625 
z
M 21.921875 38.8125 
Q 15.578125 40.375 12.03125 44.71875 
Q 8.5 49.078125 8.5 55.328125 
Q 8.5 64.0625 14.71875 69.140625 
Q 20.953125 74.21875 31.78125 74.21875 
Q 42.671875 74.21875 48.875 69.140625 
Q 55.078125 64.0625 55.078125 55.328125 
Q 55.078125 49.078125 51.53125 44.71875 
Q 48 40.375 41.703125 38.8125 
Q 48.828125 37.15625 52.796875 32.3125 
Q 56.78125 27.484375 56.78125 20.515625 
Q 56.78125 9.90625 50.3125 4.234375 
Q 43.84375 -1.421875 31.78125 -1.421875 
Q 19.734375 -1.421875 13.25 4.234375 
Q 6.78125 9.90625 6.78125 20.515625 
Q 6.78125 27.484375 10.78125 32.3125 
Q 14.796875 37.15625 21.921875 38.8125 
z
M 18.3125 54.390625 
Q 18.3125 48.734375 21.84375 45.5625 
Q 25.390625 42.390625 31.78125 42.390625 
Q 38.140625 42.390625 41.71875 45.5625 
Q 45.3125 48.734375 45.3125 54.390625 
Q 45.3125 60.0625 41.71875 63.234375 
Q 38.140625 66.40625 31.78125 66.40625 
Q 25.390625 66.40625 21.84375 63.234375 
Q 18.3125 60.0625 18.3125 54.390625 
z
" id="DejaVuSans-56"/>
       <path d="M 10.6875 12.40625 
L 21 12.40625 
L 21 0 
L 10.6875 0 
z
" id="DejaVuSans-46"/>
       <path d="M 10.796875 72.90625 
L 49.515625 72.90625 
L 49.515625 64.59375 
L 19.828125 64.59375 
L 19.828125 46.734375 
Q 21.96875 47.46875 24.109375 47.828125 
Q 26.265625 48.1875 28.421875 48.1875 
Q 40.625 48.1875 47.75 41.5 
Q 54.890625 34.8125 54.890625 23.390625 
Q 54.890625 11.625 47.5625 5.09375 
Q 40.234375 -1.421875 26.90625 -1.421875 
Q 22.3125 -1.421875 17.546875 -0.640625 
Q 12.796875 0.140625 7.71875 1.703125 
L 7.71875 11.625 
Q 12.109375 9.234375 16.796875 8.0625 
Q 21.484375 6.890625 26.703125 6.890625 
Q 35.15625 6.890625 40.078125 11.328125 
Q 45.015625 15.765625 45.015625 23.390625 
Q 45.015625 31 40.078125 35.4375 
Q 35.15625 39.890625 26.703125 39.890625 
Q 22.75 39.890625 18.8125 39.015625 
Q 14.890625 38.140625 10.796875 36.28125 
z
" id="DejaVuSans-53"/>
      </defs>
      <g transform="translate(81.643974 542.877813)scale(0.14 -0.14)">
       <use xlink:href="#DejaVuSans-56"/>
       <use x="63.623047" xlink:href="#DejaVuSans-46"/>
       <use x="95.410156" xlink:href="#DejaVuSans-53"/>
      </g>
     </g>
    </g>
    <g id="xtick_2">
     <g id="line2d_5">
      <g>
       <use style="stroke:#000000;stroke-width:0.8;" x="172.205873" xlink:href="#md52e70b0b6" y="525.24"/>
      </g>
     </g>
     <g id="text_5">
      <!-- 9.0 -->
      <defs>
       <path d="M 10.984375 1.515625 
L 10.984375 10.5 
Q 14.703125 8.734375 18.5 7.8125 
Q 22.3125 6.890625 25.984375 6.890625 
Q 35.75 6.890625 40.890625 13.453125 
Q 46.046875 20.015625 46.78125 33.40625 
Q 43.953125 29.203125 39.59375 26.953125 
Q 35.25 24.703125 29.984375 24.703125 
Q 19.046875 24.703125 12.671875 31.3125 
Q 6.296875 37.9375 6.296875 49.421875 
Q 6.296875 60.640625 12.9375 67.421875 
Q 19.578125 74.21875 30.609375 74.21875 
Q 43.265625 74.21875 49.921875 64.515625 
Q 56.59375 54.828125 56.59375 36.375 
Q 56.59375 19.140625 48.40625 8.859375 
Q 40.234375 -1.421875 26.421875 -1.421875 
Q 22.703125 -1.421875 18.890625 -0.6875 
Q 15.09375 0.046875 10.984375 1.515625 
z
M 30.609375 32.421875 
Q 37.25 32.421875 41.125 36.953125 
Q 45.015625 41.5 45.015625 49.421875 
Q 45.015625 57.28125 41.125 61.84375 
Q 37.25 66.40625 30.609375 66.40625 
Q 23.96875 66.40625 20.09375 61.84375 
Q 16.21875 57.28125 16.21875 49.421875 
Q 16.21875 41.5 20.09375 36.953125 
Q 23.96875 32.421875 30.609375 32.421875 
z
" id="DejaVuSans-57"/>
       <path d="M 31.78125 66.40625 
Q 24.171875 66.40625 20.328125 58.90625 
Q 16.5 51.421875 16.5 36.375 
Q 16.5 21.390625 20.328125 13.890625 
Q 24.171875 6.390625 31.78125 6.390625 
Q 39.453125 6.390625 43.28125 13.890625 
Q 47.125 21.390625 47.125 36.375 
Q 47.125 51.421875 43.28125 58.90625 
Q 39.453125 66.40625 31.78125 66.40625 
z
M 31.78125 74.21875 
Q 44.046875 74.21875 50.515625 64.515625 
Q 56.984375 54.828125 56.984375 36.375 
Q 56.984375 17.96875 50.515625 8.265625 
Q 44.046875 -1.421875 31.78125 -1.421875 
Q 19.53125 -1.421875 13.0625 8.265625 
Q 6.59375 17.96875 6.59375 36.375 
Q 6.59375 54.828125 13.0625 64.515625 
Q 19.53125 74.21875 31.78125 74.21875 
z
" id="DejaVuSans-48"/>
      </defs>
      <g transform="translate(161.073685 542.877813)scale(0.14 -0.14)">
       <use xlink:href="#DejaVuSans-57"/>
       <use x="63.623047" xlink:href="#DejaVuSans-46"/>
       <use x="95.410156" xlink:href="#DejaVuSans-48"/>
      </g>
     </g>
    </g>
    <g id="xtick_3">
     <g id="line2d_6">
      <g>
       <use style="stroke:#000000;stroke-width:0.8;" x="251.635584" xlink:href="#md52e70b0b6" y="525.24"/>
      </g>
     </g>
     <g id="text_6">
      <!-- 9.5 -->
      <g transform="translate(240.503397 542.877813)scale(0.14 -0.14)">
       <use xlink:href="#DejaVuSans-57"/>
       <use x="63.623047" xlink:href="#DejaVuSans-46"/>
       <use x="95.410156" xlink:href="#DejaVuSans-53"/>
      </g>
     </g>
    </g>
    <g id="xtick_4">
     <g id="line2d_7">
      <g>
       <use style="stroke:#000000;stroke-width:0.8;" x="331.065296" xlink:href="#md52e70b0b6" y="525.24"/>
      </g>
     </g>
     <g id="text_7">
      <!-- 10.0 -->
      <defs>
       <path d="M 12.40625 8.296875 
L 28.515625 8.296875 
L 28.515625 63.921875 
L 10.984375 60.40625 
L 10.984375 69.390625 
L 28.421875 72.90625 
L 38.28125 72.90625 
L 38.28125 8.296875 
L 54.390625 8.296875 
L 54.390625 0 
L 12.40625 0 
z
" id="DejaVuSans-49"/>
      </defs>
      <g transform="translate(315.479358 542.877813)scale(0.14 -0.14)">
       <use xlink:href="#DejaVuSans-49"/>
       <use x="63.623047" xlink:href="#DejaVuSans-48"/>
       <use x="127.246094" xlink:href="#DejaVuSans-46"/>
       <use x="159.033203" xlink:href="#DejaVuSans-48"/>
      </g>
     </g>
    </g>
    <g id="xtick_5">
     <g id="line2d_8">
      <g>
       <use style="stroke:#000000;stroke-width:0.8;" x="410.495007" xlink:href="#md52e70b0b6" y="525.24"/>
      </g>
     </g>
     <g id="text_8">
      <!-- 10.5 -->
      <g transform="translate(394.90907 542.877813)scale(0.14 -0.14)">
       <use xlink:href="#DejaVuSans-49"/>
       <use x="63.623047" xlink:href="#DejaVuSans-48"/>
       <use x="127.246094" xlink:href="#DejaVuSans-46"/>
       <use x="159.033203" xlink:href="#DejaVuSans-53"/>
      </g>
     </g>
    </g>
    <g id="xtick_6">
     <g id="line2d_9">
      <g>
       <use style="stroke:#000000;stroke-width:0.8;" x="489.924719" xlink:href="#md52e70b0b6" y="525.24"/>
      </g>
     </g>
     <g id="text_9">
      <!-- 11.0 -->
      <g transform="translate(474.338781 542.877813)scale(0.14 -0.14)">
       <use xlink:href="#DejaVuSans-49"/>
       <use x="63.623047" xlink:href="#DejaVuSans-49"/>
       <use x="127.246094" xlink:href="#DejaVuSans-46"/>
       <use x="159.033203" xlink:href="#DejaVuSans-48"/>
      </g>
     </g>
    </g>
   </g>
   <g id="line2d_10">
    <path clip-path="url(#p9f0d2db6ed)" d="M 291.35044 525.24 
L 291.35044 402.93 
" style="fill:none;stroke:#ff6384;stroke-dasharray:5.55,2.4;stroke-dashoffset:0;stroke-opacity:0.8;stroke-width:1.5;"/>
   </g>
   <g id="line2d_11">
    <path clip-path="url(#p9f0d2db6ed)" d="M 265.932932 525.24 
L 265.932932 402.93 
" style="fill:none;stroke:#36a2eb;stroke-dasharray:5.55,2.4;stroke-dashoffset:0;stroke-opacity:0.8;stroke-width:1.5;"/>
   </g>
   <g id="line2d_12">
    <path clip-path="url(#p9f0d2db6ed)" d="M 307.236382 525.24 
L 307.236382 402.93 
" style="fill:none;stroke:#4bc0c0;stroke-dasharray:5.55,2.4;stroke-dashoffset:0;stroke-opacity:0.8;stroke-width:1.5;"/>
   </g>
   <g id="patch_12">
    <path d="M 36 525.24 
L 538.2 525.24 
" style="fill:none;stroke:#000000;stroke-linecap:square;stroke-linejoin:miter;stroke-width:0.8;"/>
   </g>
  </g>
 </g>
 <defs>
  <clipPath id="p390de6b897">
   <rect height="366.93" width="502.2" x="36" y="36"/>
  </clipPath>
  <clipPath id="p9f0d2db6ed">
   <rect height="122.31" width="502.2" x="36" y="402.93"/>
  </clipPath>
 </defs>
</svg>
