<?xml version="1.0" encoding="utf-8" standalone="no"?>
<!DOCTYPE svg PUBLIC "-//W3C//DTD SVG 1.1//EN"
  "http://www.w3.org/Graphics/SVG/1.1/DTD/svg11.dtd">
<!-- Created with matplotlib (https://matplotlib.org/) -->
<svg height="581.789375pt" version="1.1" viewBox="0 0 582.00318 581.789375" width="582.00318pt" xmlns="http://www.w3.org/2000/svg" xmlns:xlink="http://www.w3.org/1999/xlink">
 <defs>
  <style type="text/css">
*{stroke-linecap:butt;stroke-linejoin:round;}
  </style>
 </defs>
 <g id="figure_1">
  <g id="patch_1">
   <path d="M 0 581.789375 
L 582.00318 581.789375 
L 582.00318 0 
L 0 0 
z
" style="fill:none;"/>
  </g>
  <g id="axes_1">
   <g id="patch_2">
    <path d="M 43.80318 402.93 
L 546.00318 402.93 
L 546.00318 36 
L 43.80318 36 
z
" style="fill:none;"/>
   </g>
   <g id="PolyCollection_1">
    <defs>
     <path d="M 109.278138 -195.538011 
L 109.278138 -195.649214 
L 113.214823 -195.691147 
L 117.151508 -195.74752 
L 121.088192 -195.822778 
L 125.024877 -195.922552 
L 128.961561 -196.053902 
L 132.898246 -196.225616 
L 136.834931 -196.448518 
L 140.771615 -196.735832 
L 144.7083 -197.103552 
L 148.644984 -197.570842 
L 152.581669 -198.16043 
L 156.518354 -198.898999 
L 160.455038 -199.81754 
L 164.391723 -200.951648 
L 168.328407 -202.341729 
L 172.265092 -204.033092 
L 176.201777 -206.075882 
L 180.138461 -208.524815 
L 184.075146 -211.438695 
L 188.01183 -214.879655 
L 191.948515 -218.912119 
L 195.8852 -223.601444 
L 199.821884 -229.012243 
L 203.758569 -235.206396 
L 207.695253 -242.240767 
L 211.631938 -250.164662 
L 215.568623 -259.017105 
L 219.505307 -268.824 
L 223.441992 -279.595277 
L 227.378676 -291.322161 
L 231.315361 -303.974668 
L 235.252046 -317.499486 
L 239.18873 -331.81838 
L 243.125415 -346.827241 
L 247.062099 -362.395923 
L 250.998784 -378.368945 
L 254.935469 -394.567134 
L 258.872153 -410.790243 
L 262.808838 -426.820514 
L 266.745522 -442.427143 
L 270.682207 -457.371533 
L 274.618892 -471.413175 
L 278.555576 -484.315969 
L 282.492261 -495.854762 
L 286.428945 -505.821849 
L 290.36563 -514.033168 
L 294.302315 -520.33395 
L 298.238999 -524.60357 
L 302.175684 -526.759381 
L 306.112368 -526.759381 
L 310.049053 -524.60357 
L 313.985738 -520.33395 
L 317.922422 -514.033168 
L 321.859107 -505.821849 
L 325.795791 -495.854762 
L 329.732476 -484.315969 
L 333.669161 -471.413175 
L 337.605845 -457.371533 
L 341.54253 -442.427143 
L 345.479214 -426.820514 
L 349.415899 -410.790243 
L 353.352584 -394.567134 
L 357.289268 -378.368945 
L 361.225953 -362.395923 
L 365.162637 -346.827241 
L 369.099322 -331.81838 
L 373.036007 -317.499486 
L 376.972691 -303.974668 
L 380.909376 -291.322161 
L 384.84606 -279.595277 
L 388.782745 -268.824 
L 392.719429 -259.017105 
L 396.656114 -250.164662 
L 400.592799 -242.240767 
L 404.529483 -235.206396 
L 408.466168 -229.012243 
L 412.402852 -223.601444 
L 416.339537 -218.912119 
L 420.276222 -214.879655 
L 424.212906 -211.438695 
L 428.149591 -208.524815 
L 432.086275 -206.075882 
L 436.02296 -204.033092 
L 439.959645 -202.341729 
L 443.896329 -200.951648 
L 447.833014 -199.81754 
L 451.769698 -198.898999 
L 455.706383 -198.16043 
L 459.643068 -197.570842 
L 463.579752 -197.103552 
L 467.516437 -196.735832 
L 471.453121 -196.448518 
L 475.389806 -196.225616 
L 479.326491 -196.053902 
L 483.263175 -195.922552 
L 487.19986 -195.822778 
L 491.136544 -195.74752 
L 495.073229 -195.691147 
L 499.009914 -195.649214 
L 499.009914 -195.538011 
L 499.009914 -195.538011 
L 495.073229 -195.538011 
L 491.136544 -195.538011 
L 487.19986 -195.538011 
L 483.263175 -195.538011 
L 479.326491 -195.538011 
L 475.389806 -195.538011 
L 471.453121 -195.538011 
L 467.516437 -195.538011 
L 463.579752 -195.538011 
L 459.643068 -195.538011 
L 455.706383 -195.538011 
L 451.769698 -195.538011 
L 447.833014 -195.538011 
L 443.896329 -195.538011 
L 439.959645 -195.538011 
L 436.02296 -195.538011 
L 432.086275 -195.538011 
L 428.149591 -195.538011 
L 424.212906 -195.538011 
L 420.276222 -195.538011 
L 416.339537 -195.538011 
L 412.402852 -195.538011 
L 408.466168 -195.538011 
L 404.529483 -195.538011 
L 400.592799 -195.538011 
L 396.656114 -195.538011 
L 392.719429 -195.538011 
L 388.782745 -195.538011 
L 384.84606 -195.538011 
L 380.909376 -195.538011 
L 376.972691 -195.538011 
L 373.036007 -195.538011 
L 369.099322 -195.538011 
L 365.162637 -195.538011 
L 361.225953 -195.538011 
L 357.289268 -195.538011 
L 353.352584 -195.538011 
L 349.415899 -195.538011 
L 345.479214 -195.538011 
L 341.54253 -195.538011 
L 337.605845 -195.538011 
L 333.669161 -195.538011 
L 329.732476 -195.538011 
L 325.795791 -195.538011 
L 321.859107 -195.538011 
L 317.922422 -195.538011 
L 313.985738 -195.538011 
L 310.049053 -195.538011 
L 306.112368 -195.538011 
L 302.175684 -195.538011 
L 298.238999 -195.538011 
L 294.302315 -195.538011 
L 290.36563 -195.538011 
L 286.428945 -195.538011 
L 282.492261 -195.538011 
L 278.555576 -195.538011 
L 274.618892 -195.538011 
L 270.682207 -195.538011 
L 266.745522 -195.538011 
L 262.808838 -195.538011 
L 258.872153 -195.538011 
L 254.935469 -195.538011 
L 250.998784 -195.538011 
L 247.062099 -195.538011 
L 243.125415 -195.538011 
L 239.18873 -195.538011 
L 235.252046 -195.538011 
L 231.315361 -195.538011 
L 227.378676 -195.538011 
L 223.441992 -195.538011 
L 219.505307 -195.538011 
L 215.568623 -195.538011 
L 211.631938 -195.538011 
L 207.695253 -195.538011 
L 203.758569 -195.538011 
L 199.821884 -195.538011 
L 195.8852 -195.538011 
L 191.948515 -195.538011 
L 188.01183 -195.538011 
L 184.075146 -195.538011 
L 180.138461 -195.538011 
L 176.201777 -195.538011 
L 172.265092 -195.538011 
L 168.328407 -195.538011 
L 164.391723 -195.538011 
L 160.455038 -195.538011 
L 156.518354 -195.538011 
L 152.581669 -195.538011 
L 148.644984 -195.538011 
L 144.7083 -195.538011 
L 140.771615 -195.538011 
L 136.834931 -195.538011 
L 132.898246 -195.538011 
L 128.961561 -195.538011 
L 125.024877 -195.538011 
L 121.088192 -195.538011 
L 117.151508 -195.538011 
L 113.214823 -195.538011 
L 109.278138 -195.538011 
z
" id="m82d4e87d18" style="stroke:#ff6384;stroke-opacity:0.5;"/>
    </defs>
    <g clip-path="url(#p87157c11ce)">
     <use style="fill:#ff6384;fill-opacity:0.5;stroke:#ff6384;stroke-opacity:0.5;" x="0" xlink:href="#m82d4e87d18" y="581.789375"/>
    </g>
   </g>
   <g id="PolyCollection_2">
    <defs>
     <path d="M 66.630453 -195.538011 
L 66.630453 -195.650004 
L 70.539388 -195.692234 
L 74.448323 -195.749007 
L 78.357258 -195.8248 
L 82.266192 -195.925281 
L 86.175127 -196.057565 
L 90.084062 -196.230497 
L 93.992997 -196.454982 
L 97.901932 -196.744335 
L 101.810867 -197.114666 
L 105.719802 -197.585273 
L 109.628737 -198.179047 
L 113.537671 -198.922859 
L 117.446606 -199.847921 
L 121.355541 -200.990079 
L 125.264476 -202.390029 
L 129.173411 -204.093399 
L 133.082346 -206.150691 
L 136.991281 -208.617009 
L 140.900216 -211.551575 
L 144.80915 -215.016962 
L 148.718085 -219.078053 
L 152.62702 -223.800667 
L 156.535955 -229.249878 
L 160.44489 -235.488004 
L 164.353825 -242.572312 
L 168.26276 -250.552459 
L 172.171695 -259.467747 
L 176.080629 -269.344261 
L 179.989564 -280.192004 
L 183.898499 -292.002137 
L 187.807434 -304.744465 
L 191.716369 -318.365297 
L 195.625304 -332.785841 
L 199.534239 -347.901251 
L 203.443173 -363.580456 
L 207.352108 -379.666871 
L 211.261043 -395.980052 
L 215.169978 -412.31833 
L 219.078913 -428.4624 
L 222.987848 -444.179822 
L 226.896783 -459.230303 
L 230.805718 -473.371627 
L 234.714652 -486.366018 
L 238.623587 -497.986726 
L 242.532522 -508.02457 
L 246.441457 -516.294181 
L 250.350392 -522.639693 
L 254.259327 -526.939623 
L 258.168262 -529.110739 
L 262.077197 -529.110739 
L 265.986131 -526.939623 
L 269.895066 -522.639693 
L 273.804001 -516.294181 
L 277.712936 -508.02457 
L 281.621871 -497.986726 
L 285.530806 -486.366018 
L 289.439741 -473.371627 
L 293.348676 -459.230303 
L 297.25761 -444.179822 
L 301.166545 -428.4624 
L 305.07548 -412.31833 
L 308.984415 -395.980052 
L 312.89335 -379.666871 
L 316.802285 -363.580456 
L 320.71122 -347.901251 
L 324.620155 -332.785841 
L 328.529089 -318.365297 
L 332.438024 -304.744465 
L 336.346959 -292.002137 
L 340.255894 -280.192004 
L 344.164829 -269.344261 
L 348.073764 -259.467747 
L 351.982699 -250.552459 
L 355.891634 -242.572312 
L 359.800568 -235.488004 
L 363.709503 -229.249878 
L 367.618438 -223.800667 
L 371.527373 -219.078053 
L 375.436308 -215.016962 
L 379.345243 -211.551575 
L 383.254178 -208.617009 
L 387.163112 -206.150691 
L 391.072047 -204.093399 
L 394.980982 -202.390029 
L 398.889917 -200.990079 
L 402.798852 -199.847921 
L 406.707787 -198.922859 
L 410.616722 -198.179047 
L 414.525657 -197.585273 
L 418.434591 -197.114666 
L 422.343526 -196.744335 
L 426.252461 -196.454982 
L 430.161396 -196.230497 
L 434.070331 -196.057565 
L 437.979266 -195.925281 
L 441.888201 -195.8248 
L 445.797136 -195.749007 
L 449.70607 -195.692234 
L 453.615005 -195.650004 
L 453.615005 -195.538011 
L 453.615005 -195.538011 
L 449.70607 -195.538011 
L 445.797136 -195.538011 
L 441.888201 -195.538011 
L 437.979266 -195.538011 
L 434.070331 -195.538011 
L 430.161396 -195.538011 
L 426.252461 -195.538011 
L 422.343526 -195.538011 
L 418.434591 -195.538011 
L 414.525657 -195.538011 
L 410.616722 -195.538011 
L 406.707787 -195.538011 
L 402.798852 -195.538011 
L 398.889917 -195.538011 
L 394.980982 -195.538011 
L 391.072047 -195.538011 
L 387.163112 -195.538011 
L 383.254178 -195.538011 
L 379.345243 -195.538011 
L 375.436308 -195.538011 
L 371.527373 -195.538011 
L 367.618438 -195.538011 
L 363.709503 -195.538011 
L 359.800568 -195.538011 
L 355.891634 -195.538011 
L 351.982699 -195.538011 
L 348.073764 -195.538011 
L 344.164829 -195.538011 
L 340.255894 -195.538011 
L 336.346959 -195.538011 
L 332.438024 -195.538011 
L 328.529089 -195.538011 
L 324.620155 -195.538011 
L 320.71122 -195.538011 
L 316.802285 -195.538011 
L 312.89335 -195.538011 
L 308.984415 -195.538011 
L 305.07548 -195.538011 
L 301.166545 -195.538011 
L 297.25761 -195.538011 
L 293.348676 -195.538011 
L 289.439741 -195.538011 
L 285.530806 -195.538011 
L 281.621871 -195.538011 
L 277.712936 -195.538011 
L 273.804001 -195.538011 
L 269.895066 -195.538011 
L 265.986131 -195.538011 
L 262.077197 -195.538011 
L 258.168262 -195.538011 
L 254.259327 -195.538011 
L 250.350392 -195.538011 
L 246.441457 -195.538011 
L 242.532522 -195.538011 
L 238.623587 -195.538011 
L 234.714652 -195.538011 
L 230.805718 -195.538011 
L 226.896783 -195.538011 
L 222.987848 -195.538011 
L 219.078913 -195.538011 
L 215.169978 -195.538011 
L 211.261043 -195.538011 
L 207.352108 -195.538011 
L 203.443173 -195.538011 
L 199.534239 -195.538011 
L 195.625304 -195.538011 
L 191.716369 -195.538011 
L 187.807434 -195.538011 
L 183.898499 -195.538011 
L 179.989564 -195.538011 
L 176.080629 -195.538011 
L 172.171695 -195.538011 
L 168.26276 -195.538011 
L 164.353825 -195.538011 
L 160.44489 -195.538011 
L 156.535955 -195.538011 
L 152.62702 -195.538011 
L 148.718085 -195.538011 
L 144.80915 -195.538011 
L 140.900216 -195.538011 
L 136.991281 -195.538011 
L 133.082346 -195.538011 
L 129.173411 -195.538011 
L 125.264476 -195.538011 
L 121.355541 -195.538011 
L 117.446606 -195.538011 
L 113.537671 -195.538011 
L 109.628737 -195.538011 
L 105.719802 -195.538011 
L 101.810867 -195.538011 
L 97.901932 -195.538011 
L 93.992997 -195.538011 
L 90.084062 -195.538011 
L 86.175127 -195.538011 
L 82.266192 -195.538011 
L 78.357258 -195.538011 
L 74.448323 -195.538011 
L 70.539388 -195.538011 
L 66.630453 -195.538011 
z
" id="m0ec7a13afd" style="stroke:#36a2eb;stroke-opacity:0.5;"/>
    </defs>
    <g clip-path="url(#p87157c11ce)">
     <use style="fill:#36a2eb;fill-opacity:0.5;stroke:#36a2eb;stroke-opacity:0.5;" x="0" xlink:href="#m0ec7a13afd" y="581.789375"/>
    </g>
   </g>
   <g id="PolyCollection_3">
    <defs>
     <path d="M 132.068194 -195.538011 
L 132.068194 -195.648823 
L 136.018777 -195.690609 
L 139.96936 -195.746783 
L 143.919943 -195.821776 
L 147.870526 -195.921199 
L 151.821109 -196.052088 
L 155.771692 -196.223197 
L 159.722275 -196.445315 
L 163.672858 -196.731618 
L 167.623441 -197.098044 
L 171.574024 -197.56369 
L 175.524607 -198.151204 
L 179.47519 -198.887175 
L 183.425773 -199.802485 
L 187.376356 -200.932602 
L 191.326939 -202.317793 
L 195.277522 -204.003206 
L 199.228105 -206.038809 
L 203.178688 -208.479127 
L 207.129271 -211.382755 
L 211.079854 -214.81161 
L 215.030437 -218.829888 
L 218.98102 -223.502715 
L 222.931603 -228.894478 
L 226.882186 -235.066841 
L 230.832768 -242.076464 
L 234.783351 -249.972482 
L 238.733934 -258.793783 
L 242.684517 -268.566176 
L 246.6351 -279.299559 
L 250.585683 -290.985187 
L 254.536266 -303.593182 
L 258.486849 -317.070419 
L 262.437432 -331.338938 
L 266.388015 -346.294997 
L 270.338598 -361.808908 
L 274.289181 -377.725736 
L 278.239764 -393.866939 
L 282.190347 -410.032974 
L 286.14093 -426.00685 
L 290.091513 -441.558574 
L 294.042096 -456.450389 
L 297.992679 -470.442631 
L 301.943262 -483.300032 
L 305.893845 -494.798232 
L 309.844428 -504.730254 
L 313.795011 -512.912685 
L 317.745594 -519.191301 
L 321.696177 -523.4459 
L 325.64676 -525.594127 
L 329.597342 -525.594127 
L 333.547925 -523.4459 
L 337.498508 -519.191301 
L 341.449091 -512.912685 
L 345.399674 -504.730254 
L 349.350257 -494.798232 
L 353.30084 -483.300032 
L 357.251423 -470.442631 
L 361.202006 -456.450389 
L 365.152589 -441.558574 
L 369.103172 -426.00685 
L 373.053755 -410.032974 
L 377.004338 -393.866939 
L 380.954921 -377.725736 
L 384.905504 -361.808908 
L 388.856087 -346.294997 
L 392.80667 -331.338938 
L 396.757253 -317.070419 
L 400.707836 -303.593182 
L 404.658419 -290.985187 
L 408.609002 -279.299559 
L 412.559585 -268.566176 
L 416.510168 -258.793783 
L 420.460751 -249.972482 
L 424.411334 -242.076464 
L 428.361916 -235.066841 
L 432.312499 -228.894478 
L 436.263082 -223.502715 
L 440.213665 -218.829888 
L 444.164248 -214.81161 
L 448.114831 -211.382755 
L 452.065414 -208.479127 
L 456.015997 -206.038809 
L 459.96658 -204.003206 
L 463.917163 -202.317793 
L 467.867746 -200.932602 
L 471.818329 -199.802485 
L 475.768912 -198.887175 
L 479.719495 -198.151204 
L 483.670078 -197.56369 
L 487.620661 -197.098044 
L 491.571244 -196.731618 
L 495.521827 -196.445315 
L 499.47241 -196.223197 
L 503.422993 -196.052088 
L 507.373576 -195.921199 
L 511.324159 -195.821776 
L 515.274742 -195.746783 
L 519.225325 -195.690609 
L 523.175908 -195.648823 
L 523.175908 -195.538011 
L 523.175908 -195.538011 
L 519.225325 -195.538011 
L 515.274742 -195.538011 
L 511.324159 -195.538011 
L 507.373576 -195.538011 
L 503.422993 -195.538011 
L 499.47241 -195.538011 
L 495.521827 -195.538011 
L 491.571244 -195.538011 
L 487.620661 -195.538011 
L 483.670078 -195.538011 
L 479.719495 -195.538011 
L 475.768912 -195.538011 
L 471.818329 -195.538011 
L 467.867746 -195.538011 
L 463.917163 -195.538011 
L 459.96658 -195.538011 
L 456.015997 -195.538011 
L 452.065414 -195.538011 
L 448.114831 -195.538011 
L 444.164248 -195.538011 
L 440.213665 -195.538011 
L 436.263082 -195.538011 
L 432.312499 -195.538011 
L 428.361916 -195.538011 
L 424.411334 -195.538011 
L 420.460751 -195.538011 
L 416.510168 -195.538011 
L 412.559585 -195.538011 
L 408.609002 -195.538011 
L 404.658419 -195.538011 
L 400.707836 -195.538011 
L 396.757253 -195.538011 
L 392.80667 -195.538011 
L 388.856087 -195.538011 
L 384.905504 -195.538011 
L 380.954921 -195.538011 
L 377.004338 -195.538011 
L 373.053755 -195.538011 
L 369.103172 -195.538011 
L 365.152589 -195.538011 
L 361.202006 -195.538011 
L 357.251423 -195.538011 
L 353.30084 -195.538011 
L 349.350257 -195.538011 
L 345.399674 -195.538011 
L 341.449091 -195.538011 
L 337.498508 -195.538011 
L 333.547925 -195.538011 
L 329.597342 -195.538011 
L 325.64676 -195.538011 
L 321.696177 -195.538011 
L 317.745594 -195.538011 
L 313.795011 -195.538011 
L 309.844428 -195.538011 
L 305.893845 -195.538011 
L 301.943262 -195.538011 
L 297.992679 -195.538011 
L 294.042096 -195.538011 
L 290.091513 -195.538011 
L 286.14093 -195.538011 
L 282.190347 -195.538011 
L 278.239764 -195.538011 
L 274.289181 -195.538011 
L 270.338598 -195.538011 
L 266.388015 -195.538011 
L 262.437432 -195.538011 
L 258.486849 -195.538011 
L 254.536266 -195.538011 
L 250.585683 -195.538011 
L 246.6351 -195.538011 
L 242.684517 -195.538011 
L 238.733934 -195.538011 
L 234.783351 -195.538011 
L 230.832768 -195.538011 
L 226.882186 -195.538011 
L 222.931603 -195.538011 
L 218.98102 -195.538011 
L 215.030437 -195.538011 
L 211.079854 -195.538011 
L 207.129271 -195.538011 
L 203.178688 -195.538011 
L 199.228105 -195.538011 
L 195.277522 -195.538011 
L 191.326939 -195.538011 
L 187.376356 -195.538011 
L 183.425773 -195.538011 
L 179.47519 -195.538011 
L 175.524607 -195.538011 
L 171.574024 -195.538011 
L 167.623441 -195.538011 
L 163.672858 -195.538011 
L 159.722275 -195.538011 
L 155.771692 -195.538011 
L 151.821109 -195.538011 
L 147.870526 -195.538011 
L 143.919943 -195.538011 
L 139.96936 -195.538011 
L 136.018777 -195.538011 
L 132.068194 -195.538011 
z
" id="m2cf785663e" style="stroke:#4bc0c0;stroke-opacity:0.5;"/>
    </defs>
    <g clip-path="url(#p87157c11ce)">
     <use style="fill:#4bc0c0;fill-opacity:0.5;stroke:#4bc0c0;stroke-opacity:0.5;" x="0" xlink:href="#m2cf785663e" y="581.789375"/>
    </g>
   </g>
   <g id="line2d_1">
    <path clip-path="url(#p87157c11ce)" d="M 109.278138 386.140161 
L 113.214823 386.098228 
L 117.151508 386.041855 
L 121.088192 385.966597 
L 125.024877 385.866823 
L 128.961561 385.735473 
L 132.898246 385.563759 
L 136.834931 385.340857 
L 140.771615 385.053543 
L 144.7083 384.685823 
L 148.644984 384.218533 
L 152.581669 383.628945 
L 156.518354 382.890376 
L 160.455038 381.971835 
L 164.391723 380.837727 
L 168.328407 379.447646 
L 172.265092 377.756283 
L 176.201777 375.713493 
L 180.138461 373.26456 
L 184.075146 370.35068 
L 188.01183 366.90972 
L 191.948515 362.877256 
L 195.8852 358.187931 
L 199.821884 352.777132 
L 203.758569 346.582979 
L 207.695253 339.548608 
L 211.631938 331.624713 
L 215.568623 322.77227 
L 219.505307 312.965375 
L 223.441992 302.194098 
L 227.378676 290.467214 
L 231.315361 277.814707 
L 235.252046 264.289889 
L 239.18873 249.970995 
L 243.125415 234.962134 
L 247.062099 219.393452 
L 250.998784 203.42043 
L 254.935469 187.222241 
L 258.872153 170.999132 
L 262.808838 154.968861 
L 266.745522 139.362232 
L 270.682207 124.417842 
L 274.618892 110.3762 
L 278.555576 97.473406 
L 282.492261 85.934613 
L 286.428945 75.967526 
L 290.36563 67.756207 
L 294.302315 61.455425 
L 298.238999 57.185805 
L 302.175684 55.029994 
L 306.112368 55.029994 
L 310.049053 57.185805 
L 313.985738 61.455425 
L 317.922422 67.756207 
L 321.859107 75.967526 
L 325.795791 85.934613 
L 329.732476 97.473406 
L 333.669161 110.3762 
L 337.605845 124.417842 
L 341.54253 139.362232 
L 345.479214 154.968861 
L 349.415899 170.999132 
L 353.352584 187.222241 
L 357.289268 203.42043 
L 361.225953 219.393452 
L 365.162637 234.962134 
L 369.099322 249.970995 
L 373.036007 264.289889 
L 376.972691 277.814707 
L 380.909376 290.467214 
L 384.84606 302.194098 
L 388.782745 312.965375 
L 392.719429 322.77227 
L 396.656114 331.624713 
L 400.592799 339.548608 
L 404.529483 346.582979 
L 408.466168 352.777132 
L 412.402852 358.187931 
L 416.339537 362.877256 
L 420.276222 366.90972 
L 424.212906 370.35068 
L 428.149591 373.26456 
L 432.086275 375.713493 
L 436.02296 377.756283 
L 439.959645 379.447646 
L 443.896329 380.837727 
L 447.833014 381.971835 
L 451.769698 382.890376 
L 455.706383 383.628945 
L 459.643068 384.218533 
L 463.579752 384.685823 
L 467.516437 385.053543 
L 471.453121 385.340857 
L 475.389806 385.563759 
L 479.326491 385.735473 
L 483.263175 385.866823 
L 487.19986 385.966597 
L 491.136544 386.041855 
L 495.073229 386.098228 
L 499.009914 386.140161 
" style="fill:none;stroke:#ff6384;stroke-linecap:square;"/>
   </g>
   <g id="line2d_2">
    <path clip-path="url(#p87157c11ce)" d="M 66.630453 386.139371 
L 70.539388 386.097141 
L 74.448323 386.040368 
L 78.357258 385.964575 
L 82.266192 385.864094 
L 86.175127 385.73181 
L 90.084062 385.558878 
L 93.992997 385.334393 
L 97.901932 385.04504 
L 101.810867 384.674709 
L 105.719802 384.204102 
L 109.628737 383.610328 
L 113.537671 382.866516 
L 117.446606 381.941454 
L 121.355541 380.799296 
L 125.264476 379.399346 
L 129.173411 377.695976 
L 133.082346 375.638684 
L 136.991281 373.172366 
L 140.900216 370.2378 
L 144.80915 366.772413 
L 148.718085 362.711322 
L 152.62702 357.988708 
L 156.535955 352.539497 
L 160.44489 346.301371 
L 164.353825 339.217063 
L 168.26276 331.236916 
L 172.171695 322.321628 
L 176.080629 312.445114 
L 179.989564 301.597371 
L 183.898499 289.787238 
L 187.807434 277.04491 
L 191.716369 263.424078 
L 195.625304 249.003534 
L 199.534239 233.888124 
L 203.443173 218.208919 
L 207.352108 202.122504 
L 211.261043 185.809323 
L 215.169978 169.471045 
L 219.078913 153.326975 
L 222.987848 137.609553 
L 226.896783 122.559072 
L 230.805718 108.417748 
L 234.714652 95.423357 
L 238.623587 83.802649 
L 242.532522 73.764805 
L 246.441457 65.495194 
L 250.350392 59.149682 
L 254.259327 54.849752 
L 258.168262 52.678636 
L 262.077197 52.678636 
L 265.986131 54.849752 
L 269.895066 59.149682 
L 273.804001 65.495194 
L 277.712936 73.764805 
L 281.621871 83.802649 
L 285.530806 95.423357 
L 289.439741 108.417748 
L 293.348676 122.559072 
L 297.25761 137.609553 
L 301.166545 153.326975 
L 305.07548 169.471045 
L 308.984415 185.809323 
L 312.89335 202.122504 
L 316.802285 218.208919 
L 320.71122 233.888124 
L 324.620155 249.003534 
L 328.529089 263.424078 
L 332.438024 277.04491 
L 336.346959 289.787238 
L 340.255894 301.597371 
L 344.164829 312.445114 
L 348.073764 322.321628 
L 351.982699 331.236916 
L 355.891634 339.217063 
L 359.800568 346.301371 
L 363.709503 352.539497 
L 367.618438 357.988708 
L 371.527373 362.711322 
L 375.436308 366.772413 
L 379.345243 370.2378 
L 383.254178 373.172366 
L 387.163112 375.638684 
L 391.072047 377.695976 
L 394.980982 379.399346 
L 398.889917 380.799296 
L 402.798852 381.941454 
L 406.707787 382.866516 
L 410.616722 383.610328 
L 414.525657 384.204102 
L 418.434591 384.674709 
L 422.343526 385.04504 
L 426.252461 385.334393 
L 430.161396 385.558878 
L 434.070331 385.73181 
L 437.979266 385.864094 
L 441.888201 385.964575 
L 445.797136 386.040368 
L 449.70607 386.097141 
L 453.615005 386.139371 
" style="fill:none;stroke:#36a2eb;stroke-linecap:square;"/>
   </g>
   <g id="line2d_3">
    <path clip-path="url(#p87157c11ce)" d="M 132.068194 386.140552 
L 136.018777 386.098766 
L 139.96936 386.042592 
L 143.919943 385.967599 
L 147.870526 385.868176 
L 151.821109 385.737287 
L 155.771692 385.566178 
L 159.722275 385.34406 
L 163.672858 385.057757 
L 167.623441 384.691331 
L 171.574024 384.225685 
L 175.524607 383.638171 
L 179.47519 382.9022 
L 183.425773 381.98689 
L 187.376356 380.856773 
L 191.326939 379.471582 
L 195.277522 377.786169 
L 199.228105 375.750566 
L 203.178688 373.310248 
L 207.129271 370.40662 
L 211.079854 366.977765 
L 215.030437 362.959487 
L 218.98102 358.28666 
L 222.931603 352.894897 
L 226.882186 346.722534 
L 230.832768 339.712911 
L 234.783351 331.816893 
L 238.733934 322.995592 
L 242.684517 313.223199 
L 246.6351 302.489816 
L 250.585683 290.804188 
L 254.536266 278.196193 
L 258.486849 264.718956 
L 262.437432 250.450437 
L 266.388015 235.494378 
L 270.338598 219.980467 
L 274.289181 204.063639 
L 278.239764 187.922436 
L 282.190347 171.756401 
L 286.14093 155.782525 
L 290.091513 140.230801 
L 294.042096 125.338986 
L 297.992679 111.346744 
L 301.943262 98.489343 
L 305.893845 86.991143 
L 309.844428 77.059121 
L 313.795011 68.87669 
L 317.745594 62.598074 
L 321.696177 58.343475 
L 325.64676 56.195248 
L 329.597342 56.195248 
L 333.547925 58.343475 
L 337.498508 62.598074 
L 341.449091 68.87669 
L 345.399674 77.059121 
L 349.350257 86.991143 
L 353.30084 98.489343 
L 357.251423 111.346744 
L 361.202006 125.338986 
L 365.152589 140.230801 
L 369.103172 155.782525 
L 373.053755 171.756401 
L 377.004338 187.922436 
L 380.954921 204.063639 
L 384.905504 219.980467 
L 388.856087 235.494378 
L 392.80667 250.450437 
L 396.757253 264.718956 
L 400.707836 278.196193 
L 404.658419 290.804188 
L 408.609002 302.489816 
L 412.559585 313.223199 
L 416.510168 322.995592 
L 420.460751 331.816893 
L 424.411334 339.712911 
L 428.361916 346.722534 
L 432.312499 352.894897 
L 436.263082 358.28666 
L 440.213665 362.959487 
L 444.164248 366.977765 
L 448.114831 370.40662 
L 452.065414 373.310248 
L 456.015997 375.750566 
L 459.96658 377.786169 
L 463.917163 379.471582 
L 467.867746 380.856773 
L 471.818329 381.98689 
L 475.768912 382.9022 
L 479.719495 383.638171 
L 483.670078 384.225685 
L 487.620661 384.691331 
L 491.571244 385.057757 
L 495.521827 385.34406 
L 499.47241 385.566178 
L 503.422993 385.737287 
L 507.373576 385.868176 
L 511.324159 385.967599 
L 515.274742 386.042592 
L 519.225325 386.098766 
L 523.175908 386.140552 
" style="fill:none;stroke:#4bc0c0;stroke-linecap:square;"/>
   </g>
   <g id="patch_3">
    <path d="M 43.80318 402.93 
L 546.00318 402.93 
" style="fill:none;stroke:#000000;stroke-linecap:square;stroke-linejoin:miter;stroke-width:0.8;"/>
   </g>
   <g id="legend_1">
    <g id="patch_4">
     <path d="M 423.404743 109.626875 
L 536.20318 109.626875 
Q 539.00318 109.626875 539.00318 106.826875 
L 539.00318 45.8 
Q 539.00318 43 536.20318 43 
L 423.404743 43 
Q 420.604743 43 420.604743 45.8 
L 420.604743 106.826875 
Q 420.604743 109.626875 423.404743 109.626875 
z
" style="fill:#ffffff;opacity:0.8;stroke:#cccccc;stroke-linejoin:miter;"/>
    </g>
    <g id="patch_5">
     <path d="M 426.204743 59.237813 
L 454.204743 59.237813 
L 454.204743 49.437813 
L 426.204743 49.437813 
z
" style="fill:#ff6384;opacity:0.5;stroke:#ff6384;stroke-linejoin:miter;"/>
    </g>
    <g id="text_1">
     <!-- base -->
     <defs>
      <path d="M 48.6875 27.296875 
Q 48.6875 37.203125 44.609375 42.84375 
Q 40.53125 48.484375 33.40625 48.484375 
Q 26.265625 48.484375 22.1875 42.84375 
Q 18.109375 37.203125 18.109375 27.296875 
Q 18.109375 17.390625 22.1875 11.75 
Q 26.265625 6.109375 33.40625 6.109375 
Q 40.53125 6.109375 44.609375 11.75 
Q 48.6875 17.390625 48.6875 27.296875 
z
M 18.109375 46.390625 
Q 20.953125 51.265625 25.265625 53.625 
Q 29.59375 56 35.59375 56 
Q 45.5625 56 51.78125 48.09375 
Q 58.015625 40.1875 58.015625 27.296875 
Q 58.015625 14.40625 51.78125 6.484375 
Q 45.5625 -1.421875 35.59375 -1.421875 
Q 29.59375 -1.421875 25.265625 0.953125 
Q 20.953125 3.328125 18.109375 8.203125 
L 18.109375 0 
L 9.078125 0 
L 9.078125 75.984375 
L 18.109375 75.984375 
z
" id="DejaVuSans-98"/>
      <path d="M 34.28125 27.484375 
Q 23.390625 27.484375 19.1875 25 
Q 14.984375 22.515625 14.984375 16.5 
Q 14.984375 11.71875 18.140625 8.90625 
Q 21.296875 6.109375 26.703125 6.109375 
Q 34.1875 6.109375 38.703125 11.40625 
Q 43.21875 16.703125 43.21875 25.484375 
L 43.21875 27.484375 
z
M 52.203125 31.203125 
L 52.203125 0 
L 43.21875 0 
L 43.21875 8.296875 
Q 40.140625 3.328125 35.546875 0.953125 
Q 30.953125 -1.421875 24.3125 -1.421875 
Q 15.921875 -1.421875 10.953125 3.296875 
Q 6 8.015625 6 15.921875 
Q 6 25.140625 12.171875 29.828125 
Q 18.359375 34.515625 30.609375 34.515625 
L 43.21875 34.515625 
L 43.21875 35.40625 
Q 43.21875 41.609375 39.140625 45 
Q 35.0625 48.390625 27.6875 48.390625 
Q 23 48.390625 18.546875 47.265625 
Q 14.109375 46.140625 10.015625 43.890625 
L 10.015625 52.203125 
Q 14.9375 54.109375 19.578125 55.046875 
Q 24.21875 56 28.609375 56 
Q 40.484375 56 46.34375 49.84375 
Q 52.203125 43.703125 52.203125 31.203125 
z
" id="DejaVuSans-97"/>
      <path d="M 44.28125 53.078125 
L 44.28125 44.578125 
Q 40.484375 46.53125 36.375 47.5 
Q 32.28125 48.484375 27.875 48.484375 
Q 21.1875 48.484375 17.84375 46.4375 
Q 14.5 44.390625 14.5 40.28125 
Q 14.5 37.15625 16.890625 35.375 
Q 19.28125 33.59375 26.515625 31.984375 
L 29.59375 31.296875 
Q 39.15625 29.25 43.1875 25.515625 
Q 47.21875 21.78125 47.21875 15.09375 
Q 47.21875 7.46875 41.1875 3.015625 
Q 35.15625 -1.421875 24.609375 -1.421875 
Q 20.21875 -1.421875 15.453125 -0.5625 
Q 10.6875 0.296875 5.421875 2 
L 5.421875 11.28125 
Q 10.40625 8.6875 15.234375 7.390625 
Q 20.0625 6.109375 24.8125 6.109375 
Q 31.15625 6.109375 34.5625 8.28125 
Q 37.984375 10.453125 37.984375 14.40625 
Q 37.984375 18.0625 35.515625 20.015625 
Q 33.0625 21.96875 24.703125 23.78125 
L 21.578125 24.515625 
Q 13.234375 26.265625 9.515625 29.90625 
Q 5.8125 33.546875 5.8125 39.890625 
Q 5.8125 47.609375 11.28125 51.796875 
Q 16.75 56 26.8125 56 
Q 31.78125 56 36.171875 55.265625 
Q 40.578125 54.546875 44.28125 53.078125 
z
" id="DejaVuSans-115"/>
      <path d="M 56.203125 29.59375 
L 56.203125 25.203125 
L 14.890625 25.203125 
Q 15.484375 15.921875 20.484375 11.0625 
Q 25.484375 6.203125 34.421875 6.203125 
Q 39.59375 6.203125 44.453125 7.46875 
Q 49.3125 8.734375 54.109375 11.28125 
L 54.109375 2.78125 
Q 49.265625 0.734375 44.1875 -0.34375 
Q 39.109375 -1.421875 33.890625 -1.421875 
Q 20.796875 -1.421875 13.15625 6.1875 
Q 5.515625 13.8125 5.515625 26.8125 
Q 5.515625 40.234375 12.765625 48.109375 
Q 20.015625 56 32.328125 56 
Q 43.359375 56 49.78125 48.890625 
Q 56.203125 41.796875 56.203125 29.59375 
z
M 47.21875 32.234375 
Q 47.125 39.59375 43.09375 43.984375 
Q 39.0625 48.390625 32.421875 48.390625 
Q 24.90625 48.390625 20.390625 44.140625 
Q 15.875 39.890625 15.1875 32.171875 
z
" id="DejaVuSans-101"/>
     </defs>
     <g transform="translate(465.404743 59.237813)scale(0.14 -0.14)">
      <use xlink:href="#DejaVuSans-98"/>
      <use x="63.476562" xlink:href="#DejaVuSans-97"/>
      <use x="124.755859" xlink:href="#DejaVuSans-115"/>
      <use x="176.855469" xlink:href="#DejaVuSans-101"/>
     </g>
    </g>
    <g id="patch_6">
     <path d="M 426.204743 79.787188 
L 454.204743 79.787188 
L 454.204743 69.987188 
L 426.204743 69.987188 
z
" style="fill:#36a2eb;opacity:0.5;stroke:#36a2eb;stroke-linejoin:miter;"/>
    </g>
    <g id="text_2">
     <!-- fifth_mid -->
     <defs>
      <path d="M 37.109375 75.984375 
L 37.109375 68.5 
L 28.515625 68.5 
Q 23.6875 68.5 21.796875 66.546875 
Q 19.921875 64.59375 19.921875 59.515625 
L 19.921875 54.6875 
L 34.71875 54.6875 
L 34.71875 47.703125 
L 19.921875 47.703125 
L 19.921875 0 
L 10.890625 0 
L 10.890625 47.703125 
L 2.296875 47.703125 
L 2.296875 54.6875 
L 10.890625 54.6875 
L 10.890625 58.5 
Q 10.890625 67.625 15.140625 71.796875 
Q 19.390625 75.984375 28.609375 75.984375 
z
" id="DejaVuSans-102"/>
      <path d="M 9.421875 54.6875 
L 18.40625 54.6875 
L 18.40625 0 
L 9.421875 0 
z
M 9.421875 75.984375 
L 18.40625 75.984375 
L 18.40625 64.59375 
L 9.421875 64.59375 
z
" id="DejaVuSans-105"/>
      <path d="M 18.3125 70.21875 
L 18.3125 54.6875 
L 36.8125 54.6875 
L 36.8125 47.703125 
L 18.3125 47.703125 
L 18.3125 18.015625 
Q 18.3125 11.328125 20.140625 9.421875 
Q 21.96875 7.515625 27.59375 7.515625 
L 36.8125 7.515625 
L 36.8125 0 
L 27.59375 0 
Q 17.1875 0 13.234375 3.875 
Q 9.28125 7.765625 9.28125 18.015625 
L 9.28125 47.703125 
L 2.6875 47.703125 
L 2.6875 54.6875 
L 9.28125 54.6875 
L 9.28125 70.21875 
z
" id="DejaVuSans-116"/>
      <path d="M 54.890625 33.015625 
L 54.890625 0 
L 45.90625 0 
L 45.90625 32.71875 
Q 45.90625 40.484375 42.875 44.328125 
Q 39.84375 48.1875 33.796875 48.1875 
Q 26.515625 48.1875 22.3125 43.546875 
Q 18.109375 38.921875 18.109375 30.90625 
L 18.109375 0 
L 9.078125 0 
L 9.078125 75.984375 
L 18.109375 75.984375 
L 18.109375 46.1875 
Q 21.34375 51.125 25.703125 53.5625 
Q 30.078125 56 35.796875 56 
Q 45.21875 56 50.046875 50.171875 
Q 54.890625 44.34375 54.890625 33.015625 
z
" id="DejaVuSans-104"/>
      <path d="M 50.984375 -16.609375 
L 50.984375 -23.578125 
L -0.984375 -23.578125 
L -0.984375 -16.609375 
z
" id="DejaVuSans-95"/>
      <path d="M 52 44.1875 
Q 55.375 50.25 60.0625 53.125 
Q 64.75 56 71.09375 56 
Q 79.640625 56 84.28125 50.015625 
Q 88.921875 44.046875 88.921875 33.015625 
L 88.921875 0 
L 79.890625 0 
L 79.890625 32.71875 
Q 79.890625 40.578125 77.09375 44.375 
Q 74.3125 48.1875 68.609375 48.1875 
Q 61.625 48.1875 57.5625 43.546875 
Q 53.515625 38.921875 53.515625 30.90625 
L 53.515625 0 
L 44.484375 0 
L 44.484375 32.71875 
Q 44.484375 40.625 41.703125 44.40625 
Q 38.921875 48.1875 33.109375 48.1875 
Q 26.21875 48.1875 22.15625 43.53125 
Q 18.109375 38.875 18.109375 30.90625 
L 18.109375 0 
L 9.078125 0 
L 9.078125 54.6875 
L 18.109375 54.6875 
L 18.109375 46.1875 
Q 21.1875 51.21875 25.484375 53.609375 
Q 29.78125 56 35.6875 56 
Q 41.65625 56 45.828125 52.96875 
Q 50 49.953125 52 44.1875 
z
" id="DejaVuSans-109"/>
      <path d="M 45.40625 46.390625 
L 45.40625 75.984375 
L 54.390625 75.984375 
L 54.390625 0 
L 45.40625 0 
L 45.40625 8.203125 
Q 42.578125 3.328125 38.25 0.953125 
Q 33.9375 -1.421875 27.875 -1.421875 
Q 17.96875 -1.421875 11.734375 6.484375 
Q 5.515625 14.40625 5.515625 27.296875 
Q 5.515625 40.1875 11.734375 48.09375 
Q 17.96875 56 27.875 56 
Q 33.9375 56 38.25 53.625 
Q 42.578125 51.265625 45.40625 46.390625 
z
M 14.796875 27.296875 
Q 14.796875 17.390625 18.875 11.75 
Q 22.953125 6.109375 30.078125 6.109375 
Q 37.203125 6.109375 41.296875 11.75 
Q 45.40625 17.390625 45.40625 27.296875 
Q 45.40625 37.203125 41.296875 42.84375 
Q 37.203125 48.484375 30.078125 48.484375 
Q 22.953125 48.484375 18.875 42.84375 
Q 14.796875 37.203125 14.796875 27.296875 
z
" id="DejaVuSans-100"/>
     </defs>
     <g transform="translate(465.404743 79.787188)scale(0.14 -0.14)">
      <use xlink:href="#DejaVuSans-102"/>
      <use x="35.205078" xlink:href="#DejaVuSans-105"/>
      <use x="62.988281" xlink:href="#DejaVuSans-102"/>
      <use x="98.177734" xlink:href="#DejaVuSans-116"/>
      <use x="137.386719" xlink:href="#DejaVuSans-104"/>
      <use x="200.765625" xlink:href="#DejaVuSans-95"/>
      <use x="250.765625" xlink:href="#DejaVuSans-109"/>
      <use x="348.177734" xlink:href="#DejaVuSans-105"/>
      <use x="375.960938" xlink:href="#DejaVuSans-100"/>
     </g>
    </g>
    <g id="patch_7">
     <path d="M 426.204743 100.725937 
L 454.204743 100.725937 
L 454.204743 90.925937 
L 426.204743 90.925937 
z
" style="fill:#4bc0c0;opacity:0.5;stroke:#4bc0c0;stroke-linejoin:miter;"/>
    </g>
    <g id="text_3">
     <!-- fifth_right -->
     <defs>
      <path d="M 41.109375 46.296875 
Q 39.59375 47.171875 37.8125 47.578125 
Q 36.03125 48 33.890625 48 
Q 26.265625 48 22.1875 43.046875 
Q 18.109375 38.09375 18.109375 28.8125 
L 18.109375 0 
L 9.078125 0 
L 9.078125 54.6875 
L 18.109375 54.6875 
L 18.109375 46.1875 
Q 20.953125 51.171875 25.484375 53.578125 
Q 30.03125 56 36.53125 56 
Q 37.453125 56 38.578125 55.875 
Q 39.703125 55.765625 41.0625 55.515625 
z
" id="DejaVuSans-114"/>
      <path d="M 45.40625 27.984375 
Q 45.40625 37.75 41.375 43.109375 
Q 37.359375 48.484375 30.078125 48.484375 
Q 22.859375 48.484375 18.828125 43.109375 
Q 14.796875 37.75 14.796875 27.984375 
Q 14.796875 18.265625 18.828125 12.890625 
Q 22.859375 7.515625 30.078125 7.515625 
Q 37.359375 7.515625 41.375 12.890625 
Q 45.40625 18.265625 45.40625 27.984375 
z
M 54.390625 6.78125 
Q 54.390625 -7.171875 48.1875 -13.984375 
Q 42 -20.796875 29.203125 -20.796875 
Q 24.46875 -20.796875 20.265625 -20.09375 
Q 16.0625 -19.390625 12.109375 -17.921875 
L 12.109375 -9.1875 
Q 16.0625 -11.328125 19.921875 -12.34375 
Q 23.78125 -13.375 27.78125 -13.375 
Q 36.625 -13.375 41.015625 -8.765625 
Q 45.40625 -4.15625 45.40625 5.171875 
L 45.40625 9.625 
Q 42.625 4.78125 38.28125 2.390625 
Q 33.9375 0 27.875 0 
Q 17.828125 0 11.671875 7.65625 
Q 5.515625 15.328125 5.515625 27.984375 
Q 5.515625 40.671875 11.671875 48.328125 
Q 17.828125 56 27.875 56 
Q 33.9375 56 38.28125 53.609375 
Q 42.625 51.21875 45.40625 46.390625 
L 45.40625 54.6875 
L 54.390625 54.6875 
z
" id="DejaVuSans-103"/>
     </defs>
     <g transform="translate(465.404743 100.725937)scale(0.14 -0.14)">
      <use xlink:href="#DejaVuSans-102"/>
      <use x="35.205078" xlink:href="#DejaVuSans-105"/>
      <use x="62.988281" xlink:href="#DejaVuSans-102"/>
      <use x="98.177734" xlink:href="#DejaVuSans-116"/>
      <use x="137.386719" xlink:href="#DejaVuSans-104"/>
      <use x="200.765625" xlink:href="#DejaVuSans-95"/>
      <use x="250.765625" xlink:href="#DejaVuSans-114"/>
      <use x="291.878906" xlink:href="#DejaVuSans-105"/>
      <use x="319.662109" xlink:href="#DejaVuSans-103"/>
      <use x="383.138672" xlink:href="#DejaVuSans-104"/>
      <use x="446.517578" xlink:href="#DejaVuSans-116"/>
     </g>
    </g>
   </g>
  </g>
  <g id="axes_2">
   <g id="patch_8">
    <path d="M 43.80318 525.24 
L 546.00318 525.24 
L 546.00318 402.93 
L 43.80318 402.93 
z
" style="fill:none;"/>
   </g>
   <g id="patch_9">
    <path clip-path="url(#p8946e85b39)" d="M 208.659741 519.680455 
L 399.628311 519.680455 
L 399.628311 497.442273 
L 208.659741 497.442273 
z
" style="fill:#ff6384;opacity:0.5;"/>
   </g>
   <g id="patch_10">
    <path clip-path="url(#p8946e85b39)" d="M 165.311514 475.204091 
L 354.933944 475.204091 
L 354.933944 452.965909 
L 165.311514 452.965909 
z
" style="fill:#36a2eb;opacity:0.5;"/>
   </g>
   <g id="patch_11">
    <path clip-path="url(#p8946e85b39)" d="M 231.800661 430.727727 
L 423.443441 430.727727 
L 423.443441 408.489545 
L 231.800661 408.489545 
z
" style="fill:#4bc0c0;opacity:0.5;"/>
   </g>
   <g id="matplotlib.axis_1">
    <g id="xtick_1">
     <g id="line2d_4">
      <defs>
       <path d="M 0 0 
L 0 3.5 
" id="m162eb03bdb" style="stroke:#000000;stroke-width:0.8;"/>
      </defs>
      <g>
       <use style="stroke:#000000;stroke-width:0.8;" x="44.9075" xlink:href="#m162eb03bdb" y="525.24"/>
      </g>
     </g>
     <g id="text_4">
      <!-- 10 -->
      <defs>
       <path d="M 12.40625 8.296875 
L 28.515625 8.296875 
L 28.515625 63.921875 
L 10.984375 60.40625 
L 10.984375 69.390625 
L 28.421875 72.90625 
L 38.28125 72.90625 
L 38.28125 8.296875 
L 54.390625 8.296875 
L 54.390625 0 
L 12.40625 0 
z
" id="DejaVuSans-49"/>
       <path d="M 31.78125 66.40625 
Q 24.171875 66.40625 20.328125 58.90625 
Q 16.5 51.421875 16.5 36.375 
Q 16.5 21.390625 20.328125 13.890625 
Q 24.171875 6.390625 31.78125 6.390625 
Q 39.453125 6.390625 43.28125 13.890625 
Q 47.125 21.390625 47.125 36.375 
Q 47.125 51.421875 43.28125 58.90625 
Q 39.453125 66.40625 31.78125 66.40625 
z
M 31.78125 74.21875 
Q 44.046875 74.21875 50.515625 64.515625 
Q 56.984375 54.828125 56.984375 36.375 
Q 56.984375 17.96875 50.515625 8.265625 
Q 44.046875 -1.421875 31.78125 -1.421875 
Q 19.53125 -1.421875 13.0625 8.265625 
Q 6.59375 17.96875 6.59375 36.375 
Q 6.59375 54.828125 13.0625 64.515625 
Q 19.53125 74.21875 31.78125 74.21875 
z
" id="DejaVuSans-48"/>
      </defs>
      <g transform="translate(36 542.877813)scale(0.14 -0.14)">
       <use xlink:href="#DejaVuSans-49"/>
       <use x="63.623047" xlink:href="#DejaVuSans-48"/>
      </g>
     </g>
    </g>
    <g id="xtick_2">
     <g id="line2d_5">
      <g>
       <use style="stroke:#000000;stroke-width:0.8;" x="142.732604" xlink:href="#m162eb03bdb" y="525.24"/>
      </g>
     </g>
     <g id="text_5">
      <!-- 11 -->
      <g transform="translate(133.825104 542.877813)scale(0.14 -0.14)">
       <use xlink:href="#DejaVuSans-49"/>
       <use x="63.623047" xlink:href="#DejaVuSans-49"/>
      </g>
     </g>
    </g>
    <g id="xtick_3">
     <g id="line2d_6">
      <g>
       <use style="stroke:#000000;stroke-width:0.8;" x="240.557708" xlink:href="#m162eb03bdb" y="525.24"/>
      </g>
     </g>
     <g id="text_6">
      <!-- 12 -->
      <defs>
       <path d="M 19.1875 8.296875 
L 53.609375 8.296875 
L 53.609375 0 
L 7.328125 0 
L 7.328125 8.296875 
Q 12.9375 14.109375 22.625 23.890625 
Q 32.328125 33.6875 34.8125 36.53125 
Q 39.546875 41.84375 41.421875 45.53125 
Q 43.3125 49.21875 43.3125 52.78125 
Q 43.3125 58.59375 39.234375 62.25 
Q 35.15625 65.921875 28.609375 65.921875 
Q 23.96875 65.921875 18.8125 64.3125 
Q 13.671875 62.703125 7.8125 59.421875 
L 7.8125 69.390625 
Q 13.765625 71.78125 18.9375 73 
Q 24.125 74.21875 28.421875 74.21875 
Q 39.75 74.21875 46.484375 68.546875 
Q 53.21875 62.890625 53.21875 53.421875 
Q 53.21875 48.921875 51.53125 44.890625 
Q 49.859375 40.875 45.40625 35.40625 
Q 44.1875 33.984375 37.640625 27.21875 
Q 31.109375 20.453125 19.1875 8.296875 
z
" id="DejaVuSans-50"/>
      </defs>
      <g transform="translate(231.650208 542.877813)scale(0.14 -0.14)">
       <use xlink:href="#DejaVuSans-49"/>
       <use x="63.623047" xlink:href="#DejaVuSans-50"/>
      </g>
     </g>
    </g>
    <g id="xtick_4">
     <g id="line2d_7">
      <g>
       <use style="stroke:#000000;stroke-width:0.8;" x="338.382812" xlink:href="#m162eb03bdb" y="525.24"/>
      </g>
     </g>
     <g id="text_7">
      <!-- 13 -->
      <defs>
       <path d="M 40.578125 39.3125 
Q 47.65625 37.796875 51.625 33 
Q 55.609375 28.21875 55.609375 21.1875 
Q 55.609375 10.40625 48.1875 4.484375 
Q 40.765625 -1.421875 27.09375 -1.421875 
Q 22.515625 -1.421875 17.65625 -0.515625 
Q 12.796875 0.390625 7.625 2.203125 
L 7.625 11.71875 
Q 11.71875 9.328125 16.59375 8.109375 
Q 21.484375 6.890625 26.8125 6.890625 
Q 36.078125 6.890625 40.9375 10.546875 
Q 45.796875 14.203125 45.796875 21.1875 
Q 45.796875 27.640625 41.28125 31.265625 
Q 36.765625 34.90625 28.71875 34.90625 
L 20.21875 34.90625 
L 20.21875 43.015625 
L 29.109375 43.015625 
Q 36.375 43.015625 40.234375 45.921875 
Q 44.09375 48.828125 44.09375 54.296875 
Q 44.09375 59.90625 40.109375 62.90625 
Q 36.140625 65.921875 28.71875 65.921875 
Q 24.65625 65.921875 20.015625 65.03125 
Q 15.375 64.15625 9.8125 62.3125 
L 9.8125 71.09375 
Q 15.4375 72.65625 20.34375 73.4375 
Q 25.25 74.21875 29.59375 74.21875 
Q 40.828125 74.21875 47.359375 69.109375 
Q 53.90625 64.015625 53.90625 55.328125 
Q 53.90625 49.265625 50.4375 45.09375 
Q 46.96875 40.921875 40.578125 39.3125 
z
" id="DejaVuSans-51"/>
      </defs>
      <g transform="translate(329.475312 542.877813)scale(0.14 -0.14)">
       <use xlink:href="#DejaVuSans-49"/>
       <use x="63.623047" xlink:href="#DejaVuSans-51"/>
      </g>
     </g>
    </g>
    <g id="xtick_5">
     <g id="line2d_8">
      <g>
       <use style="stroke:#000000;stroke-width:0.8;" x="436.207917" xlink:href="#m162eb03bdb" y="525.24"/>
      </g>
     </g>
     <g id="text_8">
      <!-- 14 -->
      <defs>
       <path d="M 37.796875 64.3125 
L 12.890625 25.390625 
L 37.796875 25.390625 
z
M 35.203125 72.90625 
L 47.609375 72.90625 
L 47.609375 25.390625 
L 58.015625 25.390625 
L 58.015625 17.1875 
L 47.609375 17.1875 
L 47.609375 0 
L 37.796875 0 
L 37.796875 17.1875 
L 4.890625 17.1875 
L 4.890625 26.703125 
z
" id="DejaVuSans-52"/>
      </defs>
      <g transform="translate(427.300417 542.877813)scale(0.14 -0.14)">
       <use xlink:href="#DejaVuSans-49"/>
       <use x="63.623047" xlink:href="#DejaVuSans-52"/>
      </g>
     </g>
    </g>
    <g id="xtick_6">
     <g id="line2d_9">
      <g>
       <use style="stroke:#000000;stroke-width:0.8;" x="534.033021" xlink:href="#m162eb03bdb" y="525.24"/>
      </g>
     </g>
     <g id="text_9">
      <!-- 15 -->
      <defs>
       <path d="M 10.796875 72.90625 
L 49.515625 72.90625 
L 49.515625 64.59375 
L 19.828125 64.59375 
L 19.828125 46.734375 
Q 21.96875 47.46875 24.109375 47.828125 
Q 26.265625 48.1875 28.421875 48.1875 
Q 40.625 48.1875 47.75 41.5 
Q 54.890625 34.8125 54.890625 23.390625 
Q 54.890625 11.625 47.5625 5.09375 
Q 40.234375 -1.421875 26.90625 -1.421875 
Q 22.3125 -1.421875 17.546875 -0.640625 
Q 12.796875 0.140625 7.71875 1.703125 
L 7.71875 11.625 
Q 12.109375 9.234375 16.796875 8.0625 
Q 21.484375 6.890625 26.703125 6.890625 
Q 35.15625 6.890625 40.078125 11.328125 
Q 45.015625 15.765625 45.015625 23.390625 
Q 45.015625 31 40.078125 35.4375 
Q 35.15625 39.890625 26.703125 39.890625 
Q 22.75 39.890625 18.8125 39.015625 
Q 14.890625 38.140625 10.796875 36.28125 
z
" id="DejaVuSans-53"/>
      </defs>
      <g transform="translate(525.125521 542.877813)scale(0.14 -0.14)">
       <use xlink:href="#DejaVuSans-49"/>
       <use x="63.623047" xlink:href="#DejaVuSans-53"/>
      </g>
     </g>
    </g>
   </g>
   <g id="line2d_10">
    <path clip-path="url(#p8946e85b39)" d="M 304.144026 525.24 
L 304.144026 402.93 
" style="fill:none;stroke:#ff6384;stroke-dasharray:5.55,2.4;stroke-dashoffset:0;stroke-opacity:0.8;stroke-width:1.5;"/>
   </g>
   <g id="line2d_11">
    <path clip-path="url(#p8946e85b39)" d="M 260.122729 525.24 
L 260.122729 402.93 
" style="fill:none;stroke:#36a2eb;stroke-dasharray:5.55,2.4;stroke-dashoffset:0;stroke-opacity:0.8;stroke-width:1.5;"/>
   </g>
   <g id="line2d_12">
    <path clip-path="url(#p8946e85b39)" d="M 327.622051 525.24 
L 327.622051 402.93 
" style="fill:none;stroke:#4bc0c0;stroke-dasharray:5.55,2.4;stroke-dashoffset:0;stroke-opacity:0.8;stroke-width:1.5;"/>
   </g>
   <g id="patch_12">
    <path d="M 43.80318 525.24 
L 546.00318 525.24 
" style="fill:none;stroke:#000000;stroke-linecap:square;stroke-linejoin:miter;stroke-width:0.8;"/>
   </g>
  </g>
 </g>
 <defs>
  <clipPath id="p87157c11ce">
   <rect height="366.93" width="502.2" x="43.80318" y="36"/>
  </clipPath>
  <clipPath id="p8946e85b39">
   <rect height="122.31" width="502.2" x="43.80318" y="402.93"/>
  </clipPath>
 </defs>
</svg>
