<?xml version="1.0" encoding="utf-8" standalone="no"?>
<!DOCTYPE svg PUBLIC "-//W3C//DTD SVG 1.1//EN"
  "http://www.w3.org/Graphics/SVG/1.1/DTD/svg11.dtd">
<!-- Created with matplotlib (https://matplotlib.org/) -->
<svg height="581.789375pt" version="1.1" viewBox="0 0 574.2 581.789375" width="574.2pt" xmlns="http://www.w3.org/2000/svg" xmlns:xlink="http://www.w3.org/1999/xlink">
 <defs>
  <style type="text/css">
*{stroke-linecap:butt;stroke-linejoin:round;}
  </style>
 </defs>
 <g id="figure_1">
  <g id="patch_1">
   <path d="M 0 581.789375 
L 574.2 581.789375 
L 574.2 0 
L 0 0 
z
" style="fill:none;"/>
  </g>
  <g id="axes_1">
   <g id="patch_2">
    <path d="M 36 402.93 
L 538.2 402.93 
L 538.2 36 
L 36 36 
z
" style="fill:none;"/>
   </g>
   <g id="PolyCollection_1">
    <defs>
     <path d="M 58.827273 -195.538011 
L 58.827273 -195.615341 
L 63.438843 -195.6445 
L 68.050413 -195.683701 
L 72.661983 -195.736035 
L 77.273554 -195.805416 
L 81.885124 -195.896756 
L 86.496694 -196.016164 
L 91.108264 -196.171168 
L 95.719835 -196.370962 
L 100.331405 -196.626671 
L 104.942975 -196.951619 
L 109.554545 -197.361612 
L 114.166116 -197.875206 
L 118.777686 -198.513949 
L 123.389256 -199.302595 
L 128.000826 -200.269242 
L 132.612397 -201.445397 
L 137.223967 -202.865931 
L 141.835537 -204.568892 
L 146.447107 -206.595172 
L 151.058678 -208.987978 
L 155.670248 -211.79211 
L 160.281818 -215.053014 
L 164.893388 -218.815625 
L 169.504959 -223.122971 
L 174.116529 -228.014595 
L 178.728099 -233.524785 
L 183.339669 -239.680677 
L 187.95124 -246.500284 
L 192.56281 -253.990512 
L 197.17438 -262.145259 
L 201.78595 -270.943673 
L 206.397521 -280.348684 
L 211.009091 -290.305885 
L 215.620661 -300.742883 
L 220.232231 -311.569173 
L 224.843802 -322.676638 
L 229.455372 -333.940681 
L 234.066942 -345.222053 
L 238.678512 -356.369327 
L 243.290083 -367.222006 
L 247.901653 -377.614172 
L 252.513223 -387.378575 
L 257.124793 -396.351036 
L 261.736364 -404.374987 
L 266.347934 -411.30599 
L 270.959504 -417.016051 
L 275.571074 -421.397546 
L 280.182645 -424.366593 
L 284.794215 -425.86572 
L 289.405785 -425.86572 
L 294.017355 -424.366593 
L 298.628926 -421.397546 
L 303.240496 -417.016051 
L 307.852066 -411.30599 
L 312.463636 -404.374987 
L 317.075207 -396.351036 
L 321.686777 -387.378575 
L 326.298347 -377.614172 
L 330.909917 -367.222006 
L 335.521488 -356.369327 
L 340.133058 -345.222053 
L 344.744628 -333.940681 
L 349.356198 -322.676638 
L 353.967769 -311.569173 
L 358.579339 -300.742883 
L 363.190909 -290.305885 
L 367.802479 -280.348684 
L 372.41405 -270.943673 
L 377.02562 -262.145259 
L 381.63719 -253.990512 
L 386.24876 -246.500284 
L 390.860331 -239.680677 
L 395.471901 -233.524785 
L 400.083471 -228.014595 
L 404.695041 -223.122971 
L 409.306612 -218.815625 
L 413.918182 -215.053014 
L 418.529752 -211.79211 
L 423.141322 -208.987978 
L 427.752893 -206.595172 
L 432.364463 -204.568892 
L 436.976033 -202.865931 
L 441.587603 -201.445397 
L 446.199174 -200.269242 
L 450.810744 -199.302595 
L 455.422314 -198.513949 
L 460.033884 -197.875206 
L 464.645455 -197.361612 
L 469.257025 -196.951619 
L 473.868595 -196.626671 
L 478.480165 -196.370962 
L 483.091736 -196.171168 
L 487.703306 -196.016164 
L 492.314876 -195.896756 
L 496.926446 -195.805416 
L 501.538017 -195.736035 
L 506.149587 -195.683701 
L 510.761157 -195.6445 
L 515.372727 -195.615341 
L 515.372727 -195.538011 
L 515.372727 -195.538011 
L 510.761157 -195.538011 
L 506.149587 -195.538011 
L 501.538017 -195.538011 
L 496.926446 -195.538011 
L 492.314876 -195.538011 
L 487.703306 -195.538011 
L 483.091736 -195.538011 
L 478.480165 -195.538011 
L 473.868595 -195.538011 
L 469.257025 -195.538011 
L 464.645455 -195.538011 
L 460.033884 -195.538011 
L 455.422314 -195.538011 
L 450.810744 -195.538011 
L 446.199174 -195.538011 
L 441.587603 -195.538011 
L 436.976033 -195.538011 
L 432.364463 -195.538011 
L 427.752893 -195.538011 
L 423.141322 -195.538011 
L 418.529752 -195.538011 
L 413.918182 -195.538011 
L 409.306612 -195.538011 
L 404.695041 -195.538011 
L 400.083471 -195.538011 
L 395.471901 -195.538011 
L 390.860331 -195.538011 
L 386.24876 -195.538011 
L 381.63719 -195.538011 
L 377.02562 -195.538011 
L 372.41405 -195.538011 
L 367.802479 -195.538011 
L 363.190909 -195.538011 
L 358.579339 -195.538011 
L 353.967769 -195.538011 
L 349.356198 -195.538011 
L 344.744628 -195.538011 
L 340.133058 -195.538011 
L 335.521488 -195.538011 
L 330.909917 -195.538011 
L 326.298347 -195.538011 
L 321.686777 -195.538011 
L 317.075207 -195.538011 
L 312.463636 -195.538011 
L 307.852066 -195.538011 
L 303.240496 -195.538011 
L 298.628926 -195.538011 
L 294.017355 -195.538011 
L 289.405785 -195.538011 
L 284.794215 -195.538011 
L 280.182645 -195.538011 
L 275.571074 -195.538011 
L 270.959504 -195.538011 
L 266.347934 -195.538011 
L 261.736364 -195.538011 
L 257.124793 -195.538011 
L 252.513223 -195.538011 
L 247.901653 -195.538011 
L 243.290083 -195.538011 
L 238.678512 -195.538011 
L 234.066942 -195.538011 
L 229.455372 -195.538011 
L 224.843802 -195.538011 
L 220.232231 -195.538011 
L 215.620661 -195.538011 
L 211.009091 -195.538011 
L 206.397521 -195.538011 
L 201.78595 -195.538011 
L 197.17438 -195.538011 
L 192.56281 -195.538011 
L 187.95124 -195.538011 
L 183.339669 -195.538011 
L 178.728099 -195.538011 
L 174.116529 -195.538011 
L 169.504959 -195.538011 
L 164.893388 -195.538011 
L 160.281818 -195.538011 
L 155.670248 -195.538011 
L 151.058678 -195.538011 
L 146.447107 -195.538011 
L 141.835537 -195.538011 
L 137.223967 -195.538011 
L 132.612397 -195.538011 
L 128.000826 -195.538011 
L 123.389256 -195.538011 
L 118.777686 -195.538011 
L 114.166116 -195.538011 
L 109.554545 -195.538011 
L 104.942975 -195.538011 
L 100.331405 -195.538011 
L 95.719835 -195.538011 
L 91.108264 -195.538011 
L 86.496694 -195.538011 
L 81.885124 -195.538011 
L 77.273554 -195.538011 
L 72.661983 -195.538011 
L 68.050413 -195.538011 
L 63.438843 -195.538011 
L 58.827273 -195.538011 
z
" id="m24143399fd" style="stroke:#ff6384;stroke-opacity:0.5;"/>
    </defs>
    <g clip-path="url(#pdd6c58fe0c)">
     <use style="fill:#ff6384;fill-opacity:0.5;stroke:#ff6384;stroke-opacity:0.5;" x="0" xlink:href="#m24143399fd" y="581.789375"/>
    </g>
   </g>
   <g id="PolyCollection_2">
    <defs>
     <path d="M 77.539105 -195.538011 
L 77.539105 -195.64542 
L 80.859235 -195.685922 
L 84.179365 -195.74037 
L 87.499495 -195.813061 
L 90.819625 -195.90943 
L 94.139756 -196.036298 
L 97.459886 -196.202152 
L 100.780016 -196.417448 
L 104.100146 -196.694958 
L 107.420276 -197.05013 
L 110.740406 -197.501474 
L 114.060536 -198.070944 
L 117.380666 -198.78431 
L 120.700797 -199.671508 
L 124.020927 -200.766915 
L 127.341057 -202.109561 
L 130.661187 -203.74321 
L 133.981317 -205.716292 
L 137.301447 -208.081659 
L 140.621577 -210.896106 
L 143.941707 -214.219649 
L 147.261838 -218.114511 
L 150.581968 -222.643819 
L 153.902098 -227.869982 
L 157.222228 -233.852769 
L 160.542358 -240.647101 
L 163.862488 -248.300605 
L 167.182618 -256.850971 
L 170.502748 -266.323219 
L 173.822879 -276.726942 
L 177.143009 -288.053662 
L 180.463139 -300.27442 
L 183.783269 -313.337724 
L 187.103399 -327.168005 
L 190.423529 -341.66471 
L 193.743659 -356.702133 
L 197.063789 -372.130098 
L 200.38392 -387.775547 
L 203.70405 -403.445066 
L 207.02418 -418.928326 
L 210.34431 -434.002401 
L 213.66444 -448.436835 
L 216.98457 -461.999326 
L 220.3047 -474.46183 
L 223.62483 -485.606878 
L 226.944961 -495.233852 
L 230.265091 -503.164972 
L 233.585221 -509.250749 
L 236.905351 -513.374674 
L 240.225481 -515.456921 
L 243.545611 -515.456921 
L 246.865741 -513.374674 
L 250.185871 -509.250749 
L 253.506002 -503.164972 
L 256.826132 -495.233852 
L 260.146262 -485.606878 
L 263.466392 -474.46183 
L 266.786522 -461.999326 
L 270.106652 -448.436835 
L 273.426782 -434.002401 
L 276.746912 -418.928326 
L 280.067043 -403.445066 
L 283.387173 -387.775547 
L 286.707303 -372.130098 
L 290.027433 -356.702133 
L 293.347563 -341.66471 
L 296.667693 -327.168005 
L 299.987823 -313.337724 
L 303.307953 -300.27442 
L 306.628084 -288.053662 
L 309.948214 -276.726942 
L 313.268344 -266.323219 
L 316.588474 -256.850971 
L 319.908604 -248.300605 
L 323.228734 -240.647101 
L 326.548864 -233.852769 
L 329.868994 -227.869982 
L 333.189124 -222.643819 
L 336.509255 -218.114511 
L 339.829385 -214.219649 
L 343.149515 -210.896106 
L 346.469645 -208.081659 
L 349.789775 -205.716292 
L 353.109905 -203.74321 
L 356.430035 -202.109561 
L 359.750165 -200.766915 
L 363.070296 -199.671508 
L 366.390426 -198.78431 
L 369.710556 -198.070944 
L 373.030686 -197.501474 
L 376.350816 -197.05013 
L 379.670946 -196.694958 
L 382.991076 -196.417448 
L 386.311206 -196.202152 
L 389.631337 -196.036298 
L 392.951467 -195.90943 
L 396.271597 -195.813061 
L 399.591727 -195.74037 
L 402.911857 -195.685922 
L 406.231987 -195.64542 
L 406.231987 -195.538011 
L 406.231987 -195.538011 
L 402.911857 -195.538011 
L 399.591727 -195.538011 
L 396.271597 -195.538011 
L 392.951467 -195.538011 
L 389.631337 -195.538011 
L 386.311206 -195.538011 
L 382.991076 -195.538011 
L 379.670946 -195.538011 
L 376.350816 -195.538011 
L 373.030686 -195.538011 
L 369.710556 -195.538011 
L 366.390426 -195.538011 
L 363.070296 -195.538011 
L 359.750165 -195.538011 
L 356.430035 -195.538011 
L 353.109905 -195.538011 
L 349.789775 -195.538011 
L 346.469645 -195.538011 
L 343.149515 -195.538011 
L 339.829385 -195.538011 
L 336.509255 -195.538011 
L 333.189124 -195.538011 
L 329.868994 -195.538011 
L 326.548864 -195.538011 
L 323.228734 -195.538011 
L 319.908604 -195.538011 
L 316.588474 -195.538011 
L 313.268344 -195.538011 
L 309.948214 -195.538011 
L 306.628084 -195.538011 
L 303.307953 -195.538011 
L 299.987823 -195.538011 
L 296.667693 -195.538011 
L 293.347563 -195.538011 
L 290.027433 -195.538011 
L 286.707303 -195.538011 
L 283.387173 -195.538011 
L 280.067043 -195.538011 
L 276.746912 -195.538011 
L 273.426782 -195.538011 
L 270.106652 -195.538011 
L 266.786522 -195.538011 
L 263.466392 -195.538011 
L 260.146262 -195.538011 
L 256.826132 -195.538011 
L 253.506002 -195.538011 
L 250.185871 -195.538011 
L 246.865741 -195.538011 
L 243.545611 -195.538011 
L 240.225481 -195.538011 
L 236.905351 -195.538011 
L 233.585221 -195.538011 
L 230.265091 -195.538011 
L 226.944961 -195.538011 
L 223.62483 -195.538011 
L 220.3047 -195.538011 
L 216.98457 -195.538011 
L 213.66444 -195.538011 
L 210.34431 -195.538011 
L 207.02418 -195.538011 
L 203.70405 -195.538011 
L 200.38392 -195.538011 
L 197.063789 -195.538011 
L 193.743659 -195.538011 
L 190.423529 -195.538011 
L 187.103399 -195.538011 
L 183.783269 -195.538011 
L 180.463139 -195.538011 
L 177.143009 -195.538011 
L 173.822879 -195.538011 
L 170.502748 -195.538011 
L 167.182618 -195.538011 
L 163.862488 -195.538011 
L 160.542358 -195.538011 
L 157.222228 -195.538011 
L 153.902098 -195.538011 
L 150.581968 -195.538011 
L 147.261838 -195.538011 
L 143.941707 -195.538011 
L 140.621577 -195.538011 
L 137.301447 -195.538011 
L 133.981317 -195.538011 
L 130.661187 -195.538011 
L 127.341057 -195.538011 
L 124.020927 -195.538011 
L 120.700797 -195.538011 
L 117.380666 -195.538011 
L 114.060536 -195.538011 
L 110.740406 -195.538011 
L 107.420276 -195.538011 
L 104.100146 -195.538011 
L 100.780016 -195.538011 
L 97.459886 -195.538011 
L 94.139756 -195.538011 
L 90.819625 -195.538011 
L 87.499495 -195.538011 
L 84.179365 -195.538011 
L 80.859235 -195.538011 
L 77.539105 -195.538011 
z
" id="me07955f9de" style="stroke:#36a2eb;stroke-opacity:0.5;"/>
    </defs>
    <g clip-path="url(#pdd6c58fe0c)">
     <use style="fill:#36a2eb;fill-opacity:0.5;stroke:#36a2eb;stroke-opacity:0.5;" x="0" xlink:href="#me07955f9de" y="581.789375"/>
    </g>
   </g>
   <g id="PolyCollection_3">
    <defs>
     <path d="M 75.566451 -195.538011 
L 75.566451 -195.650004 
L 78.750681 -195.692234 
L 81.934912 -195.749007 
L 85.119142 -195.8248 
L 88.303372 -195.925281 
L 91.487603 -196.057565 
L 94.671833 -196.230497 
L 97.856063 -196.454982 
L 101.040294 -196.744335 
L 104.224524 -197.114666 
L 107.408755 -197.585273 
L 110.592985 -198.179047 
L 113.777215 -198.922859 
L 116.961446 -199.847921 
L 120.145676 -200.990079 
L 123.329906 -202.390029 
L 126.514137 -204.093399 
L 129.698367 -206.150691 
L 132.882597 -208.617009 
L 136.066828 -211.551575 
L 139.251058 -215.016962 
L 142.435289 -219.078053 
L 145.619519 -223.800667 
L 148.803749 -229.249878 
L 151.98798 -235.488004 
L 155.17221 -242.572312 
L 158.35644 -250.552459 
L 161.540671 -259.467747 
L 164.724901 -269.344261 
L 167.909132 -280.192004 
L 171.093362 -292.002137 
L 174.277592 -304.744465 
L 177.461823 -318.365297 
L 180.646053 -332.785841 
L 183.830283 -347.901251 
L 187.014514 -363.580456 
L 190.198744 -379.666871 
L 193.382975 -395.980052 
L 196.567205 -412.31833 
L 199.751435 -428.4624 
L 202.935666 -444.179822 
L 206.119896 -459.230303 
L 209.304126 -473.371627 
L 212.488357 -486.366018 
L 215.672587 -497.986726 
L 218.856817 -508.02457 
L 222.041048 -516.294181 
L 225.225278 -522.639693 
L 228.409509 -526.939623 
L 231.593739 -529.110739 
L 234.777969 -529.110739 
L 237.9622 -526.939623 
L 241.14643 -522.639693 
L 244.33066 -516.294181 
L 247.514891 -508.02457 
L 250.699121 -497.986726 
L 253.883352 -486.366018 
L 257.067582 -473.371627 
L 260.251812 -459.230303 
L 263.436043 -444.179822 
L 266.620273 -428.4624 
L 269.804503 -412.31833 
L 272.988734 -395.980052 
L 276.172964 -379.666871 
L 279.357195 -363.580456 
L 282.541425 -347.901251 
L 285.725655 -332.785841 
L 288.909886 -318.365297 
L 292.094116 -304.744465 
L 295.278346 -292.002137 
L 298.462577 -280.192004 
L 301.646807 -269.344261 
L 304.831038 -259.467747 
L 308.015268 -250.552459 
L 311.199498 -242.572312 
L 314.383729 -235.488004 
L 317.567959 -229.249878 
L 320.752189 -223.800667 
L 323.93642 -219.078053 
L 327.12065 -215.016962 
L 330.30488 -211.551575 
L 333.489111 -208.617009 
L 336.673341 -206.150691 
L 339.857572 -204.093399 
L 343.041802 -202.390029 
L 346.226032 -200.990079 
L 349.410263 -199.847921 
L 352.594493 -198.922859 
L 355.778723 -198.179047 
L 358.962954 -197.585273 
L 362.147184 -197.114666 
L 365.331415 -196.744335 
L 368.515645 -196.454982 
L 371.699875 -196.230497 
L 374.884106 -196.057565 
L 378.068336 -195.925281 
L 381.252566 -195.8248 
L 384.436797 -195.749007 
L 387.621027 -195.692234 
L 390.805258 -195.650004 
L 390.805258 -195.538011 
L 390.805258 -195.538011 
L 387.621027 -195.538011 
L 384.436797 -195.538011 
L 381.252566 -195.538011 
L 378.068336 -195.538011 
L 374.884106 -195.538011 
L 371.699875 -195.538011 
L 368.515645 -195.538011 
L 365.331415 -195.538011 
L 362.147184 -195.538011 
L 358.962954 -195.538011 
L 355.778723 -195.538011 
L 352.594493 -195.538011 
L 349.410263 -195.538011 
L 346.226032 -195.538011 
L 343.041802 -195.538011 
L 339.857572 -195.538011 
L 336.673341 -195.538011 
L 333.489111 -195.538011 
L 330.30488 -195.538011 
L 327.12065 -195.538011 
L 323.93642 -195.538011 
L 320.752189 -195.538011 
L 317.567959 -195.538011 
L 314.383729 -195.538011 
L 311.199498 -195.538011 
L 308.015268 -195.538011 
L 304.831038 -195.538011 
L 301.646807 -195.538011 
L 298.462577 -195.538011 
L 295.278346 -195.538011 
L 292.094116 -195.538011 
L 288.909886 -195.538011 
L 285.725655 -195.538011 
L 282.541425 -195.538011 
L 279.357195 -195.538011 
L 276.172964 -195.538011 
L 272.988734 -195.538011 
L 269.804503 -195.538011 
L 266.620273 -195.538011 
L 263.436043 -195.538011 
L 260.251812 -195.538011 
L 257.067582 -195.538011 
L 253.883352 -195.538011 
L 250.699121 -195.538011 
L 247.514891 -195.538011 
L 244.33066 -195.538011 
L 241.14643 -195.538011 
L 237.9622 -195.538011 
L 234.777969 -195.538011 
L 231.593739 -195.538011 
L 228.409509 -195.538011 
L 225.225278 -195.538011 
L 222.041048 -195.538011 
L 218.856817 -195.538011 
L 215.672587 -195.538011 
L 212.488357 -195.538011 
L 209.304126 -195.538011 
L 206.119896 -195.538011 
L 202.935666 -195.538011 
L 199.751435 -195.538011 
L 196.567205 -195.538011 
L 193.382975 -195.538011 
L 190.198744 -195.538011 
L 187.014514 -195.538011 
L 183.830283 -195.538011 
L 180.646053 -195.538011 
L 177.461823 -195.538011 
L 174.277592 -195.538011 
L 171.093362 -195.538011 
L 167.909132 -195.538011 
L 164.724901 -195.538011 
L 161.540671 -195.538011 
L 158.35644 -195.538011 
L 155.17221 -195.538011 
L 151.98798 -195.538011 
L 148.803749 -195.538011 
L 145.619519 -195.538011 
L 142.435289 -195.538011 
L 139.251058 -195.538011 
L 136.066828 -195.538011 
L 132.882597 -195.538011 
L 129.698367 -195.538011 
L 126.514137 -195.538011 
L 123.329906 -195.538011 
L 120.145676 -195.538011 
L 116.961446 -195.538011 
L 113.777215 -195.538011 
L 110.592985 -195.538011 
L 107.408755 -195.538011 
L 104.224524 -195.538011 
L 101.040294 -195.538011 
L 97.856063 -195.538011 
L 94.671833 -195.538011 
L 91.487603 -195.538011 
L 88.303372 -195.538011 
L 85.119142 -195.538011 
L 81.934912 -195.538011 
L 78.750681 -195.538011 
L 75.566451 -195.538011 
z
" id="m9e1bf89759" style="stroke:#4bc0c0;stroke-opacity:0.5;"/>
    </defs>
    <g clip-path="url(#pdd6c58fe0c)">
     <use style="fill:#4bc0c0;fill-opacity:0.5;stroke:#4bc0c0;stroke-opacity:0.5;" x="0" xlink:href="#m9e1bf89759" y="581.789375"/>
    </g>
   </g>
   <g id="line2d_1">
    <path clip-path="url(#pdd6c58fe0c)" d="M 58.827273 386.174034 
L 63.438843 386.144875 
L 68.050413 386.105674 
L 72.661983 386.05334 
L 77.273554 385.983959 
L 81.885124 385.892619 
L 86.496694 385.773211 
L 91.108264 385.618207 
L 95.719835 385.418413 
L 100.331405 385.162704 
L 104.942975 384.837756 
L 109.554545 384.427763 
L 114.166116 383.914169 
L 118.777686 383.275426 
L 123.389256 382.48678 
L 128.000826 381.520133 
L 132.612397 380.343978 
L 137.223967 378.923444 
L 141.835537 377.220483 
L 146.447107 375.194203 
L 151.058678 372.801397 
L 155.670248 369.997265 
L 160.281818 366.736361 
L 164.893388 362.97375 
L 169.504959 358.666404 
L 174.116529 353.77478 
L 178.728099 348.26459 
L 183.339669 342.108698 
L 187.95124 335.289091 
L 192.56281 327.798863 
L 197.17438 319.644116 
L 201.78595 310.845702 
L 206.397521 301.440691 
L 211.009091 291.48349 
L 215.620661 281.046492 
L 220.232231 270.220202 
L 224.843802 259.112737 
L 229.455372 247.848694 
L 234.066942 236.567322 
L 238.678512 225.420048 
L 243.290083 214.567369 
L 247.901653 204.175203 
L 252.513223 194.4108 
L 257.124793 185.438339 
L 261.736364 177.414388 
L 266.347934 170.483385 
L 270.959504 164.773324 
L 275.571074 160.391829 
L 280.182645 157.422782 
L 284.794215 155.923655 
L 289.405785 155.923655 
L 294.017355 157.422782 
L 298.628926 160.391829 
L 303.240496 164.773324 
L 307.852066 170.483385 
L 312.463636 177.414388 
L 317.075207 185.438339 
L 321.686777 194.4108 
L 326.298347 204.175203 
L 330.909917 214.567369 
L 335.521488 225.420048 
L 340.133058 236.567322 
L 344.744628 247.848694 
L 349.356198 259.112737 
L 353.967769 270.220202 
L 358.579339 281.046492 
L 363.190909 291.48349 
L 367.802479 301.440691 
L 372.41405 310.845702 
L 377.02562 319.644116 
L 381.63719 327.798863 
L 386.24876 335.289091 
L 390.860331 342.108698 
L 395.471901 348.26459 
L 400.083471 353.77478 
L 404.695041 358.666404 
L 409.306612 362.97375 
L 413.918182 366.736361 
L 418.529752 369.997265 
L 423.141322 372.801397 
L 427.752893 375.194203 
L 432.364463 377.220483 
L 436.976033 378.923444 
L 441.587603 380.343978 
L 446.199174 381.520133 
L 450.810744 382.48678 
L 455.422314 383.275426 
L 460.033884 383.914169 
L 464.645455 384.427763 
L 469.257025 384.837756 
L 473.868595 385.162704 
L 478.480165 385.418413 
L 483.091736 385.618207 
L 487.703306 385.773211 
L 492.314876 385.892619 
L 496.926446 385.983959 
L 501.538017 386.05334 
L 506.149587 386.105674 
L 510.761157 386.144875 
L 515.372727 386.174034 
" style="fill:none;stroke:#ff6384;stroke-linecap:square;"/>
   </g>
   <g id="line2d_2">
    <path clip-path="url(#pdd6c58fe0c)" d="M 77.539105 386.143955 
L 80.859235 386.103453 
L 84.179365 386.049005 
L 87.499495 385.976314 
L 90.819625 385.879945 
L 94.139756 385.753077 
L 97.459886 385.587223 
L 100.780016 385.371927 
L 104.100146 385.094417 
L 107.420276 384.739245 
L 110.740406 384.287901 
L 114.060536 383.718431 
L 117.380666 383.005065 
L 120.700797 382.117867 
L 124.020927 381.02246 
L 127.341057 379.679814 
L 130.661187 378.046165 
L 133.981317 376.073083 
L 137.301447 373.707716 
L 140.621577 370.893269 
L 143.941707 367.569726 
L 147.261838 363.674864 
L 150.581968 359.145556 
L 153.902098 353.919393 
L 157.222228 347.936606 
L 160.542358 341.142274 
L 163.862488 333.48877 
L 167.182618 324.938404 
L 170.502748 315.466156 
L 173.822879 305.062433 
L 177.143009 293.735713 
L 180.463139 281.514955 
L 183.783269 268.451651 
L 187.103399 254.62137 
L 190.423529 240.124665 
L 193.743659 225.087242 
L 197.063789 209.659277 
L 200.38392 194.013828 
L 203.70405 178.344309 
L 207.02418 162.861049 
L 210.34431 147.786974 
L 213.66444 133.35254 
L 216.98457 119.790049 
L 220.3047 107.327545 
L 223.62483 96.182497 
L 226.944961 86.555523 
L 230.265091 78.624403 
L 233.585221 72.538626 
L 236.905351 68.414701 
L 240.225481 66.332454 
L 243.545611 66.332454 
L 246.865741 68.414701 
L 250.185871 72.538626 
L 253.506002 78.624403 
L 256.826132 86.555523 
L 260.146262 96.182497 
L 263.466392 107.327545 
L 266.786522 119.790049 
L 270.106652 133.35254 
L 273.426782 147.786974 
L 276.746912 162.861049 
L 280.067043 178.344309 
L 283.387173 194.013828 
L 286.707303 209.659277 
L 290.027433 225.087242 
L 293.347563 240.124665 
L 296.667693 254.62137 
L 299.987823 268.451651 
L 303.307953 281.514955 
L 306.628084 293.735713 
L 309.948214 305.062433 
L 313.268344 315.466156 
L 316.588474 324.938404 
L 319.908604 333.48877 
L 323.228734 341.142274 
L 326.548864 347.936606 
L 329.868994 353.919393 
L 333.189124 359.145556 
L 336.509255 363.674864 
L 339.829385 367.569726 
L 343.149515 370.893269 
L 346.469645 373.707716 
L 349.789775 376.073083 
L 353.109905 378.046165 
L 356.430035 379.679814 
L 359.750165 381.02246 
L 363.070296 382.117867 
L 366.390426 383.005065 
L 369.710556 383.718431 
L 373.030686 384.287901 
L 376.350816 384.739245 
L 379.670946 385.094417 
L 382.991076 385.371927 
L 386.311206 385.587223 
L 389.631337 385.753077 
L 392.951467 385.879945 
L 396.271597 385.976314 
L 399.591727 386.049005 
L 402.911857 386.103453 
L 406.231987 386.143955 
" style="fill:none;stroke:#36a2eb;stroke-linecap:square;"/>
   </g>
   <g id="line2d_3">
    <path clip-path="url(#pdd6c58fe0c)" d="M 75.566451 386.139371 
L 78.750681 386.097141 
L 81.934912 386.040368 
L 85.119142 385.964575 
L 88.303372 385.864094 
L 91.487603 385.73181 
L 94.671833 385.558878 
L 97.856063 385.334393 
L 101.040294 385.04504 
L 104.224524 384.674709 
L 107.408755 384.204102 
L 110.592985 383.610328 
L 113.777215 382.866516 
L 116.961446 381.941454 
L 120.145676 380.799296 
L 123.329906 379.399346 
L 126.514137 377.695976 
L 129.698367 375.638684 
L 132.882597 373.172366 
L 136.066828 370.2378 
L 139.251058 366.772413 
L 142.435289 362.711322 
L 145.619519 357.988708 
L 148.803749 352.539497 
L 151.98798 346.301371 
L 155.17221 339.217063 
L 158.35644 331.236916 
L 161.540671 322.321628 
L 164.724901 312.445114 
L 167.909132 301.597371 
L 171.093362 289.787238 
L 174.277592 277.04491 
L 177.461823 263.424078 
L 180.646053 249.003534 
L 183.830283 233.888124 
L 187.014514 218.208919 
L 190.198744 202.122504 
L 193.382975 185.809323 
L 196.567205 169.471045 
L 199.751435 153.326975 
L 202.935666 137.609553 
L 206.119896 122.559072 
L 209.304126 108.417748 
L 212.488357 95.423357 
L 215.672587 83.802649 
L 218.856817 73.764805 
L 222.041048 65.495194 
L 225.225278 59.149682 
L 228.409509 54.849752 
L 231.593739 52.678636 
L 234.777969 52.678636 
L 237.9622 54.849752 
L 241.14643 59.149682 
L 244.33066 65.495194 
L 247.514891 73.764805 
L 250.699121 83.802649 
L 253.883352 95.423357 
L 257.067582 108.417748 
L 260.251812 122.559072 
L 263.436043 137.609553 
L 266.620273 153.326975 
L 269.804503 169.471045 
L 272.988734 185.809323 
L 276.172964 202.122504 
L 279.357195 218.208919 
L 282.541425 233.888124 
L 285.725655 249.003534 
L 288.909886 263.424078 
L 292.094116 277.04491 
L 295.278346 289.787238 
L 298.462577 301.597371 
L 301.646807 312.445114 
L 304.831038 322.321628 
L 308.015268 331.236916 
L 311.199498 339.217063 
L 314.383729 346.301371 
L 317.567959 352.539497 
L 320.752189 357.988708 
L 323.93642 362.711322 
L 327.12065 366.772413 
L 330.30488 370.2378 
L 333.489111 373.172366 
L 336.673341 375.638684 
L 339.857572 377.695976 
L 343.041802 379.399346 
L 346.226032 380.799296 
L 349.410263 381.941454 
L 352.594493 382.866516 
L 355.778723 383.610328 
L 358.962954 384.204102 
L 362.147184 384.674709 
L 365.331415 385.04504 
L 368.515645 385.334393 
L 371.699875 385.558878 
L 374.884106 385.73181 
L 378.068336 385.864094 
L 381.252566 385.964575 
L 384.436797 386.040368 
L 387.621027 386.097141 
L 390.805258 386.139371 
" style="fill:none;stroke:#4bc0c0;stroke-linecap:square;"/>
   </g>
   <g id="patch_3">
    <path d="M 36 402.93 
L 538.2 402.93 
" style="fill:none;stroke:#000000;stroke-linecap:square;stroke-linejoin:miter;stroke-width:0.8;"/>
   </g>
   <g id="legend_1">
    <g id="patch_4">
     <path d="M 415.601563 109.626875 
L 528.4 109.626875 
Q 531.2 109.626875 531.2 106.826875 
L 531.2 45.8 
Q 531.2 43 528.4 43 
L 415.601563 43 
Q 412.801563 43 412.801563 45.8 
L 412.801563 106.826875 
Q 412.801563 109.626875 415.601563 109.626875 
z
" style="fill:#ffffff;opacity:0.8;stroke:#cccccc;stroke-linejoin:miter;"/>
    </g>
    <g id="patch_5">
     <path d="M 418.401563 59.237813 
L 446.401563 59.237813 
L 446.401563 49.437813 
L 418.401563 49.437813 
z
" style="fill:#ff6384;opacity:0.5;stroke:#ff6384;stroke-linejoin:miter;"/>
    </g>
    <g id="text_1">
     <!-- base -->
     <defs>
      <path d="M 48.6875 27.296875 
Q 48.6875 37.203125 44.609375 42.84375 
Q 40.53125 48.484375 33.40625 48.484375 
Q 26.265625 48.484375 22.1875 42.84375 
Q 18.109375 37.203125 18.109375 27.296875 
Q 18.109375 17.390625 22.1875 11.75 
Q 26.265625 6.109375 33.40625 6.109375 
Q 40.53125 6.109375 44.609375 11.75 
Q 48.6875 17.390625 48.6875 27.296875 
z
M 18.109375 46.390625 
Q 20.953125 51.265625 25.265625 53.625 
Q 29.59375 56 35.59375 56 
Q 45.5625 56 51.78125 48.09375 
Q 58.015625 40.1875 58.015625 27.296875 
Q 58.015625 14.40625 51.78125 6.484375 
Q 45.5625 -1.421875 35.59375 -1.421875 
Q 29.59375 -1.421875 25.265625 0.953125 
Q 20.953125 3.328125 18.109375 8.203125 
L 18.109375 0 
L 9.078125 0 
L 9.078125 75.984375 
L 18.109375 75.984375 
z
" id="DejaVuSans-98"/>
      <path d="M 34.28125 27.484375 
Q 23.390625 27.484375 19.1875 25 
Q 14.984375 22.515625 14.984375 16.5 
Q 14.984375 11.71875 18.140625 8.90625 
Q 21.296875 6.109375 26.703125 6.109375 
Q 34.1875 6.109375 38.703125 11.40625 
Q 43.21875 16.703125 43.21875 25.484375 
L 43.21875 27.484375 
z
M 52.203125 31.203125 
L 52.203125 0 
L 43.21875 0 
L 43.21875 8.296875 
Q 40.140625 3.328125 35.546875 0.953125 
Q 30.953125 -1.421875 24.3125 -1.421875 
Q 15.921875 -1.421875 10.953125 3.296875 
Q 6 8.015625 6 15.921875 
Q 6 25.140625 12.171875 29.828125 
Q 18.359375 34.515625 30.609375 34.515625 
L 43.21875 34.515625 
L 43.21875 35.40625 
Q 43.21875 41.609375 39.140625 45 
Q 35.0625 48.390625 27.6875 48.390625 
Q 23 48.390625 18.546875 47.265625 
Q 14.109375 46.140625 10.015625 43.890625 
L 10.015625 52.203125 
Q 14.9375 54.109375 19.578125 55.046875 
Q 24.21875 56 28.609375 56 
Q 40.484375 56 46.34375 49.84375 
Q 52.203125 43.703125 52.203125 31.203125 
z
" id="DejaVuSans-97"/>
      <path d="M 44.28125 53.078125 
L 44.28125 44.578125 
Q 40.484375 46.53125 36.375 47.5 
Q 32.28125 48.484375 27.875 48.484375 
Q 21.1875 48.484375 17.84375 46.4375 
Q 14.5 44.390625 14.5 40.28125 
Q 14.5 37.15625 16.890625 35.375 
Q 19.28125 33.59375 26.515625 31.984375 
L 29.59375 31.296875 
Q 39.15625 29.25 43.1875 25.515625 
Q 47.21875 21.78125 47.21875 15.09375 
Q 47.21875 7.46875 41.1875 3.015625 
Q 35.15625 -1.421875 24.609375 -1.421875 
Q 20.21875 -1.421875 15.453125 -0.5625 
Q 10.6875 0.296875 5.421875 2 
L 5.421875 11.28125 
Q 10.40625 8.6875 15.234375 7.390625 
Q 20.0625 6.109375 24.8125 6.109375 
Q 31.15625 6.109375 34.5625 8.28125 
Q 37.984375 10.453125 37.984375 14.40625 
Q 37.984375 18.0625 35.515625 20.015625 
Q 33.0625 21.96875 24.703125 23.78125 
L 21.578125 24.515625 
Q 13.234375 26.265625 9.515625 29.90625 
Q 5.8125 33.546875 5.8125 39.890625 
Q 5.8125 47.609375 11.28125 51.796875 
Q 16.75 56 26.8125 56 
Q 31.78125 56 36.171875 55.265625 
Q 40.578125 54.546875 44.28125 53.078125 
z
" id="DejaVuSans-115"/>
      <path d="M 56.203125 29.59375 
L 56.203125 25.203125 
L 14.890625 25.203125 
Q 15.484375 15.921875 20.484375 11.0625 
Q 25.484375 6.203125 34.421875 6.203125 
Q 39.59375 6.203125 44.453125 7.46875 
Q 49.3125 8.734375 54.109375 11.28125 
L 54.109375 2.78125 
Q 49.265625 0.734375 44.1875 -0.34375 
Q 39.109375 -1.421875 33.890625 -1.421875 
Q 20.796875 -1.421875 13.15625 6.1875 
Q 5.515625 13.8125 5.515625 26.8125 
Q 5.515625 40.234375 12.765625 48.109375 
Q 20.015625 56 32.328125 56 
Q 43.359375 56 49.78125 48.890625 
Q 56.203125 41.796875 56.203125 29.59375 
z
M 47.21875 32.234375 
Q 47.125 39.59375 43.09375 43.984375 
Q 39.0625 48.390625 32.421875 48.390625 
Q 24.90625 48.390625 20.390625 44.140625 
Q 15.875 39.890625 15.1875 32.171875 
z
" id="DejaVuSans-101"/>
     </defs>
     <g transform="translate(457.601563 59.237813)scale(0.14 -0.14)">
      <use xlink:href="#DejaVuSans-98"/>
      <use x="63.476562" xlink:href="#DejaVuSans-97"/>
      <use x="124.755859" xlink:href="#DejaVuSans-115"/>
      <use x="176.855469" xlink:href="#DejaVuSans-101"/>
     </g>
    </g>
    <g id="patch_6">
     <path d="M 418.401563 79.787188 
L 446.401563 79.787188 
L 446.401563 69.987188 
L 418.401563 69.987188 
z
" style="fill:#36a2eb;opacity:0.5;stroke:#36a2eb;stroke-linejoin:miter;"/>
    </g>
    <g id="text_2">
     <!-- fifth_mid -->
     <defs>
      <path d="M 37.109375 75.984375 
L 37.109375 68.5 
L 28.515625 68.5 
Q 23.6875 68.5 21.796875 66.546875 
Q 19.921875 64.59375 19.921875 59.515625 
L 19.921875 54.6875 
L 34.71875 54.6875 
L 34.71875 47.703125 
L 19.921875 47.703125 
L 19.921875 0 
L 10.890625 0 
L 10.890625 47.703125 
L 2.296875 47.703125 
L 2.296875 54.6875 
L 10.890625 54.6875 
L 10.890625 58.5 
Q 10.890625 67.625 15.140625 71.796875 
Q 19.390625 75.984375 28.609375 75.984375 
z
" id="DejaVuSans-102"/>
      <path d="M 9.421875 54.6875 
L 18.40625 54.6875 
L 18.40625 0 
L 9.421875 0 
z
M 9.421875 75.984375 
L 18.40625 75.984375 
L 18.40625 64.59375 
L 9.421875 64.59375 
z
" id="DejaVuSans-105"/>
      <path d="M 18.3125 70.21875 
L 18.3125 54.6875 
L 36.8125 54.6875 
L 36.8125 47.703125 
L 18.3125 47.703125 
L 18.3125 18.015625 
Q 18.3125 11.328125 20.140625 9.421875 
Q 21.96875 7.515625 27.59375 7.515625 
L 36.8125 7.515625 
L 36.8125 0 
L 27.59375 0 
Q 17.1875 0 13.234375 3.875 
Q 9.28125 7.765625 9.28125 18.015625 
L 9.28125 47.703125 
L 2.6875 47.703125 
L 2.6875 54.6875 
L 9.28125 54.6875 
L 9.28125 70.21875 
z
" id="DejaVuSans-116"/>
      <path d="M 54.890625 33.015625 
L 54.890625 0 
L 45.90625 0 
L 45.90625 32.71875 
Q 45.90625 40.484375 42.875 44.328125 
Q 39.84375 48.1875 33.796875 48.1875 
Q 26.515625 48.1875 22.3125 43.546875 
Q 18.109375 38.921875 18.109375 30.90625 
L 18.109375 0 
L 9.078125 0 
L 9.078125 75.984375 
L 18.109375 75.984375 
L 18.109375 46.1875 
Q 21.34375 51.125 25.703125 53.5625 
Q 30.078125 56 35.796875 56 
Q 45.21875 56 50.046875 50.171875 
Q 54.890625 44.34375 54.890625 33.015625 
z
" id="DejaVuSans-104"/>
      <path d="M 50.984375 -16.609375 
L 50.984375 -23.578125 
L -0.984375 -23.578125 
L -0.984375 -16.609375 
z
" id="DejaVuSans-95"/>
      <path d="M 52 44.1875 
Q 55.375 50.25 60.0625 53.125 
Q 64.75 56 71.09375 56 
Q 79.640625 56 84.28125 50.015625 
Q 88.921875 44.046875 88.921875 33.015625 
L 88.921875 0 
L 79.890625 0 
L 79.890625 32.71875 
Q 79.890625 40.578125 77.09375 44.375 
Q 74.3125 48.1875 68.609375 48.1875 
Q 61.625 48.1875 57.5625 43.546875 
Q 53.515625 38.921875 53.515625 30.90625 
L 53.515625 0 
L 44.484375 0 
L 44.484375 32.71875 
Q 44.484375 40.625 41.703125 44.40625 
Q 38.921875 48.1875 33.109375 48.1875 
Q 26.21875 48.1875 22.15625 43.53125 
Q 18.109375 38.875 18.109375 30.90625 
L 18.109375 0 
L 9.078125 0 
L 9.078125 54.6875 
L 18.109375 54.6875 
L 18.109375 46.1875 
Q 21.1875 51.21875 25.484375 53.609375 
Q 29.78125 56 35.6875 56 
Q 41.65625 56 45.828125 52.96875 
Q 50 49.953125 52 44.1875 
z
" id="DejaVuSans-109"/>
      <path d="M 45.40625 46.390625 
L 45.40625 75.984375 
L 54.390625 75.984375 
L 54.390625 0 
L 45.40625 0 
L 45.40625 8.203125 
Q 42.578125 3.328125 38.25 0.953125 
Q 33.9375 -1.421875 27.875 -1.421875 
Q 17.96875 -1.421875 11.734375 6.484375 
Q 5.515625 14.40625 5.515625 27.296875 
Q 5.515625 40.1875 11.734375 48.09375 
Q 17.96875 56 27.875 56 
Q 33.9375 56 38.25 53.625 
Q 42.578125 51.265625 45.40625 46.390625 
z
M 14.796875 27.296875 
Q 14.796875 17.390625 18.875 11.75 
Q 22.953125 6.109375 30.078125 6.109375 
Q 37.203125 6.109375 41.296875 11.75 
Q 45.40625 17.390625 45.40625 27.296875 
Q 45.40625 37.203125 41.296875 42.84375 
Q 37.203125 48.484375 30.078125 48.484375 
Q 22.953125 48.484375 18.875 42.84375 
Q 14.796875 37.203125 14.796875 27.296875 
z
" id="DejaVuSans-100"/>
     </defs>
     <g transform="translate(457.601563 79.787188)scale(0.14 -0.14)">
      <use xlink:href="#DejaVuSans-102"/>
      <use x="35.205078" xlink:href="#DejaVuSans-105"/>
      <use x="62.988281" xlink:href="#DejaVuSans-102"/>
      <use x="98.177734" xlink:href="#DejaVuSans-116"/>
      <use x="137.386719" xlink:href="#DejaVuSans-104"/>
      <use x="200.765625" xlink:href="#DejaVuSans-95"/>
      <use x="250.765625" xlink:href="#DejaVuSans-109"/>
      <use x="348.177734" xlink:href="#DejaVuSans-105"/>
      <use x="375.960938" xlink:href="#DejaVuSans-100"/>
     </g>
    </g>
    <g id="patch_7">
     <path d="M 418.401563 100.725937 
L 446.401563 100.725937 
L 446.401563 90.925937 
L 418.401563 90.925937 
z
" style="fill:#4bc0c0;opacity:0.5;stroke:#4bc0c0;stroke-linejoin:miter;"/>
    </g>
    <g id="text_3">
     <!-- fifth_right -->
     <defs>
      <path d="M 41.109375 46.296875 
Q 39.59375 47.171875 37.8125 47.578125 
Q 36.03125 48 33.890625 48 
Q 26.265625 48 22.1875 43.046875 
Q 18.109375 38.09375 18.109375 28.8125 
L 18.109375 0 
L 9.078125 0 
L 9.078125 54.6875 
L 18.109375 54.6875 
L 18.109375 46.1875 
Q 20.953125 51.171875 25.484375 53.578125 
Q 30.03125 56 36.53125 56 
Q 37.453125 56 38.578125 55.875 
Q 39.703125 55.765625 41.0625 55.515625 
z
" id="DejaVuSans-114"/>
      <path d="M 45.40625 27.984375 
Q 45.40625 37.75 41.375 43.109375 
Q 37.359375 48.484375 30.078125 48.484375 
Q 22.859375 48.484375 18.828125 43.109375 
Q 14.796875 37.75 14.796875 27.984375 
Q 14.796875 18.265625 18.828125 12.890625 
Q 22.859375 7.515625 30.078125 7.515625 
Q 37.359375 7.515625 41.375 12.890625 
Q 45.40625 18.265625 45.40625 27.984375 
z
M 54.390625 6.78125 
Q 54.390625 -7.171875 48.1875 -13.984375 
Q 42 -20.796875 29.203125 -20.796875 
Q 24.46875 -20.796875 20.265625 -20.09375 
Q 16.0625 -19.390625 12.109375 -17.921875 
L 12.109375 -9.1875 
Q 16.0625 -11.328125 19.921875 -12.34375 
Q 23.78125 -13.375 27.78125 -13.375 
Q 36.625 -13.375 41.015625 -8.765625 
Q 45.40625 -4.15625 45.40625 5.171875 
L 45.40625 9.625 
Q 42.625 4.78125 38.28125 2.390625 
Q 33.9375 0 27.875 0 
Q 17.828125 0 11.671875 7.65625 
Q 5.515625 15.328125 5.515625 27.984375 
Q 5.515625 40.671875 11.671875 48.328125 
Q 17.828125 56 27.875 56 
Q 33.9375 56 38.28125 53.609375 
Q 42.625 51.21875 45.40625 46.390625 
L 45.40625 54.6875 
L 54.390625 54.6875 
z
" id="DejaVuSans-103"/>
     </defs>
     <g transform="translate(457.601563 100.725937)scale(0.14 -0.14)">
      <use xlink:href="#DejaVuSans-102"/>
      <use x="35.205078" xlink:href="#DejaVuSans-105"/>
      <use x="62.988281" xlink:href="#DejaVuSans-102"/>
      <use x="98.177734" xlink:href="#DejaVuSans-116"/>
      <use x="137.386719" xlink:href="#DejaVuSans-104"/>
      <use x="200.765625" xlink:href="#DejaVuSans-95"/>
      <use x="250.765625" xlink:href="#DejaVuSans-114"/>
      <use x="291.878906" xlink:href="#DejaVuSans-105"/>
      <use x="319.662109" xlink:href="#DejaVuSans-103"/>
      <use x="383.138672" xlink:href="#DejaVuSans-104"/>
      <use x="446.517578" xlink:href="#DejaVuSans-116"/>
     </g>
    </g>
   </g>
  </g>
  <g id="axes_2">
   <g id="patch_8">
    <path d="M 36 525.24 
L 538.2 525.24 
L 538.2 402.93 
L 36 402.93 
z
" style="fill:none;"/>
   </g>
   <g id="patch_9">
    <path clip-path="url(#p64bb5a3453)" d="M 175.246364 519.680455 
L 398.953636 519.680455 
L 398.953636 497.442273 
L 175.246364 497.442273 
z
" style="fill:#ff6384;opacity:0.5;"/>
   </g>
   <g id="patch_10">
    <path clip-path="url(#p64bb5a3453)" d="M 161.35579 475.204091 
L 322.415302 475.204091 
L 322.415302 452.965909 
L 161.35579 452.965909 
z
" style="fill:#36a2eb;opacity:0.5;"/>
   </g>
   <g id="patch_11">
    <path clip-path="url(#p64bb5a3453)" d="M 155.952347 430.727727 
L 310.419362 430.727727 
L 310.419362 408.489545 
L 155.952347 408.489545 
z
" style="fill:#4bc0c0;opacity:0.5;"/>
   </g>
   <g id="matplotlib.axis_1">
    <g id="xtick_1">
     <g id="line2d_4">
      <defs>
       <path d="M 0 0 
L 0 3.5 
" id="m8eddd1ee0c" style="stroke:#000000;stroke-width:0.8;"/>
      </defs>
      <g>
       <use style="stroke:#000000;stroke-width:0.8;" x="99.597695" xlink:href="#m8eddd1ee0c" y="525.24"/>
      </g>
     </g>
     <g id="text_4">
      <!-- 5.0 -->
      <defs>
       <path d="M 10.796875 72.90625 
L 49.515625 72.90625 
L 49.515625 64.59375 
L 19.828125 64.59375 
L 19.828125 46.734375 
Q 21.96875 47.46875 24.109375 47.828125 
Q 26.265625 48.1875 28.421875 48.1875 
Q 40.625 48.1875 47.75 41.5 
Q 54.890625 34.8125 54.890625 23.390625 
Q 54.890625 11.625 47.5625 5.09375 
Q 40.234375 -1.421875 26.90625 -1.421875 
Q 22.3125 -1.421875 17.546875 -0.640625 
Q 12.796875 0.140625 7.71875 1.703125 
L 7.71875 11.625 
Q 12.109375 9.234375 16.796875 8.0625 
Q 21.484375 6.890625 26.703125 6.890625 
Q 35.15625 6.890625 40.078125 11.328125 
Q 45.015625 15.765625 45.015625 23.390625 
Q 45.015625 31 40.078125 35.4375 
Q 35.15625 39.890625 26.703125 39.890625 
Q 22.75 39.890625 18.8125 39.015625 
Q 14.890625 38.140625 10.796875 36.28125 
z
" id="DejaVuSans-53"/>
       <path d="M 10.6875 12.40625 
L 21 12.40625 
L 21 0 
L 10.6875 0 
z
" id="DejaVuSans-46"/>
       <path d="M 31.78125 66.40625 
Q 24.171875 66.40625 20.328125 58.90625 
Q 16.5 51.421875 16.5 36.375 
Q 16.5 21.390625 20.328125 13.890625 
Q 24.171875 6.390625 31.78125 6.390625 
Q 39.453125 6.390625 43.28125 13.890625 
Q 47.125 21.390625 47.125 36.375 
Q 47.125 51.421875 43.28125 58.90625 
Q 39.453125 66.40625 31.78125 66.40625 
z
M 31.78125 74.21875 
Q 44.046875 74.21875 50.515625 64.515625 
Q 56.984375 54.828125 56.984375 36.375 
Q 56.984375 17.96875 50.515625 8.265625 
Q 44.046875 -1.421875 31.78125 -1.421875 
Q 19.53125 -1.421875 13.0625 8.265625 
Q 6.59375 17.96875 6.59375 36.375 
Q 6.59375 54.828125 13.0625 64.515625 
Q 19.53125 74.21875 31.78125 74.21875 
z
" id="DejaVuSans-48"/>
      </defs>
      <g transform="translate(88.465507 542.877813)scale(0.14 -0.14)">
       <use xlink:href="#DejaVuSans-53"/>
       <use x="63.623047" xlink:href="#DejaVuSans-46"/>
       <use x="95.410156" xlink:href="#DejaVuSans-48"/>
      </g>
     </g>
    </g>
    <g id="xtick_2">
     <g id="line2d_5">
      <g>
       <use style="stroke:#000000;stroke-width:0.8;" x="199.364804" xlink:href="#m8eddd1ee0c" y="525.24"/>
      </g>
     </g>
     <g id="text_5">
      <!-- 5.5 -->
      <g transform="translate(188.232617 542.877813)scale(0.14 -0.14)">
       <use xlink:href="#DejaVuSans-53"/>
       <use x="63.623047" xlink:href="#DejaVuSans-46"/>
       <use x="95.410156" xlink:href="#DejaVuSans-53"/>
      </g>
     </g>
    </g>
    <g id="xtick_3">
     <g id="line2d_6">
      <g>
       <use style="stroke:#000000;stroke-width:0.8;" x="299.131913" xlink:href="#m8eddd1ee0c" y="525.24"/>
      </g>
     </g>
     <g id="text_6">
      <!-- 6.0 -->
      <defs>
       <path d="M 33.015625 40.375 
Q 26.375 40.375 22.484375 35.828125 
Q 18.609375 31.296875 18.609375 23.390625 
Q 18.609375 15.53125 22.484375 10.953125 
Q 26.375 6.390625 33.015625 6.390625 
Q 39.65625 6.390625 43.53125 10.953125 
Q 47.40625 15.53125 47.40625 23.390625 
Q 47.40625 31.296875 43.53125 35.828125 
Q 39.65625 40.375 33.015625 40.375 
z
M 52.59375 71.296875 
L 52.59375 62.3125 
Q 48.875 64.0625 45.09375 64.984375 
Q 41.3125 65.921875 37.59375 65.921875 
Q 27.828125 65.921875 22.671875 59.328125 
Q 17.53125 52.734375 16.796875 39.40625 
Q 19.671875 43.65625 24.015625 45.921875 
Q 28.375 48.1875 33.59375 48.1875 
Q 44.578125 48.1875 50.953125 41.515625 
Q 57.328125 34.859375 57.328125 23.390625 
Q 57.328125 12.15625 50.6875 5.359375 
Q 44.046875 -1.421875 33.015625 -1.421875 
Q 20.359375 -1.421875 13.671875 8.265625 
Q 6.984375 17.96875 6.984375 36.375 
Q 6.984375 53.65625 15.1875 63.9375 
Q 23.390625 74.21875 37.203125 74.21875 
Q 40.921875 74.21875 44.703125 73.484375 
Q 48.484375 72.75 52.59375 71.296875 
z
" id="DejaVuSans-54"/>
      </defs>
      <g transform="translate(287.999726 542.877813)scale(0.14 -0.14)">
       <use xlink:href="#DejaVuSans-54"/>
       <use x="63.623047" xlink:href="#DejaVuSans-46"/>
       <use x="95.410156" xlink:href="#DejaVuSans-48"/>
      </g>
     </g>
    </g>
    <g id="xtick_4">
     <g id="line2d_7">
      <g>
       <use style="stroke:#000000;stroke-width:0.8;" x="398.899023" xlink:href="#m8eddd1ee0c" y="525.24"/>
      </g>
     </g>
     <g id="text_7">
      <!-- 6.5 -->
      <g transform="translate(387.766835 542.877813)scale(0.14 -0.14)">
       <use xlink:href="#DejaVuSans-54"/>
       <use x="63.623047" xlink:href="#DejaVuSans-46"/>
       <use x="95.410156" xlink:href="#DejaVuSans-53"/>
      </g>
     </g>
    </g>
    <g id="xtick_5">
     <g id="line2d_8">
      <g>
       <use style="stroke:#000000;stroke-width:0.8;" x="498.666132" xlink:href="#m8eddd1ee0c" y="525.24"/>
      </g>
     </g>
     <g id="text_8">
      <!-- 7.0 -->
      <defs>
       <path d="M 8.203125 72.90625 
L 55.078125 72.90625 
L 55.078125 68.703125 
L 28.609375 0 
L 18.3125 0 
L 43.21875 64.59375 
L 8.203125 64.59375 
z
" id="DejaVuSans-55"/>
      </defs>
      <g transform="translate(487.533944 542.877813)scale(0.14 -0.14)">
       <use xlink:href="#DejaVuSans-55"/>
       <use x="63.623047" xlink:href="#DejaVuSans-46"/>
       <use x="95.410156" xlink:href="#DejaVuSans-48"/>
      </g>
     </g>
    </g>
   </g>
   <g id="line2d_9">
    <path clip-path="url(#p64bb5a3453)" d="M 287.1 525.24 
L 287.1 402.93 
" style="fill:none;stroke:#ff6384;stroke-dasharray:5.55,2.4;stroke-dashoffset:0;stroke-opacity:0.8;stroke-width:1.5;"/>
   </g>
   <g id="line2d_10">
    <path clip-path="url(#p64bb5a3453)" d="M 241.885546 525.24 
L 241.885546 402.93 
" style="fill:none;stroke:#36a2eb;stroke-dasharray:5.55,2.4;stroke-dashoffset:0;stroke-opacity:0.8;stroke-width:1.5;"/>
   </g>
   <g id="line2d_11">
    <path clip-path="url(#p64bb5a3453)" d="M 233.185854 525.24 
L 233.185854 402.93 
" style="fill:none;stroke:#4bc0c0;stroke-dasharray:5.55,2.4;stroke-dashoffset:0;stroke-opacity:0.8;stroke-width:1.5;"/>
   </g>
   <g id="patch_12">
    <path d="M 36 525.24 
L 538.2 525.24 
" style="fill:none;stroke:#000000;stroke-linecap:square;stroke-linejoin:miter;stroke-width:0.8;"/>
   </g>
  </g>
 </g>
 <defs>
  <clipPath id="pdd6c58fe0c">
   <rect height="366.93" width="502.2" x="36" y="36"/>
  </clipPath>
  <clipPath id="p64bb5a3453">
   <rect height="122.31" width="502.2" x="36" y="402.93"/>
  </clipPath>
 </defs>
</svg>
