<?xml version="1.0" encoding="utf-8" standalone="no"?>
<!DOCTYPE svg PUBLIC "-//W3C//DTD SVG 1.1//EN"
  "http://www.w3.org/Graphics/SVG/1.1/DTD/svg11.dtd">
<!-- Created with matplotlib (https://matplotlib.org/) -->
<svg height="581.789375pt" version="1.1" viewBox="0 0 574.2 581.789375" width="574.2pt" xmlns="http://www.w3.org/2000/svg" xmlns:xlink="http://www.w3.org/1999/xlink">
 <defs>
  <style type="text/css">
*{stroke-linecap:butt;stroke-linejoin:round;}
  </style>
 </defs>
 <g id="figure_1">
  <g id="patch_1">
   <path d="M 0 581.789375 
L 574.2 581.789375 
L 574.2 0 
L 0 0 
z
" style="fill:none;"/>
  </g>
  <g id="axes_1">
   <g id="patch_2">
    <path d="M 36 402.93 
L 538.2 402.93 
L 538.2 36 
L 36 36 
z
" style="fill:none;"/>
   </g>
   <g id="PolyCollection_1">
    <defs>
     <path d="M 58.827273 -195.538011 
L 58.827273 -195.650004 
L 63.13603 -195.692234 
L 67.444787 -195.749007 
L 71.753544 -195.8248 
L 76.062301 -195.925281 
L 80.371059 -196.057565 
L 84.679816 -196.230497 
L 88.988573 -196.454982 
L 93.29733 -196.744335 
L 97.606087 -197.114666 
L 101.914845 -197.585273 
L 106.223602 -198.179047 
L 110.532359 -198.922859 
L 114.841116 -199.847921 
L 119.149873 -200.990079 
L 123.458631 -202.390029 
L 127.767388 -204.093399 
L 132.076145 -206.150691 
L 136.384902 -208.617009 
L 140.693659 -211.551575 
L 145.002417 -215.016962 
L 149.311174 -219.078053 
L 153.619931 -223.800667 
L 157.928688 -229.249878 
L 162.237445 -235.488004 
L 166.546203 -242.572312 
L 170.85496 -250.552459 
L 175.163717 -259.467747 
L 179.472474 -269.344261 
L 183.781231 -280.192004 
L 188.089989 -292.002137 
L 192.398746 -304.744465 
L 196.707503 -318.365297 
L 201.01626 -332.785841 
L 205.325017 -347.901251 
L 209.633774 -363.580456 
L 213.942532 -379.666871 
L 218.251289 -395.980052 
L 222.560046 -412.31833 
L 226.868803 -428.4624 
L 231.17756 -444.179822 
L 235.486318 -459.230303 
L 239.795075 -473.371627 
L 244.103832 -486.366018 
L 248.412589 -497.986726 
L 252.721346 -508.02457 
L 257.030104 -516.294181 
L 261.338861 -522.639693 
L 265.647618 -526.939623 
L 269.956375 -529.110739 
L 274.265132 -529.110739 
L 278.57389 -526.939623 
L 282.882647 -522.639693 
L 287.191404 -516.294181 
L 291.500161 -508.02457 
L 295.808918 -497.986726 
L 300.117676 -486.366018 
L 304.426433 -473.371627 
L 308.73519 -459.230303 
L 313.043947 -444.179822 
L 317.352704 -428.4624 
L 321.661461 -412.31833 
L 325.970219 -395.980052 
L 330.278976 -379.666871 
L 334.587733 -363.580456 
L 338.89649 -347.901251 
L 343.205247 -332.785841 
L 347.514005 -318.365297 
L 351.822762 -304.744465 
L 356.131519 -292.002137 
L 360.440276 -280.192004 
L 364.749033 -269.344261 
L 369.057791 -259.467747 
L 373.366548 -250.552459 
L 377.675305 -242.572312 
L 381.984062 -235.488004 
L 386.292819 -229.249878 
L 390.601577 -223.800667 
L 394.910334 -219.078053 
L 399.219091 -215.016962 
L 403.527848 -211.551575 
L 407.836605 -208.617009 
L 412.145363 -206.150691 
L 416.45412 -204.093399 
L 420.762877 -202.390029 
L 425.071634 -200.990079 
L 429.380391 -199.847921 
L 433.689148 -198.922859 
L 437.997906 -198.179047 
L 442.306663 -197.585273 
L 446.61542 -197.114666 
L 450.924177 -196.744335 
L 455.232934 -196.454982 
L 459.541692 -196.230497 
L 463.850449 -196.057565 
L 468.159206 -195.925281 
L 472.467963 -195.8248 
L 476.77672 -195.749007 
L 481.085478 -195.692234 
L 485.394235 -195.650004 
L 485.394235 -195.538011 
L 485.394235 -195.538011 
L 481.085478 -195.538011 
L 476.77672 -195.538011 
L 472.467963 -195.538011 
L 468.159206 -195.538011 
L 463.850449 -195.538011 
L 459.541692 -195.538011 
L 455.232934 -195.538011 
L 450.924177 -195.538011 
L 446.61542 -195.538011 
L 442.306663 -195.538011 
L 437.997906 -195.538011 
L 433.689148 -195.538011 
L 429.380391 -195.538011 
L 425.071634 -195.538011 
L 420.762877 -195.538011 
L 416.45412 -195.538011 
L 412.145363 -195.538011 
L 407.836605 -195.538011 
L 403.527848 -195.538011 
L 399.219091 -195.538011 
L 394.910334 -195.538011 
L 390.601577 -195.538011 
L 386.292819 -195.538011 
L 381.984062 -195.538011 
L 377.675305 -195.538011 
L 373.366548 -195.538011 
L 369.057791 -195.538011 
L 364.749033 -195.538011 
L 360.440276 -195.538011 
L 356.131519 -195.538011 
L 351.822762 -195.538011 
L 347.514005 -195.538011 
L 343.205247 -195.538011 
L 338.89649 -195.538011 
L 334.587733 -195.538011 
L 330.278976 -195.538011 
L 325.970219 -195.538011 
L 321.661461 -195.538011 
L 317.352704 -195.538011 
L 313.043947 -195.538011 
L 308.73519 -195.538011 
L 304.426433 -195.538011 
L 300.117676 -195.538011 
L 295.808918 -195.538011 
L 291.500161 -195.538011 
L 287.191404 -195.538011 
L 282.882647 -195.538011 
L 278.57389 -195.538011 
L 274.265132 -195.538011 
L 269.956375 -195.538011 
L 265.647618 -195.538011 
L 261.338861 -195.538011 
L 257.030104 -195.538011 
L 252.721346 -195.538011 
L 248.412589 -195.538011 
L 244.103832 -195.538011 
L 239.795075 -195.538011 
L 235.486318 -195.538011 
L 231.17756 -195.538011 
L 226.868803 -195.538011 
L 222.560046 -195.538011 
L 218.251289 -195.538011 
L 213.942532 -195.538011 
L 209.633774 -195.538011 
L 205.325017 -195.538011 
L 201.01626 -195.538011 
L 196.707503 -195.538011 
L 192.398746 -195.538011 
L 188.089989 -195.538011 
L 183.781231 -195.538011 
L 179.472474 -195.538011 
L 175.163717 -195.538011 
L 170.85496 -195.538011 
L 166.546203 -195.538011 
L 162.237445 -195.538011 
L 157.928688 -195.538011 
L 153.619931 -195.538011 
L 149.311174 -195.538011 
L 145.002417 -195.538011 
L 140.693659 -195.538011 
L 136.384902 -195.538011 
L 132.076145 -195.538011 
L 127.767388 -195.538011 
L 123.458631 -195.538011 
L 119.149873 -195.538011 
L 114.841116 -195.538011 
L 110.532359 -195.538011 
L 106.223602 -195.538011 
L 101.914845 -195.538011 
L 97.606087 -195.538011 
L 93.29733 -195.538011 
L 88.988573 -195.538011 
L 84.679816 -195.538011 
L 80.371059 -195.538011 
L 76.062301 -195.538011 
L 71.753544 -195.538011 
L 67.444787 -195.538011 
L 63.13603 -195.538011 
L 58.827273 -195.538011 
z
" id="m67d94bdf76" style="stroke:#ff6384;stroke-opacity:0.5;"/>
    </defs>
    <g clip-path="url(#p88c96b1082)">
     <use style="fill:#ff6384;fill-opacity:0.5;stroke:#ff6384;stroke-opacity:0.5;" x="0" xlink:href="#m67d94bdf76" y="581.789375"/>
    </g>
   </g>
   <g id="PolyCollection_2">
    <defs>
     <path d="M 66.022038 -195.538011 
L 66.022038 -195.649716 
L 70.341908 -195.691838 
L 74.661778 -195.748464 
L 78.981649 -195.824062 
L 83.301519 -195.924285 
L 87.621389 -196.056228 
L 91.941259 -196.228715 
L 96.261129 -196.452623 
L 100.581 -196.741232 
L 104.90087 -197.11061 
L 109.22074 -197.580006 
L 113.54061 -198.172252 
L 117.86048 -198.914151 
L 122.180351 -199.836834 
L 126.500221 -200.976054 
L 130.820091 -202.372402 
L 135.139961 -204.07139 
L 139.459832 -206.123389 
L 143.779702 -208.583363 
L 148.099572 -211.510379 
L 152.419442 -214.966852 
L 156.739312 -219.017495 
L 161.059183 -223.727961 
L 165.379053 -229.163153 
L 169.698923 -235.385231 
L 174.018793 -242.451315 
L 178.338663 -250.410933 
L 182.658534 -259.303285 
L 186.978404 -269.154392 
L 191.298274 -279.974228 
L 195.618144 -291.75398 
L 199.938014 -304.463528 
L 204.257885 -318.04932 
L 208.577755 -332.432767 
L 212.897625 -347.509291 
L 217.217495 -363.148161 
L 221.537365 -379.193193 
L 225.857236 -395.464408 
L 230.177106 -411.760655 
L 234.496976 -427.863194 
L 238.816846 -443.540182 
L 243.136716 -458.551946 
L 247.456587 -472.65689 
L 251.776457 -485.617853 
L 256.096327 -497.208667 
L 260.416197 -507.220688 
L 264.736067 -515.469025 
L 269.055938 -521.798213 
L 273.375808 -526.087081 
L 277.695678 -528.252612 
L 282.015548 -528.252612 
L 286.335418 -526.087081 
L 290.655289 -521.798213 
L 294.975159 -515.469025 
L 299.295029 -507.220688 
L 303.614899 -497.208667 
L 307.934769 -485.617853 
L 312.25464 -472.65689 
L 316.57451 -458.551946 
L 320.89438 -443.540182 
L 325.21425 -427.863194 
L 329.53412 -411.760655 
L 333.853991 -395.464408 
L 338.173861 -379.193193 
L 342.493731 -363.148161 
L 346.813601 -347.509291 
L 351.133471 -332.432767 
L 355.453342 -318.04932 
L 359.773212 -304.463528 
L 364.093082 -291.75398 
L 368.412952 -279.974228 
L 372.732822 -269.154392 
L 377.052693 -259.303285 
L 381.372563 -250.410933 
L 385.692433 -242.451315 
L 390.012303 -235.385231 
L 394.332173 -229.163153 
L 398.652044 -223.727961 
L 402.971914 -219.017495 
L 407.291784 -214.966852 
L 411.611654 -211.510379 
L 415.931524 -208.583363 
L 420.251395 -206.123389 
L 424.571265 -204.07139 
L 428.891135 -202.372402 
L 433.211005 -200.976054 
L 437.530876 -199.836834 
L 441.850746 -198.914151 
L 446.170616 -198.172252 
L 450.490486 -197.580006 
L 454.810356 -197.11061 
L 459.130227 -196.741232 
L 463.450097 -196.452623 
L 467.769967 -196.228715 
L 472.089837 -196.056228 
L 476.409707 -195.924285 
L 480.729578 -195.824062 
L 485.049448 -195.748464 
L 489.369318 -195.691838 
L 493.689188 -195.649716 
L 493.689188 -195.538011 
L 493.689188 -195.538011 
L 489.369318 -195.538011 
L 485.049448 -195.538011 
L 480.729578 -195.538011 
L 476.409707 -195.538011 
L 472.089837 -195.538011 
L 467.769967 -195.538011 
L 463.450097 -195.538011 
L 459.130227 -195.538011 
L 454.810356 -195.538011 
L 450.490486 -195.538011 
L 446.170616 -195.538011 
L 441.850746 -195.538011 
L 437.530876 -195.538011 
L 433.211005 -195.538011 
L 428.891135 -195.538011 
L 424.571265 -195.538011 
L 420.251395 -195.538011 
L 415.931524 -195.538011 
L 411.611654 -195.538011 
L 407.291784 -195.538011 
L 402.971914 -195.538011 
L 398.652044 -195.538011 
L 394.332173 -195.538011 
L 390.012303 -195.538011 
L 385.692433 -195.538011 
L 381.372563 -195.538011 
L 377.052693 -195.538011 
L 372.732822 -195.538011 
L 368.412952 -195.538011 
L 364.093082 -195.538011 
L 359.773212 -195.538011 
L 355.453342 -195.538011 
L 351.133471 -195.538011 
L 346.813601 -195.538011 
L 342.493731 -195.538011 
L 338.173861 -195.538011 
L 333.853991 -195.538011 
L 329.53412 -195.538011 
L 325.21425 -195.538011 
L 320.89438 -195.538011 
L 316.57451 -195.538011 
L 312.25464 -195.538011 
L 307.934769 -195.538011 
L 303.614899 -195.538011 
L 299.295029 -195.538011 
L 294.975159 -195.538011 
L 290.655289 -195.538011 
L 286.335418 -195.538011 
L 282.015548 -195.538011 
L 277.695678 -195.538011 
L 273.375808 -195.538011 
L 269.055938 -195.538011 
L 264.736067 -195.538011 
L 260.416197 -195.538011 
L 256.096327 -195.538011 
L 251.776457 -195.538011 
L 247.456587 -195.538011 
L 243.136716 -195.538011 
L 238.816846 -195.538011 
L 234.496976 -195.538011 
L 230.177106 -195.538011 
L 225.857236 -195.538011 
L 221.537365 -195.538011 
L 217.217495 -195.538011 
L 212.897625 -195.538011 
L 208.577755 -195.538011 
L 204.257885 -195.538011 
L 199.938014 -195.538011 
L 195.618144 -195.538011 
L 191.298274 -195.538011 
L 186.978404 -195.538011 
L 182.658534 -195.538011 
L 178.338663 -195.538011 
L 174.018793 -195.538011 
L 169.698923 -195.538011 
L 165.379053 -195.538011 
L 161.059183 -195.538011 
L 156.739312 -195.538011 
L 152.419442 -195.538011 
L 148.099572 -195.538011 
L 143.779702 -195.538011 
L 139.459832 -195.538011 
L 135.139961 -195.538011 
L 130.820091 -195.538011 
L 126.500221 -195.538011 
L 122.180351 -195.538011 
L 117.86048 -195.538011 
L 113.54061 -195.538011 
L 109.22074 -195.538011 
L 104.90087 -195.538011 
L 100.581 -195.538011 
L 96.261129 -195.538011 
L 91.941259 -195.538011 
L 87.621389 -195.538011 
L 83.301519 -195.538011 
L 78.981649 -195.538011 
L 74.661778 -195.538011 
L 70.341908 -195.538011 
L 66.022038 -195.538011 
z
" id="m47df388479" style="stroke:#36a2eb;stroke-opacity:0.5;"/>
    </defs>
    <g clip-path="url(#p88c96b1082)">
     <use style="fill:#36a2eb;fill-opacity:0.5;stroke:#36a2eb;stroke-opacity:0.5;" x="0" xlink:href="#m47df388479" y="581.789375"/>
    </g>
   </g>
   <g id="PolyCollection_3">
    <defs>
     <path d="M 85.644415 -195.538011 
L 85.644415 -195.64918 
L 89.985105 -195.6911 
L 94.325795 -195.747455 
L 98.666485 -195.82269 
L 103.007175 -195.922432 
L 107.347866 -196.053743 
L 111.688556 -196.225403 
L 116.029246 -196.448236 
L 120.369936 -196.735461 
L 124.710626 -197.103067 
L 129.051316 -197.570212 
L 133.392006 -198.159618 
L 137.732696 -198.897958 
L 142.073386 -199.816215 
L 146.414076 -200.949971 
L 150.754766 -202.339621 
L 155.095456 -204.030461 
L 159.436146 -206.072617 
L 163.776836 -208.520792 
L 168.117526 -211.433769 
L 172.458216 -214.873663 
L 176.798906 -218.904878 
L 181.139596 -223.59275 
L 185.480286 -229.001872 
L 189.820976 -235.194107 
L 194.161666 -242.226298 
L 198.502356 -250.147739 
L 202.843046 -258.99744 
L 207.183736 -268.801296 
L 211.524426 -279.569236 
L 215.865116 -291.292487 
L 220.205806 -303.941074 
L 224.546496 -317.461703 
L 228.887186 -331.77616 
L 233.227876 -346.780372 
L 237.568566 -362.344231 
L 241.909256 -378.312304 
L 246.249946 -394.505475 
L 250.590636 -410.723558 
L 254.931326 -426.748863 
L 259.272016 -442.350657 
L 263.612706 -457.290418 
L 267.953396 -471.327709 
L 272.294086 -484.226506 
L 276.634776 -495.761725 
L 280.975466 -505.725724 
L 285.316156 -513.934498 
L 289.656846 -520.233329 
L 293.997536 -524.501626 
L 298.338226 -526.656769 
L 302.678916 -526.656769 
L 307.019606 -524.501626 
L 311.360296 -520.233329 
L 315.700986 -513.934498 
L 320.041676 -505.725724 
L 324.382366 -495.761725 
L 328.723056 -484.226506 
L 333.063746 -471.327709 
L 337.404437 -457.290418 
L 341.745127 -442.350657 
L 346.085817 -426.748863 
L 350.426507 -410.723558 
L 354.767197 -394.505475 
L 359.107887 -378.312304 
L 363.448577 -362.344231 
L 367.789267 -346.780372 
L 372.129957 -331.77616 
L 376.470647 -317.461703 
L 380.811337 -303.941074 
L 385.152027 -291.292487 
L 389.492717 -279.569236 
L 393.833407 -268.801296 
L 398.174097 -258.99744 
L 402.514787 -250.147739 
L 406.855477 -242.226298 
L 411.196167 -235.194107 
L 415.536857 -229.001872 
L 419.877547 -223.59275 
L 424.218237 -218.904878 
L 428.558927 -214.873663 
L 432.899617 -211.433769 
L 437.240307 -208.520792 
L 441.580997 -206.072617 
L 445.921687 -204.030461 
L 450.262377 -202.339621 
L 454.603067 -200.949971 
L 458.943757 -199.816215 
L 463.284447 -198.897958 
L 467.625137 -198.159618 
L 471.965827 -197.570212 
L 476.306517 -197.103067 
L 480.647207 -196.735461 
L 484.987897 -196.448236 
L 489.328587 -196.225403 
L 493.669277 -196.053743 
L 498.009967 -195.922432 
L 502.350657 -195.82269 
L 506.691347 -195.747455 
L 511.032037 -195.6911 
L 515.372727 -195.64918 
L 515.372727 -195.538011 
L 515.372727 -195.538011 
L 511.032037 -195.538011 
L 506.691347 -195.538011 
L 502.350657 -195.538011 
L 498.009967 -195.538011 
L 493.669277 -195.538011 
L 489.328587 -195.538011 
L 484.987897 -195.538011 
L 480.647207 -195.538011 
L 476.306517 -195.538011 
L 471.965827 -195.538011 
L 467.625137 -195.538011 
L 463.284447 -195.538011 
L 458.943757 -195.538011 
L 454.603067 -195.538011 
L 450.262377 -195.538011 
L 445.921687 -195.538011 
L 441.580997 -195.538011 
L 437.240307 -195.538011 
L 432.899617 -195.538011 
L 428.558927 -195.538011 
L 424.218237 -195.538011 
L 419.877547 -195.538011 
L 415.536857 -195.538011 
L 411.196167 -195.538011 
L 406.855477 -195.538011 
L 402.514787 -195.538011 
L 398.174097 -195.538011 
L 393.833407 -195.538011 
L 389.492717 -195.538011 
L 385.152027 -195.538011 
L 380.811337 -195.538011 
L 376.470647 -195.538011 
L 372.129957 -195.538011 
L 367.789267 -195.538011 
L 363.448577 -195.538011 
L 359.107887 -195.538011 
L 354.767197 -195.538011 
L 350.426507 -195.538011 
L 346.085817 -195.538011 
L 341.745127 -195.538011 
L 337.404437 -195.538011 
L 333.063746 -195.538011 
L 328.723056 -195.538011 
L 324.382366 -195.538011 
L 320.041676 -195.538011 
L 315.700986 -195.538011 
L 311.360296 -195.538011 
L 307.019606 -195.538011 
L 302.678916 -195.538011 
L 298.338226 -195.538011 
L 293.997536 -195.538011 
L 289.656846 -195.538011 
L 285.316156 -195.538011 
L 280.975466 -195.538011 
L 276.634776 -195.538011 
L 272.294086 -195.538011 
L 267.953396 -195.538011 
L 263.612706 -195.538011 
L 259.272016 -195.538011 
L 254.931326 -195.538011 
L 250.590636 -195.538011 
L 246.249946 -195.538011 
L 241.909256 -195.538011 
L 237.568566 -195.538011 
L 233.227876 -195.538011 
L 228.887186 -195.538011 
L 224.546496 -195.538011 
L 220.205806 -195.538011 
L 215.865116 -195.538011 
L 211.524426 -195.538011 
L 207.183736 -195.538011 
L 202.843046 -195.538011 
L 198.502356 -195.538011 
L 194.161666 -195.538011 
L 189.820976 -195.538011 
L 185.480286 -195.538011 
L 181.139596 -195.538011 
L 176.798906 -195.538011 
L 172.458216 -195.538011 
L 168.117526 -195.538011 
L 163.776836 -195.538011 
L 159.436146 -195.538011 
L 155.095456 -195.538011 
L 150.754766 -195.538011 
L 146.414076 -195.538011 
L 142.073386 -195.538011 
L 137.732696 -195.538011 
L 133.392006 -195.538011 
L 129.051316 -195.538011 
L 124.710626 -195.538011 
L 120.369936 -195.538011 
L 116.029246 -195.538011 
L 111.688556 -195.538011 
L 107.347866 -195.538011 
L 103.007175 -195.538011 
L 98.666485 -195.538011 
L 94.325795 -195.538011 
L 89.985105 -195.538011 
L 85.644415 -195.538011 
z
" id="m3ba7c67d61" style="stroke:#4bc0c0;stroke-opacity:0.5;"/>
    </defs>
    <g clip-path="url(#p88c96b1082)">
     <use style="fill:#4bc0c0;fill-opacity:0.5;stroke:#4bc0c0;stroke-opacity:0.5;" x="0" xlink:href="#m3ba7c67d61" y="581.789375"/>
    </g>
   </g>
   <g id="line2d_1">
    <path clip-path="url(#p88c96b1082)" d="M 58.827273 386.139371 
L 63.13603 386.097141 
L 67.444787 386.040368 
L 71.753544 385.964575 
L 76.062301 385.864094 
L 80.371059 385.73181 
L 84.679816 385.558878 
L 88.988573 385.334393 
L 93.29733 385.04504 
L 97.606087 384.674709 
L 101.914845 384.204102 
L 106.223602 383.610328 
L 110.532359 382.866516 
L 114.841116 381.941454 
L 119.149873 380.799296 
L 123.458631 379.399346 
L 127.767388 377.695976 
L 132.076145 375.638684 
L 136.384902 373.172366 
L 140.693659 370.2378 
L 145.002417 366.772413 
L 149.311174 362.711322 
L 153.619931 357.988708 
L 157.928688 352.539497 
L 162.237445 346.301371 
L 166.546203 339.217063 
L 170.85496 331.236916 
L 175.163717 322.321628 
L 179.472474 312.445114 
L 183.781231 301.597371 
L 188.089989 289.787238 
L 192.398746 277.04491 
L 196.707503 263.424078 
L 201.01626 249.003534 
L 205.325017 233.888124 
L 209.633774 218.208919 
L 213.942532 202.122504 
L 218.251289 185.809323 
L 222.560046 169.471045 
L 226.868803 153.326975 
L 231.17756 137.609553 
L 235.486318 122.559072 
L 239.795075 108.417748 
L 244.103832 95.423357 
L 248.412589 83.802649 
L 252.721346 73.764805 
L 257.030104 65.495194 
L 261.338861 59.149682 
L 265.647618 54.849752 
L 269.956375 52.678636 
L 274.265132 52.678636 
L 278.57389 54.849752 
L 282.882647 59.149682 
L 287.191404 65.495194 
L 291.500161 73.764805 
L 295.808918 83.802649 
L 300.117676 95.423357 
L 304.426433 108.417748 
L 308.73519 122.559072 
L 313.043947 137.609553 
L 317.352704 153.326975 
L 321.661461 169.471045 
L 325.970219 185.809323 
L 330.278976 202.122504 
L 334.587733 218.208919 
L 338.89649 233.888124 
L 343.205247 249.003534 
L 347.514005 263.424078 
L 351.822762 277.04491 
L 356.131519 289.787238 
L 360.440276 301.597371 
L 364.749033 312.445114 
L 369.057791 322.321628 
L 373.366548 331.236916 
L 377.675305 339.217063 
L 381.984062 346.301371 
L 386.292819 352.539497 
L 390.601577 357.988708 
L 394.910334 362.711322 
L 399.219091 366.772413 
L 403.527848 370.2378 
L 407.836605 373.172366 
L 412.145363 375.638684 
L 416.45412 377.695976 
L 420.762877 379.399346 
L 425.071634 380.799296 
L 429.380391 381.941454 
L 433.689148 382.866516 
L 437.997906 383.610328 
L 442.306663 384.204102 
L 446.61542 384.674709 
L 450.924177 385.04504 
L 455.232934 385.334393 
L 459.541692 385.558878 
L 463.850449 385.73181 
L 468.159206 385.864094 
L 472.467963 385.964575 
L 476.77672 386.040368 
L 481.085478 386.097141 
L 485.394235 386.139371 
" style="fill:none;stroke:#ff6384;stroke-linecap:square;"/>
   </g>
   <g id="line2d_2">
    <path clip-path="url(#p88c96b1082)" d="M 66.022038 386.139659 
L 70.341908 386.097537 
L 74.661778 386.040911 
L 78.981649 385.965313 
L 83.301519 385.86509 
L 87.621389 385.733147 
L 91.941259 385.56066 
L 96.261129 385.336752 
L 100.581 385.048143 
L 104.90087 384.678765 
L 109.22074 384.209369 
L 113.54061 383.617123 
L 117.86048 382.875224 
L 122.180351 381.952541 
L 126.500221 380.813321 
L 130.820091 379.416973 
L 135.139961 377.717985 
L 139.459832 375.665986 
L 143.779702 373.206012 
L 148.099572 370.278996 
L 152.419442 366.822523 
L 156.739312 362.77188 
L 161.059183 358.061414 
L 165.379053 352.626222 
L 169.698923 346.404144 
L 174.018793 339.33806 
L 178.338663 331.378442 
L 182.658534 322.48609 
L 186.978404 312.634983 
L 191.298274 301.815147 
L 195.618144 290.035395 
L 199.938014 277.325847 
L 204.257885 263.740055 
L 208.577755 249.356608 
L 212.897625 234.280084 
L 217.217495 218.641214 
L 221.537365 202.596182 
L 225.857236 186.324967 
L 230.177106 170.02872 
L 234.496976 153.926181 
L 238.816846 138.249193 
L 243.136716 123.237429 
L 247.456587 109.132485 
L 251.776457 96.171522 
L 256.096327 84.580708 
L 260.416197 74.568687 
L 264.736067 66.32035 
L 269.055938 59.991162 
L 273.375808 55.702294 
L 277.695678 53.536763 
L 282.015548 53.536763 
L 286.335418 55.702294 
L 290.655289 59.991162 
L 294.975159 66.32035 
L 299.295029 74.568687 
L 303.614899 84.580708 
L 307.934769 96.171522 
L 312.25464 109.132485 
L 316.57451 123.237429 
L 320.89438 138.249193 
L 325.21425 153.926181 
L 329.53412 170.02872 
L 333.853991 186.324967 
L 338.173861 202.596182 
L 342.493731 218.641214 
L 346.813601 234.280084 
L 351.133471 249.356608 
L 355.453342 263.740055 
L 359.773212 277.325847 
L 364.093082 290.035395 
L 368.412952 301.815147 
L 372.732822 312.634983 
L 377.052693 322.48609 
L 381.372563 331.378442 
L 385.692433 339.33806 
L 390.012303 346.404144 
L 394.332173 352.626222 
L 398.652044 358.061414 
L 402.971914 362.77188 
L 407.291784 366.822523 
L 411.611654 370.278996 
L 415.931524 373.206012 
L 420.251395 375.665986 
L 424.571265 377.717985 
L 428.891135 379.416973 
L 433.211005 380.813321 
L 437.530876 381.952541 
L 441.850746 382.875224 
L 446.170616 383.617123 
L 450.490486 384.209369 
L 454.810356 384.678765 
L 459.130227 385.048143 
L 463.450097 385.336752 
L 467.769967 385.56066 
L 472.089837 385.733147 
L 476.409707 385.86509 
L 480.729578 385.965313 
L 485.049448 386.040911 
L 489.369318 386.097537 
L 493.689188 386.139659 
" style="fill:none;stroke:#36a2eb;stroke-linecap:square;"/>
   </g>
   <g id="line2d_3">
    <path clip-path="url(#p88c96b1082)" d="M 85.644415 386.140195 
L 89.985105 386.098275 
L 94.325795 386.04192 
L 98.666485 385.966685 
L 103.007175 385.866943 
L 107.347866 385.735632 
L 111.688556 385.563972 
L 116.029246 385.341139 
L 120.369936 385.053914 
L 124.710626 384.686308 
L 129.051316 384.219163 
L 133.392006 383.629757 
L 137.732696 382.891417 
L 142.073386 381.97316 
L 146.414076 380.839404 
L 150.754766 379.449754 
L 155.095456 377.758914 
L 159.436146 375.716758 
L 163.776836 373.268583 
L 168.117526 370.355606 
L 172.458216 366.915712 
L 176.798906 362.884497 
L 181.139596 358.196625 
L 185.480286 352.787503 
L 189.820976 346.595268 
L 194.161666 339.563077 
L 198.502356 331.641636 
L 202.843046 322.791935 
L 207.183736 312.988079 
L 211.524426 302.220139 
L 215.865116 290.496888 
L 220.205806 277.848301 
L 224.546496 264.327672 
L 228.887186 250.013215 
L 233.227876 235.009003 
L 237.568566 219.445144 
L 241.909256 203.477071 
L 246.249946 187.2839 
L 250.590636 171.065817 
L 254.931326 155.040512 
L 259.272016 139.438718 
L 263.612706 124.498957 
L 267.953396 110.461666 
L 272.294086 97.562869 
L 276.634776 86.02765 
L 280.975466 76.063651 
L 285.316156 67.854877 
L 289.656846 61.556046 
L 293.997536 57.287749 
L 298.338226 55.132606 
L 302.678916 55.132606 
L 307.019606 57.287749 
L 311.360296 61.556046 
L 315.700986 67.854877 
L 320.041676 76.063651 
L 324.382366 86.02765 
L 328.723056 97.562869 
L 333.063746 110.461666 
L 337.404437 124.498957 
L 341.745127 139.438718 
L 346.085817 155.040512 
L 350.426507 171.065817 
L 354.767197 187.2839 
L 359.107887 203.477071 
L 363.448577 219.445144 
L 367.789267 235.009003 
L 372.129957 250.013215 
L 376.470647 264.327672 
L 380.811337 277.848301 
L 385.152027 290.496888 
L 389.492717 302.220139 
L 393.833407 312.988079 
L 398.174097 322.791935 
L 402.514787 331.641636 
L 406.855477 339.563077 
L 411.196167 346.595268 
L 415.536857 352.787503 
L 419.877547 358.196625 
L 424.218237 362.884497 
L 428.558927 366.915712 
L 432.899617 370.355606 
L 437.240307 373.268583 
L 441.580997 375.716758 
L 445.921687 377.758914 
L 450.262377 379.449754 
L 454.603067 380.839404 
L 458.943757 381.97316 
L 463.284447 382.891417 
L 467.625137 383.629757 
L 471.965827 384.219163 
L 476.306517 384.686308 
L 480.647207 385.053914 
L 484.987897 385.341139 
L 489.328587 385.563972 
L 493.669277 385.735632 
L 498.009967 385.866943 
L 502.350657 385.966685 
L 506.691347 386.04192 
L 511.032037 386.098275 
L 515.372727 386.140195 
" style="fill:none;stroke:#4bc0c0;stroke-linecap:square;"/>
   </g>
   <g id="patch_3">
    <path d="M 36 402.93 
L 538.2 402.93 
" style="fill:none;stroke:#000000;stroke-linecap:square;stroke-linejoin:miter;stroke-width:0.8;"/>
   </g>
   <g id="legend_1">
    <g id="patch_4">
     <path d="M 415.601563 109.626875 
L 528.4 109.626875 
Q 531.2 109.626875 531.2 106.826875 
L 531.2 45.8 
Q 531.2 43 528.4 43 
L 415.601563 43 
Q 412.801563 43 412.801563 45.8 
L 412.801563 106.826875 
Q 412.801563 109.626875 415.601563 109.626875 
z
" style="fill:#ffffff;opacity:0.8;stroke:#cccccc;stroke-linejoin:miter;"/>
    </g>
    <g id="patch_5">
     <path d="M 418.401563 59.237813 
L 446.401563 59.237813 
L 446.401563 49.437813 
L 418.401563 49.437813 
z
" style="fill:#ff6384;opacity:0.5;stroke:#ff6384;stroke-linejoin:miter;"/>
    </g>
    <g id="text_1">
     <!-- base -->
     <defs>
      <path d="M 48.6875 27.296875 
Q 48.6875 37.203125 44.609375 42.84375 
Q 40.53125 48.484375 33.40625 48.484375 
Q 26.265625 48.484375 22.1875 42.84375 
Q 18.109375 37.203125 18.109375 27.296875 
Q 18.109375 17.390625 22.1875 11.75 
Q 26.265625 6.109375 33.40625 6.109375 
Q 40.53125 6.109375 44.609375 11.75 
Q 48.6875 17.390625 48.6875 27.296875 
z
M 18.109375 46.390625 
Q 20.953125 51.265625 25.265625 53.625 
Q 29.59375 56 35.59375 56 
Q 45.5625 56 51.78125 48.09375 
Q 58.015625 40.1875 58.015625 27.296875 
Q 58.015625 14.40625 51.78125 6.484375 
Q 45.5625 -1.421875 35.59375 -1.421875 
Q 29.59375 -1.421875 25.265625 0.953125 
Q 20.953125 3.328125 18.109375 8.203125 
L 18.109375 0 
L 9.078125 0 
L 9.078125 75.984375 
L 18.109375 75.984375 
z
" id="DejaVuSans-98"/>
      <path d="M 34.28125 27.484375 
Q 23.390625 27.484375 19.1875 25 
Q 14.984375 22.515625 14.984375 16.5 
Q 14.984375 11.71875 18.140625 8.90625 
Q 21.296875 6.109375 26.703125 6.109375 
Q 34.1875 6.109375 38.703125 11.40625 
Q 43.21875 16.703125 43.21875 25.484375 
L 43.21875 27.484375 
z
M 52.203125 31.203125 
L 52.203125 0 
L 43.21875 0 
L 43.21875 8.296875 
Q 40.140625 3.328125 35.546875 0.953125 
Q 30.953125 -1.421875 24.3125 -1.421875 
Q 15.921875 -1.421875 10.953125 3.296875 
Q 6 8.015625 6 15.921875 
Q 6 25.140625 12.171875 29.828125 
Q 18.359375 34.515625 30.609375 34.515625 
L 43.21875 34.515625 
L 43.21875 35.40625 
Q 43.21875 41.609375 39.140625 45 
Q 35.0625 48.390625 27.6875 48.390625 
Q 23 48.390625 18.546875 47.265625 
Q 14.109375 46.140625 10.015625 43.890625 
L 10.015625 52.203125 
Q 14.9375 54.109375 19.578125 55.046875 
Q 24.21875 56 28.609375 56 
Q 40.484375 56 46.34375 49.84375 
Q 52.203125 43.703125 52.203125 31.203125 
z
" id="DejaVuSans-97"/>
      <path d="M 44.28125 53.078125 
L 44.28125 44.578125 
Q 40.484375 46.53125 36.375 47.5 
Q 32.28125 48.484375 27.875 48.484375 
Q 21.1875 48.484375 17.84375 46.4375 
Q 14.5 44.390625 14.5 40.28125 
Q 14.5 37.15625 16.890625 35.375 
Q 19.28125 33.59375 26.515625 31.984375 
L 29.59375 31.296875 
Q 39.15625 29.25 43.1875 25.515625 
Q 47.21875 21.78125 47.21875 15.09375 
Q 47.21875 7.46875 41.1875 3.015625 
Q 35.15625 -1.421875 24.609375 -1.421875 
Q 20.21875 -1.421875 15.453125 -0.5625 
Q 10.6875 0.296875 5.421875 2 
L 5.421875 11.28125 
Q 10.40625 8.6875 15.234375 7.390625 
Q 20.0625 6.109375 24.8125 6.109375 
Q 31.15625 6.109375 34.5625 8.28125 
Q 37.984375 10.453125 37.984375 14.40625 
Q 37.984375 18.0625 35.515625 20.015625 
Q 33.0625 21.96875 24.703125 23.78125 
L 21.578125 24.515625 
Q 13.234375 26.265625 9.515625 29.90625 
Q 5.8125 33.546875 5.8125 39.890625 
Q 5.8125 47.609375 11.28125 51.796875 
Q 16.75 56 26.8125 56 
Q 31.78125 56 36.171875 55.265625 
Q 40.578125 54.546875 44.28125 53.078125 
z
" id="DejaVuSans-115"/>
      <path d="M 56.203125 29.59375 
L 56.203125 25.203125 
L 14.890625 25.203125 
Q 15.484375 15.921875 20.484375 11.0625 
Q 25.484375 6.203125 34.421875 6.203125 
Q 39.59375 6.203125 44.453125 7.46875 
Q 49.3125 8.734375 54.109375 11.28125 
L 54.109375 2.78125 
Q 49.265625 0.734375 44.1875 -0.34375 
Q 39.109375 -1.421875 33.890625 -1.421875 
Q 20.796875 -1.421875 13.15625 6.1875 
Q 5.515625 13.8125 5.515625 26.8125 
Q 5.515625 40.234375 12.765625 48.109375 
Q 20.015625 56 32.328125 56 
Q 43.359375 56 49.78125 48.890625 
Q 56.203125 41.796875 56.203125 29.59375 
z
M 47.21875 32.234375 
Q 47.125 39.59375 43.09375 43.984375 
Q 39.0625 48.390625 32.421875 48.390625 
Q 24.90625 48.390625 20.390625 44.140625 
Q 15.875 39.890625 15.1875 32.171875 
z
" id="DejaVuSans-101"/>
     </defs>
     <g transform="translate(457.601563 59.237813)scale(0.14 -0.14)">
      <use xlink:href="#DejaVuSans-98"/>
      <use x="63.476562" xlink:href="#DejaVuSans-97"/>
      <use x="124.755859" xlink:href="#DejaVuSans-115"/>
      <use x="176.855469" xlink:href="#DejaVuSans-101"/>
     </g>
    </g>
    <g id="patch_6">
     <path d="M 418.401563 79.787188 
L 446.401563 79.787188 
L 446.401563 69.987188 
L 418.401563 69.987188 
z
" style="fill:#36a2eb;opacity:0.5;stroke:#36a2eb;stroke-linejoin:miter;"/>
    </g>
    <g id="text_2">
     <!-- fifth_mid -->
     <defs>
      <path d="M 37.109375 75.984375 
L 37.109375 68.5 
L 28.515625 68.5 
Q 23.6875 68.5 21.796875 66.546875 
Q 19.921875 64.59375 19.921875 59.515625 
L 19.921875 54.6875 
L 34.71875 54.6875 
L 34.71875 47.703125 
L 19.921875 47.703125 
L 19.921875 0 
L 10.890625 0 
L 10.890625 47.703125 
L 2.296875 47.703125 
L 2.296875 54.6875 
L 10.890625 54.6875 
L 10.890625 58.5 
Q 10.890625 67.625 15.140625 71.796875 
Q 19.390625 75.984375 28.609375 75.984375 
z
" id="DejaVuSans-102"/>
      <path d="M 9.421875 54.6875 
L 18.40625 54.6875 
L 18.40625 0 
L 9.421875 0 
z
M 9.421875 75.984375 
L 18.40625 75.984375 
L 18.40625 64.59375 
L 9.421875 64.59375 
z
" id="DejaVuSans-105"/>
      <path d="M 18.3125 70.21875 
L 18.3125 54.6875 
L 36.8125 54.6875 
L 36.8125 47.703125 
L 18.3125 47.703125 
L 18.3125 18.015625 
Q 18.3125 11.328125 20.140625 9.421875 
Q 21.96875 7.515625 27.59375 7.515625 
L 36.8125 7.515625 
L 36.8125 0 
L 27.59375 0 
Q 17.1875 0 13.234375 3.875 
Q 9.28125 7.765625 9.28125 18.015625 
L 9.28125 47.703125 
L 2.6875 47.703125 
L 2.6875 54.6875 
L 9.28125 54.6875 
L 9.28125 70.21875 
z
" id="DejaVuSans-116"/>
      <path d="M 54.890625 33.015625 
L 54.890625 0 
L 45.90625 0 
L 45.90625 32.71875 
Q 45.90625 40.484375 42.875 44.328125 
Q 39.84375 48.1875 33.796875 48.1875 
Q 26.515625 48.1875 22.3125 43.546875 
Q 18.109375 38.921875 18.109375 30.90625 
L 18.109375 0 
L 9.078125 0 
L 9.078125 75.984375 
L 18.109375 75.984375 
L 18.109375 46.1875 
Q 21.34375 51.125 25.703125 53.5625 
Q 30.078125 56 35.796875 56 
Q 45.21875 56 50.046875 50.171875 
Q 54.890625 44.34375 54.890625 33.015625 
z
" id="DejaVuSans-104"/>
      <path d="M 50.984375 -16.609375 
L 50.984375 -23.578125 
L -0.984375 -23.578125 
L -0.984375 -16.609375 
z
" id="DejaVuSans-95"/>
      <path d="M 52 44.1875 
Q 55.375 50.25 60.0625 53.125 
Q 64.75 56 71.09375 56 
Q 79.640625 56 84.28125 50.015625 
Q 88.921875 44.046875 88.921875 33.015625 
L 88.921875 0 
L 79.890625 0 
L 79.890625 32.71875 
Q 79.890625 40.578125 77.09375 44.375 
Q 74.3125 48.1875 68.609375 48.1875 
Q 61.625 48.1875 57.5625 43.546875 
Q 53.515625 38.921875 53.515625 30.90625 
L 53.515625 0 
L 44.484375 0 
L 44.484375 32.71875 
Q 44.484375 40.625 41.703125 44.40625 
Q 38.921875 48.1875 33.109375 48.1875 
Q 26.21875 48.1875 22.15625 43.53125 
Q 18.109375 38.875 18.109375 30.90625 
L 18.109375 0 
L 9.078125 0 
L 9.078125 54.6875 
L 18.109375 54.6875 
L 18.109375 46.1875 
Q 21.1875 51.21875 25.484375 53.609375 
Q 29.78125 56 35.6875 56 
Q 41.65625 56 45.828125 52.96875 
Q 50 49.953125 52 44.1875 
z
" id="DejaVuSans-109"/>
      <path d="M 45.40625 46.390625 
L 45.40625 75.984375 
L 54.390625 75.984375 
L 54.390625 0 
L 45.40625 0 
L 45.40625 8.203125 
Q 42.578125 3.328125 38.25 0.953125 
Q 33.9375 -1.421875 27.875 -1.421875 
Q 17.96875 -1.421875 11.734375 6.484375 
Q 5.515625 14.40625 5.515625 27.296875 
Q 5.515625 40.1875 11.734375 48.09375 
Q 17.96875 56 27.875 56 
Q 33.9375 56 38.25 53.625 
Q 42.578125 51.265625 45.40625 46.390625 
z
M 14.796875 27.296875 
Q 14.796875 17.390625 18.875 11.75 
Q 22.953125 6.109375 30.078125 6.109375 
Q 37.203125 6.109375 41.296875 11.75 
Q 45.40625 17.390625 45.40625 27.296875 
Q 45.40625 37.203125 41.296875 42.84375 
Q 37.203125 48.484375 30.078125 48.484375 
Q 22.953125 48.484375 18.875 42.84375 
Q 14.796875 37.203125 14.796875 27.296875 
z
" id="DejaVuSans-100"/>
     </defs>
     <g transform="translate(457.601563 79.787188)scale(0.14 -0.14)">
      <use xlink:href="#DejaVuSans-102"/>
      <use x="35.205078" xlink:href="#DejaVuSans-105"/>
      <use x="62.988281" xlink:href="#DejaVuSans-102"/>
      <use x="98.177734" xlink:href="#DejaVuSans-116"/>
      <use x="137.386719" xlink:href="#DejaVuSans-104"/>
      <use x="200.765625" xlink:href="#DejaVuSans-95"/>
      <use x="250.765625" xlink:href="#DejaVuSans-109"/>
      <use x="348.177734" xlink:href="#DejaVuSans-105"/>
      <use x="375.960938" xlink:href="#DejaVuSans-100"/>
     </g>
    </g>
    <g id="patch_7">
     <path d="M 418.401563 100.725937 
L 446.401563 100.725937 
L 446.401563 90.925937 
L 418.401563 90.925937 
z
" style="fill:#4bc0c0;opacity:0.5;stroke:#4bc0c0;stroke-linejoin:miter;"/>
    </g>
    <g id="text_3">
     <!-- fifth_right -->
     <defs>
      <path d="M 41.109375 46.296875 
Q 39.59375 47.171875 37.8125 47.578125 
Q 36.03125 48 33.890625 48 
Q 26.265625 48 22.1875 43.046875 
Q 18.109375 38.09375 18.109375 28.8125 
L 18.109375 0 
L 9.078125 0 
L 9.078125 54.6875 
L 18.109375 54.6875 
L 18.109375 46.1875 
Q 20.953125 51.171875 25.484375 53.578125 
Q 30.03125 56 36.53125 56 
Q 37.453125 56 38.578125 55.875 
Q 39.703125 55.765625 41.0625 55.515625 
z
" id="DejaVuSans-114"/>
      <path d="M 45.40625 27.984375 
Q 45.40625 37.75 41.375 43.109375 
Q 37.359375 48.484375 30.078125 48.484375 
Q 22.859375 48.484375 18.828125 43.109375 
Q 14.796875 37.75 14.796875 27.984375 
Q 14.796875 18.265625 18.828125 12.890625 
Q 22.859375 7.515625 30.078125 7.515625 
Q 37.359375 7.515625 41.375 12.890625 
Q 45.40625 18.265625 45.40625 27.984375 
z
M 54.390625 6.78125 
Q 54.390625 -7.171875 48.1875 -13.984375 
Q 42 -20.796875 29.203125 -20.796875 
Q 24.46875 -20.796875 20.265625 -20.09375 
Q 16.0625 -19.390625 12.109375 -17.921875 
L 12.109375 -9.1875 
Q 16.0625 -11.328125 19.921875 -12.34375 
Q 23.78125 -13.375 27.78125 -13.375 
Q 36.625 -13.375 41.015625 -8.765625 
Q 45.40625 -4.15625 45.40625 5.171875 
L 45.40625 9.625 
Q 42.625 4.78125 38.28125 2.390625 
Q 33.9375 0 27.875 0 
Q 17.828125 0 11.671875 7.65625 
Q 5.515625 15.328125 5.515625 27.984375 
Q 5.515625 40.671875 11.671875 48.328125 
Q 17.828125 56 27.875 56 
Q 33.9375 56 38.28125 53.609375 
Q 42.625 51.21875 45.40625 46.390625 
L 45.40625 54.6875 
L 54.390625 54.6875 
z
" id="DejaVuSans-103"/>
     </defs>
     <g transform="translate(457.601563 100.725937)scale(0.14 -0.14)">
      <use xlink:href="#DejaVuSans-102"/>
      <use x="35.205078" xlink:href="#DejaVuSans-105"/>
      <use x="62.988281" xlink:href="#DejaVuSans-102"/>
      <use x="98.177734" xlink:href="#DejaVuSans-116"/>
      <use x="137.386719" xlink:href="#DejaVuSans-104"/>
      <use x="200.765625" xlink:href="#DejaVuSans-95"/>
      <use x="250.765625" xlink:href="#DejaVuSans-114"/>
      <use x="291.878906" xlink:href="#DejaVuSans-105"/>
      <use x="319.662109" xlink:href="#DejaVuSans-103"/>
      <use x="383.138672" xlink:href="#DejaVuSans-104"/>
      <use x="446.517578" xlink:href="#DejaVuSans-116"/>
     </g>
    </g>
   </g>
  </g>
  <g id="axes_2">
   <g id="patch_8">
    <path d="M 36 525.24 
L 538.2 525.24 
L 538.2 402.93 
L 36 402.93 
z
" style="fill:none;"/>
   </g>
   <g id="patch_9">
    <path clip-path="url(#pf0221cd2da)" d="M 167.601848 519.680455 
L 376.619659 519.680455 
L 376.619659 497.442273 
L 167.601848 497.442273 
z
" style="fill:#ff6384;opacity:0.5;"/>
   </g>
   <g id="patch_10">
    <path clip-path="url(#pf0221cd2da)" d="M 175.077161 475.204091 
L 384.634065 475.204091 
L 384.634065 452.965909 
L 175.077161 452.965909 
z
" style="fill:#36a2eb;opacity:0.5;"/>
   </g>
   <g id="patch_11">
    <path clip-path="url(#pf0221cd2da)" d="M 195.225135 430.727727 
L 405.792008 430.727727 
L 405.792008 408.489545 
L 195.225135 408.489545 
z
" style="fill:#4bc0c0;opacity:0.5;"/>
   </g>
   <g id="matplotlib.axis_1">
    <g id="xtick_1">
     <g id="line2d_4">
      <defs>
       <path d="M 0 0 
L 0 3.5 
" id="me9a59a2fea" style="stroke:#000000;stroke-width:0.8;"/>
      </defs>
      <g>
       <use style="stroke:#000000;stroke-width:0.8;" x="68.162791" xlink:href="#me9a59a2fea" y="525.24"/>
      </g>
     </g>
     <g id="text_4">
      <!-- 4.5 -->
      <defs>
       <path d="M 37.796875 64.3125 
L 12.890625 25.390625 
L 37.796875 25.390625 
z
M 35.203125 72.90625 
L 47.609375 72.90625 
L 47.609375 25.390625 
L 58.015625 25.390625 
L 58.015625 17.1875 
L 47.609375 17.1875 
L 47.609375 0 
L 37.796875 0 
L 37.796875 17.1875 
L 4.890625 17.1875 
L 4.890625 26.703125 
z
" id="DejaVuSans-52"/>
       <path d="M 10.6875 12.40625 
L 21 12.40625 
L 21 0 
L 10.6875 0 
z
" id="DejaVuSans-46"/>
       <path d="M 10.796875 72.90625 
L 49.515625 72.90625 
L 49.515625 64.59375 
L 19.828125 64.59375 
L 19.828125 46.734375 
Q 21.96875 47.46875 24.109375 47.828125 
Q 26.265625 48.1875 28.421875 48.1875 
Q 40.625 48.1875 47.75 41.5 
Q 54.890625 34.8125 54.890625 23.390625 
Q 54.890625 11.625 47.5625 5.09375 
Q 40.234375 -1.421875 26.90625 -1.421875 
Q 22.3125 -1.421875 17.546875 -0.640625 
Q 12.796875 0.140625 7.71875 1.703125 
L 7.71875 11.625 
Q 12.109375 9.234375 16.796875 8.0625 
Q 21.484375 6.890625 26.703125 6.890625 
Q 35.15625 6.890625 40.078125 11.328125 
Q 45.015625 15.765625 45.015625 23.390625 
Q 45.015625 31 40.078125 35.4375 
Q 35.15625 39.890625 26.703125 39.890625 
Q 22.75 39.890625 18.8125 39.015625 
Q 14.890625 38.140625 10.796875 36.28125 
z
" id="DejaVuSans-53"/>
      </defs>
      <g transform="translate(57.030604 542.877813)scale(0.14 -0.14)">
       <use xlink:href="#DejaVuSans-52"/>
       <use x="63.623047" xlink:href="#DejaVuSans-46"/>
       <use x="95.410156" xlink:href="#DejaVuSans-53"/>
      </g>
     </g>
    </g>
    <g id="xtick_2">
     <g id="line2d_5">
      <g>
       <use style="stroke:#000000;stroke-width:0.8;" x="132.703286" xlink:href="#me9a59a2fea" y="525.24"/>
      </g>
     </g>
     <g id="text_5">
      <!-- 5.0 -->
      <defs>
       <path d="M 31.78125 66.40625 
Q 24.171875 66.40625 20.328125 58.90625 
Q 16.5 51.421875 16.5 36.375 
Q 16.5 21.390625 20.328125 13.890625 
Q 24.171875 6.390625 31.78125 6.390625 
Q 39.453125 6.390625 43.28125 13.890625 
Q 47.125 21.390625 47.125 36.375 
Q 47.125 51.421875 43.28125 58.90625 
Q 39.453125 66.40625 31.78125 66.40625 
z
M 31.78125 74.21875 
Q 44.046875 74.21875 50.515625 64.515625 
Q 56.984375 54.828125 56.984375 36.375 
Q 56.984375 17.96875 50.515625 8.265625 
Q 44.046875 -1.421875 31.78125 -1.421875 
Q 19.53125 -1.421875 13.0625 8.265625 
Q 6.59375 17.96875 6.59375 36.375 
Q 6.59375 54.828125 13.0625 64.515625 
Q 19.53125 74.21875 31.78125 74.21875 
z
" id="DejaVuSans-48"/>
      </defs>
      <g transform="translate(121.571098 542.877813)scale(0.14 -0.14)">
       <use xlink:href="#DejaVuSans-53"/>
       <use x="63.623047" xlink:href="#DejaVuSans-46"/>
       <use x="95.410156" xlink:href="#DejaVuSans-48"/>
      </g>
     </g>
    </g>
    <g id="xtick_3">
     <g id="line2d_6">
      <g>
       <use style="stroke:#000000;stroke-width:0.8;" x="197.24378" xlink:href="#me9a59a2fea" y="525.24"/>
      </g>
     </g>
     <g id="text_6">
      <!-- 5.5 -->
      <g transform="translate(186.111593 542.877813)scale(0.14 -0.14)">
       <use xlink:href="#DejaVuSans-53"/>
       <use x="63.623047" xlink:href="#DejaVuSans-46"/>
       <use x="95.410156" xlink:href="#DejaVuSans-53"/>
      </g>
     </g>
    </g>
    <g id="xtick_4">
     <g id="line2d_7">
      <g>
       <use style="stroke:#000000;stroke-width:0.8;" x="261.784275" xlink:href="#me9a59a2fea" y="525.24"/>
      </g>
     </g>
     <g id="text_7">
      <!-- 6.0 -->
      <defs>
       <path d="M 33.015625 40.375 
Q 26.375 40.375 22.484375 35.828125 
Q 18.609375 31.296875 18.609375 23.390625 
Q 18.609375 15.53125 22.484375 10.953125 
Q 26.375 6.390625 33.015625 6.390625 
Q 39.65625 6.390625 43.53125 10.953125 
Q 47.40625 15.53125 47.40625 23.390625 
Q 47.40625 31.296875 43.53125 35.828125 
Q 39.65625 40.375 33.015625 40.375 
z
M 52.59375 71.296875 
L 52.59375 62.3125 
Q 48.875 64.0625 45.09375 64.984375 
Q 41.3125 65.921875 37.59375 65.921875 
Q 27.828125 65.921875 22.671875 59.328125 
Q 17.53125 52.734375 16.796875 39.40625 
Q 19.671875 43.65625 24.015625 45.921875 
Q 28.375 48.1875 33.59375 48.1875 
Q 44.578125 48.1875 50.953125 41.515625 
Q 57.328125 34.859375 57.328125 23.390625 
Q 57.328125 12.15625 50.6875 5.359375 
Q 44.046875 -1.421875 33.015625 -1.421875 
Q 20.359375 -1.421875 13.671875 8.265625 
Q 6.984375 17.96875 6.984375 36.375 
Q 6.984375 53.65625 15.1875 63.9375 
Q 23.390625 74.21875 37.203125 74.21875 
Q 40.921875 74.21875 44.703125 73.484375 
Q 48.484375 72.75 52.59375 71.296875 
z
" id="DejaVuSans-54"/>
      </defs>
      <g transform="translate(250.652087 542.877813)scale(0.14 -0.14)">
       <use xlink:href="#DejaVuSans-54"/>
       <use x="63.623047" xlink:href="#DejaVuSans-46"/>
       <use x="95.410156" xlink:href="#DejaVuSans-48"/>
      </g>
     </g>
    </g>
    <g id="xtick_5">
     <g id="line2d_8">
      <g>
       <use style="stroke:#000000;stroke-width:0.8;" x="326.324769" xlink:href="#me9a59a2fea" y="525.24"/>
      </g>
     </g>
     <g id="text_8">
      <!-- 6.5 -->
      <g transform="translate(315.192582 542.877813)scale(0.14 -0.14)">
       <use xlink:href="#DejaVuSans-54"/>
       <use x="63.623047" xlink:href="#DejaVuSans-46"/>
       <use x="95.410156" xlink:href="#DejaVuSans-53"/>
      </g>
     </g>
    </g>
    <g id="xtick_6">
     <g id="line2d_9">
      <g>
       <use style="stroke:#000000;stroke-width:0.8;" x="390.865264" xlink:href="#me9a59a2fea" y="525.24"/>
      </g>
     </g>
     <g id="text_9">
      <!-- 7.0 -->
      <defs>
       <path d="M 8.203125 72.90625 
L 55.078125 72.90625 
L 55.078125 68.703125 
L 28.609375 0 
L 18.3125 0 
L 43.21875 64.59375 
L 8.203125 64.59375 
z
" id="DejaVuSans-55"/>
      </defs>
      <g transform="translate(379.733076 542.877813)scale(0.14 -0.14)">
       <use xlink:href="#DejaVuSans-55"/>
       <use x="63.623047" xlink:href="#DejaVuSans-46"/>
       <use x="95.410156" xlink:href="#DejaVuSans-48"/>
      </g>
     </g>
    </g>
    <g id="xtick_7">
     <g id="line2d_10">
      <g>
       <use style="stroke:#000000;stroke-width:0.8;" x="455.405758" xlink:href="#me9a59a2fea" y="525.24"/>
      </g>
     </g>
     <g id="text_10">
      <!-- 7.5 -->
      <g transform="translate(444.273571 542.877813)scale(0.14 -0.14)">
       <use xlink:href="#DejaVuSans-55"/>
       <use x="63.623047" xlink:href="#DejaVuSans-46"/>
       <use x="95.410156" xlink:href="#DejaVuSans-53"/>
      </g>
     </g>
    </g>
    <g id="xtick_8">
     <g id="line2d_11">
      <g>
       <use style="stroke:#000000;stroke-width:0.8;" x="519.946253" xlink:href="#me9a59a2fea" y="525.24"/>
      </g>
     </g>
     <g id="text_11">
      <!-- 8.0 -->
      <defs>
       <path d="M 31.78125 34.625 
Q 24.75 34.625 20.71875 30.859375 
Q 16.703125 27.09375 16.703125 20.515625 
Q 16.703125 13.921875 20.71875 10.15625 
Q 24.75 6.390625 31.78125 6.390625 
Q 38.8125 6.390625 42.859375 10.171875 
Q 46.921875 13.96875 46.921875 20.515625 
Q 46.921875 27.09375 42.890625 30.859375 
Q 38.875 34.625 31.78125 34.625 
z
M 21.921875 38.8125 
Q 15.578125 40.375 12.03125 44.71875 
Q 8.5 49.078125 8.5 55.328125 
Q 8.5 64.0625 14.71875 69.140625 
Q 20.953125 74.21875 31.78125 74.21875 
Q 42.671875 74.21875 48.875 69.140625 
Q 55.078125 64.0625 55.078125 55.328125 
Q 55.078125 49.078125 51.53125 44.71875 
Q 48 40.375 41.703125 38.8125 
Q 48.828125 37.15625 52.796875 32.3125 
Q 56.78125 27.484375 56.78125 20.515625 
Q 56.78125 9.90625 50.3125 4.234375 
Q 43.84375 -1.421875 31.78125 -1.421875 
Q 19.734375 -1.421875 13.25 4.234375 
Q 6.78125 9.90625 6.78125 20.515625 
Q 6.78125 27.484375 10.78125 32.3125 
Q 14.796875 37.15625 21.921875 38.8125 
z
M 18.3125 54.390625 
Q 18.3125 48.734375 21.84375 45.5625 
Q 25.390625 42.390625 31.78125 42.390625 
Q 38.140625 42.390625 41.71875 45.5625 
Q 45.3125 48.734375 45.3125 54.390625 
Q 45.3125 60.0625 41.71875 63.234375 
Q 38.140625 66.40625 31.78125 66.40625 
Q 25.390625 66.40625 21.84375 63.234375 
Q 18.3125 60.0625 18.3125 54.390625 
z
" id="DejaVuSans-56"/>
      </defs>
      <g transform="translate(508.814065 542.877813)scale(0.14 -0.14)">
       <use xlink:href="#DejaVuSans-56"/>
       <use x="63.623047" xlink:href="#DejaVuSans-46"/>
       <use x="95.410156" xlink:href="#DejaVuSans-48"/>
      </g>
     </g>
    </g>
   </g>
   <g id="line2d_12">
    <path clip-path="url(#pf0221cd2da)" d="M 272.110754 525.24 
L 272.110754 402.93 
" style="fill:none;stroke:#ff6384;stroke-dasharray:5.55,2.4;stroke-dashoffset:0;stroke-opacity:0.8;stroke-width:1.5;"/>
   </g>
   <g id="line2d_13">
    <path clip-path="url(#pf0221cd2da)" d="M 279.855613 525.24 
L 279.855613 402.93 
" style="fill:none;stroke:#36a2eb;stroke-dasharray:5.55,2.4;stroke-dashoffset:0;stroke-opacity:0.8;stroke-width:1.5;"/>
   </g>
   <g id="line2d_14">
    <path clip-path="url(#pf0221cd2da)" d="M 300.508571 525.24 
L 300.508571 402.93 
" style="fill:none;stroke:#4bc0c0;stroke-dasharray:5.55,2.4;stroke-dashoffset:0;stroke-opacity:0.8;stroke-width:1.5;"/>
   </g>
   <g id="patch_12">
    <path d="M 36 525.24 
L 538.2 525.24 
" style="fill:none;stroke:#000000;stroke-linecap:square;stroke-linejoin:miter;stroke-width:0.8;"/>
   </g>
  </g>
 </g>
 <defs>
  <clipPath id="p88c96b1082">
   <rect height="366.93" width="502.2" x="36" y="36"/>
  </clipPath>
  <clipPath id="pf0221cd2da">
   <rect height="122.31" width="502.2" x="36" y="402.93"/>
  </clipPath>
 </defs>
</svg>
