<?xml version="1.0" encoding="utf-8" standalone="no"?>
<!DOCTYPE svg PUBLIC "-//W3C//DTD SVG 1.1//EN"
  "http://www.w3.org/Graphics/SVG/1.1/DTD/svg11.dtd">
<!-- Created with matplotlib (https://matplotlib.org/) -->
<svg height="591.509375pt" version="1.1" viewBox="0 0 574.2 591.509375" width="574.2pt" xmlns="http://www.w3.org/2000/svg" xmlns:xlink="http://www.w3.org/1999/xlink">
 <defs>
  <style type="text/css">
*{stroke-linecap:butt;stroke-linejoin:round;}
  </style>
 </defs>
 <g id="figure_1">
  <g id="patch_1">
   <path d="M 0 591.509375 
L 574.2 591.509375 
L 574.2 0 
L 0 0 
z
" style="fill:none;"/>
  </g>
  <g id="axes_1">
   <g id="patch_2">
    <path d="M 36 410.22 
L 538.2 410.22 
L 538.2 36 
L 36 36 
z
" style="fill:none;"/>
   </g>
   <g id="PolyCollection_1">
    <defs>
     <path d="M 58.827273 -198.299375 
L 58.827273 -198.413593 
L 63.180506 -198.456662 
L 67.533739 -198.514563 
L 71.886972 -198.591861 
L 76.240205 -198.694339 
L 80.593438 -198.829251 
L 84.946671 -199.005619 
L 89.299904 -199.234563 
L 93.653137 -199.529665 
L 98.00637 -199.907354 
L 102.359603 -200.387311 
L 106.712837 -200.992881 
L 111.06607 -201.751471 
L 115.419303 -202.694912 
L 119.772536 -203.859762 
L 124.125769 -205.287525 
L 128.479002 -207.024738 
L 132.832235 -209.122902 
L 137.185468 -211.638221 
L 141.538701 -214.631088 
L 145.891934 -218.165325 
L 150.245167 -222.3071 
L 154.5984 -227.123541 
L 158.951633 -232.681014 
L 163.304867 -239.043076 
L 167.6581 -246.268132 
L 172.011333 -254.406825 
L 176.364566 -263.499238 
L 180.717799 -273.571974 
L 185.071032 -284.635235 
L 189.424265 -296.680007 
L 193.777498 -309.675493 
L 198.130731 -323.566938 
L 202.483964 -338.273983 
L 206.837197 -353.689699 
L 211.19043 -369.680411 
L 215.543663 -386.086424 
L 219.896896 -402.723708 
L 224.25013 -419.386587 
L 228.603363 -435.8514 
L 232.956596 -451.881089 
L 237.309829 -467.230586 
L 241.663062 -481.652863 
L 246.016295 -494.905422 
L 250.369528 -506.757005 
L 254.722761 -516.994276 
L 259.075994 -525.428184 
L 263.429227 -531.899766 
L 267.78246 -536.285125 
L 272.135693 -538.499375 
L 276.488926 -538.499375 
L 280.84216 -536.285125 
L 285.195393 -531.899766 
L 289.548626 -525.428184 
L 293.901859 -516.994276 
L 298.255092 -506.757005 
L 302.608325 -494.905422 
L 306.961558 -481.652863 
L 311.314791 -467.230586 
L 315.668024 -451.881089 
L 320.021257 -435.8514 
L 324.37449 -419.386587 
L 328.727723 -402.723708 
L 333.080956 -386.086424 
L 337.434189 -369.680411 
L 341.787423 -353.689699 
L 346.140656 -338.273983 
L 350.493889 -323.566938 
L 354.847122 -309.675493 
L 359.200355 -296.680007 
L 363.553588 -284.635235 
L 367.906821 -273.571974 
L 372.260054 -263.499238 
L 376.613287 -254.406825 
L 380.96652 -246.268132 
L 385.319753 -239.043076 
L 389.672986 -232.681014 
L 394.026219 -227.123541 
L 398.379453 -222.3071 
L 402.732686 -218.165325 
L 407.085919 -214.631088 
L 411.439152 -211.638221 
L 415.792385 -209.122902 
L 420.145618 -207.024738 
L 424.498851 -205.287525 
L 428.852084 -203.859762 
L 433.205317 -202.694912 
L 437.55855 -201.751471 
L 441.911783 -200.992881 
L 446.265016 -200.387311 
L 450.618249 -199.907354 
L 454.971483 -199.529665 
L 459.324716 -199.234563 
L 463.677949 -199.005619 
L 468.031182 -198.829251 
L 472.384415 -198.694339 
L 476.737648 -198.591861 
L 481.090881 -198.514563 
L 485.444114 -198.456662 
L 489.797347 -198.413593 
L 489.797347 -198.299375 
L 489.797347 -198.299375 
L 485.444114 -198.299375 
L 481.090881 -198.299375 
L 476.737648 -198.299375 
L 472.384415 -198.299375 
L 468.031182 -198.299375 
L 463.677949 -198.299375 
L 459.324716 -198.299375 
L 454.971483 -198.299375 
L 450.618249 -198.299375 
L 446.265016 -198.299375 
L 441.911783 -198.299375 
L 437.55855 -198.299375 
L 433.205317 -198.299375 
L 428.852084 -198.299375 
L 424.498851 -198.299375 
L 420.145618 -198.299375 
L 415.792385 -198.299375 
L 411.439152 -198.299375 
L 407.085919 -198.299375 
L 402.732686 -198.299375 
L 398.379453 -198.299375 
L 394.026219 -198.299375 
L 389.672986 -198.299375 
L 385.319753 -198.299375 
L 380.96652 -198.299375 
L 376.613287 -198.299375 
L 372.260054 -198.299375 
L 367.906821 -198.299375 
L 363.553588 -198.299375 
L 359.200355 -198.299375 
L 354.847122 -198.299375 
L 350.493889 -198.299375 
L 346.140656 -198.299375 
L 341.787423 -198.299375 
L 337.434189 -198.299375 
L 333.080956 -198.299375 
L 328.727723 -198.299375 
L 324.37449 -198.299375 
L 320.021257 -198.299375 
L 315.668024 -198.299375 
L 311.314791 -198.299375 
L 306.961558 -198.299375 
L 302.608325 -198.299375 
L 298.255092 -198.299375 
L 293.901859 -198.299375 
L 289.548626 -198.299375 
L 285.195393 -198.299375 
L 280.84216 -198.299375 
L 276.488926 -198.299375 
L 272.135693 -198.299375 
L 267.78246 -198.299375 
L 263.429227 -198.299375 
L 259.075994 -198.299375 
L 254.722761 -198.299375 
L 250.369528 -198.299375 
L 246.016295 -198.299375 
L 241.663062 -198.299375 
L 237.309829 -198.299375 
L 232.956596 -198.299375 
L 228.603363 -198.299375 
L 224.25013 -198.299375 
L 219.896896 -198.299375 
L 215.543663 -198.299375 
L 211.19043 -198.299375 
L 206.837197 -198.299375 
L 202.483964 -198.299375 
L 198.130731 -198.299375 
L 193.777498 -198.299375 
L 189.424265 -198.299375 
L 185.071032 -198.299375 
L 180.717799 -198.299375 
L 176.364566 -198.299375 
L 172.011333 -198.299375 
L 167.6581 -198.299375 
L 163.304867 -198.299375 
L 158.951633 -198.299375 
L 154.5984 -198.299375 
L 150.245167 -198.299375 
L 145.891934 -198.299375 
L 141.538701 -198.299375 
L 137.185468 -198.299375 
L 132.832235 -198.299375 
L 128.479002 -198.299375 
L 124.125769 -198.299375 
L 119.772536 -198.299375 
L 115.419303 -198.299375 
L 111.06607 -198.299375 
L 106.712837 -198.299375 
L 102.359603 -198.299375 
L 98.00637 -198.299375 
L 93.653137 -198.299375 
L 89.299904 -198.299375 
L 84.946671 -198.299375 
L 80.593438 -198.299375 
L 76.240205 -198.299375 
L 71.886972 -198.299375 
L 67.533739 -198.299375 
L 63.180506 -198.299375 
L 58.827273 -198.299375 
z
" id="m0e1fcb9217" style="stroke:#ff6384;stroke-opacity:0.5;"/>
    </defs>
    <g clip-path="url(#p29c86135d0)">
     <use style="fill:#ff6384;fill-opacity:0.5;stroke:#ff6384;stroke-opacity:0.5;" x="0" xlink:href="#m0e1fcb9217" y="591.509375"/>
    </g>
   </g>
   <g id="PolyCollection_2">
    <defs>
     <path d="M 77.115422 -198.299375 
L 77.115422 -198.411693 
L 81.542263 -198.454047 
L 85.969105 -198.510984 
L 90.395946 -198.586998 
L 94.822788 -198.687772 
L 99.249629 -198.82044 
L 103.676471 -198.993875 
L 108.103312 -199.219013 
L 112.530154 -199.509208 
L 116.956995 -199.880617 
L 121.383837 -200.352593 
L 125.810678 -200.948094 
L 130.23752 -201.694071 
L 134.664361 -202.621824 
L 139.091202 -203.767306 
L 143.518044 -205.171328 
L 147.944885 -206.879654 
L 152.371727 -208.942932 
L 156.798568 -211.416426 
L 161.22541 -214.359529 
L 165.652251 -217.834999 
L 170.079093 -221.907905 
L 174.505934 -226.64426 
L 178.932776 -232.109324 
L 183.359617 -238.3656 
L 187.786459 -245.47052 
L 192.2133 -253.473885 
L 196.640142 -262.415111 
L 201.066983 -272.32036 
L 205.493824 -283.199664 
L 209.920666 -295.044159 
L 214.347507 -307.82356 
L 218.774349 -321.484021 
L 223.20119 -335.946521 
L 227.628032 -351.105908 
L 232.054873 -366.830731 
L 236.481715 -382.963948 
L 240.908556 -399.324592 
L 245.335398 -415.710405 
L 249.762239 -431.901446 
L 254.189081 -447.664597 
L 258.615922 -462.758866 
L 263.042764 -476.941334 
L 267.469605 -489.973532 
L 271.896447 -501.62805 
L 276.323288 -511.695098 
L 280.750129 -519.988769 
L 285.176971 -526.352743 
L 289.603812 -530.665184 
L 294.030654 -532.842616 
L 298.457495 -532.842616 
L 302.884337 -530.665184 
L 307.311178 -526.352743 
L 311.73802 -519.988769 
L 316.164861 -511.695098 
L 320.591703 -501.62805 
L 325.018544 -489.973532 
L 329.445386 -476.941334 
L 333.872227 -462.758866 
L 338.299069 -447.664597 
L 342.72591 -431.901446 
L 347.152751 -415.710405 
L 351.579593 -399.324592 
L 356.006434 -382.963948 
L 360.433276 -366.830731 
L 364.860117 -351.105908 
L 369.286959 -335.946521 
L 373.7138 -321.484021 
L 378.140642 -307.82356 
L 382.567483 -295.044159 
L 386.994325 -283.199664 
L 391.421166 -272.32036 
L 395.848008 -262.415111 
L 400.274849 -253.473885 
L 404.701691 -245.47052 
L 409.128532 -238.3656 
L 413.555373 -232.109324 
L 417.982215 -226.64426 
L 422.409056 -221.907905 
L 426.835898 -217.834999 
L 431.262739 -214.359529 
L 435.689581 -211.416426 
L 440.116422 -208.942932 
L 444.543264 -206.879654 
L 448.970105 -205.171328 
L 453.396947 -203.767306 
L 457.823788 -202.621824 
L 462.25063 -201.694071 
L 466.677471 -200.948094 
L 471.104313 -200.352593 
L 475.531154 -199.880617 
L 479.957996 -199.509208 
L 484.384837 -199.219013 
L 488.811678 -198.993875 
L 493.23852 -198.82044 
L 497.665361 -198.687772 
L 502.092203 -198.586998 
L 506.519044 -198.510984 
L 510.945886 -198.454047 
L 515.372727 -198.411693 
L 515.372727 -198.299375 
L 515.372727 -198.299375 
L 510.945886 -198.299375 
L 506.519044 -198.299375 
L 502.092203 -198.299375 
L 497.665361 -198.299375 
L 493.23852 -198.299375 
L 488.811678 -198.299375 
L 484.384837 -198.299375 
L 479.957996 -198.299375 
L 475.531154 -198.299375 
L 471.104313 -198.299375 
L 466.677471 -198.299375 
L 462.25063 -198.299375 
L 457.823788 -198.299375 
L 453.396947 -198.299375 
L 448.970105 -198.299375 
L 444.543264 -198.299375 
L 440.116422 -198.299375 
L 435.689581 -198.299375 
L 431.262739 -198.299375 
L 426.835898 -198.299375 
L 422.409056 -198.299375 
L 417.982215 -198.299375 
L 413.555373 -198.299375 
L 409.128532 -198.299375 
L 404.701691 -198.299375 
L 400.274849 -198.299375 
L 395.848008 -198.299375 
L 391.421166 -198.299375 
L 386.994325 -198.299375 
L 382.567483 -198.299375 
L 378.140642 -198.299375 
L 373.7138 -198.299375 
L 369.286959 -198.299375 
L 364.860117 -198.299375 
L 360.433276 -198.299375 
L 356.006434 -198.299375 
L 351.579593 -198.299375 
L 347.152751 -198.299375 
L 342.72591 -198.299375 
L 338.299069 -198.299375 
L 333.872227 -198.299375 
L 329.445386 -198.299375 
L 325.018544 -198.299375 
L 320.591703 -198.299375 
L 316.164861 -198.299375 
L 311.73802 -198.299375 
L 307.311178 -198.299375 
L 302.884337 -198.299375 
L 298.457495 -198.299375 
L 294.030654 -198.299375 
L 289.603812 -198.299375 
L 285.176971 -198.299375 
L 280.750129 -198.299375 
L 276.323288 -198.299375 
L 271.896447 -198.299375 
L 267.469605 -198.299375 
L 263.042764 -198.299375 
L 258.615922 -198.299375 
L 254.189081 -198.299375 
L 249.762239 -198.299375 
L 245.335398 -198.299375 
L 240.908556 -198.299375 
L 236.481715 -198.299375 
L 232.054873 -198.299375 
L 227.628032 -198.299375 
L 223.20119 -198.299375 
L 218.774349 -198.299375 
L 214.347507 -198.299375 
L 209.920666 -198.299375 
L 205.493824 -198.299375 
L 201.066983 -198.299375 
L 196.640142 -198.299375 
L 192.2133 -198.299375 
L 187.786459 -198.299375 
L 183.359617 -198.299375 
L 178.932776 -198.299375 
L 174.505934 -198.299375 
L 170.079093 -198.299375 
L 165.652251 -198.299375 
L 161.22541 -198.299375 
L 156.798568 -198.299375 
L 152.371727 -198.299375 
L 147.944885 -198.299375 
L 143.518044 -198.299375 
L 139.091202 -198.299375 
L 134.664361 -198.299375 
L 130.23752 -198.299375 
L 125.810678 -198.299375 
L 121.383837 -198.299375 
L 116.956995 -198.299375 
L 112.530154 -198.299375 
L 108.103312 -198.299375 
L 103.676471 -198.299375 
L 99.249629 -198.299375 
L 94.822788 -198.299375 
L 90.395946 -198.299375 
L 85.969105 -198.299375 
L 81.542263 -198.299375 
L 77.115422 -198.299375 
z
" id="m82fae5af6a" style="stroke:#36a2eb;stroke-opacity:0.5;"/>
    </defs>
    <g clip-path="url(#p29c86135d0)">
     <use style="fill:#36a2eb;fill-opacity:0.5;stroke:#36a2eb;stroke-opacity:0.5;" x="0" xlink:href="#m82fae5af6a" y="591.509375"/>
    </g>
   </g>
   <g id="line2d_1">
    <path clip-path="url(#p29c86135d0)" d="M 58.827273 393.095782 
L 63.180506 393.052713 
L 67.533739 392.994812 
L 71.886972 392.917514 
L 76.240205 392.815036 
L 80.593438 392.680124 
L 84.946671 392.503756 
L 89.299904 392.274812 
L 93.653137 391.97971 
L 98.00637 391.602021 
L 102.359603 391.122064 
L 106.712837 390.516494 
L 111.06607 389.757904 
L 115.419303 388.814463 
L 119.772536 387.649613 
L 124.125769 386.22185 
L 128.479002 384.484637 
L 132.832235 382.386473 
L 137.185468 379.871154 
L 141.538701 376.878287 
L 145.891934 373.34405 
L 150.245167 369.202275 
L 154.5984 364.385834 
L 158.951633 358.828361 
L 163.304867 352.466299 
L 167.6581 345.241243 
L 172.011333 337.10255 
L 176.364566 328.010137 
L 180.717799 317.937401 
L 185.071032 306.87414 
L 189.424265 294.829368 
L 193.777498 281.833882 
L 198.130731 267.942437 
L 202.483964 253.235392 
L 206.837197 237.819676 
L 211.19043 221.828964 
L 215.543663 205.422951 
L 219.896896 188.785667 
L 224.25013 172.122788 
L 228.603363 155.657975 
L 232.956596 139.628286 
L 237.309829 124.278789 
L 241.663062 109.856512 
L 246.016295 96.603953 
L 250.369528 84.75237 
L 254.722761 74.515099 
L 259.075994 66.081191 
L 263.429227 59.609609 
L 267.78246 55.22425 
L 272.135693 53.01 
L 276.488926 53.01 
L 280.84216 55.22425 
L 285.195393 59.609609 
L 289.548626 66.081191 
L 293.901859 74.515099 
L 298.255092 84.75237 
L 302.608325 96.603953 
L 306.961558 109.856512 
L 311.314791 124.278789 
L 315.668024 139.628286 
L 320.021257 155.657975 
L 324.37449 172.122788 
L 328.727723 188.785667 
L 333.080956 205.422951 
L 337.434189 221.828964 
L 341.787423 237.819676 
L 346.140656 253.235392 
L 350.493889 267.942437 
L 354.847122 281.833882 
L 359.200355 294.829368 
L 363.553588 306.87414 
L 367.906821 317.937401 
L 372.260054 328.010137 
L 376.613287 337.10255 
L 380.96652 345.241243 
L 385.319753 352.466299 
L 389.672986 358.828361 
L 394.026219 364.385834 
L 398.379453 369.202275 
L 402.732686 373.34405 
L 407.085919 376.878287 
L 411.439152 379.871154 
L 415.792385 382.386473 
L 420.145618 384.484637 
L 424.498851 386.22185 
L 428.852084 387.649613 
L 433.205317 388.814463 
L 437.55855 389.757904 
L 441.911783 390.516494 
L 446.265016 391.122064 
L 450.618249 391.602021 
L 454.971483 391.97971 
L 459.324716 392.274812 
L 463.677949 392.503756 
L 468.031182 392.680124 
L 472.384415 392.815036 
L 476.737648 392.917514 
L 481.090881 392.994812 
L 485.444114 393.052713 
L 489.797347 393.095782 
" style="fill:none;stroke:#ff6384;stroke-linecap:square;"/>
   </g>
   <g id="line2d_2">
    <path clip-path="url(#p29c86135d0)" d="M 77.115422 393.097682 
L 81.542263 393.055328 
L 85.969105 392.998391 
L 90.395946 392.922377 
L 94.822788 392.821603 
L 99.249629 392.688935 
L 103.676471 392.5155 
L 108.103312 392.290362 
L 112.530154 392.000167 
L 116.956995 391.628758 
L 121.383837 391.156782 
L 125.810678 390.561281 
L 130.23752 389.815304 
L 134.664361 388.887551 
L 139.091202 387.742069 
L 143.518044 386.338047 
L 147.944885 384.629721 
L 152.371727 382.566443 
L 156.798568 380.092949 
L 161.22541 377.149846 
L 165.652251 373.674376 
L 170.079093 369.60147 
L 174.505934 364.865115 
L 178.932776 359.400051 
L 183.359617 353.143775 
L 187.786459 346.038855 
L 192.2133 338.03549 
L 196.640142 329.094264 
L 201.066983 319.189015 
L 205.493824 308.309711 
L 209.920666 296.465216 
L 214.347507 283.685815 
L 218.774349 270.025354 
L 223.20119 255.562854 
L 227.628032 240.403467 
L 232.054873 224.678644 
L 236.481715 208.545427 
L 240.908556 192.184783 
L 245.335398 175.79897 
L 249.762239 159.607929 
L 254.189081 143.844778 
L 258.615922 128.750509 
L 263.042764 114.568041 
L 267.469605 101.535843 
L 271.896447 89.881325 
L 276.323288 79.814277 
L 280.750129 71.520606 
L 285.176971 65.156632 
L 289.603812 60.844191 
L 294.030654 58.666759 
L 298.457495 58.666759 
L 302.884337 60.844191 
L 307.311178 65.156632 
L 311.73802 71.520606 
L 316.164861 79.814277 
L 320.591703 89.881325 
L 325.018544 101.535843 
L 329.445386 114.568041 
L 333.872227 128.750509 
L 338.299069 143.844778 
L 342.72591 159.607929 
L 347.152751 175.79897 
L 351.579593 192.184783 
L 356.006434 208.545427 
L 360.433276 224.678644 
L 364.860117 240.403467 
L 369.286959 255.562854 
L 373.7138 270.025354 
L 378.140642 283.685815 
L 382.567483 296.465216 
L 386.994325 308.309711 
L 391.421166 319.189015 
L 395.848008 329.094264 
L 400.274849 338.03549 
L 404.701691 346.038855 
L 409.128532 353.143775 
L 413.555373 359.400051 
L 417.982215 364.865115 
L 422.409056 369.60147 
L 426.835898 373.674376 
L 431.262739 377.149846 
L 435.689581 380.092949 
L 440.116422 382.566443 
L 444.543264 384.629721 
L 448.970105 386.338047 
L 453.396947 387.742069 
L 457.823788 388.887551 
L 462.25063 389.815304 
L 466.677471 390.561281 
L 471.104313 391.156782 
L 475.531154 391.628758 
L 479.957996 392.000167 
L 484.384837 392.290362 
L 488.811678 392.5155 
L 493.23852 392.688935 
L 497.665361 392.821603 
L 502.092203 392.922377 
L 506.519044 392.998391 
L 510.945886 393.055328 
L 515.372727 393.097682 
" style="fill:none;stroke:#36a2eb;stroke-linecap:square;"/>
   </g>
   <g id="patch_3">
    <path d="M 36 410.22 
L 538.2 410.22 
" style="fill:none;stroke:#000000;stroke-linecap:square;stroke-linejoin:miter;stroke-width:0.8;"/>
   </g>
   <g id="legend_1">
    <g id="patch_4">
     <path d="M 396.692813 88.688125 
L 528.4 88.688125 
Q 531.2 88.688125 531.2 85.888125 
L 531.2 45.8 
Q 531.2 43 528.4 43 
L 396.692813 43 
Q 393.892813 43 393.892813 45.8 
L 393.892813 85.888125 
Q 393.892813 88.688125 396.692813 88.688125 
z
" style="fill:#ffffff;opacity:0.8;stroke:#cccccc;stroke-linejoin:miter;"/>
    </g>
    <g id="patch_5">
     <path d="M 399.492813 59.237813 
L 427.492813 59.237813 
L 427.492813 49.437813 
L 399.492813 49.437813 
z
" style="fill:#ff6384;opacity:0.5;stroke:#ff6384;stroke-linejoin:miter;"/>
    </g>
    <g id="text_1">
     <!-- base -->
     <defs>
      <path d="M 48.6875 27.296875 
Q 48.6875 37.203125 44.609375 42.84375 
Q 40.53125 48.484375 33.40625 48.484375 
Q 26.265625 48.484375 22.1875 42.84375 
Q 18.109375 37.203125 18.109375 27.296875 
Q 18.109375 17.390625 22.1875 11.75 
Q 26.265625 6.109375 33.40625 6.109375 
Q 40.53125 6.109375 44.609375 11.75 
Q 48.6875 17.390625 48.6875 27.296875 
z
M 18.109375 46.390625 
Q 20.953125 51.265625 25.265625 53.625 
Q 29.59375 56 35.59375 56 
Q 45.5625 56 51.78125 48.09375 
Q 58.015625 40.1875 58.015625 27.296875 
Q 58.015625 14.40625 51.78125 6.484375 
Q 45.5625 -1.421875 35.59375 -1.421875 
Q 29.59375 -1.421875 25.265625 0.953125 
Q 20.953125 3.328125 18.109375 8.203125 
L 18.109375 0 
L 9.078125 0 
L 9.078125 75.984375 
L 18.109375 75.984375 
z
" id="DejaVuSans-98"/>
      <path d="M 34.28125 27.484375 
Q 23.390625 27.484375 19.1875 25 
Q 14.984375 22.515625 14.984375 16.5 
Q 14.984375 11.71875 18.140625 8.90625 
Q 21.296875 6.109375 26.703125 6.109375 
Q 34.1875 6.109375 38.703125 11.40625 
Q 43.21875 16.703125 43.21875 25.484375 
L 43.21875 27.484375 
z
M 52.203125 31.203125 
L 52.203125 0 
L 43.21875 0 
L 43.21875 8.296875 
Q 40.140625 3.328125 35.546875 0.953125 
Q 30.953125 -1.421875 24.3125 -1.421875 
Q 15.921875 -1.421875 10.953125 3.296875 
Q 6 8.015625 6 15.921875 
Q 6 25.140625 12.171875 29.828125 
Q 18.359375 34.515625 30.609375 34.515625 
L 43.21875 34.515625 
L 43.21875 35.40625 
Q 43.21875 41.609375 39.140625 45 
Q 35.0625 48.390625 27.6875 48.390625 
Q 23 48.390625 18.546875 47.265625 
Q 14.109375 46.140625 10.015625 43.890625 
L 10.015625 52.203125 
Q 14.9375 54.109375 19.578125 55.046875 
Q 24.21875 56 28.609375 56 
Q 40.484375 56 46.34375 49.84375 
Q 52.203125 43.703125 52.203125 31.203125 
z
" id="DejaVuSans-97"/>
      <path d="M 44.28125 53.078125 
L 44.28125 44.578125 
Q 40.484375 46.53125 36.375 47.5 
Q 32.28125 48.484375 27.875 48.484375 
Q 21.1875 48.484375 17.84375 46.4375 
Q 14.5 44.390625 14.5 40.28125 
Q 14.5 37.15625 16.890625 35.375 
Q 19.28125 33.59375 26.515625 31.984375 
L 29.59375 31.296875 
Q 39.15625 29.25 43.1875 25.515625 
Q 47.21875 21.78125 47.21875 15.09375 
Q 47.21875 7.46875 41.1875 3.015625 
Q 35.15625 -1.421875 24.609375 -1.421875 
Q 20.21875 -1.421875 15.453125 -0.5625 
Q 10.6875 0.296875 5.421875 2 
L 5.421875 11.28125 
Q 10.40625 8.6875 15.234375 7.390625 
Q 20.0625 6.109375 24.8125 6.109375 
Q 31.15625 6.109375 34.5625 8.28125 
Q 37.984375 10.453125 37.984375 14.40625 
Q 37.984375 18.0625 35.515625 20.015625 
Q 33.0625 21.96875 24.703125 23.78125 
L 21.578125 24.515625 
Q 13.234375 26.265625 9.515625 29.90625 
Q 5.8125 33.546875 5.8125 39.890625 
Q 5.8125 47.609375 11.28125 51.796875 
Q 16.75 56 26.8125 56 
Q 31.78125 56 36.171875 55.265625 
Q 40.578125 54.546875 44.28125 53.078125 
z
" id="DejaVuSans-115"/>
      <path d="M 56.203125 29.59375 
L 56.203125 25.203125 
L 14.890625 25.203125 
Q 15.484375 15.921875 20.484375 11.0625 
Q 25.484375 6.203125 34.421875 6.203125 
Q 39.59375 6.203125 44.453125 7.46875 
Q 49.3125 8.734375 54.109375 11.28125 
L 54.109375 2.78125 
Q 49.265625 0.734375 44.1875 -0.34375 
Q 39.109375 -1.421875 33.890625 -1.421875 
Q 20.796875 -1.421875 13.15625 6.1875 
Q 5.515625 13.8125 5.515625 26.8125 
Q 5.515625 40.234375 12.765625 48.109375 
Q 20.015625 56 32.328125 56 
Q 43.359375 56 49.78125 48.890625 
Q 56.203125 41.796875 56.203125 29.59375 
z
M 47.21875 32.234375 
Q 47.125 39.59375 43.09375 43.984375 
Q 39.0625 48.390625 32.421875 48.390625 
Q 24.90625 48.390625 20.390625 44.140625 
Q 15.875 39.890625 15.1875 32.171875 
z
" id="DejaVuSans-101"/>
     </defs>
     <g transform="translate(438.692813 59.237813)scale(0.14 -0.14)">
      <use xlink:href="#DejaVuSans-98"/>
      <use x="63.476562" xlink:href="#DejaVuSans-97"/>
      <use x="124.755859" xlink:href="#DejaVuSans-115"/>
      <use x="176.855469" xlink:href="#DejaVuSans-101"/>
     </g>
    </g>
    <g id="patch_6">
     <path d="M 399.492813 79.787188 
L 427.492813 79.787188 
L 427.492813 69.987188 
L 399.492813 69.987188 
z
" style="fill:#36a2eb;opacity:0.5;stroke:#36a2eb;stroke-linejoin:miter;"/>
    </g>
    <g id="text_2">
     <!-- no_welcome -->
     <defs>
      <path d="M 54.890625 33.015625 
L 54.890625 0 
L 45.90625 0 
L 45.90625 32.71875 
Q 45.90625 40.484375 42.875 44.328125 
Q 39.84375 48.1875 33.796875 48.1875 
Q 26.515625 48.1875 22.3125 43.546875 
Q 18.109375 38.921875 18.109375 30.90625 
L 18.109375 0 
L 9.078125 0 
L 9.078125 54.6875 
L 18.109375 54.6875 
L 18.109375 46.1875 
Q 21.34375 51.125 25.703125 53.5625 
Q 30.078125 56 35.796875 56 
Q 45.21875 56 50.046875 50.171875 
Q 54.890625 44.34375 54.890625 33.015625 
z
" id="DejaVuSans-110"/>
      <path d="M 30.609375 48.390625 
Q 23.390625 48.390625 19.1875 42.75 
Q 14.984375 37.109375 14.984375 27.296875 
Q 14.984375 17.484375 19.15625 11.84375 
Q 23.34375 6.203125 30.609375 6.203125 
Q 37.796875 6.203125 41.984375 11.859375 
Q 46.1875 17.53125 46.1875 27.296875 
Q 46.1875 37.015625 41.984375 42.703125 
Q 37.796875 48.390625 30.609375 48.390625 
z
M 30.609375 56 
Q 42.328125 56 49.015625 48.375 
Q 55.71875 40.765625 55.71875 27.296875 
Q 55.71875 13.875 49.015625 6.21875 
Q 42.328125 -1.421875 30.609375 -1.421875 
Q 18.84375 -1.421875 12.171875 6.21875 
Q 5.515625 13.875 5.515625 27.296875 
Q 5.515625 40.765625 12.171875 48.375 
Q 18.84375 56 30.609375 56 
z
" id="DejaVuSans-111"/>
      <path d="M 50.984375 -16.609375 
L 50.984375 -23.578125 
L -0.984375 -23.578125 
L -0.984375 -16.609375 
z
" id="DejaVuSans-95"/>
      <path d="M 4.203125 54.6875 
L 13.1875 54.6875 
L 24.421875 12.015625 
L 35.59375 54.6875 
L 46.1875 54.6875 
L 57.421875 12.015625 
L 68.609375 54.6875 
L 77.59375 54.6875 
L 63.28125 0 
L 52.6875 0 
L 40.921875 44.828125 
L 29.109375 0 
L 18.5 0 
z
" id="DejaVuSans-119"/>
      <path d="M 9.421875 75.984375 
L 18.40625 75.984375 
L 18.40625 0 
L 9.421875 0 
z
" id="DejaVuSans-108"/>
      <path d="M 48.78125 52.59375 
L 48.78125 44.1875 
Q 44.96875 46.296875 41.140625 47.34375 
Q 37.3125 48.390625 33.40625 48.390625 
Q 24.65625 48.390625 19.8125 42.84375 
Q 14.984375 37.3125 14.984375 27.296875 
Q 14.984375 17.28125 19.8125 11.734375 
Q 24.65625 6.203125 33.40625 6.203125 
Q 37.3125 6.203125 41.140625 7.25 
Q 44.96875 8.296875 48.78125 10.40625 
L 48.78125 2.09375 
Q 45.015625 0.34375 40.984375 -0.53125 
Q 36.96875 -1.421875 32.421875 -1.421875 
Q 20.0625 -1.421875 12.78125 6.34375 
Q 5.515625 14.109375 5.515625 27.296875 
Q 5.515625 40.671875 12.859375 48.328125 
Q 20.21875 56 33.015625 56 
Q 37.15625 56 41.109375 55.140625 
Q 45.0625 54.296875 48.78125 52.59375 
z
" id="DejaVuSans-99"/>
      <path d="M 52 44.1875 
Q 55.375 50.25 60.0625 53.125 
Q 64.75 56 71.09375 56 
Q 79.640625 56 84.28125 50.015625 
Q 88.921875 44.046875 88.921875 33.015625 
L 88.921875 0 
L 79.890625 0 
L 79.890625 32.71875 
Q 79.890625 40.578125 77.09375 44.375 
Q 74.3125 48.1875 68.609375 48.1875 
Q 61.625 48.1875 57.5625 43.546875 
Q 53.515625 38.921875 53.515625 30.90625 
L 53.515625 0 
L 44.484375 0 
L 44.484375 32.71875 
Q 44.484375 40.625 41.703125 44.40625 
Q 38.921875 48.1875 33.109375 48.1875 
Q 26.21875 48.1875 22.15625 43.53125 
Q 18.109375 38.875 18.109375 30.90625 
L 18.109375 0 
L 9.078125 0 
L 9.078125 54.6875 
L 18.109375 54.6875 
L 18.109375 46.1875 
Q 21.1875 51.21875 25.484375 53.609375 
Q 29.78125 56 35.6875 56 
Q 41.65625 56 45.828125 52.96875 
Q 50 49.953125 52 44.1875 
z
" id="DejaVuSans-109"/>
     </defs>
     <g transform="translate(438.692813 79.787188)scale(0.14 -0.14)">
      <use xlink:href="#DejaVuSans-110"/>
      <use x="63.378906" xlink:href="#DejaVuSans-111"/>
      <use x="124.560547" xlink:href="#DejaVuSans-95"/>
      <use x="174.560547" xlink:href="#DejaVuSans-119"/>
      <use x="256.347656" xlink:href="#DejaVuSans-101"/>
      <use x="317.871094" xlink:href="#DejaVuSans-108"/>
      <use x="345.654297" xlink:href="#DejaVuSans-99"/>
      <use x="400.634766" xlink:href="#DejaVuSans-111"/>
      <use x="461.816406" xlink:href="#DejaVuSans-109"/>
      <use x="559.228516" xlink:href="#DejaVuSans-101"/>
     </g>
    </g>
   </g>
  </g>
  <g id="axes_2">
   <g id="patch_7">
    <path d="M 36 534.96 
L 538.2 534.96 
L 538.2 410.22 
L 36 410.22 
z
" style="fill:none;"/>
   </g>
   <g id="patch_8">
    <path clip-path="url(#p32cb6f46d7)" d="M 168.724642 529.29 
L 379.899978 529.29 
L 379.899978 491.49 
L 168.724642 491.49 
z
" style="fill:#ff6384;opacity:0.5;"/>
   </g>
   <g id="patch_9">
    <path clip-path="url(#p32cb6f46d7)" d="M 188.871035 453.69 
L 403.617114 453.69 
L 403.617114 415.89 
L 188.871035 415.89 
z
" style="fill:#36a2eb;opacity:0.5;"/>
   </g>
   <g id="matplotlib.axis_1">
    <g id="xtick_1">
     <g id="line2d_3">
      <defs>
       <path d="M 0 0 
L 0 3.5 
" id="m97c7a04ad8" style="stroke:#000000;stroke-width:0.8;"/>
      </defs>
      <g>
       <use style="stroke:#000000;stroke-width:0.8;" x="129.562663" xlink:href="#m97c7a04ad8" y="534.96"/>
      </g>
     </g>
     <g id="text_3">
      <!-- 10.5 -->
      <defs>
       <path d="M 12.40625 8.296875 
L 28.515625 8.296875 
L 28.515625 63.921875 
L 10.984375 60.40625 
L 10.984375 69.390625 
L 28.421875 72.90625 
L 38.28125 72.90625 
L 38.28125 8.296875 
L 54.390625 8.296875 
L 54.390625 0 
L 12.40625 0 
z
" id="DejaVuSans-49"/>
       <path d="M 31.78125 66.40625 
Q 24.171875 66.40625 20.328125 58.90625 
Q 16.5 51.421875 16.5 36.375 
Q 16.5 21.390625 20.328125 13.890625 
Q 24.171875 6.390625 31.78125 6.390625 
Q 39.453125 6.390625 43.28125 13.890625 
Q 47.125 21.390625 47.125 36.375 
Q 47.125 51.421875 43.28125 58.90625 
Q 39.453125 66.40625 31.78125 66.40625 
z
M 31.78125 74.21875 
Q 44.046875 74.21875 50.515625 64.515625 
Q 56.984375 54.828125 56.984375 36.375 
Q 56.984375 17.96875 50.515625 8.265625 
Q 44.046875 -1.421875 31.78125 -1.421875 
Q 19.53125 -1.421875 13.0625 8.265625 
Q 6.59375 17.96875 6.59375 36.375 
Q 6.59375 54.828125 13.0625 64.515625 
Q 19.53125 74.21875 31.78125 74.21875 
z
" id="DejaVuSans-48"/>
       <path d="M 10.6875 12.40625 
L 21 12.40625 
L 21 0 
L 10.6875 0 
z
" id="DejaVuSans-46"/>
       <path d="M 10.796875 72.90625 
L 49.515625 72.90625 
L 49.515625 64.59375 
L 19.828125 64.59375 
L 19.828125 46.734375 
Q 21.96875 47.46875 24.109375 47.828125 
Q 26.265625 48.1875 28.421875 48.1875 
Q 40.625 48.1875 47.75 41.5 
Q 54.890625 34.8125 54.890625 23.390625 
Q 54.890625 11.625 47.5625 5.09375 
Q 40.234375 -1.421875 26.90625 -1.421875 
Q 22.3125 -1.421875 17.546875 -0.640625 
Q 12.796875 0.140625 7.71875 1.703125 
L 7.71875 11.625 
Q 12.109375 9.234375 16.796875 8.0625 
Q 21.484375 6.890625 26.703125 6.890625 
Q 35.15625 6.890625 40.078125 11.328125 
Q 45.015625 15.765625 45.015625 23.390625 
Q 45.015625 31 40.078125 35.4375 
Q 35.15625 39.890625 26.703125 39.890625 
Q 22.75 39.890625 18.8125 39.015625 
Q 14.890625 38.140625 10.796875 36.28125 
z
" id="DejaVuSans-53"/>
      </defs>
      <g transform="translate(113.976726 552.597813)scale(0.14 -0.14)">
       <use xlink:href="#DejaVuSans-49"/>
       <use x="63.623047" xlink:href="#DejaVuSans-48"/>
       <use x="127.246094" xlink:href="#DejaVuSans-46"/>
       <use x="159.033203" xlink:href="#DejaVuSans-53"/>
      </g>
     </g>
    </g>
    <g id="xtick_2">
     <g id="line2d_4">
      <g>
       <use style="stroke:#000000;stroke-width:0.8;" x="239.221486" xlink:href="#m97c7a04ad8" y="534.96"/>
      </g>
     </g>
     <g id="text_4">
      <!-- 11.0 -->
      <g transform="translate(223.635549 552.597813)scale(0.14 -0.14)">
       <use xlink:href="#DejaVuSans-49"/>
       <use x="63.623047" xlink:href="#DejaVuSans-49"/>
       <use x="127.246094" xlink:href="#DejaVuSans-46"/>
       <use x="159.033203" xlink:href="#DejaVuSans-48"/>
      </g>
     </g>
    </g>
    <g id="xtick_3">
     <g id="line2d_5">
      <g>
       <use style="stroke:#000000;stroke-width:0.8;" x="348.88031" xlink:href="#m97c7a04ad8" y="534.96"/>
      </g>
     </g>
     <g id="text_5">
      <!-- 11.5 -->
      <g transform="translate(333.294372 552.597813)scale(0.14 -0.14)">
       <use xlink:href="#DejaVuSans-49"/>
       <use x="63.623047" xlink:href="#DejaVuSans-49"/>
       <use x="127.246094" xlink:href="#DejaVuSans-46"/>
       <use x="159.033203" xlink:href="#DejaVuSans-53"/>
      </g>
     </g>
    </g>
    <g id="xtick_4">
     <g id="line2d_6">
      <g>
       <use style="stroke:#000000;stroke-width:0.8;" x="458.539133" xlink:href="#m97c7a04ad8" y="534.96"/>
      </g>
     </g>
     <g id="text_6">
      <!-- 12.0 -->
      <defs>
       <path d="M 19.1875 8.296875 
L 53.609375 8.296875 
L 53.609375 0 
L 7.328125 0 
L 7.328125 8.296875 
Q 12.9375 14.109375 22.625 23.890625 
Q 32.328125 33.6875 34.8125 36.53125 
Q 39.546875 41.84375 41.421875 45.53125 
Q 43.3125 49.21875 43.3125 52.78125 
Q 43.3125 58.59375 39.234375 62.25 
Q 35.15625 65.921875 28.609375 65.921875 
Q 23.96875 65.921875 18.8125 64.3125 
Q 13.671875 62.703125 7.8125 59.421875 
L 7.8125 69.390625 
Q 13.765625 71.78125 18.9375 73 
Q 24.125 74.21875 28.421875 74.21875 
Q 39.75 74.21875 46.484375 68.546875 
Q 53.21875 62.890625 53.21875 53.421875 
Q 53.21875 48.921875 51.53125 44.890625 
Q 49.859375 40.875 45.40625 35.40625 
Q 44.1875 33.984375 37.640625 27.21875 
Q 31.109375 20.453125 19.1875 8.296875 
z
" id="DejaVuSans-50"/>
      </defs>
      <g transform="translate(442.953196 552.597813)scale(0.14 -0.14)">
       <use xlink:href="#DejaVuSans-49"/>
       <use x="63.623047" xlink:href="#DejaVuSans-50"/>
       <use x="127.246094" xlink:href="#DejaVuSans-46"/>
       <use x="159.033203" xlink:href="#DejaVuSans-48"/>
      </g>
     </g>
    </g>
   </g>
   <g id="line2d_7">
    <path clip-path="url(#p32cb6f46d7)" d="M 274.31231 534.96 
L 274.31231 410.22 
" style="fill:none;stroke:#ff6384;stroke-dasharray:5.55,2.4;stroke-dashoffset:0;stroke-opacity:0.8;stroke-width:1.5;"/>
   </g>
   <g id="line2d_8">
    <path clip-path="url(#p32cb6f46d7)" d="M 296.244075 534.96 
L 296.244075 410.22 
" style="fill:none;stroke:#36a2eb;stroke-dasharray:5.55,2.4;stroke-dashoffset:0;stroke-opacity:0.8;stroke-width:1.5;"/>
   </g>
   <g id="patch_10">
    <path d="M 36 534.96 
L 538.2 534.96 
" style="fill:none;stroke:#000000;stroke-linecap:square;stroke-linejoin:miter;stroke-width:0.8;"/>
   </g>
  </g>
 </g>
 <defs>
  <clipPath id="p29c86135d0">
   <rect height="374.22" width="502.2" x="36" y="36"/>
  </clipPath>
  <clipPath id="p32cb6f46d7">
   <rect height="124.74" width="502.2" x="36" y="410.22"/>
  </clipPath>
 </defs>
</svg>
