<?xml version="1.0" encoding="utf-8" standalone="no"?>
<!DOCTYPE svg PUBLIC "-//W3C//DTD SVG 1.1//EN"
  "http://www.w3.org/Graphics/SVG/1.1/DTD/svg11.dtd">
<!-- Created with matplotlib (https://matplotlib.org/) -->
<svg height="581.789375pt" version="1.1" viewBox="0 0 574.2 581.789375" width="574.2pt" xmlns="http://www.w3.org/2000/svg" xmlns:xlink="http://www.w3.org/1999/xlink">
 <defs>
  <style type="text/css">
*{stroke-linecap:butt;stroke-linejoin:round;}
  </style>
 </defs>
 <g id="figure_1">
  <g id="patch_1">
   <path d="M 0 581.789375 
L 574.2 581.789375 
L 574.2 0 
L 0 0 
z
" style="fill:none;"/>
  </g>
  <g id="axes_1">
   <g id="patch_2">
    <path d="M 36 402.93 
L 538.2 402.93 
L 538.2 36 
L 36 36 
z
" style="fill:none;"/>
   </g>
   <g id="PolyCollection_1">
    <defs>
     <path d="M 105.754582 -195.538011 
L 105.754582 -195.645701 
L 109.892139 -195.686309 
L 114.029696 -195.7409 
L 118.167253 -195.81378 
L 122.30481 -195.910401 
L 126.442367 -196.037601 
L 130.579924 -196.203889 
L 134.717481 -196.419748 
L 138.855038 -196.697983 
L 142.992595 -197.054085 
L 147.130152 -197.506609 
L 151.267709 -198.077567 
L 155.405266 -198.7928 
L 159.542823 -199.682317 
L 163.68038 -200.780589 
L 167.817937 -202.126746 
L 171.955494 -203.764667 
L 176.093051 -205.742909 
L 180.230608 -208.114461 
L 184.368165 -210.936269 
L 188.505722 -214.268502 
L 192.643279 -218.173549 
L 196.780836 -222.714702 
L 200.918393 -227.954532 
L 205.05595 -233.952964 
L 209.193507 -240.765064 
L 213.331064 -248.438582 
L 217.468621 -257.011308 
L 221.606178 -266.508326 
L 225.743735 -276.939255 
L 229.881293 -288.295596 
L 234.01885 -300.548312 
L 238.156407 -313.645777 
L 242.293964 -327.512225 
L 246.431521 -342.04684 
L 250.569078 -357.123586 
L 254.706635 -372.591896 
L 258.844192 -388.278259 
L 262.981749 -403.988754 
L 267.119306 -419.512504 
L 271.256863 -434.625999 
L 275.39442 -449.09818 
L 279.531977 -462.696137 
L 283.669534 -475.191231 
L 287.807091 -486.365425 
L 291.944648 -496.017574 
L 296.082205 -503.969433 
L 300.219762 -510.071125 
L 304.357319 -514.205834 
L 308.494876 -516.293527 
L 312.632433 -516.293527 
L 316.76999 -514.205834 
L 320.907547 -510.071125 
L 325.045104 -503.969433 
L 329.182661 -496.017574 
L 333.320218 -486.365425 
L 337.457775 -475.191231 
L 341.595332 -462.696137 
L 345.732889 -449.09818 
L 349.870446 -434.625999 
L 354.008003 -419.512504 
L 358.14556 -403.988754 
L 362.283117 -388.278259 
L 366.420674 -372.591896 
L 370.558231 -357.123586 
L 374.695788 -342.04684 
L 378.833345 -327.512225 
L 382.970902 -313.645777 
L 387.108459 -300.548312 
L 391.246017 -288.295596 
L 395.383574 -276.939255 
L 399.521131 -266.508326 
L 403.658688 -257.011308 
L 407.796245 -248.438582 
L 411.933802 -240.765064 
L 416.071359 -233.952964 
L 420.208916 -227.954532 
L 424.346473 -222.714702 
L 428.48403 -218.173549 
L 432.621587 -214.268502 
L 436.759144 -210.936269 
L 440.896701 -208.114461 
L 445.034258 -205.742909 
L 449.171815 -203.764667 
L 453.309372 -202.126746 
L 457.446929 -200.780589 
L 461.584486 -199.682317 
L 465.722043 -198.7928 
L 469.8596 -198.077567 
L 473.997157 -197.506609 
L 478.134714 -197.054085 
L 482.272271 -196.697983 
L 486.409828 -196.419748 
L 490.547385 -196.203889 
L 494.684942 -196.037601 
L 498.822499 -195.910401 
L 502.960056 -195.81378 
L 507.097613 -195.7409 
L 511.23517 -195.686309 
L 515.372727 -195.645701 
L 515.372727 -195.538011 
L 515.372727 -195.538011 
L 511.23517 -195.538011 
L 507.097613 -195.538011 
L 502.960056 -195.538011 
L 498.822499 -195.538011 
L 494.684942 -195.538011 
L 490.547385 -195.538011 
L 486.409828 -195.538011 
L 482.272271 -195.538011 
L 478.134714 -195.538011 
L 473.997157 -195.538011 
L 469.8596 -195.538011 
L 465.722043 -195.538011 
L 461.584486 -195.538011 
L 457.446929 -195.538011 
L 453.309372 -195.538011 
L 449.171815 -195.538011 
L 445.034258 -195.538011 
L 440.896701 -195.538011 
L 436.759144 -195.538011 
L 432.621587 -195.538011 
L 428.48403 -195.538011 
L 424.346473 -195.538011 
L 420.208916 -195.538011 
L 416.071359 -195.538011 
L 411.933802 -195.538011 
L 407.796245 -195.538011 
L 403.658688 -195.538011 
L 399.521131 -195.538011 
L 395.383574 -195.538011 
L 391.246017 -195.538011 
L 387.108459 -195.538011 
L 382.970902 -195.538011 
L 378.833345 -195.538011 
L 374.695788 -195.538011 
L 370.558231 -195.538011 
L 366.420674 -195.538011 
L 362.283117 -195.538011 
L 358.14556 -195.538011 
L 354.008003 -195.538011 
L 349.870446 -195.538011 
L 345.732889 -195.538011 
L 341.595332 -195.538011 
L 337.457775 -195.538011 
L 333.320218 -195.538011 
L 329.182661 -195.538011 
L 325.045104 -195.538011 
L 320.907547 -195.538011 
L 316.76999 -195.538011 
L 312.632433 -195.538011 
L 308.494876 -195.538011 
L 304.357319 -195.538011 
L 300.219762 -195.538011 
L 296.082205 -195.538011 
L 291.944648 -195.538011 
L 287.807091 -195.538011 
L 283.669534 -195.538011 
L 279.531977 -195.538011 
L 275.39442 -195.538011 
L 271.256863 -195.538011 
L 267.119306 -195.538011 
L 262.981749 -195.538011 
L 258.844192 -195.538011 
L 254.706635 -195.538011 
L 250.569078 -195.538011 
L 246.431521 -195.538011 
L 242.293964 -195.538011 
L 238.156407 -195.538011 
L 234.01885 -195.538011 
L 229.881293 -195.538011 
L 225.743735 -195.538011 
L 221.606178 -195.538011 
L 217.468621 -195.538011 
L 213.331064 -195.538011 
L 209.193507 -195.538011 
L 205.05595 -195.538011 
L 200.918393 -195.538011 
L 196.780836 -195.538011 
L 192.643279 -195.538011 
L 188.505722 -195.538011 
L 184.368165 -195.538011 
L 180.230608 -195.538011 
L 176.093051 -195.538011 
L 171.955494 -195.538011 
L 167.817937 -195.538011 
L 163.68038 -195.538011 
L 159.542823 -195.538011 
L 155.405266 -195.538011 
L 151.267709 -195.538011 
L 147.130152 -195.538011 
L 142.992595 -195.538011 
L 138.855038 -195.538011 
L 134.717481 -195.538011 
L 130.579924 -195.538011 
L 126.442367 -195.538011 
L 122.30481 -195.538011 
L 118.167253 -195.538011 
L 114.029696 -195.538011 
L 109.892139 -195.538011 
L 105.754582 -195.538011 
z
" id="m787dce2fcc" style="stroke:#ff6384;stroke-opacity:0.5;"/>
    </defs>
    <g clip-path="url(#pba29c6de25)">
     <use style="fill:#ff6384;fill-opacity:0.5;stroke:#ff6384;stroke-opacity:0.5;" x="0" xlink:href="#m787dce2fcc" y="581.789375"/>
    </g>
   </g>
   <g id="PolyCollection_2">
    <defs>
     <path d="M 58.827273 -195.538011 
L 58.827273 -195.650004 
L 62.805848 -195.692234 
L 66.784423 -195.749007 
L 70.762999 -195.8248 
L 74.741574 -195.925281 
L 78.72015 -196.057565 
L 82.698725 -196.230497 
L 86.6773 -196.454982 
L 90.655876 -196.744335 
L 94.634451 -197.114666 
L 98.613026 -197.585273 
L 102.591602 -198.179047 
L 106.570177 -198.922859 
L 110.548753 -199.847921 
L 114.527328 -200.990079 
L 118.505903 -202.390029 
L 122.484479 -204.093399 
L 126.463054 -206.150691 
L 130.441629 -208.617009 
L 134.420205 -211.551575 
L 138.39878 -215.016962 
L 142.377356 -219.078053 
L 146.355931 -223.800667 
L 150.334506 -229.249878 
L 154.313082 -235.488004 
L 158.291657 -242.572312 
L 162.270232 -250.552459 
L 166.248808 -259.467747 
L 170.227383 -269.344261 
L 174.205958 -280.192004 
L 178.184534 -292.002137 
L 182.163109 -304.744465 
L 186.141685 -318.365297 
L 190.12026 -332.785841 
L 194.098835 -347.901251 
L 198.077411 -363.580456 
L 202.055986 -379.666871 
L 206.034561 -395.980052 
L 210.013137 -412.31833 
L 213.991712 -428.4624 
L 217.970288 -444.179822 
L 221.948863 -459.230303 
L 225.927438 -473.371627 
L 229.906014 -486.366018 
L 233.884589 -497.986726 
L 237.863164 -508.02457 
L 241.84174 -516.294181 
L 245.820315 -522.639693 
L 249.798891 -526.939623 
L 253.777466 -529.110739 
L 257.756041 -529.110739 
L 261.734617 -526.939623 
L 265.713192 -522.639693 
L 269.691767 -516.294181 
L 273.670343 -508.02457 
L 277.648918 -497.986726 
L 281.627493 -486.366018 
L 285.606069 -473.371627 
L 289.584644 -459.230303 
L 293.56322 -444.179822 
L 297.541795 -428.4624 
L 301.52037 -412.31833 
L 305.498946 -395.980052 
L 309.477521 -379.666871 
L 313.456096 -363.580456 
L 317.434672 -347.901251 
L 321.413247 -332.785841 
L 325.391823 -318.365297 
L 329.370398 -304.744465 
L 333.348973 -292.002137 
L 337.327549 -280.192004 
L 341.306124 -269.344261 
L 345.284699 -259.467747 
L 349.263275 -250.552459 
L 353.24185 -242.572312 
L 357.220426 -235.488004 
L 361.199001 -229.249878 
L 365.177576 -223.800667 
L 369.156152 -219.078053 
L 373.134727 -215.016962 
L 377.113302 -211.551575 
L 381.091878 -208.617009 
L 385.070453 -206.150691 
L 389.049029 -204.093399 
L 393.027604 -202.390029 
L 397.006179 -200.990079 
L 400.984755 -199.847921 
L 404.96333 -198.922859 
L 408.941905 -198.179047 
L 412.920481 -197.585273 
L 416.899056 -197.114666 
L 420.877631 -196.744335 
L 424.856207 -196.454982 
L 428.834782 -196.230497 
L 432.813358 -196.057565 
L 436.791933 -195.925281 
L 440.770508 -195.8248 
L 444.749084 -195.749007 
L 448.727659 -195.692234 
L 452.706234 -195.650004 
L 452.706234 -195.538011 
L 452.706234 -195.538011 
L 448.727659 -195.538011 
L 444.749084 -195.538011 
L 440.770508 -195.538011 
L 436.791933 -195.538011 
L 432.813358 -195.538011 
L 428.834782 -195.538011 
L 424.856207 -195.538011 
L 420.877631 -195.538011 
L 416.899056 -195.538011 
L 412.920481 -195.538011 
L 408.941905 -195.538011 
L 404.96333 -195.538011 
L 400.984755 -195.538011 
L 397.006179 -195.538011 
L 393.027604 -195.538011 
L 389.049029 -195.538011 
L 385.070453 -195.538011 
L 381.091878 -195.538011 
L 377.113302 -195.538011 
L 373.134727 -195.538011 
L 369.156152 -195.538011 
L 365.177576 -195.538011 
L 361.199001 -195.538011 
L 357.220426 -195.538011 
L 353.24185 -195.538011 
L 349.263275 -195.538011 
L 345.284699 -195.538011 
L 341.306124 -195.538011 
L 337.327549 -195.538011 
L 333.348973 -195.538011 
L 329.370398 -195.538011 
L 325.391823 -195.538011 
L 321.413247 -195.538011 
L 317.434672 -195.538011 
L 313.456096 -195.538011 
L 309.477521 -195.538011 
L 305.498946 -195.538011 
L 301.52037 -195.538011 
L 297.541795 -195.538011 
L 293.56322 -195.538011 
L 289.584644 -195.538011 
L 285.606069 -195.538011 
L 281.627493 -195.538011 
L 277.648918 -195.538011 
L 273.670343 -195.538011 
L 269.691767 -195.538011 
L 265.713192 -195.538011 
L 261.734617 -195.538011 
L 257.756041 -195.538011 
L 253.777466 -195.538011 
L 249.798891 -195.538011 
L 245.820315 -195.538011 
L 241.84174 -195.538011 
L 237.863164 -195.538011 
L 233.884589 -195.538011 
L 229.906014 -195.538011 
L 225.927438 -195.538011 
L 221.948863 -195.538011 
L 217.970288 -195.538011 
L 213.991712 -195.538011 
L 210.013137 -195.538011 
L 206.034561 -195.538011 
L 202.055986 -195.538011 
L 198.077411 -195.538011 
L 194.098835 -195.538011 
L 190.12026 -195.538011 
L 186.141685 -195.538011 
L 182.163109 -195.538011 
L 178.184534 -195.538011 
L 174.205958 -195.538011 
L 170.227383 -195.538011 
L 166.248808 -195.538011 
L 162.270232 -195.538011 
L 158.291657 -195.538011 
L 154.313082 -195.538011 
L 150.334506 -195.538011 
L 146.355931 -195.538011 
L 142.377356 -195.538011 
L 138.39878 -195.538011 
L 134.420205 -195.538011 
L 130.441629 -195.538011 
L 126.463054 -195.538011 
L 122.484479 -195.538011 
L 118.505903 -195.538011 
L 114.527328 -195.538011 
L 110.548753 -195.538011 
L 106.570177 -195.538011 
L 102.591602 -195.538011 
L 98.613026 -195.538011 
L 94.634451 -195.538011 
L 90.655876 -195.538011 
L 86.6773 -195.538011 
L 82.698725 -195.538011 
L 78.72015 -195.538011 
L 74.741574 -195.538011 
L 70.762999 -195.538011 
L 66.784423 -195.538011 
L 62.805848 -195.538011 
L 58.827273 -195.538011 
z
" id="m9f76d4da98" style="stroke:#36a2eb;stroke-opacity:0.5;"/>
    </defs>
    <g clip-path="url(#pba29c6de25)">
     <use style="fill:#36a2eb;fill-opacity:0.5;stroke:#36a2eb;stroke-opacity:0.5;" x="0" xlink:href="#m9f76d4da98" y="581.789375"/>
    </g>
   </g>
   <g id="line2d_1">
    <path clip-path="url(#pba29c6de25)" d="M 105.754582 386.143674 
L 109.892139 386.103066 
L 114.029696 386.048475 
L 118.167253 385.975595 
L 122.30481 385.878974 
L 126.442367 385.751774 
L 130.579924 385.585486 
L 134.717481 385.369627 
L 138.855038 385.091392 
L 142.992595 384.73529 
L 147.130152 384.282766 
L 151.267709 383.711808 
L 155.405266 382.996575 
L 159.542823 382.107058 
L 163.68038 381.008786 
L 167.817937 379.662629 
L 171.955494 378.024708 
L 176.093051 376.046466 
L 180.230608 373.674914 
L 184.368165 370.853106 
L 188.505722 367.520873 
L 192.643279 363.615826 
L 196.780836 359.074673 
L 200.918393 353.834843 
L 205.05595 347.836411 
L 209.193507 341.024311 
L 213.331064 333.350793 
L 217.468621 324.778067 
L 221.606178 315.281049 
L 225.743735 304.85012 
L 229.881293 293.493779 
L 234.01885 281.241063 
L 238.156407 268.143598 
L 242.293964 254.27715 
L 246.431521 239.742535 
L 250.569078 224.665789 
L 254.706635 209.197479 
L 258.844192 193.511116 
L 262.981749 177.800621 
L 267.119306 162.276871 
L 271.256863 147.163376 
L 275.39442 132.691195 
L 279.531977 119.093238 
L 283.669534 106.598144 
L 287.807091 95.42395 
L 291.944648 85.771801 
L 296.082205 77.819942 
L 300.219762 71.71825 
L 304.357319 67.583541 
L 308.494876 65.495848 
L 312.632433 65.495848 
L 316.76999 67.583541 
L 320.907547 71.71825 
L 325.045104 77.819942 
L 329.182661 85.771801 
L 333.320218 95.42395 
L 337.457775 106.598144 
L 341.595332 119.093238 
L 345.732889 132.691195 
L 349.870446 147.163376 
L 354.008003 162.276871 
L 358.14556 177.800621 
L 362.283117 193.511116 
L 366.420674 209.197479 
L 370.558231 224.665789 
L 374.695788 239.742535 
L 378.833345 254.27715 
L 382.970902 268.143598 
L 387.108459 281.241063 
L 391.246017 293.493779 
L 395.383574 304.85012 
L 399.521131 315.281049 
L 403.658688 324.778067 
L 407.796245 333.350793 
L 411.933802 341.024311 
L 416.071359 347.836411 
L 420.208916 353.834843 
L 424.346473 359.074673 
L 428.48403 363.615826 
L 432.621587 367.520873 
L 436.759144 370.853106 
L 440.896701 373.674914 
L 445.034258 376.046466 
L 449.171815 378.024708 
L 453.309372 379.662629 
L 457.446929 381.008786 
L 461.584486 382.107058 
L 465.722043 382.996575 
L 469.8596 383.711808 
L 473.997157 384.282766 
L 478.134714 384.73529 
L 482.272271 385.091392 
L 486.409828 385.369627 
L 490.547385 385.585486 
L 494.684942 385.751774 
L 498.822499 385.878974 
L 502.960056 385.975595 
L 507.097613 386.048475 
L 511.23517 386.103066 
L 515.372727 386.143674 
" style="fill:none;stroke:#ff6384;stroke-linecap:square;"/>
   </g>
   <g id="line2d_2">
    <path clip-path="url(#pba29c6de25)" d="M 58.827273 386.139371 
L 62.805848 386.097141 
L 66.784423 386.040368 
L 70.762999 385.964575 
L 74.741574 385.864094 
L 78.72015 385.73181 
L 82.698725 385.558878 
L 86.6773 385.334393 
L 90.655876 385.04504 
L 94.634451 384.674709 
L 98.613026 384.204102 
L 102.591602 383.610328 
L 106.570177 382.866516 
L 110.548753 381.941454 
L 114.527328 380.799296 
L 118.505903 379.399346 
L 122.484479 377.695976 
L 126.463054 375.638684 
L 130.441629 373.172366 
L 134.420205 370.2378 
L 138.39878 366.772413 
L 142.377356 362.711322 
L 146.355931 357.988708 
L 150.334506 352.539497 
L 154.313082 346.301371 
L 158.291657 339.217063 
L 162.270232 331.236916 
L 166.248808 322.321628 
L 170.227383 312.445114 
L 174.205958 301.597371 
L 178.184534 289.787238 
L 182.163109 277.04491 
L 186.141685 263.424078 
L 190.12026 249.003534 
L 194.098835 233.888124 
L 198.077411 218.208919 
L 202.055986 202.122504 
L 206.034561 185.809323 
L 210.013137 169.471045 
L 213.991712 153.326975 
L 217.970288 137.609553 
L 221.948863 122.559072 
L 225.927438 108.417748 
L 229.906014 95.423357 
L 233.884589 83.802649 
L 237.863164 73.764805 
L 241.84174 65.495194 
L 245.820315 59.149682 
L 249.798891 54.849752 
L 253.777466 52.678636 
L 257.756041 52.678636 
L 261.734617 54.849752 
L 265.713192 59.149682 
L 269.691767 65.495194 
L 273.670343 73.764805 
L 277.648918 83.802649 
L 281.627493 95.423357 
L 285.606069 108.417748 
L 289.584644 122.559072 
L 293.56322 137.609553 
L 297.541795 153.326975 
L 301.52037 169.471045 
L 305.498946 185.809323 
L 309.477521 202.122504 
L 313.456096 218.208919 
L 317.434672 233.888124 
L 321.413247 249.003534 
L 325.391823 263.424078 
L 329.370398 277.04491 
L 333.348973 289.787238 
L 337.327549 301.597371 
L 341.306124 312.445114 
L 345.284699 322.321628 
L 349.263275 331.236916 
L 353.24185 339.217063 
L 357.220426 346.301371 
L 361.199001 352.539497 
L 365.177576 357.988708 
L 369.156152 362.711322 
L 373.134727 366.772413 
L 377.113302 370.2378 
L 381.091878 373.172366 
L 385.070453 375.638684 
L 389.049029 377.695976 
L 393.027604 379.399346 
L 397.006179 380.799296 
L 400.984755 381.941454 
L 404.96333 382.866516 
L 408.941905 383.610328 
L 412.920481 384.204102 
L 416.899056 384.674709 
L 420.877631 385.04504 
L 424.856207 385.334393 
L 428.834782 385.558878 
L 432.813358 385.73181 
L 436.791933 385.864094 
L 440.770508 385.964575 
L 444.749084 386.040368 
L 448.727659 386.097141 
L 452.706234 386.139371 
" style="fill:none;stroke:#36a2eb;stroke-linecap:square;"/>
   </g>
   <g id="patch_3">
    <path d="M 36 402.93 
L 538.2 402.93 
" style="fill:none;stroke:#000000;stroke-linecap:square;stroke-linejoin:miter;stroke-width:0.8;"/>
   </g>
   <g id="legend_1">
    <g id="patch_4">
     <path d="M 396.692813 88.688125 
L 528.4 88.688125 
Q 531.2 88.688125 531.2 85.888125 
L 531.2 45.8 
Q 531.2 43 528.4 43 
L 396.692813 43 
Q 393.892813 43 393.892813 45.8 
L 393.892813 85.888125 
Q 393.892813 88.688125 396.692813 88.688125 
z
" style="fill:#ffffff;opacity:0.8;stroke:#cccccc;stroke-linejoin:miter;"/>
    </g>
    <g id="patch_5">
     <path d="M 399.492813 59.237813 
L 427.492813 59.237813 
L 427.492813 49.437813 
L 399.492813 49.437813 
z
" style="fill:#ff6384;opacity:0.5;stroke:#ff6384;stroke-linejoin:miter;"/>
    </g>
    <g id="text_1">
     <!-- base -->
     <defs>
      <path d="M 48.6875 27.296875 
Q 48.6875 37.203125 44.609375 42.84375 
Q 40.53125 48.484375 33.40625 48.484375 
Q 26.265625 48.484375 22.1875 42.84375 
Q 18.109375 37.203125 18.109375 27.296875 
Q 18.109375 17.390625 22.1875 11.75 
Q 26.265625 6.109375 33.40625 6.109375 
Q 40.53125 6.109375 44.609375 11.75 
Q 48.6875 17.390625 48.6875 27.296875 
z
M 18.109375 46.390625 
Q 20.953125 51.265625 25.265625 53.625 
Q 29.59375 56 35.59375 56 
Q 45.5625 56 51.78125 48.09375 
Q 58.015625 40.1875 58.015625 27.296875 
Q 58.015625 14.40625 51.78125 6.484375 
Q 45.5625 -1.421875 35.59375 -1.421875 
Q 29.59375 -1.421875 25.265625 0.953125 
Q 20.953125 3.328125 18.109375 8.203125 
L 18.109375 0 
L 9.078125 0 
L 9.078125 75.984375 
L 18.109375 75.984375 
z
" id="DejaVuSans-98"/>
      <path d="M 34.28125 27.484375 
Q 23.390625 27.484375 19.1875 25 
Q 14.984375 22.515625 14.984375 16.5 
Q 14.984375 11.71875 18.140625 8.90625 
Q 21.296875 6.109375 26.703125 6.109375 
Q 34.1875 6.109375 38.703125 11.40625 
Q 43.21875 16.703125 43.21875 25.484375 
L 43.21875 27.484375 
z
M 52.203125 31.203125 
L 52.203125 0 
L 43.21875 0 
L 43.21875 8.296875 
Q 40.140625 3.328125 35.546875 0.953125 
Q 30.953125 -1.421875 24.3125 -1.421875 
Q 15.921875 -1.421875 10.953125 3.296875 
Q 6 8.015625 6 15.921875 
Q 6 25.140625 12.171875 29.828125 
Q 18.359375 34.515625 30.609375 34.515625 
L 43.21875 34.515625 
L 43.21875 35.40625 
Q 43.21875 41.609375 39.140625 45 
Q 35.0625 48.390625 27.6875 48.390625 
Q 23 48.390625 18.546875 47.265625 
Q 14.109375 46.140625 10.015625 43.890625 
L 10.015625 52.203125 
Q 14.9375 54.109375 19.578125 55.046875 
Q 24.21875 56 28.609375 56 
Q 40.484375 56 46.34375 49.84375 
Q 52.203125 43.703125 52.203125 31.203125 
z
" id="DejaVuSans-97"/>
      <path d="M 44.28125 53.078125 
L 44.28125 44.578125 
Q 40.484375 46.53125 36.375 47.5 
Q 32.28125 48.484375 27.875 48.484375 
Q 21.1875 48.484375 17.84375 46.4375 
Q 14.5 44.390625 14.5 40.28125 
Q 14.5 37.15625 16.890625 35.375 
Q 19.28125 33.59375 26.515625 31.984375 
L 29.59375 31.296875 
Q 39.15625 29.25 43.1875 25.515625 
Q 47.21875 21.78125 47.21875 15.09375 
Q 47.21875 7.46875 41.1875 3.015625 
Q 35.15625 -1.421875 24.609375 -1.421875 
Q 20.21875 -1.421875 15.453125 -0.5625 
Q 10.6875 0.296875 5.421875 2 
L 5.421875 11.28125 
Q 10.40625 8.6875 15.234375 7.390625 
Q 20.0625 6.109375 24.8125 6.109375 
Q 31.15625 6.109375 34.5625 8.28125 
Q 37.984375 10.453125 37.984375 14.40625 
Q 37.984375 18.0625 35.515625 20.015625 
Q 33.0625 21.96875 24.703125 23.78125 
L 21.578125 24.515625 
Q 13.234375 26.265625 9.515625 29.90625 
Q 5.8125 33.546875 5.8125 39.890625 
Q 5.8125 47.609375 11.28125 51.796875 
Q 16.75 56 26.8125 56 
Q 31.78125 56 36.171875 55.265625 
Q 40.578125 54.546875 44.28125 53.078125 
z
" id="DejaVuSans-115"/>
      <path d="M 56.203125 29.59375 
L 56.203125 25.203125 
L 14.890625 25.203125 
Q 15.484375 15.921875 20.484375 11.0625 
Q 25.484375 6.203125 34.421875 6.203125 
Q 39.59375 6.203125 44.453125 7.46875 
Q 49.3125 8.734375 54.109375 11.28125 
L 54.109375 2.78125 
Q 49.265625 0.734375 44.1875 -0.34375 
Q 39.109375 -1.421875 33.890625 -1.421875 
Q 20.796875 -1.421875 13.15625 6.1875 
Q 5.515625 13.8125 5.515625 26.8125 
Q 5.515625 40.234375 12.765625 48.109375 
Q 20.015625 56 32.328125 56 
Q 43.359375 56 49.78125 48.890625 
Q 56.203125 41.796875 56.203125 29.59375 
z
M 47.21875 32.234375 
Q 47.125 39.59375 43.09375 43.984375 
Q 39.0625 48.390625 32.421875 48.390625 
Q 24.90625 48.390625 20.390625 44.140625 
Q 15.875 39.890625 15.1875 32.171875 
z
" id="DejaVuSans-101"/>
     </defs>
     <g transform="translate(438.692813 59.237813)scale(0.14 -0.14)">
      <use xlink:href="#DejaVuSans-98"/>
      <use x="63.476562" xlink:href="#DejaVuSans-97"/>
      <use x="124.755859" xlink:href="#DejaVuSans-115"/>
      <use x="176.855469" xlink:href="#DejaVuSans-101"/>
     </g>
    </g>
    <g id="patch_6">
     <path d="M 399.492813 79.787188 
L 427.492813 79.787188 
L 427.492813 69.987188 
L 399.492813 69.987188 
z
" style="fill:#36a2eb;opacity:0.5;stroke:#36a2eb;stroke-linejoin:miter;"/>
    </g>
    <g id="text_2">
     <!-- no_welcome -->
     <defs>
      <path d="M 54.890625 33.015625 
L 54.890625 0 
L 45.90625 0 
L 45.90625 32.71875 
Q 45.90625 40.484375 42.875 44.328125 
Q 39.84375 48.1875 33.796875 48.1875 
Q 26.515625 48.1875 22.3125 43.546875 
Q 18.109375 38.921875 18.109375 30.90625 
L 18.109375 0 
L 9.078125 0 
L 9.078125 54.6875 
L 18.109375 54.6875 
L 18.109375 46.1875 
Q 21.34375 51.125 25.703125 53.5625 
Q 30.078125 56 35.796875 56 
Q 45.21875 56 50.046875 50.171875 
Q 54.890625 44.34375 54.890625 33.015625 
z
" id="DejaVuSans-110"/>
      <path d="M 30.609375 48.390625 
Q 23.390625 48.390625 19.1875 42.75 
Q 14.984375 37.109375 14.984375 27.296875 
Q 14.984375 17.484375 19.15625 11.84375 
Q 23.34375 6.203125 30.609375 6.203125 
Q 37.796875 6.203125 41.984375 11.859375 
Q 46.1875 17.53125 46.1875 27.296875 
Q 46.1875 37.015625 41.984375 42.703125 
Q 37.796875 48.390625 30.609375 48.390625 
z
M 30.609375 56 
Q 42.328125 56 49.015625 48.375 
Q 55.71875 40.765625 55.71875 27.296875 
Q 55.71875 13.875 49.015625 6.21875 
Q 42.328125 -1.421875 30.609375 -1.421875 
Q 18.84375 -1.421875 12.171875 6.21875 
Q 5.515625 13.875 5.515625 27.296875 
Q 5.515625 40.765625 12.171875 48.375 
Q 18.84375 56 30.609375 56 
z
" id="DejaVuSans-111"/>
      <path d="M 50.984375 -16.609375 
L 50.984375 -23.578125 
L -0.984375 -23.578125 
L -0.984375 -16.609375 
z
" id="DejaVuSans-95"/>
      <path d="M 4.203125 54.6875 
L 13.1875 54.6875 
L 24.421875 12.015625 
L 35.59375 54.6875 
L 46.1875 54.6875 
L 57.421875 12.015625 
L 68.609375 54.6875 
L 77.59375 54.6875 
L 63.28125 0 
L 52.6875 0 
L 40.921875 44.828125 
L 29.109375 0 
L 18.5 0 
z
" id="DejaVuSans-119"/>
      <path d="M 9.421875 75.984375 
L 18.40625 75.984375 
L 18.40625 0 
L 9.421875 0 
z
" id="DejaVuSans-108"/>
      <path d="M 48.78125 52.59375 
L 48.78125 44.1875 
Q 44.96875 46.296875 41.140625 47.34375 
Q 37.3125 48.390625 33.40625 48.390625 
Q 24.65625 48.390625 19.8125 42.84375 
Q 14.984375 37.3125 14.984375 27.296875 
Q 14.984375 17.28125 19.8125 11.734375 
Q 24.65625 6.203125 33.40625 6.203125 
Q 37.3125 6.203125 41.140625 7.25 
Q 44.96875 8.296875 48.78125 10.40625 
L 48.78125 2.09375 
Q 45.015625 0.34375 40.984375 -0.53125 
Q 36.96875 -1.421875 32.421875 -1.421875 
Q 20.0625 -1.421875 12.78125 6.34375 
Q 5.515625 14.109375 5.515625 27.296875 
Q 5.515625 40.671875 12.859375 48.328125 
Q 20.21875 56 33.015625 56 
Q 37.15625 56 41.109375 55.140625 
Q 45.0625 54.296875 48.78125 52.59375 
z
" id="DejaVuSans-99"/>
      <path d="M 52 44.1875 
Q 55.375 50.25 60.0625 53.125 
Q 64.75 56 71.09375 56 
Q 79.640625 56 84.28125 50.015625 
Q 88.921875 44.046875 88.921875 33.015625 
L 88.921875 0 
L 79.890625 0 
L 79.890625 32.71875 
Q 79.890625 40.578125 77.09375 44.375 
Q 74.3125 48.1875 68.609375 48.1875 
Q 61.625 48.1875 57.5625 43.546875 
Q 53.515625 38.921875 53.515625 30.90625 
L 53.515625 0 
L 44.484375 0 
L 44.484375 32.71875 
Q 44.484375 40.625 41.703125 44.40625 
Q 38.921875 48.1875 33.109375 48.1875 
Q 26.21875 48.1875 22.15625 43.53125 
Q 18.109375 38.875 18.109375 30.90625 
L 18.109375 0 
L 9.078125 0 
L 9.078125 54.6875 
L 18.109375 54.6875 
L 18.109375 46.1875 
Q 21.1875 51.21875 25.484375 53.609375 
Q 29.78125 56 35.6875 56 
Q 41.65625 56 45.828125 52.96875 
Q 50 49.953125 52 44.1875 
z
" id="DejaVuSans-109"/>
     </defs>
     <g transform="translate(438.692813 79.787188)scale(0.14 -0.14)">
      <use xlink:href="#DejaVuSans-110"/>
      <use x="63.378906" xlink:href="#DejaVuSans-111"/>
      <use x="124.560547" xlink:href="#DejaVuSans-95"/>
      <use x="174.560547" xlink:href="#DejaVuSans-119"/>
      <use x="256.347656" xlink:href="#DejaVuSans-101"/>
      <use x="317.871094" xlink:href="#DejaVuSans-108"/>
      <use x="345.654297" xlink:href="#DejaVuSans-99"/>
      <use x="400.634766" xlink:href="#DejaVuSans-111"/>
      <use x="461.816406" xlink:href="#DejaVuSans-109"/>
      <use x="559.228516" xlink:href="#DejaVuSans-101"/>
     </g>
    </g>
   </g>
  </g>
  <g id="axes_2">
   <g id="patch_7">
    <path d="M 36 525.24 
L 538.2 525.24 
L 538.2 402.93 
L 36 402.93 
z
" style="fill:none;"/>
   </g>
   <g id="patch_8">
    <path clip-path="url(#p2f0d2d231b)" d="M 210.207209 519.680455 
L 410.9201 519.680455 
L 410.9201 482.616818 
L 210.207209 482.616818 
z
" style="fill:#ff6384;opacity:0.5;"/>
   </g>
   <g id="patch_9">
    <path clip-path="url(#p2f0d2d231b)" d="M 159.266408 445.553182 
L 352.267099 445.553182 
L 352.267099 408.489545 
L 159.266408 408.489545 
z
" style="fill:#36a2eb;opacity:0.5;"/>
   </g>
   <g id="matplotlib.axis_1">
    <g id="xtick_1">
     <g id="line2d_3">
      <defs>
       <path d="M 0 0 
L 0 3.5 
" id="maec3d55f39" style="stroke:#000000;stroke-width:0.8;"/>
      </defs>
      <g>
       <use style="stroke:#000000;stroke-width:0.8;" x="86.753301" xlink:href="#maec3d55f39" y="525.24"/>
      </g>
     </g>
     <g id="text_3">
      <!-- 80 -->
      <defs>
       <path d="M 31.78125 34.625 
Q 24.75 34.625 20.71875 30.859375 
Q 16.703125 27.09375 16.703125 20.515625 
Q 16.703125 13.921875 20.71875 10.15625 
Q 24.75 6.390625 31.78125 6.390625 
Q 38.8125 6.390625 42.859375 10.171875 
Q 46.921875 13.96875 46.921875 20.515625 
Q 46.921875 27.09375 42.890625 30.859375 
Q 38.875 34.625 31.78125 34.625 
z
M 21.921875 38.8125 
Q 15.578125 40.375 12.03125 44.71875 
Q 8.5 49.078125 8.5 55.328125 
Q 8.5 64.0625 14.71875 69.140625 
Q 20.953125 74.21875 31.78125 74.21875 
Q 42.671875 74.21875 48.875 69.140625 
Q 55.078125 64.0625 55.078125 55.328125 
Q 55.078125 49.078125 51.53125 44.71875 
Q 48 40.375 41.703125 38.8125 
Q 48.828125 37.15625 52.796875 32.3125 
Q 56.78125 27.484375 56.78125 20.515625 
Q 56.78125 9.90625 50.3125 4.234375 
Q 43.84375 -1.421875 31.78125 -1.421875 
Q 19.734375 -1.421875 13.25 4.234375 
Q 6.78125 9.90625 6.78125 20.515625 
Q 6.78125 27.484375 10.78125 32.3125 
Q 14.796875 37.15625 21.921875 38.8125 
z
M 18.3125 54.390625 
Q 18.3125 48.734375 21.84375 45.5625 
Q 25.390625 42.390625 31.78125 42.390625 
Q 38.140625 42.390625 41.71875 45.5625 
Q 45.3125 48.734375 45.3125 54.390625 
Q 45.3125 60.0625 41.71875 63.234375 
Q 38.140625 66.40625 31.78125 66.40625 
Q 25.390625 66.40625 21.84375 63.234375 
Q 18.3125 60.0625 18.3125 54.390625 
z
" id="DejaVuSans-56"/>
       <path d="M 31.78125 66.40625 
Q 24.171875 66.40625 20.328125 58.90625 
Q 16.5 51.421875 16.5 36.375 
Q 16.5 21.390625 20.328125 13.890625 
Q 24.171875 6.390625 31.78125 6.390625 
Q 39.453125 6.390625 43.28125 13.890625 
Q 47.125 21.390625 47.125 36.375 
Q 47.125 51.421875 43.28125 58.90625 
Q 39.453125 66.40625 31.78125 66.40625 
z
M 31.78125 74.21875 
Q 44.046875 74.21875 50.515625 64.515625 
Q 56.984375 54.828125 56.984375 36.375 
Q 56.984375 17.96875 50.515625 8.265625 
Q 44.046875 -1.421875 31.78125 -1.421875 
Q 19.53125 -1.421875 13.0625 8.265625 
Q 6.59375 17.96875 6.59375 36.375 
Q 6.59375 54.828125 13.0625 64.515625 
Q 19.53125 74.21875 31.78125 74.21875 
z
" id="DejaVuSans-48"/>
      </defs>
      <g transform="translate(77.845801 542.877813)scale(0.14 -0.14)">
       <use xlink:href="#DejaVuSans-56"/>
       <use x="63.623047" xlink:href="#DejaVuSans-48"/>
      </g>
     </g>
    </g>
    <g id="xtick_2">
     <g id="line2d_4">
      <g>
       <use style="stroke:#000000;stroke-width:0.8;" x="196.6879" xlink:href="#maec3d55f39" y="525.24"/>
      </g>
     </g>
     <g id="text_4">
      <!-- 82 -->
      <defs>
       <path d="M 19.1875 8.296875 
L 53.609375 8.296875 
L 53.609375 0 
L 7.328125 0 
L 7.328125 8.296875 
Q 12.9375 14.109375 22.625 23.890625 
Q 32.328125 33.6875 34.8125 36.53125 
Q 39.546875 41.84375 41.421875 45.53125 
Q 43.3125 49.21875 43.3125 52.78125 
Q 43.3125 58.59375 39.234375 62.25 
Q 35.15625 65.921875 28.609375 65.921875 
Q 23.96875 65.921875 18.8125 64.3125 
Q 13.671875 62.703125 7.8125 59.421875 
L 7.8125 69.390625 
Q 13.765625 71.78125 18.9375 73 
Q 24.125 74.21875 28.421875 74.21875 
Q 39.75 74.21875 46.484375 68.546875 
Q 53.21875 62.890625 53.21875 53.421875 
Q 53.21875 48.921875 51.53125 44.890625 
Q 49.859375 40.875 45.40625 35.40625 
Q 44.1875 33.984375 37.640625 27.21875 
Q 31.109375 20.453125 19.1875 8.296875 
z
" id="DejaVuSans-50"/>
      </defs>
      <g transform="translate(187.7804 542.877813)scale(0.14 -0.14)">
       <use xlink:href="#DejaVuSans-56"/>
       <use x="63.623047" xlink:href="#DejaVuSans-50"/>
      </g>
     </g>
    </g>
    <g id="xtick_3">
     <g id="line2d_5">
      <g>
       <use style="stroke:#000000;stroke-width:0.8;" x="306.622499" xlink:href="#maec3d55f39" y="525.24"/>
      </g>
     </g>
     <g id="text_5">
      <!-- 84 -->
      <defs>
       <path d="M 37.796875 64.3125 
L 12.890625 25.390625 
L 37.796875 25.390625 
z
M 35.203125 72.90625 
L 47.609375 72.90625 
L 47.609375 25.390625 
L 58.015625 25.390625 
L 58.015625 17.1875 
L 47.609375 17.1875 
L 47.609375 0 
L 37.796875 0 
L 37.796875 17.1875 
L 4.890625 17.1875 
L 4.890625 26.703125 
z
" id="DejaVuSans-52"/>
      </defs>
      <g transform="translate(297.714999 542.877813)scale(0.14 -0.14)">
       <use xlink:href="#DejaVuSans-56"/>
       <use x="63.623047" xlink:href="#DejaVuSans-52"/>
      </g>
     </g>
    </g>
    <g id="xtick_4">
     <g id="line2d_6">
      <g>
       <use style="stroke:#000000;stroke-width:0.8;" x="416.557098" xlink:href="#maec3d55f39" y="525.24"/>
      </g>
     </g>
     <g id="text_6">
      <!-- 86 -->
      <defs>
       <path d="M 33.015625 40.375 
Q 26.375 40.375 22.484375 35.828125 
Q 18.609375 31.296875 18.609375 23.390625 
Q 18.609375 15.53125 22.484375 10.953125 
Q 26.375 6.390625 33.015625 6.390625 
Q 39.65625 6.390625 43.53125 10.953125 
Q 47.40625 15.53125 47.40625 23.390625 
Q 47.40625 31.296875 43.53125 35.828125 
Q 39.65625 40.375 33.015625 40.375 
z
M 52.59375 71.296875 
L 52.59375 62.3125 
Q 48.875 64.0625 45.09375 64.984375 
Q 41.3125 65.921875 37.59375 65.921875 
Q 27.828125 65.921875 22.671875 59.328125 
Q 17.53125 52.734375 16.796875 39.40625 
Q 19.671875 43.65625 24.015625 45.921875 
Q 28.375 48.1875 33.59375 48.1875 
Q 44.578125 48.1875 50.953125 41.515625 
Q 57.328125 34.859375 57.328125 23.390625 
Q 57.328125 12.15625 50.6875 5.359375 
Q 44.046875 -1.421875 33.015625 -1.421875 
Q 20.359375 -1.421875 13.671875 8.265625 
Q 6.984375 17.96875 6.984375 36.375 
Q 6.984375 53.65625 15.1875 63.9375 
Q 23.390625 74.21875 37.203125 74.21875 
Q 40.921875 74.21875 44.703125 73.484375 
Q 48.484375 72.75 52.59375 71.296875 
z
" id="DejaVuSans-54"/>
      </defs>
      <g transform="translate(407.649598 542.877813)scale(0.14 -0.14)">
       <use xlink:href="#DejaVuSans-56"/>
       <use x="63.623047" xlink:href="#DejaVuSans-54"/>
      </g>
     </g>
    </g>
    <g id="xtick_5">
     <g id="line2d_7">
      <g>
       <use style="stroke:#000000;stroke-width:0.8;" x="526.491697" xlink:href="#maec3d55f39" y="525.24"/>
      </g>
     </g>
     <g id="text_7">
      <!-- 88 -->
      <g transform="translate(517.584197 542.877813)scale(0.14 -0.14)">
       <use xlink:href="#DejaVuSans-56"/>
       <use x="63.623047" xlink:href="#DejaVuSans-56"/>
      </g>
     </g>
    </g>
   </g>
   <g id="line2d_8">
    <path clip-path="url(#p2f0d2d231b)" d="M 310.563655 525.24 
L 310.563655 402.93 
" style="fill:none;stroke:#ff6384;stroke-dasharray:5.55,2.4;stroke-dashoffset:0;stroke-opacity:0.8;stroke-width:1.5;"/>
   </g>
   <g id="line2d_9">
    <path clip-path="url(#p2f0d2d231b)" d="M 255.766754 525.24 
L 255.766754 402.93 
" style="fill:none;stroke:#36a2eb;stroke-dasharray:5.55,2.4;stroke-dashoffset:0;stroke-opacity:0.8;stroke-width:1.5;"/>
   </g>
   <g id="patch_10">
    <path d="M 36 525.24 
L 538.2 525.24 
" style="fill:none;stroke:#000000;stroke-linecap:square;stroke-linejoin:miter;stroke-width:0.8;"/>
   </g>
  </g>
 </g>
 <defs>
  <clipPath id="pba29c6de25">
   <rect height="366.93" width="502.2" x="36" y="36"/>
  </clipPath>
  <clipPath id="p2f0d2d231b">
   <rect height="122.31" width="502.2" x="36" y="402.93"/>
  </clipPath>
 </defs>
</svg>
