<?xml version="1.0" encoding="utf-8" standalone="no"?>
<!DOCTYPE svg PUBLIC "-//W3C//DTD SVG 1.1//EN"
  "http://www.w3.org/Graphics/SVG/1.1/DTD/svg11.dtd">
<!-- Created with matplotlib (https://matplotlib.org/) -->
<svg height="581.789375pt" version="1.1" viewBox="0 0 574.286684 581.789375" width="574.286684pt" xmlns="http://www.w3.org/2000/svg" xmlns:xlink="http://www.w3.org/1999/xlink">
 <defs>
  <style type="text/css">
*{stroke-linecap:butt;stroke-linejoin:round;}
  </style>
 </defs>
 <g id="figure_1">
  <g id="patch_1">
   <path d="M 0 581.789375 
L 574.286684 581.789375 
L 574.286684 0 
L 0 0 
z
" style="fill:none;"/>
  </g>
  <g id="axes_1">
   <g id="patch_2">
    <path d="M 36.086684 402.93 
L 538.286684 402.93 
L 538.286684 36 
L 36.086684 36 
z
" style="fill:none;"/>
   </g>
   <g id="PolyCollection_1">
    <defs>
     <path d="M 109.845636 -195.538011 
L 109.845636 -195.64928 
L 113.942745 -195.691237 
L 118.039853 -195.747643 
L 122.136962 -195.822946 
L 126.234071 -195.922777 
L 130.33118 -196.054206 
L 134.428289 -196.22602 
L 138.525398 -196.449053 
L 142.622507 -196.736536 
L 146.719615 -197.104472 
L 150.816724 -197.572036 
L 154.913833 -198.161971 
L 159.010942 -198.900974 
L 163.108051 -199.820055 
L 167.20516 -200.954829 
L 171.302268 -202.345727 
L 175.399377 -204.038084 
L 179.496486 -206.082074 
L 183.593595 -208.532447 
L 187.690704 -211.448038 
L 191.787813 -214.891021 
L 195.884921 -218.925854 
L 199.98203 -223.617935 
L 204.079139 -229.031913 
L 208.176248 -235.229707 
L 212.273357 -242.268211 
L 216.370466 -250.196762 
L 220.467575 -259.054408 
L 224.564683 -268.867065 
L 228.661792 -279.644672 
L 232.758901 -291.378447 
L 236.85601 -304.038388 
L 240.953119 -317.571155 
L 245.050228 -331.898462 
L 249.147336 -346.916143 
L 253.244445 -362.493974 
L 257.341554 -378.476382 
L 261.438663 -394.68409 
L 265.535772 -410.916732 
L 269.632881 -426.956422 
L 273.729989 -442.572223 
L 277.827098 -457.525395 
L 281.924207 -471.575288 
L 286.021316 -484.485663 
L 290.118425 -496.031238 
L 294.215534 -506.004181 
L 298.312643 -514.220325 
L 302.409751 -520.52481 
L 306.50686 -524.796939 
L 310.603969 -526.954017 
L 314.701078 -526.954017 
L 318.798187 -524.796939 
L 322.895296 -520.52481 
L 326.992404 -514.220325 
L 331.089513 -506.004181 
L 335.186622 -496.031238 
L 339.283731 -484.485663 
L 343.38084 -471.575288 
L 347.477949 -457.525395 
L 351.575057 -442.572223 
L 355.672166 -426.956422 
L 359.769275 -410.916732 
L 363.866384 -394.68409 
L 367.963493 -378.476382 
L 372.060602 -362.493974 
L 376.157711 -346.916143 
L 380.254819 -331.898462 
L 384.351928 -317.571155 
L 388.449037 -304.038388 
L 392.546146 -291.378447 
L 396.643255 -279.644672 
L 400.740364 -268.867065 
L 404.837472 -259.054408 
L 408.934581 -250.196762 
L 413.03169 -242.268211 
L 417.128799 -235.229707 
L 421.225908 -229.031913 
L 425.323017 -223.617935 
L 429.420125 -218.925854 
L 433.517234 -214.891021 
L 437.614343 -211.448038 
L 441.711452 -208.532447 
L 445.808561 -206.082074 
L 449.90567 -204.038084 
L 454.002779 -202.345727 
L 458.099887 -200.954829 
L 462.196996 -199.820055 
L 466.294105 -198.900974 
L 470.391214 -198.161971 
L 474.488323 -197.572036 
L 478.585432 -197.104472 
L 482.68254 -196.736536 
L 486.779649 -196.449053 
L 490.876758 -196.22602 
L 494.973867 -196.054206 
L 499.070976 -195.922777 
L 503.168085 -195.822946 
L 507.265193 -195.747643 
L 511.362302 -195.691237 
L 515.459411 -195.64928 
L 515.459411 -195.538011 
L 515.459411 -195.538011 
L 511.362302 -195.538011 
L 507.265193 -195.538011 
L 503.168085 -195.538011 
L 499.070976 -195.538011 
L 494.973867 -195.538011 
L 490.876758 -195.538011 
L 486.779649 -195.538011 
L 482.68254 -195.538011 
L 478.585432 -195.538011 
L 474.488323 -195.538011 
L 470.391214 -195.538011 
L 466.294105 -195.538011 
L 462.196996 -195.538011 
L 458.099887 -195.538011 
L 454.002779 -195.538011 
L 449.90567 -195.538011 
L 445.808561 -195.538011 
L 441.711452 -195.538011 
L 437.614343 -195.538011 
L 433.517234 -195.538011 
L 429.420125 -195.538011 
L 425.323017 -195.538011 
L 421.225908 -195.538011 
L 417.128799 -195.538011 
L 413.03169 -195.538011 
L 408.934581 -195.538011 
L 404.837472 -195.538011 
L 400.740364 -195.538011 
L 396.643255 -195.538011 
L 392.546146 -195.538011 
L 388.449037 -195.538011 
L 384.351928 -195.538011 
L 380.254819 -195.538011 
L 376.157711 -195.538011 
L 372.060602 -195.538011 
L 367.963493 -195.538011 
L 363.866384 -195.538011 
L 359.769275 -195.538011 
L 355.672166 -195.538011 
L 351.575057 -195.538011 
L 347.477949 -195.538011 
L 343.38084 -195.538011 
L 339.283731 -195.538011 
L 335.186622 -195.538011 
L 331.089513 -195.538011 
L 326.992404 -195.538011 
L 322.895296 -195.538011 
L 318.798187 -195.538011 
L 314.701078 -195.538011 
L 310.603969 -195.538011 
L 306.50686 -195.538011 
L 302.409751 -195.538011 
L 298.312643 -195.538011 
L 294.215534 -195.538011 
L 290.118425 -195.538011 
L 286.021316 -195.538011 
L 281.924207 -195.538011 
L 277.827098 -195.538011 
L 273.729989 -195.538011 
L 269.632881 -195.538011 
L 265.535772 -195.538011 
L 261.438663 -195.538011 
L 257.341554 -195.538011 
L 253.244445 -195.538011 
L 249.147336 -195.538011 
L 245.050228 -195.538011 
L 240.953119 -195.538011 
L 236.85601 -195.538011 
L 232.758901 -195.538011 
L 228.661792 -195.538011 
L 224.564683 -195.538011 
L 220.467575 -195.538011 
L 216.370466 -195.538011 
L 212.273357 -195.538011 
L 208.176248 -195.538011 
L 204.079139 -195.538011 
L 199.98203 -195.538011 
L 195.884921 -195.538011 
L 191.787813 -195.538011 
L 187.690704 -195.538011 
L 183.593595 -195.538011 
L 179.496486 -195.538011 
L 175.399377 -195.538011 
L 171.302268 -195.538011 
L 167.20516 -195.538011 
L 163.108051 -195.538011 
L 159.010942 -195.538011 
L 154.913833 -195.538011 
L 150.816724 -195.538011 
L 146.719615 -195.538011 
L 142.622507 -195.538011 
L 138.525398 -195.538011 
L 134.428289 -195.538011 
L 130.33118 -195.538011 
L 126.234071 -195.538011 
L 122.136962 -195.538011 
L 118.039853 -195.538011 
L 113.942745 -195.538011 
L 109.845636 -195.538011 
z
" id="mb14ab64a65" style="stroke:#ff6384;stroke-opacity:0.5;"/>
    </defs>
    <g clip-path="url(#p76f7f21ff9)">
     <use style="fill:#ff6384;fill-opacity:0.5;stroke:#ff6384;stroke-opacity:0.5;" x="0" xlink:href="#mb14ab64a65" y="581.789375"/>
    </g>
   </g>
   <g id="PolyCollection_2">
    <defs>
     <path d="M 58.913957 -195.538011 
L 58.913957 -195.650004 
L 62.984575 -195.692234 
L 67.055194 -195.749007 
L 71.125813 -195.8248 
L 75.196432 -195.925281 
L 79.267051 -196.057565 
L 83.33767 -196.230497 
L 87.408289 -196.454982 
L 91.478908 -196.744335 
L 95.549527 -197.114666 
L 99.620146 -197.585273 
L 103.690764 -198.179047 
L 107.761383 -198.922859 
L 111.832002 -199.847921 
L 115.902621 -200.990079 
L 119.97324 -202.390029 
L 124.043859 -204.093399 
L 128.114478 -206.150691 
L 132.185097 -208.617009 
L 136.255716 -211.551575 
L 140.326335 -215.016962 
L 144.396953 -219.078053 
L 148.467572 -223.800667 
L 152.538191 -229.249878 
L 156.60881 -235.488004 
L 160.679429 -242.572312 
L 164.750048 -250.552459 
L 168.820667 -259.467747 
L 172.891286 -269.344261 
L 176.961905 -280.192004 
L 181.032524 -292.002137 
L 185.103142 -304.744465 
L 189.173761 -318.365297 
L 193.24438 -332.785841 
L 197.314999 -347.901251 
L 201.385618 -363.580456 
L 205.456237 -379.666871 
L 209.526856 -395.980052 
L 213.597475 -412.31833 
L 217.668094 -428.4624 
L 221.738713 -444.179822 
L 225.809331 -459.230303 
L 229.87995 -473.371627 
L 233.950569 -486.366018 
L 238.021188 -497.986726 
L 242.091807 -508.02457 
L 246.162426 -516.294181 
L 250.233045 -522.639693 
L 254.303664 -526.939623 
L 258.374283 -529.110739 
L 262.444901 -529.110739 
L 266.51552 -526.939623 
L 270.586139 -522.639693 
L 274.656758 -516.294181 
L 278.727377 -508.02457 
L 282.797996 -497.986726 
L 286.868615 -486.366018 
L 290.939234 -473.371627 
L 295.009853 -459.230303 
L 299.080472 -444.179822 
L 303.15109 -428.4624 
L 307.221709 -412.31833 
L 311.292328 -395.980052 
L 315.362947 -379.666871 
L 319.433566 -363.580456 
L 323.504185 -347.901251 
L 327.574804 -332.785841 
L 331.645423 -318.365297 
L 335.716042 -304.744465 
L 339.786661 -292.002137 
L 343.857279 -280.192004 
L 347.927898 -269.344261 
L 351.998517 -259.467747 
L 356.069136 -250.552459 
L 360.139755 -242.572312 
L 364.210374 -235.488004 
L 368.280993 -229.249878 
L 372.351612 -223.800667 
L 376.422231 -219.078053 
L 380.49285 -215.016962 
L 384.563468 -211.551575 
L 388.634087 -208.617009 
L 392.704706 -206.150691 
L 396.775325 -204.093399 
L 400.845944 -202.390029 
L 404.916563 -200.990079 
L 408.987182 -199.847921 
L 413.057801 -198.922859 
L 417.12842 -198.179047 
L 421.199039 -197.585273 
L 425.269657 -197.114666 
L 429.340276 -196.744335 
L 433.410895 -196.454982 
L 437.481514 -196.230497 
L 441.552133 -196.057565 
L 445.622752 -195.925281 
L 449.693371 -195.8248 
L 453.76399 -195.749007 
L 457.834609 -195.692234 
L 461.905228 -195.650004 
L 461.905228 -195.538011 
L 461.905228 -195.538011 
L 457.834609 -195.538011 
L 453.76399 -195.538011 
L 449.693371 -195.538011 
L 445.622752 -195.538011 
L 441.552133 -195.538011 
L 437.481514 -195.538011 
L 433.410895 -195.538011 
L 429.340276 -195.538011 
L 425.269657 -195.538011 
L 421.199039 -195.538011 
L 417.12842 -195.538011 
L 413.057801 -195.538011 
L 408.987182 -195.538011 
L 404.916563 -195.538011 
L 400.845944 -195.538011 
L 396.775325 -195.538011 
L 392.704706 -195.538011 
L 388.634087 -195.538011 
L 384.563468 -195.538011 
L 380.49285 -195.538011 
L 376.422231 -195.538011 
L 372.351612 -195.538011 
L 368.280993 -195.538011 
L 364.210374 -195.538011 
L 360.139755 -195.538011 
L 356.069136 -195.538011 
L 351.998517 -195.538011 
L 347.927898 -195.538011 
L 343.857279 -195.538011 
L 339.786661 -195.538011 
L 335.716042 -195.538011 
L 331.645423 -195.538011 
L 327.574804 -195.538011 
L 323.504185 -195.538011 
L 319.433566 -195.538011 
L 315.362947 -195.538011 
L 311.292328 -195.538011 
L 307.221709 -195.538011 
L 303.15109 -195.538011 
L 299.080472 -195.538011 
L 295.009853 -195.538011 
L 290.939234 -195.538011 
L 286.868615 -195.538011 
L 282.797996 -195.538011 
L 278.727377 -195.538011 
L 274.656758 -195.538011 
L 270.586139 -195.538011 
L 266.51552 -195.538011 
L 262.444901 -195.538011 
L 258.374283 -195.538011 
L 254.303664 -195.538011 
L 250.233045 -195.538011 
L 246.162426 -195.538011 
L 242.091807 -195.538011 
L 238.021188 -195.538011 
L 233.950569 -195.538011 
L 229.87995 -195.538011 
L 225.809331 -195.538011 
L 221.738713 -195.538011 
L 217.668094 -195.538011 
L 213.597475 -195.538011 
L 209.526856 -195.538011 
L 205.456237 -195.538011 
L 201.385618 -195.538011 
L 197.314999 -195.538011 
L 193.24438 -195.538011 
L 189.173761 -195.538011 
L 185.103142 -195.538011 
L 181.032524 -195.538011 
L 176.961905 -195.538011 
L 172.891286 -195.538011 
L 168.820667 -195.538011 
L 164.750048 -195.538011 
L 160.679429 -195.538011 
L 156.60881 -195.538011 
L 152.538191 -195.538011 
L 148.467572 -195.538011 
L 144.396953 -195.538011 
L 140.326335 -195.538011 
L 136.255716 -195.538011 
L 132.185097 -195.538011 
L 128.114478 -195.538011 
L 124.043859 -195.538011 
L 119.97324 -195.538011 
L 115.902621 -195.538011 
L 111.832002 -195.538011 
L 107.761383 -195.538011 
L 103.690764 -195.538011 
L 99.620146 -195.538011 
L 95.549527 -195.538011 
L 91.478908 -195.538011 
L 87.408289 -195.538011 
L 83.33767 -195.538011 
L 79.267051 -195.538011 
L 75.196432 -195.538011 
L 71.125813 -195.538011 
L 67.055194 -195.538011 
L 62.984575 -195.538011 
L 58.913957 -195.538011 
z
" id="maa99ed4af5" style="stroke:#36a2eb;stroke-opacity:0.5;"/>
    </defs>
    <g clip-path="url(#p76f7f21ff9)">
     <use style="fill:#36a2eb;fill-opacity:0.5;stroke:#36a2eb;stroke-opacity:0.5;" x="0" xlink:href="#maa99ed4af5" y="581.789375"/>
    </g>
   </g>
   <g id="PolyCollection_3">
    <defs>
     <path d="M 61.061167 -195.538011 
L 61.061167 -195.649586 
L 65.147042 -195.691659 
L 69.232917 -195.748219 
L 73.318792 -195.823729 
L 77.404667 -195.923835 
L 81.490541 -196.055625 
L 85.576416 -196.227911 
L 89.662291 -196.451558 
L 93.748166 -196.739831 
L 97.834041 -197.108779 
L 101.919916 -197.577629 
L 106.005791 -198.169185 
L 110.091666 -198.910221 
L 114.177541 -199.831828 
L 118.263416 -200.969722 
L 122.349291 -202.364444 
L 126.435166 -204.061455 
L 130.521041 -206.111065 
L 134.606916 -208.568174 
L 138.692791 -211.491782 
L 142.778666 -214.944231 
L 146.864541 -218.990158 
L 150.950416 -223.695139 
L 155.036291 -229.124003 
L 159.122166 -235.338837 
L 163.208041 -242.396693 
L 167.293916 -250.347043 
L 171.379791 -259.229042 
L 175.465666 -269.068679 
L 179.55154 -279.875918 
L 183.637415 -291.641955 
L 187.72329 -304.336704 
L 191.809165 -317.906678 
L 195.89504 -332.273378 
L 199.980915 -347.332349 
L 204.06679 -362.95301 
L 208.152665 -378.979361 
L 212.23854 -395.231631 
L 216.324415 -411.508904 
L 220.41029 -427.592694 
L 224.496165 -443.251429 
L 228.58204 -458.245714 
L 232.667915 -472.334237 
L 236.75379 -485.280109 
L 240.839665 -496.857427 
L 244.92554 -506.857791 
L 249.011415 -515.096525 
L 253.09729 -521.418343 
L 257.183165 -525.702218 
L 261.26904 -527.865227 
L 265.354915 -527.865227 
L 269.44079 -525.702218 
L 273.526665 -521.418343 
L 277.612539 -515.096525 
L 281.698414 -506.857791 
L 285.784289 -496.857427 
L 289.870164 -485.280109 
L 293.956039 -472.334237 
L 298.041914 -458.245714 
L 302.127789 -443.251429 
L 306.213664 -427.592694 
L 310.299539 -411.508904 
L 314.385414 -395.231631 
L 318.471289 -378.979361 
L 322.557164 -362.95301 
L 326.643039 -347.332349 
L 330.728914 -332.273378 
L 334.814789 -317.906678 
L 338.900664 -304.336704 
L 342.986539 -291.641955 
L 347.072414 -279.875918 
L 351.158289 -269.068679 
L 355.244164 -259.229042 
L 359.330039 -250.347043 
L 363.415914 -242.396693 
L 367.501789 -235.338837 
L 371.587664 -229.124003 
L 375.673538 -223.695139 
L 379.759413 -218.990158 
L 383.845288 -214.944231 
L 387.931163 -211.491782 
L 392.017038 -208.568174 
L 396.102913 -206.111065 
L 400.188788 -204.061455 
L 404.274663 -202.364444 
L 408.360538 -200.969722 
L 412.446413 -199.831828 
L 416.532288 -198.910221 
L 420.618163 -198.169185 
L 424.704038 -197.577629 
L 428.789913 -197.108779 
L 432.875788 -196.739831 
L 436.961663 -196.451558 
L 441.047538 -196.227911 
L 445.133413 -196.055625 
L 449.219288 -195.923835 
L 453.305163 -195.823729 
L 457.391038 -195.748219 
L 461.476913 -195.691659 
L 465.562788 -195.649586 
L 465.562788 -195.538011 
L 465.562788 -195.538011 
L 461.476913 -195.538011 
L 457.391038 -195.538011 
L 453.305163 -195.538011 
L 449.219288 -195.538011 
L 445.133413 -195.538011 
L 441.047538 -195.538011 
L 436.961663 -195.538011 
L 432.875788 -195.538011 
L 428.789913 -195.538011 
L 424.704038 -195.538011 
L 420.618163 -195.538011 
L 416.532288 -195.538011 
L 412.446413 -195.538011 
L 408.360538 -195.538011 
L 404.274663 -195.538011 
L 400.188788 -195.538011 
L 396.102913 -195.538011 
L 392.017038 -195.538011 
L 387.931163 -195.538011 
L 383.845288 -195.538011 
L 379.759413 -195.538011 
L 375.673538 -195.538011 
L 371.587664 -195.538011 
L 367.501789 -195.538011 
L 363.415914 -195.538011 
L 359.330039 -195.538011 
L 355.244164 -195.538011 
L 351.158289 -195.538011 
L 347.072414 -195.538011 
L 342.986539 -195.538011 
L 338.900664 -195.538011 
L 334.814789 -195.538011 
L 330.728914 -195.538011 
L 326.643039 -195.538011 
L 322.557164 -195.538011 
L 318.471289 -195.538011 
L 314.385414 -195.538011 
L 310.299539 -195.538011 
L 306.213664 -195.538011 
L 302.127789 -195.538011 
L 298.041914 -195.538011 
L 293.956039 -195.538011 
L 289.870164 -195.538011 
L 285.784289 -195.538011 
L 281.698414 -195.538011 
L 277.612539 -195.538011 
L 273.526665 -195.538011 
L 269.44079 -195.538011 
L 265.354915 -195.538011 
L 261.26904 -195.538011 
L 257.183165 -195.538011 
L 253.09729 -195.538011 
L 249.011415 -195.538011 
L 244.92554 -195.538011 
L 240.839665 -195.538011 
L 236.75379 -195.538011 
L 232.667915 -195.538011 
L 228.58204 -195.538011 
L 224.496165 -195.538011 
L 220.41029 -195.538011 
L 216.324415 -195.538011 
L 212.23854 -195.538011 
L 208.152665 -195.538011 
L 204.06679 -195.538011 
L 199.980915 -195.538011 
L 195.89504 -195.538011 
L 191.809165 -195.538011 
L 187.72329 -195.538011 
L 183.637415 -195.538011 
L 179.55154 -195.538011 
L 175.465666 -195.538011 
L 171.379791 -195.538011 
L 167.293916 -195.538011 
L 163.208041 -195.538011 
L 159.122166 -195.538011 
L 155.036291 -195.538011 
L 150.950416 -195.538011 
L 146.864541 -195.538011 
L 142.778666 -195.538011 
L 138.692791 -195.538011 
L 134.606916 -195.538011 
L 130.521041 -195.538011 
L 126.435166 -195.538011 
L 122.349291 -195.538011 
L 118.263416 -195.538011 
L 114.177541 -195.538011 
L 110.091666 -195.538011 
L 106.005791 -195.538011 
L 101.919916 -195.538011 
L 97.834041 -195.538011 
L 93.748166 -195.538011 
L 89.662291 -195.538011 
L 85.576416 -195.538011 
L 81.490541 -195.538011 
L 77.404667 -195.538011 
L 73.318792 -195.538011 
L 69.232917 -195.538011 
L 65.147042 -195.538011 
L 61.061167 -195.538011 
z
" id="m9186bed4e7" style="stroke:#4bc0c0;stroke-opacity:0.5;"/>
    </defs>
    <g clip-path="url(#p76f7f21ff9)">
     <use style="fill:#4bc0c0;fill-opacity:0.5;stroke:#4bc0c0;stroke-opacity:0.5;" x="0" xlink:href="#m9186bed4e7" y="581.789375"/>
    </g>
   </g>
   <g id="line2d_1">
    <path clip-path="url(#p76f7f21ff9)" d="M 109.845636 386.140095 
L 113.942745 386.098138 
L 118.039853 386.041732 
L 122.136962 385.966429 
L 126.234071 385.866598 
L 130.33118 385.735169 
L 134.428289 385.563355 
L 138.525398 385.340322 
L 142.622507 385.052839 
L 146.719615 384.684903 
L 150.816724 384.217339 
L 154.913833 383.627404 
L 159.010942 382.888401 
L 163.108051 381.96932 
L 167.20516 380.834546 
L 171.302268 379.443648 
L 175.399377 377.751291 
L 179.496486 375.707301 
L 183.593595 373.256928 
L 187.690704 370.341337 
L 191.787813 366.898354 
L 195.884921 362.863521 
L 199.98203 358.17144 
L 204.079139 352.757462 
L 208.176248 346.559668 
L 212.273357 339.521164 
L 216.370466 331.592613 
L 220.467575 322.734967 
L 224.564683 312.92231 
L 228.661792 302.144703 
L 232.758901 290.410928 
L 236.85601 277.750987 
L 240.953119 264.21822 
L 245.050228 249.890913 
L 249.147336 234.873232 
L 253.244445 219.295401 
L 257.341554 203.312993 
L 261.438663 187.105285 
L 265.535772 170.872643 
L 269.632881 154.832953 
L 273.729989 139.217152 
L 277.827098 124.26398 
L 281.924207 110.214087 
L 286.021316 97.303712 
L 290.118425 85.758137 
L 294.215534 75.785194 
L 298.312643 67.56905 
L 302.409751 61.264565 
L 306.50686 56.992436 
L 310.603969 54.835358 
L 314.701078 54.835358 
L 318.798187 56.992436 
L 322.895296 61.264565 
L 326.992404 67.56905 
L 331.089513 75.785194 
L 335.186622 85.758137 
L 339.283731 97.303712 
L 343.38084 110.214087 
L 347.477949 124.26398 
L 351.575057 139.217152 
L 355.672166 154.832953 
L 359.769275 170.872643 
L 363.866384 187.105285 
L 367.963493 203.312993 
L 372.060602 219.295401 
L 376.157711 234.873232 
L 380.254819 249.890913 
L 384.351928 264.21822 
L 388.449037 277.750987 
L 392.546146 290.410928 
L 396.643255 302.144703 
L 400.740364 312.92231 
L 404.837472 322.734967 
L 408.934581 331.592613 
L 413.03169 339.521164 
L 417.128799 346.559668 
L 421.225908 352.757462 
L 425.323017 358.17144 
L 429.420125 362.863521 
L 433.517234 366.898354 
L 437.614343 370.341337 
L 441.711452 373.256928 
L 445.808561 375.707301 
L 449.90567 377.751291 
L 454.002779 379.443648 
L 458.099887 380.834546 
L 462.196996 381.96932 
L 466.294105 382.888401 
L 470.391214 383.627404 
L 474.488323 384.217339 
L 478.585432 384.684903 
L 482.68254 385.052839 
L 486.779649 385.340322 
L 490.876758 385.563355 
L 494.973867 385.735169 
L 499.070976 385.866598 
L 503.168085 385.966429 
L 507.265193 386.041732 
L 511.362302 386.098138 
L 515.459411 386.140095 
" style="fill:none;stroke:#ff6384;stroke-linecap:square;"/>
   </g>
   <g id="line2d_2">
    <path clip-path="url(#p76f7f21ff9)" d="M 58.913957 386.139371 
L 62.984575 386.097141 
L 67.055194 386.040368 
L 71.125813 385.964575 
L 75.196432 385.864094 
L 79.267051 385.73181 
L 83.33767 385.558878 
L 87.408289 385.334393 
L 91.478908 385.04504 
L 95.549527 384.674709 
L 99.620146 384.204102 
L 103.690764 383.610328 
L 107.761383 382.866516 
L 111.832002 381.941454 
L 115.902621 380.799296 
L 119.97324 379.399346 
L 124.043859 377.695976 
L 128.114478 375.638684 
L 132.185097 373.172366 
L 136.255716 370.2378 
L 140.326335 366.772413 
L 144.396953 362.711322 
L 148.467572 357.988708 
L 152.538191 352.539497 
L 156.60881 346.301371 
L 160.679429 339.217063 
L 164.750048 331.236916 
L 168.820667 322.321628 
L 172.891286 312.445114 
L 176.961905 301.597371 
L 181.032524 289.787238 
L 185.103142 277.04491 
L 189.173761 263.424078 
L 193.24438 249.003534 
L 197.314999 233.888124 
L 201.385618 218.208919 
L 205.456237 202.122504 
L 209.526856 185.809323 
L 213.597475 169.471045 
L 217.668094 153.326975 
L 221.738713 137.609553 
L 225.809331 122.559072 
L 229.87995 108.417748 
L 233.950569 95.423357 
L 238.021188 83.802649 
L 242.091807 73.764805 
L 246.162426 65.495194 
L 250.233045 59.149682 
L 254.303664 54.849752 
L 258.374283 52.678636 
L 262.444901 52.678636 
L 266.51552 54.849752 
L 270.586139 59.149682 
L 274.656758 65.495194 
L 278.727377 73.764805 
L 282.797996 83.802649 
L 286.868615 95.423357 
L 290.939234 108.417748 
L 295.009853 122.559072 
L 299.080472 137.609553 
L 303.15109 153.326975 
L 307.221709 169.471045 
L 311.292328 185.809323 
L 315.362947 202.122504 
L 319.433566 218.208919 
L 323.504185 233.888124 
L 327.574804 249.003534 
L 331.645423 263.424078 
L 335.716042 277.04491 
L 339.786661 289.787238 
L 343.857279 301.597371 
L 347.927898 312.445114 
L 351.998517 322.321628 
L 356.069136 331.236916 
L 360.139755 339.217063 
L 364.210374 346.301371 
L 368.280993 352.539497 
L 372.351612 357.988708 
L 376.422231 362.711322 
L 380.49285 366.772413 
L 384.563468 370.2378 
L 388.634087 373.172366 
L 392.704706 375.638684 
L 396.775325 377.695976 
L 400.845944 379.399346 
L 404.916563 380.799296 
L 408.987182 381.941454 
L 413.057801 382.866516 
L 417.12842 383.610328 
L 421.199039 384.204102 
L 425.269657 384.674709 
L 429.340276 385.04504 
L 433.410895 385.334393 
L 437.481514 385.558878 
L 441.552133 385.73181 
L 445.622752 385.864094 
L 449.693371 385.964575 
L 453.76399 386.040368 
L 457.834609 386.097141 
L 461.905228 386.139371 
" style="fill:none;stroke:#36a2eb;stroke-linecap:square;"/>
   </g>
   <g id="line2d_3">
    <path clip-path="url(#p76f7f21ff9)" d="M 61.061167 386.139789 
L 65.147042 386.097716 
L 69.232917 386.041156 
L 73.318792 385.965646 
L 77.404667 385.86554 
L 81.490541 385.73375 
L 85.576416 385.561464 
L 89.662291 385.337817 
L 93.748166 385.049544 
L 97.834041 384.680596 
L 101.919916 384.211746 
L 106.005791 383.62019 
L 110.091666 382.879154 
L 114.177541 381.957547 
L 118.263416 380.819653 
L 122.349291 379.424931 
L 126.435166 377.72792 
L 130.521041 375.67831 
L 134.606916 373.221201 
L 138.692791 370.297593 
L 142.778666 366.845144 
L 146.864541 362.799217 
L 150.950416 358.094236 
L 155.036291 352.665372 
L 159.122166 346.450538 
L 163.208041 339.392682 
L 167.293916 331.442332 
L 171.379791 322.560333 
L 175.465666 312.720696 
L 179.55154 301.913457 
L 183.637415 290.14742 
L 187.72329 277.452671 
L 191.809165 263.882697 
L 195.89504 249.515997 
L 199.980915 234.457026 
L 204.06679 218.836365 
L 208.152665 202.810014 
L 212.23854 186.557744 
L 216.324415 170.280471 
L 220.41029 154.196681 
L 224.496165 138.537946 
L 228.58204 123.543661 
L 232.667915 109.455138 
L 236.75379 96.509266 
L 240.839665 84.931948 
L 244.92554 74.931584 
L 249.011415 66.69285 
L 253.09729 60.371032 
L 257.183165 56.087157 
L 261.26904 53.924148 
L 265.354915 53.924148 
L 269.44079 56.087157 
L 273.526665 60.371032 
L 277.612539 66.69285 
L 281.698414 74.931584 
L 285.784289 84.931948 
L 289.870164 96.509266 
L 293.956039 109.455138 
L 298.041914 123.543661 
L 302.127789 138.537946 
L 306.213664 154.196681 
L 310.299539 170.280471 
L 314.385414 186.557744 
L 318.471289 202.810014 
L 322.557164 218.836365 
L 326.643039 234.457026 
L 330.728914 249.515997 
L 334.814789 263.882697 
L 338.900664 277.452671 
L 342.986539 290.14742 
L 347.072414 301.913457 
L 351.158289 312.720696 
L 355.244164 322.560333 
L 359.330039 331.442332 
L 363.415914 339.392682 
L 367.501789 346.450538 
L 371.587664 352.665372 
L 375.673538 358.094236 
L 379.759413 362.799217 
L 383.845288 366.845144 
L 387.931163 370.297593 
L 392.017038 373.221201 
L 396.102913 375.67831 
L 400.188788 377.72792 
L 404.274663 379.424931 
L 408.360538 380.819653 
L 412.446413 381.957547 
L 416.532288 382.879154 
L 420.618163 383.62019 
L 424.704038 384.211746 
L 428.789913 384.680596 
L 432.875788 385.049544 
L 436.961663 385.337817 
L 441.047538 385.561464 
L 445.133413 385.73375 
L 449.219288 385.86554 
L 453.305163 385.965646 
L 457.391038 386.041156 
L 461.476913 386.097716 
L 465.562788 386.139789 
" style="fill:none;stroke:#4bc0c0;stroke-linecap:square;"/>
   </g>
   <g id="patch_3">
    <path d="M 36.086684 402.93 
L 538.286684 402.93 
" style="fill:none;stroke:#000000;stroke-linecap:square;stroke-linejoin:miter;stroke-width:0.8;"/>
   </g>
   <g id="legend_1">
    <g id="patch_4">
     <path d="M 401.900434 109.626875 
L 528.486684 109.626875 
Q 531.286684 109.626875 531.286684 106.826875 
L 531.286684 45.8 
Q 531.286684 43 528.486684 43 
L 401.900434 43 
Q 399.100434 43 399.100434 45.8 
L 399.100434 106.826875 
Q 399.100434 109.626875 401.900434 109.626875 
z
" style="fill:#ffffff;opacity:0.8;stroke:#cccccc;stroke-linejoin:miter;"/>
    </g>
    <g id="patch_5">
     <path d="M 404.700434 59.237813 
L 432.700434 59.237813 
L 432.700434 49.437813 
L 404.700434 49.437813 
z
" style="fill:#ff6384;opacity:0.5;stroke:#ff6384;stroke-linejoin:miter;"/>
    </g>
    <g id="text_1">
     <!-- base -->
     <defs>
      <path d="M 48.6875 27.296875 
Q 48.6875 37.203125 44.609375 42.84375 
Q 40.53125 48.484375 33.40625 48.484375 
Q 26.265625 48.484375 22.1875 42.84375 
Q 18.109375 37.203125 18.109375 27.296875 
Q 18.109375 17.390625 22.1875 11.75 
Q 26.265625 6.109375 33.40625 6.109375 
Q 40.53125 6.109375 44.609375 11.75 
Q 48.6875 17.390625 48.6875 27.296875 
z
M 18.109375 46.390625 
Q 20.953125 51.265625 25.265625 53.625 
Q 29.59375 56 35.59375 56 
Q 45.5625 56 51.78125 48.09375 
Q 58.015625 40.1875 58.015625 27.296875 
Q 58.015625 14.40625 51.78125 6.484375 
Q 45.5625 -1.421875 35.59375 -1.421875 
Q 29.59375 -1.421875 25.265625 0.953125 
Q 20.953125 3.328125 18.109375 8.203125 
L 18.109375 0 
L 9.078125 0 
L 9.078125 75.984375 
L 18.109375 75.984375 
z
" id="DejaVuSans-98"/>
      <path d="M 34.28125 27.484375 
Q 23.390625 27.484375 19.1875 25 
Q 14.984375 22.515625 14.984375 16.5 
Q 14.984375 11.71875 18.140625 8.90625 
Q 21.296875 6.109375 26.703125 6.109375 
Q 34.1875 6.109375 38.703125 11.40625 
Q 43.21875 16.703125 43.21875 25.484375 
L 43.21875 27.484375 
z
M 52.203125 31.203125 
L 52.203125 0 
L 43.21875 0 
L 43.21875 8.296875 
Q 40.140625 3.328125 35.546875 0.953125 
Q 30.953125 -1.421875 24.3125 -1.421875 
Q 15.921875 -1.421875 10.953125 3.296875 
Q 6 8.015625 6 15.921875 
Q 6 25.140625 12.171875 29.828125 
Q 18.359375 34.515625 30.609375 34.515625 
L 43.21875 34.515625 
L 43.21875 35.40625 
Q 43.21875 41.609375 39.140625 45 
Q 35.0625 48.390625 27.6875 48.390625 
Q 23 48.390625 18.546875 47.265625 
Q 14.109375 46.140625 10.015625 43.890625 
L 10.015625 52.203125 
Q 14.9375 54.109375 19.578125 55.046875 
Q 24.21875 56 28.609375 56 
Q 40.484375 56 46.34375 49.84375 
Q 52.203125 43.703125 52.203125 31.203125 
z
" id="DejaVuSans-97"/>
      <path d="M 44.28125 53.078125 
L 44.28125 44.578125 
Q 40.484375 46.53125 36.375 47.5 
Q 32.28125 48.484375 27.875 48.484375 
Q 21.1875 48.484375 17.84375 46.4375 
Q 14.5 44.390625 14.5 40.28125 
Q 14.5 37.15625 16.890625 35.375 
Q 19.28125 33.59375 26.515625 31.984375 
L 29.59375 31.296875 
Q 39.15625 29.25 43.1875 25.515625 
Q 47.21875 21.78125 47.21875 15.09375 
Q 47.21875 7.46875 41.1875 3.015625 
Q 35.15625 -1.421875 24.609375 -1.421875 
Q 20.21875 -1.421875 15.453125 -0.5625 
Q 10.6875 0.296875 5.421875 2 
L 5.421875 11.28125 
Q 10.40625 8.6875 15.234375 7.390625 
Q 20.0625 6.109375 24.8125 6.109375 
Q 31.15625 6.109375 34.5625 8.28125 
Q 37.984375 10.453125 37.984375 14.40625 
Q 37.984375 18.0625 35.515625 20.015625 
Q 33.0625 21.96875 24.703125 23.78125 
L 21.578125 24.515625 
Q 13.234375 26.265625 9.515625 29.90625 
Q 5.8125 33.546875 5.8125 39.890625 
Q 5.8125 47.609375 11.28125 51.796875 
Q 16.75 56 26.8125 56 
Q 31.78125 56 36.171875 55.265625 
Q 40.578125 54.546875 44.28125 53.078125 
z
" id="DejaVuSans-115"/>
      <path d="M 56.203125 29.59375 
L 56.203125 25.203125 
L 14.890625 25.203125 
Q 15.484375 15.921875 20.484375 11.0625 
Q 25.484375 6.203125 34.421875 6.203125 
Q 39.59375 6.203125 44.453125 7.46875 
Q 49.3125 8.734375 54.109375 11.28125 
L 54.109375 2.78125 
Q 49.265625 0.734375 44.1875 -0.34375 
Q 39.109375 -1.421875 33.890625 -1.421875 
Q 20.796875 -1.421875 13.15625 6.1875 
Q 5.515625 13.8125 5.515625 26.8125 
Q 5.515625 40.234375 12.765625 48.109375 
Q 20.015625 56 32.328125 56 
Q 43.359375 56 49.78125 48.890625 
Q 56.203125 41.796875 56.203125 29.59375 
z
M 47.21875 32.234375 
Q 47.125 39.59375 43.09375 43.984375 
Q 39.0625 48.390625 32.421875 48.390625 
Q 24.90625 48.390625 20.390625 44.140625 
Q 15.875 39.890625 15.1875 32.171875 
z
" id="DejaVuSans-101"/>
     </defs>
     <g transform="translate(443.900434 59.237813)scale(0.14 -0.14)">
      <use xlink:href="#DejaVuSans-98"/>
      <use x="63.476562" xlink:href="#DejaVuSans-97"/>
      <use x="124.755859" xlink:href="#DejaVuSans-115"/>
      <use x="176.855469" xlink:href="#DejaVuSans-101"/>
     </g>
    </g>
    <g id="patch_6">
     <path d="M 404.700434 79.787188 
L 432.700434 79.787188 
L 432.700434 69.987188 
L 404.700434 69.987188 
z
" style="fill:#36a2eb;opacity:0.5;stroke:#36a2eb;stroke-linejoin:miter;"/>
    </g>
    <g id="text_2">
     <!-- osago_mid -->
     <defs>
      <path d="M 30.609375 48.390625 
Q 23.390625 48.390625 19.1875 42.75 
Q 14.984375 37.109375 14.984375 27.296875 
Q 14.984375 17.484375 19.15625 11.84375 
Q 23.34375 6.203125 30.609375 6.203125 
Q 37.796875 6.203125 41.984375 11.859375 
Q 46.1875 17.53125 46.1875 27.296875 
Q 46.1875 37.015625 41.984375 42.703125 
Q 37.796875 48.390625 30.609375 48.390625 
z
M 30.609375 56 
Q 42.328125 56 49.015625 48.375 
Q 55.71875 40.765625 55.71875 27.296875 
Q 55.71875 13.875 49.015625 6.21875 
Q 42.328125 -1.421875 30.609375 -1.421875 
Q 18.84375 -1.421875 12.171875 6.21875 
Q 5.515625 13.875 5.515625 27.296875 
Q 5.515625 40.765625 12.171875 48.375 
Q 18.84375 56 30.609375 56 
z
" id="DejaVuSans-111"/>
      <path d="M 45.40625 27.984375 
Q 45.40625 37.75 41.375 43.109375 
Q 37.359375 48.484375 30.078125 48.484375 
Q 22.859375 48.484375 18.828125 43.109375 
Q 14.796875 37.75 14.796875 27.984375 
Q 14.796875 18.265625 18.828125 12.890625 
Q 22.859375 7.515625 30.078125 7.515625 
Q 37.359375 7.515625 41.375 12.890625 
Q 45.40625 18.265625 45.40625 27.984375 
z
M 54.390625 6.78125 
Q 54.390625 -7.171875 48.1875 -13.984375 
Q 42 -20.796875 29.203125 -20.796875 
Q 24.46875 -20.796875 20.265625 -20.09375 
Q 16.0625 -19.390625 12.109375 -17.921875 
L 12.109375 -9.1875 
Q 16.0625 -11.328125 19.921875 -12.34375 
Q 23.78125 -13.375 27.78125 -13.375 
Q 36.625 -13.375 41.015625 -8.765625 
Q 45.40625 -4.15625 45.40625 5.171875 
L 45.40625 9.625 
Q 42.625 4.78125 38.28125 2.390625 
Q 33.9375 0 27.875 0 
Q 17.828125 0 11.671875 7.65625 
Q 5.515625 15.328125 5.515625 27.984375 
Q 5.515625 40.671875 11.671875 48.328125 
Q 17.828125 56 27.875 56 
Q 33.9375 56 38.28125 53.609375 
Q 42.625 51.21875 45.40625 46.390625 
L 45.40625 54.6875 
L 54.390625 54.6875 
z
" id="DejaVuSans-103"/>
      <path d="M 50.984375 -16.609375 
L 50.984375 -23.578125 
L -0.984375 -23.578125 
L -0.984375 -16.609375 
z
" id="DejaVuSans-95"/>
      <path d="M 52 44.1875 
Q 55.375 50.25 60.0625 53.125 
Q 64.75 56 71.09375 56 
Q 79.640625 56 84.28125 50.015625 
Q 88.921875 44.046875 88.921875 33.015625 
L 88.921875 0 
L 79.890625 0 
L 79.890625 32.71875 
Q 79.890625 40.578125 77.09375 44.375 
Q 74.3125 48.1875 68.609375 48.1875 
Q 61.625 48.1875 57.5625 43.546875 
Q 53.515625 38.921875 53.515625 30.90625 
L 53.515625 0 
L 44.484375 0 
L 44.484375 32.71875 
Q 44.484375 40.625 41.703125 44.40625 
Q 38.921875 48.1875 33.109375 48.1875 
Q 26.21875 48.1875 22.15625 43.53125 
Q 18.109375 38.875 18.109375 30.90625 
L 18.109375 0 
L 9.078125 0 
L 9.078125 54.6875 
L 18.109375 54.6875 
L 18.109375 46.1875 
Q 21.1875 51.21875 25.484375 53.609375 
Q 29.78125 56 35.6875 56 
Q 41.65625 56 45.828125 52.96875 
Q 50 49.953125 52 44.1875 
z
" id="DejaVuSans-109"/>
      <path d="M 9.421875 54.6875 
L 18.40625 54.6875 
L 18.40625 0 
L 9.421875 0 
z
M 9.421875 75.984375 
L 18.40625 75.984375 
L 18.40625 64.59375 
L 9.421875 64.59375 
z
" id="DejaVuSans-105"/>
      <path d="M 45.40625 46.390625 
L 45.40625 75.984375 
L 54.390625 75.984375 
L 54.390625 0 
L 45.40625 0 
L 45.40625 8.203125 
Q 42.578125 3.328125 38.25 0.953125 
Q 33.9375 -1.421875 27.875 -1.421875 
Q 17.96875 -1.421875 11.734375 6.484375 
Q 5.515625 14.40625 5.515625 27.296875 
Q 5.515625 40.1875 11.734375 48.09375 
Q 17.96875 56 27.875 56 
Q 33.9375 56 38.25 53.625 
Q 42.578125 51.265625 45.40625 46.390625 
z
M 14.796875 27.296875 
Q 14.796875 17.390625 18.875 11.75 
Q 22.953125 6.109375 30.078125 6.109375 
Q 37.203125 6.109375 41.296875 11.75 
Q 45.40625 17.390625 45.40625 27.296875 
Q 45.40625 37.203125 41.296875 42.84375 
Q 37.203125 48.484375 30.078125 48.484375 
Q 22.953125 48.484375 18.875 42.84375 
Q 14.796875 37.203125 14.796875 27.296875 
z
" id="DejaVuSans-100"/>
     </defs>
     <g transform="translate(443.900434 79.787188)scale(0.14 -0.14)">
      <use xlink:href="#DejaVuSans-111"/>
      <use x="61.181641" xlink:href="#DejaVuSans-115"/>
      <use x="113.28125" xlink:href="#DejaVuSans-97"/>
      <use x="174.560547" xlink:href="#DejaVuSans-103"/>
      <use x="238.037109" xlink:href="#DejaVuSans-111"/>
      <use x="299.21875" xlink:href="#DejaVuSans-95"/>
      <use x="349.21875" xlink:href="#DejaVuSans-109"/>
      <use x="446.630859" xlink:href="#DejaVuSans-105"/>
      <use x="474.414062" xlink:href="#DejaVuSans-100"/>
     </g>
    </g>
    <g id="patch_7">
     <path d="M 404.700434 100.725937 
L 432.700434 100.725937 
L 432.700434 90.925937 
L 404.700434 90.925937 
z
" style="fill:#4bc0c0;opacity:0.5;stroke:#4bc0c0;stroke-linejoin:miter;"/>
    </g>
    <g id="text_3">
     <!-- osago_right -->
     <defs>
      <path d="M 41.109375 46.296875 
Q 39.59375 47.171875 37.8125 47.578125 
Q 36.03125 48 33.890625 48 
Q 26.265625 48 22.1875 43.046875 
Q 18.109375 38.09375 18.109375 28.8125 
L 18.109375 0 
L 9.078125 0 
L 9.078125 54.6875 
L 18.109375 54.6875 
L 18.109375 46.1875 
Q 20.953125 51.171875 25.484375 53.578125 
Q 30.03125 56 36.53125 56 
Q 37.453125 56 38.578125 55.875 
Q 39.703125 55.765625 41.0625 55.515625 
z
" id="DejaVuSans-114"/>
      <path d="M 54.890625 33.015625 
L 54.890625 0 
L 45.90625 0 
L 45.90625 32.71875 
Q 45.90625 40.484375 42.875 44.328125 
Q 39.84375 48.1875 33.796875 48.1875 
Q 26.515625 48.1875 22.3125 43.546875 
Q 18.109375 38.921875 18.109375 30.90625 
L 18.109375 0 
L 9.078125 0 
L 9.078125 75.984375 
L 18.109375 75.984375 
L 18.109375 46.1875 
Q 21.34375 51.125 25.703125 53.5625 
Q 30.078125 56 35.796875 56 
Q 45.21875 56 50.046875 50.171875 
Q 54.890625 44.34375 54.890625 33.015625 
z
" id="DejaVuSans-104"/>
      <path d="M 18.3125 70.21875 
L 18.3125 54.6875 
L 36.8125 54.6875 
L 36.8125 47.703125 
L 18.3125 47.703125 
L 18.3125 18.015625 
Q 18.3125 11.328125 20.140625 9.421875 
Q 21.96875 7.515625 27.59375 7.515625 
L 36.8125 7.515625 
L 36.8125 0 
L 27.59375 0 
Q 17.1875 0 13.234375 3.875 
Q 9.28125 7.765625 9.28125 18.015625 
L 9.28125 47.703125 
L 2.6875 47.703125 
L 2.6875 54.6875 
L 9.28125 54.6875 
L 9.28125 70.21875 
z
" id="DejaVuSans-116"/>
     </defs>
     <g transform="translate(443.900434 100.725937)scale(0.14 -0.14)">
      <use xlink:href="#DejaVuSans-111"/>
      <use x="61.181641" xlink:href="#DejaVuSans-115"/>
      <use x="113.28125" xlink:href="#DejaVuSans-97"/>
      <use x="174.560547" xlink:href="#DejaVuSans-103"/>
      <use x="238.037109" xlink:href="#DejaVuSans-111"/>
      <use x="299.21875" xlink:href="#DejaVuSans-95"/>
      <use x="349.21875" xlink:href="#DejaVuSans-114"/>
      <use x="390.332031" xlink:href="#DejaVuSans-105"/>
      <use x="418.115234" xlink:href="#DejaVuSans-103"/>
      <use x="481.591797" xlink:href="#DejaVuSans-104"/>
      <use x="544.970703" xlink:href="#DejaVuSans-116"/>
     </g>
    </g>
   </g>
  </g>
  <g id="axes_2">
   <g id="patch_8">
    <path d="M 36.086684 525.24 
L 538.286684 525.24 
L 538.286684 402.93 
L 36.086684 402.93 
z
" style="fill:none;"/>
   </g>
   <g id="patch_9">
    <path clip-path="url(#p07c2e0f727)" d="M 213.277148 519.680455 
L 412.027898 519.680455 
L 412.027898 497.442273 
L 213.277148 497.442273 
z
" style="fill:#ff6384;opacity:0.5;"/>
   </g>
   <g id="patch_10">
    <path clip-path="url(#p07c2e0f727)" d="M 161.676731 475.204091 
L 359.142453 475.204091 
L 359.142453 452.965909 
L 161.676731 452.965909 
z
" style="fill:#36a2eb;opacity:0.5;"/>
   </g>
   <g id="patch_11">
    <path clip-path="url(#p07c2e0f727)" d="M 164.20908 430.727727 
L 362.414874 430.727727 
L 362.414874 408.489545 
L 164.20908 408.489545 
z
" style="fill:#4bc0c0;opacity:0.5;"/>
   </g>
   <g id="matplotlib.axis_1">
    <g id="xtick_1">
     <g id="line2d_4">
      <defs>
       <path d="M 0 0 
L 0 3.5 
" id="me59407da4a" style="stroke:#000000;stroke-width:0.8;"/>
      </defs>
      <g>
       <use style="stroke:#000000;stroke-width:0.8;" x="44.9075" xlink:href="#me59407da4a" y="525.24"/>
      </g>
     </g>
     <g id="text_4">
      <!-- 17 -->
      <defs>
       <path d="M 12.40625 8.296875 
L 28.515625 8.296875 
L 28.515625 63.921875 
L 10.984375 60.40625 
L 10.984375 69.390625 
L 28.421875 72.90625 
L 38.28125 72.90625 
L 38.28125 8.296875 
L 54.390625 8.296875 
L 54.390625 0 
L 12.40625 0 
z
" id="DejaVuSans-49"/>
       <path d="M 8.203125 72.90625 
L 55.078125 72.90625 
L 55.078125 68.703125 
L 28.609375 0 
L 18.3125 0 
L 43.21875 64.59375 
L 8.203125 64.59375 
z
" id="DejaVuSans-55"/>
      </defs>
      <g transform="translate(36 542.877813)scale(0.14 -0.14)">
       <use xlink:href="#DejaVuSans-49"/>
       <use x="63.623047" xlink:href="#DejaVuSans-55"/>
      </g>
     </g>
    </g>
    <g id="xtick_2">
     <g id="line2d_5">
      <g>
       <use style="stroke:#000000;stroke-width:0.8;" x="117.467127" xlink:href="#me59407da4a" y="525.24"/>
      </g>
     </g>
     <g id="text_5">
      <!-- 18 -->
      <defs>
       <path d="M 31.78125 34.625 
Q 24.75 34.625 20.71875 30.859375 
Q 16.703125 27.09375 16.703125 20.515625 
Q 16.703125 13.921875 20.71875 10.15625 
Q 24.75 6.390625 31.78125 6.390625 
Q 38.8125 6.390625 42.859375 10.171875 
Q 46.921875 13.96875 46.921875 20.515625 
Q 46.921875 27.09375 42.890625 30.859375 
Q 38.875 34.625 31.78125 34.625 
z
M 21.921875 38.8125 
Q 15.578125 40.375 12.03125 44.71875 
Q 8.5 49.078125 8.5 55.328125 
Q 8.5 64.0625 14.71875 69.140625 
Q 20.953125 74.21875 31.78125 74.21875 
Q 42.671875 74.21875 48.875 69.140625 
Q 55.078125 64.0625 55.078125 55.328125 
Q 55.078125 49.078125 51.53125 44.71875 
Q 48 40.375 41.703125 38.8125 
Q 48.828125 37.15625 52.796875 32.3125 
Q 56.78125 27.484375 56.78125 20.515625 
Q 56.78125 9.90625 50.3125 4.234375 
Q 43.84375 -1.421875 31.78125 -1.421875 
Q 19.734375 -1.421875 13.25 4.234375 
Q 6.78125 9.90625 6.78125 20.515625 
Q 6.78125 27.484375 10.78125 32.3125 
Q 14.796875 37.15625 21.921875 38.8125 
z
M 18.3125 54.390625 
Q 18.3125 48.734375 21.84375 45.5625 
Q 25.390625 42.390625 31.78125 42.390625 
Q 38.140625 42.390625 41.71875 45.5625 
Q 45.3125 48.734375 45.3125 54.390625 
Q 45.3125 60.0625 41.71875 63.234375 
Q 38.140625 66.40625 31.78125 66.40625 
Q 25.390625 66.40625 21.84375 63.234375 
Q 18.3125 60.0625 18.3125 54.390625 
z
" id="DejaVuSans-56"/>
      </defs>
      <g transform="translate(108.559627 542.877813)scale(0.14 -0.14)">
       <use xlink:href="#DejaVuSans-49"/>
       <use x="63.623047" xlink:href="#DejaVuSans-56"/>
      </g>
     </g>
    </g>
    <g id="xtick_3">
     <g id="line2d_6">
      <g>
       <use style="stroke:#000000;stroke-width:0.8;" x="190.026754" xlink:href="#me59407da4a" y="525.24"/>
      </g>
     </g>
     <g id="text_6">
      <!-- 19 -->
      <defs>
       <path d="M 10.984375 1.515625 
L 10.984375 10.5 
Q 14.703125 8.734375 18.5 7.8125 
Q 22.3125 6.890625 25.984375 6.890625 
Q 35.75 6.890625 40.890625 13.453125 
Q 46.046875 20.015625 46.78125 33.40625 
Q 43.953125 29.203125 39.59375 26.953125 
Q 35.25 24.703125 29.984375 24.703125 
Q 19.046875 24.703125 12.671875 31.3125 
Q 6.296875 37.9375 6.296875 49.421875 
Q 6.296875 60.640625 12.9375 67.421875 
Q 19.578125 74.21875 30.609375 74.21875 
Q 43.265625 74.21875 49.921875 64.515625 
Q 56.59375 54.828125 56.59375 36.375 
Q 56.59375 19.140625 48.40625 8.859375 
Q 40.234375 -1.421875 26.421875 -1.421875 
Q 22.703125 -1.421875 18.890625 -0.6875 
Q 15.09375 0.046875 10.984375 1.515625 
z
M 30.609375 32.421875 
Q 37.25 32.421875 41.125 36.953125 
Q 45.015625 41.5 45.015625 49.421875 
Q 45.015625 57.28125 41.125 61.84375 
Q 37.25 66.40625 30.609375 66.40625 
Q 23.96875 66.40625 20.09375 61.84375 
Q 16.21875 57.28125 16.21875 49.421875 
Q 16.21875 41.5 20.09375 36.953125 
Q 23.96875 32.421875 30.609375 32.421875 
z
" id="DejaVuSans-57"/>
      </defs>
      <g transform="translate(181.119254 542.877813)scale(0.14 -0.14)">
       <use xlink:href="#DejaVuSans-49"/>
       <use x="63.623047" xlink:href="#DejaVuSans-57"/>
      </g>
     </g>
    </g>
    <g id="xtick_4">
     <g id="line2d_7">
      <g>
       <use style="stroke:#000000;stroke-width:0.8;" x="262.586381" xlink:href="#me59407da4a" y="525.24"/>
      </g>
     </g>
     <g id="text_7">
      <!-- 20 -->
      <defs>
       <path d="M 19.1875 8.296875 
L 53.609375 8.296875 
L 53.609375 0 
L 7.328125 0 
L 7.328125 8.296875 
Q 12.9375 14.109375 22.625 23.890625 
Q 32.328125 33.6875 34.8125 36.53125 
Q 39.546875 41.84375 41.421875 45.53125 
Q 43.3125 49.21875 43.3125 52.78125 
Q 43.3125 58.59375 39.234375 62.25 
Q 35.15625 65.921875 28.609375 65.921875 
Q 23.96875 65.921875 18.8125 64.3125 
Q 13.671875 62.703125 7.8125 59.421875 
L 7.8125 69.390625 
Q 13.765625 71.78125 18.9375 73 
Q 24.125 74.21875 28.421875 74.21875 
Q 39.75 74.21875 46.484375 68.546875 
Q 53.21875 62.890625 53.21875 53.421875 
Q 53.21875 48.921875 51.53125 44.890625 
Q 49.859375 40.875 45.40625 35.40625 
Q 44.1875 33.984375 37.640625 27.21875 
Q 31.109375 20.453125 19.1875 8.296875 
z
" id="DejaVuSans-50"/>
       <path d="M 31.78125 66.40625 
Q 24.171875 66.40625 20.328125 58.90625 
Q 16.5 51.421875 16.5 36.375 
Q 16.5 21.390625 20.328125 13.890625 
Q 24.171875 6.390625 31.78125 6.390625 
Q 39.453125 6.390625 43.28125 13.890625 
Q 47.125 21.390625 47.125 36.375 
Q 47.125 51.421875 43.28125 58.90625 
Q 39.453125 66.40625 31.78125 66.40625 
z
M 31.78125 74.21875 
Q 44.046875 74.21875 50.515625 64.515625 
Q 56.984375 54.828125 56.984375 36.375 
Q 56.984375 17.96875 50.515625 8.265625 
Q 44.046875 -1.421875 31.78125 -1.421875 
Q 19.53125 -1.421875 13.0625 8.265625 
Q 6.59375 17.96875 6.59375 36.375 
Q 6.59375 54.828125 13.0625 64.515625 
Q 19.53125 74.21875 31.78125 74.21875 
z
" id="DejaVuSans-48"/>
      </defs>
      <g transform="translate(253.678881 542.877813)scale(0.14 -0.14)">
       <use xlink:href="#DejaVuSans-50"/>
       <use x="63.623047" xlink:href="#DejaVuSans-48"/>
      </g>
     </g>
    </g>
    <g id="xtick_5">
     <g id="line2d_8">
      <g>
       <use style="stroke:#000000;stroke-width:0.8;" x="335.146008" xlink:href="#me59407da4a" y="525.24"/>
      </g>
     </g>
     <g id="text_8">
      <!-- 21 -->
      <g transform="translate(326.238508 542.877813)scale(0.14 -0.14)">
       <use xlink:href="#DejaVuSans-50"/>
       <use x="63.623047" xlink:href="#DejaVuSans-49"/>
      </g>
     </g>
    </g>
    <g id="xtick_6">
     <g id="line2d_9">
      <g>
       <use style="stroke:#000000;stroke-width:0.8;" x="407.705635" xlink:href="#me59407da4a" y="525.24"/>
      </g>
     </g>
     <g id="text_9">
      <!-- 22 -->
      <g transform="translate(398.798135 542.877813)scale(0.14 -0.14)">
       <use xlink:href="#DejaVuSans-50"/>
       <use x="63.623047" xlink:href="#DejaVuSans-50"/>
      </g>
     </g>
    </g>
    <g id="xtick_7">
     <g id="line2d_10">
      <g>
       <use style="stroke:#000000;stroke-width:0.8;" x="480.265262" xlink:href="#me59407da4a" y="525.24"/>
      </g>
     </g>
     <g id="text_10">
      <!-- 23 -->
      <defs>
       <path d="M 40.578125 39.3125 
Q 47.65625 37.796875 51.625 33 
Q 55.609375 28.21875 55.609375 21.1875 
Q 55.609375 10.40625 48.1875 4.484375 
Q 40.765625 -1.421875 27.09375 -1.421875 
Q 22.515625 -1.421875 17.65625 -0.515625 
Q 12.796875 0.390625 7.625 2.203125 
L 7.625 11.71875 
Q 11.71875 9.328125 16.59375 8.109375 
Q 21.484375 6.890625 26.8125 6.890625 
Q 36.078125 6.890625 40.9375 10.546875 
Q 45.796875 14.203125 45.796875 21.1875 
Q 45.796875 27.640625 41.28125 31.265625 
Q 36.765625 34.90625 28.71875 34.90625 
L 20.21875 34.90625 
L 20.21875 43.015625 
L 29.109375 43.015625 
Q 36.375 43.015625 40.234375 45.921875 
Q 44.09375 48.828125 44.09375 54.296875 
Q 44.09375 59.90625 40.109375 62.90625 
Q 36.140625 65.921875 28.71875 65.921875 
Q 24.65625 65.921875 20.015625 65.03125 
Q 15.375 64.15625 9.8125 62.3125 
L 9.8125 71.09375 
Q 15.4375 72.65625 20.34375 73.4375 
Q 25.25 74.21875 29.59375 74.21875 
Q 40.828125 74.21875 47.359375 69.109375 
Q 53.90625 64.015625 53.90625 55.328125 
Q 53.90625 49.265625 50.4375 45.09375 
Q 46.96875 40.921875 40.578125 39.3125 
z
" id="DejaVuSans-51"/>
      </defs>
      <g transform="translate(471.357762 542.877813)scale(0.14 -0.14)">
       <use xlink:href="#DejaVuSans-50"/>
       <use x="63.623047" xlink:href="#DejaVuSans-51"/>
      </g>
     </g>
    </g>
   </g>
   <g id="line2d_11">
    <path clip-path="url(#p07c2e0f727)" d="M 312.652523 525.24 
L 312.652523 402.93 
" style="fill:none;stroke:#ff6384;stroke-dasharray:5.55,2.4;stroke-dashoffset:0;stroke-opacity:0.8;stroke-width:1.5;"/>
   </g>
   <g id="line2d_12">
    <path clip-path="url(#p07c2e0f727)" d="M 260.409592 525.24 
L 260.409592 402.93 
" style="fill:none;stroke:#36a2eb;stroke-dasharray:5.55,2.4;stroke-dashoffset:0;stroke-opacity:0.8;stroke-width:1.5;"/>
   </g>
   <g id="line2d_13">
    <path clip-path="url(#p07c2e0f727)" d="M 263.311977 525.24 
L 263.311977 402.93 
" style="fill:none;stroke:#4bc0c0;stroke-dasharray:5.55,2.4;stroke-dashoffset:0;stroke-opacity:0.8;stroke-width:1.5;"/>
   </g>
   <g id="patch_12">
    <path d="M 36.086684 525.24 
L 538.286684 525.24 
" style="fill:none;stroke:#000000;stroke-linecap:square;stroke-linejoin:miter;stroke-width:0.8;"/>
   </g>
  </g>
 </g>
 <defs>
  <clipPath id="p76f7f21ff9">
   <rect height="366.93" width="502.2" x="36.086684" y="36"/>
  </clipPath>
  <clipPath id="p07c2e0f727">
   <rect height="122.31" width="502.2" x="36.086684" y="402.93"/>
  </clipPath>
 </defs>
</svg>
