<?xml version="1.0" encoding="utf-8" standalone="no"?>
<!DOCTYPE svg PUBLIC "-//W3C//DTD SVG 1.1//EN"
  "http://www.w3.org/Graphics/SVG/1.1/DTD/svg11.dtd">
<!-- Created with matplotlib (https://matplotlib.org/) -->
<svg height="581.789375pt" version="1.1" viewBox="0 0 574.2 581.789375" width="574.2pt" xmlns="http://www.w3.org/2000/svg" xmlns:xlink="http://www.w3.org/1999/xlink">
 <defs>
  <style type="text/css">
*{stroke-linecap:butt;stroke-linejoin:round;}
  </style>
 </defs>
 <g id="figure_1">
  <g id="patch_1">
   <path d="M 0 581.789375 
L 574.2 581.789375 
L 574.2 0 
L 0 0 
z
" style="fill:none;"/>
  </g>
  <g id="axes_1">
   <g id="patch_2">
    <path d="M 36 402.93 
L 538.2 402.93 
L 538.2 36 
L 36 36 
z
" style="fill:none;"/>
   </g>
   <g id="PolyCollection_1">
    <defs>
     <path d="M 137.493104 -195.538011 
L 137.493104 -195.649235 
L 141.31007 -195.691176 
L 145.127036 -195.747559 
L 148.944002 -195.822832 
L 152.760968 -195.922624 
L 156.577934 -196.053999 
L 160.3949 -196.225744 
L 164.211866 -196.448688 
L 168.028831 -196.736056 
L 171.845797 -197.103845 
L 175.662763 -197.571222 
L 179.479729 -198.160921 
L 183.296695 -198.899629 
L 187.113661 -199.818342 
L 190.930627 -200.952661 
L 194.747593 -202.343003 
L 198.564559 -204.034683 
L 202.381524 -206.077855 
L 206.19849 -208.527247 
L 210.015456 -211.441672 
L 213.832422 -214.883277 
L 217.649388 -218.916496 
L 221.466354 -223.606699 
L 225.28332 -229.018511 
L 229.100286 -235.213825 
L 232.917252 -242.249513 
L 236.734217 -250.174892 
L 240.551183 -259.028993 
L 244.368149 -268.837724 
L 248.185115 -279.611018 
L 252.002081 -291.340098 
L 255.819047 -303.994974 
L 259.636013 -317.522326 
L 263.452979 -331.843901 
L 267.269945 -346.855572 
L 271.08691 -362.42717 
L 274.903876 -378.403183 
L 278.720842 -394.604406 
L 282.537808 -410.830553 
L 286.354774 -426.863825 
L 290.17174 -442.473377 
L 293.988706 -457.420566 
L 297.805672 -471.464837 
L 301.622638 -484.370047 
L 305.439603 -495.911002 
L 309.256569 -505.879955 
L 313.073535 -514.092811 
L 316.890501 -520.394774 
L 320.707467 -524.665193 
L 324.524433 -526.821408 
L 328.341399 -526.821408 
L 332.158365 -524.665193 
L 335.975331 -520.394774 
L 339.792296 -514.092811 
L 343.609262 -505.879955 
L 347.426228 -495.911002 
L 351.243194 -484.370047 
L 355.06016 -471.464837 
L 358.877126 -457.420566 
L 362.694092 -442.473377 
L 366.511058 -426.863825 
L 370.328024 -410.830553 
L 374.144989 -394.604406 
L 377.961955 -378.403183 
L 381.778921 -362.42717 
L 385.595887 -346.855572 
L 389.412853 -331.843901 
L 393.229819 -317.522326 
L 397.046785 -303.994974 
L 400.863751 -291.340098 
L 404.680717 -279.611018 
L 408.497682 -268.837724 
L 412.314648 -259.028993 
L 416.131614 -250.174892 
L 419.94858 -242.249513 
L 423.765546 -235.213825 
L 427.582512 -229.018511 
L 431.399478 -223.606699 
L 435.216444 -218.916496 
L 439.03341 -214.883277 
L 442.850375 -211.441672 
L 446.667341 -208.527247 
L 450.484307 -206.077855 
L 454.301273 -204.034683 
L 458.118239 -202.343003 
L 461.935205 -200.952661 
L 465.752171 -199.818342 
L 469.569137 -198.899629 
L 473.386103 -198.160921 
L 477.203068 -197.571222 
L 481.020034 -197.103845 
L 484.837 -196.736056 
L 488.653966 -196.448688 
L 492.470932 -196.225744 
L 496.287898 -196.053999 
L 500.104864 -195.922624 
L 503.92183 -195.822832 
L 507.738795 -195.747559 
L 511.555761 -195.691176 
L 515.372727 -195.649235 
L 515.372727 -195.538011 
L 515.372727 -195.538011 
L 511.555761 -195.538011 
L 507.738795 -195.538011 
L 503.92183 -195.538011 
L 500.104864 -195.538011 
L 496.287898 -195.538011 
L 492.470932 -195.538011 
L 488.653966 -195.538011 
L 484.837 -195.538011 
L 481.020034 -195.538011 
L 477.203068 -195.538011 
L 473.386103 -195.538011 
L 469.569137 -195.538011 
L 465.752171 -195.538011 
L 461.935205 -195.538011 
L 458.118239 -195.538011 
L 454.301273 -195.538011 
L 450.484307 -195.538011 
L 446.667341 -195.538011 
L 442.850375 -195.538011 
L 439.03341 -195.538011 
L 435.216444 -195.538011 
L 431.399478 -195.538011 
L 427.582512 -195.538011 
L 423.765546 -195.538011 
L 419.94858 -195.538011 
L 416.131614 -195.538011 
L 412.314648 -195.538011 
L 408.497682 -195.538011 
L 404.680717 -195.538011 
L 400.863751 -195.538011 
L 397.046785 -195.538011 
L 393.229819 -195.538011 
L 389.412853 -195.538011 
L 385.595887 -195.538011 
L 381.778921 -195.538011 
L 377.961955 -195.538011 
L 374.144989 -195.538011 
L 370.328024 -195.538011 
L 366.511058 -195.538011 
L 362.694092 -195.538011 
L 358.877126 -195.538011 
L 355.06016 -195.538011 
L 351.243194 -195.538011 
L 347.426228 -195.538011 
L 343.609262 -195.538011 
L 339.792296 -195.538011 
L 335.975331 -195.538011 
L 332.158365 -195.538011 
L 328.341399 -195.538011 
L 324.524433 -195.538011 
L 320.707467 -195.538011 
L 316.890501 -195.538011 
L 313.073535 -195.538011 
L 309.256569 -195.538011 
L 305.439603 -195.538011 
L 301.622638 -195.538011 
L 297.805672 -195.538011 
L 293.988706 -195.538011 
L 290.17174 -195.538011 
L 286.354774 -195.538011 
L 282.537808 -195.538011 
L 278.720842 -195.538011 
L 274.903876 -195.538011 
L 271.08691 -195.538011 
L 267.269945 -195.538011 
L 263.452979 -195.538011 
L 259.636013 -195.538011 
L 255.819047 -195.538011 
L 252.002081 -195.538011 
L 248.185115 -195.538011 
L 244.368149 -195.538011 
L 240.551183 -195.538011 
L 236.734217 -195.538011 
L 232.917252 -195.538011 
L 229.100286 -195.538011 
L 225.28332 -195.538011 
L 221.466354 -195.538011 
L 217.649388 -195.538011 
L 213.832422 -195.538011 
L 210.015456 -195.538011 
L 206.19849 -195.538011 
L 202.381524 -195.538011 
L 198.564559 -195.538011 
L 194.747593 -195.538011 
L 190.930627 -195.538011 
L 187.113661 -195.538011 
L 183.296695 -195.538011 
L 179.479729 -195.538011 
L 175.662763 -195.538011 
L 171.845797 -195.538011 
L 168.028831 -195.538011 
L 164.211866 -195.538011 
L 160.3949 -195.538011 
L 156.577934 -195.538011 
L 152.760968 -195.538011 
L 148.944002 -195.538011 
L 145.127036 -195.538011 
L 141.31007 -195.538011 
L 137.493104 -195.538011 
z
" id="m8b4f01cd26" style="stroke:#ff6384;stroke-opacity:0.5;"/>
    </defs>
    <g clip-path="url(#pc23b27d78a)">
     <use style="fill:#ff6384;fill-opacity:0.5;stroke:#ff6384;stroke-opacity:0.5;" x="0" xlink:href="#m8b4f01cd26" y="581.789375"/>
    </g>
   </g>
   <g id="PolyCollection_2">
    <defs>
     <path d="M 58.827273 -195.538011 
L 58.827273 -195.650004 
L 62.618043 -195.692234 
L 66.408812 -195.749007 
L 70.199582 -195.8248 
L 73.990352 -195.925281 
L 77.781122 -196.057565 
L 81.571892 -196.230497 
L 85.362661 -196.454982 
L 89.153431 -196.744335 
L 92.944201 -197.114666 
L 96.734971 -197.585273 
L 100.525741 -198.179047 
L 104.31651 -198.922859 
L 108.10728 -199.847921 
L 111.89805 -200.990079 
L 115.68882 -202.390029 
L 119.47959 -204.093399 
L 123.27036 -206.150691 
L 127.061129 -208.617009 
L 130.851899 -211.551575 
L 134.642669 -215.016962 
L 138.433439 -219.078053 
L 142.224209 -223.800667 
L 146.014978 -229.249878 
L 149.805748 -235.488004 
L 153.596518 -242.572312 
L 157.387288 -250.552459 
L 161.178058 -259.467747 
L 164.968827 -269.344261 
L 168.759597 -280.192004 
L 172.550367 -292.002137 
L 176.341137 -304.744465 
L 180.131907 -318.365297 
L 183.922676 -332.785841 
L 187.713446 -347.901251 
L 191.504216 -363.580456 
L 195.294986 -379.666871 
L 199.085756 -395.980052 
L 202.876526 -412.31833 
L 206.667295 -428.4624 
L 210.458065 -444.179822 
L 214.248835 -459.230303 
L 218.039605 -473.371627 
L 221.830375 -486.366018 
L 225.621144 -497.986726 
L 229.411914 -508.02457 
L 233.202684 -516.294181 
L 236.993454 -522.639693 
L 240.784224 -526.939623 
L 244.574993 -529.110739 
L 248.365763 -529.110739 
L 252.156533 -526.939623 
L 255.947303 -522.639693 
L 259.738073 -516.294181 
L 263.528843 -508.02457 
L 267.319612 -497.986726 
L 271.110382 -486.366018 
L 274.901152 -473.371627 
L 278.691922 -459.230303 
L 282.482692 -444.179822 
L 286.273461 -428.4624 
L 290.064231 -412.31833 
L 293.855001 -395.980052 
L 297.645771 -379.666871 
L 301.436541 -363.580456 
L 305.22731 -347.901251 
L 309.01808 -332.785841 
L 312.80885 -318.365297 
L 316.59962 -304.744465 
L 320.39039 -292.002137 
L 324.181159 -280.192004 
L 327.971929 -269.344261 
L 331.762699 -259.467747 
L 335.553469 -250.552459 
L 339.344239 -242.572312 
L 343.135009 -235.488004 
L 346.925778 -229.249878 
L 350.716548 -223.800667 
L 354.507318 -219.078053 
L 358.298088 -215.016962 
L 362.088858 -211.551575 
L 365.879627 -208.617009 
L 369.670397 -206.150691 
L 373.461167 -204.093399 
L 377.251937 -202.390029 
L 381.042707 -200.990079 
L 384.833476 -199.847921 
L 388.624246 -198.922859 
L 392.415016 -198.179047 
L 396.205786 -197.585273 
L 399.996556 -197.114666 
L 403.787326 -196.744335 
L 407.578095 -196.454982 
L 411.368865 -196.230497 
L 415.159635 -196.057565 
L 418.950405 -195.925281 
L 422.741175 -195.8248 
L 426.531944 -195.749007 
L 430.322714 -195.692234 
L 434.113484 -195.650004 
L 434.113484 -195.538011 
L 434.113484 -195.538011 
L 430.322714 -195.538011 
L 426.531944 -195.538011 
L 422.741175 -195.538011 
L 418.950405 -195.538011 
L 415.159635 -195.538011 
L 411.368865 -195.538011 
L 407.578095 -195.538011 
L 403.787326 -195.538011 
L 399.996556 -195.538011 
L 396.205786 -195.538011 
L 392.415016 -195.538011 
L 388.624246 -195.538011 
L 384.833476 -195.538011 
L 381.042707 -195.538011 
L 377.251937 -195.538011 
L 373.461167 -195.538011 
L 369.670397 -195.538011 
L 365.879627 -195.538011 
L 362.088858 -195.538011 
L 358.298088 -195.538011 
L 354.507318 -195.538011 
L 350.716548 -195.538011 
L 346.925778 -195.538011 
L 343.135009 -195.538011 
L 339.344239 -195.538011 
L 335.553469 -195.538011 
L 331.762699 -195.538011 
L 327.971929 -195.538011 
L 324.181159 -195.538011 
L 320.39039 -195.538011 
L 316.59962 -195.538011 
L 312.80885 -195.538011 
L 309.01808 -195.538011 
L 305.22731 -195.538011 
L 301.436541 -195.538011 
L 297.645771 -195.538011 
L 293.855001 -195.538011 
L 290.064231 -195.538011 
L 286.273461 -195.538011 
L 282.482692 -195.538011 
L 278.691922 -195.538011 
L 274.901152 -195.538011 
L 271.110382 -195.538011 
L 267.319612 -195.538011 
L 263.528843 -195.538011 
L 259.738073 -195.538011 
L 255.947303 -195.538011 
L 252.156533 -195.538011 
L 248.365763 -195.538011 
L 244.574993 -195.538011 
L 240.784224 -195.538011 
L 236.993454 -195.538011 
L 233.202684 -195.538011 
L 229.411914 -195.538011 
L 225.621144 -195.538011 
L 221.830375 -195.538011 
L 218.039605 -195.538011 
L 214.248835 -195.538011 
L 210.458065 -195.538011 
L 206.667295 -195.538011 
L 202.876526 -195.538011 
L 199.085756 -195.538011 
L 195.294986 -195.538011 
L 191.504216 -195.538011 
L 187.713446 -195.538011 
L 183.922676 -195.538011 
L 180.131907 -195.538011 
L 176.341137 -195.538011 
L 172.550367 -195.538011 
L 168.759597 -195.538011 
L 164.968827 -195.538011 
L 161.178058 -195.538011 
L 157.387288 -195.538011 
L 153.596518 -195.538011 
L 149.805748 -195.538011 
L 146.014978 -195.538011 
L 142.224209 -195.538011 
L 138.433439 -195.538011 
L 134.642669 -195.538011 
L 130.851899 -195.538011 
L 127.061129 -195.538011 
L 123.27036 -195.538011 
L 119.47959 -195.538011 
L 115.68882 -195.538011 
L 111.89805 -195.538011 
L 108.10728 -195.538011 
L 104.31651 -195.538011 
L 100.525741 -195.538011 
L 96.734971 -195.538011 
L 92.944201 -195.538011 
L 89.153431 -195.538011 
L 85.362661 -195.538011 
L 81.571892 -195.538011 
L 77.781122 -195.538011 
L 73.990352 -195.538011 
L 70.199582 -195.538011 
L 66.408812 -195.538011 
L 62.618043 -195.538011 
L 58.827273 -195.538011 
z
" id="m8ddb5f75e7" style="stroke:#36a2eb;stroke-opacity:0.5;"/>
    </defs>
    <g clip-path="url(#pc23b27d78a)">
     <use style="fill:#36a2eb;fill-opacity:0.5;stroke:#36a2eb;stroke-opacity:0.5;" x="0" xlink:href="#m8ddb5f75e7" y="581.789375"/>
    </g>
   </g>
   <g id="PolyCollection_3">
    <defs>
     <path d="M 113.594051 -195.538011 
L 113.594051 -195.649171 
L 117.41321 -195.691088 
L 121.232369 -195.747439 
L 125.051527 -195.822668 
L 128.870686 -195.922403 
L 132.689845 -196.053703 
L 136.509004 -196.225349 
L 140.328162 -196.448165 
L 144.147321 -196.735368 
L 147.96648 -197.102946 
L 151.785639 -197.570055 
L 155.604797 -198.159415 
L 159.423956 -198.897699 
L 163.243115 -199.815884 
L 167.062274 -200.949553 
L 170.881432 -202.339095 
L 174.700591 -204.029805 
L 178.51975 -206.071804 
L 182.338908 -208.519789 
L 186.158067 -211.432541 
L 189.977226 -214.872169 
L 193.796385 -218.903073 
L 197.615543 -223.590583 
L 201.434702 -228.999288 
L 205.253861 -235.191044 
L 209.07302 -242.222692 
L 212.892178 -250.143521 
L 216.711337 -258.992538 
L 220.530496 -268.795637 
L 224.349655 -279.562746 
L 228.168813 -291.285091 
L 231.987972 -303.932701 
L 235.807131 -317.452286 
L 239.62629 -331.765638 
L 243.445448 -346.76869 
L 247.264607 -362.331347 
L 251.083766 -378.298187 
L 254.902925 -394.490108 
L 258.722083 -410.706938 
L 262.541242 -426.731005 
L 266.360401 -442.331594 
L 270.17956 -457.270201 
L 273.998718 -471.306408 
L 277.817877 -484.204208 
L 281.637036 -495.738536 
L 285.456194 -505.701765 
L 289.275353 -513.909906 
L 293.094512 -520.20825 
L 296.913671 -524.476217 
L 300.732829 -526.631194 
L 304.551988 -526.631194 
L 308.371147 -524.476217 
L 312.190306 -520.20825 
L 316.009464 -513.909906 
L 319.828623 -505.701765 
L 323.647782 -495.738536 
L 327.466941 -484.204208 
L 331.286099 -471.306408 
L 335.105258 -457.270201 
L 338.924417 -442.331594 
L 342.743576 -426.731005 
L 346.562734 -410.706938 
L 350.381893 -394.490108 
L 354.201052 -378.298187 
L 358.020211 -362.331347 
L 361.839369 -346.76869 
L 365.658528 -331.765638 
L 369.477687 -317.452286 
L 373.296846 -303.932701 
L 377.116004 -291.285091 
L 380.935163 -279.562746 
L 384.754322 -268.795637 
L 388.57348 -258.992538 
L 392.392639 -250.143521 
L 396.211798 -242.222692 
L 400.030957 -235.191044 
L 403.850115 -228.999288 
L 407.669274 -223.590583 
L 411.488433 -218.903073 
L 415.307592 -214.872169 
L 419.12675 -211.432541 
L 422.945909 -208.519789 
L 426.765068 -206.071804 
L 430.584227 -204.029805 
L 434.403385 -202.339095 
L 438.222544 -200.949553 
L 442.041703 -199.815884 
L 445.860862 -198.897699 
L 449.68002 -198.159415 
L 453.499179 -197.570055 
L 457.318338 -197.102946 
L 461.137497 -196.735368 
L 464.956655 -196.448165 
L 468.775814 -196.225349 
L 472.594973 -196.053703 
L 476.414132 -195.922403 
L 480.23329 -195.822668 
L 484.052449 -195.747439 
L 487.871608 -195.691088 
L 491.690766 -195.649171 
L 491.690766 -195.538011 
L 491.690766 -195.538011 
L 487.871608 -195.538011 
L 484.052449 -195.538011 
L 480.23329 -195.538011 
L 476.414132 -195.538011 
L 472.594973 -195.538011 
L 468.775814 -195.538011 
L 464.956655 -195.538011 
L 461.137497 -195.538011 
L 457.318338 -195.538011 
L 453.499179 -195.538011 
L 449.68002 -195.538011 
L 445.860862 -195.538011 
L 442.041703 -195.538011 
L 438.222544 -195.538011 
L 434.403385 -195.538011 
L 430.584227 -195.538011 
L 426.765068 -195.538011 
L 422.945909 -195.538011 
L 419.12675 -195.538011 
L 415.307592 -195.538011 
L 411.488433 -195.538011 
L 407.669274 -195.538011 
L 403.850115 -195.538011 
L 400.030957 -195.538011 
L 396.211798 -195.538011 
L 392.392639 -195.538011 
L 388.57348 -195.538011 
L 384.754322 -195.538011 
L 380.935163 -195.538011 
L 377.116004 -195.538011 
L 373.296846 -195.538011 
L 369.477687 -195.538011 
L 365.658528 -195.538011 
L 361.839369 -195.538011 
L 358.020211 -195.538011 
L 354.201052 -195.538011 
L 350.381893 -195.538011 
L 346.562734 -195.538011 
L 342.743576 -195.538011 
L 338.924417 -195.538011 
L 335.105258 -195.538011 
L 331.286099 -195.538011 
L 327.466941 -195.538011 
L 323.647782 -195.538011 
L 319.828623 -195.538011 
L 316.009464 -195.538011 
L 312.190306 -195.538011 
L 308.371147 -195.538011 
L 304.551988 -195.538011 
L 300.732829 -195.538011 
L 296.913671 -195.538011 
L 293.094512 -195.538011 
L 289.275353 -195.538011 
L 285.456194 -195.538011 
L 281.637036 -195.538011 
L 277.817877 -195.538011 
L 273.998718 -195.538011 
L 270.17956 -195.538011 
L 266.360401 -195.538011 
L 262.541242 -195.538011 
L 258.722083 -195.538011 
L 254.902925 -195.538011 
L 251.083766 -195.538011 
L 247.264607 -195.538011 
L 243.445448 -195.538011 
L 239.62629 -195.538011 
L 235.807131 -195.538011 
L 231.987972 -195.538011 
L 228.168813 -195.538011 
L 224.349655 -195.538011 
L 220.530496 -195.538011 
L 216.711337 -195.538011 
L 212.892178 -195.538011 
L 209.07302 -195.538011 
L 205.253861 -195.538011 
L 201.434702 -195.538011 
L 197.615543 -195.538011 
L 193.796385 -195.538011 
L 189.977226 -195.538011 
L 186.158067 -195.538011 
L 182.338908 -195.538011 
L 178.51975 -195.538011 
L 174.700591 -195.538011 
L 170.881432 -195.538011 
L 167.062274 -195.538011 
L 163.243115 -195.538011 
L 159.423956 -195.538011 
L 155.604797 -195.538011 
L 151.785639 -195.538011 
L 147.96648 -195.538011 
L 144.147321 -195.538011 
L 140.328162 -195.538011 
L 136.509004 -195.538011 
L 132.689845 -195.538011 
L 128.870686 -195.538011 
L 125.051527 -195.538011 
L 121.232369 -195.538011 
L 117.41321 -195.538011 
L 113.594051 -195.538011 
z
" id="m5f9c5e1cb9" style="stroke:#4bc0c0;stroke-opacity:0.5;"/>
    </defs>
    <g clip-path="url(#pc23b27d78a)">
     <use style="fill:#4bc0c0;fill-opacity:0.5;stroke:#4bc0c0;stroke-opacity:0.5;" x="0" xlink:href="#m5f9c5e1cb9" y="581.789375"/>
    </g>
   </g>
   <g id="line2d_1">
    <path clip-path="url(#pc23b27d78a)" d="M 137.493104 386.14014 
L 141.31007 386.098199 
L 145.127036 386.041816 
L 148.944002 385.966543 
L 152.760968 385.866751 
L 156.577934 385.735376 
L 160.3949 385.563631 
L 164.211866 385.340687 
L 168.028831 385.053319 
L 171.845797 384.68553 
L 175.662763 384.218153 
L 179.479729 383.628454 
L 183.296695 382.889746 
L 187.113661 381.971033 
L 190.930627 380.836714 
L 194.747593 379.446372 
L 198.564559 377.754692 
L 202.381524 375.71152 
L 206.19849 373.262128 
L 210.015456 370.347703 
L 213.832422 366.906098 
L 217.649388 362.872879 
L 221.466354 358.182676 
L 225.28332 352.770864 
L 229.100286 346.57555 
L 232.917252 339.539862 
L 236.734217 331.614483 
L 240.551183 322.760382 
L 244.368149 312.951651 
L 248.185115 302.178357 
L 252.002081 290.449277 
L 255.819047 277.794401 
L 259.636013 264.267049 
L 263.452979 249.945474 
L 267.269945 234.933803 
L 271.08691 219.362205 
L 274.903876 203.386192 
L 278.720842 187.184969 
L 282.537808 170.958822 
L 286.354774 154.92555 
L 290.17174 139.315998 
L 293.988706 124.368809 
L 297.805672 110.324538 
L 301.622638 97.419328 
L 305.439603 85.878373 
L 309.256569 75.90942 
L 313.073535 67.696564 
L 316.890501 61.394601 
L 320.707467 57.124182 
L 324.524433 54.967967 
L 328.341399 54.967967 
L 332.158365 57.124182 
L 335.975331 61.394601 
L 339.792296 67.696564 
L 343.609262 75.90942 
L 347.426228 85.878373 
L 351.243194 97.419328 
L 355.06016 110.324538 
L 358.877126 124.368809 
L 362.694092 139.315998 
L 366.511058 154.92555 
L 370.328024 170.958822 
L 374.144989 187.184969 
L 377.961955 203.386192 
L 381.778921 219.362205 
L 385.595887 234.933803 
L 389.412853 249.945474 
L 393.229819 264.267049 
L 397.046785 277.794401 
L 400.863751 290.449277 
L 404.680717 302.178357 
L 408.497682 312.951651 
L 412.314648 322.760382 
L 416.131614 331.614483 
L 419.94858 339.539862 
L 423.765546 346.57555 
L 427.582512 352.770864 
L 431.399478 358.182676 
L 435.216444 362.872879 
L 439.03341 366.906098 
L 442.850375 370.347703 
L 446.667341 373.262128 
L 450.484307 375.71152 
L 454.301273 377.754692 
L 458.118239 379.446372 
L 461.935205 380.836714 
L 465.752171 381.971033 
L 469.569137 382.889746 
L 473.386103 383.628454 
L 477.203068 384.218153 
L 481.020034 384.68553 
L 484.837 385.053319 
L 488.653966 385.340687 
L 492.470932 385.563631 
L 496.287898 385.735376 
L 500.104864 385.866751 
L 503.92183 385.966543 
L 507.738795 386.041816 
L 511.555761 386.098199 
L 515.372727 386.14014 
" style="fill:none;stroke:#ff6384;stroke-linecap:square;"/>
   </g>
   <g id="line2d_2">
    <path clip-path="url(#pc23b27d78a)" d="M 58.827273 386.139371 
L 62.618043 386.097141 
L 66.408812 386.040368 
L 70.199582 385.964575 
L 73.990352 385.864094 
L 77.781122 385.73181 
L 81.571892 385.558878 
L 85.362661 385.334393 
L 89.153431 385.04504 
L 92.944201 384.674709 
L 96.734971 384.204102 
L 100.525741 383.610328 
L 104.31651 382.866516 
L 108.10728 381.941454 
L 111.89805 380.799296 
L 115.68882 379.399346 
L 119.47959 377.695976 
L 123.27036 375.638684 
L 127.061129 373.172366 
L 130.851899 370.2378 
L 134.642669 366.772413 
L 138.433439 362.711322 
L 142.224209 357.988708 
L 146.014978 352.539497 
L 149.805748 346.301371 
L 153.596518 339.217063 
L 157.387288 331.236916 
L 161.178058 322.321628 
L 164.968827 312.445114 
L 168.759597 301.597371 
L 172.550367 289.787238 
L 176.341137 277.04491 
L 180.131907 263.424078 
L 183.922676 249.003534 
L 187.713446 233.888124 
L 191.504216 218.208919 
L 195.294986 202.122504 
L 199.085756 185.809323 
L 202.876526 169.471045 
L 206.667295 153.326975 
L 210.458065 137.609553 
L 214.248835 122.559072 
L 218.039605 108.417748 
L 221.830375 95.423357 
L 225.621144 83.802649 
L 229.411914 73.764805 
L 233.202684 65.495194 
L 236.993454 59.149682 
L 240.784224 54.849752 
L 244.574993 52.678636 
L 248.365763 52.678636 
L 252.156533 54.849752 
L 255.947303 59.149682 
L 259.738073 65.495194 
L 263.528843 73.764805 
L 267.319612 83.802649 
L 271.110382 95.423357 
L 274.901152 108.417748 
L 278.691922 122.559072 
L 282.482692 137.609553 
L 286.273461 153.326975 
L 290.064231 169.471045 
L 293.855001 185.809323 
L 297.645771 202.122504 
L 301.436541 218.208919 
L 305.22731 233.888124 
L 309.01808 249.003534 
L 312.80885 263.424078 
L 316.59962 277.04491 
L 320.39039 289.787238 
L 324.181159 301.597371 
L 327.971929 312.445114 
L 331.762699 322.321628 
L 335.553469 331.236916 
L 339.344239 339.217063 
L 343.135009 346.301371 
L 346.925778 352.539497 
L 350.716548 357.988708 
L 354.507318 362.711322 
L 358.298088 366.772413 
L 362.088858 370.2378 
L 365.879627 373.172366 
L 369.670397 375.638684 
L 373.461167 377.695976 
L 377.251937 379.399346 
L 381.042707 380.799296 
L 384.833476 381.941454 
L 388.624246 382.866516 
L 392.415016 383.610328 
L 396.205786 384.204102 
L 399.996556 384.674709 
L 403.787326 385.04504 
L 407.578095 385.334393 
L 411.368865 385.558878 
L 415.159635 385.73181 
L 418.950405 385.864094 
L 422.741175 385.964575 
L 426.531944 386.040368 
L 430.322714 386.097141 
L 434.113484 386.139371 
" style="fill:none;stroke:#36a2eb;stroke-linecap:square;"/>
   </g>
   <g id="line2d_3">
    <path clip-path="url(#pc23b27d78a)" d="M 113.594051 386.140204 
L 117.41321 386.098287 
L 121.232369 386.041936 
L 125.051527 385.966707 
L 128.870686 385.866972 
L 132.689845 385.735672 
L 136.509004 385.564026 
L 140.328162 385.34121 
L 144.147321 385.054007 
L 147.96648 384.686429 
L 151.785639 384.21932 
L 155.604797 383.62996 
L 159.423956 382.891676 
L 163.243115 381.973491 
L 167.062274 380.839822 
L 170.881432 379.45028 
L 174.700591 377.75957 
L 178.51975 375.717571 
L 182.338908 373.269586 
L 186.158067 370.356834 
L 189.977226 366.917206 
L 193.796385 362.886302 
L 197.615543 358.198792 
L 201.434702 352.790087 
L 205.253861 346.598331 
L 209.07302 339.566683 
L 212.892178 331.645854 
L 216.711337 322.796837 
L 220.530496 312.993738 
L 224.349655 302.226629 
L 228.168813 290.504284 
L 231.987972 277.856674 
L 235.807131 264.337089 
L 239.62629 250.023737 
L 243.445448 235.020685 
L 247.264607 219.458028 
L 251.083766 203.491188 
L 254.902925 187.299267 
L 258.722083 171.082437 
L 262.541242 155.05837 
L 266.360401 139.457781 
L 270.17956 124.519174 
L 273.998718 110.482967 
L 277.817877 97.585167 
L 281.637036 86.050839 
L 285.456194 76.08761 
L 289.275353 67.879469 
L 293.094512 61.581125 
L 296.913671 57.313158 
L 300.732829 55.158181 
L 304.551988 55.158181 
L 308.371147 57.313158 
L 312.190306 61.581125 
L 316.009464 67.879469 
L 319.828623 76.08761 
L 323.647782 86.050839 
L 327.466941 97.585167 
L 331.286099 110.482967 
L 335.105258 124.519174 
L 338.924417 139.457781 
L 342.743576 155.05837 
L 346.562734 171.082437 
L 350.381893 187.299267 
L 354.201052 203.491188 
L 358.020211 219.458028 
L 361.839369 235.020685 
L 365.658528 250.023737 
L 369.477687 264.337089 
L 373.296846 277.856674 
L 377.116004 290.504284 
L 380.935163 302.226629 
L 384.754322 312.993738 
L 388.57348 322.796837 
L 392.392639 331.645854 
L 396.211798 339.566683 
L 400.030957 346.598331 
L 403.850115 352.790087 
L 407.669274 358.198792 
L 411.488433 362.886302 
L 415.307592 366.917206 
L 419.12675 370.356834 
L 422.945909 373.269586 
L 426.765068 375.717571 
L 430.584227 377.75957 
L 434.403385 379.45028 
L 438.222544 380.839822 
L 442.041703 381.973491 
L 445.860862 382.891676 
L 449.68002 383.62996 
L 453.499179 384.21932 
L 457.318338 384.686429 
L 461.137497 385.054007 
L 464.956655 385.34121 
L 468.775814 385.564026 
L 472.594973 385.735672 
L 476.414132 385.866972 
L 480.23329 385.966707 
L 484.052449 386.041936 
L 487.871608 386.098287 
L 491.690766 386.140204 
" style="fill:none;stroke:#4bc0c0;stroke-linecap:square;"/>
   </g>
   <g id="patch_3">
    <path d="M 36 402.93 
L 538.2 402.93 
" style="fill:none;stroke:#000000;stroke-linecap:square;stroke-linejoin:miter;stroke-width:0.8;"/>
   </g>
   <g id="legend_1">
    <g id="patch_4">
     <path d="M 401.81375 109.626875 
L 528.4 109.626875 
Q 531.2 109.626875 531.2 106.826875 
L 531.2 45.8 
Q 531.2 43 528.4 43 
L 401.81375 43 
Q 399.01375 43 399.01375 45.8 
L 399.01375 106.826875 
Q 399.01375 109.626875 401.81375 109.626875 
z
" style="fill:#ffffff;opacity:0.8;stroke:#cccccc;stroke-linejoin:miter;"/>
    </g>
    <g id="patch_5">
     <path d="M 404.61375 59.237813 
L 432.61375 59.237813 
L 432.61375 49.437813 
L 404.61375 49.437813 
z
" style="fill:#ff6384;opacity:0.5;stroke:#ff6384;stroke-linejoin:miter;"/>
    </g>
    <g id="text_1">
     <!-- base -->
     <defs>
      <path d="M 48.6875 27.296875 
Q 48.6875 37.203125 44.609375 42.84375 
Q 40.53125 48.484375 33.40625 48.484375 
Q 26.265625 48.484375 22.1875 42.84375 
Q 18.109375 37.203125 18.109375 27.296875 
Q 18.109375 17.390625 22.1875 11.75 
Q 26.265625 6.109375 33.40625 6.109375 
Q 40.53125 6.109375 44.609375 11.75 
Q 48.6875 17.390625 48.6875 27.296875 
z
M 18.109375 46.390625 
Q 20.953125 51.265625 25.265625 53.625 
Q 29.59375 56 35.59375 56 
Q 45.5625 56 51.78125 48.09375 
Q 58.015625 40.1875 58.015625 27.296875 
Q 58.015625 14.40625 51.78125 6.484375 
Q 45.5625 -1.421875 35.59375 -1.421875 
Q 29.59375 -1.421875 25.265625 0.953125 
Q 20.953125 3.328125 18.109375 8.203125 
L 18.109375 0 
L 9.078125 0 
L 9.078125 75.984375 
L 18.109375 75.984375 
z
" id="DejaVuSans-98"/>
      <path d="M 34.28125 27.484375 
Q 23.390625 27.484375 19.1875 25 
Q 14.984375 22.515625 14.984375 16.5 
Q 14.984375 11.71875 18.140625 8.90625 
Q 21.296875 6.109375 26.703125 6.109375 
Q 34.1875 6.109375 38.703125 11.40625 
Q 43.21875 16.703125 43.21875 25.484375 
L 43.21875 27.484375 
z
M 52.203125 31.203125 
L 52.203125 0 
L 43.21875 0 
L 43.21875 8.296875 
Q 40.140625 3.328125 35.546875 0.953125 
Q 30.953125 -1.421875 24.3125 -1.421875 
Q 15.921875 -1.421875 10.953125 3.296875 
Q 6 8.015625 6 15.921875 
Q 6 25.140625 12.171875 29.828125 
Q 18.359375 34.515625 30.609375 34.515625 
L 43.21875 34.515625 
L 43.21875 35.40625 
Q 43.21875 41.609375 39.140625 45 
Q 35.0625 48.390625 27.6875 48.390625 
Q 23 48.390625 18.546875 47.265625 
Q 14.109375 46.140625 10.015625 43.890625 
L 10.015625 52.203125 
Q 14.9375 54.109375 19.578125 55.046875 
Q 24.21875 56 28.609375 56 
Q 40.484375 56 46.34375 49.84375 
Q 52.203125 43.703125 52.203125 31.203125 
z
" id="DejaVuSans-97"/>
      <path d="M 44.28125 53.078125 
L 44.28125 44.578125 
Q 40.484375 46.53125 36.375 47.5 
Q 32.28125 48.484375 27.875 48.484375 
Q 21.1875 48.484375 17.84375 46.4375 
Q 14.5 44.390625 14.5 40.28125 
Q 14.5 37.15625 16.890625 35.375 
Q 19.28125 33.59375 26.515625 31.984375 
L 29.59375 31.296875 
Q 39.15625 29.25 43.1875 25.515625 
Q 47.21875 21.78125 47.21875 15.09375 
Q 47.21875 7.46875 41.1875 3.015625 
Q 35.15625 -1.421875 24.609375 -1.421875 
Q 20.21875 -1.421875 15.453125 -0.5625 
Q 10.6875 0.296875 5.421875 2 
L 5.421875 11.28125 
Q 10.40625 8.6875 15.234375 7.390625 
Q 20.0625 6.109375 24.8125 6.109375 
Q 31.15625 6.109375 34.5625 8.28125 
Q 37.984375 10.453125 37.984375 14.40625 
Q 37.984375 18.0625 35.515625 20.015625 
Q 33.0625 21.96875 24.703125 23.78125 
L 21.578125 24.515625 
Q 13.234375 26.265625 9.515625 29.90625 
Q 5.8125 33.546875 5.8125 39.890625 
Q 5.8125 47.609375 11.28125 51.796875 
Q 16.75 56 26.8125 56 
Q 31.78125 56 36.171875 55.265625 
Q 40.578125 54.546875 44.28125 53.078125 
z
" id="DejaVuSans-115"/>
      <path d="M 56.203125 29.59375 
L 56.203125 25.203125 
L 14.890625 25.203125 
Q 15.484375 15.921875 20.484375 11.0625 
Q 25.484375 6.203125 34.421875 6.203125 
Q 39.59375 6.203125 44.453125 7.46875 
Q 49.3125 8.734375 54.109375 11.28125 
L 54.109375 2.78125 
Q 49.265625 0.734375 44.1875 -0.34375 
Q 39.109375 -1.421875 33.890625 -1.421875 
Q 20.796875 -1.421875 13.15625 6.1875 
Q 5.515625 13.8125 5.515625 26.8125 
Q 5.515625 40.234375 12.765625 48.109375 
Q 20.015625 56 32.328125 56 
Q 43.359375 56 49.78125 48.890625 
Q 56.203125 41.796875 56.203125 29.59375 
z
M 47.21875 32.234375 
Q 47.125 39.59375 43.09375 43.984375 
Q 39.0625 48.390625 32.421875 48.390625 
Q 24.90625 48.390625 20.390625 44.140625 
Q 15.875 39.890625 15.1875 32.171875 
z
" id="DejaVuSans-101"/>
     </defs>
     <g transform="translate(443.81375 59.237813)scale(0.14 -0.14)">
      <use xlink:href="#DejaVuSans-98"/>
      <use x="63.476562" xlink:href="#DejaVuSans-97"/>
      <use x="124.755859" xlink:href="#DejaVuSans-115"/>
      <use x="176.855469" xlink:href="#DejaVuSans-101"/>
     </g>
    </g>
    <g id="patch_6">
     <path d="M 404.61375 79.787188 
L 432.61375 79.787188 
L 432.61375 69.987188 
L 404.61375 69.987188 
z
" style="fill:#36a2eb;opacity:0.5;stroke:#36a2eb;stroke-linejoin:miter;"/>
    </g>
    <g id="text_2">
     <!-- osago_mid -->
     <defs>
      <path d="M 30.609375 48.390625 
Q 23.390625 48.390625 19.1875 42.75 
Q 14.984375 37.109375 14.984375 27.296875 
Q 14.984375 17.484375 19.15625 11.84375 
Q 23.34375 6.203125 30.609375 6.203125 
Q 37.796875 6.203125 41.984375 11.859375 
Q 46.1875 17.53125 46.1875 27.296875 
Q 46.1875 37.015625 41.984375 42.703125 
Q 37.796875 48.390625 30.609375 48.390625 
z
M 30.609375 56 
Q 42.328125 56 49.015625 48.375 
Q 55.71875 40.765625 55.71875 27.296875 
Q 55.71875 13.875 49.015625 6.21875 
Q 42.328125 -1.421875 30.609375 -1.421875 
Q 18.84375 -1.421875 12.171875 6.21875 
Q 5.515625 13.875 5.515625 27.296875 
Q 5.515625 40.765625 12.171875 48.375 
Q 18.84375 56 30.609375 56 
z
" id="DejaVuSans-111"/>
      <path d="M 45.40625 27.984375 
Q 45.40625 37.75 41.375 43.109375 
Q 37.359375 48.484375 30.078125 48.484375 
Q 22.859375 48.484375 18.828125 43.109375 
Q 14.796875 37.75 14.796875 27.984375 
Q 14.796875 18.265625 18.828125 12.890625 
Q 22.859375 7.515625 30.078125 7.515625 
Q 37.359375 7.515625 41.375 12.890625 
Q 45.40625 18.265625 45.40625 27.984375 
z
M 54.390625 6.78125 
Q 54.390625 -7.171875 48.1875 -13.984375 
Q 42 -20.796875 29.203125 -20.796875 
Q 24.46875 -20.796875 20.265625 -20.09375 
Q 16.0625 -19.390625 12.109375 -17.921875 
L 12.109375 -9.1875 
Q 16.0625 -11.328125 19.921875 -12.34375 
Q 23.78125 -13.375 27.78125 -13.375 
Q 36.625 -13.375 41.015625 -8.765625 
Q 45.40625 -4.15625 45.40625 5.171875 
L 45.40625 9.625 
Q 42.625 4.78125 38.28125 2.390625 
Q 33.9375 0 27.875 0 
Q 17.828125 0 11.671875 7.65625 
Q 5.515625 15.328125 5.515625 27.984375 
Q 5.515625 40.671875 11.671875 48.328125 
Q 17.828125 56 27.875 56 
Q 33.9375 56 38.28125 53.609375 
Q 42.625 51.21875 45.40625 46.390625 
L 45.40625 54.6875 
L 54.390625 54.6875 
z
" id="DejaVuSans-103"/>
      <path d="M 50.984375 -16.609375 
L 50.984375 -23.578125 
L -0.984375 -23.578125 
L -0.984375 -16.609375 
z
" id="DejaVuSans-95"/>
      <path d="M 52 44.1875 
Q 55.375 50.25 60.0625 53.125 
Q 64.75 56 71.09375 56 
Q 79.640625 56 84.28125 50.015625 
Q 88.921875 44.046875 88.921875 33.015625 
L 88.921875 0 
L 79.890625 0 
L 79.890625 32.71875 
Q 79.890625 40.578125 77.09375 44.375 
Q 74.3125 48.1875 68.609375 48.1875 
Q 61.625 48.1875 57.5625 43.546875 
Q 53.515625 38.921875 53.515625 30.90625 
L 53.515625 0 
L 44.484375 0 
L 44.484375 32.71875 
Q 44.484375 40.625 41.703125 44.40625 
Q 38.921875 48.1875 33.109375 48.1875 
Q 26.21875 48.1875 22.15625 43.53125 
Q 18.109375 38.875 18.109375 30.90625 
L 18.109375 0 
L 9.078125 0 
L 9.078125 54.6875 
L 18.109375 54.6875 
L 18.109375 46.1875 
Q 21.1875 51.21875 25.484375 53.609375 
Q 29.78125 56 35.6875 56 
Q 41.65625 56 45.828125 52.96875 
Q 50 49.953125 52 44.1875 
z
" id="DejaVuSans-109"/>
      <path d="M 9.421875 54.6875 
L 18.40625 54.6875 
L 18.40625 0 
L 9.421875 0 
z
M 9.421875 75.984375 
L 18.40625 75.984375 
L 18.40625 64.59375 
L 9.421875 64.59375 
z
" id="DejaVuSans-105"/>
      <path d="M 45.40625 46.390625 
L 45.40625 75.984375 
L 54.390625 75.984375 
L 54.390625 0 
L 45.40625 0 
L 45.40625 8.203125 
Q 42.578125 3.328125 38.25 0.953125 
Q 33.9375 -1.421875 27.875 -1.421875 
Q 17.96875 -1.421875 11.734375 6.484375 
Q 5.515625 14.40625 5.515625 27.296875 
Q 5.515625 40.1875 11.734375 48.09375 
Q 17.96875 56 27.875 56 
Q 33.9375 56 38.25 53.625 
Q 42.578125 51.265625 45.40625 46.390625 
z
M 14.796875 27.296875 
Q 14.796875 17.390625 18.875 11.75 
Q 22.953125 6.109375 30.078125 6.109375 
Q 37.203125 6.109375 41.296875 11.75 
Q 45.40625 17.390625 45.40625 27.296875 
Q 45.40625 37.203125 41.296875 42.84375 
Q 37.203125 48.484375 30.078125 48.484375 
Q 22.953125 48.484375 18.875 42.84375 
Q 14.796875 37.203125 14.796875 27.296875 
z
" id="DejaVuSans-100"/>
     </defs>
     <g transform="translate(443.81375 79.787188)scale(0.14 -0.14)">
      <use xlink:href="#DejaVuSans-111"/>
      <use x="61.181641" xlink:href="#DejaVuSans-115"/>
      <use x="113.28125" xlink:href="#DejaVuSans-97"/>
      <use x="174.560547" xlink:href="#DejaVuSans-103"/>
      <use x="238.037109" xlink:href="#DejaVuSans-111"/>
      <use x="299.21875" xlink:href="#DejaVuSans-95"/>
      <use x="349.21875" xlink:href="#DejaVuSans-109"/>
      <use x="446.630859" xlink:href="#DejaVuSans-105"/>
      <use x="474.414062" xlink:href="#DejaVuSans-100"/>
     </g>
    </g>
    <g id="patch_7">
     <path d="M 404.61375 100.725937 
L 432.61375 100.725937 
L 432.61375 90.925937 
L 404.61375 90.925937 
z
" style="fill:#4bc0c0;opacity:0.5;stroke:#4bc0c0;stroke-linejoin:miter;"/>
    </g>
    <g id="text_3">
     <!-- osago_right -->
     <defs>
      <path d="M 41.109375 46.296875 
Q 39.59375 47.171875 37.8125 47.578125 
Q 36.03125 48 33.890625 48 
Q 26.265625 48 22.1875 43.046875 
Q 18.109375 38.09375 18.109375 28.8125 
L 18.109375 0 
L 9.078125 0 
L 9.078125 54.6875 
L 18.109375 54.6875 
L 18.109375 46.1875 
Q 20.953125 51.171875 25.484375 53.578125 
Q 30.03125 56 36.53125 56 
Q 37.453125 56 38.578125 55.875 
Q 39.703125 55.765625 41.0625 55.515625 
z
" id="DejaVuSans-114"/>
      <path d="M 54.890625 33.015625 
L 54.890625 0 
L 45.90625 0 
L 45.90625 32.71875 
Q 45.90625 40.484375 42.875 44.328125 
Q 39.84375 48.1875 33.796875 48.1875 
Q 26.515625 48.1875 22.3125 43.546875 
Q 18.109375 38.921875 18.109375 30.90625 
L 18.109375 0 
L 9.078125 0 
L 9.078125 75.984375 
L 18.109375 75.984375 
L 18.109375 46.1875 
Q 21.34375 51.125 25.703125 53.5625 
Q 30.078125 56 35.796875 56 
Q 45.21875 56 50.046875 50.171875 
Q 54.890625 44.34375 54.890625 33.015625 
z
" id="DejaVuSans-104"/>
      <path d="M 18.3125 70.21875 
L 18.3125 54.6875 
L 36.8125 54.6875 
L 36.8125 47.703125 
L 18.3125 47.703125 
L 18.3125 18.015625 
Q 18.3125 11.328125 20.140625 9.421875 
Q 21.96875 7.515625 27.59375 7.515625 
L 36.8125 7.515625 
L 36.8125 0 
L 27.59375 0 
Q 17.1875 0 13.234375 3.875 
Q 9.28125 7.765625 9.28125 18.015625 
L 9.28125 47.703125 
L 2.6875 47.703125 
L 2.6875 54.6875 
L 9.28125 54.6875 
L 9.28125 70.21875 
z
" id="DejaVuSans-116"/>
     </defs>
     <g transform="translate(443.81375 100.725937)scale(0.14 -0.14)">
      <use xlink:href="#DejaVuSans-111"/>
      <use x="61.181641" xlink:href="#DejaVuSans-115"/>
      <use x="113.28125" xlink:href="#DejaVuSans-97"/>
      <use x="174.560547" xlink:href="#DejaVuSans-103"/>
      <use x="238.037109" xlink:href="#DejaVuSans-111"/>
      <use x="299.21875" xlink:href="#DejaVuSans-95"/>
      <use x="349.21875" xlink:href="#DejaVuSans-114"/>
      <use x="390.332031" xlink:href="#DejaVuSans-105"/>
      <use x="418.115234" xlink:href="#DejaVuSans-103"/>
      <use x="481.591797" xlink:href="#DejaVuSans-104"/>
      <use x="544.970703" xlink:href="#DejaVuSans-116"/>
     </g>
    </g>
   </g>
  </g>
  <g id="axes_2">
   <g id="patch_8">
    <path d="M 36 525.24 
L 538.2 525.24 
L 538.2 402.93 
L 36 402.93 
z
" style="fill:none;"/>
   </g>
   <g id="patch_9">
    <path clip-path="url(#pd781d2da4a)" d="M 233.852408 519.680455 
L 419.013423 519.680455 
L 419.013423 497.442273 
L 233.852408 497.442273 
z
" style="fill:#ff6384;opacity:0.5;"/>
   </g>
   <g id="patch_10">
    <path clip-path="url(#pd781d2da4a)" d="M 154.525257 475.204091 
L 338.4155 475.204091 
L 338.4155 452.965909 
L 154.525257 452.965909 
z
" style="fill:#36a2eb;opacity:0.5;"/>
   </g>
   <g id="patch_11">
    <path clip-path="url(#pd781d2da4a)" d="M 210.008714 430.727727 
L 395.276104 430.727727 
L 395.276104 408.489545 
L 210.008714 408.489545 
z
" style="fill:#4bc0c0;opacity:0.5;"/>
   </g>
   <g id="matplotlib.axis_1">
    <g id="xtick_1">
     <g id="line2d_4">
      <defs>
       <path d="M 0 0 
L 0 3.5 
" id="mf74d7e5937" style="stroke:#000000;stroke-width:0.8;"/>
      </defs>
      <g>
       <use style="stroke:#000000;stroke-width:0.8;" x="77.29344" xlink:href="#mf74d7e5937" y="525.24"/>
      </g>
     </g>
     <g id="text_4">
      <!-- 22 -->
      <defs>
       <path d="M 19.1875 8.296875 
L 53.609375 8.296875 
L 53.609375 0 
L 7.328125 0 
L 7.328125 8.296875 
Q 12.9375 14.109375 22.625 23.890625 
Q 32.328125 33.6875 34.8125 36.53125 
Q 39.546875 41.84375 41.421875 45.53125 
Q 43.3125 49.21875 43.3125 52.78125 
Q 43.3125 58.59375 39.234375 62.25 
Q 35.15625 65.921875 28.609375 65.921875 
Q 23.96875 65.921875 18.8125 64.3125 
Q 13.671875 62.703125 7.8125 59.421875 
L 7.8125 69.390625 
Q 13.765625 71.78125 18.9375 73 
Q 24.125 74.21875 28.421875 74.21875 
Q 39.75 74.21875 46.484375 68.546875 
Q 53.21875 62.890625 53.21875 53.421875 
Q 53.21875 48.921875 51.53125 44.890625 
Q 49.859375 40.875 45.40625 35.40625 
Q 44.1875 33.984375 37.640625 27.21875 
Q 31.109375 20.453125 19.1875 8.296875 
z
" id="DejaVuSans-50"/>
      </defs>
      <g transform="translate(68.38594 542.877813)scale(0.14 -0.14)">
       <use xlink:href="#DejaVuSans-50"/>
       <use x="63.623047" xlink:href="#DejaVuSans-50"/>
      </g>
     </g>
    </g>
    <g id="xtick_2">
     <g id="line2d_5">
      <g>
       <use style="stroke:#000000;stroke-width:0.8;" x="143.378181" xlink:href="#mf74d7e5937" y="525.24"/>
      </g>
     </g>
     <g id="text_5">
      <!-- 23 -->
      <defs>
       <path d="M 40.578125 39.3125 
Q 47.65625 37.796875 51.625 33 
Q 55.609375 28.21875 55.609375 21.1875 
Q 55.609375 10.40625 48.1875 4.484375 
Q 40.765625 -1.421875 27.09375 -1.421875 
Q 22.515625 -1.421875 17.65625 -0.515625 
Q 12.796875 0.390625 7.625 2.203125 
L 7.625 11.71875 
Q 11.71875 9.328125 16.59375 8.109375 
Q 21.484375 6.890625 26.8125 6.890625 
Q 36.078125 6.890625 40.9375 10.546875 
Q 45.796875 14.203125 45.796875 21.1875 
Q 45.796875 27.640625 41.28125 31.265625 
Q 36.765625 34.90625 28.71875 34.90625 
L 20.21875 34.90625 
L 20.21875 43.015625 
L 29.109375 43.015625 
Q 36.375 43.015625 40.234375 45.921875 
Q 44.09375 48.828125 44.09375 54.296875 
Q 44.09375 59.90625 40.109375 62.90625 
Q 36.140625 65.921875 28.71875 65.921875 
Q 24.65625 65.921875 20.015625 65.03125 
Q 15.375 64.15625 9.8125 62.3125 
L 9.8125 71.09375 
Q 15.4375 72.65625 20.34375 73.4375 
Q 25.25 74.21875 29.59375 74.21875 
Q 40.828125 74.21875 47.359375 69.109375 
Q 53.90625 64.015625 53.90625 55.328125 
Q 53.90625 49.265625 50.4375 45.09375 
Q 46.96875 40.921875 40.578125 39.3125 
z
" id="DejaVuSans-51"/>
      </defs>
      <g transform="translate(134.470681 542.877813)scale(0.14 -0.14)">
       <use xlink:href="#DejaVuSans-50"/>
       <use x="63.623047" xlink:href="#DejaVuSans-51"/>
      </g>
     </g>
    </g>
    <g id="xtick_3">
     <g id="line2d_6">
      <g>
       <use style="stroke:#000000;stroke-width:0.8;" x="209.462923" xlink:href="#mf74d7e5937" y="525.24"/>
      </g>
     </g>
     <g id="text_6">
      <!-- 24 -->
      <defs>
       <path d="M 37.796875 64.3125 
L 12.890625 25.390625 
L 37.796875 25.390625 
z
M 35.203125 72.90625 
L 47.609375 72.90625 
L 47.609375 25.390625 
L 58.015625 25.390625 
L 58.015625 17.1875 
L 47.609375 17.1875 
L 47.609375 0 
L 37.796875 0 
L 37.796875 17.1875 
L 4.890625 17.1875 
L 4.890625 26.703125 
z
" id="DejaVuSans-52"/>
      </defs>
      <g transform="translate(200.555423 542.877813)scale(0.14 -0.14)">
       <use xlink:href="#DejaVuSans-50"/>
       <use x="63.623047" xlink:href="#DejaVuSans-52"/>
      </g>
     </g>
    </g>
    <g id="xtick_4">
     <g id="line2d_7">
      <g>
       <use style="stroke:#000000;stroke-width:0.8;" x="275.547665" xlink:href="#mf74d7e5937" y="525.24"/>
      </g>
     </g>
     <g id="text_7">
      <!-- 25 -->
      <defs>
       <path d="M 10.796875 72.90625 
L 49.515625 72.90625 
L 49.515625 64.59375 
L 19.828125 64.59375 
L 19.828125 46.734375 
Q 21.96875 47.46875 24.109375 47.828125 
Q 26.265625 48.1875 28.421875 48.1875 
Q 40.625 48.1875 47.75 41.5 
Q 54.890625 34.8125 54.890625 23.390625 
Q 54.890625 11.625 47.5625 5.09375 
Q 40.234375 -1.421875 26.90625 -1.421875 
Q 22.3125 -1.421875 17.546875 -0.640625 
Q 12.796875 0.140625 7.71875 1.703125 
L 7.71875 11.625 
Q 12.109375 9.234375 16.796875 8.0625 
Q 21.484375 6.890625 26.703125 6.890625 
Q 35.15625 6.890625 40.078125 11.328125 
Q 45.015625 15.765625 45.015625 23.390625 
Q 45.015625 31 40.078125 35.4375 
Q 35.15625 39.890625 26.703125 39.890625 
Q 22.75 39.890625 18.8125 39.015625 
Q 14.890625 38.140625 10.796875 36.28125 
z
" id="DejaVuSans-53"/>
      </defs>
      <g transform="translate(266.640165 542.877813)scale(0.14 -0.14)">
       <use xlink:href="#DejaVuSans-50"/>
       <use x="63.623047" xlink:href="#DejaVuSans-53"/>
      </g>
     </g>
    </g>
    <g id="xtick_5">
     <g id="line2d_8">
      <g>
       <use style="stroke:#000000;stroke-width:0.8;" x="341.632406" xlink:href="#mf74d7e5937" y="525.24"/>
      </g>
     </g>
     <g id="text_8">
      <!-- 26 -->
      <defs>
       <path d="M 33.015625 40.375 
Q 26.375 40.375 22.484375 35.828125 
Q 18.609375 31.296875 18.609375 23.390625 
Q 18.609375 15.53125 22.484375 10.953125 
Q 26.375 6.390625 33.015625 6.390625 
Q 39.65625 6.390625 43.53125 10.953125 
Q 47.40625 15.53125 47.40625 23.390625 
Q 47.40625 31.296875 43.53125 35.828125 
Q 39.65625 40.375 33.015625 40.375 
z
M 52.59375 71.296875 
L 52.59375 62.3125 
Q 48.875 64.0625 45.09375 64.984375 
Q 41.3125 65.921875 37.59375 65.921875 
Q 27.828125 65.921875 22.671875 59.328125 
Q 17.53125 52.734375 16.796875 39.40625 
Q 19.671875 43.65625 24.015625 45.921875 
Q 28.375 48.1875 33.59375 48.1875 
Q 44.578125 48.1875 50.953125 41.515625 
Q 57.328125 34.859375 57.328125 23.390625 
Q 57.328125 12.15625 50.6875 5.359375 
Q 44.046875 -1.421875 33.015625 -1.421875 
Q 20.359375 -1.421875 13.671875 8.265625 
Q 6.984375 17.96875 6.984375 36.375 
Q 6.984375 53.65625 15.1875 63.9375 
Q 23.390625 74.21875 37.203125 74.21875 
Q 40.921875 74.21875 44.703125 73.484375 
Q 48.484375 72.75 52.59375 71.296875 
z
" id="DejaVuSans-54"/>
      </defs>
      <g transform="translate(332.724906 542.877813)scale(0.14 -0.14)">
       <use xlink:href="#DejaVuSans-50"/>
       <use x="63.623047" xlink:href="#DejaVuSans-54"/>
      </g>
     </g>
    </g>
    <g id="xtick_6">
     <g id="line2d_9">
      <g>
       <use style="stroke:#000000;stroke-width:0.8;" x="407.717148" xlink:href="#mf74d7e5937" y="525.24"/>
      </g>
     </g>
     <g id="text_9">
      <!-- 27 -->
      <defs>
       <path d="M 8.203125 72.90625 
L 55.078125 72.90625 
L 55.078125 68.703125 
L 28.609375 0 
L 18.3125 0 
L 43.21875 64.59375 
L 8.203125 64.59375 
z
" id="DejaVuSans-55"/>
      </defs>
      <g transform="translate(398.809648 542.877813)scale(0.14 -0.14)">
       <use xlink:href="#DejaVuSans-50"/>
       <use x="63.623047" xlink:href="#DejaVuSans-55"/>
      </g>
     </g>
    </g>
    <g id="xtick_7">
     <g id="line2d_10">
      <g>
       <use style="stroke:#000000;stroke-width:0.8;" x="473.80189" xlink:href="#mf74d7e5937" y="525.24"/>
      </g>
     </g>
     <g id="text_10">
      <!-- 28 -->
      <defs>
       <path d="M 31.78125 34.625 
Q 24.75 34.625 20.71875 30.859375 
Q 16.703125 27.09375 16.703125 20.515625 
Q 16.703125 13.921875 20.71875 10.15625 
Q 24.75 6.390625 31.78125 6.390625 
Q 38.8125 6.390625 42.859375 10.171875 
Q 46.921875 13.96875 46.921875 20.515625 
Q 46.921875 27.09375 42.890625 30.859375 
Q 38.875 34.625 31.78125 34.625 
z
M 21.921875 38.8125 
Q 15.578125 40.375 12.03125 44.71875 
Q 8.5 49.078125 8.5 55.328125 
Q 8.5 64.0625 14.71875 69.140625 
Q 20.953125 74.21875 31.78125 74.21875 
Q 42.671875 74.21875 48.875 69.140625 
Q 55.078125 64.0625 55.078125 55.328125 
Q 55.078125 49.078125 51.53125 44.71875 
Q 48 40.375 41.703125 38.8125 
Q 48.828125 37.15625 52.796875 32.3125 
Q 56.78125 27.484375 56.78125 20.515625 
Q 56.78125 9.90625 50.3125 4.234375 
Q 43.84375 -1.421875 31.78125 -1.421875 
Q 19.734375 -1.421875 13.25 4.234375 
Q 6.78125 9.90625 6.78125 20.515625 
Q 6.78125 27.484375 10.78125 32.3125 
Q 14.796875 37.15625 21.921875 38.8125 
z
M 18.3125 54.390625 
Q 18.3125 48.734375 21.84375 45.5625 
Q 25.390625 42.390625 31.78125 42.390625 
Q 38.140625 42.390625 41.71875 45.5625 
Q 45.3125 48.734375 45.3125 54.390625 
Q 45.3125 60.0625 41.71875 63.234375 
Q 38.140625 66.40625 31.78125 66.40625 
Q 25.390625 66.40625 21.84375 63.234375 
Q 18.3125 60.0625 18.3125 54.390625 
z
" id="DejaVuSans-56"/>
      </defs>
      <g transform="translate(464.89439 542.877813)scale(0.14 -0.14)">
       <use xlink:href="#DejaVuSans-50"/>
       <use x="63.623047" xlink:href="#DejaVuSans-56"/>
      </g>
     </g>
    </g>
   </g>
   <g id="line2d_11">
    <path clip-path="url(#pd781d2da4a)" d="M 326.432916 525.24 
L 326.432916 402.93 
" style="fill:none;stroke:#ff6384;stroke-dasharray:5.55,2.4;stroke-dashoffset:0;stroke-opacity:0.8;stroke-width:1.5;"/>
   </g>
   <g id="line2d_12">
    <path clip-path="url(#pd781d2da4a)" d="M 246.470378 525.24 
L 246.470378 402.93 
" style="fill:none;stroke:#36a2eb;stroke-dasharray:5.55,2.4;stroke-dashoffset:0;stroke-opacity:0.8;stroke-width:1.5;"/>
   </g>
   <g id="line2d_13">
    <path clip-path="url(#pd781d2da4a)" d="M 302.642409 525.24 
L 302.642409 402.93 
" style="fill:none;stroke:#4bc0c0;stroke-dasharray:5.55,2.4;stroke-dashoffset:0;stroke-opacity:0.8;stroke-width:1.5;"/>
   </g>
   <g id="patch_12">
    <path d="M 36 525.24 
L 538.2 525.24 
" style="fill:none;stroke:#000000;stroke-linecap:square;stroke-linejoin:miter;stroke-width:0.8;"/>
   </g>
  </g>
 </g>
 <defs>
  <clipPath id="pc23b27d78a">
   <rect height="366.93" width="502.2" x="36" y="36"/>
  </clipPath>
  <clipPath id="pd781d2da4a">
   <rect height="122.31" width="502.2" x="36" y="402.93"/>
  </clipPath>
 </defs>
</svg>
