<?xml version="1.0" encoding="utf-8" standalone="no"?>
<!DOCTYPE svg PUBLIC "-//W3C//DTD SVG 1.1//EN"
  "http://www.w3.org/Graphics/SVG/1.1/DTD/svg11.dtd">
<!-- Created with matplotlib (https://matplotlib.org/) -->
<svg height="581.789375pt" version="1.1" viewBox="0 0 574.2 581.789375" width="574.2pt" xmlns="http://www.w3.org/2000/svg" xmlns:xlink="http://www.w3.org/1999/xlink">
 <defs>
  <style type="text/css">
*{stroke-linecap:butt;stroke-linejoin:round;}
  </style>
 </defs>
 <g id="figure_1">
  <g id="patch_1">
   <path d="M 0 581.789375 
L 574.2 581.789375 
L 574.2 0 
L 0 0 
z
" style="fill:none;"/>
  </g>
  <g id="axes_1">
   <g id="patch_2">
    <path d="M 36 402.93 
L 538.2 402.93 
L 538.2 36 
L 36 36 
z
" style="fill:none;"/>
   </g>
   <g id="PolyCollection_1">
    <defs>
     <path d="M 168.256252 -195.538011 
L 168.256252 -195.622551 
L 171.509505 -195.65443 
L 174.762758 -195.697286 
L 178.016011 -195.754499 
L 181.269263 -195.83035 
L 184.522516 -195.930206 
L 187.775769 -196.060748 
L 191.029022 -196.230204 
L 194.282274 -196.448628 
L 197.535527 -196.72818 
L 200.78878 -197.083427 
L 204.042032 -197.531648 
L 207.295285 -198.09313 
L 210.548538 -198.791431 
L 213.801791 -199.653611 
L 217.055043 -200.71039 
L 220.308296 -201.996213 
L 223.561549 -203.5492 
L 226.814802 -205.410949 
L 230.068054 -207.626163 
L 233.321307 -210.242078 
L 236.57456 -213.307672 
L 239.827813 -216.87263 
L 243.081065 -220.986073 
L 246.334318 -225.695044 
L 249.587571 -231.042773 
L 252.840823 -237.066743 
L 256.094076 -243.796622 
L 259.347329 -251.252101 
L 262.600582 -259.440732 
L 265.853834 -268.355843 
L 269.107087 -277.974638 
L 272.36034 -288.256589 
L 275.613593 -299.142219 
L 278.866845 -310.552381 
L 282.120098 -322.388135 
L 285.373351 -334.53128 
L 288.626604 -346.845604 
L 291.879856 -359.178873 
L 295.133109 -371.365539 
L 298.386362 -383.230142 
L 301.639614 -394.591292 
L 304.892867 -405.266147 
L 308.14612 -415.075217 
L 311.399373 -423.847336 
L 314.652625 -431.424599 
L 317.905878 -437.667076 
L 321.159131 -442.45711 
L 324.412384 -445.702996 
L 327.665636 -447.341905 
L 330.918889 -447.341905 
L 334.172142 -445.702996 
L 337.425395 -442.45711 
L 340.678647 -437.667076 
L 343.9319 -431.424599 
L 347.185153 -423.847336 
L 350.438405 -415.075217 
L 353.691658 -405.266147 
L 356.944911 -394.591292 
L 360.198164 -383.230142 
L 363.451416 -371.365539 
L 366.704669 -359.178873 
L 369.957922 -346.845604 
L 373.211175 -334.53128 
L 376.464427 -322.388135 
L 379.71768 -310.552381 
L 382.970933 -299.142219 
L 386.224186 -288.256589 
L 389.477438 -277.974638 
L 392.730691 -268.355843 
L 395.983944 -259.440732 
L 399.237196 -251.252101 
L 402.490449 -243.796622 
L 405.743702 -237.066743 
L 408.996955 -231.042773 
L 412.250207 -225.695044 
L 415.50346 -220.986073 
L 418.756713 -216.87263 
L 422.009966 -213.307672 
L 425.263218 -210.242078 
L 428.516471 -207.626163 
L 431.769724 -205.410949 
L 435.022977 -203.5492 
L 438.276229 -201.996213 
L 441.529482 -200.71039 
L 444.782735 -199.653611 
L 448.035987 -198.791431 
L 451.28924 -198.09313 
L 454.542493 -197.531648 
L 457.795746 -197.083427 
L 461.048998 -196.72818 
L 464.302251 -196.448628 
L 467.555504 -196.230204 
L 470.808757 -196.060748 
L 474.062009 -195.930206 
L 477.315262 -195.83035 
L 480.568515 -195.754499 
L 483.821768 -195.697286 
L 487.07502 -195.65443 
L 490.328273 -195.622551 
L 490.328273 -195.538011 
L 490.328273 -195.538011 
L 487.07502 -195.538011 
L 483.821768 -195.538011 
L 480.568515 -195.538011 
L 477.315262 -195.538011 
L 474.062009 -195.538011 
L 470.808757 -195.538011 
L 467.555504 -195.538011 
L 464.302251 -195.538011 
L 461.048998 -195.538011 
L 457.795746 -195.538011 
L 454.542493 -195.538011 
L 451.28924 -195.538011 
L 448.035987 -195.538011 
L 444.782735 -195.538011 
L 441.529482 -195.538011 
L 438.276229 -195.538011 
L 435.022977 -195.538011 
L 431.769724 -195.538011 
L 428.516471 -195.538011 
L 425.263218 -195.538011 
L 422.009966 -195.538011 
L 418.756713 -195.538011 
L 415.50346 -195.538011 
L 412.250207 -195.538011 
L 408.996955 -195.538011 
L 405.743702 -195.538011 
L 402.490449 -195.538011 
L 399.237196 -195.538011 
L 395.983944 -195.538011 
L 392.730691 -195.538011 
L 389.477438 -195.538011 
L 386.224186 -195.538011 
L 382.970933 -195.538011 
L 379.71768 -195.538011 
L 376.464427 -195.538011 
L 373.211175 -195.538011 
L 369.957922 -195.538011 
L 366.704669 -195.538011 
L 363.451416 -195.538011 
L 360.198164 -195.538011 
L 356.944911 -195.538011 
L 353.691658 -195.538011 
L 350.438405 -195.538011 
L 347.185153 -195.538011 
L 343.9319 -195.538011 
L 340.678647 -195.538011 
L 337.425395 -195.538011 
L 334.172142 -195.538011 
L 330.918889 -195.538011 
L 327.665636 -195.538011 
L 324.412384 -195.538011 
L 321.159131 -195.538011 
L 317.905878 -195.538011 
L 314.652625 -195.538011 
L 311.399373 -195.538011 
L 308.14612 -195.538011 
L 304.892867 -195.538011 
L 301.639614 -195.538011 
L 298.386362 -195.538011 
L 295.133109 -195.538011 
L 291.879856 -195.538011 
L 288.626604 -195.538011 
L 285.373351 -195.538011 
L 282.120098 -195.538011 
L 278.866845 -195.538011 
L 275.613593 -195.538011 
L 272.36034 -195.538011 
L 269.107087 -195.538011 
L 265.853834 -195.538011 
L 262.600582 -195.538011 
L 259.347329 -195.538011 
L 256.094076 -195.538011 
L 252.840823 -195.538011 
L 249.587571 -195.538011 
L 246.334318 -195.538011 
L 243.081065 -195.538011 
L 239.827813 -195.538011 
L 236.57456 -195.538011 
L 233.321307 -195.538011 
L 230.068054 -195.538011 
L 226.814802 -195.538011 
L 223.561549 -195.538011 
L 220.308296 -195.538011 
L 217.055043 -195.538011 
L 213.801791 -195.538011 
L 210.548538 -195.538011 
L 207.295285 -195.538011 
L 204.042032 -195.538011 
L 200.78878 -195.538011 
L 197.535527 -195.538011 
L 194.282274 -195.538011 
L 191.029022 -195.538011 
L 187.775769 -195.538011 
L 184.522516 -195.538011 
L 181.269263 -195.538011 
L 178.016011 -195.538011 
L 174.762758 -195.538011 
L 171.509505 -195.538011 
L 168.256252 -195.538011 
z
" id="m2f529316ea" style="stroke:#ff6384;stroke-opacity:0.5;"/>
    </defs>
    <g clip-path="url(#pbe5a96ac4e)">
     <use style="fill:#ff6384;fill-opacity:0.5;stroke:#ff6384;stroke-opacity:0.5;" x="0" xlink:href="#m2f529316ea" y="581.789375"/>
    </g>
   </g>
   <g id="PolyCollection_2">
    <defs>
     <path d="M 58.827273 -195.538011 
L 58.827273 -195.59765 
L 63.438843 -195.620139 
L 68.050413 -195.650372 
L 72.661983 -195.690734 
L 77.273554 -195.744243 
L 81.885124 -195.814687 
L 86.496694 -195.906778 
L 91.108264 -196.026322 
L 95.719835 -196.18041 
L 100.331405 -196.377621 
L 104.942975 -196.628232 
L 109.554545 -196.944432 
L 114.166116 -197.340531 
L 118.777686 -197.833151 
L 123.389256 -198.44138 
L 128.000826 -199.186889 
L 132.612397 -200.093979 
L 137.223967 -201.18954 
L 141.835537 -202.502919 
L 146.447107 -204.065651 
L 151.058678 -205.911061 
L 155.670248 -208.073697 
L 160.281818 -210.588613 
L 164.893388 -213.490459 
L 169.504959 -216.812424 
L 174.116529 -220.585003 
L 178.728099 -224.83464 
L 183.339669 -229.582263 
L 187.95124 -234.841764 
L 192.56281 -240.61847 
L 197.17438 -246.907674 
L 201.78595 -253.693296 
L 206.397521 -260.946744 
L 211.009091 -268.62606 
L 215.620661 -276.67541 
L 220.232231 -285.024995 
L 224.843802 -293.591431 
L 229.455372 -302.278626 
L 234.066942 -310.979184 
L 238.678512 -319.576323 
L 243.290083 -327.94626 
L 247.901653 -335.961033 
L 252.513223 -343.491657 
L 257.124793 -350.411509 
L 261.736364 -356.59984 
L 266.347934 -361.945253 
L 270.959504 -366.349037 
L 275.571074 -369.728188 
L 280.182645 -372.018012 
L 284.794215 -373.174188 
L 289.405785 -373.174188 
L 294.017355 -372.018012 
L 298.628926 -369.728188 
L 303.240496 -366.349037 
L 307.852066 -361.945253 
L 312.463636 -356.59984 
L 317.075207 -350.411509 
L 321.686777 -343.491657 
L 326.298347 -335.961033 
L 330.909917 -327.94626 
L 335.521488 -319.576323 
L 340.133058 -310.979184 
L 344.744628 -302.278626 
L 349.356198 -293.591431 
L 353.967769 -285.024995 
L 358.579339 -276.67541 
L 363.190909 -268.62606 
L 367.802479 -260.946744 
L 372.41405 -253.693296 
L 377.02562 -246.907674 
L 381.63719 -240.61847 
L 386.24876 -234.841764 
L 390.860331 -229.582263 
L 395.471901 -224.83464 
L 400.083471 -220.585003 
L 404.695041 -216.812424 
L 409.306612 -213.490459 
L 413.918182 -210.588613 
L 418.529752 -208.073697 
L 423.141322 -205.911061 
L 427.752893 -204.065651 
L 432.364463 -202.502919 
L 436.976033 -201.18954 
L 441.587603 -200.093979 
L 446.199174 -199.186889 
L 450.810744 -198.44138 
L 455.422314 -197.833151 
L 460.033884 -197.340531 
L 464.645455 -196.944432 
L 469.257025 -196.628232 
L 473.868595 -196.377621 
L 478.480165 -196.18041 
L 483.091736 -196.026322 
L 487.703306 -195.906778 
L 492.314876 -195.814687 
L 496.926446 -195.744243 
L 501.538017 -195.690734 
L 506.149587 -195.650372 
L 510.761157 -195.620139 
L 515.372727 -195.59765 
L 515.372727 -195.538011 
L 515.372727 -195.538011 
L 510.761157 -195.538011 
L 506.149587 -195.538011 
L 501.538017 -195.538011 
L 496.926446 -195.538011 
L 492.314876 -195.538011 
L 487.703306 -195.538011 
L 483.091736 -195.538011 
L 478.480165 -195.538011 
L 473.868595 -195.538011 
L 469.257025 -195.538011 
L 464.645455 -195.538011 
L 460.033884 -195.538011 
L 455.422314 -195.538011 
L 450.810744 -195.538011 
L 446.199174 -195.538011 
L 441.587603 -195.538011 
L 436.976033 -195.538011 
L 432.364463 -195.538011 
L 427.752893 -195.538011 
L 423.141322 -195.538011 
L 418.529752 -195.538011 
L 413.918182 -195.538011 
L 409.306612 -195.538011 
L 404.695041 -195.538011 
L 400.083471 -195.538011 
L 395.471901 -195.538011 
L 390.860331 -195.538011 
L 386.24876 -195.538011 
L 381.63719 -195.538011 
L 377.02562 -195.538011 
L 372.41405 -195.538011 
L 367.802479 -195.538011 
L 363.190909 -195.538011 
L 358.579339 -195.538011 
L 353.967769 -195.538011 
L 349.356198 -195.538011 
L 344.744628 -195.538011 
L 340.133058 -195.538011 
L 335.521488 -195.538011 
L 330.909917 -195.538011 
L 326.298347 -195.538011 
L 321.686777 -195.538011 
L 317.075207 -195.538011 
L 312.463636 -195.538011 
L 307.852066 -195.538011 
L 303.240496 -195.538011 
L 298.628926 -195.538011 
L 294.017355 -195.538011 
L 289.405785 -195.538011 
L 284.794215 -195.538011 
L 280.182645 -195.538011 
L 275.571074 -195.538011 
L 270.959504 -195.538011 
L 266.347934 -195.538011 
L 261.736364 -195.538011 
L 257.124793 -195.538011 
L 252.513223 -195.538011 
L 247.901653 -195.538011 
L 243.290083 -195.538011 
L 238.678512 -195.538011 
L 234.066942 -195.538011 
L 229.455372 -195.538011 
L 224.843802 -195.538011 
L 220.232231 -195.538011 
L 215.620661 -195.538011 
L 211.009091 -195.538011 
L 206.397521 -195.538011 
L 201.78595 -195.538011 
L 197.17438 -195.538011 
L 192.56281 -195.538011 
L 187.95124 -195.538011 
L 183.339669 -195.538011 
L 178.728099 -195.538011 
L 174.116529 -195.538011 
L 169.504959 -195.538011 
L 164.893388 -195.538011 
L 160.281818 -195.538011 
L 155.670248 -195.538011 
L 151.058678 -195.538011 
L 146.447107 -195.538011 
L 141.835537 -195.538011 
L 137.223967 -195.538011 
L 132.612397 -195.538011 
L 128.000826 -195.538011 
L 123.389256 -195.538011 
L 118.777686 -195.538011 
L 114.166116 -195.538011 
L 109.554545 -195.538011 
L 104.942975 -195.538011 
L 100.331405 -195.538011 
L 95.719835 -195.538011 
L 91.108264 -195.538011 
L 86.496694 -195.538011 
L 81.885124 -195.538011 
L 77.273554 -195.538011 
L 72.661983 -195.538011 
L 68.050413 -195.538011 
L 63.438843 -195.538011 
L 58.827273 -195.538011 
z
" id="m9e48658ff3" style="stroke:#36a2eb;stroke-opacity:0.5;"/>
    </defs>
    <g clip-path="url(#pbe5a96ac4e)">
     <use style="fill:#36a2eb;fill-opacity:0.5;stroke:#36a2eb;stroke-opacity:0.5;" x="0" xlink:href="#m9e48658ff3" y="581.789375"/>
    </g>
   </g>
   <g id="PolyCollection_3">
    <defs>
     <path d="M 112.952427 -195.538011 
L 112.952427 -195.650004 
L 115.408209 -195.692234 
L 117.86399 -195.749007 
L 120.319772 -195.8248 
L 122.775553 -195.925281 
L 125.231334 -196.057565 
L 127.687116 -196.230497 
L 130.142897 -196.454982 
L 132.598679 -196.744335 
L 135.05446 -197.114666 
L 137.510241 -197.585273 
L 139.966023 -198.179047 
L 142.421804 -198.922859 
L 144.877586 -199.847921 
L 147.333367 -200.990079 
L 149.789149 -202.390029 
L 152.24493 -204.093399 
L 154.700711 -206.150691 
L 157.156493 -208.617009 
L 159.612274 -211.551575 
L 162.068056 -215.016962 
L 164.523837 -219.078053 
L 166.979619 -223.800667 
L 169.4354 -229.249878 
L 171.891181 -235.488004 
L 174.346963 -242.572312 
L 176.802744 -250.552459 
L 179.258526 -259.467747 
L 181.714307 -269.344261 
L 184.170089 -280.192004 
L 186.62587 -292.002137 
L 189.081651 -304.744465 
L 191.537433 -318.365297 
L 193.993214 -332.785841 
L 196.448996 -347.901251 
L 198.904777 -363.580456 
L 201.360558 -379.666871 
L 203.81634 -395.980052 
L 206.272121 -412.31833 
L 208.727903 -428.4624 
L 211.183684 -444.179822 
L 213.639466 -459.230303 
L 216.095247 -473.371627 
L 218.551028 -486.366018 
L 221.00681 -497.986726 
L 223.462591 -508.02457 
L 225.918373 -516.294181 
L 228.374154 -522.639693 
L 230.829936 -526.939623 
L 233.285717 -529.110739 
L 235.741498 -529.110739 
L 238.19728 -526.939623 
L 240.653061 -522.639693 
L 243.108843 -516.294181 
L 245.564624 -508.02457 
L 248.020406 -497.986726 
L 250.476187 -486.366018 
L 252.931968 -473.371627 
L 255.38775 -459.230303 
L 257.843531 -444.179822 
L 260.299313 -428.4624 
L 262.755094 -412.31833 
L 265.210875 -395.980052 
L 267.666657 -379.666871 
L 270.122438 -363.580456 
L 272.57822 -347.901251 
L 275.034001 -332.785841 
L 277.489783 -318.365297 
L 279.945564 -304.744465 
L 282.401345 -292.002137 
L 284.857127 -280.192004 
L 287.312908 -269.344261 
L 289.76869 -259.467747 
L 292.224471 -250.552459 
L 294.680253 -242.572312 
L 297.136034 -235.488004 
L 299.591815 -229.249878 
L 302.047597 -223.800667 
L 304.503378 -219.078053 
L 306.95916 -215.016962 
L 309.414941 -211.551575 
L 311.870722 -208.617009 
L 314.326504 -206.150691 
L 316.782285 -204.093399 
L 319.238067 -202.390029 
L 321.693848 -200.990079 
L 324.14963 -199.847921 
L 326.605411 -198.922859 
L 329.061192 -198.179047 
L 331.516974 -197.585273 
L 333.972755 -197.114666 
L 336.428537 -196.744335 
L 338.884318 -196.454982 
L 341.3401 -196.230497 
L 343.795881 -196.057565 
L 346.251662 -195.925281 
L 348.707444 -195.8248 
L 351.163225 -195.749007 
L 353.619007 -195.692234 
L 356.074788 -195.650004 
L 356.074788 -195.538011 
L 356.074788 -195.538011 
L 353.619007 -195.538011 
L 351.163225 -195.538011 
L 348.707444 -195.538011 
L 346.251662 -195.538011 
L 343.795881 -195.538011 
L 341.3401 -195.538011 
L 338.884318 -195.538011 
L 336.428537 -195.538011 
L 333.972755 -195.538011 
L 331.516974 -195.538011 
L 329.061192 -195.538011 
L 326.605411 -195.538011 
L 324.14963 -195.538011 
L 321.693848 -195.538011 
L 319.238067 -195.538011 
L 316.782285 -195.538011 
L 314.326504 -195.538011 
L 311.870722 -195.538011 
L 309.414941 -195.538011 
L 306.95916 -195.538011 
L 304.503378 -195.538011 
L 302.047597 -195.538011 
L 299.591815 -195.538011 
L 297.136034 -195.538011 
L 294.680253 -195.538011 
L 292.224471 -195.538011 
L 289.76869 -195.538011 
L 287.312908 -195.538011 
L 284.857127 -195.538011 
L 282.401345 -195.538011 
L 279.945564 -195.538011 
L 277.489783 -195.538011 
L 275.034001 -195.538011 
L 272.57822 -195.538011 
L 270.122438 -195.538011 
L 267.666657 -195.538011 
L 265.210875 -195.538011 
L 262.755094 -195.538011 
L 260.299313 -195.538011 
L 257.843531 -195.538011 
L 255.38775 -195.538011 
L 252.931968 -195.538011 
L 250.476187 -195.538011 
L 248.020406 -195.538011 
L 245.564624 -195.538011 
L 243.108843 -195.538011 
L 240.653061 -195.538011 
L 238.19728 -195.538011 
L 235.741498 -195.538011 
L 233.285717 -195.538011 
L 230.829936 -195.538011 
L 228.374154 -195.538011 
L 225.918373 -195.538011 
L 223.462591 -195.538011 
L 221.00681 -195.538011 
L 218.551028 -195.538011 
L 216.095247 -195.538011 
L 213.639466 -195.538011 
L 211.183684 -195.538011 
L 208.727903 -195.538011 
L 206.272121 -195.538011 
L 203.81634 -195.538011 
L 201.360558 -195.538011 
L 198.904777 -195.538011 
L 196.448996 -195.538011 
L 193.993214 -195.538011 
L 191.537433 -195.538011 
L 189.081651 -195.538011 
L 186.62587 -195.538011 
L 184.170089 -195.538011 
L 181.714307 -195.538011 
L 179.258526 -195.538011 
L 176.802744 -195.538011 
L 174.346963 -195.538011 
L 171.891181 -195.538011 
L 169.4354 -195.538011 
L 166.979619 -195.538011 
L 164.523837 -195.538011 
L 162.068056 -195.538011 
L 159.612274 -195.538011 
L 157.156493 -195.538011 
L 154.700711 -195.538011 
L 152.24493 -195.538011 
L 149.789149 -195.538011 
L 147.333367 -195.538011 
L 144.877586 -195.538011 
L 142.421804 -195.538011 
L 139.966023 -195.538011 
L 137.510241 -195.538011 
L 135.05446 -195.538011 
L 132.598679 -195.538011 
L 130.142897 -195.538011 
L 127.687116 -195.538011 
L 125.231334 -195.538011 
L 122.775553 -195.538011 
L 120.319772 -195.538011 
L 117.86399 -195.538011 
L 115.408209 -195.538011 
L 112.952427 -195.538011 
z
" id="me39fc7acc2" style="stroke:#4bc0c0;stroke-opacity:0.5;"/>
    </defs>
    <g clip-path="url(#pbe5a96ac4e)">
     <use style="fill:#4bc0c0;fill-opacity:0.5;stroke:#4bc0c0;stroke-opacity:0.5;" x="0" xlink:href="#me39fc7acc2" y="581.789375"/>
    </g>
   </g>
   <g id="line2d_1">
    <path clip-path="url(#pbe5a96ac4e)" d="M 168.256252 386.166824 
L 171.509505 386.134945 
L 174.762758 386.092089 
L 178.016011 386.034876 
L 181.269263 385.959025 
L 184.522516 385.859169 
L 187.775769 385.728627 
L 191.029022 385.559171 
L 194.282274 385.340747 
L 197.535527 385.061195 
L 200.78878 384.705948 
L 204.042032 384.257727 
L 207.295285 383.696245 
L 210.548538 382.997944 
L 213.801791 382.135764 
L 217.055043 381.078985 
L 220.308296 379.793162 
L 223.561549 378.240175 
L 226.814802 376.378426 
L 230.068054 374.163212 
L 233.321307 371.547297 
L 236.57456 368.481703 
L 239.827813 364.916745 
L 243.081065 360.803302 
L 246.334318 356.094331 
L 249.587571 350.746602 
L 252.840823 344.722632 
L 256.094076 337.992753 
L 259.347329 330.537274 
L 262.600582 322.348643 
L 265.853834 313.433532 
L 269.107087 303.814737 
L 272.36034 293.532786 
L 275.613593 282.647156 
L 278.866845 271.236994 
L 282.120098 259.40124 
L 285.373351 247.258095 
L 288.626604 234.943771 
L 291.879856 222.610502 
L 295.133109 210.423836 
L 298.386362 198.559233 
L 301.639614 187.198083 
L 304.892867 176.523228 
L 308.14612 166.714158 
L 311.399373 157.942039 
L 314.652625 150.364776 
L 317.905878 144.122299 
L 321.159131 139.332265 
L 324.412384 136.086379 
L 327.665636 134.44747 
L 330.918889 134.44747 
L 334.172142 136.086379 
L 337.425395 139.332265 
L 340.678647 144.122299 
L 343.9319 150.364776 
L 347.185153 157.942039 
L 350.438405 166.714158 
L 353.691658 176.523228 
L 356.944911 187.198083 
L 360.198164 198.559233 
L 363.451416 210.423836 
L 366.704669 222.610502 
L 369.957922 234.943771 
L 373.211175 247.258095 
L 376.464427 259.40124 
L 379.71768 271.236994 
L 382.970933 282.647156 
L 386.224186 293.532786 
L 389.477438 303.814737 
L 392.730691 313.433532 
L 395.983944 322.348643 
L 399.237196 330.537274 
L 402.490449 337.992753 
L 405.743702 344.722632 
L 408.996955 350.746602 
L 412.250207 356.094331 
L 415.50346 360.803302 
L 418.756713 364.916745 
L 422.009966 368.481703 
L 425.263218 371.547297 
L 428.516471 374.163212 
L 431.769724 376.378426 
L 435.022977 378.240175 
L 438.276229 379.793162 
L 441.529482 381.078985 
L 444.782735 382.135764 
L 448.035987 382.997944 
L 451.28924 383.696245 
L 454.542493 384.257727 
L 457.795746 384.705948 
L 461.048998 385.061195 
L 464.302251 385.340747 
L 467.555504 385.559171 
L 470.808757 385.728627 
L 474.062009 385.859169 
L 477.315262 385.959025 
L 480.568515 386.034876 
L 483.821768 386.092089 
L 487.07502 386.134945 
L 490.328273 386.166824 
" style="fill:none;stroke:#ff6384;stroke-linecap:square;"/>
   </g>
   <g id="line2d_2">
    <path clip-path="url(#pbe5a96ac4e)" d="M 58.827273 386.191725 
L 63.438843 386.169236 
L 68.050413 386.139003 
L 72.661983 386.098641 
L 77.273554 386.045132 
L 81.885124 385.974688 
L 86.496694 385.882597 
L 91.108264 385.763053 
L 95.719835 385.608965 
L 100.331405 385.411754 
L 104.942975 385.161143 
L 109.554545 384.844943 
L 114.166116 384.448844 
L 118.777686 383.956224 
L 123.389256 383.347995 
L 128.000826 382.602486 
L 132.612397 381.695396 
L 137.223967 380.599835 
L 141.835537 379.286456 
L 146.447107 377.723724 
L 151.058678 375.878314 
L 155.670248 373.715678 
L 160.281818 371.200762 
L 164.893388 368.298916 
L 169.504959 364.976951 
L 174.116529 361.204372 
L 178.728099 356.954735 
L 183.339669 352.207112 
L 187.95124 346.947611 
L 192.56281 341.170905 
L 197.17438 334.881701 
L 201.78595 328.096079 
L 206.397521 320.842631 
L 211.009091 313.163315 
L 215.620661 305.113965 
L 220.232231 296.76438 
L 224.843802 288.197944 
L 229.455372 279.510749 
L 234.066942 270.810191 
L 238.678512 262.213052 
L 243.290083 253.843115 
L 247.901653 245.828342 
L 252.513223 238.297718 
L 257.124793 231.377866 
L 261.736364 225.189535 
L 266.347934 219.844122 
L 270.959504 215.440338 
L 275.571074 212.061187 
L 280.182645 209.771363 
L 284.794215 208.615187 
L 289.405785 208.615187 
L 294.017355 209.771363 
L 298.628926 212.061187 
L 303.240496 215.440338 
L 307.852066 219.844122 
L 312.463636 225.189535 
L 317.075207 231.377866 
L 321.686777 238.297718 
L 326.298347 245.828342 
L 330.909917 253.843115 
L 335.521488 262.213052 
L 340.133058 270.810191 
L 344.744628 279.510749 
L 349.356198 288.197944 
L 353.967769 296.76438 
L 358.579339 305.113965 
L 363.190909 313.163315 
L 367.802479 320.842631 
L 372.41405 328.096079 
L 377.02562 334.881701 
L 381.63719 341.170905 
L 386.24876 346.947611 
L 390.860331 352.207112 
L 395.471901 356.954735 
L 400.083471 361.204372 
L 404.695041 364.976951 
L 409.306612 368.298916 
L 413.918182 371.200762 
L 418.529752 373.715678 
L 423.141322 375.878314 
L 427.752893 377.723724 
L 432.364463 379.286456 
L 436.976033 380.599835 
L 441.587603 381.695396 
L 446.199174 382.602486 
L 450.810744 383.347995 
L 455.422314 383.956224 
L 460.033884 384.448844 
L 464.645455 384.844943 
L 469.257025 385.161143 
L 473.868595 385.411754 
L 478.480165 385.608965 
L 483.091736 385.763053 
L 487.703306 385.882597 
L 492.314876 385.974688 
L 496.926446 386.045132 
L 501.538017 386.098641 
L 506.149587 386.139003 
L 510.761157 386.169236 
L 515.372727 386.191725 
" style="fill:none;stroke:#36a2eb;stroke-linecap:square;"/>
   </g>
   <g id="line2d_3">
    <path clip-path="url(#pbe5a96ac4e)" d="M 112.952427 386.139371 
L 115.408209 386.097141 
L 117.86399 386.040368 
L 120.319772 385.964575 
L 122.775553 385.864094 
L 125.231334 385.73181 
L 127.687116 385.558878 
L 130.142897 385.334393 
L 132.598679 385.04504 
L 135.05446 384.674709 
L 137.510241 384.204102 
L 139.966023 383.610328 
L 142.421804 382.866516 
L 144.877586 381.941454 
L 147.333367 380.799296 
L 149.789149 379.399346 
L 152.24493 377.695976 
L 154.700711 375.638684 
L 157.156493 373.172366 
L 159.612274 370.2378 
L 162.068056 366.772413 
L 164.523837 362.711322 
L 166.979619 357.988708 
L 169.4354 352.539497 
L 171.891181 346.301371 
L 174.346963 339.217063 
L 176.802744 331.236916 
L 179.258526 322.321628 
L 181.714307 312.445114 
L 184.170089 301.597371 
L 186.62587 289.787238 
L 189.081651 277.04491 
L 191.537433 263.424078 
L 193.993214 249.003534 
L 196.448996 233.888124 
L 198.904777 218.208919 
L 201.360558 202.122504 
L 203.81634 185.809323 
L 206.272121 169.471045 
L 208.727903 153.326975 
L 211.183684 137.609553 
L 213.639466 122.559072 
L 216.095247 108.417748 
L 218.551028 95.423357 
L 221.00681 83.802649 
L 223.462591 73.764805 
L 225.918373 65.495194 
L 228.374154 59.149682 
L 230.829936 54.849752 
L 233.285717 52.678636 
L 235.741498 52.678636 
L 238.19728 54.849752 
L 240.653061 59.149682 
L 243.108843 65.495194 
L 245.564624 73.764805 
L 248.020406 83.802649 
L 250.476187 95.423357 
L 252.931968 108.417748 
L 255.38775 122.559072 
L 257.843531 137.609553 
L 260.299313 153.326975 
L 262.755094 169.471045 
L 265.210875 185.809323 
L 267.666657 202.122504 
L 270.122438 218.208919 
L 272.57822 233.888124 
L 275.034001 249.003534 
L 277.489783 263.424078 
L 279.945564 277.04491 
L 282.401345 289.787238 
L 284.857127 301.597371 
L 287.312908 312.445114 
L 289.76869 322.321628 
L 292.224471 331.236916 
L 294.680253 339.217063 
L 297.136034 346.301371 
L 299.591815 352.539497 
L 302.047597 357.988708 
L 304.503378 362.711322 
L 306.95916 366.772413 
L 309.414941 370.2378 
L 311.870722 373.172366 
L 314.326504 375.638684 
L 316.782285 377.695976 
L 319.238067 379.399346 
L 321.693848 380.799296 
L 324.14963 381.941454 
L 326.605411 382.866516 
L 329.061192 383.610328 
L 331.516974 384.204102 
L 333.972755 384.674709 
L 336.428537 385.04504 
L 338.884318 385.334393 
L 341.3401 385.558878 
L 343.795881 385.73181 
L 346.251662 385.864094 
L 348.707444 385.964575 
L 351.163225 386.040368 
L 353.619007 386.097141 
L 356.074788 386.139371 
" style="fill:none;stroke:#4bc0c0;stroke-linecap:square;"/>
   </g>
   <g id="patch_3">
    <path d="M 36 402.93 
L 538.2 402.93 
" style="fill:none;stroke:#000000;stroke-linecap:square;stroke-linejoin:miter;stroke-width:0.8;"/>
   </g>
   <g id="legend_1">
    <g id="patch_4">
     <path d="M 401.81375 109.626875 
L 528.4 109.626875 
Q 531.2 109.626875 531.2 106.826875 
L 531.2 45.8 
Q 531.2 43 528.4 43 
L 401.81375 43 
Q 399.01375 43 399.01375 45.8 
L 399.01375 106.826875 
Q 399.01375 109.626875 401.81375 109.626875 
z
" style="fill:#ffffff;opacity:0.8;stroke:#cccccc;stroke-linejoin:miter;"/>
    </g>
    <g id="patch_5">
     <path d="M 404.61375 59.237813 
L 432.61375 59.237813 
L 432.61375 49.437813 
L 404.61375 49.437813 
z
" style="fill:#ff6384;opacity:0.5;stroke:#ff6384;stroke-linejoin:miter;"/>
    </g>
    <g id="text_1">
     <!-- base -->
     <defs>
      <path d="M 48.6875 27.296875 
Q 48.6875 37.203125 44.609375 42.84375 
Q 40.53125 48.484375 33.40625 48.484375 
Q 26.265625 48.484375 22.1875 42.84375 
Q 18.109375 37.203125 18.109375 27.296875 
Q 18.109375 17.390625 22.1875 11.75 
Q 26.265625 6.109375 33.40625 6.109375 
Q 40.53125 6.109375 44.609375 11.75 
Q 48.6875 17.390625 48.6875 27.296875 
z
M 18.109375 46.390625 
Q 20.953125 51.265625 25.265625 53.625 
Q 29.59375 56 35.59375 56 
Q 45.5625 56 51.78125 48.09375 
Q 58.015625 40.1875 58.015625 27.296875 
Q 58.015625 14.40625 51.78125 6.484375 
Q 45.5625 -1.421875 35.59375 -1.421875 
Q 29.59375 -1.421875 25.265625 0.953125 
Q 20.953125 3.328125 18.109375 8.203125 
L 18.109375 0 
L 9.078125 0 
L 9.078125 75.984375 
L 18.109375 75.984375 
z
" id="DejaVuSans-98"/>
      <path d="M 34.28125 27.484375 
Q 23.390625 27.484375 19.1875 25 
Q 14.984375 22.515625 14.984375 16.5 
Q 14.984375 11.71875 18.140625 8.90625 
Q 21.296875 6.109375 26.703125 6.109375 
Q 34.1875 6.109375 38.703125 11.40625 
Q 43.21875 16.703125 43.21875 25.484375 
L 43.21875 27.484375 
z
M 52.203125 31.203125 
L 52.203125 0 
L 43.21875 0 
L 43.21875 8.296875 
Q 40.140625 3.328125 35.546875 0.953125 
Q 30.953125 -1.421875 24.3125 -1.421875 
Q 15.921875 -1.421875 10.953125 3.296875 
Q 6 8.015625 6 15.921875 
Q 6 25.140625 12.171875 29.828125 
Q 18.359375 34.515625 30.609375 34.515625 
L 43.21875 34.515625 
L 43.21875 35.40625 
Q 43.21875 41.609375 39.140625 45 
Q 35.0625 48.390625 27.6875 48.390625 
Q 23 48.390625 18.546875 47.265625 
Q 14.109375 46.140625 10.015625 43.890625 
L 10.015625 52.203125 
Q 14.9375 54.109375 19.578125 55.046875 
Q 24.21875 56 28.609375 56 
Q 40.484375 56 46.34375 49.84375 
Q 52.203125 43.703125 52.203125 31.203125 
z
" id="DejaVuSans-97"/>
      <path d="M 44.28125 53.078125 
L 44.28125 44.578125 
Q 40.484375 46.53125 36.375 47.5 
Q 32.28125 48.484375 27.875 48.484375 
Q 21.1875 48.484375 17.84375 46.4375 
Q 14.5 44.390625 14.5 40.28125 
Q 14.5 37.15625 16.890625 35.375 
Q 19.28125 33.59375 26.515625 31.984375 
L 29.59375 31.296875 
Q 39.15625 29.25 43.1875 25.515625 
Q 47.21875 21.78125 47.21875 15.09375 
Q 47.21875 7.46875 41.1875 3.015625 
Q 35.15625 -1.421875 24.609375 -1.421875 
Q 20.21875 -1.421875 15.453125 -0.5625 
Q 10.6875 0.296875 5.421875 2 
L 5.421875 11.28125 
Q 10.40625 8.6875 15.234375 7.390625 
Q 20.0625 6.109375 24.8125 6.109375 
Q 31.15625 6.109375 34.5625 8.28125 
Q 37.984375 10.453125 37.984375 14.40625 
Q 37.984375 18.0625 35.515625 20.015625 
Q 33.0625 21.96875 24.703125 23.78125 
L 21.578125 24.515625 
Q 13.234375 26.265625 9.515625 29.90625 
Q 5.8125 33.546875 5.8125 39.890625 
Q 5.8125 47.609375 11.28125 51.796875 
Q 16.75 56 26.8125 56 
Q 31.78125 56 36.171875 55.265625 
Q 40.578125 54.546875 44.28125 53.078125 
z
" id="DejaVuSans-115"/>
      <path d="M 56.203125 29.59375 
L 56.203125 25.203125 
L 14.890625 25.203125 
Q 15.484375 15.921875 20.484375 11.0625 
Q 25.484375 6.203125 34.421875 6.203125 
Q 39.59375 6.203125 44.453125 7.46875 
Q 49.3125 8.734375 54.109375 11.28125 
L 54.109375 2.78125 
Q 49.265625 0.734375 44.1875 -0.34375 
Q 39.109375 -1.421875 33.890625 -1.421875 
Q 20.796875 -1.421875 13.15625 6.1875 
Q 5.515625 13.8125 5.515625 26.8125 
Q 5.515625 40.234375 12.765625 48.109375 
Q 20.015625 56 32.328125 56 
Q 43.359375 56 49.78125 48.890625 
Q 56.203125 41.796875 56.203125 29.59375 
z
M 47.21875 32.234375 
Q 47.125 39.59375 43.09375 43.984375 
Q 39.0625 48.390625 32.421875 48.390625 
Q 24.90625 48.390625 20.390625 44.140625 
Q 15.875 39.890625 15.1875 32.171875 
z
" id="DejaVuSans-101"/>
     </defs>
     <g transform="translate(443.81375 59.237813)scale(0.14 -0.14)">
      <use xlink:href="#DejaVuSans-98"/>
      <use x="63.476562" xlink:href="#DejaVuSans-97"/>
      <use x="124.755859" xlink:href="#DejaVuSans-115"/>
      <use x="176.855469" xlink:href="#DejaVuSans-101"/>
     </g>
    </g>
    <g id="patch_6">
     <path d="M 404.61375 79.787188 
L 432.61375 79.787188 
L 432.61375 69.987188 
L 404.61375 69.987188 
z
" style="fill:#36a2eb;opacity:0.5;stroke:#36a2eb;stroke-linejoin:miter;"/>
    </g>
    <g id="text_2">
     <!-- osago_mid -->
     <defs>
      <path d="M 30.609375 48.390625 
Q 23.390625 48.390625 19.1875 42.75 
Q 14.984375 37.109375 14.984375 27.296875 
Q 14.984375 17.484375 19.15625 11.84375 
Q 23.34375 6.203125 30.609375 6.203125 
Q 37.796875 6.203125 41.984375 11.859375 
Q 46.1875 17.53125 46.1875 27.296875 
Q 46.1875 37.015625 41.984375 42.703125 
Q 37.796875 48.390625 30.609375 48.390625 
z
M 30.609375 56 
Q 42.328125 56 49.015625 48.375 
Q 55.71875 40.765625 55.71875 27.296875 
Q 55.71875 13.875 49.015625 6.21875 
Q 42.328125 -1.421875 30.609375 -1.421875 
Q 18.84375 -1.421875 12.171875 6.21875 
Q 5.515625 13.875 5.515625 27.296875 
Q 5.515625 40.765625 12.171875 48.375 
Q 18.84375 56 30.609375 56 
z
" id="DejaVuSans-111"/>
      <path d="M 45.40625 27.984375 
Q 45.40625 37.75 41.375 43.109375 
Q 37.359375 48.484375 30.078125 48.484375 
Q 22.859375 48.484375 18.828125 43.109375 
Q 14.796875 37.75 14.796875 27.984375 
Q 14.796875 18.265625 18.828125 12.890625 
Q 22.859375 7.515625 30.078125 7.515625 
Q 37.359375 7.515625 41.375 12.890625 
Q 45.40625 18.265625 45.40625 27.984375 
z
M 54.390625 6.78125 
Q 54.390625 -7.171875 48.1875 -13.984375 
Q 42 -20.796875 29.203125 -20.796875 
Q 24.46875 -20.796875 20.265625 -20.09375 
Q 16.0625 -19.390625 12.109375 -17.921875 
L 12.109375 -9.1875 
Q 16.0625 -11.328125 19.921875 -12.34375 
Q 23.78125 -13.375 27.78125 -13.375 
Q 36.625 -13.375 41.015625 -8.765625 
Q 45.40625 -4.15625 45.40625 5.171875 
L 45.40625 9.625 
Q 42.625 4.78125 38.28125 2.390625 
Q 33.9375 0 27.875 0 
Q 17.828125 0 11.671875 7.65625 
Q 5.515625 15.328125 5.515625 27.984375 
Q 5.515625 40.671875 11.671875 48.328125 
Q 17.828125 56 27.875 56 
Q 33.9375 56 38.28125 53.609375 
Q 42.625 51.21875 45.40625 46.390625 
L 45.40625 54.6875 
L 54.390625 54.6875 
z
" id="DejaVuSans-103"/>
      <path d="M 50.984375 -16.609375 
L 50.984375 -23.578125 
L -0.984375 -23.578125 
L -0.984375 -16.609375 
z
" id="DejaVuSans-95"/>
      <path d="M 52 44.1875 
Q 55.375 50.25 60.0625 53.125 
Q 64.75 56 71.09375 56 
Q 79.640625 56 84.28125 50.015625 
Q 88.921875 44.046875 88.921875 33.015625 
L 88.921875 0 
L 79.890625 0 
L 79.890625 32.71875 
Q 79.890625 40.578125 77.09375 44.375 
Q 74.3125 48.1875 68.609375 48.1875 
Q 61.625 48.1875 57.5625 43.546875 
Q 53.515625 38.921875 53.515625 30.90625 
L 53.515625 0 
L 44.484375 0 
L 44.484375 32.71875 
Q 44.484375 40.625 41.703125 44.40625 
Q 38.921875 48.1875 33.109375 48.1875 
Q 26.21875 48.1875 22.15625 43.53125 
Q 18.109375 38.875 18.109375 30.90625 
L 18.109375 0 
L 9.078125 0 
L 9.078125 54.6875 
L 18.109375 54.6875 
L 18.109375 46.1875 
Q 21.1875 51.21875 25.484375 53.609375 
Q 29.78125 56 35.6875 56 
Q 41.65625 56 45.828125 52.96875 
Q 50 49.953125 52 44.1875 
z
" id="DejaVuSans-109"/>
      <path d="M 9.421875 54.6875 
L 18.40625 54.6875 
L 18.40625 0 
L 9.421875 0 
z
M 9.421875 75.984375 
L 18.40625 75.984375 
L 18.40625 64.59375 
L 9.421875 64.59375 
z
" id="DejaVuSans-105"/>
      <path d="M 45.40625 46.390625 
L 45.40625 75.984375 
L 54.390625 75.984375 
L 54.390625 0 
L 45.40625 0 
L 45.40625 8.203125 
Q 42.578125 3.328125 38.25 0.953125 
Q 33.9375 -1.421875 27.875 -1.421875 
Q 17.96875 -1.421875 11.734375 6.484375 
Q 5.515625 14.40625 5.515625 27.296875 
Q 5.515625 40.1875 11.734375 48.09375 
Q 17.96875 56 27.875 56 
Q 33.9375 56 38.25 53.625 
Q 42.578125 51.265625 45.40625 46.390625 
z
M 14.796875 27.296875 
Q 14.796875 17.390625 18.875 11.75 
Q 22.953125 6.109375 30.078125 6.109375 
Q 37.203125 6.109375 41.296875 11.75 
Q 45.40625 17.390625 45.40625 27.296875 
Q 45.40625 37.203125 41.296875 42.84375 
Q 37.203125 48.484375 30.078125 48.484375 
Q 22.953125 48.484375 18.875 42.84375 
Q 14.796875 37.203125 14.796875 27.296875 
z
" id="DejaVuSans-100"/>
     </defs>
     <g transform="translate(443.81375 79.787188)scale(0.14 -0.14)">
      <use xlink:href="#DejaVuSans-111"/>
      <use x="61.181641" xlink:href="#DejaVuSans-115"/>
      <use x="113.28125" xlink:href="#DejaVuSans-97"/>
      <use x="174.560547" xlink:href="#DejaVuSans-103"/>
      <use x="238.037109" xlink:href="#DejaVuSans-111"/>
      <use x="299.21875" xlink:href="#DejaVuSans-95"/>
      <use x="349.21875" xlink:href="#DejaVuSans-109"/>
      <use x="446.630859" xlink:href="#DejaVuSans-105"/>
      <use x="474.414062" xlink:href="#DejaVuSans-100"/>
     </g>
    </g>
    <g id="patch_7">
     <path d="M 404.61375 100.725937 
L 432.61375 100.725937 
L 432.61375 90.925937 
L 404.61375 90.925937 
z
" style="fill:#4bc0c0;opacity:0.5;stroke:#4bc0c0;stroke-linejoin:miter;"/>
    </g>
    <g id="text_3">
     <!-- osago_right -->
     <defs>
      <path d="M 41.109375 46.296875 
Q 39.59375 47.171875 37.8125 47.578125 
Q 36.03125 48 33.890625 48 
Q 26.265625 48 22.1875 43.046875 
Q 18.109375 38.09375 18.109375 28.8125 
L 18.109375 0 
L 9.078125 0 
L 9.078125 54.6875 
L 18.109375 54.6875 
L 18.109375 46.1875 
Q 20.953125 51.171875 25.484375 53.578125 
Q 30.03125 56 36.53125 56 
Q 37.453125 56 38.578125 55.875 
Q 39.703125 55.765625 41.0625 55.515625 
z
" id="DejaVuSans-114"/>
      <path d="M 54.890625 33.015625 
L 54.890625 0 
L 45.90625 0 
L 45.90625 32.71875 
Q 45.90625 40.484375 42.875 44.328125 
Q 39.84375 48.1875 33.796875 48.1875 
Q 26.515625 48.1875 22.3125 43.546875 
Q 18.109375 38.921875 18.109375 30.90625 
L 18.109375 0 
L 9.078125 0 
L 9.078125 75.984375 
L 18.109375 75.984375 
L 18.109375 46.1875 
Q 21.34375 51.125 25.703125 53.5625 
Q 30.078125 56 35.796875 56 
Q 45.21875 56 50.046875 50.171875 
Q 54.890625 44.34375 54.890625 33.015625 
z
" id="DejaVuSans-104"/>
      <path d="M 18.3125 70.21875 
L 18.3125 54.6875 
L 36.8125 54.6875 
L 36.8125 47.703125 
L 18.3125 47.703125 
L 18.3125 18.015625 
Q 18.3125 11.328125 20.140625 9.421875 
Q 21.96875 7.515625 27.59375 7.515625 
L 36.8125 7.515625 
L 36.8125 0 
L 27.59375 0 
Q 17.1875 0 13.234375 3.875 
Q 9.28125 7.765625 9.28125 18.015625 
L 9.28125 47.703125 
L 2.6875 47.703125 
L 2.6875 54.6875 
L 9.28125 54.6875 
L 9.28125 70.21875 
z
" id="DejaVuSans-116"/>
     </defs>
     <g transform="translate(443.81375 100.725937)scale(0.14 -0.14)">
      <use xlink:href="#DejaVuSans-111"/>
      <use x="61.181641" xlink:href="#DejaVuSans-115"/>
      <use x="113.28125" xlink:href="#DejaVuSans-97"/>
      <use x="174.560547" xlink:href="#DejaVuSans-103"/>
      <use x="238.037109" xlink:href="#DejaVuSans-111"/>
      <use x="299.21875" xlink:href="#DejaVuSans-95"/>
      <use x="349.21875" xlink:href="#DejaVuSans-114"/>
      <use x="390.332031" xlink:href="#DejaVuSans-105"/>
      <use x="418.115234" xlink:href="#DejaVuSans-103"/>
      <use x="481.591797" xlink:href="#DejaVuSans-104"/>
      <use x="544.970703" xlink:href="#DejaVuSans-116"/>
     </g>
    </g>
   </g>
  </g>
  <g id="axes_2">
   <g id="patch_8">
    <path d="M 36 525.24 
L 538.2 525.24 
L 538.2 402.93 
L 36 402.93 
z
" style="fill:none;"/>
   </g>
   <g id="patch_9">
    <path clip-path="url(#pdf0249e192)" d="M 250.384618 519.680455 
L 408.199908 519.680455 
L 408.199908 497.442273 
L 250.384618 497.442273 
z
" style="fill:#ff6384;opacity:0.5;"/>
   </g>
   <g id="patch_10">
    <path clip-path="url(#pdf0249e192)" d="M 175.246364 475.204091 
L 398.953636 475.204091 
L 398.953636 452.965909 
L 175.246364 452.965909 
z
" style="fill:#36a2eb;opacity:0.5;"/>
   </g>
   <g id="patch_11">
    <path clip-path="url(#pdf0249e192)" d="M 174.948629 430.727727 
L 294.078586 430.727727 
L 294.078586 408.489545 
L 174.948629 408.489545 
z
" style="fill:#4bc0c0;opacity:0.5;"/>
   </g>
   <g id="matplotlib.axis_1">
    <g id="xtick_1">
     <g id="line2d_4">
      <defs>
       <path d="M 0 0 
L 0 3.5 
" id="m3c68fe6dad" style="stroke:#000000;stroke-width:0.8;"/>
      </defs>
      <g>
       <use style="stroke:#000000;stroke-width:0.8;" x="65.501016" xlink:href="#m3c68fe6dad" y="525.24"/>
      </g>
     </g>
     <g id="text_4">
      <!-- 8 -->
      <defs>
       <path d="M 31.78125 34.625 
Q 24.75 34.625 20.71875 30.859375 
Q 16.703125 27.09375 16.703125 20.515625 
Q 16.703125 13.921875 20.71875 10.15625 
Q 24.75 6.390625 31.78125 6.390625 
Q 38.8125 6.390625 42.859375 10.171875 
Q 46.921875 13.96875 46.921875 20.515625 
Q 46.921875 27.09375 42.890625 30.859375 
Q 38.875 34.625 31.78125 34.625 
z
M 21.921875 38.8125 
Q 15.578125 40.375 12.03125 44.71875 
Q 8.5 49.078125 8.5 55.328125 
Q 8.5 64.0625 14.71875 69.140625 
Q 20.953125 74.21875 31.78125 74.21875 
Q 42.671875 74.21875 48.875 69.140625 
Q 55.078125 64.0625 55.078125 55.328125 
Q 55.078125 49.078125 51.53125 44.71875 
Q 48 40.375 41.703125 38.8125 
Q 48.828125 37.15625 52.796875 32.3125 
Q 56.78125 27.484375 56.78125 20.515625 
Q 56.78125 9.90625 50.3125 4.234375 
Q 43.84375 -1.421875 31.78125 -1.421875 
Q 19.734375 -1.421875 13.25 4.234375 
Q 6.78125 9.90625 6.78125 20.515625 
Q 6.78125 27.484375 10.78125 32.3125 
Q 14.796875 37.15625 21.921875 38.8125 
z
M 18.3125 54.390625 
Q 18.3125 48.734375 21.84375 45.5625 
Q 25.390625 42.390625 31.78125 42.390625 
Q 38.140625 42.390625 41.71875 45.5625 
Q 45.3125 48.734375 45.3125 54.390625 
Q 45.3125 60.0625 41.71875 63.234375 
Q 38.140625 66.40625 31.78125 66.40625 
Q 25.390625 66.40625 21.84375 63.234375 
Q 18.3125 60.0625 18.3125 54.390625 
z
" id="DejaVuSans-56"/>
      </defs>
      <g transform="translate(61.047266 542.877813)scale(0.14 -0.14)">
       <use xlink:href="#DejaVuSans-56"/>
      </g>
     </g>
    </g>
    <g id="xtick_2">
     <g id="line2d_5">
      <g>
       <use style="stroke:#000000;stroke-width:0.8;" x="157.403135" xlink:href="#m3c68fe6dad" y="525.24"/>
      </g>
     </g>
     <g id="text_5">
      <!-- 10 -->
      <defs>
       <path d="M 12.40625 8.296875 
L 28.515625 8.296875 
L 28.515625 63.921875 
L 10.984375 60.40625 
L 10.984375 69.390625 
L 28.421875 72.90625 
L 38.28125 72.90625 
L 38.28125 8.296875 
L 54.390625 8.296875 
L 54.390625 0 
L 12.40625 0 
z
" id="DejaVuSans-49"/>
       <path d="M 31.78125 66.40625 
Q 24.171875 66.40625 20.328125 58.90625 
Q 16.5 51.421875 16.5 36.375 
Q 16.5 21.390625 20.328125 13.890625 
Q 24.171875 6.390625 31.78125 6.390625 
Q 39.453125 6.390625 43.28125 13.890625 
Q 47.125 21.390625 47.125 36.375 
Q 47.125 51.421875 43.28125 58.90625 
Q 39.453125 66.40625 31.78125 66.40625 
z
M 31.78125 74.21875 
Q 44.046875 74.21875 50.515625 64.515625 
Q 56.984375 54.828125 56.984375 36.375 
Q 56.984375 17.96875 50.515625 8.265625 
Q 44.046875 -1.421875 31.78125 -1.421875 
Q 19.53125 -1.421875 13.0625 8.265625 
Q 6.59375 17.96875 6.59375 36.375 
Q 6.59375 54.828125 13.0625 64.515625 
Q 19.53125 74.21875 31.78125 74.21875 
z
" id="DejaVuSans-48"/>
      </defs>
      <g transform="translate(148.495635 542.877813)scale(0.14 -0.14)">
       <use xlink:href="#DejaVuSans-49"/>
       <use x="63.623047" xlink:href="#DejaVuSans-48"/>
      </g>
     </g>
    </g>
    <g id="xtick_3">
     <g id="line2d_6">
      <g>
       <use style="stroke:#000000;stroke-width:0.8;" x="249.305254" xlink:href="#m3c68fe6dad" y="525.24"/>
      </g>
     </g>
     <g id="text_6">
      <!-- 12 -->
      <defs>
       <path d="M 19.1875 8.296875 
L 53.609375 8.296875 
L 53.609375 0 
L 7.328125 0 
L 7.328125 8.296875 
Q 12.9375 14.109375 22.625 23.890625 
Q 32.328125 33.6875 34.8125 36.53125 
Q 39.546875 41.84375 41.421875 45.53125 
Q 43.3125 49.21875 43.3125 52.78125 
Q 43.3125 58.59375 39.234375 62.25 
Q 35.15625 65.921875 28.609375 65.921875 
Q 23.96875 65.921875 18.8125 64.3125 
Q 13.671875 62.703125 7.8125 59.421875 
L 7.8125 69.390625 
Q 13.765625 71.78125 18.9375 73 
Q 24.125 74.21875 28.421875 74.21875 
Q 39.75 74.21875 46.484375 68.546875 
Q 53.21875 62.890625 53.21875 53.421875 
Q 53.21875 48.921875 51.53125 44.890625 
Q 49.859375 40.875 45.40625 35.40625 
Q 44.1875 33.984375 37.640625 27.21875 
Q 31.109375 20.453125 19.1875 8.296875 
z
" id="DejaVuSans-50"/>
      </defs>
      <g transform="translate(240.397754 542.877813)scale(0.14 -0.14)">
       <use xlink:href="#DejaVuSans-49"/>
       <use x="63.623047" xlink:href="#DejaVuSans-50"/>
      </g>
     </g>
    </g>
    <g id="xtick_4">
     <g id="line2d_7">
      <g>
       <use style="stroke:#000000;stroke-width:0.8;" x="341.207372" xlink:href="#m3c68fe6dad" y="525.24"/>
      </g>
     </g>
     <g id="text_7">
      <!-- 14 -->
      <defs>
       <path d="M 37.796875 64.3125 
L 12.890625 25.390625 
L 37.796875 25.390625 
z
M 35.203125 72.90625 
L 47.609375 72.90625 
L 47.609375 25.390625 
L 58.015625 25.390625 
L 58.015625 17.1875 
L 47.609375 17.1875 
L 47.609375 0 
L 37.796875 0 
L 37.796875 17.1875 
L 4.890625 17.1875 
L 4.890625 26.703125 
z
" id="DejaVuSans-52"/>
      </defs>
      <g transform="translate(332.299872 542.877813)scale(0.14 -0.14)">
       <use xlink:href="#DejaVuSans-49"/>
       <use x="63.623047" xlink:href="#DejaVuSans-52"/>
      </g>
     </g>
    </g>
    <g id="xtick_5">
     <g id="line2d_8">
      <g>
       <use style="stroke:#000000;stroke-width:0.8;" x="433.109491" xlink:href="#m3c68fe6dad" y="525.24"/>
      </g>
     </g>
     <g id="text_8">
      <!-- 16 -->
      <defs>
       <path d="M 33.015625 40.375 
Q 26.375 40.375 22.484375 35.828125 
Q 18.609375 31.296875 18.609375 23.390625 
Q 18.609375 15.53125 22.484375 10.953125 
Q 26.375 6.390625 33.015625 6.390625 
Q 39.65625 6.390625 43.53125 10.953125 
Q 47.40625 15.53125 47.40625 23.390625 
Q 47.40625 31.296875 43.53125 35.828125 
Q 39.65625 40.375 33.015625 40.375 
z
M 52.59375 71.296875 
L 52.59375 62.3125 
Q 48.875 64.0625 45.09375 64.984375 
Q 41.3125 65.921875 37.59375 65.921875 
Q 27.828125 65.921875 22.671875 59.328125 
Q 17.53125 52.734375 16.796875 39.40625 
Q 19.671875 43.65625 24.015625 45.921875 
Q 28.375 48.1875 33.59375 48.1875 
Q 44.578125 48.1875 50.953125 41.515625 
Q 57.328125 34.859375 57.328125 23.390625 
Q 57.328125 12.15625 50.6875 5.359375 
Q 44.046875 -1.421875 33.015625 -1.421875 
Q 20.359375 -1.421875 13.671875 8.265625 
Q 6.984375 17.96875 6.984375 36.375 
Q 6.984375 53.65625 15.1875 63.9375 
Q 23.390625 74.21875 37.203125 74.21875 
Q 40.921875 74.21875 44.703125 73.484375 
Q 48.484375 72.75 52.59375 71.296875 
z
" id="DejaVuSans-54"/>
      </defs>
      <g transform="translate(424.201991 542.877813)scale(0.14 -0.14)">
       <use xlink:href="#DejaVuSans-49"/>
       <use x="63.623047" xlink:href="#DejaVuSans-54"/>
      </g>
     </g>
    </g>
    <g id="xtick_6">
     <g id="line2d_9">
      <g>
       <use style="stroke:#000000;stroke-width:0.8;" x="525.01161" xlink:href="#m3c68fe6dad" y="525.24"/>
      </g>
     </g>
     <g id="text_9">
      <!-- 18 -->
      <g transform="translate(516.10411 542.877813)scale(0.14 -0.14)">
       <use xlink:href="#DejaVuSans-49"/>
       <use x="63.623047" xlink:href="#DejaVuSans-56"/>
      </g>
     </g>
    </g>
   </g>
   <g id="line2d_10">
    <path clip-path="url(#pdf0249e192)" d="M 329.292263 525.24 
L 329.292263 402.93 
" style="fill:none;stroke:#ff6384;stroke-dasharray:5.55,2.4;stroke-dashoffset:0;stroke-opacity:0.8;stroke-width:1.5;"/>
   </g>
   <g id="line2d_11">
    <path clip-path="url(#pdf0249e192)" d="M 287.1 525.24 
L 287.1 402.93 
" style="fill:none;stroke:#36a2eb;stroke-dasharray:5.55,2.4;stroke-dashoffset:0;stroke-opacity:0.8;stroke-width:1.5;"/>
   </g>
   <g id="line2d_12">
    <path clip-path="url(#pdf0249e192)" d="M 234.513608 525.24 
L 234.513608 402.93 
" style="fill:none;stroke:#4bc0c0;stroke-dasharray:5.55,2.4;stroke-dashoffset:0;stroke-opacity:0.8;stroke-width:1.5;"/>
   </g>
   <g id="patch_12">
    <path d="M 36 525.24 
L 538.2 525.24 
" style="fill:none;stroke:#000000;stroke-linecap:square;stroke-linejoin:miter;stroke-width:0.8;"/>
   </g>
  </g>
 </g>
 <defs>
  <clipPath id="pbe5a96ac4e">
   <rect height="366.93" width="502.2" x="36" y="36"/>
  </clipPath>
  <clipPath id="pdf0249e192">
   <rect height="122.31" width="502.2" x="36" y="402.93"/>
  </clipPath>
 </defs>
</svg>
