<?xml version="1.0" encoding="utf-8" standalone="no"?>
<!DOCTYPE svg PUBLIC "-//W3C//DTD SVG 1.1//EN"
  "http://www.w3.org/Graphics/SVG/1.1/DTD/svg11.dtd">
<!-- Created with matplotlib (https://matplotlib.org/) -->
<svg height="581.789375pt" version="1.1" viewBox="0 0 574.2 581.789375" width="574.2pt" xmlns="http://www.w3.org/2000/svg" xmlns:xlink="http://www.w3.org/1999/xlink">
 <defs>
  <style type="text/css">
*{stroke-linecap:butt;stroke-linejoin:round;}
  </style>
 </defs>
 <g id="figure_1">
  <g id="patch_1">
   <path d="M 0 581.789375 
L 574.2 581.789375 
L 574.2 0 
L 0 0 
z
" style="fill:none;"/>
  </g>
  <g id="axes_1">
   <g id="patch_2">
    <path d="M 36 402.93 
L 538.2 402.93 
L 538.2 36 
L 36 36 
z
" style="fill:none;"/>
   </g>
   <g id="PolyCollection_1">
    <defs>
     <path d="M 172.727246 -195.538011 
L 172.727246 -195.622088 
L 176.017693 -195.653791 
L 179.30814 -195.696412 
L 182.598587 -195.753312 
L 185.889034 -195.828747 
L 189.179481 -195.928056 
L 192.469928 -196.057882 
L 195.760375 -196.22641 
L 199.050822 -196.443636 
L 202.341269 -196.721655 
L 205.631716 -197.074955 
L 208.922163 -197.52072 
L 212.21261 -198.079123 
L 215.503057 -198.773596 
L 218.793504 -199.63105 
L 222.083951 -200.682036 
L 225.374398 -201.96081 
L 228.664845 -203.505283 
L 231.955292 -205.356826 
L 235.245739 -207.559896 
L 238.536186 -210.161472 
L 241.826633 -213.21026 
L 245.11708 -216.755675 
L 248.407528 -220.846569 
L 251.697975 -225.529726 
L 254.988422 -230.848138 
L 258.278869 -236.839086 
L 261.569316 -243.532072 
L 264.859763 -250.946681 
L 268.15021 -259.090423 
L 271.440657 -267.956661 
L 274.731104 -277.522727 
L 278.021551 -287.748313 
L 281.311998 -298.574269 
L 284.602445 -309.921882 
L 287.892892 -321.692753 
L 291.183339 -333.769331 
L 294.473786 -346.016148 
L 297.764233 -358.281807 
L 301.05468 -370.401667 
L 304.345127 -382.20123 
L 307.635574 -393.500099 
L 310.926021 -404.116435 
L 314.216468 -413.871732 
L 317.506915 -422.595763 
L 320.797362 -430.131488 
L 324.087809 -436.339745 
L 327.378256 -441.10352 
L 330.668703 -444.331612 
L 333.95915 -445.961537 
L 337.249597 -445.961537 
L 340.540044 -444.331612 
L 343.830492 -441.10352 
L 347.120939 -436.339745 
L 350.411386 -430.131488 
L 353.701833 -422.595763 
L 356.99228 -413.871732 
L 360.282727 -404.116435 
L 363.573174 -393.500099 
L 366.863621 -382.20123 
L 370.154068 -370.401667 
L 373.444515 -358.281807 
L 376.734962 -346.016148 
L 380.025409 -333.769331 
L 383.315856 -321.692753 
L 386.606303 -309.921882 
L 389.89675 -298.574269 
L 393.187197 -287.748313 
L 396.477644 -277.522727 
L 399.768091 -267.956661 
L 403.058538 -259.090423 
L 406.348985 -250.946681 
L 409.639432 -243.532072 
L 412.929879 -236.839086 
L 416.220326 -230.848138 
L 419.510773 -225.529726 
L 422.80122 -220.846569 
L 426.091667 -216.755675 
L 429.382114 -213.21026 
L 432.672561 -210.161472 
L 435.963008 -207.559896 
L 439.253456 -205.356826 
L 442.543903 -203.505283 
L 445.83435 -201.96081 
L 449.124797 -200.682036 
L 452.415244 -199.63105 
L 455.705691 -198.773596 
L 458.996138 -198.079123 
L 462.286585 -197.52072 
L 465.577032 -197.074955 
L 468.867479 -196.721655 
L 472.157926 -196.443636 
L 475.448373 -196.22641 
L 478.73882 -196.057882 
L 482.029267 -195.928056 
L 485.319714 -195.828747 
L 488.610161 -195.753312 
L 491.900608 -195.696412 
L 495.191055 -195.653791 
L 498.481502 -195.622088 
L 498.481502 -195.538011 
L 498.481502 -195.538011 
L 495.191055 -195.538011 
L 491.900608 -195.538011 
L 488.610161 -195.538011 
L 485.319714 -195.538011 
L 482.029267 -195.538011 
L 478.73882 -195.538011 
L 475.448373 -195.538011 
L 472.157926 -195.538011 
L 468.867479 -195.538011 
L 465.577032 -195.538011 
L 462.286585 -195.538011 
L 458.996138 -195.538011 
L 455.705691 -195.538011 
L 452.415244 -195.538011 
L 449.124797 -195.538011 
L 445.83435 -195.538011 
L 442.543903 -195.538011 
L 439.253456 -195.538011 
L 435.963008 -195.538011 
L 432.672561 -195.538011 
L 429.382114 -195.538011 
L 426.091667 -195.538011 
L 422.80122 -195.538011 
L 419.510773 -195.538011 
L 416.220326 -195.538011 
L 412.929879 -195.538011 
L 409.639432 -195.538011 
L 406.348985 -195.538011 
L 403.058538 -195.538011 
L 399.768091 -195.538011 
L 396.477644 -195.538011 
L 393.187197 -195.538011 
L 389.89675 -195.538011 
L 386.606303 -195.538011 
L 383.315856 -195.538011 
L 380.025409 -195.538011 
L 376.734962 -195.538011 
L 373.444515 -195.538011 
L 370.154068 -195.538011 
L 366.863621 -195.538011 
L 363.573174 -195.538011 
L 360.282727 -195.538011 
L 356.99228 -195.538011 
L 353.701833 -195.538011 
L 350.411386 -195.538011 
L 347.120939 -195.538011 
L 343.830492 -195.538011 
L 340.540044 -195.538011 
L 337.249597 -195.538011 
L 333.95915 -195.538011 
L 330.668703 -195.538011 
L 327.378256 -195.538011 
L 324.087809 -195.538011 
L 320.797362 -195.538011 
L 317.506915 -195.538011 
L 314.216468 -195.538011 
L 310.926021 -195.538011 
L 307.635574 -195.538011 
L 304.345127 -195.538011 
L 301.05468 -195.538011 
L 297.764233 -195.538011 
L 294.473786 -195.538011 
L 291.183339 -195.538011 
L 287.892892 -195.538011 
L 284.602445 -195.538011 
L 281.311998 -195.538011 
L 278.021551 -195.538011 
L 274.731104 -195.538011 
L 271.440657 -195.538011 
L 268.15021 -195.538011 
L 264.859763 -195.538011 
L 261.569316 -195.538011 
L 258.278869 -195.538011 
L 254.988422 -195.538011 
L 251.697975 -195.538011 
L 248.407528 -195.538011 
L 245.11708 -195.538011 
L 241.826633 -195.538011 
L 238.536186 -195.538011 
L 235.245739 -195.538011 
L 231.955292 -195.538011 
L 228.664845 -195.538011 
L 225.374398 -195.538011 
L 222.083951 -195.538011 
L 218.793504 -195.538011 
L 215.503057 -195.538011 
L 212.21261 -195.538011 
L 208.922163 -195.538011 
L 205.631716 -195.538011 
L 202.341269 -195.538011 
L 199.050822 -195.538011 
L 195.760375 -195.538011 
L 192.469928 -195.538011 
L 189.179481 -195.538011 
L 185.889034 -195.538011 
L 182.598587 -195.538011 
L 179.30814 -195.538011 
L 176.017693 -195.538011 
L 172.727246 -195.538011 
z
" id="mf83b2e0298" style="stroke:#ff6384;stroke-opacity:0.5;"/>
    </defs>
    <g clip-path="url(#p286615cce9)">
     <use style="fill:#ff6384;fill-opacity:0.5;stroke:#ff6384;stroke-opacity:0.5;" x="0" xlink:href="#mf83b2e0298" y="581.789375"/>
    </g>
   </g>
   <g id="PolyCollection_2">
    <defs>
     <path d="M 58.827273 -195.538011 
L 58.827273 -195.598001 
L 63.438843 -195.620623 
L 68.050413 -195.651034 
L 72.661983 -195.691633 
L 77.273554 -195.745457 
L 81.885124 -195.816316 
L 86.496694 -195.908949 
L 91.108264 -196.029197 
L 95.719835 -196.184193 
L 100.331405 -196.382565 
L 104.942975 -196.634651 
L 109.554545 -196.952713 
L 114.166116 -197.351145 
L 118.777686 -197.846665 
L 123.389256 -198.458476 
L 128.000826 -199.208375 
L 132.612397 -200.120806 
L 137.223967 -201.222818 
L 141.835537 -202.543931 
L 146.447107 -204.115865 
L 151.058678 -205.972141 
L 155.670248 -208.147512 
L 160.281818 -210.677236 
L 164.893388 -213.59617 
L 169.504959 -216.937696 
L 174.116529 -220.732489 
L 178.728099 -225.007149 
L 183.339669 -229.782728 
L 187.95124 -235.073199 
L 192.56281 -240.88392 
L 197.17438 -247.210158 
L 201.78595 -254.035736 
L 206.397521 -261.331895 
L 211.009091 -269.056429 
L 215.620661 -277.153177 
L 220.232231 -285.551927 
L 224.843802 -294.168805 
L 229.455372 -302.907153 
L 234.066942 -311.658944 
L 238.678512 -320.306706 
L 243.290083 -328.725928 
L 247.901653 -336.787895 
L 252.513223 -344.362862 
L 257.124793 -351.323461 
L 261.736364 -357.54823 
L 266.347934 -362.92512 
L 270.959504 -367.354834 
L 275.571074 -370.753883 
L 280.182645 -373.057191 
L 284.794215 -374.220175 
L 289.405785 -374.220175 
L 294.017355 -373.057191 
L 298.628926 -370.753883 
L 303.240496 -367.354834 
L 307.852066 -362.92512 
L 312.463636 -357.54823 
L 317.075207 -351.323461 
L 321.686777 -344.362862 
L 326.298347 -336.787895 
L 330.909917 -328.725928 
L 335.521488 -320.306706 
L 340.133058 -311.658944 
L 344.744628 -302.907153 
L 349.356198 -294.168805 
L 353.967769 -285.551927 
L 358.579339 -277.153177 
L 363.190909 -269.056429 
L 367.802479 -261.331895 
L 372.41405 -254.035736 
L 377.02562 -247.210158 
L 381.63719 -240.88392 
L 386.24876 -235.073199 
L 390.860331 -229.782728 
L 395.471901 -225.007149 
L 400.083471 -220.732489 
L 404.695041 -216.937696 
L 409.306612 -213.59617 
L 413.918182 -210.677236 
L 418.529752 -208.147512 
L 423.141322 -205.972141 
L 427.752893 -204.115865 
L 432.364463 -202.543931 
L 436.976033 -201.222818 
L 441.587603 -200.120806 
L 446.199174 -199.208375 
L 450.810744 -198.458476 
L 455.422314 -197.846665 
L 460.033884 -197.351145 
L 464.645455 -196.952713 
L 469.257025 -196.634651 
L 473.868595 -196.382565 
L 478.480165 -196.184193 
L 483.091736 -196.029197 
L 487.703306 -195.908949 
L 492.314876 -195.816316 
L 496.926446 -195.745457 
L 501.538017 -195.691633 
L 506.149587 -195.651034 
L 510.761157 -195.620623 
L 515.372727 -195.598001 
L 515.372727 -195.538011 
L 515.372727 -195.538011 
L 510.761157 -195.538011 
L 506.149587 -195.538011 
L 501.538017 -195.538011 
L 496.926446 -195.538011 
L 492.314876 -195.538011 
L 487.703306 -195.538011 
L 483.091736 -195.538011 
L 478.480165 -195.538011 
L 473.868595 -195.538011 
L 469.257025 -195.538011 
L 464.645455 -195.538011 
L 460.033884 -195.538011 
L 455.422314 -195.538011 
L 450.810744 -195.538011 
L 446.199174 -195.538011 
L 441.587603 -195.538011 
L 436.976033 -195.538011 
L 432.364463 -195.538011 
L 427.752893 -195.538011 
L 423.141322 -195.538011 
L 418.529752 -195.538011 
L 413.918182 -195.538011 
L 409.306612 -195.538011 
L 404.695041 -195.538011 
L 400.083471 -195.538011 
L 395.471901 -195.538011 
L 390.860331 -195.538011 
L 386.24876 -195.538011 
L 381.63719 -195.538011 
L 377.02562 -195.538011 
L 372.41405 -195.538011 
L 367.802479 -195.538011 
L 363.190909 -195.538011 
L 358.579339 -195.538011 
L 353.967769 -195.538011 
L 349.356198 -195.538011 
L 344.744628 -195.538011 
L 340.133058 -195.538011 
L 335.521488 -195.538011 
L 330.909917 -195.538011 
L 326.298347 -195.538011 
L 321.686777 -195.538011 
L 317.075207 -195.538011 
L 312.463636 -195.538011 
L 307.852066 -195.538011 
L 303.240496 -195.538011 
L 298.628926 -195.538011 
L 294.017355 -195.538011 
L 289.405785 -195.538011 
L 284.794215 -195.538011 
L 280.182645 -195.538011 
L 275.571074 -195.538011 
L 270.959504 -195.538011 
L 266.347934 -195.538011 
L 261.736364 -195.538011 
L 257.124793 -195.538011 
L 252.513223 -195.538011 
L 247.901653 -195.538011 
L 243.290083 -195.538011 
L 238.678512 -195.538011 
L 234.066942 -195.538011 
L 229.455372 -195.538011 
L 224.843802 -195.538011 
L 220.232231 -195.538011 
L 215.620661 -195.538011 
L 211.009091 -195.538011 
L 206.397521 -195.538011 
L 201.78595 -195.538011 
L 197.17438 -195.538011 
L 192.56281 -195.538011 
L 187.95124 -195.538011 
L 183.339669 -195.538011 
L 178.728099 -195.538011 
L 174.116529 -195.538011 
L 169.504959 -195.538011 
L 164.893388 -195.538011 
L 160.281818 -195.538011 
L 155.670248 -195.538011 
L 151.058678 -195.538011 
L 146.447107 -195.538011 
L 141.835537 -195.538011 
L 137.223967 -195.538011 
L 132.612397 -195.538011 
L 128.000826 -195.538011 
L 123.389256 -195.538011 
L 118.777686 -195.538011 
L 114.166116 -195.538011 
L 109.554545 -195.538011 
L 104.942975 -195.538011 
L 100.331405 -195.538011 
L 95.719835 -195.538011 
L 91.108264 -195.538011 
L 86.496694 -195.538011 
L 81.885124 -195.538011 
L 77.273554 -195.538011 
L 72.661983 -195.538011 
L 68.050413 -195.538011 
L 63.438843 -195.538011 
L 58.827273 -195.538011 
z
" id="mafb59ef5e1" style="stroke:#36a2eb;stroke-opacity:0.5;"/>
    </defs>
    <g clip-path="url(#p286615cce9)">
     <use style="fill:#36a2eb;fill-opacity:0.5;stroke:#36a2eb;stroke-opacity:0.5;" x="0" xlink:href="#mafb59ef5e1" y="581.789375"/>
    </g>
   </g>
   <g id="PolyCollection_3">
    <defs>
     <path d="M 116.074413 -195.538011 
L 116.074413 -195.650004 
L 118.544655 -195.692234 
L 121.014897 -195.749007 
L 123.485139 -195.8248 
L 125.955381 -195.925281 
L 128.425623 -196.057565 
L 130.895865 -196.230497 
L 133.366107 -196.454982 
L 135.836349 -196.744335 
L 138.30659 -197.114666 
L 140.776832 -197.585273 
L 143.247074 -198.179047 
L 145.717316 -198.922859 
L 148.187558 -199.847921 
L 150.6578 -200.990079 
L 153.128042 -202.390029 
L 155.598284 -204.093399 
L 158.068526 -206.150691 
L 160.538768 -208.617009 
L 163.00901 -211.551575 
L 165.479252 -215.016962 
L 167.949494 -219.078053 
L 170.419736 -223.800667 
L 172.889978 -229.249878 
L 175.36022 -235.488004 
L 177.830462 -242.572312 
L 180.300704 -250.552459 
L 182.770946 -259.467747 
L 185.241188 -269.344261 
L 187.71143 -280.192004 
L 190.181672 -292.002137 
L 192.651914 -304.744465 
L 195.122156 -318.365297 
L 197.592398 -332.785841 
L 200.062639 -347.901251 
L 202.532881 -363.580456 
L 205.003123 -379.666871 
L 207.473365 -395.980052 
L 209.943607 -412.31833 
L 212.413849 -428.4624 
L 214.884091 -444.179822 
L 217.354333 -459.230303 
L 219.824575 -473.371627 
L 222.294817 -486.366018 
L 224.765059 -497.986726 
L 227.235301 -508.02457 
L 229.705543 -516.294181 
L 232.175785 -522.639693 
L 234.646027 -526.939623 
L 237.116269 -529.110739 
L 239.586511 -529.110739 
L 242.056753 -526.939623 
L 244.526995 -522.639693 
L 246.997237 -516.294181 
L 249.467479 -508.02457 
L 251.937721 -497.986726 
L 254.407963 -486.366018 
L 256.878205 -473.371627 
L 259.348447 -459.230303 
L 261.818688 -444.179822 
L 264.28893 -428.4624 
L 266.759172 -412.31833 
L 269.229414 -395.980052 
L 271.699656 -379.666871 
L 274.169898 -363.580456 
L 276.64014 -347.901251 
L 279.110382 -332.785841 
L 281.580624 -318.365297 
L 284.050866 -304.744465 
L 286.521108 -292.002137 
L 288.99135 -280.192004 
L 291.461592 -269.344261 
L 293.931834 -259.467747 
L 296.402076 -250.552459 
L 298.872318 -242.572312 
L 301.34256 -235.488004 
L 303.812802 -229.249878 
L 306.283044 -223.800667 
L 308.753286 -219.078053 
L 311.223528 -215.016962 
L 313.69377 -211.551575 
L 316.164012 -208.617009 
L 318.634254 -206.150691 
L 321.104496 -204.093399 
L 323.574737 -202.390029 
L 326.044979 -200.990079 
L 328.515221 -199.847921 
L 330.985463 -198.922859 
L 333.455705 -198.179047 
L 335.925947 -197.585273 
L 338.396189 -197.114666 
L 340.866431 -196.744335 
L 343.336673 -196.454982 
L 345.806915 -196.230497 
L 348.277157 -196.057565 
L 350.747399 -195.925281 
L 353.217641 -195.8248 
L 355.687883 -195.749007 
L 358.158125 -195.692234 
L 360.628367 -195.650004 
L 360.628367 -195.538011 
L 360.628367 -195.538011 
L 358.158125 -195.538011 
L 355.687883 -195.538011 
L 353.217641 -195.538011 
L 350.747399 -195.538011 
L 348.277157 -195.538011 
L 345.806915 -195.538011 
L 343.336673 -195.538011 
L 340.866431 -195.538011 
L 338.396189 -195.538011 
L 335.925947 -195.538011 
L 333.455705 -195.538011 
L 330.985463 -195.538011 
L 328.515221 -195.538011 
L 326.044979 -195.538011 
L 323.574737 -195.538011 
L 321.104496 -195.538011 
L 318.634254 -195.538011 
L 316.164012 -195.538011 
L 313.69377 -195.538011 
L 311.223528 -195.538011 
L 308.753286 -195.538011 
L 306.283044 -195.538011 
L 303.812802 -195.538011 
L 301.34256 -195.538011 
L 298.872318 -195.538011 
L 296.402076 -195.538011 
L 293.931834 -195.538011 
L 291.461592 -195.538011 
L 288.99135 -195.538011 
L 286.521108 -195.538011 
L 284.050866 -195.538011 
L 281.580624 -195.538011 
L 279.110382 -195.538011 
L 276.64014 -195.538011 
L 274.169898 -195.538011 
L 271.699656 -195.538011 
L 269.229414 -195.538011 
L 266.759172 -195.538011 
L 264.28893 -195.538011 
L 261.818688 -195.538011 
L 259.348447 -195.538011 
L 256.878205 -195.538011 
L 254.407963 -195.538011 
L 251.937721 -195.538011 
L 249.467479 -195.538011 
L 246.997237 -195.538011 
L 244.526995 -195.538011 
L 242.056753 -195.538011 
L 239.586511 -195.538011 
L 237.116269 -195.538011 
L 234.646027 -195.538011 
L 232.175785 -195.538011 
L 229.705543 -195.538011 
L 227.235301 -195.538011 
L 224.765059 -195.538011 
L 222.294817 -195.538011 
L 219.824575 -195.538011 
L 217.354333 -195.538011 
L 214.884091 -195.538011 
L 212.413849 -195.538011 
L 209.943607 -195.538011 
L 207.473365 -195.538011 
L 205.003123 -195.538011 
L 202.532881 -195.538011 
L 200.062639 -195.538011 
L 197.592398 -195.538011 
L 195.122156 -195.538011 
L 192.651914 -195.538011 
L 190.181672 -195.538011 
L 187.71143 -195.538011 
L 185.241188 -195.538011 
L 182.770946 -195.538011 
L 180.300704 -195.538011 
L 177.830462 -195.538011 
L 175.36022 -195.538011 
L 172.889978 -195.538011 
L 170.419736 -195.538011 
L 167.949494 -195.538011 
L 165.479252 -195.538011 
L 163.00901 -195.538011 
L 160.538768 -195.538011 
L 158.068526 -195.538011 
L 155.598284 -195.538011 
L 153.128042 -195.538011 
L 150.6578 -195.538011 
L 148.187558 -195.538011 
L 145.717316 -195.538011 
L 143.247074 -195.538011 
L 140.776832 -195.538011 
L 138.30659 -195.538011 
L 135.836349 -195.538011 
L 133.366107 -195.538011 
L 130.895865 -195.538011 
L 128.425623 -195.538011 
L 125.955381 -195.538011 
L 123.485139 -195.538011 
L 121.014897 -195.538011 
L 118.544655 -195.538011 
L 116.074413 -195.538011 
z
" id="m5433ef1c0e" style="stroke:#4bc0c0;stroke-opacity:0.5;"/>
    </defs>
    <g clip-path="url(#p286615cce9)">
     <use style="fill:#4bc0c0;fill-opacity:0.5;stroke:#4bc0c0;stroke-opacity:0.5;" x="0" xlink:href="#m5433ef1c0e" y="581.789375"/>
    </g>
   </g>
   <g id="line2d_1">
    <path clip-path="url(#p286615cce9)" d="M 172.727246 386.167287 
L 176.017693 386.135584 
L 179.30814 386.092963 
L 182.598587 386.036063 
L 185.889034 385.960628 
L 189.179481 385.861319 
L 192.469928 385.731493 
L 195.760375 385.562965 
L 199.050822 385.345739 
L 202.341269 385.06772 
L 205.631716 384.71442 
L 208.922163 384.268655 
L 212.21261 383.710252 
L 215.503057 383.015779 
L 218.793504 382.158325 
L 222.083951 381.107339 
L 225.374398 379.828565 
L 228.664845 378.284092 
L 231.955292 376.432549 
L 235.245739 374.229479 
L 238.536186 371.627903 
L 241.826633 368.579115 
L 245.11708 365.0337 
L 248.407528 360.942806 
L 251.697975 356.259649 
L 254.988422 350.941237 
L 258.278869 344.950289 
L 261.569316 338.257303 
L 264.859763 330.842694 
L 268.15021 322.698952 
L 271.440657 313.832714 
L 274.731104 304.266648 
L 278.021551 294.041062 
L 281.311998 283.215106 
L 284.602445 271.867493 
L 287.892892 260.096622 
L 291.183339 248.020044 
L 294.473786 235.773227 
L 297.764233 223.507568 
L 301.05468 211.387708 
L 304.345127 199.588145 
L 307.635574 188.289276 
L 310.926021 177.67294 
L 314.216468 167.917643 
L 317.506915 159.193612 
L 320.797362 151.657887 
L 324.087809 145.44963 
L 327.378256 140.685855 
L 330.668703 137.457763 
L 333.95915 135.827838 
L 337.249597 135.827838 
L 340.540044 137.457763 
L 343.830492 140.685855 
L 347.120939 145.44963 
L 350.411386 151.657887 
L 353.701833 159.193612 
L 356.99228 167.917643 
L 360.282727 177.67294 
L 363.573174 188.289276 
L 366.863621 199.588145 
L 370.154068 211.387708 
L 373.444515 223.507568 
L 376.734962 235.773227 
L 380.025409 248.020044 
L 383.315856 260.096622 
L 386.606303 271.867493 
L 389.89675 283.215106 
L 393.187197 294.041062 
L 396.477644 304.266648 
L 399.768091 313.832714 
L 403.058538 322.698952 
L 406.348985 330.842694 
L 409.639432 338.257303 
L 412.929879 344.950289 
L 416.220326 350.941237 
L 419.510773 356.259649 
L 422.80122 360.942806 
L 426.091667 365.0337 
L 429.382114 368.579115 
L 432.672561 371.627903 
L 435.963008 374.229479 
L 439.253456 376.432549 
L 442.543903 378.284092 
L 445.83435 379.828565 
L 449.124797 381.107339 
L 452.415244 382.158325 
L 455.705691 383.015779 
L 458.996138 383.710252 
L 462.286585 384.268655 
L 465.577032 384.71442 
L 468.867479 385.06772 
L 472.157926 385.345739 
L 475.448373 385.562965 
L 478.73882 385.731493 
L 482.029267 385.861319 
L 485.319714 385.960628 
L 488.610161 386.036063 
L 491.900608 386.092963 
L 495.191055 386.135584 
L 498.481502 386.167287 
" style="fill:none;stroke:#ff6384;stroke-linecap:square;"/>
   </g>
   <g id="line2d_2">
    <path clip-path="url(#p286615cce9)" d="M 58.827273 386.191374 
L 63.438843 386.168752 
L 68.050413 386.138341 
L 72.661983 386.097742 
L 77.273554 386.043918 
L 81.885124 385.973059 
L 86.496694 385.880426 
L 91.108264 385.760178 
L 95.719835 385.605182 
L 100.331405 385.40681 
L 104.942975 385.154724 
L 109.554545 384.836662 
L 114.166116 384.43823 
L 118.777686 383.94271 
L 123.389256 383.330899 
L 128.000826 382.581 
L 132.612397 381.668569 
L 137.223967 380.566557 
L 141.835537 379.245444 
L 146.447107 377.67351 
L 151.058678 375.817234 
L 155.670248 373.641863 
L 160.281818 371.112139 
L 164.893388 368.193205 
L 169.504959 364.851679 
L 174.116529 361.056886 
L 178.728099 356.782226 
L 183.339669 352.006647 
L 187.95124 346.716176 
L 192.56281 340.905455 
L 197.17438 334.579217 
L 201.78595 327.753639 
L 206.397521 320.45748 
L 211.009091 312.732946 
L 215.620661 304.636198 
L 220.232231 296.237448 
L 224.843802 287.62057 
L 229.455372 278.882222 
L 234.066942 270.130431 
L 238.678512 261.482669 
L 243.290083 253.063447 
L 247.901653 245.00148 
L 252.513223 237.426513 
L 257.124793 230.465914 
L 261.736364 224.241145 
L 266.347934 218.864255 
L 270.959504 214.434541 
L 275.571074 211.035492 
L 280.182645 208.732184 
L 284.794215 207.5692 
L 289.405785 207.5692 
L 294.017355 208.732184 
L 298.628926 211.035492 
L 303.240496 214.434541 
L 307.852066 218.864255 
L 312.463636 224.241145 
L 317.075207 230.465914 
L 321.686777 237.426513 
L 326.298347 245.00148 
L 330.909917 253.063447 
L 335.521488 261.482669 
L 340.133058 270.130431 
L 344.744628 278.882222 
L 349.356198 287.62057 
L 353.967769 296.237448 
L 358.579339 304.636198 
L 363.190909 312.732946 
L 367.802479 320.45748 
L 372.41405 327.753639 
L 377.02562 334.579217 
L 381.63719 340.905455 
L 386.24876 346.716176 
L 390.860331 352.006647 
L 395.471901 356.782226 
L 400.083471 361.056886 
L 404.695041 364.851679 
L 409.306612 368.193205 
L 413.918182 371.112139 
L 418.529752 373.641863 
L 423.141322 375.817234 
L 427.752893 377.67351 
L 432.364463 379.245444 
L 436.976033 380.566557 
L 441.587603 381.668569 
L 446.199174 382.581 
L 450.810744 383.330899 
L 455.422314 383.94271 
L 460.033884 384.43823 
L 464.645455 384.836662 
L 469.257025 385.154724 
L 473.868595 385.40681 
L 478.480165 385.605182 
L 483.091736 385.760178 
L 487.703306 385.880426 
L 492.314876 385.973059 
L 496.926446 386.043918 
L 501.538017 386.097742 
L 506.149587 386.138341 
L 510.761157 386.168752 
L 515.372727 386.191374 
" style="fill:none;stroke:#36a2eb;stroke-linecap:square;"/>
   </g>
   <g id="line2d_3">
    <path clip-path="url(#p286615cce9)" d="M 116.074413 386.139371 
L 118.544655 386.097141 
L 121.014897 386.040368 
L 123.485139 385.964575 
L 125.955381 385.864094 
L 128.425623 385.73181 
L 130.895865 385.558878 
L 133.366107 385.334393 
L 135.836349 385.04504 
L 138.30659 384.674709 
L 140.776832 384.204102 
L 143.247074 383.610328 
L 145.717316 382.866516 
L 148.187558 381.941454 
L 150.6578 380.799296 
L 153.128042 379.399346 
L 155.598284 377.695976 
L 158.068526 375.638684 
L 160.538768 373.172366 
L 163.00901 370.2378 
L 165.479252 366.772413 
L 167.949494 362.711322 
L 170.419736 357.988708 
L 172.889978 352.539497 
L 175.36022 346.301371 
L 177.830462 339.217063 
L 180.300704 331.236916 
L 182.770946 322.321628 
L 185.241188 312.445114 
L 187.71143 301.597371 
L 190.181672 289.787238 
L 192.651914 277.04491 
L 195.122156 263.424078 
L 197.592398 249.003534 
L 200.062639 233.888124 
L 202.532881 218.208919 
L 205.003123 202.122504 
L 207.473365 185.809323 
L 209.943607 169.471045 
L 212.413849 153.326975 
L 214.884091 137.609553 
L 217.354333 122.559072 
L 219.824575 108.417748 
L 222.294817 95.423357 
L 224.765059 83.802649 
L 227.235301 73.764805 
L 229.705543 65.495194 
L 232.175785 59.149682 
L 234.646027 54.849752 
L 237.116269 52.678636 
L 239.586511 52.678636 
L 242.056753 54.849752 
L 244.526995 59.149682 
L 246.997237 65.495194 
L 249.467479 73.764805 
L 251.937721 83.802649 
L 254.407963 95.423357 
L 256.878205 108.417748 
L 259.348447 122.559072 
L 261.818688 137.609553 
L 264.28893 153.326975 
L 266.759172 169.471045 
L 269.229414 185.809323 
L 271.699656 202.122504 
L 274.169898 218.208919 
L 276.64014 233.888124 
L 279.110382 249.003534 
L 281.580624 263.424078 
L 284.050866 277.04491 
L 286.521108 289.787238 
L 288.99135 301.597371 
L 291.461592 312.445114 
L 293.931834 322.321628 
L 296.402076 331.236916 
L 298.872318 339.217063 
L 301.34256 346.301371 
L 303.812802 352.539497 
L 306.283044 357.988708 
L 308.753286 362.711322 
L 311.223528 366.772413 
L 313.69377 370.2378 
L 316.164012 373.172366 
L 318.634254 375.638684 
L 321.104496 377.695976 
L 323.574737 379.399346 
L 326.044979 380.799296 
L 328.515221 381.941454 
L 330.985463 382.866516 
L 333.455705 383.610328 
L 335.925947 384.204102 
L 338.396189 384.674709 
L 340.866431 385.04504 
L 343.336673 385.334393 
L 345.806915 385.558878 
L 348.277157 385.73181 
L 350.747399 385.864094 
L 353.217641 385.964575 
L 355.687883 386.040368 
L 358.158125 386.097141 
L 360.628367 386.139371 
" style="fill:none;stroke:#4bc0c0;stroke-linecap:square;"/>
   </g>
   <g id="patch_3">
    <path d="M 36 402.93 
L 538.2 402.93 
" style="fill:none;stroke:#000000;stroke-linecap:square;stroke-linejoin:miter;stroke-width:0.8;"/>
   </g>
   <g id="legend_1">
    <g id="patch_4">
     <path d="M 401.81375 109.626875 
L 528.4 109.626875 
Q 531.2 109.626875 531.2 106.826875 
L 531.2 45.8 
Q 531.2 43 528.4 43 
L 401.81375 43 
Q 399.01375 43 399.01375 45.8 
L 399.01375 106.826875 
Q 399.01375 109.626875 401.81375 109.626875 
z
" style="fill:#ffffff;opacity:0.8;stroke:#cccccc;stroke-linejoin:miter;"/>
    </g>
    <g id="patch_5">
     <path d="M 404.61375 59.237813 
L 432.61375 59.237813 
L 432.61375 49.437813 
L 404.61375 49.437813 
z
" style="fill:#ff6384;opacity:0.5;stroke:#ff6384;stroke-linejoin:miter;"/>
    </g>
    <g id="text_1">
     <!-- base -->
     <defs>
      <path d="M 48.6875 27.296875 
Q 48.6875 37.203125 44.609375 42.84375 
Q 40.53125 48.484375 33.40625 48.484375 
Q 26.265625 48.484375 22.1875 42.84375 
Q 18.109375 37.203125 18.109375 27.296875 
Q 18.109375 17.390625 22.1875 11.75 
Q 26.265625 6.109375 33.40625 6.109375 
Q 40.53125 6.109375 44.609375 11.75 
Q 48.6875 17.390625 48.6875 27.296875 
z
M 18.109375 46.390625 
Q 20.953125 51.265625 25.265625 53.625 
Q 29.59375 56 35.59375 56 
Q 45.5625 56 51.78125 48.09375 
Q 58.015625 40.1875 58.015625 27.296875 
Q 58.015625 14.40625 51.78125 6.484375 
Q 45.5625 -1.421875 35.59375 -1.421875 
Q 29.59375 -1.421875 25.265625 0.953125 
Q 20.953125 3.328125 18.109375 8.203125 
L 18.109375 0 
L 9.078125 0 
L 9.078125 75.984375 
L 18.109375 75.984375 
z
" id="DejaVuSans-98"/>
      <path d="M 34.28125 27.484375 
Q 23.390625 27.484375 19.1875 25 
Q 14.984375 22.515625 14.984375 16.5 
Q 14.984375 11.71875 18.140625 8.90625 
Q 21.296875 6.109375 26.703125 6.109375 
Q 34.1875 6.109375 38.703125 11.40625 
Q 43.21875 16.703125 43.21875 25.484375 
L 43.21875 27.484375 
z
M 52.203125 31.203125 
L 52.203125 0 
L 43.21875 0 
L 43.21875 8.296875 
Q 40.140625 3.328125 35.546875 0.953125 
Q 30.953125 -1.421875 24.3125 -1.421875 
Q 15.921875 -1.421875 10.953125 3.296875 
Q 6 8.015625 6 15.921875 
Q 6 25.140625 12.171875 29.828125 
Q 18.359375 34.515625 30.609375 34.515625 
L 43.21875 34.515625 
L 43.21875 35.40625 
Q 43.21875 41.609375 39.140625 45 
Q 35.0625 48.390625 27.6875 48.390625 
Q 23 48.390625 18.546875 47.265625 
Q 14.109375 46.140625 10.015625 43.890625 
L 10.015625 52.203125 
Q 14.9375 54.109375 19.578125 55.046875 
Q 24.21875 56 28.609375 56 
Q 40.484375 56 46.34375 49.84375 
Q 52.203125 43.703125 52.203125 31.203125 
z
" id="DejaVuSans-97"/>
      <path d="M 44.28125 53.078125 
L 44.28125 44.578125 
Q 40.484375 46.53125 36.375 47.5 
Q 32.28125 48.484375 27.875 48.484375 
Q 21.1875 48.484375 17.84375 46.4375 
Q 14.5 44.390625 14.5 40.28125 
Q 14.5 37.15625 16.890625 35.375 
Q 19.28125 33.59375 26.515625 31.984375 
L 29.59375 31.296875 
Q 39.15625 29.25 43.1875 25.515625 
Q 47.21875 21.78125 47.21875 15.09375 
Q 47.21875 7.46875 41.1875 3.015625 
Q 35.15625 -1.421875 24.609375 -1.421875 
Q 20.21875 -1.421875 15.453125 -0.5625 
Q 10.6875 0.296875 5.421875 2 
L 5.421875 11.28125 
Q 10.40625 8.6875 15.234375 7.390625 
Q 20.0625 6.109375 24.8125 6.109375 
Q 31.15625 6.109375 34.5625 8.28125 
Q 37.984375 10.453125 37.984375 14.40625 
Q 37.984375 18.0625 35.515625 20.015625 
Q 33.0625 21.96875 24.703125 23.78125 
L 21.578125 24.515625 
Q 13.234375 26.265625 9.515625 29.90625 
Q 5.8125 33.546875 5.8125 39.890625 
Q 5.8125 47.609375 11.28125 51.796875 
Q 16.75 56 26.8125 56 
Q 31.78125 56 36.171875 55.265625 
Q 40.578125 54.546875 44.28125 53.078125 
z
" id="DejaVuSans-115"/>
      <path d="M 56.203125 29.59375 
L 56.203125 25.203125 
L 14.890625 25.203125 
Q 15.484375 15.921875 20.484375 11.0625 
Q 25.484375 6.203125 34.421875 6.203125 
Q 39.59375 6.203125 44.453125 7.46875 
Q 49.3125 8.734375 54.109375 11.28125 
L 54.109375 2.78125 
Q 49.265625 0.734375 44.1875 -0.34375 
Q 39.109375 -1.421875 33.890625 -1.421875 
Q 20.796875 -1.421875 13.15625 6.1875 
Q 5.515625 13.8125 5.515625 26.8125 
Q 5.515625 40.234375 12.765625 48.109375 
Q 20.015625 56 32.328125 56 
Q 43.359375 56 49.78125 48.890625 
Q 56.203125 41.796875 56.203125 29.59375 
z
M 47.21875 32.234375 
Q 47.125 39.59375 43.09375 43.984375 
Q 39.0625 48.390625 32.421875 48.390625 
Q 24.90625 48.390625 20.390625 44.140625 
Q 15.875 39.890625 15.1875 32.171875 
z
" id="DejaVuSans-101"/>
     </defs>
     <g transform="translate(443.81375 59.237813)scale(0.14 -0.14)">
      <use xlink:href="#DejaVuSans-98"/>
      <use x="63.476562" xlink:href="#DejaVuSans-97"/>
      <use x="124.755859" xlink:href="#DejaVuSans-115"/>
      <use x="176.855469" xlink:href="#DejaVuSans-101"/>
     </g>
    </g>
    <g id="patch_6">
     <path d="M 404.61375 79.787188 
L 432.61375 79.787188 
L 432.61375 69.987188 
L 404.61375 69.987188 
z
" style="fill:#36a2eb;opacity:0.5;stroke:#36a2eb;stroke-linejoin:miter;"/>
    </g>
    <g id="text_2">
     <!-- osago_mid -->
     <defs>
      <path d="M 30.609375 48.390625 
Q 23.390625 48.390625 19.1875 42.75 
Q 14.984375 37.109375 14.984375 27.296875 
Q 14.984375 17.484375 19.15625 11.84375 
Q 23.34375 6.203125 30.609375 6.203125 
Q 37.796875 6.203125 41.984375 11.859375 
Q 46.1875 17.53125 46.1875 27.296875 
Q 46.1875 37.015625 41.984375 42.703125 
Q 37.796875 48.390625 30.609375 48.390625 
z
M 30.609375 56 
Q 42.328125 56 49.015625 48.375 
Q 55.71875 40.765625 55.71875 27.296875 
Q 55.71875 13.875 49.015625 6.21875 
Q 42.328125 -1.421875 30.609375 -1.421875 
Q 18.84375 -1.421875 12.171875 6.21875 
Q 5.515625 13.875 5.515625 27.296875 
Q 5.515625 40.765625 12.171875 48.375 
Q 18.84375 56 30.609375 56 
z
" id="DejaVuSans-111"/>
      <path d="M 45.40625 27.984375 
Q 45.40625 37.75 41.375 43.109375 
Q 37.359375 48.484375 30.078125 48.484375 
Q 22.859375 48.484375 18.828125 43.109375 
Q 14.796875 37.75 14.796875 27.984375 
Q 14.796875 18.265625 18.828125 12.890625 
Q 22.859375 7.515625 30.078125 7.515625 
Q 37.359375 7.515625 41.375 12.890625 
Q 45.40625 18.265625 45.40625 27.984375 
z
M 54.390625 6.78125 
Q 54.390625 -7.171875 48.1875 -13.984375 
Q 42 -20.796875 29.203125 -20.796875 
Q 24.46875 -20.796875 20.265625 -20.09375 
Q 16.0625 -19.390625 12.109375 -17.921875 
L 12.109375 -9.1875 
Q 16.0625 -11.328125 19.921875 -12.34375 
Q 23.78125 -13.375 27.78125 -13.375 
Q 36.625 -13.375 41.015625 -8.765625 
Q 45.40625 -4.15625 45.40625 5.171875 
L 45.40625 9.625 
Q 42.625 4.78125 38.28125 2.390625 
Q 33.9375 0 27.875 0 
Q 17.828125 0 11.671875 7.65625 
Q 5.515625 15.328125 5.515625 27.984375 
Q 5.515625 40.671875 11.671875 48.328125 
Q 17.828125 56 27.875 56 
Q 33.9375 56 38.28125 53.609375 
Q 42.625 51.21875 45.40625 46.390625 
L 45.40625 54.6875 
L 54.390625 54.6875 
z
" id="DejaVuSans-103"/>
      <path d="M 50.984375 -16.609375 
L 50.984375 -23.578125 
L -0.984375 -23.578125 
L -0.984375 -16.609375 
z
" id="DejaVuSans-95"/>
      <path d="M 52 44.1875 
Q 55.375 50.25 60.0625 53.125 
Q 64.75 56 71.09375 56 
Q 79.640625 56 84.28125 50.015625 
Q 88.921875 44.046875 88.921875 33.015625 
L 88.921875 0 
L 79.890625 0 
L 79.890625 32.71875 
Q 79.890625 40.578125 77.09375 44.375 
Q 74.3125 48.1875 68.609375 48.1875 
Q 61.625 48.1875 57.5625 43.546875 
Q 53.515625 38.921875 53.515625 30.90625 
L 53.515625 0 
L 44.484375 0 
L 44.484375 32.71875 
Q 44.484375 40.625 41.703125 44.40625 
Q 38.921875 48.1875 33.109375 48.1875 
Q 26.21875 48.1875 22.15625 43.53125 
Q 18.109375 38.875 18.109375 30.90625 
L 18.109375 0 
L 9.078125 0 
L 9.078125 54.6875 
L 18.109375 54.6875 
L 18.109375 46.1875 
Q 21.1875 51.21875 25.484375 53.609375 
Q 29.78125 56 35.6875 56 
Q 41.65625 56 45.828125 52.96875 
Q 50 49.953125 52 44.1875 
z
" id="DejaVuSans-109"/>
      <path d="M 9.421875 54.6875 
L 18.40625 54.6875 
L 18.40625 0 
L 9.421875 0 
z
M 9.421875 75.984375 
L 18.40625 75.984375 
L 18.40625 64.59375 
L 9.421875 64.59375 
z
" id="DejaVuSans-105"/>
      <path d="M 45.40625 46.390625 
L 45.40625 75.984375 
L 54.390625 75.984375 
L 54.390625 0 
L 45.40625 0 
L 45.40625 8.203125 
Q 42.578125 3.328125 38.25 0.953125 
Q 33.9375 -1.421875 27.875 -1.421875 
Q 17.96875 -1.421875 11.734375 6.484375 
Q 5.515625 14.40625 5.515625 27.296875 
Q 5.515625 40.1875 11.734375 48.09375 
Q 17.96875 56 27.875 56 
Q 33.9375 56 38.25 53.625 
Q 42.578125 51.265625 45.40625 46.390625 
z
M 14.796875 27.296875 
Q 14.796875 17.390625 18.875 11.75 
Q 22.953125 6.109375 30.078125 6.109375 
Q 37.203125 6.109375 41.296875 11.75 
Q 45.40625 17.390625 45.40625 27.296875 
Q 45.40625 37.203125 41.296875 42.84375 
Q 37.203125 48.484375 30.078125 48.484375 
Q 22.953125 48.484375 18.875 42.84375 
Q 14.796875 37.203125 14.796875 27.296875 
z
" id="DejaVuSans-100"/>
     </defs>
     <g transform="translate(443.81375 79.787188)scale(0.14 -0.14)">
      <use xlink:href="#DejaVuSans-111"/>
      <use x="61.181641" xlink:href="#DejaVuSans-115"/>
      <use x="113.28125" xlink:href="#DejaVuSans-97"/>
      <use x="174.560547" xlink:href="#DejaVuSans-103"/>
      <use x="238.037109" xlink:href="#DejaVuSans-111"/>
      <use x="299.21875" xlink:href="#DejaVuSans-95"/>
      <use x="349.21875" xlink:href="#DejaVuSans-109"/>
      <use x="446.630859" xlink:href="#DejaVuSans-105"/>
      <use x="474.414062" xlink:href="#DejaVuSans-100"/>
     </g>
    </g>
    <g id="patch_7">
     <path d="M 404.61375 100.725937 
L 432.61375 100.725937 
L 432.61375 90.925937 
L 404.61375 90.925937 
z
" style="fill:#4bc0c0;opacity:0.5;stroke:#4bc0c0;stroke-linejoin:miter;"/>
    </g>
    <g id="text_3">
     <!-- osago_right -->
     <defs>
      <path d="M 41.109375 46.296875 
Q 39.59375 47.171875 37.8125 47.578125 
Q 36.03125 48 33.890625 48 
Q 26.265625 48 22.1875 43.046875 
Q 18.109375 38.09375 18.109375 28.8125 
L 18.109375 0 
L 9.078125 0 
L 9.078125 54.6875 
L 18.109375 54.6875 
L 18.109375 46.1875 
Q 20.953125 51.171875 25.484375 53.578125 
Q 30.03125 56 36.53125 56 
Q 37.453125 56 38.578125 55.875 
Q 39.703125 55.765625 41.0625 55.515625 
z
" id="DejaVuSans-114"/>
      <path d="M 54.890625 33.015625 
L 54.890625 0 
L 45.90625 0 
L 45.90625 32.71875 
Q 45.90625 40.484375 42.875 44.328125 
Q 39.84375 48.1875 33.796875 48.1875 
Q 26.515625 48.1875 22.3125 43.546875 
Q 18.109375 38.921875 18.109375 30.90625 
L 18.109375 0 
L 9.078125 0 
L 9.078125 75.984375 
L 18.109375 75.984375 
L 18.109375 46.1875 
Q 21.34375 51.125 25.703125 53.5625 
Q 30.078125 56 35.796875 56 
Q 45.21875 56 50.046875 50.171875 
Q 54.890625 44.34375 54.890625 33.015625 
z
" id="DejaVuSans-104"/>
      <path d="M 18.3125 70.21875 
L 18.3125 54.6875 
L 36.8125 54.6875 
L 36.8125 47.703125 
L 18.3125 47.703125 
L 18.3125 18.015625 
Q 18.3125 11.328125 20.140625 9.421875 
Q 21.96875 7.515625 27.59375 7.515625 
L 36.8125 7.515625 
L 36.8125 0 
L 27.59375 0 
Q 17.1875 0 13.234375 3.875 
Q 9.28125 7.765625 9.28125 18.015625 
L 9.28125 47.703125 
L 2.6875 47.703125 
L 2.6875 54.6875 
L 9.28125 54.6875 
L 9.28125 70.21875 
z
" id="DejaVuSans-116"/>
     </defs>
     <g transform="translate(443.81375 100.725937)scale(0.14 -0.14)">
      <use xlink:href="#DejaVuSans-111"/>
      <use x="61.181641" xlink:href="#DejaVuSans-115"/>
      <use x="113.28125" xlink:href="#DejaVuSans-97"/>
      <use x="174.560547" xlink:href="#DejaVuSans-103"/>
      <use x="238.037109" xlink:href="#DejaVuSans-111"/>
      <use x="299.21875" xlink:href="#DejaVuSans-95"/>
      <use x="349.21875" xlink:href="#DejaVuSans-114"/>
      <use x="390.332031" xlink:href="#DejaVuSans-105"/>
      <use x="418.115234" xlink:href="#DejaVuSans-103"/>
      <use x="481.591797" xlink:href="#DejaVuSans-104"/>
      <use x="544.970703" xlink:href="#DejaVuSans-116"/>
     </g>
    </g>
   </g>
  </g>
  <g id="axes_2">
   <g id="patch_8">
    <path d="M 36 525.24 
L 538.2 525.24 
L 538.2 402.93 
L 36 402.93 
z
" style="fill:none;"/>
   </g>
   <g id="patch_9">
    <path clip-path="url(#pa0ff2c11ac)" d="M 255.794581 519.680455 
L 415.414167 519.680455 
L 415.414167 497.442273 
L 255.794581 497.442273 
z
" style="fill:#ff6384;opacity:0.5;"/>
   </g>
   <g id="patch_10">
    <path clip-path="url(#pa0ff2c11ac)" d="M 175.246364 475.204091 
L 398.953636 475.204091 
L 398.953636 452.965909 
L 175.246364 452.965909 
z
" style="fill:#36a2eb;opacity:0.5;"/>
   </g>
   <g id="patch_11">
    <path clip-path="url(#pa0ff2c11ac)" d="M 178.435671 430.727727 
L 298.267109 430.727727 
L 298.267109 408.489545 
L 178.435671 408.489545 
z
" style="fill:#4bc0c0;opacity:0.5;"/>
   </g>
   <g id="matplotlib.axis_1">
    <g id="xtick_1">
     <g id="line2d_4">
      <defs>
       <path d="M 0 0 
L 0 3.5 
" id="mdf2b73c04f" style="stroke:#000000;stroke-width:0.8;"/>
      </defs>
      <g>
       <use style="stroke:#000000;stroke-width:0.8;" x="69.10978" xlink:href="#mdf2b73c04f" y="525.24"/>
      </g>
     </g>
     <g id="text_4">
      <!-- 8 -->
      <defs>
       <path d="M 31.78125 34.625 
Q 24.75 34.625 20.71875 30.859375 
Q 16.703125 27.09375 16.703125 20.515625 
Q 16.703125 13.921875 20.71875 10.15625 
Q 24.75 6.390625 31.78125 6.390625 
Q 38.8125 6.390625 42.859375 10.171875 
Q 46.921875 13.96875 46.921875 20.515625 
Q 46.921875 27.09375 42.890625 30.859375 
Q 38.875 34.625 31.78125 34.625 
z
M 21.921875 38.8125 
Q 15.578125 40.375 12.03125 44.71875 
Q 8.5 49.078125 8.5 55.328125 
Q 8.5 64.0625 14.71875 69.140625 
Q 20.953125 74.21875 31.78125 74.21875 
Q 42.671875 74.21875 48.875 69.140625 
Q 55.078125 64.0625 55.078125 55.328125 
Q 55.078125 49.078125 51.53125 44.71875 
Q 48 40.375 41.703125 38.8125 
Q 48.828125 37.15625 52.796875 32.3125 
Q 56.78125 27.484375 56.78125 20.515625 
Q 56.78125 9.90625 50.3125 4.234375 
Q 43.84375 -1.421875 31.78125 -1.421875 
Q 19.734375 -1.421875 13.25 4.234375 
Q 6.78125 9.90625 6.78125 20.515625 
Q 6.78125 27.484375 10.78125 32.3125 
Q 14.796875 37.15625 21.921875 38.8125 
z
M 18.3125 54.390625 
Q 18.3125 48.734375 21.84375 45.5625 
Q 25.390625 42.390625 31.78125 42.390625 
Q 38.140625 42.390625 41.71875 45.5625 
Q 45.3125 48.734375 45.3125 54.390625 
Q 45.3125 60.0625 41.71875 63.234375 
Q 38.140625 66.40625 31.78125 66.40625 
Q 25.390625 66.40625 21.84375 63.234375 
Q 18.3125 60.0625 18.3125 54.390625 
z
" id="DejaVuSans-56"/>
      </defs>
      <g transform="translate(64.65603 542.877813)scale(0.14 -0.14)">
       <use xlink:href="#DejaVuSans-56"/>
      </g>
     </g>
    </g>
    <g id="xtick_2">
     <g id="line2d_5">
      <g>
       <use style="stroke:#000000;stroke-width:0.8;" x="163.046788" xlink:href="#mdf2b73c04f" y="525.24"/>
      </g>
     </g>
     <g id="text_5">
      <!-- 10 -->
      <defs>
       <path d="M 12.40625 8.296875 
L 28.515625 8.296875 
L 28.515625 63.921875 
L 10.984375 60.40625 
L 10.984375 69.390625 
L 28.421875 72.90625 
L 38.28125 72.90625 
L 38.28125 8.296875 
L 54.390625 8.296875 
L 54.390625 0 
L 12.40625 0 
z
" id="DejaVuSans-49"/>
       <path d="M 31.78125 66.40625 
Q 24.171875 66.40625 20.328125 58.90625 
Q 16.5 51.421875 16.5 36.375 
Q 16.5 21.390625 20.328125 13.890625 
Q 24.171875 6.390625 31.78125 6.390625 
Q 39.453125 6.390625 43.28125 13.890625 
Q 47.125 21.390625 47.125 36.375 
Q 47.125 51.421875 43.28125 58.90625 
Q 39.453125 66.40625 31.78125 66.40625 
z
M 31.78125 74.21875 
Q 44.046875 74.21875 50.515625 64.515625 
Q 56.984375 54.828125 56.984375 36.375 
Q 56.984375 17.96875 50.515625 8.265625 
Q 44.046875 -1.421875 31.78125 -1.421875 
Q 19.53125 -1.421875 13.0625 8.265625 
Q 6.59375 17.96875 6.59375 36.375 
Q 6.59375 54.828125 13.0625 64.515625 
Q 19.53125 74.21875 31.78125 74.21875 
z
" id="DejaVuSans-48"/>
      </defs>
      <g transform="translate(154.139288 542.877813)scale(0.14 -0.14)">
       <use xlink:href="#DejaVuSans-49"/>
       <use x="63.623047" xlink:href="#DejaVuSans-48"/>
      </g>
     </g>
    </g>
    <g id="xtick_3">
     <g id="line2d_6">
      <g>
       <use style="stroke:#000000;stroke-width:0.8;" x="256.983795" xlink:href="#mdf2b73c04f" y="525.24"/>
      </g>
     </g>
     <g id="text_6">
      <!-- 12 -->
      <defs>
       <path d="M 19.1875 8.296875 
L 53.609375 8.296875 
L 53.609375 0 
L 7.328125 0 
L 7.328125 8.296875 
Q 12.9375 14.109375 22.625 23.890625 
Q 32.328125 33.6875 34.8125 36.53125 
Q 39.546875 41.84375 41.421875 45.53125 
Q 43.3125 49.21875 43.3125 52.78125 
Q 43.3125 58.59375 39.234375 62.25 
Q 35.15625 65.921875 28.609375 65.921875 
Q 23.96875 65.921875 18.8125 64.3125 
Q 13.671875 62.703125 7.8125 59.421875 
L 7.8125 69.390625 
Q 13.765625 71.78125 18.9375 73 
Q 24.125 74.21875 28.421875 74.21875 
Q 39.75 74.21875 46.484375 68.546875 
Q 53.21875 62.890625 53.21875 53.421875 
Q 53.21875 48.921875 51.53125 44.890625 
Q 49.859375 40.875 45.40625 35.40625 
Q 44.1875 33.984375 37.640625 27.21875 
Q 31.109375 20.453125 19.1875 8.296875 
z
" id="DejaVuSans-50"/>
      </defs>
      <g transform="translate(248.076295 542.877813)scale(0.14 -0.14)">
       <use xlink:href="#DejaVuSans-49"/>
       <use x="63.623047" xlink:href="#DejaVuSans-50"/>
      </g>
     </g>
    </g>
    <g id="xtick_4">
     <g id="line2d_7">
      <g>
       <use style="stroke:#000000;stroke-width:0.8;" x="350.920803" xlink:href="#mdf2b73c04f" y="525.24"/>
      </g>
     </g>
     <g id="text_7">
      <!-- 14 -->
      <defs>
       <path d="M 37.796875 64.3125 
L 12.890625 25.390625 
L 37.796875 25.390625 
z
M 35.203125 72.90625 
L 47.609375 72.90625 
L 47.609375 25.390625 
L 58.015625 25.390625 
L 58.015625 17.1875 
L 47.609375 17.1875 
L 47.609375 0 
L 37.796875 0 
L 37.796875 17.1875 
L 4.890625 17.1875 
L 4.890625 26.703125 
z
" id="DejaVuSans-52"/>
      </defs>
      <g transform="translate(342.013303 542.877813)scale(0.14 -0.14)">
       <use xlink:href="#DejaVuSans-49"/>
       <use x="63.623047" xlink:href="#DejaVuSans-52"/>
      </g>
     </g>
    </g>
    <g id="xtick_5">
     <g id="line2d_8">
      <g>
       <use style="stroke:#000000;stroke-width:0.8;" x="444.857811" xlink:href="#mdf2b73c04f" y="525.24"/>
      </g>
     </g>
     <g id="text_8">
      <!-- 16 -->
      <defs>
       <path d="M 33.015625 40.375 
Q 26.375 40.375 22.484375 35.828125 
Q 18.609375 31.296875 18.609375 23.390625 
Q 18.609375 15.53125 22.484375 10.953125 
Q 26.375 6.390625 33.015625 6.390625 
Q 39.65625 6.390625 43.53125 10.953125 
Q 47.40625 15.53125 47.40625 23.390625 
Q 47.40625 31.296875 43.53125 35.828125 
Q 39.65625 40.375 33.015625 40.375 
z
M 52.59375 71.296875 
L 52.59375 62.3125 
Q 48.875 64.0625 45.09375 64.984375 
Q 41.3125 65.921875 37.59375 65.921875 
Q 27.828125 65.921875 22.671875 59.328125 
Q 17.53125 52.734375 16.796875 39.40625 
Q 19.671875 43.65625 24.015625 45.921875 
Q 28.375 48.1875 33.59375 48.1875 
Q 44.578125 48.1875 50.953125 41.515625 
Q 57.328125 34.859375 57.328125 23.390625 
Q 57.328125 12.15625 50.6875 5.359375 
Q 44.046875 -1.421875 33.015625 -1.421875 
Q 20.359375 -1.421875 13.671875 8.265625 
Q 6.984375 17.96875 6.984375 36.375 
Q 6.984375 53.65625 15.1875 63.9375 
Q 23.390625 74.21875 37.203125 74.21875 
Q 40.921875 74.21875 44.703125 73.484375 
Q 48.484375 72.75 52.59375 71.296875 
z
" id="DejaVuSans-54"/>
      </defs>
      <g transform="translate(435.950311 542.877813)scale(0.14 -0.14)">
       <use xlink:href="#DejaVuSans-49"/>
       <use x="63.623047" xlink:href="#DejaVuSans-54"/>
      </g>
     </g>
    </g>
   </g>
   <g id="line2d_9">
    <path clip-path="url(#pa0ff2c11ac)" d="M 335.604374 525.24 
L 335.604374 402.93 
" style="fill:none;stroke:#ff6384;stroke-dasharray:5.55,2.4;stroke-dashoffset:0;stroke-opacity:0.8;stroke-width:1.5;"/>
   </g>
   <g id="line2d_10">
    <path clip-path="url(#pa0ff2c11ac)" d="M 287.1 525.24 
L 287.1 402.93 
" style="fill:none;stroke:#36a2eb;stroke-dasharray:5.55,2.4;stroke-dashoffset:0;stroke-opacity:0.8;stroke-width:1.5;"/>
   </g>
   <g id="line2d_11">
    <path clip-path="url(#pa0ff2c11ac)" d="M 238.35139 525.24 
L 238.35139 402.93 
" style="fill:none;stroke:#4bc0c0;stroke-dasharray:5.55,2.4;stroke-dashoffset:0;stroke-opacity:0.8;stroke-width:1.5;"/>
   </g>
   <g id="patch_12">
    <path d="M 36 525.24 
L 538.2 525.24 
" style="fill:none;stroke:#000000;stroke-linecap:square;stroke-linejoin:miter;stroke-width:0.8;"/>
   </g>
  </g>
 </g>
 <defs>
  <clipPath id="p286615cce9">
   <rect height="366.93" width="502.2" x="36" y="36"/>
  </clipPath>
  <clipPath id="pa0ff2c11ac">
   <rect height="122.31" width="502.2" x="36" y="402.93"/>
  </clipPath>
 </defs>
</svg>
