<?xml version="1.0" encoding="utf-8" standalone="no"?>
<!DOCTYPE svg PUBLIC "-//W3C//DTD SVG 1.1//EN"
  "http://www.w3.org/Graphics/SVG/1.1/DTD/svg11.dtd">
<!-- Created with matplotlib (https://matplotlib.org/) -->
<svg height="581.789375pt" version="1.1" viewBox="0 0 574.2 581.789375" width="574.2pt" xmlns="http://www.w3.org/2000/svg" xmlns:xlink="http://www.w3.org/1999/xlink">
 <defs>
  <style type="text/css">
*{stroke-linecap:butt;stroke-linejoin:round;}
  </style>
 </defs>
 <g id="figure_1">
  <g id="patch_1">
   <path d="M 0 581.789375 
L 574.2 581.789375 
L 574.2 0 
L 0 0 
z
" style="fill:none;"/>
  </g>
  <g id="axes_1">
   <g id="patch_2">
    <path d="M 36 402.93 
L 538.2 402.93 
L 538.2 36 
L 36 36 
z
" style="fill:none;"/>
   </g>
   <g id="PolyCollection_1">
    <defs>
     <path d="M 73.007374 -195.538011 
L 73.007374 -195.649625 
L 77.318377 -195.691713 
L 81.62938 -195.748294 
L 85.940384 -195.82383 
L 90.251387 -195.923972 
L 94.56239 -196.055809 
L 98.873393 -196.228156 
L 103.184397 -196.451882 
L 107.4954 -196.740258 
L 111.806403 -197.109337 
L 116.117406 -197.578353 
L 120.42841 -198.17012 
L 124.739413 -198.911418 
L 129.050416 -199.833353 
L 133.361419 -200.971651 
L 137.672423 -202.366868 
L 141.983426 -204.064481 
L 146.294429 -206.114819 
L 150.605432 -208.572801 
L 154.916435 -211.497447 
L 159.227439 -214.951122 
L 163.538442 -218.998486 
L 167.849445 -223.705137 
L 172.160448 -229.135929 
L 176.471452 -235.35297 
L 180.782455 -242.413333 
L 185.093458 -250.366506 
L 189.404461 -259.25166 
L 193.715465 -269.09479 
L 198.026468 -279.905867 
L 202.337471 -291.676082 
L 206.648474 -304.375339 
L 210.959478 -317.950132 
L 215.270481 -332.321934 
L 219.581484 -347.386252 
L 223.892487 -363.01246 
L 228.203491 -379.044502 
L 232.514494 -395.302544 
L 236.825497 -411.585597 
L 241.1365 -427.675099 
L 245.447504 -443.339394 
L 249.758507 -458.339004 
L 254.06951 -472.432529 
L 258.380513 -485.382998 
L 262.691517 -496.964427 
L 267.00252 -506.968342 
L 271.313523 -515.210002 
L 275.624526 -521.534066 
L 279.93553 -525.819461 
L 284.246533 -527.983238 
L 288.557536 -527.983238 
L 292.868539 -525.819461 
L 297.179543 -521.534066 
L 301.490546 -515.210002 
L 305.801549 -506.968342 
L 310.112552 -496.964427 
L 314.423555 -485.382998 
L 318.734559 -472.432529 
L 323.045562 -458.339004 
L 327.356565 -443.339394 
L 331.667568 -427.675099 
L 335.978572 -411.585597 
L 340.289575 -395.302544 
L 344.600578 -379.044502 
L 348.911581 -363.01246 
L 353.222585 -347.386252 
L 357.533588 -332.321934 
L 361.844591 -317.950132 
L 366.155594 -304.375339 
L 370.466598 -291.676082 
L 374.777601 -279.905867 
L 379.088604 -269.09479 
L 383.399607 -259.25166 
L 387.710611 -250.366506 
L 392.021614 -242.413333 
L 396.332617 -235.35297 
L 400.64362 -229.135929 
L 404.954624 -223.705137 
L 409.265627 -218.998486 
L 413.57663 -214.951122 
L 417.887633 -211.497447 
L 422.198637 -208.572801 
L 426.50964 -206.114819 
L 430.820643 -204.064481 
L 435.131646 -202.366868 
L 439.44265 -200.971651 
L 443.753653 -199.833353 
L 448.064656 -198.911418 
L 452.375659 -198.17012 
L 456.686663 -197.578353 
L 460.997666 -197.109337 
L 465.308669 -196.740258 
L 469.619672 -196.451882 
L 473.930676 -196.228156 
L 478.241679 -196.055809 
L 482.552682 -195.923972 
L 486.863685 -195.82383 
L 491.174688 -195.748294 
L 495.485692 -195.691713 
L 499.796695 -195.649625 
L 499.796695 -195.538011 
L 499.796695 -195.538011 
L 495.485692 -195.538011 
L 491.174688 -195.538011 
L 486.863685 -195.538011 
L 482.552682 -195.538011 
L 478.241679 -195.538011 
L 473.930676 -195.538011 
L 469.619672 -195.538011 
L 465.308669 -195.538011 
L 460.997666 -195.538011 
L 456.686663 -195.538011 
L 452.375659 -195.538011 
L 448.064656 -195.538011 
L 443.753653 -195.538011 
L 439.44265 -195.538011 
L 435.131646 -195.538011 
L 430.820643 -195.538011 
L 426.50964 -195.538011 
L 422.198637 -195.538011 
L 417.887633 -195.538011 
L 413.57663 -195.538011 
L 409.265627 -195.538011 
L 404.954624 -195.538011 
L 400.64362 -195.538011 
L 396.332617 -195.538011 
L 392.021614 -195.538011 
L 387.710611 -195.538011 
L 383.399607 -195.538011 
L 379.088604 -195.538011 
L 374.777601 -195.538011 
L 370.466598 -195.538011 
L 366.155594 -195.538011 
L 361.844591 -195.538011 
L 357.533588 -195.538011 
L 353.222585 -195.538011 
L 348.911581 -195.538011 
L 344.600578 -195.538011 
L 340.289575 -195.538011 
L 335.978572 -195.538011 
L 331.667568 -195.538011 
L 327.356565 -195.538011 
L 323.045562 -195.538011 
L 318.734559 -195.538011 
L 314.423555 -195.538011 
L 310.112552 -195.538011 
L 305.801549 -195.538011 
L 301.490546 -195.538011 
L 297.179543 -195.538011 
L 292.868539 -195.538011 
L 288.557536 -195.538011 
L 284.246533 -195.538011 
L 279.93553 -195.538011 
L 275.624526 -195.538011 
L 271.313523 -195.538011 
L 267.00252 -195.538011 
L 262.691517 -195.538011 
L 258.380513 -195.538011 
L 254.06951 -195.538011 
L 249.758507 -195.538011 
L 245.447504 -195.538011 
L 241.1365 -195.538011 
L 236.825497 -195.538011 
L 232.514494 -195.538011 
L 228.203491 -195.538011 
L 223.892487 -195.538011 
L 219.581484 -195.538011 
L 215.270481 -195.538011 
L 210.959478 -195.538011 
L 206.648474 -195.538011 
L 202.337471 -195.538011 
L 198.026468 -195.538011 
L 193.715465 -195.538011 
L 189.404461 -195.538011 
L 185.093458 -195.538011 
L 180.782455 -195.538011 
L 176.471452 -195.538011 
L 172.160448 -195.538011 
L 167.849445 -195.538011 
L 163.538442 -195.538011 
L 159.227439 -195.538011 
L 154.916435 -195.538011 
L 150.605432 -195.538011 
L 146.294429 -195.538011 
L 141.983426 -195.538011 
L 137.672423 -195.538011 
L 133.361419 -195.538011 
L 129.050416 -195.538011 
L 124.739413 -195.538011 
L 120.42841 -195.538011 
L 116.117406 -195.538011 
L 111.806403 -195.538011 
L 107.4954 -195.538011 
L 103.184397 -195.538011 
L 98.873393 -195.538011 
L 94.56239 -195.538011 
L 90.251387 -195.538011 
L 85.940384 -195.538011 
L 81.62938 -195.538011 
L 77.318377 -195.538011 
L 73.007374 -195.538011 
z
" id="ma2f39cebce" style="stroke:#ff6384;stroke-opacity:0.5;"/>
    </defs>
    <g clip-path="url(#p196613b366)">
     <use style="fill:#ff6384;fill-opacity:0.5;stroke:#ff6384;stroke-opacity:0.5;" x="0" xlink:href="#ma2f39cebce" y="581.789375"/>
    </g>
   </g>
   <g id="PolyCollection_2">
    <defs>
     <path d="M 73.433729 -195.538011 
L 73.433729 -195.649849 
L 77.736119 -195.692021 
L 82.038509 -195.748715 
L 86.340899 -195.824403 
L 90.643289 -195.924745 
L 94.945679 -196.056845 
L 99.248069 -196.229538 
L 103.550459 -196.453712 
L 107.852849 -196.742664 
L 112.155239 -197.112482 
L 116.457629 -197.582438 
L 120.760019 -198.175389 
L 125.062409 -198.918172 
L 129.364799 -199.841952 
L 133.667189 -200.982529 
L 137.969579 -202.380539 
L 142.271969 -204.081551 
L 146.574359 -206.135994 
L 150.876749 -208.598897 
L 155.179139 -211.529398 
L 159.481529 -214.989986 
L 163.783919 -219.045453 
L 168.086309 -223.761527 
L 172.388699 -229.203191 
L 176.691089 -235.432678 
L 180.993479 -242.507175 
L 185.295869 -250.476271 
L 189.598259 -259.379212 
L 193.900649 -269.242048 
L 198.203039 -280.074768 
L 202.505429 -291.868547 
L 206.807819 -304.593228 
L 211.110209 -318.195197 
L 215.412599 -332.59577 
L 219.714989 -347.690247 
L 224.017379 -363.347738 
L 228.319769 -379.411875 
L 232.622159 -395.702465 
L 236.924549 -412.018116 
L 241.226939 -428.139829 
L 245.529329 -443.835484 
L 249.831719 -458.865122 
L 254.134109 -472.986862 
L 258.436499 -485.963257 
L 262.738889 -497.567872 
L 267.041279 -507.591815 
L 271.343669 -515.849974 
L 275.646059 -522.186698 
L 279.948449 -526.480673 
L 284.250839 -528.648782 
L 288.553229 -528.648782 
L 292.855619 -526.480673 
L 297.158009 -522.186698 
L 301.460399 -515.849974 
L 305.762789 -507.591815 
L 310.065179 -497.567872 
L 314.367569 -485.963257 
L 318.66996 -472.986862 
L 322.97235 -458.865122 
L 327.27474 -443.835484 
L 331.57713 -428.139829 
L 335.87952 -412.018116 
L 340.18191 -395.702465 
L 344.4843 -379.411875 
L 348.78669 -363.347738 
L 353.08908 -347.690247 
L 357.39147 -332.59577 
L 361.69386 -318.195197 
L 365.99625 -304.593228 
L 370.29864 -291.868547 
L 374.60103 -280.074768 
L 378.90342 -269.242048 
L 383.20581 -259.379212 
L 387.5082 -250.476271 
L 391.81059 -242.507175 
L 396.11298 -235.432678 
L 400.41537 -229.203191 
L 404.71776 -223.761527 
L 409.02015 -219.045453 
L 413.32254 -214.989986 
L 417.62493 -211.529398 
L 421.92732 -208.598897 
L 426.22971 -206.135994 
L 430.5321 -204.081551 
L 434.83449 -202.380539 
L 439.13688 -200.982529 
L 443.43927 -199.841952 
L 447.74166 -198.918172 
L 452.04405 -198.175389 
L 456.34644 -197.582438 
L 460.64883 -197.112482 
L 464.95122 -196.742664 
L 469.25361 -196.453712 
L 473.556 -196.229538 
L 477.85839 -196.056845 
L 482.16078 -195.924745 
L 486.46317 -195.824403 
L 490.76556 -195.748715 
L 495.06795 -195.692021 
L 499.37034 -195.649849 
L 499.37034 -195.538011 
L 499.37034 -195.538011 
L 495.06795 -195.538011 
L 490.76556 -195.538011 
L 486.46317 -195.538011 
L 482.16078 -195.538011 
L 477.85839 -195.538011 
L 473.556 -195.538011 
L 469.25361 -195.538011 
L 464.95122 -195.538011 
L 460.64883 -195.538011 
L 456.34644 -195.538011 
L 452.04405 -195.538011 
L 447.74166 -195.538011 
L 443.43927 -195.538011 
L 439.13688 -195.538011 
L 434.83449 -195.538011 
L 430.5321 -195.538011 
L 426.22971 -195.538011 
L 421.92732 -195.538011 
L 417.62493 -195.538011 
L 413.32254 -195.538011 
L 409.02015 -195.538011 
L 404.71776 -195.538011 
L 400.41537 -195.538011 
L 396.11298 -195.538011 
L 391.81059 -195.538011 
L 387.5082 -195.538011 
L 383.20581 -195.538011 
L 378.90342 -195.538011 
L 374.60103 -195.538011 
L 370.29864 -195.538011 
L 365.99625 -195.538011 
L 361.69386 -195.538011 
L 357.39147 -195.538011 
L 353.08908 -195.538011 
L 348.78669 -195.538011 
L 344.4843 -195.538011 
L 340.18191 -195.538011 
L 335.87952 -195.538011 
L 331.57713 -195.538011 
L 327.27474 -195.538011 
L 322.97235 -195.538011 
L 318.66996 -195.538011 
L 314.367569 -195.538011 
L 310.065179 -195.538011 
L 305.762789 -195.538011 
L 301.460399 -195.538011 
L 297.158009 -195.538011 
L 292.855619 -195.538011 
L 288.553229 -195.538011 
L 284.250839 -195.538011 
L 279.948449 -195.538011 
L 275.646059 -195.538011 
L 271.343669 -195.538011 
L 267.041279 -195.538011 
L 262.738889 -195.538011 
L 258.436499 -195.538011 
L 254.134109 -195.538011 
L 249.831719 -195.538011 
L 245.529329 -195.538011 
L 241.226939 -195.538011 
L 236.924549 -195.538011 
L 232.622159 -195.538011 
L 228.319769 -195.538011 
L 224.017379 -195.538011 
L 219.714989 -195.538011 
L 215.412599 -195.538011 
L 211.110209 -195.538011 
L 206.807819 -195.538011 
L 202.505429 -195.538011 
L 198.203039 -195.538011 
L 193.900649 -195.538011 
L 189.598259 -195.538011 
L 185.295869 -195.538011 
L 180.993479 -195.538011 
L 176.691089 -195.538011 
L 172.388699 -195.538011 
L 168.086309 -195.538011 
L 163.783919 -195.538011 
L 159.481529 -195.538011 
L 155.179139 -195.538011 
L 150.876749 -195.538011 
L 146.574359 -195.538011 
L 142.271969 -195.538011 
L 137.969579 -195.538011 
L 133.667189 -195.538011 
L 129.364799 -195.538011 
L 125.062409 -195.538011 
L 120.760019 -195.538011 
L 116.457629 -195.538011 
L 112.155239 -195.538011 
L 107.852849 -195.538011 
L 103.550459 -195.538011 
L 99.248069 -195.538011 
L 94.945679 -195.538011 
L 90.643289 -195.538011 
L 86.340899 -195.538011 
L 82.038509 -195.538011 
L 77.736119 -195.538011 
L 73.433729 -195.538011 
z
" id="m8ffe8ab8a2" style="stroke:#36a2eb;stroke-opacity:0.5;"/>
    </defs>
    <g clip-path="url(#p196613b366)">
     <use style="fill:#36a2eb;fill-opacity:0.5;stroke:#36a2eb;stroke-opacity:0.5;" x="0" xlink:href="#m8ffe8ab8a2" y="581.789375"/>
    </g>
   </g>
   <g id="PolyCollection_3">
    <defs>
     <path d="M 58.827273 -195.538011 
L 58.827273 -195.650004 
L 63.123704 -195.692234 
L 67.420136 -195.749007 
L 71.716568 -195.8248 
L 76.013 -195.925281 
L 80.309431 -196.057565 
L 84.605863 -196.230497 
L 88.902295 -196.454982 
L 93.198727 -196.744335 
L 97.495158 -197.114666 
L 101.79159 -197.585273 
L 106.088022 -198.179047 
L 110.384454 -198.922859 
L 114.680885 -199.847921 
L 118.977317 -200.990079 
L 123.273749 -202.390029 
L 127.570181 -204.093399 
L 131.866612 -206.150691 
L 136.163044 -208.617009 
L 140.459476 -211.551575 
L 144.755907 -215.016962 
L 149.052339 -219.078053 
L 153.348771 -223.800667 
L 157.645203 -229.249878 
L 161.941634 -235.488004 
L 166.238066 -242.572312 
L 170.534498 -250.552459 
L 174.83093 -259.467747 
L 179.127361 -269.344261 
L 183.423793 -280.192004 
L 187.720225 -292.002137 
L 192.016657 -304.744465 
L 196.313088 -318.365297 
L 200.60952 -332.785841 
L 204.905952 -347.901251 
L 209.202384 -363.580456 
L 213.498815 -379.666871 
L 217.795247 -395.980052 
L 222.091679 -412.31833 
L 226.38811 -428.4624 
L 230.684542 -444.179822 
L 234.980974 -459.230303 
L 239.277406 -473.371627 
L 243.573837 -486.366018 
L 247.870269 -497.986726 
L 252.166701 -508.02457 
L 256.463133 -516.294181 
L 260.759564 -522.639693 
L 265.055996 -526.939623 
L 269.352428 -529.110739 
L 273.64886 -529.110739 
L 277.945291 -526.939623 
L 282.241723 -522.639693 
L 286.538155 -516.294181 
L 290.834587 -508.02457 
L 295.131018 -497.986726 
L 299.42745 -486.366018 
L 303.723882 -473.371627 
L 308.020314 -459.230303 
L 312.316745 -444.179822 
L 316.613177 -428.4624 
L 320.909609 -412.31833 
L 325.20604 -395.980052 
L 329.502472 -379.666871 
L 333.798904 -363.580456 
L 338.095336 -347.901251 
L 342.391767 -332.785841 
L 346.688199 -318.365297 
L 350.984631 -304.744465 
L 355.281063 -292.002137 
L 359.577494 -280.192004 
L 363.873926 -269.344261 
L 368.170358 -259.467747 
L 372.46679 -250.552459 
L 376.763221 -242.572312 
L 381.059653 -235.488004 
L 385.356085 -229.249878 
L 389.652517 -223.800667 
L 393.948948 -219.078053 
L 398.24538 -215.016962 
L 402.541812 -211.551575 
L 406.838243 -208.617009 
L 411.134675 -206.150691 
L 415.431107 -204.093399 
L 419.727539 -202.390029 
L 424.02397 -200.990079 
L 428.320402 -199.847921 
L 432.616834 -198.922859 
L 436.913266 -198.179047 
L 441.209697 -197.585273 
L 445.506129 -197.114666 
L 449.802561 -196.744335 
L 454.098993 -196.454982 
L 458.395424 -196.230497 
L 462.691856 -196.057565 
L 466.988288 -195.925281 
L 471.28472 -195.8248 
L 475.581151 -195.749007 
L 479.877583 -195.692234 
L 484.174015 -195.650004 
L 484.174015 -195.538011 
L 484.174015 -195.538011 
L 479.877583 -195.538011 
L 475.581151 -195.538011 
L 471.28472 -195.538011 
L 466.988288 -195.538011 
L 462.691856 -195.538011 
L 458.395424 -195.538011 
L 454.098993 -195.538011 
L 449.802561 -195.538011 
L 445.506129 -195.538011 
L 441.209697 -195.538011 
L 436.913266 -195.538011 
L 432.616834 -195.538011 
L 428.320402 -195.538011 
L 424.02397 -195.538011 
L 419.727539 -195.538011 
L 415.431107 -195.538011 
L 411.134675 -195.538011 
L 406.838243 -195.538011 
L 402.541812 -195.538011 
L 398.24538 -195.538011 
L 393.948948 -195.538011 
L 389.652517 -195.538011 
L 385.356085 -195.538011 
L 381.059653 -195.538011 
L 376.763221 -195.538011 
L 372.46679 -195.538011 
L 368.170358 -195.538011 
L 363.873926 -195.538011 
L 359.577494 -195.538011 
L 355.281063 -195.538011 
L 350.984631 -195.538011 
L 346.688199 -195.538011 
L 342.391767 -195.538011 
L 338.095336 -195.538011 
L 333.798904 -195.538011 
L 329.502472 -195.538011 
L 325.20604 -195.538011 
L 320.909609 -195.538011 
L 316.613177 -195.538011 
L 312.316745 -195.538011 
L 308.020314 -195.538011 
L 303.723882 -195.538011 
L 299.42745 -195.538011 
L 295.131018 -195.538011 
L 290.834587 -195.538011 
L 286.538155 -195.538011 
L 282.241723 -195.538011 
L 277.945291 -195.538011 
L 273.64886 -195.538011 
L 269.352428 -195.538011 
L 265.055996 -195.538011 
L 260.759564 -195.538011 
L 256.463133 -195.538011 
L 252.166701 -195.538011 
L 247.870269 -195.538011 
L 243.573837 -195.538011 
L 239.277406 -195.538011 
L 234.980974 -195.538011 
L 230.684542 -195.538011 
L 226.38811 -195.538011 
L 222.091679 -195.538011 
L 217.795247 -195.538011 
L 213.498815 -195.538011 
L 209.202384 -195.538011 
L 204.905952 -195.538011 
L 200.60952 -195.538011 
L 196.313088 -195.538011 
L 192.016657 -195.538011 
L 187.720225 -195.538011 
L 183.423793 -195.538011 
L 179.127361 -195.538011 
L 174.83093 -195.538011 
L 170.534498 -195.538011 
L 166.238066 -195.538011 
L 161.941634 -195.538011 
L 157.645203 -195.538011 
L 153.348771 -195.538011 
L 149.052339 -195.538011 
L 144.755907 -195.538011 
L 140.459476 -195.538011 
L 136.163044 -195.538011 
L 131.866612 -195.538011 
L 127.570181 -195.538011 
L 123.273749 -195.538011 
L 118.977317 -195.538011 
L 114.680885 -195.538011 
L 110.384454 -195.538011 
L 106.088022 -195.538011 
L 101.79159 -195.538011 
L 97.495158 -195.538011 
L 93.198727 -195.538011 
L 88.902295 -195.538011 
L 84.605863 -195.538011 
L 80.309431 -195.538011 
L 76.013 -195.538011 
L 71.716568 -195.538011 
L 67.420136 -195.538011 
L 63.123704 -195.538011 
L 58.827273 -195.538011 
z
" id="m0013e3448c" style="stroke:#4bc0c0;stroke-opacity:0.5;"/>
    </defs>
    <g clip-path="url(#p196613b366)">
     <use style="fill:#4bc0c0;fill-opacity:0.5;stroke:#4bc0c0;stroke-opacity:0.5;" x="0" xlink:href="#m0013e3448c" y="581.789375"/>
    </g>
   </g>
   <g id="PolyCollection_4">
    <defs>
     <path d="M 87.234123 -195.538011 
L 87.234123 -195.649274 
L 91.558755 -195.691229 
L 95.883388 -195.747631 
L 100.20802 -195.82293 
L 104.532652 -195.922756 
L 108.857285 -196.054177 
L 113.181917 -196.225981 
L 117.506549 -196.449002 
L 121.831182 -196.736469 
L 126.155814 -197.104385 
L 130.480447 -197.571923 
L 134.805079 -198.161825 
L 139.129711 -198.900787 
L 143.454344 -199.819816 
L 147.778976 -200.954527 
L 152.103608 -202.345347 
L 156.428241 -204.03761 
L 160.752873 -206.081486 
L 165.077506 -208.531722 
L 169.402138 -211.447151 
L 173.72677 -214.889941 
L 178.051403 -218.92455 
L 182.376035 -223.616368 
L 186.700667 -229.030045 
L 191.0253 -235.227493 
L 195.349932 -242.265605 
L 199.674564 -250.193714 
L 203.999197 -259.050865 
L 208.323829 -268.862975 
L 212.648462 -279.639981 
L 216.973094 -291.373102 
L 221.297726 -304.032337 
L 225.622359 -317.564349 
L 229.946991 -331.890858 
L 234.271623 -346.907701 
L 238.596256 -362.484662 
L 242.920888 -378.466179 
L 247.24552 -394.672984 
L 251.570153 -410.90472 
L 255.894785 -426.943516 
L 260.219418 -442.558446 
L 264.54405 -457.510784 
L 268.868682 -471.559893 
L 273.193315 -484.469549 
L 277.517947 -496.014479 
L 281.842579 -505.986866 
L 286.167212 -514.202552 
L 290.491844 -520.506686 
L 294.816477 -524.778576 
L 299.141109 -526.935534 
L 303.465741 -526.935534 
L 307.790374 -524.778576 
L 312.115006 -520.506686 
L 316.439638 -514.202552 
L 320.764271 -505.986866 
L 325.088903 -496.014479 
L 329.413535 -484.469549 
L 333.738168 -471.559893 
L 338.0628 -457.510784 
L 342.387433 -442.558446 
L 346.712065 -426.943516 
L 351.036697 -410.90472 
L 355.36133 -394.672984 
L 359.685962 -378.466179 
L 364.010594 -362.484662 
L 368.335227 -346.907701 
L 372.659859 -331.890858 
L 376.984492 -317.564349 
L 381.309124 -304.032337 
L 385.633756 -291.373102 
L 389.958389 -279.639981 
L 394.283021 -268.862975 
L 398.607653 -259.050865 
L 402.932286 -250.193714 
L 407.256918 -242.265605 
L 411.58155 -235.227493 
L 415.906183 -229.030045 
L 420.230815 -223.616368 
L 424.555448 -218.92455 
L 428.88008 -214.889941 
L 433.204712 -211.447151 
L 437.529345 -208.531722 
L 441.853977 -206.081486 
L 446.178609 -204.03761 
L 450.503242 -202.345347 
L 454.827874 -200.954527 
L 459.152506 -199.819816 
L 463.477139 -198.900787 
L 467.801771 -198.161825 
L 472.126404 -197.571923 
L 476.451036 -197.104385 
L 480.775668 -196.736469 
L 485.100301 -196.449002 
L 489.424933 -196.225981 
L 493.749565 -196.054177 
L 498.074198 -195.922756 
L 502.39883 -195.82293 
L 506.723463 -195.747631 
L 511.048095 -195.691229 
L 515.372727 -195.649274 
L 515.372727 -195.538011 
L 515.372727 -195.538011 
L 511.048095 -195.538011 
L 506.723463 -195.538011 
L 502.39883 -195.538011 
L 498.074198 -195.538011 
L 493.749565 -195.538011 
L 489.424933 -195.538011 
L 485.100301 -195.538011 
L 480.775668 -195.538011 
L 476.451036 -195.538011 
L 472.126404 -195.538011 
L 467.801771 -195.538011 
L 463.477139 -195.538011 
L 459.152506 -195.538011 
L 454.827874 -195.538011 
L 450.503242 -195.538011 
L 446.178609 -195.538011 
L 441.853977 -195.538011 
L 437.529345 -195.538011 
L 433.204712 -195.538011 
L 428.88008 -195.538011 
L 424.555448 -195.538011 
L 420.230815 -195.538011 
L 415.906183 -195.538011 
L 411.58155 -195.538011 
L 407.256918 -195.538011 
L 402.932286 -195.538011 
L 398.607653 -195.538011 
L 394.283021 -195.538011 
L 389.958389 -195.538011 
L 385.633756 -195.538011 
L 381.309124 -195.538011 
L 376.984492 -195.538011 
L 372.659859 -195.538011 
L 368.335227 -195.538011 
L 364.010594 -195.538011 
L 359.685962 -195.538011 
L 355.36133 -195.538011 
L 351.036697 -195.538011 
L 346.712065 -195.538011 
L 342.387433 -195.538011 
L 338.0628 -195.538011 
L 333.738168 -195.538011 
L 329.413535 -195.538011 
L 325.088903 -195.538011 
L 320.764271 -195.538011 
L 316.439638 -195.538011 
L 312.115006 -195.538011 
L 307.790374 -195.538011 
L 303.465741 -195.538011 
L 299.141109 -195.538011 
L 294.816477 -195.538011 
L 290.491844 -195.538011 
L 286.167212 -195.538011 
L 281.842579 -195.538011 
L 277.517947 -195.538011 
L 273.193315 -195.538011 
L 268.868682 -195.538011 
L 264.54405 -195.538011 
L 260.219418 -195.538011 
L 255.894785 -195.538011 
L 251.570153 -195.538011 
L 247.24552 -195.538011 
L 242.920888 -195.538011 
L 238.596256 -195.538011 
L 234.271623 -195.538011 
L 229.946991 -195.538011 
L 225.622359 -195.538011 
L 221.297726 -195.538011 
L 216.973094 -195.538011 
L 212.648462 -195.538011 
L 208.323829 -195.538011 
L 203.999197 -195.538011 
L 199.674564 -195.538011 
L 195.349932 -195.538011 
L 191.0253 -195.538011 
L 186.700667 -195.538011 
L 182.376035 -195.538011 
L 178.051403 -195.538011 
L 173.72677 -195.538011 
L 169.402138 -195.538011 
L 165.077506 -195.538011 
L 160.752873 -195.538011 
L 156.428241 -195.538011 
L 152.103608 -195.538011 
L 147.778976 -195.538011 
L 143.454344 -195.538011 
L 139.129711 -195.538011 
L 134.805079 -195.538011 
L 130.480447 -195.538011 
L 126.155814 -195.538011 
L 121.831182 -195.538011 
L 117.506549 -195.538011 
L 113.181917 -195.538011 
L 108.857285 -195.538011 
L 104.532652 -195.538011 
L 100.20802 -195.538011 
L 95.883388 -195.538011 
L 91.558755 -195.538011 
L 87.234123 -195.538011 
z
" id="mfb36b7ec3d" style="stroke:#9966ff;stroke-opacity:0.5;"/>
    </defs>
    <g clip-path="url(#p196613b366)">
     <use style="fill:#9966ff;fill-opacity:0.5;stroke:#9966ff;stroke-opacity:0.5;" x="0" xlink:href="#mfb36b7ec3d" y="581.789375"/>
    </g>
   </g>
   <g id="line2d_1">
    <path clip-path="url(#p196613b366)" d="M 73.007374 386.13975 
L 77.318377 386.097662 
L 81.62938 386.041081 
L 85.940384 385.965545 
L 90.251387 385.865403 
L 94.56239 385.733566 
L 98.873393 385.561219 
L 103.184397 385.337493 
L 107.4954 385.049117 
L 111.806403 384.680038 
L 116.117406 384.211022 
L 120.42841 383.619255 
L 124.739413 382.877957 
L 129.050416 381.956022 
L 133.361419 380.817724 
L 137.672423 379.422507 
L 141.983426 377.724894 
L 146.294429 375.674556 
L 150.605432 373.216574 
L 154.916435 370.291928 
L 159.227439 366.838253 
L 163.538442 362.790889 
L 167.849445 358.084238 
L 172.160448 352.653446 
L 176.471452 346.436405 
L 180.782455 339.376042 
L 185.093458 331.422869 
L 189.404461 322.537715 
L 193.715465 312.694585 
L 198.026468 301.883508 
L 202.337471 290.113293 
L 206.648474 277.414036 
L 210.959478 263.839243 
L 215.270481 249.467441 
L 219.581484 234.403123 
L 223.892487 218.776915 
L 228.203491 202.744873 
L 232.514494 186.486831 
L 236.825497 170.203778 
L 241.1365 154.114276 
L 245.447504 138.449981 
L 249.758507 123.450371 
L 254.06951 109.356846 
L 258.380513 96.406377 
L 262.691517 84.824948 
L 267.00252 74.821033 
L 271.313523 66.579373 
L 275.624526 60.255309 
L 279.93553 55.969914 
L 284.246533 53.806137 
L 288.557536 53.806137 
L 292.868539 55.969914 
L 297.179543 60.255309 
L 301.490546 66.579373 
L 305.801549 74.821033 
L 310.112552 84.824948 
L 314.423555 96.406377 
L 318.734559 109.356846 
L 323.045562 123.450371 
L 327.356565 138.449981 
L 331.667568 154.114276 
L 335.978572 170.203778 
L 340.289575 186.486831 
L 344.600578 202.744873 
L 348.911581 218.776915 
L 353.222585 234.403123 
L 357.533588 249.467441 
L 361.844591 263.839243 
L 366.155594 277.414036 
L 370.466598 290.113293 
L 374.777601 301.883508 
L 379.088604 312.694585 
L 383.399607 322.537715 
L 387.710611 331.422869 
L 392.021614 339.376042 
L 396.332617 346.436405 
L 400.64362 352.653446 
L 404.954624 358.084238 
L 409.265627 362.790889 
L 413.57663 366.838253 
L 417.887633 370.291928 
L 422.198637 373.216574 
L 426.50964 375.674556 
L 430.820643 377.724894 
L 435.131646 379.422507 
L 439.44265 380.817724 
L 443.753653 381.956022 
L 448.064656 382.877957 
L 452.375659 383.619255 
L 456.686663 384.211022 
L 460.997666 384.680038 
L 465.308669 385.049117 
L 469.619672 385.337493 
L 473.930676 385.561219 
L 478.241679 385.733566 
L 482.552682 385.865403 
L 486.863685 385.965545 
L 491.174688 386.041081 
L 495.485692 386.097662 
L 499.796695 386.13975 
" style="fill:none;stroke:#ff6384;stroke-linecap:square;"/>
   </g>
   <g id="line2d_2">
    <path clip-path="url(#p196613b366)" d="M 73.433729 386.139526 
L 77.736119 386.097354 
L 82.038509 386.04066 
L 86.340899 385.964972 
L 90.643289 385.86463 
L 94.945679 385.73253 
L 99.248069 385.559837 
L 103.550459 385.335663 
L 107.852849 385.046711 
L 112.155239 384.676893 
L 116.457629 384.206937 
L 120.760019 383.613986 
L 125.062409 382.871203 
L 129.364799 381.947423 
L 133.667189 380.806846 
L 137.969579 379.408836 
L 142.271969 377.707824 
L 146.574359 375.653381 
L 150.876749 373.190478 
L 155.179139 370.259977 
L 159.481529 366.799389 
L 163.783919 362.743922 
L 168.086309 358.027848 
L 172.388699 352.586184 
L 176.691089 346.356697 
L 180.993479 339.2822 
L 185.295869 331.313104 
L 189.598259 322.410163 
L 193.900649 312.547327 
L 198.203039 301.714607 
L 202.505429 289.920828 
L 206.807819 277.196147 
L 211.110209 263.594178 
L 215.412599 249.193605 
L 219.714989 234.099128 
L 224.017379 218.441637 
L 228.319769 202.3775 
L 232.622159 186.08691 
L 236.924549 169.771259 
L 241.226939 153.649546 
L 245.529329 137.953891 
L 249.831719 122.924253 
L 254.134109 108.802513 
L 258.436499 95.826118 
L 262.738889 84.221503 
L 267.041279 74.19756 
L 271.343669 65.939401 
L 275.646059 59.602677 
L 279.948449 55.308702 
L 284.250839 53.140593 
L 288.553229 53.140593 
L 292.855619 55.308702 
L 297.158009 59.602677 
L 301.460399 65.939401 
L 305.762789 74.19756 
L 310.065179 84.221503 
L 314.367569 95.826118 
L 318.66996 108.802513 
L 322.97235 122.924253 
L 327.27474 137.953891 
L 331.57713 153.649546 
L 335.87952 169.771259 
L 340.18191 186.08691 
L 344.4843 202.3775 
L 348.78669 218.441637 
L 353.08908 234.099128 
L 357.39147 249.193605 
L 361.69386 263.594178 
L 365.99625 277.196147 
L 370.29864 289.920828 
L 374.60103 301.714607 
L 378.90342 312.547327 
L 383.20581 322.410163 
L 387.5082 331.313104 
L 391.81059 339.2822 
L 396.11298 346.356697 
L 400.41537 352.586184 
L 404.71776 358.027848 
L 409.02015 362.743922 
L 413.32254 366.799389 
L 417.62493 370.259977 
L 421.92732 373.190478 
L 426.22971 375.653381 
L 430.5321 377.707824 
L 434.83449 379.408836 
L 439.13688 380.806846 
L 443.43927 381.947423 
L 447.74166 382.871203 
L 452.04405 383.613986 
L 456.34644 384.206937 
L 460.64883 384.676893 
L 464.95122 385.046711 
L 469.25361 385.335663 
L 473.556 385.559837 
L 477.85839 385.73253 
L 482.16078 385.86463 
L 486.46317 385.964972 
L 490.76556 386.04066 
L 495.06795 386.097354 
L 499.37034 386.139526 
" style="fill:none;stroke:#36a2eb;stroke-linecap:square;"/>
   </g>
   <g id="line2d_3">
    <path clip-path="url(#p196613b366)" d="M 58.827273 386.139371 
L 63.123704 386.097141 
L 67.420136 386.040368 
L 71.716568 385.964575 
L 76.013 385.864094 
L 80.309431 385.73181 
L 84.605863 385.558878 
L 88.902295 385.334393 
L 93.198727 385.04504 
L 97.495158 384.674709 
L 101.79159 384.204102 
L 106.088022 383.610328 
L 110.384454 382.866516 
L 114.680885 381.941454 
L 118.977317 380.799296 
L 123.273749 379.399346 
L 127.570181 377.695976 
L 131.866612 375.638684 
L 136.163044 373.172366 
L 140.459476 370.2378 
L 144.755907 366.772413 
L 149.052339 362.711322 
L 153.348771 357.988708 
L 157.645203 352.539497 
L 161.941634 346.301371 
L 166.238066 339.217063 
L 170.534498 331.236916 
L 174.83093 322.321628 
L 179.127361 312.445114 
L 183.423793 301.597371 
L 187.720225 289.787238 
L 192.016657 277.04491 
L 196.313088 263.424078 
L 200.60952 249.003534 
L 204.905952 233.888124 
L 209.202384 218.208919 
L 213.498815 202.122504 
L 217.795247 185.809323 
L 222.091679 169.471045 
L 226.38811 153.326975 
L 230.684542 137.609553 
L 234.980974 122.559072 
L 239.277406 108.417748 
L 243.573837 95.423357 
L 247.870269 83.802649 
L 252.166701 73.764805 
L 256.463133 65.495194 
L 260.759564 59.149682 
L 265.055996 54.849752 
L 269.352428 52.678636 
L 273.64886 52.678636 
L 277.945291 54.849752 
L 282.241723 59.149682 
L 286.538155 65.495194 
L 290.834587 73.764805 
L 295.131018 83.802649 
L 299.42745 95.423357 
L 303.723882 108.417748 
L 308.020314 122.559072 
L 312.316745 137.609553 
L 316.613177 153.326975 
L 320.909609 169.471045 
L 325.20604 185.809323 
L 329.502472 202.122504 
L 333.798904 218.208919 
L 338.095336 233.888124 
L 342.391767 249.003534 
L 346.688199 263.424078 
L 350.984631 277.04491 
L 355.281063 289.787238 
L 359.577494 301.597371 
L 363.873926 312.445114 
L 368.170358 322.321628 
L 372.46679 331.236916 
L 376.763221 339.217063 
L 381.059653 346.301371 
L 385.356085 352.539497 
L 389.652517 357.988708 
L 393.948948 362.711322 
L 398.24538 366.772413 
L 402.541812 370.2378 
L 406.838243 373.172366 
L 411.134675 375.638684 
L 415.431107 377.695976 
L 419.727539 379.399346 
L 424.02397 380.799296 
L 428.320402 381.941454 
L 432.616834 382.866516 
L 436.913266 383.610328 
L 441.209697 384.204102 
L 445.506129 384.674709 
L 449.802561 385.04504 
L 454.098993 385.334393 
L 458.395424 385.558878 
L 462.691856 385.73181 
L 466.988288 385.864094 
L 471.28472 385.964575 
L 475.581151 386.040368 
L 479.877583 386.097141 
L 484.174015 386.139371 
" style="fill:none;stroke:#4bc0c0;stroke-linecap:square;"/>
   </g>
   <g id="line2d_4">
    <path clip-path="url(#p196613b366)" d="M 87.234123 386.140101 
L 91.558755 386.098146 
L 95.883388 386.041744 
L 100.20802 385.966445 
L 104.532652 385.866619 
L 108.857285 385.735198 
L 113.181917 385.563394 
L 117.506549 385.340373 
L 121.831182 385.052906 
L 126.155814 384.68499 
L 130.480447 384.217452 
L 134.805079 383.62755 
L 139.129711 382.888588 
L 143.454344 381.969559 
L 147.778976 380.834848 
L 152.103608 379.444028 
L 156.428241 377.751765 
L 160.752873 375.707889 
L 165.077506 373.257653 
L 169.402138 370.342224 
L 173.72677 366.899434 
L 178.051403 362.864825 
L 182.376035 358.173007 
L 186.700667 352.75933 
L 191.0253 346.561882 
L 195.349932 339.52377 
L 199.674564 331.595661 
L 203.999197 322.73851 
L 208.323829 312.9264 
L 212.648462 302.149394 
L 216.973094 290.416273 
L 221.297726 277.757038 
L 225.622359 264.225026 
L 229.946991 249.898517 
L 234.271623 234.881674 
L 238.596256 219.304713 
L 242.920888 203.323196 
L 247.24552 187.116391 
L 251.570153 170.884655 
L 255.894785 154.845859 
L 260.219418 139.230929 
L 264.54405 124.278591 
L 268.868682 110.229482 
L 273.193315 97.319826 
L 277.517947 85.774896 
L 281.842579 75.802509 
L 286.167212 67.586823 
L 290.491844 61.282689 
L 294.816477 57.010799 
L 299.141109 54.853841 
L 303.465741 54.853841 
L 307.790374 57.010799 
L 312.115006 61.282689 
L 316.439638 67.586823 
L 320.764271 75.802509 
L 325.088903 85.774896 
L 329.413535 97.319826 
L 333.738168 110.229482 
L 338.0628 124.278591 
L 342.387433 139.230929 
L 346.712065 154.845859 
L 351.036697 170.884655 
L 355.36133 187.116391 
L 359.685962 203.323196 
L 364.010594 219.304713 
L 368.335227 234.881674 
L 372.659859 249.898517 
L 376.984492 264.225026 
L 381.309124 277.757038 
L 385.633756 290.416273 
L 389.958389 302.149394 
L 394.283021 312.9264 
L 398.607653 322.73851 
L 402.932286 331.595661 
L 407.256918 339.52377 
L 411.58155 346.561882 
L 415.906183 352.75933 
L 420.230815 358.173007 
L 424.555448 362.864825 
L 428.88008 366.899434 
L 433.204712 370.342224 
L 437.529345 373.257653 
L 441.853977 375.707889 
L 446.178609 377.751765 
L 450.503242 379.444028 
L 454.827874 380.834848 
L 459.152506 381.969559 
L 463.477139 382.888588 
L 467.801771 383.62755 
L 472.126404 384.217452 
L 476.451036 384.68499 
L 480.775668 385.052906 
L 485.100301 385.340373 
L 489.424933 385.563394 
L 493.749565 385.735198 
L 498.074198 385.866619 
L 502.39883 385.966445 
L 506.723463 386.041744 
L 511.048095 386.098146 
L 515.372727 386.140101 
" style="fill:none;stroke:#9966ff;stroke-linecap:square;"/>
   </g>
   <g id="patch_3">
    <path d="M 36 402.93 
L 538.2 402.93 
" style="fill:none;stroke:#000000;stroke-linecap:square;stroke-linejoin:miter;stroke-width:0.8;"/>
   </g>
   <g id="legend_1">
    <g id="patch_4">
     <path d="M 450.225313 129.3975 
L 528.4 129.3975 
Q 531.2 129.3975 531.2 126.5975 
L 531.2 45.8 
Q 531.2 43 528.4 43 
L 450.225313 43 
Q 447.425313 43 447.425313 45.8 
L 447.425313 126.5975 
Q 447.425313 129.3975 450.225313 129.3975 
z
" style="fill:#ffffff;opacity:0.8;stroke:#cccccc;stroke-linejoin:miter;"/>
    </g>
    <g id="patch_5">
     <path d="M 453.025313 59.237813 
L 481.025313 59.237813 
L 481.025313 49.437813 
L 453.025313 49.437813 
z
" style="fill:#ff6384;opacity:0.5;stroke:#ff6384;stroke-linejoin:miter;"/>
    </g>
    <g id="text_1">
     <!-- base -->
     <defs>
      <path d="M 48.6875 27.296875 
Q 48.6875 37.203125 44.609375 42.84375 
Q 40.53125 48.484375 33.40625 48.484375 
Q 26.265625 48.484375 22.1875 42.84375 
Q 18.109375 37.203125 18.109375 27.296875 
Q 18.109375 17.390625 22.1875 11.75 
Q 26.265625 6.109375 33.40625 6.109375 
Q 40.53125 6.109375 44.609375 11.75 
Q 48.6875 17.390625 48.6875 27.296875 
z
M 18.109375 46.390625 
Q 20.953125 51.265625 25.265625 53.625 
Q 29.59375 56 35.59375 56 
Q 45.5625 56 51.78125 48.09375 
Q 58.015625 40.1875 58.015625 27.296875 
Q 58.015625 14.40625 51.78125 6.484375 
Q 45.5625 -1.421875 35.59375 -1.421875 
Q 29.59375 -1.421875 25.265625 0.953125 
Q 20.953125 3.328125 18.109375 8.203125 
L 18.109375 0 
L 9.078125 0 
L 9.078125 75.984375 
L 18.109375 75.984375 
z
" id="DejaVuSans-98"/>
      <path d="M 34.28125 27.484375 
Q 23.390625 27.484375 19.1875 25 
Q 14.984375 22.515625 14.984375 16.5 
Q 14.984375 11.71875 18.140625 8.90625 
Q 21.296875 6.109375 26.703125 6.109375 
Q 34.1875 6.109375 38.703125 11.40625 
Q 43.21875 16.703125 43.21875 25.484375 
L 43.21875 27.484375 
z
M 52.203125 31.203125 
L 52.203125 0 
L 43.21875 0 
L 43.21875 8.296875 
Q 40.140625 3.328125 35.546875 0.953125 
Q 30.953125 -1.421875 24.3125 -1.421875 
Q 15.921875 -1.421875 10.953125 3.296875 
Q 6 8.015625 6 15.921875 
Q 6 25.140625 12.171875 29.828125 
Q 18.359375 34.515625 30.609375 34.515625 
L 43.21875 34.515625 
L 43.21875 35.40625 
Q 43.21875 41.609375 39.140625 45 
Q 35.0625 48.390625 27.6875 48.390625 
Q 23 48.390625 18.546875 47.265625 
Q 14.109375 46.140625 10.015625 43.890625 
L 10.015625 52.203125 
Q 14.9375 54.109375 19.578125 55.046875 
Q 24.21875 56 28.609375 56 
Q 40.484375 56 46.34375 49.84375 
Q 52.203125 43.703125 52.203125 31.203125 
z
" id="DejaVuSans-97"/>
      <path d="M 44.28125 53.078125 
L 44.28125 44.578125 
Q 40.484375 46.53125 36.375 47.5 
Q 32.28125 48.484375 27.875 48.484375 
Q 21.1875 48.484375 17.84375 46.4375 
Q 14.5 44.390625 14.5 40.28125 
Q 14.5 37.15625 16.890625 35.375 
Q 19.28125 33.59375 26.515625 31.984375 
L 29.59375 31.296875 
Q 39.15625 29.25 43.1875 25.515625 
Q 47.21875 21.78125 47.21875 15.09375 
Q 47.21875 7.46875 41.1875 3.015625 
Q 35.15625 -1.421875 24.609375 -1.421875 
Q 20.21875 -1.421875 15.453125 -0.5625 
Q 10.6875 0.296875 5.421875 2 
L 5.421875 11.28125 
Q 10.40625 8.6875 15.234375 7.390625 
Q 20.0625 6.109375 24.8125 6.109375 
Q 31.15625 6.109375 34.5625 8.28125 
Q 37.984375 10.453125 37.984375 14.40625 
Q 37.984375 18.0625 35.515625 20.015625 
Q 33.0625 21.96875 24.703125 23.78125 
L 21.578125 24.515625 
Q 13.234375 26.265625 9.515625 29.90625 
Q 5.8125 33.546875 5.8125 39.890625 
Q 5.8125 47.609375 11.28125 51.796875 
Q 16.75 56 26.8125 56 
Q 31.78125 56 36.171875 55.265625 
Q 40.578125 54.546875 44.28125 53.078125 
z
" id="DejaVuSans-115"/>
      <path d="M 56.203125 29.59375 
L 56.203125 25.203125 
L 14.890625 25.203125 
Q 15.484375 15.921875 20.484375 11.0625 
Q 25.484375 6.203125 34.421875 6.203125 
Q 39.59375 6.203125 44.453125 7.46875 
Q 49.3125 8.734375 54.109375 11.28125 
L 54.109375 2.78125 
Q 49.265625 0.734375 44.1875 -0.34375 
Q 39.109375 -1.421875 33.890625 -1.421875 
Q 20.796875 -1.421875 13.15625 6.1875 
Q 5.515625 13.8125 5.515625 26.8125 
Q 5.515625 40.234375 12.765625 48.109375 
Q 20.015625 56 32.328125 56 
Q 43.359375 56 49.78125 48.890625 
Q 56.203125 41.796875 56.203125 29.59375 
z
M 47.21875 32.234375 
Q 47.125 39.59375 43.09375 43.984375 
Q 39.0625 48.390625 32.421875 48.390625 
Q 24.90625 48.390625 20.390625 44.140625 
Q 15.875 39.890625 15.1875 32.171875 
z
" id="DejaVuSans-101"/>
     </defs>
     <g transform="translate(492.225313 59.237813)scale(0.14 -0.14)">
      <use xlink:href="#DejaVuSans-98"/>
      <use x="63.476562" xlink:href="#DejaVuSans-97"/>
      <use x="124.755859" xlink:href="#DejaVuSans-115"/>
      <use x="176.855469" xlink:href="#DejaVuSans-101"/>
     </g>
    </g>
    <g id="patch_6">
     <path d="M 453.025313 79.787188 
L 481.025313 79.787188 
L 481.025313 69.987188 
L 453.025313 69.987188 
z
" style="fill:#36a2eb;opacity:0.5;stroke:#36a2eb;stroke-linejoin:miter;"/>
    </g>
    <g id="text_2">
     <!-- fifth -->
     <defs>
      <path d="M 37.109375 75.984375 
L 37.109375 68.5 
L 28.515625 68.5 
Q 23.6875 68.5 21.796875 66.546875 
Q 19.921875 64.59375 19.921875 59.515625 
L 19.921875 54.6875 
L 34.71875 54.6875 
L 34.71875 47.703125 
L 19.921875 47.703125 
L 19.921875 0 
L 10.890625 0 
L 10.890625 47.703125 
L 2.296875 47.703125 
L 2.296875 54.6875 
L 10.890625 54.6875 
L 10.890625 58.5 
Q 10.890625 67.625 15.140625 71.796875 
Q 19.390625 75.984375 28.609375 75.984375 
z
" id="DejaVuSans-102"/>
      <path d="M 9.421875 54.6875 
L 18.40625 54.6875 
L 18.40625 0 
L 9.421875 0 
z
M 9.421875 75.984375 
L 18.40625 75.984375 
L 18.40625 64.59375 
L 9.421875 64.59375 
z
" id="DejaVuSans-105"/>
      <path d="M 18.3125 70.21875 
L 18.3125 54.6875 
L 36.8125 54.6875 
L 36.8125 47.703125 
L 18.3125 47.703125 
L 18.3125 18.015625 
Q 18.3125 11.328125 20.140625 9.421875 
Q 21.96875 7.515625 27.59375 7.515625 
L 36.8125 7.515625 
L 36.8125 0 
L 27.59375 0 
Q 17.1875 0 13.234375 3.875 
Q 9.28125 7.765625 9.28125 18.015625 
L 9.28125 47.703125 
L 2.6875 47.703125 
L 2.6875 54.6875 
L 9.28125 54.6875 
L 9.28125 70.21875 
z
" id="DejaVuSans-116"/>
      <path d="M 54.890625 33.015625 
L 54.890625 0 
L 45.90625 0 
L 45.90625 32.71875 
Q 45.90625 40.484375 42.875 44.328125 
Q 39.84375 48.1875 33.796875 48.1875 
Q 26.515625 48.1875 22.3125 43.546875 
Q 18.109375 38.921875 18.109375 30.90625 
L 18.109375 0 
L 9.078125 0 
L 9.078125 75.984375 
L 18.109375 75.984375 
L 18.109375 46.1875 
Q 21.34375 51.125 25.703125 53.5625 
Q 30.078125 56 35.796875 56 
Q 45.21875 56 50.046875 50.171875 
Q 54.890625 44.34375 54.890625 33.015625 
z
" id="DejaVuSans-104"/>
     </defs>
     <g transform="translate(492.225313 79.787188)scale(0.14 -0.14)">
      <use xlink:href="#DejaVuSans-102"/>
      <use x="35.205078" xlink:href="#DejaVuSans-105"/>
      <use x="62.988281" xlink:href="#DejaVuSans-102"/>
      <use x="98.177734" xlink:href="#DejaVuSans-116"/>
      <use x="137.386719" xlink:href="#DejaVuSans-104"/>
     </g>
    </g>
    <g id="patch_7">
     <path d="M 453.025313 100.336563 
L 481.025313 100.336563 
L 481.025313 90.536563 
L 453.025313 90.536563 
z
" style="fill:#4bc0c0;opacity:0.5;stroke:#4bc0c0;stroke-linejoin:miter;"/>
    </g>
    <g id="text_3">
     <!-- mid -->
     <defs>
      <path d="M 52 44.1875 
Q 55.375 50.25 60.0625 53.125 
Q 64.75 56 71.09375 56 
Q 79.640625 56 84.28125 50.015625 
Q 88.921875 44.046875 88.921875 33.015625 
L 88.921875 0 
L 79.890625 0 
L 79.890625 32.71875 
Q 79.890625 40.578125 77.09375 44.375 
Q 74.3125 48.1875 68.609375 48.1875 
Q 61.625 48.1875 57.5625 43.546875 
Q 53.515625 38.921875 53.515625 30.90625 
L 53.515625 0 
L 44.484375 0 
L 44.484375 32.71875 
Q 44.484375 40.625 41.703125 44.40625 
Q 38.921875 48.1875 33.109375 48.1875 
Q 26.21875 48.1875 22.15625 43.53125 
Q 18.109375 38.875 18.109375 30.90625 
L 18.109375 0 
L 9.078125 0 
L 9.078125 54.6875 
L 18.109375 54.6875 
L 18.109375 46.1875 
Q 21.1875 51.21875 25.484375 53.609375 
Q 29.78125 56 35.6875 56 
Q 41.65625 56 45.828125 52.96875 
Q 50 49.953125 52 44.1875 
z
" id="DejaVuSans-109"/>
      <path d="M 45.40625 46.390625 
L 45.40625 75.984375 
L 54.390625 75.984375 
L 54.390625 0 
L 45.40625 0 
L 45.40625 8.203125 
Q 42.578125 3.328125 38.25 0.953125 
Q 33.9375 -1.421875 27.875 -1.421875 
Q 17.96875 -1.421875 11.734375 6.484375 
Q 5.515625 14.40625 5.515625 27.296875 
Q 5.515625 40.1875 11.734375 48.09375 
Q 17.96875 56 27.875 56 
Q 33.9375 56 38.25 53.625 
Q 42.578125 51.265625 45.40625 46.390625 
z
M 14.796875 27.296875 
Q 14.796875 17.390625 18.875 11.75 
Q 22.953125 6.109375 30.078125 6.109375 
Q 37.203125 6.109375 41.296875 11.75 
Q 45.40625 17.390625 45.40625 27.296875 
Q 45.40625 37.203125 41.296875 42.84375 
Q 37.203125 48.484375 30.078125 48.484375 
Q 22.953125 48.484375 18.875 42.84375 
Q 14.796875 37.203125 14.796875 27.296875 
z
" id="DejaVuSans-100"/>
     </defs>
     <g transform="translate(492.225313 100.336563)scale(0.14 -0.14)">
      <use xlink:href="#DejaVuSans-109"/>
      <use x="97.412109" xlink:href="#DejaVuSans-105"/>
      <use x="125.195312" xlink:href="#DejaVuSans-100"/>
     </g>
    </g>
    <g id="patch_8">
     <path d="M 453.025313 120.885938 
L 481.025313 120.885938 
L 481.025313 111.085938 
L 453.025313 111.085938 
z
" style="fill:#9966ff;opacity:0.5;stroke:#9966ff;stroke-linejoin:miter;"/>
    </g>
    <g id="text_4">
     <!-- right -->
     <defs>
      <path d="M 41.109375 46.296875 
Q 39.59375 47.171875 37.8125 47.578125 
Q 36.03125 48 33.890625 48 
Q 26.265625 48 22.1875 43.046875 
Q 18.109375 38.09375 18.109375 28.8125 
L 18.109375 0 
L 9.078125 0 
L 9.078125 54.6875 
L 18.109375 54.6875 
L 18.109375 46.1875 
Q 20.953125 51.171875 25.484375 53.578125 
Q 30.03125 56 36.53125 56 
Q 37.453125 56 38.578125 55.875 
Q 39.703125 55.765625 41.0625 55.515625 
z
" id="DejaVuSans-114"/>
      <path d="M 45.40625 27.984375 
Q 45.40625 37.75 41.375 43.109375 
Q 37.359375 48.484375 30.078125 48.484375 
Q 22.859375 48.484375 18.828125 43.109375 
Q 14.796875 37.75 14.796875 27.984375 
Q 14.796875 18.265625 18.828125 12.890625 
Q 22.859375 7.515625 30.078125 7.515625 
Q 37.359375 7.515625 41.375 12.890625 
Q 45.40625 18.265625 45.40625 27.984375 
z
M 54.390625 6.78125 
Q 54.390625 -7.171875 48.1875 -13.984375 
Q 42 -20.796875 29.203125 -20.796875 
Q 24.46875 -20.796875 20.265625 -20.09375 
Q 16.0625 -19.390625 12.109375 -17.921875 
L 12.109375 -9.1875 
Q 16.0625 -11.328125 19.921875 -12.34375 
Q 23.78125 -13.375 27.78125 -13.375 
Q 36.625 -13.375 41.015625 -8.765625 
Q 45.40625 -4.15625 45.40625 5.171875 
L 45.40625 9.625 
Q 42.625 4.78125 38.28125 2.390625 
Q 33.9375 0 27.875 0 
Q 17.828125 0 11.671875 7.65625 
Q 5.515625 15.328125 5.515625 27.984375 
Q 5.515625 40.671875 11.671875 48.328125 
Q 17.828125 56 27.875 56 
Q 33.9375 56 38.28125 53.609375 
Q 42.625 51.21875 45.40625 46.390625 
L 45.40625 54.6875 
L 54.390625 54.6875 
z
" id="DejaVuSans-103"/>
     </defs>
     <g transform="translate(492.225313 120.885938)scale(0.14 -0.14)">
      <use xlink:href="#DejaVuSans-114"/>
      <use x="41.113281" xlink:href="#DejaVuSans-105"/>
      <use x="68.896484" xlink:href="#DejaVuSans-103"/>
      <use x="132.373047" xlink:href="#DejaVuSans-104"/>
      <use x="195.751953" xlink:href="#DejaVuSans-116"/>
     </g>
    </g>
   </g>
  </g>
  <g id="axes_2">
   <g id="patch_9">
    <path d="M 36 525.24 
L 538.2 525.24 
L 538.2 402.93 
L 36 402.93 
z
" style="fill:none;"/>
   </g>
   <g id="patch_10">
    <path clip-path="url(#p3657c5613d)" d="M 181.838651 519.680455 
L 390.965418 519.680455 
L 390.965418 503.796039 
L 181.838651 503.796039 
z
" style="fill:#ff6384;opacity:0.5;"/>
   </g>
   <g id="patch_11">
    <path clip-path="url(#p3657c5613d)" d="M 182.047565 487.911623 
L 390.756504 487.911623 
L 390.756504 472.027208 
L 182.047565 472.027208 
z
" style="fill:#36a2eb;opacity:0.5;"/>
   </g>
   <g id="patch_12">
    <path clip-path="url(#p3657c5613d)" d="M 167.290692 456.142792 
L 375.710596 456.142792 
L 375.710596 440.258377 
L 167.290692 440.258377 
z
" style="fill:#4bc0c0;opacity:0.5;"/>
   </g>
   <g id="patch_13">
    <path clip-path="url(#p3657c5613d)" d="M 196.409467 424.373961 
L 406.197383 424.373961 
L 406.197383 408.489545 
L 196.409467 408.489545 
z
" style="fill:#9966ff;opacity:0.5;"/>
   </g>
   <g id="matplotlib.axis_1">
    <g id="xtick_1">
     <g id="line2d_5">
      <defs>
       <path d="M 0 0 
L 0 3.5 
" id="ma8c4857370" style="stroke:#000000;stroke-width:0.8;"/>
      </defs>
      <g>
       <use style="stroke:#000000;stroke-width:0.8;" x="74.471145" xlink:href="#ma8c4857370" y="525.24"/>
      </g>
     </g>
     <g id="text_5">
      <!-- 6.0 -->
      <defs>
       <path d="M 33.015625 40.375 
Q 26.375 40.375 22.484375 35.828125 
Q 18.609375 31.296875 18.609375 23.390625 
Q 18.609375 15.53125 22.484375 10.953125 
Q 26.375 6.390625 33.015625 6.390625 
Q 39.65625 6.390625 43.53125 10.953125 
Q 47.40625 15.53125 47.40625 23.390625 
Q 47.40625 31.296875 43.53125 35.828125 
Q 39.65625 40.375 33.015625 40.375 
z
M 52.59375 71.296875 
L 52.59375 62.3125 
Q 48.875 64.0625 45.09375 64.984375 
Q 41.3125 65.921875 37.59375 65.921875 
Q 27.828125 65.921875 22.671875 59.328125 
Q 17.53125 52.734375 16.796875 39.40625 
Q 19.671875 43.65625 24.015625 45.921875 
Q 28.375 48.1875 33.59375 48.1875 
Q 44.578125 48.1875 50.953125 41.515625 
Q 57.328125 34.859375 57.328125 23.390625 
Q 57.328125 12.15625 50.6875 5.359375 
Q 44.046875 -1.421875 33.015625 -1.421875 
Q 20.359375 -1.421875 13.671875 8.265625 
Q 6.984375 17.96875 6.984375 36.375 
Q 6.984375 53.65625 15.1875 63.9375 
Q 23.390625 74.21875 37.203125 74.21875 
Q 40.921875 74.21875 44.703125 73.484375 
Q 48.484375 72.75 52.59375 71.296875 
z
" id="DejaVuSans-54"/>
       <path d="M 10.6875 12.40625 
L 21 12.40625 
L 21 0 
L 10.6875 0 
z
" id="DejaVuSans-46"/>
       <path d="M 31.78125 66.40625 
Q 24.171875 66.40625 20.328125 58.90625 
Q 16.5 51.421875 16.5 36.375 
Q 16.5 21.390625 20.328125 13.890625 
Q 24.171875 6.390625 31.78125 6.390625 
Q 39.453125 6.390625 43.28125 13.890625 
Q 47.125 21.390625 47.125 36.375 
Q 47.125 51.421875 43.28125 58.90625 
Q 39.453125 66.40625 31.78125 66.40625 
z
M 31.78125 74.21875 
Q 44.046875 74.21875 50.515625 64.515625 
Q 56.984375 54.828125 56.984375 36.375 
Q 56.984375 17.96875 50.515625 8.265625 
Q 44.046875 -1.421875 31.78125 -1.421875 
Q 19.53125 -1.421875 13.0625 8.265625 
Q 6.59375 17.96875 6.59375 36.375 
Q 6.59375 54.828125 13.0625 64.515625 
Q 19.53125 74.21875 31.78125 74.21875 
z
" id="DejaVuSans-48"/>
      </defs>
      <g transform="translate(63.338957 542.877813)scale(0.14 -0.14)">
       <use xlink:href="#DejaVuSans-54"/>
       <use x="63.623047" xlink:href="#DejaVuSans-46"/>
       <use x="95.410156" xlink:href="#DejaVuSans-48"/>
      </g>
     </g>
    </g>
    <g id="xtick_2">
     <g id="line2d_6">
      <g>
       <use style="stroke:#000000;stroke-width:0.8;" x="157.256649" xlink:href="#ma8c4857370" y="525.24"/>
      </g>
     </g>
     <g id="text_6">
      <!-- 6.5 -->
      <defs>
       <path d="M 10.796875 72.90625 
L 49.515625 72.90625 
L 49.515625 64.59375 
L 19.828125 64.59375 
L 19.828125 46.734375 
Q 21.96875 47.46875 24.109375 47.828125 
Q 26.265625 48.1875 28.421875 48.1875 
Q 40.625 48.1875 47.75 41.5 
Q 54.890625 34.8125 54.890625 23.390625 
Q 54.890625 11.625 47.5625 5.09375 
Q 40.234375 -1.421875 26.90625 -1.421875 
Q 22.3125 -1.421875 17.546875 -0.640625 
Q 12.796875 0.140625 7.71875 1.703125 
L 7.71875 11.625 
Q 12.109375 9.234375 16.796875 8.0625 
Q 21.484375 6.890625 26.703125 6.890625 
Q 35.15625 6.890625 40.078125 11.328125 
Q 45.015625 15.765625 45.015625 23.390625 
Q 45.015625 31 40.078125 35.4375 
Q 35.15625 39.890625 26.703125 39.890625 
Q 22.75 39.890625 18.8125 39.015625 
Q 14.890625 38.140625 10.796875 36.28125 
z
" id="DejaVuSans-53"/>
      </defs>
      <g transform="translate(146.124461 542.877813)scale(0.14 -0.14)">
       <use xlink:href="#DejaVuSans-54"/>
       <use x="63.623047" xlink:href="#DejaVuSans-46"/>
       <use x="95.410156" xlink:href="#DejaVuSans-53"/>
      </g>
     </g>
    </g>
    <g id="xtick_3">
     <g id="line2d_7">
      <g>
       <use style="stroke:#000000;stroke-width:0.8;" x="240.042152" xlink:href="#ma8c4857370" y="525.24"/>
      </g>
     </g>
     <g id="text_7">
      <!-- 7.0 -->
      <defs>
       <path d="M 8.203125 72.90625 
L 55.078125 72.90625 
L 55.078125 68.703125 
L 28.609375 0 
L 18.3125 0 
L 43.21875 64.59375 
L 8.203125 64.59375 
z
" id="DejaVuSans-55"/>
      </defs>
      <g transform="translate(228.909965 542.877813)scale(0.14 -0.14)">
       <use xlink:href="#DejaVuSans-55"/>
       <use x="63.623047" xlink:href="#DejaVuSans-46"/>
       <use x="95.410156" xlink:href="#DejaVuSans-48"/>
      </g>
     </g>
    </g>
    <g id="xtick_4">
     <g id="line2d_8">
      <g>
       <use style="stroke:#000000;stroke-width:0.8;" x="322.827656" xlink:href="#ma8c4857370" y="525.24"/>
      </g>
     </g>
     <g id="text_8">
      <!-- 7.5 -->
      <g transform="translate(311.695469 542.877813)scale(0.14 -0.14)">
       <use xlink:href="#DejaVuSans-55"/>
       <use x="63.623047" xlink:href="#DejaVuSans-46"/>
       <use x="95.410156" xlink:href="#DejaVuSans-53"/>
      </g>
     </g>
    </g>
    <g id="xtick_5">
     <g id="line2d_9">
      <g>
       <use style="stroke:#000000;stroke-width:0.8;" x="405.61316" xlink:href="#ma8c4857370" y="525.24"/>
      </g>
     </g>
     <g id="text_9">
      <!-- 8.0 -->
      <defs>
       <path d="M 31.78125 34.625 
Q 24.75 34.625 20.71875 30.859375 
Q 16.703125 27.09375 16.703125 20.515625 
Q 16.703125 13.921875 20.71875 10.15625 
Q 24.75 6.390625 31.78125 6.390625 
Q 38.8125 6.390625 42.859375 10.171875 
Q 46.921875 13.96875 46.921875 20.515625 
Q 46.921875 27.09375 42.890625 30.859375 
Q 38.875 34.625 31.78125 34.625 
z
M 21.921875 38.8125 
Q 15.578125 40.375 12.03125 44.71875 
Q 8.5 49.078125 8.5 55.328125 
Q 8.5 64.0625 14.71875 69.140625 
Q 20.953125 74.21875 31.78125 74.21875 
Q 42.671875 74.21875 48.875 69.140625 
Q 55.078125 64.0625 55.078125 55.328125 
Q 55.078125 49.078125 51.53125 44.71875 
Q 48 40.375 41.703125 38.8125 
Q 48.828125 37.15625 52.796875 32.3125 
Q 56.78125 27.484375 56.78125 20.515625 
Q 56.78125 9.90625 50.3125 4.234375 
Q 43.84375 -1.421875 31.78125 -1.421875 
Q 19.734375 -1.421875 13.25 4.234375 
Q 6.78125 9.90625 6.78125 20.515625 
Q 6.78125 27.484375 10.78125 32.3125 
Q 14.796875 37.15625 21.921875 38.8125 
z
M 18.3125 54.390625 
Q 18.3125 48.734375 21.84375 45.5625 
Q 25.390625 42.390625 31.78125 42.390625 
Q 38.140625 42.390625 41.71875 45.5625 
Q 45.3125 48.734375 45.3125 54.390625 
Q 45.3125 60.0625 41.71875 63.234375 
Q 38.140625 66.40625 31.78125 66.40625 
Q 25.390625 66.40625 21.84375 63.234375 
Q 18.3125 60.0625 18.3125 54.390625 
z
" id="DejaVuSans-56"/>
      </defs>
      <g transform="translate(394.480972 542.877813)scale(0.14 -0.14)">
       <use xlink:href="#DejaVuSans-56"/>
       <use x="63.623047" xlink:href="#DejaVuSans-46"/>
       <use x="95.410156" xlink:href="#DejaVuSans-48"/>
      </g>
     </g>
    </g>
    <g id="xtick_6">
     <g id="line2d_10">
      <g>
       <use style="stroke:#000000;stroke-width:0.8;" x="488.398664" xlink:href="#ma8c4857370" y="525.24"/>
      </g>
     </g>
     <g id="text_10">
      <!-- 8.5 -->
      <g transform="translate(477.266476 542.877813)scale(0.14 -0.14)">
       <use xlink:href="#DejaVuSans-56"/>
       <use x="63.623047" xlink:href="#DejaVuSans-46"/>
       <use x="95.410156" xlink:href="#DejaVuSans-53"/>
      </g>
     </g>
    </g>
   </g>
   <g id="line2d_11">
    <path clip-path="url(#p3657c5613d)" d="M 286.402034 525.24 
L 286.402034 402.93 
" style="fill:none;stroke:#ff6384;stroke-dasharray:5.55,2.4;stroke-dashoffset:0;stroke-opacity:0.8;stroke-width:1.5;"/>
   </g>
   <g id="line2d_12">
    <path clip-path="url(#p3657c5613d)" d="M 286.402034 525.24 
L 286.402034 402.93 
" style="fill:none;stroke:#36a2eb;stroke-dasharray:5.55,2.4;stroke-dashoffset:0;stroke-opacity:0.8;stroke-width:1.5;"/>
   </g>
   <g id="line2d_13">
    <path clip-path="url(#p3657c5613d)" d="M 271.500644 525.24 
L 271.500644 402.93 
" style="fill:none;stroke:#4bc0c0;stroke-dasharray:5.55,2.4;stroke-dashoffset:0;stroke-opacity:0.8;stroke-width:1.5;"/>
   </g>
   <g id="line2d_14">
    <path clip-path="url(#p3657c5613d)" d="M 301.303425 525.24 
L 301.303425 402.93 
" style="fill:none;stroke:#9966ff;stroke-dasharray:5.55,2.4;stroke-dashoffset:0;stroke-opacity:0.8;stroke-width:1.5;"/>
   </g>
   <g id="patch_14">
    <path d="M 36 525.24 
L 538.2 525.24 
" style="fill:none;stroke:#000000;stroke-linecap:square;stroke-linejoin:miter;stroke-width:0.8;"/>
   </g>
  </g>
 </g>
 <defs>
  <clipPath id="p196613b366">
   <rect height="366.93" width="502.2" x="36" y="36"/>
  </clipPath>
  <clipPath id="p3657c5613d">
   <rect height="122.31" width="502.2" x="36" y="402.93"/>
  </clipPath>
 </defs>
</svg>
