<?xml version="1.0" encoding="utf-8" standalone="no"?>
<!DOCTYPE svg PUBLIC "-//W3C//DTD SVG 1.1//EN"
  "http://www.w3.org/Graphics/SVG/1.1/DTD/svg11.dtd">
<!-- Created with matplotlib (https://matplotlib.org/) -->
<svg height="581.789375pt" version="1.1" viewBox="0 0 574.2 581.789375" width="574.2pt" xmlns="http://www.w3.org/2000/svg" xmlns:xlink="http://www.w3.org/1999/xlink">
 <defs>
  <style type="text/css">
*{stroke-linecap:butt;stroke-linejoin:round;}
  </style>
 </defs>
 <g id="figure_1">
  <g id="patch_1">
   <path d="M 0 581.789375 
L 574.2 581.789375 
L 574.2 0 
L 0 0 
z
" style="fill:none;"/>
  </g>
  <g id="axes_1">
   <g id="patch_2">
    <path d="M 36 402.93 
L 538.2 402.93 
L 538.2 36 
L 36 36 
z
" style="fill:none;"/>
   </g>
   <g id="PolyCollection_1">
    <defs>
     <path d="M 74.427332 -195.538011 
L 74.427332 -195.64958 
L 78.777751 -195.691651 
L 83.12817 -195.748209 
L 87.478589 -195.823715 
L 91.829008 -195.923817 
L 96.179427 -196.0556 
L 100.529845 -196.227878 
L 104.880264 -196.451514 
L 109.230683 -196.739773 
L 113.581102 -197.108703 
L 117.931521 -197.577531 
L 122.28194 -198.169059 
L 126.632358 -198.910058 
L 130.982777 -199.831622 
L 135.333196 -200.969461 
L 139.683615 -202.364116 
L 144.034034 -204.061044 
L 148.384453 -206.110556 
L 152.734871 -208.567547 
L 157.08529 -211.491014 
L 161.435709 -214.943297 
L 165.786128 -218.989029 
L 170.136547 -223.693783 
L 174.486966 -229.122386 
L 178.837384 -235.336921 
L 183.187803 -242.394437 
L 187.538222 -250.344405 
L 191.888641 -259.225977 
L 196.23906 -269.065139 
L 200.589479 -279.871858 
L 204.939897 -291.637328 
L 209.290316 -304.331467 
L 213.640735 -317.900788 
L 217.991154 -332.266796 
L 222.341573 -347.325042 
L 226.691992 -362.944951 
L 231.04241 -378.97053 
L 235.392829 -395.222019 
L 239.743248 -411.498508 
L 244.093667 -427.581524 
L 248.444086 -443.239506 
L 252.794505 -458.233069 
L 257.144923 -472.320913 
L 261.495342 -485.266162 
L 265.845761 -496.842923 
L 270.19618 -506.842805 
L 274.546599 -515.081142 
L 278.897018 -521.402657 
L 283.247436 -525.686325 
L 287.597855 -527.84923 
L 291.948274 -527.84923 
L 296.298693 -525.686325 
L 300.649112 -521.402657 
L 304.999531 -515.081142 
L 309.349949 -506.842805 
L 313.700368 -496.842923 
L 318.050787 -485.266162 
L 322.401206 -472.320913 
L 326.751625 -458.233069 
L 331.102044 -443.239506 
L 335.452462 -427.581524 
L 339.802881 -411.498508 
L 344.1533 -395.222019 
L 348.503719 -378.97053 
L 352.854138 -362.944951 
L 357.204556 -347.325042 
L 361.554975 -332.266796 
L 365.905394 -317.900788 
L 370.255813 -304.331467 
L 374.606232 -291.637328 
L 378.956651 -279.871858 
L 383.307069 -269.065139 
L 387.657488 -259.225977 
L 392.007907 -250.344405 
L 396.358326 -242.394437 
L 400.708745 -235.336921 
L 405.059164 -229.122386 
L 409.409582 -223.693783 
L 413.760001 -218.989029 
L 418.11042 -214.943297 
L 422.460839 -211.491014 
L 426.811258 -208.567547 
L 431.161677 -206.110556 
L 435.512095 -204.061044 
L 439.862514 -202.364116 
L 444.212933 -200.969461 
L 448.563352 -199.831622 
L 452.913771 -198.910058 
L 457.26419 -198.169059 
L 461.614608 -197.577531 
L 465.965027 -197.108703 
L 470.315446 -196.739773 
L 474.665865 -196.451514 
L 479.016284 -196.227878 
L 483.366703 -196.0556 
L 487.717121 -195.923817 
L 492.06754 -195.823715 
L 496.417959 -195.748209 
L 500.768378 -195.691651 
L 505.118797 -195.64958 
L 505.118797 -195.538011 
L 505.118797 -195.538011 
L 500.768378 -195.538011 
L 496.417959 -195.538011 
L 492.06754 -195.538011 
L 487.717121 -195.538011 
L 483.366703 -195.538011 
L 479.016284 -195.538011 
L 474.665865 -195.538011 
L 470.315446 -195.538011 
L 465.965027 -195.538011 
L 461.614608 -195.538011 
L 457.26419 -195.538011 
L 452.913771 -195.538011 
L 448.563352 -195.538011 
L 444.212933 -195.538011 
L 439.862514 -195.538011 
L 435.512095 -195.538011 
L 431.161677 -195.538011 
L 426.811258 -195.538011 
L 422.460839 -195.538011 
L 418.11042 -195.538011 
L 413.760001 -195.538011 
L 409.409582 -195.538011 
L 405.059164 -195.538011 
L 400.708745 -195.538011 
L 396.358326 -195.538011 
L 392.007907 -195.538011 
L 387.657488 -195.538011 
L 383.307069 -195.538011 
L 378.956651 -195.538011 
L 374.606232 -195.538011 
L 370.255813 -195.538011 
L 365.905394 -195.538011 
L 361.554975 -195.538011 
L 357.204556 -195.538011 
L 352.854138 -195.538011 
L 348.503719 -195.538011 
L 344.1533 -195.538011 
L 339.802881 -195.538011 
L 335.452462 -195.538011 
L 331.102044 -195.538011 
L 326.751625 -195.538011 
L 322.401206 -195.538011 
L 318.050787 -195.538011 
L 313.700368 -195.538011 
L 309.349949 -195.538011 
L 304.999531 -195.538011 
L 300.649112 -195.538011 
L 296.298693 -195.538011 
L 291.948274 -195.538011 
L 287.597855 -195.538011 
L 283.247436 -195.538011 
L 278.897018 -195.538011 
L 274.546599 -195.538011 
L 270.19618 -195.538011 
L 265.845761 -195.538011 
L 261.495342 -195.538011 
L 257.144923 -195.538011 
L 252.794505 -195.538011 
L 248.444086 -195.538011 
L 244.093667 -195.538011 
L 239.743248 -195.538011 
L 235.392829 -195.538011 
L 231.04241 -195.538011 
L 226.691992 -195.538011 
L 222.341573 -195.538011 
L 217.991154 -195.538011 
L 213.640735 -195.538011 
L 209.290316 -195.538011 
L 204.939897 -195.538011 
L 200.589479 -195.538011 
L 196.23906 -195.538011 
L 191.888641 -195.538011 
L 187.538222 -195.538011 
L 183.187803 -195.538011 
L 178.837384 -195.538011 
L 174.486966 -195.538011 
L 170.136547 -195.538011 
L 165.786128 -195.538011 
L 161.435709 -195.538011 
L 157.08529 -195.538011 
L 152.734871 -195.538011 
L 148.384453 -195.538011 
L 144.034034 -195.538011 
L 139.683615 -195.538011 
L 135.333196 -195.538011 
L 130.982777 -195.538011 
L 126.632358 -195.538011 
L 122.28194 -195.538011 
L 117.931521 -195.538011 
L 113.581102 -195.538011 
L 109.230683 -195.538011 
L 104.880264 -195.538011 
L 100.529845 -195.538011 
L 96.179427 -195.538011 
L 91.829008 -195.538011 
L 87.478589 -195.538011 
L 83.12817 -195.538011 
L 78.777751 -195.538011 
L 74.427332 -195.538011 
z
" id="mbcde917568" style="stroke:#ff6384;stroke-opacity:0.5;"/>
    </defs>
    <g clip-path="url(#p2e2232e508)">
     <use style="fill:#ff6384;fill-opacity:0.5;stroke:#ff6384;stroke-opacity:0.5;" x="0" xlink:href="#mbcde917568" y="581.789375"/>
    </g>
   </g>
   <g id="PolyCollection_2">
    <defs>
     <path d="M 68.556738 -195.538011 
L 68.556738 -195.649942 
L 72.893113 -195.692149 
L 77.229488 -195.74889 
L 81.565862 -195.82464 
L 85.902237 -195.925066 
L 90.238611 -196.057276 
L 94.574986 -196.230112 
L 98.911361 -196.454472 
L 103.247735 -196.743665 
L 107.58411 -197.11379 
L 111.920485 -197.584136 
L 116.256859 -198.17758 
L 120.593234 -198.920979 
L 124.929608 -199.845527 
L 129.265983 -200.987051 
L 133.602358 -202.386223 
L 137.938732 -204.088648 
L 142.275107 -206.144797 
L 146.611481 -208.609746 
L 150.947856 -211.542681 
L 155.284231 -215.006144 
L 159.620605 -219.06498 
L 163.95698 -223.784971 
L 168.293355 -229.231156 
L 172.629729 -235.465817 
L 176.966104 -242.546191 
L 181.302478 -250.521906 
L 185.638853 -259.432243 
L 189.975228 -269.303272 
L 194.311602 -280.14499 
L 198.647977 -291.948565 
L 202.984352 -304.683816 
L 207.320726 -318.297084 
L 211.657101 -332.709619 
L 215.993475 -347.816634 
L 220.32985 -363.487132 
L 224.666225 -379.564613 
L 229.002599 -395.868735 
L 233.338974 -412.197939 
L 237.675349 -428.333043 
L 242.011723 -444.041736 
L 246.348098 -459.083859 
L 250.684472 -473.217329 
L 255.020847 -486.204504 
L 259.357222 -497.818758 
L 263.693596 -507.851027 
L 268.029971 -516.116046 
L 272.366346 -522.458034 
L 276.70272 -526.755576 
L 281.039095 -528.925486 
L 285.375469 -528.925486 
L 289.711844 -526.755576 
L 294.048219 -522.458034 
L 298.384593 -516.116046 
L 302.720968 -507.851027 
L 307.057343 -497.818758 
L 311.393717 -486.204504 
L 315.730092 -473.217329 
L 320.066466 -459.083859 
L 324.402841 -444.041736 
L 328.739216 -428.333043 
L 333.07559 -412.197939 
L 337.411965 -395.868735 
L 341.748339 -379.564613 
L 346.084714 -363.487132 
L 350.421089 -347.816634 
L 354.757463 -332.709619 
L 359.093838 -318.297084 
L 363.430213 -304.683816 
L 367.766587 -291.948565 
L 372.102962 -280.14499 
L 376.439336 -269.303272 
L 380.775711 -259.432243 
L 385.112086 -250.521906 
L 389.44846 -242.546191 
L 393.784835 -235.465817 
L 398.12121 -229.231156 
L 402.457584 -223.784971 
L 406.793959 -219.06498 
L 411.130333 -215.006144 
L 415.466708 -211.542681 
L 419.803083 -208.609746 
L 424.139457 -206.144797 
L 428.475832 -204.088648 
L 432.812207 -202.386223 
L 437.148581 -200.987051 
L 441.484956 -199.845527 
L 445.82133 -198.920979 
L 450.157705 -198.17758 
L 454.49408 -197.584136 
L 458.830454 -197.11379 
L 463.166829 -196.743665 
L 467.503204 -196.454472 
L 471.839578 -196.230112 
L 476.175953 -196.057276 
L 480.512327 -195.925066 
L 484.848702 -195.82464 
L 489.185077 -195.74889 
L 493.521451 -195.692149 
L 497.857826 -195.649942 
L 497.857826 -195.538011 
L 497.857826 -195.538011 
L 493.521451 -195.538011 
L 489.185077 -195.538011 
L 484.848702 -195.538011 
L 480.512327 -195.538011 
L 476.175953 -195.538011 
L 471.839578 -195.538011 
L 467.503204 -195.538011 
L 463.166829 -195.538011 
L 458.830454 -195.538011 
L 454.49408 -195.538011 
L 450.157705 -195.538011 
L 445.82133 -195.538011 
L 441.484956 -195.538011 
L 437.148581 -195.538011 
L 432.812207 -195.538011 
L 428.475832 -195.538011 
L 424.139457 -195.538011 
L 419.803083 -195.538011 
L 415.466708 -195.538011 
L 411.130333 -195.538011 
L 406.793959 -195.538011 
L 402.457584 -195.538011 
L 398.12121 -195.538011 
L 393.784835 -195.538011 
L 389.44846 -195.538011 
L 385.112086 -195.538011 
L 380.775711 -195.538011 
L 376.439336 -195.538011 
L 372.102962 -195.538011 
L 367.766587 -195.538011 
L 363.430213 -195.538011 
L 359.093838 -195.538011 
L 354.757463 -195.538011 
L 350.421089 -195.538011 
L 346.084714 -195.538011 
L 341.748339 -195.538011 
L 337.411965 -195.538011 
L 333.07559 -195.538011 
L 328.739216 -195.538011 
L 324.402841 -195.538011 
L 320.066466 -195.538011 
L 315.730092 -195.538011 
L 311.393717 -195.538011 
L 307.057343 -195.538011 
L 302.720968 -195.538011 
L 298.384593 -195.538011 
L 294.048219 -195.538011 
L 289.711844 -195.538011 
L 285.375469 -195.538011 
L 281.039095 -195.538011 
L 276.70272 -195.538011 
L 272.366346 -195.538011 
L 268.029971 -195.538011 
L 263.693596 -195.538011 
L 259.357222 -195.538011 
L 255.020847 -195.538011 
L 250.684472 -195.538011 
L 246.348098 -195.538011 
L 242.011723 -195.538011 
L 237.675349 -195.538011 
L 233.338974 -195.538011 
L 229.002599 -195.538011 
L 224.666225 -195.538011 
L 220.32985 -195.538011 
L 215.993475 -195.538011 
L 211.657101 -195.538011 
L 207.320726 -195.538011 
L 202.984352 -195.538011 
L 198.647977 -195.538011 
L 194.311602 -195.538011 
L 189.975228 -195.538011 
L 185.638853 -195.538011 
L 181.302478 -195.538011 
L 176.966104 -195.538011 
L 172.629729 -195.538011 
L 168.293355 -195.538011 
L 163.95698 -195.538011 
L 159.620605 -195.538011 
L 155.284231 -195.538011 
L 150.947856 -195.538011 
L 146.611481 -195.538011 
L 142.275107 -195.538011 
L 137.938732 -195.538011 
L 133.602358 -195.538011 
L 129.265983 -195.538011 
L 124.929608 -195.538011 
L 120.593234 -195.538011 
L 116.256859 -195.538011 
L 111.920485 -195.538011 
L 107.58411 -195.538011 
L 103.247735 -195.538011 
L 98.911361 -195.538011 
L 94.574986 -195.538011 
L 90.238611 -195.538011 
L 85.902237 -195.538011 
L 81.565862 -195.538011 
L 77.229488 -195.538011 
L 72.893113 -195.538011 
L 68.556738 -195.538011 
z
" id="m5c91a2a169" style="stroke:#36a2eb;stroke-opacity:0.5;"/>
    </defs>
    <g clip-path="url(#p2e2232e508)">
     <use style="fill:#36a2eb;fill-opacity:0.5;stroke:#36a2eb;stroke-opacity:0.5;" x="0" xlink:href="#m5c91a2a169" y="581.789375"/>
    </g>
   </g>
   <g id="PolyCollection_3">
    <defs>
     <path d="M 58.827273 -195.538011 
L 58.827273 -195.650004 
L 63.161239 -195.692234 
L 67.495205 -195.749007 
L 71.829172 -195.8248 
L 76.163138 -195.925281 
L 80.497105 -196.057565 
L 84.831071 -196.230497 
L 89.165037 -196.454982 
L 93.499004 -196.744335 
L 97.83297 -197.114666 
L 102.166936 -197.585273 
L 106.500903 -198.179047 
L 110.834869 -198.922859 
L 115.168836 -199.847921 
L 119.502802 -200.990079 
L 123.836768 -202.390029 
L 128.170735 -204.093399 
L 132.504701 -206.150691 
L 136.838667 -208.617009 
L 141.172634 -211.551575 
L 145.5066 -215.016962 
L 149.840567 -219.078053 
L 154.174533 -223.800667 
L 158.508499 -229.249878 
L 162.842466 -235.488004 
L 167.176432 -242.572312 
L 171.510398 -250.552459 
L 175.844365 -259.467747 
L 180.178331 -269.344261 
L 184.512298 -280.192004 
L 188.846264 -292.002137 
L 193.18023 -304.744465 
L 197.514197 -318.365297 
L 201.848163 -332.785841 
L 206.182129 -347.901251 
L 210.516096 -363.580456 
L 214.850062 -379.666871 
L 219.184029 -395.980052 
L 223.517995 -412.31833 
L 227.851961 -428.4624 
L 232.185928 -444.179822 
L 236.519894 -459.230303 
L 240.85386 -473.371627 
L 245.187827 -486.366018 
L 249.521793 -497.986726 
L 253.85576 -508.02457 
L 258.189726 -516.294181 
L 262.523692 -522.639693 
L 266.857659 -526.939623 
L 271.191625 -529.110739 
L 275.525591 -529.110739 
L 279.859558 -526.939623 
L 284.193524 -522.639693 
L 288.527491 -516.294181 
L 292.861457 -508.02457 
L 297.195423 -497.986726 
L 301.52939 -486.366018 
L 305.863356 -473.371627 
L 310.197322 -459.230303 
L 314.531289 -444.179822 
L 318.865255 -428.4624 
L 323.199222 -412.31833 
L 327.533188 -395.980052 
L 331.867154 -379.666871 
L 336.201121 -363.580456 
L 340.535087 -347.901251 
L 344.869053 -332.785841 
L 349.20302 -318.365297 
L 353.536986 -304.744465 
L 357.870953 -292.002137 
L 362.204919 -280.192004 
L 366.538885 -269.344261 
L 370.872852 -259.467747 
L 375.206818 -250.552459 
L 379.540784 -242.572312 
L 383.874751 -235.488004 
L 388.208717 -229.249878 
L 392.542684 -223.800667 
L 396.87665 -219.078053 
L 401.210616 -215.016962 
L 405.544583 -211.551575 
L 409.878549 -208.617009 
L 414.212515 -206.150691 
L 418.546482 -204.093399 
L 422.880448 -202.390029 
L 427.214415 -200.990079 
L 431.548381 -199.847921 
L 435.882347 -198.922859 
L 440.216314 -198.179047 
L 444.55028 -197.585273 
L 448.884246 -197.114666 
L 453.218213 -196.744335 
L 457.552179 -196.454982 
L 461.886146 -196.230497 
L 466.220112 -196.057565 
L 470.554078 -195.925281 
L 474.888045 -195.8248 
L 479.222011 -195.749007 
L 483.555977 -195.692234 
L 487.889944 -195.650004 
L 487.889944 -195.538011 
L 487.889944 -195.538011 
L 483.555977 -195.538011 
L 479.222011 -195.538011 
L 474.888045 -195.538011 
L 470.554078 -195.538011 
L 466.220112 -195.538011 
L 461.886146 -195.538011 
L 457.552179 -195.538011 
L 453.218213 -195.538011 
L 448.884246 -195.538011 
L 444.55028 -195.538011 
L 440.216314 -195.538011 
L 435.882347 -195.538011 
L 431.548381 -195.538011 
L 427.214415 -195.538011 
L 422.880448 -195.538011 
L 418.546482 -195.538011 
L 414.212515 -195.538011 
L 409.878549 -195.538011 
L 405.544583 -195.538011 
L 401.210616 -195.538011 
L 396.87665 -195.538011 
L 392.542684 -195.538011 
L 388.208717 -195.538011 
L 383.874751 -195.538011 
L 379.540784 -195.538011 
L 375.206818 -195.538011 
L 370.872852 -195.538011 
L 366.538885 -195.538011 
L 362.204919 -195.538011 
L 357.870953 -195.538011 
L 353.536986 -195.538011 
L 349.20302 -195.538011 
L 344.869053 -195.538011 
L 340.535087 -195.538011 
L 336.201121 -195.538011 
L 331.867154 -195.538011 
L 327.533188 -195.538011 
L 323.199222 -195.538011 
L 318.865255 -195.538011 
L 314.531289 -195.538011 
L 310.197322 -195.538011 
L 305.863356 -195.538011 
L 301.52939 -195.538011 
L 297.195423 -195.538011 
L 292.861457 -195.538011 
L 288.527491 -195.538011 
L 284.193524 -195.538011 
L 279.859558 -195.538011 
L 275.525591 -195.538011 
L 271.191625 -195.538011 
L 266.857659 -195.538011 
L 262.523692 -195.538011 
L 258.189726 -195.538011 
L 253.85576 -195.538011 
L 249.521793 -195.538011 
L 245.187827 -195.538011 
L 240.85386 -195.538011 
L 236.519894 -195.538011 
L 232.185928 -195.538011 
L 227.851961 -195.538011 
L 223.517995 -195.538011 
L 219.184029 -195.538011 
L 214.850062 -195.538011 
L 210.516096 -195.538011 
L 206.182129 -195.538011 
L 201.848163 -195.538011 
L 197.514197 -195.538011 
L 193.18023 -195.538011 
L 188.846264 -195.538011 
L 184.512298 -195.538011 
L 180.178331 -195.538011 
L 175.844365 -195.538011 
L 171.510398 -195.538011 
L 167.176432 -195.538011 
L 162.842466 -195.538011 
L 158.508499 -195.538011 
L 154.174533 -195.538011 
L 149.840567 -195.538011 
L 145.5066 -195.538011 
L 141.172634 -195.538011 
L 136.838667 -195.538011 
L 132.504701 -195.538011 
L 128.170735 -195.538011 
L 123.836768 -195.538011 
L 119.502802 -195.538011 
L 115.168836 -195.538011 
L 110.834869 -195.538011 
L 106.500903 -195.538011 
L 102.166936 -195.538011 
L 97.83297 -195.538011 
L 93.499004 -195.538011 
L 89.165037 -195.538011 
L 84.831071 -195.538011 
L 80.497105 -195.538011 
L 76.163138 -195.538011 
L 71.829172 -195.538011 
L 67.495205 -195.538011 
L 63.161239 -195.538011 
L 58.827273 -195.538011 
z
" id="m2743a582d6" style="stroke:#4bc0c0;stroke-opacity:0.5;"/>
    </defs>
    <g clip-path="url(#p2e2232e508)">
     <use style="fill:#4bc0c0;fill-opacity:0.5;stroke:#4bc0c0;stroke-opacity:0.5;" x="0" xlink:href="#m2743a582d6" y="581.789375"/>
    </g>
   </g>
   <g id="PolyCollection_4">
    <defs>
     <path d="M 83.87075 -195.538011 
L 83.87075 -195.649371 
L 88.229355 -195.691363 
L 92.587961 -195.747814 
L 96.946567 -195.823179 
L 101.305173 -195.923092 
L 105.663779 -196.054628 
L 110.022385 -196.226582 
L 114.38099 -196.449798 
L 118.739596 -196.737516 
L 123.098202 -197.105753 
L 127.456808 -197.5737 
L 131.815414 -198.164117 
L 136.17402 -198.903724 
L 140.532625 -199.823557 
L 144.891231 -200.959258 
L 149.249837 -202.351294 
L 153.608443 -204.045035 
L 157.967049 -206.090697 
L 162.325655 -208.543073 
L 166.68426 -211.461049 
L 171.042866 -214.906847 
L 175.401472 -218.94498 
L 179.760078 -223.640897 
L 184.118684 -229.059303 
L 188.47729 -235.262164 
L 192.835895 -242.306424 
L 197.194501 -250.241459 
L 201.553107 -259.106348 
L 205.911713 -268.927029 
L 210.270319 -279.71345 
L 214.628925 -291.45682 
L 218.98753 -304.127114 
L 223.346136 -317.670947 
L 227.704742 -332.009971 
L 232.063348 -347.039932 
L 236.421954 -362.630502 
L 240.78056 -378.625979 
L 245.139165 -394.846941 
L 249.497771 -411.092858 
L 253.856377 -427.145664 
L 258.214983 -442.774235 
L 262.573589 -457.739635 
L 266.932195 -471.801017 
L 271.2908 -484.72195 
L 275.649406 -496.276965 
L 280.008012 -506.258064 
L 284.366618 -514.480927 
L 288.725224 -520.790568 
L 293.08383 -525.06619 
L 297.442435 -527.225032 
L 301.801041 -527.225032 
L 306.159647 -525.06619 
L 310.518253 -520.790568 
L 314.876859 -514.480927 
L 319.235465 -506.258064 
L 323.594071 -496.276965 
L 327.952676 -484.72195 
L 332.311282 -471.801017 
L 336.669888 -457.739635 
L 341.028494 -442.774235 
L 345.3871 -427.145664 
L 349.745706 -411.092858 
L 354.104311 -394.846941 
L 358.462917 -378.625979 
L 362.821523 -362.630502 
L 367.180129 -347.039932 
L 371.538735 -332.009971 
L 375.897341 -317.670947 
L 380.255946 -304.127114 
L 384.614552 -291.45682 
L 388.973158 -279.71345 
L 393.331764 -268.927029 
L 397.69037 -259.106348 
L 402.048976 -250.241459 
L 406.407581 -242.306424 
L 410.766187 -235.262164 
L 415.124793 -229.059303 
L 419.483399 -223.640897 
L 423.842005 -218.94498 
L 428.200611 -214.906847 
L 432.559216 -211.461049 
L 436.917822 -208.543073 
L 441.276428 -206.090697 
L 445.635034 -204.045035 
L 449.99364 -202.351294 
L 454.352246 -200.959258 
L 458.710851 -199.823557 
L 463.069457 -198.903724 
L 467.428063 -198.164117 
L 471.786669 -197.5737 
L 476.145275 -197.105753 
L 480.503881 -196.737516 
L 484.862486 -196.449798 
L 489.221092 -196.226582 
L 493.579698 -196.054628 
L 497.938304 -195.923092 
L 502.29691 -195.823179 
L 506.655516 -195.747814 
L 511.014121 -195.691363 
L 515.372727 -195.649371 
L 515.372727 -195.538011 
L 515.372727 -195.538011 
L 511.014121 -195.538011 
L 506.655516 -195.538011 
L 502.29691 -195.538011 
L 497.938304 -195.538011 
L 493.579698 -195.538011 
L 489.221092 -195.538011 
L 484.862486 -195.538011 
L 480.503881 -195.538011 
L 476.145275 -195.538011 
L 471.786669 -195.538011 
L 467.428063 -195.538011 
L 463.069457 -195.538011 
L 458.710851 -195.538011 
L 454.352246 -195.538011 
L 449.99364 -195.538011 
L 445.635034 -195.538011 
L 441.276428 -195.538011 
L 436.917822 -195.538011 
L 432.559216 -195.538011 
L 428.200611 -195.538011 
L 423.842005 -195.538011 
L 419.483399 -195.538011 
L 415.124793 -195.538011 
L 410.766187 -195.538011 
L 406.407581 -195.538011 
L 402.048976 -195.538011 
L 397.69037 -195.538011 
L 393.331764 -195.538011 
L 388.973158 -195.538011 
L 384.614552 -195.538011 
L 380.255946 -195.538011 
L 375.897341 -195.538011 
L 371.538735 -195.538011 
L 367.180129 -195.538011 
L 362.821523 -195.538011 
L 358.462917 -195.538011 
L 354.104311 -195.538011 
L 349.745706 -195.538011 
L 345.3871 -195.538011 
L 341.028494 -195.538011 
L 336.669888 -195.538011 
L 332.311282 -195.538011 
L 327.952676 -195.538011 
L 323.594071 -195.538011 
L 319.235465 -195.538011 
L 314.876859 -195.538011 
L 310.518253 -195.538011 
L 306.159647 -195.538011 
L 301.801041 -195.538011 
L 297.442435 -195.538011 
L 293.08383 -195.538011 
L 288.725224 -195.538011 
L 284.366618 -195.538011 
L 280.008012 -195.538011 
L 275.649406 -195.538011 
L 271.2908 -195.538011 
L 266.932195 -195.538011 
L 262.573589 -195.538011 
L 258.214983 -195.538011 
L 253.856377 -195.538011 
L 249.497771 -195.538011 
L 245.139165 -195.538011 
L 240.78056 -195.538011 
L 236.421954 -195.538011 
L 232.063348 -195.538011 
L 227.704742 -195.538011 
L 223.346136 -195.538011 
L 218.98753 -195.538011 
L 214.628925 -195.538011 
L 210.270319 -195.538011 
L 205.911713 -195.538011 
L 201.553107 -195.538011 
L 197.194501 -195.538011 
L 192.835895 -195.538011 
L 188.47729 -195.538011 
L 184.118684 -195.538011 
L 179.760078 -195.538011 
L 175.401472 -195.538011 
L 171.042866 -195.538011 
L 166.68426 -195.538011 
L 162.325655 -195.538011 
L 157.967049 -195.538011 
L 153.608443 -195.538011 
L 149.249837 -195.538011 
L 144.891231 -195.538011 
L 140.532625 -195.538011 
L 136.17402 -195.538011 
L 131.815414 -195.538011 
L 127.456808 -195.538011 
L 123.098202 -195.538011 
L 118.739596 -195.538011 
L 114.38099 -195.538011 
L 110.022385 -195.538011 
L 105.663779 -195.538011 
L 101.305173 -195.538011 
L 96.946567 -195.538011 
L 92.587961 -195.538011 
L 88.229355 -195.538011 
L 83.87075 -195.538011 
z
" id="m75734bab8d" style="stroke:#9966ff;stroke-opacity:0.5;"/>
    </defs>
    <g clip-path="url(#p2e2232e508)">
     <use style="fill:#9966ff;fill-opacity:0.5;stroke:#9966ff;stroke-opacity:0.5;" x="0" xlink:href="#m75734bab8d" y="581.789375"/>
    </g>
   </g>
   <g id="line2d_1">
    <path clip-path="url(#p2e2232e508)" d="M 74.427332 386.139795 
L 78.777751 386.097724 
L 83.12817 386.041166 
L 87.478589 385.96566 
L 91.829008 385.865558 
L 96.179427 385.733775 
L 100.529845 385.561497 
L 104.880264 385.337861 
L 109.230683 385.049602 
L 113.581102 384.680672 
L 117.931521 384.211844 
L 122.28194 383.620316 
L 126.632358 382.879317 
L 130.982777 381.957753 
L 135.333196 380.819914 
L 139.683615 379.425259 
L 144.034034 377.728331 
L 148.384453 375.678819 
L 152.734871 373.221828 
L 157.08529 370.298361 
L 161.435709 366.846078 
L 165.786128 362.800346 
L 170.136547 358.095592 
L 174.486966 352.666989 
L 178.837384 346.452454 
L 183.187803 339.394938 
L 187.538222 331.44497 
L 191.888641 322.563398 
L 196.23906 312.724236 
L 200.589479 301.917517 
L 204.939897 290.152047 
L 209.290316 277.457908 
L 213.640735 263.888587 
L 217.991154 249.522579 
L 222.341573 234.464333 
L 226.691992 218.844424 
L 231.04241 202.818845 
L 235.392829 186.567356 
L 239.743248 170.290867 
L 244.093667 154.207851 
L 248.444086 138.549869 
L 252.794505 123.556306 
L 257.144923 109.468462 
L 261.495342 96.523213 
L 265.845761 84.946452 
L 270.19618 74.94657 
L 274.546599 66.708233 
L 278.897018 60.386718 
L 283.247436 56.10305 
L 287.597855 53.940145 
L 291.948274 53.940145 
L 296.298693 56.10305 
L 300.649112 60.386718 
L 304.999531 66.708233 
L 309.349949 74.94657 
L 313.700368 84.946452 
L 318.050787 96.523213 
L 322.401206 109.468462 
L 326.751625 123.556306 
L 331.102044 138.549869 
L 335.452462 154.207851 
L 339.802881 170.290867 
L 344.1533 186.567356 
L 348.503719 202.818845 
L 352.854138 218.844424 
L 357.204556 234.464333 
L 361.554975 249.522579 
L 365.905394 263.888587 
L 370.255813 277.457908 
L 374.606232 290.152047 
L 378.956651 301.917517 
L 383.307069 312.724236 
L 387.657488 322.563398 
L 392.007907 331.44497 
L 396.358326 339.394938 
L 400.708745 346.452454 
L 405.059164 352.666989 
L 409.409582 358.095592 
L 413.760001 362.800346 
L 418.11042 366.846078 
L 422.460839 370.298361 
L 426.811258 373.221828 
L 431.161677 375.678819 
L 435.512095 377.728331 
L 439.862514 379.425259 
L 444.212933 380.819914 
L 448.563352 381.957753 
L 452.913771 382.879317 
L 457.26419 383.620316 
L 461.614608 384.211844 
L 465.965027 384.680672 
L 470.315446 385.049602 
L 474.665865 385.337861 
L 479.016284 385.561497 
L 483.366703 385.733775 
L 487.717121 385.865558 
L 492.06754 385.96566 
L 496.417959 386.041166 
L 500.768378 386.097724 
L 505.118797 386.139795 
" style="fill:none;stroke:#ff6384;stroke-linecap:square;"/>
   </g>
   <g id="line2d_2">
    <path clip-path="url(#p2e2232e508)" d="M 68.556738 386.139433 
L 72.893113 386.097226 
L 77.229488 386.040485 
L 81.565862 385.964735 
L 85.902237 385.864309 
L 90.238611 385.732099 
L 94.574986 385.559263 
L 98.911361 385.334903 
L 103.247735 385.04571 
L 107.58411 384.675585 
L 111.920485 384.205239 
L 116.256859 383.611795 
L 120.593234 382.868396 
L 124.929608 381.943848 
L 129.265983 380.802324 
L 133.602358 379.403152 
L 137.938732 377.700727 
L 142.275107 375.644578 
L 146.611481 373.179629 
L 150.947856 370.246694 
L 155.284231 366.783231 
L 159.620605 362.724395 
L 163.95698 358.004404 
L 168.293355 352.558219 
L 172.629729 346.323558 
L 176.966104 339.243184 
L 181.302478 331.267469 
L 185.638853 322.357132 
L 189.975228 312.486103 
L 194.311602 301.644385 
L 198.647977 289.84081 
L 202.984352 277.105559 
L 207.320726 263.492291 
L 211.657101 249.079756 
L 215.993475 233.972741 
L 220.32985 218.302243 
L 224.666225 202.224762 
L 229.002599 185.92064 
L 233.338974 169.591436 
L 237.675349 153.456332 
L 242.011723 137.747639 
L 246.348098 122.705516 
L 250.684472 108.572046 
L 255.020847 95.584871 
L 259.357222 83.970617 
L 263.693596 73.938348 
L 268.029971 65.673329 
L 272.366346 59.331341 
L 276.70272 55.033799 
L 281.039095 52.863889 
L 285.375469 52.863889 
L 289.711844 55.033799 
L 294.048219 59.331341 
L 298.384593 65.673329 
L 302.720968 73.938348 
L 307.057343 83.970617 
L 311.393717 95.584871 
L 315.730092 108.572046 
L 320.066466 122.705516 
L 324.402841 137.747639 
L 328.739216 153.456332 
L 333.07559 169.591436 
L 337.411965 185.92064 
L 341.748339 202.224762 
L 346.084714 218.302243 
L 350.421089 233.972741 
L 354.757463 249.079756 
L 359.093838 263.492291 
L 363.430213 277.105559 
L 367.766587 289.84081 
L 372.102962 301.644385 
L 376.439336 312.486103 
L 380.775711 322.357132 
L 385.112086 331.267469 
L 389.44846 339.243184 
L 393.784835 346.323558 
L 398.12121 352.558219 
L 402.457584 358.004404 
L 406.793959 362.724395 
L 411.130333 366.783231 
L 415.466708 370.246694 
L 419.803083 373.179629 
L 424.139457 375.644578 
L 428.475832 377.700727 
L 432.812207 379.403152 
L 437.148581 380.802324 
L 441.484956 381.943848 
L 445.82133 382.868396 
L 450.157705 383.611795 
L 454.49408 384.205239 
L 458.830454 384.675585 
L 463.166829 385.04571 
L 467.503204 385.334903 
L 471.839578 385.559263 
L 476.175953 385.732099 
L 480.512327 385.864309 
L 484.848702 385.964735 
L 489.185077 386.040485 
L 493.521451 386.097226 
L 497.857826 386.139433 
" style="fill:none;stroke:#36a2eb;stroke-linecap:square;"/>
   </g>
   <g id="line2d_3">
    <path clip-path="url(#p2e2232e508)" d="M 58.827273 386.139371 
L 63.161239 386.097141 
L 67.495205 386.040368 
L 71.829172 385.964575 
L 76.163138 385.864094 
L 80.497105 385.73181 
L 84.831071 385.558878 
L 89.165037 385.334393 
L 93.499004 385.04504 
L 97.83297 384.674709 
L 102.166936 384.204102 
L 106.500903 383.610328 
L 110.834869 382.866516 
L 115.168836 381.941454 
L 119.502802 380.799296 
L 123.836768 379.399346 
L 128.170735 377.695976 
L 132.504701 375.638684 
L 136.838667 373.172366 
L 141.172634 370.2378 
L 145.5066 366.772413 
L 149.840567 362.711322 
L 154.174533 357.988708 
L 158.508499 352.539497 
L 162.842466 346.301371 
L 167.176432 339.217063 
L 171.510398 331.236916 
L 175.844365 322.321628 
L 180.178331 312.445114 
L 184.512298 301.597371 
L 188.846264 289.787238 
L 193.18023 277.04491 
L 197.514197 263.424078 
L 201.848163 249.003534 
L 206.182129 233.888124 
L 210.516096 218.208919 
L 214.850062 202.122504 
L 219.184029 185.809323 
L 223.517995 169.471045 
L 227.851961 153.326975 
L 232.185928 137.609553 
L 236.519894 122.559072 
L 240.85386 108.417748 
L 245.187827 95.423357 
L 249.521793 83.802649 
L 253.85576 73.764805 
L 258.189726 65.495194 
L 262.523692 59.149682 
L 266.857659 54.849752 
L 271.191625 52.678636 
L 275.525591 52.678636 
L 279.859558 54.849752 
L 284.193524 59.149682 
L 288.527491 65.495194 
L 292.861457 73.764805 
L 297.195423 83.802649 
L 301.52939 95.423357 
L 305.863356 108.417748 
L 310.197322 122.559072 
L 314.531289 137.609553 
L 318.865255 153.326975 
L 323.199222 169.471045 
L 327.533188 185.809323 
L 331.867154 202.122504 
L 336.201121 218.208919 
L 340.535087 233.888124 
L 344.869053 249.003534 
L 349.20302 263.424078 
L 353.536986 277.04491 
L 357.870953 289.787238 
L 362.204919 301.597371 
L 366.538885 312.445114 
L 370.872852 322.321628 
L 375.206818 331.236916 
L 379.540784 339.217063 
L 383.874751 346.301371 
L 388.208717 352.539497 
L 392.542684 357.988708 
L 396.87665 362.711322 
L 401.210616 366.772413 
L 405.544583 370.2378 
L 409.878549 373.172366 
L 414.212515 375.638684 
L 418.546482 377.695976 
L 422.880448 379.399346 
L 427.214415 380.799296 
L 431.548381 381.941454 
L 435.882347 382.866516 
L 440.216314 383.610328 
L 444.55028 384.204102 
L 448.884246 384.674709 
L 453.218213 385.04504 
L 457.552179 385.334393 
L 461.886146 385.558878 
L 466.220112 385.73181 
L 470.554078 385.864094 
L 474.888045 385.964575 
L 479.222011 386.040368 
L 483.555977 386.097141 
L 487.889944 386.139371 
" style="fill:none;stroke:#4bc0c0;stroke-linecap:square;"/>
   </g>
   <g id="line2d_4">
    <path clip-path="url(#p2e2232e508)" d="M 83.87075 386.140004 
L 88.229355 386.098012 
L 92.587961 386.041561 
L 96.946567 385.966196 
L 101.305173 385.866283 
L 105.663779 385.734747 
L 110.022385 385.562793 
L 114.38099 385.339577 
L 118.739596 385.051859 
L 123.098202 384.683622 
L 127.456808 384.215675 
L 131.815414 383.625258 
L 136.17402 382.885651 
L 140.532625 381.965818 
L 144.891231 380.830117 
L 149.249837 379.438081 
L 153.608443 377.74434 
L 157.967049 375.698678 
L 162.325655 373.246302 
L 166.68426 370.328326 
L 171.042866 366.882528 
L 175.401472 362.844395 
L 179.760078 358.148478 
L 184.118684 352.730072 
L 188.47729 346.527211 
L 192.835895 339.482951 
L 197.194501 331.547916 
L 201.553107 322.683027 
L 205.911713 312.862346 
L 210.270319 302.075925 
L 214.628925 290.332555 
L 218.98753 277.662261 
L 223.346136 264.118428 
L 227.704742 249.779404 
L 232.063348 234.749443 
L 236.421954 219.158873 
L 240.78056 203.163396 
L 245.139165 186.942434 
L 249.497771 170.696517 
L 253.856377 154.643711 
L 258.214983 139.01514 
L 262.573589 124.04974 
L 266.932195 109.988358 
L 271.2908 97.067425 
L 275.649406 85.51241 
L 280.008012 75.531311 
L 284.366618 67.308448 
L 288.725224 60.998807 
L 293.08383 56.723185 
L 297.442435 54.564343 
L 301.801041 54.564343 
L 306.159647 56.723185 
L 310.518253 60.998807 
L 314.876859 67.308448 
L 319.235465 75.531311 
L 323.594071 85.51241 
L 327.952676 97.067425 
L 332.311282 109.988358 
L 336.669888 124.04974 
L 341.028494 139.01514 
L 345.3871 154.643711 
L 349.745706 170.696517 
L 354.104311 186.942434 
L 358.462917 203.163396 
L 362.821523 219.158873 
L 367.180129 234.749443 
L 371.538735 249.779404 
L 375.897341 264.118428 
L 380.255946 277.662261 
L 384.614552 290.332555 
L 388.973158 302.075925 
L 393.331764 312.862346 
L 397.69037 322.683027 
L 402.048976 331.547916 
L 406.407581 339.482951 
L 410.766187 346.527211 
L 415.124793 352.730072 
L 419.483399 358.148478 
L 423.842005 362.844395 
L 428.200611 366.882528 
L 432.559216 370.328326 
L 436.917822 373.246302 
L 441.276428 375.698678 
L 445.635034 377.74434 
L 449.99364 379.438081 
L 454.352246 380.830117 
L 458.710851 381.965818 
L 463.069457 382.885651 
L 467.428063 383.625258 
L 471.786669 384.215675 
L 476.145275 384.683622 
L 480.503881 385.051859 
L 484.862486 385.339577 
L 489.221092 385.562793 
L 493.579698 385.734747 
L 497.938304 385.866283 
L 502.29691 385.966196 
L 506.655516 386.041561 
L 511.014121 386.098012 
L 515.372727 386.140004 
" style="fill:none;stroke:#9966ff;stroke-linecap:square;"/>
   </g>
   <g id="patch_3">
    <path d="M 36 402.93 
L 538.2 402.93 
" style="fill:none;stroke:#000000;stroke-linecap:square;stroke-linejoin:miter;stroke-width:0.8;"/>
   </g>
   <g id="legend_1">
    <g id="patch_4">
     <path d="M 450.225313 129.3975 
L 528.4 129.3975 
Q 531.2 129.3975 531.2 126.5975 
L 531.2 45.8 
Q 531.2 43 528.4 43 
L 450.225313 43 
Q 447.425313 43 447.425313 45.8 
L 447.425313 126.5975 
Q 447.425313 129.3975 450.225313 129.3975 
z
" style="fill:#ffffff;opacity:0.8;stroke:#cccccc;stroke-linejoin:miter;"/>
    </g>
    <g id="patch_5">
     <path d="M 453.025313 59.237813 
L 481.025313 59.237813 
L 481.025313 49.437813 
L 453.025313 49.437813 
z
" style="fill:#ff6384;opacity:0.5;stroke:#ff6384;stroke-linejoin:miter;"/>
    </g>
    <g id="text_1">
     <!-- base -->
     <defs>
      <path d="M 48.6875 27.296875 
Q 48.6875 37.203125 44.609375 42.84375 
Q 40.53125 48.484375 33.40625 48.484375 
Q 26.265625 48.484375 22.1875 42.84375 
Q 18.109375 37.203125 18.109375 27.296875 
Q 18.109375 17.390625 22.1875 11.75 
Q 26.265625 6.109375 33.40625 6.109375 
Q 40.53125 6.109375 44.609375 11.75 
Q 48.6875 17.390625 48.6875 27.296875 
z
M 18.109375 46.390625 
Q 20.953125 51.265625 25.265625 53.625 
Q 29.59375 56 35.59375 56 
Q 45.5625 56 51.78125 48.09375 
Q 58.015625 40.1875 58.015625 27.296875 
Q 58.015625 14.40625 51.78125 6.484375 
Q 45.5625 -1.421875 35.59375 -1.421875 
Q 29.59375 -1.421875 25.265625 0.953125 
Q 20.953125 3.328125 18.109375 8.203125 
L 18.109375 0 
L 9.078125 0 
L 9.078125 75.984375 
L 18.109375 75.984375 
z
" id="DejaVuSans-98"/>
      <path d="M 34.28125 27.484375 
Q 23.390625 27.484375 19.1875 25 
Q 14.984375 22.515625 14.984375 16.5 
Q 14.984375 11.71875 18.140625 8.90625 
Q 21.296875 6.109375 26.703125 6.109375 
Q 34.1875 6.109375 38.703125 11.40625 
Q 43.21875 16.703125 43.21875 25.484375 
L 43.21875 27.484375 
z
M 52.203125 31.203125 
L 52.203125 0 
L 43.21875 0 
L 43.21875 8.296875 
Q 40.140625 3.328125 35.546875 0.953125 
Q 30.953125 -1.421875 24.3125 -1.421875 
Q 15.921875 -1.421875 10.953125 3.296875 
Q 6 8.015625 6 15.921875 
Q 6 25.140625 12.171875 29.828125 
Q 18.359375 34.515625 30.609375 34.515625 
L 43.21875 34.515625 
L 43.21875 35.40625 
Q 43.21875 41.609375 39.140625 45 
Q 35.0625 48.390625 27.6875 48.390625 
Q 23 48.390625 18.546875 47.265625 
Q 14.109375 46.140625 10.015625 43.890625 
L 10.015625 52.203125 
Q 14.9375 54.109375 19.578125 55.046875 
Q 24.21875 56 28.609375 56 
Q 40.484375 56 46.34375 49.84375 
Q 52.203125 43.703125 52.203125 31.203125 
z
" id="DejaVuSans-97"/>
      <path d="M 44.28125 53.078125 
L 44.28125 44.578125 
Q 40.484375 46.53125 36.375 47.5 
Q 32.28125 48.484375 27.875 48.484375 
Q 21.1875 48.484375 17.84375 46.4375 
Q 14.5 44.390625 14.5 40.28125 
Q 14.5 37.15625 16.890625 35.375 
Q 19.28125 33.59375 26.515625 31.984375 
L 29.59375 31.296875 
Q 39.15625 29.25 43.1875 25.515625 
Q 47.21875 21.78125 47.21875 15.09375 
Q 47.21875 7.46875 41.1875 3.015625 
Q 35.15625 -1.421875 24.609375 -1.421875 
Q 20.21875 -1.421875 15.453125 -0.5625 
Q 10.6875 0.296875 5.421875 2 
L 5.421875 11.28125 
Q 10.40625 8.6875 15.234375 7.390625 
Q 20.0625 6.109375 24.8125 6.109375 
Q 31.15625 6.109375 34.5625 8.28125 
Q 37.984375 10.453125 37.984375 14.40625 
Q 37.984375 18.0625 35.515625 20.015625 
Q 33.0625 21.96875 24.703125 23.78125 
L 21.578125 24.515625 
Q 13.234375 26.265625 9.515625 29.90625 
Q 5.8125 33.546875 5.8125 39.890625 
Q 5.8125 47.609375 11.28125 51.796875 
Q 16.75 56 26.8125 56 
Q 31.78125 56 36.171875 55.265625 
Q 40.578125 54.546875 44.28125 53.078125 
z
" id="DejaVuSans-115"/>
      <path d="M 56.203125 29.59375 
L 56.203125 25.203125 
L 14.890625 25.203125 
Q 15.484375 15.921875 20.484375 11.0625 
Q 25.484375 6.203125 34.421875 6.203125 
Q 39.59375 6.203125 44.453125 7.46875 
Q 49.3125 8.734375 54.109375 11.28125 
L 54.109375 2.78125 
Q 49.265625 0.734375 44.1875 -0.34375 
Q 39.109375 -1.421875 33.890625 -1.421875 
Q 20.796875 -1.421875 13.15625 6.1875 
Q 5.515625 13.8125 5.515625 26.8125 
Q 5.515625 40.234375 12.765625 48.109375 
Q 20.015625 56 32.328125 56 
Q 43.359375 56 49.78125 48.890625 
Q 56.203125 41.796875 56.203125 29.59375 
z
M 47.21875 32.234375 
Q 47.125 39.59375 43.09375 43.984375 
Q 39.0625 48.390625 32.421875 48.390625 
Q 24.90625 48.390625 20.390625 44.140625 
Q 15.875 39.890625 15.1875 32.171875 
z
" id="DejaVuSans-101"/>
     </defs>
     <g transform="translate(492.225313 59.237813)scale(0.14 -0.14)">
      <use xlink:href="#DejaVuSans-98"/>
      <use x="63.476562" xlink:href="#DejaVuSans-97"/>
      <use x="124.755859" xlink:href="#DejaVuSans-115"/>
      <use x="176.855469" xlink:href="#DejaVuSans-101"/>
     </g>
    </g>
    <g id="patch_6">
     <path d="M 453.025313 79.787188 
L 481.025313 79.787188 
L 481.025313 69.987188 
L 453.025313 69.987188 
z
" style="fill:#36a2eb;opacity:0.5;stroke:#36a2eb;stroke-linejoin:miter;"/>
    </g>
    <g id="text_2">
     <!-- fifth -->
     <defs>
      <path d="M 37.109375 75.984375 
L 37.109375 68.5 
L 28.515625 68.5 
Q 23.6875 68.5 21.796875 66.546875 
Q 19.921875 64.59375 19.921875 59.515625 
L 19.921875 54.6875 
L 34.71875 54.6875 
L 34.71875 47.703125 
L 19.921875 47.703125 
L 19.921875 0 
L 10.890625 0 
L 10.890625 47.703125 
L 2.296875 47.703125 
L 2.296875 54.6875 
L 10.890625 54.6875 
L 10.890625 58.5 
Q 10.890625 67.625 15.140625 71.796875 
Q 19.390625 75.984375 28.609375 75.984375 
z
" id="DejaVuSans-102"/>
      <path d="M 9.421875 54.6875 
L 18.40625 54.6875 
L 18.40625 0 
L 9.421875 0 
z
M 9.421875 75.984375 
L 18.40625 75.984375 
L 18.40625 64.59375 
L 9.421875 64.59375 
z
" id="DejaVuSans-105"/>
      <path d="M 18.3125 70.21875 
L 18.3125 54.6875 
L 36.8125 54.6875 
L 36.8125 47.703125 
L 18.3125 47.703125 
L 18.3125 18.015625 
Q 18.3125 11.328125 20.140625 9.421875 
Q 21.96875 7.515625 27.59375 7.515625 
L 36.8125 7.515625 
L 36.8125 0 
L 27.59375 0 
Q 17.1875 0 13.234375 3.875 
Q 9.28125 7.765625 9.28125 18.015625 
L 9.28125 47.703125 
L 2.6875 47.703125 
L 2.6875 54.6875 
L 9.28125 54.6875 
L 9.28125 70.21875 
z
" id="DejaVuSans-116"/>
      <path d="M 54.890625 33.015625 
L 54.890625 0 
L 45.90625 0 
L 45.90625 32.71875 
Q 45.90625 40.484375 42.875 44.328125 
Q 39.84375 48.1875 33.796875 48.1875 
Q 26.515625 48.1875 22.3125 43.546875 
Q 18.109375 38.921875 18.109375 30.90625 
L 18.109375 0 
L 9.078125 0 
L 9.078125 75.984375 
L 18.109375 75.984375 
L 18.109375 46.1875 
Q 21.34375 51.125 25.703125 53.5625 
Q 30.078125 56 35.796875 56 
Q 45.21875 56 50.046875 50.171875 
Q 54.890625 44.34375 54.890625 33.015625 
z
" id="DejaVuSans-104"/>
     </defs>
     <g transform="translate(492.225313 79.787188)scale(0.14 -0.14)">
      <use xlink:href="#DejaVuSans-102"/>
      <use x="35.205078" xlink:href="#DejaVuSans-105"/>
      <use x="62.988281" xlink:href="#DejaVuSans-102"/>
      <use x="98.177734" xlink:href="#DejaVuSans-116"/>
      <use x="137.386719" xlink:href="#DejaVuSans-104"/>
     </g>
    </g>
    <g id="patch_7">
     <path d="M 453.025313 100.336563 
L 481.025313 100.336563 
L 481.025313 90.536563 
L 453.025313 90.536563 
z
" style="fill:#4bc0c0;opacity:0.5;stroke:#4bc0c0;stroke-linejoin:miter;"/>
    </g>
    <g id="text_3">
     <!-- mid -->
     <defs>
      <path d="M 52 44.1875 
Q 55.375 50.25 60.0625 53.125 
Q 64.75 56 71.09375 56 
Q 79.640625 56 84.28125 50.015625 
Q 88.921875 44.046875 88.921875 33.015625 
L 88.921875 0 
L 79.890625 0 
L 79.890625 32.71875 
Q 79.890625 40.578125 77.09375 44.375 
Q 74.3125 48.1875 68.609375 48.1875 
Q 61.625 48.1875 57.5625 43.546875 
Q 53.515625 38.921875 53.515625 30.90625 
L 53.515625 0 
L 44.484375 0 
L 44.484375 32.71875 
Q 44.484375 40.625 41.703125 44.40625 
Q 38.921875 48.1875 33.109375 48.1875 
Q 26.21875 48.1875 22.15625 43.53125 
Q 18.109375 38.875 18.109375 30.90625 
L 18.109375 0 
L 9.078125 0 
L 9.078125 54.6875 
L 18.109375 54.6875 
L 18.109375 46.1875 
Q 21.1875 51.21875 25.484375 53.609375 
Q 29.78125 56 35.6875 56 
Q 41.65625 56 45.828125 52.96875 
Q 50 49.953125 52 44.1875 
z
" id="DejaVuSans-109"/>
      <path d="M 45.40625 46.390625 
L 45.40625 75.984375 
L 54.390625 75.984375 
L 54.390625 0 
L 45.40625 0 
L 45.40625 8.203125 
Q 42.578125 3.328125 38.25 0.953125 
Q 33.9375 -1.421875 27.875 -1.421875 
Q 17.96875 -1.421875 11.734375 6.484375 
Q 5.515625 14.40625 5.515625 27.296875 
Q 5.515625 40.1875 11.734375 48.09375 
Q 17.96875 56 27.875 56 
Q 33.9375 56 38.25 53.625 
Q 42.578125 51.265625 45.40625 46.390625 
z
M 14.796875 27.296875 
Q 14.796875 17.390625 18.875 11.75 
Q 22.953125 6.109375 30.078125 6.109375 
Q 37.203125 6.109375 41.296875 11.75 
Q 45.40625 17.390625 45.40625 27.296875 
Q 45.40625 37.203125 41.296875 42.84375 
Q 37.203125 48.484375 30.078125 48.484375 
Q 22.953125 48.484375 18.875 42.84375 
Q 14.796875 37.203125 14.796875 27.296875 
z
" id="DejaVuSans-100"/>
     </defs>
     <g transform="translate(492.225313 100.336563)scale(0.14 -0.14)">
      <use xlink:href="#DejaVuSans-109"/>
      <use x="97.412109" xlink:href="#DejaVuSans-105"/>
      <use x="125.195312" xlink:href="#DejaVuSans-100"/>
     </g>
    </g>
    <g id="patch_8">
     <path d="M 453.025313 120.885938 
L 481.025313 120.885938 
L 481.025313 111.085938 
L 453.025313 111.085938 
z
" style="fill:#9966ff;opacity:0.5;stroke:#9966ff;stroke-linejoin:miter;"/>
    </g>
    <g id="text_4">
     <!-- right -->
     <defs>
      <path d="M 41.109375 46.296875 
Q 39.59375 47.171875 37.8125 47.578125 
Q 36.03125 48 33.890625 48 
Q 26.265625 48 22.1875 43.046875 
Q 18.109375 38.09375 18.109375 28.8125 
L 18.109375 0 
L 9.078125 0 
L 9.078125 54.6875 
L 18.109375 54.6875 
L 18.109375 46.1875 
Q 20.953125 51.171875 25.484375 53.578125 
Q 30.03125 56 36.53125 56 
Q 37.453125 56 38.578125 55.875 
Q 39.703125 55.765625 41.0625 55.515625 
z
" id="DejaVuSans-114"/>
      <path d="M 45.40625 27.984375 
Q 45.40625 37.75 41.375 43.109375 
Q 37.359375 48.484375 30.078125 48.484375 
Q 22.859375 48.484375 18.828125 43.109375 
Q 14.796875 37.75 14.796875 27.984375 
Q 14.796875 18.265625 18.828125 12.890625 
Q 22.859375 7.515625 30.078125 7.515625 
Q 37.359375 7.515625 41.375 12.890625 
Q 45.40625 18.265625 45.40625 27.984375 
z
M 54.390625 6.78125 
Q 54.390625 -7.171875 48.1875 -13.984375 
Q 42 -20.796875 29.203125 -20.796875 
Q 24.46875 -20.796875 20.265625 -20.09375 
Q 16.0625 -19.390625 12.109375 -17.921875 
L 12.109375 -9.1875 
Q 16.0625 -11.328125 19.921875 -12.34375 
Q 23.78125 -13.375 27.78125 -13.375 
Q 36.625 -13.375 41.015625 -8.765625 
Q 45.40625 -4.15625 45.40625 5.171875 
L 45.40625 9.625 
Q 42.625 4.78125 38.28125 2.390625 
Q 33.9375 0 27.875 0 
Q 17.828125 0 11.671875 7.65625 
Q 5.515625 15.328125 5.515625 27.984375 
Q 5.515625 40.671875 11.671875 48.328125 
Q 17.828125 56 27.875 56 
Q 33.9375 56 38.28125 53.609375 
Q 42.625 51.21875 45.40625 46.390625 
L 45.40625 54.6875 
L 54.390625 54.6875 
z
" id="DejaVuSans-103"/>
     </defs>
     <g transform="translate(492.225313 120.885938)scale(0.14 -0.14)">
      <use xlink:href="#DejaVuSans-114"/>
      <use x="41.113281" xlink:href="#DejaVuSans-105"/>
      <use x="68.896484" xlink:href="#DejaVuSans-103"/>
      <use x="132.373047" xlink:href="#DejaVuSans-104"/>
      <use x="195.751953" xlink:href="#DejaVuSans-116"/>
     </g>
    </g>
   </g>
  </g>
  <g id="axes_2">
   <g id="patch_9">
    <path d="M 36 525.24 
L 538.2 525.24 
L 538.2 402.93 
L 36 402.93 
z
" style="fill:none;"/>
   </g>
   <g id="patch_10">
    <path clip-path="url(#p31b08c1a2f)" d="M 184.253656 519.680455 
L 395.292473 519.680455 
L 395.292473 503.796039 
L 184.253656 503.796039 
z
" style="fill:#ff6384;opacity:0.5;"/>
   </g>
   <g id="patch_11">
    <path clip-path="url(#p31b08c1a2f)" d="M 178.028516 487.911623 
L 388.386049 487.911623 
L 388.386049 472.027208 
L 178.028516 472.027208 
z
" style="fill:#36a2eb;opacity:0.5;"/>
   </g>
   <g id="patch_12">
    <path clip-path="url(#p31b08c1a2f)" d="M 168.238254 456.142792 
L 378.478963 456.142792 
L 378.478963 440.258377 
L 168.238254 440.258377 
z
" style="fill:#4bc0c0;opacity:0.5;"/>
   </g>
   <g id="patch_13">
    <path clip-path="url(#p31b08c1a2f)" d="M 193.903754 424.373961 
L 405.339723 424.373961 
L 405.339723 408.489545 
L 193.903754 408.489545 
z
" style="fill:#9966ff;opacity:0.5;"/>
   </g>
   <g id="matplotlib.axis_1">
    <g id="xtick_1">
     <g id="line2d_5">
      <defs>
       <path d="M 0 0 
L 0 3.5 
" id="maedf36bd3f" style="stroke:#000000;stroke-width:0.8;"/>
      </defs>
      <g>
       <use style="stroke:#000000;stroke-width:0.8;" x="81.309469" xlink:href="#maedf36bd3f" y="525.24"/>
      </g>
     </g>
     <g id="text_5">
      <!-- 6.0 -->
      <defs>
       <path d="M 33.015625 40.375 
Q 26.375 40.375 22.484375 35.828125 
Q 18.609375 31.296875 18.609375 23.390625 
Q 18.609375 15.53125 22.484375 10.953125 
Q 26.375 6.390625 33.015625 6.390625 
Q 39.65625 6.390625 43.53125 10.953125 
Q 47.40625 15.53125 47.40625 23.390625 
Q 47.40625 31.296875 43.53125 35.828125 
Q 39.65625 40.375 33.015625 40.375 
z
M 52.59375 71.296875 
L 52.59375 62.3125 
Q 48.875 64.0625 45.09375 64.984375 
Q 41.3125 65.921875 37.59375 65.921875 
Q 27.828125 65.921875 22.671875 59.328125 
Q 17.53125 52.734375 16.796875 39.40625 
Q 19.671875 43.65625 24.015625 45.921875 
Q 28.375 48.1875 33.59375 48.1875 
Q 44.578125 48.1875 50.953125 41.515625 
Q 57.328125 34.859375 57.328125 23.390625 
Q 57.328125 12.15625 50.6875 5.359375 
Q 44.046875 -1.421875 33.015625 -1.421875 
Q 20.359375 -1.421875 13.671875 8.265625 
Q 6.984375 17.96875 6.984375 36.375 
Q 6.984375 53.65625 15.1875 63.9375 
Q 23.390625 74.21875 37.203125 74.21875 
Q 40.921875 74.21875 44.703125 73.484375 
Q 48.484375 72.75 52.59375 71.296875 
z
" id="DejaVuSans-54"/>
       <path d="M 10.6875 12.40625 
L 21 12.40625 
L 21 0 
L 10.6875 0 
z
" id="DejaVuSans-46"/>
       <path d="M 31.78125 66.40625 
Q 24.171875 66.40625 20.328125 58.90625 
Q 16.5 51.421875 16.5 36.375 
Q 16.5 21.390625 20.328125 13.890625 
Q 24.171875 6.390625 31.78125 6.390625 
Q 39.453125 6.390625 43.28125 13.890625 
Q 47.125 21.390625 47.125 36.375 
Q 47.125 51.421875 43.28125 58.90625 
Q 39.453125 66.40625 31.78125 66.40625 
z
M 31.78125 74.21875 
Q 44.046875 74.21875 50.515625 64.515625 
Q 56.984375 54.828125 56.984375 36.375 
Q 56.984375 17.96875 50.515625 8.265625 
Q 44.046875 -1.421875 31.78125 -1.421875 
Q 19.53125 -1.421875 13.0625 8.265625 
Q 6.59375 17.96875 6.59375 36.375 
Q 6.59375 54.828125 13.0625 64.515625 
Q 19.53125 74.21875 31.78125 74.21875 
z
" id="DejaVuSans-48"/>
      </defs>
      <g transform="translate(70.177282 542.877813)scale(0.14 -0.14)">
       <use xlink:href="#DejaVuSans-54"/>
       <use x="63.623047" xlink:href="#DejaVuSans-46"/>
       <use x="95.410156" xlink:href="#DejaVuSans-48"/>
      </g>
     </g>
    </g>
    <g id="xtick_2">
     <g id="line2d_6">
      <g>
       <use style="stroke:#000000;stroke-width:0.8;" x="163.381751" xlink:href="#maedf36bd3f" y="525.24"/>
      </g>
     </g>
     <g id="text_6">
      <!-- 6.5 -->
      <defs>
       <path d="M 10.796875 72.90625 
L 49.515625 72.90625 
L 49.515625 64.59375 
L 19.828125 64.59375 
L 19.828125 46.734375 
Q 21.96875 47.46875 24.109375 47.828125 
Q 26.265625 48.1875 28.421875 48.1875 
Q 40.625 48.1875 47.75 41.5 
Q 54.890625 34.8125 54.890625 23.390625 
Q 54.890625 11.625 47.5625 5.09375 
Q 40.234375 -1.421875 26.90625 -1.421875 
Q 22.3125 -1.421875 17.546875 -0.640625 
Q 12.796875 0.140625 7.71875 1.703125 
L 7.71875 11.625 
Q 12.109375 9.234375 16.796875 8.0625 
Q 21.484375 6.890625 26.703125 6.890625 
Q 35.15625 6.890625 40.078125 11.328125 
Q 45.015625 15.765625 45.015625 23.390625 
Q 45.015625 31 40.078125 35.4375 
Q 35.15625 39.890625 26.703125 39.890625 
Q 22.75 39.890625 18.8125 39.015625 
Q 14.890625 38.140625 10.796875 36.28125 
z
" id="DejaVuSans-53"/>
      </defs>
      <g transform="translate(152.249563 542.877813)scale(0.14 -0.14)">
       <use xlink:href="#DejaVuSans-54"/>
       <use x="63.623047" xlink:href="#DejaVuSans-46"/>
       <use x="95.410156" xlink:href="#DejaVuSans-53"/>
      </g>
     </g>
    </g>
    <g id="xtick_3">
     <g id="line2d_7">
      <g>
       <use style="stroke:#000000;stroke-width:0.8;" x="245.454033" xlink:href="#maedf36bd3f" y="525.24"/>
      </g>
     </g>
     <g id="text_7">
      <!-- 7.0 -->
      <defs>
       <path d="M 8.203125 72.90625 
L 55.078125 72.90625 
L 55.078125 68.703125 
L 28.609375 0 
L 18.3125 0 
L 43.21875 64.59375 
L 8.203125 64.59375 
z
" id="DejaVuSans-55"/>
      </defs>
      <g transform="translate(234.321845 542.877813)scale(0.14 -0.14)">
       <use xlink:href="#DejaVuSans-55"/>
       <use x="63.623047" xlink:href="#DejaVuSans-46"/>
       <use x="95.410156" xlink:href="#DejaVuSans-48"/>
      </g>
     </g>
    </g>
    <g id="xtick_4">
     <g id="line2d_8">
      <g>
       <use style="stroke:#000000;stroke-width:0.8;" x="327.526314" xlink:href="#maedf36bd3f" y="525.24"/>
      </g>
     </g>
     <g id="text_8">
      <!-- 7.5 -->
      <g transform="translate(316.394127 542.877813)scale(0.14 -0.14)">
       <use xlink:href="#DejaVuSans-55"/>
       <use x="63.623047" xlink:href="#DejaVuSans-46"/>
       <use x="95.410156" xlink:href="#DejaVuSans-53"/>
      </g>
     </g>
    </g>
    <g id="xtick_5">
     <g id="line2d_9">
      <g>
       <use style="stroke:#000000;stroke-width:0.8;" x="409.598596" xlink:href="#maedf36bd3f" y="525.24"/>
      </g>
     </g>
     <g id="text_9">
      <!-- 8.0 -->
      <defs>
       <path d="M 31.78125 34.625 
Q 24.75 34.625 20.71875 30.859375 
Q 16.703125 27.09375 16.703125 20.515625 
Q 16.703125 13.921875 20.71875 10.15625 
Q 24.75 6.390625 31.78125 6.390625 
Q 38.8125 6.390625 42.859375 10.171875 
Q 46.921875 13.96875 46.921875 20.515625 
Q 46.921875 27.09375 42.890625 30.859375 
Q 38.875 34.625 31.78125 34.625 
z
M 21.921875 38.8125 
Q 15.578125 40.375 12.03125 44.71875 
Q 8.5 49.078125 8.5 55.328125 
Q 8.5 64.0625 14.71875 69.140625 
Q 20.953125 74.21875 31.78125 74.21875 
Q 42.671875 74.21875 48.875 69.140625 
Q 55.078125 64.0625 55.078125 55.328125 
Q 55.078125 49.078125 51.53125 44.71875 
Q 48 40.375 41.703125 38.8125 
Q 48.828125 37.15625 52.796875 32.3125 
Q 56.78125 27.484375 56.78125 20.515625 
Q 56.78125 9.90625 50.3125 4.234375 
Q 43.84375 -1.421875 31.78125 -1.421875 
Q 19.734375 -1.421875 13.25 4.234375 
Q 6.78125 9.90625 6.78125 20.515625 
Q 6.78125 27.484375 10.78125 32.3125 
Q 14.796875 37.15625 21.921875 38.8125 
z
M 18.3125 54.390625 
Q 18.3125 48.734375 21.84375 45.5625 
Q 25.390625 42.390625 31.78125 42.390625 
Q 38.140625 42.390625 41.71875 45.5625 
Q 45.3125 48.734375 45.3125 54.390625 
Q 45.3125 60.0625 41.71875 63.234375 
Q 38.140625 66.40625 31.78125 66.40625 
Q 25.390625 66.40625 21.84375 63.234375 
Q 18.3125 60.0625 18.3125 54.390625 
z
" id="DejaVuSans-56"/>
      </defs>
      <g transform="translate(398.466408 542.877813)scale(0.14 -0.14)">
       <use xlink:href="#DejaVuSans-56"/>
       <use x="63.623047" xlink:href="#DejaVuSans-46"/>
       <use x="95.410156" xlink:href="#DejaVuSans-48"/>
      </g>
     </g>
    </g>
    <g id="xtick_6">
     <g id="line2d_10">
      <g>
       <use style="stroke:#000000;stroke-width:0.8;" x="491.670877" xlink:href="#maedf36bd3f" y="525.24"/>
      </g>
     </g>
     <g id="text_10">
      <!-- 8.5 -->
      <g transform="translate(480.53869 542.877813)scale(0.14 -0.14)">
       <use xlink:href="#DejaVuSans-56"/>
       <use x="63.623047" xlink:href="#DejaVuSans-46"/>
       <use x="95.410156" xlink:href="#DejaVuSans-53"/>
      </g>
     </g>
    </g>
   </g>
   <g id="line2d_11">
    <path clip-path="url(#p31b08c1a2f)" d="M 289.773065 525.24 
L 289.773065 402.93 
" style="fill:none;stroke:#ff6384;stroke-dasharray:5.55,2.4;stroke-dashoffset:0;stroke-opacity:0.8;stroke-width:1.5;"/>
   </g>
   <g id="line2d_12">
    <path clip-path="url(#p31b08c1a2f)" d="M 283.207282 525.24 
L 283.207282 402.93 
" style="fill:none;stroke:#36a2eb;stroke-dasharray:5.55,2.4;stroke-dashoffset:0;stroke-opacity:0.8;stroke-width:1.5;"/>
   </g>
   <g id="line2d_13">
    <path clip-path="url(#p31b08c1a2f)" d="M 273.358608 525.24 
L 273.358608 402.93 
" style="fill:none;stroke:#4bc0c0;stroke-dasharray:5.55,2.4;stroke-dashoffset:0;stroke-opacity:0.8;stroke-width:1.5;"/>
   </g>
   <g id="line2d_14">
    <path clip-path="url(#p31b08c1a2f)" d="M 299.621738 525.24 
L 299.621738 402.93 
" style="fill:none;stroke:#9966ff;stroke-dasharray:5.55,2.4;stroke-dashoffset:0;stroke-opacity:0.8;stroke-width:1.5;"/>
   </g>
   <g id="patch_14">
    <path d="M 36 525.24 
L 538.2 525.24 
" style="fill:none;stroke:#000000;stroke-linecap:square;stroke-linejoin:miter;stroke-width:0.8;"/>
   </g>
  </g>
 </g>
 <defs>
  <clipPath id="p2e2232e508">
   <rect height="366.93" width="502.2" x="36" y="36"/>
  </clipPath>
  <clipPath id="p31b08c1a2f">
   <rect height="122.31" width="502.2" x="36" y="402.93"/>
  </clipPath>
 </defs>
</svg>
