<?xml version="1.0" encoding="utf-8" standalone="no"?>
<!DOCTYPE svg PUBLIC "-//W3C//DTD SVG 1.1//EN"
  "http://www.w3.org/Graphics/SVG/1.1/DTD/svg11.dtd">
<!-- Created with matplotlib (https://matplotlib.org/) -->
<svg height="581.789375pt" version="1.1" viewBox="0 0 574.2 581.789375" width="574.2pt" xmlns="http://www.w3.org/2000/svg" xmlns:xlink="http://www.w3.org/1999/xlink">
 <defs>
  <style type="text/css">
*{stroke-linecap:butt;stroke-linejoin:round;}
  </style>
 </defs>
 <g id="figure_1">
  <g id="patch_1">
   <path d="M 0 581.789375 
L 574.2 581.789375 
L 574.2 0 
L 0 0 
z
" style="fill:none;"/>
  </g>
  <g id="axes_1">
   <g id="patch_2">
    <path d="M 36 402.93 
L 538.2 402.93 
L 538.2 36 
L 36 36 
z
" style="fill:none;"/>
   </g>
   <g id="PolyCollection_1">
    <defs>
     <path d="M 74.67468 -195.538011 
L 74.67468 -195.649564 
L 78.95073 -195.691628 
L 83.226781 -195.748178 
L 87.502831 -195.823673 
L 91.778881 -195.92376 
L 96.054931 -196.055523 
L 100.330982 -196.227776 
L 104.607032 -196.451379 
L 108.883082 -196.739595 
L 113.159132 -197.108471 
L 117.435183 -197.577229 
L 121.711233 -198.16867 
L 125.987283 -198.90956 
L 130.263333 -199.830987 
L 134.539384 -200.968657 
L 138.815434 -202.363106 
L 143.091484 -204.059784 
L 147.367534 -206.108992 
L 151.643585 -208.56562 
L 155.919635 -211.488655 
L 160.195685 -214.940427 
L 164.471735 -218.985561 
L 168.747786 -223.68962 
L 173.023836 -229.117419 
L 177.299886 -235.331035 
L 181.575936 -242.387508 
L 185.851987 -250.3363 
L 190.128037 -259.216558 
L 194.404087 -269.054266 
L 198.680137 -279.859387 
L 202.956188 -291.623117 
L 207.232238 -304.315379 
L 211.508288 -317.882693 
L 215.784339 -332.246576 
L 220.060389 -347.302596 
L 224.336439 -362.920195 
L 228.612489 -378.943404 
L 232.88854 -395.192489 
L 237.16459 -411.466571 
L 241.44064 -427.547209 
L 245.71669 -443.202875 
L 249.992741 -458.194221 
L 254.268791 -472.279982 
L 258.544841 -485.223317 
L 262.820891 -496.798365 
L 267.096942 -506.796769 
L 271.372992 -515.033888 
L 275.649042 -521.354468 
L 279.925092 -525.637503 
L 284.201143 -527.800088 
L 288.477193 -527.800088 
L 292.753243 -525.637503 
L 297.029293 -521.354468 
L 301.305344 -515.033888 
L 305.581394 -506.796769 
L 309.857444 -496.798365 
L 314.133494 -485.223317 
L 318.409545 -472.279982 
L 322.685595 -458.194221 
L 326.961645 -443.202875 
L 331.237695 -427.547209 
L 335.513746 -411.466571 
L 339.789796 -395.192489 
L 344.065846 -378.943404 
L 348.341896 -362.920195 
L 352.617947 -347.302596 
L 356.893997 -332.246576 
L 361.170047 -317.882693 
L 365.446098 -304.315379 
L 369.722148 -291.623117 
L 373.998198 -279.859387 
L 378.274248 -269.054266 
L 382.550299 -259.216558 
L 386.826349 -250.3363 
L 391.102399 -242.387508 
L 395.378449 -235.331035 
L 399.6545 -229.117419 
L 403.93055 -223.68962 
L 408.2066 -218.985561 
L 412.48265 -214.940427 
L 416.758701 -211.488655 
L 421.034751 -208.56562 
L 425.310801 -206.108992 
L 429.586851 -204.059784 
L 433.862902 -202.363106 
L 438.138952 -200.968657 
L 442.415002 -199.830987 
L 446.691052 -198.90956 
L 450.967103 -198.16867 
L 455.243153 -197.577229 
L 459.519203 -197.108471 
L 463.795253 -196.739595 
L 468.071304 -196.451379 
L 472.347354 -196.227776 
L 476.623404 -196.055523 
L 480.899454 -195.92376 
L 485.175505 -195.823673 
L 489.451555 -195.748178 
L 493.727605 -195.691628 
L 498.003655 -195.649564 
L 498.003655 -195.538011 
L 498.003655 -195.538011 
L 493.727605 -195.538011 
L 489.451555 -195.538011 
L 485.175505 -195.538011 
L 480.899454 -195.538011 
L 476.623404 -195.538011 
L 472.347354 -195.538011 
L 468.071304 -195.538011 
L 463.795253 -195.538011 
L 459.519203 -195.538011 
L 455.243153 -195.538011 
L 450.967103 -195.538011 
L 446.691052 -195.538011 
L 442.415002 -195.538011 
L 438.138952 -195.538011 
L 433.862902 -195.538011 
L 429.586851 -195.538011 
L 425.310801 -195.538011 
L 421.034751 -195.538011 
L 416.758701 -195.538011 
L 412.48265 -195.538011 
L 408.2066 -195.538011 
L 403.93055 -195.538011 
L 399.6545 -195.538011 
L 395.378449 -195.538011 
L 391.102399 -195.538011 
L 386.826349 -195.538011 
L 382.550299 -195.538011 
L 378.274248 -195.538011 
L 373.998198 -195.538011 
L 369.722148 -195.538011 
L 365.446098 -195.538011 
L 361.170047 -195.538011 
L 356.893997 -195.538011 
L 352.617947 -195.538011 
L 348.341896 -195.538011 
L 344.065846 -195.538011 
L 339.789796 -195.538011 
L 335.513746 -195.538011 
L 331.237695 -195.538011 
L 326.961645 -195.538011 
L 322.685595 -195.538011 
L 318.409545 -195.538011 
L 314.133494 -195.538011 
L 309.857444 -195.538011 
L 305.581394 -195.538011 
L 301.305344 -195.538011 
L 297.029293 -195.538011 
L 292.753243 -195.538011 
L 288.477193 -195.538011 
L 284.201143 -195.538011 
L 279.925092 -195.538011 
L 275.649042 -195.538011 
L 271.372992 -195.538011 
L 267.096942 -195.538011 
L 262.820891 -195.538011 
L 258.544841 -195.538011 
L 254.268791 -195.538011 
L 249.992741 -195.538011 
L 245.71669 -195.538011 
L 241.44064 -195.538011 
L 237.16459 -195.538011 
L 232.88854 -195.538011 
L 228.612489 -195.538011 
L 224.336439 -195.538011 
L 220.060389 -195.538011 
L 215.784339 -195.538011 
L 211.508288 -195.538011 
L 207.232238 -195.538011 
L 202.956188 -195.538011 
L 198.680137 -195.538011 
L 194.404087 -195.538011 
L 190.128037 -195.538011 
L 185.851987 -195.538011 
L 181.575936 -195.538011 
L 177.299886 -195.538011 
L 173.023836 -195.538011 
L 168.747786 -195.538011 
L 164.471735 -195.538011 
L 160.195685 -195.538011 
L 155.919635 -195.538011 
L 151.643585 -195.538011 
L 147.367534 -195.538011 
L 143.091484 -195.538011 
L 138.815434 -195.538011 
L 134.539384 -195.538011 
L 130.263333 -195.538011 
L 125.987283 -195.538011 
L 121.711233 -195.538011 
L 117.435183 -195.538011 
L 113.159132 -195.538011 
L 108.883082 -195.538011 
L 104.607032 -195.538011 
L 100.330982 -195.538011 
L 96.054931 -195.538011 
L 91.778881 -195.538011 
L 87.502831 -195.538011 
L 83.226781 -195.538011 
L 78.95073 -195.538011 
L 74.67468 -195.538011 
z
" id="m8f03677af7" style="stroke:#ff6384;stroke-opacity:0.5;"/>
    </defs>
    <g clip-path="url(#pecb228dbeb)">
     <use style="fill:#ff6384;fill-opacity:0.5;stroke:#ff6384;stroke-opacity:0.5;" x="0" xlink:href="#m8f03677af7" y="581.789375"/>
    </g>
   </g>
   <g id="PolyCollection_2">
    <defs>
     <path d="M 76.574034 -195.538011 
L 76.574034 -195.649686 
L 80.845409 -195.691797 
L 85.116784 -195.748408 
L 89.388158 -195.823986 
L 93.659533 -195.924182 
L 97.930907 -196.05609 
L 102.202282 -196.228531 
L 106.473656 -196.452379 
L 110.745031 -196.740911 
L 115.016405 -197.11019 
L 119.28778 -197.579461 
L 123.559154 -198.171549 
L 127.830529 -198.91325 
L 132.101903 -199.835686 
L 136.373278 -200.974602 
L 140.644653 -202.370577 
L 144.916027 -204.069113 
L 149.187402 -206.120564 
L 153.458776 -208.579881 
L 157.730151 -211.506116 
L 162.001525 -214.961666 
L 166.2729 -219.011228 
L 170.544274 -223.720436 
L 174.815649 -229.154178 
L 179.087023 -235.374595 
L 183.358398 -242.438793 
L 187.629773 -250.396286 
L 191.901147 -259.286265 
L 196.172522 -269.134742 
L 200.443896 -279.951691 
L 204.715271 -291.728298 
L 208.986645 -304.434453 
L 213.25802 -318.016619 
L 217.529394 -332.396226 
L 221.800769 -347.468727 
L 226.072143 -363.103422 
L 230.343518 -379.144171 
L 234.614892 -395.411044 
L 238.886267 -411.70294 
L 243.157642 -427.801181 
L 247.429016 -443.473985 
L 251.700391 -458.481741 
L 255.971765 -472.582921 
L 260.24314 -485.540424 
L 264.514514 -497.128144 
L 268.785889 -507.137492 
L 273.057263 -515.383628 
L 277.328638 -521.711127 
L 281.600012 -525.99885 
L 285.871387 -528.163803 
L 290.142762 -528.163803 
L 294.414136 -525.99885 
L 298.685511 -521.711127 
L 302.956885 -515.383628 
L 307.22826 -507.137492 
L 311.499634 -497.128144 
L 315.771009 -485.540424 
L 320.042383 -472.582921 
L 324.313758 -458.481741 
L 328.585132 -443.473985 
L 332.856507 -427.801181 
L 337.127881 -411.70294 
L 341.399256 -395.411044 
L 345.670631 -379.144171 
L 349.942005 -363.103422 
L 354.21338 -347.468727 
L 358.484754 -332.396226 
L 362.756129 -318.016619 
L 367.027503 -304.434453 
L 371.298878 -291.728298 
L 375.570252 -279.951691 
L 379.841627 -269.134742 
L 384.113001 -259.286265 
L 388.384376 -250.396286 
L 392.65575 -242.438793 
L 396.927125 -235.374595 
L 401.1985 -229.154178 
L 405.469874 -223.720436 
L 409.741249 -219.011228 
L 414.012623 -214.961666 
L 418.283998 -211.506116 
L 422.555372 -208.579881 
L 426.826747 -206.120564 
L 431.098121 -204.069113 
L 435.369496 -202.370577 
L 439.64087 -200.974602 
L 443.912245 -199.835686 
L 448.18362 -198.91325 
L 452.454994 -198.171549 
L 456.726369 -197.579461 
L 460.997743 -197.11019 
L 465.269118 -196.740911 
L 469.540492 -196.452379 
L 473.811867 -196.228531 
L 478.083241 -196.05609 
L 482.354616 -195.924182 
L 486.62599 -195.823986 
L 490.897365 -195.748408 
L 495.168739 -195.691797 
L 499.440114 -195.649686 
L 499.440114 -195.538011 
L 499.440114 -195.538011 
L 495.168739 -195.538011 
L 490.897365 -195.538011 
L 486.62599 -195.538011 
L 482.354616 -195.538011 
L 478.083241 -195.538011 
L 473.811867 -195.538011 
L 469.540492 -195.538011 
L 465.269118 -195.538011 
L 460.997743 -195.538011 
L 456.726369 -195.538011 
L 452.454994 -195.538011 
L 448.18362 -195.538011 
L 443.912245 -195.538011 
L 439.64087 -195.538011 
L 435.369496 -195.538011 
L 431.098121 -195.538011 
L 426.826747 -195.538011 
L 422.555372 -195.538011 
L 418.283998 -195.538011 
L 414.012623 -195.538011 
L 409.741249 -195.538011 
L 405.469874 -195.538011 
L 401.1985 -195.538011 
L 396.927125 -195.538011 
L 392.65575 -195.538011 
L 388.384376 -195.538011 
L 384.113001 -195.538011 
L 379.841627 -195.538011 
L 375.570252 -195.538011 
L 371.298878 -195.538011 
L 367.027503 -195.538011 
L 362.756129 -195.538011 
L 358.484754 -195.538011 
L 354.21338 -195.538011 
L 349.942005 -195.538011 
L 345.670631 -195.538011 
L 341.399256 -195.538011 
L 337.127881 -195.538011 
L 332.856507 -195.538011 
L 328.585132 -195.538011 
L 324.313758 -195.538011 
L 320.042383 -195.538011 
L 315.771009 -195.538011 
L 311.499634 -195.538011 
L 307.22826 -195.538011 
L 302.956885 -195.538011 
L 298.685511 -195.538011 
L 294.414136 -195.538011 
L 290.142762 -195.538011 
L 285.871387 -195.538011 
L 281.600012 -195.538011 
L 277.328638 -195.538011 
L 273.057263 -195.538011 
L 268.785889 -195.538011 
L 264.514514 -195.538011 
L 260.24314 -195.538011 
L 255.971765 -195.538011 
L 251.700391 -195.538011 
L 247.429016 -195.538011 
L 243.157642 -195.538011 
L 238.886267 -195.538011 
L 234.614892 -195.538011 
L 230.343518 -195.538011 
L 226.072143 -195.538011 
L 221.800769 -195.538011 
L 217.529394 -195.538011 
L 213.25802 -195.538011 
L 208.986645 -195.538011 
L 204.715271 -195.538011 
L 200.443896 -195.538011 
L 196.172522 -195.538011 
L 191.901147 -195.538011 
L 187.629773 -195.538011 
L 183.358398 -195.538011 
L 179.087023 -195.538011 
L 174.815649 -195.538011 
L 170.544274 -195.538011 
L 166.2729 -195.538011 
L 162.001525 -195.538011 
L 157.730151 -195.538011 
L 153.458776 -195.538011 
L 149.187402 -195.538011 
L 144.916027 -195.538011 
L 140.644653 -195.538011 
L 136.373278 -195.538011 
L 132.101903 -195.538011 
L 127.830529 -195.538011 
L 123.559154 -195.538011 
L 119.28778 -195.538011 
L 115.016405 -195.538011 
L 110.745031 -195.538011 
L 106.473656 -195.538011 
L 102.202282 -195.538011 
L 97.930907 -195.538011 
L 93.659533 -195.538011 
L 89.388158 -195.538011 
L 85.116784 -195.538011 
L 80.845409 -195.538011 
L 76.574034 -195.538011 
z
" id="mb3cfb89e97" style="stroke:#36a2eb;stroke-opacity:0.5;"/>
    </defs>
    <g clip-path="url(#pecb228dbeb)">
     <use style="fill:#36a2eb;fill-opacity:0.5;stroke:#36a2eb;stroke-opacity:0.5;" x="0" xlink:href="#mb3cfb89e97" y="581.789375"/>
    </g>
   </g>
   <g id="PolyCollection_3">
    <defs>
     <path d="M 58.827273 -195.538011 
L 58.827273 -195.650004 
L 63.086522 -195.692234 
L 67.345771 -195.749007 
L 71.60502 -195.8248 
L 75.864269 -195.925281 
L 80.123518 -196.057565 
L 84.382767 -196.230497 
L 88.642016 -196.454982 
L 92.901265 -196.744335 
L 97.160515 -197.114666 
L 101.419764 -197.585273 
L 105.679013 -198.179047 
L 109.938262 -198.922859 
L 114.197511 -199.847921 
L 118.45676 -200.990079 
L 122.716009 -202.390029 
L 126.975258 -204.093399 
L 131.234507 -206.150691 
L 135.493756 -208.617009 
L 139.753005 -211.551575 
L 144.012255 -215.016962 
L 148.271504 -219.078053 
L 152.530753 -223.800667 
L 156.790002 -229.249878 
L 161.049251 -235.488004 
L 165.3085 -242.572312 
L 169.567749 -250.552459 
L 173.826998 -259.467747 
L 178.086247 -269.344261 
L 182.345496 -280.192004 
L 186.604746 -292.002137 
L 190.863995 -304.744465 
L 195.123244 -318.365297 
L 199.382493 -332.785841 
L 203.641742 -347.901251 
L 207.900991 -363.580456 
L 212.16024 -379.666871 
L 216.419489 -395.980052 
L 220.678738 -412.31833 
L 224.937987 -428.4624 
L 229.197236 -444.179822 
L 233.456486 -459.230303 
L 237.715735 -473.371627 
L 241.974984 -486.366018 
L 246.234233 -497.986726 
L 250.493482 -508.02457 
L 254.752731 -516.294181 
L 259.01198 -522.639693 
L 263.271229 -526.939623 
L 267.530478 -529.110739 
L 271.789727 -529.110739 
L 276.048976 -526.939623 
L 280.308226 -522.639693 
L 284.567475 -516.294181 
L 288.826724 -508.02457 
L 293.085973 -497.986726 
L 297.345222 -486.366018 
L 301.604471 -473.371627 
L 305.86372 -459.230303 
L 310.122969 -444.179822 
L 314.382218 -428.4624 
L 318.641467 -412.31833 
L 322.900717 -395.980052 
L 327.159966 -379.666871 
L 331.419215 -363.580456 
L 335.678464 -347.901251 
L 339.937713 -332.785841 
L 344.196962 -318.365297 
L 348.456211 -304.744465 
L 352.71546 -292.002137 
L 356.974709 -280.192004 
L 361.233958 -269.344261 
L 365.493207 -259.467747 
L 369.752457 -250.552459 
L 374.011706 -242.572312 
L 378.270955 -235.488004 
L 382.530204 -229.249878 
L 386.789453 -223.800667 
L 391.048702 -219.078053 
L 395.307951 -215.016962 
L 399.5672 -211.551575 
L 403.826449 -208.617009 
L 408.085698 -206.150691 
L 412.344947 -204.093399 
L 416.604197 -202.390029 
L 420.863446 -200.990079 
L 425.122695 -199.847921 
L 429.381944 -198.922859 
L 433.641193 -198.179047 
L 437.900442 -197.585273 
L 442.159691 -197.114666 
L 446.41894 -196.744335 
L 450.678189 -196.454982 
L 454.937438 -196.230497 
L 459.196687 -196.057565 
L 463.455937 -195.925281 
L 467.715186 -195.8248 
L 471.974435 -195.749007 
L 476.233684 -195.692234 
L 480.492933 -195.650004 
L 480.492933 -195.538011 
L 480.492933 -195.538011 
L 476.233684 -195.538011 
L 471.974435 -195.538011 
L 467.715186 -195.538011 
L 463.455937 -195.538011 
L 459.196687 -195.538011 
L 454.937438 -195.538011 
L 450.678189 -195.538011 
L 446.41894 -195.538011 
L 442.159691 -195.538011 
L 437.900442 -195.538011 
L 433.641193 -195.538011 
L 429.381944 -195.538011 
L 425.122695 -195.538011 
L 420.863446 -195.538011 
L 416.604197 -195.538011 
L 412.344947 -195.538011 
L 408.085698 -195.538011 
L 403.826449 -195.538011 
L 399.5672 -195.538011 
L 395.307951 -195.538011 
L 391.048702 -195.538011 
L 386.789453 -195.538011 
L 382.530204 -195.538011 
L 378.270955 -195.538011 
L 374.011706 -195.538011 
L 369.752457 -195.538011 
L 365.493207 -195.538011 
L 361.233958 -195.538011 
L 356.974709 -195.538011 
L 352.71546 -195.538011 
L 348.456211 -195.538011 
L 344.196962 -195.538011 
L 339.937713 -195.538011 
L 335.678464 -195.538011 
L 331.419215 -195.538011 
L 327.159966 -195.538011 
L 322.900717 -195.538011 
L 318.641467 -195.538011 
L 314.382218 -195.538011 
L 310.122969 -195.538011 
L 305.86372 -195.538011 
L 301.604471 -195.538011 
L 297.345222 -195.538011 
L 293.085973 -195.538011 
L 288.826724 -195.538011 
L 284.567475 -195.538011 
L 280.308226 -195.538011 
L 276.048976 -195.538011 
L 271.789727 -195.538011 
L 267.530478 -195.538011 
L 263.271229 -195.538011 
L 259.01198 -195.538011 
L 254.752731 -195.538011 
L 250.493482 -195.538011 
L 246.234233 -195.538011 
L 241.974984 -195.538011 
L 237.715735 -195.538011 
L 233.456486 -195.538011 
L 229.197236 -195.538011 
L 224.937987 -195.538011 
L 220.678738 -195.538011 
L 216.419489 -195.538011 
L 212.16024 -195.538011 
L 207.900991 -195.538011 
L 203.641742 -195.538011 
L 199.382493 -195.538011 
L 195.123244 -195.538011 
L 190.863995 -195.538011 
L 186.604746 -195.538011 
L 182.345496 -195.538011 
L 178.086247 -195.538011 
L 173.826998 -195.538011 
L 169.567749 -195.538011 
L 165.3085 -195.538011 
L 161.049251 -195.538011 
L 156.790002 -195.538011 
L 152.530753 -195.538011 
L 148.271504 -195.538011 
L 144.012255 -195.538011 
L 139.753005 -195.538011 
L 135.493756 -195.538011 
L 131.234507 -195.538011 
L 126.975258 -195.538011 
L 122.716009 -195.538011 
L 118.45676 -195.538011 
L 114.197511 -195.538011 
L 109.938262 -195.538011 
L 105.679013 -195.538011 
L 101.419764 -195.538011 
L 97.160515 -195.538011 
L 92.901265 -195.538011 
L 88.642016 -195.538011 
L 84.382767 -195.538011 
L 80.123518 -195.538011 
L 75.864269 -195.538011 
L 71.60502 -195.538011 
L 67.345771 -195.538011 
L 63.086522 -195.538011 
L 58.827273 -195.538011 
z
" id="mf2abac3e0f" style="stroke:#4bc0c0;stroke-opacity:0.5;"/>
    </defs>
    <g clip-path="url(#pecb228dbeb)">
     <use style="fill:#4bc0c0;fill-opacity:0.5;stroke:#4bc0c0;stroke-opacity:0.5;" x="0" xlink:href="#mf2abac3e0f" y="581.789375"/>
    </g>
   </g>
   <g id="PolyCollection_4">
    <defs>
     <path d="M 90.663738 -195.538011 
L 90.663738 -195.649201 
L 94.953728 -195.691129 
L 99.243718 -195.747495 
L 103.533707 -195.822745 
L 107.823697 -195.922506 
L 112.113687 -196.053842 
L 116.403677 -196.225535 
L 120.693667 -196.448411 
L 124.983656 -196.735691 
L 129.273646 -197.103368 
L 133.563636 -197.570603 
L 137.853626 -198.160122 
L 142.143616 -198.898604 
L 146.433605 -199.817038 
L 150.723595 -200.951012 
L 155.013585 -202.340929 
L 159.303575 -204.032094 
L 163.593564 -206.074644 
L 167.883554 -208.523289 
L 172.173544 -211.436826 
L 176.463534 -214.877382 
L 180.753524 -218.909373 
L 185.043513 -223.598146 
L 189.333503 -229.008309 
L 193.623493 -235.201735 
L 197.913483 -242.235279 
L 202.203473 -250.158243 
L 206.493462 -259.009647 
L 210.783452 -268.815389 
L 215.073442 -279.5854 
L 219.363432 -291.310906 
L 223.653422 -303.961926 
L 227.943411 -317.485156 
L 232.233401 -331.802367 
L 236.523391 -346.809465 
L 240.813381 -362.376317 
L 245.10337 -378.347462 
L 249.39336 -394.543749 
L 253.68335 -410.764951 
L 257.97334 -426.793338 
L 262.26333 -442.398134 
L 266.553319 -457.340768 
L 270.843309 -471.38076 
L 275.133299 -484.282037 
L 279.423289 -495.819475 
L 283.713279 -505.785391 
L 288.003268 -513.995745 
L 292.293258 -520.295787 
L 296.583248 -524.564905 
L 300.873238 -526.720463 
L 305.163228 -526.720463 
L 309.453217 -524.564905 
L 313.743207 -520.295787 
L 318.033197 -513.995745 
L 322.323187 -505.785391 
L 326.613176 -495.819475 
L 330.903166 -484.282037 
L 335.193156 -471.38076 
L 339.483146 -457.340768 
L 343.773136 -442.398134 
L 348.063125 -426.793338 
L 352.353115 -410.764951 
L 356.643105 -394.543749 
L 360.933095 -378.347462 
L 365.223085 -362.376317 
L 369.513074 -346.809465 
L 373.803064 -331.802367 
L 378.093054 -317.485156 
L 382.383044 -303.961926 
L 386.673034 -291.310906 
L 390.963023 -279.5854 
L 395.253013 -268.815389 
L 399.543003 -259.009647 
L 403.832993 -250.158243 
L 408.122983 -242.235279 
L 412.412972 -235.201735 
L 416.702962 -229.008309 
L 420.992952 -223.598146 
L 425.282942 -218.909373 
L 429.572931 -214.877382 
L 433.862921 -211.436826 
L 438.152911 -208.523289 
L 442.442901 -206.074644 
L 446.732891 -204.032094 
L 451.02288 -202.340929 
L 455.31287 -200.951012 
L 459.60286 -199.817038 
L 463.89285 -198.898604 
L 468.18284 -198.160122 
L 472.472829 -197.570603 
L 476.762819 -197.103368 
L 481.052809 -196.735691 
L 485.342799 -196.448411 
L 489.632789 -196.225535 
L 493.922778 -196.053842 
L 498.212768 -195.922506 
L 502.502758 -195.822745 
L 506.792748 -195.747495 
L 511.082737 -195.691129 
L 515.372727 -195.649201 
L 515.372727 -195.538011 
L 515.372727 -195.538011 
L 511.082737 -195.538011 
L 506.792748 -195.538011 
L 502.502758 -195.538011 
L 498.212768 -195.538011 
L 493.922778 -195.538011 
L 489.632789 -195.538011 
L 485.342799 -195.538011 
L 481.052809 -195.538011 
L 476.762819 -195.538011 
L 472.472829 -195.538011 
L 468.18284 -195.538011 
L 463.89285 -195.538011 
L 459.60286 -195.538011 
L 455.31287 -195.538011 
L 451.02288 -195.538011 
L 446.732891 -195.538011 
L 442.442901 -195.538011 
L 438.152911 -195.538011 
L 433.862921 -195.538011 
L 429.572931 -195.538011 
L 425.282942 -195.538011 
L 420.992952 -195.538011 
L 416.702962 -195.538011 
L 412.412972 -195.538011 
L 408.122983 -195.538011 
L 403.832993 -195.538011 
L 399.543003 -195.538011 
L 395.253013 -195.538011 
L 390.963023 -195.538011 
L 386.673034 -195.538011 
L 382.383044 -195.538011 
L 378.093054 -195.538011 
L 373.803064 -195.538011 
L 369.513074 -195.538011 
L 365.223085 -195.538011 
L 360.933095 -195.538011 
L 356.643105 -195.538011 
L 352.353115 -195.538011 
L 348.063125 -195.538011 
L 343.773136 -195.538011 
L 339.483146 -195.538011 
L 335.193156 -195.538011 
L 330.903166 -195.538011 
L 326.613176 -195.538011 
L 322.323187 -195.538011 
L 318.033197 -195.538011 
L 313.743207 -195.538011 
L 309.453217 -195.538011 
L 305.163228 -195.538011 
L 300.873238 -195.538011 
L 296.583248 -195.538011 
L 292.293258 -195.538011 
L 288.003268 -195.538011 
L 283.713279 -195.538011 
L 279.423289 -195.538011 
L 275.133299 -195.538011 
L 270.843309 -195.538011 
L 266.553319 -195.538011 
L 262.26333 -195.538011 
L 257.97334 -195.538011 
L 253.68335 -195.538011 
L 249.39336 -195.538011 
L 245.10337 -195.538011 
L 240.813381 -195.538011 
L 236.523391 -195.538011 
L 232.233401 -195.538011 
L 227.943411 -195.538011 
L 223.653422 -195.538011 
L 219.363432 -195.538011 
L 215.073442 -195.538011 
L 210.783452 -195.538011 
L 206.493462 -195.538011 
L 202.203473 -195.538011 
L 197.913483 -195.538011 
L 193.623493 -195.538011 
L 189.333503 -195.538011 
L 185.043513 -195.538011 
L 180.753524 -195.538011 
L 176.463534 -195.538011 
L 172.173544 -195.538011 
L 167.883554 -195.538011 
L 163.593564 -195.538011 
L 159.303575 -195.538011 
L 155.013585 -195.538011 
L 150.723595 -195.538011 
L 146.433605 -195.538011 
L 142.143616 -195.538011 
L 137.853626 -195.538011 
L 133.563636 -195.538011 
L 129.273646 -195.538011 
L 124.983656 -195.538011 
L 120.693667 -195.538011 
L 116.403677 -195.538011 
L 112.113687 -195.538011 
L 107.823697 -195.538011 
L 103.533707 -195.538011 
L 99.243718 -195.538011 
L 94.953728 -195.538011 
L 90.663738 -195.538011 
z
" id="m794f56007c" style="stroke:#9966ff;stroke-opacity:0.5;"/>
    </defs>
    <g clip-path="url(#pecb228dbeb)">
     <use style="fill:#9966ff;fill-opacity:0.5;stroke:#9966ff;stroke-opacity:0.5;" x="0" xlink:href="#m794f56007c" y="581.789375"/>
    </g>
   </g>
   <g id="line2d_1">
    <path clip-path="url(#pecb228dbeb)" d="M 74.67468 386.139811 
L 78.95073 386.097747 
L 83.226781 386.041197 
L 87.502831 385.965702 
L 91.778881 385.865615 
L 96.054931 385.733852 
L 100.330982 385.561599 
L 104.607032 385.337996 
L 108.883082 385.04978 
L 113.159132 384.680904 
L 117.435183 384.212146 
L 121.711233 383.620705 
L 125.987283 382.879815 
L 130.263333 381.958388 
L 134.539384 380.820718 
L 138.815434 379.426269 
L 143.091484 377.729591 
L 147.367534 375.680383 
L 151.643585 373.223755 
L 155.919635 370.30072 
L 160.195685 366.848948 
L 164.471735 362.803814 
L 168.747786 358.099755 
L 173.023836 352.671956 
L 177.299886 346.45834 
L 181.575936 339.401867 
L 185.851987 331.453075 
L 190.128037 322.572817 
L 194.404087 312.735109 
L 198.680137 301.929988 
L 202.956188 290.166258 
L 207.232238 277.473996 
L 211.508288 263.906682 
L 215.784339 249.542799 
L 220.060389 234.486779 
L 224.336439 218.86918 
L 228.612489 202.845971 
L 232.88854 186.596886 
L 237.16459 170.322804 
L 241.44064 154.242166 
L 245.71669 138.5865 
L 249.992741 123.595154 
L 254.268791 109.509393 
L 258.544841 96.566058 
L 262.820891 84.99101 
L 267.096942 74.992606 
L 271.372992 66.755487 
L 275.649042 60.434907 
L 279.925092 56.151872 
L 284.201143 53.989287 
L 288.477193 53.989287 
L 292.753243 56.151872 
L 297.029293 60.434907 
L 301.305344 66.755487 
L 305.581394 74.992606 
L 309.857444 84.99101 
L 314.133494 96.566058 
L 318.409545 109.509393 
L 322.685595 123.595154 
L 326.961645 138.5865 
L 331.237695 154.242166 
L 335.513746 170.322804 
L 339.789796 186.596886 
L 344.065846 202.845971 
L 348.341896 218.86918 
L 352.617947 234.486779 
L 356.893997 249.542799 
L 361.170047 263.906682 
L 365.446098 277.473996 
L 369.722148 290.166258 
L 373.998198 301.929988 
L 378.274248 312.735109 
L 382.550299 322.572817 
L 386.826349 331.453075 
L 391.102399 339.401867 
L 395.378449 346.45834 
L 399.6545 352.671956 
L 403.93055 358.099755 
L 408.2066 362.803814 
L 412.48265 366.848948 
L 416.758701 370.30072 
L 421.034751 373.223755 
L 425.310801 375.680383 
L 429.586851 377.729591 
L 433.862902 379.426269 
L 438.138952 380.820718 
L 442.415002 381.958388 
L 446.691052 382.879815 
L 450.967103 383.620705 
L 455.243153 384.212146 
L 459.519203 384.680904 
L 463.795253 385.04978 
L 468.071304 385.337996 
L 472.347354 385.561599 
L 476.623404 385.733852 
L 480.899454 385.865615 
L 485.175505 385.965702 
L 489.451555 386.041197 
L 493.727605 386.097747 
L 498.003655 386.139811 
" style="fill:none;stroke:#ff6384;stroke-linecap:square;"/>
   </g>
   <g id="line2d_2">
    <path clip-path="url(#pecb228dbeb)" d="M 76.574034 386.139689 
L 80.845409 386.097578 
L 85.116784 386.040967 
L 89.388158 385.965389 
L 93.659533 385.865193 
L 97.930907 385.733285 
L 102.202282 385.560844 
L 106.473656 385.336996 
L 110.745031 385.048464 
L 115.016405 384.679185 
L 119.28778 384.209914 
L 123.559154 383.617826 
L 127.830529 382.876125 
L 132.101903 381.953689 
L 136.373278 380.814773 
L 140.644653 379.418798 
L 144.916027 377.720262 
L 149.187402 375.668811 
L 153.458776 373.209494 
L 157.730151 370.283259 
L 162.001525 366.827709 
L 166.2729 362.778147 
L 170.544274 358.068939 
L 174.815649 352.635197 
L 179.087023 346.41478 
L 183.358398 339.350582 
L 187.629773 331.393089 
L 191.901147 322.50311 
L 196.172522 312.654633 
L 200.443896 301.837684 
L 204.715271 290.061077 
L 208.986645 277.354922 
L 213.25802 263.772756 
L 217.529394 249.393149 
L 221.800769 234.320648 
L 226.072143 218.685953 
L 230.343518 202.645204 
L 234.614892 186.378331 
L 238.886267 170.086435 
L 243.157642 153.988194 
L 247.429016 138.31539 
L 251.700391 123.307634 
L 255.971765 109.206454 
L 260.24314 96.248951 
L 264.514514 84.661231 
L 268.785889 74.651883 
L 273.057263 66.405747 
L 277.328638 60.078248 
L 281.600012 55.790525 
L 285.871387 53.625572 
L 290.142762 53.625572 
L 294.414136 55.790525 
L 298.685511 60.078248 
L 302.956885 66.405747 
L 307.22826 74.651883 
L 311.499634 84.661231 
L 315.771009 96.248951 
L 320.042383 109.206454 
L 324.313758 123.307634 
L 328.585132 138.31539 
L 332.856507 153.988194 
L 337.127881 170.086435 
L 341.399256 186.378331 
L 345.670631 202.645204 
L 349.942005 218.685953 
L 354.21338 234.320648 
L 358.484754 249.393149 
L 362.756129 263.772756 
L 367.027503 277.354922 
L 371.298878 290.061077 
L 375.570252 301.837684 
L 379.841627 312.654633 
L 384.113001 322.50311 
L 388.384376 331.393089 
L 392.65575 339.350582 
L 396.927125 346.41478 
L 401.1985 352.635197 
L 405.469874 358.068939 
L 409.741249 362.778147 
L 414.012623 366.827709 
L 418.283998 370.283259 
L 422.555372 373.209494 
L 426.826747 375.668811 
L 431.098121 377.720262 
L 435.369496 379.418798 
L 439.64087 380.814773 
L 443.912245 381.953689 
L 448.18362 382.876125 
L 452.454994 383.617826 
L 456.726369 384.209914 
L 460.997743 384.679185 
L 465.269118 385.048464 
L 469.540492 385.336996 
L 473.811867 385.560844 
L 478.083241 385.733285 
L 482.354616 385.865193 
L 486.62599 385.965389 
L 490.897365 386.040967 
L 495.168739 386.097578 
L 499.440114 386.139689 
" style="fill:none;stroke:#36a2eb;stroke-linecap:square;"/>
   </g>
   <g id="line2d_3">
    <path clip-path="url(#pecb228dbeb)" d="M 58.827273 386.139371 
L 63.086522 386.097141 
L 67.345771 386.040368 
L 71.60502 385.964575 
L 75.864269 385.864094 
L 80.123518 385.73181 
L 84.382767 385.558878 
L 88.642016 385.334393 
L 92.901265 385.04504 
L 97.160515 384.674709 
L 101.419764 384.204102 
L 105.679013 383.610328 
L 109.938262 382.866516 
L 114.197511 381.941454 
L 118.45676 380.799296 
L 122.716009 379.399346 
L 126.975258 377.695976 
L 131.234507 375.638684 
L 135.493756 373.172366 
L 139.753005 370.2378 
L 144.012255 366.772413 
L 148.271504 362.711322 
L 152.530753 357.988708 
L 156.790002 352.539497 
L 161.049251 346.301371 
L 165.3085 339.217063 
L 169.567749 331.236916 
L 173.826998 322.321628 
L 178.086247 312.445114 
L 182.345496 301.597371 
L 186.604746 289.787238 
L 190.863995 277.04491 
L 195.123244 263.424078 
L 199.382493 249.003534 
L 203.641742 233.888124 
L 207.900991 218.208919 
L 212.16024 202.122504 
L 216.419489 185.809323 
L 220.678738 169.471045 
L 224.937987 153.326975 
L 229.197236 137.609553 
L 233.456486 122.559072 
L 237.715735 108.417748 
L 241.974984 95.423357 
L 246.234233 83.802649 
L 250.493482 73.764805 
L 254.752731 65.495194 
L 259.01198 59.149682 
L 263.271229 54.849752 
L 267.530478 52.678636 
L 271.789727 52.678636 
L 276.048976 54.849752 
L 280.308226 59.149682 
L 284.567475 65.495194 
L 288.826724 73.764805 
L 293.085973 83.802649 
L 297.345222 95.423357 
L 301.604471 108.417748 
L 305.86372 122.559072 
L 310.122969 137.609553 
L 314.382218 153.326975 
L 318.641467 169.471045 
L 322.900717 185.809323 
L 327.159966 202.122504 
L 331.419215 218.208919 
L 335.678464 233.888124 
L 339.937713 249.003534 
L 344.196962 263.424078 
L 348.456211 277.04491 
L 352.71546 289.787238 
L 356.974709 301.597371 
L 361.233958 312.445114 
L 365.493207 322.321628 
L 369.752457 331.236916 
L 374.011706 339.217063 
L 378.270955 346.301371 
L 382.530204 352.539497 
L 386.789453 357.988708 
L 391.048702 362.711322 
L 395.307951 366.772413 
L 399.5672 370.2378 
L 403.826449 373.172366 
L 408.085698 375.638684 
L 412.344947 377.695976 
L 416.604197 379.399346 
L 420.863446 380.799296 
L 425.122695 381.941454 
L 429.381944 382.866516 
L 433.641193 383.610328 
L 437.900442 384.204102 
L 442.159691 384.674709 
L 446.41894 385.04504 
L 450.678189 385.334393 
L 454.937438 385.558878 
L 459.196687 385.73181 
L 463.455937 385.864094 
L 467.715186 385.964575 
L 471.974435 386.040368 
L 476.233684 386.097141 
L 480.492933 386.139371 
" style="fill:none;stroke:#4bc0c0;stroke-linecap:square;"/>
   </g>
   <g id="line2d_4">
    <path clip-path="url(#pecb228dbeb)" d="M 90.663738 386.140174 
L 94.953728 386.098246 
L 99.243718 386.04188 
L 103.533707 385.96663 
L 107.823697 385.866869 
L 112.113687 385.735533 
L 116.403677 385.56384 
L 120.693667 385.340964 
L 124.983656 385.053684 
L 129.273646 384.686007 
L 133.563636 384.218772 
L 137.853626 383.629253 
L 142.143616 382.890771 
L 146.433605 381.972337 
L 150.723595 380.838363 
L 155.013585 379.448446 
L 159.303575 377.757281 
L 163.593564 375.714731 
L 167.883554 373.266086 
L 172.173544 370.352549 
L 176.463534 366.911993 
L 180.753524 362.880002 
L 185.043513 358.191229 
L 189.333503 352.781066 
L 193.623493 346.58764 
L 197.913483 339.554096 
L 202.203473 331.631132 
L 206.493462 322.779728 
L 210.783452 312.973986 
L 215.073442 302.203975 
L 219.363432 290.478469 
L 223.653422 277.827449 
L 227.943411 264.304219 
L 232.233401 249.987008 
L 236.523391 234.97991 
L 240.813381 219.413058 
L 245.10337 203.441913 
L 249.39336 187.245626 
L 253.68335 171.024424 
L 257.97334 154.996037 
L 262.26333 139.391241 
L 266.553319 124.448607 
L 270.843309 110.408615 
L 275.133299 97.507338 
L 279.423289 85.9699 
L 283.713279 76.003984 
L 288.003268 67.79363 
L 292.293258 61.493588 
L 296.583248 57.22447 
L 300.873238 55.068912 
L 305.163228 55.068912 
L 309.453217 57.22447 
L 313.743207 61.493588 
L 318.033197 67.79363 
L 322.323187 76.003984 
L 326.613176 85.9699 
L 330.903166 97.507338 
L 335.193156 110.408615 
L 339.483146 124.448607 
L 343.773136 139.391241 
L 348.063125 154.996037 
L 352.353115 171.024424 
L 356.643105 187.245626 
L 360.933095 203.441913 
L 365.223085 219.413058 
L 369.513074 234.97991 
L 373.803064 249.987008 
L 378.093054 264.304219 
L 382.383044 277.827449 
L 386.673034 290.478469 
L 390.963023 302.203975 
L 395.253013 312.973986 
L 399.543003 322.779728 
L 403.832993 331.631132 
L 408.122983 339.554096 
L 412.412972 346.58764 
L 416.702962 352.781066 
L 420.992952 358.191229 
L 425.282942 362.880002 
L 429.572931 366.911993 
L 433.862921 370.352549 
L 438.152911 373.266086 
L 442.442901 375.714731 
L 446.732891 377.757281 
L 451.02288 379.448446 
L 455.31287 380.838363 
L 459.60286 381.972337 
L 463.89285 382.890771 
L 468.18284 383.629253 
L 472.472829 384.218772 
L 476.762819 384.686007 
L 481.052809 385.053684 
L 485.342799 385.340964 
L 489.632789 385.56384 
L 493.922778 385.735533 
L 498.212768 385.866869 
L 502.502758 385.96663 
L 506.792748 386.04188 
L 511.082737 386.098246 
L 515.372727 386.140174 
" style="fill:none;stroke:#9966ff;stroke-linecap:square;"/>
   </g>
   <g id="patch_3">
    <path d="M 36 402.93 
L 538.2 402.93 
" style="fill:none;stroke:#000000;stroke-linecap:square;stroke-linejoin:miter;stroke-width:0.8;"/>
   </g>
   <g id="legend_1">
    <g id="patch_4">
     <path d="M 450.225313 129.3975 
L 528.4 129.3975 
Q 531.2 129.3975 531.2 126.5975 
L 531.2 45.8 
Q 531.2 43 528.4 43 
L 450.225313 43 
Q 447.425313 43 447.425313 45.8 
L 447.425313 126.5975 
Q 447.425313 129.3975 450.225313 129.3975 
z
" style="fill:#ffffff;opacity:0.8;stroke:#cccccc;stroke-linejoin:miter;"/>
    </g>
    <g id="patch_5">
     <path d="M 453.025313 59.237813 
L 481.025313 59.237813 
L 481.025313 49.437813 
L 453.025313 49.437813 
z
" style="fill:#ff6384;opacity:0.5;stroke:#ff6384;stroke-linejoin:miter;"/>
    </g>
    <g id="text_1">
     <!-- base -->
     <defs>
      <path d="M 48.6875 27.296875 
Q 48.6875 37.203125 44.609375 42.84375 
Q 40.53125 48.484375 33.40625 48.484375 
Q 26.265625 48.484375 22.1875 42.84375 
Q 18.109375 37.203125 18.109375 27.296875 
Q 18.109375 17.390625 22.1875 11.75 
Q 26.265625 6.109375 33.40625 6.109375 
Q 40.53125 6.109375 44.609375 11.75 
Q 48.6875 17.390625 48.6875 27.296875 
z
M 18.109375 46.390625 
Q 20.953125 51.265625 25.265625 53.625 
Q 29.59375 56 35.59375 56 
Q 45.5625 56 51.78125 48.09375 
Q 58.015625 40.1875 58.015625 27.296875 
Q 58.015625 14.40625 51.78125 6.484375 
Q 45.5625 -1.421875 35.59375 -1.421875 
Q 29.59375 -1.421875 25.265625 0.953125 
Q 20.953125 3.328125 18.109375 8.203125 
L 18.109375 0 
L 9.078125 0 
L 9.078125 75.984375 
L 18.109375 75.984375 
z
" id="DejaVuSans-98"/>
      <path d="M 34.28125 27.484375 
Q 23.390625 27.484375 19.1875 25 
Q 14.984375 22.515625 14.984375 16.5 
Q 14.984375 11.71875 18.140625 8.90625 
Q 21.296875 6.109375 26.703125 6.109375 
Q 34.1875 6.109375 38.703125 11.40625 
Q 43.21875 16.703125 43.21875 25.484375 
L 43.21875 27.484375 
z
M 52.203125 31.203125 
L 52.203125 0 
L 43.21875 0 
L 43.21875 8.296875 
Q 40.140625 3.328125 35.546875 0.953125 
Q 30.953125 -1.421875 24.3125 -1.421875 
Q 15.921875 -1.421875 10.953125 3.296875 
Q 6 8.015625 6 15.921875 
Q 6 25.140625 12.171875 29.828125 
Q 18.359375 34.515625 30.609375 34.515625 
L 43.21875 34.515625 
L 43.21875 35.40625 
Q 43.21875 41.609375 39.140625 45 
Q 35.0625 48.390625 27.6875 48.390625 
Q 23 48.390625 18.546875 47.265625 
Q 14.109375 46.140625 10.015625 43.890625 
L 10.015625 52.203125 
Q 14.9375 54.109375 19.578125 55.046875 
Q 24.21875 56 28.609375 56 
Q 40.484375 56 46.34375 49.84375 
Q 52.203125 43.703125 52.203125 31.203125 
z
" id="DejaVuSans-97"/>
      <path d="M 44.28125 53.078125 
L 44.28125 44.578125 
Q 40.484375 46.53125 36.375 47.5 
Q 32.28125 48.484375 27.875 48.484375 
Q 21.1875 48.484375 17.84375 46.4375 
Q 14.5 44.390625 14.5 40.28125 
Q 14.5 37.15625 16.890625 35.375 
Q 19.28125 33.59375 26.515625 31.984375 
L 29.59375 31.296875 
Q 39.15625 29.25 43.1875 25.515625 
Q 47.21875 21.78125 47.21875 15.09375 
Q 47.21875 7.46875 41.1875 3.015625 
Q 35.15625 -1.421875 24.609375 -1.421875 
Q 20.21875 -1.421875 15.453125 -0.5625 
Q 10.6875 0.296875 5.421875 2 
L 5.421875 11.28125 
Q 10.40625 8.6875 15.234375 7.390625 
Q 20.0625 6.109375 24.8125 6.109375 
Q 31.15625 6.109375 34.5625 8.28125 
Q 37.984375 10.453125 37.984375 14.40625 
Q 37.984375 18.0625 35.515625 20.015625 
Q 33.0625 21.96875 24.703125 23.78125 
L 21.578125 24.515625 
Q 13.234375 26.265625 9.515625 29.90625 
Q 5.8125 33.546875 5.8125 39.890625 
Q 5.8125 47.609375 11.28125 51.796875 
Q 16.75 56 26.8125 56 
Q 31.78125 56 36.171875 55.265625 
Q 40.578125 54.546875 44.28125 53.078125 
z
" id="DejaVuSans-115"/>
      <path d="M 56.203125 29.59375 
L 56.203125 25.203125 
L 14.890625 25.203125 
Q 15.484375 15.921875 20.484375 11.0625 
Q 25.484375 6.203125 34.421875 6.203125 
Q 39.59375 6.203125 44.453125 7.46875 
Q 49.3125 8.734375 54.109375 11.28125 
L 54.109375 2.78125 
Q 49.265625 0.734375 44.1875 -0.34375 
Q 39.109375 -1.421875 33.890625 -1.421875 
Q 20.796875 -1.421875 13.15625 6.1875 
Q 5.515625 13.8125 5.515625 26.8125 
Q 5.515625 40.234375 12.765625 48.109375 
Q 20.015625 56 32.328125 56 
Q 43.359375 56 49.78125 48.890625 
Q 56.203125 41.796875 56.203125 29.59375 
z
M 47.21875 32.234375 
Q 47.125 39.59375 43.09375 43.984375 
Q 39.0625 48.390625 32.421875 48.390625 
Q 24.90625 48.390625 20.390625 44.140625 
Q 15.875 39.890625 15.1875 32.171875 
z
" id="DejaVuSans-101"/>
     </defs>
     <g transform="translate(492.225313 59.237813)scale(0.14 -0.14)">
      <use xlink:href="#DejaVuSans-98"/>
      <use x="63.476562" xlink:href="#DejaVuSans-97"/>
      <use x="124.755859" xlink:href="#DejaVuSans-115"/>
      <use x="176.855469" xlink:href="#DejaVuSans-101"/>
     </g>
    </g>
    <g id="patch_6">
     <path d="M 453.025313 79.787188 
L 481.025313 79.787188 
L 481.025313 69.987188 
L 453.025313 69.987188 
z
" style="fill:#36a2eb;opacity:0.5;stroke:#36a2eb;stroke-linejoin:miter;"/>
    </g>
    <g id="text_2">
     <!-- fifth -->
     <defs>
      <path d="M 37.109375 75.984375 
L 37.109375 68.5 
L 28.515625 68.5 
Q 23.6875 68.5 21.796875 66.546875 
Q 19.921875 64.59375 19.921875 59.515625 
L 19.921875 54.6875 
L 34.71875 54.6875 
L 34.71875 47.703125 
L 19.921875 47.703125 
L 19.921875 0 
L 10.890625 0 
L 10.890625 47.703125 
L 2.296875 47.703125 
L 2.296875 54.6875 
L 10.890625 54.6875 
L 10.890625 58.5 
Q 10.890625 67.625 15.140625 71.796875 
Q 19.390625 75.984375 28.609375 75.984375 
z
" id="DejaVuSans-102"/>
      <path d="M 9.421875 54.6875 
L 18.40625 54.6875 
L 18.40625 0 
L 9.421875 0 
z
M 9.421875 75.984375 
L 18.40625 75.984375 
L 18.40625 64.59375 
L 9.421875 64.59375 
z
" id="DejaVuSans-105"/>
      <path d="M 18.3125 70.21875 
L 18.3125 54.6875 
L 36.8125 54.6875 
L 36.8125 47.703125 
L 18.3125 47.703125 
L 18.3125 18.015625 
Q 18.3125 11.328125 20.140625 9.421875 
Q 21.96875 7.515625 27.59375 7.515625 
L 36.8125 7.515625 
L 36.8125 0 
L 27.59375 0 
Q 17.1875 0 13.234375 3.875 
Q 9.28125 7.765625 9.28125 18.015625 
L 9.28125 47.703125 
L 2.6875 47.703125 
L 2.6875 54.6875 
L 9.28125 54.6875 
L 9.28125 70.21875 
z
" id="DejaVuSans-116"/>
      <path d="M 54.890625 33.015625 
L 54.890625 0 
L 45.90625 0 
L 45.90625 32.71875 
Q 45.90625 40.484375 42.875 44.328125 
Q 39.84375 48.1875 33.796875 48.1875 
Q 26.515625 48.1875 22.3125 43.546875 
Q 18.109375 38.921875 18.109375 30.90625 
L 18.109375 0 
L 9.078125 0 
L 9.078125 75.984375 
L 18.109375 75.984375 
L 18.109375 46.1875 
Q 21.34375 51.125 25.703125 53.5625 
Q 30.078125 56 35.796875 56 
Q 45.21875 56 50.046875 50.171875 
Q 54.890625 44.34375 54.890625 33.015625 
z
" id="DejaVuSans-104"/>
     </defs>
     <g transform="translate(492.225313 79.787188)scale(0.14 -0.14)">
      <use xlink:href="#DejaVuSans-102"/>
      <use x="35.205078" xlink:href="#DejaVuSans-105"/>
      <use x="62.988281" xlink:href="#DejaVuSans-102"/>
      <use x="98.177734" xlink:href="#DejaVuSans-116"/>
      <use x="137.386719" xlink:href="#DejaVuSans-104"/>
     </g>
    </g>
    <g id="patch_7">
     <path d="M 453.025313 100.336563 
L 481.025313 100.336563 
L 481.025313 90.536563 
L 453.025313 90.536563 
z
" style="fill:#4bc0c0;opacity:0.5;stroke:#4bc0c0;stroke-linejoin:miter;"/>
    </g>
    <g id="text_3">
     <!-- mid -->
     <defs>
      <path d="M 52 44.1875 
Q 55.375 50.25 60.0625 53.125 
Q 64.75 56 71.09375 56 
Q 79.640625 56 84.28125 50.015625 
Q 88.921875 44.046875 88.921875 33.015625 
L 88.921875 0 
L 79.890625 0 
L 79.890625 32.71875 
Q 79.890625 40.578125 77.09375 44.375 
Q 74.3125 48.1875 68.609375 48.1875 
Q 61.625 48.1875 57.5625 43.546875 
Q 53.515625 38.921875 53.515625 30.90625 
L 53.515625 0 
L 44.484375 0 
L 44.484375 32.71875 
Q 44.484375 40.625 41.703125 44.40625 
Q 38.921875 48.1875 33.109375 48.1875 
Q 26.21875 48.1875 22.15625 43.53125 
Q 18.109375 38.875 18.109375 30.90625 
L 18.109375 0 
L 9.078125 0 
L 9.078125 54.6875 
L 18.109375 54.6875 
L 18.109375 46.1875 
Q 21.1875 51.21875 25.484375 53.609375 
Q 29.78125 56 35.6875 56 
Q 41.65625 56 45.828125 52.96875 
Q 50 49.953125 52 44.1875 
z
" id="DejaVuSans-109"/>
      <path d="M 45.40625 46.390625 
L 45.40625 75.984375 
L 54.390625 75.984375 
L 54.390625 0 
L 45.40625 0 
L 45.40625 8.203125 
Q 42.578125 3.328125 38.25 0.953125 
Q 33.9375 -1.421875 27.875 -1.421875 
Q 17.96875 -1.421875 11.734375 6.484375 
Q 5.515625 14.40625 5.515625 27.296875 
Q 5.515625 40.1875 11.734375 48.09375 
Q 17.96875 56 27.875 56 
Q 33.9375 56 38.25 53.625 
Q 42.578125 51.265625 45.40625 46.390625 
z
M 14.796875 27.296875 
Q 14.796875 17.390625 18.875 11.75 
Q 22.953125 6.109375 30.078125 6.109375 
Q 37.203125 6.109375 41.296875 11.75 
Q 45.40625 17.390625 45.40625 27.296875 
Q 45.40625 37.203125 41.296875 42.84375 
Q 37.203125 48.484375 30.078125 48.484375 
Q 22.953125 48.484375 18.875 42.84375 
Q 14.796875 37.203125 14.796875 27.296875 
z
" id="DejaVuSans-100"/>
     </defs>
     <g transform="translate(492.225313 100.336563)scale(0.14 -0.14)">
      <use xlink:href="#DejaVuSans-109"/>
      <use x="97.412109" xlink:href="#DejaVuSans-105"/>
      <use x="125.195312" xlink:href="#DejaVuSans-100"/>
     </g>
    </g>
    <g id="patch_8">
     <path d="M 453.025313 120.885938 
L 481.025313 120.885938 
L 481.025313 111.085938 
L 453.025313 111.085938 
z
" style="fill:#9966ff;opacity:0.5;stroke:#9966ff;stroke-linejoin:miter;"/>
    </g>
    <g id="text_4">
     <!-- right -->
     <defs>
      <path d="M 41.109375 46.296875 
Q 39.59375 47.171875 37.8125 47.578125 
Q 36.03125 48 33.890625 48 
Q 26.265625 48 22.1875 43.046875 
Q 18.109375 38.09375 18.109375 28.8125 
L 18.109375 0 
L 9.078125 0 
L 9.078125 54.6875 
L 18.109375 54.6875 
L 18.109375 46.1875 
Q 20.953125 51.171875 25.484375 53.578125 
Q 30.03125 56 36.53125 56 
Q 37.453125 56 38.578125 55.875 
Q 39.703125 55.765625 41.0625 55.515625 
z
" id="DejaVuSans-114"/>
      <path d="M 45.40625 27.984375 
Q 45.40625 37.75 41.375 43.109375 
Q 37.359375 48.484375 30.078125 48.484375 
Q 22.859375 48.484375 18.828125 43.109375 
Q 14.796875 37.75 14.796875 27.984375 
Q 14.796875 18.265625 18.828125 12.890625 
Q 22.859375 7.515625 30.078125 7.515625 
Q 37.359375 7.515625 41.375 12.890625 
Q 45.40625 18.265625 45.40625 27.984375 
z
M 54.390625 6.78125 
Q 54.390625 -7.171875 48.1875 -13.984375 
Q 42 -20.796875 29.203125 -20.796875 
Q 24.46875 -20.796875 20.265625 -20.09375 
Q 16.0625 -19.390625 12.109375 -17.921875 
L 12.109375 -9.1875 
Q 16.0625 -11.328125 19.921875 -12.34375 
Q 23.78125 -13.375 27.78125 -13.375 
Q 36.625 -13.375 41.015625 -8.765625 
Q 45.40625 -4.15625 45.40625 5.171875 
L 45.40625 9.625 
Q 42.625 4.78125 38.28125 2.390625 
Q 33.9375 0 27.875 0 
Q 17.828125 0 11.671875 7.65625 
Q 5.515625 15.328125 5.515625 27.984375 
Q 5.515625 40.671875 11.671875 48.328125 
Q 17.828125 56 27.875 56 
Q 33.9375 56 38.28125 53.609375 
Q 42.625 51.21875 45.40625 46.390625 
L 45.40625 54.6875 
L 54.390625 54.6875 
z
" id="DejaVuSans-103"/>
     </defs>
     <g transform="translate(492.225313 120.885938)scale(0.14 -0.14)">
      <use xlink:href="#DejaVuSans-114"/>
      <use x="41.113281" xlink:href="#DejaVuSans-105"/>
      <use x="68.896484" xlink:href="#DejaVuSans-103"/>
      <use x="132.373047" xlink:href="#DejaVuSans-104"/>
      <use x="195.751953" xlink:href="#DejaVuSans-116"/>
     </g>
    </g>
   </g>
  </g>
  <g id="axes_2">
   <g id="patch_9">
    <path d="M 36 525.24 
L 538.2 525.24 
L 538.2 402.93 
L 36 402.93 
z
" style="fill:none;"/>
   </g>
   <g id="patch_10">
    <path clip-path="url(#p1c19ae1c25)" d="M 182.623569 519.680455 
L 390.054767 519.680455 
L 390.054767 503.796039 
L 182.623569 503.796039 
z
" style="fill:#ff6384;opacity:0.5;"/>
   </g>
   <g id="patch_11">
    <path clip-path="url(#p1c19ae1c25)" d="M 184.404885 487.911623 
L 391.609264 487.911623 
L 391.609264 472.027208 
L 184.404885 472.027208 
z
" style="fill:#36a2eb;opacity:0.5;"/>
   </g>
   <g id="patch_12">
    <path clip-path="url(#p1c19ae1c25)" d="M 166.352016 456.142792 
L 372.96819 456.142792 
L 372.96819 440.258377 
L 166.352016 440.258377 
z
" style="fill:#4bc0c0;opacity:0.5;"/>
   </g>
   <g id="patch_13">
    <path clip-path="url(#p1c19ae1c25)" d="M 198.96453 424.373961 
L 407.071935 424.373961 
L 407.071935 408.489545 
L 198.96453 408.489545 
z
" style="fill:#9966ff;opacity:0.5;"/>
   </g>
   <g id="matplotlib.axis_1">
    <g id="xtick_1">
     <g id="line2d_5">
      <defs>
       <path d="M 0 0 
L 0 3.5 
" id="m1c613aca77" style="stroke:#000000;stroke-width:0.8;"/>
      </defs>
      <g>
       <use style="stroke:#000000;stroke-width:0.8;" x="62.839698" xlink:href="#m1c613aca77" y="525.24"/>
      </g>
     </g>
     <g id="text_5">
      <!-- 6.0 -->
      <defs>
       <path d="M 33.015625 40.375 
Q 26.375 40.375 22.484375 35.828125 
Q 18.609375 31.296875 18.609375 23.390625 
Q 18.609375 15.53125 22.484375 10.953125 
Q 26.375 6.390625 33.015625 6.390625 
Q 39.65625 6.390625 43.53125 10.953125 
Q 47.40625 15.53125 47.40625 23.390625 
Q 47.40625 31.296875 43.53125 35.828125 
Q 39.65625 40.375 33.015625 40.375 
z
M 52.59375 71.296875 
L 52.59375 62.3125 
Q 48.875 64.0625 45.09375 64.984375 
Q 41.3125 65.921875 37.59375 65.921875 
Q 27.828125 65.921875 22.671875 59.328125 
Q 17.53125 52.734375 16.796875 39.40625 
Q 19.671875 43.65625 24.015625 45.921875 
Q 28.375 48.1875 33.59375 48.1875 
Q 44.578125 48.1875 50.953125 41.515625 
Q 57.328125 34.859375 57.328125 23.390625 
Q 57.328125 12.15625 50.6875 5.359375 
Q 44.046875 -1.421875 33.015625 -1.421875 
Q 20.359375 -1.421875 13.671875 8.265625 
Q 6.984375 17.96875 6.984375 36.375 
Q 6.984375 53.65625 15.1875 63.9375 
Q 23.390625 74.21875 37.203125 74.21875 
Q 40.921875 74.21875 44.703125 73.484375 
Q 48.484375 72.75 52.59375 71.296875 
z
" id="DejaVuSans-54"/>
       <path d="M 10.6875 12.40625 
L 21 12.40625 
L 21 0 
L 10.6875 0 
z
" id="DejaVuSans-46"/>
       <path d="M 31.78125 66.40625 
Q 24.171875 66.40625 20.328125 58.90625 
Q 16.5 51.421875 16.5 36.375 
Q 16.5 21.390625 20.328125 13.890625 
Q 24.171875 6.390625 31.78125 6.390625 
Q 39.453125 6.390625 43.28125 13.890625 
Q 47.125 21.390625 47.125 36.375 
Q 47.125 51.421875 43.28125 58.90625 
Q 39.453125 66.40625 31.78125 66.40625 
z
M 31.78125 74.21875 
Q 44.046875 74.21875 50.515625 64.515625 
Q 56.984375 54.828125 56.984375 36.375 
Q 56.984375 17.96875 50.515625 8.265625 
Q 44.046875 -1.421875 31.78125 -1.421875 
Q 19.53125 -1.421875 13.0625 8.265625 
Q 6.59375 17.96875 6.59375 36.375 
Q 6.59375 54.828125 13.0625 64.515625 
Q 19.53125 74.21875 31.78125 74.21875 
z
" id="DejaVuSans-48"/>
      </defs>
      <g transform="translate(51.707511 542.877813)scale(0.14 -0.14)">
       <use xlink:href="#DejaVuSans-54"/>
       <use x="63.623047" xlink:href="#DejaVuSans-46"/>
       <use x="95.410156" xlink:href="#DejaVuSans-48"/>
      </g>
     </g>
    </g>
    <g id="xtick_2">
     <g id="line2d_6">
      <g>
       <use style="stroke:#000000;stroke-width:0.8;" x="146.235023" xlink:href="#m1c613aca77" y="525.24"/>
      </g>
     </g>
     <g id="text_6">
      <!-- 6.5 -->
      <defs>
       <path d="M 10.796875 72.90625 
L 49.515625 72.90625 
L 49.515625 64.59375 
L 19.828125 64.59375 
L 19.828125 46.734375 
Q 21.96875 47.46875 24.109375 47.828125 
Q 26.265625 48.1875 28.421875 48.1875 
Q 40.625 48.1875 47.75 41.5 
Q 54.890625 34.8125 54.890625 23.390625 
Q 54.890625 11.625 47.5625 5.09375 
Q 40.234375 -1.421875 26.90625 -1.421875 
Q 22.3125 -1.421875 17.546875 -0.640625 
Q 12.796875 0.140625 7.71875 1.703125 
L 7.71875 11.625 
Q 12.109375 9.234375 16.796875 8.0625 
Q 21.484375 6.890625 26.703125 6.890625 
Q 35.15625 6.890625 40.078125 11.328125 
Q 45.015625 15.765625 45.015625 23.390625 
Q 45.015625 31 40.078125 35.4375 
Q 35.15625 39.890625 26.703125 39.890625 
Q 22.75 39.890625 18.8125 39.015625 
Q 14.890625 38.140625 10.796875 36.28125 
z
" id="DejaVuSans-53"/>
      </defs>
      <g transform="translate(135.102835 542.877813)scale(0.14 -0.14)">
       <use xlink:href="#DejaVuSans-54"/>
       <use x="63.623047" xlink:href="#DejaVuSans-46"/>
       <use x="95.410156" xlink:href="#DejaVuSans-53"/>
      </g>
     </g>
    </g>
    <g id="xtick_3">
     <g id="line2d_7">
      <g>
       <use style="stroke:#000000;stroke-width:0.8;" x="229.630347" xlink:href="#m1c613aca77" y="525.24"/>
      </g>
     </g>
     <g id="text_7">
      <!-- 7.0 -->
      <defs>
       <path d="M 8.203125 72.90625 
L 55.078125 72.90625 
L 55.078125 68.703125 
L 28.609375 0 
L 18.3125 0 
L 43.21875 64.59375 
L 8.203125 64.59375 
z
" id="DejaVuSans-55"/>
      </defs>
      <g transform="translate(218.49816 542.877813)scale(0.14 -0.14)">
       <use xlink:href="#DejaVuSans-55"/>
       <use x="63.623047" xlink:href="#DejaVuSans-46"/>
       <use x="95.410156" xlink:href="#DejaVuSans-48"/>
      </g>
     </g>
    </g>
    <g id="xtick_4">
     <g id="line2d_8">
      <g>
       <use style="stroke:#000000;stroke-width:0.8;" x="313.025672" xlink:href="#m1c613aca77" y="525.24"/>
      </g>
     </g>
     <g id="text_8">
      <!-- 7.5 -->
      <g transform="translate(301.893484 542.877813)scale(0.14 -0.14)">
       <use xlink:href="#DejaVuSans-55"/>
       <use x="63.623047" xlink:href="#DejaVuSans-46"/>
       <use x="95.410156" xlink:href="#DejaVuSans-53"/>
      </g>
     </g>
    </g>
    <g id="xtick_5">
     <g id="line2d_9">
      <g>
       <use style="stroke:#000000;stroke-width:0.8;" x="396.420996" xlink:href="#m1c613aca77" y="525.24"/>
      </g>
     </g>
     <g id="text_9">
      <!-- 8.0 -->
      <defs>
       <path d="M 31.78125 34.625 
Q 24.75 34.625 20.71875 30.859375 
Q 16.703125 27.09375 16.703125 20.515625 
Q 16.703125 13.921875 20.71875 10.15625 
Q 24.75 6.390625 31.78125 6.390625 
Q 38.8125 6.390625 42.859375 10.171875 
Q 46.921875 13.96875 46.921875 20.515625 
Q 46.921875 27.09375 42.890625 30.859375 
Q 38.875 34.625 31.78125 34.625 
z
M 21.921875 38.8125 
Q 15.578125 40.375 12.03125 44.71875 
Q 8.5 49.078125 8.5 55.328125 
Q 8.5 64.0625 14.71875 69.140625 
Q 20.953125 74.21875 31.78125 74.21875 
Q 42.671875 74.21875 48.875 69.140625 
Q 55.078125 64.0625 55.078125 55.328125 
Q 55.078125 49.078125 51.53125 44.71875 
Q 48 40.375 41.703125 38.8125 
Q 48.828125 37.15625 52.796875 32.3125 
Q 56.78125 27.484375 56.78125 20.515625 
Q 56.78125 9.90625 50.3125 4.234375 
Q 43.84375 -1.421875 31.78125 -1.421875 
Q 19.734375 -1.421875 13.25 4.234375 
Q 6.78125 9.90625 6.78125 20.515625 
Q 6.78125 27.484375 10.78125 32.3125 
Q 14.796875 37.15625 21.921875 38.8125 
z
M 18.3125 54.390625 
Q 18.3125 48.734375 21.84375 45.5625 
Q 25.390625 42.390625 31.78125 42.390625 
Q 38.140625 42.390625 41.71875 45.5625 
Q 45.3125 48.734375 45.3125 54.390625 
Q 45.3125 60.0625 41.71875 63.234375 
Q 38.140625 66.40625 31.78125 66.40625 
Q 25.390625 66.40625 21.84375 63.234375 
Q 18.3125 60.0625 18.3125 54.390625 
z
" id="DejaVuSans-56"/>
      </defs>
      <g transform="translate(385.288809 542.877813)scale(0.14 -0.14)">
       <use xlink:href="#DejaVuSans-56"/>
       <use x="63.623047" xlink:href="#DejaVuSans-46"/>
       <use x="95.410156" xlink:href="#DejaVuSans-48"/>
      </g>
     </g>
    </g>
    <g id="xtick_6">
     <g id="line2d_10">
      <g>
       <use style="stroke:#000000;stroke-width:0.8;" x="479.816321" xlink:href="#m1c613aca77" y="525.24"/>
      </g>
     </g>
     <g id="text_10">
      <!-- 8.5 -->
      <g transform="translate(468.684133 542.877813)scale(0.14 -0.14)">
       <use xlink:href="#DejaVuSans-56"/>
       <use x="63.623047" xlink:href="#DejaVuSans-46"/>
       <use x="95.410156" xlink:href="#DejaVuSans-53"/>
      </g>
     </g>
    </g>
   </g>
   <g id="line2d_11">
    <path clip-path="url(#p1c19ae1c25)" d="M 286.339168 525.24 
L 286.339168 402.93 
" style="fill:none;stroke:#ff6384;stroke-dasharray:5.55,2.4;stroke-dashoffset:0;stroke-opacity:0.8;stroke-width:1.5;"/>
   </g>
   <g id="line2d_12">
    <path clip-path="url(#p1c19ae1c25)" d="M 288.007074 525.24 
L 288.007074 402.93 
" style="fill:none;stroke:#36a2eb;stroke-dasharray:5.55,2.4;stroke-dashoffset:0;stroke-opacity:0.8;stroke-width:1.5;"/>
   </g>
   <g id="line2d_13">
    <path clip-path="url(#p1c19ae1c25)" d="M 269.660103 525.24 
L 269.660103 402.93 
" style="fill:none;stroke:#4bc0c0;stroke-dasharray:5.55,2.4;stroke-dashoffset:0;stroke-opacity:0.8;stroke-width:1.5;"/>
   </g>
   <g id="line2d_14">
    <path clip-path="url(#p1c19ae1c25)" d="M 303.018233 525.24 
L 303.018233 402.93 
" style="fill:none;stroke:#9966ff;stroke-dasharray:5.55,2.4;stroke-dashoffset:0;stroke-opacity:0.8;stroke-width:1.5;"/>
   </g>
   <g id="patch_14">
    <path d="M 36 525.24 
L 538.2 525.24 
" style="fill:none;stroke:#000000;stroke-linecap:square;stroke-linejoin:miter;stroke-width:0.8;"/>
   </g>
  </g>
 </g>
 <defs>
  <clipPath id="pecb228dbeb">
   <rect height="366.93" width="502.2" x="36" y="36"/>
  </clipPath>
  <clipPath id="p1c19ae1c25">
   <rect height="122.31" width="502.2" x="36" y="402.93"/>
  </clipPath>
 </defs>
</svg>
