<?xml version="1.0" encoding="utf-8" standalone="no"?>
<!DOCTYPE svg PUBLIC "-//W3C//DTD SVG 1.1//EN"
  "http://www.w3.org/Graphics/SVG/1.1/DTD/svg11.dtd">
<!-- Created with matplotlib (https://matplotlib.org/) -->
<svg height="581.789375pt" version="1.1" viewBox="0 0 576.233899 581.789375" width="576.233899pt" xmlns="http://www.w3.org/2000/svg" xmlns:xlink="http://www.w3.org/1999/xlink">
 <defs>
  <style type="text/css">
*{stroke-linecap:butt;stroke-linejoin:round;}
  </style>
 </defs>
 <g id="figure_1">
  <g id="patch_1">
   <path d="M 0 581.789375 
L 576.233899 581.789375 
L 576.233899 0 
L 0 0 
z
" style="fill:none;"/>
  </g>
  <g id="axes_1">
   <g id="patch_2">
    <path d="M 38.033899 402.93 
L 540.233899 402.93 
L 540.233899 36 
L 38.033899 36 
z
" style="fill:none;"/>
   </g>
   <g id="PolyCollection_1">
    <defs>
     <path d="M 60.861172 -195.538011 
L 60.861172 -195.650004 
L 62.950926 -195.692234 
L 65.04068 -195.749007 
L 67.130434 -195.8248 
L 69.220189 -195.925281 
L 71.309943 -196.057565 
L 73.399697 -196.230497 
L 75.489451 -196.454982 
L 77.579205 -196.744335 
L 79.668959 -197.114666 
L 81.758714 -197.585273 
L 83.848468 -198.179047 
L 85.938222 -198.922859 
L 88.027976 -199.847921 
L 90.11773 -200.990079 
L 92.207485 -202.390029 
L 94.297239 -204.093399 
L 96.386993 -206.150691 
L 98.476747 -208.617009 
L 100.566501 -211.551575 
L 102.656255 -215.016962 
L 104.74601 -219.078053 
L 106.835764 -223.800667 
L 108.925518 -229.249878 
L 111.015272 -235.488004 
L 113.105026 -242.572312 
L 115.19478 -250.552459 
L 117.284535 -259.467747 
L 119.374289 -269.344261 
L 121.464043 -280.192004 
L 123.553797 -292.002137 
L 125.643551 -304.744465 
L 127.733306 -318.365297 
L 129.82306 -332.785841 
L 131.912814 -347.901251 
L 134.002568 -363.580456 
L 136.092322 -379.666871 
L 138.182076 -395.980052 
L 140.271831 -412.31833 
L 142.361585 -428.4624 
L 144.451339 -444.179822 
L 146.541093 -459.230303 
L 148.630847 -473.371627 
L 150.720602 -486.366018 
L 152.810356 -497.986726 
L 154.90011 -508.02457 
L 156.989864 -516.294181 
L 159.079618 -522.639693 
L 161.169372 -526.939623 
L 163.259127 -529.110739 
L 165.348881 -529.110739 
L 167.438635 -526.939623 
L 169.528389 -522.639693 
L 171.618143 -516.294181 
L 173.707898 -508.02457 
L 175.797652 -497.986726 
L 177.887406 -486.366018 
L 179.97716 -473.371627 
L 182.066914 -459.230303 
L 184.156668 -444.179822 
L 186.246423 -428.4624 
L 188.336177 -412.31833 
L 190.425931 -395.980052 
L 192.515685 -379.666871 
L 194.605439 -363.580456 
L 196.695193 -347.901251 
L 198.784948 -332.785841 
L 200.874702 -318.365297 
L 202.964456 -304.744465 
L 205.05421 -292.002137 
L 207.143964 -280.192004 
L 209.233719 -269.344261 
L 211.323473 -259.467747 
L 213.413227 -250.552459 
L 215.502981 -242.572312 
L 217.592735 -235.488004 
L 219.682489 -229.249878 
L 221.772244 -223.800667 
L 223.861998 -219.078053 
L 225.951752 -215.016962 
L 228.041506 -211.551575 
L 230.13126 -208.617009 
L 232.221015 -206.150691 
L 234.310769 -204.093399 
L 236.400523 -202.390029 
L 238.490277 -200.990079 
L 240.580031 -199.847921 
L 242.669785 -198.922859 
L 244.75954 -198.179047 
L 246.849294 -197.585273 
L 248.939048 -197.114666 
L 251.028802 -196.744335 
L 253.118556 -196.454982 
L 255.20831 -196.230497 
L 257.298065 -196.057565 
L 259.387819 -195.925281 
L 261.477573 -195.8248 
L 263.567327 -195.749007 
L 265.657081 -195.692234 
L 267.746836 -195.650004 
L 267.746836 -195.538011 
L 267.746836 -195.538011 
L 265.657081 -195.538011 
L 263.567327 -195.538011 
L 261.477573 -195.538011 
L 259.387819 -195.538011 
L 257.298065 -195.538011 
L 255.20831 -195.538011 
L 253.118556 -195.538011 
L 251.028802 -195.538011 
L 248.939048 -195.538011 
L 246.849294 -195.538011 
L 244.75954 -195.538011 
L 242.669785 -195.538011 
L 240.580031 -195.538011 
L 238.490277 -195.538011 
L 236.400523 -195.538011 
L 234.310769 -195.538011 
L 232.221015 -195.538011 
L 230.13126 -195.538011 
L 228.041506 -195.538011 
L 225.951752 -195.538011 
L 223.861998 -195.538011 
L 221.772244 -195.538011 
L 219.682489 -195.538011 
L 217.592735 -195.538011 
L 215.502981 -195.538011 
L 213.413227 -195.538011 
L 211.323473 -195.538011 
L 209.233719 -195.538011 
L 207.143964 -195.538011 
L 205.05421 -195.538011 
L 202.964456 -195.538011 
L 200.874702 -195.538011 
L 198.784948 -195.538011 
L 196.695193 -195.538011 
L 194.605439 -195.538011 
L 192.515685 -195.538011 
L 190.425931 -195.538011 
L 188.336177 -195.538011 
L 186.246423 -195.538011 
L 184.156668 -195.538011 
L 182.066914 -195.538011 
L 179.97716 -195.538011 
L 177.887406 -195.538011 
L 175.797652 -195.538011 
L 173.707898 -195.538011 
L 171.618143 -195.538011 
L 169.528389 -195.538011 
L 167.438635 -195.538011 
L 165.348881 -195.538011 
L 163.259127 -195.538011 
L 161.169372 -195.538011 
L 159.079618 -195.538011 
L 156.989864 -195.538011 
L 154.90011 -195.538011 
L 152.810356 -195.538011 
L 150.720602 -195.538011 
L 148.630847 -195.538011 
L 146.541093 -195.538011 
L 144.451339 -195.538011 
L 142.361585 -195.538011 
L 140.271831 -195.538011 
L 138.182076 -195.538011 
L 136.092322 -195.538011 
L 134.002568 -195.538011 
L 131.912814 -195.538011 
L 129.82306 -195.538011 
L 127.733306 -195.538011 
L 125.643551 -195.538011 
L 123.553797 -195.538011 
L 121.464043 -195.538011 
L 119.374289 -195.538011 
L 117.284535 -195.538011 
L 115.19478 -195.538011 
L 113.105026 -195.538011 
L 111.015272 -195.538011 
L 108.925518 -195.538011 
L 106.835764 -195.538011 
L 104.74601 -195.538011 
L 102.656255 -195.538011 
L 100.566501 -195.538011 
L 98.476747 -195.538011 
L 96.386993 -195.538011 
L 94.297239 -195.538011 
L 92.207485 -195.538011 
L 90.11773 -195.538011 
L 88.027976 -195.538011 
L 85.938222 -195.538011 
L 83.848468 -195.538011 
L 81.758714 -195.538011 
L 79.668959 -195.538011 
L 77.579205 -195.538011 
L 75.489451 -195.538011 
L 73.399697 -195.538011 
L 71.309943 -195.538011 
L 69.220189 -195.538011 
L 67.130434 -195.538011 
L 65.04068 -195.538011 
L 62.950926 -195.538011 
L 60.861172 -195.538011 
z
" id="m8b8e295a09" style="stroke:#ff6384;stroke-opacity:0.5;"/>
    </defs>
    <g clip-path="url(#pd985f2c434)">
     <use style="fill:#ff6384;fill-opacity:0.5;stroke:#ff6384;stroke-opacity:0.5;" x="0" xlink:href="#m8b8e295a09" y="581.789375"/>
    </g>
   </g>
   <g id="PolyCollection_2">
    <defs>
     <path d="M 111.344355 -195.538011 
L 111.344355 -195.628609 
L 113.927604 -195.662772 
L 116.510854 -195.708699 
L 119.094103 -195.770013 
L 121.677352 -195.851299 
L 124.260602 -195.958311 
L 126.843851 -196.098207 
L 129.4271 -196.279807 
L 132.01035 -196.513883 
L 134.593599 -196.813467 
L 137.176849 -197.194171 
L 139.760098 -197.674512 
L 142.343347 -198.276229 
L 144.926597 -199.02457 
L 147.509846 -199.948535 
L 150.093095 -201.081042 
L 152.676345 -202.459007 
L 155.259594 -204.123281 
L 157.842844 -206.118442 
L 160.426093 -208.492398 
L 163.009342 -211.295769 
L 165.592592 -214.581043 
L 168.175841 -218.401465 
L 170.75909 -222.809677 
L 173.34234 -227.856093 
L 175.925589 -233.587039 
L 178.508839 -240.042686 
L 181.092088 -247.254827 
L 183.675337 -255.244565 
L 186.258587 -264.019992 
L 188.841836 -273.573958 
L 191.425086 -283.882035 
L 194.008335 -294.900789 
L 196.591584 -306.566481 
L 199.174834 -318.794294 
L 201.758083 -331.478197 
L 204.341332 -344.491518 
L 206.924582 -357.688285 
L 209.507831 -370.905353 
L 212.091081 -383.965315 
L 214.67433 -396.680133 
L 217.257579 -408.855422 
L 219.840829 -420.295235 
L 222.424078 -430.807222 
L 225.007327 -440.207949 
L 227.590577 -448.328197 
L 230.173826 -455.01801 
L 232.757076 -460.151297 
L 235.340325 -463.629783 
L 237.923574 -465.386136 
L 240.506824 -465.386136 
L 243.090073 -463.629783 
L 245.673323 -460.151297 
L 248.256572 -455.01801 
L 250.839821 -448.328197 
L 253.423071 -440.207949 
L 256.00632 -430.807222 
L 258.589569 -420.295235 
L 261.172819 -408.855422 
L 263.756068 -396.680133 
L 266.339318 -383.965315 
L 268.922567 -370.905353 
L 271.505816 -357.688285 
L 274.089066 -344.491518 
L 276.672315 -331.478197 
L 279.255564 -318.794294 
L 281.838814 -306.566481 
L 284.422063 -294.900789 
L 287.005313 -283.882035 
L 289.588562 -273.573958 
L 292.171811 -264.019992 
L 294.755061 -255.244565 
L 297.33831 -247.254827 
L 299.921559 -240.042686 
L 302.504809 -233.587039 
L 305.088058 -227.856093 
L 307.671308 -222.809677 
L 310.254557 -218.401465 
L 312.837806 -214.581043 
L 315.421056 -211.295769 
L 318.004305 -208.492398 
L 320.587555 -206.118442 
L 323.170804 -204.123281 
L 325.754053 -202.459007 
L 328.337303 -201.081042 
L 330.920552 -199.948535 
L 333.503801 -199.02457 
L 336.087051 -198.276229 
L 338.6703 -197.674512 
L 341.25355 -197.194171 
L 343.836799 -196.813467 
L 346.420048 -196.513883 
L 349.003298 -196.279807 
L 351.586547 -196.098207 
L 354.169796 -195.958311 
L 356.753046 -195.851299 
L 359.336295 -195.770013 
L 361.919545 -195.708699 
L 364.502794 -195.662772 
L 367.086043 -195.628609 
L 367.086043 -195.538011 
L 367.086043 -195.538011 
L 364.502794 -195.538011 
L 361.919545 -195.538011 
L 359.336295 -195.538011 
L 356.753046 -195.538011 
L 354.169796 -195.538011 
L 351.586547 -195.538011 
L 349.003298 -195.538011 
L 346.420048 -195.538011 
L 343.836799 -195.538011 
L 341.25355 -195.538011 
L 338.6703 -195.538011 
L 336.087051 -195.538011 
L 333.503801 -195.538011 
L 330.920552 -195.538011 
L 328.337303 -195.538011 
L 325.754053 -195.538011 
L 323.170804 -195.538011 
L 320.587555 -195.538011 
L 318.004305 -195.538011 
L 315.421056 -195.538011 
L 312.837806 -195.538011 
L 310.254557 -195.538011 
L 307.671308 -195.538011 
L 305.088058 -195.538011 
L 302.504809 -195.538011 
L 299.921559 -195.538011 
L 297.33831 -195.538011 
L 294.755061 -195.538011 
L 292.171811 -195.538011 
L 289.588562 -195.538011 
L 287.005313 -195.538011 
L 284.422063 -195.538011 
L 281.838814 -195.538011 
L 279.255564 -195.538011 
L 276.672315 -195.538011 
L 274.089066 -195.538011 
L 271.505816 -195.538011 
L 268.922567 -195.538011 
L 266.339318 -195.538011 
L 263.756068 -195.538011 
L 261.172819 -195.538011 
L 258.589569 -195.538011 
L 256.00632 -195.538011 
L 253.423071 -195.538011 
L 250.839821 -195.538011 
L 248.256572 -195.538011 
L 245.673323 -195.538011 
L 243.090073 -195.538011 
L 240.506824 -195.538011 
L 237.923574 -195.538011 
L 235.340325 -195.538011 
L 232.757076 -195.538011 
L 230.173826 -195.538011 
L 227.590577 -195.538011 
L 225.007327 -195.538011 
L 222.424078 -195.538011 
L 219.840829 -195.538011 
L 217.257579 -195.538011 
L 214.67433 -195.538011 
L 212.091081 -195.538011 
L 209.507831 -195.538011 
L 206.924582 -195.538011 
L 204.341332 -195.538011 
L 201.758083 -195.538011 
L 199.174834 -195.538011 
L 196.591584 -195.538011 
L 194.008335 -195.538011 
L 191.425086 -195.538011 
L 188.841836 -195.538011 
L 186.258587 -195.538011 
L 183.675337 -195.538011 
L 181.092088 -195.538011 
L 178.508839 -195.538011 
L 175.925589 -195.538011 
L 173.34234 -195.538011 
L 170.75909 -195.538011 
L 168.175841 -195.538011 
L 165.592592 -195.538011 
L 163.009342 -195.538011 
L 160.426093 -195.538011 
L 157.842844 -195.538011 
L 155.259594 -195.538011 
L 152.676345 -195.538011 
L 150.093095 -195.538011 
L 147.509846 -195.538011 
L 144.926597 -195.538011 
L 142.343347 -195.538011 
L 139.760098 -195.538011 
L 137.176849 -195.538011 
L 134.593599 -195.538011 
L 132.01035 -195.538011 
L 129.4271 -195.538011 
L 126.843851 -195.538011 
L 124.260602 -195.538011 
L 121.677352 -195.538011 
L 119.094103 -195.538011 
L 116.510854 -195.538011 
L 113.927604 -195.538011 
L 111.344355 -195.538011 
z
" id="mb2ef496225" style="stroke:#36a2eb;stroke-opacity:0.5;"/>
    </defs>
    <g clip-path="url(#pd985f2c434)">
     <use style="fill:#36a2eb;fill-opacity:0.5;stroke:#36a2eb;stroke-opacity:0.5;" x="0" xlink:href="#mb2ef496225" y="581.789375"/>
    </g>
   </g>
   <g id="PolyCollection_3">
    <defs>
     <path d="M 72.136411 -195.538011 
L 72.136411 -195.635253 
L 74.543172 -195.671921 
L 76.949933 -195.721216 
L 79.356694 -195.787025 
L 81.763456 -195.874272 
L 84.170217 -195.989132 
L 86.576978 -196.139286 
L 88.983739 -196.334203 
L 91.3905 -196.585444 
L 93.797262 -196.906997 
L 96.204023 -197.315617 
L 98.610784 -197.831182 
L 101.017545 -198.477023 
L 103.424306 -199.28024 
L 105.831068 -200.271959 
L 108.237829 -201.487514 
L 110.64459 -202.966525 
L 113.051351 -204.75284 
L 115.458113 -206.894307 
L 117.864874 -209.442345 
L 120.271635 -212.451288 
L 122.678396 -215.977472 
L 125.085157 -220.078046 
L 127.491919 -224.809513 
L 129.89868 -230.225983 
L 132.305441 -236.37718 
L 134.712202 -243.30622 
L 137.118963 -251.047229 
L 139.525725 -259.622856 
L 141.932486 -269.041786 
L 144.339247 -279.296346 
L 146.746008 -290.360315 
L 149.15277 -302.187077 
L 151.559531 -314.708216 
L 153.966292 -327.832696 
L 156.373053 -341.446712 
L 158.779814 -355.414301 
L 161.186576 -369.578789 
L 163.593337 -383.765067 
L 166.000098 -397.782718 
L 168.406859 -411.429916 
L 170.81362 -424.49802 
L 173.220382 -436.776717 
L 175.627143 -448.059549 
L 178.033904 -458.149634 
L 180.440665 -466.86534 
L 182.847426 -474.045718 
L 185.254188 -479.55543 
L 187.660949 -483.288994 
L 190.06771 -485.17414 
L 192.474471 -485.17414 
L 194.881233 -483.288994 
L 197.287994 -479.55543 
L 199.694755 -474.045718 
L 202.101516 -466.86534 
L 204.508277 -458.149634 
L 206.915039 -448.059549 
L 209.3218 -436.776717 
L 211.728561 -424.49802 
L 214.135322 -411.429916 
L 216.542083 -397.782718 
L 218.948845 -383.765067 
L 221.355606 -369.578789 
L 223.762367 -355.414301 
L 226.169128 -341.446712 
L 228.575889 -327.832696 
L 230.982651 -314.708216 
L 233.389412 -302.187077 
L 235.796173 -290.360315 
L 238.202934 -279.296346 
L 240.609696 -269.041786 
L 243.016457 -259.622856 
L 245.423218 -251.047229 
L 247.829979 -243.30622 
L 250.23674 -236.37718 
L 252.643502 -230.225983 
L 255.050263 -224.809513 
L 257.457024 -220.078046 
L 259.863785 -215.977472 
L 262.270546 -212.451288 
L 264.677308 -209.442345 
L 267.084069 -206.894307 
L 269.49083 -204.75284 
L 271.897591 -202.966525 
L 274.304353 -201.487514 
L 276.711114 -200.271959 
L 279.117875 -199.28024 
L 281.524636 -198.477023 
L 283.931397 -197.831182 
L 286.338159 -197.315617 
L 288.74492 -196.906997 
L 291.151681 -196.585444 
L 293.558442 -196.334203 
L 295.965203 -196.139286 
L 298.371965 -195.989132 
L 300.778726 -195.874272 
L 303.185487 -195.787025 
L 305.592248 -195.721216 
L 307.999009 -195.671921 
L 310.405771 -195.635253 
L 310.405771 -195.538011 
L 310.405771 -195.538011 
L 307.999009 -195.538011 
L 305.592248 -195.538011 
L 303.185487 -195.538011 
L 300.778726 -195.538011 
L 298.371965 -195.538011 
L 295.965203 -195.538011 
L 293.558442 -195.538011 
L 291.151681 -195.538011 
L 288.74492 -195.538011 
L 286.338159 -195.538011 
L 283.931397 -195.538011 
L 281.524636 -195.538011 
L 279.117875 -195.538011 
L 276.711114 -195.538011 
L 274.304353 -195.538011 
L 271.897591 -195.538011 
L 269.49083 -195.538011 
L 267.084069 -195.538011 
L 264.677308 -195.538011 
L 262.270546 -195.538011 
L 259.863785 -195.538011 
L 257.457024 -195.538011 
L 255.050263 -195.538011 
L 252.643502 -195.538011 
L 250.23674 -195.538011 
L 247.829979 -195.538011 
L 245.423218 -195.538011 
L 243.016457 -195.538011 
L 240.609696 -195.538011 
L 238.202934 -195.538011 
L 235.796173 -195.538011 
L 233.389412 -195.538011 
L 230.982651 -195.538011 
L 228.575889 -195.538011 
L 226.169128 -195.538011 
L 223.762367 -195.538011 
L 221.355606 -195.538011 
L 218.948845 -195.538011 
L 216.542083 -195.538011 
L 214.135322 -195.538011 
L 211.728561 -195.538011 
L 209.3218 -195.538011 
L 206.915039 -195.538011 
L 204.508277 -195.538011 
L 202.101516 -195.538011 
L 199.694755 -195.538011 
L 197.287994 -195.538011 
L 194.881233 -195.538011 
L 192.474471 -195.538011 
L 190.06771 -195.538011 
L 187.660949 -195.538011 
L 185.254188 -195.538011 
L 182.847426 -195.538011 
L 180.440665 -195.538011 
L 178.033904 -195.538011 
L 175.627143 -195.538011 
L 173.220382 -195.538011 
L 170.81362 -195.538011 
L 168.406859 -195.538011 
L 166.000098 -195.538011 
L 163.593337 -195.538011 
L 161.186576 -195.538011 
L 158.779814 -195.538011 
L 156.373053 -195.538011 
L 153.966292 -195.538011 
L 151.559531 -195.538011 
L 149.15277 -195.538011 
L 146.746008 -195.538011 
L 144.339247 -195.538011 
L 141.932486 -195.538011 
L 139.525725 -195.538011 
L 137.118963 -195.538011 
L 134.712202 -195.538011 
L 132.305441 -195.538011 
L 129.89868 -195.538011 
L 127.491919 -195.538011 
L 125.085157 -195.538011 
L 122.678396 -195.538011 
L 120.271635 -195.538011 
L 117.864874 -195.538011 
L 115.458113 -195.538011 
L 113.051351 -195.538011 
L 110.64459 -195.538011 
L 108.237829 -195.538011 
L 105.831068 -195.538011 
L 103.424306 -195.538011 
L 101.017545 -195.538011 
L 98.610784 -195.538011 
L 96.204023 -195.538011 
L 93.797262 -195.538011 
L 91.3905 -195.538011 
L 88.983739 -195.538011 
L 86.576978 -195.538011 
L 84.170217 -195.538011 
L 81.763456 -195.538011 
L 79.356694 -195.538011 
L 76.949933 -195.538011 
L 74.543172 -195.538011 
L 72.136411 -195.538011 
z
" id="md6e89ea9d2" style="stroke:#4bc0c0;stroke-opacity:0.5;"/>
    </defs>
    <g clip-path="url(#pd985f2c434)">
     <use style="fill:#4bc0c0;fill-opacity:0.5;stroke:#4bc0c0;stroke-opacity:0.5;" x="0" xlink:href="#md6e89ea9d2" y="581.789375"/>
    </g>
   </g>
   <g id="PolyCollection_4">
    <defs>
     <path d="M 68.561959 -195.538011 
L 68.561959 -195.589632 
L 73.095743 -195.609097 
L 77.629528 -195.635265 
L 82.163312 -195.670201 
L 86.697097 -195.716515 
L 91.230881 -195.777489 
L 95.764666 -195.857198 
L 100.29845 -195.96067 
L 104.832235 -196.094041 
L 109.366019 -196.264738 
L 113.899804 -196.481654 
L 118.433588 -196.755342 
L 122.967373 -197.098187 
L 127.501157 -197.524575 
L 132.034942 -198.051029 
L 136.568727 -198.696307 
L 141.102511 -199.48144 
L 145.636296 -200.429706 
L 150.17008 -201.566505 
L 154.703865 -202.919132 
L 159.237649 -204.516431 
L 163.771434 -206.388307 
L 168.305218 -208.565098 
L 172.839003 -211.076799 
L 177.372787 -213.952134 
L 181.906572 -217.217499 
L 186.440356 -220.895783 
L 190.974141 -225.0051 
L 195.507925 -229.557475 
L 200.04171 -234.557518 
L 204.575494 -240.001155 
L 209.109279 -245.874467 
L 213.643063 -252.152708 
L 218.176848 -258.799559 
L 222.710632 -265.766694 
L 227.244417 -272.9937 
L 231.778201 -280.4084 
L 236.311986 -287.927623 
L 240.845771 -295.458414 
L 245.379555 -302.899689 
L 249.91334 -310.14431 
L 254.447124 -317.081518 
L 258.980909 -323.599668 
L 263.514693 -329.589164 
L 268.048478 -334.945489 
L 272.582262 -339.572226 
L 277.116047 -343.383932 
L 281.649831 -346.308764 
L 286.183616 -348.290728 
L 290.7174 -349.291459 
L 295.251185 -349.291459 
L 299.784969 -348.290728 
L 304.318754 -346.308764 
L 308.852538 -343.383932 
L 313.386323 -339.572226 
L 317.920107 -334.945489 
L 322.453892 -329.589164 
L 326.987676 -323.599668 
L 331.521461 -317.081518 
L 336.055245 -310.14431 
L 340.58903 -302.899689 
L 345.122815 -295.458414 
L 349.656599 -287.927623 
L 354.190384 -280.4084 
L 358.724168 -272.9937 
L 363.257953 -265.766694 
L 367.791737 -258.799559 
L 372.325522 -252.152708 
L 376.859306 -245.874467 
L 381.393091 -240.001155 
L 385.926875 -234.557518 
L 390.46066 -229.557475 
L 394.994444 -225.0051 
L 399.528229 -220.895783 
L 404.062013 -217.217499 
L 408.595798 -213.952134 
L 413.129582 -211.076799 
L 417.663367 -208.565098 
L 422.197151 -206.388307 
L 426.730936 -204.516431 
L 431.26472 -202.919132 
L 435.798505 -201.566505 
L 440.332289 -200.429706 
L 444.866074 -199.48144 
L 449.399859 -198.696307 
L 453.933643 -198.051029 
L 458.467428 -197.524575 
L 463.001212 -197.098187 
L 467.534997 -196.755342 
L 472.068781 -196.481654 
L 476.602566 -196.264738 
L 481.13635 -196.094041 
L 485.670135 -195.96067 
L 490.203919 -195.857198 
L 494.737704 -195.777489 
L 499.271488 -195.716515 
L 503.805273 -195.670201 
L 508.339057 -195.635265 
L 512.872842 -195.609097 
L 517.406626 -195.589632 
L 517.406626 -195.538011 
L 517.406626 -195.538011 
L 512.872842 -195.538011 
L 508.339057 -195.538011 
L 503.805273 -195.538011 
L 499.271488 -195.538011 
L 494.737704 -195.538011 
L 490.203919 -195.538011 
L 485.670135 -195.538011 
L 481.13635 -195.538011 
L 476.602566 -195.538011 
L 472.068781 -195.538011 
L 467.534997 -195.538011 
L 463.001212 -195.538011 
L 458.467428 -195.538011 
L 453.933643 -195.538011 
L 449.399859 -195.538011 
L 444.866074 -195.538011 
L 440.332289 -195.538011 
L 435.798505 -195.538011 
L 431.26472 -195.538011 
L 426.730936 -195.538011 
L 422.197151 -195.538011 
L 417.663367 -195.538011 
L 413.129582 -195.538011 
L 408.595798 -195.538011 
L 404.062013 -195.538011 
L 399.528229 -195.538011 
L 394.994444 -195.538011 
L 390.46066 -195.538011 
L 385.926875 -195.538011 
L 381.393091 -195.538011 
L 376.859306 -195.538011 
L 372.325522 -195.538011 
L 367.791737 -195.538011 
L 363.257953 -195.538011 
L 358.724168 -195.538011 
L 354.190384 -195.538011 
L 349.656599 -195.538011 
L 345.122815 -195.538011 
L 340.58903 -195.538011 
L 336.055245 -195.538011 
L 331.521461 -195.538011 
L 326.987676 -195.538011 
L 322.453892 -195.538011 
L 317.920107 -195.538011 
L 313.386323 -195.538011 
L 308.852538 -195.538011 
L 304.318754 -195.538011 
L 299.784969 -195.538011 
L 295.251185 -195.538011 
L 290.7174 -195.538011 
L 286.183616 -195.538011 
L 281.649831 -195.538011 
L 277.116047 -195.538011 
L 272.582262 -195.538011 
L 268.048478 -195.538011 
L 263.514693 -195.538011 
L 258.980909 -195.538011 
L 254.447124 -195.538011 
L 249.91334 -195.538011 
L 245.379555 -195.538011 
L 240.845771 -195.538011 
L 236.311986 -195.538011 
L 231.778201 -195.538011 
L 227.244417 -195.538011 
L 222.710632 -195.538011 
L 218.176848 -195.538011 
L 213.643063 -195.538011 
L 209.109279 -195.538011 
L 204.575494 -195.538011 
L 200.04171 -195.538011 
L 195.507925 -195.538011 
L 190.974141 -195.538011 
L 186.440356 -195.538011 
L 181.906572 -195.538011 
L 177.372787 -195.538011 
L 172.839003 -195.538011 
L 168.305218 -195.538011 
L 163.771434 -195.538011 
L 159.237649 -195.538011 
L 154.703865 -195.538011 
L 150.17008 -195.538011 
L 145.636296 -195.538011 
L 141.102511 -195.538011 
L 136.568727 -195.538011 
L 132.034942 -195.538011 
L 127.501157 -195.538011 
L 122.967373 -195.538011 
L 118.433588 -195.538011 
L 113.899804 -195.538011 
L 109.366019 -195.538011 
L 104.832235 -195.538011 
L 100.29845 -195.538011 
L 95.764666 -195.538011 
L 91.230881 -195.538011 
L 86.697097 -195.538011 
L 82.163312 -195.538011 
L 77.629528 -195.538011 
L 73.095743 -195.538011 
L 68.561959 -195.538011 
z
" id="mcb2125dafa" style="stroke:#9966ff;stroke-opacity:0.5;"/>
    </defs>
    <g clip-path="url(#pd985f2c434)">
     <use style="fill:#9966ff;fill-opacity:0.5;stroke:#9966ff;stroke-opacity:0.5;" x="0" xlink:href="#mcb2125dafa" y="581.789375"/>
    </g>
   </g>
   <g id="line2d_1">
    <path clip-path="url(#pd985f2c434)" d="M 60.861172 386.139371 
L 62.950926 386.097141 
L 65.04068 386.040368 
L 67.130434 385.964575 
L 69.220189 385.864094 
L 71.309943 385.73181 
L 73.399697 385.558878 
L 75.489451 385.334393 
L 77.579205 385.04504 
L 79.668959 384.674709 
L 81.758714 384.204102 
L 83.848468 383.610328 
L 85.938222 382.866516 
L 88.027976 381.941454 
L 90.11773 380.799296 
L 92.207485 379.399346 
L 94.297239 377.695976 
L 96.386993 375.638684 
L 98.476747 373.172366 
L 100.566501 370.2378 
L 102.656255 366.772413 
L 104.74601 362.711322 
L 106.835764 357.988708 
L 108.925518 352.539497 
L 111.015272 346.301371 
L 113.105026 339.217063 
L 115.19478 331.236916 
L 117.284535 322.321628 
L 119.374289 312.445114 
L 121.464043 301.597371 
L 123.553797 289.787238 
L 125.643551 277.04491 
L 127.733306 263.424078 
L 129.82306 249.003534 
L 131.912814 233.888124 
L 134.002568 218.208919 
L 136.092322 202.122504 
L 138.182076 185.809323 
L 140.271831 169.471045 
L 142.361585 153.326975 
L 144.451339 137.609553 
L 146.541093 122.559072 
L 148.630847 108.417748 
L 150.720602 95.423357 
L 152.810356 83.802649 
L 154.90011 73.764805 
L 156.989864 65.495194 
L 159.079618 59.149682 
L 161.169372 54.849752 
L 163.259127 52.678636 
L 165.348881 52.678636 
L 167.438635 54.849752 
L 169.528389 59.149682 
L 171.618143 65.495194 
L 173.707898 73.764805 
L 175.797652 83.802649 
L 177.887406 95.423357 
L 179.97716 108.417748 
L 182.066914 122.559072 
L 184.156668 137.609553 
L 186.246423 153.326975 
L 188.336177 169.471045 
L 190.425931 185.809323 
L 192.515685 202.122504 
L 194.605439 218.208919 
L 196.695193 233.888124 
L 198.784948 249.003534 
L 200.874702 263.424078 
L 202.964456 277.04491 
L 205.05421 289.787238 
L 207.143964 301.597371 
L 209.233719 312.445114 
L 211.323473 322.321628 
L 213.413227 331.236916 
L 215.502981 339.217063 
L 217.592735 346.301371 
L 219.682489 352.539497 
L 221.772244 357.988708 
L 223.861998 362.711322 
L 225.951752 366.772413 
L 228.041506 370.2378 
L 230.13126 373.172366 
L 232.221015 375.638684 
L 234.310769 377.695976 
L 236.400523 379.399346 
L 238.490277 380.799296 
L 240.580031 381.941454 
L 242.669785 382.866516 
L 244.75954 383.610328 
L 246.849294 384.204102 
L 248.939048 384.674709 
L 251.028802 385.04504 
L 253.118556 385.334393 
L 255.20831 385.558878 
L 257.298065 385.73181 
L 259.387819 385.864094 
L 261.477573 385.964575 
L 263.567327 386.040368 
L 265.657081 386.097141 
L 267.746836 386.139371 
" style="fill:none;stroke:#ff6384;stroke-linecap:square;"/>
   </g>
   <g id="line2d_2">
    <path clip-path="url(#pd985f2c434)" d="M 111.344355 386.160766 
L 113.927604 386.126603 
L 116.510854 386.080676 
L 119.094103 386.019362 
L 121.677352 385.938076 
L 124.260602 385.831064 
L 126.843851 385.691168 
L 129.4271 385.509568 
L 132.01035 385.275492 
L 134.593599 384.975908 
L 137.176849 384.595204 
L 139.760098 384.114863 
L 142.343347 383.513146 
L 144.926597 382.764805 
L 147.509846 381.84084 
L 150.093095 380.708333 
L 152.676345 379.330368 
L 155.259594 377.666094 
L 157.842844 375.670933 
L 160.426093 373.296977 
L 163.009342 370.493606 
L 165.592592 367.208332 
L 168.175841 363.38791 
L 170.75909 358.979698 
L 173.34234 353.933282 
L 175.925589 348.202336 
L 178.508839 341.746689 
L 181.092088 334.534548 
L 183.675337 326.54481 
L 186.258587 317.769383 
L 188.841836 308.215417 
L 191.425086 297.90734 
L 194.008335 286.888586 
L 196.591584 275.222894 
L 199.174834 262.995081 
L 201.758083 250.311178 
L 204.341332 237.297857 
L 206.924582 224.10109 
L 209.507831 210.884022 
L 212.091081 197.82406 
L 214.67433 185.109242 
L 217.257579 172.933953 
L 219.840829 161.49414 
L 222.424078 150.982153 
L 225.007327 141.581426 
L 227.590577 133.461178 
L 230.173826 126.771365 
L 232.757076 121.638078 
L 235.340325 118.159592 
L 237.923574 116.403239 
L 240.506824 116.403239 
L 243.090073 118.159592 
L 245.673323 121.638078 
L 248.256572 126.771365 
L 250.839821 133.461178 
L 253.423071 141.581426 
L 256.00632 150.982153 
L 258.589569 161.49414 
L 261.172819 172.933953 
L 263.756068 185.109242 
L 266.339318 197.82406 
L 268.922567 210.884022 
L 271.505816 224.10109 
L 274.089066 237.297857 
L 276.672315 250.311178 
L 279.255564 262.995081 
L 281.838814 275.222894 
L 284.422063 286.888586 
L 287.005313 297.90734 
L 289.588562 308.215417 
L 292.171811 317.769383 
L 294.755061 326.54481 
L 297.33831 334.534548 
L 299.921559 341.746689 
L 302.504809 348.202336 
L 305.088058 353.933282 
L 307.671308 358.979698 
L 310.254557 363.38791 
L 312.837806 367.208332 
L 315.421056 370.493606 
L 318.004305 373.296977 
L 320.587555 375.670933 
L 323.170804 377.666094 
L 325.754053 379.330368 
L 328.337303 380.708333 
L 330.920552 381.84084 
L 333.503801 382.764805 
L 336.087051 383.513146 
L 338.6703 384.114863 
L 341.25355 384.595204 
L 343.836799 384.975908 
L 346.420048 385.275492 
L 349.003298 385.509568 
L 351.586547 385.691168 
L 354.169796 385.831064 
L 356.753046 385.938076 
L 359.336295 386.019362 
L 361.919545 386.080676 
L 364.502794 386.126603 
L 367.086043 386.160766 
" style="fill:none;stroke:#36a2eb;stroke-linecap:square;"/>
   </g>
   <g id="line2d_3">
    <path clip-path="url(#pd985f2c434)" d="M 72.136411 386.154122 
L 74.543172 386.117454 
L 76.949933 386.068159 
L 79.356694 386.00235 
L 81.763456 385.915103 
L 84.170217 385.800243 
L 86.576978 385.650089 
L 88.983739 385.455172 
L 91.3905 385.203931 
L 93.797262 384.882378 
L 96.204023 384.473758 
L 98.610784 383.958193 
L 101.017545 383.312352 
L 103.424306 382.509135 
L 105.831068 381.517416 
L 108.237829 380.301861 
L 110.64459 378.82285 
L 113.051351 377.036535 
L 115.458113 374.895068 
L 117.864874 372.34703 
L 120.271635 369.338087 
L 122.678396 365.811903 
L 125.085157 361.711329 
L 127.491919 356.979862 
L 129.89868 351.563392 
L 132.305441 345.412195 
L 134.712202 338.483155 
L 137.118963 330.742146 
L 139.525725 322.166519 
L 141.932486 312.747589 
L 144.339247 302.493029 
L 146.746008 291.42906 
L 149.15277 279.602298 
L 151.559531 267.081159 
L 153.966292 253.956679 
L 156.373053 240.342663 
L 158.779814 226.375074 
L 161.186576 212.210586 
L 163.593337 198.024308 
L 166.000098 184.006657 
L 168.406859 170.359459 
L 170.81362 157.291355 
L 173.220382 145.012658 
L 175.627143 133.729826 
L 178.033904 123.639741 
L 180.440665 114.924035 
L 182.847426 107.743657 
L 185.254188 102.233945 
L 187.660949 98.500381 
L 190.06771 96.615235 
L 192.474471 96.615235 
L 194.881233 98.500381 
L 197.287994 102.233945 
L 199.694755 107.743657 
L 202.101516 114.924035 
L 204.508277 123.639741 
L 206.915039 133.729826 
L 209.3218 145.012658 
L 211.728561 157.291355 
L 214.135322 170.359459 
L 216.542083 184.006657 
L 218.948845 198.024308 
L 221.355606 212.210586 
L 223.762367 226.375074 
L 226.169128 240.342663 
L 228.575889 253.956679 
L 230.982651 267.081159 
L 233.389412 279.602298 
L 235.796173 291.42906 
L 238.202934 302.493029 
L 240.609696 312.747589 
L 243.016457 322.166519 
L 245.423218 330.742146 
L 247.829979 338.483155 
L 250.23674 345.412195 
L 252.643502 351.563392 
L 255.050263 356.979862 
L 257.457024 361.711329 
L 259.863785 365.811903 
L 262.270546 369.338087 
L 264.677308 372.34703 
L 267.084069 374.895068 
L 269.49083 377.036535 
L 271.897591 378.82285 
L 274.304353 380.301861 
L 276.711114 381.517416 
L 279.117875 382.509135 
L 281.524636 383.312352 
L 283.931397 383.958193 
L 286.338159 384.473758 
L 288.74492 384.882378 
L 291.151681 385.203931 
L 293.558442 385.455172 
L 295.965203 385.650089 
L 298.371965 385.800243 
L 300.778726 385.915103 
L 303.185487 386.00235 
L 305.592248 386.068159 
L 307.999009 386.117454 
L 310.405771 386.154122 
" style="fill:none;stroke:#4bc0c0;stroke-linecap:square;"/>
   </g>
   <g id="line2d_4">
    <path clip-path="url(#pd985f2c434)" d="M 68.561959 386.199743 
L 73.095743 386.180278 
L 77.629528 386.15411 
L 82.163312 386.119174 
L 86.697097 386.07286 
L 91.230881 386.011886 
L 95.764666 385.932177 
L 100.29845 385.828705 
L 104.832235 385.695334 
L 109.366019 385.524637 
L 113.899804 385.307721 
L 118.433588 385.034033 
L 122.967373 384.691188 
L 127.501157 384.2648 
L 132.034942 383.738346 
L 136.568727 383.093068 
L 141.102511 382.307935 
L 145.636296 381.359669 
L 150.17008 380.22287 
L 154.703865 378.870243 
L 159.237649 377.272944 
L 163.771434 375.401068 
L 168.305218 373.224277 
L 172.839003 370.712576 
L 177.372787 367.837241 
L 181.906572 364.571876 
L 186.440356 360.893592 
L 190.974141 356.784275 
L 195.507925 352.2319 
L 200.04171 347.231857 
L 204.575494 341.78822 
L 209.109279 335.914908 
L 213.643063 329.636667 
L 218.176848 322.989816 
L 222.710632 316.022681 
L 227.244417 308.795675 
L 231.778201 301.380975 
L 236.311986 293.861752 
L 240.845771 286.330961 
L 245.379555 278.889686 
L 249.91334 271.645065 
L 254.447124 264.707857 
L 258.980909 258.189707 
L 263.514693 252.200211 
L 268.048478 246.843886 
L 272.582262 242.217149 
L 277.116047 238.405443 
L 281.649831 235.480611 
L 286.183616 233.498647 
L 290.7174 232.497916 
L 295.251185 232.497916 
L 299.784969 233.498647 
L 304.318754 235.480611 
L 308.852538 238.405443 
L 313.386323 242.217149 
L 317.920107 246.843886 
L 322.453892 252.200211 
L 326.987676 258.189707 
L 331.521461 264.707857 
L 336.055245 271.645065 
L 340.58903 278.889686 
L 345.122815 286.330961 
L 349.656599 293.861752 
L 354.190384 301.380975 
L 358.724168 308.795675 
L 363.257953 316.022681 
L 367.791737 322.989816 
L 372.325522 329.636667 
L 376.859306 335.914908 
L 381.393091 341.78822 
L 385.926875 347.231857 
L 390.46066 352.2319 
L 394.994444 356.784275 
L 399.528229 360.893592 
L 404.062013 364.571876 
L 408.595798 367.837241 
L 413.129582 370.712576 
L 417.663367 373.224277 
L 422.197151 375.401068 
L 426.730936 377.272944 
L 431.26472 378.870243 
L 435.798505 380.22287 
L 440.332289 381.359669 
L 444.866074 382.307935 
L 449.399859 383.093068 
L 453.933643 383.738346 
L 458.467428 384.2648 
L 463.001212 384.691188 
L 467.534997 385.034033 
L 472.068781 385.307721 
L 476.602566 385.524637 
L 481.13635 385.695334 
L 485.670135 385.828705 
L 490.203919 385.932177 
L 494.737704 386.011886 
L 499.271488 386.07286 
L 503.805273 386.119174 
L 508.339057 386.15411 
L 512.872842 386.180278 
L 517.406626 386.199743 
" style="fill:none;stroke:#9966ff;stroke-linecap:square;"/>
   </g>
   <g id="patch_3">
    <path d="M 38.033899 402.93 
L 540.233899 402.93 
" style="fill:none;stroke:#000000;stroke-linecap:square;stroke-linejoin:miter;stroke-width:0.8;"/>
   </g>
   <g id="legend_1">
    <g id="patch_4">
     <path d="M 452.259212 129.3975 
L 530.433899 129.3975 
Q 533.233899 129.3975 533.233899 126.5975 
L 533.233899 45.8 
Q 533.233899 43 530.433899 43 
L 452.259212 43 
Q 449.459212 43 449.459212 45.8 
L 449.459212 126.5975 
Q 449.459212 129.3975 452.259212 129.3975 
z
" style="fill:#ffffff;opacity:0.8;stroke:#cccccc;stroke-linejoin:miter;"/>
    </g>
    <g id="patch_5">
     <path d="M 455.059212 59.237813 
L 483.059212 59.237813 
L 483.059212 49.437813 
L 455.059212 49.437813 
z
" style="fill:#ff6384;opacity:0.5;stroke:#ff6384;stroke-linejoin:miter;"/>
    </g>
    <g id="text_1">
     <!-- base -->
     <defs>
      <path d="M 48.6875 27.296875 
Q 48.6875 37.203125 44.609375 42.84375 
Q 40.53125 48.484375 33.40625 48.484375 
Q 26.265625 48.484375 22.1875 42.84375 
Q 18.109375 37.203125 18.109375 27.296875 
Q 18.109375 17.390625 22.1875 11.75 
Q 26.265625 6.109375 33.40625 6.109375 
Q 40.53125 6.109375 44.609375 11.75 
Q 48.6875 17.390625 48.6875 27.296875 
z
M 18.109375 46.390625 
Q 20.953125 51.265625 25.265625 53.625 
Q 29.59375 56 35.59375 56 
Q 45.5625 56 51.78125 48.09375 
Q 58.015625 40.1875 58.015625 27.296875 
Q 58.015625 14.40625 51.78125 6.484375 
Q 45.5625 -1.421875 35.59375 -1.421875 
Q 29.59375 -1.421875 25.265625 0.953125 
Q 20.953125 3.328125 18.109375 8.203125 
L 18.109375 0 
L 9.078125 0 
L 9.078125 75.984375 
L 18.109375 75.984375 
z
" id="DejaVuSans-98"/>
      <path d="M 34.28125 27.484375 
Q 23.390625 27.484375 19.1875 25 
Q 14.984375 22.515625 14.984375 16.5 
Q 14.984375 11.71875 18.140625 8.90625 
Q 21.296875 6.109375 26.703125 6.109375 
Q 34.1875 6.109375 38.703125 11.40625 
Q 43.21875 16.703125 43.21875 25.484375 
L 43.21875 27.484375 
z
M 52.203125 31.203125 
L 52.203125 0 
L 43.21875 0 
L 43.21875 8.296875 
Q 40.140625 3.328125 35.546875 0.953125 
Q 30.953125 -1.421875 24.3125 -1.421875 
Q 15.921875 -1.421875 10.953125 3.296875 
Q 6 8.015625 6 15.921875 
Q 6 25.140625 12.171875 29.828125 
Q 18.359375 34.515625 30.609375 34.515625 
L 43.21875 34.515625 
L 43.21875 35.40625 
Q 43.21875 41.609375 39.140625 45 
Q 35.0625 48.390625 27.6875 48.390625 
Q 23 48.390625 18.546875 47.265625 
Q 14.109375 46.140625 10.015625 43.890625 
L 10.015625 52.203125 
Q 14.9375 54.109375 19.578125 55.046875 
Q 24.21875 56 28.609375 56 
Q 40.484375 56 46.34375 49.84375 
Q 52.203125 43.703125 52.203125 31.203125 
z
" id="DejaVuSans-97"/>
      <path d="M 44.28125 53.078125 
L 44.28125 44.578125 
Q 40.484375 46.53125 36.375 47.5 
Q 32.28125 48.484375 27.875 48.484375 
Q 21.1875 48.484375 17.84375 46.4375 
Q 14.5 44.390625 14.5 40.28125 
Q 14.5 37.15625 16.890625 35.375 
Q 19.28125 33.59375 26.515625 31.984375 
L 29.59375 31.296875 
Q 39.15625 29.25 43.1875 25.515625 
Q 47.21875 21.78125 47.21875 15.09375 
Q 47.21875 7.46875 41.1875 3.015625 
Q 35.15625 -1.421875 24.609375 -1.421875 
Q 20.21875 -1.421875 15.453125 -0.5625 
Q 10.6875 0.296875 5.421875 2 
L 5.421875 11.28125 
Q 10.40625 8.6875 15.234375 7.390625 
Q 20.0625 6.109375 24.8125 6.109375 
Q 31.15625 6.109375 34.5625 8.28125 
Q 37.984375 10.453125 37.984375 14.40625 
Q 37.984375 18.0625 35.515625 20.015625 
Q 33.0625 21.96875 24.703125 23.78125 
L 21.578125 24.515625 
Q 13.234375 26.265625 9.515625 29.90625 
Q 5.8125 33.546875 5.8125 39.890625 
Q 5.8125 47.609375 11.28125 51.796875 
Q 16.75 56 26.8125 56 
Q 31.78125 56 36.171875 55.265625 
Q 40.578125 54.546875 44.28125 53.078125 
z
" id="DejaVuSans-115"/>
      <path d="M 56.203125 29.59375 
L 56.203125 25.203125 
L 14.890625 25.203125 
Q 15.484375 15.921875 20.484375 11.0625 
Q 25.484375 6.203125 34.421875 6.203125 
Q 39.59375 6.203125 44.453125 7.46875 
Q 49.3125 8.734375 54.109375 11.28125 
L 54.109375 2.78125 
Q 49.265625 0.734375 44.1875 -0.34375 
Q 39.109375 -1.421875 33.890625 -1.421875 
Q 20.796875 -1.421875 13.15625 6.1875 
Q 5.515625 13.8125 5.515625 26.8125 
Q 5.515625 40.234375 12.765625 48.109375 
Q 20.015625 56 32.328125 56 
Q 43.359375 56 49.78125 48.890625 
Q 56.203125 41.796875 56.203125 29.59375 
z
M 47.21875 32.234375 
Q 47.125 39.59375 43.09375 43.984375 
Q 39.0625 48.390625 32.421875 48.390625 
Q 24.90625 48.390625 20.390625 44.140625 
Q 15.875 39.890625 15.1875 32.171875 
z
" id="DejaVuSans-101"/>
     </defs>
     <g transform="translate(494.259212 59.237813)scale(0.14 -0.14)">
      <use xlink:href="#DejaVuSans-98"/>
      <use x="63.476562" xlink:href="#DejaVuSans-97"/>
      <use x="124.755859" xlink:href="#DejaVuSans-115"/>
      <use x="176.855469" xlink:href="#DejaVuSans-101"/>
     </g>
    </g>
    <g id="patch_6">
     <path d="M 455.059212 79.787188 
L 483.059212 79.787188 
L 483.059212 69.987188 
L 455.059212 69.987188 
z
" style="fill:#36a2eb;opacity:0.5;stroke:#36a2eb;stroke-linejoin:miter;"/>
    </g>
    <g id="text_2">
     <!-- fifth -->
     <defs>
      <path d="M 37.109375 75.984375 
L 37.109375 68.5 
L 28.515625 68.5 
Q 23.6875 68.5 21.796875 66.546875 
Q 19.921875 64.59375 19.921875 59.515625 
L 19.921875 54.6875 
L 34.71875 54.6875 
L 34.71875 47.703125 
L 19.921875 47.703125 
L 19.921875 0 
L 10.890625 0 
L 10.890625 47.703125 
L 2.296875 47.703125 
L 2.296875 54.6875 
L 10.890625 54.6875 
L 10.890625 58.5 
Q 10.890625 67.625 15.140625 71.796875 
Q 19.390625 75.984375 28.609375 75.984375 
z
" id="DejaVuSans-102"/>
      <path d="M 9.421875 54.6875 
L 18.40625 54.6875 
L 18.40625 0 
L 9.421875 0 
z
M 9.421875 75.984375 
L 18.40625 75.984375 
L 18.40625 64.59375 
L 9.421875 64.59375 
z
" id="DejaVuSans-105"/>
      <path d="M 18.3125 70.21875 
L 18.3125 54.6875 
L 36.8125 54.6875 
L 36.8125 47.703125 
L 18.3125 47.703125 
L 18.3125 18.015625 
Q 18.3125 11.328125 20.140625 9.421875 
Q 21.96875 7.515625 27.59375 7.515625 
L 36.8125 7.515625 
L 36.8125 0 
L 27.59375 0 
Q 17.1875 0 13.234375 3.875 
Q 9.28125 7.765625 9.28125 18.015625 
L 9.28125 47.703125 
L 2.6875 47.703125 
L 2.6875 54.6875 
L 9.28125 54.6875 
L 9.28125 70.21875 
z
" id="DejaVuSans-116"/>
      <path d="M 54.890625 33.015625 
L 54.890625 0 
L 45.90625 0 
L 45.90625 32.71875 
Q 45.90625 40.484375 42.875 44.328125 
Q 39.84375 48.1875 33.796875 48.1875 
Q 26.515625 48.1875 22.3125 43.546875 
Q 18.109375 38.921875 18.109375 30.90625 
L 18.109375 0 
L 9.078125 0 
L 9.078125 75.984375 
L 18.109375 75.984375 
L 18.109375 46.1875 
Q 21.34375 51.125 25.703125 53.5625 
Q 30.078125 56 35.796875 56 
Q 45.21875 56 50.046875 50.171875 
Q 54.890625 44.34375 54.890625 33.015625 
z
" id="DejaVuSans-104"/>
     </defs>
     <g transform="translate(494.259212 79.787188)scale(0.14 -0.14)">
      <use xlink:href="#DejaVuSans-102"/>
      <use x="35.205078" xlink:href="#DejaVuSans-105"/>
      <use x="62.988281" xlink:href="#DejaVuSans-102"/>
      <use x="98.177734" xlink:href="#DejaVuSans-116"/>
      <use x="137.386719" xlink:href="#DejaVuSans-104"/>
     </g>
    </g>
    <g id="patch_7">
     <path d="M 455.059212 100.336563 
L 483.059212 100.336563 
L 483.059212 90.536563 
L 455.059212 90.536563 
z
" style="fill:#4bc0c0;opacity:0.5;stroke:#4bc0c0;stroke-linejoin:miter;"/>
    </g>
    <g id="text_3">
     <!-- mid -->
     <defs>
      <path d="M 52 44.1875 
Q 55.375 50.25 60.0625 53.125 
Q 64.75 56 71.09375 56 
Q 79.640625 56 84.28125 50.015625 
Q 88.921875 44.046875 88.921875 33.015625 
L 88.921875 0 
L 79.890625 0 
L 79.890625 32.71875 
Q 79.890625 40.578125 77.09375 44.375 
Q 74.3125 48.1875 68.609375 48.1875 
Q 61.625 48.1875 57.5625 43.546875 
Q 53.515625 38.921875 53.515625 30.90625 
L 53.515625 0 
L 44.484375 0 
L 44.484375 32.71875 
Q 44.484375 40.625 41.703125 44.40625 
Q 38.921875 48.1875 33.109375 48.1875 
Q 26.21875 48.1875 22.15625 43.53125 
Q 18.109375 38.875 18.109375 30.90625 
L 18.109375 0 
L 9.078125 0 
L 9.078125 54.6875 
L 18.109375 54.6875 
L 18.109375 46.1875 
Q 21.1875 51.21875 25.484375 53.609375 
Q 29.78125 56 35.6875 56 
Q 41.65625 56 45.828125 52.96875 
Q 50 49.953125 52 44.1875 
z
" id="DejaVuSans-109"/>
      <path d="M 45.40625 46.390625 
L 45.40625 75.984375 
L 54.390625 75.984375 
L 54.390625 0 
L 45.40625 0 
L 45.40625 8.203125 
Q 42.578125 3.328125 38.25 0.953125 
Q 33.9375 -1.421875 27.875 -1.421875 
Q 17.96875 -1.421875 11.734375 6.484375 
Q 5.515625 14.40625 5.515625 27.296875 
Q 5.515625 40.1875 11.734375 48.09375 
Q 17.96875 56 27.875 56 
Q 33.9375 56 38.25 53.625 
Q 42.578125 51.265625 45.40625 46.390625 
z
M 14.796875 27.296875 
Q 14.796875 17.390625 18.875 11.75 
Q 22.953125 6.109375 30.078125 6.109375 
Q 37.203125 6.109375 41.296875 11.75 
Q 45.40625 17.390625 45.40625 27.296875 
Q 45.40625 37.203125 41.296875 42.84375 
Q 37.203125 48.484375 30.078125 48.484375 
Q 22.953125 48.484375 18.875 42.84375 
Q 14.796875 37.203125 14.796875 27.296875 
z
" id="DejaVuSans-100"/>
     </defs>
     <g transform="translate(494.259212 100.336563)scale(0.14 -0.14)">
      <use xlink:href="#DejaVuSans-109"/>
      <use x="97.412109" xlink:href="#DejaVuSans-105"/>
      <use x="125.195312" xlink:href="#DejaVuSans-100"/>
     </g>
    </g>
    <g id="patch_8">
     <path d="M 455.059212 120.885938 
L 483.059212 120.885938 
L 483.059212 111.085938 
L 455.059212 111.085938 
z
" style="fill:#9966ff;opacity:0.5;stroke:#9966ff;stroke-linejoin:miter;"/>
    </g>
    <g id="text_4">
     <!-- right -->
     <defs>
      <path d="M 41.109375 46.296875 
Q 39.59375 47.171875 37.8125 47.578125 
Q 36.03125 48 33.890625 48 
Q 26.265625 48 22.1875 43.046875 
Q 18.109375 38.09375 18.109375 28.8125 
L 18.109375 0 
L 9.078125 0 
L 9.078125 54.6875 
L 18.109375 54.6875 
L 18.109375 46.1875 
Q 20.953125 51.171875 25.484375 53.578125 
Q 30.03125 56 36.53125 56 
Q 37.453125 56 38.578125 55.875 
Q 39.703125 55.765625 41.0625 55.515625 
z
" id="DejaVuSans-114"/>
      <path d="M 45.40625 27.984375 
Q 45.40625 37.75 41.375 43.109375 
Q 37.359375 48.484375 30.078125 48.484375 
Q 22.859375 48.484375 18.828125 43.109375 
Q 14.796875 37.75 14.796875 27.984375 
Q 14.796875 18.265625 18.828125 12.890625 
Q 22.859375 7.515625 30.078125 7.515625 
Q 37.359375 7.515625 41.375 12.890625 
Q 45.40625 18.265625 45.40625 27.984375 
z
M 54.390625 6.78125 
Q 54.390625 -7.171875 48.1875 -13.984375 
Q 42 -20.796875 29.203125 -20.796875 
Q 24.46875 -20.796875 20.265625 -20.09375 
Q 16.0625 -19.390625 12.109375 -17.921875 
L 12.109375 -9.1875 
Q 16.0625 -11.328125 19.921875 -12.34375 
Q 23.78125 -13.375 27.78125 -13.375 
Q 36.625 -13.375 41.015625 -8.765625 
Q 45.40625 -4.15625 45.40625 5.171875 
L 45.40625 9.625 
Q 42.625 4.78125 38.28125 2.390625 
Q 33.9375 0 27.875 0 
Q 17.828125 0 11.671875 7.65625 
Q 5.515625 15.328125 5.515625 27.984375 
Q 5.515625 40.671875 11.671875 48.328125 
Q 17.828125 56 27.875 56 
Q 33.9375 56 38.28125 53.609375 
Q 42.625 51.21875 45.40625 46.390625 
L 45.40625 54.6875 
L 54.390625 54.6875 
z
" id="DejaVuSans-103"/>
     </defs>
     <g transform="translate(494.259212 120.885938)scale(0.14 -0.14)">
      <use xlink:href="#DejaVuSans-114"/>
      <use x="41.113281" xlink:href="#DejaVuSans-105"/>
      <use x="68.896484" xlink:href="#DejaVuSans-103"/>
      <use x="132.373047" xlink:href="#DejaVuSans-104"/>
      <use x="195.751953" xlink:href="#DejaVuSans-116"/>
     </g>
    </g>
   </g>
  </g>
  <g id="axes_2">
   <g id="patch_9">
    <path d="M 38.033899 525.24 
L 540.233899 525.24 
L 540.233899 402.93 
L 38.033899 402.93 
z
" style="fill:none;"/>
   </g>
   <g id="patch_10">
    <path clip-path="url(#pd18bc143b6)" d="M 113.617016 519.680455 
L 214.990991 519.680455 
L 214.990991 503.796039 
L 113.617016 503.796039 
z
" style="fill:#ff6384;opacity:0.5;"/>
   </g>
   <g id="patch_11">
    <path clip-path="url(#pd18bc143b6)" d="M 176.558485 487.911623 
L 301.871913 487.911623 
L 301.871913 472.027208 
L 176.558485 472.027208 
z
" style="fill:#36a2eb;opacity:0.5;"/>
   </g>
   <g id="patch_12">
    <path clip-path="url(#pd18bc143b6)" d="M 132.895098 456.142792 
L 249.647084 456.142792 
L 249.647084 440.258377 
L 132.895098 440.258377 
z
" style="fill:#4bc0c0;opacity:0.5;"/>
   </g>
   <g id="patch_13">
    <path clip-path="url(#pd18bc143b6)" d="M 183.017349 424.373961 
L 402.951236 424.373961 
L 402.951236 408.489545 
L 183.017349 408.489545 
z
" style="fill:#9966ff;opacity:0.5;"/>
   </g>
   <g id="matplotlib.axis_1">
    <g id="xtick_1">
     <g id="line2d_5">
      <defs>
       <path d="M 0 0 
L 0 3.5 
" id="m5d7d69f4f4" style="stroke:#000000;stroke-width:0.8;"/>
      </defs>
      <g>
       <use style="stroke:#000000;stroke-width:0.8;" x="47.132188" xlink:href="#m5d7d69f4f4" y="525.24"/>
      </g>
     </g>
     <g id="text_5">
      <!-- 9.5 -->
      <defs>
       <path d="M 10.984375 1.515625 
L 10.984375 10.5 
Q 14.703125 8.734375 18.5 7.8125 
Q 22.3125 6.890625 25.984375 6.890625 
Q 35.75 6.890625 40.890625 13.453125 
Q 46.046875 20.015625 46.78125 33.40625 
Q 43.953125 29.203125 39.59375 26.953125 
Q 35.25 24.703125 29.984375 24.703125 
Q 19.046875 24.703125 12.671875 31.3125 
Q 6.296875 37.9375 6.296875 49.421875 
Q 6.296875 60.640625 12.9375 67.421875 
Q 19.578125 74.21875 30.609375 74.21875 
Q 43.265625 74.21875 49.921875 64.515625 
Q 56.59375 54.828125 56.59375 36.375 
Q 56.59375 19.140625 48.40625 8.859375 
Q 40.234375 -1.421875 26.421875 -1.421875 
Q 22.703125 -1.421875 18.890625 -0.6875 
Q 15.09375 0.046875 10.984375 1.515625 
z
M 30.609375 32.421875 
Q 37.25 32.421875 41.125 36.953125 
Q 45.015625 41.5 45.015625 49.421875 
Q 45.015625 57.28125 41.125 61.84375 
Q 37.25 66.40625 30.609375 66.40625 
Q 23.96875 66.40625 20.09375 61.84375 
Q 16.21875 57.28125 16.21875 49.421875 
Q 16.21875 41.5 20.09375 36.953125 
Q 23.96875 32.421875 30.609375 32.421875 
z
" id="DejaVuSans-57"/>
       <path d="M 10.6875 12.40625 
L 21 12.40625 
L 21 0 
L 10.6875 0 
z
" id="DejaVuSans-46"/>
       <path d="M 10.796875 72.90625 
L 49.515625 72.90625 
L 49.515625 64.59375 
L 19.828125 64.59375 
L 19.828125 46.734375 
Q 21.96875 47.46875 24.109375 47.828125 
Q 26.265625 48.1875 28.421875 48.1875 
Q 40.625 48.1875 47.75 41.5 
Q 54.890625 34.8125 54.890625 23.390625 
Q 54.890625 11.625 47.5625 5.09375 
Q 40.234375 -1.421875 26.90625 -1.421875 
Q 22.3125 -1.421875 17.546875 -0.640625 
Q 12.796875 0.140625 7.71875 1.703125 
L 7.71875 11.625 
Q 12.109375 9.234375 16.796875 8.0625 
Q 21.484375 6.890625 26.703125 6.890625 
Q 35.15625 6.890625 40.078125 11.328125 
Q 45.015625 15.765625 45.015625 23.390625 
Q 45.015625 31 40.078125 35.4375 
Q 35.15625 39.890625 26.703125 39.890625 
Q 22.75 39.890625 18.8125 39.015625 
Q 14.890625 38.140625 10.796875 36.28125 
z
" id="DejaVuSans-53"/>
      </defs>
      <g transform="translate(36 542.877813)scale(0.14 -0.14)">
       <use xlink:href="#DejaVuSans-57"/>
       <use x="63.623047" xlink:href="#DejaVuSans-46"/>
       <use x="95.410156" xlink:href="#DejaVuSans-53"/>
      </g>
     </g>
    </g>
    <g id="xtick_2">
     <g id="line2d_6">
      <g>
       <use style="stroke:#000000;stroke-width:0.8;" x="106.089527" xlink:href="#m5d7d69f4f4" y="525.24"/>
      </g>
     </g>
     <g id="text_6">
      <!-- 10.0 -->
      <defs>
       <path d="M 12.40625 8.296875 
L 28.515625 8.296875 
L 28.515625 63.921875 
L 10.984375 60.40625 
L 10.984375 69.390625 
L 28.421875 72.90625 
L 38.28125 72.90625 
L 38.28125 8.296875 
L 54.390625 8.296875 
L 54.390625 0 
L 12.40625 0 
z
" id="DejaVuSans-49"/>
       <path d="M 31.78125 66.40625 
Q 24.171875 66.40625 20.328125 58.90625 
Q 16.5 51.421875 16.5 36.375 
Q 16.5 21.390625 20.328125 13.890625 
Q 24.171875 6.390625 31.78125 6.390625 
Q 39.453125 6.390625 43.28125 13.890625 
Q 47.125 21.390625 47.125 36.375 
Q 47.125 51.421875 43.28125 58.90625 
Q 39.453125 66.40625 31.78125 66.40625 
z
M 31.78125 74.21875 
Q 44.046875 74.21875 50.515625 64.515625 
Q 56.984375 54.828125 56.984375 36.375 
Q 56.984375 17.96875 50.515625 8.265625 
Q 44.046875 -1.421875 31.78125 -1.421875 
Q 19.53125 -1.421875 13.0625 8.265625 
Q 6.59375 17.96875 6.59375 36.375 
Q 6.59375 54.828125 13.0625 64.515625 
Q 19.53125 74.21875 31.78125 74.21875 
z
" id="DejaVuSans-48"/>
      </defs>
      <g transform="translate(90.503589 542.877813)scale(0.14 -0.14)">
       <use xlink:href="#DejaVuSans-49"/>
       <use x="63.623047" xlink:href="#DejaVuSans-48"/>
       <use x="127.246094" xlink:href="#DejaVuSans-46"/>
       <use x="159.033203" xlink:href="#DejaVuSans-48"/>
      </g>
     </g>
    </g>
    <g id="xtick_3">
     <g id="line2d_7">
      <g>
       <use style="stroke:#000000;stroke-width:0.8;" x="165.046866" xlink:href="#m5d7d69f4f4" y="525.24"/>
      </g>
     </g>
     <g id="text_7">
      <!-- 10.5 -->
      <g transform="translate(149.460929 542.877813)scale(0.14 -0.14)">
       <use xlink:href="#DejaVuSans-49"/>
       <use x="63.623047" xlink:href="#DejaVuSans-48"/>
       <use x="127.246094" xlink:href="#DejaVuSans-46"/>
       <use x="159.033203" xlink:href="#DejaVuSans-53"/>
      </g>
     </g>
    </g>
    <g id="xtick_4">
     <g id="line2d_8">
      <g>
       <use style="stroke:#000000;stroke-width:0.8;" x="224.004206" xlink:href="#m5d7d69f4f4" y="525.24"/>
      </g>
     </g>
     <g id="text_8">
      <!-- 11.0 -->
      <g transform="translate(208.418268 542.877813)scale(0.14 -0.14)">
       <use xlink:href="#DejaVuSans-49"/>
       <use x="63.623047" xlink:href="#DejaVuSans-49"/>
       <use x="127.246094" xlink:href="#DejaVuSans-46"/>
       <use x="159.033203" xlink:href="#DejaVuSans-48"/>
      </g>
     </g>
    </g>
    <g id="xtick_5">
     <g id="line2d_9">
      <g>
       <use style="stroke:#000000;stroke-width:0.8;" x="282.961545" xlink:href="#m5d7d69f4f4" y="525.24"/>
      </g>
     </g>
     <g id="text_9">
      <!-- 11.5 -->
      <g transform="translate(267.375607 542.877813)scale(0.14 -0.14)">
       <use xlink:href="#DejaVuSans-49"/>
       <use x="63.623047" xlink:href="#DejaVuSans-49"/>
       <use x="127.246094" xlink:href="#DejaVuSans-46"/>
       <use x="159.033203" xlink:href="#DejaVuSans-53"/>
      </g>
     </g>
    </g>
    <g id="xtick_6">
     <g id="line2d_10">
      <g>
       <use style="stroke:#000000;stroke-width:0.8;" x="341.918884" xlink:href="#m5d7d69f4f4" y="525.24"/>
      </g>
     </g>
     <g id="text_10">
      <!-- 12.0 -->
      <defs>
       <path d="M 19.1875 8.296875 
L 53.609375 8.296875 
L 53.609375 0 
L 7.328125 0 
L 7.328125 8.296875 
Q 12.9375 14.109375 22.625 23.890625 
Q 32.328125 33.6875 34.8125 36.53125 
Q 39.546875 41.84375 41.421875 45.53125 
Q 43.3125 49.21875 43.3125 52.78125 
Q 43.3125 58.59375 39.234375 62.25 
Q 35.15625 65.921875 28.609375 65.921875 
Q 23.96875 65.921875 18.8125 64.3125 
Q 13.671875 62.703125 7.8125 59.421875 
L 7.8125 69.390625 
Q 13.765625 71.78125 18.9375 73 
Q 24.125 74.21875 28.421875 74.21875 
Q 39.75 74.21875 46.484375 68.546875 
Q 53.21875 62.890625 53.21875 53.421875 
Q 53.21875 48.921875 51.53125 44.890625 
Q 49.859375 40.875 45.40625 35.40625 
Q 44.1875 33.984375 37.640625 27.21875 
Q 31.109375 20.453125 19.1875 8.296875 
z
" id="DejaVuSans-50"/>
      </defs>
      <g transform="translate(326.332947 542.877813)scale(0.14 -0.14)">
       <use xlink:href="#DejaVuSans-49"/>
       <use x="63.623047" xlink:href="#DejaVuSans-50"/>
       <use x="127.246094" xlink:href="#DejaVuSans-46"/>
       <use x="159.033203" xlink:href="#DejaVuSans-48"/>
      </g>
     </g>
    </g>
    <g id="xtick_7">
     <g id="line2d_11">
      <g>
       <use style="stroke:#000000;stroke-width:0.8;" x="400.876224" xlink:href="#m5d7d69f4f4" y="525.24"/>
      </g>
     </g>
     <g id="text_11">
      <!-- 12.5 -->
      <g transform="translate(385.290286 542.877813)scale(0.14 -0.14)">
       <use xlink:href="#DejaVuSans-49"/>
       <use x="63.623047" xlink:href="#DejaVuSans-50"/>
       <use x="127.246094" xlink:href="#DejaVuSans-46"/>
       <use x="159.033203" xlink:href="#DejaVuSans-53"/>
      </g>
     </g>
    </g>
    <g id="xtick_8">
     <g id="line2d_12">
      <g>
       <use style="stroke:#000000;stroke-width:0.8;" x="459.833563" xlink:href="#m5d7d69f4f4" y="525.24"/>
      </g>
     </g>
     <g id="text_12">
      <!-- 13.0 -->
      <defs>
       <path d="M 40.578125 39.3125 
Q 47.65625 37.796875 51.625 33 
Q 55.609375 28.21875 55.609375 21.1875 
Q 55.609375 10.40625 48.1875 4.484375 
Q 40.765625 -1.421875 27.09375 -1.421875 
Q 22.515625 -1.421875 17.65625 -0.515625 
Q 12.796875 0.390625 7.625 2.203125 
L 7.625 11.71875 
Q 11.71875 9.328125 16.59375 8.109375 
Q 21.484375 6.890625 26.8125 6.890625 
Q 36.078125 6.890625 40.9375 10.546875 
Q 45.796875 14.203125 45.796875 21.1875 
Q 45.796875 27.640625 41.28125 31.265625 
Q 36.765625 34.90625 28.71875 34.90625 
L 20.21875 34.90625 
L 20.21875 43.015625 
L 29.109375 43.015625 
Q 36.375 43.015625 40.234375 45.921875 
Q 44.09375 48.828125 44.09375 54.296875 
Q 44.09375 59.90625 40.109375 62.90625 
Q 36.140625 65.921875 28.71875 65.921875 
Q 24.65625 65.921875 20.015625 65.03125 
Q 15.375 64.15625 9.8125 62.3125 
L 9.8125 71.09375 
Q 15.4375 72.65625 20.34375 73.4375 
Q 25.25 74.21875 29.59375 74.21875 
Q 40.828125 74.21875 47.359375 69.109375 
Q 53.90625 64.015625 53.90625 55.328125 
Q 53.90625 49.265625 50.4375 45.09375 
Q 46.96875 40.921875 40.578125 39.3125 
z
" id="DejaVuSans-51"/>
      </defs>
      <g transform="translate(444.247625 542.877813)scale(0.14 -0.14)">
       <use xlink:href="#DejaVuSans-49"/>
       <use x="63.623047" xlink:href="#DejaVuSans-51"/>
       <use x="127.246094" xlink:href="#DejaVuSans-46"/>
       <use x="159.033203" xlink:href="#DejaVuSans-48"/>
      </g>
     </g>
    </g>
    <g id="xtick_9">
     <g id="line2d_13">
      <g>
       <use style="stroke:#000000;stroke-width:0.8;" x="518.790902" xlink:href="#m5d7d69f4f4" y="525.24"/>
      </g>
     </g>
     <g id="text_13">
      <!-- 13.5 -->
      <g transform="translate(503.204965 542.877813)scale(0.14 -0.14)">
       <use xlink:href="#DejaVuSans-49"/>
       <use x="63.623047" xlink:href="#DejaVuSans-51"/>
       <use x="127.246094" xlink:href="#DejaVuSans-46"/>
       <use x="159.033203" xlink:href="#DejaVuSans-53"/>
      </g>
     </g>
    </g>
   </g>
   <g id="line2d_14">
    <path clip-path="url(#pd18bc143b6)" d="M 164.304004 525.24 
L 164.304004 402.93 
" style="fill:none;stroke:#ff6384;stroke-dasharray:5.55,2.4;stroke-dashoffset:0;stroke-opacity:0.8;stroke-width:1.5;"/>
   </g>
   <g id="line2d_15">
    <path clip-path="url(#pd18bc143b6)" d="M 239.215199 525.24 
L 239.215199 402.93 
" style="fill:none;stroke:#36a2eb;stroke-dasharray:5.55,2.4;stroke-dashoffset:0;stroke-opacity:0.8;stroke-width:1.5;"/>
   </g>
   <g id="line2d_16">
    <path clip-path="url(#pd18bc143b6)" d="M 191.271091 525.24 
L 191.271091 402.93 
" style="fill:none;stroke:#4bc0c0;stroke-dasharray:5.55,2.4;stroke-dashoffset:0;stroke-opacity:0.8;stroke-width:1.5;"/>
   </g>
   <g id="line2d_17">
    <path clip-path="url(#pd18bc143b6)" d="M 292.984293 525.24 
L 292.984293 402.93 
" style="fill:none;stroke:#9966ff;stroke-dasharray:5.55,2.4;stroke-dashoffset:0;stroke-opacity:0.8;stroke-width:1.5;"/>
   </g>
   <g id="patch_14">
    <path d="M 38.033899 525.24 
L 540.233899 525.24 
" style="fill:none;stroke:#000000;stroke-linecap:square;stroke-linejoin:miter;stroke-width:0.8;"/>
   </g>
  </g>
 </g>
 <defs>
  <clipPath id="pd985f2c434">
   <rect height="366.93" width="502.2" x="38.033899" y="36"/>
  </clipPath>
  <clipPath id="pd18bc143b6">
   <rect height="122.31" width="502.2" x="38.033899" y="402.93"/>
  </clipPath>
 </defs>
</svg>
