<?xml version="1.0" encoding="utf-8" standalone="no"?>
<!DOCTYPE svg PUBLIC "-//W3C//DTD SVG 1.1//EN"
  "http://www.w3.org/Graphics/SVG/1.1/DTD/svg11.dtd">
<!-- Created with matplotlib (https://matplotlib.org/) -->
<svg height="581.789375pt" version="1.1" viewBox="0 0 574.2 581.789375" width="574.2pt" xmlns="http://www.w3.org/2000/svg" xmlns:xlink="http://www.w3.org/1999/xlink">
 <defs>
  <style type="text/css">
*{stroke-linecap:butt;stroke-linejoin:round;}
  </style>
 </defs>
 <g id="figure_1">
  <g id="patch_1">
   <path d="M 0 581.789375 
L 574.2 581.789375 
L 574.2 0 
L 0 0 
z
" style="fill:none;"/>
  </g>
  <g id="axes_1">
   <g id="patch_2">
    <path d="M 36 402.93 
L 538.2 402.93 
L 538.2 36 
L 36 36 
z
" style="fill:none;"/>
   </g>
   <g id="PolyCollection_1">
    <defs>
     <path d="M 79.179712 -195.538011 
L 79.179712 -195.649483 
L 83.481885 -195.691518 
L 87.784058 -195.748026 
L 92.086231 -195.823467 
L 96.388403 -195.923481 
L 100.690576 -196.05515 
L 104.992749 -196.227278 
L 109.294922 -196.450719 
L 113.597095 -196.738728 
L 117.899267 -197.107338 
L 122.20144 -197.575757 
L 126.503613 -198.166771 
L 130.805786 -198.907126 
L 135.107958 -199.827888 
L 139.410131 -200.964738 
L 143.712304 -202.35818 
L 148.014477 -204.053633 
L 152.31665 -206.101362 
L 156.618822 -208.556217 
L 160.920995 -211.477142 
L 165.223168 -214.926422 
L 169.525341 -218.968637 
L 173.827513 -223.6693 
L 178.129686 -229.093182 
L 182.431859 -235.302313 
L 186.734032 -242.353692 
L 191.036205 -250.296747 
L 195.338377 -259.170595 
L 199.64055 -269.001202 
L 203.942723 -279.798524 
L 208.244896 -291.553763 
L 212.547068 -304.236863 
L 216.849241 -317.794384 
L 221.151414 -332.1479 
L 225.453587 -347.193052 
L 229.755759 -362.799378 
L 234.057932 -378.811022 
L 238.360105 -395.048378 
L 242.662278 -411.310714 
L 246.964451 -427.379745 
L 251.266623 -443.024111 
L 255.568796 -458.004636 
L 259.870969 -472.080229 
L 264.173142 -485.014222 
L 268.475314 -496.580916 
L 272.777487 -506.572102 
L 277.07966 -514.803276 
L 281.381833 -521.119293 
L 285.684006 -525.399237 
L 289.986178 -527.560261 
L 294.288351 -527.560261 
L 298.590524 -525.399237 
L 302.892697 -521.119293 
L 307.194869 -514.803276 
L 311.497042 -506.572102 
L 315.799215 -496.580916 
L 320.101388 -485.014222 
L 324.403561 -472.080229 
L 328.705733 -458.004636 
L 333.007906 -443.024111 
L 337.310079 -427.379745 
L 341.612252 -411.310714 
L 345.914424 -395.048378 
L 350.216597 -378.811022 
L 354.51877 -362.799378 
L 358.820943 -347.193052 
L 363.123115 -332.1479 
L 367.425288 -317.794384 
L 371.727461 -304.236863 
L 376.029634 -291.553763 
L 380.331807 -279.798524 
L 384.633979 -269.001202 
L 388.936152 -259.170595 
L 393.238325 -250.296747 
L 397.540498 -242.353692 
L 401.84267 -235.302313 
L 406.144843 -229.093182 
L 410.447016 -223.6693 
L 414.749189 -218.968637 
L 419.051362 -214.926422 
L 423.353534 -211.477142 
L 427.655707 -208.556217 
L 431.95788 -206.101362 
L 436.260053 -204.053633 
L 440.562225 -202.35818 
L 444.864398 -200.964738 
L 449.166571 -199.827888 
L 453.468744 -198.907126 
L 457.770917 -198.166771 
L 462.073089 -197.575757 
L 466.375262 -197.107338 
L 470.677435 -196.738728 
L 474.979608 -196.450719 
L 479.28178 -196.227278 
L 483.583953 -196.05515 
L 487.886126 -195.923481 
L 492.188299 -195.823467 
L 496.490472 -195.748026 
L 500.792644 -195.691518 
L 505.094817 -195.649483 
L 505.094817 -195.538011 
L 505.094817 -195.538011 
L 500.792644 -195.538011 
L 496.490472 -195.538011 
L 492.188299 -195.538011 
L 487.886126 -195.538011 
L 483.583953 -195.538011 
L 479.28178 -195.538011 
L 474.979608 -195.538011 
L 470.677435 -195.538011 
L 466.375262 -195.538011 
L 462.073089 -195.538011 
L 457.770917 -195.538011 
L 453.468744 -195.538011 
L 449.166571 -195.538011 
L 444.864398 -195.538011 
L 440.562225 -195.538011 
L 436.260053 -195.538011 
L 431.95788 -195.538011 
L 427.655707 -195.538011 
L 423.353534 -195.538011 
L 419.051362 -195.538011 
L 414.749189 -195.538011 
L 410.447016 -195.538011 
L 406.144843 -195.538011 
L 401.84267 -195.538011 
L 397.540498 -195.538011 
L 393.238325 -195.538011 
L 388.936152 -195.538011 
L 384.633979 -195.538011 
L 380.331807 -195.538011 
L 376.029634 -195.538011 
L 371.727461 -195.538011 
L 367.425288 -195.538011 
L 363.123115 -195.538011 
L 358.820943 -195.538011 
L 354.51877 -195.538011 
L 350.216597 -195.538011 
L 345.914424 -195.538011 
L 341.612252 -195.538011 
L 337.310079 -195.538011 
L 333.007906 -195.538011 
L 328.705733 -195.538011 
L 324.403561 -195.538011 
L 320.101388 -195.538011 
L 315.799215 -195.538011 
L 311.497042 -195.538011 
L 307.194869 -195.538011 
L 302.892697 -195.538011 
L 298.590524 -195.538011 
L 294.288351 -195.538011 
L 289.986178 -195.538011 
L 285.684006 -195.538011 
L 281.381833 -195.538011 
L 277.07966 -195.538011 
L 272.777487 -195.538011 
L 268.475314 -195.538011 
L 264.173142 -195.538011 
L 259.870969 -195.538011 
L 255.568796 -195.538011 
L 251.266623 -195.538011 
L 246.964451 -195.538011 
L 242.662278 -195.538011 
L 238.360105 -195.538011 
L 234.057932 -195.538011 
L 229.755759 -195.538011 
L 225.453587 -195.538011 
L 221.151414 -195.538011 
L 216.849241 -195.538011 
L 212.547068 -195.538011 
L 208.244896 -195.538011 
L 203.942723 -195.538011 
L 199.64055 -195.538011 
L 195.338377 -195.538011 
L 191.036205 -195.538011 
L 186.734032 -195.538011 
L 182.431859 -195.538011 
L 178.129686 -195.538011 
L 173.827513 -195.538011 
L 169.525341 -195.538011 
L 165.223168 -195.538011 
L 160.920995 -195.538011 
L 156.618822 -195.538011 
L 152.31665 -195.538011 
L 148.014477 -195.538011 
L 143.712304 -195.538011 
L 139.410131 -195.538011 
L 135.107958 -195.538011 
L 130.805786 -195.538011 
L 126.503613 -195.538011 
L 122.20144 -195.538011 
L 117.899267 -195.538011 
L 113.597095 -195.538011 
L 109.294922 -195.538011 
L 104.992749 -195.538011 
L 100.690576 -195.538011 
L 96.388403 -195.538011 
L 92.086231 -195.538011 
L 87.784058 -195.538011 
L 83.481885 -195.538011 
L 79.179712 -195.538011 
z
" id="m5e91f71e87" style="stroke:#ff6384;stroke-opacity:0.5;"/>
    </defs>
    <g clip-path="url(#pbab367cbe4)">
     <use style="fill:#ff6384;fill-opacity:0.5;stroke:#ff6384;stroke-opacity:0.5;" x="0" xlink:href="#m5e91f71e87" y="581.789375"/>
    </g>
   </g>
   <g id="PolyCollection_2">
    <defs>
     <path d="M 76.463272 -195.538011 
L 76.463272 -195.649781 
L 80.753991 -195.691927 
L 85.044709 -195.748587 
L 89.335428 -195.824229 
L 93.626146 -195.92451 
L 97.916864 -196.05653 
L 102.207583 -196.229118 
L 106.498301 -196.453156 
L 110.78902 -196.741933 
L 115.079738 -197.111527 
L 119.370457 -197.581197 
L 123.661175 -198.173788 
L 127.951894 -198.91612 
L 132.242612 -199.83934 
L 136.533331 -200.979225 
L 140.824049 -202.376387 
L 145.114768 -204.076366 
L 149.405486 -206.129562 
L 153.696204 -208.59097 
L 157.986923 -211.519692 
L 162.277641 -214.978181 
L 166.56836 -219.031186 
L 170.859078 -223.744398 
L 175.149797 -229.182759 
L 179.440515 -235.408466 
L 183.731234 -242.478669 
L 188.021952 -250.442928 
L 192.312671 -259.340466 
L 196.603389 -269.197316 
L 200.894108 -280.023462 
L 205.184826 -291.810082 
L 209.475544 -304.527041 
L 213.766263 -318.120754 
L 218.056981 -332.512588 
L 222.3477 -347.597904 
L 226.638418 -363.245892 
L 230.929137 -379.30028 
L 235.219855 -395.580983 
L 239.510574 -411.886731 
L 243.801292 -427.99866 
L 248.092011 -443.684789 
L 252.382729 -458.705305 
L 256.673448 -472.818474 
L 260.964166 -485.786994 
L 265.254884 -497.384566 
L 269.545603 -507.402425 
L 273.836321 -515.655572 
L 278.12704 -521.988451 
L 282.417758 -526.27982 
L 286.708477 -528.446613 
L 290.999195 -528.446613 
L 295.289914 -526.27982 
L 299.580632 -521.988451 
L 303.871351 -515.655572 
L 308.162069 -507.402425 
L 312.452788 -497.384566 
L 316.743506 -485.786994 
L 321.034224 -472.818474 
L 325.324943 -458.705305 
L 329.615661 -443.684789 
L 333.90638 -427.99866 
L 338.197098 -411.886731 
L 342.487817 -395.580983 
L 346.778535 -379.30028 
L 351.069254 -363.245892 
L 355.359972 -347.597904 
L 359.650691 -332.512588 
L 363.941409 -318.120754 
L 368.232128 -304.527041 
L 372.522846 -291.810082 
L 376.813564 -280.023462 
L 381.104283 -269.197316 
L 385.395001 -259.340466 
L 389.68572 -250.442928 
L 393.976438 -242.478669 
L 398.267157 -235.408466 
L 402.557875 -229.182759 
L 406.848594 -223.744398 
L 411.139312 -219.031186 
L 415.430031 -214.978181 
L 419.720749 -211.519692 
L 424.011468 -208.59097 
L 428.302186 -206.129562 
L 432.592904 -204.076366 
L 436.883623 -202.376387 
L 441.174341 -200.979225 
L 445.46506 -199.83934 
L 449.755778 -198.91612 
L 454.046497 -198.173788 
L 458.337215 -197.581197 
L 462.627934 -197.111527 
L 466.918652 -196.741933 
L 471.209371 -196.453156 
L 475.500089 -196.229118 
L 479.790808 -196.05653 
L 484.081526 -195.92451 
L 488.372244 -195.824229 
L 492.662963 -195.748587 
L 496.953681 -195.691927 
L 501.2444 -195.649781 
L 501.2444 -195.538011 
L 501.2444 -195.538011 
L 496.953681 -195.538011 
L 492.662963 -195.538011 
L 488.372244 -195.538011 
L 484.081526 -195.538011 
L 479.790808 -195.538011 
L 475.500089 -195.538011 
L 471.209371 -195.538011 
L 466.918652 -195.538011 
L 462.627934 -195.538011 
L 458.337215 -195.538011 
L 454.046497 -195.538011 
L 449.755778 -195.538011 
L 445.46506 -195.538011 
L 441.174341 -195.538011 
L 436.883623 -195.538011 
L 432.592904 -195.538011 
L 428.302186 -195.538011 
L 424.011468 -195.538011 
L 419.720749 -195.538011 
L 415.430031 -195.538011 
L 411.139312 -195.538011 
L 406.848594 -195.538011 
L 402.557875 -195.538011 
L 398.267157 -195.538011 
L 393.976438 -195.538011 
L 389.68572 -195.538011 
L 385.395001 -195.538011 
L 381.104283 -195.538011 
L 376.813564 -195.538011 
L 372.522846 -195.538011 
L 368.232128 -195.538011 
L 363.941409 -195.538011 
L 359.650691 -195.538011 
L 355.359972 -195.538011 
L 351.069254 -195.538011 
L 346.778535 -195.538011 
L 342.487817 -195.538011 
L 338.197098 -195.538011 
L 333.90638 -195.538011 
L 329.615661 -195.538011 
L 325.324943 -195.538011 
L 321.034224 -195.538011 
L 316.743506 -195.538011 
L 312.452788 -195.538011 
L 308.162069 -195.538011 
L 303.871351 -195.538011 
L 299.580632 -195.538011 
L 295.289914 -195.538011 
L 290.999195 -195.538011 
L 286.708477 -195.538011 
L 282.417758 -195.538011 
L 278.12704 -195.538011 
L 273.836321 -195.538011 
L 269.545603 -195.538011 
L 265.254884 -195.538011 
L 260.964166 -195.538011 
L 256.673448 -195.538011 
L 252.382729 -195.538011 
L 248.092011 -195.538011 
L 243.801292 -195.538011 
L 239.510574 -195.538011 
L 235.219855 -195.538011 
L 230.929137 -195.538011 
L 226.638418 -195.538011 
L 222.3477 -195.538011 
L 218.056981 -195.538011 
L 213.766263 -195.538011 
L 209.475544 -195.538011 
L 205.184826 -195.538011 
L 200.894108 -195.538011 
L 196.603389 -195.538011 
L 192.312671 -195.538011 
L 188.021952 -195.538011 
L 183.731234 -195.538011 
L 179.440515 -195.538011 
L 175.149797 -195.538011 
L 170.859078 -195.538011 
L 166.56836 -195.538011 
L 162.277641 -195.538011 
L 157.986923 -195.538011 
L 153.696204 -195.538011 
L 149.405486 -195.538011 
L 145.114768 -195.538011 
L 140.824049 -195.538011 
L 136.533331 -195.538011 
L 132.242612 -195.538011 
L 127.951894 -195.538011 
L 123.661175 -195.538011 
L 119.370457 -195.538011 
L 115.079738 -195.538011 
L 110.78902 -195.538011 
L 106.498301 -195.538011 
L 102.207583 -195.538011 
L 97.916864 -195.538011 
L 93.626146 -195.538011 
L 89.335428 -195.538011 
L 85.044709 -195.538011 
L 80.753991 -195.538011 
L 76.463272 -195.538011 
z
" id="m4248eefc7a" style="stroke:#36a2eb;stroke-opacity:0.5;"/>
    </defs>
    <g clip-path="url(#pbab367cbe4)">
     <use style="fill:#36a2eb;fill-opacity:0.5;stroke:#36a2eb;stroke-opacity:0.5;" x="0" xlink:href="#m4248eefc7a" y="581.789375"/>
    </g>
   </g>
   <g id="PolyCollection_3">
    <defs>
     <path d="M 58.827273 -195.538011 
L 58.827273 -195.650004 
L 63.109449 -195.692234 
L 67.391624 -195.749007 
L 71.6738 -195.8248 
L 75.955976 -195.925281 
L 80.238152 -196.057565 
L 84.520328 -196.230497 
L 88.802504 -196.454982 
L 93.08468 -196.744335 
L 97.366855 -197.114666 
L 101.649031 -197.585273 
L 105.931207 -198.179047 
L 110.213383 -198.922859 
L 114.495559 -199.847921 
L 118.777735 -200.990079 
L 123.059911 -202.390029 
L 127.342087 -204.093399 
L 131.624262 -206.150691 
L 135.906438 -208.617009 
L 140.188614 -211.551575 
L 144.47079 -215.016962 
L 148.752966 -219.078053 
L 153.035142 -223.800667 
L 157.317318 -229.249878 
L 161.599493 -235.488004 
L 165.881669 -242.572312 
L 170.163845 -250.552459 
L 174.446021 -259.467747 
L 178.728197 -269.344261 
L 183.010373 -280.192004 
L 187.292549 -292.002137 
L 191.574724 -304.744465 
L 195.8569 -318.365297 
L 200.139076 -332.785841 
L 204.421252 -347.901251 
L 208.703428 -363.580456 
L 212.985604 -379.666871 
L 217.26778 -395.980052 
L 221.549956 -412.31833 
L 225.832131 -428.4624 
L 230.114307 -444.179822 
L 234.396483 -459.230303 
L 238.678659 -473.371627 
L 242.960835 -486.366018 
L 247.243011 -497.986726 
L 251.525187 -508.02457 
L 255.807362 -516.294181 
L 260.089538 -522.639693 
L 264.371714 -526.939623 
L 268.65389 -529.110739 
L 272.936066 -529.110739 
L 277.218242 -526.939623 
L 281.500418 -522.639693 
L 285.782593 -516.294181 
L 290.064769 -508.02457 
L 294.346945 -497.986726 
L 298.629121 -486.366018 
L 302.911297 -473.371627 
L 307.193473 -459.230303 
L 311.475649 -444.179822 
L 315.757824 -428.4624 
L 320.04 -412.31833 
L 324.322176 -395.980052 
L 328.604352 -379.666871 
L 332.886528 -363.580456 
L 337.168704 -347.901251 
L 341.45088 -332.785841 
L 345.733056 -318.365297 
L 350.015231 -304.744465 
L 354.297407 -292.002137 
L 358.579583 -280.192004 
L 362.861759 -269.344261 
L 367.143935 -259.467747 
L 371.426111 -250.552459 
L 375.708287 -242.572312 
L 379.990462 -235.488004 
L 384.272638 -229.249878 
L 388.554814 -223.800667 
L 392.83699 -219.078053 
L 397.119166 -215.016962 
L 401.401342 -211.551575 
L 405.683518 -208.617009 
L 409.965693 -206.150691 
L 414.247869 -204.093399 
L 418.530045 -202.390029 
L 422.812221 -200.990079 
L 427.094397 -199.847921 
L 431.376573 -198.922859 
L 435.658749 -198.179047 
L 439.940925 -197.585273 
L 444.2231 -197.114666 
L 448.505276 -196.744335 
L 452.787452 -196.454982 
L 457.069628 -196.230497 
L 461.351804 -196.057565 
L 465.63398 -195.925281 
L 469.916156 -195.8248 
L 474.198331 -195.749007 
L 478.480507 -195.692234 
L 482.762683 -195.650004 
L 482.762683 -195.538011 
L 482.762683 -195.538011 
L 478.480507 -195.538011 
L 474.198331 -195.538011 
L 469.916156 -195.538011 
L 465.63398 -195.538011 
L 461.351804 -195.538011 
L 457.069628 -195.538011 
L 452.787452 -195.538011 
L 448.505276 -195.538011 
L 444.2231 -195.538011 
L 439.940925 -195.538011 
L 435.658749 -195.538011 
L 431.376573 -195.538011 
L 427.094397 -195.538011 
L 422.812221 -195.538011 
L 418.530045 -195.538011 
L 414.247869 -195.538011 
L 409.965693 -195.538011 
L 405.683518 -195.538011 
L 401.401342 -195.538011 
L 397.119166 -195.538011 
L 392.83699 -195.538011 
L 388.554814 -195.538011 
L 384.272638 -195.538011 
L 379.990462 -195.538011 
L 375.708287 -195.538011 
L 371.426111 -195.538011 
L 367.143935 -195.538011 
L 362.861759 -195.538011 
L 358.579583 -195.538011 
L 354.297407 -195.538011 
L 350.015231 -195.538011 
L 345.733056 -195.538011 
L 341.45088 -195.538011 
L 337.168704 -195.538011 
L 332.886528 -195.538011 
L 328.604352 -195.538011 
L 324.322176 -195.538011 
L 320.04 -195.538011 
L 315.757824 -195.538011 
L 311.475649 -195.538011 
L 307.193473 -195.538011 
L 302.911297 -195.538011 
L 298.629121 -195.538011 
L 294.346945 -195.538011 
L 290.064769 -195.538011 
L 285.782593 -195.538011 
L 281.500418 -195.538011 
L 277.218242 -195.538011 
L 272.936066 -195.538011 
L 268.65389 -195.538011 
L 264.371714 -195.538011 
L 260.089538 -195.538011 
L 255.807362 -195.538011 
L 251.525187 -195.538011 
L 247.243011 -195.538011 
L 242.960835 -195.538011 
L 238.678659 -195.538011 
L 234.396483 -195.538011 
L 230.114307 -195.538011 
L 225.832131 -195.538011 
L 221.549956 -195.538011 
L 217.26778 -195.538011 
L 212.985604 -195.538011 
L 208.703428 -195.538011 
L 204.421252 -195.538011 
L 200.139076 -195.538011 
L 195.8569 -195.538011 
L 191.574724 -195.538011 
L 187.292549 -195.538011 
L 183.010373 -195.538011 
L 178.728197 -195.538011 
L 174.446021 -195.538011 
L 170.163845 -195.538011 
L 165.881669 -195.538011 
L 161.599493 -195.538011 
L 157.317318 -195.538011 
L 153.035142 -195.538011 
L 148.752966 -195.538011 
L 144.47079 -195.538011 
L 140.188614 -195.538011 
L 135.906438 -195.538011 
L 131.624262 -195.538011 
L 127.342087 -195.538011 
L 123.059911 -195.538011 
L 118.777735 -195.538011 
L 114.495559 -195.538011 
L 110.213383 -195.538011 
L 105.931207 -195.538011 
L 101.649031 -195.538011 
L 97.366855 -195.538011 
L 93.08468 -195.538011 
L 88.802504 -195.538011 
L 84.520328 -195.538011 
L 80.238152 -195.538011 
L 75.955976 -195.538011 
L 71.6738 -195.538011 
L 67.391624 -195.538011 
L 63.109449 -195.538011 
L 58.827273 -195.538011 
z
" id="mb00f96e71d" style="stroke:#4bc0c0;stroke-opacity:0.5;"/>
    </defs>
    <g clip-path="url(#pbab367cbe4)">
     <use style="fill:#4bc0c0;fill-opacity:0.5;stroke:#4bc0c0;stroke-opacity:0.5;" x="0" xlink:href="#mb00f96e71d" y="581.789375"/>
    </g>
   </g>
   <g id="PolyCollection_4">
    <defs>
     <path d="M 88.602375 -195.538011 
L 88.602375 -195.64926 
L 92.913186 -195.69121 
L 97.223998 -195.747605 
L 101.534809 -195.822895 
L 105.845621 -195.922709 
L 110.156433 -196.054114 
L 114.467244 -196.225897 
L 118.778056 -196.44889 
L 123.088868 -196.736322 
L 127.399679 -197.104193 
L 131.710491 -197.571673 
L 136.021303 -198.161503 
L 140.332114 -198.900374 
L 144.642926 -199.819291 
L 148.953738 -200.953862 
L 153.264549 -202.344512 
L 157.575361 -204.036568 
L 161.886172 -206.080193 
L 166.196984 -208.530128 
L 170.507796 -211.4452 
L 174.818607 -214.887568 
L 179.129419 -218.921682 
L 183.440231 -223.612925 
L 187.751042 -229.025937 
L 192.061854 -235.222625 
L 196.372666 -242.259873 
L 200.683477 -250.18701 
L 204.994289 -259.043075 
L 209.305101 -268.853982 
L 213.615912 -279.629666 
L 217.926724 -291.361347 
L 222.237536 -304.01903 
L 226.548347 -317.549382 
L 230.859159 -331.874134 
L 235.16997 -346.889135 
L 239.480782 -362.464186 
L 243.791594 -378.443743 
L 248.102405 -394.64856 
L 252.413217 -410.878305 
L 256.724029 -426.915134 
L 261.03484 -442.528148 
L 265.345652 -457.478653 
L 269.656464 -471.526039 
L 273.967275 -484.434111 
L 278.278087 -495.977625 
L 282.588899 -505.94879 
L 286.89971 -514.163468 
L 291.210522 -520.466828 
L 295.521333 -524.738195 
L 299.832145 -526.894888 
L 304.142957 -526.894888 
L 308.453768 -524.738195 
L 312.76458 -520.466828 
L 317.075392 -514.163468 
L 321.386203 -505.94879 
L 325.697015 -495.977625 
L 330.007827 -484.434111 
L 334.318638 -471.526039 
L 338.62945 -457.478653 
L 342.940262 -442.528148 
L 347.251073 -426.915134 
L 351.561885 -410.878305 
L 355.872696 -394.64856 
L 360.183508 -378.443743 
L 364.49432 -362.464186 
L 368.805131 -346.889135 
L 373.115943 -331.874134 
L 377.426755 -317.549382 
L 381.737566 -304.01903 
L 386.048378 -291.361347 
L 390.35919 -279.629666 
L 394.670001 -268.853982 
L 398.980813 -259.043075 
L 403.291625 -250.18701 
L 407.602436 -242.259873 
L 411.913248 -235.222625 
L 416.224059 -229.025937 
L 420.534871 -223.612925 
L 424.845683 -218.921682 
L 429.156494 -214.887568 
L 433.467306 -211.4452 
L 437.778118 -208.530128 
L 442.088929 -206.080193 
L 446.399741 -204.036568 
L 450.710553 -202.344512 
L 455.021364 -200.953862 
L 459.332176 -199.819291 
L 463.642988 -198.900374 
L 467.953799 -198.161503 
L 472.264611 -197.571673 
L 476.575422 -197.104193 
L 480.886234 -196.736322 
L 485.197046 -196.44889 
L 489.507857 -196.225897 
L 493.818669 -196.054114 
L 498.129481 -195.922709 
L 502.440292 -195.822895 
L 506.751104 -195.747605 
L 511.061916 -195.69121 
L 515.372727 -195.64926 
L 515.372727 -195.538011 
L 515.372727 -195.538011 
L 511.061916 -195.538011 
L 506.751104 -195.538011 
L 502.440292 -195.538011 
L 498.129481 -195.538011 
L 493.818669 -195.538011 
L 489.507857 -195.538011 
L 485.197046 -195.538011 
L 480.886234 -195.538011 
L 476.575422 -195.538011 
L 472.264611 -195.538011 
L 467.953799 -195.538011 
L 463.642988 -195.538011 
L 459.332176 -195.538011 
L 455.021364 -195.538011 
L 450.710553 -195.538011 
L 446.399741 -195.538011 
L 442.088929 -195.538011 
L 437.778118 -195.538011 
L 433.467306 -195.538011 
L 429.156494 -195.538011 
L 424.845683 -195.538011 
L 420.534871 -195.538011 
L 416.224059 -195.538011 
L 411.913248 -195.538011 
L 407.602436 -195.538011 
L 403.291625 -195.538011 
L 398.980813 -195.538011 
L 394.670001 -195.538011 
L 390.35919 -195.538011 
L 386.048378 -195.538011 
L 381.737566 -195.538011 
L 377.426755 -195.538011 
L 373.115943 -195.538011 
L 368.805131 -195.538011 
L 364.49432 -195.538011 
L 360.183508 -195.538011 
L 355.872696 -195.538011 
L 351.561885 -195.538011 
L 347.251073 -195.538011 
L 342.940262 -195.538011 
L 338.62945 -195.538011 
L 334.318638 -195.538011 
L 330.007827 -195.538011 
L 325.697015 -195.538011 
L 321.386203 -195.538011 
L 317.075392 -195.538011 
L 312.76458 -195.538011 
L 308.453768 -195.538011 
L 304.142957 -195.538011 
L 299.832145 -195.538011 
L 295.521333 -195.538011 
L 291.210522 -195.538011 
L 286.89971 -195.538011 
L 282.588899 -195.538011 
L 278.278087 -195.538011 
L 273.967275 -195.538011 
L 269.656464 -195.538011 
L 265.345652 -195.538011 
L 261.03484 -195.538011 
L 256.724029 -195.538011 
L 252.413217 -195.538011 
L 248.102405 -195.538011 
L 243.791594 -195.538011 
L 239.480782 -195.538011 
L 235.16997 -195.538011 
L 230.859159 -195.538011 
L 226.548347 -195.538011 
L 222.237536 -195.538011 
L 217.926724 -195.538011 
L 213.615912 -195.538011 
L 209.305101 -195.538011 
L 204.994289 -195.538011 
L 200.683477 -195.538011 
L 196.372666 -195.538011 
L 192.061854 -195.538011 
L 187.751042 -195.538011 
L 183.440231 -195.538011 
L 179.129419 -195.538011 
L 174.818607 -195.538011 
L 170.507796 -195.538011 
L 166.196984 -195.538011 
L 161.886172 -195.538011 
L 157.575361 -195.538011 
L 153.264549 -195.538011 
L 148.953738 -195.538011 
L 144.642926 -195.538011 
L 140.332114 -195.538011 
L 136.021303 -195.538011 
L 131.710491 -195.538011 
L 127.399679 -195.538011 
L 123.088868 -195.538011 
L 118.778056 -195.538011 
L 114.467244 -195.538011 
L 110.156433 -195.538011 
L 105.845621 -195.538011 
L 101.534809 -195.538011 
L 97.223998 -195.538011 
L 92.913186 -195.538011 
L 88.602375 -195.538011 
z
" id="mff126b1a43" style="stroke:#9966ff;stroke-opacity:0.5;"/>
    </defs>
    <g clip-path="url(#pbab367cbe4)">
     <use style="fill:#9966ff;fill-opacity:0.5;stroke:#9966ff;stroke-opacity:0.5;" x="0" xlink:href="#mff126b1a43" y="581.789375"/>
    </g>
   </g>
   <g id="line2d_1">
    <path clip-path="url(#pbab367cbe4)" d="M 79.179712 386.139892 
L 83.481885 386.097857 
L 87.784058 386.041349 
L 92.086231 385.965908 
L 96.388403 385.865894 
L 100.690576 385.734225 
L 104.992749 385.562097 
L 109.294922 385.338656 
L 113.597095 385.050647 
L 117.899267 384.682037 
L 122.20144 384.213618 
L 126.503613 383.622604 
L 130.805786 382.882249 
L 135.107958 381.961487 
L 139.410131 380.824637 
L 143.712304 379.431195 
L 148.014477 377.735742 
L 152.31665 375.688013 
L 156.618822 373.233158 
L 160.920995 370.312233 
L 165.223168 366.862953 
L 169.525341 362.820738 
L 173.827513 358.120075 
L 178.129686 352.696193 
L 182.431859 346.487062 
L 186.734032 339.435683 
L 191.036205 331.492628 
L 195.338377 322.61878 
L 199.64055 312.788173 
L 203.942723 301.990851 
L 208.244896 290.235612 
L 212.547068 277.552512 
L 216.849241 263.994991 
L 221.151414 249.641475 
L 225.453587 234.596323 
L 229.755759 218.989997 
L 234.057932 202.978353 
L 238.360105 186.740997 
L 242.662278 170.478661 
L 246.964451 154.40963 
L 251.266623 138.765264 
L 255.568796 123.784739 
L 259.870969 109.709146 
L 264.173142 96.775153 
L 268.475314 85.208459 
L 272.777487 75.217273 
L 277.07966 66.986099 
L 281.381833 60.670082 
L 285.684006 56.390138 
L 289.986178 54.229114 
L 294.288351 54.229114 
L 298.590524 56.390138 
L 302.892697 60.670082 
L 307.194869 66.986099 
L 311.497042 75.217273 
L 315.799215 85.208459 
L 320.101388 96.775153 
L 324.403561 109.709146 
L 328.705733 123.784739 
L 333.007906 138.765264 
L 337.310079 154.40963 
L 341.612252 170.478661 
L 345.914424 186.740997 
L 350.216597 202.978353 
L 354.51877 218.989997 
L 358.820943 234.596323 
L 363.123115 249.641475 
L 367.425288 263.994991 
L 371.727461 277.552512 
L 376.029634 290.235612 
L 380.331807 301.990851 
L 384.633979 312.788173 
L 388.936152 322.61878 
L 393.238325 331.492628 
L 397.540498 339.435683 
L 401.84267 346.487062 
L 406.144843 352.696193 
L 410.447016 358.120075 
L 414.749189 362.820738 
L 419.051362 366.862953 
L 423.353534 370.312233 
L 427.655707 373.233158 
L 431.95788 375.688013 
L 436.260053 377.735742 
L 440.562225 379.431195 
L 444.864398 380.824637 
L 449.166571 381.961487 
L 453.468744 382.882249 
L 457.770917 383.622604 
L 462.073089 384.213618 
L 466.375262 384.682037 
L 470.677435 385.050647 
L 474.979608 385.338656 
L 479.28178 385.562097 
L 483.583953 385.734225 
L 487.886126 385.865894 
L 492.188299 385.965908 
L 496.490472 386.041349 
L 500.792644 386.097857 
L 505.094817 386.139892 
" style="fill:none;stroke:#ff6384;stroke-linecap:square;"/>
   </g>
   <g id="line2d_2">
    <path clip-path="url(#pbab367cbe4)" d="M 76.463272 386.139594 
L 80.753991 386.097448 
L 85.044709 386.040788 
L 89.335428 385.965146 
L 93.626146 385.864865 
L 97.916864 385.732845 
L 102.207583 385.560257 
L 106.498301 385.336219 
L 110.78902 385.047442 
L 115.079738 384.677848 
L 119.370457 384.208178 
L 123.661175 383.615587 
L 127.951894 382.873255 
L 132.242612 381.950035 
L 136.533331 380.81015 
L 140.824049 379.412988 
L 145.114768 377.713009 
L 149.405486 375.659813 
L 153.696204 373.198405 
L 157.986923 370.269683 
L 162.277641 366.811194 
L 166.56836 362.758189 
L 170.859078 358.044977 
L 175.149797 352.606616 
L 179.440515 346.380909 
L 183.731234 339.310706 
L 188.021952 331.346447 
L 192.312671 322.448909 
L 196.603389 312.592059 
L 200.894108 301.765913 
L 205.184826 289.979293 
L 209.475544 277.262334 
L 213.766263 263.668621 
L 218.056981 249.276787 
L 222.3477 234.191471 
L 226.638418 218.543483 
L 230.929137 202.489095 
L 235.219855 186.208392 
L 239.510574 169.902644 
L 243.801292 153.790715 
L 248.092011 138.104586 
L 252.382729 123.08407 
L 256.673448 108.970901 
L 260.964166 96.002381 
L 265.254884 84.404809 
L 269.545603 74.38695 
L 273.836321 66.133803 
L 278.12704 59.800924 
L 282.417758 55.509555 
L 286.708477 53.342762 
L 290.999195 53.342762 
L 295.289914 55.509555 
L 299.580632 59.800924 
L 303.871351 66.133803 
L 308.162069 74.38695 
L 312.452788 84.404809 
L 316.743506 96.002381 
L 321.034224 108.970901 
L 325.324943 123.08407 
L 329.615661 138.104586 
L 333.90638 153.790715 
L 338.197098 169.902644 
L 342.487817 186.208392 
L 346.778535 202.489095 
L 351.069254 218.543483 
L 355.359972 234.191471 
L 359.650691 249.276787 
L 363.941409 263.668621 
L 368.232128 277.262334 
L 372.522846 289.979293 
L 376.813564 301.765913 
L 381.104283 312.592059 
L 385.395001 322.448909 
L 389.68572 331.346447 
L 393.976438 339.310706 
L 398.267157 346.380909 
L 402.557875 352.606616 
L 406.848594 358.044977 
L 411.139312 362.758189 
L 415.430031 366.811194 
L 419.720749 370.269683 
L 424.011468 373.198405 
L 428.302186 375.659813 
L 432.592904 377.713009 
L 436.883623 379.412988 
L 441.174341 380.81015 
L 445.46506 381.950035 
L 449.755778 382.873255 
L 454.046497 383.615587 
L 458.337215 384.208178 
L 462.627934 384.677848 
L 466.918652 385.047442 
L 471.209371 385.336219 
L 475.500089 385.560257 
L 479.790808 385.732845 
L 484.081526 385.864865 
L 488.372244 385.965146 
L 492.662963 386.040788 
L 496.953681 386.097448 
L 501.2444 386.139594 
" style="fill:none;stroke:#36a2eb;stroke-linecap:square;"/>
   </g>
   <g id="line2d_3">
    <path clip-path="url(#pbab367cbe4)" d="M 58.827273 386.139371 
L 63.109449 386.097141 
L 67.391624 386.040368 
L 71.6738 385.964575 
L 75.955976 385.864094 
L 80.238152 385.73181 
L 84.520328 385.558878 
L 88.802504 385.334393 
L 93.08468 385.04504 
L 97.366855 384.674709 
L 101.649031 384.204102 
L 105.931207 383.610328 
L 110.213383 382.866516 
L 114.495559 381.941454 
L 118.777735 380.799296 
L 123.059911 379.399346 
L 127.342087 377.695976 
L 131.624262 375.638684 
L 135.906438 373.172366 
L 140.188614 370.2378 
L 144.47079 366.772413 
L 148.752966 362.711322 
L 153.035142 357.988708 
L 157.317318 352.539497 
L 161.599493 346.301371 
L 165.881669 339.217063 
L 170.163845 331.236916 
L 174.446021 322.321628 
L 178.728197 312.445114 
L 183.010373 301.597371 
L 187.292549 289.787238 
L 191.574724 277.04491 
L 195.8569 263.424078 
L 200.139076 249.003534 
L 204.421252 233.888124 
L 208.703428 218.208919 
L 212.985604 202.122504 
L 217.26778 185.809323 
L 221.549956 169.471045 
L 225.832131 153.326975 
L 230.114307 137.609553 
L 234.396483 122.559072 
L 238.678659 108.417748 
L 242.960835 95.423357 
L 247.243011 83.802649 
L 251.525187 73.764805 
L 255.807362 65.495194 
L 260.089538 59.149682 
L 264.371714 54.849752 
L 268.65389 52.678636 
L 272.936066 52.678636 
L 277.218242 54.849752 
L 281.500418 59.149682 
L 285.782593 65.495194 
L 290.064769 73.764805 
L 294.346945 83.802649 
L 298.629121 95.423357 
L 302.911297 108.417748 
L 307.193473 122.559072 
L 311.475649 137.609553 
L 315.757824 153.326975 
L 320.04 169.471045 
L 324.322176 185.809323 
L 328.604352 202.122504 
L 332.886528 218.208919 
L 337.168704 233.888124 
L 341.45088 249.003534 
L 345.733056 263.424078 
L 350.015231 277.04491 
L 354.297407 289.787238 
L 358.579583 301.597371 
L 362.861759 312.445114 
L 367.143935 322.321628 
L 371.426111 331.236916 
L 375.708287 339.217063 
L 379.990462 346.301371 
L 384.272638 352.539497 
L 388.554814 357.988708 
L 392.83699 362.711322 
L 397.119166 366.772413 
L 401.401342 370.2378 
L 405.683518 373.172366 
L 409.965693 375.638684 
L 414.247869 377.695976 
L 418.530045 379.399346 
L 422.812221 380.799296 
L 427.094397 381.941454 
L 431.376573 382.866516 
L 435.658749 383.610328 
L 439.940925 384.204102 
L 444.2231 384.674709 
L 448.505276 385.04504 
L 452.787452 385.334393 
L 457.069628 385.558878 
L 461.351804 385.73181 
L 465.63398 385.864094 
L 469.916156 385.964575 
L 474.198331 386.040368 
L 478.480507 386.097141 
L 482.762683 386.139371 
" style="fill:none;stroke:#4bc0c0;stroke-linecap:square;"/>
   </g>
   <g id="line2d_4">
    <path clip-path="url(#pbab367cbe4)" d="M 88.602375 386.140115 
L 92.913186 386.098165 
L 97.223998 386.04177 
L 101.534809 385.96648 
L 105.845621 385.866666 
L 110.156433 385.735261 
L 114.467244 385.563478 
L 118.778056 385.340485 
L 123.088868 385.053053 
L 127.399679 384.685182 
L 131.710491 384.217702 
L 136.021303 383.627872 
L 140.332114 382.889001 
L 144.642926 381.970084 
L 148.953738 380.835513 
L 153.264549 379.444863 
L 157.575361 377.752807 
L 161.886172 375.709182 
L 166.196984 373.259247 
L 170.507796 370.344175 
L 174.818607 366.901807 
L 179.129419 362.867693 
L 183.440231 358.17645 
L 187.751042 352.763438 
L 192.061854 346.56675 
L 196.372666 339.529502 
L 200.683477 331.602365 
L 204.994289 322.7463 
L 209.305101 312.935393 
L 213.615912 302.159709 
L 217.926724 290.428028 
L 222.237536 277.770345 
L 226.548347 264.239993 
L 230.859159 249.915241 
L 235.16997 234.90024 
L 239.480782 219.325189 
L 243.791594 203.345632 
L 248.102405 187.140815 
L 252.413217 170.91107 
L 256.724029 154.874241 
L 261.03484 139.261227 
L 265.345652 124.310722 
L 269.656464 110.263336 
L 273.967275 97.355264 
L 278.278087 85.81175 
L 282.588899 75.840585 
L 286.89971 67.625907 
L 291.210522 61.322547 
L 295.521333 57.05118 
L 299.832145 54.894487 
L 304.142957 54.894487 
L 308.453768 57.05118 
L 312.76458 61.322547 
L 317.075392 67.625907 
L 321.386203 75.840585 
L 325.697015 85.81175 
L 330.007827 97.355264 
L 334.318638 110.263336 
L 338.62945 124.310722 
L 342.940262 139.261227 
L 347.251073 154.874241 
L 351.561885 170.91107 
L 355.872696 187.140815 
L 360.183508 203.345632 
L 364.49432 219.325189 
L 368.805131 234.90024 
L 373.115943 249.915241 
L 377.426755 264.239993 
L 381.737566 277.770345 
L 386.048378 290.428028 
L 390.35919 302.159709 
L 394.670001 312.935393 
L 398.980813 322.7463 
L 403.291625 331.602365 
L 407.602436 339.529502 
L 411.913248 346.56675 
L 416.224059 352.763438 
L 420.534871 358.17645 
L 424.845683 362.867693 
L 429.156494 366.901807 
L 433.467306 370.344175 
L 437.778118 373.259247 
L 442.088929 375.709182 
L 446.399741 377.752807 
L 450.710553 379.444863 
L 455.021364 380.835513 
L 459.332176 381.970084 
L 463.642988 382.889001 
L 467.953799 383.627872 
L 472.264611 384.217702 
L 476.575422 384.685182 
L 480.886234 385.053053 
L 485.197046 385.340485 
L 489.507857 385.563478 
L 493.818669 385.735261 
L 498.129481 385.866666 
L 502.440292 385.96648 
L 506.751104 386.04177 
L 511.061916 386.098165 
L 515.372727 386.140115 
" style="fill:none;stroke:#9966ff;stroke-linecap:square;"/>
   </g>
   <g id="patch_3">
    <path d="M 36 402.93 
L 538.2 402.93 
" style="fill:none;stroke:#000000;stroke-linecap:square;stroke-linejoin:miter;stroke-width:0.8;"/>
   </g>
   <g id="legend_1">
    <g id="patch_4">
     <path d="M 450.225313 129.3975 
L 528.4 129.3975 
Q 531.2 129.3975 531.2 126.5975 
L 531.2 45.8 
Q 531.2 43 528.4 43 
L 450.225313 43 
Q 447.425313 43 447.425313 45.8 
L 447.425313 126.5975 
Q 447.425313 129.3975 450.225313 129.3975 
z
" style="fill:#ffffff;opacity:0.8;stroke:#cccccc;stroke-linejoin:miter;"/>
    </g>
    <g id="patch_5">
     <path d="M 453.025313 59.237813 
L 481.025313 59.237813 
L 481.025313 49.437813 
L 453.025313 49.437813 
z
" style="fill:#ff6384;opacity:0.5;stroke:#ff6384;stroke-linejoin:miter;"/>
    </g>
    <g id="text_1">
     <!-- base -->
     <defs>
      <path d="M 48.6875 27.296875 
Q 48.6875 37.203125 44.609375 42.84375 
Q 40.53125 48.484375 33.40625 48.484375 
Q 26.265625 48.484375 22.1875 42.84375 
Q 18.109375 37.203125 18.109375 27.296875 
Q 18.109375 17.390625 22.1875 11.75 
Q 26.265625 6.109375 33.40625 6.109375 
Q 40.53125 6.109375 44.609375 11.75 
Q 48.6875 17.390625 48.6875 27.296875 
z
M 18.109375 46.390625 
Q 20.953125 51.265625 25.265625 53.625 
Q 29.59375 56 35.59375 56 
Q 45.5625 56 51.78125 48.09375 
Q 58.015625 40.1875 58.015625 27.296875 
Q 58.015625 14.40625 51.78125 6.484375 
Q 45.5625 -1.421875 35.59375 -1.421875 
Q 29.59375 -1.421875 25.265625 0.953125 
Q 20.953125 3.328125 18.109375 8.203125 
L 18.109375 0 
L 9.078125 0 
L 9.078125 75.984375 
L 18.109375 75.984375 
z
" id="DejaVuSans-98"/>
      <path d="M 34.28125 27.484375 
Q 23.390625 27.484375 19.1875 25 
Q 14.984375 22.515625 14.984375 16.5 
Q 14.984375 11.71875 18.140625 8.90625 
Q 21.296875 6.109375 26.703125 6.109375 
Q 34.1875 6.109375 38.703125 11.40625 
Q 43.21875 16.703125 43.21875 25.484375 
L 43.21875 27.484375 
z
M 52.203125 31.203125 
L 52.203125 0 
L 43.21875 0 
L 43.21875 8.296875 
Q 40.140625 3.328125 35.546875 0.953125 
Q 30.953125 -1.421875 24.3125 -1.421875 
Q 15.921875 -1.421875 10.953125 3.296875 
Q 6 8.015625 6 15.921875 
Q 6 25.140625 12.171875 29.828125 
Q 18.359375 34.515625 30.609375 34.515625 
L 43.21875 34.515625 
L 43.21875 35.40625 
Q 43.21875 41.609375 39.140625 45 
Q 35.0625 48.390625 27.6875 48.390625 
Q 23 48.390625 18.546875 47.265625 
Q 14.109375 46.140625 10.015625 43.890625 
L 10.015625 52.203125 
Q 14.9375 54.109375 19.578125 55.046875 
Q 24.21875 56 28.609375 56 
Q 40.484375 56 46.34375 49.84375 
Q 52.203125 43.703125 52.203125 31.203125 
z
" id="DejaVuSans-97"/>
      <path d="M 44.28125 53.078125 
L 44.28125 44.578125 
Q 40.484375 46.53125 36.375 47.5 
Q 32.28125 48.484375 27.875 48.484375 
Q 21.1875 48.484375 17.84375 46.4375 
Q 14.5 44.390625 14.5 40.28125 
Q 14.5 37.15625 16.890625 35.375 
Q 19.28125 33.59375 26.515625 31.984375 
L 29.59375 31.296875 
Q 39.15625 29.25 43.1875 25.515625 
Q 47.21875 21.78125 47.21875 15.09375 
Q 47.21875 7.46875 41.1875 3.015625 
Q 35.15625 -1.421875 24.609375 -1.421875 
Q 20.21875 -1.421875 15.453125 -0.5625 
Q 10.6875 0.296875 5.421875 2 
L 5.421875 11.28125 
Q 10.40625 8.6875 15.234375 7.390625 
Q 20.0625 6.109375 24.8125 6.109375 
Q 31.15625 6.109375 34.5625 8.28125 
Q 37.984375 10.453125 37.984375 14.40625 
Q 37.984375 18.0625 35.515625 20.015625 
Q 33.0625 21.96875 24.703125 23.78125 
L 21.578125 24.515625 
Q 13.234375 26.265625 9.515625 29.90625 
Q 5.8125 33.546875 5.8125 39.890625 
Q 5.8125 47.609375 11.28125 51.796875 
Q 16.75 56 26.8125 56 
Q 31.78125 56 36.171875 55.265625 
Q 40.578125 54.546875 44.28125 53.078125 
z
" id="DejaVuSans-115"/>
      <path d="M 56.203125 29.59375 
L 56.203125 25.203125 
L 14.890625 25.203125 
Q 15.484375 15.921875 20.484375 11.0625 
Q 25.484375 6.203125 34.421875 6.203125 
Q 39.59375 6.203125 44.453125 7.46875 
Q 49.3125 8.734375 54.109375 11.28125 
L 54.109375 2.78125 
Q 49.265625 0.734375 44.1875 -0.34375 
Q 39.109375 -1.421875 33.890625 -1.421875 
Q 20.796875 -1.421875 13.15625 6.1875 
Q 5.515625 13.8125 5.515625 26.8125 
Q 5.515625 40.234375 12.765625 48.109375 
Q 20.015625 56 32.328125 56 
Q 43.359375 56 49.78125 48.890625 
Q 56.203125 41.796875 56.203125 29.59375 
z
M 47.21875 32.234375 
Q 47.125 39.59375 43.09375 43.984375 
Q 39.0625 48.390625 32.421875 48.390625 
Q 24.90625 48.390625 20.390625 44.140625 
Q 15.875 39.890625 15.1875 32.171875 
z
" id="DejaVuSans-101"/>
     </defs>
     <g transform="translate(492.225313 59.237813)scale(0.14 -0.14)">
      <use xlink:href="#DejaVuSans-98"/>
      <use x="63.476562" xlink:href="#DejaVuSans-97"/>
      <use x="124.755859" xlink:href="#DejaVuSans-115"/>
      <use x="176.855469" xlink:href="#DejaVuSans-101"/>
     </g>
    </g>
    <g id="patch_6">
     <path d="M 453.025313 79.787188 
L 481.025313 79.787188 
L 481.025313 69.987188 
L 453.025313 69.987188 
z
" style="fill:#36a2eb;opacity:0.5;stroke:#36a2eb;stroke-linejoin:miter;"/>
    </g>
    <g id="text_2">
     <!-- fifth -->
     <defs>
      <path d="M 37.109375 75.984375 
L 37.109375 68.5 
L 28.515625 68.5 
Q 23.6875 68.5 21.796875 66.546875 
Q 19.921875 64.59375 19.921875 59.515625 
L 19.921875 54.6875 
L 34.71875 54.6875 
L 34.71875 47.703125 
L 19.921875 47.703125 
L 19.921875 0 
L 10.890625 0 
L 10.890625 47.703125 
L 2.296875 47.703125 
L 2.296875 54.6875 
L 10.890625 54.6875 
L 10.890625 58.5 
Q 10.890625 67.625 15.140625 71.796875 
Q 19.390625 75.984375 28.609375 75.984375 
z
" id="DejaVuSans-102"/>
      <path d="M 9.421875 54.6875 
L 18.40625 54.6875 
L 18.40625 0 
L 9.421875 0 
z
M 9.421875 75.984375 
L 18.40625 75.984375 
L 18.40625 64.59375 
L 9.421875 64.59375 
z
" id="DejaVuSans-105"/>
      <path d="M 18.3125 70.21875 
L 18.3125 54.6875 
L 36.8125 54.6875 
L 36.8125 47.703125 
L 18.3125 47.703125 
L 18.3125 18.015625 
Q 18.3125 11.328125 20.140625 9.421875 
Q 21.96875 7.515625 27.59375 7.515625 
L 36.8125 7.515625 
L 36.8125 0 
L 27.59375 0 
Q 17.1875 0 13.234375 3.875 
Q 9.28125 7.765625 9.28125 18.015625 
L 9.28125 47.703125 
L 2.6875 47.703125 
L 2.6875 54.6875 
L 9.28125 54.6875 
L 9.28125 70.21875 
z
" id="DejaVuSans-116"/>
      <path d="M 54.890625 33.015625 
L 54.890625 0 
L 45.90625 0 
L 45.90625 32.71875 
Q 45.90625 40.484375 42.875 44.328125 
Q 39.84375 48.1875 33.796875 48.1875 
Q 26.515625 48.1875 22.3125 43.546875 
Q 18.109375 38.921875 18.109375 30.90625 
L 18.109375 0 
L 9.078125 0 
L 9.078125 75.984375 
L 18.109375 75.984375 
L 18.109375 46.1875 
Q 21.34375 51.125 25.703125 53.5625 
Q 30.078125 56 35.796875 56 
Q 45.21875 56 50.046875 50.171875 
Q 54.890625 44.34375 54.890625 33.015625 
z
" id="DejaVuSans-104"/>
     </defs>
     <g transform="translate(492.225313 79.787188)scale(0.14 -0.14)">
      <use xlink:href="#DejaVuSans-102"/>
      <use x="35.205078" xlink:href="#DejaVuSans-105"/>
      <use x="62.988281" xlink:href="#DejaVuSans-102"/>
      <use x="98.177734" xlink:href="#DejaVuSans-116"/>
      <use x="137.386719" xlink:href="#DejaVuSans-104"/>
     </g>
    </g>
    <g id="patch_7">
     <path d="M 453.025313 100.336563 
L 481.025313 100.336563 
L 481.025313 90.536563 
L 453.025313 90.536563 
z
" style="fill:#4bc0c0;opacity:0.5;stroke:#4bc0c0;stroke-linejoin:miter;"/>
    </g>
    <g id="text_3">
     <!-- mid -->
     <defs>
      <path d="M 52 44.1875 
Q 55.375 50.25 60.0625 53.125 
Q 64.75 56 71.09375 56 
Q 79.640625 56 84.28125 50.015625 
Q 88.921875 44.046875 88.921875 33.015625 
L 88.921875 0 
L 79.890625 0 
L 79.890625 32.71875 
Q 79.890625 40.578125 77.09375 44.375 
Q 74.3125 48.1875 68.609375 48.1875 
Q 61.625 48.1875 57.5625 43.546875 
Q 53.515625 38.921875 53.515625 30.90625 
L 53.515625 0 
L 44.484375 0 
L 44.484375 32.71875 
Q 44.484375 40.625 41.703125 44.40625 
Q 38.921875 48.1875 33.109375 48.1875 
Q 26.21875 48.1875 22.15625 43.53125 
Q 18.109375 38.875 18.109375 30.90625 
L 18.109375 0 
L 9.078125 0 
L 9.078125 54.6875 
L 18.109375 54.6875 
L 18.109375 46.1875 
Q 21.1875 51.21875 25.484375 53.609375 
Q 29.78125 56 35.6875 56 
Q 41.65625 56 45.828125 52.96875 
Q 50 49.953125 52 44.1875 
z
" id="DejaVuSans-109"/>
      <path d="M 45.40625 46.390625 
L 45.40625 75.984375 
L 54.390625 75.984375 
L 54.390625 0 
L 45.40625 0 
L 45.40625 8.203125 
Q 42.578125 3.328125 38.25 0.953125 
Q 33.9375 -1.421875 27.875 -1.421875 
Q 17.96875 -1.421875 11.734375 6.484375 
Q 5.515625 14.40625 5.515625 27.296875 
Q 5.515625 40.1875 11.734375 48.09375 
Q 17.96875 56 27.875 56 
Q 33.9375 56 38.25 53.625 
Q 42.578125 51.265625 45.40625 46.390625 
z
M 14.796875 27.296875 
Q 14.796875 17.390625 18.875 11.75 
Q 22.953125 6.109375 30.078125 6.109375 
Q 37.203125 6.109375 41.296875 11.75 
Q 45.40625 17.390625 45.40625 27.296875 
Q 45.40625 37.203125 41.296875 42.84375 
Q 37.203125 48.484375 30.078125 48.484375 
Q 22.953125 48.484375 18.875 42.84375 
Q 14.796875 37.203125 14.796875 27.296875 
z
" id="DejaVuSans-100"/>
     </defs>
     <g transform="translate(492.225313 100.336563)scale(0.14 -0.14)">
      <use xlink:href="#DejaVuSans-109"/>
      <use x="97.412109" xlink:href="#DejaVuSans-105"/>
      <use x="125.195312" xlink:href="#DejaVuSans-100"/>
     </g>
    </g>
    <g id="patch_8">
     <path d="M 453.025313 120.885938 
L 481.025313 120.885938 
L 481.025313 111.085938 
L 453.025313 111.085938 
z
" style="fill:#9966ff;opacity:0.5;stroke:#9966ff;stroke-linejoin:miter;"/>
    </g>
    <g id="text_4">
     <!-- right -->
     <defs>
      <path d="M 41.109375 46.296875 
Q 39.59375 47.171875 37.8125 47.578125 
Q 36.03125 48 33.890625 48 
Q 26.265625 48 22.1875 43.046875 
Q 18.109375 38.09375 18.109375 28.8125 
L 18.109375 0 
L 9.078125 0 
L 9.078125 54.6875 
L 18.109375 54.6875 
L 18.109375 46.1875 
Q 20.953125 51.171875 25.484375 53.578125 
Q 30.03125 56 36.53125 56 
Q 37.453125 56 38.578125 55.875 
Q 39.703125 55.765625 41.0625 55.515625 
z
" id="DejaVuSans-114"/>
      <path d="M 45.40625 27.984375 
Q 45.40625 37.75 41.375 43.109375 
Q 37.359375 48.484375 30.078125 48.484375 
Q 22.859375 48.484375 18.828125 43.109375 
Q 14.796875 37.75 14.796875 27.984375 
Q 14.796875 18.265625 18.828125 12.890625 
Q 22.859375 7.515625 30.078125 7.515625 
Q 37.359375 7.515625 41.375 12.890625 
Q 45.40625 18.265625 45.40625 27.984375 
z
M 54.390625 6.78125 
Q 54.390625 -7.171875 48.1875 -13.984375 
Q 42 -20.796875 29.203125 -20.796875 
Q 24.46875 -20.796875 20.265625 -20.09375 
Q 16.0625 -19.390625 12.109375 -17.921875 
L 12.109375 -9.1875 
Q 16.0625 -11.328125 19.921875 -12.34375 
Q 23.78125 -13.375 27.78125 -13.375 
Q 36.625 -13.375 41.015625 -8.765625 
Q 45.40625 -4.15625 45.40625 5.171875 
L 45.40625 9.625 
Q 42.625 4.78125 38.28125 2.390625 
Q 33.9375 0 27.875 0 
Q 17.828125 0 11.671875 7.65625 
Q 5.515625 15.328125 5.515625 27.984375 
Q 5.515625 40.671875 11.671875 48.328125 
Q 17.828125 56 27.875 56 
Q 33.9375 56 38.28125 53.609375 
Q 42.625 51.21875 45.40625 46.390625 
L 45.40625 54.6875 
L 54.390625 54.6875 
z
" id="DejaVuSans-103"/>
     </defs>
     <g transform="translate(492.225313 120.885938)scale(0.14 -0.14)">
      <use xlink:href="#DejaVuSans-114"/>
      <use x="41.113281" xlink:href="#DejaVuSans-105"/>
      <use x="68.896484" xlink:href="#DejaVuSans-103"/>
      <use x="132.373047" xlink:href="#DejaVuSans-104"/>
      <use x="195.751953" xlink:href="#DejaVuSans-116"/>
     </g>
    </g>
   </g>
  </g>
  <g id="axes_2">
   <g id="patch_9">
    <path d="M 36 525.24 
L 538.2 525.24 
L 538.2 402.93 
L 36 402.93 
z
" style="fill:none;"/>
   </g>
   <g id="patch_10">
    <path clip-path="url(#p0cc64f12d8)" d="M 187.788064 519.680455 
L 396.486465 519.680455 
L 396.486465 503.796039 
L 187.788064 503.796039 
z
" style="fill:#ff6384;opacity:0.5;"/>
   </g>
   <g id="patch_11">
    <path clip-path="url(#p0cc64f12d8)" d="M 184.78246 487.911623 
L 392.925212 487.911623 
L 392.925212 472.027208 
L 184.78246 472.027208 
z
" style="fill:#36a2eb;opacity:0.5;"/>
   </g>
   <g id="patch_12">
    <path clip-path="url(#p0cc64f12d8)" d="M 166.930802 456.142792 
L 374.659153 456.142792 
L 374.659153 440.258377 
L 166.930802 440.258377 
z
" style="fill:#4bc0c0;opacity:0.5;"/>
   </g>
   <g id="patch_13">
    <path clip-path="url(#p0cc64f12d8)" d="M 197.428814 424.373961 
L 406.546287 424.373961 
L 406.546287 408.489545 
L 197.428814 408.489545 
z
" style="fill:#9966ff;opacity:0.5;"/>
   </g>
   <g id="matplotlib.axis_1">
    <g id="xtick_1">
     <g id="line2d_5">
      <defs>
       <path d="M 0 0 
L 0 3.5 
" id="mb50fa05580" style="stroke:#000000;stroke-width:0.8;"/>
      </defs>
      <g>
       <use style="stroke:#000000;stroke-width:0.8;" x="80.356111" xlink:href="#mb50fa05580" y="525.24"/>
      </g>
     </g>
     <g id="text_5">
      <!-- 6.0 -->
      <defs>
       <path d="M 33.015625 40.375 
Q 26.375 40.375 22.484375 35.828125 
Q 18.609375 31.296875 18.609375 23.390625 
Q 18.609375 15.53125 22.484375 10.953125 
Q 26.375 6.390625 33.015625 6.390625 
Q 39.65625 6.390625 43.53125 10.953125 
Q 47.40625 15.53125 47.40625 23.390625 
Q 47.40625 31.296875 43.53125 35.828125 
Q 39.65625 40.375 33.015625 40.375 
z
M 52.59375 71.296875 
L 52.59375 62.3125 
Q 48.875 64.0625 45.09375 64.984375 
Q 41.3125 65.921875 37.59375 65.921875 
Q 27.828125 65.921875 22.671875 59.328125 
Q 17.53125 52.734375 16.796875 39.40625 
Q 19.671875 43.65625 24.015625 45.921875 
Q 28.375 48.1875 33.59375 48.1875 
Q 44.578125 48.1875 50.953125 41.515625 
Q 57.328125 34.859375 57.328125 23.390625 
Q 57.328125 12.15625 50.6875 5.359375 
Q 44.046875 -1.421875 33.015625 -1.421875 
Q 20.359375 -1.421875 13.671875 8.265625 
Q 6.984375 17.96875 6.984375 36.375 
Q 6.984375 53.65625 15.1875 63.9375 
Q 23.390625 74.21875 37.203125 74.21875 
Q 40.921875 74.21875 44.703125 73.484375 
Q 48.484375 72.75 52.59375 71.296875 
z
" id="DejaVuSans-54"/>
       <path d="M 10.6875 12.40625 
L 21 12.40625 
L 21 0 
L 10.6875 0 
z
" id="DejaVuSans-46"/>
       <path d="M 31.78125 66.40625 
Q 24.171875 66.40625 20.328125 58.90625 
Q 16.5 51.421875 16.5 36.375 
Q 16.5 21.390625 20.328125 13.890625 
Q 24.171875 6.390625 31.78125 6.390625 
Q 39.453125 6.390625 43.28125 13.890625 
Q 47.125 21.390625 47.125 36.375 
Q 47.125 51.421875 43.28125 58.90625 
Q 39.453125 66.40625 31.78125 66.40625 
z
M 31.78125 74.21875 
Q 44.046875 74.21875 50.515625 64.515625 
Q 56.984375 54.828125 56.984375 36.375 
Q 56.984375 17.96875 50.515625 8.265625 
Q 44.046875 -1.421875 31.78125 -1.421875 
Q 19.53125 -1.421875 13.0625 8.265625 
Q 6.59375 17.96875 6.59375 36.375 
Q 6.59375 54.828125 13.0625 64.515625 
Q 19.53125 74.21875 31.78125 74.21875 
z
" id="DejaVuSans-48"/>
      </defs>
      <g transform="translate(69.223924 542.877813)scale(0.14 -0.14)">
       <use xlink:href="#DejaVuSans-54"/>
       <use x="63.623047" xlink:href="#DejaVuSans-46"/>
       <use x="95.410156" xlink:href="#DejaVuSans-48"/>
      </g>
     </g>
    </g>
    <g id="xtick_2">
     <g id="line2d_6">
      <g>
       <use style="stroke:#000000;stroke-width:0.8;" x="162.44183" xlink:href="#mb50fa05580" y="525.24"/>
      </g>
     </g>
     <g id="text_6">
      <!-- 6.5 -->
      <defs>
       <path d="M 10.796875 72.90625 
L 49.515625 72.90625 
L 49.515625 64.59375 
L 19.828125 64.59375 
L 19.828125 46.734375 
Q 21.96875 47.46875 24.109375 47.828125 
Q 26.265625 48.1875 28.421875 48.1875 
Q 40.625 48.1875 47.75 41.5 
Q 54.890625 34.8125 54.890625 23.390625 
Q 54.890625 11.625 47.5625 5.09375 
Q 40.234375 -1.421875 26.90625 -1.421875 
Q 22.3125 -1.421875 17.546875 -0.640625 
Q 12.796875 0.140625 7.71875 1.703125 
L 7.71875 11.625 
Q 12.109375 9.234375 16.796875 8.0625 
Q 21.484375 6.890625 26.703125 6.890625 
Q 35.15625 6.890625 40.078125 11.328125 
Q 45.015625 15.765625 45.015625 23.390625 
Q 45.015625 31 40.078125 35.4375 
Q 35.15625 39.890625 26.703125 39.890625 
Q 22.75 39.890625 18.8125 39.015625 
Q 14.890625 38.140625 10.796875 36.28125 
z
" id="DejaVuSans-53"/>
      </defs>
      <g transform="translate(151.309642 542.877813)scale(0.14 -0.14)">
       <use xlink:href="#DejaVuSans-54"/>
       <use x="63.623047" xlink:href="#DejaVuSans-46"/>
       <use x="95.410156" xlink:href="#DejaVuSans-53"/>
      </g>
     </g>
    </g>
    <g id="xtick_3">
     <g id="line2d_7">
      <g>
       <use style="stroke:#000000;stroke-width:0.8;" x="244.527548" xlink:href="#mb50fa05580" y="525.24"/>
      </g>
     </g>
     <g id="text_7">
      <!-- 7.0 -->
      <defs>
       <path d="M 8.203125 72.90625 
L 55.078125 72.90625 
L 55.078125 68.703125 
L 28.609375 0 
L 18.3125 0 
L 43.21875 64.59375 
L 8.203125 64.59375 
z
" id="DejaVuSans-55"/>
      </defs>
      <g transform="translate(233.395361 542.877813)scale(0.14 -0.14)">
       <use xlink:href="#DejaVuSans-55"/>
       <use x="63.623047" xlink:href="#DejaVuSans-46"/>
       <use x="95.410156" xlink:href="#DejaVuSans-48"/>
      </g>
     </g>
    </g>
    <g id="xtick_4">
     <g id="line2d_8">
      <g>
       <use style="stroke:#000000;stroke-width:0.8;" x="326.613266" xlink:href="#mb50fa05580" y="525.24"/>
      </g>
     </g>
     <g id="text_8">
      <!-- 7.5 -->
      <g transform="translate(315.481079 542.877813)scale(0.14 -0.14)">
       <use xlink:href="#DejaVuSans-55"/>
       <use x="63.623047" xlink:href="#DejaVuSans-46"/>
       <use x="95.410156" xlink:href="#DejaVuSans-53"/>
      </g>
     </g>
    </g>
    <g id="xtick_5">
     <g id="line2d_9">
      <g>
       <use style="stroke:#000000;stroke-width:0.8;" x="408.698985" xlink:href="#mb50fa05580" y="525.24"/>
      </g>
     </g>
     <g id="text_9">
      <!-- 8.0 -->
      <defs>
       <path d="M 31.78125 34.625 
Q 24.75 34.625 20.71875 30.859375 
Q 16.703125 27.09375 16.703125 20.515625 
Q 16.703125 13.921875 20.71875 10.15625 
Q 24.75 6.390625 31.78125 6.390625 
Q 38.8125 6.390625 42.859375 10.171875 
Q 46.921875 13.96875 46.921875 20.515625 
Q 46.921875 27.09375 42.890625 30.859375 
Q 38.875 34.625 31.78125 34.625 
z
M 21.921875 38.8125 
Q 15.578125 40.375 12.03125 44.71875 
Q 8.5 49.078125 8.5 55.328125 
Q 8.5 64.0625 14.71875 69.140625 
Q 20.953125 74.21875 31.78125 74.21875 
Q 42.671875 74.21875 48.875 69.140625 
Q 55.078125 64.0625 55.078125 55.328125 
Q 55.078125 49.078125 51.53125 44.71875 
Q 48 40.375 41.703125 38.8125 
Q 48.828125 37.15625 52.796875 32.3125 
Q 56.78125 27.484375 56.78125 20.515625 
Q 56.78125 9.90625 50.3125 4.234375 
Q 43.84375 -1.421875 31.78125 -1.421875 
Q 19.734375 -1.421875 13.25 4.234375 
Q 6.78125 9.90625 6.78125 20.515625 
Q 6.78125 27.484375 10.78125 32.3125 
Q 14.796875 37.15625 21.921875 38.8125 
z
M 18.3125 54.390625 
Q 18.3125 48.734375 21.84375 45.5625 
Q 25.390625 42.390625 31.78125 42.390625 
Q 38.140625 42.390625 41.71875 45.5625 
Q 45.3125 48.734375 45.3125 54.390625 
Q 45.3125 60.0625 41.71875 63.234375 
Q 38.140625 66.40625 31.78125 66.40625 
Q 25.390625 66.40625 21.84375 63.234375 
Q 18.3125 60.0625 18.3125 54.390625 
z
" id="DejaVuSans-56"/>
      </defs>
      <g transform="translate(397.566797 542.877813)scale(0.14 -0.14)">
       <use xlink:href="#DejaVuSans-56"/>
       <use x="63.623047" xlink:href="#DejaVuSans-46"/>
       <use x="95.410156" xlink:href="#DejaVuSans-48"/>
      </g>
     </g>
    </g>
    <g id="xtick_6">
     <g id="line2d_10">
      <g>
       <use style="stroke:#000000;stroke-width:0.8;" x="490.784703" xlink:href="#mb50fa05580" y="525.24"/>
      </g>
     </g>
     <g id="text_10">
      <!-- 8.5 -->
      <g transform="translate(479.652516 542.877813)scale(0.14 -0.14)">
       <use xlink:href="#DejaVuSans-56"/>
       <use x="63.623047" xlink:href="#DejaVuSans-46"/>
       <use x="95.410156" xlink:href="#DejaVuSans-53"/>
      </g>
     </g>
    </g>
   </g>
   <g id="line2d_11">
    <path clip-path="url(#p0cc64f12d8)" d="M 292.137265 525.24 
L 292.137265 402.93 
" style="fill:none;stroke:#ff6384;stroke-dasharray:5.55,2.4;stroke-dashoffset:0;stroke-opacity:0.8;stroke-width:1.5;"/>
   </g>
   <g id="line2d_12">
    <path clip-path="url(#p0cc64f12d8)" d="M 288.853836 525.24 
L 288.853836 402.93 
" style="fill:none;stroke:#36a2eb;stroke-dasharray:5.55,2.4;stroke-dashoffset:0;stroke-opacity:0.8;stroke-width:1.5;"/>
   </g>
   <g id="line2d_13">
    <path clip-path="url(#p0cc64f12d8)" d="M 270.794978 525.24 
L 270.794978 402.93 
" style="fill:none;stroke:#4bc0c0;stroke-dasharray:5.55,2.4;stroke-dashoffset:0;stroke-opacity:0.8;stroke-width:1.5;"/>
   </g>
   <g id="line2d_14">
    <path clip-path="url(#p0cc64f12d8)" d="M 301.987551 525.24 
L 301.987551 402.93 
" style="fill:none;stroke:#9966ff;stroke-dasharray:5.55,2.4;stroke-dashoffset:0;stroke-opacity:0.8;stroke-width:1.5;"/>
   </g>
   <g id="patch_14">
    <path d="M 36 525.24 
L 538.2 525.24 
" style="fill:none;stroke:#000000;stroke-linecap:square;stroke-linejoin:miter;stroke-width:0.8;"/>
   </g>
  </g>
 </g>
 <defs>
  <clipPath id="pbab367cbe4">
   <rect height="366.93" width="502.2" x="36" y="36"/>
  </clipPath>
  <clipPath id="p0cc64f12d8">
   <rect height="122.31" width="502.2" x="36" y="402.93"/>
  </clipPath>
 </defs>
</svg>
