<?xml version="1.0" encoding="utf-8" standalone="no"?>
<!DOCTYPE svg PUBLIC "-//W3C//DTD SVG 1.1//EN"
  "http://www.w3.org/Graphics/SVG/1.1/DTD/svg11.dtd">
<!-- Created with matplotlib (https://matplotlib.org/) -->
<svg height="581.789375pt" version="1.1" viewBox="0 0 574.2 581.789375" width="574.2pt" xmlns="http://www.w3.org/2000/svg" xmlns:xlink="http://www.w3.org/1999/xlink">
 <defs>
  <style type="text/css">
*{stroke-linecap:butt;stroke-linejoin:round;}
  </style>
 </defs>
 <g id="figure_1">
  <g id="patch_1">
   <path d="M 0 581.789375 
L 574.2 581.789375 
L 574.2 0 
L 0 0 
z
" style="fill:none;"/>
  </g>
  <g id="axes_1">
   <g id="patch_2">
    <path d="M 36 402.93 
L 538.2 402.93 
L 538.2 36 
L 36 36 
z
" style="fill:none;"/>
   </g>
   <g id="PolyCollection_1">
    <defs>
     <path d="M 72.808899 -195.538011 
L 72.808899 -195.649603 
L 77.141359 -195.691682 
L 81.473819 -195.748251 
L 85.806279 -195.823772 
L 90.138739 -195.923894 
L 94.471199 -196.055704 
L 98.803659 -196.228016 
L 103.136119 -196.451697 
L 107.468579 -196.740014 
L 111.801039 -197.109018 
L 116.133499 -197.57794 
L 120.465959 -198.169586 
L 124.798419 -198.910734 
L 129.130879 -199.832483 
L 133.463339 -200.97055 
L 137.795799 -202.365484 
L 142.128259 -204.062753 
L 146.460718 -206.112676 
L 150.793178 -208.57016 
L 155.125638 -211.494213 
L 159.458098 -214.947187 
L 163.790558 -218.993731 
L 168.123018 -223.699429 
L 172.455478 -229.12912 
L 176.787938 -235.344901 
L 181.120398 -242.403832 
L 185.452858 -250.355394 
L 189.785318 -259.238746 
L 194.117778 -269.079882 
L 198.450238 -279.888768 
L 202.782698 -291.656597 
L 207.115158 -304.353281 
L 211.447618 -317.925322 
L 215.780078 -332.294211 
L 220.112538 -347.355476 
L 224.444998 -362.978517 
L 228.777458 -379.00731 
L 233.109918 -395.262056 
L 237.442378 -411.541809 
L 241.774838 -427.62805 
L 246.107298 -443.289171 
L 250.439758 -458.285741 
L 254.772218 -472.376409 
L 259.104678 -485.324254 
L 263.437138 -496.903336 
L 267.769598 -506.905223 
L 272.102058 -515.145212 
L 276.434518 -521.467995 
L 280.766978 -525.752522 
L 285.099438 -527.91586 
L 289.431898 -527.91586 
L 293.764358 -525.752522 
L 298.096818 -521.467995 
L 302.429278 -515.145212 
L 306.761738 -506.905223 
L 311.094198 -496.903336 
L 315.426658 -485.324254 
L 319.759118 -472.376409 
L 324.091578 -458.285741 
L 328.424038 -443.289171 
L 332.756498 -427.62805 
L 337.088958 -411.541809 
L 341.421418 -395.262056 
L 345.753877 -379.00731 
L 350.086337 -362.978517 
L 354.418797 -347.355476 
L 358.751257 -332.294211 
L 363.083717 -317.925322 
L 367.416177 -304.353281 
L 371.748637 -291.656597 
L 376.081097 -279.888768 
L 380.413557 -269.079882 
L 384.746017 -259.238746 
L 389.078477 -250.355394 
L 393.410937 -242.403832 
L 397.743397 -235.344901 
L 402.075857 -229.12912 
L 406.408317 -223.699429 
L 410.740777 -218.993731 
L 415.073237 -214.947187 
L 419.405697 -211.494213 
L 423.738157 -208.57016 
L 428.070617 -206.112676 
L 432.403077 -204.062753 
L 436.735537 -202.365484 
L 441.067997 -200.97055 
L 445.400457 -199.832483 
L 449.732917 -198.910734 
L 454.065377 -198.169586 
L 458.397837 -197.57794 
L 462.730297 -197.109018 
L 467.062757 -196.740014 
L 471.395217 -196.451697 
L 475.727677 -196.228016 
L 480.060137 -196.055704 
L 484.392597 -195.923894 
L 488.725057 -195.823772 
L 493.057517 -195.748251 
L 497.389977 -195.691682 
L 501.722437 -195.649603 
L 501.722437 -195.538011 
L 501.722437 -195.538011 
L 497.389977 -195.538011 
L 493.057517 -195.538011 
L 488.725057 -195.538011 
L 484.392597 -195.538011 
L 480.060137 -195.538011 
L 475.727677 -195.538011 
L 471.395217 -195.538011 
L 467.062757 -195.538011 
L 462.730297 -195.538011 
L 458.397837 -195.538011 
L 454.065377 -195.538011 
L 449.732917 -195.538011 
L 445.400457 -195.538011 
L 441.067997 -195.538011 
L 436.735537 -195.538011 
L 432.403077 -195.538011 
L 428.070617 -195.538011 
L 423.738157 -195.538011 
L 419.405697 -195.538011 
L 415.073237 -195.538011 
L 410.740777 -195.538011 
L 406.408317 -195.538011 
L 402.075857 -195.538011 
L 397.743397 -195.538011 
L 393.410937 -195.538011 
L 389.078477 -195.538011 
L 384.746017 -195.538011 
L 380.413557 -195.538011 
L 376.081097 -195.538011 
L 371.748637 -195.538011 
L 367.416177 -195.538011 
L 363.083717 -195.538011 
L 358.751257 -195.538011 
L 354.418797 -195.538011 
L 350.086337 -195.538011 
L 345.753877 -195.538011 
L 341.421418 -195.538011 
L 337.088958 -195.538011 
L 332.756498 -195.538011 
L 328.424038 -195.538011 
L 324.091578 -195.538011 
L 319.759118 -195.538011 
L 315.426658 -195.538011 
L 311.094198 -195.538011 
L 306.761738 -195.538011 
L 302.429278 -195.538011 
L 298.096818 -195.538011 
L 293.764358 -195.538011 
L 289.431898 -195.538011 
L 285.099438 -195.538011 
L 280.766978 -195.538011 
L 276.434518 -195.538011 
L 272.102058 -195.538011 
L 267.769598 -195.538011 
L 263.437138 -195.538011 
L 259.104678 -195.538011 
L 254.772218 -195.538011 
L 250.439758 -195.538011 
L 246.107298 -195.538011 
L 241.774838 -195.538011 
L 237.442378 -195.538011 
L 233.109918 -195.538011 
L 228.777458 -195.538011 
L 224.444998 -195.538011 
L 220.112538 -195.538011 
L 215.780078 -195.538011 
L 211.447618 -195.538011 
L 207.115158 -195.538011 
L 202.782698 -195.538011 
L 198.450238 -195.538011 
L 194.117778 -195.538011 
L 189.785318 -195.538011 
L 185.452858 -195.538011 
L 181.120398 -195.538011 
L 176.787938 -195.538011 
L 172.455478 -195.538011 
L 168.123018 -195.538011 
L 163.790558 -195.538011 
L 159.458098 -195.538011 
L 155.125638 -195.538011 
L 150.793178 -195.538011 
L 146.460718 -195.538011 
L 142.128259 -195.538011 
L 137.795799 -195.538011 
L 133.463339 -195.538011 
L 129.130879 -195.538011 
L 124.798419 -195.538011 
L 120.465959 -195.538011 
L 116.133499 -195.538011 
L 111.801039 -195.538011 
L 107.468579 -195.538011 
L 103.136119 -195.538011 
L 98.803659 -195.538011 
L 94.471199 -195.538011 
L 90.138739 -195.538011 
L 85.806279 -195.538011 
L 81.473819 -195.538011 
L 77.141359 -195.538011 
L 72.808899 -195.538011 
z
" id="me977b5cf95" style="stroke:#ff6384;stroke-opacity:0.5;"/>
    </defs>
    <g clip-path="url(#pf70993f828)">
     <use style="fill:#ff6384;fill-opacity:0.5;stroke:#ff6384;stroke-opacity:0.5;" x="0" xlink:href="#me977b5cf95" y="581.789375"/>
    </g>
   </g>
   <g id="PolyCollection_2">
    <defs>
     <path d="M 68.505919 -195.538011 
L 68.505919 -195.649923 
L 72.825982 -195.692123 
L 77.146045 -195.748854 
L 81.466109 -195.824592 
L 85.786172 -195.925001 
L 90.106236 -196.057189 
L 94.426299 -196.229996 
L 98.746363 -196.454319 
L 103.066426 -196.743463 
L 107.38649 -197.113526 
L 111.706553 -197.583793 
L 116.026617 -198.177138 
L 120.34668 -198.920412 
L 124.666744 -199.844806 
L 128.986807 -200.986138 
L 133.30687 -202.385076 
L 137.626934 -204.087215 
L 141.946997 -206.14302 
L 146.267061 -208.607556 
L 150.587124 -211.54 
L 154.907188 -215.002882 
L 159.227251 -219.061038 
L 163.547315 -223.780239 
L 167.867378 -229.22551 
L 172.187442 -235.459127 
L 176.507505 -242.538315 
L 180.827569 -250.512694 
L 185.147632 -259.421537 
L 189.467695 -269.290912 
L 193.787759 -280.130814 
L 198.107822 -291.932411 
L 202.427886 -304.665529 
L 206.747949 -318.276515 
L 211.068013 -332.686636 
L 215.388076 -347.79112 
L 219.70814 -363.458991 
L 224.028203 -379.533779 
L 228.348267 -395.835169 
L 232.66833 -412.161637 
L 236.988394 -428.294038 
L 241.308457 -444.000098 
L 245.62852 -459.039701 
L 249.948584 -473.170803 
L 254.268647 -486.155802 
L 258.588711 -497.76811 
L 262.908774 -507.798698 
L 267.228838 -516.062332 
L 271.548901 -522.403258 
L 275.868965 -526.70008 
L 280.189028 -528.869626 
L 284.509092 -528.869626 
L 288.829155 -526.70008 
L 293.149219 -522.403258 
L 297.469282 -516.062332 
L 301.789345 -507.798698 
L 306.109409 -497.76811 
L 310.429472 -486.155802 
L 314.749536 -473.170803 
L 319.069599 -459.039701 
L 323.389663 -444.000098 
L 327.709726 -428.294038 
L 332.02979 -412.161637 
L 336.349853 -395.835169 
L 340.669917 -379.533779 
L 344.98998 -363.458991 
L 349.310044 -347.79112 
L 353.630107 -332.686636 
L 357.95017 -318.276515 
L 362.270234 -304.665529 
L 366.590297 -291.932411 
L 370.910361 -280.130814 
L 375.230424 -269.290912 
L 379.550488 -259.421537 
L 383.870551 -250.512694 
L 388.190615 -242.538315 
L 392.510678 -235.459127 
L 396.830742 -229.22551 
L 401.150805 -223.780239 
L 405.470869 -219.061038 
L 409.790932 -215.002882 
L 414.110995 -211.54 
L 418.431059 -208.607556 
L 422.751122 -206.14302 
L 427.071186 -204.087215 
L 431.391249 -202.385076 
L 435.711313 -200.986138 
L 440.031376 -199.844806 
L 444.35144 -198.920412 
L 448.671503 -198.177138 
L 452.991567 -197.583793 
L 457.31163 -197.113526 
L 461.631694 -196.743463 
L 465.951757 -196.454319 
L 470.27182 -196.229996 
L 474.591884 -196.057189 
L 478.911947 -195.925001 
L 483.232011 -195.824592 
L 487.552074 -195.748854 
L 491.872138 -195.692123 
L 496.192201 -195.649923 
L 496.192201 -195.538011 
L 496.192201 -195.538011 
L 491.872138 -195.538011 
L 487.552074 -195.538011 
L 483.232011 -195.538011 
L 478.911947 -195.538011 
L 474.591884 -195.538011 
L 470.27182 -195.538011 
L 465.951757 -195.538011 
L 461.631694 -195.538011 
L 457.31163 -195.538011 
L 452.991567 -195.538011 
L 448.671503 -195.538011 
L 444.35144 -195.538011 
L 440.031376 -195.538011 
L 435.711313 -195.538011 
L 431.391249 -195.538011 
L 427.071186 -195.538011 
L 422.751122 -195.538011 
L 418.431059 -195.538011 
L 414.110995 -195.538011 
L 409.790932 -195.538011 
L 405.470869 -195.538011 
L 401.150805 -195.538011 
L 396.830742 -195.538011 
L 392.510678 -195.538011 
L 388.190615 -195.538011 
L 383.870551 -195.538011 
L 379.550488 -195.538011 
L 375.230424 -195.538011 
L 370.910361 -195.538011 
L 366.590297 -195.538011 
L 362.270234 -195.538011 
L 357.95017 -195.538011 
L 353.630107 -195.538011 
L 349.310044 -195.538011 
L 344.98998 -195.538011 
L 340.669917 -195.538011 
L 336.349853 -195.538011 
L 332.02979 -195.538011 
L 327.709726 -195.538011 
L 323.389663 -195.538011 
L 319.069599 -195.538011 
L 314.749536 -195.538011 
L 310.429472 -195.538011 
L 306.109409 -195.538011 
L 301.789345 -195.538011 
L 297.469282 -195.538011 
L 293.149219 -195.538011 
L 288.829155 -195.538011 
L 284.509092 -195.538011 
L 280.189028 -195.538011 
L 275.868965 -195.538011 
L 271.548901 -195.538011 
L 267.228838 -195.538011 
L 262.908774 -195.538011 
L 258.588711 -195.538011 
L 254.268647 -195.538011 
L 249.948584 -195.538011 
L 245.62852 -195.538011 
L 241.308457 -195.538011 
L 236.988394 -195.538011 
L 232.66833 -195.538011 
L 228.348267 -195.538011 
L 224.028203 -195.538011 
L 219.70814 -195.538011 
L 215.388076 -195.538011 
L 211.068013 -195.538011 
L 206.747949 -195.538011 
L 202.427886 -195.538011 
L 198.107822 -195.538011 
L 193.787759 -195.538011 
L 189.467695 -195.538011 
L 185.147632 -195.538011 
L 180.827569 -195.538011 
L 176.507505 -195.538011 
L 172.187442 -195.538011 
L 167.867378 -195.538011 
L 163.547315 -195.538011 
L 159.227251 -195.538011 
L 154.907188 -195.538011 
L 150.587124 -195.538011 
L 146.267061 -195.538011 
L 141.946997 -195.538011 
L 137.626934 -195.538011 
L 133.30687 -195.538011 
L 128.986807 -195.538011 
L 124.666744 -195.538011 
L 120.34668 -195.538011 
L 116.026617 -195.538011 
L 111.706553 -195.538011 
L 107.38649 -195.538011 
L 103.066426 -195.538011 
L 98.746363 -195.538011 
L 94.426299 -195.538011 
L 90.106236 -195.538011 
L 85.786172 -195.538011 
L 81.466109 -195.538011 
L 77.146045 -195.538011 
L 72.825982 -195.538011 
L 68.505919 -195.538011 
z
" id="m511f3e2c6d" style="stroke:#36a2eb;stroke-opacity:0.5;"/>
    </defs>
    <g clip-path="url(#pf70993f828)">
     <use style="fill:#36a2eb;fill-opacity:0.5;stroke:#36a2eb;stroke-opacity:0.5;" x="0" xlink:href="#m511f3e2c6d" y="581.789375"/>
    </g>
   </g>
   <g id="PolyCollection_3">
    <defs>
     <path d="M 58.827273 -195.538011 
L 58.827273 -195.650004 
L 63.144214 -195.692234 
L 67.461154 -195.749007 
L 71.778095 -195.8248 
L 76.095036 -195.925281 
L 80.411977 -196.057565 
L 84.728918 -196.230497 
L 89.045859 -196.454982 
L 93.362799 -196.744335 
L 97.67974 -197.114666 
L 101.996681 -197.585273 
L 106.313622 -198.179047 
L 110.630563 -198.922859 
L 114.947504 -199.847921 
L 119.264444 -200.990079 
L 123.581385 -202.390029 
L 127.898326 -204.093399 
L 132.215267 -206.150691 
L 136.532208 -208.617009 
L 140.849149 -211.551575 
L 145.166089 -215.016962 
L 149.48303 -219.078053 
L 153.799971 -223.800667 
L 158.116912 -229.249878 
L 162.433853 -235.488004 
L 166.750794 -242.572312 
L 171.067734 -250.552459 
L 175.384675 -259.467747 
L 179.701616 -269.344261 
L 184.018557 -280.192004 
L 188.335498 -292.002137 
L 192.652439 -304.744465 
L 196.969379 -318.365297 
L 201.28632 -332.785841 
L 205.603261 -347.901251 
L 209.920202 -363.580456 
L 214.237143 -379.666871 
L 218.554084 -395.980052 
L 222.871024 -412.31833 
L 227.187965 -428.4624 
L 231.504906 -444.179822 
L 235.821847 -459.230303 
L 240.138788 -473.371627 
L 244.455729 -486.366018 
L 248.772669 -497.986726 
L 253.08961 -508.02457 
L 257.406551 -516.294181 
L 261.723492 -522.639693 
L 266.040433 -526.939623 
L 270.357374 -529.110739 
L 274.674315 -529.110739 
L 278.991255 -526.939623 
L 283.308196 -522.639693 
L 287.625137 -516.294181 
L 291.942078 -508.02457 
L 296.259019 -497.986726 
L 300.57596 -486.366018 
L 304.8929 -473.371627 
L 309.209841 -459.230303 
L 313.526782 -444.179822 
L 317.843723 -428.4624 
L 322.160664 -412.31833 
L 326.477605 -395.980052 
L 330.794545 -379.666871 
L 335.111486 -363.580456 
L 339.428427 -347.901251 
L 343.745368 -332.785841 
L 348.062309 -318.365297 
L 352.37925 -304.744465 
L 356.69619 -292.002137 
L 361.013131 -280.192004 
L 365.330072 -269.344261 
L 369.647013 -259.467747 
L 373.963954 -250.552459 
L 378.280895 -242.572312 
L 382.597835 -235.488004 
L 386.914776 -229.249878 
L 391.231717 -223.800667 
L 395.548658 -219.078053 
L 399.865599 -215.016962 
L 404.18254 -211.551575 
L 408.49948 -208.617009 
L 412.816421 -206.150691 
L 417.133362 -204.093399 
L 421.450303 -202.390029 
L 425.767244 -200.990079 
L 430.084185 -199.847921 
L 434.401125 -198.922859 
L 438.718066 -198.179047 
L 443.035007 -197.585273 
L 447.351948 -197.114666 
L 451.668889 -196.744335 
L 455.98583 -196.454982 
L 460.30277 -196.230497 
L 464.619711 -196.057565 
L 468.936652 -195.925281 
L 473.253593 -195.8248 
L 477.570534 -195.749007 
L 481.887475 -195.692234 
L 486.204415 -195.650004 
L 486.204415 -195.538011 
L 486.204415 -195.538011 
L 481.887475 -195.538011 
L 477.570534 -195.538011 
L 473.253593 -195.538011 
L 468.936652 -195.538011 
L 464.619711 -195.538011 
L 460.30277 -195.538011 
L 455.98583 -195.538011 
L 451.668889 -195.538011 
L 447.351948 -195.538011 
L 443.035007 -195.538011 
L 438.718066 -195.538011 
L 434.401125 -195.538011 
L 430.084185 -195.538011 
L 425.767244 -195.538011 
L 421.450303 -195.538011 
L 417.133362 -195.538011 
L 412.816421 -195.538011 
L 408.49948 -195.538011 
L 404.18254 -195.538011 
L 399.865599 -195.538011 
L 395.548658 -195.538011 
L 391.231717 -195.538011 
L 386.914776 -195.538011 
L 382.597835 -195.538011 
L 378.280895 -195.538011 
L 373.963954 -195.538011 
L 369.647013 -195.538011 
L 365.330072 -195.538011 
L 361.013131 -195.538011 
L 356.69619 -195.538011 
L 352.37925 -195.538011 
L 348.062309 -195.538011 
L 343.745368 -195.538011 
L 339.428427 -195.538011 
L 335.111486 -195.538011 
L 330.794545 -195.538011 
L 326.477605 -195.538011 
L 322.160664 -195.538011 
L 317.843723 -195.538011 
L 313.526782 -195.538011 
L 309.209841 -195.538011 
L 304.8929 -195.538011 
L 300.57596 -195.538011 
L 296.259019 -195.538011 
L 291.942078 -195.538011 
L 287.625137 -195.538011 
L 283.308196 -195.538011 
L 278.991255 -195.538011 
L 274.674315 -195.538011 
L 270.357374 -195.538011 
L 266.040433 -195.538011 
L 261.723492 -195.538011 
L 257.406551 -195.538011 
L 253.08961 -195.538011 
L 248.772669 -195.538011 
L 244.455729 -195.538011 
L 240.138788 -195.538011 
L 235.821847 -195.538011 
L 231.504906 -195.538011 
L 227.187965 -195.538011 
L 222.871024 -195.538011 
L 218.554084 -195.538011 
L 214.237143 -195.538011 
L 209.920202 -195.538011 
L 205.603261 -195.538011 
L 201.28632 -195.538011 
L 196.969379 -195.538011 
L 192.652439 -195.538011 
L 188.335498 -195.538011 
L 184.018557 -195.538011 
L 179.701616 -195.538011 
L 175.384675 -195.538011 
L 171.067734 -195.538011 
L 166.750794 -195.538011 
L 162.433853 -195.538011 
L 158.116912 -195.538011 
L 153.799971 -195.538011 
L 149.48303 -195.538011 
L 145.166089 -195.538011 
L 140.849149 -195.538011 
L 136.532208 -195.538011 
L 132.215267 -195.538011 
L 127.898326 -195.538011 
L 123.581385 -195.538011 
L 119.264444 -195.538011 
L 114.947504 -195.538011 
L 110.630563 -195.538011 
L 106.313622 -195.538011 
L 101.996681 -195.538011 
L 97.67974 -195.538011 
L 93.362799 -195.538011 
L 89.045859 -195.538011 
L 84.728918 -195.538011 
L 80.411977 -195.538011 
L 76.095036 -195.538011 
L 71.778095 -195.538011 
L 67.461154 -195.538011 
L 63.144214 -195.538011 
L 58.827273 -195.538011 
z
" id="m9bdb901adb" style="stroke:#4bc0c0;stroke-opacity:0.5;"/>
    </defs>
    <g clip-path="url(#pf70993f828)">
     <use style="fill:#4bc0c0;fill-opacity:0.5;stroke:#4bc0c0;stroke-opacity:0.5;" x="0" xlink:href="#m9bdb901adb" y="581.789375"/>
    </g>
   </g>
   <g id="PolyCollection_4">
    <defs>
     <path d="M 85.380517 -195.538011 
L 85.380517 -195.649323 
L 89.723873 -195.691296 
L 94.067228 -195.747724 
L 98.410584 -195.823056 
L 102.75394 -195.922926 
L 107.097295 -196.054405 
L 111.440651 -196.226285 
L 115.784007 -196.449405 
L 120.127362 -196.736999 
L 124.470718 -197.105077 
L 128.814074 -197.572822 
L 133.157429 -198.162985 
L 137.500785 -198.902274 
L 141.844141 -199.82171 
L 146.187496 -200.956922 
L 150.530852 -202.348357 
L 154.874208 -204.041368 
L 159.217563 -206.086148 
L 163.560919 -208.537467 
L 167.904275 -211.454185 
L 172.24763 -214.898498 
L 176.590986 -218.93489 
L 180.934342 -223.628783 
L 185.277697 -229.044854 
L 189.621053 -235.245042 
L 193.964409 -242.286265 
L 198.307764 -250.21788 
L 202.65112 -259.078948 
L 206.994475 -268.895396 
L 211.337831 -279.677167 
L 215.681187 -291.415475 
L 220.024542 -304.080308 
L 224.367898 -317.618303 
L 228.711254 -331.951146 
L 233.054609 -346.974629 
L 237.397965 -362.558478 
L 241.741321 -378.547061 
L 246.084676 -394.761031 
L 250.428032 -410.999945 
L 254.771388 -427.045832 
L 259.114743 -442.667666 
L 263.458099 -457.626615 
L 267.801455 -471.681936 
L 272.14481 -484.5973 
L 276.488166 -496.147335 
L 280.831522 -506.124132 
L 285.174877 -514.34345 
L 289.518233 -520.650371 
L 293.861589 -524.92415 
L 298.204944 -527.082062 
L 302.5483 -527.082062 
L 306.891656 -524.92415 
L 311.235011 -520.650371 
L 315.578367 -514.34345 
L 319.921723 -506.124132 
L 324.265078 -496.147335 
L 328.608434 -484.5973 
L 332.95179 -471.681936 
L 337.295145 -457.626615 
L 341.638501 -442.667666 
L 345.981857 -427.045832 
L 350.325212 -410.999945 
L 354.668568 -394.761031 
L 359.011924 -378.547061 
L 363.355279 -362.558478 
L 367.698635 -346.974629 
L 372.041991 -331.951146 
L 376.385346 -317.618303 
L 380.728702 -304.080308 
L 385.072058 -291.415475 
L 389.415413 -279.677167 
L 393.758769 -268.895396 
L 398.102124 -259.078948 
L 402.44548 -250.21788 
L 406.788836 -242.286265 
L 411.132191 -235.245042 
L 415.475547 -229.044854 
L 419.818903 -223.628783 
L 424.162258 -218.93489 
L 428.505614 -214.898498 
L 432.84897 -211.454185 
L 437.192325 -208.537467 
L 441.535681 -206.086148 
L 445.879037 -204.041368 
L 450.222392 -202.348357 
L 454.565748 -200.956922 
L 458.909104 -199.82171 
L 463.252459 -198.902274 
L 467.595815 -198.162985 
L 471.939171 -197.572822 
L 476.282526 -197.105077 
L 480.625882 -196.736999 
L 484.969238 -196.449405 
L 489.312593 -196.226285 
L 493.655949 -196.054405 
L 497.999305 -195.922926 
L 502.34266 -195.823056 
L 506.686016 -195.747724 
L 511.029372 -195.691296 
L 515.372727 -195.649323 
L 515.372727 -195.538011 
L 515.372727 -195.538011 
L 511.029372 -195.538011 
L 506.686016 -195.538011 
L 502.34266 -195.538011 
L 497.999305 -195.538011 
L 493.655949 -195.538011 
L 489.312593 -195.538011 
L 484.969238 -195.538011 
L 480.625882 -195.538011 
L 476.282526 -195.538011 
L 471.939171 -195.538011 
L 467.595815 -195.538011 
L 463.252459 -195.538011 
L 458.909104 -195.538011 
L 454.565748 -195.538011 
L 450.222392 -195.538011 
L 445.879037 -195.538011 
L 441.535681 -195.538011 
L 437.192325 -195.538011 
L 432.84897 -195.538011 
L 428.505614 -195.538011 
L 424.162258 -195.538011 
L 419.818903 -195.538011 
L 415.475547 -195.538011 
L 411.132191 -195.538011 
L 406.788836 -195.538011 
L 402.44548 -195.538011 
L 398.102124 -195.538011 
L 393.758769 -195.538011 
L 389.415413 -195.538011 
L 385.072058 -195.538011 
L 380.728702 -195.538011 
L 376.385346 -195.538011 
L 372.041991 -195.538011 
L 367.698635 -195.538011 
L 363.355279 -195.538011 
L 359.011924 -195.538011 
L 354.668568 -195.538011 
L 350.325212 -195.538011 
L 345.981857 -195.538011 
L 341.638501 -195.538011 
L 337.295145 -195.538011 
L 332.95179 -195.538011 
L 328.608434 -195.538011 
L 324.265078 -195.538011 
L 319.921723 -195.538011 
L 315.578367 -195.538011 
L 311.235011 -195.538011 
L 306.891656 -195.538011 
L 302.5483 -195.538011 
L 298.204944 -195.538011 
L 293.861589 -195.538011 
L 289.518233 -195.538011 
L 285.174877 -195.538011 
L 280.831522 -195.538011 
L 276.488166 -195.538011 
L 272.14481 -195.538011 
L 267.801455 -195.538011 
L 263.458099 -195.538011 
L 259.114743 -195.538011 
L 254.771388 -195.538011 
L 250.428032 -195.538011 
L 246.084676 -195.538011 
L 241.741321 -195.538011 
L 237.397965 -195.538011 
L 233.054609 -195.538011 
L 228.711254 -195.538011 
L 224.367898 -195.538011 
L 220.024542 -195.538011 
L 215.681187 -195.538011 
L 211.337831 -195.538011 
L 206.994475 -195.538011 
L 202.65112 -195.538011 
L 198.307764 -195.538011 
L 193.964409 -195.538011 
L 189.621053 -195.538011 
L 185.277697 -195.538011 
L 180.934342 -195.538011 
L 176.590986 -195.538011 
L 172.24763 -195.538011 
L 167.904275 -195.538011 
L 163.560919 -195.538011 
L 159.217563 -195.538011 
L 154.874208 -195.538011 
L 150.530852 -195.538011 
L 146.187496 -195.538011 
L 141.844141 -195.538011 
L 137.500785 -195.538011 
L 133.157429 -195.538011 
L 128.814074 -195.538011 
L 124.470718 -195.538011 
L 120.127362 -195.538011 
L 115.784007 -195.538011 
L 111.440651 -195.538011 
L 107.097295 -195.538011 
L 102.75394 -195.538011 
L 98.410584 -195.538011 
L 94.067228 -195.538011 
L 89.723873 -195.538011 
L 85.380517 -195.538011 
z
" id="m317a91b5f6" style="stroke:#9966ff;stroke-opacity:0.5;"/>
    </defs>
    <g clip-path="url(#pf70993f828)">
     <use style="fill:#9966ff;fill-opacity:0.5;stroke:#9966ff;stroke-opacity:0.5;" x="0" xlink:href="#m317a91b5f6" y="581.789375"/>
    </g>
   </g>
   <g id="line2d_1">
    <path clip-path="url(#pf70993f828)" d="M 72.808899 386.139772 
L 77.141359 386.097693 
L 81.473819 386.041124 
L 85.806279 385.965603 
L 90.138739 385.865481 
L 94.471199 385.733671 
L 98.803659 385.561359 
L 103.136119 385.337678 
L 107.468579 385.049361 
L 111.801039 384.680357 
L 116.133499 384.211435 
L 120.465959 383.619789 
L 124.798419 382.878641 
L 129.130879 381.956892 
L 133.463339 380.818825 
L 137.795799 379.423891 
L 142.128259 377.726622 
L 146.460718 375.676699 
L 150.793178 373.219215 
L 155.125638 370.295162 
L 159.458098 366.842188 
L 163.790558 362.795644 
L 168.123018 358.089946 
L 172.455478 352.660255 
L 176.787938 346.444474 
L 181.120398 339.385543 
L 185.452858 331.433981 
L 189.785318 322.550629 
L 194.117778 312.709493 
L 198.450238 301.900607 
L 202.782698 290.132778 
L 207.115158 277.436094 
L 211.447618 263.864053 
L 215.780078 249.495164 
L 220.112538 234.433899 
L 224.444998 218.810858 
L 228.777458 202.782065 
L 233.109918 186.527319 
L 237.442378 170.247566 
L 241.774838 154.161325 
L 246.107298 138.500204 
L 250.439758 123.503634 
L 254.772218 109.412966 
L 259.104678 96.465121 
L 263.437138 84.886039 
L 267.769598 74.884152 
L 272.102058 66.644163 
L 276.434518 60.32138 
L 280.766978 56.036853 
L 285.099438 53.873515 
L 289.431898 53.873515 
L 293.764358 56.036853 
L 298.096818 60.32138 
L 302.429278 66.644163 
L 306.761738 74.884152 
L 311.094198 84.886039 
L 315.426658 96.465121 
L 319.759118 109.412966 
L 324.091578 123.503634 
L 328.424038 138.500204 
L 332.756498 154.161325 
L 337.088958 170.247566 
L 341.421418 186.527319 
L 345.753877 202.782065 
L 350.086337 218.810858 
L 354.418797 234.433899 
L 358.751257 249.495164 
L 363.083717 263.864053 
L 367.416177 277.436094 
L 371.748637 290.132778 
L 376.081097 301.900607 
L 380.413557 312.709493 
L 384.746017 322.550629 
L 389.078477 331.433981 
L 393.410937 339.385543 
L 397.743397 346.444474 
L 402.075857 352.660255 
L 406.408317 358.089946 
L 410.740777 362.795644 
L 415.073237 366.842188 
L 419.405697 370.295162 
L 423.738157 373.219215 
L 428.070617 375.676699 
L 432.403077 377.726622 
L 436.735537 379.423891 
L 441.067997 380.818825 
L 445.400457 381.956892 
L 449.732917 382.878641 
L 454.065377 383.619789 
L 458.397837 384.211435 
L 462.730297 384.680357 
L 467.062757 385.049361 
L 471.395217 385.337678 
L 475.727677 385.561359 
L 480.060137 385.733671 
L 484.392597 385.865481 
L 488.725057 385.965603 
L 493.057517 386.041124 
L 497.389977 386.097693 
L 501.722437 386.139772 
" style="fill:none;stroke:#ff6384;stroke-linecap:square;"/>
   </g>
   <g id="line2d_2">
    <path clip-path="url(#pf70993f828)" d="M 68.505919 386.139452 
L 72.825982 386.097252 
L 77.146045 386.040521 
L 81.466109 385.964783 
L 85.786172 385.864374 
L 90.106236 385.732186 
L 94.426299 385.559379 
L 98.746363 385.335056 
L 103.066426 385.045912 
L 107.38649 384.675849 
L 111.706553 384.205582 
L 116.026617 383.612237 
L 120.34668 382.868963 
L 124.666744 381.944569 
L 128.986807 380.803237 
L 133.30687 379.404299 
L 137.626934 377.70216 
L 141.946997 375.646355 
L 146.267061 373.181819 
L 150.587124 370.249375 
L 154.907188 366.786493 
L 159.227251 362.728337 
L 163.547315 358.009136 
L 167.867378 352.563865 
L 172.187442 346.330248 
L 176.507505 339.25106 
L 180.827569 331.276681 
L 185.147632 322.367838 
L 189.467695 312.498463 
L 193.787759 301.658561 
L 198.107822 289.856964 
L 202.427886 277.123846 
L 206.747949 263.51286 
L 211.068013 249.102739 
L 215.388076 233.998255 
L 219.70814 218.330384 
L 224.028203 202.255596 
L 228.348267 185.954206 
L 232.66833 169.627738 
L 236.988394 153.495337 
L 241.308457 137.789277 
L 245.62852 122.749674 
L 249.948584 108.618572 
L 254.268647 95.633573 
L 258.588711 84.021265 
L 262.908774 73.990677 
L 267.228838 65.727043 
L 271.548901 59.386117 
L 275.868965 55.089295 
L 280.189028 52.919749 
L 284.509092 52.919749 
L 288.829155 55.089295 
L 293.149219 59.386117 
L 297.469282 65.727043 
L 301.789345 73.990677 
L 306.109409 84.021265 
L 310.429472 95.633573 
L 314.749536 108.618572 
L 319.069599 122.749674 
L 323.389663 137.789277 
L 327.709726 153.495337 
L 332.02979 169.627738 
L 336.349853 185.954206 
L 340.669917 202.255596 
L 344.98998 218.330384 
L 349.310044 233.998255 
L 353.630107 249.102739 
L 357.95017 263.51286 
L 362.270234 277.123846 
L 366.590297 289.856964 
L 370.910361 301.658561 
L 375.230424 312.498463 
L 379.550488 322.367838 
L 383.870551 331.276681 
L 388.190615 339.25106 
L 392.510678 346.330248 
L 396.830742 352.563865 
L 401.150805 358.009136 
L 405.470869 362.728337 
L 409.790932 366.786493 
L 414.110995 370.249375 
L 418.431059 373.181819 
L 422.751122 375.646355 
L 427.071186 377.70216 
L 431.391249 379.404299 
L 435.711313 380.803237 
L 440.031376 381.944569 
L 444.35144 382.868963 
L 448.671503 383.612237 
L 452.991567 384.205582 
L 457.31163 384.675849 
L 461.631694 385.045912 
L 465.951757 385.335056 
L 470.27182 385.559379 
L 474.591884 385.732186 
L 478.911947 385.864374 
L 483.232011 385.964783 
L 487.552074 386.040521 
L 491.872138 386.097252 
L 496.192201 386.139452 
" style="fill:none;stroke:#36a2eb;stroke-linecap:square;"/>
   </g>
   <g id="line2d_3">
    <path clip-path="url(#pf70993f828)" d="M 58.827273 386.139371 
L 63.144214 386.097141 
L 67.461154 386.040368 
L 71.778095 385.964575 
L 76.095036 385.864094 
L 80.411977 385.73181 
L 84.728918 385.558878 
L 89.045859 385.334393 
L 93.362799 385.04504 
L 97.67974 384.674709 
L 101.996681 384.204102 
L 106.313622 383.610328 
L 110.630563 382.866516 
L 114.947504 381.941454 
L 119.264444 380.799296 
L 123.581385 379.399346 
L 127.898326 377.695976 
L 132.215267 375.638684 
L 136.532208 373.172366 
L 140.849149 370.2378 
L 145.166089 366.772413 
L 149.48303 362.711322 
L 153.799971 357.988708 
L 158.116912 352.539497 
L 162.433853 346.301371 
L 166.750794 339.217063 
L 171.067734 331.236916 
L 175.384675 322.321628 
L 179.701616 312.445114 
L 184.018557 301.597371 
L 188.335498 289.787238 
L 192.652439 277.04491 
L 196.969379 263.424078 
L 201.28632 249.003534 
L 205.603261 233.888124 
L 209.920202 218.208919 
L 214.237143 202.122504 
L 218.554084 185.809323 
L 222.871024 169.471045 
L 227.187965 153.326975 
L 231.504906 137.609553 
L 235.821847 122.559072 
L 240.138788 108.417748 
L 244.455729 95.423357 
L 248.772669 83.802649 
L 253.08961 73.764805 
L 257.406551 65.495194 
L 261.723492 59.149682 
L 266.040433 54.849752 
L 270.357374 52.678636 
L 274.674315 52.678636 
L 278.991255 54.849752 
L 283.308196 59.149682 
L 287.625137 65.495194 
L 291.942078 73.764805 
L 296.259019 83.802649 
L 300.57596 95.423357 
L 304.8929 108.417748 
L 309.209841 122.559072 
L 313.526782 137.609553 
L 317.843723 153.326975 
L 322.160664 169.471045 
L 326.477605 185.809323 
L 330.794545 202.122504 
L 335.111486 218.208919 
L 339.428427 233.888124 
L 343.745368 249.003534 
L 348.062309 263.424078 
L 352.37925 277.04491 
L 356.69619 289.787238 
L 361.013131 301.597371 
L 365.330072 312.445114 
L 369.647013 322.321628 
L 373.963954 331.236916 
L 378.280895 339.217063 
L 382.597835 346.301371 
L 386.914776 352.539497 
L 391.231717 357.988708 
L 395.548658 362.711322 
L 399.865599 366.772413 
L 404.18254 370.2378 
L 408.49948 373.172366 
L 412.816421 375.638684 
L 417.133362 377.695976 
L 421.450303 379.399346 
L 425.767244 380.799296 
L 430.084185 381.941454 
L 434.401125 382.866516 
L 438.718066 383.610328 
L 443.035007 384.204102 
L 447.351948 384.674709 
L 451.668889 385.04504 
L 455.98583 385.334393 
L 460.30277 385.558878 
L 464.619711 385.73181 
L 468.936652 385.864094 
L 473.253593 385.964575 
L 477.570534 386.040368 
L 481.887475 386.097141 
L 486.204415 386.139371 
" style="fill:none;stroke:#4bc0c0;stroke-linecap:square;"/>
   </g>
   <g id="line2d_4">
    <path clip-path="url(#pf70993f828)" d="M 85.380517 386.140052 
L 89.723873 386.098079 
L 94.067228 386.041651 
L 98.410584 385.966319 
L 102.75394 385.866449 
L 107.097295 385.73497 
L 111.440651 385.56309 
L 115.784007 385.33997 
L 120.127362 385.052376 
L 124.470718 384.684298 
L 128.814074 384.216553 
L 133.157429 383.62639 
L 137.500785 382.887101 
L 141.844141 381.967665 
L 146.187496 380.832453 
L 150.530852 379.441018 
L 154.874208 377.748007 
L 159.217563 375.703227 
L 163.560919 373.251908 
L 167.904275 370.33519 
L 172.24763 366.890877 
L 176.590986 362.854485 
L 180.934342 358.160592 
L 185.277697 352.744521 
L 189.621053 346.544333 
L 193.964409 339.50311 
L 198.307764 331.571495 
L 202.65112 322.710427 
L 206.994475 312.893979 
L 211.337831 302.112208 
L 215.681187 290.3739 
L 220.024542 277.709067 
L 224.367898 264.171072 
L 228.711254 249.838229 
L 233.054609 234.814746 
L 237.397965 219.230897 
L 241.741321 203.242314 
L 246.084676 187.028344 
L 250.428032 170.78943 
L 254.771388 154.743543 
L 259.114743 139.121709 
L 263.458099 124.16276 
L 267.801455 110.107439 
L 272.14481 97.192075 
L 276.488166 85.64204 
L 280.831522 75.665243 
L 285.174877 67.445925 
L 289.518233 61.139004 
L 293.861589 56.865225 
L 298.204944 54.707313 
L 302.5483 54.707313 
L 306.891656 56.865225 
L 311.235011 61.139004 
L 315.578367 67.445925 
L 319.921723 75.665243 
L 324.265078 85.64204 
L 328.608434 97.192075 
L 332.95179 110.107439 
L 337.295145 124.16276 
L 341.638501 139.121709 
L 345.981857 154.743543 
L 350.325212 170.78943 
L 354.668568 187.028344 
L 359.011924 203.242314 
L 363.355279 219.230897 
L 367.698635 234.814746 
L 372.041991 249.838229 
L 376.385346 264.171072 
L 380.728702 277.709067 
L 385.072058 290.3739 
L 389.415413 302.112208 
L 393.758769 312.893979 
L 398.102124 322.710427 
L 402.44548 331.571495 
L 406.788836 339.50311 
L 411.132191 346.544333 
L 415.475547 352.744521 
L 419.818903 358.160592 
L 424.162258 362.854485 
L 428.505614 366.890877 
L 432.84897 370.33519 
L 437.192325 373.251908 
L 441.535681 375.703227 
L 445.879037 377.748007 
L 450.222392 379.441018 
L 454.565748 380.832453 
L 458.909104 381.967665 
L 463.252459 382.887101 
L 467.595815 383.62639 
L 471.939171 384.216553 
L 476.282526 384.684298 
L 480.625882 385.052376 
L 484.969238 385.33997 
L 489.312593 385.56309 
L 493.655949 385.73497 
L 497.999305 385.866449 
L 502.34266 385.966319 
L 506.686016 386.041651 
L 511.029372 386.098079 
L 515.372727 386.140052 
" style="fill:none;stroke:#9966ff;stroke-linecap:square;"/>
   </g>
   <g id="patch_3">
    <path d="M 36 402.93 
L 538.2 402.93 
" style="fill:none;stroke:#000000;stroke-linecap:square;stroke-linejoin:miter;stroke-width:0.8;"/>
   </g>
   <g id="legend_1">
    <g id="patch_4">
     <path d="M 450.225313 129.3975 
L 528.4 129.3975 
Q 531.2 129.3975 531.2 126.5975 
L 531.2 45.8 
Q 531.2 43 528.4 43 
L 450.225313 43 
Q 447.425313 43 447.425313 45.8 
L 447.425313 126.5975 
Q 447.425313 129.3975 450.225313 129.3975 
z
" style="fill:#ffffff;opacity:0.8;stroke:#cccccc;stroke-linejoin:miter;"/>
    </g>
    <g id="patch_5">
     <path d="M 453.025313 59.237813 
L 481.025313 59.237813 
L 481.025313 49.437813 
L 453.025313 49.437813 
z
" style="fill:#ff6384;opacity:0.5;stroke:#ff6384;stroke-linejoin:miter;"/>
    </g>
    <g id="text_1">
     <!-- base -->
     <defs>
      <path d="M 48.6875 27.296875 
Q 48.6875 37.203125 44.609375 42.84375 
Q 40.53125 48.484375 33.40625 48.484375 
Q 26.265625 48.484375 22.1875 42.84375 
Q 18.109375 37.203125 18.109375 27.296875 
Q 18.109375 17.390625 22.1875 11.75 
Q 26.265625 6.109375 33.40625 6.109375 
Q 40.53125 6.109375 44.609375 11.75 
Q 48.6875 17.390625 48.6875 27.296875 
z
M 18.109375 46.390625 
Q 20.953125 51.265625 25.265625 53.625 
Q 29.59375 56 35.59375 56 
Q 45.5625 56 51.78125 48.09375 
Q 58.015625 40.1875 58.015625 27.296875 
Q 58.015625 14.40625 51.78125 6.484375 
Q 45.5625 -1.421875 35.59375 -1.421875 
Q 29.59375 -1.421875 25.265625 0.953125 
Q 20.953125 3.328125 18.109375 8.203125 
L 18.109375 0 
L 9.078125 0 
L 9.078125 75.984375 
L 18.109375 75.984375 
z
" id="DejaVuSans-98"/>
      <path d="M 34.28125 27.484375 
Q 23.390625 27.484375 19.1875 25 
Q 14.984375 22.515625 14.984375 16.5 
Q 14.984375 11.71875 18.140625 8.90625 
Q 21.296875 6.109375 26.703125 6.109375 
Q 34.1875 6.109375 38.703125 11.40625 
Q 43.21875 16.703125 43.21875 25.484375 
L 43.21875 27.484375 
z
M 52.203125 31.203125 
L 52.203125 0 
L 43.21875 0 
L 43.21875 8.296875 
Q 40.140625 3.328125 35.546875 0.953125 
Q 30.953125 -1.421875 24.3125 -1.421875 
Q 15.921875 -1.421875 10.953125 3.296875 
Q 6 8.015625 6 15.921875 
Q 6 25.140625 12.171875 29.828125 
Q 18.359375 34.515625 30.609375 34.515625 
L 43.21875 34.515625 
L 43.21875 35.40625 
Q 43.21875 41.609375 39.140625 45 
Q 35.0625 48.390625 27.6875 48.390625 
Q 23 48.390625 18.546875 47.265625 
Q 14.109375 46.140625 10.015625 43.890625 
L 10.015625 52.203125 
Q 14.9375 54.109375 19.578125 55.046875 
Q 24.21875 56 28.609375 56 
Q 40.484375 56 46.34375 49.84375 
Q 52.203125 43.703125 52.203125 31.203125 
z
" id="DejaVuSans-97"/>
      <path d="M 44.28125 53.078125 
L 44.28125 44.578125 
Q 40.484375 46.53125 36.375 47.5 
Q 32.28125 48.484375 27.875 48.484375 
Q 21.1875 48.484375 17.84375 46.4375 
Q 14.5 44.390625 14.5 40.28125 
Q 14.5 37.15625 16.890625 35.375 
Q 19.28125 33.59375 26.515625 31.984375 
L 29.59375 31.296875 
Q 39.15625 29.25 43.1875 25.515625 
Q 47.21875 21.78125 47.21875 15.09375 
Q 47.21875 7.46875 41.1875 3.015625 
Q 35.15625 -1.421875 24.609375 -1.421875 
Q 20.21875 -1.421875 15.453125 -0.5625 
Q 10.6875 0.296875 5.421875 2 
L 5.421875 11.28125 
Q 10.40625 8.6875 15.234375 7.390625 
Q 20.0625 6.109375 24.8125 6.109375 
Q 31.15625 6.109375 34.5625 8.28125 
Q 37.984375 10.453125 37.984375 14.40625 
Q 37.984375 18.0625 35.515625 20.015625 
Q 33.0625 21.96875 24.703125 23.78125 
L 21.578125 24.515625 
Q 13.234375 26.265625 9.515625 29.90625 
Q 5.8125 33.546875 5.8125 39.890625 
Q 5.8125 47.609375 11.28125 51.796875 
Q 16.75 56 26.8125 56 
Q 31.78125 56 36.171875 55.265625 
Q 40.578125 54.546875 44.28125 53.078125 
z
" id="DejaVuSans-115"/>
      <path d="M 56.203125 29.59375 
L 56.203125 25.203125 
L 14.890625 25.203125 
Q 15.484375 15.921875 20.484375 11.0625 
Q 25.484375 6.203125 34.421875 6.203125 
Q 39.59375 6.203125 44.453125 7.46875 
Q 49.3125 8.734375 54.109375 11.28125 
L 54.109375 2.78125 
Q 49.265625 0.734375 44.1875 -0.34375 
Q 39.109375 -1.421875 33.890625 -1.421875 
Q 20.796875 -1.421875 13.15625 6.1875 
Q 5.515625 13.8125 5.515625 26.8125 
Q 5.515625 40.234375 12.765625 48.109375 
Q 20.015625 56 32.328125 56 
Q 43.359375 56 49.78125 48.890625 
Q 56.203125 41.796875 56.203125 29.59375 
z
M 47.21875 32.234375 
Q 47.125 39.59375 43.09375 43.984375 
Q 39.0625 48.390625 32.421875 48.390625 
Q 24.90625 48.390625 20.390625 44.140625 
Q 15.875 39.890625 15.1875 32.171875 
z
" id="DejaVuSans-101"/>
     </defs>
     <g transform="translate(492.225313 59.237813)scale(0.14 -0.14)">
      <use xlink:href="#DejaVuSans-98"/>
      <use x="63.476562" xlink:href="#DejaVuSans-97"/>
      <use x="124.755859" xlink:href="#DejaVuSans-115"/>
      <use x="176.855469" xlink:href="#DejaVuSans-101"/>
     </g>
    </g>
    <g id="patch_6">
     <path d="M 453.025313 79.787188 
L 481.025313 79.787188 
L 481.025313 69.987188 
L 453.025313 69.987188 
z
" style="fill:#36a2eb;opacity:0.5;stroke:#36a2eb;stroke-linejoin:miter;"/>
    </g>
    <g id="text_2">
     <!-- fifth -->
     <defs>
      <path d="M 37.109375 75.984375 
L 37.109375 68.5 
L 28.515625 68.5 
Q 23.6875 68.5 21.796875 66.546875 
Q 19.921875 64.59375 19.921875 59.515625 
L 19.921875 54.6875 
L 34.71875 54.6875 
L 34.71875 47.703125 
L 19.921875 47.703125 
L 19.921875 0 
L 10.890625 0 
L 10.890625 47.703125 
L 2.296875 47.703125 
L 2.296875 54.6875 
L 10.890625 54.6875 
L 10.890625 58.5 
Q 10.890625 67.625 15.140625 71.796875 
Q 19.390625 75.984375 28.609375 75.984375 
z
" id="DejaVuSans-102"/>
      <path d="M 9.421875 54.6875 
L 18.40625 54.6875 
L 18.40625 0 
L 9.421875 0 
z
M 9.421875 75.984375 
L 18.40625 75.984375 
L 18.40625 64.59375 
L 9.421875 64.59375 
z
" id="DejaVuSans-105"/>
      <path d="M 18.3125 70.21875 
L 18.3125 54.6875 
L 36.8125 54.6875 
L 36.8125 47.703125 
L 18.3125 47.703125 
L 18.3125 18.015625 
Q 18.3125 11.328125 20.140625 9.421875 
Q 21.96875 7.515625 27.59375 7.515625 
L 36.8125 7.515625 
L 36.8125 0 
L 27.59375 0 
Q 17.1875 0 13.234375 3.875 
Q 9.28125 7.765625 9.28125 18.015625 
L 9.28125 47.703125 
L 2.6875 47.703125 
L 2.6875 54.6875 
L 9.28125 54.6875 
L 9.28125 70.21875 
z
" id="DejaVuSans-116"/>
      <path d="M 54.890625 33.015625 
L 54.890625 0 
L 45.90625 0 
L 45.90625 32.71875 
Q 45.90625 40.484375 42.875 44.328125 
Q 39.84375 48.1875 33.796875 48.1875 
Q 26.515625 48.1875 22.3125 43.546875 
Q 18.109375 38.921875 18.109375 30.90625 
L 18.109375 0 
L 9.078125 0 
L 9.078125 75.984375 
L 18.109375 75.984375 
L 18.109375 46.1875 
Q 21.34375 51.125 25.703125 53.5625 
Q 30.078125 56 35.796875 56 
Q 45.21875 56 50.046875 50.171875 
Q 54.890625 44.34375 54.890625 33.015625 
z
" id="DejaVuSans-104"/>
     </defs>
     <g transform="translate(492.225313 79.787188)scale(0.14 -0.14)">
      <use xlink:href="#DejaVuSans-102"/>
      <use x="35.205078" xlink:href="#DejaVuSans-105"/>
      <use x="62.988281" xlink:href="#DejaVuSans-102"/>
      <use x="98.177734" xlink:href="#DejaVuSans-116"/>
      <use x="137.386719" xlink:href="#DejaVuSans-104"/>
     </g>
    </g>
    <g id="patch_7">
     <path d="M 453.025313 100.336563 
L 481.025313 100.336563 
L 481.025313 90.536563 
L 453.025313 90.536563 
z
" style="fill:#4bc0c0;opacity:0.5;stroke:#4bc0c0;stroke-linejoin:miter;"/>
    </g>
    <g id="text_3">
     <!-- mid -->
     <defs>
      <path d="M 52 44.1875 
Q 55.375 50.25 60.0625 53.125 
Q 64.75 56 71.09375 56 
Q 79.640625 56 84.28125 50.015625 
Q 88.921875 44.046875 88.921875 33.015625 
L 88.921875 0 
L 79.890625 0 
L 79.890625 32.71875 
Q 79.890625 40.578125 77.09375 44.375 
Q 74.3125 48.1875 68.609375 48.1875 
Q 61.625 48.1875 57.5625 43.546875 
Q 53.515625 38.921875 53.515625 30.90625 
L 53.515625 0 
L 44.484375 0 
L 44.484375 32.71875 
Q 44.484375 40.625 41.703125 44.40625 
Q 38.921875 48.1875 33.109375 48.1875 
Q 26.21875 48.1875 22.15625 43.53125 
Q 18.109375 38.875 18.109375 30.90625 
L 18.109375 0 
L 9.078125 0 
L 9.078125 54.6875 
L 18.109375 54.6875 
L 18.109375 46.1875 
Q 21.1875 51.21875 25.484375 53.609375 
Q 29.78125 56 35.6875 56 
Q 41.65625 56 45.828125 52.96875 
Q 50 49.953125 52 44.1875 
z
" id="DejaVuSans-109"/>
      <path d="M 45.40625 46.390625 
L 45.40625 75.984375 
L 54.390625 75.984375 
L 54.390625 0 
L 45.40625 0 
L 45.40625 8.203125 
Q 42.578125 3.328125 38.25 0.953125 
Q 33.9375 -1.421875 27.875 -1.421875 
Q 17.96875 -1.421875 11.734375 6.484375 
Q 5.515625 14.40625 5.515625 27.296875 
Q 5.515625 40.1875 11.734375 48.09375 
Q 17.96875 56 27.875 56 
Q 33.9375 56 38.25 53.625 
Q 42.578125 51.265625 45.40625 46.390625 
z
M 14.796875 27.296875 
Q 14.796875 17.390625 18.875 11.75 
Q 22.953125 6.109375 30.078125 6.109375 
Q 37.203125 6.109375 41.296875 11.75 
Q 45.40625 17.390625 45.40625 27.296875 
Q 45.40625 37.203125 41.296875 42.84375 
Q 37.203125 48.484375 30.078125 48.484375 
Q 22.953125 48.484375 18.875 42.84375 
Q 14.796875 37.203125 14.796875 27.296875 
z
" id="DejaVuSans-100"/>
     </defs>
     <g transform="translate(492.225313 100.336563)scale(0.14 -0.14)">
      <use xlink:href="#DejaVuSans-109"/>
      <use x="97.412109" xlink:href="#DejaVuSans-105"/>
      <use x="125.195312" xlink:href="#DejaVuSans-100"/>
     </g>
    </g>
    <g id="patch_8">
     <path d="M 453.025313 120.885938 
L 481.025313 120.885938 
L 481.025313 111.085938 
L 453.025313 111.085938 
z
" style="fill:#9966ff;opacity:0.5;stroke:#9966ff;stroke-linejoin:miter;"/>
    </g>
    <g id="text_4">
     <!-- right -->
     <defs>
      <path d="M 41.109375 46.296875 
Q 39.59375 47.171875 37.8125 47.578125 
Q 36.03125 48 33.890625 48 
Q 26.265625 48 22.1875 43.046875 
Q 18.109375 38.09375 18.109375 28.8125 
L 18.109375 0 
L 9.078125 0 
L 9.078125 54.6875 
L 18.109375 54.6875 
L 18.109375 46.1875 
Q 20.953125 51.171875 25.484375 53.578125 
Q 30.03125 56 36.53125 56 
Q 37.453125 56 38.578125 55.875 
Q 39.703125 55.765625 41.0625 55.515625 
z
" id="DejaVuSans-114"/>
      <path d="M 45.40625 27.984375 
Q 45.40625 37.75 41.375 43.109375 
Q 37.359375 48.484375 30.078125 48.484375 
Q 22.859375 48.484375 18.828125 43.109375 
Q 14.796875 37.75 14.796875 27.984375 
Q 14.796875 18.265625 18.828125 12.890625 
Q 22.859375 7.515625 30.078125 7.515625 
Q 37.359375 7.515625 41.375 12.890625 
Q 45.40625 18.265625 45.40625 27.984375 
z
M 54.390625 6.78125 
Q 54.390625 -7.171875 48.1875 -13.984375 
Q 42 -20.796875 29.203125 -20.796875 
Q 24.46875 -20.796875 20.265625 -20.09375 
Q 16.0625 -19.390625 12.109375 -17.921875 
L 12.109375 -9.1875 
Q 16.0625 -11.328125 19.921875 -12.34375 
Q 23.78125 -13.375 27.78125 -13.375 
Q 36.625 -13.375 41.015625 -8.765625 
Q 45.40625 -4.15625 45.40625 5.171875 
L 45.40625 9.625 
Q 42.625 4.78125 38.28125 2.390625 
Q 33.9375 0 27.875 0 
Q 17.828125 0 11.671875 7.65625 
Q 5.515625 15.328125 5.515625 27.984375 
Q 5.515625 40.671875 11.671875 48.328125 
Q 17.828125 56 27.875 56 
Q 33.9375 56 38.28125 53.609375 
Q 42.625 51.21875 45.40625 46.390625 
L 45.40625 54.6875 
L 54.390625 54.6875 
z
" id="DejaVuSans-103"/>
     </defs>
     <g transform="translate(492.225313 120.885938)scale(0.14 -0.14)">
      <use xlink:href="#DejaVuSans-114"/>
      <use x="41.113281" xlink:href="#DejaVuSans-105"/>
      <use x="68.896484" xlink:href="#DejaVuSans-103"/>
      <use x="132.373047" xlink:href="#DejaVuSans-104"/>
      <use x="195.751953" xlink:href="#DejaVuSans-116"/>
     </g>
    </g>
   </g>
  </g>
  <g id="axes_2">
   <g id="patch_9">
    <path d="M 36 525.24 
L 538.2 525.24 
L 538.2 402.93 
L 36 402.93 
z
" style="fill:none;"/>
   </g>
   <g id="patch_10">
    <path clip-path="url(#p84fed4e73a)" d="M 182.181851 519.680455 
L 392.349485 519.680455 
L 392.349485 503.796039 
L 182.181851 503.796039 
z
" style="fill:#ff6384;opacity:0.5;"/>
   </g>
   <g id="patch_11">
    <path clip-path="url(#p84fed4e73a)" d="M 177.565921 487.911623 
L 387.132199 487.911623 
L 387.132199 472.027208 
L 177.565921 472.027208 
z
" style="fill:#36a2eb;opacity:0.5;"/>
   </g>
   <g id="patch_12">
    <path clip-path="url(#p84fed4e73a)" d="M 167.808444 456.142792 
L 377.223244 456.142792 
L 377.223244 440.258377 
L 167.808444 440.258377 
z
" style="fill:#4bc0c0;opacity:0.5;"/>
   </g>
   <g id="patch_13">
    <path clip-path="url(#p84fed4e73a)" d="M 195.028531 424.373961 
L 405.724714 424.373961 
L 405.724714 408.489545 
L 195.028531 408.489545 
z
" style="fill:#9966ff;opacity:0.5;"/>
   </g>
   <g id="matplotlib.axis_1">
    <g id="xtick_1">
     <g id="line2d_5">
      <defs>
       <path d="M 0 0 
L 0 3.5 
" id="mfe47378489" style="stroke:#000000;stroke-width:0.8;"/>
      </defs>
      <g>
       <use style="stroke:#000000;stroke-width:0.8;" x="79.129267" xlink:href="#mfe47378489" y="525.24"/>
      </g>
     </g>
     <g id="text_5">
      <!-- 6.0 -->
      <defs>
       <path d="M 33.015625 40.375 
Q 26.375 40.375 22.484375 35.828125 
Q 18.609375 31.296875 18.609375 23.390625 
Q 18.609375 15.53125 22.484375 10.953125 
Q 26.375 6.390625 33.015625 6.390625 
Q 39.65625 6.390625 43.53125 10.953125 
Q 47.40625 15.53125 47.40625 23.390625 
Q 47.40625 31.296875 43.53125 35.828125 
Q 39.65625 40.375 33.015625 40.375 
z
M 52.59375 71.296875 
L 52.59375 62.3125 
Q 48.875 64.0625 45.09375 64.984375 
Q 41.3125 65.921875 37.59375 65.921875 
Q 27.828125 65.921875 22.671875 59.328125 
Q 17.53125 52.734375 16.796875 39.40625 
Q 19.671875 43.65625 24.015625 45.921875 
Q 28.375 48.1875 33.59375 48.1875 
Q 44.578125 48.1875 50.953125 41.515625 
Q 57.328125 34.859375 57.328125 23.390625 
Q 57.328125 12.15625 50.6875 5.359375 
Q 44.046875 -1.421875 33.015625 -1.421875 
Q 20.359375 -1.421875 13.671875 8.265625 
Q 6.984375 17.96875 6.984375 36.375 
Q 6.984375 53.65625 15.1875 63.9375 
Q 23.390625 74.21875 37.203125 74.21875 
Q 40.921875 74.21875 44.703125 73.484375 
Q 48.484375 72.75 52.59375 71.296875 
z
" id="DejaVuSans-54"/>
       <path d="M 10.6875 12.40625 
L 21 12.40625 
L 21 0 
L 10.6875 0 
z
" id="DejaVuSans-46"/>
       <path d="M 31.78125 66.40625 
Q 24.171875 66.40625 20.328125 58.90625 
Q 16.5 51.421875 16.5 36.375 
Q 16.5 21.390625 20.328125 13.890625 
Q 24.171875 6.390625 31.78125 6.390625 
Q 39.453125 6.390625 43.28125 13.890625 
Q 47.125 21.390625 47.125 36.375 
Q 47.125 51.421875 43.28125 58.90625 
Q 39.453125 66.40625 31.78125 66.40625 
z
M 31.78125 74.21875 
Q 44.046875 74.21875 50.515625 64.515625 
Q 56.984375 54.828125 56.984375 36.375 
Q 56.984375 17.96875 50.515625 8.265625 
Q 44.046875 -1.421875 31.78125 -1.421875 
Q 19.53125 -1.421875 13.0625 8.265625 
Q 6.59375 17.96875 6.59375 36.375 
Q 6.59375 54.828125 13.0625 64.515625 
Q 19.53125 74.21875 31.78125 74.21875 
z
" id="DejaVuSans-48"/>
      </defs>
      <g transform="translate(67.997079 542.877813)scale(0.14 -0.14)">
       <use xlink:href="#DejaVuSans-54"/>
       <use x="63.623047" xlink:href="#DejaVuSans-46"/>
       <use x="95.410156" xlink:href="#DejaVuSans-48"/>
      </g>
     </g>
    </g>
    <g id="xtick_2">
     <g id="line2d_6">
      <g>
       <use style="stroke:#000000;stroke-width:0.8;" x="161.072732" xlink:href="#mfe47378489" y="525.24"/>
      </g>
     </g>
     <g id="text_6">
      <!-- 6.5 -->
      <defs>
       <path d="M 10.796875 72.90625 
L 49.515625 72.90625 
L 49.515625 64.59375 
L 19.828125 64.59375 
L 19.828125 46.734375 
Q 21.96875 47.46875 24.109375 47.828125 
Q 26.265625 48.1875 28.421875 48.1875 
Q 40.625 48.1875 47.75 41.5 
Q 54.890625 34.8125 54.890625 23.390625 
Q 54.890625 11.625 47.5625 5.09375 
Q 40.234375 -1.421875 26.90625 -1.421875 
Q 22.3125 -1.421875 17.546875 -0.640625 
Q 12.796875 0.140625 7.71875 1.703125 
L 7.71875 11.625 
Q 12.109375 9.234375 16.796875 8.0625 
Q 21.484375 6.890625 26.703125 6.890625 
Q 35.15625 6.890625 40.078125 11.328125 
Q 45.015625 15.765625 45.015625 23.390625 
Q 45.015625 31 40.078125 35.4375 
Q 35.15625 39.890625 26.703125 39.890625 
Q 22.75 39.890625 18.8125 39.015625 
Q 14.890625 38.140625 10.796875 36.28125 
z
" id="DejaVuSans-53"/>
      </defs>
      <g transform="translate(149.940544 542.877813)scale(0.14 -0.14)">
       <use xlink:href="#DejaVuSans-54"/>
       <use x="63.623047" xlink:href="#DejaVuSans-46"/>
       <use x="95.410156" xlink:href="#DejaVuSans-53"/>
      </g>
     </g>
    </g>
    <g id="xtick_3">
     <g id="line2d_7">
      <g>
       <use style="stroke:#000000;stroke-width:0.8;" x="243.016197" xlink:href="#mfe47378489" y="525.24"/>
      </g>
     </g>
     <g id="text_7">
      <!-- 7.0 -->
      <defs>
       <path d="M 8.203125 72.90625 
L 55.078125 72.90625 
L 55.078125 68.703125 
L 28.609375 0 
L 18.3125 0 
L 43.21875 64.59375 
L 8.203125 64.59375 
z
" id="DejaVuSans-55"/>
      </defs>
      <g transform="translate(231.884009 542.877813)scale(0.14 -0.14)">
       <use xlink:href="#DejaVuSans-55"/>
       <use x="63.623047" xlink:href="#DejaVuSans-46"/>
       <use x="95.410156" xlink:href="#DejaVuSans-48"/>
      </g>
     </g>
    </g>
    <g id="xtick_4">
     <g id="line2d_8">
      <g>
       <use style="stroke:#000000;stroke-width:0.8;" x="324.959662" xlink:href="#mfe47378489" y="525.24"/>
      </g>
     </g>
     <g id="text_8">
      <!-- 7.5 -->
      <g transform="translate(313.827474 542.877813)scale(0.14 -0.14)">
       <use xlink:href="#DejaVuSans-55"/>
       <use x="63.623047" xlink:href="#DejaVuSans-46"/>
       <use x="95.410156" xlink:href="#DejaVuSans-53"/>
      </g>
     </g>
    </g>
    <g id="xtick_5">
     <g id="line2d_9">
      <g>
       <use style="stroke:#000000;stroke-width:0.8;" x="406.903127" xlink:href="#mfe47378489" y="525.24"/>
      </g>
     </g>
     <g id="text_9">
      <!-- 8.0 -->
      <defs>
       <path d="M 31.78125 34.625 
Q 24.75 34.625 20.71875 30.859375 
Q 16.703125 27.09375 16.703125 20.515625 
Q 16.703125 13.921875 20.71875 10.15625 
Q 24.75 6.390625 31.78125 6.390625 
Q 38.8125 6.390625 42.859375 10.171875 
Q 46.921875 13.96875 46.921875 20.515625 
Q 46.921875 27.09375 42.890625 30.859375 
Q 38.875 34.625 31.78125 34.625 
z
M 21.921875 38.8125 
Q 15.578125 40.375 12.03125 44.71875 
Q 8.5 49.078125 8.5 55.328125 
Q 8.5 64.0625 14.71875 69.140625 
Q 20.953125 74.21875 31.78125 74.21875 
Q 42.671875 74.21875 48.875 69.140625 
Q 55.078125 64.0625 55.078125 55.328125 
Q 55.078125 49.078125 51.53125 44.71875 
Q 48 40.375 41.703125 38.8125 
Q 48.828125 37.15625 52.796875 32.3125 
Q 56.78125 27.484375 56.78125 20.515625 
Q 56.78125 9.90625 50.3125 4.234375 
Q 43.84375 -1.421875 31.78125 -1.421875 
Q 19.734375 -1.421875 13.25 4.234375 
Q 6.78125 9.90625 6.78125 20.515625 
Q 6.78125 27.484375 10.78125 32.3125 
Q 14.796875 37.15625 21.921875 38.8125 
z
M 18.3125 54.390625 
Q 18.3125 48.734375 21.84375 45.5625 
Q 25.390625 42.390625 31.78125 42.390625 
Q 38.140625 42.390625 41.71875 45.5625 
Q 45.3125 48.734375 45.3125 54.390625 
Q 45.3125 60.0625 41.71875 63.234375 
Q 38.140625 66.40625 31.78125 66.40625 
Q 25.390625 66.40625 21.84375 63.234375 
Q 18.3125 60.0625 18.3125 54.390625 
z
" id="DejaVuSans-56"/>
      </defs>
      <g transform="translate(395.770939 542.877813)scale(0.14 -0.14)">
       <use xlink:href="#DejaVuSans-56"/>
       <use x="63.623047" xlink:href="#DejaVuSans-46"/>
       <use x="95.410156" xlink:href="#DejaVuSans-48"/>
      </g>
     </g>
    </g>
    <g id="xtick_6">
     <g id="line2d_10">
      <g>
       <use style="stroke:#000000;stroke-width:0.8;" x="488.846591" xlink:href="#mfe47378489" y="525.24"/>
      </g>
     </g>
     <g id="text_10">
      <!-- 8.5 -->
      <g transform="translate(477.714404 542.877813)scale(0.14 -0.14)">
       <use xlink:href="#DejaVuSans-56"/>
       <use x="63.623047" xlink:href="#DejaVuSans-46"/>
       <use x="95.410156" xlink:href="#DejaVuSans-53"/>
      </g>
     </g>
    </g>
   </g>
   <g id="line2d_11">
    <path clip-path="url(#p84fed4e73a)" d="M 287.265668 525.24 
L 287.265668 402.93 
" style="fill:none;stroke:#ff6384;stroke-dasharray:5.55,2.4;stroke-dashoffset:0;stroke-opacity:0.8;stroke-width:1.5;"/>
   </g>
   <g id="line2d_12">
    <path clip-path="url(#p84fed4e73a)" d="M 282.34906 525.24 
L 282.34906 402.93 
" style="fill:none;stroke:#36a2eb;stroke-dasharray:5.55,2.4;stroke-dashoffset:0;stroke-opacity:0.8;stroke-width:1.5;"/>
   </g>
   <g id="line2d_13">
    <path clip-path="url(#p84fed4e73a)" d="M 272.515844 525.24 
L 272.515844 402.93 
" style="fill:none;stroke:#4bc0c0;stroke-dasharray:5.55,2.4;stroke-dashoffset:0;stroke-opacity:0.8;stroke-width:1.5;"/>
   </g>
   <g id="line2d_14">
    <path clip-path="url(#p84fed4e73a)" d="M 300.376622 525.24 
L 300.376622 402.93 
" style="fill:none;stroke:#9966ff;stroke-dasharray:5.55,2.4;stroke-dashoffset:0;stroke-opacity:0.8;stroke-width:1.5;"/>
   </g>
   <g id="patch_14">
    <path d="M 36 525.24 
L 538.2 525.24 
" style="fill:none;stroke:#000000;stroke-linecap:square;stroke-linejoin:miter;stroke-width:0.8;"/>
   </g>
  </g>
 </g>
 <defs>
  <clipPath id="pf70993f828">
   <rect height="366.93" width="502.2" x="36" y="36"/>
  </clipPath>
  <clipPath id="p84fed4e73a">
   <rect height="122.31" width="502.2" x="36" y="402.93"/>
  </clipPath>
 </defs>
</svg>
