<?xml version="1.0" encoding="utf-8" standalone="no"?>
<!DOCTYPE svg PUBLIC "-//W3C//DTD SVG 1.1//EN"
  "http://www.w3.org/Graphics/SVG/1.1/DTD/svg11.dtd">
<!-- Created with matplotlib (https://matplotlib.org/) -->
<svg height="581.789375pt" version="1.1" viewBox="0 0 574.2 581.789375" width="574.2pt" xmlns="http://www.w3.org/2000/svg" xmlns:xlink="http://www.w3.org/1999/xlink">
 <defs>
  <style type="text/css">
*{stroke-linecap:butt;stroke-linejoin:round;}
  </style>
 </defs>
 <g id="figure_1">
  <g id="patch_1">
   <path d="M 0 581.789375 
L 574.2 581.789375 
L 574.2 0 
L 0 0 
z
" style="fill:none;"/>
  </g>
  <g id="axes_1">
   <g id="patch_2">
    <path d="M 36 402.93 
L 538.2 402.93 
L 538.2 36 
L 36 36 
z
" style="fill:none;"/>
   </g>
   <g id="PolyCollection_1">
    <defs>
     <path d="M 84.111336 -195.538011 
L 84.111336 -195.649135 
L 88.352929 -195.691038 
L 92.594522 -195.747371 
L 96.836116 -195.822576 
L 101.077709 -195.922278 
L 105.319302 -196.053536 
L 109.560896 -196.225127 
L 113.802489 -196.44787 
L 118.044082 -196.73498 
L 122.285676 -197.102439 
L 126.527269 -197.569396 
L 130.768862 -198.158565 
L 135.010456 -198.896609 
L 139.252049 -199.814497 
L 143.493642 -200.947798 
L 147.735236 -202.33689 
L 151.976829 -204.027051 
L 156.218422 -206.068388 
L 160.460016 -208.515579 
L 164.701609 -211.427386 
L 168.943202 -214.865899 
L 173.184796 -218.895496 
L 177.426389 -223.581485 
L 181.667982 -228.988436 
L 185.909576 -235.178184 
L 190.151169 -242.207552 
L 194.392762 -250.125812 
L 198.634356 -258.97196 
L 202.875949 -268.771879 
L 207.117542 -279.535496 
L 211.359136 -291.25404 
L 215.600729 -303.897549 
L 219.842323 -317.412749 
L 224.083916 -331.721459 
L 228.325509 -346.719646 
L 232.567103 -362.277255 
L 236.808696 -378.238917 
L 241.050289 -394.425587 
L 245.291883 -410.637158 
L 249.533476 -426.656028 
L 253.775069 -442.251558 
L 258.016663 -457.18532 
L 262.258256 -471.216975 
L 266.499849 -484.110593 
L 270.741443 -495.64118 
L 274.983036 -505.601178 
L 279.224629 -513.806657 
L 283.466223 -520.102959 
L 287.707816 -524.369542 
L 291.949409 -526.52382 
L 296.191003 -526.52382 
L 300.432596 -524.369542 
L 304.674189 -520.102959 
L 308.915783 -513.806657 
L 313.157376 -505.601178 
L 317.398969 -495.64118 
L 321.640563 -484.110593 
L 325.882156 -471.216975 
L 330.123749 -457.18532 
L 334.365343 -442.251558 
L 338.606936 -426.656028 
L 342.848529 -410.637158 
L 347.090123 -394.425587 
L 351.331716 -378.238917 
L 355.573309 -362.277255 
L 359.814903 -346.719646 
L 364.056496 -331.721459 
L 368.298089 -317.412749 
L 372.539683 -303.897549 
L 376.781276 -291.25404 
L 381.022869 -279.535496 
L 385.264463 -268.771879 
L 389.506056 -258.97196 
L 393.747649 -250.125812 
L 397.989243 -242.207552 
L 402.230836 -235.178184 
L 406.472429 -228.988436 
L 410.714023 -223.581485 
L 414.955616 -218.895496 
L 419.19721 -214.865899 
L 423.438803 -211.427386 
L 427.680396 -208.515579 
L 431.92199 -206.068388 
L 436.163583 -204.027051 
L 440.405176 -202.33689 
L 444.64677 -200.947798 
L 448.888363 -199.814497 
L 453.129956 -198.896609 
L 457.37155 -198.158565 
L 461.613143 -197.569396 
L 465.854736 -197.102439 
L 470.09633 -196.73498 
L 474.337923 -196.44787 
L 478.579516 -196.225127 
L 482.82111 -196.053536 
L 487.062703 -195.922278 
L 491.304296 -195.822576 
L 495.54589 -195.747371 
L 499.787483 -195.691038 
L 504.029076 -195.649135 
L 504.029076 -195.538011 
L 504.029076 -195.538011 
L 499.787483 -195.538011 
L 495.54589 -195.538011 
L 491.304296 -195.538011 
L 487.062703 -195.538011 
L 482.82111 -195.538011 
L 478.579516 -195.538011 
L 474.337923 -195.538011 
L 470.09633 -195.538011 
L 465.854736 -195.538011 
L 461.613143 -195.538011 
L 457.37155 -195.538011 
L 453.129956 -195.538011 
L 448.888363 -195.538011 
L 444.64677 -195.538011 
L 440.405176 -195.538011 
L 436.163583 -195.538011 
L 431.92199 -195.538011 
L 427.680396 -195.538011 
L 423.438803 -195.538011 
L 419.19721 -195.538011 
L 414.955616 -195.538011 
L 410.714023 -195.538011 
L 406.472429 -195.538011 
L 402.230836 -195.538011 
L 397.989243 -195.538011 
L 393.747649 -195.538011 
L 389.506056 -195.538011 
L 385.264463 -195.538011 
L 381.022869 -195.538011 
L 376.781276 -195.538011 
L 372.539683 -195.538011 
L 368.298089 -195.538011 
L 364.056496 -195.538011 
L 359.814903 -195.538011 
L 355.573309 -195.538011 
L 351.331716 -195.538011 
L 347.090123 -195.538011 
L 342.848529 -195.538011 
L 338.606936 -195.538011 
L 334.365343 -195.538011 
L 330.123749 -195.538011 
L 325.882156 -195.538011 
L 321.640563 -195.538011 
L 317.398969 -195.538011 
L 313.157376 -195.538011 
L 308.915783 -195.538011 
L 304.674189 -195.538011 
L 300.432596 -195.538011 
L 296.191003 -195.538011 
L 291.949409 -195.538011 
L 287.707816 -195.538011 
L 283.466223 -195.538011 
L 279.224629 -195.538011 
L 274.983036 -195.538011 
L 270.741443 -195.538011 
L 266.499849 -195.538011 
L 262.258256 -195.538011 
L 258.016663 -195.538011 
L 253.775069 -195.538011 
L 249.533476 -195.538011 
L 245.291883 -195.538011 
L 241.050289 -195.538011 
L 236.808696 -195.538011 
L 232.567103 -195.538011 
L 228.325509 -195.538011 
L 224.083916 -195.538011 
L 219.842323 -195.538011 
L 215.600729 -195.538011 
L 211.359136 -195.538011 
L 207.117542 -195.538011 
L 202.875949 -195.538011 
L 198.634356 -195.538011 
L 194.392762 -195.538011 
L 190.151169 -195.538011 
L 185.909576 -195.538011 
L 181.667982 -195.538011 
L 177.426389 -195.538011 
L 173.184796 -195.538011 
L 168.943202 -195.538011 
L 164.701609 -195.538011 
L 160.460016 -195.538011 
L 156.218422 -195.538011 
L 151.976829 -195.538011 
L 147.735236 -195.538011 
L 143.493642 -195.538011 
L 139.252049 -195.538011 
L 135.010456 -195.538011 
L 130.768862 -195.538011 
L 126.527269 -195.538011 
L 122.285676 -195.538011 
L 118.044082 -195.538011 
L 113.802489 -195.538011 
L 109.560896 -195.538011 
L 105.319302 -195.538011 
L 101.077709 -195.538011 
L 96.836116 -195.538011 
L 92.594522 -195.538011 
L 88.352929 -195.538011 
L 84.111336 -195.538011 
z
" id="m3c6c924dfb" style="stroke:#ff6384;stroke-opacity:0.5;"/>
    </defs>
    <g clip-path="url(#p7142a5ff9c)">
     <use style="fill:#ff6384;fill-opacity:0.5;stroke:#ff6384;stroke-opacity:0.5;" x="0" xlink:href="#m3c6c924dfb" y="581.789375"/>
    </g>
   </g>
   <g id="PolyCollection_2">
    <defs>
     <path d="M 94.569991 -195.538011 
L 94.569991 -195.648974 
L 98.817772 -195.690815 
L 103.065553 -195.747066 
L 107.313334 -195.822161 
L 111.561114 -195.921718 
L 115.808895 -196.052785 
L 120.056676 -196.224126 
L 124.304457 -196.446545 
L 128.552238 -196.733236 
L 132.800018 -197.10016 
L 137.047799 -197.566437 
L 141.29558 -198.154748 
L 145.543361 -198.891717 
L 149.791141 -199.808268 
L 154.038922 -200.939918 
L 158.286703 -202.326986 
L 162.534484 -204.014685 
L 166.782264 -206.053049 
L 171.030045 -208.496676 
L 175.277826 -211.404241 
L 179.525607 -214.837746 
L 183.773387 -218.861472 
L 188.021168 -223.540636 
L 192.268949 -228.939711 
L 196.51673 -235.120444 
L 200.76451 -242.139572 
L 205.012291 -250.046298 
L 209.260072 -258.87956 
L 213.507853 -268.665205 
L 217.755634 -279.413143 
L 222.003414 -291.114618 
L 226.251195 -303.73971 
L 230.498976 -317.235223 
L 234.746757 -331.523091 
L 238.994537 -346.499431 
L 243.242318 -362.034379 
L 247.490099 -377.972791 
L 251.73788 -394.135882 
L 255.98566 -410.323839 
L 260.233441 -426.319376 
L 264.481222 -441.892189 
L 268.729003 -456.804198 
L 272.976783 -470.815415 
L 277.224564 -483.690251 
L 281.472345 -495.204043 
L 285.720126 -505.149533 
L 289.967906 -513.343059 
L 294.215687 -519.63019 
L 298.463468 -523.890558 
L 302.711249 -526.041698 
L 306.95903 -526.041698 
L 311.20681 -523.890558 
L 315.454591 -519.63019 
L 319.702372 -513.343059 
L 323.950153 -505.149533 
L 328.197933 -495.204043 
L 332.445714 -483.690251 
L 336.693495 -470.815415 
L 340.941276 -456.804198 
L 345.189056 -441.892189 
L 349.436837 -426.319376 
L 353.684618 -410.323839 
L 357.932399 -394.135882 
L 362.180179 -377.972791 
L 366.42796 -362.034379 
L 370.675741 -346.499431 
L 374.923522 -331.523091 
L 379.171302 -317.235223 
L 383.419083 -303.73971 
L 387.666864 -291.114618 
L 391.914645 -279.413143 
L 396.162426 -268.665205 
L 400.410206 -258.87956 
L 404.657987 -250.046298 
L 408.905768 -242.139572 
L 413.153549 -235.120444 
L 417.401329 -228.939711 
L 421.64911 -223.540636 
L 425.896891 -218.861472 
L 430.144672 -214.837746 
L 434.392452 -211.404241 
L 438.640233 -208.496676 
L 442.888014 -206.053049 
L 447.135795 -204.014685 
L 451.383575 -202.326986 
L 455.631356 -200.939918 
L 459.879137 -199.808268 
L 464.126918 -198.891717 
L 468.374699 -198.154748 
L 472.622479 -197.566437 
L 476.87026 -197.10016 
L 481.118041 -196.733236 
L 485.365822 -196.446545 
L 489.613602 -196.224126 
L 493.861383 -196.052785 
L 498.109164 -195.921718 
L 502.356945 -195.822161 
L 506.604725 -195.747066 
L 510.852506 -195.690815 
L 515.100287 -195.648974 
L 515.100287 -195.538011 
L 515.100287 -195.538011 
L 510.852506 -195.538011 
L 506.604725 -195.538011 
L 502.356945 -195.538011 
L 498.109164 -195.538011 
L 493.861383 -195.538011 
L 489.613602 -195.538011 
L 485.365822 -195.538011 
L 481.118041 -195.538011 
L 476.87026 -195.538011 
L 472.622479 -195.538011 
L 468.374699 -195.538011 
L 464.126918 -195.538011 
L 459.879137 -195.538011 
L 455.631356 -195.538011 
L 451.383575 -195.538011 
L 447.135795 -195.538011 
L 442.888014 -195.538011 
L 438.640233 -195.538011 
L 434.392452 -195.538011 
L 430.144672 -195.538011 
L 425.896891 -195.538011 
L 421.64911 -195.538011 
L 417.401329 -195.538011 
L 413.153549 -195.538011 
L 408.905768 -195.538011 
L 404.657987 -195.538011 
L 400.410206 -195.538011 
L 396.162426 -195.538011 
L 391.914645 -195.538011 
L 387.666864 -195.538011 
L 383.419083 -195.538011 
L 379.171302 -195.538011 
L 374.923522 -195.538011 
L 370.675741 -195.538011 
L 366.42796 -195.538011 
L 362.180179 -195.538011 
L 357.932399 -195.538011 
L 353.684618 -195.538011 
L 349.436837 -195.538011 
L 345.189056 -195.538011 
L 340.941276 -195.538011 
L 336.693495 -195.538011 
L 332.445714 -195.538011 
L 328.197933 -195.538011 
L 323.950153 -195.538011 
L 319.702372 -195.538011 
L 315.454591 -195.538011 
L 311.20681 -195.538011 
L 306.95903 -195.538011 
L 302.711249 -195.538011 
L 298.463468 -195.538011 
L 294.215687 -195.538011 
L 289.967906 -195.538011 
L 285.720126 -195.538011 
L 281.472345 -195.538011 
L 277.224564 -195.538011 
L 272.976783 -195.538011 
L 268.729003 -195.538011 
L 264.481222 -195.538011 
L 260.233441 -195.538011 
L 255.98566 -195.538011 
L 251.73788 -195.538011 
L 247.490099 -195.538011 
L 243.242318 -195.538011 
L 238.994537 -195.538011 
L 234.746757 -195.538011 
L 230.498976 -195.538011 
L 226.251195 -195.538011 
L 222.003414 -195.538011 
L 217.755634 -195.538011 
L 213.507853 -195.538011 
L 209.260072 -195.538011 
L 205.012291 -195.538011 
L 200.76451 -195.538011 
L 196.51673 -195.538011 
L 192.268949 -195.538011 
L 188.021168 -195.538011 
L 183.773387 -195.538011 
L 179.525607 -195.538011 
L 175.277826 -195.538011 
L 171.030045 -195.538011 
L 166.782264 -195.538011 
L 162.534484 -195.538011 
L 158.286703 -195.538011 
L 154.038922 -195.538011 
L 149.791141 -195.538011 
L 145.543361 -195.538011 
L 141.29558 -195.538011 
L 137.047799 -195.538011 
L 132.800018 -195.538011 
L 128.552238 -195.538011 
L 124.304457 -195.538011 
L 120.056676 -195.538011 
L 115.808895 -195.538011 
L 111.561114 -195.538011 
L 107.313334 -195.538011 
L 103.065553 -195.538011 
L 98.817772 -195.538011 
L 94.569991 -195.538011 
z
" id="m4e2d4a7f88" style="stroke:#36a2eb;stroke-opacity:0.5;"/>
    </defs>
    <g clip-path="url(#p7142a5ff9c)">
     <use style="fill:#36a2eb;fill-opacity:0.5;stroke:#36a2eb;stroke-opacity:0.5;" x="0" xlink:href="#m4e2d4a7f88" y="581.789375"/>
    </g>
   </g>
   <g id="PolyCollection_3">
    <defs>
     <path d="M 58.827273 -195.538011 
L 58.827273 -195.650004 
L 63.035972 -195.692234 
L 67.244671 -195.749007 
L 71.45337 -195.8248 
L 75.662069 -195.925281 
L 79.870768 -196.057565 
L 84.079467 -196.230497 
L 88.288166 -196.454982 
L 92.496865 -196.744335 
L 96.705564 -197.114666 
L 100.914263 -197.585273 
L 105.122962 -198.179047 
L 109.331661 -198.922859 
L 113.54036 -199.847921 
L 117.749059 -200.990079 
L 121.957758 -202.390029 
L 126.166457 -204.093399 
L 130.375156 -206.150691 
L 134.583855 -208.617009 
L 138.792554 -211.551575 
L 143.001253 -215.016962 
L 147.209952 -219.078053 
L 151.418651 -223.800667 
L 155.62735 -229.249878 
L 159.836049 -235.488004 
L 164.044748 -242.572312 
L 168.253447 -250.552459 
L 172.462146 -259.467747 
L 176.670845 -269.344261 
L 180.879544 -280.192004 
L 185.088243 -292.002137 
L 189.296942 -304.744465 
L 193.505641 -318.365297 
L 197.71434 -332.785841 
L 201.923039 -347.901251 
L 206.131738 -363.580456 
L 210.340437 -379.666871 
L 214.549136 -395.980052 
L 218.757835 -412.31833 
L 222.966534 -428.4624 
L 227.175233 -444.179822 
L 231.383932 -459.230303 
L 235.592631 -473.371627 
L 239.80133 -486.366018 
L 244.010029 -497.986726 
L 248.218728 -508.02457 
L 252.427427 -516.294181 
L 256.636126 -522.639693 
L 260.844825 -526.939623 
L 265.053524 -529.110739 
L 269.262223 -529.110739 
L 273.470922 -526.939623 
L 277.679621 -522.639693 
L 281.88832 -516.294181 
L 286.097019 -508.02457 
L 290.305717 -497.986726 
L 294.514416 -486.366018 
L 298.723115 -473.371627 
L 302.931814 -459.230303 
L 307.140513 -444.179822 
L 311.349212 -428.4624 
L 315.557911 -412.31833 
L 319.76661 -395.980052 
L 323.975309 -379.666871 
L 328.184008 -363.580456 
L 332.392707 -347.901251 
L 336.601406 -332.785841 
L 340.810105 -318.365297 
L 345.018804 -304.744465 
L 349.227503 -292.002137 
L 353.436202 -280.192004 
L 357.644901 -269.344261 
L 361.8536 -259.467747 
L 366.062299 -250.552459 
L 370.270998 -242.572312 
L 374.479697 -235.488004 
L 378.688396 -229.249878 
L 382.897095 -223.800667 
L 387.105794 -219.078053 
L 391.314493 -215.016962 
L 395.523192 -211.551575 
L 399.731891 -208.617009 
L 403.94059 -206.150691 
L 408.149289 -204.093399 
L 412.357988 -202.390029 
L 416.566687 -200.990079 
L 420.775386 -199.847921 
L 424.984085 -198.922859 
L 429.192784 -198.179047 
L 433.401483 -197.585273 
L 437.610182 -197.114666 
L 441.818881 -196.744335 
L 446.02758 -196.454982 
L 450.236279 -196.230497 
L 454.444978 -196.057565 
L 458.653677 -195.925281 
L 462.862376 -195.8248 
L 467.071075 -195.749007 
L 471.279774 -195.692234 
L 475.488473 -195.650004 
L 475.488473 -195.538011 
L 475.488473 -195.538011 
L 471.279774 -195.538011 
L 467.071075 -195.538011 
L 462.862376 -195.538011 
L 458.653677 -195.538011 
L 454.444978 -195.538011 
L 450.236279 -195.538011 
L 446.02758 -195.538011 
L 441.818881 -195.538011 
L 437.610182 -195.538011 
L 433.401483 -195.538011 
L 429.192784 -195.538011 
L 424.984085 -195.538011 
L 420.775386 -195.538011 
L 416.566687 -195.538011 
L 412.357988 -195.538011 
L 408.149289 -195.538011 
L 403.94059 -195.538011 
L 399.731891 -195.538011 
L 395.523192 -195.538011 
L 391.314493 -195.538011 
L 387.105794 -195.538011 
L 382.897095 -195.538011 
L 378.688396 -195.538011 
L 374.479697 -195.538011 
L 370.270998 -195.538011 
L 366.062299 -195.538011 
L 361.8536 -195.538011 
L 357.644901 -195.538011 
L 353.436202 -195.538011 
L 349.227503 -195.538011 
L 345.018804 -195.538011 
L 340.810105 -195.538011 
L 336.601406 -195.538011 
L 332.392707 -195.538011 
L 328.184008 -195.538011 
L 323.975309 -195.538011 
L 319.76661 -195.538011 
L 315.557911 -195.538011 
L 311.349212 -195.538011 
L 307.140513 -195.538011 
L 302.931814 -195.538011 
L 298.723115 -195.538011 
L 294.514416 -195.538011 
L 290.305717 -195.538011 
L 286.097019 -195.538011 
L 281.88832 -195.538011 
L 277.679621 -195.538011 
L 273.470922 -195.538011 
L 269.262223 -195.538011 
L 265.053524 -195.538011 
L 260.844825 -195.538011 
L 256.636126 -195.538011 
L 252.427427 -195.538011 
L 248.218728 -195.538011 
L 244.010029 -195.538011 
L 239.80133 -195.538011 
L 235.592631 -195.538011 
L 231.383932 -195.538011 
L 227.175233 -195.538011 
L 222.966534 -195.538011 
L 218.757835 -195.538011 
L 214.549136 -195.538011 
L 210.340437 -195.538011 
L 206.131738 -195.538011 
L 201.923039 -195.538011 
L 197.71434 -195.538011 
L 193.505641 -195.538011 
L 189.296942 -195.538011 
L 185.088243 -195.538011 
L 180.879544 -195.538011 
L 176.670845 -195.538011 
L 172.462146 -195.538011 
L 168.253447 -195.538011 
L 164.044748 -195.538011 
L 159.836049 -195.538011 
L 155.62735 -195.538011 
L 151.418651 -195.538011 
L 147.209952 -195.538011 
L 143.001253 -195.538011 
L 138.792554 -195.538011 
L 134.583855 -195.538011 
L 130.375156 -195.538011 
L 126.166457 -195.538011 
L 121.957758 -195.538011 
L 117.749059 -195.538011 
L 113.54036 -195.538011 
L 109.331661 -195.538011 
L 105.122962 -195.538011 
L 100.914263 -195.538011 
L 96.705564 -195.538011 
L 92.496865 -195.538011 
L 88.288166 -195.538011 
L 84.079467 -195.538011 
L 79.870768 -195.538011 
L 75.662069 -195.538011 
L 71.45337 -195.538011 
L 67.244671 -195.538011 
L 63.035972 -195.538011 
L 58.827273 -195.538011 
z
" id="m261b57b718" style="stroke:#4bc0c0;stroke-opacity:0.5;"/>
    </defs>
    <g clip-path="url(#p7142a5ff9c)">
     <use style="fill:#4bc0c0;fill-opacity:0.5;stroke:#4bc0c0;stroke-opacity:0.5;" x="0" xlink:href="#m261b57b718" y="581.789375"/>
    </g>
   </g>
   <g id="PolyCollection_4">
    <defs>
     <path d="M 94.297551 -195.538011 
L 94.297551 -195.64883 
L 98.550836 -195.690618 
L 102.80412 -195.746795 
L 107.057405 -195.821793 
L 111.310689 -195.921222 
L 115.563974 -196.052119 
L 119.817259 -196.223238 
L 124.070543 -196.445369 
L 128.323828 -196.73169 
L 132.577113 -197.098138 
L 136.830397 -197.563812 
L 141.083682 -198.151362 
L 145.336966 -198.887377 
L 149.590251 -199.802742 
L 153.843536 -200.932927 
L 158.09682 -202.318201 
L 162.350105 -204.003716 
L 166.603389 -206.039442 
L 170.856674 -208.479907 
L 175.109959 -211.38371 
L 179.363243 -214.812772 
L 183.616528 -218.831291 
L 187.869812 -223.5044 
L 192.123097 -228.896489 
L 196.376382 -235.069223 
L 200.629666 -242.079269 
L 204.882951 -249.975763 
L 209.136235 -258.797595 
L 213.38952 -268.570577 
L 217.642805 -279.304607 
L 221.896089 -290.99094 
L 226.149374 -303.599694 
L 230.402659 -317.077744 
L 234.655943 -331.347123 
L 238.909228 -346.304083 
L 243.162512 -361.818929 
L 247.415797 -377.736716 
L 251.669082 -393.878892 
L 255.922366 -410.045902 
L 260.175651 -426.02074 
L 264.428935 -441.573401 
L 268.68222 -456.466114 
L 272.935505 -470.459199 
L 277.188789 -483.317375 
L 281.442074 -494.816268 
L 285.695358 -504.748889 
L 289.948643 -512.931813 
L 294.201928 -519.210807 
L 298.455212 -523.465662 
L 302.708497 -525.614019 
L 306.961781 -525.614019 
L 311.215066 -523.465662 
L 315.468351 -519.210807 
L 319.721635 -512.931813 
L 323.97492 -504.748889 
L 328.228205 -494.816268 
L 332.481489 -483.317375 
L 336.734774 -470.459199 
L 340.988058 -456.466114 
L 345.241343 -441.573401 
L 349.494628 -426.02074 
L 353.747912 -410.045902 
L 358.001197 -393.878892 
L 362.254481 -377.736716 
L 366.507766 -361.818929 
L 370.761051 -346.304083 
L 375.014335 -331.347123 
L 379.26762 -317.077744 
L 383.520904 -303.599694 
L 387.774189 -290.99094 
L 392.027474 -279.304607 
L 396.280758 -268.570577 
L 400.534043 -258.797595 
L 404.787327 -249.975763 
L 409.040612 -242.079269 
L 413.293897 -235.069223 
L 417.547181 -228.896489 
L 421.800466 -223.5044 
L 426.05375 -218.831291 
L 430.307035 -214.812772 
L 434.56032 -211.38371 
L 438.813604 -208.479907 
L 443.066889 -206.039442 
L 447.320174 -204.003716 
L 451.573458 -202.318201 
L 455.826743 -200.932927 
L 460.080027 -199.802742 
L 464.333312 -198.887377 
L 468.586597 -198.151362 
L 472.839881 -197.563812 
L 477.093166 -197.098138 
L 481.34645 -196.73169 
L 485.599735 -196.445369 
L 489.85302 -196.223238 
L 494.106304 -196.052119 
L 498.359589 -195.921222 
L 502.612873 -195.821793 
L 506.866158 -195.746795 
L 511.119443 -195.690618 
L 515.372727 -195.64883 
L 515.372727 -195.538011 
L 515.372727 -195.538011 
L 511.119443 -195.538011 
L 506.866158 -195.538011 
L 502.612873 -195.538011 
L 498.359589 -195.538011 
L 494.106304 -195.538011 
L 489.85302 -195.538011 
L 485.599735 -195.538011 
L 481.34645 -195.538011 
L 477.093166 -195.538011 
L 472.839881 -195.538011 
L 468.586597 -195.538011 
L 464.333312 -195.538011 
L 460.080027 -195.538011 
L 455.826743 -195.538011 
L 451.573458 -195.538011 
L 447.320174 -195.538011 
L 443.066889 -195.538011 
L 438.813604 -195.538011 
L 434.56032 -195.538011 
L 430.307035 -195.538011 
L 426.05375 -195.538011 
L 421.800466 -195.538011 
L 417.547181 -195.538011 
L 413.293897 -195.538011 
L 409.040612 -195.538011 
L 404.787327 -195.538011 
L 400.534043 -195.538011 
L 396.280758 -195.538011 
L 392.027474 -195.538011 
L 387.774189 -195.538011 
L 383.520904 -195.538011 
L 379.26762 -195.538011 
L 375.014335 -195.538011 
L 370.761051 -195.538011 
L 366.507766 -195.538011 
L 362.254481 -195.538011 
L 358.001197 -195.538011 
L 353.747912 -195.538011 
L 349.494628 -195.538011 
L 345.241343 -195.538011 
L 340.988058 -195.538011 
L 336.734774 -195.538011 
L 332.481489 -195.538011 
L 328.228205 -195.538011 
L 323.97492 -195.538011 
L 319.721635 -195.538011 
L 315.468351 -195.538011 
L 311.215066 -195.538011 
L 306.961781 -195.538011 
L 302.708497 -195.538011 
L 298.455212 -195.538011 
L 294.201928 -195.538011 
L 289.948643 -195.538011 
L 285.695358 -195.538011 
L 281.442074 -195.538011 
L 277.188789 -195.538011 
L 272.935505 -195.538011 
L 268.68222 -195.538011 
L 264.428935 -195.538011 
L 260.175651 -195.538011 
L 255.922366 -195.538011 
L 251.669082 -195.538011 
L 247.415797 -195.538011 
L 243.162512 -195.538011 
L 238.909228 -195.538011 
L 234.655943 -195.538011 
L 230.402659 -195.538011 
L 226.149374 -195.538011 
L 221.896089 -195.538011 
L 217.642805 -195.538011 
L 213.38952 -195.538011 
L 209.136235 -195.538011 
L 204.882951 -195.538011 
L 200.629666 -195.538011 
L 196.376382 -195.538011 
L 192.123097 -195.538011 
L 187.869812 -195.538011 
L 183.616528 -195.538011 
L 179.363243 -195.538011 
L 175.109959 -195.538011 
L 170.856674 -195.538011 
L 166.603389 -195.538011 
L 162.350105 -195.538011 
L 158.09682 -195.538011 
L 153.843536 -195.538011 
L 149.590251 -195.538011 
L 145.336966 -195.538011 
L 141.083682 -195.538011 
L 136.830397 -195.538011 
L 132.577113 -195.538011 
L 128.323828 -195.538011 
L 124.070543 -195.538011 
L 119.817259 -195.538011 
L 115.563974 -195.538011 
L 111.310689 -195.538011 
L 107.057405 -195.538011 
L 102.80412 -195.538011 
L 98.550836 -195.538011 
L 94.297551 -195.538011 
z
" id="ma74f198dcf" style="stroke:#9966ff;stroke-opacity:0.5;"/>
    </defs>
    <g clip-path="url(#p7142a5ff9c)">
     <use style="fill:#9966ff;fill-opacity:0.5;stroke:#9966ff;stroke-opacity:0.5;" x="0" xlink:href="#ma74f198dcf" y="581.789375"/>
    </g>
   </g>
   <g id="line2d_1">
    <path clip-path="url(#p7142a5ff9c)" d="M 84.111336 386.14024 
L 88.352929 386.098337 
L 92.594522 386.042004 
L 96.836116 385.966799 
L 101.077709 385.867097 
L 105.319302 385.735839 
L 109.560896 385.564248 
L 113.802489 385.341505 
L 118.044082 385.054395 
L 122.285676 384.686936 
L 126.527269 384.219979 
L 130.768862 383.63081 
L 135.010456 382.892766 
L 139.252049 381.974878 
L 143.493642 380.841577 
L 147.735236 379.452485 
L 151.976829 377.762324 
L 156.218422 375.720987 
L 160.460016 373.273796 
L 164.701609 370.361989 
L 168.943202 366.923476 
L 173.184796 362.893879 
L 177.426389 358.20789 
L 181.667982 352.800939 
L 185.909576 346.611191 
L 190.151169 339.581823 
L 194.392762 331.663563 
L 198.634356 322.817415 
L 202.875949 313.017496 
L 207.117542 302.253879 
L 211.359136 290.535335 
L 215.600729 277.891826 
L 219.842323 264.376626 
L 224.083916 250.067916 
L 228.325509 235.069729 
L 232.567103 219.51212 
L 236.808696 203.550458 
L 241.050289 187.363788 
L 245.291883 171.152217 
L 249.533476 155.133347 
L 253.775069 139.537817 
L 258.016663 124.604055 
L 262.258256 110.5724 
L 266.499849 97.678782 
L 270.741443 86.148195 
L 274.983036 76.188197 
L 279.224629 67.982718 
L 283.466223 61.686416 
L 287.707816 57.419833 
L 291.949409 55.265555 
L 296.191003 55.265555 
L 300.432596 57.419833 
L 304.674189 61.686416 
L 308.915783 67.982718 
L 313.157376 76.188197 
L 317.398969 86.148195 
L 321.640563 97.678782 
L 325.882156 110.5724 
L 330.123749 124.604055 
L 334.365343 139.537817 
L 338.606936 155.133347 
L 342.848529 171.152217 
L 347.090123 187.363788 
L 351.331716 203.550458 
L 355.573309 219.51212 
L 359.814903 235.069729 
L 364.056496 250.067916 
L 368.298089 264.376626 
L 372.539683 277.891826 
L 376.781276 290.535335 
L 381.022869 302.253879 
L 385.264463 313.017496 
L 389.506056 322.817415 
L 393.747649 331.663563 
L 397.989243 339.581823 
L 402.230836 346.611191 
L 406.472429 352.800939 
L 410.714023 358.20789 
L 414.955616 362.893879 
L 419.19721 366.923476 
L 423.438803 370.361989 
L 427.680396 373.273796 
L 431.92199 375.720987 
L 436.163583 377.762324 
L 440.405176 379.452485 
L 444.64677 380.841577 
L 448.888363 381.974878 
L 453.129956 382.892766 
L 457.37155 383.63081 
L 461.613143 384.219979 
L 465.854736 384.686936 
L 470.09633 385.054395 
L 474.337923 385.341505 
L 478.579516 385.564248 
L 482.82111 385.735839 
L 487.062703 385.867097 
L 491.304296 385.966799 
L 495.54589 386.042004 
L 499.787483 386.098337 
L 504.029076 386.14024 
" style="fill:none;stroke:#ff6384;stroke-linecap:square;"/>
   </g>
   <g id="line2d_2">
    <path clip-path="url(#p7142a5ff9c)" d="M 94.569991 386.140401 
L 98.817772 386.09856 
L 103.065553 386.042309 
L 107.313334 385.967214 
L 111.561114 385.867657 
L 115.808895 385.73659 
L 120.056676 385.565249 
L 124.304457 385.34283 
L 128.552238 385.056139 
L 132.800018 384.689215 
L 137.047799 384.222938 
L 141.29558 383.634627 
L 145.543361 382.897658 
L 149.791141 381.981107 
L 154.038922 380.849457 
L 158.286703 379.462389 
L 162.534484 377.77469 
L 166.782264 375.736326 
L 171.030045 373.292699 
L 175.277826 370.385134 
L 179.525607 366.951629 
L 183.773387 362.927903 
L 188.021168 358.248739 
L 192.268949 352.849664 
L 196.51673 346.668931 
L 200.76451 339.649803 
L 205.012291 331.743077 
L 209.260072 322.909815 
L 213.507853 313.12417 
L 217.755634 302.376232 
L 222.003414 290.674757 
L 226.251195 278.049665 
L 230.498976 264.554152 
L 234.746757 250.266284 
L 238.994537 235.289944 
L 243.242318 219.754996 
L 247.490099 203.816584 
L 251.73788 187.653493 
L 255.98566 171.465536 
L 260.233441 155.469999 
L 264.481222 139.897186 
L 268.729003 124.985177 
L 272.976783 110.97396 
L 277.224564 98.099124 
L 281.472345 86.585332 
L 285.720126 76.639842 
L 289.967906 68.446316 
L 294.215687 62.159185 
L 298.463468 57.898817 
L 302.711249 55.747677 
L 306.95903 55.747677 
L 311.20681 57.898817 
L 315.454591 62.159185 
L 319.702372 68.446316 
L 323.950153 76.639842 
L 328.197933 86.585332 
L 332.445714 98.099124 
L 336.693495 110.97396 
L 340.941276 124.985177 
L 345.189056 139.897186 
L 349.436837 155.469999 
L 353.684618 171.465536 
L 357.932399 187.653493 
L 362.180179 203.816584 
L 366.42796 219.754996 
L 370.675741 235.289944 
L 374.923522 250.266284 
L 379.171302 264.554152 
L 383.419083 278.049665 
L 387.666864 290.674757 
L 391.914645 302.376232 
L 396.162426 313.12417 
L 400.410206 322.909815 
L 404.657987 331.743077 
L 408.905768 339.649803 
L 413.153549 346.668931 
L 417.401329 352.849664 
L 421.64911 358.248739 
L 425.896891 362.927903 
L 430.144672 366.951629 
L 434.392452 370.385134 
L 438.640233 373.292699 
L 442.888014 375.736326 
L 447.135795 377.77469 
L 451.383575 379.462389 
L 455.631356 380.849457 
L 459.879137 381.981107 
L 464.126918 382.897658 
L 468.374699 383.634627 
L 472.622479 384.222938 
L 476.87026 384.689215 
L 481.118041 385.056139 
L 485.365822 385.34283 
L 489.613602 385.565249 
L 493.861383 385.73659 
L 498.109164 385.867657 
L 502.356945 385.967214 
L 506.604725 386.042309 
L 510.852506 386.09856 
L 515.100287 386.140401 
" style="fill:none;stroke:#36a2eb;stroke-linecap:square;"/>
   </g>
   <g id="line2d_3">
    <path clip-path="url(#p7142a5ff9c)" d="M 58.827273 386.139371 
L 63.035972 386.097141 
L 67.244671 386.040368 
L 71.45337 385.964575 
L 75.662069 385.864094 
L 79.870768 385.73181 
L 84.079467 385.558878 
L 88.288166 385.334393 
L 92.496865 385.04504 
L 96.705564 384.674709 
L 100.914263 384.204102 
L 105.122962 383.610328 
L 109.331661 382.866516 
L 113.54036 381.941454 
L 117.749059 380.799296 
L 121.957758 379.399346 
L 126.166457 377.695976 
L 130.375156 375.638684 
L 134.583855 373.172366 
L 138.792554 370.2378 
L 143.001253 366.772413 
L 147.209952 362.711322 
L 151.418651 357.988708 
L 155.62735 352.539497 
L 159.836049 346.301371 
L 164.044748 339.217063 
L 168.253447 331.236916 
L 172.462146 322.321628 
L 176.670845 312.445114 
L 180.879544 301.597371 
L 185.088243 289.787238 
L 189.296942 277.04491 
L 193.505641 263.424078 
L 197.71434 249.003534 
L 201.923039 233.888124 
L 206.131738 218.208919 
L 210.340437 202.122504 
L 214.549136 185.809323 
L 218.757835 169.471045 
L 222.966534 153.326975 
L 227.175233 137.609553 
L 231.383932 122.559072 
L 235.592631 108.417748 
L 239.80133 95.423357 
L 244.010029 83.802649 
L 248.218728 73.764805 
L 252.427427 65.495194 
L 256.636126 59.149682 
L 260.844825 54.849752 
L 265.053524 52.678636 
L 269.262223 52.678636 
L 273.470922 54.849752 
L 277.679621 59.149682 
L 281.88832 65.495194 
L 286.097019 73.764805 
L 290.305717 83.802649 
L 294.514416 95.423357 
L 298.723115 108.417748 
L 302.931814 122.559072 
L 307.140513 137.609553 
L 311.349212 153.326975 
L 315.557911 169.471045 
L 319.76661 185.809323 
L 323.975309 202.122504 
L 328.184008 218.208919 
L 332.392707 233.888124 
L 336.601406 249.003534 
L 340.810105 263.424078 
L 345.018804 277.04491 
L 349.227503 289.787238 
L 353.436202 301.597371 
L 357.644901 312.445114 
L 361.8536 322.321628 
L 366.062299 331.236916 
L 370.270998 339.217063 
L 374.479697 346.301371 
L 378.688396 352.539497 
L 382.897095 357.988708 
L 387.105794 362.711322 
L 391.314493 366.772413 
L 395.523192 370.2378 
L 399.731891 373.172366 
L 403.94059 375.638684 
L 408.149289 377.695976 
L 412.357988 379.399346 
L 416.566687 380.799296 
L 420.775386 381.941454 
L 424.984085 382.866516 
L 429.192784 383.610328 
L 433.401483 384.204102 
L 437.610182 384.674709 
L 441.818881 385.04504 
L 446.02758 385.334393 
L 450.236279 385.558878 
L 454.444978 385.73181 
L 458.653677 385.864094 
L 462.862376 385.964575 
L 467.071075 386.040368 
L 471.279774 386.097141 
L 475.488473 386.139371 
" style="fill:none;stroke:#4bc0c0;stroke-linecap:square;"/>
   </g>
   <g id="line2d_4">
    <path clip-path="url(#p7142a5ff9c)" d="M 94.297551 386.140545 
L 98.550836 386.098757 
L 102.80412 386.04258 
L 107.057405 385.967582 
L 111.310689 385.868153 
L 115.563974 385.737256 
L 119.817259 385.566137 
L 124.070543 385.344006 
L 128.323828 385.057685 
L 132.577113 384.691237 
L 136.830397 384.225563 
L 141.083682 383.638013 
L 145.336966 382.901998 
L 149.590251 381.986633 
L 153.843536 380.856448 
L 158.09682 379.471174 
L 162.350105 377.785659 
L 166.603389 375.749933 
L 170.856674 373.309468 
L 175.109959 370.405665 
L 179.363243 366.976603 
L 183.616528 362.958084 
L 187.869812 358.284975 
L 192.123097 352.892886 
L 196.376382 346.720152 
L 200.629666 339.710106 
L 204.882951 331.813612 
L 209.136235 322.99178 
L 213.38952 313.218798 
L 217.642805 302.484768 
L 221.896089 290.798435 
L 226.149374 278.189681 
L 230.402659 264.711631 
L 234.655943 250.442252 
L 238.909228 235.485292 
L 243.162512 219.970446 
L 247.415797 204.052659 
L 251.669082 187.910483 
L 255.922366 171.743473 
L 260.175651 155.768635 
L 264.428935 140.215974 
L 268.68222 125.323261 
L 272.935505 111.330176 
L 277.188789 98.472 
L 281.442074 86.973107 
L 285.695358 77.040486 
L 289.948643 68.857562 
L 294.201928 62.578568 
L 298.455212 58.323713 
L 302.708497 56.175356 
L 306.961781 56.175356 
L 311.215066 58.323713 
L 315.468351 62.578568 
L 319.721635 68.857562 
L 323.97492 77.040486 
L 328.228205 86.973107 
L 332.481489 98.472 
L 336.734774 111.330176 
L 340.988058 125.323261 
L 345.241343 140.215974 
L 349.494628 155.768635 
L 353.747912 171.743473 
L 358.001197 187.910483 
L 362.254481 204.052659 
L 366.507766 219.970446 
L 370.761051 235.485292 
L 375.014335 250.442252 
L 379.26762 264.711631 
L 383.520904 278.189681 
L 387.774189 290.798435 
L 392.027474 302.484768 
L 396.280758 313.218798 
L 400.534043 322.99178 
L 404.787327 331.813612 
L 409.040612 339.710106 
L 413.293897 346.720152 
L 417.547181 352.892886 
L 421.800466 358.284975 
L 426.05375 362.958084 
L 430.307035 366.976603 
L 434.56032 370.405665 
L 438.813604 373.309468 
L 443.066889 375.749933 
L 447.320174 377.785659 
L 451.573458 379.471174 
L 455.826743 380.856448 
L 460.080027 381.986633 
L 464.333312 382.901998 
L 468.586597 383.638013 
L 472.839881 384.225563 
L 477.093166 384.691237 
L 481.34645 385.057685 
L 485.599735 385.344006 
L 489.85302 385.566137 
L 494.106304 385.737256 
L 498.359589 385.868153 
L 502.612873 385.967582 
L 506.866158 386.04258 
L 511.119443 386.098757 
L 515.372727 386.140545 
" style="fill:none;stroke:#9966ff;stroke-linecap:square;"/>
   </g>
   <g id="patch_3">
    <path d="M 36 402.93 
L 538.2 402.93 
" style="fill:none;stroke:#000000;stroke-linecap:square;stroke-linejoin:miter;stroke-width:0.8;"/>
   </g>
   <g id="legend_1">
    <g id="patch_4">
     <path d="M 450.225313 129.3975 
L 528.4 129.3975 
Q 531.2 129.3975 531.2 126.5975 
L 531.2 45.8 
Q 531.2 43 528.4 43 
L 450.225313 43 
Q 447.425313 43 447.425313 45.8 
L 447.425313 126.5975 
Q 447.425313 129.3975 450.225313 129.3975 
z
" style="fill:#ffffff;opacity:0.8;stroke:#cccccc;stroke-linejoin:miter;"/>
    </g>
    <g id="patch_5">
     <path d="M 453.025313 59.237813 
L 481.025313 59.237813 
L 481.025313 49.437813 
L 453.025313 49.437813 
z
" style="fill:#ff6384;opacity:0.5;stroke:#ff6384;stroke-linejoin:miter;"/>
    </g>
    <g id="text_1">
     <!-- base -->
     <defs>
      <path d="M 48.6875 27.296875 
Q 48.6875 37.203125 44.609375 42.84375 
Q 40.53125 48.484375 33.40625 48.484375 
Q 26.265625 48.484375 22.1875 42.84375 
Q 18.109375 37.203125 18.109375 27.296875 
Q 18.109375 17.390625 22.1875 11.75 
Q 26.265625 6.109375 33.40625 6.109375 
Q 40.53125 6.109375 44.609375 11.75 
Q 48.6875 17.390625 48.6875 27.296875 
z
M 18.109375 46.390625 
Q 20.953125 51.265625 25.265625 53.625 
Q 29.59375 56 35.59375 56 
Q 45.5625 56 51.78125 48.09375 
Q 58.015625 40.1875 58.015625 27.296875 
Q 58.015625 14.40625 51.78125 6.484375 
Q 45.5625 -1.421875 35.59375 -1.421875 
Q 29.59375 -1.421875 25.265625 0.953125 
Q 20.953125 3.328125 18.109375 8.203125 
L 18.109375 0 
L 9.078125 0 
L 9.078125 75.984375 
L 18.109375 75.984375 
z
" id="DejaVuSans-98"/>
      <path d="M 34.28125 27.484375 
Q 23.390625 27.484375 19.1875 25 
Q 14.984375 22.515625 14.984375 16.5 
Q 14.984375 11.71875 18.140625 8.90625 
Q 21.296875 6.109375 26.703125 6.109375 
Q 34.1875 6.109375 38.703125 11.40625 
Q 43.21875 16.703125 43.21875 25.484375 
L 43.21875 27.484375 
z
M 52.203125 31.203125 
L 52.203125 0 
L 43.21875 0 
L 43.21875 8.296875 
Q 40.140625 3.328125 35.546875 0.953125 
Q 30.953125 -1.421875 24.3125 -1.421875 
Q 15.921875 -1.421875 10.953125 3.296875 
Q 6 8.015625 6 15.921875 
Q 6 25.140625 12.171875 29.828125 
Q 18.359375 34.515625 30.609375 34.515625 
L 43.21875 34.515625 
L 43.21875 35.40625 
Q 43.21875 41.609375 39.140625 45 
Q 35.0625 48.390625 27.6875 48.390625 
Q 23 48.390625 18.546875 47.265625 
Q 14.109375 46.140625 10.015625 43.890625 
L 10.015625 52.203125 
Q 14.9375 54.109375 19.578125 55.046875 
Q 24.21875 56 28.609375 56 
Q 40.484375 56 46.34375 49.84375 
Q 52.203125 43.703125 52.203125 31.203125 
z
" id="DejaVuSans-97"/>
      <path d="M 44.28125 53.078125 
L 44.28125 44.578125 
Q 40.484375 46.53125 36.375 47.5 
Q 32.28125 48.484375 27.875 48.484375 
Q 21.1875 48.484375 17.84375 46.4375 
Q 14.5 44.390625 14.5 40.28125 
Q 14.5 37.15625 16.890625 35.375 
Q 19.28125 33.59375 26.515625 31.984375 
L 29.59375 31.296875 
Q 39.15625 29.25 43.1875 25.515625 
Q 47.21875 21.78125 47.21875 15.09375 
Q 47.21875 7.46875 41.1875 3.015625 
Q 35.15625 -1.421875 24.609375 -1.421875 
Q 20.21875 -1.421875 15.453125 -0.5625 
Q 10.6875 0.296875 5.421875 2 
L 5.421875 11.28125 
Q 10.40625 8.6875 15.234375 7.390625 
Q 20.0625 6.109375 24.8125 6.109375 
Q 31.15625 6.109375 34.5625 8.28125 
Q 37.984375 10.453125 37.984375 14.40625 
Q 37.984375 18.0625 35.515625 20.015625 
Q 33.0625 21.96875 24.703125 23.78125 
L 21.578125 24.515625 
Q 13.234375 26.265625 9.515625 29.90625 
Q 5.8125 33.546875 5.8125 39.890625 
Q 5.8125 47.609375 11.28125 51.796875 
Q 16.75 56 26.8125 56 
Q 31.78125 56 36.171875 55.265625 
Q 40.578125 54.546875 44.28125 53.078125 
z
" id="DejaVuSans-115"/>
      <path d="M 56.203125 29.59375 
L 56.203125 25.203125 
L 14.890625 25.203125 
Q 15.484375 15.921875 20.484375 11.0625 
Q 25.484375 6.203125 34.421875 6.203125 
Q 39.59375 6.203125 44.453125 7.46875 
Q 49.3125 8.734375 54.109375 11.28125 
L 54.109375 2.78125 
Q 49.265625 0.734375 44.1875 -0.34375 
Q 39.109375 -1.421875 33.890625 -1.421875 
Q 20.796875 -1.421875 13.15625 6.1875 
Q 5.515625 13.8125 5.515625 26.8125 
Q 5.515625 40.234375 12.765625 48.109375 
Q 20.015625 56 32.328125 56 
Q 43.359375 56 49.78125 48.890625 
Q 56.203125 41.796875 56.203125 29.59375 
z
M 47.21875 32.234375 
Q 47.125 39.59375 43.09375 43.984375 
Q 39.0625 48.390625 32.421875 48.390625 
Q 24.90625 48.390625 20.390625 44.140625 
Q 15.875 39.890625 15.1875 32.171875 
z
" id="DejaVuSans-101"/>
     </defs>
     <g transform="translate(492.225313 59.237813)scale(0.14 -0.14)">
      <use xlink:href="#DejaVuSans-98"/>
      <use x="63.476562" xlink:href="#DejaVuSans-97"/>
      <use x="124.755859" xlink:href="#DejaVuSans-115"/>
      <use x="176.855469" xlink:href="#DejaVuSans-101"/>
     </g>
    </g>
    <g id="patch_6">
     <path d="M 453.025313 79.787188 
L 481.025313 79.787188 
L 481.025313 69.987188 
L 453.025313 69.987188 
z
" style="fill:#36a2eb;opacity:0.5;stroke:#36a2eb;stroke-linejoin:miter;"/>
    </g>
    <g id="text_2">
     <!-- fifth -->
     <defs>
      <path d="M 37.109375 75.984375 
L 37.109375 68.5 
L 28.515625 68.5 
Q 23.6875 68.5 21.796875 66.546875 
Q 19.921875 64.59375 19.921875 59.515625 
L 19.921875 54.6875 
L 34.71875 54.6875 
L 34.71875 47.703125 
L 19.921875 47.703125 
L 19.921875 0 
L 10.890625 0 
L 10.890625 47.703125 
L 2.296875 47.703125 
L 2.296875 54.6875 
L 10.890625 54.6875 
L 10.890625 58.5 
Q 10.890625 67.625 15.140625 71.796875 
Q 19.390625 75.984375 28.609375 75.984375 
z
" id="DejaVuSans-102"/>
      <path d="M 9.421875 54.6875 
L 18.40625 54.6875 
L 18.40625 0 
L 9.421875 0 
z
M 9.421875 75.984375 
L 18.40625 75.984375 
L 18.40625 64.59375 
L 9.421875 64.59375 
z
" id="DejaVuSans-105"/>
      <path d="M 18.3125 70.21875 
L 18.3125 54.6875 
L 36.8125 54.6875 
L 36.8125 47.703125 
L 18.3125 47.703125 
L 18.3125 18.015625 
Q 18.3125 11.328125 20.140625 9.421875 
Q 21.96875 7.515625 27.59375 7.515625 
L 36.8125 7.515625 
L 36.8125 0 
L 27.59375 0 
Q 17.1875 0 13.234375 3.875 
Q 9.28125 7.765625 9.28125 18.015625 
L 9.28125 47.703125 
L 2.6875 47.703125 
L 2.6875 54.6875 
L 9.28125 54.6875 
L 9.28125 70.21875 
z
" id="DejaVuSans-116"/>
      <path d="M 54.890625 33.015625 
L 54.890625 0 
L 45.90625 0 
L 45.90625 32.71875 
Q 45.90625 40.484375 42.875 44.328125 
Q 39.84375 48.1875 33.796875 48.1875 
Q 26.515625 48.1875 22.3125 43.546875 
Q 18.109375 38.921875 18.109375 30.90625 
L 18.109375 0 
L 9.078125 0 
L 9.078125 75.984375 
L 18.109375 75.984375 
L 18.109375 46.1875 
Q 21.34375 51.125 25.703125 53.5625 
Q 30.078125 56 35.796875 56 
Q 45.21875 56 50.046875 50.171875 
Q 54.890625 44.34375 54.890625 33.015625 
z
" id="DejaVuSans-104"/>
     </defs>
     <g transform="translate(492.225313 79.787188)scale(0.14 -0.14)">
      <use xlink:href="#DejaVuSans-102"/>
      <use x="35.205078" xlink:href="#DejaVuSans-105"/>
      <use x="62.988281" xlink:href="#DejaVuSans-102"/>
      <use x="98.177734" xlink:href="#DejaVuSans-116"/>
      <use x="137.386719" xlink:href="#DejaVuSans-104"/>
     </g>
    </g>
    <g id="patch_7">
     <path d="M 453.025313 100.336563 
L 481.025313 100.336563 
L 481.025313 90.536563 
L 453.025313 90.536563 
z
" style="fill:#4bc0c0;opacity:0.5;stroke:#4bc0c0;stroke-linejoin:miter;"/>
    </g>
    <g id="text_3">
     <!-- mid -->
     <defs>
      <path d="M 52 44.1875 
Q 55.375 50.25 60.0625 53.125 
Q 64.75 56 71.09375 56 
Q 79.640625 56 84.28125 50.015625 
Q 88.921875 44.046875 88.921875 33.015625 
L 88.921875 0 
L 79.890625 0 
L 79.890625 32.71875 
Q 79.890625 40.578125 77.09375 44.375 
Q 74.3125 48.1875 68.609375 48.1875 
Q 61.625 48.1875 57.5625 43.546875 
Q 53.515625 38.921875 53.515625 30.90625 
L 53.515625 0 
L 44.484375 0 
L 44.484375 32.71875 
Q 44.484375 40.625 41.703125 44.40625 
Q 38.921875 48.1875 33.109375 48.1875 
Q 26.21875 48.1875 22.15625 43.53125 
Q 18.109375 38.875 18.109375 30.90625 
L 18.109375 0 
L 9.078125 0 
L 9.078125 54.6875 
L 18.109375 54.6875 
L 18.109375 46.1875 
Q 21.1875 51.21875 25.484375 53.609375 
Q 29.78125 56 35.6875 56 
Q 41.65625 56 45.828125 52.96875 
Q 50 49.953125 52 44.1875 
z
" id="DejaVuSans-109"/>
      <path d="M 45.40625 46.390625 
L 45.40625 75.984375 
L 54.390625 75.984375 
L 54.390625 0 
L 45.40625 0 
L 45.40625 8.203125 
Q 42.578125 3.328125 38.25 0.953125 
Q 33.9375 -1.421875 27.875 -1.421875 
Q 17.96875 -1.421875 11.734375 6.484375 
Q 5.515625 14.40625 5.515625 27.296875 
Q 5.515625 40.1875 11.734375 48.09375 
Q 17.96875 56 27.875 56 
Q 33.9375 56 38.25 53.625 
Q 42.578125 51.265625 45.40625 46.390625 
z
M 14.796875 27.296875 
Q 14.796875 17.390625 18.875 11.75 
Q 22.953125 6.109375 30.078125 6.109375 
Q 37.203125 6.109375 41.296875 11.75 
Q 45.40625 17.390625 45.40625 27.296875 
Q 45.40625 37.203125 41.296875 42.84375 
Q 37.203125 48.484375 30.078125 48.484375 
Q 22.953125 48.484375 18.875 42.84375 
Q 14.796875 37.203125 14.796875 27.296875 
z
" id="DejaVuSans-100"/>
     </defs>
     <g transform="translate(492.225313 100.336563)scale(0.14 -0.14)">
      <use xlink:href="#DejaVuSans-109"/>
      <use x="97.412109" xlink:href="#DejaVuSans-105"/>
      <use x="125.195312" xlink:href="#DejaVuSans-100"/>
     </g>
    </g>
    <g id="patch_8">
     <path d="M 453.025313 120.885938 
L 481.025313 120.885938 
L 481.025313 111.085938 
L 453.025313 111.085938 
z
" style="fill:#9966ff;opacity:0.5;stroke:#9966ff;stroke-linejoin:miter;"/>
    </g>
    <g id="text_4">
     <!-- right -->
     <defs>
      <path d="M 41.109375 46.296875 
Q 39.59375 47.171875 37.8125 47.578125 
Q 36.03125 48 33.890625 48 
Q 26.265625 48 22.1875 43.046875 
Q 18.109375 38.09375 18.109375 28.8125 
L 18.109375 0 
L 9.078125 0 
L 9.078125 54.6875 
L 18.109375 54.6875 
L 18.109375 46.1875 
Q 20.953125 51.171875 25.484375 53.578125 
Q 30.03125 56 36.53125 56 
Q 37.453125 56 38.578125 55.875 
Q 39.703125 55.765625 41.0625 55.515625 
z
" id="DejaVuSans-114"/>
      <path d="M 45.40625 27.984375 
Q 45.40625 37.75 41.375 43.109375 
Q 37.359375 48.484375 30.078125 48.484375 
Q 22.859375 48.484375 18.828125 43.109375 
Q 14.796875 37.75 14.796875 27.984375 
Q 14.796875 18.265625 18.828125 12.890625 
Q 22.859375 7.515625 30.078125 7.515625 
Q 37.359375 7.515625 41.375 12.890625 
Q 45.40625 18.265625 45.40625 27.984375 
z
M 54.390625 6.78125 
Q 54.390625 -7.171875 48.1875 -13.984375 
Q 42 -20.796875 29.203125 -20.796875 
Q 24.46875 -20.796875 20.265625 -20.09375 
Q 16.0625 -19.390625 12.109375 -17.921875 
L 12.109375 -9.1875 
Q 16.0625 -11.328125 19.921875 -12.34375 
Q 23.78125 -13.375 27.78125 -13.375 
Q 36.625 -13.375 41.015625 -8.765625 
Q 45.40625 -4.15625 45.40625 5.171875 
L 45.40625 9.625 
Q 42.625 4.78125 38.28125 2.390625 
Q 33.9375 0 27.875 0 
Q 17.828125 0 11.671875 7.65625 
Q 5.515625 15.328125 5.515625 27.984375 
Q 5.515625 40.671875 11.671875 48.328125 
Q 17.828125 56 27.875 56 
Q 33.9375 56 38.28125 53.609375 
Q 42.625 51.21875 45.40625 46.390625 
L 45.40625 54.6875 
L 54.390625 54.6875 
z
" id="DejaVuSans-103"/>
     </defs>
     <g transform="translate(492.225313 120.885938)scale(0.14 -0.14)">
      <use xlink:href="#DejaVuSans-114"/>
      <use x="41.113281" xlink:href="#DejaVuSans-105"/>
      <use x="68.896484" xlink:href="#DejaVuSans-103"/>
      <use x="132.373047" xlink:href="#DejaVuSans-104"/>
      <use x="195.751953" xlink:href="#DejaVuSans-116"/>
     </g>
    </g>
   </g>
  </g>
  <g id="axes_2">
   <g id="patch_9">
    <path d="M 36 525.24 
L 538.2 525.24 
L 538.2 402.93 
L 36 402.93 
z
" style="fill:none;"/>
   </g>
   <g id="patch_10">
    <path clip-path="url(#p6578f44f11)" d="M 191.19036 519.680455 
L 396.950052 519.680455 
L 396.950052 503.796039 
L 191.19036 503.796039 
z
" style="fill:#ff6384;opacity:0.5;"/>
   </g>
   <g id="patch_11">
    <path clip-path="url(#p6578f44f11)" d="M 201.805217 487.911623 
L 407.865062 487.911623 
L 407.865062 472.027208 
L 201.805217 472.027208 
z
" style="fill:#36a2eb;opacity:0.5;"/>
   </g>
   <g id="patch_12">
    <path clip-path="url(#p6578f44f11)" d="M 165.075879 456.142792 
L 369.239867 456.142792 
L 369.239867 440.258377 
L 165.075879 440.258377 
z
" style="fill:#4bc0c0;opacity:0.5;"/>
   </g>
   <g id="patch_13">
    <path clip-path="url(#p6578f44f11)" d="M 201.671721 424.373961 
L 407.998557 424.373961 
L 407.998557 408.489545 
L 201.671721 408.489545 
z
" style="fill:#9966ff;opacity:0.5;"/>
   </g>
   <g id="matplotlib.axis_1">
    <g id="xtick_1">
     <g id="line2d_5">
      <defs>
       <path d="M 0 0 
L 0 3.5 
" id="mfac0cd30f8" style="stroke:#000000;stroke-width:0.8;"/>
      </defs>
      <g>
       <use style="stroke:#000000;stroke-width:0.8;" x="76.977387" xlink:href="#mfac0cd30f8" y="525.24"/>
      </g>
     </g>
     <g id="text_5">
      <!-- 4.0 -->
      <defs>
       <path d="M 37.796875 64.3125 
L 12.890625 25.390625 
L 37.796875 25.390625 
z
M 35.203125 72.90625 
L 47.609375 72.90625 
L 47.609375 25.390625 
L 58.015625 25.390625 
L 58.015625 17.1875 
L 47.609375 17.1875 
L 47.609375 0 
L 37.796875 0 
L 37.796875 17.1875 
L 4.890625 17.1875 
L 4.890625 26.703125 
z
" id="DejaVuSans-52"/>
       <path d="M 10.6875 12.40625 
L 21 12.40625 
L 21 0 
L 10.6875 0 
z
" id="DejaVuSans-46"/>
       <path d="M 31.78125 66.40625 
Q 24.171875 66.40625 20.328125 58.90625 
Q 16.5 51.421875 16.5 36.375 
Q 16.5 21.390625 20.328125 13.890625 
Q 24.171875 6.390625 31.78125 6.390625 
Q 39.453125 6.390625 43.28125 13.890625 
Q 47.125 21.390625 47.125 36.375 
Q 47.125 51.421875 43.28125 58.90625 
Q 39.453125 66.40625 31.78125 66.40625 
z
M 31.78125 74.21875 
Q 44.046875 74.21875 50.515625 64.515625 
Q 56.984375 54.828125 56.984375 36.375 
Q 56.984375 17.96875 50.515625 8.265625 
Q 44.046875 -1.421875 31.78125 -1.421875 
Q 19.53125 -1.421875 13.0625 8.265625 
Q 6.59375 17.96875 6.59375 36.375 
Q 6.59375 54.828125 13.0625 64.515625 
Q 19.53125 74.21875 31.78125 74.21875 
z
" id="DejaVuSans-48"/>
      </defs>
      <g transform="translate(65.845199 542.877813)scale(0.14 -0.14)">
       <use xlink:href="#DejaVuSans-52"/>
       <use x="63.623047" xlink:href="#DejaVuSans-46"/>
       <use x="95.410156" xlink:href="#DejaVuSans-48"/>
      </g>
     </g>
    </g>
    <g id="xtick_2">
     <g id="line2d_6">
      <g>
       <use style="stroke:#000000;stroke-width:0.8;" x="166.685163" xlink:href="#mfac0cd30f8" y="525.24"/>
      </g>
     </g>
     <g id="text_6">
      <!-- 4.5 -->
      <defs>
       <path d="M 10.796875 72.90625 
L 49.515625 72.90625 
L 49.515625 64.59375 
L 19.828125 64.59375 
L 19.828125 46.734375 
Q 21.96875 47.46875 24.109375 47.828125 
Q 26.265625 48.1875 28.421875 48.1875 
Q 40.625 48.1875 47.75 41.5 
Q 54.890625 34.8125 54.890625 23.390625 
Q 54.890625 11.625 47.5625 5.09375 
Q 40.234375 -1.421875 26.90625 -1.421875 
Q 22.3125 -1.421875 17.546875 -0.640625 
Q 12.796875 0.140625 7.71875 1.703125 
L 7.71875 11.625 
Q 12.109375 9.234375 16.796875 8.0625 
Q 21.484375 6.890625 26.703125 6.890625 
Q 35.15625 6.890625 40.078125 11.328125 
Q 45.015625 15.765625 45.015625 23.390625 
Q 45.015625 31 40.078125 35.4375 
Q 35.15625 39.890625 26.703125 39.890625 
Q 22.75 39.890625 18.8125 39.015625 
Q 14.890625 38.140625 10.796875 36.28125 
z
" id="DejaVuSans-53"/>
      </defs>
      <g transform="translate(155.552976 542.877813)scale(0.14 -0.14)">
       <use xlink:href="#DejaVuSans-52"/>
       <use x="63.623047" xlink:href="#DejaVuSans-46"/>
       <use x="95.410156" xlink:href="#DejaVuSans-53"/>
      </g>
     </g>
    </g>
    <g id="xtick_3">
     <g id="line2d_7">
      <g>
       <use style="stroke:#000000;stroke-width:0.8;" x="256.39294" xlink:href="#mfac0cd30f8" y="525.24"/>
      </g>
     </g>
     <g id="text_7">
      <!-- 5.0 -->
      <g transform="translate(245.260752 542.877813)scale(0.14 -0.14)">
       <use xlink:href="#DejaVuSans-53"/>
       <use x="63.623047" xlink:href="#DejaVuSans-46"/>
       <use x="95.410156" xlink:href="#DejaVuSans-48"/>
      </g>
     </g>
    </g>
    <g id="xtick_4">
     <g id="line2d_8">
      <g>
       <use style="stroke:#000000;stroke-width:0.8;" x="346.100716" xlink:href="#mfac0cd30f8" y="525.24"/>
      </g>
     </g>
     <g id="text_8">
      <!-- 5.5 -->
      <g transform="translate(334.968529 542.877813)scale(0.14 -0.14)">
       <use xlink:href="#DejaVuSans-53"/>
       <use x="63.623047" xlink:href="#DejaVuSans-46"/>
       <use x="95.410156" xlink:href="#DejaVuSans-53"/>
      </g>
     </g>
    </g>
    <g id="xtick_5">
     <g id="line2d_9">
      <g>
       <use style="stroke:#000000;stroke-width:0.8;" x="435.808493" xlink:href="#mfac0cd30f8" y="525.24"/>
      </g>
     </g>
     <g id="text_9">
      <!-- 6.0 -->
      <defs>
       <path d="M 33.015625 40.375 
Q 26.375 40.375 22.484375 35.828125 
Q 18.609375 31.296875 18.609375 23.390625 
Q 18.609375 15.53125 22.484375 10.953125 
Q 26.375 6.390625 33.015625 6.390625 
Q 39.65625 6.390625 43.53125 10.953125 
Q 47.40625 15.53125 47.40625 23.390625 
Q 47.40625 31.296875 43.53125 35.828125 
Q 39.65625 40.375 33.015625 40.375 
z
M 52.59375 71.296875 
L 52.59375 62.3125 
Q 48.875 64.0625 45.09375 64.984375 
Q 41.3125 65.921875 37.59375 65.921875 
Q 27.828125 65.921875 22.671875 59.328125 
Q 17.53125 52.734375 16.796875 39.40625 
Q 19.671875 43.65625 24.015625 45.921875 
Q 28.375 48.1875 33.59375 48.1875 
Q 44.578125 48.1875 50.953125 41.515625 
Q 57.328125 34.859375 57.328125 23.390625 
Q 57.328125 12.15625 50.6875 5.359375 
Q 44.046875 -1.421875 33.015625 -1.421875 
Q 20.359375 -1.421875 13.671875 8.265625 
Q 6.984375 17.96875 6.984375 36.375 
Q 6.984375 53.65625 15.1875 63.9375 
Q 23.390625 74.21875 37.203125 74.21875 
Q 40.921875 74.21875 44.703125 73.484375 
Q 48.484375 72.75 52.59375 71.296875 
z
" id="DejaVuSans-54"/>
      </defs>
      <g transform="translate(424.676305 542.877813)scale(0.14 -0.14)">
       <use xlink:href="#DejaVuSans-54"/>
       <use x="63.623047" xlink:href="#DejaVuSans-46"/>
       <use x="95.410156" xlink:href="#DejaVuSans-48"/>
      </g>
     </g>
    </g>
    <g id="xtick_6">
     <g id="line2d_10">
      <g>
       <use style="stroke:#000000;stroke-width:0.8;" x="525.516269" xlink:href="#mfac0cd30f8" y="525.24"/>
      </g>
     </g>
     <g id="text_10">
      <!-- 6.5 -->
      <g transform="translate(514.384082 542.877813)scale(0.14 -0.14)">
       <use xlink:href="#DejaVuSans-54"/>
       <use x="63.623047" xlink:href="#DejaVuSans-46"/>
       <use x="95.410156" xlink:href="#DejaVuSans-53"/>
      </g>
     </g>
    </g>
   </g>
   <g id="line2d_11">
    <path clip-path="url(#p6578f44f11)" d="M 294.070206 525.24 
L 294.070206 402.93 
" style="fill:none;stroke:#ff6384;stroke-dasharray:5.55,2.4;stroke-dashoffset:0;stroke-opacity:0.8;stroke-width:1.5;"/>
   </g>
   <g id="line2d_12">
    <path clip-path="url(#p6578f44f11)" d="M 304.835139 525.24 
L 304.835139 402.93 
" style="fill:none;stroke:#36a2eb;stroke-dasharray:5.55,2.4;stroke-dashoffset:0;stroke-opacity:0.8;stroke-width:1.5;"/>
   </g>
   <g id="line2d_13">
    <path clip-path="url(#p6578f44f11)" d="M 267.157873 525.24 
L 267.157873 402.93 
" style="fill:none;stroke:#4bc0c0;stroke-dasharray:5.55,2.4;stroke-dashoffset:0;stroke-opacity:0.8;stroke-width:1.5;"/>
   </g>
   <g id="line2d_14">
    <path clip-path="url(#p6578f44f11)" d="M 304.835139 525.24 
L 304.835139 402.93 
" style="fill:none;stroke:#9966ff;stroke-dasharray:5.55,2.4;stroke-dashoffset:0;stroke-opacity:0.8;stroke-width:1.5;"/>
   </g>
   <g id="patch_14">
    <path d="M 36 525.24 
L 538.2 525.24 
" style="fill:none;stroke:#000000;stroke-linecap:square;stroke-linejoin:miter;stroke-width:0.8;"/>
   </g>
  </g>
 </g>
 <defs>
  <clipPath id="p7142a5ff9c">
   <rect height="366.93" width="502.2" x="36" y="36"/>
  </clipPath>
  <clipPath id="p6578f44f11">
   <rect height="122.31" width="502.2" x="36" y="402.93"/>
  </clipPath>
 </defs>
</svg>
