<?xml version="1.0" encoding="utf-8" standalone="no"?>
<!DOCTYPE svg PUBLIC "-//W3C//DTD SVG 1.1//EN"
  "http://www.w3.org/Graphics/SVG/1.1/DTD/svg11.dtd">
<!-- Created with matplotlib (https://matplotlib.org/) -->
<svg height="581.789375pt" version="1.1" viewBox="0 0 574.2 581.789375" width="574.2pt" xmlns="http://www.w3.org/2000/svg" xmlns:xlink="http://www.w3.org/1999/xlink">
 <defs>
  <style type="text/css">
*{stroke-linecap:butt;stroke-linejoin:round;}
  </style>
 </defs>
 <g id="figure_1">
  <g id="patch_1">
   <path d="M 0 581.789375 
L 574.2 581.789375 
L 574.2 0 
L 0 0 
z
" style="fill:none;"/>
  </g>
  <g id="axes_1">
   <g id="patch_2">
    <path d="M 36 402.93 
L 538.2 402.93 
L 538.2 36 
L 36 36 
z
" style="fill:none;"/>
   </g>
   <g id="PolyCollection_1">
    <defs>
     <path d="M 74.651675 -195.538011 
L 74.651675 -195.649576 
L 78.963258 -195.691645 
L 83.274842 -195.7482 
L 87.586426 -195.823703 
L 91.898009 -195.923801 
L 96.209593 -196.055579 
L 100.521177 -196.22785 
L 104.83276 -196.451476 
L 109.144344 -196.739724 
L 113.455928 -197.108639 
L 117.767511 -197.577447 
L 122.079095 -198.168951 
L 126.390679 -198.90992 
L 130.702262 -199.831445 
L 135.013846 -200.969237 
L 139.32543 -202.363835 
L 143.637013 -204.060694 
L 147.948597 -206.110121 
L 152.260181 -208.567012 
L 156.571764 -211.490359 
L 160.883348 -214.942499 
L 165.194932 -218.988065 
L 169.506515 -223.692626 
L 173.818099 -229.121006 
L 178.129683 -235.335285 
L 182.441266 -242.392511 
L 186.75285 -250.342153 
L 191.064434 -259.223359 
L 195.376017 -269.062117 
L 199.687601 -279.868392 
L 203.999185 -291.633379 
L 208.310768 -304.326996 
L 212.622352 -317.895759 
L 216.933936 -332.261177 
L 221.245519 -347.318804 
L 225.557103 -362.938071 
L 229.868687 -378.962991 
L 234.18027 -395.213812 
L 238.491854 -411.489632 
L 242.803438 -427.571987 
L 247.115021 -443.229325 
L 251.426605 -458.222272 
L 255.738189 -472.309537 
L 260.049772 -485.254254 
L 264.361356 -496.830539 
L 268.67294 -506.83001 
L 272.984523 -515.068009 
L 277.296107 -521.389264 
L 281.607691 -525.672756 
L 285.919274 -527.835572 
L 290.230858 -527.835572 
L 294.542442 -525.672756 
L 298.854025 -521.389264 
L 303.165609 -515.068009 
L 307.477193 -506.83001 
L 311.788776 -496.830539 
L 316.10036 -485.254254 
L 320.411944 -472.309537 
L 324.723527 -458.222272 
L 329.035111 -443.229325 
L 333.346695 -427.571987 
L 337.658278 -411.489632 
L 341.969862 -395.213812 
L 346.281445 -378.962991 
L 350.593029 -362.938071 
L 354.904613 -347.318804 
L 359.216196 -332.261177 
L 363.52778 -317.895759 
L 367.839364 -304.326996 
L 372.150947 -291.633379 
L 376.462531 -279.868392 
L 380.774115 -269.062117 
L 385.085698 -259.223359 
L 389.397282 -250.342153 
L 393.708866 -242.392511 
L 398.020449 -235.335285 
L 402.332033 -229.121006 
L 406.643617 -223.692626 
L 410.9552 -218.988065 
L 415.266784 -214.942499 
L 419.578368 -211.490359 
L 423.889951 -208.567012 
L 428.201535 -206.110121 
L 432.513119 -204.060694 
L 436.824702 -202.363835 
L 441.136286 -200.969237 
L 445.44787 -199.831445 
L 449.759453 -198.90992 
L 454.071037 -198.168951 
L 458.382621 -197.577447 
L 462.694204 -197.108639 
L 467.005788 -196.739724 
L 471.317372 -196.451476 
L 475.628955 -196.22785 
L 479.940539 -196.055579 
L 484.252123 -195.923801 
L 488.563706 -195.823703 
L 492.87529 -195.7482 
L 497.186874 -195.691645 
L 501.498457 -195.649576 
L 501.498457 -195.538011 
L 501.498457 -195.538011 
L 497.186874 -195.538011 
L 492.87529 -195.538011 
L 488.563706 -195.538011 
L 484.252123 -195.538011 
L 479.940539 -195.538011 
L 475.628955 -195.538011 
L 471.317372 -195.538011 
L 467.005788 -195.538011 
L 462.694204 -195.538011 
L 458.382621 -195.538011 
L 454.071037 -195.538011 
L 449.759453 -195.538011 
L 445.44787 -195.538011 
L 441.136286 -195.538011 
L 436.824702 -195.538011 
L 432.513119 -195.538011 
L 428.201535 -195.538011 
L 423.889951 -195.538011 
L 419.578368 -195.538011 
L 415.266784 -195.538011 
L 410.9552 -195.538011 
L 406.643617 -195.538011 
L 402.332033 -195.538011 
L 398.020449 -195.538011 
L 393.708866 -195.538011 
L 389.397282 -195.538011 
L 385.085698 -195.538011 
L 380.774115 -195.538011 
L 376.462531 -195.538011 
L 372.150947 -195.538011 
L 367.839364 -195.538011 
L 363.52778 -195.538011 
L 359.216196 -195.538011 
L 354.904613 -195.538011 
L 350.593029 -195.538011 
L 346.281445 -195.538011 
L 341.969862 -195.538011 
L 337.658278 -195.538011 
L 333.346695 -195.538011 
L 329.035111 -195.538011 
L 324.723527 -195.538011 
L 320.411944 -195.538011 
L 316.10036 -195.538011 
L 311.788776 -195.538011 
L 307.477193 -195.538011 
L 303.165609 -195.538011 
L 298.854025 -195.538011 
L 294.542442 -195.538011 
L 290.230858 -195.538011 
L 285.919274 -195.538011 
L 281.607691 -195.538011 
L 277.296107 -195.538011 
L 272.984523 -195.538011 
L 268.67294 -195.538011 
L 264.361356 -195.538011 
L 260.049772 -195.538011 
L 255.738189 -195.538011 
L 251.426605 -195.538011 
L 247.115021 -195.538011 
L 242.803438 -195.538011 
L 238.491854 -195.538011 
L 234.18027 -195.538011 
L 229.868687 -195.538011 
L 225.557103 -195.538011 
L 221.245519 -195.538011 
L 216.933936 -195.538011 
L 212.622352 -195.538011 
L 208.310768 -195.538011 
L 203.999185 -195.538011 
L 199.687601 -195.538011 
L 195.376017 -195.538011 
L 191.064434 -195.538011 
L 186.75285 -195.538011 
L 182.441266 -195.538011 
L 178.129683 -195.538011 
L 173.818099 -195.538011 
L 169.506515 -195.538011 
L 165.194932 -195.538011 
L 160.883348 -195.538011 
L 156.571764 -195.538011 
L 152.260181 -195.538011 
L 147.948597 -195.538011 
L 143.637013 -195.538011 
L 139.32543 -195.538011 
L 135.013846 -195.538011 
L 130.702262 -195.538011 
L 126.390679 -195.538011 
L 122.079095 -195.538011 
L 117.767511 -195.538011 
L 113.455928 -195.538011 
L 109.144344 -195.538011 
L 104.83276 -195.538011 
L 100.521177 -195.538011 
L 96.209593 -195.538011 
L 91.898009 -195.538011 
L 87.586426 -195.538011 
L 83.274842 -195.538011 
L 78.963258 -195.538011 
L 74.651675 -195.538011 
z
" id="m75f2e9e614" style="stroke:#ff6384;stroke-opacity:0.5;"/>
    </defs>
    <g clip-path="url(#p53e09e6fff)">
     <use style="fill:#ff6384;fill-opacity:0.5;stroke:#ff6384;stroke-opacity:0.5;" x="0" xlink:href="#m75f2e9e614" y="581.789375"/>
    </g>
   </g>
   <g id="PolyCollection_2">
    <defs>
     <path d="M 79.853059 -195.538011 
L 79.853059 -195.649685 
L 84.160415 -195.691796 
L 88.46777 -195.748407 
L 92.775125 -195.823984 
L 97.082481 -195.92418 
L 101.389836 -196.056087 
L 105.697191 -196.228527 
L 110.004546 -196.452373 
L 114.311902 -196.740903 
L 118.619257 -197.110181 
L 122.926612 -197.579449 
L 127.233968 -198.171533 
L 131.541323 -198.91323 
L 135.848678 -199.83566 
L 140.156033 -200.974569 
L 144.463389 -202.370536 
L 148.770744 -204.069061 
L 153.078099 -206.120499 
L 157.385455 -208.579802 
L 161.69281 -211.506018 
L 166.000165 -214.961548 
L 170.30752 -219.011085 
L 174.614876 -223.720264 
L 178.922231 -229.153973 
L 183.229586 -235.374353 
L 187.536942 -242.438507 
L 191.844297 -250.395952 
L 196.151652 -259.285877 
L 200.459007 -269.134293 
L 204.766363 -279.951176 
L 209.073718 -291.727712 
L 213.381073 -304.43379 
L 217.688429 -318.015873 
L 221.995784 -332.395393 
L 226.303139 -347.467801 
L 230.610495 -363.102401 
L 234.91785 -379.143053 
L 239.225205 -395.409826 
L 243.53256 -411.701624 
L 247.839916 -427.799767 
L 252.147271 -443.472475 
L 256.454626 -458.48014 
L 260.761982 -472.581234 
L 265.069337 -485.538658 
L 269.376692 -497.126307 
L 273.684047 -507.135595 
L 277.991403 -515.38168 
L 282.298758 -521.70914 
L 286.606113 -525.996838 
L 290.913469 -528.161777 
L 295.220824 -528.161777 
L 299.528179 -525.996838 
L 303.835534 -521.70914 
L 308.14289 -515.38168 
L 312.450245 -507.135595 
L 316.7576 -497.126307 
L 321.064956 -485.538658 
L 325.372311 -472.581234 
L 329.679666 -458.48014 
L 333.987021 -443.472475 
L 338.294377 -427.799767 
L 342.601732 -411.701624 
L 346.909087 -395.409826 
L 351.216443 -379.143053 
L 355.523798 -363.102401 
L 359.831153 -347.467801 
L 364.138508 -332.395393 
L 368.445864 -318.015873 
L 372.753219 -304.43379 
L 377.060574 -291.727712 
L 381.36793 -279.951176 
L 385.675285 -269.134293 
L 389.98264 -259.285877 
L 394.289995 -250.395952 
L 398.597351 -242.438507 
L 402.904706 -235.374353 
L 407.212061 -229.153973 
L 411.519417 -223.720264 
L 415.826772 -219.011085 
L 420.134127 -214.961548 
L 424.441482 -211.506018 
L 428.748838 -208.579802 
L 433.056193 -206.120499 
L 437.363548 -204.069061 
L 441.670904 -202.370536 
L 445.978259 -200.974569 
L 450.285614 -199.83566 
L 454.592969 -198.91323 
L 458.900325 -198.171533 
L 463.20768 -197.579449 
L 467.515035 -197.110181 
L 471.822391 -196.740903 
L 476.129746 -196.452373 
L 480.437101 -196.228527 
L 484.744457 -196.056087 
L 489.051812 -195.92418 
L 493.359167 -195.823984 
L 497.666522 -195.748407 
L 501.973878 -195.691796 
L 506.281233 -195.649685 
L 506.281233 -195.538011 
L 506.281233 -195.538011 
L 501.973878 -195.538011 
L 497.666522 -195.538011 
L 493.359167 -195.538011 
L 489.051812 -195.538011 
L 484.744457 -195.538011 
L 480.437101 -195.538011 
L 476.129746 -195.538011 
L 471.822391 -195.538011 
L 467.515035 -195.538011 
L 463.20768 -195.538011 
L 458.900325 -195.538011 
L 454.592969 -195.538011 
L 450.285614 -195.538011 
L 445.978259 -195.538011 
L 441.670904 -195.538011 
L 437.363548 -195.538011 
L 433.056193 -195.538011 
L 428.748838 -195.538011 
L 424.441482 -195.538011 
L 420.134127 -195.538011 
L 415.826772 -195.538011 
L 411.519417 -195.538011 
L 407.212061 -195.538011 
L 402.904706 -195.538011 
L 398.597351 -195.538011 
L 394.289995 -195.538011 
L 389.98264 -195.538011 
L 385.675285 -195.538011 
L 381.36793 -195.538011 
L 377.060574 -195.538011 
L 372.753219 -195.538011 
L 368.445864 -195.538011 
L 364.138508 -195.538011 
L 359.831153 -195.538011 
L 355.523798 -195.538011 
L 351.216443 -195.538011 
L 346.909087 -195.538011 
L 342.601732 -195.538011 
L 338.294377 -195.538011 
L 333.987021 -195.538011 
L 329.679666 -195.538011 
L 325.372311 -195.538011 
L 321.064956 -195.538011 
L 316.7576 -195.538011 
L 312.450245 -195.538011 
L 308.14289 -195.538011 
L 303.835534 -195.538011 
L 299.528179 -195.538011 
L 295.220824 -195.538011 
L 290.913469 -195.538011 
L 286.606113 -195.538011 
L 282.298758 -195.538011 
L 277.991403 -195.538011 
L 273.684047 -195.538011 
L 269.376692 -195.538011 
L 265.069337 -195.538011 
L 260.761982 -195.538011 
L 256.454626 -195.538011 
L 252.147271 -195.538011 
L 247.839916 -195.538011 
L 243.53256 -195.538011 
L 239.225205 -195.538011 
L 234.91785 -195.538011 
L 230.610495 -195.538011 
L 226.303139 -195.538011 
L 221.995784 -195.538011 
L 217.688429 -195.538011 
L 213.381073 -195.538011 
L 209.073718 -195.538011 
L 204.766363 -195.538011 
L 200.459007 -195.538011 
L 196.151652 -195.538011 
L 191.844297 -195.538011 
L 187.536942 -195.538011 
L 183.229586 -195.538011 
L 178.922231 -195.538011 
L 174.614876 -195.538011 
L 170.30752 -195.538011 
L 166.000165 -195.538011 
L 161.69281 -195.538011 
L 157.385455 -195.538011 
L 153.078099 -195.538011 
L 148.770744 -195.538011 
L 144.463389 -195.538011 
L 140.156033 -195.538011 
L 135.848678 -195.538011 
L 131.541323 -195.538011 
L 127.233968 -195.538011 
L 122.926612 -195.538011 
L 118.619257 -195.538011 
L 114.311902 -195.538011 
L 110.004546 -195.538011 
L 105.697191 -195.538011 
L 101.389836 -195.538011 
L 97.082481 -195.538011 
L 92.775125 -195.538011 
L 88.46777 -195.538011 
L 84.160415 -195.538011 
L 79.853059 -195.538011 
z
" id="m10686fc270" style="stroke:#36a2eb;stroke-opacity:0.5;"/>
    </defs>
    <g clip-path="url(#p53e09e6fff)">
     <use style="fill:#36a2eb;fill-opacity:0.5;stroke:#36a2eb;stroke-opacity:0.5;" x="0" xlink:href="#m10686fc270" y="581.789375"/>
    </g>
   </g>
   <g id="PolyCollection_3">
    <defs>
     <path d="M 58.827273 -195.538011 
L 58.827273 -195.650004 
L 63.122374 -195.692234 
L 67.417476 -195.749007 
L 71.712577 -195.8248 
L 76.007679 -195.925281 
L 80.30278 -196.057565 
L 84.597882 -196.230497 
L 88.892983 -196.454982 
L 93.188085 -196.744335 
L 97.483187 -197.114666 
L 101.778288 -197.585273 
L 106.07339 -198.179047 
L 110.368491 -198.922859 
L 114.663593 -199.847921 
L 118.958694 -200.990079 
L 123.253796 -202.390029 
L 127.548897 -204.093399 
L 131.843999 -206.150691 
L 136.1391 -208.617009 
L 140.434202 -211.551575 
L 144.729304 -215.016962 
L 149.024405 -219.078053 
L 153.319507 -223.800667 
L 157.614608 -229.249878 
L 161.90971 -235.488004 
L 166.204811 -242.572312 
L 170.499913 -250.552459 
L 174.795014 -259.467747 
L 179.090116 -269.344261 
L 183.385217 -280.192004 
L 187.680319 -292.002137 
L 191.97542 -304.744465 
L 196.270522 -318.365297 
L 200.565624 -332.785841 
L 204.860725 -347.901251 
L 209.155827 -363.580456 
L 213.450928 -379.666871 
L 217.74603 -395.980052 
L 222.041131 -412.31833 
L 226.336233 -428.4624 
L 230.631334 -444.179822 
L 234.926436 -459.230303 
L 239.221537 -473.371627 
L 243.516639 -486.366018 
L 247.81174 -497.986726 
L 252.106842 -508.02457 
L 256.401944 -516.294181 
L 260.697045 -522.639693 
L 264.992147 -526.939623 
L 269.287248 -529.110739 
L 273.58235 -529.110739 
L 277.877451 -526.939623 
L 282.172553 -522.639693 
L 286.467654 -516.294181 
L 290.762756 -508.02457 
L 295.057857 -497.986726 
L 299.352959 -486.366018 
L 303.64806 -473.371627 
L 307.943162 -459.230303 
L 312.238264 -444.179822 
L 316.533365 -428.4624 
L 320.828467 -412.31833 
L 325.123568 -395.980052 
L 329.41867 -379.666871 
L 333.713771 -363.580456 
L 338.008873 -347.901251 
L 342.303974 -332.785841 
L 346.599076 -318.365297 
L 350.894177 -304.744465 
L 355.189279 -292.002137 
L 359.48438 -280.192004 
L 363.779482 -269.344261 
L 368.074584 -259.467747 
L 372.369685 -250.552459 
L 376.664787 -242.572312 
L 380.959888 -235.488004 
L 385.25499 -229.249878 
L 389.550091 -223.800667 
L 393.845193 -219.078053 
L 398.140294 -215.016962 
L 402.435396 -211.551575 
L 406.730497 -208.617009 
L 411.025599 -206.150691 
L 415.3207 -204.093399 
L 419.615802 -202.390029 
L 423.910904 -200.990079 
L 428.206005 -199.847921 
L 432.501107 -198.922859 
L 436.796208 -198.179047 
L 441.09131 -197.585273 
L 445.386411 -197.114666 
L 449.681513 -196.744335 
L 453.976614 -196.454982 
L 458.271716 -196.230497 
L 462.566817 -196.057565 
L 466.861919 -195.925281 
L 471.15702 -195.8248 
L 475.452122 -195.749007 
L 479.747224 -195.692234 
L 484.042325 -195.650004 
L 484.042325 -195.538011 
L 484.042325 -195.538011 
L 479.747224 -195.538011 
L 475.452122 -195.538011 
L 471.15702 -195.538011 
L 466.861919 -195.538011 
L 462.566817 -195.538011 
L 458.271716 -195.538011 
L 453.976614 -195.538011 
L 449.681513 -195.538011 
L 445.386411 -195.538011 
L 441.09131 -195.538011 
L 436.796208 -195.538011 
L 432.501107 -195.538011 
L 428.206005 -195.538011 
L 423.910904 -195.538011 
L 419.615802 -195.538011 
L 415.3207 -195.538011 
L 411.025599 -195.538011 
L 406.730497 -195.538011 
L 402.435396 -195.538011 
L 398.140294 -195.538011 
L 393.845193 -195.538011 
L 389.550091 -195.538011 
L 385.25499 -195.538011 
L 380.959888 -195.538011 
L 376.664787 -195.538011 
L 372.369685 -195.538011 
L 368.074584 -195.538011 
L 363.779482 -195.538011 
L 359.48438 -195.538011 
L 355.189279 -195.538011 
L 350.894177 -195.538011 
L 346.599076 -195.538011 
L 342.303974 -195.538011 
L 338.008873 -195.538011 
L 333.713771 -195.538011 
L 329.41867 -195.538011 
L 325.123568 -195.538011 
L 320.828467 -195.538011 
L 316.533365 -195.538011 
L 312.238264 -195.538011 
L 307.943162 -195.538011 
L 303.64806 -195.538011 
L 299.352959 -195.538011 
L 295.057857 -195.538011 
L 290.762756 -195.538011 
L 286.467654 -195.538011 
L 282.172553 -195.538011 
L 277.877451 -195.538011 
L 273.58235 -195.538011 
L 269.287248 -195.538011 
L 264.992147 -195.538011 
L 260.697045 -195.538011 
L 256.401944 -195.538011 
L 252.106842 -195.538011 
L 247.81174 -195.538011 
L 243.516639 -195.538011 
L 239.221537 -195.538011 
L 234.926436 -195.538011 
L 230.631334 -195.538011 
L 226.336233 -195.538011 
L 222.041131 -195.538011 
L 217.74603 -195.538011 
L 213.450928 -195.538011 
L 209.155827 -195.538011 
L 204.860725 -195.538011 
L 200.565624 -195.538011 
L 196.270522 -195.538011 
L 191.97542 -195.538011 
L 187.680319 -195.538011 
L 183.385217 -195.538011 
L 179.090116 -195.538011 
L 174.795014 -195.538011 
L 170.499913 -195.538011 
L 166.204811 -195.538011 
L 161.90971 -195.538011 
L 157.614608 -195.538011 
L 153.319507 -195.538011 
L 149.024405 -195.538011 
L 144.729304 -195.538011 
L 140.434202 -195.538011 
L 136.1391 -195.538011 
L 131.843999 -195.538011 
L 127.548897 -195.538011 
L 123.253796 -195.538011 
L 118.958694 -195.538011 
L 114.663593 -195.538011 
L 110.368491 -195.538011 
L 106.07339 -195.538011 
L 101.778288 -195.538011 
L 97.483187 -195.538011 
L 93.188085 -195.538011 
L 88.892983 -195.538011 
L 84.597882 -195.538011 
L 80.30278 -195.538011 
L 76.007679 -195.538011 
L 71.712577 -195.538011 
L 67.417476 -195.538011 
L 63.122374 -195.538011 
L 58.827273 -195.538011 
z
" id="meb9c10fbde" style="stroke:#4bc0c0;stroke-opacity:0.5;"/>
    </defs>
    <g clip-path="url(#p53e09e6fff)">
     <use style="fill:#4bc0c0;fill-opacity:0.5;stroke:#4bc0c0;stroke-opacity:0.5;" x="0" xlink:href="#meb9c10fbde" y="581.789375"/>
    </g>
   </g>
   <g id="PolyCollection_4">
    <defs>
     <path d="M 87.401832 -195.538011 
L 87.401832 -195.649283 
L 91.724771 -195.691241 
L 96.047709 -195.747648 
L 100.370647 -195.822953 
L 104.693586 -195.922788 
L 109.016524 -196.054219 
L 113.339462 -196.226038 
L 117.662401 -196.449077 
L 121.985339 -196.736567 
L 126.308277 -197.104513 
L 130.631216 -197.57209 
L 134.954154 -198.16204 
L 139.277092 -198.901063 
L 143.600031 -199.820168 
L 147.922969 -200.954972 
L 152.245907 -202.345906 
L 156.568846 -204.038308 
L 160.891784 -206.082352 
L 165.214722 -208.532789 
L 169.537661 -211.448458 
L 173.860599 -214.891531 
L 178.183537 -218.926471 
L 182.506476 -223.618675 
L 186.829414 -229.032796 
L 191.152352 -235.230753 
L 195.475291 -242.269443 
L 199.798229 -250.198203 
L 204.121167 -259.056083 
L 208.444106 -268.868998 
L 212.767044 -279.646889 
L 217.089982 -291.380974 
L 221.412921 -304.041249 
L 225.735859 -317.574373 
L 230.058797 -331.902058 
L 234.381736 -346.920135 
L 238.704674 -362.498376 
L 243.027612 -378.481206 
L 247.350551 -394.689341 
L 251.673489 -410.922411 
L 255.996427 -426.962525 
L 260.319366 -442.578737 
L 264.642304 -457.532303 
L 268.965242 -471.582566 
L 273.288181 -484.493283 
L 277.611119 -496.039161 
L 281.934057 -506.012368 
L 286.256996 -514.228729 
L 290.579934 -520.53338 
L 294.902872 -524.805621 
L 299.225811 -526.962756 
L 303.548749 -526.962756 
L 307.871687 -524.805621 
L 312.194626 -520.53338 
L 316.517564 -514.228729 
L 320.840502 -506.012368 
L 325.163441 -496.039161 
L 329.486379 -484.493283 
L 333.809317 -471.582566 
L 338.132256 -457.532303 
L 342.455194 -442.578737 
L 346.778132 -426.962525 
L 351.101071 -410.922411 
L 355.424009 -394.689341 
L 359.746947 -378.481206 
L 364.069886 -362.498376 
L 368.392824 -346.920135 
L 372.715762 -331.902058 
L 377.038701 -317.574373 
L 381.361639 -304.041249 
L 385.684577 -291.380974 
L 390.007516 -279.646889 
L 394.330454 -268.868998 
L 398.653392 -259.056083 
L 402.976331 -250.198203 
L 407.299269 -242.269443 
L 411.622207 -235.230753 
L 415.945146 -229.032796 
L 420.268084 -223.618675 
L 424.591022 -218.926471 
L 428.913961 -214.891531 
L 433.236899 -211.448458 
L 437.559837 -208.532789 
L 441.882776 -206.082352 
L 446.205714 -204.038308 
L 450.528652 -202.345906 
L 454.851591 -200.954972 
L 459.174529 -199.820168 
L 463.497467 -198.901063 
L 467.820406 -198.16204 
L 472.143344 -197.57209 
L 476.466282 -197.104513 
L 480.789221 -196.736567 
L 485.112159 -196.449077 
L 489.435097 -196.226038 
L 493.758036 -196.054219 
L 498.080974 -195.922788 
L 502.403912 -195.822953 
L 506.726851 -195.747648 
L 511.049789 -195.691241 
L 515.372727 -195.649283 
L 515.372727 -195.538011 
L 515.372727 -195.538011 
L 511.049789 -195.538011 
L 506.726851 -195.538011 
L 502.403912 -195.538011 
L 498.080974 -195.538011 
L 493.758036 -195.538011 
L 489.435097 -195.538011 
L 485.112159 -195.538011 
L 480.789221 -195.538011 
L 476.466282 -195.538011 
L 472.143344 -195.538011 
L 467.820406 -195.538011 
L 463.497467 -195.538011 
L 459.174529 -195.538011 
L 454.851591 -195.538011 
L 450.528652 -195.538011 
L 446.205714 -195.538011 
L 441.882776 -195.538011 
L 437.559837 -195.538011 
L 433.236899 -195.538011 
L 428.913961 -195.538011 
L 424.591022 -195.538011 
L 420.268084 -195.538011 
L 415.945146 -195.538011 
L 411.622207 -195.538011 
L 407.299269 -195.538011 
L 402.976331 -195.538011 
L 398.653392 -195.538011 
L 394.330454 -195.538011 
L 390.007516 -195.538011 
L 385.684577 -195.538011 
L 381.361639 -195.538011 
L 377.038701 -195.538011 
L 372.715762 -195.538011 
L 368.392824 -195.538011 
L 364.069886 -195.538011 
L 359.746947 -195.538011 
L 355.424009 -195.538011 
L 351.101071 -195.538011 
L 346.778132 -195.538011 
L 342.455194 -195.538011 
L 338.132256 -195.538011 
L 333.809317 -195.538011 
L 329.486379 -195.538011 
L 325.163441 -195.538011 
L 320.840502 -195.538011 
L 316.517564 -195.538011 
L 312.194626 -195.538011 
L 307.871687 -195.538011 
L 303.548749 -195.538011 
L 299.225811 -195.538011 
L 294.902872 -195.538011 
L 290.579934 -195.538011 
L 286.256996 -195.538011 
L 281.934057 -195.538011 
L 277.611119 -195.538011 
L 273.288181 -195.538011 
L 268.965242 -195.538011 
L 264.642304 -195.538011 
L 260.319366 -195.538011 
L 255.996427 -195.538011 
L 251.673489 -195.538011 
L 247.350551 -195.538011 
L 243.027612 -195.538011 
L 238.704674 -195.538011 
L 234.381736 -195.538011 
L 230.058797 -195.538011 
L 225.735859 -195.538011 
L 221.412921 -195.538011 
L 217.089982 -195.538011 
L 212.767044 -195.538011 
L 208.444106 -195.538011 
L 204.121167 -195.538011 
L 199.798229 -195.538011 
L 195.475291 -195.538011 
L 191.152352 -195.538011 
L 186.829414 -195.538011 
L 182.506476 -195.538011 
L 178.183537 -195.538011 
L 173.860599 -195.538011 
L 169.537661 -195.538011 
L 165.214722 -195.538011 
L 160.891784 -195.538011 
L 156.568846 -195.538011 
L 152.245907 -195.538011 
L 147.922969 -195.538011 
L 143.600031 -195.538011 
L 139.277092 -195.538011 
L 134.954154 -195.538011 
L 130.631216 -195.538011 
L 126.308277 -195.538011 
L 121.985339 -195.538011 
L 117.662401 -195.538011 
L 113.339462 -195.538011 
L 109.016524 -195.538011 
L 104.693586 -195.538011 
L 100.370647 -195.538011 
L 96.047709 -195.538011 
L 91.724771 -195.538011 
L 87.401832 -195.538011 
z
" id="m7576e7b891" style="stroke:#9966ff;stroke-opacity:0.5;"/>
    </defs>
    <g clip-path="url(#p53e09e6fff)">
     <use style="fill:#9966ff;fill-opacity:0.5;stroke:#9966ff;stroke-opacity:0.5;" x="0" xlink:href="#m7576e7b891" y="581.789375"/>
    </g>
   </g>
   <g id="line2d_1">
    <path clip-path="url(#p53e09e6fff)" d="M 74.651675 386.139799 
L 78.963258 386.09773 
L 83.274842 386.041175 
L 87.586426 385.965672 
L 91.898009 385.865574 
L 96.209593 385.733796 
L 100.521177 385.561525 
L 104.83276 385.337899 
L 109.144344 385.049651 
L 113.455928 384.680736 
L 117.767511 384.211928 
L 122.079095 383.620424 
L 126.390679 382.879455 
L 130.702262 381.95793 
L 135.013846 380.820138 
L 139.32543 379.42554 
L 143.637013 377.728681 
L 147.948597 375.679254 
L 152.260181 373.222363 
L 156.571764 370.299016 
L 160.883348 366.846876 
L 165.194932 362.80131 
L 169.506515 358.096749 
L 173.818099 352.668369 
L 178.129683 346.45409 
L 182.441266 339.396864 
L 186.75285 331.447222 
L 191.064434 322.566016 
L 195.376017 312.727258 
L 199.687601 301.920983 
L 203.999185 290.155996 
L 208.310768 277.462379 
L 212.622352 263.893616 
L 216.933936 249.528198 
L 221.245519 234.470571 
L 225.557103 218.851304 
L 229.868687 202.826384 
L 234.18027 186.575563 
L 238.491854 170.299743 
L 242.803438 154.217388 
L 247.115021 138.56005 
L 251.426605 123.567103 
L 255.738189 109.479838 
L 260.049772 96.535121 
L 264.361356 84.958836 
L 268.67294 74.959365 
L 272.984523 66.721366 
L 277.296107 60.400111 
L 281.607691 56.116619 
L 285.919274 53.953803 
L 290.230858 53.953803 
L 294.542442 56.116619 
L 298.854025 60.400111 
L 303.165609 66.721366 
L 307.477193 74.959365 
L 311.788776 84.958836 
L 316.10036 96.535121 
L 320.411944 109.479838 
L 324.723527 123.567103 
L 329.035111 138.56005 
L 333.346695 154.217388 
L 337.658278 170.299743 
L 341.969862 186.575563 
L 346.281445 202.826384 
L 350.593029 218.851304 
L 354.904613 234.470571 
L 359.216196 249.528198 
L 363.52778 263.893616 
L 367.839364 277.462379 
L 372.150947 290.155996 
L 376.462531 301.920983 
L 380.774115 312.727258 
L 385.085698 322.566016 
L 389.397282 331.447222 
L 393.708866 339.396864 
L 398.020449 346.45409 
L 402.332033 352.668369 
L 406.643617 358.096749 
L 410.9552 362.80131 
L 415.266784 366.846876 
L 419.578368 370.299016 
L 423.889951 373.222363 
L 428.201535 375.679254 
L 432.513119 377.728681 
L 436.824702 379.42554 
L 441.136286 380.820138 
L 445.44787 381.95793 
L 449.759453 382.879455 
L 454.071037 383.620424 
L 458.382621 384.211928 
L 462.694204 384.680736 
L 467.005788 385.049651 
L 471.317372 385.337899 
L 475.628955 385.561525 
L 479.940539 385.733796 
L 484.252123 385.865574 
L 488.563706 385.965672 
L 492.87529 386.041175 
L 497.186874 386.09773 
L 501.498457 386.139799 
" style="fill:none;stroke:#ff6384;stroke-linecap:square;"/>
   </g>
   <g id="line2d_2">
    <path clip-path="url(#p53e09e6fff)" d="M 79.853059 386.13969 
L 84.160415 386.097579 
L 88.46777 386.040968 
L 92.775125 385.965391 
L 97.082481 385.865195 
L 101.389836 385.733288 
L 105.697191 385.560848 
L 110.004546 385.337002 
L 114.311902 385.048472 
L 118.619257 384.679194 
L 122.926612 384.209926 
L 127.233968 383.617842 
L 131.541323 382.876145 
L 135.848678 381.953715 
L 140.156033 380.814806 
L 144.463389 379.418839 
L 148.770744 377.720314 
L 153.078099 375.668876 
L 157.385455 373.209573 
L 161.69281 370.283357 
L 166.000165 366.827827 
L 170.30752 362.77829 
L 174.614876 358.069111 
L 178.922231 352.635402 
L 183.229586 346.415022 
L 187.536942 339.350868 
L 191.844297 331.393423 
L 196.151652 322.503498 
L 200.459007 312.655082 
L 204.766363 301.838199 
L 209.073718 290.061663 
L 213.381073 277.355585 
L 217.688429 263.773502 
L 221.995784 249.393982 
L 226.303139 234.321574 
L 230.610495 218.686974 
L 234.91785 202.646322 
L 239.225205 186.379549 
L 243.53256 170.087751 
L 247.839916 153.989608 
L 252.147271 138.3169 
L 256.454626 123.309235 
L 260.761982 109.208141 
L 265.069337 96.250717 
L 269.376692 84.663068 
L 273.684047 74.65378 
L 277.991403 66.407695 
L 282.298758 60.080235 
L 286.606113 55.792537 
L 290.913469 53.627598 
L 295.220824 53.627598 
L 299.528179 55.792537 
L 303.835534 60.080235 
L 308.14289 66.407695 
L 312.450245 74.65378 
L 316.7576 84.663068 
L 321.064956 96.250717 
L 325.372311 109.208141 
L 329.679666 123.309235 
L 333.987021 138.3169 
L 338.294377 153.989608 
L 342.601732 170.087751 
L 346.909087 186.379549 
L 351.216443 202.646322 
L 355.523798 218.686974 
L 359.831153 234.321574 
L 364.138508 249.393982 
L 368.445864 263.773502 
L 372.753219 277.355585 
L 377.060574 290.061663 
L 381.36793 301.838199 
L 385.675285 312.655082 
L 389.98264 322.503498 
L 394.289995 331.393423 
L 398.597351 339.350868 
L 402.904706 346.415022 
L 407.212061 352.635402 
L 411.519417 358.069111 
L 415.826772 362.77829 
L 420.134127 366.827827 
L 424.441482 370.283357 
L 428.748838 373.209573 
L 433.056193 375.668876 
L 437.363548 377.720314 
L 441.670904 379.418839 
L 445.978259 380.814806 
L 450.285614 381.953715 
L 454.592969 382.876145 
L 458.900325 383.617842 
L 463.20768 384.209926 
L 467.515035 384.679194 
L 471.822391 385.048472 
L 476.129746 385.337002 
L 480.437101 385.560848 
L 484.744457 385.733288 
L 489.051812 385.865195 
L 493.359167 385.965391 
L 497.666522 386.040968 
L 501.973878 386.097579 
L 506.281233 386.13969 
" style="fill:none;stroke:#36a2eb;stroke-linecap:square;"/>
   </g>
   <g id="line2d_3">
    <path clip-path="url(#p53e09e6fff)" d="M 58.827273 386.139371 
L 63.122374 386.097141 
L 67.417476 386.040368 
L 71.712577 385.964575 
L 76.007679 385.864094 
L 80.30278 385.73181 
L 84.597882 385.558878 
L 88.892983 385.334393 
L 93.188085 385.04504 
L 97.483187 384.674709 
L 101.778288 384.204102 
L 106.07339 383.610328 
L 110.368491 382.866516 
L 114.663593 381.941454 
L 118.958694 380.799296 
L 123.253796 379.399346 
L 127.548897 377.695976 
L 131.843999 375.638684 
L 136.1391 373.172366 
L 140.434202 370.2378 
L 144.729304 366.772413 
L 149.024405 362.711322 
L 153.319507 357.988708 
L 157.614608 352.539497 
L 161.90971 346.301371 
L 166.204811 339.217063 
L 170.499913 331.236916 
L 174.795014 322.321628 
L 179.090116 312.445114 
L 183.385217 301.597371 
L 187.680319 289.787238 
L 191.97542 277.04491 
L 196.270522 263.424078 
L 200.565624 249.003534 
L 204.860725 233.888124 
L 209.155827 218.208919 
L 213.450928 202.122504 
L 217.74603 185.809323 
L 222.041131 169.471045 
L 226.336233 153.326975 
L 230.631334 137.609553 
L 234.926436 122.559072 
L 239.221537 108.417748 
L 243.516639 95.423357 
L 247.81174 83.802649 
L 252.106842 73.764805 
L 256.401944 65.495194 
L 260.697045 59.149682 
L 264.992147 54.849752 
L 269.287248 52.678636 
L 273.58235 52.678636 
L 277.877451 54.849752 
L 282.172553 59.149682 
L 286.467654 65.495194 
L 290.762756 73.764805 
L 295.057857 83.802649 
L 299.352959 95.423357 
L 303.64806 108.417748 
L 307.943162 122.559072 
L 312.238264 137.609553 
L 316.533365 153.326975 
L 320.828467 169.471045 
L 325.123568 185.809323 
L 329.41867 202.122504 
L 333.713771 218.208919 
L 338.008873 233.888124 
L 342.303974 249.003534 
L 346.599076 263.424078 
L 350.894177 277.04491 
L 355.189279 289.787238 
L 359.48438 301.597371 
L 363.779482 312.445114 
L 368.074584 322.321628 
L 372.369685 331.236916 
L 376.664787 339.217063 
L 380.959888 346.301371 
L 385.25499 352.539497 
L 389.550091 357.988708 
L 393.845193 362.711322 
L 398.140294 366.772413 
L 402.435396 370.2378 
L 406.730497 373.172366 
L 411.025599 375.638684 
L 415.3207 377.695976 
L 419.615802 379.399346 
L 423.910904 380.799296 
L 428.206005 381.941454 
L 432.501107 382.866516 
L 436.796208 383.610328 
L 441.09131 384.204102 
L 445.386411 384.674709 
L 449.681513 385.04504 
L 453.976614 385.334393 
L 458.271716 385.558878 
L 462.566817 385.73181 
L 466.861919 385.864094 
L 471.15702 385.964575 
L 475.452122 386.040368 
L 479.747224 386.097141 
L 484.042325 386.139371 
" style="fill:none;stroke:#4bc0c0;stroke-linecap:square;"/>
   </g>
   <g id="line2d_4">
    <path clip-path="url(#p53e09e6fff)" d="M 87.401832 386.140092 
L 91.724771 386.098134 
L 96.047709 386.041727 
L 100.370647 385.966422 
L 104.693586 385.866587 
L 109.016524 385.735156 
L 113.339462 385.563337 
L 117.662401 385.340298 
L 121.985339 385.052808 
L 126.308277 384.684862 
L 130.631216 384.217285 
L 134.954154 383.627335 
L 139.277092 382.888312 
L 143.600031 381.969207 
L 147.922969 380.834403 
L 152.245907 379.443469 
L 156.568846 377.751067 
L 160.891784 375.707023 
L 165.214722 373.256586 
L 169.537661 370.340917 
L 173.860599 366.897844 
L 178.183537 362.862904 
L 182.506476 358.1707 
L 186.829414 352.756579 
L 191.152352 346.558622 
L 195.475291 339.519932 
L 199.798229 331.591172 
L 204.121167 322.733292 
L 208.444106 312.920377 
L 212.767044 302.142486 
L 217.089982 290.408401 
L 221.412921 277.748126 
L 225.735859 264.215002 
L 230.058797 249.887317 
L 234.381736 234.86924 
L 238.704674 219.290999 
L 243.027612 203.308169 
L 247.350551 187.100034 
L 251.673489 170.866964 
L 255.996427 154.82685 
L 260.319366 139.210638 
L 264.642304 124.257072 
L 268.965242 110.206809 
L 273.288181 97.296092 
L 277.611119 85.750214 
L 281.934057 75.777007 
L 286.256996 67.560646 
L 290.579934 61.255995 
L 294.902872 56.983754 
L 299.225811 54.826619 
L 303.548749 54.826619 
L 307.871687 56.983754 
L 312.194626 61.255995 
L 316.517564 67.560646 
L 320.840502 75.777007 
L 325.163441 85.750214 
L 329.486379 97.296092 
L 333.809317 110.206809 
L 338.132256 124.257072 
L 342.455194 139.210638 
L 346.778132 154.82685 
L 351.101071 170.866964 
L 355.424009 187.100034 
L 359.746947 203.308169 
L 364.069886 219.290999 
L 368.392824 234.86924 
L 372.715762 249.887317 
L 377.038701 264.215002 
L 381.361639 277.748126 
L 385.684577 290.408401 
L 390.007516 302.142486 
L 394.330454 312.920377 
L 398.653392 322.733292 
L 402.976331 331.591172 
L 407.299269 339.519932 
L 411.622207 346.558622 
L 415.945146 352.756579 
L 420.268084 358.1707 
L 424.591022 362.862904 
L 428.913961 366.897844 
L 433.236899 370.340917 
L 437.559837 373.256586 
L 441.882776 375.707023 
L 446.205714 377.751067 
L 450.528652 379.443469 
L 454.851591 380.834403 
L 459.174529 381.969207 
L 463.497467 382.888312 
L 467.820406 383.627335 
L 472.143344 384.217285 
L 476.466282 384.684862 
L 480.789221 385.052808 
L 485.112159 385.340298 
L 489.435097 385.563337 
L 493.758036 385.735156 
L 498.080974 385.866587 
L 502.403912 385.966422 
L 506.726851 386.041727 
L 511.049789 386.098134 
L 515.372727 386.140092 
" style="fill:none;stroke:#9966ff;stroke-linecap:square;"/>
   </g>
   <g id="patch_3">
    <path d="M 36 402.93 
L 538.2 402.93 
" style="fill:none;stroke:#000000;stroke-linecap:square;stroke-linejoin:miter;stroke-width:0.8;"/>
   </g>
   <g id="legend_1">
    <g id="patch_4">
     <path d="M 450.225313 129.3975 
L 528.4 129.3975 
Q 531.2 129.3975 531.2 126.5975 
L 531.2 45.8 
Q 531.2 43 528.4 43 
L 450.225313 43 
Q 447.425313 43 447.425313 45.8 
L 447.425313 126.5975 
Q 447.425313 129.3975 450.225313 129.3975 
z
" style="fill:#ffffff;opacity:0.8;stroke:#cccccc;stroke-linejoin:miter;"/>
    </g>
    <g id="patch_5">
     <path d="M 453.025313 59.237813 
L 481.025313 59.237813 
L 481.025313 49.437813 
L 453.025313 49.437813 
z
" style="fill:#ff6384;opacity:0.5;stroke:#ff6384;stroke-linejoin:miter;"/>
    </g>
    <g id="text_1">
     <!-- base -->
     <defs>
      <path d="M 48.6875 27.296875 
Q 48.6875 37.203125 44.609375 42.84375 
Q 40.53125 48.484375 33.40625 48.484375 
Q 26.265625 48.484375 22.1875 42.84375 
Q 18.109375 37.203125 18.109375 27.296875 
Q 18.109375 17.390625 22.1875 11.75 
Q 26.265625 6.109375 33.40625 6.109375 
Q 40.53125 6.109375 44.609375 11.75 
Q 48.6875 17.390625 48.6875 27.296875 
z
M 18.109375 46.390625 
Q 20.953125 51.265625 25.265625 53.625 
Q 29.59375 56 35.59375 56 
Q 45.5625 56 51.78125 48.09375 
Q 58.015625 40.1875 58.015625 27.296875 
Q 58.015625 14.40625 51.78125 6.484375 
Q 45.5625 -1.421875 35.59375 -1.421875 
Q 29.59375 -1.421875 25.265625 0.953125 
Q 20.953125 3.328125 18.109375 8.203125 
L 18.109375 0 
L 9.078125 0 
L 9.078125 75.984375 
L 18.109375 75.984375 
z
" id="DejaVuSans-98"/>
      <path d="M 34.28125 27.484375 
Q 23.390625 27.484375 19.1875 25 
Q 14.984375 22.515625 14.984375 16.5 
Q 14.984375 11.71875 18.140625 8.90625 
Q 21.296875 6.109375 26.703125 6.109375 
Q 34.1875 6.109375 38.703125 11.40625 
Q 43.21875 16.703125 43.21875 25.484375 
L 43.21875 27.484375 
z
M 52.203125 31.203125 
L 52.203125 0 
L 43.21875 0 
L 43.21875 8.296875 
Q 40.140625 3.328125 35.546875 0.953125 
Q 30.953125 -1.421875 24.3125 -1.421875 
Q 15.921875 -1.421875 10.953125 3.296875 
Q 6 8.015625 6 15.921875 
Q 6 25.140625 12.171875 29.828125 
Q 18.359375 34.515625 30.609375 34.515625 
L 43.21875 34.515625 
L 43.21875 35.40625 
Q 43.21875 41.609375 39.140625 45 
Q 35.0625 48.390625 27.6875 48.390625 
Q 23 48.390625 18.546875 47.265625 
Q 14.109375 46.140625 10.015625 43.890625 
L 10.015625 52.203125 
Q 14.9375 54.109375 19.578125 55.046875 
Q 24.21875 56 28.609375 56 
Q 40.484375 56 46.34375 49.84375 
Q 52.203125 43.703125 52.203125 31.203125 
z
" id="DejaVuSans-97"/>
      <path d="M 44.28125 53.078125 
L 44.28125 44.578125 
Q 40.484375 46.53125 36.375 47.5 
Q 32.28125 48.484375 27.875 48.484375 
Q 21.1875 48.484375 17.84375 46.4375 
Q 14.5 44.390625 14.5 40.28125 
Q 14.5 37.15625 16.890625 35.375 
Q 19.28125 33.59375 26.515625 31.984375 
L 29.59375 31.296875 
Q 39.15625 29.25 43.1875 25.515625 
Q 47.21875 21.78125 47.21875 15.09375 
Q 47.21875 7.46875 41.1875 3.015625 
Q 35.15625 -1.421875 24.609375 -1.421875 
Q 20.21875 -1.421875 15.453125 -0.5625 
Q 10.6875 0.296875 5.421875 2 
L 5.421875 11.28125 
Q 10.40625 8.6875 15.234375 7.390625 
Q 20.0625 6.109375 24.8125 6.109375 
Q 31.15625 6.109375 34.5625 8.28125 
Q 37.984375 10.453125 37.984375 14.40625 
Q 37.984375 18.0625 35.515625 20.015625 
Q 33.0625 21.96875 24.703125 23.78125 
L 21.578125 24.515625 
Q 13.234375 26.265625 9.515625 29.90625 
Q 5.8125 33.546875 5.8125 39.890625 
Q 5.8125 47.609375 11.28125 51.796875 
Q 16.75 56 26.8125 56 
Q 31.78125 56 36.171875 55.265625 
Q 40.578125 54.546875 44.28125 53.078125 
z
" id="DejaVuSans-115"/>
      <path d="M 56.203125 29.59375 
L 56.203125 25.203125 
L 14.890625 25.203125 
Q 15.484375 15.921875 20.484375 11.0625 
Q 25.484375 6.203125 34.421875 6.203125 
Q 39.59375 6.203125 44.453125 7.46875 
Q 49.3125 8.734375 54.109375 11.28125 
L 54.109375 2.78125 
Q 49.265625 0.734375 44.1875 -0.34375 
Q 39.109375 -1.421875 33.890625 -1.421875 
Q 20.796875 -1.421875 13.15625 6.1875 
Q 5.515625 13.8125 5.515625 26.8125 
Q 5.515625 40.234375 12.765625 48.109375 
Q 20.015625 56 32.328125 56 
Q 43.359375 56 49.78125 48.890625 
Q 56.203125 41.796875 56.203125 29.59375 
z
M 47.21875 32.234375 
Q 47.125 39.59375 43.09375 43.984375 
Q 39.0625 48.390625 32.421875 48.390625 
Q 24.90625 48.390625 20.390625 44.140625 
Q 15.875 39.890625 15.1875 32.171875 
z
" id="DejaVuSans-101"/>
     </defs>
     <g transform="translate(492.225313 59.237813)scale(0.14 -0.14)">
      <use xlink:href="#DejaVuSans-98"/>
      <use x="63.476562" xlink:href="#DejaVuSans-97"/>
      <use x="124.755859" xlink:href="#DejaVuSans-115"/>
      <use x="176.855469" xlink:href="#DejaVuSans-101"/>
     </g>
    </g>
    <g id="patch_6">
     <path d="M 453.025313 79.787188 
L 481.025313 79.787188 
L 481.025313 69.987188 
L 453.025313 69.987188 
z
" style="fill:#36a2eb;opacity:0.5;stroke:#36a2eb;stroke-linejoin:miter;"/>
    </g>
    <g id="text_2">
     <!-- fifth -->
     <defs>
      <path d="M 37.109375 75.984375 
L 37.109375 68.5 
L 28.515625 68.5 
Q 23.6875 68.5 21.796875 66.546875 
Q 19.921875 64.59375 19.921875 59.515625 
L 19.921875 54.6875 
L 34.71875 54.6875 
L 34.71875 47.703125 
L 19.921875 47.703125 
L 19.921875 0 
L 10.890625 0 
L 10.890625 47.703125 
L 2.296875 47.703125 
L 2.296875 54.6875 
L 10.890625 54.6875 
L 10.890625 58.5 
Q 10.890625 67.625 15.140625 71.796875 
Q 19.390625 75.984375 28.609375 75.984375 
z
" id="DejaVuSans-102"/>
      <path d="M 9.421875 54.6875 
L 18.40625 54.6875 
L 18.40625 0 
L 9.421875 0 
z
M 9.421875 75.984375 
L 18.40625 75.984375 
L 18.40625 64.59375 
L 9.421875 64.59375 
z
" id="DejaVuSans-105"/>
      <path d="M 18.3125 70.21875 
L 18.3125 54.6875 
L 36.8125 54.6875 
L 36.8125 47.703125 
L 18.3125 47.703125 
L 18.3125 18.015625 
Q 18.3125 11.328125 20.140625 9.421875 
Q 21.96875 7.515625 27.59375 7.515625 
L 36.8125 7.515625 
L 36.8125 0 
L 27.59375 0 
Q 17.1875 0 13.234375 3.875 
Q 9.28125 7.765625 9.28125 18.015625 
L 9.28125 47.703125 
L 2.6875 47.703125 
L 2.6875 54.6875 
L 9.28125 54.6875 
L 9.28125 70.21875 
z
" id="DejaVuSans-116"/>
      <path d="M 54.890625 33.015625 
L 54.890625 0 
L 45.90625 0 
L 45.90625 32.71875 
Q 45.90625 40.484375 42.875 44.328125 
Q 39.84375 48.1875 33.796875 48.1875 
Q 26.515625 48.1875 22.3125 43.546875 
Q 18.109375 38.921875 18.109375 30.90625 
L 18.109375 0 
L 9.078125 0 
L 9.078125 75.984375 
L 18.109375 75.984375 
L 18.109375 46.1875 
Q 21.34375 51.125 25.703125 53.5625 
Q 30.078125 56 35.796875 56 
Q 45.21875 56 50.046875 50.171875 
Q 54.890625 44.34375 54.890625 33.015625 
z
" id="DejaVuSans-104"/>
     </defs>
     <g transform="translate(492.225313 79.787188)scale(0.14 -0.14)">
      <use xlink:href="#DejaVuSans-102"/>
      <use x="35.205078" xlink:href="#DejaVuSans-105"/>
      <use x="62.988281" xlink:href="#DejaVuSans-102"/>
      <use x="98.177734" xlink:href="#DejaVuSans-116"/>
      <use x="137.386719" xlink:href="#DejaVuSans-104"/>
     </g>
    </g>
    <g id="patch_7">
     <path d="M 453.025313 100.336563 
L 481.025313 100.336563 
L 481.025313 90.536563 
L 453.025313 90.536563 
z
" style="fill:#4bc0c0;opacity:0.5;stroke:#4bc0c0;stroke-linejoin:miter;"/>
    </g>
    <g id="text_3">
     <!-- mid -->
     <defs>
      <path d="M 52 44.1875 
Q 55.375 50.25 60.0625 53.125 
Q 64.75 56 71.09375 56 
Q 79.640625 56 84.28125 50.015625 
Q 88.921875 44.046875 88.921875 33.015625 
L 88.921875 0 
L 79.890625 0 
L 79.890625 32.71875 
Q 79.890625 40.578125 77.09375 44.375 
Q 74.3125 48.1875 68.609375 48.1875 
Q 61.625 48.1875 57.5625 43.546875 
Q 53.515625 38.921875 53.515625 30.90625 
L 53.515625 0 
L 44.484375 0 
L 44.484375 32.71875 
Q 44.484375 40.625 41.703125 44.40625 
Q 38.921875 48.1875 33.109375 48.1875 
Q 26.21875 48.1875 22.15625 43.53125 
Q 18.109375 38.875 18.109375 30.90625 
L 18.109375 0 
L 9.078125 0 
L 9.078125 54.6875 
L 18.109375 54.6875 
L 18.109375 46.1875 
Q 21.1875 51.21875 25.484375 53.609375 
Q 29.78125 56 35.6875 56 
Q 41.65625 56 45.828125 52.96875 
Q 50 49.953125 52 44.1875 
z
" id="DejaVuSans-109"/>
      <path d="M 45.40625 46.390625 
L 45.40625 75.984375 
L 54.390625 75.984375 
L 54.390625 0 
L 45.40625 0 
L 45.40625 8.203125 
Q 42.578125 3.328125 38.25 0.953125 
Q 33.9375 -1.421875 27.875 -1.421875 
Q 17.96875 -1.421875 11.734375 6.484375 
Q 5.515625 14.40625 5.515625 27.296875 
Q 5.515625 40.1875 11.734375 48.09375 
Q 17.96875 56 27.875 56 
Q 33.9375 56 38.25 53.625 
Q 42.578125 51.265625 45.40625 46.390625 
z
M 14.796875 27.296875 
Q 14.796875 17.390625 18.875 11.75 
Q 22.953125 6.109375 30.078125 6.109375 
Q 37.203125 6.109375 41.296875 11.75 
Q 45.40625 17.390625 45.40625 27.296875 
Q 45.40625 37.203125 41.296875 42.84375 
Q 37.203125 48.484375 30.078125 48.484375 
Q 22.953125 48.484375 18.875 42.84375 
Q 14.796875 37.203125 14.796875 27.296875 
z
" id="DejaVuSans-100"/>
     </defs>
     <g transform="translate(492.225313 100.336563)scale(0.14 -0.14)">
      <use xlink:href="#DejaVuSans-109"/>
      <use x="97.412109" xlink:href="#DejaVuSans-105"/>
      <use x="125.195312" xlink:href="#DejaVuSans-100"/>
     </g>
    </g>
    <g id="patch_8">
     <path d="M 453.025313 120.885938 
L 481.025313 120.885938 
L 481.025313 111.085938 
L 453.025313 111.085938 
z
" style="fill:#9966ff;opacity:0.5;stroke:#9966ff;stroke-linejoin:miter;"/>
    </g>
    <g id="text_4">
     <!-- right -->
     <defs>
      <path d="M 41.109375 46.296875 
Q 39.59375 47.171875 37.8125 47.578125 
Q 36.03125 48 33.890625 48 
Q 26.265625 48 22.1875 43.046875 
Q 18.109375 38.09375 18.109375 28.8125 
L 18.109375 0 
L 9.078125 0 
L 9.078125 54.6875 
L 18.109375 54.6875 
L 18.109375 46.1875 
Q 20.953125 51.171875 25.484375 53.578125 
Q 30.03125 56 36.53125 56 
Q 37.453125 56 38.578125 55.875 
Q 39.703125 55.765625 41.0625 55.515625 
z
" id="DejaVuSans-114"/>
      <path d="M 45.40625 27.984375 
Q 45.40625 37.75 41.375 43.109375 
Q 37.359375 48.484375 30.078125 48.484375 
Q 22.859375 48.484375 18.828125 43.109375 
Q 14.796875 37.75 14.796875 27.984375 
Q 14.796875 18.265625 18.828125 12.890625 
Q 22.859375 7.515625 30.078125 7.515625 
Q 37.359375 7.515625 41.375 12.890625 
Q 45.40625 18.265625 45.40625 27.984375 
z
M 54.390625 6.78125 
Q 54.390625 -7.171875 48.1875 -13.984375 
Q 42 -20.796875 29.203125 -20.796875 
Q 24.46875 -20.796875 20.265625 -20.09375 
Q 16.0625 -19.390625 12.109375 -17.921875 
L 12.109375 -9.1875 
Q 16.0625 -11.328125 19.921875 -12.34375 
Q 23.78125 -13.375 27.78125 -13.375 
Q 36.625 -13.375 41.015625 -8.765625 
Q 45.40625 -4.15625 45.40625 5.171875 
L 45.40625 9.625 
Q 42.625 4.78125 38.28125 2.390625 
Q 33.9375 0 27.875 0 
Q 17.828125 0 11.671875 7.65625 
Q 5.515625 15.328125 5.515625 27.984375 
Q 5.515625 40.671875 11.671875 48.328125 
Q 17.828125 56 27.875 56 
Q 33.9375 56 38.28125 53.609375 
Q 42.625 51.21875 45.40625 46.390625 
L 45.40625 54.6875 
L 54.390625 54.6875 
z
" id="DejaVuSans-103"/>
     </defs>
     <g transform="translate(492.225313 120.885938)scale(0.14 -0.14)">
      <use xlink:href="#DejaVuSans-114"/>
      <use x="41.113281" xlink:href="#DejaVuSans-105"/>
      <use x="68.896484" xlink:href="#DejaVuSans-103"/>
      <use x="132.373047" xlink:href="#DejaVuSans-104"/>
      <use x="195.751953" xlink:href="#DejaVuSans-116"/>
     </g>
    </g>
   </g>
  </g>
  <g id="axes_2">
   <g id="patch_9">
    <path d="M 36 525.24 
L 538.2 525.24 
L 538.2 402.93 
L 36 402.93 
z
" style="fill:none;"/>
   </g>
   <g id="patch_10">
    <path clip-path="url(#p4c92ce7b9c)" d="M 183.497604 519.680455 
L 392.652528 519.680455 
L 392.652528 503.796039 
L 183.497604 503.796039 
z
" style="fill:#ff6384;opacity:0.5;"/>
   </g>
   <g id="patch_11">
    <path clip-path="url(#p4c92ce7b9c)" d="M 188.592244 487.911623 
L 397.542049 487.911623 
L 397.542049 472.027208 
L 188.592244 472.027208 
z
" style="fill:#36a2eb;opacity:0.5;"/>
   </g>
   <g id="patch_12">
    <path clip-path="url(#p4c92ce7b9c)" d="M 167.257111 456.142792 
L 375.612487 456.142792 
L 375.612487 440.258377 
L 167.257111 440.258377 
z
" style="fill:#4bc0c0;opacity:0.5;"/>
   </g>
   <g id="patch_13">
    <path clip-path="url(#p4c92ce7b9c)" d="M 196.53441 424.373961 
L 406.240149 424.373961 
L 406.240149 408.489545 
L 196.53441 408.489545 
z
" style="fill:#9966ff;opacity:0.5;"/>
   </g>
   <g id="matplotlib.axis_1">
    <g id="xtick_1">
     <g id="line2d_5">
      <defs>
       <path d="M 0 0 
L 0 3.5 
" id="m75782d71e6" style="stroke:#000000;stroke-width:0.8;"/>
      </defs>
      <g>
       <use style="stroke:#000000;stroke-width:0.8;" x="71.751593" xlink:href="#m75782d71e6" y="525.24"/>
      </g>
     </g>
     <g id="text_5">
      <!-- 6.0 -->
      <defs>
       <path d="M 33.015625 40.375 
Q 26.375 40.375 22.484375 35.828125 
Q 18.609375 31.296875 18.609375 23.390625 
Q 18.609375 15.53125 22.484375 10.953125 
Q 26.375 6.390625 33.015625 6.390625 
Q 39.65625 6.390625 43.53125 10.953125 
Q 47.40625 15.53125 47.40625 23.390625 
Q 47.40625 31.296875 43.53125 35.828125 
Q 39.65625 40.375 33.015625 40.375 
z
M 52.59375 71.296875 
L 52.59375 62.3125 
Q 48.875 64.0625 45.09375 64.984375 
Q 41.3125 65.921875 37.59375 65.921875 
Q 27.828125 65.921875 22.671875 59.328125 
Q 17.53125 52.734375 16.796875 39.40625 
Q 19.671875 43.65625 24.015625 45.921875 
Q 28.375 48.1875 33.59375 48.1875 
Q 44.578125 48.1875 50.953125 41.515625 
Q 57.328125 34.859375 57.328125 23.390625 
Q 57.328125 12.15625 50.6875 5.359375 
Q 44.046875 -1.421875 33.015625 -1.421875 
Q 20.359375 -1.421875 13.671875 8.265625 
Q 6.984375 17.96875 6.984375 36.375 
Q 6.984375 53.65625 15.1875 63.9375 
Q 23.390625 74.21875 37.203125 74.21875 
Q 40.921875 74.21875 44.703125 73.484375 
Q 48.484375 72.75 52.59375 71.296875 
z
" id="DejaVuSans-54"/>
       <path d="M 10.6875 12.40625 
L 21 12.40625 
L 21 0 
L 10.6875 0 
z
" id="DejaVuSans-46"/>
       <path d="M 31.78125 66.40625 
Q 24.171875 66.40625 20.328125 58.90625 
Q 16.5 51.421875 16.5 36.375 
Q 16.5 21.390625 20.328125 13.890625 
Q 24.171875 6.390625 31.78125 6.390625 
Q 39.453125 6.390625 43.28125 13.890625 
Q 47.125 21.390625 47.125 36.375 
Q 47.125 51.421875 43.28125 58.90625 
Q 39.453125 66.40625 31.78125 66.40625 
z
M 31.78125 74.21875 
Q 44.046875 74.21875 50.515625 64.515625 
Q 56.984375 54.828125 56.984375 36.375 
Q 56.984375 17.96875 50.515625 8.265625 
Q 44.046875 -1.421875 31.78125 -1.421875 
Q 19.53125 -1.421875 13.0625 8.265625 
Q 6.59375 17.96875 6.59375 36.375 
Q 6.59375 54.828125 13.0625 64.515625 
Q 19.53125 74.21875 31.78125 74.21875 
z
" id="DejaVuSans-48"/>
      </defs>
      <g transform="translate(60.619406 542.877813)scale(0.14 -0.14)">
       <use xlink:href="#DejaVuSans-54"/>
       <use x="63.623047" xlink:href="#DejaVuSans-46"/>
       <use x="95.410156" xlink:href="#DejaVuSans-48"/>
      </g>
     </g>
    </g>
    <g id="xtick_2">
     <g id="line2d_6">
      <g>
       <use style="stroke:#000000;stroke-width:0.8;" x="154.952929" xlink:href="#m75782d71e6" y="525.24"/>
      </g>
     </g>
     <g id="text_6">
      <!-- 6.5 -->
      <defs>
       <path d="M 10.796875 72.90625 
L 49.515625 72.90625 
L 49.515625 64.59375 
L 19.828125 64.59375 
L 19.828125 46.734375 
Q 21.96875 47.46875 24.109375 47.828125 
Q 26.265625 48.1875 28.421875 48.1875 
Q 40.625 48.1875 47.75 41.5 
Q 54.890625 34.8125 54.890625 23.390625 
Q 54.890625 11.625 47.5625 5.09375 
Q 40.234375 -1.421875 26.90625 -1.421875 
Q 22.3125 -1.421875 17.546875 -0.640625 
Q 12.796875 0.140625 7.71875 1.703125 
L 7.71875 11.625 
Q 12.109375 9.234375 16.796875 8.0625 
Q 21.484375 6.890625 26.703125 6.890625 
Q 35.15625 6.890625 40.078125 11.328125 
Q 45.015625 15.765625 45.015625 23.390625 
Q 45.015625 31 40.078125 35.4375 
Q 35.15625 39.890625 26.703125 39.890625 
Q 22.75 39.890625 18.8125 39.015625 
Q 14.890625 38.140625 10.796875 36.28125 
z
" id="DejaVuSans-53"/>
      </defs>
      <g transform="translate(143.820741 542.877813)scale(0.14 -0.14)">
       <use xlink:href="#DejaVuSans-54"/>
       <use x="63.623047" xlink:href="#DejaVuSans-46"/>
       <use x="95.410156" xlink:href="#DejaVuSans-53"/>
      </g>
     </g>
    </g>
    <g id="xtick_3">
     <g id="line2d_7">
      <g>
       <use style="stroke:#000000;stroke-width:0.8;" x="238.154265" xlink:href="#m75782d71e6" y="525.24"/>
      </g>
     </g>
     <g id="text_7">
      <!-- 7.0 -->
      <defs>
       <path d="M 8.203125 72.90625 
L 55.078125 72.90625 
L 55.078125 68.703125 
L 28.609375 0 
L 18.3125 0 
L 43.21875 64.59375 
L 8.203125 64.59375 
z
" id="DejaVuSans-55"/>
      </defs>
      <g transform="translate(227.022077 542.877813)scale(0.14 -0.14)">
       <use xlink:href="#DejaVuSans-55"/>
       <use x="63.623047" xlink:href="#DejaVuSans-46"/>
       <use x="95.410156" xlink:href="#DejaVuSans-48"/>
      </g>
     </g>
    </g>
    <g id="xtick_4">
     <g id="line2d_8">
      <g>
       <use style="stroke:#000000;stroke-width:0.8;" x="321.3556" xlink:href="#m75782d71e6" y="525.24"/>
      </g>
     </g>
     <g id="text_8">
      <!-- 7.5 -->
      <g transform="translate(310.223413 542.877813)scale(0.14 -0.14)">
       <use xlink:href="#DejaVuSans-55"/>
       <use x="63.623047" xlink:href="#DejaVuSans-46"/>
       <use x="95.410156" xlink:href="#DejaVuSans-53"/>
      </g>
     </g>
    </g>
    <g id="xtick_5">
     <g id="line2d_9">
      <g>
       <use style="stroke:#000000;stroke-width:0.8;" x="404.556936" xlink:href="#m75782d71e6" y="525.24"/>
      </g>
     </g>
     <g id="text_9">
      <!-- 8.0 -->
      <defs>
       <path d="M 31.78125 34.625 
Q 24.75 34.625 20.71875 30.859375 
Q 16.703125 27.09375 16.703125 20.515625 
Q 16.703125 13.921875 20.71875 10.15625 
Q 24.75 6.390625 31.78125 6.390625 
Q 38.8125 6.390625 42.859375 10.171875 
Q 46.921875 13.96875 46.921875 20.515625 
Q 46.921875 27.09375 42.890625 30.859375 
Q 38.875 34.625 31.78125 34.625 
z
M 21.921875 38.8125 
Q 15.578125 40.375 12.03125 44.71875 
Q 8.5 49.078125 8.5 55.328125 
Q 8.5 64.0625 14.71875 69.140625 
Q 20.953125 74.21875 31.78125 74.21875 
Q 42.671875 74.21875 48.875 69.140625 
Q 55.078125 64.0625 55.078125 55.328125 
Q 55.078125 49.078125 51.53125 44.71875 
Q 48 40.375 41.703125 38.8125 
Q 48.828125 37.15625 52.796875 32.3125 
Q 56.78125 27.484375 56.78125 20.515625 
Q 56.78125 9.90625 50.3125 4.234375 
Q 43.84375 -1.421875 31.78125 -1.421875 
Q 19.734375 -1.421875 13.25 4.234375 
Q 6.78125 9.90625 6.78125 20.515625 
Q 6.78125 27.484375 10.78125 32.3125 
Q 14.796875 37.15625 21.921875 38.8125 
z
M 18.3125 54.390625 
Q 18.3125 48.734375 21.84375 45.5625 
Q 25.390625 42.390625 31.78125 42.390625 
Q 38.140625 42.390625 41.71875 45.5625 
Q 45.3125 48.734375 45.3125 54.390625 
Q 45.3125 60.0625 41.71875 63.234375 
Q 38.140625 66.40625 31.78125 66.40625 
Q 25.390625 66.40625 21.84375 63.234375 
Q 18.3125 60.0625 18.3125 54.390625 
z
" id="DejaVuSans-56"/>
      </defs>
      <g transform="translate(393.424749 542.877813)scale(0.14 -0.14)">
       <use xlink:href="#DejaVuSans-56"/>
       <use x="63.623047" xlink:href="#DejaVuSans-46"/>
       <use x="95.410156" xlink:href="#DejaVuSans-48"/>
      </g>
     </g>
    </g>
    <g id="xtick_6">
     <g id="line2d_10">
      <g>
       <use style="stroke:#000000;stroke-width:0.8;" x="487.758272" xlink:href="#m75782d71e6" y="525.24"/>
      </g>
     </g>
     <g id="text_10">
      <!-- 8.5 -->
      <g transform="translate(476.626084 542.877813)scale(0.14 -0.14)">
       <use xlink:href="#DejaVuSans-56"/>
       <use x="63.623047" xlink:href="#DejaVuSans-46"/>
       <use x="95.410156" xlink:href="#DejaVuSans-53"/>
      </g>
     </g>
    </g>
   </g>
   <g id="line2d_11">
    <path clip-path="url(#p4c92ce7b9c)" d="M 288.075066 525.24 
L 288.075066 402.93 
" style="fill:none;stroke:#ff6384;stroke-dasharray:5.55,2.4;stroke-dashoffset:0;stroke-opacity:0.8;stroke-width:1.5;"/>
   </g>
   <g id="line2d_12">
    <path clip-path="url(#p4c92ce7b9c)" d="M 293.067146 525.24 
L 293.067146 402.93 
" style="fill:none;stroke:#36a2eb;stroke-dasharray:5.55,2.4;stroke-dashoffset:0;stroke-opacity:0.8;stroke-width:1.5;"/>
   </g>
   <g id="line2d_13">
    <path clip-path="url(#p4c92ce7b9c)" d="M 271.434799 525.24 
L 271.434799 402.93 
" style="fill:none;stroke:#4bc0c0;stroke-dasharray:5.55,2.4;stroke-dashoffset:0;stroke-opacity:0.8;stroke-width:1.5;"/>
   </g>
   <g id="line2d_14">
    <path clip-path="url(#p4c92ce7b9c)" d="M 301.38728 525.24 
L 301.38728 402.93 
" style="fill:none;stroke:#9966ff;stroke-dasharray:5.55,2.4;stroke-dashoffset:0;stroke-opacity:0.8;stroke-width:1.5;"/>
   </g>
   <g id="patch_14">
    <path d="M 36 525.24 
L 538.2 525.24 
" style="fill:none;stroke:#000000;stroke-linecap:square;stroke-linejoin:miter;stroke-width:0.8;"/>
   </g>
  </g>
 </g>
 <defs>
  <clipPath id="p53e09e6fff">
   <rect height="366.93" width="502.2" x="36" y="36"/>
  </clipPath>
  <clipPath id="p4c92ce7b9c">
   <rect height="122.31" width="502.2" x="36" y="402.93"/>
  </clipPath>
 </defs>
</svg>
