<?xml version="1.0" encoding="utf-8" standalone="no"?>
<!DOCTYPE svg PUBLIC "-//W3C//DTD SVG 1.1//EN"
  "http://www.w3.org/Graphics/SVG/1.1/DTD/svg11.dtd">
<!-- Created with matplotlib (https://matplotlib.org/) -->
<svg height="581.789375pt" version="1.1" viewBox="0 0 574.2 581.789375" width="574.2pt" xmlns="http://www.w3.org/2000/svg" xmlns:xlink="http://www.w3.org/1999/xlink">
 <defs>
  <style type="text/css">
*{stroke-linecap:butt;stroke-linejoin:round;}
  </style>
 </defs>
 <g id="figure_1">
  <g id="patch_1">
   <path d="M 0 581.789375 
L 574.2 581.789375 
L 574.2 0 
L 0 0 
z
" style="fill:none;"/>
  </g>
  <g id="axes_1">
   <g id="patch_2">
    <path d="M 36 402.93 
L 538.2 402.93 
L 538.2 36 
L 36 36 
z
" style="fill:none;"/>
   </g>
   <g id="PolyCollection_1">
    <defs>
     <path d="M 73.074107 -195.538011 
L 73.074107 -195.649595 
L 77.348792 -195.691671 
L 81.623476 -195.748236 
L 85.898161 -195.823753 
L 90.172846 -195.923867 
L 94.44753 -196.055668 
L 98.722215 -196.227968 
L 102.996899 -196.451633 
L 107.271584 -196.73993 
L 111.546268 -197.108909 
L 115.820953 -197.577797 
L 120.095637 -198.169403 
L 124.370322 -198.910499 
L 128.645006 -199.832183 
L 132.919691 -200.97017 
L 137.194376 -202.365008 
L 141.46906 -204.062158 
L 145.743745 -206.111937 
L 150.018429 -208.56925 
L 154.293114 -211.493099 
L 158.567798 -214.945832 
L 162.842483 -218.992093 
L 167.117167 -223.697462 
L 171.391852 -229.126774 
L 175.666536 -235.342121 
L 179.941221 -242.40056 
L 184.215906 -250.351567 
L 188.49059 -259.234299 
L 192.765275 -269.074747 
L 197.039959 -279.882878 
L 201.314644 -291.649886 
L 205.589328 -304.345683 
L 209.864013 -317.916777 
L 214.138697 -332.284663 
L 218.413382 -347.344876 
L 222.688066 -362.966826 
L 226.962751 -378.9945 
L 231.237435 -395.248112 
L 235.51212 -411.526728 
L 239.786805 -427.611846 
L 244.061489 -443.271873 
L 248.336174 -458.267396 
L 252.610858 -472.35708 
L 256.885543 -485.304021 
L 261.160227 -496.882295 
L 265.434912 -506.883484 
L 269.709596 -515.122898 
L 273.984281 -521.445238 
L 278.258965 -525.729466 
L 282.53365 -527.892654 
L 286.808335 -527.892654 
L 291.083019 -525.729466 
L 295.357704 -521.445238 
L 299.632388 -515.122898 
L 303.907073 -506.883484 
L 308.181757 -496.882295 
L 312.456442 -485.304021 
L 316.731126 -472.35708 
L 321.005811 -458.267396 
L 325.280495 -443.271873 
L 329.55518 -427.611846 
L 333.829865 -411.526728 
L 338.104549 -395.248112 
L 342.379234 -378.9945 
L 346.653918 -362.966826 
L 350.928603 -347.344876 
L 355.203287 -332.284663 
L 359.477972 -317.916777 
L 363.752656 -304.345683 
L 368.027341 -291.649886 
L 372.302025 -279.882878 
L 376.57671 -269.074747 
L 380.851395 -259.234299 
L 385.126079 -250.351567 
L 389.400764 -242.40056 
L 393.675448 -235.342121 
L 397.950133 -229.126774 
L 402.224817 -223.697462 
L 406.499502 -218.992093 
L 410.774186 -214.945832 
L 415.048871 -211.493099 
L 419.323555 -208.56925 
L 423.59824 -206.111937 
L 427.872924 -204.062158 
L 432.147609 -202.365008 
L 436.422294 -200.97017 
L 440.696978 -199.832183 
L 444.971663 -198.910499 
L 449.246347 -198.169403 
L 453.521032 -197.577797 
L 457.795716 -197.108909 
L 462.070401 -196.73993 
L 466.345085 -196.451633 
L 470.61977 -196.227968 
L 474.894454 -196.055668 
L 479.169139 -195.923867 
L 483.443824 -195.823753 
L 487.718508 -195.748236 
L 491.993193 -195.691671 
L 496.267877 -195.649595 
L 496.267877 -195.538011 
L 496.267877 -195.538011 
L 491.993193 -195.538011 
L 487.718508 -195.538011 
L 483.443824 -195.538011 
L 479.169139 -195.538011 
L 474.894454 -195.538011 
L 470.61977 -195.538011 
L 466.345085 -195.538011 
L 462.070401 -195.538011 
L 457.795716 -195.538011 
L 453.521032 -195.538011 
L 449.246347 -195.538011 
L 444.971663 -195.538011 
L 440.696978 -195.538011 
L 436.422294 -195.538011 
L 432.147609 -195.538011 
L 427.872924 -195.538011 
L 423.59824 -195.538011 
L 419.323555 -195.538011 
L 415.048871 -195.538011 
L 410.774186 -195.538011 
L 406.499502 -195.538011 
L 402.224817 -195.538011 
L 397.950133 -195.538011 
L 393.675448 -195.538011 
L 389.400764 -195.538011 
L 385.126079 -195.538011 
L 380.851395 -195.538011 
L 376.57671 -195.538011 
L 372.302025 -195.538011 
L 368.027341 -195.538011 
L 363.752656 -195.538011 
L 359.477972 -195.538011 
L 355.203287 -195.538011 
L 350.928603 -195.538011 
L 346.653918 -195.538011 
L 342.379234 -195.538011 
L 338.104549 -195.538011 
L 333.829865 -195.538011 
L 329.55518 -195.538011 
L 325.280495 -195.538011 
L 321.005811 -195.538011 
L 316.731126 -195.538011 
L 312.456442 -195.538011 
L 308.181757 -195.538011 
L 303.907073 -195.538011 
L 299.632388 -195.538011 
L 295.357704 -195.538011 
L 291.083019 -195.538011 
L 286.808335 -195.538011 
L 282.53365 -195.538011 
L 278.258965 -195.538011 
L 273.984281 -195.538011 
L 269.709596 -195.538011 
L 265.434912 -195.538011 
L 261.160227 -195.538011 
L 256.885543 -195.538011 
L 252.610858 -195.538011 
L 248.336174 -195.538011 
L 244.061489 -195.538011 
L 239.786805 -195.538011 
L 235.51212 -195.538011 
L 231.237435 -195.538011 
L 226.962751 -195.538011 
L 222.688066 -195.538011 
L 218.413382 -195.538011 
L 214.138697 -195.538011 
L 209.864013 -195.538011 
L 205.589328 -195.538011 
L 201.314644 -195.538011 
L 197.039959 -195.538011 
L 192.765275 -195.538011 
L 188.49059 -195.538011 
L 184.215906 -195.538011 
L 179.941221 -195.538011 
L 175.666536 -195.538011 
L 171.391852 -195.538011 
L 167.117167 -195.538011 
L 162.842483 -195.538011 
L 158.567798 -195.538011 
L 154.293114 -195.538011 
L 150.018429 -195.538011 
L 145.743745 -195.538011 
L 141.46906 -195.538011 
L 137.194376 -195.538011 
L 132.919691 -195.538011 
L 128.645006 -195.538011 
L 124.370322 -195.538011 
L 120.095637 -195.538011 
L 115.820953 -195.538011 
L 111.546268 -195.538011 
L 107.271584 -195.538011 
L 102.996899 -195.538011 
L 98.722215 -195.538011 
L 94.44753 -195.538011 
L 90.172846 -195.538011 
L 85.898161 -195.538011 
L 81.623476 -195.538011 
L 77.348792 -195.538011 
L 73.074107 -195.538011 
z
" id="mc51bb7153f" style="stroke:#ff6384;stroke-opacity:0.5;"/>
    </defs>
    <g clip-path="url(#pe09478fb00)">
     <use style="fill:#ff6384;fill-opacity:0.5;stroke:#ff6384;stroke-opacity:0.5;" x="0" xlink:href="#mc51bb7153f" y="581.789375"/>
    </g>
   </g>
   <g id="PolyCollection_2">
    <defs>
     <path d="M 76.554256 -195.538011 
L 76.554256 -195.64967 
L 80.826062 -195.691775 
L 85.097868 -195.748378 
L 89.369675 -195.823945 
L 93.641481 -195.924127 
L 97.913287 -196.056016 
L 102.185093 -196.228433 
L 106.456899 -196.452249 
L 110.728705 -196.74074 
L 115.000512 -197.109967 
L 119.272318 -197.579172 
L 123.544124 -198.171176 
L 127.81593 -198.912771 
L 132.087736 -199.835076 
L 136.359542 -200.973831 
L 140.631348 -202.369608 
L 144.903155 -204.067902 
L 149.174961 -206.119062 
L 153.446767 -208.57803 
L 157.718573 -211.50385 
L 161.990379 -214.958909 
L 166.262185 -219.007897 
L 170.533992 -223.716437 
L 174.805798 -229.149407 
L 179.077604 -235.368942 
L 183.34941 -242.432137 
L 187.621216 -250.388501 
L 191.893022 -259.277218 
L 196.164829 -269.124297 
L 200.436635 -279.939711 
L 204.708441 -291.714647 
L 208.980247 -304.418999 
L 213.252053 -317.999237 
L 217.523859 -332.376804 
L 221.795665 -347.447165 
L 226.067472 -363.079642 
L 230.339278 -379.118115 
L 234.611084 -395.382678 
L 238.88289 -411.672263 
L 243.154696 -427.768219 
L 247.426502 -443.438799 
L 251.698309 -458.444425 
L 255.970115 -472.543604 
L 260.241921 -485.499268 
L 264.513727 -497.085344 
L 268.785533 -507.093271 
L 273.057339 -515.338237 
L 277.329145 -521.664838 
L 281.600952 -525.951953 
L 285.872758 -528.116598 
L 290.144564 -528.116598 
L 294.41637 -525.951953 
L 298.688176 -521.664838 
L 302.959982 -515.338237 
L 307.231789 -507.093271 
L 311.503595 -497.085344 
L 315.775401 -485.499268 
L 320.047207 -472.543604 
L 324.319013 -458.444425 
L 328.590819 -443.438799 
L 332.862626 -427.768219 
L 337.134432 -411.672263 
L 341.406238 -395.382678 
L 345.678044 -379.118115 
L 349.94985 -363.079642 
L 354.221656 -347.447165 
L 358.493462 -332.376804 
L 362.765269 -317.999237 
L 367.037075 -304.418999 
L 371.308881 -291.714647 
L 375.580687 -279.939711 
L 379.852493 -269.124297 
L 384.124299 -259.277218 
L 388.396106 -250.388501 
L 392.667912 -242.432137 
L 396.939718 -235.368942 
L 401.211524 -229.149407 
L 405.48333 -223.716437 
L 409.755136 -219.007897 
L 414.026943 -214.958909 
L 418.298749 -211.50385 
L 422.570555 -208.57803 
L 426.842361 -206.119062 
L 431.114167 -204.067902 
L 435.385973 -202.369608 
L 439.657779 -200.973831 
L 443.929586 -199.835076 
L 448.201392 -198.912771 
L 452.473198 -198.171176 
L 456.745004 -197.579172 
L 461.01681 -197.109967 
L 465.288616 -196.74074 
L 469.560423 -196.452249 
L 473.832229 -196.228433 
L 478.104035 -196.056016 
L 482.375841 -195.924127 
L 486.647647 -195.823945 
L 490.919453 -195.748378 
L 495.191259 -195.691775 
L 499.463066 -195.64967 
L 499.463066 -195.538011 
L 499.463066 -195.538011 
L 495.191259 -195.538011 
L 490.919453 -195.538011 
L 486.647647 -195.538011 
L 482.375841 -195.538011 
L 478.104035 -195.538011 
L 473.832229 -195.538011 
L 469.560423 -195.538011 
L 465.288616 -195.538011 
L 461.01681 -195.538011 
L 456.745004 -195.538011 
L 452.473198 -195.538011 
L 448.201392 -195.538011 
L 443.929586 -195.538011 
L 439.657779 -195.538011 
L 435.385973 -195.538011 
L 431.114167 -195.538011 
L 426.842361 -195.538011 
L 422.570555 -195.538011 
L 418.298749 -195.538011 
L 414.026943 -195.538011 
L 409.755136 -195.538011 
L 405.48333 -195.538011 
L 401.211524 -195.538011 
L 396.939718 -195.538011 
L 392.667912 -195.538011 
L 388.396106 -195.538011 
L 384.124299 -195.538011 
L 379.852493 -195.538011 
L 375.580687 -195.538011 
L 371.308881 -195.538011 
L 367.037075 -195.538011 
L 362.765269 -195.538011 
L 358.493462 -195.538011 
L 354.221656 -195.538011 
L 349.94985 -195.538011 
L 345.678044 -195.538011 
L 341.406238 -195.538011 
L 337.134432 -195.538011 
L 332.862626 -195.538011 
L 328.590819 -195.538011 
L 324.319013 -195.538011 
L 320.047207 -195.538011 
L 315.775401 -195.538011 
L 311.503595 -195.538011 
L 307.231789 -195.538011 
L 302.959982 -195.538011 
L 298.688176 -195.538011 
L 294.41637 -195.538011 
L 290.144564 -195.538011 
L 285.872758 -195.538011 
L 281.600952 -195.538011 
L 277.329145 -195.538011 
L 273.057339 -195.538011 
L 268.785533 -195.538011 
L 264.513727 -195.538011 
L 260.241921 -195.538011 
L 255.970115 -195.538011 
L 251.698309 -195.538011 
L 247.426502 -195.538011 
L 243.154696 -195.538011 
L 238.88289 -195.538011 
L 234.611084 -195.538011 
L 230.339278 -195.538011 
L 226.067472 -195.538011 
L 221.795665 -195.538011 
L 217.523859 -195.538011 
L 213.252053 -195.538011 
L 208.980247 -195.538011 
L 204.708441 -195.538011 
L 200.436635 -195.538011 
L 196.164829 -195.538011 
L 191.893022 -195.538011 
L 187.621216 -195.538011 
L 183.34941 -195.538011 
L 179.077604 -195.538011 
L 174.805798 -195.538011 
L 170.533992 -195.538011 
L 166.262185 -195.538011 
L 161.990379 -195.538011 
L 157.718573 -195.538011 
L 153.446767 -195.538011 
L 149.174961 -195.538011 
L 144.903155 -195.538011 
L 140.631348 -195.538011 
L 136.359542 -195.538011 
L 132.087736 -195.538011 
L 127.81593 -195.538011 
L 123.544124 -195.538011 
L 119.272318 -195.538011 
L 115.000512 -195.538011 
L 110.728705 -195.538011 
L 106.456899 -195.538011 
L 102.185093 -195.538011 
L 97.913287 -195.538011 
L 93.641481 -195.538011 
L 89.369675 -195.538011 
L 85.097868 -195.538011 
L 80.826062 -195.538011 
L 76.554256 -195.538011 
z
" id="m4dc441547c" style="stroke:#36a2eb;stroke-opacity:0.5;"/>
    </defs>
    <g clip-path="url(#pe09478fb00)">
     <use style="fill:#36a2eb;fill-opacity:0.5;stroke:#36a2eb;stroke-opacity:0.5;" x="0" xlink:href="#m4dc441547c" y="581.789375"/>
    </g>
   </g>
   <g id="PolyCollection_3">
    <defs>
     <path d="M 58.827273 -195.538011 
L 58.827273 -195.650004 
L 63.086348 -195.692234 
L 67.345423 -195.749007 
L 71.604498 -195.8248 
L 75.863573 -195.925281 
L 80.122648 -196.057565 
L 84.381723 -196.230497 
L 88.640797 -196.454982 
L 92.899872 -196.744335 
L 97.158947 -197.114666 
L 101.418022 -197.585273 
L 105.677097 -198.179047 
L 109.936172 -198.922859 
L 114.195247 -199.847921 
L 118.454322 -200.990079 
L 122.713397 -202.390029 
L 126.972472 -204.093399 
L 131.231547 -206.150691 
L 135.490622 -208.617009 
L 139.749697 -211.551575 
L 144.008772 -215.016962 
L 148.267847 -219.078053 
L 152.526922 -223.800667 
L 156.785997 -229.249878 
L 161.045072 -235.488004 
L 165.304147 -242.572312 
L 169.563222 -250.552459 
L 173.822297 -259.467747 
L 178.081372 -269.344261 
L 182.340447 -280.192004 
L 186.599522 -292.002137 
L 190.858597 -304.744465 
L 195.117672 -318.365297 
L 199.376747 -332.785841 
L 203.635822 -347.901251 
L 207.894897 -363.580456 
L 212.153972 -379.666871 
L 216.413047 -395.980052 
L 220.672121 -412.31833 
L 224.931196 -428.4624 
L 229.190271 -444.179822 
L 233.449346 -459.230303 
L 237.708421 -473.371627 
L 241.967496 -486.366018 
L 246.226571 -497.986726 
L 250.485646 -508.02457 
L 254.744721 -516.294181 
L 259.003796 -522.639693 
L 263.262871 -526.939623 
L 267.521946 -529.110739 
L 271.781021 -529.110739 
L 276.040096 -526.939623 
L 280.299171 -522.639693 
L 284.558246 -516.294181 
L 288.817321 -508.02457 
L 293.076396 -497.986726 
L 297.335471 -486.366018 
L 301.594546 -473.371627 
L 305.853621 -459.230303 
L 310.112696 -444.179822 
L 314.371771 -428.4624 
L 318.630846 -412.31833 
L 322.889921 -395.980052 
L 327.148996 -379.666871 
L 331.408071 -363.580456 
L 335.667146 -347.901251 
L 339.926221 -332.785841 
L 344.185296 -318.365297 
L 348.44437 -304.744465 
L 352.703445 -292.002137 
L 356.96252 -280.192004 
L 361.221595 -269.344261 
L 365.48067 -259.467747 
L 369.739745 -250.552459 
L 373.99882 -242.572312 
L 378.257895 -235.488004 
L 382.51697 -229.249878 
L 386.776045 -223.800667 
L 391.03512 -219.078053 
L 395.294195 -215.016962 
L 399.55327 -211.551575 
L 403.812345 -208.617009 
L 408.07142 -206.150691 
L 412.330495 -204.093399 
L 416.58957 -202.390029 
L 420.848645 -200.990079 
L 425.10772 -199.847921 
L 429.366795 -198.922859 
L 433.62587 -198.179047 
L 437.884945 -197.585273 
L 442.14402 -197.114666 
L 446.403095 -196.744335 
L 450.66217 -196.454982 
L 454.921245 -196.230497 
L 459.18032 -196.057565 
L 463.439395 -195.925281 
L 467.69847 -195.8248 
L 471.957545 -195.749007 
L 476.216619 -195.692234 
L 480.475694 -195.650004 
L 480.475694 -195.538011 
L 480.475694 -195.538011 
L 476.216619 -195.538011 
L 471.957545 -195.538011 
L 467.69847 -195.538011 
L 463.439395 -195.538011 
L 459.18032 -195.538011 
L 454.921245 -195.538011 
L 450.66217 -195.538011 
L 446.403095 -195.538011 
L 442.14402 -195.538011 
L 437.884945 -195.538011 
L 433.62587 -195.538011 
L 429.366795 -195.538011 
L 425.10772 -195.538011 
L 420.848645 -195.538011 
L 416.58957 -195.538011 
L 412.330495 -195.538011 
L 408.07142 -195.538011 
L 403.812345 -195.538011 
L 399.55327 -195.538011 
L 395.294195 -195.538011 
L 391.03512 -195.538011 
L 386.776045 -195.538011 
L 382.51697 -195.538011 
L 378.257895 -195.538011 
L 373.99882 -195.538011 
L 369.739745 -195.538011 
L 365.48067 -195.538011 
L 361.221595 -195.538011 
L 356.96252 -195.538011 
L 352.703445 -195.538011 
L 348.44437 -195.538011 
L 344.185296 -195.538011 
L 339.926221 -195.538011 
L 335.667146 -195.538011 
L 331.408071 -195.538011 
L 327.148996 -195.538011 
L 322.889921 -195.538011 
L 318.630846 -195.538011 
L 314.371771 -195.538011 
L 310.112696 -195.538011 
L 305.853621 -195.538011 
L 301.594546 -195.538011 
L 297.335471 -195.538011 
L 293.076396 -195.538011 
L 288.817321 -195.538011 
L 284.558246 -195.538011 
L 280.299171 -195.538011 
L 276.040096 -195.538011 
L 271.781021 -195.538011 
L 267.521946 -195.538011 
L 263.262871 -195.538011 
L 259.003796 -195.538011 
L 254.744721 -195.538011 
L 250.485646 -195.538011 
L 246.226571 -195.538011 
L 241.967496 -195.538011 
L 237.708421 -195.538011 
L 233.449346 -195.538011 
L 229.190271 -195.538011 
L 224.931196 -195.538011 
L 220.672121 -195.538011 
L 216.413047 -195.538011 
L 212.153972 -195.538011 
L 207.894897 -195.538011 
L 203.635822 -195.538011 
L 199.376747 -195.538011 
L 195.117672 -195.538011 
L 190.858597 -195.538011 
L 186.599522 -195.538011 
L 182.340447 -195.538011 
L 178.081372 -195.538011 
L 173.822297 -195.538011 
L 169.563222 -195.538011 
L 165.304147 -195.538011 
L 161.045072 -195.538011 
L 156.785997 -195.538011 
L 152.526922 -195.538011 
L 148.267847 -195.538011 
L 144.008772 -195.538011 
L 139.749697 -195.538011 
L 135.490622 -195.538011 
L 131.231547 -195.538011 
L 126.972472 -195.538011 
L 122.713397 -195.538011 
L 118.454322 -195.538011 
L 114.195247 -195.538011 
L 109.936172 -195.538011 
L 105.677097 -195.538011 
L 101.418022 -195.538011 
L 97.158947 -195.538011 
L 92.899872 -195.538011 
L 88.640797 -195.538011 
L 84.381723 -195.538011 
L 80.122648 -195.538011 
L 75.863573 -195.538011 
L 71.604498 -195.538011 
L 67.345423 -195.538011 
L 63.086348 -195.538011 
L 58.827273 -195.538011 
z
" id="m565af5f4b3" style="stroke:#4bc0c0;stroke-opacity:0.5;"/>
    </defs>
    <g clip-path="url(#pe09478fb00)">
     <use style="fill:#4bc0c0;fill-opacity:0.5;stroke:#4bc0c0;stroke-opacity:0.5;" x="0" xlink:href="#m565af5f4b3" y="581.789375"/>
    </g>
   </g>
   <g id="PolyCollection_4">
    <defs>
     <path d="M 90.683612 -195.538011 
L 90.683612 -195.649202 
L 94.973401 -195.69113 
L 99.26319 -195.747496 
L 103.552979 -195.822746 
L 107.842768 -195.922509 
L 112.132557 -196.053845 
L 116.422346 -196.225539 
L 120.712135 -196.448416 
L 125.001924 -196.735698 
L 129.291713 -197.103377 
L 133.581502 -197.570615 
L 137.871291 -198.160137 
L 142.16108 -198.898624 
L 146.450869 -199.817063 
L 150.740659 -200.951044 
L 155.030448 -202.340969 
L 159.320237 -204.032144 
L 163.610026 -206.074706 
L 167.899815 -208.523366 
L 172.189604 -211.43692 
L 176.479393 -214.877497 
L 180.769182 -218.909511 
L 185.058971 -223.598312 
L 189.34876 -229.008507 
L 193.638549 -235.20197 
L 197.928338 -242.235555 
L 202.218127 -250.158566 
L 206.507916 -259.010022 
L 210.797705 -268.815822 
L 215.087494 -279.585897 
L 219.377283 -291.311473 
L 223.667072 -303.962568 
L 227.956861 -317.485877 
L 232.24665 -331.803173 
L 236.536439 -346.810359 
L 240.826228 -362.377304 
L 245.116017 -378.348543 
L 249.405807 -394.544925 
L 253.695596 -410.766224 
L 257.985385 -426.794705 
L 262.275174 -442.399593 
L 266.564963 -457.342316 
L 270.854752 -471.382391 
L 275.144541 -484.283745 
L 279.43433 -495.821251 
L 283.724119 -505.787225 
L 288.013908 -513.997628 
L 292.303697 -520.297707 
L 296.593486 -524.56685 
L 300.883275 -526.722421 
L 305.173064 -526.722421 
L 309.462853 -524.56685 
L 313.752642 -520.297707 
L 318.042431 -513.997628 
L 322.33222 -505.787225 
L 326.622009 -495.821251 
L 330.911798 -484.283745 
L 335.201587 -471.382391 
L 339.491376 -457.342316 
L 343.781166 -442.399593 
L 348.070955 -426.794705 
L 352.360744 -410.766224 
L 356.650533 -394.544925 
L 360.940322 -378.348543 
L 365.230111 -362.377304 
L 369.5199 -346.810359 
L 373.809689 -331.803173 
L 378.099478 -317.485877 
L 382.389267 -303.962568 
L 386.679056 -291.311473 
L 390.968845 -279.585897 
L 395.258634 -268.815822 
L 399.548423 -259.010022 
L 403.838212 -250.158566 
L 408.128001 -242.235555 
L 412.41779 -235.20197 
L 416.707579 -229.008507 
L 420.997368 -223.598312 
L 425.287157 -218.909511 
L 429.576946 -214.877497 
L 433.866735 -211.43692 
L 438.156524 -208.523366 
L 442.446314 -206.074706 
L 446.736103 -204.032144 
L 451.025892 -202.340969 
L 455.315681 -200.951044 
L 459.60547 -199.817063 
L 463.895259 -198.898624 
L 468.185048 -198.160137 
L 472.474837 -197.570615 
L 476.764626 -197.103377 
L 481.054415 -196.735698 
L 485.344204 -196.448416 
L 489.633993 -196.225539 
L 493.923782 -196.053845 
L 498.213571 -195.922509 
L 502.50336 -195.822746 
L 506.793149 -195.747496 
L 511.082938 -195.69113 
L 515.372727 -195.649202 
L 515.372727 -195.538011 
L 515.372727 -195.538011 
L 511.082938 -195.538011 
L 506.793149 -195.538011 
L 502.50336 -195.538011 
L 498.213571 -195.538011 
L 493.923782 -195.538011 
L 489.633993 -195.538011 
L 485.344204 -195.538011 
L 481.054415 -195.538011 
L 476.764626 -195.538011 
L 472.474837 -195.538011 
L 468.185048 -195.538011 
L 463.895259 -195.538011 
L 459.60547 -195.538011 
L 455.315681 -195.538011 
L 451.025892 -195.538011 
L 446.736103 -195.538011 
L 442.446314 -195.538011 
L 438.156524 -195.538011 
L 433.866735 -195.538011 
L 429.576946 -195.538011 
L 425.287157 -195.538011 
L 420.997368 -195.538011 
L 416.707579 -195.538011 
L 412.41779 -195.538011 
L 408.128001 -195.538011 
L 403.838212 -195.538011 
L 399.548423 -195.538011 
L 395.258634 -195.538011 
L 390.968845 -195.538011 
L 386.679056 -195.538011 
L 382.389267 -195.538011 
L 378.099478 -195.538011 
L 373.809689 -195.538011 
L 369.5199 -195.538011 
L 365.230111 -195.538011 
L 360.940322 -195.538011 
L 356.650533 -195.538011 
L 352.360744 -195.538011 
L 348.070955 -195.538011 
L 343.781166 -195.538011 
L 339.491376 -195.538011 
L 335.201587 -195.538011 
L 330.911798 -195.538011 
L 326.622009 -195.538011 
L 322.33222 -195.538011 
L 318.042431 -195.538011 
L 313.752642 -195.538011 
L 309.462853 -195.538011 
L 305.173064 -195.538011 
L 300.883275 -195.538011 
L 296.593486 -195.538011 
L 292.303697 -195.538011 
L 288.013908 -195.538011 
L 283.724119 -195.538011 
L 279.43433 -195.538011 
L 275.144541 -195.538011 
L 270.854752 -195.538011 
L 266.564963 -195.538011 
L 262.275174 -195.538011 
L 257.985385 -195.538011 
L 253.695596 -195.538011 
L 249.405807 -195.538011 
L 245.116017 -195.538011 
L 240.826228 -195.538011 
L 236.536439 -195.538011 
L 232.24665 -195.538011 
L 227.956861 -195.538011 
L 223.667072 -195.538011 
L 219.377283 -195.538011 
L 215.087494 -195.538011 
L 210.797705 -195.538011 
L 206.507916 -195.538011 
L 202.218127 -195.538011 
L 197.928338 -195.538011 
L 193.638549 -195.538011 
L 189.34876 -195.538011 
L 185.058971 -195.538011 
L 180.769182 -195.538011 
L 176.479393 -195.538011 
L 172.189604 -195.538011 
L 167.899815 -195.538011 
L 163.610026 -195.538011 
L 159.320237 -195.538011 
L 155.030448 -195.538011 
L 150.740659 -195.538011 
L 146.450869 -195.538011 
L 142.16108 -195.538011 
L 137.871291 -195.538011 
L 133.581502 -195.538011 
L 129.291713 -195.538011 
L 125.001924 -195.538011 
L 120.712135 -195.538011 
L 116.422346 -195.538011 
L 112.132557 -195.538011 
L 107.842768 -195.538011 
L 103.552979 -195.538011 
L 99.26319 -195.538011 
L 94.973401 -195.538011 
L 90.683612 -195.538011 
z
" id="mf70cc6b33c" style="stroke:#9966ff;stroke-opacity:0.5;"/>
    </defs>
    <g clip-path="url(#pe09478fb00)">
     <use style="fill:#9966ff;fill-opacity:0.5;stroke:#9966ff;stroke-opacity:0.5;" x="0" xlink:href="#mf70cc6b33c" y="581.789375"/>
    </g>
   </g>
   <g id="line2d_1">
    <path clip-path="url(#pe09478fb00)" d="M 73.074107 386.13978 
L 77.348792 386.097704 
L 81.623476 386.041139 
L 85.898161 385.965622 
L 90.172846 385.865508 
L 94.44753 385.733707 
L 98.722215 385.561407 
L 102.996899 385.337742 
L 107.271584 385.049445 
L 111.546268 384.680466 
L 115.820953 384.211578 
L 120.095637 383.619972 
L 124.370322 382.878876 
L 128.645006 381.957192 
L 132.919691 380.819205 
L 137.194376 379.424367 
L 141.46906 377.727217 
L 145.743745 375.677438 
L 150.018429 373.220125 
L 154.293114 370.296276 
L 158.567798 366.843543 
L 162.842483 362.797282 
L 167.117167 358.091913 
L 171.391852 352.662601 
L 175.666536 346.447254 
L 179.941221 339.388815 
L 184.215906 331.437808 
L 188.49059 322.555076 
L 192.765275 312.714628 
L 197.039959 301.906497 
L 201.314644 290.139489 
L 205.589328 277.443692 
L 209.864013 263.872598 
L 214.138697 249.504712 
L 218.413382 234.444499 
L 222.688066 218.822549 
L 226.962751 202.794875 
L 231.237435 186.541263 
L 235.51212 170.262647 
L 239.786805 154.177529 
L 244.061489 138.517502 
L 248.336174 123.521979 
L 252.610858 109.432295 
L 256.885543 96.485354 
L 261.160227 84.90708 
L 265.434912 74.905891 
L 269.709596 66.666477 
L 273.984281 60.344137 
L 278.258965 56.059909 
L 282.53365 53.896721 
L 286.808335 53.896721 
L 291.083019 56.059909 
L 295.357704 60.344137 
L 299.632388 66.666477 
L 303.907073 74.905891 
L 308.181757 84.90708 
L 312.456442 96.485354 
L 316.731126 109.432295 
L 321.005811 123.521979 
L 325.280495 138.517502 
L 329.55518 154.177529 
L 333.829865 170.262647 
L 338.104549 186.541263 
L 342.379234 202.794875 
L 346.653918 218.822549 
L 350.928603 234.444499 
L 355.203287 249.504712 
L 359.477972 263.872598 
L 363.752656 277.443692 
L 368.027341 290.139489 
L 372.302025 301.906497 
L 376.57671 312.714628 
L 380.851395 322.555076 
L 385.126079 331.437808 
L 389.400764 339.388815 
L 393.675448 346.447254 
L 397.950133 352.662601 
L 402.224817 358.091913 
L 406.499502 362.797282 
L 410.774186 366.843543 
L 415.048871 370.296276 
L 419.323555 373.220125 
L 423.59824 375.677438 
L 427.872924 377.727217 
L 432.147609 379.424367 
L 436.422294 380.819205 
L 440.696978 381.957192 
L 444.971663 382.878876 
L 449.246347 383.619972 
L 453.521032 384.211578 
L 457.795716 384.680466 
L 462.070401 385.049445 
L 466.345085 385.337742 
L 470.61977 385.561407 
L 474.894454 385.733707 
L 479.169139 385.865508 
L 483.443824 385.965622 
L 487.718508 386.041139 
L 491.993193 386.097704 
L 496.267877 386.13978 
" style="fill:none;stroke:#ff6384;stroke-linecap:square;"/>
   </g>
   <g id="line2d_2">
    <path clip-path="url(#pe09478fb00)" d="M 76.554256 386.139705 
L 80.826062 386.0976 
L 85.097868 386.040997 
L 89.369675 385.96543 
L 93.641481 385.865248 
L 97.913287 385.733359 
L 102.185093 385.560942 
L 106.456899 385.337126 
L 110.728705 385.048635 
L 115.000512 384.679408 
L 119.272318 384.210203 
L 123.544124 383.618199 
L 127.81593 382.876604 
L 132.087736 381.954299 
L 136.359542 380.815544 
L 140.631348 379.419767 
L 144.903155 377.721473 
L 149.174961 375.670313 
L 153.446767 373.211345 
L 157.718573 370.285525 
L 161.990379 366.830466 
L 166.262185 362.781478 
L 170.533992 358.072938 
L 174.805798 352.639968 
L 179.077604 346.420433 
L 183.34941 339.357238 
L 187.621216 331.400874 
L 191.893022 322.512157 
L 196.164829 312.665078 
L 200.436635 301.849664 
L 204.708441 290.074728 
L 208.980247 277.370376 
L 213.252053 263.790138 
L 217.523859 249.412571 
L 221.795665 234.34221 
L 226.067472 218.709733 
L 230.339278 202.67126 
L 234.611084 186.406697 
L 238.88289 170.117112 
L 243.154696 154.021156 
L 247.426502 138.350576 
L 251.698309 123.34495 
L 255.970115 109.245771 
L 260.241921 96.290107 
L 264.513727 84.704031 
L 268.785533 74.696104 
L 273.057339 66.451138 
L 277.329145 60.124537 
L 281.600952 55.837422 
L 285.872758 53.672777 
L 290.144564 53.672777 
L 294.41637 55.837422 
L 298.688176 60.124537 
L 302.959982 66.451138 
L 307.231789 74.696104 
L 311.503595 84.704031 
L 315.775401 96.290107 
L 320.047207 109.245771 
L 324.319013 123.34495 
L 328.590819 138.350576 
L 332.862626 154.021156 
L 337.134432 170.117112 
L 341.406238 186.406697 
L 345.678044 202.67126 
L 349.94985 218.709733 
L 354.221656 234.34221 
L 358.493462 249.412571 
L 362.765269 263.790138 
L 367.037075 277.370376 
L 371.308881 290.074728 
L 375.580687 301.849664 
L 379.852493 312.665078 
L 384.124299 322.512157 
L 388.396106 331.400874 
L 392.667912 339.357238 
L 396.939718 346.420433 
L 401.211524 352.639968 
L 405.48333 358.072938 
L 409.755136 362.781478 
L 414.026943 366.830466 
L 418.298749 370.285525 
L 422.570555 373.211345 
L 426.842361 375.670313 
L 431.114167 377.721473 
L 435.385973 379.419767 
L 439.657779 380.815544 
L 443.929586 381.954299 
L 448.201392 382.876604 
L 452.473198 383.618199 
L 456.745004 384.210203 
L 461.01681 384.679408 
L 465.288616 385.048635 
L 469.560423 385.337126 
L 473.832229 385.560942 
L 478.104035 385.733359 
L 482.375841 385.865248 
L 486.647647 385.96543 
L 490.919453 386.040997 
L 495.191259 386.0976 
L 499.463066 386.139705 
" style="fill:none;stroke:#36a2eb;stroke-linecap:square;"/>
   </g>
   <g id="line2d_3">
    <path clip-path="url(#pe09478fb00)" d="M 58.827273 386.139371 
L 63.086348 386.097141 
L 67.345423 386.040368 
L 71.604498 385.964575 
L 75.863573 385.864094 
L 80.122648 385.73181 
L 84.381723 385.558878 
L 88.640797 385.334393 
L 92.899872 385.04504 
L 97.158947 384.674709 
L 101.418022 384.204102 
L 105.677097 383.610328 
L 109.936172 382.866516 
L 114.195247 381.941454 
L 118.454322 380.799296 
L 122.713397 379.399346 
L 126.972472 377.695976 
L 131.231547 375.638684 
L 135.490622 373.172366 
L 139.749697 370.2378 
L 144.008772 366.772413 
L 148.267847 362.711322 
L 152.526922 357.988708 
L 156.785997 352.539497 
L 161.045072 346.301371 
L 165.304147 339.217063 
L 169.563222 331.236916 
L 173.822297 322.321628 
L 178.081372 312.445114 
L 182.340447 301.597371 
L 186.599522 289.787238 
L 190.858597 277.04491 
L 195.117672 263.424078 
L 199.376747 249.003534 
L 203.635822 233.888124 
L 207.894897 218.208919 
L 212.153972 202.122504 
L 216.413047 185.809323 
L 220.672121 169.471045 
L 224.931196 153.326975 
L 229.190271 137.609553 
L 233.449346 122.559072 
L 237.708421 108.417748 
L 241.967496 95.423357 
L 246.226571 83.802649 
L 250.485646 73.764805 
L 254.744721 65.495194 
L 259.003796 59.149682 
L 263.262871 54.849752 
L 267.521946 52.678636 
L 271.781021 52.678636 
L 276.040096 54.849752 
L 280.299171 59.149682 
L 284.558246 65.495194 
L 288.817321 73.764805 
L 293.076396 83.802649 
L 297.335471 95.423357 
L 301.594546 108.417748 
L 305.853621 122.559072 
L 310.112696 137.609553 
L 314.371771 153.326975 
L 318.630846 169.471045 
L 322.889921 185.809323 
L 327.148996 202.122504 
L 331.408071 218.208919 
L 335.667146 233.888124 
L 339.926221 249.003534 
L 344.185296 263.424078 
L 348.44437 277.04491 
L 352.703445 289.787238 
L 356.96252 301.597371 
L 361.221595 312.445114 
L 365.48067 322.321628 
L 369.739745 331.236916 
L 373.99882 339.217063 
L 378.257895 346.301371 
L 382.51697 352.539497 
L 386.776045 357.988708 
L 391.03512 362.711322 
L 395.294195 366.772413 
L 399.55327 370.2378 
L 403.812345 373.172366 
L 408.07142 375.638684 
L 412.330495 377.695976 
L 416.58957 379.399346 
L 420.848645 380.799296 
L 425.10772 381.941454 
L 429.366795 382.866516 
L 433.62587 383.610328 
L 437.884945 384.204102 
L 442.14402 384.674709 
L 446.403095 385.04504 
L 450.66217 385.334393 
L 454.921245 385.558878 
L 459.18032 385.73181 
L 463.439395 385.864094 
L 467.69847 385.964575 
L 471.957545 386.040368 
L 476.216619 386.097141 
L 480.475694 386.139371 
" style="fill:none;stroke:#4bc0c0;stroke-linecap:square;"/>
   </g>
   <g id="line2d_4">
    <path clip-path="url(#pe09478fb00)" d="M 90.683612 386.140173 
L 94.973401 386.098245 
L 99.26319 386.041879 
L 103.552979 385.966629 
L 107.842768 385.866866 
L 112.132557 385.73553 
L 116.422346 385.563836 
L 120.712135 385.340959 
L 125.001924 385.053677 
L 129.291713 384.685998 
L 133.581502 384.21876 
L 137.871291 383.629238 
L 142.16108 382.890751 
L 146.450869 381.972312 
L 150.740659 380.838331 
L 155.030448 379.448406 
L 159.320237 377.757231 
L 163.610026 375.714669 
L 167.899815 373.266009 
L 172.189604 370.352455 
L 176.479393 366.911878 
L 180.769182 362.879864 
L 185.058971 358.191063 
L 189.34876 352.780868 
L 193.638549 346.587405 
L 197.928338 339.55382 
L 202.218127 331.630809 
L 206.507916 322.779353 
L 210.797705 312.973553 
L 215.087494 302.203478 
L 219.377283 290.477902 
L 223.667072 277.826807 
L 227.956861 264.303498 
L 232.24665 249.986202 
L 236.536439 234.979016 
L 240.826228 219.412071 
L 245.116017 203.440832 
L 249.405807 187.24445 
L 253.695596 171.023151 
L 257.985385 154.99467 
L 262.275174 139.389782 
L 266.564963 124.447059 
L 270.854752 110.406984 
L 275.144541 97.50563 
L 279.43433 85.968124 
L 283.724119 76.00215 
L 288.013908 67.791747 
L 292.303697 61.491668 
L 296.593486 57.222525 
L 300.883275 55.066954 
L 305.173064 55.066954 
L 309.462853 57.222525 
L 313.752642 61.491668 
L 318.042431 67.791747 
L 322.33222 76.00215 
L 326.622009 85.968124 
L 330.911798 97.50563 
L 335.201587 110.406984 
L 339.491376 124.447059 
L 343.781166 139.389782 
L 348.070955 154.99467 
L 352.360744 171.023151 
L 356.650533 187.24445 
L 360.940322 203.440832 
L 365.230111 219.412071 
L 369.5199 234.979016 
L 373.809689 249.986202 
L 378.099478 264.303498 
L 382.389267 277.826807 
L 386.679056 290.477902 
L 390.968845 302.203478 
L 395.258634 312.973553 
L 399.548423 322.779353 
L 403.838212 331.630809 
L 408.128001 339.55382 
L 412.41779 346.587405 
L 416.707579 352.780868 
L 420.997368 358.191063 
L 425.287157 362.879864 
L 429.576946 366.911878 
L 433.866735 370.352455 
L 438.156524 373.266009 
L 442.446314 375.714669 
L 446.736103 377.757231 
L 451.025892 379.448406 
L 455.315681 380.838331 
L 459.60547 381.972312 
L 463.895259 382.890751 
L 468.185048 383.629238 
L 472.474837 384.21876 
L 476.764626 384.685998 
L 481.054415 385.053677 
L 485.344204 385.340959 
L 489.633993 385.563836 
L 493.923782 385.73553 
L 498.213571 385.866866 
L 502.50336 385.966629 
L 506.793149 386.041879 
L 511.082938 386.098245 
L 515.372727 386.140173 
" style="fill:none;stroke:#9966ff;stroke-linecap:square;"/>
   </g>
   <g id="patch_3">
    <path d="M 36 402.93 
L 538.2 402.93 
" style="fill:none;stroke:#000000;stroke-linecap:square;stroke-linejoin:miter;stroke-width:0.8;"/>
   </g>
   <g id="legend_1">
    <g id="patch_4">
     <path d="M 450.225313 129.3975 
L 528.4 129.3975 
Q 531.2 129.3975 531.2 126.5975 
L 531.2 45.8 
Q 531.2 43 528.4 43 
L 450.225313 43 
Q 447.425313 43 447.425313 45.8 
L 447.425313 126.5975 
Q 447.425313 129.3975 450.225313 129.3975 
z
" style="fill:#ffffff;opacity:0.8;stroke:#cccccc;stroke-linejoin:miter;"/>
    </g>
    <g id="patch_5">
     <path d="M 453.025313 59.237813 
L 481.025313 59.237813 
L 481.025313 49.437813 
L 453.025313 49.437813 
z
" style="fill:#ff6384;opacity:0.5;stroke:#ff6384;stroke-linejoin:miter;"/>
    </g>
    <g id="text_1">
     <!-- base -->
     <defs>
      <path d="M 48.6875 27.296875 
Q 48.6875 37.203125 44.609375 42.84375 
Q 40.53125 48.484375 33.40625 48.484375 
Q 26.265625 48.484375 22.1875 42.84375 
Q 18.109375 37.203125 18.109375 27.296875 
Q 18.109375 17.390625 22.1875 11.75 
Q 26.265625 6.109375 33.40625 6.109375 
Q 40.53125 6.109375 44.609375 11.75 
Q 48.6875 17.390625 48.6875 27.296875 
z
M 18.109375 46.390625 
Q 20.953125 51.265625 25.265625 53.625 
Q 29.59375 56 35.59375 56 
Q 45.5625 56 51.78125 48.09375 
Q 58.015625 40.1875 58.015625 27.296875 
Q 58.015625 14.40625 51.78125 6.484375 
Q 45.5625 -1.421875 35.59375 -1.421875 
Q 29.59375 -1.421875 25.265625 0.953125 
Q 20.953125 3.328125 18.109375 8.203125 
L 18.109375 0 
L 9.078125 0 
L 9.078125 75.984375 
L 18.109375 75.984375 
z
" id="DejaVuSans-98"/>
      <path d="M 34.28125 27.484375 
Q 23.390625 27.484375 19.1875 25 
Q 14.984375 22.515625 14.984375 16.5 
Q 14.984375 11.71875 18.140625 8.90625 
Q 21.296875 6.109375 26.703125 6.109375 
Q 34.1875 6.109375 38.703125 11.40625 
Q 43.21875 16.703125 43.21875 25.484375 
L 43.21875 27.484375 
z
M 52.203125 31.203125 
L 52.203125 0 
L 43.21875 0 
L 43.21875 8.296875 
Q 40.140625 3.328125 35.546875 0.953125 
Q 30.953125 -1.421875 24.3125 -1.421875 
Q 15.921875 -1.421875 10.953125 3.296875 
Q 6 8.015625 6 15.921875 
Q 6 25.140625 12.171875 29.828125 
Q 18.359375 34.515625 30.609375 34.515625 
L 43.21875 34.515625 
L 43.21875 35.40625 
Q 43.21875 41.609375 39.140625 45 
Q 35.0625 48.390625 27.6875 48.390625 
Q 23 48.390625 18.546875 47.265625 
Q 14.109375 46.140625 10.015625 43.890625 
L 10.015625 52.203125 
Q 14.9375 54.109375 19.578125 55.046875 
Q 24.21875 56 28.609375 56 
Q 40.484375 56 46.34375 49.84375 
Q 52.203125 43.703125 52.203125 31.203125 
z
" id="DejaVuSans-97"/>
      <path d="M 44.28125 53.078125 
L 44.28125 44.578125 
Q 40.484375 46.53125 36.375 47.5 
Q 32.28125 48.484375 27.875 48.484375 
Q 21.1875 48.484375 17.84375 46.4375 
Q 14.5 44.390625 14.5 40.28125 
Q 14.5 37.15625 16.890625 35.375 
Q 19.28125 33.59375 26.515625 31.984375 
L 29.59375 31.296875 
Q 39.15625 29.25 43.1875 25.515625 
Q 47.21875 21.78125 47.21875 15.09375 
Q 47.21875 7.46875 41.1875 3.015625 
Q 35.15625 -1.421875 24.609375 -1.421875 
Q 20.21875 -1.421875 15.453125 -0.5625 
Q 10.6875 0.296875 5.421875 2 
L 5.421875 11.28125 
Q 10.40625 8.6875 15.234375 7.390625 
Q 20.0625 6.109375 24.8125 6.109375 
Q 31.15625 6.109375 34.5625 8.28125 
Q 37.984375 10.453125 37.984375 14.40625 
Q 37.984375 18.0625 35.515625 20.015625 
Q 33.0625 21.96875 24.703125 23.78125 
L 21.578125 24.515625 
Q 13.234375 26.265625 9.515625 29.90625 
Q 5.8125 33.546875 5.8125 39.890625 
Q 5.8125 47.609375 11.28125 51.796875 
Q 16.75 56 26.8125 56 
Q 31.78125 56 36.171875 55.265625 
Q 40.578125 54.546875 44.28125 53.078125 
z
" id="DejaVuSans-115"/>
      <path d="M 56.203125 29.59375 
L 56.203125 25.203125 
L 14.890625 25.203125 
Q 15.484375 15.921875 20.484375 11.0625 
Q 25.484375 6.203125 34.421875 6.203125 
Q 39.59375 6.203125 44.453125 7.46875 
Q 49.3125 8.734375 54.109375 11.28125 
L 54.109375 2.78125 
Q 49.265625 0.734375 44.1875 -0.34375 
Q 39.109375 -1.421875 33.890625 -1.421875 
Q 20.796875 -1.421875 13.15625 6.1875 
Q 5.515625 13.8125 5.515625 26.8125 
Q 5.515625 40.234375 12.765625 48.109375 
Q 20.015625 56 32.328125 56 
Q 43.359375 56 49.78125 48.890625 
Q 56.203125 41.796875 56.203125 29.59375 
z
M 47.21875 32.234375 
Q 47.125 39.59375 43.09375 43.984375 
Q 39.0625 48.390625 32.421875 48.390625 
Q 24.90625 48.390625 20.390625 44.140625 
Q 15.875 39.890625 15.1875 32.171875 
z
" id="DejaVuSans-101"/>
     </defs>
     <g transform="translate(492.225313 59.237813)scale(0.14 -0.14)">
      <use xlink:href="#DejaVuSans-98"/>
      <use x="63.476562" xlink:href="#DejaVuSans-97"/>
      <use x="124.755859" xlink:href="#DejaVuSans-115"/>
      <use x="176.855469" xlink:href="#DejaVuSans-101"/>
     </g>
    </g>
    <g id="patch_6">
     <path d="M 453.025313 79.787188 
L 481.025313 79.787188 
L 481.025313 69.987188 
L 453.025313 69.987188 
z
" style="fill:#36a2eb;opacity:0.5;stroke:#36a2eb;stroke-linejoin:miter;"/>
    </g>
    <g id="text_2">
     <!-- fifth -->
     <defs>
      <path d="M 37.109375 75.984375 
L 37.109375 68.5 
L 28.515625 68.5 
Q 23.6875 68.5 21.796875 66.546875 
Q 19.921875 64.59375 19.921875 59.515625 
L 19.921875 54.6875 
L 34.71875 54.6875 
L 34.71875 47.703125 
L 19.921875 47.703125 
L 19.921875 0 
L 10.890625 0 
L 10.890625 47.703125 
L 2.296875 47.703125 
L 2.296875 54.6875 
L 10.890625 54.6875 
L 10.890625 58.5 
Q 10.890625 67.625 15.140625 71.796875 
Q 19.390625 75.984375 28.609375 75.984375 
z
" id="DejaVuSans-102"/>
      <path d="M 9.421875 54.6875 
L 18.40625 54.6875 
L 18.40625 0 
L 9.421875 0 
z
M 9.421875 75.984375 
L 18.40625 75.984375 
L 18.40625 64.59375 
L 9.421875 64.59375 
z
" id="DejaVuSans-105"/>
      <path d="M 18.3125 70.21875 
L 18.3125 54.6875 
L 36.8125 54.6875 
L 36.8125 47.703125 
L 18.3125 47.703125 
L 18.3125 18.015625 
Q 18.3125 11.328125 20.140625 9.421875 
Q 21.96875 7.515625 27.59375 7.515625 
L 36.8125 7.515625 
L 36.8125 0 
L 27.59375 0 
Q 17.1875 0 13.234375 3.875 
Q 9.28125 7.765625 9.28125 18.015625 
L 9.28125 47.703125 
L 2.6875 47.703125 
L 2.6875 54.6875 
L 9.28125 54.6875 
L 9.28125 70.21875 
z
" id="DejaVuSans-116"/>
      <path d="M 54.890625 33.015625 
L 54.890625 0 
L 45.90625 0 
L 45.90625 32.71875 
Q 45.90625 40.484375 42.875 44.328125 
Q 39.84375 48.1875 33.796875 48.1875 
Q 26.515625 48.1875 22.3125 43.546875 
Q 18.109375 38.921875 18.109375 30.90625 
L 18.109375 0 
L 9.078125 0 
L 9.078125 75.984375 
L 18.109375 75.984375 
L 18.109375 46.1875 
Q 21.34375 51.125 25.703125 53.5625 
Q 30.078125 56 35.796875 56 
Q 45.21875 56 50.046875 50.171875 
Q 54.890625 44.34375 54.890625 33.015625 
z
" id="DejaVuSans-104"/>
     </defs>
     <g transform="translate(492.225313 79.787188)scale(0.14 -0.14)">
      <use xlink:href="#DejaVuSans-102"/>
      <use x="35.205078" xlink:href="#DejaVuSans-105"/>
      <use x="62.988281" xlink:href="#DejaVuSans-102"/>
      <use x="98.177734" xlink:href="#DejaVuSans-116"/>
      <use x="137.386719" xlink:href="#DejaVuSans-104"/>
     </g>
    </g>
    <g id="patch_7">
     <path d="M 453.025313 100.336563 
L 481.025313 100.336563 
L 481.025313 90.536563 
L 453.025313 90.536563 
z
" style="fill:#4bc0c0;opacity:0.5;stroke:#4bc0c0;stroke-linejoin:miter;"/>
    </g>
    <g id="text_3">
     <!-- mid -->
     <defs>
      <path d="M 52 44.1875 
Q 55.375 50.25 60.0625 53.125 
Q 64.75 56 71.09375 56 
Q 79.640625 56 84.28125 50.015625 
Q 88.921875 44.046875 88.921875 33.015625 
L 88.921875 0 
L 79.890625 0 
L 79.890625 32.71875 
Q 79.890625 40.578125 77.09375 44.375 
Q 74.3125 48.1875 68.609375 48.1875 
Q 61.625 48.1875 57.5625 43.546875 
Q 53.515625 38.921875 53.515625 30.90625 
L 53.515625 0 
L 44.484375 0 
L 44.484375 32.71875 
Q 44.484375 40.625 41.703125 44.40625 
Q 38.921875 48.1875 33.109375 48.1875 
Q 26.21875 48.1875 22.15625 43.53125 
Q 18.109375 38.875 18.109375 30.90625 
L 18.109375 0 
L 9.078125 0 
L 9.078125 54.6875 
L 18.109375 54.6875 
L 18.109375 46.1875 
Q 21.1875 51.21875 25.484375 53.609375 
Q 29.78125 56 35.6875 56 
Q 41.65625 56 45.828125 52.96875 
Q 50 49.953125 52 44.1875 
z
" id="DejaVuSans-109"/>
      <path d="M 45.40625 46.390625 
L 45.40625 75.984375 
L 54.390625 75.984375 
L 54.390625 0 
L 45.40625 0 
L 45.40625 8.203125 
Q 42.578125 3.328125 38.25 0.953125 
Q 33.9375 -1.421875 27.875 -1.421875 
Q 17.96875 -1.421875 11.734375 6.484375 
Q 5.515625 14.40625 5.515625 27.296875 
Q 5.515625 40.1875 11.734375 48.09375 
Q 17.96875 56 27.875 56 
Q 33.9375 56 38.25 53.625 
Q 42.578125 51.265625 45.40625 46.390625 
z
M 14.796875 27.296875 
Q 14.796875 17.390625 18.875 11.75 
Q 22.953125 6.109375 30.078125 6.109375 
Q 37.203125 6.109375 41.296875 11.75 
Q 45.40625 17.390625 45.40625 27.296875 
Q 45.40625 37.203125 41.296875 42.84375 
Q 37.203125 48.484375 30.078125 48.484375 
Q 22.953125 48.484375 18.875 42.84375 
Q 14.796875 37.203125 14.796875 27.296875 
z
" id="DejaVuSans-100"/>
     </defs>
     <g transform="translate(492.225313 100.336563)scale(0.14 -0.14)">
      <use xlink:href="#DejaVuSans-109"/>
      <use x="97.412109" xlink:href="#DejaVuSans-105"/>
      <use x="125.195312" xlink:href="#DejaVuSans-100"/>
     </g>
    </g>
    <g id="patch_8">
     <path d="M 453.025313 120.885938 
L 481.025313 120.885938 
L 481.025313 111.085938 
L 453.025313 111.085938 
z
" style="fill:#9966ff;opacity:0.5;stroke:#9966ff;stroke-linejoin:miter;"/>
    </g>
    <g id="text_4">
     <!-- right -->
     <defs>
      <path d="M 41.109375 46.296875 
Q 39.59375 47.171875 37.8125 47.578125 
Q 36.03125 48 33.890625 48 
Q 26.265625 48 22.1875 43.046875 
Q 18.109375 38.09375 18.109375 28.8125 
L 18.109375 0 
L 9.078125 0 
L 9.078125 54.6875 
L 18.109375 54.6875 
L 18.109375 46.1875 
Q 20.953125 51.171875 25.484375 53.578125 
Q 30.03125 56 36.53125 56 
Q 37.453125 56 38.578125 55.875 
Q 39.703125 55.765625 41.0625 55.515625 
z
" id="DejaVuSans-114"/>
      <path d="M 45.40625 27.984375 
Q 45.40625 37.75 41.375 43.109375 
Q 37.359375 48.484375 30.078125 48.484375 
Q 22.859375 48.484375 18.828125 43.109375 
Q 14.796875 37.75 14.796875 27.984375 
Q 14.796875 18.265625 18.828125 12.890625 
Q 22.859375 7.515625 30.078125 7.515625 
Q 37.359375 7.515625 41.375 12.890625 
Q 45.40625 18.265625 45.40625 27.984375 
z
M 54.390625 6.78125 
Q 54.390625 -7.171875 48.1875 -13.984375 
Q 42 -20.796875 29.203125 -20.796875 
Q 24.46875 -20.796875 20.265625 -20.09375 
Q 16.0625 -19.390625 12.109375 -17.921875 
L 12.109375 -9.1875 
Q 16.0625 -11.328125 19.921875 -12.34375 
Q 23.78125 -13.375 27.78125 -13.375 
Q 36.625 -13.375 41.015625 -8.765625 
Q 45.40625 -4.15625 45.40625 5.171875 
L 45.40625 9.625 
Q 42.625 4.78125 38.28125 2.390625 
Q 33.9375 0 27.875 0 
Q 17.828125 0 11.671875 7.65625 
Q 5.515625 15.328125 5.515625 27.984375 
Q 5.515625 40.671875 11.671875 48.328125 
Q 17.828125 56 27.875 56 
Q 33.9375 56 38.28125 53.609375 
Q 42.625 51.21875 45.40625 46.390625 
L 45.40625 54.6875 
L 54.390625 54.6875 
z
" id="DejaVuSans-103"/>
     </defs>
     <g transform="translate(492.225313 120.885938)scale(0.14 -0.14)">
      <use xlink:href="#DejaVuSans-114"/>
      <use x="41.113281" xlink:href="#DejaVuSans-105"/>
      <use x="68.896484" xlink:href="#DejaVuSans-103"/>
      <use x="132.373047" xlink:href="#DejaVuSans-104"/>
      <use x="195.751953" xlink:href="#DejaVuSans-116"/>
     </g>
    </g>
   </g>
  </g>
  <g id="axes_2">
   <g id="patch_9">
    <path d="M 36 525.24 
L 538.2 525.24 
L 538.2 402.93 
L 36 402.93 
z
" style="fill:none;"/>
   </g>
   <g id="patch_10">
    <path clip-path="url(#p3876a5c414)" d="M 180.988519 519.680455 
L 388.353466 519.680455 
L 388.353466 503.796039 
L 180.988519 503.796039 
z
" style="fill:#ff6384;opacity:0.5;"/>
   </g>
   <g id="patch_11">
    <path clip-path="url(#p3876a5c414)" d="M 184.396003 487.911623 
L 391.621319 487.911623 
L 391.621319 472.027208 
L 184.396003 472.027208 
z
" style="fill:#36a2eb;opacity:0.5;"/>
   </g>
   <g id="patch_12">
    <path clip-path="url(#p3876a5c414)" d="M 166.34762 456.142792 
L 372.955347 456.142792 
L 372.955347 440.258377 
L 166.34762 440.258377 
z
" style="fill:#4bc0c0;opacity:0.5;"/>
   </g>
   <g id="patch_13">
    <path clip-path="url(#p3876a5c414)" d="M 198.979336 424.373961 
L 407.077003 424.373961 
L 407.077003 408.489545 
L 198.979336 408.489545 
z
" style="fill:#9966ff;opacity:0.5;"/>
   </g>
   <g id="matplotlib.axis_1">
    <g id="xtick_1">
     <g id="line2d_5">
      <defs>
       <path d="M 0 0 
L 0 3.5 
" id="mbbb546e1b4" style="stroke:#000000;stroke-width:0.8;"/>
      </defs>
      <g>
       <use style="stroke:#000000;stroke-width:0.8;" x="62.71603" xlink:href="#mbbb546e1b4" y="525.24"/>
      </g>
     </g>
     <g id="text_5">
      <!-- 6.0 -->
      <defs>
       <path d="M 33.015625 40.375 
Q 26.375 40.375 22.484375 35.828125 
Q 18.609375 31.296875 18.609375 23.390625 
Q 18.609375 15.53125 22.484375 10.953125 
Q 26.375 6.390625 33.015625 6.390625 
Q 39.65625 6.390625 43.53125 10.953125 
Q 47.40625 15.53125 47.40625 23.390625 
Q 47.40625 31.296875 43.53125 35.828125 
Q 39.65625 40.375 33.015625 40.375 
z
M 52.59375 71.296875 
L 52.59375 62.3125 
Q 48.875 64.0625 45.09375 64.984375 
Q 41.3125 65.921875 37.59375 65.921875 
Q 27.828125 65.921875 22.671875 59.328125 
Q 17.53125 52.734375 16.796875 39.40625 
Q 19.671875 43.65625 24.015625 45.921875 
Q 28.375 48.1875 33.59375 48.1875 
Q 44.578125 48.1875 50.953125 41.515625 
Q 57.328125 34.859375 57.328125 23.390625 
Q 57.328125 12.15625 50.6875 5.359375 
Q 44.046875 -1.421875 33.015625 -1.421875 
Q 20.359375 -1.421875 13.671875 8.265625 
Q 6.984375 17.96875 6.984375 36.375 
Q 6.984375 53.65625 15.1875 63.9375 
Q 23.390625 74.21875 37.203125 74.21875 
Q 40.921875 74.21875 44.703125 73.484375 
Q 48.484375 72.75 52.59375 71.296875 
z
" id="DejaVuSans-54"/>
       <path d="M 10.6875 12.40625 
L 21 12.40625 
L 21 0 
L 10.6875 0 
z
" id="DejaVuSans-46"/>
       <path d="M 31.78125 66.40625 
Q 24.171875 66.40625 20.328125 58.90625 
Q 16.5 51.421875 16.5 36.375 
Q 16.5 21.390625 20.328125 13.890625 
Q 24.171875 6.390625 31.78125 6.390625 
Q 39.453125 6.390625 43.28125 13.890625 
Q 47.125 21.390625 47.125 36.375 
Q 47.125 51.421875 43.28125 58.90625 
Q 39.453125 66.40625 31.78125 66.40625 
z
M 31.78125 74.21875 
Q 44.046875 74.21875 50.515625 64.515625 
Q 56.984375 54.828125 56.984375 36.375 
Q 56.984375 17.96875 50.515625 8.265625 
Q 44.046875 -1.421875 31.78125 -1.421875 
Q 19.53125 -1.421875 13.0625 8.265625 
Q 6.59375 17.96875 6.59375 36.375 
Q 6.59375 54.828125 13.0625 64.515625 
Q 19.53125 74.21875 31.78125 74.21875 
z
" id="DejaVuSans-48"/>
      </defs>
      <g transform="translate(51.583843 542.877813)scale(0.14 -0.14)">
       <use xlink:href="#DejaVuSans-54"/>
       <use x="63.623047" xlink:href="#DejaVuSans-46"/>
       <use x="95.410156" xlink:href="#DejaVuSans-48"/>
      </g>
     </g>
    </g>
    <g id="xtick_2">
     <g id="line2d_6">
      <g>
       <use style="stroke:#000000;stroke-width:0.8;" x="146.157745" xlink:href="#mbbb546e1b4" y="525.24"/>
      </g>
     </g>
     <g id="text_6">
      <!-- 6.5 -->
      <defs>
       <path d="M 10.796875 72.90625 
L 49.515625 72.90625 
L 49.515625 64.59375 
L 19.828125 64.59375 
L 19.828125 46.734375 
Q 21.96875 47.46875 24.109375 47.828125 
Q 26.265625 48.1875 28.421875 48.1875 
Q 40.625 48.1875 47.75 41.5 
Q 54.890625 34.8125 54.890625 23.390625 
Q 54.890625 11.625 47.5625 5.09375 
Q 40.234375 -1.421875 26.90625 -1.421875 
Q 22.3125 -1.421875 17.546875 -0.640625 
Q 12.796875 0.140625 7.71875 1.703125 
L 7.71875 11.625 
Q 12.109375 9.234375 16.796875 8.0625 
Q 21.484375 6.890625 26.703125 6.890625 
Q 35.15625 6.890625 40.078125 11.328125 
Q 45.015625 15.765625 45.015625 23.390625 
Q 45.015625 31 40.078125 35.4375 
Q 35.15625 39.890625 26.703125 39.890625 
Q 22.75 39.890625 18.8125 39.015625 
Q 14.890625 38.140625 10.796875 36.28125 
z
" id="DejaVuSans-53"/>
      </defs>
      <g transform="translate(135.025558 542.877813)scale(0.14 -0.14)">
       <use xlink:href="#DejaVuSans-54"/>
       <use x="63.623047" xlink:href="#DejaVuSans-46"/>
       <use x="95.410156" xlink:href="#DejaVuSans-53"/>
      </g>
     </g>
    </g>
    <g id="xtick_3">
     <g id="line2d_7">
      <g>
       <use style="stroke:#000000;stroke-width:0.8;" x="229.59946" xlink:href="#mbbb546e1b4" y="525.24"/>
      </g>
     </g>
     <g id="text_7">
      <!-- 7.0 -->
      <defs>
       <path d="M 8.203125 72.90625 
L 55.078125 72.90625 
L 55.078125 68.703125 
L 28.609375 0 
L 18.3125 0 
L 43.21875 64.59375 
L 8.203125 64.59375 
z
" id="DejaVuSans-55"/>
      </defs>
      <g transform="translate(218.467273 542.877813)scale(0.14 -0.14)">
       <use xlink:href="#DejaVuSans-55"/>
       <use x="63.623047" xlink:href="#DejaVuSans-46"/>
       <use x="95.410156" xlink:href="#DejaVuSans-48"/>
      </g>
     </g>
    </g>
    <g id="xtick_4">
     <g id="line2d_8">
      <g>
       <use style="stroke:#000000;stroke-width:0.8;" x="313.041175" xlink:href="#mbbb546e1b4" y="525.24"/>
      </g>
     </g>
     <g id="text_8">
      <!-- 7.5 -->
      <g transform="translate(301.908988 542.877813)scale(0.14 -0.14)">
       <use xlink:href="#DejaVuSans-55"/>
       <use x="63.623047" xlink:href="#DejaVuSans-46"/>
       <use x="95.410156" xlink:href="#DejaVuSans-53"/>
      </g>
     </g>
    </g>
    <g id="xtick_5">
     <g id="line2d_9">
      <g>
       <use style="stroke:#000000;stroke-width:0.8;" x="396.48289" xlink:href="#mbbb546e1b4" y="525.24"/>
      </g>
     </g>
     <g id="text_9">
      <!-- 8.0 -->
      <defs>
       <path d="M 31.78125 34.625 
Q 24.75 34.625 20.71875 30.859375 
Q 16.703125 27.09375 16.703125 20.515625 
Q 16.703125 13.921875 20.71875 10.15625 
Q 24.75 6.390625 31.78125 6.390625 
Q 38.8125 6.390625 42.859375 10.171875 
Q 46.921875 13.96875 46.921875 20.515625 
Q 46.921875 27.09375 42.890625 30.859375 
Q 38.875 34.625 31.78125 34.625 
z
M 21.921875 38.8125 
Q 15.578125 40.375 12.03125 44.71875 
Q 8.5 49.078125 8.5 55.328125 
Q 8.5 64.0625 14.71875 69.140625 
Q 20.953125 74.21875 31.78125 74.21875 
Q 42.671875 74.21875 48.875 69.140625 
Q 55.078125 64.0625 55.078125 55.328125 
Q 55.078125 49.078125 51.53125 44.71875 
Q 48 40.375 41.703125 38.8125 
Q 48.828125 37.15625 52.796875 32.3125 
Q 56.78125 27.484375 56.78125 20.515625 
Q 56.78125 9.90625 50.3125 4.234375 
Q 43.84375 -1.421875 31.78125 -1.421875 
Q 19.734375 -1.421875 13.25 4.234375 
Q 6.78125 9.90625 6.78125 20.515625 
Q 6.78125 27.484375 10.78125 32.3125 
Q 14.796875 37.15625 21.921875 38.8125 
z
M 18.3125 54.390625 
Q 18.3125 48.734375 21.84375 45.5625 
Q 25.390625 42.390625 31.78125 42.390625 
Q 38.140625 42.390625 41.71875 45.5625 
Q 45.3125 48.734375 45.3125 54.390625 
Q 45.3125 60.0625 41.71875 63.234375 
Q 38.140625 66.40625 31.78125 66.40625 
Q 25.390625 66.40625 21.84375 63.234375 
Q 18.3125 60.0625 18.3125 54.390625 
z
" id="DejaVuSans-56"/>
      </defs>
      <g transform="translate(385.350703 542.877813)scale(0.14 -0.14)">
       <use xlink:href="#DejaVuSans-56"/>
       <use x="63.623047" xlink:href="#DejaVuSans-46"/>
       <use x="95.410156" xlink:href="#DejaVuSans-48"/>
      </g>
     </g>
    </g>
    <g id="xtick_6">
     <g id="line2d_10">
      <g>
       <use style="stroke:#000000;stroke-width:0.8;" x="479.924605" xlink:href="#mbbb546e1b4" y="525.24"/>
      </g>
     </g>
     <g id="text_10">
      <!-- 8.5 -->
      <g transform="translate(468.792418 542.877813)scale(0.14 -0.14)">
       <use xlink:href="#DejaVuSans-56"/>
       <use x="63.623047" xlink:href="#DejaVuSans-46"/>
       <use x="95.410156" xlink:href="#DejaVuSans-53"/>
      </g>
     </g>
    </g>
   </g>
   <g id="line2d_11">
    <path clip-path="url(#p3876a5c414)" d="M 284.670992 525.24 
L 284.670992 402.93 
" style="fill:none;stroke:#ff6384;stroke-dasharray:5.55,2.4;stroke-dashoffset:0;stroke-opacity:0.8;stroke-width:1.5;"/>
   </g>
   <g id="line2d_12">
    <path clip-path="url(#p3876a5c414)" d="M 288.008661 525.24 
L 288.008661 402.93 
" style="fill:none;stroke:#36a2eb;stroke-dasharray:5.55,2.4;stroke-dashoffset:0;stroke-opacity:0.8;stroke-width:1.5;"/>
   </g>
   <g id="line2d_13">
    <path clip-path="url(#p3876a5c414)" d="M 269.651484 525.24 
L 269.651484 402.93 
" style="fill:none;stroke:#4bc0c0;stroke-dasharray:5.55,2.4;stroke-dashoffset:0;stroke-opacity:0.8;stroke-width:1.5;"/>
   </g>
   <g id="line2d_14">
    <path clip-path="url(#p3876a5c414)" d="M 303.02817 525.24 
L 303.02817 402.93 
" style="fill:none;stroke:#9966ff;stroke-dasharray:5.55,2.4;stroke-dashoffset:0;stroke-opacity:0.8;stroke-width:1.5;"/>
   </g>
   <g id="patch_14">
    <path d="M 36 525.24 
L 538.2 525.24 
" style="fill:none;stroke:#000000;stroke-linecap:square;stroke-linejoin:miter;stroke-width:0.8;"/>
   </g>
  </g>
 </g>
 <defs>
  <clipPath id="pe09478fb00">
   <rect height="366.93" width="502.2" x="36" y="36"/>
  </clipPath>
  <clipPath id="p3876a5c414">
   <rect height="122.31" width="502.2" x="36" y="402.93"/>
  </clipPath>
 </defs>
</svg>
