<?xml version="1.0" encoding="utf-8" standalone="no"?>
<!DOCTYPE svg PUBLIC "-//W3C//DTD SVG 1.1//EN"
  "http://www.w3.org/Graphics/SVG/1.1/DTD/svg11.dtd">
<!-- Created with matplotlib (https://matplotlib.org/) -->
<svg height="581.789375pt" version="1.1" viewBox="0 0 574.2 581.789375" width="574.2pt" xmlns="http://www.w3.org/2000/svg" xmlns:xlink="http://www.w3.org/1999/xlink">
 <defs>
  <style type="text/css">
*{stroke-linecap:butt;stroke-linejoin:round;}
  </style>
 </defs>
 <g id="figure_1">
  <g id="patch_1">
   <path d="M 0 581.789375 
L 574.2 581.789375 
L 574.2 0 
L 0 0 
z
" style="fill:none;"/>
  </g>
  <g id="axes_1">
   <g id="patch_2">
    <path d="M 36 402.93 
L 538.2 402.93 
L 538.2 36 
L 36 36 
z
" style="fill:none;"/>
   </g>
   <g id="PolyCollection_1">
    <defs>
     <path d="M 71.45439 -195.538011 
L 71.45439 -195.649619 
L 75.728059 -195.691704 
L 80.001728 -195.748282 
L 84.275397 -195.823814 
L 88.549065 -195.92395 
L 92.822734 -196.055779 
L 97.096403 -196.228117 
L 101.370072 -196.45183 
L 105.64374 -196.740189 
L 109.917409 -197.109246 
L 114.191078 -197.578236 
L 118.464747 -198.169968 
L 122.738415 -198.911224 
L 127.012084 -199.833106 
L 131.285753 -200.971339 
L 135.559422 -202.366476 
L 139.83309 -204.063991 
L 144.106759 -206.114211 
L 148.380428 -208.572052 
L 152.654097 -211.49653 
L 156.927765 -214.950006 
L 161.201434 -218.997138 
L 165.475103 -223.703519 
L 169.748772 -229.133998 
L 174.02244 -235.350682 
L 178.296109 -242.410639 
L 182.569778 -250.363355 
L 186.843447 -259.247998 
L 191.117116 -269.090563 
L 195.390784 -279.901018 
L 199.664453 -291.670557 
L 203.938122 -304.369084 
L 208.211791 -317.943097 
L 212.485459 -332.314073 
L 216.759128 -347.377525 
L 221.032797 -363.002835 
L 225.306466 -379.033956 
L 229.580134 -395.291063 
L 233.853803 -411.57318 
L 238.127472 -427.661758 
L 242.401141 -443.325153 
L 246.674809 -458.323901 
L 250.948478 -472.416616 
L 255.222147 -485.366341 
L 259.495816 -496.947105 
L 263.769484 -506.950444 
L 268.043153 -515.19163 
L 272.316822 -521.515331 
L 276.590491 -525.80048 
L 280.864159 -527.964133 
L 285.137828 -527.964133 
L 289.411497 -525.80048 
L 293.685166 -521.515331 
L 297.958834 -515.19163 
L 302.232503 -506.950444 
L 306.506172 -496.947105 
L 310.779841 -485.366341 
L 315.05351 -472.416616 
L 319.327178 -458.323901 
L 323.600847 -443.325153 
L 327.874516 -427.661758 
L 332.148185 -411.57318 
L 336.421853 -395.291063 
L 340.695522 -379.033956 
L 344.969191 -363.002835 
L 349.24286 -347.377525 
L 353.516528 -332.314073 
L 357.790197 -317.943097 
L 362.063866 -304.369084 
L 366.337535 -291.670557 
L 370.611203 -279.901018 
L 374.884872 -269.090563 
L 379.158541 -259.247998 
L 383.43221 -250.363355 
L 387.705878 -242.410639 
L 391.979547 -235.350682 
L 396.253216 -229.133998 
L 400.526885 -223.703519 
L 404.800553 -218.997138 
L 409.074222 -214.950006 
L 413.347891 -211.49653 
L 417.62156 -208.572052 
L 421.895229 -206.114211 
L 426.168897 -204.063991 
L 430.442566 -202.366476 
L 434.716235 -200.971339 
L 438.989904 -199.833106 
L 443.263572 -198.911224 
L 447.537241 -198.169968 
L 451.81091 -197.578236 
L 456.084579 -197.109246 
L 460.358247 -196.740189 
L 464.631916 -196.45183 
L 468.905585 -196.228117 
L 473.179254 -196.055779 
L 477.452922 -195.92395 
L 481.726591 -195.823814 
L 486.00026 -195.748282 
L 490.273929 -195.691704 
L 494.547597 -195.649619 
L 494.547597 -195.538011 
L 494.547597 -195.538011 
L 490.273929 -195.538011 
L 486.00026 -195.538011 
L 481.726591 -195.538011 
L 477.452922 -195.538011 
L 473.179254 -195.538011 
L 468.905585 -195.538011 
L 464.631916 -195.538011 
L 460.358247 -195.538011 
L 456.084579 -195.538011 
L 451.81091 -195.538011 
L 447.537241 -195.538011 
L 443.263572 -195.538011 
L 438.989904 -195.538011 
L 434.716235 -195.538011 
L 430.442566 -195.538011 
L 426.168897 -195.538011 
L 421.895229 -195.538011 
L 417.62156 -195.538011 
L 413.347891 -195.538011 
L 409.074222 -195.538011 
L 404.800553 -195.538011 
L 400.526885 -195.538011 
L 396.253216 -195.538011 
L 391.979547 -195.538011 
L 387.705878 -195.538011 
L 383.43221 -195.538011 
L 379.158541 -195.538011 
L 374.884872 -195.538011 
L 370.611203 -195.538011 
L 366.337535 -195.538011 
L 362.063866 -195.538011 
L 357.790197 -195.538011 
L 353.516528 -195.538011 
L 349.24286 -195.538011 
L 344.969191 -195.538011 
L 340.695522 -195.538011 
L 336.421853 -195.538011 
L 332.148185 -195.538011 
L 327.874516 -195.538011 
L 323.600847 -195.538011 
L 319.327178 -195.538011 
L 315.05351 -195.538011 
L 310.779841 -195.538011 
L 306.506172 -195.538011 
L 302.232503 -195.538011 
L 297.958834 -195.538011 
L 293.685166 -195.538011 
L 289.411497 -195.538011 
L 285.137828 -195.538011 
L 280.864159 -195.538011 
L 276.590491 -195.538011 
L 272.316822 -195.538011 
L 268.043153 -195.538011 
L 263.769484 -195.538011 
L 259.495816 -195.538011 
L 255.222147 -195.538011 
L 250.948478 -195.538011 
L 246.674809 -195.538011 
L 242.401141 -195.538011 
L 238.127472 -195.538011 
L 233.853803 -195.538011 
L 229.580134 -195.538011 
L 225.306466 -195.538011 
L 221.032797 -195.538011 
L 216.759128 -195.538011 
L 212.485459 -195.538011 
L 208.211791 -195.538011 
L 203.938122 -195.538011 
L 199.664453 -195.538011 
L 195.390784 -195.538011 
L 191.117116 -195.538011 
L 186.843447 -195.538011 
L 182.569778 -195.538011 
L 178.296109 -195.538011 
L 174.02244 -195.538011 
L 169.748772 -195.538011 
L 165.475103 -195.538011 
L 161.201434 -195.538011 
L 156.927765 -195.538011 
L 152.654097 -195.538011 
L 148.380428 -195.538011 
L 144.106759 -195.538011 
L 139.83309 -195.538011 
L 135.559422 -195.538011 
L 131.285753 -195.538011 
L 127.012084 -195.538011 
L 122.738415 -195.538011 
L 118.464747 -195.538011 
L 114.191078 -195.538011 
L 109.917409 -195.538011 
L 105.64374 -195.538011 
L 101.370072 -195.538011 
L 97.096403 -195.538011 
L 92.822734 -195.538011 
L 88.549065 -195.538011 
L 84.275397 -195.538011 
L 80.001728 -195.538011 
L 75.728059 -195.538011 
L 71.45439 -195.538011 
z
" id="m3577851563" style="stroke:#ff6384;stroke-opacity:0.5;"/>
    </defs>
    <g clip-path="url(#p18eff0bc99)">
     <use style="fill:#ff6384;fill-opacity:0.5;stroke:#ff6384;stroke-opacity:0.5;" x="0" xlink:href="#m3577851563" y="581.789375"/>
    </g>
   </g>
   <g id="PolyCollection_2">
    <defs>
     <path d="M 76.538019 -195.538011 
L 76.538019 -195.649659 
L 80.810157 -195.691759 
L 85.082295 -195.748357 
L 89.354433 -195.823916 
L 93.626571 -195.924088 
L 97.898709 -196.055964 
L 102.170847 -196.228364 
L 106.442985 -196.452157 
L 110.715123 -196.740619 
L 114.987261 -197.109809 
L 119.259399 -197.578967 
L 123.531537 -198.170912 
L 127.803675 -198.912433 
L 132.075813 -199.834645 
L 136.347951 -200.973286 
L 140.620089 -202.368923 
L 144.892226 -204.067047 
L 149.164364 -206.118001 
L 153.436502 -208.576723 
L 157.70864 -211.502249 
L 161.980778 -214.956962 
L 166.252916 -219.005544 
L 170.525054 -223.713611 
L 174.797192 -229.146037 
L 179.06933 -235.364948 
L 183.341468 -242.427434 
L 187.613606 -250.383001 
L 191.885744 -259.270827 
L 196.157882 -269.116918 
L 200.43002 -279.931248 
L 204.702158 -291.705003 
L 208.974296 -304.408081 
L 213.246434 -317.986958 
L 217.518572 -332.363083 
L 221.79071 -347.431933 
L 226.062847 -363.062842 
L 230.334985 -379.099707 
L 234.607123 -395.36264 
L 238.879261 -411.650591 
L 243.151399 -427.744933 
L 247.423537 -443.413941 
L 251.695675 -458.418063 
L 255.967813 -472.515828 
L 260.239951 -485.470193 
L 264.512089 -497.055107 
L 268.784227 -507.062031 
L 273.056365 -515.30617 
L 277.328503 -521.632136 
L 281.600641 -525.918821 
L 285.872779 -528.083249 
L 290.144917 -528.083249 
L 294.417055 -525.918821 
L 298.689193 -521.632136 
L 302.961331 -515.30617 
L 307.233468 -507.062031 
L 311.505606 -497.055107 
L 315.777744 -485.470193 
L 320.049882 -472.515828 
L 324.32202 -458.418063 
L 328.594158 -443.413941 
L 332.866296 -427.744933 
L 337.138434 -411.650591 
L 341.410572 -395.36264 
L 345.68271 -379.099707 
L 349.954848 -363.062842 
L 354.226986 -347.431933 
L 358.499124 -332.363083 
L 362.771262 -317.986958 
L 367.0434 -304.408081 
L 371.315538 -291.705003 
L 375.587676 -279.931248 
L 379.859814 -269.116918 
L 384.131952 -259.270827 
L 388.404089 -250.383001 
L 392.676227 -242.427434 
L 396.948365 -235.364948 
L 401.220503 -229.146037 
L 405.492641 -223.713611 
L 409.764779 -219.005544 
L 414.036917 -214.956962 
L 418.309055 -211.502249 
L 422.581193 -208.576723 
L 426.853331 -206.118001 
L 431.125469 -204.067047 
L 435.397607 -202.368923 
L 439.669745 -200.973286 
L 443.941883 -199.834645 
L 448.214021 -198.912433 
L 452.486159 -198.170912 
L 456.758297 -197.578967 
L 461.030435 -197.109809 
L 465.302573 -196.740619 
L 469.57471 -196.452157 
L 473.846848 -196.228364 
L 478.118986 -196.055964 
L 482.391124 -195.924088 
L 486.663262 -195.823916 
L 490.9354 -195.748357 
L 495.207538 -195.691759 
L 499.479676 -195.649659 
L 499.479676 -195.538011 
L 499.479676 -195.538011 
L 495.207538 -195.538011 
L 490.9354 -195.538011 
L 486.663262 -195.538011 
L 482.391124 -195.538011 
L 478.118986 -195.538011 
L 473.846848 -195.538011 
L 469.57471 -195.538011 
L 465.302573 -195.538011 
L 461.030435 -195.538011 
L 456.758297 -195.538011 
L 452.486159 -195.538011 
L 448.214021 -195.538011 
L 443.941883 -195.538011 
L 439.669745 -195.538011 
L 435.397607 -195.538011 
L 431.125469 -195.538011 
L 426.853331 -195.538011 
L 422.581193 -195.538011 
L 418.309055 -195.538011 
L 414.036917 -195.538011 
L 409.764779 -195.538011 
L 405.492641 -195.538011 
L 401.220503 -195.538011 
L 396.948365 -195.538011 
L 392.676227 -195.538011 
L 388.404089 -195.538011 
L 384.131952 -195.538011 
L 379.859814 -195.538011 
L 375.587676 -195.538011 
L 371.315538 -195.538011 
L 367.0434 -195.538011 
L 362.771262 -195.538011 
L 358.499124 -195.538011 
L 354.226986 -195.538011 
L 349.954848 -195.538011 
L 345.68271 -195.538011 
L 341.410572 -195.538011 
L 337.138434 -195.538011 
L 332.866296 -195.538011 
L 328.594158 -195.538011 
L 324.32202 -195.538011 
L 320.049882 -195.538011 
L 315.777744 -195.538011 
L 311.505606 -195.538011 
L 307.233468 -195.538011 
L 302.961331 -195.538011 
L 298.689193 -195.538011 
L 294.417055 -195.538011 
L 290.144917 -195.538011 
L 285.872779 -195.538011 
L 281.600641 -195.538011 
L 277.328503 -195.538011 
L 273.056365 -195.538011 
L 268.784227 -195.538011 
L 264.512089 -195.538011 
L 260.239951 -195.538011 
L 255.967813 -195.538011 
L 251.695675 -195.538011 
L 247.423537 -195.538011 
L 243.151399 -195.538011 
L 238.879261 -195.538011 
L 234.607123 -195.538011 
L 230.334985 -195.538011 
L 226.062847 -195.538011 
L 221.79071 -195.538011 
L 217.518572 -195.538011 
L 213.246434 -195.538011 
L 208.974296 -195.538011 
L 204.702158 -195.538011 
L 200.43002 -195.538011 
L 196.157882 -195.538011 
L 191.885744 -195.538011 
L 187.613606 -195.538011 
L 183.341468 -195.538011 
L 179.06933 -195.538011 
L 174.797192 -195.538011 
L 170.525054 -195.538011 
L 166.252916 -195.538011 
L 161.980778 -195.538011 
L 157.70864 -195.538011 
L 153.436502 -195.538011 
L 149.164364 -195.538011 
L 144.892226 -195.538011 
L 140.620089 -195.538011 
L 136.347951 -195.538011 
L 132.075813 -195.538011 
L 127.803675 -195.538011 
L 123.531537 -195.538011 
L 119.259399 -195.538011 
L 114.987261 -195.538011 
L 110.715123 -195.538011 
L 106.442985 -195.538011 
L 102.170847 -195.538011 
L 97.898709 -195.538011 
L 93.626571 -195.538011 
L 89.354433 -195.538011 
L 85.082295 -195.538011 
L 80.810157 -195.538011 
L 76.538019 -195.538011 
z
" id="m73410a3115" style="stroke:#36a2eb;stroke-opacity:0.5;"/>
    </defs>
    <g clip-path="url(#p18eff0bc99)">
     <use style="fill:#36a2eb;fill-opacity:0.5;stroke:#36a2eb;stroke-opacity:0.5;" x="0" xlink:href="#m73410a3115" y="581.789375"/>
    </g>
   </g>
   <g id="PolyCollection_3">
    <defs>
     <path d="M 58.827273 -195.538011 
L 58.827273 -195.650004 
L 63.086251 -195.692234 
L 67.34523 -195.749007 
L 71.604209 -195.8248 
L 75.863187 -195.925281 
L 80.122166 -196.057565 
L 84.381145 -196.230497 
L 88.640123 -196.454982 
L 92.899102 -196.744335 
L 97.158081 -197.114666 
L 101.417059 -197.585273 
L 105.676038 -198.179047 
L 109.935017 -198.922859 
L 114.193995 -199.847921 
L 118.452974 -200.990079 
L 122.711953 -202.390029 
L 126.970931 -204.093399 
L 131.22991 -206.150691 
L 135.488889 -208.617009 
L 139.747867 -211.551575 
L 144.006846 -215.016962 
L 148.265825 -219.078053 
L 152.524803 -223.800667 
L 156.783782 -229.249878 
L 161.042761 -235.488004 
L 165.301739 -242.572312 
L 169.560718 -250.552459 
L 173.819697 -259.467747 
L 178.078675 -269.344261 
L 182.337654 -280.192004 
L 186.596633 -292.002137 
L 190.855611 -304.744465 
L 195.11459 -318.365297 
L 199.373569 -332.785841 
L 203.632547 -347.901251 
L 207.891526 -363.580456 
L 212.150505 -379.666871 
L 216.409483 -395.980052 
L 220.668462 -412.31833 
L 224.927441 -428.4624 
L 229.186419 -444.179822 
L 233.445398 -459.230303 
L 237.704377 -473.371627 
L 241.963355 -486.366018 
L 246.222334 -497.986726 
L 250.481313 -508.02457 
L 254.740291 -516.294181 
L 258.99927 -522.639693 
L 263.258249 -526.939623 
L 267.517228 -529.110739 
L 271.776206 -529.110739 
L 276.035185 -526.939623 
L 280.294164 -522.639693 
L 284.553142 -516.294181 
L 288.812121 -508.02457 
L 293.0711 -497.986726 
L 297.330078 -486.366018 
L 301.589057 -473.371627 
L 305.848036 -459.230303 
L 310.107014 -444.179822 
L 314.365993 -428.4624 
L 318.624972 -412.31833 
L 322.88395 -395.980052 
L 327.142929 -379.666871 
L 331.401908 -363.580456 
L 335.660886 -347.901251 
L 339.919865 -332.785841 
L 344.178844 -318.365297 
L 348.437822 -304.744465 
L 352.696801 -292.002137 
L 356.95578 -280.192004 
L 361.214758 -269.344261 
L 365.473737 -259.467747 
L 369.732716 -250.552459 
L 373.991694 -242.572312 
L 378.250673 -235.488004 
L 382.509652 -229.249878 
L 386.76863 -223.800667 
L 391.027609 -219.078053 
L 395.286588 -215.016962 
L 399.545566 -211.551575 
L 403.804545 -208.617009 
L 408.063524 -206.150691 
L 412.322502 -204.093399 
L 416.581481 -202.390029 
L 420.84046 -200.990079 
L 425.099438 -199.847921 
L 429.358417 -198.922859 
L 433.617396 -198.179047 
L 437.876374 -197.585273 
L 442.135353 -197.114666 
L 446.394332 -196.744335 
L 450.65331 -196.454982 
L 454.912289 -196.230497 
L 459.171268 -196.057565 
L 463.430246 -195.925281 
L 467.689225 -195.8248 
L 471.948204 -195.749007 
L 476.207182 -195.692234 
L 480.466161 -195.650004 
L 480.466161 -195.538011 
L 480.466161 -195.538011 
L 476.207182 -195.538011 
L 471.948204 -195.538011 
L 467.689225 -195.538011 
L 463.430246 -195.538011 
L 459.171268 -195.538011 
L 454.912289 -195.538011 
L 450.65331 -195.538011 
L 446.394332 -195.538011 
L 442.135353 -195.538011 
L 437.876374 -195.538011 
L 433.617396 -195.538011 
L 429.358417 -195.538011 
L 425.099438 -195.538011 
L 420.84046 -195.538011 
L 416.581481 -195.538011 
L 412.322502 -195.538011 
L 408.063524 -195.538011 
L 403.804545 -195.538011 
L 399.545566 -195.538011 
L 395.286588 -195.538011 
L 391.027609 -195.538011 
L 386.76863 -195.538011 
L 382.509652 -195.538011 
L 378.250673 -195.538011 
L 373.991694 -195.538011 
L 369.732716 -195.538011 
L 365.473737 -195.538011 
L 361.214758 -195.538011 
L 356.95578 -195.538011 
L 352.696801 -195.538011 
L 348.437822 -195.538011 
L 344.178844 -195.538011 
L 339.919865 -195.538011 
L 335.660886 -195.538011 
L 331.401908 -195.538011 
L 327.142929 -195.538011 
L 322.88395 -195.538011 
L 318.624972 -195.538011 
L 314.365993 -195.538011 
L 310.107014 -195.538011 
L 305.848036 -195.538011 
L 301.589057 -195.538011 
L 297.330078 -195.538011 
L 293.0711 -195.538011 
L 288.812121 -195.538011 
L 284.553142 -195.538011 
L 280.294164 -195.538011 
L 276.035185 -195.538011 
L 271.776206 -195.538011 
L 267.517228 -195.538011 
L 263.258249 -195.538011 
L 258.99927 -195.538011 
L 254.740291 -195.538011 
L 250.481313 -195.538011 
L 246.222334 -195.538011 
L 241.963355 -195.538011 
L 237.704377 -195.538011 
L 233.445398 -195.538011 
L 229.186419 -195.538011 
L 224.927441 -195.538011 
L 220.668462 -195.538011 
L 216.409483 -195.538011 
L 212.150505 -195.538011 
L 207.891526 -195.538011 
L 203.632547 -195.538011 
L 199.373569 -195.538011 
L 195.11459 -195.538011 
L 190.855611 -195.538011 
L 186.596633 -195.538011 
L 182.337654 -195.538011 
L 178.078675 -195.538011 
L 173.819697 -195.538011 
L 169.560718 -195.538011 
L 165.301739 -195.538011 
L 161.042761 -195.538011 
L 156.783782 -195.538011 
L 152.524803 -195.538011 
L 148.265825 -195.538011 
L 144.006846 -195.538011 
L 139.747867 -195.538011 
L 135.488889 -195.538011 
L 131.22991 -195.538011 
L 126.970931 -195.538011 
L 122.711953 -195.538011 
L 118.452974 -195.538011 
L 114.193995 -195.538011 
L 109.935017 -195.538011 
L 105.676038 -195.538011 
L 101.417059 -195.538011 
L 97.158081 -195.538011 
L 92.899102 -195.538011 
L 88.640123 -195.538011 
L 84.381145 -195.538011 
L 80.122166 -195.538011 
L 75.863187 -195.538011 
L 71.604209 -195.538011 
L 67.34523 -195.538011 
L 63.086251 -195.538011 
L 58.827273 -195.538011 
z
" id="m6f067ec23d" style="stroke:#4bc0c0;stroke-opacity:0.5;"/>
    </defs>
    <g clip-path="url(#p18eff0bc99)">
     <use style="fill:#4bc0c0;fill-opacity:0.5;stroke:#4bc0c0;stroke-opacity:0.5;" x="0" xlink:href="#m6f067ec23d" y="581.789375"/>
    </g>
   </g>
   <g id="PolyCollection_4">
    <defs>
     <path d="M 90.692091 -195.538011 
L 90.692091 -195.649202 
L 94.981795 -195.69113 
L 99.271498 -195.747496 
L 103.561202 -195.822746 
L 107.850905 -195.922508 
L 112.140608 -196.053844 
L 116.430312 -196.225537 
L 120.720015 -196.448414 
L 125.009718 -196.735695 
L 129.299422 -197.103373 
L 133.589125 -197.57061 
L 137.878829 -198.16013 
L 142.168532 -198.898615 
L 146.458235 -199.817052 
L 150.747939 -200.951029 
L 155.037642 -202.340951 
L 159.327346 -204.032122 
L 163.617049 -206.074678 
L 167.906752 -208.523332 
L 172.196456 -211.436878 
L 176.486159 -214.877445 
L 180.775863 -218.909449 
L 185.065566 -223.598238 
L 189.355269 -229.008419 
L 193.644973 -235.201865 
L 197.934676 -242.235432 
L 202.22438 -250.158422 
L 206.514083 -259.009854 
L 210.803786 -268.815628 
L 215.09349 -279.585675 
L 219.383193 -291.311219 
L 223.672897 -303.962281 
L 227.9626 -317.485555 
L 232.252303 -331.802812 
L 236.542007 -346.809959 
L 240.83171 -362.376863 
L 245.121413 -378.34806 
L 249.411117 -394.544399 
L 253.70082 -410.765655 
L 257.990524 -426.794094 
L 262.280227 -442.398941 
L 266.56993 -457.341624 
L 270.859634 -471.381661 
L 275.149337 -484.282981 
L 279.439041 -495.820457 
L 283.728744 -505.786405 
L 288.018447 -513.996786 
L 292.308151 -520.296849 
L 296.597854 -524.56598 
L 300.887558 -526.721545 
L 305.177261 -526.721545 
L 309.466964 -524.56598 
L 313.756668 -520.296849 
L 318.046371 -513.996786 
L 322.336075 -505.786405 
L 326.625778 -495.820457 
L 330.915481 -484.282981 
L 335.205185 -471.381661 
L 339.494888 -457.341624 
L 343.784592 -442.398941 
L 348.074295 -426.794094 
L 352.363998 -410.765655 
L 356.653702 -394.544399 
L 360.943405 -378.34806 
L 365.233109 -362.376863 
L 369.522812 -346.809959 
L 373.812515 -331.802812 
L 378.102219 -317.485555 
L 382.391922 -303.962281 
L 386.681625 -291.311219 
L 390.971329 -279.585675 
L 395.261032 -268.815628 
L 399.550736 -259.009854 
L 403.840439 -250.158422 
L 408.130142 -242.235432 
L 412.419846 -235.201865 
L 416.709549 -229.008419 
L 420.999253 -223.598238 
L 425.288956 -218.909449 
L 429.578659 -214.877445 
L 433.868363 -211.436878 
L 438.158066 -208.523332 
L 442.44777 -206.074678 
L 446.737473 -204.032122 
L 451.027176 -202.340951 
L 455.31688 -200.951029 
L 459.606583 -199.817052 
L 463.896287 -198.898615 
L 468.18599 -198.16013 
L 472.475693 -197.57061 
L 476.765397 -197.103373 
L 481.0551 -196.735695 
L 485.344804 -196.448414 
L 489.634507 -196.225537 
L 493.92421 -196.053844 
L 498.213914 -195.922508 
L 502.503617 -195.822746 
L 506.79332 -195.747496 
L 511.083024 -195.69113 
L 515.372727 -195.649202 
L 515.372727 -195.538011 
L 515.372727 -195.538011 
L 511.083024 -195.538011 
L 506.79332 -195.538011 
L 502.503617 -195.538011 
L 498.213914 -195.538011 
L 493.92421 -195.538011 
L 489.634507 -195.538011 
L 485.344804 -195.538011 
L 481.0551 -195.538011 
L 476.765397 -195.538011 
L 472.475693 -195.538011 
L 468.18599 -195.538011 
L 463.896287 -195.538011 
L 459.606583 -195.538011 
L 455.31688 -195.538011 
L 451.027176 -195.538011 
L 446.737473 -195.538011 
L 442.44777 -195.538011 
L 438.158066 -195.538011 
L 433.868363 -195.538011 
L 429.578659 -195.538011 
L 425.288956 -195.538011 
L 420.999253 -195.538011 
L 416.709549 -195.538011 
L 412.419846 -195.538011 
L 408.130142 -195.538011 
L 403.840439 -195.538011 
L 399.550736 -195.538011 
L 395.261032 -195.538011 
L 390.971329 -195.538011 
L 386.681625 -195.538011 
L 382.391922 -195.538011 
L 378.102219 -195.538011 
L 373.812515 -195.538011 
L 369.522812 -195.538011 
L 365.233109 -195.538011 
L 360.943405 -195.538011 
L 356.653702 -195.538011 
L 352.363998 -195.538011 
L 348.074295 -195.538011 
L 343.784592 -195.538011 
L 339.494888 -195.538011 
L 335.205185 -195.538011 
L 330.915481 -195.538011 
L 326.625778 -195.538011 
L 322.336075 -195.538011 
L 318.046371 -195.538011 
L 313.756668 -195.538011 
L 309.466964 -195.538011 
L 305.177261 -195.538011 
L 300.887558 -195.538011 
L 296.597854 -195.538011 
L 292.308151 -195.538011 
L 288.018447 -195.538011 
L 283.728744 -195.538011 
L 279.439041 -195.538011 
L 275.149337 -195.538011 
L 270.859634 -195.538011 
L 266.56993 -195.538011 
L 262.280227 -195.538011 
L 257.990524 -195.538011 
L 253.70082 -195.538011 
L 249.411117 -195.538011 
L 245.121413 -195.538011 
L 240.83171 -195.538011 
L 236.542007 -195.538011 
L 232.252303 -195.538011 
L 227.9626 -195.538011 
L 223.672897 -195.538011 
L 219.383193 -195.538011 
L 215.09349 -195.538011 
L 210.803786 -195.538011 
L 206.514083 -195.538011 
L 202.22438 -195.538011 
L 197.934676 -195.538011 
L 193.644973 -195.538011 
L 189.355269 -195.538011 
L 185.065566 -195.538011 
L 180.775863 -195.538011 
L 176.486159 -195.538011 
L 172.196456 -195.538011 
L 167.906752 -195.538011 
L 163.617049 -195.538011 
L 159.327346 -195.538011 
L 155.037642 -195.538011 
L 150.747939 -195.538011 
L 146.458235 -195.538011 
L 142.168532 -195.538011 
L 137.878829 -195.538011 
L 133.589125 -195.538011 
L 129.299422 -195.538011 
L 125.009718 -195.538011 
L 120.720015 -195.538011 
L 116.430312 -195.538011 
L 112.140608 -195.538011 
L 107.850905 -195.538011 
L 103.561202 -195.538011 
L 99.271498 -195.538011 
L 94.981795 -195.538011 
L 90.692091 -195.538011 
z
" id="mf04a31f448" style="stroke:#9966ff;stroke-opacity:0.5;"/>
    </defs>
    <g clip-path="url(#p18eff0bc99)">
     <use style="fill:#9966ff;fill-opacity:0.5;stroke:#9966ff;stroke-opacity:0.5;" x="0" xlink:href="#mf04a31f448" y="581.789375"/>
    </g>
   </g>
   <g id="line2d_1">
    <path clip-path="url(#p18eff0bc99)" d="M 71.45439 386.139756 
L 75.728059 386.097671 
L 80.001728 386.041093 
L 84.275397 385.965561 
L 88.549065 385.865425 
L 92.822734 385.733596 
L 97.096403 385.561258 
L 101.370072 385.337545 
L 105.64374 385.049186 
L 109.917409 384.680129 
L 114.191078 384.211139 
L 118.464747 383.619407 
L 122.738415 382.878151 
L 127.012084 381.956269 
L 131.285753 380.818036 
L 135.559422 379.422899 
L 139.83309 377.725384 
L 144.106759 375.675164 
L 148.380428 373.217323 
L 152.654097 370.292845 
L 156.927765 366.839369 
L 161.201434 362.792237 
L 165.475103 358.085856 
L 169.748772 352.655377 
L 174.02244 346.438693 
L 178.296109 339.378736 
L 182.569778 331.42602 
L 186.843447 322.541377 
L 191.117116 312.698812 
L 195.390784 301.888357 
L 199.664453 290.118818 
L 203.938122 277.420291 
L 208.211791 263.846278 
L 212.485459 249.475302 
L 216.759128 234.41185 
L 221.032797 218.78654 
L 225.306466 202.755419 
L 229.580134 186.498312 
L 233.853803 170.216195 
L 238.127472 154.127617 
L 242.401141 138.464222 
L 246.674809 123.465474 
L 250.948478 109.372759 
L 255.222147 96.423034 
L 259.495816 84.84227 
L 263.769484 74.838931 
L 268.043153 66.597745 
L 272.316822 60.274044 
L 276.590491 55.988895 
L 280.864159 53.825242 
L 285.137828 53.825242 
L 289.411497 55.988895 
L 293.685166 60.274044 
L 297.958834 66.597745 
L 302.232503 74.838931 
L 306.506172 84.84227 
L 310.779841 96.423034 
L 315.05351 109.372759 
L 319.327178 123.465474 
L 323.600847 138.464222 
L 327.874516 154.127617 
L 332.148185 170.216195 
L 336.421853 186.498312 
L 340.695522 202.755419 
L 344.969191 218.78654 
L 349.24286 234.41185 
L 353.516528 249.475302 
L 357.790197 263.846278 
L 362.063866 277.420291 
L 366.337535 290.118818 
L 370.611203 301.888357 
L 374.884872 312.698812 
L 379.158541 322.541377 
L 383.43221 331.42602 
L 387.705878 339.378736 
L 391.979547 346.438693 
L 396.253216 352.655377 
L 400.526885 358.085856 
L 404.800553 362.792237 
L 409.074222 366.839369 
L 413.347891 370.292845 
L 417.62156 373.217323 
L 421.895229 375.675164 
L 426.168897 377.725384 
L 430.442566 379.422899 
L 434.716235 380.818036 
L 438.989904 381.956269 
L 443.263572 382.878151 
L 447.537241 383.619407 
L 451.81091 384.211139 
L 456.084579 384.680129 
L 460.358247 385.049186 
L 464.631916 385.337545 
L 468.905585 385.561258 
L 473.179254 385.733596 
L 477.452922 385.865425 
L 481.726591 385.965561 
L 486.00026 386.041093 
L 490.273929 386.097671 
L 494.547597 386.139756 
" style="fill:none;stroke:#ff6384;stroke-linecap:square;"/>
   </g>
   <g id="line2d_2">
    <path clip-path="url(#p18eff0bc99)" d="M 76.538019 386.139716 
L 80.810157 386.097616 
L 85.082295 386.041018 
L 89.354433 385.965459 
L 93.626571 385.865287 
L 97.898709 385.733411 
L 102.170847 385.561011 
L 106.442985 385.337218 
L 110.715123 385.048756 
L 114.987261 384.679566 
L 119.259399 384.210408 
L 123.531537 383.618463 
L 127.803675 382.876942 
L 132.075813 381.95473 
L 136.347951 380.816089 
L 140.620089 379.420452 
L 144.892226 377.722328 
L 149.164364 375.671374 
L 153.436502 373.212652 
L 157.70864 370.287126 
L 161.980778 366.832413 
L 166.252916 362.783831 
L 170.525054 358.075764 
L 174.797192 352.643338 
L 179.06933 346.424427 
L 183.341468 339.361941 
L 187.613606 331.406374 
L 191.885744 322.518548 
L 196.157882 312.672457 
L 200.43002 301.858127 
L 204.702158 290.084372 
L 208.974296 277.381294 
L 213.246434 263.802417 
L 217.518572 249.426292 
L 221.79071 234.357442 
L 226.062847 218.726533 
L 230.334985 202.689668 
L 234.607123 186.426735 
L 238.879261 170.138784 
L 243.151399 154.044442 
L 247.423537 138.375434 
L 251.695675 123.371312 
L 255.967813 109.273547 
L 260.239951 96.319182 
L 264.512089 84.734268 
L 268.784227 74.727344 
L 273.056365 66.483205 
L 277.328503 60.157239 
L 281.600641 55.870554 
L 285.872779 53.706126 
L 290.144917 53.706126 
L 294.417055 55.870554 
L 298.689193 60.157239 
L 302.961331 66.483205 
L 307.233468 74.727344 
L 311.505606 84.734268 
L 315.777744 96.319182 
L 320.049882 109.273547 
L 324.32202 123.371312 
L 328.594158 138.375434 
L 332.866296 154.044442 
L 337.138434 170.138784 
L 341.410572 186.426735 
L 345.68271 202.689668 
L 349.954848 218.726533 
L 354.226986 234.357442 
L 358.499124 249.426292 
L 362.771262 263.802417 
L 367.0434 277.381294 
L 371.315538 290.084372 
L 375.587676 301.858127 
L 379.859814 312.672457 
L 384.131952 322.518548 
L 388.404089 331.406374 
L 392.676227 339.361941 
L 396.948365 346.424427 
L 401.220503 352.643338 
L 405.492641 358.075764 
L 409.764779 362.783831 
L 414.036917 366.832413 
L 418.309055 370.287126 
L 422.581193 373.212652 
L 426.853331 375.671374 
L 431.125469 377.722328 
L 435.397607 379.420452 
L 439.669745 380.816089 
L 443.941883 381.95473 
L 448.214021 382.876942 
L 452.486159 383.618463 
L 456.758297 384.210408 
L 461.030435 384.679566 
L 465.302573 385.048756 
L 469.57471 385.337218 
L 473.846848 385.561011 
L 478.118986 385.733411 
L 482.391124 385.865287 
L 486.663262 385.965459 
L 490.9354 386.041018 
L 495.207538 386.097616 
L 499.479676 386.139716 
" style="fill:none;stroke:#36a2eb;stroke-linecap:square;"/>
   </g>
   <g id="line2d_3">
    <path clip-path="url(#p18eff0bc99)" d="M 58.827273 386.139371 
L 63.086251 386.097141 
L 67.34523 386.040368 
L 71.604209 385.964575 
L 75.863187 385.864094 
L 80.122166 385.73181 
L 84.381145 385.558878 
L 88.640123 385.334393 
L 92.899102 385.04504 
L 97.158081 384.674709 
L 101.417059 384.204102 
L 105.676038 383.610328 
L 109.935017 382.866516 
L 114.193995 381.941454 
L 118.452974 380.799296 
L 122.711953 379.399346 
L 126.970931 377.695976 
L 131.22991 375.638684 
L 135.488889 373.172366 
L 139.747867 370.2378 
L 144.006846 366.772413 
L 148.265825 362.711322 
L 152.524803 357.988708 
L 156.783782 352.539497 
L 161.042761 346.301371 
L 165.301739 339.217063 
L 169.560718 331.236916 
L 173.819697 322.321628 
L 178.078675 312.445114 
L 182.337654 301.597371 
L 186.596633 289.787238 
L 190.855611 277.04491 
L 195.11459 263.424078 
L 199.373569 249.003534 
L 203.632547 233.888124 
L 207.891526 218.208919 
L 212.150505 202.122504 
L 216.409483 185.809323 
L 220.668462 169.471045 
L 224.927441 153.326975 
L 229.186419 137.609553 
L 233.445398 122.559072 
L 237.704377 108.417748 
L 241.963355 95.423357 
L 246.222334 83.802649 
L 250.481313 73.764805 
L 254.740291 65.495194 
L 258.99927 59.149682 
L 263.258249 54.849752 
L 267.517228 52.678636 
L 271.776206 52.678636 
L 276.035185 54.849752 
L 280.294164 59.149682 
L 284.553142 65.495194 
L 288.812121 73.764805 
L 293.0711 83.802649 
L 297.330078 95.423357 
L 301.589057 108.417748 
L 305.848036 122.559072 
L 310.107014 137.609553 
L 314.365993 153.326975 
L 318.624972 169.471045 
L 322.88395 185.809323 
L 327.142929 202.122504 
L 331.401908 218.208919 
L 335.660886 233.888124 
L 339.919865 249.003534 
L 344.178844 263.424078 
L 348.437822 277.04491 
L 352.696801 289.787238 
L 356.95578 301.597371 
L 361.214758 312.445114 
L 365.473737 322.321628 
L 369.732716 331.236916 
L 373.991694 339.217063 
L 378.250673 346.301371 
L 382.509652 352.539497 
L 386.76863 357.988708 
L 391.027609 362.711322 
L 395.286588 366.772413 
L 399.545566 370.2378 
L 403.804545 373.172366 
L 408.063524 375.638684 
L 412.322502 377.695976 
L 416.581481 379.399346 
L 420.84046 380.799296 
L 425.099438 381.941454 
L 429.358417 382.866516 
L 433.617396 383.610328 
L 437.876374 384.204102 
L 442.135353 384.674709 
L 446.394332 385.04504 
L 450.65331 385.334393 
L 454.912289 385.558878 
L 459.171268 385.73181 
L 463.430246 385.864094 
L 467.689225 385.964575 
L 471.948204 386.040368 
L 476.207182 386.097141 
L 480.466161 386.139371 
" style="fill:none;stroke:#4bc0c0;stroke-linecap:square;"/>
   </g>
   <g id="line2d_4">
    <path clip-path="url(#p18eff0bc99)" d="M 90.692091 386.140173 
L 94.981795 386.098245 
L 99.271498 386.041879 
L 103.561202 385.966629 
L 107.850905 385.866867 
L 112.140608 385.735531 
L 116.430312 385.563838 
L 120.720015 385.340961 
L 125.009718 385.05368 
L 129.299422 384.686002 
L 133.589125 384.218765 
L 137.878829 383.629245 
L 142.168532 382.89076 
L 146.458235 381.972323 
L 150.747939 380.838346 
L 155.037642 379.448424 
L 159.327346 377.757253 
L 163.617049 375.714697 
L 167.906752 373.266043 
L 172.196456 370.352497 
L 176.486159 366.91193 
L 180.775863 362.879926 
L 185.065566 358.191137 
L 189.355269 352.780956 
L 193.644973 346.58751 
L 197.934676 339.553943 
L 202.22438 331.630953 
L 206.514083 322.779521 
L 210.803786 312.973747 
L 215.09349 302.2037 
L 219.383193 290.478156 
L 223.672897 277.827094 
L 227.9626 264.30382 
L 232.252303 249.986563 
L 236.542007 234.979416 
L 240.83171 219.412512 
L 245.121413 203.441315 
L 249.411117 187.244976 
L 253.70082 171.02372 
L 257.990524 154.995281 
L 262.280227 139.390434 
L 266.56993 124.447751 
L 270.859634 110.407714 
L 275.149337 97.506394 
L 279.439041 85.968918 
L 283.728744 76.00297 
L 288.018447 67.792589 
L 292.308151 61.492526 
L 296.597854 57.223395 
L 300.887558 55.06783 
L 305.177261 55.06783 
L 309.466964 57.223395 
L 313.756668 61.492526 
L 318.046371 67.792589 
L 322.336075 76.00297 
L 326.625778 85.968918 
L 330.915481 97.506394 
L 335.205185 110.407714 
L 339.494888 124.447751 
L 343.784592 139.390434 
L 348.074295 154.995281 
L 352.363998 171.02372 
L 356.653702 187.244976 
L 360.943405 203.441315 
L 365.233109 219.412512 
L 369.522812 234.979416 
L 373.812515 249.986563 
L 378.102219 264.30382 
L 382.391922 277.827094 
L 386.681625 290.478156 
L 390.971329 302.2037 
L 395.261032 312.973747 
L 399.550736 322.779521 
L 403.840439 331.630953 
L 408.130142 339.553943 
L 412.419846 346.58751 
L 416.709549 352.780956 
L 420.999253 358.191137 
L 425.288956 362.879926 
L 429.578659 366.91193 
L 433.868363 370.352497 
L 438.158066 373.266043 
L 442.44777 375.714697 
L 446.737473 377.757253 
L 451.027176 379.448424 
L 455.31688 380.838346 
L 459.606583 381.972323 
L 463.896287 382.89076 
L 468.18599 383.629245 
L 472.475693 384.218765 
L 476.765397 384.686002 
L 481.0551 385.05368 
L 485.344804 385.340961 
L 489.634507 385.563838 
L 493.92421 385.735531 
L 498.213914 385.866867 
L 502.503617 385.966629 
L 506.79332 386.041879 
L 511.083024 386.098245 
L 515.372727 386.140173 
" style="fill:none;stroke:#9966ff;stroke-linecap:square;"/>
   </g>
   <g id="patch_3">
    <path d="M 36 402.93 
L 538.2 402.93 
" style="fill:none;stroke:#000000;stroke-linecap:square;stroke-linejoin:miter;stroke-width:0.8;"/>
   </g>
   <g id="legend_1">
    <g id="patch_4">
     <path d="M 450.225313 129.3975 
L 528.4 129.3975 
Q 531.2 129.3975 531.2 126.5975 
L 531.2 45.8 
Q 531.2 43 528.4 43 
L 450.225313 43 
Q 447.425313 43 447.425313 45.8 
L 447.425313 126.5975 
Q 447.425313 129.3975 450.225313 129.3975 
z
" style="fill:#ffffff;opacity:0.8;stroke:#cccccc;stroke-linejoin:miter;"/>
    </g>
    <g id="patch_5">
     <path d="M 453.025313 59.237813 
L 481.025313 59.237813 
L 481.025313 49.437813 
L 453.025313 49.437813 
z
" style="fill:#ff6384;opacity:0.5;stroke:#ff6384;stroke-linejoin:miter;"/>
    </g>
    <g id="text_1">
     <!-- base -->
     <defs>
      <path d="M 48.6875 27.296875 
Q 48.6875 37.203125 44.609375 42.84375 
Q 40.53125 48.484375 33.40625 48.484375 
Q 26.265625 48.484375 22.1875 42.84375 
Q 18.109375 37.203125 18.109375 27.296875 
Q 18.109375 17.390625 22.1875 11.75 
Q 26.265625 6.109375 33.40625 6.109375 
Q 40.53125 6.109375 44.609375 11.75 
Q 48.6875 17.390625 48.6875 27.296875 
z
M 18.109375 46.390625 
Q 20.953125 51.265625 25.265625 53.625 
Q 29.59375 56 35.59375 56 
Q 45.5625 56 51.78125 48.09375 
Q 58.015625 40.1875 58.015625 27.296875 
Q 58.015625 14.40625 51.78125 6.484375 
Q 45.5625 -1.421875 35.59375 -1.421875 
Q 29.59375 -1.421875 25.265625 0.953125 
Q 20.953125 3.328125 18.109375 8.203125 
L 18.109375 0 
L 9.078125 0 
L 9.078125 75.984375 
L 18.109375 75.984375 
z
" id="DejaVuSans-98"/>
      <path d="M 34.28125 27.484375 
Q 23.390625 27.484375 19.1875 25 
Q 14.984375 22.515625 14.984375 16.5 
Q 14.984375 11.71875 18.140625 8.90625 
Q 21.296875 6.109375 26.703125 6.109375 
Q 34.1875 6.109375 38.703125 11.40625 
Q 43.21875 16.703125 43.21875 25.484375 
L 43.21875 27.484375 
z
M 52.203125 31.203125 
L 52.203125 0 
L 43.21875 0 
L 43.21875 8.296875 
Q 40.140625 3.328125 35.546875 0.953125 
Q 30.953125 -1.421875 24.3125 -1.421875 
Q 15.921875 -1.421875 10.953125 3.296875 
Q 6 8.015625 6 15.921875 
Q 6 25.140625 12.171875 29.828125 
Q 18.359375 34.515625 30.609375 34.515625 
L 43.21875 34.515625 
L 43.21875 35.40625 
Q 43.21875 41.609375 39.140625 45 
Q 35.0625 48.390625 27.6875 48.390625 
Q 23 48.390625 18.546875 47.265625 
Q 14.109375 46.140625 10.015625 43.890625 
L 10.015625 52.203125 
Q 14.9375 54.109375 19.578125 55.046875 
Q 24.21875 56 28.609375 56 
Q 40.484375 56 46.34375 49.84375 
Q 52.203125 43.703125 52.203125 31.203125 
z
" id="DejaVuSans-97"/>
      <path d="M 44.28125 53.078125 
L 44.28125 44.578125 
Q 40.484375 46.53125 36.375 47.5 
Q 32.28125 48.484375 27.875 48.484375 
Q 21.1875 48.484375 17.84375 46.4375 
Q 14.5 44.390625 14.5 40.28125 
Q 14.5 37.15625 16.890625 35.375 
Q 19.28125 33.59375 26.515625 31.984375 
L 29.59375 31.296875 
Q 39.15625 29.25 43.1875 25.515625 
Q 47.21875 21.78125 47.21875 15.09375 
Q 47.21875 7.46875 41.1875 3.015625 
Q 35.15625 -1.421875 24.609375 -1.421875 
Q 20.21875 -1.421875 15.453125 -0.5625 
Q 10.6875 0.296875 5.421875 2 
L 5.421875 11.28125 
Q 10.40625 8.6875 15.234375 7.390625 
Q 20.0625 6.109375 24.8125 6.109375 
Q 31.15625 6.109375 34.5625 8.28125 
Q 37.984375 10.453125 37.984375 14.40625 
Q 37.984375 18.0625 35.515625 20.015625 
Q 33.0625 21.96875 24.703125 23.78125 
L 21.578125 24.515625 
Q 13.234375 26.265625 9.515625 29.90625 
Q 5.8125 33.546875 5.8125 39.890625 
Q 5.8125 47.609375 11.28125 51.796875 
Q 16.75 56 26.8125 56 
Q 31.78125 56 36.171875 55.265625 
Q 40.578125 54.546875 44.28125 53.078125 
z
" id="DejaVuSans-115"/>
      <path d="M 56.203125 29.59375 
L 56.203125 25.203125 
L 14.890625 25.203125 
Q 15.484375 15.921875 20.484375 11.0625 
Q 25.484375 6.203125 34.421875 6.203125 
Q 39.59375 6.203125 44.453125 7.46875 
Q 49.3125 8.734375 54.109375 11.28125 
L 54.109375 2.78125 
Q 49.265625 0.734375 44.1875 -0.34375 
Q 39.109375 -1.421875 33.890625 -1.421875 
Q 20.796875 -1.421875 13.15625 6.1875 
Q 5.515625 13.8125 5.515625 26.8125 
Q 5.515625 40.234375 12.765625 48.109375 
Q 20.015625 56 32.328125 56 
Q 43.359375 56 49.78125 48.890625 
Q 56.203125 41.796875 56.203125 29.59375 
z
M 47.21875 32.234375 
Q 47.125 39.59375 43.09375 43.984375 
Q 39.0625 48.390625 32.421875 48.390625 
Q 24.90625 48.390625 20.390625 44.140625 
Q 15.875 39.890625 15.1875 32.171875 
z
" id="DejaVuSans-101"/>
     </defs>
     <g transform="translate(492.225313 59.237813)scale(0.14 -0.14)">
      <use xlink:href="#DejaVuSans-98"/>
      <use x="63.476562" xlink:href="#DejaVuSans-97"/>
      <use x="124.755859" xlink:href="#DejaVuSans-115"/>
      <use x="176.855469" xlink:href="#DejaVuSans-101"/>
     </g>
    </g>
    <g id="patch_6">
     <path d="M 453.025313 79.787188 
L 481.025313 79.787188 
L 481.025313 69.987188 
L 453.025313 69.987188 
z
" style="fill:#36a2eb;opacity:0.5;stroke:#36a2eb;stroke-linejoin:miter;"/>
    </g>
    <g id="text_2">
     <!-- fifth -->
     <defs>
      <path d="M 37.109375 75.984375 
L 37.109375 68.5 
L 28.515625 68.5 
Q 23.6875 68.5 21.796875 66.546875 
Q 19.921875 64.59375 19.921875 59.515625 
L 19.921875 54.6875 
L 34.71875 54.6875 
L 34.71875 47.703125 
L 19.921875 47.703125 
L 19.921875 0 
L 10.890625 0 
L 10.890625 47.703125 
L 2.296875 47.703125 
L 2.296875 54.6875 
L 10.890625 54.6875 
L 10.890625 58.5 
Q 10.890625 67.625 15.140625 71.796875 
Q 19.390625 75.984375 28.609375 75.984375 
z
" id="DejaVuSans-102"/>
      <path d="M 9.421875 54.6875 
L 18.40625 54.6875 
L 18.40625 0 
L 9.421875 0 
z
M 9.421875 75.984375 
L 18.40625 75.984375 
L 18.40625 64.59375 
L 9.421875 64.59375 
z
" id="DejaVuSans-105"/>
      <path d="M 18.3125 70.21875 
L 18.3125 54.6875 
L 36.8125 54.6875 
L 36.8125 47.703125 
L 18.3125 47.703125 
L 18.3125 18.015625 
Q 18.3125 11.328125 20.140625 9.421875 
Q 21.96875 7.515625 27.59375 7.515625 
L 36.8125 7.515625 
L 36.8125 0 
L 27.59375 0 
Q 17.1875 0 13.234375 3.875 
Q 9.28125 7.765625 9.28125 18.015625 
L 9.28125 47.703125 
L 2.6875 47.703125 
L 2.6875 54.6875 
L 9.28125 54.6875 
L 9.28125 70.21875 
z
" id="DejaVuSans-116"/>
      <path d="M 54.890625 33.015625 
L 54.890625 0 
L 45.90625 0 
L 45.90625 32.71875 
Q 45.90625 40.484375 42.875 44.328125 
Q 39.84375 48.1875 33.796875 48.1875 
Q 26.515625 48.1875 22.3125 43.546875 
Q 18.109375 38.921875 18.109375 30.90625 
L 18.109375 0 
L 9.078125 0 
L 9.078125 75.984375 
L 18.109375 75.984375 
L 18.109375 46.1875 
Q 21.34375 51.125 25.703125 53.5625 
Q 30.078125 56 35.796875 56 
Q 45.21875 56 50.046875 50.171875 
Q 54.890625 44.34375 54.890625 33.015625 
z
" id="DejaVuSans-104"/>
     </defs>
     <g transform="translate(492.225313 79.787188)scale(0.14 -0.14)">
      <use xlink:href="#DejaVuSans-102"/>
      <use x="35.205078" xlink:href="#DejaVuSans-105"/>
      <use x="62.988281" xlink:href="#DejaVuSans-102"/>
      <use x="98.177734" xlink:href="#DejaVuSans-116"/>
      <use x="137.386719" xlink:href="#DejaVuSans-104"/>
     </g>
    </g>
    <g id="patch_7">
     <path d="M 453.025313 100.336563 
L 481.025313 100.336563 
L 481.025313 90.536563 
L 453.025313 90.536563 
z
" style="fill:#4bc0c0;opacity:0.5;stroke:#4bc0c0;stroke-linejoin:miter;"/>
    </g>
    <g id="text_3">
     <!-- mid -->
     <defs>
      <path d="M 52 44.1875 
Q 55.375 50.25 60.0625 53.125 
Q 64.75 56 71.09375 56 
Q 79.640625 56 84.28125 50.015625 
Q 88.921875 44.046875 88.921875 33.015625 
L 88.921875 0 
L 79.890625 0 
L 79.890625 32.71875 
Q 79.890625 40.578125 77.09375 44.375 
Q 74.3125 48.1875 68.609375 48.1875 
Q 61.625 48.1875 57.5625 43.546875 
Q 53.515625 38.921875 53.515625 30.90625 
L 53.515625 0 
L 44.484375 0 
L 44.484375 32.71875 
Q 44.484375 40.625 41.703125 44.40625 
Q 38.921875 48.1875 33.109375 48.1875 
Q 26.21875 48.1875 22.15625 43.53125 
Q 18.109375 38.875 18.109375 30.90625 
L 18.109375 0 
L 9.078125 0 
L 9.078125 54.6875 
L 18.109375 54.6875 
L 18.109375 46.1875 
Q 21.1875 51.21875 25.484375 53.609375 
Q 29.78125 56 35.6875 56 
Q 41.65625 56 45.828125 52.96875 
Q 50 49.953125 52 44.1875 
z
" id="DejaVuSans-109"/>
      <path d="M 45.40625 46.390625 
L 45.40625 75.984375 
L 54.390625 75.984375 
L 54.390625 0 
L 45.40625 0 
L 45.40625 8.203125 
Q 42.578125 3.328125 38.25 0.953125 
Q 33.9375 -1.421875 27.875 -1.421875 
Q 17.96875 -1.421875 11.734375 6.484375 
Q 5.515625 14.40625 5.515625 27.296875 
Q 5.515625 40.1875 11.734375 48.09375 
Q 17.96875 56 27.875 56 
Q 33.9375 56 38.25 53.625 
Q 42.578125 51.265625 45.40625 46.390625 
z
M 14.796875 27.296875 
Q 14.796875 17.390625 18.875 11.75 
Q 22.953125 6.109375 30.078125 6.109375 
Q 37.203125 6.109375 41.296875 11.75 
Q 45.40625 17.390625 45.40625 27.296875 
Q 45.40625 37.203125 41.296875 42.84375 
Q 37.203125 48.484375 30.078125 48.484375 
Q 22.953125 48.484375 18.875 42.84375 
Q 14.796875 37.203125 14.796875 27.296875 
z
" id="DejaVuSans-100"/>
     </defs>
     <g transform="translate(492.225313 100.336563)scale(0.14 -0.14)">
      <use xlink:href="#DejaVuSans-109"/>
      <use x="97.412109" xlink:href="#DejaVuSans-105"/>
      <use x="125.195312" xlink:href="#DejaVuSans-100"/>
     </g>
    </g>
    <g id="patch_8">
     <path d="M 453.025313 120.885938 
L 481.025313 120.885938 
L 481.025313 111.085938 
L 453.025313 111.085938 
z
" style="fill:#9966ff;opacity:0.5;stroke:#9966ff;stroke-linejoin:miter;"/>
    </g>
    <g id="text_4">
     <!-- right -->
     <defs>
      <path d="M 41.109375 46.296875 
Q 39.59375 47.171875 37.8125 47.578125 
Q 36.03125 48 33.890625 48 
Q 26.265625 48 22.1875 43.046875 
Q 18.109375 38.09375 18.109375 28.8125 
L 18.109375 0 
L 9.078125 0 
L 9.078125 54.6875 
L 18.109375 54.6875 
L 18.109375 46.1875 
Q 20.953125 51.171875 25.484375 53.578125 
Q 30.03125 56 36.53125 56 
Q 37.453125 56 38.578125 55.875 
Q 39.703125 55.765625 41.0625 55.515625 
z
" id="DejaVuSans-114"/>
      <path d="M 45.40625 27.984375 
Q 45.40625 37.75 41.375 43.109375 
Q 37.359375 48.484375 30.078125 48.484375 
Q 22.859375 48.484375 18.828125 43.109375 
Q 14.796875 37.75 14.796875 27.984375 
Q 14.796875 18.265625 18.828125 12.890625 
Q 22.859375 7.515625 30.078125 7.515625 
Q 37.359375 7.515625 41.375 12.890625 
Q 45.40625 18.265625 45.40625 27.984375 
z
M 54.390625 6.78125 
Q 54.390625 -7.171875 48.1875 -13.984375 
Q 42 -20.796875 29.203125 -20.796875 
Q 24.46875 -20.796875 20.265625 -20.09375 
Q 16.0625 -19.390625 12.109375 -17.921875 
L 12.109375 -9.1875 
Q 16.0625 -11.328125 19.921875 -12.34375 
Q 23.78125 -13.375 27.78125 -13.375 
Q 36.625 -13.375 41.015625 -8.765625 
Q 45.40625 -4.15625 45.40625 5.171875 
L 45.40625 9.625 
Q 42.625 4.78125 38.28125 2.390625 
Q 33.9375 0 27.875 0 
Q 17.828125 0 11.671875 7.65625 
Q 5.515625 15.328125 5.515625 27.984375 
Q 5.515625 40.671875 11.671875 48.328125 
Q 17.828125 56 27.875 56 
Q 33.9375 56 38.28125 53.609375 
Q 42.625 51.21875 45.40625 46.390625 
L 45.40625 54.6875 
L 54.390625 54.6875 
z
" id="DejaVuSans-103"/>
     </defs>
     <g transform="translate(492.225313 120.885938)scale(0.14 -0.14)">
      <use xlink:href="#DejaVuSans-114"/>
      <use x="41.113281" xlink:href="#DejaVuSans-105"/>
      <use x="68.896484" xlink:href="#DejaVuSans-103"/>
      <use x="132.373047" xlink:href="#DejaVuSans-104"/>
      <use x="195.751953" xlink:href="#DejaVuSans-116"/>
     </g>
    </g>
   </g>
  </g>
  <g id="axes_2">
   <g id="patch_9">
    <path d="M 36 525.24 
L 538.2 525.24 
L 538.2 402.93 
L 36 402.93 
z
" style="fill:none;"/>
   </g>
   <g id="patch_10">
    <path clip-path="url(#p72d093bd97)" d="M 179.343158 519.680455 
L 386.65883 519.680455 
L 386.65883 503.796039 
L 179.343158 503.796039 
z
" style="fill:#ff6384;opacity:0.5;"/>
   </g>
   <g id="patch_11">
    <path clip-path="url(#p72d093bd97)" d="M 184.388142 487.911623 
L 391.629554 487.911623 
L 391.629554 472.027208 
L 184.388142 472.027208 
z
" style="fill:#36a2eb;opacity:0.5;"/>
   </g>
   <g id="patch_12">
    <path clip-path="url(#p72d093bd97)" d="M 166.345189 456.142792 
L 372.948244 456.142792 
L 372.948244 440.258377 
L 166.345189 440.258377 
z
" style="fill:#4bc0c0;opacity:0.5;"/>
   </g>
   <g id="patch_13">
    <path clip-path="url(#p72d093bd97)" d="M 198.985653 424.373961 
L 407.079165 424.373961 
L 407.079165 408.489545 
L 198.985653 408.489545 
z
" style="fill:#9966ff;opacity:0.5;"/>
   </g>
   <g id="matplotlib.axis_1">
    <g id="xtick_1">
     <g id="line2d_5">
      <defs>
       <path d="M 0 0 
L 0 3.5 
" id="m902c8e85b7" style="stroke:#000000;stroke-width:0.8;"/>
      </defs>
      <g>
       <use style="stroke:#000000;stroke-width:0.8;" x="62.655424" xlink:href="#m902c8e85b7" y="525.24"/>
      </g>
     </g>
     <g id="text_5">
      <!-- 6.0 -->
      <defs>
       <path d="M 33.015625 40.375 
Q 26.375 40.375 22.484375 35.828125 
Q 18.609375 31.296875 18.609375 23.390625 
Q 18.609375 15.53125 22.484375 10.953125 
Q 26.375 6.390625 33.015625 6.390625 
Q 39.65625 6.390625 43.53125 10.953125 
Q 47.40625 15.53125 47.40625 23.390625 
Q 47.40625 31.296875 43.53125 35.828125 
Q 39.65625 40.375 33.015625 40.375 
z
M 52.59375 71.296875 
L 52.59375 62.3125 
Q 48.875 64.0625 45.09375 64.984375 
Q 41.3125 65.921875 37.59375 65.921875 
Q 27.828125 65.921875 22.671875 59.328125 
Q 17.53125 52.734375 16.796875 39.40625 
Q 19.671875 43.65625 24.015625 45.921875 
Q 28.375 48.1875 33.59375 48.1875 
Q 44.578125 48.1875 50.953125 41.515625 
Q 57.328125 34.859375 57.328125 23.390625 
Q 57.328125 12.15625 50.6875 5.359375 
Q 44.046875 -1.421875 33.015625 -1.421875 
Q 20.359375 -1.421875 13.671875 8.265625 
Q 6.984375 17.96875 6.984375 36.375 
Q 6.984375 53.65625 15.1875 63.9375 
Q 23.390625 74.21875 37.203125 74.21875 
Q 40.921875 74.21875 44.703125 73.484375 
Q 48.484375 72.75 52.59375 71.296875 
z
" id="DejaVuSans-54"/>
       <path d="M 10.6875 12.40625 
L 21 12.40625 
L 21 0 
L 10.6875 0 
z
" id="DejaVuSans-46"/>
       <path d="M 31.78125 66.40625 
Q 24.171875 66.40625 20.328125 58.90625 
Q 16.5 51.421875 16.5 36.375 
Q 16.5 21.390625 20.328125 13.890625 
Q 24.171875 6.390625 31.78125 6.390625 
Q 39.453125 6.390625 43.28125 13.890625 
Q 47.125 21.390625 47.125 36.375 
Q 47.125 51.421875 43.28125 58.90625 
Q 39.453125 66.40625 31.78125 66.40625 
z
M 31.78125 74.21875 
Q 44.046875 74.21875 50.515625 64.515625 
Q 56.984375 54.828125 56.984375 36.375 
Q 56.984375 17.96875 50.515625 8.265625 
Q 44.046875 -1.421875 31.78125 -1.421875 
Q 19.53125 -1.421875 13.0625 8.265625 
Q 6.59375 17.96875 6.59375 36.375 
Q 6.59375 54.828125 13.0625 64.515625 
Q 19.53125 74.21875 31.78125 74.21875 
z
" id="DejaVuSans-48"/>
      </defs>
      <g transform="translate(51.523236 542.877813)scale(0.14 -0.14)">
       <use xlink:href="#DejaVuSans-54"/>
       <use x="63.623047" xlink:href="#DejaVuSans-46"/>
       <use x="95.410156" xlink:href="#DejaVuSans-48"/>
      </g>
     </g>
    </g>
    <g id="xtick_2">
     <g id="line2d_6">
      <g>
       <use style="stroke:#000000;stroke-width:0.8;" x="146.119655" xlink:href="#m902c8e85b7" y="525.24"/>
      </g>
     </g>
     <g id="text_6">
      <!-- 6.5 -->
      <defs>
       <path d="M 10.796875 72.90625 
L 49.515625 72.90625 
L 49.515625 64.59375 
L 19.828125 64.59375 
L 19.828125 46.734375 
Q 21.96875 47.46875 24.109375 47.828125 
Q 26.265625 48.1875 28.421875 48.1875 
Q 40.625 48.1875 47.75 41.5 
Q 54.890625 34.8125 54.890625 23.390625 
Q 54.890625 11.625 47.5625 5.09375 
Q 40.234375 -1.421875 26.90625 -1.421875 
Q 22.3125 -1.421875 17.546875 -0.640625 
Q 12.796875 0.140625 7.71875 1.703125 
L 7.71875 11.625 
Q 12.109375 9.234375 16.796875 8.0625 
Q 21.484375 6.890625 26.703125 6.890625 
Q 35.15625 6.890625 40.078125 11.328125 
Q 45.015625 15.765625 45.015625 23.390625 
Q 45.015625 31 40.078125 35.4375 
Q 35.15625 39.890625 26.703125 39.890625 
Q 22.75 39.890625 18.8125 39.015625 
Q 14.890625 38.140625 10.796875 36.28125 
z
" id="DejaVuSans-53"/>
      </defs>
      <g transform="translate(134.987467 542.877813)scale(0.14 -0.14)">
       <use xlink:href="#DejaVuSans-54"/>
       <use x="63.623047" xlink:href="#DejaVuSans-46"/>
       <use x="95.410156" xlink:href="#DejaVuSans-53"/>
      </g>
     </g>
    </g>
    <g id="xtick_3">
     <g id="line2d_7">
      <g>
       <use style="stroke:#000000;stroke-width:0.8;" x="229.583886" xlink:href="#m902c8e85b7" y="525.24"/>
      </g>
     </g>
     <g id="text_7">
      <!-- 7.0 -->
      <defs>
       <path d="M 8.203125 72.90625 
L 55.078125 72.90625 
L 55.078125 68.703125 
L 28.609375 0 
L 18.3125 0 
L 43.21875 64.59375 
L 8.203125 64.59375 
z
" id="DejaVuSans-55"/>
      </defs>
      <g transform="translate(218.451698 542.877813)scale(0.14 -0.14)">
       <use xlink:href="#DejaVuSans-55"/>
       <use x="63.623047" xlink:href="#DejaVuSans-46"/>
       <use x="95.410156" xlink:href="#DejaVuSans-48"/>
      </g>
     </g>
    </g>
    <g id="xtick_4">
     <g id="line2d_8">
      <g>
       <use style="stroke:#000000;stroke-width:0.8;" x="313.048117" xlink:href="#m902c8e85b7" y="525.24"/>
      </g>
     </g>
     <g id="text_8">
      <!-- 7.5 -->
      <g transform="translate(301.91593 542.877813)scale(0.14 -0.14)">
       <use xlink:href="#DejaVuSans-55"/>
       <use x="63.623047" xlink:href="#DejaVuSans-46"/>
       <use x="95.410156" xlink:href="#DejaVuSans-53"/>
      </g>
     </g>
    </g>
    <g id="xtick_5">
     <g id="line2d_9">
      <g>
       <use style="stroke:#000000;stroke-width:0.8;" x="396.512348" xlink:href="#m902c8e85b7" y="525.24"/>
      </g>
     </g>
     <g id="text_9">
      <!-- 8.0 -->
      <defs>
       <path d="M 31.78125 34.625 
Q 24.75 34.625 20.71875 30.859375 
Q 16.703125 27.09375 16.703125 20.515625 
Q 16.703125 13.921875 20.71875 10.15625 
Q 24.75 6.390625 31.78125 6.390625 
Q 38.8125 6.390625 42.859375 10.171875 
Q 46.921875 13.96875 46.921875 20.515625 
Q 46.921875 27.09375 42.890625 30.859375 
Q 38.875 34.625 31.78125 34.625 
z
M 21.921875 38.8125 
Q 15.578125 40.375 12.03125 44.71875 
Q 8.5 49.078125 8.5 55.328125 
Q 8.5 64.0625 14.71875 69.140625 
Q 20.953125 74.21875 31.78125 74.21875 
Q 42.671875 74.21875 48.875 69.140625 
Q 55.078125 64.0625 55.078125 55.328125 
Q 55.078125 49.078125 51.53125 44.71875 
Q 48 40.375 41.703125 38.8125 
Q 48.828125 37.15625 52.796875 32.3125 
Q 56.78125 27.484375 56.78125 20.515625 
Q 56.78125 9.90625 50.3125 4.234375 
Q 43.84375 -1.421875 31.78125 -1.421875 
Q 19.734375 -1.421875 13.25 4.234375 
Q 6.78125 9.90625 6.78125 20.515625 
Q 6.78125 27.484375 10.78125 32.3125 
Q 14.796875 37.15625 21.921875 38.8125 
z
M 18.3125 54.390625 
Q 18.3125 48.734375 21.84375 45.5625 
Q 25.390625 42.390625 31.78125 42.390625 
Q 38.140625 42.390625 41.71875 45.5625 
Q 45.3125 48.734375 45.3125 54.390625 
Q 45.3125 60.0625 41.71875 63.234375 
Q 38.140625 66.40625 31.78125 66.40625 
Q 25.390625 66.40625 21.84375 63.234375 
Q 18.3125 60.0625 18.3125 54.390625 
z
" id="DejaVuSans-56"/>
      </defs>
      <g transform="translate(385.380161 542.877813)scale(0.14 -0.14)">
       <use xlink:href="#DejaVuSans-56"/>
       <use x="63.623047" xlink:href="#DejaVuSans-46"/>
       <use x="95.410156" xlink:href="#DejaVuSans-48"/>
      </g>
     </g>
    </g>
    <g id="xtick_6">
     <g id="line2d_10">
      <g>
       <use style="stroke:#000000;stroke-width:0.8;" x="479.976579" xlink:href="#m902c8e85b7" y="525.24"/>
      </g>
     </g>
     <g id="text_10">
      <!-- 8.5 -->
      <g transform="translate(468.844392 542.877813)scale(0.14 -0.14)">
       <use xlink:href="#DejaVuSans-56"/>
       <use x="63.623047" xlink:href="#DejaVuSans-46"/>
       <use x="95.410156" xlink:href="#DejaVuSans-53"/>
      </g>
     </g>
    </g>
   </g>
   <g id="line2d_11">
    <path clip-path="url(#p72d093bd97)" d="M 283.000994 525.24 
L 283.000994 402.93 
" style="fill:none;stroke:#ff6384;stroke-dasharray:5.55,2.4;stroke-dashoffset:0;stroke-opacity:0.8;stroke-width:1.5;"/>
   </g>
   <g id="line2d_12">
    <path clip-path="url(#p72d093bd97)" d="M 288.008848 525.24 
L 288.008848 402.93 
" style="fill:none;stroke:#36a2eb;stroke-dasharray:5.55,2.4;stroke-dashoffset:0;stroke-opacity:0.8;stroke-width:1.5;"/>
   </g>
   <g id="line2d_13">
    <path clip-path="url(#p72d093bd97)" d="M 269.646717 525.24 
L 269.646717 402.93 
" style="fill:none;stroke:#4bc0c0;stroke-dasharray:5.55,2.4;stroke-dashoffset:0;stroke-opacity:0.8;stroke-width:1.5;"/>
   </g>
   <g id="line2d_14">
    <path clip-path="url(#p72d093bd97)" d="M 303.032409 525.24 
L 303.032409 402.93 
" style="fill:none;stroke:#9966ff;stroke-dasharray:5.55,2.4;stroke-dashoffset:0;stroke-opacity:0.8;stroke-width:1.5;"/>
   </g>
   <g id="patch_14">
    <path d="M 36 525.24 
L 538.2 525.24 
" style="fill:none;stroke:#000000;stroke-linecap:square;stroke-linejoin:miter;stroke-width:0.8;"/>
   </g>
  </g>
 </g>
 <defs>
  <clipPath id="p18eff0bc99">
   <rect height="366.93" width="502.2" x="36" y="36"/>
  </clipPath>
  <clipPath id="p72d093bd97">
   <rect height="122.31" width="502.2" x="36" y="402.93"/>
  </clipPath>
 </defs>
</svg>
