<?xml version="1.0" encoding="utf-8" standalone="no"?>
<!DOCTYPE svg PUBLIC "-//W3C//DTD SVG 1.1//EN"
  "http://www.w3.org/Graphics/SVG/1.1/DTD/svg11.dtd">
<!-- Created with matplotlib (https://matplotlib.org/) -->
<svg height="581.789375pt" version="1.1" viewBox="0 0 588.436527 581.789375" width="588.436527pt" xmlns="http://www.w3.org/2000/svg" xmlns:xlink="http://www.w3.org/1999/xlink">
 <defs>
  <style type="text/css">
*{stroke-linecap:butt;stroke-linejoin:round;}
  </style>
 </defs>
 <g id="figure_1">
  <g id="patch_1">
   <path d="M 0 581.789375 
L 588.436527 581.789375 
L 588.436527 0 
L 0 0 
z
" style="fill:none;"/>
  </g>
  <g id="axes_1">
   <g id="patch_2">
    <path d="M 36 402.93 
L 538.2 402.93 
L 538.2 36 
L 36 36 
z
" style="fill:none;"/>
   </g>
   <g id="PolyCollection_1">
    <defs>
     <path d="M 66.875759 -195.538011 
L 66.875759 -195.650004 
L 69.764146 -195.692234 
L 72.652532 -195.749007 
L 75.540919 -195.8248 
L 78.429305 -195.925281 
L 81.317692 -196.057565 
L 84.206078 -196.230497 
L 87.094465 -196.454982 
L 89.982851 -196.744335 
L 92.871238 -197.114666 
L 95.759624 -197.585273 
L 98.648011 -198.179047 
L 101.536397 -198.922859 
L 104.424783 -199.847921 
L 107.31317 -200.990079 
L 110.201556 -202.390029 
L 113.089943 -204.093399 
L 115.978329 -206.150691 
L 118.866716 -208.617009 
L 121.755102 -211.551575 
L 124.643489 -215.016962 
L 127.531875 -219.078053 
L 130.420262 -223.800667 
L 133.308648 -229.249878 
L 136.197035 -235.488004 
L 139.085421 -242.572312 
L 141.973808 -250.552459 
L 144.862194 -259.467747 
L 147.750581 -269.344261 
L 150.638967 -280.192004 
L 153.527354 -292.002137 
L 156.41574 -304.744465 
L 159.304127 -318.365297 
L 162.192513 -332.785841 
L 165.080899 -347.901251 
L 167.969286 -363.580456 
L 170.857672 -379.666871 
L 173.746059 -395.980052 
L 176.634445 -412.31833 
L 179.522832 -428.4624 
L 182.411218 -444.179822 
L 185.299605 -459.230303 
L 188.187991 -473.371627 
L 191.076378 -486.366018 
L 193.964764 -497.986726 
L 196.853151 -508.02457 
L 199.741537 -516.294181 
L 202.629924 -522.639693 
L 205.51831 -526.939623 
L 208.406697 -529.110739 
L 211.295083 -529.110739 
L 214.18347 -526.939623 
L 217.071856 -522.639693 
L 219.960242 -516.294181 
L 222.848629 -508.02457 
L 225.737015 -497.986726 
L 228.625402 -486.366018 
L 231.513788 -473.371627 
L 234.402175 -459.230303 
L 237.290561 -444.179822 
L 240.178948 -428.4624 
L 243.067334 -412.31833 
L 245.955721 -395.980052 
L 248.844107 -379.666871 
L 251.732494 -363.580456 
L 254.62088 -347.901251 
L 257.509267 -332.785841 
L 260.397653 -318.365297 
L 263.28604 -304.744465 
L 266.174426 -292.002137 
L 269.062813 -280.192004 
L 271.951199 -269.344261 
L 274.839585 -259.467747 
L 277.727972 -250.552459 
L 280.616358 -242.572312 
L 283.504745 -235.488004 
L 286.393131 -229.249878 
L 289.281518 -223.800667 
L 292.169904 -219.078053 
L 295.058291 -215.016962 
L 297.946677 -211.551575 
L 300.835064 -208.617009 
L 303.72345 -206.150691 
L 306.611837 -204.093399 
L 309.500223 -202.390029 
L 312.38861 -200.990079 
L 315.276996 -199.847921 
L 318.165383 -198.922859 
L 321.053769 -198.179047 
L 323.942156 -197.585273 
L 326.830542 -197.114666 
L 329.718928 -196.744335 
L 332.607315 -196.454982 
L 335.495701 -196.230497 
L 338.384088 -196.057565 
L 341.272474 -195.925281 
L 344.160861 -195.8248 
L 347.049247 -195.749007 
L 349.937634 -195.692234 
L 352.82602 -195.650004 
L 352.82602 -195.538011 
L 352.82602 -195.538011 
L 349.937634 -195.538011 
L 347.049247 -195.538011 
L 344.160861 -195.538011 
L 341.272474 -195.538011 
L 338.384088 -195.538011 
L 335.495701 -195.538011 
L 332.607315 -195.538011 
L 329.718928 -195.538011 
L 326.830542 -195.538011 
L 323.942156 -195.538011 
L 321.053769 -195.538011 
L 318.165383 -195.538011 
L 315.276996 -195.538011 
L 312.38861 -195.538011 
L 309.500223 -195.538011 
L 306.611837 -195.538011 
L 303.72345 -195.538011 
L 300.835064 -195.538011 
L 297.946677 -195.538011 
L 295.058291 -195.538011 
L 292.169904 -195.538011 
L 289.281518 -195.538011 
L 286.393131 -195.538011 
L 283.504745 -195.538011 
L 280.616358 -195.538011 
L 277.727972 -195.538011 
L 274.839585 -195.538011 
L 271.951199 -195.538011 
L 269.062813 -195.538011 
L 266.174426 -195.538011 
L 263.28604 -195.538011 
L 260.397653 -195.538011 
L 257.509267 -195.538011 
L 254.62088 -195.538011 
L 251.732494 -195.538011 
L 248.844107 -195.538011 
L 245.955721 -195.538011 
L 243.067334 -195.538011 
L 240.178948 -195.538011 
L 237.290561 -195.538011 
L 234.402175 -195.538011 
L 231.513788 -195.538011 
L 228.625402 -195.538011 
L 225.737015 -195.538011 
L 222.848629 -195.538011 
L 219.960242 -195.538011 
L 217.071856 -195.538011 
L 214.18347 -195.538011 
L 211.295083 -195.538011 
L 208.406697 -195.538011 
L 205.51831 -195.538011 
L 202.629924 -195.538011 
L 199.741537 -195.538011 
L 196.853151 -195.538011 
L 193.964764 -195.538011 
L 191.076378 -195.538011 
L 188.187991 -195.538011 
L 185.299605 -195.538011 
L 182.411218 -195.538011 
L 179.522832 -195.538011 
L 176.634445 -195.538011 
L 173.746059 -195.538011 
L 170.857672 -195.538011 
L 167.969286 -195.538011 
L 165.080899 -195.538011 
L 162.192513 -195.538011 
L 159.304127 -195.538011 
L 156.41574 -195.538011 
L 153.527354 -195.538011 
L 150.638967 -195.538011 
L 147.750581 -195.538011 
L 144.862194 -195.538011 
L 141.973808 -195.538011 
L 139.085421 -195.538011 
L 136.197035 -195.538011 
L 133.308648 -195.538011 
L 130.420262 -195.538011 
L 127.531875 -195.538011 
L 124.643489 -195.538011 
L 121.755102 -195.538011 
L 118.866716 -195.538011 
L 115.978329 -195.538011 
L 113.089943 -195.538011 
L 110.201556 -195.538011 
L 107.31317 -195.538011 
L 104.424783 -195.538011 
L 101.536397 -195.538011 
L 98.648011 -195.538011 
L 95.759624 -195.538011 
L 92.871238 -195.538011 
L 89.982851 -195.538011 
L 87.094465 -195.538011 
L 84.206078 -195.538011 
L 81.317692 -195.538011 
L 78.429305 -195.538011 
L 75.540919 -195.538011 
L 72.652532 -195.538011 
L 69.764146 -195.538011 
L 66.875759 -195.538011 
z
" id="m196739d9fb" style="stroke:#ff6384;stroke-opacity:0.5;"/>
    </defs>
    <g clip-path="url(#pa869d73676)">
     <use style="fill:#ff6384;fill-opacity:0.5;stroke:#ff6384;stroke-opacity:0.5;" x="0" xlink:href="#m196739d9fb" y="581.789375"/>
    </g>
   </g>
   <g id="PolyCollection_2">
    <defs>
     <path d="M 135.934063 -195.538011 
L 135.934063 -195.63269 
L 139.350644 -195.668392 
L 142.767224 -195.716388 
L 146.183804 -195.780463 
L 149.600384 -195.865411 
L 153.016965 -195.977243 
L 156.433545 -196.123441 
L 159.850125 -196.313221 
L 163.266705 -196.557841 
L 166.683286 -196.87092 
L 170.099866 -197.268772 
L 173.516446 -197.77075 
L 176.933026 -198.399571 
L 180.349607 -199.181621 
L 183.766187 -200.147205 
L 187.182767 -201.330726 
L 190.599347 -202.77076 
L 194.015927 -204.51 
L 197.432508 -206.595033 
L 200.849088 -209.075922 
L 204.265668 -212.005571 
L 207.682248 -215.438828 
L 211.098829 -219.43134 
L 214.515409 -224.038117 
L 217.931989 -229.311847 
L 221.348569 -235.300941 
L 224.76515 -242.047379 
L 228.18173 -249.584388 
L 231.59831 -257.934021 
L 235.01489 -267.104733 
L 238.431471 -277.089053 
L 241.848051 -287.861452 
L 245.264631 -299.376542 
L 248.681211 -311.56771 
L 252.097791 -324.34632 
L 255.514372 -337.601563 
L 258.930952 -351.201063 
L 262.347532 -364.992273 
L 265.764112 -378.804698 
L 269.180693 -392.45294 
L 272.597273 -405.740492 
L 276.013853 -418.464211 
L 279.430433 -430.419326 
L 282.847014 -441.40482 
L 286.263594 -451.229 
L 289.680174 -459.715021 
L 293.096754 -466.706173 
L 296.513335 -472.070687 
L 299.929915 -475.70586 
L 303.346495 -477.541327 
L 306.763075 -477.541327 
L 310.179655 -475.70586 
L 313.596236 -472.070687 
L 317.012816 -466.706173 
L 320.429396 -459.715021 
L 323.845976 -451.229 
L 327.262557 -441.40482 
L 330.679137 -430.419326 
L 334.095717 -418.464211 
L 337.512297 -405.740492 
L 340.928878 -392.45294 
L 344.345458 -378.804698 
L 347.762038 -364.992273 
L 351.178618 -351.201063 
L 354.595199 -337.601563 
L 358.011779 -324.34632 
L 361.428359 -311.56771 
L 364.844939 -299.376542 
L 368.26152 -287.861452 
L 371.6781 -277.089053 
L 375.09468 -267.104733 
L 378.51126 -257.934021 
L 381.92784 -249.584388 
L 385.344421 -242.047379 
L 388.761001 -235.300941 
L 392.177581 -229.311847 
L 395.594161 -224.038117 
L 399.010742 -219.43134 
L 402.427322 -215.438828 
L 405.843902 -212.005571 
L 409.260482 -209.075922 
L 412.677063 -206.595033 
L 416.093643 -204.51 
L 419.510223 -202.77076 
L 422.926803 -201.330726 
L 426.343384 -200.147205 
L 429.759964 -199.181621 
L 433.176544 -198.399571 
L 436.593124 -197.77075 
L 440.009704 -197.268772 
L 443.426285 -196.87092 
L 446.842865 -196.557841 
L 450.259445 -196.313221 
L 453.676025 -196.123441 
L 457.092606 -195.977243 
L 460.509186 -195.865411 
L 463.925766 -195.780463 
L 467.342346 -195.716388 
L 470.758927 -195.668392 
L 474.175507 -195.63269 
L 474.175507 -195.538011 
L 474.175507 -195.538011 
L 470.758927 -195.538011 
L 467.342346 -195.538011 
L 463.925766 -195.538011 
L 460.509186 -195.538011 
L 457.092606 -195.538011 
L 453.676025 -195.538011 
L 450.259445 -195.538011 
L 446.842865 -195.538011 
L 443.426285 -195.538011 
L 440.009704 -195.538011 
L 436.593124 -195.538011 
L 433.176544 -195.538011 
L 429.759964 -195.538011 
L 426.343384 -195.538011 
L 422.926803 -195.538011 
L 419.510223 -195.538011 
L 416.093643 -195.538011 
L 412.677063 -195.538011 
L 409.260482 -195.538011 
L 405.843902 -195.538011 
L 402.427322 -195.538011 
L 399.010742 -195.538011 
L 395.594161 -195.538011 
L 392.177581 -195.538011 
L 388.761001 -195.538011 
L 385.344421 -195.538011 
L 381.92784 -195.538011 
L 378.51126 -195.538011 
L 375.09468 -195.538011 
L 371.6781 -195.538011 
L 368.26152 -195.538011 
L 364.844939 -195.538011 
L 361.428359 -195.538011 
L 358.011779 -195.538011 
L 354.595199 -195.538011 
L 351.178618 -195.538011 
L 347.762038 -195.538011 
L 344.345458 -195.538011 
L 340.928878 -195.538011 
L 337.512297 -195.538011 
L 334.095717 -195.538011 
L 330.679137 -195.538011 
L 327.262557 -195.538011 
L 323.845976 -195.538011 
L 320.429396 -195.538011 
L 317.012816 -195.538011 
L 313.596236 -195.538011 
L 310.179655 -195.538011 
L 306.763075 -195.538011 
L 303.346495 -195.538011 
L 299.929915 -195.538011 
L 296.513335 -195.538011 
L 293.096754 -195.538011 
L 289.680174 -195.538011 
L 286.263594 -195.538011 
L 282.847014 -195.538011 
L 279.430433 -195.538011 
L 276.013853 -195.538011 
L 272.597273 -195.538011 
L 269.180693 -195.538011 
L 265.764112 -195.538011 
L 262.347532 -195.538011 
L 258.930952 -195.538011 
L 255.514372 -195.538011 
L 252.097791 -195.538011 
L 248.681211 -195.538011 
L 245.264631 -195.538011 
L 241.848051 -195.538011 
L 238.431471 -195.538011 
L 235.01489 -195.538011 
L 231.59831 -195.538011 
L 228.18173 -195.538011 
L 224.76515 -195.538011 
L 221.348569 -195.538011 
L 217.931989 -195.538011 
L 214.515409 -195.538011 
L 211.098829 -195.538011 
L 207.682248 -195.538011 
L 204.265668 -195.538011 
L 200.849088 -195.538011 
L 197.432508 -195.538011 
L 194.015927 -195.538011 
L 190.599347 -195.538011 
L 187.182767 -195.538011 
L 183.766187 -195.538011 
L 180.349607 -195.538011 
L 176.933026 -195.538011 
L 173.516446 -195.538011 
L 170.099866 -195.538011 
L 166.683286 -195.538011 
L 163.266705 -195.538011 
L 159.850125 -195.538011 
L 156.433545 -195.538011 
L 153.016965 -195.538011 
L 149.600384 -195.538011 
L 146.183804 -195.538011 
L 142.767224 -195.538011 
L 139.350644 -195.538011 
L 135.934063 -195.538011 
z
" id="m333997a5f3" style="stroke:#36a2eb;stroke-opacity:0.5;"/>
    </defs>
    <g clip-path="url(#pa869d73676)">
     <use style="fill:#36a2eb;fill-opacity:0.5;stroke:#36a2eb;stroke-opacity:0.5;" x="0" xlink:href="#m333997a5f3" y="581.789375"/>
    </g>
   </g>
   <g id="PolyCollection_3">
    <defs>
     <path d="M 58.827273 -195.538011 
L 58.827273 -195.64649 
L 61.809234 -195.687395 
L 64.791196 -195.742386 
L 67.773158 -195.8158 
L 70.755119 -195.913129 
L 73.737081 -196.041261 
L 76.719042 -196.208766 
L 79.701004 -196.426207 
L 82.682966 -196.70648 
L 85.664927 -197.06519 
L 88.646889 -197.521029 
L 91.62885 -198.09617 
L 94.610812 -198.816641 
L 97.592774 -199.712674 
L 100.574735 -200.818991 
L 103.556697 -202.17501 
L 106.538658 -203.824928 
L 109.52062 -205.817661 
L 112.502582 -208.206585 
L 115.484543 -211.049063 
L 118.466505 -214.405705 
L 121.448467 -218.339357 
L 124.430428 -222.913774 
L 127.41239 -228.191986 
L 130.394351 -234.234357 
L 133.376313 -241.096357 
L 136.358275 -248.826084 
L 139.340236 -257.461606 
L 142.322198 -267.028191 
L 145.304159 -277.535528 
L 148.286121 -288.975055 
L 151.268083 -301.317523 
L 154.250044 -314.510928 
L 157.232006 -328.47895 
L 160.213967 -343.120032 
L 163.195929 -358.307217 
L 166.177891 -373.888834 
L 169.159852 -389.690102 
L 172.141814 -405.515678 
L 175.123775 -421.153141 
L 178.105737 -436.377343 
L 181.087699 -450.955535 
L 184.06966 -464.653098 
L 187.051622 -477.23972 
L 190.033584 -488.495766 
L 193.015545 -498.218618 
L 195.997507 -506.228726 
L 198.979468 -512.375113 
L 201.96143 -516.540109 
L 204.943392 -518.643095 
L 207.925353 -518.643095 
L 210.907315 -516.540109 
L 213.889276 -512.375113 
L 216.871238 -506.228726 
L 219.8532 -498.218618 
L 222.835161 -488.495766 
L 225.817123 -477.23972 
L 228.799084 -464.653098 
L 231.781046 -450.955535 
L 234.763008 -436.377343 
L 237.744969 -421.153141 
L 240.726931 -405.515678 
L 243.708892 -389.690102 
L 246.690854 -373.888834 
L 249.672816 -358.307217 
L 252.654777 -343.120032 
L 255.636739 -328.47895 
L 258.618701 -314.510928 
L 261.600662 -301.317523 
L 264.582624 -288.975055 
L 267.564585 -277.535528 
L 270.546547 -267.028191 
L 273.528509 -257.461606 
L 276.51047 -248.826084 
L 279.492432 -241.096357 
L 282.474393 -234.234357 
L 285.456355 -228.191986 
L 288.438317 -222.913774 
L 291.420278 -218.339357 
L 294.40224 -214.405705 
L 297.384201 -211.049063 
L 300.366163 -208.206585 
L 303.348125 -205.817661 
L 306.330086 -203.824928 
L 309.312048 -202.17501 
L 312.294009 -200.818991 
L 315.275971 -199.712674 
L 318.257933 -198.816641 
L 321.239894 -198.09617 
L 324.221856 -197.521029 
L 327.203818 -197.06519 
L 330.185779 -196.70648 
L 333.167741 -196.426207 
L 336.149702 -196.208766 
L 339.131664 -196.041261 
L 342.113626 -195.913129 
L 345.095587 -195.8158 
L 348.077549 -195.742386 
L 351.05951 -195.687395 
L 354.041472 -195.64649 
L 354.041472 -195.538011 
L 354.041472 -195.538011 
L 351.05951 -195.538011 
L 348.077549 -195.538011 
L 345.095587 -195.538011 
L 342.113626 -195.538011 
L 339.131664 -195.538011 
L 336.149702 -195.538011 
L 333.167741 -195.538011 
L 330.185779 -195.538011 
L 327.203818 -195.538011 
L 324.221856 -195.538011 
L 321.239894 -195.538011 
L 318.257933 -195.538011 
L 315.275971 -195.538011 
L 312.294009 -195.538011 
L 309.312048 -195.538011 
L 306.330086 -195.538011 
L 303.348125 -195.538011 
L 300.366163 -195.538011 
L 297.384201 -195.538011 
L 294.40224 -195.538011 
L 291.420278 -195.538011 
L 288.438317 -195.538011 
L 285.456355 -195.538011 
L 282.474393 -195.538011 
L 279.492432 -195.538011 
L 276.51047 -195.538011 
L 273.528509 -195.538011 
L 270.546547 -195.538011 
L 267.564585 -195.538011 
L 264.582624 -195.538011 
L 261.600662 -195.538011 
L 258.618701 -195.538011 
L 255.636739 -195.538011 
L 252.654777 -195.538011 
L 249.672816 -195.538011 
L 246.690854 -195.538011 
L 243.708892 -195.538011 
L 240.726931 -195.538011 
L 237.744969 -195.538011 
L 234.763008 -195.538011 
L 231.781046 -195.538011 
L 228.799084 -195.538011 
L 225.817123 -195.538011 
L 222.835161 -195.538011 
L 219.8532 -195.538011 
L 216.871238 -195.538011 
L 213.889276 -195.538011 
L 210.907315 -195.538011 
L 207.925353 -195.538011 
L 204.943392 -195.538011 
L 201.96143 -195.538011 
L 198.979468 -195.538011 
L 195.997507 -195.538011 
L 193.015545 -195.538011 
L 190.033584 -195.538011 
L 187.051622 -195.538011 
L 184.06966 -195.538011 
L 181.087699 -195.538011 
L 178.105737 -195.538011 
L 175.123775 -195.538011 
L 172.141814 -195.538011 
L 169.159852 -195.538011 
L 166.177891 -195.538011 
L 163.195929 -195.538011 
L 160.213967 -195.538011 
L 157.232006 -195.538011 
L 154.250044 -195.538011 
L 151.268083 -195.538011 
L 148.286121 -195.538011 
L 145.304159 -195.538011 
L 142.322198 -195.538011 
L 139.340236 -195.538011 
L 136.358275 -195.538011 
L 133.376313 -195.538011 
L 130.394351 -195.538011 
L 127.41239 -195.538011 
L 124.430428 -195.538011 
L 121.448467 -195.538011 
L 118.466505 -195.538011 
L 115.484543 -195.538011 
L 112.502582 -195.538011 
L 109.52062 -195.538011 
L 106.538658 -195.538011 
L 103.556697 -195.538011 
L 100.574735 -195.538011 
L 97.592774 -195.538011 
L 94.610812 -195.538011 
L 91.62885 -195.538011 
L 88.646889 -195.538011 
L 85.664927 -195.538011 
L 82.682966 -195.538011 
L 79.701004 -195.538011 
L 76.719042 -195.538011 
L 73.737081 -195.538011 
L 70.755119 -195.538011 
L 67.773158 -195.538011 
L 64.791196 -195.538011 
L 61.809234 -195.538011 
L 58.827273 -195.538011 
z
" id="m6be3dca58b" style="stroke:#4bc0c0;stroke-opacity:0.5;"/>
    </defs>
    <g clip-path="url(#pa869d73676)">
     <use style="fill:#4bc0c0;fill-opacity:0.5;stroke:#4bc0c0;stroke-opacity:0.5;" x="0" xlink:href="#m6be3dca58b" y="581.789375"/>
    </g>
   </g>
   <g id="PolyCollection_4">
    <defs>
     <path d="M 172.193191 -195.538011 
L 172.193191 -195.631328 
L 175.659651 -195.666516 
L 179.126111 -195.713821 
L 182.592571 -195.776974 
L 186.059031 -195.860699 
L 189.525491 -195.970923 
L 192.991951 -196.115017 
L 196.458411 -196.302066 
L 199.924871 -196.543166 
L 203.391331 -196.85174 
L 206.857791 -197.243868 
L 210.324251 -197.738623 
L 213.790711 -198.358395 
L 217.257171 -199.129192 
L 220.723631 -200.080882 
L 224.190091 -201.247373 
L 227.656551 -202.666686 
L 231.123011 -204.3809 
L 234.589471 -206.435931 
L 238.055931 -208.881122 
L 241.522391 -211.768615 
L 244.988851 -215.152471 
L 248.45531 -219.087533 
L 251.92177 -223.628023 
L 255.38823 -228.825867 
L 258.85469 -234.728782 
L 262.32115 -241.378145 
L 265.78761 -248.806702 
L 269.25407 -257.036189 
L 272.72053 -266.074942 
L 276.18699 -275.915596 
L 279.65345 -286.532988 
L 283.11991 -297.882384 
L 286.58637 -309.898131 
L 290.05283 -322.492866 
L 293.51929 -335.557377 
L 296.98575 -348.96119 
L 300.45221 -362.553955 
L 303.91867 -376.16763 
L 307.38513 -389.619484 
L 310.85159 -402.715838 
L 314.31805 -415.256473 
L 317.78451 -427.039562 
L 321.25097 -437.866984 
L 324.71743 -447.549801 
L 328.18389 -455.913714 
L 331.650349 -462.80427 
L 335.116809 -468.091592 
L 338.583269 -471.674457 
L 342.049729 -473.483513 
L 345.516189 -473.483513 
L 348.982649 -471.674457 
L 352.449109 -468.091592 
L 355.915569 -462.80427 
L 359.382029 -455.913714 
L 362.848489 -447.549801 
L 366.314949 -437.866984 
L 369.781409 -427.039562 
L 373.247869 -415.256473 
L 376.714329 -402.715838 
L 380.180789 -389.619484 
L 383.647249 -376.16763 
L 387.113709 -362.553955 
L 390.580169 -348.96119 
L 394.046629 -335.557377 
L 397.513089 -322.492866 
L 400.979549 -309.898131 
L 404.446009 -297.882384 
L 407.912469 -286.532988 
L 411.378929 -275.915596 
L 414.845388 -266.074942 
L 418.311848 -257.036189 
L 421.778308 -248.806702 
L 425.244768 -241.378145 
L 428.711228 -234.728782 
L 432.177688 -228.825867 
L 435.644148 -223.628023 
L 439.110608 -219.087533 
L 442.577068 -215.152471 
L 446.043528 -211.768615 
L 449.509988 -208.881122 
L 452.976448 -206.435931 
L 456.442908 -204.3809 
L 459.909368 -202.666686 
L 463.375828 -201.247373 
L 466.842288 -200.080882 
L 470.308748 -199.129192 
L 473.775208 -198.358395 
L 477.241668 -197.738623 
L 480.708128 -197.243868 
L 484.174588 -196.85174 
L 487.641048 -196.543166 
L 491.107508 -196.302066 
L 494.573968 -196.115017 
L 498.040427 -195.970923 
L 501.506887 -195.860699 
L 504.973347 -195.776974 
L 508.439807 -195.713821 
L 511.906267 -195.666516 
L 515.372727 -195.631328 
L 515.372727 -195.538011 
L 515.372727 -195.538011 
L 511.906267 -195.538011 
L 508.439807 -195.538011 
L 504.973347 -195.538011 
L 501.506887 -195.538011 
L 498.040427 -195.538011 
L 494.573968 -195.538011 
L 491.107508 -195.538011 
L 487.641048 -195.538011 
L 484.174588 -195.538011 
L 480.708128 -195.538011 
L 477.241668 -195.538011 
L 473.775208 -195.538011 
L 470.308748 -195.538011 
L 466.842288 -195.538011 
L 463.375828 -195.538011 
L 459.909368 -195.538011 
L 456.442908 -195.538011 
L 452.976448 -195.538011 
L 449.509988 -195.538011 
L 446.043528 -195.538011 
L 442.577068 -195.538011 
L 439.110608 -195.538011 
L 435.644148 -195.538011 
L 432.177688 -195.538011 
L 428.711228 -195.538011 
L 425.244768 -195.538011 
L 421.778308 -195.538011 
L 418.311848 -195.538011 
L 414.845388 -195.538011 
L 411.378929 -195.538011 
L 407.912469 -195.538011 
L 404.446009 -195.538011 
L 400.979549 -195.538011 
L 397.513089 -195.538011 
L 394.046629 -195.538011 
L 390.580169 -195.538011 
L 387.113709 -195.538011 
L 383.647249 -195.538011 
L 380.180789 -195.538011 
L 376.714329 -195.538011 
L 373.247869 -195.538011 
L 369.781409 -195.538011 
L 366.314949 -195.538011 
L 362.848489 -195.538011 
L 359.382029 -195.538011 
L 355.915569 -195.538011 
L 352.449109 -195.538011 
L 348.982649 -195.538011 
L 345.516189 -195.538011 
L 342.049729 -195.538011 
L 338.583269 -195.538011 
L 335.116809 -195.538011 
L 331.650349 -195.538011 
L 328.18389 -195.538011 
L 324.71743 -195.538011 
L 321.25097 -195.538011 
L 317.78451 -195.538011 
L 314.31805 -195.538011 
L 310.85159 -195.538011 
L 307.38513 -195.538011 
L 303.91867 -195.538011 
L 300.45221 -195.538011 
L 296.98575 -195.538011 
L 293.51929 -195.538011 
L 290.05283 -195.538011 
L 286.58637 -195.538011 
L 283.11991 -195.538011 
L 279.65345 -195.538011 
L 276.18699 -195.538011 
L 272.72053 -195.538011 
L 269.25407 -195.538011 
L 265.78761 -195.538011 
L 262.32115 -195.538011 
L 258.85469 -195.538011 
L 255.38823 -195.538011 
L 251.92177 -195.538011 
L 248.45531 -195.538011 
L 244.988851 -195.538011 
L 241.522391 -195.538011 
L 238.055931 -195.538011 
L 234.589471 -195.538011 
L 231.123011 -195.538011 
L 227.656551 -195.538011 
L 224.190091 -195.538011 
L 220.723631 -195.538011 
L 217.257171 -195.538011 
L 213.790711 -195.538011 
L 210.324251 -195.538011 
L 206.857791 -195.538011 
L 203.391331 -195.538011 
L 199.924871 -195.538011 
L 196.458411 -195.538011 
L 192.991951 -195.538011 
L 189.525491 -195.538011 
L 186.059031 -195.538011 
L 182.592571 -195.538011 
L 179.126111 -195.538011 
L 175.659651 -195.538011 
L 172.193191 -195.538011 
z
" id="mab99c44c79" style="stroke:#9966ff;stroke-opacity:0.5;"/>
    </defs>
    <g clip-path="url(#pa869d73676)">
     <use style="fill:#9966ff;fill-opacity:0.5;stroke:#9966ff;stroke-opacity:0.5;" x="0" xlink:href="#mab99c44c79" y="581.789375"/>
    </g>
   </g>
   <g id="line2d_1">
    <path clip-path="url(#pa869d73676)" d="M 66.875759 386.139371 
L 69.764146 386.097141 
L 72.652532 386.040368 
L 75.540919 385.964575 
L 78.429305 385.864094 
L 81.317692 385.73181 
L 84.206078 385.558878 
L 87.094465 385.334393 
L 89.982851 385.04504 
L 92.871238 384.674709 
L 95.759624 384.204102 
L 98.648011 383.610328 
L 101.536397 382.866516 
L 104.424783 381.941454 
L 107.31317 380.799296 
L 110.201556 379.399346 
L 113.089943 377.695976 
L 115.978329 375.638684 
L 118.866716 373.172366 
L 121.755102 370.2378 
L 124.643489 366.772413 
L 127.531875 362.711322 
L 130.420262 357.988708 
L 133.308648 352.539497 
L 136.197035 346.301371 
L 139.085421 339.217063 
L 141.973808 331.236916 
L 144.862194 322.321628 
L 147.750581 312.445114 
L 150.638967 301.597371 
L 153.527354 289.787238 
L 156.41574 277.04491 
L 159.304127 263.424078 
L 162.192513 249.003534 
L 165.080899 233.888124 
L 167.969286 218.208919 
L 170.857672 202.122504 
L 173.746059 185.809323 
L 176.634445 169.471045 
L 179.522832 153.326975 
L 182.411218 137.609553 
L 185.299605 122.559072 
L 188.187991 108.417748 
L 191.076378 95.423357 
L 193.964764 83.802649 
L 196.853151 73.764805 
L 199.741537 65.495194 
L 202.629924 59.149682 
L 205.51831 54.849752 
L 208.406697 52.678636 
L 211.295083 52.678636 
L 214.18347 54.849752 
L 217.071856 59.149682 
L 219.960242 65.495194 
L 222.848629 73.764805 
L 225.737015 83.802649 
L 228.625402 95.423357 
L 231.513788 108.417748 
L 234.402175 122.559072 
L 237.290561 137.609553 
L 240.178948 153.326975 
L 243.067334 169.471045 
L 245.955721 185.809323 
L 248.844107 202.122504 
L 251.732494 218.208919 
L 254.62088 233.888124 
L 257.509267 249.003534 
L 260.397653 263.424078 
L 263.28604 277.04491 
L 266.174426 289.787238 
L 269.062813 301.597371 
L 271.951199 312.445114 
L 274.839585 322.321628 
L 277.727972 331.236916 
L 280.616358 339.217063 
L 283.504745 346.301371 
L 286.393131 352.539497 
L 289.281518 357.988708 
L 292.169904 362.711322 
L 295.058291 366.772413 
L 297.946677 370.2378 
L 300.835064 373.172366 
L 303.72345 375.638684 
L 306.611837 377.695976 
L 309.500223 379.399346 
L 312.38861 380.799296 
L 315.276996 381.941454 
L 318.165383 382.866516 
L 321.053769 383.610328 
L 323.942156 384.204102 
L 326.830542 384.674709 
L 329.718928 385.04504 
L 332.607315 385.334393 
L 335.495701 385.558878 
L 338.384088 385.73181 
L 341.272474 385.864094 
L 344.160861 385.964575 
L 347.049247 386.040368 
L 349.937634 386.097141 
L 352.82602 386.139371 
" style="fill:none;stroke:#ff6384;stroke-linecap:square;"/>
   </g>
   <g id="line2d_2">
    <path clip-path="url(#pa869d73676)" d="M 135.934063 386.156685 
L 139.350644 386.120983 
L 142.767224 386.072987 
L 146.183804 386.008912 
L 149.600384 385.923964 
L 153.016965 385.812132 
L 156.433545 385.665934 
L 159.850125 385.476154 
L 163.266705 385.231534 
L 166.683286 384.918455 
L 170.099866 384.520603 
L 173.516446 384.018625 
L 176.933026 383.389804 
L 180.349607 382.607754 
L 183.766187 381.64217 
L 187.182767 380.458649 
L 190.599347 379.018615 
L 194.015927 377.279375 
L 197.432508 375.194342 
L 200.849088 372.713453 
L 204.265668 369.783804 
L 207.682248 366.350547 
L 211.098829 362.358035 
L 214.515409 357.751258 
L 217.931989 352.477528 
L 221.348569 346.488434 
L 224.76515 339.741996 
L 228.18173 332.204987 
L 231.59831 323.855354 
L 235.01489 314.684642 
L 238.431471 304.700322 
L 241.848051 293.927923 
L 245.264631 282.412833 
L 248.681211 270.221665 
L 252.097791 257.443055 
L 255.514372 244.187812 
L 258.930952 230.588312 
L 262.347532 216.797102 
L 265.764112 202.984677 
L 269.180693 189.336435 
L 272.597273 176.048883 
L 276.013853 163.325164 
L 279.430433 151.370049 
L 282.847014 140.384555 
L 286.263594 130.560375 
L 289.680174 122.074354 
L 293.096754 115.083202 
L 296.513335 109.718688 
L 299.929915 106.083515 
L 303.346495 104.248048 
L 306.763075 104.248048 
L 310.179655 106.083515 
L 313.596236 109.718688 
L 317.012816 115.083202 
L 320.429396 122.074354 
L 323.845976 130.560375 
L 327.262557 140.384555 
L 330.679137 151.370049 
L 334.095717 163.325164 
L 337.512297 176.048883 
L 340.928878 189.336435 
L 344.345458 202.984677 
L 347.762038 216.797102 
L 351.178618 230.588312 
L 354.595199 244.187812 
L 358.011779 257.443055 
L 361.428359 270.221665 
L 364.844939 282.412833 
L 368.26152 293.927923 
L 371.6781 304.700322 
L 375.09468 314.684642 
L 378.51126 323.855354 
L 381.92784 332.204987 
L 385.344421 339.741996 
L 388.761001 346.488434 
L 392.177581 352.477528 
L 395.594161 357.751258 
L 399.010742 362.358035 
L 402.427322 366.350547 
L 405.843902 369.783804 
L 409.260482 372.713453 
L 412.677063 375.194342 
L 416.093643 377.279375 
L 419.510223 379.018615 
L 422.926803 380.458649 
L 426.343384 381.64217 
L 429.759964 382.607754 
L 433.176544 383.389804 
L 436.593124 384.018625 
L 440.009704 384.520603 
L 443.426285 384.918455 
L 446.842865 385.231534 
L 450.259445 385.476154 
L 453.676025 385.665934 
L 457.092606 385.812132 
L 460.509186 385.923964 
L 463.925766 386.008912 
L 467.342346 386.072987 
L 470.758927 386.120983 
L 474.175507 386.156685 
" style="fill:none;stroke:#36a2eb;stroke-linecap:square;"/>
   </g>
   <g id="line2d_3">
    <path clip-path="url(#pa869d73676)" d="M 58.827273 386.142885 
L 61.809234 386.10198 
L 64.791196 386.046989 
L 67.773158 385.973575 
L 70.755119 385.876246 
L 73.737081 385.748114 
L 76.719042 385.580609 
L 79.701004 385.363168 
L 82.682966 385.082895 
L 85.664927 384.724185 
L 88.646889 384.268346 
L 91.62885 383.693205 
L 94.610812 382.972734 
L 97.592774 382.076701 
L 100.574735 380.970384 
L 103.556697 379.614365 
L 106.538658 377.964447 
L 109.52062 375.971714 
L 112.502582 373.58279 
L 115.484543 370.740312 
L 118.466505 367.38367 
L 121.448467 363.450018 
L 124.430428 358.875601 
L 127.41239 353.597389 
L 130.394351 347.555018 
L 133.376313 340.693018 
L 136.358275 332.963291 
L 139.340236 324.327769 
L 142.322198 314.761184 
L 145.304159 304.253847 
L 148.286121 292.81432 
L 151.268083 280.471852 
L 154.250044 267.278447 
L 157.232006 253.310425 
L 160.213967 238.669343 
L 163.195929 223.482158 
L 166.177891 207.900541 
L 169.159852 192.099273 
L 172.141814 176.273697 
L 175.123775 160.636234 
L 178.105737 145.412032 
L 181.087699 130.83384 
L 184.06966 117.136277 
L 187.051622 104.549655 
L 190.033584 93.293609 
L 193.015545 83.570757 
L 195.997507 75.560649 
L 198.979468 69.414262 
L 201.96143 65.249266 
L 204.943392 63.14628 
L 207.925353 63.14628 
L 210.907315 65.249266 
L 213.889276 69.414262 
L 216.871238 75.560649 
L 219.8532 83.570757 
L 222.835161 93.293609 
L 225.817123 104.549655 
L 228.799084 117.136277 
L 231.781046 130.83384 
L 234.763008 145.412032 
L 237.744969 160.636234 
L 240.726931 176.273697 
L 243.708892 192.099273 
L 246.690854 207.900541 
L 249.672816 223.482158 
L 252.654777 238.669343 
L 255.636739 253.310425 
L 258.618701 267.278447 
L 261.600662 280.471852 
L 264.582624 292.81432 
L 267.564585 304.253847 
L 270.546547 314.761184 
L 273.528509 324.327769 
L 276.51047 332.963291 
L 279.492432 340.693018 
L 282.474393 347.555018 
L 285.456355 353.597389 
L 288.438317 358.875601 
L 291.420278 363.450018 
L 294.40224 367.38367 
L 297.384201 370.740312 
L 300.366163 373.58279 
L 303.348125 375.971714 
L 306.330086 377.964447 
L 309.312048 379.614365 
L 312.294009 380.970384 
L 315.275971 382.076701 
L 318.257933 382.972734 
L 321.239894 383.693205 
L 324.221856 384.268346 
L 327.203818 384.724185 
L 330.185779 385.082895 
L 333.167741 385.363168 
L 336.149702 385.580609 
L 339.131664 385.748114 
L 342.113626 385.876246 
L 345.095587 385.973575 
L 348.077549 386.046989 
L 351.05951 386.10198 
L 354.041472 386.142885 
" style="fill:none;stroke:#4bc0c0;stroke-linecap:square;"/>
   </g>
   <g id="line2d_4">
    <path clip-path="url(#pa869d73676)" d="M 172.193191 386.158047 
L 175.659651 386.122859 
L 179.126111 386.075554 
L 182.592571 386.012401 
L 186.059031 385.928676 
L 189.525491 385.818452 
L 192.991951 385.674358 
L 196.458411 385.487309 
L 199.924871 385.246209 
L 203.391331 384.937635 
L 206.857791 384.545507 
L 210.324251 384.050752 
L 213.790711 383.43098 
L 217.257171 382.660183 
L 220.723631 381.708493 
L 224.190091 380.542002 
L 227.656551 379.122689 
L 231.123011 377.408475 
L 234.589471 375.353444 
L 238.055931 372.908253 
L 241.522391 370.02076 
L 244.988851 366.636904 
L 248.45531 362.701842 
L 251.92177 358.161352 
L 255.38823 352.963508 
L 258.85469 347.060593 
L 262.32115 340.41123 
L 265.78761 332.982673 
L 269.25407 324.753186 
L 272.72053 315.714433 
L 276.18699 305.873779 
L 279.65345 295.256387 
L 283.11991 283.906991 
L 286.58637 271.891244 
L 290.05283 259.296509 
L 293.51929 246.231998 
L 296.98575 232.828185 
L 300.45221 219.23542 
L 303.91867 205.621745 
L 307.38513 192.169891 
L 310.85159 179.073537 
L 314.31805 166.532902 
L 317.78451 154.749813 
L 321.25097 143.922391 
L 324.71743 134.239574 
L 328.18389 125.875661 
L 331.650349 118.985105 
L 335.116809 113.697783 
L 338.583269 110.114918 
L 342.049729 108.305862 
L 345.516189 108.305862 
L 348.982649 110.114918 
L 352.449109 113.697783 
L 355.915569 118.985105 
L 359.382029 125.875661 
L 362.848489 134.239574 
L 366.314949 143.922391 
L 369.781409 154.749813 
L 373.247869 166.532902 
L 376.714329 179.073537 
L 380.180789 192.169891 
L 383.647249 205.621745 
L 387.113709 219.23542 
L 390.580169 232.828185 
L 394.046629 246.231998 
L 397.513089 259.296509 
L 400.979549 271.891244 
L 404.446009 283.906991 
L 407.912469 295.256387 
L 411.378929 305.873779 
L 414.845388 315.714433 
L 418.311848 324.753186 
L 421.778308 332.982673 
L 425.244768 340.41123 
L 428.711228 347.060593 
L 432.177688 352.963508 
L 435.644148 358.161352 
L 439.110608 362.701842 
L 442.577068 366.636904 
L 446.043528 370.02076 
L 449.509988 372.908253 
L 452.976448 375.353444 
L 456.442908 377.408475 
L 459.909368 379.122689 
L 463.375828 380.542002 
L 466.842288 381.708493 
L 470.308748 382.660183 
L 473.775208 383.43098 
L 477.241668 384.050752 
L 480.708128 384.545507 
L 484.174588 384.937635 
L 487.641048 385.246209 
L 491.107508 385.487309 
L 494.573968 385.674358 
L 498.040427 385.818452 
L 501.506887 385.928676 
L 504.973347 386.012401 
L 508.439807 386.075554 
L 511.906267 386.122859 
L 515.372727 386.158047 
" style="fill:none;stroke:#9966ff;stroke-linecap:square;"/>
   </g>
   <g id="patch_3">
    <path d="M 36 402.93 
L 538.2 402.93 
" style="fill:none;stroke:#000000;stroke-linecap:square;stroke-linejoin:miter;stroke-width:0.8;"/>
   </g>
   <g id="legend_1">
    <g id="patch_4">
     <path d="M 450.225313 129.3975 
L 528.4 129.3975 
Q 531.2 129.3975 531.2 126.5975 
L 531.2 45.8 
Q 531.2 43 528.4 43 
L 450.225313 43 
Q 447.425313 43 447.425313 45.8 
L 447.425313 126.5975 
Q 447.425313 129.3975 450.225313 129.3975 
z
" style="fill:#ffffff;opacity:0.8;stroke:#cccccc;stroke-linejoin:miter;"/>
    </g>
    <g id="patch_5">
     <path d="M 453.025313 59.237813 
L 481.025313 59.237813 
L 481.025313 49.437813 
L 453.025313 49.437813 
z
" style="fill:#ff6384;opacity:0.5;stroke:#ff6384;stroke-linejoin:miter;"/>
    </g>
    <g id="text_1">
     <!-- base -->
     <defs>
      <path d="M 48.6875 27.296875 
Q 48.6875 37.203125 44.609375 42.84375 
Q 40.53125 48.484375 33.40625 48.484375 
Q 26.265625 48.484375 22.1875 42.84375 
Q 18.109375 37.203125 18.109375 27.296875 
Q 18.109375 17.390625 22.1875 11.75 
Q 26.265625 6.109375 33.40625 6.109375 
Q 40.53125 6.109375 44.609375 11.75 
Q 48.6875 17.390625 48.6875 27.296875 
z
M 18.109375 46.390625 
Q 20.953125 51.265625 25.265625 53.625 
Q 29.59375 56 35.59375 56 
Q 45.5625 56 51.78125 48.09375 
Q 58.015625 40.1875 58.015625 27.296875 
Q 58.015625 14.40625 51.78125 6.484375 
Q 45.5625 -1.421875 35.59375 -1.421875 
Q 29.59375 -1.421875 25.265625 0.953125 
Q 20.953125 3.328125 18.109375 8.203125 
L 18.109375 0 
L 9.078125 0 
L 9.078125 75.984375 
L 18.109375 75.984375 
z
" id="DejaVuSans-98"/>
      <path d="M 34.28125 27.484375 
Q 23.390625 27.484375 19.1875 25 
Q 14.984375 22.515625 14.984375 16.5 
Q 14.984375 11.71875 18.140625 8.90625 
Q 21.296875 6.109375 26.703125 6.109375 
Q 34.1875 6.109375 38.703125 11.40625 
Q 43.21875 16.703125 43.21875 25.484375 
L 43.21875 27.484375 
z
M 52.203125 31.203125 
L 52.203125 0 
L 43.21875 0 
L 43.21875 8.296875 
Q 40.140625 3.328125 35.546875 0.953125 
Q 30.953125 -1.421875 24.3125 -1.421875 
Q 15.921875 -1.421875 10.953125 3.296875 
Q 6 8.015625 6 15.921875 
Q 6 25.140625 12.171875 29.828125 
Q 18.359375 34.515625 30.609375 34.515625 
L 43.21875 34.515625 
L 43.21875 35.40625 
Q 43.21875 41.609375 39.140625 45 
Q 35.0625 48.390625 27.6875 48.390625 
Q 23 48.390625 18.546875 47.265625 
Q 14.109375 46.140625 10.015625 43.890625 
L 10.015625 52.203125 
Q 14.9375 54.109375 19.578125 55.046875 
Q 24.21875 56 28.609375 56 
Q 40.484375 56 46.34375 49.84375 
Q 52.203125 43.703125 52.203125 31.203125 
z
" id="DejaVuSans-97"/>
      <path d="M 44.28125 53.078125 
L 44.28125 44.578125 
Q 40.484375 46.53125 36.375 47.5 
Q 32.28125 48.484375 27.875 48.484375 
Q 21.1875 48.484375 17.84375 46.4375 
Q 14.5 44.390625 14.5 40.28125 
Q 14.5 37.15625 16.890625 35.375 
Q 19.28125 33.59375 26.515625 31.984375 
L 29.59375 31.296875 
Q 39.15625 29.25 43.1875 25.515625 
Q 47.21875 21.78125 47.21875 15.09375 
Q 47.21875 7.46875 41.1875 3.015625 
Q 35.15625 -1.421875 24.609375 -1.421875 
Q 20.21875 -1.421875 15.453125 -0.5625 
Q 10.6875 0.296875 5.421875 2 
L 5.421875 11.28125 
Q 10.40625 8.6875 15.234375 7.390625 
Q 20.0625 6.109375 24.8125 6.109375 
Q 31.15625 6.109375 34.5625 8.28125 
Q 37.984375 10.453125 37.984375 14.40625 
Q 37.984375 18.0625 35.515625 20.015625 
Q 33.0625 21.96875 24.703125 23.78125 
L 21.578125 24.515625 
Q 13.234375 26.265625 9.515625 29.90625 
Q 5.8125 33.546875 5.8125 39.890625 
Q 5.8125 47.609375 11.28125 51.796875 
Q 16.75 56 26.8125 56 
Q 31.78125 56 36.171875 55.265625 
Q 40.578125 54.546875 44.28125 53.078125 
z
" id="DejaVuSans-115"/>
      <path d="M 56.203125 29.59375 
L 56.203125 25.203125 
L 14.890625 25.203125 
Q 15.484375 15.921875 20.484375 11.0625 
Q 25.484375 6.203125 34.421875 6.203125 
Q 39.59375 6.203125 44.453125 7.46875 
Q 49.3125 8.734375 54.109375 11.28125 
L 54.109375 2.78125 
Q 49.265625 0.734375 44.1875 -0.34375 
Q 39.109375 -1.421875 33.890625 -1.421875 
Q 20.796875 -1.421875 13.15625 6.1875 
Q 5.515625 13.8125 5.515625 26.8125 
Q 5.515625 40.234375 12.765625 48.109375 
Q 20.015625 56 32.328125 56 
Q 43.359375 56 49.78125 48.890625 
Q 56.203125 41.796875 56.203125 29.59375 
z
M 47.21875 32.234375 
Q 47.125 39.59375 43.09375 43.984375 
Q 39.0625 48.390625 32.421875 48.390625 
Q 24.90625 48.390625 20.390625 44.140625 
Q 15.875 39.890625 15.1875 32.171875 
z
" id="DejaVuSans-101"/>
     </defs>
     <g transform="translate(492.225313 59.237813)scale(0.14 -0.14)">
      <use xlink:href="#DejaVuSans-98"/>
      <use x="63.476562" xlink:href="#DejaVuSans-97"/>
      <use x="124.755859" xlink:href="#DejaVuSans-115"/>
      <use x="176.855469" xlink:href="#DejaVuSans-101"/>
     </g>
    </g>
    <g id="patch_6">
     <path d="M 453.025313 79.787188 
L 481.025313 79.787188 
L 481.025313 69.987188 
L 453.025313 69.987188 
z
" style="fill:#36a2eb;opacity:0.5;stroke:#36a2eb;stroke-linejoin:miter;"/>
    </g>
    <g id="text_2">
     <!-- fifth -->
     <defs>
      <path d="M 37.109375 75.984375 
L 37.109375 68.5 
L 28.515625 68.5 
Q 23.6875 68.5 21.796875 66.546875 
Q 19.921875 64.59375 19.921875 59.515625 
L 19.921875 54.6875 
L 34.71875 54.6875 
L 34.71875 47.703125 
L 19.921875 47.703125 
L 19.921875 0 
L 10.890625 0 
L 10.890625 47.703125 
L 2.296875 47.703125 
L 2.296875 54.6875 
L 10.890625 54.6875 
L 10.890625 58.5 
Q 10.890625 67.625 15.140625 71.796875 
Q 19.390625 75.984375 28.609375 75.984375 
z
" id="DejaVuSans-102"/>
      <path d="M 9.421875 54.6875 
L 18.40625 54.6875 
L 18.40625 0 
L 9.421875 0 
z
M 9.421875 75.984375 
L 18.40625 75.984375 
L 18.40625 64.59375 
L 9.421875 64.59375 
z
" id="DejaVuSans-105"/>
      <path d="M 18.3125 70.21875 
L 18.3125 54.6875 
L 36.8125 54.6875 
L 36.8125 47.703125 
L 18.3125 47.703125 
L 18.3125 18.015625 
Q 18.3125 11.328125 20.140625 9.421875 
Q 21.96875 7.515625 27.59375 7.515625 
L 36.8125 7.515625 
L 36.8125 0 
L 27.59375 0 
Q 17.1875 0 13.234375 3.875 
Q 9.28125 7.765625 9.28125 18.015625 
L 9.28125 47.703125 
L 2.6875 47.703125 
L 2.6875 54.6875 
L 9.28125 54.6875 
L 9.28125 70.21875 
z
" id="DejaVuSans-116"/>
      <path d="M 54.890625 33.015625 
L 54.890625 0 
L 45.90625 0 
L 45.90625 32.71875 
Q 45.90625 40.484375 42.875 44.328125 
Q 39.84375 48.1875 33.796875 48.1875 
Q 26.515625 48.1875 22.3125 43.546875 
Q 18.109375 38.921875 18.109375 30.90625 
L 18.109375 0 
L 9.078125 0 
L 9.078125 75.984375 
L 18.109375 75.984375 
L 18.109375 46.1875 
Q 21.34375 51.125 25.703125 53.5625 
Q 30.078125 56 35.796875 56 
Q 45.21875 56 50.046875 50.171875 
Q 54.890625 44.34375 54.890625 33.015625 
z
" id="DejaVuSans-104"/>
     </defs>
     <g transform="translate(492.225313 79.787188)scale(0.14 -0.14)">
      <use xlink:href="#DejaVuSans-102"/>
      <use x="35.205078" xlink:href="#DejaVuSans-105"/>
      <use x="62.988281" xlink:href="#DejaVuSans-102"/>
      <use x="98.177734" xlink:href="#DejaVuSans-116"/>
      <use x="137.386719" xlink:href="#DejaVuSans-104"/>
     </g>
    </g>
    <g id="patch_7">
     <path d="M 453.025313 100.336563 
L 481.025313 100.336563 
L 481.025313 90.536563 
L 453.025313 90.536563 
z
" style="fill:#4bc0c0;opacity:0.5;stroke:#4bc0c0;stroke-linejoin:miter;"/>
    </g>
    <g id="text_3">
     <!-- mid -->
     <defs>
      <path d="M 52 44.1875 
Q 55.375 50.25 60.0625 53.125 
Q 64.75 56 71.09375 56 
Q 79.640625 56 84.28125 50.015625 
Q 88.921875 44.046875 88.921875 33.015625 
L 88.921875 0 
L 79.890625 0 
L 79.890625 32.71875 
Q 79.890625 40.578125 77.09375 44.375 
Q 74.3125 48.1875 68.609375 48.1875 
Q 61.625 48.1875 57.5625 43.546875 
Q 53.515625 38.921875 53.515625 30.90625 
L 53.515625 0 
L 44.484375 0 
L 44.484375 32.71875 
Q 44.484375 40.625 41.703125 44.40625 
Q 38.921875 48.1875 33.109375 48.1875 
Q 26.21875 48.1875 22.15625 43.53125 
Q 18.109375 38.875 18.109375 30.90625 
L 18.109375 0 
L 9.078125 0 
L 9.078125 54.6875 
L 18.109375 54.6875 
L 18.109375 46.1875 
Q 21.1875 51.21875 25.484375 53.609375 
Q 29.78125 56 35.6875 56 
Q 41.65625 56 45.828125 52.96875 
Q 50 49.953125 52 44.1875 
z
" id="DejaVuSans-109"/>
      <path d="M 45.40625 46.390625 
L 45.40625 75.984375 
L 54.390625 75.984375 
L 54.390625 0 
L 45.40625 0 
L 45.40625 8.203125 
Q 42.578125 3.328125 38.25 0.953125 
Q 33.9375 -1.421875 27.875 -1.421875 
Q 17.96875 -1.421875 11.734375 6.484375 
Q 5.515625 14.40625 5.515625 27.296875 
Q 5.515625 40.1875 11.734375 48.09375 
Q 17.96875 56 27.875 56 
Q 33.9375 56 38.25 53.625 
Q 42.578125 51.265625 45.40625 46.390625 
z
M 14.796875 27.296875 
Q 14.796875 17.390625 18.875 11.75 
Q 22.953125 6.109375 30.078125 6.109375 
Q 37.203125 6.109375 41.296875 11.75 
Q 45.40625 17.390625 45.40625 27.296875 
Q 45.40625 37.203125 41.296875 42.84375 
Q 37.203125 48.484375 30.078125 48.484375 
Q 22.953125 48.484375 18.875 42.84375 
Q 14.796875 37.203125 14.796875 27.296875 
z
" id="DejaVuSans-100"/>
     </defs>
     <g transform="translate(492.225313 100.336563)scale(0.14 -0.14)">
      <use xlink:href="#DejaVuSans-109"/>
      <use x="97.412109" xlink:href="#DejaVuSans-105"/>
      <use x="125.195312" xlink:href="#DejaVuSans-100"/>
     </g>
    </g>
    <g id="patch_8">
     <path d="M 453.025313 120.885938 
L 481.025313 120.885938 
L 481.025313 111.085938 
L 453.025313 111.085938 
z
" style="fill:#9966ff;opacity:0.5;stroke:#9966ff;stroke-linejoin:miter;"/>
    </g>
    <g id="text_4">
     <!-- right -->
     <defs>
      <path d="M 41.109375 46.296875 
Q 39.59375 47.171875 37.8125 47.578125 
Q 36.03125 48 33.890625 48 
Q 26.265625 48 22.1875 43.046875 
Q 18.109375 38.09375 18.109375 28.8125 
L 18.109375 0 
L 9.078125 0 
L 9.078125 54.6875 
L 18.109375 54.6875 
L 18.109375 46.1875 
Q 20.953125 51.171875 25.484375 53.578125 
Q 30.03125 56 36.53125 56 
Q 37.453125 56 38.578125 55.875 
Q 39.703125 55.765625 41.0625 55.515625 
z
" id="DejaVuSans-114"/>
      <path d="M 45.40625 27.984375 
Q 45.40625 37.75 41.375 43.109375 
Q 37.359375 48.484375 30.078125 48.484375 
Q 22.859375 48.484375 18.828125 43.109375 
Q 14.796875 37.75 14.796875 27.984375 
Q 14.796875 18.265625 18.828125 12.890625 
Q 22.859375 7.515625 30.078125 7.515625 
Q 37.359375 7.515625 41.375 12.890625 
Q 45.40625 18.265625 45.40625 27.984375 
z
M 54.390625 6.78125 
Q 54.390625 -7.171875 48.1875 -13.984375 
Q 42 -20.796875 29.203125 -20.796875 
Q 24.46875 -20.796875 20.265625 -20.09375 
Q 16.0625 -19.390625 12.109375 -17.921875 
L 12.109375 -9.1875 
Q 16.0625 -11.328125 19.921875 -12.34375 
Q 23.78125 -13.375 27.78125 -13.375 
Q 36.625 -13.375 41.015625 -8.765625 
Q 45.40625 -4.15625 45.40625 5.171875 
L 45.40625 9.625 
Q 42.625 4.78125 38.28125 2.390625 
Q 33.9375 0 27.875 0 
Q 17.828125 0 11.671875 7.65625 
Q 5.515625 15.328125 5.515625 27.984375 
Q 5.515625 40.671875 11.671875 48.328125 
Q 17.828125 56 27.875 56 
Q 33.9375 56 38.28125 53.609375 
Q 42.625 51.21875 45.40625 46.390625 
L 45.40625 54.6875 
L 54.390625 54.6875 
z
" id="DejaVuSans-103"/>
     </defs>
     <g transform="translate(492.225313 120.885938)scale(0.14 -0.14)">
      <use xlink:href="#DejaVuSans-114"/>
      <use x="41.113281" xlink:href="#DejaVuSans-105"/>
      <use x="68.896484" xlink:href="#DejaVuSans-103"/>
      <use x="132.373047" xlink:href="#DejaVuSans-104"/>
      <use x="195.751953" xlink:href="#DejaVuSans-116"/>
     </g>
    </g>
   </g>
  </g>
  <g id="axes_2">
   <g id="patch_9">
    <path d="M 36 525.24 
L 538.2 525.24 
L 538.2 402.93 
L 36 402.93 
z
" style="fill:none;"/>
   </g>
   <g id="patch_10">
    <path clip-path="url(#p7e12d07f08)" d="M 139.793076 519.680455 
L 279.908704 519.680455 
L 279.908704 503.796039 
L 139.793076 503.796039 
z
" style="fill:#ff6384;opacity:0.5;"/>
   </g>
   <g id="patch_11">
    <path clip-path="url(#p7e12d07f08)" d="M 222.185632 487.911623 
L 387.923939 487.911623 
L 387.923939 472.027208 
L 222.185632 472.027208 
z
" style="fill:#36a2eb;opacity:0.5;"/>
   </g>
   <g id="patch_12">
    <path clip-path="url(#p7e12d07f08)" d="M 134.106894 456.142792 
L 278.761851 456.142792 
L 278.761851 440.258377 
L 134.106894 440.258377 
z
" style="fill:#4bc0c0;opacity:0.5;"/>
   </g>
   <g id="patch_13">
    <path clip-path="url(#p7e12d07f08)" d="M 259.703973 424.373961 
L 427.861946 424.373961 
L 427.861946 408.489545 
L 259.703973 408.489545 
z
" style="fill:#9966ff;opacity:0.5;"/>
   </g>
   <g id="matplotlib.axis_1">
    <g id="xtick_1">
     <g id="line2d_5">
      <defs>
       <path d="M 0 0 
L 0 3.5 
" id="m76ca57002d" style="stroke:#000000;stroke-width:0.8;"/>
      </defs>
      <g>
       <use style="stroke:#000000;stroke-width:0.8;" x="78.257644" xlink:href="#m76ca57002d" y="525.24"/>
      </g>
     </g>
     <g id="text_5">
      <!-- 5.00 -->
      <defs>
       <path d="M 10.796875 72.90625 
L 49.515625 72.90625 
L 49.515625 64.59375 
L 19.828125 64.59375 
L 19.828125 46.734375 
Q 21.96875 47.46875 24.109375 47.828125 
Q 26.265625 48.1875 28.421875 48.1875 
Q 40.625 48.1875 47.75 41.5 
Q 54.890625 34.8125 54.890625 23.390625 
Q 54.890625 11.625 47.5625 5.09375 
Q 40.234375 -1.421875 26.90625 -1.421875 
Q 22.3125 -1.421875 17.546875 -0.640625 
Q 12.796875 0.140625 7.71875 1.703125 
L 7.71875 11.625 
Q 12.109375 9.234375 16.796875 8.0625 
Q 21.484375 6.890625 26.703125 6.890625 
Q 35.15625 6.890625 40.078125 11.328125 
Q 45.015625 15.765625 45.015625 23.390625 
Q 45.015625 31 40.078125 35.4375 
Q 35.15625 39.890625 26.703125 39.890625 
Q 22.75 39.890625 18.8125 39.015625 
Q 14.890625 38.140625 10.796875 36.28125 
z
" id="DejaVuSans-53"/>
       <path d="M 10.6875 12.40625 
L 21 12.40625 
L 21 0 
L 10.6875 0 
z
" id="DejaVuSans-46"/>
       <path d="M 31.78125 66.40625 
Q 24.171875 66.40625 20.328125 58.90625 
Q 16.5 51.421875 16.5 36.375 
Q 16.5 21.390625 20.328125 13.890625 
Q 24.171875 6.390625 31.78125 6.390625 
Q 39.453125 6.390625 43.28125 13.890625 
Q 47.125 21.390625 47.125 36.375 
Q 47.125 51.421875 43.28125 58.90625 
Q 39.453125 66.40625 31.78125 66.40625 
z
M 31.78125 74.21875 
Q 44.046875 74.21875 50.515625 64.515625 
Q 56.984375 54.828125 56.984375 36.375 
Q 56.984375 17.96875 50.515625 8.265625 
Q 44.046875 -1.421875 31.78125 -1.421875 
Q 19.53125 -1.421875 13.0625 8.265625 
Q 6.59375 17.96875 6.59375 36.375 
Q 6.59375 54.828125 13.0625 64.515625 
Q 19.53125 74.21875 31.78125 74.21875 
z
" id="DejaVuSans-48"/>
      </defs>
      <g transform="translate(62.671707 542.877813)scale(0.14 -0.14)">
       <use xlink:href="#DejaVuSans-53"/>
       <use x="63.623047" xlink:href="#DejaVuSans-46"/>
       <use x="95.410156" xlink:href="#DejaVuSans-48"/>
       <use x="159.033203" xlink:href="#DejaVuSans-48"/>
      </g>
     </g>
    </g>
    <g id="xtick_2">
     <g id="line2d_6">
      <g>
       <use style="stroke:#000000;stroke-width:0.8;" x="135.581762" xlink:href="#m76ca57002d" y="525.24"/>
      </g>
     </g>
     <g id="text_6">
      <!-- 5.25 -->
      <defs>
       <path d="M 19.1875 8.296875 
L 53.609375 8.296875 
L 53.609375 0 
L 7.328125 0 
L 7.328125 8.296875 
Q 12.9375 14.109375 22.625 23.890625 
Q 32.328125 33.6875 34.8125 36.53125 
Q 39.546875 41.84375 41.421875 45.53125 
Q 43.3125 49.21875 43.3125 52.78125 
Q 43.3125 58.59375 39.234375 62.25 
Q 35.15625 65.921875 28.609375 65.921875 
Q 23.96875 65.921875 18.8125 64.3125 
Q 13.671875 62.703125 7.8125 59.421875 
L 7.8125 69.390625 
Q 13.765625 71.78125 18.9375 73 
Q 24.125 74.21875 28.421875 74.21875 
Q 39.75 74.21875 46.484375 68.546875 
Q 53.21875 62.890625 53.21875 53.421875 
Q 53.21875 48.921875 51.53125 44.890625 
Q 49.859375 40.875 45.40625 35.40625 
Q 44.1875 33.984375 37.640625 27.21875 
Q 31.109375 20.453125 19.1875 8.296875 
z
" id="DejaVuSans-50"/>
      </defs>
      <g transform="translate(119.995825 542.877813)scale(0.14 -0.14)">
       <use xlink:href="#DejaVuSans-53"/>
       <use x="63.623047" xlink:href="#DejaVuSans-46"/>
       <use x="95.410156" xlink:href="#DejaVuSans-50"/>
       <use x="159.033203" xlink:href="#DejaVuSans-53"/>
      </g>
     </g>
    </g>
    <g id="xtick_3">
     <g id="line2d_7">
      <g>
       <use style="stroke:#000000;stroke-width:0.8;" x="192.90588" xlink:href="#m76ca57002d" y="525.24"/>
      </g>
     </g>
     <g id="text_7">
      <!-- 5.50 -->
      <g transform="translate(177.319943 542.877813)scale(0.14 -0.14)">
       <use xlink:href="#DejaVuSans-53"/>
       <use x="63.623047" xlink:href="#DejaVuSans-46"/>
       <use x="95.410156" xlink:href="#DejaVuSans-53"/>
       <use x="159.033203" xlink:href="#DejaVuSans-48"/>
      </g>
     </g>
    </g>
    <g id="xtick_4">
     <g id="line2d_8">
      <g>
       <use style="stroke:#000000;stroke-width:0.8;" x="250.229999" xlink:href="#m76ca57002d" y="525.24"/>
      </g>
     </g>
     <g id="text_8">
      <!-- 5.75 -->
      <defs>
       <path d="M 8.203125 72.90625 
L 55.078125 72.90625 
L 55.078125 68.703125 
L 28.609375 0 
L 18.3125 0 
L 43.21875 64.59375 
L 8.203125 64.59375 
z
" id="DejaVuSans-55"/>
      </defs>
      <g transform="translate(234.644061 542.877813)scale(0.14 -0.14)">
       <use xlink:href="#DejaVuSans-53"/>
       <use x="63.623047" xlink:href="#DejaVuSans-46"/>
       <use x="95.410156" xlink:href="#DejaVuSans-55"/>
       <use x="159.033203" xlink:href="#DejaVuSans-53"/>
      </g>
     </g>
    </g>
    <g id="xtick_5">
     <g id="line2d_9">
      <g>
       <use style="stroke:#000000;stroke-width:0.8;" x="307.554117" xlink:href="#m76ca57002d" y="525.24"/>
      </g>
     </g>
     <g id="text_9">
      <!-- 6.00 -->
      <defs>
       <path d="M 33.015625 40.375 
Q 26.375 40.375 22.484375 35.828125 
Q 18.609375 31.296875 18.609375 23.390625 
Q 18.609375 15.53125 22.484375 10.953125 
Q 26.375 6.390625 33.015625 6.390625 
Q 39.65625 6.390625 43.53125 10.953125 
Q 47.40625 15.53125 47.40625 23.390625 
Q 47.40625 31.296875 43.53125 35.828125 
Q 39.65625 40.375 33.015625 40.375 
z
M 52.59375 71.296875 
L 52.59375 62.3125 
Q 48.875 64.0625 45.09375 64.984375 
Q 41.3125 65.921875 37.59375 65.921875 
Q 27.828125 65.921875 22.671875 59.328125 
Q 17.53125 52.734375 16.796875 39.40625 
Q 19.671875 43.65625 24.015625 45.921875 
Q 28.375 48.1875 33.59375 48.1875 
Q 44.578125 48.1875 50.953125 41.515625 
Q 57.328125 34.859375 57.328125 23.390625 
Q 57.328125 12.15625 50.6875 5.359375 
Q 44.046875 -1.421875 33.015625 -1.421875 
Q 20.359375 -1.421875 13.671875 8.265625 
Q 6.984375 17.96875 6.984375 36.375 
Q 6.984375 53.65625 15.1875 63.9375 
Q 23.390625 74.21875 37.203125 74.21875 
Q 40.921875 74.21875 44.703125 73.484375 
Q 48.484375 72.75 52.59375 71.296875 
z
" id="DejaVuSans-54"/>
      </defs>
      <g transform="translate(291.968179 542.877813)scale(0.14 -0.14)">
       <use xlink:href="#DejaVuSans-54"/>
       <use x="63.623047" xlink:href="#DejaVuSans-46"/>
       <use x="95.410156" xlink:href="#DejaVuSans-48"/>
       <use x="159.033203" xlink:href="#DejaVuSans-48"/>
      </g>
     </g>
    </g>
    <g id="xtick_6">
     <g id="line2d_10">
      <g>
       <use style="stroke:#000000;stroke-width:0.8;" x="364.878235" xlink:href="#m76ca57002d" y="525.24"/>
      </g>
     </g>
     <g id="text_10">
      <!-- 6.25 -->
      <g transform="translate(349.292297 542.877813)scale(0.14 -0.14)">
       <use xlink:href="#DejaVuSans-54"/>
       <use x="63.623047" xlink:href="#DejaVuSans-46"/>
       <use x="95.410156" xlink:href="#DejaVuSans-50"/>
       <use x="159.033203" xlink:href="#DejaVuSans-53"/>
      </g>
     </g>
    </g>
    <g id="xtick_7">
     <g id="line2d_11">
      <g>
       <use style="stroke:#000000;stroke-width:0.8;" x="422.202353" xlink:href="#m76ca57002d" y="525.24"/>
      </g>
     </g>
     <g id="text_11">
      <!-- 6.50 -->
      <g transform="translate(406.616415 542.877813)scale(0.14 -0.14)">
       <use xlink:href="#DejaVuSans-54"/>
       <use x="63.623047" xlink:href="#DejaVuSans-46"/>
       <use x="95.410156" xlink:href="#DejaVuSans-53"/>
       <use x="159.033203" xlink:href="#DejaVuSans-48"/>
      </g>
     </g>
    </g>
    <g id="xtick_8">
     <g id="line2d_12">
      <g>
       <use style="stroke:#000000;stroke-width:0.8;" x="479.526471" xlink:href="#m76ca57002d" y="525.24"/>
      </g>
     </g>
     <g id="text_12">
      <!-- 6.75 -->
      <g transform="translate(463.940533 542.877813)scale(0.14 -0.14)">
       <use xlink:href="#DejaVuSans-54"/>
       <use x="63.623047" xlink:href="#DejaVuSans-46"/>
       <use x="95.410156" xlink:href="#DejaVuSans-55"/>
       <use x="159.033203" xlink:href="#DejaVuSans-53"/>
      </g>
     </g>
    </g>
    <g id="xtick_9">
     <g id="line2d_13">
      <g>
       <use style="stroke:#000000;stroke-width:0.8;" x="536.850589" xlink:href="#m76ca57002d" y="525.24"/>
      </g>
     </g>
     <g id="text_13">
      <!-- 7.00 -->
      <g transform="translate(521.264652 542.877813)scale(0.14 -0.14)">
       <use xlink:href="#DejaVuSans-55"/>
       <use x="63.623047" xlink:href="#DejaVuSans-46"/>
       <use x="95.410156" xlink:href="#DejaVuSans-48"/>
       <use x="159.033203" xlink:href="#DejaVuSans-48"/>
      </g>
     </g>
    </g>
   </g>
   <g id="line2d_14">
    <path clip-path="url(#p7e12d07f08)" d="M 209.85089 525.24 
L 209.85089 402.93 
" style="fill:none;stroke:#ff6384;stroke-dasharray:5.55,2.4;stroke-dashoffset:0;stroke-opacity:0.8;stroke-width:1.5;"/>
   </g>
   <g id="line2d_15">
    <path clip-path="url(#p7e12d07f08)" d="M 305.054785 525.24 
L 305.054785 402.93 
" style="fill:none;stroke:#36a2eb;stroke-dasharray:5.55,2.4;stroke-dashoffset:0;stroke-opacity:0.8;stroke-width:1.5;"/>
   </g>
   <g id="line2d_16">
    <path clip-path="url(#p7e12d07f08)" d="M 206.434372 525.24 
L 206.434372 402.93 
" style="fill:none;stroke:#4bc0c0;stroke-dasharray:5.55,2.4;stroke-dashoffset:0;stroke-opacity:0.8;stroke-width:1.5;"/>
   </g>
   <g id="line2d_17">
    <path clip-path="url(#p7e12d07f08)" d="M 343.782959 525.24 
L 343.782959 402.93 
" style="fill:none;stroke:#9966ff;stroke-dasharray:5.55,2.4;stroke-dashoffset:0;stroke-opacity:0.8;stroke-width:1.5;"/>
   </g>
   <g id="patch_14">
    <path d="M 36 525.24 
L 538.2 525.24 
" style="fill:none;stroke:#000000;stroke-linecap:square;stroke-linejoin:miter;stroke-width:0.8;"/>
   </g>
  </g>
 </g>
 <defs>
  <clipPath id="pa869d73676">
   <rect height="366.93" width="502.2" x="36" y="36"/>
  </clipPath>
  <clipPath id="p7e12d07f08">
   <rect height="122.31" width="502.2" x="36" y="402.93"/>
  </clipPath>
 </defs>
</svg>
