<?xml version="1.0" encoding="utf-8" standalone="no"?>
<!DOCTYPE svg PUBLIC "-//W3C//DTD SVG 1.1//EN"
  "http://www.w3.org/Graphics/SVG/1.1/DTD/svg11.dtd">
<!-- Created with matplotlib (https://matplotlib.org/) -->
<svg height="581.789375pt" version="1.1" viewBox="0 0 574.2 581.789375" width="574.2pt" xmlns="http://www.w3.org/2000/svg" xmlns:xlink="http://www.w3.org/1999/xlink">
 <defs>
  <style type="text/css">
*{stroke-linecap:butt;stroke-linejoin:round;}
  </style>
 </defs>
 <g id="figure_1">
  <g id="patch_1">
   <path d="M 0 581.789375 
L 574.2 581.789375 
L 574.2 0 
L 0 0 
z
" style="fill:none;"/>
  </g>
  <g id="axes_1">
   <g id="patch_2">
    <path d="M 36 402.93 
L 538.2 402.93 
L 538.2 36 
L 36 36 
z
" style="fill:none;"/>
   </g>
   <g id="PolyCollection_1">
    <defs>
     <path d="M 71.509856 -195.538011 
L 71.509856 -195.649622 
L 75.799641 -195.691708 
L 80.089426 -195.748287 
L 84.37921 -195.823821 
L 88.668995 -195.923959 
L 92.95878 -196.055791 
L 97.248564 -196.228132 
L 101.538349 -196.451851 
L 105.828134 -196.740216 
L 110.117918 -197.109283 
L 114.407703 -197.578283 
L 118.697488 -198.170029 
L 122.987272 -198.911302 
L 127.277057 -199.833205 
L 131.566842 -200.971464 
L 135.856626 -202.366633 
L 140.146411 -204.064187 
L 144.436196 -206.114455 
L 148.72598 -208.572352 
L 153.015765 -211.496897 
L 157.30555 -214.950452 
L 161.595334 -218.997677 
L 165.885119 -223.704166 
L 170.174904 -229.134771 
L 174.464688 -235.351597 
L 178.754473 -242.411716 
L 183.044258 -250.364616 
L 187.334042 -259.249462 
L 191.623827 -269.092254 
L 195.913612 -279.902958 
L 200.203396 -291.672766 
L 204.493181 -304.371586 
L 208.782966 -317.945911 
L 213.07275 -332.317217 
L 217.362535 -347.381016 
L 221.65232 -363.006685 
L 225.942104 -379.038174 
L 230.231889 -395.295655 
L 234.521674 -411.578146 
L 238.811458 -427.667094 
L 243.101243 -443.330849 
L 247.391028 -458.329941 
L 251.680812 -472.42298 
L 255.970597 -485.373003 
L 260.260382 -496.954033 
L 264.550166 -506.957603 
L 268.839951 -515.198978 
L 273.129736 -521.522824 
L 277.41952 -525.808072 
L 281.709305 -527.971775 
L 285.99909 -527.971775 
L 290.288874 -525.808072 
L 294.578659 -521.522824 
L 298.868444 -515.198978 
L 303.158228 -506.957603 
L 307.448013 -496.954033 
L 311.737798 -485.373003 
L 316.027582 -472.42298 
L 320.317367 -458.329941 
L 324.607152 -443.330849 
L 328.896936 -427.667094 
L 333.186721 -411.578146 
L 337.476506 -395.295655 
L 341.76629 -379.038174 
L 346.056075 -363.006685 
L 350.34586 -347.381016 
L 354.635644 -332.317217 
L 358.925429 -317.945911 
L 363.215214 -304.371586 
L 367.504998 -291.672766 
L 371.794783 -279.902958 
L 376.084568 -269.092254 
L 380.374352 -259.249462 
L 384.664137 -250.364616 
L 388.953922 -242.411716 
L 393.243706 -235.351597 
L 397.533491 -229.134771 
L 401.823276 -223.704166 
L 406.11306 -218.997677 
L 410.402845 -214.950452 
L 414.69263 -211.496897 
L 418.982414 -208.572352 
L 423.272199 -206.114455 
L 427.561984 -204.064187 
L 431.851768 -202.366633 
L 436.141553 -200.971464 
L 440.431338 -199.833205 
L 444.721122 -198.911302 
L 449.010907 -198.170029 
L 453.300692 -197.578283 
L 457.590476 -197.109283 
L 461.880261 -196.740216 
L 466.170046 -196.451851 
L 470.45983 -196.228132 
L 474.749615 -196.055791 
L 479.0394 -195.923959 
L 483.329184 -195.823821 
L 487.618969 -195.748287 
L 491.908754 -195.691708 
L 496.198538 -195.649622 
L 496.198538 -195.538011 
L 496.198538 -195.538011 
L 491.908754 -195.538011 
L 487.618969 -195.538011 
L 483.329184 -195.538011 
L 479.0394 -195.538011 
L 474.749615 -195.538011 
L 470.45983 -195.538011 
L 466.170046 -195.538011 
L 461.880261 -195.538011 
L 457.590476 -195.538011 
L 453.300692 -195.538011 
L 449.010907 -195.538011 
L 444.721122 -195.538011 
L 440.431338 -195.538011 
L 436.141553 -195.538011 
L 431.851768 -195.538011 
L 427.561984 -195.538011 
L 423.272199 -195.538011 
L 418.982414 -195.538011 
L 414.69263 -195.538011 
L 410.402845 -195.538011 
L 406.11306 -195.538011 
L 401.823276 -195.538011 
L 397.533491 -195.538011 
L 393.243706 -195.538011 
L 388.953922 -195.538011 
L 384.664137 -195.538011 
L 380.374352 -195.538011 
L 376.084568 -195.538011 
L 371.794783 -195.538011 
L 367.504998 -195.538011 
L 363.215214 -195.538011 
L 358.925429 -195.538011 
L 354.635644 -195.538011 
L 350.34586 -195.538011 
L 346.056075 -195.538011 
L 341.76629 -195.538011 
L 337.476506 -195.538011 
L 333.186721 -195.538011 
L 328.896936 -195.538011 
L 324.607152 -195.538011 
L 320.317367 -195.538011 
L 316.027582 -195.538011 
L 311.737798 -195.538011 
L 307.448013 -195.538011 
L 303.158228 -195.538011 
L 298.868444 -195.538011 
L 294.578659 -195.538011 
L 290.288874 -195.538011 
L 285.99909 -195.538011 
L 281.709305 -195.538011 
L 277.41952 -195.538011 
L 273.129736 -195.538011 
L 268.839951 -195.538011 
L 264.550166 -195.538011 
L 260.260382 -195.538011 
L 255.970597 -195.538011 
L 251.680812 -195.538011 
L 247.391028 -195.538011 
L 243.101243 -195.538011 
L 238.811458 -195.538011 
L 234.521674 -195.538011 
L 230.231889 -195.538011 
L 225.942104 -195.538011 
L 221.65232 -195.538011 
L 217.362535 -195.538011 
L 213.07275 -195.538011 
L 208.782966 -195.538011 
L 204.493181 -195.538011 
L 200.203396 -195.538011 
L 195.913612 -195.538011 
L 191.623827 -195.538011 
L 187.334042 -195.538011 
L 183.044258 -195.538011 
L 178.754473 -195.538011 
L 174.464688 -195.538011 
L 170.174904 -195.538011 
L 165.885119 -195.538011 
L 161.595334 -195.538011 
L 157.30555 -195.538011 
L 153.015765 -195.538011 
L 148.72598 -195.538011 
L 144.436196 -195.538011 
L 140.146411 -195.538011 
L 135.856626 -195.538011 
L 131.566842 -195.538011 
L 127.277057 -195.538011 
L 122.987272 -195.538011 
L 118.697488 -195.538011 
L 114.407703 -195.538011 
L 110.117918 -195.538011 
L 105.828134 -195.538011 
L 101.538349 -195.538011 
L 97.248564 -195.538011 
L 92.95878 -195.538011 
L 88.668995 -195.538011 
L 84.37921 -195.538011 
L 80.089426 -195.538011 
L 75.799641 -195.538011 
L 71.509856 -195.538011 
z
" id="m69e06a5407" style="stroke:#ff6384;stroke-opacity:0.5;"/>
    </defs>
    <g clip-path="url(#pd708d96d2d)">
     <use style="fill:#ff6384;fill-opacity:0.5;stroke:#ff6384;stroke-opacity:0.5;" x="0" xlink:href="#m69e06a5407" y="581.789375"/>
    </g>
   </g>
   <g id="PolyCollection_2">
    <defs>
     <path d="M 76.60648 -195.538011 
L 76.60648 -195.649658 
L 80.894875 -195.691758 
L 85.183271 -195.748355 
L 89.471666 -195.823913 
L 93.760061 -195.924084 
L 98.048457 -196.055959 
L 102.336852 -196.228356 
L 106.625248 -196.452147 
L 110.913643 -196.740606 
L 115.202039 -197.109792 
L 119.490434 -197.578944 
L 123.77883 -198.170882 
L 128.067225 -198.912395 
L 132.355621 -199.834596 
L 136.644016 -200.973224 
L 140.932412 -202.368845 
L 145.220807 -204.066949 
L 149.509203 -206.117881 
L 153.797598 -208.576574 
L 158.085993 -211.502067 
L 162.374389 -214.956741 
L 166.662784 -219.005277 
L 170.95118 -223.71329 
L 175.239575 -229.145654 
L 179.527971 -235.364495 
L 183.816366 -242.426901 
L 188.104762 -250.382376 
L 192.393157 -259.270101 
L 196.681553 -269.116081 
L 200.969948 -279.930287 
L 205.258344 -291.703909 
L 209.546739 -304.406842 
L 213.835135 -317.985564 
L 218.12353 -332.361525 
L 222.411926 -347.430204 
L 226.700321 -363.060935 
L 230.988716 -379.097617 
L 235.277112 -395.360365 
L 239.565507 -411.648131 
L 243.853903 -427.74229 
L 248.142298 -443.41112 
L 252.430694 -458.415071 
L 256.719089 -472.512676 
L 261.007485 -485.466893 
L 265.29588 -497.051675 
L 269.584276 -507.058485 
L 273.872671 -515.302531 
L 278.161067 -521.628425 
L 282.449462 -525.915061 
L 286.737858 -528.079464 
L 291.026253 -528.079464 
L 295.314648 -525.915061 
L 299.603044 -521.628425 
L 303.891439 -515.302531 
L 308.179835 -507.058485 
L 312.46823 -497.051675 
L 316.756626 -485.466893 
L 321.045021 -472.512676 
L 325.333417 -458.415071 
L 329.621812 -443.41112 
L 333.910208 -427.74229 
L 338.198603 -411.648131 
L 342.486999 -395.360365 
L 346.775394 -379.097617 
L 351.06379 -363.060935 
L 355.352185 -347.430204 
L 359.64058 -332.361525 
L 363.928976 -317.985564 
L 368.217371 -304.406842 
L 372.505767 -291.703909 
L 376.794162 -279.930287 
L 381.082558 -269.116081 
L 385.370953 -259.270101 
L 389.659349 -250.382376 
L 393.947744 -242.426901 
L 398.23614 -235.364495 
L 402.524535 -229.145654 
L 406.812931 -223.71329 
L 411.101326 -219.005277 
L 415.389722 -214.956741 
L 419.678117 -211.502067 
L 423.966512 -208.576574 
L 428.254908 -206.117881 
L 432.543303 -204.066949 
L 436.831699 -202.368845 
L 441.120094 -200.973224 
L 445.40849 -199.834596 
L 449.696885 -198.912395 
L 453.985281 -198.170882 
L 458.273676 -197.578944 
L 462.562072 -197.109792 
L 466.850467 -196.740606 
L 471.138863 -196.452147 
L 475.427258 -196.228356 
L 479.715654 -196.055959 
L 484.004049 -195.924084 
L 488.292444 -195.823913 
L 492.58084 -195.748355 
L 496.869235 -195.691758 
L 501.157631 -195.649658 
L 501.157631 -195.538011 
L 501.157631 -195.538011 
L 496.869235 -195.538011 
L 492.58084 -195.538011 
L 488.292444 -195.538011 
L 484.004049 -195.538011 
L 479.715654 -195.538011 
L 475.427258 -195.538011 
L 471.138863 -195.538011 
L 466.850467 -195.538011 
L 462.562072 -195.538011 
L 458.273676 -195.538011 
L 453.985281 -195.538011 
L 449.696885 -195.538011 
L 445.40849 -195.538011 
L 441.120094 -195.538011 
L 436.831699 -195.538011 
L 432.543303 -195.538011 
L 428.254908 -195.538011 
L 423.966512 -195.538011 
L 419.678117 -195.538011 
L 415.389722 -195.538011 
L 411.101326 -195.538011 
L 406.812931 -195.538011 
L 402.524535 -195.538011 
L 398.23614 -195.538011 
L 393.947744 -195.538011 
L 389.659349 -195.538011 
L 385.370953 -195.538011 
L 381.082558 -195.538011 
L 376.794162 -195.538011 
L 372.505767 -195.538011 
L 368.217371 -195.538011 
L 363.928976 -195.538011 
L 359.64058 -195.538011 
L 355.352185 -195.538011 
L 351.06379 -195.538011 
L 346.775394 -195.538011 
L 342.486999 -195.538011 
L 338.198603 -195.538011 
L 333.910208 -195.538011 
L 329.621812 -195.538011 
L 325.333417 -195.538011 
L 321.045021 -195.538011 
L 316.756626 -195.538011 
L 312.46823 -195.538011 
L 308.179835 -195.538011 
L 303.891439 -195.538011 
L 299.603044 -195.538011 
L 295.314648 -195.538011 
L 291.026253 -195.538011 
L 286.737858 -195.538011 
L 282.449462 -195.538011 
L 278.161067 -195.538011 
L 273.872671 -195.538011 
L 269.584276 -195.538011 
L 265.29588 -195.538011 
L 261.007485 -195.538011 
L 256.719089 -195.538011 
L 252.430694 -195.538011 
L 248.142298 -195.538011 
L 243.853903 -195.538011 
L 239.565507 -195.538011 
L 235.277112 -195.538011 
L 230.988716 -195.538011 
L 226.700321 -195.538011 
L 222.411926 -195.538011 
L 218.12353 -195.538011 
L 213.835135 -195.538011 
L 209.546739 -195.538011 
L 205.258344 -195.538011 
L 200.969948 -195.538011 
L 196.681553 -195.538011 
L 192.393157 -195.538011 
L 188.104762 -195.538011 
L 183.816366 -195.538011 
L 179.527971 -195.538011 
L 175.239575 -195.538011 
L 170.95118 -195.538011 
L 166.662784 -195.538011 
L 162.374389 -195.538011 
L 158.085993 -195.538011 
L 153.797598 -195.538011 
L 149.509203 -195.538011 
L 145.220807 -195.538011 
L 140.932412 -195.538011 
L 136.644016 -195.538011 
L 132.355621 -195.538011 
L 128.067225 -195.538011 
L 123.77883 -195.538011 
L 119.490434 -195.538011 
L 115.202039 -195.538011 
L 110.913643 -195.538011 
L 106.625248 -195.538011 
L 102.336852 -195.538011 
L 98.048457 -195.538011 
L 93.760061 -195.538011 
L 89.471666 -195.538011 
L 85.183271 -195.538011 
L 80.894875 -195.538011 
L 76.60648 -195.538011 
z
" id="m6c13a54bfc" style="stroke:#36a2eb;stroke-opacity:0.5;"/>
    </defs>
    <g clip-path="url(#pd708d96d2d)">
     <use style="fill:#36a2eb;fill-opacity:0.5;stroke:#36a2eb;stroke-opacity:0.5;" x="0" xlink:href="#m6c13a54bfc" y="581.789375"/>
    </g>
   </g>
   <g id="PolyCollection_3">
    <defs>
     <path d="M 58.827273 -195.538011 
L 58.827273 -195.650004 
L 63.10241 -195.692234 
L 67.377548 -195.749007 
L 71.652685 -195.8248 
L 75.927823 -195.925281 
L 80.20296 -196.057565 
L 84.478097 -196.230497 
L 88.753235 -196.454982 
L 93.028372 -196.744335 
L 97.30351 -197.114666 
L 101.578647 -197.585273 
L 105.853785 -198.179047 
L 110.128922 -198.922859 
L 114.40406 -199.847921 
L 118.679197 -200.990079 
L 122.954335 -202.390029 
L 127.229472 -204.093399 
L 131.504609 -206.150691 
L 135.779747 -208.617009 
L 140.054884 -211.551575 
L 144.330022 -215.016962 
L 148.605159 -219.078053 
L 152.880297 -223.800667 
L 157.155434 -229.249878 
L 161.430572 -235.488004 
L 165.705709 -242.572312 
L 169.980846 -250.552459 
L 174.255984 -259.467747 
L 178.531121 -269.344261 
L 182.806259 -280.192004 
L 187.081396 -292.002137 
L 191.356534 -304.744465 
L 195.631671 -318.365297 
L 199.906809 -332.785841 
L 204.181946 -347.901251 
L 208.457084 -363.580456 
L 212.732221 -379.666871 
L 217.007358 -395.980052 
L 221.282496 -412.31833 
L 225.557633 -428.4624 
L 229.832771 -444.179822 
L 234.107908 -459.230303 
L 238.383046 -473.371627 
L 242.658183 -486.366018 
L 246.933321 -497.986726 
L 251.208458 -508.02457 
L 255.483596 -516.294181 
L 259.758733 -522.639693 
L 264.03387 -526.939623 
L 268.309008 -529.110739 
L 272.584145 -529.110739 
L 276.859283 -526.939623 
L 281.13442 -522.639693 
L 285.409558 -516.294181 
L 289.684695 -508.02457 
L 293.959833 -497.986726 
L 298.23497 -486.366018 
L 302.510108 -473.371627 
L 306.785245 -459.230303 
L 311.060382 -444.179822 
L 315.33552 -428.4624 
L 319.610657 -412.31833 
L 323.885795 -395.980052 
L 328.160932 -379.666871 
L 332.43607 -363.580456 
L 336.711207 -347.901251 
L 340.986345 -332.785841 
L 345.261482 -318.365297 
L 349.53662 -304.744465 
L 353.811757 -292.002137 
L 358.086894 -280.192004 
L 362.362032 -269.344261 
L 366.637169 -259.467747 
L 370.912307 -250.552459 
L 375.187444 -242.572312 
L 379.462582 -235.488004 
L 383.737719 -229.249878 
L 388.012857 -223.800667 
L 392.287994 -219.078053 
L 396.563131 -215.016962 
L 400.838269 -211.551575 
L 405.113406 -208.617009 
L 409.388544 -206.150691 
L 413.663681 -204.093399 
L 417.938819 -202.390029 
L 422.213956 -200.990079 
L 426.489094 -199.847921 
L 430.764231 -198.922859 
L 435.039369 -198.179047 
L 439.314506 -197.585273 
L 443.589643 -197.114666 
L 447.864781 -196.744335 
L 452.139918 -196.454982 
L 456.415056 -196.230497 
L 460.690193 -196.057565 
L 464.965331 -195.925281 
L 469.240468 -195.8248 
L 473.515606 -195.749007 
L 477.790743 -195.692234 
L 482.065881 -195.650004 
L 482.065881 -195.538011 
L 482.065881 -195.538011 
L 477.790743 -195.538011 
L 473.515606 -195.538011 
L 469.240468 -195.538011 
L 464.965331 -195.538011 
L 460.690193 -195.538011 
L 456.415056 -195.538011 
L 452.139918 -195.538011 
L 447.864781 -195.538011 
L 443.589643 -195.538011 
L 439.314506 -195.538011 
L 435.039369 -195.538011 
L 430.764231 -195.538011 
L 426.489094 -195.538011 
L 422.213956 -195.538011 
L 417.938819 -195.538011 
L 413.663681 -195.538011 
L 409.388544 -195.538011 
L 405.113406 -195.538011 
L 400.838269 -195.538011 
L 396.563131 -195.538011 
L 392.287994 -195.538011 
L 388.012857 -195.538011 
L 383.737719 -195.538011 
L 379.462582 -195.538011 
L 375.187444 -195.538011 
L 370.912307 -195.538011 
L 366.637169 -195.538011 
L 362.362032 -195.538011 
L 358.086894 -195.538011 
L 353.811757 -195.538011 
L 349.53662 -195.538011 
L 345.261482 -195.538011 
L 340.986345 -195.538011 
L 336.711207 -195.538011 
L 332.43607 -195.538011 
L 328.160932 -195.538011 
L 323.885795 -195.538011 
L 319.610657 -195.538011 
L 315.33552 -195.538011 
L 311.060382 -195.538011 
L 306.785245 -195.538011 
L 302.510108 -195.538011 
L 298.23497 -195.538011 
L 293.959833 -195.538011 
L 289.684695 -195.538011 
L 285.409558 -195.538011 
L 281.13442 -195.538011 
L 276.859283 -195.538011 
L 272.584145 -195.538011 
L 268.309008 -195.538011 
L 264.03387 -195.538011 
L 259.758733 -195.538011 
L 255.483596 -195.538011 
L 251.208458 -195.538011 
L 246.933321 -195.538011 
L 242.658183 -195.538011 
L 238.383046 -195.538011 
L 234.107908 -195.538011 
L 229.832771 -195.538011 
L 225.557633 -195.538011 
L 221.282496 -195.538011 
L 217.007358 -195.538011 
L 212.732221 -195.538011 
L 208.457084 -195.538011 
L 204.181946 -195.538011 
L 199.906809 -195.538011 
L 195.631671 -195.538011 
L 191.356534 -195.538011 
L 187.081396 -195.538011 
L 182.806259 -195.538011 
L 178.531121 -195.538011 
L 174.255984 -195.538011 
L 169.980846 -195.538011 
L 165.705709 -195.538011 
L 161.430572 -195.538011 
L 157.155434 -195.538011 
L 152.880297 -195.538011 
L 148.605159 -195.538011 
L 144.330022 -195.538011 
L 140.054884 -195.538011 
L 135.779747 -195.538011 
L 131.504609 -195.538011 
L 127.229472 -195.538011 
L 122.954335 -195.538011 
L 118.679197 -195.538011 
L 114.40406 -195.538011 
L 110.128922 -195.538011 
L 105.853785 -195.538011 
L 101.578647 -195.538011 
L 97.30351 -195.538011 
L 93.028372 -195.538011 
L 88.753235 -195.538011 
L 84.478097 -195.538011 
L 80.20296 -195.538011 
L 75.927823 -195.538011 
L 71.652685 -195.538011 
L 67.377548 -195.538011 
L 63.10241 -195.538011 
L 58.827273 -195.538011 
z
" id="m2d1fafbbe0" style="stroke:#4bc0c0;stroke-opacity:0.5;"/>
    </defs>
    <g clip-path="url(#pd708d96d2d)">
     <use style="fill:#4bc0c0;fill-opacity:0.5;stroke:#4bc0c0;stroke-opacity:0.5;" x="0" xlink:href="#m2d1fafbbe0" y="581.789375"/>
    </g>
   </g>
   <g id="PolyCollection_4">
    <defs>
     <path d="M 89.206625 -195.538011 
L 89.206625 -195.649235 
L 93.511333 -195.691175 
L 97.816041 -195.747558 
L 102.120749 -195.82283 
L 106.425457 -195.922621 
L 110.730165 -196.053996 
L 115.034873 -196.22574 
L 119.339582 -196.448683 
L 123.64429 -196.736048 
L 127.948998 -197.103835 
L 132.253706 -197.57121 
L 136.558414 -198.160904 
L 140.863122 -198.899607 
L 145.16783 -199.818315 
L 149.472538 -200.952627 
L 153.777246 -202.342959 
L 158.081955 -204.034629 
L 162.386663 -206.077788 
L 166.691371 -208.527165 
L 170.996079 -211.441571 
L 175.300787 -214.883154 
L 179.605495 -218.916348 
L 183.910203 -223.606521 
L 188.214911 -229.018298 
L 192.519619 -235.213573 
L 196.824327 -242.249216 
L 201.129036 -250.174544 
L 205.433744 -259.028589 
L 209.738452 -268.837258 
L 214.04316 -279.610484 
L 218.347868 -291.339489 
L 222.652576 -303.994285 
L 226.957284 -317.521551 
L 231.261992 -331.843034 
L 235.5667 -346.854611 
L 239.871409 -362.426109 
L 244.176117 -378.402021 
L 248.480825 -394.603141 
L 252.785533 -410.829185 
L 257.090241 -426.862355 
L 261.394949 -442.471808 
L 265.699657 -457.418902 
L 270.004365 -471.463083 
L 274.309073 -484.368211 
L 278.613781 -495.909093 
L 282.91849 -505.877983 
L 287.223198 -514.090787 
L 291.527906 -520.392709 
L 295.832614 -524.663101 
L 300.137322 -526.819303 
L 304.44203 -526.819303 
L 308.746738 -524.663101 
L 313.051446 -520.392709 
L 317.356154 -514.090787 
L 321.660863 -505.877983 
L 325.965571 -495.909093 
L 330.270279 -484.368211 
L 334.574987 -471.463083 
L 338.879695 -457.418902 
L 343.184403 -442.471808 
L 347.489111 -426.862355 
L 351.793819 -410.829185 
L 356.098527 -394.603141 
L 360.403235 -378.402021 
L 364.707944 -362.426109 
L 369.012652 -346.854611 
L 373.31736 -331.843034 
L 377.622068 -317.521551 
L 381.926776 -303.994285 
L 386.231484 -291.339489 
L 390.536192 -279.610484 
L 394.8409 -268.837258 
L 399.145608 -259.028589 
L 403.450317 -250.174544 
L 407.755025 -242.249216 
L 412.059733 -235.213573 
L 416.364441 -229.018298 
L 420.669149 -223.606521 
L 424.973857 -218.916348 
L 429.278565 -214.883154 
L 433.583273 -211.441571 
L 437.887981 -208.527165 
L 442.192689 -206.077788 
L 446.497398 -204.034629 
L 450.802106 -202.342959 
L 455.106814 -200.952627 
L 459.411522 -199.818315 
L 463.71623 -198.899607 
L 468.020938 -198.160904 
L 472.325646 -197.57121 
L 476.630354 -197.103835 
L 480.935062 -196.736048 
L 485.239771 -196.448683 
L 489.544479 -196.22574 
L 493.849187 -196.053996 
L 498.153895 -195.922621 
L 502.458603 -195.82283 
L 506.763311 -195.747558 
L 511.068019 -195.691175 
L 515.372727 -195.649235 
L 515.372727 -195.538011 
L 515.372727 -195.538011 
L 511.068019 -195.538011 
L 506.763311 -195.538011 
L 502.458603 -195.538011 
L 498.153895 -195.538011 
L 493.849187 -195.538011 
L 489.544479 -195.538011 
L 485.239771 -195.538011 
L 480.935062 -195.538011 
L 476.630354 -195.538011 
L 472.325646 -195.538011 
L 468.020938 -195.538011 
L 463.71623 -195.538011 
L 459.411522 -195.538011 
L 455.106814 -195.538011 
L 450.802106 -195.538011 
L 446.497398 -195.538011 
L 442.192689 -195.538011 
L 437.887981 -195.538011 
L 433.583273 -195.538011 
L 429.278565 -195.538011 
L 424.973857 -195.538011 
L 420.669149 -195.538011 
L 416.364441 -195.538011 
L 412.059733 -195.538011 
L 407.755025 -195.538011 
L 403.450317 -195.538011 
L 399.145608 -195.538011 
L 394.8409 -195.538011 
L 390.536192 -195.538011 
L 386.231484 -195.538011 
L 381.926776 -195.538011 
L 377.622068 -195.538011 
L 373.31736 -195.538011 
L 369.012652 -195.538011 
L 364.707944 -195.538011 
L 360.403235 -195.538011 
L 356.098527 -195.538011 
L 351.793819 -195.538011 
L 347.489111 -195.538011 
L 343.184403 -195.538011 
L 338.879695 -195.538011 
L 334.574987 -195.538011 
L 330.270279 -195.538011 
L 325.965571 -195.538011 
L 321.660863 -195.538011 
L 317.356154 -195.538011 
L 313.051446 -195.538011 
L 308.746738 -195.538011 
L 304.44203 -195.538011 
L 300.137322 -195.538011 
L 295.832614 -195.538011 
L 291.527906 -195.538011 
L 287.223198 -195.538011 
L 282.91849 -195.538011 
L 278.613781 -195.538011 
L 274.309073 -195.538011 
L 270.004365 -195.538011 
L 265.699657 -195.538011 
L 261.394949 -195.538011 
L 257.090241 -195.538011 
L 252.785533 -195.538011 
L 248.480825 -195.538011 
L 244.176117 -195.538011 
L 239.871409 -195.538011 
L 235.5667 -195.538011 
L 231.261992 -195.538011 
L 226.957284 -195.538011 
L 222.652576 -195.538011 
L 218.347868 -195.538011 
L 214.04316 -195.538011 
L 209.738452 -195.538011 
L 205.433744 -195.538011 
L 201.129036 -195.538011 
L 196.824327 -195.538011 
L 192.519619 -195.538011 
L 188.214911 -195.538011 
L 183.910203 -195.538011 
L 179.605495 -195.538011 
L 175.300787 -195.538011 
L 170.996079 -195.538011 
L 166.691371 -195.538011 
L 162.386663 -195.538011 
L 158.081955 -195.538011 
L 153.777246 -195.538011 
L 149.472538 -195.538011 
L 145.16783 -195.538011 
L 140.863122 -195.538011 
L 136.558414 -195.538011 
L 132.253706 -195.538011 
L 127.948998 -195.538011 
L 123.64429 -195.538011 
L 119.339582 -195.538011 
L 115.034873 -195.538011 
L 110.730165 -195.538011 
L 106.425457 -195.538011 
L 102.120749 -195.538011 
L 97.816041 -195.538011 
L 93.511333 -195.538011 
L 89.206625 -195.538011 
z
" id="ma772d4a495" style="stroke:#9966ff;stroke-opacity:0.5;"/>
    </defs>
    <g clip-path="url(#pd708d96d2d)">
     <use style="fill:#9966ff;fill-opacity:0.5;stroke:#9966ff;stroke-opacity:0.5;" x="0" xlink:href="#ma772d4a495" y="581.789375"/>
    </g>
   </g>
   <g id="line2d_1">
    <path clip-path="url(#pd708d96d2d)" d="M 71.509856 386.139753 
L 75.799641 386.097667 
L 80.089426 386.041088 
L 84.37921 385.965554 
L 88.668995 385.865416 
L 92.95878 385.733584 
L 97.248564 385.561243 
L 101.538349 385.337524 
L 105.828134 385.049159 
L 110.117918 384.680092 
L 114.407703 384.211092 
L 118.697488 383.619346 
L 122.987272 382.878073 
L 127.277057 381.95617 
L 131.566842 380.817911 
L 135.856626 379.422742 
L 140.146411 377.725188 
L 144.436196 375.67492 
L 148.72598 373.217023 
L 153.015765 370.292478 
L 157.30555 366.838923 
L 161.595334 362.791698 
L 165.885119 358.085209 
L 170.174904 352.654604 
L 174.464688 346.437778 
L 178.754473 339.377659 
L 183.044258 331.424759 
L 187.334042 322.539913 
L 191.623827 312.697121 
L 195.913612 301.886417 
L 200.203396 290.116609 
L 204.493181 277.417789 
L 208.782966 263.843464 
L 213.07275 249.472158 
L 217.362535 234.408359 
L 221.65232 218.78269 
L 225.942104 202.751201 
L 230.231889 186.49372 
L 234.521674 170.211229 
L 238.811458 154.122281 
L 243.101243 138.458526 
L 247.391028 123.459434 
L 251.680812 109.366395 
L 255.970597 96.416372 
L 260.260382 84.835342 
L 264.550166 74.831772 
L 268.839951 66.590397 
L 273.129736 60.266551 
L 277.41952 55.981303 
L 281.709305 53.8176 
L 285.99909 53.8176 
L 290.288874 55.981303 
L 294.578659 60.266551 
L 298.868444 66.590397 
L 303.158228 74.831772 
L 307.448013 84.835342 
L 311.737798 96.416372 
L 316.027582 109.366395 
L 320.317367 123.459434 
L 324.607152 138.458526 
L 328.896936 154.122281 
L 333.186721 170.211229 
L 337.476506 186.49372 
L 341.76629 202.751201 
L 346.056075 218.78269 
L 350.34586 234.408359 
L 354.635644 249.472158 
L 358.925429 263.843464 
L 363.215214 277.417789 
L 367.504998 290.116609 
L 371.794783 301.886417 
L 376.084568 312.697121 
L 380.374352 322.539913 
L 384.664137 331.424759 
L 388.953922 339.377659 
L 393.243706 346.437778 
L 397.533491 352.654604 
L 401.823276 358.085209 
L 406.11306 362.791698 
L 410.402845 366.838923 
L 414.69263 370.292478 
L 418.982414 373.217023 
L 423.272199 375.67492 
L 427.561984 377.725188 
L 431.851768 379.422742 
L 436.141553 380.817911 
L 440.431338 381.95617 
L 444.721122 382.878073 
L 449.010907 383.619346 
L 453.300692 384.211092 
L 457.590476 384.680092 
L 461.880261 385.049159 
L 466.170046 385.337524 
L 470.45983 385.561243 
L 474.749615 385.733584 
L 479.0394 385.865416 
L 483.329184 385.965554 
L 487.618969 386.041088 
L 491.908754 386.097667 
L 496.198538 386.139753 
" style="fill:none;stroke:#ff6384;stroke-linecap:square;"/>
   </g>
   <g id="line2d_2">
    <path clip-path="url(#pd708d96d2d)" d="M 76.60648 386.139717 
L 80.894875 386.097617 
L 85.183271 386.04102 
L 89.471666 385.965462 
L 93.760061 385.865291 
L 98.048457 385.733416 
L 102.336852 385.561019 
L 106.625248 385.337228 
L 110.913643 385.048769 
L 115.202039 384.679583 
L 119.490434 384.210431 
L 123.77883 383.618493 
L 128.067225 382.87698 
L 132.355621 381.954779 
L 136.644016 380.816151 
L 140.932412 379.42053 
L 145.220807 377.722426 
L 149.509203 375.671494 
L 153.797598 373.212801 
L 158.085993 370.287308 
L 162.374389 366.832634 
L 166.662784 362.784098 
L 170.95118 358.076085 
L 175.239575 352.643721 
L 179.527971 346.42488 
L 183.816366 339.362474 
L 188.104762 331.406999 
L 192.393157 322.519274 
L 196.681553 312.673294 
L 200.969948 301.859088 
L 205.258344 290.085466 
L 209.546739 277.382533 
L 213.835135 263.803811 
L 218.12353 249.42785 
L 222.411926 234.359171 
L 226.700321 218.72844 
L 230.988716 202.691758 
L 235.277112 186.42901 
L 239.565507 170.141244 
L 243.853903 154.047085 
L 248.142298 138.378255 
L 252.430694 123.374304 
L 256.719089 109.276699 
L 261.007485 96.322482 
L 265.29588 84.7377 
L 269.584276 74.73089 
L 273.872671 66.486844 
L 278.161067 60.16095 
L 282.449462 55.874314 
L 286.737858 53.709911 
L 291.026253 53.709911 
L 295.314648 55.874314 
L 299.603044 60.16095 
L 303.891439 66.486844 
L 308.179835 74.73089 
L 312.46823 84.7377 
L 316.756626 96.322482 
L 321.045021 109.276699 
L 325.333417 123.374304 
L 329.621812 138.378255 
L 333.910208 154.047085 
L 338.198603 170.141244 
L 342.486999 186.42901 
L 346.775394 202.691758 
L 351.06379 218.72844 
L 355.352185 234.359171 
L 359.64058 249.42785 
L 363.928976 263.803811 
L 368.217371 277.382533 
L 372.505767 290.085466 
L 376.794162 301.859088 
L 381.082558 312.673294 
L 385.370953 322.519274 
L 389.659349 331.406999 
L 393.947744 339.362474 
L 398.23614 346.42488 
L 402.524535 352.643721 
L 406.812931 358.076085 
L 411.101326 362.784098 
L 415.389722 366.832634 
L 419.678117 370.287308 
L 423.966512 373.212801 
L 428.254908 375.671494 
L 432.543303 377.722426 
L 436.831699 379.42053 
L 441.120094 380.816151 
L 445.40849 381.954779 
L 449.696885 382.87698 
L 453.985281 383.618493 
L 458.273676 384.210431 
L 462.562072 384.679583 
L 466.850467 385.048769 
L 471.138863 385.337228 
L 475.427258 385.561019 
L 479.715654 385.733416 
L 484.004049 385.865291 
L 488.292444 385.965462 
L 492.58084 386.04102 
L 496.869235 386.097617 
L 501.157631 386.139717 
" style="fill:none;stroke:#36a2eb;stroke-linecap:square;"/>
   </g>
   <g id="line2d_3">
    <path clip-path="url(#pd708d96d2d)" d="M 58.827273 386.139371 
L 63.10241 386.097141 
L 67.377548 386.040368 
L 71.652685 385.964575 
L 75.927823 385.864094 
L 80.20296 385.73181 
L 84.478097 385.558878 
L 88.753235 385.334393 
L 93.028372 385.04504 
L 97.30351 384.674709 
L 101.578647 384.204102 
L 105.853785 383.610328 
L 110.128922 382.866516 
L 114.40406 381.941454 
L 118.679197 380.799296 
L 122.954335 379.399346 
L 127.229472 377.695976 
L 131.504609 375.638684 
L 135.779747 373.172366 
L 140.054884 370.2378 
L 144.330022 366.772413 
L 148.605159 362.711322 
L 152.880297 357.988708 
L 157.155434 352.539497 
L 161.430572 346.301371 
L 165.705709 339.217063 
L 169.980846 331.236916 
L 174.255984 322.321628 
L 178.531121 312.445114 
L 182.806259 301.597371 
L 187.081396 289.787238 
L 191.356534 277.04491 
L 195.631671 263.424078 
L 199.906809 249.003534 
L 204.181946 233.888124 
L 208.457084 218.208919 
L 212.732221 202.122504 
L 217.007358 185.809323 
L 221.282496 169.471045 
L 225.557633 153.326975 
L 229.832771 137.609553 
L 234.107908 122.559072 
L 238.383046 108.417748 
L 242.658183 95.423357 
L 246.933321 83.802649 
L 251.208458 73.764805 
L 255.483596 65.495194 
L 259.758733 59.149682 
L 264.03387 54.849752 
L 268.309008 52.678636 
L 272.584145 52.678636 
L 276.859283 54.849752 
L 281.13442 59.149682 
L 285.409558 65.495194 
L 289.684695 73.764805 
L 293.959833 83.802649 
L 298.23497 95.423357 
L 302.510108 108.417748 
L 306.785245 122.559072 
L 311.060382 137.609553 
L 315.33552 153.326975 
L 319.610657 169.471045 
L 323.885795 185.809323 
L 328.160932 202.122504 
L 332.43607 218.208919 
L 336.711207 233.888124 
L 340.986345 249.003534 
L 345.261482 263.424078 
L 349.53662 277.04491 
L 353.811757 289.787238 
L 358.086894 301.597371 
L 362.362032 312.445114 
L 366.637169 322.321628 
L 370.912307 331.236916 
L 375.187444 339.217063 
L 379.462582 346.301371 
L 383.737719 352.539497 
L 388.012857 357.988708 
L 392.287994 362.711322 
L 396.563131 366.772413 
L 400.838269 370.2378 
L 405.113406 373.172366 
L 409.388544 375.638684 
L 413.663681 377.695976 
L 417.938819 379.399346 
L 422.213956 380.799296 
L 426.489094 381.941454 
L 430.764231 382.866516 
L 435.039369 383.610328 
L 439.314506 384.204102 
L 443.589643 384.674709 
L 447.864781 385.04504 
L 452.139918 385.334393 
L 456.415056 385.558878 
L 460.690193 385.73181 
L 464.965331 385.864094 
L 469.240468 385.964575 
L 473.515606 386.040368 
L 477.790743 386.097141 
L 482.065881 386.139371 
" style="fill:none;stroke:#4bc0c0;stroke-linecap:square;"/>
   </g>
   <g id="line2d_4">
    <path clip-path="url(#pd708d96d2d)" d="M 89.206625 386.14014 
L 93.511333 386.0982 
L 97.816041 386.041817 
L 102.120749 385.966545 
L 106.425457 385.866754 
L 110.730165 385.735379 
L 115.034873 385.563635 
L 119.339582 385.340692 
L 123.64429 385.053327 
L 127.948998 384.68554 
L 132.253706 384.218165 
L 136.558414 383.628471 
L 140.863122 382.889768 
L 145.16783 381.97106 
L 149.472538 380.836748 
L 153.777246 379.446416 
L 158.081955 377.754746 
L 162.386663 375.711587 
L 166.691371 373.26221 
L 170.996079 370.347804 
L 175.300787 366.906221 
L 179.605495 362.873027 
L 183.910203 358.182854 
L 188.214911 352.771077 
L 192.519619 346.575802 
L 196.824327 339.540159 
L 201.129036 331.614831 
L 205.433744 322.760786 
L 209.738452 312.952117 
L 214.04316 302.178891 
L 218.347868 290.449886 
L 222.652576 277.79509 
L 226.957284 264.267824 
L 231.261992 249.946341 
L 235.5667 234.934764 
L 239.871409 219.363266 
L 244.176117 203.387354 
L 248.480825 187.186234 
L 252.785533 170.96019 
L 257.090241 154.92702 
L 261.394949 139.317567 
L 265.699657 124.370473 
L 270.004365 110.326292 
L 274.309073 97.421164 
L 278.613781 85.880282 
L 282.91849 75.911392 
L 287.223198 67.698588 
L 291.527906 61.396666 
L 295.832614 57.126274 
L 300.137322 54.970072 
L 304.44203 54.970072 
L 308.746738 57.126274 
L 313.051446 61.396666 
L 317.356154 67.698588 
L 321.660863 75.911392 
L 325.965571 85.880282 
L 330.270279 97.421164 
L 334.574987 110.326292 
L 338.879695 124.370473 
L 343.184403 139.317567 
L 347.489111 154.92702 
L 351.793819 170.96019 
L 356.098527 187.186234 
L 360.403235 203.387354 
L 364.707944 219.363266 
L 369.012652 234.934764 
L 373.31736 249.946341 
L 377.622068 264.267824 
L 381.926776 277.79509 
L 386.231484 290.449886 
L 390.536192 302.178891 
L 394.8409 312.952117 
L 399.145608 322.760786 
L 403.450317 331.614831 
L 407.755025 339.540159 
L 412.059733 346.575802 
L 416.364441 352.771077 
L 420.669149 358.182854 
L 424.973857 362.873027 
L 429.278565 366.906221 
L 433.583273 370.347804 
L 437.887981 373.26221 
L 442.192689 375.711587 
L 446.497398 377.754746 
L 450.802106 379.446416 
L 455.106814 380.836748 
L 459.411522 381.97106 
L 463.71623 382.889768 
L 468.020938 383.628471 
L 472.325646 384.218165 
L 476.630354 384.68554 
L 480.935062 385.053327 
L 485.239771 385.340692 
L 489.544479 385.563635 
L 493.849187 385.735379 
L 498.153895 385.866754 
L 502.458603 385.966545 
L 506.763311 386.041817 
L 511.068019 386.0982 
L 515.372727 386.14014 
" style="fill:none;stroke:#9966ff;stroke-linecap:square;"/>
   </g>
   <g id="patch_3">
    <path d="M 36 402.93 
L 538.2 402.93 
" style="fill:none;stroke:#000000;stroke-linecap:square;stroke-linejoin:miter;stroke-width:0.8;"/>
   </g>
   <g id="legend_1">
    <g id="patch_4">
     <path d="M 450.225313 129.3975 
L 528.4 129.3975 
Q 531.2 129.3975 531.2 126.5975 
L 531.2 45.8 
Q 531.2 43 528.4 43 
L 450.225313 43 
Q 447.425313 43 447.425313 45.8 
L 447.425313 126.5975 
Q 447.425313 129.3975 450.225313 129.3975 
z
" style="fill:#ffffff;opacity:0.8;stroke:#cccccc;stroke-linejoin:miter;"/>
    </g>
    <g id="patch_5">
     <path d="M 453.025313 59.237813 
L 481.025313 59.237813 
L 481.025313 49.437813 
L 453.025313 49.437813 
z
" style="fill:#ff6384;opacity:0.5;stroke:#ff6384;stroke-linejoin:miter;"/>
    </g>
    <g id="text_1">
     <!-- base -->
     <defs>
      <path d="M 48.6875 27.296875 
Q 48.6875 37.203125 44.609375 42.84375 
Q 40.53125 48.484375 33.40625 48.484375 
Q 26.265625 48.484375 22.1875 42.84375 
Q 18.109375 37.203125 18.109375 27.296875 
Q 18.109375 17.390625 22.1875 11.75 
Q 26.265625 6.109375 33.40625 6.109375 
Q 40.53125 6.109375 44.609375 11.75 
Q 48.6875 17.390625 48.6875 27.296875 
z
M 18.109375 46.390625 
Q 20.953125 51.265625 25.265625 53.625 
Q 29.59375 56 35.59375 56 
Q 45.5625 56 51.78125 48.09375 
Q 58.015625 40.1875 58.015625 27.296875 
Q 58.015625 14.40625 51.78125 6.484375 
Q 45.5625 -1.421875 35.59375 -1.421875 
Q 29.59375 -1.421875 25.265625 0.953125 
Q 20.953125 3.328125 18.109375 8.203125 
L 18.109375 0 
L 9.078125 0 
L 9.078125 75.984375 
L 18.109375 75.984375 
z
" id="DejaVuSans-98"/>
      <path d="M 34.28125 27.484375 
Q 23.390625 27.484375 19.1875 25 
Q 14.984375 22.515625 14.984375 16.5 
Q 14.984375 11.71875 18.140625 8.90625 
Q 21.296875 6.109375 26.703125 6.109375 
Q 34.1875 6.109375 38.703125 11.40625 
Q 43.21875 16.703125 43.21875 25.484375 
L 43.21875 27.484375 
z
M 52.203125 31.203125 
L 52.203125 0 
L 43.21875 0 
L 43.21875 8.296875 
Q 40.140625 3.328125 35.546875 0.953125 
Q 30.953125 -1.421875 24.3125 -1.421875 
Q 15.921875 -1.421875 10.953125 3.296875 
Q 6 8.015625 6 15.921875 
Q 6 25.140625 12.171875 29.828125 
Q 18.359375 34.515625 30.609375 34.515625 
L 43.21875 34.515625 
L 43.21875 35.40625 
Q 43.21875 41.609375 39.140625 45 
Q 35.0625 48.390625 27.6875 48.390625 
Q 23 48.390625 18.546875 47.265625 
Q 14.109375 46.140625 10.015625 43.890625 
L 10.015625 52.203125 
Q 14.9375 54.109375 19.578125 55.046875 
Q 24.21875 56 28.609375 56 
Q 40.484375 56 46.34375 49.84375 
Q 52.203125 43.703125 52.203125 31.203125 
z
" id="DejaVuSans-97"/>
      <path d="M 44.28125 53.078125 
L 44.28125 44.578125 
Q 40.484375 46.53125 36.375 47.5 
Q 32.28125 48.484375 27.875 48.484375 
Q 21.1875 48.484375 17.84375 46.4375 
Q 14.5 44.390625 14.5 40.28125 
Q 14.5 37.15625 16.890625 35.375 
Q 19.28125 33.59375 26.515625 31.984375 
L 29.59375 31.296875 
Q 39.15625 29.25 43.1875 25.515625 
Q 47.21875 21.78125 47.21875 15.09375 
Q 47.21875 7.46875 41.1875 3.015625 
Q 35.15625 -1.421875 24.609375 -1.421875 
Q 20.21875 -1.421875 15.453125 -0.5625 
Q 10.6875 0.296875 5.421875 2 
L 5.421875 11.28125 
Q 10.40625 8.6875 15.234375 7.390625 
Q 20.0625 6.109375 24.8125 6.109375 
Q 31.15625 6.109375 34.5625 8.28125 
Q 37.984375 10.453125 37.984375 14.40625 
Q 37.984375 18.0625 35.515625 20.015625 
Q 33.0625 21.96875 24.703125 23.78125 
L 21.578125 24.515625 
Q 13.234375 26.265625 9.515625 29.90625 
Q 5.8125 33.546875 5.8125 39.890625 
Q 5.8125 47.609375 11.28125 51.796875 
Q 16.75 56 26.8125 56 
Q 31.78125 56 36.171875 55.265625 
Q 40.578125 54.546875 44.28125 53.078125 
z
" id="DejaVuSans-115"/>
      <path d="M 56.203125 29.59375 
L 56.203125 25.203125 
L 14.890625 25.203125 
Q 15.484375 15.921875 20.484375 11.0625 
Q 25.484375 6.203125 34.421875 6.203125 
Q 39.59375 6.203125 44.453125 7.46875 
Q 49.3125 8.734375 54.109375 11.28125 
L 54.109375 2.78125 
Q 49.265625 0.734375 44.1875 -0.34375 
Q 39.109375 -1.421875 33.890625 -1.421875 
Q 20.796875 -1.421875 13.15625 6.1875 
Q 5.515625 13.8125 5.515625 26.8125 
Q 5.515625 40.234375 12.765625 48.109375 
Q 20.015625 56 32.328125 56 
Q 43.359375 56 49.78125 48.890625 
Q 56.203125 41.796875 56.203125 29.59375 
z
M 47.21875 32.234375 
Q 47.125 39.59375 43.09375 43.984375 
Q 39.0625 48.390625 32.421875 48.390625 
Q 24.90625 48.390625 20.390625 44.140625 
Q 15.875 39.890625 15.1875 32.171875 
z
" id="DejaVuSans-101"/>
     </defs>
     <g transform="translate(492.225313 59.237813)scale(0.14 -0.14)">
      <use xlink:href="#DejaVuSans-98"/>
      <use x="63.476562" xlink:href="#DejaVuSans-97"/>
      <use x="124.755859" xlink:href="#DejaVuSans-115"/>
      <use x="176.855469" xlink:href="#DejaVuSans-101"/>
     </g>
    </g>
    <g id="patch_6">
     <path d="M 453.025313 79.787188 
L 481.025313 79.787188 
L 481.025313 69.987188 
L 453.025313 69.987188 
z
" style="fill:#36a2eb;opacity:0.5;stroke:#36a2eb;stroke-linejoin:miter;"/>
    </g>
    <g id="text_2">
     <!-- fifth -->
     <defs>
      <path d="M 37.109375 75.984375 
L 37.109375 68.5 
L 28.515625 68.5 
Q 23.6875 68.5 21.796875 66.546875 
Q 19.921875 64.59375 19.921875 59.515625 
L 19.921875 54.6875 
L 34.71875 54.6875 
L 34.71875 47.703125 
L 19.921875 47.703125 
L 19.921875 0 
L 10.890625 0 
L 10.890625 47.703125 
L 2.296875 47.703125 
L 2.296875 54.6875 
L 10.890625 54.6875 
L 10.890625 58.5 
Q 10.890625 67.625 15.140625 71.796875 
Q 19.390625 75.984375 28.609375 75.984375 
z
" id="DejaVuSans-102"/>
      <path d="M 9.421875 54.6875 
L 18.40625 54.6875 
L 18.40625 0 
L 9.421875 0 
z
M 9.421875 75.984375 
L 18.40625 75.984375 
L 18.40625 64.59375 
L 9.421875 64.59375 
z
" id="DejaVuSans-105"/>
      <path d="M 18.3125 70.21875 
L 18.3125 54.6875 
L 36.8125 54.6875 
L 36.8125 47.703125 
L 18.3125 47.703125 
L 18.3125 18.015625 
Q 18.3125 11.328125 20.140625 9.421875 
Q 21.96875 7.515625 27.59375 7.515625 
L 36.8125 7.515625 
L 36.8125 0 
L 27.59375 0 
Q 17.1875 0 13.234375 3.875 
Q 9.28125 7.765625 9.28125 18.015625 
L 9.28125 47.703125 
L 2.6875 47.703125 
L 2.6875 54.6875 
L 9.28125 54.6875 
L 9.28125 70.21875 
z
" id="DejaVuSans-116"/>
      <path d="M 54.890625 33.015625 
L 54.890625 0 
L 45.90625 0 
L 45.90625 32.71875 
Q 45.90625 40.484375 42.875 44.328125 
Q 39.84375 48.1875 33.796875 48.1875 
Q 26.515625 48.1875 22.3125 43.546875 
Q 18.109375 38.921875 18.109375 30.90625 
L 18.109375 0 
L 9.078125 0 
L 9.078125 75.984375 
L 18.109375 75.984375 
L 18.109375 46.1875 
Q 21.34375 51.125 25.703125 53.5625 
Q 30.078125 56 35.796875 56 
Q 45.21875 56 50.046875 50.171875 
Q 54.890625 44.34375 54.890625 33.015625 
z
" id="DejaVuSans-104"/>
     </defs>
     <g transform="translate(492.225313 79.787188)scale(0.14 -0.14)">
      <use xlink:href="#DejaVuSans-102"/>
      <use x="35.205078" xlink:href="#DejaVuSans-105"/>
      <use x="62.988281" xlink:href="#DejaVuSans-102"/>
      <use x="98.177734" xlink:href="#DejaVuSans-116"/>
      <use x="137.386719" xlink:href="#DejaVuSans-104"/>
     </g>
    </g>
    <g id="patch_7">
     <path d="M 453.025313 100.336563 
L 481.025313 100.336563 
L 481.025313 90.536563 
L 453.025313 90.536563 
z
" style="fill:#4bc0c0;opacity:0.5;stroke:#4bc0c0;stroke-linejoin:miter;"/>
    </g>
    <g id="text_3">
     <!-- mid -->
     <defs>
      <path d="M 52 44.1875 
Q 55.375 50.25 60.0625 53.125 
Q 64.75 56 71.09375 56 
Q 79.640625 56 84.28125 50.015625 
Q 88.921875 44.046875 88.921875 33.015625 
L 88.921875 0 
L 79.890625 0 
L 79.890625 32.71875 
Q 79.890625 40.578125 77.09375 44.375 
Q 74.3125 48.1875 68.609375 48.1875 
Q 61.625 48.1875 57.5625 43.546875 
Q 53.515625 38.921875 53.515625 30.90625 
L 53.515625 0 
L 44.484375 0 
L 44.484375 32.71875 
Q 44.484375 40.625 41.703125 44.40625 
Q 38.921875 48.1875 33.109375 48.1875 
Q 26.21875 48.1875 22.15625 43.53125 
Q 18.109375 38.875 18.109375 30.90625 
L 18.109375 0 
L 9.078125 0 
L 9.078125 54.6875 
L 18.109375 54.6875 
L 18.109375 46.1875 
Q 21.1875 51.21875 25.484375 53.609375 
Q 29.78125 56 35.6875 56 
Q 41.65625 56 45.828125 52.96875 
Q 50 49.953125 52 44.1875 
z
" id="DejaVuSans-109"/>
      <path d="M 45.40625 46.390625 
L 45.40625 75.984375 
L 54.390625 75.984375 
L 54.390625 0 
L 45.40625 0 
L 45.40625 8.203125 
Q 42.578125 3.328125 38.25 0.953125 
Q 33.9375 -1.421875 27.875 -1.421875 
Q 17.96875 -1.421875 11.734375 6.484375 
Q 5.515625 14.40625 5.515625 27.296875 
Q 5.515625 40.1875 11.734375 48.09375 
Q 17.96875 56 27.875 56 
Q 33.9375 56 38.25 53.625 
Q 42.578125 51.265625 45.40625 46.390625 
z
M 14.796875 27.296875 
Q 14.796875 17.390625 18.875 11.75 
Q 22.953125 6.109375 30.078125 6.109375 
Q 37.203125 6.109375 41.296875 11.75 
Q 45.40625 17.390625 45.40625 27.296875 
Q 45.40625 37.203125 41.296875 42.84375 
Q 37.203125 48.484375 30.078125 48.484375 
Q 22.953125 48.484375 18.875 42.84375 
Q 14.796875 37.203125 14.796875 27.296875 
z
" id="DejaVuSans-100"/>
     </defs>
     <g transform="translate(492.225313 100.336563)scale(0.14 -0.14)">
      <use xlink:href="#DejaVuSans-109"/>
      <use x="97.412109" xlink:href="#DejaVuSans-105"/>
      <use x="125.195312" xlink:href="#DejaVuSans-100"/>
     </g>
    </g>
    <g id="patch_8">
     <path d="M 453.025313 120.885938 
L 481.025313 120.885938 
L 481.025313 111.085938 
L 453.025313 111.085938 
z
" style="fill:#9966ff;opacity:0.5;stroke:#9966ff;stroke-linejoin:miter;"/>
    </g>
    <g id="text_4">
     <!-- right -->
     <defs>
      <path d="M 41.109375 46.296875 
Q 39.59375 47.171875 37.8125 47.578125 
Q 36.03125 48 33.890625 48 
Q 26.265625 48 22.1875 43.046875 
Q 18.109375 38.09375 18.109375 28.8125 
L 18.109375 0 
L 9.078125 0 
L 9.078125 54.6875 
L 18.109375 54.6875 
L 18.109375 46.1875 
Q 20.953125 51.171875 25.484375 53.578125 
Q 30.03125 56 36.53125 56 
Q 37.453125 56 38.578125 55.875 
Q 39.703125 55.765625 41.0625 55.515625 
z
" id="DejaVuSans-114"/>
      <path d="M 45.40625 27.984375 
Q 45.40625 37.75 41.375 43.109375 
Q 37.359375 48.484375 30.078125 48.484375 
Q 22.859375 48.484375 18.828125 43.109375 
Q 14.796875 37.75 14.796875 27.984375 
Q 14.796875 18.265625 18.828125 12.890625 
Q 22.859375 7.515625 30.078125 7.515625 
Q 37.359375 7.515625 41.375 12.890625 
Q 45.40625 18.265625 45.40625 27.984375 
z
M 54.390625 6.78125 
Q 54.390625 -7.171875 48.1875 -13.984375 
Q 42 -20.796875 29.203125 -20.796875 
Q 24.46875 -20.796875 20.265625 -20.09375 
Q 16.0625 -19.390625 12.109375 -17.921875 
L 12.109375 -9.1875 
Q 16.0625 -11.328125 19.921875 -12.34375 
Q 23.78125 -13.375 27.78125 -13.375 
Q 36.625 -13.375 41.015625 -8.765625 
Q 45.40625 -4.15625 45.40625 5.171875 
L 45.40625 9.625 
Q 42.625 4.78125 38.28125 2.390625 
Q 33.9375 0 27.875 0 
Q 17.828125 0 11.671875 7.65625 
Q 5.515625 15.328125 5.515625 27.984375 
Q 5.515625 40.671875 11.671875 48.328125 
Q 17.828125 56 27.875 56 
Q 33.9375 56 38.28125 53.609375 
Q 42.625 51.21875 45.40625 46.390625 
L 45.40625 54.6875 
L 54.390625 54.6875 
z
" id="DejaVuSans-103"/>
     </defs>
     <g transform="translate(492.225313 120.885938)scale(0.14 -0.14)">
      <use xlink:href="#DejaVuSans-114"/>
      <use x="41.113281" xlink:href="#DejaVuSans-105"/>
      <use x="68.896484" xlink:href="#DejaVuSans-103"/>
      <use x="132.373047" xlink:href="#DejaVuSans-104"/>
      <use x="195.751953" xlink:href="#DejaVuSans-116"/>
     </g>
    </g>
   </g>
  </g>
  <g id="axes_2">
   <g id="patch_9">
    <path d="M 36 525.24 
L 538.2 525.24 
L 538.2 402.93 
L 36 402.93 
z
" style="fill:none;"/>
   </g>
   <g id="patch_10">
    <path clip-path="url(#pfadb915578)" d="M 179.80547 519.680455 
L 387.902925 519.680455 
L 387.902925 503.796039 
L 179.80547 503.796039 
z
" style="fill:#ff6384;opacity:0.5;"/>
   </g>
   <g id="patch_11">
    <path clip-path="url(#pfadb915578)" d="M 184.867023 487.911623 
L 392.897087 487.911623 
L 392.897087 472.027208 
L 184.867023 472.027208 
z
" style="fill:#36a2eb;opacity:0.5;"/>
   </g>
   <g id="patch_12">
    <path clip-path="url(#pfadb915578)" d="M 166.753118 456.142792 
L 374.140036 456.142792 
L 374.140036 440.258377 
L 166.753118 440.258377 
z
" style="fill:#4bc0c0;opacity:0.5;"/>
   </g>
   <g id="patch_13">
    <path clip-path="url(#pfadb915578)" d="M 197.878981 424.373961 
L 406.700371 424.373961 
L 406.700371 408.489545 
L 197.878981 408.489545 
z
" style="fill:#9966ff;opacity:0.5;"/>
   </g>
   <g id="matplotlib.axis_1">
    <g id="xtick_1">
     <g id="line2d_5">
      <defs>
       <path d="M 0 0 
L 0 3.5 
" id="meb5969f2f8" style="stroke:#000000;stroke-width:0.8;"/>
      </defs>
      <g>
       <use style="stroke:#000000;stroke-width:0.8;" x="62.628454" xlink:href="#meb5969f2f8" y="525.24"/>
      </g>
     </g>
     <g id="text_5">
      <!-- 6.0 -->
      <defs>
       <path d="M 33.015625 40.375 
Q 26.375 40.375 22.484375 35.828125 
Q 18.609375 31.296875 18.609375 23.390625 
Q 18.609375 15.53125 22.484375 10.953125 
Q 26.375 6.390625 33.015625 6.390625 
Q 39.65625 6.390625 43.53125 10.953125 
Q 47.40625 15.53125 47.40625 23.390625 
Q 47.40625 31.296875 43.53125 35.828125 
Q 39.65625 40.375 33.015625 40.375 
z
M 52.59375 71.296875 
L 52.59375 62.3125 
Q 48.875 64.0625 45.09375 64.984375 
Q 41.3125 65.921875 37.59375 65.921875 
Q 27.828125 65.921875 22.671875 59.328125 
Q 17.53125 52.734375 16.796875 39.40625 
Q 19.671875 43.65625 24.015625 45.921875 
Q 28.375 48.1875 33.59375 48.1875 
Q 44.578125 48.1875 50.953125 41.515625 
Q 57.328125 34.859375 57.328125 23.390625 
Q 57.328125 12.15625 50.6875 5.359375 
Q 44.046875 -1.421875 33.015625 -1.421875 
Q 20.359375 -1.421875 13.671875 8.265625 
Q 6.984375 17.96875 6.984375 36.375 
Q 6.984375 53.65625 15.1875 63.9375 
Q 23.390625 74.21875 37.203125 74.21875 
Q 40.921875 74.21875 44.703125 73.484375 
Q 48.484375 72.75 52.59375 71.296875 
z
" id="DejaVuSans-54"/>
       <path d="M 10.6875 12.40625 
L 21 12.40625 
L 21 0 
L 10.6875 0 
z
" id="DejaVuSans-46"/>
       <path d="M 31.78125 66.40625 
Q 24.171875 66.40625 20.328125 58.90625 
Q 16.5 51.421875 16.5 36.375 
Q 16.5 21.390625 20.328125 13.890625 
Q 24.171875 6.390625 31.78125 6.390625 
Q 39.453125 6.390625 43.28125 13.890625 
Q 47.125 21.390625 47.125 36.375 
Q 47.125 51.421875 43.28125 58.90625 
Q 39.453125 66.40625 31.78125 66.40625 
z
M 31.78125 74.21875 
Q 44.046875 74.21875 50.515625 64.515625 
Q 56.984375 54.828125 56.984375 36.375 
Q 56.984375 17.96875 50.515625 8.265625 
Q 44.046875 -1.421875 31.78125 -1.421875 
Q 19.53125 -1.421875 13.0625 8.265625 
Q 6.59375 17.96875 6.59375 36.375 
Q 6.59375 54.828125 13.0625 64.515625 
Q 19.53125 74.21875 31.78125 74.21875 
z
" id="DejaVuSans-48"/>
      </defs>
      <g transform="translate(51.496267 542.877813)scale(0.14 -0.14)">
       <use xlink:href="#DejaVuSans-54"/>
       <use x="63.623047" xlink:href="#DejaVuSans-46"/>
       <use x="95.410156" xlink:href="#DejaVuSans-48"/>
      </g>
     </g>
    </g>
    <g id="xtick_2">
     <g id="line2d_6">
      <g>
       <use style="stroke:#000000;stroke-width:0.8;" x="146.426084" xlink:href="#meb5969f2f8" y="525.24"/>
      </g>
     </g>
     <g id="text_6">
      <!-- 6.5 -->
      <defs>
       <path d="M 10.796875 72.90625 
L 49.515625 72.90625 
L 49.515625 64.59375 
L 19.828125 64.59375 
L 19.828125 46.734375 
Q 21.96875 47.46875 24.109375 47.828125 
Q 26.265625 48.1875 28.421875 48.1875 
Q 40.625 48.1875 47.75 41.5 
Q 54.890625 34.8125 54.890625 23.390625 
Q 54.890625 11.625 47.5625 5.09375 
Q 40.234375 -1.421875 26.90625 -1.421875 
Q 22.3125 -1.421875 17.546875 -0.640625 
Q 12.796875 0.140625 7.71875 1.703125 
L 7.71875 11.625 
Q 12.109375 9.234375 16.796875 8.0625 
Q 21.484375 6.890625 26.703125 6.890625 
Q 35.15625 6.890625 40.078125 11.328125 
Q 45.015625 15.765625 45.015625 23.390625 
Q 45.015625 31 40.078125 35.4375 
Q 35.15625 39.890625 26.703125 39.890625 
Q 22.75 39.890625 18.8125 39.015625 
Q 14.890625 38.140625 10.796875 36.28125 
z
" id="DejaVuSans-53"/>
      </defs>
      <g transform="translate(135.293897 542.877813)scale(0.14 -0.14)">
       <use xlink:href="#DejaVuSans-54"/>
       <use x="63.623047" xlink:href="#DejaVuSans-46"/>
       <use x="95.410156" xlink:href="#DejaVuSans-53"/>
      </g>
     </g>
    </g>
    <g id="xtick_3">
     <g id="line2d_7">
      <g>
       <use style="stroke:#000000;stroke-width:0.8;" x="230.223714" xlink:href="#meb5969f2f8" y="525.24"/>
      </g>
     </g>
     <g id="text_7">
      <!-- 7.0 -->
      <defs>
       <path d="M 8.203125 72.90625 
L 55.078125 72.90625 
L 55.078125 68.703125 
L 28.609375 0 
L 18.3125 0 
L 43.21875 64.59375 
L 8.203125 64.59375 
z
" id="DejaVuSans-55"/>
      </defs>
      <g transform="translate(219.091527 542.877813)scale(0.14 -0.14)">
       <use xlink:href="#DejaVuSans-55"/>
       <use x="63.623047" xlink:href="#DejaVuSans-46"/>
       <use x="95.410156" xlink:href="#DejaVuSans-48"/>
      </g>
     </g>
    </g>
    <g id="xtick_4">
     <g id="line2d_8">
      <g>
       <use style="stroke:#000000;stroke-width:0.8;" x="314.021344" xlink:href="#meb5969f2f8" y="525.24"/>
      </g>
     </g>
     <g id="text_8">
      <!-- 7.5 -->
      <g transform="translate(302.889157 542.877813)scale(0.14 -0.14)">
       <use xlink:href="#DejaVuSans-55"/>
       <use x="63.623047" xlink:href="#DejaVuSans-46"/>
       <use x="95.410156" xlink:href="#DejaVuSans-53"/>
      </g>
     </g>
    </g>
    <g id="xtick_5">
     <g id="line2d_9">
      <g>
       <use style="stroke:#000000;stroke-width:0.8;" x="397.818974" xlink:href="#meb5969f2f8" y="525.24"/>
      </g>
     </g>
     <g id="text_9">
      <!-- 8.0 -->
      <defs>
       <path d="M 31.78125 34.625 
Q 24.75 34.625 20.71875 30.859375 
Q 16.703125 27.09375 16.703125 20.515625 
Q 16.703125 13.921875 20.71875 10.15625 
Q 24.75 6.390625 31.78125 6.390625 
Q 38.8125 6.390625 42.859375 10.171875 
Q 46.921875 13.96875 46.921875 20.515625 
Q 46.921875 27.09375 42.890625 30.859375 
Q 38.875 34.625 31.78125 34.625 
z
M 21.921875 38.8125 
Q 15.578125 40.375 12.03125 44.71875 
Q 8.5 49.078125 8.5 55.328125 
Q 8.5 64.0625 14.71875 69.140625 
Q 20.953125 74.21875 31.78125 74.21875 
Q 42.671875 74.21875 48.875 69.140625 
Q 55.078125 64.0625 55.078125 55.328125 
Q 55.078125 49.078125 51.53125 44.71875 
Q 48 40.375 41.703125 38.8125 
Q 48.828125 37.15625 52.796875 32.3125 
Q 56.78125 27.484375 56.78125 20.515625 
Q 56.78125 9.90625 50.3125 4.234375 
Q 43.84375 -1.421875 31.78125 -1.421875 
Q 19.734375 -1.421875 13.25 4.234375 
Q 6.78125 9.90625 6.78125 20.515625 
Q 6.78125 27.484375 10.78125 32.3125 
Q 14.796875 37.15625 21.921875 38.8125 
z
M 18.3125 54.390625 
Q 18.3125 48.734375 21.84375 45.5625 
Q 25.390625 42.390625 31.78125 42.390625 
Q 38.140625 42.390625 41.71875 45.5625 
Q 45.3125 48.734375 45.3125 54.390625 
Q 45.3125 60.0625 41.71875 63.234375 
Q 38.140625 66.40625 31.78125 66.40625 
Q 25.390625 66.40625 21.84375 63.234375 
Q 18.3125 60.0625 18.3125 54.390625 
z
" id="DejaVuSans-56"/>
      </defs>
      <g transform="translate(386.686787 542.877813)scale(0.14 -0.14)">
       <use xlink:href="#DejaVuSans-56"/>
       <use x="63.623047" xlink:href="#DejaVuSans-46"/>
       <use x="95.410156" xlink:href="#DejaVuSans-48"/>
      </g>
     </g>
    </g>
    <g id="xtick_6">
     <g id="line2d_10">
      <g>
       <use style="stroke:#000000;stroke-width:0.8;" x="481.616604" xlink:href="#meb5969f2f8" y="525.24"/>
      </g>
     </g>
     <g id="text_10">
      <!-- 8.5 -->
      <g transform="translate(470.484417 542.877813)scale(0.14 -0.14)">
       <use xlink:href="#DejaVuSans-56"/>
       <use x="63.623047" xlink:href="#DejaVuSans-46"/>
       <use x="95.410156" xlink:href="#DejaVuSans-53"/>
      </g>
     </g>
    </g>
   </g>
   <g id="line2d_11">
    <path clip-path="url(#pfadb915578)" d="M 283.854197 525.24 
L 283.854197 402.93 
" style="fill:none;stroke:#ff6384;stroke-dasharray:5.55,2.4;stroke-dashoffset:0;stroke-opacity:0.8;stroke-width:1.5;"/>
   </g>
   <g id="line2d_12">
    <path clip-path="url(#pfadb915578)" d="M 288.882055 525.24 
L 288.882055 402.93 
" style="fill:none;stroke:#36a2eb;stroke-dasharray:5.55,2.4;stroke-dashoffset:0;stroke-opacity:0.8;stroke-width:1.5;"/>
   </g>
   <g id="line2d_13">
    <path clip-path="url(#pfadb915578)" d="M 270.446577 525.24 
L 270.446577 402.93 
" style="fill:none;stroke:#4bc0c0;stroke-dasharray:5.55,2.4;stroke-dashoffset:0;stroke-opacity:0.8;stroke-width:1.5;"/>
   </g>
   <g id="line2d_14">
    <path clip-path="url(#pfadb915578)" d="M 302.289676 525.24 
L 302.289676 402.93 
" style="fill:none;stroke:#9966ff;stroke-dasharray:5.55,2.4;stroke-dashoffset:0;stroke-opacity:0.8;stroke-width:1.5;"/>
   </g>
   <g id="patch_14">
    <path d="M 36 525.24 
L 538.2 525.24 
" style="fill:none;stroke:#000000;stroke-linecap:square;stroke-linejoin:miter;stroke-width:0.8;"/>
   </g>
  </g>
 </g>
 <defs>
  <clipPath id="pd708d96d2d">
   <rect height="366.93" width="502.2" x="36" y="36"/>
  </clipPath>
  <clipPath id="pfadb915578">
   <rect height="122.31" width="502.2" x="36" y="402.93"/>
  </clipPath>
 </defs>
</svg>
