<?xml version="1.0" encoding="utf-8" standalone="no"?>
<!DOCTYPE svg PUBLIC "-//W3C//DTD SVG 1.1//EN"
  "http://www.w3.org/Graphics/SVG/1.1/DTD/svg11.dtd">
<!-- Created with matplotlib (https://matplotlib.org/) -->
<svg height="581.789375pt" version="1.1" viewBox="0 0 574.2 581.789375" width="574.2pt" xmlns="http://www.w3.org/2000/svg" xmlns:xlink="http://www.w3.org/1999/xlink">
 <defs>
  <style type="text/css">
*{stroke-linecap:butt;stroke-linejoin:round;}
  </style>
 </defs>
 <g id="figure_1">
  <g id="patch_1">
   <path d="M 0 581.789375 
L 574.2 581.789375 
L 574.2 0 
L 0 0 
z
" style="fill:none;"/>
  </g>
  <g id="axes_1">
   <g id="patch_2">
    <path d="M 36 402.93 
L 538.2 402.93 
L 538.2 36 
L 36 36 
z
" style="fill:none;"/>
   </g>
   <g id="PolyCollection_1">
    <defs>
     <path d="M 73.068146 -195.538011 
L 73.068146 -195.649591 
L 77.342957 -195.691666 
L 81.617768 -195.748229 
L 85.892579 -195.823743 
L 90.16739 -195.923854 
L 94.442202 -196.05565 
L 98.717013 -196.227945 
L 102.991824 -196.451603 
L 107.266635 -196.73989 
L 111.541446 -197.108856 
L 115.816258 -197.577729 
L 120.091069 -198.169315 
L 124.36588 -198.910387 
L 128.640691 -199.83204 
L 132.915503 -200.96999 
L 137.190314 -202.364781 
L 141.465125 -204.061875 
L 145.739936 -206.111586 
L 150.014747 -208.568817 
L 154.289559 -211.492569 
L 158.56437 -214.945188 
L 162.839181 -218.991315 
L 167.113992 -223.696528 
L 171.388803 -229.12566 
L 175.663615 -235.3408 
L 179.938426 -242.399005 
L 184.213237 -250.349747 
L 188.488048 -259.232185 
L 192.76286 -269.072306 
L 197.037671 -279.880079 
L 201.312482 -291.646696 
L 205.587293 -304.342072 
L 209.862104 -317.912715 
L 214.136916 -332.280124 
L 218.411727 -347.339838 
L 222.686538 -362.961269 
L 226.961349 -378.988411 
L 231.23616 -395.241483 
L 235.510972 -411.519559 
L 239.785783 -427.604143 
L 244.060594 -443.26365 
L 248.335405 -458.258675 
L 252.610217 -472.347892 
L 256.885028 -485.294403 
L 261.159839 -496.872292 
L 265.43465 -506.87315 
L 269.709461 -515.11229 
L 273.984273 -521.434421 
L 278.259084 -525.718507 
L 282.533895 -527.881622 
L 286.808706 -527.881622 
L 291.083517 -525.718507 
L 295.358329 -521.434421 
L 299.63314 -515.11229 
L 303.907951 -506.87315 
L 308.182762 -496.872292 
L 312.457574 -485.294403 
L 316.732385 -472.347892 
L 321.007196 -458.258675 
L 325.282007 -443.26365 
L 329.556818 -427.604143 
L 333.83163 -411.519559 
L 338.106441 -395.241483 
L 342.381252 -378.988411 
L 346.656063 -362.961269 
L 350.930874 -347.339838 
L 355.205686 -332.280124 
L 359.480497 -317.912715 
L 363.755308 -304.342072 
L 368.030119 -291.646696 
L 372.304931 -279.880079 
L 376.579742 -269.072306 
L 380.854553 -259.232185 
L 385.129364 -250.349747 
L 389.404175 -242.399005 
L 393.678987 -235.3408 
L 397.953798 -229.12566 
L 402.228609 -223.696528 
L 406.50342 -218.991315 
L 410.778231 -214.945188 
L 415.053043 -211.492569 
L 419.327854 -208.568817 
L 423.602665 -206.111586 
L 427.877476 -204.061875 
L 432.152288 -202.364781 
L 436.427099 -200.96999 
L 440.70191 -199.83204 
L 444.976721 -198.910387 
L 449.251532 -198.169315 
L 453.526344 -197.577729 
L 457.801155 -197.108856 
L 462.075966 -196.73989 
L 466.350777 -196.451603 
L 470.625588 -196.227945 
L 474.9004 -196.05565 
L 479.175211 -195.923854 
L 483.450022 -195.823743 
L 487.724833 -195.748229 
L 491.999645 -195.691666 
L 496.274456 -195.649591 
L 496.274456 -195.538011 
L 496.274456 -195.538011 
L 491.999645 -195.538011 
L 487.724833 -195.538011 
L 483.450022 -195.538011 
L 479.175211 -195.538011 
L 474.9004 -195.538011 
L 470.625588 -195.538011 
L 466.350777 -195.538011 
L 462.075966 -195.538011 
L 457.801155 -195.538011 
L 453.526344 -195.538011 
L 449.251532 -195.538011 
L 444.976721 -195.538011 
L 440.70191 -195.538011 
L 436.427099 -195.538011 
L 432.152288 -195.538011 
L 427.877476 -195.538011 
L 423.602665 -195.538011 
L 419.327854 -195.538011 
L 415.053043 -195.538011 
L 410.778231 -195.538011 
L 406.50342 -195.538011 
L 402.228609 -195.538011 
L 397.953798 -195.538011 
L 393.678987 -195.538011 
L 389.404175 -195.538011 
L 385.129364 -195.538011 
L 380.854553 -195.538011 
L 376.579742 -195.538011 
L 372.304931 -195.538011 
L 368.030119 -195.538011 
L 363.755308 -195.538011 
L 359.480497 -195.538011 
L 355.205686 -195.538011 
L 350.930874 -195.538011 
L 346.656063 -195.538011 
L 342.381252 -195.538011 
L 338.106441 -195.538011 
L 333.83163 -195.538011 
L 329.556818 -195.538011 
L 325.282007 -195.538011 
L 321.007196 -195.538011 
L 316.732385 -195.538011 
L 312.457574 -195.538011 
L 308.182762 -195.538011 
L 303.907951 -195.538011 
L 299.63314 -195.538011 
L 295.358329 -195.538011 
L 291.083517 -195.538011 
L 286.808706 -195.538011 
L 282.533895 -195.538011 
L 278.259084 -195.538011 
L 273.984273 -195.538011 
L 269.709461 -195.538011 
L 265.43465 -195.538011 
L 261.159839 -195.538011 
L 256.885028 -195.538011 
L 252.610217 -195.538011 
L 248.335405 -195.538011 
L 244.060594 -195.538011 
L 239.785783 -195.538011 
L 235.510972 -195.538011 
L 231.23616 -195.538011 
L 226.961349 -195.538011 
L 222.686538 -195.538011 
L 218.411727 -195.538011 
L 214.136916 -195.538011 
L 209.862104 -195.538011 
L 205.587293 -195.538011 
L 201.312482 -195.538011 
L 197.037671 -195.538011 
L 192.76286 -195.538011 
L 188.488048 -195.538011 
L 184.213237 -195.538011 
L 179.938426 -195.538011 
L 175.663615 -195.538011 
L 171.388803 -195.538011 
L 167.113992 -195.538011 
L 162.839181 -195.538011 
L 158.56437 -195.538011 
L 154.289559 -195.538011 
L 150.014747 -195.538011 
L 145.739936 -195.538011 
L 141.465125 -195.538011 
L 137.190314 -195.538011 
L 132.915503 -195.538011 
L 128.640691 -195.538011 
L 124.36588 -195.538011 
L 120.091069 -195.538011 
L 115.816258 -195.538011 
L 111.541446 -195.538011 
L 107.266635 -195.538011 
L 102.991824 -195.538011 
L 98.717013 -195.538011 
L 94.442202 -195.538011 
L 90.16739 -195.538011 
L 85.892579 -195.538011 
L 81.617768 -195.538011 
L 77.342957 -195.538011 
L 73.068146 -195.538011 
z
" id="maf949e8481" style="stroke:#ff6384;stroke-opacity:0.5;"/>
    </defs>
    <g clip-path="url(#pdc17347cbd)">
     <use style="fill:#ff6384;fill-opacity:0.5;stroke:#ff6384;stroke-opacity:0.5;" x="0" xlink:href="#maf949e8481" y="581.789375"/>
    </g>
   </g>
   <g id="PolyCollection_2">
    <defs>
     <path d="M 76.557866 -195.538011 
L 76.557866 -195.649671 
L 80.82961 -195.691776 
L 85.101355 -195.74838 
L 89.373099 -195.823948 
L 93.644843 -195.924131 
L 97.916587 -196.056022 
L 102.188331 -196.228441 
L 106.460076 -196.452259 
L 110.73182 -196.740753 
L 115.003564 -197.109984 
L 119.275308 -197.579194 
L 123.547052 -198.171204 
L 127.818797 -198.912808 
L 132.090541 -199.835123 
L 136.362285 -200.97389 
L 140.634029 -202.369682 
L 144.905774 -204.067995 
L 149.177518 -206.119178 
L 153.449262 -208.578173 
L 157.721006 -211.504024 
L 161.99275 -214.959122 
L 166.264495 -219.008154 
L 170.536239 -223.716745 
L 174.807983 -229.149775 
L 179.079727 -235.369378 
L 183.351471 -242.43265 
L 187.623216 -250.389101 
L 191.89496 -259.277915 
L 196.166704 -269.125102 
L 200.438448 -279.940634 
L 204.710192 -291.715699 
L 208.981937 -304.42019 
L 213.253681 -318.000577 
L 217.525425 -332.378301 
L 221.797169 -347.448827 
L 226.068914 -363.081475 
L 230.340658 -379.120123 
L 234.612402 -395.384865 
L 238.884146 -411.674628 
L 243.15589 -427.77076 
L 247.427635 -443.441511 
L 251.699379 -458.447302 
L 255.971123 -472.546635 
L 260.242867 -485.502441 
L 264.514611 -497.088643 
L 268.786356 -507.09668 
L 273.0581 -515.341736 
L 277.329844 -521.668406 
L 281.601588 -525.955568 
L 285.873332 -528.120236 
L 290.145077 -528.120236 
L 294.416821 -525.955568 
L 298.688565 -521.668406 
L 302.960309 -515.341736 
L 307.232053 -507.09668 
L 311.503798 -497.088643 
L 315.775542 -485.502441 
L 320.047286 -472.546635 
L 324.31903 -458.447302 
L 328.590775 -443.441511 
L 332.862519 -427.77076 
L 337.134263 -411.674628 
L 341.406007 -395.384865 
L 345.677751 -379.120123 
L 349.949496 -363.081475 
L 354.22124 -347.448827 
L 358.492984 -332.378301 
L 362.764728 -318.000577 
L 367.036472 -304.42019 
L 371.308217 -291.715699 
L 375.579961 -279.940634 
L 379.851705 -269.125102 
L 384.123449 -259.277915 
L 388.395193 -250.389101 
L 392.666938 -242.43265 
L 396.938682 -235.369378 
L 401.210426 -229.149775 
L 405.48217 -223.716745 
L 409.753915 -219.008154 
L 414.025659 -214.959122 
L 418.297403 -211.504024 
L 422.569147 -208.578173 
L 426.840891 -206.119178 
L 431.112636 -204.067995 
L 435.38438 -202.369682 
L 439.656124 -200.97389 
L 443.927868 -199.835123 
L 448.199612 -198.912808 
L 452.471357 -198.171204 
L 456.743101 -197.579194 
L 461.014845 -197.109984 
L 465.286589 -196.740753 
L 469.558333 -196.452259 
L 473.830078 -196.228441 
L 478.101822 -196.056022 
L 482.373566 -195.924131 
L 486.64531 -195.823948 
L 490.917055 -195.74838 
L 495.188799 -195.691776 
L 499.460543 -195.649671 
L 499.460543 -195.538011 
L 499.460543 -195.538011 
L 495.188799 -195.538011 
L 490.917055 -195.538011 
L 486.64531 -195.538011 
L 482.373566 -195.538011 
L 478.101822 -195.538011 
L 473.830078 -195.538011 
L 469.558333 -195.538011 
L 465.286589 -195.538011 
L 461.014845 -195.538011 
L 456.743101 -195.538011 
L 452.471357 -195.538011 
L 448.199612 -195.538011 
L 443.927868 -195.538011 
L 439.656124 -195.538011 
L 435.38438 -195.538011 
L 431.112636 -195.538011 
L 426.840891 -195.538011 
L 422.569147 -195.538011 
L 418.297403 -195.538011 
L 414.025659 -195.538011 
L 409.753915 -195.538011 
L 405.48217 -195.538011 
L 401.210426 -195.538011 
L 396.938682 -195.538011 
L 392.666938 -195.538011 
L 388.395193 -195.538011 
L 384.123449 -195.538011 
L 379.851705 -195.538011 
L 375.579961 -195.538011 
L 371.308217 -195.538011 
L 367.036472 -195.538011 
L 362.764728 -195.538011 
L 358.492984 -195.538011 
L 354.22124 -195.538011 
L 349.949496 -195.538011 
L 345.677751 -195.538011 
L 341.406007 -195.538011 
L 337.134263 -195.538011 
L 332.862519 -195.538011 
L 328.590775 -195.538011 
L 324.31903 -195.538011 
L 320.047286 -195.538011 
L 315.775542 -195.538011 
L 311.503798 -195.538011 
L 307.232053 -195.538011 
L 302.960309 -195.538011 
L 298.688565 -195.538011 
L 294.416821 -195.538011 
L 290.145077 -195.538011 
L 285.873332 -195.538011 
L 281.601588 -195.538011 
L 277.329844 -195.538011 
L 273.0581 -195.538011 
L 268.786356 -195.538011 
L 264.514611 -195.538011 
L 260.242867 -195.538011 
L 255.971123 -195.538011 
L 251.699379 -195.538011 
L 247.427635 -195.538011 
L 243.15589 -195.538011 
L 238.884146 -195.538011 
L 234.612402 -195.538011 
L 230.340658 -195.538011 
L 226.068914 -195.538011 
L 221.797169 -195.538011 
L 217.525425 -195.538011 
L 213.253681 -195.538011 
L 208.981937 -195.538011 
L 204.710192 -195.538011 
L 200.438448 -195.538011 
L 196.166704 -195.538011 
L 191.89496 -195.538011 
L 187.623216 -195.538011 
L 183.351471 -195.538011 
L 179.079727 -195.538011 
L 174.807983 -195.538011 
L 170.536239 -195.538011 
L 166.264495 -195.538011 
L 161.99275 -195.538011 
L 157.721006 -195.538011 
L 153.449262 -195.538011 
L 149.177518 -195.538011 
L 144.905774 -195.538011 
L 140.634029 -195.538011 
L 136.362285 -195.538011 
L 132.090541 -195.538011 
L 127.818797 -195.538011 
L 123.547052 -195.538011 
L 119.275308 -195.538011 
L 115.003564 -195.538011 
L 110.73182 -195.538011 
L 106.460076 -195.538011 
L 102.188331 -195.538011 
L 97.916587 -195.538011 
L 93.644843 -195.538011 
L 89.373099 -195.538011 
L 85.101355 -195.538011 
L 80.82961 -195.538011 
L 76.557866 -195.538011 
z
" id="m707e7e6240" style="stroke:#36a2eb;stroke-opacity:0.5;"/>
    </defs>
    <g clip-path="url(#pdc17347cbd)">
     <use style="fill:#36a2eb;fill-opacity:0.5;stroke:#36a2eb;stroke-opacity:0.5;" x="0" xlink:href="#m707e7e6240" y="581.789375"/>
    </g>
   </g>
   <g id="PolyCollection_3">
    <defs>
     <path d="M 58.827273 -195.538011 
L 58.827273 -195.650004 
L 63.086333 -195.692234 
L 67.345392 -195.749007 
L 71.604452 -195.8248 
L 75.863512 -195.925281 
L 80.122572 -196.057565 
L 84.381632 -196.230497 
L 88.640691 -196.454982 
L 92.899751 -196.744335 
L 97.158811 -197.114666 
L 101.417871 -197.585273 
L 105.676931 -198.179047 
L 109.93599 -198.922859 
L 114.19505 -199.847921 
L 118.45411 -200.990079 
L 122.71317 -202.390029 
L 126.97223 -204.093399 
L 131.231289 -206.150691 
L 135.490349 -208.617009 
L 139.749409 -211.551575 
L 144.008469 -215.016962 
L 148.267529 -219.078053 
L 152.526588 -223.800667 
L 156.785648 -229.249878 
L 161.044708 -235.488004 
L 165.303768 -242.572312 
L 169.562828 -250.552459 
L 173.821887 -259.467747 
L 178.080947 -269.344261 
L 182.340007 -280.192004 
L 186.599067 -292.002137 
L 190.858127 -304.744465 
L 195.117186 -318.365297 
L 199.376246 -332.785841 
L 203.635306 -347.901251 
L 207.894366 -363.580456 
L 212.153426 -379.666871 
L 216.412485 -395.980052 
L 220.671545 -412.31833 
L 224.930605 -428.4624 
L 229.189665 -444.179822 
L 233.448725 -459.230303 
L 237.707784 -473.371627 
L 241.966844 -486.366018 
L 246.225904 -497.986726 
L 250.484964 -508.02457 
L 254.744024 -516.294181 
L 259.003083 -522.639693 
L 263.262143 -526.939623 
L 267.521203 -529.110739 
L 271.780263 -529.110739 
L 276.039323 -526.939623 
L 280.298383 -522.639693 
L 284.557442 -516.294181 
L 288.816502 -508.02457 
L 293.075562 -497.986726 
L 297.334622 -486.366018 
L 301.593682 -473.371627 
L 305.852741 -459.230303 
L 310.111801 -444.179822 
L 314.370861 -428.4624 
L 318.629921 -412.31833 
L 322.888981 -395.980052 
L 327.14804 -379.666871 
L 331.4071 -363.580456 
L 335.66616 -347.901251 
L 339.92522 -332.785841 
L 344.18428 -318.365297 
L 348.443339 -304.744465 
L 352.702399 -292.002137 
L 356.961459 -280.192004 
L 361.220519 -269.344261 
L 365.479579 -259.467747 
L 369.738638 -250.552459 
L 373.997698 -242.572312 
L 378.256758 -235.488004 
L 382.515818 -229.249878 
L 386.774878 -223.800667 
L 391.033937 -219.078053 
L 395.292997 -215.016962 
L 399.552057 -211.551575 
L 403.811117 -208.617009 
L 408.070177 -206.150691 
L 412.329236 -204.093399 
L 416.588296 -202.390029 
L 420.847356 -200.990079 
L 425.106416 -199.847921 
L 429.365476 -198.922859 
L 433.624535 -198.179047 
L 437.883595 -197.585273 
L 442.142655 -197.114666 
L 446.401715 -196.744335 
L 450.660775 -196.454982 
L 454.919834 -196.230497 
L 459.178894 -196.057565 
L 463.437954 -195.925281 
L 467.697014 -195.8248 
L 471.956074 -195.749007 
L 476.215133 -195.692234 
L 480.474193 -195.650004 
L 480.474193 -195.538011 
L 480.474193 -195.538011 
L 476.215133 -195.538011 
L 471.956074 -195.538011 
L 467.697014 -195.538011 
L 463.437954 -195.538011 
L 459.178894 -195.538011 
L 454.919834 -195.538011 
L 450.660775 -195.538011 
L 446.401715 -195.538011 
L 442.142655 -195.538011 
L 437.883595 -195.538011 
L 433.624535 -195.538011 
L 429.365476 -195.538011 
L 425.106416 -195.538011 
L 420.847356 -195.538011 
L 416.588296 -195.538011 
L 412.329236 -195.538011 
L 408.070177 -195.538011 
L 403.811117 -195.538011 
L 399.552057 -195.538011 
L 395.292997 -195.538011 
L 391.033937 -195.538011 
L 386.774878 -195.538011 
L 382.515818 -195.538011 
L 378.256758 -195.538011 
L 373.997698 -195.538011 
L 369.738638 -195.538011 
L 365.479579 -195.538011 
L 361.220519 -195.538011 
L 356.961459 -195.538011 
L 352.702399 -195.538011 
L 348.443339 -195.538011 
L 344.18428 -195.538011 
L 339.92522 -195.538011 
L 335.66616 -195.538011 
L 331.4071 -195.538011 
L 327.14804 -195.538011 
L 322.888981 -195.538011 
L 318.629921 -195.538011 
L 314.370861 -195.538011 
L 310.111801 -195.538011 
L 305.852741 -195.538011 
L 301.593682 -195.538011 
L 297.334622 -195.538011 
L 293.075562 -195.538011 
L 288.816502 -195.538011 
L 284.557442 -195.538011 
L 280.298383 -195.538011 
L 276.039323 -195.538011 
L 271.780263 -195.538011 
L 267.521203 -195.538011 
L 263.262143 -195.538011 
L 259.003083 -195.538011 
L 254.744024 -195.538011 
L 250.484964 -195.538011 
L 246.225904 -195.538011 
L 241.966844 -195.538011 
L 237.707784 -195.538011 
L 233.448725 -195.538011 
L 229.189665 -195.538011 
L 224.930605 -195.538011 
L 220.671545 -195.538011 
L 216.412485 -195.538011 
L 212.153426 -195.538011 
L 207.894366 -195.538011 
L 203.635306 -195.538011 
L 199.376246 -195.538011 
L 195.117186 -195.538011 
L 190.858127 -195.538011 
L 186.599067 -195.538011 
L 182.340007 -195.538011 
L 178.080947 -195.538011 
L 173.821887 -195.538011 
L 169.562828 -195.538011 
L 165.303768 -195.538011 
L 161.044708 -195.538011 
L 156.785648 -195.538011 
L 152.526588 -195.538011 
L 148.267529 -195.538011 
L 144.008469 -195.538011 
L 139.749409 -195.538011 
L 135.490349 -195.538011 
L 131.231289 -195.538011 
L 126.97223 -195.538011 
L 122.71317 -195.538011 
L 118.45411 -195.538011 
L 114.19505 -195.538011 
L 109.93599 -195.538011 
L 105.676931 -195.538011 
L 101.417871 -195.538011 
L 97.158811 -195.538011 
L 92.899751 -195.538011 
L 88.640691 -195.538011 
L 84.381632 -195.538011 
L 80.122572 -195.538011 
L 75.863512 -195.538011 
L 71.604452 -195.538011 
L 67.345392 -195.538011 
L 63.086333 -195.538011 
L 58.827273 -195.538011 
z
" id="m1464873980" style="stroke:#4bc0c0;stroke-opacity:0.5;"/>
    </defs>
    <g clip-path="url(#pdc17347cbd)">
     <use style="fill:#4bc0c0;fill-opacity:0.5;stroke:#4bc0c0;stroke-opacity:0.5;" x="0" xlink:href="#m1464873980" y="581.789375"/>
    </g>
   </g>
   <g id="PolyCollection_4">
    <defs>
     <path d="M 90.686817 -195.538011 
L 90.686817 -195.649203 
L 94.976574 -195.691131 
L 99.26633 -195.747497 
L 103.556087 -195.822748 
L 107.845844 -195.92251 
L 112.1356 -196.053847 
L 116.425357 -196.225542 
L 120.715114 -196.44842 
L 125.00487 -196.735703 
L 129.294627 -197.103384 
L 133.584384 -197.570623 
L 137.87414 -198.160148 
L 142.163897 -198.898638 
L 146.453654 -199.81708 
L 150.74341 -200.951065 
L 155.033167 -202.340997 
L 159.322924 -204.032178 
L 163.61268 -206.074748 
L 167.902437 -208.523418 
L 172.192194 -211.436984 
L 176.48195 -214.877574 
L 180.771707 -218.909604 
L 185.061464 -223.598424 
L 189.35122 -229.008641 
L 193.640977 -235.202128 
L 197.930734 -242.235742 
L 202.22049 -250.158784 
L 206.510247 -259.010275 
L 210.800004 -268.816114 
L 215.08976 -279.586232 
L 219.379517 -291.311854 
L 223.669274 -303.963 
L 227.95903 -317.486363 
L 232.248787 -331.803716 
L 236.538544 -346.810962 
L 240.8283 -362.377969 
L 245.118057 -378.349272 
L 249.407814 -394.545719 
L 253.69757 -410.767082 
L 257.987327 -426.795627 
L 262.277084 -442.400578 
L 266.566841 -457.34336 
L 270.856597 -471.38349 
L 275.146354 -484.284896 
L 279.436111 -495.822448 
L 283.725867 -505.788462 
L 288.015624 -513.998897 
L 292.305381 -520.299002 
L 296.595137 -524.568162 
L 300.884894 -526.723741 
L 305.174651 -526.723741 
L 309.464407 -524.568162 
L 313.754164 -520.299002 
L 318.043921 -513.998897 
L 322.333677 -505.788462 
L 326.623434 -495.822448 
L 330.913191 -484.284896 
L 335.202947 -471.38349 
L 339.492704 -457.34336 
L 343.782461 -442.400578 
L 348.072217 -426.795627 
L 352.361974 -410.767082 
L 356.651731 -394.545719 
L 360.941487 -378.349272 
L 365.231244 -362.377969 
L 369.521001 -346.810962 
L 373.810757 -331.803716 
L 378.100514 -317.486363 
L 382.390271 -303.963 
L 386.680027 -291.311854 
L 390.969784 -279.586232 
L 395.259541 -268.816114 
L 399.549297 -259.010275 
L 403.839054 -250.158784 
L 408.128811 -242.235742 
L 412.418567 -235.202128 
L 416.708324 -229.008641 
L 420.998081 -223.598424 
L 425.287837 -218.909604 
L 429.577594 -214.877574 
L 433.867351 -211.436984 
L 438.157107 -208.523418 
L 442.446864 -206.074748 
L 446.736621 -204.032178 
L 451.026377 -202.340997 
L 455.316134 -200.951065 
L 459.605891 -199.81708 
L 463.895647 -198.898638 
L 468.185404 -198.160148 
L 472.475161 -197.570623 
L 476.764917 -197.103384 
L 481.054674 -196.735703 
L 485.344431 -196.44842 
L 489.634187 -196.225542 
L 493.923944 -196.053847 
L 498.213701 -195.92251 
L 502.503457 -195.822748 
L 506.793214 -195.747497 
L 511.082971 -195.691131 
L 515.372727 -195.649203 
L 515.372727 -195.538011 
L 515.372727 -195.538011 
L 511.082971 -195.538011 
L 506.793214 -195.538011 
L 502.503457 -195.538011 
L 498.213701 -195.538011 
L 493.923944 -195.538011 
L 489.634187 -195.538011 
L 485.344431 -195.538011 
L 481.054674 -195.538011 
L 476.764917 -195.538011 
L 472.475161 -195.538011 
L 468.185404 -195.538011 
L 463.895647 -195.538011 
L 459.605891 -195.538011 
L 455.316134 -195.538011 
L 451.026377 -195.538011 
L 446.736621 -195.538011 
L 442.446864 -195.538011 
L 438.157107 -195.538011 
L 433.867351 -195.538011 
L 429.577594 -195.538011 
L 425.287837 -195.538011 
L 420.998081 -195.538011 
L 416.708324 -195.538011 
L 412.418567 -195.538011 
L 408.128811 -195.538011 
L 403.839054 -195.538011 
L 399.549297 -195.538011 
L 395.259541 -195.538011 
L 390.969784 -195.538011 
L 386.680027 -195.538011 
L 382.390271 -195.538011 
L 378.100514 -195.538011 
L 373.810757 -195.538011 
L 369.521001 -195.538011 
L 365.231244 -195.538011 
L 360.941487 -195.538011 
L 356.651731 -195.538011 
L 352.361974 -195.538011 
L 348.072217 -195.538011 
L 343.782461 -195.538011 
L 339.492704 -195.538011 
L 335.202947 -195.538011 
L 330.913191 -195.538011 
L 326.623434 -195.538011 
L 322.333677 -195.538011 
L 318.043921 -195.538011 
L 313.754164 -195.538011 
L 309.464407 -195.538011 
L 305.174651 -195.538011 
L 300.884894 -195.538011 
L 296.595137 -195.538011 
L 292.305381 -195.538011 
L 288.015624 -195.538011 
L 283.725867 -195.538011 
L 279.436111 -195.538011 
L 275.146354 -195.538011 
L 270.856597 -195.538011 
L 266.566841 -195.538011 
L 262.277084 -195.538011 
L 257.987327 -195.538011 
L 253.69757 -195.538011 
L 249.407814 -195.538011 
L 245.118057 -195.538011 
L 240.8283 -195.538011 
L 236.538544 -195.538011 
L 232.248787 -195.538011 
L 227.95903 -195.538011 
L 223.669274 -195.538011 
L 219.379517 -195.538011 
L 215.08976 -195.538011 
L 210.800004 -195.538011 
L 206.510247 -195.538011 
L 202.22049 -195.538011 
L 197.930734 -195.538011 
L 193.640977 -195.538011 
L 189.35122 -195.538011 
L 185.061464 -195.538011 
L 180.771707 -195.538011 
L 176.48195 -195.538011 
L 172.192194 -195.538011 
L 167.902437 -195.538011 
L 163.61268 -195.538011 
L 159.322924 -195.538011 
L 155.033167 -195.538011 
L 150.74341 -195.538011 
L 146.453654 -195.538011 
L 142.163897 -195.538011 
L 137.87414 -195.538011 
L 133.584384 -195.538011 
L 129.294627 -195.538011 
L 125.00487 -195.538011 
L 120.715114 -195.538011 
L 116.425357 -195.538011 
L 112.1356 -195.538011 
L 107.845844 -195.538011 
L 103.556087 -195.538011 
L 99.26633 -195.538011 
L 94.976574 -195.538011 
L 90.686817 -195.538011 
z
" id="m6a79d86a22" style="stroke:#9966ff;stroke-opacity:0.5;"/>
    </defs>
    <g clip-path="url(#pdc17347cbd)">
     <use style="fill:#9966ff;fill-opacity:0.5;stroke:#9966ff;stroke-opacity:0.5;" x="0" xlink:href="#m6a79d86a22" y="581.789375"/>
    </g>
   </g>
   <g id="line2d_1">
    <path clip-path="url(#pdc17347cbd)" d="M 73.068146 386.139784 
L 77.342957 386.097709 
L 81.617768 386.041146 
L 85.892579 385.965632 
L 90.16739 385.865521 
L 94.442202 385.733725 
L 98.717013 385.56143 
L 102.991824 385.337772 
L 107.266635 385.049485 
L 111.541446 384.680519 
L 115.816258 384.211646 
L 120.091069 383.62006 
L 124.36588 382.878988 
L 128.640691 381.957335 
L 132.915503 380.819385 
L 137.190314 379.424594 
L 141.465125 377.7275 
L 145.739936 375.677789 
L 150.014747 373.220558 
L 154.289559 370.296806 
L 158.56437 366.844187 
L 162.839181 362.79806 
L 167.113992 358.092847 
L 171.388803 352.663715 
L 175.663615 346.448575 
L 179.938426 339.39037 
L 184.213237 331.439628 
L 188.488048 322.55719 
L 192.76286 312.717069 
L 197.037671 301.909296 
L 201.312482 290.142679 
L 205.587293 277.447303 
L 209.862104 263.87666 
L 214.136916 249.509251 
L 218.411727 234.449537 
L 222.686538 218.828106 
L 226.961349 202.800964 
L 231.23616 186.547892 
L 235.510972 170.269816 
L 239.785783 154.185232 
L 244.060594 138.525725 
L 248.335405 123.5307 
L 252.610217 109.441483 
L 256.885028 96.494972 
L 261.159839 84.917083 
L 265.43465 74.916225 
L 269.709461 66.677085 
L 273.984273 60.354954 
L 278.259084 56.070868 
L 282.533895 53.907753 
L 286.808706 53.907753 
L 291.083517 56.070868 
L 295.358329 60.354954 
L 299.63314 66.677085 
L 303.907951 74.916225 
L 308.182762 84.917083 
L 312.457574 96.494972 
L 316.732385 109.441483 
L 321.007196 123.5307 
L 325.282007 138.525725 
L 329.556818 154.185232 
L 333.83163 170.269816 
L 338.106441 186.547892 
L 342.381252 202.800964 
L 346.656063 218.828106 
L 350.930874 234.449537 
L 355.205686 249.509251 
L 359.480497 263.87666 
L 363.755308 277.447303 
L 368.030119 290.142679 
L 372.304931 301.909296 
L 376.579742 312.717069 
L 380.854553 322.55719 
L 385.129364 331.439628 
L 389.404175 339.39037 
L 393.678987 346.448575 
L 397.953798 352.663715 
L 402.228609 358.092847 
L 406.50342 362.79806 
L 410.778231 366.844187 
L 415.053043 370.296806 
L 419.327854 373.220558 
L 423.602665 375.677789 
L 427.877476 377.7275 
L 432.152288 379.424594 
L 436.427099 380.819385 
L 440.70191 381.957335 
L 444.976721 382.878988 
L 449.251532 383.62006 
L 453.526344 384.211646 
L 457.801155 384.680519 
L 462.075966 385.049485 
L 466.350777 385.337772 
L 470.625588 385.56143 
L 474.9004 385.733725 
L 479.175211 385.865521 
L 483.450022 385.965632 
L 487.724833 386.041146 
L 491.999645 386.097709 
L 496.274456 386.139784 
" style="fill:none;stroke:#ff6384;stroke-linecap:square;"/>
   </g>
   <g id="line2d_2">
    <path clip-path="url(#pdc17347cbd)" d="M 76.557866 386.139704 
L 80.82961 386.097599 
L 85.101355 386.040995 
L 89.373099 385.965427 
L 93.644843 385.865244 
L 97.916587 385.733353 
L 102.188331 385.560934 
L 106.460076 385.337116 
L 110.73182 385.048622 
L 115.003564 384.679391 
L 119.275308 384.210181 
L 123.547052 383.618171 
L 127.818797 382.876567 
L 132.090541 381.954252 
L 136.362285 380.815485 
L 140.634029 379.419693 
L 144.905774 377.72138 
L 149.177518 375.670197 
L 153.449262 373.211202 
L 157.721006 370.285351 
L 161.99275 366.830253 
L 166.264495 362.781221 
L 170.536239 358.07263 
L 174.807983 352.6396 
L 179.079727 346.419997 
L 183.351471 339.356725 
L 187.623216 331.400274 
L 191.89496 322.51146 
L 196.166704 312.664273 
L 200.438448 301.848741 
L 204.710192 290.073676 
L 208.981937 277.369185 
L 213.253681 263.788798 
L 217.525425 249.411074 
L 221.797169 234.340548 
L 226.068914 218.7079 
L 230.340658 202.669252 
L 234.612402 186.40451 
L 238.884146 170.114747 
L 243.15589 154.018615 
L 247.427635 138.347864 
L 251.699379 123.342073 
L 255.971123 109.24274 
L 260.242867 96.286934 
L 264.514611 84.700732 
L 268.786356 74.692695 
L 273.0581 66.447639 
L 277.329844 60.120969 
L 281.601588 55.833807 
L 285.873332 53.669139 
L 290.145077 53.669139 
L 294.416821 55.833807 
L 298.688565 60.120969 
L 302.960309 66.447639 
L 307.232053 74.692695 
L 311.503798 84.700732 
L 315.775542 96.286934 
L 320.047286 109.24274 
L 324.31903 123.342073 
L 328.590775 138.347864 
L 332.862519 154.018615 
L 337.134263 170.114747 
L 341.406007 186.40451 
L 345.677751 202.669252 
L 349.949496 218.7079 
L 354.22124 234.340548 
L 358.492984 249.411074 
L 362.764728 263.788798 
L 367.036472 277.369185 
L 371.308217 290.073676 
L 375.579961 301.848741 
L 379.851705 312.664273 
L 384.123449 322.51146 
L 388.395193 331.400274 
L 392.666938 339.356725 
L 396.938682 346.419997 
L 401.210426 352.6396 
L 405.48217 358.07263 
L 409.753915 362.781221 
L 414.025659 366.830253 
L 418.297403 370.285351 
L 422.569147 373.211202 
L 426.840891 375.670197 
L 431.112636 377.72138 
L 435.38438 379.419693 
L 439.656124 380.815485 
L 443.927868 381.954252 
L 448.199612 382.876567 
L 452.471357 383.618171 
L 456.743101 384.210181 
L 461.014845 384.679391 
L 465.286589 385.048622 
L 469.558333 385.337116 
L 473.830078 385.560934 
L 478.101822 385.733353 
L 482.373566 385.865244 
L 486.64531 385.965427 
L 490.917055 386.040995 
L 495.188799 386.097599 
L 499.460543 386.139704 
" style="fill:none;stroke:#36a2eb;stroke-linecap:square;"/>
   </g>
   <g id="line2d_3">
    <path clip-path="url(#pdc17347cbd)" d="M 58.827273 386.139371 
L 63.086333 386.097141 
L 67.345392 386.040368 
L 71.604452 385.964575 
L 75.863512 385.864094 
L 80.122572 385.73181 
L 84.381632 385.558878 
L 88.640691 385.334393 
L 92.899751 385.04504 
L 97.158811 384.674709 
L 101.417871 384.204102 
L 105.676931 383.610328 
L 109.93599 382.866516 
L 114.19505 381.941454 
L 118.45411 380.799296 
L 122.71317 379.399346 
L 126.97223 377.695976 
L 131.231289 375.638684 
L 135.490349 373.172366 
L 139.749409 370.2378 
L 144.008469 366.772413 
L 148.267529 362.711322 
L 152.526588 357.988708 
L 156.785648 352.539497 
L 161.044708 346.301371 
L 165.303768 339.217063 
L 169.562828 331.236916 
L 173.821887 322.321628 
L 178.080947 312.445114 
L 182.340007 301.597371 
L 186.599067 289.787238 
L 190.858127 277.04491 
L 195.117186 263.424078 
L 199.376246 249.003534 
L 203.635306 233.888124 
L 207.894366 218.208919 
L 212.153426 202.122504 
L 216.412485 185.809323 
L 220.671545 169.471045 
L 224.930605 153.326975 
L 229.189665 137.609553 
L 233.448725 122.559072 
L 237.707784 108.417748 
L 241.966844 95.423357 
L 246.225904 83.802649 
L 250.484964 73.764805 
L 254.744024 65.495194 
L 259.003083 59.149682 
L 263.262143 54.849752 
L 267.521203 52.678636 
L 271.780263 52.678636 
L 276.039323 54.849752 
L 280.298383 59.149682 
L 284.557442 65.495194 
L 288.816502 73.764805 
L 293.075562 83.802649 
L 297.334622 95.423357 
L 301.593682 108.417748 
L 305.852741 122.559072 
L 310.111801 137.609553 
L 314.370861 153.326975 
L 318.629921 169.471045 
L 322.888981 185.809323 
L 327.14804 202.122504 
L 331.4071 218.208919 
L 335.66616 233.888124 
L 339.92522 249.003534 
L 344.18428 263.424078 
L 348.443339 277.04491 
L 352.702399 289.787238 
L 356.961459 301.597371 
L 361.220519 312.445114 
L 365.479579 322.321628 
L 369.738638 331.236916 
L 373.997698 339.217063 
L 378.256758 346.301371 
L 382.515818 352.539497 
L 386.774878 357.988708 
L 391.033937 362.711322 
L 395.292997 366.772413 
L 399.552057 370.2378 
L 403.811117 373.172366 
L 408.070177 375.638684 
L 412.329236 377.695976 
L 416.588296 379.399346 
L 420.847356 380.799296 
L 425.106416 381.941454 
L 429.365476 382.866516 
L 433.624535 383.610328 
L 437.883595 384.204102 
L 442.142655 384.674709 
L 446.401715 385.04504 
L 450.660775 385.334393 
L 454.919834 385.558878 
L 459.178894 385.73181 
L 463.437954 385.864094 
L 467.697014 385.964575 
L 471.956074 386.040368 
L 476.215133 386.097141 
L 480.474193 386.139371 
" style="fill:none;stroke:#4bc0c0;stroke-linecap:square;"/>
   </g>
   <g id="line2d_4">
    <path clip-path="url(#pdc17347cbd)" d="M 90.686817 386.140172 
L 94.976574 386.098244 
L 99.26633 386.041878 
L 103.556087 385.966627 
L 107.845844 385.866865 
L 112.1356 385.735528 
L 116.425357 385.563833 
L 120.715114 385.340955 
L 125.00487 385.053672 
L 129.294627 384.685991 
L 133.584384 384.218752 
L 137.87414 383.629227 
L 142.163897 382.890737 
L 146.453654 381.972295 
L 150.74341 380.83831 
L 155.033167 379.448378 
L 159.322924 377.757197 
L 163.61268 375.714627 
L 167.902437 373.265957 
L 172.192194 370.352391 
L 176.48195 366.911801 
L 180.771707 362.879771 
L 185.061464 358.190951 
L 189.35122 352.780734 
L 193.640977 346.587247 
L 197.930734 339.553633 
L 202.22049 331.630591 
L 206.510247 322.7791 
L 210.800004 312.973261 
L 215.08976 302.203143 
L 219.379517 290.477521 
L 223.669274 277.826375 
L 227.95903 264.303012 
L 232.248787 249.985659 
L 236.538544 234.978413 
L 240.8283 219.411406 
L 245.118057 203.440103 
L 249.407814 187.243656 
L 253.69757 171.022293 
L 257.987327 154.993748 
L 262.277084 139.388797 
L 266.566841 124.446015 
L 270.856597 110.405885 
L 275.146354 97.504479 
L 279.436111 85.966927 
L 283.725867 76.000913 
L 288.015624 67.790478 
L 292.305381 61.490373 
L 296.595137 57.221213 
L 300.884894 55.065634 
L 305.174651 55.065634 
L 309.464407 57.221213 
L 313.754164 61.490373 
L 318.043921 67.790478 
L 322.333677 76.000913 
L 326.623434 85.966927 
L 330.913191 97.504479 
L 335.202947 110.405885 
L 339.492704 124.446015 
L 343.782461 139.388797 
L 348.072217 154.993748 
L 352.361974 171.022293 
L 356.651731 187.243656 
L 360.941487 203.440103 
L 365.231244 219.411406 
L 369.521001 234.978413 
L 373.810757 249.985659 
L 378.100514 264.303012 
L 382.390271 277.826375 
L 386.680027 290.477521 
L 390.969784 302.203143 
L 395.259541 312.973261 
L 399.549297 322.7791 
L 403.839054 331.630591 
L 408.128811 339.553633 
L 412.418567 346.587247 
L 416.708324 352.780734 
L 420.998081 358.190951 
L 425.287837 362.879771 
L 429.577594 366.911801 
L 433.867351 370.352391 
L 438.157107 373.265957 
L 442.446864 375.714627 
L 446.736621 377.757197 
L 451.026377 379.448378 
L 455.316134 380.83831 
L 459.605891 381.972295 
L 463.895647 382.890737 
L 468.185404 383.629227 
L 472.475161 384.218752 
L 476.764917 384.685991 
L 481.054674 385.053672 
L 485.344431 385.340955 
L 489.634187 385.563833 
L 493.923944 385.735528 
L 498.213701 385.866865 
L 502.503457 385.966627 
L 506.793214 386.041878 
L 511.082971 386.098244 
L 515.372727 386.140172 
" style="fill:none;stroke:#9966ff;stroke-linecap:square;"/>
   </g>
   <g id="patch_3">
    <path d="M 36 402.93 
L 538.2 402.93 
" style="fill:none;stroke:#000000;stroke-linecap:square;stroke-linejoin:miter;stroke-width:0.8;"/>
   </g>
   <g id="legend_1">
    <g id="patch_4">
     <path d="M 450.225313 129.3975 
L 528.4 129.3975 
Q 531.2 129.3975 531.2 126.5975 
L 531.2 45.8 
Q 531.2 43 528.4 43 
L 450.225313 43 
Q 447.425313 43 447.425313 45.8 
L 447.425313 126.5975 
Q 447.425313 129.3975 450.225313 129.3975 
z
" style="fill:#ffffff;opacity:0.8;stroke:#cccccc;stroke-linejoin:miter;"/>
    </g>
    <g id="patch_5">
     <path d="M 453.025313 59.237813 
L 481.025313 59.237813 
L 481.025313 49.437813 
L 453.025313 49.437813 
z
" style="fill:#ff6384;opacity:0.5;stroke:#ff6384;stroke-linejoin:miter;"/>
    </g>
    <g id="text_1">
     <!-- base -->
     <defs>
      <path d="M 48.6875 27.296875 
Q 48.6875 37.203125 44.609375 42.84375 
Q 40.53125 48.484375 33.40625 48.484375 
Q 26.265625 48.484375 22.1875 42.84375 
Q 18.109375 37.203125 18.109375 27.296875 
Q 18.109375 17.390625 22.1875 11.75 
Q 26.265625 6.109375 33.40625 6.109375 
Q 40.53125 6.109375 44.609375 11.75 
Q 48.6875 17.390625 48.6875 27.296875 
z
M 18.109375 46.390625 
Q 20.953125 51.265625 25.265625 53.625 
Q 29.59375 56 35.59375 56 
Q 45.5625 56 51.78125 48.09375 
Q 58.015625 40.1875 58.015625 27.296875 
Q 58.015625 14.40625 51.78125 6.484375 
Q 45.5625 -1.421875 35.59375 -1.421875 
Q 29.59375 -1.421875 25.265625 0.953125 
Q 20.953125 3.328125 18.109375 8.203125 
L 18.109375 0 
L 9.078125 0 
L 9.078125 75.984375 
L 18.109375 75.984375 
z
" id="DejaVuSans-98"/>
      <path d="M 34.28125 27.484375 
Q 23.390625 27.484375 19.1875 25 
Q 14.984375 22.515625 14.984375 16.5 
Q 14.984375 11.71875 18.140625 8.90625 
Q 21.296875 6.109375 26.703125 6.109375 
Q 34.1875 6.109375 38.703125 11.40625 
Q 43.21875 16.703125 43.21875 25.484375 
L 43.21875 27.484375 
z
M 52.203125 31.203125 
L 52.203125 0 
L 43.21875 0 
L 43.21875 8.296875 
Q 40.140625 3.328125 35.546875 0.953125 
Q 30.953125 -1.421875 24.3125 -1.421875 
Q 15.921875 -1.421875 10.953125 3.296875 
Q 6 8.015625 6 15.921875 
Q 6 25.140625 12.171875 29.828125 
Q 18.359375 34.515625 30.609375 34.515625 
L 43.21875 34.515625 
L 43.21875 35.40625 
Q 43.21875 41.609375 39.140625 45 
Q 35.0625 48.390625 27.6875 48.390625 
Q 23 48.390625 18.546875 47.265625 
Q 14.109375 46.140625 10.015625 43.890625 
L 10.015625 52.203125 
Q 14.9375 54.109375 19.578125 55.046875 
Q 24.21875 56 28.609375 56 
Q 40.484375 56 46.34375 49.84375 
Q 52.203125 43.703125 52.203125 31.203125 
z
" id="DejaVuSans-97"/>
      <path d="M 44.28125 53.078125 
L 44.28125 44.578125 
Q 40.484375 46.53125 36.375 47.5 
Q 32.28125 48.484375 27.875 48.484375 
Q 21.1875 48.484375 17.84375 46.4375 
Q 14.5 44.390625 14.5 40.28125 
Q 14.5 37.15625 16.890625 35.375 
Q 19.28125 33.59375 26.515625 31.984375 
L 29.59375 31.296875 
Q 39.15625 29.25 43.1875 25.515625 
Q 47.21875 21.78125 47.21875 15.09375 
Q 47.21875 7.46875 41.1875 3.015625 
Q 35.15625 -1.421875 24.609375 -1.421875 
Q 20.21875 -1.421875 15.453125 -0.5625 
Q 10.6875 0.296875 5.421875 2 
L 5.421875 11.28125 
Q 10.40625 8.6875 15.234375 7.390625 
Q 20.0625 6.109375 24.8125 6.109375 
Q 31.15625 6.109375 34.5625 8.28125 
Q 37.984375 10.453125 37.984375 14.40625 
Q 37.984375 18.0625 35.515625 20.015625 
Q 33.0625 21.96875 24.703125 23.78125 
L 21.578125 24.515625 
Q 13.234375 26.265625 9.515625 29.90625 
Q 5.8125 33.546875 5.8125 39.890625 
Q 5.8125 47.609375 11.28125 51.796875 
Q 16.75 56 26.8125 56 
Q 31.78125 56 36.171875 55.265625 
Q 40.578125 54.546875 44.28125 53.078125 
z
" id="DejaVuSans-115"/>
      <path d="M 56.203125 29.59375 
L 56.203125 25.203125 
L 14.890625 25.203125 
Q 15.484375 15.921875 20.484375 11.0625 
Q 25.484375 6.203125 34.421875 6.203125 
Q 39.59375 6.203125 44.453125 7.46875 
Q 49.3125 8.734375 54.109375 11.28125 
L 54.109375 2.78125 
Q 49.265625 0.734375 44.1875 -0.34375 
Q 39.109375 -1.421875 33.890625 -1.421875 
Q 20.796875 -1.421875 13.15625 6.1875 
Q 5.515625 13.8125 5.515625 26.8125 
Q 5.515625 40.234375 12.765625 48.109375 
Q 20.015625 56 32.328125 56 
Q 43.359375 56 49.78125 48.890625 
Q 56.203125 41.796875 56.203125 29.59375 
z
M 47.21875 32.234375 
Q 47.125 39.59375 43.09375 43.984375 
Q 39.0625 48.390625 32.421875 48.390625 
Q 24.90625 48.390625 20.390625 44.140625 
Q 15.875 39.890625 15.1875 32.171875 
z
" id="DejaVuSans-101"/>
     </defs>
     <g transform="translate(492.225313 59.237813)scale(0.14 -0.14)">
      <use xlink:href="#DejaVuSans-98"/>
      <use x="63.476562" xlink:href="#DejaVuSans-97"/>
      <use x="124.755859" xlink:href="#DejaVuSans-115"/>
      <use x="176.855469" xlink:href="#DejaVuSans-101"/>
     </g>
    </g>
    <g id="patch_6">
     <path d="M 453.025313 79.787188 
L 481.025313 79.787188 
L 481.025313 69.987188 
L 453.025313 69.987188 
z
" style="fill:#36a2eb;opacity:0.5;stroke:#36a2eb;stroke-linejoin:miter;"/>
    </g>
    <g id="text_2">
     <!-- fifth -->
     <defs>
      <path d="M 37.109375 75.984375 
L 37.109375 68.5 
L 28.515625 68.5 
Q 23.6875 68.5 21.796875 66.546875 
Q 19.921875 64.59375 19.921875 59.515625 
L 19.921875 54.6875 
L 34.71875 54.6875 
L 34.71875 47.703125 
L 19.921875 47.703125 
L 19.921875 0 
L 10.890625 0 
L 10.890625 47.703125 
L 2.296875 47.703125 
L 2.296875 54.6875 
L 10.890625 54.6875 
L 10.890625 58.5 
Q 10.890625 67.625 15.140625 71.796875 
Q 19.390625 75.984375 28.609375 75.984375 
z
" id="DejaVuSans-102"/>
      <path d="M 9.421875 54.6875 
L 18.40625 54.6875 
L 18.40625 0 
L 9.421875 0 
z
M 9.421875 75.984375 
L 18.40625 75.984375 
L 18.40625 64.59375 
L 9.421875 64.59375 
z
" id="DejaVuSans-105"/>
      <path d="M 18.3125 70.21875 
L 18.3125 54.6875 
L 36.8125 54.6875 
L 36.8125 47.703125 
L 18.3125 47.703125 
L 18.3125 18.015625 
Q 18.3125 11.328125 20.140625 9.421875 
Q 21.96875 7.515625 27.59375 7.515625 
L 36.8125 7.515625 
L 36.8125 0 
L 27.59375 0 
Q 17.1875 0 13.234375 3.875 
Q 9.28125 7.765625 9.28125 18.015625 
L 9.28125 47.703125 
L 2.6875 47.703125 
L 2.6875 54.6875 
L 9.28125 54.6875 
L 9.28125 70.21875 
z
" id="DejaVuSans-116"/>
      <path d="M 54.890625 33.015625 
L 54.890625 0 
L 45.90625 0 
L 45.90625 32.71875 
Q 45.90625 40.484375 42.875 44.328125 
Q 39.84375 48.1875 33.796875 48.1875 
Q 26.515625 48.1875 22.3125 43.546875 
Q 18.109375 38.921875 18.109375 30.90625 
L 18.109375 0 
L 9.078125 0 
L 9.078125 75.984375 
L 18.109375 75.984375 
L 18.109375 46.1875 
Q 21.34375 51.125 25.703125 53.5625 
Q 30.078125 56 35.796875 56 
Q 45.21875 56 50.046875 50.171875 
Q 54.890625 44.34375 54.890625 33.015625 
z
" id="DejaVuSans-104"/>
     </defs>
     <g transform="translate(492.225313 79.787188)scale(0.14 -0.14)">
      <use xlink:href="#DejaVuSans-102"/>
      <use x="35.205078" xlink:href="#DejaVuSans-105"/>
      <use x="62.988281" xlink:href="#DejaVuSans-102"/>
      <use x="98.177734" xlink:href="#DejaVuSans-116"/>
      <use x="137.386719" xlink:href="#DejaVuSans-104"/>
     </g>
    </g>
    <g id="patch_7">
     <path d="M 453.025313 100.336563 
L 481.025313 100.336563 
L 481.025313 90.536563 
L 453.025313 90.536563 
z
" style="fill:#4bc0c0;opacity:0.5;stroke:#4bc0c0;stroke-linejoin:miter;"/>
    </g>
    <g id="text_3">
     <!-- mid -->
     <defs>
      <path d="M 52 44.1875 
Q 55.375 50.25 60.0625 53.125 
Q 64.75 56 71.09375 56 
Q 79.640625 56 84.28125 50.015625 
Q 88.921875 44.046875 88.921875 33.015625 
L 88.921875 0 
L 79.890625 0 
L 79.890625 32.71875 
Q 79.890625 40.578125 77.09375 44.375 
Q 74.3125 48.1875 68.609375 48.1875 
Q 61.625 48.1875 57.5625 43.546875 
Q 53.515625 38.921875 53.515625 30.90625 
L 53.515625 0 
L 44.484375 0 
L 44.484375 32.71875 
Q 44.484375 40.625 41.703125 44.40625 
Q 38.921875 48.1875 33.109375 48.1875 
Q 26.21875 48.1875 22.15625 43.53125 
Q 18.109375 38.875 18.109375 30.90625 
L 18.109375 0 
L 9.078125 0 
L 9.078125 54.6875 
L 18.109375 54.6875 
L 18.109375 46.1875 
Q 21.1875 51.21875 25.484375 53.609375 
Q 29.78125 56 35.6875 56 
Q 41.65625 56 45.828125 52.96875 
Q 50 49.953125 52 44.1875 
z
" id="DejaVuSans-109"/>
      <path d="M 45.40625 46.390625 
L 45.40625 75.984375 
L 54.390625 75.984375 
L 54.390625 0 
L 45.40625 0 
L 45.40625 8.203125 
Q 42.578125 3.328125 38.25 0.953125 
Q 33.9375 -1.421875 27.875 -1.421875 
Q 17.96875 -1.421875 11.734375 6.484375 
Q 5.515625 14.40625 5.515625 27.296875 
Q 5.515625 40.1875 11.734375 48.09375 
Q 17.96875 56 27.875 56 
Q 33.9375 56 38.25 53.625 
Q 42.578125 51.265625 45.40625 46.390625 
z
M 14.796875 27.296875 
Q 14.796875 17.390625 18.875 11.75 
Q 22.953125 6.109375 30.078125 6.109375 
Q 37.203125 6.109375 41.296875 11.75 
Q 45.40625 17.390625 45.40625 27.296875 
Q 45.40625 37.203125 41.296875 42.84375 
Q 37.203125 48.484375 30.078125 48.484375 
Q 22.953125 48.484375 18.875 42.84375 
Q 14.796875 37.203125 14.796875 27.296875 
z
" id="DejaVuSans-100"/>
     </defs>
     <g transform="translate(492.225313 100.336563)scale(0.14 -0.14)">
      <use xlink:href="#DejaVuSans-109"/>
      <use x="97.412109" xlink:href="#DejaVuSans-105"/>
      <use x="125.195312" xlink:href="#DejaVuSans-100"/>
     </g>
    </g>
    <g id="patch_8">
     <path d="M 453.025313 120.885938 
L 481.025313 120.885938 
L 481.025313 111.085938 
L 453.025313 111.085938 
z
" style="fill:#9966ff;opacity:0.5;stroke:#9966ff;stroke-linejoin:miter;"/>
    </g>
    <g id="text_4">
     <!-- right -->
     <defs>
      <path d="M 41.109375 46.296875 
Q 39.59375 47.171875 37.8125 47.578125 
Q 36.03125 48 33.890625 48 
Q 26.265625 48 22.1875 43.046875 
Q 18.109375 38.09375 18.109375 28.8125 
L 18.109375 0 
L 9.078125 0 
L 9.078125 54.6875 
L 18.109375 54.6875 
L 18.109375 46.1875 
Q 20.953125 51.171875 25.484375 53.578125 
Q 30.03125 56 36.53125 56 
Q 37.453125 56 38.578125 55.875 
Q 39.703125 55.765625 41.0625 55.515625 
z
" id="DejaVuSans-114"/>
      <path d="M 45.40625 27.984375 
Q 45.40625 37.75 41.375 43.109375 
Q 37.359375 48.484375 30.078125 48.484375 
Q 22.859375 48.484375 18.828125 43.109375 
Q 14.796875 37.75 14.796875 27.984375 
Q 14.796875 18.265625 18.828125 12.890625 
Q 22.859375 7.515625 30.078125 7.515625 
Q 37.359375 7.515625 41.375 12.890625 
Q 45.40625 18.265625 45.40625 27.984375 
z
M 54.390625 6.78125 
Q 54.390625 -7.171875 48.1875 -13.984375 
Q 42 -20.796875 29.203125 -20.796875 
Q 24.46875 -20.796875 20.265625 -20.09375 
Q 16.0625 -19.390625 12.109375 -17.921875 
L 12.109375 -9.1875 
Q 16.0625 -11.328125 19.921875 -12.34375 
Q 23.78125 -13.375 27.78125 -13.375 
Q 36.625 -13.375 41.015625 -8.765625 
Q 45.40625 -4.15625 45.40625 5.171875 
L 45.40625 9.625 
Q 42.625 4.78125 38.28125 2.390625 
Q 33.9375 0 27.875 0 
Q 17.828125 0 11.671875 7.65625 
Q 5.515625 15.328125 5.515625 27.984375 
Q 5.515625 40.671875 11.671875 48.328125 
Q 17.828125 56 27.875 56 
Q 33.9375 56 38.28125 53.609375 
Q 42.625 51.21875 45.40625 46.390625 
L 45.40625 54.6875 
L 54.390625 54.6875 
z
" id="DejaVuSans-103"/>
     </defs>
     <g transform="translate(492.225313 120.885938)scale(0.14 -0.14)">
      <use xlink:href="#DejaVuSans-114"/>
      <use x="41.113281" xlink:href="#DejaVuSans-105"/>
      <use x="68.896484" xlink:href="#DejaVuSans-103"/>
      <use x="132.373047" xlink:href="#DejaVuSans-104"/>
      <use x="195.751953" xlink:href="#DejaVuSans-116"/>
     </g>
    </g>
   </g>
  </g>
  <g id="axes_2">
   <g id="patch_9">
    <path d="M 36 525.24 
L 538.2 525.24 
L 538.2 402.93 
L 36 402.93 
z
" style="fill:none;"/>
   </g>
   <g id="patch_10">
    <path clip-path="url(#p4916ae4935)" d="M 180.985755 519.680455 
L 388.356847 519.680455 
L 388.356847 503.796039 
L 180.985755 503.796039 
z
" style="fill:#ff6384;opacity:0.5;"/>
   </g>
   <g id="patch_11">
    <path clip-path="url(#p4916ae4935)" d="M 184.398049 487.911623 
L 391.62036 487.911623 
L 391.62036 472.027208 
L 184.398049 472.027208 
z
" style="fill:#36a2eb;opacity:0.5;"/>
   </g>
   <g id="patch_12">
    <path clip-path="url(#p4916ae4935)" d="M 166.347237 456.142792 
L 372.954229 456.142792 
L 372.954229 440.258377 
L 166.347237 440.258377 
z
" style="fill:#4bc0c0;opacity:0.5;"/>
   </g>
   <g id="patch_13">
    <path clip-path="url(#p4916ae4935)" d="M 198.981724 424.373961 
L 407.07782 424.373961 
L 407.07782 408.489545 
L 198.981724 408.489545 
z
" style="fill:#9966ff;opacity:0.5;"/>
   </g>
   <g id="matplotlib.axis_1">
    <g id="xtick_1">
     <g id="line2d_5">
      <defs>
       <path d="M 0 0 
L 0 3.5 
" id="m46e345610e" style="stroke:#000000;stroke-width:0.8;"/>
      </defs>
      <g>
       <use style="stroke:#000000;stroke-width:0.8;" x="62.70069" xlink:href="#m46e345610e" y="525.24"/>
      </g>
     </g>
     <g id="text_5">
      <!-- 6.0 -->
      <defs>
       <path d="M 33.015625 40.375 
Q 26.375 40.375 22.484375 35.828125 
Q 18.609375 31.296875 18.609375 23.390625 
Q 18.609375 15.53125 22.484375 10.953125 
Q 26.375 6.390625 33.015625 6.390625 
Q 39.65625 6.390625 43.53125 10.953125 
Q 47.40625 15.53125 47.40625 23.390625 
Q 47.40625 31.296875 43.53125 35.828125 
Q 39.65625 40.375 33.015625 40.375 
z
M 52.59375 71.296875 
L 52.59375 62.3125 
Q 48.875 64.0625 45.09375 64.984375 
Q 41.3125 65.921875 37.59375 65.921875 
Q 27.828125 65.921875 22.671875 59.328125 
Q 17.53125 52.734375 16.796875 39.40625 
Q 19.671875 43.65625 24.015625 45.921875 
Q 28.375 48.1875 33.59375 48.1875 
Q 44.578125 48.1875 50.953125 41.515625 
Q 57.328125 34.859375 57.328125 23.390625 
Q 57.328125 12.15625 50.6875 5.359375 
Q 44.046875 -1.421875 33.015625 -1.421875 
Q 20.359375 -1.421875 13.671875 8.265625 
Q 6.984375 17.96875 6.984375 36.375 
Q 6.984375 53.65625 15.1875 63.9375 
Q 23.390625 74.21875 37.203125 74.21875 
Q 40.921875 74.21875 44.703125 73.484375 
Q 48.484375 72.75 52.59375 71.296875 
z
" id="DejaVuSans-54"/>
       <path d="M 10.6875 12.40625 
L 21 12.40625 
L 21 0 
L 10.6875 0 
z
" id="DejaVuSans-46"/>
       <path d="M 31.78125 66.40625 
Q 24.171875 66.40625 20.328125 58.90625 
Q 16.5 51.421875 16.5 36.375 
Q 16.5 21.390625 20.328125 13.890625 
Q 24.171875 6.390625 31.78125 6.390625 
Q 39.453125 6.390625 43.28125 13.890625 
Q 47.125 21.390625 47.125 36.375 
Q 47.125 51.421875 43.28125 58.90625 
Q 39.453125 66.40625 31.78125 66.40625 
z
M 31.78125 74.21875 
Q 44.046875 74.21875 50.515625 64.515625 
Q 56.984375 54.828125 56.984375 36.375 
Q 56.984375 17.96875 50.515625 8.265625 
Q 44.046875 -1.421875 31.78125 -1.421875 
Q 19.53125 -1.421875 13.0625 8.265625 
Q 6.59375 17.96875 6.59375 36.375 
Q 6.59375 54.828125 13.0625 64.515625 
Q 19.53125 74.21875 31.78125 74.21875 
z
" id="DejaVuSans-48"/>
      </defs>
      <g transform="translate(51.568503 542.877813)scale(0.14 -0.14)">
       <use xlink:href="#DejaVuSans-54"/>
       <use x="63.623047" xlink:href="#DejaVuSans-46"/>
       <use x="95.410156" xlink:href="#DejaVuSans-48"/>
      </g>
     </g>
    </g>
    <g id="xtick_2">
     <g id="line2d_6">
      <g>
       <use style="stroke:#000000;stroke-width:0.8;" x="146.148288" xlink:href="#m46e345610e" y="525.24"/>
      </g>
     </g>
     <g id="text_6">
      <!-- 6.5 -->
      <defs>
       <path d="M 10.796875 72.90625 
L 49.515625 72.90625 
L 49.515625 64.59375 
L 19.828125 64.59375 
L 19.828125 46.734375 
Q 21.96875 47.46875 24.109375 47.828125 
Q 26.265625 48.1875 28.421875 48.1875 
Q 40.625 48.1875 47.75 41.5 
Q 54.890625 34.8125 54.890625 23.390625 
Q 54.890625 11.625 47.5625 5.09375 
Q 40.234375 -1.421875 26.90625 -1.421875 
Q 22.3125 -1.421875 17.546875 -0.640625 
Q 12.796875 0.140625 7.71875 1.703125 
L 7.71875 11.625 
Q 12.109375 9.234375 16.796875 8.0625 
Q 21.484375 6.890625 26.703125 6.890625 
Q 35.15625 6.890625 40.078125 11.328125 
Q 45.015625 15.765625 45.015625 23.390625 
Q 45.015625 31 40.078125 35.4375 
Q 35.15625 39.890625 26.703125 39.890625 
Q 22.75 39.890625 18.8125 39.015625 
Q 14.890625 38.140625 10.796875 36.28125 
z
" id="DejaVuSans-53"/>
      </defs>
      <g transform="translate(135.016101 542.877813)scale(0.14 -0.14)">
       <use xlink:href="#DejaVuSans-54"/>
       <use x="63.623047" xlink:href="#DejaVuSans-46"/>
       <use x="95.410156" xlink:href="#DejaVuSans-53"/>
      </g>
     </g>
    </g>
    <g id="xtick_3">
     <g id="line2d_7">
      <g>
       <use style="stroke:#000000;stroke-width:0.8;" x="229.595886" xlink:href="#m46e345610e" y="525.24"/>
      </g>
     </g>
     <g id="text_7">
      <!-- 7.0 -->
      <defs>
       <path d="M 8.203125 72.90625 
L 55.078125 72.90625 
L 55.078125 68.703125 
L 28.609375 0 
L 18.3125 0 
L 43.21875 64.59375 
L 8.203125 64.59375 
z
" id="DejaVuSans-55"/>
      </defs>
      <g transform="translate(218.463698 542.877813)scale(0.14 -0.14)">
       <use xlink:href="#DejaVuSans-55"/>
       <use x="63.623047" xlink:href="#DejaVuSans-46"/>
       <use x="95.410156" xlink:href="#DejaVuSans-48"/>
      </g>
     </g>
    </g>
    <g id="xtick_4">
     <g id="line2d_8">
      <g>
       <use style="stroke:#000000;stroke-width:0.8;" x="313.043484" xlink:href="#m46e345610e" y="525.24"/>
      </g>
     </g>
     <g id="text_8">
      <!-- 7.5 -->
      <g transform="translate(301.911296 542.877813)scale(0.14 -0.14)">
       <use xlink:href="#DejaVuSans-55"/>
       <use x="63.623047" xlink:href="#DejaVuSans-46"/>
       <use x="95.410156" xlink:href="#DejaVuSans-53"/>
      </g>
     </g>
    </g>
    <g id="xtick_5">
     <g id="line2d_9">
      <g>
       <use style="stroke:#000000;stroke-width:0.8;" x="396.491082" xlink:href="#m46e345610e" y="525.24"/>
      </g>
     </g>
     <g id="text_9">
      <!-- 8.0 -->
      <defs>
       <path d="M 31.78125 34.625 
Q 24.75 34.625 20.71875 30.859375 
Q 16.703125 27.09375 16.703125 20.515625 
Q 16.703125 13.921875 20.71875 10.15625 
Q 24.75 6.390625 31.78125 6.390625 
Q 38.8125 6.390625 42.859375 10.171875 
Q 46.921875 13.96875 46.921875 20.515625 
Q 46.921875 27.09375 42.890625 30.859375 
Q 38.875 34.625 31.78125 34.625 
z
M 21.921875 38.8125 
Q 15.578125 40.375 12.03125 44.71875 
Q 8.5 49.078125 8.5 55.328125 
Q 8.5 64.0625 14.71875 69.140625 
Q 20.953125 74.21875 31.78125 74.21875 
Q 42.671875 74.21875 48.875 69.140625 
Q 55.078125 64.0625 55.078125 55.328125 
Q 55.078125 49.078125 51.53125 44.71875 
Q 48 40.375 41.703125 38.8125 
Q 48.828125 37.15625 52.796875 32.3125 
Q 56.78125 27.484375 56.78125 20.515625 
Q 56.78125 9.90625 50.3125 4.234375 
Q 43.84375 -1.421875 31.78125 -1.421875 
Q 19.734375 -1.421875 13.25 4.234375 
Q 6.78125 9.90625 6.78125 20.515625 
Q 6.78125 27.484375 10.78125 32.3125 
Q 14.796875 37.15625 21.921875 38.8125 
z
M 18.3125 54.390625 
Q 18.3125 48.734375 21.84375 45.5625 
Q 25.390625 42.390625 31.78125 42.390625 
Q 38.140625 42.390625 41.71875 45.5625 
Q 45.3125 48.734375 45.3125 54.390625 
Q 45.3125 60.0625 41.71875 63.234375 
Q 38.140625 66.40625 31.78125 66.40625 
Q 25.390625 66.40625 21.84375 63.234375 
Q 18.3125 60.0625 18.3125 54.390625 
z
" id="DejaVuSans-56"/>
      </defs>
      <g transform="translate(385.358894 542.877813)scale(0.14 -0.14)">
       <use xlink:href="#DejaVuSans-56"/>
       <use x="63.623047" xlink:href="#DejaVuSans-46"/>
       <use x="95.410156" xlink:href="#DejaVuSans-48"/>
      </g>
     </g>
    </g>
    <g id="xtick_6">
     <g id="line2d_10">
      <g>
       <use style="stroke:#000000;stroke-width:0.8;" x="479.93868" xlink:href="#m46e345610e" y="525.24"/>
      </g>
     </g>
     <g id="text_10">
      <!-- 8.5 -->
      <g transform="translate(468.806492 542.877813)scale(0.14 -0.14)">
       <use xlink:href="#DejaVuSans-56"/>
       <use x="63.623047" xlink:href="#DejaVuSans-46"/>
       <use x="95.410156" xlink:href="#DejaVuSans-53"/>
      </g>
     </g>
    </g>
   </g>
   <g id="line2d_11">
    <path clip-path="url(#p4916ae4935)" d="M 284.671301 525.24 
L 284.671301 402.93 
" style="fill:none;stroke:#ff6384;stroke-dasharray:5.55,2.4;stroke-dashoffset:0;stroke-opacity:0.8;stroke-width:1.5;"/>
   </g>
   <g id="line2d_12">
    <path clip-path="url(#p4916ae4935)" d="M 288.009205 525.24 
L 288.009205 402.93 
" style="fill:none;stroke:#36a2eb;stroke-dasharray:5.55,2.4;stroke-dashoffset:0;stroke-opacity:0.8;stroke-width:1.5;"/>
   </g>
   <g id="line2d_13">
    <path clip-path="url(#p4916ae4935)" d="M 269.650733 525.24 
L 269.650733 402.93 
" style="fill:none;stroke:#4bc0c0;stroke-dasharray:5.55,2.4;stroke-dashoffset:0;stroke-opacity:0.8;stroke-width:1.5;"/>
   </g>
   <g id="line2d_14">
    <path clip-path="url(#p4916ae4935)" d="M 303.029772 525.24 
L 303.029772 402.93 
" style="fill:none;stroke:#9966ff;stroke-dasharray:5.55,2.4;stroke-dashoffset:0;stroke-opacity:0.8;stroke-width:1.5;"/>
   </g>
   <g id="patch_14">
    <path d="M 36 525.24 
L 538.2 525.24 
" style="fill:none;stroke:#000000;stroke-linecap:square;stroke-linejoin:miter;stroke-width:0.8;"/>
   </g>
  </g>
 </g>
 <defs>
  <clipPath id="pdc17347cbd">
   <rect height="366.93" width="502.2" x="36" y="36"/>
  </clipPath>
  <clipPath id="p4916ae4935">
   <rect height="122.31" width="502.2" x="36" y="402.93"/>
  </clipPath>
 </defs>
</svg>
