<?xml version="1.0" encoding="utf-8" standalone="no"?>
<!DOCTYPE svg PUBLIC "-//W3C//DTD SVG 1.1//EN"
  "http://www.w3.org/Graphics/SVG/1.1/DTD/svg11.dtd">
<!-- Created with matplotlib (https://matplotlib.org/) -->
<svg height="581.789375pt" version="1.1" viewBox="0 0 574.2 581.789375" width="574.2pt" xmlns="http://www.w3.org/2000/svg" xmlns:xlink="http://www.w3.org/1999/xlink">
 <defs>
  <style type="text/css">
*{stroke-linecap:butt;stroke-linejoin:round;}
  </style>
 </defs>
 <g id="figure_1">
  <g id="patch_1">
   <path d="M 0 581.789375 
L 574.2 581.789375 
L 574.2 0 
L 0 0 
z
" style="fill:none;"/>
  </g>
  <g id="axes_1">
   <g id="patch_2">
    <path d="M 36 402.93 
L 538.2 402.93 
L 538.2 36 
L 36 36 
z
" style="fill:none;"/>
   </g>
   <g id="PolyCollection_1">
    <defs>
     <path d="M 73.075414 -195.538011 
L 73.075414 -195.649597 
L 77.350043 -195.691673 
L 81.624672 -195.74824 
L 85.899301 -195.823757 
L 90.173931 -195.923873 
L 94.44856 -196.055675 
L 98.723189 -196.227978 
L 102.997818 -196.451646 
L 107.272448 -196.739947 
L 111.547077 -197.108931 
L 115.821706 -197.577827 
L 120.096335 -198.169441 
L 124.370964 -198.910548 
L 128.645594 -199.832245 
L 132.920223 -200.970249 
L 137.194852 -202.365106 
L 141.469481 -204.062282 
L 145.744111 -206.11209 
L 150.01874 -208.569438 
L 154.293369 -211.49333 
L 158.567998 -214.946113 
L 162.842628 -218.992433 
L 167.117257 -223.69787 
L 171.391886 -229.127261 
L 175.666515 -235.342698 
L 179.941145 -242.401239 
L 184.215774 -250.352361 
L 188.490403 -259.235221 
L 192.765032 -269.075812 
L 197.039662 -279.8841 
L 201.314291 -291.651278 
L 205.58892 -304.347259 
L 209.863549 -317.91855 
L 214.138178 -332.286643 
L 218.412808 -347.347075 
L 222.687437 -362.969251 
L 226.962066 -378.997157 
L 231.236695 -395.251004 
L 235.511325 -411.529856 
L 239.785954 -427.615207 
L 244.060583 -443.275461 
L 248.335212 -458.271201 
L 252.609842 -472.36109 
L 256.884471 -485.308218 
L 261.1591 -496.886659 
L 265.433729 -506.887993 
L 269.708359 -515.127526 
L 273.982988 -521.449959 
L 278.257617 -525.734249 
L 282.532246 -527.897467 
L 286.806875 -527.897467 
L 291.081505 -525.734249 
L 295.356134 -521.449959 
L 299.630763 -515.127526 
L 303.905392 -506.887993 
L 308.180022 -496.886659 
L 312.454651 -485.308218 
L 316.72928 -472.36109 
L 321.003909 -458.271201 
L 325.278539 -443.275461 
L 329.553168 -427.615207 
L 333.827797 -411.529856 
L 338.102426 -395.251004 
L 342.377056 -378.997157 
L 346.651685 -362.969251 
L 350.926314 -347.347075 
L 355.200943 -332.286643 
L 359.475572 -317.91855 
L 363.750202 -304.347259 
L 368.024831 -291.651278 
L 372.29946 -279.8841 
L 376.574089 -269.075812 
L 380.848719 -259.235221 
L 385.123348 -250.352361 
L 389.397977 -242.401239 
L 393.672606 -235.342698 
L 397.947236 -229.127261 
L 402.221865 -223.69787 
L 406.496494 -218.992433 
L 410.771123 -214.946113 
L 415.045753 -211.49333 
L 419.320382 -208.569438 
L 423.595011 -206.11209 
L 427.86964 -204.062282 
L 432.144269 -202.365106 
L 436.418899 -200.970249 
L 440.693528 -199.832245 
L 444.968157 -198.910548 
L 449.242786 -198.169441 
L 453.517416 -197.577827 
L 457.792045 -197.108931 
L 462.066674 -196.739947 
L 466.341303 -196.451646 
L 470.615933 -196.227978 
L 474.890562 -196.055675 
L 479.165191 -195.923873 
L 483.43982 -195.823757 
L 487.71445 -195.74824 
L 491.989079 -195.691673 
L 496.263708 -195.649597 
L 496.263708 -195.538011 
L 496.263708 -195.538011 
L 491.989079 -195.538011 
L 487.71445 -195.538011 
L 483.43982 -195.538011 
L 479.165191 -195.538011 
L 474.890562 -195.538011 
L 470.615933 -195.538011 
L 466.341303 -195.538011 
L 462.066674 -195.538011 
L 457.792045 -195.538011 
L 453.517416 -195.538011 
L 449.242786 -195.538011 
L 444.968157 -195.538011 
L 440.693528 -195.538011 
L 436.418899 -195.538011 
L 432.144269 -195.538011 
L 427.86964 -195.538011 
L 423.595011 -195.538011 
L 419.320382 -195.538011 
L 415.045753 -195.538011 
L 410.771123 -195.538011 
L 406.496494 -195.538011 
L 402.221865 -195.538011 
L 397.947236 -195.538011 
L 393.672606 -195.538011 
L 389.397977 -195.538011 
L 385.123348 -195.538011 
L 380.848719 -195.538011 
L 376.574089 -195.538011 
L 372.29946 -195.538011 
L 368.024831 -195.538011 
L 363.750202 -195.538011 
L 359.475572 -195.538011 
L 355.200943 -195.538011 
L 350.926314 -195.538011 
L 346.651685 -195.538011 
L 342.377056 -195.538011 
L 338.102426 -195.538011 
L 333.827797 -195.538011 
L 329.553168 -195.538011 
L 325.278539 -195.538011 
L 321.003909 -195.538011 
L 316.72928 -195.538011 
L 312.454651 -195.538011 
L 308.180022 -195.538011 
L 303.905392 -195.538011 
L 299.630763 -195.538011 
L 295.356134 -195.538011 
L 291.081505 -195.538011 
L 286.806875 -195.538011 
L 282.532246 -195.538011 
L 278.257617 -195.538011 
L 273.982988 -195.538011 
L 269.708359 -195.538011 
L 265.433729 -195.538011 
L 261.1591 -195.538011 
L 256.884471 -195.538011 
L 252.609842 -195.538011 
L 248.335212 -195.538011 
L 244.060583 -195.538011 
L 239.785954 -195.538011 
L 235.511325 -195.538011 
L 231.236695 -195.538011 
L 226.962066 -195.538011 
L 222.687437 -195.538011 
L 218.412808 -195.538011 
L 214.138178 -195.538011 
L 209.863549 -195.538011 
L 205.58892 -195.538011 
L 201.314291 -195.538011 
L 197.039662 -195.538011 
L 192.765032 -195.538011 
L 188.490403 -195.538011 
L 184.215774 -195.538011 
L 179.941145 -195.538011 
L 175.666515 -195.538011 
L 171.391886 -195.538011 
L 167.117257 -195.538011 
L 162.842628 -195.538011 
L 158.567998 -195.538011 
L 154.293369 -195.538011 
L 150.01874 -195.538011 
L 145.744111 -195.538011 
L 141.469481 -195.538011 
L 137.194852 -195.538011 
L 132.920223 -195.538011 
L 128.645594 -195.538011 
L 124.370964 -195.538011 
L 120.096335 -195.538011 
L 115.821706 -195.538011 
L 111.547077 -195.538011 
L 107.272448 -195.538011 
L 102.997818 -195.538011 
L 98.723189 -195.538011 
L 94.44856 -195.538011 
L 90.173931 -195.538011 
L 85.899301 -195.538011 
L 81.624672 -195.538011 
L 77.350043 -195.538011 
L 73.075414 -195.538011 
z
" id="m4ad94de086" style="stroke:#ff6384;stroke-opacity:0.5;"/>
    </defs>
    <g clip-path="url(#pea0bd8538f)">
     <use style="fill:#ff6384;fill-opacity:0.5;stroke:#ff6384;stroke-opacity:0.5;" x="0" xlink:href="#m4ad94de086" y="581.789375"/>
    </g>
   </g>
   <g id="PolyCollection_2">
    <defs>
     <path d="M 76.55372 -195.538011 
L 76.55372 -195.649671 
L 80.825501 -195.691776 
L 85.097281 -195.74838 
L 89.369061 -195.823947 
L 93.640841 -195.92413 
L 97.912621 -196.05602 
L 102.184401 -196.228438 
L 106.456182 -196.452256 
L 110.727962 -196.740749 
L 114.999742 -197.109979 
L 119.271522 -197.579187 
L 123.543302 -198.171196 
L 127.815082 -198.912797 
L 132.086863 -199.835109 
L 136.358643 -200.973872 
L 140.630423 -202.36966 
L 144.902203 -204.067967 
L 149.173983 -206.119143 
L 153.445764 -208.57813 
L 157.717544 -211.503971 
L 161.989324 -214.959058 
L 166.261104 -219.008076 
L 170.532884 -223.716652 
L 174.804664 -229.149663 
L 179.076445 -235.369246 
L 183.348225 -242.432494 
L 187.620005 -250.388919 
L 191.891785 -259.277704 
L 196.163565 -269.124858 
L 200.435345 -279.940355 
L 204.707126 -291.715381 
L 208.978906 -304.419829 
L 213.250686 -318.000171 
L 217.522466 -332.377848 
L 221.794246 -347.448324 
L 226.066026 -363.08092 
L 230.337807 -379.119515 
L 234.609587 -395.384203 
L 238.881367 -411.673912 
L 243.153147 -427.769991 
L 247.424927 -443.44069 
L 251.696707 -458.446431 
L 255.968488 -472.545717 
L 260.240268 -485.50148 
L 264.512048 -497.087644 
L 268.783828 -507.095648 
L 273.055608 -515.340676 
L 277.327389 -521.667325 
L 281.599169 -525.954473 
L 285.870949 -528.119134 
L 290.142729 -528.119134 
L 294.414509 -525.954473 
L 298.686289 -521.667325 
L 302.95807 -515.340676 
L 307.22985 -507.095648 
L 311.50163 -497.087644 
L 315.77341 -485.50148 
L 320.04519 -472.545717 
L 324.31697 -458.446431 
L 328.588751 -443.44069 
L 332.860531 -427.769991 
L 337.132311 -411.673912 
L 341.404091 -395.384203 
L 345.675871 -379.119515 
L 349.947651 -363.08092 
L 354.219432 -347.448324 
L 358.491212 -332.377848 
L 362.762992 -318.000171 
L 367.034772 -304.419829 
L 371.306552 -291.715381 
L 375.578333 -279.940355 
L 379.850113 -269.124858 
L 384.121893 -259.277704 
L 388.393673 -250.388919 
L 392.665453 -242.432494 
L 396.937233 -235.369246 
L 401.209014 -229.149663 
L 405.480794 -223.716652 
L 409.752574 -219.008076 
L 414.024354 -214.959058 
L 418.296134 -211.503971 
L 422.567914 -208.57813 
L 426.839695 -206.119143 
L 431.111475 -204.067967 
L 435.383255 -202.36966 
L 439.655035 -200.973872 
L 443.926815 -199.835109 
L 448.198595 -198.912797 
L 452.470376 -198.171196 
L 456.742156 -197.579187 
L 461.013936 -197.109979 
L 465.285716 -196.740749 
L 469.557496 -196.452256 
L 473.829276 -196.228438 
L 478.101057 -196.05602 
L 482.372837 -195.92413 
L 486.644617 -195.823947 
L 490.916397 -195.74838 
L 495.188177 -195.691776 
L 499.459958 -195.649671 
L 499.459958 -195.538011 
L 499.459958 -195.538011 
L 495.188177 -195.538011 
L 490.916397 -195.538011 
L 486.644617 -195.538011 
L 482.372837 -195.538011 
L 478.101057 -195.538011 
L 473.829276 -195.538011 
L 469.557496 -195.538011 
L 465.285716 -195.538011 
L 461.013936 -195.538011 
L 456.742156 -195.538011 
L 452.470376 -195.538011 
L 448.198595 -195.538011 
L 443.926815 -195.538011 
L 439.655035 -195.538011 
L 435.383255 -195.538011 
L 431.111475 -195.538011 
L 426.839695 -195.538011 
L 422.567914 -195.538011 
L 418.296134 -195.538011 
L 414.024354 -195.538011 
L 409.752574 -195.538011 
L 405.480794 -195.538011 
L 401.209014 -195.538011 
L 396.937233 -195.538011 
L 392.665453 -195.538011 
L 388.393673 -195.538011 
L 384.121893 -195.538011 
L 379.850113 -195.538011 
L 375.578333 -195.538011 
L 371.306552 -195.538011 
L 367.034772 -195.538011 
L 362.762992 -195.538011 
L 358.491212 -195.538011 
L 354.219432 -195.538011 
L 349.947651 -195.538011 
L 345.675871 -195.538011 
L 341.404091 -195.538011 
L 337.132311 -195.538011 
L 332.860531 -195.538011 
L 328.588751 -195.538011 
L 324.31697 -195.538011 
L 320.04519 -195.538011 
L 315.77341 -195.538011 
L 311.50163 -195.538011 
L 307.22985 -195.538011 
L 302.95807 -195.538011 
L 298.686289 -195.538011 
L 294.414509 -195.538011 
L 290.142729 -195.538011 
L 285.870949 -195.538011 
L 281.599169 -195.538011 
L 277.327389 -195.538011 
L 273.055608 -195.538011 
L 268.783828 -195.538011 
L 264.512048 -195.538011 
L 260.240268 -195.538011 
L 255.968488 -195.538011 
L 251.696707 -195.538011 
L 247.424927 -195.538011 
L 243.153147 -195.538011 
L 238.881367 -195.538011 
L 234.609587 -195.538011 
L 230.337807 -195.538011 
L 226.066026 -195.538011 
L 221.794246 -195.538011 
L 217.522466 -195.538011 
L 213.250686 -195.538011 
L 208.978906 -195.538011 
L 204.707126 -195.538011 
L 200.435345 -195.538011 
L 196.163565 -195.538011 
L 191.891785 -195.538011 
L 187.620005 -195.538011 
L 183.348225 -195.538011 
L 179.076445 -195.538011 
L 174.804664 -195.538011 
L 170.532884 -195.538011 
L 166.261104 -195.538011 
L 161.989324 -195.538011 
L 157.717544 -195.538011 
L 153.445764 -195.538011 
L 149.173983 -195.538011 
L 144.902203 -195.538011 
L 140.630423 -195.538011 
L 136.358643 -195.538011 
L 132.086863 -195.538011 
L 127.815082 -195.538011 
L 123.543302 -195.538011 
L 119.271522 -195.538011 
L 114.999742 -195.538011 
L 110.727962 -195.538011 
L 106.456182 -195.538011 
L 102.184401 -195.538011 
L 97.912621 -195.538011 
L 93.640841 -195.538011 
L 89.369061 -195.538011 
L 85.097281 -195.538011 
L 80.825501 -195.538011 
L 76.55372 -195.538011 
z
" id="m910d48f777" style="stroke:#36a2eb;stroke-opacity:0.5;"/>
    </defs>
    <g clip-path="url(#pea0bd8538f)">
     <use style="fill:#36a2eb;fill-opacity:0.5;stroke:#36a2eb;stroke-opacity:0.5;" x="0" xlink:href="#m910d48f777" y="581.789375"/>
    </g>
   </g>
   <g id="PolyCollection_3">
    <defs>
     <path d="M 58.827273 -195.538011 
L 58.827273 -195.650004 
L 63.086354 -195.692234 
L 67.345436 -195.749007 
L 71.604517 -195.8248 
L 75.863599 -195.925281 
L 80.12268 -196.057565 
L 84.381762 -196.230497 
L 88.640844 -196.454982 
L 92.899925 -196.744335 
L 97.159007 -197.114666 
L 101.418088 -197.585273 
L 105.67717 -198.179047 
L 109.936251 -198.922859 
L 114.195333 -199.847921 
L 118.454414 -200.990079 
L 122.713496 -202.390029 
L 126.972577 -204.093399 
L 131.231659 -206.150691 
L 135.490741 -208.617009 
L 139.749822 -211.551575 
L 144.008904 -215.016962 
L 148.267985 -219.078053 
L 152.527067 -223.800667 
L 156.786148 -229.249878 
L 161.04523 -235.488004 
L 165.304311 -242.572312 
L 169.563393 -250.552459 
L 173.822475 -259.467747 
L 178.081556 -269.344261 
L 182.340638 -280.192004 
L 186.599719 -292.002137 
L 190.858801 -304.744465 
L 195.117882 -318.365297 
L 199.376964 -332.785841 
L 203.636045 -347.901251 
L 207.895127 -363.580456 
L 212.154208 -379.666871 
L 216.41329 -395.980052 
L 220.672372 -412.31833 
L 224.931453 -428.4624 
L 229.190535 -444.179822 
L 233.449616 -459.230303 
L 237.708698 -473.371627 
L 241.967779 -486.366018 
L 246.226861 -497.986726 
L 250.485942 -508.02457 
L 254.745024 -516.294181 
L 259.004105 -522.639693 
L 263.263187 -526.939623 
L 267.522269 -529.110739 
L 271.78135 -529.110739 
L 276.040432 -526.939623 
L 280.299513 -522.639693 
L 284.558595 -516.294181 
L 288.817676 -508.02457 
L 293.076758 -497.986726 
L 297.335839 -486.366018 
L 301.594921 -473.371627 
L 305.854002 -459.230303 
L 310.113084 -444.179822 
L 314.372166 -428.4624 
L 318.631247 -412.31833 
L 322.890329 -395.980052 
L 327.14941 -379.666871 
L 331.408492 -363.580456 
L 335.667573 -347.901251 
L 339.926655 -332.785841 
L 344.185736 -318.365297 
L 348.444818 -304.744465 
L 352.703899 -292.002137 
L 356.962981 -280.192004 
L 361.222063 -269.344261 
L 365.481144 -259.467747 
L 369.740226 -250.552459 
L 373.999307 -242.572312 
L 378.258389 -235.488004 
L 382.51747 -229.249878 
L 386.776552 -223.800667 
L 391.035633 -219.078053 
L 395.294715 -215.016962 
L 399.553797 -211.551575 
L 403.812878 -208.617009 
L 408.07196 -206.150691 
L 412.331041 -204.093399 
L 416.590123 -202.390029 
L 420.849204 -200.990079 
L 425.108286 -199.847921 
L 429.367367 -198.922859 
L 433.626449 -198.179047 
L 437.88553 -197.585273 
L 442.144612 -197.114666 
L 446.403694 -196.744335 
L 450.662775 -196.454982 
L 454.921857 -196.230497 
L 459.180938 -196.057565 
L 463.44002 -195.925281 
L 467.699101 -195.8248 
L 471.958183 -195.749007 
L 476.217264 -195.692234 
L 480.476346 -195.650004 
L 480.476346 -195.538011 
L 480.476346 -195.538011 
L 476.217264 -195.538011 
L 471.958183 -195.538011 
L 467.699101 -195.538011 
L 463.44002 -195.538011 
L 459.180938 -195.538011 
L 454.921857 -195.538011 
L 450.662775 -195.538011 
L 446.403694 -195.538011 
L 442.144612 -195.538011 
L 437.88553 -195.538011 
L 433.626449 -195.538011 
L 429.367367 -195.538011 
L 425.108286 -195.538011 
L 420.849204 -195.538011 
L 416.590123 -195.538011 
L 412.331041 -195.538011 
L 408.07196 -195.538011 
L 403.812878 -195.538011 
L 399.553797 -195.538011 
L 395.294715 -195.538011 
L 391.035633 -195.538011 
L 386.776552 -195.538011 
L 382.51747 -195.538011 
L 378.258389 -195.538011 
L 373.999307 -195.538011 
L 369.740226 -195.538011 
L 365.481144 -195.538011 
L 361.222063 -195.538011 
L 356.962981 -195.538011 
L 352.703899 -195.538011 
L 348.444818 -195.538011 
L 344.185736 -195.538011 
L 339.926655 -195.538011 
L 335.667573 -195.538011 
L 331.408492 -195.538011 
L 327.14941 -195.538011 
L 322.890329 -195.538011 
L 318.631247 -195.538011 
L 314.372166 -195.538011 
L 310.113084 -195.538011 
L 305.854002 -195.538011 
L 301.594921 -195.538011 
L 297.335839 -195.538011 
L 293.076758 -195.538011 
L 288.817676 -195.538011 
L 284.558595 -195.538011 
L 280.299513 -195.538011 
L 276.040432 -195.538011 
L 271.78135 -195.538011 
L 267.522269 -195.538011 
L 263.263187 -195.538011 
L 259.004105 -195.538011 
L 254.745024 -195.538011 
L 250.485942 -195.538011 
L 246.226861 -195.538011 
L 241.967779 -195.538011 
L 237.708698 -195.538011 
L 233.449616 -195.538011 
L 229.190535 -195.538011 
L 224.931453 -195.538011 
L 220.672372 -195.538011 
L 216.41329 -195.538011 
L 212.154208 -195.538011 
L 207.895127 -195.538011 
L 203.636045 -195.538011 
L 199.376964 -195.538011 
L 195.117882 -195.538011 
L 190.858801 -195.538011 
L 186.599719 -195.538011 
L 182.340638 -195.538011 
L 178.081556 -195.538011 
L 173.822475 -195.538011 
L 169.563393 -195.538011 
L 165.304311 -195.538011 
L 161.04523 -195.538011 
L 156.786148 -195.538011 
L 152.527067 -195.538011 
L 148.267985 -195.538011 
L 144.008904 -195.538011 
L 139.749822 -195.538011 
L 135.490741 -195.538011 
L 131.231659 -195.538011 
L 126.972577 -195.538011 
L 122.713496 -195.538011 
L 118.454414 -195.538011 
L 114.195333 -195.538011 
L 109.936251 -195.538011 
L 105.67717 -195.538011 
L 101.418088 -195.538011 
L 97.159007 -195.538011 
L 92.899925 -195.538011 
L 88.640844 -195.538011 
L 84.381762 -195.538011 
L 80.12268 -195.538011 
L 75.863599 -195.538011 
L 71.604517 -195.538011 
L 67.345436 -195.538011 
L 63.086354 -195.538011 
L 58.827273 -195.538011 
z
" id="me4d6879d94" style="stroke:#4bc0c0;stroke-opacity:0.5;"/>
    </defs>
    <g clip-path="url(#pea0bd8538f)">
     <use style="fill:#4bc0c0;fill-opacity:0.5;stroke:#4bc0c0;stroke-opacity:0.5;" x="0" xlink:href="#me4d6879d94" y="581.789375"/>
    </g>
   </g>
   <g id="PolyCollection_4">
    <defs>
     <path d="M 90.676454 -195.538011 
L 90.676454 -195.6492 
L 94.966315 -195.691128 
L 99.256176 -195.747493 
L 103.546038 -195.822742 
L 107.835899 -195.922503 
L 112.12576 -196.053837 
L 116.415622 -196.225528 
L 120.705483 -196.448402 
L 124.995344 -196.73568 
L 129.285206 -197.103353 
L 133.575067 -197.570584 
L 137.864929 -198.160097 
L 142.15479 -198.898573 
L 146.444651 -199.816997 
L 150.734513 -200.950961 
L 155.024374 -202.340865 
L 159.314235 -204.032014 
L 163.604097 -206.074545 
L 167.893958 -208.523167 
L 172.183819 -211.436677 
L 176.473681 -214.8772 
L 180.763542 -218.909153 
L 185.053403 -223.597882 
L 189.343265 -229.007995 
L 193.633126 -235.201362 
L 197.922987 -242.23484 
L 202.212849 -250.15773 
L 206.50271 -259.00905 
L 210.792571 -268.8147 
L 215.082433 -279.58461 
L 219.372294 -291.310006 
L 223.662156 -303.960908 
L 227.952017 -317.48401 
L 232.241878 -331.801087 
L 236.53174 -346.808043 
L 240.821601 -362.374749 
L 245.111462 -378.345744 
L 249.401324 -394.541878 
L 253.691185 -410.762929 
L 257.981046 -426.791165 
L 262.270908 -442.395814 
L 266.560769 -457.338308 
L 270.85063 -471.378167 
L 275.140492 -484.279324 
L 279.430353 -495.816653 
L 283.720214 -505.782475 
L 288.010076 -513.992752 
L 292.299937 -520.292735 
L 296.589798 -524.561813 
L 300.87966 -526.717351 
L 305.169521 -526.717351 
L 309.459383 -524.561813 
L 313.749244 -520.292735 
L 318.039105 -513.992752 
L 322.328967 -505.782475 
L 326.618828 -495.816653 
L 330.908689 -484.279324 
L 335.198551 -471.378167 
L 339.488412 -457.338308 
L 343.778273 -442.395814 
L 348.068135 -426.791165 
L 352.357996 -410.762929 
L 356.647857 -394.541878 
L 360.937719 -378.345744 
L 365.22758 -362.374749 
L 369.517441 -346.808043 
L 373.807303 -331.801087 
L 378.097164 -317.48401 
L 382.387025 -303.960908 
L 386.676887 -291.310006 
L 390.966748 -279.58461 
L 395.256609 -268.8147 
L 399.546471 -259.00905 
L 403.836332 -250.15773 
L 408.126194 -242.23484 
L 412.416055 -235.201362 
L 416.705916 -229.007995 
L 420.995778 -223.597882 
L 425.285639 -218.909153 
L 429.5755 -214.8772 
L 433.865362 -211.436677 
L 438.155223 -208.523167 
L 442.445084 -206.074545 
L 446.734946 -204.032014 
L 451.024807 -202.340865 
L 455.314668 -200.950961 
L 459.60453 -199.816997 
L 463.894391 -198.898573 
L 468.184252 -198.160097 
L 472.474114 -197.570584 
L 476.763975 -197.103353 
L 481.053836 -196.73568 
L 485.343698 -196.448402 
L 489.633559 -196.225528 
L 493.923421 -196.053837 
L 498.213282 -195.922503 
L 502.503143 -195.822742 
L 506.793005 -195.747493 
L 511.082866 -195.691128 
L 515.372727 -195.6492 
L 515.372727 -195.538011 
L 515.372727 -195.538011 
L 511.082866 -195.538011 
L 506.793005 -195.538011 
L 502.503143 -195.538011 
L 498.213282 -195.538011 
L 493.923421 -195.538011 
L 489.633559 -195.538011 
L 485.343698 -195.538011 
L 481.053836 -195.538011 
L 476.763975 -195.538011 
L 472.474114 -195.538011 
L 468.184252 -195.538011 
L 463.894391 -195.538011 
L 459.60453 -195.538011 
L 455.314668 -195.538011 
L 451.024807 -195.538011 
L 446.734946 -195.538011 
L 442.445084 -195.538011 
L 438.155223 -195.538011 
L 433.865362 -195.538011 
L 429.5755 -195.538011 
L 425.285639 -195.538011 
L 420.995778 -195.538011 
L 416.705916 -195.538011 
L 412.416055 -195.538011 
L 408.126194 -195.538011 
L 403.836332 -195.538011 
L 399.546471 -195.538011 
L 395.256609 -195.538011 
L 390.966748 -195.538011 
L 386.676887 -195.538011 
L 382.387025 -195.538011 
L 378.097164 -195.538011 
L 373.807303 -195.538011 
L 369.517441 -195.538011 
L 365.22758 -195.538011 
L 360.937719 -195.538011 
L 356.647857 -195.538011 
L 352.357996 -195.538011 
L 348.068135 -195.538011 
L 343.778273 -195.538011 
L 339.488412 -195.538011 
L 335.198551 -195.538011 
L 330.908689 -195.538011 
L 326.618828 -195.538011 
L 322.328967 -195.538011 
L 318.039105 -195.538011 
L 313.749244 -195.538011 
L 309.459383 -195.538011 
L 305.169521 -195.538011 
L 300.87966 -195.538011 
L 296.589798 -195.538011 
L 292.299937 -195.538011 
L 288.010076 -195.538011 
L 283.720214 -195.538011 
L 279.430353 -195.538011 
L 275.140492 -195.538011 
L 270.85063 -195.538011 
L 266.560769 -195.538011 
L 262.270908 -195.538011 
L 257.981046 -195.538011 
L 253.691185 -195.538011 
L 249.401324 -195.538011 
L 245.111462 -195.538011 
L 240.821601 -195.538011 
L 236.53174 -195.538011 
L 232.241878 -195.538011 
L 227.952017 -195.538011 
L 223.662156 -195.538011 
L 219.372294 -195.538011 
L 215.082433 -195.538011 
L 210.792571 -195.538011 
L 206.50271 -195.538011 
L 202.212849 -195.538011 
L 197.922987 -195.538011 
L 193.633126 -195.538011 
L 189.343265 -195.538011 
L 185.053403 -195.538011 
L 180.763542 -195.538011 
L 176.473681 -195.538011 
L 172.183819 -195.538011 
L 167.893958 -195.538011 
L 163.604097 -195.538011 
L 159.314235 -195.538011 
L 155.024374 -195.538011 
L 150.734513 -195.538011 
L 146.444651 -195.538011 
L 142.15479 -195.538011 
L 137.864929 -195.538011 
L 133.575067 -195.538011 
L 129.285206 -195.538011 
L 124.995344 -195.538011 
L 120.705483 -195.538011 
L 116.415622 -195.538011 
L 112.12576 -195.538011 
L 107.835899 -195.538011 
L 103.546038 -195.538011 
L 99.256176 -195.538011 
L 94.966315 -195.538011 
L 90.676454 -195.538011 
z
" id="m5dbf10e2f7" style="stroke:#9966ff;stroke-opacity:0.5;"/>
    </defs>
    <g clip-path="url(#pea0bd8538f)">
     <use style="fill:#9966ff;fill-opacity:0.5;stroke:#9966ff;stroke-opacity:0.5;" x="0" xlink:href="#m5dbf10e2f7" y="581.789375"/>
    </g>
   </g>
   <g id="line2d_1">
    <path clip-path="url(#pea0bd8538f)" d="M 73.075414 386.139778 
L 77.350043 386.097702 
L 81.624672 386.041135 
L 85.899301 385.965618 
L 90.173931 385.865502 
L 94.44856 385.7337 
L 98.723189 385.561397 
L 102.997818 385.337729 
L 107.272448 385.049428 
L 111.547077 384.680444 
L 115.821706 384.211548 
L 120.096335 383.619934 
L 124.370964 382.878827 
L 128.645594 381.95713 
L 132.920223 380.819126 
L 137.194852 379.424269 
L 141.469481 377.727093 
L 145.744111 375.677285 
L 150.01874 373.219937 
L 154.293369 370.296045 
L 158.567998 366.843262 
L 162.842628 362.796942 
L 167.117257 358.091505 
L 171.391886 352.662114 
L 175.666515 346.446677 
L 179.941145 339.388136 
L 184.215774 331.437014 
L 188.490403 322.554154 
L 192.765032 312.713563 
L 197.039662 301.905275 
L 201.314291 290.138097 
L 205.58892 277.442116 
L 209.863549 263.870825 
L 214.138178 249.502732 
L 218.412808 234.4423 
L 222.687437 218.820124 
L 226.962066 202.792218 
L 231.236695 186.538371 
L 235.511325 170.259519 
L 239.785954 154.174168 
L 244.060583 138.513914 
L 248.335212 123.518174 
L 252.609842 109.428285 
L 256.884471 96.481157 
L 261.1591 84.902716 
L 265.433729 74.901382 
L 269.708359 66.661849 
L 273.982988 60.339416 
L 278.257617 56.055126 
L 282.532246 53.891908 
L 286.806875 53.891908 
L 291.081505 56.055126 
L 295.356134 60.339416 
L 299.630763 66.661849 
L 303.905392 74.901382 
L 308.180022 84.902716 
L 312.454651 96.481157 
L 316.72928 109.428285 
L 321.003909 123.518174 
L 325.278539 138.513914 
L 329.553168 154.174168 
L 333.827797 170.259519 
L 338.102426 186.538371 
L 342.377056 202.792218 
L 346.651685 218.820124 
L 350.926314 234.4423 
L 355.200943 249.502732 
L 359.475572 263.870825 
L 363.750202 277.442116 
L 368.024831 290.138097 
L 372.29946 301.905275 
L 376.574089 312.713563 
L 380.848719 322.554154 
L 385.123348 331.437014 
L 389.397977 339.388136 
L 393.672606 346.446677 
L 397.947236 352.662114 
L 402.221865 358.091505 
L 406.496494 362.796942 
L 410.771123 366.843262 
L 415.045753 370.296045 
L 419.320382 373.219937 
L 423.595011 375.677285 
L 427.86964 377.727093 
L 432.144269 379.424269 
L 436.418899 380.819126 
L 440.693528 381.95713 
L 444.968157 382.878827 
L 449.242786 383.619934 
L 453.517416 384.211548 
L 457.792045 384.680444 
L 462.066674 385.049428 
L 466.341303 385.337729 
L 470.615933 385.561397 
L 474.890562 385.7337 
L 479.165191 385.865502 
L 483.43982 385.965618 
L 487.71445 386.041135 
L 491.989079 386.097702 
L 496.263708 386.139778 
" style="fill:none;stroke:#ff6384;stroke-linecap:square;"/>
   </g>
   <g id="line2d_2">
    <path clip-path="url(#pea0bd8538f)" d="M 76.55372 386.139704 
L 80.825501 386.097599 
L 85.097281 386.040995 
L 89.369061 385.965428 
L 93.640841 385.865245 
L 97.912621 385.733355 
L 102.184401 385.560937 
L 106.456182 385.337119 
L 110.727962 385.048626 
L 114.999742 384.679396 
L 119.271522 384.210188 
L 123.543302 383.618179 
L 127.815082 382.876578 
L 132.086863 381.954266 
L 136.358643 380.815503 
L 140.630423 379.419715 
L 144.902203 377.721408 
L 149.173983 375.670232 
L 153.445764 373.211245 
L 157.717544 370.285404 
L 161.989324 366.830317 
L 166.261104 362.781299 
L 170.532884 358.072723 
L 174.804664 352.639712 
L 179.076445 346.420129 
L 183.348225 339.356881 
L 187.620005 331.400456 
L 191.891785 322.511671 
L 196.163565 312.664517 
L 200.435345 301.84902 
L 204.707126 290.073994 
L 208.978906 277.369546 
L 213.250686 263.789204 
L 217.522466 249.411527 
L 221.794246 234.341051 
L 226.066026 218.708455 
L 230.337807 202.66986 
L 234.609587 186.405172 
L 238.881367 170.115463 
L 243.153147 154.019384 
L 247.424927 138.348685 
L 251.696707 123.342944 
L 255.968488 109.243658 
L 260.240268 96.287895 
L 264.512048 84.701731 
L 268.783828 74.693727 
L 273.055608 66.448699 
L 277.327389 60.12205 
L 281.599169 55.834902 
L 285.870949 53.670241 
L 290.142729 53.670241 
L 294.414509 55.834902 
L 298.686289 60.12205 
L 302.95807 66.448699 
L 307.22985 74.693727 
L 311.50163 84.701731 
L 315.77341 96.287895 
L 320.04519 109.243658 
L 324.31697 123.342944 
L 328.588751 138.348685 
L 332.860531 154.019384 
L 337.132311 170.115463 
L 341.404091 186.405172 
L 345.675871 202.66986 
L 349.947651 218.708455 
L 354.219432 234.341051 
L 358.491212 249.411527 
L 362.762992 263.789204 
L 367.034772 277.369546 
L 371.306552 290.073994 
L 375.578333 301.84902 
L 379.850113 312.664517 
L 384.121893 322.511671 
L 388.393673 331.400456 
L 392.665453 339.356881 
L 396.937233 346.420129 
L 401.209014 352.639712 
L 405.480794 358.072723 
L 409.752574 362.781299 
L 414.024354 366.830317 
L 418.296134 370.285404 
L 422.567914 373.211245 
L 426.839695 375.670232 
L 431.111475 377.721408 
L 435.383255 379.419715 
L 439.655035 380.815503 
L 443.926815 381.954266 
L 448.198595 382.876578 
L 452.470376 383.618179 
L 456.742156 384.210188 
L 461.013936 384.679396 
L 465.285716 385.048626 
L 469.557496 385.337119 
L 473.829276 385.560937 
L 478.101057 385.733355 
L 482.372837 385.865245 
L 486.644617 385.965428 
L 490.916397 386.040995 
L 495.188177 386.097599 
L 499.459958 386.139704 
" style="fill:none;stroke:#36a2eb;stroke-linecap:square;"/>
   </g>
   <g id="line2d_3">
    <path clip-path="url(#pea0bd8538f)" d="M 58.827273 386.139371 
L 63.086354 386.097141 
L 67.345436 386.040368 
L 71.604517 385.964575 
L 75.863599 385.864094 
L 80.12268 385.73181 
L 84.381762 385.558878 
L 88.640844 385.334393 
L 92.899925 385.04504 
L 97.159007 384.674709 
L 101.418088 384.204102 
L 105.67717 383.610328 
L 109.936251 382.866516 
L 114.195333 381.941454 
L 118.454414 380.799296 
L 122.713496 379.399346 
L 126.972577 377.695976 
L 131.231659 375.638684 
L 135.490741 373.172366 
L 139.749822 370.2378 
L 144.008904 366.772413 
L 148.267985 362.711322 
L 152.527067 357.988708 
L 156.786148 352.539497 
L 161.04523 346.301371 
L 165.304311 339.217063 
L 169.563393 331.236916 
L 173.822475 322.321628 
L 178.081556 312.445114 
L 182.340638 301.597371 
L 186.599719 289.787238 
L 190.858801 277.04491 
L 195.117882 263.424078 
L 199.376964 249.003534 
L 203.636045 233.888124 
L 207.895127 218.208919 
L 212.154208 202.122504 
L 216.41329 185.809323 
L 220.672372 169.471045 
L 224.931453 153.326975 
L 229.190535 137.609553 
L 233.449616 122.559072 
L 237.708698 108.417748 
L 241.967779 95.423357 
L 246.226861 83.802649 
L 250.485942 73.764805 
L 254.745024 65.495194 
L 259.004105 59.149682 
L 263.263187 54.849752 
L 267.522269 52.678636 
L 271.78135 52.678636 
L 276.040432 54.849752 
L 280.299513 59.149682 
L 284.558595 65.495194 
L 288.817676 73.764805 
L 293.076758 83.802649 
L 297.335839 95.423357 
L 301.594921 108.417748 
L 305.854002 122.559072 
L 310.113084 137.609553 
L 314.372166 153.326975 
L 318.631247 169.471045 
L 322.890329 185.809323 
L 327.14941 202.122504 
L 331.408492 218.208919 
L 335.667573 233.888124 
L 339.926655 249.003534 
L 344.185736 263.424078 
L 348.444818 277.04491 
L 352.703899 289.787238 
L 356.962981 301.597371 
L 361.222063 312.445114 
L 365.481144 322.321628 
L 369.740226 331.236916 
L 373.999307 339.217063 
L 378.258389 346.301371 
L 382.51747 352.539497 
L 386.776552 357.988708 
L 391.035633 362.711322 
L 395.294715 366.772413 
L 399.553797 370.2378 
L 403.812878 373.172366 
L 408.07196 375.638684 
L 412.331041 377.695976 
L 416.590123 379.399346 
L 420.849204 380.799296 
L 425.108286 381.941454 
L 429.367367 382.866516 
L 433.626449 383.610328 
L 437.88553 384.204102 
L 442.144612 384.674709 
L 446.403694 385.04504 
L 450.662775 385.334393 
L 454.921857 385.558878 
L 459.180938 385.73181 
L 463.44002 385.864094 
L 467.699101 385.964575 
L 471.958183 386.040368 
L 476.217264 386.097141 
L 480.476346 386.139371 
" style="fill:none;stroke:#4bc0c0;stroke-linecap:square;"/>
   </g>
   <g id="line2d_4">
    <path clip-path="url(#pea0bd8538f)" d="M 90.676454 386.140175 
L 94.966315 386.098247 
L 99.256176 386.041882 
L 103.546038 385.966633 
L 107.835899 385.866872 
L 112.12576 385.735538 
L 116.415622 385.563847 
L 120.705483 385.340973 
L 124.995344 385.053695 
L 129.285206 384.686022 
L 133.575067 384.218791 
L 137.864929 383.629278 
L 142.15479 382.890802 
L 146.444651 381.972378 
L 150.734513 380.838414 
L 155.024374 379.44851 
L 159.314235 377.757361 
L 163.604097 375.71483 
L 167.893958 373.266208 
L 172.183819 370.352698 
L 176.473681 366.912175 
L 180.763542 362.880222 
L 185.053403 358.191493 
L 189.343265 352.78138 
L 193.633126 346.588013 
L 197.922987 339.554535 
L 202.212849 331.631645 
L 206.50271 322.780325 
L 210.792571 312.974675 
L 215.082433 302.204765 
L 219.372294 290.479369 
L 223.662156 277.828467 
L 227.952017 264.305365 
L 232.241878 249.988288 
L 236.53174 234.981332 
L 240.821601 219.414626 
L 245.111462 203.443631 
L 249.401324 187.247497 
L 253.691185 171.026446 
L 257.981046 154.99821 
L 262.270908 139.393561 
L 266.560769 124.451067 
L 270.85063 110.411208 
L 275.140492 97.510051 
L 279.430353 85.972722 
L 283.720214 76.0069 
L 288.010076 67.796623 
L 292.299937 61.49664 
L 296.589798 57.227562 
L 300.87966 55.072024 
L 305.169521 55.072024 
L 309.459383 57.227562 
L 313.749244 61.49664 
L 318.039105 67.796623 
L 322.328967 76.0069 
L 326.618828 85.972722 
L 330.908689 97.510051 
L 335.198551 110.411208 
L 339.488412 124.451067 
L 343.778273 139.393561 
L 348.068135 154.99821 
L 352.357996 171.026446 
L 356.647857 187.247497 
L 360.937719 203.443631 
L 365.22758 219.414626 
L 369.517441 234.981332 
L 373.807303 249.988288 
L 378.097164 264.305365 
L 382.387025 277.828467 
L 386.676887 290.479369 
L 390.966748 302.204765 
L 395.256609 312.974675 
L 399.546471 322.780325 
L 403.836332 331.631645 
L 408.126194 339.554535 
L 412.416055 346.588013 
L 416.705916 352.78138 
L 420.995778 358.191493 
L 425.285639 362.880222 
L 429.5755 366.912175 
L 433.865362 370.352698 
L 438.155223 373.266208 
L 442.445084 375.71483 
L 446.734946 377.757361 
L 451.024807 379.44851 
L 455.314668 380.838414 
L 459.60453 381.972378 
L 463.894391 382.890802 
L 468.184252 383.629278 
L 472.474114 384.218791 
L 476.763975 384.686022 
L 481.053836 385.053695 
L 485.343698 385.340973 
L 489.633559 385.563847 
L 493.923421 385.735538 
L 498.213282 385.866872 
L 502.503143 385.966633 
L 506.793005 386.041882 
L 511.082866 386.098247 
L 515.372727 386.140175 
" style="fill:none;stroke:#9966ff;stroke-linecap:square;"/>
   </g>
   <g id="patch_3">
    <path d="M 36 402.93 
L 538.2 402.93 
" style="fill:none;stroke:#000000;stroke-linecap:square;stroke-linejoin:miter;stroke-width:0.8;"/>
   </g>
   <g id="legend_1">
    <g id="patch_4">
     <path d="M 450.225313 129.3975 
L 528.4 129.3975 
Q 531.2 129.3975 531.2 126.5975 
L 531.2 45.8 
Q 531.2 43 528.4 43 
L 450.225313 43 
Q 447.425313 43 447.425313 45.8 
L 447.425313 126.5975 
Q 447.425313 129.3975 450.225313 129.3975 
z
" style="fill:#ffffff;opacity:0.8;stroke:#cccccc;stroke-linejoin:miter;"/>
    </g>
    <g id="patch_5">
     <path d="M 453.025313 59.237813 
L 481.025313 59.237813 
L 481.025313 49.437813 
L 453.025313 49.437813 
z
" style="fill:#ff6384;opacity:0.5;stroke:#ff6384;stroke-linejoin:miter;"/>
    </g>
    <g id="text_1">
     <!-- base -->
     <defs>
      <path d="M 48.6875 27.296875 
Q 48.6875 37.203125 44.609375 42.84375 
Q 40.53125 48.484375 33.40625 48.484375 
Q 26.265625 48.484375 22.1875 42.84375 
Q 18.109375 37.203125 18.109375 27.296875 
Q 18.109375 17.390625 22.1875 11.75 
Q 26.265625 6.109375 33.40625 6.109375 
Q 40.53125 6.109375 44.609375 11.75 
Q 48.6875 17.390625 48.6875 27.296875 
z
M 18.109375 46.390625 
Q 20.953125 51.265625 25.265625 53.625 
Q 29.59375 56 35.59375 56 
Q 45.5625 56 51.78125 48.09375 
Q 58.015625 40.1875 58.015625 27.296875 
Q 58.015625 14.40625 51.78125 6.484375 
Q 45.5625 -1.421875 35.59375 -1.421875 
Q 29.59375 -1.421875 25.265625 0.953125 
Q 20.953125 3.328125 18.109375 8.203125 
L 18.109375 0 
L 9.078125 0 
L 9.078125 75.984375 
L 18.109375 75.984375 
z
" id="DejaVuSans-98"/>
      <path d="M 34.28125 27.484375 
Q 23.390625 27.484375 19.1875 25 
Q 14.984375 22.515625 14.984375 16.5 
Q 14.984375 11.71875 18.140625 8.90625 
Q 21.296875 6.109375 26.703125 6.109375 
Q 34.1875 6.109375 38.703125 11.40625 
Q 43.21875 16.703125 43.21875 25.484375 
L 43.21875 27.484375 
z
M 52.203125 31.203125 
L 52.203125 0 
L 43.21875 0 
L 43.21875 8.296875 
Q 40.140625 3.328125 35.546875 0.953125 
Q 30.953125 -1.421875 24.3125 -1.421875 
Q 15.921875 -1.421875 10.953125 3.296875 
Q 6 8.015625 6 15.921875 
Q 6 25.140625 12.171875 29.828125 
Q 18.359375 34.515625 30.609375 34.515625 
L 43.21875 34.515625 
L 43.21875 35.40625 
Q 43.21875 41.609375 39.140625 45 
Q 35.0625 48.390625 27.6875 48.390625 
Q 23 48.390625 18.546875 47.265625 
Q 14.109375 46.140625 10.015625 43.890625 
L 10.015625 52.203125 
Q 14.9375 54.109375 19.578125 55.046875 
Q 24.21875 56 28.609375 56 
Q 40.484375 56 46.34375 49.84375 
Q 52.203125 43.703125 52.203125 31.203125 
z
" id="DejaVuSans-97"/>
      <path d="M 44.28125 53.078125 
L 44.28125 44.578125 
Q 40.484375 46.53125 36.375 47.5 
Q 32.28125 48.484375 27.875 48.484375 
Q 21.1875 48.484375 17.84375 46.4375 
Q 14.5 44.390625 14.5 40.28125 
Q 14.5 37.15625 16.890625 35.375 
Q 19.28125 33.59375 26.515625 31.984375 
L 29.59375 31.296875 
Q 39.15625 29.25 43.1875 25.515625 
Q 47.21875 21.78125 47.21875 15.09375 
Q 47.21875 7.46875 41.1875 3.015625 
Q 35.15625 -1.421875 24.609375 -1.421875 
Q 20.21875 -1.421875 15.453125 -0.5625 
Q 10.6875 0.296875 5.421875 2 
L 5.421875 11.28125 
Q 10.40625 8.6875 15.234375 7.390625 
Q 20.0625 6.109375 24.8125 6.109375 
Q 31.15625 6.109375 34.5625 8.28125 
Q 37.984375 10.453125 37.984375 14.40625 
Q 37.984375 18.0625 35.515625 20.015625 
Q 33.0625 21.96875 24.703125 23.78125 
L 21.578125 24.515625 
Q 13.234375 26.265625 9.515625 29.90625 
Q 5.8125 33.546875 5.8125 39.890625 
Q 5.8125 47.609375 11.28125 51.796875 
Q 16.75 56 26.8125 56 
Q 31.78125 56 36.171875 55.265625 
Q 40.578125 54.546875 44.28125 53.078125 
z
" id="DejaVuSans-115"/>
      <path d="M 56.203125 29.59375 
L 56.203125 25.203125 
L 14.890625 25.203125 
Q 15.484375 15.921875 20.484375 11.0625 
Q 25.484375 6.203125 34.421875 6.203125 
Q 39.59375 6.203125 44.453125 7.46875 
Q 49.3125 8.734375 54.109375 11.28125 
L 54.109375 2.78125 
Q 49.265625 0.734375 44.1875 -0.34375 
Q 39.109375 -1.421875 33.890625 -1.421875 
Q 20.796875 -1.421875 13.15625 6.1875 
Q 5.515625 13.8125 5.515625 26.8125 
Q 5.515625 40.234375 12.765625 48.109375 
Q 20.015625 56 32.328125 56 
Q 43.359375 56 49.78125 48.890625 
Q 56.203125 41.796875 56.203125 29.59375 
z
M 47.21875 32.234375 
Q 47.125 39.59375 43.09375 43.984375 
Q 39.0625 48.390625 32.421875 48.390625 
Q 24.90625 48.390625 20.390625 44.140625 
Q 15.875 39.890625 15.1875 32.171875 
z
" id="DejaVuSans-101"/>
     </defs>
     <g transform="translate(492.225313 59.237813)scale(0.14 -0.14)">
      <use xlink:href="#DejaVuSans-98"/>
      <use x="63.476562" xlink:href="#DejaVuSans-97"/>
      <use x="124.755859" xlink:href="#DejaVuSans-115"/>
      <use x="176.855469" xlink:href="#DejaVuSans-101"/>
     </g>
    </g>
    <g id="patch_6">
     <path d="M 453.025313 79.787188 
L 481.025313 79.787188 
L 481.025313 69.987188 
L 453.025313 69.987188 
z
" style="fill:#36a2eb;opacity:0.5;stroke:#36a2eb;stroke-linejoin:miter;"/>
    </g>
    <g id="text_2">
     <!-- fifth -->
     <defs>
      <path d="M 37.109375 75.984375 
L 37.109375 68.5 
L 28.515625 68.5 
Q 23.6875 68.5 21.796875 66.546875 
Q 19.921875 64.59375 19.921875 59.515625 
L 19.921875 54.6875 
L 34.71875 54.6875 
L 34.71875 47.703125 
L 19.921875 47.703125 
L 19.921875 0 
L 10.890625 0 
L 10.890625 47.703125 
L 2.296875 47.703125 
L 2.296875 54.6875 
L 10.890625 54.6875 
L 10.890625 58.5 
Q 10.890625 67.625 15.140625 71.796875 
Q 19.390625 75.984375 28.609375 75.984375 
z
" id="DejaVuSans-102"/>
      <path d="M 9.421875 54.6875 
L 18.40625 54.6875 
L 18.40625 0 
L 9.421875 0 
z
M 9.421875 75.984375 
L 18.40625 75.984375 
L 18.40625 64.59375 
L 9.421875 64.59375 
z
" id="DejaVuSans-105"/>
      <path d="M 18.3125 70.21875 
L 18.3125 54.6875 
L 36.8125 54.6875 
L 36.8125 47.703125 
L 18.3125 47.703125 
L 18.3125 18.015625 
Q 18.3125 11.328125 20.140625 9.421875 
Q 21.96875 7.515625 27.59375 7.515625 
L 36.8125 7.515625 
L 36.8125 0 
L 27.59375 0 
Q 17.1875 0 13.234375 3.875 
Q 9.28125 7.765625 9.28125 18.015625 
L 9.28125 47.703125 
L 2.6875 47.703125 
L 2.6875 54.6875 
L 9.28125 54.6875 
L 9.28125 70.21875 
z
" id="DejaVuSans-116"/>
      <path d="M 54.890625 33.015625 
L 54.890625 0 
L 45.90625 0 
L 45.90625 32.71875 
Q 45.90625 40.484375 42.875 44.328125 
Q 39.84375 48.1875 33.796875 48.1875 
Q 26.515625 48.1875 22.3125 43.546875 
Q 18.109375 38.921875 18.109375 30.90625 
L 18.109375 0 
L 9.078125 0 
L 9.078125 75.984375 
L 18.109375 75.984375 
L 18.109375 46.1875 
Q 21.34375 51.125 25.703125 53.5625 
Q 30.078125 56 35.796875 56 
Q 45.21875 56 50.046875 50.171875 
Q 54.890625 44.34375 54.890625 33.015625 
z
" id="DejaVuSans-104"/>
     </defs>
     <g transform="translate(492.225313 79.787188)scale(0.14 -0.14)">
      <use xlink:href="#DejaVuSans-102"/>
      <use x="35.205078" xlink:href="#DejaVuSans-105"/>
      <use x="62.988281" xlink:href="#DejaVuSans-102"/>
      <use x="98.177734" xlink:href="#DejaVuSans-116"/>
      <use x="137.386719" xlink:href="#DejaVuSans-104"/>
     </g>
    </g>
    <g id="patch_7">
     <path d="M 453.025313 100.336563 
L 481.025313 100.336563 
L 481.025313 90.536563 
L 453.025313 90.536563 
z
" style="fill:#4bc0c0;opacity:0.5;stroke:#4bc0c0;stroke-linejoin:miter;"/>
    </g>
    <g id="text_3">
     <!-- mid -->
     <defs>
      <path d="M 52 44.1875 
Q 55.375 50.25 60.0625 53.125 
Q 64.75 56 71.09375 56 
Q 79.640625 56 84.28125 50.015625 
Q 88.921875 44.046875 88.921875 33.015625 
L 88.921875 0 
L 79.890625 0 
L 79.890625 32.71875 
Q 79.890625 40.578125 77.09375 44.375 
Q 74.3125 48.1875 68.609375 48.1875 
Q 61.625 48.1875 57.5625 43.546875 
Q 53.515625 38.921875 53.515625 30.90625 
L 53.515625 0 
L 44.484375 0 
L 44.484375 32.71875 
Q 44.484375 40.625 41.703125 44.40625 
Q 38.921875 48.1875 33.109375 48.1875 
Q 26.21875 48.1875 22.15625 43.53125 
Q 18.109375 38.875 18.109375 30.90625 
L 18.109375 0 
L 9.078125 0 
L 9.078125 54.6875 
L 18.109375 54.6875 
L 18.109375 46.1875 
Q 21.1875 51.21875 25.484375 53.609375 
Q 29.78125 56 35.6875 56 
Q 41.65625 56 45.828125 52.96875 
Q 50 49.953125 52 44.1875 
z
" id="DejaVuSans-109"/>
      <path d="M 45.40625 46.390625 
L 45.40625 75.984375 
L 54.390625 75.984375 
L 54.390625 0 
L 45.40625 0 
L 45.40625 8.203125 
Q 42.578125 3.328125 38.25 0.953125 
Q 33.9375 -1.421875 27.875 -1.421875 
Q 17.96875 -1.421875 11.734375 6.484375 
Q 5.515625 14.40625 5.515625 27.296875 
Q 5.515625 40.1875 11.734375 48.09375 
Q 17.96875 56 27.875 56 
Q 33.9375 56 38.25 53.625 
Q 42.578125 51.265625 45.40625 46.390625 
z
M 14.796875 27.296875 
Q 14.796875 17.390625 18.875 11.75 
Q 22.953125 6.109375 30.078125 6.109375 
Q 37.203125 6.109375 41.296875 11.75 
Q 45.40625 17.390625 45.40625 27.296875 
Q 45.40625 37.203125 41.296875 42.84375 
Q 37.203125 48.484375 30.078125 48.484375 
Q 22.953125 48.484375 18.875 42.84375 
Q 14.796875 37.203125 14.796875 27.296875 
z
" id="DejaVuSans-100"/>
     </defs>
     <g transform="translate(492.225313 100.336563)scale(0.14 -0.14)">
      <use xlink:href="#DejaVuSans-109"/>
      <use x="97.412109" xlink:href="#DejaVuSans-105"/>
      <use x="125.195312" xlink:href="#DejaVuSans-100"/>
     </g>
    </g>
    <g id="patch_8">
     <path d="M 453.025313 120.885938 
L 481.025313 120.885938 
L 481.025313 111.085938 
L 453.025313 111.085938 
z
" style="fill:#9966ff;opacity:0.5;stroke:#9966ff;stroke-linejoin:miter;"/>
    </g>
    <g id="text_4">
     <!-- right -->
     <defs>
      <path d="M 41.109375 46.296875 
Q 39.59375 47.171875 37.8125 47.578125 
Q 36.03125 48 33.890625 48 
Q 26.265625 48 22.1875 43.046875 
Q 18.109375 38.09375 18.109375 28.8125 
L 18.109375 0 
L 9.078125 0 
L 9.078125 54.6875 
L 18.109375 54.6875 
L 18.109375 46.1875 
Q 20.953125 51.171875 25.484375 53.578125 
Q 30.03125 56 36.53125 56 
Q 37.453125 56 38.578125 55.875 
Q 39.703125 55.765625 41.0625 55.515625 
z
" id="DejaVuSans-114"/>
      <path d="M 45.40625 27.984375 
Q 45.40625 37.75 41.375 43.109375 
Q 37.359375 48.484375 30.078125 48.484375 
Q 22.859375 48.484375 18.828125 43.109375 
Q 14.796875 37.75 14.796875 27.984375 
Q 14.796875 18.265625 18.828125 12.890625 
Q 22.859375 7.515625 30.078125 7.515625 
Q 37.359375 7.515625 41.375 12.890625 
Q 45.40625 18.265625 45.40625 27.984375 
z
M 54.390625 6.78125 
Q 54.390625 -7.171875 48.1875 -13.984375 
Q 42 -20.796875 29.203125 -20.796875 
Q 24.46875 -20.796875 20.265625 -20.09375 
Q 16.0625 -19.390625 12.109375 -17.921875 
L 12.109375 -9.1875 
Q 16.0625 -11.328125 19.921875 -12.34375 
Q 23.78125 -13.375 27.78125 -13.375 
Q 36.625 -13.375 41.015625 -8.765625 
Q 45.40625 -4.15625 45.40625 5.171875 
L 45.40625 9.625 
Q 42.625 4.78125 38.28125 2.390625 
Q 33.9375 0 27.875 0 
Q 17.828125 0 11.671875 7.65625 
Q 5.515625 15.328125 5.515625 27.984375 
Q 5.515625 40.671875 11.671875 48.328125 
Q 17.828125 56 27.875 56 
Q 33.9375 56 38.28125 53.609375 
Q 42.625 51.21875 45.40625 46.390625 
L 45.40625 54.6875 
L 54.390625 54.6875 
z
" id="DejaVuSans-103"/>
     </defs>
     <g transform="translate(492.225313 120.885938)scale(0.14 -0.14)">
      <use xlink:href="#DejaVuSans-114"/>
      <use x="41.113281" xlink:href="#DejaVuSans-105"/>
      <use x="68.896484" xlink:href="#DejaVuSans-103"/>
      <use x="132.373047" xlink:href="#DejaVuSans-104"/>
      <use x="195.751953" xlink:href="#DejaVuSans-116"/>
     </g>
    </g>
   </g>
  </g>
  <g id="axes_2">
   <g id="patch_9">
    <path d="M 36 525.24 
L 538.2 525.24 
L 538.2 402.93 
L 36 402.93 
z
" style="fill:none;"/>
   </g>
   <g id="patch_10">
    <path clip-path="url(#p151c2de2c7)" d="M 180.988429 519.680455 
L 388.350693 519.680455 
L 388.350693 503.796039 
L 180.988429 503.796039 
z
" style="fill:#ff6384;opacity:0.5;"/>
   </g>
   <g id="patch_11">
    <path clip-path="url(#p151c2de2c7)" d="M 184.394811 487.911623 
L 391.618867 487.911623 
L 391.618867 472.027208 
L 184.394811 472.027208 
z
" style="fill:#36a2eb;opacity:0.5;"/>
   </g>
   <g id="patch_12">
    <path clip-path="url(#p151c2de2c7)" d="M 166.347786 456.142792 
L 372.955832 456.142792 
L 372.955832 440.258377 
L 166.347786 440.258377 
z
" style="fill:#4bc0c0;opacity:0.5;"/>
   </g>
   <g id="patch_13">
    <path clip-path="url(#p151c2de2c7)" d="M 198.974003 424.373961 
L 407.075178 424.373961 
L 407.075178 408.489545 
L 198.974003 408.489545 
z
" style="fill:#9966ff;opacity:0.5;"/>
   </g>
   <g id="matplotlib.axis_1">
    <g id="xtick_1">
     <g id="line2d_5">
      <defs>
       <path d="M 0 0 
L 0 3.5 
" id="m9d58c24b1a" style="stroke:#000000;stroke-width:0.8;"/>
      </defs>
      <g>
       <use style="stroke:#000000;stroke-width:0.8;" x="62.740566" xlink:href="#m9d58c24b1a" y="525.24"/>
      </g>
     </g>
     <g id="text_5">
      <!-- 6.0 -->
      <defs>
       <path d="M 33.015625 40.375 
Q 26.375 40.375 22.484375 35.828125 
Q 18.609375 31.296875 18.609375 23.390625 
Q 18.609375 15.53125 22.484375 10.953125 
Q 26.375 6.390625 33.015625 6.390625 
Q 39.65625 6.390625 43.53125 10.953125 
Q 47.40625 15.53125 47.40625 23.390625 
Q 47.40625 31.296875 43.53125 35.828125 
Q 39.65625 40.375 33.015625 40.375 
z
M 52.59375 71.296875 
L 52.59375 62.3125 
Q 48.875 64.0625 45.09375 64.984375 
Q 41.3125 65.921875 37.59375 65.921875 
Q 27.828125 65.921875 22.671875 59.328125 
Q 17.53125 52.734375 16.796875 39.40625 
Q 19.671875 43.65625 24.015625 45.921875 
Q 28.375 48.1875 33.59375 48.1875 
Q 44.578125 48.1875 50.953125 41.515625 
Q 57.328125 34.859375 57.328125 23.390625 
Q 57.328125 12.15625 50.6875 5.359375 
Q 44.046875 -1.421875 33.015625 -1.421875 
Q 20.359375 -1.421875 13.671875 8.265625 
Q 6.984375 17.96875 6.984375 36.375 
Q 6.984375 53.65625 15.1875 63.9375 
Q 23.390625 74.21875 37.203125 74.21875 
Q 40.921875 74.21875 44.703125 73.484375 
Q 48.484375 72.75 52.59375 71.296875 
z
" id="DejaVuSans-54"/>
       <path d="M 10.6875 12.40625 
L 21 12.40625 
L 21 0 
L 10.6875 0 
z
" id="DejaVuSans-46"/>
       <path d="M 31.78125 66.40625 
Q 24.171875 66.40625 20.328125 58.90625 
Q 16.5 51.421875 16.5 36.375 
Q 16.5 21.390625 20.328125 13.890625 
Q 24.171875 6.390625 31.78125 6.390625 
Q 39.453125 6.390625 43.28125 13.890625 
Q 47.125 21.390625 47.125 36.375 
Q 47.125 51.421875 43.28125 58.90625 
Q 39.453125 66.40625 31.78125 66.40625 
z
M 31.78125 74.21875 
Q 44.046875 74.21875 50.515625 64.515625 
Q 56.984375 54.828125 56.984375 36.375 
Q 56.984375 17.96875 50.515625 8.265625 
Q 44.046875 -1.421875 31.78125 -1.421875 
Q 19.53125 -1.421875 13.0625 8.265625 
Q 6.59375 17.96875 6.59375 36.375 
Q 6.59375 54.828125 13.0625 64.515625 
Q 19.53125 74.21875 31.78125 74.21875 
z
" id="DejaVuSans-48"/>
      </defs>
      <g transform="translate(51.608379 542.877813)scale(0.14 -0.14)">
       <use xlink:href="#DejaVuSans-54"/>
       <use x="63.623047" xlink:href="#DejaVuSans-46"/>
       <use x="95.410156" xlink:href="#DejaVuSans-48"/>
      </g>
     </g>
    </g>
    <g id="xtick_2">
     <g id="line2d_6">
      <g>
       <use style="stroke:#000000;stroke-width:0.8;" x="146.172519" xlink:href="#m9d58c24b1a" y="525.24"/>
      </g>
     </g>
     <g id="text_6">
      <!-- 6.5 -->
      <defs>
       <path d="M 10.796875 72.90625 
L 49.515625 72.90625 
L 49.515625 64.59375 
L 19.828125 64.59375 
L 19.828125 46.734375 
Q 21.96875 47.46875 24.109375 47.828125 
Q 26.265625 48.1875 28.421875 48.1875 
Q 40.625 48.1875 47.75 41.5 
Q 54.890625 34.8125 54.890625 23.390625 
Q 54.890625 11.625 47.5625 5.09375 
Q 40.234375 -1.421875 26.90625 -1.421875 
Q 22.3125 -1.421875 17.546875 -0.640625 
Q 12.796875 0.140625 7.71875 1.703125 
L 7.71875 11.625 
Q 12.109375 9.234375 16.796875 8.0625 
Q 21.484375 6.890625 26.703125 6.890625 
Q 35.15625 6.890625 40.078125 11.328125 
Q 45.015625 15.765625 45.015625 23.390625 
Q 45.015625 31 40.078125 35.4375 
Q 35.15625 39.890625 26.703125 39.890625 
Q 22.75 39.890625 18.8125 39.015625 
Q 14.890625 38.140625 10.796875 36.28125 
z
" id="DejaVuSans-53"/>
      </defs>
      <g transform="translate(135.040332 542.877813)scale(0.14 -0.14)">
       <use xlink:href="#DejaVuSans-54"/>
       <use x="63.623047" xlink:href="#DejaVuSans-46"/>
       <use x="95.410156" xlink:href="#DejaVuSans-53"/>
      </g>
     </g>
    </g>
    <g id="xtick_3">
     <g id="line2d_7">
      <g>
       <use style="stroke:#000000;stroke-width:0.8;" x="229.604472" xlink:href="#m9d58c24b1a" y="525.24"/>
      </g>
     </g>
     <g id="text_7">
      <!-- 7.0 -->
      <defs>
       <path d="M 8.203125 72.90625 
L 55.078125 72.90625 
L 55.078125 68.703125 
L 28.609375 0 
L 18.3125 0 
L 43.21875 64.59375 
L 8.203125 64.59375 
z
" id="DejaVuSans-55"/>
      </defs>
      <g transform="translate(218.472284 542.877813)scale(0.14 -0.14)">
       <use xlink:href="#DejaVuSans-55"/>
       <use x="63.623047" xlink:href="#DejaVuSans-46"/>
       <use x="95.410156" xlink:href="#DejaVuSans-48"/>
      </g>
     </g>
    </g>
    <g id="xtick_4">
     <g id="line2d_8">
      <g>
       <use style="stroke:#000000;stroke-width:0.8;" x="313.036425" xlink:href="#m9d58c24b1a" y="525.24"/>
      </g>
     </g>
     <g id="text_8">
      <!-- 7.5 -->
      <g transform="translate(301.904237 542.877813)scale(0.14 -0.14)">
       <use xlink:href="#DejaVuSans-55"/>
       <use x="63.623047" xlink:href="#DejaVuSans-46"/>
       <use x="95.410156" xlink:href="#DejaVuSans-53"/>
      </g>
     </g>
    </g>
    <g id="xtick_5">
     <g id="line2d_9">
      <g>
       <use style="stroke:#000000;stroke-width:0.8;" x="396.468378" xlink:href="#m9d58c24b1a" y="525.24"/>
      </g>
     </g>
     <g id="text_9">
      <!-- 8.0 -->
      <defs>
       <path d="M 31.78125 34.625 
Q 24.75 34.625 20.71875 30.859375 
Q 16.703125 27.09375 16.703125 20.515625 
Q 16.703125 13.921875 20.71875 10.15625 
Q 24.75 6.390625 31.78125 6.390625 
Q 38.8125 6.390625 42.859375 10.171875 
Q 46.921875 13.96875 46.921875 20.515625 
Q 46.921875 27.09375 42.890625 30.859375 
Q 38.875 34.625 31.78125 34.625 
z
M 21.921875 38.8125 
Q 15.578125 40.375 12.03125 44.71875 
Q 8.5 49.078125 8.5 55.328125 
Q 8.5 64.0625 14.71875 69.140625 
Q 20.953125 74.21875 31.78125 74.21875 
Q 42.671875 74.21875 48.875 69.140625 
Q 55.078125 64.0625 55.078125 55.328125 
Q 55.078125 49.078125 51.53125 44.71875 
Q 48 40.375 41.703125 38.8125 
Q 48.828125 37.15625 52.796875 32.3125 
Q 56.78125 27.484375 56.78125 20.515625 
Q 56.78125 9.90625 50.3125 4.234375 
Q 43.84375 -1.421875 31.78125 -1.421875 
Q 19.734375 -1.421875 13.25 4.234375 
Q 6.78125 9.90625 6.78125 20.515625 
Q 6.78125 27.484375 10.78125 32.3125 
Q 14.796875 37.15625 21.921875 38.8125 
z
M 18.3125 54.390625 
Q 18.3125 48.734375 21.84375 45.5625 
Q 25.390625 42.390625 31.78125 42.390625 
Q 38.140625 42.390625 41.71875 45.5625 
Q 45.3125 48.734375 45.3125 54.390625 
Q 45.3125 60.0625 41.71875 63.234375 
Q 38.140625 66.40625 31.78125 66.40625 
Q 25.390625 66.40625 21.84375 63.234375 
Q 18.3125 60.0625 18.3125 54.390625 
z
" id="DejaVuSans-56"/>
      </defs>
      <g transform="translate(385.33619 542.877813)scale(0.14 -0.14)">
       <use xlink:href="#DejaVuSans-56"/>
       <use x="63.623047" xlink:href="#DejaVuSans-46"/>
       <use x="95.410156" xlink:href="#DejaVuSans-48"/>
      </g>
     </g>
    </g>
    <g id="xtick_6">
     <g id="line2d_10">
      <g>
       <use style="stroke:#000000;stroke-width:0.8;" x="479.900331" xlink:href="#m9d58c24b1a" y="525.24"/>
      </g>
     </g>
     <g id="text_10">
      <!-- 8.5 -->
      <g transform="translate(468.768143 542.877813)scale(0.14 -0.14)">
       <use xlink:href="#DejaVuSans-56"/>
       <use x="63.623047" xlink:href="#DejaVuSans-46"/>
       <use x="95.410156" xlink:href="#DejaVuSans-53"/>
      </g>
     </g>
    </g>
   </g>
   <g id="line2d_11">
    <path clip-path="url(#p151c2de2c7)" d="M 284.669561 525.24 
L 284.669561 402.93 
" style="fill:none;stroke:#ff6384;stroke-dasharray:5.55,2.4;stroke-dashoffset:0;stroke-opacity:0.8;stroke-width:1.5;"/>
   </g>
   <g id="line2d_12">
    <path clip-path="url(#p151c2de2c7)" d="M 288.006839 525.24 
L 288.006839 402.93 
" style="fill:none;stroke:#36a2eb;stroke-dasharray:5.55,2.4;stroke-dashoffset:0;stroke-opacity:0.8;stroke-width:1.5;"/>
   </g>
   <g id="line2d_13">
    <path clip-path="url(#p151c2de2c7)" d="M 269.651809 525.24 
L 269.651809 402.93 
" style="fill:none;stroke:#4bc0c0;stroke-dasharray:5.55,2.4;stroke-dashoffset:0;stroke-opacity:0.8;stroke-width:1.5;"/>
   </g>
   <g id="line2d_14">
    <path clip-path="url(#p151c2de2c7)" d="M 303.02459 525.24 
L 303.02459 402.93 
" style="fill:none;stroke:#9966ff;stroke-dasharray:5.55,2.4;stroke-dashoffset:0;stroke-opacity:0.8;stroke-width:1.5;"/>
   </g>
   <g id="patch_14">
    <path d="M 36 525.24 
L 538.2 525.24 
" style="fill:none;stroke:#000000;stroke-linecap:square;stroke-linejoin:miter;stroke-width:0.8;"/>
   </g>
  </g>
 </g>
 <defs>
  <clipPath id="pea0bd8538f">
   <rect height="366.93" width="502.2" x="36" y="36"/>
  </clipPath>
  <clipPath id="p151c2de2c7">
   <rect height="122.31" width="502.2" x="36" y="402.93"/>
  </clipPath>
 </defs>
</svg>
